0, 0, Header, 1, 1, 480
1, 0, Start_track
1, 0, Title_t, "Test"
1, 0, Tempo, 500000
1, 0, Instrument_name_t, "Church Organ"
1, 311, Note_on_c, 1, 74, 127
1, 618, Note_off_c, 1, 74, 0
1, 622, Note_on_c, 1, 74, 127
1, 929, Note_off_c, 1, 74, 0
1, 933, Note_on_c, 1, 70, 127
1, 1240, Note_off_c, 1, 70, 0
1, 1244, Note_on_c, 1, 67, 127
1, 1244, Note_on_c, 1, 70, 127
1, 1551, Note_off_c, 1, 67, 0
1, 1551, Note_off_c, 1, 70, 0
1, 1555, Note_on_c, 1, 67, 127
1, 1555, Note_on_c, 1, 70, 127
1, 1862, Note_off_c, 1, 67, 0
1, 1862, Note_off_c, 1, 70, 0
1, 1866, Note_on_c, 1, 69, 127
1, 1866, Note_on_c, 1, 66, 127
1, 2018, Note_off_c, 1, 69, 0
1, 2021, Note_on_c, 1, 67, 127
1, 2173, Note_off_c, 1, 66, 0
1, 2173, Note_off_c, 1, 67, 0
1, 2177, Note_on_c, 1, 69, 127
1, 2177, Note_on_c, 1, 62, 127
1, 2177, Note_on_c, 1, 66, 127
1, 2329, Note_off_c, 1, 69, 0
1, 2332, Note_on_c, 1, 70, 127
1, 2484, Note_off_c, 1, 62, 0
1, 2484, Note_off_c, 1, 66, 0
1, 2484, Note_off_c, 1, 70, 0
1, 2488, Note_on_c, 1, 69, 127
1, 2488, Note_on_c, 1, 62, 127
1, 2488, Note_on_c, 1, 66, 127
1, 2640, Note_off_c, 1, 69, 0
1, 2643, Note_on_c, 1, 70, 127
1, 2795, Note_off_c, 1, 62, 0
1, 2795, Note_off_c, 1, 66, 0
1, 2795, Note_off_c, 1, 70, 0
1, 2799, Note_on_c, 1, 67, 127
1, 2799, Note_on_c, 1, 62, 127
1, 2799, Note_on_c, 1, 58, 127
1, 2951, Note_off_c, 1, 67, 0
1, 2954, Note_on_c, 1, 66, 127
1, 3106, Note_off_c, 1, 62, 0
1, 3106, Note_off_c, 1, 58, 0
1, 3106, Note_off_c, 1, 66, 0
1, 3110, Note_on_c, 1, 67, 127
1, 3110, Note_on_c, 1, 55, 127
1, 3110, Note_on_c, 1, 58, 127
1, 3110, Note_on_c, 1, 62, 127
1, 3262, Note_off_c, 1, 67, 0
1, 3265, Note_on_c, 1, 69, 127
1, 3417, Note_off_c, 1, 55, 0
1, 3417, Note_off_c, 1, 58, 0
1, 3417, Note_off_c, 1, 62, 0
1, 3417, Note_off_c, 1, 69, 0
1, 3421, Note_on_c, 1, 70, 127
1, 3421, Note_on_c, 1, 55, 127
1, 3421, Note_on_c, 1, 62, 127
1, 3421, Note_on_c, 1, 58, 127
1, 3573, Note_off_c, 1, 70, 0
1, 3576, Note_on_c, 1, 72, 127
1, 3728, Note_off_c, 1, 55, 0
1, 3728, Note_off_c, 1, 62, 0
1, 3728, Note_off_c, 1, 58, 0
1, 3728, Note_off_c, 1, 72, 0
1, 3732, Note_on_c, 1, 74, 127
1, 3732, Note_on_c, 1, 54, 127
1, 3732, Note_on_c, 1, 57, 127
1, 3732, Note_on_c, 1, 62, 127
1, 3884, Note_off_c, 1, 74, 0
1, 3888, Note_on_c, 1, 72, 127
1, 4039, Note_off_c, 1, 54, 0
1, 4039, Note_off_c, 1, 57, 0
1, 4039, Note_off_c, 1, 62, 0
1, 4040, Note_off_c, 1, 72, 0
1, 4043, Note_on_c, 1, 74, 127
1, 4043, Note_on_c, 1, 54, 127
1, 4043, Note_on_c, 1, 57, 127
1, 4043, Note_on_c, 1, 50, 127
1, 4195, Note_off_c, 1, 74, 0
1, 4199, Note_on_c, 1, 76, 127
1, 4350, Note_off_c, 1, 54, 0
1, 4350, Note_off_c, 1, 57, 0
1, 4350, Note_off_c, 1, 50, 0
1, 4351, Note_off_c, 1, 76, 0
1, 4354, Note_on_c, 1, 78, 127
1, 4354, Note_on_c, 1, 57, 127
1, 4354, Note_on_c, 1, 54, 127
1, 4354, Note_on_c, 1, 50, 127
1, 4506, Note_off_c, 1, 78, 0
1, 4510, Note_on_c, 1, 74, 127
1, 4661, Note_off_c, 1, 57, 0
1, 4661, Note_off_c, 1, 54, 0
1, 4661, Note_off_c, 1, 50, 0
1, 4662, Note_off_c, 1, 74, 0
1, 4665, Note_on_c, 1, 79, 127
1, 4665, Note_on_c, 1, 50, 127
1, 4665, Note_on_c, 1, 55, 127
1, 4665, Note_on_c, 1, 46, 127
1, 4817, Note_off_c, 1, 79, 0
1, 4821, Note_on_c, 1, 78, 127
1, 4972, Note_off_c, 1, 50, 0
1, 4972, Note_off_c, 1, 55, 0
1, 4972, Note_off_c, 1, 46, 0
1, 4973, Note_off_c, 1, 78, 0
1, 4976, Note_on_c, 1, 79, 127
1, 4976, Note_on_c, 1, 50, 127
1, 4976, Note_on_c, 1, 55, 127
1, 4976, Note_on_c, 1, 46, 127
1, 4976, Note_on_c, 1, 43, 127
1, 5128, Note_off_c, 1, 79, 0
1, 5132, Note_on_c, 1, 81, 127
1, 5283, Note_off_c, 1, 50, 0
1, 5283, Note_off_c, 1, 55, 0
1, 5283, Note_off_c, 1, 46, 0
1, 5283, Note_off_c, 1, 43, 0
1, 5284, Note_off_c, 1, 81, 0
1, 5287, Note_on_c, 1, 82, 127
1, 5287, Note_on_c, 1, 50, 127
1, 5287, Note_on_c, 1, 43, 127
1, 5287, Note_on_c, 1, 46, 127
1, 5439, Note_off_c, 1, 82, 0
1, 5443, Note_on_c, 1, 79, 127
1, 5594, Note_off_c, 1, 50, 0
1, 5594, Note_off_c, 1, 43, 0
1, 5594, Note_off_c, 1, 46, 0
1, 5595, Note_off_c, 1, 79, 0
1, 5598, Note_on_c, 1, 81, 127
1, 5598, Note_on_c, 1, 50, 127
1, 5598, Note_on_c, 1, 38, 127
1, 5598, Note_on_c, 1, 42, 127
1, 5598, Note_on_c, 1, 45, 127
1, 5750, Note_off_c, 1, 81, 0
1, 5754, Note_on_c, 1, 79, 127
1, 5906, Note_off_c, 1, 79, 0
1, 5909, Note_on_c, 1, 78, 127
1, 6061, Note_off_c, 1, 78, 0
1, 6065, Note_on_c, 1, 76, 127
1, 6217, Note_off_c, 1, 76, 0
1, 6220, Note_on_c, 1, 74, 127
1, 6310, Note_off_c, 1, 50, 0
1, 6310, Note_off_c, 1, 38, 0
1, 6310, Note_off_c, 1, 42, 0
1, 6310, Note_off_c, 1, 45, 0
1, 6372, Note_off_c, 1, 74, 0
1, 6376, Note_on_c, 1, 72, 127
1, 6528, Note_off_c, 1, 72, 0
1, 6531, Note_on_c, 1, 70, 127
1, 6687, Note_on_c, 1, 69, 127
1, 6838, Note_off_c, 1, 70, 0
1, 6839, Note_off_c, 1, 69, 0
1, 6842, Note_on_c, 1, 67, 127
1, 6842, Note_on_c, 1, 79, 127
1, 6842, Note_on_c, 1, 70, 127
1, 6842, Note_on_c, 1, 74, 127
1, 6994, Note_off_c, 1, 67, 0
1, 6998, Note_on_c, 1, 65, 127
1, 7149, Note_off_c, 1, 79, 0
1, 7149, Note_off_c, 1, 70, 0
1, 7149, Note_off_c, 1, 74, 0
1, 7150, Note_off_c, 1, 65, 0
1, 7153, Note_on_c, 1, 63, 127
1, 7153, Note_on_c, 1, 79, 127
1, 7153, Note_on_c, 1, 70, 127
1, 7153, Note_on_c, 1, 74, 127
1, 7305, Note_off_c, 1, 63, 0
1, 7309, Note_on_c, 1, 62, 127
1, 7460, Note_off_c, 1, 79, 0
1, 7460, Note_off_c, 1, 70, 0
1, 7460, Note_off_c, 1, 74, 0
1, 7461, Note_off_c, 1, 62, 0
1, 7464, Note_on_c, 1, 75, 127
1, 7464, Note_on_c, 1, 60, 127
1, 7464, Note_on_c, 1, 72, 127
1, 7616, Note_off_c, 1, 75, 0
1, 7616, Note_off_c, 1, 60, 0
1, 7620, Note_on_c, 1, 77, 127
1, 7620, Note_on_c, 1, 62, 127
1, 7772, Note_off_c, 1, 77, 0
1, 7772, Note_off_c, 1, 62, 0
1, 7923, Note_off_c, 1, 72, 0
1, 7931, Note_on_c, 1, 74, 127
1, 7931, Note_on_c, 1, 58, 127
1, 8083, Note_off_c, 1, 74, 0
1, 8083, Note_off_c, 1, 58, 0
1, 8087, Note_on_c, 1, 72, 127
1, 8087, Note_on_c, 1, 57, 127
1, 8239, Note_off_c, 1, 72, 0
1, 8239, Note_off_c, 1, 57, 0
1, 8242, Note_on_c, 1, 70, 127
1, 8242, Note_on_c, 1, 55, 127
1, 8394, Note_off_c, 1, 70, 0
1, 8394, Note_off_c, 1, 55, 0
1, 8398, Note_on_c, 1, 53, 127
1, 8398, Note_on_c, 1, 69, 127
1, 8550, Note_off_c, 1, 53, 0
1, 8553, Note_on_c, 1, 67, 127
1, 8705, Note_off_c, 1, 69, 0
1, 8705, Note_off_c, 1, 67, 0
1, 8709, Note_on_c, 1, 65, 127
1, 8709, Note_on_c, 1, 69, 127
1, 8709, Note_on_c, 1, 72, 127
1, 8709, Note_on_c, 1, 77, 127
1, 8861, Note_off_c, 1, 65, 0
1, 8864, Note_on_c, 1, 63, 127
1, 9016, Note_off_c, 1, 69, 0
1, 9016, Note_off_c, 1, 72, 0
1, 9016, Note_off_c, 1, 77, 0
1, 9016, Note_off_c, 1, 63, 0
1, 9020, Note_on_c, 1, 62, 127
1, 9020, Note_on_c, 1, 72, 127
1, 9020, Note_on_c, 1, 77, 127
1, 9020, Note_on_c, 1, 69, 127
1, 9172, Note_off_c, 1, 62, 0
1, 9175, Note_on_c, 1, 60, 127
1, 9327, Note_off_c, 1, 72, 0
1, 9327, Note_off_c, 1, 77, 0
1, 9327, Note_off_c, 1, 69, 0
1, 9327, Note_off_c, 1, 60, 0
1, 9331, Note_on_c, 1, 74, 127
1, 9331, Note_on_c, 1, 58, 127
1, 9331, Note_on_c, 1, 70, 127
1, 9483, Note_off_c, 1, 74, 0
1, 9483, Note_off_c, 1, 58, 0
1, 9486, Note_on_c, 1, 75, 127
1, 9486, Note_on_c, 1, 60, 127
1, 9638, Note_off_c, 1, 75, 0
1, 9638, Note_off_c, 1, 60, 0
1, 9784, Note_off_c, 1, 70, 0
1, 9797, Note_on_c, 1, 72, 127
1, 9797, Note_on_c, 1, 57, 127
1, 9949, Note_off_c, 1, 72, 0
1, 9949, Note_off_c, 1, 57, 0
1, 9953, Note_on_c, 1, 70, 127
1, 9953, Note_on_c, 1, 55, 127
1, 10105, Note_off_c, 1, 70, 0
1, 10105, Note_off_c, 1, 55, 0
1, 10108, Note_on_c, 1, 69, 127
1, 10108, Note_on_c, 1, 53, 127
1, 10260, Note_off_c, 1, 69, 0
1, 10260, Note_off_c, 1, 53, 0
1, 10264, Note_on_c, 1, 51, 127
1, 10264, Note_on_c, 1, 67, 127
1, 10416, Note_off_c, 1, 51, 0
1, 10419, Note_on_c, 1, 65, 127
1, 10571, Note_off_c, 1, 67, 0
1, 10571, Note_off_c, 1, 65, 0
1, 10575, Note_on_c, 1, 63, 127
1, 10575, Note_on_c, 1, 67, 127
1, 10575, Note_on_c, 1, 70, 127
1, 10575, Note_on_c, 1, 75, 127
1, 10727, Note_off_c, 1, 63, 0
1, 10730, Note_on_c, 1, 62, 127
1, 10882, Note_off_c, 1, 67, 0
1, 10882, Note_off_c, 1, 70, 0
1, 10882, Note_off_c, 1, 75, 0
1, 10882, Note_off_c, 1, 62, 0
1, 10886, Note_on_c, 1, 60, 127
1, 10886, Note_on_c, 1, 67, 127
1, 10886, Note_on_c, 1, 70, 127
1, 10886, Note_on_c, 1, 75, 127
1, 11038, Note_off_c, 1, 60, 0
1, 11041, Note_on_c, 1, 58, 127
1, 11193, Note_off_c, 1, 67, 0
1, 11193, Note_off_c, 1, 70, 0
1, 11193, Note_off_c, 1, 75, 0
1, 11193, Note_off_c, 1, 58, 0
1, 11197, Note_on_c, 1, 72, 127
1, 11197, Note_on_c, 1, 57, 127
1, 11197, Note_on_c, 1, 67, 127
1, 11349, Note_off_c, 1, 72, 0
1, 11349, Note_off_c, 1, 57, 0
1, 11352, Note_on_c, 1, 74, 127
1, 11352, Note_on_c, 1, 58, 127
1, 11504, Note_off_c, 1, 74, 0
1, 11504, Note_off_c, 1, 58, 0
1, 11664, Note_on_c, 1, 70, 127
1, 11664, Note_on_c, 1, 55, 127
1, 11815, Note_off_c, 1, 67, 0
1, 11816, Note_off_c, 1, 70, 0
1, 11816, Note_off_c, 1, 55, 0
1, 11819, Note_on_c, 1, 69, 127
1, 11819, Note_on_c, 1, 54, 127
1, 11971, Note_off_c, 1, 69, 0
1, 11971, Note_off_c, 1, 54, 0
1, 11975, Note_on_c, 1, 67, 127
1, 11975, Note_on_c, 1, 52, 127
1, 12127, Note_off_c, 1, 67, 0
1, 12127, Note_off_c, 1, 52, 0
1, 12130, Note_on_c, 1, 50, 127
1, 12130, Note_on_c, 1, 66, 127
1, 12282, Note_off_c, 1, 50, 0
1, 12286, Note_on_c, 1, 51, 127
1, 12437, Note_off_c, 1, 66, 0
1, 12438, Note_off_c, 1, 51, 0
1, 12441, Note_on_c, 1, 50, 127
1, 12441, Note_on_c, 1, 74, 127
1, 12441, Note_on_c, 1, 66, 127
1, 12441, Note_on_c, 1, 69, 127
1, 12593, Note_off_c, 1, 50, 0
1, 12597, Note_on_c, 1, 48, 127
1, 12748, Note_off_c, 1, 74, 0
1, 12748, Note_off_c, 1, 66, 0
1, 12748, Note_off_c, 1, 69, 0
1, 12749, Note_off_c, 1, 48, 0
1, 12752, Note_on_c, 1, 46, 127
1, 12752, Note_on_c, 1, 74, 127
1, 12752, Note_on_c, 1, 66, 127
1, 12752, Note_on_c, 1, 69, 127
1, 12904, Note_off_c, 1, 46, 0
1, 12908, Note_on_c, 1, 45, 127
1, 13059, Note_off_c, 1, 74, 0
1, 13059, Note_off_c, 1, 66, 0
1, 13059, Note_off_c, 1, 69, 0
1, 13060, Note_off_c, 1, 45, 0
1, 13063, Note_on_c, 1, 43, 127
1, 13063, Note_on_c, 1, 67, 127
1, 13063, Note_on_c, 1, 70, 127
1, 13063, Note_on_c, 1, 62, 127
1, 13215, Note_off_c, 1, 43, 0
1, 13219, Note_on_c, 1, 45, 127
1, 13370, Note_off_c, 1, 67, 0
1, 13370, Note_off_c, 1, 70, 0
1, 13371, Note_off_c, 1, 45, 0
1, 13530, Note_on_c, 1, 41, 127
1, 13682, Note_off_c, 1, 41, 0
1, 13685, Note_on_c, 1, 39, 127
1, 13837, Note_off_c, 1, 39, 0
1, 13841, Note_on_c, 1, 38, 127
1, 13993, Note_off_c, 1, 38, 0
1, 13994, Note_off_c, 1, 62, 0
1, 13996, Note_on_c, 1, 63, 127
1, 13996, Note_on_c, 1, 36, 127
1, 13996, Note_on_c, 1, 70, 127
1, 14148, Note_off_c, 1, 63, 0
1, 14152, Note_on_c, 1, 62, 127
1, 14303, Note_off_c, 1, 36, 0
1, 14304, Note_off_c, 1, 62, 0
1, 14307, Note_on_c, 1, 48, 127
1, 14463, Note_on_c, 1, 65, 127
1, 14614, Note_off_c, 1, 48, 0
1, 14615, Note_off_c, 1, 65, 0
1, 14618, Note_on_c, 1, 67, 127
1, 14770, Note_off_c, 1, 67, 0
1, 14927, Note_off_c, 1, 70, 0
1, 14929, Note_on_c, 1, 60, 127
1, 14929, Note_on_c, 1, 41, 127
1, 14929, Note_on_c, 1, 69, 127
1, 15081, Note_off_c, 1, 60, 0
1, 15085, Note_on_c, 1, 67, 127
1, 15236, Note_off_c, 1, 41, 0
1, 15237, Note_off_c, 1, 67, 0
1, 15240, Note_on_c, 1, 65, 127
1, 15240, Note_on_c, 1, 53, 127
1, 15392, Note_off_c, 1, 65, 0
1, 15396, Note_on_c, 1, 63, 127
1, 15547, Note_off_c, 1, 53, 0
1, 15548, Note_off_c, 1, 63, 0
1, 15552, Note_on_c, 1, 62, 127
1, 15704, Note_off_c, 1, 62, 0
1, 15863, Note_on_c, 1, 58, 127
1, 16170, Note_off_c, 1, 58, 0
1, 16174, Note_on_c, 1, 46, 127
1, 16481, Note_off_c, 1, 46, 0
1, 16792, Note_off_c, 1, 69, 0
1, 16796, Note_on_c, 1, 58, 127
1, 16796, Note_on_c, 1, 39, 127
1, 16796, Note_on_c, 1, 67, 127
1, 16948, Note_off_c, 1, 58, 0
1, 16951, Note_on_c, 1, 65, 127
1, 17103, Note_off_c, 1, 39, 0
1, 17103, Note_off_c, 1, 65, 0
1, 17107, Note_on_c, 1, 63, 127
1, 17107, Note_on_c, 1, 51, 127
1, 17259, Note_off_c, 1, 63, 0
1, 17262, Note_on_c, 1, 62, 127
1, 17414, Note_off_c, 1, 51, 0
1, 17414, Note_off_c, 1, 62, 0
1, 17418, Note_on_c, 1, 60, 127
1, 17570, Note_off_c, 1, 60, 0
1, 17729, Note_on_c, 1, 57, 127
1, 18036, Note_off_c, 1, 57, 0
1, 18040, Note_on_c, 1, 45, 127
1, 18347, Note_off_c, 1, 45, 0
1, 18659, Note_off_c, 1, 67, 0
1, 18662, Note_on_c, 1, 57, 127
1, 18662, Note_on_c, 1, 38, 127
1, 18662, Note_on_c, 1, 66, 127
1, 18814, Note_off_c, 1, 57, 0
1, 18817, Note_on_c, 1, 63, 127
1, 18969, Note_off_c, 1, 63, 0
1, 18973, Note_on_c, 1, 62, 127
1, 19115, Note_off_c, 1, 38, 0
1, 19125, Note_off_c, 1, 62, 0
1, 19128, Note_on_c, 1, 60, 127
1, 19280, Note_off_c, 1, 60, 0
1, 19284, Note_on_c, 1, 58, 127
1, 19436, Note_off_c, 1, 58, 0
1, 19593, Note_off_c, 1, 66, 0
1, 19595, Note_on_c, 1, 69, 127
1, 19595, Note_on_c, 1, 58, 127
1, 19669, Note_off_c, 1, 69, 0
1, 19673, Note_on_c, 1, 67, 127
1, 19747, Note_off_c, 1, 58, 0
1, 19747, Note_off_c, 1, 67, 0
1, 19751, Note_on_c, 1, 66, 127
1, 19751, Note_on_c, 1, 62, 127
1, 19825, Note_off_c, 1, 66, 0
1, 19828, Note_on_c, 1, 67, 127
1, 19902, Note_off_c, 1, 67, 0
1, 19903, Note_off_c, 1, 62, 0
1, 19906, Note_on_c, 1, 69, 127
1, 19906, Note_on_c, 1, 60, 127
1, 19980, Note_off_c, 1, 69, 0
1, 19984, Note_on_c, 1, 67, 127
1, 20058, Note_off_c, 1, 60, 0
1, 20058, Note_off_c, 1, 67, 0
1, 20062, Note_on_c, 1, 69, 127
1, 20062, Note_on_c, 1, 58, 127
1, 20136, Note_off_c, 1, 69, 0
1, 20139, Note_on_c, 1, 67, 127
1, 20213, Note_off_c, 1, 67, 0
1, 20214, Note_off_c, 1, 58, 0
1, 20217, Note_on_c, 1, 69, 127
1, 20217, Note_on_c, 1, 57, 127
1, 20291, Note_off_c, 1, 69, 0
1, 20295, Note_on_c, 1, 67, 127
1, 20369, Note_off_c, 1, 57, 0
1, 20369, Note_off_c, 1, 67, 0
1, 20373, Note_on_c, 1, 66, 127
1, 20373, Note_on_c, 1, 55, 127
1, 20447, Note_off_c, 1, 66, 0
1, 20450, Note_on_c, 1, 67, 127
1, 20524, Note_off_c, 1, 67, 0
1, 20525, Note_off_c, 1, 55, 0
1, 20528, Note_on_c, 1, 54, 127
1, 20528, Note_on_c, 1, 69, 127
1, 20680, Note_off_c, 1, 54, 0
1, 20684, Note_on_c, 1, 55, 127
1, 20835, Note_off_c, 1, 69, 0
1, 20836, Note_off_c, 1, 55, 0
1, 20839, Note_on_c, 1, 54, 127
1, 20839, Note_on_c, 1, 66, 127
1, 20839, Note_on_c, 1, 69, 127
1, 20839, Note_on_c, 1, 74, 127
1, 20991, Note_off_c, 1, 54, 0
1, 20995, Note_on_c, 1, 52, 127
1, 21146, Note_off_c, 1, 66, 0
1, 21146, Note_off_c, 1, 69, 0
1, 21146, Note_off_c, 1, 74, 0
1, 21147, Note_off_c, 1, 52, 0
1, 21150, Note_on_c, 1, 50, 127
1, 21150, Note_on_c, 1, 69, 127
1, 21150, Note_on_c, 1, 74, 127
1, 21150, Note_on_c, 1, 66, 127
1, 21302, Note_off_c, 1, 50, 0
1, 21306, Note_on_c, 1, 48, 127
1, 21457, Note_off_c, 1, 69, 0
1, 21457, Note_off_c, 1, 74, 0
1, 21457, Note_off_c, 1, 66, 0
1, 21458, Note_off_c, 1, 48, 0
1, 21461, Note_on_c, 1, 47, 127
1, 21461, Note_on_c, 1, 74, 127
1, 21461, Note_on_c, 1, 67, 127
1, 21461, Note_on_c, 1, 71, 127
1, 21461, Note_on_c, 1, 77, 127
1, 21613, Note_off_c, 1, 47, 0
1, 21617, Note_on_c, 1, 45, 127
1, 21768, Note_off_c, 1, 74, 0
1, 21768, Note_off_c, 1, 67, 0
1, 21768, Note_off_c, 1, 71, 0
1, 21768, Note_off_c, 1, 77, 0
1, 21769, Note_off_c, 1, 45, 0
1, 21772, Note_on_c, 1, 43, 127
1, 21772, Note_on_c, 1, 71, 127
1, 21772, Note_on_c, 1, 74, 127
1, 21772, Note_on_c, 1, 77, 127
1, 21772, Note_on_c, 1, 67, 127
1, 21924, Note_off_c, 1, 43, 0
1, 21928, Note_on_c, 1, 41, 127
1, 22079, Note_off_c, 1, 71, 0
1, 22079, Note_off_c, 1, 74, 0
1, 22079, Note_off_c, 1, 77, 0
1, 22079, Note_off_c, 1, 67, 0
1, 22080, Note_off_c, 1, 41, 0
1, 22083, Note_on_c, 1, 40, 127
1, 22083, Note_on_c, 1, 74, 127
1, 22083, Note_on_c, 1, 67, 127
1, 22083, Note_on_c, 1, 71, 127
1, 22083, Note_on_c, 1, 77, 127
1, 22235, Note_off_c, 1, 40, 0
1, 22239, Note_on_c, 1, 38, 127
1, 22390, Note_off_c, 1, 74, 0
1, 22390, Note_off_c, 1, 67, 0
1, 22390, Note_off_c, 1, 71, 0
1, 22390, Note_off_c, 1, 77, 0
1, 22391, Note_off_c, 1, 38, 0
1, 22394, Note_on_c, 1, 77, 127
1, 22394, Note_on_c, 1, 71, 127
1, 22394, Note_on_c, 1, 74, 127
1, 22394, Note_on_c, 1, 36, 127
1, 22394, Note_on_c, 1, 67, 127
1, 22701, Note_off_c, 1, 77, 0
1, 22701, Note_off_c, 1, 71, 0
1, 22701, Note_off_c, 1, 74, 0
1, 22701, Note_off_c, 1, 36, 0
1, 22705, Note_on_c, 1, 55, 127
1, 22705, Note_on_c, 1, 76, 127
1, 22705, Note_on_c, 1, 72, 127
1, 22857, Note_off_c, 1, 55, 0
1, 22861, Note_on_c, 1, 53, 127
1, 22987, Note_off_c, 1, 67, 0
1, 22995, Note_off_c, 1, 76, 0
1, 22995, Note_off_c, 1, 72, 0
1, 23013, Note_off_c, 1, 53, 0
1, 23016, Note_on_c, 1, 52, 127
1, 23016, Note_on_c, 1, 72, 127
1, 23016, Note_on_c, 1, 76, 127
1, 23016, Note_on_c, 1, 67, 127
1, 23168, Note_off_c, 1, 52, 0
1, 23172, Note_on_c, 1, 50, 127
1, 23323, Note_off_c, 1, 72, 0
1, 23323, Note_off_c, 1, 76, 0
1, 23323, Note_off_c, 1, 67, 0
1, 23324, Note_off_c, 1, 50, 0
1, 23328, Note_on_c, 1, 49, 127
1, 23328, Note_on_c, 1, 76, 127
1, 23328, Note_on_c, 1, 79, 127
1, 23328, Note_on_c, 1, 69, 127
1, 23328, Note_on_c, 1, 73, 127
1, 23480, Note_off_c, 1, 49, 0
1, 23483, Note_on_c, 1, 47, 127
1, 23635, Note_off_c, 1, 76, 0
1, 23635, Note_off_c, 1, 79, 0
1, 23635, Note_off_c, 1, 69, 0
1, 23635, Note_off_c, 1, 73, 0
1, 23635, Note_off_c, 1, 47, 0
1, 23639, Note_on_c, 1, 45, 127
1, 23639, Note_on_c, 1, 73, 127
1, 23639, Note_on_c, 1, 76, 127
1, 23639, Note_on_c, 1, 79, 127
1, 23639, Note_on_c, 1, 69, 127
1, 23791, Note_off_c, 1, 45, 0
1, 23794, Note_on_c, 1, 43, 127
1, 23946, Note_off_c, 1, 73, 0
1, 23946, Note_off_c, 1, 76, 0
1, 23946, Note_off_c, 1, 79, 0
1, 23946, Note_off_c, 1, 69, 0
1, 23946, Note_off_c, 1, 43, 0
1, 23950, Note_on_c, 1, 42, 127
1, 23950, Note_on_c, 1, 76, 127
1, 23950, Note_on_c, 1, 79, 127
1, 23950, Note_on_c, 1, 69, 127
1, 23950, Note_on_c, 1, 73, 127
1, 24102, Note_off_c, 1, 42, 0
1, 24105, Note_on_c, 1, 40, 127
1, 24257, Note_off_c, 1, 76, 0
1, 24257, Note_off_c, 1, 79, 0
1, 24257, Note_off_c, 1, 69, 0
1, 24257, Note_off_c, 1, 73, 0
1, 24257, Note_off_c, 1, 40, 0
1, 24261, Note_on_c, 1, 76, 127
1, 24261, Note_on_c, 1, 79, 127
1, 24261, Note_on_c, 1, 73, 127
1, 24261, Note_on_c, 1, 38, 127
1, 24261, Note_on_c, 1, 69, 127
1, 24568, Note_off_c, 1, 76, 0
1, 24568, Note_off_c, 1, 79, 0
1, 24568, Note_off_c, 1, 73, 0
1, 24568, Note_off_c, 1, 38, 0
1, 24572, Note_on_c, 1, 60, 127
1, 24572, Note_on_c, 1, 74, 127
1, 24572, Note_on_c, 1, 78, 127
1, 24724, Note_off_c, 1, 60, 0
1, 24727, Note_on_c, 1, 58, 127
1, 24851, Note_off_c, 1, 69, 0
1, 24862, Note_off_c, 1, 74, 0
1, 24862, Note_off_c, 1, 78, 0
1, 24879, Note_off_c, 1, 58, 0
1, 24883, Note_on_c, 1, 57, 127
1, 24883, Note_on_c, 1, 69, 127
1, 24883, Note_on_c, 1, 74, 127
1, 24883, Note_on_c, 1, 78, 127
1, 25035, Note_off_c, 1, 57, 0
1, 25038, Note_on_c, 1, 55, 127
1, 25163, Note_off_c, 1, 69, 0
1, 25163, Note_off_c, 1, 74, 0
1, 25163, Note_off_c, 1, 78, 0
1, 25190, Note_off_c, 1, 55, 0
1, 25194, Note_on_c, 1, 54, 127
1, 25194, Note_on_c, 1, 81, 127
1, 25194, Note_on_c, 1, 72, 127
1, 25194, Note_on_c, 1, 74, 127
1, 25346, Note_off_c, 1, 54, 0
1, 25349, Note_on_c, 1, 52, 127
1, 25501, Note_off_c, 1, 81, 0
1, 25501, Note_off_c, 1, 72, 0
1, 25501, Note_off_c, 1, 74, 0
1, 25501, Note_off_c, 1, 52, 0
1, 25505, Note_on_c, 1, 50, 127
1, 25505, Note_on_c, 1, 81, 127
1, 25505, Note_on_c, 1, 72, 127
1, 25505, Note_on_c, 1, 74, 127
1, 25657, Note_off_c, 1, 50, 0
1, 25660, Note_on_c, 1, 48, 127
1, 25812, Note_off_c, 1, 81, 0
1, 25812, Note_off_c, 1, 72, 0
1, 25812, Note_off_c, 1, 74, 0
1, 25812, Note_off_c, 1, 48, 0
1, 25816, Note_on_c, 1, 46, 127
1, 25816, Note_on_c, 1, 74, 127
1, 25816, Note_on_c, 1, 72, 127
1, 25816, Note_on_c, 1, 81, 127
1, 25968, Note_off_c, 1, 46, 0
1, 25971, Note_on_c, 1, 45, 127
1, 26123, Note_off_c, 1, 74, 0
1, 26123, Note_off_c, 1, 72, 0
1, 26123, Note_off_c, 1, 81, 0
1, 26123, Note_off_c, 1, 45, 0
1, 26127, Note_on_c, 1, 43, 127
1, 26127, Note_on_c, 1, 72, 127
1, 26127, Note_on_c, 1, 81, 127
1, 26127, Note_on_c, 1, 74, 127
1, 26279, Note_off_c, 1, 43, 0
1, 26282, Note_on_c, 1, 42, 127
1, 26434, Note_off_c, 1, 72, 0
1, 26434, Note_off_c, 1, 81, 0
1, 26434, Note_off_c, 1, 42, 0
1, 26438, Note_on_c, 1, 79, 127
1, 26438, Note_on_c, 1, 70, 127
1, 26593, Note_on_c, 1, 45, 127
1, 26742, Note_off_c, 1, 74, 0
1, 26745, Note_off_c, 1, 79, 0
1, 26745, Note_off_c, 1, 70, 0
1, 26745, Note_off_c, 1, 45, 0
1, 26749, Note_on_c, 1, 46, 127
1, 26749, Note_on_c, 1, 67, 127
1, 26749, Note_on_c, 1, 74, 127
1, 26749, Note_on_c, 1, 77, 127
1, 26901, Note_off_c, 1, 46, 0
1, 26904, Note_on_c, 1, 43, 127
1, 27056, Note_off_c, 1, 67, 0
1, 27056, Note_off_c, 1, 74, 0
1, 27056, Note_off_c, 1, 77, 0
1, 27056, Note_off_c, 1, 43, 0
1, 27060, Note_on_c, 1, 48, 127
1, 27060, Note_on_c, 1, 72, 127
1, 27060, Note_on_c, 1, 75, 127
1, 27060, Note_on_c, 1, 67, 127
1, 27212, Note_off_c, 1, 48, 0
1, 27216, Note_on_c, 1, 46, 127
1, 27367, Note_off_c, 1, 72, 0
1, 27367, Note_off_c, 1, 75, 0
1, 27368, Note_off_c, 1, 46, 0
1, 27371, Note_on_c, 1, 70, 127
1, 27371, Note_on_c, 1, 74, 127
1, 27527, Note_on_c, 1, 50, 127
1, 27678, Note_off_c, 1, 70, 0
1, 27678, Note_off_c, 1, 74, 0
1, 27679, Note_off_c, 1, 50, 0
1, 27682, Note_on_c, 1, 51, 127
1, 27682, Note_on_c, 1, 69, 127
1, 27834, Note_off_c, 1, 51, 0
1, 27991, Note_off_c, 1, 67, 0
1, 27993, Note_on_c, 1, 66, 127
1, 28054, Note_off_c, 1, 69, 0
1, 28149, Note_on_c, 1, 52, 127
1, 28301, Note_off_c, 1, 52, 0
1, 28304, Note_on_c, 1, 54, 127
1, 28456, Note_off_c, 1, 54, 0
1, 28608, Note_off_c, 1, 66, 0
1, 28615, Note_on_c, 1, 72, 127
1, 28615, Note_on_c, 1, 62, 127
1, 28615, Note_on_c, 1, 55, 127
1, 28615, Note_on_c, 1, 67, 127
1, 28767, Note_off_c, 1, 72, 0
1, 28771, Note_on_c, 1, 70, 127
1, 28922, Note_off_c, 1, 62, 0
1, 28922, Note_off_c, 1, 55, 0
1, 28926, Note_on_c, 1, 48, 127
1, 29078, Note_off_c, 1, 70, 0
1, 29082, Note_on_c, 1, 69, 127
1, 29230, Note_off_c, 1, 67, 0
1, 29233, Note_off_c, 1, 48, 0
1, 29234, Note_off_c, 1, 69, 0
1, 29237, Note_on_c, 1, 70, 127
1, 29237, Note_on_c, 1, 50, 127
1, 29237, Note_on_c, 1, 66, 127
1, 29311, Note_off_c, 1, 70, 0
1, 29315, Note_on_c, 1, 69, 127
1, 29389, Note_off_c, 1, 69, 0
1, 29544, Note_off_c, 1, 50, 0
1, 29548, Note_on_c, 1, 38, 127
1, 29704, Note_on_c, 1, 67, 127
1, 29852, Note_off_c, 1, 66, 0
1, 29855, Note_off_c, 1, 38, 0
1, 29856, Note_off_c, 1, 67, 0
1, 29859, Note_on_c, 1, 67, 127
1, 29859, Note_on_c, 1, 43, 127
1, 30011, Note_off_c, 1, 67, 0
1, 30031, Note_on_c, 1, 69, 127
1, 30183, Note_off_c, 1, 69, 0
1, 30186, Note_on_c, 1, 70, 127
1, 30338, Note_off_c, 1, 70, 0
1, 30439, Note_off_c, 1, 43, 0
1, 30497, Note_on_c, 1, 66, 127
1, 30649, Note_off_c, 1, 66, 0
1, 30653, Note_on_c, 1, 67, 127
1, 30805, Note_off_c, 1, 67, 0
1, 30808, Note_on_c, 1, 62, 127
1, 30964, Note_on_c, 1, 67, 127
1, 31115, Note_off_c, 1, 62, 0
1, 31116, Note_off_c, 1, 67, 0
1, 31120, Note_on_c, 1, 70, 127
1, 31272, Note_off_c, 1, 70, 0
1, 31275, Note_on_c, 1, 67, 127
1, 31427, Note_off_c, 1, 67, 0
1, 31431, Note_on_c, 1, 73, 127
1, 31583, Note_off_c, 1, 73, 0
1, 31586, Note_on_c, 1, 67, 127
1, 31738, Note_off_c, 1, 67, 0
1, 31742, Note_on_c, 1, 74, 127
1, 31897, Note_on_c, 1, 62, 127
1, 31971, Note_off_c, 1, 62, 0
1, 31975, Note_on_c, 1, 64, 127
1, 32049, Note_off_c, 1, 74, 0
1, 32049, Note_off_c, 1, 64, 0
1, 32053, Note_on_c, 1, 65, 127
1, 32053, Note_on_c, 1, 81, 127
1, 32205, Note_off_c, 1, 65, 0
1, 32208, Note_on_c, 1, 62, 127
1, 32360, Note_off_c, 1, 81, 0
1, 32360, Note_off_c, 1, 62, 0
1, 32364, Note_on_c, 1, 61, 127
1, 32364, Note_on_c, 1, 81, 127
1, 32516, Note_off_c, 1, 61, 0
1, 32519, Note_on_c, 1, 62, 127
1, 32671, Note_off_c, 1, 81, 0
1, 32671, Note_off_c, 1, 62, 0
1, 32675, Note_on_c, 1, 57, 127
1, 32675, Note_on_c, 1, 77, 127
1, 32827, Note_off_c, 1, 57, 0
1, 32830, Note_on_c, 1, 62, 127
1, 32982, Note_off_c, 1, 77, 0
1, 32982, Note_off_c, 1, 62, 0
1, 32986, Note_on_c, 1, 65, 127
1, 32986, Note_on_c, 1, 74, 127
1, 33138, Note_off_c, 1, 65, 0
1, 33141, Note_on_c, 1, 62, 127
1, 33293, Note_off_c, 1, 74, 0
1, 33293, Note_off_c, 1, 62, 0
1, 33297, Note_on_c, 1, 68, 127
1, 33297, Note_on_c, 1, 74, 127
1, 33449, Note_off_c, 1, 68, 0
1, 33452, Note_on_c, 1, 62, 127
1, 33604, Note_off_c, 1, 74, 0
1, 33604, Note_off_c, 1, 62, 0
1, 33608, Note_on_c, 1, 74, 127
1, 33608, Note_on_c, 1, 69, 127
1, 33760, Note_off_c, 1, 74, 0
1, 33763, Note_on_c, 1, 71, 127
1, 33915, Note_off_c, 1, 69, 0
1, 33915, Note_off_c, 1, 71, 0
1, 33919, Note_on_c, 1, 72, 127
1, 33919, Note_on_c, 1, 69, 127
1, 34071, Note_off_c, 1, 72, 0
1, 34074, Note_on_c, 1, 76, 127
1, 34226, Note_off_c, 1, 69, 0
1, 34226, Note_off_c, 1, 76, 0
1, 34230, Note_on_c, 1, 77, 127
1, 34230, Note_on_c, 1, 69, 127
1, 34382, Note_off_c, 1, 77, 0
1, 34385, Note_on_c, 1, 72, 127
1, 34537, Note_off_c, 1, 69, 0
1, 34537, Note_off_c, 1, 72, 0
1, 34541, Note_on_c, 1, 70, 127
1, 34541, Note_on_c, 1, 69, 127
1, 34693, Note_off_c, 1, 70, 0
1, 34696, Note_on_c, 1, 72, 127
1, 34848, Note_off_c, 1, 69, 0
1, 34848, Note_off_c, 1, 72, 0
1, 34852, Note_on_c, 1, 74, 127
1, 34852, Note_on_c, 1, 67, 127
1, 35004, Note_off_c, 1, 74, 0
1, 35008, Note_on_c, 1, 70, 127
1, 35159, Note_off_c, 1, 67, 0
1, 35160, Note_off_c, 1, 70, 0
1, 35163, Note_on_c, 1, 75, 127
1, 35163, Note_on_c, 1, 67, 127
1, 35315, Note_off_c, 1, 75, 0
1, 35319, Note_on_c, 1, 70, 127
1, 35470, Note_off_c, 1, 67, 0
1, 35471, Note_off_c, 1, 70, 0
1, 35474, Note_on_c, 1, 69, 127
1, 35474, Note_on_c, 1, 67, 127
1, 35626, Note_off_c, 1, 69, 0
1, 35630, Note_on_c, 1, 72, 127
1, 35781, Note_off_c, 1, 67, 0
1, 35782, Note_off_c, 1, 72, 0
1, 35785, Note_on_c, 1, 74, 127
1, 35785, Note_on_c, 1, 65, 127
1, 35937, Note_off_c, 1, 74, 0
1, 35941, Note_on_c, 1, 75, 127
1, 36092, Note_off_c, 1, 65, 0
1, 36093, Note_off_c, 1, 75, 0
1, 36096, Note_on_c, 1, 77, 127
1, 36096, Note_on_c, 1, 65, 127
1, 36248, Note_off_c, 1, 77, 0
1, 36252, Note_on_c, 1, 74, 127
1, 36404, Note_off_c, 1, 74, 0
1, 36407, Note_on_c, 1, 72, 127
1, 36484, Note_off_c, 1, 65, 0
1, 36559, Note_off_c, 1, 72, 0
1, 36563, Note_on_c, 1, 65, 127
1, 36563, Note_on_c, 1, 71, 127
1, 36715, Note_off_c, 1, 65, 0
1, 36715, Note_off_c, 1, 71, 0
1, 36718, Note_on_c, 1, 63, 127
1, 36718, Note_on_c, 1, 72, 127
1, 36870, Note_off_c, 1, 63, 0
1, 36874, Note_on_c, 1, 62, 127
1, 37025, Note_off_c, 1, 72, 0
1, 37026, Note_off_c, 1, 62, 0
1, 37029, Note_on_c, 1, 60, 127
1, 37029, Note_on_c, 1, 72, 127
1, 37181, Note_off_c, 1, 60, 0
1, 37185, Note_on_c, 1, 63, 127
1, 37336, Note_off_c, 1, 72, 0
1, 37337, Note_off_c, 1, 63, 0
1, 37340, Note_on_c, 1, 72, 127
1, 37340, Note_on_c, 1, 56, 127
1, 37492, Note_off_c, 1, 72, 0
1, 37496, Note_on_c, 1, 74, 127
1, 37647, Note_off_c, 1, 56, 0
1, 37648, Note_off_c, 1, 74, 0
1, 37651, Note_on_c, 1, 75, 127
1, 37651, Note_on_c, 1, 60, 127
1, 37803, Note_off_c, 1, 75, 0
1, 37807, Note_on_c, 1, 72, 127
1, 37958, Note_off_c, 1, 60, 0
1, 37959, Note_off_c, 1, 72, 0
1, 37962, Note_on_c, 1, 78, 127
1, 37962, Note_on_c, 1, 63, 127
1, 38114, Note_off_c, 1, 78, 0
1, 38118, Note_on_c, 1, 72, 127
1, 38269, Note_off_c, 1, 63, 0
1, 38270, Note_off_c, 1, 72, 0
1, 38273, Note_on_c, 1, 81, 127
1, 38273, Note_on_c, 1, 54, 127
1, 38425, Note_off_c, 1, 81, 0
1, 38429, Note_on_c, 1, 75, 127
1, 38580, Note_off_c, 1, 54, 0
1, 38581, Note_off_c, 1, 75, 0
1, 38584, Note_on_c, 1, 74, 127
1, 38584, Note_on_c, 1, 57, 127
1, 38736, Note_off_c, 1, 74, 0
1, 38740, Note_on_c, 1, 72, 127
1, 38891, Note_off_c, 1, 57, 0
1, 38892, Note_off_c, 1, 72, 0
1, 38896, Note_on_c, 1, 70, 127
1, 38896, Note_on_c, 1, 62, 127
1, 39048, Note_off_c, 1, 70, 0
1, 39051, Note_on_c, 1, 69, 127
1, 39203, Note_off_c, 1, 62, 0
1, 39203, Note_off_c, 1, 69, 0
1, 39207, Note_on_c, 1, 67, 127
1, 39207, Note_on_c, 1, 70, 127
1, 39362, Note_on_c, 1, 55, 127
1, 39436, Note_off_c, 1, 55, 0
1, 39440, Note_on_c, 1, 57, 127
1, 39514, Note_off_c, 1, 67, 0
1, 39514, Note_off_c, 1, 70, 0
1, 39514, Note_off_c, 1, 57, 0
1, 39518, Note_on_c, 1, 58, 127
1, 39518, Note_on_c, 1, 67, 127
1, 39518, Note_on_c, 1, 74, 127
1, 39670, Note_off_c, 1, 58, 0
1, 39673, Note_on_c, 1, 55, 127
1, 39825, Note_off_c, 1, 67, 0
1, 39825, Note_off_c, 1, 74, 0
1, 39825, Note_off_c, 1, 55, 0
1, 39829, Note_on_c, 1, 54, 127
1, 39829, Note_on_c, 1, 69, 127
1, 39829, Note_on_c, 1, 74, 127
1, 39829, Note_on_c, 1, 73, 127
1, 39981, Note_off_c, 1, 54, 0
1, 39984, Note_on_c, 1, 55, 127
1, 40136, Note_off_c, 1, 69, 0
1, 40136, Note_off_c, 1, 74, 0
1, 40136, Note_off_c, 1, 73, 0
1, 40136, Note_off_c, 1, 55, 0
1, 40140, Note_on_c, 1, 50, 127
1, 40140, Note_on_c, 1, 70, 127
1, 40140, Note_on_c, 1, 69, 127
1, 40292, Note_off_c, 1, 50, 0
1, 40295, Note_on_c, 1, 55, 127
1, 40447, Note_off_c, 1, 70, 0
1, 40447, Note_off_c, 1, 69, 0
1, 40447, Note_off_c, 1, 55, 0
1, 40451, Note_on_c, 1, 58, 127
1, 40451, Note_on_c, 1, 67, 127
1, 40451, Note_on_c, 1, 70, 127
1, 40603, Note_off_c, 1, 58, 0
1, 40606, Note_on_c, 1, 55, 127
1, 40758, Note_off_c, 1, 67, 0
1, 40758, Note_off_c, 1, 70, 0
1, 40758, Note_off_c, 1, 55, 0
1, 40762, Note_on_c, 1, 61, 127
1, 40762, Note_on_c, 1, 67, 127
1, 40762, Note_on_c, 1, 70, 127
1, 40914, Note_off_c, 1, 61, 0
1, 40917, Note_on_c, 1, 55, 127
1, 41069, Note_off_c, 1, 67, 0
1, 41069, Note_off_c, 1, 70, 0
1, 41069, Note_off_c, 1, 55, 0
1, 41073, Note_on_c, 1, 69, 127
1, 41073, Note_on_c, 1, 67, 127
1, 41073, Note_on_c, 1, 62, 127
1, 41225, Note_off_c, 1, 69, 0
1, 41228, Note_on_c, 1, 81, 127
1, 41380, Note_off_c, 1, 67, 0
1, 41380, Note_off_c, 1, 81, 0
1, 41384, Note_on_c, 1, 74, 127
1, 41384, Note_on_c, 1, 65, 127
1, 41536, Note_off_c, 1, 74, 0
1, 41688, Note_off_c, 1, 62, 0
1, 41691, Note_off_c, 1, 65, 0
1, 41695, Note_on_c, 1, 73, 127
1, 41695, Note_on_c, 1, 64, 127
1, 41847, Note_off_c, 1, 73, 0
1, 41850, Note_on_c, 1, 79, 127
1, 42002, Note_off_c, 1, 64, 0
1, 42002, Note_off_c, 1, 79, 0
1, 42006, Note_on_c, 1, 77, 127
1, 42006, Note_on_c, 1, 50, 127
1, 42006, Note_on_c, 1, 62, 127
1, 42158, Note_off_c, 1, 77, 0
1, 42161, Note_on_c, 1, 81, 127
1, 42313, Note_off_c, 1, 50, 0
1, 42313, Note_off_c, 1, 62, 0
1, 42313, Note_off_c, 1, 81, 0
1, 42317, Note_on_c, 1, 74, 127
1, 42317, Note_on_c, 1, 65, 127
1, 42469, Note_off_c, 1, 74, 0
1, 42472, Note_on_c, 1, 81, 127
1, 42624, Note_off_c, 1, 65, 0
1, 42624, Note_off_c, 1, 81, 0
1, 42628, Note_on_c, 1, 73, 127
1, 42628, Note_on_c, 1, 64, 127
1, 42780, Note_off_c, 1, 73, 0
1, 42784, Note_on_c, 1, 79, 127
1, 42935, Note_off_c, 1, 64, 0
1, 42936, Note_off_c, 1, 79, 0
1, 42939, Note_on_c, 1, 77, 127
1, 42939, Note_on_c, 1, 62, 127
1, 43091, Note_off_c, 1, 77, 0
1, 43095, Note_on_c, 1, 74, 127
1, 43247, Note_off_c, 1, 74, 0
1, 43250, Note_on_c, 1, 71, 127
1, 43250, Note_on_c, 1, 55, 127
1, 43402, Note_off_c, 1, 71, 0
1, 43557, Note_off_c, 1, 55, 0
1, 43561, Note_on_c, 1, 69, 127
1, 43561, Note_on_c, 1, 57, 127
1, 43713, Note_off_c, 1, 69, 0
1, 43868, Note_off_c, 1, 57, 0
1, 43872, Note_on_c, 1, 67, 127
1, 43872, Note_on_c, 1, 59, 127
1, 44024, Note_off_c, 1, 67, 0
1, 44179, Note_off_c, 1, 59, 0
1, 44802, Note_off_c, 1, 62, 0
1, 44805, Note_on_c, 1, 75, 127
1, 44805, Note_on_c, 1, 60, 127
1, 44957, Note_off_c, 1, 75, 0
1, 44961, Note_on_c, 1, 79, 127
1, 45113, Note_off_c, 1, 79, 0
1, 45116, Note_on_c, 1, 72, 127
1, 45116, Note_on_c, 1, 63, 127
1, 45268, Note_off_c, 1, 72, 0
1, 45420, Note_off_c, 1, 60, 0
1, 45423, Note_off_c, 1, 63, 0
1, 45427, Note_on_c, 1, 71, 127
1, 45427, Note_on_c, 1, 62, 127
1, 45579, Note_off_c, 1, 71, 0
1, 45583, Note_on_c, 1, 77, 127
1, 45734, Note_off_c, 1, 62, 0
1, 45735, Note_off_c, 1, 77, 0
1, 45738, Note_on_c, 1, 75, 127
1, 45738, Note_on_c, 1, 60, 127
1, 45738, Note_on_c, 1, 48, 127
1, 45890, Note_off_c, 1, 75, 0
1, 45894, Note_on_c, 1, 79, 127
1, 46045, Note_off_c, 1, 60, 0
1, 46045, Note_off_c, 1, 48, 0
1, 46046, Note_off_c, 1, 79, 0
1, 46049, Note_on_c, 1, 72, 127
1, 46049, Note_on_c, 1, 63, 127
1, 46201, Note_off_c, 1, 72, 0
1, 46205, Note_on_c, 1, 79, 127
1, 46356, Note_off_c, 1, 63, 0
1, 46357, Note_off_c, 1, 79, 0
1, 46360, Note_on_c, 1, 71, 127
1, 46360, Note_on_c, 1, 62, 127
1, 46512, Note_off_c, 1, 71, 0
1, 46516, Note_on_c, 1, 77, 127
1, 46667, Note_off_c, 1, 62, 0
1, 46668, Note_off_c, 1, 77, 0
1, 46672, Note_on_c, 1, 75, 127
1, 46672, Note_on_c, 1, 60, 127
1, 46824, Note_off_c, 1, 75, 0
1, 46827, Note_on_c, 1, 72, 127
1, 46979, Note_off_c, 1, 72, 0
1, 46983, Note_on_c, 1, 69, 127
1, 46983, Note_on_c, 1, 53, 127
1, 47135, Note_off_c, 1, 69, 0
1, 47290, Note_off_c, 1, 53, 0
1, 47294, Note_on_c, 1, 67, 127
1, 47294, Note_on_c, 1, 55, 127
1, 47446, Note_off_c, 1, 67, 0
1, 47601, Note_off_c, 1, 55, 0
1, 47605, Note_on_c, 1, 65, 127
1, 47605, Note_on_c, 1, 57, 127
1, 47757, Note_off_c, 1, 65, 0
1, 47912, Note_off_c, 1, 57, 0
1, 48535, Note_off_c, 1, 60, 0
1, 48538, Note_on_c, 1, 58, 127
1, 48538, Note_on_c, 1, 74, 127
1, 48690, Note_off_c, 1, 58, 0
1, 48693, Note_on_c, 1, 60, 127
1, 48845, Note_off_c, 1, 74, 0
1, 48845, Note_off_c, 1, 60, 0
1, 48849, Note_on_c, 1, 62, 127
1, 48849, Note_on_c, 1, 77, 127
1, 49001, Note_off_c, 1, 62, 0
1, 49004, Note_on_c, 1, 58, 127
1, 49156, Note_off_c, 1, 77, 0
1, 49156, Note_off_c, 1, 58, 0
1, 49160, Note_on_c, 1, 57, 127
1, 49160, Note_on_c, 1, 77, 127
1, 49312, Note_off_c, 1, 57, 0
1, 49315, Note_on_c, 1, 58, 127
1, 49467, Note_off_c, 1, 77, 0
1, 49467, Note_off_c, 1, 58, 0
1, 49471, Note_on_c, 1, 53, 127
1, 49471, Note_on_c, 1, 74, 127
1, 49623, Note_off_c, 1, 53, 0
1, 49626, Note_on_c, 1, 58, 127
1, 49778, Note_off_c, 1, 74, 0
1, 49778, Note_off_c, 1, 58, 0
1, 49782, Note_on_c, 1, 62, 127
1, 49782, Note_on_c, 1, 74, 127
1, 49782, Note_on_c, 1, 70, 127
1, 49934, Note_off_c, 1, 62, 0
1, 49937, Note_on_c, 1, 58, 127
1, 50089, Note_off_c, 1, 74, 0
1, 50089, Note_off_c, 1, 70, 0
1, 50089, Note_off_c, 1, 58, 0
1, 50093, Note_on_c, 1, 64, 127
1, 50093, Note_on_c, 1, 74, 127
1, 50093, Note_on_c, 1, 70, 127
1, 50245, Note_off_c, 1, 64, 0
1, 50248, Note_on_c, 1, 58, 127
1, 50400, Note_off_c, 1, 74, 0
1, 50400, Note_off_c, 1, 70, 0
1, 50400, Note_off_c, 1, 58, 0
1, 50404, Note_on_c, 1, 72, 127
1, 50404, Note_on_c, 1, 70, 127
1, 50404, Note_on_c, 1, 65, 127
1, 50556, Note_off_c, 1, 72, 0
1, 50560, Note_on_c, 1, 84, 127
1, 50711, Note_off_c, 1, 70, 0
1, 50712, Note_off_c, 1, 84, 0
1, 50715, Note_on_c, 1, 77, 127
1, 50715, Note_on_c, 1, 69, 127
1, 50867, Note_off_c, 1, 77, 0
1, 51019, Note_off_c, 1, 65, 0
1, 51022, Note_off_c, 1, 69, 0
1, 51026, Note_on_c, 1, 76, 127
1, 51026, Note_on_c, 1, 67, 127
1, 51178, Note_off_c, 1, 76, 0
1, 51182, Note_on_c, 1, 82, 127
1, 51333, Note_off_c, 1, 67, 0
1, 51334, Note_off_c, 1, 82, 0
1, 51337, Note_on_c, 1, 81, 127
1, 51337, Note_on_c, 1, 53, 127
1, 51337, Note_on_c, 1, 65, 127
1, 51489, Note_off_c, 1, 81, 0
1, 51493, Note_on_c, 1, 84, 127
1, 51644, Note_off_c, 1, 53, 0
1, 51644, Note_off_c, 1, 65, 0
1, 51645, Note_off_c, 1, 84, 0
1, 51648, Note_on_c, 1, 77, 127
1, 51648, Note_on_c, 1, 69, 127
1, 51800, Note_off_c, 1, 77, 0
1, 51804, Note_on_c, 1, 84, 127
1, 51955, Note_off_c, 1, 69, 0
1, 51956, Note_off_c, 1, 84, 0
1, 51959, Note_on_c, 1, 76, 127
1, 51959, Note_on_c, 1, 67, 127
1, 52111, Note_off_c, 1, 76, 0
1, 52115, Note_on_c, 1, 82, 127
1, 52266, Note_off_c, 1, 67, 0
1, 52267, Note_off_c, 1, 82, 0
1, 52270, Note_on_c, 1, 81, 127
1, 52270, Note_on_c, 1, 65, 127
1, 52422, Note_off_c, 1, 81, 0
1, 52426, Note_on_c, 1, 77, 127
1, 52578, Note_off_c, 1, 77, 0
1, 52581, Note_on_c, 1, 74, 127
1, 52581, Note_on_c, 1, 58, 127
1, 52733, Note_off_c, 1, 74, 0
1, 52737, Note_on_c, 1, 80, 127
1, 52888, Note_off_c, 1, 58, 0
1, 52889, Note_off_c, 1, 80, 0
1, 52892, Note_on_c, 1, 72, 127
1, 52892, Note_on_c, 1, 60, 127
1, 53044, Note_off_c, 1, 72, 0
1, 53199, Note_off_c, 1, 60, 0
1, 53203, Note_on_c, 1, 70, 127
1, 53203, Note_on_c, 1, 62, 127
1, 53355, Note_off_c, 1, 70, 0
1, 53510, Note_off_c, 1, 62, 0
1, 54133, Note_off_c, 1, 65, 0
1, 54136, Note_on_c, 1, 79, 127
1, 54136, Note_on_c, 1, 63, 127
1, 54288, Note_off_c, 1, 79, 0
1, 54292, Note_on_c, 1, 82, 127
1, 54444, Note_off_c, 1, 82, 0
1, 54448, Note_on_c, 1, 75, 127
1, 54448, Note_on_c, 1, 67, 127
1, 54600, Note_off_c, 1, 75, 0
1, 54751, Note_off_c, 1, 63, 0
1, 54755, Note_off_c, 1, 67, 0
1, 54759, Note_on_c, 1, 74, 127
1, 54759, Note_on_c, 1, 65, 127
1, 54911, Note_off_c, 1, 74, 0
1, 54914, Note_on_c, 1, 80, 127
1, 55066, Note_off_c, 1, 65, 0
1, 55066, Note_off_c, 1, 80, 0
1, 55070, Note_on_c, 1, 79, 127
1, 55070, Note_on_c, 1, 51, 127
1, 55070, Note_on_c, 1, 63, 127
1, 55222, Note_off_c, 1, 79, 0
1, 55225, Note_on_c, 1, 82, 127
1, 55377, Note_off_c, 1, 51, 0
1, 55377, Note_off_c, 1, 63, 0
1, 55377, Note_off_c, 1, 82, 0
1, 55381, Note_on_c, 1, 75, 127
1, 55381, Note_on_c, 1, 67, 127
1, 55533, Note_off_c, 1, 75, 0
1, 55536, Note_on_c, 1, 82, 127
1, 55688, Note_off_c, 1, 67, 0
1, 55688, Note_off_c, 1, 82, 0
1, 55692, Note_on_c, 1, 74, 127
1, 55692, Note_on_c, 1, 65, 127
1, 55844, Note_off_c, 1, 74, 0
1, 55847, Note_on_c, 1, 80, 127
1, 55999, Note_off_c, 1, 65, 0
1, 55999, Note_off_c, 1, 80, 0
1, 56003, Note_on_c, 1, 79, 127
1, 56003, Note_on_c, 1, 63, 127
1, 56155, Note_off_c, 1, 79, 0
1, 56158, Note_on_c, 1, 75, 127
1, 56310, Note_off_c, 1, 75, 0
1, 56314, Note_on_c, 1, 72, 127
1, 56314, Note_on_c, 1, 57, 127
1, 56466, Note_off_c, 1, 72, 0
1, 56621, Note_off_c, 1, 57, 0
1, 56625, Note_on_c, 1, 70, 127
1, 56625, Note_on_c, 1, 58, 127
1, 56777, Note_off_c, 1, 70, 0
1, 56932, Note_off_c, 1, 58, 0
1, 56936, Note_on_c, 1, 69, 127
1, 56936, Note_on_c, 1, 60, 127
1, 57088, Note_off_c, 1, 69, 0
1, 57243, Note_off_c, 1, 60, 0
1, 57866, Note_off_c, 1, 63, 0
1, 57869, Note_on_c, 1, 62, 127
1, 57869, Note_on_c, 1, 78, 127
1, 58021, Note_off_c, 1, 62, 0
1, 58024, Note_on_c, 1, 60, 127
1, 58176, Note_off_c, 1, 78, 0
1, 58176, Note_off_c, 1, 60, 0
1, 58180, Note_on_c, 1, 58, 127
1, 58180, Note_on_c, 1, 79, 127
1, 58180, Note_on_c, 1, 74, 127
1, 58332, Note_off_c, 1, 58, 0
1, 58336, Note_on_c, 1, 60, 127
1, 58487, Note_off_c, 1, 79, 0
1, 58487, Note_off_c, 1, 74, 0
1, 58488, Note_off_c, 1, 60, 0
1, 58491, Note_on_c, 1, 57, 127
1, 58491, Note_on_c, 1, 77, 127
1, 58491, Note_on_c, 1, 72, 127
1, 58643, Note_off_c, 1, 57, 0
1, 58647, Note_on_c, 1, 58, 127
1, 58798, Note_off_c, 1, 77, 0
1, 58798, Note_off_c, 1, 72, 0
1, 58799, Note_off_c, 1, 58, 0
1, 58802, Note_on_c, 1, 55, 127
1, 58802, Note_on_c, 1, 75, 127
1, 58802, Note_on_c, 1, 70, 127
1, 58954, Note_off_c, 1, 55, 0
1, 58958, Note_on_c, 1, 58, 127
1, 59109, Note_off_c, 1, 75, 0
1, 59109, Note_off_c, 1, 70, 0
1, 59110, Note_off_c, 1, 58, 0
1, 59113, Note_on_c, 1, 53, 127
1, 59113, Note_on_c, 1, 74, 127
1, 59113, Note_on_c, 1, 69, 127
1, 59265, Note_off_c, 1, 53, 0
1, 59269, Note_on_c, 1, 58, 127
1, 59420, Note_off_c, 1, 74, 0
1, 59420, Note_off_c, 1, 69, 0
1, 59421, Note_off_c, 1, 58, 0
1, 59424, Note_on_c, 1, 51, 127
1, 59424, Note_on_c, 1, 72, 127
1, 59424, Note_on_c, 1, 67, 127
1, 59576, Note_off_c, 1, 51, 0
1, 59580, Note_on_c, 1, 58, 127
1, 59731, Note_off_c, 1, 72, 0
1, 59731, Note_off_c, 1, 67, 0
1, 59732, Note_off_c, 1, 58, 0
1, 59735, Note_on_c, 1, 50, 127
1, 59735, Note_on_c, 1, 70, 127
1, 59735, Note_on_c, 1, 77, 127
1, 59735, Note_on_c, 1, 65, 127
1, 59887, Note_off_c, 1, 50, 0
1, 59891, Note_on_c, 1, 58, 127
1, 60042, Note_off_c, 1, 70, 0
1, 60042, Note_off_c, 1, 77, 0
1, 60043, Note_off_c, 1, 58, 0
1, 60046, Note_on_c, 1, 48, 127
1, 60046, Note_on_c, 1, 69, 127
1, 60046, Note_on_c, 1, 75, 127
1, 60198, Note_off_c, 1, 48, 0
1, 60350, Note_off_c, 1, 65, 0
1, 60357, Note_on_c, 1, 46, 127
1, 60386, Note_off_c, 1, 69, 0
1, 60434, Note_off_c, 1, 75, 0
1, 60509, Note_off_c, 1, 46, 0
1, 60513, Note_on_c, 1, 74, 127
1, 60668, Note_on_c, 1, 51, 127
1, 60820, Note_off_c, 1, 74, 0
1, 60824, Note_on_c, 1, 79, 127
1, 60975, Note_off_c, 1, 51, 0
1, 60976, Note_off_c, 1, 79, 0
1, 60979, Note_on_c, 1, 74, 127
1, 60979, Note_on_c, 1, 53, 127
1, 60979, Note_on_c, 1, 69, 127
1, 61053, Note_off_c, 1, 74, 0
1, 61057, Note_on_c, 1, 72, 127
1, 61131, Note_off_c, 1, 72, 0
1, 61286, Note_off_c, 1, 53, 0
1, 61290, Note_on_c, 1, 41, 127
1, 61432, Note_off_c, 1, 69, 0
1, 61446, Note_on_c, 1, 70, 127
1, 61597, Note_off_c, 1, 41, 0
1, 61598, Note_off_c, 1, 70, 0
1, 61601, Note_on_c, 1, 70, 127
1, 61601, Note_on_c, 1, 46, 127
1, 61908, Note_off_c, 1, 70, 0
1, 61912, Note_on_c, 1, 77, 127
1, 62219, Note_off_c, 1, 77, 0
1, 62532, Note_off_c, 1, 46, 0
1, 62535, Note_on_c, 1, 74, 127
1, 62842, Note_off_c, 1, 74, 0
1, 62846, Note_on_c, 1, 74, 127
1, 62846, Note_on_c, 1, 70, 127
1, 63153, Note_off_c, 1, 74, 0
1, 63153, Note_off_c, 1, 70, 0
1, 63157, Note_on_c, 1, 74, 127
1, 63157, Note_on_c, 1, 70, 127
1, 63464, Note_off_c, 1, 74, 0
1, 63464, Note_off_c, 1, 70, 0
1, 63468, Note_on_c, 1, 72, 127
1, 63468, Note_on_c, 1, 69, 127
1, 63620, Note_off_c, 1, 72, 0
1, 63623, Note_on_c, 1, 70, 127
1, 63775, Note_off_c, 1, 69, 0
1, 63775, Note_off_c, 1, 70, 0
1, 63779, Note_on_c, 1, 72, 127
1, 63779, Note_on_c, 1, 65, 127
1, 63779, Note_on_c, 1, 69, 127
1, 63931, Note_off_c, 1, 72, 0
1, 63934, Note_on_c, 1, 74, 127
1, 64086, Note_off_c, 1, 65, 0
1, 64086, Note_off_c, 1, 69, 0
1, 64086, Note_off_c, 1, 74, 0
1, 64090, Note_on_c, 1, 72, 127
1, 64090, Note_on_c, 1, 65, 127
1, 64090, Note_on_c, 1, 69, 127
1, 64242, Note_off_c, 1, 72, 0
1, 64245, Note_on_c, 1, 74, 127
1, 64397, Note_off_c, 1, 65, 0
1, 64397, Note_off_c, 1, 69, 0
1, 64397, Note_off_c, 1, 74, 0
1, 64401, Note_on_c, 1, 70, 127
1, 64401, Note_on_c, 1, 65, 127
1, 64401, Note_on_c, 1, 62, 127
1, 64553, Note_off_c, 1, 70, 0
1, 64556, Note_on_c, 1, 69, 127
1, 64708, Note_off_c, 1, 65, 0
1, 64708, Note_off_c, 1, 62, 0
1, 64708, Note_off_c, 1, 69, 0
1, 64712, Note_on_c, 1, 70, 127
1, 64712, Note_on_c, 1, 62, 127
1, 64712, Note_on_c, 1, 58, 127
1, 64712, Note_on_c, 1, 65, 127
1, 64864, Note_off_c, 1, 70, 0
1, 64867, Note_on_c, 1, 72, 127
1, 65019, Note_off_c, 1, 62, 0
1, 65019, Note_off_c, 1, 58, 0
1, 65019, Note_off_c, 1, 65, 0
1, 65019, Note_off_c, 1, 72, 0
1, 65023, Note_on_c, 1, 74, 127
1, 65023, Note_on_c, 1, 58, 127
1, 65023, Note_on_c, 1, 65, 127
1, 65023, Note_on_c, 1, 62, 127
1, 65175, Note_off_c, 1, 74, 0
1, 65178, Note_on_c, 1, 75, 127
1, 65330, Note_off_c, 1, 58, 0
1, 65330, Note_off_c, 1, 65, 0
1, 65330, Note_off_c, 1, 62, 0
1, 65330, Note_off_c, 1, 75, 0
1, 65334, Note_on_c, 1, 77, 127
1, 65334, Note_on_c, 1, 65, 127
1, 65334, Note_on_c, 1, 60, 127
1, 65334, Note_on_c, 1, 57, 127
1, 65486, Note_off_c, 1, 77, 0
1, 65489, Note_on_c, 1, 76, 127
1, 65641, Note_off_c, 1, 65, 0
1, 65641, Note_off_c, 1, 60, 0
1, 65641, Note_off_c, 1, 57, 0
1, 65641, Note_off_c, 1, 76, 0
1, 65645, Note_on_c, 1, 77, 127
1, 65645, Note_on_c, 1, 53, 127
1, 65645, Note_on_c, 1, 60, 127
1, 65645, Note_on_c, 1, 57, 127
1, 65797, Note_off_c, 1, 77, 0
1, 65800, Note_on_c, 1, 79, 127
1, 65952, Note_off_c, 1, 53, 0
1, 65952, Note_off_c, 1, 60, 0
1, 65952, Note_off_c, 1, 57, 0
1, 65952, Note_off_c, 1, 79, 0
1, 65956, Note_on_c, 1, 81, 127
1, 65956, Note_on_c, 1, 53, 127
1, 65956, Note_on_c, 1, 57, 127
1, 65956, Note_on_c, 1, 60, 127
1, 66108, Note_off_c, 1, 81, 0
1, 66112, Note_on_c, 1, 77, 127
1, 66263, Note_off_c, 1, 53, 0
1, 66263, Note_off_c, 1, 57, 0
1, 66263, Note_off_c, 1, 60, 0
1, 66264, Note_off_c, 1, 77, 0
1, 66267, Note_on_c, 1, 82, 127
1, 66267, Note_on_c, 1, 53, 127
1, 66267, Note_on_c, 1, 50, 127
1, 66267, Note_on_c, 1, 58, 127
1, 66419, Note_off_c, 1, 82, 0
1, 66423, Note_on_c, 1, 81, 127
1, 66574, Note_off_c, 1, 53, 0
1, 66574, Note_off_c, 1, 50, 0
1, 66574, Note_off_c, 1, 58, 0
1, 66575, Note_off_c, 1, 81, 0
1, 66578, Note_on_c, 1, 82, 127
1, 66578, Note_on_c, 1, 53, 127
1, 66578, Note_on_c, 1, 50, 127
1, 66578, Note_on_c, 1, 46, 127
1, 66730, Note_off_c, 1, 82, 0
1, 66734, Note_on_c, 1, 84, 127
1, 66885, Note_off_c, 1, 53, 0
1, 66885, Note_off_c, 1, 50, 0
1, 66885, Note_off_c, 1, 46, 0
1, 66886, Note_off_c, 1, 84, 0
1, 66889, Note_on_c, 1, 81, 127
1, 66889, Note_on_c, 1, 46, 127
1, 66889, Note_on_c, 1, 50, 127
1, 66889, Note_on_c, 1, 53, 127
1, 67041, Note_off_c, 1, 81, 0
1, 67045, Note_on_c, 1, 82, 127
1, 67196, Note_off_c, 1, 46, 0
1, 67196, Note_off_c, 1, 50, 0
1, 67196, Note_off_c, 1, 53, 0
1, 67197, Note_off_c, 1, 82, 0
1, 67200, Note_on_c, 1, 84, 127
1, 67200, Note_on_c, 1, 45, 127
1, 67200, Note_on_c, 1, 41, 127
1, 67200, Note_on_c, 1, 53, 127
1, 67200, Note_on_c, 1, 48, 127
1, 67352, Note_off_c, 1, 84, 0
1, 67356, Note_on_c, 1, 82, 127
1, 67508, Note_off_c, 1, 82, 0
1, 67511, Note_on_c, 1, 81, 127
1, 67663, Note_off_c, 1, 81, 0
1, 67667, Note_on_c, 1, 79, 127
1, 67819, Note_off_c, 1, 79, 0
1, 67822, Note_on_c, 1, 77, 127
1, 67912, Note_off_c, 1, 45, 0
1, 67912, Note_off_c, 1, 41, 0
1, 67912, Note_off_c, 1, 53, 0
1, 67912, Note_off_c, 1, 48, 0
1, 67974, Note_off_c, 1, 77, 0
1, 67978, Note_on_c, 1, 75, 127
1, 68130, Note_off_c, 1, 75, 0
1, 68133, Note_on_c, 1, 74, 127
1, 68289, Note_on_c, 1, 72, 127
1, 68440, Note_off_c, 1, 74, 0
1, 68441, Note_off_c, 1, 72, 0
1, 68444, Note_on_c, 1, 70, 127
1, 68444, Note_on_c, 1, 82, 127
1, 68444, Note_on_c, 1, 77, 127
1, 68444, Note_on_c, 1, 74, 127
1, 68596, Note_off_c, 1, 70, 0
1, 68600, Note_on_c, 1, 69, 127
1, 68751, Note_off_c, 1, 82, 0
1, 68751, Note_off_c, 1, 77, 0
1, 68751, Note_off_c, 1, 74, 0
1, 68752, Note_off_c, 1, 69, 0
1, 68755, Note_on_c, 1, 67, 127
1, 68755, Note_on_c, 1, 77, 127
1, 68755, Note_on_c, 1, 74, 127
1, 68755, Note_on_c, 1, 82, 127
1, 68907, Note_off_c, 1, 67, 0
1, 68911, Note_on_c, 1, 65, 127
1, 69062, Note_off_c, 1, 77, 0
1, 69062, Note_off_c, 1, 74, 0
1, 69062, Note_off_c, 1, 82, 0
1, 69063, Note_off_c, 1, 65, 0
1, 69066, Note_on_c, 1, 63, 127
1, 69066, Note_on_c, 1, 79, 127
1, 69066, Note_on_c, 1, 74, 127
1, 69218, Note_off_c, 1, 63, 0
1, 69218, Note_off_c, 1, 79, 0
1, 69222, Note_on_c, 1, 65, 127
1, 69222, Note_on_c, 1, 81, 127
1, 69374, Note_off_c, 1, 65, 0
1, 69374, Note_off_c, 1, 81, 0
1, 69519, Note_off_c, 1, 74, 0
1, 69533, Note_on_c, 1, 62, 127
1, 69533, Note_on_c, 1, 77, 127
1, 69685, Note_off_c, 1, 62, 0
1, 69685, Note_off_c, 1, 77, 0
1, 69688, Note_on_c, 1, 60, 127
1, 69688, Note_on_c, 1, 75, 127
1, 69840, Note_off_c, 1, 60, 0
1, 69840, Note_off_c, 1, 75, 0
1, 69844, Note_on_c, 1, 58, 127
1, 69844, Note_on_c, 1, 74, 127
1, 69996, Note_off_c, 1, 58, 0
1, 69996, Note_off_c, 1, 74, 0
1, 70000, Note_on_c, 1, 57, 127
1, 70000, Note_on_c, 1, 72, 127
1, 70152, Note_off_c, 1, 57, 0
1, 70155, Note_on_c, 1, 70, 127
1, 70307, Note_off_c, 1, 72, 0
1, 70307, Note_off_c, 1, 70, 0
1, 70311, Note_on_c, 1, 69, 127
1, 70311, Note_on_c, 1, 81, 127
1, 70311, Note_on_c, 1, 75, 127
1, 70311, Note_on_c, 1, 72, 127
1, 70463, Note_off_c, 1, 69, 0
1, 70466, Note_on_c, 1, 67, 127
1, 70618, Note_off_c, 1, 81, 0
1, 70618, Note_off_c, 1, 75, 0
1, 70618, Note_off_c, 1, 72, 0
1, 70618, Note_off_c, 1, 67, 0
1, 70622, Note_on_c, 1, 65, 127
1, 70622, Note_on_c, 1, 81, 127
1, 70622, Note_on_c, 1, 75, 127
1, 70622, Note_on_c, 1, 72, 127
1, 70774, Note_off_c, 1, 65, 0
1, 70777, Note_on_c, 1, 63, 127
1, 70929, Note_off_c, 1, 81, 0
1, 70929, Note_off_c, 1, 75, 0
1, 70929, Note_off_c, 1, 72, 0
1, 70929, Note_off_c, 1, 63, 0
1, 70933, Note_on_c, 1, 62, 127
1, 70933, Note_on_c, 1, 77, 127
1, 70933, Note_on_c, 1, 72, 127
1, 71085, Note_off_c, 1, 62, 0
1, 71085, Note_off_c, 1, 77, 0
1, 71088, Note_on_c, 1, 63, 127
1, 71088, Note_on_c, 1, 79, 127
1, 71240, Note_off_c, 1, 63, 0
1, 71240, Note_off_c, 1, 79, 0
1, 71386, Note_off_c, 1, 72, 0
1, 71399, Note_on_c, 1, 60, 127
1, 71399, Note_on_c, 1, 75, 127
1, 71551, Note_off_c, 1, 60, 0
1, 71551, Note_off_c, 1, 75, 0
1, 71555, Note_on_c, 1, 58, 127
1, 71555, Note_on_c, 1, 74, 127
1, 71707, Note_off_c, 1, 58, 0
1, 71707, Note_off_c, 1, 74, 0
1, 71710, Note_on_c, 1, 57, 127
1, 71710, Note_on_c, 1, 72, 127
1, 71862, Note_off_c, 1, 57, 0
1, 71862, Note_off_c, 1, 72, 0
1, 71866, Note_on_c, 1, 55, 127
1, 71866, Note_on_c, 1, 70, 127
1, 72018, Note_off_c, 1, 55, 0
1, 72021, Note_on_c, 1, 69, 127
1, 72173, Note_off_c, 1, 70, 0
1, 72173, Note_off_c, 1, 69, 0
1, 72177, Note_on_c, 1, 67, 127
1, 72177, Note_on_c, 1, 74, 127
1, 72177, Note_on_c, 1, 70, 127
1, 72177, Note_on_c, 1, 79, 127
1, 72329, Note_off_c, 1, 67, 0
1, 72332, Note_on_c, 1, 65, 127
1, 72484, Note_off_c, 1, 74, 0
1, 72484, Note_off_c, 1, 70, 0
1, 72484, Note_off_c, 1, 79, 0
1, 72484, Note_off_c, 1, 65, 0
1, 72488, Note_on_c, 1, 63, 127
1, 72488, Note_on_c, 1, 74, 127
1, 72488, Note_on_c, 1, 70, 127
1, 72488, Note_on_c, 1, 79, 127
1, 72640, Note_off_c, 1, 63, 0
1, 72643, Note_on_c, 1, 62, 127
1, 72795, Note_off_c, 1, 74, 0
1, 72795, Note_off_c, 1, 70, 0
1, 72795, Note_off_c, 1, 79, 0
1, 72795, Note_off_c, 1, 62, 0
1, 72799, Note_on_c, 1, 60, 127
1, 72799, Note_on_c, 1, 75, 127
1, 72799, Note_on_c, 1, 70, 127
1, 72951, Note_off_c, 1, 60, 0
1, 72951, Note_off_c, 1, 75, 0
1, 72954, Note_on_c, 1, 62, 127
1, 72954, Note_on_c, 1, 77, 127
1, 73106, Note_off_c, 1, 62, 0
1, 73106, Note_off_c, 1, 77, 0
1, 73252, Note_off_c, 1, 70, 0
1, 73265, Note_on_c, 1, 58, 127
1, 73265, Note_on_c, 1, 74, 127
1, 73417, Note_off_c, 1, 58, 0
1, 73417, Note_off_c, 1, 74, 0
1, 73421, Note_on_c, 1, 57, 127
1, 73421, Note_on_c, 1, 72, 127
1, 73573, Note_off_c, 1, 57, 0
1, 73573, Note_off_c, 1, 72, 0
1, 73576, Note_on_c, 1, 55, 127
1, 73576, Note_on_c, 1, 70, 127
1, 73728, Note_off_c, 1, 55, 0
1, 73728, Note_off_c, 1, 70, 0
1, 73732, Note_on_c, 1, 53, 127
1, 73732, Note_on_c, 1, 69, 127
1, 73884, Note_off_c, 1, 53, 0
1, 73888, Note_on_c, 1, 55, 127
1, 74039, Note_off_c, 1, 69, 0
1, 74040, Note_off_c, 1, 55, 0
1, 74043, Note_on_c, 1, 53, 127
1, 74043, Note_on_c, 1, 69, 127
1, 74043, Note_on_c, 1, 77, 127
1, 74043, Note_on_c, 1, 72, 127
1, 74195, Note_off_c, 1, 53, 0
1, 74199, Note_on_c, 1, 51, 127
1, 74350, Note_off_c, 1, 69, 0
1, 74350, Note_off_c, 1, 77, 0
1, 74350, Note_off_c, 1, 72, 0
1, 74351, Note_off_c, 1, 51, 0
1, 74354, Note_on_c, 1, 50, 127
1, 74354, Note_on_c, 1, 72, 127
1, 74354, Note_on_c, 1, 69, 127
1, 74354, Note_on_c, 1, 77, 127
1, 74506, Note_off_c, 1, 50, 0
1, 74510, Note_on_c, 1, 48, 127
1, 74661, Note_off_c, 1, 72, 0
1, 74661, Note_off_c, 1, 69, 0
1, 74661, Note_off_c, 1, 77, 0
1, 74662, Note_off_c, 1, 48, 0
1, 74665, Note_on_c, 1, 46, 127
1, 74665, Note_on_c, 1, 70, 127
1, 74665, Note_on_c, 1, 74, 127
1, 74665, Note_on_c, 1, 65, 127
1, 74817, Note_off_c, 1, 46, 0
1, 74821, Note_on_c, 1, 48, 127
1, 74972, Note_off_c, 1, 70, 0
1, 74972, Note_off_c, 1, 74, 0
1, 74973, Note_off_c, 1, 48, 0
1, 75132, Note_on_c, 1, 45, 127
1, 75284, Note_off_c, 1, 45, 0
1, 75287, Note_on_c, 1, 43, 127
1, 75439, Note_off_c, 1, 43, 0
1, 75443, Note_on_c, 1, 41, 127
1, 75595, Note_off_c, 1, 41, 0
1, 75596, Note_off_c, 1, 65, 0
1, 75598, Note_on_c, 1, 67, 127
1, 75598, Note_on_c, 1, 39, 127
1, 75598, Note_on_c, 1, 74, 127
1, 75750, Note_off_c, 1, 67, 0
1, 75754, Note_on_c, 1, 65, 127
1, 75905, Note_off_c, 1, 39, 0
1, 75906, Note_off_c, 1, 65, 0
1, 75909, Note_on_c, 1, 51, 127
1, 76065, Note_on_c, 1, 69, 127
1, 76216, Note_off_c, 1, 51, 0
1, 76217, Note_off_c, 1, 69, 0
1, 76220, Note_on_c, 1, 70, 127
1, 76372, Note_off_c, 1, 70, 0
1, 76529, Note_off_c, 1, 74, 0
1, 76531, Note_on_c, 1, 57, 127
1, 76531, Note_on_c, 1, 72, 127
1, 76687, Note_on_c, 1, 70, 127
1, 76838, Note_off_c, 1, 57, 0
1, 76839, Note_off_c, 1, 70, 0
1, 76842, Note_on_c, 1, 69, 127
1, 76842, Note_on_c, 1, 45, 127
1, 76994, Note_off_c, 1, 69, 0
1, 76998, Note_on_c, 1, 67, 127
1, 77149, Note_off_c, 1, 45, 0
1, 77150, Note_off_c, 1, 67, 0
1, 77153, Note_on_c, 1, 65, 127
1, 77305, Note_off_c, 1, 65, 0
1, 77309, Note_on_c, 1, 63, 127
1, 77461, Note_off_c, 1, 63, 0
1, 77464, Note_on_c, 1, 38, 127
1, 77771, Note_off_c, 1, 38, 0
1, 77776, Note_on_c, 1, 50, 127
1, 78083, Note_off_c, 1, 50, 0
1, 78394, Note_off_c, 1, 72, 0
1, 78398, Note_on_c, 1, 62, 127
1, 78398, Note_on_c, 1, 55, 127
1, 78398, Note_on_c, 1, 70, 127
1, 78550, Note_off_c, 1, 62, 0
1, 78553, Note_on_c, 1, 69, 127
1, 78705, Note_off_c, 1, 55, 0
1, 78705, Note_off_c, 1, 69, 0
1, 78709, Note_on_c, 1, 67, 127
1, 78709, Note_on_c, 1, 43, 127
1, 78861, Note_off_c, 1, 67, 0
1, 78864, Note_on_c, 1, 65, 127
1, 79016, Note_off_c, 1, 43, 0
1, 79016, Note_off_c, 1, 65, 0
1, 79020, Note_on_c, 1, 63, 127
1, 79172, Note_off_c, 1, 63, 0
1, 79331, Note_on_c, 1, 36, 127
1, 79638, Note_off_c, 1, 36, 0
1, 79642, Note_on_c, 1, 48, 127
1, 79949, Note_off_c, 1, 48, 0
1, 80261, Note_off_c, 1, 70, 0
1, 80264, Note_on_c, 1, 60, 127
1, 80264, Note_on_c, 1, 53, 127
1, 80264, Note_on_c, 1, 69, 127
1, 80416, Note_off_c, 1, 60, 0
1, 80419, Note_on_c, 1, 67, 127
1, 80571, Note_off_c, 1, 67, 0
1, 80575, Note_on_c, 1, 65, 127
1, 80727, Note_off_c, 1, 65, 0
1, 80730, Note_on_c, 1, 63, 127
1, 80882, Note_off_c, 1, 63, 0
1, 80886, Note_on_c, 1, 62, 127
1, 81038, Note_off_c, 1, 62, 0
1, 81193, Note_off_c, 1, 53, 0
1, 81195, Note_off_c, 1, 69, 0
1, 81197, Note_on_c, 1, 69, 127
1, 81197, Note_on_c, 1, 62, 127
1, 81271, Note_off_c, 1, 69, 0
1, 81275, Note_on_c, 1, 70, 127
1, 81349, Note_off_c, 1, 62, 0
1, 81349, Note_off_c, 1, 70, 0
1, 81352, Note_on_c, 1, 72, 127
1, 81352, Note_on_c, 1, 65, 127
1, 81426, Note_off_c, 1, 72, 0
1, 81430, Note_on_c, 1, 70, 127
1, 81504, Note_off_c, 1, 65, 0
1, 81504, Note_off_c, 1, 70, 0
1, 81508, Note_on_c, 1, 72, 127
1, 81508, Note_on_c, 1, 63, 127
1, 81582, Note_off_c, 1, 72, 0
1, 81586, Note_on_c, 1, 70, 127
1, 81660, Note_off_c, 1, 63, 0
1, 81660, Note_off_c, 1, 70, 0
1, 81664, Note_on_c, 1, 72, 127
1, 81664, Note_on_c, 1, 62, 127
1, 81738, Note_off_c, 1, 72, 0
1, 81741, Note_on_c, 1, 70, 127
1, 81815, Note_off_c, 1, 70, 0
1, 81816, Note_off_c, 1, 62, 0
1, 81819, Note_on_c, 1, 72, 127
1, 81819, Note_on_c, 1, 60, 127
1, 81893, Note_off_c, 1, 72, 0
1, 81897, Note_on_c, 1, 70, 127
1, 81971, Note_off_c, 1, 60, 0
1, 81971, Note_off_c, 1, 70, 0
1, 81975, Note_on_c, 1, 69, 127
1, 81975, Note_on_c, 1, 58, 127
1, 82049, Note_off_c, 1, 69, 0
1, 82052, Note_on_c, 1, 70, 127
1, 82126, Note_off_c, 1, 70, 0
1, 82127, Note_off_c, 1, 58, 0
1, 82130, Note_on_c, 1, 57, 127
1, 82130, Note_on_c, 1, 72, 127
1, 82282, Note_off_c, 1, 57, 0
1, 82286, Note_on_c, 1, 58, 127
1, 82437, Note_off_c, 1, 72, 0
1, 82438, Note_off_c, 1, 58, 0
1, 82441, Note_on_c, 1, 57, 127
1, 82441, Note_on_c, 1, 69, 127
1, 82441, Note_on_c, 1, 65, 127
1, 82441, Note_on_c, 1, 72, 127
1, 82593, Note_off_c, 1, 57, 0
1, 82597, Note_on_c, 1, 55, 127
1, 82748, Note_off_c, 1, 69, 0
1, 82748, Note_off_c, 1, 65, 0
1, 82748, Note_off_c, 1, 72, 0
1, 82749, Note_off_c, 1, 55, 0
1, 82752, Note_on_c, 1, 53, 127
1, 82752, Note_on_c, 1, 65, 127
1, 82752, Note_on_c, 1, 72, 127
1, 82752, Note_on_c, 1, 69, 127
1, 82904, Note_off_c, 1, 53, 0
1, 82908, Note_on_c, 1, 51, 127
1, 83059, Note_off_c, 1, 65, 0
1, 83059, Note_off_c, 1, 72, 0
1, 83059, Note_off_c, 1, 69, 0
1, 83060, Note_off_c, 1, 51, 0
1, 83063, Note_on_c, 1, 50, 127
1, 83063, Note_on_c, 1, 68, 127
1, 83063, Note_on_c, 1, 77, 127
1, 83063, Note_on_c, 1, 70, 127
1, 83215, Note_off_c, 1, 50, 0
1, 83219, Note_on_c, 1, 48, 127
1, 83370, Note_off_c, 1, 68, 0
1, 83370, Note_off_c, 1, 77, 0
1, 83371, Note_off_c, 1, 48, 0
1, 83374, Note_on_c, 1, 46, 127
1, 83526, Note_off_c, 1, 46, 0
1, 83530, Note_on_c, 1, 44, 127
1, 83682, Note_off_c, 1, 44, 0
1, 83685, Note_on_c, 1, 43, 127
1, 83837, Note_off_c, 1, 43, 0
1, 83841, Note_on_c, 1, 41, 127
1, 83993, Note_off_c, 1, 41, 0
1, 83996, Note_on_c, 1, 39, 127
1, 84303, Note_off_c, 1, 39, 0
1, 84307, Note_on_c, 1, 58, 127
1, 84307, Note_on_c, 1, 67, 127
1, 84307, Note_on_c, 1, 75, 127
1, 84459, Note_off_c, 1, 58, 0
1, 84463, Note_on_c, 1, 56, 127
1, 84597, Note_off_c, 1, 67, 0
1, 84597, Note_off_c, 1, 75, 0
1, 84598, Note_off_c, 1, 70, 0
1, 84615, Note_off_c, 1, 56, 0
1, 84618, Note_on_c, 1, 55, 127
1, 84618, Note_on_c, 1, 70, 127
1, 84618, Note_on_c, 1, 67, 127
1, 84618, Note_on_c, 1, 75, 127
1, 84770, Note_off_c, 1, 55, 0
1, 84774, Note_on_c, 1, 53, 127
1, 84925, Note_off_c, 1, 70, 0
1, 84925, Note_off_c, 1, 67, 0
1, 84925, Note_off_c, 1, 75, 0
1, 84926, Note_off_c, 1, 53, 0
1, 84929, Note_on_c, 1, 52, 127
1, 84929, Note_on_c, 1, 70, 127
1, 84929, Note_on_c, 1, 79, 127
1, 84929, Note_on_c, 1, 72, 127
1, 85081, Note_off_c, 1, 52, 0
1, 85085, Note_on_c, 1, 50, 127
1, 85236, Note_off_c, 1, 70, 0
1, 85236, Note_off_c, 1, 79, 0
1, 85237, Note_off_c, 1, 50, 0
1, 85240, Note_on_c, 1, 48, 127
1, 85392, Note_off_c, 1, 48, 0
1, 85396, Note_on_c, 1, 46, 127
1, 85548, Note_off_c, 1, 46, 0
1, 85552, Note_on_c, 1, 45, 127
1, 85704, Note_off_c, 1, 45, 0
1, 85707, Note_on_c, 1, 43, 127
1, 85859, Note_off_c, 1, 43, 0
1, 85863, Note_on_c, 1, 41, 127
1, 86170, Note_off_c, 1, 41, 0
1, 86174, Note_on_c, 1, 63, 127
1, 86174, Note_on_c, 1, 77, 127
1, 86174, Note_on_c, 1, 69, 127
1, 86326, Note_off_c, 1, 63, 0
1, 86329, Note_on_c, 1, 62, 127
1, 86429, Note_off_c, 1, 72, 0
1, 86464, Note_off_c, 1, 77, 0
1, 86464, Note_off_c, 1, 69, 0
1, 86481, Note_off_c, 1, 62, 0
1, 86485, Note_on_c, 1, 60, 127
1, 86485, Note_on_c, 1, 72, 127
1, 86485, Note_on_c, 1, 69, 127
1, 86485, Note_on_c, 1, 77, 127
1, 86637, Note_off_c, 1, 60, 0
1, 86640, Note_on_c, 1, 58, 127
1, 86792, Note_off_c, 1, 72, 0
1, 86792, Note_off_c, 1, 69, 0
1, 86792, Note_off_c, 1, 77, 0
1, 86792, Note_off_c, 1, 58, 0
1, 86796, Note_on_c, 1, 57, 127
1, 86796, Note_on_c, 1, 72, 127
1, 86796, Note_on_c, 1, 75, 127
1, 86796, Note_on_c, 1, 77, 127
1, 86948, Note_off_c, 1, 57, 0
1, 86951, Note_on_c, 1, 55, 127
1, 87103, Note_off_c, 1, 72, 0
1, 87103, Note_off_c, 1, 75, 0
1, 87103, Note_off_c, 1, 55, 0
1, 87107, Note_on_c, 1, 53, 127
1, 87259, Note_off_c, 1, 53, 0
1, 87262, Note_on_c, 1, 51, 127
1, 87414, Note_off_c, 1, 51, 0
1, 87418, Note_on_c, 1, 50, 127
1, 87570, Note_off_c, 1, 50, 0
1, 87573, Note_on_c, 1, 48, 127
1, 87725, Note_off_c, 1, 48, 0
1, 87729, Note_on_c, 1, 46, 127
1, 87881, Note_off_c, 1, 46, 0
1, 87884, Note_on_c, 1, 45, 127
1, 88036, Note_off_c, 1, 45, 0
1, 88040, Note_on_c, 1, 70, 127
1, 88040, Note_on_c, 1, 74, 127
1, 88347, Note_off_c, 1, 70, 0
1, 88347, Note_off_c, 1, 74, 0
1, 88351, Note_on_c, 1, 68, 127
1, 88658, Note_off_c, 1, 68, 0
1, 88659, Note_off_c, 1, 77, 0
1, 88662, Note_on_c, 1, 51, 127
1, 88662, Note_on_c, 1, 67, 127
1, 88662, Note_on_c, 1, 75, 127
1, 88662, Note_on_c, 1, 70, 127
1, 88814, Note_off_c, 1, 51, 0
1, 88817, Note_on_c, 1, 50, 127
1, 88969, Note_off_c, 1, 67, 0
1, 88969, Note_off_c, 1, 75, 0
1, 88969, Note_off_c, 1, 50, 0
1, 88973, Note_on_c, 1, 65, 127
1, 88973, Note_on_c, 1, 74, 127
1, 89128, Note_on_c, 1, 53, 127
1, 89280, Note_off_c, 1, 65, 0
1, 89280, Note_off_c, 1, 74, 0
1, 89280, Note_off_c, 1, 53, 0
1, 89284, Note_on_c, 1, 55, 127
1, 89284, Note_on_c, 1, 72, 127
1, 89284, Note_on_c, 1, 63, 127
1, 89436, Note_off_c, 1, 55, 0
1, 89591, Note_off_c, 1, 72, 0
1, 89591, Note_off_c, 1, 63, 0
1, 89593, Note_off_c, 1, 70, 0
1, 89595, Note_on_c, 1, 53, 127
1, 89595, Note_on_c, 1, 72, 127
1, 89595, Note_on_c, 1, 63, 127
1, 89595, Note_on_c, 1, 69, 127
1, 89747, Note_off_c, 1, 53, 0
1, 89751, Note_on_c, 1, 55, 127
1, 89903, Note_off_c, 1, 55, 0
1, 89906, Note_on_c, 1, 57, 127
1, 90058, Note_off_c, 1, 72, 0
1, 90058, Note_off_c, 1, 63, 0
1, 90058, Note_off_c, 1, 57, 0
1, 90062, Note_on_c, 1, 74, 127
1, 90062, Note_on_c, 1, 65, 127
1, 90210, Note_off_c, 1, 69, 0
1, 90214, Note_off_c, 1, 74, 0
1, 90214, Note_off_c, 1, 65, 0
1, 90217, Note_on_c, 1, 58, 127
1, 90217, Note_on_c, 1, 62, 127
1, 90295, Note_on_c, 1, 65, 127
1, 90373, Note_on_c, 1, 70, 127
1, 90524, Note_off_c, 1, 58, 0
1, 90526, Note_off_c, 1, 65, 0
1, 90528, Note_on_c, 1, 51, 127
1, 90528, Note_on_c, 1, 67, 127
1, 90670, Note_off_c, 1, 62, 0
1, 90680, Note_off_c, 1, 70, 0
1, 90684, Note_on_c, 1, 72, 127
1, 90684, Note_on_c, 1, 63, 127
1, 90835, Note_off_c, 1, 51, 0
1, 90835, Note_off_c, 1, 67, 0
1, 90836, Note_off_c, 1, 72, 0
1, 90836, Note_off_c, 1, 63, 0
1, 90839, Note_on_c, 1, 70, 127
1, 90839, Note_on_c, 1, 53, 127
1, 90839, Note_on_c, 1, 60, 127
1, 90913, Note_off_c, 1, 70, 0
1, 90917, Note_on_c, 1, 69, 127
1, 90991, Note_off_c, 1, 69, 0
1, 91146, Note_off_c, 1, 53, 0
1, 91150, Note_on_c, 1, 41, 127
1, 91454, Note_off_c, 1, 60, 0
1, 91457, Note_off_c, 1, 41, 0
1, 91461, Note_on_c, 1, 70, 127
1, 91461, Note_on_c, 1, 46, 127
1, 91461, Note_on_c, 1, 65, 127
1, 91461, Note_on_c, 1, 62, 127
1, 91613, Note_off_c, 1, 70, 0
1, 91633, Note_on_c, 1, 72, 127
1, 91768, Note_off_c, 1, 46, 0
1, 91768, Note_off_c, 1, 65, 0
1, 91768, Note_off_c, 1, 62, 0
1, 91785, Note_off_c, 1, 72, 0
1, 91788, Note_on_c, 1, 74, 127
1, 91788, Note_on_c, 1, 65, 127
1, 91940, Note_off_c, 1, 74, 0
1, 91944, Note_on_c, 1, 70, 127
1, 92095, Note_off_c, 1, 65, 0
1, 92096, Note_off_c, 1, 70, 0
1, 92099, Note_on_c, 1, 69, 127
1, 92099, Note_on_c, 1, 65, 127
1, 92251, Note_off_c, 1, 69, 0
1, 92255, Note_on_c, 1, 70, 127
1, 92406, Note_off_c, 1, 65, 0
1, 92407, Note_off_c, 1, 70, 0
1, 92410, Note_on_c, 1, 65, 127
1, 92410, Note_on_c, 1, 62, 127
1, 92562, Note_off_c, 1, 65, 0
1, 92566, Note_on_c, 1, 70, 127
1, 92717, Note_off_c, 1, 62, 0
1, 92718, Note_off_c, 1, 70, 0
1, 92721, Note_on_c, 1, 74, 127
1, 92721, Note_on_c, 1, 58, 127
1, 92873, Note_off_c, 1, 74, 0
1, 92877, Note_on_c, 1, 70, 127
1, 93028, Note_off_c, 1, 58, 0
1, 93029, Note_off_c, 1, 70, 0
1, 93032, Note_on_c, 1, 76, 127
1, 93032, Note_on_c, 1, 58, 127
1, 93184, Note_off_c, 1, 76, 0
1, 93188, Note_on_c, 1, 70, 127
1, 93339, Note_off_c, 1, 58, 0
1, 93340, Note_off_c, 1, 70, 0
1, 93344, Note_on_c, 1, 57, 127
1, 93344, Note_on_c, 1, 77, 127
1, 93496, Note_off_c, 1, 57, 0
1, 93499, Note_on_c, 1, 55, 127
1, 93651, Note_off_c, 1, 77, 0
1, 93651, Note_off_c, 1, 55, 0
1, 93655, Note_on_c, 1, 57, 127
1, 93655, Note_on_c, 1, 84, 127
1, 93807, Note_off_c, 1, 57, 0
1, 93810, Note_on_c, 1, 53, 127
1, 93962, Note_off_c, 1, 84, 0
1, 93962, Note_off_c, 1, 53, 0
1, 93966, Note_on_c, 1, 52, 127
1, 93966, Note_on_c, 1, 84, 127
1, 94118, Note_off_c, 1, 52, 0
1, 94121, Note_on_c, 1, 53, 127
1, 94273, Note_off_c, 1, 84, 0
1, 94273, Note_off_c, 1, 53, 0
1, 94277, Note_on_c, 1, 48, 127
1, 94277, Note_on_c, 1, 81, 127
1, 94429, Note_off_c, 1, 48, 0
1, 94432, Note_on_c, 1, 53, 127
1, 94584, Note_off_c, 1, 81, 0
1, 94584, Note_off_c, 1, 53, 0
1, 94588, Note_on_c, 1, 57, 127
1, 94588, Note_on_c, 1, 77, 127
1, 94740, Note_off_c, 1, 57, 0
1, 94743, Note_on_c, 1, 53, 127
1, 94895, Note_off_c, 1, 77, 0
1, 94895, Note_off_c, 1, 53, 0
1, 94899, Note_on_c, 1, 59, 127
1, 94899, Note_on_c, 1, 77, 127
1, 95051, Note_off_c, 1, 59, 0
1, 95054, Note_on_c, 1, 53, 127
1, 95206, Note_off_c, 1, 77, 0
1, 95206, Note_off_c, 1, 53, 0
1, 95210, Note_on_c, 1, 75, 127
1, 95210, Note_on_c, 1, 60, 127
1, 95362, Note_off_c, 1, 75, 0
1, 95365, Note_on_c, 1, 74, 127
1, 95517, Note_off_c, 1, 60, 0
1, 95517, Note_off_c, 1, 74, 0
1, 95521, Note_on_c, 1, 75, 127
1, 95521, Note_on_c, 1, 55, 127
1, 95673, Note_off_c, 1, 75, 0
1, 95676, Note_on_c, 1, 72, 127
1, 95828, Note_off_c, 1, 55, 0
1, 95828, Note_off_c, 1, 72, 0
1, 95832, Note_on_c, 1, 71, 127
1, 95832, Note_on_c, 1, 55, 127
1, 95984, Note_off_c, 1, 71, 0
1, 95987, Note_on_c, 1, 72, 127
1, 96139, Note_off_c, 1, 55, 0
1, 96139, Note_off_c, 1, 72, 0
1, 96143, Note_on_c, 1, 67, 127
1, 96143, Note_on_c, 1, 51, 127
1, 96295, Note_off_c, 1, 67, 0
1, 96298, Note_on_c, 1, 72, 127
1, 96450, Note_off_c, 1, 51, 0
1, 96450, Note_off_c, 1, 72, 0
1, 96454, Note_on_c, 1, 75, 127
1, 96454, Note_on_c, 1, 48, 127
1, 96606, Note_off_c, 1, 75, 0
1, 96609, Note_on_c, 1, 72, 127
1, 96761, Note_off_c, 1, 48, 0
1, 96761, Note_off_c, 1, 72, 0
1, 96765, Note_on_c, 1, 78, 127
1, 96765, Note_on_c, 1, 48, 127
1, 96917, Note_off_c, 1, 78, 0
1, 96920, Note_on_c, 1, 72, 127
1, 97072, Note_off_c, 1, 48, 0
1, 97072, Note_off_c, 1, 72, 0
1, 97076, Note_on_c, 1, 46, 127
1, 97076, Note_on_c, 1, 79, 127
1, 97228, Note_off_c, 1, 46, 0
1, 97232, Note_on_c, 1, 45, 127
1, 97383, Note_off_c, 1, 79, 0
1, 97384, Note_off_c, 1, 45, 0
1, 97387, Note_on_c, 1, 46, 127
1, 97387, Note_on_c, 1, 74, 127
1, 97539, Note_off_c, 1, 46, 0
1, 97543, Note_on_c, 1, 43, 127
1, 97694, Note_off_c, 1, 74, 0
1, 97695, Note_off_c, 1, 43, 0
1, 97698, Note_on_c, 1, 42, 127
1, 97698, Note_on_c, 1, 74, 127
1, 97850, Note_off_c, 1, 42, 0
1, 97854, Note_on_c, 1, 43, 127
1, 98005, Note_off_c, 1, 74, 0
1, 98006, Note_off_c, 1, 43, 0
1, 98009, Note_on_c, 1, 38, 127
1, 98009, Note_on_c, 1, 70, 127
1, 98161, Note_off_c, 1, 38, 0
1, 98165, Note_on_c, 1, 43, 127
1, 98316, Note_off_c, 1, 70, 0
1, 98317, Note_off_c, 1, 43, 0
1, 98320, Note_on_c, 1, 46, 127
1, 98320, Note_on_c, 1, 67, 127
1, 98472, Note_off_c, 1, 46, 0
1, 98476, Note_on_c, 1, 43, 127
1, 98627, Note_off_c, 1, 67, 0
1, 98628, Note_off_c, 1, 43, 0
1, 98631, Note_on_c, 1, 49, 127
1, 98631, Note_on_c, 1, 67, 127
1, 98783, Note_off_c, 1, 49, 0
1, 98787, Note_on_c, 1, 43, 127
1, 98938, Note_off_c, 1, 67, 0
1, 98939, Note_off_c, 1, 43, 0
1, 98942, Note_on_c, 1, 50, 127
1, 98942, Note_on_c, 1, 65, 127
1, 99094, Note_off_c, 1, 50, 0
1, 99098, Note_on_c, 1, 52, 127
1, 99249, Note_off_c, 1, 65, 0
1, 99250, Note_off_c, 1, 52, 0
1, 99253, Note_on_c, 1, 53, 127
1, 99253, Note_on_c, 1, 81, 127
1, 99405, Note_off_c, 1, 53, 0
1, 99409, Note_on_c, 1, 50, 127
1, 99560, Note_off_c, 1, 81, 0
1, 99561, Note_off_c, 1, 50, 0
1, 99564, Note_on_c, 1, 49, 127
1, 99564, Note_on_c, 1, 81, 127
1, 99716, Note_off_c, 1, 49, 0
1, 99720, Note_on_c, 1, 50, 127
1, 99871, Note_off_c, 1, 81, 0
1, 99872, Note_off_c, 1, 50, 0
1, 99875, Note_on_c, 1, 45, 127
1, 99875, Note_on_c, 1, 77, 127
1, 100027, Note_off_c, 1, 45, 0
1, 100031, Note_on_c, 1, 50, 127
1, 100182, Note_off_c, 1, 77, 0
1, 100183, Note_off_c, 1, 50, 0
1, 100186, Note_on_c, 1, 53, 127
1, 100186, Note_on_c, 1, 74, 127
1, 100338, Note_off_c, 1, 53, 0
1, 100342, Note_on_c, 1, 50, 127
1, 100493, Note_off_c, 1, 74, 0
1, 100494, Note_off_c, 1, 50, 0
1, 100497, Note_on_c, 1, 56, 127
1, 100497, Note_on_c, 1, 74, 127
1, 100649, Note_off_c, 1, 56, 0
1, 100653, Note_on_c, 1, 50, 127
1, 100804, Note_off_c, 1, 74, 0
1, 100805, Note_off_c, 1, 50, 0
1, 100808, Note_on_c, 1, 73, 127
1, 100808, Note_on_c, 1, 57, 127
1, 100960, Note_off_c, 1, 73, 0
1, 100964, Note_on_c, 1, 71, 127
1, 101115, Note_off_c, 1, 57, 0
1, 101116, Note_off_c, 1, 71, 0
1, 101120, Note_on_c, 1, 73, 127
1, 101120, Note_on_c, 1, 69, 127
1, 101272, Note_off_c, 1, 73, 0
1, 101275, Note_on_c, 1, 74, 127
1, 101427, Note_off_c, 1, 69, 0
1, 101427, Note_off_c, 1, 74, 0
1, 101431, Note_on_c, 1, 71, 127
1, 101431, Note_on_c, 1, 69, 127
1, 101583, Note_off_c, 1, 71, 0
1, 101586, Note_on_c, 1, 73, 127
1, 101738, Note_off_c, 1, 69, 0
1, 101738, Note_off_c, 1, 73, 0
1, 101742, Note_on_c, 1, 74, 127
1, 101742, Note_on_c, 1, 65, 127
1, 101894, Note_off_c, 1, 74, 0
1, 101897, Note_on_c, 1, 73, 127
1, 102049, Note_off_c, 1, 65, 0
1, 102049, Note_off_c, 1, 73, 0
1, 102053, Note_on_c, 1, 74, 127
1, 102053, Note_on_c, 1, 65, 127
1, 102053, Note_on_c, 1, 62, 127
1, 102205, Note_off_c, 1, 74, 0
1, 102208, Note_on_c, 1, 76, 127
1, 102360, Note_off_c, 1, 65, 0
1, 102360, Note_off_c, 1, 62, 0
1, 102360, Note_off_c, 1, 76, 0
1, 102364, Note_on_c, 1, 73, 127
1, 102364, Note_on_c, 1, 65, 127
1, 102364, Note_on_c, 1, 62, 127
1, 102516, Note_off_c, 1, 73, 0
1, 102519, Note_on_c, 1, 74, 127
1, 102671, Note_off_c, 1, 65, 0
1, 102671, Note_off_c, 1, 62, 0
1, 102671, Note_off_c, 1, 74, 0
1, 102675, Note_on_c, 1, 61, 127
1, 102675, Note_on_c, 1, 76, 127
1, 102675, Note_on_c, 1, 64, 127
1, 102827, Note_off_c, 1, 61, 0
1, 102830, Note_on_c, 1, 59, 127
1, 102982, Note_off_c, 1, 76, 0
1, 102982, Note_off_c, 1, 64, 0
1, 102982, Note_off_c, 1, 59, 0
1, 102986, Note_on_c, 1, 61, 127
1, 102986, Note_on_c, 1, 69, 127
1, 102986, Note_on_c, 1, 57, 127
1, 103138, Note_off_c, 1, 61, 0
1, 103141, Note_on_c, 1, 62, 127
1, 103293, Note_off_c, 1, 69, 0
1, 103293, Note_off_c, 1, 57, 0
1, 103293, Note_off_c, 1, 62, 0
1, 103297, Note_on_c, 1, 59, 127
1, 103297, Note_on_c, 1, 57, 127
1, 103449, Note_off_c, 1, 59, 0
1, 103452, Note_on_c, 1, 61, 127
1, 103604, Note_off_c, 1, 57, 0
1, 103604, Note_off_c, 1, 61, 0
1, 103608, Note_on_c, 1, 62, 127
1, 103608, Note_on_c, 1, 57, 127
1, 103608, Note_on_c, 1, 53, 127
1, 103760, Note_off_c, 1, 62, 0
1, 103763, Note_on_c, 1, 61, 127
1, 103915, Note_off_c, 1, 57, 0
1, 103915, Note_off_c, 1, 53, 0
1, 103915, Note_off_c, 1, 61, 0
1, 103919, Note_on_c, 1, 62, 127
1, 103919, Note_on_c, 1, 57, 127
1, 103919, Note_on_c, 1, 53, 127
1, 103919, Note_on_c, 1, 50, 127
1, 104071, Note_off_c, 1, 62, 0
1, 104074, Note_on_c, 1, 64, 127
1, 104226, Note_off_c, 1, 57, 0
1, 104226, Note_off_c, 1, 53, 0
1, 104226, Note_off_c, 1, 50, 0
1, 104226, Note_off_c, 1, 64, 0
1, 104230, Note_on_c, 1, 65, 127
1, 104230, Note_on_c, 1, 57, 127
1, 104230, Note_on_c, 1, 50, 127
1, 104230, Note_on_c, 1, 53, 127
1, 104382, Note_off_c, 1, 65, 0
1, 104385, Note_on_c, 1, 67, 127
1, 104537, Note_off_c, 1, 57, 0
1, 104537, Note_off_c, 1, 50, 0
1, 104537, Note_off_c, 1, 53, 0
1, 104537, Note_off_c, 1, 67, 0
1, 104541, Note_on_c, 1, 69, 127
1, 104541, Note_on_c, 1, 57, 127
1, 104541, Note_on_c, 1, 52, 127
1, 104541, Note_on_c, 1, 49, 127
1, 104693, Note_off_c, 1, 69, 0
1, 104696, Note_on_c, 1, 67, 127
1, 104848, Note_off_c, 1, 57, 0
1, 104848, Note_off_c, 1, 52, 0
1, 104848, Note_off_c, 1, 49, 0
1, 104848, Note_off_c, 1, 67, 0
1, 104852, Note_on_c, 1, 69, 127
1, 104852, Note_on_c, 1, 52, 127
1, 104852, Note_on_c, 1, 49, 127
1, 104852, Note_on_c, 1, 45, 127
1, 105004, Note_off_c, 1, 69, 0
1, 105008, Note_on_c, 1, 71, 127
1, 105159, Note_off_c, 1, 52, 0
1, 105159, Note_off_c, 1, 49, 0
1, 105159, Note_off_c, 1, 45, 0
1, 105160, Note_off_c, 1, 71, 0
1, 105163, Note_on_c, 1, 73, 127
1, 105163, Note_on_c, 1, 52, 127
1, 105163, Note_on_c, 1, 45, 127
1, 105163, Note_on_c, 1, 49, 127
1, 105315, Note_off_c, 1, 73, 0
1, 105319, Note_on_c, 1, 69, 127
1, 105470, Note_off_c, 1, 52, 0
1, 105470, Note_off_c, 1, 45, 0
1, 105470, Note_off_c, 1, 49, 0
1, 105471, Note_off_c, 1, 69, 0
1, 105474, Note_on_c, 1, 74, 127
1, 105474, Note_on_c, 1, 50, 127
1, 105474, Note_on_c, 1, 45, 127
1, 105474, Note_on_c, 1, 41, 127
1, 105626, Note_off_c, 1, 74, 0
1, 105630, Note_on_c, 1, 73, 127
1, 105781, Note_off_c, 1, 50, 0
1, 105781, Note_off_c, 1, 45, 0
1, 105781, Note_off_c, 1, 41, 0
1, 105782, Note_off_c, 1, 73, 0
1, 105785, Note_on_c, 1, 74, 127
1, 105785, Note_on_c, 1, 45, 127
1, 105785, Note_on_c, 1, 50, 127
1, 105785, Note_on_c, 1, 38, 127
1, 105785, Note_on_c, 1, 41, 127
1, 105937, Note_off_c, 1, 74, 0
1, 105941, Note_on_c, 1, 76, 127
1, 106092, Note_off_c, 1, 45, 0
1, 106092, Note_off_c, 1, 50, 0
1, 106092, Note_off_c, 1, 38, 0
1, 106092, Note_off_c, 1, 41, 0
1, 106093, Note_off_c, 1, 76, 0
1, 106096, Note_on_c, 1, 77, 127
1, 106096, Note_on_c, 1, 38, 127
1, 106096, Note_on_c, 1, 45, 127
1, 106096, Note_on_c, 1, 41, 127
1, 106248, Note_off_c, 1, 77, 0
1, 106252, Note_on_c, 1, 79, 127
1, 106403, Note_off_c, 1, 38, 0
1, 106403, Note_off_c, 1, 45, 0
1, 106403, Note_off_c, 1, 41, 0
1, 106404, Note_off_c, 1, 79, 0
1, 106407, Note_on_c, 1, 81, 127
1, 106407, Note_on_c, 1, 40, 127
1, 106407, Note_on_c, 1, 37, 127
1, 106407, Note_on_c, 1, 45, 127
1, 106559, Note_off_c, 1, 81, 0
1, 106563, Note_on_c, 1, 82, 127
1, 106715, Note_off_c, 1, 82, 0
1, 106718, Note_on_c, 1, 69, 127
1, 106874, Note_on_c, 1, 79, 127
1, 107022, Note_off_c, 1, 40, 0
1, 107022, Note_off_c, 1, 37, 0
1, 107022, Note_off_c, 1, 45, 0
1, 107025, Note_off_c, 1, 69, 0
1, 107026, Note_off_c, 1, 79, 0
1, 107029, Note_on_c, 1, 77, 127
1, 107029, Note_on_c, 1, 69, 127
1, 107181, Note_off_c, 1, 77, 0
1, 107185, Note_on_c, 1, 76, 127
1, 107336, Note_off_c, 1, 69, 0
1, 107337, Note_off_c, 1, 76, 0
1, 107340, Note_on_c, 1, 74, 127
1, 107340, Note_on_c, 1, 77, 127
1, 107492, Note_off_c, 1, 74, 0
1, 107496, Note_on_c, 1, 76, 127
1, 107647, Note_off_c, 1, 77, 0
1, 107648, Note_off_c, 1, 76, 0
1, 107651, Note_on_c, 1, 74, 127
1, 107651, Note_on_c, 1, 77, 127
1, 107651, Note_on_c, 1, 81, 127
1, 107803, Note_off_c, 1, 74, 0
1, 107807, Note_on_c, 1, 72, 127
1, 107958, Note_off_c, 1, 77, 0
1, 107958, Note_off_c, 1, 81, 0
1, 107959, Note_off_c, 1, 72, 0
1, 107962, Note_on_c, 1, 70, 127
1, 107962, Note_on_c, 1, 81, 127
1, 107962, Note_on_c, 1, 77, 127
1, 108114, Note_off_c, 1, 70, 0
1, 108118, Note_on_c, 1, 69, 127
1, 108269, Note_off_c, 1, 81, 0
1, 108269, Note_off_c, 1, 77, 0
1, 108270, Note_off_c, 1, 69, 0
1, 108273, Note_on_c, 1, 82, 127
1, 108273, Note_on_c, 1, 67, 127
1, 108273, Note_on_c, 1, 77, 127
1, 108425, Note_off_c, 1, 82, 0
1, 108425, Note_off_c, 1, 67, 0
1, 108429, Note_on_c, 1, 84, 127
1, 108429, Note_on_c, 1, 69, 127
1, 108581, Note_off_c, 1, 84, 0
1, 108581, Note_off_c, 1, 69, 0
1, 108726, Note_off_c, 1, 77, 0
1, 108740, Note_on_c, 1, 81, 127
1, 108740, Note_on_c, 1, 65, 127
1, 108892, Note_off_c, 1, 81, 0
1, 108892, Note_off_c, 1, 65, 0
1, 108896, Note_on_c, 1, 79, 127
1, 108896, Note_on_c, 1, 64, 127
1, 109048, Note_off_c, 1, 79, 0
1, 109048, Note_off_c, 1, 64, 0
1, 109051, Note_on_c, 1, 77, 127
1, 109051, Note_on_c, 1, 62, 127
1, 109203, Note_off_c, 1, 77, 0
1, 109203, Note_off_c, 1, 62, 0
1, 109207, Note_on_c, 1, 60, 127
1, 109207, Note_on_c, 1, 76, 127
1, 109359, Note_off_c, 1, 60, 0
1, 109362, Note_on_c, 1, 62, 127
1, 109514, Note_off_c, 1, 76, 0
1, 109514, Note_off_c, 1, 62, 0
1, 109518, Note_on_c, 1, 60, 127
1, 109518, Note_on_c, 1, 76, 127
1, 109518, Note_on_c, 1, 79, 127
1, 109670, Note_off_c, 1, 60, 0
1, 109673, Note_on_c, 1, 58, 127
1, 109825, Note_off_c, 1, 76, 0
1, 109825, Note_off_c, 1, 79, 0
1, 109825, Note_off_c, 1, 58, 0
1, 109829, Note_on_c, 1, 57, 127
1, 109829, Note_on_c, 1, 76, 127
1, 109829, Note_on_c, 1, 79, 127
1, 109981, Note_off_c, 1, 57, 0
1, 109984, Note_on_c, 1, 55, 127
1, 110136, Note_off_c, 1, 76, 0
1, 110136, Note_off_c, 1, 79, 0
1, 110136, Note_off_c, 1, 55, 0
1, 110140, Note_on_c, 1, 81, 127
1, 110140, Note_on_c, 1, 53, 127
1, 110140, Note_on_c, 1, 76, 127
1, 110292, Note_off_c, 1, 81, 0
1, 110292, Note_off_c, 1, 53, 0
1, 110295, Note_on_c, 1, 82, 127
1, 110295, Note_on_c, 1, 55, 127
1, 110447, Note_off_c, 1, 82, 0
1, 110447, Note_off_c, 1, 55, 0
1, 110593, Note_off_c, 1, 76, 0
1, 110606, Note_on_c, 1, 79, 127
1, 110606, Note_on_c, 1, 52, 127
1, 110758, Note_off_c, 1, 79, 0
1, 110758, Note_off_c, 1, 52, 0
1, 110762, Note_on_c, 1, 77, 127
1, 110762, Note_on_c, 1, 50, 127
1, 110914, Note_off_c, 1, 77, 0
1, 110914, Note_off_c, 1, 50, 0
1, 110917, Note_on_c, 1, 76, 127
1, 110917, Note_on_c, 1, 48, 127
1, 111069, Note_off_c, 1, 76, 0
1, 111069, Note_off_c, 1, 48, 0
1, 111073, Note_on_c, 1, 74, 127
1, 111073, Note_on_c, 1, 46, 127
1, 111225, Note_off_c, 1, 74, 0
1, 111225, Note_off_c, 1, 46, 0
1, 111228, Note_on_c, 1, 73, 127
1, 111228, Note_on_c, 1, 48, 127
1, 111380, Note_off_c, 1, 73, 0
1, 111380, Note_off_c, 1, 48, 0
1, 111384, Note_on_c, 1, 74, 127
1, 111384, Note_on_c, 1, 46, 127
1, 111536, Note_off_c, 1, 74, 0
1, 111536, Note_off_c, 1, 46, 0
1, 111539, Note_on_c, 1, 76, 127
1, 111539, Note_on_c, 1, 45, 127
1, 111691, Note_off_c, 1, 76, 0
1, 111691, Note_off_c, 1, 45, 0
1, 111695, Note_on_c, 1, 77, 127
1, 111695, Note_on_c, 1, 43, 127
1, 111847, Note_off_c, 1, 77, 0
1, 111847, Note_off_c, 1, 43, 0
1, 111850, Note_on_c, 1, 74, 127
1, 111850, Note_on_c, 1, 41, 127
1, 112002, Note_off_c, 1, 74, 0
1, 112002, Note_off_c, 1, 41, 0
1, 112006, Note_on_c, 1, 40, 127
1, 112006, Note_on_c, 1, 79, 127
1, 112158, Note_off_c, 1, 40, 0
1, 112161, Note_on_c, 1, 38, 127
1, 112313, Note_off_c, 1, 79, 0
1, 112313, Note_off_c, 1, 38, 0
1, 112317, Note_on_c, 1, 40, 127
1, 112317, Note_on_c, 1, 70, 127
1, 112317, Note_on_c, 1, 74, 127
1, 112317, Note_on_c, 1, 79, 127
1, 112469, Note_off_c, 1, 40, 0
1, 112472, Note_on_c, 1, 41, 127
1, 112624, Note_off_c, 1, 70, 0
1, 112624, Note_off_c, 1, 74, 0
1, 112624, Note_off_c, 1, 79, 0
1, 112624, Note_off_c, 1, 41, 0
1, 112628, Note_on_c, 1, 43, 127
1, 112628, Note_on_c, 1, 70, 127
1, 112628, Note_on_c, 1, 74, 127
1, 112628, Note_on_c, 1, 79, 127
1, 112780, Note_off_c, 1, 43, 0
1, 112784, Note_on_c, 1, 40, 127
1, 112935, Note_off_c, 1, 70, 0
1, 112935, Note_off_c, 1, 74, 0
1, 112936, Note_off_c, 1, 40, 0
1, 112939, Note_on_c, 1, 45, 127
1, 112939, Note_on_c, 1, 73, 127
1, 113091, Note_off_c, 1, 45, 0
1, 113243, Note_off_c, 1, 79, 0
1, 113246, Note_off_c, 1, 73, 0
1, 113250, Note_on_c, 1, 45, 127
1, 113250, Note_on_c, 1, 69, 127
1, 113250, Note_on_c, 1, 73, 127
1, 113250, Note_on_c, 1, 76, 127
1, 113402, Note_off_c, 1, 45, 0
1, 113406, Note_on_c, 1, 47, 127
1, 113557, Note_off_c, 1, 69, 0
1, 113557, Note_off_c, 1, 73, 0
1, 113557, Note_off_c, 1, 76, 0
1, 113558, Note_off_c, 1, 47, 0
1, 113561, Note_on_c, 1, 49, 127
1, 113561, Note_on_c, 1, 73, 127
1, 113561, Note_on_c, 1, 76, 127
1, 113561, Note_on_c, 1, 69, 127
1, 113713, Note_off_c, 1, 49, 0
1, 113717, Note_on_c, 1, 45, 127
1, 113868, Note_off_c, 1, 73, 0
1, 113868, Note_off_c, 1, 76, 0
1, 113868, Note_off_c, 1, 69, 0
1, 113869, Note_off_c, 1, 45, 0
1, 113872, Note_on_c, 1, 64, 127
1, 113872, Note_on_c, 1, 58, 127
1, 113872, Note_on_c, 1, 67, 127
1, 113935, Note_off_c, 1, 64, 0
1, 113950, Note_on_c, 1, 62, 127
1, 114024, Note_off_c, 1, 62, 0
1, 114179, Note_off_c, 1, 58, 0
1, 114183, Note_on_c, 1, 49, 127
1, 114325, Note_off_c, 1, 67, 0
1, 114339, Note_on_c, 1, 69, 127
1, 114490, Note_off_c, 1, 49, 0
1, 114491, Note_off_c, 1, 69, 0
1, 114494, Note_on_c, 1, 50, 127
1, 114494, Note_on_c, 1, 65, 127
1, 114494, Note_on_c, 1, 62, 127
1, 114801, Note_off_c, 1, 50, 0
1, 114805, Note_on_c, 1, 55, 127
1, 114957, Note_off_c, 1, 65, 0
1, 114961, Note_on_c, 1, 64, 127
1, 115109, Note_off_c, 1, 62, 0
1, 115112, Note_off_c, 1, 55, 0
1, 115113, Note_off_c, 1, 64, 0
1, 115116, Note_on_c, 1, 65, 127
1, 115116, Note_on_c, 1, 57, 127
1, 115116, Note_on_c, 1, 61, 127
1, 115190, Note_off_c, 1, 65, 0
1, 115194, Note_on_c, 1, 64, 127
1, 115268, Note_off_c, 1, 64, 0
1, 115423, Note_off_c, 1, 57, 0
1, 115427, Note_on_c, 1, 45, 127
1, 115583, Note_on_c, 1, 62, 127
1, 115731, Note_off_c, 1, 61, 0
1, 115734, Note_off_c, 1, 45, 0
1, 115735, Note_off_c, 1, 62, 0
1, 115738, Note_on_c, 1, 62, 127
1, 115738, Note_on_c, 1, 38, 127
1, 115890, Note_off_c, 1, 62, 0
1, 115894, Note_on_c, 1, 64, 127
1, 116046, Note_off_c, 1, 64, 0
1, 116049, Note_on_c, 1, 65, 127
1, 116201, Note_off_c, 1, 65, 0
1, 116360, Note_on_c, 1, 61, 127
1, 116512, Note_off_c, 1, 61, 0
1, 116515, Note_off_c, 1, 38, 0
1, 116516, Note_on_c, 1, 62, 127
1, 116668, Note_off_c, 1, 62, 0
1, 116672, Note_on_c, 1, 57, 127
1, 116824, Note_off_c, 1, 57, 0
1, 116827, Note_on_c, 1, 62, 127
1, 116979, Note_off_c, 1, 62, 0
1, 116983, Note_on_c, 1, 65, 127
1, 117135, Note_off_c, 1, 65, 0
1, 117138, Note_on_c, 1, 62, 127
1, 117290, Note_off_c, 1, 62, 0
1, 117294, Note_on_c, 1, 68, 127
1, 117446, Note_off_c, 1, 68, 0
1, 117449, Note_on_c, 1, 62, 127
1, 117601, Note_off_c, 1, 62, 0
1, 117605, Note_on_c, 1, 69, 127
1, 117760, Note_on_c, 1, 57, 127
1, 117834, Note_off_c, 1, 57, 0
1, 117838, Note_on_c, 1, 59, 127
1, 117912, Note_off_c, 1, 69, 0
1, 117912, Note_off_c, 1, 59, 0
1, 117916, Note_on_c, 1, 60, 127
1, 117916, Note_on_c, 1, 76, 127
1, 118068, Note_off_c, 1, 60, 0
1, 118071, Note_on_c, 1, 57, 127
1, 118223, Note_off_c, 1, 76, 0
1, 118223, Note_off_c, 1, 57, 0
1, 118227, Note_on_c, 1, 56, 127
1, 118227, Note_on_c, 1, 76, 127
1, 118379, Note_off_c, 1, 56, 0
1, 118382, Note_on_c, 1, 57, 127
1, 118534, Note_off_c, 1, 76, 0
1, 118534, Note_off_c, 1, 57, 0
1, 118538, Note_on_c, 1, 52, 127
1, 118538, Note_on_c, 1, 72, 127
1, 118690, Note_off_c, 1, 52, 0
1, 118693, Note_on_c, 1, 57, 127
1, 118845, Note_off_c, 1, 72, 0
1, 118845, Note_off_c, 1, 57, 0
1, 118849, Note_on_c, 1, 60, 127
1, 118849, Note_on_c, 1, 69, 127
1, 119001, Note_off_c, 1, 60, 0
1, 119004, Note_on_c, 1, 57, 127
1, 119156, Note_off_c, 1, 69, 0
1, 119156, Note_off_c, 1, 57, 0
1, 119160, Note_on_c, 1, 63, 127
1, 119160, Note_on_c, 1, 69, 127
1, 119312, Note_off_c, 1, 63, 0
1, 119315, Note_on_c, 1, 57, 127
1, 119467, Note_off_c, 1, 69, 0
1, 119467, Note_off_c, 1, 57, 0
1, 119471, Note_on_c, 1, 69, 127
1, 119471, Note_on_c, 1, 64, 127
1, 119623, Note_off_c, 1, 69, 0
1, 119626, Note_on_c, 1, 66, 127
1, 119778, Note_off_c, 1, 64, 0
1, 119778, Note_off_c, 1, 66, 0
1, 119782, Note_on_c, 1, 67, 127
1, 119782, Note_on_c, 1, 64, 127
1, 119934, Note_off_c, 1, 67, 0
1, 119937, Note_on_c, 1, 71, 127
1, 120089, Note_off_c, 1, 64, 0
1, 120089, Note_off_c, 1, 71, 0
1, 120093, Note_on_c, 1, 72, 127
1, 120093, Note_on_c, 1, 64, 127
1, 120245, Note_off_c, 1, 72, 0
1, 120248, Note_on_c, 1, 67, 127
1, 120400, Note_off_c, 1, 64, 0
1, 120400, Note_off_c, 1, 67, 0
1, 120404, Note_on_c, 1, 65, 127
1, 120404, Note_on_c, 1, 64, 127
1, 120556, Note_off_c, 1, 65, 0
1, 120560, Note_on_c, 1, 67, 127
1, 120711, Note_off_c, 1, 64, 0
1, 120712, Note_off_c, 1, 67, 0
1, 120715, Note_on_c, 1, 69, 127
1, 120715, Note_on_c, 1, 62, 127
1, 120867, Note_off_c, 1, 69, 0
1, 120871, Note_on_c, 1, 65, 127
1, 121022, Note_off_c, 1, 62, 0
1, 121023, Note_off_c, 1, 65, 0
1, 121026, Note_on_c, 1, 70, 127
1, 121026, Note_on_c, 1, 62, 127
1, 121178, Note_off_c, 1, 70, 0
1, 121182, Note_on_c, 1, 65, 127
1, 121333, Note_off_c, 1, 62, 0
1, 121334, Note_off_c, 1, 65, 0
1, 121337, Note_on_c, 1, 64, 127
1, 121337, Note_on_c, 1, 62, 127
1, 121489, Note_off_c, 1, 64, 0
1, 121493, Note_on_c, 1, 67, 127
1, 121644, Note_off_c, 1, 62, 0
1, 121645, Note_off_c, 1, 67, 0
1, 121648, Note_on_c, 1, 69, 127
1, 121648, Note_on_c, 1, 60, 127
1, 121800, Note_off_c, 1, 69, 0
1, 121804, Note_on_c, 1, 70, 127
1, 121955, Note_off_c, 1, 60, 0
1, 121956, Note_off_c, 1, 70, 0
1, 121959, Note_on_c, 1, 72, 127
1, 121959, Note_on_c, 1, 60, 127
1, 122111, Note_off_c, 1, 72, 0
1, 122115, Note_on_c, 1, 69, 127
1, 122267, Note_off_c, 1, 69, 0
1, 122270, Note_on_c, 1, 67, 127
1, 122347, Note_off_c, 1, 60, 0
1, 122422, Note_off_c, 1, 67, 0
1, 122426, Note_on_c, 1, 66, 127
1, 122426, Note_on_c, 1, 60, 127
1, 122578, Note_off_c, 1, 66, 0
1, 122578, Note_off_c, 1, 60, 0
1, 122581, Note_on_c, 1, 58, 127
1, 122581, Note_on_c, 1, 67, 127
1, 122733, Note_off_c, 1, 58, 0
1, 122737, Note_on_c, 1, 57, 127
1, 122888, Note_off_c, 1, 67, 0
1, 122889, Note_off_c, 1, 57, 0
1, 122892, Note_on_c, 1, 55, 127
1, 122892, Note_on_c, 1, 67, 127
1, 123044, Note_off_c, 1, 55, 0
1, 123048, Note_on_c, 1, 58, 127
1, 123199, Note_off_c, 1, 67, 0
1, 123200, Note_off_c, 1, 58, 0
1, 123203, Note_on_c, 1, 67, 127
1, 123203, Note_on_c, 1, 49, 127
1, 123355, Note_off_c, 1, 67, 0
1, 123359, Note_on_c, 1, 69, 127
1, 123510, Note_off_c, 1, 49, 0
1, 123511, Note_off_c, 1, 69, 0
1, 123514, Note_on_c, 1, 70, 127
1, 123514, Note_on_c, 1, 55, 127
1, 123666, Note_off_c, 1, 70, 0
1, 123670, Note_on_c, 1, 67, 127
1, 123821, Note_off_c, 1, 55, 0
1, 123822, Note_off_c, 1, 67, 0
1, 123825, Note_on_c, 1, 73, 127
1, 123825, Note_on_c, 1, 58, 127
1, 123977, Note_off_c, 1, 73, 0
1, 123981, Note_on_c, 1, 67, 127
1, 124132, Note_off_c, 1, 58, 0
1, 124133, Note_off_c, 1, 67, 0
1, 124136, Note_on_c, 1, 76, 127
1, 124136, Note_on_c, 1, 49, 127
1, 124288, Note_off_c, 1, 76, 0
1, 124292, Note_on_c, 1, 70, 127
1, 124443, Note_off_c, 1, 49, 0
1, 124444, Note_off_c, 1, 70, 0
1, 124448, Note_on_c, 1, 69, 127
1, 124448, Note_on_c, 1, 52, 127
1, 124600, Note_off_c, 1, 69, 0
1, 124603, Note_on_c, 1, 67, 127
1, 124755, Note_off_c, 1, 52, 0
1, 124755, Note_off_c, 1, 67, 0
1, 124759, Note_on_c, 1, 65, 127
1, 124759, Note_on_c, 1, 57, 127
1, 124911, Note_off_c, 1, 65, 0
1, 124914, Note_on_c, 1, 64, 127
1, 125066, Note_off_c, 1, 57, 0
1, 125066, Note_off_c, 1, 64, 0
1, 125070, Note_on_c, 1, 65, 127
1, 125070, Note_on_c, 1, 50, 127
1, 125222, Note_off_c, 1, 65, 0
1, 125225, Note_on_c, 1, 67, 127
1, 125377, Note_off_c, 1, 50, 0
1, 125377, Note_off_c, 1, 67, 0
1, 125381, Note_on_c, 1, 68, 127
1, 125381, Note_on_c, 1, 53, 127
1, 125533, Note_off_c, 1, 68, 0
1, 125536, Note_on_c, 1, 65, 127
1, 125688, Note_off_c, 1, 53, 0
1, 125688, Note_off_c, 1, 65, 0
1, 125692, Note_on_c, 1, 71, 127
1, 125692, Note_on_c, 1, 56, 127
1, 125844, Note_off_c, 1, 71, 0
1, 125847, Note_on_c, 1, 65, 127
1, 125999, Note_off_c, 1, 56, 0
1, 125999, Note_off_c, 1, 65, 0
1, 126003, Note_on_c, 1, 74, 127
1, 126003, Note_on_c, 1, 59, 127
1, 126155, Note_off_c, 1, 74, 0
1, 126158, Note_on_c, 1, 68, 127
1, 126310, Note_off_c, 1, 59, 0
1, 126310, Note_off_c, 1, 68, 0
1, 126314, Note_on_c, 1, 67, 127
1, 126314, Note_on_c, 1, 62, 127
1, 126466, Note_off_c, 1, 67, 0
1, 126469, Note_on_c, 1, 65, 127
1, 126621, Note_off_c, 1, 62, 0
1, 126621, Note_off_c, 1, 65, 0
1, 126625, Note_on_c, 1, 63, 127
1, 126625, Note_on_c, 1, 55, 127
1, 126777, Note_off_c, 1, 63, 0
1, 126780, Note_on_c, 1, 62, 127
1, 126932, Note_off_c, 1, 55, 0
1, 126932, Note_off_c, 1, 62, 0
1, 126936, Note_on_c, 1, 63, 127
1, 126936, Note_on_c, 1, 60, 127
1, 127089, Note_on_c, 1, 48, 127
1, 127163, Note_off_c, 1, 48, 0
1, 127176, Note_on_c, 1, 50, 127
1, 127243, Note_off_c, 1, 63, 0
1, 127243, Note_off_c, 1, 60, 0
1, 127250, Note_off_c, 1, 50, 0
1, 127263, Note_on_c, 1, 51, 127
1, 127263, Note_on_c, 1, 67, 127
1, 127263, Note_on_c, 1, 79, 127
1, 127263, Note_on_c, 1, 72, 127
1, 127415, Note_off_c, 1, 51, 0
1, 127418, Note_on_c, 1, 48, 127
1, 127570, Note_off_c, 1, 67, 0
1, 127570, Note_off_c, 1, 79, 0
1, 127570, Note_off_c, 1, 72, 0
1, 127570, Note_off_c, 1, 48, 0
1, 127574, Note_on_c, 1, 47, 127
1, 127574, Note_on_c, 1, 72, 127
1, 127574, Note_on_c, 1, 67, 127
1, 127574, Note_on_c, 1, 79, 127
1, 127726, Note_off_c, 1, 47, 0
1, 127729, Note_on_c, 1, 48, 127
1, 127881, Note_off_c, 1, 72, 0
1, 127881, Note_off_c, 1, 67, 0
1, 127881, Note_off_c, 1, 79, 0
1, 127881, Note_off_c, 1, 48, 0
1, 127885, Note_on_c, 1, 43, 127
1, 127885, Note_on_c, 1, 74, 127
1, 127885, Note_on_c, 1, 67, 127
1, 127885, Note_on_c, 1, 75, 127
1, 128037, Note_off_c, 1, 43, 0
1, 128040, Note_on_c, 1, 48, 127
1, 128192, Note_off_c, 1, 74, 0
1, 128192, Note_off_c, 1, 67, 0
1, 128192, Note_off_c, 1, 75, 0
1, 128192, Note_off_c, 1, 48, 0
1, 128196, Note_on_c, 1, 51, 127
1, 128196, Note_on_c, 1, 75, 127
1, 128196, Note_on_c, 1, 72, 127
1, 128196, Note_on_c, 1, 67, 127
1, 128348, Note_off_c, 1, 51, 0
1, 128352, Note_on_c, 1, 48, 127
1, 128503, Note_off_c, 1, 75, 0
1, 128503, Note_off_c, 1, 72, 0
1, 128503, Note_off_c, 1, 67, 0
1, 128504, Note_off_c, 1, 48, 0
1, 128507, Note_on_c, 1, 54, 127
1, 128507, Note_on_c, 1, 72, 127
1, 128507, Note_on_c, 1, 69, 127
1, 128507, Note_on_c, 1, 75, 127
1, 128659, Note_off_c, 1, 54, 0
1, 128663, Note_on_c, 1, 48, 127
1, 128814, Note_off_c, 1, 72, 0
1, 128814, Note_off_c, 1, 69, 0
1, 128814, Note_off_c, 1, 75, 0
1, 128815, Note_off_c, 1, 48, 0
1, 128818, Note_on_c, 1, 74, 127
1, 128818, Note_on_c, 1, 70, 127
1, 128818, Note_on_c, 1, 55, 127
1, 128970, Note_off_c, 1, 74, 0
1, 129125, Note_off_c, 1, 70, 0
1, 129129, Note_on_c, 1, 67, 127
1, 129129, Note_on_c, 1, 58, 127
1, 129281, Note_off_c, 1, 67, 0
1, 129433, Note_off_c, 1, 55, 0
1, 129436, Note_off_c, 1, 58, 0
1, 129440, Note_on_c, 1, 66, 127
1, 129440, Note_on_c, 1, 57, 127
1, 129592, Note_off_c, 1, 66, 0
1, 129596, Note_on_c, 1, 72, 127
1, 129747, Note_off_c, 1, 57, 0
1, 129748, Note_off_c, 1, 72, 0
1, 129751, Note_on_c, 1, 70, 127
1, 129751, Note_on_c, 1, 43, 127
1, 129751, Note_on_c, 1, 55, 127
1, 129903, Note_off_c, 1, 70, 0
1, 129907, Note_on_c, 1, 74, 127
1, 130058, Note_off_c, 1, 43, 0
1, 130058, Note_off_c, 1, 55, 0
1, 130059, Note_off_c, 1, 74, 0
1, 130062, Note_on_c, 1, 67, 127
1, 130062, Note_on_c, 1, 58, 127
1, 130214, Note_off_c, 1, 67, 0
1, 130218, Note_on_c, 1, 74, 127
1, 130369, Note_off_c, 1, 58, 0
1, 130370, Note_off_c, 1, 74, 0
1, 130373, Note_on_c, 1, 66, 127
1, 130373, Note_on_c, 1, 57, 127
1, 130525, Note_off_c, 1, 66, 0
1, 130529, Note_on_c, 1, 72, 127
1, 130680, Note_off_c, 1, 57, 0
1, 130681, Note_off_c, 1, 72, 0
1, 130684, Note_on_c, 1, 70, 127
1, 130684, Note_on_c, 1, 55, 127
1, 130836, Note_off_c, 1, 70, 0
1, 130840, Note_on_c, 1, 67, 127
1, 130992, Note_off_c, 1, 67, 0
1, 130995, Note_on_c, 1, 64, 127
1, 130995, Note_on_c, 1, 48, 127
1, 131147, Note_off_c, 1, 64, 0
1, 131302, Note_off_c, 1, 48, 0
1, 131306, Note_on_c, 1, 62, 127
1, 131306, Note_on_c, 1, 50, 127
1, 131458, Note_off_c, 1, 62, 0
1, 131613, Note_off_c, 1, 50, 0
1, 131617, Note_on_c, 1, 60, 127
1, 131617, Note_on_c, 1, 52, 127
1, 131769, Note_off_c, 1, 60, 0
1, 131924, Note_off_c, 1, 52, 0
1, 132547, Note_off_c, 1, 55, 0
1, 132551, Note_on_c, 1, 68, 127
1, 132551, Note_on_c, 1, 53, 127
1, 132703, Note_off_c, 1, 68, 0
1, 132706, Note_on_c, 1, 72, 127
1, 132858, Note_off_c, 1, 72, 0
1, 132862, Note_on_c, 1, 65, 127
1, 132862, Note_on_c, 1, 56, 127
1, 133014, Note_off_c, 1, 65, 0
1, 133166, Note_off_c, 1, 53, 0
1, 133169, Note_off_c, 1, 56, 0
1, 133173, Note_on_c, 1, 64, 127
1, 133173, Note_on_c, 1, 55, 127
1, 133325, Note_off_c, 1, 64, 0
1, 133328, Note_on_c, 1, 70, 127
1, 133480, Note_off_c, 1, 55, 0
1, 133480, Note_off_c, 1, 70, 0
1, 133484, Note_on_c, 1, 68, 127
1, 133484, Note_on_c, 1, 41, 127
1, 133484, Note_on_c, 1, 53, 127
1, 133636, Note_off_c, 1, 68, 0
1, 133639, Note_on_c, 1, 72, 127
1, 133791, Note_off_c, 1, 41, 0
1, 133791, Note_off_c, 1, 53, 0
1, 133791, Note_off_c, 1, 72, 0
1, 133795, Note_on_c, 1, 65, 127
1, 133795, Note_on_c, 1, 56, 127
1, 133947, Note_off_c, 1, 65, 0
1, 133950, Note_on_c, 1, 72, 127
1, 134102, Note_off_c, 1, 56, 0
1, 134102, Note_off_c, 1, 72, 0
1, 134106, Note_on_c, 1, 64, 127
1, 134106, Note_on_c, 1, 55, 127
1, 134258, Note_off_c, 1, 64, 0
1, 134261, Note_on_c, 1, 70, 127
1, 134413, Note_off_c, 1, 55, 0
1, 134413, Note_off_c, 1, 70, 0
1, 134417, Note_on_c, 1, 68, 127
1, 134417, Note_on_c, 1, 53, 127
1, 134569, Note_off_c, 1, 68, 0
1, 134572, Note_on_c, 1, 65, 127
1, 134724, Note_off_c, 1, 65, 0
1, 134728, Note_on_c, 1, 62, 127
1, 134728, Note_on_c, 1, 46, 127
1, 134880, Note_off_c, 1, 62, 0
1, 135035, Note_off_c, 1, 46, 0
1, 135039, Note_on_c, 1, 60, 127
1, 135039, Note_on_c, 1, 48, 127
1, 135191, Note_off_c, 1, 60, 0
1, 135346, Note_off_c, 1, 48, 0
1, 135350, Note_on_c, 1, 58, 127
1, 135350, Note_on_c, 1, 50, 127
1, 135502, Note_off_c, 1, 58, 0
1, 135657, Note_off_c, 1, 50, 0
1, 136280, Note_off_c, 1, 53, 0
1, 136283, Note_on_c, 1, 51, 127
1, 136283, Note_on_c, 1, 67, 127
1, 136435, Note_off_c, 1, 51, 0
1, 136439, Note_on_c, 1, 53, 127
1, 136590, Note_off_c, 1, 67, 0
1, 136591, Note_off_c, 1, 53, 0
1, 136594, Note_on_c, 1, 55, 127
1, 136594, Note_on_c, 1, 82, 127
1, 136746, Note_off_c, 1, 55, 0
1, 136750, Note_on_c, 1, 51, 127
1, 136901, Note_off_c, 1, 82, 0
1, 136902, Note_off_c, 1, 51, 0
1, 136905, Note_on_c, 1, 50, 127
1, 136905, Note_on_c, 1, 82, 127
1, 137057, Note_off_c, 1, 50, 0
1, 137061, Note_on_c, 1, 51, 127
1, 137212, Note_off_c, 1, 82, 0
1, 137213, Note_off_c, 1, 51, 0
1, 137216, Note_on_c, 1, 46, 127
1, 137216, Note_on_c, 1, 79, 127
1, 137368, Note_off_c, 1, 46, 0
1, 137372, Note_on_c, 1, 51, 127
1, 137523, Note_off_c, 1, 79, 0
1, 137524, Note_off_c, 1, 51, 0
1, 137527, Note_on_c, 1, 55, 127
1, 137527, Note_on_c, 1, 79, 127
1, 137527, Note_on_c, 1, 75, 127
1, 137679, Note_off_c, 1, 55, 0
1, 137683, Note_on_c, 1, 51, 127
1, 137834, Note_off_c, 1, 79, 0
1, 137834, Note_off_c, 1, 75, 0
1, 137835, Note_off_c, 1, 51, 0
1, 137838, Note_on_c, 1, 57, 127
1, 137838, Note_on_c, 1, 75, 127
1, 137838, Note_on_c, 1, 79, 127
1, 137990, Note_off_c, 1, 57, 0
1, 137994, Note_on_c, 1, 51, 127
1, 138145, Note_off_c, 1, 75, 0
1, 138145, Note_off_c, 1, 79, 0
1, 138146, Note_off_c, 1, 51, 0
1, 138149, Note_on_c, 1, 77, 127
1, 138149, Note_on_c, 1, 74, 127
1, 138149, Note_on_c, 1, 58, 127
1, 138301, Note_off_c, 1, 77, 0
1, 138456, Note_off_c, 1, 74, 0
1, 138460, Note_on_c, 1, 70, 127
1, 138460, Note_on_c, 1, 62, 127
1, 138612, Note_off_c, 1, 70, 0
1, 138764, Note_off_c, 1, 58, 0
1, 138767, Note_off_c, 1, 62, 0
1, 138771, Note_on_c, 1, 69, 127
1, 138771, Note_on_c, 1, 60, 127
1, 138923, Note_off_c, 1, 69, 0
1, 138927, Note_on_c, 1, 75, 127
1, 139078, Note_off_c, 1, 60, 0
1, 139079, Note_off_c, 1, 75, 0
1, 139082, Note_on_c, 1, 74, 127
1, 139082, Note_on_c, 1, 46, 127
1, 139082, Note_on_c, 1, 58, 127
1, 139234, Note_off_c, 1, 74, 0
1, 139238, Note_on_c, 1, 77, 127
1, 139389, Note_off_c, 1, 46, 0
1, 139389, Note_off_c, 1, 58, 0
1, 139390, Note_off_c, 1, 77, 0
1, 139393, Note_on_c, 1, 70, 127
1, 139393, Note_on_c, 1, 62, 127
1, 139545, Note_off_c, 1, 70, 0
1, 139549, Note_on_c, 1, 77, 127
1, 139700, Note_off_c, 1, 62, 0
1, 139701, Note_off_c, 1, 77, 0
1, 139704, Note_on_c, 1, 69, 127
1, 139704, Note_on_c, 1, 60, 127
1, 139856, Note_off_c, 1, 69, 0
1, 139860, Note_on_c, 1, 75, 127
1, 140011, Note_off_c, 1, 60, 0
1, 140012, Note_off_c, 1, 75, 0
1, 140016, Note_on_c, 1, 74, 127
1, 140016, Note_on_c, 1, 58, 127
1, 140168, Note_off_c, 1, 74, 0
1, 140171, Note_on_c, 1, 70, 127
1, 140323, Note_off_c, 1, 70, 0
1, 140327, Note_on_c, 1, 67, 127
1, 140327, Note_on_c, 1, 51, 127
1, 140479, Note_off_c, 1, 67, 0
1, 140482, Note_on_c, 1, 73, 127
1, 140634, Note_off_c, 1, 51, 0
1, 140634, Note_off_c, 1, 73, 0
1, 140638, Note_on_c, 1, 65, 127
1, 140638, Note_on_c, 1, 53, 127
1, 140790, Note_off_c, 1, 65, 0
1, 140945, Note_off_c, 1, 53, 0
1, 140949, Note_on_c, 1, 63, 127
1, 140949, Note_on_c, 1, 55, 127
1, 141101, Note_off_c, 1, 63, 0
1, 141256, Note_off_c, 1, 55, 0
1, 141879, Note_off_c, 1, 58, 0
1, 141882, Note_on_c, 1, 72, 127
1, 141882, Note_on_c, 1, 56, 127
1, 142034, Note_off_c, 1, 72, 0
1, 142037, Note_on_c, 1, 75, 127
1, 142189, Note_off_c, 1, 75, 0
1, 142193, Note_on_c, 1, 68, 127
1, 142193, Note_on_c, 1, 60, 127
1, 142345, Note_off_c, 1, 68, 0
1, 142497, Note_off_c, 1, 56, 0
1, 142500, Note_off_c, 1, 60, 0
1, 142504, Note_on_c, 1, 67, 127
1, 142504, Note_on_c, 1, 58, 127
1, 142656, Note_off_c, 1, 67, 0
1, 142659, Note_on_c, 1, 73, 127
1, 142811, Note_off_c, 1, 58, 0
1, 142811, Note_off_c, 1, 73, 0
1, 142815, Note_on_c, 1, 72, 127
1, 142815, Note_on_c, 1, 44, 127
1, 142815, Note_on_c, 1, 56, 127
1, 142967, Note_off_c, 1, 72, 0
1, 142970, Note_on_c, 1, 75, 127
1, 143122, Note_off_c, 1, 44, 0
1, 143122, Note_off_c, 1, 56, 0
1, 143122, Note_off_c, 1, 75, 0
1, 143126, Note_on_c, 1, 68, 127
1, 143126, Note_on_c, 1, 60, 127
1, 143278, Note_off_c, 1, 68, 0
1, 143281, Note_on_c, 1, 75, 127
1, 143433, Note_off_c, 1, 60, 0
1, 143433, Note_off_c, 1, 75, 0
1, 143437, Note_on_c, 1, 67, 127
1, 143437, Note_on_c, 1, 58, 127
1, 143589, Note_off_c, 1, 67, 0
1, 143592, Note_on_c, 1, 73, 127
1, 143744, Note_off_c, 1, 58, 0
1, 143744, Note_off_c, 1, 73, 0
1, 143748, Note_on_c, 1, 72, 127
1, 143748, Note_on_c, 1, 56, 127
1, 143900, Note_off_c, 1, 72, 0
1, 143904, Note_on_c, 1, 68, 127
1, 144056, Note_off_c, 1, 68, 0
1, 144059, Note_on_c, 1, 65, 127
1, 144059, Note_on_c, 1, 50, 127
1, 144211, Note_off_c, 1, 65, 0
1, 144366, Note_off_c, 1, 50, 0
1, 144370, Note_on_c, 1, 63, 127
1, 144370, Note_on_c, 1, 51, 127
1, 144522, Note_off_c, 1, 63, 0
1, 144677, Note_off_c, 1, 51, 0
1, 144681, Note_on_c, 1, 62, 127
1, 144681, Note_on_c, 1, 53, 127
1, 144833, Note_off_c, 1, 62, 0
1, 144988, Note_off_c, 1, 53, 0
1, 145611, Note_off_c, 1, 56, 0
1, 145614, Note_on_c, 1, 55, 127
1, 145614, Note_on_c, 1, 71, 127
1, 145770, Note_on_c, 1, 53, 127
1, 145921, Note_off_c, 1, 55, 0
1, 145921, Note_off_c, 1, 71, 0
1, 145922, Note_off_c, 1, 53, 0
1, 145925, Note_on_c, 1, 51, 127
1, 145925, Note_on_c, 1, 72, 127
1, 145925, Note_on_c, 1, 67, 127
1, 146077, Note_off_c, 1, 51, 0
1, 146081, Note_on_c, 1, 53, 127
1, 146232, Note_off_c, 1, 72, 0
1, 146232, Note_off_c, 1, 67, 0
1, 146233, Note_off_c, 1, 53, 0
1, 146236, Note_on_c, 1, 50, 127
1, 146236, Note_on_c, 1, 70, 127
1, 146236, Note_on_c, 1, 65, 127
1, 146388, Note_off_c, 1, 50, 0
1, 146392, Note_on_c, 1, 51, 127
1, 146543, Note_off_c, 1, 70, 0
1, 146543, Note_off_c, 1, 65, 0
1, 146544, Note_off_c, 1, 51, 0
1, 146547, Note_on_c, 1, 48, 127
1, 146547, Note_on_c, 1, 68, 127
1, 146547, Note_on_c, 1, 63, 127
1, 146699, Note_off_c, 1, 48, 0
1, 146703, Note_on_c, 1, 51, 127
1, 146854, Note_off_c, 1, 68, 0
1, 146854, Note_off_c, 1, 63, 0
1, 146855, Note_off_c, 1, 51, 0
1, 146858, Note_on_c, 1, 46, 127
1, 146858, Note_on_c, 1, 62, 127
1, 146858, Note_on_c, 1, 67, 127
1, 147010, Note_off_c, 1, 46, 0
1, 147014, Note_on_c, 1, 51, 127
1, 147165, Note_off_c, 1, 62, 0
1, 147165, Note_off_c, 1, 67, 0
1, 147166, Note_off_c, 1, 51, 0
1, 147169, Note_on_c, 1, 44, 127
1, 147169, Note_on_c, 1, 65, 127
1, 147169, Note_on_c, 1, 60, 127
1, 147321, Note_off_c, 1, 44, 0
1, 147325, Note_on_c, 1, 51, 127
1, 147476, Note_off_c, 1, 65, 0
1, 147476, Note_off_c, 1, 60, 0
1, 147477, Note_off_c, 1, 51, 0
1, 147480, Note_on_c, 1, 43, 127
1, 147480, Note_on_c, 1, 70, 127
1, 147480, Note_on_c, 1, 63, 127
1, 147480, Note_on_c, 1, 58, 127
1, 147632, Note_off_c, 1, 43, 0
1, 147636, Note_on_c, 1, 51, 127
1, 147787, Note_off_c, 1, 70, 0
1, 147787, Note_off_c, 1, 63, 0
1, 147787, Note_off_c, 1, 58, 0
1, 147788, Note_off_c, 1, 51, 0
1, 147792, Note_on_c, 1, 41, 127
1, 147792, Note_on_c, 1, 68, 127
1, 147792, Note_on_c, 1, 62, 127
1, 147944, Note_off_c, 1, 41, 0
1, 147947, Note_on_c, 1, 51, 127
1, 148099, Note_off_c, 1, 68, 0
1, 148099, Note_off_c, 1, 62, 0
1, 148099, Note_off_c, 1, 51, 0
1, 148103, Note_on_c, 1, 39, 127
1, 148103, Note_on_c, 1, 67, 127
1, 148103, Note_on_c, 1, 63, 127
1, 148255, Note_off_c, 1, 39, 0
1, 148258, Note_on_c, 1, 51, 127
1, 148410, Note_off_c, 1, 51, 0
1, 148414, Note_on_c, 1, 44, 127
1, 148566, Note_off_c, 1, 67, 0
1, 148569, Note_on_c, 1, 72, 127
1, 148718, Note_off_c, 1, 63, 0
1, 148721, Note_off_c, 1, 44, 0
1, 148721, Note_off_c, 1, 72, 0
1, 148725, Note_on_c, 1, 67, 127
1, 148725, Note_on_c, 1, 46, 127
1, 148725, Note_on_c, 1, 62, 127
1, 148799, Note_off_c, 1, 67, 0
1, 148802, Note_on_c, 1, 65, 127
1, 148876, Note_off_c, 1, 65, 0
1, 149032, Note_off_c, 1, 46, 0
1, 149191, Note_on_c, 1, 63, 127
1, 149340, Note_off_c, 1, 62, 0
1, 149343, Note_off_c, 1, 63, 0
1, 149347, Note_on_c, 1, 63, 127
1, 149347, Note_on_c, 1, 39, 127
1, 149654, Note_off_c, 1, 63, 0
1, 149658, Note_on_c, 1, 70, 127
1, 149810, Note_off_c, 1, 39, 0
1, 149813, Note_on_c, 1, 68, 127
1, 149965, Note_off_c, 1, 70, 0
1, 149965, Note_off_c, 1, 68, 0
1, 149969, Note_on_c, 1, 67, 127
1, 149969, Note_on_c, 1, 70, 127
1, 150121, Note_off_c, 1, 67, 0
1, 150124, Note_on_c, 1, 65, 127
1, 150276, Note_off_c, 1, 70, 0
1, 150276, Note_off_c, 1, 65, 0
1, 150280, Note_on_c, 1, 72, 127
1, 150280, Note_on_c, 1, 64, 127
1, 150413, Note_on_c, 1, 70, 127
1, 150420, Note_off_c, 1, 72, 0
1, 150432, Note_off_c, 1, 64, 0
1, 150435, Note_on_c, 1, 65, 127
1, 150478, Note_on_c, 1, 69, 127
1, 150487, Note_off_c, 1, 70, 0
1, 150552, Note_off_c, 1, 69, 0
1, 150587, Note_off_c, 1, 65, 0
1, 150591, Note_on_c, 1, 67, 127
1, 150743, Note_off_c, 1, 67, 0
1, 150902, Note_on_c, 1, 61, 127
1, 151054, Note_off_c, 1, 61, 0
1, 151213, Note_on_c, 1, 58, 127
1, 151365, Note_off_c, 1, 58, 0
1, 151368, Note_on_c, 1, 60, 127
1, 151520, Note_off_c, 1, 60, 0
1, 151835, Note_on_c, 1, 55, 127
1, 151987, Note_off_c, 1, 55, 0
1, 152146, Note_on_c, 1, 52, 127
1, 152298, Note_off_c, 1, 52, 0
1, 152302, Note_on_c, 1, 53, 127
1, 152302, Note_on_c, 1, 68, 127
1, 152454, Note_off_c, 1, 53, 0
1, 152454, Note_off_c, 1, 68, 0
1, 152457, Note_on_c, 1, 55, 127
1, 152457, Note_on_c, 1, 70, 127
1, 152609, Note_off_c, 1, 55, 0
1, 152609, Note_off_c, 1, 70, 0
1, 152613, Note_on_c, 1, 52, 127
1, 152613, Note_on_c, 1, 73, 127
1, 152765, Note_off_c, 1, 52, 0
1, 152765, Note_off_c, 1, 73, 0
1, 152768, Note_on_c, 1, 48, 127
1, 152768, Note_on_c, 1, 72, 127
1, 152920, Note_off_c, 1, 48, 0
1, 152920, Note_off_c, 1, 72, 0
1, 152924, Note_on_c, 1, 52, 127
1, 152924, Note_on_c, 1, 70, 127
1, 153076, Note_off_c, 1, 52, 0
1, 153076, Note_off_c, 1, 70, 0
1, 153079, Note_on_c, 1, 68, 127
1, 153079, Note_on_c, 1, 41, 127
1, 153231, Note_off_c, 1, 68, 0
1, 153235, Note_on_c, 1, 70, 127
1, 153387, Note_off_c, 1, 70, 0
1, 153542, Note_off_c, 1, 41, 0
1, 153546, Note_on_c, 1, 67, 127
1, 153698, Note_off_c, 1, 67, 0
1, 153701, Note_on_c, 1, 65, 127
1, 153701, Note_on_c, 1, 68, 127
1, 153853, Note_off_c, 1, 65, 0
1, 153857, Note_on_c, 1, 63, 127
1, 154008, Note_off_c, 1, 68, 0
1, 154009, Note_off_c, 1, 63, 0
1, 154012, Note_on_c, 1, 62, 127
1, 154012, Note_on_c, 1, 70, 127
1, 154164, Note_off_c, 1, 62, 0
1, 154168, Note_on_c, 1, 63, 127
1, 154212, Note_off_c, 1, 70, 0
1, 154215, Note_on_c, 1, 68, 127
1, 154281, Note_on_c, 1, 67, 127
1, 154289, Note_off_c, 1, 68, 0
1, 154320, Note_off_c, 1, 63, 0
1, 154323, Note_on_c, 1, 65, 127
1, 154355, Note_off_c, 1, 67, 0
1, 154475, Note_off_c, 1, 65, 0
1, 154634, Note_on_c, 1, 58, 127
1, 154786, Note_off_c, 1, 58, 0
1, 154945, Note_on_c, 1, 56, 127
1, 155097, Note_off_c, 1, 56, 0
1, 155256, Note_on_c, 1, 60, 127
1, 155408, Note_off_c, 1, 60, 0
1, 155568, Note_on_c, 1, 53, 127
1, 155720, Note_off_c, 1, 53, 0
1, 155879, Note_on_c, 1, 50, 127
1, 156031, Note_off_c, 1, 50, 0
1, 156034, Note_on_c, 1, 51, 127
1, 156034, Note_on_c, 1, 67, 127
1, 156186, Note_off_c, 1, 51, 0
1, 156186, Note_off_c, 1, 67, 0
1, 156190, Note_on_c, 1, 53, 127
1, 156190, Note_on_c, 1, 68, 127
1, 156342, Note_off_c, 1, 53, 0
1, 156342, Note_off_c, 1, 68, 0
1, 156345, Note_on_c, 1, 50, 127
1, 156345, Note_on_c, 1, 72, 127
1, 156497, Note_off_c, 1, 50, 0
1, 156497, Note_off_c, 1, 72, 0
1, 156501, Note_on_c, 1, 46, 127
1, 156501, Note_on_c, 1, 70, 127
1, 156653, Note_off_c, 1, 46, 0
1, 156653, Note_off_c, 1, 70, 0
1, 156656, Note_on_c, 1, 50, 127
1, 156656, Note_on_c, 1, 68, 127
1, 156808, Note_off_c, 1, 50, 0
1, 156808, Note_off_c, 1, 68, 0
1, 156812, Note_on_c, 1, 67, 127
1, 156812, Note_on_c, 1, 39, 127
1, 156964, Note_off_c, 1, 67, 0
1, 156983, Note_on_c, 1, 69, 127
1, 157057, Note_off_c, 1, 69, 0
1, 157061, Note_on_c, 1, 71, 127
1, 157135, Note_off_c, 1, 71, 0
1, 157139, Note_on_c, 1, 72, 127
1, 157275, Note_off_c, 1, 39, 0
1, 157294, Note_on_c, 1, 70, 127
1, 157446, Note_off_c, 1, 72, 0
1, 157446, Note_off_c, 1, 70, 0
1, 157450, Note_on_c, 1, 69, 127
1, 157450, Note_on_c, 1, 72, 127
1, 157602, Note_off_c, 1, 69, 0
1, 157605, Note_on_c, 1, 67, 127
1, 157757, Note_off_c, 1, 72, 0
1, 157757, Note_off_c, 1, 67, 0
1, 157761, Note_on_c, 1, 74, 127
1, 157761, Note_on_c, 1, 66, 127
1, 157891, Note_on_c, 1, 72, 127
1, 157904, Note_off_c, 1, 74, 0
1, 157913, Note_off_c, 1, 66, 0
1, 157916, Note_on_c, 1, 67, 127
1, 157955, Note_on_c, 1, 71, 127
1, 157965, Note_off_c, 1, 72, 0
1, 158029, Note_off_c, 1, 71, 0
1, 158068, Note_off_c, 1, 67, 0
1, 158072, Note_on_c, 1, 69, 127
1, 158224, Note_off_c, 1, 69, 0
1, 158383, Note_on_c, 1, 63, 127
1, 158535, Note_off_c, 1, 63, 0
1, 158694, Note_on_c, 1, 60, 127
1, 158846, Note_off_c, 1, 60, 0
1, 158849, Note_on_c, 1, 62, 127
1, 159001, Note_off_c, 1, 62, 0
1, 159316, Note_on_c, 1, 57, 127
1, 159468, Note_off_c, 1, 57, 0
1, 159627, Note_on_c, 1, 54, 127
1, 159779, Note_off_c, 1, 54, 0
1, 159783, Note_on_c, 1, 70, 127
1, 159783, Note_on_c, 1, 55, 127
1, 159935, Note_off_c, 1, 70, 0
1, 159935, Note_off_c, 1, 55, 0
1, 159938, Note_on_c, 1, 72, 127
1, 159938, Note_on_c, 1, 57, 127
1, 160090, Note_off_c, 1, 72, 0
1, 160090, Note_off_c, 1, 57, 0
1, 160094, Note_on_c, 1, 75, 127
1, 160094, Note_on_c, 1, 54, 127
1, 160246, Note_off_c, 1, 75, 0
1, 160246, Note_off_c, 1, 54, 0
1, 160249, Note_on_c, 1, 74, 127
1, 160249, Note_on_c, 1, 50, 127
1, 160401, Note_off_c, 1, 74, 0
1, 160401, Note_off_c, 1, 50, 0
1, 160405, Note_on_c, 1, 72, 127
1, 160405, Note_on_c, 1, 54, 127
1, 160557, Note_off_c, 1, 72, 0
1, 160557, Note_off_c, 1, 54, 0
1, 160560, Note_on_c, 1, 70, 127
1, 160560, Note_on_c, 1, 43, 127
1, 160712, Note_off_c, 1, 70, 0
1, 160716, Note_on_c, 1, 69, 127
1, 160867, Note_off_c, 1, 43, 0
1, 160868, Note_off_c, 1, 69, 0
1, 160871, Note_on_c, 1, 67, 127
1, 160871, Note_on_c, 1, 46, 127
1, 161023, Note_off_c, 1, 67, 0
1, 161027, Note_on_c, 1, 75, 127
1, 161178, Note_off_c, 1, 46, 0
1, 161179, Note_off_c, 1, 75, 0
1, 161182, Note_on_c, 1, 66, 127
1, 161182, Note_on_c, 1, 51, 127
1, 161334, Note_off_c, 1, 66, 0
1, 161338, Note_on_c, 1, 67, 127
1, 161462, Note_off_c, 1, 51, 0
1, 161490, Note_off_c, 1, 67, 0
1, 161493, Note_on_c, 1, 69, 127
1, 161493, Note_on_c, 1, 41, 127
1, 161645, Note_off_c, 1, 69, 0
1, 161649, Note_on_c, 1, 67, 127
1, 161800, Note_off_c, 1, 41, 0
1, 161801, Note_off_c, 1, 67, 0
1, 161804, Note_on_c, 1, 65, 127
1, 161804, Note_on_c, 1, 45, 127
1, 161956, Note_off_c, 1, 65, 0
1, 161960, Note_on_c, 1, 74, 127
1, 162111, Note_off_c, 1, 45, 0
1, 162112, Note_off_c, 1, 74, 0
1, 162115, Note_on_c, 1, 64, 127
1, 162115, Note_on_c, 1, 50, 127
1, 162267, Note_off_c, 1, 64, 0
1, 162271, Note_on_c, 1, 65, 127
1, 162395, Note_off_c, 1, 50, 0
1, 162423, Note_off_c, 1, 65, 0
1, 162426, Note_on_c, 1, 67, 127
1, 162426, Note_on_c, 1, 39, 127
1, 162578, Note_off_c, 1, 67, 0
1, 162582, Note_on_c, 1, 65, 127
1, 162733, Note_off_c, 1, 39, 0
1, 162734, Note_off_c, 1, 65, 0
1, 162737, Note_on_c, 1, 63, 127
1, 162737, Note_on_c, 1, 43, 127
1, 162889, Note_off_c, 1, 63, 0
1, 162893, Note_on_c, 1, 72, 127
1, 163044, Note_off_c, 1, 43, 0
1, 163045, Note_off_c, 1, 72, 0
1, 163048, Note_on_c, 1, 62, 127
1, 163048, Note_on_c, 1, 48, 127
1, 163200, Note_off_c, 1, 62, 0
1, 163204, Note_on_c, 1, 64, 127
1, 163328, Note_off_c, 1, 48, 0
1, 163356, Note_off_c, 1, 64, 0
1, 163360, Note_on_c, 1, 66, 127
1, 163360, Note_on_c, 1, 38, 127
1, 163512, Note_off_c, 1, 66, 0
1, 163515, Note_on_c, 1, 64, 127
1, 163667, Note_off_c, 1, 64, 0
1, 163671, Note_on_c, 1, 62, 127
1, 163671, Note_on_c, 1, 50, 127
1, 163823, Note_off_c, 1, 62, 0
1, 163826, Note_on_c, 1, 72, 127
1, 163978, Note_off_c, 1, 72, 0
1, 164291, Note_off_c, 1, 38, 0
1, 164293, Note_on_c, 1, 67, 127
1, 164445, Note_off_c, 1, 67, 0
1, 164602, Note_off_c, 1, 50, 0
1, 164759, Note_on_c, 1, 70, 127
1, 164911, Note_off_c, 1, 70, 0
1, 164915, Note_on_c, 1, 61, 127
1, 165067, Note_off_c, 1, 61, 0
1, 165692, Note_on_c, 1, 69, 127
1, 165844, Note_off_c, 1, 69, 0
1, 166470, Note_on_c, 1, 64, 127
1, 166470, Note_on_c, 1, 50, 127
1, 166622, Note_off_c, 1, 64, 0
1, 166625, Note_on_c, 1, 62, 127
1, 166777, Note_off_c, 1, 50, 0
1, 166777, Note_off_c, 1, 62, 0
1, 166781, Note_on_c, 1, 64, 127
1, 166781, Note_on_c, 1, 50, 127
1, 166933, Note_off_c, 1, 64, 0
1, 166936, Note_on_c, 1, 66, 127
1, 167088, Note_off_c, 1, 50, 0
1, 167088, Note_off_c, 1, 66, 0
1, 167092, Note_on_c, 1, 46, 127
1, 167092, Note_on_c, 1, 67, 127
1, 167244, Note_off_c, 1, 46, 0
1, 167248, Note_on_c, 1, 45, 127
1, 167399, Note_off_c, 1, 67, 0
1, 167400, Note_off_c, 1, 45, 0
1, 167403, Note_on_c, 1, 43, 127
1, 167403, Note_on_c, 1, 55, 127
1, 167555, Note_off_c, 1, 43, 0
1, 167559, Note_on_c, 1, 45, 127
1, 167710, Note_off_c, 1, 55, 0
1, 167711, Note_off_c, 1, 45, 0
1, 167714, Note_on_c, 1, 46, 127
1, 167714, Note_on_c, 1, 55, 127
1, 167866, Note_off_c, 1, 46, 0
1, 167870, Note_on_c, 1, 48, 127
1, 168021, Note_off_c, 1, 55, 0
1, 168022, Note_off_c, 1, 48, 0
1, 168025, Note_on_c, 1, 50, 127
1, 168025, Note_on_c, 1, 54, 127
1, 168177, Note_off_c, 1, 50, 0
1, 168181, Note_on_c, 1, 48, 127
1, 168332, Note_off_c, 1, 54, 0
1, 168333, Note_off_c, 1, 48, 0
1, 168336, Note_on_c, 1, 50, 127
1, 168336, Note_on_c, 1, 62, 127
1, 168488, Note_off_c, 1, 50, 0
1, 168492, Note_on_c, 1, 52, 127
1, 168643, Note_off_c, 1, 62, 0
1, 168644, Note_off_c, 1, 52, 0
1, 168647, Note_on_c, 1, 54, 127
1, 168647, Note_on_c, 1, 62, 127
1, 168799, Note_off_c, 1, 54, 0
1, 168803, Note_on_c, 1, 50, 127
1, 168954, Note_off_c, 1, 62, 0
1, 168955, Note_off_c, 1, 50, 0
1, 168958, Note_on_c, 1, 55, 127
1, 168958, Note_on_c, 1, 58, 127
1, 169110, Note_off_c, 1, 55, 0
1, 169114, Note_on_c, 1, 54, 127
1, 169265, Note_off_c, 1, 58, 0
1, 169266, Note_off_c, 1, 54, 0
1, 169269, Note_on_c, 1, 55, 127
1, 169269, Note_on_c, 1, 67, 127
1, 169421, Note_off_c, 1, 55, 0
1, 169425, Note_on_c, 1, 57, 127
1, 169576, Note_off_c, 1, 67, 0
1, 169577, Note_off_c, 1, 57, 0
1, 169580, Note_on_c, 1, 58, 127
1, 169580, Note_on_c, 1, 67, 127
1, 169732, Note_off_c, 1, 58, 0
1, 169736, Note_on_c, 1, 60, 127
1, 169887, Note_off_c, 1, 67, 0
1, 169888, Note_off_c, 1, 60, 0
1, 169891, Note_on_c, 1, 62, 127
1, 169891, Note_on_c, 1, 66, 127
1, 170043, Note_off_c, 1, 62, 0
1, 170047, Note_on_c, 1, 60, 127
1, 170198, Note_off_c, 1, 66, 0
1, 170199, Note_off_c, 1, 60, 0
1, 170202, Note_on_c, 1, 62, 127
1, 170202, Note_on_c, 1, 74, 127
1, 170354, Note_off_c, 1, 62, 0
1, 170358, Note_on_c, 1, 64, 127
1, 170509, Note_off_c, 1, 74, 0
1, 170510, Note_off_c, 1, 64, 0
1, 170513, Note_on_c, 1, 66, 127
1, 170513, Note_on_c, 1, 74, 127
1, 170665, Note_off_c, 1, 66, 0
1, 170669, Note_on_c, 1, 62, 127
1, 170820, Note_off_c, 1, 74, 0
1, 170821, Note_off_c, 1, 62, 0
1, 170824, Note_on_c, 1, 70, 127
1, 170824, Note_on_c, 1, 67, 127
1, 170976, Note_off_c, 1, 70, 0
1, 170980, Note_on_c, 1, 69, 127
1, 171131, Note_off_c, 1, 67, 0
1, 171132, Note_off_c, 1, 69, 0
1, 171136, Note_on_c, 1, 67, 127
1, 171136, Note_on_c, 1, 62, 127
1, 171136, Note_on_c, 1, 55, 127
1, 171136, Note_on_c, 1, 58, 127
1, 171288, Note_off_c, 1, 67, 0
1, 171291, Note_on_c, 1, 69, 127
1, 171443, Note_off_c, 1, 62, 0
1, 171443, Note_off_c, 1, 55, 0
1, 171443, Note_off_c, 1, 58, 0
1, 171443, Note_off_c, 1, 69, 0
1, 171447, Note_on_c, 1, 70, 127
1, 171447, Note_on_c, 1, 62, 127
1, 171447, Note_on_c, 1, 55, 127
1, 171447, Note_on_c, 1, 58, 127
1, 171599, Note_off_c, 1, 70, 0
1, 171602, Note_on_c, 1, 72, 127
1, 171754, Note_off_c, 1, 62, 0
1, 171754, Note_off_c, 1, 55, 0
1, 171754, Note_off_c, 1, 58, 0
1, 171754, Note_off_c, 1, 72, 0
1, 171758, Note_on_c, 1, 74, 127
1, 171758, Note_on_c, 1, 62, 127
1, 171758, Note_on_c, 1, 57, 127
1, 171758, Note_on_c, 1, 54, 127
1, 171910, Note_off_c, 1, 74, 0
1, 171913, Note_on_c, 1, 72, 127
1, 172065, Note_off_c, 1, 62, 0
1, 172065, Note_off_c, 1, 57, 0
1, 172065, Note_off_c, 1, 54, 0
1, 172065, Note_off_c, 1, 72, 0
1, 172069, Note_on_c, 1, 74, 127
1, 172069, Note_on_c, 1, 50, 127
1, 172069, Note_on_c, 1, 54, 127
1, 172069, Note_on_c, 1, 57, 127
1, 172221, Note_off_c, 1, 74, 0
1, 172224, Note_on_c, 1, 76, 127
1, 172376, Note_off_c, 1, 50, 0
1, 172376, Note_off_c, 1, 54, 0
1, 172376, Note_off_c, 1, 57, 0
1, 172376, Note_off_c, 1, 76, 0
1, 172380, Note_on_c, 1, 78, 127
1, 172380, Note_on_c, 1, 57, 127
1, 172380, Note_on_c, 1, 50, 127
1, 172380, Note_on_c, 1, 54, 127
1, 172532, Note_off_c, 1, 78, 0
1, 172535, Note_on_c, 1, 74, 127
1, 172687, Note_off_c, 1, 57, 0
1, 172687, Note_off_c, 1, 50, 0
1, 172687, Note_off_c, 1, 54, 0
1, 172687, Note_off_c, 1, 74, 0
1, 172691, Note_on_c, 1, 79, 127
1, 172691, Note_on_c, 1, 55, 127
1, 172691, Note_on_c, 1, 46, 127
1, 172691, Note_on_c, 1, 50, 127
1, 172843, Note_off_c, 1, 79, 0
1, 172846, Note_on_c, 1, 78, 127
1, 172998, Note_off_c, 1, 55, 0
1, 172998, Note_off_c, 1, 46, 0
1, 172998, Note_off_c, 1, 50, 0
1, 172998, Note_off_c, 1, 78, 0
1, 173002, Note_on_c, 1, 79, 127
1, 173002, Note_on_c, 1, 43, 127
1, 173002, Note_on_c, 1, 46, 127
1, 173002, Note_on_c, 1, 50, 127
1, 173154, Note_off_c, 1, 79, 0
1, 173157, Note_on_c, 1, 81, 127
1, 173309, Note_off_c, 1, 43, 0
1, 173309, Note_off_c, 1, 46, 0
1, 173309, Note_off_c, 1, 50, 0
1, 173309, Note_off_c, 1, 81, 0
1, 173313, Note_on_c, 1, 82, 127
1, 173313, Note_on_c, 1, 50, 127
1, 173313, Note_on_c, 1, 46, 127
1, 173313, Note_on_c, 1, 43, 127
1, 173465, Note_off_c, 1, 82, 0
1, 173468, Note_on_c, 1, 79, 127
1, 173620, Note_off_c, 1, 50, 0
1, 173620, Note_off_c, 1, 46, 0
1, 173620, Note_off_c, 1, 43, 0
1, 173620, Note_off_c, 1, 79, 0
1, 173624, Note_on_c, 1, 81, 127
1, 173624, Note_on_c, 1, 50, 127
1, 173624, Note_on_c, 1, 42, 127
1, 173624, Note_on_c, 1, 45, 127
1, 173624, Note_on_c, 1, 38, 127
1, 173776, Note_off_c, 1, 81, 0
1, 173779, Note_on_c, 1, 79, 127
1, 173931, Note_off_c, 1, 79, 0
1, 173935, Note_on_c, 1, 78, 127
1, 174087, Note_off_c, 1, 78, 0
1, 174090, Note_on_c, 1, 76, 127
1, 174242, Note_off_c, 1, 76, 0
1, 174246, Note_on_c, 1, 74, 127
1, 174336, Note_off_c, 1, 50, 0
1, 174336, Note_off_c, 1, 42, 0
1, 174336, Note_off_c, 1, 45, 0
1, 174336, Note_off_c, 1, 38, 0
1, 174398, Note_off_c, 1, 74, 0
1, 174401, Note_on_c, 1, 72, 127
1, 174553, Note_off_c, 1, 72, 0
1, 174557, Note_on_c, 1, 70, 127
1, 174712, Note_on_c, 1, 69, 127
1, 174864, Note_off_c, 1, 70, 0
1, 174864, Note_off_c, 1, 69, 0
1, 174868, Note_on_c, 1, 67, 127
1, 174868, Note_on_c, 1, 79, 127
1, 174868, Note_on_c, 1, 70, 127
1, 174868, Note_on_c, 1, 74, 127
1, 175020, Note_off_c, 1, 67, 0
1, 175024, Note_on_c, 1, 65, 127
1, 175175, Note_off_c, 1, 79, 0
1, 175175, Note_off_c, 1, 70, 0
1, 175175, Note_off_c, 1, 74, 0
1, 175176, Note_off_c, 1, 65, 0
1, 175179, Note_on_c, 1, 63, 127
1, 175179, Note_on_c, 1, 70, 127
1, 175179, Note_on_c, 1, 79, 127
1, 175179, Note_on_c, 1, 74, 127
1, 175331, Note_off_c, 1, 63, 0
1, 175335, Note_on_c, 1, 62, 127
1, 175486, Note_off_c, 1, 70, 0
1, 175486, Note_off_c, 1, 79, 0
1, 175486, Note_off_c, 1, 74, 0
1, 175487, Note_off_c, 1, 62, 0
1, 175490, Note_on_c, 1, 75, 127
1, 175490, Note_on_c, 1, 60, 127
1, 175490, Note_on_c, 1, 72, 127
1, 175642, Note_off_c, 1, 75, 0
1, 175642, Note_off_c, 1, 60, 0
1, 175646, Note_on_c, 1, 77, 127
1, 175646, Note_on_c, 1, 62, 127
1, 175798, Note_off_c, 1, 77, 0
1, 175798, Note_off_c, 1, 62, 0
1, 175943, Note_off_c, 1, 72, 0
1, 175957, Note_on_c, 1, 74, 127
1, 175957, Note_on_c, 1, 58, 127
1, 176109, Note_off_c, 1, 74, 0
1, 176109, Note_off_c, 1, 58, 0
1, 176112, Note_on_c, 1, 72, 127
1, 176112, Note_on_c, 1, 57, 127
1, 176264, Note_off_c, 1, 72, 0
1, 176264, Note_off_c, 1, 57, 0
1, 176268, Note_on_c, 1, 70, 127
1, 176268, Note_on_c, 1, 55, 127
1, 176420, Note_off_c, 1, 70, 0
1, 176420, Note_off_c, 1, 55, 0
1, 176423, Note_on_c, 1, 53, 127
1, 176423, Note_on_c, 1, 69, 127
1, 176575, Note_off_c, 1, 53, 0
1, 176579, Note_on_c, 1, 67, 127
1, 176730, Note_off_c, 1, 69, 0
1, 176731, Note_off_c, 1, 67, 0
1, 176734, Note_on_c, 1, 65, 127
1, 176734, Note_on_c, 1, 72, 127
1, 176734, Note_on_c, 1, 77, 127
1, 176734, Note_on_c, 1, 69, 127
1, 176886, Note_off_c, 1, 65, 0
1, 176890, Note_on_c, 1, 63, 127
1, 177041, Note_off_c, 1, 72, 0
1, 177041, Note_off_c, 1, 77, 0
1, 177041, Note_off_c, 1, 69, 0
1, 177042, Note_off_c, 1, 63, 0
1, 177045, Note_on_c, 1, 62, 127
1, 177045, Note_on_c, 1, 69, 127
1, 177045, Note_on_c, 1, 72, 127
1, 177045, Note_on_c, 1, 77, 127
1, 177197, Note_off_c, 1, 62, 0
1, 177201, Note_on_c, 1, 60, 127
1, 177352, Note_off_c, 1, 69, 0
1, 177352, Note_off_c, 1, 72, 0
1, 177352, Note_off_c, 1, 77, 0
1, 177353, Note_off_c, 1, 60, 0
1, 177356, Note_on_c, 1, 74, 127
1, 177356, Note_on_c, 1, 58, 127
1, 177356, Note_on_c, 1, 70, 127
1, 177508, Note_off_c, 1, 74, 0
1, 177508, Note_off_c, 1, 58, 0
1, 177512, Note_on_c, 1, 75, 127
1, 177512, Note_on_c, 1, 60, 127
1, 177664, Note_off_c, 1, 75, 0
1, 177664, Note_off_c, 1, 60, 0
1, 177809, Note_off_c, 1, 70, 0
1, 177823, Note_on_c, 1, 72, 127
1, 177823, Note_on_c, 1, 57, 127
1, 177975, Note_off_c, 1, 72, 0
1, 177975, Note_off_c, 1, 57, 0
1, 177978, Note_on_c, 1, 70, 127
1, 177978, Note_on_c, 1, 55, 127
1, 178130, Note_off_c, 1, 70, 0
1, 178130, Note_off_c, 1, 55, 0
1, 178134, Note_on_c, 1, 69, 127
1, 178134, Note_on_c, 1, 53, 127
1, 178286, Note_off_c, 1, 69, 0
1, 178286, Note_off_c, 1, 53, 0
1, 178289, Note_on_c, 1, 51, 127
1, 178289, Note_on_c, 1, 67, 127
1, 178441, Note_off_c, 1, 51, 0
1, 178445, Note_on_c, 1, 65, 127
1, 178596, Note_off_c, 1, 67, 0
1, 178597, Note_off_c, 1, 65, 0
1, 178600, Note_on_c, 1, 63, 127
1, 178600, Note_on_c, 1, 70, 127
1, 178600, Note_on_c, 1, 75, 127
1, 178600, Note_on_c, 1, 67, 127
1, 178752, Note_off_c, 1, 63, 0
1, 178756, Note_on_c, 1, 62, 127
1, 178907, Note_off_c, 1, 70, 0
1, 178907, Note_off_c, 1, 75, 0
1, 178907, Note_off_c, 1, 67, 0
1, 178908, Note_off_c, 1, 62, 0
1, 178912, Note_on_c, 1, 60, 127
1, 178912, Note_on_c, 1, 70, 127
1, 178912, Note_on_c, 1, 75, 127
1, 178912, Note_on_c, 1, 67, 127
1, 179064, Note_off_c, 1, 60, 0
1, 179067, Note_on_c, 1, 58, 127
1, 179219, Note_off_c, 1, 70, 0
1, 179219, Note_off_c, 1, 75, 0
1, 179219, Note_off_c, 1, 67, 0
1, 179219, Note_off_c, 1, 58, 0
1, 179223, Note_on_c, 1, 72, 127
1, 179223, Note_on_c, 1, 57, 127
1, 179223, Note_on_c, 1, 67, 127
1, 179375, Note_off_c, 1, 72, 0
1, 179375, Note_off_c, 1, 57, 0
1, 179378, Note_on_c, 1, 74, 127
1, 179378, Note_on_c, 1, 58, 127
1, 179530, Note_off_c, 1, 74, 0
1, 179530, Note_off_c, 1, 58, 0
1, 179676, Note_off_c, 1, 67, 0
1, 179689, Note_on_c, 1, 70, 127
1, 179689, Note_on_c, 1, 55, 127
1, 179841, Note_off_c, 1, 70, 0
1, 179841, Note_off_c, 1, 55, 0
1, 179845, Note_on_c, 1, 69, 127
1, 179845, Note_on_c, 1, 54, 127
1, 179997, Note_off_c, 1, 69, 0
1, 179997, Note_off_c, 1, 54, 0
1, 180000, Note_on_c, 1, 67, 127
1, 180000, Note_on_c, 1, 52, 127
1, 180152, Note_off_c, 1, 67, 0
1, 180152, Note_off_c, 1, 52, 0
1, 180156, Note_on_c, 1, 50, 127
1, 180156, Note_on_c, 1, 66, 127
1, 180308, Note_off_c, 1, 50, 0
1, 180311, Note_on_c, 1, 51, 127
1, 180463, Note_off_c, 1, 66, 0
1, 180463, Note_off_c, 1, 51, 0
1, 180467, Note_on_c, 1, 50, 127
1, 180467, Note_on_c, 1, 74, 127
1, 180467, Note_on_c, 1, 66, 127
1, 180467, Note_on_c, 1, 69, 127
1, 180619, Note_off_c, 1, 50, 0
1, 180622, Note_on_c, 1, 48, 127
1, 180774, Note_off_c, 1, 74, 0
1, 180774, Note_off_c, 1, 66, 0
1, 180774, Note_off_c, 1, 69, 0
1, 180774, Note_off_c, 1, 48, 0
1, 180778, Note_on_c, 1, 46, 127
1, 180778, Note_on_c, 1, 74, 127
1, 180778, Note_on_c, 1, 66, 127
1, 180778, Note_on_c, 1, 69, 127
1, 180930, Note_off_c, 1, 46, 0
1, 180933, Note_on_c, 1, 45, 127
1, 181085, Note_off_c, 1, 74, 0
1, 181085, Note_off_c, 1, 66, 0
1, 181085, Note_off_c, 1, 69, 0
1, 181085, Note_off_c, 1, 45, 0
1, 181089, Note_on_c, 1, 43, 127
1, 181089, Note_on_c, 1, 67, 127
1, 181089, Note_on_c, 1, 70, 127
1, 181089, Note_on_c, 1, 62, 127
1, 181241, Note_off_c, 1, 43, 0
1, 181244, Note_on_c, 1, 45, 127
1, 181396, Note_off_c, 1, 67, 0
1, 181396, Note_off_c, 1, 70, 0
1, 181396, Note_off_c, 1, 62, 0
1, 181396, Note_off_c, 1, 45, 0
1, 181400, Note_on_c, 1, 43, 127
1, 181400, Note_on_c, 1, 67, 127
1, 181400, Note_on_c, 1, 62, 127
1, 181400, Note_on_c, 1, 70, 127
1, 181552, Note_off_c, 1, 43, 0
1, 181555, Note_on_c, 1, 41, 127
1, 181707, Note_off_c, 1, 67, 0
1, 181707, Note_off_c, 1, 62, 0
1, 181707, Note_off_c, 1, 70, 0
1, 181707, Note_off_c, 1, 41, 0
1, 181711, Note_on_c, 1, 39, 127
1, 181711, Note_on_c, 1, 67, 127
1, 181711, Note_on_c, 1, 62, 127
1, 181711, Note_on_c, 1, 70, 127
1, 181863, Note_off_c, 1, 39, 0
1, 181866, Note_on_c, 1, 38, 127
1, 182018, Note_off_c, 1, 67, 0
1, 182018, Note_off_c, 1, 62, 0
1, 182018, Note_off_c, 1, 70, 0
1, 182018, Note_off_c, 1, 38, 0
1, 182022, Note_on_c, 1, 63, 127
1, 182022, Note_on_c, 1, 36, 127
1, 182022, Note_on_c, 1, 70, 127
1, 182174, Note_off_c, 1, 63, 0
1, 182177, Note_on_c, 1, 62, 127
1, 182329, Note_off_c, 1, 36, 0
1, 182329, Note_off_c, 1, 62, 0
1, 182333, Note_on_c, 1, 48, 127
1, 182488, Note_on_c, 1, 65, 127
1, 182640, Note_off_c, 1, 48, 0
1, 182640, Note_off_c, 1, 65, 0
1, 182644, Note_on_c, 1, 67, 127
1, 182796, Note_off_c, 1, 67, 0
1, 182953, Note_off_c, 1, 70, 0
1, 182955, Note_on_c, 1, 60, 127
1, 182955, Note_on_c, 1, 41, 127
1, 182955, Note_on_c, 1, 69, 127
1, 183107, Note_off_c, 1, 60, 0
1, 183111, Note_on_c, 1, 67, 127
1, 183262, Note_off_c, 1, 41, 0
1, 183263, Note_off_c, 1, 67, 0
1, 183266, Note_on_c, 1, 65, 127
1, 183266, Note_on_c, 1, 53, 127
1, 183418, Note_off_c, 1, 65, 0
1, 183422, Note_on_c, 1, 63, 127
1, 183573, Note_off_c, 1, 53, 0
1, 183574, Note_off_c, 1, 63, 0
1, 183577, Note_on_c, 1, 62, 127
1, 183729, Note_off_c, 1, 62, 0
1, 183888, Note_on_c, 1, 58, 127
1, 184195, Note_off_c, 1, 58, 0
1, 184199, Note_on_c, 1, 46, 127
1, 184506, Note_off_c, 1, 46, 0
1, 184818, Note_off_c, 1, 69, 0
1, 184821, Note_on_c, 1, 58, 127
1, 184821, Note_on_c, 1, 39, 127
1, 184821, Note_on_c, 1, 67, 127
1, 184973, Note_off_c, 1, 58, 0
1, 184977, Note_on_c, 1, 65, 127
1, 185128, Note_off_c, 1, 39, 0
1, 185129, Note_off_c, 1, 65, 0
1, 185132, Note_on_c, 1, 63, 127
1, 185132, Note_on_c, 1, 51, 127
1, 185284, Note_off_c, 1, 63, 0
1, 185288, Note_on_c, 1, 62, 127
1, 185439, Note_off_c, 1, 51, 0
1, 185440, Note_off_c, 1, 62, 0
1, 185443, Note_on_c, 1, 60, 127
1, 185595, Note_off_c, 1, 60, 0
1, 185754, Note_on_c, 1, 57, 127
1, 186061, Note_off_c, 1, 57, 0
1, 186065, Note_on_c, 1, 45, 127
1, 186372, Note_off_c, 1, 45, 0
1, 186684, Note_off_c, 1, 67, 0
1, 186688, Note_on_c, 1, 57, 127
1, 186688, Note_on_c, 1, 38, 127
1, 186688, Note_on_c, 1, 66, 127
1, 186840, Note_off_c, 1, 57, 0
1, 186843, Note_on_c, 1, 63, 127
1, 186995, Note_off_c, 1, 63, 0
1, 186999, Note_on_c, 1, 62, 127
1, 187151, Note_off_c, 1, 62, 0
1, 187154, Note_on_c, 1, 60, 127
1, 187306, Note_off_c, 1, 60, 0
1, 187310, Note_on_c, 1, 58, 127
1, 187462, Note_off_c, 1, 58, 0
1, 187465, Note_off_c, 1, 38, 0
1, 187619, Note_off_c, 1, 66, 0
1, 187621, Note_on_c, 1, 58, 127
1, 187621, Note_on_c, 1, 69, 127
1, 187768, Note_on_c, 1, 67, 127
1, 187773, Note_off_c, 1, 58, 0
1, 187776, Note_on_c, 1, 62, 127
1, 187781, Note_off_c, 1, 69, 0
1, 187862, Note_off_c, 1, 67, 0
1, 187928, Note_off_c, 1, 62, 0
1, 187932, Note_on_c, 1, 60, 127
1, 188084, Note_off_c, 1, 60, 0
1, 188243, Note_on_c, 1, 57, 127
1, 188395, Note_off_c, 1, 57, 0
1, 188398, Note_on_c, 1, 55, 127
1, 188418, Note_on_c, 1, 66, 127
1, 188492, Note_off_c, 1, 66, 0
1, 188550, Note_off_c, 1, 55, 0
1, 188554, Note_on_c, 1, 54, 127
1, 188706, Note_off_c, 1, 54, 0
1, 188865, Note_on_c, 1, 54, 127
1, 188865, Note_on_c, 1, 66, 127
1, 188865, Note_on_c, 1, 69, 127
1, 188865, Note_on_c, 1, 74, 127
1, 189017, Note_off_c, 1, 54, 0
1, 189020, Note_on_c, 1, 52, 127
1, 189172, Note_off_c, 1, 66, 0
1, 189172, Note_off_c, 1, 69, 0
1, 189172, Note_off_c, 1, 74, 0
1, 189172, Note_off_c, 1, 52, 0
1, 189176, Note_on_c, 1, 50, 127
1, 189176, Note_on_c, 1, 74, 127
1, 189176, Note_on_c, 1, 66, 127
1, 189176, Note_on_c, 1, 69, 127
1, 189328, Note_off_c, 1, 50, 0
1, 189331, Note_on_c, 1, 48, 127
1, 189483, Note_off_c, 1, 74, 0
1, 189483, Note_off_c, 1, 66, 0
1, 189483, Note_off_c, 1, 69, 0
1, 189483, Note_off_c, 1, 48, 0
1, 189487, Note_on_c, 1, 47, 127
1, 189487, Note_on_c, 1, 67, 127
1, 189487, Note_on_c, 1, 71, 127
1, 189487, Note_on_c, 1, 74, 127
1, 189487, Note_on_c, 1, 77, 127
1, 189639, Note_off_c, 1, 47, 0
1, 189642, Note_on_c, 1, 45, 127
1, 189794, Note_off_c, 1, 67, 0
1, 189794, Note_off_c, 1, 71, 0
1, 189794, Note_off_c, 1, 74, 0
1, 189794, Note_off_c, 1, 77, 0
1, 189794, Note_off_c, 1, 45, 0
1, 189798, Note_on_c, 1, 43, 127
1, 189798, Note_on_c, 1, 67, 127
1, 189798, Note_on_c, 1, 71, 127
1, 189798, Note_on_c, 1, 74, 127
1, 189798, Note_on_c, 1, 77, 127
1, 189950, Note_off_c, 1, 43, 0
1, 189953, Note_on_c, 1, 41, 127
1, 190105, Note_off_c, 1, 67, 0
1, 190105, Note_off_c, 1, 71, 0
1, 190105, Note_off_c, 1, 74, 0
1, 190105, Note_off_c, 1, 77, 0
1, 190105, Note_off_c, 1, 41, 0
1, 190109, Note_on_c, 1, 40, 127
1, 190109, Note_on_c, 1, 77, 127
1, 190109, Note_on_c, 1, 71, 127
1, 190109, Note_on_c, 1, 74, 127
1, 190109, Note_on_c, 1, 67, 127
1, 190261, Note_off_c, 1, 40, 0
1, 190264, Note_on_c, 1, 38, 127
1, 190416, Note_off_c, 1, 77, 0
1, 190416, Note_off_c, 1, 71, 0
1, 190416, Note_off_c, 1, 74, 0
1, 190416, Note_off_c, 1, 67, 0
1, 190416, Note_off_c, 1, 38, 0
1, 190420, Note_on_c, 1, 74, 127
1, 190420, Note_on_c, 1, 77, 127
1, 190420, Note_on_c, 1, 67, 127
1, 190420, Note_on_c, 1, 71, 127
1, 190420, Note_on_c, 1, 36, 127
1, 190727, Note_off_c, 1, 74, 0
1, 190727, Note_off_c, 1, 77, 0
1, 190727, Note_off_c, 1, 67, 0
1, 190727, Note_off_c, 1, 71, 0
1, 190727, Note_off_c, 1, 36, 0
1, 190731, Note_on_c, 1, 55, 127
1, 190731, Note_on_c, 1, 76, 127
1, 190731, Note_on_c, 1, 67, 127
1, 190731, Note_on_c, 1, 72, 127
1, 190883, Note_off_c, 1, 55, 0
1, 190887, Note_on_c, 1, 53, 127
1, 191038, Note_off_c, 1, 76, 0
1, 191038, Note_off_c, 1, 67, 0
1, 191038, Note_off_c, 1, 72, 0
1, 191039, Note_off_c, 1, 53, 0
1, 191042, Note_on_c, 1, 52, 127
1, 191042, Note_on_c, 1, 67, 127
1, 191042, Note_on_c, 1, 72, 127
1, 191042, Note_on_c, 1, 76, 127
1, 191194, Note_off_c, 1, 52, 0
1, 191198, Note_on_c, 1, 50, 127
1, 191349, Note_off_c, 1, 67, 0
1, 191349, Note_off_c, 1, 72, 0
1, 191349, Note_off_c, 1, 76, 0
1, 191350, Note_off_c, 1, 50, 0
1, 191353, Note_on_c, 1, 49, 127
1, 191353, Note_on_c, 1, 69, 127
1, 191353, Note_on_c, 1, 73, 127
1, 191353, Note_on_c, 1, 76, 127
1, 191353, Note_on_c, 1, 79, 127
1, 191505, Note_off_c, 1, 49, 0
1, 191509, Note_on_c, 1, 47, 127
1, 191660, Note_off_c, 1, 69, 0
1, 191660, Note_off_c, 1, 73, 0
1, 191660, Note_off_c, 1, 76, 0
1, 191660, Note_off_c, 1, 79, 0
1, 191661, Note_off_c, 1, 47, 0
1, 191664, Note_on_c, 1, 45, 127
1, 191664, Note_on_c, 1, 76, 127
1, 191664, Note_on_c, 1, 79, 127
1, 191664, Note_on_c, 1, 69, 127
1, 191664, Note_on_c, 1, 73, 127
1, 191816, Note_off_c, 1, 45, 0
1, 191820, Note_on_c, 1, 43, 127
1, 191971, Note_off_c, 1, 76, 0
1, 191971, Note_off_c, 1, 79, 0
1, 191971, Note_off_c, 1, 69, 0
1, 191971, Note_off_c, 1, 73, 0
1, 191972, Note_off_c, 1, 43, 0
1, 191975, Note_on_c, 1, 42, 127
1, 191975, Note_on_c, 1, 69, 127
1, 191975, Note_on_c, 1, 73, 127
1, 191975, Note_on_c, 1, 76, 127
1, 191975, Note_on_c, 1, 79, 127
1, 192127, Note_off_c, 1, 42, 0
1, 192131, Note_on_c, 1, 40, 127
1, 192282, Note_off_c, 1, 69, 0
1, 192282, Note_off_c, 1, 73, 0
1, 192282, Note_off_c, 1, 76, 0
1, 192282, Note_off_c, 1, 79, 0
1, 192283, Note_off_c, 1, 40, 0
1, 192286, Note_on_c, 1, 76, 127
1, 192286, Note_on_c, 1, 79, 127
1, 192286, Note_on_c, 1, 69, 127
1, 192286, Note_on_c, 1, 73, 127
1, 192286, Note_on_c, 1, 38, 127
1, 192593, Note_off_c, 1, 76, 0
1, 192593, Note_off_c, 1, 79, 0
1, 192593, Note_off_c, 1, 69, 0
1, 192593, Note_off_c, 1, 73, 0
1, 192593, Note_off_c, 1, 38, 0
1, 192597, Note_on_c, 1, 60, 127
1, 192597, Note_on_c, 1, 74, 127
1, 192597, Note_on_c, 1, 78, 127
1, 192597, Note_on_c, 1, 69, 127
1, 192749, Note_off_c, 1, 60, 0
1, 192753, Note_on_c, 1, 58, 127
1, 192904, Note_off_c, 1, 74, 0
1, 192904, Note_off_c, 1, 78, 0
1, 192904, Note_off_c, 1, 69, 0
1, 192905, Note_off_c, 1, 58, 0
1, 192908, Note_on_c, 1, 57, 127
1, 192908, Note_on_c, 1, 69, 127
1, 192908, Note_on_c, 1, 74, 127
1, 192908, Note_on_c, 1, 78, 127
1, 193060, Note_off_c, 1, 57, 0
1, 193064, Note_on_c, 1, 55, 127
1, 193215, Note_off_c, 1, 69, 0
1, 193215, Note_off_c, 1, 74, 0
1, 193215, Note_off_c, 1, 78, 0
1, 193216, Note_off_c, 1, 55, 0
1, 193219, Note_on_c, 1, 54, 127
1, 193219, Note_on_c, 1, 81, 127
1, 193219, Note_on_c, 1, 72, 127
1, 193219, Note_on_c, 1, 74, 127
1, 193371, Note_off_c, 1, 54, 0
1, 193375, Note_on_c, 1, 52, 127
1, 193526, Note_off_c, 1, 81, 0
1, 193526, Note_off_c, 1, 72, 0
1, 193526, Note_off_c, 1, 74, 0
1, 193527, Note_off_c, 1, 52, 0
1, 193530, Note_on_c, 1, 50, 127
1, 193530, Note_on_c, 1, 74, 127
1, 193530, Note_on_c, 1, 81, 127
1, 193530, Note_on_c, 1, 72, 127
1, 193682, Note_off_c, 1, 50, 0
1, 193686, Note_on_c, 1, 48, 127
1, 193837, Note_off_c, 1, 74, 0
1, 193837, Note_off_c, 1, 81, 0
1, 193837, Note_off_c, 1, 72, 0
1, 193838, Note_off_c, 1, 48, 0
1, 193841, Note_on_c, 1, 46, 127
1, 193841, Note_on_c, 1, 74, 127
1, 193841, Note_on_c, 1, 72, 127
1, 193841, Note_on_c, 1, 81, 127
1, 193993, Note_off_c, 1, 46, 0
1, 193997, Note_on_c, 1, 45, 127
1, 194148, Note_off_c, 1, 74, 0
1, 194148, Note_off_c, 1, 72, 0
1, 194148, Note_off_c, 1, 81, 0
1, 194149, Note_off_c, 1, 45, 0
1, 194152, Note_on_c, 1, 43, 127
1, 194152, Note_on_c, 1, 72, 127
1, 194152, Note_on_c, 1, 81, 127
1, 194152, Note_on_c, 1, 74, 127
1, 194309, Note_off_c, 1, 43, 0
1, 194313, Note_on_c, 1, 42, 127
1, 194469, Note_off_c, 1, 72, 0
1, 194469, Note_off_c, 1, 81, 0
1, 194470, Note_off_c, 1, 42, 0
1, 194473, Note_on_c, 1, 70, 127
1, 194473, Note_on_c, 1, 79, 127
1, 194634, Note_on_c, 1, 45, 127
1, 194787, Note_off_c, 1, 74, 0
1, 194790, Note_off_c, 1, 70, 0
1, 194790, Note_off_c, 1, 79, 0
1, 194791, Note_off_c, 1, 45, 0
1, 194794, Note_on_c, 1, 46, 127
1, 194794, Note_on_c, 1, 74, 127
1, 194794, Note_on_c, 1, 69, 127
1, 194794, Note_on_c, 1, 77, 127
1, 194951, Note_off_c, 1, 46, 0
1, 194954, Note_on_c, 1, 43, 127
1, 195111, Note_off_c, 1, 74, 0
1, 195111, Note_off_c, 1, 69, 0
1, 195111, Note_off_c, 1, 77, 0
1, 195111, Note_off_c, 1, 43, 0
1, 195115, Note_on_c, 1, 48, 127
1, 195115, Note_on_c, 1, 75, 127
1, 195115, Note_on_c, 1, 72, 127
1, 195115, Note_on_c, 1, 67, 127
1, 195273, Note_off_c, 1, 48, 0
1, 195277, Note_on_c, 1, 46, 127
1, 195435, Note_off_c, 1, 75, 0
1, 195435, Note_off_c, 1, 72, 0
1, 195435, Note_off_c, 1, 46, 0
1, 195439, Note_on_c, 1, 74, 127
1, 195439, Note_on_c, 1, 70, 127
1, 195601, Note_on_c, 1, 50, 127
1, 195759, Note_off_c, 1, 74, 0
1, 195759, Note_off_c, 1, 70, 0
1, 195759, Note_off_c, 1, 50, 0
1, 195763, Note_on_c, 1, 51, 127
1, 195763, Note_on_c, 1, 69, 127
1, 195921, Note_off_c, 1, 51, 0
1, 196083, Note_off_c, 1, 69, 0
1, 196085, Note_off_c, 1, 67, 0
1, 196087, Note_on_c, 1, 50, 127
1, 196087, Note_on_c, 1, 66, 127
1, 196171, Note_on_c, 1, 69, 127
1, 196252, Note_off_c, 1, 50, 0
1, 196255, Note_on_c, 1, 52, 127
1, 196255, Note_on_c, 1, 72, 127
1, 196420, Note_off_c, 1, 52, 0
1, 196424, Note_on_c, 1, 54, 127
1, 196588, Note_off_c, 1, 72, 0
1, 196589, Note_off_c, 1, 66, 0
1, 196589, Note_off_c, 1, 54, 0
1, 196592, Note_on_c, 1, 74, 127
1, 196750, Note_off_c, 1, 69, 0
1, 196757, Note_off_c, 1, 74, 0
1, 196761, Note_on_c, 1, 55, 127
1, 196761, Note_on_c, 1, 67, 127
1, 196761, Note_on_c, 1, 70, 127
1, 196761, Note_on_c, 1, 62, 127
1, 197122, Note_off_c, 1, 55, 0
1, 197125, Note_on_c, 1, 48, 127
1, 197303, Note_off_c, 1, 67, 0
1, 197303, Note_off_c, 1, 70, 0
1, 197303, Note_off_c, 1, 62, 0
1, 197307, Note_on_c, 1, 69, 127
1, 197484, Note_off_c, 1, 48, 0
1, 197485, Note_off_c, 1, 69, 0
1, 197488, Note_on_c, 1, 70, 127
1, 197488, Note_on_c, 1, 50, 127
1, 197488, Note_on_c, 1, 66, 127
1, 197593, Note_off_c, 1, 70, 0
1, 197598, Note_on_c, 1, 69, 127
1, 197703, Note_off_c, 1, 69, 0
1, 197923, Note_off_c, 1, 50, 0
1, 197929, Note_on_c, 1, 38, 127
1, 198131, Note_off_c, 1, 66, 0
1, 198151, Note_on_c, 1, 67, 127
1, 198368, Note_off_c, 1, 38, 0
1, 198368, Note_off_c, 1, 67, 0
1, 198389, Note_on_c, 1, 43, 127
1, 198389, Note_on_c, 1, 67, 127
1, 200889, Note_off_c, 1, 43, 0
1, 200889, Note_off_c, 1, 67, 0
1, 202820, Note_on_c, 1, 70, 127
1, 203120, Note_off_c, 1, 70, 0
1, 203150, Note_on_c, 1, 67, 127
1, 203150, Note_on_c, 1, 70, 127
1, 203362, Note_on_c, 1, 43, 127
1, 203543, Note_off_c, 1, 43, 0
1, 203546, Note_on_c, 1, 46, 127
1, 203727, Note_off_c, 1, 46, 0
1, 203731, Note_on_c, 1, 50, 127
1, 203912, Note_off_c, 1, 50, 0
1, 203916, Note_on_c, 1, 55, 127
1, 203919, Note_off_c, 1, 67, 0
1, 204097, Note_off_c, 1, 55, 0
1, 204100, Note_on_c, 1, 79, 127
1, 204100, Note_on_c, 1, 58, 127
1, 204107, Note_off_c, 1, 70, 0
1, 204281, Note_off_c, 1, 79, 0
1, 204281, Note_off_c, 1, 58, 0
1, 204285, Note_on_c, 1, 78, 127
1, 204285, Note_on_c, 1, 57, 127
1, 204466, Note_off_c, 1, 78, 0
1, 204466, Note_off_c, 1, 57, 0
1, 204470, Note_on_c, 1, 79, 127
1, 204470, Note_on_c, 1, 55, 127
1, 204651, Note_off_c, 1, 79, 0
1, 204651, Note_off_c, 1, 55, 0
1, 204654, Note_on_c, 1, 54, 127
1, 204654, Note_on_c, 1, 69, 127
1, 204654, Note_on_c, 1, 72, 127
1, 204835, Note_off_c, 1, 54, 0
1, 204839, Note_on_c, 1, 55, 127
1, 205020, Note_off_c, 1, 55, 0
1, 205024, Note_on_c, 1, 57, 127
1, 205205, Note_off_c, 1, 57, 0
1, 205208, Note_on_c, 1, 51, 127
1, 205386, Note_off_c, 1, 69, 0
1, 205389, Note_off_c, 1, 51, 0
1, 205393, Note_on_c, 1, 50, 127
1, 205574, Note_off_c, 1, 72, 0
1, 205574, Note_off_c, 1, 50, 0
1, 205578, Note_on_c, 1, 81, 127
1, 205578, Note_on_c, 1, 48, 127
1, 205759, Note_off_c, 1, 81, 0
1, 205759, Note_off_c, 1, 48, 0
1, 205762, Note_on_c, 1, 79, 127
1, 205762, Note_on_c, 1, 46, 127
1, 205943, Note_off_c, 1, 79, 0
1, 205943, Note_off_c, 1, 46, 0
1, 205947, Note_on_c, 1, 81, 127
1, 205947, Note_on_c, 1, 45, 127
1, 206128, Note_off_c, 1, 81, 0
1, 206128, Note_off_c, 1, 45, 0
1, 206132, Note_on_c, 1, 74, 127
1, 206132, Note_on_c, 1, 46, 127
1, 206313, Note_off_c, 1, 74, 0
1, 206317, Note_on_c, 1, 67, 127
1, 206498, Note_off_c, 1, 67, 0
1, 206501, Note_on_c, 1, 70, 127
1, 206682, Note_off_c, 1, 70, 0
1, 206871, Note_on_c, 1, 79, 127
1, 207052, Note_off_c, 1, 46, 0
1, 207052, Note_off_c, 1, 79, 0
1, 207055, Note_on_c, 1, 82, 127
1, 207055, Note_on_c, 1, 50, 127
1, 207236, Note_off_c, 1, 82, 0
1, 207236, Note_off_c, 1, 50, 0
1, 207240, Note_on_c, 1, 81, 127
1, 207240, Note_on_c, 1, 48, 127
1, 207421, Note_off_c, 1, 81, 0
1, 207421, Note_off_c, 1, 48, 0
1, 207425, Note_on_c, 1, 79, 127
1, 207425, Note_on_c, 1, 51, 127
1, 207606, Note_off_c, 1, 79, 0
1, 207606, Note_off_c, 1, 51, 0
1, 207609, Note_on_c, 1, 78, 127
1, 207609, Note_on_c, 1, 50, 127
1, 207790, Note_off_c, 1, 78, 0
1, 207794, Note_on_c, 1, 79, 127
1, 207975, Note_off_c, 1, 79, 0
1, 207979, Note_on_c, 1, 81, 127
1, 208160, Note_off_c, 1, 81, 0
1, 208163, Note_on_c, 1, 75, 127
1, 208344, Note_off_c, 1, 75, 0
1, 208348, Note_on_c, 1, 74, 127
1, 208529, Note_off_c, 1, 50, 0
1, 208529, Note_off_c, 1, 74, 0
1, 208533, Note_on_c, 1, 72, 127
1, 208533, Note_on_c, 1, 52, 127
1, 208714, Note_off_c, 1, 72, 0
1, 208714, Note_off_c, 1, 52, 0
1, 208717, Note_on_c, 1, 70, 127
1, 208717, Note_on_c, 1, 54, 127
1, 208898, Note_off_c, 1, 70, 0
1, 208898, Note_off_c, 1, 54, 0
1, 208902, Note_on_c, 1, 69, 127
1, 208902, Note_on_c, 1, 50, 127
1, 209083, Note_off_c, 1, 69, 0
1, 209083, Note_off_c, 1, 50, 0
1, 209087, Note_on_c, 1, 70, 127
1, 209087, Note_on_c, 1, 55, 127
1, 209273, Note_on_c, 1, 67, 127
1, 209454, Note_off_c, 1, 67, 0
1, 209458, Note_on_c, 1, 65, 127
1, 209639, Note_off_c, 1, 65, 0
1, 209642, Note_on_c, 1, 62, 127
1, 209823, Note_off_c, 1, 62, 0
1, 209827, Note_on_c, 1, 63, 127
1, 210194, Note_off_c, 1, 70, 0
1, 210195, Note_off_c, 1, 55, 0
1, 210198, Note_on_c, 1, 72, 127
1, 210198, Note_on_c, 1, 51, 127
1, 210379, Note_off_c, 1, 72, 0
1, 210383, Note_on_c, 1, 75, 127
1, 210564, Note_off_c, 1, 51, 0
1, 210564, Note_off_c, 1, 75, 0
1, 210567, Note_on_c, 1, 69, 127
1, 210567, Note_on_c, 1, 53, 127
1, 210753, Note_off_c, 1, 63, 0
1, 211123, Note_on_c, 1, 60, 127
1, 211304, Note_off_c, 1, 60, 0
1, 211493, Note_off_c, 1, 69, 0
1, 211675, Note_off_c, 1, 53, 0
1, 211679, Note_on_c, 1, 50, 127
1, 211863, Note_on_c, 1, 74, 127
1, 212044, Note_off_c, 1, 74, 0
1, 212045, Note_off_c, 1, 50, 0
1, 212604, Note_on_c, 1, 58, 127
1, 212785, Note_off_c, 1, 58, 0
1, 213159, Note_on_c, 1, 48, 127
1, 213525, Note_off_c, 1, 48, 0
1, 213529, Note_on_c, 1, 66, 127
1, 213710, Note_off_c, 1, 66, 0
1, 213898, Note_on_c, 1, 57, 127
1, 214264, Note_off_c, 1, 57, 0
1, 215006, Note_on_c, 1, 54, 127
1, 215372, Note_off_c, 1, 54, 0
1, 215376, Note_on_c, 1, 74, 127
1, 215376, Note_on_c, 1, 57, 127
1, 215376, Note_on_c, 1, 48, 127
1, 215557, Note_off_c, 1, 74, 0
1, 215560, Note_on_c, 1, 78, 127
1, 215741, Note_off_c, 1, 78, 0
1, 215742, Note_off_c, 1, 57, 0
1, 215742, Note_off_c, 1, 48, 0
1, 215745, Note_on_c, 1, 70, 127
1, 215745, Note_on_c, 1, 46, 127
1, 215745, Note_on_c, 1, 50, 127
1, 215926, Note_off_c, 1, 70, 0
1, 215930, Note_on_c, 1, 74, 127
1, 216111, Note_off_c, 1, 46, 0
1, 216111, Note_off_c, 1, 74, 0
1, 216114, Note_on_c, 1, 78, 127
1, 216114, Note_on_c, 1, 43, 127
1, 216295, Note_off_c, 1, 78, 0
1, 216299, Note_on_c, 1, 79, 127
1, 216480, Note_off_c, 1, 43, 0
1, 216480, Note_off_c, 1, 79, 0
1, 216484, Note_on_c, 1, 81, 127
1, 216484, Note_on_c, 1, 38, 127
1, 216665, Note_off_c, 1, 81, 0
1, 216850, Note_off_c, 1, 38, 0
1, 216851, Note_off_c, 1, 50, 0
1, 216853, Note_on_c, 1, 78, 127
1, 216853, Note_on_c, 1, 62, 127
1, 217034, Note_off_c, 1, 78, 0
1, 217038, Note_on_c, 1, 76, 127
1, 217219, Note_off_c, 1, 76, 0
1, 217222, Note_on_c, 1, 74, 127
1, 217403, Note_off_c, 1, 62, 0
1, 217403, Note_off_c, 1, 74, 0
1, 217407, Note_on_c, 1, 75, 127
1, 217407, Note_on_c, 1, 60, 127
1, 217588, Note_off_c, 1, 75, 0
1, 217588, Note_off_c, 1, 60, 0
1, 217592, Note_on_c, 1, 77, 127
1, 217592, Note_on_c, 1, 59, 127
1, 217681, Note_off_c, 1, 77, 0
1, 217684, Note_on_c, 1, 75, 127
1, 217773, Note_off_c, 1, 59, 0
1, 217773, Note_off_c, 1, 75, 0
1, 217776, Note_on_c, 1, 74, 127
1, 217776, Note_on_c, 1, 57, 127
1, 217865, Note_off_c, 1, 74, 0
1, 217869, Note_on_c, 1, 75, 127
1, 217957, Note_off_c, 1, 57, 0
1, 217958, Note_off_c, 1, 75, 0
1, 217961, Note_on_c, 1, 55, 127
1, 217961, Note_on_c, 1, 71, 127
1, 218053, Note_on_c, 1, 74, 127
1, 218142, Note_off_c, 1, 55, 0
1, 218146, Note_on_c, 1, 50, 127
1, 218146, Note_on_c, 1, 77, 127
1, 218327, Note_off_c, 1, 50, 0
1, 218515, Note_on_c, 1, 59, 127
1, 218696, Note_off_c, 1, 59, 0
1, 218700, Note_on_c, 1, 62, 127
1, 218871, Note_off_c, 1, 74, 0
1, 218881, Note_off_c, 1, 62, 0
1, 218884, Note_off_c, 1, 71, 0
1, 218884, Note_on_c, 1, 72, 127
1, 218884, Note_on_c, 1, 63, 127
1, 219065, Note_off_c, 1, 72, 0
1, 219065, Note_off_c, 1, 63, 0
1, 219252, Note_off_c, 1, 77, 0
1, 219254, Note_on_c, 1, 71, 127
1, 219254, Note_on_c, 1, 60, 127
1, 219343, Note_off_c, 1, 71, 0
1, 219346, Note_on_c, 1, 72, 127
1, 219435, Note_off_c, 1, 60, 0
1, 219435, Note_off_c, 1, 72, 0
1, 219439, Note_on_c, 1, 74, 127
1, 219439, Note_on_c, 1, 59, 127
1, 219620, Note_off_c, 1, 74, 0
1, 219620, Note_off_c, 1, 59, 0
1, 219623, Note_on_c, 1, 75, 127
1, 219623, Note_on_c, 1, 60, 127
1, 219804, Note_off_c, 1, 75, 0
1, 219804, Note_off_c, 1, 60, 0
1, 219808, Note_on_c, 1, 77, 127
1, 219808, Note_on_c, 1, 62, 127
1, 219897, Note_off_c, 1, 77, 0
1, 219900, Note_on_c, 1, 75, 127
1, 219989, Note_off_c, 1, 62, 0
1, 219989, Note_off_c, 1, 75, 0
1, 219993, Note_on_c, 1, 74, 127
1, 219993, Note_on_c, 1, 56, 127
1, 220082, Note_off_c, 1, 74, 0
1, 220085, Note_on_c, 1, 75, 127
1, 220174, Note_off_c, 1, 56, 0
1, 220174, Note_off_c, 1, 75, 0
1, 220177, Note_on_c, 1, 77, 127
1, 220177, Note_on_c, 1, 55, 127
1, 220358, Note_off_c, 1, 77, 0
1, 220358, Note_off_c, 1, 55, 0
1, 220362, Note_on_c, 1, 80, 127
1, 220362, Note_on_c, 1, 53, 127
1, 220543, Note_off_c, 1, 80, 0
1, 220543, Note_off_c, 1, 53, 0
1, 220547, Note_on_c, 1, 79, 127
1, 220547, Note_on_c, 1, 51, 127
1, 220728, Note_off_c, 1, 79, 0
1, 220728, Note_off_c, 1, 51, 0
1, 220731, Note_on_c, 1, 77, 127
1, 220731, Note_on_c, 1, 50, 127
1, 220912, Note_off_c, 1, 77, 0
1, 220912, Note_off_c, 1, 50, 0
1, 220916, Note_on_c, 1, 75, 127
1, 220916, Note_on_c, 1, 48, 127
1, 221097, Note_off_c, 1, 75, 0
1, 221101, Note_on_c, 1, 72, 127
1, 221282, Note_off_c, 1, 72, 0
1, 221470, Note_on_c, 1, 79, 127
1, 221651, Note_off_c, 1, 79, 0
1, 221655, Note_on_c, 1, 84, 127
1, 221836, Note_off_c, 1, 48, 0
1, 221836, Note_off_c, 1, 84, 0
1, 221839, Note_on_c, 1, 82, 127
1, 221839, Note_on_c, 1, 48, 127
1, 222020, Note_off_c, 1, 82, 0
1, 222020, Note_off_c, 1, 48, 0
1, 222024, Note_on_c, 1, 81, 127
1, 222024, Note_on_c, 1, 51, 127
1, 222205, Note_off_c, 1, 81, 0
1, 222205, Note_off_c, 1, 51, 0
1, 222209, Note_on_c, 1, 79, 127
1, 222209, Note_on_c, 1, 55, 127
1, 222390, Note_off_c, 1, 79, 0
1, 222390, Note_off_c, 1, 55, 0
1, 222393, Note_on_c, 1, 78, 127
1, 222393, Note_on_c, 1, 60, 127
1, 222574, Note_off_c, 1, 78, 0
1, 222578, Note_on_c, 1, 79, 127
1, 222759, Note_off_c, 1, 60, 0
1, 222759, Note_off_c, 1, 79, 0
1, 222763, Note_on_c, 1, 81, 127
1, 222763, Note_on_c, 1, 48, 127
1, 222763, Note_on_c, 1, 50, 127
1, 222944, Note_off_c, 1, 81, 0
1, 222947, Note_on_c, 1, 75, 127
1, 223128, Note_off_c, 1, 75, 0
1, 223129, Note_off_c, 1, 48, 0
1, 223129, Note_off_c, 1, 50, 0
1, 223132, Note_on_c, 1, 74, 127
1, 223132, Note_on_c, 1, 52, 127
1, 223132, Note_on_c, 1, 46, 127
1, 223313, Note_off_c, 1, 74, 0
1, 223317, Note_on_c, 1, 72, 127
1, 223498, Note_off_c, 1, 52, 0
1, 223498, Note_off_c, 1, 46, 0
1, 223498, Note_off_c, 1, 72, 0
1, 223501, Note_on_c, 1, 70, 127
1, 223501, Note_on_c, 1, 54, 127
1, 223501, Note_on_c, 1, 45, 127
1, 223682, Note_off_c, 1, 70, 0
1, 223686, Note_on_c, 1, 69, 127
1, 223867, Note_off_c, 1, 54, 0
1, 223867, Note_off_c, 1, 45, 0
1, 223867, Note_off_c, 1, 69, 0
1, 223871, Note_on_c, 1, 70, 127
1, 223871, Note_on_c, 1, 43, 127
1, 224057, Note_on_c, 1, 55, 127
1, 224238, Note_off_c, 1, 55, 0
1, 224242, Note_on_c, 1, 58, 127
1, 224423, Note_off_c, 1, 58, 0
1, 224426, Note_on_c, 1, 62, 127
1, 224607, Note_off_c, 1, 62, 0
1, 224611, Note_on_c, 1, 67, 127
1, 224792, Note_off_c, 1, 67, 0
1, 224796, Note_on_c, 1, 65, 127
1, 224977, Note_off_c, 1, 65, 0
1, 224981, Note_on_c, 1, 63, 127
1, 225162, Note_off_c, 1, 63, 0
1, 225346, Note_off_c, 1, 70, 0
1, 225350, Note_on_c, 1, 61, 127
1, 225350, Note_on_c, 1, 69, 127
1, 225371, Note_off_c, 1, 43, 0
1, 225531, Note_off_c, 1, 61, 0
1, 225719, Note_on_c, 1, 64, 127
1, 225900, Note_off_c, 1, 64, 0
1, 226089, Note_on_c, 1, 57, 127
1, 226270, Note_off_c, 1, 57, 0
1, 226458, Note_on_c, 1, 53, 127
1, 226639, Note_off_c, 1, 53, 0
1, 226643, Note_on_c, 1, 52, 127
1, 226824, Note_off_c, 1, 52, 0
1, 226827, Note_on_c, 1, 50, 127
1, 226827, Note_on_c, 1, 41, 127
1, 227008, Note_off_c, 1, 69, 0
1, 227566, Note_on_c, 1, 74, 127
1, 227747, Note_off_c, 1, 74, 0
1, 227750, Note_off_c, 1, 50, 0
1, 227750, Note_off_c, 1, 41, 0
1, 227751, Note_on_c, 1, 77, 127
1, 227932, Note_off_c, 1, 77, 0
1, 227935, Note_on_c, 1, 76, 127
1, 227935, Note_on_c, 1, 53, 127
1, 227935, Note_on_c, 1, 57, 127
1, 228116, Note_off_c, 1, 76, 0
1, 228120, Note_on_c, 1, 74, 127
1, 228301, Note_off_c, 1, 53, 0
1, 228301, Note_off_c, 1, 57, 0
1, 228301, Note_off_c, 1, 74, 0
1, 228305, Note_on_c, 1, 73, 127
1, 228305, Note_on_c, 1, 52, 127
1, 228305, Note_on_c, 1, 55, 127
1, 228486, Note_off_c, 1, 73, 0
1, 228489, Note_on_c, 1, 74, 127
1, 228670, Note_off_c, 1, 74, 0
1, 228671, Note_off_c, 1, 52, 0
1, 228674, Note_on_c, 1, 76, 127
1, 228674, Note_on_c, 1, 50, 127
1, 228855, Note_off_c, 1, 76, 0
1, 228859, Note_on_c, 1, 70, 127
1, 229037, Note_off_c, 1, 55, 0
1, 229040, Note_off_c, 1, 50, 0
1, 229040, Note_off_c, 1, 70, 0
1, 229043, Note_on_c, 1, 69, 127
1, 229043, Note_on_c, 1, 49, 127
1, 229043, Note_on_c, 1, 52, 127
1, 229224, Note_off_c, 1, 69, 0
1, 229228, Note_on_c, 1, 67, 127
1, 229409, Note_off_c, 1, 49, 0
1, 229409, Note_off_c, 1, 67, 0
1, 229413, Note_on_c, 1, 65, 127
1, 229413, Note_on_c, 1, 45, 127
1, 229594, Note_off_c, 1, 65, 0
1, 229598, Note_on_c, 1, 64, 127
1, 229775, Note_off_c, 1, 52, 0
1, 229779, Note_off_c, 1, 45, 0
1, 229779, Note_off_c, 1, 64, 0
1, 229782, Note_on_c, 1, 66, 127
1, 229782, Note_on_c, 1, 50, 127
1, 229963, Note_off_c, 1, 66, 0
1, 229967, Note_on_c, 1, 67, 127
1, 230148, Note_off_c, 1, 50, 0
1, 230148, Note_off_c, 1, 67, 0
1, 230152, Note_on_c, 1, 69, 127
1, 230152, Note_on_c, 1, 48, 127
1, 230333, Note_off_c, 1, 69, 0
1, 230336, Note_on_c, 1, 63, 127
1, 230517, Note_off_c, 1, 63, 0
1, 230518, Note_off_c, 1, 48, 0
1, 230521, Note_on_c, 1, 62, 127
1, 230521, Note_on_c, 1, 46, 127
1, 230702, Note_off_c, 1, 62, 0
1, 230706, Note_on_c, 1, 60, 127
1, 230887, Note_off_c, 1, 46, 0
1, 230887, Note_off_c, 1, 60, 0
1, 230890, Note_on_c, 1, 58, 127
1, 230890, Note_on_c, 1, 45, 127
1, 231071, Note_off_c, 1, 58, 0
1, 231075, Note_on_c, 1, 57, 127
1, 231256, Note_off_c, 1, 45, 0
1, 231256, Note_off_c, 1, 57, 0
1, 231260, Note_on_c, 1, 58, 127
1, 231260, Note_on_c, 1, 43, 127
1, 231441, Note_off_c, 1, 58, 0
1, 231444, Note_on_c, 1, 60, 127
1, 231625, Note_off_c, 1, 60, 0
1, 231626, Note_off_c, 1, 43, 0
1, 231629, Note_on_c, 1, 62, 127
1, 231629, Note_on_c, 1, 41, 127
1, 231810, Note_off_c, 1, 62, 0
1, 231814, Note_on_c, 1, 56, 127
1, 231995, Note_off_c, 1, 41, 0
1, 231995, Note_off_c, 1, 56, 0
1, 231998, Note_on_c, 1, 55, 127
1, 231998, Note_on_c, 1, 39, 127
1, 232179, Note_off_c, 1, 55, 0
1, 232183, Note_on_c, 1, 53, 127
1, 232364, Note_off_c, 1, 39, 0
1, 232364, Note_off_c, 1, 53, 0
1, 232368, Note_on_c, 1, 51, 127
1, 232368, Note_on_c, 1, 38, 127
1, 232549, Note_off_c, 1, 51, 0
1, 232552, Note_on_c, 1, 50, 127
1, 232733, Note_off_c, 1, 50, 0
1, 232734, Note_off_c, 1, 38, 0
1, 232737, Note_on_c, 1, 49, 127
1, 232737, Note_on_c, 1, 40, 127
1, 232918, Note_off_c, 1, 49, 0
1, 232922, Note_on_c, 1, 50, 127
1, 233103, Note_off_c, 1, 50, 0
1, 233106, Note_on_c, 1, 52, 127
1, 233276, Note_off_c, 1, 40, 0
1, 233287, Note_off_c, 1, 52, 0
1, 233291, Note_on_c, 1, 46, 127
1, 233472, Note_off_c, 1, 46, 0
1, 233476, Note_on_c, 1, 45, 127
1, 233657, Note_off_c, 1, 45, 0
1, 233660, Note_on_c, 1, 43, 127
1, 233841, Note_off_c, 1, 43, 0
1, 233845, Note_on_c, 1, 74, 127
1, 233845, Note_on_c, 1, 41, 127
1, 233934, Note_off_c, 1, 74, 0
1, 233938, Note_on_c, 1, 73, 127
1, 234026, Note_off_c, 1, 41, 0
1, 234027, Note_off_c, 1, 73, 0
1, 234030, Note_on_c, 1, 71, 127
1, 234030, Note_on_c, 1, 40, 127
1, 234119, Note_off_c, 1, 71, 0
1, 234122, Note_on_c, 1, 73, 127
1, 234211, Note_off_c, 1, 40, 0
1, 234211, Note_off_c, 1, 73, 0
1, 234215, Note_on_c, 1, 41, 127
1, 234215, Note_on_c, 1, 74, 127
1, 234401, Note_on_c, 1, 76, 127
1, 234582, Note_off_c, 1, 41, 0
1, 234582, Note_off_c, 1, 76, 0
1, 234586, Note_on_c, 1, 77, 127
1, 234586, Note_on_c, 1, 43, 127
1, 234767, Note_off_c, 1, 77, 0
1, 234770, Note_on_c, 1, 82, 127
1, 234948, Note_off_c, 1, 74, 0
1, 234951, Note_off_c, 1, 82, 0
1, 234952, Note_off_c, 1, 43, 0
1, 234955, Note_on_c, 1, 77, 127
1, 234955, Note_on_c, 1, 45, 127
1, 234955, Note_on_c, 1, 73, 127
1, 235115, Note_off_c, 1, 77, 0
1, 235127, Note_on_c, 1, 76, 127
1, 235216, Note_off_c, 1, 76, 0
1, 235321, Note_off_c, 1, 45, 0
1, 235509, Note_on_c, 1, 74, 127
1, 235687, Note_off_c, 1, 73, 0
1, 235690, Note_off_c, 1, 74, 0
1, 235694, Note_on_c, 1, 74, 127
1, 235694, Note_on_c, 1, 38, 127
1, 235875, Note_off_c, 1, 74, 0
1, 235878, Note_on_c, 1, 72, 127
1, 236059, Note_off_c, 1, 72, 0
1, 236063, Note_on_c, 1, 70, 127
1, 236244, Note_off_c, 1, 70, 0
1, 236248, Note_on_c, 1, 69, 127
1, 236426, Note_off_c, 1, 38, 0
1, 236429, Note_off_c, 1, 69, 0
1, 236432, Note_on_c, 1, 67, 127
1, 236619, Note_on_c, 1, 69, 127
1, 236800, Note_off_c, 1, 69, 0
1, 236803, Note_on_c, 1, 70, 127
1, 236990, Note_on_c, 1, 61, 127
1, 237167, Note_off_c, 1, 67, 0
1, 237170, Note_off_c, 1, 70, 0
1, 237171, Note_off_c, 1, 61, 0
1, 237174, Note_on_c, 1, 66, 127
1, 237174, Note_on_c, 1, 62, 127
1, 237267, Note_on_c, 1, 69, 127
1, 237359, Note_on_c, 1, 54, 127
1, 237359, Note_on_c, 1, 74, 127
1, 237540, Note_off_c, 1, 54, 0
1, 237544, Note_on_c, 1, 55, 127
1, 237725, Note_off_c, 1, 55, 0
1, 237728, Note_on_c, 1, 57, 127
1, 237909, Note_off_c, 1, 57, 0
1, 237913, Note_on_c, 1, 50, 127
1, 238282, Note_off_c, 1, 66, 0
1, 238282, Note_off_c, 1, 62, 0
1, 238375, Note_off_c, 1, 69, 0
1, 238465, Note_off_c, 1, 74, 0
1, 238650, Note_off_c, 1, 50, 0
1, 238653, Note_on_c, 1, 69, 127
1, 238653, Note_on_c, 1, 50, 127
1, 238834, Note_off_c, 1, 69, 0
1, 238838, Note_on_c, 1, 81, 127
1, 239019, Note_off_c, 1, 81, 0
1, 239023, Note_on_c, 1, 78, 127
1, 239204, Note_off_c, 1, 78, 0
1, 239207, Note_on_c, 1, 74, 127
1, 239388, Note_off_c, 1, 74, 0
1, 239573, Note_off_c, 1, 50, 0
1, 239577, Note_on_c, 1, 66, 127
1, 239577, Note_on_c, 1, 57, 127
1, 239758, Note_off_c, 1, 66, 0
1, 239758, Note_off_c, 1, 57, 0
1, 239761, Note_on_c, 1, 67, 127
1, 239761, Note_on_c, 1, 58, 127
1, 239942, Note_off_c, 1, 67, 0
1, 239942, Note_off_c, 1, 58, 0
1, 239946, Note_on_c, 1, 69, 127
1, 239946, Note_on_c, 1, 60, 127
1, 240127, Note_off_c, 1, 69, 0
1, 240127, Note_off_c, 1, 60, 0
1, 240131, Note_on_c, 1, 71, 127
1, 240131, Note_on_c, 1, 53, 127
1, 240312, Note_off_c, 1, 71, 0
1, 240315, Note_on_c, 1, 69, 127
1, 240496, Note_off_c, 1, 69, 0
1, 240497, Note_off_c, 1, 53, 0
1, 240500, Note_on_c, 1, 67, 127
1, 240500, Note_on_c, 1, 51, 127
1, 240500, Note_on_c, 1, 60, 127
1, 240681, Note_off_c, 1, 67, 0
1, 240685, Note_on_c, 1, 72, 127
1, 240866, Note_off_c, 1, 51, 0
1, 240866, Note_off_c, 1, 72, 0
1, 240869, Note_on_c, 1, 74, 127
1, 240869, Note_on_c, 1, 53, 127
1, 241050, Note_off_c, 1, 74, 0
1, 241054, Note_on_c, 1, 75, 127
1, 241232, Note_off_c, 1, 60, 0
1, 241235, Note_off_c, 1, 53, 0
1, 241235, Note_off_c, 1, 75, 0
1, 241239, Note_on_c, 1, 77, 127
1, 241239, Note_on_c, 1, 59, 127
1, 241239, Note_on_c, 1, 55, 127
1, 241420, Note_off_c, 1, 77, 0
1, 241424, Note_on_c, 1, 79, 127
1, 241605, Note_off_c, 1, 59, 0
1, 241605, Note_off_c, 1, 55, 0
1, 241605, Note_off_c, 1, 79, 0
1, 241608, Note_on_c, 1, 77, 127
1, 241608, Note_on_c, 1, 48, 127
1, 241676, Note_on_c, 1, 75, 127
1, 241683, Note_off_c, 1, 77, 0
1, 241751, Note_off_c, 1, 75, 0
1, 241793, Note_on_c, 1, 60, 127
1, 241974, Note_off_c, 1, 48, 0
1, 241974, Note_off_c, 1, 60, 0
1, 241978, Note_on_c, 1, 74, 127
1, 241978, Note_on_c, 1, 55, 127
1, 242159, Note_off_c, 1, 74, 0
1, 242159, Note_off_c, 1, 55, 0
1, 242162, Note_on_c, 1, 72, 127
1, 242162, Note_on_c, 1, 51, 127
1, 242343, Note_off_c, 1, 72, 0
1, 242343, Note_off_c, 1, 51, 0
1, 242347, Note_on_c, 1, 79, 127
1, 242347, Note_on_c, 1, 48, 127
1, 242436, Note_off_c, 1, 79, 0
1, 242439, Note_on_c, 1, 77, 127
1, 242528, Note_off_c, 1, 48, 0
1, 242528, Note_off_c, 1, 77, 0
1, 242532, Note_on_c, 1, 47, 127
1, 242532, Note_on_c, 1, 79, 127
1, 242713, Note_off_c, 1, 47, 0
1, 242716, Note_on_c, 1, 48, 127
1, 242897, Note_off_c, 1, 48, 0
1, 242898, Note_off_c, 1, 79, 0
1, 242901, Note_on_c, 1, 79, 127
1, 242901, Note_on_c, 1, 50, 127
1, 243082, Note_off_c, 1, 79, 0
1, 243082, Note_off_c, 1, 50, 0
1, 243086, Note_on_c, 1, 79, 127
1, 243086, Note_on_c, 1, 52, 127
1, 243267, Note_off_c, 1, 79, 0
1, 243267, Note_off_c, 1, 52, 0
1, 243270, Note_on_c, 1, 70, 127
1, 243270, Note_on_c, 1, 50, 127
1, 243451, Note_off_c, 1, 70, 0
1, 243451, Note_off_c, 1, 50, 0
1, 243455, Note_on_c, 1, 69, 127
1, 243455, Note_on_c, 1, 48, 127
1, 243636, Note_off_c, 1, 69, 0
1, 243636, Note_off_c, 1, 48, 0
1, 243640, Note_on_c, 1, 72, 127
1, 243640, Note_on_c, 1, 53, 127
1, 243821, Note_off_c, 1, 72, 0
1, 243821, Note_off_c, 1, 53, 0
1, 243824, Note_on_c, 1, 70, 127
1, 243824, Note_on_c, 1, 55, 127
1, 244005, Note_off_c, 1, 70, 0
1, 244005, Note_off_c, 1, 55, 0
1, 244009, Note_on_c, 1, 69, 127
1, 244009, Note_on_c, 1, 57, 127
1, 244190, Note_off_c, 1, 69, 0
1, 244190, Note_off_c, 1, 57, 0
1, 244194, Note_on_c, 1, 67, 127
1, 244194, Note_on_c, 1, 58, 127
1, 244375, Note_off_c, 1, 67, 0
1, 244375, Note_off_c, 1, 58, 0
1, 244378, Note_on_c, 1, 76, 127
1, 244378, Note_on_c, 1, 60, 127
1, 244559, Note_off_c, 1, 76, 0
1, 244559, Note_off_c, 1, 60, 0
1, 244563, Note_on_c, 1, 76, 127
1, 244563, Note_on_c, 1, 57, 127
1, 244738, Note_on_c, 1, 77, 127
1, 244744, Note_off_c, 1, 76, 0
1, 244744, Note_off_c, 1, 57, 0
1, 244748, Note_on_c, 1, 55, 127
1, 244827, Note_off_c, 1, 77, 0
1, 244929, Note_off_c, 1, 55, 0
1, 244932, Note_on_c, 1, 53, 127
1, 245117, Note_on_c, 1, 75, 127
1, 245298, Note_off_c, 1, 53, 0
1, 245298, Note_off_c, 1, 75, 0
1, 245302, Note_on_c, 1, 74, 127
1, 245302, Note_on_c, 1, 58, 127
1, 245483, Note_off_c, 1, 74, 0
1, 245486, Note_on_c, 1, 72, 127
1, 245667, Note_off_c, 1, 72, 0
1, 245668, Note_off_c, 1, 58, 0
1, 245671, Note_on_c, 1, 70, 127
1, 245671, Note_on_c, 1, 50, 127
1, 245852, Note_off_c, 1, 70, 0
1, 245856, Note_on_c, 1, 69, 127
1, 246037, Note_off_c, 1, 50, 0
1, 246037, Note_off_c, 1, 69, 0
1, 246041, Note_on_c, 1, 67, 127
1, 246041, Note_on_c, 1, 51, 127
1, 246222, Note_off_c, 1, 67, 0
1, 246225, Note_on_c, 1, 65, 127
1, 246406, Note_off_c, 1, 65, 0
1, 246407, Note_off_c, 1, 51, 0
1, 246410, Note_on_c, 1, 67, 127
1, 246410, Note_on_c, 1, 39, 127
1, 246591, Note_off_c, 1, 67, 0
1, 246595, Note_on_c, 1, 70, 127
1, 246776, Note_off_c, 1, 39, 0
1, 246776, Note_off_c, 1, 70, 0
1, 246779, Note_on_c, 1, 72, 127
1, 246779, Note_on_c, 1, 51, 127
1, 246960, Note_off_c, 1, 72, 0
1, 246964, Note_on_c, 1, 74, 127
1, 247145, Note_off_c, 1, 51, 0
1, 247145, Note_off_c, 1, 74, 0
1, 247149, Note_on_c, 1, 75, 127
1, 247149, Note_on_c, 1, 48, 127
1, 247330, Note_off_c, 1, 75, 0
1, 247333, Note_on_c, 1, 72, 127
1, 247514, Note_off_c, 1, 72, 0
1, 247515, Note_off_c, 1, 48, 0
1, 247518, Note_on_c, 1, 70, 127
1, 247518, Note_on_c, 1, 53, 127
1, 247699, Note_off_c, 1, 70, 0
1, 247699, Note_off_c, 1, 53, 0
1, 247703, Note_on_c, 1, 69, 127
1, 247703, Note_on_c, 1, 41, 127
1, 247884, Note_off_c, 1, 69, 0
1, 247884, Note_off_c, 1, 41, 0
1, 247887, Note_on_c, 1, 67, 127
1, 247887, Note_on_c, 1, 45, 127
1, 248068, Note_off_c, 1, 67, 0
1, 248068, Note_off_c, 1, 45, 0
1, 248072, Note_on_c, 1, 65, 127
1, 248072, Note_on_c, 1, 48, 127
1, 248253, Note_off_c, 1, 65, 0
1, 248253, Note_off_c, 1, 48, 0
1, 248257, Note_on_c, 1, 51, 127
1, 248257, Note_on_c, 1, 77, 127
1, 248438, Note_off_c, 1, 51, 0
1, 248441, Note_on_c, 1, 55, 127
1, 248622, Note_off_c, 1, 55, 0
1, 248626, Note_on_c, 1, 53, 127
1, 248807, Note_off_c, 1, 77, 0
1, 248807, Note_off_c, 1, 53, 0
1, 248811, Note_on_c, 1, 69, 127
1, 248811, Note_on_c, 1, 51, 127
1, 248992, Note_off_c, 1, 69, 0
1, 248992, Note_off_c, 1, 51, 0
1, 248995, Note_on_c, 1, 70, 127
1, 248995, Note_on_c, 1, 50, 127
1, 249176, Note_off_c, 1, 70, 0
1, 249176, Note_off_c, 1, 50, 0
1, 249180, Note_on_c, 1, 75, 127
1, 249180, Note_on_c, 1, 48, 127
1, 249361, Note_off_c, 1, 75, 0
1, 249361, Note_off_c, 1, 48, 0
1, 249365, Note_on_c, 1, 74, 127
1, 249365, Note_on_c, 1, 46, 127
1, 249546, Note_off_c, 1, 74, 0
1, 249546, Note_off_c, 1, 46, 0
1, 249549, Note_on_c, 1, 72, 127
1, 249549, Note_on_c, 1, 51, 127
1, 249730, Note_off_c, 1, 72, 0
1, 249730, Note_off_c, 1, 51, 0
1, 249734, Note_on_c, 1, 74, 127
1, 249734, Note_on_c, 1, 53, 127
1, 249734, Note_on_c, 1, 69, 127
1, 249905, Note_off_c, 1, 74, 0
1, 249906, Note_on_c, 1, 72, 127
1, 249981, Note_off_c, 1, 72, 0
1, 250100, Note_off_c, 1, 53, 0
1, 250103, Note_on_c, 1, 41, 127
1, 250288, Note_on_c, 1, 70, 127
1, 250466, Note_off_c, 1, 69, 0
1, 250469, Note_off_c, 1, 41, 0
1, 250469, Note_off_c, 1, 70, 0
1, 250473, Note_on_c, 1, 46, 127
1, 250473, Note_on_c, 1, 70, 127
1, 250654, Note_off_c, 1, 46, 0
1, 250658, Note_on_c, 1, 58, 127
1, 250839, Note_off_c, 1, 58, 0
1, 250842, Note_on_c, 1, 53, 127
1, 251023, Note_off_c, 1, 53, 0
1, 251027, Note_on_c, 1, 50, 127
1, 251208, Note_off_c, 1, 50, 0
1, 251393, Note_off_c, 1, 70, 0
1, 251396, Note_on_c, 1, 74, 127
1, 251396, Note_on_c, 1, 43, 127
1, 251577, Note_off_c, 1, 74, 0
1, 251577, Note_off_c, 1, 43, 0
1, 251581, Note_on_c, 1, 72, 127
1, 251581, Note_on_c, 1, 45, 127
1, 251762, Note_off_c, 1, 72, 0
1, 251762, Note_off_c, 1, 45, 0
1, 251766, Note_on_c, 1, 74, 127
1, 251766, Note_on_c, 1, 46, 127
1, 251947, Note_off_c, 1, 74, 0
1, 251947, Note_off_c, 1, 46, 0
1, 251950, Note_on_c, 1, 63, 127
1, 251950, Note_on_c, 1, 48, 127
1, 252131, Note_off_c, 1, 63, 0
1, 252131, Note_off_c, 1, 48, 0
1, 252135, Note_on_c, 1, 62, 127
1, 252135, Note_on_c, 1, 46, 127
1, 252316, Note_off_c, 1, 62, 0
1, 252316, Note_off_c, 1, 46, 0
1, 252320, Note_on_c, 1, 45, 127
1, 252320, Note_on_c, 1, 60, 127
1, 252501, Note_off_c, 1, 45, 0
1, 252504, Note_on_c, 1, 50, 127
1, 252685, Note_off_c, 1, 50, 0
1, 252689, Note_on_c, 1, 52, 127
1, 252820, Note_off_c, 1, 60, 0
1, 252870, Note_off_c, 1, 52, 0
1, 252874, Note_on_c, 1, 69, 127
1, 252874, Note_on_c, 1, 54, 127
1, 253055, Note_off_c, 1, 69, 0
1, 253055, Note_off_c, 1, 54, 0
1, 253058, Note_on_c, 1, 70, 127
1, 253058, Note_on_c, 1, 55, 127
1, 253239, Note_off_c, 1, 70, 0
1, 253239, Note_off_c, 1, 55, 0
1, 253243, Note_on_c, 1, 72, 127
1, 253243, Note_on_c, 1, 57, 127
1, 253424, Note_off_c, 1, 72, 0
1, 253424, Note_off_c, 1, 57, 0
1, 253428, Note_on_c, 1, 66, 127
1, 253428, Note_on_c, 1, 50, 127
1, 253609, Note_off_c, 1, 66, 0
1, 253612, Note_on_c, 1, 74, 127
1, 253793, Note_off_c, 1, 74, 0
1, 253797, Note_on_c, 1, 69, 127
1, 253978, Note_off_c, 1, 69, 0
1, 254166, Note_on_c, 1, 62, 127
1, 254347, Note_off_c, 1, 62, 0
1, 254348, Note_off_c, 1, 50, 0
1, 254351, Note_on_c, 1, 61, 127
1, 254351, Note_on_c, 1, 55, 127
1, 254532, Note_off_c, 1, 61, 0
1, 254532, Note_off_c, 1, 55, 0
1, 254536, Note_on_c, 1, 62, 127
1, 254536, Note_on_c, 1, 54, 127
1, 254717, Note_off_c, 1, 62, 0
1, 254717, Note_off_c, 1, 54, 0
1, 254720, Note_on_c, 1, 64, 127
1, 254720, Note_on_c, 1, 55, 127
1, 254901, Note_off_c, 1, 64, 0
1, 254901, Note_off_c, 1, 55, 0
1, 254905, Note_on_c, 1, 66, 127
1, 254905, Note_on_c, 1, 48, 127
1, 255086, Note_off_c, 1, 66, 0
1, 255090, Note_on_c, 1, 64, 127
1, 255271, Note_off_c, 1, 48, 0
1, 255271, Note_off_c, 1, 64, 0
1, 255275, Note_on_c, 1, 62, 127
1, 255275, Note_on_c, 1, 46, 127
1, 255275, Note_on_c, 1, 55, 127
1, 255456, Note_off_c, 1, 62, 0
1, 255459, Note_on_c, 1, 67, 127
1, 255640, Note_off_c, 1, 67, 0
1, 255641, Note_off_c, 1, 46, 0
1, 255644, Note_on_c, 1, 69, 127
1, 255644, Note_on_c, 1, 48, 127
1, 255825, Note_off_c, 1, 69, 0
1, 255829, Note_on_c, 1, 70, 127
1, 256007, Note_off_c, 1, 55, 0
1, 256010, Note_off_c, 1, 48, 0
1, 256010, Note_off_c, 1, 70, 0
1, 256013, Note_on_c, 1, 72, 127
1, 256013, Note_on_c, 1, 50, 127
1, 256013, Note_on_c, 1, 54, 127
1, 256194, Note_off_c, 1, 72, 0
1, 256198, Note_on_c, 1, 74, 127
1, 256379, Note_off_c, 1, 50, 0
1, 256379, Note_off_c, 1, 54, 0
1, 256379, Note_off_c, 1, 74, 0
1, 256383, Note_on_c, 1, 70, 127
1, 256383, Note_on_c, 1, 55, 127
1, 256564, Note_off_c, 1, 70, 0
1, 256567, Note_on_c, 1, 69, 127
1, 256567, Note_on_c, 1, 43, 127
1, 256748, Note_off_c, 1, 69, 0
1, 256748, Note_off_c, 1, 43, 0
1, 256749, Note_off_c, 1, 55, 0
1, 256752, Note_on_c, 1, 67, 127
1, 256752, Note_on_c, 1, 46, 127
1, 256933, Note_off_c, 1, 67, 0
1, 256933, Note_off_c, 1, 46, 0
1, 256937, Note_on_c, 1, 69, 127
1, 256937, Note_on_c, 1, 50, 127
1, 257118, Note_off_c, 1, 69, 0
1, 257118, Note_off_c, 1, 50, 0
1, 257121, Note_on_c, 1, 70, 127
1, 257121, Note_on_c, 1, 55, 127
1, 257302, Note_off_c, 1, 70, 0
1, 257302, Note_off_c, 1, 55, 0
1, 257306, Note_on_c, 1, 72, 127
1, 257306, Note_on_c, 1, 55, 127
1, 257487, Note_off_c, 1, 72, 0
1, 257487, Note_off_c, 1, 55, 0
1, 257491, Note_on_c, 1, 74, 127
1, 257491, Note_on_c, 1, 53, 127
1, 257672, Note_off_c, 1, 74, 0
1, 257672, Note_off_c, 1, 53, 0
1, 257675, Note_on_c, 1, 75, 127
1, 257675, Note_on_c, 1, 51, 127
1, 257856, Note_off_c, 1, 75, 0
1, 257856, Note_off_c, 1, 51, 0
1, 257860, Note_on_c, 1, 50, 127
1, 257860, Note_on_c, 1, 77, 127
1, 258041, Note_off_c, 1, 50, 0
1, 258045, Note_on_c, 1, 51, 127
1, 258226, Note_off_c, 1, 77, 0
1, 258226, Note_off_c, 1, 51, 0
1, 258229, Note_on_c, 1, 53, 127
1, 258229, Note_on_c, 1, 70, 127
1, 258410, Note_off_c, 1, 53, 0
1, 258414, Note_on_c, 1, 48, 127
1, 258595, Note_off_c, 1, 70, 0
1, 258595, Note_off_c, 1, 48, 0
1, 258599, Note_on_c, 1, 80, 127
1, 258599, Note_on_c, 1, 46, 127
1, 258688, Note_off_c, 1, 80, 0
1, 258691, Note_on_c, 1, 79, 127
1, 258780, Note_off_c, 1, 46, 0
1, 258780, Note_off_c, 1, 79, 0
1, 258783, Note_on_c, 1, 44, 127
1, 258783, Note_on_c, 1, 80, 127
1, 258964, Note_off_c, 1, 44, 0
1, 258968, Note_on_c, 1, 43, 127
1, 259149, Note_off_c, 1, 80, 0
1, 259149, Note_off_c, 1, 43, 0
1, 259153, Note_on_c, 1, 82, 127
1, 259153, Note_on_c, 1, 41, 127
1, 259334, Note_off_c, 1, 82, 0
1, 259334, Note_off_c, 1, 41, 0
1, 259337, Note_on_c, 1, 39, 127
1, 259337, Note_on_c, 1, 79, 127
1, 259524, Note_on_c, 1, 77, 127
1, 259705, Note_off_c, 1, 77, 0
1, 259708, Note_on_c, 1, 75, 127
1, 259889, Note_off_c, 1, 75, 0
1, 259893, Note_on_c, 1, 74, 127
1, 260074, Note_off_c, 1, 39, 0
1, 260074, Note_off_c, 1, 74, 0
1, 260078, Note_on_c, 1, 72, 127
1, 260078, Note_on_c, 1, 51, 127
1, 260259, Note_off_c, 1, 72, 0
1, 260632, Note_on_c, 1, 70, 127
1, 260813, Note_off_c, 1, 70, 0
1, 260814, Note_off_c, 1, 79, 0
1, 260817, Note_on_c, 1, 69, 127
1, 260998, Note_off_c, 1, 51, 0
1, 261001, Note_on_c, 1, 67, 127
1, 261182, Note_off_c, 1, 67, 0
1, 261186, Note_on_c, 1, 65, 127
1, 261367, Note_off_c, 1, 65, 0
1, 261371, Note_on_c, 1, 63, 127
1, 261552, Note_off_c, 1, 69, 0
1, 261552, Note_off_c, 1, 63, 0
1, 261555, Note_on_c, 1, 62, 127
1, 261555, Note_on_c, 1, 68, 127
1, 261736, Note_off_c, 1, 62, 0
1, 262109, Note_on_c, 1, 56, 127
1, 262290, Note_off_c, 1, 56, 0
1, 262294, Note_on_c, 1, 71, 127
1, 262294, Note_on_c, 1, 55, 127
1, 262475, Note_off_c, 1, 71, 0
1, 262475, Note_off_c, 1, 55, 0
1, 262478, Note_off_c, 1, 68, 0
1, 262479, Note_on_c, 1, 69, 127
1, 262479, Note_on_c, 1, 53, 127
1, 262660, Note_off_c, 1, 69, 0
1, 262660, Note_off_c, 1, 53, 0
1, 262663, Note_on_c, 1, 51, 127
1, 262663, Note_on_c, 1, 67, 127
1, 262844, Note_off_c, 1, 51, 0
1, 262848, Note_on_c, 1, 50, 127
1, 263029, Note_off_c, 1, 50, 0
1, 263033, Note_on_c, 1, 75, 127
1, 263033, Note_on_c, 1, 48, 127
1, 263122, Note_off_c, 1, 75, 0
1, 263125, Note_on_c, 1, 74, 127
1, 263214, Note_off_c, 1, 48, 0
1, 263214, Note_off_c, 1, 74, 0
1, 263587, Note_on_c, 1, 43, 127
1, 263768, Note_off_c, 1, 43, 0
1, 263769, Note_off_c, 1, 67, 0
1, 263771, Note_on_c, 1, 75, 127
1, 263771, Note_on_c, 1, 69, 127
1, 263771, Note_on_c, 1, 42, 127
1, 263952, Note_off_c, 1, 75, 0
1, 263956, Note_on_c, 1, 74, 127
1, 264137, Note_off_c, 1, 69, 0
1, 264137, Note_off_c, 1, 42, 0
1, 264137, Note_off_c, 1, 74, 0
1, 264141, Note_on_c, 1, 72, 127
1, 264141, Note_on_c, 1, 43, 127
1, 264322, Note_off_c, 1, 72, 0
1, 264325, Note_on_c, 1, 70, 127
1, 264506, Note_off_c, 1, 70, 0
1, 264507, Note_off_c, 1, 43, 0
1, 264510, Note_on_c, 1, 69, 127
1, 264510, Note_on_c, 1, 48, 127
1, 264691, Note_off_c, 1, 69, 0
1, 264695, Note_on_c, 1, 70, 127
1, 264876, Note_off_c, 1, 48, 0
1, 264876, Note_off_c, 1, 70, 0
1, 264880, Note_on_c, 1, 72, 127
1, 264880, Note_on_c, 1, 45, 127
1, 265061, Note_off_c, 1, 72, 0
1, 265064, Note_on_c, 1, 67, 127
1, 265245, Note_off_c, 1, 67, 0
1, 265246, Note_off_c, 1, 45, 0
1, 265249, Note_on_c, 1, 66, 127
1, 265249, Note_on_c, 1, 50, 127
1, 265430, Note_off_c, 1, 66, 0
1, 265434, Note_on_c, 1, 67, 127
1, 265615, Note_off_c, 1, 67, 0
1, 265618, Note_on_c, 1, 69, 127
1, 265799, Note_off_c, 1, 50, 0
1, 265803, Note_on_c, 1, 63, 127
1, 265984, Note_off_c, 1, 69, 0
1, 265984, Note_off_c, 1, 63, 0
1, 265988, Note_on_c, 1, 69, 127
1, 265988, Note_on_c, 1, 62, 127
1, 266077, Note_off_c, 1, 69, 0
1, 266080, Note_on_c, 1, 67, 127
1, 266169, Note_off_c, 1, 62, 0
1, 266169, Note_off_c, 1, 67, 0
1, 266172, Note_on_c, 1, 60, 127
1, 266172, Note_on_c, 1, 69, 127
1, 266353, Note_off_c, 1, 60, 0
1, 266357, Note_on_c, 1, 58, 127
1, 266538, Note_off_c, 1, 69, 0
1, 266538, Note_off_c, 1, 58, 0
1, 266542, Note_on_c, 1, 69, 127
1, 266542, Note_on_c, 1, 57, 127
1, 266723, Note_off_c, 1, 69, 0
1, 266723, Note_off_c, 1, 57, 0
1, 266726, Note_on_c, 1, 69, 127
1, 266726, Note_on_c, 1, 58, 127
1, 266907, Note_off_c, 1, 69, 0
1, 266907, Note_off_c, 1, 58, 0
1, 266911, Note_on_c, 1, 67, 127
1, 266911, Note_on_c, 1, 60, 127
1, 267092, Note_off_c, 1, 67, 0
1, 267092, Note_off_c, 1, 60, 0
1, 267096, Note_on_c, 1, 66, 127
1, 267096, Note_on_c, 1, 62, 127
1, 267277, Note_off_c, 1, 66, 0
1, 267277, Note_off_c, 1, 62, 0
1, 267280, Note_on_c, 1, 67, 127
1, 267280, Note_on_c, 1, 58, 127
1, 267461, Note_off_c, 1, 67, 0
1, 267461, Note_off_c, 1, 58, 0
1, 267465, Note_on_c, 1, 57, 127
1, 267465, Note_on_c, 1, 72, 127
1, 267646, Note_off_c, 1, 57, 0
1, 267650, Note_on_c, 1, 70, 127
1, 267650, Note_on_c, 1, 55, 127
1, 267831, Note_off_c, 1, 70, 0
1, 267831, Note_off_c, 1, 55, 0
1, 267834, Note_on_c, 1, 69, 127
1, 267834, Note_on_c, 1, 54, 127
1, 268004, Note_off_c, 1, 72, 0
1, 268015, Note_off_c, 1, 69, 0
1, 268015, Note_off_c, 1, 54, 0
1, 268019, Note_on_c, 1, 67, 127
1, 268019, Note_on_c, 1, 72, 127
1, 268019, Note_on_c, 1, 52, 127
1, 268200, Note_off_c, 1, 67, 0
1, 268200, Note_off_c, 1, 72, 0
1, 268200, Note_off_c, 1, 52, 0
1, 268204, Note_on_c, 1, 54, 127
1, 268204, Note_on_c, 1, 69, 127
1, 268204, Note_on_c, 1, 72, 127
1, 268385, Note_off_c, 1, 54, 0
1, 268388, Note_on_c, 1, 55, 127
1, 268569, Note_off_c, 1, 55, 0
1, 268573, Note_on_c, 1, 57, 127
1, 268754, Note_off_c, 1, 57, 0
1, 268758, Note_on_c, 1, 51, 127
1, 268939, Note_off_c, 1, 51, 0
1, 268942, Note_on_c, 1, 50, 127
1, 269123, Note_off_c, 1, 50, 0
1, 269127, Note_on_c, 1, 48, 127
1, 269308, Note_off_c, 1, 69, 0
1, 269308, Note_off_c, 1, 72, 0
1, 269308, Note_off_c, 1, 48, 0
1, 269312, Note_on_c, 1, 67, 127
1, 269312, Note_on_c, 1, 46, 127
1, 269401, Note_off_c, 1, 67, 0
1, 269404, Note_on_c, 1, 66, 127
1, 269493, Note_off_c, 1, 46, 0
1, 269493, Note_off_c, 1, 66, 0
1, 269497, Note_on_c, 1, 64, 127
1, 269497, Note_on_c, 1, 45, 127
1, 269586, Note_off_c, 1, 64, 0
1, 269589, Note_on_c, 1, 66, 127
1, 269678, Note_off_c, 1, 45, 0
1, 269678, Note_off_c, 1, 66, 0
1, 269681, Note_on_c, 1, 46, 127
1, 269681, Note_on_c, 1, 67, 127
1, 269869, Note_on_c, 1, 69, 127
1, 270053, Note_off_c, 1, 46, 0
1, 270053, Note_off_c, 1, 69, 0
1, 270057, Note_on_c, 1, 70, 127
1, 270057, Note_on_c, 1, 48, 127
1, 270241, Note_off_c, 1, 70, 0
1, 270245, Note_on_c, 1, 75, 127
1, 270426, Note_off_c, 1, 67, 0
1, 270429, Note_off_c, 1, 48, 0
1, 270429, Note_off_c, 1, 75, 0
1, 270433, Note_on_c, 1, 70, 127
1, 270433, Note_on_c, 1, 50, 127
1, 270433, Note_on_c, 1, 66, 127
1, 270523, Note_off_c, 1, 70, 0
1, 270527, Note_on_c, 1, 69, 127
1, 270617, Note_off_c, 1, 69, 0
1, 270805, Note_off_c, 1, 50, 0
1, 270809, Note_on_c, 1, 38, 127
1, 270982, Note_off_c, 1, 66, 0
1, 270997, Note_on_c, 1, 67, 127
1, 271181, Note_off_c, 1, 38, 0
1, 271181, Note_off_c, 1, 67, 0
1, 271185, Note_on_c, 1, 43, 127
1, 271185, Note_on_c, 1, 67, 127
1, 271387, Note_on_c, 1, 65, 127
1, 271584, Note_off_c, 1, 65, 0
1, 271590, Note_on_c, 1, 63, 127
1, 271787, Note_off_c, 1, 63, 0
1, 271792, Note_on_c, 1, 62, 127
1, 271989, Note_off_c, 1, 62, 0
1, 271995, Note_on_c, 1, 60, 127
1, 272192, Note_off_c, 1, 60, 0
1, 272197, Note_off_c, 1, 43, 0
1, 272602, Note_on_c, 1, 54, 127
1, 272799, Note_off_c, 1, 54, 0
1, 272805, Note_on_c, 1, 58, 127
1, 272805, Note_on_c, 1, 55, 127
1, 273001, Note_off_c, 1, 67, 0
1, 273035, Note_on_c, 1, 46, 127
1, 273260, Note_off_c, 1, 46, 0
1, 273265, Note_on_c, 1, 48, 127
1, 273490, Note_off_c, 1, 48, 0
1, 273495, Note_on_c, 1, 50, 127
1, 273769, Note_off_c, 1, 50, 0
1, 276477, Note_off_c, 1, 58, 0
1, 276477, Note_off_c, 1, 55, 0
1, 278098, Note_on_c, 1, 62, 127
1, 278284, Note_off_c, 1, 62, 0
1, 278286, Note_on_c, 1, 55, 127
1, 278286, Note_on_c, 1, 62, 127
1, 278474, Note_on_c, 1, 60, 127
1, 278660, Note_off_c, 1, 60, 0
1, 278662, Note_on_c, 1, 58, 127
1, 278848, Note_off_c, 1, 58, 0
1, 278850, Note_on_c, 1, 57, 127
1, 279036, Note_off_c, 1, 57, 0
1, 279223, Note_off_c, 1, 55, 0
1, 279226, Note_on_c, 1, 54, 127
1, 279412, Note_off_c, 1, 54, 0
1, 279596, Note_off_c, 1, 62, 0
1, 279601, Note_on_c, 1, 50, 127
1, 279787, Note_off_c, 1, 50, 0
1, 279791, Note_on_c, 1, 67, 127
1, 279791, Note_on_c, 1, 51, 127
1, 279977, Note_off_c, 1, 67, 0
1, 279977, Note_off_c, 1, 51, 0
1, 279979, Note_on_c, 1, 69, 127
1, 279979, Note_on_c, 1, 48, 127
1, 280165, Note_off_c, 1, 69, 0
1, 280165, Note_off_c, 1, 48, 0
1, 280167, Note_on_c, 1, 66, 127
1, 280167, Note_on_c, 1, 50, 127
1, 280353, Note_off_c, 1, 66, 0
1, 280353, Note_off_c, 1, 50, 0
1, 280355, Note_on_c, 1, 67, 127
1, 280355, Note_on_c, 1, 51, 127
1, 280541, Note_off_c, 1, 67, 0
1, 280541, Note_off_c, 1, 51, 0
1, 280543, Note_on_c, 1, 42, 127
1, 280543, Note_on_c, 1, 69, 127
1, 280731, Note_on_c, 1, 63, 127
1, 280917, Note_off_c, 1, 63, 0
1, 280918, Note_on_c, 1, 62, 127
1, 281104, Note_off_c, 1, 62, 0
1, 281106, Note_on_c, 1, 60, 127
1, 281292, Note_off_c, 1, 60, 0
1, 281294, Note_off_c, 1, 42, 0
1, 281484, Note_on_c, 1, 57, 127
1, 281670, Note_off_c, 1, 57, 0
1, 281672, Note_on_c, 1, 58, 127
1, 281856, Note_off_c, 1, 69, 0
1, 281858, Note_off_c, 1, 58, 0
1, 281860, Note_on_c, 1, 62, 127
1, 281860, Note_on_c, 1, 60, 127
1, 282046, Note_off_c, 1, 62, 0
1, 282046, Note_off_c, 1, 60, 0
1, 282048, Note_on_c, 1, 69, 127
1, 282048, Note_on_c, 1, 54, 127
1, 282234, Note_off_c, 1, 69, 0
1, 282234, Note_off_c, 1, 54, 0
1, 282236, Note_on_c, 1, 70, 127
1, 282236, Note_on_c, 1, 55, 127
1, 282422, Note_off_c, 1, 70, 0
1, 282422, Note_off_c, 1, 55, 0
1, 282423, Note_on_c, 1, 67, 127
1, 282423, Note_on_c, 1, 57, 127
1, 282609, Note_off_c, 1, 67, 0
1, 282609, Note_off_c, 1, 57, 0
1, 282611, Note_on_c, 1, 69, 127
1, 282611, Note_on_c, 1, 50, 127
1, 282797, Note_off_c, 1, 69, 0
1, 282797, Note_off_c, 1, 50, 0
1, 282799, Note_on_c, 1, 55, 127
1, 282799, Note_on_c, 1, 70, 127
1, 282987, Note_on_c, 1, 69, 127
1, 283173, Note_off_c, 1, 55, 0
1, 283173, Note_off_c, 1, 69, 0
1, 283175, Note_on_c, 1, 67, 127
1, 283175, Note_on_c, 1, 50, 127
1, 283361, Note_off_c, 1, 67, 0
1, 283363, Note_on_c, 1, 66, 127
1, 283549, Note_off_c, 1, 50, 0
1, 283549, Note_off_c, 1, 66, 0
1, 283551, Note_on_c, 1, 51, 127
1, 283739, Note_on_c, 1, 62, 127
1, 283925, Note_off_c, 1, 51, 0
1, 283925, Note_off_c, 1, 62, 0
1, 283927, Note_on_c, 1, 63, 127
1, 284111, Note_off_c, 1, 70, 0
1, 284113, Note_off_c, 1, 63, 0
1, 284303, Note_on_c, 1, 69, 127
1, 284303, Note_on_c, 1, 48, 127
1, 284489, Note_off_c, 1, 69, 0
1, 284491, Note_on_c, 1, 72, 127
1, 284677, Note_off_c, 1, 48, 0
1, 284677, Note_off_c, 1, 72, 0
1, 284678, Note_on_c, 1, 66, 127
1, 284678, Note_on_c, 1, 51, 127
1, 284864, Note_off_c, 1, 66, 0
1, 284866, Note_on_c, 1, 67, 127
1, 285052, Note_off_c, 1, 51, 0
1, 285052, Note_off_c, 1, 67, 0
1, 285054, Note_on_c, 1, 67, 127
1, 285054, Note_on_c, 1, 50, 127
1, 285128, Note_on_c, 1, 66, 127
1, 285146, Note_off_c, 1, 67, 0
1, 285220, Note_off_c, 1, 66, 0
1, 285430, Note_on_c, 1, 64, 127
1, 285616, Note_off_c, 1, 50, 0
1, 285616, Note_off_c, 1, 64, 0
1, 285618, Note_on_c, 1, 62, 127
1, 285618, Note_on_c, 1, 48, 127
1, 285804, Note_off_c, 1, 62, 0
1, 285804, Note_off_c, 1, 48, 0
1, 285806, Note_on_c, 1, 46, 127
1, 285806, Note_on_c, 1, 74, 127
1, 285992, Note_off_c, 1, 46, 0
1, 285994, Note_on_c, 1, 45, 127
1, 286180, Note_off_c, 1, 45, 0
1, 286368, Note_off_c, 1, 74, 0
1, 286370, Note_on_c, 1, 75, 127
1, 286370, Note_on_c, 1, 43, 127
1, 286556, Note_off_c, 1, 75, 0
1, 286556, Note_off_c, 1, 43, 0
1, 286558, Note_on_c, 1, 74, 127
1, 286558, Note_on_c, 1, 50, 127
1, 286744, Note_off_c, 1, 74, 0
1, 286746, Note_on_c, 1, 72, 127
1, 286932, Note_off_c, 1, 50, 0
1, 286932, Note_off_c, 1, 72, 0
1, 286934, Note_on_c, 1, 70, 127
1, 286934, Note_on_c, 1, 38, 127
1, 287120, Note_off_c, 1, 70, 0
1, 287121, Note_on_c, 1, 69, 127
1, 287307, Note_off_c, 1, 69, 0
1, 287308, Note_off_c, 1, 38, 0
1, 287309, Note_on_c, 1, 70, 127
1, 287309, Note_on_c, 1, 43, 127
1, 287495, Note_off_c, 1, 70, 0
1, 287497, Note_on_c, 1, 69, 127
1, 287683, Note_off_c, 1, 69, 0
1, 287685, Note_on_c, 1, 67, 127
1, 287685, Note_on_c, 1, 46, 127
1, 287871, Note_off_c, 1, 67, 0
1, 288059, Note_off_c, 1, 46, 0
1, 288061, Note_on_c, 1, 50, 127
1, 288249, Note_on_c, 1, 72, 127
1, 288434, Note_off_c, 1, 43, 0
1, 288435, Note_off_c, 1, 50, 0
1, 288435, Note_off_c, 1, 72, 0
1, 288437, Note_on_c, 1, 74, 127
1, 288437, Note_on_c, 1, 55, 127
1, 288623, Note_off_c, 1, 74, 0
1, 288625, Note_on_c, 1, 75, 127
1, 288811, Note_off_c, 1, 55, 0
1, 288811, Note_off_c, 1, 75, 0
1, 288813, Note_on_c, 1, 77, 127
1, 288813, Note_on_c, 1, 53, 127
1, 288973, Note_off_c, 1, 77, 0
1, 288978, Note_on_c, 1, 75, 127
1, 289063, Note_off_c, 1, 75, 0
1, 289187, Note_off_c, 1, 53, 0
1, 289189, Note_on_c, 1, 51, 127
1, 289396, Note_on_c, 1, 74, 127
1, 289481, Note_off_c, 1, 74, 0
1, 289563, Note_off_c, 1, 51, 0
1, 289564, Note_on_c, 1, 50, 127
1, 289750, Note_off_c, 1, 50, 0
1, 289940, Note_on_c, 1, 55, 127
1, 290126, Note_off_c, 1, 55, 0
1, 290128, Note_on_c, 1, 75, 127
1, 290128, Note_on_c, 1, 57, 127
1, 290314, Note_off_c, 1, 75, 0
1, 290314, Note_off_c, 1, 57, 0
1, 290316, Note_on_c, 1, 74, 127
1, 290316, Note_on_c, 1, 58, 127
1, 290502, Note_off_c, 1, 74, 0
1, 290502, Note_off_c, 1, 58, 0
1, 290504, Note_on_c, 1, 72, 127
1, 290504, Note_on_c, 1, 57, 127
1, 290690, Note_off_c, 1, 72, 0
1, 290690, Note_off_c, 1, 57, 0
1, 290692, Note_on_c, 1, 70, 127
1, 290692, Note_on_c, 1, 58, 127
1, 290878, Note_off_c, 1, 70, 0
1, 290878, Note_off_c, 1, 58, 0
1, 290880, Note_on_c, 1, 69, 127
1, 290880, Note_on_c, 1, 60, 127
1, 291066, Note_off_c, 1, 69, 0
1, 291066, Note_off_c, 1, 60, 0
1, 291068, Note_on_c, 1, 70, 127
1, 291068, Note_on_c, 1, 62, 127
1, 291254, Note_off_c, 1, 70, 0
1, 291256, Note_on_c, 1, 72, 127
1, 291442, Note_off_c, 1, 62, 0
1, 291442, Note_off_c, 1, 72, 0
1, 291444, Note_on_c, 1, 65, 127
1, 291444, Note_on_c, 1, 58, 127
1, 291630, Note_off_c, 1, 65, 0
1, 291632, Note_on_c, 1, 68, 127
1, 291818, Note_off_c, 1, 58, 0
1, 291818, Note_off_c, 1, 68, 0
1, 291819, Note_on_c, 1, 63, 127
1, 291819, Note_on_c, 1, 67, 127
1, 292005, Note_off_c, 1, 63, 0
1, 292007, Note_on_c, 1, 65, 127
1, 292193, Note_off_c, 1, 67, 0
1, 292193, Note_off_c, 1, 65, 0
1, 292195, Note_on_c, 1, 63, 127
1, 292195, Note_on_c, 1, 79, 127
1, 292381, Note_off_c, 1, 63, 0
1, 292383, Note_on_c, 1, 62, 127
1, 292569, Note_off_c, 1, 62, 0
1, 292571, Note_on_c, 1, 60, 127
1, 292757, Note_off_c, 1, 79, 0
1, 292759, Note_on_c, 1, 77, 127
1, 292945, Note_off_c, 1, 60, 0
1, 292945, Note_off_c, 1, 77, 0
1, 292947, Note_on_c, 1, 75, 127
1, 292947, Note_on_c, 1, 62, 127
1, 293133, Note_off_c, 1, 75, 0
1, 293135, Note_on_c, 1, 74, 127
1, 293321, Note_off_c, 1, 62, 0
1, 293321, Note_off_c, 1, 74, 0
1, 293323, Note_on_c, 1, 72, 127
1, 293323, Note_on_c, 1, 63, 127
1, 293509, Note_off_c, 1, 72, 0
1, 293511, Note_on_c, 1, 74, 127
1, 293697, Note_off_c, 1, 63, 0
1, 293697, Note_off_c, 1, 74, 0
1, 293699, Note_on_c, 1, 75, 127
1, 293699, Note_on_c, 1, 60, 127
1, 293885, Note_off_c, 1, 75, 0
1, 293887, Note_on_c, 1, 70, 127
1, 294073, Note_off_c, 1, 60, 0
1, 294073, Note_off_c, 1, 70, 0
1, 294074, Note_on_c, 1, 69, 127
1, 294074, Note_on_c, 1, 65, 127
1, 294260, Note_off_c, 1, 69, 0
1, 294262, Note_on_c, 1, 72, 127
1, 294448, Note_off_c, 1, 65, 0
1, 294448, Note_off_c, 1, 72, 0
1, 294450, Note_on_c, 1, 74, 127
1, 294450, Note_on_c, 1, 63, 127
1, 294636, Note_off_c, 1, 74, 0
1, 294638, Note_on_c, 1, 75, 127
1, 294824, Note_off_c, 1, 63, 0
1, 294824, Note_off_c, 1, 75, 0
1, 294826, Note_on_c, 1, 77, 127
1, 294826, Note_on_c, 1, 62, 127
1, 295012, Note_off_c, 1, 77, 0
1, 295014, Note_on_c, 1, 75, 127
1, 295200, Note_off_c, 1, 62, 0
1, 295200, Note_off_c, 1, 75, 0
1, 295202, Note_on_c, 1, 77, 127
1, 295202, Note_on_c, 1, 60, 127
1, 295388, Note_off_c, 1, 77, 0
1, 295388, Note_off_c, 1, 60, 0
1, 295390, Note_on_c, 1, 79, 127
1, 295390, Note_on_c, 1, 58, 127
1, 295576, Note_off_c, 1, 79, 0
1, 295576, Note_off_c, 1, 58, 0
1, 295578, Note_on_c, 1, 77, 127
1, 295578, Note_on_c, 1, 65, 127
1, 295764, Note_off_c, 1, 77, 0
1, 295766, Note_on_c, 1, 75, 127
1, 295952, Note_off_c, 1, 65, 0
1, 295952, Note_off_c, 1, 75, 0
1, 295954, Note_on_c, 1, 74, 127
1, 295954, Note_on_c, 1, 53, 127
1, 296140, Note_off_c, 1, 74, 0
1, 296142, Note_on_c, 1, 72, 127
1, 296328, Note_off_c, 1, 53, 0
1, 296328, Note_off_c, 1, 72, 0
1, 296330, Note_on_c, 1, 72, 127
1, 296330, Note_on_c, 1, 58, 127
1, 296516, Note_off_c, 1, 72, 0
1, 296517, Note_on_c, 1, 74, 127
1, 296703, Note_off_c, 1, 74, 0
1, 296704, Note_off_c, 1, 58, 0
1, 296705, Note_on_c, 1, 72, 127
1, 296705, Note_on_c, 1, 46, 127
1, 296891, Note_off_c, 1, 72, 0
1, 296891, Note_off_c, 1, 46, 0
1, 296893, Note_on_c, 1, 70, 127
1, 296893, Note_on_c, 1, 45, 127
1, 297079, Note_off_c, 1, 70, 0
1, 297079, Note_off_c, 1, 45, 0
1, 297081, Note_on_c, 1, 43, 127
1, 297081, Note_on_c, 1, 74, 127
1, 297175, Note_on_c, 1, 79, 127
1, 297267, Note_off_c, 1, 43, 0
1, 297269, Note_on_c, 1, 42, 127
1, 297269, Note_on_c, 1, 82, 127
1, 297455, Note_off_c, 1, 42, 0
1, 297643, Note_off_c, 1, 82, 0
1, 297644, Note_off_c, 1, 74, 0
1, 297646, Note_off_c, 1, 79, 0
1, 297647, Note_on_c, 1, 81, 127
1, 297647, Note_on_c, 1, 45, 127
1, 297833, Note_off_c, 1, 81, 0
1, 297833, Note_off_c, 1, 45, 0
1, 297834, Note_on_c, 1, 79, 127
1, 297834, Note_on_c, 1, 46, 127
1, 298020, Note_off_c, 1, 79, 0
1, 298022, Note_on_c, 1, 81, 127
1, 298208, Note_off_c, 1, 46, 0
1, 298208, Note_off_c, 1, 81, 0
1, 298210, Note_on_c, 1, 82, 127
1, 298210, Note_on_c, 1, 43, 127
1, 298396, Note_off_c, 1, 82, 0
1, 298398, Note_on_c, 1, 77, 127
1, 298584, Note_off_c, 1, 43, 0
1, 298584, Note_off_c, 1, 77, 0
1, 298586, Note_on_c, 1, 77, 127
1, 298586, Note_on_c, 1, 48, 127
1, 298755, Note_on_c, 1, 75, 127
1, 298756, Note_off_c, 1, 77, 0
1, 298772, Note_off_c, 1, 48, 0
1, 298774, Note_on_c, 1, 47, 127
1, 298847, Note_off_c, 1, 75, 0
1, 298960, Note_off_c, 1, 47, 0
1, 299150, Note_on_c, 1, 74, 127
1, 299150, Note_on_c, 1, 50, 127
1, 299336, Note_off_c, 1, 74, 0
1, 299336, Note_off_c, 1, 50, 0
1, 299338, Note_on_c, 1, 72, 127
1, 299338, Note_on_c, 1, 51, 127
1, 299524, Note_off_c, 1, 72, 0
1, 299526, Note_on_c, 1, 74, 127
1, 299712, Note_off_c, 1, 51, 0
1, 299712, Note_off_c, 1, 74, 0
1, 299714, Note_on_c, 1, 75, 127
1, 299714, Note_on_c, 1, 50, 127
1, 299900, Note_off_c, 1, 75, 0
1, 299902, Note_on_c, 1, 70, 127
1, 300088, Note_off_c, 1, 50, 0
1, 300088, Note_off_c, 1, 70, 0
1, 300090, Note_on_c, 1, 69, 127
1, 300090, Note_on_c, 1, 48, 127
1, 300276, Note_off_c, 1, 69, 0
1, 300277, Note_on_c, 1, 70, 127
1, 300463, Note_off_c, 1, 70, 0
1, 300464, Note_off_c, 1, 48, 0
1, 300465, Note_on_c, 1, 72, 127
1, 300465, Note_on_c, 1, 45, 127
1, 300651, Note_off_c, 1, 72, 0
1, 300653, Note_on_c, 1, 67, 127
1, 300839, Note_off_c, 1, 45, 0
1, 300839, Note_off_c, 1, 67, 0
1, 300841, Note_on_c, 1, 66, 127
1, 300841, Note_on_c, 1, 50, 127
1, 301027, Note_off_c, 1, 66, 0
1, 301029, Note_on_c, 1, 67, 127
1, 301215, Note_off_c, 1, 67, 0
1, 301217, Note_on_c, 1, 69, 127
1, 301403, Note_off_c, 1, 69, 0
1, 301405, Note_on_c, 1, 63, 127
1, 301591, Note_off_c, 1, 63, 0
1, 301592, Note_off_c, 1, 50, 0
1, 301595, Note_on_c, 1, 62, 127
1, 301781, Note_off_c, 1, 62, 0
1, 301782, Note_on_c, 1, 64, 127
1, 301968, Note_off_c, 1, 64, 0
1, 301970, Note_on_c, 1, 66, 127
1, 302158, Note_on_c, 1, 60, 127
1, 302344, Note_off_c, 1, 66, 0
1, 302344, Note_off_c, 1, 60, 0
1, 302346, Note_on_c, 1, 58, 127
1, 302346, Note_on_c, 1, 67, 127
1, 302532, Note_off_c, 1, 58, 0
1, 302534, Note_on_c, 1, 60, 127
1, 302720, Note_off_c, 1, 67, 0
1, 302720, Note_off_c, 1, 60, 0
1, 302722, Note_on_c, 1, 70, 127
1, 302722, Note_on_c, 1, 62, 127
1, 302908, Note_off_c, 1, 70, 0
1, 302908, Note_off_c, 1, 62, 0
1, 302910, Note_on_c, 1, 69, 127
1, 302910, Note_on_c, 1, 54, 127
1, 303096, Note_off_c, 1, 69, 0
1, 303096, Note_off_c, 1, 54, 0
1, 303098, Note_on_c, 1, 55, 127
1, 303098, Note_on_c, 1, 70, 127
1, 303284, Note_off_c, 1, 55, 0
1, 303286, Note_on_c, 1, 57, 127
1, 303472, Note_off_c, 1, 70, 0
1, 303472, Note_off_c, 1, 57, 0
1, 303474, Note_on_c, 1, 58, 127
1, 303474, Note_on_c, 1, 67, 127
1, 303660, Note_off_c, 1, 58, 0
1, 303662, Note_on_c, 1, 50, 127
1, 303848, Note_off_c, 1, 67, 0
1, 303848, Note_off_c, 1, 50, 0
1, 303850, Note_on_c, 1, 79, 127
1, 303850, Note_on_c, 1, 51, 127
1, 303942, Note_off_c, 1, 79, 0
1, 303944, Note_on_c, 1, 77, 127
1, 304036, Note_off_c, 1, 51, 0
1, 304036, Note_off_c, 1, 77, 0
1, 304037, Note_on_c, 1, 53, 127
1, 304037, Note_on_c, 1, 79, 127
1, 304223, Note_off_c, 1, 53, 0
1, 304225, Note_on_c, 1, 55, 127
1, 304411, Note_off_c, 1, 79, 0
1, 304411, Note_off_c, 1, 55, 0
1, 304413, Note_on_c, 1, 80, 127
1, 304413, Note_on_c, 1, 48, 127
1, 304599, Note_off_c, 1, 80, 0
1, 304599, Note_off_c, 1, 48, 0
1, 304601, Note_on_c, 1, 79, 127
1, 304601, Note_on_c, 1, 47, 127
1, 304787, Note_off_c, 1, 79, 0
1, 304787, Note_off_c, 1, 47, 0
1, 304789, Note_on_c, 1, 77, 127
1, 304789, Note_on_c, 1, 48, 127
1, 304975, Note_off_c, 1, 77, 0
1, 304975, Note_off_c, 1, 48, 0
1, 304977, Note_on_c, 1, 75, 127
1, 304977, Note_on_c, 1, 50, 127
1, 305163, Note_off_c, 1, 75, 0
1, 305163, Note_off_c, 1, 50, 0
1, 305165, Note_on_c, 1, 74, 127
1, 305165, Note_on_c, 1, 43, 127
1, 305351, Note_off_c, 1, 74, 0
1, 305351, Note_off_c, 1, 43, 0
1, 305353, Note_on_c, 1, 48, 127
1, 305353, Note_on_c, 1, 75, 127
1, 305541, Note_on_c, 1, 74, 127
1, 305727, Note_off_c, 1, 74, 0
1, 305729, Note_on_c, 1, 72, 127
1, 305915, Note_off_c, 1, 72, 0
1, 305917, Note_on_c, 1, 70, 127
1, 306103, Note_off_c, 1, 70, 0
1, 306104, Note_off_c, 1, 48, 0
1, 306294, Note_on_c, 1, 69, 127
1, 306480, Note_off_c, 1, 75, 0
1, 306480, Note_off_c, 1, 69, 0
1, 306482, Note_on_c, 1, 70, 127
1, 306552, Note_on_c, 1, 75, 127
1, 306622, Note_on_c, 1, 79, 127
1, 306668, Note_off_c, 1, 70, 0
1, 306670, Note_on_c, 1, 72, 127
1, 306856, Note_off_c, 1, 72, 0
1, 306858, Note_off_c, 1, 75, 0
1, 306858, Note_on_c, 1, 74, 127
1, 306858, Note_on_c, 1, 66, 127
1, 306858, Note_on_c, 1, 81, 127
1, 306862, Note_off_c, 1, 79, 0
1, 307044, Note_off_c, 1, 74, 0
1, 307044, Note_off_c, 1, 66, 0
1, 307046, Note_on_c, 1, 67, 127
1, 307232, Note_off_c, 1, 67, 0
1, 307234, Note_on_c, 1, 69, 127
1, 307420, Note_off_c, 1, 69, 0
1, 307422, Note_on_c, 1, 62, 127
1, 307608, Note_off_c, 1, 62, 0
1, 307797, Note_on_c, 1, 65, 127
1, 307983, Note_off_c, 1, 81, 0
1, 307983, Note_off_c, 1, 65, 0
1, 307985, Note_on_c, 1, 64, 127
1, 308171, Note_off_c, 1, 64, 0
1, 308173, Note_on_c, 1, 77, 127
1, 308359, Note_off_c, 1, 77, 0
1, 308549, Note_on_c, 1, 61, 127
1, 308735, Note_off_c, 1, 61, 0
1, 309113, Note_on_c, 1, 73, 127
1, 309113, Note_on_c, 1, 57, 127
1, 309299, Note_off_c, 1, 73, 0
1, 309299, Note_off_c, 1, 57, 0
1, 309301, Note_on_c, 1, 59, 127
1, 309487, Note_off_c, 1, 59, 0
1, 309489, Note_on_c, 1, 76, 127
1, 309675, Note_off_c, 1, 76, 0
1, 309677, Note_on_c, 1, 55, 127
1, 309863, Note_off_c, 1, 55, 0
1, 309865, Note_on_c, 1, 53, 127
1, 310990, Note_off_c, 1, 53, 0
1, 311370, Note_on_c, 1, 77, 127
1, 311370, Note_on_c, 1, 73, 127
1, 311370, Note_on_c, 1, 57, 127
1, 311520, Note_off_c, 1, 77, 0
1, 311524, Note_on_c, 1, 76, 127
1, 311616, Note_off_c, 1, 76, 0
1, 311745, Note_on_c, 1, 45, 127
1, 311933, Note_off_c, 1, 73, 0
1, 311935, Note_on_c, 1, 74, 127
1, 312120, Note_off_c, 1, 45, 0
1, 312121, Note_off_c, 1, 74, 0
1, 312123, Note_off_c, 1, 57, 0
1, 312125, Note_on_c, 1, 74, 127
1, 312125, Note_on_c, 1, 50, 127
1, 312502, Note_on_c, 1, 38, 127
1, 312879, Note_on_c, 1, 45, 127
1, 313254, Note_off_c, 1, 45, 0
1, 313255, Note_off_c, 1, 74, 0
1, 313255, Note_off_c, 1, 50, 0
1, 313257, Note_on_c, 1, 66, 127
1, 313257, Note_on_c, 1, 69, 127
1, 314198, Note_off_c, 1, 66, 0
1, 314198, Note_off_c, 1, 69, 0
1, 314200, Note_on_c, 1, 81, 127
1, 314386, Note_off_c, 1, 81, 0
1, 314387, Note_off_c, 1, 38, 0
1, 314388, Note_on_c, 1, 81, 127
1, 314388, Note_on_c, 1, 50, 127
1, 314576, Note_on_c, 1, 79, 127
1, 314762, Note_off_c, 1, 79, 0
1, 314763, Note_on_c, 1, 78, 127
1, 314949, Note_off_c, 1, 78, 0
1, 314951, Note_on_c, 1, 76, 127
1, 315137, Note_off_c, 1, 76, 0
1, 315139, Note_off_c, 1, 81, 0
1, 315139, Note_off_c, 1, 50, 0
1, 315141, Note_on_c, 1, 78, 127
1, 315329, Note_on_c, 1, 75, 127
1, 315515, Note_off_c, 1, 78, 0
1, 315515, Note_off_c, 1, 75, 0
1, 315517, Note_on_c, 1, 74, 127
1, 315517, Note_on_c, 1, 78, 127
1, 315703, Note_off_c, 1, 74, 0
1, 315705, Note_on_c, 1, 72, 127
1, 315891, Note_off_c, 1, 78, 0
1, 315891, Note_off_c, 1, 72, 0
1, 315893, Note_on_c, 1, 70, 127
1, 315963, Note_on_c, 1, 74, 127
1, 316034, Note_on_c, 1, 79, 127
1, 316079, Note_off_c, 1, 70, 0
1, 316081, Note_on_c, 1, 69, 127
1, 316267, Note_off_c, 1, 69, 0
1, 316268, Note_on_c, 1, 67, 127
1, 316454, Note_off_c, 1, 67, 0
1, 316456, Note_on_c, 1, 81, 127
1, 316456, Note_on_c, 1, 66, 127
1, 316463, Note_off_c, 1, 79, 0
1, 316642, Note_off_c, 1, 81, 0
1, 316642, Note_off_c, 1, 66, 0
1, 316832, Note_on_c, 1, 82, 127
1, 317020, Note_on_c, 1, 55, 127
1, 317206, Note_off_c, 1, 82, 0
1, 317206, Note_off_c, 1, 55, 0
1, 317208, Note_on_c, 1, 57, 127
1, 317383, Note_off_c, 1, 74, 0
1, 317394, Note_off_c, 1, 57, 0
1, 317396, Note_on_c, 1, 79, 127
1, 317396, Note_on_c, 1, 58, 127
1, 317582, Note_off_c, 1, 79, 0
1, 317584, Note_on_c, 1, 81, 127
1, 317770, Note_off_c, 1, 58, 0
1, 317770, Note_off_c, 1, 81, 0
1, 317772, Note_on_c, 1, 82, 127
1, 317772, Note_on_c, 1, 55, 127
1, 317958, Note_off_c, 1, 82, 0
1, 317960, Note_on_c, 1, 77, 127
1, 318146, Note_off_c, 1, 55, 0
1, 318146, Note_off_c, 1, 77, 0
1, 318148, Note_on_c, 1, 77, 127
1, 318148, Note_on_c, 1, 60, 127
1, 318334, Note_off_c, 1, 77, 0
1, 318336, Note_on_c, 1, 76, 127
1, 318522, Note_off_c, 1, 60, 0
1, 318522, Note_off_c, 1, 76, 0
1, 318524, Note_on_c, 1, 74, 127
1, 318524, Note_on_c, 1, 58, 127
1, 318710, Note_off_c, 1, 74, 0
1, 318711, Note_on_c, 1, 72, 127
1, 318897, Note_off_c, 1, 72, 0
1, 318898, Note_off_c, 1, 58, 0
1, 318899, Note_on_c, 1, 57, 127
1, 318899, Note_on_c, 1, 84, 127
1, 319085, Note_off_c, 1, 57, 0
1, 319087, Note_on_c, 1, 60, 127
1, 319273, Note_off_c, 1, 60, 0
1, 319275, Note_on_c, 1, 62, 127
1, 319461, Note_off_c, 1, 84, 0
1, 319461, Note_off_c, 1, 62, 0
1, 319463, Note_on_c, 1, 79, 127
1, 319463, Note_on_c, 1, 64, 127
1, 319649, Note_off_c, 1, 79, 0
1, 319649, Note_off_c, 1, 64, 0
1, 319651, Note_on_c, 1, 81, 127
1, 319651, Note_on_c, 1, 65, 127
1, 319837, Note_off_c, 1, 81, 0
1, 319839, Note_on_c, 1, 76, 127
1, 320025, Note_off_c, 1, 65, 0
1, 320025, Note_off_c, 1, 76, 0
1, 320027, Note_on_c, 1, 77, 127
1, 320027, Note_on_c, 1, 58, 127
1, 320213, Note_off_c, 1, 77, 0
1, 320215, Note_on_c, 1, 82, 127
1, 320401, Note_off_c, 1, 58, 0
1, 320401, Note_off_c, 1, 82, 0
1, 320403, Note_on_c, 1, 81, 127
1, 320403, Note_on_c, 1, 76, 127
1, 320403, Note_on_c, 1, 60, 127
1, 320573, Note_off_c, 1, 81, 0
1, 320577, Note_on_c, 1, 79, 127
1, 320669, Note_off_c, 1, 79, 0
1, 320779, Note_on_c, 1, 48, 127
1, 320966, Note_on_c, 1, 77, 127
1, 321058, Note_off_c, 1, 77, 0
1, 321153, Note_off_c, 1, 48, 0
1, 321154, Note_off_c, 1, 76, 0
1, 321154, Note_off_c, 1, 60, 0
1, 321156, Note_on_c, 1, 53, 127
1, 321156, Note_on_c, 1, 77, 127
1, 321342, Note_off_c, 1, 53, 0
1, 321344, Note_on_c, 1, 55, 127
1, 321530, Note_off_c, 1, 55, 0
1, 321532, Note_on_c, 1, 56, 127
1, 321718, Note_off_c, 1, 56, 0
1, 322093, Note_off_c, 1, 77, 0
1, 322096, Note_on_c, 1, 79, 127
1, 322096, Note_on_c, 1, 51, 127
1, 322282, Note_off_c, 1, 79, 0
1, 322282, Note_off_c, 1, 51, 0
1, 322284, Note_on_c, 1, 80, 127
1, 322284, Note_on_c, 1, 50, 127
1, 322470, Note_off_c, 1, 80, 0
1, 322470, Note_off_c, 1, 50, 0
1, 322471, Note_on_c, 1, 79, 127
1, 322471, Note_on_c, 1, 51, 127
1, 322657, Note_off_c, 1, 79, 0
1, 322657, Note_off_c, 1, 51, 0
1, 322659, Note_on_c, 1, 77, 127
1, 322659, Note_on_c, 1, 47, 127
1, 322845, Note_off_c, 1, 77, 0
1, 322847, Note_on_c, 1, 75, 127
1, 323033, Note_off_c, 1, 47, 0
1, 323033, Note_off_c, 1, 75, 0
1, 323035, Note_on_c, 1, 74, 127
1, 323035, Note_on_c, 1, 48, 127
1, 323221, Note_off_c, 1, 74, 0
1, 323223, Note_on_c, 1, 75, 127
1, 323409, Note_off_c, 1, 48, 0
1, 323409, Note_off_c, 1, 75, 0
1, 323411, Note_on_c, 1, 72, 127
1, 323411, Note_on_c, 1, 43, 127
1, 323597, Note_off_c, 1, 72, 0
1, 323599, Note_on_c, 1, 71, 127
1, 323785, Note_off_c, 1, 43, 0
1, 323785, Note_off_c, 1, 71, 0
1, 323787, Note_on_c, 1, 69, 127
1, 323787, Note_on_c, 1, 55, 127
1, 323973, Note_off_c, 1, 69, 0
1, 323973, Note_off_c, 1, 55, 0
1, 323975, Note_on_c, 1, 67, 127
1, 323975, Note_on_c, 1, 53, 127
1, 324161, Note_off_c, 1, 67, 0
1, 324161, Note_off_c, 1, 53, 0
1, 324163, Note_on_c, 1, 72, 127
1, 324163, Note_on_c, 1, 51, 127
1, 324349, Note_off_c, 1, 72, 0
1, 324351, Note_on_c, 1, 71, 127
1, 324537, Note_off_c, 1, 51, 0
1, 324537, Note_off_c, 1, 71, 0
1, 324539, Note_on_c, 1, 72, 127
1, 324539, Note_on_c, 1, 56, 127
1, 324725, Note_off_c, 1, 72, 0
1, 324726, Note_on_c, 1, 75, 127
1, 324912, Note_off_c, 1, 75, 0
1, 324913, Note_off_c, 1, 56, 0
1, 324914, Note_on_c, 1, 74, 127
1, 324914, Note_on_c, 1, 53, 127
1, 325100, Note_off_c, 1, 74, 0
1, 325102, Note_on_c, 1, 75, 127
1, 325288, Note_off_c, 1, 53, 0
1, 325288, Note_off_c, 1, 75, 0
1, 325290, Note_on_c, 1, 77, 127
1, 325290, Note_on_c, 1, 55, 127
1, 325476, Note_off_c, 1, 77, 0
1, 325478, Note_on_c, 1, 74, 127
1, 325664, Note_off_c, 1, 55, 0
1, 325664, Note_off_c, 1, 74, 0
1, 325666, Note_on_c, 1, 77, 127
1, 325666, Note_on_c, 1, 48, 127
1, 325852, Note_off_c, 1, 77, 0
1, 325854, Note_on_c, 1, 75, 127
1, 326040, Note_off_c, 1, 48, 0
1, 326040, Note_off_c, 1, 75, 0
1, 326042, Note_on_c, 1, 74, 127
1, 326042, Note_on_c, 1, 60, 127
1, 326228, Note_off_c, 1, 74, 0
1, 326228, Note_off_c, 1, 60, 0
1, 326230, Note_on_c, 1, 72, 127
1, 326230, Note_on_c, 1, 58, 127
1, 326416, Note_off_c, 1, 72, 0
1, 326416, Note_off_c, 1, 58, 0
1, 326418, Note_on_c, 1, 74, 127
1, 326418, Note_on_c, 1, 56, 127
1, 326604, Note_off_c, 1, 74, 0
1, 326606, Note_on_c, 1, 76, 127
1, 326792, Note_off_c, 1, 56, 0
1, 326792, Note_off_c, 1, 76, 0
1, 326794, Note_on_c, 1, 77, 127
1, 326794, Note_on_c, 1, 61, 127
1, 326980, Note_off_c, 1, 77, 0
1, 326982, Note_on_c, 1, 79, 127
1, 327168, Note_off_c, 1, 61, 0
1, 327168, Note_off_c, 1, 79, 0
1, 327169, Note_on_c, 1, 80, 127
1, 327169, Note_on_c, 1, 58, 127
1, 327329, Note_off_c, 1, 80, 0
1, 327333, Note_on_c, 1, 79, 127
1, 327425, Note_off_c, 1, 79, 0
1, 327543, Note_off_c, 1, 58, 0
1, 327545, Note_on_c, 1, 60, 127
1, 327753, Note_on_c, 1, 77, 127
1, 327845, Note_off_c, 1, 77, 0
1, 327919, Note_off_c, 1, 60, 0
1, 327921, Note_on_c, 1, 53, 127
1, 328107, Note_off_c, 1, 53, 0
1, 328109, Note_on_c, 1, 51, 127
1, 328295, Note_off_c, 1, 51, 0
1, 328485, Note_on_c, 1, 71, 127
1, 328485, Note_on_c, 1, 50, 127
1, 328671, Note_off_c, 1, 71, 0
1, 328671, Note_off_c, 1, 50, 0
1, 328673, Note_on_c, 1, 72, 127
1, 328673, Note_on_c, 1, 51, 127
1, 328765, Note_off_c, 1, 72, 0
1, 328767, Note_on_c, 1, 71, 127
1, 328859, Note_off_c, 1, 51, 0
1, 328859, Note_off_c, 1, 71, 0
1, 328861, Note_on_c, 1, 56, 127
1, 328861, Note_on_c, 1, 72, 127
1, 329047, Note_off_c, 1, 56, 0
1, 329049, Note_on_c, 1, 55, 127
1, 329235, Note_off_c, 1, 72, 0
1, 329235, Note_off_c, 1, 55, 0
1, 329237, Note_on_c, 1, 74, 127
1, 329237, Note_on_c, 1, 53, 127
1, 329423, Note_off_c, 1, 74, 0
1, 329423, Note_off_c, 1, 53, 0
1, 329424, Note_on_c, 1, 75, 127
1, 329424, Note_on_c, 1, 55, 127
1, 329424, Note_on_c, 1, 71, 127
1, 329564, Note_off_c, 1, 75, 0
1, 329568, Note_on_c, 1, 74, 127
1, 329660, Note_off_c, 1, 74, 0
1, 329798, Note_off_c, 1, 55, 0
1, 329800, Note_on_c, 1, 43, 127
1, 329987, Note_off_c, 1, 71, 0
1, 329990, Note_on_c, 1, 72, 127
1, 330175, Note_off_c, 1, 43, 0
1, 330176, Note_off_c, 1, 72, 0
1, 330178, Note_on_c, 1, 36, 127
1, 330178, Note_on_c, 1, 72, 127
1, 330553, Note_off_c, 1, 36, 0
1, 330555, Note_on_c, 1, 60, 127
1, 330741, Note_off_c, 1, 60, 0
1, 330743, Note_on_c, 1, 58, 127
1, 330929, Note_off_c, 1, 58, 0
1, 331117, Note_off_c, 1, 72, 0
1, 331119, Note_on_c, 1, 74, 127
1, 331119, Note_on_c, 1, 58, 127
1, 331305, Note_off_c, 1, 74, 0
1, 331305, Note_off_c, 1, 58, 0
1, 331307, Note_on_c, 1, 75, 127
1, 331307, Note_on_c, 1, 57, 127
1, 331493, Note_off_c, 1, 75, 0
1, 331493, Note_off_c, 1, 57, 0
1, 331495, Note_on_c, 1, 74, 127
1, 331495, Note_on_c, 1, 58, 127
1, 331681, Note_off_c, 1, 74, 0
1, 331681, Note_off_c, 1, 58, 0
1, 331683, Note_on_c, 1, 72, 127
1, 331683, Note_on_c, 1, 51, 127
1, 331869, Note_off_c, 1, 72, 0
1, 331871, Note_on_c, 1, 70, 127
1, 332057, Note_off_c, 1, 51, 0
1, 332057, Note_off_c, 1, 70, 0
1, 332059, Note_on_c, 1, 69, 127
1, 332059, Note_on_c, 1, 55, 127
1, 332245, Note_off_c, 1, 69, 0
1, 332247, Note_on_c, 1, 70, 127
1, 332433, Note_off_c, 1, 55, 0
1, 332433, Note_off_c, 1, 70, 0
1, 332434, Note_on_c, 1, 70, 127
1, 332434, Note_on_c, 1, 53, 127
1, 332620, Note_off_c, 1, 70, 0
1, 332622, Note_on_c, 1, 69, 127
1, 332808, Note_off_c, 1, 53, 0
1, 332808, Note_off_c, 1, 69, 0
1, 332810, Note_on_c, 1, 67, 127
1, 332810, Note_on_c, 1, 51, 127
1, 332996, Note_off_c, 1, 67, 0
1, 332998, Note_on_c, 1, 65, 127
1, 333184, Note_off_c, 1, 51, 0
1, 333184, Note_off_c, 1, 65, 0
1, 333186, Note_on_c, 1, 67, 127
1, 333186, Note_on_c, 1, 50, 127
1, 333372, Note_off_c, 1, 67, 0
1, 333374, Note_on_c, 1, 69, 127
1, 333560, Note_off_c, 1, 50, 0
1, 333560, Note_off_c, 1, 69, 0
1, 333562, Note_on_c, 1, 70, 127
1, 333562, Note_on_c, 1, 55, 127
1, 333748, Note_off_c, 1, 70, 0
1, 333750, Note_on_c, 1, 72, 127
1, 333936, Note_off_c, 1, 55, 0
1, 333936, Note_off_c, 1, 72, 0
1, 333938, Note_on_c, 1, 74, 127
1, 333938, Note_on_c, 1, 51, 127
1, 334098, Note_off_c, 1, 74, 0
1, 334102, Note_on_c, 1, 72, 127
1, 334194, Note_off_c, 1, 72, 0
1, 334312, Note_off_c, 1, 51, 0
1, 334314, Note_on_c, 1, 53, 127
1, 334522, Note_on_c, 1, 70, 127
1, 334614, Note_off_c, 1, 70, 0
1, 334688, Note_off_c, 1, 53, 0
1, 334689, Note_on_c, 1, 46, 127
1, 335063, Note_off_c, 1, 46, 0
1, 335253, Note_on_c, 1, 69, 127
1, 335439, Note_off_c, 1, 69, 0
1, 335441, Note_on_c, 1, 58, 127
1, 335629, Note_on_c, 1, 67, 127
1, 335815, Note_off_c, 1, 67, 0
1, 336193, Note_on_c, 1, 64, 127
1, 336378, Note_off_c, 1, 58, 0
1, 336381, Note_on_c, 1, 62, 127
1, 336567, Note_off_c, 1, 62, 0
1, 336569, Note_on_c, 1, 60, 127
1, 336755, Note_off_c, 1, 60, 0
1, 336944, Note_off_c, 1, 64, 0
1, 336946, Note_on_c, 1, 57, 127
1, 336946, Note_on_c, 1, 72, 127
1, 337134, Note_on_c, 1, 70, 127
1, 337320, Note_off_c, 1, 57, 0
1, 337320, Note_off_c, 1, 70, 0
1, 337322, Note_on_c, 1, 69, 127
1, 337322, Note_on_c, 1, 55, 127
1, 337508, Note_off_c, 1, 69, 0
1, 337510, Note_on_c, 1, 67, 127
1, 337696, Note_off_c, 1, 55, 0
1, 337696, Note_off_c, 1, 67, 0
1, 337698, Note_on_c, 1, 54, 127
1, 337886, Note_on_c, 1, 66, 127
1, 338072, Note_off_c, 1, 66, 0
1, 338450, Note_on_c, 1, 62, 127
1, 338630, Note_off_c, 1, 72, 0
1, 338637, Note_off_c, 1, 54, 0
1, 338639, Note_on_c, 1, 50, 127
1, 338825, Note_off_c, 1, 50, 0
1, 338827, Note_on_c, 1, 52, 127
1, 339013, Note_off_c, 1, 52, 0
1, 339203, Note_off_c, 1, 62, 0
1, 339204, Note_on_c, 1, 55, 127
1, 339204, Note_on_c, 1, 70, 127
1, 339392, Note_on_c, 1, 69, 127
1, 339578, Note_off_c, 1, 55, 0
1, 339578, Note_off_c, 1, 69, 0
1, 339580, Note_on_c, 1, 67, 127
1, 339580, Note_on_c, 1, 50, 127
1, 339766, Note_off_c, 1, 67, 0
1, 339768, Note_on_c, 1, 66, 127
1, 339954, Note_off_c, 1, 50, 0
1, 339954, Note_off_c, 1, 66, 0
1, 339956, Note_on_c, 1, 43, 127
1, 340144, Note_on_c, 1, 63, 127
1, 340330, Note_off_c, 1, 63, 0
1, 340332, Note_on_c, 1, 65, 127
1, 340514, Note_off_c, 1, 70, 0
1, 340518, Note_off_c, 1, 65, 0
1, 340707, Note_off_c, 1, 43, 0
1, 340709, Note_on_c, 1, 62, 127
1, 340709, Note_on_c, 1, 70, 127
1, 340873, Note_on_c, 1, 61, 127
1, 340879, Note_off_c, 1, 62, 0
1, 340895, Note_off_c, 1, 70, 0
1, 340897, Note_on_c, 1, 69, 127
1, 340965, Note_off_c, 1, 61, 0
1, 341083, Note_off_c, 1, 69, 0
1, 341273, Note_on_c, 1, 67, 127
1, 341293, Note_on_c, 1, 59, 127
1, 341385, Note_off_c, 1, 59, 0
1, 341454, Note_off_c, 1, 67, 0
1, 341649, Note_on_c, 1, 58, 127
1, 341695, Note_on_c, 1, 66, 127
1, 341787, Note_off_c, 1, 66, 0
1, 341835, Note_off_c, 1, 58, 0
1, 341837, Note_on_c, 1, 57, 127
1, 342023, Note_off_c, 1, 57, 0
1, 342025, Note_on_c, 1, 55, 127
1, 342211, Note_off_c, 1, 55, 0
1, 342401, Note_on_c, 1, 50, 127
1, 342587, Note_off_c, 1, 50, 0
1, 342589, Note_on_c, 1, 51, 127
1, 342775, Note_off_c, 1, 51, 0
1, 342777, Note_on_c, 1, 48, 127
1, 342963, Note_off_c, 1, 48, 0
1, 342964, Note_on_c, 1, 47, 127
1, 343151, Note_off_c, 1, 47, 0
1, 343154, Note_on_c, 1, 65, 127
1, 343154, Note_on_c, 1, 48, 127
1, 343340, Note_off_c, 1, 65, 0
1, 343340, Note_off_c, 1, 48, 0
1, 343342, Note_on_c, 1, 63, 127
1, 343342, Note_on_c, 1, 50, 127
1, 343528, Note_off_c, 1, 63, 0
1, 343528, Note_off_c, 1, 50, 0
1, 343530, Note_on_c, 1, 62, 127
1, 343530, Note_on_c, 1, 43, 127
1, 343716, Note_off_c, 1, 62, 0
1, 343716, Note_off_c, 1, 43, 0
1, 343718, Note_on_c, 1, 48, 127
1, 343718, Note_on_c, 1, 63, 127
1, 343904, Note_off_c, 1, 48, 0
1, 343906, Note_on_c, 1, 58, 127
1, 343906, Note_on_c, 1, 50, 127
1, 344092, Note_off_c, 1, 58, 0
1, 344092, Note_off_c, 1, 50, 0
1, 344094, Note_on_c, 1, 57, 127
1, 344280, Note_off_c, 1, 57, 0
1, 344282, Note_on_c, 1, 55, 127
1, 344282, Note_on_c, 1, 46, 127
1, 344468, Note_off_c, 1, 55, 0
1, 344468, Note_off_c, 1, 46, 0
1, 344469, Note_off_c, 1, 63, 0
1, 344471, Note_on_c, 1, 60, 127
1, 344471, Note_on_c, 1, 45, 127
1, 344657, Note_off_c, 1, 60, 0
1, 344659, Note_on_c, 1, 63, 127
1, 344845, Note_off_c, 1, 45, 0
1, 344845, Note_off_c, 1, 63, 0
1, 344847, Note_on_c, 1, 67, 127
1, 344847, Note_on_c, 1, 46, 127
1, 345033, Note_off_c, 1, 67, 0
1, 345035, Note_on_c, 1, 70, 127
1, 345221, Note_off_c, 1, 46, 0
1, 345221, Note_off_c, 1, 70, 0
1, 345223, Note_on_c, 1, 69, 127
1, 345223, Note_on_c, 1, 48, 127
1, 345409, Note_off_c, 1, 69, 0
1, 345409, Note_off_c, 1, 48, 0
1, 345411, Note_on_c, 1, 66, 127
1, 345411, Note_on_c, 1, 51, 127
1, 345597, Note_off_c, 1, 66, 0
1, 345597, Note_off_c, 1, 51, 0
1, 345599, Note_on_c, 1, 67, 127
1, 345599, Note_on_c, 1, 50, 127
1, 345785, Note_off_c, 1, 67, 0
1, 345785, Note_off_c, 1, 50, 0
1, 345786, Note_on_c, 1, 69, 127
1, 345786, Note_on_c, 1, 48, 127
1, 345972, Note_off_c, 1, 69, 0
1, 345972, Note_off_c, 1, 48, 0
1, 345974, Note_on_c, 1, 54, 127
1, 345974, Note_on_c, 1, 62, 127
1, 346162, Note_on_c, 1, 66, 127
1, 346348, Note_off_c, 1, 54, 0
1, 346348, Note_off_c, 1, 66, 0
1, 346350, Note_on_c, 1, 69, 127
1, 346350, Note_on_c, 1, 50, 127
1, 346536, Note_off_c, 1, 69, 0
1, 346538, Note_on_c, 1, 72, 127
1, 346724, Note_off_c, 1, 50, 0
1, 346724, Note_off_c, 1, 72, 0
1, 346725, Note_off_c, 1, 62, 0
1, 346728, Note_on_c, 1, 72, 127
1, 346728, Note_on_c, 1, 55, 127
1, 346728, Note_on_c, 1, 67, 127
1, 346885, Note_off_c, 1, 72, 0
1, 346902, Note_on_c, 1, 70, 127
1, 346994, Note_off_c, 1, 70, 0
1, 347102, Note_off_c, 1, 55, 0
1, 347104, Note_on_c, 1, 48, 127
1, 347291, Note_off_c, 1, 67, 0
1, 347293, Note_on_c, 1, 69, 127
1, 347480, Note_off_c, 1, 69, 0
1, 347481, Note_off_c, 1, 48, 0
1, 347483, Note_on_c, 1, 70, 127
1, 347483, Note_on_c, 1, 66, 127
1, 347483, Note_on_c, 1, 50, 127
1, 347578, Note_off_c, 1, 70, 0
1, 347580, Note_on_c, 1, 69, 127
1, 347675, Note_off_c, 1, 69, 0
1, 347871, Note_on_c, 1, 38, 127
1, 348066, Note_off_c, 1, 66, 0
1, 348067, Note_on_c, 1, 67, 127
1, 348259, Note_off_c, 1, 38, 0
1, 348259, Note_off_c, 1, 67, 0
1, 348262, Note_off_c, 1, 50, 0
1, 348263, Note_on_c, 1, 67, 127
1, 348263, Note_on_c, 1, 43, 127
1, 348675, Note_on_c, 1, 46, 127
1, 349083, Note_off_c, 1, 46, 0
1, 349085, Note_on_c, 1, 50, 127
1, 349493, Note_off_c, 1, 50, 0
1, 349495, Note_on_c, 1, 58, 127
1, 349495, Note_on_c, 1, 62, 127
1, 349495, Note_on_c, 1, 55, 127
1, 351695, Note_off_c, 1, 58, 0
1, 351695, Note_off_c, 1, 62, 0
1, 351695, Note_off_c, 1, 55, 0
1, 351713, Note_off_c, 1, 67, 0
1, 351713, Note_off_c, 1, 43, 0
1, 353577, Note_on_c, 1, 62, 127
1, 353577, Note_on_c, 1, 67, 127
1, 353577, Note_on_c, 1, 70, 127
1, 353577, Note_on_c, 1, 50, 127
1, 353577, Note_on_c, 1, 55, 127
1, 353577, Note_on_c, 1, 43, 127
1, 353983, Note_off_c, 1, 62, 0
1, 353983, Note_off_c, 1, 67, 0
1, 353983, Note_off_c, 1, 70, 0
1, 353989, Note_on_c, 1, 69, 127
1, 353989, Note_on_c, 1, 60, 127
1, 354395, Note_off_c, 1, 50, 0
1, 354395, Note_off_c, 1, 55, 0
1, 354395, Note_off_c, 1, 69, 0
1, 354395, Note_off_c, 1, 60, 0
1, 354400, Note_on_c, 1, 51, 127
1, 355633, Note_on_c, 1, 72, 127
1, 355833, Note_off_c, 1, 72, 0
1, 356867, Note_on_c, 1, 66, 127
1, 356867, Note_on_c, 1, 57, 127
1, 358094, Note_off_c, 1, 66, 0
1, 358923, Note_on_c, 1, 63, 127
1, 359324, Note_off_c, 1, 51, 0
1, 359329, Note_off_c, 1, 57, 0
1, 359329, Note_off_c, 1, 63, 0
1, 359335, Note_on_c, 1, 54, 127
1, 359335, Note_on_c, 1, 48, 127
1, 360977, Note_off_c, 1, 54, 0
1, 360977, Note_off_c, 1, 48, 0
1, 360981, Note_on_c, 1, 58, 127
1, 361761, Note_off_c, 1, 43, 0
1, 362208, Note_off_c, 1, 58, 0
1, 363858, Note_on_c, 1, 65, 127
1, 364058, Note_off_c, 1, 65, 0
1, 364063, Note_on_c, 1, 64, 127
1, 364265, Note_off_c, 1, 64, 0
1, 364271, Note_on_c, 1, 59, 127
1, 365912, Note_off_c, 1, 59, 0
1, 369205, Note_on_c, 1, 52, 127
1, 369205, Note_on_c, 1, 61, 127
1, 370846, Note_off_c, 1, 52, 0
1, 370847, Note_off_c, 1, 61, 0
1, 370850, Note_on_c, 1, 50, 127
1, 370850, Note_on_c, 1, 69, 127
1, 371261, Note_on_c, 1, 52, 127
1, 371261, Note_on_c, 1, 61, 127
1, 371663, Note_off_c, 1, 50, 0
1, 371663, Note_off_c, 1, 69, 0
1, 371667, Note_off_c, 1, 52, 0
1, 371667, Note_off_c, 1, 61, 0
1, 371673, Note_on_c, 1, 54, 127
1, 371673, Note_on_c, 1, 50, 127
1, 371673, Note_on_c, 1, 57, 127
1, 371673, Note_on_c, 1, 69, 127
1, 371673, Note_on_c, 1, 62, 127
1, 373312, Note_off_c, 1, 54, 0
1, 373312, Note_off_c, 1, 50, 0
1, 373312, Note_off_c, 1, 57, 0
1, 373312, Note_off_c, 1, 69, 0
1, 373312, Note_off_c, 1, 62, 0
1, 373333, Note_on_c, 1, 70, 127
1, 373333, Note_on_c, 1, 65, 127
1, 373333, Note_on_c, 1, 58, 127
1, 373333, Note_on_c, 1, 50, 127
1, 373333, Note_on_c, 1, 53, 127
1, 373739, Note_off_c, 1, 70, 0
1, 373744, Note_on_c, 1, 74, 127
1, 374146, Note_off_c, 1, 65, 0
1, 374150, Note_off_c, 1, 74, 0
1, 374156, Note_on_c, 1, 77, 127
1, 375383, Note_off_c, 1, 77, 0
1, 375800, Note_on_c, 1, 68, 127
1, 376002, Note_off_c, 1, 68, 0
1, 376213, Note_on_c, 1, 67, 127
1, 376619, Note_off_c, 1, 58, 0
1, 376619, Note_off_c, 1, 50, 0
1, 376619, Note_off_c, 1, 53, 0
1, 376619, Note_off_c, 1, 67, 0
1, 376625, Note_on_c, 1, 65, 127
1, 376625, Note_on_c, 1, 67, 127
1, 376625, Note_on_c, 1, 62, 127
1, 376625, Note_on_c, 1, 55, 127
1, 376625, Note_on_c, 1, 47, 127
1, 378264, Note_off_c, 1, 65, 0
1, 378264, Note_off_c, 1, 67, 0
1, 378264, Note_off_c, 1, 62, 0
1, 378269, Note_on_c, 1, 74, 127
1, 378680, Note_on_c, 1, 77, 127
1, 379086, Note_off_c, 1, 77, 0
1, 379087, Note_off_c, 1, 55, 0
1, 379092, Note_on_c, 1, 80, 127
1, 379092, Note_on_c, 1, 53, 127
1, 379910, Note_off_c, 1, 80, 0
1, 379910, Note_off_c, 1, 53, 0
1, 379915, Note_on_c, 1, 51, 127
1, 380121, Note_on_c, 1, 79, 127
1, 380321, Note_off_c, 1, 51, 0
1, 380321, Note_off_c, 1, 79, 0
1, 380326, Note_on_c, 1, 50, 127
1, 380734, Note_off_c, 1, 74, 0
1, 380734, Note_off_c, 1, 50, 0
1, 380739, Note_off_c, 1, 47, 0
1, 380739, Note_on_c, 1, 75, 127
1, 380739, Note_on_c, 1, 48, 127
1, 381966, Note_off_c, 1, 75, 0
1, 382384, Note_on_c, 1, 63, 127
1, 382384, Note_on_c, 1, 72, 127
1, 382384, Note_on_c, 1, 60, 127
1, 383201, Note_off_c, 1, 48, 0
1, 383202, Note_off_c, 1, 63, 0
1, 383202, Note_off_c, 1, 72, 0
1, 383202, Note_off_c, 1, 60, 0
1, 383207, Note_on_c, 1, 42, 127
1, 383207, Note_on_c, 1, 72, 127
1, 383207, Note_on_c, 1, 69, 127
1, 383207, Note_on_c, 1, 75, 127
1, 383613, Note_off_c, 1, 42, 0
1, 383618, Note_on_c, 1, 45, 127
1, 384024, Note_off_c, 1, 45, 0
1, 384025, Note_off_c, 1, 72, 0
1, 384025, Note_off_c, 1, 69, 0
1, 384030, Note_on_c, 1, 48, 127
1, 384030, Note_on_c, 1, 66, 127
1, 384436, Note_off_c, 1, 48, 0
1, 385058, Note_on_c, 1, 43, 127
1, 385258, Note_off_c, 1, 43, 0
1, 385671, Note_off_c, 1, 66, 0
1, 385676, Note_on_c, 1, 70, 127
1, 385676, Note_on_c, 1, 74, 127
1, 386087, Note_on_c, 1, 46, 127
1, 386493, Note_off_c, 1, 46, 0
1, 386494, Note_off_c, 1, 70, 0
1, 386494, Note_off_c, 1, 74, 0
1, 386499, Note_on_c, 1, 49, 127
1, 386499, Note_on_c, 1, 67, 127
1, 386905, Note_off_c, 1, 49, 0
1, 387527, Note_on_c, 1, 44, 127
1, 387727, Note_off_c, 1, 44, 0
1, 388140, Note_off_c, 1, 67, 0
1, 388144, Note_on_c, 1, 71, 127
1, 388144, Note_on_c, 1, 65, 127
1, 388556, Note_on_c, 1, 47, 127
1, 388962, Note_off_c, 1, 71, 0
1, 388962, Note_off_c, 1, 65, 0
1, 388962, Note_off_c, 1, 47, 0
1, 388967, Note_on_c, 1, 50, 127
1, 388967, Note_on_c, 1, 68, 127
1, 389373, Note_off_c, 1, 50, 0
1, 389785, Note_off_c, 1, 68, 0
1, 390613, Note_on_c, 1, 51, 127
1, 391418, Note_off_c, 1, 75, 0
1, 391431, Note_off_c, 1, 51, 0
1, 391436, Note_on_c, 1, 75, 127
1, 391436, Note_on_c, 1, 70, 127
1, 391436, Note_on_c, 1, 67, 127
1, 391436, Note_on_c, 1, 39, 127
1, 393113, Note_on_c, 1, 73, 127
1, 393113, Note_on_c, 1, 40, 127
1, 393116, Note_off_c, 1, 75, 0
1, 393116, Note_off_c, 1, 70, 0
1, 393116, Note_off_c, 1, 67, 0
1, 393116, Note_off_c, 1, 39, 0
1, 393519, Note_off_c, 1, 73, 0
1, 393936, Note_on_c, 1, 61, 127
1, 393936, Note_on_c, 1, 52, 127
1, 395374, Note_on_c, 1, 68, 127
1, 395574, Note_off_c, 1, 68, 0
1, 395577, Note_off_c, 1, 61, 0
1, 395577, Note_off_c, 1, 52, 0
1, 396401, Note_on_c, 1, 64, 127
1, 397628, Note_off_c, 1, 64, 0
1, 397840, Note_on_c, 1, 65, 127
1, 398040, Note_off_c, 1, 65, 0
1, 398867, Note_on_c, 1, 55, 127
1, 400305, Note_on_c, 1, 69, 127
1, 400498, Note_off_c, 1, 40, 0
1, 400505, Note_off_c, 1, 69, 0
1, 400508, Note_off_c, 1, 55, 0
1, 400510, Note_on_c, 1, 69, 127
1, 400510, Note_on_c, 1, 42, 127
1, 400710, Note_off_c, 1, 69, 0
1, 400715, Note_on_c, 1, 72, 127
1, 400813, Note_off_c, 1, 72, 0
1, 400819, Note_on_c, 1, 70, 127
1, 400917, Note_off_c, 1, 70, 0
1, 401331, Note_off_c, 1, 42, 0
1, 401336, Note_on_c, 1, 62, 127
1, 401336, Note_on_c, 1, 57, 127
1, 401953, Note_on_c, 1, 64, 127
1, 402051, Note_off_c, 1, 64, 0
1, 402057, Note_on_c, 1, 66, 127
1, 402155, Note_off_c, 1, 66, 0
1, 402160, Note_on_c, 1, 67, 127
1, 402258, Note_off_c, 1, 67, 0
1, 402836, Note_off_c, 1, 62, 0
1, 402983, Note_off_c, 1, 57, 0
1, 402988, Note_on_c, 1, 41, 127
1, 402988, Note_on_c, 1, 59, 127
1, 403394, Note_off_c, 1, 41, 0
1, 403400, Note_on_c, 1, 47, 127
1, 403806, Note_off_c, 1, 59, 0
1, 403806, Note_off_c, 1, 47, 0
1, 403811, Note_on_c, 1, 50, 127
1, 403811, Note_on_c, 1, 65, 127
1, 404217, Note_off_c, 1, 50, 0
1, 404223, Note_on_c, 1, 53, 127
1, 404629, Note_off_c, 1, 53, 0
1, 404634, Note_on_c, 1, 56, 127
1, 405040, Note_off_c, 1, 56, 0
1, 405452, Note_off_c, 1, 65, 0
1, 405457, Note_on_c, 1, 51, 127
1, 405457, Note_on_c, 1, 60, 127
1, 405457, Note_on_c, 1, 63, 127
1, 405863, Note_off_c, 1, 51, 0
1, 406275, Note_off_c, 1, 60, 0
1, 406275, Note_off_c, 1, 63, 0
1, 406280, Note_on_c, 1, 48, 127
1, 406686, Note_off_c, 1, 48, 0
1, 406691, Note_on_c, 1, 44, 127
1, 407097, Note_off_c, 1, 44, 0
1, 407514, Note_on_c, 1, 43, 127
1, 407920, Note_off_c, 1, 43, 0
1, 407942, Note_on_c, 1, 58, 127
1, 407942, Note_on_c, 1, 37, 127
1, 408364, Note_off_c, 1, 58, 0
1, 408792, Note_off_c, 1, 37, 0
1, 408829, Note_on_c, 1, 66, 127
1, 408829, Note_on_c, 1, 38, 127
1, 409028, Note_off_c, 1, 66, 0
1, 409041, Note_on_c, 1, 67, 127
1, 409255, Note_on_c, 1, 61, 127
1, 409282, Note_off_c, 1, 67, 0
1, 409469, Note_on_c, 1, 70, 127
1, 409677, Note_off_c, 1, 61, 0
1, 409683, Note_on_c, 1, 69, 127
1, 409683, Note_on_c, 1, 60, 127
1, 409683, Note_on_c, 1, 62, 127
1, 409689, Note_off_c, 1, 70, 0
1, 409904, Note_off_c, 1, 69, 0
1, 410528, Note_off_c, 1, 60, 0
1, 410528, Note_off_c, 1, 62, 0
1, 410533, Note_off_c, 1, 38, 0
1, 410538, Note_on_c, 1, 60, 127
1, 410538, Note_on_c, 1, 62, 127
1, 410538, Note_on_c, 1, 67, 127
1, 410538, Note_on_c, 1, 43, 127
1, 411012, Note_off_c, 1, 60, 0
1, 411018, Note_on_c, 1, 57, 127
1, 411487, Note_off_c, 1, 62, 0
1, 411487, Note_off_c, 1, 67, 0
1, 411492, Note_off_c, 1, 57, 0
1, 411497, Note_on_c, 1, 55, 127
1, 411497, Note_on_c, 1, 58, 127
1, 414359, Note_off_c, 1, 43, 0
1, 414369, Note_off_c, 1, 55, 0
1, 414369, Note_off_c, 1, 58, 0
1, 416194, Note_on_c, 1, 79, 127
1, 416194, Note_on_c, 1, 43, 127
1, 416552, Note_off_c, 1, 79, 0
1, 416552, Note_off_c, 1, 43, 0
1, 416553, Note_on_c, 1, 82, 127
1, 416553, Note_on_c, 1, 50, 127
1, 416731, Note_off_c, 1, 82, 0
1, 416733, Note_on_c, 1, 81, 127
1, 416911, Note_off_c, 1, 50, 0
1, 416911, Note_off_c, 1, 81, 0
1, 416913, Note_on_c, 1, 82, 127
1, 416913, Note_on_c, 1, 55, 127
1, 417271, Note_off_c, 1, 82, 0
1, 417271, Note_off_c, 1, 55, 0
1, 417273, Note_on_c, 1, 79, 127
1, 417273, Note_on_c, 1, 58, 127
1, 417451, Note_off_c, 1, 79, 0
1, 417453, Note_on_c, 1, 74, 127
1, 417631, Note_off_c, 1, 58, 0
1, 417631, Note_off_c, 1, 74, 0
1, 417632, Note_on_c, 1, 81, 127
1, 417632, Note_on_c, 1, 60, 127
1, 417990, Note_off_c, 1, 81, 0
1, 417990, Note_off_c, 1, 60, 0
1, 417992, Note_on_c, 1, 78, 127
1, 417992, Note_on_c, 1, 62, 127
1, 418170, Note_off_c, 1, 78, 0
1, 418172, Note_on_c, 1, 74, 127
1, 418350, Note_off_c, 1, 62, 0
1, 418350, Note_off_c, 1, 74, 0
1, 418352, Note_on_c, 1, 63, 127
1, 418352, Note_on_c, 1, 79, 127
1, 418530, Note_off_c, 1, 63, 0
1, 418532, Note_on_c, 1, 65, 127
1, 418710, Note_off_c, 1, 65, 0
1, 418891, Note_on_c, 1, 62, 127
1, 419069, Note_off_c, 1, 79, 0
1, 419069, Note_off_c, 1, 62, 0
1, 419071, Note_on_c, 1, 60, 127
1, 419071, Note_on_c, 1, 75, 127
1, 419249, Note_off_c, 1, 60, 0
1, 419251, Note_on_c, 1, 58, 127
1, 419429, Note_off_c, 1, 75, 0
1, 419429, Note_off_c, 1, 58, 0
1, 419431, Note_on_c, 1, 72, 127
1, 419431, Note_on_c, 1, 57, 127
1, 419609, Note_off_c, 1, 72, 0
1, 419609, Note_off_c, 1, 57, 0
1, 419610, Note_on_c, 1, 69, 127
1, 419610, Note_on_c, 1, 60, 127
1, 419788, Note_off_c, 1, 69, 0
1, 419788, Note_off_c, 1, 60, 0
1, 419790, Note_on_c, 1, 58, 127
1, 419790, Note_on_c, 1, 74, 127
1, 419968, Note_off_c, 1, 58, 0
1, 419970, Note_on_c, 1, 57, 127
1, 420148, Note_off_c, 1, 74, 0
1, 420148, Note_off_c, 1, 57, 0
1, 420150, Note_on_c, 1, 70, 127
1, 420150, Note_on_c, 1, 55, 127
1, 420328, Note_off_c, 1, 70, 0
1, 420328, Note_off_c, 1, 55, 0
1, 420330, Note_on_c, 1, 67, 127
1, 420330, Note_on_c, 1, 58, 127
1, 420508, Note_off_c, 1, 67, 0
1, 420508, Note_off_c, 1, 58, 0
1, 420510, Note_on_c, 1, 72, 127
1, 420510, Note_on_c, 1, 57, 127
1, 420688, Note_off_c, 1, 72, 0
1, 420688, Note_off_c, 1, 57, 0
1, 420689, Note_on_c, 1, 69, 127
1, 420689, Note_on_c, 1, 55, 127
1, 420867, Note_off_c, 1, 69, 0
1, 420867, Note_off_c, 1, 55, 0
1, 420869, Note_on_c, 1, 54, 127
1, 420869, Note_on_c, 1, 74, 127
1, 421047, Note_off_c, 1, 54, 0
1, 421049, Note_on_c, 1, 50, 127
1, 421227, Note_off_c, 1, 74, 0
1, 421227, Note_off_c, 1, 50, 0
1, 421229, Note_on_c, 1, 70, 127
1, 421229, Note_on_c, 1, 55, 127
1, 421587, Note_off_c, 1, 70, 0
1, 421587, Note_off_c, 1, 55, 0
1, 421588, Note_on_c, 1, 69, 127
1, 421588, Note_on_c, 1, 50, 127
1, 421766, Note_off_c, 1, 69, 0
1, 421768, Note_on_c, 1, 67, 127
1, 421946, Note_off_c, 1, 50, 0
1, 421946, Note_off_c, 1, 67, 0
1, 421948, Note_on_c, 1, 79, 127
1, 421948, Note_on_c, 1, 46, 127
1, 422306, Note_off_c, 1, 79, 0
1, 422306, Note_off_c, 1, 46, 0
1, 422308, Note_on_c, 1, 82, 127
1, 422308, Note_on_c, 1, 50, 127
1, 422486, Note_off_c, 1, 82, 0
1, 422488, Note_on_c, 1, 81, 127
1, 422666, Note_off_c, 1, 50, 0
1, 422666, Note_off_c, 1, 81, 0
1, 422667, Note_on_c, 1, 82, 127
1, 422667, Note_on_c, 1, 55, 127
1, 423025, Note_off_c, 1, 82, 0
1, 423025, Note_off_c, 1, 55, 0
1, 423027, Note_on_c, 1, 79, 127
1, 423027, Note_on_c, 1, 58, 127
1, 423205, Note_off_c, 1, 79, 0
1, 423207, Note_on_c, 1, 74, 127
1, 423385, Note_off_c, 1, 58, 0
1, 423385, Note_off_c, 1, 74, 0
1, 423387, Note_on_c, 1, 81, 127
1, 423387, Note_on_c, 1, 60, 127
1, 423745, Note_off_c, 1, 81, 0
1, 423745, Note_off_c, 1, 60, 0
1, 423746, Note_on_c, 1, 78, 127
1, 423746, Note_on_c, 1, 62, 127
1, 423924, Note_off_c, 1, 78, 0
1, 423926, Note_on_c, 1, 74, 127
1, 424104, Note_off_c, 1, 62, 0
1, 424104, Note_off_c, 1, 74, 0
1, 424106, Note_on_c, 1, 63, 127
1, 424106, Note_on_c, 1, 79, 127
1, 424284, Note_off_c, 1, 63, 0
1, 424286, Note_on_c, 1, 65, 127
1, 424464, Note_off_c, 1, 65, 0
1, 424643, Note_off_c, 1, 79, 0
1, 424645, Note_on_c, 1, 77, 127
1, 424645, Note_on_c, 1, 62, 127
1, 424823, Note_off_c, 1, 77, 0
1, 424823, Note_off_c, 1, 62, 0
1, 424825, Note_on_c, 1, 75, 127
1, 424825, Note_on_c, 1, 60, 127
1, 425003, Note_off_c, 1, 75, 0
1, 425003, Note_off_c, 1, 60, 0
1, 425005, Note_on_c, 1, 74, 127
1, 425005, Note_on_c, 1, 58, 127
1, 425183, Note_off_c, 1, 74, 0
1, 425183, Note_off_c, 1, 58, 0
1, 425185, Note_on_c, 1, 72, 127
1, 425185, Note_on_c, 1, 57, 127
1, 425363, Note_off_c, 1, 72, 0
1, 425363, Note_off_c, 1, 57, 0
1, 425365, Note_on_c, 1, 70, 127
1, 425365, Note_on_c, 1, 55, 127
1, 425543, Note_off_c, 1, 70, 0
1, 425543, Note_off_c, 1, 55, 0
1, 425544, Note_on_c, 1, 81, 127
1, 425544, Note_on_c, 1, 53, 127
1, 425722, Note_off_c, 1, 81, 0
1, 425724, Note_on_c, 1, 82, 127
1, 425902, Note_off_c, 1, 53, 0
1, 425902, Note_off_c, 1, 82, 0
1, 425904, Note_on_c, 1, 74, 127
1, 425904, Note_on_c, 1, 55, 127
1, 426082, Note_off_c, 1, 74, 0
1, 426084, Note_on_c, 1, 75, 127
1, 426262, Note_off_c, 1, 55, 0
1, 426262, Note_off_c, 1, 75, 0
1, 426264, Note_on_c, 1, 77, 127
1, 426264, Note_on_c, 1, 51, 127
1, 426442, Note_off_c, 1, 77, 0
1, 426444, Note_on_c, 1, 72, 127
1, 426622, Note_off_c, 1, 51, 0
1, 426622, Note_off_c, 1, 72, 0
1, 426623, Note_on_c, 1, 74, 127
1, 426623, Note_on_c, 1, 53, 127
1, 426981, Note_off_c, 1, 74, 0
1, 426981, Note_off_c, 1, 53, 0
1, 426983, Note_on_c, 1, 46, 127
1, 426983, Note_on_c, 1, 72, 127
1, 427161, Note_off_c, 1, 46, 0
1, 427163, Note_on_c, 1, 53, 127
1, 427341, Note_off_c, 1, 72, 0
1, 427341, Note_off_c, 1, 53, 0
1, 427343, Note_on_c, 1, 55, 127
1, 427343, Note_on_c, 1, 70, 127
1, 427521, Note_off_c, 1, 55, 0
1, 427523, Note_on_c, 1, 57, 127
1, 427701, Note_off_c, 1, 70, 0
1, 427701, Note_off_c, 1, 57, 0
1, 427702, Note_on_c, 1, 74, 127
1, 427702, Note_on_c, 1, 58, 127
1, 428060, Note_off_c, 1, 74, 0
1, 428060, Note_off_c, 1, 58, 0
1, 428062, Note_on_c, 1, 77, 127
1, 428062, Note_on_c, 1, 60, 127
1, 428240, Note_off_c, 1, 77, 0
1, 428242, Note_on_c, 1, 75, 127
1, 428420, Note_off_c, 1, 60, 0
1, 428420, Note_off_c, 1, 75, 0
1, 428422, Note_on_c, 1, 77, 127
1, 428422, Note_on_c, 1, 62, 127
1, 428780, Note_off_c, 1, 77, 0
1, 428780, Note_off_c, 1, 62, 0
1, 428781, Note_on_c, 1, 74, 127
1, 428781, Note_on_c, 1, 58, 127
1, 428959, Note_off_c, 1, 74, 0
1, 428961, Note_on_c, 1, 70, 127
1, 429139, Note_off_c, 1, 58, 0
1, 429139, Note_off_c, 1, 70, 0
1, 429141, Note_on_c, 1, 79, 127
1, 429141, Note_on_c, 1, 63, 127
1, 429499, Note_off_c, 1, 79, 0
1, 429499, Note_off_c, 1, 63, 0
1, 429501, Note_on_c, 1, 75, 127
1, 429501, Note_on_c, 1, 60, 127
1, 429679, Note_off_c, 1, 75, 0
1, 429680, Note_on_c, 1, 70, 127
1, 429858, Note_off_c, 1, 70, 0
1, 429859, Note_off_c, 1, 60, 0
1, 429860, Note_on_c, 1, 62, 127
1, 429860, Note_on_c, 1, 77, 127
1, 430038, Note_off_c, 1, 62, 0
1, 430040, Note_on_c, 1, 60, 127
1, 430218, Note_off_c, 1, 60, 0
1, 430220, Note_on_c, 1, 58, 127
1, 430398, Note_off_c, 1, 58, 0
1, 430400, Note_on_c, 1, 57, 127
1, 430577, Note_off_c, 1, 77, 0
1, 430578, Note_off_c, 1, 57, 0
1, 430579, Note_on_c, 1, 82, 127
1, 430579, Note_on_c, 1, 55, 127
1, 430757, Note_off_c, 1, 82, 0
1, 430759, Note_on_c, 1, 81, 127
1, 430937, Note_off_c, 1, 55, 0
1, 430937, Note_off_c, 1, 81, 0
1, 430939, Note_on_c, 1, 79, 127
1, 430939, Note_on_c, 1, 53, 127
1, 431117, Note_off_c, 1, 79, 0
1, 431119, Note_on_c, 1, 81, 127
1, 431297, Note_off_c, 1, 53, 0
1, 431297, Note_off_c, 1, 81, 0
1, 431299, Note_on_c, 1, 82, 127
1, 431299, Note_on_c, 1, 52, 127
1, 431477, Note_off_c, 1, 82, 0
1, 431479, Note_on_c, 1, 79, 127
1, 431657, Note_off_c, 1, 52, 0
1, 431657, Note_off_c, 1, 79, 0
1, 431658, Note_on_c, 1, 76, 127
1, 431658, Note_on_c, 1, 48, 127
1, 431836, Note_off_c, 1, 76, 0
1, 431838, Note_on_c, 1, 72, 127
1, 432016, Note_off_c, 1, 48, 0
1, 432016, Note_off_c, 1, 72, 0
1, 432018, Note_on_c, 1, 82, 127
1, 432018, Note_on_c, 1, 50, 127
1, 432196, Note_off_c, 1, 82, 0
1, 432198, Note_on_c, 1, 81, 127
1, 432376, Note_off_c, 1, 50, 0
1, 432376, Note_off_c, 1, 81, 0
1, 432378, Note_on_c, 1, 79, 127
1, 432378, Note_on_c, 1, 52, 127
1, 432556, Note_off_c, 1, 79, 0
1, 432557, Note_on_c, 1, 81, 127
1, 432735, Note_off_c, 1, 81, 0
1, 432736, Note_off_c, 1, 52, 0
1, 432737, Note_on_c, 1, 82, 127
1, 432737, Note_on_c, 1, 53, 127
1, 432915, Note_off_c, 1, 82, 0
1, 432917, Note_on_c, 1, 81, 127
1, 433095, Note_off_c, 1, 53, 0
1, 433095, Note_off_c, 1, 81, 0
1, 433097, Note_on_c, 1, 79, 127
1, 433097, Note_on_c, 1, 55, 127
1, 433275, Note_off_c, 1, 79, 0
1, 433275, Note_off_c, 1, 55, 0
1, 433277, Note_on_c, 1, 77, 127
1, 433277, Note_on_c, 1, 57, 127
1, 433455, Note_off_c, 1, 77, 0
1, 433455, Note_off_c, 1, 57, 0
1, 433457, Note_on_c, 1, 79, 127
1, 433457, Note_on_c, 1, 58, 127
1, 433635, Note_off_c, 1, 79, 0
1, 433636, Note_on_c, 1, 77, 127
1, 433814, Note_off_c, 1, 77, 0
1, 433815, Note_off_c, 1, 58, 0
1, 433816, Note_on_c, 1, 76, 127
1, 433816, Note_on_c, 1, 55, 127
1, 433994, Note_off_c, 1, 76, 0
1, 433996, Note_on_c, 1, 77, 127
1, 434174, Note_off_c, 1, 55, 0
1, 434174, Note_off_c, 1, 77, 0
1, 434176, Note_on_c, 1, 79, 127
1, 434176, Note_on_c, 1, 52, 127
1, 434354, Note_off_c, 1, 79, 0
1, 434356, Note_on_c, 1, 76, 127
1, 434534, Note_off_c, 1, 52, 0
1, 434534, Note_off_c, 1, 76, 0
1, 434535, Note_on_c, 1, 73, 127
1, 434535, Note_on_c, 1, 45, 127
1, 434713, Note_off_c, 1, 73, 0
1, 434715, Note_on_c, 1, 69, 127
1, 434893, Note_off_c, 1, 45, 0
1, 434893, Note_off_c, 1, 69, 0
1, 434895, Note_on_c, 1, 79, 127
1, 434895, Note_on_c, 1, 47, 127
1, 435073, Note_off_c, 1, 79, 0
1, 435075, Note_on_c, 1, 77, 127
1, 435253, Note_off_c, 1, 47, 0
1, 435253, Note_off_c, 1, 77, 0
1, 435255, Note_on_c, 1, 76, 127
1, 435255, Note_on_c, 1, 49, 127
1, 435433, Note_off_c, 1, 76, 0
1, 435435, Note_on_c, 1, 77, 127
1, 435613, Note_off_c, 1, 49, 0
1, 435613, Note_off_c, 1, 77, 0
1, 435614, Note_on_c, 1, 79, 127
1, 435614, Note_on_c, 1, 50, 127
1, 435792, Note_off_c, 1, 79, 0
1, 435794, Note_on_c, 1, 77, 127
1, 435972, Note_off_c, 1, 50, 0
1, 435972, Note_off_c, 1, 77, 0
1, 435974, Note_on_c, 1, 76, 127
1, 435974, Note_on_c, 1, 38, 127
1, 436152, Note_off_c, 1, 76, 0
1, 436154, Note_on_c, 1, 74, 127
1, 436332, Note_off_c, 1, 38, 0
1, 436332, Note_off_c, 1, 74, 0
1, 436334, Note_on_c, 1, 81, 127
1, 436334, Note_on_c, 1, 62, 127
1, 436692, Note_off_c, 1, 81, 0
1, 436692, Note_off_c, 1, 62, 0
1, 436693, Note_on_c, 1, 65, 127
1, 436693, Note_on_c, 1, 81, 127
1, 436871, Note_off_c, 1, 65, 0
1, 436873, Note_on_c, 1, 64, 127
1, 437051, Note_off_c, 1, 81, 0
1, 437051, Note_off_c, 1, 64, 0
1, 437053, Note_on_c, 1, 82, 127
1, 437053, Note_on_c, 1, 65, 127
1, 437139, Note_on_c, 1, 81, 127
1, 437140, Note_off_c, 1, 82, 0
1, 437226, Note_off_c, 1, 81, 0
1, 437407, Note_off_c, 1, 65, 0
1, 437409, Note_on_c, 1, 62, 127
1, 437585, Note_off_c, 1, 62, 0
1, 437588, Note_on_c, 1, 57, 127
1, 437764, Note_off_c, 1, 57, 0
1, 437766, Note_on_c, 1, 64, 127
1, 438120, Note_off_c, 1, 64, 0
1, 438122, Note_on_c, 1, 61, 127
1, 438298, Note_off_c, 1, 61, 0
1, 438658, Note_on_c, 1, 77, 127
1, 438836, Note_off_c, 1, 77, 0
1, 438838, Note_on_c, 1, 79, 127
1, 439016, Note_off_c, 1, 79, 0
1, 439198, Note_on_c, 1, 82, 127
1, 439198, Note_on_c, 1, 55, 127
1, 439376, Note_off_c, 1, 82, 0
1, 439378, Note_on_c, 1, 81, 127
1, 439556, Note_off_c, 1, 55, 0
1, 439556, Note_off_c, 1, 81, 0
1, 439557, Note_on_c, 1, 79, 127
1, 439557, Note_on_c, 1, 57, 127
1, 439735, Note_off_c, 1, 79, 0
1, 439737, Note_on_c, 1, 77, 127
1, 439915, Note_off_c, 1, 57, 0
1, 439915, Note_off_c, 1, 77, 0
1, 439917, Note_on_c, 1, 76, 127
1, 439917, Note_on_c, 1, 58, 127
1, 440095, Note_off_c, 1, 76, 0
1, 440097, Note_on_c, 1, 74, 127
1, 440275, Note_off_c, 1, 58, 0
1, 440275, Note_off_c, 1, 74, 0
1, 440277, Note_on_c, 1, 73, 127
1, 440277, Note_on_c, 1, 55, 127
1, 440455, Note_off_c, 1, 73, 0
1, 440457, Note_on_c, 1, 74, 127
1, 440635, Note_off_c, 1, 55, 0
1, 440635, Note_off_c, 1, 74, 0
1, 440636, Note_on_c, 1, 79, 127
1, 440636, Note_on_c, 1, 57, 127
1, 440814, Note_off_c, 1, 79, 0
1, 440816, Note_on_c, 1, 77, 127
1, 440994, Note_off_c, 1, 57, 0
1, 440994, Note_off_c, 1, 77, 0
1, 440996, Note_on_c, 1, 76, 127
1, 440996, Note_on_c, 1, 45, 127
1, 441174, Note_off_c, 1, 76, 0
1, 441176, Note_on_c, 1, 77, 127
1, 441354, Note_off_c, 1, 45, 0
1, 441354, Note_off_c, 1, 77, 0
1, 441356, Note_on_c, 1, 38, 127
1, 441356, Note_on_c, 1, 74, 127
1, 441534, Note_off_c, 1, 38, 0
1, 441536, Note_on_c, 1, 50, 127
1, 441714, Note_off_c, 1, 50, 0
1, 441715, Note_on_c, 1, 51, 127
1, 441893, Note_off_c, 1, 51, 0
1, 441895, Note_on_c, 1, 53, 127
1, 442073, Note_off_c, 1, 74, 0
1, 442073, Note_off_c, 1, 53, 0
1, 442075, Note_on_c, 1, 55, 127
1, 442075, Note_on_c, 1, 74, 127
1, 442162, Note_off_c, 1, 55, 0
1, 442164, Note_on_c, 1, 54, 127
1, 442251, Note_off_c, 1, 54, 0
1, 442431, Note_off_c, 1, 74, 0
1, 442433, Note_on_c, 1, 55, 127
1, 442433, Note_on_c, 1, 77, 127
1, 442520, Note_off_c, 1, 55, 0
1, 442522, Note_on_c, 1, 54, 127
1, 442609, Note_off_c, 1, 77, 0
1, 442609, Note_off_c, 1, 54, 0
1, 442611, Note_on_c, 1, 75, 127
1, 442611, Note_on_c, 1, 55, 127
1, 442789, Note_off_c, 1, 75, 0
1, 442789, Note_off_c, 1, 55, 0
1, 442791, Note_on_c, 1, 55, 127
1, 442791, Note_on_c, 1, 77, 127
1, 442878, Note_off_c, 1, 55, 0
1, 442880, Note_on_c, 1, 54, 127
1, 442967, Note_off_c, 1, 54, 0
1, 443147, Note_off_c, 1, 77, 0
1, 443149, Note_on_c, 1, 74, 127
1, 443327, Note_off_c, 1, 74, 0
1, 443329, Note_on_c, 1, 71, 127
1, 443507, Note_off_c, 1, 71, 0
1, 443509, Note_on_c, 1, 80, 127
1, 443867, Note_off_c, 1, 80, 0
1, 444228, Note_on_c, 1, 75, 127
1, 444586, Note_off_c, 1, 75, 0
1, 444588, Note_on_c, 1, 72, 127
1, 444766, Note_off_c, 1, 72, 0
1, 444767, Note_on_c, 1, 67, 127
1, 444945, Note_off_c, 1, 67, 0
1, 444947, Note_on_c, 1, 55, 127
1, 444947, Note_on_c, 1, 79, 127
1, 445034, Note_off_c, 1, 55, 0
1, 445036, Note_on_c, 1, 54, 127
1, 445123, Note_off_c, 1, 54, 0
1, 445303, Note_off_c, 1, 79, 0
1, 445305, Note_on_c, 1, 55, 127
1, 445305, Note_on_c, 1, 75, 127
1, 445392, Note_off_c, 1, 55, 0
1, 445394, Note_on_c, 1, 54, 127
1, 445481, Note_off_c, 1, 75, 0
1, 445481, Note_off_c, 1, 54, 0
1, 445483, Note_on_c, 1, 72, 127
1, 445483, Note_on_c, 1, 55, 127
1, 445661, Note_off_c, 1, 72, 0
1, 445661, Note_off_c, 1, 55, 0
1, 445663, Note_on_c, 1, 74, 127
1, 445663, Note_on_c, 1, 55, 127
1, 446021, Note_off_c, 1, 74, 0
1, 446023, Note_on_c, 1, 70, 127
1, 446201, Note_off_c, 1, 70, 0
1, 446203, Note_on_c, 1, 67, 127
1, 446380, Note_off_c, 1, 55, 0
1, 446381, Note_off_c, 1, 67, 0
1, 446383, Note_on_c, 1, 55, 127
1, 446383, Note_on_c, 1, 79, 127
1, 446470, Note_off_c, 1, 55, 0
1, 446472, Note_on_c, 1, 54, 127
1, 446559, Note_off_c, 1, 54, 0
1, 446739, Note_off_c, 1, 79, 0
1, 446741, Note_on_c, 1, 74, 127
1, 446741, Note_on_c, 1, 55, 127
1, 446919, Note_off_c, 1, 74, 0
1, 446920, Note_on_c, 1, 70, 127
1, 447098, Note_off_c, 1, 70, 0
1, 447099, Note_off_c, 1, 55, 0
1, 447100, Note_on_c, 1, 72, 127
1, 447100, Note_on_c, 1, 55, 127
1, 447458, Note_off_c, 1, 72, 0
1, 447460, Note_on_c, 1, 69, 127
1, 447638, Note_off_c, 1, 69, 0
1, 447640, Note_on_c, 1, 66, 127
1, 447817, Note_off_c, 1, 55, 0
1, 447818, Note_off_c, 1, 66, 0
1, 447819, Note_on_c, 1, 55, 127
1, 447819, Note_on_c, 1, 75, 127
1, 447997, Note_off_c, 1, 55, 0
1, 448177, Note_off_c, 1, 75, 0
1, 448179, Note_on_c, 1, 72, 127
1, 448179, Note_on_c, 1, 55, 127
1, 448357, Note_off_c, 1, 72, 0
1, 448357, Note_off_c, 1, 55, 0
1, 448359, Note_on_c, 1, 69, 127
1, 448359, Note_on_c, 1, 55, 127
1, 448537, Note_off_c, 1, 69, 0
1, 448537, Note_off_c, 1, 55, 0
1, 448539, Note_on_c, 1, 55, 127
1, 448539, Note_on_c, 1, 74, 127
1, 448717, Note_off_c, 1, 55, 0
1, 448897, Note_off_c, 1, 74, 0
1, 448898, Note_on_c, 1, 70, 127
1, 448898, Note_on_c, 1, 55, 127
1, 449076, Note_off_c, 1, 70, 0
1, 449076, Note_off_c, 1, 55, 0
1, 449078, Note_on_c, 1, 67, 127
1, 449078, Note_on_c, 1, 55, 127
1, 449256, Note_off_c, 1, 67, 0
1, 449256, Note_off_c, 1, 55, 0
1, 449258, Note_on_c, 1, 72, 127
1, 449258, Note_on_c, 1, 55, 127
1, 449436, Note_off_c, 1, 72, 0
1, 449436, Note_off_c, 1, 55, 0
1, 449438, Note_on_c, 1, 69, 127
1, 449438, Note_on_c, 1, 54, 127
1, 449616, Note_off_c, 1, 69, 0
1, 449616, Note_off_c, 1, 54, 0
1, 449618, Note_on_c, 1, 70, 127
1, 449618, Note_on_c, 1, 55, 127
1, 449796, Note_off_c, 1, 70, 0
1, 449798, Note_on_c, 1, 67, 127
1, 449976, Note_off_c, 1, 55, 0
1, 449976, Note_off_c, 1, 67, 0
1, 449977, Note_on_c, 1, 69, 127
1, 449977, Note_on_c, 1, 50, 127
1, 450155, Note_off_c, 1, 69, 0
1, 450157, Note_on_c, 1, 62, 127
1, 450335, Note_off_c, 1, 50, 0
1, 450335, Note_off_c, 1, 62, 0
1, 450337, Note_on_c, 1, 64, 127
1, 450337, Note_on_c, 1, 48, 127
1, 450515, Note_off_c, 1, 64, 0
1, 450517, Note_on_c, 1, 66, 127
1, 450695, Note_off_c, 1, 48, 0
1, 450695, Note_off_c, 1, 66, 0
1, 450697, Note_on_c, 1, 67, 127
1, 450697, Note_on_c, 1, 46, 127
1, 450875, Note_off_c, 1, 67, 0
1, 450876, Note_on_c, 1, 69, 127
1, 451054, Note_off_c, 1, 69, 0
1, 451055, Note_off_c, 1, 46, 0
1, 451056, Note_on_c, 1, 70, 127
1, 451056, Note_on_c, 1, 50, 127
1, 451234, Note_off_c, 1, 70, 0
1, 451236, Note_on_c, 1, 67, 127
1, 451414, Note_off_c, 1, 50, 0
1, 451414, Note_off_c, 1, 67, 0
1, 451416, Note_on_c, 1, 75, 127
1, 451416, Note_on_c, 1, 42, 127
1, 451594, Note_off_c, 1, 75, 0
1, 451596, Note_on_c, 1, 72, 127
1, 451774, Note_off_c, 1, 42, 0
1, 451774, Note_off_c, 1, 72, 0
1, 451776, Note_on_c, 1, 74, 127
1, 451776, Note_on_c, 1, 50, 127
1, 451954, Note_off_c, 1, 74, 0
1, 451955, Note_on_c, 1, 70, 127
1, 452133, Note_off_c, 1, 70, 0
1, 452134, Note_off_c, 1, 50, 0
1, 452135, Note_on_c, 1, 72, 127
1, 452135, Note_on_c, 1, 43, 127
1, 452313, Note_off_c, 1, 72, 0
1, 452315, Note_on_c, 1, 69, 127
1, 452493, Note_off_c, 1, 43, 0
1, 452493, Note_off_c, 1, 69, 0
1, 452495, Note_on_c, 1, 70, 127
1, 452495, Note_on_c, 1, 50, 127
1, 452673, Note_off_c, 1, 70, 0
1, 452675, Note_on_c, 1, 67, 127
1, 452853, Note_off_c, 1, 50, 0
1, 452853, Note_off_c, 1, 67, 0
1, 452854, Note_on_c, 1, 38, 127
1, 452854, Note_on_c, 1, 69, 127
1, 453212, Note_off_c, 1, 38, 0
1, 453214, Note_on_c, 1, 50, 127
1, 453214, Note_on_c, 1, 62, 127
1, 453254, Note_off_c, 1, 69, 0
1, 453392, Note_off_c, 1, 50, 0
1, 453394, Note_on_c, 1, 48, 127
1, 453494, Note_off_c, 1, 62, 0
1, 453572, Note_off_c, 1, 48, 0
1, 453574, Note_on_c, 1, 67, 127
1, 453574, Note_on_c, 1, 46, 127
1, 453932, Note_off_c, 1, 67, 0
1, 453932, Note_off_c, 1, 46, 0
1, 453933, Note_on_c, 1, 70, 127
1, 453933, Note_on_c, 1, 45, 127
1, 454111, Note_off_c, 1, 70, 0
1, 454113, Note_on_c, 1, 69, 127
1, 454291, Note_off_c, 1, 45, 0
1, 454291, Note_off_c, 1, 69, 0
1, 454293, Note_on_c, 1, 70, 127
1, 454293, Note_on_c, 1, 43, 127
1, 454473, Note_on_c, 1, 66, 127
1, 454513, Note_off_c, 1, 70, 0
1, 454651, Note_off_c, 1, 66, 0
1, 454653, Note_on_c, 1, 67, 127
1, 454743, Note_off_c, 1, 43, 0
1, 454831, Note_off_c, 1, 67, 0
1, 454832, Note_on_c, 1, 62, 127
1, 455010, Note_off_c, 1, 62, 0
1, 455012, Note_on_c, 1, 71, 127
1, 455012, Note_on_c, 1, 41, 127
1, 455192, Note_on_c, 1, 65, 127
1, 455232, Note_off_c, 1, 71, 0
1, 455370, Note_off_c, 1, 65, 0
1, 455372, Note_on_c, 1, 67, 127
1, 455462, Note_off_c, 1, 41, 0
1, 455550, Note_off_c, 1, 67, 0
1, 455552, Note_on_c, 1, 62, 127
1, 455730, Note_off_c, 1, 62, 0
1, 455732, Note_on_c, 1, 72, 127
1, 455732, Note_on_c, 1, 39, 127
1, 455911, Note_on_c, 1, 62, 127
1, 455952, Note_off_c, 1, 72, 0
1, 456089, Note_off_c, 1, 62, 0
1, 456090, Note_off_c, 1, 39, 0
1, 456091, Note_on_c, 1, 63, 127
1, 456091, Note_on_c, 1, 55, 127
1, 456269, Note_off_c, 1, 63, 0
1, 456269, Note_off_c, 1, 55, 0
1, 456271, Note_on_c, 1, 67, 127
1, 456271, Note_on_c, 1, 53, 127
1, 456449, Note_off_c, 1, 67, 0
1, 456449, Note_off_c, 1, 53, 0
1, 456451, Note_on_c, 1, 72, 127
1, 456451, Note_on_c, 1, 51, 127
1, 456629, Note_off_c, 1, 72, 0
1, 456631, Note_on_c, 1, 67, 127
1, 456809, Note_off_c, 1, 51, 0
1, 456809, Note_off_c, 1, 67, 0
1, 456810, Note_on_c, 1, 74, 127
1, 456810, Note_on_c, 1, 50, 127
1, 456988, Note_off_c, 1, 74, 0
1, 456990, Note_on_c, 1, 67, 127
1, 457168, Note_off_c, 1, 50, 0
1, 457168, Note_off_c, 1, 67, 0
1, 457170, Note_on_c, 1, 75, 127
1, 457170, Note_on_c, 1, 48, 127
1, 457350, Note_on_c, 1, 71, 127
1, 457390, Note_off_c, 1, 75, 0
1, 457528, Note_off_c, 1, 71, 0
1, 457530, Note_on_c, 1, 72, 127
1, 457620, Note_off_c, 1, 48, 0
1, 457708, Note_off_c, 1, 72, 0
1, 457710, Note_on_c, 1, 67, 127
1, 457888, Note_off_c, 1, 67, 0
1, 457889, Note_on_c, 1, 76, 127
1, 457889, Note_on_c, 1, 46, 127
1, 458069, Note_on_c, 1, 70, 127
1, 458109, Note_off_c, 1, 76, 0
1, 458247, Note_off_c, 1, 70, 0
1, 458249, Note_on_c, 1, 72, 127
1, 458339, Note_off_c, 1, 46, 0
1, 458427, Note_off_c, 1, 72, 0
1, 458429, Note_on_c, 1, 67, 127
1, 458607, Note_off_c, 1, 67, 0
1, 458609, Note_on_c, 1, 77, 127
1, 458609, Note_on_c, 1, 45, 127
1, 458789, Note_on_c, 1, 67, 127
1, 458829, Note_off_c, 1, 77, 0
1, 458967, Note_off_c, 1, 45, 0
1, 458967, Note_off_c, 1, 67, 0
1, 458968, Note_on_c, 1, 69, 127
1, 458968, Note_on_c, 1, 60, 127
1, 459146, Note_off_c, 1, 69, 0
1, 459146, Note_off_c, 1, 60, 0
1, 459148, Note_on_c, 1, 72, 127
1, 459148, Note_on_c, 1, 58, 127
1, 459326, Note_off_c, 1, 72, 0
1, 459326, Note_off_c, 1, 58, 0
1, 459328, Note_on_c, 1, 78, 127
1, 459328, Note_on_c, 1, 57, 127
1, 459508, Note_on_c, 1, 72, 127
1, 459548, Note_off_c, 1, 78, 0
1, 459686, Note_off_c, 1, 57, 0
1, 459686, Note_off_c, 1, 72, 0
1, 459688, Note_on_c, 1, 79, 127
1, 459688, Note_on_c, 1, 55, 127
1, 459867, Note_on_c, 1, 72, 127
1, 459908, Note_off_c, 1, 79, 0
1, 460045, Note_off_c, 1, 72, 0
1, 460046, Note_off_c, 1, 55, 0
1, 460047, Note_on_c, 1, 81, 127
1, 460047, Note_on_c, 1, 54, 127
1, 460227, Note_on_c, 1, 76, 127
1, 460267, Note_off_c, 1, 81, 0
1, 460405, Note_off_c, 1, 76, 0
1, 460407, Note_on_c, 1, 78, 127
1, 460497, Note_off_c, 1, 54, 0
1, 460587, Note_on_c, 1, 74, 127
1, 460627, Note_off_c, 1, 78, 0
1, 460765, Note_off_c, 1, 74, 0
1, 460767, Note_on_c, 1, 82, 127
1, 460767, Note_on_c, 1, 52, 127
1, 460945, Note_off_c, 1, 82, 0
1, 460946, Note_on_c, 1, 78, 127
1, 461124, Note_off_c, 1, 78, 0
1, 461126, Note_on_c, 1, 79, 127
1, 461217, Note_off_c, 1, 52, 0
1, 461304, Note_off_c, 1, 79, 0
1, 461306, Note_on_c, 1, 74, 127
1, 461484, Note_off_c, 1, 74, 0
1, 461486, Note_on_c, 1, 84, 127
1, 461486, Note_on_c, 1, 50, 127
1, 461664, Note_off_c, 1, 84, 0
1, 461666, Note_on_c, 1, 81, 127
1, 461844, Note_off_c, 1, 50, 0
1, 461844, Note_off_c, 1, 81, 0
1, 461845, Note_on_c, 1, 74, 127
1, 461845, Note_on_c, 1, 54, 127
1, 462023, Note_off_c, 1, 74, 0
1, 462025, Note_on_c, 1, 84, 127
1, 462203, Note_off_c, 1, 54, 0
1, 462203, Note_off_c, 1, 84, 0
1, 462205, Note_on_c, 1, 82, 127
1, 462205, Note_on_c, 1, 55, 127
1, 462383, Note_off_c, 1, 82, 0
1, 462385, Note_on_c, 1, 81, 127
1, 462563, Note_off_c, 1, 55, 0
1, 462563, Note_off_c, 1, 81, 0
1, 462565, Note_on_c, 1, 79, 127
1, 462565, Note_on_c, 1, 57, 127
1, 462743, Note_off_c, 1, 79, 0
1, 462745, Note_on_c, 1, 78, 127
1, 462923, Note_off_c, 1, 57, 0
1, 462923, Note_off_c, 1, 78, 0
1, 462924, Note_on_c, 1, 79, 127
1, 462924, Note_on_c, 1, 58, 127
1, 463102, Note_off_c, 1, 79, 0
1, 463104, Note_on_c, 1, 74, 127
1, 463282, Note_off_c, 1, 58, 0
1, 463282, Note_off_c, 1, 74, 0
1, 463284, Note_on_c, 1, 75, 127
1, 463284, Note_on_c, 1, 60, 127
1, 463462, Note_off_c, 1, 75, 0
1, 463464, Note_on_c, 1, 72, 127
1, 463642, Note_off_c, 1, 60, 0
1, 463642, Note_off_c, 1, 72, 0
1, 463644, Note_on_c, 1, 72, 127
1, 463644, Note_on_c, 1, 62, 127
1, 463731, Note_off_c, 1, 72, 0
1, 463733, Note_on_c, 1, 70, 127
1, 463820, Note_off_c, 1, 70, 0
1, 463998, Note_off_c, 1, 62, 0
1, 464000, Note_on_c, 1, 69, 127
1, 464000, Note_on_c, 1, 50, 127
1, 464178, Note_off_c, 1, 69, 0
1, 464180, Note_on_c, 1, 67, 127
1, 464358, Note_off_c, 1, 50, 0
1, 464358, Note_off_c, 1, 67, 0
1, 464360, Note_on_c, 1, 67, 127
1, 464360, Note_on_c, 1, 43, 127
1, 465077, Note_off_c, 1, 67, 0
1, 465077, Note_off_c, 1, 43, 0
1, 465079, Note_on_c, 1, 62, 127
1, 465079, Note_on_c, 1, 59, 127
1, 465079, Note_on_c, 1, 55, 127
1, 465437, Note_off_c, 1, 62, 0
1, 465437, Note_off_c, 1, 59, 0
1, 465439, Note_on_c, 1, 64, 127
1, 465439, Note_on_c, 1, 57, 127
1, 465617, Note_off_c, 1, 64, 0
1, 465618, Note_on_c, 1, 60, 127
1, 465796, Note_off_c, 1, 60, 0
1, 465797, Note_off_c, 1, 57, 0
1, 466158, Note_on_c, 1, 67, 127
1, 466336, Note_off_c, 1, 67, 0
1, 466338, Note_on_c, 1, 69, 127
1, 466516, Note_off_c, 1, 69, 0
1, 466518, Note_on_c, 1, 71, 127
1, 466876, Note_off_c, 1, 71, 0
1, 467057, Note_on_c, 1, 66, 127
1, 467235, Note_off_c, 1, 66, 0
1, 467948, Note_off_c, 1, 55, 0
1, 467954, Note_on_c, 1, 67, 127
1, 467954, Note_on_c, 1, 59, 127
1, 467954, Note_on_c, 1, 55, 127
1, 468312, Note_off_c, 1, 67, 0
1, 468312, Note_off_c, 1, 59, 0
1, 468314, Note_on_c, 1, 69, 127
1, 468314, Note_on_c, 1, 57, 127
1, 468492, Note_off_c, 1, 69, 0
1, 468494, Note_on_c, 1, 66, 127
1, 468672, Note_off_c, 1, 57, 0
1, 468672, Note_off_c, 1, 66, 0
1, 469033, Note_on_c, 1, 71, 127
1, 469033, Note_on_c, 1, 60, 127
1, 469211, Note_off_c, 1, 71, 0
1, 469213, Note_on_c, 1, 72, 127
1, 469391, Note_off_c, 1, 60, 0
1, 469391, Note_off_c, 1, 72, 0
1, 469393, Note_on_c, 1, 74, 127
1, 469571, Note_off_c, 1, 74, 0
1, 470108, Note_off_c, 1, 55, 0
1, 470112, Note_on_c, 1, 71, 127
1, 470112, Note_on_c, 1, 55, 127
1, 470829, Note_off_c, 1, 71, 0
1, 470829, Note_off_c, 1, 55, 0
1, 470832, Note_on_c, 1, 74, 127
1, 470832, Note_on_c, 1, 59, 127
1, 470832, Note_on_c, 1, 55, 127
1, 471190, Note_off_c, 1, 74, 0
1, 471190, Note_off_c, 1, 59, 0
1, 471191, Note_on_c, 1, 76, 127
1, 471191, Note_on_c, 1, 57, 127
1, 471369, Note_off_c, 1, 76, 0
1, 471371, Note_on_c, 1, 72, 127
1, 471549, Note_off_c, 1, 57, 0
1, 471549, Note_off_c, 1, 72, 0
1, 471911, Note_on_c, 1, 64, 127
1, 472090, Note_on_c, 1, 69, 127
1, 472268, Note_off_c, 1, 69, 0
1, 472269, Note_off_c, 1, 64, 0
1, 472270, Note_on_c, 1, 71, 127
1, 472270, Note_on_c, 1, 62, 127
1, 472448, Note_off_c, 1, 71, 0
1, 472450, Note_on_c, 1, 67, 127
1, 472628, Note_off_c, 1, 62, 0
1, 472628, Note_off_c, 1, 67, 0
1, 472630, Note_on_c, 1, 60, 127
1, 472810, Note_on_c, 1, 66, 127
1, 472988, Note_off_c, 1, 60, 0
1, 472988, Note_off_c, 1, 66, 0
1, 473701, Note_off_c, 1, 55, 0
1, 473707, Note_on_c, 1, 64, 127
1, 473707, Note_on_c, 1, 60, 127
1, 473707, Note_on_c, 1, 55, 127
1, 473885, Note_off_c, 1, 64, 0
1, 473887, Note_on_c, 1, 62, 127
1, 474065, Note_off_c, 1, 60, 0
1, 474065, Note_off_c, 1, 62, 0
1, 474067, Note_on_c, 1, 67, 127
1, 474067, Note_on_c, 1, 59, 127
1, 474245, Note_off_c, 1, 67, 0
1, 474425, Note_off_c, 1, 59, 0
1, 475505, Note_on_c, 1, 69, 127
1, 475685, Note_on_c, 1, 57, 127
1, 475863, Note_off_c, 1, 69, 0
1, 475863, Note_off_c, 1, 57, 0
1, 475865, Note_on_c, 1, 66, 127
1, 476576, Note_off_c, 1, 55, 0
1, 476581, Note_off_c, 1, 66, 0
1, 476583, Note_on_c, 1, 69, 127
1, 476583, Note_on_c, 1, 60, 127
1, 476583, Note_on_c, 1, 55, 127
1, 476941, Note_off_c, 1, 69, 0
1, 476941, Note_off_c, 1, 60, 0
1, 476942, Note_on_c, 1, 71, 127
1, 476942, Note_on_c, 1, 62, 127
1, 477120, Note_off_c, 1, 71, 0
1, 477122, Note_on_c, 1, 67, 127
1, 477300, Note_off_c, 1, 62, 0
1, 477300, Note_off_c, 1, 67, 0
1, 477302, Note_on_c, 1, 72, 127
1, 477302, Note_on_c, 1, 64, 127
1, 477660, Note_off_c, 1, 72, 0
1, 477660, Note_off_c, 1, 64, 0
1, 478021, Note_on_c, 1, 76, 127
1, 478199, Note_off_c, 1, 76, 0
1, 478381, Note_on_c, 1, 74, 127
1, 478381, Note_on_c, 1, 59, 127
1, 478559, Note_off_c, 1, 74, 0
1, 478739, Note_off_c, 1, 59, 0
1, 478740, Note_on_c, 1, 57, 127
1, 479098, Note_off_c, 1, 57, 0
1, 479452, Note_off_c, 1, 55, 0
1, 479458, Note_on_c, 1, 69, 127
1, 479458, Note_on_c, 1, 60, 127
1, 479458, Note_on_c, 1, 55, 127
1, 479636, Note_off_c, 1, 69, 0
1, 479638, Note_on_c, 1, 71, 127
1, 479816, Note_off_c, 1, 60, 0
1, 479816, Note_off_c, 1, 71, 0
1, 479818, Note_on_c, 1, 72, 127
1, 479818, Note_on_c, 1, 62, 127
1, 479996, Note_off_c, 1, 72, 0
1, 480176, Note_off_c, 1, 62, 0
1, 480357, Note_on_c, 1, 67, 127
1, 480535, Note_off_c, 1, 67, 0
1, 480537, Note_on_c, 1, 66, 127
1, 480537, Note_on_c, 1, 64, 127
1, 480715, Note_off_c, 1, 66, 0
1, 480895, Note_off_c, 1, 64, 0
1, 481616, Note_on_c, 1, 59, 127
1, 481974, Note_off_c, 1, 59, 0
1, 482327, Note_off_c, 1, 55, 0
1, 482693, Note_on_c, 1, 57, 127
1, 483051, Note_off_c, 1, 57, 0
1, 485225, Note_on_c, 1, 71, 127
1, 485225, Note_on_c, 1, 62, 127
1, 485225, Note_on_c, 1, 55, 127
1, 485403, Note_off_c, 1, 71, 0
1, 485405, Note_on_c, 1, 66, 127
1, 485583, Note_off_c, 1, 66, 0
1, 485585, Note_on_c, 1, 67, 127
1, 485764, Note_off_c, 1, 62, 0
1, 485805, Note_off_c, 1, 67, 0
1, 485962, Note_on_c, 1, 74, 127
1, 485962, Note_on_c, 1, 59, 127
1, 486140, Note_off_c, 1, 74, 0
1, 486679, Note_off_c, 1, 59, 0
1, 489730, Note_off_c, 1, 55, 0
1, 491387, Note_on_c, 1, 74, 127
1, 491540, Note_off_c, 1, 74, 0
1, 491558, Note_on_c, 1, 75, 127
1, 491726, Note_off_c, 1, 75, 0
1, 491730, Note_on_c, 1, 74, 127
1, 491890, Note_off_c, 1, 74, 0
1, 491900, Note_on_c, 1, 72, 127
1, 492053, Note_off_c, 1, 72, 0
1, 492072, Note_on_c, 1, 70, 127
1, 492240, Note_off_c, 1, 70, 0
1, 492244, Note_on_c, 1, 69, 127
1, 492404, Note_off_c, 1, 69, 0
1, 492414, Note_on_c, 1, 67, 127
1, 492567, Note_off_c, 1, 67, 0
1, 492585, Note_on_c, 1, 66, 127
1, 492753, Note_off_c, 1, 66, 0
1, 492757, Note_on_c, 1, 69, 127
1, 492917, Note_off_c, 1, 69, 0
1, 492927, Note_on_c, 1, 62, 127
1, 493080, Note_off_c, 1, 62, 0
1, 493099, Note_on_c, 1, 60, 127
1, 493267, Note_off_c, 1, 60, 0
1, 493271, Note_on_c, 1, 58, 127
1, 493431, Note_off_c, 1, 58, 0
1, 493441, Note_on_c, 1, 57, 127
1, 493594, Note_off_c, 1, 57, 0
1, 493612, Note_on_c, 1, 58, 127
1, 493780, Note_off_c, 1, 58, 0
1, 493784, Note_on_c, 1, 62, 127
1, 493944, Note_off_c, 1, 62, 0
1, 493954, Note_on_c, 1, 67, 127
1, 494107, Note_off_c, 1, 67, 0
1, 494126, Note_on_c, 1, 57, 127
1, 494294, Note_off_c, 1, 57, 0
1, 494298, Note_on_c, 1, 67, 127
1, 494458, Note_off_c, 1, 67, 0
1, 494468, Note_on_c, 1, 66, 127
1, 494621, Note_off_c, 1, 66, 0
1, 494640, Note_on_c, 1, 67, 127
1, 494808, Note_off_c, 1, 67, 0
1, 494811, Note_on_c, 1, 70, 127
1, 494971, Note_off_c, 1, 70, 0
1, 494981, Note_on_c, 1, 69, 127
1, 495134, Note_off_c, 1, 69, 0
1, 495153, Note_on_c, 1, 70, 127
1, 495321, Note_off_c, 1, 70, 0
1, 495325, Note_on_c, 1, 74, 127
1, 495485, Note_off_c, 1, 74, 0
1, 495495, Note_on_c, 1, 72, 127
1, 495495, Note_on_c, 1, 67, 127
1, 495648, Note_off_c, 1, 72, 0
1, 495648, Note_off_c, 1, 67, 0
1, 495667, Note_on_c, 1, 70, 127
1, 495667, Note_on_c, 1, 74, 127
1, 495835, Note_off_c, 1, 70, 0
1, 495838, Note_on_c, 1, 69, 127
1, 495998, Note_off_c, 1, 69, 0
1, 496008, Note_on_c, 1, 67, 127
1, 496161, Note_off_c, 1, 67, 0
1, 496180, Note_on_c, 1, 65, 127
1, 496348, Note_off_c, 1, 65, 0
1, 496349, Note_off_c, 1, 74, 0
1, 496352, Note_on_c, 1, 76, 127
1, 496352, Note_on_c, 1, 64, 127
1, 496512, Note_off_c, 1, 76, 0
1, 496512, Note_off_c, 1, 64, 0
1, 496522, Note_on_c, 1, 77, 127
1, 496522, Note_on_c, 1, 62, 127
1, 496675, Note_off_c, 1, 77, 0
1, 496675, Note_off_c, 1, 62, 0
1, 496694, Note_on_c, 1, 61, 127
1, 496694, Note_on_c, 1, 76, 127
1, 496862, Note_off_c, 1, 61, 0
1, 496865, Note_on_c, 1, 64, 127
1, 497025, Note_off_c, 1, 64, 0
1, 497036, Note_on_c, 1, 57, 127
1, 497189, Note_off_c, 1, 57, 0
1, 497207, Note_on_c, 1, 55, 127
1, 497375, Note_off_c, 1, 55, 0
1, 497376, Note_off_c, 1, 76, 0
1, 497379, Note_on_c, 1, 77, 127
1, 497379, Note_on_c, 1, 53, 127
1, 497539, Note_off_c, 1, 77, 0
1, 497539, Note_off_c, 1, 53, 0
1, 497549, Note_on_c, 1, 79, 127
1, 497549, Note_on_c, 1, 52, 127
1, 497702, Note_off_c, 1, 79, 0
1, 497702, Note_off_c, 1, 52, 0
1, 497721, Note_on_c, 1, 81, 127
1, 497721, Note_on_c, 1, 53, 127
1, 497889, Note_off_c, 1, 81, 0
1, 497889, Note_off_c, 1, 53, 0
1, 497892, Note_on_c, 1, 79, 127
1, 497892, Note_on_c, 1, 57, 127
1, 498052, Note_off_c, 1, 79, 0
1, 498052, Note_off_c, 1, 57, 0
1, 498063, Note_on_c, 1, 77, 127
1, 498063, Note_on_c, 1, 62, 127
1, 498216, Note_off_c, 1, 77, 0
1, 498216, Note_off_c, 1, 62, 0
1, 498234, Note_on_c, 1, 79, 127
1, 498234, Note_on_c, 1, 52, 127
1, 498402, Note_off_c, 1, 79, 0
1, 498402, Note_off_c, 1, 52, 0
1, 498406, Note_on_c, 1, 77, 127
1, 498406, Note_on_c, 1, 62, 127
1, 498566, Note_off_c, 1, 77, 0
1, 498566, Note_off_c, 1, 62, 0
1, 498576, Note_on_c, 1, 76, 127
1, 498576, Note_on_c, 1, 61, 127
1, 498729, Note_off_c, 1, 76, 0
1, 498729, Note_off_c, 1, 61, 0
1, 498748, Note_on_c, 1, 77, 127
1, 498748, Note_on_c, 1, 62, 127
1, 498916, Note_off_c, 1, 77, 0
1, 498920, Note_on_c, 1, 79, 127
1, 499080, Note_off_c, 1, 79, 0
1, 499090, Note_on_c, 1, 81, 127
1, 499243, Note_off_c, 1, 81, 0
1, 499261, Note_on_c, 1, 74, 127
1, 499430, Note_off_c, 1, 62, 0
1, 499433, Note_on_c, 1, 64, 127
1, 499593, Note_off_c, 1, 64, 0
1, 499603, Note_on_c, 1, 65, 127
1, 499756, Note_off_c, 1, 65, 0
1, 499943, Note_off_c, 1, 74, 0
1, 499947, Note_on_c, 1, 72, 127
1, 500107, Note_off_c, 1, 72, 0
1, 500117, Note_on_c, 1, 70, 127
1, 500270, Note_off_c, 1, 70, 0
1, 500460, Note_on_c, 1, 66, 127
1, 500620, Note_off_c, 1, 66, 0
1, 500630, Note_on_c, 1, 67, 127
1, 500783, Note_off_c, 1, 67, 0
1, 500802, Note_on_c, 1, 69, 127
1, 500970, Note_off_c, 1, 69, 0
1, 501144, Note_on_c, 1, 74, 127
1, 501144, Note_on_c, 1, 66, 127
1, 501297, Note_off_c, 1, 74, 0
1, 501297, Note_off_c, 1, 66, 0
1, 501316, Note_on_c, 1, 67, 127
1, 501316, Note_on_c, 1, 70, 127
1, 501484, Note_off_c, 1, 67, 0
1, 501487, Note_on_c, 1, 66, 127
1, 501647, Note_off_c, 1, 66, 0
1, 501654, Note_off_c, 1, 70, 0
1, 501657, Note_on_c, 1, 72, 127
1, 501657, Note_on_c, 1, 64, 127
1, 501810, Note_off_c, 1, 72, 0
1, 501810, Note_off_c, 1, 64, 0
1, 501829, Note_on_c, 1, 66, 127
1, 501829, Note_on_c, 1, 69, 127
1, 501997, Note_off_c, 1, 66, 0
1, 502001, Note_on_c, 1, 64, 127
1, 502161, Note_off_c, 1, 64, 0
1, 502167, Note_off_c, 1, 69, 0
1, 502171, Note_on_c, 1, 70, 127
1, 502171, Note_on_c, 1, 62, 127
1, 502324, Note_off_c, 1, 70, 0
1, 502324, Note_off_c, 1, 62, 0
1, 502343, Note_on_c, 1, 64, 127
1, 502343, Note_on_c, 1, 72, 127
1, 502511, Note_off_c, 1, 64, 0
1, 502514, Note_on_c, 1, 67, 127
1, 502674, Note_off_c, 1, 67, 0
1, 502681, Note_off_c, 1, 72, 0
1, 502684, Note_on_c, 1, 74, 127
1, 502684, Note_on_c, 1, 62, 127
1, 502684, Note_on_c, 1, 66, 127
1, 502837, Note_off_c, 1, 74, 0
1, 502837, Note_off_c, 1, 62, 0
1, 502837, Note_off_c, 1, 66, 0
1, 502856, Note_on_c, 1, 63, 127
1, 502856, Note_on_c, 1, 70, 127
1, 502856, Note_on_c, 1, 67, 127
1, 503024, Note_off_c, 1, 63, 0
1, 503028, Note_on_c, 1, 62, 127
1, 503188, Note_off_c, 1, 62, 0
1, 503194, Note_off_c, 1, 70, 0
1, 503198, Note_on_c, 1, 72, 127
1, 503198, Note_on_c, 1, 60, 127
1, 503351, Note_off_c, 1, 72, 0
1, 503351, Note_off_c, 1, 60, 0
1, 503370, Note_on_c, 1, 58, 127
1, 503370, Note_on_c, 1, 74, 127
1, 503538, Note_off_c, 1, 67, 0
1, 503538, Note_off_c, 1, 58, 0
1, 503541, Note_on_c, 1, 69, 127
1, 503541, Note_on_c, 1, 57, 127
1, 503701, Note_off_c, 1, 69, 0
1, 503701, Note_off_c, 1, 57, 0
1, 503712, Note_on_c, 1, 55, 127
1, 503865, Note_off_c, 1, 55, 0
1, 503883, Note_on_c, 1, 54, 127
1, 504051, Note_off_c, 1, 54, 0
1, 504222, Note_off_c, 1, 74, 0
1, 504225, Note_on_c, 1, 76, 127
1, 504225, Note_on_c, 1, 50, 127
1, 504378, Note_off_c, 1, 76, 0
1, 504378, Note_off_c, 1, 50, 0
1, 504397, Note_on_c, 1, 48, 127
1, 504397, Note_on_c, 1, 78, 127
1, 504565, Note_off_c, 1, 48, 0
1, 504569, Note_on_c, 1, 46, 127
1, 504729, Note_off_c, 1, 46, 0
1, 504739, Note_on_c, 1, 45, 127
1, 504892, Note_off_c, 1, 45, 0
1, 504907, Note_off_c, 1, 78, 0
1, 504910, Note_on_c, 1, 46, 127
1, 504910, Note_on_c, 1, 74, 127
1, 504910, Note_on_c, 1, 79, 127
1, 505078, Note_off_c, 1, 46, 0
1, 505078, Note_off_c, 1, 74, 0
1, 505082, Note_on_c, 1, 50, 127
1, 505082, Note_on_c, 1, 72, 127
1, 505242, Note_off_c, 1, 50, 0
1, 505242, Note_off_c, 1, 72, 0
1, 505252, Note_on_c, 1, 55, 127
1, 505252, Note_on_c, 1, 70, 127
1, 505405, Note_off_c, 1, 55, 0
1, 505405, Note_off_c, 1, 70, 0
1, 505420, Note_off_c, 1, 79, 0
1, 505424, Note_on_c, 1, 45, 127
1, 505424, Note_on_c, 1, 72, 127
1, 505424, Note_on_c, 1, 81, 127
1, 505592, Note_off_c, 1, 45, 0
1, 505592, Note_off_c, 1, 72, 0
1, 505596, Note_on_c, 1, 55, 127
1, 505596, Note_on_c, 1, 70, 127
1, 505756, Note_off_c, 1, 55, 0
1, 505756, Note_off_c, 1, 70, 0
1, 505766, Note_on_c, 1, 69, 127
1, 505766, Note_on_c, 1, 54, 127
1, 505919, Note_off_c, 1, 69, 0
1, 505919, Note_off_c, 1, 54, 0
1, 506109, Note_on_c, 1, 58, 127
1, 506269, Note_off_c, 1, 58, 0
1, 506279, Note_on_c, 1, 57, 127
1, 506432, Note_off_c, 1, 57, 0
1, 506447, Note_off_c, 1, 81, 0
1, 506451, Note_on_c, 1, 79, 127
1, 506623, Note_on_c, 1, 62, 127
1, 506783, Note_off_c, 1, 62, 0
1, 506793, Note_on_c, 1, 60, 127
1, 506946, Note_off_c, 1, 60, 0
1, 507133, Note_off_c, 1, 79, 0
1, 507136, Note_on_c, 1, 77, 127
1, 507296, Note_off_c, 1, 77, 0
1, 507306, Note_on_c, 1, 76, 127
1, 507459, Note_off_c, 1, 76, 0
1, 507820, Note_on_c, 1, 50, 127
1, 507973, Note_off_c, 1, 50, 0
1, 507992, Note_on_c, 1, 51, 127
1, 507992, Note_on_c, 1, 67, 127
1, 508160, Note_off_c, 1, 51, 0
1, 508333, Note_on_c, 1, 53, 127
1, 508486, Note_off_c, 1, 53, 0
1, 508505, Note_on_c, 1, 75, 127
1, 509017, Note_off_c, 1, 67, 0
1, 509019, Note_on_c, 1, 65, 127
1, 509187, Note_off_c, 1, 75, 0
1, 509190, Note_on_c, 1, 74, 127
1, 509350, Note_off_c, 1, 74, 0
1, 509874, Note_on_c, 1, 46, 127
1, 510027, Note_off_c, 1, 46, 0
1, 510044, Note_off_c, 1, 65, 0
1, 510046, Note_on_c, 1, 48, 127
1, 510046, Note_on_c, 1, 63, 127
1, 510214, Note_off_c, 1, 48, 0
1, 511071, Note_off_c, 1, 63, 0
1, 511928, Note_on_c, 1, 49, 127
1, 511928, Note_on_c, 1, 64, 127
1, 512081, Note_off_c, 1, 49, 0
1, 512081, Note_off_c, 1, 64, 0
1, 513302, Note_on_c, 1, 61, 127
1, 513462, Note_off_c, 1, 61, 0
1, 513472, Note_on_c, 1, 59, 127
1, 513625, Note_off_c, 1, 59, 0
1, 513642, Note_on_c, 1, 61, 127
1, 513812, Note_on_c, 1, 64, 127
1, 513972, Note_off_c, 1, 64, 0
1, 513982, Note_on_c, 1, 67, 127
1, 513982, Note_on_c, 1, 57, 127
1, 514135, Note_off_c, 1, 67, 0
1, 514135, Note_off_c, 1, 57, 0
1, 514147, Note_off_c, 1, 61, 0
1, 514152, Note_on_c, 1, 58, 127
1, 514152, Note_on_c, 1, 65, 127
1, 514152, Note_on_c, 1, 62, 127
1, 514320, Note_off_c, 1, 58, 0
1, 514324, Note_on_c, 1, 57, 127
1, 514484, Note_off_c, 1, 57, 0
1, 514494, Note_on_c, 1, 55, 127
1, 514647, Note_off_c, 1, 55, 0
1, 514666, Note_on_c, 1, 53, 127
1, 514834, Note_off_c, 1, 65, 0
1, 514834, Note_off_c, 1, 62, 0
1, 514834, Note_off_c, 1, 53, 0
1, 514838, Note_on_c, 1, 67, 127
1, 514838, Note_on_c, 1, 52, 127
1, 514838, Note_on_c, 1, 64, 127
1, 514998, Note_off_c, 1, 67, 0
1, 514998, Note_off_c, 1, 52, 0
1, 514998, Note_off_c, 1, 64, 0
1, 515008, Note_on_c, 1, 69, 127
1, 515008, Note_on_c, 1, 65, 127
1, 515008, Note_on_c, 1, 50, 127
1, 515161, Note_off_c, 1, 69, 0
1, 515161, Note_off_c, 1, 65, 0
1, 515161, Note_off_c, 1, 50, 0
1, 515180, Note_on_c, 1, 49, 127
1, 515180, Note_on_c, 1, 67, 127
1, 515180, Note_on_c, 1, 64, 127
1, 515348, Note_off_c, 1, 49, 0
1, 515351, Note_on_c, 1, 52, 127
1, 515511, Note_off_c, 1, 52, 0
1, 515521, Note_on_c, 1, 45, 127
1, 515674, Note_off_c, 1, 45, 0
1, 515693, Note_on_c, 1, 43, 127
1, 515861, Note_off_c, 1, 43, 0
1, 515862, Note_off_c, 1, 67, 0
1, 515862, Note_off_c, 1, 64, 0
1, 515865, Note_on_c, 1, 69, 127
1, 515865, Note_on_c, 1, 65, 127
1, 515865, Note_on_c, 1, 41, 127
1, 516025, Note_off_c, 1, 69, 0
1, 516025, Note_off_c, 1, 65, 0
1, 516025, Note_off_c, 1, 41, 0
1, 516035, Note_on_c, 1, 70, 127
1, 516035, Note_on_c, 1, 40, 127
1, 516035, Note_on_c, 1, 67, 127
1, 516188, Note_off_c, 1, 70, 0
1, 516188, Note_off_c, 1, 40, 0
1, 516188, Note_off_c, 1, 67, 0
1, 516207, Note_on_c, 1, 41, 127
1, 516207, Note_on_c, 1, 69, 127
1, 516375, Note_off_c, 1, 41, 0
1, 516378, Note_on_c, 1, 74, 127
1, 516378, Note_on_c, 1, 45, 127
1, 516538, Note_off_c, 1, 74, 0
1, 516538, Note_off_c, 1, 45, 0
1, 516548, Note_on_c, 1, 50, 127
1, 516548, Note_on_c, 1, 77, 127
1, 516701, Note_off_c, 1, 50, 0
1, 516714, Note_off_c, 1, 69, 0
1, 516719, Note_on_c, 1, 40, 127
1, 516719, Note_on_c, 1, 67, 127
1, 516886, Note_off_c, 1, 77, 0
1, 516887, Note_off_c, 1, 40, 0
1, 516890, Note_on_c, 1, 79, 127
1, 517050, Note_off_c, 1, 79, 0
1, 517060, Note_on_c, 1, 76, 127
1, 517060, Note_on_c, 1, 49, 127
1, 517213, Note_off_c, 1, 76, 0
1, 517213, Note_off_c, 1, 49, 0
1, 517226, Note_off_c, 1, 67, 0
1, 517230, Note_on_c, 1, 77, 127
1, 517230, Note_on_c, 1, 50, 127
1, 517398, Note_off_c, 1, 77, 0
1, 517402, Note_on_c, 1, 81, 127
1, 517562, Note_off_c, 1, 81, 0
1, 517572, Note_on_c, 1, 79, 127
1, 517725, Note_off_c, 1, 79, 0
1, 517912, Note_off_c, 1, 50, 0
1, 517916, Note_on_c, 1, 53, 127
1, 518076, Note_off_c, 1, 53, 0
1, 518086, Note_on_c, 1, 52, 127
1, 518239, Note_off_c, 1, 52, 0
1, 518258, Note_on_c, 1, 69, 127
1, 518258, Note_on_c, 1, 53, 127
1, 518426, Note_off_c, 1, 69, 0
1, 518426, Note_off_c, 1, 53, 0
1, 518429, Note_on_c, 1, 73, 127
1, 518429, Note_on_c, 1, 57, 127
1, 518589, Note_off_c, 1, 73, 0
1, 518589, Note_off_c, 1, 57, 0
1, 518599, Note_on_c, 1, 71, 127
1, 518599, Note_on_c, 1, 55, 127
1, 518752, Note_off_c, 1, 71, 0
1, 518752, Note_off_c, 1, 55, 0
1, 518771, Note_on_c, 1, 73, 127
1, 518771, Note_on_c, 1, 57, 127
1, 518939, Note_off_c, 1, 73, 0
1, 518943, Note_on_c, 1, 76, 127
1, 519103, Note_off_c, 1, 76, 0
1, 519113, Note_on_c, 1, 74, 127
1, 519266, Note_off_c, 1, 74, 0
1, 519281, Note_off_c, 1, 57, 0
1, 519285, Note_on_c, 1, 45, 127
1, 519285, Note_on_c, 1, 76, 127
1, 519453, Note_off_c, 1, 45, 0
1, 519456, Note_on_c, 1, 49, 127
1, 519616, Note_off_c, 1, 49, 0
1, 519626, Note_on_c, 1, 47, 127
1, 519779, Note_off_c, 1, 47, 0
1, 519795, Note_off_c, 1, 76, 0
1, 519798, Note_on_c, 1, 64, 127
1, 519798, Note_on_c, 1, 49, 127
1, 519966, Note_off_c, 1, 64, 0
1, 519966, Note_off_c, 1, 49, 0
1, 519970, Note_on_c, 1, 67, 127
1, 519970, Note_on_c, 1, 52, 127
1, 520130, Note_off_c, 1, 67, 0
1, 520130, Note_off_c, 1, 52, 0
1, 520140, Note_on_c, 1, 65, 127
1, 520140, Note_on_c, 1, 50, 127
1, 520293, Note_off_c, 1, 65, 0
1, 520293, Note_off_c, 1, 50, 0
1, 520312, Note_on_c, 1, 67, 127
1, 520312, Note_on_c, 1, 52, 127
1, 520480, Note_off_c, 1, 67, 0
1, 520483, Note_on_c, 1, 70, 127
1, 520643, Note_off_c, 1, 70, 0
1, 520653, Note_on_c, 1, 69, 127
1, 520806, Note_off_c, 1, 69, 0
1, 520994, Note_off_c, 1, 52, 0
1, 520997, Note_on_c, 1, 55, 127
1, 521157, Note_off_c, 1, 55, 0
1, 521167, Note_on_c, 1, 53, 127
1, 521320, Note_off_c, 1, 53, 0
1, 521339, Note_on_c, 1, 61, 127
1, 521339, Note_on_c, 1, 55, 127
1, 521507, Note_off_c, 1, 61, 0
1, 521510, Note_on_c, 1, 64, 127
1, 521670, Note_off_c, 1, 64, 0
1, 521681, Note_on_c, 1, 62, 127
1, 521834, Note_off_c, 1, 62, 0
1, 522021, Note_off_c, 1, 55, 0
1, 522024, Note_on_c, 1, 67, 127
1, 522024, Note_on_c, 1, 58, 127
1, 522184, Note_off_c, 1, 67, 0
1, 522184, Note_off_c, 1, 58, 0
1, 522194, Note_on_c, 1, 65, 127
1, 522194, Note_on_c, 1, 57, 127
1, 522347, Note_off_c, 1, 65, 0
1, 522347, Note_off_c, 1, 57, 0
1, 522366, Note_on_c, 1, 67, 127
1, 522366, Note_on_c, 1, 58, 127
1, 522534, Note_off_c, 1, 67, 0
1, 522534, Note_off_c, 1, 58, 0
1, 522538, Note_on_c, 1, 70, 127
1, 522538, Note_on_c, 1, 55, 127
1, 522698, Note_off_c, 1, 70, 0
1, 522698, Note_off_c, 1, 55, 0
1, 522708, Note_on_c, 1, 69, 127
1, 522708, Note_on_c, 1, 53, 127
1, 522861, Note_off_c, 1, 69, 0
1, 522861, Note_off_c, 1, 53, 0
1, 522879, Note_on_c, 1, 70, 127
1, 522879, Note_on_c, 1, 52, 127
1, 523047, Note_off_c, 1, 70, 0
1, 523047, Note_off_c, 1, 52, 0
1, 523051, Note_on_c, 1, 69, 127
1, 523051, Note_on_c, 1, 53, 127
1, 523211, Note_off_c, 1, 69, 0
1, 523211, Note_off_c, 1, 53, 0
1, 523221, Note_on_c, 1, 67, 127
1, 523221, Note_on_c, 1, 55, 127
1, 523374, Note_off_c, 1, 67, 0
1, 523374, Note_off_c, 1, 55, 0
1, 523393, Note_on_c, 1, 73, 127
1, 523393, Note_on_c, 1, 45, 127
1, 523561, Note_off_c, 1, 73, 0
1, 523565, Note_on_c, 1, 70, 127
1, 523725, Note_off_c, 1, 70, 0
1, 523735, Note_on_c, 1, 69, 127
1, 523767, Note_off_c, 1, 45, 0
1, 523888, Note_off_c, 1, 69, 0
1, 523906, Note_on_c, 1, 74, 127
1, 523906, Note_on_c, 1, 47, 127
1, 524074, Note_off_c, 1, 74, 0
1, 524078, Note_on_c, 1, 69, 127
1, 524238, Note_off_c, 1, 69, 0
1, 524248, Note_on_c, 1, 67, 127
1, 524280, Note_off_c, 1, 47, 0
1, 524401, Note_off_c, 1, 67, 0
1, 524420, Note_on_c, 1, 76, 127
1, 524420, Note_on_c, 1, 49, 127
1, 524588, Note_off_c, 1, 76, 0
1, 524592, Note_on_c, 1, 69, 127
1, 524752, Note_off_c, 1, 69, 0
1, 524758, Note_off_c, 1, 49, 0
1, 524762, Note_on_c, 1, 67, 127
1, 524762, Note_on_c, 1, 45, 127
1, 524915, Note_off_c, 1, 67, 0
1, 524915, Note_off_c, 1, 45, 0
1, 524934, Note_on_c, 1, 65, 127
1, 524934, Note_on_c, 1, 47, 127
1, 525102, Note_off_c, 1, 65, 0
1, 525105, Note_on_c, 1, 67, 127
1, 525265, Note_off_c, 1, 67, 0
1, 525272, Note_off_c, 1, 47, 0
1, 525275, Note_on_c, 1, 64, 127
1, 525275, Note_on_c, 1, 49, 127
1, 525428, Note_off_c, 1, 64, 0
1, 525428, Note_off_c, 1, 49, 0
1, 525447, Note_on_c, 1, 65, 127
1, 525447, Note_on_c, 1, 50, 127
1, 525615, Note_off_c, 1, 65, 0
1, 525619, Note_on_c, 1, 64, 127
1, 525779, Note_off_c, 1, 64, 0
1, 525789, Note_on_c, 1, 62, 127
1, 525821, Note_off_c, 1, 50, 0
1, 525942, Note_off_c, 1, 62, 0
1, 525961, Note_on_c, 1, 67, 127
1, 525961, Note_on_c, 1, 52, 127
1, 526129, Note_off_c, 1, 67, 0
1, 526132, Note_on_c, 1, 64, 127
1, 526292, Note_off_c, 1, 64, 0
1, 526302, Note_on_c, 1, 62, 127
1, 526335, Note_off_c, 1, 52, 0
1, 526455, Note_off_c, 1, 62, 0
1, 526474, Note_on_c, 1, 69, 127
1, 526474, Note_on_c, 1, 53, 127
1, 526642, Note_off_c, 1, 69, 0
1, 526646, Note_on_c, 1, 64, 127
1, 526806, Note_off_c, 1, 64, 0
1, 526816, Note_on_c, 1, 62, 127
1, 526848, Note_off_c, 1, 53, 0
1, 526969, Note_off_c, 1, 62, 0
1, 526988, Note_on_c, 1, 70, 127
1, 526988, Note_on_c, 1, 55, 127
1, 527156, Note_off_c, 1, 70, 0
1, 527159, Note_on_c, 1, 64, 127
1, 527319, Note_off_c, 1, 64, 0
1, 527330, Note_on_c, 1, 62, 127
1, 527483, Note_off_c, 1, 62, 0
1, 527501, Note_on_c, 1, 61, 127
1, 527621, Note_off_c, 1, 55, 0
1, 527669, Note_off_c, 1, 61, 0
1, 527673, Note_on_c, 1, 62, 127
1, 527673, Note_on_c, 1, 53, 127
1, 527833, Note_off_c, 1, 62, 0
1, 527833, Note_off_c, 1, 53, 0
1, 527843, Note_on_c, 1, 64, 127
1, 527843, Note_on_c, 1, 52, 127
1, 527996, Note_off_c, 1, 64, 0
1, 527996, Note_off_c, 1, 52, 0
1, 528015, Note_on_c, 1, 53, 127
1, 528015, Note_on_c, 1, 57, 127
1, 528183, Note_off_c, 1, 53, 0
1, 528186, Note_on_c, 1, 61, 127
1, 528346, Note_off_c, 1, 61, 0
1, 528353, Note_off_c, 1, 57, 0
1, 528357, Note_on_c, 1, 81, 127
1, 528357, Note_on_c, 1, 62, 127
1, 528510, Note_off_c, 1, 81, 0
1, 528510, Note_off_c, 1, 62, 0
1, 528528, Note_on_c, 1, 82, 127
1, 528528, Note_on_c, 1, 55, 127
1, 528696, Note_off_c, 1, 82, 0
1, 528696, Note_off_c, 1, 55, 0
1, 528700, Note_on_c, 1, 81, 127
1, 528700, Note_on_c, 1, 61, 127
1, 528860, Note_off_c, 1, 81, 0
1, 528860, Note_off_c, 1, 61, 0
1, 528870, Note_on_c, 1, 79, 127
1, 528870, Note_on_c, 1, 62, 127
1, 529023, Note_off_c, 1, 79, 0
1, 529023, Note_off_c, 1, 62, 0
1, 529042, Note_on_c, 1, 77, 127
1, 529042, Note_on_c, 1, 56, 127
1, 529210, Note_off_c, 1, 77, 0
1, 529210, Note_off_c, 1, 56, 0
1, 529214, Note_on_c, 1, 76, 127
1, 529214, Note_on_c, 1, 61, 127
1, 529374, Note_off_c, 1, 76, 0
1, 529374, Note_off_c, 1, 61, 0
1, 529384, Note_on_c, 1, 74, 127
1, 529384, Note_on_c, 1, 62, 127
1, 529537, Note_off_c, 1, 74, 0
1, 529537, Note_off_c, 1, 62, 0
1, 529555, Note_on_c, 1, 73, 127
1, 529555, Note_on_c, 1, 57, 127
1, 529723, Note_off_c, 1, 73, 0
1, 529723, Note_off_c, 1, 57, 0
1, 529727, Note_on_c, 1, 76, 127
1, 529727, Note_on_c, 1, 61, 127
1, 529887, Note_off_c, 1, 76, 0
1, 529887, Note_off_c, 1, 61, 0
1, 529897, Note_on_c, 1, 69, 127
1, 529897, Note_on_c, 1, 62, 127
1, 530050, Note_off_c, 1, 69, 0
1, 530050, Note_off_c, 1, 62, 0
1, 530069, Note_on_c, 1, 67, 127
1, 530069, Note_on_c, 1, 64, 127
1, 530237, Note_off_c, 1, 67, 0
1, 530237, Note_off_c, 1, 64, 0
1, 530241, Note_on_c, 1, 65, 127
1, 530241, Note_on_c, 1, 62, 127
1, 530401, Note_off_c, 1, 65, 0
1, 530401, Note_off_c, 1, 62, 0
1, 530411, Note_on_c, 1, 64, 127
1, 530411, Note_on_c, 1, 61, 127
1, 530564, Note_off_c, 1, 64, 0
1, 530564, Note_off_c, 1, 61, 0
1, 530582, Note_on_c, 1, 65, 127
1, 530582, Note_on_c, 1, 62, 127
1, 530750, Note_off_c, 1, 65, 0
1, 530750, Note_off_c, 1, 62, 0
1, 530754, Note_on_c, 1, 69, 127
1, 530754, Note_on_c, 1, 53, 127
1, 530914, Note_off_c, 1, 69, 0
1, 530914, Note_off_c, 1, 53, 0
1, 530924, Note_on_c, 1, 74, 127
1, 530924, Note_on_c, 1, 55, 127
1, 531077, Note_off_c, 1, 74, 0
1, 531077, Note_off_c, 1, 55, 0
1, 531096, Note_on_c, 1, 64, 127
1, 531096, Note_on_c, 1, 57, 127
1, 531264, Note_off_c, 1, 64, 0
1, 531264, Note_off_c, 1, 57, 0
1, 531268, Note_on_c, 1, 74, 127
1, 531268, Note_on_c, 1, 55, 127
1, 531428, Note_off_c, 1, 74, 0
1, 531428, Note_off_c, 1, 55, 0
1, 531438, Note_on_c, 1, 73, 127
1, 531438, Note_on_c, 1, 57, 127
1, 531591, Note_off_c, 1, 73, 0
1, 531591, Note_off_c, 1, 57, 0
1, 531610, Note_on_c, 1, 74, 127
1, 531610, Note_on_c, 1, 50, 127
1, 531778, Note_off_c, 1, 74, 0
1, 531778, Note_off_c, 1, 50, 0
1, 531781, Note_on_c, 1, 69, 127
1, 531781, Note_on_c, 1, 54, 127
1, 531941, Note_off_c, 1, 69, 0
1, 531941, Note_off_c, 1, 54, 0
1, 531951, Note_on_c, 1, 66, 127
1, 531951, Note_on_c, 1, 57, 127
1, 532104, Note_off_c, 1, 66, 0
1, 532104, Note_off_c, 1, 57, 0
1, 532123, Note_on_c, 1, 62, 127
1, 532461, Note_off_c, 1, 62, 0
1, 532465, Note_on_c, 1, 57, 127
1, 532618, Note_off_c, 1, 57, 0
1, 532637, Note_on_c, 1, 54, 127
1, 532805, Note_off_c, 1, 54, 0
1, 532808, Note_on_c, 1, 55, 127
1, 532968, Note_off_c, 1, 55, 0
1, 532978, Note_on_c, 1, 57, 127
1, 533131, Note_off_c, 1, 57, 0
1, 533150, Note_on_c, 1, 58, 127
1, 533318, Note_off_c, 1, 58, 0
1, 533322, Note_on_c, 1, 60, 127
1, 533482, Note_off_c, 1, 60, 0
1, 533492, Note_on_c, 1, 62, 127
1, 533645, Note_off_c, 1, 62, 0
1, 533664, Note_on_c, 1, 63, 127
1, 533832, Note_off_c, 1, 63, 0
1, 533835, Note_on_c, 1, 60, 127
1, 533995, Note_off_c, 1, 60, 0
1, 534006, Note_on_c, 1, 67, 127
1, 534159, Note_off_c, 1, 67, 0
1, 534177, Note_on_c, 1, 69, 127
1, 534345, Note_off_c, 1, 69, 0
1, 534349, Note_on_c, 1, 70, 127
1, 534509, Note_off_c, 1, 70, 0
1, 534519, Note_on_c, 1, 72, 127
1, 534672, Note_off_c, 1, 72, 0
1, 534691, Note_on_c, 1, 70, 127
1, 534859, Note_off_c, 1, 70, 0
1, 534863, Note_on_c, 1, 67, 127
1, 535023, Note_off_c, 1, 67, 0
1, 535033, Note_on_c, 1, 62, 127
1, 535186, Note_off_c, 1, 62, 0
1, 535204, Note_on_c, 1, 72, 127
1, 535372, Note_off_c, 1, 72, 0
1, 535376, Note_on_c, 1, 64, 127
1, 535536, Note_off_c, 1, 64, 0
1, 535546, Note_on_c, 1, 66, 127
1, 535699, Note_off_c, 1, 66, 0
1, 535718, Note_on_c, 1, 67, 127
1, 535886, Note_off_c, 1, 67, 0
1, 535890, Note_on_c, 1, 64, 127
1, 536050, Note_off_c, 1, 64, 0
1, 536060, Note_on_c, 1, 65, 127
1, 536213, Note_off_c, 1, 65, 0
1, 536231, Note_on_c, 1, 64, 127
1, 536399, Note_off_c, 1, 64, 0
1, 536403, Note_on_c, 1, 61, 127
1, 536563, Note_off_c, 1, 61, 0
1, 536573, Note_on_c, 1, 62, 127
1, 536573, Note_on_c, 1, 38, 127
1, 536726, Note_off_c, 1, 62, 0
1, 536726, Note_off_c, 1, 38, 0
1, 536745, Note_on_c, 1, 37, 127
1, 536745, Note_on_c, 1, 69, 127
1, 536913, Note_off_c, 1, 37, 0
1, 536917, Note_on_c, 1, 38, 127
1, 537077, Note_off_c, 1, 38, 0
1, 537087, Note_on_c, 1, 40, 127
1, 537240, Note_off_c, 1, 40, 0
1, 537258, Note_on_c, 1, 41, 127
1, 537426, Note_off_c, 1, 41, 0
1, 537427, Note_off_c, 1, 69, 0
1, 537430, Note_on_c, 1, 67, 127
1, 537430, Note_on_c, 1, 43, 127
1, 537590, Note_off_c, 1, 67, 0
1, 537590, Note_off_c, 1, 43, 0
1, 537600, Note_on_c, 1, 65, 127
1, 537600, Note_on_c, 1, 45, 127
1, 537753, Note_off_c, 1, 65, 0
1, 537753, Note_off_c, 1, 45, 0
1, 537772, Note_on_c, 1, 46, 127
1, 537772, Note_on_c, 1, 67, 127
1, 537940, Note_off_c, 1, 46, 0
1, 537944, Note_on_c, 1, 43, 127
1, 538104, Note_off_c, 1, 43, 0
1, 538114, Note_on_c, 1, 50, 127
1, 538267, Note_off_c, 1, 50, 0
1, 538286, Note_on_c, 1, 52, 127
1, 538454, Note_off_c, 1, 67, 0
1, 538454, Note_off_c, 1, 52, 0
1, 538457, Note_on_c, 1, 65, 127
1, 538457, Note_on_c, 1, 53, 127
1, 538617, Note_off_c, 1, 65, 0
1, 538617, Note_off_c, 1, 53, 0
1, 538627, Note_on_c, 1, 64, 127
1, 538627, Note_on_c, 1, 55, 127
1, 538780, Note_off_c, 1, 64, 0
1, 538780, Note_off_c, 1, 55, 0
1, 538799, Note_on_c, 1, 62, 127
1, 538799, Note_on_c, 1, 53, 127
1, 538967, Note_off_c, 1, 62, 0
1, 538967, Note_off_c, 1, 53, 0
1, 538971, Note_on_c, 1, 64, 127
1, 538971, Note_on_c, 1, 50, 127
1, 539131, Note_off_c, 1, 64, 0
1, 539131, Note_off_c, 1, 50, 0
1, 539141, Note_on_c, 1, 65, 127
1, 539141, Note_on_c, 1, 45, 127
1, 539294, Note_off_c, 1, 65, 0
1, 539294, Note_off_c, 1, 45, 0
1, 539313, Note_on_c, 1, 64, 127
1, 539313, Note_on_c, 1, 55, 127
1, 539481, Note_off_c, 1, 64, 0
1, 539481, Note_off_c, 1, 55, 0
1, 539484, Note_on_c, 1, 69, 127
1, 539484, Note_on_c, 1, 47, 127
1, 539644, Note_off_c, 1, 69, 0
1, 539644, Note_off_c, 1, 47, 0
1, 539654, Note_on_c, 1, 67, 127
1, 539654, Note_on_c, 1, 49, 127
1, 539807, Note_off_c, 1, 67, 0
1, 539807, Note_off_c, 1, 49, 0
1, 539826, Note_on_c, 1, 65, 127
1, 539826, Note_on_c, 1, 50, 127
1, 539994, Note_off_c, 1, 65, 0
1, 539998, Note_on_c, 1, 64, 127
1, 540158, Note_off_c, 1, 64, 0
1, 540168, Note_on_c, 1, 62, 127
1, 540321, Note_off_c, 1, 62, 0
1, 540340, Note_on_c, 1, 70, 127
1, 540508, Note_off_c, 1, 50, 0
1, 540511, Note_on_c, 1, 48, 127
1, 540671, Note_off_c, 1, 48, 0
1, 540682, Note_on_c, 1, 46, 127
1, 540835, Note_off_c, 1, 46, 0
1, 541022, Note_off_c, 1, 70, 0
1, 541025, Note_on_c, 1, 69, 127
1, 541185, Note_off_c, 1, 69, 0
1, 541195, Note_on_c, 1, 67, 127
1, 541348, Note_off_c, 1, 67, 0
1, 541709, Note_on_c, 1, 66, 127
1, 541709, Note_on_c, 1, 50, 127
1, 541862, Note_off_c, 1, 66, 0
1, 541862, Note_off_c, 1, 50, 0
1, 541880, Note_on_c, 1, 51, 127
1, 541880, Note_on_c, 1, 67, 127
1, 542048, Note_off_c, 1, 51, 0
1, 542052, Note_on_c, 1, 50, 127
1, 542212, Note_off_c, 1, 50, 0
1, 542218, Note_off_c, 1, 67, 0
1, 542222, Note_on_c, 1, 75, 127
1, 542222, Note_on_c, 1, 48, 127
1, 542375, Note_off_c, 1, 75, 0
1, 542375, Note_off_c, 1, 48, 0
1, 542394, Note_on_c, 1, 50, 127
1, 542394, Note_on_c, 1, 65, 127
1, 542562, Note_off_c, 1, 50, 0
1, 542566, Note_on_c, 1, 48, 127
1, 542726, Note_off_c, 1, 48, 0
1, 542732, Note_off_c, 1, 65, 0
1, 542736, Note_on_c, 1, 74, 127
1, 542736, Note_on_c, 1, 47, 127
1, 542889, Note_off_c, 1, 74, 0
1, 542889, Note_off_c, 1, 47, 0
1, 542907, Note_on_c, 1, 63, 127
1, 542907, Note_on_c, 1, 48, 127
1, 543075, Note_off_c, 1, 63, 0
1, 543079, Note_on_c, 1, 62, 127
1, 543239, Note_off_c, 1, 62, 0
1, 543245, Note_off_c, 1, 48, 0
1, 543249, Note_on_c, 1, 60, 127
1, 543249, Note_on_c, 1, 57, 127
1, 543402, Note_off_c, 1, 60, 0
1, 543402, Note_off_c, 1, 57, 0
1, 543421, Note_on_c, 1, 62, 127
1, 543421, Note_on_c, 1, 46, 127
1, 543589, Note_off_c, 1, 62, 0
1, 543593, Note_on_c, 1, 60, 127
1, 543753, Note_off_c, 1, 60, 0
1, 543759, Note_off_c, 1, 46, 0
1, 543763, Note_on_c, 1, 58, 127
1, 543763, Note_on_c, 1, 55, 127
1, 543916, Note_off_c, 1, 58, 0
1, 543916, Note_off_c, 1, 55, 0
1, 543935, Note_on_c, 1, 57, 127
1, 543935, Note_on_c, 1, 60, 127
1, 544103, Note_off_c, 1, 57, 0
1, 544106, Note_on_c, 1, 55, 127
1, 544266, Note_off_c, 1, 55, 0
1, 544273, Note_off_c, 1, 60, 0
1, 544276, Note_on_c, 1, 69, 127
1, 544276, Note_on_c, 1, 54, 127
1, 544429, Note_off_c, 1, 69, 0
1, 544429, Note_off_c, 1, 54, 0
1, 544448, Note_on_c, 1, 55, 127
1, 544448, Note_on_c, 1, 58, 127
1, 544616, Note_off_c, 1, 55, 0
1, 544620, Note_on_c, 1, 53, 127
1, 544780, Note_off_c, 1, 53, 0
1, 544786, Note_off_c, 1, 58, 0
1, 544790, Note_on_c, 1, 67, 127
1, 544790, Note_on_c, 1, 60, 127
1, 544790, Note_on_c, 1, 51, 127
1, 544943, Note_off_c, 1, 67, 0
1, 544943, Note_off_c, 1, 60, 0
1, 544943, Note_off_c, 1, 51, 0
1, 544962, Note_on_c, 1, 66, 127
1, 544962, Note_on_c, 1, 50, 127
1, 544962, Note_on_c, 1, 62, 127
1, 545130, Note_off_c, 1, 66, 0
1, 545130, Note_off_c, 1, 50, 0
1, 545133, Note_on_c, 1, 67, 127
1, 545133, Note_on_c, 1, 52, 127
1, 545293, Note_off_c, 1, 67, 0
1, 545293, Note_off_c, 1, 52, 0
1, 545303, Note_on_c, 1, 69, 127
1, 545303, Note_on_c, 1, 54, 127
1, 545456, Note_off_c, 1, 69, 0
1, 545456, Note_off_c, 1, 54, 0
1, 545475, Note_on_c, 1, 70, 127
1, 545475, Note_on_c, 1, 55, 127
1, 545643, Note_off_c, 1, 70, 0
1, 545644, Note_off_c, 1, 62, 0
1, 545647, Note_on_c, 1, 72, 127
1, 545647, Note_on_c, 1, 60, 127
1, 545807, Note_off_c, 1, 72, 0
1, 545807, Note_off_c, 1, 60, 0
1, 545817, Note_on_c, 1, 74, 127
1, 545817, Note_on_c, 1, 58, 127
1, 545970, Note_off_c, 1, 74, 0
1, 545970, Note_off_c, 1, 58, 0
1, 545989, Note_on_c, 1, 75, 127
1, 546157, Note_off_c, 1, 55, 0
1, 546157, Note_off_c, 1, 75, 0
1, 546160, Note_on_c, 1, 57, 127
1, 546320, Note_off_c, 1, 57, 0
1, 546330, Note_on_c, 1, 79, 127
1, 546483, Note_off_c, 1, 79, 0
1, 546502, Note_on_c, 1, 81, 127
1, 546670, Note_off_c, 1, 81, 0
1, 546674, Note_on_c, 1, 82, 127
1, 546834, Note_off_c, 1, 82, 0
1, 546844, Note_on_c, 1, 84, 127
1, 546997, Note_off_c, 1, 84, 0
1, 547014, Note_on_c, 1, 82, 127
1, 547014, Note_on_c, 1, 55, 127
1, 547182, Note_off_c, 1, 82, 0
1, 547186, Note_on_c, 1, 79, 127
1, 547346, Note_off_c, 1, 79, 0
1, 547356, Note_on_c, 1, 74, 127
1, 547356, Note_on_c, 1, 51, 127
1, 547509, Note_off_c, 1, 74, 0
1, 547509, Note_off_c, 1, 51, 0
1, 547521, Note_off_c, 1, 55, 0
1, 547526, Note_on_c, 1, 84, 127
1, 547526, Note_on_c, 1, 57, 127
1, 547526, Note_on_c, 1, 48, 127
1, 547694, Note_off_c, 1, 84, 0
1, 547694, Note_off_c, 1, 57, 0
1, 547698, Note_on_c, 1, 76, 127
1, 547698, Note_on_c, 1, 58, 127
1, 547858, Note_off_c, 1, 76, 0
1, 547858, Note_off_c, 1, 58, 0
1, 547866, Note_off_c, 1, 48, 0
1, 547868, Note_on_c, 1, 78, 127
1, 547868, Note_on_c, 1, 60, 127
1, 547868, Note_on_c, 1, 50, 127
1, 548021, Note_off_c, 1, 78, 0
1, 548021, Note_off_c, 1, 60, 0
1, 548021, Note_off_c, 1, 50, 0
1, 548040, Note_on_c, 1, 79, 127
1, 548040, Note_on_c, 1, 58, 127
1, 548040, Note_on_c, 1, 55, 127
1, 548208, Note_off_c, 1, 79, 0
1, 548211, Note_on_c, 1, 74, 127
1, 548371, Note_off_c, 1, 74, 0
1, 548381, Note_on_c, 1, 75, 127
1, 548534, Note_off_c, 1, 75, 0
1, 548550, Note_off_c, 1, 58, 0
1, 548553, Note_on_c, 1, 60, 127
1, 548553, Note_on_c, 1, 77, 127
1, 548635, Note_off_c, 1, 60, 0
1, 548639, Note_on_c, 1, 59, 127
1, 548721, Note_off_c, 1, 77, 0
1, 548721, Note_off_c, 1, 59, 0
1, 548725, Note_on_c, 1, 72, 127
1, 548887, Note_off_c, 1, 72, 0
1, 548897, Note_on_c, 1, 57, 127
1, 548979, Note_off_c, 1, 57, 0
1, 549067, Note_off_c, 1, 55, 0
1, 549068, Note_on_c, 1, 60, 127
1, 549068, Note_on_c, 1, 75, 127
1, 549236, Note_off_c, 1, 60, 0
1, 549240, Note_on_c, 1, 55, 127
1, 549400, Note_off_c, 1, 55, 0
1, 549410, Note_on_c, 1, 57, 127
1, 549563, Note_off_c, 1, 57, 0
1, 549578, Note_off_c, 1, 75, 0
1, 549582, Note_on_c, 1, 77, 127
1, 549582, Note_on_c, 1, 58, 127
1, 549664, Note_off_c, 1, 77, 0
1, 549668, Note_on_c, 1, 76, 127
1, 549750, Note_off_c, 1, 58, 0
1, 549750, Note_off_c, 1, 76, 0
1, 549754, Note_on_c, 1, 77, 127
1, 549754, Note_on_c, 1, 53, 127
1, 549836, Note_off_c, 1, 77, 0
1, 549839, Note_on_c, 1, 76, 127
1, 549916, Note_off_c, 1, 53, 0
1, 549921, Note_off_c, 1, 76, 0
1, 549925, Note_on_c, 1, 74, 127
1, 549925, Note_on_c, 1, 55, 127
1, 550007, Note_off_c, 1, 74, 0
1, 550011, Note_on_c, 1, 76, 127
1, 550078, Note_off_c, 1, 55, 0
1, 550093, Note_off_c, 1, 76, 0
1, 550097, Note_on_c, 1, 77, 127
1, 550097, Note_on_c, 1, 57, 127
1, 550265, Note_off_c, 1, 77, 0
1, 550269, Note_on_c, 1, 72, 127
1, 550429, Note_off_c, 1, 72, 0
1, 550435, Note_off_c, 1, 57, 0
1, 550439, Note_on_c, 1, 74, 127
1, 550439, Note_on_c, 1, 53, 127
1, 550592, Note_off_c, 1, 74, 0
1, 550592, Note_off_c, 1, 53, 0
1, 550611, Note_on_c, 1, 75, 127
1, 550611, Note_on_c, 1, 55, 127
1, 550779, Note_off_c, 1, 75, 0
1, 550782, Note_on_c, 1, 70, 127
1, 550942, Note_off_c, 1, 70, 0
1, 550949, Note_off_c, 1, 55, 0
1, 550952, Note_on_c, 1, 72, 127
1, 550952, Note_on_c, 1, 57, 127
1, 551105, Note_off_c, 1, 72, 0
1, 551105, Note_off_c, 1, 57, 0
1, 551124, Note_on_c, 1, 74, 127
1, 551124, Note_on_c, 1, 58, 127
1, 551292, Note_off_c, 1, 74, 0
1, 551292, Note_off_c, 1, 58, 0
1, 551296, Note_on_c, 1, 69, 127
1, 551296, Note_on_c, 1, 54, 127
1, 551456, Note_off_c, 1, 69, 0
1, 551456, Note_off_c, 1, 54, 0
1, 551466, Note_on_c, 1, 70, 127
1, 551466, Note_on_c, 1, 55, 127
1, 551619, Note_off_c, 1, 70, 0
1, 551619, Note_off_c, 1, 55, 0
1, 551638, Note_on_c, 1, 72, 127
1, 551638, Note_on_c, 1, 57, 127
1, 551806, Note_off_c, 1, 72, 0
1, 551806, Note_off_c, 1, 57, 0
1, 551809, Note_on_c, 1, 67, 127
1, 551809, Note_on_c, 1, 52, 127
1, 551969, Note_off_c, 1, 67, 0
1, 551969, Note_off_c, 1, 52, 0
1, 551979, Note_on_c, 1, 69, 127
1, 551979, Note_on_c, 1, 54, 127
1, 552132, Note_off_c, 1, 69, 0
1, 552132, Note_off_c, 1, 54, 0
1, 552151, Note_on_c, 1, 55, 127
1, 552151, Note_on_c, 1, 70, 127
1, 552319, Note_off_c, 1, 55, 0
1, 552323, Note_on_c, 1, 50, 127
1, 552483, Note_off_c, 1, 50, 0
1, 552489, Note_off_c, 1, 70, 0
1, 552493, Note_on_c, 1, 79, 127
1, 552493, Note_on_c, 1, 51, 127
1, 552646, Note_off_c, 1, 79, 0
1, 552646, Note_off_c, 1, 51, 0
1, 552665, Note_on_c, 1, 53, 127
1, 552665, Note_on_c, 1, 68, 127
1, 552833, Note_off_c, 1, 53, 0
1, 552836, Note_on_c, 1, 48, 127
1, 552996, Note_off_c, 1, 48, 0
1, 553003, Note_off_c, 1, 68, 0
1, 553007, Note_on_c, 1, 77, 127
1, 553007, Note_on_c, 1, 50, 127
1, 553160, Note_off_c, 1, 77, 0
1, 553160, Note_off_c, 1, 50, 0
1, 553178, Note_on_c, 1, 51, 127
1, 553178, Note_on_c, 1, 67, 127
1, 553346, Note_off_c, 1, 51, 0
1, 553350, Note_on_c, 1, 47, 127
1, 553510, Note_off_c, 1, 47, 0
1, 553516, Note_off_c, 1, 67, 0
1, 553520, Note_on_c, 1, 75, 127
1, 553520, Note_on_c, 1, 48, 127
1, 553673, Note_off_c, 1, 75, 0
1, 553673, Note_off_c, 1, 48, 0
1, 553692, Note_on_c, 1, 50, 127
1, 553692, Note_on_c, 1, 65, 127
1, 553860, Note_off_c, 1, 50, 0
1, 553863, Note_on_c, 1, 45, 127
1, 554023, Note_off_c, 1, 45, 0
1, 554030, Note_off_c, 1, 65, 0
1, 554034, Note_on_c, 1, 74, 127
1, 554034, Note_on_c, 1, 47, 127
1, 554187, Note_off_c, 1, 74, 0
1, 554187, Note_off_c, 1, 47, 0
1, 554205, Note_on_c, 1, 63, 127
1, 554205, Note_on_c, 1, 48, 127
1, 554373, Note_off_c, 1, 63, 0
1, 554373, Note_off_c, 1, 48, 0
1, 554377, Note_on_c, 1, 65, 127
1, 554377, Note_on_c, 1, 50, 127
1, 554537, Note_off_c, 1, 65, 0
1, 554537, Note_off_c, 1, 50, 0
1, 554547, Note_on_c, 1, 67, 127
1, 554547, Note_on_c, 1, 51, 127
1, 554700, Note_off_c, 1, 67, 0
1, 554700, Note_off_c, 1, 51, 0
1, 554719, Note_on_c, 1, 62, 127
1, 554719, Note_on_c, 1, 53, 127
1, 554887, Note_off_c, 1, 62, 0
1, 554887, Note_off_c, 1, 53, 0
1, 554891, Note_on_c, 1, 63, 127
1, 554891, Note_on_c, 1, 55, 127
1, 555051, Note_off_c, 1, 63, 0
1, 555051, Note_off_c, 1, 55, 0
1, 555061, Note_on_c, 1, 60, 127
1, 555061, Note_on_c, 1, 56, 127
1, 555214, Note_off_c, 1, 60, 0
1, 555214, Note_off_c, 1, 56, 0
1, 555232, Note_on_c, 1, 59, 127
1, 555232, Note_on_c, 1, 55, 127
1, 555400, Note_off_c, 1, 59, 0
1, 555400, Note_off_c, 1, 55, 0
1, 555404, Note_on_c, 1, 60, 127
1, 555404, Note_on_c, 1, 57, 127
1, 555564, Note_off_c, 1, 60, 0
1, 555564, Note_off_c, 1, 57, 0
1, 555574, Note_on_c, 1, 62, 127
1, 555574, Note_on_c, 1, 59, 127
1, 555727, Note_off_c, 1, 62, 0
1, 555727, Note_off_c, 1, 59, 0
1, 555746, Note_on_c, 1, 63, 127
1, 555746, Note_on_c, 1, 48, 127
1, 555914, Note_off_c, 1, 63, 0
1, 555914, Note_off_c, 1, 48, 0
1, 555918, Note_on_c, 1, 65, 127
1, 555918, Note_on_c, 1, 50, 127
1, 556078, Note_off_c, 1, 65, 0
1, 556078, Note_off_c, 1, 50, 0
1, 556088, Note_on_c, 1, 67, 127
1, 556088, Note_on_c, 1, 51, 127
1, 556241, Note_off_c, 1, 67, 0
1, 556241, Note_off_c, 1, 51, 0
1, 556259, Note_on_c, 1, 68, 127
1, 556259, Note_on_c, 1, 53, 127
1, 556427, Note_off_c, 1, 68, 0
1, 556427, Note_off_c, 1, 53, 0
1, 556431, Note_on_c, 1, 65, 127
1, 556431, Note_on_c, 1, 55, 127
1, 556591, Note_off_c, 1, 65, 0
1, 556591, Note_off_c, 1, 55, 0
1, 556601, Note_on_c, 1, 72, 127
1, 556601, Note_on_c, 1, 56, 127
1, 556754, Note_off_c, 1, 72, 0
1, 556754, Note_off_c, 1, 56, 0
1, 556773, Note_on_c, 1, 74, 127
1, 556773, Note_on_c, 1, 47, 127
1, 556941, Note_off_c, 1, 74, 0
1, 556941, Note_off_c, 1, 47, 0
1, 556945, Note_on_c, 1, 75, 127
1, 556945, Note_on_c, 1, 48, 127
1, 557105, Note_off_c, 1, 75, 0
1, 557105, Note_off_c, 1, 48, 0
1, 557115, Note_on_c, 1, 77, 127
1, 557115, Note_on_c, 1, 50, 127
1, 557268, Note_off_c, 1, 77, 0
1, 557268, Note_off_c, 1, 50, 0
1, 557287, Note_on_c, 1, 79, 127
1, 557287, Note_on_c, 1, 51, 127
1, 557455, Note_off_c, 1, 79, 0
1, 557458, Note_on_c, 1, 75, 127
1, 557618, Note_off_c, 1, 75, 0
1, 557625, Note_off_c, 1, 51, 0
1, 557628, Note_on_c, 1, 72, 127
1, 557628, Note_on_c, 1, 56, 127
1, 557781, Note_off_c, 1, 72, 0
1, 557781, Note_off_c, 1, 56, 0
1, 557800, Note_on_c, 1, 77, 127
1, 557800, Note_on_c, 1, 50, 127
1, 557968, Note_off_c, 1, 77, 0
1, 557972, Note_on_c, 1, 69, 127
1, 558132, Note_off_c, 1, 69, 0
1, 558138, Note_off_c, 1, 50, 0
1, 558142, Note_on_c, 1, 71, 127
1, 558142, Note_on_c, 1, 55, 127
1, 558295, Note_off_c, 1, 71, 0
1, 558295, Note_off_c, 1, 55, 0
1, 558314, Note_on_c, 1, 75, 127
1, 558314, Note_on_c, 1, 48, 127
1, 558482, Note_off_c, 1, 75, 0
1, 558485, Note_on_c, 1, 72, 127
1, 558645, Note_off_c, 1, 72, 0
1, 558655, Note_on_c, 1, 69, 127
1, 558808, Note_off_c, 1, 69, 0
1, 558827, Note_on_c, 1, 74, 127
1, 558955, Note_off_c, 1, 48, 0
1, 558995, Note_off_c, 1, 74, 0
1, 558999, Note_on_c, 1, 66, 127
1, 559159, Note_off_c, 1, 66, 0
1, 559169, Note_on_c, 1, 67, 127
1, 559169, Note_on_c, 1, 58, 127
1, 559322, Note_off_c, 1, 67, 0
1, 559322, Note_off_c, 1, 58, 0
1, 559341, Note_on_c, 1, 72, 127
1, 559341, Note_on_c, 1, 57, 127
1, 559509, Note_off_c, 1, 72, 0
1, 559512, Note_on_c, 1, 69, 127
1, 559672, Note_off_c, 1, 69, 0
1, 559683, Note_on_c, 1, 66, 127
1, 559836, Note_off_c, 1, 66, 0
1, 559854, Note_on_c, 1, 70, 127
1, 560022, Note_off_c, 1, 70, 0
1, 560026, Note_on_c, 1, 62, 127
1, 560110, Note_off_c, 1, 57, 0
1, 560188, Note_off_c, 1, 62, 0
1, 560198, Note_on_c, 1, 63, 127
1, 560198, Note_on_c, 1, 55, 127
1, 560351, Note_off_c, 1, 63, 0
1, 560351, Note_off_c, 1, 55, 0
1, 560369, Note_on_c, 1, 69, 127
1, 560369, Note_on_c, 1, 53, 127
1, 560537, Note_off_c, 1, 69, 0
1, 560541, Note_on_c, 1, 65, 127
1, 560701, Note_off_c, 1, 65, 0
1, 560711, Note_on_c, 1, 62, 127
1, 560864, Note_off_c, 1, 62, 0
1, 560883, Note_on_c, 1, 67, 127
1, 561051, Note_off_c, 1, 67, 0
1, 561055, Note_on_c, 1, 58, 127
1, 561138, Note_off_c, 1, 53, 0
1, 561217, Note_off_c, 1, 58, 0
1, 561226, Note_on_c, 1, 60, 127
1, 561226, Note_on_c, 1, 51, 127
1, 561379, Note_off_c, 1, 60, 0
1, 561379, Note_off_c, 1, 51, 0
1, 561398, Note_on_c, 1, 42, 127
1, 561398, Note_on_c, 1, 62, 127
1, 561566, Note_off_c, 1, 42, 0
1, 561570, Note_on_c, 1, 43, 127
1, 561730, Note_off_c, 1, 43, 0
1, 561740, Note_on_c, 1, 45, 127
1, 561893, Note_off_c, 1, 45, 0
1, 561912, Note_on_c, 1, 46, 127
1, 562080, Note_off_c, 1, 62, 0
1, 562080, Note_off_c, 1, 46, 0
1, 562083, Note_on_c, 1, 64, 127
1, 562083, Note_on_c, 1, 48, 127
1, 562243, Note_off_c, 1, 64, 0
1, 562243, Note_off_c, 1, 48, 0
1, 562253, Note_on_c, 1, 66, 127
1, 562253, Note_on_c, 1, 50, 127
1, 562406, Note_off_c, 1, 66, 0
1, 562406, Note_off_c, 1, 50, 0
1, 562425, Note_on_c, 1, 67, 127
1, 562425, Note_on_c, 1, 51, 127
1, 562593, Note_off_c, 1, 67, 0
1, 562593, Note_off_c, 1, 51, 0
1, 562597, Note_on_c, 1, 69, 127
1, 562597, Note_on_c, 1, 48, 127
1, 562757, Note_off_c, 1, 69, 0
1, 562757, Note_off_c, 1, 48, 0
1, 562767, Note_on_c, 1, 70, 127
1, 562767, Note_on_c, 1, 55, 127
1, 562920, Note_off_c, 1, 70, 0
1, 562920, Note_off_c, 1, 55, 0
1, 562939, Note_on_c, 1, 72, 127
1, 562939, Note_on_c, 1, 57, 127
1, 563107, Note_off_c, 1, 72, 0
1, 563107, Note_off_c, 1, 57, 0
1, 563110, Note_on_c, 1, 74, 127
1, 563110, Note_on_c, 1, 58, 127
1, 563270, Note_off_c, 1, 74, 0
1, 563270, Note_off_c, 1, 58, 0
1, 563281, Note_on_c, 1, 75, 127
1, 563281, Note_on_c, 1, 60, 127
1, 563434, Note_off_c, 1, 75, 0
1, 563434, Note_off_c, 1, 60, 0
1, 563452, Note_on_c, 1, 58, 127
1, 563452, Note_on_c, 1, 74, 127
1, 563620, Note_off_c, 1, 58, 0
1, 563624, Note_on_c, 1, 55, 127
1, 563784, Note_off_c, 1, 55, 0
1, 563790, Note_off_c, 1, 74, 0
1, 563794, Note_on_c, 1, 82, 127
1, 563794, Note_on_c, 1, 50, 127
1, 563947, Note_off_c, 1, 82, 0
1, 563947, Note_off_c, 1, 50, 0
1, 563966, Note_on_c, 1, 75, 127
1, 563966, Note_on_c, 1, 60, 127
1, 564134, Note_off_c, 1, 75, 0
1, 564134, Note_off_c, 1, 60, 0
1, 564138, Note_on_c, 1, 74, 127
1, 564138, Note_on_c, 1, 52, 127
1, 564298, Note_off_c, 1, 74, 0
1, 564298, Note_off_c, 1, 52, 0
1, 564308, Note_on_c, 1, 72, 127
1, 564308, Note_on_c, 1, 54, 127
1, 564461, Note_off_c, 1, 72, 0
1, 564461, Note_off_c, 1, 54, 0
1, 564479, Note_on_c, 1, 55, 127
1, 564479, Note_on_c, 1, 70, 127
1, 564647, Note_off_c, 1, 55, 0
1, 564651, Note_on_c, 1, 50, 127
1, 564811, Note_off_c, 1, 50, 0
1, 564817, Note_off_c, 1, 70, 0
1, 564821, Note_on_c, 1, 79, 127
1, 564821, Note_on_c, 1, 46, 127
1, 564974, Note_off_c, 1, 79, 0
1, 564974, Note_off_c, 1, 46, 0
1, 564993, Note_on_c, 1, 72, 127
1, 564993, Note_on_c, 1, 56, 127
1, 565161, Note_off_c, 1, 72, 0
1, 565161, Note_off_c, 1, 56, 0
1, 565165, Note_on_c, 1, 70, 127
1, 565165, Note_on_c, 1, 48, 127
1, 565325, Note_off_c, 1, 70, 0
1, 565325, Note_off_c, 1, 48, 0
1, 565335, Note_on_c, 1, 68, 127
1, 565335, Note_on_c, 1, 50, 127
1, 565488, Note_off_c, 1, 68, 0
1, 565488, Note_off_c, 1, 50, 0
1, 565506, Note_on_c, 1, 51, 127
1, 565506, Note_on_c, 1, 67, 127
1, 565674, Note_off_c, 1, 51, 0
1, 565678, Note_on_c, 1, 46, 127
1, 565838, Note_off_c, 1, 46, 0
1, 565844, Note_off_c, 1, 67, 0
1, 565848, Note_on_c, 1, 75, 127
1, 565848, Note_on_c, 1, 43, 127
1, 566001, Note_off_c, 1, 75, 0
1, 566001, Note_off_c, 1, 43, 0
1, 566020, Note_on_c, 1, 68, 127
1, 566020, Note_on_c, 1, 53, 127
1, 566188, Note_off_c, 1, 68, 0
1, 566188, Note_off_c, 1, 53, 0
1, 566192, Note_on_c, 1, 67, 127
1, 566192, Note_on_c, 1, 45, 127
1, 566352, Note_off_c, 1, 67, 0
1, 566352, Note_off_c, 1, 45, 0
1, 566362, Note_on_c, 1, 65, 127
1, 566362, Note_on_c, 1, 47, 127
1, 566515, Note_off_c, 1, 65, 0
1, 566515, Note_off_c, 1, 47, 0
1, 566534, Note_on_c, 1, 63, 127
1, 566534, Note_on_c, 1, 48, 127
1, 566702, Note_off_c, 1, 63, 0
1, 566705, Note_on_c, 1, 72, 127
1, 566865, Note_off_c, 1, 72, 0
1, 566908, Note_off_c, 1, 48, 0
1, 567047, Note_on_c, 1, 62, 127
1, 567047, Note_on_c, 1, 43, 127
1, 567215, Note_off_c, 1, 62, 0
1, 567219, Note_on_c, 1, 72, 127
1, 567379, Note_off_c, 1, 72, 0
1, 567389, Note_on_c, 1, 70, 127
1, 567421, Note_off_c, 1, 43, 0
1, 567542, Note_off_c, 1, 70, 0
1, 567561, Note_on_c, 1, 60, 127
1, 567561, Note_on_c, 1, 40, 127
1, 567729, Note_off_c, 1, 60, 0
1, 567732, Note_on_c, 1, 70, 127
1, 567892, Note_off_c, 1, 70, 0
1, 567902, Note_on_c, 1, 69, 127
1, 567935, Note_off_c, 1, 40, 0
1, 568055, Note_off_c, 1, 69, 0
1, 568074, Note_on_c, 1, 62, 127
1, 568074, Note_on_c, 1, 42, 127
1, 568242, Note_off_c, 1, 62, 0
1, 568246, Note_on_c, 1, 72, 127
1, 568406, Note_off_c, 1, 72, 0
1, 568416, Note_on_c, 1, 70, 127
1, 568448, Note_off_c, 1, 42, 0
1, 568569, Note_off_c, 1, 70, 0
1, 568588, Note_on_c, 1, 64, 127
1, 568588, Note_on_c, 1, 43, 127
1, 568756, Note_off_c, 1, 64, 0
1, 568759, Note_on_c, 1, 74, 127
1, 568919, Note_off_c, 1, 74, 0
1, 568929, Note_on_c, 1, 72, 127
1, 568962, Note_off_c, 1, 43, 0
1, 569082, Note_off_c, 1, 72, 0
1, 569101, Note_on_c, 1, 66, 127
1, 569101, Note_on_c, 1, 45, 127
1, 569269, Note_off_c, 1, 66, 0
1, 569273, Note_on_c, 1, 75, 127
1, 569433, Note_off_c, 1, 75, 0
1, 569443, Note_on_c, 1, 74, 127
1, 569475, Note_off_c, 1, 45, 0
1, 569596, Note_off_c, 1, 74, 0
1, 569615, Note_on_c, 1, 67, 127
1, 569615, Note_on_c, 1, 46, 127
1, 569783, Note_off_c, 1, 67, 0
1, 569786, Note_on_c, 1, 72, 127
1, 569946, Note_off_c, 1, 72, 0
1, 569957, Note_on_c, 1, 70, 127
1, 569989, Note_off_c, 1, 46, 0
1, 570110, Note_off_c, 1, 70, 0
1, 570128, Note_on_c, 1, 69, 127
1, 570128, Note_on_c, 1, 48, 127
1, 570296, Note_off_c, 1, 69, 0
1, 570300, Note_on_c, 1, 70, 127
1, 570460, Note_off_c, 1, 70, 0
1, 570470, Note_on_c, 1, 67, 127
1, 570502, Note_off_c, 1, 48, 0
1, 570623, Note_off_c, 1, 67, 0
1, 570642, Note_on_c, 1, 66, 127
1, 570642, Note_on_c, 1, 50, 127
1, 570812, Note_on_c, 1, 63, 127
1, 570972, Note_off_c, 1, 63, 0
1, 570980, Note_off_c, 1, 66, 0
1, 570982, Note_on_c, 1, 62, 127
1, 571014, Note_off_c, 1, 50, 0
1, 571135, Note_off_c, 1, 62, 0
1, 571154, Note_on_c, 1, 67, 127
1, 571154, Note_on_c, 1, 52, 127
1, 571324, Note_on_c, 1, 62, 127
1, 571484, Note_off_c, 1, 62, 0
1, 571492, Note_off_c, 1, 67, 0
1, 571494, Note_on_c, 1, 60, 127
1, 571526, Note_off_c, 1, 52, 0
1, 571647, Note_off_c, 1, 60, 0
1, 571666, Note_on_c, 1, 69, 127
1, 571666, Note_on_c, 1, 54, 127
1, 571836, Note_on_c, 1, 62, 127
1, 571985, Note_off_c, 1, 69, 0
1, 571996, Note_off_c, 1, 62, 0
1, 572002, Note_off_c, 1, 54, 0
1, 572006, Note_on_c, 1, 60, 127
1, 572006, Note_on_c, 1, 38, 127
1, 572159, Note_off_c, 1, 60, 0
1, 572159, Note_off_c, 1, 38, 0
1, 572178, Note_on_c, 1, 58, 127
1, 572178, Note_on_c, 1, 40, 127
1, 572346, Note_off_c, 1, 58, 0
1, 572349, Note_on_c, 1, 60, 127
1, 572509, Note_off_c, 1, 60, 0
1, 572516, Note_off_c, 1, 40, 0
1, 572519, Note_on_c, 1, 57, 127
1, 572519, Note_on_c, 1, 42, 127
1, 572672, Note_off_c, 1, 57, 0
1, 572672, Note_off_c, 1, 42, 0
1, 572691, Note_on_c, 1, 58, 127
1, 572691, Note_on_c, 1, 43, 127
1, 572861, Note_on_c, 1, 57, 127
1, 572930, Note_off_c, 1, 58, 0
1, 573023, Note_off_c, 1, 57, 0
1, 573033, Note_on_c, 1, 55, 127
1, 573065, Note_off_c, 1, 43, 0
1, 573186, Note_off_c, 1, 55, 0
1, 573205, Note_on_c, 1, 60, 127
1, 573205, Note_on_c, 1, 45, 127
1, 573375, Note_on_c, 1, 57, 127
1, 573444, Note_off_c, 1, 60, 0
1, 573537, Note_off_c, 1, 57, 0
1, 573546, Note_on_c, 1, 55, 127
1, 573579, Note_off_c, 1, 45, 0
1, 573699, Note_off_c, 1, 55, 0
1, 573718, Note_on_c, 1, 62, 127
1, 573718, Note_on_c, 1, 46, 127
1, 573888, Note_on_c, 1, 57, 127
1, 573957, Note_off_c, 1, 62, 0
1, 574050, Note_off_c, 1, 57, 0
1, 574060, Note_on_c, 1, 55, 127
1, 574092, Note_off_c, 1, 46, 0
1, 574213, Note_off_c, 1, 55, 0
1, 574232, Note_on_c, 1, 63, 127
1, 574232, Note_on_c, 1, 48, 127
1, 574402, Note_on_c, 1, 57, 127
1, 574432, Note_off_c, 1, 63, 0
1, 574564, Note_off_c, 1, 57, 0
1, 574574, Note_on_c, 1, 55, 127
1, 574606, Note_off_c, 1, 48, 0
1, 574727, Note_off_c, 1, 55, 0
1, 574745, Note_on_c, 1, 54, 127
1, 574745, Note_on_c, 1, 50, 127
1, 574913, Note_off_c, 1, 54, 0
1, 574913, Note_off_c, 1, 50, 0
1, 574917, Note_on_c, 1, 55, 127
1, 574917, Note_on_c, 1, 52, 127
1, 575077, Note_off_c, 1, 55, 0
1, 575077, Note_off_c, 1, 52, 0
1, 575087, Note_on_c, 1, 57, 127
1, 575087, Note_on_c, 1, 54, 127
1, 575240, Note_off_c, 1, 57, 0
1, 575240, Note_off_c, 1, 54, 0
1, 575259, Note_on_c, 1, 58, 127
1, 575259, Note_on_c, 1, 43, 127
1, 575427, Note_off_c, 1, 58, 0
1, 575427, Note_off_c, 1, 43, 0
1, 575431, Note_on_c, 1, 60, 127
1, 575431, Note_on_c, 1, 45, 127
1, 575591, Note_off_c, 1, 60, 0
1, 575591, Note_off_c, 1, 45, 0
1, 575601, Note_on_c, 1, 62, 127
1, 575601, Note_on_c, 1, 46, 127
1, 575754, Note_off_c, 1, 62, 0
1, 575754, Note_off_c, 1, 46, 0
1, 575772, Note_on_c, 1, 48, 127
1, 575772, Note_on_c, 1, 63, 127
1, 575940, Note_off_c, 1, 48, 0
1, 575944, Note_on_c, 1, 60, 127
1, 575944, Note_on_c, 1, 50, 127
1, 575992, Note_off_c, 1, 63, 0
1, 576104, Note_off_c, 1, 60, 0
1, 576104, Note_off_c, 1, 50, 0
1, 576114, Note_on_c, 1, 67, 127
1, 576114, Note_on_c, 1, 51, 127
1, 576267, Note_off_c, 1, 67, 0
1, 576267, Note_off_c, 1, 51, 0
1, 576286, Note_on_c, 1, 69, 127
1, 576286, Note_on_c, 1, 42, 127
1, 576454, Note_off_c, 1, 69, 0
1, 576454, Note_off_c, 1, 42, 0
1, 576458, Note_on_c, 1, 70, 127
1, 576458, Note_on_c, 1, 43, 127
1, 576618, Note_off_c, 1, 70, 0
1, 576618, Note_off_c, 1, 43, 0
1, 576628, Note_on_c, 1, 72, 127
1, 576628, Note_on_c, 1, 45, 127
1, 576781, Note_off_c, 1, 72, 0
1, 576781, Note_off_c, 1, 45, 0
1, 576799, Note_on_c, 1, 74, 127
1, 576799, Note_on_c, 1, 46, 127
1, 576971, Note_on_c, 1, 70, 127
1, 577009, Note_off_c, 1, 74, 0
1, 577131, Note_off_c, 1, 70, 0
1, 577137, Note_off_c, 1, 46, 0
1, 577141, Note_on_c, 1, 67, 127
1, 577141, Note_on_c, 1, 51, 127
1, 577294, Note_off_c, 1, 67, 0
1, 577294, Note_off_c, 1, 51, 0
1, 577313, Note_on_c, 1, 72, 127
1, 577313, Note_on_c, 1, 45, 127
1, 577481, Note_off_c, 1, 72, 0
1, 577485, Note_on_c, 1, 64, 127
1, 577645, Note_off_c, 1, 64, 0
1, 577651, Note_off_c, 1, 45, 0
1, 577655, Note_on_c, 1, 66, 127
1, 577655, Note_on_c, 1, 62, 127
1, 577808, Note_off_c, 1, 66, 0
1, 577808, Note_off_c, 1, 62, 0
1, 577827, Note_on_c, 1, 63, 127
1, 577827, Note_on_c, 1, 67, 127
1, 577995, Note_off_c, 1, 63, 0
1, 577998, Note_on_c, 1, 62, 127
1, 578158, Note_off_c, 1, 62, 0
1, 578168, Note_on_c, 1, 74, 127
1, 578168, Note_on_c, 1, 60, 127
1, 578321, Note_off_c, 1, 74, 0
1, 578321, Note_off_c, 1, 60, 0
1, 578340, Note_on_c, 1, 79, 127
1, 578340, Note_on_c, 1, 58, 127
1, 578427, Note_off_c, 1, 67, 0
1, 578508, Note_off_c, 1, 79, 0
1, 578508, Note_off_c, 1, 58, 0
1, 578512, Note_on_c, 1, 77, 127
1, 578512, Note_on_c, 1, 57, 127
1, 578672, Note_off_c, 1, 77, 0
1, 578672, Note_off_c, 1, 57, 0
1, 578682, Note_on_c, 1, 75, 127
1, 578682, Note_on_c, 1, 55, 127
1, 578835, Note_off_c, 1, 75, 0
1, 578835, Note_off_c, 1, 55, 0
1, 578854, Note_on_c, 1, 74, 127
1, 578854, Note_on_c, 1, 54, 127
1, 579022, Note_off_c, 1, 74, 0
1, 579022, Note_off_c, 1, 54, 0
1, 579025, Note_on_c, 1, 72, 127
1, 579025, Note_on_c, 1, 57, 127
1, 579185, Note_off_c, 1, 72, 0
1, 579185, Note_off_c, 1, 57, 0
1, 579195, Note_on_c, 1, 70, 127
1, 579195, Note_on_c, 1, 50, 127
1, 579348, Note_off_c, 1, 70, 0
1, 579348, Note_off_c, 1, 50, 0
1, 579367, Note_on_c, 1, 69, 127
1, 579367, Note_on_c, 1, 48, 127
1, 579535, Note_off_c, 1, 69, 0
1, 579535, Note_off_c, 1, 48, 0
1, 579539, Note_on_c, 1, 67, 127
1, 579539, Note_on_c, 1, 46, 127
1, 579699, Note_off_c, 1, 67, 0
1, 579699, Note_off_c, 1, 46, 0
1, 579709, Note_on_c, 1, 66, 127
1, 579709, Note_on_c, 1, 45, 127
1, 579862, Note_off_c, 1, 66, 0
1, 579862, Note_off_c, 1, 45, 0
1, 579881, Note_on_c, 1, 67, 127
1, 579881, Note_on_c, 1, 46, 127
1, 580049, Note_off_c, 1, 67, 0
1, 580049, Note_off_c, 1, 46, 0
1, 580052, Note_on_c, 1, 75, 127
1, 580052, Note_on_c, 1, 55, 127
1, 580212, Note_off_c, 1, 75, 0
1, 580212, Note_off_c, 1, 55, 0
1, 580223, Note_on_c, 1, 74, 127
1, 580223, Note_on_c, 1, 48, 127
1, 580376, Note_off_c, 1, 74, 0
1, 580376, Note_off_c, 1, 48, 0
1, 580394, Note_on_c, 1, 72, 127
1, 580394, Note_on_c, 1, 50, 127
1, 580476, Note_off_c, 1, 72, 0
1, 580480, Note_on_c, 1, 70, 127
1, 580562, Note_off_c, 1, 50, 0
1, 580562, Note_off_c, 1, 70, 0
1, 580566, Note_on_c, 1, 69, 127
1, 580566, Note_on_c, 1, 48, 127
1, 580726, Note_off_c, 1, 69, 0
1, 580726, Note_off_c, 1, 48, 0
1, 580736, Note_on_c, 1, 67, 127
1, 580736, Note_on_c, 1, 50, 127
1, 580889, Note_off_c, 1, 67, 0
1, 580889, Note_off_c, 1, 50, 0
1, 580908, Note_on_c, 1, 67, 127
1, 580908, Note_on_c, 1, 43, 127
1, 581108, Note_off_c, 1, 67, 0
1, 581108, Note_off_c, 1, 43, 0
1, 581112, Note_on_c, 1, 62, 127
1, 581112, Note_on_c, 1, 46, 127
1, 581304, Note_off_c, 1, 62, 0
1, 581304, Note_off_c, 1, 46, 0
1, 581332, Note_on_c, 1, 50, 127
1, 581332, Note_on_c, 1, 58, 127
1, 581536, Note_off_c, 1, 50, 0
1, 581536, Note_off_c, 1, 58, 0
1, 581584, Note_on_c, 1, 55, 127
1, 583684, Note_off_c, 1, 55, 0
1, 583684, End_track
0, 0, End_of_file