0, 0, Header, 1, 1, 480
1, 0, Start_track
1, 0, Title_t, "Test"
1, 0, Tempo, 500000
1, 0, Instrument_name_t, "Church Organ"
1, 0, Note_on_c, 1, 64, 127
1, 96, Note_off_c, 1, 64, 0
1, 120, Note_on_c, 1, 69, 127
1, 120, Note_on_c, 1, 45, 127
1, 312, Note_off_c, 1, 69, 0
1, 408, Note_off_c, 1, 45, 0
1, 480, Note_on_c, 1, 69, 127
1, 480, Note_on_c, 1, 57, 127
1, 576, Note_off_c, 1, 69, 0
1, 600, Note_on_c, 1, 71, 127
1, 696, Note_off_c, 1, 71, 0
1, 720, Note_on_c, 1, 72, 127
1, 768, Note_off_c, 1, 57, 0
1, 816, Note_off_c, 1, 72, 0
1, 840, Note_on_c, 1, 71, 127
1, 840, Note_on_c, 1, 57, 127
1, 936, Note_off_c, 1, 71, 0
1, 960, Note_on_c, 1, 62, 127
1, 1056, Note_off_c, 1, 62, 0
1, 1128, Note_off_c, 1, 57, 0
1, 1200, Note_on_c, 1, 64, 127
1, 1200, Note_on_c, 1, 56, 127
1, 1296, Note_off_c, 1, 64, 0
1, 1320, Note_on_c, 1, 65, 127
1, 1416, Note_off_c, 1, 65, 0
1, 1440, Note_on_c, 1, 62, 127
1, 1488, Note_off_c, 1, 56, 0
1, 1536, Note_off_c, 1, 62, 0
1, 1560, Note_on_c, 1, 60, 127
1, 1560, Note_on_c, 1, 57, 127
1, 1656, Note_off_c, 1, 60, 0
1, 1680, Note_on_c, 1, 64, 127
1, 1776, Note_off_c, 1, 64, 0
1, 1800, Note_on_c, 1, 69, 127
1, 1848, Note_off_c, 1, 57, 0
1, 1896, Note_off_c, 1, 69, 0
1, 1920, Note_on_c, 1, 62, 127
1, 1920, Note_on_c, 1, 53, 127
1, 2016, Note_off_c, 1, 62, 0
1, 2040, Note_on_c, 1, 71, 127
1, 2136, Note_off_c, 1, 71, 0
1, 2160, Note_on_c, 1, 69, 127
1, 2208, Note_off_c, 1, 53, 0
1, 2256, Note_off_c, 1, 69, 0
1, 2280, Note_on_c, 1, 68, 127
1, 2280, Note_on_c, 1, 52, 127
1, 2376, Note_off_c, 1, 68, 0
1, 2400, Note_on_c, 1, 69, 127
1, 2496, Note_off_c, 1, 69, 0
1, 2520, Note_on_c, 1, 71, 127
1, 2616, Note_off_c, 1, 71, 0
1, 2640, Note_on_c, 1, 64, 127
1, 2736, Note_off_c, 1, 52, 0
1, 2736, Note_off_c, 1, 64, 0
1, 2760, Note_on_c, 1, 76, 127
1, 2760, Note_on_c, 1, 54, 127
1, 2856, Note_off_c, 1, 76, 0
1, 2856, Note_off_c, 1, 54, 0
1, 2880, Note_on_c, 1, 74, 127
1, 2880, Note_on_c, 1, 56, 127
1, 2976, Note_off_c, 1, 74, 0
1, 2976, Note_off_c, 1, 56, 0
1, 3000, Note_on_c, 1, 72, 127
1, 3000, Note_on_c, 1, 57, 127
1, 3096, Note_off_c, 1, 72, 0
1, 3096, Note_off_c, 1, 57, 0
1, 3120, Note_on_c, 1, 74, 127
1, 3120, Note_on_c, 1, 59, 127
1, 3216, Note_off_c, 1, 74, 0
1, 3216, Note_off_c, 1, 59, 0
1, 3240, Note_on_c, 1, 76, 127
1, 3240, Note_on_c, 1, 60, 127
1, 3336, Note_off_c, 1, 76, 0
1, 3336, Note_off_c, 1, 60, 0
1, 3360, Note_on_c, 1, 69, 127
1, 3360, Note_on_c, 1, 53, 127
1, 3456, Note_off_c, 1, 69, 0
1, 3456, Note_off_c, 1, 53, 0
1, 3480, Note_on_c, 1, 77, 127
1, 3480, Note_on_c, 1, 55, 127
1, 3576, Note_off_c, 1, 77, 0
1, 3576, Note_off_c, 1, 55, 0
1, 3600, Note_on_c, 1, 76, 127
1, 3600, Note_on_c, 1, 57, 127
1, 3696, Note_off_c, 1, 76, 0
1, 3696, Note_off_c, 1, 57, 0
1, 3720, Note_on_c, 1, 74, 127
1, 3720, Note_on_c, 1, 59, 127
1, 3816, Note_off_c, 1, 74, 0
1, 3816, Note_off_c, 1, 59, 0
1, 3840, Note_on_c, 1, 76, 127
1, 3840, Note_on_c, 1, 60, 127
1, 3936, Note_off_c, 1, 76, 0
1, 3936, Note_off_c, 1, 60, 0
1, 3960, Note_on_c, 1, 77, 127
1, 3960, Note_on_c, 1, 62, 127
1, 4056, Note_off_c, 1, 77, 0
1, 4056, Note_off_c, 1, 62, 0
1, 4080, Note_on_c, 1, 71, 127
1, 4080, Note_on_c, 1, 55, 127
1, 4176, Note_off_c, 1, 71, 0
1, 4176, Note_off_c, 1, 55, 0
1, 4200, Note_on_c, 1, 79, 127
1, 4200, Note_on_c, 1, 57, 127
1, 4296, Note_off_c, 1, 79, 0
1, 4296, Note_off_c, 1, 57, 0
1, 4320, Note_on_c, 1, 77, 127
1, 4320, Note_on_c, 1, 59, 127
1, 4416, Note_off_c, 1, 77, 0
1, 4416, Note_off_c, 1, 59, 0
1, 4440, Note_on_c, 1, 76, 127
1, 4440, Note_on_c, 1, 60, 127
1, 4536, Note_off_c, 1, 76, 0
1, 4536, Note_off_c, 1, 60, 0
1, 4560, Note_on_c, 1, 77, 127
1, 4560, Note_on_c, 1, 62, 127
1, 4656, Note_off_c, 1, 77, 0
1, 4656, Note_off_c, 1, 62, 0
1, 4680, Note_on_c, 1, 79, 127
1, 4680, Note_on_c, 1, 64, 127
1, 4776, Note_off_c, 1, 79, 0
1, 4776, Note_off_c, 1, 64, 0
1, 4800, Note_on_c, 1, 79, 127
1, 4800, Note_on_c, 1, 64, 127
1, 4824, Note_off_c, 1, 79, 0
1, 4824, Note_off_c, 1, 64, 0
1, 4830, Note_on_c, 1, 81, 127
1, 4830, Note_on_c, 1, 65, 127
1, 4854, Note_off_c, 1, 81, 0
1, 4854, Note_off_c, 1, 65, 0
1, 4860, Note_on_c, 1, 79, 127
1, 4860, Note_on_c, 1, 64, 127
1, 4908, Note_off_c, 1, 79, 0
1, 4908, Note_off_c, 1, 64, 0
1, 4920, Note_on_c, 1, 78, 127
1, 4920, Note_on_c, 1, 62, 127
1, 5016, Note_off_c, 1, 78, 0
1, 5016, Note_off_c, 1, 62, 0
1, 5040, Note_on_c, 1, 79, 127
1, 5040, Note_on_c, 1, 64, 127
1, 5136, Note_off_c, 1, 79, 0
1, 5136, Note_off_c, 1, 64, 0
1, 5160, Note_on_c, 1, 81, 127
1, 5160, Note_on_c, 1, 65, 127
1, 5256, Note_off_c, 1, 81, 0
1, 5256, Note_off_c, 1, 65, 0
1, 5280, Note_on_c, 1, 69, 127
1, 5280, Note_on_c, 1, 53, 127
1, 5376, Note_off_c, 1, 69, 0
1, 5376, Note_off_c, 1, 53, 0
1, 5400, Note_on_c, 1, 71, 127
1, 5400, Note_on_c, 1, 55, 127
1, 5496, Note_off_c, 1, 71, 0
1, 5496, Note_off_c, 1, 55, 0
1, 5520, Note_on_c, 1, 72, 127
1, 5520, Note_on_c, 1, 57, 127
1, 5616, Note_off_c, 1, 72, 0
1, 5616, Note_off_c, 1, 57, 0
1, 5640, Note_on_c, 1, 74, 127
1, 5640, Note_on_c, 1, 59, 127
1, 5736, Note_off_c, 1, 74, 0
1, 5736, Note_off_c, 1, 59, 0
1, 5760, Note_on_c, 1, 76, 127
1, 5760, Note_on_c, 1, 60, 127
1, 5856, Note_off_c, 1, 76, 0
1, 5856, Note_off_c, 1, 60, 0
1, 5880, Note_on_c, 1, 77, 127
1, 5880, Note_on_c, 1, 62, 127
1, 5976, Note_off_c, 1, 77, 0
1, 5976, Note_off_c, 1, 62, 0
1, 6000, Note_on_c, 1, 79, 127
1, 6000, Note_on_c, 1, 64, 127
1, 6096, Note_off_c, 1, 79, 0
1, 6096, Note_off_c, 1, 64, 0
1, 6120, Note_on_c, 1, 81, 127
1, 6120, Note_on_c, 1, 65, 127
1, 6216, Note_off_c, 1, 81, 0
1, 6216, Note_off_c, 1, 65, 0
1, 6240, Note_on_c, 1, 81, 127
1, 6240, Note_on_c, 1, 65, 127
1, 6264, Note_off_c, 1, 81, 0
1, 6264, Note_off_c, 1, 65, 0
1, 6270, Note_on_c, 1, 83, 127
1, 6270, Note_on_c, 1, 67, 127
1, 6294, Note_off_c, 1, 83, 0
1, 6294, Note_off_c, 1, 67, 0
1, 6300, Note_on_c, 1, 81, 127
1, 6300, Note_on_c, 1, 65, 127
1, 6348, Note_off_c, 1, 81, 0
1, 6348, Note_off_c, 1, 65, 0
1, 6360, Note_on_c, 1, 79, 127
1, 6360, Note_on_c, 1, 64, 127
1, 6456, Note_off_c, 1, 79, 0
1, 6456, Note_off_c, 1, 64, 0
1, 6480, Note_on_c, 1, 81, 127
1, 6480, Note_on_c, 1, 65, 127
1, 6576, Note_off_c, 1, 81, 0
1, 6576, Note_off_c, 1, 65, 0
1, 6600, Note_on_c, 1, 83, 127
1, 6600, Note_on_c, 1, 67, 127
1, 6696, Note_off_c, 1, 83, 0
1, 6696, Note_off_c, 1, 67, 0
1, 6720, Note_on_c, 1, 71, 127
1, 6720, Note_on_c, 1, 55, 127
1, 6816, Note_off_c, 1, 71, 0
1, 6816, Note_off_c, 1, 55, 0
1, 6840, Note_on_c, 1, 72, 127
1, 6840, Note_on_c, 1, 57, 127
1, 6936, Note_off_c, 1, 72, 0
1, 6936, Note_off_c, 1, 57, 0
1, 6960, Note_on_c, 1, 74, 127
1, 6960, Note_on_c, 1, 59, 127
1, 7056, Note_off_c, 1, 74, 0
1, 7056, Note_off_c, 1, 59, 0
1, 7080, Note_on_c, 1, 76, 127
1, 7080, Note_on_c, 1, 60, 127
1, 7176, Note_off_c, 1, 76, 0
1, 7176, Note_off_c, 1, 60, 0
1, 7200, Note_on_c, 1, 77, 127
1, 7200, Note_on_c, 1, 62, 127
1, 7296, Note_off_c, 1, 77, 0
1, 7296, Note_off_c, 1, 62, 0
1, 7320, Note_on_c, 1, 79, 127
1, 7320, Note_on_c, 1, 64, 127
1, 7416, Note_off_c, 1, 79, 0
1, 7416, Note_off_c, 1, 64, 0
1, 7440, Note_on_c, 1, 81, 127
1, 7440, Note_on_c, 1, 65, 127
1, 7536, Note_off_c, 1, 81, 0
1, 7536, Note_off_c, 1, 65, 0
1, 7560, Note_on_c, 1, 83, 127
1, 7560, Note_on_c, 1, 67, 127
1, 7656, Note_off_c, 1, 83, 0
1, 7656, Note_off_c, 1, 67, 0
1, 7680, Note_on_c, 1, 83, 127
1, 7680, Note_on_c, 1, 67, 127
1, 7704, Note_off_c, 1, 83, 0
1, 7704, Note_off_c, 1, 67, 0
1, 7710, Note_on_c, 1, 84, 127
1, 7710, Note_on_c, 1, 69, 127
1, 7734, Note_off_c, 1, 84, 0
1, 7734, Note_off_c, 1, 69, 0
1, 7740, Note_on_c, 1, 83, 127
1, 7740, Note_on_c, 1, 67, 127
1, 7788, Note_off_c, 1, 83, 0
1, 7788, Note_off_c, 1, 67, 0
1, 7800, Note_on_c, 1, 81, 127
1, 7800, Note_on_c, 1, 65, 127
1, 7896, Note_off_c, 1, 81, 0
1, 7896, Note_off_c, 1, 65, 0
1, 7920, Note_on_c, 1, 83, 127
1, 7920, Note_on_c, 1, 67, 127
1, 8016, Note_off_c, 1, 83, 0
1, 8016, Note_off_c, 1, 67, 0
1, 8040, Note_on_c, 1, 84, 127
1, 8040, Note_on_c, 1, 69, 127
1, 8136, Note_off_c, 1, 84, 0
1, 8136, Note_off_c, 1, 69, 0
1, 8160, Note_on_c, 1, 72, 127
1, 8160, Note_on_c, 1, 57, 127
1, 8256, Note_off_c, 1, 72, 0
1, 8256, Note_off_c, 1, 57, 0
1, 8280, Note_on_c, 1, 74, 127
1, 8280, Note_on_c, 1, 59, 127
1, 8376, Note_off_c, 1, 74, 0
1, 8376, Note_off_c, 1, 59, 0
1, 8400, Note_on_c, 1, 76, 127
1, 8400, Note_on_c, 1, 60, 127
1, 8496, Note_off_c, 1, 76, 0
1, 8496, Note_off_c, 1, 60, 0
1, 8520, Note_on_c, 1, 77, 127
1, 8520, Note_on_c, 1, 62, 127
1, 8616, Note_off_c, 1, 77, 0
1, 8616, Note_off_c, 1, 62, 0
1, 8640, Note_on_c, 1, 79, 127
1, 8640, Note_on_c, 1, 64, 127
1, 8736, Note_off_c, 1, 79, 0
1, 8736, Note_off_c, 1, 64, 0
1, 8760, Note_on_c, 1, 81, 127
1, 8760, Note_on_c, 1, 65, 127
1, 8856, Note_off_c, 1, 81, 0
1, 8856, Note_off_c, 1, 65, 0
1, 8880, Note_on_c, 1, 71, 127
1, 8880, Note_on_c, 1, 55, 127
1, 8976, Note_off_c, 1, 71, 0
1, 8976, Note_off_c, 1, 55, 0
1, 9000, Note_on_c, 1, 72, 127
1, 9000, Note_on_c, 1, 57, 127
1, 9096, Note_off_c, 1, 72, 0
1, 9096, Note_off_c, 1, 57, 0
1, 9120, Note_on_c, 1, 74, 127
1, 9120, Note_on_c, 1, 59, 127
1, 9216, Note_off_c, 1, 74, 0
1, 9216, Note_off_c, 1, 59, 0
1, 9240, Note_on_c, 1, 76, 127
1, 9240, Note_on_c, 1, 60, 127
1, 9336, Note_off_c, 1, 76, 0
1, 9336, Note_off_c, 1, 60, 0
1, 9360, Note_on_c, 1, 77, 127
1, 9360, Note_on_c, 1, 62, 127
1, 9456, Note_off_c, 1, 77, 0
1, 9456, Note_off_c, 1, 62, 0
1, 9480, Note_on_c, 1, 79, 127
1, 9480, Note_on_c, 1, 64, 127
1, 9576, Note_off_c, 1, 79, 0
1, 9576, Note_off_c, 1, 64, 0
1, 9600, Note_on_c, 1, 69, 127
1, 9600, Note_on_c, 1, 53, 127
1, 9696, Note_off_c, 1, 69, 0
1, 9696, Note_off_c, 1, 53, 0
1, 9720, Note_on_c, 1, 71, 127
1, 9720, Note_on_c, 1, 55, 127
1, 9816, Note_off_c, 1, 71, 0
1, 9816, Note_off_c, 1, 55, 0
1, 9840, Note_on_c, 1, 72, 127
1, 9840, Note_on_c, 1, 57, 127
1, 9936, Note_off_c, 1, 72, 0
1, 9936, Note_off_c, 1, 57, 0
1, 9960, Note_on_c, 1, 74, 127
1, 9960, Note_on_c, 1, 59, 127
1, 10056, Note_off_c, 1, 74, 0
1, 10056, Note_off_c, 1, 59, 0
1, 10080, Note_on_c, 1, 76, 127
1, 10080, Note_on_c, 1, 60, 127
1, 10176, Note_off_c, 1, 76, 0
1, 10176, Note_off_c, 1, 60, 0
1, 10200, Note_on_c, 1, 77, 127
1, 10200, Note_on_c, 1, 62, 127
1, 10296, Note_off_c, 1, 77, 0
1, 10296, Note_off_c, 1, 62, 0
1, 10320, Note_on_c, 1, 79, 127
1, 10320, Note_on_c, 1, 64, 127
1, 10416, Note_off_c, 1, 79, 0
1, 10416, Note_off_c, 1, 64, 0
1, 10440, Note_on_c, 1, 81, 127
1, 10440, Note_on_c, 1, 65, 127
1, 10536, Note_off_c, 1, 81, 0
1, 10536, Note_off_c, 1, 65, 0
1, 10560, Note_on_c, 1, 74, 127
1, 10560, Note_on_c, 1, 59, 127
1, 10656, Note_off_c, 1, 74, 0
1, 10656, Note_off_c, 1, 59, 0
1, 10680, Note_on_c, 1, 76, 127
1, 10680, Note_on_c, 1, 60, 127
1, 10776, Note_off_c, 1, 76, 0
1, 10776, Note_off_c, 1, 60, 0
1, 10800, Note_on_c, 1, 77, 127
1, 10800, Note_on_c, 1, 62, 127
1, 10896, Note_off_c, 1, 77, 0
1, 10896, Note_off_c, 1, 62, 0
1, 10920, Note_on_c, 1, 71, 127
1, 10920, Note_on_c, 1, 55, 127
1, 11016, Note_off_c, 1, 71, 0
1, 11040, Note_on_c, 1, 72, 127
1, 11136, Note_off_c, 1, 72, 0
1, 11160, Note_on_c, 1, 74, 127
1, 11208, Note_off_c, 1, 55, 0
1, 11256, Note_off_c, 1, 74, 0
1, 11280, Note_on_c, 1, 67, 127
1, 11376, Note_off_c, 1, 67, 0
1, 11400, Note_on_c, 1, 69, 127
1, 11496, Note_off_c, 1, 69, 0
1, 11520, Note_on_c, 1, 71, 127
1, 11520, Note_on_c, 1, 65, 127
1, 11616, Note_off_c, 1, 71, 0
1, 11616, Note_off_c, 1, 65, 0
1, 11640, Note_on_c, 1, 72, 127
1, 11640, Note_on_c, 1, 64, 127
1, 11736, Note_off_c, 1, 64, 0
1, 11760, Note_on_c, 1, 65, 127
1, 11832, Note_off_c, 1, 72, 0
1, 11856, Note_off_c, 1, 65, 0
1, 11880, Note_on_c, 1, 72, 127
1, 11880, Note_on_c, 1, 67, 127
1, 11976, Note_off_c, 1, 72, 0
1, 11976, Note_off_c, 1, 67, 0
1, 12000, Note_on_c, 1, 72, 127
1, 12000, Note_on_c, 1, 60, 127
1, 12024, Note_off_c, 1, 72, 0
1, 12030, Note_on_c, 1, 74, 127
1, 12054, Note_off_c, 1, 74, 0
1, 12096, Note_off_c, 1, 60, 0
1, 12120, Note_on_c, 1, 71, 127
1, 12120, Note_on_c, 1, 62, 127
1, 12216, Note_off_c, 1, 71, 0
1, 12216, Note_off_c, 1, 62, 0
1, 12240, Note_on_c, 1, 72, 127
1, 12240, Note_on_c, 1, 64, 127
1, 12336, Note_off_c, 1, 72, 0
1, 12336, Note_off_c, 1, 64, 0
1, 12360, Note_on_c, 1, 74, 127
1, 12360, Note_on_c, 1, 59, 127
1, 12456, Note_off_c, 1, 74, 0
1, 12456, Note_off_c, 1, 59, 0
1, 12480, Note_on_c, 1, 65, 127
1, 12480, Note_on_c, 1, 60, 127
1, 12576, Note_off_c, 1, 65, 0
1, 12576, Note_off_c, 1, 60, 0
1, 12600, Note_on_c, 1, 74, 127
1, 12600, Note_on_c, 1, 62, 127
1, 12696, Note_off_c, 1, 74, 0
1, 12696, Note_off_c, 1, 62, 0
1, 12720, Note_on_c, 1, 64, 127
1, 12720, Note_on_c, 1, 55, 127
1, 12816, Note_off_c, 1, 64, 0
1, 12816, Note_off_c, 1, 55, 0
1, 12840, Note_on_c, 1, 65, 127
1, 12840, Note_on_c, 1, 57, 127
1, 12936, Note_off_c, 1, 65, 0
1, 12936, Note_off_c, 1, 57, 0
1, 12960, Note_on_c, 1, 62, 127
1, 12960, Note_on_c, 1, 59, 127
1, 13056, Note_off_c, 1, 62, 0
1, 13056, Note_off_c, 1, 59, 0
1, 13080, Note_on_c, 1, 60, 127
1, 13080, Note_on_c, 1, 52, 127
1, 13176, Note_off_c, 1, 60, 0
1, 13176, Note_off_c, 1, 52, 0
1, 13200, Note_on_c, 1, 64, 127
1, 13200, Note_on_c, 1, 53, 127
1, 13296, Note_off_c, 1, 64, 0
1, 13296, Note_off_c, 1, 53, 0
1, 13320, Note_on_c, 1, 67, 127
1, 13320, Note_on_c, 1, 55, 127
1, 13416, Note_off_c, 1, 67, 0
1, 13416, Note_off_c, 1, 55, 0
1, 13440, Note_on_c, 1, 64, 127
1, 13440, Note_on_c, 1, 48, 127
1, 13536, Note_off_c, 1, 64, 0
1, 13536, Note_off_c, 1, 48, 0
1, 13560, Note_on_c, 1, 67, 127
1, 13560, Note_on_c, 1, 50, 127
1, 13656, Note_off_c, 1, 67, 0
1, 13656, Note_off_c, 1, 50, 0
1, 13680, Note_on_c, 1, 72, 127
1, 13680, Note_on_c, 1, 52, 127
1, 13776, Note_off_c, 1, 72, 0
1, 13776, Note_off_c, 1, 52, 0
1, 13800, Note_on_c, 1, 67, 127
1, 13800, Note_on_c, 1, 47, 127
1, 13896, Note_off_c, 1, 67, 0
1, 13896, Note_off_c, 1, 47, 0
1, 13920, Note_on_c, 1, 71, 127
1, 13920, Note_on_c, 1, 48, 127
1, 14016, Note_off_c, 1, 71, 0
1, 14016, Note_off_c, 1, 48, 0
1, 14040, Note_on_c, 1, 74, 127
1, 14040, Note_on_c, 1, 50, 127
1, 14136, Note_off_c, 1, 74, 0
1, 14136, Note_off_c, 1, 50, 0
1, 14160, Note_on_c, 1, 71, 127
1, 14160, Note_on_c, 1, 43, 127
1, 14256, Note_off_c, 1, 71, 0
1, 14256, Note_off_c, 1, 43, 0
1, 14280, Note_on_c, 1, 74, 127
1, 14280, Note_on_c, 1, 45, 127
1, 14376, Note_off_c, 1, 74, 0
1, 14376, Note_off_c, 1, 45, 0
1, 14400, Note_on_c, 1, 79, 127
1, 14400, Note_on_c, 1, 47, 127
1, 14496, Note_off_c, 1, 79, 0
1, 14496, Note_off_c, 1, 47, 0
1, 14520, Note_on_c, 1, 79, 127
1, 14520, Note_on_c, 1, 40, 127
1, 14616, Note_off_c, 1, 79, 0
1, 14640, Note_on_c, 1, 76, 127
1, 14736, Note_off_c, 1, 76, 0
1, 14760, Note_on_c, 1, 72, 127
1, 14808, Note_off_c, 1, 40, 0
1, 14856, Note_off_c, 1, 72, 0
1, 14880, Note_on_c, 1, 70, 127
1, 14976, Note_off_c, 1, 70, 0
1, 15000, Note_on_c, 1, 69, 127
1, 15096, Note_off_c, 1, 69, 0
1, 15120, Note_on_c, 1, 67, 127
1, 15120, Note_on_c, 1, 52, 127
1, 15216, Note_off_c, 1, 67, 0
1, 15216, Note_off_c, 1, 52, 0
1, 15240, Note_on_c, 1, 69, 127
1, 15240, Note_on_c, 1, 53, 127
1, 15336, Note_off_c, 1, 53, 0
1, 15360, Note_on_c, 1, 55, 127
1, 15456, Note_off_c, 1, 55, 0
1, 15480, Note_on_c, 1, 57, 127
1, 15528, Note_off_c, 1, 69, 0
1, 15576, Note_off_c, 1, 57, 0
1, 15600, Note_on_c, 1, 57, 127
1, 15696, Note_off_c, 1, 57, 0
1, 15720, Note_on_c, 1, 59, 127
1, 15816, Note_off_c, 1, 59, 0
1, 15840, Note_on_c, 1, 69, 127
1, 15840, Note_on_c, 1, 60, 127
1, 15936, Note_off_c, 1, 69, 0
1, 15936, Note_off_c, 1, 60, 0
1, 15960, Note_on_c, 1, 77, 127
1, 15960, Note_on_c, 1, 38, 127
1, 16056, Note_off_c, 1, 77, 0
1, 16080, Note_on_c, 1, 74, 127
1, 16176, Note_off_c, 1, 74, 0
1, 16200, Note_on_c, 1, 71, 127
1, 16248, Note_off_c, 1, 38, 0
1, 16296, Note_off_c, 1, 71, 0
1, 16320, Note_on_c, 1, 69, 127
1, 16416, Note_off_c, 1, 69, 0
1, 16440, Note_on_c, 1, 67, 127
1, 16536, Note_off_c, 1, 67, 0
1, 16560, Note_on_c, 1, 65, 127
1, 16560, Note_on_c, 1, 50, 127
1, 16656, Note_off_c, 1, 65, 0
1, 16656, Note_off_c, 1, 50, 0
1, 16680, Note_on_c, 1, 67, 127
1, 16680, Note_on_c, 1, 52, 127
1, 16776, Note_off_c, 1, 52, 0
1, 16800, Note_on_c, 1, 53, 127
1, 16896, Note_off_c, 1, 53, 0
1, 16920, Note_on_c, 1, 55, 127
1, 16968, Note_off_c, 1, 67, 0
1, 17016, Note_off_c, 1, 55, 0
1, 17040, Note_on_c, 1, 55, 127
1, 17136, Note_off_c, 1, 55, 0
1, 17160, Note_on_c, 1, 57, 127
1, 17256, Note_off_c, 1, 57, 0
1, 17280, Note_on_c, 1, 67, 127
1, 17280, Note_on_c, 1, 59, 127
1, 17376, Note_off_c, 1, 59, 0
1, 17400, Note_off_c, 1, 67, 0
1, 17400, Note_on_c, 1, 76, 127
1, 17400, Note_on_c, 1, 36, 127
1, 17496, Note_off_c, 1, 76, 0
1, 17520, Note_on_c, 1, 72, 127
1, 17616, Note_off_c, 1, 72, 0
1, 17640, Note_on_c, 1, 69, 127
1, 17688, Note_off_c, 1, 36, 0
1, 17736, Note_off_c, 1, 69, 0
1, 17760, Note_on_c, 1, 67, 127
1, 17760, Note_on_c, 1, 48, 127
1, 17856, Note_off_c, 1, 67, 0
1, 17880, Note_on_c, 1, 65, 127
1, 17976, Note_off_c, 1, 65, 0
1, 18000, Note_on_c, 1, 64, 127
1, 18096, Note_off_c, 1, 64, 0
1, 18120, Note_on_c, 1, 74, 127
1, 18216, Note_off_c, 1, 74, 0
1, 18240, Note_on_c, 1, 71, 127
1, 18336, Note_off_c, 1, 71, 0
1, 18408, Note_off_c, 1, 48, 0
1, 18480, Note_on_c, 1, 65, 127
1, 18480, Note_on_c, 1, 47, 127
1, 18576, Note_off_c, 1, 65, 0
1, 18600, Note_on_c, 1, 64, 127
1, 18696, Note_off_c, 1, 64, 0
1, 18720, Note_on_c, 1, 62, 127
1, 18768, Note_off_c, 1, 47, 0
1, 18816, Note_off_c, 1, 62, 0
1, 18840, Note_on_c, 1, 64, 127
1, 18840, Note_on_c, 1, 48, 127
1, 18936, Note_off_c, 1, 64, 0
1, 18960, Note_on_c, 1, 67, 127
1, 19056, Note_off_c, 1, 67, 0
1, 19080, Note_on_c, 1, 72, 127
1, 19128, Note_off_c, 1, 48, 0
1, 19176, Note_off_c, 1, 72, 0
1, 19200, Note_on_c, 1, 66, 127
1, 19200, Note_on_c, 1, 45, 127
1, 19296, Note_off_c, 1, 66, 0
1, 19320, Note_on_c, 1, 74, 127
1, 19416, Note_off_c, 1, 74, 0
1, 19440, Note_on_c, 1, 72, 127
1, 19488, Note_off_c, 1, 45, 0
1, 19536, Note_off_c, 1, 72, 0
1, 19560, Note_on_c, 1, 71, 127
1, 19560, Note_on_c, 1, 43, 127
1, 19656, Note_off_c, 1, 71, 0
1, 19680, Note_on_c, 1, 72, 127
1, 19776, Note_off_c, 1, 72, 0
1, 19800, Note_on_c, 1, 74, 127
1, 19896, Note_off_c, 1, 74, 0
1, 19920, Note_on_c, 1, 67, 127
1, 20016, Note_off_c, 1, 43, 0
1, 20040, Note_on_c, 1, 45, 127
1, 20112, Note_off_c, 1, 67, 0
1, 20136, Note_off_c, 1, 45, 0
1, 20160, Note_on_c, 1, 74, 127
1, 20160, Note_on_c, 1, 47, 127
1, 20256, Note_off_c, 1, 74, 0
1, 20256, Note_off_c, 1, 47, 0
1, 20280, Note_on_c, 1, 76, 127
1, 20280, Note_on_c, 1, 48, 127
1, 20376, Note_off_c, 1, 76, 0
1, 20376, Note_off_c, 1, 48, 0
1, 20400, Note_on_c, 1, 77, 127
1, 20400, Note_on_c, 1, 50, 127
1, 20496, Note_off_c, 1, 77, 0
1, 20496, Note_off_c, 1, 50, 0
1, 20520, Note_on_c, 1, 79, 127
1, 20520, Note_on_c, 1, 52, 127
1, 20616, Note_off_c, 1, 79, 0
1, 20616, Note_off_c, 1, 52, 0
1, 20640, Note_on_c, 1, 67, 127
1, 20640, Note_on_c, 1, 47, 127
1, 20736, Note_off_c, 1, 67, 0
1, 20736, Note_off_c, 1, 47, 0
1, 20760, Note_on_c, 1, 69, 127
1, 20760, Note_on_c, 1, 48, 127
1, 20856, Note_off_c, 1, 69, 0
1, 20856, Note_off_c, 1, 48, 0
1, 20880, Note_on_c, 1, 71, 127
1, 20880, Note_on_c, 1, 50, 127
1, 20976, Note_off_c, 1, 71, 0
1, 20976, Note_off_c, 1, 50, 0
1, 21000, Note_on_c, 1, 72, 127
1, 21000, Note_on_c, 1, 52, 127
1, 21096, Note_off_c, 1, 72, 0
1, 21096, Note_off_c, 1, 52, 0
1, 21120, Note_on_c, 1, 74, 127
1, 21120, Note_on_c, 1, 53, 127
1, 21216, Note_off_c, 1, 74, 0
1, 21216, Note_off_c, 1, 53, 0
1, 21240, Note_on_c, 1, 76, 127
1, 21240, Note_on_c, 1, 55, 127
1, 21336, Note_off_c, 1, 76, 0
1, 21336, Note_off_c, 1, 55, 0
1, 21360, Note_on_c, 1, 71, 127
1, 21360, Note_on_c, 1, 55, 127
1, 21456, Note_off_c, 1, 71, 0
1, 21456, Note_off_c, 1, 55, 0
1, 21480, Note_on_c, 1, 72, 127
1, 21480, Note_on_c, 1, 57, 127
1, 21576, Note_off_c, 1, 72, 0
1, 21576, Note_off_c, 1, 57, 0
1, 21600, Note_on_c, 1, 74, 127
1, 21600, Note_on_c, 1, 59, 127
1, 21696, Note_off_c, 1, 74, 0
1, 21696, Note_off_c, 1, 59, 0
1, 21720, Note_on_c, 1, 76, 127
1, 21720, Note_on_c, 1, 60, 127
1, 21816, Note_off_c, 1, 76, 0
1, 21816, Note_off_c, 1, 60, 0
1, 21840, Note_on_c, 1, 77, 127
1, 21840, Note_on_c, 1, 62, 127
1, 21936, Note_off_c, 1, 77, 0
1, 21936, Note_off_c, 1, 62, 0
1, 21960, Note_on_c, 1, 79, 127
1, 21960, Note_on_c, 1, 64, 127
1, 22056, Note_off_c, 1, 79, 0
1, 22056, Note_off_c, 1, 64, 0
1, 22080, Note_on_c, 1, 67, 127
1, 22080, Note_on_c, 1, 59, 127
1, 22176, Note_off_c, 1, 67, 0
1, 22176, Note_off_c, 1, 59, 0
1, 22200, Note_on_c, 1, 69, 127
1, 22200, Note_on_c, 1, 60, 127
1, 22296, Note_off_c, 1, 69, 0
1, 22296, Note_off_c, 1, 60, 0
1, 22320, Note_on_c, 1, 71, 127
1, 22320, Note_on_c, 1, 62, 127
1, 22416, Note_off_c, 1, 71, 0
1, 22416, Note_off_c, 1, 62, 0
1, 22440, Note_on_c, 1, 72, 127
1, 22440, Note_on_c, 1, 64, 127
1, 22536, Note_off_c, 1, 72, 0
1, 22536, Note_off_c, 1, 64, 0
1, 22560, Note_on_c, 1, 74, 127
1, 22560, Note_on_c, 1, 65, 127
1, 22656, Note_off_c, 1, 74, 0
1, 22656, Note_off_c, 1, 65, 0
1, 22680, Note_on_c, 1, 76, 127
1, 22680, Note_on_c, 1, 67, 127
1, 22776, Note_off_c, 1, 76, 0
1, 22776, Note_off_c, 1, 67, 0
1, 22800, Note_on_c, 1, 67, 127
1, 22800, Note_on_c, 1, 71, 127
1, 22896, Note_off_c, 1, 67, 0
1, 22896, Note_off_c, 1, 71, 0
1, 22920, Note_on_c, 1, 69, 127
1, 22920, Note_on_c, 1, 72, 127
1, 23016, Note_off_c, 1, 69, 0
1, 23016, Note_off_c, 1, 72, 0
1, 23040, Note_on_c, 1, 71, 127
1, 23040, Note_on_c, 1, 74, 127
1, 23136, Note_off_c, 1, 71, 0
1, 23136, Note_off_c, 1, 74, 0
1, 23160, Note_on_c, 1, 76, 127
1, 23160, Note_on_c, 1, 72, 127
1, 23256, Note_off_c, 1, 76, 0
1, 23280, Note_on_c, 1, 77, 127
1, 23352, Note_off_c, 1, 72, 0
1, 23376, Note_off_c, 1, 77, 0
1, 23400, Note_on_c, 1, 79, 127
1, 23400, Note_on_c, 1, 65, 127
1, 23496, Note_off_c, 1, 79, 0
1, 23496, Note_off_c, 1, 65, 0
1, 23520, Note_on_c, 1, 76, 127
1, 23520, Note_on_c, 1, 67, 127
1, 23544, Note_off_c, 1, 76, 0
1, 23550, Note_on_c, 1, 77, 127
1, 23574, Note_off_c, 1, 77, 0
1, 23640, Note_on_c, 1, 74, 127
1, 23712, Note_off_c, 1, 67, 0
1, 23736, Note_off_c, 1, 74, 0
1, 23760, Note_on_c, 1, 55, 127
1, 23760, Note_on_c, 1, 72, 127
1, 23856, Note_off_c, 1, 55, 0
1, 23856, Note_off_c, 1, 72, 0
1, 23880, Note_on_c, 1, 72, 127
1, 23880, Note_on_c, 1, 48, 127
1, 23976, Note_off_c, 1, 72, 0
1, 24000, Note_on_c, 1, 67, 127
1, 24096, Note_off_c, 1, 67, 0
1, 24120, Note_on_c, 1, 64, 127
1, 24216, Note_off_c, 1, 64, 0
1, 24240, Note_on_c, 1, 60, 127
1, 24336, Note_off_c, 1, 48, 0
1, 24360, Note_on_c, 1, 52, 127
1, 24432, Note_off_c, 1, 60, 0
1, 24456, Note_off_c, 1, 52, 0
1, 24480, Note_on_c, 1, 64, 127
1, 24480, Note_on_c, 1, 48, 127
1, 24576, Note_off_c, 1, 64, 0
1, 24576, Note_off_c, 1, 48, 0
1, 24600, Note_on_c, 1, 69, 127
1, 24600, Note_on_c, 1, 45, 127
1, 24792, Note_off_c, 1, 69, 0
1, 24888, Note_off_c, 1, 45, 0
1, 24960, Note_on_c, 1, 69, 127
1, 24960, Note_on_c, 1, 57, 127
1, 25056, Note_off_c, 1, 69, 0
1, 25080, Note_on_c, 1, 71, 127
1, 25176, Note_off_c, 1, 71, 0
1, 25200, Note_on_c, 1, 72, 127
1, 25248, Note_off_c, 1, 57, 0
1, 25296, Note_off_c, 1, 72, 0
1, 25320, Note_on_c, 1, 71, 127
1, 25320, Note_on_c, 1, 57, 127
1, 25416, Note_off_c, 1, 71, 0
1, 25440, Note_on_c, 1, 62, 127
1, 25536, Note_off_c, 1, 62, 0
1, 25608, Note_off_c, 1, 57, 0
1, 25680, Note_on_c, 1, 64, 127
1, 25680, Note_on_c, 1, 56, 127
1, 25776, Note_off_c, 1, 64, 0
1, 25800, Note_on_c, 1, 65, 127
1, 25896, Note_off_c, 1, 65, 0
1, 25920, Note_on_c, 1, 62, 127
1, 25968, Note_off_c, 1, 56, 0
1, 26016, Note_off_c, 1, 62, 0
1, 26040, Note_on_c, 1, 60, 127
1, 26040, Note_on_c, 1, 57, 127
1, 26136, Note_off_c, 1, 60, 0
1, 26160, Note_on_c, 1, 64, 127
1, 26256, Note_off_c, 1, 64, 0
1, 26280, Note_on_c, 1, 69, 127
1, 26328, Note_off_c, 1, 57, 0
1, 26376, Note_off_c, 1, 69, 0
1, 26400, Note_on_c, 1, 62, 127
1, 26400, Note_on_c, 1, 53, 127
1, 26496, Note_off_c, 1, 62, 0
1, 26520, Note_on_c, 1, 71, 127
1, 26616, Note_off_c, 1, 71, 0
1, 26640, Note_on_c, 1, 69, 127
1, 26688, Note_off_c, 1, 53, 0
1, 26736, Note_off_c, 1, 69, 0
1, 26760, Note_on_c, 1, 68, 127
1, 26760, Note_on_c, 1, 52, 127
1, 26856, Note_off_c, 1, 68, 0
1, 26880, Note_on_c, 1, 69, 127
1, 26976, Note_off_c, 1, 69, 0
1, 27000, Note_on_c, 1, 71, 127
1, 27096, Note_off_c, 1, 71, 0
1, 27120, Note_on_c, 1, 64, 127
1, 27216, Note_off_c, 1, 52, 0
1, 27216, Note_off_c, 1, 64, 0
1, 27240, Note_on_c, 1, 76, 127
1, 27240, Note_on_c, 1, 54, 127
1, 27336, Note_off_c, 1, 76, 0
1, 27336, Note_off_c, 1, 54, 0
1, 27360, Note_on_c, 1, 74, 127
1, 27360, Note_on_c, 1, 56, 127
1, 27456, Note_off_c, 1, 74, 0
1, 27456, Note_off_c, 1, 56, 0
1, 27480, Note_on_c, 1, 72, 127
1, 27480, Note_on_c, 1, 57, 127
1, 27576, Note_off_c, 1, 72, 0
1, 27576, Note_off_c, 1, 57, 0
1, 27600, Note_on_c, 1, 74, 127
1, 27600, Note_on_c, 1, 59, 127
1, 27696, Note_off_c, 1, 74, 0
1, 27696, Note_off_c, 1, 59, 0
1, 27720, Note_on_c, 1, 76, 127
1, 27720, Note_on_c, 1, 60, 127
1, 27816, Note_off_c, 1, 76, 0
1, 27816, Note_off_c, 1, 60, 0
1, 27840, Note_on_c, 1, 69, 127
1, 27840, Note_on_c, 1, 53, 127
1, 27936, Note_off_c, 1, 69, 0
1, 27936, Note_off_c, 1, 53, 0
1, 27960, Note_on_c, 1, 77, 127
1, 27960, Note_on_c, 1, 55, 127
1, 28056, Note_off_c, 1, 77, 0
1, 28056, Note_off_c, 1, 55, 0
1, 28080, Note_on_c, 1, 76, 127
1, 28080, Note_on_c, 1, 57, 127
1, 28176, Note_off_c, 1, 76, 0
1, 28176, Note_off_c, 1, 57, 0
1, 28200, Note_on_c, 1, 74, 127
1, 28200, Note_on_c, 1, 59, 127
1, 28296, Note_off_c, 1, 74, 0
1, 28296, Note_off_c, 1, 59, 0
1, 28320, Note_on_c, 1, 76, 127
1, 28320, Note_on_c, 1, 60, 127
1, 28416, Note_off_c, 1, 76, 0
1, 28416, Note_off_c, 1, 60, 0
1, 28440, Note_on_c, 1, 77, 127
1, 28440, Note_on_c, 1, 62, 127
1, 28536, Note_off_c, 1, 77, 0
1, 28536, Note_off_c, 1, 62, 0
1, 28560, Note_on_c, 1, 71, 127
1, 28560, Note_on_c, 1, 55, 127
1, 28656, Note_off_c, 1, 71, 0
1, 28656, Note_off_c, 1, 55, 0
1, 28680, Note_on_c, 1, 79, 127
1, 28680, Note_on_c, 1, 57, 127
1, 28776, Note_off_c, 1, 79, 0
1, 28776, Note_off_c, 1, 57, 0
1, 28800, Note_on_c, 1, 77, 127
1, 28800, Note_on_c, 1, 59, 127
1, 28896, Note_off_c, 1, 77, 0
1, 28896, Note_off_c, 1, 59, 0
1, 28920, Note_on_c, 1, 76, 127
1, 28920, Note_on_c, 1, 60, 127
1, 29016, Note_off_c, 1, 76, 0
1, 29016, Note_off_c, 1, 60, 0
1, 29040, Note_on_c, 1, 77, 127
1, 29040, Note_on_c, 1, 62, 127
1, 29136, Note_off_c, 1, 77, 0
1, 29136, Note_off_c, 1, 62, 0
1, 29160, Note_on_c, 1, 79, 127
1, 29160, Note_on_c, 1, 64, 127
1, 29256, Note_off_c, 1, 79, 0
1, 29256, Note_off_c, 1, 64, 0
1, 29280, Note_on_c, 1, 79, 127
1, 29280, Note_on_c, 1, 64, 127
1, 29304, Note_off_c, 1, 79, 0
1, 29304, Note_off_c, 1, 64, 0
1, 29310, Note_on_c, 1, 81, 127
1, 29310, Note_on_c, 1, 65, 127
1, 29334, Note_off_c, 1, 81, 0
1, 29334, Note_off_c, 1, 65, 0
1, 29340, Note_on_c, 1, 79, 127
1, 29340, Note_on_c, 1, 64, 127
1, 29388, Note_off_c, 1, 79, 0
1, 29388, Note_off_c, 1, 64, 0
1, 29400, Note_on_c, 1, 78, 127
1, 29400, Note_on_c, 1, 62, 127
1, 29496, Note_off_c, 1, 78, 0
1, 29496, Note_off_c, 1, 62, 0
1, 29520, Note_on_c, 1, 79, 127
1, 29520, Note_on_c, 1, 64, 127
1, 29616, Note_off_c, 1, 79, 0
1, 29616, Note_off_c, 1, 64, 0
1, 29640, Note_on_c, 1, 81, 127
1, 29640, Note_on_c, 1, 65, 127
1, 29736, Note_off_c, 1, 81, 0
1, 29736, Note_off_c, 1, 65, 0
1, 29760, Note_on_c, 1, 69, 127
1, 29760, Note_on_c, 1, 53, 127
1, 29856, Note_off_c, 1, 69, 0
1, 29856, Note_off_c, 1, 53, 0
1, 29880, Note_on_c, 1, 71, 127
1, 29880, Note_on_c, 1, 55, 127
1, 29976, Note_off_c, 1, 71, 0
1, 29976, Note_off_c, 1, 55, 0
1, 30000, Note_on_c, 1, 72, 127
1, 30000, Note_on_c, 1, 57, 127
1, 30096, Note_off_c, 1, 72, 0
1, 30096, Note_off_c, 1, 57, 0
1, 30120, Note_on_c, 1, 74, 127
1, 30120, Note_on_c, 1, 59, 127
1, 30216, Note_off_c, 1, 74, 0
1, 30216, Note_off_c, 1, 59, 0
1, 30240, Note_on_c, 1, 76, 127
1, 30240, Note_on_c, 1, 60, 127
1, 30336, Note_off_c, 1, 76, 0
1, 30336, Note_off_c, 1, 60, 0
1, 30360, Note_on_c, 1, 77, 127
1, 30360, Note_on_c, 1, 62, 127
1, 30456, Note_off_c, 1, 77, 0
1, 30456, Note_off_c, 1, 62, 0
1, 30480, Note_on_c, 1, 79, 127
1, 30480, Note_on_c, 1, 64, 127
1, 30576, Note_off_c, 1, 79, 0
1, 30576, Note_off_c, 1, 64, 0
1, 30600, Note_on_c, 1, 81, 127
1, 30600, Note_on_c, 1, 65, 127
1, 30696, Note_off_c, 1, 81, 0
1, 30696, Note_off_c, 1, 65, 0
1, 30720, Note_on_c, 1, 81, 127
1, 30720, Note_on_c, 1, 65, 127
1, 30744, Note_off_c, 1, 81, 0
1, 30744, Note_off_c, 1, 65, 0
1, 30750, Note_on_c, 1, 83, 127
1, 30750, Note_on_c, 1, 67, 127
1, 30774, Note_off_c, 1, 83, 0
1, 30774, Note_off_c, 1, 67, 0
1, 30780, Note_on_c, 1, 81, 127
1, 30780, Note_on_c, 1, 65, 127
1, 30828, Note_off_c, 1, 81, 0
1, 30828, Note_off_c, 1, 65, 0
1, 30840, Note_on_c, 1, 79, 127
1, 30840, Note_on_c, 1, 64, 127
1, 30936, Note_off_c, 1, 79, 0
1, 30936, Note_off_c, 1, 64, 0
1, 30960, Note_on_c, 1, 81, 127
1, 30960, Note_on_c, 1, 65, 127
1, 31056, Note_off_c, 1, 81, 0
1, 31056, Note_off_c, 1, 65, 0
1, 31080, Note_on_c, 1, 83, 127
1, 31080, Note_on_c, 1, 67, 127
1, 31176, Note_off_c, 1, 83, 0
1, 31176, Note_off_c, 1, 67, 0
1, 31200, Note_on_c, 1, 71, 127
1, 31200, Note_on_c, 1, 55, 127
1, 31296, Note_off_c, 1, 71, 0
1, 31296, Note_off_c, 1, 55, 0
1, 31320, Note_on_c, 1, 72, 127
1, 31320, Note_on_c, 1, 57, 127
1, 31416, Note_off_c, 1, 72, 0
1, 31416, Note_off_c, 1, 57, 0
1, 31440, Note_on_c, 1, 74, 127
1, 31440, Note_on_c, 1, 59, 127
1, 31536, Note_off_c, 1, 74, 0
1, 31536, Note_off_c, 1, 59, 0
1, 31560, Note_on_c, 1, 76, 127
1, 31560, Note_on_c, 1, 60, 127
1, 31656, Note_off_c, 1, 76, 0
1, 31656, Note_off_c, 1, 60, 0
1, 31680, Note_on_c, 1, 77, 127
1, 31680, Note_on_c, 1, 62, 127
1, 31776, Note_off_c, 1, 77, 0
1, 31776, Note_off_c, 1, 62, 0
1, 31800, Note_on_c, 1, 79, 127
1, 31800, Note_on_c, 1, 64, 127
1, 31896, Note_off_c, 1, 79, 0
1, 31896, Note_off_c, 1, 64, 0
1, 31920, Note_on_c, 1, 81, 127
1, 31920, Note_on_c, 1, 65, 127
1, 32016, Note_off_c, 1, 81, 0
1, 32016, Note_off_c, 1, 65, 0
1, 32040, Note_on_c, 1, 83, 127
1, 32040, Note_on_c, 1, 67, 127
1, 32136, Note_off_c, 1, 83, 0
1, 32136, Note_off_c, 1, 67, 0
1, 32160, Note_on_c, 1, 83, 127
1, 32160, Note_on_c, 1, 67, 127
1, 32184, Note_off_c, 1, 83, 0
1, 32184, Note_off_c, 1, 67, 0
1, 32190, Note_on_c, 1, 84, 127
1, 32190, Note_on_c, 1, 69, 127
1, 32214, Note_off_c, 1, 84, 0
1, 32214, Note_off_c, 1, 69, 0
1, 32220, Note_on_c, 1, 83, 127
1, 32220, Note_on_c, 1, 67, 127
1, 32268, Note_off_c, 1, 83, 0
1, 32268, Note_off_c, 1, 67, 0
1, 32280, Note_on_c, 1, 81, 127
1, 32280, Note_on_c, 1, 65, 127
1, 32376, Note_off_c, 1, 81, 0
1, 32376, Note_off_c, 1, 65, 0
1, 32400, Note_on_c, 1, 83, 127
1, 32400, Note_on_c, 1, 67, 127
1, 32496, Note_off_c, 1, 83, 0
1, 32496, Note_off_c, 1, 67, 0
1, 32520, Note_on_c, 1, 84, 127
1, 32520, Note_on_c, 1, 69, 127
1, 32616, Note_off_c, 1, 84, 0
1, 32616, Note_off_c, 1, 69, 0
1, 32640, Note_on_c, 1, 72, 127
1, 32640, Note_on_c, 1, 57, 127
1, 32736, Note_off_c, 1, 72, 0
1, 32736, Note_off_c, 1, 57, 0
1, 32760, Note_on_c, 1, 74, 127
1, 32760, Note_on_c, 1, 59, 127
1, 32856, Note_off_c, 1, 74, 0
1, 32856, Note_off_c, 1, 59, 0
1, 32880, Note_on_c, 1, 76, 127
1, 32880, Note_on_c, 1, 60, 127
1, 32976, Note_off_c, 1, 76, 0
1, 32976, Note_off_c, 1, 60, 0
1, 33000, Note_on_c, 1, 77, 127
1, 33000, Note_on_c, 1, 62, 127
1, 33096, Note_off_c, 1, 77, 0
1, 33096, Note_off_c, 1, 62, 0
1, 33120, Note_on_c, 1, 79, 127
1, 33120, Note_on_c, 1, 64, 127
1, 33216, Note_off_c, 1, 79, 0
1, 33216, Note_off_c, 1, 64, 0
1, 33240, Note_on_c, 1, 81, 127
1, 33240, Note_on_c, 1, 65, 127
1, 33336, Note_off_c, 1, 81, 0
1, 33336, Note_off_c, 1, 65, 0
1, 33360, Note_on_c, 1, 71, 127
1, 33360, Note_on_c, 1, 55, 127
1, 33456, Note_off_c, 1, 71, 0
1, 33456, Note_off_c, 1, 55, 0
1, 33480, Note_on_c, 1, 72, 127
1, 33480, Note_on_c, 1, 57, 127
1, 33576, Note_off_c, 1, 72, 0
1, 33576, Note_off_c, 1, 57, 0
1, 33600, Note_on_c, 1, 74, 127
1, 33600, Note_on_c, 1, 59, 127
1, 33696, Note_off_c, 1, 74, 0
1, 33696, Note_off_c, 1, 59, 0
1, 33720, Note_on_c, 1, 76, 127
1, 33720, Note_on_c, 1, 60, 127
1, 33816, Note_off_c, 1, 76, 0
1, 33816, Note_off_c, 1, 60, 0
1, 33840, Note_on_c, 1, 77, 127
1, 33840, Note_on_c, 1, 62, 127
1, 33936, Note_off_c, 1, 77, 0
1, 33936, Note_off_c, 1, 62, 0
1, 33960, Note_on_c, 1, 79, 127
1, 33960, Note_on_c, 1, 64, 127
1, 34056, Note_off_c, 1, 79, 0
1, 34056, Note_off_c, 1, 64, 0
1, 34080, Note_on_c, 1, 69, 127
1, 34080, Note_on_c, 1, 53, 127
1, 34176, Note_off_c, 1, 69, 0
1, 34176, Note_off_c, 1, 53, 0
1, 34200, Note_on_c, 1, 71, 127
1, 34200, Note_on_c, 1, 55, 127
1, 34296, Note_off_c, 1, 71, 0
1, 34296, Note_off_c, 1, 55, 0
1, 34320, Note_on_c, 1, 72, 127
1, 34320, Note_on_c, 1, 57, 127
1, 34416, Note_off_c, 1, 72, 0
1, 34416, Note_off_c, 1, 57, 0
1, 34440, Note_on_c, 1, 74, 127
1, 34440, Note_on_c, 1, 59, 127
1, 34536, Note_off_c, 1, 74, 0
1, 34536, Note_off_c, 1, 59, 0
1, 34560, Note_on_c, 1, 76, 127
1, 34560, Note_on_c, 1, 60, 127
1, 34656, Note_off_c, 1, 76, 0
1, 34656, Note_off_c, 1, 60, 0
1, 34680, Note_on_c, 1, 77, 127
1, 34680, Note_on_c, 1, 62, 127
1, 34776, Note_off_c, 1, 77, 0
1, 34776, Note_off_c, 1, 62, 0
1, 34800, Note_on_c, 1, 79, 127
1, 34800, Note_on_c, 1, 64, 127
1, 34896, Note_off_c, 1, 79, 0
1, 34896, Note_off_c, 1, 64, 0
1, 34920, Note_on_c, 1, 81, 127
1, 34920, Note_on_c, 1, 65, 127
1, 35016, Note_off_c, 1, 81, 0
1, 35016, Note_off_c, 1, 65, 0
1, 35040, Note_on_c, 1, 74, 127
1, 35040, Note_on_c, 1, 59, 127
1, 35136, Note_off_c, 1, 74, 0
1, 35136, Note_off_c, 1, 59, 0
1, 35160, Note_on_c, 1, 76, 127
1, 35160, Note_on_c, 1, 60, 127
1, 35256, Note_off_c, 1, 76, 0
1, 35256, Note_off_c, 1, 60, 0
1, 35280, Note_on_c, 1, 77, 127
1, 35280, Note_on_c, 1, 62, 127
1, 35376, Note_off_c, 1, 77, 0
1, 35376, Note_off_c, 1, 62, 0
1, 35400, Note_on_c, 1, 71, 127
1, 35400, Note_on_c, 1, 55, 127
1, 35496, Note_off_c, 1, 71, 0
1, 35520, Note_on_c, 1, 72, 127
1, 35616, Note_off_c, 1, 72, 0
1, 35640, Note_on_c, 1, 74, 127
1, 35688, Note_off_c, 1, 55, 0
1, 35736, Note_off_c, 1, 74, 0
1, 35760, Note_on_c, 1, 67, 127
1, 35856, Note_off_c, 1, 67, 0
1, 35880, Note_on_c, 1, 69, 127
1, 35976, Note_off_c, 1, 69, 0
1, 36000, Note_on_c, 1, 71, 127
1, 36000, Note_on_c, 1, 65, 127
1, 36096, Note_off_c, 1, 71, 0
1, 36096, Note_off_c, 1, 65, 0
1, 36120, Note_on_c, 1, 72, 127
1, 36120, Note_on_c, 1, 64, 127
1, 36216, Note_off_c, 1, 64, 0
1, 36240, Note_on_c, 1, 65, 127
1, 36312, Note_off_c, 1, 72, 0
1, 36336, Note_off_c, 1, 65, 0
1, 36360, Note_on_c, 1, 72, 127
1, 36360, Note_on_c, 1, 67, 127
1, 36456, Note_off_c, 1, 72, 0
1, 36456, Note_off_c, 1, 67, 0
1, 36480, Note_on_c, 1, 72, 127
1, 36480, Note_on_c, 1, 60, 127
1, 36504, Note_off_c, 1, 72, 0
1, 36510, Note_on_c, 1, 74, 127
1, 36534, Note_off_c, 1, 74, 0
1, 36576, Note_off_c, 1, 60, 0
1, 36600, Note_on_c, 1, 71, 127
1, 36600, Note_on_c, 1, 62, 127
1, 36696, Note_off_c, 1, 71, 0
1, 36696, Note_off_c, 1, 62, 0
1, 36720, Note_on_c, 1, 72, 127
1, 36720, Note_on_c, 1, 64, 127
1, 36816, Note_off_c, 1, 72, 0
1, 36816, Note_off_c, 1, 64, 0
1, 36840, Note_on_c, 1, 74, 127
1, 36840, Note_on_c, 1, 59, 127
1, 36936, Note_off_c, 1, 74, 0
1, 36936, Note_off_c, 1, 59, 0
1, 36960, Note_on_c, 1, 65, 127
1, 36960, Note_on_c, 1, 60, 127
1, 37056, Note_off_c, 1, 65, 0
1, 37056, Note_off_c, 1, 60, 0
1, 37080, Note_on_c, 1, 74, 127
1, 37080, Note_on_c, 1, 62, 127
1, 37176, Note_off_c, 1, 74, 0
1, 37176, Note_off_c, 1, 62, 0
1, 37200, Note_on_c, 1, 64, 127
1, 37200, Note_on_c, 1, 55, 127
1, 37296, Note_off_c, 1, 64, 0
1, 37296, Note_off_c, 1, 55, 0
1, 37320, Note_on_c, 1, 65, 127
1, 37320, Note_on_c, 1, 57, 127
1, 37416, Note_off_c, 1, 65, 0
1, 37416, Note_off_c, 1, 57, 0
1, 37440, Note_on_c, 1, 62, 127
1, 37440, Note_on_c, 1, 59, 127
1, 37536, Note_off_c, 1, 62, 0
1, 37536, Note_off_c, 1, 59, 0
1, 37560, Note_on_c, 1, 60, 127
1, 37560, Note_on_c, 1, 52, 127
1, 37656, Note_off_c, 1, 60, 0
1, 37656, Note_off_c, 1, 52, 0
1, 37680, Note_on_c, 1, 64, 127
1, 37680, Note_on_c, 1, 53, 127
1, 37776, Note_off_c, 1, 64, 0
1, 37776, Note_off_c, 1, 53, 0
1, 37800, Note_on_c, 1, 67, 127
1, 37800, Note_on_c, 1, 55, 127
1, 37896, Note_off_c, 1, 67, 0
1, 37896, Note_off_c, 1, 55, 0
1, 37920, Note_on_c, 1, 64, 127
1, 37920, Note_on_c, 1, 48, 127
1, 38016, Note_off_c, 1, 64, 0
1, 38016, Note_off_c, 1, 48, 0
1, 38040, Note_on_c, 1, 67, 127
1, 38040, Note_on_c, 1, 50, 127
1, 38136, Note_off_c, 1, 67, 0
1, 38136, Note_off_c, 1, 50, 0
1, 38160, Note_on_c, 1, 72, 127
1, 38160, Note_on_c, 1, 52, 127
1, 38256, Note_off_c, 1, 72, 0
1, 38256, Note_off_c, 1, 52, 0
1, 38280, Note_on_c, 1, 67, 127
1, 38280, Note_on_c, 1, 47, 127
1, 38376, Note_off_c, 1, 67, 0
1, 38376, Note_off_c, 1, 47, 0
1, 38400, Note_on_c, 1, 71, 127
1, 38400, Note_on_c, 1, 48, 127
1, 38496, Note_off_c, 1, 71, 0
1, 38496, Note_off_c, 1, 48, 0
1, 38520, Note_on_c, 1, 74, 127
1, 38520, Note_on_c, 1, 50, 127
1, 38616, Note_off_c, 1, 74, 0
1, 38616, Note_off_c, 1, 50, 0
1, 38640, Note_on_c, 1, 71, 127
1, 38640, Note_on_c, 1, 43, 127
1, 38736, Note_off_c, 1, 71, 0
1, 38736, Note_off_c, 1, 43, 0
1, 38760, Note_on_c, 1, 74, 127
1, 38760, Note_on_c, 1, 45, 127
1, 38856, Note_off_c, 1, 74, 0
1, 38856, Note_off_c, 1, 45, 0
1, 38880, Note_on_c, 1, 79, 127
1, 38880, Note_on_c, 1, 47, 127
1, 38976, Note_off_c, 1, 79, 0
1, 38976, Note_off_c, 1, 47, 0
1, 39000, Note_on_c, 1, 79, 127
1, 39000, Note_on_c, 1, 40, 127
1, 39096, Note_off_c, 1, 79, 0
1, 39120, Note_on_c, 1, 76, 127
1, 39216, Note_off_c, 1, 76, 0
1, 39240, Note_on_c, 1, 72, 127
1, 39288, Note_off_c, 1, 40, 0
1, 39336, Note_off_c, 1, 72, 0
1, 39360, Note_on_c, 1, 70, 127
1, 39456, Note_off_c, 1, 70, 0
1, 39480, Note_on_c, 1, 69, 127
1, 39576, Note_off_c, 1, 69, 0
1, 39600, Note_on_c, 1, 67, 127
1, 39600, Note_on_c, 1, 52, 127
1, 39696, Note_off_c, 1, 67, 0
1, 39696, Note_off_c, 1, 52, 0
1, 39720, Note_on_c, 1, 69, 127
1, 39720, Note_on_c, 1, 53, 127
1, 39816, Note_off_c, 1, 53, 0
1, 39840, Note_on_c, 1, 55, 127
1, 39936, Note_off_c, 1, 55, 0
1, 39960, Note_on_c, 1, 57, 127
1, 40008, Note_off_c, 1, 69, 0
1, 40056, Note_off_c, 1, 57, 0
1, 40080, Note_on_c, 1, 57, 127
1, 40176, Note_off_c, 1, 57, 0
1, 40200, Note_on_c, 1, 59, 127
1, 40296, Note_off_c, 1, 59, 0
1, 40320, Note_on_c, 1, 69, 127
1, 40320, Note_on_c, 1, 60, 127
1, 40416, Note_off_c, 1, 69, 0
1, 40416, Note_off_c, 1, 60, 0
1, 40440, Note_on_c, 1, 77, 127
1, 40440, Note_on_c, 1, 38, 127
1, 40536, Note_off_c, 1, 77, 0
1, 40560, Note_on_c, 1, 74, 127
1, 40656, Note_off_c, 1, 74, 0
1, 40680, Note_on_c, 1, 71, 127
1, 40728, Note_off_c, 1, 38, 0
1, 40776, Note_off_c, 1, 71, 0
1, 40800, Note_on_c, 1, 69, 127
1, 40896, Note_off_c, 1, 69, 0
1, 40920, Note_on_c, 1, 67, 127
1, 41016, Note_off_c, 1, 67, 0
1, 41040, Note_on_c, 1, 65, 127
1, 41040, Note_on_c, 1, 50, 127
1, 41136, Note_off_c, 1, 65, 0
1, 41136, Note_off_c, 1, 50, 0
1, 41160, Note_on_c, 1, 67, 127
1, 41160, Note_on_c, 1, 52, 127
1, 41256, Note_off_c, 1, 52, 0
1, 41280, Note_on_c, 1, 53, 127
1, 41376, Note_off_c, 1, 53, 0
1, 41400, Note_on_c, 1, 55, 127
1, 41448, Note_off_c, 1, 67, 0
1, 41496, Note_off_c, 1, 55, 0
1, 41520, Note_on_c, 1, 55, 127
1, 41616, Note_off_c, 1, 55, 0
1, 41640, Note_on_c, 1, 57, 127
1, 41736, Note_off_c, 1, 57, 0
1, 41760, Note_on_c, 1, 67, 127
1, 41760, Note_on_c, 1, 59, 127
1, 41856, Note_off_c, 1, 59, 0
1, 41880, Note_off_c, 1, 67, 0
1, 41880, Note_on_c, 1, 76, 127
1, 41880, Note_on_c, 1, 36, 127
1, 41976, Note_off_c, 1, 76, 0
1, 42000, Note_on_c, 1, 72, 127
1, 42096, Note_off_c, 1, 72, 0
1, 42120, Note_on_c, 1, 69, 127
1, 42168, Note_off_c, 1, 36, 0
1, 42216, Note_off_c, 1, 69, 0
1, 42240, Note_on_c, 1, 67, 127
1, 42240, Note_on_c, 1, 48, 127
1, 42336, Note_off_c, 1, 67, 0
1, 42360, Note_on_c, 1, 65, 127
1, 42456, Note_off_c, 1, 65, 0
1, 42480, Note_on_c, 1, 64, 127
1, 42576, Note_off_c, 1, 64, 0
1, 42600, Note_on_c, 1, 74, 127
1, 42696, Note_off_c, 1, 74, 0
1, 42720, Note_on_c, 1, 71, 127
1, 42816, Note_off_c, 1, 71, 0
1, 42888, Note_off_c, 1, 48, 0
1, 42960, Note_on_c, 1, 65, 127
1, 42960, Note_on_c, 1, 47, 127
1, 43056, Note_off_c, 1, 65, 0
1, 43080, Note_on_c, 1, 64, 127
1, 43176, Note_off_c, 1, 64, 0
1, 43200, Note_on_c, 1, 62, 127
1, 43248, Note_off_c, 1, 47, 0
1, 43296, Note_off_c, 1, 62, 0
1, 43320, Note_on_c, 1, 64, 127
1, 43320, Note_on_c, 1, 48, 127
1, 43416, Note_off_c, 1, 64, 0
1, 43440, Note_on_c, 1, 67, 127
1, 43536, Note_off_c, 1, 67, 0
1, 43560, Note_on_c, 1, 72, 127
1, 43608, Note_off_c, 1, 48, 0
1, 43656, Note_off_c, 1, 72, 0
1, 43680, Note_on_c, 1, 66, 127
1, 43680, Note_on_c, 1, 45, 127
1, 43776, Note_off_c, 1, 66, 0
1, 43800, Note_on_c, 1, 74, 127
1, 43896, Note_off_c, 1, 74, 0
1, 43920, Note_on_c, 1, 72, 127
1, 43968, Note_off_c, 1, 45, 0
1, 44016, Note_off_c, 1, 72, 0
1, 44040, Note_on_c, 1, 71, 127
1, 44040, Note_on_c, 1, 43, 127
1, 44136, Note_off_c, 1, 71, 0
1, 44160, Note_on_c, 1, 72, 127
1, 44256, Note_off_c, 1, 72, 0
1, 44280, Note_on_c, 1, 74, 127
1, 44376, Note_off_c, 1, 74, 0
1, 44400, Note_on_c, 1, 67, 127
1, 44496, Note_off_c, 1, 43, 0
1, 44520, Note_on_c, 1, 45, 127
1, 44592, Note_off_c, 1, 67, 0
1, 44616, Note_off_c, 1, 45, 0
1, 44640, Note_on_c, 1, 74, 127
1, 44640, Note_on_c, 1, 47, 127
1, 44736, Note_off_c, 1, 74, 0
1, 44736, Note_off_c, 1, 47, 0
1, 44760, Note_on_c, 1, 76, 127
1, 44760, Note_on_c, 1, 48, 127
1, 44856, Note_off_c, 1, 76, 0
1, 44856, Note_off_c, 1, 48, 0
1, 44880, Note_on_c, 1, 77, 127
1, 44880, Note_on_c, 1, 50, 127
1, 44976, Note_off_c, 1, 77, 0
1, 44976, Note_off_c, 1, 50, 0
1, 45000, Note_on_c, 1, 79, 127
1, 45000, Note_on_c, 1, 52, 127
1, 45096, Note_off_c, 1, 79, 0
1, 45096, Note_off_c, 1, 52, 0
1, 45120, Note_on_c, 1, 67, 127
1, 45120, Note_on_c, 1, 47, 127
1, 45216, Note_off_c, 1, 67, 0
1, 45216, Note_off_c, 1, 47, 0
1, 45240, Note_on_c, 1, 69, 127
1, 45240, Note_on_c, 1, 48, 127
1, 45336, Note_off_c, 1, 69, 0
1, 45336, Note_off_c, 1, 48, 0
1, 45360, Note_on_c, 1, 71, 127
1, 45360, Note_on_c, 1, 50, 127
1, 45456, Note_off_c, 1, 71, 0
1, 45456, Note_off_c, 1, 50, 0
1, 45480, Note_on_c, 1, 72, 127
1, 45480, Note_on_c, 1, 52, 127
1, 45576, Note_off_c, 1, 72, 0
1, 45576, Note_off_c, 1, 52, 0
1, 45600, Note_on_c, 1, 74, 127
1, 45600, Note_on_c, 1, 53, 127
1, 45696, Note_off_c, 1, 74, 0
1, 45696, Note_off_c, 1, 53, 0
1, 45720, Note_on_c, 1, 76, 127
1, 45720, Note_on_c, 1, 55, 127
1, 45816, Note_off_c, 1, 76, 0
1, 45816, Note_off_c, 1, 55, 0
1, 45840, Note_on_c, 1, 71, 127
1, 45840, Note_on_c, 1, 55, 127
1, 45936, Note_off_c, 1, 71, 0
1, 45936, Note_off_c, 1, 55, 0
1, 45960, Note_on_c, 1, 72, 127
1, 45960, Note_on_c, 1, 57, 127
1, 46056, Note_off_c, 1, 72, 0
1, 46056, Note_off_c, 1, 57, 0
1, 46080, Note_on_c, 1, 74, 127
1, 46080, Note_on_c, 1, 59, 127
1, 46176, Note_off_c, 1, 74, 0
1, 46176, Note_off_c, 1, 59, 0
1, 46200, Note_on_c, 1, 76, 127
1, 46200, Note_on_c, 1, 60, 127
1, 46296, Note_off_c, 1, 76, 0
1, 46296, Note_off_c, 1, 60, 0
1, 46320, Note_on_c, 1, 77, 127
1, 46320, Note_on_c, 1, 62, 127
1, 46416, Note_off_c, 1, 77, 0
1, 46416, Note_off_c, 1, 62, 0
1, 46440, Note_on_c, 1, 79, 127
1, 46440, Note_on_c, 1, 64, 127
1, 46536, Note_off_c, 1, 79, 0
1, 46536, Note_off_c, 1, 64, 0
1, 46560, Note_on_c, 1, 67, 127
1, 46560, Note_on_c, 1, 59, 127
1, 46656, Note_off_c, 1, 67, 0
1, 46656, Note_off_c, 1, 59, 0
1, 46680, Note_on_c, 1, 69, 127
1, 46680, Note_on_c, 1, 60, 127
1, 46776, Note_off_c, 1, 69, 0
1, 46776, Note_off_c, 1, 60, 0
1, 46800, Note_on_c, 1, 71, 127
1, 46800, Note_on_c, 1, 62, 127
1, 46896, Note_off_c, 1, 71, 0
1, 46896, Note_off_c, 1, 62, 0
1, 46920, Note_on_c, 1, 72, 127
1, 46920, Note_on_c, 1, 64, 127
1, 47016, Note_off_c, 1, 72, 0
1, 47016, Note_off_c, 1, 64, 0
1, 47040, Note_on_c, 1, 74, 127
1, 47040, Note_on_c, 1, 65, 127
1, 47136, Note_off_c, 1, 74, 0
1, 47136, Note_off_c, 1, 65, 0
1, 47160, Note_on_c, 1, 76, 127
1, 47160, Note_on_c, 1, 67, 127
1, 47256, Note_off_c, 1, 76, 0
1, 47256, Note_off_c, 1, 67, 0
1, 47280, Note_on_c, 1, 67, 127
1, 47280, Note_on_c, 1, 71, 127
1, 47376, Note_off_c, 1, 67, 0
1, 47376, Note_off_c, 1, 71, 0
1, 47400, Note_on_c, 1, 69, 127
1, 47400, Note_on_c, 1, 72, 127
1, 47496, Note_off_c, 1, 69, 0
1, 47496, Note_off_c, 1, 72, 0
1, 47520, Note_on_c, 1, 71, 127
1, 47520, Note_on_c, 1, 74, 127
1, 47616, Note_off_c, 1, 71, 0
1, 47616, Note_off_c, 1, 74, 0
1, 47640, Note_on_c, 1, 76, 127
1, 47640, Note_on_c, 1, 72, 127
1, 47736, Note_off_c, 1, 76, 0
1, 47760, Note_on_c, 1, 77, 127
1, 47832, Note_off_c, 1, 72, 0
1, 47856, Note_off_c, 1, 77, 0
1, 47880, Note_on_c, 1, 79, 127
1, 47880, Note_on_c, 1, 65, 127
1, 47976, Note_off_c, 1, 79, 0
1, 47976, Note_off_c, 1, 65, 0
1, 48000, Note_on_c, 1, 76, 127
1, 48000, Note_on_c, 1, 67, 127
1, 48024, Note_off_c, 1, 76, 0
1, 48030, Note_on_c, 1, 77, 127
1, 48054, Note_off_c, 1, 77, 0
1, 48120, Note_on_c, 1, 74, 127
1, 48192, Note_off_c, 1, 67, 0
1, 48216, Note_off_c, 1, 74, 0
1, 48240, Note_on_c, 1, 55, 127
1, 48240, Note_on_c, 1, 72, 127
1, 48336, Note_off_c, 1, 55, 0
1, 48336, Note_off_c, 1, 72, 0
1, 48360, Note_on_c, 1, 72, 127
1, 48360, Note_on_c, 1, 48, 127
1, 48456, Note_off_c, 1, 72, 0
1, 48480, Note_on_c, 1, 67, 127
1, 48576, Note_off_c, 1, 67, 0
1, 48600, Note_on_c, 1, 64, 127
1, 48696, Note_off_c, 1, 64, 0
1, 48720, Note_on_c, 1, 60, 127
1, 48816, Note_off_c, 1, 48, 0
1, 48840, Note_on_c, 1, 43, 127
1, 48912, Note_off_c, 1, 60, 0
1, 48936, Note_off_c, 1, 43, 0
1, 48960, Note_on_c, 1, 67, 127
1, 48960, Note_on_c, 1, 40, 127
1, 49056, Note_off_c, 1, 67, 0
1, 49056, Note_off_c, 1, 40, 0
1, 49080, Note_on_c, 1, 72, 127
1, 49080, Note_on_c, 1, 36, 127
1, 49272, Note_off_c, 1, 72, 0
1, 49368, Note_off_c, 1, 36, 0
1, 49440, Note_on_c, 1, 72, 127
1, 49440, Note_on_c, 1, 48, 127
1, 49536, Note_off_c, 1, 72, 0
1, 49560, Note_on_c, 1, 74, 127
1, 49656, Note_off_c, 1, 74, 0
1, 49680, Note_on_c, 1, 76, 127
1, 49776, Note_off_c, 1, 76, 0
1, 49920, Note_on_c, 1, 65, 127
1, 50016, Note_off_c, 1, 65, 0
1, 50088, Note_off_c, 1, 48, 0
1, 50160, Note_on_c, 1, 67, 127
1, 50160, Note_on_c, 1, 47, 127
1, 50256, Note_off_c, 1, 67, 0
1, 50280, Note_on_c, 1, 69, 127
1, 50376, Note_off_c, 1, 69, 0
1, 50400, Note_on_c, 1, 65, 127
1, 50448, Note_off_c, 1, 47, 0
1, 50496, Note_off_c, 1, 65, 0
1, 50520, Note_on_c, 1, 64, 127
1, 50520, Note_on_c, 1, 48, 127
1, 50616, Note_off_c, 1, 64, 0
1, 50640, Note_on_c, 1, 72, 127
1, 50736, Note_off_c, 1, 72, 0
1, 50808, Note_off_c, 1, 48, 0
1, 50880, Note_on_c, 1, 62, 127
1, 50880, Note_on_c, 1, 41, 127
1, 50976, Note_off_c, 1, 62, 0
1, 51000, Note_on_c, 1, 64, 127
1, 51096, Note_off_c, 1, 64, 0
1, 51120, Note_on_c, 1, 60, 127
1, 51168, Note_off_c, 1, 41, 0
1, 51216, Note_off_c, 1, 60, 0
1, 51240, Note_on_c, 1, 59, 127
1, 51240, Note_on_c, 1, 43, 127
1, 51336, Note_off_c, 1, 59, 0
1, 51360, Note_on_c, 1, 60, 127
1, 51456, Note_off_c, 1, 60, 0
1, 51480, Note_on_c, 1, 62, 127
1, 51576, Note_off_c, 1, 62, 0
1, 51600, Note_on_c, 1, 55, 127
1, 51696, Note_off_c, 1, 43, 0
1, 51720, Note_on_c, 1, 45, 127
1, 51792, Note_off_c, 1, 55, 0
1, 51816, Note_off_c, 1, 45, 0
1, 51840, Note_on_c, 1, 62, 127
1, 51840, Note_on_c, 1, 47, 127
1, 51936, Note_off_c, 1, 62, 0
1, 51936, Note_off_c, 1, 47, 0
1, 51960, Note_on_c, 1, 64, 127
1, 51960, Note_on_c, 1, 48, 127
1, 52056, Note_off_c, 1, 64, 0
1, 52056, Note_off_c, 1, 48, 0
1, 52080, Note_on_c, 1, 66, 127
1, 52080, Note_on_c, 1, 50, 127
1, 52176, Note_off_c, 1, 66, 0
1, 52176, Note_off_c, 1, 50, 0
1, 52200, Note_on_c, 1, 67, 127
1, 52200, Note_on_c, 1, 52, 127
1, 52296, Note_off_c, 1, 67, 0
1, 52296, Note_off_c, 1, 52, 0
1, 52320, Note_on_c, 1, 69, 127
1, 52320, Note_on_c, 1, 54, 127
1, 52416, Note_off_c, 1, 69, 0
1, 52416, Note_off_c, 1, 54, 0
1, 52440, Note_on_c, 1, 71, 127
1, 52440, Note_on_c, 1, 55, 127
1, 52536, Note_off_c, 1, 71, 0
1, 52536, Note_off_c, 1, 55, 0
1, 52560, Note_on_c, 1, 72, 127
1, 52560, Note_on_c, 1, 57, 127
1, 52656, Note_off_c, 1, 72, 0
1, 52656, Note_off_c, 1, 57, 0
1, 52680, Note_on_c, 1, 63, 127
1, 52680, Note_on_c, 1, 47, 127
1, 52776, Note_off_c, 1, 47, 0
1, 52800, Note_on_c, 1, 59, 127
1, 52872, Note_off_c, 1, 63, 0
1, 52896, Note_off_c, 1, 59, 0
1, 52920, Note_on_c, 1, 72, 127
1, 52920, Note_on_c, 1, 57, 127
1, 53016, Note_off_c, 1, 72, 0
1, 53016, Note_off_c, 1, 57, 0
1, 53040, Note_on_c, 1, 71, 127
1, 53040, Note_on_c, 1, 56, 127
1, 53136, Note_off_c, 1, 56, 0
1, 53160, Note_on_c, 1, 57, 127
1, 53256, Note_off_c, 1, 57, 0
1, 53280, Note_on_c, 1, 54, 127
1, 53328, Note_off_c, 1, 71, 0
1, 53376, Note_off_c, 1, 54, 0
1, 53400, Note_on_c, 1, 62, 127
1, 53400, Note_on_c, 1, 56, 127
1, 53496, Note_off_c, 1, 62, 0
1, 53496, Note_off_c, 1, 56, 0
1, 53520, Note_on_c, 1, 64, 127
1, 53520, Note_on_c, 1, 54, 127
1, 53616, Note_off_c, 1, 64, 0
1, 53616, Note_off_c, 1, 54, 0
1, 53640, Note_on_c, 1, 66, 127
1, 53640, Note_on_c, 1, 52, 127
1, 53736, Note_off_c, 1, 66, 0
1, 53736, Note_off_c, 1, 52, 0
1, 53760, Note_on_c, 1, 68, 127
1, 53760, Note_on_c, 1, 50, 127
1, 53856, Note_off_c, 1, 68, 0
1, 53856, Note_off_c, 1, 50, 0
1, 53880, Note_on_c, 1, 69, 127
1, 53880, Note_on_c, 1, 48, 127
1, 53976, Note_off_c, 1, 69, 0
1, 53976, Note_off_c, 1, 48, 0
1, 54000, Note_on_c, 1, 71, 127
1, 54000, Note_on_c, 1, 47, 127
1, 54096, Note_off_c, 1, 71, 0
1, 54096, Note_off_c, 1, 47, 0
1, 54120, Note_on_c, 1, 61, 127
1, 54120, Note_on_c, 1, 45, 127
1, 54216, Note_off_c, 1, 45, 0
1, 54240, Note_on_c, 1, 57, 127
1, 54312, Note_off_c, 1, 61, 0
1, 54336, Note_off_c, 1, 57, 0
1, 54360, Note_on_c, 1, 71, 127
1, 54360, Note_on_c, 1, 55, 127
1, 54456, Note_off_c, 1, 71, 0
1, 54456, Note_off_c, 1, 55, 0
1, 54480, Note_on_c, 1, 69, 127
1, 54480, Note_on_c, 1, 54, 127
1, 54576, Note_off_c, 1, 54, 0
1, 54600, Note_on_c, 1, 55, 127
1, 54696, Note_off_c, 1, 55, 0
1, 54720, Note_on_c, 1, 52, 127
1, 54768, Note_off_c, 1, 69, 0
1, 54816, Note_off_c, 1, 52, 0
1, 54840, Note_on_c, 1, 60, 127
1, 54840, Note_on_c, 1, 54, 127
1, 54936, Note_off_c, 1, 60, 0
1, 54936, Note_off_c, 1, 54, 0
1, 54960, Note_on_c, 1, 62, 127
1, 54960, Note_on_c, 1, 52, 127
1, 55056, Note_off_c, 1, 62, 0
1, 55056, Note_off_c, 1, 52, 0
1, 55080, Note_on_c, 1, 64, 127
1, 55080, Note_on_c, 1, 50, 127
1, 55176, Note_off_c, 1, 64, 0
1, 55176, Note_off_c, 1, 50, 0
1, 55200, Note_on_c, 1, 66, 127
1, 55200, Note_on_c, 1, 48, 127
1, 55296, Note_off_c, 1, 66, 0
1, 55296, Note_off_c, 1, 48, 0
1, 55320, Note_on_c, 1, 67, 127
1, 55320, Note_on_c, 1, 47, 127
1, 55416, Note_off_c, 1, 67, 0
1, 55416, Note_off_c, 1, 47, 0
1, 55440, Note_on_c, 1, 69, 127
1, 55440, Note_on_c, 1, 45, 127
1, 55536, Note_off_c, 1, 69, 0
1, 55536, Note_off_c, 1, 45, 0
1, 55560, Note_on_c, 1, 59, 127
1, 55560, Note_on_c, 1, 43, 127
1, 55656, Note_off_c, 1, 43, 0
1, 55680, Note_on_c, 1, 55, 127
1, 55752, Note_off_c, 1, 59, 0
1, 55776, Note_off_c, 1, 55, 0
1, 55800, Note_on_c, 1, 69, 127
1, 55800, Note_on_c, 1, 54, 127
1, 55896, Note_off_c, 1, 69, 0
1, 55896, Note_off_c, 1, 54, 0
1, 55920, Note_on_c, 1, 67, 127
1, 55920, Note_on_c, 1, 52, 127
1, 56016, Note_off_c, 1, 52, 0
1, 56040, Note_on_c, 1, 51, 127
1, 56136, Note_off_c, 1, 51, 0
1, 56208, Note_off_c, 1, 67, 0
1, 56280, Note_on_c, 1, 57, 127
1, 56280, Note_on_c, 1, 42, 127
1, 56376, Note_off_c, 1, 42, 0
1, 56400, Note_on_c, 1, 54, 127
1, 56472, Note_off_c, 1, 57, 0
1, 56496, Note_off_c, 1, 54, 0
1, 56520, Note_on_c, 1, 67, 127
1, 56520, Note_on_c, 1, 52, 127
1, 56616, Note_off_c, 1, 67, 0
1, 56616, Note_off_c, 1, 52, 0
1, 56640, Note_on_c, 1, 66, 127
1, 56640, Note_on_c, 1, 51, 127
1, 56736, Note_off_c, 1, 51, 0
1, 56760, Note_on_c, 1, 49, 127
1, 56856, Note_off_c, 1, 49, 0
1, 56928, Note_off_c, 1, 66, 0
1, 57000, Note_on_c, 1, 55, 127
1, 57000, Note_on_c, 1, 40, 127
1, 57096, Note_off_c, 1, 40, 0
1, 57120, Note_on_c, 1, 52, 127
1, 57192, Note_off_c, 1, 55, 0
1, 57216, Note_off_c, 1, 52, 0
1, 57240, Note_on_c, 1, 66, 127
1, 57240, Note_on_c, 1, 50, 127
1, 57336, Note_off_c, 1, 66, 0
1, 57336, Note_off_c, 1, 50, 0
1, 57360, Note_on_c, 1, 64, 127
1, 57360, Note_on_c, 1, 48, 127
1, 57456, Note_off_c, 1, 64, 0
1, 57456, Note_off_c, 1, 48, 0
1, 57480, Note_on_c, 1, 63, 127
1, 57480, Note_on_c, 1, 47, 127
1, 57576, Note_off_c, 1, 63, 0
1, 57576, Note_off_c, 1, 47, 0
1, 57600, Note_on_c, 1, 64, 127
1, 57600, Note_on_c, 1, 45, 127
1, 57696, Note_off_c, 1, 64, 0
1, 57696, Note_off_c, 1, 45, 0
1, 57720, Note_on_c, 1, 63, 127
1, 57720, Note_on_c, 1, 47, 127
1, 57816, Note_off_c, 1, 63, 0
1, 57840, Note_on_c, 1, 64, 127
1, 57936, Note_off_c, 1, 64, 0
1, 57960, Note_on_c, 1, 66, 127
1, 58056, Note_off_c, 1, 66, 0
1, 58080, Note_on_c, 1, 59, 127
1, 58176, Note_off_c, 1, 47, 0
1, 58176, Note_off_c, 1, 59, 0
1, 58200, Note_on_c, 1, 71, 127
1, 58200, Note_on_c, 1, 49, 127
1, 58296, Note_off_c, 1, 71, 0
1, 58296, Note_off_c, 1, 49, 0
1, 58320, Note_on_c, 1, 69, 127
1, 58320, Note_on_c, 1, 51, 127
1, 58416, Note_off_c, 1, 69, 0
1, 58416, Note_off_c, 1, 51, 0
1, 58440, Note_on_c, 1, 67, 127
1, 58440, Note_on_c, 1, 52, 127
1, 58536, Note_off_c, 1, 67, 0
1, 58536, Note_off_c, 1, 52, 0
1, 58560, Note_on_c, 1, 69, 127
1, 58560, Note_on_c, 1, 54, 127
1, 58656, Note_off_c, 1, 69, 0
1, 58656, Note_off_c, 1, 54, 0
1, 58680, Note_on_c, 1, 71, 127
1, 58680, Note_on_c, 1, 55, 127
1, 58776, Note_off_c, 1, 71, 0
1, 58776, Note_off_c, 1, 55, 0
1, 58800, Note_on_c, 1, 64, 127
1, 58800, Note_on_c, 1, 48, 127
1, 58896, Note_off_c, 1, 64, 0
1, 58896, Note_off_c, 1, 48, 0
1, 58920, Note_on_c, 1, 72, 127
1, 58920, Note_on_c, 1, 50, 127
1, 59016, Note_off_c, 1, 72, 0
1, 59016, Note_off_c, 1, 50, 0
1, 59040, Note_on_c, 1, 71, 127
1, 59040, Note_on_c, 1, 52, 127
1, 59136, Note_off_c, 1, 71, 0
1, 59136, Note_off_c, 1, 52, 0
1, 59160, Note_on_c, 1, 69, 127
1, 59160, Note_on_c, 1, 54, 127
1, 59256, Note_off_c, 1, 69, 0
1, 59256, Note_off_c, 1, 54, 0
1, 59280, Note_on_c, 1, 71, 127
1, 59280, Note_on_c, 1, 55, 127
1, 59376, Note_off_c, 1, 71, 0
1, 59376, Note_off_c, 1, 55, 0
1, 59400, Note_on_c, 1, 72, 127
1, 59400, Note_on_c, 1, 57, 127
1, 59496, Note_off_c, 1, 72, 0
1, 59496, Note_off_c, 1, 57, 0
1, 59520, Note_on_c, 1, 66, 127
1, 59520, Note_on_c, 1, 50, 127
1, 59616, Note_off_c, 1, 66, 0
1, 59616, Note_off_c, 1, 50, 0
1, 59640, Note_on_c, 1, 74, 127
1, 59640, Note_on_c, 1, 52, 127
1, 59736, Note_off_c, 1, 74, 0
1, 59736, Note_off_c, 1, 52, 0
1, 59760, Note_on_c, 1, 72, 127
1, 59760, Note_on_c, 1, 54, 127
1, 59856, Note_off_c, 1, 72, 0
1, 59856, Note_off_c, 1, 54, 0
1, 59880, Note_on_c, 1, 71, 127
1, 59880, Note_on_c, 1, 55, 127
1, 59976, Note_off_c, 1, 71, 0
1, 59976, Note_off_c, 1, 55, 0
1, 60000, Note_on_c, 1, 72, 127
1, 60000, Note_on_c, 1, 57, 127
1, 60096, Note_off_c, 1, 72, 0
1, 60096, Note_off_c, 1, 57, 0
1, 60120, Note_on_c, 1, 74, 127
1, 60120, Note_on_c, 1, 59, 127
1, 60216, Note_off_c, 1, 74, 0
1, 60216, Note_off_c, 1, 59, 0
1, 60240, Note_on_c, 1, 67, 127
1, 60240, Note_on_c, 1, 52, 127
1, 60336, Note_off_c, 1, 67, 0
1, 60336, Note_off_c, 1, 52, 0
1, 60360, Note_on_c, 1, 76, 127
1, 60360, Note_on_c, 1, 54, 127
1, 60456, Note_off_c, 1, 76, 0
1, 60456, Note_off_c, 1, 54, 0
1, 60480, Note_on_c, 1, 74, 127
1, 60480, Note_on_c, 1, 55, 127
1, 60576, Note_off_c, 1, 74, 0
1, 60576, Note_off_c, 1, 55, 0
1, 60600, Note_on_c, 1, 73, 127
1, 60600, Note_on_c, 1, 57, 127
1, 60696, Note_off_c, 1, 73, 0
1, 60696, Note_off_c, 1, 57, 0
1, 60720, Note_on_c, 1, 75, 127
1, 60720, Note_on_c, 1, 59, 127
1, 60816, Note_off_c, 1, 75, 0
1, 60816, Note_off_c, 1, 59, 0
1, 60840, Note_on_c, 1, 76, 127
1, 60840, Note_on_c, 1, 60, 127
1, 60936, Note_off_c, 1, 76, 0
1, 60936, Note_off_c, 1, 60, 0
1, 60960, Note_on_c, 1, 69, 127
1, 60960, Note_on_c, 1, 54, 127
1, 61056, Note_off_c, 1, 69, 0
1, 61056, Note_off_c, 1, 54, 0
1, 61080, Note_on_c, 1, 78, 127
1, 61080, Note_on_c, 1, 55, 127
1, 61176, Note_off_c, 1, 78, 0
1, 61176, Note_off_c, 1, 55, 0
1, 61200, Note_on_c, 1, 76, 127
1, 61200, Note_on_c, 1, 57, 127
1, 61296, Note_off_c, 1, 76, 0
1, 61296, Note_off_c, 1, 57, 0
1, 61320, Note_on_c, 1, 75, 127
1, 61320, Note_on_c, 1, 59, 127
1, 61416, Note_off_c, 1, 75, 0
1, 61416, Note_off_c, 1, 59, 0
1, 61440, Note_on_c, 1, 76, 127
1, 61440, Note_on_c, 1, 61, 127
1, 61536, Note_off_c, 1, 76, 0
1, 61536, Note_off_c, 1, 61, 0
1, 61560, Note_on_c, 1, 78, 127
1, 61560, Note_on_c, 1, 63, 127
1, 61656, Note_off_c, 1, 78, 0
1, 61656, Note_off_c, 1, 63, 0
1, 61680, Note_on_c, 1, 78, 127
1, 61680, Note_on_c, 1, 63, 127
1, 61704, Note_off_c, 1, 78, 0
1, 61704, Note_off_c, 1, 63, 0
1, 61710, Note_on_c, 1, 79, 127
1, 61710, Note_on_c, 1, 64, 127
1, 61734, Note_off_c, 1, 79, 0
1, 61734, Note_off_c, 1, 64, 0
1, 61740, Note_on_c, 1, 78, 127
1, 61740, Note_on_c, 1, 63, 127
1, 61788, Note_off_c, 1, 63, 0
1, 61797, Note_off_c, 1, 78, 0
1, 61800, Note_on_c, 1, 76, 127
1, 61800, Note_on_c, 1, 61, 127
1, 61896, Note_off_c, 1, 76, 0
1, 61896, Note_off_c, 1, 61, 0
1, 61920, Note_on_c, 1, 78, 127
1, 61920, Note_on_c, 1, 63, 127
1, 62016, Note_off_c, 1, 78, 0
1, 62016, Note_off_c, 1, 63, 0
1, 62040, Note_on_c, 1, 79, 127
1, 62040, Note_on_c, 1, 64, 127
1, 62136, Note_off_c, 1, 79, 0
1, 62136, Note_off_c, 1, 64, 0
1, 62160, Note_on_c, 1, 67, 127
1, 62160, Note_on_c, 1, 52, 127
1, 62256, Note_off_c, 1, 67, 0
1, 62256, Note_off_c, 1, 52, 0
1, 62280, Note_on_c, 1, 69, 127
1, 62280, Note_on_c, 1, 54, 127
1, 62376, Note_off_c, 1, 69, 0
1, 62376, Note_off_c, 1, 54, 0
1, 62400, Note_on_c, 1, 71, 127
1, 62400, Note_on_c, 1, 56, 127
1, 62496, Note_off_c, 1, 71, 0
1, 62496, Note_off_c, 1, 56, 0
1, 62520, Note_on_c, 1, 73, 127
1, 62520, Note_on_c, 1, 57, 127
1, 62616, Note_off_c, 1, 73, 0
1, 62616, Note_off_c, 1, 57, 0
1, 62640, Note_on_c, 1, 75, 127
1, 62640, Note_on_c, 1, 59, 127
1, 62736, Note_off_c, 1, 75, 0
1, 62736, Note_off_c, 1, 59, 0
1, 62760, Note_on_c, 1, 76, 127
1, 62760, Note_on_c, 1, 61, 127
1, 62856, Note_off_c, 1, 76, 0
1, 62856, Note_off_c, 1, 61, 0
1, 62880, Note_on_c, 1, 78, 127
1, 62880, Note_on_c, 1, 63, 127
1, 62976, Note_off_c, 1, 78, 0
1, 62976, Note_off_c, 1, 63, 0
1, 63000, Note_on_c, 1, 79, 127
1, 63000, Note_on_c, 1, 64, 127
1, 63096, Note_off_c, 1, 79, 0
1, 63096, Note_off_c, 1, 64, 0
1, 63120, Note_on_c, 1, 79, 127
1, 63120, Note_on_c, 1, 64, 127
1, 63144, Note_off_c, 1, 79, 0
1, 63144, Note_off_c, 1, 64, 0
1, 63150, Note_on_c, 1, 81, 127
1, 63150, Note_on_c, 1, 65, 127
1, 63174, Note_off_c, 1, 65, 0
1, 63179, Note_off_c, 1, 81, 0
1, 63180, Note_on_c, 1, 79, 127
1, 63180, Note_on_c, 1, 64, 127
1, 63228, Note_off_c, 1, 79, 0
1, 63228, Note_off_c, 1, 64, 0
1, 63240, Note_on_c, 1, 78, 127
1, 63240, Note_on_c, 1, 62, 127
1, 63336, Note_off_c, 1, 78, 0
1, 63353, Note_off_c, 1, 62, 0
1, 63360, Note_on_c, 1, 79, 127
1, 63360, Note_on_c, 1, 64, 127
1, 63456, Note_off_c, 1, 79, 0
1, 63473, Note_off_c, 1, 64, 0
1, 63480, Note_on_c, 1, 81, 127
1, 63480, Note_on_c, 1, 66, 127
1, 63576, Note_off_c, 1, 81, 0
1, 63576, Note_off_c, 1, 66, 0
1, 63600, Note_on_c, 1, 69, 127
1, 63600, Note_on_c, 1, 54, 127
1, 63696, Note_off_c, 1, 69, 0
1, 63696, Note_off_c, 1, 54, 0
1, 63720, Note_on_c, 1, 71, 127
1, 63720, Note_on_c, 1, 56, 127
1, 63816, Note_off_c, 1, 71, 0
1, 63816, Note_off_c, 1, 56, 0
1, 63840, Note_on_c, 1, 73, 127
1, 63840, Note_on_c, 1, 57, 127
1, 63936, Note_off_c, 1, 73, 0
1, 63936, Note_off_c, 1, 57, 0
1, 63960, Note_on_c, 1, 75, 127
1, 63960, Note_on_c, 1, 59, 127
1, 64056, Note_off_c, 1, 75, 0
1, 64056, Note_off_c, 1, 59, 0
1, 64080, Note_on_c, 1, 76, 127
1, 64080, Note_on_c, 1, 61, 127
1, 64176, Note_off_c, 1, 76, 0
1, 64176, Note_off_c, 1, 61, 0
1, 64200, Note_on_c, 1, 78, 127
1, 64200, Note_on_c, 1, 63, 127
1, 64296, Note_off_c, 1, 78, 0
1, 64296, Note_off_c, 1, 63, 0
1, 64320, Note_on_c, 1, 80, 127
1, 64320, Note_on_c, 1, 64, 127
1, 64416, Note_off_c, 1, 80, 0
1, 64416, Note_off_c, 1, 64, 0
1, 64440, Note_on_c, 1, 81, 127
1, 64440, Note_on_c, 1, 66, 127
1, 64536, Note_off_c, 1, 81, 0
1, 64536, Note_off_c, 1, 66, 0
1, 64560, Note_on_c, 1, 81, 127
1, 64560, Note_on_c, 1, 66, 127
1, 64584, Note_off_c, 1, 81, 0
1, 64584, Note_off_c, 1, 66, 0
1, 64590, Note_on_c, 1, 83, 127
1, 64590, Note_on_c, 1, 67, 127
1, 64614, Note_off_c, 1, 83, 0
1, 64614, Note_off_c, 1, 67, 0
1, 64620, Note_on_c, 1, 81, 127
1, 64620, Note_on_c, 1, 66, 127
1, 64668, Note_off_c, 1, 81, 0
1, 64668, Note_off_c, 1, 66, 0
1, 64680, Note_on_c, 1, 80, 127
1, 64680, Note_on_c, 1, 64, 127
1, 64776, Note_off_c, 1, 80, 0
1, 64776, Note_off_c, 1, 64, 0
1, 64800, Note_on_c, 1, 81, 127
1, 64800, Note_on_c, 1, 66, 127
1, 64896, Note_off_c, 1, 81, 0
1, 64896, Note_off_c, 1, 66, 0
1, 64920, Note_on_c, 1, 83, 127
1, 64920, Note_on_c, 1, 67, 127
1, 65016, Note_off_c, 1, 83, 0
1, 65016, Note_off_c, 1, 67, 0
1, 65040, Note_on_c, 1, 73, 127
1, 65040, Note_on_c, 1, 57, 127
1, 65136, Note_off_c, 1, 73, 0
1, 65136, Note_off_c, 1, 57, 0
1, 65160, Note_on_c, 1, 75, 127
1, 65160, Note_on_c, 1, 59, 127
1, 65256, Note_off_c, 1, 75, 0
1, 65256, Note_off_c, 1, 59, 0
1, 65280, Note_on_c, 1, 76, 127
1, 65280, Note_on_c, 1, 61, 127
1, 65376, Note_off_c, 1, 76, 0
1, 65376, Note_off_c, 1, 61, 0
1, 65400, Note_on_c, 1, 78, 127
1, 65400, Note_on_c, 1, 63, 127
1, 65496, Note_off_c, 1, 78, 0
1, 65496, Note_off_c, 1, 63, 0
1, 65520, Note_on_c, 1, 80, 127
1, 65520, Note_on_c, 1, 64, 127
1, 65616, Note_off_c, 1, 80, 0
1, 65616, Note_off_c, 1, 64, 0
1, 65640, Note_on_c, 1, 81, 127
1, 65640, Note_on_c, 1, 66, 127
1, 65736, Note_off_c, 1, 81, 0
1, 65736, Note_off_c, 1, 66, 0
1, 65760, Note_on_c, 1, 71, 127
1, 65760, Note_on_c, 1, 55, 127
1, 65856, Note_off_c, 1, 71, 0
1, 65856, Note_off_c, 1, 55, 0
1, 65880, Note_on_c, 1, 73, 127
1, 65880, Note_on_c, 1, 57, 127
1, 65976, Note_off_c, 1, 73, 0
1, 65976, Note_off_c, 1, 57, 0
1, 66000, Note_on_c, 1, 75, 127
1, 66000, Note_on_c, 1, 59, 127
1, 66096, Note_off_c, 1, 75, 0
1, 66096, Note_off_c, 1, 59, 0
1, 66120, Note_on_c, 1, 76, 127
1, 66120, Note_on_c, 1, 61, 127
1, 66216, Note_off_c, 1, 76, 0
1, 66216, Note_off_c, 1, 61, 0
1, 66240, Note_on_c, 1, 78, 127
1, 66240, Note_on_c, 1, 63, 127
1, 66336, Note_off_c, 1, 78, 0
1, 66336, Note_off_c, 1, 63, 0
1, 66360, Note_on_c, 1, 79, 127
1, 66360, Note_on_c, 1, 64, 127
1, 66456, Note_off_c, 1, 79, 0
1, 66480, Note_on_c, 1, 81, 127
1, 66552, Note_off_c, 1, 64, 0
1, 66576, Note_off_c, 1, 81, 0
1, 66600, Note_on_c, 1, 83, 127
1, 66600, Note_on_c, 1, 57, 127
1, 66696, Note_off_c, 1, 83, 0
1, 66696, Note_off_c, 1, 57, 0
1, 66720, Note_on_c, 1, 71, 127
1, 66720, Note_on_c, 1, 59, 127
1, 66816, Note_off_c, 1, 71, 0
1, 66840, Note_on_c, 1, 76, 127
1, 66912, Note_off_c, 1, 59, 0
1, 66936, Note_off_c, 1, 76, 0
1, 66960, Note_on_c, 1, 75, 127
1, 66960, Note_on_c, 1, 47, 127
1, 67056, Note_off_c, 1, 75, 0
1, 67056, Note_off_c, 1, 47, 0
1, 67080, Note_on_c, 1, 76, 127
1, 67080, Note_on_c, 1, 52, 127
1, 67176, Note_off_c, 1, 52, 0
1, 67200, Note_on_c, 1, 54, 127
1, 67296, Note_off_c, 1, 54, 0
1, 67320, Note_on_c, 1, 55, 127
1, 67368, Note_off_c, 1, 76, 0
1, 67416, Note_off_c, 1, 55, 0
1, 67440, Note_on_c, 1, 55, 127
1, 67536, Note_off_c, 1, 55, 0
1, 67560, Note_on_c, 1, 57, 127
1, 67656, Note_off_c, 1, 57, 0
1, 67680, Note_on_c, 1, 76, 127
1, 67680, Note_on_c, 1, 58, 127
1, 67776, Note_off_c, 1, 76, 0
1, 67776, Note_off_c, 1, 58, 0
1, 67800, Note_on_c, 1, 76, 127
1, 67800, Note_on_c, 1, 49, 127
1, 67896, Note_off_c, 1, 76, 0
1, 67920, Note_on_c, 1, 73, 127
1, 68016, Note_off_c, 1, 73, 0
1, 68040, Note_on_c, 1, 69, 127
1, 68088, Note_off_c, 1, 49, 0
1, 68136, Note_off_c, 1, 69, 0
1, 68160, Note_on_c, 1, 67, 127
1, 68256, Note_off_c, 1, 67, 0
1, 68280, Note_on_c, 1, 65, 127
1, 68376, Note_off_c, 1, 65, 0
1, 68400, Note_on_c, 1, 64, 127
1, 68400, Note_on_c, 1, 45, 127
1, 68496, Note_off_c, 1, 64, 0
1, 68496, Note_off_c, 1, 45, 0
1, 68520, Note_on_c, 1, 65, 127
1, 68520, Note_on_c, 1, 50, 127
1, 68616, Note_off_c, 1, 65, 0
1, 68616, Note_off_c, 1, 50, 0
1, 68640, Note_on_c, 1, 62, 127
1, 68640, Note_on_c, 1, 53, 127
1, 68736, Note_off_c, 1, 62, 0
1, 68736, Note_off_c, 1, 53, 0
1, 68760, Note_on_c, 1, 65, 127
1, 68760, Note_on_c, 1, 57, 127
1, 68856, Note_off_c, 1, 65, 0
1, 68856, Note_off_c, 1, 57, 0
1, 68880, Note_on_c, 1, 69, 127
1, 68880, Note_on_c, 1, 62, 127
1, 68976, Note_off_c, 1, 69, 0
1, 69000, Note_on_c, 1, 65, 127
1, 69072, Note_off_c, 1, 62, 0
1, 69096, Note_off_c, 1, 65, 0
1, 69120, Note_on_c, 1, 69, 127
1, 69120, Note_on_c, 1, 48, 127
1, 69216, Note_off_c, 1, 69, 0
1, 69216, Note_off_c, 1, 48, 0
1, 69240, Note_on_c, 1, 74, 127
1, 69240, Note_on_c, 1, 47, 127
1, 69336, Note_off_c, 1, 74, 0
1, 69360, Note_on_c, 1, 71, 127
1, 69456, Note_off_c, 1, 71, 0
1, 69480, Note_on_c, 1, 67, 127
1, 69528, Note_off_c, 1, 47, 0
1, 69576, Note_off_c, 1, 67, 0
1, 69600, Note_on_c, 1, 65, 127
1, 69696, Note_off_c, 1, 65, 0
1, 69720, Note_on_c, 1, 64, 127
1, 69816, Note_off_c, 1, 64, 0
1, 69840, Note_on_c, 1, 62, 127
1, 69840, Note_on_c, 1, 43, 127
1, 69936, Note_off_c, 1, 62, 0
1, 69936, Note_off_c, 1, 43, 0
1, 69960, Note_on_c, 1, 64, 127
1, 69960, Note_on_c, 1, 48, 127
1, 70056, Note_off_c, 1, 64, 0
1, 70056, Note_off_c, 1, 48, 0
1, 70080, Note_on_c, 1, 60, 127
1, 70080, Note_on_c, 1, 52, 127
1, 70176, Note_off_c, 1, 60, 0
1, 70176, Note_off_c, 1, 52, 0
1, 70200, Note_on_c, 1, 64, 127
1, 70200, Note_on_c, 1, 55, 127
1, 70296, Note_off_c, 1, 64, 0
1, 70296, Note_off_c, 1, 55, 0
1, 70320, Note_on_c, 1, 67, 127
1, 70320, Note_on_c, 1, 60, 127
1, 70416, Note_off_c, 1, 67, 0
1, 70440, Note_on_c, 1, 64, 127
1, 70512, Note_off_c, 1, 60, 0
1, 70536, Note_off_c, 1, 64, 0
1, 70560, Note_on_c, 1, 67, 127
1, 70560, Note_on_c, 1, 47, 127
1, 70656, Note_off_c, 1, 67, 0
1, 70656, Note_off_c, 1, 47, 0
1, 70680, Note_on_c, 1, 72, 127
1, 70680, Note_on_c, 1, 45, 127
1, 70776, Note_off_c, 1, 72, 0
1, 70800, Note_on_c, 1, 69, 127
1, 70896, Note_off_c, 1, 69, 0
1, 70920, Note_on_c, 1, 65, 127
1, 70968, Note_off_c, 1, 45, 0
1, 71016, Note_off_c, 1, 65, 0
1, 71040, Note_on_c, 1, 64, 127
1, 71040, Note_on_c, 1, 57, 127
1, 71136, Note_off_c, 1, 64, 0
1, 71160, Note_on_c, 1, 62, 127
1, 71256, Note_off_c, 1, 62, 0
1, 71280, Note_on_c, 1, 60, 127
1, 71376, Note_off_c, 1, 60, 0
1, 71400, Note_on_c, 1, 71, 127
1, 71496, Note_off_c, 1, 71, 0
1, 71520, Note_on_c, 1, 68, 127
1, 71616, Note_off_c, 1, 68, 0
1, 71688, Note_off_c, 1, 57, 0
1, 71760, Note_on_c, 1, 62, 127
1, 71760, Note_on_c, 1, 56, 127
1, 71856, Note_off_c, 1, 62, 0
1, 71880, Note_on_c, 1, 60, 127
1, 71976, Note_off_c, 1, 60, 0
1, 72000, Note_on_c, 1, 59, 127
1, 72048, Note_off_c, 1, 56, 0
1, 72096, Note_off_c, 1, 59, 0
1, 72120, Note_on_c, 1, 60, 127
1, 72120, Note_on_c, 1, 57, 127
1, 72216, Note_off_c, 1, 60, 0
1, 72240, Note_on_c, 1, 64, 127
1, 72336, Note_off_c, 1, 64, 0
1, 72360, Note_on_c, 1, 69, 127
1, 72408, Note_off_c, 1, 57, 0
1, 72456, Note_off_c, 1, 69, 0
1, 72480, Note_on_c, 1, 62, 127
1, 72480, Note_on_c, 1, 53, 127
1, 72576, Note_off_c, 1, 62, 0
1, 72600, Note_on_c, 1, 71, 127
1, 72696, Note_off_c, 1, 71, 0
1, 72720, Note_on_c, 1, 69, 127
1, 72768, Note_off_c, 1, 53, 0
1, 72816, Note_off_c, 1, 69, 0
1, 72840, Note_on_c, 1, 68, 127
1, 72840, Note_on_c, 1, 52, 127
1, 72936, Note_off_c, 1, 68, 0
1, 72960, Note_on_c, 1, 69, 127
1, 73056, Note_off_c, 1, 69, 0
1, 73080, Note_on_c, 1, 71, 127
1, 73128, Note_off_c, 1, 52, 0
1, 73176, Note_off_c, 1, 71, 0
1, 73200, Note_on_c, 1, 64, 127
1, 73200, Note_on_c, 1, 40, 127
1, 73296, Note_off_c, 1, 40, 0
1, 73320, Note_on_c, 1, 42, 127
1, 73392, Note_off_c, 1, 64, 0
1, 73416, Note_off_c, 1, 42, 0
1, 73440, Note_on_c, 1, 71, 127
1, 73440, Note_on_c, 1, 44, 127
1, 73536, Note_off_c, 1, 71, 0
1, 73536, Note_off_c, 1, 44, 0
1, 73560, Note_on_c, 1, 72, 127
1, 73560, Note_on_c, 1, 45, 127
1, 73656, Note_off_c, 1, 72, 0
1, 73656, Note_off_c, 1, 45, 0
1, 73680, Note_on_c, 1, 74, 127
1, 73680, Note_on_c, 1, 47, 127
1, 73776, Note_off_c, 1, 74, 0
1, 73776, Note_off_c, 1, 47, 0
1, 73800, Note_on_c, 1, 76, 127
1, 73800, Note_on_c, 1, 48, 127
1, 73896, Note_off_c, 1, 76, 0
1, 73896, Note_off_c, 1, 48, 0
1, 73920, Note_on_c, 1, 64, 127
1, 73920, Note_on_c, 1, 44, 127
1, 74016, Note_off_c, 1, 64, 0
1, 74016, Note_off_c, 1, 44, 0
1, 74040, Note_on_c, 1, 66, 127
1, 74040, Note_on_c, 1, 45, 127
1, 74136, Note_off_c, 1, 66, 0
1, 74136, Note_off_c, 1, 45, 0
1, 74160, Note_on_c, 1, 68, 127
1, 74160, Note_on_c, 1, 47, 127
1, 74256, Note_off_c, 1, 68, 0
1, 74256, Note_off_c, 1, 47, 0
1, 74280, Note_on_c, 1, 69, 127
1, 74280, Note_on_c, 1, 48, 127
1, 74376, Note_off_c, 1, 69, 0
1, 74376, Note_off_c, 1, 48, 0
1, 74400, Note_on_c, 1, 71, 127
1, 74400, Note_on_c, 1, 50, 127
1, 74496, Note_off_c, 1, 71, 0
1, 74496, Note_off_c, 1, 50, 0
1, 74520, Note_on_c, 1, 72, 127
1, 74520, Note_on_c, 1, 52, 127
1, 74616, Note_off_c, 1, 72, 0
1, 74616, Note_off_c, 1, 52, 0
1, 74640, Note_on_c, 1, 68, 127
1, 74640, Note_on_c, 1, 52, 127
1, 74736, Note_off_c, 1, 68, 0
1, 74736, Note_off_c, 1, 52, 0
1, 74760, Note_on_c, 1, 69, 127
1, 74760, Note_on_c, 1, 54, 127
1, 74856, Note_off_c, 1, 69, 0
1, 74856, Note_off_c, 1, 54, 0
1, 74880, Note_on_c, 1, 71, 127
1, 74880, Note_on_c, 1, 56, 127
1, 74976, Note_off_c, 1, 71, 0
1, 74976, Note_off_c, 1, 56, 0
1, 75000, Note_on_c, 1, 72, 127
1, 75000, Note_on_c, 1, 57, 127
1, 75096, Note_off_c, 1, 72, 0
1, 75096, Note_off_c, 1, 57, 0
1, 75120, Note_on_c, 1, 74, 127
1, 75120, Note_on_c, 1, 59, 127
1, 75216, Note_off_c, 1, 74, 0
1, 75216, Note_off_c, 1, 59, 0
1, 75240, Note_on_c, 1, 76, 127
1, 75240, Note_on_c, 1, 60, 127
1, 75336, Note_off_c, 1, 76, 0
1, 75336, Note_off_c, 1, 60, 0
1, 75360, Note_on_c, 1, 64, 127
1, 75360, Note_on_c, 1, 56, 127
1, 75456, Note_off_c, 1, 64, 0
1, 75456, Note_off_c, 1, 56, 0
1, 75480, Note_on_c, 1, 66, 127
1, 75480, Note_on_c, 1, 57, 127
1, 75576, Note_off_c, 1, 66, 0
1, 75576, Note_off_c, 1, 57, 0
1, 75600, Note_on_c, 1, 68, 127
1, 75600, Note_on_c, 1, 59, 127
1, 75696, Note_off_c, 1, 68, 0
1, 75696, Note_off_c, 1, 59, 0
1, 75720, Note_on_c, 1, 69, 127
1, 75720, Note_on_c, 1, 60, 127
1, 75816, Note_off_c, 1, 69, 0
1, 75816, Note_off_c, 1, 60, 0
1, 75840, Note_on_c, 1, 71, 127
1, 75840, Note_on_c, 1, 62, 127
1, 75936, Note_off_c, 1, 71, 0
1, 75936, Note_off_c, 1, 62, 0
1, 75960, Note_on_c, 1, 72, 127
1, 75960, Note_on_c, 1, 64, 127
1, 76056, Note_off_c, 1, 72, 0
1, 76056, Note_off_c, 1, 64, 0
1, 76080, Note_on_c, 1, 68, 127
1, 76080, Note_on_c, 1, 64, 127
1, 76176, Note_off_c, 1, 68, 0
1, 76176, Note_off_c, 1, 64, 0
1, 76200, Note_on_c, 1, 69, 127
1, 76200, Note_on_c, 1, 66, 127
1, 76296, Note_off_c, 1, 69, 0
1, 76296, Note_off_c, 1, 66, 0
1, 76320, Note_on_c, 1, 71, 127
1, 76320, Note_on_c, 1, 68, 127
1, 76416, Note_off_c, 1, 71, 0
1, 76416, Note_off_c, 1, 68, 0
1, 76440, Note_on_c, 1, 72, 127
1, 76440, Note_on_c, 1, 69, 127
1, 76536, Note_off_c, 1, 72, 0
1, 76560, Note_on_c, 1, 74, 127
1, 76632, Note_off_c, 1, 69, 0
1, 76656, Note_off_c, 1, 74, 0
1, 76680, Note_on_c, 1, 76, 127
1, 76680, Note_on_c, 1, 62, 127
1, 76776, Note_off_c, 1, 76, 0
1, 76776, Note_off_c, 1, 62, 0
1, 76800, Note_on_c, 1, 72, 127
1, 76800, Note_on_c, 1, 64, 127
1, 76824, Note_off_c, 1, 72, 0
1, 76830, Note_on_c, 1, 74, 127
1, 76854, Note_off_c, 1, 74, 0
1, 76920, Note_on_c, 1, 71, 127
1, 76992, Note_off_c, 1, 64, 0
1, 77016, Note_off_c, 1, 71, 0
1, 77040, Note_on_c, 1, 69, 127
1, 77040, Note_on_c, 1, 52, 127
1, 77136, Note_off_c, 1, 69, 0
1, 77136, Note_off_c, 1, 52, 0
1, 77160, Note_on_c, 1, 69, 127
1, 77160, Note_on_c, 1, 57, 127
1, 77256, Note_off_c, 1, 69, 0
1, 77280, Note_on_c, 1, 64, 127
1, 77376, Note_off_c, 1, 64, 0
1, 77400, Note_on_c, 1, 60, 127
1, 77448, Note_off_c, 1, 57, 0
1, 77496, Note_off_c, 1, 60, 0
1, 77520, Note_on_c, 1, 57, 127
1, 77640, Note_on_c, 1, 55, 127
1, 77712, Note_off_c, 1, 57, 0
1, 77736, Note_off_c, 1, 55, 0
1, 77760, Note_on_c, 1, 67, 127
1, 77760, Note_on_c, 1, 53, 127
1, 77856, Note_off_c, 1, 67, 0
1, 77856, Note_off_c, 1, 53, 0
1, 77880, Note_on_c, 1, 72, 127
1, 77880, Note_on_c, 1, 52, 127
1, 77976, Note_off_c, 1, 52, 0
1, 78000, Note_on_c, 1, 53, 127
1, 78072, Note_off_c, 1, 72, 0
1, 78096, Note_off_c, 1, 53, 0
1, 78120, Note_on_c, 1, 72, 127
1, 78120, Note_on_c, 1, 55, 127
1, 78216, Note_off_c, 1, 72, 0
1, 78216, Note_off_c, 1, 55, 0
1, 78240, Note_on_c, 1, 72, 127
1, 78240, Note_on_c, 1, 48, 127
1, 78336, Note_off_c, 1, 72, 0
1, 78360, Note_on_c, 1, 74, 127
1, 78456, Note_off_c, 1, 74, 0
1, 78480, Note_on_c, 1, 76, 127
1, 78528, Note_off_c, 1, 48, 0
1, 78576, Note_off_c, 1, 76, 0
1, 78600, Note_on_c, 1, 74, 127
1, 78696, Note_off_c, 1, 74, 0
1, 78720, Note_on_c, 1, 65, 127
1, 78816, Note_off_c, 1, 65, 0
1, 78840, Note_on_c, 1, 74, 127
1, 78936, Note_off_c, 1, 74, 0
1, 78960, Note_on_c, 1, 67, 127
1, 78960, Note_on_c, 1, 47, 127
1, 79056, Note_off_c, 1, 67, 0
1, 79080, Note_on_c, 1, 69, 127
1, 79176, Note_off_c, 1, 69, 0
1, 79200, Note_on_c, 1, 65, 127
1, 79248, Note_off_c, 1, 47, 0
1, 79296, Note_off_c, 1, 65, 0
1, 79320, Note_on_c, 1, 64, 127
1, 79320, Note_on_c, 1, 48, 127
1, 79416, Note_off_c, 1, 64, 0
1, 79440, Note_on_c, 1, 72, 127
1, 79536, Note_off_c, 1, 72, 0
1, 79608, Note_off_c, 1, 48, 0
1, 79680, Note_on_c, 1, 62, 127
1, 79680, Note_on_c, 1, 41, 127
1, 79776, Note_off_c, 1, 62, 0
1, 79800, Note_on_c, 1, 64, 127
1, 79896, Note_off_c, 1, 64, 0
1, 79920, Note_on_c, 1, 60, 127
1, 79968, Note_off_c, 1, 41, 0
1, 80016, Note_off_c, 1, 60, 0
1, 80040, Note_on_c, 1, 59, 127
1, 80040, Note_on_c, 1, 43, 127
1, 80136, Note_off_c, 1, 59, 0
1, 80160, Note_on_c, 1, 60, 127
1, 80256, Note_off_c, 1, 60, 0
1, 80280, Note_on_c, 1, 62, 127
1, 80376, Note_off_c, 1, 62, 0
1, 80400, Note_on_c, 1, 55, 127
1, 80496, Note_off_c, 1, 43, 0
1, 80520, Note_on_c, 1, 45, 127
1, 80592, Note_off_c, 1, 55, 0
1, 80616, Note_off_c, 1, 45, 0
1, 80640, Note_on_c, 1, 62, 127
1, 80640, Note_on_c, 1, 47, 127
1, 80736, Note_off_c, 1, 62, 0
1, 80736, Note_off_c, 1, 47, 0
1, 80760, Note_on_c, 1, 64, 127
1, 80760, Note_on_c, 1, 48, 127
1, 80856, Note_off_c, 1, 64, 0
1, 80856, Note_off_c, 1, 48, 0
1, 80880, Note_on_c, 1, 66, 127
1, 80880, Note_on_c, 1, 50, 127
1, 80976, Note_off_c, 1, 66, 0
1, 80976, Note_off_c, 1, 50, 0
1, 81000, Note_on_c, 1, 67, 127
1, 81000, Note_on_c, 1, 52, 127
1, 81096, Note_off_c, 1, 67, 0
1, 81096, Note_off_c, 1, 52, 0
1, 81120, Note_on_c, 1, 69, 127
1, 81120, Note_on_c, 1, 54, 127
1, 81216, Note_off_c, 1, 69, 0
1, 81216, Note_off_c, 1, 54, 0
1, 81240, Note_on_c, 1, 71, 127
1, 81240, Note_on_c, 1, 55, 127
1, 81336, Note_off_c, 1, 71, 0
1, 81336, Note_off_c, 1, 55, 0
1, 81360, Note_on_c, 1, 72, 127
1, 81360, Note_on_c, 1, 57, 127
1, 81456, Note_off_c, 1, 72, 0
1, 81456, Note_off_c, 1, 57, 0
1, 81480, Note_on_c, 1, 63, 127
1, 81480, Note_on_c, 1, 47, 127
1, 81576, Note_off_c, 1, 47, 0
1, 81600, Note_on_c, 1, 59, 127
1, 81672, Note_off_c, 1, 63, 0
1, 81696, Note_off_c, 1, 59, 0
1, 81720, Note_on_c, 1, 72, 127
1, 81720, Note_on_c, 1, 57, 127
1, 81816, Note_off_c, 1, 72, 0
1, 81816, Note_off_c, 1, 57, 0
1, 81840, Note_on_c, 1, 71, 127
1, 81840, Note_on_c, 1, 56, 127
1, 81936, Note_off_c, 1, 56, 0
1, 81960, Note_on_c, 1, 57, 127
1, 82056, Note_off_c, 1, 57, 0
1, 82080, Note_on_c, 1, 54, 127
1, 82128, Note_off_c, 1, 71, 0
1, 82176, Note_off_c, 1, 54, 0
1, 82200, Note_on_c, 1, 62, 127
1, 82200, Note_on_c, 1, 56, 127
1, 82296, Note_off_c, 1, 62, 0
1, 82296, Note_off_c, 1, 56, 0
1, 82320, Note_on_c, 1, 64, 127
1, 82320, Note_on_c, 1, 54, 127
1, 82416, Note_off_c, 1, 64, 0
1, 82416, Note_off_c, 1, 54, 0
1, 82440, Note_on_c, 1, 66, 127
1, 82440, Note_on_c, 1, 52, 127
1, 82536, Note_off_c, 1, 66, 0
1, 82536, Note_off_c, 1, 52, 0
1, 82560, Note_on_c, 1, 68, 127
1, 82560, Note_on_c, 1, 50, 127
1, 82656, Note_off_c, 1, 68, 0
1, 82656, Note_off_c, 1, 50, 0
1, 82680, Note_on_c, 1, 69, 127
1, 82680, Note_on_c, 1, 48, 127
1, 82776, Note_off_c, 1, 69, 0
1, 82776, Note_off_c, 1, 48, 0
1, 82800, Note_on_c, 1, 71, 127
1, 82800, Note_on_c, 1, 47, 127
1, 82896, Note_off_c, 1, 71, 0
1, 82896, Note_off_c, 1, 47, 0
1, 82920, Note_on_c, 1, 61, 127
1, 82920, Note_on_c, 1, 45, 127
1, 83016, Note_off_c, 1, 45, 0
1, 83040, Note_on_c, 1, 57, 127
1, 83112, Note_off_c, 1, 61, 0
1, 83136, Note_off_c, 1, 57, 0
1, 83160, Note_on_c, 1, 71, 127
1, 83160, Note_on_c, 1, 55, 127
1, 83256, Note_off_c, 1, 71, 0
1, 83256, Note_off_c, 1, 55, 0
1, 83280, Note_on_c, 1, 69, 127
1, 83280, Note_on_c, 1, 54, 127
1, 83376, Note_off_c, 1, 54, 0
1, 83400, Note_on_c, 1, 55, 127
1, 83496, Note_off_c, 1, 55, 0
1, 83520, Note_on_c, 1, 52, 127
1, 83568, Note_off_c, 1, 69, 0
1, 83616, Note_off_c, 1, 52, 0
1, 83640, Note_on_c, 1, 60, 127
1, 83640, Note_on_c, 1, 54, 127
1, 83736, Note_off_c, 1, 60, 0
1, 83736, Note_off_c, 1, 54, 0
1, 83760, Note_on_c, 1, 62, 127
1, 83760, Note_on_c, 1, 52, 127
1, 83856, Note_off_c, 1, 62, 0
1, 83856, Note_off_c, 1, 52, 0
1, 83880, Note_on_c, 1, 64, 127
1, 83880, Note_on_c, 1, 50, 127
1, 83976, Note_off_c, 1, 64, 0
1, 83976, Note_off_c, 1, 50, 0
1, 84000, Note_on_c, 1, 66, 127
1, 84000, Note_on_c, 1, 48, 127
1, 84096, Note_off_c, 1, 66, 0
1, 84096, Note_off_c, 1, 48, 0
1, 84120, Note_on_c, 1, 67, 127
1, 84120, Note_on_c, 1, 47, 127
1, 84216, Note_off_c, 1, 67, 0
1, 84216, Note_off_c, 1, 47, 0
1, 84240, Note_on_c, 1, 69, 127
1, 84240, Note_on_c, 1, 45, 127
1, 84336, Note_off_c, 1, 69, 0
1, 84336, Note_off_c, 1, 45, 0
1, 84360, Note_on_c, 1, 59, 127
1, 84360, Note_on_c, 1, 43, 127
1, 84456, Note_off_c, 1, 43, 0
1, 84480, Note_on_c, 1, 55, 127
1, 84552, Note_off_c, 1, 59, 0
1, 84576, Note_off_c, 1, 55, 0
1, 84600, Note_on_c, 1, 69, 127
1, 84600, Note_on_c, 1, 54, 127
1, 84696, Note_off_c, 1, 69, 0
1, 84696, Note_off_c, 1, 54, 0
1, 84720, Note_on_c, 1, 67, 127
1, 84720, Note_on_c, 1, 52, 127
1, 84816, Note_off_c, 1, 52, 0
1, 84840, Note_on_c, 1, 51, 127
1, 84936, Note_off_c, 1, 51, 0
1, 85008, Note_off_c, 1, 67, 0
1, 85080, Note_on_c, 1, 57, 127
1, 85080, Note_on_c, 1, 42, 127
1, 85176, Note_off_c, 1, 42, 0
1, 85200, Note_on_c, 1, 54, 127
1, 85272, Note_off_c, 1, 57, 0
1, 85296, Note_off_c, 1, 54, 0
1, 85320, Note_on_c, 1, 67, 127
1, 85320, Note_on_c, 1, 52, 127
1, 85416, Note_off_c, 1, 67, 0
1, 85416, Note_off_c, 1, 52, 0
1, 85440, Note_on_c, 1, 66, 127
1, 85440, Note_on_c, 1, 51, 127
1, 85536, Note_off_c, 1, 51, 0
1, 85560, Note_on_c, 1, 49, 127
1, 85656, Note_off_c, 1, 49, 0
1, 85728, Note_off_c, 1, 66, 0
1, 85800, Note_on_c, 1, 55, 127
1, 85800, Note_on_c, 1, 40, 127
1, 85896, Note_off_c, 1, 40, 0
1, 85920, Note_on_c, 1, 52, 127
1, 85992, Note_off_c, 1, 55, 0
1, 86016, Note_off_c, 1, 52, 0
1, 86040, Note_on_c, 1, 66, 127
1, 86040, Note_on_c, 1, 50, 127
1, 86136, Note_off_c, 1, 66, 0
1, 86136, Note_off_c, 1, 50, 0
1, 86160, Note_on_c, 1, 64, 127
1, 86160, Note_on_c, 1, 48, 127
1, 86256, Note_off_c, 1, 64, 0
1, 86256, Note_off_c, 1, 48, 0
1, 86280, Note_on_c, 1, 63, 127
1, 86280, Note_on_c, 1, 47, 127
1, 86376, Note_off_c, 1, 63, 0
1, 86376, Note_off_c, 1, 47, 0
1, 86400, Note_on_c, 1, 64, 127
1, 86400, Note_on_c, 1, 45, 127
1, 86496, Note_off_c, 1, 64, 0
1, 86496, Note_off_c, 1, 45, 0
1, 86520, Note_on_c, 1, 63, 127
1, 86520, Note_on_c, 1, 47, 127
1, 86616, Note_off_c, 1, 63, 0
1, 86640, Note_on_c, 1, 64, 127
1, 86736, Note_off_c, 1, 64, 0
1, 86760, Note_on_c, 1, 66, 127
1, 86856, Note_off_c, 1, 66, 0
1, 86880, Note_on_c, 1, 59, 127
1, 86976, Note_off_c, 1, 47, 0
1, 86976, Note_off_c, 1, 59, 0
1, 87000, Note_on_c, 1, 71, 127
1, 87000, Note_on_c, 1, 49, 127
1, 87096, Note_off_c, 1, 71, 0
1, 87096, Note_off_c, 1, 49, 0
1, 87120, Note_on_c, 1, 69, 127
1, 87120, Note_on_c, 1, 51, 127
1, 87216, Note_off_c, 1, 69, 0
1, 87216, Note_off_c, 1, 51, 0
1, 87240, Note_on_c, 1, 67, 127
1, 87240, Note_on_c, 1, 52, 127
1, 87336, Note_off_c, 1, 67, 0
1, 87336, Note_off_c, 1, 52, 0
1, 87360, Note_on_c, 1, 69, 127
1, 87360, Note_on_c, 1, 54, 127
1, 87456, Note_off_c, 1, 69, 0
1, 87456, Note_off_c, 1, 54, 0
1, 87480, Note_on_c, 1, 71, 127
1, 87480, Note_on_c, 1, 55, 127
1, 87576, Note_off_c, 1, 71, 0
1, 87576, Note_off_c, 1, 55, 0
1, 87600, Note_on_c, 1, 64, 127
1, 87600, Note_on_c, 1, 48, 127
1, 87696, Note_off_c, 1, 64, 0
1, 87696, Note_off_c, 1, 48, 0
1, 87720, Note_on_c, 1, 72, 127
1, 87720, Note_on_c, 1, 50, 127
1, 87816, Note_off_c, 1, 72, 0
1, 87816, Note_off_c, 1, 50, 0
1, 87840, Note_on_c, 1, 71, 127
1, 87840, Note_on_c, 1, 52, 127
1, 87936, Note_off_c, 1, 71, 0
1, 87936, Note_off_c, 1, 52, 0
1, 87960, Note_on_c, 1, 69, 127
1, 87960, Note_on_c, 1, 54, 127
1, 88056, Note_off_c, 1, 69, 0
1, 88056, Note_off_c, 1, 54, 0
1, 88080, Note_on_c, 1, 71, 127
1, 88080, Note_on_c, 1, 55, 127
1, 88176, Note_off_c, 1, 71, 0
1, 88176, Note_off_c, 1, 55, 0
1, 88200, Note_on_c, 1, 72, 127
1, 88200, Note_on_c, 1, 57, 127
1, 88296, Note_off_c, 1, 72, 0
1, 88296, Note_off_c, 1, 57, 0
1, 88320, Note_on_c, 1, 66, 127
1, 88320, Note_on_c, 1, 50, 127
1, 88416, Note_off_c, 1, 66, 0
1, 88416, Note_off_c, 1, 50, 0
1, 88440, Note_on_c, 1, 74, 127
1, 88440, Note_on_c, 1, 52, 127
1, 88536, Note_off_c, 1, 74, 0
1, 88536, Note_off_c, 1, 52, 0
1, 88560, Note_on_c, 1, 72, 127
1, 88560, Note_on_c, 1, 54, 127
1, 88656, Note_off_c, 1, 72, 0
1, 88656, Note_off_c, 1, 54, 0
1, 88680, Note_on_c, 1, 71, 127
1, 88680, Note_on_c, 1, 55, 127
1, 88776, Note_off_c, 1, 71, 0
1, 88776, Note_off_c, 1, 55, 0
1, 88800, Note_on_c, 1, 72, 127
1, 88800, Note_on_c, 1, 57, 127
1, 88896, Note_off_c, 1, 72, 0
1, 88896, Note_off_c, 1, 57, 0
1, 88920, Note_on_c, 1, 74, 127
1, 88920, Note_on_c, 1, 59, 127
1, 89016, Note_off_c, 1, 74, 0
1, 89016, Note_off_c, 1, 59, 0
1, 89040, Note_on_c, 1, 67, 127
1, 89040, Note_on_c, 1, 52, 127
1, 89136, Note_off_c, 1, 67, 0
1, 89136, Note_off_c, 1, 52, 0
1, 89160, Note_on_c, 1, 76, 127
1, 89160, Note_on_c, 1, 54, 127
1, 89256, Note_off_c, 1, 76, 0
1, 89256, Note_off_c, 1, 54, 0
1, 89280, Note_on_c, 1, 74, 127
1, 89280, Note_on_c, 1, 55, 127
1, 89376, Note_off_c, 1, 74, 0
1, 89376, Note_off_c, 1, 55, 0
1, 89400, Note_on_c, 1, 73, 127
1, 89400, Note_on_c, 1, 57, 127
1, 89496, Note_off_c, 1, 73, 0
1, 89496, Note_off_c, 1, 57, 0
1, 89520, Note_on_c, 1, 75, 127
1, 89520, Note_on_c, 1, 59, 127
1, 89616, Note_off_c, 1, 75, 0
1, 89616, Note_off_c, 1, 59, 0
1, 89640, Note_on_c, 1, 76, 127
1, 89640, Note_on_c, 1, 60, 127
1, 89736, Note_off_c, 1, 76, 0
1, 89736, Note_off_c, 1, 60, 0
1, 89760, Note_on_c, 1, 69, 127
1, 89760, Note_on_c, 1, 54, 127
1, 89856, Note_off_c, 1, 69, 0
1, 89856, Note_off_c, 1, 54, 0
1, 89880, Note_on_c, 1, 78, 127
1, 89880, Note_on_c, 1, 55, 127
1, 89976, Note_off_c, 1, 78, 0
1, 89976, Note_off_c, 1, 55, 0
1, 90000, Note_on_c, 1, 76, 127
1, 90000, Note_on_c, 1, 57, 127
1, 90096, Note_off_c, 1, 76, 0
1, 90096, Note_off_c, 1, 57, 0
1, 90120, Note_on_c, 1, 75, 127
1, 90120, Note_on_c, 1, 59, 127
1, 90216, Note_off_c, 1, 75, 0
1, 90216, Note_off_c, 1, 59, 0
1, 90240, Note_on_c, 1, 76, 127
1, 90240, Note_on_c, 1, 61, 127
1, 90336, Note_off_c, 1, 76, 0
1, 90336, Note_off_c, 1, 61, 0
1, 90360, Note_on_c, 1, 78, 127
1, 90360, Note_on_c, 1, 63, 127
1, 90456, Note_off_c, 1, 78, 0
1, 90456, Note_off_c, 1, 63, 0
1, 90480, Note_on_c, 1, 78, 127
1, 90480, Note_on_c, 1, 63, 127
1, 90504, Note_off_c, 1, 78, 0
1, 90504, Note_off_c, 1, 63, 0
1, 90510, Note_on_c, 1, 79, 127
1, 90510, Note_on_c, 1, 64, 127
1, 90534, Note_off_c, 1, 79, 0
1, 90534, Note_off_c, 1, 64, 0
1, 90540, Note_on_c, 1, 78, 127
1, 90540, Note_on_c, 1, 63, 127
1, 90588, Note_off_c, 1, 63, 0
1, 90597, Note_off_c, 1, 78, 0
1, 90600, Note_on_c, 1, 76, 127
1, 90600, Note_on_c, 1, 61, 127
1, 90696, Note_off_c, 1, 76, 0
1, 90696, Note_off_c, 1, 61, 0
1, 90720, Note_on_c, 1, 78, 127
1, 90720, Note_on_c, 1, 63, 127
1, 90816, Note_off_c, 1, 78, 0
1, 90816, Note_off_c, 1, 63, 0
1, 90840, Note_on_c, 1, 79, 127
1, 90840, Note_on_c, 1, 64, 127
1, 90936, Note_off_c, 1, 79, 0
1, 90936, Note_off_c, 1, 64, 0
1, 90960, Note_on_c, 1, 67, 127
1, 90960, Note_on_c, 1, 52, 127
1, 91056, Note_off_c, 1, 67, 0
1, 91056, Note_off_c, 1, 52, 0
1, 91080, Note_on_c, 1, 69, 127
1, 91080, Note_on_c, 1, 54, 127
1, 91176, Note_off_c, 1, 69, 0
1, 91176, Note_off_c, 1, 54, 0
1, 91200, Note_on_c, 1, 71, 127
1, 91200, Note_on_c, 1, 56, 127
1, 91296, Note_off_c, 1, 71, 0
1, 91296, Note_off_c, 1, 56, 0
1, 91320, Note_on_c, 1, 73, 127
1, 91320, Note_on_c, 1, 57, 127
1, 91416, Note_off_c, 1, 73, 0
1, 91416, Note_off_c, 1, 57, 0
1, 91440, Note_on_c, 1, 75, 127
1, 91440, Note_on_c, 1, 59, 127
1, 91536, Note_off_c, 1, 75, 0
1, 91536, Note_off_c, 1, 59, 0
1, 91560, Note_on_c, 1, 76, 127
1, 91560, Note_on_c, 1, 61, 127
1, 91656, Note_off_c, 1, 76, 0
1, 91656, Note_off_c, 1, 61, 0
1, 91680, Note_on_c, 1, 78, 127
1, 91680, Note_on_c, 1, 63, 127
1, 91776, Note_off_c, 1, 78, 0
1, 91776, Note_off_c, 1, 63, 0
1, 91800, Note_on_c, 1, 79, 127
1, 91800, Note_on_c, 1, 64, 127
1, 91896, Note_off_c, 1, 79, 0
1, 91896, Note_off_c, 1, 64, 0
1, 91920, Note_on_c, 1, 79, 127
1, 91920, Note_on_c, 1, 64, 127
1, 91944, Note_off_c, 1, 79, 0
1, 91944, Note_off_c, 1, 64, 0
1, 91950, Note_on_c, 1, 81, 127
1, 91950, Note_on_c, 1, 65, 127
1, 91974, Note_off_c, 1, 65, 0
1, 91979, Note_off_c, 1, 81, 0
1, 91980, Note_on_c, 1, 79, 127
1, 91980, Note_on_c, 1, 64, 127
1, 92028, Note_off_c, 1, 79, 0
1, 92028, Note_off_c, 1, 64, 0
1, 92040, Note_on_c, 1, 78, 127
1, 92040, Note_on_c, 1, 62, 127
1, 92136, Note_off_c, 1, 78, 0
1, 92153, Note_off_c, 1, 62, 0
1, 92160, Note_on_c, 1, 79, 127
1, 92160, Note_on_c, 1, 64, 127
1, 92256, Note_off_c, 1, 79, 0
1, 92273, Note_off_c, 1, 64, 0
1, 92280, Note_on_c, 1, 81, 127
1, 92280, Note_on_c, 1, 66, 127
1, 92376, Note_off_c, 1, 81, 0
1, 92376, Note_off_c, 1, 66, 0
1, 92400, Note_on_c, 1, 69, 127
1, 92400, Note_on_c, 1, 54, 127
1, 92496, Note_off_c, 1, 69, 0
1, 92496, Note_off_c, 1, 54, 0
1, 92520, Note_on_c, 1, 71, 127
1, 92520, Note_on_c, 1, 56, 127
1, 92616, Note_off_c, 1, 71, 0
1, 92616, Note_off_c, 1, 56, 0
1, 92640, Note_on_c, 1, 73, 127
1, 92640, Note_on_c, 1, 57, 127
1, 92736, Note_off_c, 1, 73, 0
1, 92736, Note_off_c, 1, 57, 0
1, 92760, Note_on_c, 1, 75, 127
1, 92760, Note_on_c, 1, 59, 127
1, 92856, Note_off_c, 1, 75, 0
1, 92856, Note_off_c, 1, 59, 0
1, 92880, Note_on_c, 1, 76, 127
1, 92880, Note_on_c, 1, 61, 127
1, 92976, Note_off_c, 1, 76, 0
1, 92976, Note_off_c, 1, 61, 0
1, 93000, Note_on_c, 1, 78, 127
1, 93000, Note_on_c, 1, 63, 127
1, 93096, Note_off_c, 1, 78, 0
1, 93096, Note_off_c, 1, 63, 0
1, 93120, Note_on_c, 1, 80, 127
1, 93120, Note_on_c, 1, 64, 127
1, 93216, Note_off_c, 1, 80, 0
1, 93216, Note_off_c, 1, 64, 0
1, 93240, Note_on_c, 1, 81, 127
1, 93240, Note_on_c, 1, 66, 127
1, 93336, Note_off_c, 1, 81, 0
1, 93336, Note_off_c, 1, 66, 0
1, 93360, Note_on_c, 1, 81, 127
1, 93360, Note_on_c, 1, 66, 127
1, 93384, Note_off_c, 1, 81, 0
1, 93384, Note_off_c, 1, 66, 0
1, 93390, Note_on_c, 1, 83, 127
1, 93390, Note_on_c, 1, 67, 127
1, 93414, Note_off_c, 1, 83, 0
1, 93414, Note_off_c, 1, 67, 0
1, 93420, Note_on_c, 1, 81, 127
1, 93420, Note_on_c, 1, 66, 127
1, 93468, Note_off_c, 1, 81, 0
1, 93468, Note_off_c, 1, 66, 0
1, 93480, Note_on_c, 1, 80, 127
1, 93480, Note_on_c, 1, 64, 127
1, 93576, Note_off_c, 1, 80, 0
1, 93576, Note_off_c, 1, 64, 0
1, 93600, Note_on_c, 1, 81, 127
1, 93600, Note_on_c, 1, 66, 127
1, 93696, Note_off_c, 1, 81, 0
1, 93696, Note_off_c, 1, 66, 0
1, 93720, Note_on_c, 1, 83, 127
1, 93720, Note_on_c, 1, 67, 127
1, 93816, Note_off_c, 1, 83, 0
1, 93816, Note_off_c, 1, 67, 0
1, 93840, Note_on_c, 1, 73, 127
1, 93840, Note_on_c, 1, 57, 127
1, 93936, Note_off_c, 1, 73, 0
1, 93936, Note_off_c, 1, 57, 0
1, 93960, Note_on_c, 1, 75, 127
1, 93960, Note_on_c, 1, 59, 127
1, 94056, Note_off_c, 1, 75, 0
1, 94056, Note_off_c, 1, 59, 0
1, 94080, Note_on_c, 1, 76, 127
1, 94080, Note_on_c, 1, 61, 127
1, 94176, Note_off_c, 1, 76, 0
1, 94176, Note_off_c, 1, 61, 0
1, 94200, Note_on_c, 1, 78, 127
1, 94200, Note_on_c, 1, 63, 127
1, 94296, Note_off_c, 1, 78, 0
1, 94296, Note_off_c, 1, 63, 0
1, 94320, Note_on_c, 1, 80, 127
1, 94320, Note_on_c, 1, 64, 127
1, 94416, Note_off_c, 1, 80, 0
1, 94416, Note_off_c, 1, 64, 0
1, 94440, Note_on_c, 1, 81, 127
1, 94440, Note_on_c, 1, 66, 127
1, 94536, Note_off_c, 1, 81, 0
1, 94536, Note_off_c, 1, 66, 0
1, 94560, Note_on_c, 1, 71, 127
1, 94560, Note_on_c, 1, 55, 127
1, 94656, Note_off_c, 1, 71, 0
1, 94656, Note_off_c, 1, 55, 0
1, 94680, Note_on_c, 1, 73, 127
1, 94680, Note_on_c, 1, 57, 127
1, 94776, Note_off_c, 1, 73, 0
1, 94776, Note_off_c, 1, 57, 0
1, 94800, Note_on_c, 1, 75, 127
1, 94800, Note_on_c, 1, 59, 127
1, 94896, Note_off_c, 1, 75, 0
1, 94896, Note_off_c, 1, 59, 0
1, 94920, Note_on_c, 1, 76, 127
1, 94920, Note_on_c, 1, 61, 127
1, 95016, Note_off_c, 1, 76, 0
1, 95016, Note_off_c, 1, 61, 0
1, 95040, Note_on_c, 1, 78, 127
1, 95040, Note_on_c, 1, 63, 127
1, 95136, Note_off_c, 1, 78, 0
1, 95136, Note_off_c, 1, 63, 0
1, 95160, Note_on_c, 1, 79, 127
1, 95160, Note_on_c, 1, 64, 127
1, 95256, Note_off_c, 1, 79, 0
1, 95280, Note_on_c, 1, 81, 127
1, 95352, Note_off_c, 1, 64, 0
1, 95376, Note_off_c, 1, 81, 0
1, 95400, Note_on_c, 1, 83, 127
1, 95400, Note_on_c, 1, 57, 127
1, 95496, Note_off_c, 1, 83, 0
1, 95496, Note_off_c, 1, 57, 0
1, 95520, Note_on_c, 1, 71, 127
1, 95520, Note_on_c, 1, 59, 127
1, 95616, Note_off_c, 1, 71, 0
1, 95640, Note_on_c, 1, 76, 127
1, 95712, Note_off_c, 1, 59, 0
1, 95736, Note_off_c, 1, 76, 0
1, 95760, Note_on_c, 1, 75, 127
1, 95760, Note_on_c, 1, 47, 127
1, 95856, Note_off_c, 1, 75, 0
1, 95856, Note_off_c, 1, 47, 0
1, 95880, Note_on_c, 1, 76, 127
1, 95880, Note_on_c, 1, 52, 127
1, 95976, Note_off_c, 1, 52, 0
1, 96000, Note_on_c, 1, 54, 127
1, 96096, Note_off_c, 1, 54, 0
1, 96120, Note_on_c, 1, 55, 127
1, 96168, Note_off_c, 1, 76, 0
1, 96216, Note_off_c, 1, 55, 0
1, 96240, Note_on_c, 1, 55, 127
1, 96336, Note_off_c, 1, 55, 0
1, 96360, Note_on_c, 1, 57, 127
1, 96456, Note_off_c, 1, 57, 0
1, 96480, Note_on_c, 1, 76, 127
1, 96480, Note_on_c, 1, 58, 127
1, 96576, Note_off_c, 1, 76, 0
1, 96576, Note_off_c, 1, 58, 0
1, 96600, Note_on_c, 1, 76, 127
1, 96600, Note_on_c, 1, 49, 127
1, 96696, Note_off_c, 1, 76, 0
1, 96720, Note_on_c, 1, 73, 127
1, 96816, Note_off_c, 1, 73, 0
1, 96840, Note_on_c, 1, 69, 127
1, 96888, Note_off_c, 1, 49, 0
1, 96936, Note_off_c, 1, 69, 0
1, 96960, Note_on_c, 1, 67, 127
1, 97056, Note_off_c, 1, 67, 0
1, 97080, Note_on_c, 1, 65, 127
1, 97176, Note_off_c, 1, 65, 0
1, 97200, Note_on_c, 1, 64, 127
1, 97200, Note_on_c, 1, 45, 127
1, 97296, Note_off_c, 1, 64, 0
1, 97296, Note_off_c, 1, 45, 0
1, 97320, Note_on_c, 1, 65, 127
1, 97320, Note_on_c, 1, 50, 127
1, 97416, Note_off_c, 1, 65, 0
1, 97416, Note_off_c, 1, 50, 0
1, 97440, Note_on_c, 1, 62, 127
1, 97440, Note_on_c, 1, 53, 127
1, 97536, Note_off_c, 1, 62, 0
1, 97536, Note_off_c, 1, 53, 0
1, 97560, Note_on_c, 1, 65, 127
1, 97560, Note_on_c, 1, 57, 127
1, 97656, Note_off_c, 1, 65, 0
1, 97656, Note_off_c, 1, 57, 0
1, 97680, Note_on_c, 1, 69, 127
1, 97680, Note_on_c, 1, 62, 127
1, 97776, Note_off_c, 1, 69, 0
1, 97800, Note_on_c, 1, 65, 127
1, 97872, Note_off_c, 1, 62, 0
1, 97896, Note_off_c, 1, 65, 0
1, 97920, Note_on_c, 1, 69, 127
1, 97920, Note_on_c, 1, 48, 127
1, 98016, Note_off_c, 1, 69, 0
1, 98016, Note_off_c, 1, 48, 0
1, 98040, Note_on_c, 1, 74, 127
1, 98040, Note_on_c, 1, 47, 127
1, 98136, Note_off_c, 1, 74, 0
1, 98160, Note_on_c, 1, 71, 127
1, 98256, Note_off_c, 1, 71, 0
1, 98280, Note_on_c, 1, 67, 127
1, 98328, Note_off_c, 1, 47, 0
1, 98376, Note_off_c, 1, 67, 0
1, 98400, Note_on_c, 1, 65, 127
1, 98496, Note_off_c, 1, 65, 0
1, 98520, Note_on_c, 1, 64, 127
1, 98616, Note_off_c, 1, 64, 0
1, 98640, Note_on_c, 1, 62, 127
1, 98640, Note_on_c, 1, 43, 127
1, 98736, Note_off_c, 1, 62, 0
1, 98736, Note_off_c, 1, 43, 0
1, 98760, Note_on_c, 1, 64, 127
1, 98760, Note_on_c, 1, 48, 127
1, 98856, Note_off_c, 1, 64, 0
1, 98856, Note_off_c, 1, 48, 0
1, 98880, Note_on_c, 1, 60, 127
1, 98880, Note_on_c, 1, 52, 127
1, 98976, Note_off_c, 1, 60, 0
1, 98976, Note_off_c, 1, 52, 0
1, 99000, Note_on_c, 1, 64, 127
1, 99000, Note_on_c, 1, 55, 127
1, 99096, Note_off_c, 1, 64, 0
1, 99096, Note_off_c, 1, 55, 0
1, 99120, Note_on_c, 1, 67, 127
1, 99120, Note_on_c, 1, 60, 127
1, 99216, Note_off_c, 1, 67, 0
1, 99240, Note_on_c, 1, 64, 127
1, 99312, Note_off_c, 1, 60, 0
1, 99336, Note_off_c, 1, 64, 0
1, 99360, Note_on_c, 1, 67, 127
1, 99360, Note_on_c, 1, 47, 127
1, 99456, Note_off_c, 1, 67, 0
1, 99456, Note_off_c, 1, 47, 0
1, 99480, Note_on_c, 1, 72, 127
1, 99480, Note_on_c, 1, 45, 127
1, 99576, Note_off_c, 1, 72, 0
1, 99600, Note_on_c, 1, 69, 127
1, 99696, Note_off_c, 1, 69, 0
1, 99720, Note_on_c, 1, 65, 127
1, 99768, Note_off_c, 1, 45, 0
1, 99816, Note_off_c, 1, 65, 0
1, 99840, Note_on_c, 1, 64, 127
1, 99840, Note_on_c, 1, 57, 127
1, 99936, Note_off_c, 1, 64, 0
1, 99960, Note_on_c, 1, 62, 127
1, 100056, Note_off_c, 1, 62, 0
1, 100080, Note_on_c, 1, 60, 127
1, 100176, Note_off_c, 1, 60, 0
1, 100200, Note_on_c, 1, 71, 127
1, 100296, Note_off_c, 1, 71, 0
1, 100320, Note_on_c, 1, 68, 127
1, 100416, Note_off_c, 1, 68, 0
1, 100488, Note_off_c, 1, 57, 0
1, 100560, Note_on_c, 1, 62, 127
1, 100560, Note_on_c, 1, 56, 127
1, 100656, Note_off_c, 1, 62, 0
1, 100680, Note_on_c, 1, 60, 127
1, 100776, Note_off_c, 1, 60, 0
1, 100800, Note_on_c, 1, 59, 127
1, 100848, Note_off_c, 1, 56, 0
1, 100896, Note_off_c, 1, 59, 0
1, 100920, Note_on_c, 1, 60, 127
1, 100920, Note_on_c, 1, 57, 127
1, 101016, Note_off_c, 1, 60, 0
1, 101040, Note_on_c, 1, 64, 127
1, 101136, Note_off_c, 1, 64, 0
1, 101160, Note_on_c, 1, 69, 127
1, 101208, Note_off_c, 1, 57, 0
1, 101256, Note_off_c, 1, 69, 0
1, 101280, Note_on_c, 1, 62, 127
1, 101280, Note_on_c, 1, 53, 127
1, 101376, Note_off_c, 1, 62, 0
1, 101400, Note_on_c, 1, 71, 127
1, 101496, Note_off_c, 1, 71, 0
1, 101520, Note_on_c, 1, 69, 127
1, 101568, Note_off_c, 1, 53, 0
1, 101616, Note_off_c, 1, 69, 0
1, 101640, Note_on_c, 1, 68, 127
1, 101640, Note_on_c, 1, 52, 127
1, 101736, Note_off_c, 1, 68, 0
1, 101760, Note_on_c, 1, 69, 127
1, 101856, Note_off_c, 1, 69, 0
1, 101880, Note_on_c, 1, 71, 127
1, 101928, Note_off_c, 1, 52, 0
1, 101976, Note_off_c, 1, 71, 0
1, 102000, Note_on_c, 1, 64, 127
1, 102000, Note_on_c, 1, 40, 127
1, 102096, Note_off_c, 1, 40, 0
1, 102120, Note_on_c, 1, 42, 127
1, 102192, Note_off_c, 1, 64, 0
1, 102216, Note_off_c, 1, 42, 0
1, 102240, Note_on_c, 1, 71, 127
1, 102240, Note_on_c, 1, 44, 127
1, 102336, Note_off_c, 1, 71, 0
1, 102336, Note_off_c, 1, 44, 0
1, 102360, Note_on_c, 1, 72, 127
1, 102360, Note_on_c, 1, 45, 127
1, 102456, Note_off_c, 1, 72, 0
1, 102456, Note_off_c, 1, 45, 0
1, 102480, Note_on_c, 1, 74, 127
1, 102480, Note_on_c, 1, 47, 127
1, 102576, Note_off_c, 1, 74, 0
1, 102576, Note_off_c, 1, 47, 0
1, 102600, Note_on_c, 1, 76, 127
1, 102600, Note_on_c, 1, 48, 127
1, 102696, Note_off_c, 1, 76, 0
1, 102696, Note_off_c, 1, 48, 0
1, 102720, Note_on_c, 1, 64, 127
1, 102720, Note_on_c, 1, 44, 127
1, 102816, Note_off_c, 1, 64, 0
1, 102816, Note_off_c, 1, 44, 0
1, 102840, Note_on_c, 1, 66, 127
1, 102840, Note_on_c, 1, 45, 127
1, 102936, Note_off_c, 1, 66, 0
1, 102936, Note_off_c, 1, 45, 0
1, 102960, Note_on_c, 1, 68, 127
1, 102960, Note_on_c, 1, 47, 127
1, 103056, Note_off_c, 1, 68, 0
1, 103056, Note_off_c, 1, 47, 0
1, 103080, Note_on_c, 1, 69, 127
1, 103080, Note_on_c, 1, 48, 127
1, 103176, Note_off_c, 1, 69, 0
1, 103176, Note_off_c, 1, 48, 0
1, 103200, Note_on_c, 1, 71, 127
1, 103200, Note_on_c, 1, 50, 127
1, 103296, Note_off_c, 1, 71, 0
1, 103296, Note_off_c, 1, 50, 0
1, 103320, Note_on_c, 1, 72, 127
1, 103320, Note_on_c, 1, 52, 127
1, 103416, Note_off_c, 1, 72, 0
1, 103416, Note_off_c, 1, 52, 0
1, 103440, Note_on_c, 1, 68, 127
1, 103440, Note_on_c, 1, 52, 127
1, 103536, Note_off_c, 1, 68, 0
1, 103536, Note_off_c, 1, 52, 0
1, 103560, Note_on_c, 1, 69, 127
1, 103560, Note_on_c, 1, 54, 127
1, 103656, Note_off_c, 1, 69, 0
1, 103656, Note_off_c, 1, 54, 0
1, 103680, Note_on_c, 1, 71, 127
1, 103680, Note_on_c, 1, 56, 127
1, 103776, Note_off_c, 1, 71, 0
1, 103776, Note_off_c, 1, 56, 0
1, 103800, Note_on_c, 1, 72, 127
1, 103800, Note_on_c, 1, 57, 127
1, 103896, Note_off_c, 1, 72, 0
1, 103896, Note_off_c, 1, 57, 0
1, 103920, Note_on_c, 1, 74, 127
1, 103920, Note_on_c, 1, 59, 127
1, 104016, Note_off_c, 1, 74, 0
1, 104016, Note_off_c, 1, 59, 0
1, 104040, Note_on_c, 1, 76, 127
1, 104040, Note_on_c, 1, 60, 127
1, 104136, Note_off_c, 1, 76, 0
1, 104136, Note_off_c, 1, 60, 0
1, 104160, Note_on_c, 1, 64, 127
1, 104160, Note_on_c, 1, 56, 127
1, 104256, Note_off_c, 1, 64, 0
1, 104256, Note_off_c, 1, 56, 0
1, 104280, Note_on_c, 1, 66, 127
1, 104280, Note_on_c, 1, 57, 127
1, 104376, Note_off_c, 1, 66, 0
1, 104376, Note_off_c, 1, 57, 0
1, 104400, Note_on_c, 1, 68, 127
1, 104400, Note_on_c, 1, 59, 127
1, 104496, Note_off_c, 1, 68, 0
1, 104496, Note_off_c, 1, 59, 0
1, 104520, Note_on_c, 1, 69, 127
1, 104520, Note_on_c, 1, 60, 127
1, 104616, Note_off_c, 1, 69, 0
1, 104616, Note_off_c, 1, 60, 0
1, 104640, Note_on_c, 1, 71, 127
1, 104640, Note_on_c, 1, 62, 127
1, 104736, Note_off_c, 1, 71, 0
1, 104736, Note_off_c, 1, 62, 0
1, 104760, Note_on_c, 1, 72, 127
1, 104760, Note_on_c, 1, 64, 127
1, 104856, Note_off_c, 1, 72, 0
1, 104856, Note_off_c, 1, 64, 0
1, 104880, Note_on_c, 1, 68, 127
1, 104880, Note_on_c, 1, 64, 127
1, 104976, Note_off_c, 1, 68, 0
1, 104976, Note_off_c, 1, 64, 0
1, 105000, Note_on_c, 1, 69, 127
1, 105000, Note_on_c, 1, 66, 127
1, 105096, Note_off_c, 1, 69, 0
1, 105096, Note_off_c, 1, 66, 0
1, 105120, Note_on_c, 1, 71, 127
1, 105120, Note_on_c, 1, 68, 127
1, 105216, Note_off_c, 1, 71, 0
1, 105216, Note_off_c, 1, 68, 0
1, 105240, Note_on_c, 1, 72, 127
1, 105240, Note_on_c, 1, 69, 127
1, 105336, Note_off_c, 1, 72, 0
1, 105360, Note_on_c, 1, 74, 127
1, 105432, Note_off_c, 1, 69, 0
1, 105456, Note_off_c, 1, 74, 0
1, 105480, Note_on_c, 1, 76, 127
1, 105480, Note_on_c, 1, 62, 127
1, 105576, Note_off_c, 1, 76, 0
1, 105576, Note_off_c, 1, 62, 0
1, 105600, Note_on_c, 1, 72, 127
1, 105600, Note_on_c, 1, 64, 127
1, 105624, Note_off_c, 1, 72, 0
1, 105630, Note_on_c, 1, 74, 127
1, 105654, Note_off_c, 1, 74, 0
1, 105720, Note_on_c, 1, 71, 127
1, 105792, Note_off_c, 1, 64, 0
1, 105816, Note_off_c, 1, 71, 0
1, 105840, Note_on_c, 1, 69, 127
1, 105840, Note_on_c, 1, 52, 127
1, 105936, Note_off_c, 1, 69, 0
1, 105936, Note_off_c, 1, 52, 0
1, 105960, Note_on_c, 1, 69, 127
1, 105960, Note_on_c, 1, 45, 127
1, 106056, Note_off_c, 1, 69, 0
1, 106080, Note_on_c, 1, 64, 127
1, 106176, Note_off_c, 1, 64, 0
1, 106200, Note_on_c, 1, 60, 127
1, 106296, Note_off_c, 1, 60, 0
1, 106320, Note_on_c, 1, 57, 127
1, 106488, Note_off_c, 1, 45, 0
1, 106512, Note_off_c, 1, 57, 0
1, 106512, End_track
0, 0, End_of_file