0, 0, Header, 1, 1, 480
1, 0, Start_track
1, 0, Title_t, "Test"
1, 0, Tempo, 500000
1, 0, Instrument_name_t, "Church Organ"
1, 32, Note_on_c, 1, 76, 127
1, 302, Note_off_c, 1, 76, 0
1, 320, Note_on_c, 1, 69, 127
1, 590, Note_off_c, 1, 69, 0
1, 608, Note_on_c, 1, 81, 127
1, 893, Note_off_c, 1, 81, 0
1, 896, Note_on_c, 1, 79, 127
1, 1037, Note_off_c, 1, 79, 0
1, 1040, Note_on_c, 1, 76, 127
1, 1181, Note_off_c, 1, 76, 0
1, 1184, Note_on_c, 1, 77, 127
1, 1325, Note_off_c, 1, 77, 0
1, 1328, Note_on_c, 1, 74, 127
1, 1469, Note_off_c, 1, 74, 0
1, 1472, Note_on_c, 1, 76, 127
1, 1613, Note_off_c, 1, 76, 0
1, 1616, Note_on_c, 1, 74, 127
1, 1757, Note_off_c, 1, 74, 0
1, 1760, Note_on_c, 1, 72, 127
1, 1760, Note_on_c, 1, 64, 127
1, 1901, Note_off_c, 1, 72, 0
1, 1904, Note_on_c, 1, 71, 127
1, 2030, Note_off_c, 1, 64, 0
1, 2045, Note_off_c, 1, 71, 0
1, 2048, Note_on_c, 1, 72, 127
1, 2048, Note_on_c, 1, 57, 127
1, 2189, Note_off_c, 1, 72, 0
1, 2192, Note_on_c, 1, 71, 127
1, 2318, Note_off_c, 1, 57, 0
1, 2333, Note_off_c, 1, 71, 0
1, 2336, Note_on_c, 1, 72, 127
1, 2336, Note_on_c, 1, 69, 127
1, 2480, Note_on_c, 1, 77, 127
1, 2576, Note_off_c, 1, 72, 0
1, 2621, Note_off_c, 1, 69, 0
1, 2624, Note_on_c, 1, 67, 127
1, 2624, Note_on_c, 1, 71, 127
1, 2720, Note_off_c, 1, 77, 0
1, 2765, Note_off_c, 1, 67, 0
1, 2768, Note_on_c, 1, 64, 127
1, 2768, Note_on_c, 1, 76, 127
1, 2864, Note_off_c, 1, 71, 0
1, 2909, Note_off_c, 1, 64, 0
1, 2912, Note_on_c, 1, 65, 127
1, 3008, Note_off_c, 1, 76, 0
1, 3053, Note_off_c, 1, 65, 0
1, 3056, Note_on_c, 1, 62, 127
1, 3056, Note_on_c, 1, 74, 127
1, 3197, Note_off_c, 1, 62, 0
1, 3200, Note_on_c, 1, 68, 127
1, 3296, Note_off_c, 1, 74, 0
1, 3488, Note_on_c, 1, 52, 127
1, 3620, Note_off_c, 1, 68, 0
1, 3773, Note_off_c, 1, 52, 0
1, 3776, Note_on_c, 1, 56, 127
1, 3776, Note_on_c, 1, 74, 127
1, 3920, Note_on_c, 1, 71, 127
1, 4061, Note_off_c, 1, 56, 0
1, 4061, Note_off_c, 1, 71, 0
1, 4064, Note_on_c, 1, 68, 127
1, 4064, Note_on_c, 1, 59, 127
1, 4205, Note_off_c, 1, 68, 0
1, 4349, Note_off_c, 1, 59, 0
1, 4352, Note_on_c, 1, 64, 127
1, 4637, Note_off_c, 1, 74, 0
1, 4640, Note_on_c, 1, 72, 127
1, 4640, Note_on_c, 1, 52, 127
1, 4781, Note_off_c, 1, 72, 0
1, 4922, Note_off_c, 1, 64, 0
1, 4925, Note_off_c, 1, 52, 0
1, 4928, Note_on_c, 1, 72, 127
1, 4928, Note_on_c, 1, 57, 127
1, 5069, Note_off_c, 1, 72, 0
1, 5072, Note_on_c, 1, 71, 127
1, 5213, Note_off_c, 1, 71, 0
1, 5216, Note_on_c, 1, 69, 127
1, 5216, Note_on_c, 1, 52, 127
1, 5357, Note_off_c, 1, 69, 0
1, 5360, Note_on_c, 1, 68, 127
1, 5501, Note_off_c, 1, 52, 0
1, 5501, Note_off_c, 1, 68, 0
1, 5504, Note_on_c, 1, 45, 127
1, 5789, Note_off_c, 1, 45, 0
1, 5790, Note_off_c, 1, 57, 0
1, 5792, Note_on_c, 1, 72, 127
1, 5792, Note_on_c, 1, 57, 127
1, 5936, Note_on_c, 1, 65, 127
1, 6077, Note_off_c, 1, 72, 0
1, 6077, Note_off_c, 1, 57, 0
1, 6080, Note_on_c, 1, 55, 127
1, 6080, Note_on_c, 1, 71, 127
1, 6146, Note_off_c, 1, 65, 0
1, 6221, Note_off_c, 1, 55, 0
1, 6224, Note_on_c, 1, 52, 127
1, 6224, Note_on_c, 1, 64, 127
1, 6290, Note_off_c, 1, 71, 0
1, 6365, Note_off_c, 1, 52, 0
1, 6368, Note_on_c, 1, 69, 127
1, 6368, Note_on_c, 1, 53, 127
1, 6464, Note_off_c, 1, 64, 0
1, 6509, Note_off_c, 1, 69, 0
1, 6509, Note_off_c, 1, 53, 0
1, 6512, Note_on_c, 1, 71, 127
1, 6512, Note_on_c, 1, 50, 127
1, 6653, Note_off_c, 1, 71, 0
1, 6653, Note_off_c, 1, 50, 0
1, 6656, Note_on_c, 1, 69, 127
1, 6656, Note_on_c, 1, 52, 127
1, 6713, Note_on_c, 1, 68, 127
1, 6725, Note_off_c, 1, 69, 0
1, 6782, Note_off_c, 1, 68, 0
1, 6797, Note_off_c, 1, 52, 0
1, 6800, Note_on_c, 1, 50, 127
1, 6941, Note_off_c, 1, 50, 0
1, 6944, Note_on_c, 1, 47, 127
1, 6944, Note_on_c, 1, 64, 127
1, 7085, Note_off_c, 1, 47, 0
1, 7088, Note_on_c, 1, 44, 127
1, 7229, Note_off_c, 1, 64, 0
1, 7229, Note_off_c, 1, 44, 0
1, 7232, Note_on_c, 1, 50, 127
1, 7232, Note_on_c, 1, 68, 127
1, 7373, Note_off_c, 1, 50, 0
1, 7376, Note_on_c, 1, 47, 127
1, 7472, Note_off_c, 1, 68, 0
1, 7517, Note_off_c, 1, 47, 0
1, 7520, Note_on_c, 1, 44, 127
1, 7520, Note_on_c, 1, 71, 127
1, 7661, Note_off_c, 1, 44, 0
1, 7664, Note_on_c, 1, 47, 127
1, 7760, Note_off_c, 1, 71, 0
1, 7805, Note_off_c, 1, 47, 0
1, 7808, Note_on_c, 1, 40, 127
1, 7808, Note_on_c, 1, 68, 127
1, 7949, Note_off_c, 1, 40, 0
1, 7952, Note_on_c, 1, 50, 127
1, 8048, Note_off_c, 1, 68, 0
1, 8093, Note_off_c, 1, 50, 0
1, 8096, Note_on_c, 1, 48, 127
1, 8096, Note_on_c, 1, 64, 127
1, 8237, Note_off_c, 1, 48, 0
1, 8240, Note_on_c, 1, 47, 127
1, 8336, Note_off_c, 1, 64, 0
1, 8381, Note_off_c, 1, 47, 0
1, 8384, Note_on_c, 1, 49, 127
1, 8384, Note_on_c, 1, 69, 127
1, 8528, Note_on_c, 1, 79, 127
1, 8669, Note_off_c, 1, 49, 0
1, 8669, Note_off_c, 1, 79, 0
1, 8672, Note_on_c, 1, 76, 127
1, 8672, Note_on_c, 1, 45, 127
1, 8813, Note_off_c, 1, 76, 0
1, 8816, Note_on_c, 1, 73, 127
1, 8957, Note_off_c, 1, 45, 0
1, 8957, Note_off_c, 1, 73, 0
1, 9246, Note_off_c, 1, 69, 0
1, 9248, Note_on_c, 1, 73, 127
1, 9248, Note_on_c, 1, 52, 127
1, 9392, Note_on_c, 1, 76, 127
1, 9488, Note_off_c, 1, 73, 0
1, 9533, Note_off_c, 1, 52, 0
1, 9533, Note_off_c, 1, 76, 0
1, 9536, Note_on_c, 1, 69, 127
1, 9536, Note_on_c, 1, 49, 127
1, 9677, Note_off_c, 1, 69, 0
1, 9680, Note_on_c, 1, 67, 127
1, 9821, Note_off_c, 1, 49, 0
1, 9821, Note_off_c, 1, 67, 0
1, 9824, Note_on_c, 1, 66, 127
1, 9824, Note_on_c, 1, 45, 127
1, 9965, Note_off_c, 1, 66, 0
1, 9968, Note_on_c, 1, 64, 127
1, 10109, Note_off_c, 1, 45, 0
1, 10109, Note_off_c, 1, 64, 0
1, 10112, Note_on_c, 1, 50, 127
1, 10112, Note_on_c, 1, 66, 127
1, 10253, Note_off_c, 1, 50, 0
1, 10256, Note_on_c, 1, 60, 127
1, 10397, Note_off_c, 1, 66, 0
1, 10397, Note_off_c, 1, 60, 0
1, 10400, Note_on_c, 1, 57, 127
1, 10400, Note_on_c, 1, 74, 127
1, 10541, Note_off_c, 1, 57, 0
1, 10544, Note_on_c, 1, 54, 127
1, 10640, Note_off_c, 1, 74, 0
1, 10685, Note_off_c, 1, 54, 0
1, 10688, Note_on_c, 1, 60, 127
1, 10688, Note_on_c, 1, 78, 127
1, 10829, Note_off_c, 1, 60, 0
1, 10832, Note_on_c, 1, 57, 127
1, 10928, Note_off_c, 1, 78, 0
1, 10973, Note_off_c, 1, 57, 0
1, 10976, Note_on_c, 1, 54, 127
1, 10976, Note_on_c, 1, 81, 127
1, 11117, Note_off_c, 1, 54, 0
1, 11120, Note_on_c, 1, 57, 127
1, 11216, Note_off_c, 1, 81, 0
1, 11261, Note_off_c, 1, 57, 0
1, 11264, Note_on_c, 1, 50, 127
1, 11264, Note_on_c, 1, 78, 127
1, 11405, Note_off_c, 1, 50, 0
1, 11408, Note_on_c, 1, 60, 127
1, 11504, Note_off_c, 1, 78, 0
1, 11549, Note_off_c, 1, 60, 0
1, 11552, Note_on_c, 1, 59, 127
1, 11552, Note_on_c, 1, 74, 127
1, 11693, Note_off_c, 1, 59, 0
1, 11696, Note_on_c, 1, 57, 127
1, 11792, Note_off_c, 1, 74, 0
1, 11837, Note_off_c, 1, 57, 0
1, 11840, Note_on_c, 1, 79, 127
1, 11840, Note_on_c, 1, 59, 127
1, 11981, Note_off_c, 1, 79, 0
1, 11984, Note_on_c, 1, 77, 127
1, 12125, Note_off_c, 1, 59, 0
1, 12125, Note_off_c, 1, 77, 0
1, 12128, Note_on_c, 1, 74, 127
1, 12128, Note_on_c, 1, 55, 127
1, 12269, Note_off_c, 1, 74, 0
1, 12272, Note_on_c, 1, 71, 127
1, 12413, Note_off_c, 1, 55, 0
1, 12413, Note_off_c, 1, 71, 0
1, 12416, Note_on_c, 1, 77, 127
1, 12416, Note_on_c, 1, 59, 127
1, 12560, Note_on_c, 1, 74, 127
1, 12656, Note_off_c, 1, 77, 0
1, 12701, Note_off_c, 1, 59, 0
1, 12701, Note_off_c, 1, 74, 0
1, 12704, Note_on_c, 1, 71, 127
1, 12704, Note_on_c, 1, 62, 127
1, 12845, Note_off_c, 1, 71, 0
1, 12848, Note_on_c, 1, 74, 127
1, 12989, Note_off_c, 1, 62, 0
1, 12989, Note_off_c, 1, 74, 0
1, 12992, Note_on_c, 1, 67, 127
1, 12992, Note_on_c, 1, 59, 127
1, 13136, Note_on_c, 1, 77, 127
1, 13232, Note_off_c, 1, 67, 0
1, 13277, Note_off_c, 1, 59, 0
1, 13277, Note_off_c, 1, 77, 0
1, 13280, Note_on_c, 1, 76, 127
1, 13280, Note_on_c, 1, 55, 127
1, 13421, Note_off_c, 1, 76, 0
1, 13424, Note_on_c, 1, 74, 127
1, 13565, Note_off_c, 1, 55, 0
1, 13565, Note_off_c, 1, 74, 0
1, 13568, Note_on_c, 1, 76, 127
1, 13568, Note_on_c, 1, 60, 127
1, 13709, Note_off_c, 1, 76, 0
1, 13712, Note_on_c, 1, 74, 127
1, 13853, Note_off_c, 1, 74, 0
1, 13856, Note_on_c, 1, 72, 127
1, 13856, Note_on_c, 1, 55, 127
1, 13997, Note_off_c, 1, 72, 0
1, 14000, Note_on_c, 1, 71, 127
1, 14141, Note_off_c, 1, 55, 0
1, 14141, Note_off_c, 1, 71, 0
1, 14144, Note_on_c, 1, 69, 127
1, 14144, Note_on_c, 1, 48, 127
1, 14285, Note_off_c, 1, 69, 0
1, 14429, Note_off_c, 1, 48, 0
1, 14430, Note_off_c, 1, 60, 0
1, 14432, Note_on_c, 1, 74, 127
1, 14432, Note_on_c, 1, 60, 127
1, 14573, Note_off_c, 1, 74, 0
1, 14576, Note_on_c, 1, 78, 127
1, 14717, Note_off_c, 1, 60, 0
1, 14717, Note_off_c, 1, 78, 0
1, 14720, Note_on_c, 1, 59, 127
1, 14720, Note_on_c, 1, 79, 127
1, 14861, Note_off_c, 1, 59, 0
1, 14864, Note_on_c, 1, 71, 127
1, 14864, Note_on_c, 1, 55, 127
1, 14960, Note_off_c, 1, 79, 0
1, 15005, Note_off_c, 1, 71, 0
1, 15005, Note_off_c, 1, 55, 0
1, 15008, Note_on_c, 1, 72, 127
1, 15008, Note_on_c, 1, 57, 127
1, 15149, Note_off_c, 1, 72, 0
1, 15149, Note_off_c, 1, 57, 0
1, 15152, Note_on_c, 1, 69, 127
1, 15152, Note_on_c, 1, 54, 127
1, 15293, Note_off_c, 1, 69, 0
1, 15293, Note_off_c, 1, 54, 0
1, 15296, Note_on_c, 1, 71, 127
1, 15296, Note_on_c, 1, 55, 127
1, 15437, Note_off_c, 1, 71, 0
1, 15440, Note_on_c, 1, 74, 127
1, 15581, Note_off_c, 1, 55, 0
1, 15581, Note_off_c, 1, 74, 0
1, 15584, Note_on_c, 1, 76, 127
1, 15584, Note_on_c, 1, 53, 127
1, 15725, Note_off_c, 1, 76, 0
1, 15728, Note_on_c, 1, 77, 127
1, 15869, Note_off_c, 1, 53, 0
1, 15869, Note_off_c, 1, 77, 0
1, 15872, Note_on_c, 1, 52, 127
1, 15872, Note_on_c, 1, 79, 127
1, 16016, Note_on_c, 1, 69, 127
1, 16157, Note_off_c, 1, 52, 0
1, 16157, Note_off_c, 1, 69, 0
1, 16160, Note_on_c, 1, 70, 127
1, 16160, Note_on_c, 1, 50, 127
1, 16192, Note_off_c, 1, 79, 0
1, 16301, Note_off_c, 1, 70, 0
1, 16304, Note_on_c, 1, 67, 127
1, 16445, Note_off_c, 1, 50, 0
1, 16464, Note_off_c, 1, 67, 0
1, 16736, Note_on_c, 1, 70, 127
1, 16736, Note_on_c, 1, 48, 127
1, 16877, Note_off_c, 1, 70, 0
1, 16880, Note_on_c, 1, 67, 127
1, 17021, Note_off_c, 1, 48, 0
1, 17021, Note_off_c, 1, 67, 0
1, 17024, Note_on_c, 1, 69, 127
1, 17024, Note_on_c, 1, 53, 127
1, 17165, Note_off_c, 1, 69, 0
1, 17168, Note_on_c, 1, 72, 127
1, 17309, Note_off_c, 1, 53, 0
1, 17309, Note_off_c, 1, 72, 0
1, 17312, Note_on_c, 1, 74, 127
1, 17312, Note_on_c, 1, 52, 127
1, 17453, Note_off_c, 1, 74, 0
1, 17456, Note_on_c, 1, 76, 127
1, 17597, Note_off_c, 1, 52, 0
1, 17597, Note_off_c, 1, 76, 0
1, 17600, Note_on_c, 1, 50, 127
1, 17600, Note_on_c, 1, 77, 127
1, 17744, Note_on_c, 1, 67, 127
1, 17885, Note_off_c, 1, 50, 0
1, 17885, Note_off_c, 1, 67, 0
1, 17888, Note_on_c, 1, 69, 127
1, 17888, Note_on_c, 1, 48, 127
1, 17920, Note_off_c, 1, 77, 0
1, 18029, Note_off_c, 1, 69, 0
1, 18032, Note_on_c, 1, 65, 127
1, 18173, Note_off_c, 1, 48, 0
1, 18232, Note_off_c, 1, 65, 0
1, 18464, Note_on_c, 1, 69, 127
1, 18464, Note_on_c, 1, 47, 127
1, 18605, Note_off_c, 1, 69, 0
1, 18608, Note_on_c, 1, 65, 127
1, 18749, Note_off_c, 1, 47, 0
1, 18749, Note_off_c, 1, 65, 0
1, 18752, Note_on_c, 1, 67, 127
1, 18752, Note_on_c, 1, 52, 127
1, 18893, Note_off_c, 1, 67, 0
1, 18896, Note_on_c, 1, 64, 127
1, 19037, Note_off_c, 1, 52, 0
1, 19037, Note_off_c, 1, 64, 0
1, 19040, Note_on_c, 1, 67, 127
1, 19040, Note_on_c, 1, 50, 127
1, 19181, Note_off_c, 1, 67, 0
1, 19184, Note_on_c, 1, 71, 127
1, 19325, Note_off_c, 1, 50, 0
1, 19325, Note_off_c, 1, 71, 0
1, 19328, Note_on_c, 1, 76, 127
1, 19328, Note_on_c, 1, 49, 127
1, 19472, Note_on_c, 1, 65, 127
1, 19608, Note_off_c, 1, 76, 0
1, 19613, Note_off_c, 1, 49, 0
1, 19613, Note_off_c, 1, 65, 0
1, 19616, Note_on_c, 1, 67, 127
1, 19616, Note_on_c, 1, 47, 127
1, 19757, Note_off_c, 1, 67, 0
1, 19760, Note_on_c, 1, 64, 127
1, 19901, Note_off_c, 1, 47, 0
1, 19904, Note_on_c, 1, 76, 127
1, 19904, Note_on_c, 1, 49, 127
1, 20000, Note_off_c, 1, 64, 0
1, 20048, Note_on_c, 1, 65, 127
1, 20144, Note_off_c, 1, 76, 0
1, 20189, Note_off_c, 1, 49, 0
1, 20189, Note_off_c, 1, 65, 0
1, 20192, Note_on_c, 1, 67, 127
1, 20192, Note_on_c, 1, 45, 127
1, 20333, Note_off_c, 1, 67, 0
1, 20336, Note_on_c, 1, 64, 127
1, 20477, Note_off_c, 1, 45, 0
1, 20477, Note_off_c, 1, 64, 0
1, 20480, Note_on_c, 1, 65, 127
1, 20480, Note_on_c, 1, 50, 127
1, 20621, Note_off_c, 1, 65, 0
1, 20624, Note_on_c, 1, 62, 127
1, 20765, Note_off_c, 1, 50, 0
1, 20765, Note_off_c, 1, 62, 0
1, 20768, Note_on_c, 1, 65, 127
1, 20768, Note_on_c, 1, 48, 127
1, 20909, Note_off_c, 1, 65, 0
1, 20912, Note_on_c, 1, 69, 127
1, 21053, Note_off_c, 1, 48, 0
1, 21053, Note_off_c, 1, 69, 0
1, 21056, Note_on_c, 1, 74, 127
1, 21056, Note_on_c, 1, 47, 127
1, 21200, Note_on_c, 1, 64, 127
1, 21296, Note_off_c, 1, 74, 0
1, 21341, Note_off_c, 1, 47, 0
1, 21341, Note_off_c, 1, 64, 0
1, 21344, Note_on_c, 1, 65, 127
1, 21344, Note_on_c, 1, 45, 127
1, 21485, Note_off_c, 1, 65, 0
1, 21488, Note_on_c, 1, 62, 127
1, 21629, Note_off_c, 1, 45, 0
1, 21632, Note_on_c, 1, 74, 127
1, 21632, Note_on_c, 1, 47, 127
1, 21776, Note_on_c, 1, 64, 127
1, 21778, Note_off_c, 1, 62, 0
1, 21832, Note_off_c, 1, 74, 0
1, 21917, Note_off_c, 1, 47, 0
1, 21917, Note_off_c, 1, 64, 0
1, 21920, Note_on_c, 1, 65, 127
1, 21920, Note_on_c, 1, 43, 127
1, 22061, Note_off_c, 1, 65, 0
1, 22064, Note_on_c, 1, 62, 127
1, 22205, Note_off_c, 1, 43, 0
1, 22205, Note_off_c, 1, 62, 0
1, 22208, Note_on_c, 1, 48, 127
1, 22208, Note_on_c, 1, 64, 127
1, 22352, Note_on_c, 1, 62, 127
1, 22493, Note_off_c, 1, 48, 0
1, 22493, Note_off_c, 1, 62, 0
1, 22496, Note_on_c, 1, 60, 127
1, 22496, Note_on_c, 1, 43, 127
1, 22637, Note_off_c, 1, 60, 0
1, 22640, Note_on_c, 1, 59, 127
1, 22778, Note_off_c, 1, 64, 0
1, 22781, Note_off_c, 1, 43, 0
1, 22781, Note_off_c, 1, 59, 0
1, 22784, Note_on_c, 1, 60, 127
1, 22784, Note_on_c, 1, 36, 127
1, 22928, Note_on_c, 1, 56, 127
1, 23069, Note_off_c, 1, 60, 0
1, 23069, Note_off_c, 1, 36, 0
1, 23069, Note_off_c, 1, 56, 0
1, 23072, Note_on_c, 1, 57, 127
1, 23072, Note_on_c, 1, 48, 127
1, 23216, Note_on_c, 1, 64, 127
1, 23282, Note_off_c, 1, 57, 0
1, 23357, Note_off_c, 1, 48, 0
1, 23357, Note_off_c, 1, 64, 0
1, 23360, Note_on_c, 1, 62, 127
1, 23360, Note_on_c, 1, 47, 127
1, 23501, Note_off_c, 1, 62, 0
1, 23501, Note_off_c, 1, 47, 0
1, 23504, Note_on_c, 1, 59, 127
1, 23504, Note_on_c, 1, 44, 127
1, 23645, Note_off_c, 1, 59, 0
1, 23645, Note_off_c, 1, 44, 0
1, 23648, Note_on_c, 1, 60, 127
1, 23648, Note_on_c, 1, 45, 127
1, 23789, Note_off_c, 1, 60, 0
1, 23789, Note_off_c, 1, 45, 0
1, 23792, Note_on_c, 1, 57, 127
1, 23792, Note_on_c, 1, 42, 127
1, 23933, Note_off_c, 1, 57, 0
1, 23933, Note_off_c, 1, 42, 0
1, 23936, Note_on_c, 1, 59, 127
1, 23936, Note_on_c, 1, 44, 127
1, 24080, Note_on_c, 1, 62, 127
1, 24146, Note_off_c, 1, 59, 0
1, 24221, Note_off_c, 1, 44, 0
1, 24221, Note_off_c, 1, 62, 0
1, 24224, Note_on_c, 1, 59, 127
1, 24224, Note_on_c, 1, 40, 127
1, 24365, Note_off_c, 1, 59, 0
1, 24368, Note_on_c, 1, 56, 127
1, 24509, Note_off_c, 1, 40, 0
1, 24509, Note_off_c, 1, 56, 0
1, 24512, Note_on_c, 1, 62, 127
1, 24512, Note_on_c, 1, 44, 127
1, 24654, Note_off_c, 1, 62, 0
1, 24656, Note_on_c, 1, 59, 127
1, 24797, Note_off_c, 1, 44, 0
1, 24797, Note_off_c, 1, 59, 0
1, 24800, Note_on_c, 1, 56, 127
1, 24800, Note_on_c, 1, 47, 127
1, 24941, Note_off_c, 1, 56, 0
1, 24944, Note_on_c, 1, 59, 127
1, 25085, Note_off_c, 1, 47, 0
1, 25085, Note_off_c, 1, 59, 0
1, 25088, Note_on_c, 1, 52, 127
1, 25088, Note_on_c, 1, 44, 127
1, 25232, Note_on_c, 1, 62, 127
1, 25298, Note_off_c, 1, 52, 0
1, 25373, Note_off_c, 1, 44, 0
1, 25373, Note_off_c, 1, 62, 0
1, 25376, Note_on_c, 1, 60, 127
1, 25376, Note_on_c, 1, 40, 127
1, 25517, Note_off_c, 1, 60, 0
1, 25520, Note_on_c, 1, 59, 127
1, 25661, Note_off_c, 1, 40, 0
1, 25661, Note_off_c, 1, 59, 0
1, 25664, Note_on_c, 1, 60, 127
1, 25664, Note_on_c, 1, 45, 127
1, 25808, Note_on_c, 1, 57, 127
1, 25904, Note_off_c, 1, 60, 0
1, 25949, Note_off_c, 1, 45, 0
1, 25949, Note_off_c, 1, 57, 0
1, 25952, Note_on_c, 1, 61, 127
1, 25952, Note_on_c, 1, 45, 127
1, 26093, Note_off_c, 1, 61, 0
1, 26096, Note_on_c, 1, 64, 127
1, 26237, Note_off_c, 1, 45, 0
1, 26237, Note_off_c, 1, 64, 0
1, 26240, Note_on_c, 1, 67, 127
1, 26240, Note_on_c, 1, 49, 127
1, 26382, Note_off_c, 1, 67, 0
1, 26384, Note_on_c, 1, 64, 127
1, 26525, Note_off_c, 1, 49, 0
1, 26525, Note_off_c, 1, 64, 0
1, 26528, Note_on_c, 1, 61, 127
1, 26528, Note_on_c, 1, 52, 127
1, 26669, Note_off_c, 1, 61, 0
1, 26672, Note_on_c, 1, 64, 127
1, 26813, Note_off_c, 1, 52, 0
1, 26813, Note_off_c, 1, 64, 0
1, 26816, Note_on_c, 1, 57, 127
1, 26816, Note_on_c, 1, 49, 127
1, 26960, Note_on_c, 1, 67, 127
1, 27026, Note_off_c, 1, 57, 0
1, 27101, Note_off_c, 1, 49, 0
1, 27101, Note_off_c, 1, 67, 0
1, 27104, Note_on_c, 1, 65, 127
1, 27104, Note_on_c, 1, 45, 127
1, 27245, Note_off_c, 1, 65, 0
1, 27248, Note_on_c, 1, 64, 127
1, 27389, Note_off_c, 1, 45, 0
1, 27389, Note_off_c, 1, 64, 0
1, 27392, Note_on_c, 1, 65, 127
1, 27392, Note_on_c, 1, 50, 127
1, 27536, Note_on_c, 1, 57, 127
1, 27632, Note_off_c, 1, 65, 0
1, 27677, Note_off_c, 1, 50, 0
1, 27677, Note_off_c, 1, 57, 0
1, 27680, Note_on_c, 1, 62, 127
1, 27680, Note_on_c, 1, 53, 127
1, 27821, Note_off_c, 1, 62, 0
1, 27821, Note_off_c, 1, 53, 0
1, 27824, Note_on_c, 1, 65, 127
1, 27824, Note_on_c, 1, 52, 127
1, 27965, Note_off_c, 1, 65, 0
1, 27965, Note_off_c, 1, 52, 0
1, 27968, Note_on_c, 1, 69, 127
1, 27968, Note_on_c, 1, 51, 127
1, 28110, Note_off_c, 1, 69, 0
1, 28112, Note_on_c, 1, 66, 127
1, 28253, Note_off_c, 1, 51, 0
1, 28253, Note_off_c, 1, 66, 0
1, 28256, Note_on_c, 1, 63, 127
1, 28256, Note_on_c, 1, 54, 127
1, 28397, Note_off_c, 1, 63, 0
1, 28400, Note_on_c, 1, 66, 127
1, 28541, Note_off_c, 1, 54, 0
1, 28541, Note_off_c, 1, 66, 0
1, 28544, Note_on_c, 1, 59, 127
1, 28544, Note_on_c, 1, 51, 127
1, 28688, Note_on_c, 1, 69, 127
1, 28754, Note_off_c, 1, 59, 0
1, 28829, Note_off_c, 1, 51, 0
1, 28829, Note_off_c, 1, 69, 0
1, 28832, Note_on_c, 1, 68, 127
1, 28832, Note_on_c, 1, 47, 127
1, 28973, Note_off_c, 1, 68, 0
1, 28976, Note_on_c, 1, 66, 127
1, 29117, Note_off_c, 1, 47, 0
1, 29117, Note_off_c, 1, 66, 0
1, 29120, Note_on_c, 1, 68, 127
1, 29120, Note_on_c, 1, 40, 127
1, 29261, Note_off_c, 1, 68, 0
1, 29264, Note_on_c, 1, 64, 127
1, 29405, Note_off_c, 1, 40, 0
1, 29405, Note_off_c, 1, 64, 0
1, 29408, Note_on_c, 1, 68, 127
1, 29408, Note_on_c, 1, 52, 127
1, 29549, Note_off_c, 1, 68, 0
1, 29552, Note_on_c, 1, 71, 127
1, 29693, Note_off_c, 1, 52, 0
1, 29693, Note_off_c, 1, 71, 0
1, 29696, Note_on_c, 1, 74, 127
1, 29696, Note_on_c, 1, 56, 127
1, 29840, Note_on_c, 1, 71, 127
1, 29906, Note_off_c, 1, 74, 0
1, 29981, Note_off_c, 1, 56, 0
1, 29981, Note_off_c, 1, 71, 0
1, 29984, Note_on_c, 1, 68, 127
1, 29984, Note_on_c, 1, 59, 127
1, 30125, Note_off_c, 1, 68, 0
1, 30128, Note_on_c, 1, 71, 127
1, 30269, Note_off_c, 1, 59, 0
1, 30269, Note_off_c, 1, 71, 0
1, 30272, Note_on_c, 1, 64, 127
1, 30272, Note_on_c, 1, 56, 127
1, 30416, Note_on_c, 1, 74, 127
1, 30482, Note_off_c, 1, 64, 0
1, 30557, Note_off_c, 1, 56, 0
1, 30557, Note_off_c, 1, 74, 0
1, 30560, Note_on_c, 1, 72, 127
1, 30560, Note_on_c, 1, 52, 127
1, 30701, Note_off_c, 1, 72, 0
1, 30704, Note_on_c, 1, 71, 127
1, 30845, Note_off_c, 1, 52, 0
1, 30845, Note_off_c, 1, 71, 0
1, 30848, Note_on_c, 1, 57, 127
1, 30848, Note_on_c, 1, 72, 127
1, 30989, Note_off_c, 1, 57, 0
1, 30992, Note_on_c, 1, 62, 127
1, 31103, Note_off_c, 1, 72, 0
1, 31133, Note_off_c, 1, 62, 0
1, 31136, Note_on_c, 1, 60, 127
1, 31136, Note_on_c, 1, 76, 127
1, 31277, Note_off_c, 1, 60, 0
1, 31280, Note_on_c, 1, 59, 127
1, 31391, Note_off_c, 1, 76, 0
1, 31421, Note_off_c, 1, 59, 0
1, 31424, Note_on_c, 1, 60, 127
1, 31424, Note_on_c, 1, 69, 127
1, 31565, Note_off_c, 1, 60, 0
1, 31568, Note_on_c, 1, 59, 127
1, 31679, Note_off_c, 1, 69, 0
1, 31709, Note_off_c, 1, 59, 0
1, 31712, Note_on_c, 1, 60, 127
1, 31712, Note_on_c, 1, 81, 127
1, 31853, Note_off_c, 1, 60, 0
1, 31856, Note_on_c, 1, 64, 127
1, 31967, Note_off_c, 1, 81, 0
1, 31997, Note_off_c, 1, 64, 0
1, 32000, Note_on_c, 1, 79, 127
1, 32000, Note_on_c, 1, 61, 127
1, 32141, Note_off_c, 1, 79, 0
1, 32141, Note_off_c, 1, 61, 0
1, 32144, Note_on_c, 1, 76, 127
1, 32144, Note_on_c, 1, 64, 127
1, 32285, Note_off_c, 1, 76, 0
1, 32285, Note_off_c, 1, 64, 0
1, 32288, Note_on_c, 1, 77, 127
1, 32288, Note_on_c, 1, 62, 127
1, 32429, Note_off_c, 1, 77, 0
1, 32429, Note_off_c, 1, 62, 0
1, 32432, Note_on_c, 1, 74, 127
1, 32432, Note_on_c, 1, 65, 127
1, 32573, Note_off_c, 1, 74, 0
1, 32573, Note_off_c, 1, 65, 0
1, 32576, Note_on_c, 1, 83, 127
1, 32576, Note_on_c, 1, 56, 127
1, 32717, Note_off_c, 1, 83, 0
1, 32720, Note_on_c, 1, 81, 127
1, 32861, Note_off_c, 1, 56, 0
1, 32861, Note_off_c, 1, 81, 0
1, 32864, Note_on_c, 1, 80, 127
1, 32864, Note_on_c, 1, 59, 127
1, 33005, Note_off_c, 1, 80, 0
1, 33008, Note_on_c, 1, 78, 127
1, 33149, Note_off_c, 1, 59, 0
1, 33149, Note_off_c, 1, 78, 0
1, 33152, Note_on_c, 1, 80, 127
1, 33152, Note_on_c, 1, 52, 127
1, 33293, Note_off_c, 1, 80, 0
1, 33296, Note_on_c, 1, 78, 127
1, 33437, Note_off_c, 1, 52, 0
1, 33437, Note_off_c, 1, 78, 0
1, 33440, Note_on_c, 1, 80, 127
1, 33440, Note_on_c, 1, 64, 127
1, 33581, Note_off_c, 1, 80, 0
1, 33584, Note_on_c, 1, 83, 127
1, 33725, Note_off_c, 1, 64, 0
1, 33725, Note_off_c, 1, 83, 0
1, 33728, Note_on_c, 1, 76, 127
1, 33728, Note_on_c, 1, 62, 127
1, 33869, Note_off_c, 1, 76, 0
1, 33869, Note_off_c, 1, 62, 0
1, 33872, Note_on_c, 1, 80, 127
1, 33872, Note_on_c, 1, 59, 127
1, 34013, Note_off_c, 1, 80, 0
1, 34013, Note_off_c, 1, 59, 0
1, 34016, Note_on_c, 1, 81, 127
1, 34016, Note_on_c, 1, 60, 127
1, 34157, Note_off_c, 1, 81, 0
1, 34157, Note_off_c, 1, 60, 0
1, 34160, Note_on_c, 1, 72, 127
1, 34160, Note_on_c, 1, 57, 127
1, 34301, Note_off_c, 1, 72, 0
1, 34301, Note_off_c, 1, 57, 0
1, 34304, Note_on_c, 1, 74, 127
1, 34304, Note_on_c, 1, 59, 127
1, 34448, Note_on_c, 1, 77, 127
1, 34564, Note_off_c, 1, 74, 0
1, 34589, Note_off_c, 1, 59, 0
1, 34592, Note_on_c, 1, 72, 127
1, 34592, Note_on_c, 1, 57, 127
1, 34598, Note_off_c, 1, 77, 0
1, 34817, Note_off_c, 1, 72, 0
1, 34877, Note_off_c, 1, 57, 0
1, 34880, Note_on_c, 1, 71, 127
1, 34880, Note_on_c, 1, 56, 127
1, 35090, Note_off_c, 1, 71, 0
1, 35165, Note_off_c, 1, 56, 0
1, 35744, Note_on_c, 1, 69, 127
1, 35744, Note_on_c, 1, 60, 127
1, 35909, Note_off_c, 1, 69, 0
1, 36029, Note_off_c, 1, 60, 0
1, 36032, Note_on_c, 1, 68, 127
1, 36032, Note_on_c, 1, 62, 127
1, 36292, Note_off_c, 1, 68, 0
1, 36317, Note_off_c, 1, 62, 0
1, 36320, Note_on_c, 1, 76, 127
1, 36320, Note_on_c, 1, 50, 127
1, 36461, Note_off_c, 1, 76, 0
1, 36464, Note_on_c, 1, 64, 127
1, 36605, Note_off_c, 1, 50, 0
1, 36605, Note_off_c, 1, 64, 0
1, 36608, Note_on_c, 1, 69, 127
1, 36608, Note_on_c, 1, 48, 127
1, 36752, Note_on_c, 1, 72, 127
1, 36848, Note_off_c, 1, 69, 0
1, 36893, Note_off_c, 1, 48, 0
1, 36893, Note_off_c, 1, 72, 0
1, 36896, Note_on_c, 1, 76, 127
1, 36896, Note_on_c, 1, 60, 127
1, 37037, Note_off_c, 1, 76, 0
1, 37040, Note_on_c, 1, 64, 127
1, 37181, Note_off_c, 1, 60, 0
1, 37181, Note_off_c, 1, 64, 0
1, 37184, Note_on_c, 1, 68, 127
1, 37184, Note_on_c, 1, 59, 127
1, 37328, Note_on_c, 1, 71, 127
1, 37404, Note_off_c, 1, 68, 0
1, 37469, Note_off_c, 1, 59, 0
1, 37469, Note_off_c, 1, 71, 0
1, 37472, Note_on_c, 1, 74, 127
1, 37472, Note_on_c, 1, 52, 127
1, 37613, Note_off_c, 1, 74, 0
1, 37616, Note_on_c, 1, 64, 127
1, 37757, Note_off_c, 1, 52, 0
1, 37757, Note_off_c, 1, 64, 0
1, 37760, Note_on_c, 1, 72, 127
1, 37760, Note_on_c, 1, 45, 127
1, 37901, Note_off_c, 1, 72, 0
1, 37904, Note_on_c, 1, 71, 127
1, 38045, Note_off_c, 1, 45, 0
1, 38045, Note_off_c, 1, 71, 0
1, 38048, Note_on_c, 1, 69, 127
1, 38048, Note_on_c, 1, 57, 127
1, 38189, Note_off_c, 1, 69, 0
1, 38192, Note_on_c, 1, 67, 127
1, 38333, Note_off_c, 1, 67, 0
1, 38336, Note_on_c, 1, 65, 127
1, 38477, Note_off_c, 1, 57, 0
1, 38477, Note_off_c, 1, 65, 0
1, 38480, Note_on_c, 1, 64, 127
1, 38480, Note_on_c, 1, 55, 127
1, 38621, Note_off_c, 1, 64, 0
1, 38621, Note_off_c, 1, 55, 0
1, 38624, Note_on_c, 1, 62, 127
1, 38624, Note_on_c, 1, 53, 127
1, 38765, Note_off_c, 1, 62, 0
1, 38765, Note_off_c, 1, 53, 0
1, 38768, Note_on_c, 1, 64, 127
1, 38768, Note_on_c, 1, 52, 127
1, 38909, Note_off_c, 1, 64, 0
1, 38909, Note_off_c, 1, 52, 0
1, 38912, Note_on_c, 1, 65, 127
1, 38912, Note_on_c, 1, 50, 127
1, 39053, Note_off_c, 1, 65, 0
1, 39053, Note_off_c, 1, 50, 0
1, 39056, Note_on_c, 1, 64, 127
1, 39056, Note_on_c, 1, 48, 127
1, 39197, Note_off_c, 1, 64, 0
1, 39197, Note_off_c, 1, 48, 0
1, 39200, Note_on_c, 1, 65, 127
1, 39200, Note_on_c, 1, 50, 127
1, 39341, Note_off_c, 1, 65, 0
1, 39341, Note_off_c, 1, 50, 0
1, 39344, Note_on_c, 1, 72, 127
1, 39344, Note_on_c, 1, 38, 127
1, 39485, Note_off_c, 1, 72, 0
1, 39485, Note_off_c, 1, 38, 0
1, 39488, Note_on_c, 1, 71, 127
1, 39488, Note_on_c, 1, 43, 127
1, 39629, Note_off_c, 1, 71, 0
1, 39632, Note_on_c, 1, 69, 127
1, 39773, Note_off_c, 1, 43, 0
1, 39773, Note_off_c, 1, 69, 0
1, 39776, Note_on_c, 1, 67, 127
1, 39776, Note_on_c, 1, 55, 127
1, 39917, Note_off_c, 1, 67, 0
1, 39920, Note_on_c, 1, 65, 127
1, 40061, Note_off_c, 1, 65, 0
1, 40064, Note_on_c, 1, 64, 127
1, 40205, Note_off_c, 1, 55, 0
1, 40205, Note_off_c, 1, 64, 0
1, 40208, Note_on_c, 1, 62, 127
1, 40208, Note_on_c, 1, 53, 127
1, 40349, Note_off_c, 1, 62, 0
1, 40349, Note_off_c, 1, 53, 0
1, 40352, Note_on_c, 1, 60, 127
1, 40352, Note_on_c, 1, 52, 127
1, 40493, Note_off_c, 1, 60, 0
1, 40493, Note_off_c, 1, 52, 0
1, 40496, Note_on_c, 1, 62, 127
1, 40496, Note_on_c, 1, 50, 127
1, 40637, Note_off_c, 1, 62, 0
1, 40637, Note_off_c, 1, 50, 0
1, 40640, Note_on_c, 1, 64, 127
1, 40640, Note_on_c, 1, 48, 127
1, 40781, Note_off_c, 1, 64, 0
1, 40781, Note_off_c, 1, 48, 0
1, 40784, Note_on_c, 1, 62, 127
1, 40784, Note_on_c, 1, 46, 127
1, 40925, Note_off_c, 1, 62, 0
1, 40925, Note_off_c, 1, 46, 0
1, 40928, Note_on_c, 1, 64, 127
1, 40928, Note_on_c, 1, 48, 127
1, 41069, Note_off_c, 1, 64, 0
1, 41069, Note_off_c, 1, 48, 0
1, 41072, Note_on_c, 1, 70, 127
1, 41072, Note_on_c, 1, 36, 127
1, 41213, Note_off_c, 1, 70, 0
1, 41213, Note_off_c, 1, 36, 0
1, 41216, Note_on_c, 1, 69, 127
1, 41216, Note_on_c, 1, 41, 127
1, 41357, Note_off_c, 1, 69, 0
1, 41360, Note_on_c, 1, 67, 127
1, 41501, Note_off_c, 1, 41, 0
1, 41501, Note_off_c, 1, 67, 0
1, 41504, Note_on_c, 1, 65, 127
1, 41504, Note_on_c, 1, 45, 127
1, 41645, Note_off_c, 1, 65, 0
1, 41648, Note_on_c, 1, 64, 127
1, 41789, Note_off_c, 1, 45, 0
1, 41789, Note_off_c, 1, 64, 0
1, 41792, Note_on_c, 1, 65, 127
1, 41792, Note_on_c, 1, 38, 127
1, 41933, Note_off_c, 1, 65, 0
1, 41936, Note_on_c, 1, 64, 127
1, 42077, Note_off_c, 1, 38, 0
1, 42077, Note_off_c, 1, 64, 0
1, 42080, Note_on_c, 1, 65, 127
1, 42080, Note_on_c, 1, 50, 127
1, 42221, Note_off_c, 1, 65, 0
1, 42221, Note_off_c, 1, 50, 0
1, 42224, Note_on_c, 1, 69, 127
1, 42224, Note_on_c, 1, 48, 127
1, 42365, Note_off_c, 1, 69, 0
1, 42365, Note_off_c, 1, 48, 0
1, 42368, Note_on_c, 1, 68, 127
1, 42368, Note_on_c, 1, 47, 127
1, 42509, Note_off_c, 1, 68, 0
1, 42509, Note_off_c, 1, 47, 0
1, 42512, Note_on_c, 1, 71, 127
1, 42512, Note_on_c, 1, 44, 127
1, 42653, Note_off_c, 1, 71, 0
1, 42653, Note_off_c, 1, 44, 0
1, 42656, Note_on_c, 1, 69, 127
1, 42656, Note_on_c, 1, 45, 127
1, 42797, Note_off_c, 1, 69, 0
1, 42797, Note_off_c, 1, 45, 0
1, 42800, Note_on_c, 1, 72, 127
1, 42800, Note_on_c, 1, 42, 127
1, 42941, Note_off_c, 1, 72, 0
1, 42941, Note_off_c, 1, 42, 0
1, 42944, Note_on_c, 1, 71, 127
1, 42944, Note_on_c, 1, 44, 127
1, 43085, Note_off_c, 1, 71, 0
1, 43088, Note_on_c, 1, 72, 127
1, 43229, Note_off_c, 1, 72, 0
1, 43232, Note_on_c, 1, 74, 127
1, 43373, Note_off_c, 1, 74, 0
1, 43520, Note_on_c, 1, 68, 127
1, 43661, Note_off_c, 1, 68, 0
1, 43664, Note_off_c, 1, 44, 0
1, 43664, Note_on_c, 1, 64, 127
1, 43805, Note_off_c, 1, 64, 0
1, 43808, Note_on_c, 1, 65, 127
1, 43808, Note_on_c, 1, 47, 127
1, 43949, Note_off_c, 1, 65, 0
1, 43952, Note_on_c, 1, 62, 127
1, 44093, Note_off_c, 1, 47, 0
1, 44093, Note_off_c, 1, 62, 0
1, 44096, Note_on_c, 1, 64, 127
1, 44096, Note_on_c, 1, 44, 127
1, 44237, Note_off_c, 1, 64, 0
1, 44240, Note_on_c, 1, 60, 127
1, 44381, Note_off_c, 1, 44, 0
1, 44381, Note_off_c, 1, 60, 0
1, 44384, Note_on_c, 1, 62, 127
1, 44384, Note_on_c, 1, 40, 127
1, 44525, Note_off_c, 1, 62, 0
1, 44528, Note_on_c, 1, 59, 127
1, 44669, Note_off_c, 1, 40, 0
1, 44669, Note_off_c, 1, 59, 0
1, 44672, Note_on_c, 1, 60, 127
1, 44672, Note_on_c, 1, 45, 127
1, 44813, Note_off_c, 1, 60, 0
1, 44816, Note_on_c, 1, 64, 127
1, 44957, Note_off_c, 1, 64, 0
1, 44960, Note_on_c, 1, 69, 127
1, 45101, Note_off_c, 1, 69, 0
1, 45104, Note_on_c, 1, 68, 127
1, 45245, Note_off_c, 1, 68, 0
1, 45392, Note_off_c, 1, 45, 0
1, 45392, Note_on_c, 1, 62, 127
1, 45533, Note_off_c, 1, 62, 0
1, 45536, Note_on_c, 1, 64, 127
1, 45536, Note_on_c, 1, 48, 127
1, 45677, Note_off_c, 1, 64, 0
1, 45680, Note_on_c, 1, 60, 127
1, 45821, Note_off_c, 1, 48, 0
1, 45821, Note_off_c, 1, 60, 0
1, 45824, Note_on_c, 1, 62, 127
1, 45824, Note_on_c, 1, 47, 127
1, 45965, Note_off_c, 1, 62, 0
1, 45968, Note_on_c, 1, 59, 127
1, 46109, Note_off_c, 1, 47, 0
1, 46109, Note_off_c, 1, 59, 0
1, 46112, Note_on_c, 1, 60, 127
1, 46112, Note_on_c, 1, 45, 127
1, 46253, Note_off_c, 1, 60, 0
1, 46256, Note_on_c, 1, 57, 127
1, 46397, Note_off_c, 1, 45, 0
1, 46397, Note_off_c, 1, 57, 0
1, 46400, Note_on_c, 1, 56, 127
1, 46400, Note_on_c, 1, 52, 127
1, 46541, Note_off_c, 1, 56, 0
1, 46544, Note_on_c, 1, 64, 127
1, 46685, Note_off_c, 1, 64, 0
1, 46688, Note_on_c, 1, 71, 127
1, 46829, Note_off_c, 1, 71, 0
1, 46832, Note_on_c, 1, 69, 127
1, 46973, Note_off_c, 1, 69, 0
1, 47240, Note_off_c, 1, 52, 0
1, 47264, Note_on_c, 1, 65, 127
1, 47264, Note_on_c, 1, 52, 127
1, 47405, Note_off_c, 1, 65, 0
1, 47408, Note_on_c, 1, 62, 127
1, 47549, Note_off_c, 1, 52, 0
1, 47549, Note_off_c, 1, 62, 0
1, 47552, Note_on_c, 1, 64, 127
1, 47552, Note_on_c, 1, 54, 127
1, 47693, Note_off_c, 1, 64, 0
1, 47696, Note_on_c, 1, 60, 127
1, 47837, Note_off_c, 1, 54, 0
1, 47837, Note_off_c, 1, 60, 0
1, 47840, Note_on_c, 1, 62, 127
1, 47840, Note_on_c, 1, 56, 127
1, 47981, Note_off_c, 1, 62, 0
1, 47984, Note_on_c, 1, 59, 127
1, 48125, Note_off_c, 1, 56, 0
1, 48125, Note_off_c, 1, 59, 0
1, 48128, Note_on_c, 1, 60, 127
1, 48128, Note_on_c, 1, 57, 127
1, 48269, Note_off_c, 1, 60, 0
1, 48272, Note_on_c, 1, 62, 127
1, 48413, Note_off_c, 1, 62, 0
1, 48416, Note_on_c, 1, 64, 127
1, 48557, Note_off_c, 1, 57, 0
1, 48557, Note_off_c, 1, 64, 0
1, 48560, Note_on_c, 1, 59, 127
1, 48560, Note_on_c, 1, 56, 127
1, 48701, Note_off_c, 1, 59, 0
1, 48701, Note_off_c, 1, 56, 0
1, 48704, Note_on_c, 1, 57, 127
1, 48704, Note_on_c, 1, 60, 127
1, 48845, Note_off_c, 1, 57, 0
1, 48848, Note_on_c, 1, 52, 127
1, 48989, Note_off_c, 1, 60, 0
1, 48989, Note_off_c, 1, 52, 0
1, 48992, Note_on_c, 1, 53, 127
1, 48992, Note_on_c, 1, 62, 127
1, 49133, Note_off_c, 1, 53, 0
1, 49136, Note_on_c, 1, 50, 127
1, 49277, Note_off_c, 1, 62, 0
1, 49277, Note_off_c, 1, 50, 0
1, 49280, Note_on_c, 1, 52, 127
1, 49280, Note_on_c, 1, 60, 127
1, 49421, Note_off_c, 1, 52, 0
1, 49424, Note_on_c, 1, 48, 127
1, 49565, Note_off_c, 1, 60, 0
1, 49565, Note_off_c, 1, 48, 0
1, 49568, Note_on_c, 1, 50, 127
1, 49568, Note_on_c, 1, 59, 127
1, 49709, Note_off_c, 1, 50, 0
1, 49712, Note_on_c, 1, 47, 127
1, 49853, Note_off_c, 1, 59, 0
1, 49853, Note_off_c, 1, 47, 0
1, 49856, Note_on_c, 1, 57, 127
1, 49856, Note_on_c, 1, 48, 127
1, 49997, Note_off_c, 1, 57, 0
1, 49997, Note_off_c, 1, 48, 0
1, 50000, Note_on_c, 1, 59, 127
1, 50000, Note_on_c, 1, 50, 127
1, 50141, Note_off_c, 1, 59, 0
1, 50141, Note_off_c, 1, 50, 0
1, 50144, Note_on_c, 1, 60, 127
1, 50144, Note_on_c, 1, 52, 127
1, 50285, Note_off_c, 1, 60, 0
1, 50285, Note_off_c, 1, 52, 0
1, 50288, Note_on_c, 1, 56, 127
1, 50288, Note_on_c, 1, 47, 127
1, 50429, Note_off_c, 1, 56, 0
1, 50429, Note_off_c, 1, 47, 0
1, 50432, Note_on_c, 1, 57, 127
1, 50432, Note_on_c, 1, 48, 127
1, 50573, Note_off_c, 1, 57, 0
1, 50576, Note_on_c, 1, 52, 127
1, 50717, Note_off_c, 1, 48, 0
1, 50717, Note_off_c, 1, 52, 0
1, 50720, Note_on_c, 1, 53, 127
1, 50720, Note_on_c, 1, 50, 127
1, 50864, Note_on_c, 1, 59, 127
1, 50930, Note_off_c, 1, 53, 0
1, 51005, Note_off_c, 1, 50, 0
1, 51008, Note_on_c, 1, 52, 127
1, 51008, Note_on_c, 1, 48, 127
1, 51014, Note_off_c, 1, 59, 0
1, 51152, Note_on_c, 1, 57, 127
1, 51218, Note_off_c, 1, 52, 0
1, 51293, Note_off_c, 1, 48, 0
1, 51296, Note_on_c, 1, 47, 127
1, 51312, Note_off_c, 1, 57, 0
1, 51440, Note_on_c, 1, 56, 127
1, 51581, Note_off_c, 1, 47, 0
1, 51581, Note_off_c, 1, 56, 0
1, 51584, Note_on_c, 1, 48, 127
1, 51584, Note_on_c, 1, 45, 127
1, 51728, Note_on_c, 1, 52, 127
1, 51869, Note_off_c, 1, 48, 0
1, 51869, Note_off_c, 1, 52, 0
1, 51872, Note_on_c, 1, 57, 127
1, 52013, Note_off_c, 1, 45, 0
1, 52016, Note_on_c, 1, 47, 127
1, 52016, Note_on_c, 1, 44, 127
1, 52157, Note_off_c, 1, 47, 0
1, 52157, Note_off_c, 1, 44, 0
1, 52292, Note_off_c, 1, 57, 0
1, 52304, Note_on_c, 1, 40, 127
1, 52445, Note_off_c, 1, 40, 0
1, 52448, Note_on_c, 1, 47, 127
1, 52448, Note_on_c, 1, 50, 127
1, 52448, Note_on_c, 1, 56, 127
1, 52589, Note_off_c, 1, 47, 0
1, 52592, Note_on_c, 1, 40, 127
1, 52710, Note_off_c, 1, 50, 0
1, 52710, Note_off_c, 1, 56, 0
1, 52733, Note_off_c, 1, 40, 0
1, 52736, Note_on_c, 1, 57, 127
1, 52736, Note_on_c, 1, 48, 127
1, 52736, Note_on_c, 1, 52, 127
1, 52877, Note_off_c, 1, 57, 0
1, 52877, Note_off_c, 1, 48, 0
1, 52880, Note_on_c, 1, 60, 127
1, 52880, Note_on_c, 1, 40, 127
1, 52946, Note_off_c, 1, 52, 0
1, 53021, Note_off_c, 1, 60, 0
1, 53021, Note_off_c, 1, 40, 0
1, 53024, Note_on_c, 1, 59, 127
1, 53024, Note_on_c, 1, 50, 127
1, 53024, Note_on_c, 1, 53, 127
1, 53165, Note_off_c, 1, 59, 0
1, 53165, Note_off_c, 1, 50, 0
1, 53168, Note_on_c, 1, 62, 127
1, 53168, Note_on_c, 1, 40, 127
1, 53234, Note_off_c, 1, 53, 0
1, 53309, Note_off_c, 1, 62, 0
1, 53309, Note_off_c, 1, 40, 0
1, 53312, Note_on_c, 1, 56, 127
1, 53312, Note_on_c, 1, 52, 127
1, 53453, Note_off_c, 1, 56, 0
1, 53456, Note_on_c, 1, 59, 127
1, 53597, Note_off_c, 1, 59, 0
1, 53600, Note_on_c, 1, 62, 127
1, 53600, Note_on_c, 1, 40, 127
1, 53741, Note_off_c, 1, 62, 0
1, 53744, Note_on_c, 1, 65, 127
1, 53882, Note_off_c, 1, 52, 0
1, 53885, Note_off_c, 1, 65, 0
1, 54170, Note_off_c, 1, 40, 0
1, 54176, Note_on_c, 1, 56, 127
1, 54317, Note_off_c, 1, 56, 0
1, 54320, Note_on_c, 1, 59, 127
1, 54462, Note_off_c, 1, 59, 0
1, 54464, Note_on_c, 1, 52, 127
1, 54608, Note_on_c, 1, 62, 127
1, 54749, Note_off_c, 1, 52, 0
1, 54749, Note_off_c, 1, 62, 0
1, 54752, Note_on_c, 1, 60, 127
1, 54893, Note_off_c, 1, 60, 0
1, 54896, Note_on_c, 1, 59, 127
1, 55037, Note_off_c, 1, 59, 0
1, 55040, Note_on_c, 1, 60, 127
1, 55040, Note_on_c, 1, 57, 127
1, 55184, Note_on_c, 1, 64, 127
1, 55325, Note_off_c, 1, 60, 0
1, 55325, Note_off_c, 1, 64, 0
1, 55328, Note_on_c, 1, 69, 127
1, 55469, Note_off_c, 1, 57, 0
1, 55472, Note_on_c, 1, 59, 127
1, 55472, Note_on_c, 1, 56, 127
1, 55613, Note_off_c, 1, 59, 0
1, 55613, Note_off_c, 1, 56, 0
1, 55748, Note_off_c, 1, 69, 0
1, 55760, Note_on_c, 1, 52, 127
1, 55901, Note_off_c, 1, 52, 0
1, 55904, Note_on_c, 1, 59, 127
1, 55904, Note_on_c, 1, 68, 127
1, 55904, Note_on_c, 1, 62, 127
1, 56045, Note_off_c, 1, 59, 0
1, 56048, Note_on_c, 1, 52, 127
1, 56189, Note_off_c, 1, 68, 0
1, 56189, Note_off_c, 1, 62, 0
1, 56189, Note_off_c, 1, 52, 0
1, 56192, Note_on_c, 1, 69, 127
1, 56192, Note_on_c, 1, 60, 127
1, 56192, Note_on_c, 1, 64, 127
1, 56333, Note_off_c, 1, 69, 0
1, 56333, Note_off_c, 1, 60, 0
1, 56336, Note_on_c, 1, 72, 127
1, 56336, Note_on_c, 1, 52, 127
1, 56477, Note_off_c, 1, 64, 0
1, 56477, Note_off_c, 1, 72, 0
1, 56477, Note_off_c, 1, 52, 0
1, 56480, Note_on_c, 1, 71, 127
1, 56480, Note_on_c, 1, 62, 127
1, 56480, Note_on_c, 1, 65, 127
1, 56621, Note_off_c, 1, 71, 0
1, 56621, Note_off_c, 1, 62, 0
1, 56624, Note_on_c, 1, 74, 127
1, 56624, Note_on_c, 1, 52, 127
1, 56765, Note_off_c, 1, 65, 0
1, 56765, Note_off_c, 1, 74, 0
1, 56765, Note_off_c, 1, 52, 0
1, 56768, Note_on_c, 1, 68, 127
1, 56768, Note_on_c, 1, 64, 127
1, 56912, Note_on_c, 1, 71, 127
1, 57056, Note_on_c, 1, 74, 127
1, 57056, Note_on_c, 1, 52, 127
1, 57197, Note_off_c, 1, 74, 0
1, 57200, Note_on_c, 1, 77, 127
1, 57332, Note_off_c, 1, 71, 0
1, 57341, Note_off_c, 1, 77, 0
1, 57488, Note_off_c, 1, 68, 0
1, 57626, Note_off_c, 1, 52, 0
1, 57917, Note_off_c, 1, 64, 0
1, 58208, Note_on_c, 1, 72, 127
1, 58349, Note_off_c, 1, 72, 0
1, 58496, Note_on_c, 1, 72, 127
1, 58496, Note_on_c, 1, 69, 127
1, 58640, Note_on_c, 1, 76, 127
1, 58781, Note_off_c, 1, 76, 0
1, 58784, Note_on_c, 1, 81, 127
1, 58916, Note_off_c, 1, 72, 0
1, 58925, Note_off_c, 1, 69, 0
1, 58928, Note_on_c, 1, 71, 127
1, 58928, Note_on_c, 1, 68, 127
1, 59069, Note_off_c, 1, 71, 0
1, 59069, Note_off_c, 1, 68, 0
1, 59216, Note_on_c, 1, 64, 127
1, 59354, Note_off_c, 1, 81, 0
1, 59360, Note_on_c, 1, 74, 127
1, 59360, Note_on_c, 1, 80, 127
1, 59501, Note_off_c, 1, 64, 0
1, 59645, Note_off_c, 1, 74, 0
1, 59645, Note_off_c, 1, 80, 0
1, 59792, Note_on_c, 1, 84, 127
1, 59933, Note_off_c, 1, 84, 0
1, 59936, Note_on_c, 1, 83, 127
1, 59936, Note_on_c, 1, 77, 127
1, 60077, Note_off_c, 1, 83, 0
1, 60221, Note_off_c, 1, 77, 0
1, 60368, Note_on_c, 1, 78, 127
1, 60509, Note_off_c, 1, 78, 0
1, 66848, Note_on_c, 1, 72, 127
1, 66848, Note_on_c, 1, 64, 127
1, 66992, Note_on_c, 1, 78, 127
1, 67028, Note_off_c, 1, 72, 0
1, 67133, Note_off_c, 1, 78, 0
1, 67136, Note_on_c, 1, 71, 127
1, 67136, Note_on_c, 1, 68, 127
1, 67193, Note_off_c, 1, 64, 0
1, 67277, Note_off_c, 1, 71, 0
1, 67280, Note_on_c, 1, 69, 127
1, 67421, Note_off_c, 1, 68, 0
1, 67421, Note_off_c, 1, 69, 0
1, 67424, Note_on_c, 1, 71, 127
1, 67424, Note_on_c, 1, 64, 127
1, 67568, Note_on_c, 1, 76, 127
1, 67604, Note_off_c, 1, 71, 0
1, 67709, Note_off_c, 1, 76, 0
1, 67712, Note_on_c, 1, 74, 127
1, 67853, Note_off_c, 1, 74, 0
1, 67997, Note_off_c, 1, 64, 0
1, 68000, Note_on_c, 1, 72, 127
1, 68000, Note_on_c, 1, 64, 127
1, 68141, Note_off_c, 1, 72, 0
1, 68141, Note_off_c, 1, 64, 0
1, 68144, Note_on_c, 1, 69, 127
1, 68144, Note_on_c, 1, 60, 127
1, 68285, Note_off_c, 1, 69, 0
1, 68285, Note_off_c, 1, 60, 0
1, 68288, Note_on_c, 1, 71, 127
1, 68288, Note_on_c, 1, 62, 127
1, 68429, Note_off_c, 1, 71, 0
1, 68429, Note_off_c, 1, 62, 0
1, 68432, Note_on_c, 1, 68, 127
1, 68432, Note_on_c, 1, 59, 127
1, 68573, Note_off_c, 1, 68, 0
1, 68573, Note_off_c, 1, 59, 0
1, 68576, Note_on_c, 1, 69, 127
1, 68576, Note_on_c, 1, 60, 127
1, 68717, Note_off_c, 1, 69, 0
1, 68717, Note_off_c, 1, 60, 0
1, 68720, Note_on_c, 1, 66, 127
1, 68720, Note_on_c, 1, 57, 127
1, 68861, Note_off_c, 1, 66, 0
1, 68861, Note_off_c, 1, 57, 0
1, 68864, Note_on_c, 1, 68, 127
1, 68864, Note_on_c, 1, 59, 127
1, 69005, Note_off_c, 1, 68, 0
1, 69005, Note_off_c, 1, 59, 0
1, 69008, Note_on_c, 1, 66, 127
1, 69008, Note_on_c, 1, 57, 127
1, 69149, Note_off_c, 1, 66, 0
1, 69149, Note_off_c, 1, 57, 0
1, 69152, Note_on_c, 1, 59, 127
1, 69152, Note_on_c, 1, 68, 127
1, 69293, Note_off_c, 1, 59, 0
1, 69296, Note_on_c, 1, 71, 127
1, 69296, Note_on_c, 1, 62, 127
1, 69392, Note_off_c, 1, 68, 0
1, 69437, Note_off_c, 1, 71, 0
1, 69437, Note_off_c, 1, 62, 0
1, 69440, Note_on_c, 1, 64, 127
1, 69440, Note_on_c, 1, 56, 127
1, 69581, Note_off_c, 1, 64, 0
1, 69581, Note_off_c, 1, 56, 0
1, 69584, Note_on_c, 1, 63, 127
1, 69584, Note_on_c, 1, 54, 127
1, 69725, Note_off_c, 1, 63, 0
1, 69725, Note_off_c, 1, 54, 0
1, 69728, Note_on_c, 1, 56, 127
1, 69728, Note_on_c, 1, 64, 127
1, 69869, Note_off_c, 1, 56, 0
1, 69872, Note_on_c, 1, 68, 127
1, 69872, Note_on_c, 1, 59, 127
1, 69968, Note_off_c, 1, 64, 0
1, 70013, Note_off_c, 1, 68, 0
1, 70013, Note_off_c, 1, 59, 0
1, 70016, Note_on_c, 1, 62, 127
1, 70016, Note_on_c, 1, 53, 127
1, 70157, Note_off_c, 1, 62, 0
1, 70157, Note_off_c, 1, 53, 0
1, 70160, Note_on_c, 1, 60, 127
1, 70160, Note_on_c, 1, 52, 127
1, 70301, Note_off_c, 1, 60, 0
1, 70301, Note_off_c, 1, 52, 0
1, 70304, Note_on_c, 1, 53, 127
1, 70304, Note_on_c, 1, 62, 127
1, 70445, Note_off_c, 1, 53, 0
1, 70448, Note_on_c, 1, 65, 127
1, 70448, Note_on_c, 1, 57, 127
1, 70544, Note_off_c, 1, 62, 0
1, 70589, Note_off_c, 1, 65, 0
1, 70589, Note_off_c, 1, 57, 0
1, 70592, Note_on_c, 1, 59, 127
1, 70592, Note_on_c, 1, 50, 127
1, 70733, Note_off_c, 1, 59, 0
1, 70733, Note_off_c, 1, 50, 0
1, 70736, Note_on_c, 1, 57, 127
1, 70736, Note_on_c, 1, 48, 127
1, 70877, Note_off_c, 1, 57, 0
1, 70877, Note_off_c, 1, 48, 0
1, 70880, Note_on_c, 1, 50, 127
1, 70880, Note_on_c, 1, 59, 127
1, 71021, Note_off_c, 1, 50, 0
1, 71024, Note_on_c, 1, 62, 127
1, 71024, Note_on_c, 1, 53, 127
1, 71060, Note_off_c, 1, 59, 0
1, 71165, Note_off_c, 1, 62, 0
1, 71165, Note_off_c, 1, 53, 0
1, 71168, Note_on_c, 1, 56, 127
1, 71168, Note_on_c, 1, 47, 127
1, 71309, Note_off_c, 1, 56, 0
1, 71309, Note_off_c, 1, 47, 0
1, 71312, Note_on_c, 1, 54, 127
1, 71312, Note_on_c, 1, 45, 127
1, 71453, Note_off_c, 1, 54, 0
1, 71453, Note_off_c, 1, 45, 0
1, 71456, Note_on_c, 1, 47, 127
1, 71456, Note_on_c, 1, 56, 127
1, 71597, Note_off_c, 1, 47, 0
1, 71600, Note_on_c, 1, 59, 127
1, 71600, Note_on_c, 1, 50, 127
1, 71636, Note_off_c, 1, 56, 0
1, 71741, Note_off_c, 1, 59, 0
1, 71741, Note_off_c, 1, 50, 0
1, 71744, Note_on_c, 1, 44, 127
1, 71744, Note_on_c, 1, 52, 127
1, 71885, Note_off_c, 1, 44, 0
1, 71888, Note_on_c, 1, 42, 127
1, 72029, Note_off_c, 1, 42, 0
1, 72176, Note_on_c, 1, 47, 127
1, 72314, Note_off_c, 1, 52, 0
1, 72317, Note_off_c, 1, 47, 0
1, 72320, Note_on_c, 1, 40, 127
1, 72464, Note_on_c, 1, 50, 127
1, 72605, Note_off_c, 1, 50, 0
1, 72608, Note_on_c, 1, 48, 127
1, 72749, Note_off_c, 1, 48, 0
1, 72752, Note_on_c, 1, 47, 127
1, 72893, Note_off_c, 1, 47, 0
1, 72896, Note_on_c, 1, 53, 127
1, 73181, Note_off_c, 1, 53, 0
1, 73472, Note_on_c, 1, 56, 127
1, 73757, Note_off_c, 1, 56, 0
1, 74045, Note_off_c, 1, 40, 0
1, 74048, Note_on_c, 1, 59, 127
1, 74048, Note_on_c, 1, 40, 127
1, 74192, Note_on_c, 1, 53, 127
1, 74333, Note_off_c, 1, 59, 0
1, 74333, Note_off_c, 1, 53, 0
1, 74336, Note_on_c, 1, 52, 127
1, 74477, Note_off_c, 1, 52, 0
1, 74480, Note_on_c, 1, 50, 127
1, 74621, Note_off_c, 1, 50, 0
1, 74624, Note_on_c, 1, 56, 127
1, 75044, Note_off_c, 1, 56, 0
1, 75773, Note_off_c, 1, 40, 0
1, 75776, Note_on_c, 1, 62, 127
1, 75776, Note_on_c, 1, 40, 127
1, 75920, Note_on_c, 1, 56, 127
1, 76061, Note_off_c, 1, 56, 0
1, 76064, Note_on_c, 1, 54, 127
1, 76205, Note_off_c, 1, 54, 0
1, 76208, Note_on_c, 1, 52, 127
1, 76226, Note_off_c, 1, 62, 0
1, 76349, Note_off_c, 1, 52, 0
1, 76352, Note_on_c, 1, 59, 127
1, 76847, Note_off_c, 1, 59, 0
1, 77216, Note_on_c, 1, 57, 127
1, 77357, Note_off_c, 1, 57, 0
1, 77504, Note_on_c, 1, 65, 127
1, 77645, Note_off_c, 1, 65, 0
1, 77648, Note_on_c, 1, 64, 127
1, 77789, Note_off_c, 1, 64, 0
1, 77931, Note_off_c, 1, 40, 0
1, 77936, Note_on_c, 1, 60, 127
1, 78077, Note_off_c, 1, 60, 0
1, 78080, Note_on_c, 1, 59, 127
1, 78221, Note_off_c, 1, 59, 0
1, 78224, Note_on_c, 1, 57, 127
1, 78365, Note_off_c, 1, 57, 0
1, 78368, Note_on_c, 1, 56, 127
1, 78509, Note_off_c, 1, 56, 0
1, 78512, Note_on_c, 1, 54, 127
1, 78653, Note_off_c, 1, 54, 0
1, 78656, Note_on_c, 1, 52, 127
1, 78797, Note_off_c, 1, 52, 0
1, 78800, Note_on_c, 1, 50, 127
1, 78941, Note_off_c, 1, 50, 0
1, 78944, Note_on_c, 1, 48, 127
1, 79085, Note_off_c, 1, 48, 0
1, 79088, Note_on_c, 1, 47, 127
1, 79229, Note_off_c, 1, 47, 0
1, 79232, Note_on_c, 1, 45, 127
1, 79520, Note_on_c, 1, 76, 127
1, 79805, Note_off_c, 1, 76, 0
1, 79808, Note_on_c, 1, 69, 127
1, 79952, Note_off_c, 1, 45, 0
1, 80093, Note_off_c, 1, 69, 0
1, 80096, Note_on_c, 1, 81, 127
1, 80096, Note_on_c, 1, 57, 127
1, 80096, Note_on_c, 1, 60, 127
1, 80381, Note_off_c, 1, 81, 0
1, 80381, Note_off_c, 1, 57, 0
1, 80381, Note_off_c, 1, 60, 0
1, 80384, Note_on_c, 1, 79, 127
1, 80384, Note_on_c, 1, 62, 127
1, 80384, Note_on_c, 1, 59, 127
1, 80525, Note_off_c, 1, 79, 0
1, 80528, Note_on_c, 1, 76, 127
1, 80669, Note_off_c, 1, 62, 0
1, 80669, Note_off_c, 1, 59, 0
1, 80669, Note_off_c, 1, 76, 0
1, 80672, Note_on_c, 1, 77, 127
1, 80672, Note_on_c, 1, 59, 127
1, 80672, Note_on_c, 1, 55, 127
1, 80813, Note_off_c, 1, 77, 0
1, 80816, Note_on_c, 1, 74, 127
1, 80957, Note_off_c, 1, 59, 0
1, 80957, Note_off_c, 1, 55, 0
1, 80957, Note_off_c, 1, 74, 0
1, 80960, Note_on_c, 1, 76, 127
1, 80960, Note_on_c, 1, 60, 127
1, 81104, Note_on_c, 1, 71, 127
1, 81240, Note_off_c, 1, 76, 0
1, 81245, Note_off_c, 1, 71, 0
1, 81248, Note_on_c, 1, 72, 127
1, 81248, Note_on_c, 1, 48, 127
1, 81389, Note_off_c, 1, 72, 0
1, 81392, Note_on_c, 1, 68, 127
1, 81530, Note_off_c, 1, 60, 0
1, 81533, Note_off_c, 1, 68, 0
1, 81536, Note_on_c, 1, 69, 127
1, 81668, Note_off_c, 1, 48, 0
1, 81677, Note_off_c, 1, 69, 0
1, 81680, Note_on_c, 1, 72, 127
1, 81821, Note_off_c, 1, 72, 0
1, 81824, Note_on_c, 1, 77, 127
1, 81824, Note_on_c, 1, 69, 127
1, 81824, Note_on_c, 1, 62, 127
1, 81965, Note_off_c, 1, 77, 0
1, 81968, Note_on_c, 1, 74, 127
1, 82109, Note_off_c, 1, 69, 0
1, 82109, Note_off_c, 1, 62, 0
1, 82109, Note_off_c, 1, 74, 0
1, 82112, Note_on_c, 1, 76, 127
1, 82112, Note_on_c, 1, 69, 127
1, 82112, Note_on_c, 1, 60, 127
1, 82253, Note_off_c, 1, 76, 0
1, 82256, Note_on_c, 1, 72, 127
1, 82397, Note_off_c, 1, 69, 0
1, 82397, Note_off_c, 1, 60, 0
1, 82397, Note_off_c, 1, 72, 0
1, 82400, Note_on_c, 1, 74, 127
1, 82400, Note_on_c, 1, 68, 127
1, 82400, Note_on_c, 1, 59, 127
1, 82541, Note_off_c, 1, 74, 0
1, 82544, Note_on_c, 1, 71, 127
1, 82685, Note_off_c, 1, 68, 0
1, 82685, Note_off_c, 1, 59, 0
1, 82685, Note_off_c, 1, 71, 0
1, 82688, Note_on_c, 1, 72, 127
1, 82688, Note_on_c, 1, 69, 127
1, 82688, Note_on_c, 1, 57, 127
1, 82829, Note_off_c, 1, 72, 0
1, 82832, Note_on_c, 1, 71, 127
1, 82973, Note_off_c, 1, 71, 0
1, 83120, Note_on_c, 1, 68, 127
1, 83258, Note_off_c, 1, 69, 0
1, 83261, Note_off_c, 1, 68, 0
1, 83408, Note_off_c, 1, 57, 0
1, 83552, Note_on_c, 1, 76, 127
1, 83552, Note_on_c, 1, 60, 127
1, 83552, Note_on_c, 1, 69, 127
1, 83693, Note_off_c, 1, 76, 0
1, 83696, Note_on_c, 1, 72, 127
1, 83837, Note_off_c, 1, 60, 0
1, 83837, Note_off_c, 1, 69, 0
1, 83837, Note_off_c, 1, 72, 0
1, 83840, Note_on_c, 1, 74, 127
1, 83840, Note_on_c, 1, 68, 127
1, 83840, Note_on_c, 1, 59, 127
1, 83981, Note_off_c, 1, 74, 0
1, 83984, Note_on_c, 1, 71, 127
1, 84125, Note_off_c, 1, 68, 0
1, 84125, Note_off_c, 1, 59, 0
1, 84125, Note_off_c, 1, 71, 0
1, 84128, Note_on_c, 1, 72, 127
1, 84128, Note_on_c, 1, 64, 127
1, 84128, Note_on_c, 1, 57, 127
1, 84269, Note_off_c, 1, 72, 0
1, 84272, Note_on_c, 1, 69, 127
1, 84413, Note_off_c, 1, 64, 0
1, 84413, Note_off_c, 1, 57, 0
1, 84413, Note_off_c, 1, 69, 0
1, 84416, Note_on_c, 1, 71, 127
1, 84416, Note_on_c, 1, 56, 127
1, 84416, Note_on_c, 1, 62, 127
1, 84557, Note_off_c, 1, 71, 0
1, 84560, Note_on_c, 1, 69, 127
1, 84701, Note_off_c, 1, 56, 0
1, 84701, Note_off_c, 1, 69, 0
1, 84704, Note_on_c, 1, 52, 127
1, 84848, Note_on_c, 1, 68, 127
1, 84986, Note_off_c, 1, 62, 0
1, 84989, Note_off_c, 1, 52, 0
1, 84989, Note_off_c, 1, 68, 0
1, 84992, Note_on_c, 1, 69, 127
1, 84992, Note_on_c, 1, 60, 127
1, 84992, Note_on_c, 1, 53, 127
1, 85133, Note_off_c, 1, 69, 0
1, 85136, Note_on_c, 1, 68, 127
1, 85277, Note_off_c, 1, 60, 0
1, 85277, Note_off_c, 1, 53, 0
1, 85277, Note_off_c, 1, 68, 0
1, 85280, Note_on_c, 1, 69, 127
1, 85280, Note_on_c, 1, 59, 127
1, 85280, Note_on_c, 1, 50, 127
1, 85280, Note_on_c, 1, 57, 127
1, 85421, Note_off_c, 1, 69, 0
1, 85424, Note_on_c, 1, 77, 127
1, 85565, Note_off_c, 1, 59, 0
1, 85565, Note_off_c, 1, 50, 0
1, 85565, Note_off_c, 1, 77, 0
1, 85568, Note_on_c, 1, 76, 127
1, 85568, Note_on_c, 1, 60, 127
1, 85568, Note_on_c, 1, 52, 127
1, 85709, Note_off_c, 1, 76, 0
1, 85712, Note_on_c, 1, 72, 127
1, 85850, Note_off_c, 1, 57, 0
1, 85853, Note_off_c, 1, 60, 0
1, 85853, Note_off_c, 1, 52, 0
1, 85853, Note_off_c, 1, 72, 0
1, 85856, Note_on_c, 1, 74, 127
1, 85856, Note_on_c, 1, 59, 127
1, 85856, Note_on_c, 1, 52, 127
1, 85856, Note_on_c, 1, 56, 127
1, 85997, Note_off_c, 1, 74, 0
1, 86000, Note_on_c, 1, 71, 127
1, 86141, Note_off_c, 1, 59, 0
1, 86141, Note_off_c, 1, 52, 0
1, 86141, Note_off_c, 1, 56, 0
1, 86141, Note_off_c, 1, 71, 0
1, 86144, Note_on_c, 1, 72, 127
1, 86144, Note_on_c, 1, 57, 127
1, 86285, Note_off_c, 1, 72, 0
1, 86288, Note_on_c, 1, 71, 127
1, 86429, Note_off_c, 1, 71, 0
1, 86432, Note_on_c, 1, 69, 127
1, 86432, Note_on_c, 1, 52, 127
1, 86573, Note_off_c, 1, 69, 0
1, 86576, Note_on_c, 1, 68, 127
1, 86717, Note_off_c, 1, 52, 0
1, 86717, Note_off_c, 1, 68, 0
1, 86720, Note_on_c, 1, 45, 127
1, 87005, Note_off_c, 1, 45, 0
1, 87006, Note_off_c, 1, 57, 0
1, 87008, Note_on_c, 1, 72, 127
1, 87008, Note_on_c, 1, 57, 127
1, 87149, Note_off_c, 1, 72, 0
1, 87152, Note_on_c, 1, 77, 127
1, 87293, Note_off_c, 1, 57, 0
1, 87293, Note_off_c, 1, 77, 0
1, 87296, Note_on_c, 1, 76, 127
1, 87296, Note_on_c, 1, 55, 127
1, 87437, Note_off_c, 1, 76, 0
1, 87437, Note_off_c, 1, 55, 0
1, 87440, Note_on_c, 1, 72, 127
1, 87440, Note_on_c, 1, 52, 127
1, 87581, Note_off_c, 1, 72, 0
1, 87581, Note_off_c, 1, 52, 0
1, 87584, Note_on_c, 1, 74, 127
1, 87584, Note_on_c, 1, 53, 127
1, 87725, Note_off_c, 1, 74, 0
1, 87725, Note_off_c, 1, 53, 0
1, 87728, Note_on_c, 1, 71, 127
1, 87728, Note_on_c, 1, 50, 127
1, 87869, Note_off_c, 1, 71, 0
1, 87869, Note_off_c, 1, 50, 0
1, 87872, Note_on_c, 1, 72, 127
1, 87872, Note_on_c, 1, 52, 127
1, 88013, Note_off_c, 1, 72, 0
1, 88013, Note_off_c, 1, 52, 0
1, 88016, Note_on_c, 1, 71, 127
1, 88016, Note_on_c, 1, 50, 127
1, 88157, Note_off_c, 1, 71, 0
1, 88157, Note_off_c, 1, 50, 0
1, 88160, Note_on_c, 1, 69, 127
1, 88160, Note_on_c, 1, 48, 127
1, 88301, Note_off_c, 1, 69, 0
1, 88301, Note_off_c, 1, 48, 0
1, 88304, Note_on_c, 1, 68, 127
1, 88304, Note_on_c, 1, 52, 127
1, 88445, Note_off_c, 1, 68, 0
1, 88445, Note_off_c, 1, 52, 0
1, 88448, Note_on_c, 1, 69, 127
1, 88448, Note_on_c, 1, 45, 127
1, 88589, Note_off_c, 1, 69, 0
1, 88589, Note_off_c, 1, 45, 0
1, 88592, Note_on_c, 1, 71, 127
1, 88592, Note_on_c, 1, 48, 127
1, 88733, Note_off_c, 1, 71, 0
1, 88733, Note_off_c, 1, 48, 0
1, 88736, Note_on_c, 1, 72, 127
1, 88736, Note_on_c, 1, 53, 127
1, 88877, Note_off_c, 1, 72, 0
1, 88877, Note_off_c, 1, 53, 0
1, 88880, Note_on_c, 1, 74, 127
1, 88880, Note_on_c, 1, 50, 127
1, 89021, Note_off_c, 1, 74, 0
1, 89021, Note_off_c, 1, 50, 0
1, 89024, Note_on_c, 1, 52, 127
1, 89024, Note_on_c, 1, 72, 127
1, 89165, Note_off_c, 1, 52, 0
1, 89168, Note_on_c, 1, 69, 127
1, 89168, Note_on_c, 1, 48, 127
1, 89234, Note_off_c, 1, 72, 0
1, 89309, Note_off_c, 1, 69, 0
1, 89309, Note_off_c, 1, 48, 0
1, 89312, Note_on_c, 1, 50, 127
1, 89312, Note_on_c, 1, 71, 127
1, 89453, Note_off_c, 1, 50, 0
1, 89456, Note_on_c, 1, 68, 127
1, 89456, Note_on_c, 1, 47, 127
1, 89522, Note_off_c, 1, 71, 0
1, 89597, Note_off_c, 1, 68, 0
1, 89597, Note_off_c, 1, 47, 0
1, 89600, Note_on_c, 1, 69, 127
1, 89600, Note_on_c, 1, 48, 127
1, 89741, Note_off_c, 1, 69, 0
1, 89741, Note_off_c, 1, 48, 0
1, 89744, Note_on_c, 1, 71, 127
1, 89744, Note_on_c, 1, 47, 127
1, 89885, Note_off_c, 1, 71, 0
1, 89885, Note_off_c, 1, 47, 0
1, 89888, Note_on_c, 1, 45, 127
1, 89888, Note_on_c, 1, 72, 127
1, 90029, Note_off_c, 1, 45, 0
1, 90032, Note_on_c, 1, 69, 127
1, 90032, Note_on_c, 1, 48, 127
1, 90098, Note_off_c, 1, 72, 0
1, 90173, Note_off_c, 1, 69, 0
1, 90173, Note_off_c, 1, 48, 0
1, 90176, Note_on_c, 1, 68, 127
1, 90176, Note_on_c, 1, 40, 127
1, 90317, Note_off_c, 1, 68, 0
1, 90317, Note_off_c, 1, 40, 0
1, 90320, Note_on_c, 1, 45, 127
1, 90320, Note_on_c, 1, 69, 127
1, 90461, Note_off_c, 1, 45, 0
1, 90464, Note_on_c, 1, 48, 127
1, 90464, Note_on_c, 1, 72, 127
1, 90530, Note_off_c, 1, 69, 0
1, 90605, Note_off_c, 1, 48, 0
1, 90674, Note_off_c, 1, 72, 0
1, 90752, Note_on_c, 1, 50, 127
1, 90752, Note_on_c, 1, 71, 127
1, 90893, Note_off_c, 1, 50, 0
1, 90896, Note_on_c, 1, 68, 127
1, 90896, Note_on_c, 1, 47, 127
1, 90962, Note_off_c, 1, 71, 0
1, 91037, Note_off_c, 1, 68, 0
1, 91037, Note_off_c, 1, 47, 0
1, 91040, Note_on_c, 1, 48, 127
1, 91040, Note_on_c, 1, 69, 127
1, 91181, Note_off_c, 1, 48, 0
1, 91184, Note_on_c, 1, 66, 127
1, 91184, Note_on_c, 1, 45, 127
1, 91250, Note_off_c, 1, 69, 0
1, 91325, Note_off_c, 1, 66, 0
1, 91325, Note_off_c, 1, 45, 0
1, 91328, Note_on_c, 1, 68, 127
1, 91328, Note_on_c, 1, 47, 127
1, 91469, Note_off_c, 1, 68, 0
1, 91469, Note_off_c, 1, 47, 0
1, 91472, Note_on_c, 1, 65, 127
1, 91472, Note_on_c, 1, 45, 127
1, 91613, Note_off_c, 1, 65, 0
1, 91613, Note_off_c, 1, 45, 0
1, 91616, Note_on_c, 1, 64, 127
1, 91616, Note_on_c, 1, 47, 127
1, 91757, Note_off_c, 1, 64, 0
1, 91757, Note_off_c, 1, 47, 0
1, 91760, Note_on_c, 1, 62, 127
1, 91760, Note_on_c, 1, 44, 127
1, 91901, Note_off_c, 1, 62, 0
1, 91901, Note_off_c, 1, 44, 0
1, 91904, Note_on_c, 1, 60, 127
1, 91904, Note_on_c, 1, 45, 127
1, 92045, Note_off_c, 1, 60, 0
1, 92048, Note_on_c, 1, 59, 127
1, 92189, Note_off_c, 1, 45, 0
1, 92189, Note_off_c, 1, 59, 0
1, 92192, Note_on_c, 1, 60, 127
1, 92192, Note_on_c, 1, 50, 127
1, 92336, Note_on_c, 1, 69, 127
1, 92477, Note_off_c, 1, 60, 0
1, 92477, Note_off_c, 1, 50, 0
1, 92480, Note_on_c, 1, 59, 127
1, 92480, Note_on_c, 1, 52, 127
1, 92621, Note_off_c, 1, 69, 0
1, 92765, Note_off_c, 1, 59, 0
1, 92768, Note_on_c, 1, 40, 127
1, 92900, Note_off_c, 1, 52, 0
1, 92912, Note_on_c, 1, 68, 127
1, 93053, Note_off_c, 1, 40, 0
1, 93053, Note_off_c, 1, 68, 0
1, 93056, Note_on_c, 1, 69, 127
1, 93056, Note_on_c, 1, 45, 127
1, 93341, Note_off_c, 1, 69, 0
1, 93344, Note_on_c, 1, 64, 127
1, 93344, Note_on_c, 1, 60, 127
1, 93629, Note_off_c, 1, 64, 0
1, 93629, Note_off_c, 1, 60, 0
1, 93773, Note_off_c, 1, 45, 0
1, 93776, Note_on_c, 1, 65, 127
1, 93776, Note_on_c, 1, 45, 127
1, 93917, Note_off_c, 1, 65, 0
1, 93917, Note_off_c, 1, 45, 0
1, 93920, Note_on_c, 1, 48, 127
1, 93920, Note_on_c, 1, 60, 127
1, 93920, Note_on_c, 1, 64, 127
1, 94061, Note_off_c, 1, 48, 0
1, 94064, Note_on_c, 1, 52, 127
1, 94205, Note_off_c, 1, 60, 0
1, 94205, Note_off_c, 1, 64, 0
1, 94205, Note_off_c, 1, 52, 0
1, 94208, Note_on_c, 1, 57, 127
1, 94208, Note_on_c, 1, 60, 127
1, 94208, Note_on_c, 1, 64, 127
1, 94349, Note_off_c, 1, 57, 0
1, 94352, Note_on_c, 1, 55, 127
1, 94493, Note_off_c, 1, 60, 0
1, 94493, Note_off_c, 1, 64, 0
1, 94493, Note_off_c, 1, 55, 0
1, 94496, Note_on_c, 1, 53, 127
1, 94496, Note_on_c, 1, 64, 127
1, 94496, Note_on_c, 1, 60, 127
1, 94637, Note_off_c, 1, 53, 0
1, 94640, Note_on_c, 1, 52, 127
1, 94781, Note_off_c, 1, 64, 0
1, 94781, Note_off_c, 1, 60, 0
1, 94781, Note_off_c, 1, 52, 0
1, 94784, Note_on_c, 1, 64, 127
1, 94784, Note_on_c, 1, 60, 127
1, 94784, Note_on_c, 1, 50, 127
1, 94925, Note_off_c, 1, 64, 0
1, 94925, Note_off_c, 1, 60, 0
1, 94928, Note_on_c, 1, 65, 127
1, 95069, Note_off_c, 1, 65, 0
1, 95072, Note_on_c, 1, 59, 127
1, 95072, Note_on_c, 1, 62, 127
1, 95354, Note_off_c, 1, 50, 0
1, 95357, Note_off_c, 1, 59, 0
1, 95357, Note_off_c, 1, 62, 0
1, 95360, Note_on_c, 1, 59, 127
1, 95360, Note_on_c, 1, 62, 127
1, 95501, Note_off_c, 1, 59, 0
1, 95501, Note_off_c, 1, 62, 0
1, 95504, Note_on_c, 1, 64, 127
1, 95504, Note_on_c, 1, 43, 127
1, 95645, Note_off_c, 1, 64, 0
1, 95645, Note_off_c, 1, 43, 0
1, 95648, Note_on_c, 1, 47, 127
1, 95648, Note_on_c, 1, 62, 127
1, 95648, Note_on_c, 1, 59, 127
1, 95789, Note_off_c, 1, 47, 0
1, 95792, Note_on_c, 1, 50, 127
1, 95933, Note_off_c, 1, 62, 0
1, 95933, Note_off_c, 1, 59, 0
1, 95933, Note_off_c, 1, 50, 0
1, 95936, Note_on_c, 1, 55, 127
1, 95936, Note_on_c, 1, 62, 127
1, 95936, Note_on_c, 1, 59, 127
1, 96077, Note_off_c, 1, 55, 0
1, 96080, Note_on_c, 1, 53, 127
1, 96221, Note_off_c, 1, 62, 0
1, 96221, Note_off_c, 1, 59, 0
1, 96221, Note_off_c, 1, 53, 0
1, 96224, Note_on_c, 1, 52, 127
1, 96224, Note_on_c, 1, 62, 127
1, 96224, Note_on_c, 1, 59, 127
1, 96365, Note_off_c, 1, 52, 0
1, 96368, Note_on_c, 1, 50, 127
1, 96509, Note_off_c, 1, 62, 0
1, 96509, Note_off_c, 1, 59, 0
1, 96509, Note_off_c, 1, 50, 0
1, 96512, Note_on_c, 1, 62, 127
1, 96512, Note_on_c, 1, 60, 127
1, 96512, Note_on_c, 1, 48, 127
1, 96653, Note_off_c, 1, 62, 0
1, 96653, Note_off_c, 1, 60, 0
1, 96656, Note_on_c, 1, 64, 127
1, 96797, Note_off_c, 1, 64, 0
1, 96800, Note_on_c, 1, 67, 127
1, 97085, Note_off_c, 1, 67, 0
1, 97229, Note_off_c, 1, 48, 0
1, 97232, Note_on_c, 1, 69, 127
1, 97232, Note_on_c, 1, 48, 127
1, 97373, Note_off_c, 1, 69, 0
1, 97373, Note_off_c, 1, 48, 0
1, 97376, Note_on_c, 1, 52, 127
1, 97376, Note_on_c, 1, 67, 127
1, 97376, Note_on_c, 1, 64, 127
1, 97517, Note_off_c, 1, 52, 0
1, 97520, Note_on_c, 1, 55, 127
1, 97661, Note_off_c, 1, 67, 0
1, 97661, Note_off_c, 1, 64, 0
1, 97661, Note_off_c, 1, 55, 0
1, 97664, Note_on_c, 1, 60, 127
1, 97664, Note_on_c, 1, 67, 127
1, 97664, Note_on_c, 1, 64, 127
1, 97805, Note_off_c, 1, 60, 0
1, 97808, Note_on_c, 1, 59, 127
1, 97949, Note_off_c, 1, 67, 0
1, 97949, Note_off_c, 1, 64, 0
1, 97949, Note_off_c, 1, 59, 0
1, 97952, Note_on_c, 1, 57, 127
1, 97952, Note_on_c, 1, 64, 127
1, 97952, Note_on_c, 1, 67, 127
1, 98093, Note_off_c, 1, 57, 0
1, 98096, Note_on_c, 1, 55, 127
1, 98237, Note_off_c, 1, 64, 0
1, 98237, Note_off_c, 1, 67, 0
1, 98237, Note_off_c, 1, 55, 0
1, 98240, Note_on_c, 1, 64, 127
1, 98240, Note_on_c, 1, 67, 127
1, 98240, Note_on_c, 1, 54, 127
1, 98381, Note_off_c, 1, 64, 0
1, 98381, Note_off_c, 1, 67, 0
1, 98384, Note_on_c, 1, 69, 127
1, 98525, Note_off_c, 1, 69, 0
1, 98528, Note_on_c, 1, 63, 127
1, 98528, Note_on_c, 1, 66, 127
1, 98810, Note_off_c, 1, 54, 0
1, 98813, Note_off_c, 1, 63, 0
1, 98813, Note_off_c, 1, 66, 0
1, 98816, Note_on_c, 1, 63, 127
1, 98816, Note_on_c, 1, 66, 127
1, 98957, Note_off_c, 1, 63, 0
1, 98957, Note_off_c, 1, 66, 0
1, 98960, Note_on_c, 1, 67, 127
1, 98960, Note_on_c, 1, 47, 127
1, 99101, Note_off_c, 1, 67, 0
1, 99101, Note_off_c, 1, 47, 0
1, 99104, Note_on_c, 1, 51, 127
1, 99104, Note_on_c, 1, 63, 127
1, 99104, Note_on_c, 1, 66, 127
1, 99245, Note_off_c, 1, 51, 0
1, 99248, Note_on_c, 1, 54, 127
1, 99389, Note_off_c, 1, 63, 0
1, 99389, Note_off_c, 1, 66, 0
1, 99389, Note_off_c, 1, 54, 0
1, 99392, Note_on_c, 1, 59, 127
1, 99392, Note_on_c, 1, 63, 127
1, 99392, Note_on_c, 1, 66, 127
1, 99533, Note_off_c, 1, 59, 0
1, 99536, Note_on_c, 1, 57, 127
1, 99677, Note_off_c, 1, 63, 0
1, 99677, Note_off_c, 1, 66, 0
1, 99677, Note_off_c, 1, 57, 0
1, 99680, Note_on_c, 1, 55, 127
1, 99680, Note_on_c, 1, 63, 127
1, 99680, Note_on_c, 1, 66, 127
1, 99821, Note_off_c, 1, 55, 0
1, 99824, Note_on_c, 1, 54, 127
1, 99965, Note_off_c, 1, 63, 0
1, 99965, Note_off_c, 1, 66, 0
1, 99965, Note_off_c, 1, 54, 0
1, 99968, Note_on_c, 1, 66, 127
1, 99968, Note_on_c, 1, 52, 127
1, 99968, Note_on_c, 1, 64, 127
1, 100109, Note_off_c, 1, 66, 0
1, 100109, Note_off_c, 1, 52, 0
1, 100112, Note_on_c, 1, 67, 127
1, 100112, Note_on_c, 1, 51, 127
1, 100253, Note_off_c, 1, 67, 0
1, 100253, Note_off_c, 1, 51, 0
1, 100256, Note_on_c, 1, 71, 127
1, 100400, Note_on_c, 1, 54, 127
1, 100538, Note_off_c, 1, 64, 0
1, 100541, Note_off_c, 1, 71, 0
1, 100541, Note_off_c, 1, 54, 0
1, 100544, Note_on_c, 1, 55, 127
1, 100544, Note_on_c, 1, 64, 127
1, 100685, Note_off_c, 1, 55, 0
1, 100688, Note_on_c, 1, 54, 127
1, 100829, Note_off_c, 1, 54, 0
1, 100832, Note_on_c, 1, 76, 127
1, 100976, Note_on_c, 1, 57, 127
1, 101114, Note_off_c, 1, 64, 0
1, 101117, Note_off_c, 1, 76, 0
1, 101117, Note_off_c, 1, 57, 0
1, 101120, Note_on_c, 1, 74, 127
1, 101120, Note_on_c, 1, 59, 127
1, 101261, Note_off_c, 1, 74, 0
1, 101261, Note_off_c, 1, 59, 0
1, 101264, Note_on_c, 1, 71, 127
1, 101264, Note_on_c, 1, 55, 127
1, 101405, Note_off_c, 1, 71, 0
1, 101405, Note_off_c, 1, 55, 0
1, 101408, Note_on_c, 1, 72, 127
1, 101408, Note_on_c, 1, 57, 127
1, 101549, Note_off_c, 1, 72, 0
1, 101549, Note_off_c, 1, 57, 0
1, 101552, Note_on_c, 1, 69, 127
1, 101552, Note_on_c, 1, 54, 127
1, 101693, Note_off_c, 1, 69, 0
1, 101693, Note_off_c, 1, 54, 0
1, 101696, Note_on_c, 1, 71, 127
1, 101696, Note_on_c, 1, 55, 127
1, 101837, Note_off_c, 1, 71, 0
1, 101840, Note_on_c, 1, 69, 127
1, 101981, Note_off_c, 1, 55, 0
1, 101981, Note_off_c, 1, 69, 0
1, 101984, Note_on_c, 1, 67, 127
1, 101984, Note_on_c, 1, 59, 127
1, 102125, Note_off_c, 1, 67, 0
1, 102128, Note_on_c, 1, 66, 127
1, 102269, Note_off_c, 1, 59, 0
1, 102269, Note_off_c, 1, 66, 0
1, 102272, Note_on_c, 1, 67, 127
1, 102272, Note_on_c, 1, 52, 127
1, 102413, Note_off_c, 1, 67, 0
1, 102416, Note_on_c, 1, 66, 127
1, 102557, Note_off_c, 1, 52, 0
1, 102557, Note_off_c, 1, 66, 0
1, 102560, Note_on_c, 1, 67, 127
1, 102560, Note_on_c, 1, 64, 127
1, 102704, Note_on_c, 1, 72, 127
1, 102740, Note_off_c, 1, 67, 0
1, 102845, Note_off_c, 1, 64, 0
1, 102845, Note_off_c, 1, 72, 0
1, 102848, Note_on_c, 1, 62, 127
1, 102848, Note_on_c, 1, 66, 127
1, 102989, Note_off_c, 1, 62, 0
1, 102992, Note_on_c, 1, 71, 127
1, 102992, Note_on_c, 1, 59, 127
1, 103028, Note_off_c, 1, 66, 0
1, 103133, Note_off_c, 1, 71, 0
1, 103133, Note_off_c, 1, 59, 0
1, 103136, Note_on_c, 1, 60, 127
1, 103136, Note_on_c, 1, 64, 127
1, 103277, Note_off_c, 1, 60, 0
1, 103280, Note_on_c, 1, 69, 127
1, 103280, Note_on_c, 1, 57, 127
1, 103296, Note_off_c, 1, 64, 0
1, 103421, Note_off_c, 1, 69, 0
1, 103421, Note_off_c, 1, 57, 0
1, 103424, Note_on_c, 1, 63, 127
1, 103424, Note_on_c, 1, 59, 127
1, 103565, Note_off_c, 1, 63, 0
1, 103568, Note_on_c, 1, 69, 127
1, 103709, Note_off_c, 1, 59, 0
1, 103709, Note_off_c, 1, 69, 0
1, 103712, Note_on_c, 1, 66, 127
1, 103712, Note_on_c, 1, 47, 127
1, 103853, Note_off_c, 1, 66, 0
1, 103856, Note_on_c, 1, 63, 127
1, 103997, Note_off_c, 1, 47, 0
1, 103997, Note_off_c, 1, 63, 0
1, 104000, Note_on_c, 1, 69, 127
1, 104000, Note_on_c, 1, 51, 127
1, 104141, Note_off_c, 1, 69, 0
1, 104144, Note_on_c, 1, 66, 127
1, 104285, Note_off_c, 1, 51, 0
1, 104285, Note_off_c, 1, 66, 0
1, 104288, Note_on_c, 1, 63, 127
1, 104288, Note_on_c, 1, 54, 127
1, 104429, Note_off_c, 1, 63, 0
1, 104432, Note_on_c, 1, 66, 127
1, 104573, Note_off_c, 1, 54, 0
1, 104573, Note_off_c, 1, 66, 0
1, 104576, Note_on_c, 1, 59, 127
1, 104576, Note_on_c, 1, 51, 127
1, 104717, Note_off_c, 1, 59, 0
1, 104720, Note_on_c, 1, 69, 127
1, 104861, Note_off_c, 1, 51, 0
1, 104861, Note_off_c, 1, 69, 0
1, 104864, Note_on_c, 1, 67, 127
1, 104864, Note_on_c, 1, 47, 127
1, 105005, Note_off_c, 1, 67, 0
1, 105008, Note_on_c, 1, 66, 127
1, 105149, Note_off_c, 1, 47, 0
1, 105149, Note_off_c, 1, 66, 0
1, 105152, Note_on_c, 1, 67, 127
1, 105152, Note_on_c, 1, 52, 127
1, 105437, Note_off_c, 1, 67, 0
1, 105437, Note_off_c, 1, 52, 0
1, 105440, Note_on_c, 1, 55, 127
1, 105440, Note_on_c, 1, 59, 127
1, 105440, Note_on_c, 1, 40, 127
1, 105725, Note_off_c, 1, 55, 0
1, 105725, Note_off_c, 1, 59, 0
1, 105869, Note_off_c, 1, 40, 0
1, 105872, Note_on_c, 1, 60, 127
1, 105872, Note_on_c, 1, 40, 127
1, 106013, Note_off_c, 1, 60, 0
1, 106013, Note_off_c, 1, 40, 0
1, 106016, Note_on_c, 1, 43, 127
1, 106016, Note_on_c, 1, 59, 127
1, 106016, Note_on_c, 1, 55, 127
1, 106157, Note_off_c, 1, 43, 0
1, 106160, Note_on_c, 1, 47, 127
1, 106301, Note_off_c, 1, 59, 0
1, 106301, Note_off_c, 1, 55, 0
1, 106301, Note_off_c, 1, 47, 0
1, 106304, Note_on_c, 1, 52, 127
1, 106304, Note_on_c, 1, 59, 127
1, 106304, Note_on_c, 1, 55, 127
1, 106445, Note_off_c, 1, 52, 0
1, 106448, Note_on_c, 1, 50, 127
1, 106589, Note_off_c, 1, 59, 0
1, 106589, Note_off_c, 1, 55, 0
1, 106589, Note_off_c, 1, 50, 0
1, 106592, Note_on_c, 1, 48, 127
1, 106592, Note_on_c, 1, 59, 127
1, 106592, Note_on_c, 1, 55, 127
1, 106733, Note_off_c, 1, 48, 0
1, 106736, Note_on_c, 1, 47, 127
1, 106877, Note_off_c, 1, 59, 0
1, 106877, Note_off_c, 1, 55, 0
1, 106877, Note_off_c, 1, 47, 0
1, 106880, Note_on_c, 1, 59, 127
1, 106880, Note_on_c, 1, 55, 127
1, 106880, Note_on_c, 1, 45, 127
1, 107021, Note_off_c, 1, 59, 0
1, 107021, Note_off_c, 1, 55, 0
1, 107024, Note_on_c, 1, 60, 127
1, 107165, Note_off_c, 1, 60, 0
1, 107168, Note_on_c, 1, 54, 127
1, 107168, Note_on_c, 1, 57, 127
1, 107450, Note_off_c, 1, 45, 0
1, 107453, Note_off_c, 1, 54, 0
1, 107453, Note_off_c, 1, 57, 0
1, 107456, Note_on_c, 1, 54, 127
1, 107456, Note_on_c, 1, 57, 127
1, 107597, Note_off_c, 1, 54, 0
1, 107597, Note_off_c, 1, 57, 0
1, 107600, Note_on_c, 1, 59, 127
1, 107600, Note_on_c, 1, 38, 127
1, 107741, Note_off_c, 1, 59, 0
1, 107741, Note_off_c, 1, 38, 0
1, 107744, Note_on_c, 1, 42, 127
1, 107744, Note_on_c, 1, 57, 127
1, 107744, Note_on_c, 1, 54, 127
1, 107885, Note_off_c, 1, 42, 0
1, 107888, Note_on_c, 1, 45, 127
1, 108029, Note_off_c, 1, 57, 0
1, 108029, Note_off_c, 1, 54, 0
1, 108029, Note_off_c, 1, 45, 0
1, 108032, Note_on_c, 1, 50, 127
1, 108032, Note_on_c, 1, 54, 127
1, 108032, Note_on_c, 1, 57, 127
1, 108173, Note_off_c, 1, 50, 0
1, 108176, Note_on_c, 1, 48, 127
1, 108317, Note_off_c, 1, 54, 0
1, 108317, Note_off_c, 1, 57, 0
1, 108317, Note_off_c, 1, 48, 0
1, 108320, Note_on_c, 1, 47, 127
1, 108320, Note_on_c, 1, 57, 127
1, 108320, Note_on_c, 1, 54, 127
1, 108461, Note_off_c, 1, 47, 0
1, 108464, Note_on_c, 1, 45, 127
1, 108605, Note_off_c, 1, 57, 0
1, 108605, Note_off_c, 1, 54, 0
1, 108605, Note_off_c, 1, 45, 0
1, 108608, Note_on_c, 1, 57, 127
1, 108608, Note_on_c, 1, 55, 127
1, 108608, Note_on_c, 1, 43, 127
1, 108749, Note_off_c, 1, 57, 0
1, 108749, Note_off_c, 1, 55, 0
1, 108752, Note_on_c, 1, 59, 127
1, 108893, Note_off_c, 1, 59, 0
1, 108896, Note_on_c, 1, 62, 127
1, 109181, Note_off_c, 1, 62, 0
1, 109325, Note_off_c, 1, 43, 0
1, 109328, Note_on_c, 1, 64, 127
1, 109328, Note_on_c, 1, 43, 127
1, 109469, Note_off_c, 1, 64, 0
1, 109469, Note_off_c, 1, 43, 0
1, 109472, Note_on_c, 1, 47, 127
1, 109472, Note_on_c, 1, 59, 127
1, 109472, Note_on_c, 1, 62, 127
1, 109613, Note_off_c, 1, 47, 0
1, 109616, Note_on_c, 1, 50, 127
1, 109757, Note_off_c, 1, 59, 0
1, 109757, Note_off_c, 1, 62, 0
1, 109757, Note_off_c, 1, 50, 0
1, 109760, Note_on_c, 1, 55, 127
1, 109760, Note_on_c, 1, 62, 127
1, 109760, Note_on_c, 1, 59, 127
1, 109901, Note_off_c, 1, 55, 0
1, 109904, Note_on_c, 1, 54, 127
1, 110045, Note_off_c, 1, 62, 0
1, 110045, Note_off_c, 1, 59, 0
1, 110045, Note_off_c, 1, 54, 0
1, 110048, Note_on_c, 1, 52, 127
1, 110048, Note_on_c, 1, 62, 127
1, 110048, Note_on_c, 1, 59, 127
1, 110189, Note_off_c, 1, 52, 0
1, 110192, Note_on_c, 1, 50, 127
1, 110333, Note_off_c, 1, 62, 0
1, 110333, Note_off_c, 1, 59, 0
1, 110333, Note_off_c, 1, 50, 0
1, 110336, Note_on_c, 1, 59, 127
1, 110336, Note_on_c, 1, 62, 127
1, 110336, Note_on_c, 1, 49, 127
1, 110477, Note_off_c, 1, 59, 0
1, 110477, Note_off_c, 1, 62, 0
1, 110480, Note_on_c, 1, 64, 127
1, 110621, Note_off_c, 1, 64, 0
1, 110624, Note_on_c, 1, 58, 127
1, 110624, Note_on_c, 1, 61, 127
1, 110906, Note_off_c, 1, 49, 0
1, 110909, Note_off_c, 1, 58, 0
1, 110909, Note_off_c, 1, 61, 0
1, 110912, Note_on_c, 1, 58, 127
1, 110912, Note_on_c, 1, 61, 127
1, 111053, Note_off_c, 1, 58, 0
1, 111053, Note_off_c, 1, 61, 0
1, 111056, Note_on_c, 1, 62, 127
1, 111056, Note_on_c, 1, 42, 127
1, 111197, Note_off_c, 1, 62, 0
1, 111197, Note_off_c, 1, 42, 0
1, 111200, Note_on_c, 1, 46, 127
1, 111200, Note_on_c, 1, 58, 127
1, 111200, Note_on_c, 1, 61, 127
1, 111341, Note_off_c, 1, 46, 0
1, 111344, Note_on_c, 1, 49, 127
1, 111485, Note_off_c, 1, 58, 0
1, 111485, Note_off_c, 1, 61, 0
1, 111485, Note_off_c, 1, 49, 0
1, 111488, Note_on_c, 1, 54, 127
1, 111488, Note_on_c, 1, 61, 127
1, 111488, Note_on_c, 1, 58, 127
1, 111629, Note_off_c, 1, 54, 0
1, 111632, Note_on_c, 1, 52, 127
1, 111773, Note_off_c, 1, 61, 0
1, 111773, Note_off_c, 1, 58, 0
1, 111773, Note_off_c, 1, 52, 0
1, 111776, Note_on_c, 1, 50, 127
1, 111776, Note_on_c, 1, 61, 127
1, 111776, Note_on_c, 1, 58, 127
1, 111917, Note_off_c, 1, 50, 0
1, 111920, Note_on_c, 1, 49, 127
1, 112061, Note_off_c, 1, 61, 0
1, 112061, Note_off_c, 1, 58, 0
1, 112061, Note_off_c, 1, 49, 0
1, 112064, Note_on_c, 1, 62, 127
1, 112064, Note_on_c, 1, 59, 127
1, 112064, Note_on_c, 1, 47, 127
1, 112205, Note_off_c, 1, 62, 0
1, 112205, Note_off_c, 1, 59, 0
1, 112496, Note_on_c, 1, 66, 127
1, 112637, Note_off_c, 1, 66, 0
1, 112640, Note_on_c, 1, 71, 127
1, 112724, Note_off_c, 1, 47, 0
1, 112781, Note_off_c, 1, 71, 0
1, 112784, Note_on_c, 1, 62, 127
1, 112784, Note_on_c, 1, 47, 127
1, 112925, Note_off_c, 1, 62, 0
1, 112925, Note_off_c, 1, 47, 0
1, 112928, Note_on_c, 1, 66, 127
1, 112928, Note_on_c, 1, 50, 127
1, 113069, Note_off_c, 1, 66, 0
1, 113069, Note_off_c, 1, 50, 0
1, 113072, Note_on_c, 1, 71, 127
1, 113072, Note_on_c, 1, 54, 127
1, 113213, Note_off_c, 1, 71, 0
1, 113213, Note_off_c, 1, 54, 0
1, 113216, Note_on_c, 1, 59, 127
1, 113216, Note_on_c, 1, 74, 127
1, 113357, Note_off_c, 1, 59, 0
1, 113360, Note_on_c, 1, 57, 127
1, 113501, Note_off_c, 1, 74, 0
1, 113501, Note_off_c, 1, 57, 0
1, 113504, Note_on_c, 1, 56, 127
1, 113504, Note_on_c, 1, 74, 127
1, 113504, Note_on_c, 1, 71, 127
1, 113504, Note_on_c, 1, 66, 127
1, 113645, Note_off_c, 1, 56, 0
1, 113648, Note_on_c, 1, 54, 127
1, 113789, Note_off_c, 1, 74, 0
1, 113789, Note_off_c, 1, 71, 0
1, 113789, Note_off_c, 1, 66, 0
1, 113789, Note_off_c, 1, 54, 0
1, 113792, Note_on_c, 1, 68, 127
1, 113792, Note_on_c, 1, 52, 127
1, 113792, Note_on_c, 1, 71, 127
1, 113792, Note_on_c, 1, 74, 127
1, 113936, Note_on_c, 1, 64, 127
1, 114077, Note_off_c, 1, 68, 0
1, 114077, Note_off_c, 1, 52, 0
1, 114077, Note_off_c, 1, 64, 0
1, 114080, Note_on_c, 1, 40, 127
1, 114212, Note_off_c, 1, 71, 0
1, 114362, Note_off_c, 1, 74, 0
1, 114365, Note_off_c, 1, 40, 0
1, 114368, Note_on_c, 1, 74, 127
1, 114368, Note_on_c, 1, 44, 127
1, 114509, Note_off_c, 1, 74, 0
1, 114512, Note_on_c, 1, 71, 127
1, 114653, Note_off_c, 1, 44, 0
1, 114653, Note_off_c, 1, 71, 0
1, 114656, Note_on_c, 1, 68, 127
1, 114656, Note_on_c, 1, 47, 127
1, 114797, Note_off_c, 1, 68, 0
1, 114800, Note_on_c, 1, 71, 127
1, 114941, Note_off_c, 1, 47, 0
1, 114941, Note_off_c, 1, 71, 0
1, 114944, Note_on_c, 1, 64, 127
1, 114944, Note_on_c, 1, 44, 127
1, 115088, Note_on_c, 1, 74, 127
1, 115229, Note_off_c, 1, 64, 0
1, 115229, Note_off_c, 1, 44, 0
1, 115229, Note_off_c, 1, 74, 0
1, 115232, Note_on_c, 1, 72, 127
1, 115232, Note_on_c, 1, 40, 127
1, 115373, Note_off_c, 1, 72, 0
1, 115376, Note_on_c, 1, 71, 127
1, 115517, Note_off_c, 1, 40, 0
1, 115517, Note_off_c, 1, 71, 0
1, 115520, Note_on_c, 1, 72, 127
1, 115520, Note_on_c, 1, 45, 127
1, 115647, Note_off_c, 1, 72, 0
1, 115664, Note_on_c, 1, 57, 127
1, 115805, Note_off_c, 1, 57, 0
1, 115808, Note_on_c, 1, 60, 127
1, 115949, Note_off_c, 1, 60, 0
1, 115952, Note_on_c, 1, 64, 127
1, 116093, Note_off_c, 1, 64, 0
1, 116096, Note_on_c, 1, 69, 127
1, 116237, Note_off_c, 1, 45, 0
1, 116237, Note_off_c, 1, 69, 0
1, 116240, Note_on_c, 1, 60, 127
1, 116240, Note_on_c, 1, 45, 127
1, 116381, Note_off_c, 1, 60, 0
1, 116381, Note_off_c, 1, 45, 0
1, 116384, Note_on_c, 1, 64, 127
1, 116384, Note_on_c, 1, 48, 127
1, 116525, Note_off_c, 1, 64, 0
1, 116525, Note_off_c, 1, 48, 0
1, 116528, Note_on_c, 1, 69, 127
1, 116528, Note_on_c, 1, 52, 127
1, 116669, Note_off_c, 1, 69, 0
1, 116669, Note_off_c, 1, 52, 0
1, 116672, Note_on_c, 1, 57, 127
1, 116672, Note_on_c, 1, 72, 127
1, 116813, Note_off_c, 1, 57, 0
1, 116816, Note_on_c, 1, 55, 127
1, 116957, Note_off_c, 1, 72, 0
1, 116957, Note_off_c, 1, 55, 0
1, 116960, Note_on_c, 1, 54, 127
1, 116960, Note_on_c, 1, 69, 127
1, 116960, Note_on_c, 1, 72, 127
1, 116960, Note_on_c, 1, 64, 127
1, 117101, Note_off_c, 1, 54, 0
1, 117104, Note_on_c, 1, 52, 127
1, 117245, Note_off_c, 1, 69, 0
1, 117245, Note_off_c, 1, 72, 0
1, 117245, Note_off_c, 1, 64, 0
1, 117245, Note_off_c, 1, 52, 0
1, 117248, Note_on_c, 1, 66, 127
1, 117248, Note_on_c, 1, 50, 127
1, 117248, Note_on_c, 1, 69, 127
1, 117248, Note_on_c, 1, 72, 127
1, 117392, Note_on_c, 1, 62, 127
1, 117533, Note_off_c, 1, 66, 0
1, 117533, Note_off_c, 1, 50, 0
1, 117533, Note_off_c, 1, 62, 0
1, 117536, Note_on_c, 1, 38, 127
1, 117668, Note_off_c, 1, 69, 0
1, 117818, Note_off_c, 1, 72, 0
1, 117821, Note_off_c, 1, 38, 0
1, 117824, Note_on_c, 1, 72, 127
1, 117824, Note_on_c, 1, 42, 127
1, 117965, Note_off_c, 1, 72, 0
1, 117968, Note_on_c, 1, 69, 127
1, 118109, Note_off_c, 1, 42, 0
1, 118109, Note_off_c, 1, 69, 0
1, 118112, Note_on_c, 1, 66, 127
1, 118112, Note_on_c, 1, 45, 127
1, 118253, Note_off_c, 1, 66, 0
1, 118256, Note_on_c, 1, 69, 127
1, 118397, Note_off_c, 1, 45, 0
1, 118397, Note_off_c, 1, 69, 0
1, 118400, Note_on_c, 1, 62, 127
1, 118400, Note_on_c, 1, 42, 127
1, 118544, Note_on_c, 1, 72, 127
1, 118685, Note_off_c, 1, 62, 0
1, 118685, Note_off_c, 1, 42, 0
1, 118685, Note_off_c, 1, 72, 0
1, 118688, Note_on_c, 1, 71, 127
1, 118688, Note_on_c, 1, 38, 127
1, 118829, Note_off_c, 1, 71, 0
1, 118832, Note_on_c, 1, 69, 127
1, 118973, Note_off_c, 1, 38, 0
1, 118973, Note_off_c, 1, 69, 0
1, 118976, Note_on_c, 1, 43, 127
1, 118976, Note_on_c, 1, 71, 127
1, 119120, Note_on_c, 1, 66, 127
1, 119261, Note_off_c, 1, 43, 0
1, 119261, Note_off_c, 1, 66, 0
1, 119264, Note_on_c, 1, 67, 127
1, 119264, Note_on_c, 1, 55, 127
1, 119396, Note_off_c, 1, 71, 0
1, 119405, Note_off_c, 1, 67, 0
1, 119549, Note_off_c, 1, 55, 0
1, 119552, Note_on_c, 1, 62, 127
1, 119693, Note_off_c, 1, 62, 0
1, 119696, Note_on_c, 1, 57, 127
1, 119837, Note_off_c, 1, 57, 0
1, 120704, Note_on_c, 1, 45, 127
1, 120704, Note_on_c, 1, 72, 127
1, 120848, Note_on_c, 1, 66, 127
1, 120989, Note_off_c, 1, 45, 0
1, 120989, Note_off_c, 1, 66, 0
1, 120992, Note_on_c, 1, 67, 127
1, 120992, Note_on_c, 1, 55, 127
1, 121124, Note_off_c, 1, 72, 0
1, 121133, Note_off_c, 1, 67, 0
1, 121277, Note_off_c, 1, 55, 0
1, 121280, Note_on_c, 1, 62, 127
1, 121421, Note_off_c, 1, 62, 0
1, 121424, Note_on_c, 1, 57, 127
1, 121565, Note_off_c, 1, 57, 0
1, 122432, Note_on_c, 1, 47, 127
1, 122432, Note_on_c, 1, 74, 127
1, 122576, Note_on_c, 1, 66, 127
1, 122717, Note_off_c, 1, 47, 0
1, 122717, Note_off_c, 1, 66, 0
1, 122720, Note_on_c, 1, 67, 127
1, 122720, Note_on_c, 1, 55, 127
1, 122852, Note_off_c, 1, 74, 0
1, 122861, Note_off_c, 1, 67, 0
1, 123005, Note_off_c, 1, 55, 0
1, 123008, Note_on_c, 1, 62, 127
1, 123149, Note_off_c, 1, 62, 0
1, 123152, Note_on_c, 1, 57, 127
1, 123293, Note_off_c, 1, 57, 0
1, 124160, Note_on_c, 1, 64, 127
1, 124160, Note_on_c, 1, 48, 127
1, 124301, Note_off_c, 1, 64, 0
1, 124445, Note_off_c, 1, 48, 0
1, 124448, Note_on_c, 1, 64, 127
1, 124448, Note_on_c, 1, 55, 127
1, 124592, Note_on_c, 1, 74, 127
1, 124733, Note_off_c, 1, 64, 0
1, 124733, Note_off_c, 1, 55, 0
1, 124802, Note_off_c, 1, 74, 0
1, 124880, Note_on_c, 1, 62, 127
1, 124880, Note_on_c, 1, 57, 127
1, 125021, Note_off_c, 1, 62, 0
1, 125021, Note_off_c, 1, 57, 0
1, 125024, Note_on_c, 1, 64, 127
1, 125024, Note_on_c, 1, 55, 127
1, 125168, Note_on_c, 1, 74, 127
1, 125309, Note_off_c, 1, 64, 0
1, 125309, Note_off_c, 1, 55, 0
1, 125378, Note_off_c, 1, 74, 0
1, 125456, Note_on_c, 1, 62, 127
1, 125597, Note_off_c, 1, 62, 0
1, 125600, Note_on_c, 1, 64, 127
1, 125600, Note_on_c, 1, 55, 127
1, 125744, Note_on_c, 1, 74, 127
1, 125885, Note_off_c, 1, 64, 0
1, 125885, Note_off_c, 1, 55, 0
1, 125888, Note_on_c, 1, 48, 127
1, 125954, Note_off_c, 1, 74, 0
1, 126032, Note_on_c, 1, 62, 127
1, 126173, Note_off_c, 1, 48, 0
1, 126173, Note_off_c, 1, 62, 0
1, 126176, Note_on_c, 1, 64, 127
1, 126176, Note_on_c, 1, 57, 127
1, 126320, Note_on_c, 1, 72, 127
1, 126461, Note_off_c, 1, 64, 0
1, 126461, Note_off_c, 1, 57, 0
1, 126560, Note_off_c, 1, 72, 0
1, 126608, Note_on_c, 1, 62, 127
1, 126608, Note_on_c, 1, 59, 127
1, 126749, Note_off_c, 1, 62, 0
1, 126749, Note_off_c, 1, 59, 0
1, 126752, Note_on_c, 1, 64, 127
1, 126752, Note_on_c, 1, 57, 127
1, 126896, Note_on_c, 1, 72, 127
1, 127037, Note_off_c, 1, 64, 0
1, 127037, Note_off_c, 1, 57, 0
1, 127136, Note_off_c, 1, 72, 0
1, 127184, Note_on_c, 1, 62, 127
1, 127325, Note_off_c, 1, 62, 0
1, 127328, Note_on_c, 1, 64, 127
1, 127328, Note_on_c, 1, 57, 127
1, 127472, Note_on_c, 1, 72, 127
1, 127613, Note_off_c, 1, 64, 0
1, 127613, Note_off_c, 1, 57, 0
1, 127616, Note_on_c, 1, 66, 127
1, 127616, Note_on_c, 1, 50, 127
1, 127712, Note_off_c, 1, 72, 0
1, 127757, Note_off_c, 1, 66, 0
1, 127901, Note_off_c, 1, 50, 0
1, 127904, Note_on_c, 1, 66, 127
1, 127904, Note_on_c, 1, 57, 127
1, 128048, Note_on_c, 1, 72, 127
1, 128189, Note_off_c, 1, 66, 0
1, 128189, Note_off_c, 1, 57, 0
1, 128318, Note_off_c, 1, 72, 0
1, 128336, Note_on_c, 1, 64, 127
1, 128336, Note_on_c, 1, 59, 127
1, 128477, Note_off_c, 1, 64, 0
1, 128477, Note_off_c, 1, 59, 0
1, 128480, Note_on_c, 1, 66, 127
1, 128480, Note_on_c, 1, 57, 127
1, 128624, Note_on_c, 1, 72, 127
1, 128765, Note_off_c, 1, 66, 0
1, 128765, Note_off_c, 1, 57, 0
1, 128894, Note_off_c, 1, 72, 0
1, 128912, Note_on_c, 1, 64, 127
1, 129053, Note_off_c, 1, 64, 0
1, 129056, Note_on_c, 1, 66, 127
1, 129056, Note_on_c, 1, 57, 127
1, 129200, Note_on_c, 1, 72, 127
1, 129341, Note_off_c, 1, 66, 0
1, 129341, Note_off_c, 1, 57, 0
1, 129344, Note_on_c, 1, 67, 127
1, 129344, Note_on_c, 1, 50, 127
1, 129470, Note_off_c, 1, 72, 0
1, 129485, Note_off_c, 1, 67, 0
1, 129629, Note_off_c, 1, 50, 0
1, 129632, Note_on_c, 1, 67, 127
1, 129632, Note_on_c, 1, 59, 127
1, 129776, Note_on_c, 1, 71, 127
1, 129917, Note_off_c, 1, 67, 0
1, 129917, Note_off_c, 1, 59, 0
1, 129917, Note_off_c, 1, 71, 0
1, 129920, Note_on_c, 1, 67, 127
1, 129920, Note_on_c, 1, 59, 127
1, 130061, Note_off_c, 1, 67, 0
1, 130061, Note_off_c, 1, 59, 0
1, 130064, Note_on_c, 1, 66, 127
1, 130064, Note_on_c, 1, 60, 127
1, 130205, Note_off_c, 1, 66, 0
1, 130205, Note_off_c, 1, 60, 0
1, 130208, Note_on_c, 1, 67, 127
1, 130208, Note_on_c, 1, 59, 127
1, 130352, Note_on_c, 1, 71, 127
1, 130493, Note_off_c, 1, 67, 0
1, 130493, Note_off_c, 1, 59, 0
1, 130493, Note_off_c, 1, 71, 0
1, 130496, Note_on_c, 1, 67, 127
1, 130496, Note_on_c, 1, 59, 127
1, 130637, Note_off_c, 1, 67, 0
1, 130640, Note_on_c, 1, 66, 127
1, 130781, Note_off_c, 1, 59, 0
1, 130781, Note_off_c, 1, 66, 0
1, 130784, Note_on_c, 1, 67, 127
1, 130784, Note_on_c, 1, 59, 127
1, 130928, Note_on_c, 1, 71, 127
1, 131069, Note_off_c, 1, 67, 0
1, 131069, Note_off_c, 1, 59, 0
1, 131069, Note_off_c, 1, 71, 0
1, 131072, Note_on_c, 1, 67, 127
1, 131072, Note_on_c, 1, 50, 127
1, 131213, Note_off_c, 1, 67, 0
1, 131216, Note_on_c, 1, 66, 127
1, 131357, Note_off_c, 1, 50, 0
1, 131357, Note_off_c, 1, 66, 0
1, 131360, Note_on_c, 1, 67, 127
1, 131360, Note_on_c, 1, 61, 127
1, 131504, Note_on_c, 1, 76, 127
1, 131645, Note_off_c, 1, 67, 0
1, 131645, Note_off_c, 1, 61, 0
1, 131759, Note_off_c, 1, 76, 0
1, 131792, Note_on_c, 1, 66, 127
1, 131792, Note_on_c, 1, 62, 127
1, 131933, Note_off_c, 1, 66, 0
1, 131933, Note_off_c, 1, 62, 0
1, 131936, Note_on_c, 1, 67, 127
1, 131936, Note_on_c, 1, 61, 127
1, 132080, Note_on_c, 1, 76, 127
1, 132221, Note_off_c, 1, 67, 0
1, 132221, Note_off_c, 1, 61, 0
1, 132335, Note_off_c, 1, 76, 0
1, 132368, Note_on_c, 1, 66, 127
1, 132509, Note_off_c, 1, 66, 0
1, 132512, Note_on_c, 1, 67, 127
1, 132512, Note_on_c, 1, 61, 127
1, 132656, Note_on_c, 1, 76, 127
1, 132776, Note_off_c, 1, 76, 0
1, 132782, Note_off_c, 1, 67, 0
1, 132797, Note_off_c, 1, 61, 0
1, 132800, Note_on_c, 1, 66, 127
1, 132800, Note_on_c, 1, 50, 127
1, 132941, Note_off_c, 1, 66, 0
1, 132944, Note_on_c, 1, 62, 127
1, 133085, Note_off_c, 1, 50, 0
1, 133085, Note_off_c, 1, 62, 0
1, 133088, Note_on_c, 1, 66, 127
1, 133088, Note_on_c, 1, 62, 127
1, 133229, Note_off_c, 1, 66, 0
1, 133229, Note_off_c, 1, 62, 0
1, 133232, Note_on_c, 1, 69, 127
1, 133232, Note_on_c, 1, 60, 127
1, 133373, Note_off_c, 1, 69, 0
1, 133373, Note_off_c, 1, 60, 0
1, 133376, Note_on_c, 1, 59, 127
1, 133376, Note_on_c, 1, 74, 127
1, 133520, Note_on_c, 1, 64, 127
1, 133661, Note_off_c, 1, 59, 0
1, 133661, Note_off_c, 1, 64, 0
1, 133664, Note_on_c, 1, 65, 127
1, 133664, Note_on_c, 1, 57, 127
1, 133805, Note_off_c, 1, 65, 0
1, 133808, Note_on_c, 1, 62, 127
1, 133946, Note_off_c, 1, 74, 0
1, 133949, Note_off_c, 1, 57, 0
1, 133949, Note_off_c, 1, 62, 0
1, 133952, Note_on_c, 1, 59, 127
1, 133952, Note_on_c, 1, 74, 127
1, 134096, Note_on_c, 1, 64, 127
1, 134237, Note_off_c, 1, 59, 0
1, 134237, Note_off_c, 1, 64, 0
1, 134240, Note_on_c, 1, 65, 127
1, 134240, Note_on_c, 1, 55, 127
1, 134372, Note_off_c, 1, 74, 0
1, 134381, Note_off_c, 1, 65, 0
1, 134384, Note_on_c, 1, 62, 127
1, 134525, Note_off_c, 1, 55, 0
1, 134525, Note_off_c, 1, 62, 0
1, 134528, Note_on_c, 1, 64, 127
1, 134528, Note_on_c, 1, 48, 127
1, 134669, Note_off_c, 1, 64, 0
1, 134672, Note_on_c, 1, 60, 127
1, 134813, Note_off_c, 1, 48, 0
1, 134813, Note_off_c, 1, 60, 0
1, 134816, Note_on_c, 1, 64, 127
1, 134816, Note_on_c, 1, 60, 127
1, 134957, Note_off_c, 1, 64, 0
1, 134957, Note_off_c, 1, 60, 0
1, 134960, Note_on_c, 1, 67, 127
1, 134960, Note_on_c, 1, 59, 127
1, 135101, Note_off_c, 1, 67, 0
1, 135101, Note_off_c, 1, 59, 0
1, 135104, Note_on_c, 1, 57, 127
1, 135104, Note_on_c, 1, 72, 127
1, 135248, Note_on_c, 1, 62, 127
1, 135389, Note_off_c, 1, 57, 0
1, 135389, Note_off_c, 1, 62, 0
1, 135392, Note_on_c, 1, 64, 127
1, 135392, Note_on_c, 1, 55, 127
1, 135533, Note_off_c, 1, 64, 0
1, 135536, Note_on_c, 1, 60, 127
1, 135674, Note_off_c, 1, 72, 0
1, 135677, Note_off_c, 1, 55, 0
1, 135677, Note_off_c, 1, 60, 0
1, 135680, Note_on_c, 1, 57, 127
1, 135680, Note_on_c, 1, 72, 127
1, 135824, Note_on_c, 1, 62, 127
1, 135965, Note_off_c, 1, 57, 0
1, 135965, Note_off_c, 1, 62, 0
1, 135968, Note_on_c, 1, 64, 127
1, 135968, Note_on_c, 1, 54, 127
1, 136100, Note_off_c, 1, 72, 0
1, 136109, Note_off_c, 1, 64, 0
1, 136112, Note_on_c, 1, 60, 127
1, 136253, Note_off_c, 1, 54, 0
1, 136253, Note_off_c, 1, 60, 0
1, 136256, Note_on_c, 1, 59, 127
1, 136256, Note_on_c, 1, 62, 127
1, 136397, Note_off_c, 1, 59, 0
1, 136400, Note_on_c, 1, 47, 127
1, 136541, Note_off_c, 1, 62, 0
1, 136541, Note_off_c, 1, 47, 0
1, 136544, Note_on_c, 1, 50, 127
1, 136544, Note_on_c, 1, 71, 127
1, 136544, Note_on_c, 1, 74, 127
1, 136685, Note_off_c, 1, 50, 0
1, 136688, Note_on_c, 1, 54, 127
1, 136829, Note_off_c, 1, 71, 0
1, 136829, Note_off_c, 1, 74, 0
1, 136829, Note_off_c, 1, 54, 0
1, 136832, Note_on_c, 1, 74, 127
1, 136832, Note_on_c, 1, 71, 127
1, 136832, Note_on_c, 1, 59, 127
1, 136973, Note_off_c, 1, 74, 0
1, 136973, Note_off_c, 1, 71, 0
1, 136973, Note_off_c, 1, 59, 0
1, 136976, Note_on_c, 1, 76, 127
1, 136976, Note_on_c, 1, 54, 127
1, 137117, Note_off_c, 1, 76, 0
1, 137117, Note_off_c, 1, 54, 0
1, 137120, Note_on_c, 1, 56, 127
1, 137120, Note_on_c, 1, 74, 127
1, 137120, Note_on_c, 1, 71, 127
1, 137261, Note_off_c, 1, 56, 0
1, 137264, Note_on_c, 1, 52, 127
1, 137405, Note_off_c, 1, 74, 0
1, 137405, Note_off_c, 1, 71, 0
1, 137405, Note_off_c, 1, 52, 0
1, 137408, Note_on_c, 1, 59, 127
1, 137408, Note_on_c, 1, 71, 127
1, 137408, Note_on_c, 1, 74, 127
1, 137549, Note_off_c, 1, 59, 0
1, 137552, Note_on_c, 1, 54, 127
1, 137693, Note_off_c, 1, 71, 0
1, 137693, Note_off_c, 1, 74, 0
1, 137693, Note_off_c, 1, 54, 0
1, 137696, Note_on_c, 1, 56, 127
1, 137696, Note_on_c, 1, 71, 127
1, 137696, Note_on_c, 1, 74, 127
1, 137837, Note_off_c, 1, 56, 0
1, 137840, Note_on_c, 1, 52, 127
1, 137981, Note_off_c, 1, 71, 0
1, 137981, Note_off_c, 1, 74, 0
1, 137981, Note_off_c, 1, 52, 0
1, 137984, Note_on_c, 1, 57, 127
1, 137984, Note_on_c, 1, 71, 127
1, 137984, Note_on_c, 1, 74, 127
1, 138125, Note_off_c, 1, 57, 0
1, 138128, Note_on_c, 1, 45, 127
1, 138269, Note_off_c, 1, 71, 0
1, 138269, Note_off_c, 1, 74, 0
1, 138269, Note_off_c, 1, 45, 0
1, 138272, Note_on_c, 1, 48, 127
1, 138272, Note_on_c, 1, 69, 127
1, 138272, Note_on_c, 1, 72, 127
1, 138413, Note_off_c, 1, 48, 0
1, 138416, Note_on_c, 1, 52, 127
1, 138557, Note_off_c, 1, 69, 0
1, 138557, Note_off_c, 1, 72, 0
1, 138557, Note_off_c, 1, 52, 0
1, 138560, Note_on_c, 1, 69, 127
1, 138560, Note_on_c, 1, 72, 127
1, 138560, Note_on_c, 1, 57, 127
1, 138701, Note_off_c, 1, 69, 0
1, 138701, Note_off_c, 1, 72, 0
1, 138701, Note_off_c, 1, 57, 0
1, 138704, Note_on_c, 1, 74, 127
1, 138704, Note_on_c, 1, 52, 127
1, 138845, Note_off_c, 1, 74, 0
1, 138845, Note_off_c, 1, 52, 0
1, 138848, Note_on_c, 1, 54, 127
1, 138848, Note_on_c, 1, 69, 127
1, 138848, Note_on_c, 1, 72, 127
1, 138989, Note_off_c, 1, 54, 0
1, 138992, Note_on_c, 1, 50, 127
1, 139133, Note_off_c, 1, 69, 0
1, 139133, Note_off_c, 1, 72, 0
1, 139133, Note_off_c, 1, 50, 0
1, 139136, Note_on_c, 1, 57, 127
1, 139136, Note_on_c, 1, 69, 127
1, 139136, Note_on_c, 1, 72, 127
1, 139277, Note_off_c, 1, 57, 0
1, 139280, Note_on_c, 1, 52, 127
1, 139421, Note_off_c, 1, 69, 0
1, 139421, Note_off_c, 1, 72, 0
1, 139421, Note_off_c, 1, 52, 0
1, 139424, Note_on_c, 1, 54, 127
1, 139424, Note_on_c, 1, 69, 127
1, 139424, Note_on_c, 1, 72, 127
1, 139565, Note_off_c, 1, 54, 0
1, 139568, Note_on_c, 1, 50, 127
1, 139709, Note_off_c, 1, 69, 0
1, 139709, Note_off_c, 1, 72, 0
1, 139709, Note_off_c, 1, 50, 0
1, 139712, Note_on_c, 1, 71, 127
1, 139712, Note_on_c, 1, 55, 127
1, 139853, Note_off_c, 1, 71, 0
1, 139856, Note_on_c, 1, 69, 127
1, 139997, Note_off_c, 1, 55, 0
1, 139997, Note_off_c, 1, 69, 0
1, 140000, Note_on_c, 1, 67, 127
1, 140000, Note_on_c, 1, 59, 127
1, 140141, Note_off_c, 1, 67, 0
1, 140144, Note_on_c, 1, 66, 127
1, 140285, Note_off_c, 1, 59, 0
1, 140285, Note_off_c, 1, 66, 0
1, 140288, Note_on_c, 1, 67, 127
1, 140288, Note_on_c, 1, 52, 127
1, 140429, Note_off_c, 1, 67, 0
1, 140432, Note_on_c, 1, 66, 127
1, 140573, Note_off_c, 1, 52, 0
1, 140573, Note_off_c, 1, 66, 0
1, 140576, Note_on_c, 1, 67, 127
1, 140576, Note_on_c, 1, 64, 127
1, 140717, Note_off_c, 1, 67, 0
1, 140720, Note_on_c, 1, 72, 127
1, 140861, Note_off_c, 1, 64, 0
1, 140861, Note_off_c, 1, 72, 0
1, 140864, Note_on_c, 1, 66, 127
1, 140864, Note_on_c, 1, 62, 127
1, 141005, Note_off_c, 1, 66, 0
1, 141005, Note_off_c, 1, 62, 0
1, 141008, Note_on_c, 1, 71, 127
1, 141008, Note_on_c, 1, 59, 127
1, 141149, Note_off_c, 1, 71, 0
1, 141149, Note_off_c, 1, 59, 0
1, 141152, Note_on_c, 1, 64, 127
1, 141152, Note_on_c, 1, 60, 127
1, 141293, Note_off_c, 1, 64, 0
1, 141293, Note_off_c, 1, 60, 0
1, 141296, Note_on_c, 1, 69, 127
1, 141296, Note_on_c, 1, 57, 127
1, 141437, Note_off_c, 1, 69, 0
1, 141437, Note_off_c, 1, 57, 0
1, 141440, Note_on_c, 1, 63, 127
1, 141440, Note_on_c, 1, 59, 127
1, 141581, Note_off_c, 1, 63, 0
1, 141584, Note_on_c, 1, 72, 127
1, 141725, Note_off_c, 1, 72, 0
1, 141728, Note_on_c, 1, 71, 127
1, 141869, Note_off_c, 1, 71, 0
1, 141872, Note_on_c, 1, 69, 127
1, 142013, Note_off_c, 1, 69, 0
1, 142016, Note_on_c, 1, 66, 127
1, 142157, Note_off_c, 1, 66, 0
1, 143165, Note_off_c, 1, 59, 0
1, 143168, Note_on_c, 1, 59, 127
1, 143168, Note_on_c, 1, 47, 127
1, 143312, Note_on_c, 1, 69, 127
1, 143453, Note_off_c, 1, 69, 0
1, 143456, Note_on_c, 1, 67, 127
1, 143597, Note_off_c, 1, 67, 0
1, 143600, Note_on_c, 1, 66, 127
1, 143741, Note_off_c, 1, 66, 0
1, 143744, Note_on_c, 1, 63, 127
1, 143885, Note_off_c, 1, 63, 0
1, 144893, Note_off_c, 1, 59, 0
1, 144893, Note_off_c, 1, 47, 0
1, 144896, Note_on_c, 1, 57, 127
1, 144896, Note_on_c, 1, 47, 127
1, 145040, Note_on_c, 1, 66, 127
1, 145181, Note_off_c, 1, 66, 0
1, 145184, Note_on_c, 1, 64, 127
1, 145325, Note_off_c, 1, 64, 0
1, 145328, Note_on_c, 1, 63, 127
1, 145469, Note_off_c, 1, 63, 0
1, 145472, Note_on_c, 1, 60, 127
1, 145613, Note_off_c, 1, 60, 0
1, 146621, Note_off_c, 1, 57, 0
1, 146909, Note_off_c, 1, 47, 0
1, 146912, Note_on_c, 1, 64, 127
1, 146912, Note_on_c, 1, 47, 127
1, 147053, Note_off_c, 1, 64, 0
1, 147056, Note_on_c, 1, 63, 127
1, 147197, Note_off_c, 1, 47, 0
1, 147197, Note_off_c, 1, 63, 0
1, 147200, Note_on_c, 1, 72, 127
1, 147200, Note_on_c, 1, 51, 127
1, 147341, Note_off_c, 1, 72, 0
1, 147344, Note_on_c, 1, 66, 127
1, 147485, Note_off_c, 1, 51, 0
1, 147485, Note_off_c, 1, 66, 0
1, 147488, Note_on_c, 1, 64, 127
1, 147488, Note_on_c, 1, 54, 127
1, 147629, Note_off_c, 1, 64, 0
1, 147632, Note_on_c, 1, 63, 127
1, 147773, Note_off_c, 1, 54, 0
1, 147773, Note_off_c, 1, 63, 0
1, 147776, Note_on_c, 1, 71, 127
1, 147776, Note_on_c, 1, 51, 127
1, 147917, Note_off_c, 1, 71, 0
1, 147920, Note_on_c, 1, 69, 127
1, 148061, Note_off_c, 1, 51, 0
1, 148061, Note_off_c, 1, 69, 0
1, 148064, Note_on_c, 1, 67, 127
1, 148064, Note_on_c, 1, 47, 127
1, 148205, Note_off_c, 1, 67, 0
1, 148208, Note_on_c, 1, 66, 127
1, 148349, Note_off_c, 1, 47, 0
1, 148349, Note_off_c, 1, 66, 0
1, 148352, Note_on_c, 1, 67, 127
1, 148352, Note_on_c, 1, 40, 127
1, 148637, Note_off_c, 1, 67, 0
1, 148640, Note_on_c, 1, 71, 127
1, 148925, Note_off_c, 1, 71, 0
1, 148928, Note_on_c, 1, 64, 127
1, 149072, Note_off_c, 1, 40, 0
1, 149213, Note_off_c, 1, 64, 0
1, 149216, Note_on_c, 1, 76, 127
1, 149216, Note_on_c, 1, 52, 127
1, 149216, Note_on_c, 1, 55, 127
1, 149501, Note_off_c, 1, 76, 0
1, 149501, Note_off_c, 1, 52, 0
1, 149501, Note_off_c, 1, 55, 0
1, 149504, Note_on_c, 1, 74, 127
1, 149504, Note_on_c, 1, 57, 127
1, 149504, Note_on_c, 1, 54, 127
1, 149645, Note_off_c, 1, 74, 0
1, 149648, Note_on_c, 1, 71, 127
1, 149789, Note_off_c, 1, 57, 0
1, 149789, Note_off_c, 1, 54, 0
1, 149789, Note_off_c, 1, 71, 0
1, 149792, Note_on_c, 1, 72, 127
1, 149792, Note_on_c, 1, 50, 127
1, 149792, Note_on_c, 1, 54, 127
1, 149933, Note_off_c, 1, 72, 0
1, 149936, Note_on_c, 1, 69, 127
1, 150077, Note_off_c, 1, 50, 0
1, 150077, Note_off_c, 1, 54, 0
1, 150077, Note_off_c, 1, 69, 0
1, 150080, Note_on_c, 1, 71, 127
1, 150080, Note_on_c, 1, 55, 127
1, 150221, Note_off_c, 1, 71, 0
1, 150224, Note_on_c, 1, 66, 127
1, 150365, Note_off_c, 1, 66, 0
1, 150368, Note_on_c, 1, 67, 127
1, 150368, Note_on_c, 1, 43, 127
1, 150509, Note_off_c, 1, 67, 0
1, 150512, Note_on_c, 1, 63, 127
1, 150650, Note_off_c, 1, 55, 0
1, 150653, Note_off_c, 1, 63, 0
1, 150656, Note_on_c, 1, 64, 127
1, 150797, Note_off_c, 1, 64, 0
1, 150941, Note_off_c, 1, 43, 0
1, 150944, Note_on_c, 1, 72, 127
1, 150944, Note_on_c, 1, 57, 127
1, 150944, Note_on_c, 1, 64, 127
1, 151085, Note_off_c, 1, 72, 0
1, 151088, Note_on_c, 1, 69, 127
1, 151229, Note_off_c, 1, 57, 0
1, 151229, Note_off_c, 1, 64, 0
1, 151229, Note_off_c, 1, 69, 0
1, 151232, Note_on_c, 1, 71, 127
1, 151232, Note_on_c, 1, 64, 127
1, 151232, Note_on_c, 1, 55, 127
1, 151373, Note_off_c, 1, 71, 0
1, 151376, Note_on_c, 1, 67, 127
1, 151517, Note_off_c, 1, 64, 0
1, 151517, Note_off_c, 1, 55, 0
1, 151517, Note_off_c, 1, 67, 0
1, 151520, Note_on_c, 1, 69, 127
1, 151520, Note_on_c, 1, 54, 127
1, 151520, Note_on_c, 1, 63, 127
1, 151661, Note_off_c, 1, 69, 0
1, 151664, Note_on_c, 1, 66, 127
1, 151805, Note_off_c, 1, 54, 0
1, 151805, Note_off_c, 1, 63, 0
1, 151805, Note_off_c, 1, 66, 0
1, 151808, Note_on_c, 1, 67, 127
1, 151808, Note_on_c, 1, 64, 127
1, 151808, Note_on_c, 1, 52, 127
1, 151949, Note_off_c, 1, 67, 0
1, 151952, Note_on_c, 1, 66, 127
1, 152093, Note_off_c, 1, 66, 0
1, 152240, Note_on_c, 1, 63, 127
1, 152378, Note_off_c, 1, 64, 0
1, 152381, Note_off_c, 1, 63, 0
1, 152528, Note_off_c, 1, 52, 0
1, 152672, Note_on_c, 1, 71, 127
1, 152672, Note_on_c, 1, 64, 127
1, 152672, Note_on_c, 1, 55, 127
1, 152813, Note_off_c, 1, 71, 0
1, 152816, Note_on_c, 1, 67, 127
1, 152957, Note_off_c, 1, 64, 0
1, 152957, Note_off_c, 1, 55, 0
1, 152957, Note_off_c, 1, 67, 0
1, 152960, Note_on_c, 1, 69, 127
1, 152960, Note_on_c, 1, 63, 127
1, 152960, Note_on_c, 1, 54, 127
1, 153101, Note_off_c, 1, 69, 0
1, 153104, Note_on_c, 1, 66, 127
1, 153245, Note_off_c, 1, 63, 0
1, 153245, Note_off_c, 1, 54, 0
1, 153245, Note_off_c, 1, 66, 0
1, 153248, Note_on_c, 1, 67, 127
1, 153248, Note_on_c, 1, 52, 127
1, 153248, Note_on_c, 1, 59, 127
1, 153389, Note_off_c, 1, 67, 0
1, 153392, Note_on_c, 1, 64, 127
1, 153533, Note_off_c, 1, 52, 0
1, 153533, Note_off_c, 1, 59, 0
1, 153533, Note_off_c, 1, 64, 0
1, 153536, Note_on_c, 1, 66, 127
1, 153536, Note_on_c, 1, 51, 127
1, 153536, Note_on_c, 1, 57, 127
1, 153677, Note_off_c, 1, 66, 0
1, 153680, Note_on_c, 1, 64, 127
1, 153821, Note_off_c, 1, 51, 0
1, 153821, Note_off_c, 1, 64, 0
1, 153824, Note_on_c, 1, 47, 127
1, 153836, Note_off_c, 1, 57, 0
1, 153968, Note_on_c, 1, 63, 127
1, 154109, Note_off_c, 1, 47, 0
1, 154109, Note_off_c, 1, 63, 0
1, 154112, Note_on_c, 1, 64, 127
1, 154112, Note_on_c, 1, 55, 127
1, 154112, Note_on_c, 1, 48, 127
1, 154253, Note_off_c, 1, 64, 0
1, 154256, Note_on_c, 1, 63, 127
1, 154397, Note_off_c, 1, 55, 0
1, 154397, Note_off_c, 1, 48, 0
1, 154397, Note_off_c, 1, 63, 0
1, 154400, Note_on_c, 1, 64, 127
1, 154400, Note_on_c, 1, 54, 127
1, 154400, Note_on_c, 1, 45, 127
1, 154400, Note_on_c, 1, 52, 127
1, 154541, Note_off_c, 1, 64, 0
1, 154544, Note_on_c, 1, 72, 127
1, 154685, Note_off_c, 1, 54, 0
1, 154685, Note_off_c, 1, 45, 0
1, 154685, Note_off_c, 1, 72, 0
1, 154688, Note_on_c, 1, 71, 127
1, 154688, Note_on_c, 1, 55, 127
1, 154688, Note_on_c, 1, 47, 127
1, 154829, Note_off_c, 1, 71, 0
1, 154832, Note_on_c, 1, 67, 127
1, 154970, Note_off_c, 1, 52, 0
1, 154973, Note_off_c, 1, 55, 0
1, 154973, Note_off_c, 1, 67, 0
1, 154976, Note_on_c, 1, 69, 127
1, 154976, Note_on_c, 1, 51, 127
1, 155117, Note_off_c, 1, 69, 0
1, 155120, Note_on_c, 1, 66, 127
1, 155258, Note_off_c, 1, 47, 0
1, 155261, Note_off_c, 1, 51, 0
1, 155261, Note_off_c, 1, 66, 0
1, 155264, Note_on_c, 1, 67, 127
1, 155264, Note_on_c, 1, 52, 127
1, 155264, Note_on_c, 1, 40, 127
1, 155405, Note_off_c, 1, 67, 0
1, 155408, Note_on_c, 1, 66, 127
1, 155534, Note_off_c, 1, 52, 0
1, 155534, Note_off_c, 1, 40, 0
1, 155549, Note_off_c, 1, 66, 0
1, 155552, Note_on_c, 1, 64, 127
1, 155552, Note_on_c, 1, 59, 127
1, 155693, Note_off_c, 1, 64, 0
1, 155696, Note_on_c, 1, 63, 127
1, 155837, Note_off_c, 1, 59, 0
1, 155837, Note_off_c, 1, 63, 0
1, 155840, Note_on_c, 1, 64, 127
1, 155840, Note_on_c, 1, 52, 127
1, 155981, Note_off_c, 1, 64, 0
1, 155984, Note_on_c, 1, 66, 127
1, 156125, Note_off_c, 1, 52, 0
1, 156125, Note_off_c, 1, 66, 0
1, 156128, Note_on_c, 1, 67, 127
1, 156128, Note_on_c, 1, 64, 127
1, 156269, Note_off_c, 1, 67, 0
1, 156272, Note_on_c, 1, 72, 127
1, 156413, Note_off_c, 1, 64, 0
1, 156413, Note_off_c, 1, 72, 0
1, 156416, Note_on_c, 1, 71, 127
1, 156416, Note_on_c, 1, 62, 127
1, 156557, Note_off_c, 1, 71, 0
1, 156557, Note_off_c, 1, 62, 0
1, 156560, Note_on_c, 1, 67, 127
1, 156560, Note_on_c, 1, 59, 127
1, 156701, Note_off_c, 1, 67, 0
1, 156701, Note_off_c, 1, 59, 0
1, 156704, Note_on_c, 1, 69, 127
1, 156704, Note_on_c, 1, 60, 127
1, 156845, Note_off_c, 1, 69, 0
1, 156845, Note_off_c, 1, 60, 0
1, 156848, Note_on_c, 1, 66, 127
1, 156848, Note_on_c, 1, 57, 127
1, 156989, Note_off_c, 1, 66, 0
1, 156989, Note_off_c, 1, 57, 0
1, 156992, Note_on_c, 1, 67, 127
1, 156992, Note_on_c, 1, 59, 127
1, 157133, Note_off_c, 1, 67, 0
1, 157133, Note_off_c, 1, 59, 0
1, 157136, Note_on_c, 1, 66, 127
1, 157136, Note_on_c, 1, 57, 127
1, 157277, Note_off_c, 1, 66, 0
1, 157277, Note_off_c, 1, 57, 0
1, 157280, Note_on_c, 1, 64, 127
1, 157280, Note_on_c, 1, 55, 127
1, 157421, Note_off_c, 1, 64, 0
1, 157421, Note_off_c, 1, 55, 0
1, 157424, Note_on_c, 1, 63, 127
1, 157424, Note_on_c, 1, 59, 127
1, 157565, Note_off_c, 1, 63, 0
1, 157565, Note_off_c, 1, 59, 0
1, 157568, Note_on_c, 1, 64, 127
1, 157568, Note_on_c, 1, 52, 127
1, 157709, Note_off_c, 1, 64, 0
1, 157709, Note_off_c, 1, 52, 0
1, 157712, Note_on_c, 1, 66, 127
1, 157712, Note_on_c, 1, 55, 127
1, 157853, Note_off_c, 1, 66, 0
1, 157853, Note_off_c, 1, 55, 0
1, 157856, Note_on_c, 1, 67, 127
1, 157856, Note_on_c, 1, 60, 127
1, 157997, Note_off_c, 1, 67, 0
1, 157997, Note_off_c, 1, 60, 0
1, 158000, Note_on_c, 1, 69, 127
1, 158000, Note_on_c, 1, 57, 127
1, 158141, Note_off_c, 1, 69, 0
1, 158141, Note_off_c, 1, 57, 0
1, 158144, Note_on_c, 1, 67, 127
1, 158144, Note_on_c, 1, 59, 127
1, 158285, Note_off_c, 1, 67, 0
1, 158285, Note_off_c, 1, 59, 0
1, 158288, Note_on_c, 1, 64, 127
1, 158288, Note_on_c, 1, 55, 127
1, 158429, Note_off_c, 1, 64, 0
1, 158429, Note_off_c, 1, 55, 0
1, 158432, Note_on_c, 1, 66, 127
1, 158432, Note_on_c, 1, 57, 127
1, 158573, Note_off_c, 1, 66, 0
1, 158573, Note_off_c, 1, 57, 0
1, 158576, Note_on_c, 1, 63, 127
1, 158576, Note_on_c, 1, 54, 127
1, 158717, Note_off_c, 1, 63, 0
1, 158717, Note_off_c, 1, 54, 0
1, 158720, Note_on_c, 1, 64, 127
1, 158720, Note_on_c, 1, 55, 127
1, 158861, Note_off_c, 1, 64, 0
1, 158861, Note_off_c, 1, 55, 0
1, 158864, Note_on_c, 1, 66, 127
1, 158864, Note_on_c, 1, 54, 127
1, 159005, Note_off_c, 1, 66, 0
1, 159005, Note_off_c, 1, 54, 0
1, 159008, Note_on_c, 1, 67, 127
1, 159008, Note_on_c, 1, 52, 127
1, 159149, Note_off_c, 1, 67, 0
1, 159149, Note_off_c, 1, 52, 0
1, 159152, Note_on_c, 1, 64, 127
1, 159152, Note_on_c, 1, 55, 127
1, 159293, Note_off_c, 1, 64, 0
1, 159293, Note_off_c, 1, 55, 0
1, 159296, Note_on_c, 1, 63, 127
1, 159296, Note_on_c, 1, 47, 127
1, 159437, Note_off_c, 1, 63, 0
1, 159437, Note_off_c, 1, 47, 0
1, 159440, Note_on_c, 1, 64, 127
1, 159440, Note_on_c, 1, 52, 127
1, 159581, Note_off_c, 1, 64, 0
1, 159581, Note_off_c, 1, 52, 0
1, 159584, Note_on_c, 1, 67, 127
1, 159584, Note_on_c, 1, 59, 127
1, 159725, Note_off_c, 1, 67, 0
1, 159725, Note_off_c, 1, 59, 0
1, 159728, Note_on_c, 1, 64, 127
1, 159728, Note_on_c, 1, 55, 127
1, 159869, Note_off_c, 1, 64, 0
1, 159869, Note_off_c, 1, 55, 0
1, 159872, Note_on_c, 1, 66, 127
1, 159872, Note_on_c, 1, 57, 127
1, 160013, Note_off_c, 1, 66, 0
1, 160013, Note_off_c, 1, 57, 0
1, 160016, Note_on_c, 1, 63, 127
1, 160016, Note_on_c, 1, 54, 127
1, 160157, Note_off_c, 1, 63, 0
1, 160157, Note_off_c, 1, 54, 0
1, 160160, Note_on_c, 1, 64, 127
1, 160160, Note_on_c, 1, 55, 127
1, 160301, Note_off_c, 1, 64, 0
1, 160301, Note_off_c, 1, 55, 0
1, 160304, Note_on_c, 1, 61, 127
1, 160304, Note_on_c, 1, 52, 127
1, 160445, Note_off_c, 1, 61, 0
1, 160445, Note_off_c, 1, 52, 0
1, 160448, Note_on_c, 1, 63, 127
1, 160448, Note_on_c, 1, 54, 127
1, 160589, Note_off_c, 1, 63, 0
1, 160589, Note_off_c, 1, 54, 0
1, 160592, Note_on_c, 1, 72, 127
1, 160592, Note_on_c, 1, 51, 127
1, 160733, Note_off_c, 1, 72, 0
1, 160733, Note_off_c, 1, 51, 0
1, 160736, Note_on_c, 1, 71, 127
1, 160736, Note_on_c, 1, 52, 127
1, 160877, Note_off_c, 1, 71, 0
1, 160877, Note_off_c, 1, 52, 0
1, 160880, Note_on_c, 1, 69, 127
1, 160880, Note_on_c, 1, 51, 127
1, 161021, Note_off_c, 1, 69, 0
1, 161021, Note_off_c, 1, 51, 0
1, 161024, Note_on_c, 1, 67, 127
1, 161024, Note_on_c, 1, 52, 127
1, 161165, Note_off_c, 1, 67, 0
1, 161168, Note_on_c, 1, 69, 127
1, 161309, Note_off_c, 1, 52, 0
1, 161309, Note_off_c, 1, 69, 0
1, 161312, Note_on_c, 1, 71, 127
1, 161312, Note_on_c, 1, 57, 127
1, 161453, Note_off_c, 1, 71, 0
1, 161456, Note_on_c, 1, 72, 127
1, 161597, Note_off_c, 1, 57, 0
1, 161597, Note_off_c, 1, 72, 0
1, 161600, Note_on_c, 1, 67, 127
1, 161600, Note_on_c, 1, 63, 127
1, 161600, Note_on_c, 1, 59, 127
1, 161669, Note_off_c, 1, 67, 0
1, 161672, Note_on_c, 1, 66, 127
1, 161741, Note_off_c, 1, 66, 0
1, 161888, Note_on_c, 1, 47, 127
1, 162020, Note_off_c, 1, 63, 0
1, 162032, Note_on_c, 1, 64, 127
1, 162170, Note_off_c, 1, 59, 0
1, 162173, Note_off_c, 1, 47, 0
1, 162173, Note_off_c, 1, 64, 0
1, 162176, Note_on_c, 1, 64, 127
1, 162176, Note_on_c, 1, 52, 127
1, 162461, Note_off_c, 1, 64, 0
1, 162464, Note_on_c, 1, 67, 127
1, 162749, Note_off_c, 1, 67, 0
1, 162893, Note_off_c, 1, 52, 0
1, 162896, Note_on_c, 1, 69, 127
1, 162896, Note_on_c, 1, 40, 127
1, 163037, Note_off_c, 1, 69, 0
1, 163037, Note_off_c, 1, 40, 0
1, 163040, Note_on_c, 1, 43, 127
1, 163040, Note_on_c, 1, 64, 127
1, 163040, Note_on_c, 1, 67, 127
1, 163181, Note_off_c, 1, 43, 0
1, 163184, Note_on_c, 1, 47, 127
1, 163325, Note_off_c, 1, 64, 0
1, 163325, Note_off_c, 1, 67, 0
1, 163325, Note_off_c, 1, 47, 0
1, 163328, Note_on_c, 1, 52, 127
1, 163328, Note_on_c, 1, 67, 127
1, 163328, Note_on_c, 1, 64, 127
1, 163469, Note_off_c, 1, 52, 0
1, 163472, Note_on_c, 1, 50, 127
1, 163613, Note_off_c, 1, 67, 0
1, 163613, Note_off_c, 1, 64, 0
1, 163613, Note_off_c, 1, 50, 0
1, 163616, Note_on_c, 1, 49, 127
1, 163616, Note_on_c, 1, 67, 127
1, 163616, Note_on_c, 1, 64, 127
1, 163757, Note_off_c, 1, 49, 0
1, 163760, Note_on_c, 1, 47, 127
1, 163901, Note_off_c, 1, 67, 0
1, 163901, Note_off_c, 1, 64, 0
1, 163901, Note_off_c, 1, 47, 0
1, 163904, Note_on_c, 1, 67, 127
1, 163904, Note_on_c, 1, 70, 127
1, 163904, Note_on_c, 1, 61, 127
1, 163904, Note_on_c, 1, 45, 127
1, 164189, Note_off_c, 1, 67, 0
1, 164192, Note_on_c, 1, 64, 127
1, 164244, Note_off_c, 1, 70, 0
1, 164474, Note_off_c, 1, 61, 0
1, 164477, Note_off_c, 1, 64, 0
1, 164621, Note_off_c, 1, 45, 0
1, 164624, Note_on_c, 1, 69, 127
1, 164624, Note_on_c, 1, 45, 127
1, 164765, Note_off_c, 1, 69, 0
1, 164765, Note_off_c, 1, 45, 0
1, 164768, Note_on_c, 1, 49, 127
1, 164768, Note_on_c, 1, 67, 127
1, 164768, Note_on_c, 1, 64, 127
1, 164909, Note_off_c, 1, 49, 0
1, 164912, Note_on_c, 1, 52, 127
1, 165053, Note_off_c, 1, 67, 0
1, 165053, Note_off_c, 1, 64, 0
1, 165053, Note_off_c, 1, 52, 0
1, 165056, Note_on_c, 1, 67, 127
1, 165056, Note_on_c, 1, 57, 127
1, 165056, Note_on_c, 1, 64, 127
1, 165197, Note_off_c, 1, 67, 0
1, 165197, Note_off_c, 1, 57, 0
1, 165200, Note_on_c, 1, 55, 127
1, 165200, Note_on_c, 1, 70, 127
1, 165341, Note_off_c, 1, 55, 0
1, 165344, Note_on_c, 1, 69, 127
1, 165344, Note_on_c, 1, 53, 127
1, 165362, Note_off_c, 1, 70, 0
1, 165476, Note_off_c, 1, 64, 0
1, 165485, Note_off_c, 1, 69, 0
1, 165485, Note_off_c, 1, 53, 0
1, 165488, Note_on_c, 1, 67, 127
1, 165488, Note_on_c, 1, 52, 127
1, 165629, Note_off_c, 1, 67, 0
1, 165629, Note_off_c, 1, 52, 0
1, 165632, Note_on_c, 1, 65, 127
1, 165632, Note_on_c, 1, 50, 127
1, 165917, Note_off_c, 1, 65, 0
1, 165920, Note_on_c, 1, 62, 127
1, 166205, Note_off_c, 1, 62, 0
1, 166349, Note_off_c, 1, 50, 0
1, 166352, Note_on_c, 1, 67, 127
1, 166352, Note_on_c, 1, 38, 127
1, 166493, Note_off_c, 1, 67, 0
1, 166493, Note_off_c, 1, 38, 0
1, 166496, Note_on_c, 1, 41, 127
1, 166496, Note_on_c, 1, 62, 127
1, 166496, Note_on_c, 1, 65, 127
1, 166637, Note_off_c, 1, 41, 0
1, 166640, Note_on_c, 1, 45, 127
1, 166781, Note_off_c, 1, 62, 0
1, 166781, Note_off_c, 1, 65, 0
1, 166781, Note_off_c, 1, 45, 0
1, 166784, Note_on_c, 1, 50, 127
1, 166784, Note_on_c, 1, 62, 127
1, 166784, Note_on_c, 1, 65, 127
1, 166925, Note_off_c, 1, 50, 0
1, 166928, Note_on_c, 1, 48, 127
1, 167069, Note_off_c, 1, 62, 0
1, 167069, Note_off_c, 1, 65, 0
1, 167069, Note_off_c, 1, 48, 0
1, 167072, Note_on_c, 1, 47, 127
1, 167072, Note_on_c, 1, 62, 127
1, 167072, Note_on_c, 1, 65, 127
1, 167213, Note_off_c, 1, 47, 0
1, 167216, Note_on_c, 1, 45, 127
1, 167357, Note_off_c, 1, 62, 0
1, 167357, Note_off_c, 1, 65, 0
1, 167357, Note_off_c, 1, 45, 0
1, 167360, Note_on_c, 1, 71, 127
1, 167360, Note_on_c, 1, 65, 127
1, 167360, Note_on_c, 1, 74, 127
1, 167360, Note_on_c, 1, 43, 127
1, 167645, Note_off_c, 1, 71, 0
1, 167645, Note_off_c, 1, 65, 0
1, 167648, Note_on_c, 1, 62, 127
1, 167930, Note_off_c, 1, 74, 0
1, 167933, Note_off_c, 1, 62, 0
1, 168077, Note_off_c, 1, 43, 0
1, 168080, Note_on_c, 1, 67, 127
1, 168080, Note_on_c, 1, 43, 127
1, 168221, Note_off_c, 1, 67, 0
1, 168221, Note_off_c, 1, 43, 0
1, 168224, Note_on_c, 1, 47, 127
1, 168224, Note_on_c, 1, 62, 127
1, 168224, Note_on_c, 1, 65, 127
1, 168365, Note_off_c, 1, 47, 0
1, 168368, Note_on_c, 1, 50, 127
1, 168509, Note_off_c, 1, 62, 0
1, 168509, Note_off_c, 1, 65, 0
1, 168509, Note_off_c, 1, 50, 0
1, 168512, Note_on_c, 1, 65, 127
1, 168512, Note_on_c, 1, 55, 127
1, 168512, Note_on_c, 1, 62, 127
1, 168653, Note_off_c, 1, 65, 0
1, 168653, Note_off_c, 1, 55, 0
1, 168656, Note_on_c, 1, 69, 127
1, 168656, Note_on_c, 1, 53, 127
1, 168797, Note_off_c, 1, 69, 0
1, 168797, Note_off_c, 1, 53, 0
1, 168800, Note_on_c, 1, 67, 127
1, 168800, Note_on_c, 1, 52, 127
1, 168932, Note_off_c, 1, 62, 0
1, 168941, Note_off_c, 1, 67, 0
1, 168941, Note_off_c, 1, 52, 0
1, 168944, Note_on_c, 1, 65, 127
1, 168944, Note_on_c, 1, 50, 127
1, 169085, Note_off_c, 1, 65, 0
1, 169085, Note_off_c, 1, 50, 0
1, 169088, Note_on_c, 1, 48, 127
1, 169088, Note_on_c, 1, 64, 127
1, 169232, Note_on_c, 1, 59, 127
1, 169373, Note_off_c, 1, 48, 0
1, 169373, Note_off_c, 1, 59, 0
1, 169376, Note_on_c, 1, 60, 127
1, 169508, Note_off_c, 1, 64, 0
1, 169517, Note_off_c, 1, 60, 0
1, 169664, Note_on_c, 1, 55, 127
1, 169805, Note_off_c, 1, 55, 0
1, 169808, Note_on_c, 1, 50, 127
1, 169949, Note_off_c, 1, 50, 0
1, 170816, Note_on_c, 1, 38, 127
1, 170816, Note_on_c, 1, 65, 127
1, 170960, Note_on_c, 1, 59, 127
1, 171101, Note_off_c, 1, 38, 0
1, 171101, Note_off_c, 1, 59, 0
1, 171104, Note_on_c, 1, 60, 127
1, 171104, Note_on_c, 1, 48, 127
1, 171236, Note_off_c, 1, 65, 0
1, 171245, Note_off_c, 1, 60, 0
1, 171389, Note_off_c, 1, 48, 0
1, 171392, Note_on_c, 1, 55, 127
1, 171533, Note_off_c, 1, 55, 0
1, 171536, Note_on_c, 1, 50, 127
1, 171677, Note_off_c, 1, 50, 0
1, 172544, Note_on_c, 1, 40, 127
1, 172544, Note_on_c, 1, 67, 127
1, 172688, Note_on_c, 1, 59, 127
1, 172829, Note_off_c, 1, 40, 0
1, 172829, Note_off_c, 1, 59, 0
1, 172832, Note_on_c, 1, 60, 127
1, 172832, Note_on_c, 1, 48, 127
1, 172964, Note_off_c, 1, 67, 0
1, 172973, Note_off_c, 1, 60, 0
1, 173117, Note_off_c, 1, 48, 0
1, 173120, Note_on_c, 1, 55, 127
1, 173261, Note_off_c, 1, 55, 0
1, 173264, Note_on_c, 1, 50, 127
1, 173405, Note_off_c, 1, 50, 0
1, 174272, Note_on_c, 1, 57, 127
1, 174272, Note_on_c, 1, 41, 127
1, 174413, Note_off_c, 1, 57, 0
1, 174557, Note_off_c, 1, 41, 0
1, 176288, Note_on_c, 1, 57, 127
1, 176288, Note_on_c, 1, 50, 127
1, 176432, Note_on_c, 1, 65, 127
1, 176573, Note_off_c, 1, 57, 0
1, 176573, Note_off_c, 1, 50, 0
1, 176720, Note_on_c, 1, 55, 127
1, 176720, Note_on_c, 1, 52, 127
1, 176861, Note_off_c, 1, 55, 0
1, 176861, Note_off_c, 1, 52, 0
1, 177002, Note_off_c, 1, 65, 0
1, 177728, Note_on_c, 1, 59, 127
1, 177728, Note_on_c, 1, 43, 127
1, 177869, Note_off_c, 1, 59, 0
1, 178013, Note_off_c, 1, 43, 0
1, 179456, Note_on_c, 1, 60, 127
1, 179597, Note_off_c, 1, 60, 0
1, 179744, Note_on_c, 1, 60, 127
1, 179744, Note_on_c, 1, 52, 127
1, 179888, Note_on_c, 1, 64, 127
1, 180029, Note_off_c, 1, 60, 0
1, 180029, Note_off_c, 1, 52, 0
1, 180068, Note_off_c, 1, 64, 0
1, 180176, Note_on_c, 1, 59, 127
1, 180176, Note_on_c, 1, 53, 127
1, 180317, Note_off_c, 1, 59, 0
1, 180317, Note_off_c, 1, 53, 0
1, 180320, Note_on_c, 1, 60, 127
1, 180320, Note_on_c, 1, 52, 127
1, 180464, Note_on_c, 1, 64, 127
1, 180605, Note_off_c, 1, 60, 0
1, 180605, Note_off_c, 1, 52, 0
1, 180644, Note_off_c, 1, 64, 0
1, 180752, Note_on_c, 1, 59, 127
1, 180893, Note_off_c, 1, 59, 0
1, 180896, Note_on_c, 1, 60, 127
1, 180896, Note_on_c, 1, 52, 127
1, 181040, Note_on_c, 1, 64, 127
1, 181181, Note_off_c, 1, 60, 0
1, 181181, Note_off_c, 1, 52, 0
1, 181184, Note_on_c, 1, 43, 127
1, 181220, Note_off_c, 1, 64, 0
1, 181328, Note_on_c, 1, 59, 127
1, 181469, Note_off_c, 1, 43, 0
1, 181469, Note_off_c, 1, 59, 0
1, 181472, Note_on_c, 1, 60, 127
1, 181472, Note_on_c, 1, 54, 127
1, 181613, Note_off_c, 1, 60, 0
1, 181616, Note_on_c, 1, 63, 127
1, 181757, Note_off_c, 1, 54, 0
1, 181757, Note_off_c, 1, 63, 0
1, 181760, Note_on_c, 1, 60, 127
1, 181760, Note_on_c, 1, 54, 127
1, 181901, Note_off_c, 1, 60, 0
1, 181901, Note_off_c, 1, 54, 0
1, 181904, Note_on_c, 1, 59, 127
1, 181904, Note_on_c, 1, 55, 127
1, 182045, Note_off_c, 1, 59, 0
1, 182045, Note_off_c, 1, 55, 0
1, 182048, Note_on_c, 1, 60, 127
1, 182048, Note_on_c, 1, 54, 127
1, 182189, Note_off_c, 1, 60, 0
1, 182192, Note_on_c, 1, 63, 127
1, 182333, Note_off_c, 1, 54, 0
1, 182333, Note_off_c, 1, 63, 0
1, 182336, Note_on_c, 1, 60, 127
1, 182336, Note_on_c, 1, 54, 127
1, 182477, Note_off_c, 1, 60, 0
1, 182480, Note_on_c, 1, 59, 127
1, 182621, Note_off_c, 1, 54, 0
1, 182621, Note_off_c, 1, 59, 0
1, 182624, Note_on_c, 1, 60, 127
1, 182624, Note_on_c, 1, 54, 127
1, 182765, Note_off_c, 1, 60, 0
1, 182768, Note_on_c, 1, 69, 127
1, 182909, Note_off_c, 1, 54, 0
1, 182909, Note_off_c, 1, 69, 0
1, 182928, Note_on_c, 1, 59, 127
1, 182928, Note_on_c, 1, 43, 127
1, 183008, Note_on_c, 1, 57, 127
1, 183023, Note_off_c, 1, 59, 0
1, 183103, Note_off_c, 1, 57, 0
1, 183334, Note_on_c, 1, 62, 127
1, 183475, Note_off_c, 1, 62, 0
1, 183483, Note_on_c, 1, 65, 127
1, 183624, Note_off_c, 1, 65, 0
1, 183630, Note_on_c, 1, 68, 127
1, 183771, Note_off_c, 1, 68, 0
1, 183878, Note_off_c, 1, 43, 0
1, 183924, Note_on_c, 1, 62, 127
1, 184065, Note_off_c, 1, 62, 0
1, 184071, Note_on_c, 1, 59, 127
1, 184212, Note_off_c, 1, 59, 0
1, 184218, Note_on_c, 1, 55, 127
1, 184353, Note_off_c, 1, 55, 0
1, 184372, Note_on_c, 1, 53, 127
1, 184512, Note_off_c, 1, 53, 0
1, 184528, Note_on_c, 1, 50, 127
1, 184673, Note_off_c, 1, 50, 0
1, 184696, Note_on_c, 1, 47, 127
1, 184846, Note_off_c, 1, 47, 0
1, 184888, Note_on_c, 1, 43, 127
1, 185128, Note_off_c, 1, 43, 0
1, 185250, Note_on_c, 1, 72, 127
1, 185316, Note_on_c, 1, 71, 127
1, 185319, Note_off_c, 1, 72, 0
1, 185385, Note_off_c, 1, 71, 0
1, 186064, Note_on_c, 1, 57, 127
1, 186064, Note_on_c, 1, 60, 127
1, 186064, Note_on_c, 1, 63, 127
1, 186064, Note_on_c, 1, 42, 127
1, 187264, Note_off_c, 1, 57, 0
1, 187264, Note_off_c, 1, 60, 0
1, 187264, Note_off_c, 1, 63, 0
1, 187264, Note_off_c, 1, 42, 0
1, 187344, Note_on_c, 1, 62, 127
1, 187344, Note_on_c, 1, 71, 127
1, 187344, Note_on_c, 1, 67, 127
1, 187344, Note_on_c, 1, 41, 127
1, 187644, Note_off_c, 1, 62, 0
1, 187644, Note_off_c, 1, 71, 0
1, 187644, Note_off_c, 1, 67, 0
1, 187644, Note_off_c, 1, 41, 0
1, 187664, Note_on_c, 1, 72, 127
1, 187664, Note_on_c, 1, 40, 127
1, 187664, Note_on_c, 1, 67, 127
1, 187733, Note_off_c, 1, 72, 0
1, 187736, Note_on_c, 1, 71, 127
1, 187805, Note_off_c, 1, 71, 0
1, 187949, Note_off_c, 1, 40, 0
1, 187952, Note_on_c, 1, 41, 127
1, 188096, Note_on_c, 1, 74, 127
1, 188234, Note_off_c, 1, 67, 0
1, 188237, Note_off_c, 1, 41, 0
1, 188237, Note_off_c, 1, 74, 0
1, 188240, Note_on_c, 1, 76, 127
1, 188240, Note_on_c, 1, 43, 127
1, 188240, Note_on_c, 1, 71, 127
1, 188366, Note_on_c, 1, 74, 127
1, 188369, Note_off_c, 1, 76, 0
1, 188435, Note_off_c, 1, 74, 0
1, 188525, Note_off_c, 1, 43, 0
1, 188528, Note_on_c, 1, 41, 127
1, 188813, Note_off_c, 1, 41, 0
1, 189102, Note_off_c, 1, 71, 0
1, 189104, Note_on_c, 1, 72, 127
1, 189389, Note_off_c, 1, 72, 0
1, 189408, Note_on_c, 1, 36, 127
1, 189408, Note_on_c, 1, 72, 127
1, 189693, Note_off_c, 1, 36, 0
1, 189693, Note_off_c, 1, 72, 0
1, 189696, Note_on_c, 1, 76, 127
1, 189981, Note_off_c, 1, 76, 0
1, 189984, Note_on_c, 1, 69, 127
1, 190269, Note_off_c, 1, 69, 0
1, 190272, Note_on_c, 1, 81, 127
1, 190557, Note_off_c, 1, 81, 0
1, 190560, Note_on_c, 1, 79, 127
1, 190701, Note_off_c, 1, 79, 0
1, 190704, Note_on_c, 1, 76, 127
1, 190845, Note_off_c, 1, 76, 0
1, 190848, Note_on_c, 1, 77, 127
1, 190989, Note_off_c, 1, 77, 0
1, 190992, Note_on_c, 1, 74, 127
1, 191133, Note_off_c, 1, 74, 0
1, 191136, Note_on_c, 1, 76, 127
1, 191277, Note_off_c, 1, 76, 0
1, 191280, Note_on_c, 1, 74, 127
1, 191421, Note_off_c, 1, 74, 0
1, 191424, Note_on_c, 1, 72, 127
1, 191424, Note_on_c, 1, 64, 127
1, 191565, Note_off_c, 1, 72, 0
1, 191568, Note_on_c, 1, 71, 127
1, 191709, Note_off_c, 1, 64, 0
1, 191709, Note_off_c, 1, 71, 0
1, 191712, Note_on_c, 1, 72, 127
1, 191712, Note_on_c, 1, 57, 127
1, 191853, Note_off_c, 1, 72, 0
1, 191856, Note_on_c, 1, 71, 127
1, 191997, Note_off_c, 1, 57, 0
1, 191997, Note_off_c, 1, 71, 0
1, 192000, Note_on_c, 1, 72, 127
1, 192000, Note_on_c, 1, 69, 127
1, 192144, Note_on_c, 1, 77, 127
1, 192270, Note_off_c, 1, 72, 0
1, 192285, Note_off_c, 1, 69, 0
1, 192288, Note_on_c, 1, 67, 127
1, 192288, Note_on_c, 1, 71, 127
1, 192309, Note_off_c, 1, 77, 0
1, 192429, Note_off_c, 1, 67, 0
1, 192432, Note_on_c, 1, 64, 127
1, 192432, Note_on_c, 1, 76, 127
1, 192558, Note_off_c, 1, 71, 0
1, 192573, Note_off_c, 1, 64, 0
1, 192576, Note_on_c, 1, 65, 127
1, 192597, Note_off_c, 1, 76, 0
1, 192717, Note_off_c, 1, 65, 0
1, 192720, Note_on_c, 1, 62, 127
1, 192720, Note_on_c, 1, 74, 127
1, 192861, Note_off_c, 1, 62, 0
1, 192864, Note_on_c, 1, 68, 127
1, 192990, Note_off_c, 1, 74, 0
1, 193152, Note_on_c, 1, 52, 127
1, 193284, Note_off_c, 1, 68, 0
1, 193437, Note_off_c, 1, 52, 0
1, 193440, Note_on_c, 1, 56, 127
1, 193725, Note_off_c, 1, 56, 0
1, 193728, Note_on_c, 1, 59, 127
1, 193728, Note_on_c, 1, 68, 127
1, 193872, Note_on_c, 1, 71, 127
1, 194013, Note_off_c, 1, 59, 0
1, 194013, Note_off_c, 1, 68, 0
1, 194013, Note_off_c, 1, 71, 0
1, 194016, Note_on_c, 1, 56, 127
1, 194016, Note_on_c, 1, 64, 127
1, 194160, Note_on_c, 1, 74, 127
1, 194301, Note_off_c, 1, 56, 0
1, 194301, Note_off_c, 1, 64, 0
1, 194301, Note_off_c, 1, 74, 0
1, 194304, Note_on_c, 1, 72, 127
1, 194304, Note_on_c, 1, 52, 127
1, 194445, Note_off_c, 1, 72, 0
1, 194448, Note_on_c, 1, 71, 127
1, 194589, Note_off_c, 1, 52, 0
1, 194589, Note_off_c, 1, 71, 0
1, 194592, Note_on_c, 1, 72, 127
1, 194592, Note_on_c, 1, 57, 127
1, 194733, Note_off_c, 1, 72, 0
1, 194736, Note_on_c, 1, 71, 127
1, 194877, Note_off_c, 1, 57, 0
1, 194877, Note_off_c, 1, 71, 0
1, 194880, Note_on_c, 1, 69, 127
1, 194880, Note_on_c, 1, 52, 127
1, 195021, Note_off_c, 1, 69, 0
1, 195024, Note_on_c, 1, 68, 127
1, 195165, Note_off_c, 1, 52, 0
1, 195165, Note_off_c, 1, 68, 0
1, 195168, Note_on_c, 1, 69, 127
1, 195168, Note_on_c, 1, 45, 127
1, 195309, Note_off_c, 1, 69, 0
1, 195312, Note_on_c, 1, 71, 127
1, 195453, Note_off_c, 1, 45, 0
1, 195453, Note_off_c, 1, 71, 0
1, 195456, Note_on_c, 1, 57, 127
1, 195456, Note_on_c, 1, 72, 127
1, 195600, Note_on_c, 1, 65, 127
1, 195741, Note_off_c, 1, 57, 0
1, 195741, Note_off_c, 1, 72, 0
1, 195741, Note_off_c, 1, 65, 0
1, 195744, Note_on_c, 1, 55, 127
1, 195744, Note_on_c, 1, 71, 127
1, 195885, Note_off_c, 1, 55, 0
1, 195888, Note_on_c, 1, 52, 127
1, 195888, Note_on_c, 1, 64, 127
1, 196029, Note_off_c, 1, 71, 0
1, 196029, Note_off_c, 1, 52, 0
1, 196029, Note_off_c, 1, 64, 0
1, 196032, Note_on_c, 1, 53, 127
1, 196032, Note_on_c, 1, 69, 127
1, 196173, Note_off_c, 1, 53, 0
1, 196173, Note_off_c, 1, 69, 0
1, 196176, Note_on_c, 1, 50, 127
1, 196176, Note_on_c, 1, 71, 127
1, 196317, Note_off_c, 1, 50, 0
1, 196317, Note_off_c, 1, 71, 0
1, 196320, Note_on_c, 1, 52, 127
1, 196320, Note_on_c, 1, 68, 127
1, 196461, Note_off_c, 1, 52, 0
1, 196464, Note_on_c, 1, 50, 127
1, 196545, Note_off_c, 1, 68, 0
1, 196605, Note_off_c, 1, 50, 0
1, 196608, Note_on_c, 1, 47, 127
1, 196608, Note_on_c, 1, 64, 127
1, 196749, Note_off_c, 1, 47, 0
1, 196752, Note_on_c, 1, 44, 127
1, 196833, Note_off_c, 1, 64, 0
1, 196893, Note_off_c, 1, 44, 0
1, 196896, Note_on_c, 1, 50, 127
1, 196896, Note_on_c, 1, 68, 127
1, 197037, Note_off_c, 1, 50, 0
1, 197040, Note_on_c, 1, 47, 127
1, 197121, Note_off_c, 1, 68, 0
1, 197181, Note_off_c, 1, 47, 0
1, 197184, Note_on_c, 1, 44, 127
1, 197184, Note_on_c, 1, 71, 127
1, 197325, Note_off_c, 1, 44, 0
1, 197328, Note_on_c, 1, 47, 127
1, 197409, Note_off_c, 1, 71, 0
1, 197469, Note_off_c, 1, 47, 0
1, 197472, Note_on_c, 1, 40, 127
1, 197472, Note_on_c, 1, 68, 127
1, 197613, Note_off_c, 1, 40, 0
1, 197616, Note_on_c, 1, 50, 127
1, 197697, Note_off_c, 1, 68, 0
1, 197757, Note_off_c, 1, 50, 0
1, 197760, Note_on_c, 1, 48, 127
1, 197760, Note_on_c, 1, 64, 127
1, 197901, Note_off_c, 1, 48, 0
1, 197904, Note_on_c, 1, 47, 127
1, 197985, Note_off_c, 1, 64, 0
1, 198045, Note_off_c, 1, 47, 0
1, 198048, Note_on_c, 1, 49, 127
1, 198048, Note_on_c, 1, 69, 127
1, 198192, Note_on_c, 1, 79, 127
1, 198310, Note_off_c, 1, 49, 0
1, 198333, Note_off_c, 1, 79, 0
1, 198336, Note_on_c, 1, 76, 127
1, 198336, Note_on_c, 1, 45, 127
1, 198477, Note_off_c, 1, 76, 0
1, 198480, Note_on_c, 1, 73, 127
1, 198598, Note_off_c, 1, 45, 0
1, 198621, Note_off_c, 1, 73, 0
1, 198912, Note_on_c, 1, 52, 127
1, 199148, Note_off_c, 1, 69, 0
1, 199174, Note_off_c, 1, 52, 0
1, 199200, Note_on_c, 1, 69, 127
1, 199200, Note_on_c, 1, 49, 127
1, 199341, Note_off_c, 1, 69, 0
1, 199344, Note_on_c, 1, 67, 127
1, 199462, Note_off_c, 1, 49, 0
1, 199485, Note_off_c, 1, 67, 0
1, 199488, Note_on_c, 1, 66, 127
1, 199488, Note_on_c, 1, 45, 127
1, 199629, Note_off_c, 1, 66, 0
1, 199632, Note_on_c, 1, 64, 127
1, 199750, Note_off_c, 1, 45, 0
1, 199773, Note_off_c, 1, 64, 0
1, 199776, Note_on_c, 1, 50, 127
1, 199776, Note_on_c, 1, 66, 127
1, 199917, Note_off_c, 1, 50, 0
1, 199920, Note_on_c, 1, 60, 127
1, 200001, Note_off_c, 1, 66, 0
1, 200061, Note_off_c, 1, 60, 0
1, 200064, Note_on_c, 1, 57, 127
1, 200064, Note_on_c, 1, 74, 127
1, 200205, Note_off_c, 1, 57, 0
1, 200208, Note_on_c, 1, 54, 127
1, 200289, Note_off_c, 1, 74, 0
1, 200349, Note_off_c, 1, 54, 0
1, 200352, Note_on_c, 1, 60, 127
1, 200352, Note_on_c, 1, 78, 127
1, 200493, Note_off_c, 1, 60, 0
1, 200496, Note_on_c, 1, 57, 127
1, 200577, Note_off_c, 1, 78, 0
1, 200637, Note_off_c, 1, 57, 0
1, 200640, Note_on_c, 1, 54, 127
1, 200640, Note_on_c, 1, 81, 127
1, 200781, Note_off_c, 1, 54, 0
1, 200784, Note_on_c, 1, 57, 127
1, 200865, Note_off_c, 1, 81, 0
1, 200925, Note_off_c, 1, 57, 0
1, 200928, Note_on_c, 1, 50, 127
1, 200928, Note_on_c, 1, 78, 127
1, 201069, Note_off_c, 1, 50, 0
1, 201072, Note_on_c, 1, 60, 127
1, 201153, Note_off_c, 1, 78, 0
1, 201213, Note_off_c, 1, 60, 0
1, 201216, Note_on_c, 1, 59, 127
1, 201216, Note_on_c, 1, 74, 127
1, 201357, Note_off_c, 1, 59, 0
1, 201360, Note_on_c, 1, 57, 127
1, 201441, Note_off_c, 1, 74, 0
1, 201501, Note_off_c, 1, 57, 0
1, 201504, Note_on_c, 1, 79, 127
1, 201504, Note_on_c, 1, 59, 127
1, 201648, Note_on_c, 1, 77, 127
1, 201684, Note_off_c, 1, 79, 0
1, 201766, Note_off_c, 1, 59, 0
1, 201789, Note_off_c, 1, 77, 0
1, 201792, Note_on_c, 1, 74, 127
1, 201792, Note_on_c, 1, 55, 127
1, 201933, Note_off_c, 1, 74, 0
1, 201936, Note_on_c, 1, 71, 127
1, 202054, Note_off_c, 1, 55, 0
1, 202080, Note_on_c, 1, 77, 127
1, 202080, Note_on_c, 1, 59, 127
1, 202216, Note_off_c, 1, 71, 0
1, 202221, Note_off_c, 1, 77, 0
1, 202342, Note_off_c, 1, 59, 0
1, 202368, Note_on_c, 1, 71, 127
1, 202368, Note_on_c, 1, 62, 127
1, 202509, Note_off_c, 1, 71, 0
1, 202512, Note_on_c, 1, 74, 127
1, 202630, Note_off_c, 1, 62, 0
1, 202653, Note_off_c, 1, 74, 0
1, 202656, Note_on_c, 1, 59, 127
1, 202656, Note_on_c, 1, 67, 127
1, 202800, Note_on_c, 1, 77, 127
1, 202918, Note_off_c, 1, 59, 0
1, 202936, Note_off_c, 1, 67, 0
1, 202941, Note_off_c, 1, 77, 0
1, 202944, Note_on_c, 1, 76, 127
1, 202944, Note_on_c, 1, 55, 127
1, 203085, Note_off_c, 1, 76, 0
1, 203088, Note_on_c, 1, 74, 127
1, 203206, Note_off_c, 1, 55, 0
1, 203229, Note_off_c, 1, 74, 0
1, 203232, Note_on_c, 1, 76, 127
1, 203232, Note_on_c, 1, 60, 127
1, 203373, Note_off_c, 1, 76, 0
1, 203376, Note_on_c, 1, 74, 127
1, 203517, Note_off_c, 1, 60, 0
1, 203517, Note_off_c, 1, 74, 0
1, 203520, Note_on_c, 1, 72, 127
1, 203520, Note_on_c, 1, 55, 127
1, 203661, Note_off_c, 1, 72, 0
1, 203664, Note_on_c, 1, 71, 127
1, 203805, Note_off_c, 1, 55, 0
1, 203805, Note_off_c, 1, 71, 0
1, 203808, Note_on_c, 1, 69, 127
1, 203808, Note_on_c, 1, 48, 127
1, 203949, Note_off_c, 1, 69, 0
1, 203952, Note_on_c, 1, 72, 127
1, 204093, Note_off_c, 1, 48, 0
1, 204093, Note_off_c, 1, 72, 0
1, 204096, Note_on_c, 1, 74, 127
1, 204096, Note_on_c, 1, 60, 127
1, 204237, Note_off_c, 1, 74, 0
1, 204240, Note_on_c, 1, 78, 127
1, 204381, Note_off_c, 1, 60, 0
1, 204381, Note_off_c, 1, 78, 0
1, 204384, Note_on_c, 1, 59, 127
1, 204384, Note_on_c, 1, 79, 127
1, 204525, Note_off_c, 1, 59, 0
1, 204525, Note_off_c, 1, 79, 0
1, 204528, Note_on_c, 1, 55, 127
1, 204528, Note_on_c, 1, 71, 127
1, 204669, Note_off_c, 1, 55, 0
1, 204669, Note_off_c, 1, 71, 0
1, 204672, Note_on_c, 1, 57, 127
1, 204672, Note_on_c, 1, 72, 127
1, 204813, Note_off_c, 1, 57, 0
1, 204813, Note_off_c, 1, 72, 0
1, 204816, Note_on_c, 1, 54, 127
1, 204816, Note_on_c, 1, 69, 127
1, 204957, Note_off_c, 1, 54, 0
1, 204957, Note_off_c, 1, 69, 0
1, 204960, Note_on_c, 1, 55, 127
1, 204960, Note_on_c, 1, 71, 127
1, 205104, Note_on_c, 1, 74, 127
1, 205245, Note_off_c, 1, 55, 0
1, 205245, Note_off_c, 1, 74, 0
1, 205248, Note_on_c, 1, 76, 127
1, 205248, Note_on_c, 1, 53, 127
1, 205380, Note_off_c, 1, 71, 0
1, 205389, Note_off_c, 1, 76, 0
1, 205392, Note_on_c, 1, 77, 127
1, 205533, Note_off_c, 1, 53, 0
1, 205533, Note_off_c, 1, 77, 0
1, 205536, Note_on_c, 1, 52, 127
1, 205536, Note_on_c, 1, 79, 127
1, 205680, Note_on_c, 1, 69, 127
1, 205821, Note_off_c, 1, 52, 0
1, 205821, Note_off_c, 1, 69, 0
1, 205824, Note_on_c, 1, 70, 127
1, 205824, Note_on_c, 1, 50, 127
1, 205956, Note_off_c, 1, 79, 0
1, 205965, Note_off_c, 1, 70, 0
1, 205968, Note_on_c, 1, 67, 127
1, 206109, Note_off_c, 1, 50, 0
1, 206109, Note_off_c, 1, 67, 0
1, 206112, Note_on_c, 1, 52, 127
1, 206112, Note_on_c, 1, 79, 127
1, 206256, Note_on_c, 1, 69, 127
1, 206397, Note_off_c, 1, 52, 0
1, 206397, Note_off_c, 1, 69, 0
1, 206400, Note_on_c, 1, 70, 127
1, 206400, Note_on_c, 1, 48, 127
1, 206532, Note_off_c, 1, 79, 0
1, 206541, Note_off_c, 1, 70, 0
1, 206544, Note_on_c, 1, 67, 127
1, 206685, Note_off_c, 1, 48, 0
1, 206685, Note_off_c, 1, 67, 0
1, 206688, Note_on_c, 1, 53, 127
1, 206688, Note_on_c, 1, 69, 127
1, 206832, Note_on_c, 1, 72, 127
1, 206973, Note_off_c, 1, 53, 0
1, 206973, Note_off_c, 1, 69, 0
1, 206973, Note_off_c, 1, 72, 0
1, 206976, Note_on_c, 1, 74, 127
1, 206976, Note_on_c, 1, 52, 127
1, 207117, Note_off_c, 1, 74, 0
1, 207120, Note_on_c, 1, 76, 127
1, 207261, Note_off_c, 1, 52, 0
1, 207261, Note_off_c, 1, 76, 0
1, 207264, Note_on_c, 1, 50, 127
1, 207264, Note_on_c, 1, 77, 127
1, 207408, Note_on_c, 1, 67, 127
1, 207549, Note_off_c, 1, 50, 0
1, 207549, Note_off_c, 1, 67, 0
1, 207552, Note_on_c, 1, 69, 127
1, 207552, Note_on_c, 1, 48, 127
1, 207684, Note_off_c, 1, 77, 0
1, 207693, Note_off_c, 1, 69, 0
1, 207696, Note_on_c, 1, 65, 127
1, 207837, Note_off_c, 1, 48, 0
1, 207837, Note_off_c, 1, 65, 0
1, 207840, Note_on_c, 1, 50, 127
1, 207840, Note_on_c, 1, 77, 127
1, 207984, Note_on_c, 1, 67, 127
1, 208125, Note_off_c, 1, 50, 0
1, 208125, Note_off_c, 1, 67, 0
1, 208128, Note_on_c, 1, 69, 127
1, 208128, Note_on_c, 1, 47, 127
1, 208260, Note_off_c, 1, 77, 0
1, 208269, Note_off_c, 1, 69, 0
1, 208272, Note_on_c, 1, 65, 127
1, 208413, Note_off_c, 1, 47, 0
1, 208413, Note_off_c, 1, 65, 0
1, 208416, Note_on_c, 1, 52, 127
1, 208416, Note_on_c, 1, 67, 127
1, 208560, Note_on_c, 1, 64, 127
1, 208701, Note_off_c, 1, 52, 0
1, 208701, Note_off_c, 1, 67, 0
1, 208701, Note_off_c, 1, 64, 0
1, 208704, Note_on_c, 1, 67, 127
1, 208704, Note_on_c, 1, 50, 127
1, 208845, Note_off_c, 1, 67, 0
1, 208848, Note_on_c, 1, 71, 127
1, 208989, Note_off_c, 1, 50, 0
1, 208989, Note_off_c, 1, 71, 0
1, 208992, Note_on_c, 1, 49, 127
1, 208992, Note_on_c, 1, 76, 127
1, 209136, Note_on_c, 1, 65, 127
1, 209277, Note_off_c, 1, 49, 0
1, 209277, Note_off_c, 1, 65, 0
1, 209280, Note_on_c, 1, 67, 127
1, 209280, Note_on_c, 1, 47, 127
1, 209412, Note_off_c, 1, 76, 0
1, 209421, Note_off_c, 1, 67, 0
1, 209424, Note_on_c, 1, 64, 127
1, 209565, Note_off_c, 1, 47, 0
1, 209565, Note_off_c, 1, 64, 0
1, 209568, Note_on_c, 1, 49, 127
1, 209568, Note_on_c, 1, 76, 127
1, 209712, Note_on_c, 1, 65, 127
1, 209853, Note_off_c, 1, 49, 0
1, 209853, Note_off_c, 1, 65, 0
1, 209856, Note_on_c, 1, 67, 127
1, 209856, Note_on_c, 1, 45, 127
1, 209988, Note_off_c, 1, 76, 0
1, 209997, Note_off_c, 1, 67, 0
1, 210000, Note_on_c, 1, 64, 127
1, 210141, Note_off_c, 1, 45, 0
1, 210141, Note_off_c, 1, 64, 0
1, 210144, Note_on_c, 1, 50, 127
1, 210144, Note_on_c, 1, 65, 127
1, 210288, Note_on_c, 1, 62, 127
1, 210429, Note_off_c, 1, 50, 0
1, 210429, Note_off_c, 1, 65, 0
1, 210429, Note_off_c, 1, 62, 0
1, 210432, Note_on_c, 1, 65, 127
1, 210432, Note_on_c, 1, 48, 127
1, 210573, Note_off_c, 1, 65, 0
1, 210576, Note_on_c, 1, 69, 127
1, 210717, Note_off_c, 1, 48, 0
1, 210717, Note_off_c, 1, 69, 0
1, 210720, Note_on_c, 1, 47, 127
1, 210720, Note_on_c, 1, 74, 127
1, 210864, Note_on_c, 1, 64, 127
1, 211005, Note_off_c, 1, 47, 0
1, 211005, Note_off_c, 1, 64, 0
1, 211008, Note_on_c, 1, 65, 127
1, 211008, Note_on_c, 1, 45, 127
1, 211140, Note_off_c, 1, 74, 0
1, 211149, Note_off_c, 1, 65, 0
1, 211152, Note_on_c, 1, 62, 127
1, 211293, Note_off_c, 1, 45, 0
1, 211293, Note_off_c, 1, 62, 0
1, 211296, Note_on_c, 1, 74, 127
1, 211296, Note_on_c, 1, 47, 127
1, 211437, Note_off_c, 1, 74, 0
1, 211440, Note_on_c, 1, 64, 127
1, 211581, Note_off_c, 1, 47, 0
1, 211581, Note_off_c, 1, 64, 0
1, 211584, Note_on_c, 1, 65, 127
1, 211584, Note_on_c, 1, 43, 127
1, 211725, Note_off_c, 1, 65, 0
1, 211728, Note_on_c, 1, 62, 127
1, 211869, Note_off_c, 1, 43, 0
1, 211869, Note_off_c, 1, 62, 0
1, 211872, Note_on_c, 1, 64, 127
1, 211872, Note_on_c, 1, 48, 127
1, 212013, Note_off_c, 1, 64, 0
1, 212016, Note_on_c, 1, 62, 127
1, 212157, Note_off_c, 1, 48, 0
1, 212157, Note_off_c, 1, 62, 0
1, 212160, Note_on_c, 1, 60, 127
1, 212160, Note_on_c, 1, 43, 127
1, 212301, Note_off_c, 1, 60, 0
1, 212304, Note_on_c, 1, 59, 127
1, 212445, Note_off_c, 1, 43, 0
1, 212445, Note_off_c, 1, 59, 0
1, 212448, Note_on_c, 1, 36, 127
1, 212448, Note_on_c, 1, 60, 127
1, 212592, Note_on_c, 1, 56, 127
1, 212733, Note_off_c, 1, 36, 0
1, 212733, Note_off_c, 1, 60, 0
1, 212733, Note_off_c, 1, 56, 0
1, 212736, Note_on_c, 1, 57, 127
1, 212736, Note_on_c, 1, 48, 127
1, 212880, Note_on_c, 1, 64, 127
1, 212946, Note_off_c, 1, 57, 0
1, 213021, Note_off_c, 1, 48, 0
1, 213021, Note_off_c, 1, 64, 0
1, 213024, Note_on_c, 1, 47, 127
1, 213024, Note_on_c, 1, 62, 127
1, 213165, Note_off_c, 1, 47, 0
1, 213165, Note_off_c, 1, 62, 0
1, 213168, Note_on_c, 1, 44, 127
1, 213168, Note_on_c, 1, 59, 127
1, 213309, Note_off_c, 1, 44, 0
1, 213309, Note_off_c, 1, 59, 0
1, 213312, Note_on_c, 1, 45, 127
1, 213312, Note_on_c, 1, 60, 127
1, 213453, Note_off_c, 1, 45, 0
1, 213453, Note_off_c, 1, 60, 0
1, 213456, Note_on_c, 1, 42, 127
1, 213456, Note_on_c, 1, 57, 127
1, 213597, Note_off_c, 1, 42, 0
1, 213597, Note_off_c, 1, 57, 0
1, 213600, Note_on_c, 1, 59, 127
1, 213600, Note_on_c, 1, 44, 127
1, 213744, Note_on_c, 1, 62, 127
1, 213795, Note_off_c, 1, 59, 0
1, 213885, Note_off_c, 1, 44, 0
1, 213885, Note_off_c, 1, 62, 0
1, 213888, Note_on_c, 1, 59, 127
1, 213888, Note_on_c, 1, 40, 127
1, 214029, Note_off_c, 1, 59, 0
1, 214032, Note_on_c, 1, 56, 127
1, 214173, Note_off_c, 1, 40, 0
1, 214173, Note_off_c, 1, 56, 0
1, 214176, Note_on_c, 1, 62, 127
1, 214176, Note_on_c, 1, 44, 127
1, 214317, Note_off_c, 1, 62, 0
1, 214320, Note_on_c, 1, 59, 127
1, 214461, Note_off_c, 1, 44, 0
1, 214461, Note_off_c, 1, 59, 0
1, 214464, Note_on_c, 1, 56, 127
1, 214464, Note_on_c, 1, 47, 127
1, 214605, Note_off_c, 1, 56, 0
1, 214608, Note_on_c, 1, 59, 127
1, 214749, Note_off_c, 1, 47, 0
1, 214749, Note_off_c, 1, 59, 0
1, 214752, Note_on_c, 1, 52, 127
1, 214752, Note_on_c, 1, 44, 127
1, 214893, Note_off_c, 1, 52, 0
1, 214896, Note_on_c, 1, 62, 127
1, 215037, Note_off_c, 1, 44, 0
1, 215037, Note_off_c, 1, 62, 0
1, 215040, Note_on_c, 1, 60, 127
1, 215040, Note_on_c, 1, 40, 127
1, 215181, Note_off_c, 1, 60, 0
1, 215184, Note_on_c, 1, 59, 127
1, 215325, Note_off_c, 1, 40, 0
1, 215325, Note_off_c, 1, 59, 0
1, 215328, Note_on_c, 1, 60, 127
1, 215328, Note_on_c, 1, 45, 127
1, 215472, Note_on_c, 1, 57, 127
1, 215523, Note_off_c, 1, 60, 0
1, 215583, Note_off_c, 1, 45, 0
1, 215613, Note_off_c, 1, 57, 0
1, 215616, Note_on_c, 1, 61, 127
1, 215616, Note_on_c, 1, 45, 127
1, 215757, Note_off_c, 1, 61, 0
1, 215760, Note_on_c, 1, 64, 127
1, 215901, Note_off_c, 1, 45, 0
1, 215901, Note_off_c, 1, 64, 0
1, 215904, Note_on_c, 1, 67, 127
1, 215904, Note_on_c, 1, 49, 127
1, 216045, Note_off_c, 1, 67, 0
1, 216048, Note_on_c, 1, 64, 127
1, 216189, Note_off_c, 1, 49, 0
1, 216189, Note_off_c, 1, 64, 0
1, 216192, Note_on_c, 1, 61, 127
1, 216192, Note_on_c, 1, 52, 127
1, 216333, Note_off_c, 1, 61, 0
1, 216336, Note_on_c, 1, 64, 127
1, 216477, Note_off_c, 1, 52, 0
1, 216477, Note_off_c, 1, 64, 0
1, 216480, Note_on_c, 1, 57, 127
1, 216480, Note_on_c, 1, 49, 127
1, 216621, Note_off_c, 1, 57, 0
1, 216624, Note_on_c, 1, 67, 127
1, 216765, Note_off_c, 1, 49, 0
1, 216765, Note_off_c, 1, 67, 0
1, 216768, Note_on_c, 1, 65, 127
1, 216768, Note_on_c, 1, 45, 127
1, 216909, Note_off_c, 1, 65, 0
1, 216912, Note_on_c, 1, 64, 127
1, 217053, Note_off_c, 1, 45, 0
1, 217053, Note_off_c, 1, 64, 0
1, 217056, Note_on_c, 1, 65, 127
1, 217056, Note_on_c, 1, 50, 127
1, 217197, Note_off_c, 1, 65, 0
1, 217200, Note_on_c, 1, 57, 127
1, 217318, Note_off_c, 1, 50, 0
1, 217341, Note_off_c, 1, 57, 0
1, 217344, Note_on_c, 1, 53, 127
1, 217344, Note_on_c, 1, 62, 127
1, 217485, Note_off_c, 1, 53, 0
1, 217485, Note_off_c, 1, 62, 0
1, 217488, Note_on_c, 1, 52, 127
1, 217488, Note_on_c, 1, 65, 127
1, 217629, Note_off_c, 1, 52, 0
1, 217629, Note_off_c, 1, 65, 0
1, 217632, Note_on_c, 1, 69, 127
1, 217632, Note_on_c, 1, 51, 127
1, 217773, Note_off_c, 1, 69, 0
1, 217776, Note_on_c, 1, 66, 127
1, 217917, Note_off_c, 1, 51, 0
1, 217917, Note_off_c, 1, 66, 0
1, 217920, Note_on_c, 1, 63, 127
1, 217920, Note_on_c, 1, 54, 127
1, 218061, Note_off_c, 1, 63, 0
1, 218064, Note_on_c, 1, 66, 127
1, 218205, Note_off_c, 1, 54, 0
1, 218205, Note_off_c, 1, 66, 0
1, 218208, Note_on_c, 1, 59, 127
1, 218208, Note_on_c, 1, 51, 127
1, 218349, Note_off_c, 1, 59, 0
1, 218352, Note_on_c, 1, 69, 127
1, 218493, Note_off_c, 1, 51, 0
1, 218493, Note_off_c, 1, 69, 0
1, 218496, Note_on_c, 1, 68, 127
1, 218496, Note_on_c, 1, 47, 127
1, 218637, Note_off_c, 1, 68, 0
1, 218640, Note_on_c, 1, 66, 127
1, 218781, Note_off_c, 1, 47, 0
1, 218781, Note_off_c, 1, 66, 0
1, 218784, Note_on_c, 1, 68, 127
1, 218784, Note_on_c, 1, 40, 127
1, 218928, Note_on_c, 1, 64, 127
1, 218994, Note_off_c, 1, 68, 0
1, 219069, Note_off_c, 1, 64, 0
1, 219072, Note_on_c, 1, 52, 127
1, 219204, Note_off_c, 1, 40, 0
1, 219216, Note_on_c, 1, 71, 127
1, 219357, Note_off_c, 1, 52, 0
1, 219357, Note_off_c, 1, 71, 0
1, 219360, Note_on_c, 1, 74, 127
1, 219360, Note_on_c, 1, 56, 127
1, 219501, Note_off_c, 1, 74, 0
1, 219504, Note_on_c, 1, 71, 127
1, 219645, Note_off_c, 1, 56, 0
1, 219645, Note_off_c, 1, 71, 0
1, 219648, Note_on_c, 1, 68, 127
1, 219648, Note_on_c, 1, 59, 127
1, 219789, Note_off_c, 1, 68, 0
1, 219792, Note_on_c, 1, 71, 127
1, 219933, Note_off_c, 1, 59, 0
1, 219933, Note_off_c, 1, 71, 0
1, 219936, Note_on_c, 1, 64, 127
1, 219936, Note_on_c, 1, 56, 127
1, 220077, Note_off_c, 1, 64, 0
1, 220080, Note_on_c, 1, 74, 127
1, 220221, Note_off_c, 1, 56, 0
1, 220221, Note_off_c, 1, 74, 0
1, 220224, Note_on_c, 1, 72, 127
1, 220224, Note_on_c, 1, 52, 127
1, 220365, Note_off_c, 1, 72, 0
1, 220368, Note_on_c, 1, 71, 127
1, 220509, Note_off_c, 1, 52, 0
1, 220509, Note_off_c, 1, 71, 0
1, 220512, Note_on_c, 1, 57, 127
1, 220512, Note_on_c, 1, 72, 127
1, 220653, Note_off_c, 1, 57, 0
1, 220656, Note_on_c, 1, 62, 127
1, 220722, Note_off_c, 1, 72, 0
1, 220797, Note_off_c, 1, 62, 0
1, 220800, Note_on_c, 1, 60, 127
1, 220800, Note_on_c, 1, 76, 127
1, 220941, Note_off_c, 1, 60, 0
1, 220944, Note_on_c, 1, 59, 127
1, 221010, Note_off_c, 1, 76, 0
1, 221085, Note_off_c, 1, 59, 0
1, 221088, Note_on_c, 1, 60, 127
1, 221088, Note_on_c, 1, 69, 127
1, 221229, Note_off_c, 1, 60, 0
1, 221232, Note_on_c, 1, 59, 127
1, 221298, Note_off_c, 1, 69, 0
1, 221373, Note_off_c, 1, 59, 0
1, 221376, Note_on_c, 1, 60, 127
1, 221376, Note_on_c, 1, 81, 127
1, 221517, Note_off_c, 1, 60, 0
1, 221520, Note_on_c, 1, 64, 127
1, 221586, Note_off_c, 1, 81, 0
1, 221661, Note_off_c, 1, 64, 0
1, 221664, Note_on_c, 1, 61, 127
1, 221664, Note_on_c, 1, 79, 127
1, 221805, Note_off_c, 1, 61, 0
1, 221805, Note_off_c, 1, 79, 0
1, 221808, Note_on_c, 1, 64, 127
1, 221808, Note_on_c, 1, 76, 127
1, 221949, Note_off_c, 1, 64, 0
1, 221949, Note_off_c, 1, 76, 0
1, 221952, Note_on_c, 1, 62, 127
1, 221952, Note_on_c, 1, 77, 127
1, 222093, Note_off_c, 1, 62, 0
1, 222093, Note_off_c, 1, 77, 0
1, 222096, Note_on_c, 1, 65, 127
1, 222096, Note_on_c, 1, 74, 127
1, 222237, Note_off_c, 1, 65, 0
1, 222237, Note_off_c, 1, 74, 0
1, 222240, Note_on_c, 1, 83, 127
1, 222240, Note_on_c, 1, 56, 127
1, 222381, Note_off_c, 1, 83, 0
1, 222384, Note_on_c, 1, 81, 127
1, 222502, Note_off_c, 1, 56, 0
1, 222525, Note_off_c, 1, 81, 0
1, 222528, Note_on_c, 1, 80, 127
1, 222528, Note_on_c, 1, 59, 127
1, 222669, Note_off_c, 1, 80, 0
1, 222672, Note_on_c, 1, 78, 127
1, 222790, Note_off_c, 1, 59, 0
1, 222813, Note_off_c, 1, 78, 0
1, 222816, Note_on_c, 1, 80, 127
1, 222816, Note_on_c, 1, 52, 127
1, 222957, Note_off_c, 1, 80, 0
1, 222960, Note_on_c, 1, 78, 127
1, 223078, Note_off_c, 1, 52, 0
1, 223101, Note_off_c, 1, 78, 0
1, 223104, Note_on_c, 1, 80, 127
1, 223104, Note_on_c, 1, 64, 127
1, 223245, Note_off_c, 1, 80, 0
1, 223248, Note_on_c, 1, 83, 127
1, 223366, Note_off_c, 1, 64, 0
1, 223389, Note_off_c, 1, 83, 0
1, 223392, Note_on_c, 1, 62, 127
1, 223392, Note_on_c, 1, 76, 127
1, 223533, Note_off_c, 1, 62, 0
1, 223533, Note_off_c, 1, 76, 0
1, 223536, Note_on_c, 1, 59, 127
1, 223536, Note_on_c, 1, 80, 127
1, 223677, Note_off_c, 1, 59, 0
1, 223677, Note_off_c, 1, 80, 0
1, 223680, Note_on_c, 1, 60, 127
1, 223680, Note_on_c, 1, 81, 127
1, 223821, Note_off_c, 1, 60, 0
1, 223821, Note_off_c, 1, 81, 0
1, 223824, Note_on_c, 1, 57, 127
1, 223824, Note_on_c, 1, 72, 127
1, 223965, Note_off_c, 1, 57, 0
1, 223965, Note_off_c, 1, 72, 0
1, 223968, Note_on_c, 1, 74, 127
1, 223968, Note_on_c, 1, 59, 127
1, 224112, Note_on_c, 1, 77, 127
1, 224238, Note_off_c, 1, 74, 0
1, 224253, Note_off_c, 1, 59, 0
1, 224253, Note_off_c, 1, 77, 0
1, 224256, Note_on_c, 1, 72, 127
1, 224256, Note_on_c, 1, 57, 127
1, 224400, Note_on_c, 1, 77, 127
1, 224526, Note_off_c, 1, 72, 0
1, 224541, Note_off_c, 1, 57, 0
1, 224541, Note_off_c, 1, 77, 0
1, 224544, Note_on_c, 1, 71, 127
1, 224544, Note_on_c, 1, 56, 127
1, 224688, Note_on_c, 1, 77, 127
1, 224814, Note_off_c, 1, 71, 0
1, 224829, Note_off_c, 1, 56, 0
1, 224829, Note_off_c, 1, 77, 0
1, 224832, Note_on_c, 1, 72, 127
1, 224832, Note_on_c, 1, 57, 127
1, 224976, Note_on_c, 1, 77, 127
1, 225072, Note_off_c, 1, 72, 0
1, 225117, Note_off_c, 1, 57, 0
1, 225117, Note_off_c, 1, 77, 0
1, 225120, Note_on_c, 1, 71, 127
1, 225120, Note_on_c, 1, 59, 127
1, 225264, Note_on_c, 1, 77, 127
1, 225330, Note_off_c, 1, 71, 0
1, 225405, Note_off_c, 1, 59, 0
1, 225405, Note_off_c, 1, 77, 0
1, 225408, Note_on_c, 1, 69, 127
1, 225408, Note_on_c, 1, 60, 127
1, 225552, Note_on_c, 1, 77, 127
1, 225573, Note_off_c, 1, 69, 0
1, 225693, Note_off_c, 1, 60, 0
1, 225693, Note_off_c, 1, 77, 0
1, 225696, Note_on_c, 1, 62, 127
1, 225696, Note_on_c, 1, 68, 127
1, 225840, Note_on_c, 1, 71, 127
1, 225981, Note_off_c, 1, 62, 0
1, 225981, Note_off_c, 1, 71, 0
1, 225984, Note_on_c, 1, 50, 127
1, 225984, Note_on_c, 1, 76, 127
1, 226116, Note_off_c, 1, 68, 0
1, 226128, Note_on_c, 1, 64, 127
1, 226269, Note_off_c, 1, 50, 0
1, 226269, Note_off_c, 1, 64, 0
1, 226272, Note_on_c, 1, 48, 127
1, 226272, Note_on_c, 1, 69, 127
1, 226416, Note_on_c, 1, 72, 127
1, 226554, Note_off_c, 1, 76, 0
1, 226557, Note_off_c, 1, 48, 0
1, 226557, Note_off_c, 1, 72, 0
1, 226560, Note_on_c, 1, 60, 127
1, 226692, Note_off_c, 1, 69, 0
1, 226845, Note_off_c, 1, 60, 0
1, 226848, Note_on_c, 1, 59, 127
1, 226848, Note_on_c, 1, 68, 127
1, 226992, Note_on_c, 1, 71, 127
1, 227133, Note_off_c, 1, 59, 0
1, 227133, Note_off_c, 1, 68, 0
1, 227133, Note_off_c, 1, 71, 0
1, 227136, Note_on_c, 1, 74, 127
1, 227136, Note_on_c, 1, 52, 127
1, 227277, Note_off_c, 1, 74, 0
1, 227280, Note_on_c, 1, 64, 127
1, 227421, Note_off_c, 1, 52, 0
1, 227421, Note_off_c, 1, 64, 0
1, 227424, Note_on_c, 1, 72, 127
1, 227424, Note_on_c, 1, 45, 127
1, 227565, Note_off_c, 1, 72, 0
1, 227568, Note_on_c, 1, 71, 127
1, 227709, Note_off_c, 1, 45, 0
1, 227709, Note_off_c, 1, 71, 0
1, 227712, Note_on_c, 1, 69, 127
1, 227712, Note_on_c, 1, 57, 127
1, 227853, Note_off_c, 1, 69, 0
1, 227856, Note_on_c, 1, 67, 127
1, 227997, Note_off_c, 1, 67, 0
1, 228000, Note_on_c, 1, 65, 127
1, 228141, Note_off_c, 1, 57, 0
1, 228141, Note_off_c, 1, 65, 0
1, 228144, Note_on_c, 1, 55, 127
1, 228144, Note_on_c, 1, 64, 127
1, 228285, Note_off_c, 1, 55, 0
1, 228285, Note_off_c, 1, 64, 0
1, 228288, Note_on_c, 1, 53, 127
1, 228288, Note_on_c, 1, 62, 127
1, 228429, Note_off_c, 1, 53, 0
1, 228429, Note_off_c, 1, 62, 0
1, 228432, Note_on_c, 1, 52, 127
1, 228432, Note_on_c, 1, 64, 127
1, 228573, Note_off_c, 1, 52, 0
1, 228573, Note_off_c, 1, 64, 0
1, 228576, Note_on_c, 1, 50, 127
1, 228576, Note_on_c, 1, 65, 127
1, 228717, Note_off_c, 1, 50, 0
1, 228717, Note_off_c, 1, 65, 0
1, 228720, Note_on_c, 1, 48, 127
1, 228720, Note_on_c, 1, 64, 127
1, 228861, Note_off_c, 1, 48, 0
1, 228861, Note_off_c, 1, 64, 0
1, 228864, Note_on_c, 1, 65, 127
1, 228864, Note_on_c, 1, 50, 127
1, 229005, Note_off_c, 1, 65, 0
1, 229008, Note_on_c, 1, 38, 127
1, 229008, Note_on_c, 1, 72, 127
1, 229149, Note_off_c, 1, 50, 0
1, 229149, Note_off_c, 1, 38, 0
1, 229149, Note_off_c, 1, 72, 0
1, 229152, Note_on_c, 1, 71, 127
1, 229152, Note_on_c, 1, 43, 127
1, 229293, Note_off_c, 1, 71, 0
1, 229296, Note_on_c, 1, 69, 127
1, 229437, Note_off_c, 1, 43, 0
1, 229437, Note_off_c, 1, 69, 0
1, 229440, Note_on_c, 1, 67, 127
1, 229440, Note_on_c, 1, 55, 127
1, 229581, Note_off_c, 1, 67, 0
1, 229584, Note_on_c, 1, 65, 127
1, 229725, Note_off_c, 1, 65, 0
1, 229728, Note_on_c, 1, 64, 127
1, 229869, Note_off_c, 1, 55, 0
1, 229869, Note_off_c, 1, 64, 0
1, 229872, Note_on_c, 1, 53, 127
1, 229872, Note_on_c, 1, 62, 127
1, 230013, Note_off_c, 1, 53, 0
1, 230013, Note_off_c, 1, 62, 0
1, 230016, Note_on_c, 1, 52, 127
1, 230016, Note_on_c, 1, 60, 127
1, 230157, Note_off_c, 1, 52, 0
1, 230157, Note_off_c, 1, 60, 0
1, 230160, Note_on_c, 1, 50, 127
1, 230160, Note_on_c, 1, 62, 127
1, 230301, Note_off_c, 1, 50, 0
1, 230301, Note_off_c, 1, 62, 0
1, 230304, Note_on_c, 1, 48, 127
1, 230304, Note_on_c, 1, 64, 127
1, 230445, Note_off_c, 1, 48, 0
1, 230445, Note_off_c, 1, 64, 0
1, 230448, Note_on_c, 1, 46, 127
1, 230448, Note_on_c, 1, 62, 127
1, 230589, Note_off_c, 1, 46, 0
1, 230589, Note_off_c, 1, 62, 0
1, 230592, Note_on_c, 1, 64, 127
1, 230592, Note_on_c, 1, 48, 127
1, 230733, Note_off_c, 1, 64, 0
1, 230736, Note_on_c, 1, 36, 127
1, 230736, Note_on_c, 1, 70, 127
1, 230877, Note_off_c, 1, 48, 0
1, 230877, Note_off_c, 1, 36, 0
1, 230877, Note_off_c, 1, 70, 0
1, 230880, Note_on_c, 1, 69, 127
1, 230880, Note_on_c, 1, 41, 127
1, 231021, Note_off_c, 1, 69, 0
1, 231024, Note_on_c, 1, 67, 127
1, 231165, Note_off_c, 1, 41, 0
1, 231165, Note_off_c, 1, 67, 0
1, 231168, Note_on_c, 1, 65, 127
1, 231168, Note_on_c, 1, 45, 127
1, 231309, Note_off_c, 1, 65, 0
1, 231312, Note_on_c, 1, 64, 127
1, 231453, Note_off_c, 1, 45, 0
1, 231453, Note_off_c, 1, 64, 0
1, 231456, Note_on_c, 1, 65, 127
1, 231456, Note_on_c, 1, 38, 127
1, 231597, Note_off_c, 1, 65, 0
1, 231600, Note_on_c, 1, 64, 127
1, 231741, Note_off_c, 1, 38, 0
1, 231741, Note_off_c, 1, 64, 0
1, 231744, Note_on_c, 1, 50, 127
1, 231744, Note_on_c, 1, 65, 127
1, 231885, Note_off_c, 1, 50, 0
1, 231885, Note_off_c, 1, 65, 0
1, 231888, Note_on_c, 1, 48, 127
1, 231888, Note_on_c, 1, 69, 127
1, 232029, Note_off_c, 1, 48, 0
1, 232029, Note_off_c, 1, 69, 0
1, 232032, Note_on_c, 1, 47, 127
1, 232032, Note_on_c, 1, 68, 127
1, 232173, Note_off_c, 1, 47, 0
1, 232173, Note_off_c, 1, 68, 0
1, 232176, Note_on_c, 1, 44, 127
1, 232176, Note_on_c, 1, 71, 127
1, 232317, Note_off_c, 1, 44, 0
1, 232317, Note_off_c, 1, 71, 0
1, 232320, Note_on_c, 1, 45, 127
1, 232320, Note_on_c, 1, 69, 127
1, 232461, Note_off_c, 1, 45, 0
1, 232461, Note_off_c, 1, 69, 0
1, 232464, Note_on_c, 1, 42, 127
1, 232464, Note_on_c, 1, 72, 127
1, 232605, Note_off_c, 1, 42, 0
1, 232605, Note_off_c, 1, 72, 0
1, 232608, Note_on_c, 1, 71, 127
1, 232608, Note_on_c, 1, 44, 127
1, 232749, Note_off_c, 1, 71, 0
1, 232752, Note_on_c, 1, 72, 127
1, 232893, Note_off_c, 1, 72, 0
1, 232896, Note_on_c, 1, 74, 127
1, 233037, Note_off_c, 1, 74, 0
1, 233184, Note_on_c, 1, 68, 127
1, 233325, Note_off_c, 1, 68, 0
1, 233328, Note_off_c, 1, 44, 0
1, 233328, Note_on_c, 1, 64, 127
1, 233469, Note_off_c, 1, 64, 0
1, 233472, Note_on_c, 1, 65, 127
1, 233472, Note_on_c, 1, 47, 127
1, 233613, Note_off_c, 1, 65, 0
1, 233616, Note_on_c, 1, 62, 127
1, 233757, Note_off_c, 1, 47, 0
1, 233757, Note_off_c, 1, 62, 0
1, 233760, Note_on_c, 1, 64, 127
1, 233760, Note_on_c, 1, 44, 127
1, 233901, Note_off_c, 1, 64, 0
1, 233904, Note_on_c, 1, 60, 127
1, 234045, Note_off_c, 1, 44, 0
1, 234045, Note_off_c, 1, 60, 0
1, 234048, Note_on_c, 1, 62, 127
1, 234048, Note_on_c, 1, 40, 127
1, 234189, Note_off_c, 1, 62, 0
1, 234192, Note_on_c, 1, 59, 127
1, 234333, Note_off_c, 1, 40, 0
1, 234333, Note_off_c, 1, 59, 0
1, 234336, Note_on_c, 1, 60, 127
1, 234336, Note_on_c, 1, 45, 127
1, 234477, Note_off_c, 1, 60, 0
1, 234480, Note_on_c, 1, 64, 127
1, 234621, Note_off_c, 1, 64, 0
1, 234624, Note_on_c, 1, 69, 127
1, 234765, Note_off_c, 1, 69, 0
1, 234768, Note_on_c, 1, 68, 127
1, 234906, Note_off_c, 1, 45, 0
1, 234909, Note_off_c, 1, 68, 0
1, 234912, Note_on_c, 1, 69, 127
1, 235053, Note_off_c, 1, 69, 0
1, 235056, Note_on_c, 1, 62, 127
1, 235197, Note_off_c, 1, 62, 0
1, 235200, Note_on_c, 1, 64, 127
1, 235200, Note_on_c, 1, 48, 127
1, 235341, Note_off_c, 1, 64, 0
1, 235344, Note_on_c, 1, 60, 127
1, 235485, Note_off_c, 1, 48, 0
1, 235485, Note_off_c, 1, 60, 0
1, 235488, Note_on_c, 1, 62, 127
1, 235488, Note_on_c, 1, 47, 127
1, 235629, Note_off_c, 1, 62, 0
1, 235632, Note_on_c, 1, 59, 127
1, 235773, Note_off_c, 1, 47, 0
1, 235773, Note_off_c, 1, 59, 0
1, 235776, Note_on_c, 1, 60, 127
1, 235776, Note_on_c, 1, 45, 127
1, 235917, Note_off_c, 1, 60, 0
1, 235920, Note_on_c, 1, 57, 127
1, 236061, Note_off_c, 1, 45, 0
1, 236061, Note_off_c, 1, 57, 0
1, 236064, Note_on_c, 1, 56, 127
1, 236064, Note_on_c, 1, 52, 127
1, 236205, Note_off_c, 1, 56, 0
1, 236208, Note_on_c, 1, 64, 127
1, 236349, Note_off_c, 1, 64, 0
1, 236352, Note_on_c, 1, 71, 127
1, 236493, Note_off_c, 1, 71, 0
1, 236496, Note_on_c, 1, 69, 127
1, 236637, Note_off_c, 1, 69, 0
1, 236874, Note_off_c, 1, 52, 0
1, 236928, Note_on_c, 1, 65, 127
1, 236928, Note_on_c, 1, 52, 127
1, 237069, Note_off_c, 1, 65, 0
1, 237072, Note_on_c, 1, 62, 127
1, 237213, Note_off_c, 1, 52, 0
1, 237213, Note_off_c, 1, 62, 0
1, 237216, Note_on_c, 1, 64, 127
1, 237216, Note_on_c, 1, 54, 127
1, 237357, Note_off_c, 1, 64, 0
1, 237360, Note_on_c, 1, 60, 127
1, 237501, Note_off_c, 1, 54, 0
1, 237501, Note_off_c, 1, 60, 0
1, 237504, Note_on_c, 1, 62, 127
1, 237504, Note_on_c, 1, 56, 127
1, 237645, Note_off_c, 1, 62, 0
1, 237648, Note_on_c, 1, 59, 127
1, 237789, Note_off_c, 1, 56, 0
1, 237789, Note_off_c, 1, 59, 0
1, 237792, Note_on_c, 1, 60, 127
1, 237792, Note_on_c, 1, 57, 127
1, 237933, Note_off_c, 1, 60, 0
1, 237936, Note_on_c, 1, 62, 127
1, 238077, Note_off_c, 1, 62, 0
1, 238080, Note_on_c, 1, 64, 127
1, 238221, Note_off_c, 1, 57, 0
1, 238221, Note_off_c, 1, 64, 0
1, 238224, Note_on_c, 1, 56, 127
1, 238224, Note_on_c, 1, 59, 127
1, 238365, Note_off_c, 1, 56, 0
1, 238365, Note_off_c, 1, 59, 0
1, 238368, Note_on_c, 1, 57, 127
1, 238368, Note_on_c, 1, 60, 127
1, 238509, Note_off_c, 1, 57, 0
1, 238512, Note_on_c, 1, 52, 127
1, 238653, Note_off_c, 1, 60, 0
1, 238653, Note_off_c, 1, 52, 0
1, 238656, Note_on_c, 1, 53, 127
1, 238656, Note_on_c, 1, 62, 127
1, 238797, Note_off_c, 1, 53, 0
1, 238800, Note_on_c, 1, 50, 127
1, 238941, Note_off_c, 1, 62, 0
1, 238941, Note_off_c, 1, 50, 0
1, 238944, Note_on_c, 1, 52, 127
1, 238944, Note_on_c, 1, 60, 127
1, 239085, Note_off_c, 1, 52, 0
1, 239088, Note_on_c, 1, 48, 127
1, 239229, Note_off_c, 1, 60, 0
1, 239229, Note_off_c, 1, 48, 0
1, 239232, Note_on_c, 1, 50, 127
1, 239232, Note_on_c, 1, 59, 127
1, 239373, Note_off_c, 1, 50, 0
1, 239376, Note_on_c, 1, 47, 127
1, 239517, Note_off_c, 1, 59, 0
1, 239517, Note_off_c, 1, 47, 0
1, 239520, Note_on_c, 1, 48, 127
1, 239520, Note_on_c, 1, 57, 127
1, 239661, Note_off_c, 1, 48, 0
1, 239661, Note_off_c, 1, 57, 0
1, 239664, Note_on_c, 1, 50, 127
1, 239664, Note_on_c, 1, 59, 127
1, 239805, Note_off_c, 1, 50, 0
1, 239805, Note_off_c, 1, 59, 0
1, 239808, Note_on_c, 1, 52, 127
1, 239808, Note_on_c, 1, 60, 127
1, 239949, Note_off_c, 1, 52, 0
1, 239949, Note_off_c, 1, 60, 0
1, 239952, Note_on_c, 1, 47, 127
1, 239952, Note_on_c, 1, 56, 127
1, 240093, Note_off_c, 1, 47, 0
1, 240093, Note_off_c, 1, 56, 0
1, 240096, Note_on_c, 1, 48, 127
1, 240096, Note_on_c, 1, 57, 127
1, 240240, Note_on_c, 1, 52, 127
1, 240381, Note_off_c, 1, 48, 0
1, 240381, Note_off_c, 1, 57, 0
1, 240381, Note_off_c, 1, 52, 0
1, 240384, Note_on_c, 1, 53, 127
1, 240384, Note_on_c, 1, 50, 127
1, 240525, Note_off_c, 1, 53, 0
1, 240528, Note_on_c, 1, 59, 127
1, 240669, Note_off_c, 1, 50, 0
1, 240672, Note_on_c, 1, 52, 127
1, 240672, Note_on_c, 1, 48, 127
1, 240813, Note_off_c, 1, 59, 0
1, 240813, Note_off_c, 1, 52, 0
1, 240816, Note_on_c, 1, 57, 127
1, 240957, Note_off_c, 1, 48, 0
1, 240960, Note_on_c, 1, 47, 127
1, 241101, Note_off_c, 1, 57, 0
1, 241104, Note_on_c, 1, 56, 127
1, 241245, Note_off_c, 1, 47, 0
1, 241245, Note_off_c, 1, 56, 0
1, 241248, Note_on_c, 1, 48, 127
1, 241248, Note_on_c, 1, 45, 127
1, 241392, Note_on_c, 1, 52, 127
1, 241533, Note_off_c, 1, 52, 0
1, 241536, Note_on_c, 1, 57, 127
1, 241668, Note_off_c, 1, 48, 0
1, 241677, Note_off_c, 1, 45, 0
1, 241680, Note_on_c, 1, 44, 127
1, 241680, Note_on_c, 1, 47, 127
1, 241821, Note_off_c, 1, 44, 0
1, 241821, Note_off_c, 1, 47, 0
1, 241968, Note_on_c, 1, 40, 127
1, 242106, Note_off_c, 1, 57, 0
1, 242109, Note_off_c, 1, 40, 0
1, 242112, Note_on_c, 1, 47, 127
1, 242112, Note_on_c, 1, 56, 127
1, 242112, Note_on_c, 1, 50, 127
1, 242253, Note_off_c, 1, 47, 0
1, 242256, Note_on_c, 1, 40, 127
1, 242397, Note_off_c, 1, 56, 0
1, 242397, Note_off_c, 1, 50, 0
1, 242397, Note_off_c, 1, 40, 0
1, 242400, Note_on_c, 1, 48, 127
1, 242400, Note_on_c, 1, 57, 127
1, 242400, Note_on_c, 1, 52, 127
1, 242541, Note_off_c, 1, 48, 0
1, 242541, Note_off_c, 1, 57, 0
1, 242544, Note_on_c, 1, 40, 127
1, 242544, Note_on_c, 1, 60, 127
1, 242685, Note_off_c, 1, 52, 0
1, 242685, Note_off_c, 1, 40, 0
1, 242685, Note_off_c, 1, 60, 0
1, 242688, Note_on_c, 1, 50, 127
1, 242688, Note_on_c, 1, 59, 127
1, 242688, Note_on_c, 1, 53, 127
1, 242829, Note_off_c, 1, 50, 0
1, 242829, Note_off_c, 1, 59, 0
1, 242832, Note_on_c, 1, 40, 127
1, 242832, Note_on_c, 1, 62, 127
1, 242973, Note_off_c, 1, 53, 0
1, 242973, Note_off_c, 1, 40, 0
1, 242973, Note_off_c, 1, 62, 0
1, 242976, Note_on_c, 1, 56, 127
1, 242976, Note_on_c, 1, 52, 127
1, 243117, Note_off_c, 1, 56, 0
1, 243120, Note_on_c, 1, 59, 127
1, 243261, Note_off_c, 1, 59, 0
1, 243264, Note_on_c, 1, 62, 127
1, 243264, Note_on_c, 1, 40, 127
1, 243405, Note_off_c, 1, 62, 0
1, 243408, Note_on_c, 1, 65, 127
1, 243549, Note_off_c, 1, 65, 0
1, 243834, Note_off_c, 1, 40, 0
1, 243966, Note_off_c, 1, 52, 0
1, 243984, Note_on_c, 1, 59, 127
1, 244125, Note_off_c, 1, 59, 0
1, 244128, Note_on_c, 1, 52, 127
1, 244272, Note_on_c, 1, 62, 127
1, 244338, Note_off_c, 1, 52, 0
1, 244413, Note_off_c, 1, 62, 0
1, 244416, Note_on_c, 1, 60, 127
1, 244557, Note_off_c, 1, 60, 0
1, 244560, Note_on_c, 1, 59, 127
1, 244701, Note_off_c, 1, 59, 0
1, 244704, Note_on_c, 1, 60, 127
1, 244704, Note_on_c, 1, 57, 127
1, 244845, Note_off_c, 1, 60, 0
1, 244848, Note_on_c, 1, 64, 127
1, 244989, Note_off_c, 1, 64, 0
1, 244992, Note_on_c, 1, 69, 127
1, 245133, Note_off_c, 1, 57, 0
1, 245136, Note_on_c, 1, 56, 127
1, 245136, Note_on_c, 1, 59, 127
1, 245277, Note_off_c, 1, 56, 0
1, 245277, Note_off_c, 1, 59, 0
1, 245424, Note_on_c, 1, 52, 127
1, 245562, Note_off_c, 1, 69, 0
1, 245565, Note_off_c, 1, 52, 0
1, 245568, Note_on_c, 1, 59, 127
1, 245568, Note_on_c, 1, 62, 127
1, 245568, Note_on_c, 1, 68, 127
1, 245709, Note_off_c, 1, 59, 0
1, 245712, Note_on_c, 1, 52, 127
1, 245853, Note_off_c, 1, 62, 0
1, 245853, Note_off_c, 1, 68, 0
1, 245853, Note_off_c, 1, 52, 0
1, 245856, Note_on_c, 1, 60, 127
1, 245856, Note_on_c, 1, 64, 127
1, 245856, Note_on_c, 1, 69, 127
1, 245997, Note_off_c, 1, 60, 0
1, 246000, Note_on_c, 1, 52, 127
1, 246000, Note_on_c, 1, 72, 127
1, 246141, Note_off_c, 1, 64, 0
1, 246141, Note_off_c, 1, 69, 0
1, 246141, Note_off_c, 1, 52, 0
1, 246141, Note_off_c, 1, 72, 0
1, 246144, Note_on_c, 1, 62, 127
1, 246144, Note_on_c, 1, 65, 127
1, 246144, Note_on_c, 1, 71, 127
1, 246285, Note_off_c, 1, 62, 0
1, 246288, Note_on_c, 1, 52, 127
1, 246288, Note_on_c, 1, 74, 127
1, 246429, Note_off_c, 1, 65, 0
1, 246429, Note_off_c, 1, 71, 0
1, 246429, Note_off_c, 1, 52, 0
1, 246429, Note_off_c, 1, 74, 0
1, 246432, Note_on_c, 1, 68, 127
1, 246432, Note_on_c, 1, 64, 127
1, 246576, Note_on_c, 1, 71, 127
1, 246720, Note_on_c, 1, 74, 127
1, 246720, Note_on_c, 1, 52, 127
1, 246864, Note_on_c, 1, 77, 127
1, 247005, Note_off_c, 1, 74, 0
1, 247005, Note_off_c, 1, 77, 0
1, 247146, Note_off_c, 1, 71, 0
1, 247294, Note_off_c, 1, 68, 0
1, 247582, Note_off_c, 1, 64, 0
1, 247872, Note_on_c, 1, 72, 127
1, 248010, Note_off_c, 1, 52, 0
1, 248013, Note_off_c, 1, 72, 0
1, 248160, Note_on_c, 1, 69, 127
1, 248160, Note_on_c, 1, 72, 127
1, 248304, Note_on_c, 1, 76, 127
1, 248448, Note_on_c, 1, 81, 127
1, 248589, Note_off_c, 1, 69, 0
1, 248592, Note_on_c, 1, 68, 127
1, 248592, Note_on_c, 1, 71, 127
1, 248730, Note_off_c, 1, 72, 0
1, 248733, Note_off_c, 1, 68, 0
1, 248733, Note_off_c, 1, 71, 0
1, 248880, Note_on_c, 1, 64, 127
1, 249018, Note_off_c, 1, 81, 0
1, 249021, Note_off_c, 1, 64, 0
1, 249024, Note_off_c, 1, 76, 0
1, 249024, Note_on_c, 1, 74, 127
1, 249024, Note_on_c, 1, 80, 127
1, 249309, Note_off_c, 1, 74, 0
1, 249309, Note_off_c, 1, 80, 0
1, 249312, Note_on_c, 1, 81, 127
1, 249312, Note_on_c, 1, 72, 127
1, 249312, Note_on_c, 1, 76, 127
1, 249453, Note_off_c, 1, 81, 0
1, 249456, Note_on_c, 1, 64, 127
1, 249456, Note_on_c, 1, 84, 127
1, 249597, Note_off_c, 1, 72, 0
1, 249597, Note_off_c, 1, 76, 0
1, 249597, Note_off_c, 1, 64, 0
1, 249597, Note_off_c, 1, 84, 0
1, 249600, Note_on_c, 1, 83, 127
1, 249600, Note_on_c, 1, 74, 127
1, 249600, Note_on_c, 1, 77, 127
1, 249741, Note_off_c, 1, 83, 0
1, 249744, Note_on_c, 1, 64, 127
1, 249744, Note_on_c, 1, 81, 127
1, 249885, Note_off_c, 1, 74, 0
1, 249885, Note_off_c, 1, 77, 0
1, 249885, Note_off_c, 1, 64, 0
1, 249885, Note_off_c, 1, 81, 0
1, 249888, Note_on_c, 1, 80, 127
1, 249888, Note_on_c, 1, 76, 127
1, 250029, Note_off_c, 1, 80, 0
1, 250032, Note_on_c, 1, 78, 127
1, 250173, Note_off_c, 1, 78, 0
1, 250176, Note_on_c, 1, 64, 127
1, 250320, Note_on_c, 1, 83, 127
1, 250458, Note_off_c, 1, 76, 0
1, 250461, Note_off_c, 1, 83, 0
1, 250464, Note_on_c, 1, 81, 127
1, 250605, Note_off_c, 1, 81, 0
1, 250746, Note_off_c, 1, 64, 0
1, 250896, Note_on_c, 1, 84, 127
1, 251037, Note_off_c, 1, 84, 0
1, 251040, Note_on_c, 1, 74, 127
1, 251610, Note_off_c, 1, 74, 0
1, 251616, Note_on_c, 1, 72, 127
1, 252186, Note_off_c, 1, 72, 0
1, 252192, Note_on_c, 1, 77, 127
1, 252333, Note_off_c, 1, 77, 0
1, 253344, Note_on_c, 1, 71, 127
1, 253914, Note_off_c, 1, 71, 0
1, 255072, Note_on_c, 1, 69, 127
1, 255642, Note_off_c, 1, 69, 0
1, 256800, Note_on_c, 1, 71, 127
1, 256800, Note_on_c, 1, 68, 127
1, 256941, Note_off_c, 1, 71, 0
1, 256944, Note_on_c, 1, 69, 127
1, 257085, Note_off_c, 1, 68, 0
1, 257085, Note_off_c, 1, 69, 0
1, 257088, Note_on_c, 1, 71, 127
1, 257088, Note_on_c, 1, 64, 127
1, 257229, Note_off_c, 1, 71, 0
1, 257232, Note_on_c, 1, 76, 127
1, 257373, Note_off_c, 1, 76, 0
1, 257376, Note_on_c, 1, 74, 127
1, 257517, Note_off_c, 1, 74, 0
1, 257661, Note_off_c, 1, 64, 0
1, 257664, Note_on_c, 1, 64, 127
1, 257664, Note_on_c, 1, 72, 127
1, 257805, Note_off_c, 1, 64, 0
1, 257805, Note_off_c, 1, 72, 0
1, 257808, Note_on_c, 1, 60, 127
1, 257808, Note_on_c, 1, 69, 127
1, 257949, Note_off_c, 1, 60, 0
1, 257949, Note_off_c, 1, 69, 0
1, 257952, Note_on_c, 1, 62, 127
1, 257952, Note_on_c, 1, 71, 127
1, 258093, Note_off_c, 1, 62, 0
1, 258093, Note_off_c, 1, 71, 0
1, 258096, Note_on_c, 1, 59, 127
1, 258096, Note_on_c, 1, 68, 127
1, 258237, Note_off_c, 1, 59, 0
1, 258237, Note_off_c, 1, 68, 0
1, 258240, Note_on_c, 1, 60, 127
1, 258240, Note_on_c, 1, 69, 127
1, 258381, Note_off_c, 1, 60, 0
1, 258381, Note_off_c, 1, 69, 0
1, 258384, Note_on_c, 1, 57, 127
1, 258384, Note_on_c, 1, 66, 127
1, 258525, Note_off_c, 1, 57, 0
1, 258525, Note_off_c, 1, 66, 0
1, 258528, Note_on_c, 1, 59, 127
1, 258528, Note_on_c, 1, 68, 127
1, 258669, Note_off_c, 1, 59, 0
1, 258672, Note_on_c, 1, 57, 127
1, 258672, Note_on_c, 1, 66, 127
1, 258688, Note_off_c, 1, 68, 0
1, 258813, Note_off_c, 1, 57, 0
1, 258813, Note_off_c, 1, 66, 0
1, 258816, Note_on_c, 1, 59, 127
1, 258816, Note_on_c, 1, 68, 127
1, 258957, Note_off_c, 1, 59, 0
1, 258957, Note_off_c, 1, 68, 0
1, 258960, Note_on_c, 1, 62, 127
1, 258960, Note_on_c, 1, 71, 127
1, 259101, Note_off_c, 1, 62, 0
1, 259101, Note_off_c, 1, 71, 0
1, 259104, Note_on_c, 1, 56, 127
1, 259104, Note_on_c, 1, 64, 127
1, 259245, Note_off_c, 1, 56, 0
1, 259248, Note_on_c, 1, 54, 127
1, 259248, Note_on_c, 1, 63, 127
1, 259264, Note_off_c, 1, 64, 0
1, 259389, Note_off_c, 1, 54, 0
1, 259389, Note_off_c, 1, 63, 0
1, 259392, Note_on_c, 1, 56, 127
1, 259392, Note_on_c, 1, 64, 127
1, 259533, Note_off_c, 1, 56, 0
1, 259533, Note_off_c, 1, 64, 0
1, 259536, Note_on_c, 1, 59, 127
1, 259536, Note_on_c, 1, 68, 127
1, 259677, Note_off_c, 1, 59, 0
1, 259677, Note_off_c, 1, 68, 0
1, 259680, Note_on_c, 1, 53, 127
1, 259680, Note_on_c, 1, 62, 127
1, 259821, Note_off_c, 1, 53, 0
1, 259824, Note_on_c, 1, 52, 127
1, 259824, Note_on_c, 1, 60, 127
1, 259840, Note_off_c, 1, 62, 0
1, 259965, Note_off_c, 1, 52, 0
1, 259965, Note_off_c, 1, 60, 0
1, 259968, Note_on_c, 1, 53, 127
1, 259968, Note_on_c, 1, 62, 127
1, 260109, Note_off_c, 1, 53, 0
1, 260109, Note_off_c, 1, 62, 0
1, 260112, Note_on_c, 1, 57, 127
1, 260112, Note_on_c, 1, 65, 127
1, 260253, Note_off_c, 1, 57, 0
1, 260253, Note_off_c, 1, 65, 0
1, 260256, Note_on_c, 1, 50, 127
1, 260256, Note_on_c, 1, 59, 127
1, 260397, Note_off_c, 1, 50, 0
1, 260400, Note_on_c, 1, 48, 127
1, 260400, Note_on_c, 1, 57, 127
1, 260416, Note_off_c, 1, 59, 0
1, 260541, Note_off_c, 1, 48, 0
1, 260541, Note_off_c, 1, 57, 0
1, 260544, Note_on_c, 1, 50, 127
1, 260544, Note_on_c, 1, 59, 127
1, 260685, Note_off_c, 1, 50, 0
1, 260685, Note_off_c, 1, 59, 0
1, 260688, Note_on_c, 1, 53, 127
1, 260688, Note_on_c, 1, 62, 127
1, 260829, Note_off_c, 1, 53, 0
1, 260829, Note_off_c, 1, 62, 0
1, 260832, Note_on_c, 1, 47, 127
1, 260832, Note_on_c, 1, 56, 127
1, 260973, Note_off_c, 1, 47, 0
1, 260976, Note_on_c, 1, 45, 127
1, 260976, Note_on_c, 1, 54, 127
1, 261012, Note_off_c, 1, 56, 0
1, 261117, Note_off_c, 1, 45, 0
1, 261117, Note_off_c, 1, 54, 0
1, 261120, Note_on_c, 1, 47, 127
1, 261120, Note_on_c, 1, 56, 127
1, 261261, Note_off_c, 1, 47, 0
1, 261261, Note_off_c, 1, 56, 0
1, 261264, Note_on_c, 1, 50, 127
1, 261264, Note_on_c, 1, 59, 127
1, 261405, Note_off_c, 1, 50, 0
1, 261405, Note_off_c, 1, 59, 0
1, 261408, Note_on_c, 1, 44, 127
1, 261408, Note_on_c, 1, 52, 127
1, 261549, Note_off_c, 1, 44, 0
1, 261552, Note_on_c, 1, 42, 127
1, 261693, Note_off_c, 1, 42, 0
1, 261840, Note_on_c, 1, 47, 127
1, 261981, Note_off_c, 1, 47, 0
1, 261984, Note_on_c, 1, 40, 127
1, 262128, Note_off_c, 1, 52, 0
1, 262128, Note_on_c, 1, 50, 127
1, 262269, Note_off_c, 1, 50, 0
1, 262272, Note_on_c, 1, 48, 127
1, 262413, Note_off_c, 1, 48, 0
1, 262560, Note_on_c, 1, 53, 127
1, 262701, Note_off_c, 1, 53, 0
1, 263136, Note_on_c, 1, 56, 127
1, 263277, Note_off_c, 1, 56, 0
1, 263709, Note_off_c, 1, 40, 0
1, 263712, Note_on_c, 1, 59, 127
1, 263712, Note_on_c, 1, 40, 127
1, 263856, Note_on_c, 1, 53, 127
1, 263997, Note_off_c, 1, 53, 0
1, 264000, Note_on_c, 1, 52, 127
1, 264141, Note_off_c, 1, 52, 0
1, 264144, Note_on_c, 1, 50, 127
1, 264282, Note_off_c, 1, 59, 0
1, 264285, Note_off_c, 1, 50, 0
1, 264288, Note_on_c, 1, 56, 127
1, 264429, Note_off_c, 1, 56, 0
1, 265437, Note_off_c, 1, 40, 0
1, 265440, Note_on_c, 1, 62, 127
1, 265440, Note_on_c, 1, 40, 127
1, 265584, Note_on_c, 1, 56, 127
1, 265725, Note_off_c, 1, 56, 0
1, 265728, Note_on_c, 1, 54, 127
1, 265869, Note_off_c, 1, 54, 0
1, 265872, Note_on_c, 1, 52, 127
1, 266010, Note_off_c, 1, 62, 0
1, 266013, Note_off_c, 1, 52, 0
1, 266016, Note_on_c, 1, 59, 127
1, 266157, Note_off_c, 1, 59, 0
1, 266880, Note_on_c, 1, 57, 127
1, 267021, Note_off_c, 1, 57, 0
1, 267163, Note_off_c, 1, 40, 0
1, 267168, Note_on_c, 1, 65, 127
1, 267309, Note_off_c, 1, 65, 0
1, 267312, Note_on_c, 1, 64, 127
1, 267453, Note_off_c, 1, 64, 0
1, 267456, Note_on_c, 1, 62, 127
1, 267597, Note_off_c, 1, 62, 0
1, 267600, Note_on_c, 1, 60, 127
1, 267741, Note_off_c, 1, 60, 0
1, 267744, Note_on_c, 1, 59, 127
1, 267885, Note_off_c, 1, 59, 0
1, 267888, Note_on_c, 1, 57, 127
1, 268029, Note_off_c, 1, 57, 0
1, 268032, Note_on_c, 1, 56, 127
1, 268173, Note_off_c, 1, 56, 0
1, 268176, Note_on_c, 1, 54, 127
1, 268317, Note_off_c, 1, 54, 0
1, 268320, Note_on_c, 1, 52, 127
1, 268461, Note_off_c, 1, 52, 0
1, 268464, Note_on_c, 1, 50, 127
1, 268605, Note_off_c, 1, 50, 0
1, 268608, Note_on_c, 1, 48, 127
1, 268749, Note_off_c, 1, 48, 0
1, 268752, Note_on_c, 1, 47, 127
1, 268893, Note_off_c, 1, 47, 0
1, 268896, Note_on_c, 1, 45, 127
1, 269184, Note_on_c, 1, 76, 127
1, 269469, Note_off_c, 1, 76, 0
1, 269472, Note_on_c, 1, 69, 127
1, 269616, Note_off_c, 1, 45, 0
1, 269757, Note_off_c, 1, 69, 0
1, 269760, Note_on_c, 1, 60, 127
1, 269760, Note_on_c, 1, 57, 127
1, 269760, Note_on_c, 1, 81, 127
1, 270045, Note_off_c, 1, 60, 0
1, 270045, Note_off_c, 1, 57, 0
1, 270045, Note_off_c, 1, 81, 0
1, 270048, Note_on_c, 1, 79, 127
1, 270048, Note_on_c, 1, 59, 127
1, 270048, Note_on_c, 1, 62, 127
1, 270189, Note_off_c, 1, 79, 0
1, 270192, Note_on_c, 1, 76, 127
1, 270333, Note_off_c, 1, 59, 0
1, 270333, Note_off_c, 1, 62, 0
1, 270333, Note_off_c, 1, 76, 0
1, 270336, Note_on_c, 1, 77, 127
1, 270336, Note_on_c, 1, 59, 127
1, 270336, Note_on_c, 1, 55, 127
1, 270477, Note_off_c, 1, 77, 0
1, 270480, Note_on_c, 1, 74, 127
1, 270621, Note_off_c, 1, 59, 0
1, 270621, Note_off_c, 1, 55, 0
1, 270621, Note_off_c, 1, 74, 0
1, 270624, Note_on_c, 1, 76, 127
1, 270624, Note_on_c, 1, 60, 127
1, 270765, Note_off_c, 1, 76, 0
1, 270768, Note_on_c, 1, 71, 127
1, 270909, Note_off_c, 1, 71, 0
1, 270912, Note_on_c, 1, 72, 127
1, 270912, Note_on_c, 1, 48, 127
1, 271053, Note_off_c, 1, 72, 0
1, 271056, Note_on_c, 1, 68, 127
1, 271194, Note_off_c, 1, 60, 0
1, 271197, Note_off_c, 1, 68, 0
1, 271200, Note_on_c, 1, 69, 127
1, 271332, Note_off_c, 1, 48, 0
1, 271341, Note_off_c, 1, 69, 0
1, 271344, Note_on_c, 1, 72, 127
1, 271485, Note_off_c, 1, 72, 0
1, 271488, Note_on_c, 1, 77, 127
1, 271488, Note_on_c, 1, 62, 127
1, 271488, Note_on_c, 1, 69, 127
1, 271629, Note_off_c, 1, 77, 0
1, 271632, Note_on_c, 1, 74, 127
1, 271773, Note_off_c, 1, 62, 0
1, 271773, Note_off_c, 1, 69, 0
1, 271773, Note_off_c, 1, 74, 0
1, 271776, Note_on_c, 1, 76, 127
1, 271776, Note_on_c, 1, 69, 127
1, 271776, Note_on_c, 1, 60, 127
1, 271917, Note_off_c, 1, 76, 0
1, 271920, Note_on_c, 1, 72, 127
1, 272061, Note_off_c, 1, 69, 0
1, 272061, Note_off_c, 1, 60, 0
1, 272061, Note_off_c, 1, 72, 0
1, 272064, Note_on_c, 1, 74, 127
1, 272064, Note_on_c, 1, 68, 127
1, 272064, Note_on_c, 1, 59, 127
1, 272205, Note_off_c, 1, 74, 0
1, 272208, Note_on_c, 1, 71, 127
1, 272349, Note_off_c, 1, 68, 0
1, 272349, Note_off_c, 1, 59, 0
1, 272349, Note_off_c, 1, 71, 0
1, 272352, Note_on_c, 1, 72, 127
1, 272352, Note_on_c, 1, 69, 127
1, 272352, Note_on_c, 1, 57, 127
1, 272493, Note_off_c, 1, 72, 0
1, 272496, Note_on_c, 1, 71, 127
1, 272637, Note_off_c, 1, 71, 0
1, 272784, Note_on_c, 1, 68, 127
1, 272922, Note_off_c, 1, 69, 0
1, 272925, Note_off_c, 1, 68, 0
1, 273072, Note_off_c, 1, 57, 0
1, 273216, Note_on_c, 1, 76, 127
1, 273216, Note_on_c, 1, 69, 127
1, 273216, Note_on_c, 1, 60, 127
1, 273357, Note_off_c, 1, 76, 0
1, 273360, Note_on_c, 1, 72, 127
1, 273501, Note_off_c, 1, 69, 0
1, 273501, Note_off_c, 1, 60, 0
1, 273501, Note_off_c, 1, 72, 0
1, 273504, Note_on_c, 1, 74, 127
1, 273504, Note_on_c, 1, 68, 127
1, 273504, Note_on_c, 1, 59, 127
1, 273645, Note_off_c, 1, 74, 0
1, 273648, Note_on_c, 1, 71, 127
1, 273789, Note_off_c, 1, 68, 0
1, 273789, Note_off_c, 1, 59, 0
1, 273789, Note_off_c, 1, 71, 0
1, 273792, Note_on_c, 1, 72, 127
1, 273792, Note_on_c, 1, 57, 127
1, 273792, Note_on_c, 1, 64, 127
1, 273933, Note_off_c, 1, 72, 0
1, 273936, Note_on_c, 1, 69, 127
1, 274077, Note_off_c, 1, 57, 0
1, 274077, Note_off_c, 1, 64, 0
1, 274077, Note_off_c, 1, 69, 0
1, 274080, Note_on_c, 1, 71, 127
1, 274080, Note_on_c, 1, 56, 127
1, 274080, Note_on_c, 1, 62, 127
1, 274221, Note_off_c, 1, 71, 0
1, 274224, Note_on_c, 1, 69, 127
1, 274365, Note_off_c, 1, 56, 0
1, 274365, Note_off_c, 1, 69, 0
1, 274368, Note_on_c, 1, 52, 127
1, 274512, Note_on_c, 1, 68, 127
1, 274650, Note_off_c, 1, 62, 0
1, 274653, Note_off_c, 1, 52, 0
1, 274653, Note_off_c, 1, 68, 0
1, 274656, Note_on_c, 1, 69, 127
1, 274656, Note_on_c, 1, 53, 127
1, 274656, Note_on_c, 1, 60, 127
1, 274797, Note_off_c, 1, 69, 0
1, 274800, Note_on_c, 1, 68, 127
1, 274941, Note_off_c, 1, 53, 0
1, 274941, Note_off_c, 1, 60, 0
1, 274941, Note_off_c, 1, 68, 0
1, 274944, Note_on_c, 1, 69, 127
1, 274944, Note_on_c, 1, 50, 127
1, 274944, Note_on_c, 1, 59, 127
1, 274944, Note_on_c, 1, 57, 127
1, 275085, Note_off_c, 1, 69, 0
1, 275088, Note_on_c, 1, 77, 127
1, 275229, Note_off_c, 1, 50, 0
1, 275229, Note_off_c, 1, 59, 0
1, 275229, Note_off_c, 1, 77, 0
1, 275232, Note_on_c, 1, 76, 127
1, 275232, Note_on_c, 1, 60, 127
1, 275232, Note_on_c, 1, 52, 127
1, 275373, Note_off_c, 1, 76, 0
1, 275376, Note_on_c, 1, 72, 127
1, 275514, Note_off_c, 1, 57, 0
1, 275517, Note_off_c, 1, 60, 0
1, 275517, Note_off_c, 1, 72, 0
1, 275520, Note_on_c, 1, 74, 127
1, 275520, Note_on_c, 1, 56, 127
1, 275661, Note_off_c, 1, 74, 0
1, 275664, Note_on_c, 1, 71, 127
1, 275802, Note_off_c, 1, 52, 0
1, 275805, Note_off_c, 1, 56, 0
1, 275805, Note_off_c, 1, 71, 0
1, 275808, Note_on_c, 1, 72, 127
1, 275808, Note_on_c, 1, 57, 127
1, 275949, Note_off_c, 1, 72, 0
1, 275952, Note_on_c, 1, 71, 127
1, 276093, Note_off_c, 1, 57, 0
1, 276093, Note_off_c, 1, 71, 0
1, 276096, Note_on_c, 1, 69, 127
1, 276096, Note_on_c, 1, 52, 127
1, 276237, Note_off_c, 1, 69, 0
1, 276240, Note_on_c, 1, 68, 127
1, 276381, Note_off_c, 1, 52, 0
1, 276381, Note_off_c, 1, 68, 0
1, 276384, Note_on_c, 1, 69, 127
1, 276384, Note_on_c, 1, 45, 127
1, 276525, Note_off_c, 1, 69, 0
1, 276528, Note_on_c, 1, 71, 127
1, 276669, Note_off_c, 1, 71, 0
1, 276672, Note_on_c, 1, 72, 127
1, 276672, Note_on_c, 1, 57, 127
1, 276744, Note_off_c, 1, 45, 0
1, 276813, Note_off_c, 1, 72, 0
1, 276816, Note_on_c, 1, 77, 127
1, 276957, Note_off_c, 1, 57, 0
1, 276957, Note_off_c, 1, 77, 0
1, 276960, Note_on_c, 1, 55, 127
1, 276960, Note_on_c, 1, 76, 127
1, 277101, Note_off_c, 1, 55, 0
1, 277101, Note_off_c, 1, 76, 0
1, 277104, Note_on_c, 1, 52, 127
1, 277104, Note_on_c, 1, 72, 127
1, 277245, Note_off_c, 1, 52, 0
1, 277245, Note_off_c, 1, 72, 0
1, 277248, Note_on_c, 1, 53, 127
1, 277248, Note_on_c, 1, 74, 127
1, 277389, Note_off_c, 1, 53, 0
1, 277389, Note_off_c, 1, 74, 0
1, 277392, Note_on_c, 1, 50, 127
1, 277392, Note_on_c, 1, 71, 127
1, 277533, Note_off_c, 1, 50, 0
1, 277533, Note_off_c, 1, 71, 0
1, 277536, Note_on_c, 1, 52, 127
1, 277536, Note_on_c, 1, 72, 127
1, 277677, Note_off_c, 1, 52, 0
1, 277677, Note_off_c, 1, 72, 0
1, 277680, Note_on_c, 1, 50, 127
1, 277680, Note_on_c, 1, 71, 127
1, 277821, Note_off_c, 1, 50, 0
1, 277821, Note_off_c, 1, 71, 0
1, 277824, Note_on_c, 1, 48, 127
1, 277824, Note_on_c, 1, 69, 127
1, 277965, Note_off_c, 1, 48, 0
1, 277965, Note_off_c, 1, 69, 0
1, 277968, Note_on_c, 1, 52, 127
1, 277968, Note_on_c, 1, 68, 127
1, 278109, Note_off_c, 1, 52, 0
1, 278109, Note_off_c, 1, 68, 0
1, 278112, Note_on_c, 1, 45, 127
1, 278112, Note_on_c, 1, 69, 127
1, 278253, Note_off_c, 1, 45, 0
1, 278253, Note_off_c, 1, 69, 0
1, 278256, Note_on_c, 1, 48, 127
1, 278256, Note_on_c, 1, 71, 127
1, 278397, Note_off_c, 1, 48, 0
1, 278397, Note_off_c, 1, 71, 0
1, 278400, Note_on_c, 1, 53, 127
1, 278400, Note_on_c, 1, 72, 127
1, 278541, Note_off_c, 1, 53, 0
1, 278541, Note_off_c, 1, 72, 0
1, 278544, Note_on_c, 1, 50, 127
1, 278544, Note_on_c, 1, 74, 127
1, 278685, Note_off_c, 1, 50, 0
1, 278685, Note_off_c, 1, 74, 0
1, 278688, Note_on_c, 1, 52, 127
1, 278688, Note_on_c, 1, 72, 127
1, 278829, Note_off_c, 1, 52, 0
1, 278829, Note_off_c, 1, 72, 0
1, 278832, Note_on_c, 1, 48, 127
1, 278832, Note_on_c, 1, 69, 127
1, 278973, Note_off_c, 1, 48, 0
1, 278973, Note_off_c, 1, 69, 0
1, 278976, Note_on_c, 1, 50, 127
1, 278976, Note_on_c, 1, 71, 127
1, 279117, Note_off_c, 1, 50, 0
1, 279117, Note_off_c, 1, 71, 0
1, 279120, Note_on_c, 1, 47, 127
1, 279120, Note_on_c, 1, 68, 127
1, 279261, Note_off_c, 1, 47, 0
1, 279261, Note_off_c, 1, 68, 0
1, 279264, Note_on_c, 1, 48, 127
1, 279264, Note_on_c, 1, 69, 127
1, 279408, Note_off_c, 1, 48, 0
1, 279408, Note_off_c, 1, 69, 0
1, 279411, Note_on_c, 1, 47, 127
1, 279411, Note_on_c, 1, 71, 127
1, 279555, Note_off_c, 1, 47, 0
1, 279555, Note_off_c, 1, 71, 0
1, 279558, Note_on_c, 1, 45, 127
1, 279558, Note_on_c, 1, 72, 127
1, 279702, Note_off_c, 1, 45, 0
1, 279702, Note_off_c, 1, 72, 0
1, 279705, Note_on_c, 1, 48, 127
1, 279705, Note_on_c, 1, 69, 127
1, 279849, Note_off_c, 1, 48, 0
1, 279849, Note_off_c, 1, 69, 0
1, 279852, Note_on_c, 1, 40, 127
1, 279852, Note_on_c, 1, 68, 127
1, 279996, Note_off_c, 1, 40, 0
1, 279996, Note_off_c, 1, 68, 0
1, 279999, Note_on_c, 1, 47, 127
1, 279999, Note_on_c, 1, 69, 127
1, 280143, Note_off_c, 1, 47, 0
1, 280143, Note_off_c, 1, 69, 0
1, 280146, Note_on_c, 1, 52, 127
1, 280146, Note_on_c, 1, 72, 127
1, 280290, Note_off_c, 1, 52, 0
1, 280290, Note_off_c, 1, 72, 0
1, 280293, Note_on_c, 1, 48, 127
1, 280293, Note_on_c, 1, 69, 127
1, 280437, Note_off_c, 1, 48, 0
1, 280437, Note_off_c, 1, 69, 0
1, 280440, Note_on_c, 1, 50, 127
1, 280440, Note_on_c, 1, 71, 127
1, 280584, Note_off_c, 1, 50, 0
1, 280584, Note_off_c, 1, 71, 0
1, 280587, Note_on_c, 1, 47, 127
1, 280587, Note_on_c, 1, 68, 127
1, 280731, Note_off_c, 1, 47, 0
1, 280731, Note_off_c, 1, 68, 0
1, 280734, Note_on_c, 1, 48, 127
1, 280734, Note_on_c, 1, 69, 127
1, 280878, Note_off_c, 1, 48, 0
1, 280878, Note_off_c, 1, 69, 0
1, 280881, Note_on_c, 1, 45, 127
1, 280881, Note_on_c, 1, 66, 127
1, 281025, Note_off_c, 1, 45, 0
1, 281025, Note_off_c, 1, 66, 0
1, 281028, Note_on_c, 1, 47, 127
1, 281028, Note_on_c, 1, 68, 127
1, 281178, Note_off_c, 1, 47, 0
1, 281178, Note_off_c, 1, 68, 0
1, 281181, Note_on_c, 1, 45, 127
1, 281181, Note_on_c, 1, 65, 127
1, 281331, Note_off_c, 1, 45, 0
1, 281331, Note_off_c, 1, 65, 0
1, 281334, Note_on_c, 1, 47, 127
1, 281334, Note_on_c, 1, 64, 127
1, 281484, Note_off_c, 1, 47, 0
1, 281484, Note_off_c, 1, 64, 0
1, 281487, Note_on_c, 1, 44, 127
1, 281487, Note_on_c, 1, 62, 127
1, 281637, Note_off_c, 1, 44, 0
1, 281637, Note_off_c, 1, 62, 0
1, 281640, Note_on_c, 1, 60, 127
1, 281640, Note_on_c, 1, 45, 127
1, 281802, Note_off_c, 1, 60, 0
1, 281805, Note_on_c, 1, 59, 127
1, 281967, Note_off_c, 1, 45, 0
1, 281967, Note_off_c, 1, 59, 0
1, 281970, Note_on_c, 1, 50, 127
1, 281970, Note_on_c, 1, 60, 127
1, 282135, Note_on_c, 1, 69, 127
1, 282297, Note_off_c, 1, 50, 0
1, 282297, Note_off_c, 1, 60, 0
1, 282297, Note_off_c, 1, 69, 0
1, 282300, Note_on_c, 1, 59, 127
1, 282300, Note_on_c, 1, 52, 127
1, 282487, Note_on_c, 1, 69, 127
1, 282669, Note_off_c, 1, 59, 0
1, 282670, Note_off_c, 1, 69, 0
1, 282675, Note_on_c, 1, 40, 127
1, 282862, Note_on_c, 1, 68, 127
1, 283083, Note_off_c, 1, 68, 0
1, 283100, Note_off_c, 1, 40, 0
1, 283115, Note_on_c, 1, 45, 127
1, 283116, Note_off_c, 1, 52, 0
1, 285356, Note_off_c, 1, 45, 0
1, 286250, Note_on_c, 1, 76, 127
1, 286669, Note_off_c, 1, 76, 0
1, 286693, Note_on_c, 1, 76, 127
1, 286693, Note_on_c, 1, 72, 127
1, 286693, Note_on_c, 1, 57, 127
1, 286892, Note_on_c, 1, 64, 127
1, 287070, Note_off_c, 1, 64, 0
1, 287071, Note_on_c, 1, 69, 127
1, 287249, Note_off_c, 1, 76, 0
1, 287249, Note_off_c, 1, 69, 0
1, 287252, Note_on_c, 1, 67, 127
1, 287430, Note_off_c, 1, 67, 0
1, 287431, Note_on_c, 1, 81, 127
1, 287431, Note_on_c, 1, 65, 127
1, 287609, Note_off_c, 1, 81, 0
1, 287611, Note_on_c, 1, 80, 127
1, 287788, Note_off_c, 1, 65, 0
1, 287789, Note_off_c, 1, 80, 0
1, 287970, Note_on_c, 1, 83, 127
1, 288147, Note_off_c, 1, 72, 0
1, 288148, Note_off_c, 1, 83, 0
1, 288149, Note_on_c, 1, 74, 127
1, 288149, Note_on_c, 1, 71, 127
1, 288327, Note_off_c, 1, 74, 0
1, 288330, Note_on_c, 1, 77, 127
1, 288508, Note_off_c, 1, 77, 0
1, 288509, Note_on_c, 1, 62, 127
1, 288861, Note_off_c, 1, 71, 0
1, 288864, Note_off_c, 1, 57, 0
1, 288866, Note_off_c, 1, 62, 0
1, 288868, Note_on_c, 1, 68, 127
1, 288868, Note_on_c, 1, 59, 127
1, 289224, Note_off_c, 1, 68, 0
1, 289225, Note_off_c, 1, 59, 0
1, 289227, Note_on_c, 1, 76, 127
1, 289227, Note_on_c, 1, 68, 127
1, 289405, Note_off_c, 1, 76, 0
1, 289408, Note_on_c, 1, 74, 127
1, 289584, Note_off_c, 1, 68, 0
1, 289586, Note_off_c, 1, 74, 0
1, 289587, Note_on_c, 1, 72, 127
1, 289587, Note_on_c, 1, 69, 127
1, 289765, Note_off_c, 1, 72, 0
1, 289767, Note_on_c, 1, 71, 127
1, 289925, Note_off_c, 1, 69, 0
1, 289945, Note_off_c, 1, 71, 0
1, 289946, Note_on_c, 1, 69, 127
1, 290124, Note_off_c, 1, 69, 0
1, 290126, Note_on_c, 1, 64, 127
1, 290126, Note_on_c, 1, 71, 127
1, 290304, Note_off_c, 1, 64, 0
1, 290304, Note_off_c, 1, 71, 0
1, 290305, Note_on_c, 1, 69, 127
1, 290305, Note_on_c, 1, 72, 127
1, 290483, Note_off_c, 1, 69, 0
1, 290486, Note_on_c, 1, 68, 127
1, 290664, Note_off_c, 1, 68, 0
1, 290665, Note_on_c, 1, 81, 127
1, 290845, Note_on_c, 1, 71, 127
1, 290855, Note_off_c, 1, 72, 0
1, 291024, Note_off_c, 1, 71, 0
1, 291026, Note_on_c, 1, 62, 127
1, 291190, Note_off_c, 1, 81, 0
1, 291204, Note_off_c, 1, 62, 0
1, 291205, Note_on_c, 1, 65, 127
1, 291383, Note_off_c, 1, 65, 0
1, 291386, Note_on_c, 1, 64, 127
1, 291386, Note_on_c, 1, 80, 127
1, 291564, Note_off_c, 1, 64, 0
1, 291564, Note_off_c, 1, 80, 0
1, 291745, Note_on_c, 1, 56, 127
1, 291745, Note_on_c, 1, 83, 127
1, 292457, Note_off_c, 1, 56, 0
1, 292465, Note_on_c, 1, 60, 127
1, 292643, Note_off_c, 1, 60, 0
1, 292645, Note_on_c, 1, 59, 127
1, 292823, Note_off_c, 1, 83, 0
1, 292823, Note_off_c, 1, 59, 0
1, 292824, Note_on_c, 1, 57, 127
1, 292824, Note_on_c, 1, 76, 127
1, 293002, Note_off_c, 1, 57, 0
1, 293004, Note_on_c, 1, 59, 127
1, 293181, Note_off_c, 1, 76, 0
1, 293182, Note_off_c, 1, 59, 0
1, 293183, Note_on_c, 1, 61, 127
1, 293183, Note_on_c, 1, 81, 127
1, 293361, Note_off_c, 1, 61, 0
1, 293364, Note_on_c, 1, 62, 127
1, 293542, Note_off_c, 1, 62, 0
1, 293543, Note_on_c, 1, 64, 127
1, 293720, Note_off_c, 1, 81, 0
1, 293721, Note_off_c, 1, 64, 0
1, 293723, Note_on_c, 1, 61, 127
1, 293723, Note_on_c, 1, 79, 127
1, 293901, Note_off_c, 1, 61, 0
1, 293901, Note_off_c, 1, 79, 0
1, 293902, Note_on_c, 1, 77, 127
1, 293902, Note_on_c, 1, 62, 127
1, 294080, Note_off_c, 1, 77, 0
1, 294082, Note_on_c, 1, 76, 127
1, 294259, Note_off_c, 1, 62, 0
1, 294260, Note_off_c, 1, 76, 0
1, 294261, Note_on_c, 1, 74, 127
1, 294261, Note_on_c, 1, 57, 127
1, 294439, Note_off_c, 1, 74, 0
1, 294442, Note_on_c, 1, 76, 127
1, 294618, Note_off_c, 1, 57, 0
1, 294620, Note_off_c, 1, 76, 0
1, 294621, Note_on_c, 1, 78, 127
1, 294621, Note_on_c, 1, 62, 127
1, 294799, Note_off_c, 1, 78, 0
1, 294801, Note_on_c, 1, 79, 127
1, 294979, Note_off_c, 1, 79, 0
1, 294980, Note_on_c, 1, 81, 127
1, 295158, Note_off_c, 1, 62, 0
1, 295158, Note_off_c, 1, 81, 0
1, 295160, Note_on_c, 1, 60, 127
1, 295160, Note_on_c, 1, 78, 127
1, 295338, Note_off_c, 1, 60, 0
1, 295338, Note_off_c, 1, 78, 0
1, 295339, Note_on_c, 1, 59, 127
1, 295339, Note_on_c, 1, 79, 127
1, 295517, Note_off_c, 1, 59, 0
1, 295520, Note_on_c, 1, 57, 127
1, 295696, Note_off_c, 1, 79, 0
1, 295698, Note_off_c, 1, 57, 0
1, 295699, Note_on_c, 1, 55, 127
1, 295699, Note_on_c, 1, 74, 127
1, 295877, Note_off_c, 1, 55, 0
1, 295879, Note_on_c, 1, 57, 127
1, 296056, Note_off_c, 1, 74, 0
1, 296057, Note_off_c, 1, 57, 0
1, 296058, Note_on_c, 1, 59, 127
1, 296058, Note_on_c, 1, 79, 127
1, 296236, Note_off_c, 1, 59, 0
1, 296238, Note_on_c, 1, 60, 127
1, 296416, Note_off_c, 1, 60, 0
1, 296417, Note_on_c, 1, 62, 127
1, 296595, Note_off_c, 1, 79, 0
1, 296595, Note_off_c, 1, 62, 0
1, 296598, Note_on_c, 1, 59, 127
1, 296598, Note_on_c, 1, 77, 127
1, 296776, Note_off_c, 1, 59, 0
1, 296776, Note_off_c, 1, 77, 0
1, 296777, Note_on_c, 1, 76, 127
1, 296777, Note_on_c, 1, 60, 127
1, 296957, Note_on_c, 1, 74, 127
1, 297135, Note_off_c, 1, 74, 0
1, 297136, Note_on_c, 1, 72, 127
1, 297314, Note_off_c, 1, 72, 0
1, 297316, Note_on_c, 1, 71, 127
1, 297494, Note_off_c, 1, 71, 0
1, 297495, Note_on_c, 1, 69, 127
1, 297673, Note_off_c, 1, 69, 0
1, 298212, Note_off_c, 1, 76, 0
1, 298214, Note_on_c, 1, 66, 127
1, 298392, Note_off_c, 1, 60, 0
1, 298394, Note_on_c, 1, 64, 127
1, 298572, Note_off_c, 1, 64, 0
1, 298573, Note_on_c, 1, 62, 127
1, 298751, Note_off_c, 1, 66, 0
1, 298751, Note_off_c, 1, 62, 0
1, 298933, Note_on_c, 1, 59, 127
1, 298933, Note_on_c, 1, 68, 127
1, 299111, Note_off_c, 1, 59, 0
1, 299111, Note_off_c, 1, 68, 0
1, 299655, Note_on_c, 1, 56, 127
1, 299833, Note_off_c, 1, 56, 0
1, 299835, Note_on_c, 1, 57, 127
1, 300013, Note_off_c, 1, 57, 0
1, 300373, Note_on_c, 1, 50, 127
1, 300551, Note_off_c, 1, 50, 0
1, 300554, Note_on_c, 1, 53, 127
1, 300732, Note_off_c, 1, 53, 0
1, 300733, Note_on_c, 1, 52, 127
1, 300911, Note_off_c, 1, 52, 0
1, 301092, Note_on_c, 1, 48, 127
1, 301272, Note_on_c, 1, 77, 127
1, 301450, Note_off_c, 1, 77, 0
1, 301989, Note_off_c, 1, 48, 0
1, 302173, Note_on_c, 1, 47, 127
1, 302352, Note_off_c, 1, 47, 0
1, 302354, Note_on_c, 1, 45, 127
1, 302533, Note_off_c, 1, 45, 0
1, 302536, Note_on_c, 1, 71, 127
1, 302536, Note_on_c, 1, 52, 127
1, 302714, Note_off_c, 1, 71, 0
1, 302716, Note_on_c, 1, 67, 127
1, 303073, Note_off_c, 1, 52, 0
1, 303075, Note_on_c, 1, 59, 127
1, 303075, Note_on_c, 1, 76, 127
1, 303253, Note_off_c, 1, 59, 0
1, 303254, Note_on_c, 1, 64, 127
1, 303254, Note_on_c, 1, 79, 127
1, 303432, Note_off_c, 1, 64, 0
1, 303435, Note_on_c, 1, 63, 127
1, 303613, Note_off_c, 1, 63, 0
1, 303787, Note_off_c, 1, 76, 0
1, 303792, Note_off_c, 1, 79, 0
1, 303794, Note_off_c, 1, 67, 0
1, 303795, Note_on_c, 1, 66, 127
1, 303795, Note_on_c, 1, 76, 127
1, 303795, Note_on_c, 1, 71, 127
1, 303795, Note_on_c, 1, 79, 127
1, 303973, Note_off_c, 1, 66, 0
1, 303973, Note_off_c, 1, 76, 0
1, 303973, Note_off_c, 1, 71, 0
1, 303973, Note_off_c, 1, 79, 0
1, 303975, Note_on_c, 1, 57, 127
1, 303975, Note_on_c, 1, 79, 127
1, 303975, Note_on_c, 1, 72, 127
1, 303975, Note_on_c, 1, 71, 127
1, 304153, Note_off_c, 1, 57, 0
1, 304154, Note_on_c, 1, 60, 127
1, 304332, Note_off_c, 1, 60, 0
1, 304335, Note_on_c, 1, 59, 127
1, 304512, Note_off_c, 1, 79, 0
1, 304513, Note_off_c, 1, 59, 0
1, 304514, Note_on_c, 1, 81, 127
1, 304687, Note_off_c, 1, 72, 0
1, 304687, Note_off_c, 1, 71, 0
1, 304693, Note_off_c, 1, 81, 0
1, 304695, Note_on_c, 1, 51, 127
1, 304695, Note_on_c, 1, 78, 127
1, 304695, Note_on_c, 1, 72, 127
1, 304695, Note_on_c, 1, 69, 127
1, 304873, Note_off_c, 1, 51, 0
1, 304875, Note_on_c, 1, 60, 127
1, 305053, Note_off_c, 1, 60, 0
1, 305054, Note_on_c, 1, 59, 127
1, 305232, Note_off_c, 1, 78, 0
1, 305232, Note_off_c, 1, 59, 0
1, 305234, Note_on_c, 1, 57, 127
1, 305407, Note_off_c, 1, 72, 0
1, 305407, Note_off_c, 1, 69, 0
1, 305413, Note_off_c, 1, 57, 0
1, 305416, Note_on_c, 1, 78, 127
1, 305416, Note_on_c, 1, 69, 127
1, 305416, Note_on_c, 1, 55, 127
1, 305416, Note_on_c, 1, 71, 127
1, 305594, Note_off_c, 1, 78, 0
1, 305595, Note_on_c, 1, 81, 127
1, 305773, Note_off_c, 1, 81, 0
1, 305775, Note_on_c, 1, 79, 127
1, 305953, Note_off_c, 1, 79, 0
1, 306128, Note_off_c, 1, 69, 0
1, 306135, Note_on_c, 1, 76, 127
1, 306135, Note_on_c, 1, 67, 127
1, 306313, Note_off_c, 1, 55, 0
1, 306313, Note_off_c, 1, 76, 0
1, 306313, Note_off_c, 1, 67, 0
1, 306315, Note_off_c, 1, 71, 0
1, 306316, Note_on_c, 1, 55, 127
1, 306316, Note_on_c, 1, 75, 127
1, 306494, Note_off_c, 1, 55, 0
1, 306494, Note_off_c, 1, 75, 0
1, 306495, Note_on_c, 1, 54, 127
1, 306495, Note_on_c, 1, 76, 127
1, 306673, Note_off_c, 1, 54, 0
1, 306673, Note_off_c, 1, 76, 0
1, 306675, Note_on_c, 1, 52, 127
1, 306675, Note_on_c, 1, 78, 127
1, 306853, Note_off_c, 1, 52, 0
1, 306853, Note_off_c, 1, 78, 0
1, 306854, Note_on_c, 1, 54, 127
1, 306854, Note_on_c, 1, 69, 127
1, 307032, Note_off_c, 1, 54, 0
1, 307032, Note_off_c, 1, 69, 0
1, 307034, Note_on_c, 1, 54, 127
1, 307034, Note_on_c, 1, 72, 127
1, 307212, Note_off_c, 1, 54, 0
1, 307212, Note_off_c, 1, 72, 0
1, 307214, Note_on_c, 1, 55, 127
1, 307214, Note_on_c, 1, 71, 127
1, 307392, Note_off_c, 1, 55, 0
1, 307392, Note_off_c, 1, 71, 0
1, 307394, Note_on_c, 1, 57, 127
1, 307394, Note_on_c, 1, 72, 127
1, 307572, Note_off_c, 1, 57, 0
1, 307572, Note_off_c, 1, 72, 0
1, 307573, Note_on_c, 1, 59, 127
1, 307573, Note_on_c, 1, 63, 127
1, 307753, Note_on_c, 1, 72, 127
1, 307930, Note_off_c, 1, 59, 0
1, 307931, Note_off_c, 1, 72, 0
1, 307932, Note_on_c, 1, 71, 127
1, 307932, Note_on_c, 1, 47, 127
1, 308110, Note_off_c, 1, 71, 0
1, 308112, Note_on_c, 1, 69, 127
1, 308285, Note_off_c, 1, 63, 0
1, 308291, Note_off_c, 1, 47, 0
1, 308291, Note_off_c, 1, 69, 0
1, 308294, Note_on_c, 1, 52, 127
1, 308294, Note_on_c, 1, 67, 127
1, 308383, Note_off_c, 1, 52, 0
1, 308384, Note_on_c, 1, 51, 127
1, 308473, Note_off_c, 1, 67, 0
1, 308473, Note_off_c, 1, 51, 0
1, 308475, Note_on_c, 1, 66, 127
1, 308475, Note_on_c, 1, 52, 127
1, 308653, Note_off_c, 1, 66, 0
1, 308654, Note_on_c, 1, 64, 127
1, 308832, Note_off_c, 1, 64, 0
1, 309013, Note_on_c, 1, 67, 127
1, 309191, Note_off_c, 1, 52, 0
1, 309191, Note_off_c, 1, 67, 0
1, 309194, Note_on_c, 1, 50, 127
1, 309194, Note_on_c, 1, 69, 127
1, 309372, Note_off_c, 1, 50, 0
1, 309372, Note_off_c, 1, 69, 0
1, 309373, Note_on_c, 1, 48, 127
1, 309373, Note_on_c, 1, 71, 127
1, 309551, Note_off_c, 1, 48, 0
1, 309551, Note_off_c, 1, 71, 0
1, 309553, Note_on_c, 1, 47, 127
1, 309553, Note_on_c, 1, 67, 127
1, 309731, Note_off_c, 1, 47, 0
1, 309731, Note_off_c, 1, 67, 0
1, 309732, Note_on_c, 1, 72, 127
1, 309732, Note_on_c, 1, 45, 127
1, 309821, Note_off_c, 1, 72, 0
1, 309823, Note_on_c, 1, 71, 127
1, 309911, Note_off_c, 1, 45, 0
1, 309912, Note_off_c, 1, 71, 0
1, 309913, Note_on_c, 1, 43, 127
1, 309913, Note_on_c, 1, 72, 127
1, 310091, Note_off_c, 1, 43, 0
1, 310094, Note_on_c, 1, 45, 127
1, 310270, Note_off_c, 1, 72, 0
1, 310272, Note_off_c, 1, 45, 0
1, 310273, Note_on_c, 1, 47, 127
1, 310273, Note_on_c, 1, 71, 127
1, 310451, Note_off_c, 1, 47, 0
1, 310451, Note_off_c, 1, 71, 0
1, 310453, Note_on_c, 1, 48, 127
1, 310453, Note_on_c, 1, 69, 127
1, 310631, Note_off_c, 1, 48, 0
1, 310632, Note_on_c, 1, 47, 127
1, 310632, Note_on_c, 1, 67, 127
1, 310810, Note_off_c, 1, 47, 0
1, 310810, Note_off_c, 1, 67, 0
1, 310812, Note_on_c, 1, 66, 127
1, 310990, Note_off_c, 1, 66, 0
1, 310991, Note_on_c, 1, 45, 127
1, 310991, Note_on_c, 1, 64, 127
1, 311169, Note_off_c, 1, 45, 0
1, 311169, Note_off_c, 1, 64, 0
1, 311172, Note_on_c, 1, 63, 127
1, 311350, Note_off_c, 1, 69, 0
1, 311531, Note_on_c, 1, 54, 127
1, 311707, Note_off_c, 1, 63, 0
1, 311888, Note_off_c, 1, 54, 0
1, 311890, Note_on_c, 1, 59, 127
1, 312247, Note_off_c, 1, 59, 0
1, 312250, Note_on_c, 1, 55, 127
1, 312607, Note_off_c, 1, 55, 0
1, 312609, Note_on_c, 1, 61, 127
1, 312609, Note_on_c, 1, 52, 127
1, 312958, Note_off_c, 1, 61, 0
1, 312966, Note_off_c, 1, 52, 0
1, 312968, Note_on_c, 1, 62, 127
1, 313146, Note_off_c, 1, 62, 0
1, 313328, Note_on_c, 1, 58, 127
1, 313328, Note_on_c, 1, 49, 127
1, 313677, Note_off_c, 1, 58, 0
1, 313685, Note_off_c, 1, 49, 0
1, 314046, Note_on_c, 1, 63, 127
1, 314046, Note_on_c, 1, 59, 127
1, 314224, Note_off_c, 1, 63, 0
1, 314225, Note_on_c, 1, 61, 127
1, 314392, Note_off_c, 1, 59, 0
1, 314403, Note_off_c, 1, 61, 0
1, 314406, Note_on_c, 1, 59, 127
1, 314585, Note_on_c, 1, 57, 127
1, 314763, Note_off_c, 1, 59, 0
1, 314763, Note_off_c, 1, 57, 0
1, 314765, Note_on_c, 1, 71, 127
1, 314765, Note_on_c, 1, 55, 127
1, 314854, Note_off_c, 1, 71, 0
1, 314855, Note_on_c, 1, 69, 127
1, 314944, Note_off_c, 1, 55, 0
1, 314944, Note_off_c, 1, 69, 0
1, 314946, Note_on_c, 1, 52, 127
1, 314946, Note_on_c, 1, 71, 127
1, 315124, Note_off_c, 1, 52, 0
1, 315125, Note_on_c, 1, 54, 127
1, 315303, Note_off_c, 1, 71, 0
1, 315303, Note_off_c, 1, 54, 0
1, 315306, Note_on_c, 1, 55, 127
1, 315306, Note_on_c, 1, 71, 127
1, 315484, Note_off_c, 1, 55, 0
1, 315484, Note_off_c, 1, 71, 0
1, 315485, Note_on_c, 1, 76, 127
1, 315485, Note_on_c, 1, 48, 127
1, 315663, Note_off_c, 1, 76, 0
1, 315665, Note_on_c, 1, 72, 127
1, 315843, Note_off_c, 1, 72, 0
1, 315844, Note_on_c, 1, 71, 127
1, 316022, Note_off_c, 1, 48, 0
1, 316022, Note_off_c, 1, 71, 0
1, 316024, Note_on_c, 1, 47, 127
1, 316024, Note_on_c, 1, 69, 127
1, 316202, Note_off_c, 1, 47, 0
1, 316202, Note_off_c, 1, 69, 0
1, 316203, Note_on_c, 1, 78, 127
1, 316203, Note_on_c, 1, 48, 127
1, 316292, Note_off_c, 1, 78, 0
1, 316295, Note_on_c, 1, 76, 127
1, 316382, Note_off_c, 1, 48, 0
1, 316384, Note_off_c, 1, 76, 0
1, 316385, Note_on_c, 1, 45, 127
1, 316385, Note_on_c, 1, 78, 127
1, 316563, Note_off_c, 1, 45, 0
1, 316565, Note_on_c, 1, 47, 127
1, 316742, Note_off_c, 1, 78, 0
1, 316743, Note_off_c, 1, 47, 0
1, 316744, Note_on_c, 1, 48, 127
1, 316744, Note_on_c, 1, 78, 127
1, 316922, Note_off_c, 1, 48, 0
1, 316922, Note_off_c, 1, 78, 0
1, 316924, Note_on_c, 1, 78, 127
1, 316924, Note_on_c, 1, 39, 127
1, 317102, Note_off_c, 1, 78, 0
1, 317103, Note_on_c, 1, 79, 127
1, 317192, Note_off_c, 1, 79, 0
1, 317194, Note_on_c, 1, 81, 127
1, 317283, Note_off_c, 1, 39, 0
1, 317283, Note_off_c, 1, 81, 0
1, 317285, Note_on_c, 1, 79, 127
1, 317285, Note_on_c, 1, 40, 127
1, 317463, Note_off_c, 1, 79, 0
1, 317465, Note_on_c, 1, 78, 127
1, 317642, Note_off_c, 1, 40, 0
1, 317643, Note_off_c, 1, 78, 0
1, 317644, Note_on_c, 1, 79, 127
1, 317644, Note_on_c, 1, 75, 127
1, 317644, Note_on_c, 1, 47, 127
1, 317733, Note_off_c, 1, 79, 0
1, 317735, Note_on_c, 1, 78, 127
1, 317824, Note_off_c, 1, 78, 0
1, 318171, Note_off_c, 1, 75, 0
1, 318187, Note_on_c, 1, 76, 127
1, 318363, Note_off_c, 1, 47, 0
1, 318365, Note_off_c, 1, 76, 0
1, 318366, Note_on_c, 1, 52, 127
1, 318366, Note_on_c, 1, 76, 127
1, 318546, Note_on_c, 1, 74, 127
1, 318724, Note_off_c, 1, 74, 0
1, 318725, Note_on_c, 1, 72, 127
1, 318903, Note_off_c, 1, 72, 0
1, 318905, Note_on_c, 1, 56, 127
1, 318905, Note_on_c, 1, 71, 127
1, 319083, Note_off_c, 1, 56, 0
1, 319083, Note_off_c, 1, 71, 0
1, 319084, Note_on_c, 1, 57, 127
1, 319262, Note_off_c, 1, 57, 0
1, 319265, Note_on_c, 1, 59, 127
1, 319265, Note_on_c, 1, 68, 127
1, 319443, Note_off_c, 1, 59, 0
1, 319443, Note_off_c, 1, 68, 0
1, 319444, Note_on_c, 1, 60, 127
1, 319444, Note_on_c, 1, 69, 127
1, 319622, Note_off_c, 1, 60, 0
1, 319624, Note_on_c, 1, 63, 127
1, 319800, Note_off_c, 1, 69, 0
1, 319801, Note_off_c, 1, 52, 0
1, 319801, Note_off_c, 1, 76, 0
1, 319802, Note_off_c, 1, 63, 0
1, 319803, Note_on_c, 1, 64, 127
1, 319983, Note_on_c, 1, 40, 127
1, 319983, Note_on_c, 1, 68, 127
1, 320073, Note_on_c, 1, 71, 127
1, 320165, Note_on_c, 1, 44, 127
1, 320165, Note_on_c, 1, 76, 127
1, 320343, Note_off_c, 1, 44, 0
1, 320344, Note_on_c, 1, 47, 127
1, 320522, Note_off_c, 1, 47, 0
1, 320524, Note_on_c, 1, 52, 127
1, 320970, Note_off_c, 1, 71, 0
1, 321062, Note_off_c, 1, 40, 0
1, 321062, Note_off_c, 1, 68, 0
1, 321062, Note_off_c, 1, 76, 0
1, 321069, Note_off_c, 1, 64, 0
1, 321243, Note_off_c, 1, 52, 0
1, 321246, Note_on_c, 1, 40, 127
1, 321246, Note_on_c, 1, 64, 127
1, 321246, Note_on_c, 1, 71, 127
1, 321246, Note_on_c, 1, 68, 127
1, 321424, Note_off_c, 1, 40, 0
1, 321425, Note_on_c, 1, 44, 127
1, 321603, Note_off_c, 1, 44, 0
1, 321605, Note_on_c, 1, 52, 127
1, 321783, Note_off_c, 1, 64, 0
1, 321783, Note_off_c, 1, 71, 0
1, 321783, Note_off_c, 1, 68, 0
1, 321783, Note_off_c, 1, 52, 0
1, 321784, Note_on_c, 1, 54, 127
1, 321784, Note_on_c, 1, 71, 127
1, 321962, Note_off_c, 1, 54, 0
1, 321962, Note_off_c, 1, 71, 0
1, 321964, Note_on_c, 1, 62, 127
1, 321964, Note_on_c, 1, 56, 127
1, 322142, Note_off_c, 1, 62, 0
1, 322144, Note_on_c, 1, 65, 127
1, 322321, Note_off_c, 1, 56, 0
1, 322322, Note_off_c, 1, 65, 0
1, 322324, Note_on_c, 1, 64, 127
1, 322324, Note_on_c, 1, 57, 127
1, 322502, Note_off_c, 1, 64, 0
1, 322503, Note_on_c, 1, 62, 127
1, 322681, Note_off_c, 1, 57, 0
1, 322681, Note_off_c, 1, 62, 0
1, 322683, Note_on_c, 1, 68, 127
1, 322683, Note_on_c, 1, 59, 127
1, 322861, Note_off_c, 1, 68, 0
1, 322862, Note_on_c, 1, 64, 127
1, 323040, Note_off_c, 1, 59, 0
1, 323040, Note_off_c, 1, 64, 0
1, 323042, Note_on_c, 1, 65, 127
1, 323042, Note_on_c, 1, 57, 127
1, 323220, Note_off_c, 1, 65, 0
1, 323222, Note_on_c, 1, 64, 127
1, 323399, Note_off_c, 1, 57, 0
1, 323400, Note_off_c, 1, 64, 0
1, 323402, Note_on_c, 1, 71, 127
1, 323402, Note_on_c, 1, 56, 127
1, 323580, Note_off_c, 1, 71, 0
1, 323581, Note_on_c, 1, 62, 127
1, 323759, Note_off_c, 1, 56, 0
1, 323759, Note_off_c, 1, 62, 0
1, 323761, Note_on_c, 1, 64, 127
1, 323761, Note_on_c, 1, 52, 127
1, 323939, Note_off_c, 1, 64, 0
1, 323940, Note_on_c, 1, 65, 127
1, 324118, Note_off_c, 1, 52, 0
1, 324118, Note_off_c, 1, 65, 0
1, 324121, Note_on_c, 1, 61, 127
1, 324121, Note_on_c, 1, 57, 127
1, 324299, Note_off_c, 1, 61, 0
1, 324300, Note_on_c, 1, 59, 127
1, 324465, Note_off_c, 1, 57, 0
1, 324478, Note_off_c, 1, 59, 0
1, 324480, Note_on_c, 1, 57, 127
1, 324658, Note_off_c, 1, 57, 0
1, 324659, Note_on_c, 1, 45, 127
1, 324659, Note_on_c, 1, 59, 127
1, 324837, Note_off_c, 1, 45, 0
1, 324837, Note_off_c, 1, 59, 0
1, 324839, Note_on_c, 1, 43, 127
1, 324839, Note_on_c, 1, 61, 127
1, 325017, Note_off_c, 1, 43, 0
1, 325017, Note_off_c, 1, 61, 0
1, 325018, Note_on_c, 1, 46, 127
1, 325018, Note_on_c, 1, 62, 127
1, 325196, Note_off_c, 1, 46, 0
1, 325196, Note_off_c, 1, 62, 0
1, 325199, Note_on_c, 1, 45, 127
1, 325199, Note_on_c, 1, 64, 127
1, 325377, Note_off_c, 1, 45, 0
1, 325377, Note_off_c, 1, 64, 0
1, 325378, Note_on_c, 1, 43, 127
1, 325378, Note_on_c, 1, 65, 127
1, 325556, Note_off_c, 1, 43, 0
1, 325556, Note_off_c, 1, 65, 0
1, 325558, Note_on_c, 1, 49, 127
1, 325558, Note_on_c, 1, 67, 127
1, 325736, Note_off_c, 1, 49, 0
1, 325736, Note_off_c, 1, 67, 0
1, 325737, Note_on_c, 1, 45, 127
1, 325737, Note_on_c, 1, 65, 127
1, 325915, Note_off_c, 1, 45, 0
1, 325915, Note_off_c, 1, 65, 0
1, 325917, Note_on_c, 1, 46, 127
1, 325917, Note_on_c, 1, 64, 127
1, 326095, Note_off_c, 1, 46, 0
1, 326095, Note_off_c, 1, 64, 0
1, 326096, Note_on_c, 1, 45, 127
1, 326096, Note_on_c, 1, 65, 127
1, 326274, Note_off_c, 1, 45, 0
1, 326274, Note_off_c, 1, 65, 0
1, 326277, Note_on_c, 1, 52, 127
1, 326277, Note_on_c, 1, 67, 127
1, 326455, Note_off_c, 1, 52, 0
1, 326455, Note_off_c, 1, 67, 0
1, 326456, Note_on_c, 1, 43, 127
1, 326456, Note_on_c, 1, 70, 127
1, 326634, Note_off_c, 1, 43, 0
1, 326634, Note_off_c, 1, 70, 0
1, 326636, Note_on_c, 1, 45, 127
1, 326636, Note_on_c, 1, 69, 127
1, 326814, Note_off_c, 1, 45, 0
1, 326814, Note_off_c, 1, 69, 0
1, 326815, Note_on_c, 1, 46, 127
1, 326815, Note_on_c, 1, 67, 127
1, 326993, Note_off_c, 1, 46, 0
1, 326993, Note_off_c, 1, 67, 0
1, 326995, Note_on_c, 1, 42, 127
1, 326995, Note_on_c, 1, 72, 127
1, 327174, Note_on_c, 1, 50, 127
1, 327174, Note_on_c, 1, 69, 127
1, 327344, Note_off_c, 1, 42, 0
1, 327352, Note_off_c, 1, 50, 0
1, 327352, Note_off_c, 1, 69, 0
1, 327355, Note_on_c, 1, 52, 127
1, 327355, Note_on_c, 1, 62, 127
1, 327519, Note_off_c, 1, 72, 0
1, 327533, Note_off_c, 1, 52, 0
1, 327534, Note_on_c, 1, 54, 127
1, 327711, Note_off_c, 1, 62, 0
1, 327712, Note_off_c, 1, 54, 0
1, 327714, Note_on_c, 1, 55, 127
1, 327714, Note_on_c, 1, 71, 127
1, 327892, Note_off_c, 1, 55, 0
1, 327892, Note_off_c, 1, 71, 0
1, 327893, Note_on_c, 1, 57, 127
1, 327893, Note_on_c, 1, 72, 127
1, 328071, Note_off_c, 1, 57, 0
1, 328071, Note_off_c, 1, 72, 0
1, 328073, Note_on_c, 1, 59, 127
1, 328073, Note_on_c, 1, 74, 127
1, 328162, Note_off_c, 1, 59, 0
1, 328162, Note_off_c, 1, 74, 0
1, 328163, Note_on_c, 1, 57, 127
1, 328163, Note_on_c, 1, 72, 127
1, 328252, Note_off_c, 1, 57, 0
1, 328252, Note_off_c, 1, 72, 0
1, 328255, Note_on_c, 1, 55, 127
1, 328255, Note_on_c, 1, 71, 127
1, 328344, Note_off_c, 1, 55, 0
1, 328344, Note_off_c, 1, 71, 0
1, 328345, Note_on_c, 1, 57, 127
1, 328345, Note_on_c, 1, 72, 127
1, 328434, Note_off_c, 1, 57, 0
1, 328434, Note_off_c, 1, 72, 0
1, 328436, Note_on_c, 1, 59, 127
1, 328436, Note_on_c, 1, 74, 127
1, 328436, Note_on_c, 1, 67, 127
1, 328614, Note_off_c, 1, 59, 0
1, 328615, Note_on_c, 1, 60, 127
1, 328793, Note_off_c, 1, 60, 0
1, 328795, Note_on_c, 1, 62, 127
1, 328884, Note_off_c, 1, 62, 0
1, 328974, Note_off_c, 1, 74, 0
1, 328976, Note_on_c, 1, 76, 127
1, 329155, Note_off_c, 1, 76, 0
1, 329158, Note_on_c, 1, 69, 127
1, 329336, Note_off_c, 1, 69, 0
1, 329337, Note_on_c, 1, 71, 127
1, 329515, Note_off_c, 1, 67, 0
1, 329515, Note_off_c, 1, 71, 0
1, 329517, Note_on_c, 1, 72, 127
1, 329517, Note_on_c, 1, 66, 127
1, 329517, Note_on_c, 1, 50, 127
1, 329695, Note_off_c, 1, 72, 0
1, 329696, Note_on_c, 1, 74, 127
1, 329873, Note_off_c, 1, 66, 0
1, 329874, Note_off_c, 1, 50, 0
1, 329874, Note_off_c, 1, 74, 0
1, 329876, Note_on_c, 1, 72, 127
1, 329876, Note_on_c, 1, 43, 127
1, 329876, Note_on_c, 1, 67, 127
1, 329945, Note_on_c, 1, 71, 127
1, 329965, Note_off_c, 1, 72, 0
1, 330034, Note_off_c, 1, 71, 0
1, 330055, Note_off_c, 1, 43, 0
1, 330058, Note_on_c, 1, 50, 127
1, 330237, Note_off_c, 1, 50, 0
1, 330239, Note_on_c, 1, 55, 127
1, 330417, Note_off_c, 1, 55, 0
1, 330418, Note_on_c, 1, 57, 127
1, 330418, Note_on_c, 1, 74, 127
1, 330596, Note_off_c, 1, 57, 0
1, 330596, Note_off_c, 1, 74, 0
1, 330598, Note_on_c, 1, 65, 127
1, 330598, Note_on_c, 1, 59, 127
1, 330776, Note_off_c, 1, 65, 0
1, 330777, Note_on_c, 1, 69, 127
1, 330955, Note_off_c, 1, 67, 0
1, 330955, Note_off_c, 1, 59, 0
1, 330955, Note_off_c, 1, 69, 0
1, 330958, Note_on_c, 1, 67, 127
1, 330958, Note_on_c, 1, 60, 127
1, 331136, Note_off_c, 1, 67, 0
1, 331137, Note_on_c, 1, 65, 127
1, 331315, Note_off_c, 1, 60, 0
1, 331315, Note_off_c, 1, 65, 0
1, 331317, Note_on_c, 1, 71, 127
1, 331317, Note_on_c, 1, 62, 127
1, 331495, Note_off_c, 1, 71, 0
1, 331496, Note_on_c, 1, 67, 127
1, 331674, Note_off_c, 1, 62, 0
1, 331674, Note_off_c, 1, 67, 0
1, 331676, Note_on_c, 1, 69, 127
1, 331676, Note_on_c, 1, 60, 127
1, 331854, Note_off_c, 1, 69, 0
1, 331855, Note_on_c, 1, 67, 127
1, 332033, Note_off_c, 1, 60, 0
1, 332033, Note_off_c, 1, 67, 0
1, 332036, Note_on_c, 1, 74, 127
1, 332036, Note_on_c, 1, 59, 127
1, 332214, Note_off_c, 1, 74, 0
1, 332215, Note_on_c, 1, 65, 127
1, 332393, Note_off_c, 1, 65, 0
1, 332395, Note_on_c, 1, 67, 127
1, 332395, Note_on_c, 1, 57, 127
1, 332573, Note_off_c, 1, 67, 0
1, 332574, Note_on_c, 1, 69, 127
1, 332752, Note_off_c, 1, 57, 0
1, 332752, Note_off_c, 1, 69, 0
1, 332754, Note_on_c, 1, 56, 127
1, 332933, Note_on_c, 1, 64, 127
1, 333111, Note_off_c, 1, 59, 0
1, 333111, Note_off_c, 1, 56, 0
1, 333229, Note_off_c, 1, 64, 0
1, 333293, Note_on_c, 1, 83, 127
1, 333471, Note_off_c, 1, 83, 0
1, 333473, Note_on_c, 1, 74, 127
1, 333473, Note_on_c, 1, 56, 127
1, 333651, Note_off_c, 1, 74, 0
1, 333652, Note_on_c, 1, 77, 127
1, 333830, Note_off_c, 1, 56, 0
1, 333830, Note_off_c, 1, 77, 0
1, 333832, Note_on_c, 1, 76, 127
1, 333832, Note_on_c, 1, 54, 127
1, 334010, Note_off_c, 1, 76, 0
1, 334011, Note_on_c, 1, 74, 127
1, 334189, Note_off_c, 1, 54, 0
1, 334189, Note_off_c, 1, 74, 0
1, 334192, Note_on_c, 1, 80, 127
1, 334192, Note_on_c, 1, 52, 127
1, 334370, Note_off_c, 1, 80, 0
1, 334371, Note_on_c, 1, 76, 127
1, 334549, Note_off_c, 1, 52, 0
1, 334549, Note_off_c, 1, 76, 0
1, 334551, Note_on_c, 1, 77, 127
1, 334551, Note_on_c, 1, 50, 127
1, 334551, Note_on_c, 1, 59, 127
1, 334729, Note_off_c, 1, 77, 0
1, 334730, Note_on_c, 1, 76, 127
1, 334908, Note_off_c, 1, 50, 0
1, 334908, Note_off_c, 1, 59, 0
1, 334908, Note_off_c, 1, 76, 0
1, 334910, Note_on_c, 1, 83, 127
1, 334910, Note_on_c, 1, 52, 127
1, 334910, Note_on_c, 1, 48, 127
1, 335088, Note_off_c, 1, 83, 0
1, 335089, Note_on_c, 1, 74, 127
1, 335267, Note_off_c, 1, 52, 0
1, 335267, Note_off_c, 1, 48, 0
1, 335267, Note_off_c, 1, 74, 0
1, 335270, Note_on_c, 1, 76, 127
1, 335270, Note_on_c, 1, 47, 127
1, 335270, Note_on_c, 1, 56, 127
1, 335448, Note_off_c, 1, 76, 0
1, 335449, Note_on_c, 1, 77, 127
1, 335627, Note_off_c, 1, 47, 0
1, 335627, Note_off_c, 1, 56, 0
1, 335627, Note_off_c, 1, 77, 0
1, 335629, Note_on_c, 1, 73, 127
1, 335629, Note_on_c, 1, 45, 127
1, 335629, Note_on_c, 1, 57, 127
1, 335807, Note_off_c, 1, 73, 0
1, 335808, Note_on_c, 1, 71, 127
1, 335986, Note_off_c, 1, 71, 0
1, 336166, Note_off_c, 1, 45, 0
1, 336166, Note_off_c, 1, 57, 0
1, 336167, Note_on_c, 1, 57, 127
1, 336167, Note_on_c, 1, 69, 127
1, 336345, Note_off_c, 1, 57, 0
1, 336345, Note_off_c, 1, 69, 0
1, 336348, Note_on_c, 1, 58, 127
1, 336348, Note_on_c, 1, 79, 127
1, 336526, Note_off_c, 1, 58, 0
1, 336527, Note_on_c, 1, 57, 127
1, 336705, Note_off_c, 1, 57, 0
1, 336885, Note_off_c, 1, 79, 0
1, 336886, Note_on_c, 1, 55, 127
1, 336886, Note_on_c, 1, 76, 127
1, 336886, Note_on_c, 1, 79, 127
1, 337064, Note_off_c, 1, 55, 0
1, 337064, Note_off_c, 1, 76, 0
1, 337064, Note_off_c, 1, 79, 0
1, 337066, Note_on_c, 1, 61, 127
1, 337066, Note_on_c, 1, 79, 127
1, 337066, Note_on_c, 1, 76, 127
1, 337244, Note_off_c, 1, 61, 0
1, 337244, Note_off_c, 1, 79, 0
1, 337245, Note_on_c, 1, 57, 127
1, 337245, Note_on_c, 1, 81, 127
1, 337422, Note_off_c, 1, 76, 0
1, 337423, Note_off_c, 1, 57, 0
1, 337423, Note_off_c, 1, 81, 0
1, 337426, Note_on_c, 1, 62, 127
1, 337426, Note_on_c, 1, 77, 127
1, 337426, Note_on_c, 1, 74, 127
1, 337604, Note_off_c, 1, 62, 0
1, 337604, Note_off_c, 1, 77, 0
1, 337605, Note_on_c, 1, 55, 127
1, 337605, Note_on_c, 1, 79, 127
1, 337782, Note_off_c, 1, 74, 0
1, 337783, Note_off_c, 1, 55, 0
1, 337783, Note_off_c, 1, 79, 0
1, 337785, Note_on_c, 1, 77, 127
1, 337785, Note_on_c, 1, 73, 127
1, 337785, Note_on_c, 1, 57, 127
1, 337843, Note_on_c, 1, 76, 127
1, 337874, Note_off_c, 1, 77, 0
1, 337932, Note_off_c, 1, 76, 0
1, 338147, Note_on_c, 1, 45, 127
1, 338329, Note_on_c, 1, 81, 127
1, 338501, Note_off_c, 1, 73, 0
1, 338507, Note_off_c, 1, 45, 0
1, 338508, Note_off_c, 1, 81, 0
1, 338510, Note_on_c, 1, 79, 127
1, 338510, Note_on_c, 1, 50, 127
1, 338688, Note_off_c, 1, 79, 0
1, 338867, Note_off_c, 1, 57, 0
1, 339048, Note_on_c, 1, 74, 127
1, 339226, Note_off_c, 1, 74, 0
1, 339407, Note_off_c, 1, 50, 0
1, 339410, Note_on_c, 1, 50, 127
1, 339410, Note_on_c, 1, 77, 127
1, 339588, Note_off_c, 1, 50, 0
1, 339589, Note_on_c, 1, 52, 127
1, 339767, Note_off_c, 1, 77, 0
1, 339767, Note_off_c, 1, 52, 0
1, 339769, Note_on_c, 1, 53, 127
1, 339769, Note_on_c, 1, 77, 127
1, 339947, Note_off_c, 1, 53, 0
1, 339947, Note_off_c, 1, 77, 0
1, 339948, Note_on_c, 1, 55, 127
1, 339948, Note_on_c, 1, 77, 127
1, 340126, Note_off_c, 1, 55, 0
1, 340126, Note_off_c, 1, 77, 0
1, 340129, Note_on_c, 1, 55, 127
1, 340129, Note_on_c, 1, 71, 127
1, 340307, Note_off_c, 1, 55, 0
1, 340307, Note_off_c, 1, 71, 0
1, 340308, Note_on_c, 1, 57, 127
1, 340308, Note_on_c, 1, 72, 127
1, 340486, Note_off_c, 1, 57, 0
1, 340486, Note_off_c, 1, 72, 0
1, 340488, Note_on_c, 1, 59, 127
1, 340488, Note_on_c, 1, 74, 127
1, 340666, Note_off_c, 1, 59, 0
1, 340666, Note_off_c, 1, 74, 0
1, 340667, Note_on_c, 1, 60, 127
1, 340667, Note_on_c, 1, 76, 127
1, 340845, Note_off_c, 1, 60, 0
1, 341026, Note_on_c, 1, 62, 127
1, 341204, Note_off_c, 1, 76, 0
1, 341204, Note_off_c, 1, 62, 0
1, 341207, Note_on_c, 1, 64, 127
1, 341207, Note_on_c, 1, 76, 127
1, 341385, Note_off_c, 1, 64, 0
1, 341385, Note_off_c, 1, 76, 0
1, 341386, Note_on_c, 1, 76, 127
1, 341386, Note_on_c, 1, 65, 127
1, 341564, Note_off_c, 1, 76, 0
1, 341566, Note_on_c, 1, 72, 127
1, 341744, Note_off_c, 1, 72, 0
1, 341745, Note_on_c, 1, 71, 127
1, 341923, Note_off_c, 1, 71, 0
1, 341925, Note_on_c, 1, 69, 127
1, 342103, Note_off_c, 1, 69, 0
1, 342104, Note_on_c, 1, 74, 127
1, 342193, Note_off_c, 1, 74, 0
1, 342283, Note_off_c, 1, 65, 0
1, 342286, Note_on_c, 1, 47, 127
1, 342286, Note_on_c, 1, 74, 127
1, 342464, Note_off_c, 1, 47, 0
1, 342466, Note_on_c, 1, 48, 127
1, 342643, Note_off_c, 1, 74, 0
1, 342644, Note_off_c, 1, 48, 0
1, 342645, Note_on_c, 1, 50, 127
1, 342645, Note_on_c, 1, 74, 127
1, 342823, Note_off_c, 1, 50, 0
1, 342823, Note_off_c, 1, 74, 0
1, 342825, Note_on_c, 1, 52, 127
1, 342825, Note_on_c, 1, 74, 127
1, 343003, Note_off_c, 1, 52, 0
1, 343003, Note_off_c, 1, 74, 0
1, 343004, Note_on_c, 1, 52, 127
1, 343004, Note_on_c, 1, 68, 127
1, 343182, Note_off_c, 1, 52, 0
1, 343182, Note_off_c, 1, 68, 0
1, 343185, Note_on_c, 1, 54, 127
1, 343185, Note_on_c, 1, 69, 127
1, 343363, Note_off_c, 1, 54, 0
1, 343363, Note_off_c, 1, 69, 0
1, 343364, Note_on_c, 1, 56, 127
1, 343364, Note_on_c, 1, 71, 127
1, 343542, Note_off_c, 1, 56, 0
1, 343542, Note_off_c, 1, 71, 0
1, 343544, Note_on_c, 1, 57, 127
1, 343544, Note_on_c, 1, 72, 127
1, 343722, Note_off_c, 1, 57, 0
1, 343903, Note_on_c, 1, 59, 127
1, 344081, Note_off_c, 1, 72, 0
1, 344081, Note_off_c, 1, 59, 0
1, 344082, Note_on_c, 1, 60, 127
1, 344082, Note_on_c, 1, 72, 127
1, 344260, Note_off_c, 1, 60, 0
1, 344260, Note_off_c, 1, 72, 0
1, 344263, Note_on_c, 1, 72, 127
1, 344263, Note_on_c, 1, 62, 127
1, 344441, Note_off_c, 1, 72, 0
1, 344442, Note_on_c, 1, 69, 127
1, 344620, Note_off_c, 1, 69, 0
1, 344622, Note_on_c, 1, 67, 127
1, 344800, Note_off_c, 1, 67, 0
1, 344801, Note_on_c, 1, 65, 127
1, 344979, Note_off_c, 1, 65, 0
1, 344981, Note_on_c, 1, 70, 127
1, 345159, Note_off_c, 1, 62, 0
1, 345160, Note_on_c, 1, 53, 127
1, 345193, Note_off_c, 1, 70, 0
1, 345338, Note_off_c, 1, 53, 0
1, 345341, Note_on_c, 1, 52, 127
1, 345341, Note_on_c, 1, 68, 127
1, 345519, Note_off_c, 1, 52, 0
1, 345519, Note_off_c, 1, 68, 0
1, 345520, Note_on_c, 1, 50, 127
1, 345520, Note_on_c, 1, 69, 127
1, 345698, Note_off_c, 1, 50, 0
1, 345700, Note_on_c, 1, 56, 127
1, 345700, Note_on_c, 1, 62, 127
1, 345732, Note_off_c, 1, 69, 0
1, 345878, Note_off_c, 1, 56, 0
1, 345879, Note_on_c, 1, 52, 127
1, 345879, Note_on_c, 1, 68, 127
1, 345912, Note_off_c, 1, 62, 0
1, 346057, Note_off_c, 1, 52, 0
1, 346057, Note_off_c, 1, 68, 0
1, 346059, Note_on_c, 1, 53, 127
1, 346059, Note_on_c, 1, 69, 127
1, 346237, Note_off_c, 1, 53, 0
1, 346237, Note_off_c, 1, 69, 0
1, 346238, Note_on_c, 1, 52, 127
1, 346238, Note_on_c, 1, 71, 127
1, 346416, Note_off_c, 1, 52, 0
1, 346416, Note_off_c, 1, 71, 0
1, 346419, Note_on_c, 1, 57, 127
1, 346419, Note_on_c, 1, 72, 127
1, 346597, Note_off_c, 1, 57, 0
1, 346597, Note_off_c, 1, 72, 0
1, 346598, Note_on_c, 1, 50, 127
1, 346598, Note_on_c, 1, 71, 127
1, 346776, Note_off_c, 1, 50, 0
1, 346776, Note_off_c, 1, 71, 0
1, 346778, Note_on_c, 1, 52, 127
1, 346778, Note_on_c, 1, 72, 127
1, 346956, Note_off_c, 1, 52, 0
1, 346956, Note_off_c, 1, 72, 0
1, 346957, Note_on_c, 1, 53, 127
1, 346957, Note_on_c, 1, 69, 127
1, 347135, Note_off_c, 1, 53, 0
1, 347135, Note_off_c, 1, 69, 0
1, 347137, Note_on_c, 1, 44, 127
1, 347137, Note_on_c, 1, 71, 127
1, 347315, Note_off_c, 1, 44, 0
1, 347497, Note_on_c, 1, 45, 127
1, 347497, Note_on_c, 1, 64, 127
1, 347561, Note_off_c, 1, 71, 0
1, 347675, Note_off_c, 1, 45, 0
1, 347676, Note_on_c, 1, 47, 127
1, 347793, Note_off_c, 1, 64, 0
1, 347854, Note_off_c, 1, 47, 0
1, 347856, Note_on_c, 1, 76, 127
1, 347856, Note_on_c, 1, 48, 127
1, 347945, Note_off_c, 1, 76, 0
1, 347946, Note_on_c, 1, 74, 127
1, 348035, Note_off_c, 1, 48, 0
1, 348035, Note_off_c, 1, 74, 0
1, 348037, Note_on_c, 1, 48, 127
1, 348037, Note_on_c, 1, 76, 127
1, 348215, Note_off_c, 1, 48, 0
1, 348216, Note_on_c, 1, 50, 127
1, 348394, Note_off_c, 1, 76, 0
1, 348394, Note_off_c, 1, 50, 0
1, 348397, Note_on_c, 1, 52, 127
1, 348397, Note_on_c, 1, 76, 127
1, 348575, Note_off_c, 1, 52, 0
1, 348575, Note_off_c, 1, 76, 0
1, 348576, Note_on_c, 1, 76, 127
1, 348576, Note_on_c, 1, 53, 127
1, 348754, Note_off_c, 1, 76, 0
1, 348756, Note_on_c, 1, 72, 127
1, 348934, Note_off_c, 1, 72, 0
1, 348935, Note_on_c, 1, 71, 127
1, 349113, Note_off_c, 1, 71, 0
1, 349115, Note_on_c, 1, 69, 127
1, 349293, Note_off_c, 1, 69, 0
1, 349294, Note_on_c, 1, 81, 127
1, 349383, Note_off_c, 1, 81, 0
1, 349386, Note_on_c, 1, 79, 127
1, 349473, Note_off_c, 1, 53, 0
1, 349475, Note_off_c, 1, 79, 0
1, 349476, Note_on_c, 1, 50, 127
1, 349476, Note_on_c, 1, 81, 127
1, 349654, Note_off_c, 1, 50, 0
1, 349656, Note_on_c, 1, 52, 127
1, 349833, Note_off_c, 1, 81, 0
1, 349834, Note_off_c, 1, 52, 0
1, 349835, Note_on_c, 1, 53, 127
1, 349835, Note_on_c, 1, 81, 127
1, 350013, Note_off_c, 1, 53, 0
1, 350013, Note_off_c, 1, 81, 0
1, 350015, Note_on_c, 1, 47, 127
1, 350015, Note_on_c, 1, 81, 127
1, 350193, Note_off_c, 1, 47, 0
1, 350193, Note_off_c, 1, 81, 0
1, 350194, Note_on_c, 1, 47, 127
1, 350194, Note_on_c, 1, 77, 127
1, 350372, Note_off_c, 1, 47, 0
1, 350372, Note_off_c, 1, 77, 0
1, 350375, Note_on_c, 1, 48, 127
1, 350375, Note_on_c, 1, 76, 127
1, 350553, Note_off_c, 1, 48, 0
1, 350553, Note_off_c, 1, 76, 0
1, 350554, Note_on_c, 1, 50, 127
1, 350554, Note_on_c, 1, 74, 127
1, 350732, Note_off_c, 1, 50, 0
1, 350734, Note_on_c, 1, 44, 127
1, 350734, Note_on_c, 1, 83, 127
1, 350921, Note_off_c, 1, 44, 0
1, 351112, Note_on_c, 1, 45, 127
1, 351292, Note_off_c, 1, 74, 0
1, 351299, Note_off_c, 1, 45, 0
1, 351300, Note_off_c, 1, 83, 0
1, 351301, Note_on_c, 1, 47, 127
1, 351301, Note_on_c, 1, 83, 127
1, 351301, Note_on_c, 1, 74, 127
1, 351488, Note_off_c, 1, 47, 0
1, 351488, Note_off_c, 1, 83, 0
1, 351488, Note_off_c, 1, 74, 0
1, 351491, Note_on_c, 1, 83, 127
1, 351491, Note_on_c, 1, 74, 127
1, 351491, Note_on_c, 1, 40, 127
1, 351700, Note_off_c, 1, 83, 0
1, 351702, Note_on_c, 1, 81, 127
1, 351804, Note_off_c, 1, 81, 0
1, 351807, Note_on_c, 1, 80, 127
1, 351908, Note_off_c, 1, 74, 0
1, 351909, Note_off_c, 1, 80, 0
1, 351910, Note_off_c, 1, 40, 0
1, 351912, Note_on_c, 1, 48, 127
1, 351912, Note_on_c, 1, 72, 127
1, 351912, Note_on_c, 1, 81, 127
1, 352121, Note_off_c, 1, 48, 0
1, 352121, Note_off_c, 1, 72, 0
1, 352121, Note_off_c, 1, 81, 0
1, 352124, Note_on_c, 1, 50, 127
1, 352124, Note_on_c, 1, 74, 127
1, 352124, Note_on_c, 1, 71, 127
1, 352333, Note_off_c, 1, 50, 0
1, 352333, Note_off_c, 1, 74, 0
1, 352333, Note_off_c, 1, 71, 0
1, 352335, Note_on_c, 1, 74, 127
1, 352335, Note_on_c, 1, 69, 127
1, 352335, Note_on_c, 1, 52, 127
1, 352437, Note_off_c, 1, 74, 0
1, 352439, Note_on_c, 1, 72, 127
1, 352541, Note_off_c, 1, 72, 0
1, 352751, Note_off_c, 1, 69, 0
1, 352752, Note_off_c, 1, 52, 0
1, 352754, Note_on_c, 1, 68, 127
1, 352754, Note_on_c, 1, 71, 127
1, 352754, Note_on_c, 1, 40, 127
1, 352963, Note_off_c, 1, 68, 0
1, 352963, Note_off_c, 1, 71, 0
1, 352966, Note_on_c, 1, 69, 127
1, 353174, Note_off_c, 1, 40, 0
1, 353175, Note_off_c, 1, 69, 0
1, 353177, Note_on_c, 1, 45, 127
1, 353177, Note_on_c, 1, 69, 127
1, 353383, Note_on_c, 1, 67, 127
1, 353586, Note_off_c, 1, 67, 0
1, 353587, Note_on_c, 1, 65, 127
1, 353790, Note_off_c, 1, 65, 0
1, 353793, Note_on_c, 1, 49, 127
1, 353793, Note_on_c, 1, 64, 127
1, 353996, Note_off_c, 1, 49, 0
1, 353996, Note_off_c, 1, 64, 0
1, 353998, Note_on_c, 1, 50, 127
1, 354201, Note_off_c, 1, 50, 0
1, 354203, Note_on_c, 1, 52, 127
1, 354203, Note_on_c, 1, 61, 127
1, 354406, Note_off_c, 1, 52, 0
1, 354406, Note_off_c, 1, 61, 0
1, 354408, Note_on_c, 1, 53, 127
1, 354408, Note_on_c, 1, 62, 127
1, 354611, Note_off_c, 1, 53, 0
1, 354614, Note_on_c, 1, 56, 127
1, 354812, Note_off_c, 1, 62, 0
1, 354814, Note_off_c, 1, 45, 0
1, 354815, Note_off_c, 1, 56, 0
1, 354817, Note_on_c, 1, 57, 127
1, 355058, Note_off_c, 1, 69, 0
1, 355837, Note_off_c, 1, 57, 0
1, 358589, Note_on_c, 1, 69, 127
1, 358938, Note_off_c, 1, 69, 0
1, 358954, Note_on_c, 1, 57, 127
1, 358954, Note_on_c, 1, 60, 127
1, 358954, Note_on_c, 1, 64, 127
1, 358954, Note_on_c, 1, 69, 127
1, 359320, Note_off_c, 1, 57, 0
1, 359321, Note_on_c, 1, 52, 127
1, 359503, Note_off_c, 1, 60, 0
1, 359503, Note_off_c, 1, 64, 0
1, 359503, Note_off_c, 1, 69, 0
1, 359504, Note_on_c, 1, 71, 127
1, 359685, Note_off_c, 1, 52, 0
1, 359685, Note_off_c, 1, 71, 0
1, 359687, Note_on_c, 1, 72, 127
1, 359687, Note_on_c, 1, 45, 127
1, 359868, Note_off_c, 1, 72, 0
1, 359870, Note_on_c, 1, 74, 127
1, 360051, Note_off_c, 1, 45, 0
1, 360051, Note_off_c, 1, 74, 0
1, 360053, Note_on_c, 1, 76, 127
1, 360053, Note_on_c, 1, 57, 127
1, 360234, Note_off_c, 1, 76, 0
1, 360236, Note_on_c, 1, 77, 127
1, 360417, Note_off_c, 1, 57, 0
1, 360417, Note_off_c, 1, 77, 0
1, 360419, Note_on_c, 1, 76, 127
1, 360419, Note_on_c, 1, 56, 127
1, 360600, Note_off_c, 1, 76, 0
1, 360602, Note_on_c, 1, 74, 127
1, 360783, Note_off_c, 1, 56, 0
1, 360783, Note_off_c, 1, 74, 0
1, 360785, Note_on_c, 1, 72, 127
1, 360785, Note_on_c, 1, 52, 127
1, 360966, Note_off_c, 1, 72, 0
1, 360968, Note_on_c, 1, 71, 127
1, 361149, Note_off_c, 1, 52, 0
1, 361149, Note_off_c, 1, 71, 0
1, 361151, Note_on_c, 1, 72, 127
1, 361151, Note_on_c, 1, 57, 127
1, 361241, Note_off_c, 1, 72, 0
1, 361243, Note_on_c, 1, 71, 127
1, 361332, Note_off_c, 1, 57, 0
1, 361333, Note_off_c, 1, 71, 0
1, 361334, Note_on_c, 1, 45, 127
1, 361334, Note_on_c, 1, 72, 127
1, 361515, Note_off_c, 1, 45, 0
1, 361517, Note_on_c, 1, 57, 127
1, 361698, Note_off_c, 1, 72, 0
1, 361698, Note_off_c, 1, 57, 0
1, 361700, Note_on_c, 1, 59, 127
1, 361700, Note_on_c, 1, 71, 127
1, 361881, Note_off_c, 1, 59, 0
1, 361881, Note_off_c, 1, 71, 0
1, 361883, Note_on_c, 1, 60, 127
1, 361883, Note_on_c, 1, 69, 127
1, 362064, Note_off_c, 1, 60, 0
1, 362066, Note_on_c, 1, 62, 127
1, 362247, Note_off_c, 1, 69, 0
1, 362247, Note_off_c, 1, 62, 0
1, 362249, Note_on_c, 1, 64, 127
1, 362249, Note_on_c, 1, 81, 127
1, 362430, Note_off_c, 1, 64, 0
1, 362432, Note_on_c, 1, 65, 127
1, 362613, Note_off_c, 1, 81, 0
1, 362613, Note_off_c, 1, 65, 0
1, 362615, Note_on_c, 1, 64, 127
1, 362615, Note_on_c, 1, 80, 127
1, 362796, Note_off_c, 1, 64, 0
1, 362798, Note_on_c, 1, 62, 127
1, 362979, Note_off_c, 1, 80, 0
1, 362979, Note_off_c, 1, 62, 0
1, 362981, Note_on_c, 1, 81, 127
1, 362981, Note_on_c, 1, 60, 127
1, 363071, Note_off_c, 1, 81, 0
1, 363073, Note_on_c, 1, 80, 127
1, 363162, Note_off_c, 1, 60, 0
1, 363163, Note_off_c, 1, 80, 0
1, 363164, Note_on_c, 1, 81, 127
1, 363164, Note_on_c, 1, 59, 127
1, 363254, Note_off_c, 1, 81, 0
1, 363256, Note_on_c, 1, 83, 127
1, 363345, Note_off_c, 1, 59, 0
1, 363346, Note_off_c, 1, 83, 0
1, 363347, Note_on_c, 1, 60, 127
1, 363347, Note_on_c, 1, 76, 127
1, 363532, Note_on_c, 1, 64, 127
1, 363713, Note_off_c, 1, 64, 0
1, 363715, Note_on_c, 1, 69, 127
1, 363896, Note_off_c, 1, 60, 0
1, 363897, Note_off_c, 1, 76, 0
1, 363899, Note_on_c, 1, 61, 127
1, 363899, Note_on_c, 1, 79, 127
1, 364080, Note_off_c, 1, 61, 0
1, 364080, Note_off_c, 1, 79, 0
1, 364082, Note_on_c, 1, 77, 127
1, 364082, Note_on_c, 1, 62, 127
1, 364263, Note_off_c, 1, 77, 0
1, 364446, Note_off_c, 1, 62, 0
1, 364448, Note_off_c, 1, 69, 0
1, 364450, Note_on_c, 1, 74, 127
1, 364450, Note_on_c, 1, 68, 127
1, 364450, Note_on_c, 1, 59, 127
1, 364631, Note_off_c, 1, 74, 0
1, 364633, Note_on_c, 1, 77, 127
1, 364813, Note_off_c, 1, 68, 0
1, 364814, Note_off_c, 1, 59, 0
1, 364814, Note_off_c, 1, 77, 0
1, 364816, Note_on_c, 1, 76, 127
1, 364816, Note_on_c, 1, 60, 127
1, 364816, Note_on_c, 1, 69, 127
1, 364997, Note_off_c, 1, 76, 0
1, 364999, Note_on_c, 1, 74, 127
1, 365180, Note_off_c, 1, 60, 0
1, 365180, Note_off_c, 1, 74, 0
1, 365182, Note_on_c, 1, 62, 127
1, 365365, Note_on_c, 1, 77, 127
1, 365546, Note_off_c, 1, 62, 0
1, 365546, Note_off_c, 1, 77, 0
1, 365548, Note_off_c, 1, 69, 0
1, 365549, Note_on_c, 1, 72, 127
1, 365549, Note_on_c, 1, 64, 127
1, 365639, Note_off_c, 1, 72, 0
1, 365641, Note_on_c, 1, 71, 127
1, 365732, Note_on_c, 1, 69, 127
1, 365913, Note_off_c, 1, 69, 0
1, 365915, Note_on_c, 1, 68, 127
1, 366096, Note_off_c, 1, 64, 0
1, 366278, Note_off_c, 1, 68, 0
1, 366281, Note_on_c, 1, 62, 127
1, 366373, Note_off_c, 1, 71, 0
1, 366464, Note_off_c, 1, 62, 0
1, 366466, Note_on_c, 1, 60, 127
1, 366647, Note_off_c, 1, 60, 0
1, 366649, Note_on_c, 1, 59, 127
1, 366649, Note_on_c, 1, 68, 127
1, 366830, Note_off_c, 1, 59, 0
1, 366830, Note_off_c, 1, 68, 0
1, 366832, Note_on_c, 1, 62, 127
1, 366832, Note_on_c, 1, 69, 127
1, 367013, Note_off_c, 1, 62, 0
1, 367013, Note_off_c, 1, 69, 0
1, 367015, Note_on_c, 1, 71, 127
1, 367015, Note_on_c, 1, 60, 127
1, 367117, Note_on_c, 1, 69, 127
1, 367125, Note_off_c, 1, 71, 0
1, 367187, Note_off_c, 1, 69, 0
1, 367196, Note_off_c, 1, 60, 0
1, 367198, Note_on_c, 1, 59, 127
1, 367379, Note_off_c, 1, 59, 0
1, 367564, Note_on_c, 1, 62, 127
1, 367607, Note_on_c, 1, 68, 127
1, 367677, Note_off_c, 1, 68, 0
1, 367745, Note_off_c, 1, 62, 0
1, 367747, Note_on_c, 1, 56, 127
1, 367928, Note_off_c, 1, 56, 0
1, 368113, Note_on_c, 1, 57, 127
1, 368294, Note_off_c, 1, 57, 0
1, 368296, Note_on_c, 1, 56, 127
1, 368296, Note_on_c, 1, 72, 127
1, 368477, Note_off_c, 1, 56, 0
1, 368477, Note_off_c, 1, 72, 0
1, 368479, Note_on_c, 1, 54, 127
1, 368479, Note_on_c, 1, 74, 127
1, 368660, Note_off_c, 1, 54, 0
1, 368660, Note_off_c, 1, 74, 0
1, 368662, Note_on_c, 1, 52, 127
1, 368662, Note_on_c, 1, 71, 127
1, 368843, Note_off_c, 1, 52, 0
1, 368843, Note_off_c, 1, 71, 0
1, 368845, Note_on_c, 1, 57, 127
1, 368845, Note_on_c, 1, 72, 127
1, 369026, Note_off_c, 1, 57, 0
1, 369026, Note_off_c, 1, 72, 0
1, 369028, Note_on_c, 1, 55, 127
1, 369028, Note_on_c, 1, 74, 127
1, 369209, Note_off_c, 1, 55, 0
1, 369209, Note_off_c, 1, 74, 0
1, 369211, Note_on_c, 1, 76, 127
1, 369211, Note_on_c, 1, 53, 127
1, 369321, Note_off_c, 1, 76, 0
1, 369322, Note_on_c, 1, 74, 127
1, 369392, Note_off_c, 1, 53, 0
1, 369392, Note_off_c, 1, 74, 0
1, 369394, Note_on_c, 1, 52, 127
1, 369575, Note_off_c, 1, 52, 0
1, 369760, Note_on_c, 1, 55, 127
1, 369812, Note_on_c, 1, 72, 127
1, 369882, Note_off_c, 1, 72, 0
1, 369941, Note_off_c, 1, 55, 0
1, 369943, Note_on_c, 1, 48, 127
1, 370124, Note_off_c, 1, 48, 0
1, 370492, Note_on_c, 1, 50, 127
1, 370492, Note_on_c, 1, 77, 127
1, 370673, Note_off_c, 1, 50, 0
1, 370673, Note_off_c, 1, 77, 0
1, 370675, Note_on_c, 1, 48, 127
1, 370675, Note_on_c, 1, 79, 127
1, 370856, Note_off_c, 1, 48, 0
1, 370856, Note_off_c, 1, 79, 0
1, 370858, Note_on_c, 1, 46, 127
1, 370858, Note_on_c, 1, 76, 127
1, 371039, Note_off_c, 1, 46, 0
1, 371039, Note_off_c, 1, 76, 0
1, 371041, Note_on_c, 1, 45, 127
1, 371041, Note_on_c, 1, 77, 127
1, 371222, Note_off_c, 1, 45, 0
1, 371222, Note_off_c, 1, 77, 0
1, 371224, Note_on_c, 1, 48, 127
1, 371224, Note_on_c, 1, 79, 127
1, 371405, Note_off_c, 1, 48, 0
1, 371405, Note_off_c, 1, 79, 0
1, 371407, Note_on_c, 1, 81, 127
1, 371407, Note_on_c, 1, 46, 127
1, 371517, Note_off_c, 1, 81, 0
1, 371518, Note_on_c, 1, 79, 127
1, 371588, Note_off_c, 1, 46, 0
1, 371588, Note_off_c, 1, 79, 0
1, 371590, Note_on_c, 1, 45, 127
1, 371771, Note_off_c, 1, 45, 0
1, 371956, Note_on_c, 1, 48, 127
1, 372008, Note_on_c, 1, 77, 127
1, 372078, Note_off_c, 1, 77, 0
1, 372137, Note_off_c, 1, 48, 0
1, 372139, Note_on_c, 1, 41, 127
1, 372322, Note_on_c, 1, 82, 127
1, 372503, Note_off_c, 1, 41, 0
1, 372503, Note_off_c, 1, 82, 0
1, 372505, Note_on_c, 1, 53, 127
1, 372505, Note_on_c, 1, 81, 127
1, 372686, Note_off_c, 1, 53, 0
1, 372686, Note_off_c, 1, 81, 0
1, 372688, Note_on_c, 1, 55, 127
1, 372688, Note_on_c, 1, 79, 127
1, 372869, Note_off_c, 1, 55, 0
1, 372869, Note_off_c, 1, 79, 0
1, 372871, Note_on_c, 1, 57, 127
1, 372871, Note_on_c, 1, 77, 127
1, 373052, Note_off_c, 1, 57, 0
1, 373052, Note_off_c, 1, 77, 0
1, 373054, Note_on_c, 1, 55, 127
1, 373054, Note_on_c, 1, 76, 127
1, 373235, Note_off_c, 1, 55, 0
1, 373235, Note_off_c, 1, 76, 0
1, 373237, Note_on_c, 1, 53, 127
1, 373237, Note_on_c, 1, 74, 127
1, 373418, Note_off_c, 1, 53, 0
1, 373418, Note_off_c, 1, 74, 0
1, 373420, Note_on_c, 1, 72, 127
1, 373420, Note_on_c, 1, 52, 127
1, 373590, Note_off_c, 1, 72, 0
1, 373601, Note_off_c, 1, 52, 0
1, 373603, Note_on_c, 1, 77, 127
1, 373603, Note_on_c, 1, 50, 127
1, 373693, Note_off_c, 1, 77, 0
1, 373694, Note_on_c, 1, 76, 127
1, 373784, Note_off_c, 1, 50, 0
1, 373784, Note_off_c, 1, 76, 0
1, 373786, Note_on_c, 1, 48, 127
1, 373786, Note_on_c, 1, 77, 127
1, 373967, Note_off_c, 1, 48, 0
1, 373969, Note_on_c, 1, 47, 127
1, 374150, Note_off_c, 1, 77, 0
1, 374150, Note_off_c, 1, 47, 0
1, 374152, Note_on_c, 1, 45, 127
1, 374152, Note_on_c, 1, 77, 127
1, 374333, Note_off_c, 1, 45, 0
1, 374333, Note_off_c, 1, 77, 0
1, 374335, Note_on_c, 1, 47, 127
1, 374335, Note_on_c, 1, 67, 127
1, 374426, Note_on_c, 1, 74, 127
1, 374516, Note_off_c, 1, 47, 0
1, 374518, Note_on_c, 1, 43, 127
1, 374518, Note_on_c, 1, 77, 127
1, 374699, Note_off_c, 1, 43, 0
1, 374701, Note_on_c, 1, 45, 127
1, 374882, Note_off_c, 1, 77, 0
1, 374882, Note_off_c, 1, 45, 0
1, 374884, Note_off_c, 1, 67, 0
1, 375066, Note_off_c, 1, 74, 0
1, 375068, Note_on_c, 1, 48, 127
1, 375068, Note_on_c, 1, 76, 127
1, 375249, Note_off_c, 1, 48, 0
1, 375249, Note_off_c, 1, 76, 0
1, 375251, Note_on_c, 1, 50, 127
1, 375251, Note_on_c, 1, 77, 127
1, 375432, Note_off_c, 1, 50, 0
1, 375432, Note_off_c, 1, 77, 0
1, 375434, Note_on_c, 1, 52, 127
1, 375434, Note_on_c, 1, 79, 127
1, 375615, Note_off_c, 1, 52, 0
1, 375615, Note_off_c, 1, 79, 0
1, 375617, Note_on_c, 1, 53, 127
1, 375617, Note_on_c, 1, 81, 127
1, 375798, Note_off_c, 1, 53, 0
1, 375798, Note_off_c, 1, 81, 0
1, 375800, Note_on_c, 1, 79, 127
1, 375800, Note_on_c, 1, 55, 127
1, 375981, Note_off_c, 1, 79, 0
1, 375983, Note_on_c, 1, 77, 127
1, 376164, Note_off_c, 1, 55, 0
1, 376164, Note_off_c, 1, 77, 0
1, 376166, Note_on_c, 1, 76, 127
1, 376166, Note_on_c, 1, 43, 127
1, 376347, Note_off_c, 1, 76, 0
1, 376349, Note_on_c, 1, 74, 127
1, 376530, Note_off_c, 1, 43, 0
1, 376530, Note_off_c, 1, 74, 0
1, 376532, Note_on_c, 1, 76, 127
1, 376532, Note_on_c, 1, 48, 127
1, 376622, Note_off_c, 1, 76, 0
1, 376624, Note_on_c, 1, 74, 127
1, 376714, Note_off_c, 1, 74, 0
1, 376715, Note_on_c, 1, 55, 127
1, 376896, Note_off_c, 1, 55, 0
1, 376898, Note_on_c, 1, 60, 127
1, 377081, Note_off_c, 1, 48, 0
1, 377083, Note_on_c, 1, 50, 127
1, 377262, Note_off_c, 1, 60, 0
1, 377264, Note_off_c, 1, 50, 0
1, 377266, Note_on_c, 1, 72, 127
1, 377266, Note_on_c, 1, 52, 127
1, 377447, Note_off_c, 1, 72, 0
1, 377449, Note_on_c, 1, 76, 127
1, 377630, Note_off_c, 1, 52, 0
1, 377630, Note_off_c, 1, 76, 0
1, 377632, Note_on_c, 1, 74, 127
1, 377632, Note_on_c, 1, 53, 127
1, 377813, Note_off_c, 1, 74, 0
1, 377815, Note_on_c, 1, 72, 127
1, 377996, Note_off_c, 1, 53, 0
1, 377996, Note_off_c, 1, 72, 0
1, 377998, Note_on_c, 1, 71, 127
1, 377998, Note_on_c, 1, 55, 127
1, 378179, Note_off_c, 1, 71, 0
1, 378181, Note_on_c, 1, 69, 127
1, 378362, Note_off_c, 1, 55, 0
1, 378362, Note_off_c, 1, 69, 0
1, 378364, Note_on_c, 1, 71, 127
1, 378364, Note_on_c, 1, 57, 127
1, 378545, Note_off_c, 1, 71, 0
1, 378547, Note_on_c, 1, 72, 127
1, 378728, Note_off_c, 1, 57, 0
1, 378728, Note_off_c, 1, 72, 0
1, 378730, Note_on_c, 1, 59, 127
1, 378730, Note_on_c, 1, 67, 127
1, 378911, Note_off_c, 1, 59, 0
1, 378913, Note_on_c, 1, 60, 127
1, 379094, Note_off_c, 1, 60, 0
1, 379096, Note_on_c, 1, 65, 127
1, 379096, Note_on_c, 1, 62, 127
1, 379107, Note_off_c, 1, 67, 0
1, 379176, Note_off_c, 1, 65, 0
1, 379277, Note_off_c, 1, 62, 0
1, 379279, Note_on_c, 1, 64, 127
1, 379460, Note_off_c, 1, 64, 0
1, 379462, Note_on_c, 1, 59, 127
1, 379462, Note_on_c, 1, 65, 127
1, 379643, Note_off_c, 1, 59, 0
1, 379643, Note_off_c, 1, 65, 0
1, 379645, Note_on_c, 1, 57, 127
1, 379645, Note_on_c, 1, 62, 127
1, 379826, Note_off_c, 1, 57, 0
1, 379826, Note_off_c, 1, 62, 0
1, 379828, Note_on_c, 1, 55, 127
1, 379828, Note_on_c, 1, 64, 127
1, 380009, Note_off_c, 1, 55, 0
1, 380009, Note_off_c, 1, 64, 0
1, 380011, Note_on_c, 1, 53, 127
1, 380011, Note_on_c, 1, 65, 127
1, 380192, Note_off_c, 1, 53, 0
1, 380192, Note_off_c, 1, 65, 0
1, 380194, Note_on_c, 1, 52, 127
1, 380194, Note_on_c, 1, 67, 127
1, 380375, Note_off_c, 1, 52, 0
1, 380375, Note_off_c, 1, 67, 0
1, 380377, Note_on_c, 1, 48, 127
1, 380377, Note_on_c, 1, 69, 127
1, 380558, Note_off_c, 1, 48, 0
1, 380558, Note_off_c, 1, 69, 0
1, 380560, Note_on_c, 1, 50, 127
1, 380560, Note_on_c, 1, 70, 127
1, 380741, Note_off_c, 1, 50, 0
1, 380741, Note_off_c, 1, 70, 0
1, 380743, Note_on_c, 1, 52, 127
1, 380743, Note_on_c, 1, 67, 127
1, 380924, Note_off_c, 1, 52, 0
1, 380924, Note_off_c, 1, 67, 0
1, 380926, Note_on_c, 1, 53, 127
1, 380926, Note_on_c, 1, 69, 127
1, 381107, Note_off_c, 1, 53, 0
1, 381109, Note_on_c, 1, 52, 127
1, 381290, Note_off_c, 1, 52, 0
1, 381473, Note_off_c, 1, 69, 0
1, 381475, Note_on_c, 1, 55, 127
1, 381475, Note_on_c, 1, 67, 127
1, 381656, Note_off_c, 1, 55, 0
1, 381656, Note_off_c, 1, 67, 0
1, 381658, Note_on_c, 1, 65, 127
1, 381658, Note_on_c, 1, 57, 127
1, 381839, Note_off_c, 1, 65, 0
1, 381841, Note_on_c, 1, 64, 127
1, 382022, Note_off_c, 1, 57, 0
1, 382022, Note_off_c, 1, 64, 0
1, 382024, Note_on_c, 1, 62, 127
1, 382024, Note_on_c, 1, 53, 127
1, 382205, Note_off_c, 1, 62, 0
1, 382207, Note_on_c, 1, 74, 127
1, 382388, Note_off_c, 1, 53, 0
1, 382388, Note_off_c, 1, 74, 0
1, 382390, Note_on_c, 1, 72, 127
1, 382390, Note_on_c, 1, 55, 127
1, 382551, Note_on_c, 1, 71, 127
1, 382556, Note_off_c, 1, 72, 0
1, 382641, Note_off_c, 1, 71, 0
1, 382754, Note_off_c, 1, 55, 0
1, 382756, Note_on_c, 1, 43, 127
1, 383120, Note_off_c, 1, 43, 0
1, 383122, Note_on_c, 1, 48, 127
1, 383122, Note_on_c, 1, 72, 127
1, 383491, Note_on_c, 1, 36, 127
1, 383858, Note_off_c, 1, 48, 0
1, 383860, Note_on_c, 1, 43, 127
1, 384226, Note_off_c, 1, 43, 0
1, 384227, Note_on_c, 1, 67, 127
1, 384227, Note_on_c, 1, 64, 127
1, 384958, Note_off_c, 1, 36, 0
1, 384962, Note_off_c, 1, 67, 0
1, 384962, Note_off_c, 1, 64, 0
1, 384964, Note_off_c, 1, 72, 0
1, 385148, Note_on_c, 1, 76, 127
1, 385329, Note_off_c, 1, 76, 0
1, 385331, Note_on_c, 1, 48, 127
1, 385331, Note_on_c, 1, 67, 127
1, 385331, Note_on_c, 1, 72, 127
1, 385331, Note_on_c, 1, 76, 127
1, 385697, Note_off_c, 1, 48, 0
1, 385699, Note_on_c, 1, 50, 127
1, 385880, Note_off_c, 1, 67, 0
1, 385880, Note_off_c, 1, 72, 0
1, 385880, Note_off_c, 1, 76, 0
1, 385882, Note_on_c, 1, 74, 127
1, 386063, Note_off_c, 1, 50, 0
1, 386063, Note_off_c, 1, 74, 0
1, 386065, Note_on_c, 1, 72, 127
1, 386065, Note_on_c, 1, 52, 127
1, 386246, Note_off_c, 1, 72, 0
1, 386248, Note_on_c, 1, 71, 127
1, 386429, Note_off_c, 1, 52, 0
1, 386429, Note_off_c, 1, 71, 0
1, 386431, Note_on_c, 1, 69, 127
1, 386431, Note_on_c, 1, 48, 127
1, 386612, Note_off_c, 1, 69, 0
1, 386614, Note_on_c, 1, 67, 127
1, 386795, Note_off_c, 1, 48, 0
1, 386795, Note_off_c, 1, 67, 0
1, 386797, Note_on_c, 1, 66, 127
1, 386797, Note_on_c, 1, 50, 127
1, 386978, Note_off_c, 1, 66, 0
1, 386980, Note_on_c, 1, 68, 127
1, 387161, Note_off_c, 1, 50, 0
1, 387161, Note_off_c, 1, 68, 0
1, 387163, Note_on_c, 1, 69, 127
1, 387163, Note_on_c, 1, 47, 127
1, 387344, Note_off_c, 1, 69, 0
1, 387346, Note_on_c, 1, 71, 127
1, 387527, Note_off_c, 1, 47, 0
1, 387527, Note_off_c, 1, 71, 0
1, 387529, Note_on_c, 1, 52, 127
1, 387529, Note_on_c, 1, 69, 127
1, 387710, Note_off_c, 1, 52, 0
1, 387712, Note_on_c, 1, 50, 127
1, 387720, Note_on_c, 1, 68, 127
1, 387741, Note_off_c, 1, 69, 0
1, 387800, Note_off_c, 1, 68, 0
1, 387893, Note_off_c, 1, 50, 0
1, 387895, Note_on_c, 1, 53, 127
1, 388076, Note_off_c, 1, 53, 0
1, 388261, Note_on_c, 1, 50, 127
1, 388261, Note_on_c, 1, 71, 127
1, 388442, Note_off_c, 1, 50, 0
1, 388444, Note_on_c, 1, 48, 127
1, 388625, Note_off_c, 1, 71, 0
1, 388625, Note_off_c, 1, 48, 0
1, 388627, Note_on_c, 1, 47, 127
1, 388627, Note_on_c, 1, 64, 127
1, 388808, Note_off_c, 1, 47, 0
1, 388810, Note_on_c, 1, 45, 127
1, 388991, Note_off_c, 1, 64, 0
1, 388991, Note_off_c, 1, 45, 0
1, 388993, Note_on_c, 1, 71, 127
1, 388993, Note_on_c, 1, 44, 127
1, 389083, Note_off_c, 1, 71, 0
1, 389084, Note_on_c, 1, 72, 127
1, 389174, Note_off_c, 1, 44, 0
1, 389174, Note_off_c, 1, 72, 0
1, 389176, Note_on_c, 1, 42, 127
1, 389176, Note_on_c, 1, 74, 127
1, 389357, Note_off_c, 1, 42, 0
1, 389357, Note_off_c, 1, 74, 0
1, 389359, Note_on_c, 1, 44, 127
1, 389359, Note_on_c, 1, 72, 127
1, 389540, Note_off_c, 1, 44, 0
1, 389540, Note_off_c, 1, 72, 0
1, 389542, Note_on_c, 1, 40, 127
1, 389542, Note_on_c, 1, 71, 127
1, 389723, Note_off_c, 1, 40, 0
1, 389723, Note_off_c, 1, 71, 0
1, 389725, Note_on_c, 1, 72, 127
1, 389725, Note_on_c, 1, 45, 127
1, 389815, Note_off_c, 1, 72, 0
1, 389816, Note_on_c, 1, 71, 127
1, 389906, Note_off_c, 1, 45, 0
1, 389906, Note_off_c, 1, 71, 0
1, 389908, Note_on_c, 1, 44, 127
1, 389908, Note_on_c, 1, 72, 127
1, 390089, Note_off_c, 1, 44, 0
1, 390091, Note_on_c, 1, 45, 127
1, 390272, Note_off_c, 1, 72, 0
1, 390272, Note_off_c, 1, 45, 0
1, 390274, Note_on_c, 1, 47, 127
1, 390274, Note_on_c, 1, 71, 127
1, 390455, Note_off_c, 1, 47, 0
1, 390455, Note_off_c, 1, 71, 0
1, 390457, Note_on_c, 1, 48, 127
1, 390457, Note_on_c, 1, 69, 127
1, 390638, Note_off_c, 1, 48, 0
1, 390638, Note_off_c, 1, 69, 0
1, 390640, Note_on_c, 1, 50, 127
1, 390640, Note_on_c, 1, 71, 127
1, 390821, Note_off_c, 1, 50, 0
1, 390821, Note_off_c, 1, 71, 0
1, 390823, Note_on_c, 1, 52, 127
1, 390823, Note_on_c, 1, 72, 127
1, 391004, Note_off_c, 1, 52, 0
1, 391004, Note_off_c, 1, 72, 0
1, 391006, Note_on_c, 1, 53, 127
1, 391006, Note_on_c, 1, 74, 127
1, 391187, Note_off_c, 1, 53, 0
1, 391187, Note_off_c, 1, 74, 0
1, 391189, Note_on_c, 1, 55, 127
1, 391189, Note_on_c, 1, 76, 127
1, 391370, Note_off_c, 1, 55, 0
1, 391370, Note_off_c, 1, 76, 0
1, 391372, Note_on_c, 1, 57, 127
1, 391372, Note_on_c, 1, 77, 127
1, 391553, Note_off_c, 1, 57, 0
1, 391553, Note_off_c, 1, 77, 0
1, 391555, Note_on_c, 1, 58, 127
1, 391555, Note_on_c, 1, 79, 127
1, 391736, Note_off_c, 1, 58, 0
1, 391736, Note_off_c, 1, 79, 0
1, 391738, Note_on_c, 1, 55, 127
1, 391738, Note_on_c, 1, 76, 127
1, 391919, Note_off_c, 1, 55, 0
1, 391919, Note_off_c, 1, 76, 0
1, 391921, Note_on_c, 1, 57, 127
1, 391921, Note_on_c, 1, 74, 127
1, 392102, Note_off_c, 1, 57, 0
1, 392104, Note_on_c, 1, 55, 127
1, 392125, Note_on_c, 1, 73, 127
1, 392141, Note_off_c, 1, 74, 0
1, 392205, Note_off_c, 1, 73, 0
1, 392285, Note_off_c, 1, 55, 0
1, 392287, Note_on_c, 1, 58, 127
1, 392468, Note_off_c, 1, 58, 0
1, 392470, Note_on_c, 1, 57, 127
1, 392470, Note_on_c, 1, 74, 127
1, 392651, Note_off_c, 1, 57, 0
1, 392653, Note_on_c, 1, 55, 127
1, 392653, Note_on_c, 1, 76, 127
1, 392662, Note_off_c, 1, 74, 0
1, 392834, Note_off_c, 1, 55, 0
1, 392836, Note_on_c, 1, 53, 127
1, 393017, Note_off_c, 1, 76, 0
1, 393017, Note_off_c, 1, 53, 0
1, 393019, Note_on_c, 1, 52, 127
1, 393019, Note_on_c, 1, 81, 127
1, 393200, Note_off_c, 1, 52, 0
1, 393202, Note_on_c, 1, 50, 127
1, 393383, Note_off_c, 1, 50, 0
1, 393385, Note_on_c, 1, 49, 127
1, 393566, Note_off_c, 1, 81, 0
1, 393566, Note_off_c, 1, 49, 0
1, 393568, Note_on_c, 1, 47, 127
1, 393568, Note_on_c, 1, 79, 127
1, 393749, Note_off_c, 1, 47, 0
1, 393749, Note_off_c, 1, 79, 0
1, 393751, Note_on_c, 1, 49, 127
1, 393751, Note_on_c, 1, 77, 127
1, 393932, Note_off_c, 1, 49, 0
1, 393932, Note_off_c, 1, 77, 0
1, 393934, Note_on_c, 1, 45, 127
1, 393934, Note_on_c, 1, 76, 127
1, 394115, Note_off_c, 1, 45, 0
1, 394115, Note_off_c, 1, 76, 0
1, 394117, Note_on_c, 1, 79, 127
1, 394117, Note_on_c, 1, 50, 127
1, 394207, Note_off_c, 1, 79, 0
1, 394208, Note_on_c, 1, 77, 127
1, 394298, Note_off_c, 1, 77, 0
1, 394300, Note_on_c, 1, 76, 127
1, 394481, Note_off_c, 1, 50, 0
1, 394481, Note_off_c, 1, 76, 0
1, 394483, Note_on_c, 1, 77, 127
1, 394483, Note_on_c, 1, 58, 127
1, 394664, Note_off_c, 1, 77, 0
1, 394666, Note_on_c, 1, 79, 127
1, 394847, Note_off_c, 1, 58, 0
1, 394847, Note_off_c, 1, 79, 0
1, 394849, Note_on_c, 1, 53, 127
1, 394849, Note_on_c, 1, 81, 127
1, 395215, Note_off_c, 1, 53, 0
1, 395215, Note_off_c, 1, 81, 0
1, 395216, Note_on_c, 1, 74, 127
1, 395216, Note_on_c, 1, 55, 127
1, 395397, Note_off_c, 1, 74, 0
1, 395399, Note_on_c, 1, 76, 127
1, 395580, Note_off_c, 1, 55, 0
1, 395580, Note_off_c, 1, 76, 0
1, 395582, Note_on_c, 1, 79, 127
1, 395582, Note_on_c, 1, 57, 127
1, 395763, Note_off_c, 1, 79, 0
1, 395765, Note_on_c, 1, 77, 127
1, 395946, Note_off_c, 1, 57, 0
1, 395946, Note_off_c, 1, 77, 0
1, 395948, Note_on_c, 1, 76, 127
1, 395948, Note_on_c, 1, 45, 127
1, 396129, Note_off_c, 1, 76, 0
1, 396131, Note_on_c, 1, 74, 127
1, 396312, Note_off_c, 1, 45, 0
1, 396312, Note_off_c, 1, 74, 0
1, 396314, Note_on_c, 1, 74, 127
1, 396314, Note_on_c, 1, 38, 127
1, 396404, Note_off_c, 1, 74, 0
1, 396406, Note_on_c, 1, 73, 127
1, 396496, Note_off_c, 1, 73, 0
1, 396678, Note_off_c, 1, 38, 0
1, 396680, Note_on_c, 1, 57, 127
1, 396861, Note_off_c, 1, 57, 0
1, 396863, Note_on_c, 1, 55, 127
1, 397044, Note_off_c, 1, 55, 0
1, 397046, Note_on_c, 1, 53, 127
1, 397227, Note_off_c, 1, 53, 0
1, 397229, Note_on_c, 1, 52, 127
1, 397410, Note_off_c, 1, 52, 0
1, 397412, Note_on_c, 1, 50, 127
1, 397412, Note_on_c, 1, 77, 127
1, 397593, Note_off_c, 1, 50, 0
1, 397593, Note_off_c, 1, 77, 0
1, 397595, Note_on_c, 1, 48, 127
1, 397595, Note_on_c, 1, 76, 127
1, 397776, Note_off_c, 1, 48, 0
1, 397776, Note_off_c, 1, 76, 0
1, 397778, Note_on_c, 1, 47, 127
1, 397778, Note_on_c, 1, 74, 127
1, 397959, Note_off_c, 1, 47, 0
1, 397959, Note_off_c, 1, 74, 0
1, 397961, Note_on_c, 1, 45, 127
1, 397961, Note_on_c, 1, 72, 127
1, 398142, Note_off_c, 1, 45, 0
1, 398142, Note_off_c, 1, 72, 0
1, 398144, Note_on_c, 1, 43, 127
1, 398144, Note_on_c, 1, 74, 127
1, 398325, Note_off_c, 1, 43, 0
1, 398325, Note_off_c, 1, 74, 0
1, 398327, Note_on_c, 1, 41, 127
1, 398327, Note_on_c, 1, 71, 127
1, 398508, Note_off_c, 1, 41, 0
1, 398508, Note_off_c, 1, 71, 0
1, 398510, Note_on_c, 1, 79, 127
1, 398510, Note_on_c, 1, 40, 127
1, 398590, Note_off_c, 1, 79, 0
1, 398596, Note_on_c, 1, 77, 127
1, 398676, Note_off_c, 1, 77, 0
1, 398691, Note_off_c, 1, 40, 0
1, 398693, Note_on_c, 1, 43, 127
1, 398874, Note_off_c, 1, 43, 0
1, 398876, Note_on_c, 1, 45, 127
1, 399057, Note_off_c, 1, 45, 0
1, 399059, Note_on_c, 1, 47, 127
1, 399059, Note_on_c, 1, 77, 127
1, 399240, Note_off_c, 1, 47, 0
1, 399240, Note_off_c, 1, 77, 0
1, 399242, Note_on_c, 1, 48, 127
1, 399242, Note_on_c, 1, 76, 127
1, 399423, Note_off_c, 1, 48, 0
1, 399423, Note_off_c, 1, 76, 0
1, 399425, Note_on_c, 1, 50, 127
1, 399425, Note_on_c, 1, 74, 127
1, 399606, Note_off_c, 1, 50, 0
1, 399606, Note_off_c, 1, 74, 0
1, 399608, Note_on_c, 1, 52, 127
1, 399608, Note_on_c, 1, 72, 127
1, 399789, Note_off_c, 1, 52, 0
1, 399789, Note_off_c, 1, 72, 0
1, 399791, Note_on_c, 1, 54, 127
1, 399791, Note_on_c, 1, 71, 127
1, 399972, Note_off_c, 1, 54, 0
1, 399972, Note_off_c, 1, 71, 0
1, 399974, Note_on_c, 1, 55, 127
1, 399974, Note_on_c, 1, 72, 127
1, 400155, Note_off_c, 1, 55, 0
1, 400155, Note_off_c, 1, 72, 0
1, 400157, Note_on_c, 1, 54, 127
1, 400157, Note_on_c, 1, 69, 127
1, 400338, Note_off_c, 1, 54, 0
1, 400338, Note_off_c, 1, 69, 0
1, 400340, Note_on_c, 1, 52, 127
1, 400340, Note_on_c, 1, 74, 127
1, 400521, Note_off_c, 1, 52, 0
1, 400523, Note_on_c, 1, 50, 127
1, 400704, Note_off_c, 1, 74, 0
1, 400704, Note_off_c, 1, 50, 0
1, 400706, Note_on_c, 1, 72, 127
1, 400706, Note_on_c, 1, 55, 127
1, 400887, Note_off_c, 1, 72, 0
1, 400889, Note_on_c, 1, 71, 127
1, 401070, Note_off_c, 1, 55, 0
1, 401070, Note_off_c, 1, 71, 0
1, 401072, Note_on_c, 1, 69, 127
1, 401072, Note_on_c, 1, 53, 127
1, 401253, Note_off_c, 1, 69, 0
1, 401255, Note_on_c, 1, 67, 127
1, 401436, Note_off_c, 1, 53, 0
1, 401436, Note_off_c, 1, 67, 0
1, 401438, Note_on_c, 1, 69, 127
1, 401438, Note_on_c, 1, 52, 127
1, 401619, Note_off_c, 1, 69, 0
1, 401621, Note_on_c, 1, 71, 127
1, 401802, Note_off_c, 1, 52, 0
1, 401802, Note_off_c, 1, 71, 0
1, 401804, Note_on_c, 1, 72, 127
1, 401804, Note_on_c, 1, 50, 127
1, 401985, Note_off_c, 1, 72, 0
1, 401987, Note_on_c, 1, 74, 127
1, 402168, Note_off_c, 1, 50, 0
1, 402168, Note_off_c, 1, 74, 0
1, 402170, Note_on_c, 1, 76, 127
1, 402170, Note_on_c, 1, 48, 127
1, 402351, Note_off_c, 1, 76, 0
1, 402353, Note_on_c, 1, 71, 127
1, 402534, Note_off_c, 1, 48, 0
1, 402534, Note_off_c, 1, 71, 0
1, 402536, Note_on_c, 1, 72, 127
1, 402536, Note_on_c, 1, 45, 127
1, 402717, Note_off_c, 1, 72, 0
1, 402719, Note_on_c, 1, 69, 127
1, 402900, Note_off_c, 1, 45, 0
1, 402900, Note_off_c, 1, 69, 0
1, 402902, Note_on_c, 1, 66, 127
1, 402902, Note_on_c, 1, 50, 127
1, 403083, Note_off_c, 1, 66, 0
1, 403085, Note_on_c, 1, 64, 127
1, 403266, Note_off_c, 1, 50, 0
1, 403266, Note_off_c, 1, 64, 0
1, 403268, Note_on_c, 1, 66, 127
1, 403268, Note_on_c, 1, 52, 127
1, 403449, Note_off_c, 1, 66, 0
1, 403451, Note_on_c, 1, 69, 127
1, 403632, Note_off_c, 1, 52, 0
1, 403632, Note_off_c, 1, 69, 0
1, 403634, Note_on_c, 1, 71, 127
1, 403634, Note_on_c, 1, 50, 127
1, 403815, Note_off_c, 1, 71, 0
1, 403817, Note_on_c, 1, 72, 127
1, 403998, Note_off_c, 1, 50, 0
1, 403998, Note_off_c, 1, 72, 0
1, 404000, Note_on_c, 1, 74, 127
1, 404000, Note_on_c, 1, 48, 127
1, 404181, Note_off_c, 1, 74, 0
1, 404183, Note_on_c, 1, 76, 127
1, 404364, Note_off_c, 1, 48, 0
1, 404364, Note_off_c, 1, 76, 0
1, 404366, Note_on_c, 1, 77, 127
1, 404366, Note_on_c, 1, 47, 127
1, 404547, Note_off_c, 1, 77, 0
1, 404549, Note_on_c, 1, 76, 127
1, 404730, Note_off_c, 1, 47, 0
1, 404730, Note_off_c, 1, 76, 0
1, 404732, Note_on_c, 1, 48, 127
1, 404732, Note_on_c, 1, 81, 127
1, 404913, Note_off_c, 1, 48, 0
1, 404915, Note_on_c, 1, 50, 127
1, 405096, Note_off_c, 1, 81, 0
1, 405096, Note_off_c, 1, 50, 0
1, 405098, Note_on_c, 1, 81, 127
1, 405098, Note_on_c, 1, 52, 127
1, 405250, Note_on_c, 1, 80, 127
1, 405258, Note_off_c, 1, 81, 0
1, 405279, Note_off_c, 1, 52, 0
1, 405281, Note_on_c, 1, 50, 127
1, 405340, Note_off_c, 1, 80, 0
1, 405462, Note_off_c, 1, 50, 0
1, 405464, Note_on_c, 1, 53, 127
1, 405645, Note_off_c, 1, 53, 0
1, 405647, Note_on_c, 1, 52, 127
1, 405647, Note_on_c, 1, 81, 127
1, 405828, Note_off_c, 1, 52, 0
1, 405828, Note_off_c, 1, 81, 0
1, 405830, Note_on_c, 1, 50, 127
1, 405830, Note_on_c, 1, 83, 127
1, 406011, Note_off_c, 1, 50, 0
1, 406011, Note_off_c, 1, 83, 0
1, 406013, Note_on_c, 1, 48, 127
1, 406013, Note_on_c, 1, 76, 127
1, 406194, Note_off_c, 1, 48, 0
1, 406194, Note_off_c, 1, 76, 0
1, 406196, Note_on_c, 1, 47, 127
1, 406196, Note_on_c, 1, 84, 127
1, 406377, Note_off_c, 1, 47, 0
1, 406379, Note_on_c, 1, 45, 127
1, 406560, Note_off_c, 1, 84, 0
1, 406560, Note_off_c, 1, 45, 0
1, 406562, Note_on_c, 1, 84, 127
1, 406562, Note_on_c, 1, 50, 127
1, 406743, Note_off_c, 1, 84, 0
1, 406745, Note_on_c, 1, 83, 127
1, 406926, Note_off_c, 1, 50, 0
1, 406926, Note_off_c, 1, 83, 0
1, 406928, Note_on_c, 1, 81, 127
1, 406928, Note_on_c, 1, 52, 127
1, 407109, Note_off_c, 1, 81, 0
1, 407111, Note_on_c, 1, 80, 127
1, 407292, Note_off_c, 1, 52, 0
1, 407292, Note_off_c, 1, 80, 0
1, 407294, Note_on_c, 1, 53, 127
1, 407294, Note_on_c, 1, 81, 127
1, 407475, Note_off_c, 1, 53, 0
1, 407475, Note_off_c, 1, 81, 0
1, 407477, Note_on_c, 1, 49, 127
1, 407477, Note_on_c, 1, 76, 127
1, 407658, Note_off_c, 1, 49, 0
1, 407658, Note_off_c, 1, 76, 0
1, 407660, Note_on_c, 1, 50, 127
1, 407660, Note_on_c, 1, 77, 127
1, 407841, Note_off_c, 1, 50, 0
1, 407841, Note_off_c, 1, 77, 0
1, 407843, Note_on_c, 1, 57, 127
1, 407843, Note_on_c, 1, 74, 127
1, 408024, Note_off_c, 1, 57, 0
1, 408024, Note_off_c, 1, 74, 0
1, 408026, Note_on_c, 1, 76, 127
1, 408026, Note_on_c, 1, 56, 127
1, 408116, Note_off_c, 1, 76, 0
1, 408118, Note_on_c, 1, 74, 127
1, 408207, Note_off_c, 1, 56, 0
1, 408208, Note_off_c, 1, 74, 0
1, 408209, Note_on_c, 1, 52, 127
1, 408209, Note_on_c, 1, 76, 127
1, 408390, Note_off_c, 1, 52, 0
1, 408392, Note_on_c, 1, 57, 127
1, 408573, Note_off_c, 1, 76, 0
1, 408573, Note_off_c, 1, 57, 0
1, 408575, Note_on_c, 1, 50, 127
1, 408575, Note_on_c, 1, 77, 127
1, 408756, Note_off_c, 1, 50, 0
1, 408756, Note_off_c, 1, 77, 0
1, 408758, Note_on_c, 1, 72, 127
1, 408758, Note_on_c, 1, 52, 127
1, 408758, Note_on_c, 1, 68, 127
1, 408854, Note_off_c, 1, 72, 0
1, 408856, Note_on_c, 1, 71, 127
1, 408952, Note_off_c, 1, 71, 0
1, 409146, Note_off_c, 1, 52, 0
1, 409148, Note_on_c, 1, 40, 127
1, 409343, Note_off_c, 1, 68, 0
1, 409345, Note_on_c, 1, 69, 127
1, 409539, Note_off_c, 1, 40, 0
1, 409540, Note_off_c, 1, 69, 0
1, 409541, Note_on_c, 1, 45, 127
1, 409541, Note_on_c, 1, 69, 127
1, 409936, Note_on_c, 1, 48, 127
1, 410339, Note_on_c, 1, 52, 127
1, 410346, Note_off_c, 1, 48, 0
1, 410761, Note_off_c, 1, 52, 0
1, 410798, Note_on_c, 1, 64, 127
1, 410798, Note_on_c, 1, 57, 127
1, 410798, Note_on_c, 1, 60, 127
1, 413541, Note_off_c, 1, 45, 0
1, 413541, Note_off_c, 1, 69, 0
1, 413554, Note_off_c, 1, 64, 0
1, 413554, Note_off_c, 1, 57, 0
1, 413554, Note_off_c, 1, 60, 0
1, 414284, Note_on_c, 1, 72, 127
1, 414284, Note_on_c, 1, 69, 127
1, 414284, Note_on_c, 1, 64, 127
1, 414284, Note_on_c, 1, 57, 127
1, 415005, Note_off_c, 1, 72, 0
1, 415005, Note_off_c, 1, 69, 0
1, 415005, Note_off_c, 1, 64, 0
1, 415005, Note_off_c, 1, 57, 0
1, 415010, Note_on_c, 1, 72, 127
1, 415010, Note_on_c, 1, 64, 127
1, 415010, Note_on_c, 1, 65, 127
1, 415010, Note_on_c, 1, 50, 127
1, 415368, Note_off_c, 1, 72, 0
1, 415368, Note_off_c, 1, 64, 0
1, 415373, Note_on_c, 1, 62, 127
1, 415373, Note_on_c, 1, 71, 127
1, 415728, Note_off_c, 1, 65, 0
1, 415733, Note_off_c, 1, 50, 0
1, 415733, Note_off_c, 1, 62, 0
1, 415733, Note_off_c, 1, 71, 0
1, 415737, Note_on_c, 1, 69, 127
1, 415737, Note_on_c, 1, 64, 127
1, 415737, Note_on_c, 1, 60, 127
1, 415737, Note_on_c, 1, 52, 127
1, 416095, Note_off_c, 1, 69, 0
1, 416095, Note_off_c, 1, 64, 0
1, 416095, Note_off_c, 1, 60, 0
1, 416100, Note_on_c, 1, 62, 127
1, 416100, Note_on_c, 1, 68, 127
1, 416100, Note_on_c, 1, 59, 127
1, 416458, Note_off_c, 1, 52, 0
1, 416458, Note_off_c, 1, 62, 0
1, 416458, Note_off_c, 1, 68, 0
1, 416458, Note_off_c, 1, 59, 0
1, 416463, Note_on_c, 1, 69, 127
1, 416463, Note_on_c, 1, 60, 127
1, 416463, Note_on_c, 1, 57, 127
1, 416463, Note_on_c, 1, 53, 127
1, 417184, Note_off_c, 1, 69, 0
1, 417184, Note_off_c, 1, 60, 0
1, 417184, Note_off_c, 1, 57, 0
1, 417184, Note_off_c, 1, 53, 0
1, 417189, Note_on_c, 1, 52, 127
1, 417189, Note_on_c, 1, 60, 127
1, 417189, Note_on_c, 1, 57, 127
1, 417189, Note_on_c, 1, 69, 127
1, 417547, Note_off_c, 1, 52, 0
1, 417552, Note_on_c, 1, 50, 127
1, 417910, Note_off_c, 1, 50, 0
1, 417915, Note_on_c, 1, 48, 127
1, 418273, Note_off_c, 1, 48, 0
1, 418278, Note_on_c, 1, 47, 127
1, 418636, Note_off_c, 1, 60, 0
1, 418636, Note_off_c, 1, 47, 0
1, 418638, Note_off_c, 1, 57, 0
1, 418640, Note_on_c, 1, 64, 127
1, 418689, Note_off_c, 1, 69, 0
1, 418760, Note_on_c, 1, 72, 127
1, 418830, Note_on_c, 1, 76, 127
1, 419357, Note_off_c, 1, 72, 0
1, 419361, Note_off_c, 1, 64, 0
1, 419365, Note_off_c, 1, 76, 0
1, 419366, Note_on_c, 1, 76, 127
1, 419366, Note_on_c, 1, 72, 127
1, 419366, Note_on_c, 1, 65, 127
1, 419366, Note_on_c, 1, 57, 127
1, 419366, Note_on_c, 1, 50, 127
1, 419724, Note_off_c, 1, 76, 0
1, 419724, Note_off_c, 1, 72, 0
1, 419729, Note_on_c, 1, 71, 127
1, 419729, Note_on_c, 1, 74, 127
1, 420084, Note_off_c, 1, 65, 0
1, 420089, Note_off_c, 1, 57, 0
1, 420089, Note_off_c, 1, 50, 0
1, 420089, Note_off_c, 1, 71, 0
1, 420089, Note_off_c, 1, 74, 0
1, 420093, Note_on_c, 1, 69, 127
1, 420093, Note_on_c, 1, 72, 127
1, 420093, Note_on_c, 1, 64, 127
1, 420093, Note_on_c, 1, 52, 127
1, 420451, Note_off_c, 1, 69, 0
1, 420451, Note_off_c, 1, 72, 0
1, 420456, Note_on_c, 1, 71, 127
1, 420456, Note_on_c, 1, 68, 127
1, 420811, Note_off_c, 1, 64, 0
1, 420816, Note_off_c, 1, 52, 0
1, 420816, Note_off_c, 1, 71, 0
1, 420816, Note_off_c, 1, 68, 0
1, 420821, Note_on_c, 1, 71, 127
1, 420821, Note_on_c, 1, 68, 127
1, 420821, Note_on_c, 1, 64, 127
1, 420821, Note_on_c, 1, 45, 127
1, 421341, Note_off_c, 1, 71, 0
1, 421341, Note_off_c, 1, 68, 0
1, 421346, Note_on_c, 1, 69, 127
1, 421346, Note_on_c, 1, 72, 127
1, 421542, Note_off_c, 1, 64, 0
1, 421542, Note_off_c, 1, 45, 0
1, 421547, Note_on_c, 1, 48, 127
1, 421907, Note_off_c, 1, 69, 0
1, 421910, Note_on_c, 1, 62, 127
1, 422095, Note_off_c, 1, 72, 0
1, 422268, Note_off_c, 1, 48, 0
1, 422268, Note_off_c, 1, 62, 0
1, 422273, Note_on_c, 1, 60, 127
1, 422273, Note_on_c, 1, 69, 127
1, 422273, Note_on_c, 1, 52, 127
1, 422273, Note_on_c, 1, 64, 127
1, 422631, Note_off_c, 1, 60, 0
1, 422636, Note_on_c, 1, 59, 127
1, 422996, Note_off_c, 1, 69, 0
1, 423016, Note_off_c, 1, 59, 0
1, 423016, Note_on_c, 1, 72, 127
1, 423016, Note_on_c, 1, 57, 127
1, 423023, Note_off_c, 1, 52, 0
1, 423025, Note_off_c, 1, 64, 0
1, 423374, Note_off_c, 1, 72, 0
1, 423742, Note_on_c, 1, 65, 127
1, 423742, Note_on_c, 1, 45, 127
1, 423757, Note_off_c, 1, 57, 0
1, 424100, Note_off_c, 1, 65, 0
1, 424828, Note_off_c, 1, 45, 0
1, 424830, Note_on_c, 1, 69, 127
1, 425188, Note_off_c, 1, 69, 0
1, 425193, Note_on_c, 1, 74, 127
1, 425193, Note_on_c, 1, 59, 127
1, 425551, Note_off_c, 1, 74, 0
1, 425556, Note_on_c, 1, 67, 127
1, 425914, Note_off_c, 1, 59, 0
1, 425914, Note_off_c, 1, 67, 0
1, 425919, Note_on_c, 1, 65, 127
1, 425919, Note_on_c, 1, 47, 127
1, 426277, Note_off_c, 1, 65, 0
1, 426282, Note_on_c, 1, 64, 127
1, 426640, Note_off_c, 1, 64, 0
1, 427005, Note_off_c, 1, 47, 0
1, 427006, Note_on_c, 1, 74, 127
1, 427371, Note_off_c, 1, 74, 0
1, 427385, Note_on_c, 1, 72, 127
1, 427385, Note_on_c, 1, 76, 127
1, 427385, Note_on_c, 1, 60, 127
1, 427385, Note_on_c, 1, 67, 127
1, 427743, Note_off_c, 1, 72, 0
1, 427743, Note_off_c, 1, 76, 0
1, 427743, Note_off_c, 1, 60, 0
1, 427748, Note_on_c, 1, 74, 127
1, 427748, Note_on_c, 1, 59, 127
1, 428103, Note_off_c, 1, 67, 0
1, 428108, Note_off_c, 1, 74, 0
1, 428108, Note_off_c, 1, 59, 0
1, 428113, Note_on_c, 1, 77, 127
1, 428113, Note_on_c, 1, 57, 127
1, 428113, Note_on_c, 1, 72, 127
1, 428113, Note_on_c, 1, 60, 127
1, 428471, Note_off_c, 1, 77, 0
1, 428471, Note_off_c, 1, 57, 0
1, 428476, Note_on_c, 1, 76, 127
1, 428476, Note_on_c, 1, 55, 127
1, 428831, Note_off_c, 1, 72, 0
1, 428831, Note_off_c, 1, 60, 0
1, 428836, Note_off_c, 1, 76, 0
1, 428836, Note_off_c, 1, 55, 0
1, 428840, Note_on_c, 1, 74, 127
1, 428840, Note_on_c, 1, 65, 127
1, 428840, Note_on_c, 1, 69, 127
1, 428840, Note_on_c, 1, 53, 127
1, 429198, Note_off_c, 1, 74, 0
1, 429198, Note_off_c, 1, 65, 0
1, 429203, Note_on_c, 1, 72, 127
1, 429203, Note_on_c, 1, 64, 127
1, 429549, Note_off_c, 1, 69, 0
1, 429558, Note_off_c, 1, 53, 0
1, 429558, Note_off_c, 1, 72, 0
1, 429558, Note_off_c, 1, 64, 0
1, 429568, Note_on_c, 1, 53, 127
1, 429568, Note_on_c, 1, 71, 127
1, 429568, Note_on_c, 1, 79, 127
1, 429568, Note_on_c, 1, 62, 127
1, 429926, Note_off_c, 1, 53, 0
1, 429931, Note_on_c, 1, 52, 127
1, 430295, Note_off_c, 1, 71, 0
1, 430295, Note_off_c, 1, 79, 0
1, 430295, Note_off_c, 1, 62, 0
1, 430311, Note_off_c, 1, 52, 0
1, 430311, Note_on_c, 1, 55, 127
1, 430669, Note_off_c, 1, 55, 0
1, 431400, Note_on_c, 1, 50, 127
1, 431779, Note_off_c, 1, 50, 0
1, 431794, Note_on_c, 1, 70, 127
1, 431794, Note_on_c, 1, 52, 127
1, 432152, Note_off_c, 1, 70, 0
1, 432157, Note_on_c, 1, 69, 127
1, 432515, Note_off_c, 1, 69, 0
1, 432883, Note_on_c, 1, 79, 127
1, 433241, Note_off_c, 1, 79, 0
1, 433243, Note_off_c, 1, 52, 0
1, 433244, Note_on_c, 1, 76, 127
1, 433602, Note_off_c, 1, 76, 0
1, 433607, Note_on_c, 1, 70, 127
1, 433965, Note_off_c, 1, 70, 0
1, 433970, Note_on_c, 1, 69, 127
1, 433970, Note_on_c, 1, 53, 127
1, 434328, Note_off_c, 1, 69, 0
1, 434333, Note_on_c, 1, 67, 127
1, 434691, Note_off_c, 1, 67, 0
1, 435059, Note_on_c, 1, 81, 127
1, 435417, Note_off_c, 1, 53, 0
1, 435417, Note_off_c, 1, 81, 0
1, 435422, Note_on_c, 1, 75, 127
1, 435422, Note_on_c, 1, 54, 127
1, 435780, Note_off_c, 1, 75, 0
1, 435785, Note_on_c, 1, 74, 127
1, 436102, Note_off_c, 1, 54, 0
1, 436145, Note_off_c, 1, 74, 0
1, 436166, Note_on_c, 1, 83, 127
1, 436524, Note_off_c, 1, 83, 0
1, 436529, Note_on_c, 1, 84, 127
1, 436887, Note_off_c, 1, 84, 0
1, 436892, Note_on_c, 1, 77, 127
1, 436892, Note_on_c, 1, 67, 127
1, 436892, Note_on_c, 1, 72, 127
1, 436892, Note_on_c, 1, 55, 127
1, 437250, Note_off_c, 1, 77, 0
1, 437255, Note_on_c, 1, 76, 127
1, 437610, Note_off_c, 1, 67, 0
1, 437610, Note_off_c, 1, 72, 0
1, 437615, Note_off_c, 1, 55, 0
1, 437615, Note_off_c, 1, 76, 0
1, 437619, Note_on_c, 1, 71, 127
1, 437619, Note_on_c, 1, 74, 127
1, 437619, Note_on_c, 1, 65, 127
1, 437619, Note_on_c, 1, 43, 127
1, 437977, Note_off_c, 1, 71, 0
1, 437977, Note_off_c, 1, 74, 0
1, 437982, Note_on_c, 1, 72, 127
1, 438337, Note_off_c, 1, 65, 0
1, 438342, Note_off_c, 1, 43, 0
1, 438342, Note_off_c, 1, 72, 0
1, 438347, Note_on_c, 1, 65, 127
1, 438347, Note_on_c, 1, 72, 127
1, 438347, Note_on_c, 1, 67, 127
1, 438347, Note_on_c, 1, 48, 127
1, 438705, Note_off_c, 1, 65, 0
1, 438710, Note_on_c, 1, 62, 127
1, 439065, Note_off_c, 1, 72, 0
1, 439065, Note_off_c, 1, 67, 0
1, 439070, Note_off_c, 1, 48, 0
1, 439070, Note_off_c, 1, 62, 0
1, 439074, Note_on_c, 1, 72, 127
1, 439074, Note_on_c, 1, 64, 127
1, 439074, Note_on_c, 1, 67, 127
1, 439074, Note_on_c, 1, 36, 127
1, 440520, Note_off_c, 1, 72, 0
1, 440520, Note_off_c, 1, 64, 0
1, 440520, Note_off_c, 1, 67, 0
1, 440520, Note_off_c, 1, 36, 0
1, 440525, Note_on_c, 1, 48, 127
1, 440525, Note_on_c, 1, 64, 127
1, 440525, Note_on_c, 1, 60, 127
1, 440525, Note_on_c, 1, 67, 127
1, 440883, Note_off_c, 1, 48, 0
1, 440888, Note_on_c, 1, 52, 127
1, 441246, Note_off_c, 1, 64, 0
1, 441246, Note_off_c, 1, 60, 0
1, 441246, Note_off_c, 1, 67, 0
1, 441246, Note_off_c, 1, 52, 0
1, 441251, Note_on_c, 1, 64, 127
1, 441251, Note_on_c, 1, 67, 127
1, 441251, Note_on_c, 1, 60, 127
1, 441251, Note_on_c, 1, 55, 127
1, 441609, Note_off_c, 1, 64, 0
1, 441609, Note_off_c, 1, 67, 0
1, 441609, Note_off_c, 1, 60, 0
1, 441614, Note_on_c, 1, 65, 127
1, 441614, Note_on_c, 1, 62, 127
1, 441972, Note_off_c, 1, 55, 0
1, 441972, Note_off_c, 1, 65, 0
1, 441972, Note_off_c, 1, 62, 0
1, 441977, Note_on_c, 1, 60, 127
1, 441977, Note_on_c, 1, 64, 127
1, 441977, Note_on_c, 1, 55, 127
1, 441977, Note_on_c, 1, 43, 127
1, 442335, Note_off_c, 1, 60, 0
1, 442335, Note_off_c, 1, 64, 0
1, 442340, Note_on_c, 1, 59, 127
1, 442340, Note_on_c, 1, 62, 127
1, 442698, Note_off_c, 1, 55, 0
1, 442698, Note_off_c, 1, 43, 0
1, 442698, Note_off_c, 1, 59, 0
1, 442698, Note_off_c, 1, 62, 0
1, 442703, Note_on_c, 1, 60, 127
1, 442703, Note_on_c, 1, 64, 127
1, 442703, Note_on_c, 1, 55, 127
1, 442703, Note_on_c, 1, 48, 127
1, 443424, Note_off_c, 1, 60, 0
1, 443424, Note_off_c, 1, 64, 0
1, 443424, Note_off_c, 1, 55, 0
1, 443424, Note_off_c, 1, 48, 0
1, 443429, Note_on_c, 1, 55, 127
1, 443429, Note_on_c, 1, 48, 127
1, 443429, Note_on_c, 1, 64, 127
1, 443429, Note_on_c, 1, 60, 127
1, 443787, Note_off_c, 1, 55, 0
1, 443787, Note_off_c, 1, 48, 0
1, 443792, Note_on_c, 1, 47, 127
1, 444150, Note_off_c, 1, 47, 0
1, 444155, Note_on_c, 1, 45, 127
1, 444513, Note_off_c, 1, 45, 0
1, 444518, Note_on_c, 1, 43, 127
1, 444876, Note_off_c, 1, 64, 0
1, 444876, Note_off_c, 1, 60, 0
1, 444876, Note_off_c, 1, 43, 0
1, 444881, Note_on_c, 1, 63, 127
1, 444881, Note_on_c, 1, 57, 127
1, 444881, Note_on_c, 1, 42, 127
1, 445244, Note_on_c, 1, 69, 127
1, 445599, Note_off_c, 1, 63, 0
1, 445604, Note_off_c, 1, 57, 0
1, 445604, Note_off_c, 1, 42, 0
1, 445604, Note_off_c, 1, 69, 0
1, 445608, Note_on_c, 1, 67, 127
1, 445608, Note_on_c, 1, 64, 127
1, 445608, Note_on_c, 1, 40, 127
1, 445608, Note_on_c, 1, 59, 127
1, 445966, Note_off_c, 1, 67, 0
1, 445971, Note_on_c, 1, 66, 127
1, 446326, Note_off_c, 1, 64, 0
1, 446331, Note_off_c, 1, 40, 0
1, 446331, Note_off_c, 1, 59, 0
1, 446331, Note_off_c, 1, 66, 0
1, 446336, Note_on_c, 1, 67, 127
1, 446336, Note_on_c, 1, 64, 127
1, 446336, Note_on_c, 1, 59, 127
1, 446336, Note_on_c, 1, 52, 127
1, 446517, Note_on_c, 1, 71, 127
1, 446636, Note_off_c, 1, 67, 0
1, 446699, Note_on_c, 1, 76, 127
1, 446817, Note_off_c, 1, 71, 0
1, 447054, Note_off_c, 1, 64, 0
1, 447059, Note_off_c, 1, 59, 0
1, 447059, Note_off_c, 1, 52, 0
1, 447059, Note_off_c, 1, 76, 0
1, 447063, Note_on_c, 1, 75, 127
1, 447063, Note_on_c, 1, 59, 127
1, 447063, Note_on_c, 1, 47, 127
1, 447063, Note_on_c, 1, 66, 127
1, 447421, Note_off_c, 1, 75, 0
1, 447421, Note_off_c, 1, 59, 0
1, 447421, Note_off_c, 1, 47, 0
1, 447426, Note_on_c, 1, 78, 127
1, 447426, Note_on_c, 1, 61, 127
1, 447603, Note_off_c, 1, 78, 0
1, 447608, Note_on_c, 1, 76, 127
1, 447781, Note_off_c, 1, 66, 0
1, 447786, Note_off_c, 1, 61, 0
1, 447786, Note_off_c, 1, 76, 0
1, 447791, Note_on_c, 1, 76, 127
1, 447791, Note_on_c, 1, 59, 127
1, 447791, Note_on_c, 1, 71, 127
1, 447791, Note_on_c, 1, 63, 127
1, 448149, Note_off_c, 1, 76, 0
1, 448149, Note_off_c, 1, 59, 0
1, 448154, Note_on_c, 1, 57, 127
1, 448154, Note_on_c, 1, 78, 127
1, 448509, Note_off_c, 1, 71, 0
1, 448509, Note_off_c, 1, 63, 0
1, 448514, Note_off_c, 1, 57, 0
1, 448534, Note_on_c, 1, 55, 127
1, 448892, Note_off_c, 1, 55, 0
1, 448897, Note_on_c, 1, 54, 127
1, 448954, Note_off_c, 1, 78, 0
1, 449281, Note_off_c, 1, 54, 0
1, 449292, Note_on_c, 1, 79, 127
1, 449292, Note_on_c, 1, 52, 127
1, 449650, Note_off_c, 1, 79, 0
1, 450013, Note_off_c, 1, 52, 0
1, 450018, Note_on_c, 1, 72, 127
1, 450018, Note_on_c, 1, 64, 127
1, 450376, Note_off_c, 1, 72, 0
1, 450381, Note_on_c, 1, 71, 127
1, 450739, Note_off_c, 1, 71, 0
1, 450744, Note_on_c, 1, 70, 127
1, 450925, Note_off_c, 1, 64, 0
1, 451102, Note_off_c, 1, 70, 0
1, 451107, Note_on_c, 1, 52, 127
1, 451107, Note_on_c, 1, 79, 127
1, 451465, Note_off_c, 1, 52, 0
1, 451465, Note_off_c, 1, 79, 0
1, 451470, Note_on_c, 1, 78, 127
1, 451470, Note_on_c, 1, 51, 127
1, 451828, Note_off_c, 1, 78, 0
1, 451833, Note_on_c, 1, 72, 127
1, 452191, Note_off_c, 1, 51, 0
1, 452191, Note_off_c, 1, 72, 0
1, 452196, Note_on_c, 1, 71, 127
1, 452196, Note_on_c, 1, 63, 127
1, 452554, Note_off_c, 1, 71, 0
1, 452559, Note_on_c, 1, 69, 127
1, 452911, Note_off_c, 1, 63, 0
1, 452922, Note_on_c, 1, 68, 127
1, 452927, Note_off_c, 1, 69, 0
1, 453285, Note_on_c, 1, 50, 127
1, 453285, Note_on_c, 1, 77, 127
1, 453344, Note_off_c, 1, 68, 0
1, 453643, Note_off_c, 1, 50, 0
1, 453643, Note_off_c, 1, 77, 0
1, 453648, Note_on_c, 1, 76, 127
1, 453648, Note_on_c, 1, 48, 127
1, 454006, Note_off_c, 1, 76, 0
1, 454011, Note_on_c, 1, 84, 127
1, 454011, Note_on_c, 1, 81, 127
1, 454369, Note_off_c, 1, 48, 0
1, 454369, Note_off_c, 1, 84, 0
1, 454369, Note_off_c, 1, 81, 0
1, 454374, Note_on_c, 1, 83, 127
1, 454374, Note_on_c, 1, 79, 127
1, 454374, Note_on_c, 1, 76, 127
1, 454374, Note_on_c, 1, 43, 127
1, 454732, Note_off_c, 1, 83, 0
1, 454732, Note_off_c, 1, 79, 0
1, 454737, Note_on_c, 1, 78, 127
1, 454737, Note_on_c, 1, 81, 127
1, 455092, Note_off_c, 1, 76, 0
1, 455097, Note_off_c, 1, 43, 0
1, 455097, Note_off_c, 1, 78, 0
1, 455097, Note_off_c, 1, 81, 0
1, 455102, Note_on_c, 1, 76, 127
1, 455102, Note_on_c, 1, 79, 127
1, 455102, Note_on_c, 1, 71, 127
1, 455102, Note_on_c, 1, 47, 127
1, 455460, Note_off_c, 1, 76, 0
1, 455460, Note_off_c, 1, 79, 0
1, 455465, Note_on_c, 1, 75, 127
1, 455465, Note_on_c, 1, 78, 127
1, 455820, Note_off_c, 1, 71, 0
1, 455823, Note_off_c, 1, 75, 0
1, 455823, Note_off_c, 1, 78, 0
1, 455825, Note_off_c, 1, 47, 0
1, 455829, Note_on_c, 1, 78, 127
1, 455829, Note_on_c, 1, 75, 127
1, 455829, Note_on_c, 1, 71, 127
1, 455829, Note_on_c, 1, 40, 127
1, 456330, Note_on_c, 1, 76, 127
1, 456330, Note_on_c, 1, 79, 127
1, 456339, Note_off_c, 1, 78, 0
1, 456339, Note_off_c, 1, 75, 0
1, 456547, Note_off_c, 1, 71, 0
1, 456552, Note_off_c, 1, 40, 0
1, 456557, Note_on_c, 1, 43, 127
1, 456559, Note_on_c, 1, 67, 127
1, 456710, Note_off_c, 1, 76, 0
1, 456910, Note_off_c, 1, 79, 0
1, 457278, Note_off_c, 1, 43, 0
1, 457283, Note_on_c, 1, 47, 127
1, 458008, Note_off_c, 1, 67, 0
1, 458030, Note_off_c, 1, 47, 0
1, 458039, Note_on_c, 1, 79, 127
1, 458039, Note_on_c, 1, 52, 127
1, 458397, Note_off_c, 1, 79, 0
1, 458402, Note_on_c, 1, 81, 127
1, 458760, Note_off_c, 1, 52, 0
1, 458760, Note_off_c, 1, 81, 0
1, 458765, Note_on_c, 1, 53, 127
1, 458765, Note_on_c, 1, 79, 127
1, 459128, Note_on_c, 1, 77, 127
1, 459486, Note_off_c, 1, 53, 0
1, 459486, Note_off_c, 1, 77, 0
1, 459491, Note_on_c, 1, 76, 127
1, 459491, Note_on_c, 1, 55, 127
1, 459849, Note_off_c, 1, 76, 0
1, 459854, Note_on_c, 1, 74, 127
1, 460212, Note_off_c, 1, 55, 0
1, 460212, Note_off_c, 1, 74, 0
1, 460214, Note_off_c, 1, 79, 0
1, 460216, Note_on_c, 1, 79, 127
1, 460216, Note_on_c, 1, 57, 127
1, 460216, Note_on_c, 1, 73, 127
1, 460574, Note_off_c, 1, 79, 0
1, 460579, Note_on_c, 1, 70, 127
1, 460579, Note_on_c, 1, 77, 127
1, 460934, Note_off_c, 1, 57, 0
1, 460934, Note_off_c, 1, 73, 0
1, 460939, Note_off_c, 1, 70, 0
1, 460939, Note_off_c, 1, 77, 0
1, 460943, Note_on_c, 1, 69, 127
1, 460943, Note_on_c, 1, 79, 127
1, 460943, Note_on_c, 1, 73, 127
1, 461301, Note_off_c, 1, 69, 0
1, 461306, Note_on_c, 1, 67, 127
1, 461664, Note_off_c, 1, 67, 0
1, 461685, Note_on_c, 1, 65, 127
1, 462043, Note_off_c, 1, 65, 0
1, 462048, Note_on_c, 1, 64, 127
1, 462410, Note_off_c, 1, 79, 0
1, 462412, Note_off_c, 1, 73, 0
1, 462426, Note_on_c, 1, 77, 127
1, 462426, Note_on_c, 1, 62, 127
1, 462426, Note_on_c, 1, 50, 127
1, 462442, Note_off_c, 1, 64, 0
1, 462784, Note_off_c, 1, 77, 0
1, 463147, Note_off_c, 1, 62, 0
1, 463147, Note_off_c, 1, 50, 0
1, 463152, Note_on_c, 1, 52, 127
1, 463152, Note_on_c, 1, 77, 127
1, 463515, Note_on_c, 1, 76, 127
1, 463873, Note_off_c, 1, 52, 0
1, 463873, Note_off_c, 1, 76, 0
1, 463878, Note_on_c, 1, 74, 127
1, 463878, Note_on_c, 1, 53, 127
1, 464236, Note_off_c, 1, 74, 0
1, 464241, Note_on_c, 1, 72, 127
1, 464599, Note_off_c, 1, 53, 0
1, 464599, Note_off_c, 1, 72, 0
1, 464601, Note_off_c, 1, 77, 0
1, 464602, Note_on_c, 1, 77, 127
1, 464602, Note_on_c, 1, 55, 127
1, 464602, Note_on_c, 1, 71, 127
1, 464960, Note_off_c, 1, 77, 0
1, 464965, Note_on_c, 1, 76, 127
1, 464965, Note_on_c, 1, 69, 127
1, 465320, Note_off_c, 1, 55, 0
1, 465320, Note_off_c, 1, 71, 0
1, 465325, Note_off_c, 1, 76, 0
1, 465325, Note_off_c, 1, 69, 0
1, 465330, Note_on_c, 1, 67, 127
1, 465330, Note_on_c, 1, 71, 127
1, 465330, Note_on_c, 1, 77, 127
1, 465688, Note_off_c, 1, 67, 0
1, 465693, Note_on_c, 1, 65, 127
1, 466051, Note_off_c, 1, 65, 0
1, 466072, Note_on_c, 1, 64, 127
1, 466430, Note_off_c, 1, 64, 0
1, 466435, Note_on_c, 1, 62, 127
1, 466793, Note_off_c, 1, 62, 0
1, 466810, Note_off_c, 1, 71, 0
1, 466810, Note_off_c, 1, 77, 0
1, 466812, Note_on_c, 1, 60, 127
1, 466812, Note_on_c, 1, 76, 127
1, 466812, Note_on_c, 1, 72, 127
1, 467170, Note_off_c, 1, 60, 0
1, 467170, Note_off_c, 1, 76, 0
1, 467175, Note_on_c, 1, 59, 127
1, 467175, Note_on_c, 1, 74, 127
1, 467533, Note_off_c, 1, 59, 0
1, 467533, Note_off_c, 1, 74, 0
1, 467538, Note_on_c, 1, 57, 127
1, 467538, Note_on_c, 1, 77, 127
1, 467896, Note_off_c, 1, 57, 0
1, 467896, Note_off_c, 1, 77, 0
1, 467901, Note_on_c, 1, 55, 127
1, 468259, Note_off_c, 1, 55, 0
1, 468261, Note_off_c, 1, 72, 0
1, 468263, Note_on_c, 1, 53, 127
1, 468263, Note_on_c, 1, 81, 127
1, 468263, Note_on_c, 1, 72, 127
1, 468621, Note_off_c, 1, 53, 0
1, 468621, Note_off_c, 1, 81, 0
1, 468621, Note_off_c, 1, 72, 0
1, 468626, Note_on_c, 1, 52, 127
1, 468626, Note_on_c, 1, 79, 127
1, 468984, Note_off_c, 1, 52, 0
1, 468984, Note_off_c, 1, 79, 0
1, 468989, Note_on_c, 1, 50, 127
1, 468989, Note_on_c, 1, 82, 127
1, 468989, Note_on_c, 1, 77, 127
1, 469347, Note_off_c, 1, 50, 0
1, 469347, Note_off_c, 1, 82, 0
1, 469347, Note_off_c, 1, 77, 0
1, 469352, Note_on_c, 1, 48, 127
1, 469352, Note_on_c, 1, 81, 127
1, 469352, Note_on_c, 1, 76, 127
1, 469710, Note_off_c, 1, 48, 0
1, 469710, Note_off_c, 1, 81, 0
1, 469710, Note_off_c, 1, 76, 0
1, 469715, Note_on_c, 1, 47, 127
1, 469715, Note_on_c, 1, 80, 127
1, 469715, Note_on_c, 1, 74, 127
1, 470073, Note_off_c, 1, 47, 0
1, 470073, Note_off_c, 1, 80, 0
1, 470073, Note_off_c, 1, 74, 0
1, 470078, Note_on_c, 1, 45, 127
1, 470078, Note_on_c, 1, 81, 127
1, 470078, Note_on_c, 1, 72, 127
1, 470436, Note_off_c, 1, 45, 0
1, 470436, Note_off_c, 1, 81, 0
1, 470436, Note_off_c, 1, 72, 0
1, 470441, Note_on_c, 1, 44, 127
1, 470441, Note_on_c, 1, 77, 127
1, 470441, Note_on_c, 1, 71, 127
1, 470799, Note_off_c, 1, 44, 0
1, 470799, Note_off_c, 1, 77, 0
1, 470799, Note_off_c, 1, 71, 0
1, 470804, Note_on_c, 1, 45, 127
1, 470804, Note_on_c, 1, 76, 127
1, 470804, Note_on_c, 1, 72, 127
1, 471162, Note_off_c, 1, 45, 0
1, 471183, Note_on_c, 1, 75, 127
1, 471183, Note_on_c, 1, 69, 127
1, 471183, Note_on_c, 1, 42, 127
1, 471185, Note_off_c, 1, 76, 0
1, 471185, Note_off_c, 1, 72, 0
1, 471541, Note_off_c, 1, 75, 0
1, 471901, Note_off_c, 1, 69, 0
1, 471906, Note_off_c, 1, 42, 0
1, 471910, Note_on_c, 1, 74, 127
1, 471910, Note_on_c, 1, 69, 127
1, 471910, Note_on_c, 1, 64, 127
1, 471910, Note_on_c, 1, 40, 127
1, 472268, Note_off_c, 1, 74, 0
1, 472273, Note_on_c, 1, 72, 127
1, 472633, Note_off_c, 1, 72, 0
1, 472654, Note_on_c, 1, 71, 127
1, 472654, Note_on_c, 1, 68, 127
1, 472654, Note_on_c, 1, 62, 127
1, 472654, Note_on_c, 1, 52, 127
1, 472666, Note_off_c, 1, 69, 0
1, 472666, Note_off_c, 1, 64, 0
1, 472690, Note_off_c, 1, 40, 0
1, 473012, Note_off_c, 1, 71, 0
1, 473372, Note_off_c, 1, 68, 0
1, 473389, Note_off_c, 1, 62, 0
1, 473395, Note_off_c, 1, 52, 0
1, 473397, Note_on_c, 1, 45, 127
1, 473397, Note_on_c, 1, 69, 127
1, 473397, Note_on_c, 1, 60, 127
1, 473397, Note_on_c, 1, 64, 127
1, 473808, Note_off_c, 1, 45, 0
1, 473829, Note_on_c, 1, 48, 127
1, 474033, Note_off_c, 1, 48, 0
1, 474045, Note_on_c, 1, 52, 127
1, 474225, Note_off_c, 1, 69, 0
1, 474225, Note_off_c, 1, 60, 0
1, 474225, Note_off_c, 1, 64, 0
1, 474249, Note_off_c, 1, 52, 0
1, 474262, Note_on_c, 1, 69, 127
1, 474262, Note_on_c, 1, 60, 127
1, 474262, Note_on_c, 1, 64, 127
1, 474262, Note_on_c, 1, 57, 127
1, 475962, Note_off_c, 1, 69, 0
1, 475962, Note_off_c, 1, 60, 0
1, 475962, Note_off_c, 1, 64, 0
1, 475962, Note_off_c, 1, 57, 0
1, 476088, Note_on_c, 1, 57, 127
1, 476088, Note_on_c, 1, 81, 127
1, 476259, Note_off_c, 1, 57, 0
1, 476270, Note_on_c, 1, 59, 127
1, 476431, Note_off_c, 1, 81, 0
1, 476441, Note_off_c, 1, 59, 0
1, 476450, Note_on_c, 1, 77, 127
1, 476450, Note_on_c, 1, 60, 127
1, 476534, Note_off_c, 1, 77, 0
1, 476536, Note_on_c, 1, 76, 127
1, 476619, Note_off_c, 1, 60, 0
1, 476620, Note_off_c, 1, 76, 0
1, 476621, Note_on_c, 1, 77, 127
1, 476621, Note_on_c, 1, 57, 127
1, 476705, Note_off_c, 1, 77, 0
1, 476707, Note_on_c, 1, 76, 127
1, 476790, Note_off_c, 1, 57, 0
1, 476791, Note_off_c, 1, 76, 0
1, 476792, Note_on_c, 1, 60, 127
1, 476792, Note_on_c, 1, 74, 127
1, 476963, Note_off_c, 1, 60, 0
1, 476963, Note_off_c, 1, 74, 0
1, 476965, Note_on_c, 1, 57, 127
1, 476965, Note_on_c, 1, 76, 127
1, 477136, Note_off_c, 1, 57, 0
1, 477136, Note_off_c, 1, 76, 0
1, 477137, Note_on_c, 1, 62, 127
1, 477137, Note_on_c, 1, 77, 127
1, 477308, Note_off_c, 1, 62, 0
1, 477310, Note_on_c, 1, 57, 127
1, 477480, Note_off_c, 1, 77, 0
1, 477481, Note_off_c, 1, 57, 0
1, 477482, Note_on_c, 1, 62, 127
1, 477482, Note_on_c, 1, 76, 127
1, 477653, Note_off_c, 1, 62, 0
1, 477653, Note_off_c, 1, 76, 0
1, 477655, Note_on_c, 1, 57, 127
1, 477655, Note_on_c, 1, 74, 127
1, 477826, Note_off_c, 1, 57, 0
1, 477826, Note_off_c, 1, 74, 0
1, 477827, Note_on_c, 1, 60, 127
1, 477827, Note_on_c, 1, 76, 127
1, 477998, Note_off_c, 1, 60, 0
1, 478000, Note_on_c, 1, 57, 127
1, 478170, Note_off_c, 1, 76, 0
1, 478171, Note_off_c, 1, 57, 0
1, 478172, Note_on_c, 1, 62, 127
1, 478172, Note_on_c, 1, 69, 127
1, 478343, Note_off_c, 1, 62, 0
1, 478345, Note_on_c, 1, 57, 127
1, 478515, Note_off_c, 1, 69, 0
1, 478516, Note_off_c, 1, 57, 0
1, 478517, Note_on_c, 1, 60, 127
1, 478517, Note_on_c, 1, 69, 127
1, 478688, Note_off_c, 1, 60, 0
1, 478690, Note_on_c, 1, 57, 127
1, 478860, Note_off_c, 1, 69, 0
1, 478861, Note_off_c, 1, 57, 0
1, 478862, Note_on_c, 1, 59, 127
1, 478862, Note_on_c, 1, 81, 127
1, 479033, Note_off_c, 1, 59, 0
1, 479035, Note_on_c, 1, 57, 127
1, 479205, Note_off_c, 1, 81, 0
1, 479206, Note_off_c, 1, 57, 0
1, 479207, Note_on_c, 1, 77, 127
1, 479207, Note_on_c, 1, 60, 127
1, 479291, Note_off_c, 1, 77, 0
1, 479293, Note_on_c, 1, 76, 127
1, 479376, Note_off_c, 1, 60, 0
1, 479377, Note_off_c, 1, 76, 0
1, 479378, Note_on_c, 1, 77, 127
1, 479378, Note_on_c, 1, 57, 127
1, 479462, Note_off_c, 1, 77, 0
1, 479464, Note_on_c, 1, 76, 127
1, 479547, Note_off_c, 1, 57, 0
1, 479548, Note_off_c, 1, 76, 0
1, 479549, Note_on_c, 1, 60, 127
1, 479549, Note_on_c, 1, 74, 127
1, 479720, Note_off_c, 1, 60, 0
1, 479720, Note_off_c, 1, 74, 0
1, 479722, Note_on_c, 1, 57, 127
1, 479722, Note_on_c, 1, 76, 127
1, 479893, Note_off_c, 1, 57, 0
1, 479893, Note_off_c, 1, 76, 0
1, 479894, Note_on_c, 1, 62, 127
1, 479894, Note_on_c, 1, 77, 127
1, 480065, Note_off_c, 1, 62, 0
1, 480067, Note_on_c, 1, 57, 127
1, 480237, Note_off_c, 1, 77, 0
1, 480238, Note_off_c, 1, 57, 0
1, 480239, Note_on_c, 1, 62, 127
1, 480239, Note_on_c, 1, 76, 127
1, 480410, Note_off_c, 1, 62, 0
1, 480410, Note_off_c, 1, 76, 0
1, 480412, Note_on_c, 1, 57, 127
1, 480412, Note_on_c, 1, 74, 127
1, 480583, Note_off_c, 1, 57, 0
1, 480583, Note_off_c, 1, 74, 0
1, 480584, Note_on_c, 1, 60, 127
1, 480584, Note_on_c, 1, 76, 127
1, 480755, Note_off_c, 1, 60, 0
1, 480757, Note_on_c, 1, 57, 127
1, 480927, Note_off_c, 1, 76, 0
1, 480928, Note_off_c, 1, 57, 0
1, 480929, Note_on_c, 1, 60, 127
1, 480929, Note_on_c, 1, 74, 127
1, 481100, Note_off_c, 1, 60, 0
1, 481100, Note_off_c, 1, 74, 0
1, 481102, Note_on_c, 1, 57, 127
1, 481102, Note_on_c, 1, 72, 127
1, 481273, Note_off_c, 1, 57, 0
1, 481273, Note_off_c, 1, 72, 0
1, 481274, Note_on_c, 1, 59, 127
1, 481274, Note_on_c, 1, 74, 127
1, 481445, Note_off_c, 1, 59, 0
1, 481447, Note_on_c, 1, 57, 127
1, 481617, Note_off_c, 1, 74, 0
1, 481618, Note_off_c, 1, 57, 0
1, 481619, Note_on_c, 1, 59, 127
1, 481619, Note_on_c, 1, 72, 127
1, 481790, Note_off_c, 1, 59, 0
1, 481790, Note_off_c, 1, 72, 0
1, 481792, Note_on_c, 1, 57, 127
1, 481792, Note_on_c, 1, 74, 127
1, 481963, Note_off_c, 1, 57, 0
1, 481963, Note_off_c, 1, 74, 0
1, 481964, Note_on_c, 1, 56, 127
1, 481964, Note_on_c, 1, 76, 127
1, 482135, Note_off_c, 1, 56, 0
1, 482137, Note_on_c, 1, 59, 127
1, 482307, Note_off_c, 1, 76, 0
1, 482308, Note_off_c, 1, 59, 0
1, 482309, Note_on_c, 1, 54, 127
1, 482309, Note_on_c, 1, 74, 127
1, 482480, Note_off_c, 1, 54, 0
1, 482480, Note_off_c, 1, 74, 0
1, 482482, Note_on_c, 1, 59, 127
1, 482482, Note_on_c, 1, 72, 127
1, 482653, Note_off_c, 1, 59, 0
1, 482653, Note_off_c, 1, 72, 0
1, 482654, Note_on_c, 1, 56, 127
1, 482654, Note_on_c, 1, 74, 127
1, 482825, Note_off_c, 1, 56, 0
1, 482827, Note_on_c, 1, 59, 127
1, 482997, Note_off_c, 1, 74, 0
1, 482998, Note_off_c, 1, 59, 0
1, 482999, Note_on_c, 1, 52, 127
1, 482999, Note_on_c, 1, 72, 127
1, 483170, Note_off_c, 1, 52, 0
1, 483170, Note_off_c, 1, 72, 0
1, 483172, Note_on_c, 1, 56, 127
1, 483172, Note_on_c, 1, 71, 127
1, 483343, Note_off_c, 1, 56, 0
1, 483343, Note_off_c, 1, 71, 0
1, 483344, Note_on_c, 1, 57, 127
1, 483344, Note_on_c, 1, 72, 127
1, 483515, Note_off_c, 1, 57, 0
1, 483517, Note_on_c, 1, 52, 127
1, 483687, Note_off_c, 1, 72, 0
1, 483688, Note_off_c, 1, 52, 0
1, 483689, Note_on_c, 1, 57, 127
1, 483689, Note_on_c, 1, 71, 127
1, 483860, Note_off_c, 1, 57, 0
1, 483860, Note_off_c, 1, 71, 0
1, 483862, Note_on_c, 1, 52, 127
1, 483862, Note_on_c, 1, 72, 127
1, 484033, Note_off_c, 1, 52, 0
1, 484033, Note_off_c, 1, 72, 0
1, 484034, Note_on_c, 1, 59, 127
1, 484034, Note_on_c, 1, 74, 127
1, 484205, Note_off_c, 1, 59, 0
1, 484207, Note_on_c, 1, 52, 127
1, 484377, Note_off_c, 1, 74, 0
1, 484378, Note_off_c, 1, 52, 0
1, 484379, Note_on_c, 1, 59, 127
1, 484379, Note_on_c, 1, 72, 127
1, 484550, Note_off_c, 1, 59, 0
1, 484550, Note_off_c, 1, 72, 0
1, 484552, Note_on_c, 1, 52, 127
1, 484552, Note_on_c, 1, 74, 127
1, 484723, Note_off_c, 1, 52, 0
1, 484723, Note_off_c, 1, 74, 0
1, 484724, Note_on_c, 1, 60, 127
1, 484724, Note_on_c, 1, 76, 127
1, 484895, Note_off_c, 1, 60, 0
1, 484895, Note_off_c, 1, 76, 0
1, 484897, Note_on_c, 1, 52, 127
1, 484897, Note_on_c, 1, 74, 127
1, 485068, Note_off_c, 1, 52, 0
1, 485068, Note_off_c, 1, 74, 0
1, 485069, Note_on_c, 1, 57, 127
1, 485069, Note_on_c, 1, 72, 127
1, 485240, Note_off_c, 1, 57, 0
1, 485240, Note_off_c, 1, 72, 0
1, 485242, Note_on_c, 1, 52, 127
1, 485242, Note_on_c, 1, 76, 127
1, 485413, Note_off_c, 1, 52, 0
1, 485413, Note_off_c, 1, 76, 0
1, 485414, Note_on_c, 1, 59, 127
1, 485414, Note_on_c, 1, 74, 127
1, 485585, Note_off_c, 1, 59, 0
1, 485585, Note_off_c, 1, 74, 0
1, 485587, Note_on_c, 1, 52, 127
1, 485587, Note_on_c, 1, 72, 127
1, 485758, Note_off_c, 1, 52, 0
1, 485758, Note_off_c, 1, 72, 0
1, 485759, Note_on_c, 1, 56, 127
1, 485759, Note_on_c, 1, 71, 127
1, 485930, Note_off_c, 1, 56, 0
1, 485930, Note_off_c, 1, 71, 0
1, 485932, Note_on_c, 1, 52, 127
1, 485932, Note_on_c, 1, 72, 127
1, 486103, Note_off_c, 1, 52, 0
1, 486103, Note_off_c, 1, 72, 0
1, 486104, Note_on_c, 1, 74, 127
1, 486104, Note_on_c, 1, 57, 127
1, 486275, Note_off_c, 1, 74, 0
1, 486277, Note_on_c, 1, 72, 127
1, 486447, Note_off_c, 1, 57, 0
1, 486448, Note_off_c, 1, 72, 0
1, 486449, Note_on_c, 1, 71, 127
1, 486449, Note_on_c, 1, 52, 127
1, 486620, Note_off_c, 1, 71, 0
1, 486622, Note_on_c, 1, 72, 127
1, 486792, Note_off_c, 1, 52, 0
1, 486793, Note_off_c, 1, 72, 0
1, 486794, Note_on_c, 1, 69, 127
1, 486794, Note_on_c, 1, 48, 127
1, 486965, Note_off_c, 1, 69, 0
1, 486967, Note_on_c, 1, 72, 127
1, 487137, Note_off_c, 1, 48, 0
1, 487138, Note_off_c, 1, 72, 0
1, 487139, Note_on_c, 1, 71, 127
1, 487139, Note_on_c, 1, 52, 127
1, 487310, Note_off_c, 1, 71, 0
1, 487312, Note_on_c, 1, 74, 127
1, 487482, Note_off_c, 1, 52, 0
1, 487483, Note_off_c, 1, 74, 0
1, 487484, Note_on_c, 1, 72, 127
1, 487484, Note_on_c, 1, 45, 127
1, 487655, Note_off_c, 1, 72, 0
1, 487657, Note_on_c, 1, 71, 127
1, 487827, Note_off_c, 1, 45, 0
1, 487828, Note_off_c, 1, 71, 0
1, 487829, Note_on_c, 1, 69, 127
1, 487829, Note_on_c, 1, 48, 127
1, 488000, Note_off_c, 1, 69, 0
1, 488002, Note_on_c, 1, 76, 127
1, 488172, Note_off_c, 1, 48, 0
1, 488173, Note_off_c, 1, 76, 0
1, 488174, Note_on_c, 1, 72, 127
1, 488174, Note_on_c, 1, 52, 127
1, 488345, Note_off_c, 1, 72, 0
1, 488347, Note_on_c, 1, 71, 127
1, 488517, Note_off_c, 1, 52, 0
1, 488518, Note_off_c, 1, 71, 0
1, 488519, Note_on_c, 1, 69, 127
1, 488519, Note_on_c, 1, 55, 127
1, 488690, Note_off_c, 1, 69, 0
1, 488692, Note_on_c, 1, 76, 127
1, 488862, Note_off_c, 1, 55, 0
1, 488863, Note_off_c, 1, 76, 0
1, 488864, Note_on_c, 1, 72, 127
1, 488864, Note_on_c, 1, 54, 127
1, 489035, Note_off_c, 1, 72, 0
1, 489037, Note_on_c, 1, 71, 127
1, 489207, Note_off_c, 1, 54, 0
1, 489208, Note_off_c, 1, 71, 0
1, 489209, Note_on_c, 1, 69, 127
1, 489209, Note_on_c, 1, 57, 127
1, 489380, Note_off_c, 1, 69, 0
1, 489382, Note_on_c, 1, 74, 127
1, 489552, Note_off_c, 1, 57, 0
1, 489553, Note_off_c, 1, 74, 0
1, 489554, Note_on_c, 1, 72, 127
1, 489554, Note_on_c, 1, 50, 127
1, 489725, Note_off_c, 1, 72, 0
1, 489727, Note_on_c, 1, 71, 127
1, 489897, Note_off_c, 1, 50, 0
1, 489898, Note_off_c, 1, 71, 0
1, 489899, Note_on_c, 1, 69, 127
1, 489899, Note_on_c, 1, 54, 127
1, 490070, Note_off_c, 1, 69, 0
1, 490072, Note_on_c, 1, 74, 127
1, 490242, Note_off_c, 1, 54, 0
1, 490243, Note_off_c, 1, 74, 0
1, 490244, Note_on_c, 1, 71, 127
1, 490244, Note_on_c, 1, 43, 127
1, 490415, Note_off_c, 1, 71, 0
1, 490417, Note_on_c, 1, 69, 127
1, 490587, Note_off_c, 1, 43, 0
1, 490588, Note_off_c, 1, 69, 0
1, 490589, Note_on_c, 1, 67, 127
1, 490589, Note_on_c, 1, 47, 127
1, 490760, Note_off_c, 1, 67, 0
1, 490762, Note_on_c, 1, 74, 127
1, 490932, Note_off_c, 1, 47, 0
1, 490933, Note_off_c, 1, 74, 0
1, 490934, Note_on_c, 1, 71, 127
1, 490934, Note_on_c, 1, 50, 127
1, 491105, Note_off_c, 1, 71, 0
1, 491107, Note_on_c, 1, 69, 127
1, 491277, Note_off_c, 1, 50, 0
1, 491278, Note_off_c, 1, 69, 0
1, 491279, Note_on_c, 1, 67, 127
1, 491279, Note_on_c, 1, 54, 127
1, 491450, Note_off_c, 1, 67, 0
1, 491452, Note_on_c, 1, 74, 127
1, 491622, Note_off_c, 1, 54, 0
1, 491623, Note_off_c, 1, 74, 0
1, 491624, Note_on_c, 1, 71, 127
1, 491624, Note_on_c, 1, 52, 127
1, 491795, Note_off_c, 1, 71, 0
1, 491797, Note_on_c, 1, 69, 127
1, 491967, Note_off_c, 1, 52, 0
1, 491968, Note_off_c, 1, 69, 0
1, 491969, Note_on_c, 1, 67, 127
1, 491969, Note_on_c, 1, 55, 127
1, 492140, Note_off_c, 1, 67, 0
1, 492142, Note_on_c, 1, 72, 127
1, 492312, Note_off_c, 1, 55, 0
1, 492313, Note_off_c, 1, 72, 0
1, 492314, Note_on_c, 1, 71, 127
1, 492314, Note_on_c, 1, 48, 127
1, 492485, Note_off_c, 1, 71, 0
1, 492487, Note_on_c, 1, 69, 127
1, 492657, Note_off_c, 1, 48, 0
1, 492658, Note_off_c, 1, 69, 0
1, 492659, Note_on_c, 1, 67, 127
1, 492659, Note_on_c, 1, 52, 127
1, 492830, Note_off_c, 1, 67, 0
1, 492832, Note_on_c, 1, 72, 127
1, 493002, Note_off_c, 1, 52, 0
1, 493003, Note_off_c, 1, 72, 0
1, 493004, Note_on_c, 1, 69, 127
1, 493004, Note_on_c, 1, 42, 127
1, 493175, Note_off_c, 1, 69, 0
1, 493177, Note_on_c, 1, 67, 127
1, 493347, Note_off_c, 1, 42, 0
1, 493348, Note_off_c, 1, 67, 0
1, 493349, Note_on_c, 1, 66, 127
1, 493349, Note_on_c, 1, 45, 127
1, 493520, Note_off_c, 1, 66, 0
1, 493522, Note_on_c, 1, 72, 127
1, 493692, Note_off_c, 1, 45, 0
1, 493693, Note_off_c, 1, 72, 0
1, 493694, Note_on_c, 1, 69, 127
1, 493694, Note_on_c, 1, 48, 127
1, 493865, Note_off_c, 1, 69, 0
1, 493867, Note_on_c, 1, 67, 127
1, 494037, Note_off_c, 1, 48, 0
1, 494038, Note_off_c, 1, 67, 0
1, 494039, Note_on_c, 1, 66, 127
1, 494039, Note_on_c, 1, 52, 127
1, 494210, Note_off_c, 1, 66, 0
1, 494212, Note_on_c, 1, 72, 127
1, 494382, Note_off_c, 1, 52, 0
1, 494383, Note_off_c, 1, 72, 0
1, 494384, Note_on_c, 1, 69, 127
1, 494384, Note_on_c, 1, 51, 127
1, 494555, Note_off_c, 1, 69, 0
1, 494557, Note_on_c, 1, 67, 127
1, 494727, Note_off_c, 1, 51, 0
1, 494728, Note_off_c, 1, 67, 0
1, 494729, Note_on_c, 1, 66, 127
1, 494729, Note_on_c, 1, 54, 127
1, 494900, Note_off_c, 1, 66, 0
1, 494902, Note_on_c, 1, 71, 127
1, 495072, Note_off_c, 1, 54, 0
1, 495073, Note_off_c, 1, 71, 0
1, 495074, Note_on_c, 1, 69, 127
1, 495074, Note_on_c, 1, 47, 127
1, 495245, Note_off_c, 1, 69, 0
1, 495247, Note_on_c, 1, 67, 127
1, 495417, Note_off_c, 1, 47, 0
1, 495418, Note_off_c, 1, 67, 0
1, 495419, Note_on_c, 1, 66, 127
1, 495419, Note_on_c, 1, 51, 127
1, 495590, Note_off_c, 1, 66, 0
1, 495592, Note_on_c, 1, 71, 127
1, 495762, Note_off_c, 1, 51, 0
1, 495763, Note_off_c, 1, 71, 0
1, 495764, Note_on_c, 1, 69, 127
1, 495764, Note_on_c, 1, 52, 127
1, 495848, Note_off_c, 1, 69, 0
1, 495850, Note_on_c, 1, 67, 127
1, 495933, Note_off_c, 1, 52, 0
1, 495934, Note_off_c, 1, 67, 0
1, 495935, Note_on_c, 1, 69, 127
1, 495935, Note_on_c, 1, 47, 127
1, 496019, Note_off_c, 1, 69, 0
1, 496021, Note_on_c, 1, 67, 127
1, 496104, Note_off_c, 1, 47, 0
1, 496105, Note_off_c, 1, 67, 0
1, 496106, Note_on_c, 1, 52, 127
1, 496106, Note_on_c, 1, 66, 127
1, 496277, Note_off_c, 1, 52, 0
1, 496277, Note_off_c, 1, 66, 0
1, 496279, Note_on_c, 1, 47, 127
1, 496279, Note_on_c, 1, 67, 127
1, 496450, Note_off_c, 1, 47, 0
1, 496450, Note_off_c, 1, 67, 0
1, 496451, Note_on_c, 1, 51, 127
1, 496451, Note_on_c, 1, 69, 127
1, 496622, Note_off_c, 1, 51, 0
1, 496624, Note_on_c, 1, 47, 127
1, 496794, Note_off_c, 1, 69, 0
1, 496795, Note_off_c, 1, 47, 0
1, 496796, Note_on_c, 1, 51, 127
1, 496796, Note_on_c, 1, 67, 127
1, 496967, Note_off_c, 1, 51, 0
1, 496967, Note_off_c, 1, 67, 0
1, 496969, Note_on_c, 1, 47, 127
1, 496969, Note_on_c, 1, 66, 127
1, 497140, Note_off_c, 1, 47, 0
1, 497140, Note_off_c, 1, 66, 0
1, 497141, Note_on_c, 1, 67, 127
1, 497141, Note_on_c, 1, 52, 127
1, 497312, Note_off_c, 1, 67, 0
1, 497314, Note_on_c, 1, 66, 127
1, 497484, Note_off_c, 1, 52, 0
1, 497485, Note_off_c, 1, 66, 0
1, 497486, Note_on_c, 1, 64, 127
1, 497486, Note_on_c, 1, 47, 127
1, 497657, Note_off_c, 1, 64, 0
1, 497659, Note_on_c, 1, 66, 127
1, 497829, Note_off_c, 1, 47, 0
1, 497830, Note_off_c, 1, 66, 0
1, 497831, Note_on_c, 1, 67, 127
1, 497831, Note_on_c, 1, 40, 127
1, 498002, Note_off_c, 1, 67, 0
1, 498004, Note_on_c, 1, 69, 127
1, 498174, Note_off_c, 1, 40, 0
1, 498175, Note_off_c, 1, 69, 0
1, 498176, Note_on_c, 1, 71, 127
1, 498176, Note_on_c, 1, 51, 127
1, 498347, Note_off_c, 1, 71, 0
1, 498349, Note_on_c, 1, 66, 127
1, 498519, Note_off_c, 1, 51, 0
1, 498520, Note_off_c, 1, 66, 0
1, 498521, Note_on_c, 1, 52, 127
1, 498521, Note_on_c, 1, 67, 127
1, 498692, Note_off_c, 1, 52, 0
1, 498692, Note_off_c, 1, 67, 0
1, 498694, Note_on_c, 1, 47, 127
1, 498694, Note_on_c, 1, 69, 127
1, 498865, Note_off_c, 1, 47, 0
1, 498865, Note_off_c, 1, 69, 0
1, 498866, Note_on_c, 1, 52, 127
1, 498866, Note_on_c, 1, 66, 127
1, 499037, Note_off_c, 1, 52, 0
1, 499037, Note_off_c, 1, 66, 0
1, 499039, Note_on_c, 1, 47, 127
1, 499039, Note_on_c, 1, 67, 127
1, 499210, Note_off_c, 1, 47, 0
1, 499210, Note_off_c, 1, 67, 0
1, 499211, Note_on_c, 1, 51, 127
1, 499211, Note_on_c, 1, 69, 127
1, 499382, Note_off_c, 1, 51, 0
1, 499382, Note_off_c, 1, 69, 0
1, 499384, Note_on_c, 1, 47, 127
1, 499384, Note_on_c, 1, 66, 127
1, 499555, Note_off_c, 1, 47, 0
1, 499555, Note_off_c, 1, 66, 0
1, 499556, Note_on_c, 1, 51, 127
1, 499556, Note_on_c, 1, 67, 127
1, 499727, Note_off_c, 1, 51, 0
1, 499727, Note_off_c, 1, 67, 0
1, 499729, Note_on_c, 1, 47, 127
1, 499729, Note_on_c, 1, 69, 127
1, 499900, Note_off_c, 1, 47, 0
1, 499900, Note_off_c, 1, 69, 0
1, 499901, Note_on_c, 1, 67, 127
1, 499901, Note_on_c, 1, 52, 127
1, 500072, Note_off_c, 1, 67, 0
1, 500074, Note_on_c, 1, 64, 127
1, 500244, Note_off_c, 1, 52, 0
1, 500245, Note_off_c, 1, 64, 0
1, 500246, Note_on_c, 1, 67, 127
1, 500246, Note_on_c, 1, 47, 127
1, 500417, Note_off_c, 1, 67, 0
1, 500419, Note_on_c, 1, 71, 127
1, 500589, Note_off_c, 1, 47, 0
1, 500590, Note_off_c, 1, 71, 0
1, 500591, Note_on_c, 1, 67, 127
1, 500591, Note_on_c, 1, 52, 127
1, 500762, Note_off_c, 1, 67, 0
1, 500764, Note_on_c, 1, 71, 127
1, 500934, Note_off_c, 1, 52, 0
1, 500935, Note_off_c, 1, 71, 0
1, 500936, Note_on_c, 1, 76, 127
1, 500936, Note_on_c, 1, 55, 127
1, 501107, Note_off_c, 1, 76, 0
1, 501109, Note_on_c, 1, 71, 127
1, 501279, Note_off_c, 1, 55, 0
1, 501280, Note_off_c, 1, 71, 0
1, 501281, Note_on_c, 1, 76, 127
1, 501281, Note_on_c, 1, 52, 127
1, 501452, Note_off_c, 1, 76, 0
1, 501454, Note_on_c, 1, 79, 127
1, 501624, Note_off_c, 1, 52, 0
1, 501625, Note_off_c, 1, 79, 0
1, 501626, Note_on_c, 1, 76, 127
1, 501626, Note_on_c, 1, 55, 127
1, 501797, Note_off_c, 1, 76, 0
1, 501799, Note_on_c, 1, 79, 127
1, 501969, Note_off_c, 1, 55, 0
1, 501970, Note_off_c, 1, 79, 0
1, 501971, Note_on_c, 1, 81, 127
1, 501971, Note_on_c, 1, 59, 127
1, 502142, Note_off_c, 1, 81, 0
1, 502144, Note_on_c, 1, 79, 127
1, 502314, Note_off_c, 1, 59, 0
1, 502315, Note_off_c, 1, 79, 0
1, 502316, Note_on_c, 1, 78, 127
1, 502316, Note_on_c, 1, 64, 127
1, 502487, Note_off_c, 1, 78, 0
1, 502489, Note_on_c, 1, 76, 127
1, 502659, Note_off_c, 1, 64, 0
1, 502660, Note_off_c, 1, 76, 0
1, 502661, Note_on_c, 1, 78, 127
1, 502661, Note_on_c, 1, 63, 127
1, 502832, Note_off_c, 1, 78, 0
1, 502834, Note_on_c, 1, 76, 127
1, 503004, Note_off_c, 1, 63, 0
1, 503005, Note_off_c, 1, 76, 0
1, 503006, Note_on_c, 1, 75, 127
1, 503006, Note_on_c, 1, 59, 127
1, 503179, Note_on_c, 1, 83, 127
1, 503196, Note_off_c, 1, 75, 0
1, 503349, Note_off_c, 1, 59, 0
1, 503350, Note_off_c, 1, 83, 0
1, 503351, Note_on_c, 1, 78, 127
1, 503351, Note_on_c, 1, 63, 127
1, 503522, Note_off_c, 1, 78, 0
1, 503524, Note_on_c, 1, 76, 127
1, 503694, Note_off_c, 1, 63, 0
1, 503695, Note_off_c, 1, 76, 0
1, 503696, Note_on_c, 1, 75, 127
1, 503696, Note_on_c, 1, 59, 127
1, 503869, Note_on_c, 1, 83, 127
1, 503886, Note_off_c, 1, 75, 0
1, 504039, Note_off_c, 1, 59, 0
1, 504040, Note_off_c, 1, 83, 0
1, 504041, Note_on_c, 1, 79, 127
1, 504041, Note_on_c, 1, 64, 127
1, 504212, Note_off_c, 1, 79, 0
1, 504214, Note_on_c, 1, 78, 127
1, 504384, Note_off_c, 1, 64, 0
1, 504385, Note_off_c, 1, 78, 0
1, 504386, Note_on_c, 1, 76, 127
1, 504386, Note_on_c, 1, 59, 127
1, 504559, Note_on_c, 1, 83, 127
1, 504576, Note_off_c, 1, 76, 0
1, 504729, Note_off_c, 1, 59, 0
1, 504730, Note_off_c, 1, 83, 0
1, 504731, Note_on_c, 1, 79, 127
1, 504731, Note_on_c, 1, 52, 127
1, 504902, Note_off_c, 1, 79, 0
1, 504904, Note_on_c, 1, 78, 127
1, 505074, Note_off_c, 1, 52, 0
1, 505075, Note_off_c, 1, 78, 0
1, 505076, Note_on_c, 1, 76, 127
1, 505076, Note_on_c, 1, 55, 127
1, 505249, Note_on_c, 1, 83, 127
1, 505256, Note_off_c, 1, 76, 0
1, 505419, Note_off_c, 1, 55, 0
1, 505420, Note_off_c, 1, 83, 0
1, 505421, Note_on_c, 1, 75, 127
1, 505421, Note_on_c, 1, 57, 127
1, 505592, Note_off_c, 1, 75, 0
1, 505594, Note_on_c, 1, 73, 127
1, 505764, Note_off_c, 1, 57, 0
1, 505765, Note_off_c, 1, 73, 0
1, 505766, Note_on_c, 1, 71, 127
1, 505766, Note_on_c, 1, 55, 127
1, 505937, Note_off_c, 1, 71, 0
1, 505939, Note_on_c, 1, 83, 127
1, 506109, Note_off_c, 1, 55, 0
1, 506110, Note_off_c, 1, 83, 0
1, 506111, Note_on_c, 1, 75, 127
1, 506111, Note_on_c, 1, 57, 127
1, 506282, Note_off_c, 1, 75, 0
1, 506284, Note_on_c, 1, 73, 127
1, 506454, Note_off_c, 1, 57, 0
1, 506455, Note_off_c, 1, 73, 0
1, 506456, Note_on_c, 1, 71, 127
1, 506456, Note_on_c, 1, 54, 127
1, 506627, Note_off_c, 1, 71, 0
1, 506629, Note_on_c, 1, 75, 127
1, 506799, Note_off_c, 1, 54, 0
1, 506800, Note_off_c, 1, 75, 0
1, 506801, Note_on_c, 1, 55, 127
1, 506801, Note_on_c, 1, 76, 127
1, 507144, Note_off_c, 1, 55, 0
1, 507144, Note_off_c, 1, 76, 0
1, 507146, Note_on_c, 1, 57, 127
1, 507146, Note_on_c, 1, 78, 127
1, 507489, Note_off_c, 1, 57, 0
1, 507489, Note_off_c, 1, 78, 0
1, 507491, Note_on_c, 1, 59, 127
1, 507491, Note_on_c, 1, 71, 127
1, 507834, Note_off_c, 1, 59, 0
1, 507834, Note_off_c, 1, 71, 0
1, 507836, Note_on_c, 1, 47, 127
1, 507836, Note_on_c, 1, 75, 127
1, 508179, Note_off_c, 1, 47, 0
1, 508179, Note_off_c, 1, 75, 0
1, 508181, Note_on_c, 1, 52, 127
1, 508181, Note_on_c, 1, 76, 127
1, 508524, Note_off_c, 1, 52, 0
1, 508526, Note_on_c, 1, 47, 127
1, 508869, Note_off_c, 1, 47, 0
1, 508871, Note_on_c, 1, 40, 127
1, 509214, Note_off_c, 1, 76, 0
1, 509214, Note_off_c, 1, 40, 0
1, 509216, Note_on_c, 1, 52, 127
1, 509216, Note_on_c, 1, 71, 127
1, 509387, Note_off_c, 1, 52, 0
1, 509389, Note_on_c, 1, 54, 127
1, 509559, Note_off_c, 1, 71, 0
1, 509560, Note_off_c, 1, 54, 0
1, 509561, Note_on_c, 1, 72, 127
1, 509561, Note_on_c, 1, 56, 127
1, 509645, Note_off_c, 1, 72, 0
1, 509647, Note_on_c, 1, 71, 127
1, 509730, Note_off_c, 1, 56, 0
1, 509731, Note_off_c, 1, 71, 0
1, 509732, Note_on_c, 1, 72, 127
1, 509732, Note_on_c, 1, 52, 127
1, 509816, Note_off_c, 1, 72, 0
1, 509818, Note_on_c, 1, 71, 127
1, 509901, Note_off_c, 1, 52, 0
1, 509902, Note_off_c, 1, 71, 0
1, 509903, Note_on_c, 1, 56, 127
1, 509903, Note_on_c, 1, 69, 127
1, 510074, Note_off_c, 1, 56, 0
1, 510074, Note_off_c, 1, 69, 0
1, 510076, Note_on_c, 1, 52, 127
1, 510076, Note_on_c, 1, 71, 127
1, 510247, Note_off_c, 1, 52, 0
1, 510247, Note_off_c, 1, 71, 0
1, 510248, Note_on_c, 1, 57, 127
1, 510248, Note_on_c, 1, 72, 127
1, 510419, Note_off_c, 1, 57, 0
1, 510421, Note_on_c, 1, 52, 127
1, 510591, Note_off_c, 1, 72, 0
1, 510592, Note_off_c, 1, 52, 0
1, 510593, Note_on_c, 1, 57, 127
1, 510593, Note_on_c, 1, 71, 127
1, 510764, Note_off_c, 1, 57, 0
1, 510764, Note_off_c, 1, 71, 0
1, 510766, Note_on_c, 1, 52, 127
1, 510766, Note_on_c, 1, 72, 127
1, 510937, Note_off_c, 1, 52, 0
1, 510937, Note_off_c, 1, 72, 0
1, 510938, Note_on_c, 1, 59, 127
1, 510938, Note_on_c, 1, 74, 127
1, 511109, Note_off_c, 1, 59, 0
1, 511111, Note_on_c, 1, 52, 127
1, 511281, Note_off_c, 1, 74, 0
1, 511282, Note_off_c, 1, 52, 0
1, 511283, Note_on_c, 1, 59, 127
1, 511283, Note_on_c, 1, 72, 127
1, 511454, Note_off_c, 1, 59, 0
1, 511454, Note_off_c, 1, 72, 0
1, 511456, Note_on_c, 1, 52, 127
1, 511456, Note_on_c, 1, 71, 127
1, 511627, Note_off_c, 1, 52, 0
1, 511627, Note_off_c, 1, 71, 0
1, 511628, Note_on_c, 1, 60, 127
1, 511628, Note_on_c, 1, 69, 127
1, 511799, Note_off_c, 1, 60, 0
1, 511799, Note_off_c, 1, 69, 0
1, 511801, Note_on_c, 1, 52, 127
1, 511801, Note_on_c, 1, 68, 127
1, 511972, Note_off_c, 1, 52, 0
1, 511972, Note_off_c, 1, 68, 0
1, 511973, Note_on_c, 1, 62, 127
1, 511973, Note_on_c, 1, 77, 127
1, 512144, Note_off_c, 1, 62, 0
1, 512146, Note_on_c, 1, 52, 127
1, 512316, Note_off_c, 1, 77, 0
1, 512317, Note_off_c, 1, 52, 0
1, 512318, Note_on_c, 1, 60, 127
1, 512318, Note_on_c, 1, 76, 127
1, 512489, Note_off_c, 1, 60, 0
1, 512491, Note_on_c, 1, 52, 127
1, 512661, Note_off_c, 1, 76, 0
1, 512662, Note_off_c, 1, 52, 0
1, 512663, Note_on_c, 1, 57, 127
1, 512663, Note_on_c, 1, 74, 127
1, 512834, Note_off_c, 1, 57, 0
1, 512834, Note_off_c, 1, 74, 0
1, 512836, Note_on_c, 1, 52, 127
1, 512836, Note_on_c, 1, 72, 127
1, 513007, Note_off_c, 1, 52, 0
1, 513007, Note_off_c, 1, 72, 0
1, 513008, Note_on_c, 1, 59, 127
1, 513008, Note_on_c, 1, 74, 127
1, 513179, Note_off_c, 1, 59, 0
1, 513181, Note_on_c, 1, 52, 127
1, 513351, Note_off_c, 1, 74, 0
1, 513352, Note_off_c, 1, 52, 0
1, 513353, Note_on_c, 1, 56, 127
1, 513353, Note_on_c, 1, 72, 127
1, 513524, Note_off_c, 1, 56, 0
1, 513524, Note_off_c, 1, 72, 0
1, 513526, Note_on_c, 1, 52, 127
1, 513526, Note_on_c, 1, 71, 127
1, 513697, Note_off_c, 1, 52, 0
1, 513697, Note_off_c, 1, 71, 0
1, 513698, Note_on_c, 1, 74, 127
1, 513698, Note_on_c, 1, 57, 127
1, 513869, Note_off_c, 1, 74, 0
1, 513871, Note_on_c, 1, 72, 127
1, 514041, Note_off_c, 1, 57, 0
1, 514042, Note_off_c, 1, 72, 0
1, 514043, Note_on_c, 1, 71, 127
1, 514043, Note_on_c, 1, 52, 127
1, 514214, Note_off_c, 1, 71, 0
1, 514216, Note_on_c, 1, 72, 127
1, 514386, Note_off_c, 1, 52, 0
1, 514387, Note_off_c, 1, 72, 0
1, 514388, Note_on_c, 1, 45, 127
1, 514388, Note_on_c, 1, 69, 127
1, 514559, Note_off_c, 1, 45, 0
1, 514559, Note_off_c, 1, 69, 0
1, 514561, Note_on_c, 1, 52, 127
1, 514561, Note_on_c, 1, 71, 127
1, 514732, Note_off_c, 1, 52, 0
1, 514732, Note_off_c, 1, 71, 0
1, 514733, Note_on_c, 1, 57, 127
1, 514733, Note_on_c, 1, 72, 127
1, 514904, Note_off_c, 1, 57, 0
1, 514904, Note_off_c, 1, 72, 0
1, 514906, Note_on_c, 1, 59, 127
1, 514906, Note_on_c, 1, 74, 127
1, 515077, Note_off_c, 1, 59, 0
1, 515077, Note_off_c, 1, 74, 0
1, 515078, Note_on_c, 1, 61, 127
1, 515078, Note_on_c, 1, 76, 127
1, 515249, Note_off_c, 1, 61, 0
1, 515249, Note_off_c, 1, 76, 0
1, 515251, Note_on_c, 1, 57, 127
1, 515251, Note_on_c, 1, 77, 127
1, 515422, Note_off_c, 1, 57, 0
1, 515422, Note_off_c, 1, 77, 0
1, 515423, Note_on_c, 1, 61, 127
1, 515423, Note_on_c, 1, 74, 127
1, 515594, Note_off_c, 1, 61, 0
1, 515594, Note_off_c, 1, 74, 0
1, 515596, Note_on_c, 1, 57, 127
1, 515596, Note_on_c, 1, 76, 127
1, 515767, Note_off_c, 1, 57, 0
1, 515767, Note_off_c, 1, 76, 0
1, 515768, Note_on_c, 1, 62, 127
1, 515768, Note_on_c, 1, 77, 127
1, 515939, Note_off_c, 1, 62, 0
1, 515939, Note_off_c, 1, 77, 0
1, 515941, Note_on_c, 1, 57, 127
1, 515941, Note_on_c, 1, 79, 127
1, 516112, Note_off_c, 1, 57, 0
1, 516112, Note_off_c, 1, 79, 0
1, 516113, Note_on_c, 1, 62, 127
1, 516113, Note_on_c, 1, 76, 127
1, 516284, Note_off_c, 1, 62, 0
1, 516284, Note_off_c, 1, 76, 0
1, 516286, Note_on_c, 1, 57, 127
1, 516286, Note_on_c, 1, 77, 127
1, 516457, Note_off_c, 1, 57, 0
1, 516457, Note_off_c, 1, 77, 0
1, 516458, Note_on_c, 1, 64, 127
1, 516458, Note_on_c, 1, 79, 127
1, 516629, Note_off_c, 1, 64, 0
1, 516629, Note_off_c, 1, 79, 0
1, 516631, Note_on_c, 1, 57, 127
1, 516631, Note_on_c, 1, 81, 127
1, 516802, Note_off_c, 1, 57, 0
1, 516802, Note_off_c, 1, 81, 0
1, 516803, Note_on_c, 1, 64, 127
1, 516803, Note_on_c, 1, 79, 127
1, 516974, Note_off_c, 1, 64, 0
1, 516974, Note_off_c, 1, 79, 0
1, 516976, Note_on_c, 1, 57, 127
1, 516976, Note_on_c, 1, 77, 127
1, 517147, Note_off_c, 1, 57, 0
1, 517147, Note_off_c, 1, 77, 0
1, 517148, Note_on_c, 1, 65, 127
1, 517148, Note_on_c, 1, 76, 127
1, 517319, Note_off_c, 1, 65, 0
1, 517319, Note_off_c, 1, 76, 0
1, 517321, Note_on_c, 1, 57, 127
1, 517321, Note_on_c, 1, 74, 127
1, 517492, Note_off_c, 1, 57, 0
1, 517492, Note_off_c, 1, 74, 0
1, 517493, Note_on_c, 1, 67, 127
1, 517493, Note_on_c, 1, 73, 127
1, 517664, Note_off_c, 1, 67, 0
1, 517664, Note_off_c, 1, 73, 0
1, 517666, Note_on_c, 1, 57, 127
1, 517666, Note_on_c, 1, 82, 127
1, 517837, Note_off_c, 1, 57, 0
1, 517837, Note_off_c, 1, 82, 0
1, 517838, Note_on_c, 1, 65, 127
1, 517838, Note_on_c, 1, 81, 127
1, 518009, Note_off_c, 1, 65, 0
1, 518009, Note_off_c, 1, 81, 0
1, 518011, Note_on_c, 1, 57, 127
1, 518011, Note_on_c, 1, 79, 127
1, 518182, Note_off_c, 1, 57, 0
1, 518182, Note_off_c, 1, 79, 0
1, 518183, Note_on_c, 1, 62, 127
1, 518183, Note_on_c, 1, 77, 127
1, 518354, Note_off_c, 1, 62, 0
1, 518354, Note_off_c, 1, 77, 0
1, 518356, Note_on_c, 1, 57, 127
1, 518356, Note_on_c, 1, 81, 127
1, 518527, Note_off_c, 1, 57, 0
1, 518527, Note_off_c, 1, 81, 0
1, 518528, Note_on_c, 1, 64, 127
1, 518528, Note_on_c, 1, 79, 127
1, 518699, Note_off_c, 1, 64, 0
1, 518699, Note_off_c, 1, 79, 0
1, 518701, Note_on_c, 1, 57, 127
1, 518701, Note_on_c, 1, 77, 127
1, 518872, Note_off_c, 1, 57, 0
1, 518872, Note_off_c, 1, 77, 0
1, 518873, Note_on_c, 1, 61, 127
1, 518873, Note_on_c, 1, 76, 127
1, 519044, Note_off_c, 1, 61, 0
1, 519044, Note_off_c, 1, 76, 0
1, 519046, Note_on_c, 1, 57, 127
1, 519046, Note_on_c, 1, 77, 127
1, 519217, Note_off_c, 1, 57, 0
1, 519217, Note_off_c, 1, 77, 0
1, 519218, Note_on_c, 1, 79, 127
1, 519218, Note_on_c, 1, 62, 127
1, 519389, Note_off_c, 1, 79, 0
1, 519391, Note_on_c, 1, 77, 127
1, 519561, Note_off_c, 1, 62, 0
1, 519562, Note_off_c, 1, 77, 0
1, 519563, Note_on_c, 1, 76, 127
1, 519563, Note_on_c, 1, 57, 127
1, 519734, Note_off_c, 1, 76, 0
1, 519736, Note_on_c, 1, 77, 127
1, 519906, Note_off_c, 1, 57, 0
1, 519907, Note_off_c, 1, 77, 0
1, 519908, Note_on_c, 1, 74, 127
1, 519908, Note_on_c, 1, 53, 127
1, 520079, Note_off_c, 1, 74, 0
1, 520081, Note_on_c, 1, 77, 127
1, 520251, Note_off_c, 1, 53, 0
1, 520252, Note_off_c, 1, 77, 0
1, 520253, Note_on_c, 1, 76, 127
1, 520253, Note_on_c, 1, 57, 127
1, 520424, Note_off_c, 1, 76, 0
1, 520426, Note_on_c, 1, 79, 127
1, 520596, Note_off_c, 1, 57, 0
1, 520597, Note_off_c, 1, 79, 0
1, 520598, Note_on_c, 1, 77, 127
1, 520598, Note_on_c, 1, 50, 127
1, 520769, Note_off_c, 1, 77, 0
1, 520771, Note_on_c, 1, 76, 127
1, 520941, Note_off_c, 1, 50, 0
1, 520942, Note_off_c, 1, 76, 0
1, 520943, Note_on_c, 1, 74, 127
1, 520943, Note_on_c, 1, 38, 127
1, 521114, Note_off_c, 1, 74, 0
1, 521116, Note_on_c, 1, 81, 127
1, 521286, Note_off_c, 1, 38, 0
1, 521287, Note_off_c, 1, 81, 0
1, 521288, Note_on_c, 1, 77, 127
1, 521288, Note_on_c, 1, 40, 127
1, 521459, Note_off_c, 1, 77, 0
1, 521461, Note_on_c, 1, 76, 127
1, 521631, Note_off_c, 1, 40, 0
1, 521632, Note_off_c, 1, 76, 0
1, 521633, Note_on_c, 1, 74, 127
1, 521633, Note_on_c, 1, 41, 127
1, 521804, Note_off_c, 1, 74, 0
1, 521806, Note_on_c, 1, 72, 127
1, 521976, Note_off_c, 1, 41, 0
1, 521977, Note_off_c, 1, 72, 0
1, 521978, Note_on_c, 1, 70, 127
1, 521978, Note_on_c, 1, 43, 127
1, 522149, Note_off_c, 1, 70, 0
1, 522151, Note_on_c, 1, 69, 127
1, 522321, Note_off_c, 1, 43, 0
1, 522322, Note_off_c, 1, 69, 0
1, 522323, Note_on_c, 1, 67, 127
1, 522323, Note_on_c, 1, 55, 127
1, 522494, Note_off_c, 1, 67, 0
1, 522496, Note_on_c, 1, 74, 127
1, 522666, Note_off_c, 1, 55, 0
1, 522667, Note_off_c, 1, 74, 0
1, 522668, Note_on_c, 1, 70, 127
1, 522668, Note_on_c, 1, 57, 127
1, 522839, Note_off_c, 1, 70, 0
1, 522841, Note_on_c, 1, 69, 127
1, 523011, Note_off_c, 1, 57, 0
1, 523012, Note_off_c, 1, 69, 0
1, 523013, Note_on_c, 1, 67, 127
1, 523013, Note_on_c, 1, 58, 127
1, 523184, Note_off_c, 1, 67, 0
1, 523186, Note_on_c, 1, 77, 127
1, 523356, Note_off_c, 1, 58, 0
1, 523357, Note_off_c, 1, 77, 0
1, 523358, Note_on_c, 1, 76, 127
1, 523358, Note_on_c, 1, 60, 127
1, 523529, Note_off_c, 1, 76, 0
1, 523531, Note_on_c, 1, 74, 127
1, 523701, Note_off_c, 1, 60, 0
1, 523702, Note_off_c, 1, 74, 0
1, 523703, Note_on_c, 1, 72, 127
1, 523703, Note_on_c, 1, 36, 127
1, 523874, Note_off_c, 1, 72, 0
1, 523876, Note_on_c, 1, 79, 127
1, 524046, Note_off_c, 1, 36, 0
1, 524047, Note_off_c, 1, 79, 0
1, 524048, Note_on_c, 1, 76, 127
1, 524048, Note_on_c, 1, 38, 127
1, 524219, Note_off_c, 1, 76, 0
1, 524221, Note_on_c, 1, 74, 127
1, 524391, Note_off_c, 1, 38, 0
1, 524392, Note_off_c, 1, 74, 0
1, 524393, Note_on_c, 1, 72, 127
1, 524393, Note_on_c, 1, 40, 127
1, 524564, Note_off_c, 1, 72, 0
1, 524566, Note_on_c, 1, 70, 127
1, 524736, Note_off_c, 1, 40, 0
1, 524737, Note_off_c, 1, 70, 0
1, 524738, Note_on_c, 1, 69, 127
1, 524738, Note_on_c, 1, 41, 127
1, 524909, Note_off_c, 1, 69, 0
1, 524911, Note_on_c, 1, 67, 127
1, 525081, Note_off_c, 1, 41, 0
1, 525082, Note_off_c, 1, 67, 0
1, 525083, Note_on_c, 1, 65, 127
1, 525083, Note_on_c, 1, 48, 127
1, 525254, Note_off_c, 1, 65, 0
1, 525256, Note_on_c, 1, 72, 127
1, 525426, Note_off_c, 1, 48, 0
1, 525427, Note_off_c, 1, 72, 0
1, 525428, Note_on_c, 1, 69, 127
1, 525428, Note_on_c, 1, 53, 127
1, 525599, Note_off_c, 1, 69, 0
1, 525601, Note_on_c, 1, 67, 127
1, 525771, Note_off_c, 1, 53, 0
1, 525772, Note_off_c, 1, 67, 0
1, 525773, Note_on_c, 1, 65, 127
1, 525773, Note_on_c, 1, 50, 127
1, 525944, Note_off_c, 1, 65, 0
1, 525946, Note_on_c, 1, 69, 127
1, 526116, Note_off_c, 1, 50, 0
1, 526117, Note_off_c, 1, 69, 0
1, 526118, Note_on_c, 1, 70, 127
1, 526118, Note_on_c, 1, 55, 127
1, 526289, Note_off_c, 1, 70, 0
1, 526291, Note_on_c, 1, 72, 127
1, 526461, Note_off_c, 1, 55, 0
1, 526462, Note_off_c, 1, 72, 0
1, 526463, Note_on_c, 1, 74, 127
1, 526463, Note_on_c, 1, 53, 127
1, 526634, Note_off_c, 1, 74, 0
1, 526636, Note_on_c, 1, 77, 127
1, 526806, Note_off_c, 1, 53, 0
1, 526807, Note_off_c, 1, 77, 0
1, 526808, Note_on_c, 1, 76, 127
1, 526808, Note_on_c, 1, 55, 127
1, 526979, Note_off_c, 1, 76, 0
1, 526981, Note_on_c, 1, 77, 127
1, 527151, Note_off_c, 1, 55, 0
1, 527152, Note_off_c, 1, 77, 0
1, 527153, Note_on_c, 1, 79, 127
1, 527153, Note_on_c, 1, 52, 127
1, 527324, Note_off_c, 1, 79, 0
1, 527326, Note_on_c, 1, 71, 127
1, 527496, Note_off_c, 1, 52, 0
1, 527497, Note_off_c, 1, 71, 0
1, 527498, Note_on_c, 1, 73, 127
1, 527498, Note_on_c, 1, 57, 127
1, 527669, Note_off_c, 1, 73, 0
1, 527671, Note_on_c, 1, 74, 127
1, 527841, Note_off_c, 1, 57, 0
1, 527842, Note_off_c, 1, 74, 0
1, 527843, Note_on_c, 1, 76, 127
1, 527843, Note_on_c, 1, 55, 127
1, 528014, Note_off_c, 1, 76, 0
1, 528016, Note_on_c, 1, 79, 127
1, 528186, Note_off_c, 1, 55, 0
1, 528187, Note_off_c, 1, 79, 0
1, 528188, Note_on_c, 1, 77, 127
1, 528188, Note_on_c, 1, 57, 127
1, 528359, Note_off_c, 1, 77, 0
1, 528361, Note_on_c, 1, 79, 127
1, 528531, Note_off_c, 1, 57, 0
1, 528532, Note_off_c, 1, 79, 0
1, 528533, Note_on_c, 1, 81, 127
1, 528533, Note_on_c, 1, 53, 127
1, 528704, Note_off_c, 1, 81, 0
1, 528706, Note_on_c, 1, 73, 127
1, 528876, Note_off_c, 1, 53, 0
1, 528877, Note_off_c, 1, 73, 0
1, 528878, Note_on_c, 1, 76, 127
1, 528878, Note_on_c, 1, 58, 127
1, 529049, Note_off_c, 1, 76, 0
1, 529051, Note_on_c, 1, 74, 127
1, 529135, Note_off_c, 1, 74, 0
1, 529136, Note_on_c, 1, 73, 127
1, 529220, Note_off_c, 1, 58, 0
1, 529220, Note_off_c, 1, 73, 0
1, 529222, Note_on_c, 1, 74, 127
1, 529222, Note_on_c, 1, 55, 127
1, 529393, Note_off_c, 1, 74, 0
1, 529394, Note_on_c, 1, 76, 127
1, 529565, Note_off_c, 1, 55, 0
1, 529565, Note_off_c, 1, 76, 0
1, 529567, Note_on_c, 1, 77, 127
1, 529567, Note_on_c, 1, 57, 127
1, 529651, Note_off_c, 1, 77, 0
1, 529652, Note_on_c, 1, 76, 127
1, 529736, Note_off_c, 1, 76, 0
1, 529907, Note_off_c, 1, 57, 0
1, 529909, Note_on_c, 1, 77, 127
1, 529909, Note_on_c, 1, 45, 127
1, 529993, Note_off_c, 1, 77, 0
1, 529994, Note_on_c, 1, 76, 127
1, 530078, Note_off_c, 1, 76, 0
1, 530080, Note_on_c, 1, 74, 127
1, 530251, Note_off_c, 1, 45, 0
1, 530251, Note_off_c, 1, 74, 0
1, 530252, Note_on_c, 1, 50, 127
1, 530252, Note_on_c, 1, 74, 127
1, 530423, Note_off_c, 1, 50, 0
1, 530425, Note_on_c, 1, 52, 127
1, 530596, Note_off_c, 1, 52, 0
1, 530597, Note_on_c, 1, 53, 127
1, 530768, Note_off_c, 1, 53, 0
1, 531115, Note_on_c, 1, 48, 127
1, 531285, Note_off_c, 1, 74, 0
1, 531286, Note_off_c, 1, 48, 0
1, 531287, Note_on_c, 1, 47, 127
1, 531287, Note_on_c, 1, 74, 127
1, 531458, Note_off_c, 1, 47, 0
1, 531458, Note_off_c, 1, 74, 0
1, 531460, Note_on_c, 1, 45, 127
1, 531460, Note_on_c, 1, 76, 127
1, 531631, Note_off_c, 1, 45, 0
1, 531631, Note_off_c, 1, 76, 0
1, 531632, Note_on_c, 1, 43, 127
1, 531632, Note_on_c, 1, 77, 127
1, 531803, Note_off_c, 1, 43, 0
1, 531805, Note_on_c, 1, 45, 127
1, 531975, Note_off_c, 1, 77, 0
1, 531976, Note_off_c, 1, 45, 0
1, 531977, Note_on_c, 1, 47, 127
1, 531977, Note_on_c, 1, 74, 127
1, 532148, Note_off_c, 1, 47, 0
1, 532148, Note_off_c, 1, 74, 0
1, 532150, Note_on_c, 1, 48, 127
1, 532150, Note_on_c, 1, 76, 127
1, 532321, Note_off_c, 1, 48, 0
1, 532321, Note_off_c, 1, 76, 0
1, 532322, Note_on_c, 1, 50, 127
1, 532322, Note_on_c, 1, 77, 127
1, 532493, Note_off_c, 1, 50, 0
1, 532495, Note_on_c, 1, 52, 127
1, 532665, Note_off_c, 1, 77, 0
1, 532666, Note_off_c, 1, 52, 0
1, 532667, Note_on_c, 1, 53, 127
1, 532667, Note_on_c, 1, 76, 127
1, 532838, Note_off_c, 1, 53, 0
1, 532838, Note_off_c, 1, 76, 0
1, 532840, Note_on_c, 1, 55, 127
1, 532840, Note_on_c, 1, 74, 127
1, 533011, Note_off_c, 1, 55, 0
1, 533011, Note_off_c, 1, 74, 0
1, 533012, Note_on_c, 1, 48, 127
1, 533012, Note_on_c, 1, 76, 127
1, 533183, Note_off_c, 1, 48, 0
1, 533185, Note_on_c, 1, 60, 127
1, 533355, Note_off_c, 1, 76, 0
1, 533356, Note_off_c, 1, 60, 0
1, 533357, Note_on_c, 1, 59, 127
1, 533357, Note_on_c, 1, 74, 127
1, 533528, Note_off_c, 1, 59, 0
1, 533528, Note_off_c, 1, 74, 0
1, 533530, Note_on_c, 1, 57, 127
1, 533530, Note_on_c, 1, 72, 127
1, 533701, Note_off_c, 1, 57, 0
1, 533701, Note_off_c, 1, 72, 0
1, 533702, Note_on_c, 1, 55, 127
1, 533702, Note_on_c, 1, 74, 127
1, 533873, Note_off_c, 1, 55, 0
1, 533875, Note_on_c, 1, 53, 127
1, 534045, Note_off_c, 1, 74, 0
1, 534046, Note_off_c, 1, 53, 0
1, 534047, Note_on_c, 1, 52, 127
1, 534047, Note_on_c, 1, 72, 127
1, 534218, Note_off_c, 1, 52, 0
1, 534218, Note_off_c, 1, 72, 0
1, 534220, Note_on_c, 1, 50, 127
1, 534220, Note_on_c, 1, 74, 127
1, 534391, Note_off_c, 1, 50, 0
1, 534391, Note_off_c, 1, 74, 0
1, 534392, Note_on_c, 1, 48, 127
1, 534392, Note_on_c, 1, 76, 127
1, 534563, Note_off_c, 1, 48, 0
1, 534565, Note_on_c, 1, 60, 127
1, 534735, Note_off_c, 1, 76, 0
1, 534736, Note_off_c, 1, 60, 0
1, 534737, Note_on_c, 1, 59, 127
1, 534737, Note_on_c, 1, 74, 127
1, 534908, Note_off_c, 1, 59, 0
1, 534908, Note_off_c, 1, 74, 0
1, 534910, Note_on_c, 1, 57, 127
1, 534910, Note_on_c, 1, 72, 127
1, 535081, Note_off_c, 1, 57, 0
1, 535081, Note_off_c, 1, 72, 0
1, 535082, Note_on_c, 1, 56, 127
1, 535082, Note_on_c, 1, 74, 127
1, 535253, Note_off_c, 1, 56, 0
1, 535255, Note_on_c, 1, 59, 127
1, 535425, Note_off_c, 1, 74, 0
1, 535426, Note_off_c, 1, 59, 0
1, 535427, Note_on_c, 1, 57, 127
1, 535427, Note_on_c, 1, 72, 127
1, 535598, Note_off_c, 1, 57, 0
1, 535598, Note_off_c, 1, 72, 0
1, 535600, Note_on_c, 1, 56, 127
1, 535600, Note_on_c, 1, 71, 127
1, 535771, Note_off_c, 1, 56, 0
1, 535771, Note_off_c, 1, 71, 0
1, 535772, Note_on_c, 1, 57, 127
1, 535772, Note_on_c, 1, 72, 127
1, 535943, Note_off_c, 1, 57, 0
1, 535945, Note_on_c, 1, 52, 127
1, 536115, Note_off_c, 1, 72, 0
1, 536116, Note_off_c, 1, 52, 0
1, 536117, Note_on_c, 1, 56, 127
1, 536117, Note_on_c, 1, 71, 127
1, 536288, Note_off_c, 1, 56, 0
1, 536288, Note_off_c, 1, 71, 0
1, 536290, Note_on_c, 1, 57, 127
1, 536290, Note_on_c, 1, 72, 127
1, 536461, Note_off_c, 1, 57, 0
1, 536461, Note_off_c, 1, 72, 0
1, 536462, Note_on_c, 1, 59, 127
1, 536462, Note_on_c, 1, 74, 127
1, 536633, Note_off_c, 1, 59, 0
1, 536635, Note_on_c, 1, 52, 127
1, 536805, Note_off_c, 1, 74, 0
1, 536806, Note_off_c, 1, 52, 0
1, 536807, Note_on_c, 1, 54, 127
1, 536807, Note_on_c, 1, 72, 127
1, 536978, Note_off_c, 1, 54, 0
1, 536978, Note_off_c, 1, 72, 0
1, 536980, Note_on_c, 1, 56, 127
1, 536980, Note_on_c, 1, 71, 127
1, 537151, Note_off_c, 1, 56, 0
1, 537151, Note_off_c, 1, 71, 0
1, 537152, Note_on_c, 1, 57, 127
1, 537152, Note_on_c, 1, 72, 127
1, 537323, Note_off_c, 1, 57, 0
1, 537325, Note_on_c, 1, 69, 127
1, 537495, Note_off_c, 1, 72, 0
1, 537496, Note_off_c, 1, 69, 0
1, 537497, Note_on_c, 1, 68, 127
1, 537497, Note_on_c, 1, 71, 127
1, 537668, Note_off_c, 1, 68, 0
1, 537668, Note_off_c, 1, 71, 0
1, 537670, Note_on_c, 1, 66, 127
1, 537670, Note_on_c, 1, 69, 127
1, 537841, Note_off_c, 1, 66, 0
1, 537841, Note_off_c, 1, 69, 0
1, 537842, Note_on_c, 1, 64, 127
1, 537842, Note_on_c, 1, 71, 127
1, 538013, Note_off_c, 1, 64, 0
1, 538015, Note_on_c, 1, 62, 127
1, 538185, Note_off_c, 1, 71, 0
1, 538186, Note_off_c, 1, 62, 0
1, 538187, Note_on_c, 1, 60, 127
1, 538187, Note_on_c, 1, 69, 127
1, 538358, Note_off_c, 1, 60, 0
1, 538358, Note_off_c, 1, 69, 0
1, 538360, Note_on_c, 1, 59, 127
1, 538360, Note_on_c, 1, 71, 127
1, 538531, Note_off_c, 1, 59, 0
1, 538531, Note_off_c, 1, 71, 0
1, 538532, Note_on_c, 1, 57, 127
1, 538532, Note_on_c, 1, 72, 127
1, 538703, Note_off_c, 1, 57, 0
1, 538705, Note_on_c, 1, 55, 127
1, 538875, Note_off_c, 1, 72, 0
1, 538876, Note_off_c, 1, 55, 0
1, 538877, Note_on_c, 1, 53, 127
1, 538877, Note_on_c, 1, 71, 127
1, 539048, Note_off_c, 1, 53, 0
1, 539048, Note_off_c, 1, 71, 0
1, 539050, Note_on_c, 1, 52, 127
1, 539050, Note_on_c, 1, 69, 127
1, 539221, Note_off_c, 1, 52, 0
1, 539221, Note_off_c, 1, 69, 0
1, 539222, Note_on_c, 1, 50, 127
1, 539222, Note_on_c, 1, 71, 127
1, 539393, Note_off_c, 1, 50, 0
1, 539395, Note_on_c, 1, 48, 127
1, 539565, Note_off_c, 1, 71, 0
1, 539566, Note_off_c, 1, 48, 0
1, 539567, Note_on_c, 1, 50, 127
1, 539567, Note_on_c, 1, 69, 127
1, 539738, Note_off_c, 1, 50, 0
1, 539738, Note_off_c, 1, 69, 0
1, 539740, Note_on_c, 1, 52, 127
1, 539740, Note_on_c, 1, 68, 127
1, 539911, Note_off_c, 1, 52, 0
1, 539911, Note_off_c, 1, 68, 0
1, 539912, Note_on_c, 1, 53, 127
1, 539912, Note_on_c, 1, 69, 127
1, 540255, Note_off_c, 1, 53, 0
1, 540255, Note_off_c, 1, 69, 0
1, 540257, Note_on_c, 1, 77, 127
1, 540257, Note_on_c, 1, 52, 127
1, 540428, Note_off_c, 1, 77, 0
1, 540430, Note_on_c, 1, 76, 127
1, 540600, Note_off_c, 1, 52, 0
1, 540601, Note_off_c, 1, 76, 0
1, 540602, Note_on_c, 1, 74, 127
1, 540602, Note_on_c, 1, 53, 127
1, 540773, Note_off_c, 1, 74, 0
1, 540775, Note_on_c, 1, 72, 127
1, 540945, Note_off_c, 1, 53, 0
1, 540946, Note_off_c, 1, 72, 0
1, 540947, Note_on_c, 1, 71, 127
1, 540947, Note_on_c, 1, 50, 127
1, 541118, Note_off_c, 1, 71, 0
1, 541120, Note_on_c, 1, 69, 127
1, 541290, Note_off_c, 1, 50, 0
1, 541291, Note_off_c, 1, 69, 0
1, 541292, Note_on_c, 1, 68, 127
1, 541292, Note_on_c, 1, 52, 127
1, 541463, Note_off_c, 1, 68, 0
1, 541465, Note_on_c, 1, 69, 127
1, 541636, Note_off_c, 1, 69, 0
1, 541637, Note_on_c, 1, 71, 127
1, 541808, Note_off_c, 1, 71, 0
1, 541982, Note_on_c, 1, 64, 127
1, 542153, Note_off_c, 1, 52, 0
1, 542155, Note_on_c, 1, 50, 127
1, 542325, Note_off_c, 1, 64, 0
1, 542326, Note_off_c, 1, 50, 0
1, 542327, Note_on_c, 1, 48, 127
1, 542327, Note_on_c, 1, 71, 127
1, 542498, Note_off_c, 1, 48, 0
1, 542500, Note_on_c, 1, 47, 127
1, 542670, Note_off_c, 1, 71, 0
1, 542671, Note_off_c, 1, 47, 0
1, 542672, Note_on_c, 1, 72, 127
1, 542672, Note_on_c, 1, 45, 127
1, 542843, Note_off_c, 1, 72, 0
1, 542845, Note_on_c, 1, 74, 127
1, 543015, Note_off_c, 1, 45, 0
1, 543016, Note_off_c, 1, 74, 0
1, 543017, Note_on_c, 1, 76, 127
1, 543017, Note_on_c, 1, 57, 127
1, 543188, Note_off_c, 1, 76, 0
1, 543190, Note_on_c, 1, 69, 127
1, 543361, Note_off_c, 1, 69, 0
1, 543362, Note_on_c, 1, 73, 127
1, 543533, Note_off_c, 1, 73, 0
1, 543535, Note_on_c, 1, 74, 127
1, 543705, Note_off_c, 1, 57, 0
1, 543706, Note_off_c, 1, 74, 0
1, 543707, Note_on_c, 1, 76, 127
1, 543707, Note_on_c, 1, 55, 127
1, 543878, Note_off_c, 1, 76, 0
1, 543880, Note_on_c, 1, 69, 127
1, 544050, Note_off_c, 1, 55, 0
1, 544051, Note_off_c, 1, 69, 0
1, 544052, Note_on_c, 1, 74, 127
1, 544052, Note_on_c, 1, 53, 127
1, 544223, Note_off_c, 1, 74, 0
1, 544225, Note_on_c, 1, 76, 127
1, 544395, Note_off_c, 1, 53, 0
1, 544396, Note_off_c, 1, 76, 0
1, 544397, Note_on_c, 1, 77, 127
1, 544397, Note_on_c, 1, 50, 127
1, 544568, Note_off_c, 1, 77, 0
1, 544570, Note_on_c, 1, 69, 127
1, 544740, Note_off_c, 1, 50, 0
1, 544741, Note_off_c, 1, 69, 0
1, 544742, Note_on_c, 1, 75, 127
1, 544742, Note_on_c, 1, 59, 127
1, 544913, Note_off_c, 1, 75, 0
1, 544915, Note_on_c, 1, 76, 127
1, 545085, Note_off_c, 1, 59, 0
1, 545086, Note_off_c, 1, 76, 0
1, 545087, Note_on_c, 1, 78, 127
1, 545087, Note_on_c, 1, 57, 127
1, 545258, Note_off_c, 1, 78, 0
1, 545260, Note_on_c, 1, 69, 127
1, 545430, Note_off_c, 1, 57, 0
1, 545431, Note_off_c, 1, 69, 0
1, 545432, Note_on_c, 1, 76, 127
1, 545432, Note_on_c, 1, 55, 127
1, 545603, Note_off_c, 1, 76, 0
1, 545605, Note_on_c, 1, 78, 127
1, 545775, Note_off_c, 1, 55, 0
1, 545776, Note_off_c, 1, 78, 0
1, 545777, Note_on_c, 1, 79, 127
1, 545777, Note_on_c, 1, 52, 127
1, 545948, Note_off_c, 1, 79, 0
1, 545950, Note_on_c, 1, 71, 127
1, 546120, Note_off_c, 1, 52, 0
1, 546121, Note_off_c, 1, 71, 0
1, 546122, Note_on_c, 1, 76, 127
1, 546122, Note_on_c, 1, 64, 127
1, 546293, Note_off_c, 1, 76, 0
1, 546295, Note_on_c, 1, 78, 127
1, 546466, Note_off_c, 1, 78, 0
1, 546467, Note_on_c, 1, 80, 127
1, 546638, Note_off_c, 1, 80, 0
1, 546640, Note_on_c, 1, 71, 127
1, 546811, Note_off_c, 1, 71, 0
1, 546812, Note_on_c, 1, 77, 127
1, 546983, Note_off_c, 1, 77, 0
1, 546985, Note_on_c, 1, 79, 127
1, 547155, Note_off_c, 1, 64, 0
1, 547156, Note_off_c, 1, 79, 0
1, 547157, Note_on_c, 1, 62, 127
1, 547157, Note_on_c, 1, 81, 127
1, 547328, Note_off_c, 1, 62, 0
1, 547328, Note_off_c, 1, 81, 0
1, 547330, Note_on_c, 1, 60, 127
1, 547330, Note_on_c, 1, 72, 127
1, 547501, Note_off_c, 1, 60, 0
1, 547501, Note_off_c, 1, 72, 0
1, 547502, Note_on_c, 1, 62, 127
1, 547502, Note_on_c, 1, 78, 127
1, 547673, Note_off_c, 1, 62, 0
1, 547673, Note_off_c, 1, 78, 0
1, 547675, Note_on_c, 1, 59, 127
1, 547675, Note_on_c, 1, 79, 127
1, 547846, Note_off_c, 1, 59, 0
1, 547846, Note_off_c, 1, 79, 0
1, 547847, Note_on_c, 1, 60, 127
1, 547847, Note_on_c, 1, 81, 127
1, 548018, Note_off_c, 1, 60, 0
1, 548018, Note_off_c, 1, 81, 0
1, 548020, Note_on_c, 1, 57, 127
1, 548020, Note_on_c, 1, 72, 127
1, 548191, Note_off_c, 1, 57, 0
1, 548191, Note_off_c, 1, 72, 0
1, 548192, Note_on_c, 1, 79, 127
1, 548192, Note_on_c, 1, 59, 127
1, 548363, Note_off_c, 1, 79, 0
1, 548365, Note_on_c, 1, 81, 127
1, 548535, Note_off_c, 1, 59, 0
1, 548536, Note_off_c, 1, 81, 0
1, 548537, Note_on_c, 1, 83, 127
1, 548537, Note_on_c, 1, 65, 127
1, 548708, Note_off_c, 1, 83, 0
1, 548710, Note_on_c, 1, 74, 127
1, 548880, Note_off_c, 1, 65, 0
1, 548881, Note_off_c, 1, 74, 0
1, 548882, Note_on_c, 1, 80, 127
1, 548882, Note_on_c, 1, 64, 127
1, 549053, Note_off_c, 1, 80, 0
1, 549055, Note_on_c, 1, 81, 127
1, 549225, Note_off_c, 1, 64, 0
1, 549226, Note_off_c, 1, 81, 0
1, 549227, Note_on_c, 1, 83, 127
1, 549227, Note_on_c, 1, 62, 127
1, 549398, Note_off_c, 1, 83, 0
1, 549400, Note_on_c, 1, 76, 127
1, 549570, Note_off_c, 1, 62, 0
1, 549571, Note_off_c, 1, 76, 0
1, 549572, Note_on_c, 1, 60, 127
1, 549572, Note_on_c, 1, 81, 127
1, 549743, Note_off_c, 1, 60, 0
1, 549743, Note_off_c, 1, 81, 0
1, 549745, Note_on_c, 1, 59, 127
1, 549745, Note_on_c, 1, 83, 127
1, 549916, Note_off_c, 1, 59, 0
1, 549916, Note_off_c, 1, 83, 0
1, 549917, Note_on_c, 1, 57, 127
1, 549917, Note_on_c, 1, 84, 127
1, 550088, Note_off_c, 1, 57, 0
1, 550088, Note_off_c, 1, 84, 0
1, 550090, Note_on_c, 1, 59, 127
1, 550090, Note_on_c, 1, 80, 127
1, 550261, Note_off_c, 1, 59, 0
1, 550261, Note_off_c, 1, 80, 0
1, 550262, Note_on_c, 1, 60, 127
1, 550262, Note_on_c, 1, 81, 127
1, 550433, Note_off_c, 1, 60, 0
1, 550433, Note_off_c, 1, 81, 0
1, 550435, Note_on_c, 1, 57, 127
1, 550435, Note_on_c, 1, 76, 127
1, 550606, Note_off_c, 1, 57, 0
1, 550606, Note_off_c, 1, 76, 0
1, 550607, Note_on_c, 1, 62, 127
1, 550607, Note_on_c, 1, 77, 127
1, 550778, Note_off_c, 1, 62, 0
1, 550778, Note_off_c, 1, 77, 0
1, 550780, Note_on_c, 1, 59, 127
1, 550780, Note_on_c, 1, 74, 127
1, 550951, Note_off_c, 1, 59, 0
1, 550951, Note_off_c, 1, 74, 0
1, 550952, Note_on_c, 1, 76, 127
1, 550952, Note_on_c, 1, 60, 127
1, 551036, Note_off_c, 1, 76, 0
1, 551038, Note_on_c, 1, 74, 127
1, 551121, Note_off_c, 1, 60, 0
1, 551122, Note_off_c, 1, 74, 0
1, 551123, Note_on_c, 1, 56, 127
1, 551123, Note_on_c, 1, 76, 127
1, 551294, Note_off_c, 1, 56, 0
1, 551296, Note_on_c, 1, 57, 127
1, 551466, Note_off_c, 1, 76, 0
1, 551467, Note_off_c, 1, 57, 0
1, 551468, Note_on_c, 1, 50, 127
1, 551468, Note_on_c, 1, 77, 127
1, 551639, Note_off_c, 1, 50, 0
1, 551639, Note_off_c, 1, 77, 0
1, 551641, Note_on_c, 1, 72, 127
1, 551641, Note_on_c, 1, 52, 127
1, 551725, Note_off_c, 1, 72, 0
1, 551726, Note_on_c, 1, 71, 127
1, 551810, Note_off_c, 1, 71, 0
1, 551981, Note_off_c, 1, 52, 0
1, 551983, Note_on_c, 1, 40, 127
1, 552155, Note_on_c, 1, 69, 127
1, 552326, Note_off_c, 1, 40, 0
1, 552326, Note_off_c, 1, 69, 0
1, 552328, Note_on_c, 1, 45, 127
1, 552328, Note_on_c, 1, 69, 127
1, 552673, Note_on_c, 1, 52, 127
1, 553016, Note_off_c, 1, 52, 0
1, 553018, Note_on_c, 1, 57, 127
1, 553358, Note_off_c, 1, 57, 0
1, 553366, Note_on_c, 1, 64, 127
1, 553366, Note_on_c, 1, 61, 127
1, 553703, Note_off_c, 1, 45, 0
1, 553706, Note_off_c, 1, 69, 0
1, 553712, Note_off_c, 1, 64, 0
1, 553712, Note_off_c, 1, 61, 0
1, 553714, Note_on_c, 1, 64, 127
1, 553714, Note_on_c, 1, 61, 127
1, 553714, Note_on_c, 1, 57, 127
1, 554060, Note_off_c, 1, 64, 0
1, 554060, Note_off_c, 1, 61, 0
1, 554062, Note_on_c, 1, 66, 127
1, 554062, Note_on_c, 1, 62, 127
1, 554408, Note_off_c, 1, 66, 0
1, 554408, Note_off_c, 1, 62, 0
1, 554411, Note_on_c, 1, 67, 127
1, 554583, Note_off_c, 1, 67, 0
1, 554933, Note_on_c, 1, 59, 127
1, 555105, Note_off_c, 1, 59, 0
1, 555456, Note_on_c, 1, 69, 127
1, 555628, Note_off_c, 1, 69, 0
1, 555630, Note_on_c, 1, 68, 127
1, 555802, Note_off_c, 1, 68, 0
1, 556495, Note_off_c, 1, 57, 0
1, 557199, Note_on_c, 1, 56, 127
1, 557545, Note_off_c, 1, 56, 0
1, 557547, Note_on_c, 1, 52, 127
1, 557893, Note_off_c, 1, 52, 0
1, 557895, Note_on_c, 1, 62, 127
1, 557895, Note_on_c, 1, 57, 127
1, 558067, Note_off_c, 1, 62, 0
1, 558069, Note_on_c, 1, 61, 127
1, 558241, Note_off_c, 1, 61, 0
1, 558244, Note_on_c, 1, 59, 127
1, 558244, Note_on_c, 1, 52, 127
1, 558416, Note_off_c, 1, 59, 0
1, 558557, Note_off_c, 1, 57, 0
1, 558590, Note_off_c, 1, 52, 0
1, 558592, Note_on_c, 1, 57, 127
1, 558592, Note_on_c, 1, 49, 127
1, 558938, Note_off_c, 1, 57, 0
1, 558938, Note_off_c, 1, 49, 0
1, 558941, Note_on_c, 1, 64, 127
1, 558941, Note_on_c, 1, 61, 127
1, 558941, Note_on_c, 1, 57, 127
1, 558941, Note_on_c, 1, 52, 127
1, 559241, Note_off_c, 1, 64, 0
1, 559241, Note_off_c, 1, 61, 0
1, 559287, Note_off_c, 1, 57, 0
1, 559287, Note_off_c, 1, 52, 0
1, 559289, Note_on_c, 1, 64, 127
1, 559289, Note_on_c, 1, 61, 127
1, 559289, Note_on_c, 1, 57, 127
1, 559635, Note_off_c, 1, 64, 0
1, 559635, Note_off_c, 1, 61, 0
1, 559638, Note_on_c, 1, 66, 127
1, 559638, Note_on_c, 1, 62, 127
1, 559984, Note_off_c, 1, 66, 0
1, 559984, Note_off_c, 1, 62, 0
1, 559986, Note_on_c, 1, 67, 127
1, 560158, Note_off_c, 1, 67, 0
1, 560508, Note_on_c, 1, 59, 127
1, 560680, Note_off_c, 1, 59, 0
1, 561031, Note_off_c, 1, 57, 0
1, 561031, Note_on_c, 1, 69, 127
1, 561031, Note_on_c, 1, 56, 127
1, 561203, Note_off_c, 1, 69, 0
1, 561205, Note_on_c, 1, 68, 127
1, 561377, Note_off_c, 1, 56, 0
1, 561377, Note_off_c, 1, 68, 0
1, 561380, Note_on_c, 1, 54, 127
1, 561554, Note_on_c, 1, 73, 127
1, 561726, Note_off_c, 1, 54, 0
1, 561726, Note_off_c, 1, 73, 0
1, 561728, Note_on_c, 1, 63, 127
1, 561728, Note_on_c, 1, 71, 127
1, 561728, Note_on_c, 1, 57, 127
1, 562074, Note_off_c, 1, 63, 0
1, 562074, Note_off_c, 1, 71, 0
1, 562074, Note_off_c, 1, 57, 0
1, 562077, Note_on_c, 1, 57, 127
1, 562077, Note_on_c, 1, 71, 127
1, 562077, Note_on_c, 1, 64, 127
1, 562249, Note_off_c, 1, 57, 0
1, 562251, Note_on_c, 1, 56, 127
1, 562423, Note_off_c, 1, 56, 0
1, 562425, Note_on_c, 1, 54, 127
1, 562597, Note_off_c, 1, 54, 0
1, 562599, Note_on_c, 1, 52, 127
1, 562771, Note_off_c, 1, 71, 0
1, 562771, Note_off_c, 1, 52, 0
1, 562774, Note_on_c, 1, 69, 127
1, 562774, Note_on_c, 1, 59, 127
1, 562946, Note_off_c, 1, 69, 0
1, 562947, Note_on_c, 1, 68, 127
1, 563119, Note_off_c, 1, 68, 0
1, 563120, Note_off_c, 1, 64, 0
1, 563120, Note_off_c, 1, 59, 0
1, 563122, Note_on_c, 1, 63, 127
1, 563122, Note_on_c, 1, 66, 127
1, 563122, Note_on_c, 1, 47, 127
1, 563294, Note_off_c, 1, 63, 0
1, 563294, Note_off_c, 1, 66, 0
1, 563296, Note_on_c, 1, 64, 127
1, 563468, Note_off_c, 1, 47, 0
1, 563468, Note_off_c, 1, 64, 0
1, 563471, Note_on_c, 1, 52, 127
1, 563471, Note_on_c, 1, 64, 127
1, 563817, Note_off_c, 1, 52, 0
1, 563819, Note_on_c, 1, 47, 127
1, 564165, Note_off_c, 1, 47, 0
1, 564168, Note_on_c, 1, 40, 127
1, 564514, Note_off_c, 1, 64, 0
1, 564514, Note_off_c, 1, 40, 0
1, 564516, Note_on_c, 1, 68, 127
1, 564516, Note_on_c, 1, 59, 127
1, 564516, Note_on_c, 1, 52, 127
1, 564862, Note_off_c, 1, 68, 0
1, 564862, Note_off_c, 1, 59, 0
1, 564862, Note_off_c, 1, 52, 0
1, 564864, Note_on_c, 1, 68, 127
1, 564864, Note_on_c, 1, 59, 127
1, 564864, Note_on_c, 1, 52, 127
1, 565210, Note_off_c, 1, 68, 0
1, 565210, Note_off_c, 1, 59, 0
1, 565213, Note_on_c, 1, 69, 127
1, 565213, Note_on_c, 1, 61, 127
1, 565559, Note_off_c, 1, 69, 0
1, 565559, Note_off_c, 1, 61, 0
1, 565561, Note_on_c, 1, 71, 127
1, 565561, Note_on_c, 1, 62, 127
1, 565733, Note_off_c, 1, 71, 0
1, 565733, Note_off_c, 1, 62, 0
1, 566083, Note_on_c, 1, 66, 127
1, 566083, Note_on_c, 1, 57, 127
1, 566255, Note_off_c, 1, 66, 0
1, 566255, Note_off_c, 1, 57, 0
1, 566955, Note_on_c, 1, 64, 127
1, 566955, Note_on_c, 1, 56, 127
1, 567297, Note_off_c, 1, 52, 0
1, 567303, Note_off_c, 1, 64, 0
1, 567303, Note_off_c, 1, 56, 0
1, 567305, Note_on_c, 1, 69, 127
1, 567305, Note_on_c, 1, 64, 127
1, 567305, Note_on_c, 1, 49, 127
1, 567651, Note_off_c, 1, 69, 0
1, 567651, Note_off_c, 1, 64, 0
1, 567651, Note_off_c, 1, 49, 0
1, 567653, Note_on_c, 1, 66, 127
1, 567653, Note_on_c, 1, 50, 127
1, 567653, Note_on_c, 1, 57, 127
1, 567825, Note_off_c, 1, 66, 0
1, 567828, Note_on_c, 1, 65, 127
1, 567999, Note_off_c, 1, 50, 0
1, 568000, Note_off_c, 1, 65, 0
1, 568001, Note_on_c, 1, 49, 127
1, 568176, Note_on_c, 1, 69, 127
1, 568347, Note_off_c, 1, 49, 0
1, 568348, Note_off_c, 1, 69, 0
1, 568349, Note_off_c, 1, 57, 0
1, 568352, Note_on_c, 1, 68, 127
1, 568352, Note_on_c, 1, 59, 127
1, 568352, Note_on_c, 1, 47, 127
1, 568524, Note_off_c, 1, 68, 0
1, 568526, Note_on_c, 1, 69, 127
1, 568698, Note_off_c, 1, 59, 0
1, 568698, Note_off_c, 1, 47, 0
1, 568698, Note_off_c, 1, 69, 0
1, 568700, Note_on_c, 1, 71, 127
1, 568700, Note_on_c, 1, 50, 127
1, 568700, Note_on_c, 1, 54, 127
1, 568872, Note_off_c, 1, 71, 0
1, 568874, Note_on_c, 1, 66, 127
1, 569046, Note_off_c, 1, 50, 0
1, 569046, Note_off_c, 1, 54, 0
1, 569046, Note_off_c, 1, 66, 0
1, 569049, Note_on_c, 1, 68, 127
1, 569049, Note_on_c, 1, 53, 127
1, 569049, Note_on_c, 1, 49, 127
1, 569221, Note_off_c, 1, 68, 0
1, 569223, Note_on_c, 1, 65, 127
1, 569395, Note_off_c, 1, 53, 0
1, 569395, Note_off_c, 1, 65, 0
1, 569397, Note_on_c, 1, 66, 127
1, 569397, Note_on_c, 1, 57, 127
1, 569569, Note_off_c, 1, 66, 0
1, 569571, Note_on_c, 1, 63, 127
1, 569743, Note_off_c, 1, 57, 0
1, 569743, Note_off_c, 1, 63, 0
1, 569746, Note_on_c, 1, 56, 127
1, 569919, Note_on_c, 1, 61, 127
1, 570091, Note_off_c, 1, 61, 0
1, 570092, Note_off_c, 1, 49, 0
1, 570092, Note_off_c, 1, 56, 0
1, 570094, Note_on_c, 1, 73, 127
1, 570094, Note_on_c, 1, 59, 127
1, 570094, Note_on_c, 1, 56, 127
1, 570094, Note_on_c, 1, 53, 127
1, 570094, Note_on_c, 1, 49, 127
1, 570440, Note_off_c, 1, 73, 0
1, 570440, Note_off_c, 1, 59, 0
1, 570440, Note_off_c, 1, 56, 0
1, 570440, Note_off_c, 1, 53, 0
1, 570440, Note_off_c, 1, 49, 0
1, 570443, Note_on_c, 1, 73, 127
1, 570443, Note_on_c, 1, 58, 127
1, 570443, Note_on_c, 1, 54, 127
1, 570615, Note_off_c, 1, 73, 0
1, 570616, Note_on_c, 1, 74, 127
1, 570788, Note_off_c, 1, 74, 0
1, 570789, Note_off_c, 1, 58, 0
1, 570791, Note_on_c, 1, 76, 127
1, 570791, Note_on_c, 1, 61, 127
1, 570963, Note_off_c, 1, 76, 0
1, 571137, Note_off_c, 1, 61, 0
1, 571140, Note_on_c, 1, 59, 127
1, 571313, Note_on_c, 1, 71, 127
1, 571485, Note_off_c, 1, 71, 0
1, 571486, Note_off_c, 1, 59, 0
1, 571488, Note_on_c, 1, 64, 127
1, 571662, Note_on_c, 1, 70, 127
1, 571834, Note_off_c, 1, 64, 0
1, 571834, Note_off_c, 1, 70, 0
1, 571836, Note_on_c, 1, 62, 127
1, 572182, Note_off_c, 1, 62, 0
1, 572533, Note_on_c, 1, 57, 127
1, 572707, Note_on_c, 1, 69, 127
1, 572879, Note_off_c, 1, 57, 0
1, 572879, Note_off_c, 1, 69, 0
1, 572882, Note_on_c, 1, 56, 127
1, 573056, Note_on_c, 1, 68, 127
1, 573228, Note_off_c, 1, 56, 0
1, 573228, Note_off_c, 1, 68, 0
1, 573579, Note_on_c, 1, 47, 127
1, 573582, Note_off_c, 1, 54, 0
1, 573925, Note_off_c, 1, 47, 0
1, 573927, Note_on_c, 1, 71, 127
1, 573927, Note_on_c, 1, 54, 127
1, 573927, Note_on_c, 1, 49, 127
1, 574099, Note_off_c, 1, 71, 0
1, 574101, Note_on_c, 1, 69, 127
1, 574273, Note_off_c, 1, 54, 0
1, 574273, Note_off_c, 1, 69, 0
1, 574276, Note_on_c, 1, 68, 127
1, 574276, Note_on_c, 1, 53, 127
1, 574448, Note_off_c, 1, 68, 0
1, 574622, Note_off_c, 1, 53, 0
1, 574623, Note_off_c, 1, 49, 0
1, 574625, Note_on_c, 1, 54, 127
1, 574625, Note_on_c, 1, 68, 127
1, 574797, Note_off_c, 1, 54, 0
1, 574800, Note_on_c, 1, 50, 127
1, 574971, Note_off_c, 1, 68, 0
1, 574972, Note_off_c, 1, 50, 0
1, 574974, Note_on_c, 1, 49, 127
1, 574974, Note_on_c, 1, 66, 127
1, 575146, Note_off_c, 1, 49, 0
1, 575148, Note_on_c, 1, 47, 127
1, 575320, Note_off_c, 1, 47, 0
1, 575322, Note_on_c, 1, 45, 127
1, 575494, Note_off_c, 1, 45, 0
1, 575497, Note_on_c, 1, 44, 127
1, 575668, Note_off_c, 1, 66, 0
1, 575669, Note_off_c, 1, 44, 0
1, 575670, Note_on_c, 1, 54, 127
1, 575670, Note_on_c, 1, 45, 127
1, 575670, Note_on_c, 1, 61, 127
1, 575670, Note_on_c, 1, 69, 127
1, 575842, Note_off_c, 1, 54, 0
1, 575842, Note_off_c, 1, 45, 0
1, 575845, Note_on_c, 1, 42, 127
1, 576016, Note_off_c, 1, 61, 0
1, 576016, Note_off_c, 1, 69, 0
1, 576017, Note_off_c, 1, 42, 0
1, 576019, Note_on_c, 1, 59, 127
1, 576019, Note_on_c, 1, 51, 127
1, 576019, Note_on_c, 1, 69, 127
1, 576019, Note_on_c, 1, 47, 127
1, 576365, Note_off_c, 1, 59, 0
1, 576365, Note_off_c, 1, 51, 0
1, 576367, Note_on_c, 1, 63, 127
1, 576367, Note_on_c, 1, 54, 127
1, 576539, Note_off_c, 1, 63, 0
1, 576539, Note_off_c, 1, 54, 0
1, 576542, Note_on_c, 1, 61, 127
1, 576542, Note_on_c, 1, 52, 127
1, 576714, Note_off_c, 1, 61, 0
1, 576714, Note_off_c, 1, 52, 0
1, 577062, Note_off_c, 1, 69, 0
1, 577062, Note_off_c, 1, 47, 0
1, 577064, Note_on_c, 1, 69, 127
1, 577064, Note_on_c, 1, 63, 127
1, 577064, Note_on_c, 1, 47, 127
1, 577064, Note_on_c, 1, 54, 127
1, 577410, Note_off_c, 1, 69, 0
1, 577410, Note_off_c, 1, 63, 0
1, 577410, Note_off_c, 1, 47, 0
1, 577410, Note_off_c, 1, 54, 0
1, 577413, Note_on_c, 1, 69, 127
1, 577413, Note_on_c, 1, 64, 127
1, 577413, Note_on_c, 1, 52, 127
1, 577413, Note_on_c, 1, 40, 127
1, 577585, Note_off_c, 1, 69, 0
1, 577587, Note_on_c, 1, 68, 127
1, 577759, Note_off_c, 1, 68, 0
1, 577936, Note_on_c, 1, 66, 127
1, 578108, Note_off_c, 1, 66, 0
1, 578271, Note_off_c, 1, 64, 0
1, 578456, Note_off_c, 1, 52, 0
1, 578456, Note_off_c, 1, 40, 0
1, 578458, Note_on_c, 1, 67, 127
1, 578458, Note_on_c, 1, 59, 127
1, 578458, Note_on_c, 1, 52, 127
1, 578458, Note_on_c, 1, 40, 127
1, 578804, Note_off_c, 1, 67, 0
1, 578804, Note_off_c, 1, 59, 0
1, 578804, Note_off_c, 1, 52, 0
1, 578804, Note_off_c, 1, 40, 0
1, 578806, Note_on_c, 1, 57, 127
1, 578806, Note_on_c, 1, 49, 127
1, 578806, Note_on_c, 1, 67, 127
1, 578806, Note_on_c, 1, 45, 127
1, 579152, Note_off_c, 1, 57, 0
1, 579152, Note_off_c, 1, 49, 0
1, 579155, Note_on_c, 1, 61, 127
1, 579155, Note_on_c, 1, 52, 127
1, 579327, Note_off_c, 1, 61, 0
1, 579327, Note_off_c, 1, 52, 0
1, 579330, Note_on_c, 1, 59, 127
1, 579330, Note_on_c, 1, 50, 127
1, 579502, Note_off_c, 1, 59, 0
1, 579502, Note_off_c, 1, 50, 0
1, 579849, Note_off_c, 1, 67, 0
1, 579849, Note_off_c, 1, 45, 0
1, 579852, Note_on_c, 1, 67, 127
1, 579852, Note_on_c, 1, 61, 127
1, 579852, Note_on_c, 1, 52, 127
1, 579852, Note_on_c, 1, 45, 127
1, 580198, Note_off_c, 1, 67, 0
1, 580198, Note_off_c, 1, 61, 0
1, 580198, Note_off_c, 1, 52, 0
1, 580198, Note_off_c, 1, 45, 0
1, 580200, Note_on_c, 1, 67, 127
1, 580200, Note_on_c, 1, 62, 127
1, 580200, Note_on_c, 1, 50, 127
1, 580200, Note_on_c, 1, 38, 127
1, 580372, Note_off_c, 1, 67, 0
1, 580375, Note_on_c, 1, 66, 127
1, 580547, Note_off_c, 1, 66, 0
1, 580723, Note_on_c, 1, 64, 127
1, 580895, Note_off_c, 1, 64, 0
1, 581054, Note_off_c, 1, 62, 0
1, 581243, Note_off_c, 1, 50, 0
1, 581243, Note_off_c, 1, 38, 0
1, 581246, Note_on_c, 1, 71, 127
1, 581246, Note_on_c, 1, 62, 127
1, 581246, Note_on_c, 1, 54, 127
1, 581246, Note_on_c, 1, 50, 127
1, 581592, Note_off_c, 1, 71, 0
1, 581592, Note_off_c, 1, 62, 0
1, 581592, Note_off_c, 1, 54, 0
1, 581592, Note_off_c, 1, 50, 0
1, 581594, Note_on_c, 1, 71, 127
1, 581594, Note_on_c, 1, 62, 127
1, 581594, Note_on_c, 1, 52, 127
1, 581594, Note_on_c, 1, 44, 127
1, 581940, Note_off_c, 1, 71, 0
1, 581940, Note_off_c, 1, 62, 0
1, 581943, Note_on_c, 1, 73, 127
1, 581943, Note_on_c, 1, 64, 127
1, 582288, Note_off_c, 1, 52, 0
1, 582288, Note_off_c, 1, 44, 0
1, 582289, Note_off_c, 1, 73, 0
1, 582289, Note_off_c, 1, 64, 0
1, 582291, Note_on_c, 1, 74, 127
1, 582291, Note_on_c, 1, 52, 127
1, 582291, Note_on_c, 1, 64, 127
1, 582291, Note_on_c, 1, 45, 127
1, 582463, Note_off_c, 1, 74, 0
1, 582466, Note_on_c, 1, 73, 127
1, 582637, Note_off_c, 1, 52, 0
1, 582638, Note_off_c, 1, 73, 0
1, 582639, Note_on_c, 1, 71, 127
1, 582639, Note_on_c, 1, 54, 127
1, 582811, Note_off_c, 1, 71, 0
1, 582814, Note_on_c, 1, 69, 127
1, 582985, Note_off_c, 1, 54, 0
1, 582986, Note_off_c, 1, 69, 0
1, 582987, Note_off_c, 1, 64, 0
1, 582987, Note_off_c, 1, 45, 0
1, 582990, Note_on_c, 1, 71, 127
1, 582990, Note_on_c, 1, 50, 127
1, 582990, Note_on_c, 1, 64, 127
1, 582990, Note_on_c, 1, 56, 127
1, 583336, Note_off_c, 1, 71, 0
1, 583338, Note_on_c, 1, 76, 127
1, 583510, Note_off_c, 1, 76, 0
1, 583522, Note_on_c, 1, 74, 127
1, 583694, Note_off_c, 1, 74, 0
1, 584051, Note_off_c, 1, 50, 0
1, 584054, Note_off_c, 1, 64, 0
1, 584054, Note_off_c, 1, 56, 0
1, 584076, Note_on_c, 1, 59, 127
1, 584076, Note_on_c, 1, 50, 127
1, 584076, Note_on_c, 1, 68, 127
1, 584076, Note_on_c, 1, 64, 127
1, 584422, Note_off_c, 1, 59, 0
1, 584422, Note_off_c, 1, 50, 0
1, 584422, Note_off_c, 1, 68, 0
1, 584422, Note_off_c, 1, 64, 0
1, 584424, Note_on_c, 1, 49, 127
1, 584424, Note_on_c, 1, 69, 127
1, 584424, Note_on_c, 1, 64, 127
1, 584424, Note_on_c, 1, 57, 127
1, 584790, Note_off_c, 1, 49, 0
1, 584792, Note_on_c, 1, 50, 127
1, 584973, Note_off_c, 1, 69, 0
1, 584973, Note_off_c, 1, 64, 0
1, 584976, Note_on_c, 1, 71, 127
1, 585156, Note_off_c, 1, 50, 0
1, 585157, Note_off_c, 1, 71, 0
1, 585158, Note_off_c, 1, 57, 0
1, 585160, Note_on_c, 1, 73, 127
1, 585160, Note_on_c, 1, 68, 127
1, 585160, Note_on_c, 1, 52, 127
1, 585250, Note_off_c, 1, 73, 0
1, 585252, Note_on_c, 1, 71, 127
1, 585342, Note_off_c, 1, 71, 0
1, 585530, Note_on_c, 1, 40, 127
1, 585714, Note_off_c, 1, 68, 0
1, 585716, Note_on_c, 1, 69, 127
1, 585897, Note_off_c, 1, 40, 0
1, 585897, Note_off_c, 1, 69, 0
1, 585899, Note_off_c, 1, 52, 0
1, 585901, Note_on_c, 1, 45, 127
1, 585901, Note_on_c, 1, 69, 127
1, 586119, Note_on_c, 1, 64, 127
1, 586334, Note_off_c, 1, 64, 0
1, 586336, Note_on_c, 1, 61, 127
1, 586604, Note_on_c, 1, 52, 127
1, 586934, Note_off_c, 1, 52, 0
1, 586937, Note_on_c, 1, 57, 127
1, 588729, Note_off_c, 1, 45, 0
1, 588729, Note_off_c, 1, 69, 0
1, 588746, Note_off_c, 1, 61, 0
1, 589415, Note_off_c, 1, 57, 0
1, 589509, Note_on_c, 1, 69, 127
1, 589509, Note_on_c, 1, 45, 127
1, 589842, Note_off_c, 1, 69, 0
1, 590010, Note_off_c, 1, 45, 0
1, 590013, Note_on_c, 1, 69, 127
1, 590013, Note_on_c, 1, 57, 127
1, 590178, Note_off_c, 1, 69, 0
1, 590182, Note_on_c, 1, 71, 127
1, 590347, Note_off_c, 1, 71, 0
1, 590351, Note_on_c, 1, 72, 127
1, 590516, Note_off_c, 1, 72, 0
1, 590687, Note_on_c, 1, 62, 127
1, 590852, Note_off_c, 1, 62, 0
1, 591020, Note_off_c, 1, 57, 0
1, 591023, Note_on_c, 1, 64, 127
1, 591023, Note_on_c, 1, 56, 127
1, 591188, Note_off_c, 1, 64, 0
1, 591192, Note_on_c, 1, 65, 127
1, 591357, Note_off_c, 1, 65, 0
1, 591361, Note_on_c, 1, 62, 127
1, 591525, Note_off_c, 1, 56, 0
1, 591526, Note_off_c, 1, 62, 0
1, 591528, Note_on_c, 1, 60, 127
1, 591528, Note_on_c, 1, 57, 127
1, 591693, Note_off_c, 1, 60, 0
1, 591697, Note_on_c, 1, 64, 127
1, 591862, Note_off_c, 1, 64, 0
1, 591866, Note_on_c, 1, 69, 127
1, 592030, Note_off_c, 1, 57, 0
1, 592031, Note_off_c, 1, 69, 0
1, 592033, Note_on_c, 1, 62, 127
1, 592033, Note_on_c, 1, 53, 127
1, 592198, Note_off_c, 1, 62, 0
1, 592202, Note_on_c, 1, 71, 127
1, 592367, Note_off_c, 1, 71, 0
1, 592371, Note_on_c, 1, 69, 127
1, 592535, Note_off_c, 1, 53, 0
1, 592536, Note_off_c, 1, 69, 0
1, 592538, Note_on_c, 1, 68, 127
1, 592538, Note_on_c, 1, 52, 127
1, 592703, Note_off_c, 1, 68, 0
1, 592707, Note_on_c, 1, 69, 127
1, 592872, Note_off_c, 1, 69, 0
1, 592876, Note_on_c, 1, 71, 127
1, 593041, Note_off_c, 1, 71, 0
1, 593043, Note_on_c, 1, 64, 127
1, 593208, Note_off_c, 1, 52, 0
1, 593208, Note_off_c, 1, 64, 0
1, 593212, Note_on_c, 1, 76, 127
1, 593212, Note_on_c, 1, 54, 127
1, 593377, Note_off_c, 1, 76, 0
1, 593377, Note_off_c, 1, 54, 0
1, 593381, Note_on_c, 1, 74, 127
1, 593381, Note_on_c, 1, 56, 127
1, 593546, Note_off_c, 1, 74, 0
1, 593546, Note_off_c, 1, 56, 0
1, 593548, Note_on_c, 1, 72, 127
1, 593548, Note_on_c, 1, 57, 127
1, 593713, Note_off_c, 1, 72, 0
1, 593713, Note_off_c, 1, 57, 0
1, 593717, Note_on_c, 1, 74, 127
1, 593717, Note_on_c, 1, 59, 127
1, 593882, Note_off_c, 1, 74, 0
1, 593882, Note_off_c, 1, 59, 0
1, 593886, Note_on_c, 1, 76, 127
1, 593886, Note_on_c, 1, 60, 127
1, 594051, Note_off_c, 1, 76, 0
1, 594051, Note_off_c, 1, 60, 0
1, 594053, Note_on_c, 1, 69, 127
1, 594053, Note_on_c, 1, 53, 127
1, 594218, Note_off_c, 1, 69, 0
1, 594218, Note_off_c, 1, 53, 0
1, 594222, Note_on_c, 1, 77, 127
1, 594222, Note_on_c, 1, 55, 127
1, 594387, Note_off_c, 1, 77, 0
1, 594387, Note_off_c, 1, 55, 0
1, 594391, Note_on_c, 1, 76, 127
1, 594391, Note_on_c, 1, 57, 127
1, 594556, Note_off_c, 1, 76, 0
1, 594556, Note_off_c, 1, 57, 0
1, 594558, Note_on_c, 1, 74, 127
1, 594558, Note_on_c, 1, 59, 127
1, 594723, Note_off_c, 1, 74, 0
1, 594723, Note_off_c, 1, 59, 0
1, 594727, Note_on_c, 1, 76, 127
1, 594727, Note_on_c, 1, 60, 127
1, 594892, Note_off_c, 1, 76, 0
1, 594892, Note_off_c, 1, 60, 0
1, 594896, Note_on_c, 1, 77, 127
1, 594896, Note_on_c, 1, 62, 127
1, 595061, Note_off_c, 1, 77, 0
1, 595061, Note_off_c, 1, 62, 0
1, 595063, Note_on_c, 1, 71, 127
1, 595063, Note_on_c, 1, 55, 127
1, 595228, Note_off_c, 1, 71, 0
1, 595228, Note_off_c, 1, 55, 0
1, 595232, Note_on_c, 1, 79, 127
1, 595232, Note_on_c, 1, 57, 127
1, 595397, Note_off_c, 1, 79, 0
1, 595397, Note_off_c, 1, 57, 0
1, 595401, Note_on_c, 1, 77, 127
1, 595401, Note_on_c, 1, 59, 127
1, 595566, Note_off_c, 1, 77, 0
1, 595566, Note_off_c, 1, 59, 0
1, 595568, Note_on_c, 1, 76, 127
1, 595568, Note_on_c, 1, 60, 127
1, 595733, Note_off_c, 1, 76, 0
1, 595733, Note_off_c, 1, 60, 0
1, 595737, Note_on_c, 1, 77, 127
1, 595737, Note_on_c, 1, 62, 127
1, 595902, Note_off_c, 1, 77, 0
1, 595902, Note_off_c, 1, 62, 0
1, 595906, Note_on_c, 1, 79, 127
1, 595906, Note_on_c, 1, 64, 127
1, 596071, Note_off_c, 1, 79, 0
1, 596071, Note_off_c, 1, 64, 0
1, 596073, Note_on_c, 1, 81, 127
1, 596073, Note_on_c, 1, 65, 127
1, 596154, Note_off_c, 1, 81, 0
1, 596154, Note_off_c, 1, 65, 0
1, 596158, Note_on_c, 1, 79, 127
1, 596158, Note_on_c, 1, 64, 127
1, 596239, Note_off_c, 1, 79, 0
1, 596239, Note_off_c, 1, 64, 0
1, 596242, Note_on_c, 1, 77, 127
1, 596242, Note_on_c, 1, 62, 127
1, 596407, Note_off_c, 1, 77, 0
1, 596407, Note_off_c, 1, 62, 0
1, 596411, Note_on_c, 1, 79, 127
1, 596411, Note_on_c, 1, 64, 127
1, 596576, Note_off_c, 1, 79, 0
1, 596576, Note_off_c, 1, 64, 0
1, 596578, Note_on_c, 1, 81, 127
1, 596578, Note_on_c, 1, 65, 127
1, 596743, Note_off_c, 1, 81, 0
1, 596743, Note_off_c, 1, 65, 0
1, 596747, Note_on_c, 1, 69, 127
1, 596747, Note_on_c, 1, 53, 127
1, 596912, Note_off_c, 1, 69, 0
1, 596912, Note_off_c, 1, 53, 0
1, 596916, Note_on_c, 1, 71, 127
1, 596916, Note_on_c, 1, 55, 127
1, 597081, Note_off_c, 1, 71, 0
1, 597081, Note_off_c, 1, 55, 0
1, 597083, Note_on_c, 1, 72, 127
1, 597083, Note_on_c, 1, 57, 127
1, 597248, Note_off_c, 1, 72, 0
1, 597248, Note_off_c, 1, 57, 0
1, 597252, Note_on_c, 1, 74, 127
1, 597252, Note_on_c, 1, 59, 127
1, 597417, Note_off_c, 1, 74, 0
1, 597417, Note_off_c, 1, 59, 0
1, 597421, Note_on_c, 1, 76, 127
1, 597421, Note_on_c, 1, 60, 127
1, 597586, Note_off_c, 1, 76, 0
1, 597586, Note_off_c, 1, 60, 0
1, 597588, Note_on_c, 1, 77, 127
1, 597588, Note_on_c, 1, 62, 127
1, 597753, Note_off_c, 1, 77, 0
1, 597753, Note_off_c, 1, 62, 0
1, 597757, Note_on_c, 1, 79, 127
1, 597757, Note_on_c, 1, 64, 127
1, 597922, Note_off_c, 1, 79, 0
1, 597922, Note_off_c, 1, 64, 0
1, 597926, Note_on_c, 1, 81, 127
1, 597926, Note_on_c, 1, 65, 127
1, 598091, Note_off_c, 1, 81, 0
1, 598091, Note_off_c, 1, 65, 0
1, 598093, Note_on_c, 1, 83, 127
1, 598093, Note_on_c, 1, 67, 127
1, 598174, Note_off_c, 1, 83, 0
1, 598174, Note_off_c, 1, 67, 0
1, 598178, Note_on_c, 1, 81, 127
1, 598178, Note_on_c, 1, 65, 127
1, 598259, Note_off_c, 1, 81, 0
1, 598259, Note_off_c, 1, 65, 0
1, 598262, Note_on_c, 1, 79, 127
1, 598262, Note_on_c, 1, 64, 127
1, 598427, Note_off_c, 1, 79, 0
1, 598427, Note_off_c, 1, 64, 0
1, 598431, Note_on_c, 1, 81, 127
1, 598431, Note_on_c, 1, 65, 127
1, 598596, Note_off_c, 1, 81, 0
1, 598596, Note_off_c, 1, 65, 0
1, 598598, Note_on_c, 1, 83, 127
1, 598598, Note_on_c, 1, 67, 127
1, 598763, Note_off_c, 1, 83, 0
1, 598763, Note_off_c, 1, 67, 0
1, 598767, Note_on_c, 1, 71, 127
1, 598767, Note_on_c, 1, 55, 127
1, 598932, Note_off_c, 1, 71, 0
1, 598932, Note_off_c, 1, 55, 0
1, 598936, Note_on_c, 1, 72, 127
1, 598936, Note_on_c, 1, 57, 127
1, 599101, Note_off_c, 1, 72, 0
1, 599101, Note_off_c, 1, 57, 0
1, 599103, Note_on_c, 1, 74, 127
1, 599103, Note_on_c, 1, 59, 127
1, 599268, Note_off_c, 1, 74, 0
1, 599268, Note_off_c, 1, 59, 0
1, 599272, Note_on_c, 1, 76, 127
1, 599272, Note_on_c, 1, 60, 127
1, 599437, Note_off_c, 1, 76, 0
1, 599437, Note_off_c, 1, 60, 0
1, 599441, Note_on_c, 1, 77, 127
1, 599441, Note_on_c, 1, 62, 127
1, 599606, Note_off_c, 1, 77, 0
1, 599606, Note_off_c, 1, 62, 0
1, 599608, Note_on_c, 1, 79, 127
1, 599608, Note_on_c, 1, 64, 127
1, 599773, Note_off_c, 1, 79, 0
1, 599773, Note_off_c, 1, 64, 0
1, 599777, Note_on_c, 1, 81, 127
1, 599777, Note_on_c, 1, 65, 127
1, 599942, Note_off_c, 1, 81, 0
1, 599942, Note_off_c, 1, 65, 0
1, 599946, Note_on_c, 1, 83, 127
1, 599946, Note_on_c, 1, 67, 127
1, 600111, Note_off_c, 1, 83, 0
1, 600111, Note_off_c, 1, 67, 0
1, 600113, Note_on_c, 1, 84, 127
1, 600113, Note_on_c, 1, 69, 127
1, 600194, Note_off_c, 1, 84, 0
1, 600194, Note_off_c, 1, 69, 0
1, 600198, Note_on_c, 1, 83, 127
1, 600198, Note_on_c, 1, 67, 127
1, 600279, Note_off_c, 1, 83, 0
1, 600279, Note_off_c, 1, 67, 0
1, 600282, Note_on_c, 1, 81, 127
1, 600282, Note_on_c, 1, 65, 127
1, 600447, Note_off_c, 1, 81, 0
1, 600447, Note_off_c, 1, 65, 0
1, 600451, Note_on_c, 1, 83, 127
1, 600451, Note_on_c, 1, 67, 127
1, 600616, Note_off_c, 1, 83, 0
1, 600616, Note_off_c, 1, 67, 0
1, 600618, Note_on_c, 1, 84, 127
1, 600618, Note_on_c, 1, 69, 127
1, 600783, Note_off_c, 1, 84, 0
1, 600783, Note_off_c, 1, 69, 0
1, 600787, Note_on_c, 1, 72, 127
1, 600787, Note_on_c, 1, 57, 127
1, 600952, Note_off_c, 1, 72, 0
1, 600952, Note_off_c, 1, 57, 0
1, 600956, Note_on_c, 1, 74, 127
1, 600956, Note_on_c, 1, 59, 127
1, 601121, Note_off_c, 1, 74, 0
1, 601121, Note_off_c, 1, 59, 0
1, 601123, Note_on_c, 1, 76, 127
1, 601123, Note_on_c, 1, 60, 127
1, 601288, Note_off_c, 1, 76, 0
1, 601288, Note_off_c, 1, 60, 0
1, 601292, Note_on_c, 1, 77, 127
1, 601292, Note_on_c, 1, 62, 127
1, 601457, Note_off_c, 1, 77, 0
1, 601457, Note_off_c, 1, 62, 0
1, 601461, Note_on_c, 1, 79, 127
1, 601461, Note_on_c, 1, 64, 127
1, 601626, Note_off_c, 1, 79, 0
1, 601626, Note_off_c, 1, 64, 0
1, 601628, Note_on_c, 1, 81, 127
1, 601628, Note_on_c, 1, 65, 127
1, 601793, Note_off_c, 1, 81, 0
1, 601793, Note_off_c, 1, 65, 0
1, 601797, Note_on_c, 1, 71, 127
1, 601797, Note_on_c, 1, 55, 127
1, 601962, Note_off_c, 1, 71, 0
1, 601962, Note_off_c, 1, 55, 0
1, 601966, Note_on_c, 1, 72, 127
1, 601966, Note_on_c, 1, 57, 127
1, 602131, Note_off_c, 1, 72, 0
1, 602131, Note_off_c, 1, 57, 0
1, 602133, Note_on_c, 1, 74, 127
1, 602133, Note_on_c, 1, 59, 127
1, 602298, Note_off_c, 1, 74, 0
1, 602298, Note_off_c, 1, 59, 0
1, 602302, Note_on_c, 1, 76, 127
1, 602302, Note_on_c, 1, 60, 127
1, 602467, Note_off_c, 1, 76, 0
1, 602467, Note_off_c, 1, 60, 0
1, 602471, Note_on_c, 1, 77, 127
1, 602471, Note_on_c, 1, 62, 127
1, 602636, Note_off_c, 1, 77, 0
1, 602636, Note_off_c, 1, 62, 0
1, 602638, Note_on_c, 1, 79, 127
1, 602638, Note_on_c, 1, 64, 127
1, 602803, Note_off_c, 1, 79, 0
1, 602803, Note_off_c, 1, 64, 0
1, 602807, Note_on_c, 1, 69, 127
1, 602807, Note_on_c, 1, 53, 127
1, 602972, Note_off_c, 1, 69, 0
1, 602972, Note_off_c, 1, 53, 0
1, 602976, Note_on_c, 1, 71, 127
1, 602976, Note_on_c, 1, 55, 127
1, 603141, Note_off_c, 1, 71, 0
1, 603141, Note_off_c, 1, 55, 0
1, 603143, Note_on_c, 1, 72, 127
1, 603143, Note_on_c, 1, 57, 127
1, 603308, Note_off_c, 1, 72, 0
1, 603308, Note_off_c, 1, 57, 0
1, 603312, Note_on_c, 1, 74, 127
1, 603312, Note_on_c, 1, 59, 127
1, 603477, Note_off_c, 1, 74, 0
1, 603477, Note_off_c, 1, 59, 0
1, 603481, Note_on_c, 1, 76, 127
1, 603481, Note_on_c, 1, 60, 127
1, 603646, Note_off_c, 1, 76, 0
1, 603646, Note_off_c, 1, 60, 0
1, 603648, Note_on_c, 1, 77, 127
1, 603648, Note_on_c, 1, 62, 127
1, 603813, Note_off_c, 1, 77, 0
1, 603813, Note_off_c, 1, 62, 0
1, 603817, Note_on_c, 1, 79, 127
1, 603817, Note_on_c, 1, 64, 127
1, 603982, Note_off_c, 1, 79, 0
1, 603982, Note_off_c, 1, 64, 0
1, 603986, Note_on_c, 1, 81, 127
1, 603986, Note_on_c, 1, 65, 127
1, 604151, Note_off_c, 1, 81, 0
1, 604151, Note_off_c, 1, 65, 0
1, 604153, Note_on_c, 1, 74, 127
1, 604153, Note_on_c, 1, 59, 127
1, 604318, Note_off_c, 1, 74, 0
1, 604318, Note_off_c, 1, 59, 0
1, 604322, Note_on_c, 1, 76, 127
1, 604322, Note_on_c, 1, 60, 127
1, 604487, Note_off_c, 1, 76, 0
1, 604487, Note_off_c, 1, 60, 0
1, 604491, Note_on_c, 1, 77, 127
1, 604491, Note_on_c, 1, 62, 127
1, 604656, Note_off_c, 1, 77, 0
1, 604656, Note_off_c, 1, 62, 0
1, 604658, Note_on_c, 1, 71, 127
1, 604658, Note_on_c, 1, 55, 127
1, 604823, Note_off_c, 1, 71, 0
1, 604827, Note_on_c, 1, 72, 127
1, 604992, Note_off_c, 1, 72, 0
1, 604996, Note_on_c, 1, 74, 127
1, 605161, Note_off_c, 1, 74, 0
1, 605163, Note_on_c, 1, 67, 127
1, 605328, Note_off_c, 1, 67, 0
1, 605330, Note_off_c, 1, 55, 0
1, 605333, Note_on_c, 1, 69, 127
1, 605498, Note_off_c, 1, 69, 0
1, 605502, Note_on_c, 1, 71, 127
1, 605502, Note_on_c, 1, 65, 127
1, 605667, Note_off_c, 1, 71, 0
1, 605667, Note_off_c, 1, 65, 0
1, 605669, Note_on_c, 1, 64, 127
1, 605669, Note_on_c, 1, 72, 127
1, 605834, Note_off_c, 1, 64, 0
1, 605838, Note_on_c, 1, 65, 127
1, 606003, Note_off_c, 1, 72, 0
1, 606003, Note_off_c, 1, 65, 0
1, 606007, Note_on_c, 1, 72, 127
1, 606007, Note_on_c, 1, 67, 127
1, 606172, Note_off_c, 1, 72, 0
1, 606172, Note_off_c, 1, 67, 0
1, 606174, Note_on_c, 1, 72, 127
1, 606174, Note_on_c, 1, 60, 127
1, 606339, Note_off_c, 1, 72, 0
1, 606339, Note_off_c, 1, 60, 0
1, 606343, Note_on_c, 1, 71, 127
1, 606343, Note_on_c, 1, 62, 127
1, 606508, Note_off_c, 1, 71, 0
1, 606508, Note_off_c, 1, 62, 0
1, 606512, Note_on_c, 1, 72, 127
1, 606512, Note_on_c, 1, 64, 127
1, 606677, Note_off_c, 1, 72, 0
1, 606677, Note_off_c, 1, 64, 0
1, 606679, Note_on_c, 1, 74, 127
1, 606679, Note_on_c, 1, 59, 127
1, 606844, Note_off_c, 1, 74, 0
1, 606844, Note_off_c, 1, 59, 0
1, 606848, Note_on_c, 1, 65, 127
1, 606848, Note_on_c, 1, 60, 127
1, 607013, Note_off_c, 1, 65, 0
1, 607013, Note_off_c, 1, 60, 0
1, 607017, Note_on_c, 1, 74, 127
1, 607017, Note_on_c, 1, 62, 127
1, 607182, Note_off_c, 1, 74, 0
1, 607182, Note_off_c, 1, 62, 0
1, 607184, Note_on_c, 1, 64, 127
1, 607184, Note_on_c, 1, 55, 127
1, 607349, Note_off_c, 1, 64, 0
1, 607349, Note_off_c, 1, 55, 0
1, 607353, Note_on_c, 1, 65, 127
1, 607353, Note_on_c, 1, 57, 127
1, 607518, Note_off_c, 1, 65, 0
1, 607518, Note_off_c, 1, 57, 0
1, 607522, Note_on_c, 1, 62, 127
1, 607522, Note_on_c, 1, 59, 127
1, 607687, Note_off_c, 1, 62, 0
1, 607687, Note_off_c, 1, 59, 0
1, 607689, Note_on_c, 1, 60, 127
1, 607689, Note_on_c, 1, 52, 127
1, 607854, Note_off_c, 1, 60, 0
1, 607854, Note_off_c, 1, 52, 0
1, 607858, Note_on_c, 1, 64, 127
1, 607858, Note_on_c, 1, 53, 127
1, 608023, Note_off_c, 1, 64, 0
1, 608023, Note_off_c, 1, 53, 0
1, 608027, Note_on_c, 1, 67, 127
1, 608027, Note_on_c, 1, 55, 127
1, 608192, Note_off_c, 1, 67, 0
1, 608192, Note_off_c, 1, 55, 0
1, 608194, Note_on_c, 1, 64, 127
1, 608194, Note_on_c, 1, 48, 127
1, 608359, Note_off_c, 1, 64, 0
1, 608359, Note_off_c, 1, 48, 0
1, 608363, Note_on_c, 1, 67, 127
1, 608363, Note_on_c, 1, 50, 127
1, 608528, Note_off_c, 1, 67, 0
1, 608528, Note_off_c, 1, 50, 0
1, 608532, Note_on_c, 1, 72, 127
1, 608532, Note_on_c, 1, 52, 127
1, 608697, Note_off_c, 1, 72, 0
1, 608697, Note_off_c, 1, 52, 0
1, 608699, Note_on_c, 1, 67, 127
1, 608699, Note_on_c, 1, 47, 127
1, 608864, Note_off_c, 1, 67, 0
1, 608864, Note_off_c, 1, 47, 0
1, 608868, Note_on_c, 1, 71, 127
1, 608868, Note_on_c, 1, 48, 127
1, 609033, Note_off_c, 1, 71, 0
1, 609033, Note_off_c, 1, 48, 0
1, 609037, Note_on_c, 1, 74, 127
1, 609037, Note_on_c, 1, 50, 127
1, 609202, Note_off_c, 1, 74, 0
1, 609202, Note_off_c, 1, 50, 0
1, 609204, Note_on_c, 1, 71, 127
1, 609204, Note_on_c, 1, 43, 127
1, 609369, Note_off_c, 1, 71, 0
1, 609369, Note_off_c, 1, 43, 0
1, 609373, Note_on_c, 1, 74, 127
1, 609373, Note_on_c, 1, 45, 127
1, 609538, Note_off_c, 1, 74, 0
1, 609538, Note_off_c, 1, 45, 0
1, 609542, Note_on_c, 1, 79, 127
1, 609542, Note_on_c, 1, 47, 127
1, 609707, Note_off_c, 1, 79, 0
1, 609707, Note_off_c, 1, 47, 0
1, 609709, Note_on_c, 1, 79, 127
1, 609709, Note_on_c, 1, 40, 127
1, 609874, Note_off_c, 1, 79, 0
1, 609878, Note_on_c, 1, 76, 127
1, 610043, Note_off_c, 1, 76, 0
1, 610047, Note_on_c, 1, 72, 127
1, 610212, Note_off_c, 1, 72, 0
1, 610214, Note_off_c, 1, 40, 0
1, 610216, Note_on_c, 1, 70, 127
1, 610381, Note_off_c, 1, 70, 0
1, 610385, Note_on_c, 1, 69, 127
1, 610550, Note_off_c, 1, 69, 0
1, 610553, Note_on_c, 1, 67, 127
1, 610553, Note_on_c, 1, 52, 127
1, 610718, Note_off_c, 1, 67, 0
1, 610718, Note_off_c, 1, 52, 0
1, 610721, Note_on_c, 1, 69, 127
1, 610721, Note_on_c, 1, 53, 127
1, 610801, Note_off_c, 1, 69, 0
1, 610801, Note_on_c, 1, 67, 127
1, 610881, Note_off_c, 1, 67, 0
1, 610886, Note_off_c, 1, 53, 0
1, 610890, Note_on_c, 1, 55, 127
1, 611055, Note_off_c, 1, 55, 0
1, 611058, Note_on_c, 1, 57, 127
1, 611223, Note_off_c, 1, 57, 0
1, 611396, Note_on_c, 1, 59, 127
1, 611561, Note_off_c, 1, 59, 0
1, 611564, Note_on_c, 1, 69, 127
1, 611564, Note_on_c, 1, 60, 127
1, 611729, Note_off_c, 1, 69, 0
1, 611729, Note_off_c, 1, 60, 0
1, 611732, Note_on_c, 1, 77, 127
1, 611732, Note_on_c, 1, 38, 127
1, 611897, Note_off_c, 1, 77, 0
1, 611901, Note_on_c, 1, 74, 127
1, 612066, Note_off_c, 1, 74, 0
1, 612069, Note_on_c, 1, 71, 127
1, 612234, Note_off_c, 1, 71, 0
1, 612237, Note_off_c, 1, 38, 0
1, 612239, Note_on_c, 1, 69, 127
1, 612404, Note_off_c, 1, 69, 0
1, 612408, Note_on_c, 1, 67, 127
1, 612573, Note_off_c, 1, 67, 0
1, 612576, Note_on_c, 1, 65, 127
1, 612576, Note_on_c, 1, 50, 127
1, 612741, Note_off_c, 1, 65, 0
1, 612741, Note_off_c, 1, 50, 0
1, 612744, Note_on_c, 1, 67, 127
1, 612744, Note_on_c, 1, 52, 127
1, 612824, Note_off_c, 1, 67, 0
1, 612824, Note_on_c, 1, 65, 127
1, 612904, Note_off_c, 1, 65, 0
1, 612909, Note_off_c, 1, 52, 0
1, 612913, Note_on_c, 1, 53, 127
1, 613078, Note_off_c, 1, 53, 0
1, 613081, Note_on_c, 1, 55, 127
1, 613246, Note_off_c, 1, 55, 0
1, 613418, Note_on_c, 1, 57, 127
1, 613583, Note_off_c, 1, 57, 0
1, 613587, Note_on_c, 1, 67, 127
1, 613587, Note_on_c, 1, 59, 127
1, 613752, Note_off_c, 1, 67, 0
1, 613752, Note_off_c, 1, 59, 0
1, 613755, Note_on_c, 1, 76, 127
1, 613755, Note_on_c, 1, 36, 127
1, 613920, Note_off_c, 1, 76, 0
1, 613923, Note_on_c, 1, 72, 127
1, 614088, Note_off_c, 1, 72, 0
1, 614092, Note_on_c, 1, 69, 127
1, 614257, Note_off_c, 1, 36, 0
1, 614257, Note_off_c, 1, 69, 0
1, 614260, Note_on_c, 1, 67, 127
1, 614260, Note_on_c, 1, 48, 127
1, 614425, Note_off_c, 1, 67, 0
1, 614428, Note_on_c, 1, 65, 127
1, 614593, Note_off_c, 1, 65, 0
1, 614597, Note_on_c, 1, 64, 127
1, 614762, Note_off_c, 1, 64, 0
1, 614765, Note_on_c, 1, 74, 127
1, 614930, Note_off_c, 1, 74, 0
1, 614933, Note_on_c, 1, 71, 127
1, 615098, Note_off_c, 1, 71, 0
1, 615267, Note_off_c, 1, 48, 0
1, 615270, Note_on_c, 1, 65, 127
1, 615270, Note_on_c, 1, 47, 127
1, 615435, Note_off_c, 1, 65, 0
1, 615438, Note_on_c, 1, 64, 127
1, 615603, Note_off_c, 1, 64, 0
1, 615607, Note_on_c, 1, 62, 127
1, 615772, Note_off_c, 1, 47, 0
1, 615772, Note_off_c, 1, 62, 0
1, 615775, Note_on_c, 1, 64, 127
1, 615775, Note_on_c, 1, 48, 127
1, 615940, Note_off_c, 1, 64, 0
1, 615943, Note_on_c, 1, 67, 127
1, 616108, Note_off_c, 1, 67, 0
1, 616112, Note_on_c, 1, 72, 127
1, 616277, Note_off_c, 1, 48, 0
1, 616280, Note_on_c, 1, 66, 127
1, 616280, Note_on_c, 1, 45, 127
1, 616302, Note_off_c, 1, 72, 0
1, 616445, Note_off_c, 1, 66, 0
1, 616448, Note_on_c, 1, 74, 127
1, 616613, Note_off_c, 1, 74, 0
1, 616782, Note_off_c, 1, 45, 0
1, 616785, Note_on_c, 1, 71, 127
1, 616785, Note_on_c, 1, 43, 127
1, 616950, Note_off_c, 1, 71, 0
1, 616953, Note_on_c, 1, 72, 127
1, 617118, Note_off_c, 1, 72, 0
1, 617122, Note_on_c, 1, 74, 127
1, 617287, Note_off_c, 1, 74, 0
1, 617290, Note_on_c, 1, 67, 127
1, 617455, Note_off_c, 1, 43, 0
1, 617458, Note_on_c, 1, 45, 127
1, 617623, Note_off_c, 1, 45, 0
1, 617624, Note_off_c, 1, 67, 0
1, 617627, Note_on_c, 1, 74, 127
1, 617627, Note_on_c, 1, 47, 127
1, 617792, Note_off_c, 1, 74, 0
1, 617792, Note_off_c, 1, 47, 0
1, 617795, Note_on_c, 1, 76, 127
1, 617795, Note_on_c, 1, 48, 127
1, 617960, Note_off_c, 1, 76, 0
1, 617960, Note_off_c, 1, 48, 0
1, 617963, Note_on_c, 1, 77, 127
1, 617963, Note_on_c, 1, 50, 127
1, 618128, Note_off_c, 1, 77, 0
1, 618128, Note_off_c, 1, 50, 0
1, 618132, Note_on_c, 1, 79, 127
1, 618132, Note_on_c, 1, 52, 127
1, 618297, Note_off_c, 1, 79, 0
1, 618297, Note_off_c, 1, 52, 0
1, 618300, Note_on_c, 1, 67, 127
1, 618300, Note_on_c, 1, 47, 127
1, 618465, Note_off_c, 1, 67, 0
1, 618465, Note_off_c, 1, 47, 0
1, 618468, Note_on_c, 1, 69, 127
1, 618468, Note_on_c, 1, 48, 127
1, 618633, Note_off_c, 1, 69, 0
1, 618633, Note_off_c, 1, 48, 0
1, 618637, Note_on_c, 1, 71, 127
1, 618637, Note_on_c, 1, 50, 127
1, 618802, Note_off_c, 1, 71, 0
1, 618802, Note_off_c, 1, 50, 0
1, 618805, Note_on_c, 1, 72, 127
1, 618805, Note_on_c, 1, 52, 127
1, 618970, Note_off_c, 1, 72, 0
1, 618970, Note_off_c, 1, 52, 0
1, 618973, Note_on_c, 1, 74, 127
1, 618973, Note_on_c, 1, 53, 127
1, 619138, Note_off_c, 1, 74, 0
1, 619138, Note_off_c, 1, 53, 0
1, 619142, Note_on_c, 1, 76, 127
1, 619142, Note_on_c, 1, 55, 127
1, 619307, Note_off_c, 1, 76, 0
1, 619307, Note_off_c, 1, 55, 0
1, 619310, Note_on_c, 1, 71, 127
1, 619310, Note_on_c, 1, 55, 127
1, 619475, Note_off_c, 1, 71, 0
1, 619475, Note_off_c, 1, 55, 0
1, 619478, Note_on_c, 1, 72, 127
1, 619478, Note_on_c, 1, 57, 127
1, 619643, Note_off_c, 1, 72, 0
1, 619643, Note_off_c, 1, 57, 0
1, 619647, Note_on_c, 1, 74, 127
1, 619647, Note_on_c, 1, 59, 127
1, 619812, Note_off_c, 1, 74, 0
1, 619812, Note_off_c, 1, 59, 0
1, 619815, Note_on_c, 1, 76, 127
1, 619815, Note_on_c, 1, 60, 127
1, 619980, Note_off_c, 1, 76, 0
1, 619980, Note_off_c, 1, 60, 0
1, 619983, Note_on_c, 1, 77, 127
1, 619983, Note_on_c, 1, 62, 127
1, 620148, Note_off_c, 1, 77, 0
1, 620148, Note_off_c, 1, 62, 0
1, 620152, Note_on_c, 1, 79, 127
1, 620152, Note_on_c, 1, 64, 127
1, 620317, Note_off_c, 1, 79, 0
1, 620317, Note_off_c, 1, 64, 0
1, 620320, Note_on_c, 1, 67, 127
1, 620320, Note_on_c, 1, 59, 127
1, 620485, Note_off_c, 1, 67, 0
1, 620485, Note_off_c, 1, 59, 0
1, 620488, Note_on_c, 1, 69, 127
1, 620488, Note_on_c, 1, 60, 127
1, 620653, Note_off_c, 1, 69, 0
1, 620653, Note_off_c, 1, 60, 0
1, 620657, Note_on_c, 1, 71, 127
1, 620657, Note_on_c, 1, 62, 127
1, 620822, Note_off_c, 1, 71, 0
1, 620822, Note_off_c, 1, 62, 0
1, 620825, Note_on_c, 1, 72, 127
1, 620825, Note_on_c, 1, 64, 127
1, 620990, Note_off_c, 1, 72, 0
1, 620990, Note_off_c, 1, 64, 0
1, 620993, Note_on_c, 1, 74, 127
1, 620993, Note_on_c, 1, 65, 127
1, 621158, Note_off_c, 1, 74, 0
1, 621158, Note_off_c, 1, 65, 0
1, 621162, Note_on_c, 1, 76, 127
1, 621162, Note_on_c, 1, 67, 127
1, 621327, Note_off_c, 1, 76, 0
1, 621327, Note_off_c, 1, 67, 0
1, 621330, Note_on_c, 1, 71, 127
1, 621330, Note_on_c, 1, 67, 127
1, 621495, Note_off_c, 1, 71, 0
1, 621495, Note_off_c, 1, 67, 0
1, 621498, Note_on_c, 1, 72, 127
1, 621498, Note_on_c, 1, 69, 127
1, 621663, Note_off_c, 1, 72, 0
1, 621663, Note_off_c, 1, 69, 0
1, 621667, Note_on_c, 1, 74, 127
1, 621667, Note_on_c, 1, 71, 127
1, 621832, Note_off_c, 1, 74, 0
1, 621832, Note_off_c, 1, 71, 0
1, 621835, Note_on_c, 1, 76, 127
1, 621835, Note_on_c, 1, 72, 127
1, 622000, Note_off_c, 1, 76, 0
1, 622003, Note_on_c, 1, 77, 127
1, 622168, Note_off_c, 1, 77, 0
1, 622169, Note_off_c, 1, 72, 0
1, 622172, Note_on_c, 1, 79, 127
1, 622172, Note_on_c, 1, 65, 127
1, 622337, Note_off_c, 1, 79, 0
1, 622337, Note_off_c, 1, 65, 0
1, 622340, Note_on_c, 1, 77, 127
1, 622340, Note_on_c, 1, 67, 127
1, 622421, Note_off_c, 1, 77, 0
1, 622424, Note_on_c, 1, 76, 127
1, 622505, Note_off_c, 1, 76, 0
1, 622508, Note_on_c, 1, 74, 127
1, 622673, Note_off_c, 1, 74, 0
1, 622674, Note_off_c, 1, 67, 0
1, 622677, Note_on_c, 1, 72, 127
1, 622677, Note_on_c, 1, 55, 127
1, 622842, Note_off_c, 1, 72, 0
1, 622842, Note_off_c, 1, 55, 0
1, 622845, Note_on_c, 1, 72, 127
1, 622845, Note_on_c, 1, 48, 127
1, 623010, Note_off_c, 1, 72, 0
1, 623013, Note_on_c, 1, 67, 127
1, 623178, Note_off_c, 1, 67, 0
1, 623182, Note_on_c, 1, 64, 127
1, 623347, Note_off_c, 1, 64, 0
1, 623350, Note_on_c, 1, 60, 127
1, 623515, Note_off_c, 1, 48, 0
1, 623518, Note_on_c, 1, 43, 127
1, 623683, Note_off_c, 1, 43, 0
1, 623684, Note_off_c, 1, 60, 0
1, 623687, Note_on_c, 1, 67, 127
1, 623687, Note_on_c, 1, 40, 127
1, 623852, Note_off_c, 1, 67, 0
1, 623852, Note_off_c, 1, 40, 0
1, 623855, Note_on_c, 1, 72, 127
1, 623855, Note_on_c, 1, 36, 127
1, 624188, Note_off_c, 1, 72, 0
1, 624356, Note_off_c, 1, 36, 0
1, 624359, Note_on_c, 1, 72, 127
1, 624359, Note_on_c, 1, 48, 127
1, 624524, Note_off_c, 1, 72, 0
1, 624528, Note_on_c, 1, 74, 127
1, 624693, Note_off_c, 1, 74, 0
1, 624696, Note_on_c, 1, 76, 127
1, 624861, Note_off_c, 1, 76, 0
1, 625033, Note_on_c, 1, 65, 127
1, 625198, Note_off_c, 1, 65, 0
1, 625366, Note_off_c, 1, 48, 0
1, 625369, Note_on_c, 1, 67, 127
1, 625369, Note_on_c, 1, 47, 127
1, 625534, Note_off_c, 1, 67, 0
1, 625538, Note_on_c, 1, 69, 127
1, 625703, Note_off_c, 1, 69, 0
1, 625706, Note_on_c, 1, 65, 127
1, 625871, Note_off_c, 1, 47, 0
1, 625871, Note_off_c, 1, 65, 0
1, 625874, Note_on_c, 1, 64, 127
1, 625874, Note_on_c, 1, 48, 127
1, 626039, Note_off_c, 1, 64, 0
1, 626043, Note_on_c, 1, 72, 127
1, 626208, Note_off_c, 1, 72, 0
1, 626376, Note_off_c, 1, 48, 0
1, 626379, Note_on_c, 1, 62, 127
1, 626379, Note_on_c, 1, 41, 127
1, 626544, Note_off_c, 1, 62, 0
1, 626548, Note_on_c, 1, 64, 127
1, 626713, Note_off_c, 1, 64, 0
1, 626716, Note_on_c, 1, 60, 127
1, 626881, Note_off_c, 1, 41, 0
1, 626881, Note_off_c, 1, 60, 0
1, 626884, Note_on_c, 1, 59, 127
1, 626884, Note_on_c, 1, 43, 127
1, 627049, Note_off_c, 1, 59, 0
1, 627053, Note_on_c, 1, 60, 127
1, 627218, Note_off_c, 1, 60, 0
1, 627221, Note_on_c, 1, 62, 127
1, 627386, Note_off_c, 1, 62, 0
1, 627389, Note_on_c, 1, 55, 127
1, 627554, Note_off_c, 1, 43, 0
1, 627558, Note_on_c, 1, 45, 127
1, 627723, Note_off_c, 1, 55, 0
1, 627723, Note_off_c, 1, 45, 0
1, 627726, Note_on_c, 1, 62, 127
1, 627726, Note_on_c, 1, 47, 127
1, 627891, Note_off_c, 1, 62, 0
1, 627891, Note_off_c, 1, 47, 0
1, 627894, Note_on_c, 1, 64, 127
1, 627894, Note_on_c, 1, 48, 127
1, 628059, Note_off_c, 1, 64, 0
1, 628059, Note_off_c, 1, 48, 0
1, 628063, Note_on_c, 1, 66, 127
1, 628063, Note_on_c, 1, 50, 127
1, 628228, Note_off_c, 1, 66, 0
1, 628228, Note_off_c, 1, 50, 0
1, 628231, Note_on_c, 1, 67, 127
1, 628231, Note_on_c, 1, 52, 127
1, 628396, Note_off_c, 1, 67, 0
1, 628396, Note_off_c, 1, 52, 0
1, 628399, Note_on_c, 1, 69, 127
1, 628399, Note_on_c, 1, 54, 127
1, 628564, Note_off_c, 1, 69, 0
1, 628564, Note_off_c, 1, 54, 0
1, 628568, Note_on_c, 1, 71, 127
1, 628568, Note_on_c, 1, 55, 127
1, 628733, Note_off_c, 1, 71, 0
1, 628733, Note_off_c, 1, 55, 0
1, 628736, Note_on_c, 1, 72, 127
1, 628736, Note_on_c, 1, 57, 127
1, 628901, Note_off_c, 1, 72, 0
1, 628901, Note_off_c, 1, 57, 0
1, 628904, Note_on_c, 1, 47, 127
1, 628904, Note_on_c, 1, 63, 127
1, 629069, Note_off_c, 1, 47, 0
1, 629073, Note_on_c, 1, 59, 127
1, 629238, Note_off_c, 1, 63, 0
1, 629238, Note_off_c, 1, 59, 0
1, 629241, Note_on_c, 1, 72, 127
1, 629241, Note_on_c, 1, 57, 127
1, 629406, Note_off_c, 1, 72, 0
1, 629406, Note_off_c, 1, 57, 0
1, 629409, Note_on_c, 1, 56, 127
1, 629409, Note_on_c, 1, 71, 127
1, 629574, Note_off_c, 1, 56, 0
1, 629578, Note_on_c, 1, 57, 127
1, 629743, Note_off_c, 1, 57, 0
1, 629746, Note_on_c, 1, 54, 127
1, 629859, Note_off_c, 1, 71, 0
1, 629911, Note_off_c, 1, 54, 0
1, 629914, Note_on_c, 1, 62, 127
1, 629914, Note_on_c, 1, 56, 127
1, 630079, Note_off_c, 1, 62, 0
1, 630079, Note_off_c, 1, 56, 0
1, 630083, Note_on_c, 1, 64, 127
1, 630083, Note_on_c, 1, 54, 127
1, 630248, Note_off_c, 1, 64, 0
1, 630248, Note_off_c, 1, 54, 0
1, 630251, Note_on_c, 1, 66, 127
1, 630251, Note_on_c, 1, 52, 127
1, 630416, Note_off_c, 1, 66, 0
1, 630416, Note_off_c, 1, 52, 0
1, 630419, Note_on_c, 1, 68, 127
1, 630419, Note_on_c, 1, 50, 127
1, 630584, Note_off_c, 1, 68, 0
1, 630584, Note_off_c, 1, 50, 0
1, 630588, Note_on_c, 1, 69, 127
1, 630588, Note_on_c, 1, 48, 127
1, 630753, Note_off_c, 1, 69, 0
1, 630753, Note_off_c, 1, 48, 0
1, 630756, Note_on_c, 1, 71, 127
1, 630756, Note_on_c, 1, 47, 127
1, 630921, Note_off_c, 1, 71, 0
1, 630921, Note_off_c, 1, 47, 0
1, 630924, Note_on_c, 1, 45, 127
1, 630924, Note_on_c, 1, 61, 127
1, 631089, Note_off_c, 1, 45, 0
1, 631093, Note_on_c, 1, 57, 127
1, 631258, Note_off_c, 1, 61, 0
1, 631258, Note_off_c, 1, 57, 0
1, 631261, Note_on_c, 1, 71, 127
1, 631261, Note_on_c, 1, 55, 127
1, 631426, Note_off_c, 1, 71, 0
1, 631426, Note_off_c, 1, 55, 0
1, 631429, Note_on_c, 1, 54, 127
1, 631429, Note_on_c, 1, 69, 127
1, 631594, Note_off_c, 1, 54, 0
1, 631598, Note_on_c, 1, 55, 127
1, 631763, Note_off_c, 1, 55, 0
1, 631766, Note_on_c, 1, 52, 127
1, 631879, Note_off_c, 1, 69, 0
1, 631931, Note_off_c, 1, 52, 0
1, 631934, Note_on_c, 1, 60, 127
1, 631934, Note_on_c, 1, 54, 127
1, 632099, Note_off_c, 1, 60, 0
1, 632099, Note_off_c, 1, 54, 0
1, 632103, Note_on_c, 1, 62, 127
1, 632103, Note_on_c, 1, 52, 127
1, 632268, Note_off_c, 1, 62, 0
1, 632268, Note_off_c, 1, 52, 0
1, 632271, Note_on_c, 1, 64, 127
1, 632271, Note_on_c, 1, 50, 127
1, 632436, Note_off_c, 1, 64, 0
1, 632436, Note_off_c, 1, 50, 0
1, 632439, Note_on_c, 1, 66, 127
1, 632439, Note_on_c, 1, 48, 127
1, 632604, Note_off_c, 1, 66, 0
1, 632604, Note_off_c, 1, 48, 0
1, 632608, Note_on_c, 1, 67, 127
1, 632608, Note_on_c, 1, 47, 127
1, 632773, Note_off_c, 1, 67, 0
1, 632773, Note_off_c, 1, 47, 0
1, 632776, Note_on_c, 1, 69, 127
1, 632776, Note_on_c, 1, 45, 127
1, 632941, Note_off_c, 1, 69, 0
1, 632941, Note_off_c, 1, 45, 0
1, 632944, Note_on_c, 1, 43, 127
1, 632944, Note_on_c, 1, 59, 127
1, 633109, Note_off_c, 1, 43, 0
1, 633113, Note_on_c, 1, 55, 127
1, 633278, Note_off_c, 1, 59, 0
1, 633278, Note_off_c, 1, 55, 0
1, 633281, Note_on_c, 1, 69, 127
1, 633281, Note_on_c, 1, 54, 127
1, 633446, Note_off_c, 1, 69, 0
1, 633446, Note_off_c, 1, 54, 0
1, 633449, Note_on_c, 1, 52, 127
1, 633449, Note_on_c, 1, 67, 127
1, 633614, Note_off_c, 1, 52, 0
1, 633618, Note_on_c, 1, 51, 127
1, 633783, Note_off_c, 1, 51, 0
1, 633951, Note_off_c, 1, 67, 0
1, 633954, Note_on_c, 1, 42, 127
1, 633954, Note_on_c, 1, 57, 127
1, 634119, Note_off_c, 1, 42, 0
1, 634123, Note_on_c, 1, 54, 127
1, 634288, Note_off_c, 1, 57, 0
1, 634288, Note_off_c, 1, 54, 0
1, 634291, Note_on_c, 1, 67, 127
1, 634291, Note_on_c, 1, 52, 127
1, 634456, Note_off_c, 1, 67, 0
1, 634456, Note_off_c, 1, 52, 0
1, 634459, Note_on_c, 1, 51, 127
1, 634459, Note_on_c, 1, 66, 127
1, 634624, Note_off_c, 1, 51, 0
1, 634628, Note_on_c, 1, 49, 127
1, 634793, Note_off_c, 1, 49, 0
1, 634961, Note_off_c, 1, 66, 0
1, 634964, Note_on_c, 1, 40, 127
1, 634964, Note_on_c, 1, 55, 127
1, 635129, Note_off_c, 1, 40, 0
1, 635133, Note_on_c, 1, 52, 127
1, 635298, Note_off_c, 1, 55, 0
1, 635298, Note_off_c, 1, 52, 0
1, 635301, Note_on_c, 1, 66, 127
1, 635301, Note_on_c, 1, 50, 127
1, 635466, Note_off_c, 1, 66, 0
1, 635466, Note_off_c, 1, 50, 0
1, 635469, Note_on_c, 1, 64, 127
1, 635469, Note_on_c, 1, 48, 127
1, 635634, Note_off_c, 1, 64, 0
1, 635634, Note_off_c, 1, 48, 0
1, 635638, Note_on_c, 1, 63, 127
1, 635638, Note_on_c, 1, 47, 127
1, 635803, Note_off_c, 1, 63, 0
1, 635803, Note_off_c, 1, 47, 0
1, 635806, Note_on_c, 1, 64, 127
1, 635806, Note_on_c, 1, 45, 127
1, 635971, Note_off_c, 1, 64, 0
1, 635971, Note_off_c, 1, 45, 0
1, 635974, Note_on_c, 1, 63, 127
1, 635974, Note_on_c, 1, 47, 127
1, 636139, Note_off_c, 1, 63, 0
1, 636143, Note_on_c, 1, 64, 127
1, 636308, Note_off_c, 1, 64, 0
1, 636311, Note_on_c, 1, 66, 127
1, 636476, Note_off_c, 1, 66, 0
1, 636479, Note_on_c, 1, 59, 127
1, 636644, Note_off_c, 1, 47, 0
1, 636644, Note_off_c, 1, 59, 0
1, 636648, Note_on_c, 1, 71, 127
1, 636648, Note_on_c, 1, 49, 127
1, 636813, Note_off_c, 1, 71, 0
1, 636813, Note_off_c, 1, 49, 0
1, 636816, Note_on_c, 1, 69, 127
1, 636816, Note_on_c, 1, 51, 127
1, 636981, Note_off_c, 1, 69, 0
1, 636981, Note_off_c, 1, 51, 0
1, 636984, Note_on_c, 1, 67, 127
1, 636984, Note_on_c, 1, 52, 127
1, 637149, Note_off_c, 1, 67, 0
1, 637149, Note_off_c, 1, 52, 0
1, 637153, Note_on_c, 1, 69, 127
1, 637153, Note_on_c, 1, 54, 127
1, 637318, Note_off_c, 1, 69, 0
1, 637318, Note_off_c, 1, 54, 0
1, 637321, Note_on_c, 1, 71, 127
1, 637321, Note_on_c, 1, 55, 127
1, 637486, Note_off_c, 1, 71, 0
1, 637486, Note_off_c, 1, 55, 0
1, 637489, Note_on_c, 1, 64, 127
1, 637489, Note_on_c, 1, 48, 127
1, 637654, Note_off_c, 1, 64, 0
1, 637654, Note_off_c, 1, 48, 0
1, 637658, Note_on_c, 1, 72, 127
1, 637658, Note_on_c, 1, 50, 127
1, 637823, Note_off_c, 1, 72, 0
1, 637823, Note_off_c, 1, 50, 0
1, 637826, Note_on_c, 1, 71, 127
1, 637826, Note_on_c, 1, 52, 127
1, 637991, Note_off_c, 1, 71, 0
1, 637991, Note_off_c, 1, 52, 0
1, 637994, Note_on_c, 1, 69, 127
1, 637994, Note_on_c, 1, 54, 127
1, 638159, Note_off_c, 1, 69, 0
1, 638159, Note_off_c, 1, 54, 0
1, 638163, Note_on_c, 1, 71, 127
1, 638163, Note_on_c, 1, 55, 127
1, 638328, Note_off_c, 1, 71, 0
1, 638328, Note_off_c, 1, 55, 0
1, 638331, Note_on_c, 1, 72, 127
1, 638331, Note_on_c, 1, 57, 127
1, 638496, Note_off_c, 1, 72, 0
1, 638496, Note_off_c, 1, 57, 0
1, 638499, Note_on_c, 1, 66, 127
1, 638499, Note_on_c, 1, 50, 127
1, 638664, Note_off_c, 1, 66, 0
1, 638664, Note_off_c, 1, 50, 0
1, 638668, Note_on_c, 1, 74, 127
1, 638668, Note_on_c, 1, 52, 127
1, 638833, Note_off_c, 1, 74, 0
1, 638833, Note_off_c, 1, 52, 0
1, 638836, Note_on_c, 1, 72, 127
1, 638836, Note_on_c, 1, 54, 127
1, 639001, Note_off_c, 1, 72, 0
1, 639001, Note_off_c, 1, 54, 0
1, 639004, Note_on_c, 1, 71, 127
1, 639004, Note_on_c, 1, 55, 127
1, 639169, Note_off_c, 1, 71, 0
1, 639169, Note_off_c, 1, 55, 0
1, 639173, Note_on_c, 1, 72, 127
1, 639173, Note_on_c, 1, 57, 127
1, 639338, Note_off_c, 1, 72, 0
1, 639338, Note_off_c, 1, 57, 0
1, 639341, Note_on_c, 1, 74, 127
1, 639341, Note_on_c, 1, 59, 127
1, 639506, Note_off_c, 1, 74, 0
1, 639506, Note_off_c, 1, 59, 0
1, 639509, Note_on_c, 1, 67, 127
1, 639509, Note_on_c, 1, 52, 127
1, 639674, Note_off_c, 1, 67, 0
1, 639674, Note_off_c, 1, 52, 0
1, 639678, Note_on_c, 1, 76, 127
1, 639678, Note_on_c, 1, 54, 127
1, 639843, Note_off_c, 1, 76, 0
1, 639843, Note_off_c, 1, 54, 0
1, 639846, Note_on_c, 1, 74, 127
1, 639846, Note_on_c, 1, 55, 127
1, 640011, Note_off_c, 1, 74, 0
1, 640011, Note_off_c, 1, 55, 0
1, 640014, Note_on_c, 1, 73, 127
1, 640014, Note_on_c, 1, 57, 127
1, 640179, Note_off_c, 1, 73, 0
1, 640179, Note_off_c, 1, 57, 0
1, 640183, Note_on_c, 1, 75, 127
1, 640183, Note_on_c, 1, 59, 127
1, 640348, Note_off_c, 1, 75, 0
1, 640348, Note_off_c, 1, 59, 0
1, 640351, Note_on_c, 1, 76, 127
1, 640351, Note_on_c, 1, 60, 127
1, 640516, Note_off_c, 1, 76, 0
1, 640516, Note_off_c, 1, 60, 0
1, 640519, Note_on_c, 1, 69, 127
1, 640519, Note_on_c, 1, 54, 127
1, 640684, Note_off_c, 1, 69, 0
1, 640684, Note_off_c, 1, 54, 0
1, 640688, Note_on_c, 1, 78, 127
1, 640688, Note_on_c, 1, 55, 127
1, 640853, Note_off_c, 1, 78, 0
1, 640853, Note_off_c, 1, 55, 0
1, 640856, Note_on_c, 1, 76, 127
1, 640856, Note_on_c, 1, 57, 127
1, 641021, Note_off_c, 1, 76, 0
1, 641021, Note_off_c, 1, 57, 0
1, 641024, Note_on_c, 1, 75, 127
1, 641024, Note_on_c, 1, 59, 127
1, 641189, Note_off_c, 1, 75, 0
1, 641189, Note_off_c, 1, 59, 0
1, 641193, Note_on_c, 1, 76, 127
1, 641193, Note_on_c, 1, 61, 127
1, 641358, Note_off_c, 1, 76, 0
1, 641358, Note_off_c, 1, 61, 0
1, 641361, Note_on_c, 1, 78, 127
1, 641361, Note_on_c, 1, 63, 127
1, 641526, Note_off_c, 1, 78, 0
1, 641526, Note_off_c, 1, 63, 0
1, 641529, Note_on_c, 1, 79, 127
1, 641529, Note_on_c, 1, 64, 127
1, 641610, Note_off_c, 1, 79, 0
1, 641610, Note_off_c, 1, 64, 0
1, 641613, Note_on_c, 1, 78, 127
1, 641613, Note_on_c, 1, 63, 127
1, 641694, Note_off_c, 1, 78, 0
1, 641694, Note_off_c, 1, 63, 0
1, 641698, Note_on_c, 1, 76, 127
1, 641698, Note_on_c, 1, 61, 127
1, 641863, Note_off_c, 1, 76, 0
1, 641863, Note_off_c, 1, 61, 0
1, 641866, Note_on_c, 1, 78, 127
1, 641866, Note_on_c, 1, 63, 127
1, 642031, Note_off_c, 1, 78, 0
1, 642031, Note_off_c, 1, 63, 0
1, 642034, Note_on_c, 1, 79, 127
1, 642034, Note_on_c, 1, 64, 127
1, 642199, Note_off_c, 1, 79, 0
1, 642199, Note_off_c, 1, 64, 0
1, 642203, Note_on_c, 1, 67, 127
1, 642203, Note_on_c, 1, 52, 127
1, 642368, Note_off_c, 1, 67, 0
1, 642368, Note_off_c, 1, 52, 0
1, 642371, Note_on_c, 1, 69, 127
1, 642371, Note_on_c, 1, 54, 127
1, 642536, Note_off_c, 1, 69, 0
1, 642536, Note_off_c, 1, 54, 0
1, 642539, Note_on_c, 1, 71, 127
1, 642539, Note_on_c, 1, 55, 127
1, 642704, Note_off_c, 1, 71, 0
1, 642704, Note_off_c, 1, 55, 0
1, 642708, Note_on_c, 1, 73, 127
1, 642708, Note_on_c, 1, 57, 127
1, 642873, Note_off_c, 1, 73, 0
1, 642873, Note_off_c, 1, 57, 0
1, 642876, Note_on_c, 1, 75, 127
1, 642876, Note_on_c, 1, 59, 127
1, 643041, Note_off_c, 1, 75, 0
1, 643041, Note_off_c, 1, 59, 0
1, 643044, Note_on_c, 1, 76, 127
1, 643044, Note_on_c, 1, 61, 127
1, 643209, Note_off_c, 1, 76, 0
1, 643209, Note_off_c, 1, 61, 0
1, 643213, Note_on_c, 1, 78, 127
1, 643213, Note_on_c, 1, 63, 127
1, 643378, Note_off_c, 1, 78, 0
1, 643378, Note_off_c, 1, 63, 0
1, 643381, Note_on_c, 1, 79, 127
1, 643381, Note_on_c, 1, 64, 127
1, 643546, Note_off_c, 1, 79, 0
1, 643546, Note_off_c, 1, 64, 0
1, 643549, Note_on_c, 1, 81, 127
1, 643549, Note_on_c, 1, 66, 127
1, 643630, Note_off_c, 1, 81, 0
1, 643630, Note_off_c, 1, 66, 0
1, 643633, Note_on_c, 1, 79, 127
1, 643633, Note_on_c, 1, 64, 127
1, 643714, Note_off_c, 1, 79, 0
1, 643714, Note_off_c, 1, 64, 0
1, 643718, Note_on_c, 1, 78, 127
1, 643718, Note_on_c, 1, 63, 127
1, 643883, Note_off_c, 1, 78, 0
1, 643883, Note_off_c, 1, 63, 0
1, 643886, Note_on_c, 1, 79, 127
1, 643886, Note_on_c, 1, 64, 127
1, 644051, Note_off_c, 1, 79, 0
1, 644051, Note_off_c, 1, 64, 0
1, 644054, Note_on_c, 1, 81, 127
1, 644054, Note_on_c, 1, 66, 127
1, 644219, Note_off_c, 1, 81, 0
1, 644219, Note_off_c, 1, 66, 0
1, 644223, Note_on_c, 1, 69, 127
1, 644223, Note_on_c, 1, 54, 127
1, 644388, Note_off_c, 1, 69, 0
1, 644388, Note_off_c, 1, 54, 0
1, 644391, Note_on_c, 1, 71, 127
1, 644391, Note_on_c, 1, 55, 127
1, 644556, Note_off_c, 1, 71, 0
1, 644556, Note_off_c, 1, 55, 0
1, 644559, Note_on_c, 1, 73, 127
1, 644559, Note_on_c, 1, 57, 127
1, 644724, Note_off_c, 1, 73, 0
1, 644724, Note_off_c, 1, 57, 0
1, 644728, Note_on_c, 1, 75, 127
1, 644728, Note_on_c, 1, 59, 127
1, 644893, Note_off_c, 1, 75, 0
1, 644893, Note_off_c, 1, 59, 0
1, 644896, Note_on_c, 1, 76, 127
1, 644896, Note_on_c, 1, 61, 127
1, 645061, Note_off_c, 1, 76, 0
1, 645061, Note_off_c, 1, 61, 0
1, 645064, Note_on_c, 1, 78, 127
1, 645064, Note_on_c, 1, 63, 127
1, 645229, Note_off_c, 1, 78, 0
1, 645229, Note_off_c, 1, 63, 0
1, 645233, Note_on_c, 1, 79, 127
1, 645233, Note_on_c, 1, 64, 127
1, 645398, Note_off_c, 1, 79, 0
1, 645398, Note_off_c, 1, 64, 0
1, 645401, Note_on_c, 1, 81, 127
1, 645401, Note_on_c, 1, 66, 127
1, 645566, Note_off_c, 1, 81, 0
1, 645566, Note_off_c, 1, 66, 0
1, 645569, Note_on_c, 1, 83, 127
1, 645569, Note_on_c, 1, 67, 127
1, 645650, Note_off_c, 1, 83, 0
1, 645650, Note_off_c, 1, 67, 0
1, 645653, Note_on_c, 1, 81, 127
1, 645653, Note_on_c, 1, 66, 127
1, 645734, Note_off_c, 1, 81, 0
1, 645734, Note_off_c, 1, 66, 0
1, 645738, Note_on_c, 1, 79, 127
1, 645738, Note_on_c, 1, 64, 127
1, 645903, Note_off_c, 1, 79, 0
1, 645903, Note_off_c, 1, 64, 0
1, 645906, Note_on_c, 1, 81, 127
1, 645906, Note_on_c, 1, 66, 127
1, 646071, Note_off_c, 1, 81, 0
1, 646071, Note_off_c, 1, 66, 0
1, 646074, Note_on_c, 1, 83, 127
1, 646074, Note_on_c, 1, 67, 127
1, 646239, Note_off_c, 1, 83, 0
1, 646239, Note_off_c, 1, 67, 0
1, 646243, Note_on_c, 1, 73, 127
1, 646243, Note_on_c, 1, 57, 127
1, 646408, Note_off_c, 1, 73, 0
1, 646408, Note_off_c, 1, 57, 0
1, 646411, Note_on_c, 1, 75, 127
1, 646411, Note_on_c, 1, 59, 127
1, 646576, Note_off_c, 1, 75, 0
1, 646576, Note_off_c, 1, 59, 0
1, 646579, Note_on_c, 1, 76, 127
1, 646579, Note_on_c, 1, 61, 127
1, 646744, Note_off_c, 1, 76, 0
1, 646744, Note_off_c, 1, 61, 0
1, 646748, Note_on_c, 1, 78, 127
1, 646748, Note_on_c, 1, 63, 127
1, 646913, Note_off_c, 1, 78, 0
1, 646913, Note_off_c, 1, 63, 0
1, 646916, Note_on_c, 1, 79, 127
1, 646916, Note_on_c, 1, 64, 127
1, 647081, Note_off_c, 1, 79, 0
1, 647081, Note_off_c, 1, 64, 0
1, 647084, Note_on_c, 1, 81, 127
1, 647084, Note_on_c, 1, 66, 127
1, 647249, Note_off_c, 1, 81, 0
1, 647249, Note_off_c, 1, 66, 0
1, 647253, Note_on_c, 1, 71, 127
1, 647253, Note_on_c, 1, 55, 127
1, 647418, Note_off_c, 1, 71, 0
1, 647418, Note_off_c, 1, 55, 0
1, 647421, Note_on_c, 1, 73, 127
1, 647421, Note_on_c, 1, 57, 127
1, 647586, Note_off_c, 1, 73, 0
1, 647586, Note_off_c, 1, 57, 0
1, 647589, Note_on_c, 1, 75, 127
1, 647589, Note_on_c, 1, 59, 127
1, 647754, Note_off_c, 1, 75, 0
1, 647754, Note_off_c, 1, 59, 0
1, 647758, Note_on_c, 1, 76, 127
1, 647758, Note_on_c, 1, 61, 127
1, 647923, Note_off_c, 1, 76, 0
1, 647923, Note_off_c, 1, 61, 0
1, 647926, Note_on_c, 1, 78, 127
1, 647926, Note_on_c, 1, 63, 127
1, 648091, Note_off_c, 1, 78, 0
1, 648091, Note_off_c, 1, 63, 0
1, 648094, Note_on_c, 1, 79, 127
1, 648094, Note_on_c, 1, 64, 127
1, 648259, Note_off_c, 1, 79, 0
1, 648263, Note_on_c, 1, 81, 127
1, 648428, Note_off_c, 1, 64, 0
1, 648428, Note_off_c, 1, 81, 0
1, 648431, Note_on_c, 1, 83, 127
1, 648431, Note_on_c, 1, 57, 127
1, 648596, Note_off_c, 1, 83, 0
1, 648596, Note_off_c, 1, 57, 0
1, 648599, Note_on_c, 1, 71, 127
1, 648599, Note_on_c, 1, 59, 127
1, 648764, Note_off_c, 1, 71, 0
1, 648768, Note_on_c, 1, 76, 127
1, 648933, Note_off_c, 1, 59, 0
1, 648933, Note_off_c, 1, 76, 0
1, 648936, Note_on_c, 1, 75, 127
1, 648936, Note_on_c, 1, 47, 127
1, 649101, Note_off_c, 1, 75, 0
1, 649101, Note_off_c, 1, 47, 0
1, 649104, Note_on_c, 1, 76, 127
1, 649104, Note_on_c, 1, 52, 127
1, 649184, Note_off_c, 1, 76, 0
1, 649184, Note_on_c, 1, 75, 127
1, 649264, Note_off_c, 1, 75, 0
1, 649269, Note_off_c, 1, 52, 0
1, 649273, Note_on_c, 1, 54, 127
1, 649438, Note_off_c, 1, 54, 0
1, 649441, Note_on_c, 1, 55, 127
1, 649606, Note_off_c, 1, 55, 0
1, 649778, Note_on_c, 1, 57, 127
1, 649943, Note_off_c, 1, 57, 0
1, 649947, Note_on_c, 1, 76, 127
1, 649947, Note_on_c, 1, 58, 127
1, 650112, Note_off_c, 1, 76, 0
1, 650112, Note_off_c, 1, 58, 0
1, 650115, Note_on_c, 1, 76, 127
1, 650115, Note_on_c, 1, 49, 127
1, 650280, Note_off_c, 1, 76, 0
1, 650283, Note_on_c, 1, 73, 127
1, 650448, Note_off_c, 1, 73, 0
1, 650452, Note_on_c, 1, 69, 127
1, 650617, Note_off_c, 1, 69, 0
1, 650620, Note_off_c, 1, 49, 0
1, 650623, Note_on_c, 1, 67, 127
1, 650788, Note_off_c, 1, 67, 0
1, 650790, Note_on_c, 1, 65, 127
1, 650955, Note_off_c, 1, 65, 0
1, 650959, Note_on_c, 1, 64, 127
1, 650959, Note_on_c, 1, 45, 127
1, 651124, Note_off_c, 1, 64, 0
1, 651124, Note_off_c, 1, 45, 0
1, 651128, Note_on_c, 1, 65, 127
1, 651128, Note_on_c, 1, 50, 127
1, 651293, Note_off_c, 1, 65, 0
1, 651293, Note_off_c, 1, 50, 0
1, 651295, Note_on_c, 1, 62, 127
1, 651295, Note_on_c, 1, 53, 127
1, 651460, Note_off_c, 1, 62, 0
1, 651460, Note_off_c, 1, 53, 0
1, 651464, Note_on_c, 1, 65, 127
1, 651464, Note_on_c, 1, 57, 127
1, 651629, Note_off_c, 1, 65, 0
1, 651629, Note_off_c, 1, 57, 0
1, 651633, Note_on_c, 1, 69, 127
1, 651633, Note_on_c, 1, 62, 127
1, 651798, Note_off_c, 1, 69, 0
1, 651800, Note_on_c, 1, 65, 127
1, 651965, Note_off_c, 1, 65, 0
1, 651967, Note_off_c, 1, 62, 0
1, 651969, Note_on_c, 1, 69, 127
1, 651969, Note_on_c, 1, 48, 127
1, 652134, Note_off_c, 1, 69, 0
1, 652134, Note_off_c, 1, 48, 0
1, 652138, Note_on_c, 1, 74, 127
1, 652138, Note_on_c, 1, 47, 127
1, 652303, Note_off_c, 1, 74, 0
1, 652305, Note_on_c, 1, 71, 127
1, 652470, Note_off_c, 1, 71, 0
1, 652474, Note_on_c, 1, 67, 127
1, 652639, Note_off_c, 1, 67, 0
1, 652643, Note_off_c, 1, 47, 0
1, 652644, Note_on_c, 1, 65, 127
1, 652809, Note_off_c, 1, 65, 0
1, 652811, Note_on_c, 1, 64, 127
1, 652976, Note_off_c, 1, 64, 0
1, 652980, Note_on_c, 1, 62, 127
1, 652980, Note_on_c, 1, 43, 127
1, 653145, Note_off_c, 1, 62, 0
1, 653145, Note_off_c, 1, 43, 0
1, 653149, Note_on_c, 1, 64, 127
1, 653149, Note_on_c, 1, 48, 127
1, 653314, Note_off_c, 1, 64, 0
1, 653314, Note_off_c, 1, 48, 0
1, 653316, Note_on_c, 1, 60, 127
1, 653316, Note_on_c, 1, 52, 127
1, 653481, Note_off_c, 1, 60, 0
1, 653481, Note_off_c, 1, 52, 0
1, 653485, Note_on_c, 1, 64, 127
1, 653485, Note_on_c, 1, 55, 127
1, 653650, Note_off_c, 1, 64, 0
1, 653650, Note_off_c, 1, 55, 0
1, 653654, Note_on_c, 1, 67, 127
1, 653654, Note_on_c, 1, 60, 127
1, 653819, Note_off_c, 1, 67, 0
1, 653821, Note_on_c, 1, 64, 127
1, 653986, Note_off_c, 1, 64, 0
1, 653988, Note_off_c, 1, 60, 0
1, 653990, Note_on_c, 1, 67, 127
1, 653990, Note_on_c, 1, 47, 127
1, 654155, Note_off_c, 1, 67, 0
1, 654155, Note_off_c, 1, 47, 0
1, 654159, Note_on_c, 1, 72, 127
1, 654159, Note_on_c, 1, 45, 127
1, 654324, Note_off_c, 1, 72, 0
1, 654326, Note_on_c, 1, 69, 127
1, 654491, Note_off_c, 1, 69, 0
1, 654495, Note_on_c, 1, 65, 127
1, 654660, Note_off_c, 1, 65, 0
1, 654661, Note_off_c, 1, 45, 0
1, 654664, Note_on_c, 1, 64, 127
1, 654664, Note_on_c, 1, 57, 127
1, 654829, Note_off_c, 1, 64, 0
1, 654831, Note_on_c, 1, 62, 127
1, 654996, Note_off_c, 1, 62, 0
1, 655000, Note_on_c, 1, 60, 127
1, 655165, Note_off_c, 1, 60, 0
1, 655169, Note_on_c, 1, 71, 127
1, 655334, Note_off_c, 1, 71, 0
1, 655336, Note_on_c, 1, 68, 127
1, 655501, Note_off_c, 1, 68, 0
1, 655671, Note_off_c, 1, 57, 0
1, 655674, Note_on_c, 1, 62, 127
1, 655674, Note_on_c, 1, 56, 127
1, 655839, Note_off_c, 1, 62, 0
1, 655841, Note_on_c, 1, 60, 127
1, 656006, Note_off_c, 1, 60, 0
1, 656010, Note_on_c, 1, 59, 127
1, 656175, Note_off_c, 1, 59, 0
1, 656176, Note_off_c, 1, 56, 0
1, 656179, Note_on_c, 1, 60, 127
1, 656179, Note_on_c, 1, 57, 127
1, 656344, Note_off_c, 1, 60, 0
1, 656346, Note_on_c, 1, 64, 127
1, 656511, Note_off_c, 1, 64, 0
1, 656515, Note_on_c, 1, 69, 127
1, 656681, Note_off_c, 1, 57, 0
1, 656684, Note_on_c, 1, 62, 127
1, 656684, Note_on_c, 1, 53, 127
1, 656705, Note_off_c, 1, 69, 0
1, 656849, Note_off_c, 1, 62, 0
1, 656851, Note_on_c, 1, 71, 127
1, 657016, Note_off_c, 1, 71, 0
1, 657186, Note_off_c, 1, 53, 0
1, 657189, Note_on_c, 1, 68, 127
1, 657189, Note_on_c, 1, 52, 127
1, 657354, Note_off_c, 1, 68, 0
1, 657356, Note_on_c, 1, 69, 127
1, 657521, Note_off_c, 1, 69, 0
1, 657525, Note_on_c, 1, 71, 127
1, 657690, Note_off_c, 1, 71, 0
1, 657691, Note_off_c, 1, 52, 0
1, 657694, Note_on_c, 1, 40, 127
1, 657694, Note_on_c, 1, 64, 127
1, 657859, Note_off_c, 1, 40, 0
1, 657861, Note_on_c, 1, 42, 127
1, 658026, Note_off_c, 1, 42, 0
1, 658028, Note_off_c, 1, 64, 0
1, 658030, Note_on_c, 1, 71, 127
1, 658030, Note_on_c, 1, 44, 127
1, 658195, Note_off_c, 1, 71, 0
1, 658195, Note_off_c, 1, 44, 0
1, 658199, Note_on_c, 1, 72, 127
1, 658199, Note_on_c, 1, 45, 127
1, 658364, Note_off_c, 1, 72, 0
1, 658364, Note_off_c, 1, 45, 0
1, 658366, Note_on_c, 1, 74, 127
1, 658366, Note_on_c, 1, 47, 127
1, 658531, Note_off_c, 1, 74, 0
1, 658531, Note_off_c, 1, 47, 0
1, 658535, Note_on_c, 1, 76, 127
1, 658535, Note_on_c, 1, 48, 127
1, 658700, Note_off_c, 1, 76, 0
1, 658700, Note_off_c, 1, 48, 0
1, 658704, Note_on_c, 1, 64, 127
1, 658704, Note_on_c, 1, 44, 127
1, 658869, Note_off_c, 1, 64, 0
1, 658869, Note_off_c, 1, 44, 0
1, 658871, Note_on_c, 1, 66, 127
1, 658871, Note_on_c, 1, 45, 127
1, 659036, Note_off_c, 1, 66, 0
1, 659036, Note_off_c, 1, 45, 0
1, 659040, Note_on_c, 1, 68, 127
1, 659040, Note_on_c, 1, 47, 127
1, 659205, Note_off_c, 1, 68, 0
1, 659205, Note_off_c, 1, 47, 0
1, 659209, Note_on_c, 1, 69, 127
1, 659209, Note_on_c, 1, 48, 127
1, 659374, Note_off_c, 1, 69, 0
1, 659374, Note_off_c, 1, 48, 0
1, 659376, Note_on_c, 1, 71, 127
1, 659376, Note_on_c, 1, 50, 127
1, 659541, Note_off_c, 1, 71, 0
1, 659541, Note_off_c, 1, 50, 0
1, 659545, Note_on_c, 1, 72, 127
1, 659545, Note_on_c, 1, 52, 127
1, 659710, Note_off_c, 1, 72, 0
1, 659710, Note_off_c, 1, 52, 0
1, 659714, Note_on_c, 1, 68, 127
1, 659714, Note_on_c, 1, 52, 127
1, 659879, Note_off_c, 1, 68, 0
1, 659879, Note_off_c, 1, 52, 0
1, 659881, Note_on_c, 1, 69, 127
1, 659881, Note_on_c, 1, 54, 127
1, 660046, Note_off_c, 1, 69, 0
1, 660046, Note_off_c, 1, 54, 0
1, 660050, Note_on_c, 1, 71, 127
1, 660050, Note_on_c, 1, 56, 127
1, 660215, Note_off_c, 1, 71, 0
1, 660215, Note_off_c, 1, 56, 0
1, 660219, Note_on_c, 1, 72, 127
1, 660219, Note_on_c, 1, 57, 127
1, 660384, Note_off_c, 1, 72, 0
1, 660384, Note_off_c, 1, 57, 0
1, 660386, Note_on_c, 1, 74, 127
1, 660386, Note_on_c, 1, 59, 127
1, 660551, Note_off_c, 1, 74, 0
1, 660551, Note_off_c, 1, 59, 0
1, 660555, Note_on_c, 1, 76, 127
1, 660555, Note_on_c, 1, 60, 127
1, 660720, Note_off_c, 1, 76, 0
1, 660720, Note_off_c, 1, 60, 0
1, 660724, Note_on_c, 1, 64, 127
1, 660724, Note_on_c, 1, 56, 127
1, 660889, Note_off_c, 1, 64, 0
1, 660889, Note_off_c, 1, 56, 0
1, 660891, Note_on_c, 1, 66, 127
1, 660891, Note_on_c, 1, 57, 127
1, 661056, Note_off_c, 1, 66, 0
1, 661056, Note_off_c, 1, 57, 0
1, 661060, Note_on_c, 1, 68, 127
1, 661060, Note_on_c, 1, 59, 127
1, 661225, Note_off_c, 1, 68, 0
1, 661225, Note_off_c, 1, 59, 0
1, 661229, Note_on_c, 1, 69, 127
1, 661229, Note_on_c, 1, 60, 127
1, 661394, Note_off_c, 1, 69, 0
1, 661394, Note_off_c, 1, 60, 0
1, 661396, Note_on_c, 1, 71, 127
1, 661396, Note_on_c, 1, 62, 127
1, 661561, Note_off_c, 1, 71, 0
1, 661561, Note_off_c, 1, 62, 0
1, 661565, Note_on_c, 1, 72, 127
1, 661565, Note_on_c, 1, 64, 127
1, 661730, Note_off_c, 1, 72, 0
1, 661730, Note_off_c, 1, 64, 0
1, 661734, Note_on_c, 1, 68, 127
1, 661734, Note_on_c, 1, 64, 127
1, 661899, Note_off_c, 1, 68, 0
1, 661899, Note_off_c, 1, 64, 0
1, 661901, Note_on_c, 1, 69, 127
1, 661901, Note_on_c, 1, 66, 127
1, 662066, Note_off_c, 1, 69, 0
1, 662066, Note_off_c, 1, 66, 0
1, 662070, Note_on_c, 1, 71, 127
1, 662070, Note_on_c, 1, 68, 127
1, 662235, Note_off_c, 1, 71, 0
1, 662235, Note_off_c, 1, 68, 0
1, 662239, Note_on_c, 1, 72, 127
1, 662239, Note_on_c, 1, 69, 127
1, 662404, Note_off_c, 1, 72, 0
1, 662406, Note_on_c, 1, 74, 127
1, 662571, Note_off_c, 1, 74, 0
1, 662573, Note_off_c, 1, 69, 0
1, 662575, Note_on_c, 1, 76, 127
1, 662575, Note_on_c, 1, 62, 127
1, 662740, Note_off_c, 1, 76, 0
1, 662740, Note_off_c, 1, 62, 0
1, 662757, Note_on_c, 1, 74, 127
1, 662757, Note_on_c, 1, 64, 127
1, 662838, Note_off_c, 1, 74, 0
1, 662852, Note_on_c, 1, 72, 127
1, 662933, Note_off_c, 1, 72, 0
1, 662941, Note_on_c, 1, 71, 127
1, 663091, Note_off_c, 1, 64, 0
1, 663106, Note_off_c, 1, 71, 0
1, 663113, Note_on_c, 1, 52, 127
1, 663113, Note_on_c, 1, 69, 127
1, 663278, Note_off_c, 1, 52, 0
1, 663278, Note_off_c, 1, 69, 0
1, 663308, Note_on_c, 1, 69, 127
1, 663308, Note_on_c, 1, 45, 127
1, 663504, Note_off_c, 1, 69, 0
1, 663507, Note_on_c, 1, 64, 127
1, 663725, Note_off_c, 1, 64, 0
1, 663729, Note_on_c, 1, 60, 127
1, 664025, Note_off_c, 1, 60, 0
1, 664029, Note_on_c, 1, 57, 127
1, 665861, Note_off_c, 1, 45, 0
1, 665861, Note_off_c, 1, 57, 0
1, 665861, End_track
0, 0, End_of_file