0, 0, Header, 1, 1, 480
1, 0, Start_track
1, 0, Title_t, "Test"
1, 0, Tempo, 500000
1, 0, Instrument_name_t, "Church Organ"
1, 64, Note_on_c, 1, 71, 127
1, 193, Note_off_c, 1, 71, 0
1, 220, Note_on_c, 1, 68, 127
1, 373, Note_off_c, 1, 68, 0
1, 375, Note_on_c, 1, 69, 127
1, 528, Note_off_c, 1, 69, 0
1, 531, Note_on_c, 1, 71, 127
1, 531, Note_on_c, 1, 52, 127
1, 684, Note_off_c, 1, 71, 0
1, 686, Note_on_c, 1, 76, 127
1, 840, Note_off_c, 1, 52, 0
1, 842, Note_on_c, 1, 64, 127
1, 842, Note_on_c, 1, 56, 127
1, 993, Note_off_c, 1, 76, 0
1, 995, Note_off_c, 1, 64, 0
1, 1151, Note_off_c, 1, 56, 0
1, 1153, Note_on_c, 1, 66, 127
1, 1153, Note_on_c, 1, 59, 127
1, 1306, Note_off_c, 1, 66, 0
1, 1462, Note_off_c, 1, 59, 0
1, 1464, Note_on_c, 1, 68, 127
1, 1464, Note_on_c, 1, 64, 127
1, 1617, Note_off_c, 1, 68, 0
1, 1619, Note_on_c, 1, 69, 127
1, 1772, Note_off_c, 1, 69, 0
1, 1773, Note_off_c, 1, 64, 0
1, 1775, Note_on_c, 1, 71, 127
1, 1775, Note_on_c, 1, 52, 127
1, 1928, Note_off_c, 1, 71, 0
1, 1930, Note_on_c, 1, 76, 127
1, 2084, Note_off_c, 1, 52, 0
1, 2086, Note_on_c, 1, 64, 127
1, 2086, Note_on_c, 1, 56, 127
1, 2237, Note_off_c, 1, 76, 0
1, 2239, Note_off_c, 1, 64, 0
1, 2395, Note_off_c, 1, 56, 0
1, 2397, Note_on_c, 1, 66, 127
1, 2397, Note_on_c, 1, 59, 127
1, 2550, Note_off_c, 1, 66, 0
1, 2706, Note_off_c, 1, 59, 0
1, 2708, Note_on_c, 1, 68, 127
1, 2708, Note_on_c, 1, 64, 127
1, 2861, Note_off_c, 1, 68, 0
1, 2863, Note_on_c, 1, 76, 127
1, 3016, Note_off_c, 1, 76, 0
1, 3017, Note_off_c, 1, 64, 0
1, 3019, Note_on_c, 1, 78, 127
1, 3019, Note_on_c, 1, 63, 127
1, 3172, Note_off_c, 1, 78, 0
1, 3174, Note_on_c, 1, 80, 127
1, 3328, Note_off_c, 1, 63, 0
1, 3330, Note_on_c, 1, 69, 127
1, 3330, Note_on_c, 1, 61, 127
1, 3481, Note_off_c, 1, 80, 0
1, 3483, Note_off_c, 1, 69, 0
1, 3639, Note_off_c, 1, 61, 0
1, 3641, Note_on_c, 1, 78, 127
1, 3641, Note_on_c, 1, 57, 127
1, 3794, Note_off_c, 1, 78, 0
1, 3797, Note_on_c, 1, 76, 127
1, 3950, Note_off_c, 1, 57, 0
1, 3950, Note_off_c, 1, 76, 0
1, 3952, Note_on_c, 1, 75, 127
1, 3952, Note_on_c, 1, 59, 127
1, 4108, Note_on_c, 1, 76, 127
1, 4146, Note_off_c, 1, 75, 0
1, 4261, Note_off_c, 1, 59, 0
1, 4261, Note_off_c, 1, 76, 0
1, 4263, Note_on_c, 1, 78, 127
1, 4263, Note_on_c, 1, 57, 127
1, 4416, Note_off_c, 1, 78, 0
1, 4419, Note_on_c, 1, 83, 127
1, 4572, Note_off_c, 1, 57, 0
1, 4574, Note_on_c, 1, 71, 127
1, 4574, Note_on_c, 1, 56, 127
1, 4726, Note_off_c, 1, 83, 0
1, 4727, Note_off_c, 1, 71, 0
1, 4883, Note_off_c, 1, 56, 0
1, 4885, Note_on_c, 1, 74, 127
1, 4885, Note_on_c, 1, 52, 127
1, 5038, Note_off_c, 1, 74, 0
1, 5194, Note_off_c, 1, 52, 0
1, 5196, Note_on_c, 1, 73, 127
1, 5196, Note_on_c, 1, 57, 127
1, 5352, Note_on_c, 1, 75, 127
1, 5390, Note_off_c, 1, 73, 0
1, 5505, Note_off_c, 1, 57, 0
1, 5505, Note_off_c, 1, 75, 0
1, 5507, Note_on_c, 1, 76, 127
1, 5507, Note_on_c, 1, 56, 127
1, 5660, Note_off_c, 1, 76, 0
1, 5663, Note_on_c, 1, 81, 127
1, 5816, Note_off_c, 1, 56, 0
1, 5818, Note_on_c, 1, 69, 127
1, 5818, Note_on_c, 1, 54, 127
1, 5970, Note_off_c, 1, 81, 0
1, 5971, Note_off_c, 1, 69, 0
1, 6127, Note_off_c, 1, 54, 0
1, 6129, Note_on_c, 1, 73, 127
1, 6129, Note_on_c, 1, 52, 127
1, 6282, Note_off_c, 1, 73, 0
1, 6438, Note_off_c, 1, 52, 0
1, 6440, Note_on_c, 1, 71, 127
1, 6440, Note_on_c, 1, 51, 127
1, 6634, Note_off_c, 1, 71, 0
1, 6749, Note_off_c, 1, 51, 0
1, 6751, Note_on_c, 1, 76, 127
1, 6751, Note_on_c, 1, 52, 127
1, 6904, Note_off_c, 1, 76, 0
1, 6907, Note_on_c, 1, 80, 127
1, 7060, Note_off_c, 1, 52, 0
1, 7060, Note_off_c, 1, 80, 0
1, 7062, Note_on_c, 1, 69, 127
1, 7062, Note_on_c, 1, 49, 127
1, 7215, Note_off_c, 1, 69, 0
1, 7218, Note_on_c, 1, 71, 127
1, 7371, Note_off_c, 1, 49, 0
1, 7371, Note_off_c, 1, 71, 0
1, 7373, Note_on_c, 1, 73, 127
1, 7373, Note_on_c, 1, 45, 127
1, 7526, Note_off_c, 1, 73, 0
1, 7529, Note_on_c, 1, 78, 127
1, 7682, Note_off_c, 1, 45, 0
1, 7682, Note_off_c, 1, 78, 0
1, 7685, Note_on_c, 1, 68, 127
1, 7685, Note_on_c, 1, 47, 127
1, 7840, Note_on_c, 1, 76, 127
1, 7879, Note_off_c, 1, 68, 0
1, 7994, Note_off_c, 1, 47, 0
1, 7996, Note_on_c, 1, 71, 127
1, 7996, Note_on_c, 1, 44, 127
1, 8147, Note_off_c, 1, 76, 0
1, 8149, Note_off_c, 1, 71, 0
1, 8305, Note_off_c, 1, 44, 0
1, 8307, Note_on_c, 1, 66, 127
1, 8307, Note_on_c, 1, 45, 127
1, 8460, Note_off_c, 1, 66, 0
1, 8462, Note_on_c, 1, 68, 127
1, 8615, Note_off_c, 1, 68, 0
1, 8616, Note_off_c, 1, 45, 0
1, 8618, Note_on_c, 1, 69, 127
1, 8618, Note_on_c, 1, 47, 127
1, 8771, Note_off_c, 1, 69, 0
1, 8773, Note_on_c, 1, 75, 127
1, 8925, Note_off_c, 1, 47, 0
1, 8926, Note_off_c, 1, 75, 0
1, 8929, Note_on_c, 1, 76, 127
1, 9084, Note_on_c, 1, 40, 127
1, 9237, Note_off_c, 1, 40, 0
1, 9240, Note_on_c, 1, 44, 127
1, 9393, Note_off_c, 1, 44, 0
1, 9395, Note_on_c, 1, 47, 127
1, 9544, Note_off_c, 1, 76, 0
1, 9548, Note_off_c, 1, 47, 0
1, 9551, Note_on_c, 1, 52, 127
1, 9706, Note_on_c, 1, 80, 127
1, 9859, Note_off_c, 1, 80, 0
1, 9860, Note_off_c, 1, 52, 0
1, 9862, Note_on_c, 1, 75, 127
1, 9862, Note_on_c, 1, 48, 127
1, 10015, Note_off_c, 1, 75, 0
1, 10017, Note_on_c, 1, 78, 127
1, 10170, Note_off_c, 1, 78, 0
1, 10171, Note_off_c, 1, 48, 0
1, 10173, Note_on_c, 1, 76, 127
1, 10173, Note_on_c, 1, 49, 127
1, 10328, Note_on_c, 1, 75, 127
1, 10367, Note_off_c, 1, 76, 0
1, 10481, Note_off_c, 1, 75, 0
1, 10482, Note_off_c, 1, 49, 0
1, 10484, Note_on_c, 1, 73, 127
1, 10484, Note_on_c, 1, 56, 127
1, 10637, Note_off_c, 1, 73, 0
1, 10639, Note_on_c, 1, 76, 127
1, 10792, Note_off_c, 1, 76, 0
1, 10793, Note_off_c, 1, 56, 0
1, 10795, Note_on_c, 1, 80, 127
1, 10795, Note_on_c, 1, 52, 127
1, 10950, Note_on_c, 1, 73, 127
1, 11021, Note_off_c, 1, 80, 0
1, 11103, Note_off_c, 1, 73, 0
1, 11104, Note_off_c, 1, 52, 0
1, 11106, Note_on_c, 1, 76, 127
1, 11106, Note_on_c, 1, 49, 127
1, 11261, Note_on_c, 1, 71, 127
1, 11332, Note_off_c, 1, 76, 0
1, 11414, Note_off_c, 1, 71, 0
1, 11415, Note_off_c, 1, 49, 0
1, 11417, Note_on_c, 1, 70, 127
1, 11417, Note_on_c, 1, 54, 127
1, 11573, Note_on_c, 1, 68, 127
1, 11611, Note_off_c, 1, 70, 0
1, 11726, Note_off_c, 1, 54, 0
1, 11726, Note_off_c, 1, 68, 0
1, 11728, Note_on_c, 1, 66, 127
1, 11728, Note_on_c, 1, 42, 127
1, 11881, Note_off_c, 1, 66, 0
1, 11884, Note_on_c, 1, 70, 127
1, 12037, Note_off_c, 1, 42, 0
1, 12037, Note_off_c, 1, 70, 0
1, 12039, Note_on_c, 1, 73, 127
1, 12039, Note_on_c, 1, 46, 127
1, 12195, Note_on_c, 1, 66, 127
1, 12265, Note_off_c, 1, 73, 0
1, 12348, Note_off_c, 1, 46, 0
1, 12348, Note_off_c, 1, 66, 0
1, 12350, Note_on_c, 1, 76, 127
1, 12350, Note_on_c, 1, 49, 127
1, 12506, Note_on_c, 1, 66, 127
1, 12576, Note_off_c, 1, 76, 0
1, 12659, Note_off_c, 1, 49, 0
1, 12659, Note_off_c, 1, 66, 0
1, 12661, Note_on_c, 1, 75, 127
1, 12661, Note_on_c, 1, 47, 127
1, 12817, Note_on_c, 1, 73, 127
1, 12855, Note_off_c, 1, 75, 0
1, 12970, Note_off_c, 1, 47, 0
1, 12970, Note_off_c, 1, 73, 0
1, 12972, Note_on_c, 1, 71, 127
1, 12972, Note_on_c, 1, 54, 127
1, 13125, Note_off_c, 1, 71, 0
1, 13128, Note_on_c, 1, 75, 127
1, 13281, Note_off_c, 1, 54, 0
1, 13281, Note_off_c, 1, 75, 0
1, 13283, Note_on_c, 1, 78, 127
1, 13283, Note_on_c, 1, 51, 127
1, 13439, Note_on_c, 1, 71, 127
1, 13509, Note_off_c, 1, 78, 0
1, 13592, Note_off_c, 1, 51, 0
1, 13592, Note_off_c, 1, 71, 0
1, 13594, Note_on_c, 1, 75, 127
1, 13594, Note_on_c, 1, 47, 127
1, 13750, Note_on_c, 1, 69, 127
1, 13820, Note_off_c, 1, 75, 0
1, 13903, Note_off_c, 1, 47, 0
1, 13903, Note_off_c, 1, 69, 0
1, 13905, Note_on_c, 1, 68, 127
1, 13905, Note_on_c, 1, 52, 127
1, 14061, Note_on_c, 1, 66, 127
1, 14099, Note_off_c, 1, 68, 0
1, 14214, Note_off_c, 1, 52, 0
1, 14214, Note_off_c, 1, 66, 0
1, 14216, Note_on_c, 1, 64, 127
1, 14216, Note_on_c, 1, 40, 127
1, 14369, Note_off_c, 1, 64, 0
1, 14372, Note_on_c, 1, 68, 127
1, 14525, Note_off_c, 1, 40, 0
1, 14525, Note_off_c, 1, 68, 0
1, 14527, Note_on_c, 1, 71, 127
1, 14527, Note_on_c, 1, 44, 127
1, 14683, Note_on_c, 1, 64, 127
1, 14753, Note_off_c, 1, 71, 0
1, 14836, Note_off_c, 1, 44, 0
1, 14836, Note_off_c, 1, 64, 0
1, 14838, Note_on_c, 1, 75, 127
1, 14838, Note_on_c, 1, 47, 127
1, 14994, Note_on_c, 1, 64, 127
1, 15064, Note_off_c, 1, 75, 0
1, 15147, Note_off_c, 1, 47, 0
1, 15147, Note_off_c, 1, 64, 0
1, 15149, Note_on_c, 1, 73, 127
1, 15149, Note_on_c, 1, 52, 127
1, 15305, Note_on_c, 1, 75, 127
1, 15343, Note_off_c, 1, 73, 0
1, 15458, Note_off_c, 1, 52, 0
1, 15458, Note_off_c, 1, 75, 0
1, 15461, Note_on_c, 1, 76, 127
1, 15461, Note_on_c, 1, 49, 127
1, 15614, Note_off_c, 1, 76, 0
1, 15616, Note_on_c, 1, 80, 127
1, 15769, Note_off_c, 1, 80, 0
1, 15770, Note_off_c, 1, 49, 0
1, 15772, Note_on_c, 1, 78, 127
1, 15772, Note_on_c, 1, 51, 127
1, 15925, Note_off_c, 1, 78, 0
1, 15927, Note_on_c, 1, 76, 127
1, 16080, Note_off_c, 1, 76, 0
1, 16081, Note_off_c, 1, 51, 0
1, 16083, Note_on_c, 1, 75, 127
1, 16083, Note_on_c, 1, 52, 127
1, 16236, Note_off_c, 1, 75, 0
1, 16238, Note_on_c, 1, 73, 127
1, 16377, Note_off_c, 1, 73, 0
1, 16392, Note_off_c, 1, 52, 0
1, 16394, Note_on_c, 1, 83, 127
1, 16394, Note_on_c, 1, 54, 127
1, 16547, Note_off_c, 1, 83, 0
1, 16549, Note_on_c, 1, 82, 127
1, 16702, Note_off_c, 1, 82, 0
1, 16703, Note_off_c, 1, 54, 0
1, 16705, Note_on_c, 1, 80, 127
1, 16705, Note_on_c, 1, 56, 127
1, 16858, Note_off_c, 1, 80, 0
1, 16860, Note_on_c, 1, 78, 127
1, 17013, Note_off_c, 1, 78, 0
1, 17014, Note_off_c, 1, 56, 0
1, 17016, Note_on_c, 1, 76, 127
1, 17016, Note_on_c, 1, 58, 127
1, 17169, Note_off_c, 1, 76, 0
1, 17171, Note_on_c, 1, 75, 127
1, 17324, Note_off_c, 1, 75, 0
1, 17325, Note_off_c, 1, 58, 0
1, 17327, Note_on_c, 1, 76, 127
1, 17327, Note_on_c, 1, 54, 127
1, 17480, Note_off_c, 1, 76, 0
1, 17482, Note_on_c, 1, 73, 127
1, 17635, Note_off_c, 1, 73, 0
1, 17636, Note_off_c, 1, 54, 0
1, 17638, Note_on_c, 1, 75, 127
1, 17638, Note_on_c, 1, 59, 127
1, 17714, Note_off_c, 1, 75, 0
1, 17716, Note_on_c, 1, 73, 127
1, 17792, Note_off_c, 1, 73, 0
1, 17947, Note_off_c, 1, 59, 0
1, 17949, Note_on_c, 1, 52, 127
1, 18104, Note_on_c, 1, 76, 127
1, 18257, Note_off_c, 1, 76, 0
1, 18258, Note_off_c, 1, 52, 0
1, 18260, Note_on_c, 1, 75, 127
1, 18260, Note_on_c, 1, 54, 127
1, 18336, Note_off_c, 1, 75, 0
1, 18338, Note_on_c, 1, 73, 127
1, 18414, Note_off_c, 1, 73, 0
1, 18569, Note_off_c, 1, 54, 0
1, 18571, Note_on_c, 1, 75, 127
1, 18571, Note_on_c, 1, 42, 127
1, 18647, Note_off_c, 1, 75, 0
1, 18649, Note_on_c, 1, 73, 127
1, 18725, Note_off_c, 1, 73, 0
1, 18726, Note_on_c, 1, 71, 127
1, 18879, Note_off_c, 1, 71, 0
1, 18880, Note_off_c, 1, 42, 0
1, 18882, Note_on_c, 1, 47, 127
1, 18882, Note_on_c, 1, 71, 127
1, 19035, Note_off_c, 1, 47, 0
1, 19037, Note_on_c, 1, 49, 127
1, 19190, Note_off_c, 1, 49, 0
1, 19191, Note_off_c, 1, 71, 0
1, 19193, Note_on_c, 1, 51, 127
1, 19193, Note_on_c, 1, 78, 127
1, 19346, Note_off_c, 1, 51, 0
1, 19349, Note_on_c, 1, 54, 127
1, 19502, Note_off_c, 1, 78, 0
1, 19502, Note_off_c, 1, 54, 0
1, 19504, Note_on_c, 1, 59, 127
1, 19504, Note_on_c, 1, 75, 127
1, 19657, Note_off_c, 1, 59, 0
1, 19660, Note_on_c, 1, 54, 127
1, 19795, Note_off_c, 1, 75, 0
1, 19813, Note_off_c, 1, 54, 0
1, 19815, Note_on_c, 1, 59, 127
1, 19815, Note_on_c, 1, 78, 127
1, 19968, Note_off_c, 1, 59, 0
1, 19968, Note_off_c, 1, 78, 0
1, 19971, Note_on_c, 1, 52, 127
1, 19971, Note_on_c, 1, 70, 127
1, 20124, Note_off_c, 1, 52, 0
1, 20124, Note_off_c, 1, 70, 0
1, 20126, Note_on_c, 1, 51, 127
1, 20126, Note_on_c, 1, 71, 127
1, 20279, Note_off_c, 1, 51, 0
1, 20282, Note_on_c, 1, 52, 127
1, 20417, Note_off_c, 1, 71, 0
1, 20435, Note_off_c, 1, 52, 0
1, 20437, Note_on_c, 1, 54, 127
1, 20437, Note_on_c, 1, 75, 127
1, 20590, Note_off_c, 1, 54, 0
1, 20590, Note_off_c, 1, 75, 0
1, 20593, Note_on_c, 1, 59, 127
1, 20593, Note_on_c, 1, 68, 127
1, 20746, Note_off_c, 1, 59, 0
1, 20746, Note_off_c, 1, 68, 0
1, 20748, Note_on_c, 1, 47, 127
1, 20748, Note_on_c, 1, 69, 127
1, 20901, Note_off_c, 1, 47, 0
1, 20904, Note_on_c, 1, 59, 127
1, 21039, Note_off_c, 1, 69, 0
1, 21057, Note_off_c, 1, 59, 0
1, 21059, Note_on_c, 1, 51, 127
1, 21059, Note_on_c, 1, 71, 127
1, 21212, Note_off_c, 1, 51, 0
1, 21212, Note_off_c, 1, 71, 0
1, 21215, Note_on_c, 1, 59, 127
1, 21215, Note_on_c, 1, 66, 127
1, 21368, Note_off_c, 1, 59, 0
1, 21368, Note_off_c, 1, 66, 0
1, 21370, Note_on_c, 1, 52, 127
1, 21370, Note_on_c, 1, 68, 127
1, 21523, Note_off_c, 1, 52, 0
1, 21526, Note_on_c, 1, 54, 127
1, 21629, Note_off_c, 1, 68, 0
1, 21679, Note_off_c, 1, 54, 0
1, 21681, Note_on_c, 1, 56, 127
1, 21681, Note_on_c, 1, 76, 127
1, 21834, Note_off_c, 1, 56, 0
1, 21837, Note_on_c, 1, 61, 127
1, 21990, Note_off_c, 1, 61, 0
1, 21992, Note_on_c, 1, 49, 127
1, 22145, Note_off_c, 1, 49, 0
1, 22301, Note_off_c, 1, 76, 0
1, 22303, Note_on_c, 1, 52, 127
1, 22303, Note_on_c, 1, 73, 127
1, 22456, Note_off_c, 1, 52, 0
1, 22459, Note_on_c, 1, 61, 127
1, 22612, Note_off_c, 1, 73, 0
1, 22612, Note_off_c, 1, 61, 0
1, 22614, Note_on_c, 1, 54, 127
1, 22614, Note_on_c, 1, 70, 127
1, 22767, Note_off_c, 1, 54, 0
1, 22770, Note_on_c, 1, 56, 127
1, 22873, Note_off_c, 1, 70, 0
1, 22923, Note_off_c, 1, 56, 0
1, 22925, Note_on_c, 1, 58, 127
1, 22925, Note_on_c, 1, 78, 127
1, 23078, Note_off_c, 1, 58, 0
1, 23081, Note_on_c, 1, 63, 127
1, 23234, Note_off_c, 1, 63, 0
1, 23237, Note_on_c, 1, 51, 127
1, 23390, Note_off_c, 1, 51, 0
1, 23545, Note_off_c, 1, 78, 0
1, 23548, Note_on_c, 1, 54, 127
1, 23548, Note_on_c, 1, 75, 127
1, 23701, Note_off_c, 1, 54, 0
1, 23703, Note_on_c, 1, 63, 127
1, 23856, Note_off_c, 1, 63, 0
1, 23857, Note_off_c, 1, 75, 0
1, 23859, Note_on_c, 1, 56, 127
1, 23859, Note_on_c, 1, 71, 127
1, 24012, Note_off_c, 1, 56, 0
1, 24014, Note_on_c, 1, 58, 127
1, 24118, Note_off_c, 1, 71, 0
1, 24167, Note_off_c, 1, 58, 0
1, 24170, Note_on_c, 1, 59, 127
1, 24170, Note_on_c, 1, 80, 127
1, 24323, Note_off_c, 1, 59, 0
1, 24325, Note_on_c, 1, 64, 127
1, 24478, Note_off_c, 1, 64, 0
1, 24481, Note_on_c, 1, 52, 127
1, 24634, Note_off_c, 1, 80, 0
1, 24634, Note_off_c, 1, 52, 0
1, 24636, Note_on_c, 1, 64, 127
1, 24636, Note_on_c, 1, 82, 127
1, 24789, Note_off_c, 1, 64, 0
1, 24789, Note_off_c, 1, 82, 0
1, 24792, Note_on_c, 1, 56, 127
1, 24792, Note_on_c, 1, 83, 127
1, 24945, Note_off_c, 1, 56, 0
1, 24945, Note_off_c, 1, 83, 0
1, 24947, Note_on_c, 1, 64, 127
1, 24947, Note_on_c, 1, 80, 127
1, 25100, Note_off_c, 1, 64, 0
1, 25100, Note_off_c, 1, 80, 0
1, 25103, Note_on_c, 1, 58, 127
1, 25103, Note_on_c, 1, 76, 127
1, 25256, Note_off_c, 1, 58, 0
1, 25256, Note_off_c, 1, 76, 0
1, 25258, Note_on_c, 1, 59, 127
1, 25258, Note_on_c, 1, 75, 127
1, 25411, Note_off_c, 1, 59, 0
1, 25411, Note_off_c, 1, 75, 0
1, 25414, Note_on_c, 1, 61, 127
1, 25414, Note_on_c, 1, 76, 127
1, 25567, Note_off_c, 1, 61, 0
1, 25569, Note_on_c, 1, 66, 127
1, 25722, Note_off_c, 1, 66, 0
1, 25725, Note_on_c, 1, 54, 127
1, 25878, Note_off_c, 1, 76, 0
1, 25878, Note_off_c, 1, 54, 0
1, 25880, Note_on_c, 1, 66, 127
1, 25880, Note_on_c, 1, 80, 127
1, 26033, Note_off_c, 1, 66, 0
1, 26033, Note_off_c, 1, 80, 0
1, 26036, Note_on_c, 1, 58, 127
1, 26036, Note_on_c, 1, 78, 127
1, 26189, Note_off_c, 1, 58, 0
1, 26189, Note_off_c, 1, 78, 0
1, 26191, Note_on_c, 1, 66, 127
1, 26191, Note_on_c, 1, 76, 127
1, 26344, Note_off_c, 1, 66, 0
1, 26344, Note_off_c, 1, 76, 0
1, 26347, Note_on_c, 1, 75, 127
1, 26347, Note_on_c, 1, 59, 127
1, 26500, Note_off_c, 1, 75, 0
1, 26502, Note_on_c, 1, 73, 127
1, 26655, Note_off_c, 1, 73, 0
1, 26656, Note_off_c, 1, 59, 0
1, 26658, Note_on_c, 1, 71, 127
1, 26658, Note_on_c, 1, 56, 127
1, 26811, Note_off_c, 1, 71, 0
1, 26813, Note_on_c, 1, 80, 127
1, 26966, Note_off_c, 1, 80, 0
1, 26967, Note_off_c, 1, 56, 0
1, 26969, Note_on_c, 1, 71, 127
1, 26969, Note_on_c, 1, 52, 127
1, 27122, Note_off_c, 1, 71, 0
1, 27125, Note_on_c, 1, 70, 127
1, 27201, Note_off_c, 1, 70, 0
1, 27278, Note_off_c, 1, 52, 0
1, 27280, Note_on_c, 1, 70, 127
1, 27280, Note_on_c, 1, 54, 127
1, 27506, Note_off_c, 1, 70, 0
1, 27513, Note_on_c, 1, 71, 127
1, 27589, Note_off_c, 1, 54, 0
1, 27589, Note_off_c, 1, 71, 0
1, 27591, Note_on_c, 1, 71, 127
1, 27591, Note_on_c, 1, 59, 127
1, 27744, Note_off_c, 1, 71, 0
1, 27747, Note_on_c, 1, 73, 127
1, 27900, Note_off_c, 1, 73, 0
1, 27902, Note_on_c, 1, 75, 127
1, 28055, Note_off_c, 1, 75, 0
1, 28058, Note_on_c, 1, 78, 127
1, 28211, Note_off_c, 1, 78, 0
1, 28213, Note_on_c, 1, 83, 127
1, 28366, Note_off_c, 1, 83, 0
1, 28989, Note_off_c, 1, 59, 0
1, 28991, Note_on_c, 1, 54, 127
1, 29144, Note_off_c, 1, 54, 0
1, 29146, Note_on_c, 1, 51, 127
1, 29299, Note_off_c, 1, 51, 0
1, 29457, Note_on_c, 1, 47, 127
1, 29910, Note_off_c, 1, 47, 0
1, 29924, Note_on_c, 1, 78, 127
1, 30077, Note_off_c, 1, 78, 0
1, 30079, Note_on_c, 1, 75, 127
1, 30232, Note_off_c, 1, 75, 0
1, 30235, Note_on_c, 1, 76, 127
1, 30388, Note_off_c, 1, 76, 0
1, 30390, Note_on_c, 1, 78, 127
1, 30390, Note_on_c, 1, 47, 127
1, 30546, Note_on_c, 1, 83, 127
1, 30584, Note_off_c, 1, 78, 0
1, 30699, Note_off_c, 1, 47, 0
1, 30701, Note_on_c, 1, 71, 127
1, 30701, Note_on_c, 1, 51, 127
1, 30853, Note_off_c, 1, 83, 0
1, 30854, Note_off_c, 1, 71, 0
1, 31010, Note_off_c, 1, 51, 0
1, 31013, Note_on_c, 1, 73, 127
1, 31013, Note_on_c, 1, 54, 127
1, 31166, Note_off_c, 1, 73, 0
1, 31322, Note_off_c, 1, 54, 0
1, 31324, Note_on_c, 1, 75, 127
1, 31324, Note_on_c, 1, 59, 127
1, 31479, Note_on_c, 1, 76, 127
1, 31518, Note_off_c, 1, 75, 0
1, 31632, Note_off_c, 1, 76, 0
1, 31633, Note_off_c, 1, 59, 0
1, 31635, Note_on_c, 1, 78, 127
1, 31635, Note_on_c, 1, 47, 127
1, 31788, Note_off_c, 1, 78, 0
1, 31790, Note_on_c, 1, 83, 127
1, 31944, Note_off_c, 1, 47, 0
1, 31946, Note_on_c, 1, 71, 127
1, 31946, Note_on_c, 1, 51, 127
1, 32097, Note_off_c, 1, 83, 0
1, 32099, Note_off_c, 1, 71, 0
1, 32255, Note_off_c, 1, 51, 0
1, 32257, Note_on_c, 1, 73, 127
1, 32257, Note_on_c, 1, 54, 127
1, 32410, Note_off_c, 1, 73, 0
1, 32566, Note_off_c, 1, 54, 0
1, 32568, Note_on_c, 1, 75, 127
1, 32568, Note_on_c, 1, 59, 127
1, 32723, Note_on_c, 1, 78, 127
1, 32762, Note_off_c, 1, 75, 0
1, 32876, Note_off_c, 1, 78, 0
1, 32877, Note_off_c, 1, 59, 0
1, 32879, Note_on_c, 1, 80, 127
1, 32879, Note_on_c, 1, 54, 127
1, 33032, Note_off_c, 1, 80, 0
1, 33034, Note_on_c, 1, 81, 127
1, 33188, Note_off_c, 1, 54, 0
1, 33190, Note_on_c, 1, 71, 127
1, 33190, Note_on_c, 1, 51, 127
1, 33341, Note_off_c, 1, 81, 0
1, 33343, Note_off_c, 1, 71, 0
1, 33499, Note_off_c, 1, 51, 0
1, 33501, Note_on_c, 1, 80, 127
1, 33501, Note_on_c, 1, 47, 127
1, 33654, Note_off_c, 1, 80, 0
1, 33656, Note_on_c, 1, 78, 127
1, 33809, Note_off_c, 1, 78, 0
1, 33810, Note_off_c, 1, 47, 0
1, 33812, Note_on_c, 1, 80, 127
1, 33812, Note_on_c, 1, 52, 127
1, 33965, Note_off_c, 1, 80, 0
1, 33967, Note_on_c, 1, 78, 127
1, 34120, Note_off_c, 1, 78, 0
1, 34121, Note_off_c, 1, 52, 0
1, 34123, Note_on_c, 1, 76, 127
1, 34123, Note_on_c, 1, 40, 127
1, 34276, Note_off_c, 1, 76, 0
1, 34278, Note_on_c, 1, 80, 127
1, 34430, Note_off_c, 1, 40, 0
1, 34434, Note_on_c, 1, 71, 127
1, 34585, Note_off_c, 1, 80, 0
1, 34587, Note_off_c, 1, 71, 0
1, 34589, Note_on_c, 1, 80, 127
1, 34745, Note_on_c, 1, 68, 127
1, 34745, Note_on_c, 1, 64, 127
1, 34896, Note_off_c, 1, 80, 0
1, 34898, Note_off_c, 1, 68, 0
1, 35056, Note_on_c, 1, 70, 127
1, 35209, Note_off_c, 1, 70, 0
1, 35212, Note_on_c, 1, 72, 127
1, 35365, Note_off_c, 1, 64, 0
1, 35365, Note_off_c, 1, 72, 0
1, 35367, Note_on_c, 1, 63, 127
1, 35367, Note_on_c, 1, 73, 127
1, 35520, Note_off_c, 1, 63, 0
1, 35520, Note_off_c, 1, 73, 0
1, 35523, Note_on_c, 1, 61, 127
1, 35523, Note_on_c, 1, 78, 127
1, 35676, Note_off_c, 1, 61, 0
1, 35678, Note_on_c, 1, 75, 127
1, 35678, Note_on_c, 1, 60, 127
1, 35830, Note_off_c, 1, 78, 0
1, 35831, Note_off_c, 1, 75, 0
1, 35987, Note_off_c, 1, 60, 0
1, 35989, Note_on_c, 1, 72, 127
1, 35989, Note_on_c, 1, 56, 127
1, 36142, Note_off_c, 1, 72, 0
1, 36298, Note_off_c, 1, 56, 0
1, 36300, Note_on_c, 1, 76, 127
1, 36300, Note_on_c, 1, 61, 127
1, 36453, Note_off_c, 1, 76, 0
1, 36456, Note_on_c, 1, 75, 127
1, 36609, Note_off_c, 1, 61, 0
1, 36609, Note_off_c, 1, 75, 0
1, 36611, Note_on_c, 1, 73, 127
1, 36611, Note_on_c, 1, 49, 127
1, 36764, Note_off_c, 1, 73, 0
1, 36767, Note_on_c, 1, 76, 127
1, 36918, Note_off_c, 1, 49, 0
1, 36922, Note_on_c, 1, 68, 127
1, 37074, Note_off_c, 1, 76, 0
1, 37075, Note_off_c, 1, 68, 0
1, 37078, Note_on_c, 1, 76, 127
1, 37233, Note_on_c, 1, 64, 127
1, 37233, Note_on_c, 1, 61, 127
1, 37385, Note_off_c, 1, 76, 0
1, 37386, Note_off_c, 1, 64, 0
1, 37544, Note_on_c, 1, 66, 127
1, 37697, Note_off_c, 1, 66, 0
1, 37700, Note_on_c, 1, 68, 127
1, 37853, Note_off_c, 1, 61, 0
1, 37853, Note_off_c, 1, 68, 0
1, 37855, Note_on_c, 1, 59, 127
1, 37855, Note_on_c, 1, 69, 127
1, 38008, Note_off_c, 1, 59, 0
1, 38008, Note_off_c, 1, 69, 0
1, 38011, Note_on_c, 1, 57, 127
1, 38011, Note_on_c, 1, 74, 127
1, 38164, Note_off_c, 1, 57, 0
1, 38166, Note_on_c, 1, 71, 127
1, 38166, Note_on_c, 1, 56, 127
1, 38318, Note_off_c, 1, 74, 0
1, 38319, Note_off_c, 1, 71, 0
1, 38475, Note_off_c, 1, 56, 0
1, 38477, Note_on_c, 1, 68, 127
1, 38477, Note_on_c, 1, 52, 127
1, 38630, Note_off_c, 1, 68, 0
1, 38786, Note_off_c, 1, 52, 0
1, 38789, Note_on_c, 1, 73, 127
1, 38789, Note_on_c, 1, 57, 127
1, 38942, Note_off_c, 1, 73, 0
1, 38944, Note_on_c, 1, 71, 127
1, 39097, Note_off_c, 1, 71, 0
1, 39098, Note_off_c, 1, 57, 0
1, 39100, Note_on_c, 1, 69, 127
1, 39100, Note_on_c, 1, 45, 127
1, 39253, Note_off_c, 1, 69, 0
1, 39255, Note_on_c, 1, 73, 127
1, 39407, Note_off_c, 1, 45, 0
1, 39408, Note_off_c, 1, 73, 0
1, 39411, Note_on_c, 1, 78, 127
1, 39566, Note_on_c, 1, 73, 127
1, 39718, Note_off_c, 1, 78, 0
1, 39719, Note_off_c, 1, 73, 0
1, 39722, Note_on_c, 1, 57, 127
1, 39722, Note_on_c, 1, 81, 127
1, 39875, Note_off_c, 1, 57, 0
1, 39877, Note_on_c, 1, 55, 127
1, 39877, Note_on_c, 1, 73, 127
1, 40029, Note_off_c, 1, 81, 0
1, 40030, Note_off_c, 1, 55, 0
1, 40030, Note_off_c, 1, 73, 0
1, 40033, Note_on_c, 1, 74, 127
1, 40033, Note_on_c, 1, 54, 127
1, 40186, Note_off_c, 1, 74, 0
1, 40188, Note_on_c, 1, 76, 127
1, 40341, Note_off_c, 1, 76, 0
1, 40342, Note_off_c, 1, 54, 0
1, 40344, Note_on_c, 1, 57, 127
1, 40344, Note_on_c, 1, 78, 127
1, 40497, Note_off_c, 1, 57, 0
1, 40497, Note_off_c, 1, 78, 0
1, 40499, Note_on_c, 1, 55, 127
1, 40499, Note_on_c, 1, 81, 127
1, 40652, Note_off_c, 1, 55, 0
1, 40652, Note_off_c, 1, 81, 0
1, 40655, Note_on_c, 1, 74, 127
1, 40655, Note_on_c, 1, 54, 127
1, 40810, Note_on_c, 1, 78, 127
1, 40881, Note_off_c, 1, 74, 0
1, 40963, Note_off_c, 1, 78, 0
1, 40964, Note_off_c, 1, 54, 0
1, 40966, Note_on_c, 1, 69, 127
1, 40966, Note_on_c, 1, 42, 127
1, 41121, Note_on_c, 1, 74, 127
1, 41192, Note_off_c, 1, 69, 0
1, 41273, Note_off_c, 1, 42, 0
1, 41274, Note_off_c, 1, 74, 0
1, 41277, Note_on_c, 1, 66, 127
1, 41430, Note_off_c, 1, 66, 0
1, 41432, Note_on_c, 1, 64, 127
1, 41585, Note_off_c, 1, 64, 0
1, 41588, Note_on_c, 1, 57, 127
1, 41588, Note_on_c, 1, 62, 127
1, 41741, Note_off_c, 1, 57, 0
1, 41741, Note_off_c, 1, 62, 0
1, 41743, Note_on_c, 1, 55, 127
1, 41743, Note_on_c, 1, 66, 127
1, 41896, Note_off_c, 1, 55, 0
1, 41896, Note_off_c, 1, 66, 0
1, 41899, Note_on_c, 1, 69, 127
1, 41899, Note_on_c, 1, 54, 127
1, 42054, Note_on_c, 1, 66, 127
1, 42125, Note_off_c, 1, 69, 0
1, 42207, Note_off_c, 1, 66, 0
1, 42208, Note_off_c, 1, 54, 0
1, 42210, Note_on_c, 1, 57, 127
1, 42210, Note_on_c, 1, 74, 127
1, 42363, Note_off_c, 1, 57, 0
1, 42365, Note_on_c, 1, 55, 127
1, 42365, Note_on_c, 1, 69, 127
1, 42436, Note_off_c, 1, 74, 0
1, 42518, Note_off_c, 1, 55, 0
1, 42518, Note_off_c, 1, 69, 0
1, 42521, Note_on_c, 1, 75, 127
1, 42521, Note_on_c, 1, 54, 127
1, 42674, Note_off_c, 1, 75, 0
1, 42677, Note_on_c, 1, 76, 127
1, 42830, Note_off_c, 1, 54, 0
1, 42830, Note_off_c, 1, 76, 0
1, 42832, Note_on_c, 1, 78, 127
1, 42832, Note_on_c, 1, 42, 127
1, 42988, Note_on_c, 1, 81, 127
1, 43058, Note_off_c, 1, 78, 0
1, 43139, Note_off_c, 1, 42, 0
1, 43141, Note_off_c, 1, 81, 0
1, 43143, Note_on_c, 1, 75, 127
1, 43299, Note_on_c, 1, 78, 127
1, 43369, Note_off_c, 1, 75, 0
1, 43452, Note_off_c, 1, 78, 0
1, 43454, Note_on_c, 1, 54, 127
1, 43454, Note_on_c, 1, 72, 127
1, 43607, Note_off_c, 1, 54, 0
1, 43607, Note_off_c, 1, 72, 0
1, 43610, Note_on_c, 1, 56, 127
1, 43610, Note_on_c, 1, 75, 127
1, 43763, Note_off_c, 1, 56, 0
1, 43763, Note_off_c, 1, 75, 0
1, 43765, Note_on_c, 1, 66, 127
1, 43765, Note_on_c, 1, 57, 127
1, 43918, Note_off_c, 1, 66, 0
1, 43921, Note_on_c, 1, 64, 127
1, 44074, Note_off_c, 1, 57, 0
1, 44074, Note_off_c, 1, 64, 0
1, 44076, Note_on_c, 1, 63, 127
1, 44076, Note_on_c, 1, 54, 127
1, 44229, Note_off_c, 1, 63, 0
1, 44232, Note_on_c, 1, 66, 127
1, 44385, Note_off_c, 1, 54, 0
1, 44385, Note_off_c, 1, 66, 0
1, 44387, Note_on_c, 1, 72, 127
1, 44387, Note_on_c, 1, 51, 127
1, 44543, Note_on_c, 1, 66, 127
1, 44613, Note_off_c, 1, 72, 0
1, 44696, Note_off_c, 1, 51, 0
1, 44696, Note_off_c, 1, 66, 0
1, 44698, Note_on_c, 1, 56, 127
1, 44698, Note_on_c, 1, 75, 127
1, 44851, Note_off_c, 1, 56, 0
1, 44854, Note_on_c, 1, 54, 127
1, 44854, Note_on_c, 1, 72, 127
1, 44924, Note_off_c, 1, 75, 0
1, 45007, Note_off_c, 1, 54, 0
1, 45007, Note_off_c, 1, 72, 0
1, 45009, Note_on_c, 1, 80, 127
1, 45009, Note_on_c, 1, 52, 127
1, 45162, Note_off_c, 1, 80, 0
1, 45165, Note_on_c, 1, 78, 127
1, 45318, Note_off_c, 1, 52, 0
1, 45318, Note_off_c, 1, 78, 0
1, 45320, Note_on_c, 1, 56, 127
1, 45320, Note_on_c, 1, 76, 127
1, 45473, Note_off_c, 1, 56, 0
1, 45473, Note_off_c, 1, 76, 0
1, 45476, Note_on_c, 1, 54, 127
1, 45476, Note_on_c, 1, 80, 127
1, 45629, Note_off_c, 1, 54, 0
1, 45629, Note_off_c, 1, 80, 0
1, 45631, Note_on_c, 1, 73, 127
1, 45631, Note_on_c, 1, 52, 127
1, 45787, Note_on_c, 1, 80, 127
1, 45857, Note_off_c, 1, 73, 0
1, 45940, Note_off_c, 1, 52, 0
1, 45940, Note_off_c, 1, 80, 0
1, 45942, Note_on_c, 1, 54, 127
1, 45942, Note_on_c, 1, 69, 127
1, 46095, Note_off_c, 1, 54, 0
1, 46098, Note_on_c, 1, 52, 127
1, 46098, Note_on_c, 1, 80, 127
1, 46168, Note_off_c, 1, 69, 0
1, 46251, Note_off_c, 1, 52, 0
1, 46251, Note_off_c, 1, 80, 0
1, 46253, Note_on_c, 1, 78, 127
1, 46253, Note_on_c, 1, 51, 127
1, 46406, Note_off_c, 1, 78, 0
1, 46409, Note_on_c, 1, 76, 127
1, 46562, Note_off_c, 1, 51, 0
1, 46562, Note_off_c, 1, 76, 0
1, 46565, Note_on_c, 1, 54, 127
1, 46565, Note_on_c, 1, 75, 127
1, 46718, Note_off_c, 1, 54, 0
1, 46718, Note_off_c, 1, 75, 0
1, 46720, Note_on_c, 1, 52, 127
1, 46720, Note_on_c, 1, 78, 127
1, 46873, Note_off_c, 1, 52, 0
1, 46873, Note_off_c, 1, 78, 0
1, 46876, Note_on_c, 1, 72, 127
1, 46876, Note_on_c, 1, 51, 127
1, 47031, Note_on_c, 1, 78, 127
1, 47102, Note_off_c, 1, 72, 0
1, 47184, Note_off_c, 1, 78, 0
1, 47185, Note_off_c, 1, 51, 0
1, 47187, Note_on_c, 1, 52, 127
1, 47187, Note_on_c, 1, 68, 127
1, 47340, Note_off_c, 1, 52, 0
1, 47342, Note_on_c, 1, 51, 127
1, 47342, Note_on_c, 1, 78, 127
1, 47413, Note_off_c, 1, 68, 0
1, 47495, Note_off_c, 1, 51, 0
1, 47495, Note_off_c, 1, 78, 0
1, 47498, Note_on_c, 1, 76, 127
1, 47498, Note_on_c, 1, 49, 127
1, 47651, Note_off_c, 1, 76, 0
1, 47653, Note_on_c, 1, 75, 127
1, 47806, Note_off_c, 1, 75, 0
1, 47807, Note_off_c, 1, 49, 0
1, 47809, Note_on_c, 1, 73, 127
1, 47809, Note_on_c, 1, 54, 127
1, 47962, Note_off_c, 1, 73, 0
1, 47964, Note_on_c, 1, 76, 127
1, 48117, Note_off_c, 1, 76, 0
1, 48118, Note_off_c, 1, 54, 0
1, 48120, Note_on_c, 1, 68, 127
1, 48120, Note_on_c, 1, 56, 127
1, 48275, Note_on_c, 1, 73, 127
1, 48346, Note_off_c, 1, 68, 0
1, 48428, Note_off_c, 1, 73, 0
1, 48429, Note_off_c, 1, 56, 0
1, 48431, Note_on_c, 1, 75, 127
1, 48431, Note_on_c, 1, 44, 127
1, 48584, Note_off_c, 1, 75, 0
1, 48586, Note_on_c, 1, 72, 127
1, 48739, Note_off_c, 1, 72, 0
1, 48740, Note_off_c, 1, 44, 0
1, 48742, Note_on_c, 1, 49, 127
1, 48742, Note_on_c, 1, 73, 127
1, 48895, Note_off_c, 1, 49, 0
1, 48897, Note_on_c, 1, 51, 127
1, 49033, Note_off_c, 1, 73, 0
1, 49050, Note_off_c, 1, 51, 0
1, 49053, Note_on_c, 1, 52, 127
1, 49053, Note_on_c, 1, 80, 127
1, 49206, Note_off_c, 1, 52, 0
1, 49206, Note_off_c, 1, 80, 0
1, 49208, Note_on_c, 1, 56, 127
1, 49208, Note_on_c, 1, 76, 127
1, 49361, Note_off_c, 1, 56, 0
1, 49361, Note_off_c, 1, 76, 0
1, 49364, Note_on_c, 1, 61, 127
1, 49364, Note_on_c, 1, 73, 127
1, 49517, Note_off_c, 1, 61, 0
1, 49519, Note_on_c, 1, 56, 127
1, 49623, Note_off_c, 1, 73, 0
1, 49672, Note_off_c, 1, 56, 0
1, 49675, Note_on_c, 1, 61, 127
1, 49675, Note_on_c, 1, 76, 127
1, 49828, Note_off_c, 1, 61, 0
1, 49828, Note_off_c, 1, 76, 0
1, 49830, Note_on_c, 1, 52, 127
1, 49830, Note_on_c, 1, 68, 127
1, 49983, Note_off_c, 1, 52, 0
1, 49983, Note_off_c, 1, 68, 0
1, 49986, Note_on_c, 1, 54, 127
1, 49986, Note_on_c, 1, 69, 127
1, 50139, Note_off_c, 1, 54, 0
1, 50141, Note_on_c, 1, 56, 127
1, 50245, Note_off_c, 1, 69, 0
1, 50294, Note_off_c, 1, 56, 0
1, 50297, Note_on_c, 1, 57, 127
1, 50297, Note_on_c, 1, 73, 127
1, 50450, Note_off_c, 1, 57, 0
1, 50450, Note_off_c, 1, 73, 0
1, 50453, Note_on_c, 1, 61, 127
1, 50453, Note_on_c, 1, 69, 127
1, 50606, Note_off_c, 1, 61, 0
1, 50606, Note_off_c, 1, 69, 0
1, 50608, Note_on_c, 1, 57, 127
1, 50608, Note_on_c, 1, 66, 127
1, 50761, Note_off_c, 1, 57, 0
1, 50764, Note_on_c, 1, 61, 127
1, 50867, Note_off_c, 1, 66, 0
1, 50917, Note_off_c, 1, 61, 0
1, 50919, Note_on_c, 1, 54, 127
1, 50919, Note_on_c, 1, 69, 127
1, 51072, Note_off_c, 1, 54, 0
1, 51072, Note_off_c, 1, 69, 0
1, 51075, Note_on_c, 1, 57, 127
1, 51075, Note_on_c, 1, 61, 127
1, 51228, Note_off_c, 1, 57, 0
1, 51228, Note_off_c, 1, 61, 0
1, 51230, Note_on_c, 1, 47, 127
1, 51230, Note_on_c, 1, 63, 127
1, 51383, Note_off_c, 1, 47, 0
1, 51386, Note_on_c, 1, 49, 127
1, 51489, Note_off_c, 1, 63, 0
1, 51539, Note_off_c, 1, 49, 0
1, 51541, Note_on_c, 1, 51, 127
1, 51541, Note_on_c, 1, 78, 127
1, 51694, Note_off_c, 1, 51, 0
1, 51694, Note_off_c, 1, 78, 0
1, 51697, Note_on_c, 1, 54, 127
1, 51697, Note_on_c, 1, 75, 127
1, 51850, Note_off_c, 1, 54, 0
1, 51850, Note_off_c, 1, 75, 0
1, 51852, Note_on_c, 1, 59, 127
1, 51852, Note_on_c, 1, 71, 127
1, 52005, Note_off_c, 1, 59, 0
1, 52008, Note_on_c, 1, 54, 127
1, 52111, Note_off_c, 1, 71, 0
1, 52161, Note_off_c, 1, 54, 0
1, 52163, Note_on_c, 1, 59, 127
1, 52163, Note_on_c, 1, 75, 127
1, 52316, Note_off_c, 1, 59, 0
1, 52316, Note_off_c, 1, 75, 0
1, 52319, Note_on_c, 1, 51, 127
1, 52319, Note_on_c, 1, 66, 127
1, 52472, Note_off_c, 1, 51, 0
1, 52472, Note_off_c, 1, 66, 0
1, 52474, Note_on_c, 1, 52, 127
1, 52474, Note_on_c, 1, 68, 127
1, 52627, Note_off_c, 1, 52, 0
1, 52630, Note_on_c, 1, 54, 127
1, 52733, Note_off_c, 1, 68, 0
1, 52783, Note_off_c, 1, 54, 0
1, 52785, Note_on_c, 1, 56, 127
1, 52785, Note_on_c, 1, 71, 127
1, 52938, Note_off_c, 1, 56, 0
1, 52938, Note_off_c, 1, 71, 0
1, 52941, Note_on_c, 1, 59, 127
1, 52941, Note_on_c, 1, 68, 127
1, 53094, Note_off_c, 1, 59, 0
1, 53094, Note_off_c, 1, 68, 0
1, 53096, Note_on_c, 1, 56, 127
1, 53096, Note_on_c, 1, 64, 127
1, 53249, Note_off_c, 1, 56, 0
1, 53252, Note_on_c, 1, 59, 127
1, 53355, Note_off_c, 1, 64, 0
1, 53405, Note_off_c, 1, 59, 0
1, 53407, Note_on_c, 1, 52, 127
1, 53407, Note_on_c, 1, 68, 127
1, 53560, Note_off_c, 1, 52, 0
1, 53560, Note_off_c, 1, 68, 0
1, 53563, Note_on_c, 1, 56, 127
1, 53563, Note_on_c, 1, 59, 127
1, 53716, Note_off_c, 1, 56, 0
1, 53716, Note_off_c, 1, 59, 0
1, 53718, Note_on_c, 1, 45, 127
1, 53718, Note_on_c, 1, 61, 127
1, 53871, Note_off_c, 1, 45, 0
1, 53874, Note_on_c, 1, 47, 127
1, 53977, Note_off_c, 1, 61, 0
1, 54027, Note_off_c, 1, 47, 0
1, 54029, Note_on_c, 1, 49, 127
1, 54029, Note_on_c, 1, 69, 127
1, 54182, Note_off_c, 1, 49, 0
1, 54185, Note_on_c, 1, 54, 127
1, 54338, Note_off_c, 1, 54, 0
1, 54341, Note_on_c, 1, 42, 127
1, 54494, Note_off_c, 1, 42, 0
1, 54649, Note_off_c, 1, 69, 0
1, 54652, Note_on_c, 1, 45, 127
1, 54652, Note_on_c, 1, 66, 127
1, 54805, Note_off_c, 1, 45, 0
1, 54807, Note_on_c, 1, 54, 127
1, 54943, Note_off_c, 1, 66, 0
1, 54960, Note_off_c, 1, 54, 0
1, 54963, Note_on_c, 1, 47, 127
1, 54963, Note_on_c, 1, 63, 127
1, 55116, Note_off_c, 1, 47, 0
1, 55118, Note_on_c, 1, 49, 127
1, 55254, Note_off_c, 1, 63, 0
1, 55271, Note_off_c, 1, 49, 0
1, 55274, Note_on_c, 1, 51, 127
1, 55274, Note_on_c, 1, 71, 127
1, 55427, Note_off_c, 1, 51, 0
1, 55429, Note_on_c, 1, 56, 127
1, 55582, Note_off_c, 1, 56, 0
1, 55585, Note_on_c, 1, 44, 127
1, 55738, Note_off_c, 1, 44, 0
1, 55894, Note_off_c, 1, 71, 0
1, 55896, Note_on_c, 1, 47, 127
1, 55896, Note_on_c, 1, 68, 127
1, 56049, Note_off_c, 1, 47, 0
1, 56051, Note_on_c, 1, 56, 127
1, 56187, Note_off_c, 1, 68, 0
1, 56204, Note_off_c, 1, 56, 0
1, 56207, Note_on_c, 1, 49, 127
1, 56207, Note_on_c, 1, 64, 127
1, 56360, Note_off_c, 1, 49, 0
1, 56362, Note_on_c, 1, 51, 127
1, 56498, Note_off_c, 1, 64, 0
1, 56515, Note_off_c, 1, 51, 0
1, 56518, Note_on_c, 1, 52, 127
1, 56518, Note_on_c, 1, 73, 127
1, 56671, Note_off_c, 1, 52, 0
1, 56673, Note_on_c, 1, 57, 127
1, 56826, Note_off_c, 1, 57, 0
1, 56829, Note_on_c, 1, 45, 127
1, 56982, Note_off_c, 1, 73, 0
1, 56982, Note_off_c, 1, 45, 0
1, 56984, Note_on_c, 1, 57, 127
1, 56984, Note_on_c, 1, 75, 127
1, 57137, Note_off_c, 1, 57, 0
1, 57137, Note_off_c, 1, 75, 0
1, 57140, Note_on_c, 1, 49, 127
1, 57140, Note_on_c, 1, 76, 127
1, 57293, Note_off_c, 1, 49, 0
1, 57293, Note_off_c, 1, 76, 0
1, 57295, Note_on_c, 1, 57, 127
1, 57295, Note_on_c, 1, 73, 127
1, 57448, Note_off_c, 1, 57, 0
1, 57448, Note_off_c, 1, 73, 0
1, 57451, Note_on_c, 1, 51, 127
1, 57451, Note_on_c, 1, 69, 127
1, 57604, Note_off_c, 1, 51, 0
1, 57604, Note_off_c, 1, 69, 0
1, 57606, Note_on_c, 1, 52, 127
1, 57606, Note_on_c, 1, 68, 127
1, 57759, Note_off_c, 1, 52, 0
1, 57759, Note_off_c, 1, 68, 0
1, 57762, Note_on_c, 1, 54, 127
1, 57762, Note_on_c, 1, 69, 127
1, 57915, Note_off_c, 1, 54, 0
1, 57917, Note_on_c, 1, 59, 127
1, 58070, Note_off_c, 1, 59, 0
1, 58073, Note_on_c, 1, 47, 127
1, 58183, Note_off_c, 1, 69, 0
1, 58226, Note_off_c, 1, 47, 0
1, 58229, Note_on_c, 1, 59, 127
1, 58229, Note_on_c, 1, 73, 127
1, 58382, Note_off_c, 1, 59, 0
1, 58382, Note_off_c, 1, 73, 0
1, 58384, Note_on_c, 1, 51, 127
1, 58384, Note_on_c, 1, 71, 127
1, 58537, Note_off_c, 1, 51, 0
1, 58537, Note_off_c, 1, 71, 0
1, 58540, Note_on_c, 1, 59, 127
1, 58540, Note_on_c, 1, 69, 127
1, 58693, Note_off_c, 1, 59, 0
1, 58693, Note_off_c, 1, 69, 0
1, 58695, Note_on_c, 1, 68, 127
1, 58695, Note_on_c, 1, 52, 127
1, 58848, Note_off_c, 1, 68, 0
1, 58851, Note_on_c, 1, 66, 127
1, 59004, Note_off_c, 1, 52, 0
1, 59004, Note_off_c, 1, 66, 0
1, 59006, Note_on_c, 1, 64, 127
1, 59006, Note_on_c, 1, 49, 127
1, 59159, Note_off_c, 1, 64, 0
1, 59162, Note_on_c, 1, 73, 127
1, 59315, Note_off_c, 1, 49, 0
1, 59315, Note_off_c, 1, 73, 0
1, 59317, Note_on_c, 1, 68, 127
1, 59317, Note_on_c, 1, 45, 127
1, 59393, Note_off_c, 1, 68, 0
1, 59395, Note_on_c, 1, 66, 127
1, 59471, Note_off_c, 1, 66, 0
1, 59626, Note_off_c, 1, 45, 0
1, 59628, Note_on_c, 1, 68, 127
1, 59628, Note_on_c, 1, 47, 127
1, 59704, Note_off_c, 1, 68, 0
1, 59706, Note_on_c, 1, 66, 127
1, 59782, Note_off_c, 1, 66, 0
1, 59784, Note_on_c, 1, 64, 127
1, 59937, Note_off_c, 1, 47, 0
1, 59937, Note_off_c, 1, 64, 0
1, 59939, Note_on_c, 1, 64, 127
1, 59939, Note_on_c, 1, 40, 127
1, 60095, Note_on_c, 1, 66, 127
1, 60133, Note_off_c, 1, 64, 0
1, 60248, Note_off_c, 1, 40, 0
1, 60248, Note_off_c, 1, 66, 0
1, 60250, Note_on_c, 1, 68, 127
1, 60250, Note_on_c, 1, 59, 127
1, 60403, Note_off_c, 1, 68, 0
1, 60406, Note_on_c, 1, 69, 127
1, 60559, Note_off_c, 1, 59, 0
1, 60559, Note_off_c, 1, 69, 0
1, 60561, Note_on_c, 1, 71, 127
1, 60561, Note_on_c, 1, 56, 127
1, 60717, Note_on_c, 1, 64, 127
1, 60868, Note_off_c, 1, 71, 0
1, 60870, Note_off_c, 1, 56, 0
1, 60870, Note_off_c, 1, 64, 0
1, 60872, Note_on_c, 1, 74, 127
1, 60872, Note_on_c, 1, 52, 127
1, 61028, Note_on_c, 1, 64, 127
1, 61179, Note_off_c, 1, 74, 0
1, 61181, Note_off_c, 1, 52, 0
1, 61181, Note_off_c, 1, 64, 0
1, 61183, Note_on_c, 1, 73, 127
1, 61183, Note_on_c, 1, 57, 127
1, 61339, Note_on_c, 1, 71, 127
1, 61377, Note_off_c, 1, 73, 0
1, 61492, Note_off_c, 1, 57, 0
1, 61492, Note_off_c, 1, 71, 0
1, 61494, Note_on_c, 1, 69, 127
1, 61494, Note_on_c, 1, 45, 127
1, 61647, Note_off_c, 1, 69, 0
1, 61650, Note_on_c, 1, 73, 127
1, 61803, Note_off_c, 1, 45, 0
1, 61803, Note_off_c, 1, 73, 0
1, 61805, Note_on_c, 1, 76, 127
1, 61805, Note_on_c, 1, 49, 127
1, 61961, Note_on_c, 1, 69, 127
1, 62112, Note_off_c, 1, 76, 0
1, 62114, Note_off_c, 1, 49, 0
1, 62114, Note_off_c, 1, 69, 0
1, 62117, Note_on_c, 1, 73, 127
1, 62117, Note_on_c, 1, 52, 127
1, 62272, Note_on_c, 1, 68, 127
1, 62424, Note_off_c, 1, 73, 0
1, 62425, Note_off_c, 1, 68, 0
1, 62426, Note_off_c, 1, 52, 0
1, 62428, Note_on_c, 1, 66, 127
1, 62428, Note_on_c, 1, 46, 127
1, 62583, Note_on_c, 1, 68, 127
1, 62622, Note_off_c, 1, 66, 0
1, 62736, Note_off_c, 1, 68, 0
1, 62737, Note_off_c, 1, 46, 0
1, 62739, Note_on_c, 1, 70, 127
1, 62739, Note_on_c, 1, 61, 127
1, 62892, Note_off_c, 1, 70, 0
1, 62894, Note_on_c, 1, 71, 127
1, 63047, Note_off_c, 1, 71, 0
1, 63048, Note_off_c, 1, 61, 0
1, 63050, Note_on_c, 1, 73, 127
1, 63050, Note_on_c, 1, 58, 127
1, 63205, Note_on_c, 1, 66, 127
1, 63357, Note_off_c, 1, 73, 0
1, 63358, Note_off_c, 1, 66, 0
1, 63359, Note_off_c, 1, 58, 0
1, 63361, Note_on_c, 1, 76, 127
1, 63361, Note_on_c, 1, 54, 127
1, 63516, Note_on_c, 1, 66, 127
1, 63668, Note_off_c, 1, 76, 0
1, 63669, Note_off_c, 1, 66, 0
1, 63670, Note_off_c, 1, 54, 0
1, 63672, Note_on_c, 1, 75, 127
1, 63672, Note_on_c, 1, 59, 127
1, 63827, Note_on_c, 1, 73, 127
1, 63866, Note_off_c, 1, 75, 0
1, 63980, Note_off_c, 1, 73, 0
1, 63981, Note_off_c, 1, 59, 0
1, 63983, Note_on_c, 1, 71, 127
1, 63983, Note_on_c, 1, 47, 127
1, 64136, Note_off_c, 1, 71, 0
1, 64138, Note_on_c, 1, 75, 127
1, 64291, Note_off_c, 1, 75, 0
1, 64292, Note_off_c, 1, 47, 0
1, 64294, Note_on_c, 1, 78, 127
1, 64294, Note_on_c, 1, 51, 127
1, 64449, Note_on_c, 1, 75, 127
1, 64601, Note_off_c, 1, 78, 0
1, 64602, Note_off_c, 1, 75, 0
1, 64603, Note_off_c, 1, 51, 0
1, 64605, Note_on_c, 1, 81, 127
1, 64605, Note_on_c, 1, 54, 127
1, 64760, Note_on_c, 1, 78, 127
1, 64912, Note_off_c, 1, 81, 0
1, 64913, Note_off_c, 1, 78, 0
1, 64914, Note_off_c, 1, 54, 0
1, 64916, Note_on_c, 1, 75, 127
1, 64916, Note_on_c, 1, 47, 127
1, 65075, Note_on_c, 1, 76, 127
1, 65110, Note_off_c, 1, 75, 0
1, 65232, Note_off_c, 1, 76, 0
1, 65233, Note_off_c, 1, 47, 0
1, 65235, Note_on_c, 1, 78, 127
1, 65235, Note_on_c, 1, 54, 127
1, 65392, Note_off_c, 1, 78, 0
1, 65395, Note_on_c, 1, 81, 127
1, 65552, Note_off_c, 1, 54, 0
1, 65552, Note_off_c, 1, 81, 0
1, 65556, Note_on_c, 1, 80, 127
1, 65556, Note_on_c, 1, 51, 127
1, 65713, Note_off_c, 1, 80, 0
1, 65716, Note_on_c, 1, 78, 127
1, 65873, Note_off_c, 1, 51, 0
1, 65873, Note_off_c, 1, 78, 0
1, 65877, Note_on_c, 1, 76, 127
1, 65877, Note_on_c, 1, 47, 127
1, 66034, Note_off_c, 1, 76, 0
1, 66037, Note_on_c, 1, 75, 127
1, 66169, Note_off_c, 1, 75, 0
1, 66194, Note_off_c, 1, 47, 0
1, 66197, Note_on_c, 1, 83, 127
1, 66197, Note_on_c, 1, 45, 127
1, 66357, Note_off_c, 1, 83, 0
1, 66359, Note_on_c, 1, 81, 127
1, 66519, Note_off_c, 1, 81, 0
1, 66522, Note_off_c, 1, 45, 0
1, 66525, Note_on_c, 1, 80, 127
1, 66525, Note_on_c, 1, 57, 127
1, 66685, Note_off_c, 1, 80, 0
1, 66690, Note_on_c, 1, 78, 127
1, 66849, Note_off_c, 1, 57, 0
1, 66850, Note_off_c, 1, 78, 0
1, 66855, Note_on_c, 1, 76, 127
1, 67015, Note_off_c, 1, 76, 0
1, 67020, Note_on_c, 1, 75, 127
1, 67180, Note_off_c, 1, 75, 0
1, 67185, Note_on_c, 1, 73, 127
1, 67185, Note_on_c, 1, 54, 127
1, 67345, Note_off_c, 1, 73, 0
1, 67351, Note_on_c, 1, 71, 127
1, 67510, Note_off_c, 1, 54, 0
1, 67511, Note_off_c, 1, 71, 0
1, 67516, Note_on_c, 1, 56, 127
1, 67516, Note_on_c, 1, 76, 127
1, 67683, Note_on_c, 1, 71, 127
1, 67846, Note_off_c, 1, 71, 0
1, 67851, Note_off_c, 1, 56, 0
1, 67853, Note_on_c, 1, 73, 127
1, 67853, Note_on_c, 1, 57, 127
1, 68016, Note_off_c, 1, 73, 0
1, 68023, Note_on_c, 1, 69, 127
1, 68186, Note_off_c, 1, 76, 0
1, 68186, Note_off_c, 1, 69, 0
1, 68188, Note_off_c, 1, 57, 0
1, 68193, Note_on_c, 1, 68, 127
1, 68193, Note_on_c, 1, 59, 127
1, 68365, Note_on_c, 1, 76, 127
1, 68526, Note_off_c, 1, 68, 0
1, 68528, Note_off_c, 1, 59, 0
1, 68535, Note_on_c, 1, 66, 127
1, 68535, Note_on_c, 1, 47, 127
1, 68698, Note_off_c, 1, 76, 0
1, 68705, Note_on_c, 1, 75, 127
1, 68868, Note_off_c, 1, 66, 0
1, 68868, Note_off_c, 1, 75, 0
1, 68870, Note_off_c, 1, 47, 0
1, 68875, Note_on_c, 1, 52, 127
1, 68875, Note_on_c, 1, 76, 127
1, 69061, Note_on_c, 1, 40, 127
1, 69244, Note_off_c, 1, 40, 0
1, 69248, Note_on_c, 1, 44, 127
1, 69249, Note_off_c, 1, 52, 0
1, 69431, Note_off_c, 1, 44, 0
1, 69434, Note_on_c, 1, 47, 127
1, 69639, Note_off_c, 1, 47, 0
1, 71375, Note_off_c, 1, 76, 0
1, 71734, Note_on_c, 1, 76, 127
1, 71840, Note_off_c, 1, 76, 0
1, 71854, Note_on_c, 1, 76, 127
1, 71974, Note_on_c, 1, 64, 127
1, 72092, Note_off_c, 1, 64, 0
1, 72093, Note_on_c, 1, 66, 127
1, 72211, Note_off_c, 1, 66, 0
1, 72213, Note_on_c, 1, 68, 127
1, 72328, Note_off_c, 1, 76, 0
1, 72331, Note_off_c, 1, 68, 0
1, 72333, Note_on_c, 1, 69, 127
1, 72451, Note_off_c, 1, 69, 0
1, 72453, Note_on_c, 1, 71, 127
1, 72571, Note_off_c, 1, 71, 0
1, 72573, Note_on_c, 1, 73, 127
1, 72691, Note_off_c, 1, 73, 0
1, 72693, Note_on_c, 1, 75, 127
1, 72811, Note_off_c, 1, 75, 0
1, 72813, Note_on_c, 1, 76, 127
1, 72931, Note_off_c, 1, 76, 0
1, 72933, Note_on_c, 1, 78, 127
1, 73051, Note_off_c, 1, 78, 0
1, 73052, Note_on_c, 1, 80, 127
1, 73170, Note_off_c, 1, 80, 0
1, 73172, Note_on_c, 1, 76, 127
1, 73290, Note_off_c, 1, 76, 0
1, 73292, Note_on_c, 1, 83, 127
1, 73292, Note_on_c, 1, 63, 127
1, 73530, Note_off_c, 1, 83, 0
1, 73532, Note_on_c, 1, 81, 127
1, 73641, Note_off_c, 1, 63, 0
1, 73650, Note_off_c, 1, 81, 0
1, 73652, Note_on_c, 1, 80, 127
1, 73770, Note_off_c, 1, 80, 0
1, 73772, Note_on_c, 1, 78, 127
1, 73890, Note_off_c, 1, 78, 0
1, 73892, Note_on_c, 1, 76, 127
1, 74010, Note_off_c, 1, 76, 0
1, 74012, Note_on_c, 1, 75, 127
1, 74130, Note_off_c, 1, 75, 0
1, 74131, Note_on_c, 1, 73, 127
1, 74249, Note_off_c, 1, 73, 0
1, 74251, Note_on_c, 1, 71, 127
1, 74371, Note_on_c, 1, 69, 127
1, 74425, Note_off_c, 1, 71, 0
1, 74489, Note_off_c, 1, 69, 0
1, 74491, Note_on_c, 1, 68, 127
1, 74609, Note_off_c, 1, 68, 0
1, 74611, Note_on_c, 1, 66, 127
1, 74729, Note_off_c, 1, 66, 0
1, 74731, Note_on_c, 1, 68, 127
1, 74851, Note_on_c, 1, 83, 127
1, 74969, Note_off_c, 1, 68, 0
1, 74969, Note_off_c, 1, 83, 0
1, 74971, Note_on_c, 1, 80, 127
1, 74971, Note_on_c, 1, 64, 127
1, 75089, Note_off_c, 1, 80, 0
1, 75090, Note_on_c, 1, 76, 127
1, 75208, Note_off_c, 1, 76, 0
1, 75209, Note_off_c, 1, 64, 0
1, 75210, Note_on_c, 1, 73, 127
1, 75210, Note_on_c, 1, 69, 127
1, 75328, Note_off_c, 1, 73, 0
1, 75330, Note_on_c, 1, 81, 127
1, 75448, Note_off_c, 1, 69, 0
1, 75448, Note_off_c, 1, 81, 0
1, 75450, Note_on_c, 1, 78, 127
1, 75450, Note_on_c, 1, 57, 127
1, 75568, Note_off_c, 1, 78, 0
1, 75570, Note_on_c, 1, 75, 127
1, 75688, Note_off_c, 1, 57, 0
1, 75688, Note_off_c, 1, 75, 0
1, 75690, Note_on_c, 1, 71, 127
1, 75690, Note_on_c, 1, 63, 127
1, 75808, Note_off_c, 1, 71, 0
1, 75810, Note_on_c, 1, 81, 127
1, 75928, Note_off_c, 1, 63, 0
1, 75928, Note_off_c, 1, 81, 0
1, 75930, Note_on_c, 1, 80, 127
1, 75930, Note_on_c, 1, 59, 127
1, 76048, Note_off_c, 1, 80, 0
1, 76049, Note_on_c, 1, 78, 127
1, 76167, Note_off_c, 1, 78, 0
1, 76168, Note_off_c, 1, 59, 0
1, 76169, Note_on_c, 1, 80, 127
1, 76169, Note_on_c, 1, 64, 127
1, 76287, Note_off_c, 1, 80, 0
1, 76289, Note_on_c, 1, 76, 127
1, 76407, Note_off_c, 1, 76, 0
1, 76409, Note_on_c, 1, 75, 127
1, 76527, Note_off_c, 1, 75, 0
1, 76529, Note_on_c, 1, 73, 127
1, 76643, Note_off_c, 1, 64, 0
1, 76647, Note_off_c, 1, 73, 0
1, 76649, Note_on_c, 1, 71, 127
1, 76767, Note_off_c, 1, 71, 0
1, 76769, Note_on_c, 1, 69, 127
1, 76887, Note_off_c, 1, 69, 0
1, 76889, Note_on_c, 1, 68, 127
1, 77007, Note_off_c, 1, 68, 0
1, 77009, Note_on_c, 1, 66, 127
1, 77127, Note_off_c, 1, 66, 0
1, 77128, Note_on_c, 1, 64, 127
1, 77246, Note_off_c, 1, 64, 0
1, 77248, Note_on_c, 1, 63, 127
1, 77366, Note_off_c, 1, 63, 0
1, 77368, Note_on_c, 1, 61, 127
1, 77486, Note_off_c, 1, 61, 0
1, 77488, Note_on_c, 1, 59, 127
1, 77606, Note_off_c, 1, 59, 0
1, 77608, Note_on_c, 1, 61, 127
1, 77728, Note_on_c, 1, 80, 127
1, 77846, Note_off_c, 1, 61, 0
1, 77846, Note_off_c, 1, 80, 0
1, 77848, Note_on_c, 1, 76, 127
1, 77848, Note_on_c, 1, 63, 127
1, 77966, Note_off_c, 1, 76, 0
1, 77968, Note_on_c, 1, 73, 127
1, 78086, Note_off_c, 1, 63, 0
1, 78086, Note_off_c, 1, 73, 0
1, 78087, Note_on_c, 1, 70, 127
1, 78087, Note_on_c, 1, 61, 127
1, 78205, Note_off_c, 1, 70, 0
1, 78207, Note_on_c, 1, 76, 127
1, 78325, Note_off_c, 1, 61, 0
1, 78325, Note_off_c, 1, 76, 0
1, 78327, Note_on_c, 1, 73, 127
1, 78327, Note_on_c, 1, 59, 127
1, 78445, Note_off_c, 1, 73, 0
1, 78447, Note_on_c, 1, 70, 127
1, 78565, Note_off_c, 1, 59, 0
1, 78565, Note_off_c, 1, 70, 0
1, 78567, Note_on_c, 1, 66, 127
1, 78567, Note_on_c, 1, 58, 127
1, 78685, Note_off_c, 1, 66, 0
1, 78687, Note_on_c, 1, 76, 127
1, 78805, Note_off_c, 1, 58, 0
1, 78805, Note_off_c, 1, 76, 0
1, 78807, Note_on_c, 1, 75, 127
1, 78807, Note_on_c, 1, 54, 127
1, 78925, Note_off_c, 1, 75, 0
1, 78927, Note_on_c, 1, 73, 127
1, 79045, Note_off_c, 1, 54, 0
1, 79045, Note_off_c, 1, 73, 0
1, 79046, Note_on_c, 1, 75, 127
1, 79046, Note_on_c, 1, 59, 127
1, 79164, Note_off_c, 1, 75, 0
1, 79166, Note_on_c, 1, 78, 127
1, 79284, Note_off_c, 1, 59, 0
1, 79284, Note_off_c, 1, 78, 0
1, 79286, Note_on_c, 1, 75, 127
1, 79286, Note_on_c, 1, 47, 127
1, 79404, Note_off_c, 1, 75, 0
1, 79406, Note_on_c, 1, 71, 127
1, 79524, Note_off_c, 1, 47, 0
1, 79524, Note_off_c, 1, 71, 0
1, 79526, Note_on_c, 1, 69, 127
1, 79526, Note_on_c, 1, 49, 127
1, 79644, Note_off_c, 1, 69, 0
1, 79646, Note_on_c, 1, 73, 127
1, 79764, Note_off_c, 1, 49, 0
1, 79764, Note_off_c, 1, 73, 0
1, 79766, Note_on_c, 1, 69, 127
1, 79766, Note_on_c, 1, 54, 127
1, 79884, Note_off_c, 1, 69, 0
1, 79886, Note_on_c, 1, 66, 127
1, 80004, Note_off_c, 1, 54, 0
1, 80004, Note_off_c, 1, 66, 0
1, 80006, Note_on_c, 1, 63, 127
1, 80006, Note_on_c, 1, 47, 127
1, 80124, Note_off_c, 1, 63, 0
1, 80125, Note_on_c, 1, 73, 127
1, 80243, Note_off_c, 1, 73, 0
1, 80244, Note_off_c, 1, 47, 0
1, 80245, Note_on_c, 1, 71, 127
1, 80245, Note_on_c, 1, 51, 127
1, 80363, Note_off_c, 1, 71, 0
1, 80365, Note_on_c, 1, 69, 127
1, 80483, Note_off_c, 1, 51, 0
1, 80483, Note_off_c, 1, 69, 0
1, 80485, Note_on_c, 1, 52, 127
1, 80485, Note_on_c, 1, 68, 127
1, 80603, Note_off_c, 1, 52, 0
1, 80605, Note_on_c, 1, 59, 127
1, 80721, Note_off_c, 1, 68, 0
1, 80723, Note_off_c, 1, 59, 0
1, 80725, Note_on_c, 1, 61, 127
1, 80843, Note_off_c, 1, 61, 0
1, 80845, Note_on_c, 1, 63, 127
1, 80963, Note_off_c, 1, 63, 0
1, 80965, Note_on_c, 1, 64, 127
1, 81083, Note_off_c, 1, 64, 0
1, 81084, Note_on_c, 1, 66, 127
1, 81202, Note_off_c, 1, 66, 0
1, 81204, Note_on_c, 1, 68, 127
1, 81322, Note_off_c, 1, 68, 0
1, 81324, Note_on_c, 1, 69, 127
1, 81442, Note_off_c, 1, 69, 0
1, 81444, Note_on_c, 1, 71, 127
1, 81562, Note_off_c, 1, 71, 0
1, 81564, Note_on_c, 1, 73, 127
1, 81682, Note_off_c, 1, 73, 0
1, 81684, Note_on_c, 1, 75, 127
1, 81684, Note_on_c, 1, 63, 127
1, 81802, Note_off_c, 1, 75, 0
1, 81804, Note_on_c, 1, 71, 127
1, 81922, Note_off_c, 1, 63, 0
1, 81922, Note_off_c, 1, 71, 0
1, 81924, Note_on_c, 1, 61, 127
1, 81924, Note_on_c, 1, 76, 127
1, 82042, Note_off_c, 1, 61, 0
1, 82043, Note_on_c, 1, 68, 127
1, 82160, Note_off_c, 1, 76, 0
1, 82161, Note_off_c, 1, 68, 0
1, 82163, Note_on_c, 1, 69, 127
1, 82281, Note_off_c, 1, 69, 0
1, 82283, Note_on_c, 1, 71, 127
1, 82401, Note_off_c, 1, 71, 0
1, 82403, Note_on_c, 1, 73, 127
1, 82521, Note_off_c, 1, 73, 0
1, 82523, Note_on_c, 1, 75, 127
1, 82641, Note_off_c, 1, 75, 0
1, 82643, Note_on_c, 1, 76, 127
1, 82761, Note_off_c, 1, 76, 0
1, 82763, Note_on_c, 1, 78, 127
1, 82881, Note_off_c, 1, 78, 0
1, 82883, Note_on_c, 1, 80, 127
1, 83001, Note_off_c, 1, 80, 0
1, 83003, Note_on_c, 1, 82, 127
1, 83121, Note_off_c, 1, 82, 0
1, 83122, Note_on_c, 1, 83, 127
1, 83122, Note_on_c, 1, 61, 127
1, 83240, Note_off_c, 1, 83, 0
1, 83242, Note_on_c, 1, 80, 127
1, 83360, Note_off_c, 1, 61, 0
1, 83360, Note_off_c, 1, 80, 0
1, 83362, Note_on_c, 1, 82, 127
1, 83362, Note_on_c, 1, 66, 127
1, 83480, Note_off_c, 1, 82, 0
1, 83482, Note_on_c, 1, 78, 127
1, 83600, Note_off_c, 1, 78, 0
1, 83602, Note_on_c, 1, 73, 127
1, 83711, Note_off_c, 1, 66, 0
1, 83720, Note_off_c, 1, 73, 0
1, 83722, Note_on_c, 1, 70, 127
1, 83840, Note_off_c, 1, 70, 0
1, 83842, Note_on_c, 1, 66, 127
1, 83962, Note_on_c, 1, 73, 127
1, 84078, Note_off_c, 1, 66, 0
1, 84080, Note_off_c, 1, 73, 0
1, 84081, Note_on_c, 1, 70, 127
1, 84199, Note_off_c, 1, 70, 0
1, 84201, Note_on_c, 1, 66, 127
1, 84319, Note_off_c, 1, 66, 0
1, 84321, Note_on_c, 1, 64, 127
1, 84439, Note_off_c, 1, 64, 0
1, 84441, Note_on_c, 1, 68, 127
1, 84559, Note_off_c, 1, 68, 0
1, 84561, Note_on_c, 1, 66, 127
1, 84679, Note_off_c, 1, 66, 0
1, 84681, Note_on_c, 1, 64, 127
1, 84799, Note_off_c, 1, 64, 0
1, 84801, Note_on_c, 1, 63, 127
1, 84919, Note_off_c, 1, 63, 0
1, 84921, Note_on_c, 1, 66, 127
1, 85039, Note_off_c, 1, 66, 0
1, 85040, Note_on_c, 1, 71, 127
1, 85160, Note_on_c, 1, 75, 127
1, 85280, Note_on_c, 1, 78, 127
1, 85400, Note_on_c, 1, 64, 127
1, 85509, Note_off_c, 1, 75, 0
1, 85514, Note_off_c, 1, 71, 0
1, 85518, Note_off_c, 1, 78, 0
1, 85519, Note_off_c, 1, 64, 0
1, 85522, Note_on_c, 1, 63, 127
1, 85640, Note_off_c, 1, 63, 0
1, 85641, Note_on_c, 1, 61, 127
1, 85759, Note_off_c, 1, 61, 0
1, 85761, Note_on_c, 1, 59, 127
1, 85879, Note_off_c, 1, 59, 0
1, 85881, Note_on_c, 1, 57, 127
1, 85999, Note_off_c, 1, 57, 0
1, 86001, Note_on_c, 1, 56, 127
1, 86119, Note_off_c, 1, 56, 0
1, 86121, Note_on_c, 1, 57, 127
1, 86239, Note_off_c, 1, 57, 0
1, 86241, Note_on_c, 1, 56, 127
1, 86361, Note_on_c, 1, 64, 127
1, 86477, Note_off_c, 1, 56, 0
1, 86479, Note_off_c, 1, 64, 0
1, 86481, Note_on_c, 1, 71, 127
1, 86601, Note_on_c, 1, 75, 127
1, 86720, Note_on_c, 1, 76, 127
1, 86840, Note_on_c, 1, 57, 127
1, 86950, Note_off_c, 1, 75, 0
1, 86955, Note_off_c, 1, 71, 0
1, 86958, Note_off_c, 1, 76, 0
1, 86959, Note_off_c, 1, 57, 0
1, 86962, Note_on_c, 1, 56, 127
1, 87080, Note_off_c, 1, 56, 0
1, 87082, Note_on_c, 1, 54, 127
1, 87200, Note_off_c, 1, 54, 0
1, 87202, Note_on_c, 1, 52, 127
1, 87320, Note_off_c, 1, 52, 0
1, 87321, Note_on_c, 1, 51, 127
1, 87439, Note_off_c, 1, 51, 0
1, 87441, Note_on_c, 1, 49, 127
1, 87559, Note_off_c, 1, 49, 0
1, 87561, Note_on_c, 1, 52, 127
1, 87679, Note_off_c, 1, 52, 0
1, 87681, Note_on_c, 1, 46, 127
1, 87801, Note_on_c, 1, 66, 127
1, 87919, Note_off_c, 1, 46, 0
1, 87919, Note_off_c, 1, 66, 0
1, 87921, Note_on_c, 1, 73, 127
1, 87921, Note_on_c, 1, 42, 127
1, 88039, Note_off_c, 1, 73, 0
1, 88041, Note_on_c, 1, 76, 127
1, 88159, Note_off_c, 1, 42, 0
1, 88159, Note_off_c, 1, 76, 0
1, 88161, Note_on_c, 1, 75, 127
1, 88161, Note_on_c, 1, 47, 127
1, 88279, Note_off_c, 1, 75, 0
1, 88280, Note_on_c, 1, 73, 127
1, 88398, Note_off_c, 1, 73, 0
1, 88399, Note_off_c, 1, 47, 0
1, 88400, Note_on_c, 1, 71, 127
1, 88400, Note_on_c, 1, 51, 127
1, 88518, Note_off_c, 1, 71, 0
1, 88520, Note_on_c, 1, 75, 127
1, 88638, Note_off_c, 1, 51, 0
1, 88638, Note_off_c, 1, 75, 0
1, 88640, Note_on_c, 1, 68, 127
1, 88640, Note_on_c, 1, 52, 127
1, 88758, Note_off_c, 1, 68, 0
1, 88760, Note_on_c, 1, 73, 127
1, 88878, Note_off_c, 1, 52, 0
1, 88878, Note_off_c, 1, 73, 0
1, 88880, Note_on_c, 1, 70, 127
1, 88880, Note_on_c, 1, 54, 127
1, 88998, Note_off_c, 1, 70, 0
1, 89000, Note_on_c, 1, 64, 127
1, 89118, Note_off_c, 1, 54, 0
1, 89118, Note_off_c, 1, 64, 0
1, 89120, Note_on_c, 1, 63, 127
1, 89120, Note_on_c, 1, 47, 127
1, 89238, Note_off_c, 1, 63, 0
1, 89240, Note_on_c, 1, 71, 127
1, 89358, Note_off_c, 1, 47, 0
1, 89358, Note_off_c, 1, 71, 0
1, 89359, Note_on_c, 1, 66, 127
1, 89359, Note_on_c, 1, 49, 127
1, 89477, Note_off_c, 1, 66, 0
1, 89479, Note_on_c, 1, 63, 127
1, 89597, Note_off_c, 1, 49, 0
1, 89597, Note_off_c, 1, 63, 0
1, 89599, Note_on_c, 1, 59, 127
1, 89599, Note_on_c, 1, 51, 127
1, 89717, Note_off_c, 1, 59, 0
1, 89719, Note_on_c, 1, 66, 127
1, 89837, Note_off_c, 1, 51, 0
1, 89837, Note_off_c, 1, 66, 0
1, 89839, Note_on_c, 1, 68, 127
1, 89839, Note_on_c, 1, 52, 127
1, 89957, Note_off_c, 1, 68, 0
1, 89959, Note_on_c, 1, 70, 127
1, 90077, Note_off_c, 1, 52, 0
1, 90077, Note_off_c, 1, 70, 0
1, 90079, Note_on_c, 1, 71, 127
1, 90079, Note_on_c, 1, 51, 127
1, 90199, Note_on_c, 1, 66, 127
1, 90253, Note_off_c, 1, 71, 0
1, 90317, Note_off_c, 1, 51, 0
1, 90317, Note_off_c, 1, 66, 0
1, 90318, Note_on_c, 1, 71, 127
1, 90318, Note_on_c, 1, 49, 127
1, 90438, Note_on_c, 1, 64, 127
1, 90492, Note_off_c, 1, 71, 0
1, 90556, Note_off_c, 1, 49, 0
1, 90556, Note_off_c, 1, 64, 0
1, 90558, Note_on_c, 1, 63, 127
1, 90558, Note_on_c, 1, 47, 127
1, 90676, Note_off_c, 1, 63, 0
1, 90678, Note_on_c, 1, 71, 127
1, 90796, Note_off_c, 1, 47, 0
1, 90796, Note_off_c, 1, 71, 0
1, 90798, Note_on_c, 1, 66, 127
1, 90798, Note_on_c, 1, 49, 127
1, 90916, Note_off_c, 1, 66, 0
1, 90918, Note_on_c, 1, 63, 127
1, 91036, Note_off_c, 1, 49, 0
1, 91036, Note_off_c, 1, 63, 0
1, 91038, Note_on_c, 1, 59, 127
1, 91038, Note_on_c, 1, 51, 127
1, 91156, Note_off_c, 1, 59, 0
1, 91158, Note_on_c, 1, 66, 127
1, 91276, Note_off_c, 1, 51, 0
1, 91276, Note_off_c, 1, 66, 0
1, 91277, Note_on_c, 1, 68, 127
1, 91277, Note_on_c, 1, 52, 127
1, 91395, Note_off_c, 1, 68, 0
1, 91397, Note_on_c, 1, 70, 127
1, 91515, Note_off_c, 1, 52, 0
1, 91515, Note_off_c, 1, 70, 0
1, 91517, Note_on_c, 1, 71, 127
1, 91517, Note_on_c, 1, 51, 127
1, 91637, Note_on_c, 1, 66, 127
1, 91691, Note_off_c, 1, 71, 0
1, 91755, Note_off_c, 1, 51, 0
1, 91755, Note_off_c, 1, 66, 0
1, 91757, Note_on_c, 1, 71, 127
1, 91757, Note_on_c, 1, 49, 127
1, 91877, Note_on_c, 1, 64, 127
1, 91931, Note_off_c, 1, 71, 0
1, 91995, Note_off_c, 1, 49, 0
1, 91995, Note_off_c, 1, 64, 0
1, 91997, Note_on_c, 1, 63, 127
1, 91997, Note_on_c, 1, 47, 127
1, 92115, Note_off_c, 1, 63, 0
1, 92117, Note_on_c, 1, 66, 127
1, 92235, Note_off_c, 1, 47, 0
1, 92235, Note_off_c, 1, 66, 0
1, 92237, Note_on_c, 1, 71, 127
1, 92237, Note_on_c, 1, 59, 127
1, 92355, Note_off_c, 1, 71, 0
1, 92356, Note_on_c, 1, 75, 127
1, 92475, Note_off_c, 1, 59, 0
1, 92476, Note_on_c, 1, 64, 127
1, 92476, Note_on_c, 1, 56, 127
1, 92530, Note_off_c, 1, 75, 0
1, 92594, Note_off_c, 1, 64, 0
1, 92714, Note_off_c, 1, 56, 0
1, 92716, Note_on_c, 1, 73, 127
1, 92716, Note_on_c, 1, 52, 127
1, 92834, Note_off_c, 1, 73, 0
1, 92836, Note_on_c, 1, 71, 127
1, 92954, Note_off_c, 1, 52, 0
1, 92956, Note_on_c, 1, 64, 127
1, 92956, Note_on_c, 1, 54, 127
1, 93010, Note_off_c, 1, 71, 0
1, 93074, Note_off_c, 1, 64, 0
1, 93194, Note_off_c, 1, 54, 0
1, 93196, Note_on_c, 1, 71, 127
1, 93196, Note_on_c, 1, 42, 127
1, 93314, Note_off_c, 1, 71, 0
1, 93315, Note_on_c, 1, 70, 127
1, 93432, Note_off_c, 1, 42, 0
1, 93433, Note_off_c, 1, 70, 0
1, 93435, Note_on_c, 1, 71, 127
1, 93555, Note_on_c, 1, 47, 127
1, 93673, Note_off_c, 1, 47, 0
1, 93675, Note_on_c, 1, 51, 127
1, 93793, Note_off_c, 1, 51, 0
1, 93795, Note_on_c, 1, 54, 127
1, 93909, Note_off_c, 1, 71, 0
1, 93913, Note_off_c, 1, 54, 0
1, 93915, Note_on_c, 1, 59, 127
1, 94035, Note_on_c, 1, 61, 127
1, 94153, Note_off_c, 1, 61, 0
1, 94155, Note_on_c, 1, 63, 127
1, 94274, Note_on_c, 1, 66, 127
1, 94394, Note_on_c, 1, 71, 127
1, 94623, Note_off_c, 1, 66, 0
1, 94629, Note_off_c, 1, 63, 0
1, 94632, Note_off_c, 1, 71, 0
1, 94634, Note_off_c, 1, 59, 0
1, 94756, Note_on_c, 1, 78, 127
1, 94874, Note_off_c, 1, 78, 0
1, 94875, Note_on_c, 1, 78, 127
1, 94995, Note_on_c, 1, 76, 127
1, 95113, Note_off_c, 1, 76, 0
1, 95115, Note_on_c, 1, 75, 127
1, 95233, Note_off_c, 1, 75, 0
1, 95235, Note_on_c, 1, 73, 127
1, 95353, Note_off_c, 1, 73, 0
1, 95475, Note_on_c, 1, 71, 127
1, 95592, Note_off_c, 1, 78, 0
1, 95593, Note_off_c, 1, 71, 0
1, 95595, Note_on_c, 1, 69, 127
1, 95713, Note_off_c, 1, 69, 0
1, 95715, Note_on_c, 1, 68, 127
1, 95833, Note_off_c, 1, 68, 0
1, 95835, Note_on_c, 1, 66, 127
1, 95953, Note_off_c, 1, 66, 0
1, 95954, Note_on_c, 1, 64, 127
1, 96072, Note_off_c, 1, 64, 0
1, 96074, Note_on_c, 1, 63, 127
1, 96192, Note_off_c, 1, 63, 0
1, 96194, Note_on_c, 1, 66, 127
1, 96312, Note_off_c, 1, 66, 0
1, 96314, Note_on_c, 1, 60, 127
1, 96434, Note_on_c, 1, 63, 127
1, 96552, Note_off_c, 1, 63, 0
1, 96554, Note_on_c, 1, 66, 127
1, 96672, Note_off_c, 1, 66, 0
1, 96674, Note_on_c, 1, 69, 127
1, 96792, Note_off_c, 1, 69, 0
1, 96794, Note_on_c, 1, 68, 127
1, 96913, Note_on_c, 1, 72, 127
1, 97030, Note_off_c, 1, 68, 0
1, 97031, Note_off_c, 1, 60, 0
1, 97031, Note_off_c, 1, 72, 0
1, 97033, Note_on_c, 1, 75, 127
1, 97151, Note_off_c, 1, 75, 0
1, 97153, Note_on_c, 1, 78, 127
1, 97271, Note_off_c, 1, 78, 0
1, 97273, Note_on_c, 1, 76, 127
1, 97391, Note_off_c, 1, 76, 0
1, 97393, Note_on_c, 1, 75, 127
1, 97511, Note_off_c, 1, 75, 0
1, 97513, Note_on_c, 1, 73, 127
1, 97631, Note_off_c, 1, 73, 0
1, 97633, Note_on_c, 1, 75, 127
1, 97751, Note_off_c, 1, 75, 0
1, 97753, Note_on_c, 1, 61, 127
1, 97753, Note_on_c, 1, 76, 127
1, 97872, Note_on_c, 1, 68, 127
1, 97990, Note_off_c, 1, 68, 0
1, 97991, Note_off_c, 1, 61, 0
1, 97992, Note_on_c, 1, 69, 127
1, 97992, Note_on_c, 1, 49, 127
1, 98102, Note_off_c, 1, 76, 0
1, 98110, Note_off_c, 1, 69, 0
1, 98230, Note_off_c, 1, 49, 0
1, 98232, Note_on_c, 1, 47, 127
1, 98232, Note_on_c, 1, 75, 127
1, 98352, Note_on_c, 1, 69, 127
1, 98470, Note_off_c, 1, 47, 0
1, 98470, Note_off_c, 1, 69, 0
1, 98472, Note_on_c, 1, 68, 127
1, 98472, Note_on_c, 1, 59, 127
1, 98581, Note_off_c, 1, 75, 0
1, 98590, Note_off_c, 1, 68, 0
1, 98710, Note_off_c, 1, 59, 0
1, 98712, Note_on_c, 1, 57, 127
1, 98712, Note_on_c, 1, 73, 127
1, 98832, Note_on_c, 1, 68, 127
1, 98950, Note_off_c, 1, 57, 0
1, 98950, Note_off_c, 1, 68, 0
1, 98951, Note_on_c, 1, 66, 127
1, 98951, Note_on_c, 1, 45, 127
1, 99061, Note_off_c, 1, 73, 0
1, 99069, Note_off_c, 1, 66, 0
1, 99189, Note_off_c, 1, 45, 0
1, 99191, Note_on_c, 1, 44, 127
1, 99191, Note_on_c, 1, 72, 127
1, 99311, Note_on_c, 1, 68, 127
1, 99427, Note_off_c, 1, 44, 0
1, 99429, Note_off_c, 1, 68, 0
1, 99431, Note_on_c, 1, 66, 127
1, 99549, Note_off_c, 1, 66, 0
1, 99551, Note_on_c, 1, 64, 127
1, 99665, Note_off_c, 1, 72, 0
1, 99669, Note_off_c, 1, 64, 0
1, 99671, Note_on_c, 1, 63, 127
1, 99791, Note_on_c, 1, 61, 127
1, 99821, Note_off_c, 1, 63, 0
1, 99910, Note_off_c, 1, 61, 0
1, 99912, Note_on_c, 1, 60, 127
1, 100030, Note_off_c, 1, 60, 0
1, 100032, Note_on_c, 1, 58, 127
1, 100150, Note_off_c, 1, 58, 0
1, 100152, Note_on_c, 1, 56, 127
1, 100270, Note_off_c, 1, 56, 0
1, 100272, Note_on_c, 1, 54, 127
1, 100390, Note_off_c, 1, 54, 0
1, 100392, Note_on_c, 1, 53, 127
1, 100510, Note_off_c, 1, 53, 0
1, 100511, Note_on_c, 1, 54, 127
1, 100629, Note_off_c, 1, 54, 0
1, 100631, Note_on_c, 1, 53, 127
1, 100751, Note_on_c, 1, 74, 127
1, 100869, Note_off_c, 1, 53, 0
1, 100869, Note_off_c, 1, 74, 0
1, 100871, Note_on_c, 1, 71, 127
1, 100871, Note_on_c, 1, 56, 127
1, 100989, Note_off_c, 1, 71, 0
1, 100991, Note_on_c, 1, 68, 127
1, 101109, Note_off_c, 1, 56, 0
1, 101109, Note_off_c, 1, 68, 0
1, 101111, Note_on_c, 1, 65, 127
1, 101111, Note_on_c, 1, 61, 127
1, 101229, Note_off_c, 1, 65, 0
1, 101231, Note_on_c, 1, 74, 127
1, 101349, Note_off_c, 1, 61, 0
1, 101349, Note_off_c, 1, 74, 0
1, 101351, Note_on_c, 1, 71, 127
1, 101351, Note_on_c, 1, 59, 127
1, 101469, Note_off_c, 1, 71, 0
1, 101471, Note_on_c, 1, 65, 127
1, 101589, Note_off_c, 1, 59, 0
1, 101589, Note_off_c, 1, 65, 0
1, 101590, Note_on_c, 1, 61, 127
1, 101710, Note_on_c, 1, 71, 127
1, 101828, Note_off_c, 1, 61, 0
1, 101828, Note_off_c, 1, 71, 0
1, 101830, Note_on_c, 1, 69, 127
1, 101830, Note_on_c, 1, 49, 127
1, 101948, Note_off_c, 1, 69, 0
1, 101950, Note_on_c, 1, 68, 127
1, 102068, Note_off_c, 1, 49, 0
1, 102068, Note_off_c, 1, 68, 0
1, 102070, Note_on_c, 1, 69, 127
1, 102070, Note_on_c, 1, 54, 127
1, 102188, Note_off_c, 1, 69, 0
1, 102190, Note_on_c, 1, 66, 127
1, 102308, Note_off_c, 1, 54, 0
1, 102308, Note_off_c, 1, 66, 0
1, 102310, Note_on_c, 1, 65, 127
1, 102310, Note_on_c, 1, 57, 127
1, 102428, Note_off_c, 1, 65, 0
1, 102430, Note_on_c, 1, 66, 127
1, 102548, Note_off_c, 1, 57, 0
1, 102548, Note_off_c, 1, 66, 0
1, 102549, Note_on_c, 1, 72, 127
1, 102549, Note_on_c, 1, 51, 127
1, 102669, Note_on_c, 1, 66, 127
1, 102723, Note_off_c, 1, 72, 0
1, 102787, Note_off_c, 1, 51, 0
1, 102787, Note_off_c, 1, 66, 0
1, 102789, Note_on_c, 1, 73, 127
1, 102789, Note_on_c, 1, 54, 127
1, 102909, Note_on_c, 1, 66, 127
1, 102963, Note_off_c, 1, 73, 0
1, 103027, Note_off_c, 1, 54, 0
1, 103027, Note_off_c, 1, 66, 0
1, 103029, Note_on_c, 1, 75, 127
1, 103029, Note_on_c, 1, 48, 127
1, 103149, Note_on_c, 1, 66, 127
1, 103203, Note_off_c, 1, 75, 0
1, 103267, Note_off_c, 1, 48, 0
1, 103267, Note_off_c, 1, 66, 0
1, 103269, Note_on_c, 1, 68, 127
1, 103269, Note_on_c, 1, 60, 127
1, 103387, Note_off_c, 1, 68, 0
1, 103389, Note_on_c, 1, 63, 127
1, 103507, Note_off_c, 1, 60, 0
1, 103507, Note_off_c, 1, 63, 0
1, 103508, Note_on_c, 1, 64, 127
1, 103508, Note_on_c, 1, 61, 127
1, 103626, Note_off_c, 1, 64, 0
1, 103628, Note_on_c, 1, 73, 127
1, 103746, Note_off_c, 1, 61, 0
1, 103746, Note_off_c, 1, 73, 0
1, 103748, Note_on_c, 1, 69, 127
1, 103748, Note_on_c, 1, 54, 127
1, 103866, Note_off_c, 1, 69, 0
1, 103868, Note_on_c, 1, 66, 127
1, 103986, Note_off_c, 1, 54, 0
1, 103986, Note_off_c, 1, 66, 0
1, 103988, Note_on_c, 1, 63, 127
1, 103988, Note_on_c, 1, 57, 127
1, 104106, Note_off_c, 1, 63, 0
1, 104108, Note_on_c, 1, 69, 127
1, 104226, Note_off_c, 1, 57, 0
1, 104226, Note_off_c, 1, 69, 0
1, 104228, Note_on_c, 1, 66, 127
1, 104228, Note_on_c, 1, 51, 127
1, 104346, Note_off_c, 1, 66, 0
1, 104348, Note_on_c, 1, 63, 127
1, 104466, Note_off_c, 1, 51, 0
1, 104466, Note_off_c, 1, 63, 0
1, 104468, Note_on_c, 1, 60, 127
1, 104468, Note_on_c, 1, 56, 127
1, 104586, Note_off_c, 1, 60, 0
1, 104587, Note_on_c, 1, 69, 127
1, 104705, Note_off_c, 1, 69, 0
1, 104706, Note_off_c, 1, 56, 0
1, 104707, Note_on_c, 1, 68, 127
1, 104707, Note_on_c, 1, 44, 127
1, 104825, Note_off_c, 1, 68, 0
1, 104827, Note_on_c, 1, 66, 127
1, 104945, Note_off_c, 1, 44, 0
1, 104945, Note_off_c, 1, 66, 0
1, 104947, Note_on_c, 1, 64, 127
1, 104947, Note_on_c, 1, 49, 127
1, 105065, Note_off_c, 1, 64, 0
1, 105067, Note_on_c, 1, 63, 127
1, 105185, Note_off_c, 1, 49, 0
1, 105185, Note_off_c, 1, 63, 0
1, 105187, Note_on_c, 1, 61, 127
1, 105187, Note_on_c, 1, 37, 127
1, 105305, Note_off_c, 1, 61, 0
1, 105307, Note_on_c, 1, 60, 127
1, 105423, Note_off_c, 1, 37, 0
1, 105425, Note_off_c, 1, 60, 0
1, 105427, Note_on_c, 1, 61, 127
1, 105545, Note_off_c, 1, 61, 0
1, 105546, Note_on_c, 1, 63, 127
1, 105664, Note_off_c, 1, 63, 0
1, 105666, Note_on_c, 1, 64, 127
1, 105784, Note_off_c, 1, 64, 0
1, 105786, Note_on_c, 1, 66, 127
1, 105904, Note_off_c, 1, 66, 0
1, 105906, Note_on_c, 1, 68, 127
1, 106024, Note_off_c, 1, 68, 0
1, 106026, Note_on_c, 1, 69, 127
1, 106144, Note_off_c, 1, 69, 0
1, 106146, Note_on_c, 1, 71, 127
1, 106264, Note_off_c, 1, 71, 0
1, 106266, Note_on_c, 1, 69, 127
1, 106384, Note_off_c, 1, 69, 0
1, 106386, Note_on_c, 1, 56, 127
1, 106386, Note_on_c, 1, 71, 127
1, 106504, Note_off_c, 1, 56, 0
1, 106505, Note_on_c, 1, 59, 127
1, 106623, Note_off_c, 1, 59, 0
1, 106625, Note_on_c, 1, 61, 127
1, 106735, Note_off_c, 1, 71, 0
1, 106743, Note_off_c, 1, 61, 0
1, 106745, Note_on_c, 1, 63, 127
1, 106863, Note_off_c, 1, 63, 0
1, 106865, Note_on_c, 1, 64, 127
1, 106983, Note_off_c, 1, 64, 0
1, 106985, Note_on_c, 1, 66, 127
1, 107103, Note_off_c, 1, 66, 0
1, 107105, Note_on_c, 1, 68, 127
1, 107223, Note_off_c, 1, 68, 0
1, 107225, Note_on_c, 1, 69, 127
1, 107343, Note_off_c, 1, 69, 0
1, 107345, Note_on_c, 1, 71, 127
1, 107463, Note_off_c, 1, 71, 0
1, 107465, Note_on_c, 1, 73, 127
1, 107583, Note_off_c, 1, 73, 0
1, 107584, Note_on_c, 1, 74, 127
1, 107702, Note_off_c, 1, 74, 0
1, 107704, Note_on_c, 1, 71, 127
1, 107822, Note_off_c, 1, 71, 0
1, 107824, Note_on_c, 1, 73, 127
1, 107944, Note_on_c, 1, 69, 127
1, 108062, Note_off_c, 1, 69, 0
1, 108064, Note_on_c, 1, 64, 127
1, 108182, Note_off_c, 1, 64, 0
1, 108184, Note_on_c, 1, 61, 127
1, 108298, Note_off_c, 1, 73, 0
1, 108302, Note_off_c, 1, 61, 0
1, 108304, Note_on_c, 1, 57, 127
1, 108422, Note_off_c, 1, 57, 0
1, 108424, Note_on_c, 1, 64, 127
1, 108542, Note_off_c, 1, 64, 0
1, 108543, Note_on_c, 1, 61, 127
1, 108543, Note_on_c, 1, 69, 127
1, 108661, Note_off_c, 1, 61, 0
1, 108663, Note_on_c, 1, 57, 127
1, 108781, Note_off_c, 1, 69, 0
1, 108781, Note_off_c, 1, 57, 0
1, 108783, Note_on_c, 1, 56, 127
1, 108783, Note_on_c, 1, 73, 127
1, 108901, Note_off_c, 1, 56, 0
1, 108903, Note_on_c, 1, 59, 127
1, 109021, Note_off_c, 1, 73, 0
1, 109021, Note_off_c, 1, 59, 0
1, 109023, Note_on_c, 1, 57, 127
1, 109023, Note_on_c, 1, 76, 127
1, 109141, Note_off_c, 1, 57, 0
1, 109143, Note_on_c, 1, 56, 127
1, 109261, Note_off_c, 1, 76, 0
1, 109261, Note_off_c, 1, 56, 0
1, 109263, Note_on_c, 1, 80, 127
1, 109263, Note_on_c, 1, 54, 127
1, 109321, Note_off_c, 1, 80, 0
1, 109323, Note_on_c, 1, 81, 127
1, 109381, Note_off_c, 1, 54, 0
1, 109381, Note_off_c, 1, 81, 0
1, 109383, Note_on_c, 1, 83, 127
1, 109383, Note_on_c, 1, 66, 127
1, 109441, Note_off_c, 1, 83, 0
1, 109443, Note_on_c, 1, 81, 127
1, 109501, Note_off_c, 1, 66, 0
1, 109501, Note_off_c, 1, 81, 0
1, 109502, Note_on_c, 1, 83, 127
1, 109502, Note_on_c, 1, 61, 127
1, 109560, Note_off_c, 1, 83, 0
1, 109562, Note_on_c, 1, 81, 127
1, 109620, Note_off_c, 1, 61, 0
1, 109620, Note_off_c, 1, 81, 0
1, 109622, Note_on_c, 1, 83, 127
1, 109622, Note_on_c, 1, 57, 127
1, 109680, Note_off_c, 1, 83, 0
1, 109682, Note_on_c, 1, 81, 127
1, 109740, Note_off_c, 1, 57, 0
1, 109740, Note_off_c, 1, 81, 0
1, 109742, Note_on_c, 1, 83, 127
1, 109742, Note_on_c, 1, 54, 127
1, 109800, Note_off_c, 1, 83, 0
1, 109802, Note_on_c, 1, 81, 127
1, 109860, Note_off_c, 1, 54, 0
1, 109860, Note_off_c, 1, 81, 0
1, 109862, Note_on_c, 1, 83, 127
1, 109862, Note_on_c, 1, 61, 127
1, 109920, Note_off_c, 1, 83, 0
1, 109922, Note_on_c, 1, 81, 127
1, 109980, Note_off_c, 1, 61, 0
1, 109980, Note_off_c, 1, 81, 0
1, 109982, Note_on_c, 1, 83, 127
1, 109982, Note_on_c, 1, 57, 127
1, 110040, Note_off_c, 1, 83, 0
1, 110042, Note_on_c, 1, 81, 127
1, 110100, Note_off_c, 1, 57, 0
1, 110100, Note_off_c, 1, 81, 0
1, 110102, Note_on_c, 1, 83, 127
1, 110102, Note_on_c, 1, 54, 127
1, 110160, Note_off_c, 1, 83, 0
1, 110162, Note_on_c, 1, 81, 127
1, 110220, Note_off_c, 1, 54, 0
1, 110220, Note_off_c, 1, 81, 0
1, 110222, Note_on_c, 1, 83, 127
1, 110222, Note_on_c, 1, 52, 127
1, 110280, Note_off_c, 1, 83, 0
1, 110282, Note_on_c, 1, 81, 127
1, 110340, Note_off_c, 1, 52, 0
1, 110340, Note_off_c, 1, 81, 0
1, 110342, Note_on_c, 1, 83, 127
1, 110342, Note_on_c, 1, 56, 127
1, 110400, Note_off_c, 1, 83, 0
1, 110402, Note_on_c, 1, 81, 127
1, 110460, Note_off_c, 1, 56, 0
1, 110460, Note_off_c, 1, 81, 0
1, 110462, Note_on_c, 1, 83, 127
1, 110462, Note_on_c, 1, 54, 127
1, 110520, Note_off_c, 1, 83, 0
1, 110521, Note_on_c, 1, 81, 127
1, 110579, Note_off_c, 1, 81, 0
1, 110580, Note_off_c, 1, 54, 0
1, 110581, Note_on_c, 1, 83, 127
1, 110581, Note_on_c, 1, 52, 127
1, 110639, Note_off_c, 1, 83, 0
1, 110641, Note_on_c, 1, 81, 127
1, 110699, Note_off_c, 1, 52, 0
1, 110701, Note_on_c, 1, 51, 127
1, 110819, Note_off_c, 1, 81, 0
1, 110821, Note_on_c, 1, 71, 127
1, 110939, Note_off_c, 1, 51, 0
1, 110939, Note_off_c, 1, 71, 0
1, 110941, Note_on_c, 1, 78, 127
1, 110941, Note_on_c, 1, 47, 127
1, 111059, Note_off_c, 1, 78, 0
1, 111061, Note_on_c, 1, 81, 127
1, 111179, Note_off_c, 1, 47, 0
1, 111179, Note_off_c, 1, 81, 0
1, 111181, Note_on_c, 1, 80, 127
1, 111181, Note_on_c, 1, 52, 127
1, 111299, Note_off_c, 1, 80, 0
1, 111301, Note_on_c, 1, 78, 127
1, 111419, Note_off_c, 1, 52, 0
1, 111419, Note_off_c, 1, 78, 0
1, 111421, Note_on_c, 1, 76, 127
1, 111421, Note_on_c, 1, 56, 127
1, 111539, Note_off_c, 1, 76, 0
1, 111540, Note_on_c, 1, 80, 127
1, 111658, Note_off_c, 1, 80, 0
1, 111659, Note_off_c, 1, 56, 0
1, 111660, Note_on_c, 1, 73, 127
1, 111660, Note_on_c, 1, 57, 127
1, 111778, Note_off_c, 1, 73, 0
1, 111780, Note_on_c, 1, 78, 127
1, 111898, Note_off_c, 1, 57, 0
1, 111898, Note_off_c, 1, 78, 0
1, 111900, Note_on_c, 1, 75, 127
1, 111900, Note_on_c, 1, 59, 127
1, 112018, Note_off_c, 1, 75, 0
1, 112020, Note_on_c, 1, 69, 127
1, 112138, Note_off_c, 1, 59, 0
1, 112141, Note_off_c, 1, 69, 0
1, 112143, Note_on_c, 1, 68, 127
1, 112143, Note_on_c, 1, 61, 127
1, 112264, Note_off_c, 1, 68, 0
1, 112268, Note_on_c, 1, 76, 127
1, 112389, Note_off_c, 1, 61, 0
1, 112389, Note_off_c, 1, 76, 0
1, 112393, Note_on_c, 1, 71, 127
1, 112393, Note_on_c, 1, 59, 127
1, 112514, Note_off_c, 1, 71, 0
1, 112514, Note_off_c, 1, 59, 0
1, 112517, Note_on_c, 1, 68, 127
1, 112517, Note_on_c, 1, 57, 127
1, 112638, Note_off_c, 1, 68, 0
1, 112638, Note_off_c, 1, 57, 0
1, 112642, Note_on_c, 1, 64, 127
1, 112642, Note_on_c, 1, 56, 127
1, 112763, Note_off_c, 1, 64, 0
1, 112767, Note_on_c, 1, 71, 127
1, 112888, Note_off_c, 1, 56, 0
1, 112888, Note_off_c, 1, 71, 0
1, 112892, Note_on_c, 1, 73, 127
1, 112892, Note_on_c, 1, 57, 127
1, 113013, Note_off_c, 1, 73, 0
1, 113016, Note_on_c, 1, 75, 127
1, 113137, Note_off_c, 1, 75, 0
1, 113138, Note_off_c, 1, 57, 0
1, 113139, Note_on_c, 1, 76, 127
1, 113139, Note_on_c, 1, 56, 127
1, 113262, Note_on_c, 1, 71, 127
1, 113318, Note_off_c, 1, 76, 0
1, 113383, Note_off_c, 1, 56, 0
1, 113383, Note_off_c, 1, 71, 0
1, 113387, Note_on_c, 1, 76, 127
1, 113387, Note_on_c, 1, 54, 127
1, 113510, Note_on_c, 1, 69, 127
1, 113566, Note_off_c, 1, 76, 0
1, 113631, Note_off_c, 1, 54, 0
1, 113631, Note_off_c, 1, 69, 0
1, 113635, Note_on_c, 1, 68, 127
1, 113635, Note_on_c, 1, 52, 127
1, 113756, Note_off_c, 1, 68, 0
1, 113760, Note_on_c, 1, 76, 127
1, 113881, Note_off_c, 1, 52, 0
1, 113881, Note_off_c, 1, 76, 0
1, 113885, Note_on_c, 1, 71, 127
1, 113885, Note_on_c, 1, 54, 127
1, 114006, Note_off_c, 1, 71, 0
1, 114009, Note_on_c, 1, 68, 127
1, 114130, Note_off_c, 1, 68, 0
1, 114131, Note_off_c, 1, 54, 0
1, 114132, Note_on_c, 1, 64, 127
1, 114132, Note_on_c, 1, 56, 127
1, 114253, Note_off_c, 1, 64, 0
1, 114257, Note_on_c, 1, 71, 127
1, 114378, Note_off_c, 1, 56, 0
1, 114378, Note_off_c, 1, 71, 0
1, 114382, Note_on_c, 1, 73, 127
1, 114382, Note_on_c, 1, 57, 127
1, 114503, Note_off_c, 1, 73, 0
1, 114507, Note_on_c, 1, 75, 127
1, 114628, Note_off_c, 1, 57, 0
1, 114628, Note_off_c, 1, 75, 0
1, 114631, Note_on_c, 1, 76, 127
1, 114631, Note_on_c, 1, 56, 127
1, 114755, Note_on_c, 1, 71, 127
1, 114810, Note_off_c, 1, 76, 0
1, 114875, Note_off_c, 1, 56, 0
1, 114876, Note_off_c, 1, 71, 0
1, 114879, Note_on_c, 1, 76, 127
1, 114879, Note_on_c, 1, 54, 127
1, 115002, Note_on_c, 1, 69, 127
1, 115058, Note_off_c, 1, 76, 0
1, 115123, Note_off_c, 1, 54, 0
1, 115126, Note_off_c, 1, 69, 0
1, 115130, Note_on_c, 1, 68, 127
1, 115130, Note_on_c, 1, 52, 127
1, 115253, Note_off_c, 1, 68, 0
1, 115257, Note_on_c, 1, 71, 127
1, 115379, Note_off_c, 1, 52, 0
1, 115380, Note_off_c, 1, 71, 0
1, 115383, Note_on_c, 1, 76, 127
1, 115383, Note_on_c, 1, 56, 127
1, 115506, Note_off_c, 1, 76, 0
1, 115509, Note_on_c, 1, 80, 127
1, 115634, Note_off_c, 1, 56, 0
1, 115641, Note_on_c, 1, 69, 127
1, 115641, Note_on_c, 1, 61, 127
1, 115698, Note_off_c, 1, 80, 0
1, 115767, Note_off_c, 1, 69, 0
1, 115900, Note_off_c, 1, 61, 0
1, 115903, Note_on_c, 1, 78, 127
1, 115903, Note_on_c, 1, 57, 127
1, 116029, Note_off_c, 1, 78, 0
1, 116034, Note_on_c, 1, 76, 127
1, 116162, Note_off_c, 1, 57, 0
1, 116169, Note_on_c, 1, 69, 127
1, 116169, Note_on_c, 1, 59, 127
1, 116230, Note_off_c, 1, 76, 0
1, 116298, Note_off_c, 1, 69, 0
1, 116434, Note_off_c, 1, 59, 0
1, 116438, Note_on_c, 1, 76, 127
1, 116438, Note_on_c, 1, 47, 127
1, 116567, Note_off_c, 1, 76, 0
1, 116572, Note_on_c, 1, 75, 127
1, 116702, Note_off_c, 1, 47, 0
1, 116704, Note_off_c, 1, 75, 0
1, 116708, Note_on_c, 1, 76, 127
1, 116848, Note_on_c, 1, 52, 127
1, 116980, Note_off_c, 1, 52, 0
1, 116987, Note_on_c, 1, 56, 127
1, 117119, Note_off_c, 1, 56, 0
1, 117125, Note_on_c, 1, 59, 127
1, 117252, Note_off_c, 1, 76, 0
1, 117261, Note_off_c, 1, 59, 0
1, 117266, Note_on_c, 1, 64, 127
1, 117408, Note_on_c, 1, 66, 127
1, 117545, Note_off_c, 1, 66, 0
1, 117552, Note_on_c, 1, 68, 127
1, 117696, Note_on_c, 1, 71, 127
1, 117909, Note_on_c, 1, 76, 127
1, 118109, Note_off_c, 1, 71, 0
1, 118114, Note_off_c, 1, 68, 0
1, 118670, Note_off_c, 1, 64, 0
1, 119909, Note_off_c, 1, 76, 0
1, 121524, Note_on_c, 1, 68, 127
1, 121524, Note_on_c, 1, 64, 127
1, 121524, Note_on_c, 1, 52, 127
1, 121524, Note_on_c, 1, 56, 127
1, 121524, Note_on_c, 1, 59, 127
1, 121788, Note_off_c, 1, 68, 0
1, 121790, Note_on_c, 1, 69, 127
1, 121877, Note_off_c, 1, 69, 0
1, 121968, Note_on_c, 1, 66, 127
1, 122055, Note_off_c, 1, 66, 0
1, 122227, Note_off_c, 1, 64, 0
1, 122231, Note_off_c, 1, 52, 0
1, 122231, Note_off_c, 1, 56, 0
1, 122231, Note_off_c, 1, 59, 0
1, 122234, Note_on_c, 1, 68, 127
1, 122234, Note_on_c, 1, 51, 127
1, 122234, Note_on_c, 1, 56, 127
1, 122234, Note_on_c, 1, 60, 127
1, 122321, Note_off_c, 1, 68, 0
1, 122323, Note_on_c, 1, 66, 127
1, 122410, Note_off_c, 1, 66, 0
1, 123481, Note_on_c, 1, 64, 127
1, 123568, Note_off_c, 1, 64, 0
1, 123657, Note_off_c, 1, 51, 0
1, 123657, Note_off_c, 1, 56, 0
1, 123657, Note_off_c, 1, 60, 0
1, 123660, Note_on_c, 1, 64, 127
1, 123660, Note_on_c, 1, 49, 127
1, 123660, Note_on_c, 1, 61, 127
1, 123660, Note_on_c, 1, 56, 127
1, 124176, Note_off_c, 1, 64, 0
1, 124366, Note_off_c, 1, 49, 0
1, 124366, Note_off_c, 1, 61, 0
1, 124368, Note_on_c, 1, 69, 127
1, 124544, Note_off_c, 1, 56, 0
1, 124544, Note_on_c, 1, 59, 127
1, 124718, Note_off_c, 1, 59, 0
1, 124721, Note_on_c, 1, 57, 127
1, 124895, Note_off_c, 1, 57, 0
1, 125074, Note_on_c, 1, 54, 127
1, 125248, Note_off_c, 1, 54, 0
1, 125250, Note_on_c, 1, 52, 127
1, 125424, Note_off_c, 1, 52, 0
1, 125427, Note_on_c, 1, 51, 127
1, 125601, Note_off_c, 1, 51, 0
1, 125779, Note_off_c, 1, 69, 0
1, 125780, Note_on_c, 1, 69, 127
1, 125780, Note_on_c, 1, 66, 127
1, 125780, Note_on_c, 1, 51, 127
1, 125780, Note_on_c, 1, 54, 127
1, 125780, Note_on_c, 1, 59, 127
1, 126044, Note_off_c, 1, 69, 0
1, 126046, Note_on_c, 1, 71, 127
1, 126133, Note_off_c, 1, 71, 0
1, 126224, Note_on_c, 1, 68, 127
1, 126311, Note_off_c, 1, 68, 0
1, 126483, Note_off_c, 1, 66, 0
1, 126487, Note_off_c, 1, 51, 0
1, 126487, Note_off_c, 1, 54, 0
1, 126487, Note_off_c, 1, 59, 0
1, 126490, Note_on_c, 1, 69, 127
1, 126490, Note_on_c, 1, 56, 127
1, 126490, Note_on_c, 1, 59, 127
1, 126490, Note_on_c, 1, 52, 127
1, 126490, Note_on_c, 1, 64, 127
1, 126577, Note_off_c, 1, 69, 0
1, 126579, Note_on_c, 1, 68, 127
1, 126666, Note_off_c, 1, 68, 0
1, 127201, Note_off_c, 1, 56, 0
1, 127201, Note_off_c, 1, 59, 0
1, 127203, Note_on_c, 1, 61, 127
1, 127203, Note_on_c, 1, 58, 127
1, 127559, Note_on_c, 1, 66, 127
1, 127910, Note_off_c, 1, 52, 0
1, 127910, Note_off_c, 1, 64, 0
1, 127910, Note_off_c, 1, 61, 0
1, 127910, Note_off_c, 1, 58, 0
1, 127910, Note_off_c, 1, 66, 0
1, 127912, Note_on_c, 1, 59, 127
1, 127912, Note_on_c, 1, 64, 127
1, 127912, Note_on_c, 1, 66, 127
1, 127912, Note_on_c, 1, 47, 127
1, 128618, Note_off_c, 1, 59, 0
1, 128618, Note_off_c, 1, 64, 0
1, 128618, Note_off_c, 1, 66, 0
1, 128620, Note_on_c, 1, 63, 127
1, 128794, Note_off_c, 1, 47, 0
1, 128797, Note_on_c, 1, 49, 127
1, 128971, Note_off_c, 1, 49, 0
1, 128973, Note_on_c, 1, 51, 127
1, 129147, Note_off_c, 1, 51, 0
1, 129150, Note_on_c, 1, 52, 127
1, 129324, Note_off_c, 1, 52, 0
1, 129326, Note_on_c, 1, 54, 127
1, 129500, Note_off_c, 1, 54, 0
1, 129503, Note_on_c, 1, 56, 127
1, 129677, Note_off_c, 1, 56, 0
1, 129680, Note_on_c, 1, 57, 127
1, 129854, Note_off_c, 1, 57, 0
1, 130031, Note_off_c, 1, 63, 0
1, 130033, Note_on_c, 1, 71, 127
1, 130033, Note_on_c, 1, 63, 127
1, 130033, Note_on_c, 1, 56, 127
1, 130033, Note_on_c, 1, 59, 127
1, 130120, Note_off_c, 1, 71, 0
1, 130122, Note_on_c, 1, 68, 127
1, 130122, Note_on_c, 1, 69, 127
1, 130209, Note_off_c, 1, 68, 0
1, 130209, Note_off_c, 1, 69, 0
1, 130653, Note_on_c, 1, 73, 127
1, 130734, Note_off_c, 1, 63, 0
1, 130738, Note_off_c, 1, 73, 0
1, 130739, Note_off_c, 1, 56, 0
1, 130739, Note_off_c, 1, 59, 0
1, 130741, Note_on_c, 1, 71, 127
1, 130741, Note_on_c, 1, 61, 127
1, 130741, Note_on_c, 1, 64, 127
1, 130830, Note_off_c, 1, 71, 0
1, 130830, Note_on_c, 1, 69, 127
1, 130919, Note_off_c, 1, 69, 0
1, 131453, Note_on_c, 1, 59, 127
1, 131807, Note_on_c, 1, 68, 127
1, 132157, Note_off_c, 1, 59, 0
1, 132158, Note_off_c, 1, 61, 0
1, 132158, Note_off_c, 1, 64, 0
1, 132158, Note_off_c, 1, 68, 0
1, 132160, Note_on_c, 1, 73, 127
1, 132160, Note_on_c, 1, 61, 127
1, 132160, Note_on_c, 1, 66, 127
1, 132160, Note_on_c, 1, 58, 127
1, 132511, Note_off_c, 1, 73, 0
1, 132513, Note_on_c, 1, 75, 127
1, 132687, Note_off_c, 1, 75, 0
1, 132690, Note_on_c, 1, 76, 127
1, 132859, Note_off_c, 1, 61, 0
1, 132859, Note_off_c, 1, 66, 0
1, 132864, Note_off_c, 1, 76, 0
1, 133219, Note_off_c, 1, 58, 0
1, 133221, Note_on_c, 1, 56, 127
1, 133395, Note_off_c, 1, 56, 0
1, 133397, Note_on_c, 1, 54, 127
1, 133571, Note_off_c, 1, 54, 0
1, 133574, Note_on_c, 1, 59, 127
1, 133927, Note_on_c, 1, 71, 127
1, 134278, Note_off_c, 1, 59, 0
1, 134278, Note_off_c, 1, 71, 0
1, 134280, Note_on_c, 1, 73, 127
1, 134280, Note_on_c, 1, 64, 127
1, 134280, Note_on_c, 1, 52, 127
1, 134454, Note_off_c, 1, 73, 0
1, 134457, Note_on_c, 1, 70, 127
1, 134629, Note_off_c, 1, 64, 0
1, 134631, Note_off_c, 1, 52, 0
1, 134631, Note_off_c, 1, 70, 0
1, 134634, Note_on_c, 1, 49, 127
1, 134634, Note_on_c, 1, 71, 127
1, 134634, Note_on_c, 1, 63, 127
1, 134985, Note_off_c, 1, 49, 0
1, 134985, Note_off_c, 1, 71, 0
1, 134985, Note_off_c, 1, 63, 0
1, 134987, Note_on_c, 1, 71, 127
1, 134987, Note_on_c, 1, 61, 127
1, 134987, Note_on_c, 1, 54, 127
1, 135096, Note_on_c, 1, 70, 127
1, 135097, Note_off_c, 1, 71, 0
1, 135183, Note_off_c, 1, 70, 0
1, 135338, Note_off_c, 1, 61, 0
1, 135341, Note_on_c, 1, 63, 127
1, 135692, Note_off_c, 1, 63, 0
1, 135695, Note_on_c, 1, 64, 127
1, 135695, Note_on_c, 1, 42, 127
1, 136394, Note_off_c, 1, 64, 0
1, 136399, Note_off_c, 1, 42, 0
1, 136401, Note_on_c, 1, 47, 127
1, 137105, Note_off_c, 1, 54, 0
1, 137109, Note_on_c, 1, 66, 127
1, 138362, Note_off_c, 1, 66, 0
1, 138521, Note_off_c, 1, 47, 0
1, 138525, Note_on_c, 1, 75, 127
1, 138525, Note_on_c, 1, 71, 127
1, 138525, Note_on_c, 1, 66, 127
1, 138525, Note_on_c, 1, 59, 127
1, 139054, Note_off_c, 1, 75, 0
1, 139054, Note_off_c, 1, 71, 0
1, 139056, Note_on_c, 1, 76, 127
1, 139226, Note_off_c, 1, 66, 0
1, 139230, Note_off_c, 1, 76, 0
1, 139231, Note_off_c, 1, 59, 0
1, 139233, Note_on_c, 1, 75, 127
1, 139233, Note_on_c, 1, 61, 127
1, 139233, Note_on_c, 1, 57, 127
1, 139233, Note_on_c, 1, 66, 127
1, 139320, Note_off_c, 1, 75, 0
1, 139322, Note_on_c, 1, 73, 127
1, 139409, Note_off_c, 1, 73, 0
1, 140480, Note_on_c, 1, 72, 127
1, 140567, Note_off_c, 1, 72, 0
1, 140656, Note_off_c, 1, 61, 0
1, 140656, Note_off_c, 1, 57, 0
1, 140656, Note_off_c, 1, 66, 0
1, 140658, Note_on_c, 1, 63, 127
1, 140658, Note_on_c, 1, 68, 127
1, 140658, Note_on_c, 1, 72, 127
1, 140658, Note_on_c, 1, 56, 127
1, 141340, Note_off_c, 1, 63, 0
1, 141340, Note_off_c, 1, 68, 0
1, 141340, Note_off_c, 1, 72, 0
1, 141455, Note_on_c, 1, 75, 127
1, 141542, Note_off_c, 1, 56, 0
1, 141544, Note_on_c, 1, 54, 127
1, 141544, Note_on_c, 1, 78, 127
1, 141634, Note_on_c, 1, 81, 127
1, 141720, Note_off_c, 1, 54, 0
1, 141723, Note_on_c, 1, 57, 127
1, 141897, Note_off_c, 1, 57, 0
1, 142252, Note_on_c, 1, 52, 127
1, 142426, Note_off_c, 1, 52, 0
1, 142606, Note_on_c, 1, 51, 127
1, 142741, Note_off_c, 1, 78, 0
1, 142744, Note_off_c, 1, 75, 0
1, 142774, Note_off_c, 1, 81, 0
1, 142779, Note_off_c, 1, 51, 0
1, 142781, Note_on_c, 1, 80, 127
1, 142781, Note_on_c, 1, 56, 127
1, 142781, Note_on_c, 1, 52, 127
1, 142781, Note_on_c, 1, 73, 127
1, 143310, Note_off_c, 1, 80, 0
1, 143312, Note_on_c, 1, 81, 127
1, 143486, Note_off_c, 1, 81, 0
1, 143487, Note_off_c, 1, 56, 0
1, 143488, Note_on_c, 1, 57, 127
1, 143578, Note_on_c, 1, 78, 127
1, 143665, Note_off_c, 1, 78, 0
1, 144199, Note_off_c, 1, 57, 0
1, 144200, Note_off_c, 1, 52, 0
1, 144200, Note_off_c, 1, 73, 0
1, 144201, Note_on_c, 1, 50, 127
1, 144201, Note_on_c, 1, 71, 127
1, 144556, Note_on_c, 1, 54, 127
1, 144556, Note_on_c, 1, 77, 127
1, 144902, Note_off_c, 1, 50, 0
1, 144902, Note_off_c, 1, 71, 0
1, 144907, Note_off_c, 1, 54, 0
1, 144907, Note_off_c, 1, 77, 0
1, 144909, Note_on_c, 1, 56, 127
1, 144909, Note_on_c, 1, 77, 127
1, 144909, Note_on_c, 1, 73, 127
1, 144909, Note_on_c, 1, 49, 127
1, 145610, Note_off_c, 1, 56, 0
1, 145615, Note_off_c, 1, 77, 0
1, 145615, Note_off_c, 1, 73, 0
1, 145793, Note_off_c, 1, 49, 0
1, 145795, Note_on_c, 1, 50, 127
1, 145795, Note_on_c, 1, 80, 127
1, 145884, Note_on_c, 1, 83, 127
1, 145971, Note_off_c, 1, 50, 0
1, 146150, Note_on_c, 1, 47, 127
1, 146324, Note_off_c, 1, 47, 0
1, 146327, Note_on_c, 1, 45, 127
1, 146501, Note_off_c, 1, 45, 0
1, 146503, Note_on_c, 1, 44, 127
1, 146677, Note_off_c, 1, 44, 0
1, 146680, Note_on_c, 1, 42, 127
1, 146854, Note_off_c, 1, 42, 0
1, 146946, Note_on_c, 1, 41, 127
1, 146992, Note_off_c, 1, 80, 0
1, 147024, Note_off_c, 1, 83, 0
1, 147030, Note_off_c, 1, 41, 0
1, 147031, Note_on_c, 1, 81, 127
1, 147031, Note_on_c, 1, 78, 127
1, 147031, Note_on_c, 1, 73, 127
1, 147031, Note_on_c, 1, 42, 127
1, 147560, Note_off_c, 1, 81, 0
1, 147563, Note_on_c, 1, 83, 127
1, 147732, Note_off_c, 1, 78, 0
1, 147732, Note_off_c, 1, 73, 0
1, 147737, Note_off_c, 1, 42, 0
1, 147737, Note_off_c, 1, 83, 0
1, 147739, Note_on_c, 1, 81, 127
1, 147739, Note_on_c, 1, 78, 127
1, 147739, Note_on_c, 1, 74, 127
1, 147739, Note_on_c, 1, 47, 127
1, 148090, Note_off_c, 1, 81, 0
1, 148090, Note_off_c, 1, 78, 0
1, 148092, Note_on_c, 1, 80, 127
1, 148438, Note_off_c, 1, 74, 0
1, 148443, Note_off_c, 1, 47, 0
1, 148446, Note_on_c, 1, 77, 127
1, 148446, Note_on_c, 1, 73, 127
1, 148446, Note_on_c, 1, 49, 127
1, 148607, Note_off_c, 1, 80, 0
1, 148797, Note_off_c, 1, 77, 0
1, 149145, Note_off_c, 1, 73, 0
1, 149150, Note_off_c, 1, 49, 0
1, 149152, Note_on_c, 1, 71, 127
1, 149152, Note_on_c, 1, 50, 127
1, 149154, Note_on_c, 1, 78, 127
1, 149155, Note_on_c, 1, 83, 127
1, 149683, Note_on_c, 1, 80, 127
1, 149684, Note_off_c, 1, 83, 0
1, 149853, Note_off_c, 1, 71, 0
1, 149855, Note_off_c, 1, 78, 0
1, 149857, Note_off_c, 1, 80, 0
1, 149860, Note_on_c, 1, 68, 127
1, 150211, Note_off_c, 1, 50, 0
1, 150213, Note_on_c, 1, 77, 127
1, 150566, Note_on_c, 1, 49, 127
1, 150917, Note_off_c, 1, 77, 0
1, 150917, Note_off_c, 1, 49, 0
1, 150919, Note_on_c, 1, 47, 127
1, 151270, Note_off_c, 1, 47, 0
1, 151271, Note_off_c, 1, 68, 0
1, 151273, Note_on_c, 1, 45, 127
1, 151273, Note_on_c, 1, 73, 127
1, 151624, Note_off_c, 1, 45, 0
1, 151624, Note_off_c, 1, 73, 0
1, 151626, Note_on_c, 1, 42, 127
1, 151626, Note_on_c, 1, 73, 127
1, 151626, Note_on_c, 1, 81, 127
1, 151977, Note_off_c, 1, 42, 0
1, 151977, Note_off_c, 1, 73, 0
1, 151977, Note_off_c, 1, 81, 0
1, 151979, Note_on_c, 1, 81, 127
1, 151979, Note_on_c, 1, 49, 127
1, 151979, Note_on_c, 1, 71, 127
1, 152330, Note_off_c, 1, 81, 0
1, 152332, Note_on_c, 1, 80, 127
1, 152683, Note_off_c, 1, 49, 0
1, 152683, Note_off_c, 1, 80, 0
1, 152685, Note_on_c, 1, 78, 127
1, 152685, Note_on_c, 1, 37, 127
1, 153036, Note_off_c, 1, 78, 0
1, 153215, Note_on_c, 1, 77, 127
1, 153389, Note_off_c, 1, 37, 0
1, 153389, Note_off_c, 1, 77, 0
1, 153392, Note_on_c, 1, 42, 127
1, 153746, Note_off_c, 1, 71, 0
1, 153746, Note_on_c, 1, 68, 127
1, 154097, Note_off_c, 1, 68, 0
1, 154099, Note_on_c, 1, 69, 127
1, 154099, Note_on_c, 1, 73, 127
1, 154451, Note_off_c, 1, 42, 0
1, 154806, Note_on_c, 1, 45, 127
1, 155157, Note_off_c, 1, 45, 0
1, 155349, Note_off_c, 1, 69, 0
1, 155349, Note_off_c, 1, 73, 0
1, 155512, Note_on_c, 1, 73, 127
1, 155512, Note_on_c, 1, 69, 127
1, 155512, Note_on_c, 1, 54, 127
1, 156041, Note_off_c, 1, 73, 0
1, 156043, Note_on_c, 1, 74, 127
1, 156213, Note_off_c, 1, 69, 0
1, 156217, Note_off_c, 1, 74, 0
1, 156218, Note_off_c, 1, 54, 0
1, 156220, Note_on_c, 1, 76, 127
1, 156220, Note_on_c, 1, 42, 127
1, 156220, Note_on_c, 1, 69, 127
1, 156307, Note_off_c, 1, 76, 0
1, 156309, Note_on_c, 1, 74, 127
1, 156396, Note_off_c, 1, 74, 0
1, 156931, Note_off_c, 1, 42, 0
1, 156933, Note_on_c, 1, 54, 127
1, 157467, Note_on_c, 1, 73, 127
1, 157554, Note_off_c, 1, 73, 0
1, 157643, Note_off_c, 1, 69, 0
1, 157644, Note_off_c, 1, 54, 0
1, 157646, Note_on_c, 1, 56, 127
1, 157646, Note_on_c, 1, 76, 127
1, 157646, Note_on_c, 1, 71, 127
1, 158175, Note_off_c, 1, 56, 0
1, 158177, Note_on_c, 1, 58, 127
1, 158351, Note_off_c, 1, 58, 0
1, 158352, Note_off_c, 1, 76, 0
1, 158352, Note_off_c, 1, 71, 0
1, 158354, Note_on_c, 1, 59, 127
1, 158354, Note_on_c, 1, 73, 127
1, 158354, Note_on_c, 1, 76, 127
1, 158441, Note_off_c, 1, 59, 0
1, 158443, Note_on_c, 1, 58, 127
1, 158530, Note_off_c, 1, 58, 0
1, 158532, Note_on_c, 1, 78, 127
1, 158708, Note_off_c, 1, 78, 0
1, 158710, Note_on_c, 1, 79, 127
1, 159601, Note_on_c, 1, 56, 127
1, 159688, Note_off_c, 1, 56, 0
1, 159777, Note_off_c, 1, 73, 0
1, 159777, Note_off_c, 1, 76, 0
1, 159777, Note_off_c, 1, 79, 0
1, 159779, Note_on_c, 1, 59, 127
1, 159779, Note_on_c, 1, 78, 127
1, 159779, Note_on_c, 1, 74, 127
1, 160485, Note_off_c, 1, 59, 0
1, 160485, Note_off_c, 1, 78, 0
1, 160485, Note_off_c, 1, 74, 0
1, 160487, Note_on_c, 1, 76, 127
1, 160487, Note_on_c, 1, 73, 127
1, 160487, Note_on_c, 1, 52, 127
1, 160838, Note_off_c, 1, 76, 0
1, 160838, Note_off_c, 1, 73, 0
1, 160840, Note_on_c, 1, 74, 127
1, 160840, Note_on_c, 1, 71, 127
1, 161191, Note_off_c, 1, 52, 0
1, 161191, Note_off_c, 1, 74, 0
1, 161191, Note_off_c, 1, 71, 0
1, 161193, Note_on_c, 1, 76, 127
1, 161193, Note_on_c, 1, 70, 127
1, 161193, Note_on_c, 1, 54, 127
1, 161544, Note_off_c, 1, 76, 0
1, 161547, Note_on_c, 1, 73, 127
1, 161892, Note_off_c, 1, 70, 0
1, 161897, Note_off_c, 1, 54, 0
1, 161898, Note_off_c, 1, 73, 0
1, 161900, Note_on_c, 1, 47, 127
1, 161900, Note_on_c, 1, 74, 127
1, 161900, Note_on_c, 1, 71, 127
1, 162429, Note_off_c, 1, 47, 0
1, 162431, Note_on_c, 1, 49, 127
1, 162605, Note_off_c, 1, 49, 0
1, 162608, Note_on_c, 1, 50, 127
1, 162695, Note_off_c, 1, 50, 0
1, 162962, Note_off_c, 1, 74, 0
1, 162962, Note_off_c, 1, 71, 0
1, 162964, Note_on_c, 1, 50, 127
1, 162964, Note_on_c, 1, 73, 127
1, 163051, Note_off_c, 1, 50, 0
1, 163053, Note_on_c, 1, 49, 127
1, 163140, Note_off_c, 1, 49, 0
1, 163318, Note_off_c, 1, 73, 0
1, 163320, Note_on_c, 1, 50, 127
1, 163320, Note_on_c, 1, 71, 127
1, 163407, Note_off_c, 1, 50, 0
1, 163410, Note_on_c, 1, 49, 127
1, 163497, Note_off_c, 1, 49, 0
1, 163840, Note_off_c, 1, 71, 0
1, 163855, Note_on_c, 1, 47, 127
1, 163942, Note_off_c, 1, 47, 0
1, 163944, Note_on_c, 1, 49, 127
1, 164031, Note_off_c, 1, 49, 0
1, 164033, Note_on_c, 1, 80, 127
1, 164033, Note_on_c, 1, 76, 127
1, 164033, Note_on_c, 1, 71, 127
1, 164033, Note_on_c, 1, 50, 127
1, 164562, Note_off_c, 1, 80, 0
1, 164565, Note_on_c, 1, 81, 127
1, 164734, Note_off_c, 1, 76, 0
1, 164734, Note_off_c, 1, 71, 0
1, 164739, Note_off_c, 1, 50, 0
1, 164739, Note_off_c, 1, 81, 0
1, 164741, Note_on_c, 1, 83, 127
1, 164741, Note_on_c, 1, 49, 127
1, 164741, Note_on_c, 1, 76, 127
1, 164828, Note_off_c, 1, 83, 0
1, 164830, Note_on_c, 1, 81, 127
1, 164917, Note_off_c, 1, 81, 0
1, 165989, Note_on_c, 1, 80, 127
1, 166076, Note_off_c, 1, 80, 0
1, 166164, Note_off_c, 1, 49, 0
1, 166164, Note_off_c, 1, 76, 0
1, 166167, Note_on_c, 1, 44, 127
1, 166167, Note_on_c, 1, 76, 127
1, 166167, Note_on_c, 1, 71, 127
1, 166167, Note_on_c, 1, 83, 127
1, 166696, Note_off_c, 1, 44, 0
1, 166698, Note_on_c, 1, 45, 127
1, 166872, Note_off_c, 1, 45, 0
1, 166873, Note_off_c, 1, 76, 0
1, 166873, Note_off_c, 1, 71, 0
1, 166875, Note_on_c, 1, 47, 127
1, 166875, Note_on_c, 1, 73, 127
1, 166962, Note_off_c, 1, 47, 0
1, 167229, Note_off_c, 1, 83, 0
1, 167231, Note_on_c, 1, 81, 127
1, 167407, Note_off_c, 1, 81, 0
1, 167409, Note_on_c, 1, 80, 127
1, 167585, Note_off_c, 1, 80, 0
1, 167588, Note_on_c, 1, 78, 127
1, 167764, Note_off_c, 1, 78, 0
1, 167940, Note_off_c, 1, 73, 0
1, 167942, Note_on_c, 1, 45, 127
1, 167942, Note_on_c, 1, 75, 127
1, 168116, Note_off_c, 1, 45, 0
1, 168116, Note_off_c, 1, 75, 0
1, 168119, Note_on_c, 1, 42, 127
1, 168119, Note_on_c, 1, 73, 127
1, 168293, Note_off_c, 1, 42, 0
1, 168293, Note_off_c, 1, 73, 0
1, 168296, Note_on_c, 1, 39, 127
1, 168296, Note_on_c, 1, 71, 127
1, 168477, Note_on_c, 1, 81, 127
1, 168655, Note_off_c, 1, 81, 0
1, 168657, Note_off_c, 1, 39, 0
1, 168658, Note_on_c, 1, 80, 127
1, 168658, Note_on_c, 1, 40, 127
1, 168836, Note_off_c, 1, 80, 0
1, 168840, Note_on_c, 1, 78, 127
1, 169015, Note_off_c, 1, 71, 0
1, 169016, Note_off_c, 1, 40, 0
1, 169018, Note_off_c, 1, 78, 0
1, 169021, Note_on_c, 1, 76, 127
1, 169021, Note_on_c, 1, 47, 127
1, 169021, Note_on_c, 1, 71, 127
1, 169386, Note_on_c, 1, 54, 127
1, 169746, Note_off_c, 1, 76, 0
1, 169756, Note_off_c, 1, 54, 0
1, 169760, Note_on_c, 1, 56, 127
1, 169854, Note_on_c, 1, 75, 127
1, 169944, Note_off_c, 1, 75, 0
1, 170130, Note_off_c, 1, 56, 0
1, 170136, Note_on_c, 1, 57, 127
1, 170475, Note_off_c, 1, 47, 0
1, 170513, Note_on_c, 1, 52, 127
1, 170876, Note_off_c, 1, 57, 0
1, 171201, Note_off_c, 1, 71, 0
1, 171307, Note_on_c, 1, 64, 127
1, 171704, Note_on_c, 1, 59, 127
1, 172098, Note_off_c, 1, 52, 0
1, 172136, Note_off_c, 1, 59, 0
1, 172162, Note_on_c, 1, 40, 127
1, 173707, Note_off_c, 1, 64, 0
1, 174562, Note_off_c, 1, 40, 0
1, 174820, Note_on_c, 1, 71, 127
1, 174820, Note_on_c, 1, 68, 127
1, 174820, Note_on_c, 1, 52, 127
1, 175137, Note_off_c, 1, 71, 0
1, 175137, Note_off_c, 1, 68, 0
1, 175140, Note_on_c, 1, 73, 127
1, 175140, Note_on_c, 1, 69, 127
1, 175456, Note_off_c, 1, 52, 0
1, 175457, Note_off_c, 1, 73, 0
1, 175457, Note_off_c, 1, 69, 0
1, 175459, Note_on_c, 1, 69, 127
1, 175459, Note_on_c, 1, 73, 127
1, 175459, Note_on_c, 1, 40, 127
1, 175776, Note_off_c, 1, 69, 0
1, 175776, Note_off_c, 1, 73, 0
1, 175778, Note_on_c, 1, 66, 127
1, 175778, Note_on_c, 1, 75, 127
1, 176095, Note_off_c, 1, 40, 0
1, 176095, Note_off_c, 1, 66, 0
1, 176095, Note_off_c, 1, 75, 0
1, 176097, Note_on_c, 1, 66, 127
1, 176097, Note_on_c, 1, 75, 127
1, 176097, Note_on_c, 1, 52, 127
1, 176255, Note_off_c, 1, 66, 0
1, 176255, Note_off_c, 1, 75, 0
1, 176257, Note_on_c, 1, 68, 127
1, 176257, Note_on_c, 1, 76, 127
1, 176415, Note_off_c, 1, 68, 0
1, 176415, Note_off_c, 1, 76, 0
1, 176418, Note_on_c, 1, 69, 127
1, 176418, Note_on_c, 1, 78, 127
1, 176735, Note_off_c, 1, 52, 0
1, 176735, Note_off_c, 1, 69, 0
1, 176735, Note_off_c, 1, 78, 0
1, 176737, Note_on_c, 1, 78, 127
1, 176737, Note_on_c, 1, 69, 127
1, 176737, Note_on_c, 1, 40, 127
1, 177054, Note_off_c, 1, 78, 0
1, 177054, Note_off_c, 1, 69, 0
1, 177056, Note_on_c, 1, 68, 127
1, 177056, Note_on_c, 1, 76, 127
1, 177373, Note_off_c, 1, 40, 0
1, 177373, Note_off_c, 1, 68, 0
1, 177373, Note_off_c, 1, 76, 0
1, 177375, Note_on_c, 1, 52, 127
1, 177375, Note_on_c, 1, 80, 127
1, 177375, Note_on_c, 1, 71, 127
1, 177692, Note_off_c, 1, 52, 0
1, 177692, Note_off_c, 1, 80, 0
1, 177694, Note_on_c, 1, 78, 127
1, 177694, Note_on_c, 1, 51, 127
1, 177852, Note_off_c, 1, 78, 0
1, 177934, Note_on_c, 1, 81, 127
1, 178011, Note_off_c, 1, 51, 0
1, 178011, Note_off_c, 1, 81, 0
1, 178333, Note_on_c, 1, 75, 127
1, 178333, Note_on_c, 1, 54, 127
1, 178491, Note_off_c, 1, 75, 0
1, 178493, Note_on_c, 1, 76, 127
1, 178570, Note_off_c, 1, 76, 0
1, 178650, Note_off_c, 1, 54, 0
1, 178652, Note_on_c, 1, 56, 127
1, 178969, Note_off_c, 1, 56, 0
1, 178970, Note_off_c, 1, 71, 0
1, 178971, Note_on_c, 1, 78, 127
1, 178971, Note_on_c, 1, 73, 127
1, 178971, Note_on_c, 1, 57, 127
1, 179129, Note_off_c, 1, 78, 0
1, 179131, Note_on_c, 1, 80, 127
1, 179208, Note_off_c, 1, 80, 0
1, 179211, Note_on_c, 1, 81, 127
1, 179286, Note_off_c, 1, 73, 0
1, 179288, Note_off_c, 1, 57, 0
1, 179288, Note_off_c, 1, 81, 0
1, 179290, Note_on_c, 1, 59, 127
1, 179290, Note_on_c, 1, 75, 127
1, 179290, Note_on_c, 1, 66, 127
1, 179448, Note_off_c, 1, 59, 0
1, 179450, Note_on_c, 1, 57, 127
1, 179608, Note_off_c, 1, 57, 0
1, 179609, Note_off_c, 1, 75, 0
1, 179611, Note_on_c, 1, 73, 127
1, 179611, Note_on_c, 1, 56, 127
1, 179688, Note_off_c, 1, 73, 0
1, 179690, Note_on_c, 1, 71, 127
1, 179756, Note_off_c, 1, 66, 0
1, 179768, Note_off_c, 1, 56, 0
1, 179770, Note_on_c, 1, 54, 127
1, 179928, Note_off_c, 1, 71, 0
1, 179928, Note_off_c, 1, 54, 0
1, 179930, Note_on_c, 1, 71, 127
1, 179930, Note_on_c, 1, 68, 127
1, 179930, Note_on_c, 1, 52, 127
1, 180247, Note_off_c, 1, 71, 0
1, 180247, Note_off_c, 1, 68, 0
1, 180249, Note_on_c, 1, 69, 127
1, 180249, Note_on_c, 1, 73, 127
1, 180566, Note_off_c, 1, 52, 0
1, 180566, Note_off_c, 1, 69, 0
1, 180566, Note_off_c, 1, 73, 0
1, 180568, Note_on_c, 1, 73, 127
1, 180568, Note_on_c, 1, 69, 127
1, 180568, Note_on_c, 1, 40, 127
1, 180885, Note_off_c, 1, 73, 0
1, 180885, Note_off_c, 1, 69, 0
1, 180887, Note_on_c, 1, 75, 127
1, 180887, Note_on_c, 1, 66, 127
1, 181204, Note_off_c, 1, 40, 0
1, 181204, Note_off_c, 1, 75, 0
1, 181204, Note_off_c, 1, 66, 0
1, 181207, Note_on_c, 1, 75, 127
1, 181207, Note_on_c, 1, 66, 127
1, 181207, Note_on_c, 1, 52, 127
1, 181365, Note_off_c, 1, 75, 0
1, 181365, Note_off_c, 1, 66, 0
1, 181367, Note_on_c, 1, 68, 127
1, 181367, Note_on_c, 1, 76, 127
1, 181525, Note_off_c, 1, 68, 0
1, 181525, Note_off_c, 1, 76, 0
1, 181527, Note_on_c, 1, 78, 127
1, 181527, Note_on_c, 1, 69, 127
1, 181844, Note_off_c, 1, 78, 0
1, 181844, Note_off_c, 1, 69, 0
1, 181845, Note_off_c, 1, 52, 0
1, 181846, Note_on_c, 1, 40, 127
1, 181846, Note_on_c, 1, 78, 127
1, 181846, Note_on_c, 1, 69, 127
1, 182163, Note_off_c, 1, 40, 0
1, 182163, Note_off_c, 1, 78, 0
1, 182163, Note_off_c, 1, 69, 0
1, 182166, Note_on_c, 1, 52, 127
1, 182166, Note_on_c, 1, 76, 127
1, 182166, Note_on_c, 1, 68, 127
1, 182324, Note_off_c, 1, 52, 0
1, 182326, Note_on_c, 1, 54, 127
1, 182484, Note_off_c, 1, 54, 0
1, 182485, Note_off_c, 1, 76, 0
1, 182485, Note_off_c, 1, 68, 0
1, 182486, Note_on_c, 1, 56, 127
1, 182486, Note_on_c, 1, 73, 127
1, 182486, Note_on_c, 1, 71, 127
1, 182644, Note_off_c, 1, 56, 0
1, 182647, Note_on_c, 1, 52, 127
1, 182805, Note_off_c, 1, 73, 0
1, 182805, Note_off_c, 1, 52, 0
1, 182807, Note_on_c, 1, 51, 127
1, 182965, Note_off_c, 1, 51, 0
1, 182967, Note_on_c, 1, 75, 127
1, 182967, Note_on_c, 1, 49, 127
1, 183044, Note_off_c, 1, 75, 0
1, 183047, Note_on_c, 1, 76, 127
1, 183124, Note_off_c, 1, 49, 0
1, 183124, Note_off_c, 1, 76, 0
1, 183126, Note_on_c, 1, 54, 127
1, 183284, Note_off_c, 1, 54, 0
1, 183607, Note_on_c, 1, 47, 127
1, 183687, Note_on_c, 1, 78, 127
1, 183764, Note_off_c, 1, 47, 0
1, 183764, Note_off_c, 1, 78, 0
1, 184084, Note_off_c, 1, 71, 0
1, 184085, Note_on_c, 1, 73, 127
1, 184085, Note_on_c, 1, 70, 127
1, 184085, Note_on_c, 1, 42, 127
1, 184243, Note_off_c, 1, 73, 0
1, 184246, Note_on_c, 1, 71, 127
1, 184402, Note_off_c, 1, 70, 0
1, 184404, Note_off_c, 1, 42, 0
1, 184404, Note_off_c, 1, 71, 0
1, 184406, Note_on_c, 1, 71, 127
1, 184406, Note_on_c, 1, 47, 127
1, 184872, Note_off_c, 1, 71, 0
1, 185044, Note_off_c, 1, 47, 0
1, 185046, Note_on_c, 1, 59, 127
1, 185046, Note_on_c, 1, 75, 127
1, 185046, Note_on_c, 1, 66, 127
1, 185363, Note_off_c, 1, 59, 0
1, 185363, Note_off_c, 1, 75, 0
1, 185365, Note_on_c, 1, 57, 127
1, 185365, Note_on_c, 1, 78, 127
1, 185682, Note_off_c, 1, 57, 0
1, 185682, Note_off_c, 1, 78, 0
1, 186003, Note_on_c, 1, 73, 127
1, 186003, Note_on_c, 1, 56, 127
1, 186161, Note_off_c, 1, 73, 0
1, 186164, Note_on_c, 1, 71, 127
1, 186322, Note_off_c, 1, 66, 0
1, 186322, Note_off_c, 1, 56, 0
1, 186322, Note_off_c, 1, 71, 0
1, 186324, Note_on_c, 1, 56, 127
1, 186324, Note_on_c, 1, 76, 127
1, 186324, Note_on_c, 1, 71, 127
1, 186482, Note_off_c, 1, 56, 0
1, 186482, Note_off_c, 1, 76, 0
1, 186484, Note_on_c, 1, 54, 127
1, 186484, Note_on_c, 1, 78, 127
1, 186642, Note_off_c, 1, 54, 0
1, 186642, Note_off_c, 1, 78, 0
1, 186645, Note_on_c, 1, 52, 127
1, 186645, Note_on_c, 1, 80, 127
1, 186957, Note_off_c, 1, 71, 0
1, 186962, Note_off_c, 1, 52, 0
1, 186962, Note_off_c, 1, 80, 0
1, 186964, Note_on_c, 1, 80, 127
1, 186964, Note_on_c, 1, 71, 127
1, 186964, Note_on_c, 1, 57, 127
1, 187281, Note_off_c, 1, 80, 0
1, 187283, Note_on_c, 1, 73, 127
1, 187563, Note_off_c, 1, 73, 0
1, 187597, Note_off_c, 1, 71, 0
1, 187602, Note_off_c, 1, 57, 0
1, 187604, Note_on_c, 1, 51, 127
1, 187604, Note_on_c, 1, 78, 127
1, 187604, Note_on_c, 1, 69, 127
1, 187762, Note_off_c, 1, 51, 0
1, 187764, Note_on_c, 1, 49, 127
1, 187922, Note_off_c, 1, 49, 0
1, 187923, Note_off_c, 1, 78, 0
1, 187923, Note_off_c, 1, 69, 0
1, 187925, Note_on_c, 1, 51, 127
1, 187925, Note_on_c, 1, 76, 127
1, 187925, Note_on_c, 1, 68, 127
1, 188083, Note_off_c, 1, 51, 0
1, 188085, Note_on_c, 1, 52, 127
1, 188243, Note_off_c, 1, 52, 0
1, 188244, Note_off_c, 1, 76, 0
1, 188244, Note_off_c, 1, 68, 0
1, 188245, Note_on_c, 1, 54, 127
1, 188245, Note_on_c, 1, 68, 127
1, 188245, Note_on_c, 1, 76, 127
1, 188403, Note_off_c, 1, 54, 0
1, 188406, Note_on_c, 1, 52, 127
1, 188564, Note_off_c, 1, 68, 0
1, 188564, Note_off_c, 1, 76, 0
1, 188564, Note_off_c, 1, 52, 0
1, 188566, Note_on_c, 1, 54, 127
1, 188566, Note_on_c, 1, 66, 127
1, 188566, Note_on_c, 1, 75, 127
1, 188724, Note_off_c, 1, 54, 0
1, 188727, Note_on_c, 1, 56, 127
1, 188885, Note_off_c, 1, 66, 0
1, 188885, Note_off_c, 1, 75, 0
1, 188885, Note_off_c, 1, 56, 0
1, 188887, Note_on_c, 1, 57, 127
1, 188887, Note_on_c, 1, 75, 127
1, 188887, Note_on_c, 1, 66, 127
1, 189045, Note_off_c, 1, 57, 0
1, 189045, Note_off_c, 1, 75, 0
1, 189047, Note_on_c, 1, 56, 127
1, 189047, Note_on_c, 1, 72, 127
1, 189204, Note_off_c, 1, 66, 0
1, 189205, Note_off_c, 1, 56, 0
1, 189205, Note_off_c, 1, 72, 0
1, 189208, Note_on_c, 1, 57, 127
1, 189208, Note_on_c, 1, 64, 127
1, 189208, Note_on_c, 1, 73, 127
1, 189366, Note_off_c, 1, 57, 0
1, 189368, Note_on_c, 1, 54, 127
1, 189526, Note_off_c, 1, 54, 0
1, 189527, Note_off_c, 1, 64, 0
1, 189527, Note_off_c, 1, 73, 0
1, 189528, Note_on_c, 1, 56, 127
1, 189528, Note_on_c, 1, 72, 127
1, 189528, Note_on_c, 1, 63, 127
1, 189686, Note_off_c, 1, 56, 0
1, 189689, Note_on_c, 1, 57, 127
1, 189847, Note_off_c, 1, 72, 0
1, 189847, Note_off_c, 1, 57, 0
1, 189849, Note_on_c, 1, 70, 127
1, 190007, Note_off_c, 1, 70, 0
1, 190010, Note_on_c, 1, 68, 127
1, 190010, Note_on_c, 1, 54, 127
1, 190152, Note_off_c, 1, 68, 0
1, 190161, Note_off_c, 1, 63, 0
1, 190167, Note_off_c, 1, 54, 0
1, 190168, Note_on_c, 1, 71, 127
1, 190168, Note_on_c, 1, 68, 127
1, 190168, Note_on_c, 1, 53, 127
1, 190485, Note_off_c, 1, 71, 0
1, 190488, Note_on_c, 1, 74, 127
1, 190799, Note_off_c, 1, 68, 0
1, 190804, Note_off_c, 1, 53, 0
1, 190805, Note_off_c, 1, 74, 0
1, 190807, Note_on_c, 1, 74, 127
1, 190807, Note_on_c, 1, 71, 127
1, 190807, Note_on_c, 1, 56, 127
1, 191124, Note_off_c, 1, 74, 0
1, 191126, Note_on_c, 1, 80, 127
1, 191438, Note_off_c, 1, 71, 0
1, 191443, Note_off_c, 1, 56, 0
1, 191443, Note_off_c, 1, 80, 0
1, 191445, Note_on_c, 1, 80, 127
1, 191445, Note_on_c, 1, 49, 127
1, 191605, Note_on_c, 1, 71, 127
1, 191762, Note_off_c, 1, 80, 0
1, 191763, Note_off_c, 1, 71, 0
1, 191766, Note_on_c, 1, 73, 127
1, 191766, Note_on_c, 1, 65, 127
1, 192083, Note_off_c, 1, 49, 0
1, 192083, Note_off_c, 1, 73, 0
1, 192083, Note_off_c, 1, 65, 0
1, 192085, Note_on_c, 1, 54, 127
1, 192085, Note_on_c, 1, 66, 127
1, 192085, Note_on_c, 1, 69, 127
1, 192243, Note_off_c, 1, 54, 0
1, 192245, Note_on_c, 1, 56, 127
1, 192403, Note_off_c, 1, 56, 0
1, 192406, Note_on_c, 1, 57, 127
1, 192551, Note_off_c, 1, 66, 0
1, 192563, Note_off_c, 1, 57, 0
1, 192564, Note_on_c, 1, 59, 127
1, 192722, Note_off_c, 1, 59, 0
1, 192723, Note_off_c, 1, 69, 0
1, 192725, Note_on_c, 1, 61, 127
1, 192725, Note_on_c, 1, 69, 127
1, 192725, Note_on_c, 1, 66, 127
1, 192883, Note_off_c, 1, 61, 0
1, 192885, Note_on_c, 1, 63, 127
1, 193043, Note_off_c, 1, 63, 0
1, 193044, Note_off_c, 1, 69, 0
1, 193045, Note_on_c, 1, 64, 127
1, 193045, Note_on_c, 1, 73, 127
1, 193203, Note_off_c, 1, 64, 0
1, 193360, Note_off_c, 1, 66, 0
1, 193364, Note_off_c, 1, 73, 0
1, 193366, Note_on_c, 1, 63, 127
1, 193366, Note_on_c, 1, 73, 127
1, 193366, Note_on_c, 1, 69, 127
1, 193524, Note_off_c, 1, 63, 0
1, 193527, Note_on_c, 1, 61, 127
1, 193685, Note_off_c, 1, 73, 0
1, 193685, Note_off_c, 1, 61, 0
1, 193687, Note_on_c, 1, 59, 127
1, 193687, Note_on_c, 1, 78, 127
1, 193845, Note_off_c, 1, 59, 0
1, 193847, Note_on_c, 1, 57, 127
1, 194001, Note_off_c, 1, 69, 0
1, 194005, Note_off_c, 1, 57, 0
1, 194006, Note_off_c, 1, 78, 0
1, 194008, Note_on_c, 1, 56, 127
1, 194008, Note_on_c, 1, 78, 127
1, 194008, Note_on_c, 1, 69, 127
1, 194166, Note_off_c, 1, 56, 0
1, 194166, Note_off_c, 1, 78, 0
1, 194168, Note_on_c, 1, 54, 127
1, 194168, Note_on_c, 1, 75, 127
1, 194325, Note_off_c, 1, 69, 0
1, 194326, Note_off_c, 1, 54, 0
1, 194326, Note_off_c, 1, 75, 0
1, 194329, Note_on_c, 1, 56, 127
1, 194329, Note_on_c, 1, 68, 127
1, 194329, Note_on_c, 1, 76, 127
1, 194487, Note_off_c, 1, 56, 0
1, 194489, Note_on_c, 1, 52, 127
1, 194647, Note_off_c, 1, 52, 0
1, 194648, Note_off_c, 1, 68, 0
1, 194648, Note_off_c, 1, 76, 0
1, 194649, Note_on_c, 1, 59, 127
1, 194649, Note_on_c, 1, 76, 127
1, 194649, Note_on_c, 1, 66, 127
1, 194807, Note_off_c, 1, 59, 0
1, 194807, Note_off_c, 1, 76, 0
1, 194810, Note_on_c, 1, 57, 127
1, 194810, Note_on_c, 1, 75, 127
1, 194968, Note_off_c, 1, 57, 0
1, 194968, Note_off_c, 1, 75, 0
1, 194970, Note_on_c, 1, 56, 127
1, 194970, Note_on_c, 1, 73, 127
1, 195115, Note_off_c, 1, 66, 0
1, 195127, Note_off_c, 1, 56, 0
1, 195127, Note_off_c, 1, 73, 0
1, 195129, Note_on_c, 1, 54, 127
1, 195129, Note_on_c, 1, 71, 127
1, 195287, Note_off_c, 1, 54, 0
1, 195287, Note_off_c, 1, 71, 0
1, 195289, Note_on_c, 1, 80, 127
1, 195289, Note_on_c, 1, 71, 127
1, 195289, Note_on_c, 1, 52, 127
1, 195606, Note_off_c, 1, 80, 0
1, 195606, Note_off_c, 1, 71, 0
1, 195608, Note_on_c, 1, 73, 127
1, 195608, Note_on_c, 1, 81, 127
1, 195925, Note_off_c, 1, 52, 0
1, 195925, Note_off_c, 1, 73, 0
1, 195925, Note_off_c, 1, 81, 0
1, 195927, Note_on_c, 1, 81, 127
1, 195927, Note_on_c, 1, 73, 127
1, 195927, Note_on_c, 1, 40, 127
1, 196244, Note_off_c, 1, 81, 0
1, 196244, Note_off_c, 1, 73, 0
1, 196247, Note_on_c, 1, 83, 127
1, 196247, Note_on_c, 1, 74, 127
1, 196563, Note_off_c, 1, 40, 0
1, 196564, Note_off_c, 1, 83, 0
1, 196564, Note_off_c, 1, 74, 0
1, 196566, Note_on_c, 1, 74, 127
1, 196566, Note_on_c, 1, 83, 127
1, 196566, Note_on_c, 1, 41, 127
1, 196723, Note_off_c, 1, 74, 0
1, 196725, Note_on_c, 1, 71, 127
1, 196882, Note_off_c, 1, 71, 0
1, 196885, Note_on_c, 1, 73, 127
1, 197197, Note_off_c, 1, 83, 0
1, 197200, Note_off_c, 1, 73, 0
1, 197202, Note_off_c, 1, 41, 0
1, 197204, Note_on_c, 1, 42, 127
1, 197204, Note_on_c, 1, 73, 127
1, 197364, Note_off_c, 1, 42, 0
1, 197368, Note_on_c, 1, 81, 127
1, 197368, Note_on_c, 1, 44, 127
1, 197528, Note_off_c, 1, 81, 0
1, 197528, Note_off_c, 1, 44, 0
1, 197533, Note_on_c, 1, 80, 127
1, 197533, Note_on_c, 1, 45, 127
1, 197693, Note_off_c, 1, 80, 0
1, 197693, Note_off_c, 1, 45, 0
1, 197698, Note_on_c, 1, 78, 127
1, 197698, Note_on_c, 1, 47, 127
1, 197855, Note_off_c, 1, 73, 0
1, 197858, Note_off_c, 1, 78, 0
1, 197858, Note_off_c, 1, 47, 0
1, 197863, Note_on_c, 1, 49, 127
1, 197863, Note_on_c, 1, 66, 127
1, 197863, Note_on_c, 1, 76, 127
1, 198029, Note_off_c, 1, 49, 0
1, 198032, Note_on_c, 1, 45, 127
1, 198183, Note_off_c, 1, 66, 0
1, 198198, Note_off_c, 1, 45, 0
1, 198202, Note_on_c, 1, 44, 127
1, 198285, Note_on_c, 1, 68, 127
1, 198366, Note_off_c, 1, 68, 0
1, 198367, Note_off_c, 1, 44, 0
1, 198370, Note_on_c, 1, 42, 127
1, 198370, Note_on_c, 1, 69, 127
1, 198536, Note_off_c, 1, 42, 0
1, 198536, Note_off_c, 1, 69, 0
1, 198541, Note_on_c, 1, 47, 127
1, 198712, Note_off_c, 1, 47, 0
1, 199065, Note_on_c, 1, 40, 127
1, 199065, Note_on_c, 1, 71, 127
1, 199254, Note_off_c, 1, 40, 0
1, 199254, Note_off_c, 1, 71, 0
1, 199602, Note_off_c, 1, 76, 0
1, 199666, Note_on_c, 1, 75, 127
1, 199872, Note_on_c, 1, 64, 127
1, 200071, Note_off_c, 1, 64, 0
1, 200104, Note_off_c, 1, 75, 0
1, 200113, Note_on_c, 1, 40, 127
1, 200113, Note_on_c, 1, 76, 127
1, 200113, Note_on_c, 1, 64, 127
1, 201633, Note_off_c, 1, 40, 0
1, 201693, Note_off_c, 1, 76, 0
1, 201693, Note_off_c, 1, 64, 0
1, 201790, Note_on_c, 1, 80, 127
1, 201790, Note_on_c, 1, 64, 127
1, 201903, Note_off_c, 1, 80, 0
1, 201905, Note_on_c, 1, 81, 127
1, 202018, Note_off_c, 1, 64, 0
1, 202018, Note_off_c, 1, 81, 0
1, 202020, Note_on_c, 1, 83, 127
1, 202020, Note_on_c, 1, 63, 127
1, 202248, Note_off_c, 1, 83, 0
1, 202248, Note_off_c, 1, 63, 0
1, 202250, Note_on_c, 1, 61, 127
1, 202250, Note_on_c, 1, 81, 127
1, 202478, Note_off_c, 1, 61, 0
1, 202480, Note_on_c, 1, 64, 127
1, 202708, Note_off_c, 1, 81, 0
1, 202708, Note_off_c, 1, 64, 0
1, 202710, Note_on_c, 1, 59, 127
1, 202710, Note_on_c, 1, 80, 127
1, 202938, Note_off_c, 1, 59, 0
1, 202940, Note_on_c, 1, 64, 127
1, 203168, Note_off_c, 1, 80, 0
1, 203168, Note_off_c, 1, 64, 0
1, 203171, Note_on_c, 1, 78, 127
1, 203171, Note_on_c, 1, 57, 127
1, 203399, Note_off_c, 1, 78, 0
1, 203399, Note_off_c, 1, 57, 0
1, 203401, Note_on_c, 1, 75, 127
1, 203401, Note_on_c, 1, 64, 127
1, 203629, Note_off_c, 1, 75, 0
1, 203629, Note_off_c, 1, 64, 0
1, 203631, Note_on_c, 1, 56, 127
1, 203631, Note_on_c, 1, 76, 127
1, 203859, Note_off_c, 1, 56, 0
1, 203861, Note_on_c, 1, 64, 127
1, 204089, Note_off_c, 1, 64, 0
1, 204091, Note_on_c, 1, 54, 127
1, 204301, Note_off_c, 1, 76, 0
1, 204317, Note_off_c, 1, 54, 0
1, 204319, Note_on_c, 1, 64, 127
1, 204547, Note_off_c, 1, 64, 0
1, 204549, Note_on_c, 1, 71, 127
1, 204549, Note_on_c, 1, 56, 127
1, 204777, Note_off_c, 1, 71, 0
1, 204777, Note_off_c, 1, 56, 0
1, 204779, Note_on_c, 1, 74, 127
1, 204779, Note_on_c, 1, 64, 127
1, 205007, Note_off_c, 1, 74, 0
1, 205007, Note_off_c, 1, 64, 0
1, 205009, Note_on_c, 1, 74, 127
1, 205009, Note_on_c, 1, 57, 127
1, 205237, Note_off_c, 1, 74, 0
1, 205237, Note_off_c, 1, 57, 0
1, 205239, Note_on_c, 1, 73, 127
1, 205239, Note_on_c, 1, 64, 127
1, 205467, Note_off_c, 1, 73, 0
1, 205467, Note_off_c, 1, 64, 0
1, 205469, Note_on_c, 1, 73, 127
1, 205469, Note_on_c, 1, 56, 127
1, 205697, Note_off_c, 1, 73, 0
1, 205697, Note_off_c, 1, 56, 0
1, 205699, Note_on_c, 1, 71, 127
1, 205699, Note_on_c, 1, 64, 127
1, 205927, Note_off_c, 1, 71, 0
1, 205927, Note_off_c, 1, 64, 0
1, 205929, Note_on_c, 1, 71, 127
1, 205929, Note_on_c, 1, 54, 127
1, 206042, Note_off_c, 1, 71, 0
1, 206044, Note_on_c, 1, 69, 127
1, 206157, Note_off_c, 1, 54, 0
1, 206157, Note_off_c, 1, 69, 0
1, 206159, Note_on_c, 1, 68, 127
1, 206159, Note_on_c, 1, 63, 127
1, 206272, Note_off_c, 1, 68, 0
1, 206274, Note_on_c, 1, 66, 127
1, 206387, Note_off_c, 1, 63, 0
1, 206387, Note_off_c, 1, 66, 0
1, 206389, Note_on_c, 1, 68, 127
1, 206389, Note_on_c, 1, 64, 127
1, 206502, Note_off_c, 1, 68, 0
1, 206504, Note_on_c, 1, 66, 127
1, 206617, Note_off_c, 1, 64, 0
1, 206617, Note_off_c, 1, 66, 0
1, 206619, Note_on_c, 1, 68, 127
1, 206619, Note_on_c, 1, 52, 127
1, 206847, Note_off_c, 1, 68, 0
1, 206847, Note_off_c, 1, 52, 0
1, 206850, Note_on_c, 1, 56, 127
1, 206850, Note_on_c, 1, 64, 127
1, 207078, Note_off_c, 1, 56, 0
1, 207080, Note_on_c, 1, 59, 127
1, 207195, Note_off_c, 1, 64, 0
1, 207308, Note_off_c, 1, 59, 0
1, 207310, Note_on_c, 1, 80, 127
1, 207310, Note_on_c, 1, 64, 127
1, 207423, Note_off_c, 1, 80, 0
1, 207425, Note_on_c, 1, 81, 127
1, 207538, Note_off_c, 1, 64, 0
1, 207538, Note_off_c, 1, 81, 0
1, 207540, Note_on_c, 1, 83, 127
1, 207540, Note_on_c, 1, 63, 127
1, 207768, Note_off_c, 1, 83, 0
1, 207768, Note_off_c, 1, 63, 0
1, 207770, Note_on_c, 1, 61, 127
1, 207770, Note_on_c, 1, 81, 127
1, 207998, Note_off_c, 1, 61, 0
1, 208000, Note_on_c, 1, 64, 127
1, 208228, Note_off_c, 1, 81, 0
1, 208228, Note_off_c, 1, 64, 0
1, 208230, Note_on_c, 1, 59, 127
1, 208230, Note_on_c, 1, 80, 127
1, 208458, Note_off_c, 1, 59, 0
1, 208460, Note_on_c, 1, 64, 127
1, 208688, Note_off_c, 1, 80, 0
1, 208688, Note_off_c, 1, 64, 0
1, 208690, Note_on_c, 1, 70, 127
1, 208690, Note_on_c, 1, 61, 127
1, 208918, Note_off_c, 1, 70, 0
1, 208918, Note_off_c, 1, 61, 0
1, 208920, Note_on_c, 1, 73, 127
1, 208920, Note_on_c, 1, 64, 127
1, 209148, Note_off_c, 1, 73, 0
1, 209148, Note_off_c, 1, 64, 0
1, 209150, Note_on_c, 1, 59, 127
1, 209150, Note_on_c, 1, 78, 127
1, 209378, Note_off_c, 1, 59, 0
1, 209380, Note_on_c, 1, 64, 127
1, 209608, Note_off_c, 1, 64, 0
1, 209610, Note_on_c, 1, 58, 127
1, 209820, Note_off_c, 1, 78, 0
1, 209836, Note_off_c, 1, 58, 0
1, 209838, Note_on_c, 1, 64, 127
1, 210066, Note_off_c, 1, 64, 0
1, 210068, Note_on_c, 1, 66, 127
1, 210068, Note_on_c, 1, 59, 127
1, 210296, Note_off_c, 1, 66, 0
1, 210296, Note_off_c, 1, 59, 0
1, 210299, Note_on_c, 1, 68, 127
1, 210299, Note_on_c, 1, 63, 127
1, 210412, Note_off_c, 1, 68, 0
1, 210414, Note_on_c, 1, 70, 127
1, 210527, Note_off_c, 1, 63, 0
1, 210527, Note_off_c, 1, 70, 0
1, 210529, Note_on_c, 1, 71, 127
1, 210529, Note_on_c, 1, 51, 127
1, 210757, Note_off_c, 1, 71, 0
1, 210757, Note_off_c, 1, 51, 0
1, 210759, Note_on_c, 1, 73, 127
1, 210759, Note_on_c, 1, 59, 127
1, 210872, Note_off_c, 1, 73, 0
1, 210874, Note_on_c, 1, 75, 127
1, 210987, Note_off_c, 1, 59, 0
1, 210987, Note_off_c, 1, 75, 0
1, 210989, Note_on_c, 1, 76, 127
1, 210989, Note_on_c, 1, 54, 127
1, 211217, Note_off_c, 1, 76, 0
1, 211217, Note_off_c, 1, 54, 0
1, 211219, Note_on_c, 1, 75, 127
1, 211219, Note_on_c, 1, 58, 127
1, 211332, Note_off_c, 1, 75, 0
1, 211334, Note_on_c, 1, 73, 127
1, 211447, Note_off_c, 1, 58, 0
1, 211447, Note_off_c, 1, 73, 0
1, 211449, Note_on_c, 1, 78, 127
1, 211449, Note_on_c, 1, 59, 127
1, 211562, Note_off_c, 1, 78, 0
1, 211564, Note_on_c, 1, 76, 127
1, 211677, Note_off_c, 1, 59, 0
1, 211677, Note_off_c, 1, 76, 0
1, 211679, Note_on_c, 1, 75, 127
1, 211679, Note_on_c, 1, 54, 127
1, 211792, Note_off_c, 1, 75, 0
1, 211794, Note_on_c, 1, 73, 127
1, 211907, Note_off_c, 1, 54, 0
1, 211907, Note_off_c, 1, 73, 0
1, 211909, Note_on_c, 1, 51, 127
1, 211909, Note_on_c, 1, 71, 127
1, 212137, Note_off_c, 1, 51, 0
1, 212139, Note_on_c, 1, 54, 127
1, 212367, Note_off_c, 1, 54, 0
1, 212369, Note_on_c, 1, 47, 127
1, 212579, Note_off_c, 1, 71, 0
1, 212825, Note_off_c, 1, 47, 0
1, 212827, Note_on_c, 1, 75, 127
1, 212827, Note_on_c, 1, 59, 127
1, 212940, Note_off_c, 1, 75, 0
1, 212942, Note_on_c, 1, 76, 127
1, 213055, Note_off_c, 1, 59, 0
1, 213055, Note_off_c, 1, 76, 0
1, 213057, Note_on_c, 1, 78, 127
1, 213057, Note_on_c, 1, 57, 127
1, 213285, Note_off_c, 1, 78, 0
1, 213285, Note_off_c, 1, 57, 0
1, 213287, Note_on_c, 1, 56, 127
1, 213287, Note_on_c, 1, 76, 127
1, 213515, Note_off_c, 1, 56, 0
1, 213517, Note_on_c, 1, 59, 127
1, 213745, Note_off_c, 1, 76, 0
1, 213745, Note_off_c, 1, 59, 0
1, 213747, Note_on_c, 1, 54, 127
1, 213747, Note_on_c, 1, 75, 127
1, 213975, Note_off_c, 1, 54, 0
1, 213978, Note_on_c, 1, 57, 127
1, 214205, Note_off_c, 1, 75, 0
1, 214206, Note_off_c, 1, 57, 0
1, 214208, Note_on_c, 1, 81, 127
1, 214208, Note_on_c, 1, 60, 127
1, 214436, Note_off_c, 1, 81, 0
1, 214436, Note_off_c, 1, 60, 0
1, 214438, Note_on_c, 1, 78, 127
1, 214438, Note_on_c, 1, 61, 127
1, 214666, Note_off_c, 1, 78, 0
1, 214666, Note_off_c, 1, 61, 0
1, 214668, Note_on_c, 1, 80, 127
1, 214668, Note_on_c, 1, 63, 127
1, 214781, Note_off_c, 1, 80, 0
1, 214783, Note_on_c, 1, 78, 127
1, 214896, Note_off_c, 1, 63, 0
1, 214896, Note_off_c, 1, 78, 0
1, 214898, Note_on_c, 1, 54, 127
1, 214898, Note_on_c, 1, 80, 127
1, 215126, Note_off_c, 1, 54, 0
1, 215128, Note_on_c, 1, 61, 127
1, 215353, Note_off_c, 1, 80, 0
1, 215354, Note_off_c, 1, 61, 0
1, 215356, Note_on_c, 1, 52, 127
1, 215584, Note_off_c, 1, 52, 0
1, 215586, Note_on_c, 1, 72, 127
1, 215586, Note_on_c, 1, 51, 127
1, 215814, Note_off_c, 1, 72, 0
1, 215814, Note_off_c, 1, 51, 0
1, 215816, Note_on_c, 1, 78, 127
1, 215816, Note_on_c, 1, 49, 127
1, 216044, Note_off_c, 1, 78, 0
1, 216044, Note_off_c, 1, 49, 0
1, 216046, Note_on_c, 1, 78, 127
1, 216046, Note_on_c, 1, 48, 127
1, 216274, Note_off_c, 1, 78, 0
1, 216274, Note_off_c, 1, 48, 0
1, 216276, Note_on_c, 1, 76, 127
1, 216276, Note_on_c, 1, 56, 127
1, 216504, Note_off_c, 1, 76, 0
1, 216504, Note_off_c, 1, 56, 0
1, 216506, Note_on_c, 1, 76, 127
1, 216506, Note_on_c, 1, 49, 127
1, 216734, Note_off_c, 1, 76, 0
1, 216734, Note_off_c, 1, 49, 0
1, 216736, Note_on_c, 1, 75, 127
1, 216736, Note_on_c, 1, 56, 127
1, 216964, Note_off_c, 1, 75, 0
1, 216964, Note_off_c, 1, 56, 0
1, 216966, Note_on_c, 1, 75, 127
1, 216966, Note_on_c, 1, 44, 127
1, 217079, Note_off_c, 1, 75, 0
1, 217081, Note_on_c, 1, 73, 127
1, 217194, Note_off_c, 1, 44, 0
1, 217194, Note_off_c, 1, 73, 0
1, 217196, Note_on_c, 1, 72, 127
1, 217196, Note_on_c, 1, 57, 127
1, 217309, Note_off_c, 1, 72, 0
1, 217311, Note_on_c, 1, 73, 127
1, 217424, Note_off_c, 1, 57, 0
1, 217424, Note_off_c, 1, 73, 0
1, 217427, Note_on_c, 1, 56, 127
1, 217427, Note_on_c, 1, 75, 127
1, 217655, Note_off_c, 1, 56, 0
1, 217657, Note_on_c, 1, 57, 127
1, 217770, Note_off_c, 1, 57, 0
1, 217885, Note_off_c, 1, 75, 0
1, 217887, Note_on_c, 1, 54, 127
1, 217887, Note_on_c, 1, 68, 127
1, 218115, Note_off_c, 1, 54, 0
1, 218117, Note_on_c, 1, 56, 127
1, 218222, Note_off_c, 1, 68, 0
1, 218228, Note_off_c, 1, 56, 0
1, 218230, Note_on_c, 1, 54, 127
1, 218343, Note_off_c, 1, 54, 0
1, 218345, Note_on_c, 1, 74, 127
1, 218345, Note_on_c, 1, 53, 127
1, 218458, Note_off_c, 1, 74, 0
1, 218460, Note_on_c, 1, 73, 127
1, 218573, Note_off_c, 1, 53, 0
1, 218573, Note_off_c, 1, 73, 0
1, 218575, Note_on_c, 1, 72, 127
1, 218575, Note_on_c, 1, 56, 127
1, 218688, Note_off_c, 1, 72, 0
1, 218690, Note_on_c, 1, 73, 127
1, 218803, Note_off_c, 1, 56, 0
1, 218803, Note_off_c, 1, 73, 0
1, 218805, Note_on_c, 1, 74, 127
1, 218805, Note_on_c, 1, 49, 127
1, 218918, Note_off_c, 1, 74, 0
1, 218920, Note_on_c, 1, 73, 127
1, 219033, Note_off_c, 1, 49, 0
1, 219033, Note_off_c, 1, 73, 0
1, 219035, Note_on_c, 1, 72, 127
1, 219035, Note_on_c, 1, 56, 127
1, 219148, Note_off_c, 1, 72, 0
1, 219150, Note_on_c, 1, 73, 127
1, 219263, Note_off_c, 1, 56, 0
1, 219263, Note_off_c, 1, 73, 0
1, 219265, Note_on_c, 1, 53, 127
1, 219265, Note_on_c, 1, 83, 127
1, 219493, Note_off_c, 1, 53, 0
1, 219495, Note_on_c, 1, 56, 127
1, 219648, Note_off_c, 1, 83, 0
1, 219723, Note_off_c, 1, 56, 0
1, 219725, Note_on_c, 1, 74, 127
1, 219725, Note_on_c, 1, 54, 127
1, 219838, Note_off_c, 1, 74, 0
1, 219840, Note_on_c, 1, 73, 127
1, 219953, Note_off_c, 1, 54, 0
1, 219953, Note_off_c, 1, 73, 0
1, 219955, Note_on_c, 1, 72, 127
1, 219955, Note_on_c, 1, 57, 127
1, 220068, Note_off_c, 1, 72, 0
1, 220070, Note_on_c, 1, 73, 127
1, 220183, Note_off_c, 1, 57, 0
1, 220183, Note_off_c, 1, 73, 0
1, 220185, Note_on_c, 1, 74, 127
1, 220185, Note_on_c, 1, 52, 127
1, 220298, Note_off_c, 1, 74, 0
1, 220300, Note_on_c, 1, 73, 127
1, 220413, Note_off_c, 1, 52, 0
1, 220413, Note_off_c, 1, 73, 0
1, 220415, Note_on_c, 1, 72, 127
1, 220415, Note_on_c, 1, 56, 127
1, 220528, Note_off_c, 1, 72, 0
1, 220530, Note_on_c, 1, 73, 127
1, 220643, Note_off_c, 1, 56, 0
1, 220643, Note_off_c, 1, 73, 0
1, 220645, Note_on_c, 1, 51, 127
1, 220645, Note_on_c, 1, 81, 127
1, 220873, Note_off_c, 1, 51, 0
1, 220875, Note_on_c, 1, 54, 127
1, 221028, Note_off_c, 1, 81, 0
1, 221103, Note_off_c, 1, 54, 0
1, 221106, Note_on_c, 1, 68, 127
1, 221106, Note_on_c, 1, 52, 127
1, 221334, Note_off_c, 1, 68, 0
1, 221334, Note_off_c, 1, 52, 0
1, 221336, Note_on_c, 1, 70, 127
1, 221336, Note_on_c, 1, 51, 127
1, 221449, Note_off_c, 1, 70, 0
1, 221451, Note_on_c, 1, 72, 127
1, 221564, Note_off_c, 1, 51, 0
1, 221564, Note_off_c, 1, 72, 0
1, 221566, Note_on_c, 1, 73, 127
1, 221566, Note_on_c, 1, 52, 127
1, 221794, Note_off_c, 1, 73, 0
1, 221794, Note_off_c, 1, 52, 0
1, 221796, Note_on_c, 1, 75, 127
1, 221796, Note_on_c, 1, 54, 127
1, 221909, Note_off_c, 1, 75, 0
1, 221911, Note_on_c, 1, 76, 127
1, 222024, Note_off_c, 1, 54, 0
1, 222024, Note_off_c, 1, 76, 0
1, 222026, Note_on_c, 1, 75, 127
1, 222026, Note_on_c, 1, 56, 127
1, 222254, Note_off_c, 1, 75, 0
1, 222254, Note_off_c, 1, 56, 0
1, 222256, Note_on_c, 1, 73, 127
1, 222256, Note_on_c, 1, 44, 127
1, 222369, Note_off_c, 1, 73, 0
1, 222371, Note_on_c, 1, 72, 127
1, 222484, Note_off_c, 1, 44, 0
1, 222484, Note_off_c, 1, 72, 0
1, 222486, Note_on_c, 1, 73, 127
1, 222486, Note_on_c, 1, 49, 127
1, 222599, Note_off_c, 1, 73, 0
1, 222601, Note_on_c, 1, 72, 127
1, 222714, Note_off_c, 1, 49, 0
1, 222714, Note_off_c, 1, 72, 0
1, 222716, Note_on_c, 1, 73, 127
1, 222716, Note_on_c, 1, 44, 127
1, 222944, Note_off_c, 1, 73, 0
1, 222944, Note_off_c, 1, 44, 0
1, 222946, Note_on_c, 1, 37, 127
1, 222946, Note_on_c, 1, 73, 127
1, 223174, Note_off_c, 1, 37, 0
1, 223176, Note_on_c, 1, 44, 127
1, 223404, Note_off_c, 1, 44, 0
1, 223406, Note_on_c, 1, 49, 127
1, 223616, Note_off_c, 1, 73, 0
1, 223632, Note_off_c, 1, 49, 0
1, 223634, Note_on_c, 1, 51, 127
1, 223862, Note_off_c, 1, 51, 0
1, 223864, Note_on_c, 1, 68, 127
1, 223864, Note_on_c, 1, 52, 127
1, 223977, Note_off_c, 1, 68, 0
1, 223979, Note_on_c, 1, 69, 127
1, 224092, Note_off_c, 1, 52, 0
1, 224092, Note_off_c, 1, 69, 0
1, 224094, Note_on_c, 1, 71, 127
1, 224094, Note_on_c, 1, 47, 127
1, 224322, Note_off_c, 1, 71, 0
1, 224322, Note_off_c, 1, 47, 0
1, 224324, Note_on_c, 1, 40, 127
1, 224324, Note_on_c, 1, 69, 127
1, 224552, Note_off_c, 1, 40, 0
1, 224555, Note_on_c, 1, 52, 127
1, 224782, Note_off_c, 1, 69, 0
1, 224783, Note_off_c, 1, 52, 0
1, 224785, Note_on_c, 1, 50, 127
1, 224785, Note_on_c, 1, 68, 127
1, 225013, Note_off_c, 1, 50, 0
1, 225015, Note_on_c, 1, 52, 127
1, 225215, Note_off_c, 1, 68, 0
1, 225241, Note_off_c, 1, 52, 0
1, 225243, Note_on_c, 1, 74, 127
1, 225243, Note_on_c, 1, 45, 127
1, 225471, Note_off_c, 1, 74, 0
1, 225471, Note_off_c, 1, 45, 0
1, 225473, Note_on_c, 1, 71, 127
1, 225473, Note_on_c, 1, 57, 127
1, 225701, Note_off_c, 1, 71, 0
1, 225701, Note_off_c, 1, 57, 0
1, 225703, Note_on_c, 1, 52, 127
1, 225703, Note_on_c, 1, 73, 127
1, 225931, Note_off_c, 1, 52, 0
1, 225933, Note_on_c, 1, 49, 127
1, 226161, Note_off_c, 1, 49, 0
1, 226373, Note_off_c, 1, 73, 0
1, 226392, Note_on_c, 1, 55, 127
1, 226620, Note_off_c, 1, 55, 0
1, 226622, Note_on_c, 1, 70, 127
1, 226622, Note_on_c, 1, 54, 127
1, 226850, Note_off_c, 1, 70, 0
1, 226850, Note_off_c, 1, 54, 0
1, 226852, Note_on_c, 1, 71, 127
1, 226852, Note_on_c, 1, 49, 127
1, 226965, Note_off_c, 1, 71, 0
1, 226967, Note_on_c, 1, 73, 127
1, 227080, Note_off_c, 1, 49, 0
1, 227080, Note_off_c, 1, 73, 0
1, 227082, Note_on_c, 1, 71, 127
1, 227082, Note_on_c, 1, 42, 127
1, 227310, Note_off_c, 1, 71, 0
1, 227310, Note_off_c, 1, 42, 0
1, 227312, Note_on_c, 1, 70, 127
1, 227312, Note_on_c, 1, 54, 127
1, 227540, Note_off_c, 1, 70, 0
1, 227540, Note_off_c, 1, 54, 0
1, 227542, Note_on_c, 1, 68, 127
1, 227542, Note_on_c, 1, 53, 127
1, 227770, Note_off_c, 1, 68, 0
1, 227770, Note_off_c, 1, 53, 0
1, 227772, Note_on_c, 1, 66, 127
1, 227772, Note_on_c, 1, 54, 127
1, 228000, Note_off_c, 1, 66, 0
1, 228000, Note_off_c, 1, 54, 0
1, 228002, Note_on_c, 1, 76, 127
1, 228002, Note_on_c, 1, 47, 127
1, 228115, Note_off_c, 1, 76, 0
1, 228117, Note_on_c, 1, 75, 127
1, 228230, Note_off_c, 1, 47, 0
1, 228230, Note_off_c, 1, 75, 0
1, 228232, Note_on_c, 1, 73, 127
1, 228232, Note_on_c, 1, 59, 127
1, 228345, Note_off_c, 1, 73, 0
1, 228347, Note_on_c, 1, 76, 127
1, 228460, Note_off_c, 1, 59, 0
1, 228460, Note_off_c, 1, 76, 0
1, 228462, Note_on_c, 1, 54, 127
1, 228462, Note_on_c, 1, 75, 127
1, 228690, Note_off_c, 1, 54, 0
1, 228692, Note_on_c, 1, 51, 127
1, 228816, Note_off_c, 1, 75, 0
1, 228920, Note_off_c, 1, 51, 0
1, 228922, Note_on_c, 1, 54, 127
1, 228922, Note_on_c, 1, 71, 127
1, 229150, Note_off_c, 1, 54, 0
1, 229152, Note_on_c, 1, 57, 127
1, 229380, Note_off_c, 1, 57, 0
1, 229382, Note_on_c, 1, 56, 127
1, 229495, Note_off_c, 1, 71, 0
1, 229497, Note_on_c, 1, 73, 127
1, 229610, Note_off_c, 1, 56, 0
1, 229610, Note_off_c, 1, 73, 0
1, 229612, Note_on_c, 1, 75, 127
1, 229612, Note_on_c, 1, 47, 127
1, 229725, Note_off_c, 1, 75, 0
1, 229727, Note_on_c, 1, 76, 127
1, 229840, Note_off_c, 1, 47, 0
1, 229840, Note_off_c, 1, 76, 0
1, 229842, Note_on_c, 1, 78, 127
1, 229842, Note_on_c, 1, 57, 127
1, 229955, Note_off_c, 1, 78, 0
1, 229957, Note_on_c, 1, 76, 127
1, 230070, Note_off_c, 1, 57, 0
1, 230070, Note_off_c, 1, 76, 0
1, 230072, Note_on_c, 1, 75, 127
1, 230072, Note_on_c, 1, 49, 127
1, 230185, Note_off_c, 1, 75, 0
1, 230187, Note_on_c, 1, 76, 127
1, 230300, Note_off_c, 1, 49, 0
1, 230300, Note_off_c, 1, 76, 0
1, 230302, Note_on_c, 1, 59, 127
1, 230302, Note_on_c, 1, 69, 127
1, 230530, Note_off_c, 1, 59, 0
1, 230532, Note_on_c, 1, 51, 127
1, 230760, Note_off_c, 1, 51, 0
1, 230762, Note_on_c, 1, 61, 127
1, 230828, Note_off_c, 1, 69, 0
1, 230877, Note_on_c, 1, 73, 127
1, 230990, Note_off_c, 1, 61, 0
1, 230990, Note_off_c, 1, 73, 0
1, 230992, Note_on_c, 1, 75, 127
1, 230992, Note_on_c, 1, 52, 127
1, 231105, Note_off_c, 1, 75, 0
1, 231107, Note_on_c, 1, 76, 127
1, 231220, Note_off_c, 1, 52, 0
1, 231220, Note_off_c, 1, 76, 0
1, 231222, Note_on_c, 1, 78, 127
1, 231222, Note_on_c, 1, 63, 127
1, 231335, Note_off_c, 1, 78, 0
1, 231337, Note_on_c, 1, 76, 127
1, 231450, Note_off_c, 1, 63, 0
1, 231450, Note_off_c, 1, 76, 0
1, 231452, Note_on_c, 1, 75, 127
1, 231452, Note_on_c, 1, 54, 127
1, 231565, Note_off_c, 1, 75, 0
1, 231567, Note_on_c, 1, 76, 127
1, 231680, Note_off_c, 1, 54, 0
1, 231680, Note_off_c, 1, 76, 0
1, 231683, Note_on_c, 1, 64, 127
1, 231683, Note_on_c, 1, 68, 127
1, 231911, Note_off_c, 1, 64, 0
1, 231913, Note_on_c, 1, 63, 127
1, 232141, Note_off_c, 1, 63, 0
1, 232143, Note_on_c, 1, 61, 127
1, 232303, Note_off_c, 1, 68, 0
1, 232374, Note_off_c, 1, 61, 0
1, 232376, Note_on_c, 1, 70, 127
1, 232376, Note_on_c, 1, 59, 127
1, 232491, Note_off_c, 1, 70, 0
1, 232496, Note_on_c, 1, 71, 127
1, 232609, Note_off_c, 1, 59, 0
1, 232611, Note_off_c, 1, 71, 0
1, 232612, Note_on_c, 1, 73, 127
1, 232612, Note_on_c, 1, 58, 127
1, 232730, Note_off_c, 1, 73, 0
1, 232736, Note_on_c, 1, 71, 127
1, 232850, Note_off_c, 1, 58, 0
1, 232852, Note_off_c, 1, 71, 0
1, 232854, Note_on_c, 1, 70, 127
1, 232854, Note_on_c, 1, 54, 127
1, 232972, Note_off_c, 1, 70, 0
1, 232979, Note_on_c, 1, 71, 127
1, 233092, Note_off_c, 1, 54, 0
1, 233097, Note_off_c, 1, 71, 0
1, 233098, Note_on_c, 1, 59, 127
1, 233098, Note_on_c, 1, 66, 127
1, 233339, Note_off_c, 1, 59, 0
1, 233339, Note_off_c, 1, 66, 0
1, 233346, Note_on_c, 1, 47, 127
1, 233346, Note_on_c, 1, 75, 127
1, 233587, Note_off_c, 1, 47, 0
1, 233587, Note_off_c, 1, 75, 0
1, 233597, Note_on_c, 1, 75, 127
1, 233597, Note_on_c, 1, 52, 127
1, 233721, Note_off_c, 1, 75, 0
1, 233733, Note_on_c, 1, 76, 127
1, 233852, Note_off_c, 1, 52, 0
1, 233857, Note_off_c, 1, 76, 0
1, 233863, Note_on_c, 1, 78, 127
1, 233863, Note_on_c, 1, 47, 127
1, 233987, Note_off_c, 1, 78, 0
1, 233999, Note_on_c, 1, 75, 127
1, 234118, Note_off_c, 1, 47, 0
1, 234123, Note_off_c, 1, 75, 0
1, 234130, Note_on_c, 1, 40, 127
1, 234130, Note_on_c, 1, 75, 127
1, 234385, Note_off_c, 1, 40, 0
1, 234385, Note_off_c, 1, 75, 0
1, 234415, Note_on_c, 1, 76, 127
1, 234415, Note_on_c, 1, 47, 127
1, 234555, Note_off_c, 1, 76, 0
1, 234558, Note_on_c, 1, 75, 127
1, 234730, Note_off_c, 1, 75, 0
1, 234742, Note_off_c, 1, 47, 0
1, 234750, Note_on_c, 1, 76, 127
1, 234750, Note_on_c, 1, 52, 127
1, 237150, Note_off_c, 1, 76, 0
1, 237150, Note_off_c, 1, 52, 0
1, 237899, Note_on_c, 1, 68, 127
1, 238044, Note_off_c, 1, 68, 0
1, 238046, Note_on_c, 1, 69, 127
1, 238191, Note_off_c, 1, 69, 0
1, 238194, Note_on_c, 1, 71, 127
1, 238487, Note_off_c, 1, 71, 0
1, 238488, Note_on_c, 1, 68, 127
1, 238488, Note_on_c, 1, 52, 127
1, 238633, Note_off_c, 1, 68, 0
1, 238633, Note_off_c, 1, 52, 0
1, 238636, Note_on_c, 1, 71, 127
1, 238636, Note_on_c, 1, 54, 127
1, 238781, Note_off_c, 1, 71, 0
1, 238781, Note_off_c, 1, 54, 0
1, 238783, Note_on_c, 1, 56, 127
1, 238783, Note_on_c, 1, 76, 127
1, 238928, Note_off_c, 1, 56, 0
1, 238931, Note_on_c, 1, 54, 127
1, 239076, Note_off_c, 1, 76, 0
1, 239076, Note_off_c, 1, 54, 0
1, 239078, Note_on_c, 1, 56, 127
1, 239078, Note_on_c, 1, 71, 127
1, 239223, Note_off_c, 1, 56, 0
1, 239225, Note_on_c, 1, 52, 127
1, 239370, Note_off_c, 1, 52, 0
1, 239371, Note_off_c, 1, 71, 0
1, 239373, Note_on_c, 1, 57, 127
1, 239373, Note_on_c, 1, 78, 127
1, 239518, Note_off_c, 1, 57, 0
1, 239520, Note_on_c, 1, 56, 127
1, 239665, Note_off_c, 1, 56, 0
1, 239666, Note_off_c, 1, 78, 0
1, 239668, Note_on_c, 1, 57, 127
1, 239668, Note_on_c, 1, 71, 127
1, 239813, Note_off_c, 1, 57, 0
1, 239815, Note_on_c, 1, 52, 127
1, 239960, Note_off_c, 1, 52, 0
1, 239961, Note_off_c, 1, 71, 0
1, 239963, Note_on_c, 1, 59, 127
1, 239963, Note_on_c, 1, 80, 127
1, 240108, Note_off_c, 1, 59, 0
1, 240110, Note_on_c, 1, 57, 127
1, 240255, Note_off_c, 1, 57, 0
1, 240256, Note_off_c, 1, 80, 0
1, 240257, Note_on_c, 1, 59, 127
1, 240257, Note_on_c, 1, 71, 127
1, 240402, Note_off_c, 1, 59, 0
1, 240405, Note_on_c, 1, 52, 127
1, 240550, Note_off_c, 1, 71, 0
1, 240550, Note_off_c, 1, 52, 0
1, 240552, Note_on_c, 1, 61, 127
1, 240552, Note_on_c, 1, 81, 127
1, 240697, Note_off_c, 1, 61, 0
1, 240700, Note_on_c, 1, 59, 127
1, 240845, Note_off_c, 1, 81, 0
1, 240845, Note_off_c, 1, 59, 0
1, 240847, Note_on_c, 1, 80, 127
1, 240847, Note_on_c, 1, 61, 127
1, 240992, Note_off_c, 1, 80, 0
1, 240992, Note_off_c, 1, 61, 0
1, 240995, Note_on_c, 1, 81, 127
1, 240995, Note_on_c, 1, 52, 127
1, 241140, Note_off_c, 1, 81, 0
1, 241140, Note_off_c, 1, 52, 0
1, 241142, Note_on_c, 1, 83, 127
1, 241142, Note_on_c, 1, 63, 127
1, 241287, Note_off_c, 1, 83, 0
1, 241287, Note_off_c, 1, 63, 0
1, 241289, Note_on_c, 1, 81, 127
1, 241289, Note_on_c, 1, 61, 127
1, 241434, Note_off_c, 1, 81, 0
1, 241434, Note_off_c, 1, 61, 0
1, 241437, Note_on_c, 1, 80, 127
1, 241437, Note_on_c, 1, 63, 127
1, 241582, Note_off_c, 1, 80, 0
1, 241582, Note_off_c, 1, 63, 0
1, 241584, Note_on_c, 1, 78, 127
1, 241584, Note_on_c, 1, 52, 127
1, 241729, Note_off_c, 1, 78, 0
1, 241729, Note_off_c, 1, 52, 0
1, 241732, Note_on_c, 1, 81, 127
1, 241732, Note_on_c, 1, 64, 127
1, 241877, Note_off_c, 1, 81, 0
1, 241879, Note_on_c, 1, 80, 127
1, 242024, Note_off_c, 1, 80, 0
1, 242025, Note_off_c, 1, 64, 0
1, 242026, Note_on_c, 1, 78, 127
1, 242026, Note_on_c, 1, 59, 127
1, 242171, Note_off_c, 1, 78, 0
1, 242174, Note_on_c, 1, 80, 127
1, 242319, Note_off_c, 1, 59, 0
1, 242319, Note_off_c, 1, 80, 0
1, 242321, Note_on_c, 1, 76, 127
1, 242321, Note_on_c, 1, 56, 127
1, 242466, Note_off_c, 1, 76, 0
1, 242469, Note_on_c, 1, 80, 127
1, 242614, Note_off_c, 1, 56, 0
1, 242614, Note_off_c, 1, 80, 0
1, 242616, Note_on_c, 1, 78, 127
1, 242616, Note_on_c, 1, 60, 127
1, 242761, Note_off_c, 1, 78, 0
1, 242764, Note_on_c, 1, 80, 127
1, 242893, Note_off_c, 1, 60, 0
1, 242909, Note_off_c, 1, 80, 0
1, 242911, Note_on_c, 1, 76, 127
1, 242911, Note_on_c, 1, 61, 127
1, 243056, Note_off_c, 1, 76, 0
1, 243058, Note_on_c, 1, 80, 127
1, 243203, Note_off_c, 1, 80, 0
1, 243204, Note_off_c, 1, 61, 0
1, 243206, Note_on_c, 1, 75, 127
1, 243206, Note_on_c, 1, 56, 127
1, 243351, Note_off_c, 1, 75, 0
1, 243353, Note_on_c, 1, 80, 127
1, 243466, Note_off_c, 1, 56, 0
1, 243498, Note_off_c, 1, 80, 0
1, 243501, Note_on_c, 1, 73, 127
1, 243501, Note_on_c, 1, 63, 127
1, 243646, Note_off_c, 1, 73, 0
1, 243648, Note_on_c, 1, 80, 127
1, 243793, Note_off_c, 1, 80, 0
1, 243794, Note_off_c, 1, 63, 0
1, 243795, Note_on_c, 1, 72, 127
1, 243795, Note_on_c, 1, 56, 127
1, 243940, Note_off_c, 1, 72, 0
1, 243943, Note_on_c, 1, 80, 127
1, 244055, Note_off_c, 1, 56, 0
1, 244088, Note_off_c, 1, 80, 0
1, 244090, Note_on_c, 1, 73, 127
1, 244090, Note_on_c, 1, 64, 127
1, 244235, Note_off_c, 1, 73, 0
1, 244235, Note_off_c, 1, 64, 0
1, 244238, Note_on_c, 1, 75, 127
1, 244238, Note_on_c, 1, 63, 127
1, 244383, Note_off_c, 1, 75, 0
1, 244383, Note_off_c, 1, 63, 0
1, 244385, Note_on_c, 1, 76, 127
1, 244385, Note_on_c, 1, 61, 127
1, 244530, Note_off_c, 1, 76, 0
1, 244530, Note_off_c, 1, 61, 0
1, 244533, Note_on_c, 1, 78, 127
1, 244533, Note_on_c, 1, 63, 127
1, 244678, Note_off_c, 1, 78, 0
1, 244678, Note_off_c, 1, 63, 0
1, 244680, Note_on_c, 1, 80, 127
1, 244680, Note_on_c, 1, 64, 127
1, 244825, Note_off_c, 1, 80, 0
1, 244827, Note_on_c, 1, 78, 127
1, 244972, Note_off_c, 1, 78, 0
1, 244973, Note_off_c, 1, 64, 0
1, 244975, Note_on_c, 1, 76, 127
1, 244975, Note_on_c, 1, 58, 127
1, 245120, Note_off_c, 1, 76, 0
1, 245122, Note_on_c, 1, 78, 127
1, 245267, Note_off_c, 1, 78, 0
1, 245268, Note_off_c, 1, 58, 0
1, 245270, Note_on_c, 1, 75, 127
1, 245270, Note_on_c, 1, 59, 127
1, 245415, Note_off_c, 1, 75, 0
1, 245417, Note_on_c, 1, 78, 127
1, 245562, Note_off_c, 1, 78, 0
1, 245563, Note_off_c, 1, 59, 0
1, 245565, Note_on_c, 1, 73, 127
1, 245565, Note_on_c, 1, 54, 127
1, 245710, Note_off_c, 1, 73, 0
1, 245712, Note_on_c, 1, 78, 127
1, 245825, Note_off_c, 1, 54, 0
1, 245857, Note_off_c, 1, 78, 0
1, 245859, Note_on_c, 1, 71, 127
1, 245859, Note_on_c, 1, 61, 127
1, 246004, Note_off_c, 1, 71, 0
1, 246007, Note_on_c, 1, 78, 127
1, 246152, Note_off_c, 1, 61, 0
1, 246152, Note_off_c, 1, 78, 0
1, 246154, Note_on_c, 1, 70, 127
1, 246154, Note_on_c, 1, 54, 127
1, 246299, Note_off_c, 1, 70, 0
1, 246302, Note_on_c, 1, 78, 127
1, 246414, Note_off_c, 1, 54, 0
1, 246447, Note_off_c, 1, 78, 0
1, 246449, Note_on_c, 1, 71, 127
1, 246449, Note_on_c, 1, 63, 127
1, 246594, Note_off_c, 1, 71, 0
1, 246594, Note_off_c, 1, 63, 0
1, 246596, Note_on_c, 1, 73, 127
1, 246596, Note_on_c, 1, 61, 127
1, 246741, Note_off_c, 1, 73, 0
1, 246741, Note_off_c, 1, 61, 0
1, 246744, Note_on_c, 1, 75, 127
1, 246744, Note_on_c, 1, 59, 127
1, 246889, Note_off_c, 1, 75, 0
1, 246889, Note_off_c, 1, 59, 0
1, 246891, Note_on_c, 1, 76, 127
1, 246891, Note_on_c, 1, 61, 127
1, 247036, Note_off_c, 1, 76, 0
1, 247036, Note_off_c, 1, 61, 0
1, 247039, Note_on_c, 1, 78, 127
1, 247039, Note_on_c, 1, 63, 127
1, 247184, Note_off_c, 1, 78, 0
1, 247186, Note_on_c, 1, 80, 127
1, 247331, Note_off_c, 1, 80, 0
1, 247332, Note_off_c, 1, 63, 0
1, 247334, Note_on_c, 1, 82, 127
1, 247334, Note_on_c, 1, 56, 127
1, 247479, Note_off_c, 1, 82, 0
1, 247481, Note_on_c, 1, 83, 127
1, 247626, Note_off_c, 1, 83, 0
1, 247627, Note_off_c, 1, 56, 0
1, 247628, Note_on_c, 1, 76, 127
1, 247628, Note_on_c, 1, 61, 127
1, 247773, Note_off_c, 1, 76, 0
1, 247773, Note_off_c, 1, 61, 0
1, 247776, Note_on_c, 1, 78, 127
1, 247776, Note_on_c, 1, 59, 127
1, 247921, Note_off_c, 1, 78, 0
1, 247921, Note_off_c, 1, 59, 0
1, 247923, Note_on_c, 1, 75, 127
1, 247923, Note_on_c, 1, 61, 127
1, 248068, Note_off_c, 1, 75, 0
1, 248068, Note_off_c, 1, 61, 0
1, 248071, Note_on_c, 1, 76, 127
1, 248071, Note_on_c, 1, 59, 127
1, 248216, Note_off_c, 1, 76, 0
1, 248216, Note_off_c, 1, 59, 0
1, 248218, Note_on_c, 1, 78, 127
1, 248218, Note_on_c, 1, 58, 127
1, 248363, Note_off_c, 1, 78, 0
1, 248363, Note_off_c, 1, 58, 0
1, 248366, Note_on_c, 1, 76, 127
1, 248366, Note_on_c, 1, 59, 127
1, 248511, Note_off_c, 1, 76, 0
1, 248511, Note_off_c, 1, 59, 0
1, 248513, Note_on_c, 1, 78, 127
1, 248513, Note_on_c, 1, 56, 127
1, 248658, Note_off_c, 1, 78, 0
1, 248658, Note_off_c, 1, 56, 0
1, 248660, Note_on_c, 1, 76, 127
1, 248660, Note_on_c, 1, 58, 127
1, 248805, Note_off_c, 1, 76, 0
1, 248805, Note_off_c, 1, 58, 0
1, 248808, Note_on_c, 1, 75, 127
1, 248808, Note_on_c, 1, 59, 127
1, 248953, Note_off_c, 1, 75, 0
1, 248953, Note_off_c, 1, 59, 0
1, 248955, Note_on_c, 1, 76, 127
1, 248955, Note_on_c, 1, 58, 127
1, 249100, Note_off_c, 1, 76, 0
1, 249100, Note_off_c, 1, 58, 0
1, 249103, Note_on_c, 1, 73, 127
1, 249103, Note_on_c, 1, 59, 127
1, 249248, Note_off_c, 1, 73, 0
1, 249248, Note_off_c, 1, 59, 0
1, 249250, Note_on_c, 1, 75, 127
1, 249250, Note_on_c, 1, 58, 127
1, 249395, Note_off_c, 1, 75, 0
1, 249395, Note_off_c, 1, 58, 0
1, 249397, Note_on_c, 1, 76, 127
1, 249397, Note_on_c, 1, 56, 127
1, 249542, Note_off_c, 1, 76, 0
1, 249542, Note_off_c, 1, 56, 0
1, 249545, Note_on_c, 1, 75, 127
1, 249545, Note_on_c, 1, 54, 127
1, 249690, Note_off_c, 1, 75, 0
1, 249690, Note_off_c, 1, 54, 0
1, 249692, Note_on_c, 1, 76, 127
1, 249692, Note_on_c, 1, 56, 127
1, 249837, Note_off_c, 1, 76, 0
1, 249837, Note_off_c, 1, 56, 0
1, 249840, Note_on_c, 1, 75, 127
1, 249840, Note_on_c, 1, 54, 127
1, 249985, Note_off_c, 1, 75, 0
1, 249985, Note_off_c, 1, 54, 0
1, 249987, Note_on_c, 1, 73, 127
1, 249987, Note_on_c, 1, 52, 127
1, 250132, Note_off_c, 1, 73, 0
1, 250132, Note_off_c, 1, 52, 0
1, 250135, Note_on_c, 1, 75, 127
1, 250135, Note_on_c, 1, 51, 127
1, 250280, Note_off_c, 1, 75, 0
1, 250280, Note_off_c, 1, 51, 0
1, 250282, Note_on_c, 1, 71, 127
1, 250282, Note_on_c, 1, 52, 127
1, 250427, Note_off_c, 1, 71, 0
1, 250427, Note_off_c, 1, 52, 0
1, 250429, Note_on_c, 1, 73, 127
1, 250429, Note_on_c, 1, 49, 127
1, 250574, Note_off_c, 1, 73, 0
1, 250574, Note_off_c, 1, 49, 0
1, 250577, Note_on_c, 1, 75, 127
1, 250577, Note_on_c, 1, 54, 127
1, 250722, Note_off_c, 1, 75, 0
1, 250724, Note_on_c, 1, 73, 127
1, 250869, Note_off_c, 1, 73, 0
1, 250870, Note_off_c, 1, 54, 0
1, 250872, Note_on_c, 1, 75, 127
1, 250872, Note_on_c, 1, 42, 127
1, 251017, Note_off_c, 1, 75, 0
1, 251019, Note_on_c, 1, 73, 127
1, 251164, Note_off_c, 1, 73, 0
1, 251165, Note_off_c, 1, 42, 0
1, 251166, Note_on_c, 1, 71, 127
1, 251166, Note_on_c, 1, 47, 127
1, 251750, Note_off_c, 1, 71, 0
1, 251904, Note_off_c, 1, 47, 0
1, 252053, Note_on_c, 1, 51, 127
1, 252053, Note_on_c, 1, 83, 127
1, 252198, Note_off_c, 1, 51, 0
1, 252200, Note_on_c, 1, 52, 127
1, 252345, Note_off_c, 1, 52, 0
1, 252346, Note_off_c, 1, 83, 0
1, 252347, Note_on_c, 1, 75, 127
1, 252347, Note_on_c, 1, 54, 127
1, 252492, Note_off_c, 1, 75, 0
1, 252495, Note_on_c, 1, 73, 127
1, 252640, Note_off_c, 1, 54, 0
1, 252640, Note_off_c, 1, 73, 0
1, 252642, Note_on_c, 1, 71, 127
1, 252642, Note_on_c, 1, 51, 127
1, 252787, Note_off_c, 1, 71, 0
1, 252787, Note_off_c, 1, 51, 0
1, 252790, Note_on_c, 1, 73, 127
1, 252790, Note_on_c, 1, 54, 127
1, 252935, Note_off_c, 1, 73, 0
1, 252935, Note_off_c, 1, 54, 0
1, 252937, Note_on_c, 1, 75, 127
1, 252937, Note_on_c, 1, 59, 127
1, 253082, Note_off_c, 1, 75, 0
1, 253085, Note_on_c, 1, 73, 127
1, 253230, Note_off_c, 1, 59, 0
1, 253230, Note_off_c, 1, 73, 0
1, 253232, Note_on_c, 1, 75, 127
1, 253232, Note_on_c, 1, 54, 127
1, 253377, Note_off_c, 1, 75, 0
1, 253379, Note_on_c, 1, 71, 127
1, 253492, Note_off_c, 1, 54, 0
1, 253524, Note_off_c, 1, 71, 0
1, 253527, Note_on_c, 1, 76, 127
1, 253527, Note_on_c, 1, 61, 127
1, 253672, Note_off_c, 1, 76, 0
1, 253674, Note_on_c, 1, 75, 127
1, 253819, Note_off_c, 1, 75, 0
1, 253820, Note_off_c, 1, 61, 0
1, 253822, Note_on_c, 1, 76, 127
1, 253822, Note_on_c, 1, 54, 127
1, 253967, Note_off_c, 1, 76, 0
1, 253969, Note_on_c, 1, 71, 127
1, 254082, Note_off_c, 1, 54, 0
1, 254114, Note_off_c, 1, 71, 0
1, 254117, Note_on_c, 1, 78, 127
1, 254117, Note_on_c, 1, 63, 127
1, 254262, Note_off_c, 1, 78, 0
1, 254264, Note_on_c, 1, 76, 127
1, 254409, Note_off_c, 1, 76, 0
1, 254410, Note_off_c, 1, 63, 0
1, 254411, Note_on_c, 1, 78, 127
1, 254411, Note_on_c, 1, 54, 127
1, 254556, Note_off_c, 1, 78, 0
1, 254559, Note_on_c, 1, 71, 127
1, 254671, Note_off_c, 1, 54, 0
1, 254704, Note_off_c, 1, 71, 0
1, 254706, Note_on_c, 1, 80, 127
1, 254706, Note_on_c, 1, 64, 127
1, 254851, Note_off_c, 1, 80, 0
1, 254854, Note_on_c, 1, 78, 127
1, 254999, Note_off_c, 1, 64, 0
1, 254999, Note_off_c, 1, 78, 0
1, 255001, Note_on_c, 1, 80, 127
1, 255001, Note_on_c, 1, 63, 127
1, 255146, Note_off_c, 1, 80, 0
1, 255146, Note_off_c, 1, 63, 0
1, 255148, Note_on_c, 1, 71, 127
1, 255148, Note_on_c, 1, 64, 127
1, 255293, Note_off_c, 1, 71, 0
1, 255293, Note_off_c, 1, 64, 0
1, 255296, Note_on_c, 1, 82, 127
1, 255296, Note_on_c, 1, 66, 127
1, 255441, Note_off_c, 1, 82, 0
1, 255441, Note_off_c, 1, 66, 0
1, 255443, Note_on_c, 1, 80, 127
1, 255443, Note_on_c, 1, 64, 127
1, 255588, Note_off_c, 1, 80, 0
1, 255588, Note_off_c, 1, 64, 0
1, 255591, Note_on_c, 1, 82, 127
1, 255591, Note_on_c, 1, 63, 127
1, 255736, Note_off_c, 1, 82, 0
1, 255736, Note_off_c, 1, 63, 0
1, 255738, Note_on_c, 1, 71, 127
1, 255738, Note_on_c, 1, 61, 127
1, 255883, Note_off_c, 1, 71, 0
1, 255883, Note_off_c, 1, 61, 0
1, 255886, Note_on_c, 1, 83, 127
1, 255886, Note_on_c, 1, 64, 127
1, 256031, Note_off_c, 1, 83, 0
1, 256031, Note_off_c, 1, 64, 0
1, 256033, Note_on_c, 1, 78, 127
1, 256033, Note_on_c, 1, 63, 127
1, 256178, Note_off_c, 1, 78, 0
1, 256178, Note_off_c, 1, 63, 0
1, 256180, Note_on_c, 1, 76, 127
1, 256180, Note_on_c, 1, 61, 127
1, 256325, Note_off_c, 1, 76, 0
1, 256325, Note_off_c, 1, 61, 0
1, 256328, Note_on_c, 1, 78, 127
1, 256328, Note_on_c, 1, 63, 127
1, 256473, Note_off_c, 1, 78, 0
1, 256473, Note_off_c, 1, 63, 0
1, 256475, Note_on_c, 1, 59, 127
1, 256475, Note_on_c, 1, 75, 127
1, 256620, Note_off_c, 1, 59, 0
1, 256623, Note_on_c, 1, 68, 127
1, 256768, Note_off_c, 1, 75, 0
1, 256768, Note_off_c, 1, 68, 0
1, 256770, Note_on_c, 1, 80, 127
1, 256770, Note_on_c, 1, 66, 127
1, 256915, Note_off_c, 1, 80, 0
1, 256915, Note_off_c, 1, 66, 0
1, 256917, Note_on_c, 1, 72, 127
1, 256917, Note_on_c, 1, 68, 127
1, 257062, Note_off_c, 1, 72, 0
1, 257062, Note_off_c, 1, 68, 0
1, 257065, Note_on_c, 1, 64, 127
1, 257065, Note_on_c, 1, 73, 127
1, 257210, Note_off_c, 1, 64, 0
1, 257212, Note_on_c, 1, 68, 127
1, 257357, Note_off_c, 1, 68, 0
1, 257358, Note_off_c, 1, 73, 0
1, 257360, Note_on_c, 1, 63, 127
1, 257360, Note_on_c, 1, 80, 127
1, 257505, Note_off_c, 1, 63, 0
1, 257507, Note_on_c, 1, 68, 127
1, 257606, Note_off_c, 1, 80, 0
1, 257652, Note_off_c, 1, 68, 0
1, 257655, Note_on_c, 1, 61, 127
1, 257655, Note_on_c, 1, 75, 127
1, 257800, Note_off_c, 1, 61, 0
1, 257802, Note_on_c, 1, 68, 127
1, 257947, Note_off_c, 1, 68, 0
1, 257948, Note_off_c, 1, 75, 0
1, 257949, Note_on_c, 1, 60, 127
1, 257949, Note_on_c, 1, 80, 127
1, 258094, Note_off_c, 1, 60, 0
1, 258097, Note_on_c, 1, 68, 127
1, 258195, Note_off_c, 1, 80, 0
1, 258242, Note_off_c, 1, 68, 0
1, 258244, Note_on_c, 1, 76, 127
1, 258244, Note_on_c, 1, 61, 127
1, 258389, Note_off_c, 1, 76, 0
1, 258392, Note_on_c, 1, 75, 127
1, 258537, Note_off_c, 1, 61, 0
1, 258537, Note_off_c, 1, 75, 0
1, 258539, Note_on_c, 1, 76, 127
1, 258539, Note_on_c, 1, 68, 127
1, 258684, Note_off_c, 1, 76, 0
1, 258684, Note_off_c, 1, 68, 0
1, 258687, Note_on_c, 1, 78, 127
1, 258687, Note_on_c, 1, 66, 127
1, 258832, Note_off_c, 1, 78, 0
1, 258832, Note_off_c, 1, 66, 0
1, 258834, Note_on_c, 1, 80, 127
1, 258834, Note_on_c, 1, 64, 127
1, 258979, Note_off_c, 1, 80, 0
1, 258979, Note_off_c, 1, 64, 0
1, 258981, Note_on_c, 1, 81, 127
1, 258981, Note_on_c, 1, 66, 127
1, 259126, Note_off_c, 1, 81, 0
1, 259126, Note_off_c, 1, 66, 0
1, 259129, Note_on_c, 1, 80, 127
1, 259129, Note_on_c, 1, 64, 127
1, 259274, Note_off_c, 1, 80, 0
1, 259274, Note_off_c, 1, 64, 0
1, 259276, Note_on_c, 1, 78, 127
1, 259276, Note_on_c, 1, 63, 127
1, 259421, Note_off_c, 1, 78, 0
1, 259421, Note_off_c, 1, 63, 0
1, 259424, Note_on_c, 1, 76, 127
1, 259424, Note_on_c, 1, 61, 127
1, 259569, Note_off_c, 1, 76, 0
1, 259571, Note_on_c, 1, 80, 127
1, 259716, Note_off_c, 1, 80, 0
1, 259717, Note_off_c, 1, 61, 0
1, 259718, Note_on_c, 1, 75, 127
1, 259718, Note_on_c, 1, 56, 127
1, 259863, Note_off_c, 1, 75, 0
1, 259866, Note_on_c, 1, 80, 127
1, 259978, Note_off_c, 1, 56, 0
1, 260011, Note_off_c, 1, 80, 0
1, 260013, Note_on_c, 1, 73, 127
1, 260013, Note_on_c, 1, 63, 127
1, 260158, Note_off_c, 1, 73, 0
1, 260161, Note_on_c, 1, 80, 127
1, 260306, Note_off_c, 1, 63, 0
1, 260306, Note_off_c, 1, 80, 0
1, 260308, Note_on_c, 1, 72, 127
1, 260308, Note_on_c, 1, 56, 127
1, 260453, Note_off_c, 1, 72, 0
1, 260456, Note_on_c, 1, 80, 127
1, 260568, Note_off_c, 1, 56, 0
1, 260601, Note_off_c, 1, 80, 0
1, 260603, Note_on_c, 1, 73, 127
1, 260603, Note_on_c, 1, 64, 127
1, 260748, Note_off_c, 1, 73, 0
1, 260748, Note_off_c, 1, 64, 0
1, 260750, Note_on_c, 1, 72, 127
1, 260750, Note_on_c, 1, 66, 127
1, 260895, Note_off_c, 1, 72, 0
1, 260895, Note_off_c, 1, 66, 0
1, 260898, Note_on_c, 1, 73, 127
1, 260898, Note_on_c, 1, 64, 127
1, 261043, Note_off_c, 1, 73, 0
1, 261043, Note_off_c, 1, 64, 0
1, 261045, Note_on_c, 1, 75, 127
1, 261045, Note_on_c, 1, 63, 127
1, 261190, Note_off_c, 1, 75, 0
1, 261190, Note_off_c, 1, 63, 0
1, 261193, Note_on_c, 1, 76, 127
1, 261193, Note_on_c, 1, 61, 127
1, 261338, Note_off_c, 1, 76, 0
1, 261338, Note_off_c, 1, 61, 0
1, 261340, Note_on_c, 1, 78, 127
1, 261340, Note_on_c, 1, 63, 127
1, 261485, Note_off_c, 1, 78, 0
1, 261485, Note_off_c, 1, 63, 0
1, 261488, Note_on_c, 1, 80, 127
1, 261488, Note_on_c, 1, 64, 127
1, 261633, Note_off_c, 1, 80, 0
1, 261633, Note_off_c, 1, 64, 0
1, 261635, Note_on_c, 1, 81, 127
1, 261635, Note_on_c, 1, 66, 127
1, 261780, Note_off_c, 1, 81, 0
1, 261780, Note_off_c, 1, 66, 0
1, 261782, Note_on_c, 1, 83, 127
1, 261782, Note_on_c, 1, 68, 127
1, 261927, Note_off_c, 1, 83, 0
1, 261927, Note_off_c, 1, 68, 0
1, 261930, Note_on_c, 1, 81, 127
1, 261930, Note_on_c, 1, 66, 127
1, 262075, Note_off_c, 1, 81, 0
1, 262075, Note_off_c, 1, 66, 0
1, 262077, Note_on_c, 1, 83, 127
1, 262077, Note_on_c, 1, 68, 127
1, 262222, Note_off_c, 1, 83, 0
1, 262222, Note_off_c, 1, 68, 0
1, 262225, Note_on_c, 1, 81, 127
1, 262225, Note_on_c, 1, 66, 127
1, 262370, Note_off_c, 1, 81, 0
1, 262370, Note_off_c, 1, 66, 0
1, 262372, Note_on_c, 1, 80, 127
1, 262372, Note_on_c, 1, 65, 127
1, 262517, Note_off_c, 1, 80, 0
1, 262517, Note_off_c, 1, 65, 0
1, 262519, Note_on_c, 1, 81, 127
1, 262519, Note_on_c, 1, 63, 127
1, 262664, Note_off_c, 1, 81, 0
1, 262664, Note_off_c, 1, 63, 0
1, 262667, Note_on_c, 1, 78, 127
1, 262667, Note_on_c, 1, 65, 127
1, 262812, Note_off_c, 1, 78, 0
1, 262812, Note_off_c, 1, 65, 0
1, 262814, Note_on_c, 1, 80, 127
1, 262814, Note_on_c, 1, 63, 127
1, 262959, Note_off_c, 1, 80, 0
1, 262959, Note_off_c, 1, 63, 0
1, 262962, Note_on_c, 1, 81, 127
1, 262962, Note_on_c, 1, 61, 127
1, 263107, Note_off_c, 1, 81, 0
1, 263107, Note_off_c, 1, 61, 0
1, 263109, Note_on_c, 1, 80, 127
1, 263109, Note_on_c, 1, 59, 127
1, 263254, Note_off_c, 1, 80, 0
1, 263254, Note_off_c, 1, 59, 0
1, 263257, Note_on_c, 1, 81, 127
1, 263257, Note_on_c, 1, 61, 127
1, 263402, Note_off_c, 1, 81, 0
1, 263402, Note_off_c, 1, 61, 0
1, 263404, Note_on_c, 1, 80, 127
1, 263404, Note_on_c, 1, 59, 127
1, 263549, Note_off_c, 1, 80, 0
1, 263549, Note_off_c, 1, 59, 0
1, 263551, Note_on_c, 1, 78, 127
1, 263551, Note_on_c, 1, 57, 127
1, 263696, Note_off_c, 1, 78, 0
1, 263696, Note_off_c, 1, 57, 0
1, 263699, Note_on_c, 1, 80, 127
1, 263699, Note_on_c, 1, 59, 127
1, 263844, Note_off_c, 1, 80, 0
1, 263844, Note_off_c, 1, 59, 0
1, 263846, Note_on_c, 1, 77, 127
1, 263846, Note_on_c, 1, 56, 127
1, 263991, Note_off_c, 1, 77, 0
1, 263991, Note_off_c, 1, 56, 0
1, 263994, Note_on_c, 1, 78, 127
1, 263994, Note_on_c, 1, 57, 127
1, 264139, Note_off_c, 1, 78, 0
1, 264139, Note_off_c, 1, 57, 0
1, 264141, Note_on_c, 1, 80, 127
1, 264141, Note_on_c, 1, 59, 127
1, 264286, Note_off_c, 1, 80, 0
1, 264286, Note_off_c, 1, 59, 0
1, 264288, Note_on_c, 1, 78, 127
1, 264288, Note_on_c, 1, 61, 127
1, 264433, Note_off_c, 1, 78, 0
1, 264433, Note_off_c, 1, 61, 0
1, 264436, Note_on_c, 1, 80, 127
1, 264436, Note_on_c, 1, 57, 127
1, 264581, Note_off_c, 1, 80, 0
1, 264581, Note_off_c, 1, 57, 0
1, 264583, Note_on_c, 1, 78, 127
1, 264583, Note_on_c, 1, 59, 127
1, 264728, Note_off_c, 1, 78, 0
1, 264728, Note_off_c, 1, 59, 0
1, 264731, Note_on_c, 1, 77, 127
1, 264731, Note_on_c, 1, 61, 127
1, 264876, Note_off_c, 1, 77, 0
1, 264878, Note_on_c, 1, 78, 127
1, 265023, Note_off_c, 1, 78, 0
1, 265024, Note_off_c, 1, 61, 0
1, 265026, Note_on_c, 1, 75, 127
1, 265026, Note_on_c, 1, 49, 127
1, 265171, Note_off_c, 1, 75, 0
1, 265173, Note_on_c, 1, 77, 127
1, 265318, Note_off_c, 1, 77, 0
1, 265319, Note_off_c, 1, 49, 0
1, 265320, Note_on_c, 1, 54, 127
1, 265320, Note_on_c, 1, 78, 127
1, 265613, Note_off_c, 1, 54, 0
1, 265615, Note_on_c, 1, 52, 127
1, 265749, Note_off_c, 1, 78, 0
1, 265760, Note_off_c, 1, 52, 0
1, 265763, Note_on_c, 1, 50, 127
1, 265908, Note_off_c, 1, 50, 0
1, 265910, Note_on_c, 1, 49, 127
1, 266055, Note_off_c, 1, 49, 0
1, 266058, Note_on_c, 1, 47, 127
1, 266203, Note_off_c, 1, 47, 0
1, 266205, Note_on_c, 1, 66, 127
1, 266205, Note_on_c, 1, 45, 127
1, 266350, Note_off_c, 1, 66, 0
1, 266350, Note_off_c, 1, 45, 0
1, 266352, Note_on_c, 1, 68, 127
1, 266352, Note_on_c, 1, 44, 127
1, 266497, Note_off_c, 1, 68, 0
1, 266497, Note_off_c, 1, 44, 0
1, 266500, Note_on_c, 1, 69, 127
1, 266500, Note_on_c, 1, 42, 127
1, 266793, Note_off_c, 1, 69, 0
1, 266795, Note_on_c, 1, 66, 127
1, 266940, Note_off_c, 1, 66, 0
1, 267083, Note_off_c, 1, 42, 0
1, 267089, Note_on_c, 1, 73, 127
1, 267382, Note_off_c, 1, 73, 0
1, 267384, Note_on_c, 1, 61, 127
1, 267384, Note_on_c, 1, 69, 127
1, 267529, Note_off_c, 1, 61, 0
1, 267532, Note_on_c, 1, 59, 127
1, 267677, Note_off_c, 1, 69, 0
1, 267677, Note_off_c, 1, 59, 0
1, 267679, Note_on_c, 1, 78, 127
1, 267679, Note_on_c, 1, 57, 127
1, 267972, Note_off_c, 1, 78, 0
1, 267972, Note_off_c, 1, 57, 0
1, 267974, Note_on_c, 1, 61, 127
1, 267974, Note_on_c, 1, 73, 127
1, 268119, Note_off_c, 1, 61, 0
1, 268121, Note_on_c, 1, 57, 127
1, 268266, Note_off_c, 1, 57, 0
1, 268267, Note_off_c, 1, 73, 0
1, 268269, Note_on_c, 1, 81, 127
1, 268269, Note_on_c, 1, 54, 127
1, 268562, Note_off_c, 1, 81, 0
1, 268562, Note_off_c, 1, 54, 0
1, 268564, Note_on_c, 1, 57, 127
1, 268564, Note_on_c, 1, 78, 127
1, 268709, Note_off_c, 1, 57, 0
1, 268711, Note_on_c, 1, 54, 127
1, 268856, Note_off_c, 1, 54, 0
1, 268857, Note_off_c, 1, 78, 0
1, 268859, Note_on_c, 1, 59, 127
1, 268859, Note_on_c, 1, 75, 127
1, 269004, Note_off_c, 1, 59, 0
1, 269006, Note_on_c, 1, 57, 127
1, 269151, Note_off_c, 1, 57, 0
1, 269152, Note_off_c, 1, 75, 0
1, 269153, Note_on_c, 1, 71, 127
1, 269153, Note_on_c, 1, 56, 127
1, 269298, Note_off_c, 1, 71, 0
1, 269298, Note_off_c, 1, 56, 0
1, 269301, Note_on_c, 1, 73, 127
1, 269301, Note_on_c, 1, 59, 127
1, 269446, Note_off_c, 1, 73, 0
1, 269446, Note_off_c, 1, 59, 0
1, 269448, Note_on_c, 1, 54, 127
1, 269448, Note_on_c, 1, 75, 127
1, 269593, Note_off_c, 1, 54, 0
1, 269596, Note_on_c, 1, 59, 127
1, 269741, Note_off_c, 1, 75, 0
1, 269741, Note_off_c, 1, 59, 0
1, 269743, Note_on_c, 1, 71, 127
1, 269743, Note_on_c, 1, 52, 127
1, 269888, Note_off_c, 1, 71, 0
1, 269888, Note_off_c, 1, 52, 0
1, 269890, Note_on_c, 1, 75, 127
1, 269890, Note_on_c, 1, 59, 127
1, 270035, Note_off_c, 1, 75, 0
1, 270035, Note_off_c, 1, 59, 0
1, 270038, Note_on_c, 1, 51, 127
1, 270038, Note_on_c, 1, 78, 127
1, 270183, Note_off_c, 1, 51, 0
1, 270185, Note_on_c, 1, 59, 127
1, 270330, Note_off_c, 1, 59, 0
1, 270331, Note_off_c, 1, 78, 0
1, 270333, Note_on_c, 1, 49, 127
1, 270333, Note_on_c, 1, 75, 127
1, 270478, Note_off_c, 1, 49, 0
1, 270480, Note_on_c, 1, 59, 127
1, 270625, Note_off_c, 1, 59, 0
1, 270626, Note_off_c, 1, 75, 0
1, 270628, Note_on_c, 1, 51, 127
1, 270628, Note_on_c, 1, 83, 127
1, 270773, Note_off_c, 1, 51, 0
1, 270775, Note_on_c, 1, 59, 127
1, 270920, Note_off_c, 1, 59, 0
1, 270921, Note_off_c, 1, 83, 0
1, 270922, Note_on_c, 1, 47, 127
1, 270922, Note_on_c, 1, 78, 127
1, 271067, Note_off_c, 1, 47, 0
1, 271070, Note_on_c, 1, 59, 127
1, 271215, Note_off_c, 1, 78, 0
1, 271215, Note_off_c, 1, 59, 0
1, 271217, Note_on_c, 1, 80, 127
1, 271217, Note_on_c, 1, 52, 127
1, 271362, Note_off_c, 1, 80, 0
1, 271365, Note_on_c, 1, 81, 127
1, 271510, Note_off_c, 1, 52, 0
1, 271510, Note_off_c, 1, 81, 0
1, 271512, Note_on_c, 1, 78, 127
1, 271512, Note_on_c, 1, 63, 127
1, 271657, Note_off_c, 1, 78, 0
1, 271659, Note_on_c, 1, 80, 127
1, 271804, Note_off_c, 1, 80, 0
1, 271805, Note_off_c, 1, 63, 0
1, 271807, Note_on_c, 1, 81, 127
1, 271807, Note_on_c, 1, 61, 127
1, 271952, Note_off_c, 1, 81, 0
1, 271954, Note_on_c, 1, 80, 127
1, 272099, Note_off_c, 1, 80, 0
1, 272100, Note_off_c, 1, 61, 0
1, 272102, Note_on_c, 1, 81, 127
1, 272102, Note_on_c, 1, 52, 127
1, 272247, Note_off_c, 1, 81, 0
1, 272249, Note_on_c, 1, 80, 127
1, 272394, Note_off_c, 1, 80, 0
1, 272395, Note_off_c, 1, 52, 0
1, 272397, Note_on_c, 1, 78, 127
1, 272397, Note_on_c, 1, 51, 127
1, 272542, Note_off_c, 1, 78, 0
1, 272544, Note_on_c, 1, 80, 127
1, 272689, Note_off_c, 1, 80, 0
1, 272690, Note_off_c, 1, 51, 0
1, 272691, Note_on_c, 1, 76, 127
1, 272691, Note_on_c, 1, 61, 127
1, 272836, Note_off_c, 1, 76, 0
1, 272839, Note_on_c, 1, 78, 127
1, 272984, Note_off_c, 1, 61, 0
1, 272984, Note_off_c, 1, 78, 0
1, 272986, Note_on_c, 1, 80, 127
1, 272986, Note_on_c, 1, 59, 127
1, 273131, Note_off_c, 1, 80, 0
1, 273134, Note_on_c, 1, 78, 127
1, 273279, Note_off_c, 1, 59, 0
1, 273279, Note_off_c, 1, 78, 0
1, 273281, Note_on_c, 1, 80, 127
1, 273281, Note_on_c, 1, 51, 127
1, 273426, Note_off_c, 1, 80, 0
1, 273429, Note_on_c, 1, 78, 127
1, 273574, Note_off_c, 1, 51, 0
1, 273574, Note_off_c, 1, 78, 0
1, 273576, Note_on_c, 1, 76, 127
1, 273576, Note_on_c, 1, 49, 127
1, 273721, Note_off_c, 1, 76, 0
1, 273723, Note_on_c, 1, 78, 127
1, 273868, Note_off_c, 1, 78, 0
1, 273869, Note_off_c, 1, 49, 0
1, 273871, Note_on_c, 1, 75, 127
1, 273871, Note_on_c, 1, 59, 127
1, 274016, Note_off_c, 1, 75, 0
1, 274018, Note_on_c, 1, 76, 127
1, 274163, Note_off_c, 1, 76, 0
1, 274164, Note_off_c, 1, 59, 0
1, 274166, Note_on_c, 1, 78, 127
1, 274166, Note_on_c, 1, 58, 127
1, 274311, Note_off_c, 1, 78, 0
1, 274313, Note_on_c, 1, 76, 127
1, 274458, Note_off_c, 1, 76, 0
1, 274459, Note_off_c, 1, 58, 0
1, 274460, Note_on_c, 1, 78, 127
1, 274460, Note_on_c, 1, 54, 127
1, 274605, Note_off_c, 1, 78, 0
1, 274608, Note_on_c, 1, 76, 127
1, 274753, Note_off_c, 1, 54, 0
1, 274753, Note_off_c, 1, 76, 0
1, 274755, Note_on_c, 1, 75, 127
1, 274755, Note_on_c, 1, 59, 127
1, 274900, Note_off_c, 1, 75, 0
1, 274903, Note_on_c, 1, 76, 127
1, 275048, Note_off_c, 1, 59, 0
1, 275048, Note_off_c, 1, 76, 0
1, 275050, Note_on_c, 1, 75, 127
1, 275050, Note_on_c, 1, 47, 127
1, 275195, Note_off_c, 1, 75, 0
1, 275195, Note_off_c, 1, 47, 0
1, 275198, Note_on_c, 1, 73, 127
1, 275198, Note_on_c, 1, 49, 127
1, 275343, Note_off_c, 1, 73, 0
1, 275343, Note_off_c, 1, 49, 0
1, 275345, Note_on_c, 1, 71, 127
1, 275345, Note_on_c, 1, 51, 127
1, 275490, Note_off_c, 1, 71, 0
1, 275492, Note_on_c, 1, 73, 127
1, 275637, Note_off_c, 1, 73, 0
1, 275638, Note_off_c, 1, 51, 0
1, 275640, Note_on_c, 1, 69, 127
1, 275640, Note_on_c, 1, 47, 127
1, 275785, Note_off_c, 1, 69, 0
1, 275785, Note_off_c, 1, 47, 0
1, 275787, Note_on_c, 1, 71, 127
1, 275787, Note_on_c, 1, 51, 127
1, 275932, Note_off_c, 1, 71, 0
1, 275932, Note_off_c, 1, 51, 0
1, 275935, Note_on_c, 1, 68, 127
1, 275935, Note_on_c, 1, 52, 127
1, 276080, Note_off_c, 1, 68, 0
1, 276082, Note_on_c, 1, 71, 127
1, 276227, Note_off_c, 1, 71, 0
1, 276228, Note_off_c, 1, 52, 0
1, 276230, Note_on_c, 1, 66, 127
1, 276230, Note_on_c, 1, 47, 127
1, 276375, Note_off_c, 1, 66, 0
1, 276377, Note_on_c, 1, 71, 127
1, 276522, Note_off_c, 1, 71, 0
1, 276523, Note_off_c, 1, 47, 0
1, 276524, Note_on_c, 1, 64, 127
1, 276524, Note_on_c, 1, 54, 127
1, 276669, Note_off_c, 1, 64, 0
1, 276672, Note_on_c, 1, 71, 127
1, 276817, Note_off_c, 1, 54, 0
1, 276817, Note_off_c, 1, 71, 0
1, 276819, Note_on_c, 1, 63, 127
1, 276819, Note_on_c, 1, 47, 127
1, 276964, Note_off_c, 1, 63, 0
1, 276967, Note_on_c, 1, 71, 127
1, 277112, Note_off_c, 1, 47, 0
1, 277112, Note_off_c, 1, 71, 0
1, 277114, Note_on_c, 1, 64, 127
1, 277114, Note_on_c, 1, 56, 127
1, 277259, Note_off_c, 1, 64, 0
1, 277259, Note_off_c, 1, 56, 0
1, 277261, Note_on_c, 1, 66, 127
1, 277261, Note_on_c, 1, 54, 127
1, 277406, Note_off_c, 1, 66, 0
1, 277406, Note_off_c, 1, 54, 0
1, 277409, Note_on_c, 1, 68, 127
1, 277409, Note_on_c, 1, 52, 127
1, 277554, Note_off_c, 1, 68, 0
1, 277554, Note_off_c, 1, 52, 0
1, 277556, Note_on_c, 1, 69, 127
1, 277556, Note_on_c, 1, 54, 127
1, 277701, Note_off_c, 1, 69, 0
1, 277701, Note_off_c, 1, 54, 0
1, 277704, Note_on_c, 1, 71, 127
1, 277704, Note_on_c, 1, 56, 127
1, 277849, Note_off_c, 1, 71, 0
1, 277849, Note_off_c, 1, 56, 0
1, 277851, Note_on_c, 1, 73, 127
1, 277851, Note_on_c, 1, 57, 127
1, 277996, Note_off_c, 1, 73, 0
1, 277996, Note_off_c, 1, 57, 0
1, 277999, Note_on_c, 1, 75, 127
1, 277999, Note_on_c, 1, 59, 127
1, 278144, Note_off_c, 1, 75, 0
1, 278144, Note_off_c, 1, 59, 0
1, 278146, Note_on_c, 1, 76, 127
1, 278146, Note_on_c, 1, 61, 127
1, 278291, Note_off_c, 1, 76, 0
1, 278291, Note_off_c, 1, 61, 0
1, 278293, Note_on_c, 1, 63, 127
1, 278293, Note_on_c, 1, 78, 127
1, 278438, Note_off_c, 1, 63, 0
1, 278441, Note_on_c, 1, 61, 127
1, 278586, Note_off_c, 1, 78, 0
1, 278586, Note_off_c, 1, 61, 0
1, 278588, Note_on_c, 1, 63, 127
1, 278588, Note_on_c, 1, 71, 127
1, 278733, Note_off_c, 1, 63, 0
1, 278736, Note_on_c, 1, 59, 127
1, 278834, Note_off_c, 1, 71, 0
1, 278881, Note_off_c, 1, 59, 0
1, 278883, Note_on_c, 1, 64, 127
1, 278883, Note_on_c, 1, 80, 127
1, 279028, Note_off_c, 1, 64, 0
1, 279030, Note_on_c, 1, 63, 127
1, 279175, Note_off_c, 1, 63, 0
1, 279176, Note_off_c, 1, 80, 0
1, 279178, Note_on_c, 1, 64, 127
1, 279178, Note_on_c, 1, 71, 127
1, 279323, Note_off_c, 1, 64, 0
1, 279325, Note_on_c, 1, 59, 127
1, 279424, Note_off_c, 1, 71, 0
1, 279470, Note_off_c, 1, 59, 0
1, 279473, Note_on_c, 1, 81, 127
1, 279473, Note_on_c, 1, 66, 127
1, 279618, Note_off_c, 1, 81, 0
1, 279618, Note_off_c, 1, 66, 0
1, 279620, Note_on_c, 1, 80, 127
1, 279620, Note_on_c, 1, 64, 127
1, 279765, Note_off_c, 1, 80, 0
1, 279765, Note_off_c, 1, 64, 0
1, 279768, Note_on_c, 1, 78, 127
1, 279768, Note_on_c, 1, 63, 127
1, 279913, Note_off_c, 1, 78, 0
1, 279913, Note_off_c, 1, 63, 0
1, 279915, Note_on_c, 1, 80, 127
1, 279915, Note_on_c, 1, 61, 127
1, 280060, Note_off_c, 1, 80, 0
1, 280060, Note_off_c, 1, 61, 0
1, 280062, Note_on_c, 1, 59, 127
1, 280062, Note_on_c, 1, 81, 127
1, 280207, Note_off_c, 1, 59, 0
1, 280210, Note_on_c, 1, 57, 127
1, 280355, Note_off_c, 1, 81, 0
1, 280355, Note_off_c, 1, 57, 0
1, 280357, Note_on_c, 1, 56, 127
1, 280357, Note_on_c, 1, 83, 127
1, 280502, Note_off_c, 1, 56, 0
1, 280505, Note_on_c, 1, 54, 127
1, 280650, Note_off_c, 1, 83, 0
1, 280650, Note_off_c, 1, 54, 0
1, 280652, Note_on_c, 1, 80, 127
1, 280652, Note_on_c, 1, 52, 127
1, 280945, Note_off_c, 1, 80, 0
1, 280945, Note_off_c, 1, 52, 0
1, 280947, Note_on_c, 1, 78, 127
1, 280947, Note_on_c, 1, 56, 127
1, 281092, Note_off_c, 1, 78, 0
1, 281094, Note_on_c, 1, 76, 127
1, 281239, Note_off_c, 1, 76, 0
1, 281240, Note_off_c, 1, 56, 0
1, 281242, Note_on_c, 1, 80, 127
1, 281242, Note_on_c, 1, 57, 127
1, 281387, Note_off_c, 1, 80, 0
1, 281389, Note_on_c, 1, 78, 127
1, 281534, Note_off_c, 1, 78, 0
1, 281535, Note_off_c, 1, 57, 0
1, 281537, Note_on_c, 1, 76, 127
1, 281537, Note_on_c, 1, 59, 127
1, 281682, Note_off_c, 1, 76, 0
1, 281684, Note_on_c, 1, 75, 127
1, 281829, Note_off_c, 1, 75, 0
1, 281830, Note_off_c, 1, 59, 0
1, 281831, Note_on_c, 1, 76, 127
1, 281831, Note_on_c, 1, 61, 127
1, 281976, Note_off_c, 1, 76, 0
1, 281979, Note_on_c, 1, 78, 127
1, 282124, Note_off_c, 1, 61, 0
1, 282124, Note_off_c, 1, 78, 0
1, 282126, Note_on_c, 1, 76, 127
1, 282126, Note_on_c, 1, 49, 127
1, 282271, Note_off_c, 1, 76, 0
1, 282274, Note_on_c, 1, 75, 127
1, 282419, Note_off_c, 1, 49, 0
1, 282419, Note_off_c, 1, 75, 0
1, 282421, Note_on_c, 1, 73, 127
1, 282421, Note_on_c, 1, 51, 127
1, 282566, Note_off_c, 1, 73, 0
1, 282569, Note_on_c, 1, 71, 127
1, 282714, Note_off_c, 1, 51, 0
1, 282714, Note_off_c, 1, 71, 0
1, 282716, Note_on_c, 1, 69, 127
1, 282716, Note_on_c, 1, 52, 127
1, 282861, Note_off_c, 1, 69, 0
1, 282863, Note_on_c, 1, 68, 127
1, 283008, Note_off_c, 1, 68, 0
1, 283009, Note_off_c, 1, 52, 0
1, 283011, Note_on_c, 1, 69, 127
1, 283011, Note_on_c, 1, 54, 127
1, 283156, Note_off_c, 1, 69, 0
1, 283156, Note_off_c, 1, 54, 0
1, 283158, Note_on_c, 1, 71, 127
1, 283158, Note_on_c, 1, 52, 127
1, 283303, Note_off_c, 1, 71, 0
1, 283303, Note_off_c, 1, 52, 0
1, 283306, Note_on_c, 1, 68, 127
1, 283306, Note_on_c, 1, 54, 127
1, 283451, Note_off_c, 1, 68, 0
1, 283451, Note_off_c, 1, 54, 0
1, 283453, Note_on_c, 1, 69, 127
1, 283453, Note_on_c, 1, 52, 127
1, 283598, Note_off_c, 1, 69, 0
1, 283598, Note_off_c, 1, 52, 0
1, 283601, Note_on_c, 1, 71, 127
1, 283601, Note_on_c, 1, 51, 127
1, 283746, Note_off_c, 1, 71, 0
1, 283746, Note_off_c, 1, 51, 0
1, 283748, Note_on_c, 1, 69, 127
1, 283748, Note_on_c, 1, 52, 127
1, 283893, Note_off_c, 1, 69, 0
1, 283893, Note_off_c, 1, 52, 0
1, 283895, Note_on_c, 1, 71, 127
1, 283895, Note_on_c, 1, 49, 127
1, 284040, Note_off_c, 1, 71, 0
1, 284040, Note_off_c, 1, 49, 0
1, 284043, Note_on_c, 1, 69, 127
1, 284043, Note_on_c, 1, 51, 127
1, 284188, Note_off_c, 1, 69, 0
1, 284188, Note_off_c, 1, 51, 0
1, 284190, Note_on_c, 1, 68, 127
1, 284190, Note_on_c, 1, 52, 127
1, 284335, Note_off_c, 1, 68, 0
1, 284335, Note_off_c, 1, 52, 0
1, 284338, Note_on_c, 1, 69, 127
1, 284338, Note_on_c, 1, 51, 127
1, 284483, Note_off_c, 1, 69, 0
1, 284483, Note_off_c, 1, 51, 0
1, 284485, Note_on_c, 1, 66, 127
1, 284485, Note_on_c, 1, 52, 127
1, 284630, Note_off_c, 1, 66, 0
1, 284630, Note_off_c, 1, 52, 0
1, 284632, Note_on_c, 1, 68, 127
1, 284632, Note_on_c, 1, 51, 127
1, 284777, Note_off_c, 1, 68, 0
1, 284777, Note_off_c, 1, 51, 0
1, 284780, Note_on_c, 1, 69, 127
1, 284780, Note_on_c, 1, 49, 127
1, 284925, Note_off_c, 1, 69, 0
1, 284925, Note_off_c, 1, 49, 0
1, 284927, Note_on_c, 1, 68, 127
1, 284927, Note_on_c, 1, 47, 127
1, 285072, Note_off_c, 1, 68, 0
1, 285072, Note_off_c, 1, 47, 0
1, 285075, Note_on_c, 1, 69, 127
1, 285075, Note_on_c, 1, 49, 127
1, 285220, Note_off_c, 1, 69, 0
1, 285220, Note_off_c, 1, 49, 0
1, 285222, Note_on_c, 1, 68, 127
1, 285222, Note_on_c, 1, 47, 127
1, 285367, Note_off_c, 1, 68, 0
1, 285367, Note_off_c, 1, 47, 0
1, 285370, Note_on_c, 1, 45, 127
1, 285370, Note_on_c, 1, 66, 127
1, 285522, Note_off_c, 1, 45, 0
1, 285522, Note_off_c, 1, 66, 0
1, 285523, Note_on_c, 1, 44, 127
1, 285523, Note_on_c, 1, 68, 127
1, 285675, Note_off_c, 1, 44, 0
1, 285675, Note_off_c, 1, 68, 0
1, 285679, Note_on_c, 1, 45, 127
1, 285679, Note_on_c, 1, 64, 127
1, 285831, Note_off_c, 1, 45, 0
1, 285831, Note_off_c, 1, 64, 0
1, 285834, Note_on_c, 1, 42, 127
1, 285834, Note_on_c, 1, 66, 127
1, 285986, Note_off_c, 1, 42, 0
1, 285986, Note_off_c, 1, 66, 0
1, 285990, Note_on_c, 1, 68, 127
1, 285990, Note_on_c, 1, 47, 127
1, 286142, Note_off_c, 1, 68, 0
1, 286146, Note_on_c, 1, 66, 127
1, 286297, Note_off_c, 1, 47, 0
1, 286298, Note_off_c, 1, 66, 0
1, 286299, Note_on_c, 1, 68, 127
1, 286299, Note_on_c, 1, 35, 127
1, 286451, Note_off_c, 1, 68, 0
1, 286455, Note_on_c, 1, 66, 127
1, 286606, Note_off_c, 1, 35, 0
1, 286607, Note_off_c, 1, 66, 0
1, 286610, Note_on_c, 1, 40, 127
1, 286610, Note_on_c, 1, 64, 127
1, 286942, Note_off_c, 1, 40, 0
1, 286975, Note_on_c, 1, 47, 127
1, 287307, Note_off_c, 1, 47, 0
1, 287370, Note_on_c, 1, 52, 127
1, 289170, Note_off_c, 1, 52, 0
1, 289210, Note_off_c, 1, 64, 0
1, 291264, Note_on_c, 1, 68, 127
1, 291447, Note_off_c, 1, 68, 0
1, 291449, Note_on_c, 1, 66, 127
1, 291632, Note_off_c, 1, 66, 0
1, 291634, Note_on_c, 1, 64, 127
1, 291817, Note_off_c, 1, 64, 0
1, 291818, Note_on_c, 1, 66, 127
1, 292001, Note_off_c, 1, 66, 0
1, 292003, Note_on_c, 1, 68, 127
1, 292186, Note_off_c, 1, 68, 0
1, 292188, Note_on_c, 1, 69, 127
1, 292371, Note_off_c, 1, 69, 0
1, 292372, Note_on_c, 1, 68, 127
1, 292372, Note_on_c, 1, 71, 127
1, 292559, Note_on_c, 1, 52, 127
1, 292741, Note_off_c, 1, 68, 0
1, 292741, Note_off_c, 1, 71, 0
1, 292742, Note_off_c, 1, 52, 0
1, 292743, Note_on_c, 1, 51, 127
1, 292743, Note_on_c, 1, 69, 127
1, 292743, Note_on_c, 1, 73, 127
1, 292926, Note_off_c, 1, 51, 0
1, 292928, Note_on_c, 1, 52, 127
1, 293110, Note_off_c, 1, 69, 0
1, 293110, Note_off_c, 1, 73, 0
1, 293111, Note_off_c, 1, 52, 0
1, 293113, Note_on_c, 1, 68, 127
1, 293113, Note_on_c, 1, 40, 127
1, 293113, Note_on_c, 1, 71, 127
1, 293383, Note_off_c, 1, 68, 0
1, 293480, Note_off_c, 1, 40, 0
1, 293482, Note_off_c, 1, 71, 0
1, 293484, Note_on_c, 1, 63, 127
1, 293667, Note_off_c, 1, 63, 0
1, 293668, Note_on_c, 1, 64, 127
1, 293851, Note_off_c, 1, 64, 0
1, 293853, Note_on_c, 1, 66, 127
1, 294036, Note_off_c, 1, 66, 0
1, 294038, Note_on_c, 1, 68, 127
1, 294221, Note_off_c, 1, 68, 0
1, 294222, Note_on_c, 1, 69, 127
1, 294405, Note_off_c, 1, 69, 0
1, 294407, Note_on_c, 1, 75, 127
1, 294590, Note_off_c, 1, 75, 0
1, 294592, Note_on_c, 1, 68, 127
1, 294592, Note_on_c, 1, 76, 127
1, 294778, Note_on_c, 1, 52, 127
1, 294961, Note_off_c, 1, 68, 0
1, 294961, Note_off_c, 1, 76, 0
1, 294961, Note_off_c, 1, 52, 0
1, 294963, Note_on_c, 1, 51, 127
1, 294963, Note_on_c, 1, 69, 127
1, 294963, Note_on_c, 1, 78, 127
1, 295146, Note_off_c, 1, 51, 0
1, 295147, Note_on_c, 1, 52, 127
1, 295330, Note_off_c, 1, 69, 0
1, 295330, Note_off_c, 1, 78, 0
1, 295330, Note_off_c, 1, 52, 0
1, 295332, Note_on_c, 1, 68, 127
1, 295332, Note_on_c, 1, 40, 127
1, 295332, Note_on_c, 1, 76, 127
1, 295602, Note_off_c, 1, 68, 0
1, 295699, Note_off_c, 1, 40, 0
1, 295701, Note_off_c, 1, 76, 0
1, 295703, Note_on_c, 1, 80, 127
1, 295886, Note_off_c, 1, 80, 0
1, 295888, Note_on_c, 1, 78, 127
1, 296071, Note_off_c, 1, 78, 0
1, 296072, Note_on_c, 1, 76, 127
1, 296255, Note_off_c, 1, 76, 0
1, 296257, Note_on_c, 1, 75, 127
1, 296440, Note_off_c, 1, 75, 0
1, 296442, Note_on_c, 1, 73, 127
1, 296625, Note_off_c, 1, 73, 0
1, 296626, Note_on_c, 1, 71, 127
1, 296809, Note_off_c, 1, 71, 0
1, 296811, Note_on_c, 1, 70, 127
1, 296811, Note_on_c, 1, 78, 127
1, 296997, Note_on_c, 1, 52, 127
1, 297180, Note_off_c, 1, 70, 0
1, 297180, Note_off_c, 1, 78, 0
1, 297180, Note_off_c, 1, 52, 0
1, 297182, Note_on_c, 1, 51, 127
1, 297182, Note_on_c, 1, 71, 127
1, 297182, Note_on_c, 1, 80, 127
1, 297365, Note_off_c, 1, 51, 0
1, 297367, Note_on_c, 1, 52, 127
1, 297549, Note_off_c, 1, 71, 0
1, 297549, Note_off_c, 1, 80, 0
1, 297550, Note_off_c, 1, 52, 0
1, 297551, Note_on_c, 1, 40, 127
1, 297551, Note_on_c, 1, 70, 127
1, 297551, Note_on_c, 1, 78, 127
1, 297734, Note_off_c, 1, 40, 0
1, 297736, Note_on_c, 1, 52, 127
1, 297821, Note_off_c, 1, 70, 0
1, 297920, Note_off_c, 1, 78, 0
1, 297920, Note_off_c, 1, 52, 0
1, 297922, Note_on_c, 1, 71, 127
1, 297922, Note_on_c, 1, 51, 127
1, 298105, Note_off_c, 1, 71, 0
1, 298107, Note_on_c, 1, 70, 127
1, 298289, Note_off_c, 1, 51, 0
1, 298290, Note_off_c, 1, 70, 0
1, 298292, Note_on_c, 1, 68, 127
1, 298292, Note_on_c, 1, 52, 127
1, 298475, Note_off_c, 1, 68, 0
1, 298477, Note_on_c, 1, 66, 127
1, 298659, Note_off_c, 1, 52, 0
1, 298660, Note_off_c, 1, 66, 0
1, 298661, Note_on_c, 1, 76, 127
1, 298661, Note_on_c, 1, 54, 127
1, 298844, Note_off_c, 1, 76, 0
1, 298846, Note_on_c, 1, 75, 127
1, 299027, Note_off_c, 1, 54, 0
1, 299029, Note_off_c, 1, 75, 0
1, 299031, Note_on_c, 1, 64, 127
1, 299031, Note_on_c, 1, 73, 127
1, 299217, Note_on_c, 1, 59, 127
1, 299400, Note_off_c, 1, 64, 0
1, 299400, Note_off_c, 1, 73, 0
1, 299400, Note_off_c, 1, 59, 0
1, 299402, Note_on_c, 1, 58, 127
1, 299402, Note_on_c, 1, 63, 127
1, 299402, Note_on_c, 1, 71, 127
1, 299585, Note_off_c, 1, 58, 0
1, 299586, Note_on_c, 1, 59, 127
1, 299768, Note_off_c, 1, 63, 0
1, 299769, Note_off_c, 1, 59, 0
1, 299771, Note_on_c, 1, 47, 127
1, 299941, Note_off_c, 1, 71, 0
1, 300138, Note_off_c, 1, 47, 0
1, 300142, Note_on_c, 1, 75, 127
1, 300325, Note_off_c, 1, 75, 0
1, 300327, Note_on_c, 1, 73, 127
1, 300510, Note_off_c, 1, 73, 0
1, 300511, Note_on_c, 1, 71, 127
1, 300694, Note_off_c, 1, 71, 0
1, 300696, Note_on_c, 1, 73, 127
1, 300879, Note_off_c, 1, 73, 0
1, 300881, Note_on_c, 1, 75, 127
1, 301064, Note_off_c, 1, 75, 0
1, 301065, Note_on_c, 1, 76, 127
1, 301248, Note_off_c, 1, 76, 0
1, 301250, Note_on_c, 1, 78, 127
1, 301250, Note_on_c, 1, 75, 127
1, 301436, Note_on_c, 1, 59, 127
1, 301619, Note_off_c, 1, 78, 0
1, 301619, Note_off_c, 1, 75, 0
1, 301619, Note_off_c, 1, 59, 0
1, 301621, Note_on_c, 1, 58, 127
1, 301621, Note_on_c, 1, 80, 127
1, 301621, Note_on_c, 1, 76, 127
1, 301804, Note_off_c, 1, 58, 0
1, 301806, Note_on_c, 1, 59, 127
1, 301988, Note_off_c, 1, 80, 0
1, 301988, Note_off_c, 1, 76, 0
1, 301989, Note_off_c, 1, 59, 0
1, 301990, Note_on_c, 1, 75, 127
1, 301990, Note_on_c, 1, 47, 127
1, 301990, Note_on_c, 1, 78, 127
1, 302260, Note_off_c, 1, 75, 0
1, 302357, Note_off_c, 1, 47, 0
1, 302359, Note_off_c, 1, 78, 0
1, 302361, Note_on_c, 1, 81, 127
1, 302544, Note_off_c, 1, 81, 0
1, 302546, Note_on_c, 1, 80, 127
1, 302729, Note_off_c, 1, 80, 0
1, 302731, Note_on_c, 1, 78, 127
1, 302914, Note_off_c, 1, 78, 0
1, 302915, Note_on_c, 1, 76, 127
1, 303098, Note_off_c, 1, 76, 0
1, 303100, Note_on_c, 1, 75, 127
1, 303283, Note_off_c, 1, 75, 0
1, 303285, Note_on_c, 1, 73, 127
1, 303468, Note_off_c, 1, 73, 0
1, 303469, Note_on_c, 1, 72, 127
1, 303652, Note_off_c, 1, 72, 0
1, 303654, Note_on_c, 1, 81, 127
1, 303654, Note_on_c, 1, 61, 127
1, 303837, Note_off_c, 1, 81, 0
1, 303837, Note_off_c, 1, 61, 0
1, 303839, Note_on_c, 1, 80, 127
1, 303839, Note_on_c, 1, 60, 127
1, 304022, Note_off_c, 1, 80, 0
1, 304022, Note_off_c, 1, 60, 0
1, 304023, Note_on_c, 1, 78, 127
1, 304023, Note_on_c, 1, 61, 127
1, 304206, Note_off_c, 1, 78, 0
1, 304206, Note_off_c, 1, 61, 0
1, 304208, Note_on_c, 1, 76, 127
1, 304208, Note_on_c, 1, 49, 127
1, 304391, Note_off_c, 1, 76, 0
1, 304393, Note_on_c, 1, 75, 127
1, 304574, Note_off_c, 1, 49, 0
1, 304576, Note_off_c, 1, 75, 0
1, 304577, Note_on_c, 1, 76, 127
1, 304760, Note_off_c, 1, 76, 0
1, 304762, Note_on_c, 1, 73, 127
1, 304945, Note_off_c, 1, 73, 0
1, 304947, Note_on_c, 1, 68, 127
1, 305130, Note_off_c, 1, 68, 0
1, 305131, Note_on_c, 1, 69, 127
1, 305314, Note_off_c, 1, 69, 0
1, 305316, Note_on_c, 1, 71, 127
1, 305499, Note_off_c, 1, 71, 0
1, 305501, Note_on_c, 1, 73, 127
1, 305684, Note_off_c, 1, 73, 0
1, 305686, Note_on_c, 1, 74, 127
1, 305869, Note_off_c, 1, 74, 0
1, 305870, Note_on_c, 1, 71, 127
1, 305870, Note_on_c, 1, 57, 127
1, 306053, Note_off_c, 1, 71, 0
1, 306053, Note_off_c, 1, 57, 0
1, 306055, Note_on_c, 1, 73, 127
1, 306055, Note_on_c, 1, 56, 127
1, 306238, Note_off_c, 1, 73, 0
1, 306238, Note_off_c, 1, 56, 0
1, 306240, Note_on_c, 1, 69, 127
1, 306240, Note_on_c, 1, 57, 127
1, 306423, Note_off_c, 1, 69, 0
1, 306423, Note_off_c, 1, 57, 0
1, 306424, Note_on_c, 1, 71, 127
1, 306424, Note_on_c, 1, 45, 127
1, 306607, Note_off_c, 1, 71, 0
1, 306607, Note_off_c, 1, 45, 0
1, 306609, Note_on_c, 1, 63, 127
1, 306609, Note_on_c, 1, 57, 127
1, 306792, Note_off_c, 1, 63, 0
1, 306792, Note_off_c, 1, 57, 0
1, 306794, Note_on_c, 1, 64, 127
1, 306794, Note_on_c, 1, 56, 127
1, 306977, Note_off_c, 1, 64, 0
1, 306978, Note_on_c, 1, 66, 127
1, 307161, Note_off_c, 1, 56, 0
1, 307161, Note_off_c, 1, 66, 0
1, 307163, Note_on_c, 1, 68, 127
1, 307163, Note_on_c, 1, 54, 127
1, 307346, Note_off_c, 1, 68, 0
1, 307348, Note_on_c, 1, 69, 127
1, 307530, Note_off_c, 1, 54, 0
1, 307531, Note_off_c, 1, 69, 0
1, 307532, Note_on_c, 1, 71, 127
1, 307532, Note_on_c, 1, 52, 127
1, 307715, Note_off_c, 1, 71, 0
1, 307717, Note_on_c, 1, 73, 127
1, 307898, Note_off_c, 1, 52, 0
1, 307900, Note_off_c, 1, 73, 0
1, 307902, Note_on_c, 1, 63, 127
1, 307902, Note_on_c, 1, 66, 127
1, 308088, Note_on_c, 1, 59, 127
1, 308271, Note_off_c, 1, 59, 0
1, 308273, Note_on_c, 1, 57, 127
1, 308456, Note_off_c, 1, 57, 0
1, 308635, Note_off_c, 1, 63, 0
1, 308644, Note_on_c, 1, 47, 127
1, 308830, Note_off_c, 1, 66, 0
1, 309011, Note_off_c, 1, 47, 0
1, 309015, Note_on_c, 1, 68, 127
1, 309198, Note_off_c, 1, 68, 0
1, 309199, Note_on_c, 1, 66, 127
1, 309382, Note_off_c, 1, 66, 0
1, 309384, Note_on_c, 1, 64, 127
1, 309567, Note_off_c, 1, 64, 0
1, 309569, Note_on_c, 1, 66, 127
1, 309752, Note_off_c, 1, 66, 0
1, 309753, Note_on_c, 1, 68, 127
1, 309936, Note_off_c, 1, 68, 0
1, 309938, Note_on_c, 1, 69, 127
1, 310121, Note_off_c, 1, 69, 0
1, 310123, Note_on_c, 1, 68, 127
1, 310123, Note_on_c, 1, 71, 127
1, 310309, Note_on_c, 1, 59, 127
1, 310492, Note_off_c, 1, 68, 0
1, 310492, Note_off_c, 1, 71, 0
1, 310492, Note_off_c, 1, 59, 0
1, 310494, Note_on_c, 1, 57, 127
1, 310494, Note_on_c, 1, 69, 127
1, 310494, Note_on_c, 1, 73, 127
1, 310677, Note_off_c, 1, 57, 0
1, 310678, Note_on_c, 1, 59, 127
1, 310861, Note_off_c, 1, 69, 0
1, 310861, Note_off_c, 1, 73, 0
1, 310861, Note_off_c, 1, 59, 0
1, 310863, Note_on_c, 1, 68, 127
1, 310863, Note_on_c, 1, 47, 127
1, 310863, Note_on_c, 1, 71, 127
1, 311133, Note_off_c, 1, 68, 0
1, 311230, Note_off_c, 1, 47, 0
1, 311232, Note_off_c, 1, 71, 0
1, 311234, Note_on_c, 1, 59, 127
1, 311417, Note_off_c, 1, 59, 0
1, 311419, Note_on_c, 1, 61, 127
1, 311602, Note_off_c, 1, 61, 0
1, 311603, Note_on_c, 1, 63, 127
1, 311786, Note_off_c, 1, 63, 0
1, 311788, Note_on_c, 1, 64, 127
1, 311971, Note_off_c, 1, 64, 0
1, 311973, Note_on_c, 1, 66, 127
1, 312156, Note_off_c, 1, 66, 0
1, 312157, Note_on_c, 1, 68, 127
1, 312340, Note_off_c, 1, 68, 0
1, 312342, Note_on_c, 1, 66, 127
1, 312342, Note_on_c, 1, 69, 127
1, 312528, Note_on_c, 1, 59, 127
1, 312711, Note_off_c, 1, 66, 0
1, 312711, Note_off_c, 1, 69, 0
1, 312711, Note_off_c, 1, 59, 0
1, 312713, Note_on_c, 1, 57, 127
1, 312713, Note_on_c, 1, 68, 127
1, 312713, Note_on_c, 1, 71, 127
1, 312896, Note_off_c, 1, 57, 0
1, 312898, Note_on_c, 1, 59, 127
1, 313080, Note_off_c, 1, 68, 0
1, 313080, Note_off_c, 1, 71, 0
1, 313081, Note_off_c, 1, 59, 0
1, 313082, Note_on_c, 1, 66, 127
1, 313082, Note_on_c, 1, 47, 127
1, 313082, Note_on_c, 1, 69, 127
1, 313352, Note_off_c, 1, 66, 0
1, 313449, Note_off_c, 1, 47, 0
1, 313451, Note_off_c, 1, 69, 0
1, 313453, Note_on_c, 1, 68, 127
1, 313636, Note_off_c, 1, 68, 0
1, 313638, Note_on_c, 1, 71, 127
1, 313821, Note_off_c, 1, 71, 0
1, 313823, Note_on_c, 1, 76, 127
1, 314006, Note_off_c, 1, 76, 0
1, 314007, Note_on_c, 1, 75, 127
1, 314190, Note_off_c, 1, 75, 0
1, 314192, Note_on_c, 1, 80, 127
1, 314375, Note_off_c, 1, 80, 0
1, 314377, Note_on_c, 1, 78, 127
1, 314560, Note_off_c, 1, 78, 0
1, 314561, Note_on_c, 1, 81, 127
1, 314748, Note_off_c, 1, 81, 0
1, 314751, Note_on_c, 1, 59, 127
1, 314751, Note_on_c, 1, 80, 127
1, 314938, Note_off_c, 1, 59, 0
1, 314938, Note_off_c, 1, 80, 0
1, 314942, Note_on_c, 1, 57, 127
1, 314942, Note_on_c, 1, 78, 127
1, 315129, Note_off_c, 1, 57, 0
1, 315129, Note_off_c, 1, 78, 0
1, 315133, Note_on_c, 1, 59, 127
1, 315133, Note_on_c, 1, 76, 127
1, 315320, Note_off_c, 1, 59, 0
1, 315320, Note_off_c, 1, 76, 0
1, 315325, Note_on_c, 1, 47, 127
1, 315325, Note_on_c, 1, 75, 127
1, 315512, Note_off_c, 1, 47, 0
1, 315512, Note_off_c, 1, 75, 0
1, 315516, Note_on_c, 1, 57, 127
1, 315516, Note_on_c, 1, 73, 127
1, 315703, Note_off_c, 1, 57, 0
1, 315703, Note_off_c, 1, 73, 0
1, 315707, Note_on_c, 1, 71, 127
1, 315707, Note_on_c, 1, 56, 127
1, 315906, Note_off_c, 1, 71, 0
1, 315906, Note_off_c, 1, 56, 0
1, 315908, Note_on_c, 1, 76, 127
1, 315908, Note_on_c, 1, 57, 127
1, 316107, Note_off_c, 1, 76, 0
1, 316107, Note_off_c, 1, 57, 0
1, 316110, Note_on_c, 1, 64, 127
1, 316110, Note_on_c, 1, 68, 127
1, 316110, Note_on_c, 1, 59, 127
1, 316511, Note_off_c, 1, 64, 0
1, 316511, Note_off_c, 1, 68, 0
1, 316511, Note_off_c, 1, 59, 0
1, 316515, Note_on_c, 1, 66, 127
1, 316515, Note_on_c, 1, 63, 127
1, 316515, Note_on_c, 1, 47, 127
1, 316714, Note_off_c, 1, 66, 0
1, 316716, Note_on_c, 1, 64, 127
1, 316915, Note_off_c, 1, 63, 0
1, 316915, Note_off_c, 1, 64, 0
1, 316916, Note_off_c, 1, 47, 0
1, 316925, Note_on_c, 1, 52, 127
1, 316925, Note_on_c, 1, 64, 127
1, 317176, Note_on_c, 1, 59, 127
1, 317397, Note_off_c, 1, 59, 0
1, 317428, Note_on_c, 1, 56, 127
1, 317602, Note_off_c, 1, 52, 0
1, 317682, Note_on_c, 1, 47, 127
1, 317903, Note_off_c, 1, 47, 0
1, 317980, Note_on_c, 1, 40, 127
1, 318323, Note_off_c, 1, 56, 0
1, 319131, Note_off_c, 1, 64, 0
1, 320380, Note_off_c, 1, 40, 0
1, 320831, Note_on_c, 1, 71, 127
1, 321009, Note_off_c, 1, 71, 0
1, 321045, Note_on_c, 1, 76, 127
1, 321257, Note_off_c, 1, 76, 0
1, 321259, Note_on_c, 1, 71, 127
1, 321471, Note_off_c, 1, 71, 0
1, 321473, Note_on_c, 1, 68, 127
1, 321685, Note_off_c, 1, 68, 0
1, 321687, Note_on_c, 1, 64, 127
1, 321899, Note_off_c, 1, 64, 0
1, 321901, Note_on_c, 1, 68, 127
1, 322113, Note_off_c, 1, 68, 0
1, 322114, Note_on_c, 1, 66, 127
1, 322114, Note_on_c, 1, 59, 127
1, 322326, Note_off_c, 1, 66, 0
1, 322326, Note_off_c, 1, 59, 0
1, 322328, Note_on_c, 1, 64, 127
1, 322328, Note_on_c, 1, 68, 127
1, 322540, Note_off_c, 1, 64, 0
1, 322542, Note_on_c, 1, 59, 127
1, 322754, Note_off_c, 1, 59, 0
1, 322756, Note_on_c, 1, 56, 127
1, 322968, Note_off_c, 1, 56, 0
1, 322970, Note_on_c, 1, 52, 127
1, 323181, Note_off_c, 1, 68, 0
1, 323182, Note_off_c, 1, 52, 0
1, 323184, Note_on_c, 1, 56, 127
1, 323396, Note_off_c, 1, 56, 0
1, 323397, Note_on_c, 1, 69, 127
1, 323397, Note_on_c, 1, 54, 127
1, 323609, Note_off_c, 1, 69, 0
1, 323609, Note_off_c, 1, 54, 0
1, 323611, Note_on_c, 1, 71, 127
1, 323611, Note_on_c, 1, 56, 127
1, 323823, Note_off_c, 1, 71, 0
1, 323825, Note_on_c, 1, 69, 127
1, 323930, Note_off_c, 1, 69, 0
1, 323932, Note_on_c, 1, 68, 127
1, 324033, Note_off_c, 1, 56, 0
1, 324037, Note_off_c, 1, 68, 0
1, 324039, Note_on_c, 1, 66, 127
1, 324144, Note_off_c, 1, 66, 0
1, 324146, Note_on_c, 1, 64, 127
1, 324251, Note_off_c, 1, 64, 0
1, 324253, Note_on_c, 1, 73, 127
1, 324253, Note_on_c, 1, 57, 127
1, 324358, Note_off_c, 1, 73, 0
1, 324360, Note_on_c, 1, 71, 127
1, 324465, Note_off_c, 1, 71, 0
1, 324467, Note_on_c, 1, 69, 127
1, 324572, Note_off_c, 1, 69, 0
1, 324574, Note_on_c, 1, 68, 127
1, 324675, Note_off_c, 1, 57, 0
1, 324679, Note_off_c, 1, 68, 0
1, 324680, Note_on_c, 1, 66, 127
1, 324785, Note_off_c, 1, 66, 0
1, 324787, Note_on_c, 1, 64, 127
1, 324892, Note_off_c, 1, 64, 0
1, 324894, Note_on_c, 1, 63, 127
1, 324894, Note_on_c, 1, 59, 127
1, 325106, Note_off_c, 1, 63, 0
1, 325106, Note_off_c, 1, 59, 0
1, 325108, Note_on_c, 1, 64, 127
1, 325108, Note_on_c, 1, 54, 127
1, 325213, Note_off_c, 1, 64, 0
1, 325215, Note_on_c, 1, 63, 127
1, 325320, Note_off_c, 1, 54, 0
1, 325320, Note_off_c, 1, 63, 0
1, 325322, Note_on_c, 1, 61, 127
1, 325322, Note_on_c, 1, 51, 127
1, 325427, Note_off_c, 1, 61, 0
1, 325429, Note_on_c, 1, 59, 127
1, 325534, Note_off_c, 1, 51, 0
1, 325534, Note_off_c, 1, 59, 0
1, 325536, Note_on_c, 1, 47, 127
1, 325536, Note_on_c, 1, 69, 127
1, 325748, Note_off_c, 1, 47, 0
1, 325750, Note_on_c, 1, 51, 127
1, 325962, Note_off_c, 1, 51, 0
1, 325964, Note_on_c, 1, 49, 127
1, 326176, Note_off_c, 1, 49, 0
1, 326248, Note_off_c, 1, 69, 0
1, 326284, Note_on_c, 1, 68, 127
1, 326389, Note_off_c, 1, 68, 0
1, 326391, Note_on_c, 1, 66, 127
1, 326496, Note_off_c, 1, 66, 0
1, 326712, Note_on_c, 1, 71, 127
1, 326817, Note_off_c, 1, 71, 0
1, 326819, Note_on_c, 1, 73, 127
1, 327031, Note_off_c, 1, 73, 0
1, 327033, Note_on_c, 1, 52, 127
1, 327033, Note_on_c, 1, 71, 127
1, 327138, Note_off_c, 1, 52, 0
1, 327140, Note_on_c, 1, 51, 127
1, 327245, Note_off_c, 1, 71, 0
1, 327245, Note_off_c, 1, 51, 0
1, 327247, Note_on_c, 1, 49, 127
1, 327247, Note_on_c, 1, 69, 127
1, 327352, Note_off_c, 1, 49, 0
1, 327353, Note_on_c, 1, 47, 127
1, 327458, Note_off_c, 1, 47, 0
1, 327459, Note_off_c, 1, 69, 0
1, 327460, Note_on_c, 1, 68, 127
1, 327460, Note_on_c, 1, 52, 127
1, 327565, Note_off_c, 1, 68, 0
1, 327567, Note_on_c, 1, 66, 127
1, 327672, Note_off_c, 1, 52, 0
1, 327672, Note_off_c, 1, 66, 0
1, 327674, Note_on_c, 1, 64, 127
1, 327674, Note_on_c, 1, 47, 127
1, 327779, Note_off_c, 1, 64, 0
1, 327781, Note_on_c, 1, 66, 127
1, 327886, Note_off_c, 1, 47, 0
1, 327886, Note_off_c, 1, 66, 0
1, 327888, Note_on_c, 1, 68, 127
1, 327888, Note_on_c, 1, 44, 127
1, 327993, Note_off_c, 1, 68, 0
1, 327995, Note_on_c, 1, 69, 127
1, 328100, Note_off_c, 1, 44, 0
1, 328100, Note_off_c, 1, 69, 0
1, 328102, Note_on_c, 1, 71, 127
1, 328102, Note_on_c, 1, 40, 127
1, 328207, Note_off_c, 1, 71, 0
1, 328209, Note_on_c, 1, 69, 127
1, 328314, Note_off_c, 1, 40, 0
1, 328314, Note_off_c, 1, 69, 0
1, 328316, Note_on_c, 1, 68, 127
1, 328316, Note_on_c, 1, 52, 127
1, 328421, Note_off_c, 1, 68, 0
1, 328423, Note_on_c, 1, 69, 127
1, 328528, Note_off_c, 1, 52, 0
1, 328528, Note_off_c, 1, 69, 0
1, 328530, Note_on_c, 1, 71, 127
1, 328530, Note_on_c, 1, 45, 127
1, 328635, Note_off_c, 1, 71, 0
1, 328637, Note_on_c, 1, 73, 127
1, 328742, Note_off_c, 1, 45, 0
1, 328742, Note_off_c, 1, 73, 0
1, 328743, Note_on_c, 1, 75, 127
1, 328743, Note_on_c, 1, 57, 127
1, 328955, Note_off_c, 1, 75, 0
1, 328955, Note_off_c, 1, 57, 0
1, 328957, Note_on_c, 1, 56, 127
1, 328957, Note_on_c, 1, 71, 127
1, 329062, Note_off_c, 1, 56, 0
1, 329064, Note_on_c, 1, 54, 127
1, 329169, Note_off_c, 1, 71, 0
1, 329169, Note_off_c, 1, 54, 0
1, 329171, Note_on_c, 1, 56, 127
1, 329171, Note_on_c, 1, 76, 127
1, 329276, Note_off_c, 1, 56, 0
1, 329278, Note_on_c, 1, 52, 127
1, 329383, Note_off_c, 1, 76, 0
1, 329383, Note_off_c, 1, 52, 0
1, 329385, Note_on_c, 1, 66, 127
1, 329385, Note_on_c, 1, 59, 127
1, 329597, Note_off_c, 1, 66, 0
1, 329597, Note_off_c, 1, 59, 0
1, 329599, Note_on_c, 1, 76, 127
1, 329599, Note_on_c, 1, 47, 127
1, 329811, Note_off_c, 1, 76, 0
1, 329811, Note_off_c, 1, 47, 0
1, 329813, Note_on_c, 1, 75, 127
1, 329813, Note_on_c, 1, 59, 127
1, 330025, Note_off_c, 1, 75, 0
1, 330025, Note_off_c, 1, 59, 0
1, 330026, Note_on_c, 1, 64, 127
1, 330026, Note_on_c, 1, 76, 127
1, 330238, Note_off_c, 1, 64, 0
1, 330240, Note_on_c, 1, 59, 127
1, 330452, Note_off_c, 1, 59, 0
1, 330454, Note_on_c, 1, 56, 127
1, 330666, Note_off_c, 1, 56, 0
1, 330668, Note_on_c, 1, 52, 127
1, 330879, Note_off_c, 1, 76, 0
1, 330880, Note_off_c, 1, 52, 0
1, 330882, Note_on_c, 1, 56, 127
1, 331094, Note_off_c, 1, 56, 0
1, 331096, Note_on_c, 1, 80, 127
1, 331096, Note_on_c, 1, 49, 127
1, 331308, Note_off_c, 1, 80, 0
1, 331308, Note_off_c, 1, 49, 0
1, 331310, Note_on_c, 1, 81, 127
1, 331310, Note_on_c, 1, 54, 127
1, 331415, Note_off_c, 1, 81, 0
1, 331416, Note_on_c, 1, 80, 127
1, 331521, Note_off_c, 1, 80, 0
1, 331523, Note_on_c, 1, 78, 127
1, 331628, Note_off_c, 1, 78, 0
1, 331630, Note_on_c, 1, 76, 127
1, 331732, Note_off_c, 1, 54, 0
1, 331735, Note_off_c, 1, 76, 0
1, 331737, Note_on_c, 1, 75, 127
1, 331842, Note_off_c, 1, 75, 0
1, 331844, Note_on_c, 1, 73, 127
1, 331949, Note_off_c, 1, 73, 0
1, 331951, Note_on_c, 1, 72, 127
1, 331951, Note_on_c, 1, 56, 127
1, 332056, Note_off_c, 1, 72, 0
1, 332058, Note_on_c, 1, 75, 127
1, 332163, Note_off_c, 1, 56, 0
1, 332163, Note_off_c, 1, 75, 0
1, 332165, Note_on_c, 1, 80, 127
1, 332165, Note_on_c, 1, 58, 127
1, 332270, Note_off_c, 1, 80, 0
1, 332272, Note_on_c, 1, 78, 127
1, 332377, Note_off_c, 1, 58, 0
1, 332377, Note_off_c, 1, 78, 0
1, 332379, Note_on_c, 1, 76, 127
1, 332379, Note_on_c, 1, 60, 127
1, 332484, Note_off_c, 1, 76, 0
1, 332486, Note_on_c, 1, 75, 127
1, 332591, Note_off_c, 1, 60, 0
1, 332591, Note_off_c, 1, 75, 0
1, 332593, Note_on_c, 1, 76, 127
1, 332593, Note_on_c, 1, 49, 127
1, 332698, Note_off_c, 1, 76, 0
1, 332699, Note_on_c, 1, 78, 127
1, 332804, Note_off_c, 1, 78, 0
1, 332805, Note_off_c, 1, 49, 0
1, 332806, Note_on_c, 1, 76, 127
1, 332806, Note_on_c, 1, 51, 127
1, 332911, Note_off_c, 1, 76, 0
1, 332913, Note_on_c, 1, 75, 127
1, 333018, Note_off_c, 1, 51, 0
1, 333018, Note_off_c, 1, 75, 0
1, 333020, Note_on_c, 1, 73, 127
1, 333020, Note_on_c, 1, 52, 127
1, 333125, Note_off_c, 1, 73, 0
1, 333127, Note_on_c, 1, 71, 127
1, 333232, Note_off_c, 1, 52, 0
1, 333232, Note_off_c, 1, 71, 0
1, 333234, Note_on_c, 1, 70, 127
1, 333234, Note_on_c, 1, 54, 127
1, 333339, Note_off_c, 1, 70, 0
1, 333341, Note_on_c, 1, 73, 127
1, 333446, Note_off_c, 1, 54, 0
1, 333446, Note_off_c, 1, 73, 0
1, 333448, Note_on_c, 1, 78, 127
1, 333448, Note_on_c, 1, 56, 127
1, 333553, Note_off_c, 1, 78, 0
1, 333555, Note_on_c, 1, 76, 127
1, 333660, Note_off_c, 1, 56, 0
1, 333660, Note_off_c, 1, 76, 0
1, 333662, Note_on_c, 1, 75, 127
1, 333662, Note_on_c, 1, 58, 127
1, 333767, Note_off_c, 1, 75, 0
1, 333769, Note_on_c, 1, 73, 127
1, 333874, Note_off_c, 1, 58, 0
1, 333874, Note_off_c, 1, 73, 0
1, 333876, Note_on_c, 1, 75, 127
1, 333876, Note_on_c, 1, 47, 127
1, 333981, Note_off_c, 1, 75, 0
1, 333983, Note_on_c, 1, 76, 127
1, 334088, Note_off_c, 1, 47, 0
1, 334088, Note_off_c, 1, 76, 0
1, 334089, Note_on_c, 1, 75, 127
1, 334089, Note_on_c, 1, 49, 127
1, 334194, Note_off_c, 1, 75, 0
1, 334196, Note_on_c, 1, 73, 127
1, 334301, Note_off_c, 1, 49, 0
1, 334301, Note_off_c, 1, 73, 0
1, 334303, Note_on_c, 1, 71, 127
1, 334303, Note_on_c, 1, 51, 127
1, 334408, Note_off_c, 1, 71, 0
1, 334410, Note_on_c, 1, 69, 127
1, 334515, Note_off_c, 1, 51, 0
1, 334515, Note_off_c, 1, 69, 0
1, 334517, Note_on_c, 1, 68, 127
1, 334517, Note_on_c, 1, 52, 127
1, 334622, Note_off_c, 1, 68, 0
1, 334624, Note_on_c, 1, 71, 127
1, 334729, Note_off_c, 1, 52, 0
1, 334729, Note_off_c, 1, 71, 0
1, 334731, Note_on_c, 1, 76, 127
1, 334731, Note_on_c, 1, 49, 127
1, 334836, Note_off_c, 1, 76, 0
1, 334838, Note_on_c, 1, 75, 127
1, 334943, Note_off_c, 1, 49, 0
1, 334943, Note_off_c, 1, 75, 0
1, 334945, Note_on_c, 1, 73, 127
1, 334945, Note_on_c, 1, 52, 127
1, 335050, Note_off_c, 1, 73, 0
1, 335052, Note_on_c, 1, 71, 127
1, 335157, Note_off_c, 1, 52, 0
1, 335157, Note_off_c, 1, 71, 0
1, 335159, Note_on_c, 1, 70, 127
1, 335159, Note_on_c, 1, 54, 127
1, 335264, Note_off_c, 1, 70, 0
1, 335266, Note_on_c, 1, 68, 127
1, 335371, Note_off_c, 1, 54, 0
1, 335371, Note_off_c, 1, 68, 0
1, 335372, Note_on_c, 1, 66, 127
1, 335372, Note_on_c, 1, 49, 127
1, 335477, Note_off_c, 1, 66, 0
1, 335479, Note_on_c, 1, 68, 127
1, 335584, Note_off_c, 1, 49, 0
1, 335584, Note_off_c, 1, 68, 0
1, 335586, Note_on_c, 1, 70, 127
1, 335586, Note_on_c, 1, 46, 127
1, 335691, Note_off_c, 1, 70, 0
1, 335693, Note_on_c, 1, 71, 127
1, 335798, Note_off_c, 1, 46, 0
1, 335798, Note_off_c, 1, 71, 0
1, 335800, Note_on_c, 1, 73, 127
1, 335800, Note_on_c, 1, 42, 127
1, 335905, Note_off_c, 1, 73, 0
1, 335907, Note_on_c, 1, 71, 127
1, 336012, Note_off_c, 1, 42, 0
1, 336012, Note_off_c, 1, 71, 0
1, 336014, Note_on_c, 1, 70, 127
1, 336014, Note_on_c, 1, 52, 127
1, 336119, Note_off_c, 1, 70, 0
1, 336121, Note_on_c, 1, 71, 127
1, 336226, Note_off_c, 1, 52, 0
1, 336226, Note_off_c, 1, 71, 0
1, 336228, Note_on_c, 1, 73, 127
1, 336228, Note_on_c, 1, 51, 127
1, 336333, Note_off_c, 1, 73, 0
1, 336335, Note_on_c, 1, 75, 127
1, 336440, Note_off_c, 1, 51, 0
1, 336440, Note_off_c, 1, 75, 0
1, 336442, Note_on_c, 1, 76, 127
1, 336442, Note_on_c, 1, 49, 127
1, 336547, Note_off_c, 1, 76, 0
1, 336549, Note_on_c, 1, 75, 127
1, 336654, Note_off_c, 1, 49, 0
1, 336654, Note_off_c, 1, 75, 0
1, 336656, Note_on_c, 1, 73, 127
1, 336656, Note_on_c, 1, 44, 127
1, 336761, Note_off_c, 1, 73, 0
1, 336762, Note_on_c, 1, 75, 127
1, 336867, Note_off_c, 1, 75, 0
1, 336868, Note_off_c, 1, 44, 0
1, 336869, Note_on_c, 1, 76, 127
1, 336869, Note_on_c, 1, 40, 127
1, 336974, Note_off_c, 1, 76, 0
1, 336976, Note_on_c, 1, 78, 127
1, 337081, Note_off_c, 1, 40, 0
1, 337081, Note_off_c, 1, 78, 0
1, 337083, Note_on_c, 1, 80, 127
1, 337083, Note_on_c, 1, 37, 127
1, 337188, Note_off_c, 1, 80, 0
1, 337190, Note_on_c, 1, 78, 127
1, 337295, Note_off_c, 1, 37, 0
1, 337295, Note_off_c, 1, 78, 0
1, 337297, Note_on_c, 1, 76, 127
1, 337297, Note_on_c, 1, 47, 127
1, 337402, Note_off_c, 1, 76, 0
1, 337404, Note_on_c, 1, 78, 127
1, 337509, Note_off_c, 1, 47, 0
1, 337509, Note_off_c, 1, 78, 0
1, 337511, Note_on_c, 1, 80, 127
1, 337511, Note_on_c, 1, 46, 127
1, 337616, Note_off_c, 1, 80, 0
1, 337618, Note_on_c, 1, 82, 127
1, 337723, Note_off_c, 1, 46, 0
1, 337723, Note_off_c, 1, 82, 0
1, 337725, Note_on_c, 1, 83, 127
1, 337725, Note_on_c, 1, 44, 127
1, 337830, Note_off_c, 1, 83, 0
1, 337832, Note_on_c, 1, 82, 127
1, 337937, Note_off_c, 1, 44, 0
1, 337937, Note_off_c, 1, 82, 0
1, 337939, Note_on_c, 1, 80, 127
1, 337939, Note_on_c, 1, 46, 127
1, 338044, Note_off_c, 1, 80, 0
1, 338045, Note_on_c, 1, 78, 127
1, 338150, Note_off_c, 1, 78, 0
1, 338151, Note_off_c, 1, 46, 0
1, 338152, Note_on_c, 1, 76, 127
1, 338152, Note_on_c, 1, 47, 127
1, 338257, Note_off_c, 1, 76, 0
1, 338259, Note_on_c, 1, 75, 127
1, 338364, Note_off_c, 1, 47, 0
1, 338364, Note_off_c, 1, 75, 0
1, 338366, Note_on_c, 1, 80, 127
1, 338366, Note_on_c, 1, 40, 127
1, 338471, Note_off_c, 1, 80, 0
1, 338473, Note_on_c, 1, 78, 127
1, 338578, Note_off_c, 1, 78, 0
1, 338580, Note_on_c, 1, 76, 127
1, 338685, Note_off_c, 1, 76, 0
1, 338687, Note_on_c, 1, 75, 127
1, 338792, Note_off_c, 1, 40, 0
1, 338792, Note_off_c, 1, 75, 0
1, 338794, Note_on_c, 1, 73, 127
1, 338794, Note_on_c, 1, 52, 127
1, 338899, Note_off_c, 1, 73, 0
1, 338901, Note_on_c, 1, 71, 127
1, 339006, Note_off_c, 1, 71, 0
1, 339008, Note_on_c, 1, 70, 127
1, 339113, Note_off_c, 1, 52, 0
1, 339113, Note_off_c, 1, 70, 0
1, 339115, Note_on_c, 1, 73, 127
1, 339115, Note_on_c, 1, 56, 127
1, 339220, Note_off_c, 1, 73, 0
1, 339220, Note_off_c, 1, 56, 0
1, 339222, Note_on_c, 1, 76, 127
1, 339222, Note_on_c, 1, 54, 127
1, 339327, Note_off_c, 1, 76, 0
1, 339327, Note_off_c, 1, 54, 0
1, 339329, Note_on_c, 1, 80, 127
1, 339329, Note_on_c, 1, 52, 127
1, 339434, Note_off_c, 1, 80, 0
1, 339434, Note_off_c, 1, 52, 0
1, 339435, Note_on_c, 1, 51, 127
1, 339435, Note_on_c, 1, 78, 127
1, 339540, Note_off_c, 1, 51, 0
1, 339542, Note_on_c, 1, 49, 127
1, 339647, Note_off_c, 1, 49, 0
1, 339649, Note_on_c, 1, 47, 127
1, 339812, Note_off_c, 1, 78, 0
1, 339859, Note_off_c, 1, 47, 0
1, 339862, Note_on_c, 1, 76, 127
1, 339862, Note_on_c, 1, 54, 127
1, 339967, Note_off_c, 1, 76, 0
1, 339968, Note_on_c, 1, 75, 127
1, 340073, Note_off_c, 1, 75, 0
1, 340074, Note_off_c, 1, 54, 0
1, 340075, Note_on_c, 1, 73, 127
1, 340075, Note_on_c, 1, 42, 127
1, 340180, Note_off_c, 1, 73, 0
1, 340182, Note_on_c, 1, 71, 127
1, 340287, Note_off_c, 1, 42, 0
1, 340287, Note_off_c, 1, 71, 0
1, 340289, Note_on_c, 1, 71, 127
1, 340289, Note_on_c, 1, 47, 127
1, 340396, Note_on_c, 1, 75, 127
1, 340501, Note_off_c, 1, 75, 0
1, 340503, Note_on_c, 1, 78, 127
1, 340608, Note_off_c, 1, 78, 0
1, 340610, Note_on_c, 1, 83, 127
1, 340711, Note_off_c, 1, 71, 0
1, 340711, Note_off_c, 1, 47, 0
1, 340715, Note_off_c, 1, 83, 0
1, 340717, Note_on_c, 1, 78, 127
1, 340822, Note_off_c, 1, 78, 0
1, 340824, Note_on_c, 1, 75, 127
1, 340929, Note_off_c, 1, 75, 0
1, 340931, Note_on_c, 1, 71, 127
1, 340931, Note_on_c, 1, 46, 127
1, 341038, Note_on_c, 1, 75, 127
1, 341143, Note_off_c, 1, 75, 0
1, 341145, Note_on_c, 1, 78, 127
1, 341250, Note_off_c, 1, 78, 0
1, 341251, Note_on_c, 1, 83, 127
1, 341353, Note_off_c, 1, 71, 0
1, 341353, Note_off_c, 1, 46, 0
1, 341356, Note_off_c, 1, 83, 0
1, 341358, Note_on_c, 1, 78, 127
1, 341463, Note_off_c, 1, 78, 0
1, 341465, Note_on_c, 1, 75, 127
1, 341570, Note_off_c, 1, 75, 0
1, 341572, Note_on_c, 1, 44, 127
1, 341572, Note_on_c, 1, 71, 127
1, 341677, Note_off_c, 1, 44, 0
1, 341679, Note_on_c, 1, 47, 127
1, 341784, Note_off_c, 1, 47, 0
1, 341786, Note_on_c, 1, 51, 127
1, 341891, Note_off_c, 1, 51, 0
1, 341893, Note_on_c, 1, 56, 127
1, 341998, Note_off_c, 1, 56, 0
1, 342214, Note_on_c, 1, 42, 127
1, 342319, Note_off_c, 1, 42, 0
1, 342535, Note_on_c, 1, 54, 127
1, 342640, Note_off_c, 1, 54, 0
1, 342851, Note_off_c, 1, 71, 0
1, 342855, Note_on_c, 1, 53, 127
1, 342962, Note_on_c, 1, 74, 127
1, 343067, Note_off_c, 1, 74, 0
1, 343069, Note_on_c, 1, 77, 127
1, 343174, Note_off_c, 1, 77, 0
1, 343176, Note_on_c, 1, 80, 127
1, 343277, Note_off_c, 1, 53, 0
1, 343281, Note_off_c, 1, 80, 0
1, 343283, Note_on_c, 1, 77, 127
1, 343388, Note_off_c, 1, 77, 0
1, 343390, Note_on_c, 1, 74, 127
1, 343495, Note_off_c, 1, 74, 0
1, 343497, Note_on_c, 1, 71, 127
1, 343497, Note_on_c, 1, 49, 127
1, 343604, Note_on_c, 1, 74, 127
1, 343709, Note_off_c, 1, 74, 0
1, 343711, Note_on_c, 1, 77, 127
1, 343816, Note_off_c, 1, 77, 0
1, 343818, Note_on_c, 1, 80, 127
1, 343919, Note_off_c, 1, 71, 0
1, 343919, Note_off_c, 1, 49, 0
1, 343923, Note_off_c, 1, 80, 0
1, 343924, Note_on_c, 1, 77, 127
1, 344029, Note_off_c, 1, 77, 0
1, 344031, Note_on_c, 1, 71, 127
1, 344136, Note_off_c, 1, 71, 0
1, 344138, Note_on_c, 1, 70, 127
1, 344138, Note_on_c, 1, 54, 127
1, 344243, Note_off_c, 1, 70, 0
1, 344245, Note_on_c, 1, 66, 127
1, 344350, Note_off_c, 1, 66, 0
1, 344352, Note_on_c, 1, 68, 127
1, 344457, Note_off_c, 1, 68, 0
1, 344566, Note_on_c, 1, 71, 127
1, 344671, Note_off_c, 1, 71, 0
1, 344673, Note_on_c, 1, 73, 127
1, 344777, Note_off_c, 1, 54, 0
1, 344778, Note_off_c, 1, 73, 0
1, 344780, Note_on_c, 1, 75, 127
1, 344887, Note_on_c, 1, 56, 127
1, 344992, Note_off_c, 1, 56, 0
1, 344994, Note_on_c, 1, 58, 127
1, 345099, Note_off_c, 1, 58, 0
1, 345101, Note_on_c, 1, 59, 127
1, 345206, Note_off_c, 1, 59, 0
1, 345208, Note_on_c, 1, 61, 127
1, 345313, Note_off_c, 1, 61, 0
1, 345314, Note_on_c, 1, 63, 127
1, 345419, Note_off_c, 1, 63, 0
1, 345421, Note_on_c, 1, 64, 127
1, 345526, Note_off_c, 1, 75, 0
1, 345528, Note_on_c, 1, 68, 127
1, 345633, Note_off_c, 1, 68, 0
1, 345635, Note_on_c, 1, 70, 127
1, 345740, Note_off_c, 1, 70, 0
1, 345742, Note_on_c, 1, 71, 127
1, 345847, Note_off_c, 1, 71, 0
1, 345849, Note_on_c, 1, 73, 127
1, 345954, Note_off_c, 1, 73, 0
1, 346060, Note_off_c, 1, 64, 0
1, 346063, Note_on_c, 1, 76, 127
1, 346170, Note_on_c, 1, 66, 127
1, 346275, Note_off_c, 1, 66, 0
1, 346277, Note_on_c, 1, 64, 127
1, 346382, Note_off_c, 1, 64, 0
1, 346384, Note_on_c, 1, 63, 127
1, 346489, Note_off_c, 1, 63, 0
1, 346491, Note_on_c, 1, 61, 127
1, 346596, Note_off_c, 1, 61, 0
1, 346597, Note_on_c, 1, 59, 127
1, 346702, Note_off_c, 1, 59, 0
1, 346704, Note_on_c, 1, 58, 127
1, 346809, Note_off_c, 1, 76, 0
1, 346811, Note_on_c, 1, 68, 127
1, 346916, Note_off_c, 1, 58, 0
1, 346916, Note_off_c, 1, 68, 0
1, 346918, Note_on_c, 1, 66, 127
1, 346918, Note_on_c, 1, 59, 127
1, 347023, Note_off_c, 1, 66, 0
1, 347025, Note_on_c, 1, 64, 127
1, 347130, Note_off_c, 1, 59, 0
1, 347130, Note_off_c, 1, 64, 0
1, 347132, Note_on_c, 1, 63, 127
1, 347132, Note_on_c, 1, 61, 127
1, 347237, Note_off_c, 1, 63, 0
1, 347239, Note_on_c, 1, 64, 127
1, 347344, Note_off_c, 1, 61, 0
1, 347344, Note_off_c, 1, 64, 0
1, 347346, Note_on_c, 1, 70, 127
1, 347346, Note_on_c, 1, 54, 127
1, 347453, Note_on_c, 1, 68, 127
1, 347558, Note_off_c, 1, 68, 0
1, 347560, Note_on_c, 1, 66, 127
1, 347657, Note_off_c, 1, 70, 0
1, 347665, Note_off_c, 1, 66, 0
1, 347667, Note_on_c, 1, 64, 127
1, 347768, Note_off_c, 1, 54, 0
1, 347772, Note_off_c, 1, 64, 0
1, 347774, Note_on_c, 1, 63, 127
1, 347879, Note_off_c, 1, 63, 0
1, 347881, Note_on_c, 1, 64, 127
1, 347986, Note_off_c, 1, 64, 0
1, 347987, Note_on_c, 1, 71, 127
1, 347987, Note_on_c, 1, 56, 127
1, 348094, Note_on_c, 1, 68, 127
1, 348199, Note_off_c, 1, 68, 0
1, 348201, Note_on_c, 1, 66, 127
1, 348298, Note_off_c, 1, 71, 0
1, 348306, Note_off_c, 1, 66, 0
1, 348308, Note_on_c, 1, 64, 127
1, 348409, Note_off_c, 1, 56, 0
1, 348413, Note_off_c, 1, 64, 0
1, 348415, Note_on_c, 1, 63, 127
1, 348520, Note_off_c, 1, 63, 0
1, 348522, Note_on_c, 1, 64, 127
1, 348627, Note_off_c, 1, 64, 0
1, 348629, Note_on_c, 1, 73, 127
1, 348629, Note_on_c, 1, 58, 127
1, 348736, Note_on_c, 1, 68, 127
1, 348841, Note_off_c, 1, 68, 0
1, 348843, Note_on_c, 1, 66, 127
1, 348940, Note_off_c, 1, 73, 0
1, 348948, Note_off_c, 1, 66, 0
1, 348950, Note_on_c, 1, 64, 127
1, 349051, Note_off_c, 1, 58, 0
1, 349055, Note_off_c, 1, 64, 0
1, 349057, Note_on_c, 1, 63, 127
1, 349162, Note_off_c, 1, 63, 0
1, 349164, Note_on_c, 1, 64, 127
1, 349269, Note_off_c, 1, 64, 0
1, 349270, Note_on_c, 1, 75, 127
1, 349270, Note_on_c, 1, 59, 127
1, 349375, Note_off_c, 1, 75, 0
1, 349377, Note_on_c, 1, 73, 127
1, 349482, Note_off_c, 1, 59, 0
1, 349482, Note_off_c, 1, 73, 0
1, 349484, Note_on_c, 1, 71, 127
1, 349484, Note_on_c, 1, 58, 127
1, 349589, Note_off_c, 1, 71, 0
1, 349591, Note_on_c, 1, 73, 127
1, 349696, Note_off_c, 1, 58, 0
1, 349696, Note_off_c, 1, 73, 0
1, 349698, Note_on_c, 1, 75, 127
1, 349698, Note_on_c, 1, 56, 127
1, 349803, Note_off_c, 1, 75, 0
1, 349805, Note_on_c, 1, 76, 127
1, 349910, Note_off_c, 1, 56, 0
1, 349910, Note_off_c, 1, 76, 0
1, 349912, Note_on_c, 1, 78, 127
1, 349912, Note_on_c, 1, 51, 127
1, 350124, Note_off_c, 1, 78, 0
1, 350124, Note_off_c, 1, 51, 0
1, 350126, Note_on_c, 1, 71, 127
1, 350126, Note_on_c, 1, 52, 127
1, 350338, Note_off_c, 1, 71, 0
1, 350338, Note_off_c, 1, 52, 0
1, 350340, Note_on_c, 1, 70, 127
1, 350340, Note_on_c, 1, 54, 127
1, 350552, Note_off_c, 1, 70, 0
1, 350552, Note_off_c, 1, 54, 0
1, 350554, Note_on_c, 1, 47, 127
1, 350554, Note_on_c, 1, 71, 127
1, 350766, Note_off_c, 1, 47, 0
1, 350767, Note_on_c, 1, 51, 127
1, 350979, Note_off_c, 1, 51, 0
1, 350981, Note_on_c, 1, 54, 127
1, 351193, Note_off_c, 1, 54, 0
1, 351195, Note_on_c, 1, 59, 127
1, 351407, Note_off_c, 1, 71, 0
1, 351621, Note_on_c, 1, 78, 127
1, 351833, Note_off_c, 1, 59, 0
1, 351833, Note_off_c, 1, 78, 0
1, 351835, Note_on_c, 1, 71, 127
1, 352047, Note_off_c, 1, 71, 0
1, 352049, Note_on_c, 1, 75, 127
1, 352261, Note_off_c, 1, 75, 0
1, 352263, Note_on_c, 1, 78, 127
1, 352475, Note_off_c, 1, 78, 0
1, 352476, Note_on_c, 1, 83, 127
1, 352688, Note_off_c, 1, 83, 0
1, 352690, Note_on_c, 1, 80, 127
1, 352902, Note_off_c, 1, 80, 0
1, 352904, Note_on_c, 1, 81, 127
1, 352904, Note_on_c, 1, 59, 127
1, 353116, Note_off_c, 1, 81, 0
1, 353116, Note_off_c, 1, 59, 0
1, 353118, Note_on_c, 1, 52, 127
1, 353118, Note_on_c, 1, 80, 127
1, 353330, Note_off_c, 1, 52, 0
1, 353332, Note_on_c, 1, 56, 127
1, 353544, Note_off_c, 1, 56, 0
1, 353546, Note_on_c, 1, 59, 127
1, 353758, Note_off_c, 1, 59, 0
1, 353759, Note_on_c, 1, 64, 127
1, 353971, Note_off_c, 1, 80, 0
1, 353971, Note_off_c, 1, 64, 0
1, 353973, Note_on_c, 1, 61, 127
1, 354185, Note_off_c, 1, 61, 0
1, 354187, Note_on_c, 1, 80, 127
1, 354187, Note_on_c, 1, 62, 127
1, 354399, Note_off_c, 1, 80, 0
1, 354399, Note_off_c, 1, 62, 0
1, 354401, Note_on_c, 1, 81, 127
1, 354401, Note_on_c, 1, 61, 127
1, 354506, Note_off_c, 1, 81, 0
1, 354508, Note_on_c, 1, 80, 127
1, 354613, Note_off_c, 1, 80, 0
1, 354722, Note_on_c, 1, 83, 127
1, 354823, Note_off_c, 1, 61, 0
1, 354827, Note_off_c, 1, 83, 0
1, 354829, Note_on_c, 1, 81, 127
1, 354934, Note_off_c, 1, 81, 0
1, 354936, Note_on_c, 1, 80, 127
1, 355041, Note_off_c, 1, 80, 0
1, 355043, Note_on_c, 1, 78, 127
1, 355043, Note_on_c, 1, 62, 127
1, 355148, Note_off_c, 1, 78, 0
1, 355149, Note_on_c, 1, 77, 127
1, 355254, Note_off_c, 1, 77, 0
1, 355363, Note_on_c, 1, 80, 127
1, 355465, Note_off_c, 1, 62, 0
1, 355468, Note_off_c, 1, 80, 0
1, 355470, Note_on_c, 1, 81, 127
1, 355575, Note_off_c, 1, 81, 0
1, 355577, Note_on_c, 1, 78, 127
1, 355682, Note_off_c, 1, 78, 0
1, 355684, Note_on_c, 1, 80, 127
1, 355684, Note_on_c, 1, 59, 127
1, 355789, Note_off_c, 1, 80, 0
1, 355791, Note_on_c, 1, 78, 127
1, 355896, Note_off_c, 1, 78, 0
1, 356005, Note_on_c, 1, 81, 127
1, 356106, Note_off_c, 1, 59, 0
1, 356110, Note_off_c, 1, 81, 0
1, 356112, Note_on_c, 1, 83, 127
1, 356217, Note_off_c, 1, 83, 0
1, 356219, Note_on_c, 1, 80, 127
1, 356324, Note_off_c, 1, 80, 0
1, 356326, Note_on_c, 1, 61, 127
1, 356326, Note_on_c, 1, 77, 127
1, 356431, Note_off_c, 1, 61, 0
1, 356432, Note_on_c, 1, 59, 127
1, 356537, Note_off_c, 1, 59, 0
1, 356538, Note_off_c, 1, 77, 0
1, 356539, Note_on_c, 1, 61, 127
1, 356539, Note_on_c, 1, 73, 127
1, 356644, Note_off_c, 1, 61, 0
1, 356646, Note_on_c, 1, 62, 127
1, 356751, Note_off_c, 1, 73, 0
1, 356751, Note_off_c, 1, 62, 0
1, 356753, Note_on_c, 1, 61, 127
1, 356753, Note_on_c, 1, 77, 127
1, 356858, Note_off_c, 1, 61, 0
1, 356860, Note_on_c, 1, 59, 127
1, 356965, Note_off_c, 1, 77, 0
1, 356965, Note_off_c, 1, 59, 0
1, 356967, Note_on_c, 1, 77, 127
1, 356967, Note_on_c, 1, 57, 127
1, 357021, Note_on_c, 1, 78, 127
1, 357025, Note_off_c, 1, 77, 0
1, 357072, Note_off_c, 1, 57, 0
1, 357072, Note_off_c, 1, 78, 0
1, 357074, Note_on_c, 1, 80, 127
1, 357074, Note_on_c, 1, 56, 127
1, 357125, Note_off_c, 1, 80, 0
1, 357127, Note_on_c, 1, 78, 127
1, 357178, Note_off_c, 1, 78, 0
1, 357179, Note_off_c, 1, 56, 0
1, 357181, Note_on_c, 1, 80, 127
1, 357181, Note_on_c, 1, 57, 127
1, 357232, Note_off_c, 1, 80, 0
1, 357234, Note_on_c, 1, 78, 127
1, 357285, Note_off_c, 1, 78, 0
1, 357286, Note_off_c, 1, 57, 0
1, 357288, Note_on_c, 1, 80, 127
1, 357288, Note_on_c, 1, 59, 127
1, 357339, Note_off_c, 1, 80, 0
1, 357341, Note_on_c, 1, 78, 127
1, 357392, Note_off_c, 1, 78, 0
1, 357393, Note_off_c, 1, 59, 0
1, 357395, Note_on_c, 1, 80, 127
1, 357395, Note_on_c, 1, 57, 127
1, 357446, Note_off_c, 1, 80, 0
1, 357448, Note_on_c, 1, 78, 127
1, 357499, Note_off_c, 1, 78, 0
1, 357500, Note_off_c, 1, 57, 0
1, 357502, Note_on_c, 1, 80, 127
1, 357502, Note_on_c, 1, 56, 127
1, 357553, Note_off_c, 1, 80, 0
1, 357555, Note_on_c, 1, 78, 127
1, 357606, Note_off_c, 1, 78, 0
1, 357607, Note_off_c, 1, 56, 0
1, 357609, Note_on_c, 1, 80, 127
1, 357609, Note_on_c, 1, 54, 127
1, 357660, Note_off_c, 1, 80, 0
1, 357662, Note_on_c, 1, 78, 127
1, 357713, Note_off_c, 1, 78, 0
1, 357714, Note_off_c, 1, 54, 0
1, 357716, Note_on_c, 1, 80, 127
1, 357716, Note_on_c, 1, 52, 127
1, 357767, Note_off_c, 1, 80, 0
1, 357769, Note_on_c, 1, 78, 127
1, 357820, Note_off_c, 1, 78, 0
1, 357821, Note_off_c, 1, 52, 0
1, 357822, Note_on_c, 1, 80, 127
1, 357822, Note_on_c, 1, 54, 127
1, 357873, Note_off_c, 1, 80, 0
1, 357876, Note_on_c, 1, 78, 127
1, 357927, Note_off_c, 1, 54, 0
1, 357927, Note_off_c, 1, 78, 0
1, 357929, Note_on_c, 1, 80, 127
1, 357929, Note_on_c, 1, 56, 127
1, 357980, Note_off_c, 1, 80, 0
1, 357983, Note_on_c, 1, 78, 127
1, 358034, Note_off_c, 1, 56, 0
1, 358034, Note_off_c, 1, 78, 0
1, 358036, Note_on_c, 1, 80, 127
1, 358036, Note_on_c, 1, 54, 127
1, 358087, Note_off_c, 1, 80, 0
1, 358090, Note_on_c, 1, 78, 127
1, 358141, Note_off_c, 1, 54, 0
1, 358141, Note_off_c, 1, 78, 0
1, 358143, Note_on_c, 1, 80, 127
1, 358143, Note_on_c, 1, 52, 127
1, 358194, Note_off_c, 1, 80, 0
1, 358197, Note_on_c, 1, 78, 127
1, 358248, Note_off_c, 1, 52, 0
1, 358248, Note_off_c, 1, 78, 0
1, 358250, Note_on_c, 1, 80, 127
1, 358250, Note_on_c, 1, 50, 127
1, 358301, Note_off_c, 1, 80, 0
1, 358304, Note_on_c, 1, 78, 127
1, 358355, Note_off_c, 1, 50, 0
1, 358355, Note_off_c, 1, 78, 0
1, 358357, Note_on_c, 1, 80, 127
1, 358357, Note_on_c, 1, 49, 127
1, 358408, Note_off_c, 1, 80, 0
1, 358411, Note_on_c, 1, 78, 127
1, 358462, Note_off_c, 1, 49, 0
1, 358462, Note_off_c, 1, 78, 0
1, 358464, Note_on_c, 1, 80, 127
1, 358464, Note_on_c, 1, 50, 127
1, 358515, Note_off_c, 1, 80, 0
1, 358517, Note_on_c, 1, 78, 127
1, 358568, Note_off_c, 1, 78, 0
1, 358569, Note_off_c, 1, 50, 0
1, 358571, Note_on_c, 1, 80, 127
1, 358571, Note_on_c, 1, 52, 127
1, 358622, Note_off_c, 1, 80, 0
1, 358624, Note_on_c, 1, 78, 127
1, 358676, Note_off_c, 1, 52, 0
1, 358678, Note_on_c, 1, 50, 127
1, 358783, Note_off_c, 1, 50, 0
1, 358785, Note_on_c, 1, 49, 127
1, 358890, Note_off_c, 1, 49, 0
1, 358892, Note_on_c, 1, 47, 127
1, 358980, Note_off_c, 1, 78, 0
1, 358997, Note_off_c, 1, 47, 0
1, 358999, Note_on_c, 1, 81, 127
1, 358999, Note_on_c, 1, 45, 127
1, 359104, Note_off_c, 1, 81, 0
1, 359104, Note_off_c, 1, 45, 0
1, 359105, Note_on_c, 1, 80, 127
1, 359105, Note_on_c, 1, 47, 127
1, 359210, Note_off_c, 1, 80, 0
1, 359210, Note_off_c, 1, 47, 0
1, 359212, Note_on_c, 1, 78, 127
1, 359212, Note_on_c, 1, 49, 127
1, 359317, Note_off_c, 1, 78, 0
1, 359317, Note_off_c, 1, 49, 0
1, 359319, Note_on_c, 1, 77, 127
1, 359319, Note_on_c, 1, 47, 127
1, 359424, Note_off_c, 1, 77, 0
1, 359424, Note_off_c, 1, 47, 0
1, 359426, Note_on_c, 1, 78, 127
1, 359426, Note_on_c, 1, 45, 127
1, 359531, Note_off_c, 1, 78, 0
1, 359531, Note_off_c, 1, 45, 0
1, 359533, Note_on_c, 1, 71, 127
1, 359533, Note_on_c, 1, 44, 127
1, 359638, Note_off_c, 1, 71, 0
1, 359640, Note_on_c, 1, 74, 127
1, 359745, Note_off_c, 1, 74, 0
1, 359747, Note_on_c, 1, 73, 127
1, 359852, Note_off_c, 1, 73, 0
1, 359955, Note_off_c, 1, 44, 0
1, 359961, Note_on_c, 1, 70, 127
1, 360066, Note_off_c, 1, 70, 0
1, 360068, Note_on_c, 1, 71, 127
1, 360173, Note_off_c, 1, 71, 0
1, 360175, Note_on_c, 1, 77, 127
1, 360175, Note_on_c, 1, 47, 127
1, 360282, Note_on_c, 1, 74, 127
1, 360387, Note_off_c, 1, 74, 0
1, 360389, Note_on_c, 1, 73, 127
1, 360442, Note_off_c, 1, 77, 0
1, 360494, Note_off_c, 1, 73, 0
1, 360495, Note_on_c, 1, 71, 127
1, 360597, Note_off_c, 1, 47, 0
1, 360600, Note_off_c, 1, 71, 0
1, 360602, Note_on_c, 1, 70, 127
1, 360707, Note_off_c, 1, 70, 0
1, 360709, Note_on_c, 1, 71, 127
1, 360814, Note_off_c, 1, 71, 0
1, 360816, Note_on_c, 1, 78, 127
1, 360816, Note_on_c, 1, 45, 127
1, 360923, Note_on_c, 1, 74, 127
1, 361028, Note_off_c, 1, 74, 0
1, 361030, Note_on_c, 1, 73, 127
1, 361083, Note_off_c, 1, 78, 0
1, 361135, Note_off_c, 1, 73, 0
1, 361137, Note_on_c, 1, 71, 127
1, 361238, Note_off_c, 1, 45, 0
1, 361242, Note_off_c, 1, 71, 0
1, 361244, Note_on_c, 1, 70, 127
1, 361349, Note_off_c, 1, 70, 0
1, 361351, Note_on_c, 1, 71, 127
1, 361456, Note_off_c, 1, 71, 0
1, 361458, Note_on_c, 1, 80, 127
1, 361458, Note_on_c, 1, 41, 127
1, 361565, Note_on_c, 1, 74, 127
1, 361670, Note_off_c, 1, 74, 0
1, 361672, Note_on_c, 1, 73, 127
1, 361725, Note_off_c, 1, 80, 0
1, 361777, Note_off_c, 1, 73, 0
1, 361778, Note_on_c, 1, 71, 127
1, 361880, Note_off_c, 1, 41, 0
1, 361883, Note_off_c, 1, 71, 0
1, 361885, Note_on_c, 1, 69, 127
1, 361990, Note_off_c, 1, 69, 0
1, 361992, Note_on_c, 1, 68, 127
1, 362097, Note_off_c, 1, 68, 0
1, 362099, Note_on_c, 1, 69, 127
1, 362099, Note_on_c, 1, 42, 127
1, 362204, Note_off_c, 1, 69, 0
1, 362206, Note_on_c, 1, 68, 127
1, 362311, Note_off_c, 1, 42, 0
1, 362311, Note_off_c, 1, 68, 0
1, 362313, Note_on_c, 1, 66, 127
1, 362313, Note_on_c, 1, 54, 127
1, 362418, Note_off_c, 1, 66, 0
1, 362420, Note_on_c, 1, 68, 127
1, 362525, Note_off_c, 1, 54, 0
1, 362525, Note_off_c, 1, 68, 0
1, 362527, Note_on_c, 1, 69, 127
1, 362527, Note_on_c, 1, 50, 127
1, 362632, Note_off_c, 1, 69, 0
1, 362634, Note_on_c, 1, 71, 127
1, 362739, Note_off_c, 1, 50, 0
1, 362739, Note_off_c, 1, 71, 0
1, 362741, Note_on_c, 1, 73, 127
1, 362741, Note_on_c, 1, 45, 127
1, 362953, Note_off_c, 1, 73, 0
1, 362953, Note_off_c, 1, 45, 0
1, 362955, Note_on_c, 1, 66, 127
1, 362955, Note_on_c, 1, 47, 127
1, 363167, Note_off_c, 1, 66, 0
1, 363167, Note_off_c, 1, 47, 0
1, 363168, Note_on_c, 1, 65, 127
1, 363168, Note_on_c, 1, 49, 127
1, 363380, Note_off_c, 1, 65, 0
1, 363380, Note_off_c, 1, 49, 0
1, 363382, Note_on_c, 1, 54, 127
1, 363382, Note_on_c, 1, 66, 127
1, 363594, Note_off_c, 1, 54, 0
1, 363596, Note_on_c, 1, 64, 127
1, 363701, Note_off_c, 1, 64, 0
1, 363703, Note_on_c, 1, 62, 127
1, 363808, Note_off_c, 1, 62, 0
1, 363810, Note_on_c, 1, 61, 127
1, 363915, Note_off_c, 1, 61, 0
1, 363917, Note_on_c, 1, 59, 127
1, 364022, Note_off_c, 1, 59, 0
1, 364024, Note_on_c, 1, 57, 127
1, 364129, Note_off_c, 1, 57, 0
1, 364235, Note_off_c, 1, 66, 0
1, 364238, Note_on_c, 1, 61, 127
1, 364343, Note_off_c, 1, 61, 0
1, 364345, Note_on_c, 1, 59, 127
1, 364450, Note_off_c, 1, 59, 0
1, 364451, Note_on_c, 1, 57, 127
1, 364451, Note_on_c, 1, 69, 127
1, 364556, Note_off_c, 1, 57, 0
1, 364558, Note_on_c, 1, 56, 127
1, 364663, Note_off_c, 1, 69, 0
1, 364663, Note_off_c, 1, 56, 0
1, 364665, Note_on_c, 1, 68, 127
1, 364665, Note_on_c, 1, 54, 127
1, 364716, Note_off_c, 1, 68, 0
1, 364719, Note_on_c, 1, 69, 127
1, 364770, Note_off_c, 1, 54, 0
1, 364770, Note_off_c, 1, 69, 0
1, 364772, Note_on_c, 1, 71, 127
1, 364772, Note_on_c, 1, 56, 127
1, 364823, Note_off_c, 1, 71, 0
1, 364826, Note_on_c, 1, 69, 127
1, 364877, Note_off_c, 1, 56, 0
1, 364877, Note_off_c, 1, 69, 0
1, 364879, Note_on_c, 1, 71, 127
1, 364879, Note_on_c, 1, 57, 127
1, 364930, Note_off_c, 1, 71, 0
1, 364933, Note_on_c, 1, 69, 127
1, 364984, Note_off_c, 1, 57, 0
1, 364984, Note_off_c, 1, 69, 0
1, 364986, Note_on_c, 1, 71, 127
1, 364986, Note_on_c, 1, 56, 127
1, 365037, Note_off_c, 1, 71, 0
1, 365040, Note_on_c, 1, 69, 127
1, 365091, Note_off_c, 1, 56, 0
1, 365091, Note_off_c, 1, 69, 0
1, 365093, Note_on_c, 1, 71, 127
1, 365093, Note_on_c, 1, 54, 127
1, 365144, Note_off_c, 1, 71, 0
1, 365146, Note_on_c, 1, 69, 127
1, 365197, Note_off_c, 1, 69, 0
1, 365198, Note_off_c, 1, 54, 0
1, 365200, Note_on_c, 1, 71, 127
1, 365200, Note_on_c, 1, 52, 127
1, 365251, Note_off_c, 1, 71, 0
1, 365253, Note_on_c, 1, 69, 127
1, 365304, Note_off_c, 1, 69, 0
1, 365305, Note_off_c, 1, 52, 0
1, 365307, Note_on_c, 1, 71, 127
1, 365307, Note_on_c, 1, 51, 127
1, 365358, Note_off_c, 1, 71, 0
1, 365360, Note_on_c, 1, 69, 127
1, 365411, Note_off_c, 1, 69, 0
1, 365412, Note_off_c, 1, 51, 0
1, 365414, Note_on_c, 1, 71, 127
1, 365414, Note_on_c, 1, 52, 127
1, 365465, Note_off_c, 1, 71, 0
1, 365467, Note_on_c, 1, 69, 127
1, 365518, Note_off_c, 1, 69, 0
1, 365519, Note_off_c, 1, 52, 0
1, 365521, Note_on_c, 1, 71, 127
1, 365521, Note_on_c, 1, 54, 127
1, 365572, Note_off_c, 1, 71, 0
1, 365574, Note_on_c, 1, 69, 127
1, 365625, Note_off_c, 1, 69, 0
1, 365626, Note_off_c, 1, 54, 0
1, 365628, Note_on_c, 1, 71, 127
1, 365628, Note_on_c, 1, 52, 127
1, 365679, Note_off_c, 1, 71, 0
1, 365681, Note_on_c, 1, 69, 127
1, 365732, Note_off_c, 1, 69, 0
1, 365733, Note_off_c, 1, 52, 0
1, 365735, Note_on_c, 1, 71, 127
1, 365735, Note_on_c, 1, 51, 127
1, 365786, Note_off_c, 1, 71, 0
1, 365788, Note_on_c, 1, 69, 127
1, 365839, Note_off_c, 1, 69, 0
1, 365840, Note_off_c, 1, 51, 0
1, 365841, Note_on_c, 1, 71, 127
1, 365841, Note_on_c, 1, 49, 127
1, 365892, Note_off_c, 1, 71, 0
1, 365895, Note_on_c, 1, 69, 127
1, 365946, Note_off_c, 1, 49, 0
1, 365946, Note_off_c, 1, 69, 0
1, 365948, Note_on_c, 1, 71, 127
1, 365948, Note_on_c, 1, 47, 127
1, 365999, Note_off_c, 1, 71, 0
1, 366002, Note_on_c, 1, 69, 127
1, 366053, Note_off_c, 1, 47, 0
1, 366053, Note_off_c, 1, 69, 0
1, 366055, Note_on_c, 1, 71, 127
1, 366055, Note_on_c, 1, 49, 127
1, 366106, Note_off_c, 1, 71, 0
1, 366109, Note_on_c, 1, 69, 127
1, 366160, Note_off_c, 1, 49, 0
1, 366160, Note_off_c, 1, 69, 0
1, 366162, Note_on_c, 1, 71, 127
1, 366162, Note_on_c, 1, 51, 127
1, 366213, Note_off_c, 1, 71, 0
1, 366216, Note_on_c, 1, 69, 127
1, 366267, Note_off_c, 1, 51, 0
1, 366267, Note_off_c, 1, 69, 0
1, 366269, Note_on_c, 1, 71, 127
1, 366269, Note_on_c, 1, 49, 127
1, 366320, Note_off_c, 1, 71, 0
1, 366323, Note_on_c, 1, 69, 127
1, 366374, Note_off_c, 1, 49, 0
1, 366376, Note_on_c, 1, 47, 127
1, 366481, Note_off_c, 1, 47, 0
1, 366483, Note_on_c, 1, 45, 127
1, 366588, Note_off_c, 1, 45, 0
1, 366590, Note_on_c, 1, 44, 127
1, 366695, Note_off_c, 1, 44, 0
1, 366880, Note_off_c, 1, 69, 0
1, 366911, Note_on_c, 1, 73, 127
1, 366911, Note_on_c, 1, 45, 127
1, 367016, Note_off_c, 1, 73, 0
1, 367016, Note_off_c, 1, 45, 0
1, 367018, Note_on_c, 1, 71, 127
1, 367018, Note_on_c, 1, 44, 127
1, 367123, Note_off_c, 1, 71, 0
1, 367123, Note_off_c, 1, 44, 0
1, 367124, Note_on_c, 1, 69, 127
1, 367124, Note_on_c, 1, 42, 127
1, 367229, Note_off_c, 1, 69, 0
1, 367229, Note_off_c, 1, 42, 0
1, 367231, Note_on_c, 1, 68, 127
1, 367231, Note_on_c, 1, 40, 127
1, 367336, Note_off_c, 1, 68, 0
1, 367338, Note_on_c, 1, 66, 127
1, 367443, Note_off_c, 1, 40, 0
1, 367443, Note_off_c, 1, 66, 0
1, 367445, Note_on_c, 1, 64, 127
1, 367445, Note_on_c, 1, 44, 127
1, 367550, Note_off_c, 1, 64, 0
1, 367552, Note_on_c, 1, 66, 127
1, 367657, Note_off_c, 1, 44, 0
1, 367657, Note_off_c, 1, 66, 0
1, 367659, Note_on_c, 1, 68, 127
1, 367659, Note_on_c, 1, 47, 127
1, 367764, Note_off_c, 1, 68, 0
1, 367766, Note_on_c, 1, 69, 127
1, 367871, Note_off_c, 1, 47, 0
1, 367871, Note_off_c, 1, 69, 0
1, 367873, Note_on_c, 1, 71, 127
1, 367873, Note_on_c, 1, 52, 127
1, 367978, Note_off_c, 1, 71, 0
1, 367980, Note_on_c, 1, 69, 127
1, 368085, Note_off_c, 1, 52, 0
1, 368085, Note_off_c, 1, 69, 0
1, 368087, Note_on_c, 1, 68, 127
1, 368087, Note_on_c, 1, 47, 127
1, 368192, Note_off_c, 1, 68, 0
1, 368194, Note_on_c, 1, 69, 127
1, 368299, Note_off_c, 1, 47, 0
1, 368299, Note_off_c, 1, 69, 0
1, 368301, Note_on_c, 1, 71, 127
1, 368301, Note_on_c, 1, 50, 127
1, 368406, Note_off_c, 1, 71, 0
1, 368408, Note_on_c, 1, 73, 127
1, 368513, Note_off_c, 1, 50, 0
1, 368513, Note_off_c, 1, 73, 0
1, 368514, Note_on_c, 1, 56, 127
1, 368514, Note_on_c, 1, 74, 127
1, 368619, Note_off_c, 1, 56, 0
1, 368621, Note_on_c, 1, 54, 127
1, 368726, Note_off_c, 1, 54, 0
1, 368728, Note_on_c, 1, 52, 127
1, 368758, Note_off_c, 1, 74, 0
1, 368833, Note_off_c, 1, 52, 0
1, 368835, Note_on_c, 1, 78, 127
1, 368835, Note_on_c, 1, 50, 127
1, 368940, Note_off_c, 1, 78, 0
1, 368940, Note_off_c, 1, 50, 0
1, 368942, Note_on_c, 1, 76, 127
1, 368942, Note_on_c, 1, 49, 127
1, 369047, Note_off_c, 1, 76, 0
1, 369047, Note_off_c, 1, 49, 0
1, 369049, Note_on_c, 1, 74, 127
1, 369049, Note_on_c, 1, 47, 127
1, 369154, Note_off_c, 1, 74, 0
1, 369154, Note_off_c, 1, 47, 0
1, 369156, Note_on_c, 1, 73, 127
1, 369156, Note_on_c, 1, 45, 127
1, 369261, Note_off_c, 1, 73, 0
1, 369263, Note_on_c, 1, 71, 127
1, 369368, Note_off_c, 1, 45, 0
1, 369368, Note_off_c, 1, 71, 0
1, 369370, Note_on_c, 1, 69, 127
1, 369370, Note_on_c, 1, 49, 127
1, 369475, Note_off_c, 1, 69, 0
1, 369477, Note_on_c, 1, 71, 127
1, 369582, Note_off_c, 1, 49, 0
1, 369582, Note_off_c, 1, 71, 0
1, 369584, Note_on_c, 1, 73, 127
1, 369584, Note_on_c, 1, 52, 127
1, 369689, Note_off_c, 1, 73, 0
1, 369691, Note_on_c, 1, 75, 127
1, 369796, Note_off_c, 1, 52, 0
1, 369796, Note_off_c, 1, 75, 0
1, 369797, Note_on_c, 1, 76, 127
1, 369797, Note_on_c, 1, 46, 127
1, 369902, Note_off_c, 1, 76, 0
1, 369904, Note_on_c, 1, 75, 127
1, 370009, Note_off_c, 1, 46, 0
1, 370009, Note_off_c, 1, 75, 0
1, 370011, Note_on_c, 1, 76, 127
1, 370011, Note_on_c, 1, 49, 127
1, 370116, Note_off_c, 1, 76, 0
1, 370118, Note_on_c, 1, 80, 127
1, 370223, Note_off_c, 1, 49, 0
1, 370223, Note_off_c, 1, 80, 0
1, 370225, Note_on_c, 1, 78, 127
1, 370225, Note_on_c, 1, 54, 127
1, 370330, Note_off_c, 1, 78, 0
1, 370332, Note_on_c, 1, 76, 127
1, 370437, Note_off_c, 1, 54, 0
1, 370437, Note_off_c, 1, 76, 0
1, 370439, Note_on_c, 1, 75, 127
1, 370439, Note_on_c, 1, 47, 127
1, 370544, Note_off_c, 1, 75, 0
1, 370546, Note_on_c, 1, 73, 127
1, 370651, Note_off_c, 1, 47, 0
1, 370651, Note_off_c, 1, 73, 0
1, 370653, Note_on_c, 1, 71, 127
1, 370653, Note_on_c, 1, 51, 127
1, 370758, Note_off_c, 1, 71, 0
1, 370760, Note_on_c, 1, 73, 127
1, 370865, Note_off_c, 1, 51, 0
1, 370865, Note_off_c, 1, 73, 0
1, 370867, Note_on_c, 1, 75, 127
1, 370867, Note_on_c, 1, 54, 127
1, 370972, Note_off_c, 1, 75, 0
1, 370974, Note_on_c, 1, 76, 127
1, 371079, Note_off_c, 1, 54, 0
1, 371079, Note_off_c, 1, 76, 0
1, 371081, Note_on_c, 1, 78, 127
1, 371081, Note_on_c, 1, 57, 127
1, 371186, Note_off_c, 1, 78, 0
1, 371187, Note_on_c, 1, 76, 127
1, 371292, Note_off_c, 1, 76, 0
1, 371293, Note_off_c, 1, 57, 0
1, 371294, Note_on_c, 1, 75, 127
1, 371294, Note_on_c, 1, 54, 127
1, 371399, Note_off_c, 1, 75, 0
1, 371401, Note_on_c, 1, 76, 127
1, 371506, Note_off_c, 1, 54, 0
1, 371506, Note_off_c, 1, 76, 0
1, 371508, Note_on_c, 1, 78, 127
1, 371508, Note_on_c, 1, 57, 127
1, 371613, Note_off_c, 1, 78, 0
1, 371615, Note_on_c, 1, 80, 127
1, 371720, Note_off_c, 1, 57, 0
1, 371720, Note_off_c, 1, 80, 0
1, 371722, Note_on_c, 1, 63, 127
1, 371722, Note_on_c, 1, 81, 127
1, 371827, Note_off_c, 1, 63, 0
1, 371829, Note_on_c, 1, 61, 127
1, 371934, Note_off_c, 1, 61, 0
1, 371936, Note_on_c, 1, 59, 127
1, 372041, Note_off_c, 1, 59, 0
1, 372043, Note_on_c, 1, 57, 127
1, 372148, Note_off_c, 1, 57, 0
1, 372150, Note_on_c, 1, 56, 127
1, 372255, Note_off_c, 1, 56, 0
1, 372257, Note_on_c, 1, 54, 127
1, 372361, Note_off_c, 1, 81, 0
1, 372362, Note_off_c, 1, 54, 0
1, 372364, Note_on_c, 1, 52, 127
1, 372470, Note_on_c, 1, 71, 127
1, 372575, Note_off_c, 1, 71, 0
1, 372577, Note_on_c, 1, 73, 127
1, 372682, Note_off_c, 1, 73, 0
1, 372684, Note_on_c, 1, 75, 127
1, 372789, Note_off_c, 1, 75, 0
1, 372791, Note_on_c, 1, 76, 127
1, 372896, Note_off_c, 1, 76, 0
1, 372898, Note_on_c, 1, 78, 127
1, 373003, Note_off_c, 1, 78, 0
1, 373005, Note_on_c, 1, 80, 127
1, 373076, Note_off_c, 1, 52, 0
1, 373219, Note_on_c, 1, 54, 127
1, 373324, Note_off_c, 1, 54, 0
1, 373326, Note_on_c, 1, 56, 127
1, 373431, Note_off_c, 1, 56, 0
1, 373433, Note_on_c, 1, 57, 127
1, 373538, Note_off_c, 1, 57, 0
1, 373540, Note_on_c, 1, 59, 127
1, 373645, Note_off_c, 1, 59, 0
1, 373647, Note_on_c, 1, 61, 127
1, 373751, Note_off_c, 1, 80, 0
1, 373754, Note_on_c, 1, 69, 127
1, 373859, Note_off_c, 1, 69, 0
1, 374069, Note_off_c, 1, 61, 0
1, 374074, Note_on_c, 1, 75, 127
1, 374179, Note_off_c, 1, 75, 0
1, 374181, Note_on_c, 1, 76, 127
1, 374286, Note_off_c, 1, 76, 0
1, 374288, Note_on_c, 1, 78, 127
1, 374288, Note_on_c, 1, 63, 127
1, 374393, Note_off_c, 1, 78, 0
1, 374395, Note_on_c, 1, 76, 127
1, 374500, Note_off_c, 1, 76, 0
1, 374502, Note_on_c, 1, 75, 127
1, 374607, Note_off_c, 1, 75, 0
1, 374609, Note_on_c, 1, 73, 127
1, 374710, Note_off_c, 1, 63, 0
1, 374714, Note_off_c, 1, 73, 0
1, 374716, Note_on_c, 1, 71, 127
1, 374821, Note_off_c, 1, 71, 0
1, 374823, Note_on_c, 1, 69, 127
1, 374928, Note_off_c, 1, 69, 0
1, 374930, Note_on_c, 1, 68, 127
1, 374930, Note_on_c, 1, 64, 127
1, 375035, Note_off_c, 1, 68, 0
1, 375037, Note_on_c, 1, 76, 127
1, 375142, Note_off_c, 1, 64, 0
1, 375142, Note_off_c, 1, 76, 0
1, 375143, Note_on_c, 1, 75, 127
1, 375143, Note_on_c, 1, 56, 127
1, 375248, Note_off_c, 1, 75, 0
1, 375250, Note_on_c, 1, 73, 127
1, 375355, Note_off_c, 1, 56, 0
1, 375355, Note_off_c, 1, 73, 0
1, 375357, Note_on_c, 1, 71, 127
1, 375357, Note_on_c, 1, 57, 127
1, 375462, Note_off_c, 1, 71, 0
1, 375464, Note_on_c, 1, 69, 127
1, 375569, Note_off_c, 1, 57, 0
1, 375569, Note_off_c, 1, 69, 0
1, 375571, Note_on_c, 1, 68, 127
1, 375571, Note_on_c, 1, 59, 127
1, 375783, Note_off_c, 1, 68, 0
1, 375783, Note_off_c, 1, 59, 0
1, 375785, Note_on_c, 1, 69, 127
1, 375785, Note_on_c, 1, 57, 127
1, 375997, Note_off_c, 1, 69, 0
1, 375997, Note_off_c, 1, 57, 0
1, 375999, Note_on_c, 1, 66, 127
1, 375999, Note_on_c, 1, 59, 127
1, 376211, Note_off_c, 1, 66, 0
1, 376211, Note_off_c, 1, 59, 0
1, 376213, Note_on_c, 1, 52, 127
1, 376213, Note_on_c, 1, 64, 127
1, 376320, Note_on_c, 1, 68, 127
1, 376426, Note_off_c, 1, 68, 0
1, 376428, Note_on_c, 1, 71, 127
1, 376534, Note_off_c, 1, 71, 0
1, 376537, Note_on_c, 1, 76, 127
1, 376640, Note_off_c, 1, 52, 0
1, 376640, Note_off_c, 1, 64, 0
1, 376642, Note_off_c, 1, 76, 0
1, 376644, Note_on_c, 1, 71, 127
1, 376750, Note_off_c, 1, 71, 0
1, 376752, Note_on_c, 1, 68, 127
1, 376858, Note_off_c, 1, 68, 0
1, 376861, Note_on_c, 1, 51, 127
1, 376861, Note_on_c, 1, 64, 127
1, 376969, Note_on_c, 1, 68, 127
1, 377075, Note_off_c, 1, 68, 0
1, 377078, Note_on_c, 1, 71, 127
1, 377184, Note_off_c, 1, 71, 0
1, 377186, Note_on_c, 1, 76, 127
1, 377290, Note_off_c, 1, 51, 0
1, 377290, Note_off_c, 1, 64, 0
1, 377292, Note_off_c, 1, 76, 0
1, 377295, Note_on_c, 1, 71, 127
1, 377401, Note_off_c, 1, 71, 0
1, 377403, Note_on_c, 1, 68, 127
1, 377509, Note_off_c, 1, 68, 0
1, 377512, Note_on_c, 1, 49, 127
1, 377512, Note_on_c, 1, 64, 127
1, 377618, Note_off_c, 1, 49, 0
1, 377620, Note_on_c, 1, 52, 127
1, 377726, Note_off_c, 1, 52, 0
1, 377729, Note_on_c, 1, 56, 127
1, 377835, Note_off_c, 1, 56, 0
1, 377838, Note_on_c, 1, 61, 127
1, 377944, Note_off_c, 1, 61, 0
1, 378163, Note_on_c, 1, 47, 127
1, 378269, Note_off_c, 1, 47, 0
1, 378489, Note_on_c, 1, 59, 127
1, 378595, Note_off_c, 1, 59, 0
1, 378812, Note_off_c, 1, 64, 0
1, 378814, Note_on_c, 1, 58, 127
1, 378923, Note_on_c, 1, 67, 127
1, 379029, Note_off_c, 1, 67, 0
1, 379031, Note_on_c, 1, 70, 127
1, 379137, Note_off_c, 1, 70, 0
1, 379140, Note_on_c, 1, 73, 127
1, 379243, Note_off_c, 1, 58, 0
1, 379245, Note_off_c, 1, 73, 0
1, 379247, Note_on_c, 1, 70, 127
1, 379353, Note_off_c, 1, 70, 0
1, 379355, Note_on_c, 1, 67, 127
1, 379461, Note_off_c, 1, 67, 0
1, 379464, Note_on_c, 1, 54, 127
1, 379464, Note_on_c, 1, 64, 127
1, 379573, Note_on_c, 1, 67, 127
1, 379679, Note_off_c, 1, 67, 0
1, 379681, Note_on_c, 1, 70, 127
1, 379787, Note_off_c, 1, 70, 0
1, 379790, Note_on_c, 1, 73, 127
1, 379893, Note_off_c, 1, 54, 0
1, 379893, Note_off_c, 1, 64, 0
1, 379896, Note_off_c, 1, 73, 0
1, 379898, Note_on_c, 1, 70, 127
1, 380004, Note_off_c, 1, 70, 0
1, 380007, Note_on_c, 1, 67, 127
1, 380104, Note_off_c, 1, 67, 0
1, 380115, Note_on_c, 1, 76, 127
1, 380115, Note_on_c, 1, 47, 127
1, 380223, Note_off_c, 1, 76, 0
1, 380225, Note_on_c, 1, 75, 127
1, 380333, Note_off_c, 1, 75, 0
1, 380335, Note_off_c, 1, 47, 0
1, 380337, Note_on_c, 1, 73, 127
1, 380337, Note_on_c, 1, 52, 127
1, 380445, Note_off_c, 1, 73, 0
1, 380449, Note_on_c, 1, 71, 127
1, 380557, Note_off_c, 1, 52, 0
1, 380557, Note_off_c, 1, 71, 0
1, 380561, Note_on_c, 1, 81, 127
1, 380561, Note_on_c, 1, 49, 127
1, 380672, Note_off_c, 1, 81, 0
1, 380676, Note_on_c, 1, 80, 127
1, 380787, Note_off_c, 1, 80, 0
1, 380789, Note_off_c, 1, 49, 0
1, 380791, Note_on_c, 1, 78, 127
1, 380791, Note_on_c, 1, 44, 127
1, 380902, Note_off_c, 1, 78, 0
1, 380907, Note_on_c, 1, 76, 127
1, 381018, Note_off_c, 1, 76, 0
1, 381021, Note_off_c, 1, 44, 0
1, 381024, Note_on_c, 1, 83, 127
1, 381024, Note_on_c, 1, 45, 127
1, 381139, Note_off_c, 1, 83, 0
1, 381142, Note_on_c, 1, 81, 127
1, 381257, Note_off_c, 1, 81, 0
1, 381258, Note_off_c, 1, 45, 0
1, 381261, Note_on_c, 1, 80, 127
1, 381261, Note_on_c, 1, 47, 127
1, 381376, Note_off_c, 1, 80, 0
1, 381380, Note_on_c, 1, 78, 127
1, 381495, Note_off_c, 1, 78, 0
1, 381497, Note_off_c, 1, 47, 0
1, 381505, Note_on_c, 1, 40, 127
1, 381505, Note_on_c, 1, 76, 127
1, 381739, Note_off_c, 1, 40, 0
1, 381771, Note_on_c, 1, 44, 127
1, 382005, Note_off_c, 1, 44, 0
1, 382043, Note_on_c, 1, 47, 127
1, 382277, Note_off_c, 1, 47, 0
1, 382337, Note_on_c, 1, 52, 127
1, 384505, Note_off_c, 1, 76, 0
1, 384537, Note_off_c, 1, 52, 0
1, 384537, End_track
0, 0, End_of_file