0, 0, Header, 1, 1, 480
1, 0, Start_track
1, 0, Title_t, "Test"
1, 0, Tempo, 500000
1, 0, Instrument_name_t, "Church Organ"
1, 32, Note_on_c, 1, 38, 127
1, 32, Note_on_c, 1, 50, 127
1, 213, Note_on_c, 1, 62, 127
1, 302, Note_off_c, 1, 62, 0
1, 304, Note_on_c, 1, 64, 127
1, 393, Note_off_c, 1, 64, 0
1, 395, Note_on_c, 1, 66, 127
1, 484, Note_off_c, 1, 66, 0
1, 486, Note_on_c, 1, 67, 127
1, 575, Note_off_c, 1, 67, 0
1, 577, Note_on_c, 1, 69, 127
1, 939, Note_off_c, 1, 69, 0
1, 1122, Note_on_c, 1, 74, 127
1, 1484, Note_off_c, 1, 74, 0
1, 1667, Note_on_c, 1, 78, 127
1, 2029, Note_off_c, 1, 78, 0
1, 2204, Note_off_c, 1, 38, 0
1, 2204, Note_off_c, 1, 50, 0
1, 2213, Note_on_c, 1, 81, 127
1, 2756, Note_off_c, 1, 81, 0
1, 2758, Note_on_c, 1, 62, 127
1, 2758, Note_on_c, 1, 81, 127
1, 2758, Note_on_c, 1, 78, 127
1, 3301, Note_off_c, 1, 62, 0
1, 3301, Note_off_c, 1, 81, 0
1, 3301, Note_off_c, 1, 78, 0
1, 3303, Note_on_c, 1, 83, 127
1, 3303, Note_on_c, 1, 79, 127
1, 3303, Note_on_c, 1, 69, 127
1, 3388, Note_on_c, 1, 81, 127
1, 3388, Note_on_c, 1, 78, 127
1, 3392, Note_off_c, 1, 83, 0
1, 3392, Note_off_c, 1, 79, 0
1, 3477, Note_off_c, 1, 81, 0
1, 3477, Note_off_c, 1, 78, 0
1, 3667, Note_on_c, 1, 76, 127
1, 3847, Note_off_c, 1, 76, 0
1, 3848, Note_on_c, 1, 57, 127
1, 4212, Note_on_c, 1, 74, 127
1, 4391, Note_off_c, 1, 57, 0
1, 4392, Note_off_c, 1, 69, 0
1, 4392, Note_off_c, 1, 74, 0
1, 4394, Note_on_c, 1, 62, 127
1, 4394, Note_on_c, 1, 78, 127
1, 4394, Note_on_c, 1, 74, 127
1, 4576, Note_on_c, 1, 50, 127
1, 4656, Note_off_c, 1, 62, 0
1, 4665, Note_off_c, 1, 50, 0
1, 4666, Note_on_c, 1, 52, 127
1, 4755, Note_off_c, 1, 52, 0
1, 4757, Note_on_c, 1, 54, 127
1, 4846, Note_off_c, 1, 54, 0
1, 4848, Note_on_c, 1, 55, 127
1, 4937, Note_off_c, 1, 55, 0
1, 4939, Note_on_c, 1, 57, 127
1, 5166, Note_off_c, 1, 57, 0
1, 5483, Note_off_c, 1, 78, 0
1, 5483, Note_off_c, 1, 74, 0
1, 5848, Note_on_c, 1, 62, 127
1, 6030, Note_on_c, 1, 66, 127
1, 6103, Note_off_c, 1, 62, 0
1, 6285, Note_off_c, 1, 66, 0
1, 6393, Note_on_c, 1, 66, 127
1, 6573, Note_off_c, 1, 66, 0
1, 6575, Note_on_c, 1, 69, 127
1, 7118, Note_off_c, 1, 69, 0
1, 7120, Note_on_c, 1, 50, 127
1, 7120, Note_on_c, 1, 69, 127
1, 7120, Note_on_c, 1, 78, 127
1, 7663, Note_off_c, 1, 50, 0
1, 7663, Note_off_c, 1, 69, 0
1, 7663, Note_off_c, 1, 78, 0
1, 7665, Note_on_c, 1, 79, 127
1, 7665, Note_on_c, 1, 69, 127
1, 7665, Note_on_c, 1, 57, 127
1, 7751, Note_on_c, 1, 78, 127
1, 7754, Note_off_c, 1, 79, 0
1, 7840, Note_off_c, 1, 78, 0
1, 8027, Note_off_c, 1, 69, 0
1, 8029, Note_on_c, 1, 67, 127
1, 8029, Note_on_c, 1, 76, 127
1, 8209, Note_off_c, 1, 67, 0
1, 8209, Note_off_c, 1, 76, 0
1, 8211, Note_on_c, 1, 45, 127
1, 8574, Note_on_c, 1, 66, 127
1, 8574, Note_on_c, 1, 74, 127
1, 8754, Note_off_c, 1, 57, 0
1, 8754, Note_off_c, 1, 45, 0
1, 8754, Note_off_c, 1, 66, 0
1, 8754, Note_off_c, 1, 74, 0
1, 8756, Note_on_c, 1, 74, 127
1, 8756, Note_on_c, 1, 66, 127
1, 8756, Note_on_c, 1, 50, 127
1, 8936, Note_off_c, 1, 74, 0
1, 8936, Note_off_c, 1, 66, 0
1, 9029, Note_on_c, 1, 64, 127
1, 9118, Note_off_c, 1, 64, 0
1, 9120, Note_on_c, 1, 62, 127
1, 9120, Note_on_c, 1, 38, 127
1, 9209, Note_off_c, 1, 62, 0
1, 9210, Note_on_c, 1, 61, 127
1, 9295, Note_off_c, 1, 50, 0
1, 9299, Note_off_c, 1, 61, 0
1, 9300, Note_off_c, 1, 38, 0
1, 9301, Note_on_c, 1, 59, 127
1, 9301, Note_on_c, 1, 50, 127
1, 9481, Note_off_c, 1, 59, 0
1, 9483, Note_on_c, 1, 62, 127
1, 9663, Note_off_c, 1, 62, 0
1, 9753, Note_off_c, 1, 50, 0
1, 9847, Note_on_c, 1, 56, 127
1, 9847, Note_on_c, 1, 50, 127
1, 10028, Note_on_c, 1, 64, 127
1, 10117, Note_off_c, 1, 64, 0
1, 10119, Note_on_c, 1, 66, 127
1, 10208, Note_off_c, 1, 66, 0
1, 10210, Note_on_c, 1, 68, 127
1, 10299, Note_off_c, 1, 68, 0
1, 10301, Note_on_c, 1, 69, 127
1, 10386, Note_off_c, 1, 56, 0
1, 10390, Note_off_c, 1, 69, 0
1, 10392, Note_on_c, 1, 71, 127
1, 10572, Note_off_c, 1, 50, 0
1, 10574, Note_on_c, 1, 52, 127
1, 10663, Note_off_c, 1, 52, 0
1, 10754, Note_off_c, 1, 71, 0
1, 10755, Note_on_c, 1, 49, 127
1, 10755, Note_on_c, 1, 71, 127
1, 10844, Note_off_c, 1, 49, 0
1, 10846, Note_on_c, 1, 47, 127
1, 10935, Note_off_c, 1, 71, 0
1, 10935, Note_off_c, 1, 47, 0
1, 10937, Note_on_c, 1, 76, 127
1, 10937, Note_on_c, 1, 49, 127
1, 11119, Note_on_c, 1, 64, 127
1, 11203, Note_off_c, 1, 76, 0
1, 11208, Note_off_c, 1, 64, 0
1, 11210, Note_on_c, 1, 62, 127
1, 11299, Note_off_c, 1, 62, 0
1, 11301, Note_on_c, 1, 61, 127
1, 11301, Note_on_c, 1, 37, 127
1, 11390, Note_off_c, 1, 61, 0
1, 11392, Note_on_c, 1, 59, 127
1, 11476, Note_off_c, 1, 49, 0
1, 11481, Note_off_c, 1, 37, 0
1, 11481, Note_off_c, 1, 59, 0
1, 11482, Note_on_c, 1, 57, 127
1, 11482, Note_on_c, 1, 49, 127
1, 11662, Note_off_c, 1, 57, 0
1, 11664, Note_on_c, 1, 61, 127
1, 11844, Note_off_c, 1, 61, 0
1, 11934, Note_off_c, 1, 49, 0
1, 12028, Note_on_c, 1, 54, 127
1, 12028, Note_on_c, 1, 49, 127
1, 12209, Note_on_c, 1, 62, 127
1, 12298, Note_off_c, 1, 62, 0
1, 12300, Note_on_c, 1, 64, 127
1, 12389, Note_off_c, 1, 64, 0
1, 12391, Note_on_c, 1, 66, 127
1, 12480, Note_off_c, 1, 66, 0
1, 12482, Note_on_c, 1, 68, 127
1, 12567, Note_off_c, 1, 54, 0
1, 12571, Note_off_c, 1, 68, 0
1, 12573, Note_on_c, 1, 69, 127
1, 12753, Note_off_c, 1, 49, 0
1, 12755, Note_on_c, 1, 50, 127
1, 12844, Note_off_c, 1, 50, 0
1, 12935, Note_off_c, 1, 69, 0
1, 12936, Note_on_c, 1, 47, 127
1, 12936, Note_on_c, 1, 69, 127
1, 13025, Note_off_c, 1, 47, 0
1, 13027, Note_on_c, 1, 45, 127
1, 13116, Note_off_c, 1, 69, 0
1, 13116, Note_off_c, 1, 45, 0
1, 13118, Note_on_c, 1, 47, 127
1, 13118, Note_on_c, 1, 74, 127
1, 13298, Note_off_c, 1, 47, 0
1, 13300, Note_on_c, 1, 54, 127
1, 13389, Note_off_c, 1, 54, 0
1, 13391, Note_on_c, 1, 52, 127
1, 13480, Note_off_c, 1, 52, 0
1, 13482, Note_on_c, 1, 50, 127
1, 13482, Note_on_c, 1, 66, 127
1, 13571, Note_off_c, 1, 50, 0
1, 13573, Note_on_c, 1, 49, 127
1, 13657, Note_off_c, 1, 74, 0
1, 13662, Note_off_c, 1, 66, 0
1, 13662, Note_off_c, 1, 49, 0
1, 13664, Note_on_c, 1, 47, 127
1, 13664, Note_on_c, 1, 66, 127
1, 13664, Note_on_c, 1, 74, 127
1, 13844, Note_off_c, 1, 47, 0
1, 13845, Note_on_c, 1, 50, 127
1, 14025, Note_off_c, 1, 50, 0
1, 14116, Note_off_c, 1, 66, 0
1, 14116, Note_off_c, 1, 74, 0
1, 14209, Note_on_c, 1, 44, 127
1, 14209, Note_on_c, 1, 64, 127
1, 14209, Note_on_c, 1, 74, 127
1, 14389, Note_off_c, 1, 44, 0
1, 14391, Note_on_c, 1, 47, 127
1, 14571, Note_off_c, 1, 47, 0
1, 14754, Note_on_c, 1, 40, 127
1, 14934, Note_off_c, 1, 64, 0
1, 14934, Note_off_c, 1, 74, 0
1, 14934, Note_off_c, 1, 40, 0
1, 14936, Note_on_c, 1, 76, 127
1, 14936, Note_on_c, 1, 44, 127
1, 15025, Note_off_c, 1, 76, 0
1, 15027, Note_on_c, 1, 74, 127
1, 15116, Note_off_c, 1, 44, 0
1, 15116, Note_off_c, 1, 74, 0
1, 15118, Note_on_c, 1, 73, 127
1, 15118, Note_on_c, 1, 40, 127
1, 15207, Note_off_c, 1, 73, 0
1, 15208, Note_on_c, 1, 71, 127
1, 15297, Note_off_c, 1, 71, 0
1, 15298, Note_off_c, 1, 40, 0
1, 15299, Note_on_c, 1, 73, 127
1, 15299, Note_on_c, 1, 45, 127
1, 15356, Note_on_c, 1, 71, 127
1, 15372, Note_off_c, 1, 73, 0
1, 15429, Note_off_c, 1, 71, 0
1, 15479, Note_off_c, 1, 45, 0
1, 15481, Note_on_c, 1, 69, 127
1, 15481, Note_on_c, 1, 49, 127
1, 15570, Note_off_c, 1, 69, 0
1, 15661, Note_off_c, 1, 49, 0
1, 15663, Note_on_c, 1, 73, 127
1, 15663, Note_on_c, 1, 45, 127
1, 15752, Note_off_c, 1, 73, 0
1, 15754, Note_on_c, 1, 74, 127
1, 15843, Note_off_c, 1, 45, 0
1, 15843, Note_off_c, 1, 74, 0
1, 15845, Note_on_c, 1, 42, 127
1, 15845, Note_on_c, 1, 76, 127
1, 16025, Note_off_c, 1, 42, 0
1, 16025, Note_off_c, 1, 76, 0
1, 16026, Note_on_c, 1, 74, 127
1, 16026, Note_on_c, 1, 45, 127
1, 16115, Note_off_c, 1, 74, 0
1, 16117, Note_on_c, 1, 73, 127
1, 16206, Note_off_c, 1, 45, 0
1, 16206, Note_off_c, 1, 73, 0
1, 16208, Note_on_c, 1, 71, 127
1, 16208, Note_on_c, 1, 42, 127
1, 16297, Note_off_c, 1, 71, 0
1, 16299, Note_on_c, 1, 69, 127
1, 16388, Note_off_c, 1, 42, 0
1, 16388, Note_off_c, 1, 69, 0
1, 16390, Note_on_c, 1, 47, 127
1, 16390, Note_on_c, 1, 74, 127
1, 16570, Note_off_c, 1, 47, 0
1, 16570, Note_off_c, 1, 74, 0
1, 16572, Note_on_c, 1, 71, 127
1, 16572, Note_on_c, 1, 50, 127
1, 16661, Note_off_c, 1, 71, 0
1, 16663, Note_on_c, 1, 73, 127
1, 16752, Note_off_c, 1, 50, 0
1, 16752, Note_off_c, 1, 73, 0
1, 16753, Note_on_c, 1, 74, 127
1, 16753, Note_on_c, 1, 47, 127
1, 16842, Note_off_c, 1, 74, 0
1, 16844, Note_on_c, 1, 76, 127
1, 16933, Note_off_c, 1, 47, 0
1, 16933, Note_off_c, 1, 76, 0
1, 16935, Note_on_c, 1, 44, 127
1, 16935, Note_on_c, 1, 78, 127
1, 17115, Note_off_c, 1, 44, 0
1, 17115, Note_off_c, 1, 78, 0
1, 17117, Note_on_c, 1, 76, 127
1, 17117, Note_on_c, 1, 47, 127
1, 17206, Note_off_c, 1, 76, 0
1, 17208, Note_on_c, 1, 74, 127
1, 17297, Note_off_c, 1, 47, 0
1, 17297, Note_off_c, 1, 74, 0
1, 17299, Note_on_c, 1, 73, 127
1, 17299, Note_on_c, 1, 44, 127
1, 17388, Note_off_c, 1, 73, 0
1, 17390, Note_on_c, 1, 71, 127
1, 17479, Note_off_c, 1, 44, 0
1, 17479, Note_off_c, 1, 71, 0
1, 17480, Note_on_c, 1, 49, 127
1, 17480, Note_on_c, 1, 76, 127
1, 17660, Note_off_c, 1, 49, 0
1, 17662, Note_on_c, 1, 57, 127
1, 17751, Note_off_c, 1, 57, 0
1, 17753, Note_on_c, 1, 59, 127
1, 17842, Note_off_c, 1, 59, 0
1, 17844, Note_on_c, 1, 61, 127
1, 17933, Note_off_c, 1, 61, 0
1, 17935, Note_on_c, 1, 62, 127
1, 18024, Note_off_c, 1, 62, 0
1, 18026, Note_on_c, 1, 64, 127
1, 18206, Note_off_c, 1, 64, 0
1, 18571, Note_on_c, 1, 50, 127
1, 18751, Note_off_c, 1, 50, 0
1, 19113, Note_off_c, 1, 76, 0
1, 19116, Note_on_c, 1, 66, 127
1, 19116, Note_on_c, 1, 74, 127
1, 19298, Note_on_c, 1, 64, 127
1, 19387, Note_off_c, 1, 64, 0
1, 19389, Note_on_c, 1, 62, 127
1, 19478, Note_off_c, 1, 62, 0
1, 19480, Note_on_c, 1, 61, 127
1, 19569, Note_off_c, 1, 61, 0
1, 19571, Note_on_c, 1, 59, 127
1, 19659, Note_off_c, 1, 66, 0
1, 19660, Note_off_c, 1, 59, 0
1, 19662, Note_on_c, 1, 68, 127
1, 19662, Note_on_c, 1, 52, 127
1, 19842, Note_off_c, 1, 68, 0
1, 20024, Note_off_c, 1, 52, 0
1, 20025, Note_on_c, 1, 40, 127
1, 20116, Note_on_c, 1, 69, 127
1, 20205, Note_off_c, 1, 74, 0
1, 20205, Note_off_c, 1, 40, 0
1, 20205, Note_off_c, 1, 69, 0
1, 20207, Note_on_c, 1, 71, 127
1, 20207, Note_on_c, 1, 40, 127
1, 20207, Note_on_c, 1, 74, 127
1, 20387, Note_off_c, 1, 71, 0
1, 20389, Note_on_c, 1, 68, 127
1, 20569, Note_off_c, 1, 68, 0
1, 20659, Note_off_c, 1, 40, 0
1, 20746, Note_off_c, 1, 74, 0
1, 20752, Note_on_c, 1, 74, 127
1, 20752, Note_on_c, 1, 80, 127
1, 20752, Note_on_c, 1, 40, 127
1, 20932, Note_off_c, 1, 74, 0
1, 20934, Note_on_c, 1, 71, 127
1, 21114, Note_off_c, 1, 71, 0
1, 21291, Note_off_c, 1, 80, 0
1, 21297, Note_on_c, 1, 83, 127
1, 21490, Note_off_c, 1, 40, 0
1, 21570, Note_on_c, 1, 47, 127
1, 21659, Note_off_c, 1, 47, 0
1, 21661, Note_on_c, 1, 49, 127
1, 21750, Note_off_c, 1, 49, 0
1, 21752, Note_on_c, 1, 50, 127
1, 21836, Note_off_c, 1, 83, 0
1, 21841, Note_off_c, 1, 50, 0
1, 21843, Note_on_c, 1, 52, 127
1, 21843, Note_on_c, 1, 73, 127
1, 22024, Note_on_c, 1, 81, 127
1, 22113, Note_off_c, 1, 81, 0
1, 22115, Note_on_c, 1, 80, 127
1, 22204, Note_off_c, 1, 80, 0
1, 22205, Note_off_c, 1, 52, 0
1, 22206, Note_on_c, 1, 78, 127
1, 22206, Note_on_c, 1, 40, 127
1, 22295, Note_off_c, 1, 78, 0
1, 22297, Note_on_c, 1, 76, 127
1, 22382, Note_off_c, 1, 73, 0
1, 22386, Note_off_c, 1, 40, 0
1, 22386, Note_off_c, 1, 76, 0
1, 22388, Note_on_c, 1, 75, 127
1, 22388, Note_on_c, 1, 40, 127
1, 22388, Note_on_c, 1, 69, 127
1, 22568, Note_off_c, 1, 75, 0
1, 22570, Note_on_c, 1, 78, 127
1, 22750, Note_off_c, 1, 78, 0
1, 22840, Note_off_c, 1, 40, 0
1, 22927, Note_off_c, 1, 69, 0
1, 22933, Note_on_c, 1, 69, 127
1, 22933, Note_on_c, 1, 66, 127
1, 22933, Note_on_c, 1, 40, 127
1, 23113, Note_off_c, 1, 69, 0
1, 23115, Note_on_c, 1, 75, 127
1, 23295, Note_off_c, 1, 75, 0
1, 23472, Note_off_c, 1, 66, 0
1, 23479, Note_on_c, 1, 63, 127
1, 24018, Note_off_c, 1, 63, 0
1, 24022, Note_off_c, 1, 40, 0
1, 24024, Note_on_c, 1, 64, 127
1, 24024, Note_on_c, 1, 68, 127
1, 24204, Note_off_c, 1, 64, 0
1, 24206, Note_on_c, 1, 66, 127
1, 24386, Note_off_c, 1, 68, 0
1, 24386, Note_off_c, 1, 66, 0
1, 24387, Note_on_c, 1, 52, 127
1, 24387, Note_on_c, 1, 64, 127
1, 24478, Note_on_c, 1, 62, 127
1, 24567, Note_off_c, 1, 52, 0
1, 24567, Note_off_c, 1, 64, 0
1, 24567, Note_off_c, 1, 62, 0
1, 24569, Note_on_c, 1, 54, 127
1, 24569, Note_on_c, 1, 61, 127
1, 24569, Note_on_c, 1, 69, 127
1, 24749, Note_off_c, 1, 54, 0
1, 24751, Note_on_c, 1, 52, 127
1, 24931, Note_off_c, 1, 61, 0
1, 24931, Note_off_c, 1, 69, 0
1, 24931, Note_off_c, 1, 52, 0
1, 24933, Note_on_c, 1, 50, 127
1, 24933, Note_on_c, 1, 69, 127
1, 24933, Note_on_c, 1, 74, 127
1, 25113, Note_off_c, 1, 50, 0
1, 25113, Note_off_c, 1, 69, 0
1, 25113, Note_off_c, 1, 74, 0
1, 25114, Note_on_c, 1, 73, 127
1, 25114, Note_on_c, 1, 69, 127
1, 25114, Note_on_c, 1, 52, 127
1, 25385, Note_off_c, 1, 73, 0
1, 25385, Note_off_c, 1, 69, 0
1, 25387, Note_on_c, 1, 71, 127
1, 25476, Note_off_c, 1, 71, 0
1, 25660, Note_on_c, 1, 68, 127
1, 25660, Note_on_c, 1, 40, 127
1, 26199, Note_off_c, 1, 68, 0
1, 26203, Note_off_c, 1, 52, 0
1, 26203, Note_off_c, 1, 40, 0
1, 26205, Note_on_c, 1, 69, 127
1, 26205, Note_on_c, 1, 45, 127
1, 26385, Note_off_c, 1, 69, 0
1, 26387, Note_on_c, 1, 73, 127
1, 26476, Note_off_c, 1, 73, 0
1, 26478, Note_on_c, 1, 71, 127
1, 26567, Note_off_c, 1, 45, 0
1, 26567, Note_off_c, 1, 71, 0
1, 26568, Note_on_c, 1, 69, 127
1, 26568, Note_on_c, 1, 52, 127
1, 26657, Note_off_c, 1, 69, 0
1, 26659, Note_on_c, 1, 68, 127
1, 26748, Note_off_c, 1, 52, 0
1, 26748, Note_off_c, 1, 68, 0
1, 26750, Note_on_c, 1, 57, 127
1, 26750, Note_on_c, 1, 66, 127
1, 26839, Note_off_c, 1, 57, 0
1, 26841, Note_on_c, 1, 56, 127
1, 26930, Note_off_c, 1, 66, 0
1, 26930, Note_off_c, 1, 56, 0
1, 26932, Note_on_c, 1, 69, 127
1, 26932, Note_on_c, 1, 57, 127
1, 27021, Note_off_c, 1, 69, 0
1, 27023, Note_on_c, 1, 68, 127
1, 27112, Note_off_c, 1, 68, 0
1, 27114, Note_on_c, 1, 66, 127
1, 27203, Note_off_c, 1, 66, 0
1, 27205, Note_on_c, 1, 64, 127
1, 27294, Note_off_c, 1, 64, 0
1, 27296, Note_on_c, 1, 63, 127
1, 27475, Note_off_c, 1, 57, 0
1, 27477, Note_on_c, 1, 59, 127
1, 27566, Note_off_c, 1, 59, 0
1, 27659, Note_on_c, 1, 56, 127
1, 27659, Note_on_c, 1, 71, 127
1, 27748, Note_off_c, 1, 56, 0
1, 27750, Note_on_c, 1, 54, 127
1, 27835, Note_off_c, 1, 63, 0
1, 27839, Note_off_c, 1, 71, 0
1, 27839, Note_off_c, 1, 54, 0
1, 27841, Note_on_c, 1, 53, 127
1, 27841, Note_on_c, 1, 71, 127
1, 28021, Note_off_c, 1, 53, 0
1, 28023, Note_on_c, 1, 54, 127
1, 28023, Note_on_c, 1, 68, 127
1, 28112, Note_off_c, 1, 54, 0
1, 28203, Note_off_c, 1, 68, 0
1, 28204, Note_on_c, 1, 51, 127
1, 28204, Note_on_c, 1, 65, 127
1, 28293, Note_off_c, 1, 51, 0
1, 28295, Note_on_c, 1, 49, 127
1, 28384, Note_off_c, 1, 65, 0
1, 28384, Note_off_c, 1, 49, 0
1, 28386, Note_on_c, 1, 61, 127
1, 28566, Note_off_c, 1, 71, 0
1, 28568, Note_on_c, 1, 69, 127
1, 28657, Note_off_c, 1, 69, 0
1, 28750, Note_on_c, 1, 66, 127
1, 28750, Note_on_c, 1, 42, 127
1, 28839, Note_off_c, 1, 66, 0
1, 28840, Note_on_c, 1, 64, 127
1, 28925, Note_off_c, 1, 61, 0
1, 28929, Note_off_c, 1, 64, 0
1, 28930, Note_off_c, 1, 42, 0
1, 28931, Note_on_c, 1, 54, 127
1, 28931, Note_on_c, 1, 62, 127
1, 29020, Note_off_c, 1, 54, 0
1, 29022, Note_on_c, 1, 52, 127
1, 29111, Note_off_c, 1, 62, 0
1, 29111, Note_off_c, 1, 52, 0
1, 29113, Note_on_c, 1, 66, 127
1, 29113, Note_on_c, 1, 54, 127
1, 29202, Note_off_c, 1, 66, 0
1, 29204, Note_on_c, 1, 64, 127
1, 29293, Note_off_c, 1, 64, 0
1, 29295, Note_on_c, 1, 62, 127
1, 29384, Note_off_c, 1, 62, 0
1, 29386, Note_on_c, 1, 61, 127
1, 29475, Note_off_c, 1, 61, 0
1, 29477, Note_on_c, 1, 59, 127
1, 29656, Note_off_c, 1, 54, 0
1, 29658, Note_on_c, 1, 55, 127
1, 29747, Note_off_c, 1, 55, 0
1, 29840, Note_on_c, 1, 52, 127
1, 29840, Note_on_c, 1, 67, 127
1, 29929, Note_off_c, 1, 52, 0
1, 29931, Note_on_c, 1, 50, 127
1, 30016, Note_off_c, 1, 59, 0
1, 30020, Note_off_c, 1, 67, 0
1, 30020, Note_off_c, 1, 50, 0
1, 30022, Note_on_c, 1, 49, 127
1, 30022, Note_on_c, 1, 67, 127
1, 30202, Note_off_c, 1, 49, 0
1, 30204, Note_on_c, 1, 50, 127
1, 30204, Note_on_c, 1, 64, 127
1, 30293, Note_off_c, 1, 50, 0
1, 30384, Note_off_c, 1, 64, 0
1, 30385, Note_on_c, 1, 47, 127
1, 30385, Note_on_c, 1, 61, 127
1, 30474, Note_off_c, 1, 47, 0
1, 30476, Note_on_c, 1, 45, 127
1, 30565, Note_off_c, 1, 61, 0
1, 30565, Note_off_c, 1, 45, 0
1, 30567, Note_on_c, 1, 57, 127
1, 30747, Note_off_c, 1, 67, 0
1, 30749, Note_on_c, 1, 66, 127
1, 30838, Note_off_c, 1, 66, 0
1, 30931, Note_on_c, 1, 62, 127
1, 30931, Note_on_c, 1, 38, 127
1, 31020, Note_off_c, 1, 62, 0
1, 31106, Note_off_c, 1, 57, 0
1, 31111, Note_off_c, 1, 38, 0
1, 31112, Note_on_c, 1, 50, 127
1, 31112, Note_on_c, 1, 59, 127
1, 31201, Note_off_c, 1, 50, 0
1, 31203, Note_on_c, 1, 49, 127
1, 31292, Note_off_c, 1, 59, 0
1, 31292, Note_off_c, 1, 49, 0
1, 31294, Note_on_c, 1, 62, 127
1, 31294, Note_on_c, 1, 50, 127
1, 31383, Note_off_c, 1, 62, 0
1, 31385, Note_on_c, 1, 61, 127
1, 31474, Note_off_c, 1, 61, 0
1, 31476, Note_on_c, 1, 59, 127
1, 31565, Note_off_c, 1, 59, 0
1, 31567, Note_on_c, 1, 57, 127
1, 31656, Note_off_c, 1, 57, 0
1, 31658, Note_on_c, 1, 56, 127
1, 31837, Note_off_c, 1, 50, 0
1, 31840, Note_on_c, 1, 52, 127
1, 31929, Note_off_c, 1, 52, 0
1, 32020, Note_off_c, 1, 56, 0
1, 32021, Note_on_c, 1, 49, 127
1, 32021, Note_on_c, 1, 64, 127
1, 32110, Note_off_c, 1, 49, 0
1, 32112, Note_on_c, 1, 47, 127
1, 32201, Note_off_c, 1, 47, 0
1, 32203, Note_on_c, 1, 45, 127
1, 32203, Note_on_c, 1, 61, 127
1, 32383, Note_off_c, 1, 64, 0
1, 32383, Note_off_c, 1, 45, 0
1, 32567, Note_on_c, 1, 50, 127
1, 32567, Note_on_c, 1, 69, 127
1, 32656, Note_off_c, 1, 50, 0
1, 32657, Note_on_c, 1, 52, 127
1, 32742, Note_off_c, 1, 61, 0
1, 32746, Note_off_c, 1, 52, 0
1, 32748, Note_on_c, 1, 54, 127
1, 32748, Note_on_c, 1, 62, 127
1, 32928, Note_off_c, 1, 54, 0
1, 33106, Note_off_c, 1, 69, 0
1, 33110, Note_off_c, 1, 62, 0
1, 33112, Note_on_c, 1, 50, 127
1, 33112, Note_on_c, 1, 71, 127
1, 33112, Note_on_c, 1, 62, 127
1, 33292, Note_off_c, 1, 50, 0
1, 33292, Note_off_c, 1, 71, 0
1, 33292, Note_off_c, 1, 62, 0
1, 33294, Note_on_c, 1, 64, 127
1, 33294, Note_on_c, 1, 52, 127
1, 33294, Note_on_c, 1, 61, 127
1, 33474, Note_off_c, 1, 64, 0
1, 33475, Note_on_c, 1, 69, 127
1, 33655, Note_off_c, 1, 69, 0
1, 33656, Note_off_c, 1, 52, 0
1, 33656, Note_off_c, 1, 61, 0
1, 33657, Note_on_c, 1, 40, 127
1, 33657, Note_on_c, 1, 59, 127
1, 33657, Note_on_c, 1, 68, 127
1, 33837, Note_off_c, 1, 40, 0
1, 33837, Note_off_c, 1, 59, 0
1, 33837, Note_off_c, 1, 68, 0
1, 33839, Note_on_c, 1, 45, 127
1, 33839, Note_on_c, 1, 61, 127
1, 33839, Note_on_c, 1, 69, 127
1, 34021, Note_on_c, 1, 49, 127
1, 34201, Note_off_c, 1, 49, 0
1, 34202, Note_on_c, 1, 52, 127
1, 34382, Note_off_c, 1, 52, 0
1, 34384, Note_on_c, 1, 57, 127
1, 34923, Note_off_c, 1, 57, 0
1, 34928, Note_off_c, 1, 45, 0
1, 34928, Note_off_c, 1, 61, 0
1, 34928, Note_off_c, 1, 69, 0
1, 34929, Note_on_c, 1, 45, 127
1, 34929, Note_on_c, 1, 57, 127
1, 35111, Note_on_c, 1, 76, 127
1, 35200, Note_off_c, 1, 76, 0
1, 35202, Note_on_c, 1, 74, 127
1, 35291, Note_off_c, 1, 74, 0
1, 35293, Note_on_c, 1, 73, 127
1, 35382, Note_off_c, 1, 73, 0
1, 35384, Note_on_c, 1, 71, 127
1, 35473, Note_off_c, 1, 71, 0
1, 35475, Note_on_c, 1, 69, 127
1, 35837, Note_off_c, 1, 69, 0
1, 36020, Note_on_c, 1, 64, 127
1, 36382, Note_off_c, 1, 64, 0
1, 36565, Note_on_c, 1, 61, 127
1, 36927, Note_off_c, 1, 61, 0
1, 37108, Note_off_c, 1, 45, 0
1, 37108, Note_off_c, 1, 57, 0
1, 37111, Note_on_c, 1, 57, 127
1, 37295, Note_on_c, 1, 69, 127
1, 37385, Note_off_c, 1, 69, 0
1, 37387, Note_on_c, 1, 71, 127
1, 37477, Note_off_c, 1, 71, 0
1, 37480, Note_on_c, 1, 73, 127
1, 37570, Note_off_c, 1, 73, 0
1, 37572, Note_on_c, 1, 74, 127
1, 37662, Note_off_c, 1, 74, 0
1, 37663, Note_off_c, 1, 57, 0
1, 37664, Note_on_c, 1, 69, 127
1, 37664, Note_on_c, 1, 76, 127
1, 37664, Note_on_c, 1, 61, 127
1, 37664, Note_on_c, 1, 57, 127
1, 37847, Note_off_c, 1, 69, 0
1, 37849, Note_on_c, 1, 73, 127
1, 38031, Note_off_c, 1, 76, 0
1, 38032, Note_off_c, 1, 73, 0
1, 38216, Note_off_c, 1, 61, 0
1, 38216, Note_off_c, 1, 57, 0
1, 38218, Note_on_c, 1, 81, 127
1, 38401, Note_off_c, 1, 81, 0
1, 38403, Note_on_c, 1, 78, 127
1, 38493, Note_off_c, 1, 78, 0
1, 38495, Note_on_c, 1, 80, 127
1, 38585, Note_off_c, 1, 80, 0
1, 38587, Note_on_c, 1, 71, 127
1, 38587, Note_on_c, 1, 62, 127
1, 38770, Note_off_c, 1, 71, 0
1, 38770, Note_off_c, 1, 62, 0
1, 39141, Note_on_c, 1, 64, 127
1, 39324, Note_off_c, 1, 64, 0
1, 39326, Note_on_c, 1, 73, 127
1, 39326, Note_on_c, 1, 64, 127
1, 39326, Note_on_c, 1, 81, 127
1, 39509, Note_off_c, 1, 73, 0
1, 39509, Note_off_c, 1, 64, 0
1, 39509, Note_off_c, 1, 81, 0
1, 39510, Note_on_c, 1, 64, 127
1, 39510, Note_on_c, 1, 80, 127
1, 39600, Note_off_c, 1, 64, 0
1, 39600, Note_off_c, 1, 80, 0
1, 39603, Note_on_c, 1, 62, 127
1, 39603, Note_on_c, 1, 78, 127
1, 39693, Note_off_c, 1, 62, 0
1, 39693, Note_off_c, 1, 78, 0
1, 39695, Note_on_c, 1, 61, 127
1, 39695, Note_on_c, 1, 76, 127
1, 39785, Note_off_c, 1, 61, 0
1, 39785, Note_off_c, 1, 76, 0
1, 39787, Note_on_c, 1, 59, 127
1, 39787, Note_on_c, 1, 74, 127
1, 39877, Note_off_c, 1, 59, 0
1, 39877, Note_off_c, 1, 74, 0
1, 39880, Note_on_c, 1, 73, 127
1, 39880, Note_on_c, 1, 57, 127
1, 39970, Note_off_c, 1, 73, 0
1, 39972, Note_on_c, 1, 74, 127
1, 40062, Note_off_c, 1, 74, 0
1, 40063, Note_off_c, 1, 57, 0
1, 40064, Note_on_c, 1, 76, 127
1, 40064, Note_on_c, 1, 61, 127
1, 40154, Note_off_c, 1, 76, 0
1, 40156, Note_on_c, 1, 74, 127
1, 40246, Note_off_c, 1, 74, 0
1, 40247, Note_off_c, 1, 61, 0
1, 40249, Note_on_c, 1, 73, 127
1, 40249, Note_on_c, 1, 57, 127
1, 40339, Note_off_c, 1, 73, 0
1, 40341, Note_on_c, 1, 71, 127
1, 40431, Note_off_c, 1, 71, 0
1, 40432, Note_off_c, 1, 57, 0
1, 40433, Note_on_c, 1, 71, 127
1, 40433, Note_on_c, 1, 52, 127
1, 40569, Note_off_c, 1, 71, 0
1, 40571, Note_on_c, 1, 69, 127
1, 40614, Note_off_c, 1, 52, 0
1, 40617, Note_on_c, 1, 57, 127
1, 40637, Note_off_c, 1, 69, 0
1, 40800, Note_off_c, 1, 57, 0
1, 40986, Note_on_c, 1, 69, 127
1, 40986, Note_on_c, 1, 49, 127
1, 41054, Note_off_c, 1, 69, 0
1, 41055, Note_on_c, 1, 71, 127
1, 41123, Note_off_c, 1, 71, 0
1, 41169, Note_off_c, 1, 49, 0
1, 41170, Note_on_c, 1, 52, 127
1, 41353, Note_off_c, 1, 52, 0
1, 41540, Note_on_c, 1, 45, 127
1, 41816, Note_on_c, 1, 68, 127
1, 41906, Note_off_c, 1, 68, 0
1, 42001, Note_on_c, 1, 64, 127
1, 42091, Note_off_c, 1, 64, 0
1, 42092, Note_off_c, 1, 45, 0
1, 42093, Note_on_c, 1, 61, 127
1, 42093, Note_on_c, 1, 45, 127
1, 42093, Note_on_c, 1, 49, 127
1, 42093, Note_on_c, 1, 52, 127
1, 42183, Note_off_c, 1, 61, 0
1, 42186, Note_on_c, 1, 66, 127
1, 42276, Note_off_c, 1, 66, 0
1, 42278, Note_on_c, 1, 64, 127
1, 42368, Note_off_c, 1, 64, 0
1, 42370, Note_on_c, 1, 62, 127
1, 42460, Note_off_c, 1, 62, 0
1, 42645, Note_off_c, 1, 45, 0
1, 42645, Note_off_c, 1, 49, 0
1, 42645, Note_off_c, 1, 52, 0
1, 42647, Note_on_c, 1, 59, 127
1, 42647, Note_on_c, 1, 52, 127
1, 42647, Note_on_c, 1, 49, 127
1, 42647, Note_on_c, 1, 45, 127
1, 42783, Note_off_c, 1, 59, 0
1, 42785, Note_on_c, 1, 57, 127
1, 42853, Note_off_c, 1, 57, 0
1, 43014, Note_off_c, 1, 52, 0
1, 43014, Note_off_c, 1, 49, 0
1, 43016, Note_on_c, 1, 50, 127
1, 43016, Note_on_c, 1, 47, 127
1, 43199, Note_off_c, 1, 50, 0
1, 43199, Note_off_c, 1, 47, 0
1, 43753, Note_off_c, 1, 45, 0
1, 44144, Note_on_c, 1, 61, 127
1, 44236, Note_off_c, 1, 61, 0
1, 44238, Note_on_c, 1, 62, 127
1, 44330, Note_off_c, 1, 62, 0
1, 44332, Note_on_c, 1, 64, 127
1, 44516, Note_off_c, 1, 64, 0
1, 44518, Note_on_c, 1, 61, 127
1, 44702, Note_off_c, 1, 61, 0
1, 44704, Note_on_c, 1, 64, 127
1, 44704, Note_on_c, 1, 57, 127
1, 44888, Note_off_c, 1, 64, 0
1, 44888, Note_off_c, 1, 57, 0
1, 44890, Note_on_c, 1, 59, 127
1, 44890, Note_on_c, 1, 67, 127
1, 45074, Note_off_c, 1, 59, 0
1, 45076, Note_on_c, 1, 76, 127
1, 45076, Note_on_c, 1, 61, 127
1, 45168, Note_off_c, 1, 76, 0
1, 45168, Note_off_c, 1, 61, 0
1, 45169, Note_on_c, 1, 74, 127
1, 45261, Note_off_c, 1, 74, 0
1, 45263, Note_on_c, 1, 73, 127
1, 45263, Note_on_c, 1, 57, 127
1, 45355, Note_off_c, 1, 73, 0
1, 45355, Note_off_c, 1, 57, 0
1, 45357, Note_on_c, 1, 71, 127
1, 45443, Note_off_c, 1, 67, 0
1, 45447, Note_off_c, 1, 71, 0
1, 45449, Note_on_c, 1, 61, 127
1, 45449, Note_on_c, 1, 69, 127
1, 45633, Note_off_c, 1, 61, 0
1, 45635, Note_on_c, 1, 62, 127
1, 45635, Note_on_c, 1, 76, 127
1, 45727, Note_off_c, 1, 62, 0
1, 45821, Note_off_c, 1, 69, 0
1, 45821, Note_off_c, 1, 76, 0
1, 45823, Note_on_c, 1, 59, 127
1, 45823, Note_on_c, 1, 67, 127
1, 45915, Note_off_c, 1, 59, 0
1, 45916, Note_on_c, 1, 61, 127
1, 46008, Note_off_c, 1, 61, 0
1, 46009, Note_off_c, 1, 67, 0
1, 46010, Note_on_c, 1, 62, 127
1, 46010, Note_on_c, 1, 66, 127
1, 46193, Note_off_c, 1, 62, 0
1, 46194, Note_off_c, 1, 66, 0
1, 46196, Note_on_c, 1, 62, 127
1, 46290, Note_on_c, 1, 64, 127
1, 46382, Note_off_c, 1, 64, 0
1, 46384, Note_on_c, 1, 66, 127
1, 46476, Note_off_c, 1, 66, 0
1, 46477, Note_on_c, 1, 67, 127
1, 46569, Note_off_c, 1, 67, 0
1, 46571, Note_on_c, 1, 69, 127
1, 46755, Note_off_c, 1, 69, 0
1, 46940, Note_off_c, 1, 62, 0
1, 46943, Note_on_c, 1, 69, 127
1, 46943, Note_on_c, 1, 50, 127
1, 47127, Note_off_c, 1, 69, 0
1, 47127, Note_off_c, 1, 50, 0
1, 47129, Note_on_c, 1, 52, 127
1, 47129, Note_on_c, 1, 72, 127
1, 47313, Note_off_c, 1, 52, 0
1, 47315, Note_on_c, 1, 81, 127
1, 47315, Note_on_c, 1, 54, 127
1, 47407, Note_off_c, 1, 81, 0
1, 47407, Note_off_c, 1, 54, 0
1, 47409, Note_on_c, 1, 79, 127
1, 47501, Note_off_c, 1, 79, 0
1, 47502, Note_on_c, 1, 78, 127
1, 47502, Note_on_c, 1, 50, 127
1, 47594, Note_off_c, 1, 78, 0
1, 47594, Note_off_c, 1, 50, 0
1, 47596, Note_on_c, 1, 76, 127
1, 47682, Note_off_c, 1, 72, 0
1, 47686, Note_off_c, 1, 76, 0
1, 47689, Note_on_c, 1, 54, 127
1, 47689, Note_on_c, 1, 74, 127
1, 47873, Note_off_c, 1, 54, 0
1, 47875, Note_on_c, 1, 55, 127
1, 47875, Note_on_c, 1, 81, 127
1, 47967, Note_off_c, 1, 55, 0
1, 48061, Note_off_c, 1, 74, 0
1, 48061, Note_off_c, 1, 81, 0
1, 48062, Note_on_c, 1, 52, 127
1, 48062, Note_on_c, 1, 72, 127
1, 48154, Note_off_c, 1, 52, 0
1, 48156, Note_on_c, 1, 54, 127
1, 48248, Note_off_c, 1, 72, 0
1, 48248, Note_off_c, 1, 54, 0
1, 48249, Note_on_c, 1, 55, 127
1, 48249, Note_on_c, 1, 71, 127
1, 48433, Note_off_c, 1, 55, 0
1, 48435, Note_on_c, 1, 59, 127
1, 48527, Note_off_c, 1, 59, 0
1, 48529, Note_on_c, 1, 57, 127
1, 48621, Note_off_c, 1, 71, 0
1, 48621, Note_off_c, 1, 57, 0
1, 48623, Note_on_c, 1, 55, 127
1, 48623, Note_on_c, 1, 69, 127
1, 48715, Note_off_c, 1, 55, 0
1, 48717, Note_on_c, 1, 54, 127
1, 48809, Note_off_c, 1, 69, 0
1, 48809, Note_off_c, 1, 54, 0
1, 48810, Note_on_c, 1, 69, 127
1, 48810, Note_on_c, 1, 52, 127
1, 48878, Note_off_c, 1, 69, 0
1, 48880, Note_on_c, 1, 67, 127
1, 48948, Note_off_c, 1, 67, 0
1, 48994, Note_off_c, 1, 52, 0
1, 48996, Note_on_c, 1, 55, 127
1, 49086, Note_off_c, 1, 55, 0
1, 49089, Note_on_c, 1, 54, 127
1, 49181, Note_off_c, 1, 54, 0
1, 49182, Note_on_c, 1, 52, 127
1, 49182, Note_on_c, 1, 66, 127
1, 49274, Note_off_c, 1, 52, 0
1, 49276, Note_on_c, 1, 50, 127
1, 49368, Note_off_c, 1, 66, 0
1, 49368, Note_off_c, 1, 50, 0
1, 49370, Note_on_c, 1, 64, 127
1, 49370, Note_on_c, 1, 49, 127
1, 49554, Note_off_c, 1, 64, 0
1, 49554, Note_off_c, 1, 49, 0
1, 49556, Note_on_c, 1, 73, 127
1, 49556, Note_on_c, 1, 52, 127
1, 49648, Note_off_c, 1, 73, 0
1, 49650, Note_on_c, 1, 71, 127
1, 49742, Note_off_c, 1, 52, 0
1, 49742, Note_off_c, 1, 71, 0
1, 49743, Note_on_c, 1, 70, 127
1, 49743, Note_on_c, 1, 49, 127
1, 49835, Note_off_c, 1, 70, 0
1, 49837, Note_on_c, 1, 71, 127
1, 49929, Note_off_c, 1, 49, 0
1, 49929, Note_off_c, 1, 71, 0
1, 49931, Note_on_c, 1, 46, 127
1, 49931, Note_on_c, 1, 73, 127
1, 50115, Note_off_c, 1, 46, 0
1, 50117, Note_on_c, 1, 49, 127
1, 50301, Note_off_c, 1, 49, 0
1, 50303, Note_on_c, 1, 67, 127
1, 50487, Note_off_c, 1, 67, 0
1, 50489, Note_on_c, 1, 50, 127
1, 50489, Note_on_c, 1, 66, 127
1, 50673, Note_off_c, 1, 73, 0
1, 50673, Note_off_c, 1, 50, 0
1, 50675, Note_on_c, 1, 74, 127
1, 50675, Note_on_c, 1, 54, 127
1, 50767, Note_off_c, 1, 74, 0
1, 50861, Note_off_c, 1, 54, 0
1, 50862, Note_on_c, 1, 71, 127
1, 50954, Note_off_c, 1, 71, 0
1, 51042, Note_off_c, 1, 66, 0
1, 51048, Note_on_c, 1, 47, 127
1, 51048, Note_on_c, 1, 74, 127
1, 51232, Note_off_c, 1, 47, 0
1, 51234, Note_on_c, 1, 50, 127
1, 51418, Note_off_c, 1, 50, 0
1, 51420, Note_on_c, 1, 69, 127
1, 51604, Note_off_c, 1, 69, 0
1, 51606, Note_on_c, 1, 52, 127
1, 51606, Note_on_c, 1, 67, 127
1, 51790, Note_off_c, 1, 74, 0
1, 51790, Note_off_c, 1, 52, 0
1, 51792, Note_on_c, 1, 76, 127
1, 51792, Note_on_c, 1, 55, 127
1, 51884, Note_off_c, 1, 76, 0
1, 51978, Note_off_c, 1, 55, 0
1, 51980, Note_on_c, 1, 73, 127
1, 52072, Note_off_c, 1, 73, 0
1, 52159, Note_off_c, 1, 67, 0
1, 52166, Note_on_c, 1, 49, 127
1, 52166, Note_on_c, 1, 76, 127
1, 52350, Note_off_c, 1, 49, 0
1, 52352, Note_on_c, 1, 52, 127
1, 52536, Note_off_c, 1, 52, 0
1, 52538, Note_on_c, 1, 71, 127
1, 52722, Note_off_c, 1, 71, 0
1, 52724, Note_on_c, 1, 54, 127
1, 52724, Note_on_c, 1, 70, 127
1, 52911, Note_off_c, 1, 76, 0
1, 52913, Note_on_c, 1, 79, 127
1, 53005, Note_off_c, 1, 79, 0
1, 53006, Note_on_c, 1, 78, 127
1, 53098, Note_off_c, 1, 54, 0
1, 53098, Note_off_c, 1, 78, 0
1, 53100, Note_on_c, 1, 59, 127
1, 53194, Note_on_c, 1, 75, 127
1, 53286, Note_off_c, 1, 59, 0
1, 53286, Note_off_c, 1, 75, 0
1, 53288, Note_on_c, 1, 58, 127
1, 53475, Note_off_c, 1, 58, 0
1, 53665, Note_on_c, 1, 61, 127
1, 53852, Note_off_c, 1, 70, 0
1, 53852, Note_off_c, 1, 61, 0
1, 53854, Note_on_c, 1, 76, 127
1, 53854, Note_on_c, 1, 54, 127
1, 53854, Note_on_c, 1, 73, 127
1, 54041, Note_off_c, 1, 76, 0
1, 54043, Note_on_c, 1, 79, 127
1, 54135, Note_off_c, 1, 79, 0
1, 54137, Note_on_c, 1, 78, 127
1, 54228, Note_off_c, 1, 54, 0
1, 54229, Note_off_c, 1, 78, 0
1, 54230, Note_on_c, 1, 59, 127
1, 54324, Note_on_c, 1, 75, 127
1, 54416, Note_off_c, 1, 59, 0
1, 54416, Note_off_c, 1, 75, 0
1, 54418, Note_on_c, 1, 58, 127
1, 54792, Note_off_c, 1, 58, 0
1, 54794, Note_off_c, 1, 73, 0
1, 54982, Note_on_c, 1, 47, 127
1, 54982, Note_on_c, 1, 75, 127
1, 55170, Note_on_c, 1, 72, 127
1, 55262, Note_off_c, 1, 72, 0
1, 55264, Note_on_c, 1, 71, 127
1, 55356, Note_off_c, 1, 47, 0
1, 55356, Note_off_c, 1, 71, 0
1, 55358, Note_on_c, 1, 69, 127
1, 55358, Note_on_c, 1, 64, 127
1, 55450, Note_off_c, 1, 69, 0
1, 55452, Note_on_c, 1, 68, 127
1, 55544, Note_off_c, 1, 64, 0
1, 55544, Note_off_c, 1, 68, 0
1, 55545, Note_on_c, 1, 63, 127
1, 55732, Note_off_c, 1, 63, 0
1, 55923, Note_on_c, 1, 66, 127
1, 56110, Note_off_c, 1, 75, 0
1, 56110, Note_off_c, 1, 66, 0
1, 56112, Note_on_c, 1, 69, 127
1, 56112, Note_on_c, 1, 59, 127
1, 56112, Note_on_c, 1, 78, 127
1, 56299, Note_off_c, 1, 69, 0
1, 56301, Note_on_c, 1, 72, 127
1, 56393, Note_off_c, 1, 72, 0
1, 56395, Note_on_c, 1, 71, 127
1, 56486, Note_off_c, 1, 59, 0
1, 56487, Note_off_c, 1, 71, 0
1, 56488, Note_on_c, 1, 64, 127
1, 56582, Note_on_c, 1, 68, 127
1, 56674, Note_off_c, 1, 64, 0
1, 56674, Note_off_c, 1, 68, 0
1, 56676, Note_on_c, 1, 63, 127
1, 57050, Note_off_c, 1, 63, 0
1, 57052, Note_on_c, 1, 67, 127
1, 57144, Note_off_c, 1, 67, 0
1, 57146, Note_on_c, 1, 66, 127
1, 57238, Note_off_c, 1, 78, 0
1, 57238, Note_off_c, 1, 66, 0
1, 57239, Note_on_c, 1, 52, 127
1, 57239, Note_on_c, 1, 67, 127
1, 57331, Note_off_c, 1, 52, 0
1, 57333, Note_on_c, 1, 71, 127
1, 57333, Note_on_c, 1, 55, 127
1, 57425, Note_off_c, 1, 71, 0
1, 57425, Note_off_c, 1, 55, 0
1, 57427, Note_on_c, 1, 73, 127
1, 57427, Note_on_c, 1, 57, 127
1, 57519, Note_off_c, 1, 73, 0
1, 57519, Note_off_c, 1, 57, 0
1, 57521, Note_on_c, 1, 75, 127
1, 57521, Note_on_c, 1, 59, 127
1, 57613, Note_off_c, 1, 75, 0
1, 57613, Note_off_c, 1, 59, 0
1, 57614, Note_on_c, 1, 76, 127
1, 57614, Note_on_c, 1, 61, 127
1, 57706, Note_off_c, 1, 76, 0
1, 57706, Note_off_c, 1, 61, 0
1, 57708, Note_on_c, 1, 78, 127
1, 57708, Note_on_c, 1, 63, 127
1, 57794, Note_off_c, 1, 67, 0
1, 57798, Note_off_c, 1, 78, 0
1, 57798, Note_off_c, 1, 63, 0
1, 57800, Note_on_c, 1, 64, 127
1, 57800, Note_on_c, 1, 79, 127
1, 57894, Note_on_c, 1, 78, 127
1, 57986, Note_off_c, 1, 64, 0
1, 57986, Note_off_c, 1, 78, 0
1, 57988, Note_on_c, 1, 76, 127
1, 57988, Note_on_c, 1, 67, 127
1, 58078, Note_off_c, 1, 79, 0
1, 58080, Note_off_c, 1, 76, 0
1, 58081, Note_on_c, 1, 74, 127
1, 58173, Note_off_c, 1, 74, 0
1, 58174, Note_off_c, 1, 67, 0
1, 58175, Note_on_c, 1, 73, 127
1, 58175, Note_on_c, 1, 64, 127
1, 58267, Note_off_c, 1, 73, 0
1, 58269, Note_on_c, 1, 71, 127
1, 58361, Note_off_c, 1, 64, 0
1, 58361, Note_off_c, 1, 71, 0
1, 58363, Note_on_c, 1, 76, 127
1, 58363, Note_on_c, 1, 61, 127
1, 58456, Note_on_c, 1, 74, 127
1, 58548, Note_off_c, 1, 74, 0
1, 58549, Note_off_c, 1, 76, 0
1, 58549, Note_off_c, 1, 61, 0
1, 58550, Note_on_c, 1, 73, 127
1, 58550, Note_on_c, 1, 64, 127
1, 58642, Note_off_c, 1, 73, 0
1, 58644, Note_on_c, 1, 71, 127
1, 58736, Note_off_c, 1, 64, 0
1, 58736, Note_off_c, 1, 71, 0
1, 58738, Note_on_c, 1, 69, 127
1, 58738, Note_on_c, 1, 61, 127
1, 58830, Note_off_c, 1, 69, 0
1, 58831, Note_on_c, 1, 68, 127
1, 58923, Note_off_c, 1, 68, 0
1, 58924, Note_off_c, 1, 61, 0
1, 58925, Note_on_c, 1, 73, 127
1, 58925, Note_on_c, 1, 57, 127
1, 59019, Note_on_c, 1, 71, 127
1, 59111, Note_off_c, 1, 73, 0
1, 59111, Note_off_c, 1, 57, 0
1, 59111, Note_off_c, 1, 71, 0
1, 59112, Note_on_c, 1, 69, 127
1, 59112, Note_on_c, 1, 61, 127
1, 59204, Note_off_c, 1, 69, 0
1, 59206, Note_on_c, 1, 67, 127
1, 59298, Note_off_c, 1, 61, 0
1, 59298, Note_off_c, 1, 67, 0
1, 59300, Note_on_c, 1, 66, 127
1, 59300, Note_on_c, 1, 57, 127
1, 59392, Note_off_c, 1, 66, 0
1, 59394, Note_on_c, 1, 64, 127
1, 59486, Note_off_c, 1, 57, 0
1, 59486, Note_off_c, 1, 64, 0
1, 59487, Note_on_c, 1, 66, 127
1, 59487, Note_on_c, 1, 50, 127
1, 59579, Note_off_c, 1, 66, 0
1, 59579, Note_off_c, 1, 50, 0
1, 59581, Note_on_c, 1, 69, 127
1, 59581, Note_on_c, 1, 54, 127
1, 59673, Note_off_c, 1, 69, 0
1, 59673, Note_off_c, 1, 54, 0
1, 59675, Note_on_c, 1, 71, 127
1, 59675, Note_on_c, 1, 55, 127
1, 59767, Note_off_c, 1, 71, 0
1, 59767, Note_off_c, 1, 55, 0
1, 59768, Note_on_c, 1, 73, 127
1, 59768, Note_on_c, 1, 57, 127
1, 59860, Note_off_c, 1, 73, 0
1, 59860, Note_off_c, 1, 57, 0
1, 59862, Note_on_c, 1, 74, 127
1, 59862, Note_on_c, 1, 59, 127
1, 59954, Note_off_c, 1, 74, 0
1, 59954, Note_off_c, 1, 59, 0
1, 59956, Note_on_c, 1, 76, 127
1, 59956, Note_on_c, 1, 61, 127
1, 60048, Note_off_c, 1, 76, 0
1, 60048, Note_off_c, 1, 61, 0
1, 60050, Note_on_c, 1, 78, 127
1, 60050, Note_on_c, 1, 62, 127
1, 60143, Note_on_c, 1, 76, 127
1, 60235, Note_off_c, 1, 76, 0
1, 60237, Note_on_c, 1, 74, 127
1, 60328, Note_off_c, 1, 78, 0
1, 60329, Note_off_c, 1, 74, 0
1, 60331, Note_on_c, 1, 73, 127
1, 60423, Note_off_c, 1, 73, 0
1, 60424, Note_on_c, 1, 71, 127
1, 60516, Note_off_c, 1, 71, 0
1, 60518, Note_on_c, 1, 69, 127
1, 60610, Note_off_c, 1, 69, 0
1, 60612, Note_on_c, 1, 68, 127
1, 60798, Note_off_c, 1, 62, 0
1, 60799, Note_on_c, 1, 61, 127
1, 60893, Note_on_c, 1, 75, 127
1, 60985, Note_off_c, 1, 61, 0
1, 60985, Note_off_c, 1, 75, 0
1, 60987, Note_on_c, 1, 59, 127
1, 61080, Note_off_c, 1, 68, 0
1, 61081, Note_on_c, 1, 67, 127
1, 61173, Note_off_c, 1, 59, 0
1, 61173, Note_off_c, 1, 67, 0
1, 61174, Note_on_c, 1, 66, 127
1, 61174, Note_on_c, 1, 58, 127
1, 61266, Note_off_c, 1, 66, 0
1, 61266, Note_off_c, 1, 58, 0
1, 61268, Note_on_c, 1, 70, 127
1, 61360, Note_off_c, 1, 70, 0
1, 61549, Note_on_c, 1, 56, 127
1, 61549, Note_on_c, 1, 76, 127
1, 61641, Note_off_c, 1, 56, 0
1, 61643, Note_on_c, 1, 54, 127
1, 61735, Note_off_c, 1, 54, 0
1, 61737, Note_on_c, 1, 59, 127
1, 61828, Note_off_c, 1, 76, 0
1, 61830, Note_on_c, 1, 66, 127
1, 61922, Note_off_c, 1, 66, 0
1, 61923, Note_off_c, 1, 59, 0
1, 61924, Note_on_c, 1, 68, 127
1, 61924, Note_on_c, 1, 54, 127
1, 62016, Note_off_c, 1, 68, 0
1, 62018, Note_on_c, 1, 70, 127
1, 62110, Note_off_c, 1, 54, 0
1, 62110, Note_off_c, 1, 70, 0
1, 62111, Note_on_c, 1, 71, 127
1, 62111, Note_on_c, 1, 50, 127
1, 62203, Note_off_c, 1, 71, 0
1, 62205, Note_on_c, 1, 73, 127
1, 62297, Note_off_c, 1, 50, 0
1, 62297, Note_off_c, 1, 73, 0
1, 62299, Note_on_c, 1, 47, 127
1, 62299, Note_on_c, 1, 74, 127
1, 62393, Note_on_c, 1, 73, 127
1, 62485, Note_off_c, 1, 47, 0
1, 62485, Note_off_c, 1, 73, 0
1, 62486, Note_on_c, 1, 71, 127
1, 62486, Note_on_c, 1, 49, 127
1, 62577, Note_off_c, 1, 74, 0
1, 62578, Note_off_c, 1, 71, 0
1, 62578, Note_off_c, 1, 49, 0
1, 62580, Note_on_c, 1, 69, 127
1, 62580, Note_on_c, 1, 50, 127
1, 62672, Note_off_c, 1, 69, 0
1, 62672, Note_off_c, 1, 50, 0
1, 62674, Note_on_c, 1, 67, 127
1, 62674, Note_on_c, 1, 52, 127
1, 62766, Note_off_c, 1, 67, 0
1, 62766, Note_off_c, 1, 52, 0
1, 62767, Note_on_c, 1, 66, 127
1, 62767, Note_on_c, 1, 54, 127
1, 62859, Note_off_c, 1, 66, 0
1, 62859, Note_off_c, 1, 54, 0
1, 62861, Note_on_c, 1, 55, 127
1, 62861, Note_on_c, 1, 71, 127
1, 62953, Note_off_c, 1, 55, 0
1, 62955, Note_on_c, 1, 69, 127
1, 62955, Note_on_c, 1, 57, 127
1, 63035, Note_off_c, 1, 71, 0
1, 63045, Note_off_c, 1, 69, 0
1, 63045, Note_off_c, 1, 57, 0
1, 63047, Note_on_c, 1, 67, 127
1, 63047, Note_on_c, 1, 59, 127
1, 63139, Note_off_c, 1, 67, 0
1, 63139, Note_off_c, 1, 59, 0
1, 63141, Note_on_c, 1, 66, 127
1, 63141, Note_on_c, 1, 57, 127
1, 63233, Note_off_c, 1, 66, 0
1, 63233, Note_off_c, 1, 57, 0
1, 63235, Note_on_c, 1, 64, 127
1, 63235, Note_on_c, 1, 55, 127
1, 63327, Note_off_c, 1, 64, 0
1, 63327, Note_off_c, 1, 55, 0
1, 63328, Note_on_c, 1, 62, 127
1, 63328, Note_on_c, 1, 54, 127
1, 63420, Note_off_c, 1, 62, 0
1, 63420, Note_off_c, 1, 54, 0
1, 63422, Note_on_c, 1, 52, 127
1, 63422, Note_on_c, 1, 67, 127
1, 63514, Note_off_c, 1, 52, 0
1, 63516, Note_on_c, 1, 66, 127
1, 63516, Note_on_c, 1, 54, 127
1, 63596, Note_off_c, 1, 67, 0
1, 63606, Note_off_c, 1, 66, 0
1, 63606, Note_off_c, 1, 54, 0
1, 63608, Note_on_c, 1, 64, 127
1, 63608, Note_on_c, 1, 55, 127
1, 63700, Note_off_c, 1, 64, 0
1, 63700, Note_off_c, 1, 55, 0
1, 63702, Note_on_c, 1, 62, 127
1, 63702, Note_on_c, 1, 54, 127
1, 63794, Note_off_c, 1, 62, 0
1, 63794, Note_off_c, 1, 54, 0
1, 63796, Note_on_c, 1, 61, 127
1, 63796, Note_on_c, 1, 55, 127
1, 63888, Note_off_c, 1, 61, 0
1, 63888, Note_off_c, 1, 55, 0
1, 63889, Note_on_c, 1, 64, 127
1, 63889, Note_on_c, 1, 52, 127
1, 63981, Note_off_c, 1, 64, 0
1, 63981, Note_off_c, 1, 52, 0
1, 63983, Note_on_c, 1, 58, 127
1, 63983, Note_on_c, 1, 54, 127
1, 64169, Note_on_c, 1, 79, 127
1, 64261, Note_off_c, 1, 79, 0
1, 64263, Note_on_c, 1, 78, 127
1, 64355, Note_off_c, 1, 58, 0
1, 64355, Note_off_c, 1, 54, 0
1, 64355, Note_off_c, 1, 78, 0
1, 64356, Note_on_c, 1, 76, 127
1, 64356, Note_on_c, 1, 42, 127
1, 64448, Note_off_c, 1, 76, 0
1, 64450, Note_on_c, 1, 74, 127
1, 64542, Note_off_c, 1, 42, 0
1, 64542, Note_off_c, 1, 74, 0
1, 64544, Note_on_c, 1, 73, 127
1, 64544, Note_on_c, 1, 42, 127
1, 64544, Note_on_c, 1, 70, 127
1, 64728, Note_off_c, 1, 73, 0
1, 64730, Note_on_c, 1, 76, 127
1, 64914, Note_off_c, 1, 76, 0
1, 65008, Note_off_c, 1, 42, 0
1, 65096, Note_off_c, 1, 70, 0
1, 65102, Note_on_c, 1, 70, 127
1, 65102, Note_on_c, 1, 64, 127
1, 65102, Note_on_c, 1, 42, 127
1, 65286, Note_off_c, 1, 70, 0
1, 65288, Note_on_c, 1, 73, 127
1, 65472, Note_off_c, 1, 73, 0
1, 65654, Note_off_c, 1, 64, 0
1, 65660, Note_on_c, 1, 61, 127
1, 65938, Note_off_c, 1, 42, 0
1, 65940, Note_on_c, 1, 49, 127
1, 66032, Note_off_c, 1, 61, 0
1, 66032, Note_off_c, 1, 49, 0
1, 66033, Note_on_c, 1, 50, 127
1, 66033, Note_on_c, 1, 64, 127
1, 66033, Note_on_c, 1, 61, 127
1, 66125, Note_off_c, 1, 50, 0
1, 66127, Note_on_c, 1, 52, 127
1, 66219, Note_off_c, 1, 64, 0
1, 66219, Note_off_c, 1, 61, 0
1, 66219, Note_off_c, 1, 52, 0
1, 66221, Note_on_c, 1, 62, 127
1, 66221, Note_on_c, 1, 54, 127
1, 66405, Note_off_c, 1, 62, 0
1, 66407, Note_on_c, 1, 59, 127
1, 66499, Note_off_c, 1, 59, 0
1, 66501, Note_on_c, 1, 61, 127
1, 66593, Note_off_c, 1, 54, 0
1, 66593, Note_off_c, 1, 61, 0
1, 66594, Note_on_c, 1, 62, 127
1, 66594, Note_on_c, 1, 42, 127
1, 66686, Note_off_c, 1, 62, 0
1, 66688, Note_on_c, 1, 64, 127
1, 66780, Note_off_c, 1, 42, 0
1, 66780, Note_off_c, 1, 64, 0
1, 66782, Note_on_c, 1, 66, 127
1, 66782, Note_on_c, 1, 42, 127
1, 66782, Note_on_c, 1, 71, 127
1, 66966, Note_off_c, 1, 66, 0
1, 66968, Note_on_c, 1, 62, 127
1, 67152, Note_off_c, 1, 62, 0
1, 67246, Note_off_c, 1, 42, 0
1, 67334, Note_off_c, 1, 71, 0
1, 67340, Note_on_c, 1, 71, 127
1, 67340, Note_on_c, 1, 74, 127
1, 67340, Note_on_c, 1, 42, 127
1, 67524, Note_off_c, 1, 71, 0
1, 67526, Note_on_c, 1, 66, 127
1, 67710, Note_off_c, 1, 66, 0
1, 67892, Note_off_c, 1, 74, 0
1, 67898, Note_on_c, 1, 77, 127
1, 68450, Note_off_c, 1, 77, 0
1, 68454, Note_off_c, 1, 42, 0
1, 68456, Note_on_c, 1, 73, 127
1, 68456, Note_on_c, 1, 78, 127
1, 68640, Note_off_c, 1, 73, 0
1, 68642, Note_on_c, 1, 70, 127
1, 68736, Note_on_c, 1, 50, 127
1, 68828, Note_off_c, 1, 78, 0
1, 68828, Note_off_c, 1, 70, 0
1, 68828, Note_off_c, 1, 50, 0
1, 68829, Note_on_c, 1, 52, 127
1, 68829, Note_on_c, 1, 76, 127
1, 68829, Note_on_c, 1, 73, 127
1, 68921, Note_off_c, 1, 52, 0
1, 68923, Note_on_c, 1, 54, 127
1, 69015, Note_off_c, 1, 76, 0
1, 69015, Note_off_c, 1, 73, 0
1, 69015, Note_off_c, 1, 54, 0
1, 69017, Note_on_c, 1, 55, 127
1, 69017, Note_on_c, 1, 74, 127
1, 69017, Note_on_c, 1, 71, 127
1, 69201, Note_off_c, 1, 55, 0
1, 69203, Note_on_c, 1, 54, 127
1, 69387, Note_off_c, 1, 74, 0
1, 69387, Note_off_c, 1, 54, 0
1, 69389, Note_on_c, 1, 79, 127
1, 69389, Note_on_c, 1, 52, 127
1, 69569, Note_off_c, 1, 71, 0
1, 69573, Note_off_c, 1, 79, 0
1, 69573, Note_off_c, 1, 52, 0
1, 69575, Note_on_c, 1, 71, 127
1, 69575, Note_on_c, 1, 74, 127
1, 69575, Note_on_c, 1, 54, 127
1, 70131, Note_off_c, 1, 71, 0
1, 70131, Note_off_c, 1, 74, 0
1, 70131, Note_off_c, 1, 54, 0
1, 70133, Note_on_c, 1, 74, 127
1, 70133, Note_on_c, 1, 70, 127
1, 70133, Note_on_c, 1, 42, 127
1, 70225, Note_off_c, 1, 74, 0
1, 70227, Note_on_c, 1, 73, 127
1, 70319, Note_off_c, 1, 73, 0
1, 70508, Note_on_c, 1, 71, 127
1, 70600, Note_off_c, 1, 71, 0
1, 70688, Note_off_c, 1, 70, 0
1, 70692, Note_off_c, 1, 42, 0
1, 70694, Note_on_c, 1, 71, 127
1, 70694, Note_on_c, 1, 47, 127
1, 70878, Note_off_c, 1, 71, 0
1, 70880, Note_on_c, 1, 74, 127
1, 70972, Note_off_c, 1, 74, 0
1, 70974, Note_on_c, 1, 73, 127
1, 71066, Note_off_c, 1, 47, 0
1, 71066, Note_off_c, 1, 73, 0
1, 71067, Note_on_c, 1, 71, 127
1, 71067, Note_on_c, 1, 54, 127
1, 71159, Note_off_c, 1, 71, 0
1, 71161, Note_on_c, 1, 69, 127
1, 71253, Note_off_c, 1, 54, 0
1, 71253, Note_off_c, 1, 69, 0
1, 71255, Note_on_c, 1, 59, 127
1, 71255, Note_on_c, 1, 67, 127
1, 71347, Note_off_c, 1, 59, 0
1, 71349, Note_on_c, 1, 57, 127
1, 71441, Note_off_c, 1, 67, 0
1, 71441, Note_off_c, 1, 57, 0
1, 71442, Note_on_c, 1, 71, 127
1, 71442, Note_on_c, 1, 59, 127
1, 71534, Note_off_c, 1, 71, 0
1, 71536, Note_on_c, 1, 69, 127
1, 71628, Note_off_c, 1, 69, 0
1, 71630, Note_on_c, 1, 67, 127
1, 71722, Note_off_c, 1, 67, 0
1, 71723, Note_on_c, 1, 66, 127
1, 71815, Note_off_c, 1, 66, 0
1, 71817, Note_on_c, 1, 64, 127
1, 72001, Note_off_c, 1, 59, 0
1, 72003, Note_on_c, 1, 60, 127
1, 72095, Note_off_c, 1, 60, 0
1, 72189, Note_off_c, 1, 64, 0
1, 72191, Note_on_c, 1, 57, 127
1, 72191, Note_on_c, 1, 72, 127
1, 72283, Note_off_c, 1, 57, 0
1, 72284, Note_on_c, 1, 55, 127
1, 72376, Note_off_c, 1, 55, 0
1, 72377, Note_off_c, 1, 72, 0
1, 72378, Note_on_c, 1, 54, 127
1, 72378, Note_on_c, 1, 72, 127
1, 72562, Note_off_c, 1, 54, 0
1, 72564, Note_on_c, 1, 55, 127
1, 72564, Note_on_c, 1, 69, 127
1, 72656, Note_off_c, 1, 55, 0
1, 72750, Note_off_c, 1, 69, 0
1, 72752, Note_on_c, 1, 52, 127
1, 72752, Note_on_c, 1, 66, 127
1, 72844, Note_off_c, 1, 52, 0
1, 72845, Note_on_c, 1, 50, 127
1, 72937, Note_off_c, 1, 50, 0
1, 72938, Note_off_c, 1, 66, 0
1, 72939, Note_on_c, 1, 62, 127
1, 73033, Note_on_c, 1, 57, 127
1, 73124, Note_off_c, 1, 72, 0
1, 73125, Note_off_c, 1, 57, 0
1, 73126, Note_on_c, 1, 59, 127
1, 73126, Note_on_c, 1, 67, 127
1, 73218, Note_off_c, 1, 59, 0
1, 73312, Note_off_c, 1, 67, 0
1, 73314, Note_on_c, 1, 71, 127
1, 73494, Note_off_c, 1, 62, 0
1, 73498, Note_off_c, 1, 71, 0
1, 73500, Note_on_c, 1, 49, 127
1, 73500, Note_on_c, 1, 71, 127
1, 73594, Note_on_c, 1, 69, 127
1, 73686, Note_off_c, 1, 49, 0
1, 73686, Note_off_c, 1, 69, 0
1, 73687, Note_on_c, 1, 67, 127
1, 73687, Note_on_c, 1, 52, 127
1, 73762, Note_off_c, 1, 71, 0
1, 73777, Note_off_c, 1, 67, 0
1, 73780, Note_on_c, 1, 66, 127
1, 73871, Note_off_c, 1, 52, 0
1, 73872, Note_off_c, 1, 66, 0
1, 73873, Note_on_c, 1, 64, 127
1, 73873, Note_on_c, 1, 49, 127
1, 73965, Note_off_c, 1, 64, 0
1, 73967, Note_on_c, 1, 62, 127
1, 74059, Note_off_c, 1, 49, 0
1, 74059, Note_off_c, 1, 62, 0
1, 74061, Note_on_c, 1, 54, 127
1, 74061, Note_on_c, 1, 61, 127
1, 74153, Note_off_c, 1, 54, 0
1, 74154, Note_on_c, 1, 55, 127
1, 74246, Note_off_c, 1, 55, 0
1, 74247, Note_off_c, 1, 61, 0
1, 74248, Note_on_c, 1, 57, 127
1, 74248, Note_on_c, 1, 66, 127
1, 74340, Note_off_c, 1, 57, 0
1, 74342, Note_on_c, 1, 54, 127
1, 74434, Note_off_c, 1, 66, 0
1, 74434, Note_off_c, 1, 54, 0
1, 74436, Note_on_c, 1, 52, 127
1, 74436, Note_on_c, 1, 69, 127
1, 74528, Note_off_c, 1, 52, 0
1, 74529, Note_on_c, 1, 54, 127
1, 74621, Note_off_c, 1, 54, 0
1, 74622, Note_off_c, 1, 69, 0
1, 74623, Note_on_c, 1, 47, 127
1, 74623, Note_on_c, 1, 69, 127
1, 74717, Note_on_c, 1, 67, 127
1, 74809, Note_off_c, 1, 47, 0
1, 74809, Note_off_c, 1, 67, 0
1, 74811, Note_on_c, 1, 66, 127
1, 74811, Note_on_c, 1, 50, 127
1, 74885, Note_off_c, 1, 69, 0
1, 74901, Note_off_c, 1, 66, 0
1, 74903, Note_on_c, 1, 64, 127
1, 74995, Note_off_c, 1, 50, 0
1, 74995, Note_off_c, 1, 64, 0
1, 74997, Note_on_c, 1, 62, 127
1, 74997, Note_on_c, 1, 47, 127
1, 75089, Note_off_c, 1, 62, 0
1, 75090, Note_on_c, 1, 61, 127
1, 75182, Note_off_c, 1, 61, 0
1, 75183, Note_off_c, 1, 47, 0
1, 75184, Note_on_c, 1, 52, 127
1, 75184, Note_on_c, 1, 59, 127
1, 75276, Note_off_c, 1, 52, 0
1, 75278, Note_on_c, 1, 54, 127
1, 75370, Note_off_c, 1, 59, 0
1, 75370, Note_off_c, 1, 54, 0
1, 75371, Note_on_c, 1, 55, 127
1, 75371, Note_on_c, 1, 64, 127
1, 75463, Note_off_c, 1, 55, 0
1, 75465, Note_on_c, 1, 52, 127
1, 75557, Note_off_c, 1, 64, 0
1, 75557, Note_off_c, 1, 52, 0
1, 75559, Note_on_c, 1, 50, 127
1, 75559, Note_on_c, 1, 67, 127
1, 75651, Note_off_c, 1, 50, 0
1, 75653, Note_on_c, 1, 52, 127
1, 75745, Note_off_c, 1, 67, 0
1, 75745, Note_off_c, 1, 52, 0
1, 75746, Note_on_c, 1, 45, 127
1, 75746, Note_on_c, 1, 67, 127
1, 75840, Note_on_c, 1, 66, 127
1, 75932, Note_off_c, 1, 45, 0
1, 75932, Note_off_c, 1, 66, 0
1, 75934, Note_on_c, 1, 64, 127
1, 75934, Note_on_c, 1, 49, 127
1, 76026, Note_off_c, 1, 64, 0
1, 76027, Note_on_c, 1, 62, 127
1, 76119, Note_off_c, 1, 62, 0
1, 76120, Note_off_c, 1, 49, 0
1, 76121, Note_on_c, 1, 61, 127
1, 76213, Note_off_c, 1, 61, 0
1, 76215, Note_on_c, 1, 59, 127
1, 76301, Note_off_c, 1, 67, 0
1, 76305, Note_off_c, 1, 59, 0
1, 76307, Note_on_c, 1, 50, 127
1, 76307, Note_on_c, 1, 57, 127
1, 76399, Note_off_c, 1, 50, 0
1, 76401, Note_on_c, 1, 52, 127
1, 76493, Note_off_c, 1, 57, 0
1, 76493, Note_off_c, 1, 52, 0
1, 76495, Note_on_c, 1, 54, 127
1, 76495, Note_on_c, 1, 62, 127
1, 76587, Note_off_c, 1, 54, 0
1, 76588, Note_on_c, 1, 50, 127
1, 76680, Note_off_c, 1, 50, 0
1, 76682, Note_on_c, 1, 48, 127
1, 76682, Note_on_c, 1, 66, 127
1, 76774, Note_off_c, 1, 48, 0
1, 76868, Note_off_c, 1, 62, 0
1, 76870, Note_on_c, 1, 47, 127
1, 76962, Note_off_c, 1, 47, 0
1, 77055, Note_off_c, 1, 66, 0
1, 77244, Note_on_c, 1, 45, 127
1, 77244, Note_on_c, 1, 72, 127
1, 77336, Note_off_c, 1, 45, 0
1, 77430, Note_on_c, 1, 43, 127
1, 77522, Note_off_c, 1, 43, 0
1, 77618, Note_on_c, 1, 67, 127
1, 77710, Note_off_c, 1, 67, 0
1, 77805, Note_on_c, 1, 64, 127
1, 77897, Note_off_c, 1, 64, 0
1, 77899, Note_on_c, 1, 42, 127
1, 77991, Note_off_c, 1, 42, 0
1, 77992, Note_off_c, 1, 72, 0
1, 77993, Note_on_c, 1, 40, 127
1, 77993, Note_on_c, 1, 67, 127
1, 78085, Note_off_c, 1, 40, 0
1, 78086, Note_on_c, 1, 42, 127
1, 78178, Note_off_c, 1, 42, 0
1, 78179, Note_off_c, 1, 67, 0
1, 78180, Note_on_c, 1, 43, 127
1, 78180, Note_on_c, 1, 64, 127
1, 78180, Note_on_c, 1, 73, 127
1, 78272, Note_off_c, 1, 43, 0
1, 78274, Note_on_c, 1, 42, 127
1, 78366, Note_off_c, 1, 64, 0
1, 78366, Note_off_c, 1, 73, 0
1, 78366, Note_off_c, 1, 42, 0
1, 78368, Note_on_c, 1, 40, 127
1, 78368, Note_on_c, 1, 66, 127
1, 78368, Note_on_c, 1, 74, 127
1, 78460, Note_off_c, 1, 40, 0
1, 78461, Note_on_c, 1, 38, 127
1, 78553, Note_off_c, 1, 38, 0
1, 78555, Note_on_c, 1, 45, 127
1, 78740, Note_off_c, 1, 66, 0
1, 78740, Note_off_c, 1, 74, 0
1, 78741, Note_on_c, 1, 71, 127
1, 78741, Note_on_c, 1, 62, 127
1, 78925, Note_off_c, 1, 71, 0
1, 78925, Note_off_c, 1, 62, 0
1, 78927, Note_on_c, 1, 73, 127
1, 78927, Note_on_c, 1, 64, 127
1, 79111, Note_off_c, 1, 73, 0
1, 79111, Note_off_c, 1, 64, 0
1, 79113, Note_on_c, 1, 67, 127
1, 79113, Note_on_c, 1, 76, 127
1, 79151, Note_off_c, 1, 45, 0
1, 79207, Note_on_c, 1, 44, 127
1, 79299, Note_off_c, 1, 44, 0
1, 79301, Note_on_c, 1, 46, 127
1, 79393, Note_off_c, 1, 46, 0
1, 79394, Note_on_c, 1, 47, 127
1, 79486, Note_off_c, 1, 47, 0
1, 79488, Note_on_c, 1, 49, 127
1, 79580, Note_off_c, 1, 49, 0
1, 79859, Note_off_c, 1, 67, 0
1, 79859, Note_off_c, 1, 76, 0
1, 80233, Note_on_c, 1, 79, 127
1, 80515, Note_on_c, 1, 50, 127
1, 80607, Note_off_c, 1, 50, 0
1, 80702, Note_on_c, 1, 52, 127
1, 80794, Note_off_c, 1, 52, 0
1, 80979, Note_off_c, 1, 79, 0
1, 80982, Note_on_c, 1, 69, 127
1, 80982, Note_on_c, 1, 78, 127
1, 81166, Note_off_c, 1, 69, 0
1, 81166, Note_off_c, 1, 78, 0
1, 81634, Note_on_c, 1, 48, 127
1, 81726, Note_off_c, 1, 48, 0
1, 81915, Note_on_c, 1, 43, 127
1, 82007, Note_off_c, 1, 43, 0
1, 82102, Note_on_c, 1, 52, 127
1, 82102, Note_on_c, 1, 67, 127
1, 82102, Note_on_c, 1, 76, 127
1, 82194, Note_off_c, 1, 52, 0
1, 82196, Note_on_c, 1, 54, 127
1, 82288, Note_off_c, 1, 67, 0
1, 82288, Note_off_c, 1, 76, 0
1, 82288, Note_off_c, 1, 54, 0
1, 82290, Note_on_c, 1, 55, 127
1, 82290, Note_on_c, 1, 74, 127
1, 82290, Note_on_c, 1, 66, 127
1, 82382, Note_off_c, 1, 55, 0
1, 82383, Note_on_c, 1, 57, 127
1, 82475, Note_off_c, 1, 57, 0
1, 82476, Note_off_c, 1, 74, 0
1, 82476, Note_off_c, 1, 66, 0
1, 82477, Note_on_c, 1, 67, 127
1, 82477, Note_on_c, 1, 76, 127
1, 82477, Note_on_c, 1, 58, 127
1, 82661, Note_off_c, 1, 67, 0
1, 82661, Note_off_c, 1, 76, 0
1, 82663, Note_on_c, 1, 73, 127
1, 82663, Note_on_c, 1, 64, 127
1, 82847, Note_off_c, 1, 73, 0
1, 82847, Note_off_c, 1, 64, 0
1, 82849, Note_on_c, 1, 66, 127
1, 82849, Note_on_c, 1, 74, 127
1, 83033, Note_off_c, 1, 66, 0
1, 83033, Note_off_c, 1, 74, 0
1, 83125, Note_off_c, 1, 58, 0
1, 83127, Note_on_c, 1, 57, 127
1, 83219, Note_off_c, 1, 57, 0
1, 83313, Note_on_c, 1, 55, 127
1, 83405, Note_off_c, 1, 55, 0
1, 83407, Note_on_c, 1, 52, 127
1, 83499, Note_off_c, 1, 52, 0
1, 83593, Note_on_c, 1, 65, 127
1, 83593, Note_on_c, 1, 57, 127
1, 83685, Note_off_c, 1, 65, 0
1, 83685, Note_off_c, 1, 57, 0
1, 83687, Note_on_c, 1, 64, 127
1, 83687, Note_on_c, 1, 55, 127
1, 83779, Note_off_c, 1, 64, 0
1, 83779, Note_off_c, 1, 55, 0
1, 83781, Note_on_c, 1, 65, 127
1, 83781, Note_on_c, 1, 57, 127
1, 83873, Note_off_c, 1, 65, 0
1, 83873, Note_off_c, 1, 57, 0
1, 83874, Note_on_c, 1, 62, 127
1, 83874, Note_on_c, 1, 53, 127
1, 83966, Note_off_c, 1, 62, 0
1, 83966, Note_off_c, 1, 53, 0
1, 83968, Note_on_c, 1, 69, 127
1, 83968, Note_on_c, 1, 50, 127
1, 84060, Note_off_c, 1, 69, 0
1, 84060, Note_off_c, 1, 50, 0
1, 84062, Note_on_c, 1, 65, 127
1, 84062, Note_on_c, 1, 53, 127
1, 84154, Note_off_c, 1, 65, 0
1, 84154, Note_off_c, 1, 53, 0
1, 84156, Note_on_c, 1, 55, 127
1, 84156, Note_on_c, 1, 70, 127
1, 84248, Note_off_c, 1, 55, 0
1, 84249, Note_on_c, 1, 53, 127
1, 84341, Note_off_c, 1, 53, 0
1, 84343, Note_on_c, 1, 64, 127
1, 84437, Note_on_c, 1, 52, 127
1, 84529, Note_off_c, 1, 70, 0
1, 84529, Note_off_c, 1, 52, 0
1, 84530, Note_on_c, 1, 49, 127
1, 84530, Note_on_c, 1, 67, 127
1, 84622, Note_off_c, 1, 49, 0
1, 84716, Note_off_c, 1, 67, 0
1, 84718, Note_on_c, 1, 69, 127
1, 84898, Note_off_c, 1, 64, 0
1, 84904, Note_on_c, 1, 61, 127
1, 84998, Note_on_c, 1, 50, 127
1, 85090, Note_off_c, 1, 61, 0
1, 85090, Note_off_c, 1, 50, 0
1, 85091, Note_on_c, 1, 47, 127
1, 85091, Note_on_c, 1, 62, 127
1, 85183, Note_off_c, 1, 47, 0
1, 85271, Note_off_c, 1, 69, 0
1, 85463, Note_off_c, 1, 62, 0
1, 85652, Note_on_c, 1, 45, 127
1, 85744, Note_off_c, 1, 45, 0
1, 85838, Note_on_c, 1, 65, 127
1, 86026, Note_on_c, 1, 57, 127
1, 86212, Note_off_c, 1, 57, 0
1, 86213, Note_on_c, 1, 46, 127
1, 86305, Note_off_c, 1, 46, 0
1, 86401, Note_on_c, 1, 59, 127
1, 86401, Note_on_c, 1, 44, 127
1, 86496, Note_off_c, 1, 65, 0
1, 86957, Note_off_c, 1, 59, 0
1, 86979, Note_on_c, 1, 71, 127
1, 87243, Note_off_c, 1, 71, 0
1, 87524, Note_off_c, 1, 44, 0
1, 87541, Note_on_c, 1, 61, 127
1, 87541, Note_on_c, 1, 45, 127
1, 87635, Note_on_c, 1, 57, 127
1, 87717, Note_off_c, 1, 61, 0
1, 87727, Note_off_c, 1, 57, 0
1, 87729, Note_on_c, 1, 55, 127
1, 87821, Note_off_c, 1, 55, 0
1, 87822, Note_on_c, 1, 54, 127
1, 87914, Note_off_c, 1, 54, 0
1, 87916, Note_on_c, 1, 52, 127
1, 88008, Note_off_c, 1, 52, 0
1, 88010, Note_on_c, 1, 50, 127
1, 88102, Note_off_c, 1, 50, 0
1, 88104, Note_on_c, 1, 49, 127
1, 88195, Note_off_c, 1, 45, 0
1, 88196, Note_off_c, 1, 49, 0
1, 88197, Note_on_c, 1, 47, 127
1, 88289, Note_off_c, 1, 47, 0
1, 88291, Note_on_c, 1, 45, 127
1, 88383, Note_off_c, 1, 45, 0
1, 88385, Note_on_c, 1, 43, 127
1, 88477, Note_off_c, 1, 43, 0
1, 88478, Note_on_c, 1, 42, 127
1, 88570, Note_off_c, 1, 42, 0
1, 88572, Note_on_c, 1, 40, 127
1, 88664, Note_off_c, 1, 40, 0
1, 88666, Note_on_c, 1, 38, 127
1, 88871, Note_on_c, 1, 50, 127
1, 88963, Note_off_c, 1, 50, 0
1, 88964, Note_on_c, 1, 52, 127
1, 89056, Note_off_c, 1, 52, 0
1, 89058, Note_on_c, 1, 54, 127
1, 89150, Note_off_c, 1, 54, 0
1, 89152, Note_on_c, 1, 55, 127
1, 89244, Note_off_c, 1, 55, 0
1, 89246, Note_on_c, 1, 57, 127
1, 89429, Note_off_c, 1, 57, 0
1, 89799, Note_on_c, 1, 62, 127
1, 89982, Note_off_c, 1, 62, 0
1, 90353, Note_on_c, 1, 66, 127
1, 90536, Note_off_c, 1, 66, 0
1, 90881, Note_off_c, 1, 38, 0
1, 90906, Note_on_c, 1, 69, 127
1, 91456, Note_off_c, 1, 69, 0
1, 91458, Note_on_c, 1, 78, 127
1, 91458, Note_on_c, 1, 69, 127
1, 91458, Note_on_c, 1, 50, 127
1, 92008, Note_off_c, 1, 78, 0
1, 92008, Note_off_c, 1, 69, 0
1, 92008, Note_off_c, 1, 50, 0
1, 92010, Note_on_c, 1, 79, 127
1, 92010, Note_on_c, 1, 69, 127
1, 92010, Note_on_c, 1, 57, 127
1, 92097, Note_on_c, 1, 78, 127
1, 92100, Note_off_c, 1, 79, 0
1, 92187, Note_off_c, 1, 78, 0
1, 92377, Note_off_c, 1, 69, 0
1, 92380, Note_on_c, 1, 67, 127
1, 92380, Note_on_c, 1, 76, 127
1, 92562, Note_off_c, 1, 57, 0
1, 92563, Note_off_c, 1, 67, 0
1, 92563, Note_off_c, 1, 76, 0
1, 92564, Note_on_c, 1, 78, 127
1, 92564, Note_on_c, 1, 67, 127
1, 92564, Note_on_c, 1, 45, 127
1, 92651, Note_on_c, 1, 76, 127
1, 92654, Note_off_c, 1, 78, 0
1, 92741, Note_off_c, 1, 76, 0
1, 92931, Note_off_c, 1, 67, 0
1, 92933, Note_on_c, 1, 66, 127
1, 92933, Note_on_c, 1, 74, 127
1, 93116, Note_off_c, 1, 45, 0
1, 93116, Note_off_c, 1, 66, 0
1, 93116, Note_off_c, 1, 74, 0
1, 93118, Note_on_c, 1, 66, 127
1, 93118, Note_on_c, 1, 74, 127
1, 93118, Note_on_c, 1, 50, 127
1, 93301, Note_off_c, 1, 66, 0
1, 93301, Note_off_c, 1, 74, 0
1, 93303, Note_on_c, 1, 62, 127
1, 93393, Note_off_c, 1, 62, 0
1, 93395, Note_on_c, 1, 64, 127
1, 93485, Note_off_c, 1, 64, 0
1, 93579, Note_on_c, 1, 67, 127
1, 93669, Note_off_c, 1, 67, 0
1, 93672, Note_on_c, 1, 69, 127
1, 93854, Note_off_c, 1, 50, 0
1, 93856, Note_on_c, 1, 60, 127
1, 93946, Note_off_c, 1, 60, 0
1, 93949, Note_on_c, 1, 59, 127
1, 94039, Note_off_c, 1, 69, 0
1, 94039, Note_off_c, 1, 59, 0
1, 94041, Note_on_c, 1, 57, 127
1, 94041, Note_on_c, 1, 69, 127
1, 94131, Note_off_c, 1, 57, 0
1, 94133, Note_on_c, 1, 55, 127
1, 94223, Note_off_c, 1, 55, 0
1, 94224, Note_off_c, 1, 69, 0
1, 94226, Note_on_c, 1, 54, 127
1, 94226, Note_on_c, 1, 72, 127
1, 94409, Note_off_c, 1, 54, 0
1, 94410, Note_on_c, 1, 69, 127
1, 94410, Note_on_c, 1, 57, 127
1, 94593, Note_off_c, 1, 72, 0
1, 94593, Note_off_c, 1, 69, 0
1, 94593, Note_off_c, 1, 57, 0
1, 94595, Note_on_c, 1, 72, 127
1, 94595, Note_on_c, 1, 54, 127
1, 94778, Note_off_c, 1, 72, 0
1, 94778, Note_off_c, 1, 54, 0
1, 94779, Note_on_c, 1, 50, 127
1, 94779, Note_on_c, 1, 78, 127
1, 94962, Note_off_c, 1, 50, 0
1, 94964, Note_on_c, 1, 72, 127
1, 94964, Note_on_c, 1, 54, 127
1, 95146, Note_off_c, 1, 78, 0
1, 95147, Note_off_c, 1, 72, 0
1, 95147, Note_off_c, 1, 54, 0
1, 95149, Note_on_c, 1, 78, 127
1, 95149, Note_on_c, 1, 50, 127
1, 95332, Note_off_c, 1, 78, 0
1, 95332, Note_off_c, 1, 50, 0
1, 95333, Note_on_c, 1, 45, 127
1, 95333, Note_on_c, 1, 81, 127
1, 95516, Note_off_c, 1, 45, 0
1, 95518, Note_on_c, 1, 50, 127
1, 95701, Note_off_c, 1, 50, 0
1, 95885, Note_off_c, 1, 81, 0
1, 95887, Note_on_c, 1, 42, 127
1, 95887, Note_on_c, 1, 69, 127
1, 95887, Note_on_c, 1, 72, 127
1, 96070, Note_off_c, 1, 42, 0
1, 96072, Note_on_c, 1, 45, 127
1, 96255, Note_off_c, 1, 45, 0
1, 96439, Note_off_c, 1, 69, 0
1, 96439, Note_off_c, 1, 72, 0
1, 96441, Note_on_c, 1, 74, 127
1, 96441, Note_on_c, 1, 69, 127
1, 96441, Note_on_c, 1, 38, 127
1, 96527, Note_on_c, 1, 72, 127
1, 96531, Note_off_c, 1, 74, 0
1, 96617, Note_off_c, 1, 72, 0
1, 96808, Note_off_c, 1, 69, 0
1, 96810, Note_on_c, 1, 71, 127
1, 96810, Note_on_c, 1, 67, 127
1, 96993, Note_off_c, 1, 38, 0
1, 96993, Note_off_c, 1, 71, 0
1, 96993, Note_off_c, 1, 67, 0
1, 96995, Note_on_c, 1, 72, 127
1, 96995, Note_on_c, 1, 67, 127
1, 96995, Note_on_c, 1, 50, 127
1, 97081, Note_on_c, 1, 71, 127
1, 97085, Note_off_c, 1, 72, 0
1, 97171, Note_off_c, 1, 71, 0
1, 97362, Note_off_c, 1, 67, 0
1, 97364, Note_on_c, 1, 69, 127
1, 97364, Note_on_c, 1, 66, 127
1, 97547, Note_off_c, 1, 50, 0
1, 97547, Note_off_c, 1, 69, 0
1, 97547, Note_off_c, 1, 66, 0
1, 97548, Note_on_c, 1, 67, 127
1, 97548, Note_on_c, 1, 71, 127
1, 97548, Note_on_c, 1, 43, 127
1, 97731, Note_off_c, 1, 67, 0
1, 97731, Note_off_c, 1, 71, 0
1, 97733, Note_on_c, 1, 83, 127
1, 97823, Note_off_c, 1, 83, 0
1, 97825, Note_on_c, 1, 81, 127
1, 97915, Note_off_c, 1, 43, 0
1, 97915, Note_off_c, 1, 81, 0
1, 97918, Note_on_c, 1, 79, 127
1, 97918, Note_on_c, 1, 50, 127
1, 98008, Note_off_c, 1, 79, 0
1, 98010, Note_on_c, 1, 78, 127
1, 98100, Note_off_c, 1, 78, 0
1, 98101, Note_off_c, 1, 50, 0
1, 98102, Note_on_c, 1, 76, 127
1, 98102, Note_on_c, 1, 55, 127
1, 98285, Note_off_c, 1, 76, 0
1, 98287, Note_on_c, 1, 79, 127
1, 98470, Note_off_c, 1, 79, 0
1, 98562, Note_off_c, 1, 55, 0
1, 98656, Note_on_c, 1, 73, 127
1, 98656, Note_on_c, 1, 55, 127
1, 98841, Note_on_c, 1, 57, 127
1, 98930, Note_off_c, 1, 73, 0
1, 98931, Note_off_c, 1, 57, 0
1, 98933, Note_on_c, 1, 59, 127
1, 99023, Note_off_c, 1, 59, 0
1, 99025, Note_on_c, 1, 61, 127
1, 99115, Note_off_c, 1, 61, 0
1, 99117, Note_on_c, 1, 62, 127
1, 99207, Note_off_c, 1, 62, 0
1, 99210, Note_on_c, 1, 64, 127
1, 99392, Note_off_c, 1, 55, 0
1, 99393, Note_off_c, 1, 64, 0
1, 99394, Note_on_c, 1, 45, 127
1, 99394, Note_on_c, 1, 61, 127
1, 99484, Note_off_c, 1, 45, 0
1, 99487, Note_on_c, 1, 43, 127
1, 99577, Note_off_c, 1, 61, 0
1, 99577, Note_off_c, 1, 43, 0
1, 99579, Note_on_c, 1, 42, 127
1, 99579, Note_on_c, 1, 64, 127
1, 99669, Note_off_c, 1, 42, 0
1, 99671, Note_on_c, 1, 40, 127
1, 99761, Note_off_c, 1, 40, 0
1, 99762, Note_off_c, 1, 64, 0
1, 99764, Note_on_c, 1, 69, 127
1, 99764, Note_on_c, 1, 42, 127
1, 99948, Note_on_c, 1, 81, 127
1, 100038, Note_off_c, 1, 69, 0
1, 100038, Note_off_c, 1, 81, 0
1, 100040, Note_on_c, 1, 79, 127
1, 100130, Note_off_c, 1, 79, 0
1, 100131, Note_off_c, 1, 42, 0
1, 100133, Note_on_c, 1, 78, 127
1, 100133, Note_on_c, 1, 54, 127
1, 100223, Note_off_c, 1, 78, 0
1, 100225, Note_on_c, 1, 76, 127
1, 100315, Note_off_c, 1, 76, 0
1, 100316, Note_off_c, 1, 54, 0
1, 100317, Note_on_c, 1, 74, 127
1, 100317, Note_on_c, 1, 54, 127
1, 100500, Note_off_c, 1, 74, 0
1, 100502, Note_on_c, 1, 78, 127
1, 100685, Note_off_c, 1, 78, 0
1, 100777, Note_off_c, 1, 54, 0
1, 100871, Note_on_c, 1, 71, 127
1, 100871, Note_on_c, 1, 54, 127
1, 101056, Note_on_c, 1, 55, 127
1, 101145, Note_off_c, 1, 71, 0
1, 101146, Note_off_c, 1, 55, 0
1, 101148, Note_on_c, 1, 57, 127
1, 101238, Note_off_c, 1, 57, 0
1, 101240, Note_on_c, 1, 59, 127
1, 101330, Note_off_c, 1, 59, 0
1, 101333, Note_on_c, 1, 61, 127
1, 101423, Note_off_c, 1, 61, 0
1, 101425, Note_on_c, 1, 62, 127
1, 101607, Note_off_c, 1, 54, 0
1, 101608, Note_off_c, 1, 62, 0
1, 101610, Note_on_c, 1, 43, 127
1, 101610, Note_on_c, 1, 59, 127
1, 101700, Note_off_c, 1, 43, 0
1, 101702, Note_on_c, 1, 42, 127
1, 101792, Note_off_c, 1, 42, 0
1, 101793, Note_off_c, 1, 59, 0
1, 101794, Note_on_c, 1, 40, 127
1, 101794, Note_on_c, 1, 62, 127
1, 101884, Note_off_c, 1, 40, 0
1, 101886, Note_on_c, 1, 38, 127
1, 101976, Note_off_c, 1, 38, 0
1, 101977, Note_off_c, 1, 62, 0
1, 101979, Note_on_c, 1, 40, 127
1, 101979, Note_on_c, 1, 67, 127
1, 102162, Note_off_c, 1, 40, 0
1, 102163, Note_on_c, 1, 59, 127
1, 102253, Note_off_c, 1, 59, 0
1, 102256, Note_on_c, 1, 57, 127
1, 102346, Note_off_c, 1, 57, 0
1, 102348, Note_on_c, 1, 55, 127
1, 102348, Note_on_c, 1, 62, 127
1, 102348, Note_on_c, 1, 71, 127
1, 102438, Note_off_c, 1, 55, 0
1, 102440, Note_on_c, 1, 54, 127
1, 102527, Note_off_c, 1, 67, 0
1, 102530, Note_off_c, 1, 54, 0
1, 102531, Note_off_c, 1, 62, 0
1, 102531, Note_off_c, 1, 71, 0
1, 102533, Note_on_c, 1, 52, 127
1, 102533, Note_on_c, 1, 67, 127
1, 102533, Note_on_c, 1, 71, 127
1, 102716, Note_off_c, 1, 52, 0
1, 102717, Note_on_c, 1, 55, 127
1, 102900, Note_off_c, 1, 55, 0
1, 102993, Note_off_c, 1, 67, 0
1, 102993, Note_off_c, 1, 71, 0
1, 103086, Note_on_c, 1, 49, 127
1, 103086, Note_on_c, 1, 69, 127
1, 103086, Note_on_c, 1, 67, 127
1, 103269, Note_off_c, 1, 49, 0
1, 103271, Note_on_c, 1, 52, 127
1, 103454, Note_off_c, 1, 52, 0
1, 103640, Note_on_c, 1, 45, 127
1, 103822, Note_off_c, 1, 69, 0
1, 103822, Note_off_c, 1, 67, 0
1, 103823, Note_off_c, 1, 45, 0
1, 103825, Note_on_c, 1, 69, 127
1, 103825, Note_on_c, 1, 49, 127
1, 103915, Note_off_c, 1, 69, 0
1, 103917, Note_on_c, 1, 67, 127
1, 104007, Note_off_c, 1, 67, 0
1, 104008, Note_off_c, 1, 49, 0
1, 104009, Note_on_c, 1, 66, 127
1, 104009, Note_on_c, 1, 45, 127
1, 104099, Note_off_c, 1, 66, 0
1, 104102, Note_on_c, 1, 64, 127
1, 104192, Note_off_c, 1, 45, 0
1, 104192, Note_off_c, 1, 64, 0
1, 104194, Note_on_c, 1, 50, 127
1, 104194, Note_on_c, 1, 66, 127
1, 104377, Note_off_c, 1, 50, 0
1, 104379, Note_on_c, 1, 62, 127
1, 104379, Note_on_c, 1, 54, 127
1, 104459, Note_off_c, 1, 66, 0
1, 104469, Note_off_c, 1, 62, 0
1, 104471, Note_on_c, 1, 64, 127
1, 104561, Note_off_c, 1, 64, 0
1, 104562, Note_off_c, 1, 54, 0
1, 104563, Note_on_c, 1, 66, 127
1, 104563, Note_on_c, 1, 50, 127
1, 104653, Note_off_c, 1, 66, 0
1, 104655, Note_on_c, 1, 67, 127
1, 104745, Note_off_c, 1, 67, 0
1, 104746, Note_off_c, 1, 50, 0
1, 104748, Note_on_c, 1, 69, 127
1, 104748, Note_on_c, 1, 47, 127
1, 104748, Note_on_c, 1, 74, 127
1, 104931, Note_off_c, 1, 69, 0
1, 104931, Note_off_c, 1, 47, 0
1, 104932, Note_on_c, 1, 67, 127
1, 104932, Note_on_c, 1, 50, 127
1, 105022, Note_off_c, 1, 67, 0
1, 105025, Note_on_c, 1, 66, 127
1, 105115, Note_off_c, 1, 50, 0
1, 105115, Note_off_c, 1, 66, 0
1, 105117, Note_on_c, 1, 64, 127
1, 105207, Note_off_c, 1, 64, 0
1, 105209, Note_on_c, 1, 62, 127
1, 105296, Note_off_c, 1, 74, 0
1, 105299, Note_off_c, 1, 62, 0
1, 105302, Note_on_c, 1, 67, 127
1, 105302, Note_on_c, 1, 52, 127
1, 105302, Note_on_c, 1, 71, 127
1, 105485, Note_off_c, 1, 67, 0
1, 105485, Note_off_c, 1, 52, 0
1, 105486, Note_on_c, 1, 64, 127
1, 105486, Note_on_c, 1, 55, 127
1, 105576, Note_off_c, 1, 64, 0
1, 105578, Note_on_c, 1, 66, 127
1, 105668, Note_off_c, 1, 66, 0
1, 105669, Note_off_c, 1, 55, 0
1, 105763, Note_on_c, 1, 69, 127
1, 105850, Note_off_c, 1, 71, 0
1, 105853, Note_off_c, 1, 69, 0
1, 105855, Note_on_c, 1, 71, 127
1, 105855, Note_on_c, 1, 49, 127
1, 105855, Note_on_c, 1, 76, 127
1, 106038, Note_off_c, 1, 71, 0
1, 106038, Note_off_c, 1, 49, 0
1, 106040, Note_on_c, 1, 69, 127
1, 106040, Note_on_c, 1, 52, 127
1, 106130, Note_off_c, 1, 69, 0
1, 106132, Note_on_c, 1, 67, 127
1, 106222, Note_off_c, 1, 67, 0
1, 106223, Note_off_c, 1, 52, 0
1, 106225, Note_on_c, 1, 66, 127
1, 106315, Note_off_c, 1, 66, 0
1, 106317, Note_on_c, 1, 64, 127
1, 106407, Note_off_c, 1, 64, 0
1, 106409, Note_on_c, 1, 54, 127
1, 106592, Note_off_c, 1, 54, 0
1, 106594, Note_on_c, 1, 50, 127
1, 106684, Note_off_c, 1, 50, 0
1, 106871, Note_on_c, 1, 55, 127
1, 106961, Note_off_c, 1, 76, 0
1, 106961, Note_off_c, 1, 55, 0
1, 106963, Note_on_c, 1, 57, 127
1, 106963, Note_on_c, 1, 74, 127
1, 106963, Note_on_c, 1, 66, 127
1, 107146, Note_off_c, 1, 57, 0
1, 107148, Note_on_c, 1, 55, 127
1, 107238, Note_off_c, 1, 55, 0
1, 107240, Note_on_c, 1, 54, 127
1, 107330, Note_off_c, 1, 74, 0
1, 107330, Note_off_c, 1, 54, 0
1, 107332, Note_on_c, 1, 52, 127
1, 107332, Note_on_c, 1, 72, 127
1, 107422, Note_off_c, 1, 52, 0
1, 107424, Note_on_c, 1, 50, 127
1, 107514, Note_off_c, 1, 50, 0
1, 107515, Note_off_c, 1, 72, 0
1, 107517, Note_on_c, 1, 71, 127
1, 107884, Note_off_c, 1, 71, 0
1, 107886, Note_on_c, 1, 69, 127
1, 108069, Note_off_c, 1, 66, 0
1, 108069, Note_off_c, 1, 69, 0
1, 108071, Note_on_c, 1, 59, 127
1, 108071, Note_on_c, 1, 64, 127
1, 108071, Note_on_c, 1, 67, 127
1, 108254, Note_off_c, 1, 59, 0
1, 108255, Note_on_c, 1, 57, 127
1, 108345, Note_off_c, 1, 57, 0
1, 108347, Note_on_c, 1, 55, 127
1, 108437, Note_off_c, 1, 55, 0
1, 108438, Note_off_c, 1, 64, 0
1, 108440, Note_on_c, 1, 54, 127
1, 108440, Note_on_c, 1, 62, 127
1, 108530, Note_off_c, 1, 54, 0
1, 108532, Note_on_c, 1, 52, 127
1, 108619, Note_off_c, 1, 67, 0
1, 108622, Note_off_c, 1, 52, 0
1, 108623, Note_off_c, 1, 62, 0
1, 108624, Note_on_c, 1, 57, 127
1, 108624, Note_on_c, 1, 61, 127
1, 108805, Note_off_c, 1, 57, 0
1, 108901, Note_on_c, 1, 59, 127
1, 108991, Note_off_c, 1, 61, 0
1, 108991, Note_off_c, 1, 59, 0
1, 108994, Note_on_c, 1, 61, 127
1, 108994, Note_on_c, 1, 45, 127
1, 109084, Note_off_c, 1, 61, 0
1, 109086, Note_on_c, 1, 62, 127
1, 109176, Note_off_c, 1, 62, 0
1, 109177, Note_off_c, 1, 45, 0
1, 109178, Note_on_c, 1, 64, 127
1, 109178, Note_on_c, 1, 45, 127
1, 109178, Note_on_c, 1, 67, 127
1, 109361, Note_off_c, 1, 64, 0
1, 109363, Note_on_c, 1, 61, 127
1, 109546, Note_off_c, 1, 61, 0
1, 109638, Note_off_c, 1, 45, 0
1, 109726, Note_off_c, 1, 67, 0
1, 109732, Note_on_c, 1, 67, 127
1, 109732, Note_on_c, 1, 73, 127
1, 109732, Note_on_c, 1, 45, 127
1, 109915, Note_off_c, 1, 67, 0
1, 109917, Note_on_c, 1, 64, 127
1, 110100, Note_off_c, 1, 64, 0
1, 110278, Note_off_c, 1, 73, 0
1, 110284, Note_on_c, 1, 76, 127
1, 110559, Note_off_c, 1, 45, 0
1, 110561, Note_on_c, 1, 52, 127
1, 110651, Note_off_c, 1, 52, 0
1, 110653, Note_on_c, 1, 54, 127
1, 110743, Note_off_c, 1, 54, 0
1, 110746, Note_on_c, 1, 55, 127
1, 110832, Note_off_c, 1, 76, 0
1, 110836, Note_off_c, 1, 55, 0
1, 110838, Note_on_c, 1, 57, 127
1, 110838, Note_on_c, 1, 66, 127
1, 111023, Note_on_c, 1, 74, 127
1, 111113, Note_off_c, 1, 74, 0
1, 111115, Note_on_c, 1, 73, 127
1, 111205, Note_off_c, 1, 57, 0
1, 111205, Note_off_c, 1, 73, 0
1, 111207, Note_on_c, 1, 71, 127
1, 111207, Note_on_c, 1, 45, 127
1, 111297, Note_off_c, 1, 71, 0
1, 111300, Note_on_c, 1, 69, 127
1, 111386, Note_off_c, 1, 66, 0
1, 111390, Note_off_c, 1, 45, 0
1, 111390, Note_off_c, 1, 69, 0
1, 111392, Note_on_c, 1, 68, 127
1, 111392, Note_on_c, 1, 45, 127
1, 111392, Note_on_c, 1, 62, 127
1, 111575, Note_off_c, 1, 68, 0
1, 111576, Note_on_c, 1, 71, 127
1, 111759, Note_off_c, 1, 71, 0
1, 111852, Note_off_c, 1, 45, 0
1, 111940, Note_off_c, 1, 62, 0
1, 111946, Note_on_c, 1, 62, 127
1, 111946, Note_on_c, 1, 59, 127
1, 111946, Note_on_c, 1, 45, 127
1, 112129, Note_off_c, 1, 62, 0
1, 112130, Note_on_c, 1, 68, 127
1, 112313, Note_off_c, 1, 68, 0
1, 112492, Note_off_c, 1, 59, 0
1, 112498, Note_on_c, 1, 56, 127
1, 113044, Note_off_c, 1, 56, 0
1, 113050, Note_on_c, 1, 61, 127
1, 113050, Note_on_c, 1, 57, 127
1, 113233, Note_off_c, 1, 61, 0
1, 113326, Note_off_c, 1, 45, 0
1, 113327, Note_on_c, 1, 42, 127
1, 113417, Note_off_c, 1, 57, 0
1, 113417, Note_off_c, 1, 42, 0
1, 113420, Note_on_c, 1, 43, 127
1, 113420, Note_on_c, 1, 55, 127
1, 113420, Note_on_c, 1, 57, 127
1, 113510, Note_off_c, 1, 43, 0
1, 113512, Note_on_c, 1, 45, 127
1, 113602, Note_off_c, 1, 45, 0
1, 113603, Note_off_c, 1, 55, 0
1, 113603, Note_off_c, 1, 57, 0
1, 113604, Note_on_c, 1, 47, 127
1, 113604, Note_on_c, 1, 62, 127
1, 113604, Note_on_c, 1, 54, 127
1, 113787, Note_off_c, 1, 47, 0
1, 113789, Note_on_c, 1, 45, 127
1, 113971, Note_off_c, 1, 62, 0
1, 113971, Note_off_c, 1, 54, 0
1, 113972, Note_off_c, 1, 45, 0
1, 113973, Note_on_c, 1, 64, 127
1, 113973, Note_on_c, 1, 43, 127
1, 113973, Note_on_c, 1, 67, 127
1, 114156, Note_off_c, 1, 64, 0
1, 114156, Note_off_c, 1, 43, 0
1, 114158, Note_on_c, 1, 61, 127
1, 114158, Note_on_c, 1, 45, 127
1, 114340, Note_off_c, 1, 67, 0
1, 114343, Note_on_c, 1, 66, 127
1, 114433, Note_off_c, 1, 66, 0
1, 114525, Note_off_c, 1, 61, 0
1, 114525, Note_off_c, 1, 45, 0
1, 114527, Note_on_c, 1, 66, 127
1, 114527, Note_on_c, 1, 57, 127
1, 114527, Note_on_c, 1, 62, 127
1, 114710, Note_off_c, 1, 66, 0
1, 114710, Note_off_c, 1, 57, 0
1, 114712, Note_on_c, 1, 64, 127
1, 114894, Note_off_c, 1, 62, 0
1, 114896, Note_on_c, 1, 61, 127
1, 114986, Note_off_c, 1, 61, 0
1, 114989, Note_on_c, 1, 59, 127
1, 115079, Note_off_c, 1, 64, 0
1, 115079, Note_off_c, 1, 59, 0
1, 115081, Note_on_c, 1, 69, 127
1, 115081, Note_on_c, 1, 61, 127
1, 115081, Note_on_c, 1, 45, 127
1, 115264, Note_off_c, 1, 69, 0
1, 115264, Note_off_c, 1, 61, 0
1, 115264, Note_off_c, 1, 45, 0
1, 115266, Note_on_c, 1, 66, 127
1, 115266, Note_on_c, 1, 62, 127
1, 115266, Note_on_c, 1, 50, 127
1, 115356, Note_off_c, 1, 66, 0
1, 115356, Note_off_c, 1, 62, 0
1, 115358, Note_on_c, 1, 69, 127
1, 115448, Note_off_c, 1, 69, 0
1, 115450, Note_on_c, 1, 71, 127
1, 115540, Note_off_c, 1, 71, 0
1, 115543, Note_on_c, 1, 73, 127
1, 115633, Note_off_c, 1, 50, 0
1, 115633, Note_off_c, 1, 73, 0
1, 115635, Note_on_c, 1, 74, 127
1, 115635, Note_on_c, 1, 57, 127
1, 115725, Note_off_c, 1, 74, 0
1, 115727, Note_on_c, 1, 76, 127
1, 115817, Note_off_c, 1, 76, 0
1, 115818, Note_off_c, 1, 57, 0
1, 115819, Note_on_c, 1, 78, 127
1, 115819, Note_on_c, 1, 62, 127
1, 115912, Note_on_c, 1, 76, 127
1, 116002, Note_off_c, 1, 76, 0
1, 116004, Note_on_c, 1, 74, 127
1, 116078, Note_off_c, 1, 78, 0
1, 116094, Note_off_c, 1, 74, 0
1, 116096, Note_on_c, 1, 73, 127
1, 116186, Note_off_c, 1, 73, 0
1, 116189, Note_on_c, 1, 71, 127
1, 116279, Note_off_c, 1, 71, 0
1, 116281, Note_on_c, 1, 69, 127
1, 116371, Note_off_c, 1, 69, 0
1, 116373, Note_on_c, 1, 68, 127
1, 116555, Note_off_c, 1, 62, 0
1, 116558, Note_on_c, 1, 64, 127
1, 116648, Note_off_c, 1, 64, 0
1, 116742, Note_on_c, 1, 61, 127
1, 116832, Note_off_c, 1, 61, 0
1, 116835, Note_on_c, 1, 59, 127
1, 116921, Note_off_c, 1, 68, 0
1, 116925, Note_off_c, 1, 59, 0
1, 116927, Note_on_c, 1, 58, 127
1, 116927, Note_on_c, 1, 76, 127
1, 117110, Note_off_c, 1, 58, 0
1, 117112, Note_on_c, 1, 59, 127
1, 117112, Note_on_c, 1, 73, 127
1, 117202, Note_off_c, 1, 59, 0
1, 117295, Note_off_c, 1, 73, 0
1, 117296, Note_on_c, 1, 56, 127
1, 117296, Note_on_c, 1, 70, 127
1, 117386, Note_off_c, 1, 56, 0
1, 117389, Note_on_c, 1, 54, 127
1, 117479, Note_off_c, 1, 70, 0
1, 117479, Note_off_c, 1, 54, 0
1, 117481, Note_on_c, 1, 66, 127
1, 117665, Note_off_c, 1, 76, 0
1, 117665, Note_off_c, 1, 66, 0
1, 117667, Note_on_c, 1, 68, 127
1, 117759, Note_off_c, 1, 68, 0
1, 117854, Note_on_c, 1, 71, 127
1, 117854, Note_on_c, 1, 47, 127
1, 117946, Note_off_c, 1, 71, 0
1, 118038, Note_off_c, 1, 47, 0
1, 118040, Note_on_c, 1, 74, 127
1, 118040, Note_on_c, 1, 59, 127
1, 118134, Note_on_c, 1, 73, 127
1, 118226, Note_off_c, 1, 73, 0
1, 118228, Note_on_c, 1, 71, 127
1, 118320, Note_off_c, 1, 71, 0
1, 118321, Note_on_c, 1, 69, 127
1, 118413, Note_off_c, 1, 74, 0
1, 118413, Note_off_c, 1, 69, 0
1, 118415, Note_on_c, 1, 67, 127
1, 118507, Note_off_c, 1, 67, 0
1, 118509, Note_on_c, 1, 66, 127
1, 118601, Note_off_c, 1, 66, 0
1, 118603, Note_on_c, 1, 64, 127
1, 118786, Note_off_c, 1, 59, 0
1, 118789, Note_on_c, 1, 60, 127
1, 118881, Note_off_c, 1, 60, 0
1, 118976, Note_on_c, 1, 57, 127
1, 118976, Note_on_c, 1, 72, 127
1, 119068, Note_off_c, 1, 57, 0
1, 119070, Note_on_c, 1, 55, 127
1, 119156, Note_off_c, 1, 64, 0
1, 119160, Note_off_c, 1, 72, 0
1, 119160, Note_off_c, 1, 55, 0
1, 119162, Note_on_c, 1, 54, 127
1, 119162, Note_on_c, 1, 72, 127
1, 119346, Note_off_c, 1, 54, 0
1, 119348, Note_on_c, 1, 55, 127
1, 119348, Note_on_c, 1, 69, 127
1, 119440, Note_off_c, 1, 55, 0
1, 119534, Note_off_c, 1, 69, 0
1, 119536, Note_on_c, 1, 52, 127
1, 119536, Note_on_c, 1, 66, 127
1, 119628, Note_off_c, 1, 52, 0
1, 119629, Note_on_c, 1, 50, 127
1, 119721, Note_off_c, 1, 50, 0
1, 119722, Note_off_c, 1, 66, 0
1, 119723, Note_on_c, 1, 62, 127
1, 119910, Note_off_c, 1, 72, 0
1, 119910, Note_off_c, 1, 62, 0
1, 119912, Note_on_c, 1, 64, 127
1, 120004, Note_off_c, 1, 64, 0
1, 120099, Note_on_c, 1, 67, 127
1, 120099, Note_on_c, 1, 43, 127
1, 120191, Note_off_c, 1, 67, 0
1, 120193, Note_on_c, 1, 69, 127
1, 120285, Note_off_c, 1, 43, 0
1, 120285, Note_off_c, 1, 69, 0
1, 120287, Note_on_c, 1, 71, 127
1, 120287, Note_on_c, 1, 55, 127
1, 120380, Note_on_c, 1, 69, 127
1, 120472, Note_off_c, 1, 69, 0
1, 120474, Note_on_c, 1, 67, 127
1, 120566, Note_off_c, 1, 67, 0
1, 120568, Note_on_c, 1, 66, 127
1, 120660, Note_off_c, 1, 66, 0
1, 120662, Note_on_c, 1, 64, 127
1, 120754, Note_off_c, 1, 64, 0
1, 120755, Note_on_c, 1, 62, 127
1, 120843, Note_off_c, 1, 71, 0
1, 120847, Note_off_c, 1, 62, 0
1, 120849, Note_on_c, 1, 61, 127
1, 121036, Note_off_c, 1, 55, 0
1, 121038, Note_on_c, 1, 57, 127
1, 121130, Note_off_c, 1, 57, 0
1, 121223, Note_off_c, 1, 61, 0
1, 121225, Note_on_c, 1, 54, 127
1, 121225, Note_on_c, 1, 69, 127
1, 121225, Note_on_c, 1, 61, 127
1, 121317, Note_off_c, 1, 54, 0
1, 121319, Note_on_c, 1, 52, 127
1, 121411, Note_off_c, 1, 69, 0
1, 121411, Note_off_c, 1, 61, 0
1, 121411, Note_off_c, 1, 52, 0
1, 121413, Note_on_c, 1, 66, 127
1, 121413, Note_on_c, 1, 50, 127
1, 121413, Note_on_c, 1, 62, 127
1, 121600, Note_off_c, 1, 66, 0
1, 121600, Note_off_c, 1, 50, 0
1, 121602, Note_on_c, 1, 52, 127
1, 121602, Note_on_c, 1, 69, 127
1, 121694, Note_off_c, 1, 52, 0
1, 121695, Note_on_c, 1, 54, 127
1, 121787, Note_off_c, 1, 62, 0
1, 121787, Note_off_c, 1, 54, 0
1, 121788, Note_off_c, 1, 69, 0
1, 121789, Note_on_c, 1, 55, 127
1, 121789, Note_on_c, 1, 66, 127
1, 121789, Note_on_c, 1, 74, 127
1, 121881, Note_off_c, 1, 55, 0
1, 121883, Note_on_c, 1, 57, 127
1, 121975, Note_off_c, 1, 66, 0
1, 121975, Note_off_c, 1, 57, 0
1, 121977, Note_on_c, 1, 67, 127
1, 121977, Note_on_c, 1, 59, 127
1, 122168, Note_off_c, 1, 67, 0
1, 122168, Note_off_c, 1, 59, 0
1, 122170, Note_on_c, 1, 69, 127
1, 122357, Note_off_c, 1, 74, 0
1, 122361, Note_off_c, 1, 69, 0
1, 122363, Note_on_c, 1, 71, 127
1, 122363, Note_on_c, 1, 55, 127
1, 122363, Note_on_c, 1, 76, 127
1, 122554, Note_off_c, 1, 71, 0
1, 122554, Note_off_c, 1, 55, 0
1, 122556, Note_on_c, 1, 66, 127
1, 122556, Note_on_c, 1, 69, 127
1, 122556, Note_on_c, 1, 57, 127
1, 122760, Note_off_c, 1, 76, 0
1, 122762, Note_on_c, 1, 74, 127
1, 122966, Note_off_c, 1, 66, 0
1, 122966, Note_off_c, 1, 69, 0
1, 122966, Note_off_c, 1, 57, 0
1, 122966, Note_off_c, 1, 74, 0
1, 122968, Note_on_c, 1, 73, 127
1, 122968, Note_on_c, 1, 64, 127
1, 122968, Note_on_c, 1, 67, 127
1, 122968, Note_on_c, 1, 45, 127
1, 123172, Note_off_c, 1, 73, 0
1, 123172, Note_off_c, 1, 64, 0
1, 123172, Note_off_c, 1, 67, 0
1, 123172, Note_off_c, 1, 45, 0
1, 123190, Note_on_c, 1, 62, 127
1, 123190, Note_on_c, 1, 38, 127
1, 123190, Note_on_c, 1, 74, 127
1, 123442, Note_on_c, 1, 69, 127
1, 123695, Note_on_c, 1, 66, 127
1, 123949, Note_off_c, 1, 62, 0
1, 126225, Note_off_c, 1, 66, 0
1, 126232, Note_off_c, 1, 69, 0
1, 126237, Note_off_c, 1, 38, 0
1, 126237, Note_off_c, 1, 74, 0
1, 127483, Note_on_c, 1, 62, 127
1, 127836, Note_off_c, 1, 62, 0
1, 127841, Note_on_c, 1, 62, 127
1, 128194, Note_off_c, 1, 62, 0
1, 128199, Note_on_c, 1, 62, 127
1, 128552, Note_off_c, 1, 62, 0
1, 128557, Note_on_c, 1, 55, 127
1, 129268, Note_off_c, 1, 55, 0
1, 129273, Note_on_c, 1, 59, 127
1, 130272, Note_off_c, 1, 59, 0
1, 130346, Note_on_c, 1, 52, 127
1, 130699, Note_off_c, 1, 52, 0
1, 130704, Note_on_c, 1, 57, 127
1, 131057, Note_off_c, 1, 57, 0
1, 131062, Note_on_c, 1, 55, 127
1, 131415, Note_off_c, 1, 55, 0
1, 131420, Note_on_c, 1, 54, 127
1, 131778, Note_on_c, 1, 69, 127
1, 132131, Note_off_c, 1, 54, 0
1, 132131, Note_off_c, 1, 69, 0
1, 132135, Note_on_c, 1, 69, 127
1, 132135, Note_on_c, 1, 50, 127
1, 132488, Note_off_c, 1, 69, 0
1, 132851, Note_on_c, 1, 62, 127
1, 133029, Note_off_c, 1, 50, 0
1, 133209, Note_on_c, 1, 54, 127
1, 133562, Note_off_c, 1, 62, 0
1, 133562, Note_off_c, 1, 54, 0
1, 133567, Note_on_c, 1, 59, 127
1, 133567, Note_on_c, 1, 66, 127
1, 133920, Note_off_c, 1, 59, 0
1, 133925, Note_on_c, 1, 57, 127
1, 134278, Note_off_c, 1, 57, 0
1, 134282, Note_on_c, 1, 56, 127
1, 134461, Note_off_c, 1, 66, 0
1, 134998, Note_on_c, 1, 64, 127
1, 135351, Note_off_c, 1, 64, 0
1, 135356, Note_on_c, 1, 62, 127
1, 135709, Note_off_c, 1, 56, 0
1, 135709, Note_off_c, 1, 62, 0
1, 135714, Note_on_c, 1, 61, 127
1, 135714, Note_on_c, 1, 57, 127
1, 136067, Note_off_c, 1, 61, 0
1, 136072, Note_on_c, 1, 64, 127
1, 136425, Note_off_c, 1, 57, 0
1, 136425, Note_off_c, 1, 64, 0
1, 136429, Note_on_c, 1, 69, 127
1, 136429, Note_on_c, 1, 61, 127
1, 136782, Note_off_c, 1, 69, 0
1, 136787, Note_on_c, 1, 67, 127
1, 137140, Note_off_c, 1, 67, 0
1, 137145, Note_on_c, 1, 66, 127
1, 137323, Note_off_c, 1, 61, 0
1, 137503, Note_on_c, 1, 57, 127
1, 137856, Note_off_c, 1, 66, 0
1, 137856, Note_off_c, 1, 57, 0
1, 137861, Note_on_c, 1, 62, 127
1, 137861, Note_on_c, 1, 69, 127
1, 138214, Note_off_c, 1, 62, 0
1, 138219, Note_on_c, 1, 61, 127
1, 138572, Note_off_c, 1, 61, 0
1, 138576, Note_on_c, 1, 59, 127
1, 138886, Note_off_c, 1, 69, 0
1, 138934, Note_on_c, 1, 74, 127
1, 139287, Note_off_c, 1, 74, 0
1, 139292, Note_on_c, 1, 67, 127
1, 139645, Note_off_c, 1, 67, 0
1, 139650, Note_on_c, 1, 66, 127
1, 140003, Note_off_c, 1, 66, 0
1, 140004, Note_off_c, 1, 59, 0
1, 140006, Note_on_c, 1, 64, 127
1, 140006, Note_on_c, 1, 67, 127
1, 140359, Note_off_c, 1, 64, 0
1, 140364, Note_on_c, 1, 66, 127
1, 140364, Note_on_c, 1, 59, 127
1, 140714, Note_off_c, 1, 67, 0
1, 140719, Note_off_c, 1, 66, 0
1, 140719, Note_off_c, 1, 59, 0
1, 140724, Note_on_c, 1, 64, 127
1, 140724, Note_on_c, 1, 71, 127
1, 140724, Note_on_c, 1, 67, 127
1, 141077, Note_off_c, 1, 64, 0
1, 141081, Note_on_c, 1, 62, 127
1, 141434, Note_off_c, 1, 62, 0
1, 141439, Note_on_c, 1, 61, 127
1, 141793, Note_off_c, 1, 71, 0
1, 141797, Note_on_c, 1, 57, 127
1, 142150, Note_off_c, 1, 57, 0
1, 142152, Note_off_c, 1, 67, 0
1, 142153, Note_on_c, 1, 69, 127
1, 142153, Note_on_c, 1, 66, 127
1, 142506, Note_off_c, 1, 69, 0
1, 142506, Note_off_c, 1, 66, 0
1, 142866, Note_off_c, 1, 61, 0
1, 142868, Note_on_c, 1, 62, 127
1, 142868, Note_on_c, 1, 50, 127
1, 142868, Note_on_c, 1, 66, 127
1, 143226, Note_on_c, 1, 57, 127
1, 143576, Note_off_c, 1, 62, 0
1, 143576, Note_off_c, 1, 50, 0
1, 143581, Note_off_c, 1, 57, 0
1, 143585, Note_on_c, 1, 54, 127
1, 143943, Note_on_c, 1, 61, 127
1, 144296, Note_off_c, 1, 66, 0
1, 144296, Note_off_c, 1, 61, 0
1, 144300, Note_on_c, 1, 59, 127
1, 144300, Note_on_c, 1, 68, 127
1, 144657, Note_off_c, 1, 54, 0
1, 144658, Note_on_c, 1, 47, 127
1, 145011, Note_off_c, 1, 47, 0
1, 145016, Note_on_c, 1, 52, 127
1, 145369, Note_off_c, 1, 52, 0
1, 145370, Note_off_c, 1, 59, 0
1, 145727, Note_off_c, 1, 68, 0
1, 145729, Note_on_c, 1, 64, 127
1, 145729, Note_on_c, 1, 49, 127
1, 145729, Note_on_c, 1, 69, 127
1, 146082, Note_off_c, 1, 64, 0
1, 146082, Note_off_c, 1, 49, 0
1, 146087, Note_on_c, 1, 62, 127
1, 146087, Note_on_c, 1, 47, 127
1, 146087, Note_on_c, 1, 52, 127
1, 146440, Note_off_c, 1, 62, 0
1, 146440, Note_off_c, 1, 47, 0
1, 146440, Note_off_c, 1, 52, 0
1, 146445, Note_on_c, 1, 57, 127
1, 146445, Note_on_c, 1, 45, 127
1, 146445, Note_on_c, 1, 61, 127
1, 146623, Note_off_c, 1, 69, 0
1, 146798, Note_off_c, 1, 57, 0
1, 146803, Note_on_c, 1, 55, 127
1, 147153, Note_off_c, 1, 45, 0
1, 147158, Note_off_c, 1, 55, 0
1, 147162, Note_on_c, 1, 54, 127
1, 147515, Note_off_c, 1, 54, 0
1, 147520, Note_on_c, 1, 67, 127
1, 147873, Note_off_c, 1, 67, 0
1, 147874, Note_off_c, 1, 61, 0
1, 147876, Note_on_c, 1, 50, 127
1, 147876, Note_on_c, 1, 66, 127
1, 148234, Note_on_c, 1, 57, 127
1, 148234, Note_on_c, 1, 49, 127
1, 148587, Note_off_c, 1, 57, 0
1, 148587, Note_off_c, 1, 49, 0
1, 148592, Note_on_c, 1, 62, 127
1, 148592, Note_on_c, 1, 47, 127
1, 148938, Note_off_c, 1, 50, 0
1, 148945, Note_off_c, 1, 62, 0
1, 148945, Note_off_c, 1, 47, 0
1, 148950, Note_on_c, 1, 61, 127
1, 148950, Note_on_c, 1, 45, 127
1, 149303, Note_off_c, 1, 61, 0
1, 149303, Note_off_c, 1, 45, 0
1, 149304, Note_off_c, 1, 66, 0
1, 149306, Note_on_c, 1, 64, 127
1, 149306, Note_on_c, 1, 55, 127
1, 149306, Note_on_c, 1, 59, 127
1, 149306, Note_on_c, 1, 43, 127
1, 149659, Note_off_c, 1, 64, 0
1, 149659, Note_off_c, 1, 55, 0
1, 149664, Note_on_c, 1, 62, 127
1, 149664, Note_on_c, 1, 54, 127
1, 150014, Note_off_c, 1, 59, 0
1, 150019, Note_off_c, 1, 62, 0
1, 150019, Note_off_c, 1, 54, 0
1, 150023, Note_on_c, 1, 52, 127
1, 150023, Note_on_c, 1, 57, 127
1, 150023, Note_on_c, 1, 61, 127
1, 150379, Note_off_c, 1, 43, 0
1, 150381, Note_on_c, 1, 42, 127
1, 150731, Note_off_c, 1, 52, 0
1, 150735, Note_off_c, 1, 57, 0
1, 150735, Note_off_c, 1, 61, 0
1, 150736, Note_off_c, 1, 42, 0
1, 150740, Note_on_c, 1, 47, 127
1, 150740, Note_on_c, 1, 56, 127
1, 150740, Note_on_c, 1, 50, 127
1, 150740, Note_on_c, 1, 62, 127
1, 151093, Note_off_c, 1, 47, 0
1, 151093, Note_off_c, 1, 56, 0
1, 151093, Note_off_c, 1, 50, 0
1, 151098, Note_on_c, 1, 54, 127
1, 151098, Note_on_c, 1, 49, 127
1, 151098, Note_on_c, 1, 45, 127
1, 151451, Note_off_c, 1, 54, 0
1, 151451, Note_off_c, 1, 49, 0
1, 151451, Note_off_c, 1, 45, 0
1, 151456, Note_on_c, 1, 52, 127
1, 151456, Note_on_c, 1, 44, 127
1, 151809, Note_off_c, 1, 62, 0
1, 151814, Note_on_c, 1, 71, 127
1, 151988, Note_off_c, 1, 71, 0
1, 151993, Note_on_c, 1, 69, 127
1, 152167, Note_off_c, 1, 69, 0
1, 152883, Note_off_c, 1, 52, 0
1, 152883, Note_off_c, 1, 44, 0
1, 152887, Note_on_c, 1, 61, 127
1, 152887, Note_on_c, 1, 45, 127
1, 152887, Note_on_c, 1, 52, 127
1, 153261, Note_on_c, 1, 64, 127
1, 153595, Note_off_c, 1, 61, 0
1, 153599, Note_off_c, 1, 45, 0
1, 153616, Note_off_c, 1, 64, 0
1, 153620, Note_on_c, 1, 43, 127
1, 154331, Note_off_c, 1, 43, 0
1, 154336, Note_on_c, 1, 57, 127
1, 154336, Note_on_c, 1, 42, 127
1, 154677, Note_off_c, 1, 52, 0
1, 154694, Note_on_c, 1, 55, 127
1, 155044, Note_off_c, 1, 57, 0
1, 155049, Note_off_c, 1, 55, 0
1, 155053, Note_on_c, 1, 54, 127
1, 155053, Note_on_c, 1, 69, 127
1, 155053, Note_on_c, 1, 60, 127
1, 155406, Note_off_c, 1, 54, 0
1, 155406, Note_off_c, 1, 69, 0
1, 155411, Note_on_c, 1, 67, 127
1, 155764, Note_off_c, 1, 67, 0
1, 155765, Note_off_c, 1, 42, 0
1, 155767, Note_on_c, 1, 51, 127
1, 155767, Note_on_c, 1, 47, 127
1, 155767, Note_on_c, 1, 66, 127
1, 156123, Note_off_c, 1, 60, 0
1, 156483, Note_on_c, 1, 59, 127
1, 156836, Note_off_c, 1, 59, 0
1, 157194, Note_off_c, 1, 51, 0
1, 157195, Note_off_c, 1, 47, 0
1, 157195, Note_off_c, 1, 66, 0
1, 157197, Note_on_c, 1, 55, 127
1, 157197, Note_on_c, 1, 52, 127
1, 157550, Note_off_c, 1, 55, 0
1, 157550, Note_off_c, 1, 52, 0
1, 157555, Note_on_c, 1, 50, 127
1, 157555, Note_on_c, 1, 59, 127
1, 157555, Note_on_c, 1, 71, 127
1, 157908, Note_off_c, 1, 50, 0
1, 157908, Note_off_c, 1, 59, 0
1, 157908, Note_off_c, 1, 71, 0
1, 157913, Note_on_c, 1, 71, 127
1, 157913, Note_on_c, 1, 64, 127
1, 157913, Note_on_c, 1, 55, 127
1, 158266, Note_off_c, 1, 71, 0
1, 158266, Note_off_c, 1, 64, 0
1, 158271, Note_on_c, 1, 62, 127
1, 158624, Note_off_c, 1, 62, 0
1, 158629, Note_on_c, 1, 61, 127
1, 158982, Note_off_c, 1, 61, 0
1, 158987, Note_on_c, 1, 59, 127
1, 159341, Note_off_c, 1, 55, 0
1, 159342, Note_off_c, 1, 59, 0
1, 159346, Note_on_c, 1, 49, 127
1, 159346, Note_on_c, 1, 58, 127
1, 159346, Note_on_c, 1, 67, 127
1, 159699, Note_off_c, 1, 49, 0
1, 159699, Note_off_c, 1, 58, 0
1, 159704, Note_on_c, 1, 50, 127
1, 159704, Note_on_c, 1, 59, 127
1, 160057, Note_off_c, 1, 50, 0
1, 160057, Note_off_c, 1, 59, 0
1, 160061, Note_on_c, 1, 52, 127
1, 160061, Note_on_c, 1, 61, 127
1, 160414, Note_off_c, 1, 52, 0
1, 160414, Note_off_c, 1, 61, 0
1, 160416, Note_off_c, 1, 67, 0
1, 160418, Note_on_c, 1, 55, 127
1, 160418, Note_on_c, 1, 61, 127
1, 160418, Note_on_c, 1, 64, 127
1, 160771, Note_off_c, 1, 55, 0
1, 160771, Note_off_c, 1, 61, 0
1, 160771, Note_off_c, 1, 64, 0
1, 160776, Note_on_c, 1, 66, 127
1, 160776, Note_on_c, 1, 62, 127
1, 160776, Note_on_c, 1, 46, 127
1, 160776, Note_on_c, 1, 54, 127
1, 161129, Note_off_c, 1, 66, 0
1, 161129, Note_off_c, 1, 62, 0
1, 161134, Note_on_c, 1, 61, 127
1, 161134, Note_on_c, 1, 64, 127
1, 161487, Note_off_c, 1, 46, 0
1, 161487, Note_off_c, 1, 61, 0
1, 161487, Note_off_c, 1, 64, 0
1, 161491, Note_on_c, 1, 47, 127
1, 161491, Note_on_c, 1, 59, 127
1, 161846, Note_off_c, 1, 54, 0
1, 161848, Note_on_c, 1, 57, 127
1, 162198, Note_off_c, 1, 47, 0
1, 162198, Note_off_c, 1, 59, 0
1, 162203, Note_off_c, 1, 57, 0
1, 162207, Note_on_c, 1, 56, 127
1, 162207, Note_on_c, 1, 71, 127
1, 162560, Note_off_c, 1, 56, 0
1, 162560, Note_off_c, 1, 71, 0
1, 162565, Note_on_c, 1, 54, 127
1, 162565, Note_on_c, 1, 69, 127
1, 162918, Note_off_c, 1, 54, 0
1, 162918, Note_off_c, 1, 69, 0
1, 162923, Note_on_c, 1, 68, 127
1, 162923, Note_on_c, 1, 52, 127
1, 163276, Note_off_c, 1, 68, 0
1, 163281, Note_on_c, 1, 50, 127
1, 163281, Note_on_c, 1, 71, 127
1, 163634, Note_off_c, 1, 50, 0
1, 163634, Note_off_c, 1, 71, 0
1, 163638, Note_on_c, 1, 49, 127
1, 163638, Note_on_c, 1, 76, 127
1, 163991, Note_off_c, 1, 49, 0
1, 163991, Note_off_c, 1, 76, 0
1, 163996, Note_on_c, 1, 47, 127
1, 163996, Note_on_c, 1, 74, 127
1, 164349, Note_off_c, 1, 47, 0
1, 164349, Note_off_c, 1, 74, 0
1, 164354, Note_on_c, 1, 45, 127
1, 164354, Note_on_c, 1, 73, 127
1, 164712, Note_on_c, 1, 69, 127
1, 165062, Note_off_c, 1, 45, 0
1, 165062, Note_off_c, 1, 73, 0
1, 165067, Note_off_c, 1, 52, 0
1, 165067, Note_off_c, 1, 69, 0
1, 165071, Note_on_c, 1, 57, 127
1, 165071, Note_on_c, 1, 69, 127
1, 165424, Note_off_c, 1, 57, 0
1, 165424, Note_off_c, 1, 69, 0
1, 165429, Note_on_c, 1, 55, 127
1, 165429, Note_on_c, 1, 45, 127
1, 165429, Note_on_c, 1, 69, 127
1, 165782, Note_off_c, 1, 55, 0
1, 165782, Note_off_c, 1, 45, 0
1, 165782, Note_off_c, 1, 69, 0
1, 165787, Note_on_c, 1, 54, 127
1, 165787, Note_on_c, 1, 47, 127
1, 165787, Note_on_c, 1, 62, 127
1, 166140, Note_off_c, 1, 54, 0
1, 166145, Note_on_c, 1, 52, 127
1, 166145, Note_on_c, 1, 74, 127
1, 166495, Note_off_c, 1, 47, 0
1, 166495, Note_off_c, 1, 62, 0
1, 166500, Note_off_c, 1, 52, 0
1, 166500, Note_off_c, 1, 74, 0
1, 166504, Note_on_c, 1, 74, 127
1, 166504, Note_on_c, 1, 50, 127
1, 166504, Note_on_c, 1, 66, 127
1, 166857, Note_off_c, 1, 74, 0
1, 166862, Note_on_c, 1, 47, 127
1, 167212, Note_off_c, 1, 50, 0
1, 167217, Note_off_c, 1, 47, 0
1, 167221, Note_on_c, 1, 52, 127
1, 167221, Note_on_c, 1, 40, 127
1, 167221, Note_on_c, 1, 67, 127
1, 167574, Note_off_c, 1, 52, 0
1, 167576, Note_off_c, 1, 66, 0
1, 167578, Note_on_c, 1, 54, 127
1, 167578, Note_on_c, 1, 59, 127
1, 167928, Note_off_c, 1, 40, 0
1, 167928, Note_off_c, 1, 67, 0
1, 167933, Note_off_c, 1, 54, 0
1, 167933, Note_off_c, 1, 59, 0
1, 167937, Note_on_c, 1, 64, 127
1, 167937, Note_on_c, 1, 55, 127
1, 167937, Note_on_c, 1, 71, 127
1, 168290, Note_off_c, 1, 64, 0
1, 168295, Note_on_c, 1, 52, 127
1, 168295, Note_on_c, 1, 62, 127
1, 168648, Note_off_c, 1, 52, 0
1, 168648, Note_off_c, 1, 62, 0
1, 168652, Note_on_c, 1, 45, 127
1, 168652, Note_on_c, 1, 61, 127
1, 169009, Note_off_c, 1, 55, 0
1, 169009, Note_off_c, 1, 71, 0
1, 169360, Note_off_c, 1, 45, 0
1, 169370, Note_on_c, 1, 54, 127
1, 169370, Note_on_c, 1, 69, 127
1, 169723, Note_off_c, 1, 54, 0
1, 169723, Note_off_c, 1, 69, 0
1, 169727, Note_on_c, 1, 67, 127
1, 170080, Note_off_c, 1, 67, 0
1, 170081, Note_off_c, 1, 61, 0
1, 170084, Note_on_c, 1, 38, 127
1, 170084, Note_on_c, 1, 50, 127
1, 170084, Note_on_c, 1, 66, 127
1, 170442, Note_on_c, 1, 57, 127
1, 170792, Note_off_c, 1, 38, 0
1, 170792, Note_off_c, 1, 50, 0
1, 170792, Note_off_c, 1, 66, 0
1, 170797, Note_off_c, 1, 57, 0
1, 170801, Note_on_c, 1, 62, 127
1, 171154, Note_off_c, 1, 62, 0
1, 171159, Note_on_c, 1, 69, 127
1, 171159, Note_on_c, 1, 60, 127
1, 171512, Note_off_c, 1, 69, 0
1, 171512, Note_off_c, 1, 60, 0
1, 171517, Note_on_c, 1, 74, 127
1, 171517, Note_on_c, 1, 59, 127
1, 171870, Note_off_c, 1, 74, 0
1, 171870, Note_off_c, 1, 59, 0
1, 171874, Note_on_c, 1, 72, 127
1, 171874, Note_on_c, 1, 62, 127
1, 172227, Note_off_c, 1, 72, 0
1, 172227, Note_off_c, 1, 62, 0
1, 172232, Note_on_c, 1, 71, 127
1, 172232, Note_on_c, 1, 67, 127
1, 172585, Note_off_c, 1, 71, 0
1, 172585, Note_off_c, 1, 67, 0
1, 172590, Note_on_c, 1, 66, 127
1, 172590, Note_on_c, 1, 74, 127
1, 172943, Note_off_c, 1, 66, 0
1, 172943, Note_off_c, 1, 74, 0
1, 172948, Note_on_c, 1, 64, 127
1, 172948, Note_on_c, 1, 79, 127
1, 173301, Note_off_c, 1, 64, 0
1, 173306, Note_on_c, 1, 52, 127
1, 173306, Note_on_c, 1, 62, 127
1, 173656, Note_off_c, 1, 79, 0
1, 173661, Note_off_c, 1, 52, 0
1, 173661, Note_off_c, 1, 62, 0
1, 173665, Note_on_c, 1, 57, 127
1, 173665, Note_on_c, 1, 78, 127
1, 173665, Note_on_c, 1, 61, 127
1, 174018, Note_off_c, 1, 57, 0
1, 174018, Note_off_c, 1, 78, 0
1, 174023, Note_on_c, 1, 55, 127
1, 174023, Note_on_c, 1, 76, 127
1, 174373, Note_off_c, 1, 61, 0
1, 174378, Note_off_c, 1, 55, 0
1, 174378, Note_off_c, 1, 76, 0
1, 174382, Note_on_c, 1, 54, 127
1, 174382, Note_on_c, 1, 62, 127
1, 174382, Note_on_c, 1, 81, 127
1, 174735, Note_off_c, 1, 54, 0
1, 174735, Note_off_c, 1, 62, 0
1, 174735, Note_off_c, 1, 81, 0
1, 174740, Note_on_c, 1, 57, 127
1, 174740, Note_on_c, 1, 79, 127
1, 174740, Note_on_c, 1, 64, 127
1, 175093, Note_off_c, 1, 57, 0
1, 175093, Note_off_c, 1, 79, 0
1, 175093, Note_off_c, 1, 64, 0
1, 175098, Note_on_c, 1, 62, 127
1, 175098, Note_on_c, 1, 78, 127
1, 175098, Note_on_c, 1, 66, 127
1, 175451, Note_off_c, 1, 62, 0
1, 175451, Note_off_c, 1, 78, 0
1, 175456, Note_on_c, 1, 61, 127
1, 175456, Note_on_c, 1, 76, 127
1, 175809, Note_off_c, 1, 61, 0
1, 175809, Note_off_c, 1, 76, 0
1, 175814, Note_on_c, 1, 59, 127
1, 175814, Note_on_c, 1, 74, 127
1, 176171, Note_on_c, 1, 47, 127
1, 176522, Note_off_c, 1, 59, 0
1, 176526, Note_off_c, 1, 74, 0
1, 176526, Note_off_c, 1, 47, 0
1, 176527, Note_off_c, 1, 66, 0
1, 176529, Note_on_c, 1, 52, 127
1, 176529, Note_on_c, 1, 73, 127
1, 176529, Note_on_c, 1, 68, 127
1, 176882, Note_off_c, 1, 52, 0
1, 176882, Note_off_c, 1, 73, 0
1, 176887, Note_on_c, 1, 50, 127
1, 176887, Note_on_c, 1, 71, 127
1, 177240, Note_off_c, 1, 50, 0
1, 177240, Note_off_c, 1, 71, 0
1, 177245, Note_on_c, 1, 49, 127
1, 177245, Note_on_c, 1, 76, 127
1, 177598, Note_off_c, 1, 49, 0
1, 177598, Note_off_c, 1, 76, 0
1, 177603, Note_on_c, 1, 59, 127
1, 177603, Note_on_c, 1, 74, 127
1, 177956, Note_off_c, 1, 59, 0
1, 177956, Note_off_c, 1, 74, 0
1, 177957, Note_off_c, 1, 68, 0
1, 177959, Note_on_c, 1, 57, 127
1, 177959, Note_on_c, 1, 69, 127
1, 177959, Note_on_c, 1, 73, 127
1, 177959, Note_on_c, 1, 61, 127
1, 178312, Note_off_c, 1, 57, 0
1, 178312, Note_off_c, 1, 69, 0
1, 178312, Note_off_c, 1, 73, 0
1, 178317, Note_on_c, 1, 56, 127
1, 178317, Note_on_c, 1, 64, 127
1, 178317, Note_on_c, 1, 71, 127
1, 178670, Note_off_c, 1, 56, 0
1, 178670, Note_off_c, 1, 64, 0
1, 178670, Note_off_c, 1, 71, 0
1, 178675, Note_on_c, 1, 54, 127
1, 179028, Note_off_c, 1, 54, 0
1, 179029, Note_off_c, 1, 61, 0
1, 179031, Note_on_c, 1, 57, 127
1, 179031, Note_on_c, 1, 52, 127
1, 179031, Note_on_c, 1, 73, 127
1, 179031, Note_on_c, 1, 68, 127
1, 179384, Note_off_c, 1, 57, 0
1, 179384, Note_off_c, 1, 52, 0
1, 179384, Note_off_c, 1, 73, 0
1, 179384, Note_off_c, 1, 68, 0
1, 179389, Note_on_c, 1, 62, 127
1, 179389, Note_on_c, 1, 71, 127
1, 179389, Note_on_c, 1, 66, 127
1, 179389, Note_on_c, 1, 50, 127
1, 179742, Note_off_c, 1, 62, 0
1, 179742, Note_off_c, 1, 71, 0
1, 179747, Note_on_c, 1, 61, 127
1, 179747, Note_on_c, 1, 69, 127
1, 180097, Note_off_c, 1, 66, 0
1, 180102, Note_off_c, 1, 61, 0
1, 180102, Note_off_c, 1, 69, 0
1, 180106, Note_on_c, 1, 68, 127
1, 180106, Note_on_c, 1, 64, 127
1, 180106, Note_on_c, 1, 59, 127
1, 180459, Note_off_c, 1, 68, 0
1, 180459, Note_off_c, 1, 64, 0
1, 180461, Note_off_c, 1, 50, 0
1, 180463, Note_on_c, 1, 49, 127
1, 180813, Note_off_c, 1, 59, 0
1, 180818, Note_off_c, 1, 49, 0
1, 180822, Note_on_c, 1, 57, 127
1, 180822, Note_on_c, 1, 54, 127
1, 180822, Note_on_c, 1, 62, 127
1, 180822, Note_on_c, 1, 69, 127
1, 181175, Note_off_c, 1, 57, 0
1, 181175, Note_off_c, 1, 54, 0
1, 181175, Note_off_c, 1, 62, 0
1, 181180, Note_on_c, 1, 52, 127
1, 181180, Note_on_c, 1, 56, 127
1, 181180, Note_on_c, 1, 61, 127
1, 181533, Note_off_c, 1, 52, 0
1, 181533, Note_off_c, 1, 56, 0
1, 181533, Note_off_c, 1, 61, 0
1, 181538, Note_on_c, 1, 59, 127
1, 181538, Note_on_c, 1, 50, 127
1, 181891, Note_off_c, 1, 59, 0
1, 182249, Note_off_c, 1, 50, 0
1, 182611, Note_off_c, 1, 69, 0
1, 182611, Note_on_c, 1, 68, 127
1, 182964, Note_off_c, 1, 68, 0
1, 182969, Note_on_c, 1, 45, 127
1, 183699, Note_on_c, 1, 66, 127
1, 183862, Note_off_c, 1, 45, 0
1, 184052, Note_off_c, 1, 66, 0
1, 184057, Note_on_c, 1, 64, 127
1, 184057, Note_on_c, 1, 42, 127
1, 184410, Note_off_c, 1, 64, 0
1, 184410, Note_off_c, 1, 42, 0
1, 184415, Note_on_c, 1, 63, 127
1, 184415, Note_on_c, 1, 47, 127
1, 185123, Note_off_c, 1, 63, 0
1, 185123, Note_off_c, 1, 47, 0
1, 185132, Note_on_c, 1, 71, 127
1, 185132, Note_on_c, 1, 59, 127
1, 185485, Note_off_c, 1, 71, 0
1, 185485, Note_off_c, 1, 59, 0
1, 185490, Note_on_c, 1, 69, 127
1, 185490, Note_on_c, 1, 59, 127
1, 185843, Note_off_c, 1, 69, 0
1, 185843, Note_off_c, 1, 59, 0
1, 185848, Note_on_c, 1, 67, 127
1, 185848, Note_on_c, 1, 52, 127
1, 186205, Note_on_c, 1, 59, 127
1, 186205, Note_on_c, 1, 50, 127
1, 186556, Note_off_c, 1, 67, 0
1, 186556, Note_off_c, 1, 52, 0
1, 186560, Note_off_c, 1, 59, 0
1, 186560, Note_off_c, 1, 50, 0
1, 186565, Note_on_c, 1, 64, 127
1, 186565, Note_on_c, 1, 49, 127
1, 186565, Note_on_c, 1, 55, 127
1, 186918, Note_off_c, 1, 64, 0
1, 186918, Note_off_c, 1, 49, 0
1, 186923, Note_on_c, 1, 62, 127
1, 186923, Note_on_c, 1, 47, 127
1, 187276, Note_off_c, 1, 62, 0
1, 187276, Note_off_c, 1, 47, 0
1, 187280, Note_on_c, 1, 61, 127
1, 187280, Note_on_c, 1, 46, 127
1, 187633, Note_off_c, 1, 61, 0
1, 187635, Note_off_c, 1, 55, 0
1, 187653, Note_on_c, 1, 78, 127
1, 187987, Note_off_c, 1, 46, 0
1, 188008, Note_off_c, 1, 78, 0
1, 188012, Note_on_c, 1, 54, 127
1, 188012, Note_on_c, 1, 78, 127
1, 188365, Note_off_c, 1, 54, 0
1, 188365, Note_off_c, 1, 78, 0
1, 188370, Note_on_c, 1, 52, 127
1, 188370, Note_on_c, 1, 46, 127
1, 188370, Note_on_c, 1, 78, 127
1, 188723, Note_off_c, 1, 52, 0
1, 188723, Note_off_c, 1, 46, 0
1, 188723, Note_off_c, 1, 78, 0
1, 188728, Note_on_c, 1, 51, 127
1, 188728, Note_on_c, 1, 71, 127
1, 188728, Note_on_c, 1, 45, 127
1, 189081, Note_off_c, 1, 51, 0
1, 189081, Note_off_c, 1, 71, 0
1, 189086, Note_on_c, 1, 53, 127
1, 189260, Note_off_c, 1, 53, 0
1, 189265, Note_on_c, 1, 54, 127
1, 189436, Note_off_c, 1, 45, 0
1, 189441, Note_off_c, 1, 54, 0
1, 189445, Note_on_c, 1, 71, 127
1, 189445, Note_on_c, 1, 53, 127
1, 189445, Note_on_c, 1, 74, 127
1, 189798, Note_off_c, 1, 71, 0
1, 189803, Note_on_c, 1, 44, 127
1, 190153, Note_off_c, 1, 53, 0
1, 190158, Note_off_c, 1, 44, 0
1, 190162, Note_on_c, 1, 49, 127
1, 190162, Note_on_c, 1, 64, 127
1, 190518, Note_off_c, 1, 74, 0
1, 190520, Note_on_c, 1, 59, 127
1, 190520, Note_on_c, 1, 68, 127
1, 190870, Note_off_c, 1, 49, 0
1, 190870, Note_off_c, 1, 64, 0
1, 190875, Note_off_c, 1, 59, 0
1, 190875, Note_off_c, 1, 68, 0
1, 190879, Note_on_c, 1, 58, 127
1, 190879, Note_on_c, 1, 73, 127
1, 190879, Note_on_c, 1, 67, 127
1, 191232, Note_off_c, 1, 58, 0
1, 191232, Note_off_c, 1, 73, 0
1, 191237, Note_on_c, 1, 52, 127
1, 191237, Note_on_c, 1, 71, 127
1, 191237, Note_on_c, 1, 61, 127
1, 191590, Note_off_c, 1, 52, 0
1, 191590, Note_off_c, 1, 71, 0
1, 191595, Note_on_c, 1, 42, 127
1, 191595, Note_on_c, 1, 70, 127
1, 191945, Note_off_c, 1, 61, 0
1, 191950, Note_off_c, 1, 42, 0
1, 191951, Note_off_c, 1, 67, 0
1, 191953, Note_on_c, 1, 54, 127
1, 191953, Note_on_c, 1, 64, 127
1, 192303, Note_off_c, 1, 70, 0
1, 192308, Note_off_c, 1, 54, 0
1, 192308, Note_off_c, 1, 64, 0
1, 192312, Note_on_c, 1, 56, 127
1, 192312, Note_on_c, 1, 62, 127
1, 192312, Note_on_c, 1, 66, 127
1, 192312, Note_on_c, 1, 71, 127
1, 192665, Note_off_c, 1, 56, 0
1, 192665, Note_off_c, 1, 62, 0
1, 192665, Note_off_c, 1, 66, 0
1, 192665, Note_off_c, 1, 71, 0
1, 192670, Note_on_c, 1, 61, 127
1, 192670, Note_on_c, 1, 58, 127
1, 192670, Note_on_c, 1, 73, 127
1, 192670, Note_on_c, 1, 64, 127
1, 193023, Note_off_c, 1, 61, 0
1, 193023, Note_off_c, 1, 58, 0
1, 193023, Note_off_c, 1, 73, 0
1, 193023, Note_off_c, 1, 64, 0
1, 193028, Note_on_c, 1, 62, 127
1, 193028, Note_on_c, 1, 59, 127
1, 193028, Note_on_c, 1, 74, 127
1, 193381, Note_off_c, 1, 62, 0
1, 193385, Note_on_c, 1, 57, 127
1, 193385, Note_on_c, 1, 66, 127
1, 193738, Note_off_c, 1, 57, 0
1, 193738, Note_off_c, 1, 66, 0
1, 193743, Note_on_c, 1, 56, 127
1, 193743, Note_on_c, 1, 71, 127
1, 194096, Note_off_c, 1, 56, 0
1, 194096, Note_off_c, 1, 71, 0
1, 194101, Note_on_c, 1, 54, 127
1, 194101, Note_on_c, 1, 69, 127
1, 194454, Note_off_c, 1, 54, 0
1, 194454, Note_off_c, 1, 69, 0
1, 194459, Note_on_c, 1, 53, 127
1, 194459, Note_on_c, 1, 68, 127
1, 194817, Note_off_c, 1, 59, 0
1, 195170, Note_off_c, 1, 74, 0
1, 195175, Note_on_c, 1, 61, 127
1, 195175, Note_on_c, 1, 73, 127
1, 195528, Note_off_c, 1, 61, 0
1, 195887, Note_off_c, 1, 53, 0
1, 196246, Note_off_c, 1, 68, 0
1, 196962, Note_on_c, 1, 64, 127
1, 197315, Note_off_c, 1, 64, 0
1, 197320, Note_on_c, 1, 47, 127
1, 197689, Note_off_c, 1, 73, 0
1, 198030, Note_off_c, 1, 47, 0
1, 198039, Note_on_c, 1, 50, 127
1, 198753, Note_on_c, 1, 65, 127
1, 199109, Note_off_c, 1, 50, 0
1, 199111, Note_on_c, 1, 44, 127
1, 199464, Note_off_c, 1, 44, 0
1, 199469, Note_on_c, 1, 49, 127
1, 199822, Note_off_c, 1, 49, 0
1, 200183, Note_on_c, 1, 45, 127
1, 200894, Note_off_c, 1, 65, 0
1, 201253, Note_off_c, 1, 45, 0
1, 203044, Note_on_c, 1, 42, 127
1, 203044, Note_on_c, 1, 54, 127
1, 203044, Note_on_c, 1, 57, 127
1, 203044, Note_on_c, 1, 66, 127
1, 203397, Note_off_c, 1, 42, 0
1, 203397, Note_off_c, 1, 54, 0
1, 203397, Note_off_c, 1, 57, 0
1, 203938, Note_off_c, 1, 66, 0
1, 204150, Note_on_c, 1, 57, 127
1, 204150, Note_on_c, 1, 81, 127
1, 204503, Note_off_c, 1, 57, 0
1, 204503, Note_off_c, 1, 81, 0
1, 204508, Note_on_c, 1, 81, 127
1, 204508, Note_on_c, 1, 50, 127
1, 204861, Note_off_c, 1, 81, 0
1, 204865, Note_on_c, 1, 69, 127
1, 205218, Note_off_c, 1, 69, 0
1, 205219, Note_off_c, 1, 50, 0
1, 205223, Note_on_c, 1, 69, 127
1, 205223, Note_on_c, 1, 74, 127
1, 205223, Note_on_c, 1, 54, 127
1, 205576, Note_off_c, 1, 69, 0
1, 205931, Note_off_c, 1, 74, 0
1, 205940, Note_on_c, 1, 62, 127
1, 205940, Note_on_c, 1, 78, 127
1, 206293, Note_off_c, 1, 54, 0
1, 206293, Note_off_c, 1, 62, 0
1, 206298, Note_on_c, 1, 47, 127
1, 206298, Note_on_c, 1, 50, 127
1, 206651, Note_off_c, 1, 47, 0
1, 206651, Note_off_c, 1, 50, 0
1, 206656, Note_on_c, 1, 52, 127
1, 206656, Note_on_c, 1, 55, 127
1, 207009, Note_off_c, 1, 78, 0
1, 207009, Note_off_c, 1, 52, 0
1, 207009, Note_off_c, 1, 55, 0
1, 207014, Note_on_c, 1, 54, 127
1, 207014, Note_on_c, 1, 50, 127
1, 207014, Note_on_c, 1, 71, 127
1, 207367, Note_off_c, 1, 54, 0
1, 207367, Note_off_c, 1, 50, 0
1, 207367, Note_off_c, 1, 71, 0
1, 207372, Note_on_c, 1, 49, 127
1, 207372, Note_on_c, 1, 76, 127
1, 207372, Note_on_c, 1, 52, 127
1, 207725, Note_off_c, 1, 49, 0
1, 207725, Note_off_c, 1, 76, 0
1, 207730, Note_on_c, 1, 47, 127
1, 207730, Note_on_c, 1, 74, 127
1, 207730, Note_on_c, 1, 64, 127
1, 208080, Note_off_c, 1, 52, 0
1, 208085, Note_off_c, 1, 47, 0
1, 208085, Note_off_c, 1, 74, 0
1, 208085, Note_off_c, 1, 64, 0
1, 208089, Note_on_c, 1, 69, 127
1, 208089, Note_on_c, 1, 45, 127
1, 208089, Note_on_c, 1, 73, 127
1, 208442, Note_off_c, 1, 69, 0
1, 208447, Note_on_c, 1, 57, 127
1, 208447, Note_on_c, 1, 67, 127
1, 208797, Note_off_c, 1, 45, 0
1, 208797, Note_off_c, 1, 73, 0
1, 208802, Note_off_c, 1, 57, 0
1, 208802, Note_off_c, 1, 67, 0
1, 208806, Note_on_c, 1, 62, 127
1, 208806, Note_on_c, 1, 66, 127
1, 209159, Note_off_c, 1, 62, 0
1, 209164, Note_on_c, 1, 60, 127
1, 209164, Note_on_c, 1, 69, 127
1, 209514, Note_off_c, 1, 66, 0
1, 209519, Note_off_c, 1, 60, 0
1, 209519, Note_off_c, 1, 69, 0
1, 209523, Note_on_c, 1, 74, 127
1, 209523, Note_on_c, 1, 59, 127
1, 209876, Note_off_c, 1, 74, 0
1, 209881, Note_on_c, 1, 72, 127
1, 209881, Note_on_c, 1, 62, 127
1, 210234, Note_off_c, 1, 72, 0
1, 210234, Note_off_c, 1, 62, 0
1, 210239, Note_on_c, 1, 67, 127
1, 210239, Note_on_c, 1, 71, 127
1, 210592, Note_off_c, 1, 59, 0
1, 210592, Note_off_c, 1, 67, 0
1, 210597, Note_on_c, 1, 47, 127
1, 210597, Note_on_c, 1, 57, 127
1, 210597, Note_on_c, 1, 66, 127
1, 210947, Note_off_c, 1, 71, 0
1, 210952, Note_off_c, 1, 47, 0
1, 210952, Note_off_c, 1, 57, 0
1, 210952, Note_off_c, 1, 66, 0
1, 210956, Note_on_c, 1, 52, 127
1, 210956, Note_on_c, 1, 55, 127
1, 210956, Note_on_c, 1, 64, 127
1, 211309, Note_off_c, 1, 52, 0
1, 211314, Note_on_c, 1, 50, 127
1, 211314, Note_on_c, 1, 71, 127
1, 211664, Note_off_c, 1, 55, 0
1, 211664, Note_off_c, 1, 64, 0
1, 211669, Note_off_c, 1, 50, 0
1, 211669, Note_off_c, 1, 71, 0
1, 211673, Note_on_c, 1, 48, 127
1, 211673, Note_on_c, 1, 76, 127
1, 212026, Note_off_c, 1, 48, 0
1, 212026, Note_off_c, 1, 76, 0
1, 212031, Note_on_c, 1, 47, 127
1, 212031, Note_on_c, 1, 52, 127
1, 212031, Note_on_c, 1, 74, 127
1, 212384, Note_off_c, 1, 47, 0
1, 212384, Note_off_c, 1, 52, 0
1, 212384, Note_off_c, 1, 74, 0
1, 212389, Note_on_c, 1, 57, 127
1, 212389, Note_on_c, 1, 45, 127
1, 212389, Note_on_c, 1, 72, 127
1, 212742, Note_off_c, 1, 57, 0
1, 212746, Note_on_c, 1, 55, 127
1, 212746, Note_on_c, 1, 64, 127
1, 213099, Note_off_c, 1, 55, 0
1, 213099, Note_off_c, 1, 64, 0
1, 213104, Note_on_c, 1, 54, 127
1, 213104, Note_on_c, 1, 69, 127
1, 213457, Note_off_c, 1, 54, 0
1, 213457, Note_off_c, 1, 69, 0
1, 213462, Note_on_c, 1, 52, 127
1, 213462, Note_on_c, 1, 67, 127
1, 213815, Note_off_c, 1, 52, 0
1, 213815, Note_off_c, 1, 67, 0
1, 213817, Note_off_c, 1, 45, 0
1, 213818, Note_on_c, 1, 50, 127
1, 213818, Note_on_c, 1, 66, 127
1, 213818, Note_on_c, 1, 47, 127
1, 214171, Note_off_c, 1, 50, 0
1, 214171, Note_off_c, 1, 66, 0
1, 214176, Note_on_c, 1, 62, 127
1, 214529, Note_off_c, 1, 62, 0
1, 214530, Note_off_c, 1, 72, 0
1, 214534, Note_on_c, 1, 59, 127
1, 214534, Note_on_c, 1, 71, 127
1, 214887, Note_off_c, 1, 59, 0
1, 214888, Note_off_c, 1, 47, 0
1, 215964, Note_on_c, 1, 60, 127
1, 216320, Note_off_c, 1, 71, 0
1, 216671, Note_off_c, 1, 60, 0
1, 217398, Note_on_c, 1, 48, 127
1, 217753, Note_off_c, 1, 48, 0
1, 219188, Note_on_c, 1, 62, 127
1, 219188, Note_on_c, 1, 50, 127
1, 219541, Note_off_c, 1, 62, 0
1, 219541, Note_off_c, 1, 50, 0
1, 219545, Note_on_c, 1, 62, 127
1, 219545, Note_on_c, 1, 55, 127
1, 219898, Note_off_c, 1, 62, 0
1, 219898, Note_off_c, 1, 55, 0
1, 219903, Note_on_c, 1, 71, 127
1, 219903, Note_on_c, 1, 62, 127
1, 219903, Note_on_c, 1, 54, 127
1, 220256, Note_off_c, 1, 71, 0
1, 220256, Note_off_c, 1, 62, 0
1, 220256, Note_off_c, 1, 54, 0
1, 220261, Note_on_c, 1, 71, 127
1, 220261, Note_on_c, 1, 55, 127
1, 220261, Note_on_c, 1, 52, 127
1, 220614, Note_off_c, 1, 71, 0
1, 220619, Note_on_c, 1, 79, 127
1, 220972, Note_off_c, 1, 55, 0
1, 220972, Note_off_c, 1, 79, 0
1, 220977, Note_on_c, 1, 64, 127
1, 220977, Note_on_c, 1, 59, 127
1, 221685, Note_off_c, 1, 64, 0
1, 221694, Note_on_c, 1, 73, 127
1, 221694, Note_on_c, 1, 67, 127
1, 222047, Note_off_c, 1, 59, 0
1, 222051, Note_off_c, 1, 52, 0
1, 222052, Note_on_c, 1, 50, 127
1, 222405, Note_off_c, 1, 73, 0
1, 222405, Note_off_c, 1, 50, 0
1, 222409, Note_on_c, 1, 57, 127
1, 222409, Note_on_c, 1, 49, 127
1, 222409, Note_on_c, 1, 76, 127
1, 222762, Note_off_c, 1, 57, 0
1, 222762, Note_off_c, 1, 49, 0
1, 222764, Note_off_c, 1, 67, 0
1, 222766, Note_on_c, 1, 61, 127
1, 222766, Note_on_c, 1, 45, 127
1, 223119, Note_off_c, 1, 61, 0
1, 223119, Note_off_c, 1, 45, 0
1, 223124, Note_on_c, 1, 66, 127
1, 223124, Note_on_c, 1, 54, 127
1, 223477, Note_off_c, 1, 66, 0
1, 223478, Note_off_c, 1, 76, 0
1, 223480, Note_on_c, 1, 69, 127
1, 223480, Note_on_c, 1, 48, 127
1, 223833, Note_off_c, 1, 69, 0
1, 223833, Note_off_c, 1, 48, 0
1, 223838, Note_on_c, 1, 74, 127
1, 223838, Note_on_c, 1, 47, 127
1, 223838, Note_on_c, 1, 62, 127
1, 224191, Note_off_c, 1, 74, 0
1, 224191, Note_off_c, 1, 47, 0
1, 224196, Note_on_c, 1, 72, 127
1, 224549, Note_off_c, 1, 72, 0
1, 224554, Note_on_c, 1, 43, 127
1, 224911, Note_off_c, 1, 54, 0
1, 225262, Note_off_c, 1, 43, 0
1, 225267, Note_off_c, 1, 62, 0
1, 225269, Note_on_c, 1, 44, 127
1, 225977, Note_off_c, 1, 44, 0
1, 227416, Note_on_c, 1, 46, 127
1, 228843, Note_off_c, 1, 46, 0
1, 233495, Note_on_c, 1, 61, 127
1, 233495, Note_on_c, 1, 67, 127
1, 233495, Note_on_c, 1, 57, 127
1, 233848, Note_off_c, 1, 61, 0
1, 233848, Note_off_c, 1, 67, 0
1, 233848, Note_off_c, 1, 57, 0
1, 233853, Note_on_c, 1, 66, 127
1, 233853, Note_on_c, 1, 62, 127
1, 234206, Note_off_c, 1, 66, 0
1, 234206, Note_off_c, 1, 62, 0
1, 234211, Note_on_c, 1, 64, 127
1, 234211, Note_on_c, 1, 69, 127
1, 234211, Note_on_c, 1, 61, 127
1, 234564, Note_off_c, 1, 64, 0
1, 234564, Note_off_c, 1, 69, 0
1, 234564, Note_off_c, 1, 61, 0
1, 234569, Note_on_c, 1, 62, 127
1, 234569, Note_on_c, 1, 74, 127
1, 234569, Note_on_c, 1, 59, 127
1, 234922, Note_off_c, 1, 62, 0
1, 234922, Note_off_c, 1, 74, 0
1, 234922, Note_off_c, 1, 59, 0
1, 234927, Note_on_c, 1, 73, 127
1, 234927, Note_on_c, 1, 66, 127
1, 234927, Note_on_c, 1, 57, 127
1, 235280, Note_off_c, 1, 73, 0
1, 235280, Note_off_c, 1, 66, 0
1, 235280, Note_off_c, 1, 57, 0
1, 235285, Note_on_c, 1, 71, 127
1, 235285, Note_on_c, 1, 55, 127
1, 235638, Note_off_c, 1, 71, 0
1, 235638, Note_off_c, 1, 55, 0
1, 235642, Note_on_c, 1, 69, 127
1, 235642, Note_on_c, 1, 74, 127
1, 235642, Note_on_c, 1, 54, 127
1, 235995, Note_off_c, 1, 69, 0
1, 235995, Note_off_c, 1, 74, 0
1, 235995, Note_off_c, 1, 54, 0
1, 236000, Note_on_c, 1, 67, 127
1, 236000, Note_on_c, 1, 52, 127
1, 236000, Note_on_c, 1, 79, 127
1, 236353, Note_off_c, 1, 67, 0
1, 236353, Note_off_c, 1, 52, 0
1, 236358, Note_on_c, 1, 71, 127
1, 236358, Note_on_c, 1, 50, 127
1, 236711, Note_off_c, 1, 71, 0
1, 236711, Note_off_c, 1, 50, 0
1, 236716, Note_on_c, 1, 76, 127
1, 236716, Note_on_c, 1, 49, 127
1, 237069, Note_off_c, 1, 76, 0
1, 237069, Note_off_c, 1, 49, 0
1, 237074, Note_on_c, 1, 74, 127
1, 237074, Note_on_c, 1, 47, 127
1, 237427, Note_off_c, 1, 74, 0
1, 237427, Note_off_c, 1, 47, 0
1, 237432, Note_on_c, 1, 45, 127
1, 237432, Note_on_c, 1, 73, 127
1, 237785, Note_off_c, 1, 45, 0
1, 237789, Note_off_c, 1, 79, 0
1, 237790, Note_on_c, 1, 43, 127
1, 238143, Note_off_c, 1, 43, 0
1, 238147, Note_on_c, 1, 81, 127
1, 238147, Note_on_c, 1, 42, 127
1, 238500, Note_off_c, 1, 81, 0
1, 238500, Note_off_c, 1, 42, 0
1, 238505, Note_on_c, 1, 40, 127
1, 238858, Note_off_c, 1, 40, 0
1, 238860, Note_off_c, 1, 73, 0
1, 238862, Note_on_c, 1, 78, 127
1, 238862, Note_on_c, 1, 74, 127
1, 238862, Note_on_c, 1, 38, 127
1, 239215, Note_off_c, 1, 78, 0
1, 239215, Note_off_c, 1, 74, 0
1, 239215, Note_off_c, 1, 38, 0
1, 239219, Note_on_c, 1, 79, 127
1, 239219, Note_on_c, 1, 76, 127
1, 239219, Note_on_c, 1, 62, 127
1, 239572, Note_off_c, 1, 79, 0
1, 239572, Note_off_c, 1, 76, 0
1, 239572, Note_off_c, 1, 62, 0
1, 239577, Note_on_c, 1, 62, 127
1, 239577, Note_on_c, 1, 81, 127
1, 239577, Note_on_c, 1, 78, 127
1, 239930, Note_off_c, 1, 62, 0
1, 239935, Note_on_c, 1, 50, 127
1, 240288, Note_off_c, 1, 50, 0
1, 240293, Note_on_c, 1, 55, 127
1, 240293, Note_on_c, 1, 52, 127
1, 240646, Note_off_c, 1, 81, 0
1, 240646, Note_off_c, 1, 78, 0
1, 240651, Note_on_c, 1, 74, 127
1, 240651, Note_on_c, 1, 71, 127
1, 241004, Note_off_c, 1, 55, 0
1, 241004, Note_off_c, 1, 74, 0
1, 241004, Note_off_c, 1, 71, 0
1, 241009, Note_on_c, 1, 76, 127
1, 241009, Note_on_c, 1, 79, 127
1, 241009, Note_on_c, 1, 59, 127
1, 241075, Note_off_c, 1, 52, 0
1, 241362, Note_off_c, 1, 76, 0
1, 241362, Note_off_c, 1, 79, 0
1, 241717, Note_off_c, 1, 59, 0
1, 241726, Note_on_c, 1, 57, 127
1, 241726, Note_on_c, 1, 73, 127
1, 242079, Note_off_c, 1, 57, 0
1, 242434, Note_off_c, 1, 73, 0
1, 242443, Note_on_c, 1, 54, 127
1, 242796, Note_off_c, 1, 54, 0
1, 242801, Note_on_c, 1, 64, 127
1, 243154, Note_off_c, 1, 64, 0
1, 243159, Note_on_c, 1, 69, 127
1, 243512, Note_off_c, 1, 69, 0
1, 243516, Note_on_c, 1, 67, 127
1, 243869, Note_off_c, 1, 67, 0
1, 243874, Note_on_c, 1, 74, 127
1, 243874, Note_on_c, 1, 66, 127
1, 243874, Note_on_c, 1, 57, 127
1, 243874, Note_on_c, 1, 54, 127
1, 244227, Note_off_c, 1, 74, 0
1, 244227, Note_off_c, 1, 66, 0
1, 244232, Note_on_c, 1, 72, 127
1, 244232, Note_on_c, 1, 64, 127
1, 244585, Note_off_c, 1, 72, 0
1, 244585, Note_off_c, 1, 64, 0
1, 244590, Note_on_c, 1, 62, 127
1, 244590, Note_on_c, 1, 71, 127
1, 244943, Note_off_c, 1, 57, 0
1, 244943, Note_off_c, 1, 54, 0
1, 244948, Note_on_c, 1, 47, 127
1, 244948, Note_on_c, 1, 50, 127
1, 245301, Note_off_c, 1, 62, 0
1, 245301, Note_off_c, 1, 47, 0
1, 245301, Note_off_c, 1, 50, 0
1, 245306, Note_on_c, 1, 61, 127
1, 245306, Note_on_c, 1, 55, 127
1, 245306, Note_on_c, 1, 52, 127
1, 245659, Note_off_c, 1, 61, 0
1, 245659, Note_off_c, 1, 55, 0
1, 245659, Note_off_c, 1, 52, 0
1, 246021, Note_on_c, 1, 49, 127
1, 246374, Note_off_c, 1, 49, 0
1, 246379, Note_off_c, 1, 71, 0
1, 246738, Note_on_c, 1, 61, 127
1, 246738, Note_on_c, 1, 69, 127
1, 246738, Note_on_c, 1, 45, 127
1, 247091, Note_off_c, 1, 61, 0
1, 247091, Note_off_c, 1, 69, 0
1, 247096, Note_on_c, 1, 67, 127
1, 247096, Note_on_c, 1, 64, 127
1, 247449, Note_off_c, 1, 67, 0
1, 247454, Note_on_c, 1, 66, 127
1, 247804, Note_off_c, 1, 64, 0
1, 247808, Note_off_c, 1, 45, 0
1, 247813, Note_on_c, 1, 57, 127
1, 247813, Note_on_c, 1, 62, 127
1, 248164, Note_off_c, 1, 66, 0
1, 248168, Note_off_c, 1, 57, 0
1, 248523, Note_off_c, 1, 62, 0
1, 248891, Note_on_c, 1, 60, 127
1, 248891, Note_on_c, 1, 66, 127
1, 248891, Note_on_c, 1, 51, 127
1, 249244, Note_off_c, 1, 60, 0
1, 249244, Note_off_c, 1, 66, 0
1, 249244, Note_off_c, 1, 51, 0
1, 249249, Note_on_c, 1, 59, 127
1, 249249, Note_on_c, 1, 68, 127
1, 249249, Note_on_c, 1, 52, 127
1, 249602, Note_off_c, 1, 59, 0
1, 249602, Note_off_c, 1, 68, 0
1, 249602, Note_off_c, 1, 52, 0
1, 249607, Note_on_c, 1, 57, 127
1, 249607, Note_on_c, 1, 53, 127
1, 249607, Note_on_c, 1, 69, 127
1, 249960, Note_off_c, 1, 57, 0
1, 249965, Note_on_c, 1, 60, 127
1, 250318, Note_off_c, 1, 60, 0
1, 250322, Note_on_c, 1, 62, 127
1, 250675, Note_off_c, 1, 62, 0
1, 250676, Note_off_c, 1, 53, 0
1, 250680, Note_on_c, 1, 64, 127
1, 250680, Note_on_c, 1, 47, 127
1, 250680, Note_on_c, 1, 59, 127
1, 250854, Note_off_c, 1, 64, 0
1, 250859, Note_on_c, 1, 65, 127
1, 251033, Note_off_c, 1, 47, 0
1, 251033, Note_off_c, 1, 59, 0
1, 251033, Note_off_c, 1, 65, 0
1, 251035, Note_off_c, 1, 69, 0
1, 251037, Note_on_c, 1, 52, 127
1, 251037, Note_on_c, 1, 59, 127
1, 251037, Note_on_c, 1, 68, 127
1, 251037, Note_on_c, 1, 64, 127
1, 251390, Note_off_c, 1, 52, 0
1, 251390, Note_off_c, 1, 59, 0
1, 251395, Note_on_c, 1, 50, 127
1, 251748, Note_off_c, 1, 68, 0
1, 251748, Note_off_c, 1, 50, 0
1, 251752, Note_on_c, 1, 69, 127
1, 251752, Note_on_c, 1, 49, 127
1, 252105, Note_off_c, 1, 69, 0
1, 252105, Note_off_c, 1, 49, 0
1, 252107, Note_off_c, 1, 64, 0
1, 252109, Note_on_c, 1, 81, 127
1, 252109, Note_on_c, 1, 45, 127
1, 252462, Note_off_c, 1, 81, 0
1, 252462, Note_off_c, 1, 45, 0
1, 252467, Note_on_c, 1, 81, 127
1, 252467, Note_on_c, 1, 50, 127
1, 252820, Note_off_c, 1, 81, 0
1, 252820, Note_off_c, 1, 50, 0
1, 252824, Note_on_c, 1, 78, 127
1, 252824, Note_on_c, 1, 81, 127
1, 252824, Note_on_c, 1, 49, 127
1, 253177, Note_off_c, 1, 78, 0
1, 253177, Note_off_c, 1, 81, 0
1, 253177, Note_off_c, 1, 49, 0
1, 253182, Note_on_c, 1, 78, 127
1, 253182, Note_on_c, 1, 47, 127
1, 253182, Note_on_c, 1, 74, 127
1, 253535, Note_off_c, 1, 78, 0
1, 253535, Note_off_c, 1, 47, 0
1, 253540, Note_on_c, 1, 62, 127
1, 253890, Note_off_c, 1, 74, 0
1, 253895, Note_off_c, 1, 62, 0
1, 253899, Note_on_c, 1, 62, 127
1, 253899, Note_on_c, 1, 71, 127
1, 253899, Note_on_c, 1, 78, 127
1, 254252, Note_off_c, 1, 62, 0
1, 254257, Note_on_c, 1, 59, 127
1, 254610, Note_off_c, 1, 71, 0
1, 254610, Note_off_c, 1, 59, 0
1, 254615, Note_on_c, 1, 56, 127
1, 254615, Note_on_c, 1, 74, 127
1, 254969, Note_off_c, 1, 78, 0
1, 255322, Note_off_c, 1, 56, 0
1, 255331, Note_on_c, 1, 76, 127
1, 255331, Note_on_c, 1, 52, 127
1, 255684, Note_off_c, 1, 76, 0
1, 255685, Note_off_c, 1, 74, 0
1, 255687, Note_on_c, 1, 68, 127
1, 256040, Note_off_c, 1, 68, 0
1, 256041, Note_off_c, 1, 52, 0
1, 256045, Note_on_c, 1, 55, 127
1, 256045, Note_on_c, 1, 73, 127
1, 256761, Note_on_c, 1, 57, 127
1, 256761, Note_on_c, 1, 69, 127
1, 257114, Note_off_c, 1, 57, 0
1, 257115, Note_off_c, 1, 55, 0
1, 257117, Note_on_c, 1, 49, 127
1, 257470, Note_off_c, 1, 49, 0
1, 257472, Note_off_c, 1, 73, 0
1, 257474, Note_on_c, 1, 54, 127
1, 257474, Note_on_c, 1, 72, 127
1, 257830, Note_off_c, 1, 69, 0
1, 257831, Note_on_c, 1, 67, 127
1, 258184, Note_off_c, 1, 67, 0
1, 258189, Note_on_c, 1, 66, 127
1, 258189, Note_on_c, 1, 50, 127
1, 258542, Note_off_c, 1, 66, 0
1, 258544, Note_off_c, 1, 54, 0
1, 258546, Note_on_c, 1, 64, 127
1, 258899, Note_off_c, 1, 64, 0
1, 259261, Note_off_c, 1, 72, 0
1, 259261, Note_on_c, 1, 60, 127
1, 259614, Note_off_c, 1, 60, 0
1, 259616, Note_off_c, 1, 50, 0
1, 260332, Note_on_c, 1, 55, 127
1, 260332, Note_on_c, 1, 71, 127
1, 260690, Note_on_c, 1, 62, 127
1, 260690, Note_on_c, 1, 54, 127
1, 261043, Note_off_c, 1, 62, 0
1, 261043, Note_off_c, 1, 54, 0
1, 261048, Note_on_c, 1, 67, 127
1, 261048, Note_on_c, 1, 52, 127
1, 261401, Note_off_c, 1, 67, 0
1, 261401, Note_off_c, 1, 52, 0
1, 261406, Note_on_c, 1, 66, 127
1, 261406, Note_on_c, 1, 50, 127
1, 261759, Note_off_c, 1, 66, 0
1, 261759, Note_off_c, 1, 50, 0
1, 261763, Note_on_c, 1, 64, 127
1, 261763, Note_on_c, 1, 49, 127
1, 262116, Note_off_c, 1, 64, 0
1, 262121, Note_off_c, 1, 55, 0
1, 262471, Note_off_c, 1, 49, 0
1, 262476, Note_off_c, 1, 71, 0
1, 262480, Note_on_c, 1, 57, 127
1, 262480, Note_on_c, 1, 61, 127
1, 262480, Note_on_c, 1, 69, 127
1, 262833, Note_off_c, 1, 57, 0
1, 262838, Note_on_c, 1, 45, 127
1, 262838, Note_on_c, 1, 55, 127
1, 263188, Note_off_c, 1, 61, 0
1, 263193, Note_off_c, 1, 45, 0
1, 263193, Note_off_c, 1, 55, 0
1, 263198, Note_on_c, 1, 50, 127
1, 263198, Note_on_c, 1, 54, 127
1, 263551, Note_off_c, 1, 50, 0
1, 263555, Note_on_c, 1, 48, 127
1, 263908, Note_off_c, 1, 48, 0
1, 263913, Note_on_c, 1, 62, 127
1, 263913, Note_on_c, 1, 47, 127
1, 264266, Note_off_c, 1, 62, 0
1, 264266, Note_off_c, 1, 47, 0
1, 264271, Note_on_c, 1, 60, 127
1, 264624, Note_off_c, 1, 60, 0
1, 264629, Note_on_c, 1, 59, 127
1, 264629, Note_on_c, 1, 43, 127
1, 264998, Note_off_c, 1, 54, 0
1, 265355, Note_off_c, 1, 69, 0
1, 265367, Note_on_c, 1, 52, 127
1, 265367, Note_on_c, 1, 67, 127
1, 265731, Note_off_c, 1, 52, 0
1, 265733, Note_off_c, 1, 59, 0
1, 266101, Note_off_c, 1, 43, 0
1, 266103, Note_on_c, 1, 64, 127
1, 266103, Note_on_c, 1, 49, 127
1, 266480, Note_off_c, 1, 64, 0
1, 266480, Note_off_c, 1, 49, 0
1, 266481, Note_off_c, 1, 67, 0
1, 267629, Note_on_c, 1, 66, 127
1, 268424, Note_off_c, 1, 66, 0
1, 269362, Note_on_c, 1, 54, 127
1, 269362, Note_on_c, 1, 38, 127
1, 269362, Note_on_c, 1, 57, 127
1, 269362, Note_on_c, 1, 62, 127
1, 272112, Note_off_c, 1, 54, 0
1, 272112, Note_off_c, 1, 38, 0
1, 272112, Note_off_c, 1, 57, 0
1, 272112, Note_off_c, 1, 62, 0
1, 272112, End_track
0, 0, End_of_file