0, 0, Header, 1, 1, 480
1, 0, Start_track
1, 0, Title_t, "Test"
1, 0, Tempo, 500000
1, 0, Instrument_name_t, "Church Organ"
1, 0, Note_on_c, 1, 81, 127
1, 0, Note_on_c, 1, 77, 127
1, 0, Note_on_c, 1, 50, 127
1, 96, Note_off_c, 1, 50, 0
1, 120, Note_on_c, 1, 62, 127
1, 180, Note_off_c, 1, 81, 0
1, 192, Note_off_c, 1, 77, 0
1, 216, Note_off_c, 1, 62, 0
1, 240, Note_on_c, 1, 81, 127
1, 240, Note_on_c, 1, 76, 127
1, 240, Note_on_c, 1, 61, 127
1, 336, Note_off_c, 1, 61, 0
1, 360, Note_on_c, 1, 57, 127
1, 420, Note_off_c, 1, 81, 0
1, 432, Note_off_c, 1, 76, 0
1, 456, Note_off_c, 1, 57, 0
1, 480, Note_on_c, 1, 82, 127
1, 480, Note_on_c, 1, 77, 127
1, 480, Note_on_c, 1, 62, 127
1, 504, Note_off_c, 1, 82, 0
1, 510, Note_on_c, 1, 81, 127
1, 534, Note_off_c, 1, 81, 0
1, 576, Note_off_c, 1, 62, 0
1, 600, Note_on_c, 1, 57, 127
1, 696, Note_off_c, 1, 57, 0
1, 720, Note_on_c, 1, 50, 127
1, 816, Note_off_c, 1, 50, 0
1, 840, Note_on_c, 1, 79, 127
1, 840, Note_on_c, 1, 60, 127
1, 864, Note_off_c, 1, 77, 0
1, 888, Note_off_c, 1, 79, 0
1, 936, Note_off_c, 1, 60, 0
1, 960, Note_on_c, 1, 82, 127
1, 960, Note_on_c, 1, 79, 127
1, 960, Note_on_c, 1, 58, 127
1, 1056, Note_off_c, 1, 58, 0
1, 1080, Note_on_c, 1, 57, 127
1, 1140, Note_off_c, 1, 82, 0
1, 1152, Note_off_c, 1, 79, 0
1, 1176, Note_off_c, 1, 57, 0
1, 1200, Note_on_c, 1, 81, 127
1, 1200, Note_on_c, 1, 77, 127
1, 1200, Note_on_c, 1, 58, 127
1, 1296, Note_off_c, 1, 58, 0
1, 1320, Note_on_c, 1, 55, 127
1, 1380, Note_off_c, 1, 81, 0
1, 1392, Note_off_c, 1, 77, 0
1, 1416, Note_off_c, 1, 55, 0
1, 1440, Note_on_c, 1, 79, 127
1, 1440, Note_on_c, 1, 76, 127
1, 1440, Note_on_c, 1, 60, 127
1, 1536, Note_off_c, 1, 60, 0
1, 1560, Note_on_c, 1, 55, 127
1, 1656, Note_off_c, 1, 55, 0
1, 1680, Note_on_c, 1, 48, 127
1, 1776, Note_off_c, 1, 48, 0
1, 1824, Note_off_c, 1, 79, 0
1, 1824, Note_off_c, 1, 76, 0
1, 1920, Note_on_c, 1, 79, 127
1, 1920, Note_on_c, 1, 76, 127
1, 1920, Note_on_c, 1, 60, 127
1, 2016, Note_off_c, 1, 60, 0
1, 2040, Note_on_c, 1, 62, 127
1, 2100, Note_off_c, 1, 79, 0
1, 2112, Note_off_c, 1, 76, 0
1, 2136, Note_off_c, 1, 62, 0
1, 2160, Note_on_c, 1, 79, 127
1, 2160, Note_on_c, 1, 76, 127
1, 2160, Note_on_c, 1, 64, 127
1, 2256, Note_off_c, 1, 64, 0
1, 2280, Note_on_c, 1, 62, 127
1, 2340, Note_off_c, 1, 79, 0
1, 2352, Note_off_c, 1, 76, 0
1, 2376, Note_off_c, 1, 62, 0
1, 2400, Note_on_c, 1, 79, 127
1, 2400, Note_on_c, 1, 76, 127
1, 2400, Note_on_c, 1, 61, 127
1, 2496, Note_off_c, 1, 79, 0
1, 2496, Note_off_c, 1, 61, 0
1, 2520, Note_on_c, 1, 77, 127
1, 2520, Note_on_c, 1, 57, 127
1, 2616, Note_off_c, 1, 77, 0
1, 2616, Note_off_c, 1, 57, 0
1, 2640, Note_on_c, 1, 59, 127
1, 2736, Note_off_c, 1, 59, 0
1, 2760, Note_on_c, 1, 81, 127
1, 2784, Note_off_c, 1, 76, 0
1, 2856, Note_off_c, 1, 81, 0
1, 2880, Note_on_c, 1, 77, 127
1, 2880, Note_on_c, 1, 74, 127
1, 2880, Note_on_c, 1, 62, 127
1, 2976, Note_off_c, 1, 77, 0
1, 2976, Note_off_c, 1, 62, 0
1, 3000, Note_on_c, 1, 76, 127
1, 3000, Note_on_c, 1, 61, 127
1, 3096, Note_off_c, 1, 76, 0
1, 3096, Note_off_c, 1, 61, 0
1, 3240, Note_on_c, 1, 79, 127
1, 3240, Note_on_c, 1, 55, 127
1, 3264, Note_off_c, 1, 74, 0
1, 3336, Note_off_c, 1, 79, 0
1, 3336, Note_off_c, 1, 55, 0
1, 3360, Note_on_c, 1, 77, 127
1, 3360, Note_on_c, 1, 73, 127
1, 3360, Note_on_c, 1, 57, 127
1, 3384, Note_off_c, 1, 77, 0
1, 3390, Note_on_c, 1, 76, 127
1, 3414, Note_off_c, 1, 76, 0
1, 3456, Note_off_c, 1, 57, 0
1, 3480, Note_on_c, 1, 45, 127
1, 3552, Note_off_c, 1, 73, 0
1, 3576, Note_off_c, 1, 45, 0
1, 3600, Note_on_c, 1, 74, 127
1, 3600, Note_on_c, 1, 50, 127
1, 3696, Note_off_c, 1, 50, 0
1, 3720, Note_on_c, 1, 73, 127
1, 3720, Note_on_c, 1, 52, 127
1, 3792, Note_off_c, 1, 74, 0
1, 3816, Note_off_c, 1, 73, 0
1, 3816, Note_off_c, 1, 52, 0
1, 3840, Note_on_c, 1, 74, 127
1, 3840, Note_on_c, 1, 81, 127
1, 3840, Note_on_c, 1, 53, 127
1, 3936, Note_off_c, 1, 74, 0
1, 3936, Note_off_c, 1, 53, 0
1, 3960, Note_on_c, 1, 77, 127
1, 3960, Note_on_c, 1, 50, 127
1, 4032, Note_off_c, 1, 81, 0
1, 4056, Note_off_c, 1, 77, 0
1, 4056, Note_off_c, 1, 50, 0
1, 4080, Note_on_c, 1, 76, 127
1, 4080, Note_on_c, 1, 81, 127
1, 4080, Note_on_c, 1, 49, 127
1, 4176, Note_off_c, 1, 76, 0
1, 4176, Note_off_c, 1, 49, 0
1, 4200, Note_on_c, 1, 79, 127
1, 4200, Note_on_c, 1, 45, 127
1, 4272, Note_off_c, 1, 81, 0
1, 4296, Note_off_c, 1, 79, 0
1, 4296, Note_off_c, 1, 45, 0
1, 4320, Note_on_c, 1, 82, 127
1, 4320, Note_on_c, 1, 77, 127
1, 4320, Note_on_c, 1, 50, 127
1, 4344, Note_off_c, 1, 82, 0
1, 4350, Note_on_c, 1, 81, 127
1, 4374, Note_off_c, 1, 81, 0
1, 4416, Note_off_c, 1, 50, 0
1, 4440, Note_on_c, 1, 45, 127
1, 4536, Note_off_c, 1, 45, 0
1, 4560, Note_on_c, 1, 38, 127
1, 4656, Note_off_c, 1, 38, 0
1, 4680, Note_on_c, 1, 79, 127
1, 4680, Note_on_c, 1, 48, 127
1, 4704, Note_off_c, 1, 77, 0
1, 4728, Note_off_c, 1, 79, 0
1, 4776, Note_off_c, 1, 48, 0
1, 4800, Note_on_c, 1, 82, 127
1, 4800, Note_on_c, 1, 79, 127
1, 4800, Note_on_c, 1, 46, 127
1, 4896, Note_off_c, 1, 46, 0
1, 4920, Note_on_c, 1, 45, 127
1, 4980, Note_off_c, 1, 82, 0
1, 4992, Note_off_c, 1, 79, 0
1, 5016, Note_off_c, 1, 45, 0
1, 5040, Note_on_c, 1, 81, 127
1, 5040, Note_on_c, 1, 77, 127
1, 5040, Note_on_c, 1, 46, 127
1, 5136, Note_off_c, 1, 46, 0
1, 5160, Note_on_c, 1, 43, 127
1, 5220, Note_off_c, 1, 81, 0
1, 5232, Note_off_c, 1, 77, 0
1, 5256, Note_off_c, 1, 43, 0
1, 5280, Note_on_c, 1, 79, 127
1, 5280, Note_on_c, 1, 76, 127
1, 5280, Note_on_c, 1, 48, 127
1, 5376, Note_off_c, 1, 48, 0
1, 5400, Note_on_c, 1, 43, 127
1, 5496, Note_off_c, 1, 43, 0
1, 5520, Note_on_c, 1, 36, 127
1, 5568, Note_off_c, 1, 79, 0
1, 5616, Note_off_c, 1, 36, 0
1, 5640, Note_on_c, 1, 81, 127
1, 5640, Note_on_c, 1, 46, 127
1, 5664, Note_off_c, 1, 76, 0
1, 5688, Note_off_c, 1, 81, 0
1, 5700, Note_on_c, 1, 82, 127
1, 5736, Note_off_c, 1, 46, 0
1, 5748, Note_off_c, 1, 82, 0
1, 5760, Note_on_c, 1, 84, 127
1, 5760, Note_on_c, 1, 76, 127
1, 5760, Note_on_c, 1, 45, 127
1, 5856, Note_off_c, 1, 84, 0
1, 5856, Note_off_c, 1, 45, 0
1, 5880, Note_on_c, 1, 82, 127
1, 5880, Note_on_c, 1, 46, 127
1, 5976, Note_off_c, 1, 82, 0
1, 5976, Note_off_c, 1, 46, 0
1, 6000, Note_on_c, 1, 81, 127
1, 6000, Note_on_c, 1, 48, 127
1, 6096, Note_off_c, 1, 81, 0
1, 6096, Note_off_c, 1, 48, 0
1, 6120, Note_on_c, 1, 79, 127
1, 6144, Note_off_c, 1, 76, 0
1, 6216, Note_off_c, 1, 79, 0
1, 6240, Note_on_c, 1, 77, 127
1, 6240, Note_on_c, 1, 74, 127
1, 6240, Note_on_c, 1, 50, 127
1, 6336, Note_off_c, 1, 77, 0
1, 6336, Note_off_c, 1, 50, 0
1, 6360, Note_on_c, 1, 76, 127
1, 6360, Note_on_c, 1, 52, 127
1, 6432, Note_off_c, 1, 74, 0
1, 6456, Note_off_c, 1, 76, 0
1, 6456, Note_off_c, 1, 52, 0
1, 6480, Note_on_c, 1, 74, 127
1, 6480, Note_on_c, 1, 53, 127
1, 6576, Note_off_c, 1, 53, 0
1, 6600, Note_on_c, 1, 82, 127
1, 6600, Note_on_c, 1, 50, 127
1, 6672, Note_off_c, 1, 74, 0
1, 6696, Note_off_c, 1, 82, 0
1, 6696, Note_off_c, 1, 50, 0
1, 6720, Note_on_c, 1, 81, 127
1, 6720, Note_on_c, 1, 74, 127
1, 6720, Note_on_c, 1, 58, 127
1, 6744, Note_off_c, 1, 81, 0
1, 6750, Note_on_c, 1, 79, 127
1, 6774, Note_off_c, 1, 79, 0
1, 6816, Note_off_c, 1, 58, 0
1, 6840, Note_on_c, 1, 57, 127
1, 6936, Note_off_c, 1, 57, 0
1, 7080, Note_on_c, 1, 77, 127
1, 7080, Note_on_c, 1, 46, 127
1, 7104, Note_off_c, 1, 74, 0
1, 7128, Note_off_c, 1, 77, 0
1, 7176, Note_off_c, 1, 46, 0
1, 7200, Note_on_c, 1, 73, 127
1, 7200, Note_on_c, 1, 81, 127
1, 7200, Note_on_c, 1, 45, 127
1, 7296, Note_off_c, 1, 45, 0
1, 7320, Note_on_c, 1, 55, 127
1, 7416, Note_off_c, 1, 55, 0
1, 7440, Note_on_c, 1, 53, 127
1, 7536, Note_off_c, 1, 53, 0
1, 7560, Note_on_c, 1, 52, 127
1, 7584, Note_off_c, 1, 73, 0
1, 7584, Note_off_c, 1, 81, 0
1, 7656, Note_off_c, 1, 52, 0
1, 7680, Note_on_c, 1, 81, 127
1, 7680, Note_on_c, 1, 77, 127
1, 7680, Note_on_c, 1, 50, 127
1, 7776, Note_off_c, 1, 50, 0
1, 7800, Note_on_c, 1, 62, 127
1, 7860, Note_off_c, 1, 81, 0
1, 7872, Note_off_c, 1, 77, 0
1, 7896, Note_off_c, 1, 62, 0
1, 7920, Note_on_c, 1, 81, 127
1, 7920, Note_on_c, 1, 76, 127
1, 7920, Note_on_c, 1, 61, 127
1, 8016, Note_off_c, 1, 61, 0
1, 8040, Note_on_c, 1, 57, 127
1, 8100, Note_off_c, 1, 81, 0
1, 8112, Note_off_c, 1, 76, 0
1, 8136, Note_off_c, 1, 57, 0
1, 8160, Note_on_c, 1, 82, 127
1, 8160, Note_on_c, 1, 77, 127
1, 8160, Note_on_c, 1, 62, 127
1, 8184, Note_off_c, 1, 82, 0
1, 8190, Note_on_c, 1, 81, 127
1, 8214, Note_off_c, 1, 81, 0
1, 8256, Note_off_c, 1, 62, 0
1, 8280, Note_on_c, 1, 57, 127
1, 8376, Note_off_c, 1, 57, 0
1, 8400, Note_on_c, 1, 50, 127
1, 8496, Note_off_c, 1, 50, 0
1, 8520, Note_on_c, 1, 79, 127
1, 8520, Note_on_c, 1, 60, 127
1, 8544, Note_off_c, 1, 77, 0
1, 8568, Note_off_c, 1, 79, 0
1, 8616, Note_off_c, 1, 60, 0
1, 8640, Note_on_c, 1, 82, 127
1, 8640, Note_on_c, 1, 79, 127
1, 8640, Note_on_c, 1, 58, 127
1, 8736, Note_off_c, 1, 58, 0
1, 8760, Note_on_c, 1, 57, 127
1, 8820, Note_off_c, 1, 82, 0
1, 8832, Note_off_c, 1, 79, 0
1, 8856, Note_off_c, 1, 57, 0
1, 8880, Note_on_c, 1, 81, 127
1, 8880, Note_on_c, 1, 77, 127
1, 8880, Note_on_c, 1, 58, 127
1, 8976, Note_off_c, 1, 58, 0
1, 9000, Note_on_c, 1, 55, 127
1, 9060, Note_off_c, 1, 81, 0
1, 9072, Note_off_c, 1, 77, 0
1, 9096, Note_off_c, 1, 55, 0
1, 9120, Note_on_c, 1, 79, 127
1, 9120, Note_on_c, 1, 76, 127
1, 9120, Note_on_c, 1, 60, 127
1, 9216, Note_off_c, 1, 60, 0
1, 9240, Note_on_c, 1, 55, 127
1, 9336, Note_off_c, 1, 55, 0
1, 9360, Note_on_c, 1, 48, 127
1, 9456, Note_off_c, 1, 48, 0
1, 9504, Note_off_c, 1, 79, 0
1, 9504, Note_off_c, 1, 76, 0
1, 9600, Note_on_c, 1, 79, 127
1, 9600, Note_on_c, 1, 76, 127
1, 9600, Note_on_c, 1, 60, 127
1, 9696, Note_off_c, 1, 60, 0
1, 9720, Note_on_c, 1, 62, 127
1, 9780, Note_off_c, 1, 79, 0
1, 9792, Note_off_c, 1, 76, 0
1, 9816, Note_off_c, 1, 62, 0
1, 9840, Note_on_c, 1, 79, 127
1, 9840, Note_on_c, 1, 76, 127
1, 9840, Note_on_c, 1, 64, 127
1, 9936, Note_off_c, 1, 64, 0
1, 9960, Note_on_c, 1, 62, 127
1, 10020, Note_off_c, 1, 79, 0
1, 10032, Note_off_c, 1, 76, 0
1, 10056, Note_off_c, 1, 62, 0
1, 10080, Note_on_c, 1, 79, 127
1, 10080, Note_on_c, 1, 76, 127
1, 10080, Note_on_c, 1, 61, 127
1, 10176, Note_off_c, 1, 79, 0
1, 10176, Note_off_c, 1, 61, 0
1, 10200, Note_on_c, 1, 77, 127
1, 10200, Note_on_c, 1, 57, 127
1, 10296, Note_off_c, 1, 77, 0
1, 10296, Note_off_c, 1, 57, 0
1, 10320, Note_on_c, 1, 59, 127
1, 10416, Note_off_c, 1, 59, 0
1, 10440, Note_on_c, 1, 81, 127
1, 10464, Note_off_c, 1, 76, 0
1, 10536, Note_off_c, 1, 81, 0
1, 10560, Note_on_c, 1, 77, 127
1, 10560, Note_on_c, 1, 74, 127
1, 10560, Note_on_c, 1, 62, 127
1, 10656, Note_off_c, 1, 77, 0
1, 10656, Note_off_c, 1, 62, 0
1, 10680, Note_on_c, 1, 76, 127
1, 10680, Note_on_c, 1, 61, 127
1, 10776, Note_off_c, 1, 76, 0
1, 10776, Note_off_c, 1, 61, 0
1, 10920, Note_on_c, 1, 79, 127
1, 10920, Note_on_c, 1, 55, 127
1, 10944, Note_off_c, 1, 74, 0
1, 11016, Note_off_c, 1, 79, 0
1, 11016, Note_off_c, 1, 55, 0
1, 11040, Note_on_c, 1, 77, 127
1, 11040, Note_on_c, 1, 73, 127
1, 11040, Note_on_c, 1, 57, 127
1, 11064, Note_off_c, 1, 77, 0
1, 11070, Note_on_c, 1, 76, 127
1, 11094, Note_off_c, 1, 76, 0
1, 11136, Note_off_c, 1, 57, 0
1, 11160, Note_on_c, 1, 45, 127
1, 11232, Note_off_c, 1, 73, 0
1, 11256, Note_off_c, 1, 45, 0
1, 11280, Note_on_c, 1, 74, 127
1, 11280, Note_on_c, 1, 50, 127
1, 11376, Note_off_c, 1, 50, 0
1, 11400, Note_on_c, 1, 73, 127
1, 11400, Note_on_c, 1, 52, 127
1, 11472, Note_off_c, 1, 74, 0
1, 11496, Note_off_c, 1, 73, 0
1, 11496, Note_off_c, 1, 52, 0
1, 11520, Note_on_c, 1, 74, 127
1, 11520, Note_on_c, 1, 81, 127
1, 11520, Note_on_c, 1, 53, 127
1, 11616, Note_off_c, 1, 74, 0
1, 11616, Note_off_c, 1, 53, 0
1, 11640, Note_on_c, 1, 77, 127
1, 11640, Note_on_c, 1, 50, 127
1, 11712, Note_off_c, 1, 81, 0
1, 11736, Note_off_c, 1, 77, 0
1, 11736, Note_off_c, 1, 50, 0
1, 11760, Note_on_c, 1, 76, 127
1, 11760, Note_on_c, 1, 81, 127
1, 11760, Note_on_c, 1, 49, 127
1, 11856, Note_off_c, 1, 76, 0
1, 11856, Note_off_c, 1, 49, 0
1, 11880, Note_on_c, 1, 79, 127
1, 11880, Note_on_c, 1, 45, 127
1, 11952, Note_off_c, 1, 81, 0
1, 11976, Note_off_c, 1, 79, 0
1, 11976, Note_off_c, 1, 45, 0
1, 12000, Note_on_c, 1, 82, 127
1, 12000, Note_on_c, 1, 77, 127
1, 12000, Note_on_c, 1, 50, 127
1, 12024, Note_off_c, 1, 82, 0
1, 12030, Note_on_c, 1, 81, 127
1, 12054, Note_off_c, 1, 81, 0
1, 12096, Note_off_c, 1, 50, 0
1, 12120, Note_on_c, 1, 45, 127
1, 12216, Note_off_c, 1, 45, 0
1, 12240, Note_on_c, 1, 38, 127
1, 12336, Note_off_c, 1, 38, 0
1, 12360, Note_on_c, 1, 79, 127
1, 12360, Note_on_c, 1, 48, 127
1, 12384, Note_off_c, 1, 77, 0
1, 12408, Note_off_c, 1, 79, 0
1, 12456, Note_off_c, 1, 48, 0
1, 12480, Note_on_c, 1, 82, 127
1, 12480, Note_on_c, 1, 79, 127
1, 12480, Note_on_c, 1, 46, 127
1, 12576, Note_off_c, 1, 46, 0
1, 12600, Note_on_c, 1, 45, 127
1, 12660, Note_off_c, 1, 82, 0
1, 12672, Note_off_c, 1, 79, 0
1, 12696, Note_off_c, 1, 45, 0
1, 12720, Note_on_c, 1, 81, 127
1, 12720, Note_on_c, 1, 77, 127
1, 12720, Note_on_c, 1, 46, 127
1, 12816, Note_off_c, 1, 46, 0
1, 12840, Note_on_c, 1, 43, 127
1, 12900, Note_off_c, 1, 81, 0
1, 12912, Note_off_c, 1, 77, 0
1, 12936, Note_off_c, 1, 43, 0
1, 12960, Note_on_c, 1, 79, 127
1, 12960, Note_on_c, 1, 76, 127
1, 12960, Note_on_c, 1, 48, 127
1, 13056, Note_off_c, 1, 48, 0
1, 13080, Note_on_c, 1, 43, 127
1, 13176, Note_off_c, 1, 43, 0
1, 13200, Note_on_c, 1, 36, 127
1, 13248, Note_off_c, 1, 79, 0
1, 13296, Note_off_c, 1, 36, 0
1, 13320, Note_on_c, 1, 81, 127
1, 13320, Note_on_c, 1, 46, 127
1, 13344, Note_off_c, 1, 76, 0
1, 13368, Note_off_c, 1, 81, 0
1, 13380, Note_on_c, 1, 82, 127
1, 13416, Note_off_c, 1, 46, 0
1, 13428, Note_off_c, 1, 82, 0
1, 13440, Note_on_c, 1, 84, 127
1, 13440, Note_on_c, 1, 76, 127
1, 13440, Note_on_c, 1, 45, 127
1, 13536, Note_off_c, 1, 84, 0
1, 13536, Note_off_c, 1, 45, 0
1, 13560, Note_on_c, 1, 82, 127
1, 13560, Note_on_c, 1, 46, 127
1, 13656, Note_off_c, 1, 82, 0
1, 13656, Note_off_c, 1, 46, 0
1, 13680, Note_on_c, 1, 81, 127
1, 13680, Note_on_c, 1, 48, 127
1, 13776, Note_off_c, 1, 81, 0
1, 13776, Note_off_c, 1, 48, 0
1, 13800, Note_on_c, 1, 79, 127
1, 13824, Note_off_c, 1, 76, 0
1, 13896, Note_off_c, 1, 79, 0
1, 13920, Note_on_c, 1, 77, 127
1, 13920, Note_on_c, 1, 74, 127
1, 13920, Note_on_c, 1, 50, 127
1, 14016, Note_off_c, 1, 77, 0
1, 14016, Note_off_c, 1, 50, 0
1, 14040, Note_on_c, 1, 76, 127
1, 14040, Note_on_c, 1, 52, 127
1, 14112, Note_off_c, 1, 74, 0
1, 14136, Note_off_c, 1, 76, 0
1, 14136, Note_off_c, 1, 52, 0
1, 14160, Note_on_c, 1, 74, 127
1, 14160, Note_on_c, 1, 53, 127
1, 14256, Note_off_c, 1, 53, 0
1, 14280, Note_on_c, 1, 82, 127
1, 14280, Note_on_c, 1, 50, 127
1, 14352, Note_off_c, 1, 74, 0
1, 14376, Note_off_c, 1, 82, 0
1, 14376, Note_off_c, 1, 50, 0
1, 14400, Note_on_c, 1, 81, 127
1, 14400, Note_on_c, 1, 74, 127
1, 14400, Note_on_c, 1, 58, 127
1, 14424, Note_off_c, 1, 81, 0
1, 14430, Note_on_c, 1, 79, 127
1, 14454, Note_off_c, 1, 79, 0
1, 14496, Note_off_c, 1, 58, 0
1, 14520, Note_on_c, 1, 57, 127
1, 14616, Note_off_c, 1, 57, 0
1, 14760, Note_on_c, 1, 77, 127
1, 14760, Note_on_c, 1, 46, 127
1, 14784, Note_off_c, 1, 74, 0
1, 14808, Note_off_c, 1, 77, 0
1, 14856, Note_off_c, 1, 46, 0
1, 14880, Note_on_c, 1, 73, 127
1, 14880, Note_on_c, 1, 81, 127
1, 14880, Note_on_c, 1, 45, 127
1, 15264, Note_off_c, 1, 73, 0
1, 15264, Note_off_c, 1, 81, 0
1, 15264, Note_off_c, 1, 45, 0
1, 15360, Note_on_c, 1, 76, 127
1, 15360, Note_on_c, 1, 72, 127
1, 15360, Note_on_c, 1, 45, 127
1, 15456, Note_off_c, 1, 45, 0
1, 15480, Note_on_c, 1, 57, 127
1, 15540, Note_off_c, 1, 76, 0
1, 15552, Note_off_c, 1, 72, 0
1, 15576, Note_off_c, 1, 57, 0
1, 15600, Note_on_c, 1, 76, 127
1, 15600, Note_on_c, 1, 71, 127
1, 15600, Note_on_c, 1, 56, 127
1, 15696, Note_off_c, 1, 56, 0
1, 15720, Note_on_c, 1, 52, 127
1, 15780, Note_off_c, 1, 76, 0
1, 15792, Note_off_c, 1, 71, 0
1, 15816, Note_off_c, 1, 52, 0
1, 15840, Note_on_c, 1, 77, 127
1, 15840, Note_on_c, 1, 69, 127
1, 15840, Note_on_c, 1, 57, 127
1, 15864, Note_off_c, 1, 77, 0
1, 15870, Note_on_c, 1, 76, 127
1, 15894, Note_off_c, 1, 76, 0
1, 15936, Note_off_c, 1, 57, 0
1, 15960, Note_on_c, 1, 52, 127
1, 16056, Note_off_c, 1, 52, 0
1, 16080, Note_on_c, 1, 45, 127
1, 16176, Note_off_c, 1, 45, 0
1, 16200, Note_on_c, 1, 74, 127
1, 16200, Note_on_c, 1, 55, 127
1, 16224, Note_off_c, 1, 69, 0
1, 16248, Note_off_c, 1, 74, 0
1, 16296, Note_off_c, 1, 55, 0
1, 16320, Note_on_c, 1, 77, 127
1, 16320, Note_on_c, 1, 74, 127
1, 16320, Note_on_c, 1, 53, 127
1, 16416, Note_off_c, 1, 53, 0
1, 16440, Note_on_c, 1, 52, 127
1, 16500, Note_off_c, 1, 77, 0
1, 16512, Note_off_c, 1, 74, 0
1, 16536, Note_off_c, 1, 52, 0
1, 16560, Note_on_c, 1, 76, 127
1, 16560, Note_on_c, 1, 72, 127
1, 16560, Note_on_c, 1, 53, 127
1, 16656, Note_off_c, 1, 53, 0
1, 16680, Note_on_c, 1, 50, 127
1, 16740, Note_off_c, 1, 76, 0
1, 16752, Note_off_c, 1, 72, 0
1, 16776, Note_off_c, 1, 50, 0
1, 16800, Note_on_c, 1, 71, 127
1, 16800, Note_on_c, 1, 74, 127
1, 16800, Note_on_c, 1, 55, 127
1, 16896, Note_off_c, 1, 55, 0
1, 16920, Note_on_c, 1, 50, 127
1, 17016, Note_off_c, 1, 50, 0
1, 17040, Note_on_c, 1, 43, 127
1, 17136, Note_off_c, 1, 43, 0
1, 17184, Note_off_c, 1, 71, 0
1, 17184, Note_off_c, 1, 74, 0
1, 17280, Note_on_c, 1, 74, 127
1, 17280, Note_on_c, 1, 71, 127
1, 17280, Note_on_c, 1, 55, 127
1, 17376, Note_off_c, 1, 55, 0
1, 17400, Note_on_c, 1, 53, 127
1, 17460, Note_off_c, 1, 74, 0
1, 17472, Note_off_c, 1, 71, 0
1, 17496, Note_off_c, 1, 53, 0
1, 17520, Note_on_c, 1, 79, 127
1, 17520, Note_on_c, 1, 71, 127
1, 17520, Note_on_c, 1, 55, 127
1, 17616, Note_off_c, 1, 55, 0
1, 17640, Note_on_c, 1, 52, 127
1, 17700, Note_off_c, 1, 79, 0
1, 17712, Note_off_c, 1, 71, 0
1, 17736, Note_off_c, 1, 52, 0
1, 17760, Note_on_c, 1, 77, 127
1, 17760, Note_on_c, 1, 72, 127
1, 17760, Note_on_c, 1, 57, 127
1, 17784, Note_off_c, 1, 77, 0
1, 17790, Note_on_c, 1, 76, 127
1, 17814, Note_off_c, 1, 76, 0
1, 17856, Note_off_c, 1, 57, 0
1, 17880, Note_on_c, 1, 55, 127
1, 17976, Note_off_c, 1, 55, 0
1, 18000, Note_on_c, 1, 53, 127
1, 18096, Note_off_c, 1, 53, 0
1, 18120, Note_on_c, 1, 74, 127
1, 18120, Note_on_c, 1, 52, 127
1, 18144, Note_off_c, 1, 72, 0
1, 18168, Note_off_c, 1, 74, 0
1, 18216, Note_off_c, 1, 52, 0
1, 18240, Note_on_c, 1, 77, 127
1, 18240, Note_on_c, 1, 74, 127
1, 18240, Note_on_c, 1, 50, 127
1, 18336, Note_off_c, 1, 77, 0
1, 18336, Note_off_c, 1, 50, 0
1, 18360, Note_on_c, 1, 79, 127
1, 18360, Note_on_c, 1, 59, 127
1, 18432, Note_off_c, 1, 74, 0
1, 18456, Note_off_c, 1, 79, 0
1, 18456, Note_off_c, 1, 59, 0
1, 18480, Note_on_c, 1, 76, 127
1, 18480, Note_on_c, 1, 72, 127
1, 18480, Note_on_c, 1, 60, 127
1, 18576, Note_off_c, 1, 76, 0
1, 18576, Note_off_c, 1, 60, 0
1, 18600, Note_on_c, 1, 77, 127
1, 18600, Note_on_c, 1, 53, 127
1, 18672, Note_off_c, 1, 72, 0
1, 18696, Note_off_c, 1, 77, 0
1, 18696, Note_off_c, 1, 53, 0
1, 18720, Note_on_c, 1, 74, 127
1, 18720, Note_on_c, 1, 71, 127
1, 18720, Note_on_c, 1, 55, 127
1, 18816, Note_off_c, 1, 55, 0
1, 18840, Note_on_c, 1, 43, 127
1, 18912, Note_off_c, 1, 74, 0
1, 18912, Note_off_c, 1, 71, 0
1, 18936, Note_off_c, 1, 43, 0
1, 18960, Note_on_c, 1, 72, 127
1, 18960, Note_on_c, 1, 48, 127
1, 19056, Note_off_c, 1, 48, 0
1, 19080, Note_on_c, 1, 46, 127
1, 19152, Note_off_c, 1, 72, 0
1, 19176, Note_off_c, 1, 46, 0
1, 19200, Note_on_c, 1, 76, 127
1, 19200, Note_on_c, 1, 72, 127
1, 19200, Note_on_c, 1, 45, 127
1, 19296, Note_off_c, 1, 45, 0
1, 19320, Note_on_c, 1, 46, 127
1, 19392, Note_off_c, 1, 76, 0
1, 19392, Note_off_c, 1, 72, 0
1, 19416, Note_off_c, 1, 46, 0
1, 19440, Note_on_c, 1, 78, 127
1, 19440, Note_on_c, 1, 72, 127
1, 19440, Note_on_c, 1, 48, 127
1, 19488, Note_off_c, 1, 78, 0
1, 19500, Note_on_c, 1, 79, 127
1, 19536, Note_off_c, 1, 48, 0
1, 19548, Note_off_c, 1, 79, 0
1, 19560, Note_on_c, 1, 81, 127
1, 19560, Note_on_c, 1, 45, 127
1, 19632, Note_off_c, 1, 72, 0
1, 19656, Note_off_c, 1, 81, 0
1, 19656, Note_off_c, 1, 45, 0
1, 19680, Note_on_c, 1, 78, 127
1, 19680, Note_on_c, 1, 69, 127
1, 19680, Note_on_c, 1, 50, 127
1, 19776, Note_off_c, 1, 50, 0
1, 19800, Note_on_c, 1, 45, 127
1, 19896, Note_off_c, 1, 45, 0
1, 19920, Note_on_c, 1, 38, 127
1, 19968, Note_off_c, 1, 78, 0
1, 20016, Note_off_c, 1, 38, 0
1, 20040, Note_on_c, 1, 76, 127
1, 20040, Note_on_c, 1, 48, 127
1, 20064, Note_off_c, 1, 69, 0
1, 20088, Note_off_c, 1, 76, 0
1, 20136, Note_off_c, 1, 48, 0
1, 20160, Note_on_c, 1, 79, 127
1, 20160, Note_on_c, 1, 74, 127
1, 20160, Note_on_c, 1, 46, 127
1, 20256, Note_off_c, 1, 46, 0
1, 20280, Note_on_c, 1, 45, 127
1, 20340, Note_off_c, 1, 79, 0
1, 20352, Note_off_c, 1, 74, 0
1, 20376, Note_off_c, 1, 45, 0
1, 20400, Note_on_c, 1, 81, 127
1, 20400, Note_on_c, 1, 74, 127
1, 20400, Note_on_c, 1, 43, 127
1, 20496, Note_off_c, 1, 43, 0
1, 20520, Note_on_c, 1, 42, 127
1, 20580, Note_off_c, 1, 81, 0
1, 20592, Note_off_c, 1, 74, 0
1, 20616, Note_off_c, 1, 42, 0
1, 20640, Note_on_c, 1, 82, 127
1, 20640, Note_on_c, 1, 74, 127
1, 20640, Note_on_c, 1, 43, 127
1, 20736, Note_off_c, 1, 43, 0
1, 20760, Note_on_c, 1, 46, 127
1, 20856, Note_off_c, 1, 46, 0
1, 20880, Note_on_c, 1, 50, 127
1, 20928, Note_off_c, 1, 82, 0
1, 20976, Note_off_c, 1, 50, 0
1, 21000, Note_on_c, 1, 81, 127
1, 21000, Note_on_c, 1, 55, 127
1, 21048, Note_off_c, 1, 81, 0
1, 21096, Note_off_c, 1, 55, 0
1, 21120, Note_on_c, 1, 84, 127
1, 21120, Note_on_c, 1, 54, 127
1, 21216, Note_off_c, 1, 84, 0
1, 21300, Note_off_c, 1, 54, 0
1, 21960, Note_on_c, 1, 79, 127
1, 22056, Note_off_c, 1, 79, 0
1, 22080, Note_on_c, 1, 48, 127
1, 22260, Note_off_c, 1, 48, 0
1, 22440, Note_on_c, 1, 78, 127
1, 22536, Note_off_c, 1, 78, 0
1, 22560, Note_on_c, 1, 47, 127
1, 22656, Note_off_c, 1, 74, 0
1, 22680, Note_on_c, 1, 75, 127
1, 22740, Note_off_c, 1, 47, 0
1, 22776, Note_off_c, 1, 75, 0
1, 22800, Note_on_c, 1, 77, 127
1, 22896, Note_off_c, 1, 77, 0
1, 23040, Note_on_c, 1, 57, 127
1, 23220, Note_off_c, 1, 57, 0
1, 23280, Note_on_c, 1, 59, 127
1, 23400, Note_on_c, 1, 72, 127
1, 23460, Note_off_c, 1, 59, 0
1, 23496, Note_off_c, 1, 72, 0
1, 23520, Note_on_c, 1, 60, 127
1, 23700, Note_off_c, 1, 60, 0
1, 23760, Note_on_c, 1, 62, 127
1, 23880, Note_on_c, 1, 71, 127
1, 23940, Note_off_c, 1, 62, 0
1, 23976, Note_off_c, 1, 71, 0
1, 24000, Note_on_c, 1, 63, 127
1, 24180, Note_off_c, 1, 63, 0
1, 24480, Note_on_c, 1, 67, 127
1, 24672, Note_off_c, 1, 67, 0
1, 24720, Note_on_c, 1, 69, 127
1, 24840, Note_on_c, 1, 70, 127
1, 24900, Note_off_c, 1, 69, 0
1, 24936, Note_off_c, 1, 70, 0
1, 25440, Note_on_c, 1, 79, 127
1, 25440, Note_on_c, 1, 70, 127
1, 25440, Note_on_c, 1, 62, 127
1, 25536, Note_off_c, 1, 79, 0
1, 25536, Note_off_c, 1, 70, 0
1, 25560, Note_on_c, 1, 72, 127
1, 25560, Note_on_c, 1, 81, 127
1, 25656, Note_off_c, 1, 72, 0
1, 25656, Note_off_c, 1, 81, 0
1, 25680, Note_on_c, 1, 82, 127
1, 25680, Note_on_c, 1, 74, 127
1, 25776, Note_off_c, 1, 82, 0
1, 25776, Note_off_c, 1, 74, 0
1, 26208, Note_off_c, 1, 62, 0
1, 26280, Note_on_c, 1, 78, 127
1, 26280, Note_on_c, 1, 69, 127
1, 26376, Note_off_c, 1, 78, 0
1, 26376, Note_off_c, 1, 69, 0
1, 26400, Note_on_c, 1, 70, 127
1, 26400, Note_on_c, 1, 79, 127
1, 26400, Note_on_c, 1, 55, 127
1, 26496, Note_off_c, 1, 55, 0
1, 26520, Note_on_c, 1, 50, 127
1, 26616, Note_off_c, 1, 50, 0
1, 26640, Note_on_c, 1, 46, 127
1, 26736, Note_off_c, 1, 46, 0
1, 26784, Note_off_c, 1, 70, 0
1, 26784, Note_off_c, 1, 79, 0
1, 26880, Note_on_c, 1, 74, 127
1, 26880, Note_on_c, 1, 70, 127
1, 26880, Note_on_c, 1, 43, 127
1, 26976, Note_off_c, 1, 43, 0
1, 27000, Note_on_c, 1, 50, 127
1, 27060, Note_off_c, 1, 74, 0
1, 27072, Note_off_c, 1, 70, 0
1, 27096, Note_off_c, 1, 50, 0
1, 27120, Note_on_c, 1, 74, 127
1, 27120, Note_on_c, 1, 69, 127
1, 27120, Note_on_c, 1, 55, 127
1, 27216, Note_off_c, 1, 55, 0
1, 27240, Note_on_c, 1, 53, 127
1, 27300, Note_off_c, 1, 74, 0
1, 27312, Note_off_c, 1, 69, 0
1, 27336, Note_off_c, 1, 53, 0
1, 27360, Note_on_c, 1, 67, 127
1, 27360, Note_on_c, 1, 74, 127
1, 27360, Note_on_c, 1, 52, 127
1, 27456, Note_off_c, 1, 52, 0
1, 27480, Note_on_c, 1, 53, 127
1, 27552, Note_off_c, 1, 67, 0
1, 27576, Note_off_c, 1, 53, 0
1, 27600, Note_on_c, 1, 70, 127
1, 27600, Note_on_c, 1, 55, 127
1, 27648, Note_off_c, 1, 74, 0
1, 27696, Note_off_c, 1, 55, 0
1, 27720, Note_on_c, 1, 76, 127
1, 27768, Note_off_c, 1, 76, 0
1, 27792, Note_off_c, 1, 70, 0
1, 27840, Note_on_c, 1, 73, 127
1, 27840, Note_on_c, 1, 69, 127
1, 27840, Note_on_c, 1, 57, 127
1, 27936, Note_off_c, 1, 73, 0
1, 27936, Note_off_c, 1, 57, 0
1, 27960, Note_on_c, 1, 74, 127
1, 27960, Note_on_c, 1, 58, 127
1, 28056, Note_off_c, 1, 74, 0
1, 28056, Note_off_c, 1, 58, 0
1, 28080, Note_on_c, 1, 76, 127
1, 28176, Note_off_c, 1, 76, 0
1, 28200, Note_on_c, 1, 55, 127
1, 28224, Note_off_c, 1, 69, 0
1, 28296, Note_off_c, 1, 55, 0
1, 28320, Note_on_c, 1, 74, 127
1, 28320, Note_on_c, 1, 69, 127
1, 28320, Note_on_c, 1, 53, 127
1, 28416, Note_off_c, 1, 74, 0
1, 28440, Note_on_c, 1, 76, 127
1, 28500, Note_off_c, 1, 53, 0
1, 28536, Note_off_c, 1, 76, 0
1, 28560, Note_on_c, 1, 77, 127
1, 28560, Note_on_c, 1, 50, 127
1, 28656, Note_off_c, 1, 77, 0
1, 28740, Note_off_c, 1, 50, 0
1, 28800, Note_on_c, 1, 49, 127
1, 28980, Note_off_c, 1, 49, 0
1, 29040, Note_on_c, 1, 79, 127
1, 29040, Note_on_c, 1, 45, 127
1, 29088, Note_off_c, 1, 69, 0
1, 29136, Note_off_c, 1, 79, 0
1, 29220, Note_off_c, 1, 45, 0
1, 29280, Note_on_c, 1, 77, 127
1, 29280, Note_on_c, 1, 69, 127
1, 29280, Note_on_c, 1, 50, 127
1, 29376, Note_off_c, 1, 77, 0
1, 29400, Note_on_c, 1, 76, 127
1, 29472, Note_off_c, 1, 50, 0
1, 29496, Note_off_c, 1, 76, 0
1, 29520, Note_on_c, 1, 48, 127
1, 29640, Note_on_c, 1, 81, 127
1, 29664, Note_off_c, 1, 69, 0
1, 29712, Note_off_c, 1, 48, 0
1, 29736, Note_off_c, 1, 81, 0
1, 29760, Note_on_c, 1, 79, 127
1, 29760, Note_on_c, 1, 46, 127
1, 29856, Note_off_c, 1, 79, 0
1, 29880, Note_on_c, 1, 77, 127
1, 29940, Note_off_c, 1, 46, 0
1, 29976, Note_off_c, 1, 77, 0
1, 30000, Note_on_c, 1, 76, 127
1, 30000, Note_on_c, 1, 43, 127
1, 30096, Note_off_c, 1, 76, 0
1, 30120, Note_on_c, 1, 74, 127
1, 30180, Note_off_c, 1, 43, 0
1, 30216, Note_off_c, 1, 74, 0
1, 30240, Note_on_c, 1, 73, 127
1, 30240, Note_on_c, 1, 45, 127
1, 30336, Note_off_c, 1, 73, 0
1, 30360, Note_on_c, 1, 69, 127
1, 30420, Note_off_c, 1, 45, 0
1, 30456, Note_off_c, 1, 69, 0
1, 30480, Note_on_c, 1, 71, 127
1, 30480, Note_on_c, 1, 57, 127
1, 30576, Note_off_c, 1, 71, 0
1, 30576, Note_off_c, 1, 57, 0
1, 30600, Note_on_c, 1, 73, 127
1, 30600, Note_on_c, 1, 55, 127
1, 30696, Note_off_c, 1, 73, 0
1, 30696, Note_off_c, 1, 55, 0
1, 30720, Note_on_c, 1, 74, 127
1, 30720, Note_on_c, 1, 69, 127
1, 30720, Note_on_c, 1, 53, 127
1, 30816, Note_off_c, 1, 74, 0
1, 30816, Note_off_c, 1, 53, 0
1, 30840, Note_on_c, 1, 76, 127
1, 30840, Note_on_c, 1, 52, 127
1, 30912, Note_off_c, 1, 69, 0
1, 30936, Note_off_c, 1, 76, 0
1, 30936, Note_off_c, 1, 52, 0
1, 30960, Note_on_c, 1, 69, 127
1, 30960, Note_on_c, 1, 77, 127
1, 30960, Note_on_c, 1, 50, 127
1, 31056, Note_off_c, 1, 50, 0
1, 31080, Note_on_c, 1, 48, 127
1, 31152, Note_off_c, 1, 69, 0
1, 31152, Note_off_c, 1, 77, 0
1, 31176, Note_off_c, 1, 48, 0
1, 31200, Note_on_c, 1, 69, 127
1, 31200, Note_on_c, 1, 77, 127
1, 31200, Note_on_c, 1, 46, 127
1, 31296, Note_off_c, 1, 46, 0
1, 31320, Note_on_c, 1, 48, 127
1, 31416, Note_off_c, 1, 48, 0
1, 31488, Note_off_c, 1, 69, 0
1, 31560, Note_on_c, 1, 67, 127
1, 31560, Note_on_c, 1, 45, 127
1, 31608, Note_off_c, 1, 67, 0
1, 31656, Note_off_c, 1, 45, 0
1, 31680, Note_on_c, 1, 70, 127
1, 31680, Note_on_c, 1, 43, 127
1, 31776, Note_off_c, 1, 43, 0
1, 31860, Note_off_c, 1, 70, 0
1, 31968, Note_off_c, 1, 77, 0
1, 32160, Note_on_c, 1, 67, 127
1, 32160, Note_on_c, 1, 77, 127
1, 32160, Note_on_c, 1, 48, 127
1, 32256, Note_off_c, 1, 48, 0
1, 32280, Note_on_c, 1, 43, 127
1, 32376, Note_off_c, 1, 43, 0
1, 32400, Note_on_c, 1, 36, 127
1, 32496, Note_off_c, 1, 36, 0
1, 32544, Note_off_c, 1, 67, 0
1, 32544, Note_off_c, 1, 77, 0
1, 32640, Note_on_c, 1, 67, 127
1, 32640, Note_on_c, 1, 76, 127
1, 32640, Note_on_c, 1, 48, 127
1, 32736, Note_off_c, 1, 48, 0
1, 32760, Note_on_c, 1, 50, 127
1, 32820, Note_off_c, 1, 67, 0
1, 32856, Note_off_c, 1, 50, 0
1, 32880, Note_on_c, 1, 52, 127
1, 32976, Note_off_c, 1, 52, 0
1, 33024, Note_off_c, 1, 76, 0
1, 33120, Note_on_c, 1, 67, 127
1, 33120, Note_on_c, 1, 76, 127
1, 33120, Note_on_c, 1, 50, 127
1, 33144, Note_off_c, 1, 50, 0
1, 33150, Note_on_c, 1, 49, 127
1, 33174, Note_off_c, 1, 49, 0
1, 33216, Note_off_c, 1, 67, 0
1, 33240, Note_on_c, 1, 70, 127
1, 33336, Note_off_c, 1, 70, 0
1, 33360, Note_on_c, 1, 69, 127
1, 33456, Note_off_c, 1, 69, 0
1, 33504, Note_off_c, 1, 76, 0
1, 33600, Note_on_c, 1, 65, 127
1, 33600, Note_on_c, 1, 74, 127
1, 33600, Note_on_c, 1, 50, 127
1, 33696, Note_off_c, 1, 65, 0
1, 33696, Note_off_c, 1, 50, 0
1, 33720, Note_on_c, 1, 69, 127
1, 33720, Note_on_c, 1, 48, 127
1, 33816, Note_off_c, 1, 69, 0
1, 33816, Note_off_c, 1, 48, 0
1, 33840, Note_on_c, 1, 67, 127
1, 33840, Note_on_c, 1, 46, 127
1, 33936, Note_off_c, 1, 67, 0
1, 33936, Note_off_c, 1, 46, 0
1, 33960, Note_on_c, 1, 43, 127
1, 33984, Note_off_c, 1, 74, 0
1, 34056, Note_off_c, 1, 43, 0
1, 34080, Note_on_c, 1, 65, 127
1, 34080, Note_on_c, 1, 73, 127
1, 34080, Note_on_c, 1, 46, 127
1, 34104, Note_off_c, 1, 65, 0
1, 34104, Note_off_c, 1, 46, 0
1, 34110, Note_on_c, 1, 64, 127
1, 34110, Note_on_c, 1, 45, 127
1, 34134, Note_off_c, 1, 64, 0
1, 34134, Note_off_c, 1, 45, 0
1, 34272, Note_off_c, 1, 73, 0
1, 34320, Note_on_c, 1, 74, 127
1, 34320, Note_on_c, 1, 62, 127
1, 34320, Note_on_c, 1, 38, 127
1, 34416, Note_off_c, 1, 74, 0
1, 34416, Note_off_c, 1, 38, 0
1, 34440, Note_on_c, 1, 76, 127
1, 34440, Note_on_c, 1, 45, 127
1, 34512, Note_off_c, 1, 62, 0
1, 34536, Note_off_c, 1, 76, 0
1, 34536, Note_off_c, 1, 45, 0
1, 34560, Note_on_c, 1, 77, 127
1, 34560, Note_on_c, 1, 50, 127
1, 34656, Note_off_c, 1, 77, 0
1, 34656, Note_off_c, 1, 50, 0
1, 34680, Note_on_c, 1, 79, 127
1, 34680, Note_on_c, 1, 52, 127
1, 34776, Note_off_c, 1, 79, 0
1, 34776, Note_off_c, 1, 52, 0
1, 34800, Note_on_c, 1, 74, 127
1, 34800, Note_on_c, 1, 81, 127
1, 34800, Note_on_c, 1, 53, 127
1, 34896, Note_off_c, 1, 74, 0
1, 34896, Note_off_c, 1, 53, 0
1, 34920, Note_on_c, 1, 76, 127
1, 34920, Note_on_c, 1, 49, 127
1, 34992, Note_off_c, 1, 81, 0
1, 35016, Note_off_c, 1, 76, 0
1, 35016, Note_off_c, 1, 49, 0
1, 35040, Note_on_c, 1, 82, 127
1, 35040, Note_on_c, 1, 77, 127
1, 35040, Note_on_c, 1, 50, 127
1, 35064, Note_off_c, 1, 82, 0
1, 35070, Note_on_c, 1, 81, 127
1, 35094, Note_off_c, 1, 81, 0
1, 35136, Note_off_c, 1, 50, 0
1, 35160, Note_on_c, 1, 45, 127
1, 35256, Note_off_c, 1, 45, 0
1, 35280, Note_on_c, 1, 38, 127
1, 35376, Note_off_c, 1, 38, 0
1, 35400, Note_on_c, 1, 79, 127
1, 35400, Note_on_c, 1, 48, 127
1, 35424, Note_off_c, 1, 77, 0
1, 35448, Note_off_c, 1, 79, 0
1, 35496, Note_off_c, 1, 48, 0
1, 35520, Note_on_c, 1, 82, 127
1, 35520, Note_on_c, 1, 79, 127
1, 35520, Note_on_c, 1, 46, 127
1, 35616, Note_off_c, 1, 46, 0
1, 35640, Note_on_c, 1, 45, 127
1, 35700, Note_off_c, 1, 82, 0
1, 35712, Note_off_c, 1, 79, 0
1, 35736, Note_off_c, 1, 45, 0
1, 35760, Note_on_c, 1, 81, 127
1, 35760, Note_on_c, 1, 77, 127
1, 35760, Note_on_c, 1, 46, 127
1, 35856, Note_off_c, 1, 46, 0
1, 35880, Note_on_c, 1, 43, 127
1, 35940, Note_off_c, 1, 81, 0
1, 35952, Note_off_c, 1, 77, 0
1, 35976, Note_off_c, 1, 43, 0
1, 36000, Note_on_c, 1, 79, 127
1, 36000, Note_on_c, 1, 76, 127
1, 36000, Note_on_c, 1, 48, 127
1, 36096, Note_off_c, 1, 79, 0
1, 36120, Note_on_c, 1, 82, 127
1, 36216, Note_off_c, 1, 82, 0
1, 36240, Note_on_c, 1, 81, 127
1, 36288, Note_off_c, 1, 48, 0
1, 36336, Note_off_c, 1, 81, 0
1, 36360, Note_on_c, 1, 49, 127
1, 36384, Note_off_c, 1, 76, 0
1, 36456, Note_off_c, 1, 49, 0
1, 36480, Note_on_c, 1, 77, 127
1, 36480, Note_on_c, 1, 50, 127
1, 36576, Note_off_c, 1, 77, 0
1, 36576, Note_off_c, 1, 50, 0
1, 36600, Note_on_c, 1, 76, 127
1, 36600, Note_on_c, 1, 52, 127
1, 36696, Note_off_c, 1, 76, 0
1, 36696, Note_off_c, 1, 52, 0
1, 36720, Note_on_c, 1, 74, 127
1, 36720, Note_on_c, 1, 53, 127
1, 36816, Note_off_c, 1, 74, 0
1, 36816, Note_off_c, 1, 53, 0
1, 36840, Note_on_c, 1, 73, 127
1, 36840, Note_on_c, 1, 55, 127
1, 36936, Note_off_c, 1, 73, 0
1, 36936, Note_off_c, 1, 55, 0
1, 36960, Note_on_c, 1, 81, 127
1, 36960, Note_on_c, 1, 74, 127
1, 36960, Note_on_c, 1, 41, 127
1, 37320, Note_off_c, 1, 81, 0
1, 37320, Note_off_c, 1, 41, 0
1, 37344, Note_off_c, 1, 74, 0
1, 37440, Note_on_c, 1, 76, 127
1, 37440, Note_on_c, 1, 73, 127
1, 37440, Note_on_c, 1, 45, 127
1, 37800, Note_off_c, 1, 76, 0
1, 37800, Note_off_c, 1, 45, 0
1, 37824, Note_off_c, 1, 73, 0
1, 37920, Note_on_c, 1, 74, 127
1, 37920, Note_on_c, 1, 38, 127
1, 38304, Note_off_c, 1, 74, 0
1, 38304, Note_off_c, 1, 38, 0
1, 38400, Note_on_c, 1, 76, 127
1, 38400, Note_on_c, 1, 72, 127
1, 38400, Note_on_c, 1, 45, 127
1, 38496, Note_off_c, 1, 45, 0
1, 38520, Note_on_c, 1, 57, 127
1, 38580, Note_off_c, 1, 76, 0
1, 38592, Note_off_c, 1, 72, 0
1, 38616, Note_off_c, 1, 57, 0
1, 38640, Note_on_c, 1, 76, 127
1, 38640, Note_on_c, 1, 71, 127
1, 38640, Note_on_c, 1, 56, 127
1, 38736, Note_off_c, 1, 56, 0
1, 38760, Note_on_c, 1, 52, 127
1, 38820, Note_off_c, 1, 76, 0
1, 38832, Note_off_c, 1, 71, 0
1, 38856, Note_off_c, 1, 52, 0
1, 38880, Note_on_c, 1, 77, 127
1, 38880, Note_on_c, 1, 69, 127
1, 38880, Note_on_c, 1, 57, 127
1, 38904, Note_off_c, 1, 77, 0
1, 38910, Note_on_c, 1, 76, 127
1, 38934, Note_off_c, 1, 76, 0
1, 38976, Note_off_c, 1, 57, 0
1, 39000, Note_on_c, 1, 52, 127
1, 39096, Note_off_c, 1, 52, 0
1, 39120, Note_on_c, 1, 45, 127
1, 39216, Note_off_c, 1, 45, 0
1, 39240, Note_on_c, 1, 74, 127
1, 39240, Note_on_c, 1, 55, 127
1, 39264, Note_off_c, 1, 69, 0
1, 39288, Note_off_c, 1, 74, 0
1, 39336, Note_off_c, 1, 55, 0
1, 39360, Note_on_c, 1, 77, 127
1, 39360, Note_on_c, 1, 74, 127
1, 39360, Note_on_c, 1, 53, 127
1, 39456, Note_off_c, 1, 53, 0
1, 39480, Note_on_c, 1, 52, 127
1, 39540, Note_off_c, 1, 77, 0
1, 39552, Note_off_c, 1, 74, 0
1, 39576, Note_off_c, 1, 52, 0
1, 39600, Note_on_c, 1, 76, 127
1, 39600, Note_on_c, 1, 72, 127
1, 39600, Note_on_c, 1, 53, 127
1, 39696, Note_off_c, 1, 53, 0
1, 39720, Note_on_c, 1, 50, 127
1, 39780, Note_off_c, 1, 76, 0
1, 39792, Note_off_c, 1, 72, 0
1, 39816, Note_off_c, 1, 50, 0
1, 39840, Note_on_c, 1, 71, 127
1, 39840, Note_on_c, 1, 74, 127
1, 39840, Note_on_c, 1, 55, 127
1, 39936, Note_off_c, 1, 55, 0
1, 39960, Note_on_c, 1, 50, 127
1, 40056, Note_off_c, 1, 50, 0
1, 40080, Note_on_c, 1, 43, 127
1, 40176, Note_off_c, 1, 43, 0
1, 40224, Note_off_c, 1, 71, 0
1, 40224, Note_off_c, 1, 74, 0
1, 40320, Note_on_c, 1, 74, 127
1, 40320, Note_on_c, 1, 71, 127
1, 40320, Note_on_c, 1, 55, 127
1, 40416, Note_off_c, 1, 55, 0
1, 40440, Note_on_c, 1, 53, 127
1, 40500, Note_off_c, 1, 74, 0
1, 40512, Note_off_c, 1, 71, 0
1, 40536, Note_off_c, 1, 53, 0
1, 40560, Note_on_c, 1, 79, 127
1, 40560, Note_on_c, 1, 71, 127
1, 40560, Note_on_c, 1, 55, 127
1, 40656, Note_off_c, 1, 55, 0
1, 40680, Note_on_c, 1, 52, 127
1, 40740, Note_off_c, 1, 79, 0
1, 40752, Note_off_c, 1, 71, 0
1, 40776, Note_off_c, 1, 52, 0
1, 40800, Note_on_c, 1, 77, 127
1, 40800, Note_on_c, 1, 72, 127
1, 40800, Note_on_c, 1, 57, 127
1, 40824, Note_off_c, 1, 77, 0
1, 40830, Note_on_c, 1, 76, 127
1, 40854, Note_off_c, 1, 76, 0
1, 40896, Note_off_c, 1, 57, 0
1, 40920, Note_on_c, 1, 55, 127
1, 41016, Note_off_c, 1, 55, 0
1, 41040, Note_on_c, 1, 53, 127
1, 41136, Note_off_c, 1, 53, 0
1, 41160, Note_on_c, 1, 74, 127
1, 41160, Note_on_c, 1, 52, 127
1, 41184, Note_off_c, 1, 72, 0
1, 41208, Note_off_c, 1, 74, 0
1, 41256, Note_off_c, 1, 52, 0
1, 41280, Note_on_c, 1, 77, 127
1, 41280, Note_on_c, 1, 74, 127
1, 41280, Note_on_c, 1, 50, 127
1, 41376, Note_off_c, 1, 77, 0
1, 41376, Note_off_c, 1, 50, 0
1, 41400, Note_on_c, 1, 79, 127
1, 41400, Note_on_c, 1, 59, 127
1, 41472, Note_off_c, 1, 74, 0
1, 41496, Note_off_c, 1, 79, 0
1, 41496, Note_off_c, 1, 59, 0
1, 41520, Note_on_c, 1, 76, 127
1, 41520, Note_on_c, 1, 72, 127
1, 41520, Note_on_c, 1, 60, 127
1, 41616, Note_off_c, 1, 76, 0
1, 41616, Note_off_c, 1, 60, 0
1, 41640, Note_on_c, 1, 77, 127
1, 41640, Note_on_c, 1, 53, 127
1, 41712, Note_off_c, 1, 72, 0
1, 41736, Note_off_c, 1, 77, 0
1, 41736, Note_off_c, 1, 53, 0
1, 41760, Note_on_c, 1, 74, 127
1, 41760, Note_on_c, 1, 71, 127
1, 41760, Note_on_c, 1, 55, 127
1, 41856, Note_off_c, 1, 55, 0
1, 41880, Note_on_c, 1, 43, 127
1, 41952, Note_off_c, 1, 74, 0
1, 41952, Note_off_c, 1, 71, 0
1, 41976, Note_off_c, 1, 43, 0
1, 42000, Note_on_c, 1, 72, 127
1, 42000, Note_on_c, 1, 48, 127
1, 42096, Note_off_c, 1, 48, 0
1, 42120, Note_on_c, 1, 46, 127
1, 42192, Note_off_c, 1, 72, 0
1, 42216, Note_off_c, 1, 46, 0
1, 42240, Note_on_c, 1, 76, 127
1, 42240, Note_on_c, 1, 72, 127
1, 42240, Note_on_c, 1, 45, 127
1, 42336, Note_off_c, 1, 45, 0
1, 42360, Note_on_c, 1, 46, 127
1, 42432, Note_off_c, 1, 76, 0
1, 42432, Note_off_c, 1, 72, 0
1, 42456, Note_off_c, 1, 46, 0
1, 42480, Note_on_c, 1, 78, 127
1, 42480, Note_on_c, 1, 72, 127
1, 42480, Note_on_c, 1, 48, 127
1, 42528, Note_off_c, 1, 78, 0
1, 42540, Note_on_c, 1, 79, 127
1, 42576, Note_off_c, 1, 48, 0
1, 42588, Note_off_c, 1, 79, 0
1, 42600, Note_on_c, 1, 81, 127
1, 42600, Note_on_c, 1, 45, 127
1, 42672, Note_off_c, 1, 72, 0
1, 42696, Note_off_c, 1, 81, 0
1, 42696, Note_off_c, 1, 45, 0
1, 42720, Note_on_c, 1, 78, 127
1, 42720, Note_on_c, 1, 69, 127
1, 42720, Note_on_c, 1, 50, 127
1, 42816, Note_off_c, 1, 50, 0
1, 42840, Note_on_c, 1, 45, 127
1, 42936, Note_off_c, 1, 45, 0
1, 42960, Note_on_c, 1, 38, 127
1, 43008, Note_off_c, 1, 78, 0
1, 43056, Note_off_c, 1, 38, 0
1, 43080, Note_on_c, 1, 76, 127
1, 43080, Note_on_c, 1, 48, 127
1, 43104, Note_off_c, 1, 69, 0
1, 43128, Note_off_c, 1, 76, 0
1, 43176, Note_off_c, 1, 48, 0
1, 43200, Note_on_c, 1, 79, 127
1, 43200, Note_on_c, 1, 74, 127
1, 43200, Note_on_c, 1, 46, 127
1, 43296, Note_off_c, 1, 46, 0
1, 43320, Note_on_c, 1, 45, 127
1, 43380, Note_off_c, 1, 79, 0
1, 43392, Note_off_c, 1, 74, 0
1, 43416, Note_off_c, 1, 45, 0
1, 43440, Note_on_c, 1, 81, 127
1, 43440, Note_on_c, 1, 74, 127
1, 43440, Note_on_c, 1, 43, 127
1, 43536, Note_off_c, 1, 43, 0
1, 43560, Note_on_c, 1, 42, 127
1, 43620, Note_off_c, 1, 81, 0
1, 43632, Note_off_c, 1, 74, 0
1, 43656, Note_off_c, 1, 42, 0
1, 43680, Note_on_c, 1, 82, 127
1, 43680, Note_on_c, 1, 74, 127
1, 43680, Note_on_c, 1, 43, 127
1, 43776, Note_off_c, 1, 43, 0
1, 43800, Note_on_c, 1, 46, 127
1, 43896, Note_off_c, 1, 46, 0
1, 43920, Note_on_c, 1, 50, 127
1, 43968, Note_off_c, 1, 82, 0
1, 44016, Note_off_c, 1, 50, 0
1, 44040, Note_on_c, 1, 81, 127
1, 44040, Note_on_c, 1, 55, 127
1, 44088, Note_off_c, 1, 81, 0
1, 44136, Note_off_c, 1, 55, 0
1, 44160, Note_on_c, 1, 84, 127
1, 44160, Note_on_c, 1, 54, 127
1, 44256, Note_off_c, 1, 84, 0
1, 44340, Note_off_c, 1, 54, 0
1, 45000, Note_on_c, 1, 79, 127
1, 45096, Note_off_c, 1, 79, 0
1, 45120, Note_on_c, 1, 48, 127
1, 45300, Note_off_c, 1, 48, 0
1, 45480, Note_on_c, 1, 78, 127
1, 45576, Note_off_c, 1, 78, 0
1, 45600, Note_on_c, 1, 47, 127
1, 45696, Note_off_c, 1, 74, 0
1, 45720, Note_on_c, 1, 75, 127
1, 45780, Note_off_c, 1, 47, 0
1, 45816, Note_off_c, 1, 75, 0
1, 45840, Note_on_c, 1, 77, 127
1, 45936, Note_off_c, 1, 77, 0
1, 46080, Note_on_c, 1, 57, 127
1, 46260, Note_off_c, 1, 57, 0
1, 46320, Note_on_c, 1, 59, 127
1, 46440, Note_on_c, 1, 72, 127
1, 46500, Note_off_c, 1, 59, 0
1, 46536, Note_off_c, 1, 72, 0
1, 46560, Note_on_c, 1, 60, 127
1, 46740, Note_off_c, 1, 60, 0
1, 46800, Note_on_c, 1, 62, 127
1, 46920, Note_on_c, 1, 71, 127
1, 46980, Note_off_c, 1, 62, 0
1, 47016, Note_off_c, 1, 71, 0
1, 47040, Note_on_c, 1, 63, 127
1, 47220, Note_off_c, 1, 63, 0
1, 47520, Note_on_c, 1, 67, 127
1, 47712, Note_off_c, 1, 67, 0
1, 47760, Note_on_c, 1, 69, 127
1, 47880, Note_on_c, 1, 70, 127
1, 47940, Note_off_c, 1, 69, 0
1, 47976, Note_off_c, 1, 70, 0
1, 48480, Note_on_c, 1, 79, 127
1, 48480, Note_on_c, 1, 70, 127
1, 48480, Note_on_c, 1, 62, 127
1, 48576, Note_off_c, 1, 79, 0
1, 48576, Note_off_c, 1, 70, 0
1, 48600, Note_on_c, 1, 72, 127
1, 48600, Note_on_c, 1, 81, 127
1, 48696, Note_off_c, 1, 72, 0
1, 48696, Note_off_c, 1, 81, 0
1, 48720, Note_on_c, 1, 82, 127
1, 48720, Note_on_c, 1, 74, 127
1, 48816, Note_off_c, 1, 82, 0
1, 48816, Note_off_c, 1, 74, 0
1, 49248, Note_off_c, 1, 62, 0
1, 49320, Note_on_c, 1, 78, 127
1, 49320, Note_on_c, 1, 69, 127
1, 49416, Note_off_c, 1, 78, 0
1, 49416, Note_off_c, 1, 69, 0
1, 49440, Note_on_c, 1, 70, 127
1, 49440, Note_on_c, 1, 79, 127
1, 49440, Note_on_c, 1, 55, 127
1, 49536, Note_off_c, 1, 55, 0
1, 49560, Note_on_c, 1, 50, 127
1, 49656, Note_off_c, 1, 50, 0
1, 49680, Note_on_c, 1, 46, 127
1, 49776, Note_off_c, 1, 46, 0
1, 49824, Note_off_c, 1, 70, 0
1, 49824, Note_off_c, 1, 79, 0
1, 49920, Note_on_c, 1, 74, 127
1, 49920, Note_on_c, 1, 70, 127
1, 49920, Note_on_c, 1, 43, 127
1, 50016, Note_off_c, 1, 43, 0
1, 50040, Note_on_c, 1, 50, 127
1, 50100, Note_off_c, 1, 74, 0
1, 50112, Note_off_c, 1, 70, 0
1, 50136, Note_off_c, 1, 50, 0
1, 50160, Note_on_c, 1, 74, 127
1, 50160, Note_on_c, 1, 69, 127
1, 50160, Note_on_c, 1, 55, 127
1, 50256, Note_off_c, 1, 55, 0
1, 50280, Note_on_c, 1, 53, 127
1, 50340, Note_off_c, 1, 74, 0
1, 50352, Note_off_c, 1, 69, 0
1, 50376, Note_off_c, 1, 53, 0
1, 50400, Note_on_c, 1, 67, 127
1, 50400, Note_on_c, 1, 74, 127
1, 50400, Note_on_c, 1, 52, 127
1, 50496, Note_off_c, 1, 52, 0
1, 50520, Note_on_c, 1, 53, 127
1, 50592, Note_off_c, 1, 67, 0
1, 50616, Note_off_c, 1, 53, 0
1, 50640, Note_on_c, 1, 70, 127
1, 50640, Note_on_c, 1, 55, 127
1, 50688, Note_off_c, 1, 74, 0
1, 50736, Note_off_c, 1, 55, 0
1, 50760, Note_on_c, 1, 76, 127
1, 50808, Note_off_c, 1, 76, 0
1, 50832, Note_off_c, 1, 70, 0
1, 50880, Note_on_c, 1, 73, 127
1, 50880, Note_on_c, 1, 69, 127
1, 50880, Note_on_c, 1, 57, 127
1, 50976, Note_off_c, 1, 73, 0
1, 50976, Note_off_c, 1, 57, 0
1, 51000, Note_on_c, 1, 74, 127
1, 51000, Note_on_c, 1, 58, 127
1, 51096, Note_off_c, 1, 74, 0
1, 51096, Note_off_c, 1, 58, 0
1, 51120, Note_on_c, 1, 76, 127
1, 51216, Note_off_c, 1, 76, 0
1, 51240, Note_on_c, 1, 55, 127
1, 51264, Note_off_c, 1, 69, 0
1, 51336, Note_off_c, 1, 55, 0
1, 51360, Note_on_c, 1, 74, 127
1, 51360, Note_on_c, 1, 69, 127
1, 51360, Note_on_c, 1, 53, 127
1, 51456, Note_off_c, 1, 74, 0
1, 51480, Note_on_c, 1, 76, 127
1, 51540, Note_off_c, 1, 53, 0
1, 51576, Note_off_c, 1, 76, 0
1, 51600, Note_on_c, 1, 77, 127
1, 51600, Note_on_c, 1, 50, 127
1, 51696, Note_off_c, 1, 77, 0
1, 51780, Note_off_c, 1, 50, 0
1, 51840, Note_on_c, 1, 49, 127
1, 52020, Note_off_c, 1, 49, 0
1, 52080, Note_on_c, 1, 79, 127
1, 52080, Note_on_c, 1, 45, 127
1, 52128, Note_off_c, 1, 69, 0
1, 52176, Note_off_c, 1, 79, 0
1, 52260, Note_off_c, 1, 45, 0
1, 52320, Note_on_c, 1, 77, 127
1, 52320, Note_on_c, 1, 69, 127
1, 52320, Note_on_c, 1, 50, 127
1, 52416, Note_off_c, 1, 77, 0
1, 52440, Note_on_c, 1, 76, 127
1, 52512, Note_off_c, 1, 50, 0
1, 52536, Note_off_c, 1, 76, 0
1, 52560, Note_on_c, 1, 48, 127
1, 52680, Note_on_c, 1, 81, 127
1, 52704, Note_off_c, 1, 69, 0
1, 52752, Note_off_c, 1, 48, 0
1, 52776, Note_off_c, 1, 81, 0
1, 52800, Note_on_c, 1, 79, 127
1, 52800, Note_on_c, 1, 46, 127
1, 52896, Note_off_c, 1, 79, 0
1, 52920, Note_on_c, 1, 77, 127
1, 52980, Note_off_c, 1, 46, 0
1, 53016, Note_off_c, 1, 77, 0
1, 53040, Note_on_c, 1, 76, 127
1, 53040, Note_on_c, 1, 43, 127
1, 53136, Note_off_c, 1, 76, 0
1, 53160, Note_on_c, 1, 74, 127
1, 53220, Note_off_c, 1, 43, 0
1, 53256, Note_off_c, 1, 74, 0
1, 53280, Note_on_c, 1, 73, 127
1, 53280, Note_on_c, 1, 45, 127
1, 53376, Note_off_c, 1, 73, 0
1, 53400, Note_on_c, 1, 69, 127
1, 53460, Note_off_c, 1, 45, 0
1, 53496, Note_off_c, 1, 69, 0
1, 53520, Note_on_c, 1, 71, 127
1, 53520, Note_on_c, 1, 57, 127
1, 53616, Note_off_c, 1, 71, 0
1, 53616, Note_off_c, 1, 57, 0
1, 53640, Note_on_c, 1, 73, 127
1, 53640, Note_on_c, 1, 55, 127
1, 53736, Note_off_c, 1, 73, 0
1, 53736, Note_off_c, 1, 55, 0
1, 53760, Note_on_c, 1, 74, 127
1, 53760, Note_on_c, 1, 69, 127
1, 53760, Note_on_c, 1, 53, 127
1, 53856, Note_off_c, 1, 74, 0
1, 53856, Note_off_c, 1, 53, 0
1, 53880, Note_on_c, 1, 76, 127
1, 53880, Note_on_c, 1, 52, 127
1, 53952, Note_off_c, 1, 69, 0
1, 53976, Note_off_c, 1, 76, 0
1, 53976, Note_off_c, 1, 52, 0
1, 54000, Note_on_c, 1, 69, 127
1, 54000, Note_on_c, 1, 77, 127
1, 54000, Note_on_c, 1, 50, 127
1, 54096, Note_off_c, 1, 50, 0
1, 54120, Note_on_c, 1, 48, 127
1, 54192, Note_off_c, 1, 69, 0
1, 54192, Note_off_c, 1, 77, 0
1, 54216, Note_off_c, 1, 48, 0
1, 54240, Note_on_c, 1, 69, 127
1, 54240, Note_on_c, 1, 77, 127
1, 54240, Note_on_c, 1, 46, 127
1, 54336, Note_off_c, 1, 46, 0
1, 54360, Note_on_c, 1, 48, 127
1, 54456, Note_off_c, 1, 48, 0
1, 54528, Note_off_c, 1, 69, 0
1, 54600, Note_on_c, 1, 67, 127
1, 54600, Note_on_c, 1, 45, 127
1, 54648, Note_off_c, 1, 67, 0
1, 54696, Note_off_c, 1, 45, 0
1, 54720, Note_on_c, 1, 70, 127
1, 54720, Note_on_c, 1, 43, 127
1, 54816, Note_off_c, 1, 43, 0
1, 54900, Note_off_c, 1, 70, 0
1, 55008, Note_off_c, 1, 77, 0
1, 55200, Note_on_c, 1, 67, 127
1, 55200, Note_on_c, 1, 77, 127
1, 55200, Note_on_c, 1, 48, 127
1, 55296, Note_off_c, 1, 48, 0
1, 55320, Note_on_c, 1, 43, 127
1, 55416, Note_off_c, 1, 43, 0
1, 55440, Note_on_c, 1, 36, 127
1, 55536, Note_off_c, 1, 36, 0
1, 55584, Note_off_c, 1, 67, 0
1, 55584, Note_off_c, 1, 77, 0
1, 55680, Note_on_c, 1, 67, 127
1, 55680, Note_on_c, 1, 76, 127
1, 55680, Note_on_c, 1, 48, 127
1, 55776, Note_off_c, 1, 48, 0
1, 55800, Note_on_c, 1, 50, 127
1, 55860, Note_off_c, 1, 67, 0
1, 55896, Note_off_c, 1, 50, 0
1, 55920, Note_on_c, 1, 52, 127
1, 56016, Note_off_c, 1, 52, 0
1, 56064, Note_off_c, 1, 76, 0
1, 56160, Note_on_c, 1, 67, 127
1, 56160, Note_on_c, 1, 76, 127
1, 56160, Note_on_c, 1, 50, 127
1, 56184, Note_off_c, 1, 50, 0
1, 56190, Note_on_c, 1, 49, 127
1, 56214, Note_off_c, 1, 49, 0
1, 56256, Note_off_c, 1, 67, 0
1, 56280, Note_on_c, 1, 70, 127
1, 56376, Note_off_c, 1, 70, 0
1, 56400, Note_on_c, 1, 69, 127
1, 56496, Note_off_c, 1, 69, 0
1, 56544, Note_off_c, 1, 76, 0
1, 56640, Note_on_c, 1, 65, 127
1, 56640, Note_on_c, 1, 74, 127
1, 56640, Note_on_c, 1, 50, 127
1, 56736, Note_off_c, 1, 65, 0
1, 56736, Note_off_c, 1, 50, 0
1, 56760, Note_on_c, 1, 69, 127
1, 56760, Note_on_c, 1, 48, 127
1, 56856, Note_off_c, 1, 69, 0
1, 56856, Note_off_c, 1, 48, 0
1, 56880, Note_on_c, 1, 67, 127
1, 56880, Note_on_c, 1, 46, 127
1, 56976, Note_off_c, 1, 67, 0
1, 56976, Note_off_c, 1, 46, 0
1, 57000, Note_on_c, 1, 43, 127
1, 57024, Note_off_c, 1, 74, 0
1, 57096, Note_off_c, 1, 43, 0
1, 57120, Note_on_c, 1, 65, 127
1, 57120, Note_on_c, 1, 73, 127
1, 57120, Note_on_c, 1, 46, 127
1, 57144, Note_off_c, 1, 65, 0
1, 57144, Note_off_c, 1, 46, 0
1, 57150, Note_on_c, 1, 64, 127
1, 57150, Note_on_c, 1, 45, 127
1, 57174, Note_off_c, 1, 64, 0
1, 57174, Note_off_c, 1, 45, 0
1, 57312, Note_off_c, 1, 73, 0
1, 57360, Note_on_c, 1, 74, 127
1, 57360, Note_on_c, 1, 62, 127
1, 57360, Note_on_c, 1, 38, 127
1, 57456, Note_off_c, 1, 74, 0
1, 57456, Note_off_c, 1, 38, 0
1, 57480, Note_on_c, 1, 76, 127
1, 57480, Note_on_c, 1, 45, 127
1, 57552, Note_off_c, 1, 62, 0
1, 57576, Note_off_c, 1, 76, 0
1, 57576, Note_off_c, 1, 45, 0
1, 57600, Note_on_c, 1, 77, 127
1, 57600, Note_on_c, 1, 50, 127
1, 57696, Note_off_c, 1, 77, 0
1, 57696, Note_off_c, 1, 50, 0
1, 57720, Note_on_c, 1, 79, 127
1, 57720, Note_on_c, 1, 52, 127
1, 57816, Note_off_c, 1, 79, 0
1, 57816, Note_off_c, 1, 52, 0
1, 57840, Note_on_c, 1, 74, 127
1, 57840, Note_on_c, 1, 81, 127
1, 57840, Note_on_c, 1, 53, 127
1, 57936, Note_off_c, 1, 74, 0
1, 57936, Note_off_c, 1, 53, 0
1, 57960, Note_on_c, 1, 76, 127
1, 57960, Note_on_c, 1, 49, 127
1, 58032, Note_off_c, 1, 81, 0
1, 58056, Note_off_c, 1, 76, 0
1, 58056, Note_off_c, 1, 49, 0
1, 58080, Note_on_c, 1, 82, 127
1, 58080, Note_on_c, 1, 77, 127
1, 58080, Note_on_c, 1, 50, 127
1, 58104, Note_off_c, 1, 82, 0
1, 58110, Note_on_c, 1, 81, 127
1, 58134, Note_off_c, 1, 81, 0
1, 58176, Note_off_c, 1, 50, 0
1, 58200, Note_on_c, 1, 45, 127
1, 58296, Note_off_c, 1, 45, 0
1, 58320, Note_on_c, 1, 38, 127
1, 58416, Note_off_c, 1, 38, 0
1, 58440, Note_on_c, 1, 79, 127
1, 58440, Note_on_c, 1, 48, 127
1, 58464, Note_off_c, 1, 77, 0
1, 58488, Note_off_c, 1, 79, 0
1, 58536, Note_off_c, 1, 48, 0
1, 58560, Note_on_c, 1, 82, 127
1, 58560, Note_on_c, 1, 79, 127
1, 58560, Note_on_c, 1, 46, 127
1, 58656, Note_off_c, 1, 46, 0
1, 58680, Note_on_c, 1, 45, 127
1, 58740, Note_off_c, 1, 82, 0
1, 58752, Note_off_c, 1, 79, 0
1, 58776, Note_off_c, 1, 45, 0
1, 58800, Note_on_c, 1, 81, 127
1, 58800, Note_on_c, 1, 77, 127
1, 58800, Note_on_c, 1, 46, 127
1, 58896, Note_off_c, 1, 46, 0
1, 58920, Note_on_c, 1, 43, 127
1, 58980, Note_off_c, 1, 81, 0
1, 58992, Note_off_c, 1, 77, 0
1, 59016, Note_off_c, 1, 43, 0
1, 59040, Note_on_c, 1, 79, 127
1, 59040, Note_on_c, 1, 76, 127
1, 59040, Note_on_c, 1, 48, 127
1, 59136, Note_off_c, 1, 79, 0
1, 59160, Note_on_c, 1, 82, 127
1, 59256, Note_off_c, 1, 82, 0
1, 59280, Note_on_c, 1, 81, 127
1, 59328, Note_off_c, 1, 48, 0
1, 59376, Note_off_c, 1, 81, 0
1, 59400, Note_on_c, 1, 49, 127
1, 59424, Note_off_c, 1, 76, 0
1, 59496, Note_off_c, 1, 49, 0
1, 59520, Note_on_c, 1, 77, 127
1, 59520, Note_on_c, 1, 50, 127
1, 59616, Note_off_c, 1, 77, 0
1, 59616, Note_off_c, 1, 50, 0
1, 59640, Note_on_c, 1, 76, 127
1, 59640, Note_on_c, 1, 52, 127
1, 59736, Note_off_c, 1, 76, 0
1, 59736, Note_off_c, 1, 52, 0
1, 59760, Note_on_c, 1, 74, 127
1, 59760, Note_on_c, 1, 53, 127
1, 59856, Note_off_c, 1, 74, 0
1, 59856, Note_off_c, 1, 53, 0
1, 59880, Note_on_c, 1, 73, 127
1, 59880, Note_on_c, 1, 55, 127
1, 59976, Note_off_c, 1, 73, 0
1, 59976, Note_off_c, 1, 55, 0
1, 60000, Note_on_c, 1, 81, 127
1, 60000, Note_on_c, 1, 74, 127
1, 60000, Note_on_c, 1, 41, 127
1, 60360, Note_off_c, 1, 81, 0
1, 60360, Note_off_c, 1, 41, 0
1, 60384, Note_off_c, 1, 74, 0
1, 60480, Note_on_c, 1, 76, 127
1, 60480, Note_on_c, 1, 73, 127
1, 60480, Note_on_c, 1, 45, 127
1, 60840, Note_off_c, 1, 76, 0
1, 60840, Note_off_c, 1, 45, 0
1, 60864, Note_off_c, 1, 73, 0
1, 60960, Note_on_c, 1, 74, 127
1, 60960, Note_on_c, 1, 38, 127
1, 61344, Note_off_c, 1, 74, 0
1, 61344, Note_off_c, 1, 38, 0
1, 61344, End_track
0, 0, End_of_file