0, 0, Header, 1, 1, 480
1, 0, Start_track
1, 0, Title_t, "Test"
1, 0, Tempo, 500000
1, 0, Instrument_name_t, "Church Organ"
1, 32, Note_on_c, 1, 75, 127
1, 32, Note_on_c, 1, 67, 127
1, 32, Note_on_c, 1, 63, 127
1, 179, Note_off_c, 1, 75, 0
1, 180, Note_on_c, 1, 77, 127
1, 327, Note_off_c, 1, 77, 0
1, 329, Note_on_c, 1, 79, 127
1, 476, Note_off_c, 1, 79, 0
1, 627, Note_on_c, 1, 74, 127
1, 774, Note_off_c, 1, 74, 0
1, 776, Note_on_c, 1, 72, 127
1, 791, Note_off_c, 1, 67, 0
1, 923, Note_off_c, 1, 63, 0
1, 923, Note_off_c, 1, 72, 0
1, 924, Note_on_c, 1, 70, 127
1, 924, Note_on_c, 1, 65, 127
1, 924, Note_on_c, 1, 62, 127
1, 1071, Note_off_c, 1, 70, 0
1, 1073, Note_on_c, 1, 68, 127
1, 1220, Note_off_c, 1, 65, 0
1, 1220, Note_off_c, 1, 62, 0
1, 1220, Note_off_c, 1, 68, 0
1, 1222, Note_on_c, 1, 63, 127
1, 1222, Note_on_c, 1, 67, 127
1, 1369, Note_off_c, 1, 63, 0
1, 1369, Note_off_c, 1, 67, 0
1, 1371, Note_on_c, 1, 65, 127
1, 1371, Note_on_c, 1, 68, 127
1, 1518, Note_off_c, 1, 65, 0
1, 1518, Note_off_c, 1, 68, 0
1, 1520, Note_on_c, 1, 67, 127
1, 1520, Note_on_c, 1, 70, 127
1, 1667, Note_off_c, 1, 67, 0
1, 1667, Note_off_c, 1, 70, 0
1, 1668, Note_on_c, 1, 63, 127
1, 1668, Note_on_c, 1, 72, 127
1, 1815, Note_off_c, 1, 63, 0
1, 1815, Note_off_c, 1, 72, 0
1, 1817, Note_on_c, 1, 62, 127
1, 1817, Note_on_c, 1, 70, 127
1, 1964, Note_off_c, 1, 62, 0
1, 1964, Note_off_c, 1, 70, 0
1, 1966, Note_on_c, 1, 60, 127
1, 1966, Note_on_c, 1, 75, 127
1, 2113, Note_off_c, 1, 60, 0
1, 2113, Note_off_c, 1, 75, 0
1, 2115, Note_on_c, 1, 58, 127
1, 2115, Note_on_c, 1, 74, 127
1, 2262, Note_off_c, 1, 58, 0
1, 2262, Note_off_c, 1, 74, 0
1, 2264, Note_on_c, 1, 56, 127
1, 2264, Note_on_c, 1, 72, 127
1, 2411, Note_off_c, 1, 56, 0
1, 2411, Note_off_c, 1, 72, 0
1, 2412, Note_on_c, 1, 55, 127
1, 2412, Note_on_c, 1, 70, 127
1, 2559, Note_off_c, 1, 55, 0
1, 2559, Note_off_c, 1, 70, 0
1, 2561, Note_on_c, 1, 53, 127
1, 2561, Note_on_c, 1, 68, 127
1, 2708, Note_off_c, 1, 53, 0
1, 2708, Note_off_c, 1, 68, 0
1, 2710, Note_on_c, 1, 51, 127
1, 2710, Note_on_c, 1, 67, 127
1, 2857, Note_off_c, 1, 51, 0
1, 2857, Note_off_c, 1, 67, 0
1, 2859, Note_on_c, 1, 53, 127
1, 2859, Note_on_c, 1, 72, 127
1, 3006, Note_off_c, 1, 53, 0
1, 3006, Note_off_c, 1, 72, 0
1, 3008, Note_on_c, 1, 70, 127
1, 3008, Note_on_c, 1, 55, 127
1, 3155, Note_off_c, 1, 70, 0
1, 3156, Note_on_c, 1, 68, 127
1, 3271, Note_off_c, 1, 55, 0
1, 3303, Note_off_c, 1, 68, 0
1, 3305, Note_on_c, 1, 67, 127
1, 3305, Note_on_c, 1, 56, 127
1, 3452, Note_off_c, 1, 67, 0
1, 3454, Note_on_c, 1, 65, 127
1, 3568, Note_off_c, 1, 56, 0
1, 3601, Note_off_c, 1, 65, 0
1, 3603, Note_on_c, 1, 58, 127
1, 3603, Note_on_c, 1, 63, 127
1, 3675, Note_off_c, 1, 58, 0
1, 3677, Note_on_c, 1, 56, 127
1, 3749, Note_off_c, 1, 56, 0
1, 3750, Note_off_c, 1, 63, 0
1, 3752, Note_on_c, 1, 58, 127
1, 3752, Note_on_c, 1, 62, 127
1, 3899, Note_off_c, 1, 58, 0
1, 3899, Note_off_c, 1, 62, 0
1, 3900, Note_on_c, 1, 60, 127
1, 3900, Note_on_c, 1, 53, 127
1, 4047, Note_off_c, 1, 60, 0
1, 4049, Note_on_c, 1, 62, 127
1, 4196, Note_off_c, 1, 53, 0
1, 4196, Note_off_c, 1, 62, 0
1, 4198, Note_on_c, 1, 58, 127
1, 4198, Note_on_c, 1, 50, 127
1, 4345, Note_off_c, 1, 58, 0
1, 4347, Note_on_c, 1, 62, 127
1, 4461, Note_off_c, 1, 50, 0
1, 4494, Note_off_c, 1, 62, 0
1, 4496, Note_on_c, 1, 65, 127
1, 4496, Note_on_c, 1, 46, 127
1, 4643, Note_off_c, 1, 65, 0
1, 4644, Note_on_c, 1, 68, 127
1, 4759, Note_off_c, 1, 46, 0
1, 4791, Note_off_c, 1, 68, 0
1, 4793, Note_on_c, 1, 67, 127
1, 4793, Note_on_c, 1, 51, 127
1, 4940, Note_off_c, 1, 67, 0
1, 4942, Note_on_c, 1, 68, 127
1, 5089, Note_off_c, 1, 68, 0
1, 5091, Note_on_c, 1, 70, 127
1, 5091, Note_on_c, 1, 55, 127
1, 5104, Note_off_c, 1, 51, 0
1, 5240, Note_on_c, 1, 75, 127
1, 5308, Note_off_c, 1, 70, 0
1, 5370, Note_off_c, 1, 55, 0
1, 5387, Note_off_c, 1, 75, 0
1, 5388, Note_on_c, 1, 55, 127
1, 5388, Note_on_c, 1, 68, 127
1, 5460, Note_off_c, 1, 55, 0
1, 5463, Note_on_c, 1, 53, 127
1, 5535, Note_off_c, 1, 53, 0
1, 5537, Note_on_c, 1, 75, 127
1, 5605, Note_off_c, 1, 68, 0
1, 5684, Note_off_c, 1, 75, 0
1, 5686, Note_on_c, 1, 67, 127
1, 5686, Note_on_c, 1, 51, 127
1, 5835, Note_on_c, 1, 75, 127
1, 5903, Note_off_c, 1, 67, 0
1, 5965, Note_off_c, 1, 51, 0
1, 5982, Note_off_c, 1, 75, 0
1, 5984, Note_on_c, 1, 50, 127
1, 5984, Note_on_c, 1, 65, 127
1, 6131, Note_off_c, 1, 50, 0
1, 6131, Note_off_c, 1, 65, 0
1, 6132, Note_on_c, 1, 51, 127
1, 6132, Note_on_c, 1, 67, 127
1, 6279, Note_off_c, 1, 51, 0
1, 6279, Note_off_c, 1, 67, 0
1, 6281, Note_on_c, 1, 53, 127
1, 6281, Note_on_c, 1, 68, 127
1, 6428, Note_off_c, 1, 53, 0
1, 6428, Note_off_c, 1, 68, 0
1, 6430, Note_on_c, 1, 50, 127
1, 6430, Note_on_c, 1, 65, 127
1, 6577, Note_off_c, 1, 50, 0
1, 6577, Note_off_c, 1, 65, 0
1, 6579, Note_on_c, 1, 48, 127
1, 6579, Note_on_c, 1, 63, 127
1, 6726, Note_off_c, 1, 48, 0
1, 6728, Note_on_c, 1, 53, 127
1, 6728, Note_on_c, 1, 68, 127
1, 6796, Note_off_c, 1, 63, 0
1, 6875, Note_off_c, 1, 53, 0
1, 6875, Note_off_c, 1, 68, 0
1, 6876, Note_on_c, 1, 46, 127
1, 6876, Note_on_c, 1, 62, 127
1, 7023, Note_off_c, 1, 46, 0
1, 7025, Note_on_c, 1, 53, 127
1, 7025, Note_on_c, 1, 68, 127
1, 7093, Note_off_c, 1, 62, 0
1, 7172, Note_off_c, 1, 53, 0
1, 7172, Note_off_c, 1, 68, 0
1, 7174, Note_on_c, 1, 67, 127
1, 7174, Note_on_c, 1, 51, 127
1, 7321, Note_off_c, 1, 67, 0
1, 7323, Note_on_c, 1, 68, 127
1, 7460, Note_off_c, 1, 51, 0
1, 7470, Note_off_c, 1, 68, 0
1, 7472, Note_on_c, 1, 70, 127
1, 7472, Note_on_c, 1, 55, 127
1, 7619, Note_off_c, 1, 70, 0
1, 7620, Note_on_c, 1, 75, 127
1, 7758, Note_off_c, 1, 55, 0
1, 7769, Note_on_c, 1, 53, 127
1, 7769, Note_on_c, 1, 68, 127
1, 7841, Note_off_c, 1, 53, 0
1, 7914, Note_off_c, 1, 75, 0
1, 7916, Note_off_c, 1, 68, 0
1, 7918, Note_on_c, 1, 53, 127
1, 7918, Note_on_c, 1, 75, 127
1, 8059, Note_off_c, 1, 53, 0
1, 8067, Note_on_c, 1, 67, 127
1, 8067, Note_on_c, 1, 51, 127
1, 8212, Note_off_c, 1, 75, 0
1, 8214, Note_off_c, 1, 67, 0
1, 8353, Note_off_c, 1, 51, 0
1, 8364, Note_on_c, 1, 50, 127
1, 8364, Note_on_c, 1, 65, 127
1, 8511, Note_off_c, 1, 50, 0
1, 8511, Note_off_c, 1, 65, 0
1, 8513, Note_on_c, 1, 51, 127
1, 8513, Note_on_c, 1, 67, 127
1, 8660, Note_off_c, 1, 51, 0
1, 8660, Note_off_c, 1, 67, 0
1, 8662, Note_on_c, 1, 53, 127
1, 8662, Note_on_c, 1, 68, 127
1, 8809, Note_off_c, 1, 53, 0
1, 8811, Note_on_c, 1, 50, 127
1, 8811, Note_on_c, 1, 65, 127
1, 8958, Note_off_c, 1, 50, 0
1, 8958, Note_off_c, 1, 65, 0
1, 8960, Note_on_c, 1, 48, 127
1, 8960, Note_on_c, 1, 63, 127
1, 9096, Note_off_c, 1, 68, 0
1, 9107, Note_off_c, 1, 48, 0
1, 9107, Note_off_c, 1, 63, 0
1, 9108, Note_on_c, 1, 53, 127
1, 9108, Note_on_c, 1, 68, 127
1, 9255, Note_off_c, 1, 53, 0
1, 9257, Note_on_c, 1, 46, 127
1, 9257, Note_on_c, 1, 62, 127
1, 9402, Note_off_c, 1, 68, 0
1, 9404, Note_off_c, 1, 46, 0
1, 9404, Note_off_c, 1, 62, 0
1, 9406, Note_on_c, 1, 53, 127
1, 9406, Note_on_c, 1, 68, 127
1, 9553, Note_off_c, 1, 53, 0
1, 9553, Note_off_c, 1, 68, 0
1, 9555, Note_on_c, 1, 67, 127
1, 9555, Note_on_c, 1, 51, 127
1, 9702, Note_off_c, 1, 67, 0
1, 9704, Note_on_c, 1, 68, 127
1, 9851, Note_off_c, 1, 51, 0
1, 9851, Note_off_c, 1, 68, 0
1, 9852, Note_on_c, 1, 39, 127
1, 9852, Note_on_c, 1, 70, 127
1, 10001, Note_on_c, 1, 65, 127
1, 10148, Note_off_c, 1, 39, 0
1, 10148, Note_off_c, 1, 65, 0
1, 10150, Note_on_c, 1, 63, 127
1, 10150, Note_on_c, 1, 41, 127
1, 10286, Note_off_c, 1, 70, 0
1, 10297, Note_off_c, 1, 63, 0
1, 10436, Note_off_c, 1, 41, 0
1, 10448, Note_on_c, 1, 61, 127
1, 10448, Note_on_c, 1, 43, 127
1, 10595, Note_off_c, 1, 61, 0
1, 10734, Note_off_c, 1, 43, 0
1, 10745, Note_on_c, 1, 60, 127
1, 10745, Note_on_c, 1, 44, 127
1, 10892, Note_off_c, 1, 60, 0
1, 10894, Note_on_c, 1, 61, 127
1, 11041, Note_off_c, 1, 44, 0
1, 11041, Note_off_c, 1, 61, 0
1, 11043, Note_on_c, 1, 63, 127
1, 11043, Note_on_c, 1, 55, 127
1, 11190, Note_off_c, 1, 63, 0
1, 11192, Note_on_c, 1, 68, 127
1, 11339, Note_off_c, 1, 55, 0
1, 11340, Note_on_c, 1, 53, 127
1, 11340, Note_on_c, 1, 62, 127
1, 11412, Note_off_c, 1, 53, 0
1, 11486, Note_off_c, 1, 68, 0
1, 11487, Note_off_c, 1, 62, 0
1, 11489, Note_on_c, 1, 53, 127
1, 11489, Note_on_c, 1, 68, 127
1, 11636, Note_off_c, 1, 53, 0
1, 11638, Note_on_c, 1, 60, 127
1, 11638, Note_on_c, 1, 51, 127
1, 11783, Note_off_c, 1, 68, 0
1, 11785, Note_off_c, 1, 60, 0
1, 11927, Note_off_c, 1, 51, 0
1, 11936, Note_on_c, 1, 58, 127
1, 11936, Note_on_c, 1, 50, 127
1, 12083, Note_off_c, 1, 58, 0
1, 12084, Note_on_c, 1, 68, 127
1, 12231, Note_off_c, 1, 68, 0
1, 12232, Note_off_c, 1, 50, 0
1, 12233, Note_on_c, 1, 67, 127
1, 12233, Note_on_c, 1, 51, 127
1, 12380, Note_off_c, 1, 67, 0
1, 12382, Note_on_c, 1, 65, 127
1, 12529, Note_off_c, 1, 51, 0
1, 12529, Note_off_c, 1, 65, 0
1, 12531, Note_on_c, 1, 67, 127
1, 12531, Note_on_c, 1, 58, 127
1, 12678, Note_off_c, 1, 67, 0
1, 12680, Note_on_c, 1, 63, 127
1, 12827, Note_off_c, 1, 58, 0
1, 12827, Note_off_c, 1, 63, 0
1, 12828, Note_on_c, 1, 58, 127
1, 12828, Note_on_c, 1, 46, 127
1, 12975, Note_off_c, 1, 58, 0
1, 12977, Note_on_c, 1, 62, 127
1, 13124, Note_off_c, 1, 46, 0
1, 13124, Note_off_c, 1, 62, 0
1, 13126, Note_on_c, 1, 51, 127
1, 13126, Note_on_c, 1, 62, 127
1, 13273, Note_off_c, 1, 51, 0
1, 13273, Note_off_c, 1, 62, 0
1, 13275, Note_on_c, 1, 63, 127
1, 13275, Note_on_c, 1, 53, 127
1, 13347, Note_off_c, 1, 63, 0
1, 13349, Note_on_c, 1, 62, 127
1, 13421, Note_off_c, 1, 62, 0
1, 13422, Note_off_c, 1, 53, 0
1, 13424, Note_on_c, 1, 55, 127
1, 13424, Note_on_c, 1, 63, 127
1, 13571, Note_off_c, 1, 55, 0
1, 13572, Note_on_c, 1, 53, 127
1, 13719, Note_off_c, 1, 53, 0
1, 13721, Note_on_c, 1, 51, 127
1, 13858, Note_off_c, 1, 63, 0
1, 13868, Note_off_c, 1, 51, 0
1, 13870, Note_on_c, 1, 55, 127
1, 14017, Note_off_c, 1, 55, 0
1, 14019, Note_on_c, 1, 50, 127
1, 14019, Note_on_c, 1, 67, 127
1, 14166, Note_off_c, 1, 50, 0
1, 14168, Note_on_c, 1, 55, 127
1, 14315, Note_off_c, 1, 67, 0
1, 14315, Note_off_c, 1, 55, 0
1, 14316, Note_on_c, 1, 72, 127
1, 14316, Note_on_c, 1, 51, 127
1, 14463, Note_off_c, 1, 72, 0
1, 14465, Note_on_c, 1, 74, 127
1, 14612, Note_off_c, 1, 51, 0
1, 14612, Note_off_c, 1, 74, 0
1, 14614, Note_on_c, 1, 75, 127
1, 14614, Note_on_c, 1, 60, 127
1, 14763, Note_on_c, 1, 79, 127
1, 14831, Note_off_c, 1, 75, 0
1, 14910, Note_off_c, 1, 60, 0
1, 14910, Note_off_c, 1, 79, 0
1, 14912, Note_on_c, 1, 60, 127
1, 14912, Note_on_c, 1, 74, 127
1, 14984, Note_off_c, 1, 60, 0
1, 14986, Note_on_c, 1, 59, 127
1, 15058, Note_off_c, 1, 59, 0
1, 15060, Note_on_c, 1, 79, 127
1, 15129, Note_off_c, 1, 74, 0
1, 15207, Note_off_c, 1, 79, 0
1, 15209, Note_on_c, 1, 72, 127
1, 15209, Note_on_c, 1, 57, 127
1, 15358, Note_on_c, 1, 79, 127
1, 15426, Note_off_c, 1, 72, 0
1, 15505, Note_off_c, 1, 57, 0
1, 15505, Note_off_c, 1, 79, 0
1, 15507, Note_on_c, 1, 71, 127
1, 15507, Note_on_c, 1, 55, 127
1, 15654, Note_off_c, 1, 71, 0
1, 15656, Note_on_c, 1, 72, 127
1, 15803, Note_off_c, 1, 55, 0
1, 15803, Note_off_c, 1, 72, 0
1, 15804, Note_on_c, 1, 74, 127
1, 15804, Note_on_c, 1, 59, 127
1, 15953, Note_on_c, 1, 77, 127
1, 16021, Note_off_c, 1, 74, 0
1, 16100, Note_off_c, 1, 59, 0
1, 16100, Note_off_c, 1, 77, 0
1, 16102, Note_on_c, 1, 71, 127
1, 16102, Note_on_c, 1, 62, 127
1, 16251, Note_on_c, 1, 77, 127
1, 16319, Note_off_c, 1, 71, 0
1, 16398, Note_off_c, 1, 62, 0
1, 16398, Note_off_c, 1, 77, 0
1, 16400, Note_on_c, 1, 67, 127
1, 16400, Note_on_c, 1, 59, 127
1, 16548, Note_on_c, 1, 77, 127
1, 16617, Note_off_c, 1, 67, 0
1, 16695, Note_off_c, 1, 77, 0
1, 16696, Note_off_c, 1, 59, 0
1, 16697, Note_on_c, 1, 72, 127
1, 16697, Note_on_c, 1, 63, 127
1, 16844, Note_off_c, 1, 72, 0
1, 16846, Note_on_c, 1, 74, 127
1, 16993, Note_off_c, 1, 63, 0
1, 16993, Note_off_c, 1, 74, 0
1, 16995, Note_on_c, 1, 75, 127
1, 16995, Note_on_c, 1, 60, 127
1, 17142, Note_off_c, 1, 75, 0
1, 17144, Note_on_c, 1, 79, 127
1, 17291, Note_off_c, 1, 60, 0
1, 17292, Note_on_c, 1, 72, 127
1, 17292, Note_on_c, 1, 57, 127
1, 17438, Note_off_c, 1, 79, 0
1, 17439, Note_off_c, 1, 72, 0
1, 17588, Note_off_c, 1, 57, 0
1, 17590, Note_on_c, 1, 70, 127
1, 17737, Note_off_c, 1, 70, 0
1, 17888, Note_on_c, 1, 69, 127
1, 17888, Note_on_c, 1, 53, 127
1, 18035, Note_off_c, 1, 69, 0
1, 18036, Note_on_c, 1, 70, 127
1, 18183, Note_off_c, 1, 70, 0
1, 18184, Note_off_c, 1, 53, 0
1, 18185, Note_on_c, 1, 72, 127
1, 18185, Note_on_c, 1, 57, 127
1, 18332, Note_off_c, 1, 72, 0
1, 18334, Note_on_c, 1, 75, 127
1, 18481, Note_off_c, 1, 57, 0
1, 18483, Note_on_c, 1, 69, 127
1, 18483, Note_on_c, 1, 60, 127
1, 18628, Note_off_c, 1, 75, 0
1, 18630, Note_off_c, 1, 69, 0
1, 18779, Note_off_c, 1, 60, 0
1, 18780, Note_on_c, 1, 65, 127
1, 18927, Note_off_c, 1, 65, 0
1, 19078, Note_on_c, 1, 58, 127
1, 19078, Note_on_c, 1, 74, 127
1, 19225, Note_off_c, 1, 58, 0
1, 19227, Note_on_c, 1, 60, 127
1, 19374, Note_off_c, 1, 74, 0
1, 19374, Note_off_c, 1, 60, 0
1, 19376, Note_on_c, 1, 62, 127
1, 19376, Note_on_c, 1, 77, 127
1, 19523, Note_off_c, 1, 62, 0
1, 19524, Note_on_c, 1, 65, 127
1, 19671, Note_off_c, 1, 65, 0
1, 19672, Note_off_c, 1, 77, 0
1, 19673, Note_on_c, 1, 60, 127
1, 19673, Note_on_c, 1, 69, 127
1, 19820, Note_off_c, 1, 60, 0
1, 19822, Note_on_c, 1, 65, 127
1, 19969, Note_off_c, 1, 69, 0
1, 19969, Note_off_c, 1, 65, 0
1, 19971, Note_on_c, 1, 72, 127
1, 19971, Note_on_c, 1, 58, 127
1, 20043, Note_off_c, 1, 72, 0
1, 20045, Note_on_c, 1, 70, 127
1, 20117, Note_off_c, 1, 70, 0
1, 20118, Note_off_c, 1, 58, 0
1, 20120, Note_on_c, 1, 69, 127
1, 20120, Note_on_c, 1, 65, 127
1, 20192, Note_off_c, 1, 69, 0
1, 20194, Note_on_c, 1, 70, 127
1, 20266, Note_off_c, 1, 70, 0
1, 20267, Note_off_c, 1, 65, 0
1, 20268, Note_on_c, 1, 57, 127
1, 20268, Note_on_c, 1, 72, 127
1, 20415, Note_off_c, 1, 57, 0
1, 20417, Note_on_c, 1, 58, 127
1, 20564, Note_off_c, 1, 72, 0
1, 20564, Note_off_c, 1, 58, 0
1, 20566, Note_on_c, 1, 60, 127
1, 20566, Note_on_c, 1, 75, 127
1, 20713, Note_off_c, 1, 60, 0
1, 20715, Note_on_c, 1, 65, 127
1, 20862, Note_off_c, 1, 75, 0
1, 20862, Note_off_c, 1, 65, 0
1, 20864, Note_on_c, 1, 75, 127
1, 20864, Note_on_c, 1, 53, 127
1, 20936, Note_off_c, 1, 75, 0
1, 20938, Note_on_c, 1, 74, 127
1, 21010, Note_off_c, 1, 74, 0
1, 21011, Note_off_c, 1, 53, 0
1, 21012, Note_on_c, 1, 75, 127
1, 21012, Note_on_c, 1, 65, 127
1, 21084, Note_off_c, 1, 75, 0
1, 21087, Note_on_c, 1, 74, 127
1, 21159, Note_off_c, 1, 65, 0
1, 21159, Note_off_c, 1, 74, 0
1, 21161, Note_on_c, 1, 57, 127
1, 21161, Note_on_c, 1, 72, 127
1, 21308, Note_off_c, 1, 57, 0
1, 21310, Note_on_c, 1, 65, 127
1, 21457, Note_off_c, 1, 72, 0
1, 21457, Note_off_c, 1, 65, 0
1, 21459, Note_on_c, 1, 58, 127
1, 21459, Note_on_c, 1, 74, 127
1, 21606, Note_off_c, 1, 58, 0
1, 21608, Note_on_c, 1, 60, 127
1, 21755, Note_off_c, 1, 74, 0
1, 21755, Note_off_c, 1, 60, 0
1, 21756, Note_on_c, 1, 62, 127
1, 21756, Note_on_c, 1, 77, 127
1, 21903, Note_off_c, 1, 62, 0
1, 21905, Note_on_c, 1, 65, 127
1, 22052, Note_off_c, 1, 77, 0
1, 22052, Note_off_c, 1, 65, 0
1, 22054, Note_on_c, 1, 58, 127
1, 22054, Note_on_c, 1, 75, 127
1, 22201, Note_off_c, 1, 58, 0
1, 22201, Note_off_c, 1, 75, 0
1, 22203, Note_on_c, 1, 65, 127
1, 22203, Note_on_c, 1, 74, 127
1, 22350, Note_off_c, 1, 65, 0
1, 22350, Note_off_c, 1, 74, 0
1, 22352, Note_on_c, 1, 56, 127
1, 22352, Note_on_c, 1, 72, 127
1, 22499, Note_off_c, 1, 56, 0
1, 22499, Note_off_c, 1, 72, 0
1, 22500, Note_on_c, 1, 65, 127
1, 22500, Note_on_c, 1, 70, 127
1, 22647, Note_off_c, 1, 65, 0
1, 22647, Note_off_c, 1, 70, 0
1, 22649, Note_on_c, 1, 55, 127
1, 22649, Note_on_c, 1, 75, 127
1, 22796, Note_off_c, 1, 55, 0
1, 22798, Note_on_c, 1, 56, 127
1, 22945, Note_off_c, 1, 75, 0
1, 22945, Note_off_c, 1, 56, 0
1, 22947, Note_on_c, 1, 58, 127
1, 22947, Note_on_c, 1, 79, 127
1, 23094, Note_off_c, 1, 58, 0
1, 23096, Note_on_c, 1, 61, 127
1, 23243, Note_off_c, 1, 79, 0
1, 23243, Note_off_c, 1, 61, 0
1, 23244, Note_on_c, 1, 55, 127
1, 23244, Note_on_c, 1, 82, 127
1, 23391, Note_off_c, 1, 55, 0
1, 23393, Note_on_c, 1, 61, 127
1, 23540, Note_off_c, 1, 61, 0
1, 23542, Note_on_c, 1, 53, 127
1, 23542, Note_on_c, 1, 73, 127
1, 23689, Note_off_c, 1, 53, 0
1, 23838, Note_off_c, 1, 73, 0
1, 23840, Note_on_c, 1, 72, 127
1, 23840, Note_on_c, 1, 52, 127
1, 23844, Note_off_c, 1, 82, 0
1, 24057, Note_off_c, 1, 72, 0
1, 24136, Note_off_c, 1, 52, 0
1, 24137, Note_on_c, 1, 81, 127
1, 24137, Note_on_c, 1, 60, 127
1, 24284, Note_off_c, 1, 81, 0
1, 24286, Note_on_c, 1, 79, 127
1, 24433, Note_off_c, 1, 60, 0
1, 24433, Note_off_c, 1, 79, 0
1, 24435, Note_on_c, 1, 81, 127
1, 24435, Note_on_c, 1, 53, 127
1, 24584, Note_on_c, 1, 77, 127
1, 24729, Note_off_c, 1, 81, 0
1, 24731, Note_off_c, 1, 53, 0
1, 24731, Note_off_c, 1, 77, 0
1, 24732, Note_on_c, 1, 81, 127
1, 24732, Note_on_c, 1, 60, 127
1, 24879, Note_off_c, 1, 81, 0
1, 24881, Note_on_c, 1, 75, 127
1, 25028, Note_off_c, 1, 60, 0
1, 25028, Note_off_c, 1, 75, 0
1, 25030, Note_on_c, 1, 74, 127
1, 25030, Note_on_c, 1, 46, 127
1, 25179, Note_on_c, 1, 80, 127
1, 25247, Note_off_c, 1, 74, 0
1, 25326, Note_off_c, 1, 46, 0
1, 25326, Note_off_c, 1, 80, 0
1, 25328, Note_on_c, 1, 79, 127
1, 25328, Note_on_c, 1, 58, 127
1, 25475, Note_off_c, 1, 79, 0
1, 25476, Note_on_c, 1, 77, 127
1, 25623, Note_off_c, 1, 77, 0
1, 25624, Note_off_c, 1, 58, 0
1, 25625, Note_on_c, 1, 79, 127
1, 25625, Note_on_c, 1, 51, 127
1, 25774, Note_on_c, 1, 75, 127
1, 25919, Note_off_c, 1, 79, 0
1, 25921, Note_off_c, 1, 51, 0
1, 25921, Note_off_c, 1, 75, 0
1, 25923, Note_on_c, 1, 79, 127
1, 25923, Note_on_c, 1, 58, 127
1, 26072, Note_on_c, 1, 74, 127
1, 26217, Note_off_c, 1, 79, 0
1, 26219, Note_off_c, 1, 58, 0
1, 26219, Note_off_c, 1, 74, 0
1, 26220, Note_on_c, 1, 57, 127
1, 26220, Note_on_c, 1, 72, 127
1, 26367, Note_off_c, 1, 57, 0
1, 26367, Note_off_c, 1, 72, 0
1, 26369, Note_on_c, 1, 58, 127
1, 26369, Note_on_c, 1, 74, 127
1, 26516, Note_off_c, 1, 58, 0
1, 26516, Note_off_c, 1, 74, 0
1, 26518, Note_on_c, 1, 60, 127
1, 26518, Note_on_c, 1, 75, 127
1, 26665, Note_off_c, 1, 60, 0
1, 26667, Note_on_c, 1, 55, 127
1, 26667, Note_on_c, 1, 70, 127
1, 26814, Note_off_c, 1, 55, 0
1, 26814, Note_off_c, 1, 70, 0
1, 26816, Note_on_c, 1, 53, 127
1, 26816, Note_on_c, 1, 69, 127
1, 26952, Note_off_c, 1, 75, 0
1, 26963, Note_off_c, 1, 53, 0
1, 26963, Note_off_c, 1, 69, 0
1, 26964, Note_on_c, 1, 60, 127
1, 26964, Note_on_c, 1, 75, 127
1, 27111, Note_off_c, 1, 60, 0
1, 27113, Note_on_c, 1, 51, 127
1, 27113, Note_on_c, 1, 67, 127
1, 27258, Note_off_c, 1, 75, 0
1, 27260, Note_off_c, 1, 51, 0
1, 27260, Note_off_c, 1, 67, 0
1, 27262, Note_on_c, 1, 60, 127
1, 27262, Note_on_c, 1, 75, 127
1, 27409, Note_off_c, 1, 60, 0
1, 27409, Note_off_c, 1, 75, 0
1, 27411, Note_on_c, 1, 69, 127
1, 27411, Note_on_c, 1, 53, 127
1, 27558, Note_off_c, 1, 69, 0
1, 27560, Note_on_c, 1, 70, 127
1, 27707, Note_off_c, 1, 53, 0
1, 27707, Note_off_c, 1, 70, 0
1, 27708, Note_on_c, 1, 51, 127
1, 27708, Note_on_c, 1, 72, 127
1, 27857, Note_on_c, 1, 67, 127
1, 28004, Note_off_c, 1, 51, 0
1, 28004, Note_off_c, 1, 67, 0
1, 28006, Note_on_c, 1, 65, 127
1, 28080, Note_on_c, 1, 50, 127
1, 28142, Note_off_c, 1, 72, 0
1, 28152, Note_off_c, 1, 50, 0
1, 28153, Note_off_c, 1, 65, 0
1, 28155, Note_on_c, 1, 51, 127
1, 28155, Note_on_c, 1, 72, 127
1, 28227, Note_off_c, 1, 51, 0
1, 28229, Note_on_c, 1, 50, 127
1, 28301, Note_off_c, 1, 50, 0
1, 28304, Note_on_c, 1, 63, 127
1, 28304, Note_on_c, 1, 48, 127
1, 28449, Note_off_c, 1, 72, 0
1, 28451, Note_off_c, 1, 63, 0
1, 28600, Note_off_c, 1, 48, 0
1, 28601, Note_on_c, 1, 62, 127
1, 28601, Note_on_c, 1, 46, 127
1, 28750, Note_on_c, 1, 70, 127
1, 28818, Note_off_c, 1, 62, 0
1, 28897, Note_off_c, 1, 46, 0
1, 28897, Note_off_c, 1, 70, 0
1, 28899, Note_on_c, 1, 53, 127
1, 28899, Note_on_c, 1, 67, 127
1, 28971, Note_off_c, 1, 53, 0
1, 28973, Note_on_c, 1, 51, 127
1, 29045, Note_off_c, 1, 51, 0
1, 29046, Note_off_c, 1, 67, 0
1, 29048, Note_on_c, 1, 50, 127
1, 29048, Note_on_c, 1, 63, 127
1, 29120, Note_off_c, 1, 50, 0
1, 29122, Note_on_c, 1, 51, 127
1, 29194, Note_off_c, 1, 51, 0
1, 29195, Note_off_c, 1, 63, 0
1, 29196, Note_on_c, 1, 62, 127
1, 29196, Note_on_c, 1, 53, 127
1, 29345, Note_on_c, 1, 70, 127
1, 29413, Note_off_c, 1, 62, 0
1, 29444, Note_off_c, 1, 53, 0
1, 29492, Note_off_c, 1, 70, 0
1, 29494, Note_on_c, 1, 60, 127
1, 29494, Note_on_c, 1, 41, 127
1, 29643, Note_on_c, 1, 69, 127
1, 29711, Note_off_c, 1, 60, 0
1, 29742, Note_off_c, 1, 41, 0
1, 29790, Note_off_c, 1, 69, 0
1, 29792, Note_on_c, 1, 69, 127
1, 29939, Note_off_c, 1, 69, 0
1, 29940, Note_on_c, 1, 70, 127
1, 29940, Note_on_c, 1, 46, 127
1, 30012, Note_off_c, 1, 70, 0
1, 30031, Note_on_c, 1, 69, 127
1, 30087, Note_off_c, 1, 46, 0
1, 30103, Note_off_c, 1, 69, 0
1, 30105, Note_on_c, 1, 50, 127
1, 30105, Note_on_c, 1, 70, 127
1, 30252, Note_off_c, 1, 50, 0
1, 30270, Note_on_c, 1, 53, 127
1, 30417, Note_off_c, 1, 53, 0
1, 30435, Note_on_c, 1, 58, 127
1, 30847, Note_off_c, 1, 70, 0
1, 30897, Note_on_c, 1, 65, 127
1, 31028, Note_off_c, 1, 58, 0
1, 31044, Note_off_c, 1, 65, 0
1, 31046, Note_on_c, 1, 65, 127
1, 31046, Note_on_c, 1, 62, 127
1, 31046, Note_on_c, 1, 58, 127
1, 31193, Note_off_c, 1, 65, 0
1, 31195, Note_on_c, 1, 67, 127
1, 31342, Note_off_c, 1, 67, 0
1, 31344, Note_on_c, 1, 68, 127
1, 31491, Note_off_c, 1, 68, 0
1, 31639, Note_off_c, 1, 62, 0
1, 31639, Note_off_c, 1, 58, 0
1, 31641, Note_on_c, 1, 67, 127
1, 31641, Note_on_c, 1, 63, 127
1, 31788, Note_off_c, 1, 67, 0
1, 31790, Note_on_c, 1, 70, 127
1, 31937, Note_off_c, 1, 63, 0
1, 31937, Note_off_c, 1, 70, 0
1, 31939, Note_on_c, 1, 65, 127
1, 31939, Note_on_c, 1, 58, 127
1, 31939, Note_on_c, 1, 62, 127
1, 32086, Note_off_c, 1, 65, 0
1, 32088, Note_on_c, 1, 70, 127
1, 32235, Note_off_c, 1, 58, 0
1, 32235, Note_off_c, 1, 62, 0
1, 32235, Note_off_c, 1, 70, 0
1, 32236, Note_on_c, 1, 67, 127
1, 32236, Note_on_c, 1, 63, 127
1, 32383, Note_off_c, 1, 67, 0
1, 32385, Note_on_c, 1, 65, 127
1, 32532, Note_off_c, 1, 63, 0
1, 32532, Note_off_c, 1, 65, 0
1, 32534, Note_on_c, 1, 63, 127
1, 32534, Note_on_c, 1, 58, 127
1, 32681, Note_off_c, 1, 63, 0
1, 32683, Note_on_c, 1, 65, 127
1, 32830, Note_off_c, 1, 58, 0
1, 32830, Note_off_c, 1, 65, 0
1, 32832, Note_on_c, 1, 67, 127
1, 32832, Note_on_c, 1, 51, 127
1, 32979, Note_off_c, 1, 67, 0
1, 32980, Note_on_c, 1, 68, 127
1, 33127, Note_off_c, 1, 68, 0
1, 33128, Note_off_c, 1, 51, 0
1, 33129, Note_on_c, 1, 70, 127
1, 33129, Note_on_c, 1, 53, 127
1, 33276, Note_off_c, 1, 70, 0
1, 33278, Note_on_c, 1, 72, 127
1, 33425, Note_off_c, 1, 53, 0
1, 33425, Note_off_c, 1, 72, 0
1, 33427, Note_on_c, 1, 73, 127
1, 33427, Note_on_c, 1, 55, 127
1, 33574, Note_off_c, 1, 73, 0
1, 33576, Note_on_c, 1, 75, 127
1, 33723, Note_off_c, 1, 75, 0
1, 33724, Note_on_c, 1, 77, 127
1, 33724, Note_on_c, 1, 58, 127
1, 33871, Note_off_c, 1, 77, 0
1, 34020, Note_off_c, 1, 58, 0
1, 34022, Note_on_c, 1, 70, 127
1, 34022, Note_on_c, 1, 63, 127
1, 34169, Note_off_c, 1, 70, 0
1, 34318, Note_off_c, 1, 55, 0
1, 34320, Note_on_c, 1, 67, 127
1, 34320, Note_on_c, 1, 51, 127
1, 34467, Note_off_c, 1, 67, 0
1, 34611, Note_off_c, 1, 63, 0
1, 34616, Note_off_c, 1, 51, 0
1, 34617, Note_on_c, 1, 72, 127
1, 34617, Note_on_c, 1, 56, 127
1, 34764, Note_off_c, 1, 72, 0
1, 34766, Note_on_c, 1, 70, 127
1, 34913, Note_off_c, 1, 56, 0
1, 34913, Note_off_c, 1, 70, 0
1, 34915, Note_on_c, 1, 68, 127
1, 34915, Note_on_c, 1, 60, 127
1, 35062, Note_off_c, 1, 68, 0
1, 35064, Note_on_c, 1, 70, 127
1, 35211, Note_off_c, 1, 60, 0
1, 35211, Note_off_c, 1, 70, 0
1, 35212, Note_on_c, 1, 72, 127
1, 35212, Note_on_c, 1, 56, 127
1, 35359, Note_off_c, 1, 72, 0
1, 35361, Note_on_c, 1, 74, 127
1, 35508, Note_off_c, 1, 56, 0
1, 35508, Note_off_c, 1, 74, 0
1, 35510, Note_on_c, 1, 76, 127
1, 35510, Note_on_c, 1, 53, 127
1, 35657, Note_off_c, 1, 76, 0
1, 35659, Note_on_c, 1, 77, 127
1, 35806, Note_off_c, 1, 53, 0
1, 35806, Note_off_c, 1, 77, 0
1, 35808, Note_on_c, 1, 79, 127
1, 35808, Note_on_c, 1, 52, 127
1, 35955, Note_off_c, 1, 79, 0
1, 35956, Note_on_c, 1, 80, 127
1, 36103, Note_off_c, 1, 80, 0
1, 36104, Note_off_c, 1, 52, 0
1, 36105, Note_on_c, 1, 82, 127
1, 36105, Note_on_c, 1, 60, 127
1, 36252, Note_off_c, 1, 82, 0
1, 36254, Note_on_c, 1, 79, 127
1, 36401, Note_off_c, 1, 60, 0
1, 36401, Note_off_c, 1, 79, 0
1, 36403, Note_on_c, 1, 80, 127
1, 36403, Note_on_c, 1, 48, 127
1, 36552, Note_on_c, 1, 84, 127
1, 36620, Note_off_c, 1, 80, 0
1, 36699, Note_off_c, 1, 48, 0
1, 36699, Note_off_c, 1, 84, 0
1, 36700, Note_on_c, 1, 79, 127
1, 36700, Note_on_c, 1, 60, 127
1, 36849, Note_on_c, 1, 84, 127
1, 36917, Note_off_c, 1, 79, 0
1, 36996, Note_off_c, 1, 60, 0
1, 36996, Note_off_c, 1, 84, 0
1, 36998, Note_on_c, 1, 80, 127
1, 36998, Note_on_c, 1, 53, 127
1, 37145, Note_off_c, 1, 80, 0
1, 37147, Note_on_c, 1, 82, 127
1, 37294, Note_off_c, 1, 53, 0
1, 37294, Note_off_c, 1, 82, 0
1, 37296, Note_on_c, 1, 84, 127
1, 37296, Note_on_c, 1, 56, 127
1, 37443, Note_off_c, 1, 84, 0
1, 37444, Note_on_c, 1, 80, 127
1, 37591, Note_off_c, 1, 80, 0
1, 37592, Note_off_c, 1, 56, 0
1, 37593, Note_on_c, 1, 79, 127
1, 37593, Note_on_c, 1, 61, 127
1, 37742, Note_on_c, 1, 82, 127
1, 37810, Note_off_c, 1, 79, 0
1, 37889, Note_off_c, 1, 61, 0
1, 37889, Note_off_c, 1, 82, 0
1, 37891, Note_on_c, 1, 77, 127
1, 37891, Note_on_c, 1, 58, 127
1, 38040, Note_on_c, 1, 82, 127
1, 38108, Note_off_c, 1, 77, 0
1, 38187, Note_off_c, 1, 58, 0
1, 38187, Note_off_c, 1, 82, 0
1, 38188, Note_on_c, 1, 76, 127
1, 38188, Note_on_c, 1, 60, 127
1, 38335, Note_off_c, 1, 76, 0
1, 38337, Note_on_c, 1, 77, 127
1, 38484, Note_off_c, 1, 60, 0
1, 38484, Note_off_c, 1, 77, 0
1, 38486, Note_on_c, 1, 79, 127
1, 38486, Note_on_c, 1, 64, 127
1, 38633, Note_off_c, 1, 79, 0
1, 38635, Note_on_c, 1, 76, 127
1, 38782, Note_off_c, 1, 64, 0
1, 38782, Note_off_c, 1, 76, 0
1, 38784, Note_on_c, 1, 72, 127
1, 38784, Note_on_c, 1, 67, 127
1, 38932, Note_on_c, 1, 76, 127
1, 39001, Note_off_c, 1, 72, 0
1, 39079, Note_off_c, 1, 76, 0
1, 39080, Note_off_c, 1, 67, 0
1, 39081, Note_on_c, 1, 70, 127
1, 39081, Note_on_c, 1, 60, 127
1, 39230, Note_on_c, 1, 76, 127
1, 39298, Note_off_c, 1, 70, 0
1, 39377, Note_off_c, 1, 60, 0
1, 39377, Note_off_c, 1, 76, 0
1, 39379, Note_on_c, 1, 68, 127
1, 39379, Note_on_c, 1, 65, 127
1, 39526, Note_off_c, 1, 68, 0
1, 39528, Note_on_c, 1, 72, 127
1, 39675, Note_off_c, 1, 65, 0
1, 39675, Note_off_c, 1, 72, 0
1, 39676, Note_on_c, 1, 77, 127
1, 39676, Note_on_c, 1, 53, 127
1, 39823, Note_off_c, 1, 77, 0
1, 39825, Note_on_c, 1, 75, 127
1, 39972, Note_off_c, 1, 53, 0
1, 39972, Note_off_c, 1, 75, 0
1, 39974, Note_on_c, 1, 73, 127
1, 39974, Note_on_c, 1, 55, 127
1, 40123, Note_on_c, 1, 77, 127
1, 40191, Note_off_c, 1, 73, 0
1, 40270, Note_off_c, 1, 55, 0
1, 40270, Note_off_c, 1, 77, 0
1, 40272, Note_on_c, 1, 72, 127
1, 40272, Note_on_c, 1, 57, 127
1, 40420, Note_on_c, 1, 77, 127
1, 40489, Note_off_c, 1, 72, 0
1, 40567, Note_off_c, 1, 77, 0
1, 40568, Note_off_c, 1, 57, 0
1, 40569, Note_on_c, 1, 58, 127
1, 40569, Note_on_c, 1, 73, 127
1, 40716, Note_off_c, 1, 58, 0
1, 40718, Note_on_c, 1, 65, 127
1, 40865, Note_off_c, 1, 73, 0
1, 40865, Note_off_c, 1, 65, 0
1, 40867, Note_on_c, 1, 56, 127
1, 40867, Note_on_c, 1, 72, 127
1, 41014, Note_off_c, 1, 56, 0
1, 41016, Note_on_c, 1, 65, 127
1, 41163, Note_off_c, 1, 72, 0
1, 41163, Note_off_c, 1, 65, 0
1, 41164, Note_on_c, 1, 55, 127
1, 41164, Note_on_c, 1, 70, 127
1, 41311, Note_off_c, 1, 55, 0
1, 41313, Note_on_c, 1, 65, 127
1, 41460, Note_off_c, 1, 70, 0
1, 41460, Note_off_c, 1, 65, 0
1, 41462, Note_on_c, 1, 58, 127
1, 41462, Note_on_c, 1, 77, 127
1, 41609, Note_off_c, 1, 58, 0
1, 41611, Note_on_c, 1, 65, 127
1, 41758, Note_off_c, 1, 77, 0
1, 41758, Note_off_c, 1, 65, 0
1, 41760, Note_on_c, 1, 56, 127
1, 41760, Note_on_c, 1, 72, 127
1, 41907, Note_off_c, 1, 56, 0
1, 41908, Note_on_c, 1, 65, 127
1, 42055, Note_off_c, 1, 65, 0
1, 42056, Note_off_c, 1, 72, 0
1, 42057, Note_on_c, 1, 55, 127
1, 42057, Note_on_c, 1, 70, 127
1, 42204, Note_off_c, 1, 55, 0
1, 42206, Note_on_c, 1, 65, 127
1, 42353, Note_off_c, 1, 70, 0
1, 42353, Note_off_c, 1, 65, 0
1, 42355, Note_on_c, 1, 68, 127
1, 42355, Note_on_c, 1, 53, 127
1, 42502, Note_off_c, 1, 68, 0
1, 42504, Note_on_c, 1, 72, 127
1, 42651, Note_off_c, 1, 53, 0
1, 42651, Note_off_c, 1, 72, 0
1, 42652, Note_on_c, 1, 77, 127
1, 42652, Note_on_c, 1, 56, 127
1, 42799, Note_off_c, 1, 77, 0
1, 42801, Note_on_c, 1, 76, 127
1, 42948, Note_off_c, 1, 56, 0
1, 42948, Note_off_c, 1, 76, 0
1, 42950, Note_on_c, 1, 77, 127
1, 42950, Note_on_c, 1, 49, 127
1, 43097, Note_off_c, 1, 77, 0
1, 43099, Note_on_c, 1, 82, 127
1, 43246, Note_off_c, 1, 49, 0
1, 43246, Note_off_c, 1, 82, 0
1, 43248, Note_on_c, 1, 80, 127
1, 43248, Note_on_c, 1, 58, 127
1, 43395, Note_off_c, 1, 80, 0
1, 43396, Note_on_c, 1, 79, 127
1, 43543, Note_off_c, 1, 79, 0
1, 43544, Note_off_c, 1, 58, 0
1, 43545, Note_on_c, 1, 80, 127
1, 43545, Note_on_c, 1, 60, 127
1, 43692, Note_off_c, 1, 80, 0
1, 43694, Note_on_c, 1, 77, 127
1, 43841, Note_off_c, 1, 60, 0
1, 43841, Note_off_c, 1, 77, 0
1, 43843, Note_on_c, 1, 72, 127
1, 43843, Note_on_c, 1, 48, 127
1, 43990, Note_off_c, 1, 72, 0
1, 43992, Note_on_c, 1, 76, 127
1, 44139, Note_off_c, 1, 48, 0
1, 44139, Note_off_c, 1, 76, 0
1, 44140, Note_on_c, 1, 53, 127
1, 44140, Note_on_c, 1, 76, 127
1, 44287, Note_off_c, 1, 53, 0
1, 44287, Note_off_c, 1, 76, 0
1, 44289, Note_on_c, 1, 77, 127
1, 44289, Note_on_c, 1, 55, 127
1, 44361, Note_off_c, 1, 77, 0
1, 44364, Note_on_c, 1, 76, 127
1, 44436, Note_off_c, 1, 55, 0
1, 44436, Note_off_c, 1, 76, 0
1, 44438, Note_on_c, 1, 56, 127
1, 44438, Note_on_c, 1, 77, 127
1, 44585, Note_off_c, 1, 56, 0
1, 44587, Note_on_c, 1, 55, 127
1, 44734, Note_off_c, 1, 55, 0
1, 44736, Note_on_c, 1, 53, 127
1, 44883, Note_off_c, 1, 53, 0
1, 45031, Note_off_c, 1, 77, 0
1, 45033, Note_on_c, 1, 51, 127
1, 45033, Note_on_c, 1, 77, 127
1, 45180, Note_off_c, 1, 51, 0
1, 45182, Note_on_c, 1, 56, 127
1, 45329, Note_off_c, 1, 77, 0
1, 45329, Note_off_c, 1, 56, 0
1, 45331, Note_on_c, 1, 50, 127
1, 45331, Note_on_c, 1, 70, 127
1, 45478, Note_off_c, 1, 50, 0
1, 45480, Note_on_c, 1, 51, 127
1, 45627, Note_off_c, 1, 70, 0
1, 45627, Note_off_c, 1, 51, 0
1, 45628, Note_on_c, 1, 82, 127
1, 45628, Note_on_c, 1, 53, 127
1, 45700, Note_off_c, 1, 82, 0
1, 45718, Note_on_c, 1, 80, 127
1, 45775, Note_off_c, 1, 53, 0
1, 45777, Note_on_c, 1, 50, 127
1, 45790, Note_off_c, 1, 80, 0
1, 45808, Note_on_c, 1, 79, 127
1, 45880, Note_off_c, 1, 79, 0
1, 45924, Note_off_c, 1, 50, 0
1, 45926, Note_on_c, 1, 46, 127
1, 46073, Note_off_c, 1, 46, 0
1, 46224, Note_on_c, 1, 50, 127
1, 46224, Note_on_c, 1, 79, 127
1, 46371, Note_off_c, 1, 50, 0
1, 46371, Note_off_c, 1, 79, 0
1, 46372, Note_on_c, 1, 53, 127
1, 46372, Note_on_c, 1, 77, 127
1, 46519, Note_off_c, 1, 53, 0
1, 46519, Note_off_c, 1, 77, 0
1, 46521, Note_on_c, 1, 51, 127
1, 46521, Note_on_c, 1, 79, 127
1, 46668, Note_off_c, 1, 51, 0
1, 46668, Note_off_c, 1, 79, 0
1, 46670, Note_on_c, 1, 53, 127
1, 46670, Note_on_c, 1, 80, 127
1, 46817, Note_off_c, 1, 53, 0
1, 46817, Note_off_c, 1, 80, 0
1, 46819, Note_on_c, 1, 55, 127
1, 46819, Note_on_c, 1, 82, 127
1, 46966, Note_off_c, 1, 55, 0
1, 46966, Note_off_c, 1, 82, 0
1, 46968, Note_on_c, 1, 53, 127
1, 46968, Note_on_c, 1, 80, 127
1, 47115, Note_off_c, 1, 53, 0
1, 47115, Note_off_c, 1, 80, 0
1, 47116, Note_on_c, 1, 51, 127
1, 47116, Note_on_c, 1, 79, 127
1, 47263, Note_off_c, 1, 51, 0
1, 47265, Note_on_c, 1, 55, 127
1, 47265, Note_on_c, 1, 82, 127
1, 47333, Note_off_c, 1, 79, 0
1, 47412, Note_off_c, 1, 55, 0
1, 47412, Note_off_c, 1, 82, 0
1, 47414, Note_on_c, 1, 49, 127
1, 47414, Note_on_c, 1, 77, 127
1, 47561, Note_off_c, 1, 49, 0
1, 47563, Note_on_c, 1, 55, 127
1, 47563, Note_on_c, 1, 82, 127
1, 47631, Note_off_c, 1, 77, 0
1, 47710, Note_off_c, 1, 55, 0
1, 47710, Note_off_c, 1, 82, 0
1, 47712, Note_on_c, 1, 76, 127
1, 47712, Note_on_c, 1, 48, 127
1, 47859, Note_off_c, 1, 76, 0
1, 47860, Note_on_c, 1, 77, 127
1, 48007, Note_off_c, 1, 77, 0
1, 48008, Note_off_c, 1, 48, 0
1, 48009, Note_on_c, 1, 79, 127
1, 48009, Note_on_c, 1, 58, 127
1, 48156, Note_off_c, 1, 79, 0
1, 48158, Note_on_c, 1, 76, 127
1, 48305, Note_off_c, 1, 76, 0
1, 48307, Note_on_c, 1, 72, 127
1, 48524, Note_off_c, 1, 72, 0
1, 48602, Note_off_c, 1, 58, 0
1, 48604, Note_on_c, 1, 56, 127
1, 48604, Note_on_c, 1, 76, 127
1, 48751, Note_off_c, 1, 56, 0
1, 48753, Note_on_c, 1, 55, 127
1, 48753, Note_on_c, 1, 79, 127
1, 48821, Note_off_c, 1, 76, 0
1, 48900, Note_off_c, 1, 55, 0
1, 48900, Note_off_c, 1, 79, 0
1, 48902, Note_on_c, 1, 56, 127
1, 48902, Note_on_c, 1, 77, 127
1, 49049, Note_off_c, 1, 56, 0
1, 49049, Note_off_c, 1, 77, 0
1, 49051, Note_on_c, 1, 58, 127
1, 49051, Note_on_c, 1, 79, 127
1, 49198, Note_off_c, 1, 58, 0
1, 49198, Note_off_c, 1, 79, 0
1, 49200, Note_on_c, 1, 60, 127
1, 49200, Note_on_c, 1, 80, 127
1, 49347, Note_off_c, 1, 60, 0
1, 49347, Note_off_c, 1, 80, 0
1, 49348, Note_on_c, 1, 58, 127
1, 49348, Note_on_c, 1, 79, 127
1, 49495, Note_off_c, 1, 58, 0
1, 49495, Note_off_c, 1, 79, 0
1, 49497, Note_on_c, 1, 56, 127
1, 49497, Note_on_c, 1, 77, 127
1, 49644, Note_off_c, 1, 56, 0
1, 49644, Note_off_c, 1, 77, 0
1, 49646, Note_on_c, 1, 60, 127
1, 49646, Note_on_c, 1, 80, 127
1, 49793, Note_off_c, 1, 60, 0
1, 49793, Note_off_c, 1, 80, 0
1, 49795, Note_on_c, 1, 55, 127
1, 49795, Note_on_c, 1, 75, 127
1, 49942, Note_off_c, 1, 55, 0
1, 49942, Note_off_c, 1, 75, 0
1, 49944, Note_on_c, 1, 60, 127
1, 49944, Note_on_c, 1, 80, 127
1, 50091, Note_off_c, 1, 60, 0
1, 50091, Note_off_c, 1, 80, 0
1, 50092, Note_on_c, 1, 53, 127
1, 50092, Note_on_c, 1, 74, 127
1, 50239, Note_off_c, 1, 53, 0
1, 50241, Note_on_c, 1, 55, 127
1, 50388, Note_off_c, 1, 74, 0
1, 50388, Note_off_c, 1, 55, 0
1, 50390, Note_on_c, 1, 86, 127
1, 50390, Note_on_c, 1, 56, 127
1, 50462, Note_off_c, 1, 86, 0
1, 50471, Note_on_c, 1, 84, 127
1, 50537, Note_off_c, 1, 56, 0
1, 50539, Note_on_c, 1, 55, 127
1, 50543, Note_off_c, 1, 84, 0
1, 50551, Note_on_c, 1, 83, 127
1, 50623, Note_off_c, 1, 83, 0
1, 50686, Note_off_c, 1, 55, 0
1, 50688, Note_on_c, 1, 53, 127
1, 50835, Note_off_c, 1, 53, 0
1, 50985, Note_on_c, 1, 50, 127
1, 50985, Note_on_c, 1, 82, 127
1, 51132, Note_off_c, 1, 50, 0
1, 51132, Note_off_c, 1, 82, 0
1, 51134, Note_on_c, 1, 53, 127
1, 51134, Note_on_c, 1, 80, 127
1, 51281, Note_off_c, 1, 53, 0
1, 51281, Note_off_c, 1, 80, 0
1, 51283, Note_on_c, 1, 55, 127
1, 51283, Note_on_c, 1, 82, 127
1, 51430, Note_off_c, 1, 55, 0
1, 51432, Note_on_c, 1, 56, 127
1, 51579, Note_off_c, 1, 82, 0
1, 51579, Note_off_c, 1, 56, 0
1, 51580, Note_on_c, 1, 73, 127
1, 51580, Note_on_c, 1, 58, 127
1, 51652, Note_off_c, 1, 73, 0
1, 51655, Note_on_c, 1, 72, 127
1, 51727, Note_off_c, 1, 58, 0
1, 51727, Note_off_c, 1, 72, 0
1, 51729, Note_on_c, 1, 56, 127
1, 51729, Note_on_c, 1, 73, 127
1, 51876, Note_off_c, 1, 56, 0
1, 51878, Note_on_c, 1, 55, 127
1, 52025, Note_off_c, 1, 55, 0
1, 52027, Note_on_c, 1, 58, 127
1, 52174, Note_off_c, 1, 58, 0
1, 52175, Note_off_c, 1, 73, 0
1, 52176, Note_on_c, 1, 51, 127
1, 52176, Note_on_c, 1, 72, 127
1, 52323, Note_off_c, 1, 51, 0
1, 52323, Note_off_c, 1, 72, 0
1, 52324, Note_on_c, 1, 55, 127
1, 52324, Note_on_c, 1, 70, 127
1, 52471, Note_off_c, 1, 55, 0
1, 52471, Note_off_c, 1, 70, 0
1, 52473, Note_on_c, 1, 56, 127
1, 52473, Note_on_c, 1, 72, 127
1, 52620, Note_off_c, 1, 56, 0
1, 52620, Note_off_c, 1, 72, 0
1, 52622, Note_on_c, 1, 55, 127
1, 52622, Note_on_c, 1, 82, 127
1, 52769, Note_off_c, 1, 55, 0
1, 52769, Note_off_c, 1, 82, 0
1, 52771, Note_on_c, 1, 53, 127
1, 52771, Note_on_c, 1, 80, 127
1, 52918, Note_off_c, 1, 53, 0
1, 52918, Note_off_c, 1, 80, 0
1, 52920, Note_on_c, 1, 55, 127
1, 52920, Note_on_c, 1, 79, 127
1, 53067, Note_off_c, 1, 55, 0
1, 53067, Note_off_c, 1, 79, 0
1, 53068, Note_on_c, 1, 77, 127
1, 53068, Note_on_c, 1, 56, 127
1, 53215, Note_off_c, 1, 77, 0
1, 53217, Note_on_c, 1, 79, 127
1, 53364, Note_off_c, 1, 56, 0
1, 53364, Note_off_c, 1, 79, 0
1, 53366, Note_on_c, 1, 80, 127
1, 53366, Note_on_c, 1, 53, 127
1, 53513, Note_off_c, 1, 80, 0
1, 53515, Note_on_c, 1, 77, 127
1, 53662, Note_off_c, 1, 53, 0
1, 53662, Note_off_c, 1, 77, 0
1, 53664, Note_on_c, 1, 58, 127
1, 53664, Note_on_c, 1, 75, 127
1, 53736, Note_off_c, 1, 58, 0
1, 53738, Note_on_c, 1, 56, 127
1, 53810, Note_off_c, 1, 56, 0
1, 53811, Note_off_c, 1, 75, 0
1, 53812, Note_on_c, 1, 74, 127
1, 53812, Note_on_c, 1, 58, 127
1, 53959, Note_off_c, 1, 74, 0
1, 53961, Note_on_c, 1, 75, 127
1, 53961, Note_on_c, 1, 46, 127
1, 54108, Note_off_c, 1, 75, 0
1, 54110, Note_on_c, 1, 77, 127
1, 54257, Note_off_c, 1, 46, 0
1, 54257, Note_off_c, 1, 77, 0
1, 54259, Note_on_c, 1, 70, 127
1, 54259, Note_on_c, 1, 50, 127
1, 54406, Note_off_c, 1, 70, 0
1, 54555, Note_off_c, 1, 50, 0
1, 54556, Note_on_c, 1, 68, 127
1, 54703, Note_off_c, 1, 58, 0
1, 54703, Note_off_c, 1, 68, 0
1, 54854, Note_on_c, 1, 67, 127
1, 54854, Note_on_c, 1, 51, 127
1, 55001, Note_off_c, 1, 67, 0
1, 55003, Note_on_c, 1, 68, 127
1, 55125, Note_off_c, 1, 51, 0
1, 55150, Note_off_c, 1, 68, 0
1, 55152, Note_on_c, 1, 70, 127
1, 55152, Note_on_c, 1, 55, 127
1, 55300, Note_on_c, 1, 75, 127
1, 55369, Note_off_c, 1, 70, 0
1, 55423, Note_off_c, 1, 55, 0
1, 55447, Note_off_c, 1, 75, 0
1, 55449, Note_on_c, 1, 55, 127
1, 55449, Note_on_c, 1, 68, 127
1, 55521, Note_off_c, 1, 55, 0
1, 55524, Note_on_c, 1, 53, 127
1, 55596, Note_off_c, 1, 53, 0
1, 55598, Note_on_c, 1, 75, 127
1, 55666, Note_off_c, 1, 68, 0
1, 55745, Note_off_c, 1, 75, 0
1, 55747, Note_on_c, 1, 67, 127
1, 55747, Note_on_c, 1, 51, 127
1, 55896, Note_on_c, 1, 75, 127
1, 55964, Note_off_c, 1, 67, 0
1, 56043, Note_off_c, 1, 51, 0
1, 56043, Note_off_c, 1, 75, 0
1, 56044, Note_on_c, 1, 65, 127
1, 56044, Note_on_c, 1, 58, 127
1, 56191, Note_off_c, 1, 65, 0
1, 56193, Note_on_c, 1, 67, 127
1, 56340, Note_off_c, 1, 58, 0
1, 56340, Note_off_c, 1, 67, 0
1, 56342, Note_on_c, 1, 68, 127
1, 56342, Note_on_c, 1, 60, 127
1, 56491, Note_on_c, 1, 74, 127
1, 56559, Note_off_c, 1, 68, 0
1, 56638, Note_off_c, 1, 60, 0
1, 56638, Note_off_c, 1, 74, 0
1, 56640, Note_on_c, 1, 58, 127
1, 56640, Note_on_c, 1, 67, 127
1, 56711, Note_off_c, 1, 58, 0
1, 56714, Note_on_c, 1, 60, 127
1, 56786, Note_off_c, 1, 60, 0
1, 56788, Note_on_c, 1, 74, 127
1, 56857, Note_off_c, 1, 67, 0
1, 56935, Note_off_c, 1, 74, 0
1, 56937, Note_on_c, 1, 65, 127
1, 56937, Note_on_c, 1, 56, 127
1, 57086, Note_on_c, 1, 74, 127
1, 57154, Note_off_c, 1, 65, 0
1, 57233, Note_off_c, 1, 56, 0
1, 57233, Note_off_c, 1, 74, 0
1, 57235, Note_on_c, 1, 63, 127
1, 57235, Note_on_c, 1, 55, 127
1, 57382, Note_off_c, 1, 63, 0
1, 57384, Note_on_c, 1, 65, 127
1, 57531, Note_off_c, 1, 55, 0
1, 57531, Note_off_c, 1, 65, 0
1, 57532, Note_on_c, 1, 67, 127
1, 57532, Note_on_c, 1, 51, 127
1, 57681, Note_on_c, 1, 73, 127
1, 57764, Note_off_c, 1, 67, 0
1, 57828, Note_off_c, 1, 51, 0
1, 57828, Note_off_c, 1, 73, 0
1, 57830, Note_on_c, 1, 68, 127
1, 57830, Note_on_c, 1, 53, 127
1, 57979, Note_on_c, 1, 73, 127
1, 58062, Note_off_c, 1, 68, 0
1, 58126, Note_off_c, 1, 53, 0
1, 58126, Note_off_c, 1, 73, 0
1, 58128, Note_on_c, 1, 70, 127
1, 58128, Note_on_c, 1, 55, 127
1, 58275, Note_off_c, 1, 70, 0
1, 58276, Note_on_c, 1, 73, 127
1, 58423, Note_off_c, 1, 73, 0
1, 58424, Note_off_c, 1, 55, 0
1, 58425, Note_on_c, 1, 72, 127
1, 58425, Note_on_c, 1, 56, 127
1, 58572, Note_off_c, 1, 72, 0
1, 58574, Note_on_c, 1, 73, 127
1, 58721, Note_off_c, 1, 56, 0
1, 58721, Note_off_c, 1, 73, 0
1, 58723, Note_on_c, 1, 75, 127
1, 58723, Note_on_c, 1, 55, 127
1, 58872, Note_on_c, 1, 80, 127
1, 58971, Note_off_c, 1, 75, 0
1, 59019, Note_off_c, 1, 55, 0
1, 59019, Note_off_c, 1, 80, 0
1, 59020, Note_on_c, 1, 53, 127
1, 59020, Note_on_c, 1, 74, 127
1, 59092, Note_off_c, 1, 53, 0
1, 59095, Note_on_c, 1, 55, 127
1, 59167, Note_off_c, 1, 55, 0
1, 59169, Note_on_c, 1, 80, 127
1, 59268, Note_off_c, 1, 74, 0
1, 59316, Note_off_c, 1, 80, 0
1, 59318, Note_on_c, 1, 72, 127
1, 59318, Note_on_c, 1, 51, 127
1, 59467, Note_on_c, 1, 80, 127
1, 59566, Note_off_c, 1, 72, 0
1, 59614, Note_off_c, 1, 51, 0
1, 59614, Note_off_c, 1, 80, 0
1, 59616, Note_on_c, 1, 50, 127
1, 59616, Note_on_c, 1, 70, 127
1, 59771, Note_on_c, 1, 80, 127
1, 59924, Note_off_c, 1, 50, 0
1, 59924, Note_off_c, 1, 80, 0
1, 59926, Note_on_c, 1, 79, 127
1, 59926, Note_on_c, 1, 51, 127
1, 60079, Note_off_c, 1, 79, 0
1, 60081, Note_on_c, 1, 77, 127
1, 60229, Note_off_c, 1, 70, 0
1, 60234, Note_off_c, 1, 51, 0
1, 60234, Note_off_c, 1, 77, 0
1, 60236, Note_on_c, 1, 58, 127
1, 60236, Note_on_c, 1, 79, 127
1, 60316, Note_off_c, 1, 58, 0
1, 60318, Note_on_c, 1, 56, 127
1, 60398, Note_off_c, 1, 79, 0
1, 60398, Note_off_c, 1, 56, 0
1, 60400, Note_on_c, 1, 75, 127
1, 60400, Note_on_c, 1, 58, 127
1, 60564, Note_off_c, 1, 75, 0
1, 60566, Note_on_c, 1, 70, 127
1, 60566, Note_on_c, 1, 46, 127
1, 60728, Note_off_c, 1, 58, 0
1, 60730, Note_off_c, 1, 70, 0
1, 60732, Note_on_c, 1, 74, 127
1, 60896, Note_off_c, 1, 46, 0
1, 60896, Note_off_c, 1, 74, 0
1, 60897, Note_on_c, 1, 75, 127
1, 60897, Note_on_c, 1, 39, 127
1, 61091, Note_on_c, 1, 70, 127
1, 61285, Note_on_c, 1, 67, 127
1, 61332, Note_off_c, 1, 70, 0
1, 61672, Note_on_c, 1, 63, 127
1, 61971, Note_off_c, 1, 67, 0
1, 61975, Note_off_c, 1, 75, 0
1, 62281, Note_off_c, 1, 39, 0
1, 62331, Note_off_c, 1, 63, 0
1, 62713, Note_on_c, 1, 70, 127
1, 62872, Note_off_c, 1, 70, 0
1, 62875, Note_on_c, 1, 75, 127
1, 62875, Note_on_c, 1, 58, 127
1, 62875, Note_on_c, 1, 55, 127
1, 62875, Note_on_c, 1, 51, 127
1, 63034, Note_off_c, 1, 75, 0
1, 63036, Note_on_c, 1, 74, 127
1, 63195, Note_off_c, 1, 74, 0
1, 63344, Note_off_c, 1, 58, 0
1, 63358, Note_on_c, 1, 79, 127
1, 63512, Note_off_c, 1, 55, 0
1, 63517, Note_off_c, 1, 79, 0
1, 63519, Note_on_c, 1, 68, 127
1, 63678, Note_off_c, 1, 68, 0
1, 63680, Note_on_c, 1, 72, 127
1, 63839, Note_off_c, 1, 72, 0
1, 63840, Note_on_c, 1, 70, 127
1, 63999, Note_off_c, 1, 51, 0
1, 63999, Note_off_c, 1, 70, 0
1, 64001, Note_on_c, 1, 58, 127
1, 64001, Note_on_c, 1, 68, 127
1, 64160, Note_off_c, 1, 58, 0
1, 64160, Note_off_c, 1, 68, 0
1, 64162, Note_on_c, 1, 63, 127
1, 64162, Note_on_c, 1, 67, 127
1, 64321, Note_off_c, 1, 63, 0
1, 64324, Note_on_c, 1, 62, 127
1, 64483, Note_off_c, 1, 62, 0
1, 64643, Note_off_c, 1, 67, 0
1, 64646, Note_on_c, 1, 67, 127
1, 64646, Note_on_c, 1, 70, 127
1, 64805, Note_off_c, 1, 67, 0
1, 64805, Note_off_c, 1, 70, 0
1, 64807, Note_on_c, 1, 56, 127
1, 64807, Note_on_c, 1, 63, 127
1, 64966, Note_off_c, 1, 56, 0
1, 64968, Note_on_c, 1, 60, 127
1, 65046, Note_off_c, 1, 63, 0
1, 65049, Note_on_c, 1, 62, 127
1, 65127, Note_off_c, 1, 60, 0
1, 65129, Note_on_c, 1, 58, 127
1, 65288, Note_off_c, 1, 62, 0
1, 65288, Note_off_c, 1, 58, 0
1, 65290, Note_on_c, 1, 56, 127
1, 65290, Note_on_c, 1, 65, 127
1, 65449, Note_off_c, 1, 56, 0
1, 65449, Note_off_c, 1, 65, 0
1, 65450, Note_on_c, 1, 70, 127
1, 65450, Note_on_c, 1, 55, 127
1, 65609, Note_off_c, 1, 70, 0
1, 65611, Note_on_c, 1, 68, 127
1, 65770, Note_off_c, 1, 68, 0
1, 65931, Note_off_c, 1, 55, 0
1, 65934, Note_on_c, 1, 60, 127
1, 65934, Note_on_c, 1, 75, 127
1, 66093, Note_off_c, 1, 60, 0
1, 66093, Note_off_c, 1, 75, 0
1, 66095, Note_on_c, 1, 65, 127
1, 66095, Note_on_c, 1, 58, 127
1, 66254, Note_off_c, 1, 65, 0
1, 66256, Note_on_c, 1, 68, 127
1, 66415, Note_off_c, 1, 58, 0
1, 66415, Note_off_c, 1, 68, 0
1, 66417, Note_on_c, 1, 67, 127
1, 66417, Note_on_c, 1, 56, 127
1, 66576, Note_off_c, 1, 67, 0
1, 66578, Note_on_c, 1, 65, 127
1, 66737, Note_off_c, 1, 65, 0
1, 66739, Note_on_c, 1, 63, 127
1, 66898, Note_off_c, 1, 63, 0
1, 66900, Note_on_c, 1, 62, 127
1, 67059, Note_off_c, 1, 62, 0
1, 67060, Note_on_c, 1, 60, 127
1, 67219, Note_off_c, 1, 56, 0
1, 67219, Note_off_c, 1, 60, 0
1, 67222, Note_on_c, 1, 53, 127
1, 67222, Note_on_c, 1, 62, 127
1, 67381, Note_off_c, 1, 53, 0
1, 67381, Note_off_c, 1, 62, 0
1, 67383, Note_on_c, 1, 51, 127
1, 67383, Note_on_c, 1, 58, 127
1, 67542, Note_off_c, 1, 51, 0
1, 67542, Note_off_c, 1, 58, 0
1, 67544, Note_on_c, 1, 50, 127
1, 67544, Note_on_c, 1, 62, 127
1, 67703, Note_off_c, 1, 50, 0
1, 67703, Note_off_c, 1, 62, 0
1, 67705, Note_on_c, 1, 48, 127
1, 67705, Note_on_c, 1, 65, 127
1, 67864, Note_off_c, 1, 48, 0
1, 67864, Note_off_c, 1, 65, 0
1, 67866, Note_on_c, 1, 46, 127
1, 67866, Note_on_c, 1, 68, 127
1, 68025, Note_off_c, 1, 46, 0
1, 68025, Note_off_c, 1, 68, 0
1, 68027, Note_on_c, 1, 51, 127
1, 68027, Note_on_c, 1, 67, 127
1, 68186, Note_off_c, 1, 51, 0
1, 68186, Note_off_c, 1, 67, 0
1, 68188, Note_on_c, 1, 53, 127
1, 68188, Note_on_c, 1, 62, 127
1, 68347, Note_off_c, 1, 53, 0
1, 68347, Note_off_c, 1, 62, 0
1, 68349, Note_on_c, 1, 63, 127
1, 68349, Note_on_c, 1, 55, 127
1, 68512, Note_on_c, 1, 72, 127
1, 68636, Note_off_c, 1, 63, 0
1, 68672, Note_off_c, 1, 72, 0
1, 68675, Note_on_c, 1, 70, 127
1, 68833, Note_off_c, 1, 55, 0
1, 68834, Note_off_c, 1, 70, 0
1, 68835, Note_on_c, 1, 50, 127
1, 68835, Note_on_c, 1, 65, 127
1, 68994, Note_off_c, 1, 50, 0
1, 68994, Note_off_c, 1, 65, 0
1, 68996, Note_on_c, 1, 51, 127
1, 68996, Note_on_c, 1, 67, 127
1, 69155, Note_off_c, 1, 51, 0
1, 69157, Note_on_c, 1, 55, 127
1, 69157, Note_on_c, 1, 75, 127
1, 69265, Note_off_c, 1, 67, 0
1, 69317, Note_off_c, 1, 55, 0
1, 69317, Note_off_c, 1, 75, 0
1, 69320, Note_on_c, 1, 58, 127
1, 69320, Note_on_c, 1, 74, 127
1, 69479, Note_off_c, 1, 58, 0
1, 69479, Note_off_c, 1, 74, 0
1, 69482, Note_on_c, 1, 60, 127
1, 69482, Note_on_c, 1, 69, 127
1, 69641, Note_off_c, 1, 60, 0
1, 69641, Note_off_c, 1, 69, 0
1, 69643, Note_on_c, 1, 70, 127
1, 69643, Note_on_c, 1, 62, 127
1, 69805, Note_on_c, 1, 79, 127
1, 69895, Note_off_c, 1, 70, 0
1, 69964, Note_off_c, 1, 79, 0
1, 69966, Note_on_c, 1, 77, 127
1, 70125, Note_off_c, 1, 62, 0
1, 70125, Note_off_c, 1, 77, 0
1, 70127, Note_on_c, 1, 57, 127
1, 70127, Note_on_c, 1, 72, 127
1, 70286, Note_off_c, 1, 57, 0
1, 70286, Note_off_c, 1, 72, 0
1, 70288, Note_on_c, 1, 58, 127
1, 70288, Note_on_c, 1, 74, 127
1, 70447, Note_off_c, 1, 58, 0
1, 70449, Note_on_c, 1, 62, 127
1, 70449, Note_on_c, 1, 80, 127
1, 70522, Note_off_c, 1, 74, 0
1, 70608, Note_off_c, 1, 62, 0
1, 70608, Note_off_c, 1, 80, 0
1, 70609, Note_on_c, 1, 63, 127
1, 70609, Note_on_c, 1, 79, 127
1, 70768, Note_off_c, 1, 63, 0
1, 70768, Note_off_c, 1, 79, 0
1, 70770, Note_on_c, 1, 62, 127
1, 70770, Note_on_c, 1, 77, 127
1, 70929, Note_off_c, 1, 62, 0
1, 70929, Note_off_c, 1, 77, 0
1, 70932, Note_on_c, 1, 63, 127
1, 70932, Note_on_c, 1, 79, 127
1, 71091, Note_off_c, 1, 63, 0
1, 71091, Note_off_c, 1, 79, 0
1, 71093, Note_on_c, 1, 67, 127
1, 71093, Note_on_c, 1, 82, 127
1, 71252, Note_off_c, 1, 67, 0
1, 71252, Note_off_c, 1, 82, 0
1, 71254, Note_on_c, 1, 56, 127
1, 71254, Note_on_c, 1, 72, 127
1, 71413, Note_off_c, 1, 56, 0
1, 71413, Note_off_c, 1, 72, 0
1, 71415, Note_on_c, 1, 60, 127
1, 71415, Note_on_c, 1, 75, 127
1, 71574, Note_off_c, 1, 60, 0
1, 71574, Note_off_c, 1, 75, 0
1, 71576, Note_on_c, 1, 62, 127
1, 71576, Note_on_c, 1, 77, 127
1, 71735, Note_off_c, 1, 62, 0
1, 71735, Note_off_c, 1, 77, 0
1, 71737, Note_on_c, 1, 63, 127
1, 71737, Note_on_c, 1, 79, 127
1, 71896, Note_off_c, 1, 63, 0
1, 71896, Note_off_c, 1, 79, 0
1, 71898, Note_on_c, 1, 65, 127
1, 71898, Note_on_c, 1, 80, 127
1, 72057, Note_off_c, 1, 65, 0
1, 72057, Note_off_c, 1, 80, 0
1, 72059, Note_on_c, 1, 63, 127
1, 72059, Note_on_c, 1, 79, 127
1, 72218, Note_off_c, 1, 63, 0
1, 72218, Note_off_c, 1, 79, 0
1, 72219, Note_on_c, 1, 65, 127
1, 72219, Note_on_c, 1, 80, 127
1, 72378, Note_off_c, 1, 65, 0
1, 72381, Note_on_c, 1, 68, 127
1, 72381, Note_on_c, 1, 84, 127
1, 72396, Note_off_c, 1, 80, 0
1, 72540, Note_off_c, 1, 68, 0
1, 72540, Note_off_c, 1, 84, 0
1, 72542, Note_on_c, 1, 58, 127
1, 72542, Note_on_c, 1, 74, 127
1, 72701, Note_off_c, 1, 58, 0
1, 72701, Note_off_c, 1, 74, 0
1, 72703, Note_on_c, 1, 62, 127
1, 72703, Note_on_c, 1, 77, 127
1, 72862, Note_off_c, 1, 62, 0
1, 72862, Note_off_c, 1, 77, 0
1, 72864, Note_on_c, 1, 63, 127
1, 72864, Note_on_c, 1, 79, 127
1, 73023, Note_off_c, 1, 63, 0
1, 73023, Note_off_c, 1, 79, 0
1, 73025, Note_on_c, 1, 65, 127
1, 73025, Note_on_c, 1, 80, 127
1, 73184, Note_off_c, 1, 65, 0
1, 73184, Note_off_c, 1, 80, 0
1, 73186, Note_on_c, 1, 67, 127
1, 73186, Note_on_c, 1, 82, 127
1, 73345, Note_off_c, 1, 67, 0
1, 73345, Note_off_c, 1, 82, 0
1, 73347, Note_on_c, 1, 72, 127
1, 73347, Note_on_c, 1, 80, 127
1, 73506, Note_off_c, 1, 72, 0
1, 73506, Note_off_c, 1, 80, 0
1, 73508, Note_on_c, 1, 70, 127
1, 73508, Note_on_c, 1, 79, 127
1, 73667, Note_off_c, 1, 70, 0
1, 73670, Note_on_c, 1, 62, 127
1, 73829, Note_off_c, 1, 62, 0
1, 73830, Note_on_c, 1, 63, 127
1, 73909, Note_off_c, 1, 79, 0
1, 73989, Note_off_c, 1, 63, 0
1, 73991, Note_on_c, 1, 68, 127
1, 73991, Note_on_c, 1, 84, 127
1, 74150, Note_off_c, 1, 68, 0
1, 74150, Note_off_c, 1, 84, 0
1, 74152, Note_on_c, 1, 67, 127
1, 74152, Note_on_c, 1, 82, 127
1, 74311, Note_off_c, 1, 67, 0
1, 74311, Note_off_c, 1, 82, 0
1, 74313, Note_on_c, 1, 58, 127
1, 74313, Note_on_c, 1, 79, 127
1, 74472, Note_off_c, 1, 58, 0
1, 74472, Note_off_c, 1, 79, 0
1, 74474, Note_on_c, 1, 60, 127
1, 74474, Note_on_c, 1, 75, 127
1, 74633, Note_off_c, 1, 60, 0
1, 74633, Note_off_c, 1, 75, 0
1, 74635, Note_on_c, 1, 65, 127
1, 74635, Note_on_c, 1, 74, 127
1, 74794, Note_off_c, 1, 65, 0
1, 74794, Note_off_c, 1, 74, 0
1, 74796, Note_on_c, 1, 63, 127
1, 74796, Note_on_c, 1, 72, 127
1, 74955, Note_off_c, 1, 63, 0
1, 74957, Note_on_c, 1, 55, 127
1, 75116, Note_off_c, 1, 55, 0
1, 75119, Note_on_c, 1, 56, 127
1, 75197, Note_off_c, 1, 72, 0
1, 75278, Note_off_c, 1, 56, 0
1, 75280, Note_on_c, 1, 61, 127
1, 75280, Note_on_c, 1, 77, 127
1, 75439, Note_off_c, 1, 61, 0
1, 75439, Note_off_c, 1, 77, 0
1, 75440, Note_on_c, 1, 60, 127
1, 75440, Note_on_c, 1, 75, 127
1, 75599, Note_off_c, 1, 60, 0
1, 75599, Note_off_c, 1, 75, 0
1, 75601, Note_on_c, 1, 51, 127
1, 75601, Note_on_c, 1, 72, 127
1, 75760, Note_off_c, 1, 51, 0
1, 75760, Note_off_c, 1, 72, 0
1, 75762, Note_on_c, 1, 68, 127
1, 75762, Note_on_c, 1, 53, 127
1, 75925, Note_on_c, 1, 74, 127
1, 75998, Note_off_c, 1, 68, 0
1, 76083, Note_off_c, 1, 53, 0
1, 76084, Note_off_c, 1, 74, 0
1, 76086, Note_on_c, 1, 75, 127
1, 76086, Note_on_c, 1, 55, 127
1, 76249, Note_on_c, 1, 67, 127
1, 76322, Note_off_c, 1, 75, 0
1, 76407, Note_off_c, 1, 55, 0
1, 76408, Note_off_c, 1, 67, 0
1, 76410, Note_on_c, 1, 65, 127
1, 76410, Note_on_c, 1, 56, 127
1, 76572, Note_on_c, 1, 68, 127
1, 76613, Note_off_c, 1, 65, 0
1, 76732, Note_off_c, 1, 68, 0
1, 76733, Note_off_c, 1, 56, 0
1, 76735, Note_on_c, 1, 67, 127
1, 76735, Note_on_c, 1, 58, 127
1, 76894, Note_off_c, 1, 67, 0
1, 76896, Note_on_c, 1, 62, 127
1, 77055, Note_off_c, 1, 58, 0
1, 77055, Note_off_c, 1, 62, 0
1, 77057, Note_on_c, 1, 51, 127
1, 77057, Note_on_c, 1, 63, 127
1, 77220, Note_on_c, 1, 56, 127
1, 77379, Note_off_c, 1, 56, 0
1, 77381, Note_on_c, 1, 58, 127
1, 77540, Note_off_c, 1, 58, 0
1, 77542, Note_on_c, 1, 53, 127
1, 77701, Note_off_c, 1, 53, 0
1, 77703, Note_on_c, 1, 55, 127
1, 77862, Note_off_c, 1, 55, 0
1, 77863, Note_off_c, 1, 51, 0
1, 77863, Note_off_c, 1, 63, 0
1, 77864, Note_on_c, 1, 47, 127
1, 78023, Note_off_c, 1, 47, 0
1, 78025, Note_on_c, 1, 48, 127
1, 78184, Note_off_c, 1, 48, 0
1, 78186, Note_on_c, 1, 43, 127
1, 78186, Note_on_c, 1, 67, 127
1, 78345, Note_off_c, 1, 43, 0
1, 78345, Note_off_c, 1, 67, 0
1, 78346, Note_on_c, 1, 72, 127
1, 78346, Note_on_c, 1, 44, 127
1, 78505, Note_off_c, 1, 72, 0
1, 78507, Note_on_c, 1, 71, 127
1, 78648, Note_off_c, 1, 44, 0
1, 78666, Note_off_c, 1, 71, 0
1, 78669, Note_on_c, 1, 72, 127
1, 78669, Note_on_c, 1, 56, 127
1, 78828, Note_off_c, 1, 72, 0
1, 78830, Note_on_c, 1, 75, 127
1, 78971, Note_off_c, 1, 56, 0
1, 78989, Note_off_c, 1, 75, 0
1, 78991, Note_on_c, 1, 50, 127
1, 78991, Note_on_c, 1, 80, 127
1, 79150, Note_off_c, 1, 50, 0
1, 79150, Note_off_c, 1, 80, 0
1, 79152, Note_on_c, 1, 51, 127
1, 79152, Note_on_c, 1, 79, 127
1, 79311, Note_off_c, 1, 51, 0
1, 79311, Note_off_c, 1, 79, 0
1, 79313, Note_on_c, 1, 74, 127
1, 79313, Note_on_c, 1, 53, 127
1, 79472, Note_off_c, 1, 74, 0
1, 79474, Note_on_c, 1, 75, 127
1, 79633, Note_off_c, 1, 75, 0
1, 79635, Note_on_c, 1, 71, 127
1, 79765, Note_off_c, 1, 53, 0
1, 79794, Note_off_c, 1, 71, 0
1, 79796, Note_on_c, 1, 48, 127
1, 79796, Note_on_c, 1, 69, 127
1, 79955, Note_off_c, 1, 48, 0
1, 79955, Note_off_c, 1, 69, 0
1, 79956, Note_on_c, 1, 50, 127
1, 79956, Note_on_c, 1, 71, 127
1, 80115, Note_off_c, 1, 50, 0
1, 80115, Note_off_c, 1, 71, 0
1, 80118, Note_on_c, 1, 53, 127
1, 80118, Note_on_c, 1, 74, 127
1, 80277, Note_off_c, 1, 53, 0
1, 80277, Note_off_c, 1, 74, 0
1, 80279, Note_on_c, 1, 48, 127
1, 80279, Note_on_c, 1, 68, 127
1, 80438, Note_off_c, 1, 48, 0
1, 80438, Note_off_c, 1, 68, 0
1, 80440, Note_on_c, 1, 67, 127
1, 80440, Note_on_c, 1, 47, 127
1, 80599, Note_off_c, 1, 67, 0
1, 80601, Note_on_c, 1, 79, 127
1, 80691, Note_off_c, 1, 47, 0
1, 80760, Note_off_c, 1, 79, 0
1, 80762, Note_on_c, 1, 53, 127
1, 80762, Note_on_c, 1, 69, 127
1, 80921, Note_off_c, 1, 53, 0
1, 80921, Note_off_c, 1, 69, 0
1, 80923, Note_on_c, 1, 70, 127
1, 80923, Note_on_c, 1, 52, 127
1, 81082, Note_off_c, 1, 70, 0
1, 81084, Note_on_c, 1, 69, 127
1, 81243, Note_off_c, 1, 52, 0
1, 81243, Note_off_c, 1, 69, 0
1, 81245, Note_on_c, 1, 70, 127
1, 81245, Note_on_c, 1, 55, 127
1, 81404, Note_off_c, 1, 70, 0
1, 81407, Note_on_c, 1, 73, 127
1, 81565, Note_off_c, 1, 55, 0
1, 81566, Note_off_c, 1, 73, 0
1, 81567, Note_on_c, 1, 48, 127
1, 81567, Note_on_c, 1, 78, 127
1, 81726, Note_off_c, 1, 48, 0
1, 81726, Note_off_c, 1, 78, 0
1, 81728, Note_on_c, 1, 49, 127
1, 81728, Note_on_c, 1, 77, 127
1, 81887, Note_off_c, 1, 49, 0
1, 81887, Note_off_c, 1, 77, 0
1, 81889, Note_on_c, 1, 72, 127
1, 81889, Note_on_c, 1, 51, 127
1, 82048, Note_off_c, 1, 72, 0
1, 82050, Note_on_c, 1, 73, 127
1, 82209, Note_off_c, 1, 73, 0
1, 82211, Note_on_c, 1, 69, 127
1, 82341, Note_off_c, 1, 51, 0
1, 82370, Note_off_c, 1, 69, 0
1, 82372, Note_on_c, 1, 46, 127
1, 82372, Note_on_c, 1, 67, 127
1, 82531, Note_off_c, 1, 46, 0
1, 82531, Note_off_c, 1, 67, 0
1, 82533, Note_on_c, 1, 48, 127
1, 82533, Note_on_c, 1, 69, 127
1, 82692, Note_off_c, 1, 48, 0
1, 82692, Note_off_c, 1, 69, 0
1, 82694, Note_on_c, 1, 51, 127
1, 82694, Note_on_c, 1, 72, 127
1, 82853, Note_off_c, 1, 51, 0
1, 82853, Note_off_c, 1, 72, 0
1, 82856, Note_on_c, 1, 46, 127
1, 82856, Note_on_c, 1, 66, 127
1, 83015, Note_off_c, 1, 46, 0
1, 83015, Note_off_c, 1, 66, 0
1, 83017, Note_on_c, 1, 65, 127
1, 83017, Note_on_c, 1, 45, 127
1, 83176, Note_off_c, 1, 65, 0
1, 83177, Note_on_c, 1, 75, 127
1, 83277, Note_off_c, 1, 45, 0
1, 83337, Note_off_c, 1, 75, 0
1, 83340, Note_on_c, 1, 53, 127
1, 83340, Note_on_c, 1, 72, 127
1, 83499, Note_off_c, 1, 53, 0
1, 83499, Note_off_c, 1, 72, 0
1, 83501, Note_on_c, 1, 58, 127
1, 83501, Note_on_c, 1, 74, 127
1, 83660, Note_off_c, 1, 58, 0
1, 83662, Note_on_c, 1, 57, 127
1, 83821, Note_off_c, 1, 74, 0
1, 83821, Note_off_c, 1, 57, 0
1, 83823, Note_on_c, 1, 58, 127
1, 83823, Note_on_c, 1, 79, 127
1, 83982, Note_off_c, 1, 58, 0
1, 83982, Note_off_c, 1, 79, 0
1, 83983, Note_on_c, 1, 62, 127
1, 83983, Note_on_c, 1, 77, 127
1, 84142, Note_off_c, 1, 62, 0
1, 84142, Note_off_c, 1, 77, 0
1, 84144, Note_on_c, 1, 67, 127
1, 84144, Note_on_c, 1, 75, 127
1, 84303, Note_off_c, 1, 67, 0
1, 84303, Note_off_c, 1, 75, 0
1, 84306, Note_on_c, 1, 65, 127
1, 84306, Note_on_c, 1, 74, 127
1, 84465, Note_off_c, 1, 65, 0
1, 84465, Note_off_c, 1, 74, 0
1, 84467, Note_on_c, 1, 57, 127
1, 84467, Note_on_c, 1, 75, 127
1, 84626, Note_off_c, 1, 57, 0
1, 84628, Note_on_c, 1, 58, 127
1, 84787, Note_off_c, 1, 58, 0
1, 84919, Note_off_c, 1, 75, 0
1, 84950, Note_on_c, 1, 55, 127
1, 84950, Note_on_c, 1, 70, 127
1, 85109, Note_off_c, 1, 55, 0
1, 85109, Note_off_c, 1, 70, 0
1, 85111, Note_on_c, 1, 57, 127
1, 85111, Note_on_c, 1, 72, 127
1, 85270, Note_off_c, 1, 57, 0
1, 85270, Note_off_c, 1, 72, 0
1, 85272, Note_on_c, 1, 60, 127
1, 85272, Note_on_c, 1, 75, 127
1, 85431, Note_off_c, 1, 60, 0
1, 85431, Note_off_c, 1, 75, 0
1, 85433, Note_on_c, 1, 54, 127
1, 85433, Note_on_c, 1, 70, 127
1, 85592, Note_off_c, 1, 54, 0
1, 85592, Note_off_c, 1, 70, 0
1, 85594, Note_on_c, 1, 53, 127
1, 85594, Note_on_c, 1, 69, 127
1, 85753, Note_off_c, 1, 53, 0
1, 85753, Note_off_c, 1, 69, 0
1, 85755, Note_on_c, 1, 65, 127
1, 85914, Note_off_c, 1, 65, 0
1, 85916, Note_on_c, 1, 55, 127
1, 85916, Note_on_c, 1, 75, 127
1, 86075, Note_off_c, 1, 55, 0
1, 86075, Note_off_c, 1, 75, 0
1, 86077, Note_on_c, 1, 56, 127
1, 86077, Note_on_c, 1, 74, 127
1, 86236, Note_off_c, 1, 56, 0
1, 86238, Note_on_c, 1, 55, 127
1, 86397, Note_off_c, 1, 74, 0
1, 86397, Note_off_c, 1, 55, 0
1, 86399, Note_on_c, 1, 56, 127
1, 86399, Note_on_c, 1, 77, 127
1, 86558, Note_off_c, 1, 56, 0
1, 86558, Note_off_c, 1, 77, 0
1, 86560, Note_on_c, 1, 59, 127
1, 86560, Note_on_c, 1, 75, 127
1, 86719, Note_off_c, 1, 59, 0
1, 86719, Note_off_c, 1, 75, 0
1, 86721, Note_on_c, 1, 64, 127
1, 86721, Note_on_c, 1, 73, 127
1, 86880, Note_off_c, 1, 64, 0
1, 86880, Note_off_c, 1, 73, 0
1, 86882, Note_on_c, 1, 63, 127
1, 86882, Note_on_c, 1, 72, 127
1, 87041, Note_off_c, 1, 63, 0
1, 87041, Note_off_c, 1, 72, 0
1, 87044, Note_on_c, 1, 58, 127
1, 87044, Note_on_c, 1, 73, 127
1, 87203, Note_off_c, 1, 58, 0
1, 87204, Note_on_c, 1, 59, 127
1, 87363, Note_off_c, 1, 59, 0
1, 87365, Note_on_c, 1, 55, 127
1, 87496, Note_off_c, 1, 73, 0
1, 87524, Note_off_c, 1, 55, 0
1, 87526, Note_on_c, 1, 53, 127
1, 87526, Note_on_c, 1, 68, 127
1, 87685, Note_off_c, 1, 53, 0
1, 87685, Note_off_c, 1, 68, 0
1, 87687, Note_on_c, 1, 55, 127
1, 87687, Note_on_c, 1, 70, 127
1, 87846, Note_off_c, 1, 55, 0
1, 87846, Note_off_c, 1, 70, 0
1, 87848, Note_on_c, 1, 58, 127
1, 87848, Note_on_c, 1, 73, 127
1, 88007, Note_off_c, 1, 58, 0
1, 88007, Note_off_c, 1, 73, 0
1, 88009, Note_on_c, 1, 52, 127
1, 88009, Note_on_c, 1, 68, 127
1, 88168, Note_off_c, 1, 52, 0
1, 88168, Note_off_c, 1, 68, 0
1, 88170, Note_on_c, 1, 51, 127
1, 88170, Note_on_c, 1, 67, 127
1, 88329, Note_off_c, 1, 51, 0
1, 88329, Note_off_c, 1, 67, 0
1, 88331, Note_on_c, 1, 61, 127
1, 88490, Note_off_c, 1, 61, 0
1, 88493, Note_on_c, 1, 58, 127
1, 88493, Note_on_c, 1, 75, 127
1, 88652, Note_off_c, 1, 58, 0
1, 88652, Note_off_c, 1, 75, 0
1, 88654, Note_on_c, 1, 70, 127
1, 88654, Note_on_c, 1, 60, 127
1, 88813, Note_off_c, 1, 70, 0
1, 88814, Note_on_c, 1, 69, 127
1, 88973, Note_off_c, 1, 69, 0
1, 88974, Note_off_c, 1, 60, 0
1, 88975, Note_on_c, 1, 78, 127
1, 88975, Note_on_c, 1, 53, 127
1, 89134, Note_off_c, 1, 78, 0
1, 89136, Note_on_c, 1, 77, 127
1, 89295, Note_off_c, 1, 53, 0
1, 89295, Note_off_c, 1, 77, 0
1, 89297, Note_on_c, 1, 72, 127
1, 89297, Note_on_c, 1, 61, 127
1, 89456, Note_off_c, 1, 72, 0
1, 89458, Note_on_c, 1, 70, 127
1, 89617, Note_off_c, 1, 61, 0
1, 89617, Note_off_c, 1, 70, 0
1, 89619, Note_on_c, 1, 80, 127
1, 89619, Note_on_c, 1, 53, 127
1, 89778, Note_off_c, 1, 80, 0
1, 89781, Note_on_c, 1, 79, 127
1, 89939, Note_off_c, 1, 53, 0
1, 89940, Note_off_c, 1, 79, 0
1, 89942, Note_on_c, 1, 73, 127
1, 89942, Note_on_c, 1, 63, 127
1, 90101, Note_off_c, 1, 73, 0
1, 90103, Note_on_c, 1, 72, 127
1, 90262, Note_off_c, 1, 63, 0
1, 90262, Note_off_c, 1, 72, 0
1, 90264, Note_on_c, 1, 83, 127
1, 90264, Note_on_c, 1, 53, 127
1, 90423, Note_off_c, 1, 83, 0
1, 90424, Note_on_c, 1, 81, 127
1, 90583, Note_off_c, 1, 81, 0
1, 90584, Note_off_c, 1, 53, 0
1, 90585, Note_on_c, 1, 82, 127
1, 90585, Note_on_c, 1, 64, 127
1, 90744, Note_off_c, 1, 82, 0
1, 90746, Note_on_c, 1, 72, 127
1, 90905, Note_off_c, 1, 64, 0
1, 90905, Note_off_c, 1, 72, 0
1, 90907, Note_on_c, 1, 73, 127
1, 90907, Note_on_c, 1, 53, 127
1, 91066, Note_off_c, 1, 73, 0
1, 91068, Note_on_c, 1, 70, 127
1, 91227, Note_off_c, 1, 53, 0
1, 91227, Note_off_c, 1, 70, 0
1, 91230, Note_on_c, 1, 65, 127
1, 91230, Note_on_c, 1, 69, 127
1, 91389, Note_off_c, 1, 65, 0
1, 91389, Note_off_c, 1, 69, 0
1, 91391, Note_on_c, 1, 63, 127
1, 91391, Note_on_c, 1, 78, 127
1, 91550, Note_off_c, 1, 63, 0
1, 91550, Note_off_c, 1, 78, 0
1, 91552, Note_on_c, 1, 77, 127
1, 91552, Note_on_c, 1, 62, 127
1, 91711, Note_off_c, 1, 77, 0
1, 91713, Note_on_c, 1, 69, 127
1, 91872, Note_off_c, 1, 69, 0
1, 91874, Note_on_c, 1, 70, 127
1, 91953, Note_off_c, 1, 62, 0
1, 92033, Note_off_c, 1, 70, 0
1, 92034, Note_on_c, 1, 67, 127
1, 92034, Note_on_c, 1, 75, 127
1, 92193, Note_off_c, 1, 67, 0
1, 92193, Note_off_c, 1, 75, 0
1, 92195, Note_on_c, 1, 65, 127
1, 92195, Note_on_c, 1, 74, 127
1, 92354, Note_off_c, 1, 65, 0
1, 92354, Note_off_c, 1, 74, 0
1, 92356, Note_on_c, 1, 62, 127
1, 92356, Note_on_c, 1, 65, 127
1, 92515, Note_off_c, 1, 62, 0
1, 92515, Note_off_c, 1, 65, 0
1, 92517, Note_on_c, 1, 58, 127
1, 92517, Note_on_c, 1, 67, 127
1, 92676, Note_off_c, 1, 58, 0
1, 92676, Note_off_c, 1, 67, 0
1, 92679, Note_on_c, 1, 57, 127
1, 92679, Note_on_c, 1, 72, 127
1, 92838, Note_off_c, 1, 57, 0
1, 92838, Note_off_c, 1, 72, 0
1, 92840, Note_on_c, 1, 70, 127
1, 92840, Note_on_c, 1, 55, 127
1, 92999, Note_off_c, 1, 70, 0
1, 93001, Note_on_c, 1, 62, 127
1, 93160, Note_off_c, 1, 62, 0
1, 93162, Note_on_c, 1, 63, 127
1, 93241, Note_off_c, 1, 55, 0
1, 93321, Note_off_c, 1, 63, 0
1, 93323, Note_on_c, 1, 60, 127
1, 93323, Note_on_c, 1, 68, 127
1, 93482, Note_off_c, 1, 60, 0
1, 93482, Note_off_c, 1, 68, 0
1, 93484, Note_on_c, 1, 58, 127
1, 93484, Note_on_c, 1, 67, 127
1, 93643, Note_off_c, 1, 58, 0
1, 93643, Note_off_c, 1, 67, 0
1, 93644, Note_on_c, 1, 55, 127
1, 93644, Note_on_c, 1, 58, 127
1, 93803, Note_off_c, 1, 55, 0
1, 93803, Note_off_c, 1, 58, 0
1, 93805, Note_on_c, 1, 51, 127
1, 93805, Note_on_c, 1, 60, 127
1, 93964, Note_off_c, 1, 51, 0
1, 93964, Note_off_c, 1, 60, 0
1, 93966, Note_on_c, 1, 62, 127
1, 93966, Note_on_c, 1, 57, 127
1, 94044, Note_off_c, 1, 62, 0
1, 94047, Note_on_c, 1, 63, 127
1, 94125, Note_off_c, 1, 57, 0
1, 94125, Note_off_c, 1, 63, 0
1, 94128, Note_on_c, 1, 58, 127
1, 94128, Note_on_c, 1, 62, 127
1, 94287, Note_off_c, 1, 58, 0
1, 94287, Note_off_c, 1, 62, 0
1, 94289, Note_on_c, 1, 50, 127
1, 94289, Note_on_c, 1, 70, 127
1, 94448, Note_off_c, 1, 50, 0
1, 94448, Note_off_c, 1, 70, 0
1, 94450, Note_on_c, 1, 48, 127
1, 94450, Note_on_c, 1, 63, 127
1, 94609, Note_off_c, 1, 48, 0
1, 94609, Note_off_c, 1, 63, 0
1, 94611, Note_on_c, 1, 58, 127
1, 94611, Note_on_c, 1, 62, 127
1, 94770, Note_off_c, 1, 58, 0
1, 94770, Note_off_c, 1, 62, 0
1, 94772, Note_on_c, 1, 53, 127
1, 94772, Note_on_c, 1, 63, 127
1, 94931, Note_off_c, 1, 53, 0
1, 94931, Note_off_c, 1, 63, 0
1, 94933, Note_on_c, 1, 57, 127
1, 94933, Note_on_c, 1, 60, 127
1, 95092, Note_off_c, 1, 57, 0
1, 95092, Note_off_c, 1, 60, 0
1, 95094, Note_on_c, 1, 46, 127
1, 95094, Note_on_c, 1, 58, 127
1, 95256, Note_on_c, 1, 51, 127
1, 95415, Note_off_c, 1, 51, 0
1, 95418, Note_on_c, 1, 53, 127
1, 95577, Note_off_c, 1, 53, 0
1, 95579, Note_on_c, 1, 48, 127
1, 95738, Note_off_c, 1, 48, 0
1, 95740, Note_on_c, 1, 50, 127
1, 95899, Note_off_c, 1, 50, 0
1, 95900, Note_off_c, 1, 46, 0
1, 95918, Note_on_c, 1, 41, 127
1, 96077, Note_off_c, 1, 41, 0
1, 96096, Note_on_c, 1, 34, 127
1, 96220, Note_off_c, 1, 58, 0
1, 96273, Note_on_c, 1, 65, 127
1, 96416, Note_off_c, 1, 34, 0
1, 96432, Note_off_c, 1, 65, 0
1, 96434, Note_on_c, 1, 65, 127
1, 96434, Note_on_c, 1, 62, 127
1, 96434, Note_on_c, 1, 58, 127
1, 96593, Note_off_c, 1, 65, 0
1, 96593, Note_off_c, 1, 62, 0
1, 96595, Note_on_c, 1, 63, 127
1, 96595, Note_on_c, 1, 60, 127
1, 96754, Note_off_c, 1, 63, 0
1, 96754, Note_off_c, 1, 60, 0
1, 96917, Note_on_c, 1, 68, 127
1, 97071, Note_off_c, 1, 58, 0
1, 97076, Note_off_c, 1, 68, 0
1, 97079, Note_on_c, 1, 74, 127
1, 97079, Note_on_c, 1, 65, 127
1, 97238, Note_off_c, 1, 74, 0
1, 97240, Note_on_c, 1, 68, 127
1, 97399, Note_off_c, 1, 65, 0
1, 97399, Note_off_c, 1, 68, 0
1, 97401, Note_on_c, 1, 77, 127
1, 97401, Note_on_c, 1, 58, 127
1, 97401, Note_on_c, 1, 62, 127
1, 97560, Note_off_c, 1, 77, 0
1, 97562, Note_on_c, 1, 68, 127
1, 97721, Note_off_c, 1, 58, 0
1, 97721, Note_off_c, 1, 62, 0
1, 97721, Note_off_c, 1, 68, 0
1, 97723, Note_on_c, 1, 67, 127
1, 97723, Note_on_c, 1, 51, 127
1, 97882, Note_off_c, 1, 67, 0
1, 97882, Note_off_c, 1, 51, 0
1, 97883, Note_on_c, 1, 70, 127
1, 97883, Note_on_c, 1, 55, 127
1, 98042, Note_off_c, 1, 70, 0
1, 98042, Note_off_c, 1, 55, 0
1, 98044, Note_on_c, 1, 63, 127
1, 98044, Note_on_c, 1, 58, 127
1, 98203, Note_off_c, 1, 63, 0
1, 98203, Note_off_c, 1, 58, 0
1, 98205, Note_on_c, 1, 65, 127
1, 98205, Note_on_c, 1, 62, 127
1, 98364, Note_off_c, 1, 65, 0
1, 98364, Note_off_c, 1, 62, 0
1, 98367, Note_on_c, 1, 67, 127
1, 98367, Note_on_c, 1, 63, 127
1, 98526, Note_off_c, 1, 67, 0
1, 98526, Note_off_c, 1, 63, 0
1, 98528, Note_on_c, 1, 68, 127
1, 98528, Note_on_c, 1, 65, 127
1, 98687, Note_off_c, 1, 68, 0
1, 98687, Note_off_c, 1, 65, 0
1, 98689, Note_on_c, 1, 70, 127
1, 98689, Note_on_c, 1, 67, 127
1, 98848, Note_off_c, 1, 70, 0
1, 98848, Note_off_c, 1, 67, 0
1, 98850, Note_on_c, 1, 72, 127
1, 98850, Note_on_c, 1, 68, 127
1, 99009, Note_off_c, 1, 72, 0
1, 99009, Note_off_c, 1, 68, 0
1, 99011, Note_on_c, 1, 70, 127
1, 99011, Note_on_c, 1, 67, 127
1, 99011, Note_on_c, 1, 63, 127
1, 99170, Note_off_c, 1, 70, 0
1, 99170, Note_off_c, 1, 67, 0
1, 99172, Note_on_c, 1, 68, 127
1, 99172, Note_on_c, 1, 65, 127
1, 99331, Note_off_c, 1, 68, 0
1, 99331, Note_off_c, 1, 65, 0
1, 99493, Note_on_c, 1, 73, 127
1, 99648, Note_off_c, 1, 63, 0
1, 99652, Note_off_c, 1, 73, 0
1, 99654, Note_on_c, 1, 79, 127
1, 99654, Note_on_c, 1, 70, 127
1, 99813, Note_off_c, 1, 79, 0
1, 99816, Note_on_c, 1, 73, 127
1, 99974, Note_off_c, 1, 70, 0
1, 99975, Note_off_c, 1, 73, 0
1, 99977, Note_on_c, 1, 82, 127
1, 99977, Note_on_c, 1, 63, 127
1, 99977, Note_on_c, 1, 67, 127
1, 100136, Note_off_c, 1, 82, 0
1, 100138, Note_on_c, 1, 73, 127
1, 100297, Note_off_c, 1, 63, 0
1, 100297, Note_off_c, 1, 67, 0
1, 100297, Note_off_c, 1, 73, 0
1, 100299, Note_on_c, 1, 72, 127
1, 100299, Note_on_c, 1, 56, 127
1, 100458, Note_off_c, 1, 72, 0
1, 100458, Note_off_c, 1, 56, 0
1, 100460, Note_on_c, 1, 75, 127
1, 100460, Note_on_c, 1, 60, 127
1, 100619, Note_off_c, 1, 75, 0
1, 100619, Note_off_c, 1, 60, 0
1, 100621, Note_on_c, 1, 68, 127
1, 100621, Note_on_c, 1, 63, 127
1, 100780, Note_off_c, 1, 68, 0
1, 100780, Note_off_c, 1, 63, 0
1, 100782, Note_on_c, 1, 70, 127
1, 100782, Note_on_c, 1, 67, 127
1, 100941, Note_off_c, 1, 70, 0
1, 100941, Note_off_c, 1, 67, 0
1, 100943, Note_on_c, 1, 72, 127
1, 100943, Note_on_c, 1, 68, 127
1, 101102, Note_off_c, 1, 72, 0
1, 101102, Note_off_c, 1, 68, 0
1, 101103, Note_on_c, 1, 74, 127
1, 101103, Note_on_c, 1, 70, 127
1, 101262, Note_off_c, 1, 74, 0
1, 101262, Note_off_c, 1, 70, 0
1, 101265, Note_on_c, 1, 76, 127
1, 101265, Note_on_c, 1, 72, 127
1, 101424, Note_off_c, 1, 76, 0
1, 101424, Note_off_c, 1, 72, 0
1, 101426, Note_on_c, 1, 77, 127
1, 101426, Note_on_c, 1, 73, 127
1, 101585, Note_off_c, 1, 77, 0
1, 101585, Note_off_c, 1, 73, 0
1, 101587, Note_on_c, 1, 76, 127
1, 101587, Note_on_c, 1, 67, 127
1, 101746, Note_off_c, 1, 76, 0
1, 101748, Note_on_c, 1, 74, 127
1, 101907, Note_off_c, 1, 67, 0
1, 101907, Note_off_c, 1, 74, 0
1, 101909, Note_on_c, 1, 76, 127
1, 101909, Note_on_c, 1, 58, 127
1, 102068, Note_off_c, 1, 76, 0
1, 102070, Note_on_c, 1, 79, 127
1, 102229, Note_off_c, 1, 58, 0
1, 102229, Note_off_c, 1, 79, 0
1, 102231, Note_on_c, 1, 70, 127
1, 102231, Note_on_c, 1, 61, 127
1, 102390, Note_off_c, 1, 70, 0
1, 102392, Note_on_c, 1, 73, 127
1, 102551, Note_off_c, 1, 61, 0
1, 102551, Note_off_c, 1, 73, 0
1, 102554, Note_on_c, 1, 72, 127
1, 102554, Note_on_c, 1, 52, 127
1, 102713, Note_off_c, 1, 72, 0
1, 102714, Note_on_c, 1, 70, 127
1, 102873, Note_off_c, 1, 70, 0
1, 102874, Note_off_c, 1, 52, 0
1, 102875, Note_on_c, 1, 68, 127
1, 102875, Note_on_c, 1, 53, 127
1, 103034, Note_off_c, 1, 68, 0
1, 103036, Note_on_c, 1, 67, 127
1, 103195, Note_off_c, 1, 67, 0
1, 103327, Note_off_c, 1, 53, 0
1, 103358, Note_on_c, 1, 72, 127
1, 103358, Note_on_c, 1, 55, 127
1, 103517, Note_off_c, 1, 72, 0
1, 103517, Note_off_c, 1, 55, 0
1, 103519, Note_on_c, 1, 77, 127
1, 103519, Note_on_c, 1, 56, 127
1, 103678, Note_off_c, 1, 77, 0
1, 103678, Note_off_c, 1, 56, 0
1, 103680, Note_on_c, 1, 79, 127
1, 103680, Note_on_c, 1, 58, 127
1, 103839, Note_off_c, 1, 79, 0
1, 103839, Note_off_c, 1, 58, 0
1, 103841, Note_on_c, 1, 76, 127
1, 103841, Note_on_c, 1, 60, 127
1, 104000, Note_off_c, 1, 76, 0
1, 104000, Note_off_c, 1, 60, 0
1, 104003, Note_on_c, 1, 77, 127
1, 104003, Note_on_c, 1, 62, 127
1, 104162, Note_off_c, 1, 77, 0
1, 104162, Note_off_c, 1, 62, 0
1, 104164, Note_on_c, 1, 64, 127
1, 104164, Note_on_c, 1, 79, 127
1, 104323, Note_off_c, 1, 64, 0
1, 104324, Note_on_c, 1, 62, 127
1, 104483, Note_off_c, 1, 62, 0
1, 104484, Note_off_c, 1, 79, 0
1, 104485, Note_on_c, 1, 64, 127
1, 104485, Note_on_c, 1, 70, 127
1, 104644, Note_off_c, 1, 64, 0
1, 104646, Note_on_c, 1, 67, 127
1, 104805, Note_off_c, 1, 70, 0
1, 104805, Note_off_c, 1, 67, 0
1, 104807, Note_on_c, 1, 58, 127
1, 104807, Note_on_c, 1, 73, 127
1, 104966, Note_off_c, 1, 58, 0
1, 104968, Note_on_c, 1, 61, 127
1, 105127, Note_off_c, 1, 73, 0
1, 105127, Note_off_c, 1, 61, 0
1, 105129, Note_on_c, 1, 60, 127
1, 105129, Note_on_c, 1, 64, 127
1, 105288, Note_off_c, 1, 60, 0
1, 105290, Note_on_c, 1, 58, 127
1, 105449, Note_off_c, 1, 64, 0
1, 105449, Note_off_c, 1, 58, 0
1, 105452, Note_on_c, 1, 56, 127
1, 105452, Note_on_c, 1, 65, 127
1, 105611, Note_off_c, 1, 56, 0
1, 105613, Note_on_c, 1, 55, 127
1, 105772, Note_off_c, 1, 55, 0
1, 105933, Note_off_c, 1, 65, 0
1, 105934, Note_on_c, 1, 67, 127
1, 105934, Note_on_c, 1, 60, 127
1, 106093, Note_off_c, 1, 67, 0
1, 106093, Note_off_c, 1, 60, 0
1, 106095, Note_on_c, 1, 68, 127
1, 106095, Note_on_c, 1, 65, 127
1, 106254, Note_off_c, 1, 68, 0
1, 106254, Note_off_c, 1, 65, 0
1, 106256, Note_on_c, 1, 70, 127
1, 106256, Note_on_c, 1, 67, 127
1, 106415, Note_off_c, 1, 70, 0
1, 106415, Note_off_c, 1, 67, 0
1, 106417, Note_on_c, 1, 63, 127
1, 106417, Note_on_c, 1, 72, 127
1, 106576, Note_off_c, 1, 63, 0
1, 106578, Note_on_c, 1, 65, 127
1, 106737, Note_off_c, 1, 65, 0
1, 106739, Note_on_c, 1, 61, 127
1, 106818, Note_off_c, 1, 72, 0
1, 106901, Note_on_c, 1, 69, 127
1, 107060, Note_off_c, 1, 69, 0
1, 107062, Note_on_c, 1, 70, 127
1, 107221, Note_off_c, 1, 70, 0
1, 107223, Note_on_c, 1, 78, 127
1, 107382, Note_off_c, 1, 78, 0
1, 107384, Note_on_c, 1, 76, 127
1, 107541, Note_off_c, 1, 61, 0
1, 107543, Note_off_c, 1, 76, 0
1, 107544, Note_on_c, 1, 77, 127
1, 107544, Note_on_c, 1, 60, 127
1, 107703, Note_off_c, 1, 77, 0
1, 107703, Note_off_c, 1, 60, 0
1, 107705, Note_on_c, 1, 61, 127
1, 107705, Note_on_c, 1, 70, 127
1, 107864, Note_off_c, 1, 61, 0
1, 107866, Note_on_c, 1, 58, 127
1, 108025, Note_off_c, 1, 58, 0
1, 108027, Note_on_c, 1, 60, 127
1, 108129, Note_off_c, 1, 70, 0
1, 108188, Note_on_c, 1, 67, 127
1, 108347, Note_off_c, 1, 67, 0
1, 108350, Note_on_c, 1, 68, 127
1, 108509, Note_off_c, 1, 68, 0
1, 108511, Note_on_c, 1, 78, 127
1, 108670, Note_off_c, 1, 78, 0
1, 108672, Note_on_c, 1, 76, 127
1, 108829, Note_off_c, 1, 60, 0
1, 108831, Note_off_c, 1, 76, 0
1, 108833, Note_on_c, 1, 77, 127
1, 108833, Note_on_c, 1, 58, 127
1, 108992, Note_off_c, 1, 77, 0
1, 108992, Note_off_c, 1, 58, 0
1, 108994, Note_on_c, 1, 60, 127
1, 108994, Note_on_c, 1, 68, 127
1, 109153, Note_off_c, 1, 60, 0
1, 109154, Note_on_c, 1, 56, 127
1, 109313, Note_off_c, 1, 56, 0
1, 109315, Note_on_c, 1, 58, 127
1, 109418, Note_off_c, 1, 68, 0
1, 109474, Note_off_c, 1, 58, 0
1, 109476, Note_on_c, 1, 65, 127
1, 109476, Note_on_c, 1, 56, 127
1, 109635, Note_off_c, 1, 65, 0
1, 109635, Note_off_c, 1, 56, 0
1, 109637, Note_on_c, 1, 67, 127
1, 109637, Note_on_c, 1, 58, 127
1, 109796, Note_off_c, 1, 67, 0
1, 109796, Note_off_c, 1, 58, 0
1, 109799, Note_on_c, 1, 77, 127
1, 109799, Note_on_c, 1, 55, 127
1, 109958, Note_off_c, 1, 77, 0
1, 109958, Note_off_c, 1, 55, 0
1, 109960, Note_on_c, 1, 76, 127
1, 109960, Note_on_c, 1, 60, 127
1, 110119, Note_off_c, 1, 76, 0
1, 110121, Note_on_c, 1, 82, 127
1, 110280, Note_off_c, 1, 60, 0
1, 110280, Note_off_c, 1, 82, 0
1, 110282, Note_on_c, 1, 80, 127
1, 110282, Note_on_c, 1, 48, 127
1, 110441, Note_off_c, 1, 80, 0
1, 110443, Note_on_c, 1, 76, 127
1, 110602, Note_off_c, 1, 48, 0
1, 110602, Note_off_c, 1, 76, 0
1, 110604, Note_on_c, 1, 53, 127
1, 110604, Note_on_c, 1, 77, 127
1, 110766, Note_on_c, 1, 70, 127
1, 110925, Note_off_c, 1, 70, 0
1, 110928, Note_on_c, 1, 72, 127
1, 111087, Note_off_c, 1, 72, 0
1, 111089, Note_on_c, 1, 67, 127
1, 111248, Note_off_c, 1, 67, 0
1, 111250, Note_on_c, 1, 68, 127
1, 111408, Note_off_c, 1, 53, 0
1, 111410, Note_off_c, 1, 77, 0
1, 111411, Note_on_c, 1, 63, 127
1, 111570, Note_off_c, 1, 63, 0
1, 111571, Note_on_c, 1, 65, 127
1, 111730, Note_off_c, 1, 65, 0
1, 111731, Note_off_c, 1, 68, 0
1, 111732, Note_on_c, 1, 77, 127
1, 111732, Note_on_c, 1, 60, 127
1, 111891, Note_off_c, 1, 77, 0
1, 111891, Note_off_c, 1, 60, 0
1, 111893, Note_on_c, 1, 70, 127
1, 111893, Note_on_c, 1, 62, 127
1, 112052, Note_off_c, 1, 70, 0
1, 112052, Note_off_c, 1, 62, 0
1, 112054, Note_on_c, 1, 68, 127
1, 112054, Note_on_c, 1, 60, 127
1, 112213, Note_off_c, 1, 68, 0
1, 112213, Note_off_c, 1, 60, 0
1, 112215, Note_on_c, 1, 70, 127
1, 112215, Note_on_c, 1, 62, 127
1, 112374, Note_off_c, 1, 70, 0
1, 112374, Note_off_c, 1, 62, 0
1, 112377, Note_on_c, 1, 74, 127
1, 112377, Note_on_c, 1, 65, 127
1, 112536, Note_off_c, 1, 74, 0
1, 112536, Note_off_c, 1, 65, 0
1, 112538, Note_on_c, 1, 56, 127
1, 112538, Note_on_c, 1, 77, 127
1, 112697, Note_off_c, 1, 56, 0
1, 112699, Note_on_c, 1, 60, 127
1, 112858, Note_off_c, 1, 60, 0
1, 112860, Note_on_c, 1, 58, 127
1, 113019, Note_off_c, 1, 58, 0
1, 113181, Note_on_c, 1, 55, 127
1, 113312, Note_off_c, 1, 77, 0
1, 113340, Note_off_c, 1, 55, 0
1, 113342, Note_on_c, 1, 74, 127
1, 113342, Note_on_c, 1, 53, 127
1, 113501, Note_off_c, 1, 74, 0
1, 113501, Note_off_c, 1, 53, 0
1, 113503, Note_on_c, 1, 75, 127
1, 113503, Note_on_c, 1, 55, 127
1, 113662, Note_off_c, 1, 75, 0
1, 113662, Note_off_c, 1, 55, 0
1, 113664, Note_on_c, 1, 79, 127
1, 113664, Note_on_c, 1, 58, 127
1, 113823, Note_off_c, 1, 79, 0
1, 113823, Note_off_c, 1, 58, 0
1, 113826, Note_on_c, 1, 49, 127
1, 113826, Note_on_c, 1, 82, 127
1, 113985, Note_off_c, 1, 49, 0
1, 113987, Note_on_c, 1, 53, 127
1, 114146, Note_off_c, 1, 53, 0
1, 114148, Note_on_c, 1, 51, 127
1, 114265, Note_off_c, 1, 82, 0
1, 114308, Note_off_c, 1, 51, 0
1, 114310, Note_on_c, 1, 77, 127
1, 114310, Note_on_c, 1, 49, 127
1, 114469, Note_off_c, 1, 77, 0
1, 114469, Note_off_c, 1, 49, 0
1, 114471, Note_on_c, 1, 76, 127
1, 114471, Note_on_c, 1, 48, 127
1, 114630, Note_off_c, 1, 76, 0
1, 114630, Note_off_c, 1, 48, 0
1, 114632, Note_on_c, 1, 74, 127
1, 114632, Note_on_c, 1, 46, 127
1, 114791, Note_off_c, 1, 74, 0
1, 114791, Note_off_c, 1, 46, 0
1, 114793, Note_on_c, 1, 76, 127
1, 114793, Note_on_c, 1, 48, 127
1, 114952, Note_off_c, 1, 76, 0
1, 114952, Note_off_c, 1, 48, 0
1, 114954, Note_on_c, 1, 79, 127
1, 114954, Note_on_c, 1, 52, 127
1, 115113, Note_off_c, 1, 79, 0
1, 115113, Note_off_c, 1, 52, 0
1, 115116, Note_on_c, 1, 70, 127
1, 115116, Note_on_c, 1, 55, 127
1, 115275, Note_off_c, 1, 70, 0
1, 115277, Note_on_c, 1, 73, 127
1, 115436, Note_off_c, 1, 73, 0
1, 115438, Note_on_c, 1, 72, 127
1, 115597, Note_off_c, 1, 72, 0
1, 115759, Note_on_c, 1, 68, 127
1, 115819, Note_off_c, 1, 55, 0
1, 115919, Note_off_c, 1, 68, 0
1, 115922, Note_on_c, 1, 67, 127
1, 115922, Note_on_c, 1, 52, 127
1, 116081, Note_off_c, 1, 67, 0
1, 116081, Note_off_c, 1, 52, 0
1, 116083, Note_on_c, 1, 68, 127
1, 116083, Note_on_c, 1, 53, 127
1, 116242, Note_off_c, 1, 68, 0
1, 116242, Note_off_c, 1, 53, 0
1, 116244, Note_on_c, 1, 72, 127
1, 116244, Note_on_c, 1, 56, 127
1, 116403, Note_off_c, 1, 72, 0
1, 116403, Note_off_c, 1, 56, 0
1, 116406, Note_on_c, 1, 63, 127
1, 116406, Note_on_c, 1, 60, 127
1, 116565, Note_off_c, 1, 63, 0
1, 116566, Note_on_c, 1, 67, 127
1, 116725, Note_off_c, 1, 67, 0
1, 116727, Note_on_c, 1, 65, 127
1, 116842, Note_off_c, 1, 60, 0
1, 116887, Note_off_c, 1, 65, 0
1, 116890, Note_on_c, 1, 63, 127
1, 116890, Note_on_c, 1, 55, 127
1, 117049, Note_off_c, 1, 63, 0
1, 117049, Note_off_c, 1, 55, 0
1, 117051, Note_on_c, 1, 62, 127
1, 117051, Note_on_c, 1, 53, 127
1, 117210, Note_off_c, 1, 62, 0
1, 117210, Note_off_c, 1, 53, 0
1, 117212, Note_on_c, 1, 65, 127
1, 117212, Note_on_c, 1, 56, 127
1, 117371, Note_off_c, 1, 65, 0
1, 117371, Note_off_c, 1, 56, 0
1, 117373, Note_on_c, 1, 68, 127
1, 117373, Note_on_c, 1, 53, 127
1, 117532, Note_off_c, 1, 68, 0
1, 117532, Note_off_c, 1, 53, 0
1, 117533, Note_on_c, 1, 50, 127
1, 117533, Note_on_c, 1, 72, 127
1, 117692, Note_off_c, 1, 50, 0
1, 117695, Note_on_c, 1, 43, 127
1, 117784, Note_off_c, 1, 72, 0
1, 117856, Note_on_c, 1, 62, 127
1, 118015, Note_off_c, 1, 62, 0
1, 118017, Note_on_c, 1, 70, 127
1, 118146, Note_off_c, 1, 43, 0
1, 118176, Note_off_c, 1, 70, 0
1, 118178, Note_on_c, 1, 68, 127
1, 118178, Note_on_c, 1, 53, 127
1, 118337, Note_off_c, 1, 68, 0
1, 118337, Note_off_c, 1, 53, 0
1, 118339, Note_on_c, 1, 70, 127
1, 118339, Note_on_c, 1, 55, 127
1, 118498, Note_off_c, 1, 70, 0
1, 118498, Note_off_c, 1, 55, 0
1, 118500, Note_on_c, 1, 67, 127
1, 118500, Note_on_c, 1, 58, 127
1, 118659, Note_off_c, 1, 67, 0
1, 118659, Note_off_c, 1, 58, 0
1, 118661, Note_on_c, 1, 63, 127
1, 118661, Note_on_c, 1, 55, 127
1, 118820, Note_off_c, 1, 63, 0
1, 118820, Note_off_c, 1, 55, 0
1, 118822, Note_on_c, 1, 51, 127
1, 118822, Note_on_c, 1, 61, 127
1, 118981, Note_off_c, 1, 51, 0
1, 118984, Note_on_c, 1, 44, 127
1, 119073, Note_off_c, 1, 61, 0
1, 119144, Note_on_c, 1, 70, 127
1, 119303, Note_off_c, 1, 70, 0
1, 119305, Note_on_c, 1, 60, 127
1, 119435, Note_off_c, 1, 44, 0
1, 119464, Note_off_c, 1, 60, 0
1, 119466, Note_on_c, 1, 61, 127
1, 119466, Note_on_c, 1, 55, 127
1, 119625, Note_off_c, 1, 61, 0
1, 119625, Note_off_c, 1, 55, 0
1, 119627, Note_on_c, 1, 60, 127
1, 119627, Note_on_c, 1, 56, 127
1, 119786, Note_off_c, 1, 60, 0
1, 119786, Note_off_c, 1, 56, 0
1, 119788, Note_on_c, 1, 58, 127
1, 119788, Note_on_c, 1, 55, 127
1, 119947, Note_off_c, 1, 58, 0
1, 119947, Note_off_c, 1, 55, 0
1, 119949, Note_on_c, 1, 60, 127
1, 119949, Note_on_c, 1, 56, 127
1, 120108, Note_off_c, 1, 60, 0
1, 120108, Note_off_c, 1, 56, 0
1, 120110, Note_on_c, 1, 63, 127
1, 120110, Note_on_c, 1, 60, 127
1, 120269, Note_off_c, 1, 63, 0
1, 120269, Note_off_c, 1, 60, 0
1, 120271, Note_on_c, 1, 53, 127
1, 120271, Note_on_c, 1, 68, 127
1, 120430, Note_off_c, 1, 53, 0
1, 120433, Note_on_c, 1, 56, 127
1, 120592, Note_off_c, 1, 56, 0
1, 120594, Note_on_c, 1, 48, 127
1, 120753, Note_off_c, 1, 48, 0
1, 120754, Note_on_c, 1, 51, 127
1, 120913, Note_off_c, 1, 51, 0
1, 120915, Note_on_c, 1, 50, 127
1, 121073, Note_off_c, 1, 68, 0
1, 121074, Note_off_c, 1, 50, 0
1, 121076, Note_on_c, 1, 67, 127
1, 121076, Note_on_c, 1, 51, 127
1, 121235, Note_off_c, 1, 67, 0
1, 121235, Note_off_c, 1, 51, 0
1, 121237, Note_on_c, 1, 68, 127
1, 121237, Note_on_c, 1, 53, 127
1, 121396, Note_off_c, 1, 68, 0
1, 121396, Note_off_c, 1, 53, 0
1, 121398, Note_on_c, 1, 77, 127
1, 121398, Note_on_c, 1, 50, 127
1, 121557, Note_off_c, 1, 77, 0
1, 121557, Note_off_c, 1, 50, 0
1, 121559, Note_on_c, 1, 75, 127
1, 121559, Note_on_c, 1, 46, 127
1, 121718, Note_off_c, 1, 75, 0
1, 121720, Note_on_c, 1, 74, 127
1, 121879, Note_off_c, 1, 74, 0
1, 121882, Note_on_c, 1, 72, 127
1, 121927, Note_off_c, 1, 46, 0
1, 122042, Note_off_c, 1, 72, 0
1, 122044, Note_on_c, 1, 70, 127
1, 122044, Note_on_c, 1, 50, 127
1, 122203, Note_off_c, 1, 70, 0
1, 122203, Note_off_c, 1, 50, 0
1, 122205, Note_on_c, 1, 68, 127
1, 122205, Note_on_c, 1, 51, 127
1, 122364, Note_off_c, 1, 68, 0
1, 122364, Note_off_c, 1, 51, 0
1, 122366, Note_on_c, 1, 65, 127
1, 122366, Note_on_c, 1, 50, 127
1, 122525, Note_off_c, 1, 65, 0
1, 122525, Note_off_c, 1, 50, 0
1, 122527, Note_on_c, 1, 67, 127
1, 122527, Note_on_c, 1, 51, 127
1, 122686, Note_off_c, 1, 67, 0
1, 122686, Note_off_c, 1, 51, 0
1, 122688, Note_on_c, 1, 70, 127
1, 122688, Note_on_c, 1, 55, 127
1, 122847, Note_off_c, 1, 70, 0
1, 122847, Note_off_c, 1, 55, 0
1, 122849, Note_on_c, 1, 75, 127
1, 122849, Note_on_c, 1, 58, 127
1, 123008, Note_off_c, 1, 75, 0
1, 123010, Note_on_c, 1, 70, 127
1, 123169, Note_off_c, 1, 70, 0
1, 123171, Note_on_c, 1, 79, 127
1, 123250, Note_off_c, 1, 58, 0
1, 123330, Note_off_c, 1, 79, 0
1, 123332, Note_on_c, 1, 69, 127
1, 123332, Note_on_c, 1, 51, 127
1, 123491, Note_off_c, 1, 69, 0
1, 123491, Note_off_c, 1, 51, 0
1, 123493, Note_on_c, 1, 70, 127
1, 123493, Note_on_c, 1, 50, 127
1, 123652, Note_off_c, 1, 70, 0
1, 123652, Note_off_c, 1, 50, 0
1, 123654, Note_on_c, 1, 69, 127
1, 123654, Note_on_c, 1, 48, 127
1, 123813, Note_off_c, 1, 69, 0
1, 123813, Note_off_c, 1, 48, 0
1, 123815, Note_on_c, 1, 70, 127
1, 123815, Note_on_c, 1, 50, 127
1, 123974, Note_off_c, 1, 70, 0
1, 123974, Note_off_c, 1, 50, 0
1, 123976, Note_on_c, 1, 74, 127
1, 123976, Note_on_c, 1, 53, 127
1, 124135, Note_off_c, 1, 74, 0
1, 124135, Note_off_c, 1, 53, 0
1, 124137, Note_on_c, 1, 77, 127
1, 124137, Note_on_c, 1, 44, 127
1, 124296, Note_off_c, 1, 77, 0
1, 124296, Note_off_c, 1, 44, 0
1, 124298, Note_on_c, 1, 79, 127
1, 124298, Note_on_c, 1, 48, 127
1, 124457, Note_off_c, 1, 79, 0
1, 124457, Note_off_c, 1, 48, 0
1, 124459, Note_on_c, 1, 80, 127
1, 124459, Note_on_c, 1, 46, 127
1, 124618, Note_off_c, 1, 80, 0
1, 124618, Note_off_c, 1, 46, 0
1, 124621, Note_on_c, 1, 84, 127
1, 124621, Note_on_c, 1, 44, 127
1, 124780, Note_off_c, 1, 84, 0
1, 124780, Note_off_c, 1, 44, 0
1, 124781, Note_on_c, 1, 82, 127
1, 124781, Note_on_c, 1, 43, 127
1, 124940, Note_off_c, 1, 82, 0
1, 124940, Note_off_c, 1, 43, 0
1, 124942, Note_on_c, 1, 77, 127
1, 124942, Note_on_c, 1, 38, 127
1, 125101, Note_off_c, 1, 77, 0
1, 125101, Note_off_c, 1, 38, 0
1, 125103, Note_on_c, 1, 39, 127
1, 125103, Note_on_c, 1, 79, 127
1, 125262, Note_off_c, 1, 39, 0
1, 125264, Note_on_c, 1, 48, 127
1, 125423, Note_off_c, 1, 48, 0
1, 125425, Note_on_c, 1, 46, 127
1, 125504, Note_off_c, 1, 79, 0
1, 125584, Note_off_c, 1, 46, 0
1, 125586, Note_on_c, 1, 74, 127
1, 125586, Note_on_c, 1, 41, 127
1, 125745, Note_off_c, 1, 74, 0
1, 125745, Note_off_c, 1, 41, 0
1, 125747, Note_on_c, 1, 75, 127
1, 125747, Note_on_c, 1, 43, 127
1, 125906, Note_off_c, 1, 75, 0
1, 125906, Note_off_c, 1, 43, 0
1, 125908, Note_on_c, 1, 79, 127
1, 125908, Note_on_c, 1, 51, 127
1, 126067, Note_off_c, 1, 79, 0
1, 126067, Note_off_c, 1, 51, 0
1, 126070, Note_on_c, 1, 77, 127
1, 126070, Note_on_c, 1, 50, 127
1, 126229, Note_off_c, 1, 77, 0
1, 126229, Note_off_c, 1, 50, 0
1, 126231, Note_on_c, 1, 72, 127
1, 126231, Note_on_c, 1, 45, 127
1, 126390, Note_off_c, 1, 72, 0
1, 126390, Note_off_c, 1, 45, 0
1, 126391, Note_on_c, 1, 46, 127
1, 126391, Note_on_c, 1, 74, 127
1, 126550, Note_off_c, 1, 46, 0
1, 126552, Note_on_c, 1, 55, 127
1, 126711, Note_off_c, 1, 55, 0
1, 126713, Note_on_c, 1, 53, 127
1, 126792, Note_off_c, 1, 74, 0
1, 126872, Note_off_c, 1, 53, 0
1, 126874, Note_on_c, 1, 69, 127
1, 126874, Note_on_c, 1, 48, 127
1, 127033, Note_off_c, 1, 69, 0
1, 127033, Note_off_c, 1, 48, 0
1, 127035, Note_on_c, 1, 70, 127
1, 127035, Note_on_c, 1, 50, 127
1, 127194, Note_off_c, 1, 70, 0
1, 127194, Note_off_c, 1, 50, 0
1, 127196, Note_on_c, 1, 77, 127
1, 127196, Note_on_c, 1, 56, 127
1, 127355, Note_off_c, 1, 77, 0
1, 127355, Note_off_c, 1, 56, 0
1, 127358, Note_on_c, 1, 75, 127
1, 127358, Note_on_c, 1, 55, 127
1, 127466, Note_off_c, 1, 75, 0
1, 127466, Note_off_c, 1, 55, 0
1, 127468, Note_on_c, 1, 53, 127
1, 127468, Note_on_c, 1, 77, 127
1, 127576, Note_off_c, 1, 53, 0
1, 127576, Note_off_c, 1, 77, 0
1, 127578, Note_on_c, 1, 51, 127
1, 127578, Note_on_c, 1, 79, 127
1, 127686, Note_off_c, 1, 51, 0
1, 127686, Note_off_c, 1, 79, 0
1, 127687, Note_on_c, 1, 68, 127
1, 127687, Note_on_c, 1, 60, 127
1, 127851, Note_off_c, 1, 68, 0
1, 127851, Note_off_c, 1, 60, 0
1, 127854, Note_on_c, 1, 77, 127
1, 127854, Note_on_c, 1, 56, 127
1, 128018, Note_off_c, 1, 77, 0
1, 128018, Note_off_c, 1, 56, 0
1, 128020, Note_on_c, 1, 67, 127
1, 128020, Note_on_c, 1, 58, 127
1, 128190, Note_off_c, 1, 67, 0
1, 128192, Note_on_c, 1, 75, 127
1, 128362, Note_off_c, 1, 58, 0
1, 128362, Note_off_c, 1, 75, 0
1, 128365, Note_on_c, 1, 65, 127
1, 128365, Note_on_c, 1, 46, 127
1, 128535, Note_off_c, 1, 65, 0
1, 128537, Note_on_c, 1, 74, 127
1, 128707, Note_off_c, 1, 46, 0
1, 128707, Note_off_c, 1, 74, 0
1, 128710, Note_on_c, 1, 51, 127
1, 128710, Note_on_c, 1, 75, 127
1, 128882, Note_on_c, 1, 68, 127
1, 129052, Note_off_c, 1, 68, 0
1, 129055, Note_on_c, 1, 70, 127
1, 129244, Note_on_c, 1, 65, 127
1, 129267, Note_off_c, 1, 70, 0
1, 129414, Note_off_c, 1, 65, 0
1, 129417, Note_on_c, 1, 67, 127
1, 129622, Note_on_c, 1, 58, 127
1, 129624, Note_off_c, 1, 51, 0
1, 129874, Note_off_c, 1, 58, 0
1, 129969, Note_on_c, 1, 63, 127
1, 130781, Note_off_c, 1, 75, 0
1, 130809, Note_off_c, 1, 67, 0
1, 132043, Note_off_c, 1, 63, 0
1, 132483, Note_on_c, 1, 67, 127
1, 132644, Note_off_c, 1, 67, 0
1, 132646, Note_on_c, 1, 58, 127
1, 132646, Note_on_c, 1, 51, 127
1, 132809, Note_on_c, 1, 63, 127
1, 132971, Note_on_c, 1, 46, 127
1, 132971, Note_on_c, 1, 67, 127
1, 133296, Note_off_c, 1, 46, 0
1, 133298, Note_on_c, 1, 43, 127
1, 133623, Note_off_c, 1, 43, 0
1, 133626, Note_on_c, 1, 39, 127
1, 133665, Note_off_c, 1, 58, 0
1, 133670, Note_off_c, 1, 63, 0
1, 133786, Note_off_c, 1, 67, 0
1, 133788, Note_on_c, 1, 65, 127
1, 133949, Note_off_c, 1, 51, 0
1, 133949, Note_off_c, 1, 39, 0
1, 133949, Note_off_c, 1, 65, 0
1, 133951, Note_on_c, 1, 67, 127
1, 133951, Note_on_c, 1, 51, 127
1, 134112, Note_off_c, 1, 67, 0
1, 134114, Note_on_c, 1, 68, 127
1, 134274, Note_off_c, 1, 51, 0
1, 134275, Note_off_c, 1, 68, 0
1, 134277, Note_on_c, 1, 70, 127
1, 134277, Note_on_c, 1, 53, 127
1, 134357, Note_off_c, 1, 70, 0
1, 134359, Note_on_c, 1, 68, 127
1, 134439, Note_off_c, 1, 68, 0
1, 134441, Note_on_c, 1, 67, 127
1, 134521, Note_off_c, 1, 67, 0
1, 134604, Note_off_c, 1, 53, 0
1, 134605, Note_on_c, 1, 58, 127
1, 134605, Note_on_c, 1, 55, 127
1, 134768, Note_on_c, 1, 63, 127
1, 134931, Note_on_c, 1, 51, 127
1, 134931, Note_on_c, 1, 67, 127
1, 135093, Note_on_c, 1, 70, 127
1, 135254, Note_off_c, 1, 51, 0
1, 135256, Note_on_c, 1, 46, 127
1, 135581, Note_off_c, 1, 46, 0
1, 135583, Note_on_c, 1, 43, 127
1, 135623, Note_off_c, 1, 58, 0
1, 135625, Note_off_c, 1, 63, 0
1, 135626, Note_off_c, 1, 67, 0
1, 135744, Note_off_c, 1, 70, 0
1, 135746, Note_on_c, 1, 68, 127
1, 135905, Note_off_c, 1, 43, 0
1, 135907, Note_off_c, 1, 55, 0
1, 135907, Note_off_c, 1, 68, 0
1, 135909, Note_on_c, 1, 70, 127
1, 135909, Note_on_c, 1, 55, 127
1, 136070, Note_off_c, 1, 70, 0
1, 136071, Note_on_c, 1, 72, 127
1, 136232, Note_off_c, 1, 55, 0
1, 136232, Note_off_c, 1, 72, 0
1, 136234, Note_on_c, 1, 70, 127
1, 136234, Note_on_c, 1, 56, 127
1, 136395, Note_off_c, 1, 70, 0
1, 136397, Note_on_c, 1, 72, 127
1, 136557, Note_off_c, 1, 56, 0
1, 136558, Note_off_c, 1, 72, 0
1, 136560, Note_on_c, 1, 62, 127
1, 136560, Note_on_c, 1, 58, 127
1, 136721, Note_off_c, 1, 62, 0
1, 136722, Note_on_c, 1, 63, 127
1, 136883, Note_off_c, 1, 63, 0
1, 136885, Note_on_c, 1, 65, 127
1, 136885, Note_on_c, 1, 53, 127
1, 137046, Note_off_c, 1, 65, 0
1, 137048, Note_on_c, 1, 67, 127
1, 137208, Note_off_c, 1, 53, 0
1, 137209, Note_off_c, 1, 67, 0
1, 137211, Note_on_c, 1, 50, 127
1, 137534, Note_off_c, 1, 50, 0
1, 137536, Note_on_c, 1, 68, 127
1, 137536, Note_on_c, 1, 46, 127
1, 137697, Note_off_c, 1, 68, 0
1, 137860, Note_off_c, 1, 58, 0
1, 138024, Note_on_c, 1, 72, 127
1, 138185, Note_off_c, 1, 72, 0
1, 138187, Note_on_c, 1, 70, 127
1, 138348, Note_off_c, 1, 70, 0
1, 138510, Note_off_c, 1, 46, 0
1, 138513, Note_on_c, 1, 58, 127
1, 138513, Note_on_c, 1, 51, 127
1, 138675, Note_on_c, 1, 63, 127
1, 138838, Note_on_c, 1, 46, 127
1, 138838, Note_on_c, 1, 67, 127
1, 139163, Note_off_c, 1, 46, 0
1, 139165, Note_on_c, 1, 43, 127
1, 139490, Note_off_c, 1, 43, 0
1, 139492, Note_on_c, 1, 39, 127
1, 139532, Note_off_c, 1, 58, 0
1, 139533, Note_off_c, 1, 63, 0
1, 139653, Note_off_c, 1, 67, 0
1, 139815, Note_off_c, 1, 39, 0
1, 139816, Note_off_c, 1, 51, 0
1, 139818, Note_on_c, 1, 68, 127
1, 139818, Note_on_c, 1, 51, 127
1, 139979, Note_off_c, 1, 68, 0
1, 139981, Note_on_c, 1, 70, 127
1, 140141, Note_off_c, 1, 51, 0
1, 140142, Note_off_c, 1, 70, 0
1, 140143, Note_on_c, 1, 72, 127
1, 140143, Note_on_c, 1, 50, 127
1, 140304, Note_off_c, 1, 72, 0
1, 140306, Note_on_c, 1, 74, 127
1, 140466, Note_off_c, 1, 50, 0
1, 140467, Note_off_c, 1, 74, 0
1, 140469, Note_on_c, 1, 67, 127
1, 140469, Note_on_c, 1, 48, 127
1, 140632, Note_on_c, 1, 72, 127
1, 140794, Note_on_c, 1, 51, 127
1, 140794, Note_on_c, 1, 75, 127
1, 141119, Note_off_c, 1, 51, 0
1, 141121, Note_on_c, 1, 55, 127
1, 141446, Note_off_c, 1, 55, 0
1, 141448, Note_on_c, 1, 60, 127
1, 141488, Note_off_c, 1, 67, 0
1, 141490, Note_off_c, 1, 72, 0
1, 141609, Note_off_c, 1, 75, 0
1, 141611, Note_on_c, 1, 77, 127
1, 141772, Note_off_c, 1, 48, 0
1, 141772, Note_off_c, 1, 77, 0
1, 141774, Note_on_c, 1, 79, 127
1, 141935, Note_off_c, 1, 79, 0
1, 142099, Note_on_c, 1, 74, 127
1, 142260, Note_off_c, 1, 74, 0
1, 142422, Note_off_c, 1, 60, 0
1, 142425, Note_on_c, 1, 60, 127
1, 142425, Note_on_c, 1, 53, 127
1, 142588, Note_on_c, 1, 65, 127
1, 142750, Note_on_c, 1, 48, 127
1, 142750, Note_on_c, 1, 69, 127
1, 143075, Note_off_c, 1, 48, 0
1, 143077, Note_on_c, 1, 45, 127
1, 143402, Note_off_c, 1, 45, 0
1, 143404, Note_on_c, 1, 41, 127
1, 143444, Note_off_c, 1, 60, 0
1, 143446, Note_off_c, 1, 65, 0
1, 143565, Note_off_c, 1, 69, 0
1, 143567, Note_on_c, 1, 72, 127
1, 143727, Note_off_c, 1, 41, 0
1, 143728, Note_off_c, 1, 53, 0
1, 143728, Note_off_c, 1, 72, 0
1, 143730, Note_on_c, 1, 74, 127
1, 143730, Note_on_c, 1, 53, 127
1, 143891, Note_off_c, 1, 74, 0
1, 143893, Note_on_c, 1, 75, 127
1, 144053, Note_off_c, 1, 53, 0
1, 144054, Note_off_c, 1, 75, 0
1, 144055, Note_on_c, 1, 74, 127
1, 144055, Note_on_c, 1, 51, 127
1, 144216, Note_off_c, 1, 74, 0
1, 144218, Note_on_c, 1, 75, 127
1, 144378, Note_off_c, 1, 51, 0
1, 144379, Note_off_c, 1, 75, 0
1, 144381, Note_on_c, 1, 65, 127
1, 144381, Note_on_c, 1, 50, 127
1, 144544, Note_on_c, 1, 70, 127
1, 144706, Note_on_c, 1, 53, 127
1, 144706, Note_on_c, 1, 74, 127
1, 144869, Note_on_c, 1, 77, 127
1, 145029, Note_off_c, 1, 53, 0
1, 145032, Note_on_c, 1, 58, 127
1, 145357, Note_off_c, 1, 58, 0
1, 145359, Note_on_c, 1, 62, 127
1, 145399, Note_off_c, 1, 65, 0
1, 145401, Note_off_c, 1, 70, 0
1, 145401, Note_off_c, 1, 74, 0
1, 145520, Note_off_c, 1, 77, 0
1, 145522, Note_on_c, 1, 75, 127
1, 145682, Note_off_c, 1, 62, 0
1, 145683, Note_off_c, 1, 50, 0
1, 145683, Note_off_c, 1, 75, 0
1, 145685, Note_on_c, 1, 74, 127
1, 145685, Note_on_c, 1, 53, 127
1, 145846, Note_off_c, 1, 74, 0
1, 145847, Note_on_c, 1, 77, 127
1, 146008, Note_off_c, 1, 53, 0
1, 146008, Note_off_c, 1, 77, 0
1, 146010, Note_on_c, 1, 70, 127
1, 146010, Note_on_c, 1, 50, 127
1, 146171, Note_off_c, 1, 70, 0
1, 146173, Note_on_c, 1, 68, 127
1, 146333, Note_off_c, 1, 50, 0
1, 146334, Note_off_c, 1, 68, 0
1, 146336, Note_on_c, 1, 58, 127
1, 146336, Note_on_c, 1, 51, 127
1, 146498, Note_on_c, 1, 63, 127
1, 146661, Note_on_c, 1, 46, 127
1, 146661, Note_on_c, 1, 67, 127
1, 146986, Note_off_c, 1, 46, 0
1, 146988, Note_on_c, 1, 43, 127
1, 147313, Note_off_c, 1, 43, 0
1, 147315, Note_on_c, 1, 39, 127
1, 147355, Note_off_c, 1, 58, 0
1, 147356, Note_off_c, 1, 63, 0
1, 147476, Note_off_c, 1, 67, 0
1, 147638, Note_off_c, 1, 39, 0
1, 147639, Note_off_c, 1, 51, 0
1, 147641, Note_on_c, 1, 69, 127
1, 147641, Note_on_c, 1, 51, 127
1, 147802, Note_off_c, 1, 69, 0
1, 147803, Note_on_c, 1, 70, 127
1, 147964, Note_off_c, 1, 51, 0
1, 147964, Note_off_c, 1, 70, 0
1, 147966, Note_on_c, 1, 72, 127
1, 147966, Note_on_c, 1, 50, 127
1, 148127, Note_off_c, 1, 72, 0
1, 148129, Note_on_c, 1, 74, 127
1, 148289, Note_off_c, 1, 50, 0
1, 148290, Note_off_c, 1, 74, 0
1, 148292, Note_on_c, 1, 75, 127
1, 148292, Note_on_c, 1, 48, 127
1, 148453, Note_off_c, 1, 75, 0
1, 148454, Note_on_c, 1, 74, 127
1, 148615, Note_off_c, 1, 74, 0
1, 148617, Note_on_c, 1, 51, 127
1, 148780, Note_on_c, 1, 79, 127
1, 148940, Note_off_c, 1, 51, 0
1, 148941, Note_off_c, 1, 79, 0
1, 148943, Note_on_c, 1, 55, 127
1, 149266, Note_off_c, 1, 55, 0
1, 149268, Note_on_c, 1, 72, 127
1, 149268, Note_on_c, 1, 60, 127
1, 149429, Note_off_c, 1, 72, 0
1, 149592, Note_off_c, 1, 48, 0
1, 149594, Note_on_c, 1, 70, 127
1, 149594, Note_on_c, 1, 50, 127
1, 149755, Note_off_c, 1, 70, 0
1, 149756, Note_on_c, 1, 69, 127
1, 149917, Note_off_c, 1, 50, 0
1, 149917, Note_off_c, 1, 69, 0
1, 149919, Note_on_c, 1, 52, 127
1, 150242, Note_off_c, 1, 52, 0
1, 150245, Note_on_c, 1, 53, 127
1, 150407, Note_on_c, 1, 67, 127
1, 150568, Note_off_c, 1, 60, 0
1, 150568, Note_off_c, 1, 67, 0
1, 150896, Note_on_c, 1, 63, 127
1, 151219, Note_off_c, 1, 63, 0
1, 151221, Note_on_c, 1, 65, 127
1, 151382, Note_off_c, 1, 65, 0
1, 151547, Note_on_c, 1, 57, 127
1, 151709, Note_on_c, 1, 62, 127
1, 151870, Note_off_c, 1, 62, 0
1, 152191, Note_off_c, 1, 57, 0
1, 152195, Note_off_c, 1, 53, 0
1, 152198, Note_on_c, 1, 62, 127
1, 152198, Note_on_c, 1, 58, 127
1, 152359, Note_off_c, 1, 62, 0
1, 152360, Note_on_c, 1, 60, 127
1, 152521, Note_off_c, 1, 58, 0
1, 152521, Note_off_c, 1, 60, 0
1, 152523, Note_on_c, 1, 62, 127
1, 152523, Note_on_c, 1, 55, 127
1, 152684, Note_off_c, 1, 62, 0
1, 152686, Note_on_c, 1, 65, 127
1, 152846, Note_off_c, 1, 55, 0
1, 152847, Note_off_c, 1, 65, 0
1, 152849, Note_on_c, 1, 67, 127
1, 152849, Note_on_c, 1, 51, 127
1, 153010, Note_off_c, 1, 67, 0
1, 153011, Note_on_c, 1, 69, 127
1, 153172, Note_off_c, 1, 51, 0
1, 153172, Note_off_c, 1, 69, 0
1, 153174, Note_on_c, 1, 70, 127
1, 153174, Note_on_c, 1, 48, 127
1, 153335, Note_off_c, 1, 70, 0
1, 153337, Note_on_c, 1, 72, 127
1, 153497, Note_off_c, 1, 48, 0
1, 153498, Note_off_c, 1, 72, 0
1, 153500, Note_on_c, 1, 74, 127
1, 153500, Note_on_c, 1, 53, 127
1, 153661, Note_off_c, 1, 74, 0
1, 153662, Note_on_c, 1, 70, 127
1, 153823, Note_off_c, 1, 70, 0
1, 153825, Note_on_c, 1, 69, 127
1, 153825, Note_on_c, 1, 41, 127
1, 153986, Note_off_c, 1, 69, 0
1, 153988, Note_on_c, 1, 72, 127
1, 154144, Note_off_c, 1, 53, 0
1, 154148, Note_off_c, 1, 41, 0
1, 154149, Note_off_c, 1, 72, 0
1, 154151, Note_on_c, 1, 70, 127
1, 154151, Note_on_c, 1, 46, 127
1, 154313, Note_on_c, 1, 65, 127
1, 154474, Note_off_c, 1, 65, 0
1, 154476, Note_on_c, 1, 67, 127
1, 154476, Note_on_c, 1, 51, 127
1, 154637, Note_off_c, 1, 67, 0
1, 154639, Note_on_c, 1, 63, 127
1, 154800, Note_off_c, 1, 63, 0
1, 154802, Note_on_c, 1, 60, 127
1, 154802, Note_on_c, 1, 54, 127
1, 154964, Note_off_c, 1, 70, 0
1, 154964, Note_on_c, 1, 69, 127
1, 155120, Note_off_c, 1, 51, 0
1, 155124, Note_off_c, 1, 60, 0
1, 155125, Note_off_c, 1, 54, 0
1, 155125, Note_off_c, 1, 69, 0
1, 155127, Note_on_c, 1, 62, 127
1, 155127, Note_on_c, 1, 53, 127
1, 155780, Note_off_c, 1, 46, 0
1, 155942, Note_off_c, 1, 62, 0
1, 155942, Note_on_c, 1, 77, 127
1, 156103, Note_off_c, 1, 53, 0
1, 156103, Note_off_c, 1, 77, 0
1, 156105, Note_on_c, 1, 70, 127
1, 156105, Note_on_c, 1, 46, 127
1, 156268, Note_on_c, 1, 74, 127
1, 156431, Note_on_c, 1, 50, 127
1, 156431, Note_on_c, 1, 77, 127
1, 156756, Note_off_c, 1, 50, 0
1, 156758, Note_on_c, 1, 53, 127
1, 157083, Note_off_c, 1, 53, 0
1, 157085, Note_on_c, 1, 58, 127
1, 157124, Note_off_c, 1, 70, 0
1, 157126, Note_off_c, 1, 74, 0
1, 157246, Note_off_c, 1, 77, 0
1, 157408, Note_off_c, 1, 46, 0
1, 157408, Note_off_c, 1, 58, 0
1, 157410, Note_on_c, 1, 72, 127
1, 157410, Note_on_c, 1, 46, 127
1, 157571, Note_off_c, 1, 72, 0
1, 157573, Note_on_c, 1, 70, 127
1, 157733, Note_off_c, 1, 46, 0
1, 157734, Note_off_c, 1, 70, 0
1, 157736, Note_on_c, 1, 72, 127
1, 157736, Note_on_c, 1, 44, 127
1, 157897, Note_off_c, 1, 72, 0
1, 157899, Note_on_c, 1, 74, 127
1, 158059, Note_off_c, 1, 44, 0
1, 158060, Note_off_c, 1, 74, 0
1, 158061, Note_on_c, 1, 63, 127
1, 158061, Note_on_c, 1, 43, 127
1, 158224, Note_on_c, 1, 67, 127
1, 158387, Note_on_c, 1, 46, 127
1, 158387, Note_on_c, 1, 70, 127
1, 158550, Note_on_c, 1, 75, 127
1, 158710, Note_off_c, 1, 46, 0
1, 158712, Note_on_c, 1, 51, 127
1, 159037, Note_off_c, 1, 51, 0
1, 159039, Note_on_c, 1, 55, 127
1, 159079, Note_off_c, 1, 63, 0
1, 159081, Note_off_c, 1, 67, 0
1, 159082, Note_off_c, 1, 70, 0
1, 159201, Note_off_c, 1, 75, 0
1, 159202, Note_on_c, 1, 74, 127
1, 159362, Note_off_c, 1, 55, 0
1, 159363, Note_off_c, 1, 43, 0
1, 159363, Note_off_c, 1, 74, 0
1, 159365, Note_on_c, 1, 75, 127
1, 159365, Note_on_c, 1, 53, 127
1, 159526, Note_off_c, 1, 75, 0
1, 159528, Note_on_c, 1, 77, 127
1, 159688, Note_off_c, 1, 53, 0
1, 159689, Note_off_c, 1, 77, 0
1, 159690, Note_on_c, 1, 79, 127
1, 159690, Note_on_c, 1, 51, 127
1, 159851, Note_off_c, 1, 79, 0
1, 159853, Note_on_c, 1, 75, 127
1, 160013, Note_off_c, 1, 51, 0
1, 160014, Note_off_c, 1, 75, 0
1, 160016, Note_on_c, 1, 72, 127
1, 160016, Note_on_c, 1, 44, 127
1, 160177, Note_off_c, 1, 72, 0
1, 160179, Note_on_c, 1, 71, 127
1, 160339, Note_off_c, 1, 44, 0
1, 160340, Note_off_c, 1, 71, 0
1, 160341, Note_on_c, 1, 72, 127
1, 160341, Note_on_c, 1, 56, 127
1, 160502, Note_off_c, 1, 72, 0
1, 160504, Note_on_c, 1, 75, 127
1, 160664, Note_off_c, 1, 56, 0
1, 160665, Note_off_c, 1, 75, 0
1, 160667, Note_on_c, 1, 77, 127
1, 160667, Note_on_c, 1, 55, 127
1, 160828, Note_off_c, 1, 77, 0
1, 160830, Note_on_c, 1, 79, 127
1, 160990, Note_off_c, 1, 55, 0
1, 160991, Note_off_c, 1, 79, 0
1, 160992, Note_on_c, 1, 80, 127
1, 160992, Note_on_c, 1, 53, 127
1, 161153, Note_off_c, 1, 80, 0
1, 161155, Note_on_c, 1, 77, 127
1, 161315, Note_off_c, 1, 53, 0
1, 161316, Note_off_c, 1, 77, 0
1, 161318, Note_on_c, 1, 74, 127
1, 161318, Note_on_c, 1, 51, 127
1, 161479, Note_off_c, 1, 74, 0
1, 161481, Note_on_c, 1, 75, 127
1, 161641, Note_off_c, 1, 51, 0
1, 161642, Note_off_c, 1, 75, 0
1, 161643, Note_on_c, 1, 77, 127
1, 161643, Note_on_c, 1, 50, 127
1, 161804, Note_off_c, 1, 77, 0
1, 161806, Note_on_c, 1, 74, 127
1, 161966, Note_off_c, 1, 50, 0
1, 161967, Note_off_c, 1, 74, 0
1, 161969, Note_on_c, 1, 72, 127
1, 161969, Note_on_c, 1, 43, 127
1, 162130, Note_off_c, 1, 72, 0
1, 162132, Note_on_c, 1, 71, 127
1, 162292, Note_off_c, 1, 43, 0
1, 162293, Note_off_c, 1, 71, 0
1, 162294, Note_on_c, 1, 72, 127
1, 162294, Note_on_c, 1, 55, 127
1, 162455, Note_off_c, 1, 72, 0
1, 162457, Note_on_c, 1, 74, 127
1, 162617, Note_off_c, 1, 55, 0
1, 162618, Note_off_c, 1, 74, 0
1, 162620, Note_on_c, 1, 72, 127
1, 162620, Note_on_c, 1, 57, 127
1, 162781, Note_off_c, 1, 72, 0
1, 162783, Note_on_c, 1, 71, 127
1, 162943, Note_off_c, 1, 57, 0
1, 162944, Note_off_c, 1, 71, 0
1, 162945, Note_on_c, 1, 69, 127
1, 162945, Note_on_c, 1, 59, 127
1, 163106, Note_off_c, 1, 69, 0
1, 163108, Note_on_c, 1, 67, 127
1, 163268, Note_off_c, 1, 59, 0
1, 163269, Note_off_c, 1, 67, 0
1, 163271, Note_on_c, 1, 79, 127
1, 163271, Note_on_c, 1, 60, 127
1, 163351, Note_off_c, 1, 79, 0
1, 163353, Note_on_c, 1, 77, 127
1, 163433, Note_off_c, 1, 60, 0
1, 163433, Note_off_c, 1, 77, 0
1, 163435, Note_on_c, 1, 59, 127
1, 163435, Note_on_c, 1, 79, 127
1, 163596, Note_off_c, 1, 59, 0
1, 163598, Note_on_c, 1, 57, 127
1, 163758, Note_off_c, 1, 79, 0
1, 163759, Note_off_c, 1, 57, 0
1, 163761, Note_on_c, 1, 55, 127
1, 163761, Note_on_c, 1, 77, 127
1, 163922, Note_off_c, 1, 55, 0
1, 163922, Note_off_c, 1, 77, 0
1, 163923, Note_on_c, 1, 76, 127
1, 163923, Note_on_c, 1, 60, 127
1, 164084, Note_off_c, 1, 76, 0
1, 164086, Note_on_c, 1, 74, 127
1, 164246, Note_off_c, 1, 60, 0
1, 164247, Note_off_c, 1, 74, 0
1, 164249, Note_on_c, 1, 76, 127
1, 164249, Note_on_c, 1, 48, 127
1, 164410, Note_off_c, 1, 76, 0
1, 164412, Note_on_c, 1, 77, 127
1, 164572, Note_off_c, 1, 48, 0
1, 164573, Note_off_c, 1, 77, 0
1, 164574, Note_on_c, 1, 79, 127
1, 164574, Note_on_c, 1, 50, 127
1, 164735, Note_off_c, 1, 79, 0
1, 164737, Note_on_c, 1, 76, 127
1, 164897, Note_off_c, 1, 50, 0
1, 164898, Note_off_c, 1, 76, 0
1, 164900, Note_on_c, 1, 72, 127
1, 164900, Note_on_c, 1, 52, 127
1, 165061, Note_off_c, 1, 72, 0
1, 165063, Note_on_c, 1, 76, 127
1, 165223, Note_off_c, 1, 52, 0
1, 165224, Note_off_c, 1, 76, 0
1, 165225, Note_on_c, 1, 79, 127
1, 165225, Note_on_c, 1, 50, 127
1, 165386, Note_off_c, 1, 79, 0
1, 165388, Note_on_c, 1, 82, 127
1, 165548, Note_off_c, 1, 50, 0
1, 165549, Note_off_c, 1, 82, 0
1, 165551, Note_on_c, 1, 80, 127
1, 165551, Note_on_c, 1, 48, 127
1, 165712, Note_off_c, 1, 80, 0
1, 165714, Note_on_c, 1, 79, 127
1, 165874, Note_off_c, 1, 48, 0
1, 165875, Note_off_c, 1, 79, 0
1, 165876, Note_on_c, 1, 53, 127
1, 165876, Note_on_c, 1, 79, 127
1, 166037, Note_off_c, 1, 53, 0
1, 166037, Note_off_c, 1, 79, 0
1, 166039, Note_on_c, 1, 80, 127
1, 166039, Note_on_c, 1, 52, 127
1, 166119, Note_off_c, 1, 80, 0
1, 166121, Note_on_c, 1, 79, 127
1, 166201, Note_off_c, 1, 52, 0
1, 166201, Note_off_c, 1, 79, 0
1, 166203, Note_on_c, 1, 53, 127
1, 166203, Note_on_c, 1, 80, 127
1, 166364, Note_off_c, 1, 53, 0
1, 166364, Note_off_c, 1, 80, 0
1, 166366, Note_on_c, 1, 55, 127
1, 166366, Note_on_c, 1, 79, 127
1, 166527, Note_off_c, 1, 55, 0
1, 166527, Note_off_c, 1, 79, 0
1, 166529, Note_on_c, 1, 56, 127
1, 166529, Note_on_c, 1, 77, 127
1, 166690, Note_off_c, 1, 56, 0
1, 166690, Note_off_c, 1, 77, 0
1, 166692, Note_on_c, 1, 53, 127
1, 166692, Note_on_c, 1, 75, 127
1, 166853, Note_off_c, 1, 53, 0
1, 166853, Note_off_c, 1, 75, 0
1, 166854, Note_on_c, 1, 73, 127
1, 166854, Note_on_c, 1, 58, 127
1, 167015, Note_off_c, 1, 73, 0
1, 167017, Note_on_c, 1, 72, 127
1, 167177, Note_off_c, 1, 58, 0
1, 167178, Note_off_c, 1, 72, 0
1, 167180, Note_on_c, 1, 73, 127
1, 167180, Note_on_c, 1, 56, 127
1, 167341, Note_off_c, 1, 73, 0
1, 167343, Note_on_c, 1, 77, 127
1, 167503, Note_off_c, 1, 56, 0
1, 167504, Note_off_c, 1, 77, 0
1, 167505, Note_on_c, 1, 82, 127
1, 167505, Note_on_c, 1, 55, 127
1, 167666, Note_off_c, 1, 82, 0
1, 167668, Note_on_c, 1, 79, 127
1, 167828, Note_off_c, 1, 55, 0
1, 167829, Note_off_c, 1, 79, 0
1, 167831, Note_on_c, 1, 77, 127
1, 167831, Note_on_c, 1, 60, 127
1, 167992, Note_off_c, 1, 77, 0
1, 167994, Note_on_c, 1, 76, 127
1, 168155, Note_off_c, 1, 76, 0
1, 168156, Note_on_c, 1, 74, 127
1, 168317, Note_off_c, 1, 60, 0
1, 168317, Note_off_c, 1, 74, 0
1, 168319, Note_on_c, 1, 58, 127
1, 168319, Note_on_c, 1, 72, 127
1, 168480, Note_off_c, 1, 58, 0
1, 168480, Note_off_c, 1, 72, 0
1, 168482, Note_on_c, 1, 56, 127
1, 168482, Note_on_c, 1, 74, 127
1, 168643, Note_off_c, 1, 56, 0
1, 168643, Note_off_c, 1, 74, 0
1, 168645, Note_on_c, 1, 55, 127
1, 168645, Note_on_c, 1, 76, 127
1, 168806, Note_off_c, 1, 55, 0
1, 168806, Note_off_c, 1, 76, 0
1, 168807, Note_on_c, 1, 56, 127
1, 168807, Note_on_c, 1, 77, 127
1, 168968, Note_off_c, 1, 56, 0
1, 168968, Note_off_c, 1, 77, 0
1, 168970, Note_on_c, 1, 53, 127
1, 168970, Note_on_c, 1, 80, 127
1, 169131, Note_off_c, 1, 53, 0
1, 169131, Note_off_c, 1, 80, 0
1, 169133, Note_on_c, 1, 79, 127
1, 169133, Note_on_c, 1, 60, 127
1, 169294, Note_off_c, 1, 79, 0
1, 169296, Note_on_c, 1, 77, 127
1, 169456, Note_off_c, 1, 60, 0
1, 169457, Note_off_c, 1, 77, 0
1, 169458, Note_on_c, 1, 79, 127
1, 169458, Note_on_c, 1, 48, 127
1, 169619, Note_off_c, 1, 79, 0
1, 169621, Note_on_c, 1, 76, 127
1, 169781, Note_off_c, 1, 48, 0
1, 169782, Note_off_c, 1, 76, 0
1, 169784, Note_on_c, 1, 53, 127
1, 169784, Note_on_c, 1, 76, 127
1, 169945, Note_off_c, 1, 53, 0
1, 169945, Note_off_c, 1, 76, 0
1, 169947, Note_on_c, 1, 77, 127
1, 169947, Note_on_c, 1, 48, 127
1, 170027, Note_off_c, 1, 77, 0
1, 170029, Note_on_c, 1, 76, 127
1, 170109, Note_off_c, 1, 48, 0
1, 170109, Note_off_c, 1, 76, 0
1, 170111, Note_on_c, 1, 46, 127
1, 170111, Note_on_c, 1, 77, 127
1, 170272, Note_off_c, 1, 46, 0
1, 170274, Note_on_c, 1, 44, 127
1, 170435, Note_off_c, 1, 44, 0
1, 170599, Note_on_c, 1, 48, 127
1, 170760, Note_off_c, 1, 48, 0
1, 170762, Note_on_c, 1, 41, 127
1, 170923, Note_off_c, 1, 77, 0
1, 170925, Note_on_c, 1, 79, 127
1, 171085, Note_off_c, 1, 41, 0
1, 171086, Note_off_c, 1, 79, 0
1, 171087, Note_on_c, 1, 80, 127
1, 171087, Note_on_c, 1, 53, 127
1, 171248, Note_off_c, 1, 80, 0
1, 171250, Note_on_c, 1, 77, 127
1, 171410, Note_off_c, 1, 53, 0
1, 171411, Note_off_c, 1, 77, 0
1, 171413, Note_on_c, 1, 79, 127
1, 171413, Note_on_c, 1, 56, 127
1, 171574, Note_off_c, 1, 79, 0
1, 171576, Note_on_c, 1, 75, 127
1, 171736, Note_off_c, 1, 56, 0
1, 171737, Note_off_c, 1, 75, 0
1, 171738, Note_on_c, 1, 74, 127
1, 171738, Note_on_c, 1, 58, 127
1, 171899, Note_off_c, 1, 74, 0
1, 171901, Note_on_c, 1, 75, 127
1, 172061, Note_off_c, 1, 58, 0
1, 172062, Note_off_c, 1, 75, 0
1, 172064, Note_on_c, 1, 77, 127
1, 172064, Note_on_c, 1, 46, 127
1, 172225, Note_off_c, 1, 77, 0
1, 172227, Note_on_c, 1, 74, 127
1, 172387, Note_off_c, 1, 46, 0
1, 172388, Note_off_c, 1, 74, 0
1, 172389, Note_on_c, 1, 75, 127
1, 172389, Note_on_c, 1, 48, 127
1, 172550, Note_off_c, 1, 75, 0
1, 172552, Note_on_c, 1, 72, 127
1, 172712, Note_off_c, 1, 48, 0
1, 172713, Note_off_c, 1, 72, 0
1, 172715, Note_on_c, 1, 70, 127
1, 172715, Note_on_c, 1, 50, 127
1, 172878, Note_on_c, 1, 77, 127
1, 173037, Note_off_c, 1, 70, 0
1, 173038, Note_off_c, 1, 50, 0
1, 173039, Note_off_c, 1, 77, 0
1, 173040, Note_on_c, 1, 68, 127
1, 173040, Note_on_c, 1, 48, 127
1, 173201, Note_off_c, 1, 68, 0
1, 173203, Note_on_c, 1, 67, 127
1, 173363, Note_off_c, 1, 48, 0
1, 173364, Note_off_c, 1, 67, 0
1, 173366, Note_on_c, 1, 68, 127
1, 173366, Note_on_c, 1, 46, 127
1, 173527, Note_off_c, 1, 68, 0
1, 173529, Note_on_c, 1, 70, 127
1, 173689, Note_off_c, 1, 46, 0
1, 173690, Note_off_c, 1, 70, 0
1, 173691, Note_on_c, 1, 67, 127
1, 173691, Note_on_c, 1, 51, 127
1, 173852, Note_off_c, 1, 67, 0
1, 173854, Note_on_c, 1, 68, 127
1, 174014, Note_off_c, 1, 51, 0
1, 174015, Note_off_c, 1, 68, 0
1, 174017, Note_on_c, 1, 70, 127
1, 174017, Note_on_c, 1, 39, 127
1, 174178, Note_off_c, 1, 70, 0
1, 174180, Note_on_c, 1, 72, 127
1, 174340, Note_off_c, 1, 39, 0
1, 174341, Note_off_c, 1, 72, 0
1, 174342, Note_on_c, 1, 73, 127
1, 174342, Note_on_c, 1, 41, 127
1, 174422, Note_off_c, 1, 73, 0
1, 174425, Note_on_c, 1, 72, 127
1, 174505, Note_off_c, 1, 72, 0
1, 174667, Note_off_c, 1, 41, 0
1, 174670, Note_on_c, 1, 43, 127
1, 174832, Note_on_c, 1, 82, 127
1, 174993, Note_off_c, 1, 82, 0
1, 174995, Note_on_c, 1, 75, 127
1, 174995, Note_on_c, 1, 46, 127
1, 175156, Note_off_c, 1, 75, 0
1, 175318, Note_off_c, 1, 46, 0
1, 175321, Note_on_c, 1, 51, 127
1, 175483, Note_on_c, 1, 70, 127
1, 175644, Note_off_c, 1, 43, 0
1, 175644, Note_off_c, 1, 70, 0
1, 175646, Note_on_c, 1, 44, 127
1, 175965, Note_off_c, 1, 51, 0
1, 175969, Note_off_c, 1, 44, 0
1, 175972, Note_on_c, 1, 56, 127
1, 175972, Note_on_c, 1, 72, 127
1, 176133, Note_off_c, 1, 56, 0
1, 176133, Note_off_c, 1, 72, 0
1, 176134, Note_on_c, 1, 55, 127
1, 176134, Note_on_c, 1, 75, 127
1, 176295, Note_off_c, 1, 55, 0
1, 176295, Note_off_c, 1, 75, 0
1, 176297, Note_on_c, 1, 80, 127
1, 176297, Note_on_c, 1, 53, 127
1, 176377, Note_off_c, 1, 80, 0
1, 176379, Note_on_c, 1, 79, 127
1, 176459, Note_off_c, 1, 53, 0
1, 176459, Note_off_c, 1, 79, 0
1, 176461, Note_on_c, 1, 51, 127
1, 176461, Note_on_c, 1, 80, 127
1, 176622, Note_off_c, 1, 51, 0
1, 176624, Note_on_c, 1, 50, 127
1, 176783, Note_off_c, 1, 80, 0
1, 176787, Note_on_c, 1, 77, 127
1, 176947, Note_off_c, 1, 50, 0
1, 176948, Note_off_c, 1, 77, 0
1, 176950, Note_on_c, 1, 79, 127
1, 176950, Note_on_c, 1, 51, 127
1, 177111, Note_off_c, 1, 79, 0
1, 177112, Note_on_c, 1, 84, 127
1, 177273, Note_off_c, 1, 51, 0
1, 177273, Note_off_c, 1, 84, 0
1, 177275, Note_on_c, 1, 77, 127
1, 177275, Note_on_c, 1, 56, 127
1, 177436, Note_off_c, 1, 77, 0
1, 177438, Note_on_c, 1, 74, 127
1, 177598, Note_off_c, 1, 56, 0
1, 177599, Note_off_c, 1, 74, 0
1, 177601, Note_on_c, 1, 75, 127
1, 177601, Note_on_c, 1, 58, 127
1, 177762, Note_off_c, 1, 75, 0
1, 177763, Note_on_c, 1, 72, 127
1, 177924, Note_off_c, 1, 58, 0
1, 177924, Note_off_c, 1, 72, 0
1, 177926, Note_on_c, 1, 74, 127
1, 177926, Note_on_c, 1, 46, 127
1, 178087, Note_off_c, 1, 74, 0
1, 178089, Note_on_c, 1, 77, 127
1, 178249, Note_off_c, 1, 46, 0
1, 178250, Note_off_c, 1, 77, 0
1, 178252, Note_on_c, 1, 72, 127
1, 178252, Note_on_c, 1, 48, 127
1, 178413, Note_off_c, 1, 72, 0
1, 178414, Note_on_c, 1, 69, 127
1, 178575, Note_off_c, 1, 48, 0
1, 178575, Note_off_c, 1, 69, 0
1, 178577, Note_on_c, 1, 50, 127
1, 178577, Note_on_c, 1, 69, 127
1, 178738, Note_off_c, 1, 50, 0
1, 178738, Note_off_c, 1, 69, 0
1, 178740, Note_on_c, 1, 70, 127
1, 178740, Note_on_c, 1, 46, 127
1, 178820, Note_off_c, 1, 70, 0
1, 178822, Note_on_c, 1, 69, 127
1, 178902, Note_off_c, 1, 46, 0
1, 178902, Note_off_c, 1, 69, 0
1, 178904, Note_on_c, 1, 48, 127
1, 178904, Note_on_c, 1, 70, 127
1, 179065, Note_off_c, 1, 48, 0
1, 179067, Note_on_c, 1, 50, 127
1, 179228, Note_off_c, 1, 50, 0
1, 179230, Note_on_c, 1, 51, 127
1, 179391, Note_off_c, 1, 51, 0
1, 179392, Note_on_c, 1, 53, 127
1, 179553, Note_off_c, 1, 53, 0
1, 179555, Note_on_c, 1, 55, 127
1, 179716, Note_off_c, 1, 70, 0
1, 179718, Note_on_c, 1, 68, 127
1, 179879, Note_off_c, 1, 68, 0
1, 180043, Note_on_c, 1, 73, 127
1, 180204, Note_off_c, 1, 73, 0
1, 180206, Note_on_c, 1, 72, 127
1, 180367, Note_off_c, 1, 72, 0
1, 180369, Note_on_c, 1, 75, 127
1, 180530, Note_off_c, 1, 75, 0
1, 180692, Note_off_c, 1, 55, 0
1, 180694, Note_on_c, 1, 53, 127
1, 180694, Note_on_c, 1, 70, 127
1, 180855, Note_off_c, 1, 53, 0
1, 180855, Note_off_c, 1, 70, 0
1, 180857, Note_on_c, 1, 51, 127
1, 180857, Note_on_c, 1, 67, 127
1, 181018, Note_off_c, 1, 51, 0
1, 181018, Note_off_c, 1, 67, 0
1, 181020, Note_on_c, 1, 53, 127
1, 181020, Note_on_c, 1, 63, 127
1, 181181, Note_off_c, 1, 53, 0
1, 181181, Note_off_c, 1, 63, 0
1, 181183, Note_on_c, 1, 73, 127
1, 181183, Note_on_c, 1, 55, 127
1, 181263, Note_off_c, 1, 73, 0
1, 181265, Note_on_c, 1, 72, 127
1, 181345, Note_off_c, 1, 55, 0
1, 181345, Note_off_c, 1, 72, 0
1, 181347, Note_on_c, 1, 51, 127
1, 181347, Note_on_c, 1, 73, 127
1, 181508, Note_off_c, 1, 51, 0
1, 181510, Note_on_c, 1, 56, 127
1, 181670, Note_off_c, 1, 73, 0
1, 181672, Note_on_c, 1, 70, 127
1, 181833, Note_off_c, 1, 70, 0
1, 181835, Note_on_c, 1, 72, 127
1, 181996, Note_off_c, 1, 72, 0
1, 181998, Note_on_c, 1, 75, 127
1, 182159, Note_off_c, 1, 75, 0
1, 182161, Note_on_c, 1, 74, 127
1, 182322, Note_off_c, 1, 74, 0
1, 182323, Note_on_c, 1, 77, 127
1, 182484, Note_off_c, 1, 56, 0
1, 182484, Note_off_c, 1, 77, 0
1, 182486, Note_on_c, 1, 57, 127
1, 182486, Note_on_c, 1, 75, 127
1, 182647, Note_off_c, 1, 57, 0
1, 182647, Note_off_c, 1, 75, 0
1, 182649, Note_on_c, 1, 55, 127
1, 182649, Note_on_c, 1, 72, 127
1, 182810, Note_off_c, 1, 55, 0
1, 182810, Note_off_c, 1, 72, 0
1, 182812, Note_on_c, 1, 53, 127
1, 182812, Note_on_c, 1, 69, 127
1, 182973, Note_off_c, 1, 53, 0
1, 182973, Note_off_c, 1, 69, 0
1, 182974, Note_on_c, 1, 55, 127
1, 182974, Note_on_c, 1, 65, 127
1, 183135, Note_off_c, 1, 55, 0
1, 183135, Note_off_c, 1, 65, 0
1, 183137, Note_on_c, 1, 75, 127
1, 183137, Note_on_c, 1, 57, 127
1, 183217, Note_off_c, 1, 75, 0
1, 183219, Note_on_c, 1, 74, 127
1, 183299, Note_off_c, 1, 57, 0
1, 183299, Note_off_c, 1, 74, 0
1, 183301, Note_on_c, 1, 53, 127
1, 183301, Note_on_c, 1, 75, 127
1, 183462, Note_off_c, 1, 53, 0
1, 183464, Note_on_c, 1, 58, 127
1, 183624, Note_off_c, 1, 75, 0
1, 183627, Note_on_c, 1, 72, 127
1, 183787, Note_off_c, 1, 58, 0
1, 183788, Note_off_c, 1, 72, 0
1, 183790, Note_on_c, 1, 74, 127
1, 183790, Note_on_c, 1, 46, 127
1, 183951, Note_off_c, 1, 74, 0
1, 183952, Note_on_c, 1, 77, 127
1, 184113, Note_off_c, 1, 46, 0
1, 184113, Note_off_c, 1, 77, 0
1, 184115, Note_on_c, 1, 70, 127
1, 184115, Note_on_c, 1, 50, 127
1, 184276, Note_off_c, 1, 70, 0
1, 184278, Note_on_c, 1, 68, 127
1, 184438, Note_off_c, 1, 50, 0
1, 184439, Note_off_c, 1, 68, 0
1, 184441, Note_on_c, 1, 67, 127
1, 184441, Note_on_c, 1, 51, 127
1, 184602, Note_off_c, 1, 67, 0
1, 184603, Note_on_c, 1, 72, 127
1, 184764, Note_off_c, 1, 51, 0
1, 184764, Note_off_c, 1, 72, 0
1, 184766, Note_on_c, 1, 70, 127
1, 184766, Note_on_c, 1, 43, 127
1, 184927, Note_off_c, 1, 70, 0
1, 184929, Note_on_c, 1, 67, 127
1, 185089, Note_off_c, 1, 43, 0
1, 185090, Note_off_c, 1, 67, 0
1, 185092, Note_on_c, 1, 68, 127
1, 185092, Note_on_c, 1, 46, 127
1, 185253, Note_off_c, 1, 68, 0
1, 185254, Note_on_c, 1, 65, 127
1, 185415, Note_off_c, 1, 46, 0
1, 185415, Note_off_c, 1, 65, 0
1, 185417, Note_on_c, 1, 65, 127
1, 185417, Note_on_c, 1, 39, 127
1, 185596, Note_off_c, 1, 65, 0
1, 185599, Note_on_c, 1, 63, 127
1, 185687, Note_off_c, 1, 63, 0
1, 185778, Note_on_c, 1, 43, 127
1, 186136, Note_off_c, 1, 43, 0
1, 186138, Note_on_c, 1, 46, 127
1, 186499, Note_off_c, 1, 46, 0
1, 186501, Note_on_c, 1, 51, 127
1, 186577, Note_on_c, 1, 55, 127
1, 186653, Note_on_c, 1, 58, 127
1, 188717, Note_off_c, 1, 39, 0
1, 188801, Note_off_c, 1, 51, 0
1, 188877, Note_off_c, 1, 55, 0
1, 188953, Note_off_c, 1, 58, 0
1, 190919, Note_on_c, 1, 67, 127
1, 190919, Note_on_c, 1, 51, 127
1, 190919, Note_on_c, 1, 63, 127
1, 191010, Note_on_c, 1, 65, 127
1, 191038, Note_off_c, 1, 67, 0
1, 191127, Note_off_c, 1, 65, 0
1, 191280, Note_off_c, 1, 51, 0
1, 191447, Note_off_c, 1, 63, 0
1, 191463, Note_on_c, 1, 68, 127
1, 191642, Note_off_c, 1, 68, 0
1, 191644, Note_on_c, 1, 65, 127
1, 191644, Note_on_c, 1, 68, 127
1, 191644, Note_on_c, 1, 51, 127
1, 191825, Note_on_c, 1, 70, 127
1, 191825, Note_on_c, 1, 67, 127
1, 191833, Note_off_c, 1, 65, 0
1, 191833, Note_off_c, 1, 68, 0
1, 191913, Note_off_c, 1, 70, 0
1, 192003, Note_off_c, 1, 51, 0
1, 192352, Note_off_c, 1, 67, 0
1, 192368, Note_on_c, 1, 51, 127
1, 192368, Note_on_c, 1, 68, 127
1, 192368, Note_on_c, 1, 72, 127
1, 192729, Note_off_c, 1, 51, 0
1, 193091, Note_off_c, 1, 68, 0
1, 193093, Note_on_c, 1, 73, 127
1, 193127, Note_off_c, 1, 72, 0
1, 193181, Note_off_c, 1, 73, 0
1, 193273, Note_on_c, 1, 70, 127
1, 193452, Note_off_c, 1, 70, 0
1, 193817, Note_on_c, 1, 67, 127
1, 193998, Note_on_c, 1, 53, 127
1, 194177, Note_off_c, 1, 53, 0
1, 194180, Note_on_c, 1, 55, 127
1, 194359, Note_off_c, 1, 55, 0
1, 194361, Note_on_c, 1, 56, 127
1, 194540, Note_off_c, 1, 56, 0
1, 194905, Note_on_c, 1, 58, 127
1, 195084, Note_off_c, 1, 58, 0
1, 195086, Note_on_c, 1, 60, 127
1, 195215, Note_off_c, 1, 67, 0
1, 195265, Note_off_c, 1, 60, 0
1, 195268, Note_on_c, 1, 58, 127
1, 195268, Note_on_c, 1, 62, 127
1, 195268, Note_on_c, 1, 70, 127
1, 195629, Note_off_c, 1, 58, 0
1, 195810, Note_off_c, 1, 62, 0
1, 195810, Note_off_c, 1, 70, 0
1, 195812, Note_on_c, 1, 63, 127
1, 195812, Note_on_c, 1, 72, 127
1, 195991, Note_off_c, 1, 63, 0
1, 195991, Note_off_c, 1, 72, 0
1, 195993, Note_on_c, 1, 63, 127
1, 195993, Note_on_c, 1, 72, 127
1, 195993, Note_on_c, 1, 58, 127
1, 196172, Note_off_c, 1, 63, 0
1, 196172, Note_off_c, 1, 72, 0
1, 196175, Note_on_c, 1, 74, 127
1, 196175, Note_on_c, 1, 65, 127
1, 196354, Note_off_c, 1, 58, 0
1, 196717, Note_off_c, 1, 74, 0
1, 196717, Note_off_c, 1, 65, 0
1, 196719, Note_on_c, 1, 58, 127
1, 196719, Note_on_c, 1, 67, 127
1, 196719, Note_on_c, 1, 75, 127
1, 197080, Note_off_c, 1, 58, 0
1, 197442, Note_off_c, 1, 67, 0
1, 197442, Note_off_c, 1, 75, 0
1, 197444, Note_on_c, 1, 68, 127
1, 197444, Note_on_c, 1, 75, 127
1, 197444, Note_on_c, 1, 58, 127
1, 197532, Note_off_c, 1, 68, 0
1, 197534, Note_on_c, 1, 67, 127
1, 197622, Note_off_c, 1, 67, 0
1, 197624, Note_on_c, 1, 65, 127
1, 197803, Note_off_c, 1, 65, 0
1, 198160, Note_off_c, 1, 75, 0
1, 198168, Note_on_c, 1, 74, 127
1, 198347, Note_off_c, 1, 58, 0
1, 198349, Note_on_c, 1, 60, 127
1, 198528, Note_off_c, 1, 60, 0
1, 198710, Note_on_c, 1, 56, 127
1, 198889, Note_off_c, 1, 56, 0
1, 199254, Note_on_c, 1, 55, 127
1, 199433, Note_off_c, 1, 55, 0
1, 199564, Note_off_c, 1, 74, 0
1, 199617, Note_on_c, 1, 55, 127
1, 199617, Note_on_c, 1, 67, 127
1, 199617, Note_on_c, 1, 75, 127
1, 199978, Note_off_c, 1, 55, 0
1, 200159, Note_off_c, 1, 67, 0
1, 200159, Note_off_c, 1, 75, 0
1, 200161, Note_on_c, 1, 68, 127
1, 200161, Note_on_c, 1, 77, 127
1, 200340, Note_off_c, 1, 68, 0
1, 200340, Note_off_c, 1, 77, 0
1, 200343, Note_on_c, 1, 77, 127
1, 200343, Note_on_c, 1, 68, 127
1, 200343, Note_on_c, 1, 55, 127
1, 200522, Note_off_c, 1, 77, 0
1, 200522, Note_off_c, 1, 68, 0
1, 200524, Note_on_c, 1, 70, 127
1, 200524, Note_on_c, 1, 79, 127
1, 200704, Note_off_c, 1, 55, 0
1, 200885, Note_off_c, 1, 70, 0
1, 200885, Note_off_c, 1, 79, 0
1, 200887, Note_on_c, 1, 80, 127
1, 200887, Note_on_c, 1, 72, 127
1, 201066, Note_off_c, 1, 80, 0
1, 201066, Note_off_c, 1, 72, 0
1, 201068, Note_on_c, 1, 80, 127
1, 201068, Note_on_c, 1, 72, 127
1, 201068, Note_on_c, 1, 55, 127
1, 201427, Note_off_c, 1, 80, 0
1, 201427, Note_off_c, 1, 72, 0
1, 201429, Note_off_c, 1, 55, 0
1, 201431, Note_on_c, 1, 55, 127
1, 201431, Note_on_c, 1, 73, 127
1, 201431, Note_on_c, 1, 82, 127
1, 201792, Note_off_c, 1, 55, 0
1, 201793, Note_on_c, 1, 56, 127
1, 202154, Note_off_c, 1, 56, 0
1, 202337, Note_off_c, 1, 73, 0
1, 202517, Note_off_c, 1, 82, 0
1, 202519, Note_on_c, 1, 56, 127
1, 202519, Note_on_c, 1, 72, 127
1, 202519, Note_on_c, 1, 80, 127
1, 202880, Note_off_c, 1, 56, 0
1, 203061, Note_off_c, 1, 72, 0
1, 203061, Note_off_c, 1, 80, 0
1, 203063, Note_on_c, 1, 79, 127
1, 203063, Note_on_c, 1, 70, 127
1, 203242, Note_off_c, 1, 79, 0
1, 203242, Note_off_c, 1, 70, 0
1, 203244, Note_on_c, 1, 79, 127
1, 203244, Note_on_c, 1, 70, 127
1, 203244, Note_on_c, 1, 56, 127
1, 203423, Note_off_c, 1, 79, 0
1, 203423, Note_off_c, 1, 70, 0
1, 203425, Note_on_c, 1, 77, 127
1, 203425, Note_on_c, 1, 68, 127
1, 203605, Note_off_c, 1, 56, 0
1, 203786, Note_off_c, 1, 77, 0
1, 203786, Note_off_c, 1, 68, 0
1, 203788, Note_on_c, 1, 67, 127
1, 203788, Note_on_c, 1, 75, 127
1, 203967, Note_off_c, 1, 67, 0
1, 203967, Note_off_c, 1, 75, 0
1, 203970, Note_on_c, 1, 56, 127
1, 203970, Note_on_c, 1, 67, 127
1, 203970, Note_on_c, 1, 75, 127
1, 204149, Note_off_c, 1, 56, 0
1, 204151, Note_on_c, 1, 60, 127
1, 204329, Note_off_c, 1, 67, 0
1, 204329, Note_off_c, 1, 75, 0
1, 204330, Note_off_c, 1, 60, 0
1, 204332, Note_on_c, 1, 58, 127
1, 204332, Note_on_c, 1, 74, 127
1, 204332, Note_on_c, 1, 65, 127
1, 204511, Note_off_c, 1, 58, 0
1, 204514, Note_on_c, 1, 56, 127
1, 204652, Note_off_c, 1, 74, 0
1, 204690, Note_off_c, 1, 65, 0
1, 204692, Note_off_c, 1, 56, 0
1, 204693, Note_on_c, 1, 58, 127
1, 204693, Note_on_c, 1, 67, 127
1, 204693, Note_on_c, 1, 75, 127
1, 204872, Note_off_c, 1, 58, 0
1, 204875, Note_on_c, 1, 56, 127
1, 205054, Note_off_c, 1, 67, 0
1, 205054, Note_off_c, 1, 75, 0
1, 205054, Note_off_c, 1, 56, 0
1, 205056, Note_on_c, 1, 77, 127
1, 205056, Note_on_c, 1, 68, 127
1, 205056, Note_on_c, 1, 55, 127
1, 205235, Note_off_c, 1, 77, 0
1, 205235, Note_off_c, 1, 68, 0
1, 205235, Note_off_c, 1, 55, 0
1, 205237, Note_on_c, 1, 70, 127
1, 205237, Note_on_c, 1, 79, 127
1, 205237, Note_on_c, 1, 53, 127
1, 205416, Note_off_c, 1, 70, 0
1, 205416, Note_off_c, 1, 79, 0
1, 205416, Note_off_c, 1, 53, 0
1, 205419, Note_on_c, 1, 56, 127
1, 205419, Note_on_c, 1, 77, 127
1, 205419, Note_on_c, 1, 68, 127
1, 205598, Note_off_c, 1, 56, 0
1, 205600, Note_on_c, 1, 55, 127
1, 205779, Note_off_c, 1, 55, 0
1, 205780, Note_off_c, 1, 77, 0
1, 205780, Note_off_c, 1, 68, 0
1, 205781, Note_on_c, 1, 53, 127
1, 205781, Note_on_c, 1, 75, 127
1, 205781, Note_on_c, 1, 67, 127
1, 205960, Note_off_c, 1, 53, 0
1, 205963, Note_on_c, 1, 51, 127
1, 206142, Note_off_c, 1, 75, 0
1, 206142, Note_off_c, 1, 67, 0
1, 206142, Note_off_c, 1, 51, 0
1, 206144, Note_on_c, 1, 75, 127
1, 206144, Note_on_c, 1, 65, 127
1, 206144, Note_on_c, 1, 58, 127
1, 206505, Note_off_c, 1, 75, 0
1, 206507, Note_on_c, 1, 74, 127
1, 206672, Note_off_c, 1, 65, 0
1, 206688, Note_on_c, 1, 67, 127
1, 206867, Note_off_c, 1, 67, 0
1, 207049, Note_off_c, 1, 58, 0
1, 207051, Note_on_c, 1, 68, 127
1, 207051, Note_on_c, 1, 56, 127
1, 207139, Note_off_c, 1, 68, 0
1, 207229, Note_off_c, 1, 56, 0
1, 207231, Note_on_c, 1, 55, 127
1, 207410, Note_off_c, 1, 55, 0
1, 207412, Note_on_c, 1, 53, 127
1, 207591, Note_off_c, 1, 53, 0
1, 207593, Note_on_c, 1, 51, 127
1, 207593, Note_on_c, 1, 70, 127
1, 207772, Note_off_c, 1, 51, 0
1, 207775, Note_on_c, 1, 50, 127
1, 207954, Note_off_c, 1, 50, 0
1, 207956, Note_on_c, 1, 48, 127
1, 208135, Note_off_c, 1, 48, 0
1, 208137, Note_on_c, 1, 46, 127
1, 208316, Note_off_c, 1, 70, 0
1, 208316, Note_off_c, 1, 46, 0
1, 208318, Note_off_c, 1, 74, 0
1, 208319, Note_on_c, 1, 68, 127
1, 208319, Note_on_c, 1, 51, 127
1, 208678, Note_off_c, 1, 68, 0
1, 208682, Note_on_c, 1, 75, 127
1, 208682, Note_on_c, 1, 67, 127
1, 209041, Note_off_c, 1, 75, 0
1, 209044, Note_on_c, 1, 77, 127
1, 209132, Note_off_c, 1, 77, 0
1, 209222, Note_off_c, 1, 51, 0
1, 209224, Note_on_c, 1, 53, 127
1, 209403, Note_off_c, 1, 53, 0
1, 209587, Note_on_c, 1, 50, 127
1, 209766, Note_off_c, 1, 50, 0
1, 209768, Note_on_c, 1, 79, 127
1, 210131, Note_on_c, 1, 48, 127
1, 210310, Note_off_c, 1, 48, 0
1, 210491, Note_off_c, 1, 79, 0
1, 210493, Note_off_c, 1, 67, 0
1, 211038, Note_on_c, 1, 69, 127
1, 211217, Note_off_c, 1, 69, 0
1, 211582, Note_on_c, 1, 70, 127
1, 211670, Note_off_c, 1, 70, 0
1, 211943, Note_on_c, 1, 55, 127
1, 211943, Note_on_c, 1, 72, 127
1, 212122, Note_off_c, 1, 55, 0
1, 212124, Note_on_c, 1, 57, 127
1, 212303, Note_off_c, 1, 57, 0
1, 212305, Note_on_c, 1, 58, 127
1, 212484, Note_off_c, 1, 58, 0
1, 212487, Note_on_c, 1, 60, 127
1, 212666, Note_off_c, 1, 72, 0
1, 212666, Note_off_c, 1, 60, 0
1, 213212, Note_on_c, 1, 74, 127
1, 213390, Note_off_c, 1, 74, 0
1, 214477, Note_on_c, 1, 46, 127
1, 214656, Note_off_c, 1, 46, 0
1, 214658, Note_on_c, 1, 45, 127
1, 214837, Note_off_c, 1, 45, 0
1, 214840, Note_on_c, 1, 75, 127
1, 214840, Note_on_c, 1, 46, 127
1, 215201, Note_off_c, 1, 75, 0
1, 215202, Note_on_c, 1, 65, 127
1, 215202, Note_on_c, 1, 74, 127
1, 215563, Note_off_c, 1, 65, 0
1, 215565, Note_on_c, 1, 70, 127
1, 215745, Note_off_c, 1, 46, 0
1, 215746, Note_on_c, 1, 45, 127
1, 215925, Note_off_c, 1, 45, 0
1, 216107, Note_off_c, 1, 70, 0
1, 216109, Note_on_c, 1, 68, 127
1, 216109, Note_on_c, 1, 48, 127
1, 216288, Note_off_c, 1, 68, 0
1, 216288, Note_off_c, 1, 48, 0
1, 216290, Note_on_c, 1, 50, 127
1, 216469, Note_off_c, 1, 50, 0
1, 216472, Note_on_c, 1, 51, 127
1, 216472, Note_on_c, 1, 67, 127
1, 216651, Note_off_c, 1, 51, 0
1, 216653, Note_on_c, 1, 53, 127
1, 216832, Note_off_c, 1, 53, 0
1, 216833, Note_off_c, 1, 67, 0
1, 217015, Note_off_c, 1, 74, 0
1, 217016, Note_on_c, 1, 65, 127
1, 217016, Note_on_c, 1, 55, 127
1, 217375, Note_off_c, 1, 65, 0
1, 217379, Note_on_c, 1, 63, 127
1, 217560, Note_on_c, 1, 67, 127
1, 217739, Note_off_c, 1, 67, 0
1, 217921, Note_off_c, 1, 55, 0
1, 217923, Note_on_c, 1, 72, 127
1, 217923, Note_on_c, 1, 53, 127
1, 218011, Note_off_c, 1, 72, 0
1, 218013, Note_on_c, 1, 70, 127
1, 218101, Note_off_c, 1, 53, 0
1, 218101, Note_off_c, 1, 70, 0
1, 218102, Note_on_c, 1, 51, 127
1, 218281, Note_off_c, 1, 51, 0
1, 218284, Note_on_c, 1, 50, 127
1, 218463, Note_off_c, 1, 50, 0
1, 218465, Note_on_c, 1, 69, 127
1, 218465, Note_on_c, 1, 48, 127
1, 218553, Note_off_c, 1, 69, 0
1, 218643, Note_off_c, 1, 48, 0
1, 219187, Note_off_c, 1, 63, 0
1, 219187, Note_on_c, 1, 57, 127
1, 219366, Note_off_c, 1, 57, 0
1, 219550, Note_on_c, 1, 55, 127
1, 219550, Note_on_c, 1, 65, 127
1, 219729, Note_off_c, 1, 55, 0
1, 219731, Note_on_c, 1, 60, 127
1, 219731, Note_on_c, 1, 57, 127
1, 219910, Note_off_c, 1, 60, 0
1, 219910, Note_off_c, 1, 57, 0
1, 219913, Note_on_c, 1, 62, 127
1, 219913, Note_on_c, 1, 58, 127
1, 220267, Note_off_c, 1, 65, 0
1, 220276, Note_on_c, 1, 67, 127
1, 220441, Note_off_c, 1, 62, 0
1, 220457, Note_on_c, 1, 63, 127
1, 220635, Note_off_c, 1, 67, 0
1, 220636, Note_off_c, 1, 63, 0
1, 220638, Note_on_c, 1, 68, 127
1, 220818, Note_off_c, 1, 58, 0
1, 220820, Note_on_c, 1, 56, 127
1, 220999, Note_off_c, 1, 56, 0
1, 221180, Note_off_c, 1, 68, 0
1, 221182, Note_on_c, 1, 62, 127
1, 221182, Note_on_c, 1, 70, 127
1, 221182, Note_on_c, 1, 53, 127
1, 221361, Note_off_c, 1, 62, 0
1, 221361, Note_off_c, 1, 70, 0
1, 221361, Note_off_c, 1, 53, 0
1, 221364, Note_on_c, 1, 51, 127
1, 221364, Note_on_c, 1, 68, 127
1, 221364, Note_on_c, 1, 63, 127
1, 221543, Note_off_c, 1, 51, 0
1, 221545, Note_on_c, 1, 50, 127
1, 221723, Note_off_c, 1, 68, 0
1, 221724, Note_off_c, 1, 50, 0
1, 221726, Note_on_c, 1, 48, 127
1, 221726, Note_on_c, 1, 67, 127
1, 221905, Note_off_c, 1, 48, 0
1, 221908, Note_on_c, 1, 72, 127
1, 221908, Note_on_c, 1, 46, 127
1, 222087, Note_off_c, 1, 67, 0
1, 222087, Note_off_c, 1, 72, 0
1, 222087, Note_off_c, 1, 46, 0
1, 222089, Note_on_c, 1, 70, 127
1, 222089, Note_on_c, 1, 53, 127
1, 222177, Note_off_c, 1, 70, 0
1, 222179, Note_on_c, 1, 69, 127
1, 222267, Note_off_c, 1, 69, 0
1, 222447, Note_off_c, 1, 63, 0
1, 222447, Note_off_c, 1, 53, 0
1, 222811, Note_on_c, 1, 41, 127
1, 223172, Note_off_c, 1, 41, 0
1, 223174, Note_on_c, 1, 65, 127
1, 223353, Note_off_c, 1, 65, 0
1, 223537, Note_on_c, 1, 46, 127
1, 223537, Note_on_c, 1, 63, 127
1, 223537, Note_on_c, 1, 70, 127
1, 223898, Note_off_c, 1, 46, 0
1, 223899, Note_on_c, 1, 50, 127
1, 224078, Note_off_c, 1, 50, 0
1, 224079, Note_off_c, 1, 63, 0
1, 224081, Note_on_c, 1, 60, 127
1, 224081, Note_on_c, 1, 53, 127
1, 224260, Note_off_c, 1, 60, 0
1, 224260, Note_off_c, 1, 53, 0
1, 224262, Note_on_c, 1, 58, 127
1, 224625, Note_on_c, 1, 62, 127
1, 224713, Note_off_c, 1, 62, 0
1, 225708, Note_off_c, 1, 70, 0
1, 225709, Note_off_c, 1, 58, 0
1, 225711, Note_on_c, 1, 65, 127
1, 225711, Note_on_c, 1, 58, 127
1, 225711, Note_on_c, 1, 62, 127
1, 225799, Note_off_c, 1, 65, 0
1, 225801, Note_on_c, 1, 63, 127
1, 225889, Note_off_c, 1, 63, 0
1, 226070, Note_off_c, 1, 58, 0
1, 226238, Note_off_c, 1, 62, 0
1, 226254, Note_on_c, 1, 60, 127
1, 226433, Note_off_c, 1, 60, 0
1, 226435, Note_on_c, 1, 60, 127
1, 226435, Note_on_c, 1, 63, 127
1, 226435, Note_on_c, 1, 58, 127
1, 226796, Note_off_c, 1, 60, 0
1, 226796, Note_off_c, 1, 63, 0
1, 226796, Note_off_c, 1, 58, 0
1, 226798, Note_on_c, 1, 65, 127
1, 226798, Note_on_c, 1, 62, 127
1, 226798, Note_on_c, 1, 58, 127
1, 226886, Note_off_c, 1, 65, 0
1, 226888, Note_on_c, 1, 63, 127
1, 226976, Note_off_c, 1, 63, 0
1, 227149, Note_off_c, 1, 62, 0
1, 227157, Note_off_c, 1, 58, 0
1, 227159, Note_on_c, 1, 58, 127
1, 227159, Note_on_c, 1, 63, 127
1, 227251, Note_on_c, 1, 65, 127
1, 227339, Note_off_c, 1, 65, 0
1, 227340, Note_on_c, 1, 67, 127
1, 227520, Note_off_c, 1, 58, 0
1, 227876, Note_off_c, 1, 63, 0
1, 227882, Note_off_c, 1, 67, 0
1, 227884, Note_on_c, 1, 70, 127
1, 227884, Note_on_c, 1, 65, 127
1, 227884, Note_on_c, 1, 59, 127
1, 228003, Note_off_c, 1, 70, 0
1, 228005, Note_on_c, 1, 68, 127
1, 228142, Note_off_c, 1, 68, 0
1, 228157, Note_on_c, 1, 67, 127
1, 228245, Note_off_c, 1, 67, 0
1, 228601, Note_off_c, 1, 65, 0
1, 228789, Note_off_c, 1, 59, 0
1, 228791, Note_on_c, 1, 60, 127
1, 228970, Note_off_c, 1, 60, 0
1, 228973, Note_on_c, 1, 62, 127
1, 229152, Note_off_c, 1, 62, 0
1, 229698, Note_on_c, 1, 57, 127
1, 229877, Note_off_c, 1, 57, 0
1, 230061, Note_on_c, 1, 60, 127
1, 230061, Note_on_c, 1, 63, 127
1, 230061, Note_on_c, 1, 67, 127
1, 230422, Note_off_c, 1, 60, 0
1, 230603, Note_off_c, 1, 63, 0
1, 230603, Note_off_c, 1, 67, 0
1, 230605, Note_on_c, 1, 69, 127
1, 230605, Note_on_c, 1, 65, 127
1, 230784, Note_off_c, 1, 69, 0
1, 230784, Note_off_c, 1, 65, 0
1, 230786, Note_on_c, 1, 63, 127
1, 230786, Note_on_c, 1, 56, 127
1, 230786, Note_on_c, 1, 71, 127
1, 231145, Note_off_c, 1, 63, 0
1, 231147, Note_off_c, 1, 56, 0
1, 231149, Note_on_c, 1, 62, 127
1, 231503, Note_off_c, 1, 71, 0
1, 231507, Note_off_c, 1, 62, 0
1, 231510, Note_on_c, 1, 54, 127
1, 231510, Note_on_c, 1, 63, 127
1, 231510, Note_on_c, 1, 72, 127
1, 231871, Note_off_c, 1, 54, 0
1, 232233, Note_off_c, 1, 63, 0
1, 232233, Note_off_c, 1, 72, 0
1, 232235, Note_on_c, 1, 65, 127
1, 232235, Note_on_c, 1, 72, 127
1, 232235, Note_on_c, 1, 55, 127
1, 232323, Note_off_c, 1, 65, 0
1, 232325, Note_on_c, 1, 63, 127
1, 232413, Note_off_c, 1, 63, 0
1, 232415, Note_on_c, 1, 62, 127
1, 232594, Note_off_c, 1, 62, 0
1, 232951, Note_off_c, 1, 72, 0
1, 232959, Note_on_c, 1, 71, 127
1, 233138, Note_off_c, 1, 55, 0
1, 233141, Note_on_c, 1, 53, 127
1, 233320, Note_off_c, 1, 53, 0
1, 233503, Note_on_c, 1, 56, 127
1, 233682, Note_off_c, 1, 56, 0
1, 234408, Note_off_c, 1, 71, 0
1, 234410, Note_on_c, 1, 51, 127
1, 234410, Note_on_c, 1, 63, 127
1, 234410, Note_on_c, 1, 72, 127
1, 234771, Note_off_c, 1, 51, 0
1, 234952, Note_off_c, 1, 63, 0
1, 234952, Note_off_c, 1, 72, 0
1, 234954, Note_on_c, 1, 71, 127
1, 234954, Note_on_c, 1, 62, 127
1, 235133, Note_off_c, 1, 71, 0
1, 235133, Note_off_c, 1, 62, 0
1, 235135, Note_on_c, 1, 71, 127
1, 235135, Note_on_c, 1, 62, 127
1, 235135, Note_on_c, 1, 55, 127
1, 235314, Note_off_c, 1, 71, 0
1, 235314, Note_off_c, 1, 62, 0
1, 235317, Note_on_c, 1, 63, 127
1, 235317, Note_on_c, 1, 72, 127
1, 235496, Note_off_c, 1, 55, 0
1, 235678, Note_off_c, 1, 63, 0
1, 235678, Note_off_c, 1, 72, 0
1, 235679, Note_on_c, 1, 74, 127
1, 235679, Note_on_c, 1, 65, 127
1, 235858, Note_off_c, 1, 74, 0
1, 235858, Note_off_c, 1, 65, 0
1, 235861, Note_on_c, 1, 74, 127
1, 235861, Note_on_c, 1, 65, 127
1, 235861, Note_on_c, 1, 48, 127
1, 236222, Note_off_c, 1, 74, 0
1, 236222, Note_off_c, 1, 65, 0
1, 236222, Note_off_c, 1, 48, 0
1, 236223, Note_on_c, 1, 48, 127
1, 236223, Note_on_c, 1, 75, 127
1, 236223, Note_on_c, 1, 67, 127
1, 236584, Note_off_c, 1, 48, 0
1, 236586, Note_on_c, 1, 53, 127
1, 236940, Note_off_c, 1, 75, 0
1, 236940, Note_off_c, 1, 67, 0
1, 236947, Note_off_c, 1, 53, 0
1, 236949, Note_on_c, 1, 53, 127
1, 237130, Note_on_c, 1, 72, 127
1, 237130, Note_on_c, 1, 63, 127
1, 237309, Note_off_c, 1, 72, 0
1, 237309, Note_off_c, 1, 63, 0
1, 237310, Note_off_c, 1, 53, 0
1, 237312, Note_on_c, 1, 72, 127
1, 237312, Note_on_c, 1, 63, 127
1, 237312, Note_on_c, 1, 56, 127
1, 237491, Note_off_c, 1, 72, 0
1, 237491, Note_off_c, 1, 63, 0
1, 237493, Note_on_c, 1, 74, 127
1, 237493, Note_on_c, 1, 65, 127
1, 237673, Note_off_c, 1, 56, 0
1, 237854, Note_off_c, 1, 74, 0
1, 237854, Note_off_c, 1, 65, 0
1, 237856, Note_on_c, 1, 75, 127
1, 237856, Note_on_c, 1, 67, 127
1, 238035, Note_off_c, 1, 75, 0
1, 238035, Note_off_c, 1, 67, 0
1, 238037, Note_on_c, 1, 75, 127
1, 238037, Note_on_c, 1, 67, 127
1, 238037, Note_on_c, 1, 47, 127
1, 238396, Note_off_c, 1, 75, 0
1, 238396, Note_off_c, 1, 67, 0
1, 238398, Note_off_c, 1, 47, 0
1, 238400, Note_on_c, 1, 47, 127
1, 238400, Note_on_c, 1, 77, 127
1, 238400, Note_on_c, 1, 68, 127
1, 238761, Note_off_c, 1, 47, 0
1, 238762, Note_on_c, 1, 48, 127
1, 239117, Note_off_c, 1, 77, 0
1, 239117, Note_off_c, 1, 68, 0
1, 239123, Note_off_c, 1, 48, 0
1, 239125, Note_on_c, 1, 48, 127
1, 239306, Note_on_c, 1, 67, 127
1, 239306, Note_on_c, 1, 75, 127
1, 239485, Note_off_c, 1, 67, 0
1, 239485, Note_off_c, 1, 75, 0
1, 239486, Note_off_c, 1, 48, 0
1, 239488, Note_on_c, 1, 67, 127
1, 239488, Note_on_c, 1, 75, 127
1, 239488, Note_on_c, 1, 55, 127
1, 239669, Note_on_c, 1, 74, 127
1, 239669, Note_on_c, 1, 65, 127
1, 239677, Note_off_c, 1, 67, 0
1, 239677, Note_off_c, 1, 75, 0
1, 239849, Note_off_c, 1, 55, 0
1, 240030, Note_off_c, 1, 74, 0
1, 240030, Note_off_c, 1, 65, 0
1, 240032, Note_on_c, 1, 72, 127
1, 240032, Note_on_c, 1, 63, 127
1, 240211, Note_off_c, 1, 72, 0
1, 240211, Note_off_c, 1, 63, 0
1, 240213, Note_on_c, 1, 63, 127
1, 240213, Note_on_c, 1, 72, 127
1, 240213, Note_on_c, 1, 43, 127
1, 240395, Note_off_c, 1, 63, 0
1, 240395, Note_off_c, 1, 72, 0
1, 240395, Note_on_c, 1, 65, 127
1, 240395, Note_on_c, 1, 74, 127
1, 240574, Note_off_c, 1, 43, 0
1, 240756, Note_off_c, 1, 65, 0
1, 240756, Note_off_c, 1, 74, 0
1, 240757, Note_on_c, 1, 62, 127
1, 240757, Note_on_c, 1, 71, 127
1, 240936, Note_off_c, 1, 62, 0
1, 240936, Note_off_c, 1, 71, 0
1, 240939, Note_on_c, 1, 62, 127
1, 240939, Note_on_c, 1, 48, 127
1, 240939, Note_on_c, 1, 72, 127
1, 241300, Note_off_c, 1, 62, 0
1, 241300, Note_off_c, 1, 48, 0
1, 241301, Note_on_c, 1, 63, 127
1, 241664, Note_on_c, 1, 46, 127
1, 242025, Note_off_c, 1, 72, 0
1, 242025, Note_off_c, 1, 46, 0
1, 242027, Note_on_c, 1, 67, 127
1, 242206, Note_off_c, 1, 67, 0
1, 242208, Note_on_c, 1, 65, 127
1, 242387, Note_off_c, 1, 65, 0
1, 242389, Note_on_c, 1, 44, 127
1, 242571, Note_on_c, 1, 68, 127
1, 242750, Note_off_c, 1, 44, 0
1, 242750, Note_off_c, 1, 68, 0
1, 243115, Note_on_c, 1, 43, 127
1, 243477, Note_on_c, 1, 70, 127
1, 243652, Note_off_c, 1, 63, 0
1, 244020, Note_off_c, 1, 43, 0
1, 244203, Note_on_c, 1, 61, 127
1, 244384, Note_on_c, 1, 41, 127
1, 244563, Note_off_c, 1, 41, 0
1, 244564, Note_off_c, 1, 61, 0
1, 244566, Note_on_c, 1, 60, 127
1, 244747, Note_on_c, 1, 39, 127
1, 244926, Note_off_c, 1, 39, 0
1, 244927, Note_off_c, 1, 60, 0
1, 245290, Note_off_c, 1, 70, 0
1, 245291, Note_on_c, 1, 61, 127
1, 245291, Note_on_c, 1, 44, 127
1, 245652, Note_off_c, 1, 61, 0
1, 245654, Note_on_c, 1, 60, 127
1, 245835, Note_on_c, 1, 63, 127
1, 246014, Note_off_c, 1, 63, 0
1, 246196, Note_off_c, 1, 44, 0
1, 246198, Note_on_c, 1, 65, 127
1, 246198, Note_on_c, 1, 49, 127
1, 246377, Note_off_c, 1, 65, 0
1, 246377, Note_off_c, 1, 49, 0
1, 246379, Note_on_c, 1, 48, 127
1, 246379, Note_on_c, 1, 67, 127
1, 246558, Note_off_c, 1, 48, 0
1, 246560, Note_on_c, 1, 46, 127
1, 246739, Note_off_c, 1, 46, 0
1, 246740, Note_off_c, 1, 67, 0
1, 246742, Note_on_c, 1, 68, 127
1, 247103, Note_off_c, 1, 68, 0
1, 247104, Note_on_c, 1, 70, 127
1, 247286, Note_on_c, 1, 43, 127
1, 247465, Note_off_c, 1, 70, 0
1, 247465, Note_off_c, 1, 43, 0
1, 247467, Note_on_c, 1, 41, 127
1, 247828, Note_off_c, 1, 41, 0
1, 248005, Note_off_c, 1, 60, 0
1, 248011, Note_on_c, 1, 58, 127
1, 248190, Note_off_c, 1, 58, 0
1, 248193, Note_on_c, 1, 53, 127
1, 248554, Note_off_c, 1, 53, 0
1, 248737, Note_on_c, 1, 62, 127
1, 248916, Note_off_c, 1, 62, 0
1, 248918, Note_on_c, 1, 48, 127
1, 248918, Note_on_c, 1, 63, 127
1, 248918, Note_on_c, 1, 67, 127
1, 249279, Note_off_c, 1, 48, 0
1, 249281, Note_on_c, 1, 46, 127
1, 249460, Note_off_c, 1, 63, 0
1, 249460, Note_off_c, 1, 67, 0
1, 249462, Note_on_c, 1, 65, 127
1, 249462, Note_on_c, 1, 68, 127
1, 249641, Note_off_c, 1, 65, 0
1, 249641, Note_off_c, 1, 68, 0
1, 249642, Note_off_c, 1, 46, 0
1, 249643, Note_on_c, 1, 70, 127
1, 249643, Note_on_c, 1, 44, 127
1, 249643, Note_on_c, 1, 67, 127
1, 249822, Note_off_c, 1, 70, 0
1, 249822, Note_off_c, 1, 44, 0
1, 249825, Note_on_c, 1, 68, 127
1, 249825, Note_on_c, 1, 41, 127
1, 250004, Note_off_c, 1, 68, 0
1, 250004, Note_off_c, 1, 41, 0
1, 250006, Note_on_c, 1, 43, 127
1, 250185, Note_off_c, 1, 43, 0
1, 250187, Note_on_c, 1, 72, 127
1, 250360, Note_off_c, 1, 67, 0
1, 250366, Note_off_c, 1, 72, 0
1, 250369, Note_on_c, 1, 46, 127
1, 250369, Note_on_c, 1, 67, 127
1, 250369, Note_on_c, 1, 62, 127
1, 250548, Note_off_c, 1, 46, 0
1, 250550, Note_on_c, 1, 48, 127
1, 250729, Note_off_c, 1, 48, 0
1, 250730, Note_off_c, 1, 67, 0
1, 250731, Note_on_c, 1, 65, 127
1, 250731, Note_on_c, 1, 50, 127
1, 250819, Note_off_c, 1, 65, 0
1, 250909, Note_off_c, 1, 50, 0
1, 250911, Note_on_c, 1, 51, 127
1, 251089, Note_off_c, 1, 51, 0
1, 251091, Note_on_c, 1, 53, 127
1, 251270, Note_off_c, 1, 53, 0
1, 251272, Note_on_c, 1, 55, 127
1, 251451, Note_off_c, 1, 55, 0
1, 251454, Note_on_c, 1, 56, 127
1, 251633, Note_off_c, 1, 56, 0
1, 251635, Note_on_c, 1, 58, 127
1, 251814, Note_off_c, 1, 58, 0
1, 251815, Note_off_c, 1, 62, 0
1, 251816, Note_on_c, 1, 70, 127
1, 251816, Note_on_c, 1, 67, 127
1, 251816, Note_on_c, 1, 51, 127
1, 252358, Note_off_c, 1, 70, 0
1, 252358, Note_off_c, 1, 67, 0
1, 252361, Note_on_c, 1, 65, 127
1, 252361, Note_on_c, 1, 68, 127
1, 252540, Note_off_c, 1, 65, 0
1, 252540, Note_off_c, 1, 68, 0
1, 252721, Note_off_c, 1, 51, 0
1, 252723, Note_on_c, 1, 55, 127
1, 252902, Note_off_c, 1, 55, 0
1, 252905, Note_on_c, 1, 70, 127
1, 252905, Note_on_c, 1, 53, 127
1, 252905, Note_on_c, 1, 67, 127
1, 252993, Note_off_c, 1, 70, 0
1, 252994, Note_on_c, 1, 68, 127
1, 253082, Note_off_c, 1, 68, 0
1, 253083, Note_off_c, 1, 53, 0
1, 253084, Note_on_c, 1, 51, 127
1, 253258, Note_off_c, 1, 67, 0
1, 253263, Note_off_c, 1, 51, 0
1, 253266, Note_on_c, 1, 49, 127
1, 253266, Note_on_c, 1, 68, 127
1, 253357, Note_on_c, 1, 70, 127
1, 253445, Note_off_c, 1, 49, 0
1, 253445, Note_off_c, 1, 70, 0
1, 253447, Note_on_c, 1, 48, 127
1, 253447, Note_on_c, 1, 72, 127
1, 253626, Note_off_c, 1, 48, 0
1, 253628, Note_on_c, 1, 46, 127
1, 253807, Note_off_c, 1, 46, 0
1, 253810, Note_on_c, 1, 44, 127
1, 253983, Note_off_c, 1, 68, 0
1, 253989, Note_off_c, 1, 72, 0
1, 253989, Note_off_c, 1, 44, 0
1, 253991, Note_on_c, 1, 75, 127
1, 253991, Note_on_c, 1, 43, 127
1, 253991, Note_on_c, 1, 70, 127
1, 254079, Note_off_c, 1, 75, 0
1, 254081, Note_on_c, 1, 73, 127
1, 254169, Note_off_c, 1, 43, 0
1, 254169, Note_off_c, 1, 73, 0
1, 254171, Note_on_c, 1, 72, 127
1, 254171, Note_on_c, 1, 39, 127
1, 254350, Note_off_c, 1, 72, 0
1, 254350, Note_off_c, 1, 39, 0
1, 254352, Note_on_c, 1, 41, 127
1, 254531, Note_off_c, 1, 41, 0
1, 254715, Note_on_c, 1, 44, 127
1, 254894, Note_off_c, 1, 44, 0
1, 254896, Note_on_c, 1, 46, 127
1, 255075, Note_off_c, 1, 46, 0
1, 255078, Note_on_c, 1, 48, 127
1, 255255, Note_off_c, 1, 70, 0
1, 255257, Note_off_c, 1, 48, 0
1, 255259, Note_on_c, 1, 67, 127
1, 255438, Note_off_c, 1, 67, 0
1, 255440, Note_on_c, 1, 68, 127
1, 255984, Note_on_c, 1, 74, 127
1, 256157, Note_off_c, 1, 68, 0
1, 256163, Note_off_c, 1, 74, 0
1, 256166, Note_on_c, 1, 75, 127
1, 256166, Note_on_c, 1, 48, 127
1, 256166, Note_on_c, 1, 67, 127
1, 256345, Note_off_c, 1, 75, 0
1, 256345, Note_off_c, 1, 48, 0
1, 256347, Note_on_c, 1, 74, 127
1, 256347, Note_on_c, 1, 46, 127
1, 256526, Note_off_c, 1, 74, 0
1, 256526, Note_off_c, 1, 46, 0
1, 256694, Note_off_c, 1, 67, 0
1, 256710, Note_on_c, 1, 68, 127
1, 256710, Note_on_c, 1, 77, 127
1, 256710, Note_on_c, 1, 44, 127
1, 256889, Note_off_c, 1, 68, 0
1, 256889, Note_off_c, 1, 77, 0
1, 256889, Note_off_c, 1, 44, 0
1, 256891, Note_on_c, 1, 75, 127
1, 256891, Note_on_c, 1, 46, 127
1, 256891, Note_on_c, 1, 65, 127
1, 257078, Note_off_c, 1, 75, 0
1, 257080, Note_on_c, 1, 74, 127
1, 257267, Note_off_c, 1, 46, 0
1, 257444, Note_off_c, 1, 65, 0
1, 257460, Note_on_c, 1, 72, 127
1, 257647, Note_off_c, 1, 72, 0
1, 257649, Note_on_c, 1, 58, 127
1, 257838, Note_on_c, 1, 70, 127
1, 258025, Note_off_c, 1, 58, 0
1, 258214, Note_off_c, 1, 70, 0
1, 258216, Note_on_c, 1, 68, 127
1, 258402, Note_off_c, 1, 74, 0
1, 258403, Note_off_c, 1, 68, 0
1, 258406, Note_on_c, 1, 51, 127
1, 258406, Note_on_c, 1, 68, 127
1, 258406, Note_on_c, 1, 75, 127
1, 258849, Note_off_c, 1, 51, 0
1, 258850, Note_on_c, 1, 55, 127
1, 259070, Note_off_c, 1, 68, 0
1, 259070, Note_off_c, 1, 55, 0
1, 259072, Note_on_c, 1, 65, 127
1, 259072, Note_on_c, 1, 58, 127
1, 259292, Note_off_c, 1, 65, 0
1, 259292, Note_off_c, 1, 58, 0
1, 259294, Note_on_c, 1, 63, 127
1, 259515, Note_on_c, 1, 67, 127
1, 259623, Note_off_c, 1, 67, 0
1, 261953, Note_off_c, 1, 75, 0
1, 261963, Note_off_c, 1, 63, 0
1, 263753, Note_on_c, 1, 75, 127
1, 263931, Note_off_c, 1, 75, 0
1, 263933, Note_on_c, 1, 70, 127
1, 264111, Note_off_c, 1, 70, 0
1, 264113, Note_on_c, 1, 67, 127
1, 264469, Note_off_c, 1, 67, 0
1, 264471, Note_on_c, 1, 63, 127
1, 264471, Note_on_c, 1, 55, 127
1, 264471, Note_on_c, 1, 51, 127
1, 264649, Note_off_c, 1, 63, 0
1, 264649, Note_off_c, 1, 55, 0
1, 264650, Note_on_c, 1, 62, 127
1, 264650, Note_on_c, 1, 53, 127
1, 264828, Note_off_c, 1, 62, 0
1, 264828, Note_off_c, 1, 53, 0
1, 265190, Note_on_c, 1, 67, 127
1, 265190, Note_on_c, 1, 56, 127
1, 265278, Note_off_c, 1, 67, 0
1, 265280, Note_on_c, 1, 65, 127
1, 265368, Note_off_c, 1, 65, 0
1, 265548, Note_off_c, 1, 56, 0
1, 265549, Note_on_c, 1, 58, 127
1, 265901, Note_off_c, 1, 51, 0
1, 265905, Note_off_c, 1, 58, 0
1, 265908, Note_on_c, 1, 72, 127
1, 265908, Note_on_c, 1, 51, 127
1, 266086, Note_off_c, 1, 72, 0
1, 266086, Note_off_c, 1, 51, 0
1, 266087, Note_on_c, 1, 70, 127
1, 266087, Note_on_c, 1, 50, 127
1, 266265, Note_off_c, 1, 70, 0
1, 266265, Note_off_c, 1, 50, 0
1, 266267, Note_on_c, 1, 72, 127
1, 266267, Note_on_c, 1, 51, 127
1, 266355, Note_off_c, 1, 72, 0
1, 266357, Note_on_c, 1, 70, 127
1, 266445, Note_off_c, 1, 70, 0
1, 266625, Note_off_c, 1, 51, 0
1, 266627, Note_on_c, 1, 68, 127
1, 266627, Note_on_c, 1, 53, 127
1, 266983, Note_off_c, 1, 68, 0
1, 266983, Note_off_c, 1, 53, 0
1, 266985, Note_on_c, 1, 70, 127
1, 266985, Note_on_c, 1, 55, 127
1, 267341, Note_off_c, 1, 70, 0
1, 267341, Note_off_c, 1, 55, 0
1, 267343, Note_on_c, 1, 75, 127
1, 267343, Note_on_c, 1, 60, 127
1, 267521, Note_off_c, 1, 75, 0
1, 267521, Note_off_c, 1, 60, 0
1, 267523, Note_on_c, 1, 74, 127
1, 267523, Note_on_c, 1, 58, 127
1, 267701, Note_off_c, 1, 74, 0
1, 267701, Note_off_c, 1, 58, 0
1, 267702, Note_on_c, 1, 75, 127
1, 267702, Note_on_c, 1, 60, 127
1, 268058, Note_off_c, 1, 75, 0
1, 268058, Note_off_c, 1, 60, 0
1, 268060, Note_on_c, 1, 79, 127
1, 268060, Note_on_c, 1, 56, 127
1, 268148, Note_off_c, 1, 79, 0
1, 268150, Note_on_c, 1, 77, 127
1, 268238, Note_off_c, 1, 77, 0
1, 268240, Note_on_c, 1, 75, 127
1, 268328, Note_off_c, 1, 75, 0
1, 268418, Note_off_c, 1, 56, 0
1, 268420, Note_on_c, 1, 75, 127
1, 268420, Note_on_c, 1, 58, 127
1, 268598, Note_off_c, 1, 75, 0
1, 268600, Note_on_c, 1, 74, 127
1, 268778, Note_off_c, 1, 58, 0
1, 268778, Note_off_c, 1, 74, 0
1, 268780, Note_on_c, 1, 72, 127
1, 268780, Note_on_c, 1, 60, 127
1, 268958, Note_off_c, 1, 72, 0
1, 268959, Note_on_c, 1, 74, 127
1, 269137, Note_off_c, 1, 74, 0
1, 269138, Note_off_c, 1, 60, 0
1, 269139, Note_on_c, 1, 70, 127
1, 269139, Note_on_c, 1, 62, 127
1, 269495, Note_off_c, 1, 70, 0
1, 269495, Note_off_c, 1, 62, 0
1, 269497, Note_on_c, 1, 77, 127
1, 269497, Note_on_c, 1, 58, 127
1, 269675, Note_off_c, 1, 77, 0
1, 269677, Note_on_c, 1, 74, 127
1, 269855, Note_off_c, 1, 58, 0
1, 269855, Note_off_c, 1, 74, 0
1, 269857, Note_on_c, 1, 70, 127
1, 269857, Note_on_c, 1, 60, 127
1, 270213, Note_off_c, 1, 70, 0
1, 270213, Note_off_c, 1, 60, 0
1, 270215, Note_on_c, 1, 70, 127
1, 270215, Note_on_c, 1, 65, 127
1, 270303, Note_off_c, 1, 70, 0
1, 270305, Note_on_c, 1, 68, 127
1, 270393, Note_off_c, 1, 68, 0
1, 270395, Note_on_c, 1, 67, 127
1, 270573, Note_off_c, 1, 65, 0
1, 270573, Note_off_c, 1, 67, 0
1, 270575, Note_on_c, 1, 68, 127
1, 270575, Note_on_c, 1, 62, 127
1, 270931, Note_off_c, 1, 68, 0
1, 270931, Note_off_c, 1, 62, 0
1, 270933, Note_on_c, 1, 77, 127
1, 270933, Note_on_c, 1, 58, 127
1, 271111, Note_off_c, 1, 77, 0
1, 271112, Note_on_c, 1, 74, 127
1, 271290, Note_off_c, 1, 74, 0
1, 271291, Note_off_c, 1, 58, 0
1, 271292, Note_on_c, 1, 70, 127
1, 271292, Note_on_c, 1, 63, 127
1, 271470, Note_off_c, 1, 70, 0
1, 271472, Note_on_c, 1, 67, 127
1, 271650, Note_off_c, 1, 63, 0
1, 271650, Note_off_c, 1, 67, 0
1, 271652, Note_on_c, 1, 68, 127
1, 271652, Note_on_c, 1, 58, 127
1, 271830, Note_off_c, 1, 68, 0
1, 271832, Note_on_c, 1, 65, 127
1, 272010, Note_off_c, 1, 58, 0
1, 272010, Note_off_c, 1, 65, 0
1, 272011, Note_on_c, 1, 67, 127
1, 272011, Note_on_c, 1, 51, 127
1, 272099, Note_off_c, 1, 67, 0
1, 272101, Note_on_c, 1, 65, 127
1, 272189, Note_off_c, 1, 65, 0
1, 272369, Note_off_c, 1, 51, 0
1, 272371, Note_on_c, 1, 79, 127
1, 272371, Note_on_c, 1, 60, 127
1, 272549, Note_off_c, 1, 79, 0
1, 272551, Note_on_c, 1, 75, 127
1, 272729, Note_off_c, 1, 60, 0
1, 272729, Note_off_c, 1, 75, 0
1, 272731, Note_on_c, 1, 72, 127
1, 272731, Note_on_c, 1, 62, 127
1, 273087, Note_off_c, 1, 72, 0
1, 273087, Note_off_c, 1, 62, 0
1, 273089, Note_on_c, 1, 72, 127
1, 273089, Note_on_c, 1, 67, 127
1, 273177, Note_off_c, 1, 72, 0
1, 273179, Note_on_c, 1, 70, 127
1, 273267, Note_off_c, 1, 70, 0
1, 273268, Note_on_c, 1, 69, 127
1, 273446, Note_off_c, 1, 69, 0
1, 273447, Note_off_c, 1, 67, 0
1, 273448, Note_on_c, 1, 70, 127
1, 273448, Note_on_c, 1, 64, 127
1, 273804, Note_off_c, 1, 70, 0
1, 273804, Note_off_c, 1, 64, 0
1, 273806, Note_on_c, 1, 79, 127
1, 273806, Note_on_c, 1, 60, 127
1, 273984, Note_off_c, 1, 79, 0
1, 273986, Note_on_c, 1, 76, 127
1, 274164, Note_off_c, 1, 60, 0
1, 274164, Note_off_c, 1, 76, 0
1, 274166, Note_on_c, 1, 72, 127
1, 274166, Note_on_c, 1, 65, 127
1, 274344, Note_off_c, 1, 72, 0
1, 274346, Note_on_c, 1, 69, 127
1, 274524, Note_off_c, 1, 65, 0
1, 274524, Note_off_c, 1, 69, 0
1, 274526, Note_on_c, 1, 70, 127
1, 274526, Note_on_c, 1, 60, 127
1, 274704, Note_off_c, 1, 70, 0
1, 274705, Note_on_c, 1, 67, 127
1, 274883, Note_off_c, 1, 67, 0
1, 274884, Note_off_c, 1, 60, 0
1, 274885, Note_on_c, 1, 69, 127
1, 274885, Note_on_c, 1, 53, 127
1, 274973, Note_off_c, 1, 69, 0
1, 274975, Note_on_c, 1, 67, 127
1, 275063, Note_off_c, 1, 67, 0
1, 275239, Note_off_c, 1, 53, 0
1, 275245, Note_on_c, 1, 65, 127
1, 275423, Note_off_c, 1, 65, 0
1, 275425, Note_on_c, 1, 69, 127
1, 275603, Note_off_c, 1, 69, 0
1, 275604, Note_on_c, 1, 72, 127
1, 275782, Note_off_c, 1, 72, 0
1, 275784, Note_on_c, 1, 69, 127
1, 275962, Note_off_c, 1, 69, 0
1, 275964, Note_on_c, 1, 65, 127
1, 275964, Note_on_c, 1, 57, 127
1, 276142, Note_off_c, 1, 65, 0
1, 276142, Note_off_c, 1, 57, 0
1, 276144, Note_on_c, 1, 69, 127
1, 276144, Note_on_c, 1, 53, 127
1, 276322, Note_off_c, 1, 69, 0
1, 276322, Note_off_c, 1, 53, 0
1, 276324, Note_on_c, 1, 72, 127
1, 276324, Note_on_c, 1, 48, 127
1, 276502, Note_off_c, 1, 72, 0
1, 276503, Note_on_c, 1, 69, 127
1, 276681, Note_off_c, 1, 69, 0
1, 276682, Note_off_c, 1, 48, 0
1, 276683, Note_on_c, 1, 72, 127
1, 276683, Note_on_c, 1, 53, 127
1, 276861, Note_off_c, 1, 72, 0
1, 276861, Note_off_c, 1, 53, 0
1, 276863, Note_on_c, 1, 75, 127
1, 276863, Note_on_c, 1, 48, 127
1, 277041, Note_off_c, 1, 75, 0
1, 277041, Note_off_c, 1, 48, 0
1, 277043, Note_on_c, 1, 81, 127
1, 277043, Note_on_c, 1, 41, 127
1, 277221, Note_off_c, 1, 81, 0
1, 277223, Note_on_c, 1, 75, 127
1, 277401, Note_off_c, 1, 75, 0
1, 277402, Note_on_c, 1, 72, 127
1, 277580, Note_off_c, 1, 72, 0
1, 278118, Note_off_c, 1, 41, 0
1, 278122, Note_on_c, 1, 81, 127
1, 278300, Note_off_c, 1, 81, 0
1, 278301, Note_on_c, 1, 84, 127
1, 278479, Note_off_c, 1, 84, 0
1, 278481, Note_on_c, 1, 74, 127
1, 278659, Note_off_c, 1, 74, 0
1, 278661, Note_on_c, 1, 77, 127
1, 278839, Note_off_c, 1, 77, 0
1, 278841, Note_on_c, 1, 82, 127
1, 278841, Note_on_c, 1, 53, 127
1, 279019, Note_off_c, 1, 82, 0
1, 279019, Note_off_c, 1, 53, 0
1, 279021, Note_on_c, 1, 77, 127
1, 279021, Note_on_c, 1, 50, 127
1, 279199, Note_off_c, 1, 77, 0
1, 279199, Note_off_c, 1, 50, 0
1, 279200, Note_on_c, 1, 79, 127
1, 279200, Note_on_c, 1, 46, 127
1, 279378, Note_off_c, 1, 79, 0
1, 279380, Note_on_c, 1, 75, 127
1, 279558, Note_off_c, 1, 46, 0
1, 279558, Note_off_c, 1, 75, 0
1, 279560, Note_on_c, 1, 77, 127
1, 279560, Note_on_c, 1, 50, 127
1, 279738, Note_off_c, 1, 77, 0
1, 279738, Note_off_c, 1, 50, 0
1, 279740, Note_on_c, 1, 74, 127
1, 279740, Note_on_c, 1, 46, 127
1, 279918, Note_off_c, 1, 74, 0
1, 279918, Note_off_c, 1, 46, 0
1, 279920, Note_on_c, 1, 75, 127
1, 279920, Note_on_c, 1, 41, 127
1, 280098, Note_off_c, 1, 75, 0
1, 280099, Note_on_c, 1, 72, 127
1, 280277, Note_off_c, 1, 72, 0
1, 280279, Note_on_c, 1, 74, 127
1, 280457, Note_off_c, 1, 74, 0
1, 280459, Note_on_c, 1, 70, 127
1, 280637, Note_off_c, 1, 41, 0
1, 280637, Note_off_c, 1, 70, 0
1, 280639, Note_on_c, 1, 72, 127
1, 280817, Note_off_c, 1, 72, 0
1, 280819, Note_on_c, 1, 69, 127
1, 280997, Note_off_c, 1, 69, 0
1, 280998, Note_on_c, 1, 70, 127
1, 280998, Note_on_c, 1, 48, 127
1, 281176, Note_off_c, 1, 70, 0
1, 281178, Note_on_c, 1, 67, 127
1, 281356, Note_off_c, 1, 48, 0
1, 281356, Note_off_c, 1, 67, 0
1, 281358, Note_on_c, 1, 65, 127
1, 281358, Note_on_c, 1, 50, 127
1, 281536, Note_off_c, 1, 65, 0
1, 281538, Note_on_c, 1, 70, 127
1, 281716, Note_off_c, 1, 50, 0
1, 281716, Note_off_c, 1, 70, 0
1, 281718, Note_on_c, 1, 67, 127
1, 281718, Note_on_c, 1, 51, 127
1, 281896, Note_off_c, 1, 67, 0
1, 281897, Note_on_c, 1, 63, 127
1, 282075, Note_off_c, 1, 63, 0
1, 282076, Note_off_c, 1, 51, 0
1, 282077, Note_on_c, 1, 62, 127
1, 282077, Note_on_c, 1, 53, 127
1, 282255, Note_off_c, 1, 62, 0
1, 282257, Note_on_c, 1, 70, 127
1, 282435, Note_off_c, 1, 53, 0
1, 282435, Note_off_c, 1, 70, 0
1, 282437, Note_on_c, 1, 60, 127
1, 282437, Note_on_c, 1, 41, 127
1, 282615, Note_off_c, 1, 60, 0
1, 282617, Note_on_c, 1, 69, 127
1, 282795, Note_off_c, 1, 41, 0
1, 282795, Note_off_c, 1, 69, 0
1, 282796, Note_on_c, 1, 69, 127
1, 282796, Note_on_c, 1, 46, 127
1, 282974, Note_off_c, 1, 69, 0
1, 282976, Note_on_c, 1, 70, 127
1, 283064, Note_off_c, 1, 70, 0
1, 283154, Note_off_c, 1, 46, 0
1, 283156, Note_on_c, 1, 50, 127
1, 283156, Note_on_c, 1, 70, 127
1, 283334, Note_off_c, 1, 50, 0
1, 283336, Note_on_c, 1, 53, 127
1, 283514, Note_off_c, 1, 53, 0
1, 283516, Note_on_c, 1, 58, 127
1, 283872, Note_off_c, 1, 70, 0
1, 283874, Note_on_c, 1, 82, 127
1, 284052, Note_off_c, 1, 82, 0
1, 284053, Note_on_c, 1, 77, 127
1, 284231, Note_off_c, 1, 77, 0
1, 284232, Note_off_c, 1, 58, 0
1, 284233, Note_on_c, 1, 74, 127
1, 284589, Note_off_c, 1, 74, 0
1, 284591, Note_on_c, 1, 70, 127
1, 284591, Note_on_c, 1, 62, 127
1, 284591, Note_on_c, 1, 58, 127
1, 284769, Note_off_c, 1, 70, 0
1, 284769, Note_off_c, 1, 62, 0
1, 284771, Note_on_c, 1, 69, 127
1, 284771, Note_on_c, 1, 60, 127
1, 284949, Note_off_c, 1, 69, 0
1, 284949, Note_off_c, 1, 60, 0
1, 285308, Note_off_c, 1, 58, 0
1, 285310, Note_on_c, 1, 75, 127
1, 285310, Note_on_c, 1, 65, 127
1, 285310, Note_on_c, 1, 56, 127
1, 285398, Note_off_c, 1, 75, 0
1, 285400, Note_on_c, 1, 74, 127
1, 285488, Note_off_c, 1, 74, 0
1, 285490, Note_on_c, 1, 72, 127
1, 285578, Note_off_c, 1, 72, 0
1, 285668, Note_off_c, 1, 65, 0
1, 285668, Note_off_c, 1, 56, 0
1, 285670, Note_on_c, 1, 75, 127
1, 285670, Note_on_c, 1, 55, 127
1, 285670, Note_on_c, 1, 58, 127
1, 285848, Note_off_c, 1, 75, 0
1, 285850, Note_on_c, 1, 70, 127
1, 286028, Note_off_c, 1, 55, 0
1, 286028, Note_off_c, 1, 70, 0
1, 286030, Note_on_c, 1, 77, 127
1, 286030, Note_on_c, 1, 53, 127
1, 286208, Note_off_c, 1, 77, 0
1, 286388, Note_off_c, 1, 53, 0
1, 286389, Note_on_c, 1, 79, 127
1, 286389, Note_on_c, 1, 51, 127
1, 286567, Note_off_c, 1, 79, 0
1, 286745, Note_off_c, 1, 58, 0
1, 286747, Note_off_c, 1, 51, 0
1, 286749, Note_on_c, 1, 73, 127
1, 286749, Note_on_c, 1, 55, 127
1, 286927, Note_off_c, 1, 73, 0
1, 286929, Note_on_c, 1, 70, 127
1, 287107, Note_off_c, 1, 55, 0
1, 287107, Note_off_c, 1, 70, 0
1, 287108, Note_on_c, 1, 72, 127
1, 287108, Note_on_c, 1, 56, 127
1, 287286, Note_off_c, 1, 72, 0
1, 287288, Note_on_c, 1, 77, 127
1, 287466, Note_off_c, 1, 56, 0
1, 287466, Note_off_c, 1, 77, 0
1, 287468, Note_on_c, 1, 79, 127
1, 287468, Note_on_c, 1, 53, 127
1, 287646, Note_off_c, 1, 79, 0
1, 287648, Note_on_c, 1, 80, 127
1, 287826, Note_off_c, 1, 53, 0
1, 287826, Note_off_c, 1, 80, 0
1, 287828, Note_on_c, 1, 79, 127
1, 287828, Note_on_c, 1, 50, 127
1, 288006, Note_off_c, 1, 79, 0
1, 288007, Note_on_c, 1, 77, 127
1, 288185, Note_off_c, 1, 77, 0
1, 288186, Note_off_c, 1, 50, 0
1, 288187, Note_on_c, 1, 75, 127
1, 288187, Note_on_c, 1, 53, 127
1, 288365, Note_off_c, 1, 75, 0
1, 288367, Note_on_c, 1, 74, 127
1, 288545, Note_off_c, 1, 53, 0
1, 288545, Note_off_c, 1, 74, 0
1, 288547, Note_on_c, 1, 72, 127
1, 288547, Note_on_c, 1, 55, 127
1, 288725, Note_off_c, 1, 72, 0
1, 288727, Note_on_c, 1, 71, 127
1, 288905, Note_off_c, 1, 55, 0
1, 288905, Note_off_c, 1, 71, 0
1, 288906, Note_on_c, 1, 69, 127
1, 288906, Note_on_c, 1, 57, 127
1, 289084, Note_off_c, 1, 69, 0
1, 289086, Note_on_c, 1, 71, 127
1, 289264, Note_off_c, 1, 57, 0
1, 289264, Note_off_c, 1, 71, 0
1, 289266, Note_on_c, 1, 67, 127
1, 289266, Note_on_c, 1, 59, 127
1, 289622, Note_off_c, 1, 67, 0
1, 289622, Note_off_c, 1, 59, 0
1, 289624, Note_on_c, 1, 79, 127
1, 289624, Note_on_c, 1, 55, 127
1, 289802, Note_off_c, 1, 79, 0
1, 289804, Note_on_c, 1, 74, 127
1, 289982, Note_off_c, 1, 55, 0
1, 289982, Note_off_c, 1, 74, 0
1, 289984, Note_on_c, 1, 75, 127
1, 289984, Note_on_c, 1, 60, 127
1, 290162, Note_off_c, 1, 75, 0
1, 290163, Note_on_c, 1, 72, 127
1, 290341, Note_off_c, 1, 72, 0
1, 290342, Note_off_c, 1, 60, 0
1, 290343, Note_on_c, 1, 71, 127
1, 290343, Note_on_c, 1, 62, 127
1, 290521, Note_off_c, 1, 71, 0
1, 290523, Note_on_c, 1, 72, 127
1, 290701, Note_off_c, 1, 62, 0
1, 290701, Note_off_c, 1, 72, 0
1, 290703, Note_on_c, 1, 79, 127
1, 290703, Note_on_c, 1, 63, 127
1, 290881, Note_off_c, 1, 79, 0
1, 290883, Note_on_c, 1, 72, 127
1, 291061, Note_off_c, 1, 63, 0
1, 291061, Note_off_c, 1, 72, 0
1, 291062, Note_on_c, 1, 80, 127
1, 291062, Note_on_c, 1, 65, 127
1, 291240, Note_off_c, 1, 80, 0
1, 291242, Note_on_c, 1, 72, 127
1, 291420, Note_off_c, 1, 65, 0
1, 291420, Note_off_c, 1, 72, 0
1, 291422, Note_on_c, 1, 71, 127
1, 291422, Note_on_c, 1, 67, 127
1, 291600, Note_off_c, 1, 71, 0
1, 291602, Note_on_c, 1, 77, 127
1, 291780, Note_off_c, 1, 67, 0
1, 291780, Note_off_c, 1, 77, 0
1, 291782, Note_on_c, 1, 79, 127
1, 291782, Note_on_c, 1, 62, 127
1, 291960, Note_off_c, 1, 79, 0
1, 291961, Note_on_c, 1, 77, 127
1, 292139, Note_off_c, 1, 77, 0
1, 292140, Note_off_c, 1, 62, 0
1, 292141, Note_on_c, 1, 74, 127
1, 292141, Note_on_c, 1, 59, 127
1, 292319, Note_off_c, 1, 74, 0
1, 292321, Note_on_c, 1, 77, 127
1, 292499, Note_off_c, 1, 59, 0
1, 292499, Note_off_c, 1, 77, 0
1, 292501, Note_on_c, 1, 71, 127
1, 292501, Note_on_c, 1, 55, 127
1, 292679, Note_off_c, 1, 71, 0
1, 292681, Note_on_c, 1, 77, 127
1, 292859, Note_off_c, 1, 55, 0
1, 292859, Note_off_c, 1, 77, 0
1, 292860, Note_on_c, 1, 75, 127
1, 292860, Note_on_c, 1, 60, 127
1, 293038, Note_off_c, 1, 75, 0
1, 293040, Note_on_c, 1, 72, 127
1, 293218, Note_off_c, 1, 60, 0
1, 293218, Note_off_c, 1, 72, 0
1, 293220, Note_on_c, 1, 71, 127
1, 293220, Note_on_c, 1, 56, 127
1, 293398, Note_off_c, 1, 71, 0
1, 293400, Note_on_c, 1, 72, 127
1, 293578, Note_off_c, 1, 56, 0
1, 293578, Note_off_c, 1, 72, 0
1, 293580, Note_on_c, 1, 68, 127
1, 293580, Note_on_c, 1, 53, 127
1, 293758, Note_off_c, 1, 68, 0
1, 293759, Note_on_c, 1, 72, 127
1, 293937, Note_off_c, 1, 72, 0
1, 293938, Note_off_c, 1, 53, 0
1, 293939, Note_on_c, 1, 67, 127
1, 293939, Note_on_c, 1, 51, 127
1, 294117, Note_off_c, 1, 67, 0
1, 294119, Note_on_c, 1, 72, 127
1, 294297, Note_off_c, 1, 51, 0
1, 294297, Note_off_c, 1, 72, 0
1, 294299, Note_on_c, 1, 65, 127
1, 294299, Note_on_c, 1, 50, 127
1, 294477, Note_off_c, 1, 65, 0
1, 294479, Note_on_c, 1, 71, 127
1, 294657, Note_off_c, 1, 50, 0
1, 294657, Note_off_c, 1, 71, 0
1, 294658, Note_on_c, 1, 69, 127
1, 294658, Note_on_c, 1, 48, 127
1, 294836, Note_off_c, 1, 69, 0
1, 294838, Note_on_c, 1, 71, 127
1, 295016, Note_off_c, 1, 48, 0
1, 295016, Note_off_c, 1, 71, 0
1, 295018, Note_on_c, 1, 74, 127
1, 295018, Note_on_c, 1, 47, 127
1, 295196, Note_off_c, 1, 74, 0
1, 295198, Note_on_c, 1, 67, 127
1, 295376, Note_off_c, 1, 47, 0
1, 295376, Note_off_c, 1, 67, 0
1, 295378, Note_on_c, 1, 77, 127
1, 295378, Note_on_c, 1, 43, 127
1, 295556, Note_off_c, 1, 77, 0
1, 295557, Note_on_c, 1, 67, 127
1, 295735, Note_off_c, 1, 67, 0
1, 295736, Note_off_c, 1, 43, 0
1, 295737, Note_on_c, 1, 77, 127
1, 295737, Note_on_c, 1, 48, 127
1, 295915, Note_off_c, 1, 77, 0
1, 295917, Note_on_c, 1, 75, 127
1, 296095, Note_off_c, 1, 48, 0
1, 296095, Note_off_c, 1, 75, 0
1, 296097, Note_on_c, 1, 74, 127
1, 296097, Note_on_c, 1, 44, 127
1, 296275, Note_off_c, 1, 74, 0
1, 296277, Note_on_c, 1, 72, 127
1, 296455, Note_off_c, 1, 44, 0
1, 296455, Note_off_c, 1, 72, 0
1, 296456, Note_on_c, 1, 75, 127
1, 296456, Note_on_c, 1, 41, 127
1, 296634, Note_off_c, 1, 75, 0
1, 296636, Note_on_c, 1, 74, 127
1, 296814, Note_off_c, 1, 41, 0
1, 296814, Note_off_c, 1, 74, 0
1, 296816, Note_on_c, 1, 72, 127
1, 296816, Note_on_c, 1, 43, 127
1, 296994, Note_off_c, 1, 72, 0
1, 296996, Note_on_c, 1, 71, 127
1, 297174, Note_off_c, 1, 43, 0
1, 297174, Note_off_c, 1, 71, 0
1, 297176, Note_on_c, 1, 71, 127
1, 297176, Note_on_c, 1, 36, 127
1, 297532, Note_off_c, 1, 71, 0
1, 297532, Note_off_c, 1, 36, 0
1, 297534, Note_on_c, 1, 72, 127
1, 297534, Note_on_c, 1, 39, 127
1, 297622, Note_off_c, 1, 72, 0
1, 297624, Note_on_c, 1, 71, 127
1, 297712, Note_off_c, 1, 39, 0
1, 297712, Note_off_c, 1, 71, 0
1, 297714, Note_on_c, 1, 43, 127
1, 297714, Note_on_c, 1, 72, 127
1, 297892, Note_off_c, 1, 43, 0
1, 297893, Note_on_c, 1, 48, 127
1, 298249, Note_off_c, 1, 48, 0
1, 298250, Note_off_c, 1, 72, 0
1, 298251, Note_on_c, 1, 72, 127
1, 298251, Note_on_c, 1, 51, 127
1, 298429, Note_off_c, 1, 72, 0
1, 298429, Note_off_c, 1, 51, 0
1, 298431, Note_on_c, 1, 74, 127
1, 298431, Note_on_c, 1, 48, 127
1, 298609, Note_off_c, 1, 74, 0
1, 298609, Note_off_c, 1, 48, 0
1, 298611, Note_on_c, 1, 75, 127
1, 298611, Note_on_c, 1, 53, 127
1, 298789, Note_off_c, 1, 75, 0
1, 298791, Note_on_c, 1, 72, 127
1, 298969, Note_off_c, 1, 53, 0
1, 298969, Note_off_c, 1, 72, 0
1, 298971, Note_on_c, 1, 69, 127
1, 298971, Note_on_c, 1, 48, 127
1, 299149, Note_off_c, 1, 69, 0
1, 299149, Note_off_c, 1, 48, 0
1, 299150, Note_on_c, 1, 65, 127
1, 299150, Note_on_c, 1, 45, 127
1, 299328, Note_off_c, 1, 65, 0
1, 299328, Note_off_c, 1, 45, 0
1, 299330, Note_on_c, 1, 69, 127
1, 299330, Note_on_c, 1, 41, 127
1, 299508, Note_off_c, 1, 69, 0
1, 299510, Note_on_c, 1, 72, 127
1, 299688, Note_off_c, 1, 41, 0
1, 299688, Note_off_c, 1, 72, 0
1, 299690, Note_on_c, 1, 45, 127
1, 299690, Note_on_c, 1, 77, 127
1, 299868, Note_off_c, 1, 45, 0
1, 299870, Note_on_c, 1, 41, 127
1, 300048, Note_off_c, 1, 77, 0
1, 300048, Note_off_c, 1, 41, 0
1, 300049, Note_on_c, 1, 75, 127
1, 300049, Note_on_c, 1, 46, 127
1, 300227, Note_off_c, 1, 75, 0
1, 300229, Note_on_c, 1, 74, 127
1, 300407, Note_off_c, 1, 46, 0
1, 300407, Note_off_c, 1, 74, 0
1, 300409, Note_on_c, 1, 72, 127
1, 300409, Note_on_c, 1, 50, 127
1, 300587, Note_off_c, 1, 72, 0
1, 300587, Note_off_c, 1, 50, 0
1, 300589, Note_on_c, 1, 75, 127
1, 300589, Note_on_c, 1, 53, 127
1, 300767, Note_off_c, 1, 75, 0
1, 300767, Note_off_c, 1, 53, 0
1, 300769, Note_on_c, 1, 74, 127
1, 300769, Note_on_c, 1, 58, 127
1, 300947, Note_off_c, 1, 74, 0
1, 300948, Note_on_c, 1, 72, 127
1, 301126, Note_off_c, 1, 72, 0
1, 301127, Note_off_c, 1, 58, 0
1, 301128, Note_on_c, 1, 70, 127
1, 301128, Note_on_c, 1, 62, 127
1, 301306, Note_off_c, 1, 70, 0
1, 301306, Note_off_c, 1, 62, 0
1, 301308, Note_on_c, 1, 72, 127
1, 301308, Note_on_c, 1, 58, 127
1, 301486, Note_off_c, 1, 72, 0
1, 301486, Note_off_c, 1, 58, 0
1, 301488, Note_on_c, 1, 73, 127
1, 301488, Note_on_c, 1, 63, 127
1, 301666, Note_off_c, 1, 73, 0
1, 301668, Note_on_c, 1, 70, 127
1, 301846, Note_off_c, 1, 63, 0
1, 301846, Note_off_c, 1, 70, 0
1, 301847, Note_on_c, 1, 67, 127
1, 301847, Note_on_c, 1, 58, 127
1, 302025, Note_off_c, 1, 67, 0
1, 302025, Note_off_c, 1, 58, 0
1, 302027, Note_on_c, 1, 63, 127
1, 302027, Note_on_c, 1, 55, 127
1, 302205, Note_off_c, 1, 63, 0
1, 302205, Note_off_c, 1, 55, 0
1, 302207, Note_on_c, 1, 67, 127
1, 302207, Note_on_c, 1, 51, 127
1, 302385, Note_off_c, 1, 67, 0
1, 302387, Note_on_c, 1, 70, 127
1, 302565, Note_off_c, 1, 51, 0
1, 302565, Note_off_c, 1, 70, 0
1, 302567, Note_on_c, 1, 55, 127
1, 302567, Note_on_c, 1, 75, 127
1, 302745, Note_off_c, 1, 55, 0
1, 302746, Note_on_c, 1, 51, 127
1, 302924, Note_off_c, 1, 51, 0
1, 302925, Note_off_c, 1, 75, 0
1, 302926, Note_on_c, 1, 73, 127
1, 302926, Note_on_c, 1, 56, 127
1, 303104, Note_off_c, 1, 73, 0
1, 303106, Note_on_c, 1, 72, 127
1, 303284, Note_off_c, 1, 56, 0
1, 303284, Note_off_c, 1, 72, 0
1, 303286, Note_on_c, 1, 70, 127
1, 303286, Note_on_c, 1, 60, 127
1, 303464, Note_off_c, 1, 70, 0
1, 303464, Note_off_c, 1, 60, 0
1, 303466, Note_on_c, 1, 73, 127
1, 303466, Note_on_c, 1, 63, 127
1, 303644, Note_off_c, 1, 73, 0
1, 303644, Note_off_c, 1, 63, 0
1, 303645, Note_on_c, 1, 72, 127
1, 303645, Note_on_c, 1, 68, 127
1, 303823, Note_off_c, 1, 72, 0
1, 303825, Note_on_c, 1, 75, 127
1, 304003, Note_off_c, 1, 68, 0
1, 304003, Note_off_c, 1, 75, 0
1, 304005, Note_on_c, 1, 77, 127
1, 304005, Note_on_c, 1, 67, 127
1, 304183, Note_off_c, 1, 77, 0
1, 304185, Note_on_c, 1, 79, 127
1, 304363, Note_off_c, 1, 67, 0
1, 304363, Note_off_c, 1, 79, 0
1, 304365, Note_on_c, 1, 80, 127
1, 304365, Note_on_c, 1, 65, 127
1, 304543, Note_off_c, 1, 80, 0
1, 304544, Note_on_c, 1, 72, 127
1, 304722, Note_off_c, 1, 72, 0
1, 304723, Note_off_c, 1, 65, 0
1, 304724, Note_on_c, 1, 77, 127
1, 304724, Note_on_c, 1, 63, 127
1, 304902, Note_off_c, 1, 77, 0
1, 304904, Note_on_c, 1, 79, 127
1, 305082, Note_off_c, 1, 63, 0
1, 305082, Note_off_c, 1, 79, 0
1, 305084, Note_on_c, 1, 80, 127
1, 305084, Note_on_c, 1, 62, 127
1, 305262, Note_off_c, 1, 80, 0
1, 305264, Note_on_c, 1, 70, 127
1, 305442, Note_off_c, 1, 62, 0
1, 305442, Note_off_c, 1, 70, 0
1, 305443, Note_on_c, 1, 77, 127
1, 305443, Note_on_c, 1, 60, 127
1, 305621, Note_off_c, 1, 77, 0
1, 305623, Note_on_c, 1, 79, 127
1, 305801, Note_off_c, 1, 60, 0
1, 305801, Note_off_c, 1, 79, 0
1, 305803, Note_on_c, 1, 80, 127
1, 305803, Note_on_c, 1, 58, 127
1, 305981, Note_off_c, 1, 80, 0
1, 305983, Note_on_c, 1, 74, 127
1, 306161, Note_off_c, 1, 58, 0
1, 306161, Note_off_c, 1, 74, 0
1, 306163, Note_on_c, 1, 77, 127
1, 306163, Note_on_c, 1, 56, 127
1, 306341, Note_off_c, 1, 77, 0
1, 306342, Note_on_c, 1, 79, 127
1, 306520, Note_off_c, 1, 79, 0
1, 306521, Note_off_c, 1, 56, 0
1, 306522, Note_on_c, 1, 80, 127
1, 306522, Note_on_c, 1, 55, 127
1, 306700, Note_off_c, 1, 80, 0
1, 306702, Note_on_c, 1, 77, 127
1, 306880, Note_off_c, 1, 55, 0
1, 306880, Note_off_c, 1, 77, 0
1, 306882, Note_on_c, 1, 79, 127
1, 306882, Note_on_c, 1, 53, 127
1, 307060, Note_off_c, 1, 79, 0
1, 307062, Note_on_c, 1, 80, 127
1, 307240, Note_off_c, 1, 53, 0
1, 307240, Note_off_c, 1, 80, 0
1, 307241, Note_on_c, 1, 79, 127
1, 307241, Note_on_c, 1, 51, 127
1, 307419, Note_off_c, 1, 79, 0
1, 307421, Note_on_c, 1, 75, 127
1, 307599, Note_off_c, 1, 51, 0
1, 307599, Note_off_c, 1, 75, 0
1, 307601, Note_on_c, 1, 74, 127
1, 307601, Note_on_c, 1, 53, 127
1, 307779, Note_off_c, 1, 74, 0
1, 307781, Note_on_c, 1, 75, 127
1, 307959, Note_off_c, 1, 53, 0
1, 307959, Note_off_c, 1, 75, 0
1, 307961, Note_on_c, 1, 82, 127
1, 307961, Note_on_c, 1, 55, 127
1, 308139, Note_off_c, 1, 82, 0
1, 308140, Note_on_c, 1, 75, 127
1, 308318, Note_off_c, 1, 75, 0
1, 308319, Note_off_c, 1, 55, 0
1, 308320, Note_on_c, 1, 84, 127
1, 308320, Note_on_c, 1, 56, 127
1, 308498, Note_off_c, 1, 84, 0
1, 308500, Note_on_c, 1, 75, 127
1, 308678, Note_off_c, 1, 56, 0
1, 308678, Note_off_c, 1, 75, 0
1, 308680, Note_on_c, 1, 74, 127
1, 308680, Note_on_c, 1, 58, 127
1, 308858, Note_off_c, 1, 74, 0
1, 308860, Note_on_c, 1, 77, 127
1, 309038, Note_off_c, 1, 58, 0
1, 309038, Note_off_c, 1, 77, 0
1, 309039, Note_on_c, 1, 53, 127
1, 309039, Note_on_c, 1, 68, 127
1, 309217, Note_off_c, 1, 53, 0
1, 309219, Note_on_c, 1, 50, 127
1, 309397, Note_off_c, 1, 50, 0
1, 309399, Note_on_c, 1, 46, 127
1, 309755, Note_off_c, 1, 68, 0
1, 309757, Note_on_c, 1, 67, 127
1, 309935, Note_off_c, 1, 67, 0
1, 309937, Note_on_c, 1, 65, 127
1, 310115, Note_off_c, 1, 46, 0
1, 310115, Note_off_c, 1, 65, 0
1, 310117, Note_on_c, 1, 67, 127
1, 310295, Note_off_c, 1, 67, 0
1, 310296, Note_on_c, 1, 63, 127
1, 310474, Note_off_c, 1, 63, 0
1, 310476, Note_on_c, 1, 58, 127
1, 310476, Note_on_c, 1, 55, 127
1, 310654, Note_off_c, 1, 58, 0
1, 310654, Note_off_c, 1, 55, 0
1, 310656, Note_on_c, 1, 63, 127
1, 310656, Note_on_c, 1, 51, 127
1, 310834, Note_off_c, 1, 63, 0
1, 310834, Note_off_c, 1, 51, 0
1, 310836, Note_on_c, 1, 67, 127
1, 310836, Note_on_c, 1, 46, 127
1, 311014, Note_off_c, 1, 67, 0
1, 311016, Note_on_c, 1, 63, 127
1, 311194, Note_off_c, 1, 63, 0
1, 311375, Note_on_c, 1, 70, 127
1, 311553, Note_off_c, 1, 46, 0
1, 311553, Note_off_c, 1, 70, 0
1, 311555, Note_on_c, 1, 68, 127
1, 311733, Note_off_c, 1, 68, 0
1, 311735, Note_on_c, 1, 65, 127
1, 311913, Note_off_c, 1, 65, 0
1, 311915, Note_on_c, 1, 62, 127
1, 311915, Note_on_c, 1, 53, 127
1, 312093, Note_off_c, 1, 62, 0
1, 312093, Note_off_c, 1, 53, 0
1, 312094, Note_on_c, 1, 65, 127
1, 312094, Note_on_c, 1, 50, 127
1, 312272, Note_off_c, 1, 65, 0
1, 312272, Note_off_c, 1, 50, 0
1, 312274, Note_on_c, 1, 68, 127
1, 312274, Note_on_c, 1, 46, 127
1, 312452, Note_off_c, 1, 68, 0
1, 312454, Note_on_c, 1, 65, 127
1, 312632, Note_off_c, 1, 65, 0
1, 312814, Note_on_c, 1, 72, 127
1, 312991, Note_off_c, 1, 46, 0
1, 312992, Note_off_c, 1, 72, 0
1, 312993, Note_on_c, 1, 70, 127
1, 313171, Note_off_c, 1, 70, 0
1, 313173, Note_on_c, 1, 67, 127
1, 313351, Note_off_c, 1, 67, 0
1, 313353, Note_on_c, 1, 63, 127
1, 313353, Note_on_c, 1, 46, 127
1, 313531, Note_off_c, 1, 63, 0
1, 313531, Note_off_c, 1, 46, 0
1, 313533, Note_on_c, 1, 67, 127
1, 313533, Note_on_c, 1, 51, 127
1, 313711, Note_off_c, 1, 67, 0
1, 313711, Note_off_c, 1, 51, 0
1, 313713, Note_on_c, 1, 70, 127
1, 313713, Note_on_c, 1, 55, 127
1, 313891, Note_off_c, 1, 70, 0
1, 313892, Note_on_c, 1, 67, 127
1, 314070, Note_off_c, 1, 67, 0
1, 314071, Note_off_c, 1, 55, 0
1, 314072, Note_on_c, 1, 70, 127
1, 314072, Note_on_c, 1, 51, 127
1, 314250, Note_off_c, 1, 70, 0
1, 314250, Note_off_c, 1, 51, 0
1, 314252, Note_on_c, 1, 75, 127
1, 314252, Note_on_c, 1, 55, 127
1, 314430, Note_off_c, 1, 75, 0
1, 314430, Note_off_c, 1, 55, 0
1, 314432, Note_on_c, 1, 74, 127
1, 314432, Note_on_c, 1, 58, 127
1, 314610, Note_off_c, 1, 74, 0
1, 314612, Note_on_c, 1, 68, 127
1, 314790, Note_off_c, 1, 58, 0
1, 314790, Note_off_c, 1, 68, 0
1, 314791, Note_on_c, 1, 65, 127
1, 314791, Note_on_c, 1, 56, 127
1, 314969, Note_off_c, 1, 65, 0
1, 314971, Note_on_c, 1, 68, 127
1, 315149, Note_off_c, 1, 56, 0
1, 315149, Note_off_c, 1, 68, 0
1, 315151, Note_on_c, 1, 74, 127
1, 315151, Note_on_c, 1, 55, 127
1, 315329, Note_off_c, 1, 74, 0
1, 315331, Note_on_c, 1, 68, 127
1, 315509, Note_off_c, 1, 55, 0
1, 315509, Note_off_c, 1, 68, 0
1, 315511, Note_on_c, 1, 74, 127
1, 315511, Note_on_c, 1, 53, 127
1, 315689, Note_off_c, 1, 74, 0
1, 315690, Note_on_c, 1, 77, 127
1, 315868, Note_off_c, 1, 77, 0
1, 315869, Note_off_c, 1, 53, 0
1, 315870, Note_on_c, 1, 56, 127
1, 315870, Note_on_c, 1, 75, 127
1, 316056, Note_off_c, 1, 56, 0
1, 316058, Note_on_c, 1, 55, 127
1, 316243, Note_off_c, 1, 75, 0
1, 316244, Note_off_c, 1, 55, 0
1, 316245, Note_on_c, 1, 53, 127
1, 316245, Note_on_c, 1, 70, 127
1, 316431, Note_off_c, 1, 53, 0
1, 316433, Note_on_c, 1, 51, 127
1, 316618, Note_off_c, 1, 70, 0
1, 316619, Note_off_c, 1, 51, 0
1, 316620, Note_on_c, 1, 68, 127
1, 316620, Note_on_c, 1, 58, 127
1, 316806, Note_off_c, 1, 68, 0
1, 316808, Note_on_c, 1, 67, 127
1, 316993, Note_off_c, 1, 58, 0
1, 316994, Note_off_c, 1, 67, 0
1, 316996, Note_on_c, 1, 65, 127
1, 316996, Note_on_c, 1, 46, 127
1, 317182, Note_off_c, 1, 65, 0
1, 317183, Note_on_c, 1, 67, 127
1, 317369, Note_off_c, 1, 46, 0
1, 317369, Note_off_c, 1, 67, 0
1, 317371, Note_on_c, 1, 65, 127
1, 317371, Note_on_c, 1, 51, 127
1, 317812, Note_off_c, 1, 65, 0
1, 317812, Note_off_c, 1, 51, 0
1, 317814, Note_on_c, 1, 46, 127
1, 317814, Note_on_c, 1, 63, 127
1, 318034, Note_off_c, 1, 46, 0
1, 318036, Note_on_c, 1, 43, 127
1, 318256, Note_off_c, 1, 43, 0
1, 318257, Note_on_c, 1, 39, 127
1, 320909, Note_off_c, 1, 63, 0
1, 320909, Note_off_c, 1, 39, 0
1, 320911, Note_on_c, 1, 63, 127
1, 320911, Note_on_c, 1, 55, 127
1, 320911, Note_on_c, 1, 51, 127
1, 321272, Note_off_c, 1, 63, 0
1, 321272, Note_off_c, 1, 55, 0
1, 321274, Note_on_c, 1, 67, 127
1, 321274, Note_on_c, 1, 58, 127
1, 321363, Note_off_c, 1, 67, 0
1, 321365, Note_on_c, 1, 65, 127
1, 321454, Note_off_c, 1, 65, 0
1, 321636, Note_off_c, 1, 58, 0
1, 321638, Note_on_c, 1, 56, 127
1, 322364, Note_off_c, 1, 56, 0
1, 322366, Note_on_c, 1, 70, 127
1, 322727, Note_off_c, 1, 70, 0
1, 322729, Note_on_c, 1, 53, 127
1, 322820, Note_on_c, 1, 68, 127
1, 322909, Note_off_c, 1, 68, 0
1, 323457, Note_off_c, 1, 53, 0
1, 324003, Note_on_c, 1, 62, 127
1, 324182, Note_off_c, 1, 62, 0
1, 325091, Note_on_c, 1, 77, 127
1, 325264, Note_off_c, 1, 51, 0
1, 325270, Note_off_c, 1, 77, 0
1, 325273, Note_on_c, 1, 51, 127
1, 325273, Note_on_c, 1, 67, 127
1, 325452, Note_off_c, 1, 51, 0
1, 325454, Note_on_c, 1, 58, 127
1, 325633, Note_off_c, 1, 58, 0
1, 325635, Note_on_c, 1, 63, 127
1, 325635, Note_on_c, 1, 72, 127
1, 325814, Note_off_c, 1, 63, 0
1, 325817, Note_on_c, 1, 60, 127
1, 325996, Note_off_c, 1, 72, 0
1, 325996, Note_off_c, 1, 60, 0
1, 325998, Note_on_c, 1, 62, 127
1, 326089, Note_on_c, 1, 70, 127
1, 326178, Note_off_c, 1, 70, 0
1, 326179, Note_off_c, 1, 62, 0
1, 326361, Note_off_c, 1, 67, 0
1, 326364, Note_on_c, 1, 60, 127
1, 326364, Note_on_c, 1, 69, 127
1, 326543, Note_off_c, 1, 60, 0
1, 326545, Note_on_c, 1, 57, 127
1, 326724, Note_off_c, 1, 57, 0
1, 326726, Note_on_c, 1, 58, 127
1, 326726, Note_on_c, 1, 79, 127
1, 326905, Note_off_c, 1, 58, 0
1, 326908, Note_on_c, 1, 55, 127
1, 327087, Note_off_c, 1, 79, 0
1, 327087, Note_off_c, 1, 55, 0
1, 327181, Note_on_c, 1, 77, 127
1, 327270, Note_off_c, 1, 77, 0
1, 327272, Note_on_c, 1, 53, 127
1, 327452, Note_off_c, 1, 69, 0
1, 327453, Note_off_c, 1, 53, 0
1, 327455, Note_on_c, 1, 50, 127
1, 327455, Note_on_c, 1, 65, 127
1, 327634, Note_off_c, 1, 50, 0
1, 327636, Note_on_c, 1, 75, 127
1, 327636, Note_on_c, 1, 55, 127
1, 327815, Note_off_c, 1, 75, 0
1, 327815, Note_off_c, 1, 55, 0
1, 327818, Note_on_c, 1, 74, 127
1, 327818, Note_on_c, 1, 53, 127
1, 327997, Note_off_c, 1, 74, 0
1, 327999, Note_on_c, 1, 70, 127
1, 328178, Note_off_c, 1, 70, 0
1, 328179, Note_off_c, 1, 53, 0
1, 328180, Note_on_c, 1, 72, 127
1, 328180, Note_on_c, 1, 41, 127
1, 328359, Note_off_c, 1, 72, 0
1, 328362, Note_on_c, 1, 69, 127
1, 328541, Note_off_c, 1, 65, 0
1, 328542, Note_off_c, 1, 41, 0
1, 328543, Note_off_c, 1, 69, 0
1, 328545, Note_on_c, 1, 69, 127
1, 328545, Note_on_c, 1, 46, 127
1, 328724, Note_off_c, 1, 69, 0
1, 328726, Note_on_c, 1, 70, 127
1, 328726, Note_on_c, 1, 65, 127
1, 328815, Note_off_c, 1, 70, 0
1, 328907, Note_off_c, 1, 65, 0
1, 328909, Note_on_c, 1, 62, 127
1, 329089, Note_off_c, 1, 46, 0
1, 329090, Note_on_c, 1, 58, 127
1, 329269, Note_off_c, 1, 58, 0
1, 329272, Note_on_c, 1, 53, 127
1, 329451, Note_off_c, 1, 53, 0
1, 329453, Note_on_c, 1, 50, 127
1, 329632, Note_off_c, 1, 62, 0
1, 329632, Note_off_c, 1, 50, 0
1, 329634, Note_on_c, 1, 46, 127
1, 329634, Note_on_c, 1, 65, 127
1, 329813, Note_off_c, 1, 46, 0
1, 329816, Note_on_c, 1, 53, 127
1, 329995, Note_off_c, 1, 53, 0
1, 329997, Note_on_c, 1, 74, 127
1, 329997, Note_on_c, 1, 58, 127
1, 330086, Note_off_c, 1, 74, 0
1, 330088, Note_on_c, 1, 72, 127
1, 330177, Note_off_c, 1, 72, 0
1, 330178, Note_off_c, 1, 58, 0
1, 330180, Note_on_c, 1, 55, 127
1, 330359, Note_off_c, 1, 55, 0
1, 330361, Note_on_c, 1, 56, 127
1, 330542, Note_off_c, 1, 56, 0
1, 330723, Note_off_c, 1, 65, 0
1, 330727, Note_on_c, 1, 55, 127
1, 330727, Note_on_c, 1, 71, 127
1, 330906, Note_off_c, 1, 55, 0
1, 330908, Note_on_c, 1, 51, 127
1, 331087, Note_off_c, 1, 51, 0
1, 331090, Note_on_c, 1, 53, 127
1, 331090, Note_on_c, 1, 80, 127
1, 331269, Note_off_c, 1, 53, 0
1, 331271, Note_on_c, 1, 50, 127
1, 331450, Note_off_c, 1, 50, 0
1, 331451, Note_off_c, 1, 80, 0
1, 331544, Note_on_c, 1, 79, 127
1, 331633, Note_off_c, 1, 79, 0
1, 331635, Note_on_c, 1, 48, 127
1, 331815, Note_off_c, 1, 71, 0
1, 331816, Note_off_c, 1, 48, 0
1, 331818, Note_on_c, 1, 47, 127
1, 331818, Note_on_c, 1, 67, 127
1, 332000, Note_on_c, 1, 77, 127
1, 332179, Note_off_c, 1, 47, 0
1, 332179, Note_off_c, 1, 77, 0
1, 332181, Note_on_c, 1, 75, 127
1, 332181, Note_on_c, 1, 48, 127
1, 332360, Note_off_c, 1, 75, 0
1, 332362, Note_on_c, 1, 72, 127
1, 332541, Note_off_c, 1, 72, 0
1, 332542, Note_off_c, 1, 48, 0
1, 332544, Note_on_c, 1, 74, 127
1, 332544, Note_on_c, 1, 53, 127
1, 332723, Note_off_c, 1, 74, 0
1, 332904, Note_off_c, 1, 67, 0
1, 332906, Note_off_c, 1, 53, 0
1, 332908, Note_on_c, 1, 72, 127
1, 332908, Note_on_c, 1, 55, 127
1, 333087, Note_off_c, 1, 72, 0
1, 333089, Note_on_c, 1, 69, 127
1, 333268, Note_off_c, 1, 69, 0
1, 333271, Note_on_c, 1, 71, 127
1, 333360, Note_off_c, 1, 71, 0
1, 333452, Note_off_c, 1, 55, 0
1, 333453, Note_on_c, 1, 71, 127
1, 333453, Note_on_c, 1, 53, 127
1, 333542, Note_off_c, 1, 71, 0
1, 333545, Note_on_c, 1, 74, 127
1, 333634, Note_off_c, 1, 53, 0
1, 333634, Note_off_c, 1, 74, 0
1, 333636, Note_on_c, 1, 67, 127
1, 333636, Note_on_c, 1, 51, 127
1, 333815, Note_off_c, 1, 67, 0
1, 333815, Note_off_c, 1, 51, 0
1, 333818, Note_on_c, 1, 65, 127
1, 333818, Note_on_c, 1, 50, 127
1, 333997, Note_off_c, 1, 65, 0
1, 333997, Note_off_c, 1, 50, 0
1, 333999, Note_on_c, 1, 48, 127
1, 333999, Note_on_c, 1, 64, 127
1, 334178, Note_off_c, 1, 48, 0
1, 334180, Note_on_c, 1, 52, 127
1, 334359, Note_off_c, 1, 52, 0
1, 334362, Note_on_c, 1, 73, 127
1, 334362, Note_on_c, 1, 55, 127
1, 334451, Note_off_c, 1, 73, 0
1, 334453, Note_on_c, 1, 72, 127
1, 334542, Note_off_c, 1, 72, 0
1, 334543, Note_off_c, 1, 55, 0
1, 334545, Note_on_c, 1, 58, 127
1, 334724, Note_off_c, 1, 58, 0
1, 334726, Note_on_c, 1, 56, 127
1, 334907, Note_off_c, 1, 56, 0
1, 334909, Note_on_c, 1, 53, 127
1, 335090, Note_off_c, 1, 53, 0
1, 335092, Note_on_c, 1, 70, 127
1, 335271, Note_off_c, 1, 70, 0
1, 335273, Note_on_c, 1, 67, 127
1, 335452, Note_off_c, 1, 67, 0
1, 335454, Note_on_c, 1, 68, 127
1, 335633, Note_off_c, 1, 68, 0
1, 335636, Note_on_c, 1, 65, 127
1, 335810, Note_off_c, 1, 64, 0
1, 335815, Note_off_c, 1, 65, 0
1, 335817, Note_on_c, 1, 60, 127
1, 335817, Note_on_c, 1, 56, 127
1, 335996, Note_off_c, 1, 60, 0
1, 335999, Note_on_c, 1, 63, 127
1, 336178, Note_off_c, 1, 56, 0
1, 336178, Note_off_c, 1, 63, 0
1, 336180, Note_on_c, 1, 46, 127
1, 336180, Note_on_c, 1, 62, 127
1, 336359, Note_off_c, 1, 46, 0
1, 336361, Note_on_c, 1, 50, 127
1, 336540, Note_off_c, 1, 50, 0
1, 336543, Note_on_c, 1, 53, 127
1, 336543, Note_on_c, 1, 72, 127
1, 336722, Note_off_c, 1, 53, 0
1, 336724, Note_on_c, 1, 56, 127
1, 336903, Note_off_c, 1, 56, 0
1, 336904, Note_off_c, 1, 72, 0
1, 336905, Note_on_c, 1, 55, 127
1, 336997, Note_on_c, 1, 70, 127
1, 337086, Note_off_c, 1, 55, 0
1, 337086, Note_off_c, 1, 70, 0
1, 337088, Note_on_c, 1, 51, 127
1, 337269, Note_off_c, 1, 51, 0
1, 337271, Note_on_c, 1, 68, 127
1, 337450, Note_off_c, 1, 68, 0
1, 337452, Note_on_c, 1, 65, 127
1, 337631, Note_off_c, 1, 65, 0
1, 337634, Note_on_c, 1, 67, 127
1, 337813, Note_off_c, 1, 67, 0
1, 337815, Note_on_c, 1, 63, 127
1, 337990, Note_off_c, 1, 62, 0
1, 337994, Note_off_c, 1, 63, 0
1, 337996, Note_on_c, 1, 58, 127
1, 337996, Note_on_c, 1, 55, 127
1, 338175, Note_off_c, 1, 58, 0
1, 338178, Note_on_c, 1, 61, 127
1, 338357, Note_off_c, 1, 55, 0
1, 338357, Note_off_c, 1, 61, 0
1, 338359, Note_on_c, 1, 44, 127
1, 338359, Note_on_c, 1, 60, 127
1, 338538, Note_off_c, 1, 44, 0
1, 338541, Note_on_c, 1, 51, 127
1, 338720, Note_off_c, 1, 51, 0
1, 338722, Note_on_c, 1, 65, 127
1, 338722, Note_on_c, 1, 56, 127
1, 338811, Note_off_c, 1, 65, 0
1, 338813, Note_on_c, 1, 63, 127
1, 338902, Note_off_c, 1, 63, 0
1, 338903, Note_off_c, 1, 56, 0
1, 338905, Note_on_c, 1, 53, 127
1, 339084, Note_off_c, 1, 53, 0
1, 339086, Note_on_c, 1, 55, 127
1, 339267, Note_off_c, 1, 55, 0
1, 339448, Note_off_c, 1, 60, 0
1, 339452, Note_on_c, 1, 53, 127
1, 339452, Note_on_c, 1, 62, 127
1, 339631, Note_off_c, 1, 53, 0
1, 339633, Note_on_c, 1, 50, 127
1, 339812, Note_off_c, 1, 50, 0
1, 339815, Note_on_c, 1, 51, 127
1, 339815, Note_on_c, 1, 72, 127
1, 339994, Note_off_c, 1, 51, 0
1, 339996, Note_on_c, 1, 48, 127
1, 340175, Note_off_c, 1, 48, 0
1, 340176, Note_off_c, 1, 72, 0
1, 340269, Note_on_c, 1, 70, 127
1, 340358, Note_off_c, 1, 70, 0
1, 340360, Note_on_c, 1, 46, 127
1, 340540, Note_off_c, 1, 62, 0
1, 340541, Note_off_c, 1, 46, 0
1, 340543, Note_on_c, 1, 43, 127
1, 340543, Note_on_c, 1, 58, 127
1, 340722, Note_off_c, 1, 43, 0
1, 340724, Note_on_c, 1, 68, 127
1, 340724, Note_on_c, 1, 48, 127
1, 340903, Note_off_c, 1, 68, 0
1, 340903, Note_off_c, 1, 48, 0
1, 340906, Note_on_c, 1, 67, 127
1, 340906, Note_on_c, 1, 46, 127
1, 341085, Note_off_c, 1, 67, 0
1, 341087, Note_on_c, 1, 63, 127
1, 341266, Note_off_c, 1, 58, 0
1, 341266, Note_off_c, 1, 63, 0
1, 341267, Note_off_c, 1, 46, 0
1, 341269, Note_on_c, 1, 65, 127
1, 341269, Note_on_c, 1, 58, 127
1, 341448, Note_off_c, 1, 65, 0
1, 341450, Note_on_c, 1, 62, 127
1, 341629, Note_off_c, 1, 62, 0
1, 341630, Note_off_c, 1, 58, 0
1, 341631, Note_on_c, 1, 62, 127
1, 341631, Note_on_c, 1, 51, 127
1, 341810, Note_off_c, 1, 62, 0
1, 341813, Note_on_c, 1, 63, 127
1, 341902, Note_off_c, 1, 63, 0
1, 341993, Note_off_c, 1, 51, 0
1, 341995, Note_on_c, 1, 63, 127
1, 341995, Note_on_c, 1, 46, 127
1, 342356, Note_off_c, 1, 63, 0
1, 342356, Note_off_c, 1, 46, 0
1, 342358, Note_on_c, 1, 70, 127
1, 342358, Note_on_c, 1, 66, 127
1, 342358, Note_on_c, 1, 39, 127
1, 342719, Note_off_c, 1, 70, 0
1, 342719, Note_off_c, 1, 66, 0
1, 342719, Note_off_c, 1, 39, 0
1, 342721, Note_on_c, 1, 51, 127
1, 342721, Note_on_c, 1, 78, 127
1, 342721, Note_on_c, 1, 70, 127
1, 342900, Note_off_c, 1, 51, 0
1, 342902, Note_on_c, 1, 50, 127
1, 343081, Note_off_c, 1, 50, 0
1, 343265, Note_on_c, 1, 53, 127
1, 343444, Note_off_c, 1, 78, 0
1, 343444, Note_off_c, 1, 70, 0
1, 343444, Note_off_c, 1, 53, 0
1, 343446, Note_on_c, 1, 51, 127
1, 343446, Note_on_c, 1, 66, 127
1, 343446, Note_on_c, 1, 70, 127
1, 343625, Note_off_c, 1, 51, 0
1, 343628, Note_on_c, 1, 53, 127
1, 343807, Note_off_c, 1, 66, 0
1, 343807, Note_off_c, 1, 70, 0
1, 343807, Note_off_c, 1, 53, 0
1, 343809, Note_on_c, 1, 71, 127
1, 343809, Note_on_c, 1, 51, 127
1, 343809, Note_on_c, 1, 68, 127
1, 343988, Note_off_c, 1, 71, 0
1, 343988, Note_off_c, 1, 51, 0
1, 343990, Note_on_c, 1, 70, 127
1, 343990, Note_on_c, 1, 50, 127
1, 344169, Note_off_c, 1, 70, 0
1, 344169, Note_off_c, 1, 50, 0
1, 344353, Note_on_c, 1, 53, 127
1, 344532, Note_off_c, 1, 68, 0
1, 344532, Note_off_c, 1, 53, 0
1, 344534, Note_on_c, 1, 51, 127
1, 344534, Note_on_c, 1, 68, 127
1, 344534, Note_on_c, 1, 65, 127
1, 344713, Note_off_c, 1, 51, 0
1, 344716, Note_on_c, 1, 53, 127
1, 344895, Note_off_c, 1, 68, 0
1, 344895, Note_off_c, 1, 65, 0
1, 344895, Note_off_c, 1, 53, 0
1, 344897, Note_on_c, 1, 50, 127
1, 344897, Note_on_c, 1, 77, 127
1, 344897, Note_on_c, 1, 68, 127
1, 345076, Note_off_c, 1, 50, 0
1, 345078, Note_on_c, 1, 48, 127
1, 345257, Note_off_c, 1, 48, 0
1, 345441, Note_on_c, 1, 51, 127
1, 345620, Note_off_c, 1, 77, 0
1, 345620, Note_off_c, 1, 68, 0
1, 345620, Note_off_c, 1, 51, 0
1, 345622, Note_on_c, 1, 48, 127
1, 345622, Note_on_c, 1, 68, 127
1, 345622, Note_on_c, 1, 65, 127
1, 345801, Note_off_c, 1, 48, 0
1, 345804, Note_on_c, 1, 50, 127
1, 345983, Note_off_c, 1, 68, 0
1, 345983, Note_off_c, 1, 65, 0
1, 345983, Note_off_c, 1, 50, 0
1, 345985, Note_on_c, 1, 66, 127
1, 345985, Note_on_c, 1, 51, 127
1, 345985, Note_on_c, 1, 63, 127
1, 346164, Note_off_c, 1, 66, 0
1, 346164, Note_off_c, 1, 51, 0
1, 346167, Note_on_c, 1, 65, 127
1, 346167, Note_on_c, 1, 50, 127
1, 346346, Note_off_c, 1, 65, 0
1, 346346, Note_off_c, 1, 50, 0
1, 346529, Note_on_c, 1, 53, 127
1, 346708, Note_off_c, 1, 63, 0
1, 346708, Note_off_c, 1, 53, 0
1, 346711, Note_on_c, 1, 51, 127
1, 346711, Note_on_c, 1, 70, 127
1, 346711, Note_on_c, 1, 66, 127
1, 346890, Note_off_c, 1, 51, 0
1, 346892, Note_on_c, 1, 53, 127
1, 347071, Note_off_c, 1, 53, 0
1, 347072, Note_off_c, 1, 70, 0
1, 347072, Note_off_c, 1, 66, 0
1, 347073, Note_on_c, 1, 55, 127
1, 347073, Note_on_c, 1, 76, 127
1, 347073, Note_on_c, 1, 70, 127
1, 347252, Note_off_c, 1, 55, 0
1, 347255, Note_on_c, 1, 53, 127
1, 347434, Note_off_c, 1, 76, 0
1, 347434, Note_off_c, 1, 53, 0
1, 347436, Note_on_c, 1, 75, 127
1, 347617, Note_on_c, 1, 56, 127
1, 347796, Note_off_c, 1, 56, 0
1, 347797, Note_off_c, 1, 75, 0
1, 347799, Note_on_c, 1, 73, 127
1, 348159, Note_off_c, 1, 70, 0
1, 348161, Note_off_c, 1, 73, 0
1, 348163, Note_on_c, 1, 56, 127
1, 348163, Note_on_c, 1, 71, 127
1, 348163, Note_on_c, 1, 68, 127
1, 348342, Note_off_c, 1, 56, 0
1, 348344, Note_on_c, 1, 55, 127
1, 348523, Note_off_c, 1, 55, 0
1, 348524, Note_off_c, 1, 71, 0
1, 348524, Note_off_c, 1, 68, 0
1, 348526, Note_on_c, 1, 56, 127
1, 348526, Note_on_c, 1, 66, 127
1, 348526, Note_on_c, 1, 70, 127
1, 348705, Note_off_c, 1, 56, 0
1, 348707, Note_on_c, 1, 58, 127
1, 348886, Note_off_c, 1, 58, 0
1, 348887, Note_off_c, 1, 66, 0
1, 348887, Note_off_c, 1, 70, 0
1, 348888, Note_on_c, 1, 60, 127
1, 348888, Note_on_c, 1, 65, 127
1, 348888, Note_on_c, 1, 68, 127
1, 349067, Note_off_c, 1, 60, 0
1, 349070, Note_on_c, 1, 62, 127
1, 349249, Note_off_c, 1, 65, 0
1, 349249, Note_off_c, 1, 68, 0
1, 349249, Note_off_c, 1, 62, 0
1, 349251, Note_on_c, 1, 66, 127
1, 349251, Note_on_c, 1, 63, 127
1, 349612, Note_off_c, 1, 66, 0
1, 349614, Note_on_c, 1, 68, 127
1, 349614, Note_on_c, 1, 61, 127
1, 349793, Note_off_c, 1, 68, 0
1, 349975, Note_off_c, 1, 61, 0
1, 349976, Note_on_c, 1, 65, 127
1, 349976, Note_on_c, 1, 59, 127
1, 350151, Note_off_c, 1, 63, 0
1, 350155, Note_off_c, 1, 65, 0
1, 350337, Note_off_c, 1, 59, 0
1, 350339, Note_on_c, 1, 58, 127
1, 350339, Note_on_c, 1, 62, 127
1, 350339, Note_on_c, 1, 70, 127
1, 350700, Note_off_c, 1, 58, 0
1, 350702, Note_on_c, 1, 46, 127
1, 351062, Note_off_c, 1, 62, 0
1, 351062, Note_off_c, 1, 70, 0
1, 351063, Note_off_c, 1, 46, 0
1, 351065, Note_on_c, 1, 77, 127
1, 351065, Note_on_c, 1, 74, 127
1, 351065, Note_on_c, 1, 58, 127
1, 351426, Note_off_c, 1, 77, 0
1, 351426, Note_off_c, 1, 74, 0
1, 351426, Note_off_c, 1, 58, 0
1, 351427, Note_on_c, 1, 50, 127
1, 351427, Note_on_c, 1, 80, 127
1, 351427, Note_on_c, 1, 77, 127
1, 351606, Note_off_c, 1, 50, 0
1, 351609, Note_on_c, 1, 48, 127
1, 351788, Note_off_c, 1, 48, 0
1, 351971, Note_on_c, 1, 51, 127
1, 352150, Note_off_c, 1, 80, 0
1, 352150, Note_off_c, 1, 77, 0
1, 352150, Note_off_c, 1, 51, 0
1, 352153, Note_on_c, 1, 48, 127
1, 352153, Note_on_c, 1, 77, 127
1, 352153, Note_on_c, 1, 70, 127
1, 352332, Note_off_c, 1, 48, 0
1, 352334, Note_on_c, 1, 50, 127
1, 352513, Note_off_c, 1, 50, 0
1, 352514, Note_off_c, 1, 77, 0
1, 352514, Note_off_c, 1, 70, 0
1, 352515, Note_on_c, 1, 78, 127
1, 352515, Note_on_c, 1, 51, 127
1, 352515, Note_on_c, 1, 75, 127
1, 352694, Note_off_c, 1, 78, 0
1, 352694, Note_off_c, 1, 51, 0
1, 352697, Note_on_c, 1, 77, 127
1, 352697, Note_on_c, 1, 50, 127
1, 352876, Note_off_c, 1, 77, 0
1, 352876, Note_off_c, 1, 50, 0
1, 353059, Note_on_c, 1, 53, 127
1, 353238, Note_off_c, 1, 75, 0
1, 353238, Note_off_c, 1, 53, 0
1, 353241, Note_on_c, 1, 51, 127
1, 353241, Note_on_c, 1, 82, 127
1, 353241, Note_on_c, 1, 73, 127
1, 353420, Note_off_c, 1, 51, 0
1, 353422, Note_on_c, 1, 53, 127
1, 353601, Note_off_c, 1, 53, 0
1, 353602, Note_off_c, 1, 82, 0
1, 353602, Note_off_c, 1, 73, 0
1, 353603, Note_on_c, 1, 55, 127
1, 353603, Note_on_c, 1, 73, 127
1, 353603, Note_on_c, 1, 70, 127
1, 353782, Note_off_c, 1, 55, 0
1, 353785, Note_on_c, 1, 53, 127
1, 353964, Note_off_c, 1, 73, 0
1, 353964, Note_off_c, 1, 53, 0
1, 353966, Note_on_c, 1, 75, 127
1, 354145, Note_off_c, 1, 75, 0
1, 354147, Note_on_c, 1, 56, 127
1, 354326, Note_off_c, 1, 56, 0
1, 354329, Note_on_c, 1, 71, 127
1, 354505, Note_off_c, 1, 70, 0
1, 354508, Note_off_c, 1, 71, 0
1, 354510, Note_on_c, 1, 70, 127
1, 354510, Note_on_c, 1, 55, 127
1, 354689, Note_off_c, 1, 70, 0
1, 354689, Note_off_c, 1, 55, 0
1, 354692, Note_on_c, 1, 73, 127
1, 354692, Note_on_c, 1, 56, 127
1, 354692, Note_on_c, 1, 68, 127
1, 354871, Note_off_c, 1, 73, 0
1, 354873, Note_on_c, 1, 71, 127
1, 355052, Note_off_c, 1, 71, 0
1, 355053, Note_off_c, 1, 56, 0
1, 355054, Note_on_c, 1, 70, 127
1, 355054, Note_on_c, 1, 44, 127
1, 355233, Note_off_c, 1, 70, 0
1, 355233, Note_off_c, 1, 44, 0
1, 355234, Note_off_c, 1, 68, 0
1, 355236, Note_on_c, 1, 68, 127
1, 355236, Note_on_c, 1, 54, 127
1, 355415, Note_off_c, 1, 68, 0
1, 355415, Note_off_c, 1, 54, 0
1, 355417, Note_on_c, 1, 53, 127
1, 355417, Note_on_c, 1, 68, 127
1, 355417, Note_on_c, 1, 71, 127
1, 355596, Note_off_c, 1, 53, 0
1, 355598, Note_on_c, 1, 51, 127
1, 355777, Note_off_c, 1, 51, 0
1, 355778, Note_off_c, 1, 68, 0
1, 355778, Note_off_c, 1, 71, 0
1, 355780, Note_on_c, 1, 50, 127
1, 355780, Note_on_c, 1, 71, 127
1, 355780, Note_on_c, 1, 68, 127
1, 355959, Note_off_c, 1, 50, 0
1, 355961, Note_on_c, 1, 48, 127
1, 356140, Note_off_c, 1, 48, 0
1, 356324, Note_on_c, 1, 51, 127
1, 356503, Note_off_c, 1, 71, 0
1, 356503, Note_off_c, 1, 68, 0
1, 356503, Note_off_c, 1, 51, 0
1, 356505, Note_on_c, 1, 53, 127
1, 356505, Note_on_c, 1, 70, 127
1, 356505, Note_on_c, 1, 66, 127
1, 356684, Note_off_c, 1, 53, 0
1, 356686, Note_on_c, 1, 54, 127
1, 356865, Note_off_c, 1, 54, 0
1, 356866, Note_off_c, 1, 70, 0
1, 356866, Note_off_c, 1, 66, 0
1, 356868, Note_on_c, 1, 56, 127
1, 356868, Note_on_c, 1, 65, 127
1, 356868, Note_on_c, 1, 74, 127
1, 357047, Note_off_c, 1, 56, 0
1, 357049, Note_on_c, 1, 59, 127
1, 357228, Note_off_c, 1, 59, 0
1, 357230, Note_on_c, 1, 58, 127
1, 357409, Note_off_c, 1, 58, 0
1, 357591, Note_off_c, 1, 65, 0
1, 357591, Note_off_c, 1, 74, 0
1, 357593, Note_on_c, 1, 54, 127
1, 357593, Note_on_c, 1, 75, 127
1, 357593, Note_on_c, 1, 66, 127
1, 357772, Note_off_c, 1, 54, 0
1, 357774, Note_on_c, 1, 53, 127
1, 357953, Note_off_c, 1, 53, 0
1, 357954, Note_off_c, 1, 75, 0
1, 357954, Note_off_c, 1, 66, 0
1, 357956, Note_on_c, 1, 51, 127
1, 357956, Note_on_c, 1, 77, 127
1, 357956, Note_on_c, 1, 70, 127
1, 358135, Note_off_c, 1, 51, 0
1, 358137, Note_on_c, 1, 50, 127
1, 358316, Note_off_c, 1, 50, 0
1, 358317, Note_off_c, 1, 77, 0
1, 358317, Note_off_c, 1, 70, 0
1, 358319, Note_on_c, 1, 78, 127
1, 358319, Note_on_c, 1, 51, 127
1, 358319, Note_on_c, 1, 75, 127
1, 358498, Note_off_c, 1, 78, 0
1, 358500, Note_on_c, 1, 77, 127
1, 358679, Note_off_c, 1, 77, 0
1, 358680, Note_off_c, 1, 51, 0
1, 358681, Note_on_c, 1, 39, 127
1, 358863, Note_on_c, 1, 80, 127
1, 359042, Note_off_c, 1, 75, 0
1, 359042, Note_off_c, 1, 39, 0
1, 359042, Note_off_c, 1, 80, 0
1, 359044, Note_on_c, 1, 46, 127
1, 359044, Note_on_c, 1, 74, 127
1, 359044, Note_on_c, 1, 77, 127
1, 359223, Note_off_c, 1, 46, 0
1, 359225, Note_on_c, 1, 45, 127
1, 359404, Note_off_c, 1, 45, 0
1, 359588, Note_on_c, 1, 48, 127
1, 359767, Note_off_c, 1, 74, 0
1, 359767, Note_off_c, 1, 77, 0
1, 359767, Note_off_c, 1, 48, 0
1, 359769, Note_on_c, 1, 50, 127
1, 359769, Note_on_c, 1, 70, 127
1, 359948, Note_off_c, 1, 50, 0
1, 359951, Note_on_c, 1, 46, 127
1, 360130, Note_off_c, 1, 70, 0
1, 360130, Note_off_c, 1, 46, 0
1, 360132, Note_on_c, 1, 51, 127
1, 360132, Note_on_c, 1, 78, 127
1, 360132, Note_on_c, 1, 70, 127
1, 360311, Note_off_c, 1, 51, 0
1, 360313, Note_on_c, 1, 50, 127
1, 360492, Note_off_c, 1, 50, 0
1, 360676, Note_on_c, 1, 53, 127
1, 360855, Note_off_c, 1, 78, 0
1, 360855, Note_off_c, 1, 70, 0
1, 360855, Note_off_c, 1, 53, 0
1, 360857, Note_on_c, 1, 51, 127
1, 360857, Note_on_c, 1, 70, 127
1, 360857, Note_on_c, 1, 66, 127
1, 361036, Note_off_c, 1, 51, 0
1, 361039, Note_on_c, 1, 53, 127
1, 361218, Note_off_c, 1, 70, 0
1, 361218, Note_off_c, 1, 66, 0
1, 361218, Note_off_c, 1, 53, 0
1, 361220, Note_on_c, 1, 71, 127
1, 361220, Note_on_c, 1, 51, 127
1, 361220, Note_on_c, 1, 68, 127
1, 361399, Note_off_c, 1, 71, 0
1, 361399, Note_off_c, 1, 51, 0
1, 361401, Note_on_c, 1, 70, 127
1, 361401, Note_on_c, 1, 50, 127
1, 361580, Note_off_c, 1, 70, 0
1, 361580, Note_off_c, 1, 50, 0
1, 361764, Note_on_c, 1, 53, 127
1, 361943, Note_off_c, 1, 68, 0
1, 361943, Note_off_c, 1, 53, 0
1, 361946, Note_on_c, 1, 51, 127
1, 361946, Note_on_c, 1, 68, 127
1, 361946, Note_on_c, 1, 65, 127
1, 362125, Note_off_c, 1, 51, 0
1, 362127, Note_on_c, 1, 53, 127
1, 362306, Note_off_c, 1, 53, 0
1, 362307, Note_off_c, 1, 68, 0
1, 362307, Note_off_c, 1, 65, 0
1, 362308, Note_on_c, 1, 50, 127
1, 362308, Note_on_c, 1, 77, 127
1, 362308, Note_on_c, 1, 68, 127
1, 362487, Note_off_c, 1, 50, 0
1, 362490, Note_on_c, 1, 48, 127
1, 362669, Note_off_c, 1, 48, 0
1, 362852, Note_on_c, 1, 51, 127
1, 363031, Note_off_c, 1, 77, 0
1, 363031, Note_off_c, 1, 68, 0
1, 363031, Note_off_c, 1, 51, 0
1, 363034, Note_on_c, 1, 48, 127
1, 363034, Note_on_c, 1, 68, 127
1, 363034, Note_on_c, 1, 65, 127
1, 363213, Note_off_c, 1, 48, 0
1, 363215, Note_on_c, 1, 50, 127
1, 363394, Note_off_c, 1, 50, 0
1, 363395, Note_off_c, 1, 68, 0
1, 363395, Note_off_c, 1, 65, 0
1, 363396, Note_on_c, 1, 66, 127
1, 363396, Note_on_c, 1, 51, 127
1, 363396, Note_on_c, 1, 63, 127
1, 363575, Note_off_c, 1, 66, 0
1, 363575, Note_off_c, 1, 51, 0
1, 363578, Note_on_c, 1, 65, 127
1, 363578, Note_on_c, 1, 50, 127
1, 363757, Note_off_c, 1, 65, 0
1, 363757, Note_off_c, 1, 50, 0
1, 363940, Note_on_c, 1, 53, 127
1, 364119, Note_off_c, 1, 63, 0
1, 364119, Note_off_c, 1, 53, 0
1, 364122, Note_on_c, 1, 51, 127
1, 364122, Note_on_c, 1, 70, 127
1, 364122, Note_on_c, 1, 66, 127
1, 364301, Note_off_c, 1, 51, 0
1, 364303, Note_on_c, 1, 53, 127
1, 364482, Note_off_c, 1, 53, 0
1, 364483, Note_off_c, 1, 70, 0
1, 364483, Note_off_c, 1, 66, 0
1, 364484, Note_on_c, 1, 55, 127
1, 364484, Note_on_c, 1, 76, 127
1, 364484, Note_on_c, 1, 70, 127
1, 364668, Note_off_c, 1, 55, 0
1, 364670, Note_on_c, 1, 53, 127
1, 364854, Note_off_c, 1, 76, 0
1, 364854, Note_off_c, 1, 53, 0
1, 364856, Note_on_c, 1, 75, 127
1, 365042, Note_on_c, 1, 56, 127
1, 365226, Note_off_c, 1, 75, 0
1, 365226, Note_off_c, 1, 56, 0
1, 365228, Note_on_c, 1, 73, 127
1, 365598, Note_off_c, 1, 70, 0
1, 365600, Note_off_c, 1, 73, 0
1, 365602, Note_on_c, 1, 56, 127
1, 365602, Note_on_c, 1, 68, 127
1, 365602, Note_on_c, 1, 71, 127
1, 365792, Note_off_c, 1, 56, 0
1, 365794, Note_on_c, 1, 55, 127
1, 365984, Note_off_c, 1, 68, 0
1, 365984, Note_off_c, 1, 71, 0
1, 365984, Note_off_c, 1, 55, 0
1, 365986, Note_on_c, 1, 56, 127
1, 365986, Note_on_c, 1, 66, 127
1, 365986, Note_on_c, 1, 70, 127
1, 366176, Note_off_c, 1, 56, 0
1, 366179, Note_on_c, 1, 58, 127
1, 366368, Note_off_c, 1, 66, 0
1, 366368, Note_off_c, 1, 70, 0
1, 366369, Note_off_c, 1, 58, 0
1, 366371, Note_on_c, 1, 59, 127
1, 366371, Note_on_c, 1, 65, 127
1, 366371, Note_on_c, 1, 68, 127
1, 366561, Note_off_c, 1, 59, 0
1, 366563, Note_on_c, 1, 53, 127
1, 366753, Note_off_c, 1, 65, 0
1, 366753, Note_off_c, 1, 68, 0
1, 366753, Note_off_c, 1, 53, 0
1, 366755, Note_on_c, 1, 54, 127
1, 366755, Note_on_c, 1, 70, 127
1, 366755, Note_on_c, 1, 63, 127
1, 366956, Note_off_c, 1, 54, 0
1, 366958, Note_on_c, 1, 56, 127
1, 367159, Note_off_c, 1, 70, 0
1, 367159, Note_off_c, 1, 56, 0
1, 367161, Note_on_c, 1, 68, 127
1, 367161, Note_on_c, 1, 58, 127
1, 367362, Note_off_c, 1, 68, 0
1, 367364, Note_on_c, 1, 66, 127
1, 367565, Note_off_c, 1, 63, 0
1, 367565, Note_off_c, 1, 58, 0
1, 367565, Note_off_c, 1, 66, 0
1, 367567, Note_on_c, 1, 65, 127
1, 367567, Note_on_c, 1, 62, 127
1, 367567, Note_on_c, 1, 46, 127
1, 367768, Note_off_c, 1, 65, 0
1, 367770, Note_on_c, 1, 66, 127
1, 367968, Note_off_c, 1, 62, 0
1, 367971, Note_off_c, 1, 46, 0
1, 367971, Note_off_c, 1, 66, 0
1, 367973, Note_on_c, 1, 51, 127
1, 367973, Note_on_c, 1, 63, 127
1, 368800, Note_on_c, 1, 39, 127
1, 369182, Note_off_c, 1, 51, 0
1, 371200, Note_off_c, 1, 63, 0
1, 371200, Note_off_c, 1, 39, 0
1, 371200, End_track
0, 0, End_of_file