0, 0, Header, 1, 1, 480
1, 0, Start_track
1, 0, Title_t, "Test"
1, 0, Tempo, 500000
1, 0, Instrument_name_t, "Church Organ"
1, 32, Note_on_c, 1, 52, 127
1, 209, Note_on_c, 1, 67, 127
1, 384, Note_off_c, 1, 52, 0
1, 384, Note_off_c, 1, 67, 0
1, 386, Note_on_c, 1, 69, 127
1, 386, Note_on_c, 1, 40, 127
1, 561, Note_off_c, 1, 69, 0
1, 564, Note_on_c, 1, 71, 127
1, 739, Note_off_c, 1, 71, 0
1, 741, Note_on_c, 1, 72, 127
1, 916, Note_off_c, 1, 72, 0
1, 1088, Note_off_c, 1, 40, 0
1, 1098, Note_on_c, 1, 71, 127
1, 1273, Note_off_c, 1, 71, 0
1, 1276, Note_on_c, 1, 67, 127
1, 1451, Note_off_c, 1, 67, 0
1, 1453, Note_on_c, 1, 66, 127
1, 1628, Note_off_c, 1, 66, 0
1, 1631, Note_on_c, 1, 64, 127
1, 1806, Note_off_c, 1, 64, 0
1, 1810, Note_on_c, 1, 63, 127
1, 1985, Note_off_c, 1, 63, 0
1, 1987, Note_on_c, 1, 69, 127
1, 2162, Note_off_c, 1, 69, 0
1, 2165, Note_on_c, 1, 67, 127
1, 2251, Note_off_c, 1, 67, 0
1, 2254, Note_on_c, 1, 66, 127
1, 2340, Note_off_c, 1, 66, 0
1, 2342, Note_on_c, 1, 55, 127
1, 2342, Note_on_c, 1, 64, 127
1, 2517, Note_off_c, 1, 55, 0
1, 2517, Note_off_c, 1, 64, 0
1, 2521, Note_on_c, 1, 57, 127
1, 2521, Note_on_c, 1, 76, 127
1, 2696, Note_off_c, 1, 57, 0
1, 2699, Note_on_c, 1, 59, 127
1, 2874, Note_off_c, 1, 59, 0
1, 2877, Note_on_c, 1, 60, 127
1, 3038, Note_off_c, 1, 76, 0
1, 3052, Note_off_c, 1, 60, 0
1, 3054, Note_on_c, 1, 57, 127
1, 3229, Note_off_c, 1, 57, 0
1, 3232, Note_on_c, 1, 75, 127
1, 3232, Note_on_c, 1, 59, 127
1, 3318, Note_off_c, 1, 75, 0
1, 3321, Note_on_c, 1, 73, 127
1, 3407, Note_off_c, 1, 59, 0
1, 3407, Note_off_c, 1, 73, 0
1, 3410, Note_on_c, 1, 55, 127
1, 3410, Note_on_c, 1, 71, 127
1, 3585, Note_off_c, 1, 55, 0
1, 3585, Note_off_c, 1, 71, 0
1, 3588, Note_on_c, 1, 54, 127
1, 3588, Note_on_c, 1, 81, 127
1, 3763, Note_off_c, 1, 54, 0
1, 3766, Note_on_c, 1, 52, 127
1, 3939, Note_off_c, 1, 81, 0
1, 3941, Note_off_c, 1, 52, 0
1, 3943, Note_on_c, 1, 51, 127
1, 4118, Note_off_c, 1, 51, 0
1, 4122, Note_on_c, 1, 57, 127
1, 4297, Note_off_c, 1, 57, 0
1, 4299, Note_on_c, 1, 55, 127
1, 4474, Note_off_c, 1, 55, 0
1, 4478, Note_on_c, 1, 52, 127
1, 4478, Note_on_c, 1, 67, 127
1, 4653, Note_off_c, 1, 52, 0
1, 4653, Note_off_c, 1, 67, 0
1, 4655, Note_on_c, 1, 54, 127
1, 4655, Note_on_c, 1, 69, 127
1, 4830, Note_off_c, 1, 54, 0
1, 4830, Note_off_c, 1, 69, 0
1, 4832, Note_on_c, 1, 55, 127
1, 4832, Note_on_c, 1, 71, 127
1, 5007, Note_off_c, 1, 55, 0
1, 5007, Note_off_c, 1, 71, 0
1, 5011, Note_on_c, 1, 57, 127
1, 5011, Note_on_c, 1, 72, 127
1, 5186, Note_off_c, 1, 57, 0
1, 5186, Note_off_c, 1, 72, 0
1, 5188, Note_on_c, 1, 54, 127
1, 5188, Note_on_c, 1, 69, 127
1, 5363, Note_off_c, 1, 54, 0
1, 5363, Note_off_c, 1, 69, 0
1, 5367, Note_on_c, 1, 71, 127
1, 5367, Note_on_c, 1, 55, 127
1, 5544, Note_on_c, 1, 67, 127
1, 5718, Note_off_c, 1, 71, 0
1, 5719, Note_off_c, 1, 55, 0
1, 5719, Note_off_c, 1, 67, 0
1, 5723, Note_on_c, 1, 66, 127
1, 5723, Note_on_c, 1, 57, 127
1, 5898, Note_off_c, 1, 66, 0
1, 5900, Note_on_c, 1, 64, 127
1, 6075, Note_off_c, 1, 57, 0
1, 6075, Note_off_c, 1, 64, 0
1, 6077, Note_on_c, 1, 63, 127
1, 6077, Note_on_c, 1, 59, 127
1, 6252, Note_off_c, 1, 63, 0
1, 6256, Note_on_c, 1, 69, 127
1, 6429, Note_off_c, 1, 59, 0
1, 6431, Note_off_c, 1, 69, 0
1, 6433, Note_on_c, 1, 67, 127
1, 6433, Note_on_c, 1, 52, 127
1, 6608, Note_off_c, 1, 67, 0
1, 6612, Note_on_c, 1, 71, 127
1, 6785, Note_off_c, 1, 52, 0
1, 6787, Note_off_c, 1, 71, 0
1, 6789, Note_on_c, 1, 72, 127
1, 6789, Note_on_c, 1, 50, 127
1, 6964, Note_off_c, 1, 72, 0
1, 6967, Note_on_c, 1, 74, 127
1, 7141, Note_off_c, 1, 50, 0
1, 7142, Note_off_c, 1, 74, 0
1, 7145, Note_on_c, 1, 76, 127
1, 7145, Note_on_c, 1, 48, 127
1, 7320, Note_off_c, 1, 76, 0
1, 7324, Note_on_c, 1, 72, 127
1, 7497, Note_off_c, 1, 48, 0
1, 7499, Note_off_c, 1, 72, 0
1, 7501, Note_on_c, 1, 74, 127
1, 7501, Note_on_c, 1, 47, 127
1, 7678, Note_on_c, 1, 71, 127
1, 7852, Note_off_c, 1, 74, 0
1, 7853, Note_off_c, 1, 47, 0
1, 7853, Note_off_c, 1, 71, 0
1, 7856, Note_on_c, 1, 69, 127
1, 7856, Note_on_c, 1, 48, 127
1, 8031, Note_off_c, 1, 69, 0
1, 8034, Note_on_c, 1, 67, 127
1, 8208, Note_off_c, 1, 48, 0
1, 8209, Note_off_c, 1, 67, 0
1, 8213, Note_on_c, 1, 66, 127
1, 8213, Note_on_c, 1, 50, 127
1, 8388, Note_off_c, 1, 66, 0
1, 8390, Note_on_c, 1, 72, 127
1, 8565, Note_off_c, 1, 50, 0
1, 8565, Note_off_c, 1, 72, 0
1, 8568, Note_on_c, 1, 71, 127
1, 8568, Note_on_c, 1, 43, 127
1, 8743, Note_off_c, 1, 71, 0
1, 8745, Note_on_c, 1, 74, 127
1, 8920, Note_off_c, 1, 43, 0
1, 8920, Note_off_c, 1, 74, 0
1, 8925, Note_on_c, 1, 76, 127
1, 8925, Note_on_c, 1, 42, 127
1, 9100, Note_off_c, 1, 76, 0
1, 9102, Note_on_c, 1, 78, 127
1, 9277, Note_off_c, 1, 42, 0
1, 9277, Note_off_c, 1, 78, 0
1, 9279, Note_on_c, 1, 79, 127
1, 9279, Note_on_c, 1, 40, 127
1, 9454, Note_off_c, 1, 79, 0
1, 9457, Note_on_c, 1, 76, 127
1, 9631, Note_off_c, 1, 40, 0
1, 9632, Note_off_c, 1, 76, 0
1, 9635, Note_on_c, 1, 78, 127
1, 9635, Note_on_c, 1, 38, 127
1, 9814, Note_on_c, 1, 74, 127
1, 9986, Note_off_c, 1, 78, 0
1, 9987, Note_off_c, 1, 38, 0
1, 9989, Note_off_c, 1, 74, 0
1, 9991, Note_on_c, 1, 73, 127
1, 9991, Note_on_c, 1, 40, 127
1, 10166, Note_off_c, 1, 73, 0
1, 10169, Note_on_c, 1, 71, 127
1, 10343, Note_off_c, 1, 40, 0
1, 10344, Note_off_c, 1, 71, 0
1, 10346, Note_on_c, 1, 70, 127
1, 10346, Note_on_c, 1, 42, 127
1, 10521, Note_off_c, 1, 70, 0
1, 10525, Note_on_c, 1, 76, 127
1, 10698, Note_off_c, 1, 42, 0
1, 10700, Note_off_c, 1, 76, 0
1, 10703, Note_on_c, 1, 47, 127
1, 10703, Note_on_c, 1, 74, 127
1, 10878, Note_off_c, 1, 47, 0
1, 10878, Note_off_c, 1, 74, 0
1, 10880, Note_on_c, 1, 50, 127
1, 10880, Note_on_c, 1, 78, 127
1, 11055, Note_off_c, 1, 50, 0
1, 11055, Note_off_c, 1, 78, 0
1, 11058, Note_on_c, 1, 52, 127
1, 11058, Note_on_c, 1, 76, 127
1, 11233, Note_off_c, 1, 52, 0
1, 11233, Note_off_c, 1, 76, 0
1, 11235, Note_on_c, 1, 54, 127
1, 11235, Note_on_c, 1, 74, 127
1, 11410, Note_off_c, 1, 54, 0
1, 11410, Note_off_c, 1, 74, 0
1, 11415, Note_on_c, 1, 55, 127
1, 11415, Note_on_c, 1, 73, 127
1, 11590, Note_off_c, 1, 55, 0
1, 11590, Note_off_c, 1, 73, 0
1, 11592, Note_on_c, 1, 52, 127
1, 11592, Note_on_c, 1, 71, 127
1, 11767, Note_off_c, 1, 52, 0
1, 11767, Note_off_c, 1, 71, 0
1, 11770, Note_on_c, 1, 70, 127
1, 11770, Note_on_c, 1, 54, 127
1, 11856, Note_off_c, 1, 70, 0
1, 11858, Note_on_c, 1, 68, 127
1, 11944, Note_off_c, 1, 68, 0
1, 11945, Note_off_c, 1, 54, 0
1, 11947, Note_on_c, 1, 50, 127
1, 11947, Note_on_c, 1, 66, 127
1, 12122, Note_off_c, 1, 50, 0
1, 12122, Note_off_c, 1, 66, 0
1, 12125, Note_on_c, 1, 49, 127
1, 12125, Note_on_c, 1, 76, 127
1, 12300, Note_off_c, 1, 49, 0
1, 12304, Note_on_c, 1, 47, 127
1, 12479, Note_off_c, 1, 47, 0
1, 12481, Note_on_c, 1, 46, 127
1, 12642, Note_off_c, 1, 76, 0
1, 12656, Note_off_c, 1, 46, 0
1, 12659, Note_on_c, 1, 52, 127
1, 12834, Note_off_c, 1, 52, 0
1, 12836, Note_on_c, 1, 50, 127
1, 13011, Note_off_c, 1, 50, 0
1, 13015, Note_on_c, 1, 47, 127
1, 13015, Note_on_c, 1, 74, 127
1, 13190, Note_off_c, 1, 47, 0
1, 13190, Note_off_c, 1, 74, 0
1, 13193, Note_on_c, 1, 49, 127
1, 13193, Note_on_c, 1, 76, 127
1, 13368, Note_off_c, 1, 49, 0
1, 13368, Note_off_c, 1, 76, 0
1, 13371, Note_on_c, 1, 50, 127
1, 13371, Note_on_c, 1, 78, 127
1, 13546, Note_off_c, 1, 50, 0
1, 13546, Note_off_c, 1, 78, 0
1, 13548, Note_on_c, 1, 52, 127
1, 13548, Note_on_c, 1, 79, 127
1, 13723, Note_off_c, 1, 52, 0
1, 13723, Note_off_c, 1, 79, 0
1, 13726, Note_on_c, 1, 49, 127
1, 13726, Note_on_c, 1, 76, 127
1, 13901, Note_off_c, 1, 49, 0
1, 13901, Note_off_c, 1, 76, 0
1, 13904, Note_on_c, 1, 78, 127
1, 13904, Note_on_c, 1, 50, 127
1, 14082, Note_on_c, 1, 74, 127
1, 14255, Note_off_c, 1, 78, 0
1, 14256, Note_off_c, 1, 50, 0
1, 14257, Note_off_c, 1, 74, 0
1, 14260, Note_on_c, 1, 73, 127
1, 14260, Note_on_c, 1, 52, 127
1, 14435, Note_off_c, 1, 73, 0
1, 14437, Note_on_c, 1, 71, 127
1, 14612, Note_off_c, 1, 52, 0
1, 14612, Note_off_c, 1, 71, 0
1, 14616, Note_on_c, 1, 70, 127
1, 14616, Note_on_c, 1, 54, 127
1, 14791, Note_off_c, 1, 70, 0
1, 14793, Note_on_c, 1, 76, 127
1, 14968, Note_off_c, 1, 54, 0
1, 14968, Note_off_c, 1, 76, 0
1, 14971, Note_on_c, 1, 74, 127
1, 14971, Note_on_c, 1, 47, 127
1, 15146, Note_off_c, 1, 74, 0
1, 15149, Note_on_c, 1, 71, 127
1, 15323, Note_off_c, 1, 47, 0
1, 15324, Note_off_c, 1, 71, 0
1, 15327, Note_on_c, 1, 73, 127
1, 15327, Note_on_c, 1, 59, 127
1, 15502, Note_off_c, 1, 73, 0
1, 15505, Note_on_c, 1, 74, 127
1, 15679, Note_off_c, 1, 59, 0
1, 15680, Note_off_c, 1, 74, 0
1, 15682, Note_on_c, 1, 76, 127
1, 15682, Note_on_c, 1, 58, 127
1, 15857, Note_off_c, 1, 76, 0
1, 15861, Note_on_c, 1, 73, 127
1, 16034, Note_off_c, 1, 58, 0
1, 16036, Note_off_c, 1, 73, 0
1, 16038, Note_on_c, 1, 74, 127
1, 16038, Note_on_c, 1, 59, 127
1, 16217, Note_on_c, 1, 71, 127
1, 16389, Note_off_c, 1, 74, 0
1, 16390, Note_off_c, 1, 59, 0
1, 16392, Note_off_c, 1, 71, 0
1, 16394, Note_on_c, 1, 69, 127
1, 16394, Note_on_c, 1, 54, 127
1, 16569, Note_off_c, 1, 69, 0
1, 16571, Note_on_c, 1, 67, 127
1, 16746, Note_off_c, 1, 54, 0
1, 16746, Note_off_c, 1, 67, 0
1, 16750, Note_on_c, 1, 66, 127
1, 16750, Note_on_c, 1, 50, 127
1, 16928, Note_on_c, 1, 72, 127
1, 16951, Note_off_c, 1, 66, 0
1, 17102, Note_off_c, 1, 50, 0
1, 17103, Note_off_c, 1, 72, 0
1, 17106, Note_on_c, 1, 55, 127
1, 17106, Note_on_c, 1, 71, 127
1, 17281, Note_off_c, 1, 55, 0
1, 17281, Note_off_c, 1, 71, 0
1, 17283, Note_on_c, 1, 59, 127
1, 17283, Note_on_c, 1, 67, 127
1, 17458, Note_off_c, 1, 59, 0
1, 17458, Note_off_c, 1, 67, 0
1, 17461, Note_on_c, 1, 60, 127
1, 17461, Note_on_c, 1, 76, 127
1, 17636, Note_off_c, 1, 60, 0
1, 17636, Note_off_c, 1, 76, 0
1, 17639, Note_on_c, 1, 62, 127
1, 17639, Note_on_c, 1, 71, 127
1, 17814, Note_off_c, 1, 62, 0
1, 17814, Note_off_c, 1, 71, 0
1, 17818, Note_on_c, 1, 64, 127
1, 17818, Note_on_c, 1, 72, 127
1, 17993, Note_off_c, 1, 64, 0
1, 17993, Note_off_c, 1, 72, 0
1, 17995, Note_on_c, 1, 60, 127
1, 17995, Note_on_c, 1, 81, 127
1, 18170, Note_off_c, 1, 60, 0
1, 18170, Note_off_c, 1, 81, 0
1, 18172, Note_on_c, 1, 62, 127
1, 18172, Note_on_c, 1, 71, 127
1, 18347, Note_off_c, 1, 62, 0
1, 18350, Note_on_c, 1, 59, 127
1, 18350, Note_on_c, 1, 74, 127
1, 18523, Note_off_c, 1, 71, 0
1, 18525, Note_off_c, 1, 59, 0
1, 18525, Note_off_c, 1, 74, 0
1, 18529, Note_on_c, 1, 57, 127
1, 18529, Note_on_c, 1, 79, 127
1, 18704, Note_off_c, 1, 57, 0
1, 18707, Note_on_c, 1, 55, 127
1, 18825, Note_off_c, 1, 79, 0
1, 18882, Note_off_c, 1, 55, 0
1, 18884, Note_on_c, 1, 71, 127
1, 18884, Note_on_c, 1, 54, 127
1, 18970, Note_off_c, 1, 71, 0
1, 18973, Note_on_c, 1, 69, 127
1, 19059, Note_off_c, 1, 54, 0
1, 19059, Note_off_c, 1, 69, 0
1, 19062, Note_on_c, 1, 67, 127
1, 19062, Note_on_c, 1, 60, 127
1, 19148, Note_off_c, 1, 67, 0
1, 19150, Note_on_c, 1, 69, 127
1, 19236, Note_off_c, 1, 69, 0
1, 19237, Note_off_c, 1, 60, 0
1, 19239, Note_on_c, 1, 59, 127
1, 19239, Note_on_c, 1, 67, 127
1, 19414, Note_off_c, 1, 59, 0
1, 19414, Note_off_c, 1, 67, 0
1, 19418, Note_on_c, 1, 55, 127
1, 19418, Note_on_c, 1, 64, 127
1, 19593, Note_off_c, 1, 55, 0
1, 19593, Note_off_c, 1, 64, 0
1, 19596, Note_on_c, 1, 57, 127
1, 19596, Note_on_c, 1, 72, 127
1, 19771, Note_off_c, 1, 57, 0
1, 19771, Note_off_c, 1, 72, 0
1, 19773, Note_on_c, 1, 59, 127
1, 19773, Note_on_c, 1, 67, 127
1, 19948, Note_off_c, 1, 59, 0
1, 19948, Note_off_c, 1, 67, 0
1, 19951, Note_on_c, 1, 60, 127
1, 19951, Note_on_c, 1, 69, 127
1, 20126, Note_off_c, 1, 60, 0
1, 20126, Note_off_c, 1, 69, 0
1, 20130, Note_on_c, 1, 57, 127
1, 20130, Note_on_c, 1, 78, 127
1, 20305, Note_off_c, 1, 57, 0
1, 20305, Note_off_c, 1, 78, 0
1, 20308, Note_on_c, 1, 59, 127
1, 20308, Note_on_c, 1, 67, 127
1, 20483, Note_off_c, 1, 59, 0
1, 20485, Note_on_c, 1, 55, 127
1, 20485, Note_on_c, 1, 71, 127
1, 20659, Note_off_c, 1, 67, 0
1, 20660, Note_off_c, 1, 55, 0
1, 20660, Note_off_c, 1, 71, 0
1, 20663, Note_on_c, 1, 54, 127
1, 20663, Note_on_c, 1, 76, 127
1, 20838, Note_off_c, 1, 54, 0
1, 20840, Note_on_c, 1, 52, 127
1, 20976, Note_off_c, 1, 76, 0
1, 21015, Note_off_c, 1, 52, 0
1, 21019, Note_on_c, 1, 67, 127
1, 21019, Note_on_c, 1, 51, 127
1, 21105, Note_off_c, 1, 67, 0
1, 21108, Note_on_c, 1, 66, 127
1, 21194, Note_off_c, 1, 51, 0
1, 21194, Note_off_c, 1, 66, 0
1, 21197, Note_on_c, 1, 64, 127
1, 21197, Note_on_c, 1, 57, 127
1, 21283, Note_off_c, 1, 64, 0
1, 21286, Note_on_c, 1, 66, 127
1, 21372, Note_off_c, 1, 57, 0
1, 21372, Note_off_c, 1, 66, 0
1, 21374, Note_on_c, 1, 55, 127
1, 21374, Note_on_c, 1, 64, 127
1, 21549, Note_off_c, 1, 55, 0
1, 21549, Note_off_c, 1, 64, 0
1, 21552, Note_on_c, 1, 52, 127
1, 21552, Note_on_c, 1, 67, 127
1, 21727, Note_off_c, 1, 52, 0
1, 21727, Note_off_c, 1, 67, 0
1, 21730, Note_on_c, 1, 54, 127
1, 21730, Note_on_c, 1, 69, 127
1, 21905, Note_off_c, 1, 54, 0
1, 21905, Note_off_c, 1, 69, 0
1, 21909, Note_on_c, 1, 55, 127
1, 21909, Note_on_c, 1, 71, 127
1, 22084, Note_off_c, 1, 55, 0
1, 22084, Note_off_c, 1, 71, 0
1, 22086, Note_on_c, 1, 57, 127
1, 22086, Note_on_c, 1, 72, 127
1, 22261, Note_off_c, 1, 57, 0
1, 22261, Note_off_c, 1, 72, 0
1, 22264, Note_on_c, 1, 54, 127
1, 22264, Note_on_c, 1, 69, 127
1, 22439, Note_off_c, 1, 54, 0
1, 22439, Note_off_c, 1, 69, 0
1, 22441, Note_on_c, 1, 71, 127
1, 22441, Note_on_c, 1, 55, 127
1, 22527, Note_off_c, 1, 71, 0
1, 22531, Note_on_c, 1, 69, 127
1, 22616, Note_off_c, 1, 55, 0
1, 22617, Note_off_c, 1, 69, 0
1, 22619, Note_on_c, 1, 52, 127
1, 22619, Note_on_c, 1, 67, 127
1, 22794, Note_off_c, 1, 52, 0
1, 22794, Note_off_c, 1, 67, 0
1, 22798, Note_on_c, 1, 50, 127
1, 22798, Note_on_c, 1, 77, 127
1, 22973, Note_off_c, 1, 50, 0
1, 22975, Note_on_c, 1, 48, 127
1, 23150, Note_off_c, 1, 48, 0
1, 23153, Note_on_c, 1, 47, 127
1, 23315, Note_off_c, 1, 77, 0
1, 23328, Note_off_c, 1, 47, 0
1, 23331, Note_on_c, 1, 53, 127
1, 23506, Note_off_c, 1, 53, 0
1, 23509, Note_on_c, 1, 52, 127
1, 23684, Note_off_c, 1, 52, 0
1, 23687, Note_on_c, 1, 43, 127
1, 23687, Note_on_c, 1, 64, 127
1, 23862, Note_off_c, 1, 43, 0
1, 23862, Note_off_c, 1, 64, 0
1, 23864, Note_on_c, 1, 45, 127
1, 23864, Note_on_c, 1, 66, 127
1, 24039, Note_off_c, 1, 45, 0
1, 24039, Note_off_c, 1, 66, 0
1, 24042, Note_on_c, 1, 47, 127
1, 24042, Note_on_c, 1, 67, 127
1, 24217, Note_off_c, 1, 47, 0
1, 24217, Note_off_c, 1, 67, 0
1, 24220, Note_on_c, 1, 69, 127
1, 24220, Note_on_c, 1, 48, 127
1, 24395, Note_off_c, 1, 69, 0
1, 24398, Note_on_c, 1, 66, 127
1, 24573, Note_off_c, 1, 66, 0
1, 24576, Note_on_c, 1, 67, 127
1, 24701, Note_off_c, 1, 48, 0
1, 24754, Note_on_c, 1, 47, 127
1, 24754, Note_on_c, 1, 62, 127
1, 24761, Note_off_c, 1, 67, 0
1, 24929, Note_off_c, 1, 47, 0
1, 24929, Note_off_c, 1, 62, 0
1, 24932, Note_on_c, 1, 49, 127
1, 24932, Note_on_c, 1, 64, 127
1, 25107, Note_off_c, 1, 49, 0
1, 25107, Note_off_c, 1, 64, 0
1, 25110, Note_on_c, 1, 50, 127
1, 25110, Note_on_c, 1, 66, 127
1, 25285, Note_off_c, 1, 50, 0
1, 25285, Note_off_c, 1, 66, 0
1, 25287, Note_on_c, 1, 52, 127
1, 25287, Note_on_c, 1, 67, 127
1, 25462, Note_off_c, 1, 52, 0
1, 25465, Note_on_c, 1, 49, 127
1, 25640, Note_off_c, 1, 49, 0
1, 25643, Note_on_c, 1, 50, 127
1, 25768, Note_off_c, 1, 67, 0
1, 25821, Note_on_c, 1, 45, 127
1, 25821, Note_on_c, 1, 66, 127
1, 25829, Note_off_c, 1, 50, 0
1, 25996, Note_off_c, 1, 45, 0
1, 25996, Note_off_c, 1, 66, 0
1, 25999, Note_on_c, 1, 47, 127
1, 25999, Note_on_c, 1, 68, 127
1, 26174, Note_off_c, 1, 47, 0
1, 26174, Note_off_c, 1, 68, 0
1, 26176, Note_on_c, 1, 48, 127
1, 26176, Note_on_c, 1, 69, 127
1, 26351, Note_off_c, 1, 48, 0
1, 26351, Note_off_c, 1, 69, 0
1, 26355, Note_on_c, 1, 71, 127
1, 26355, Note_on_c, 1, 50, 127
1, 26530, Note_off_c, 1, 71, 0
1, 26532, Note_on_c, 1, 68, 127
1, 26707, Note_off_c, 1, 68, 0
1, 26711, Note_on_c, 1, 69, 127
1, 26836, Note_off_c, 1, 50, 0
1, 26888, Note_on_c, 1, 49, 127
1, 26888, Note_on_c, 1, 64, 127
1, 26911, Note_off_c, 1, 69, 0
1, 27063, Note_off_c, 1, 49, 0
1, 27063, Note_off_c, 1, 64, 0
1, 27065, Note_on_c, 1, 51, 127
1, 27065, Note_on_c, 1, 66, 127
1, 27240, Note_off_c, 1, 51, 0
1, 27240, Note_off_c, 1, 66, 0
1, 27244, Note_on_c, 1, 52, 127
1, 27244, Note_on_c, 1, 67, 127
1, 27419, Note_off_c, 1, 52, 0
1, 27419, Note_off_c, 1, 67, 0
1, 27422, Note_on_c, 1, 54, 127
1, 27422, Note_on_c, 1, 69, 127
1, 27597, Note_off_c, 1, 54, 0
1, 27600, Note_on_c, 1, 51, 127
1, 27775, Note_off_c, 1, 51, 0
1, 27777, Note_on_c, 1, 52, 127
1, 27921, Note_off_c, 1, 69, 0
1, 27955, Note_on_c, 1, 47, 127
1, 27955, Note_on_c, 1, 68, 127
1, 27958, Note_off_c, 1, 52, 0
1, 28130, Note_off_c, 1, 47, 0
1, 28130, Note_off_c, 1, 68, 0
1, 28133, Note_on_c, 1, 49, 127
1, 28133, Note_on_c, 1, 70, 127
1, 28308, Note_off_c, 1, 49, 0
1, 28308, Note_off_c, 1, 70, 0
1, 28311, Note_on_c, 1, 50, 127
1, 28311, Note_on_c, 1, 71, 127
1, 28486, Note_off_c, 1, 50, 0
1, 28486, Note_off_c, 1, 71, 0
1, 28489, Note_on_c, 1, 73, 127
1, 28489, Note_on_c, 1, 52, 127
1, 28664, Note_off_c, 1, 73, 0
1, 28666, Note_on_c, 1, 70, 127
1, 28841, Note_off_c, 1, 70, 0
1, 28844, Note_on_c, 1, 71, 127
1, 29015, Note_off_c, 1, 52, 0
1, 29019, Note_off_c, 1, 71, 0
1, 29023, Note_on_c, 1, 50, 127
1, 29023, Note_on_c, 1, 66, 127
1, 29198, Note_off_c, 1, 50, 0
1, 29198, Note_off_c, 1, 66, 0
1, 29201, Note_on_c, 1, 52, 127
1, 29201, Note_on_c, 1, 68, 127
1, 29376, Note_off_c, 1, 52, 0
1, 29376, Note_off_c, 1, 68, 0
1, 29378, Note_on_c, 1, 54, 127
1, 29378, Note_on_c, 1, 70, 127
1, 29553, Note_off_c, 1, 54, 0
1, 29553, Note_off_c, 1, 70, 0
1, 29556, Note_on_c, 1, 55, 127
1, 29556, Note_on_c, 1, 71, 127
1, 29731, Note_off_c, 1, 55, 0
1, 29734, Note_on_c, 1, 52, 127
1, 29909, Note_off_c, 1, 52, 0
1, 30024, Note_on_c, 1, 54, 127
1, 30090, Note_on_c, 1, 70, 127
1, 30103, Note_off_c, 1, 71, 0
1, 30110, Note_off_c, 1, 54, 0
1, 30265, Note_off_c, 1, 70, 0
1, 30445, Note_on_c, 1, 73, 127
1, 30620, Note_off_c, 1, 73, 0
1, 30624, Note_on_c, 1, 74, 127
1, 30799, Note_off_c, 1, 74, 0
1, 31513, Note_on_c, 1, 68, 127
1, 31688, Note_off_c, 1, 68, 0
1, 31691, Note_on_c, 1, 66, 127
1, 31866, Note_off_c, 1, 66, 0
1, 31868, Note_on_c, 1, 64, 127
1, 32043, Note_off_c, 1, 64, 0
1, 32046, Note_on_c, 1, 62, 127
1, 32221, Note_off_c, 1, 62, 0
1, 34003, Note_on_c, 1, 61, 127
1, 34178, Note_off_c, 1, 61, 0
1, 34293, Note_on_c, 1, 59, 127
1, 34358, Note_on_c, 1, 51, 127
1, 34379, Note_off_c, 1, 59, 0
1, 34533, Note_off_c, 1, 51, 0
1, 35781, Note_on_c, 1, 49, 127
1, 35956, Note_off_c, 1, 49, 0
1, 35959, Note_on_c, 1, 47, 127
1, 36134, Note_off_c, 1, 47, 0
1, 36137, Note_on_c, 1, 45, 127
1, 36312, Note_off_c, 1, 45, 0
1, 36315, Note_on_c, 1, 43, 127
1, 36490, Note_off_c, 1, 43, 0
1, 38271, Note_on_c, 1, 42, 127
1, 38446, Note_off_c, 1, 42, 0
1, 38449, Note_on_c, 1, 40, 127
1, 38624, Note_off_c, 1, 40, 0
1, 38628, Note_on_c, 1, 50, 127
1, 38803, Note_off_c, 1, 50, 0
1, 38805, Note_on_c, 1, 64, 127
1, 38805, Note_on_c, 1, 49, 127
1, 38891, Note_off_c, 1, 64, 0
1, 38894, Note_on_c, 1, 62, 127
1, 38980, Note_off_c, 1, 49, 0
1, 38980, Note_off_c, 1, 62, 0
1, 38983, Note_on_c, 1, 47, 127
1, 38983, Note_on_c, 1, 64, 127
1, 39158, Note_off_c, 1, 47, 0
1, 39160, Note_on_c, 1, 46, 127
1, 39335, Note_off_c, 1, 46, 0
1, 39338, Note_on_c, 1, 49, 127
1, 39513, Note_off_c, 1, 49, 0
1, 39517, Note_on_c, 1, 42, 127
1, 39690, Note_off_c, 1, 64, 0
1, 39695, Note_on_c, 1, 66, 127
1, 39830, Note_off_c, 1, 42, 0
1, 39870, Note_off_c, 1, 66, 0
1, 39872, Note_on_c, 1, 55, 127
1, 39872, Note_on_c, 1, 64, 127
1, 39958, Note_off_c, 1, 55, 0
1, 39961, Note_on_c, 1, 54, 127
1, 40047, Note_off_c, 1, 64, 0
1, 40047, Note_off_c, 1, 54, 0
1, 40050, Note_on_c, 1, 62, 127
1, 40050, Note_on_c, 1, 55, 127
1, 40225, Note_off_c, 1, 62, 0
1, 40229, Note_on_c, 1, 61, 127
1, 40404, Note_off_c, 1, 61, 0
1, 40406, Note_on_c, 1, 64, 127
1, 40581, Note_off_c, 1, 64, 0
1, 40584, Note_on_c, 1, 58, 127
1, 40757, Note_off_c, 1, 55, 0
1, 40761, Note_on_c, 1, 54, 127
1, 40861, Note_off_c, 1, 58, 0
1, 40936, Note_off_c, 1, 54, 0
1, 40939, Note_on_c, 1, 73, 127
1, 40939, Note_on_c, 1, 52, 127
1, 41025, Note_off_c, 1, 73, 0
1, 41028, Note_on_c, 1, 71, 127
1, 41114, Note_off_c, 1, 52, 0
1, 41114, Note_off_c, 1, 71, 0
1, 41118, Note_on_c, 1, 50, 127
1, 41118, Note_on_c, 1, 73, 127
1, 41293, Note_off_c, 1, 50, 0
1, 41296, Note_on_c, 1, 49, 127
1, 41471, Note_off_c, 1, 49, 0
1, 41473, Note_on_c, 1, 52, 127
1, 41648, Note_off_c, 1, 52, 0
1, 41650, Note_on_c, 1, 46, 127
1, 41825, Note_off_c, 1, 73, 0
1, 41829, Note_on_c, 1, 74, 127
1, 41963, Note_off_c, 1, 46, 0
1, 42004, Note_off_c, 1, 74, 0
1, 42007, Note_on_c, 1, 64, 127
1, 42007, Note_on_c, 1, 73, 127
1, 42093, Note_off_c, 1, 64, 0
1, 42096, Note_on_c, 1, 62, 127
1, 42182, Note_off_c, 1, 73, 0
1, 42182, Note_off_c, 1, 62, 0
1, 42185, Note_on_c, 1, 71, 127
1, 42185, Note_on_c, 1, 64, 127
1, 42360, Note_off_c, 1, 71, 0
1, 42362, Note_on_c, 1, 70, 127
1, 42537, Note_off_c, 1, 70, 0
1, 42540, Note_on_c, 1, 73, 127
1, 42715, Note_off_c, 1, 73, 0
1, 42718, Note_on_c, 1, 66, 127
1, 42892, Note_off_c, 1, 64, 0
1, 42897, Note_on_c, 1, 62, 127
1, 42995, Note_off_c, 1, 66, 0
1, 43072, Note_off_c, 1, 62, 0
1, 43074, Note_on_c, 1, 79, 127
1, 43074, Note_on_c, 1, 61, 127
1, 43160, Note_off_c, 1, 79, 0
1, 43163, Note_on_c, 1, 78, 127
1, 43249, Note_off_c, 1, 61, 0
1, 43249, Note_off_c, 1, 78, 0
1, 43251, Note_on_c, 1, 59, 127
1, 43251, Note_on_c, 1, 79, 127
1, 43426, Note_off_c, 1, 59, 0
1, 43430, Note_on_c, 1, 58, 127
1, 43605, Note_off_c, 1, 58, 0
1, 43607, Note_on_c, 1, 61, 127
1, 43782, Note_off_c, 1, 61, 0
1, 43786, Note_on_c, 1, 54, 127
1, 43958, Note_off_c, 1, 79, 0
1, 43963, Note_on_c, 1, 78, 127
1, 44138, Note_off_c, 1, 54, 0
1, 44138, Note_off_c, 1, 78, 0
1, 44141, Note_on_c, 1, 76, 127
1, 44141, Note_on_c, 1, 56, 127
1, 44316, Note_off_c, 1, 76, 0
1, 44319, Note_on_c, 1, 74, 127
1, 44493, Note_off_c, 1, 56, 0
1, 44494, Note_off_c, 1, 74, 0
1, 44497, Note_on_c, 1, 73, 127
1, 44497, Note_on_c, 1, 58, 127
1, 44672, Note_off_c, 1, 73, 0
1, 44675, Note_on_c, 1, 76, 127
1, 44849, Note_off_c, 1, 58, 0
1, 44850, Note_off_c, 1, 76, 0
1, 44852, Note_on_c, 1, 74, 127
1, 44852, Note_on_c, 1, 59, 127
1, 44938, Note_off_c, 1, 74, 0
1, 44941, Note_on_c, 1, 73, 127
1, 45027, Note_off_c, 1, 59, 0
1, 45027, Note_off_c, 1, 73, 0
1, 45031, Note_on_c, 1, 71, 127
1, 45031, Note_on_c, 1, 58, 127
1, 45117, Note_off_c, 1, 71, 0
1, 45120, Note_on_c, 1, 73, 127
1, 45206, Note_off_c, 1, 58, 0
1, 45206, Note_off_c, 1, 73, 0
1, 45208, Note_on_c, 1, 59, 127
1, 45208, Note_on_c, 1, 74, 127
1, 45383, Note_off_c, 1, 59, 0
1, 45386, Note_on_c, 1, 61, 127
1, 45561, Note_off_c, 1, 61, 0
1, 45564, Note_on_c, 1, 62, 127
1, 45739, Note_off_c, 1, 62, 0
1, 45920, Note_on_c, 1, 53, 127
1, 46095, Note_off_c, 1, 74, 0
1, 46095, Note_off_c, 1, 53, 0
1, 46097, Note_on_c, 1, 54, 127
1, 46097, Note_on_c, 1, 73, 127
1, 46272, Note_off_c, 1, 54, 0
1, 46272, Note_off_c, 1, 73, 0
1, 46275, Note_on_c, 1, 56, 127
1, 46275, Note_on_c, 1, 71, 127
1, 46450, Note_off_c, 1, 56, 0
1, 46450, Note_off_c, 1, 71, 0
1, 46453, Note_on_c, 1, 57, 127
1, 46453, Note_on_c, 1, 69, 127
1, 46628, Note_off_c, 1, 57, 0
1, 46628, Note_off_c, 1, 69, 0
1, 46632, Note_on_c, 1, 59, 127
1, 46632, Note_on_c, 1, 68, 127
1, 46807, Note_off_c, 1, 59, 0
1, 46807, Note_off_c, 1, 68, 0
1, 46809, Note_on_c, 1, 56, 127
1, 46809, Note_on_c, 1, 71, 127
1, 46984, Note_off_c, 1, 56, 0
1, 46984, Note_off_c, 1, 71, 0
1, 46987, Note_on_c, 1, 65, 127
1, 46987, Note_on_c, 1, 49, 127
1, 47162, Note_off_c, 1, 65, 0
1, 47164, Note_on_c, 1, 74, 127
1, 47339, Note_off_c, 1, 49, 0
1, 47339, Note_off_c, 1, 74, 0
1, 47343, Note_on_c, 1, 73, 127
1, 47343, Note_on_c, 1, 53, 127
1, 47518, Note_off_c, 1, 73, 0
1, 47521, Note_on_c, 1, 71, 127
1, 47695, Note_off_c, 1, 53, 0
1, 47696, Note_off_c, 1, 71, 0
1, 47698, Note_on_c, 1, 70, 127
1, 47698, Note_on_c, 1, 54, 127
1, 47873, Note_off_c, 1, 70, 0
1, 47876, Note_on_c, 1, 73, 127
1, 48050, Note_off_c, 1, 54, 0
1, 48051, Note_off_c, 1, 73, 0
1, 48053, Note_on_c, 1, 76, 127
1, 48053, Note_on_c, 1, 55, 127
1, 48228, Note_off_c, 1, 76, 0
1, 48232, Note_on_c, 1, 79, 127
1, 48405, Note_off_c, 1, 55, 0
1, 48407, Note_off_c, 1, 79, 0
1, 48410, Note_on_c, 1, 78, 127
1, 48410, Note_on_c, 1, 46, 127
1, 48585, Note_off_c, 1, 78, 0
1, 48588, Note_on_c, 1, 76, 127
1, 48762, Note_off_c, 1, 46, 0
1, 48763, Note_off_c, 1, 76, 0
1, 48765, Note_on_c, 1, 74, 127
1, 48765, Note_on_c, 1, 47, 127
1, 48940, Note_off_c, 1, 74, 0
1, 48943, Note_on_c, 1, 78, 127
1, 49117, Note_off_c, 1, 47, 0
1, 49118, Note_off_c, 1, 78, 0
1, 49122, Note_on_c, 1, 71, 127
1, 49122, Note_on_c, 1, 43, 127
1, 49454, Note_off_c, 1, 71, 0
1, 49474, Note_off_c, 1, 43, 0
1, 49477, Note_on_c, 1, 73, 127
1, 49477, Note_on_c, 1, 40, 127
1, 49809, Note_off_c, 1, 73, 0
1, 49829, Note_off_c, 1, 40, 0
1, 49833, Note_on_c, 1, 71, 127
1, 49833, Note_on_c, 1, 42, 127
1, 49919, Note_off_c, 1, 71, 0
1, 49922, Note_on_c, 1, 70, 127
1, 50008, Note_off_c, 1, 70, 0
1, 50011, Note_on_c, 1, 68, 127
1, 50097, Note_off_c, 1, 68, 0
1, 50185, Note_off_c, 1, 42, 0
1, 50189, Note_on_c, 1, 47, 127
1, 50189, Note_on_c, 1, 71, 127
1, 51253, Note_off_c, 1, 47, 0
1, 51253, Note_off_c, 1, 71, 0
1, 51255, Note_on_c, 1, 78, 127
1, 51433, Note_on_c, 1, 59, 127
1, 51608, Note_off_c, 1, 59, 0
1, 51612, Note_on_c, 1, 57, 127
1, 51787, Note_off_c, 1, 57, 0
1, 51790, Note_on_c, 1, 55, 127
1, 51965, Note_off_c, 1, 55, 0
1, 51967, Note_on_c, 1, 54, 127
1, 52142, Note_off_c, 1, 54, 0
1, 52674, Note_off_c, 1, 78, 0
1, 52679, Note_on_c, 1, 61, 127
1, 52679, Note_on_c, 1, 76, 127
1, 52854, Note_off_c, 1, 61, 0
1, 52854, Note_off_c, 1, 76, 0
1, 52856, Note_on_c, 1, 63, 127
1, 52856, Note_on_c, 1, 78, 127
1, 53031, Note_off_c, 1, 63, 0
1, 53031, Note_off_c, 1, 78, 0
1, 53034, Note_on_c, 1, 64, 127
1, 53034, Note_on_c, 1, 79, 127
1, 53209, Note_off_c, 1, 64, 0
1, 53212, Note_on_c, 1, 57, 127
1, 53356, Note_off_c, 1, 79, 0
1, 53387, Note_off_c, 1, 57, 0
1, 53391, Note_on_c, 1, 62, 127
1, 53391, Note_on_c, 1, 78, 127
1, 53566, Note_off_c, 1, 62, 0
1, 53568, Note_on_c, 1, 55, 127
1, 53743, Note_off_c, 1, 78, 0
1, 53743, Note_off_c, 1, 55, 0
1, 53745, Note_on_c, 1, 76, 127
1, 53745, Note_on_c, 1, 57, 127
1, 53831, Note_off_c, 1, 76, 0
1, 53834, Note_on_c, 1, 78, 127
1, 53920, Note_off_c, 1, 57, 0
1, 53920, Note_off_c, 1, 78, 0
1, 53924, Note_on_c, 1, 59, 127
1, 53924, Note_on_c, 1, 76, 127
1, 54099, Note_off_c, 1, 59, 0
1, 54099, Note_off_c, 1, 76, 0
1, 54101, Note_on_c, 1, 60, 127
1, 54101, Note_on_c, 1, 69, 127
1, 54276, Note_off_c, 1, 60, 0
1, 54280, Note_on_c, 1, 54, 127
1, 54423, Note_off_c, 1, 69, 0
1, 54455, Note_off_c, 1, 54, 0
1, 54457, Note_on_c, 1, 59, 127
1, 54457, Note_on_c, 1, 74, 127
1, 54632, Note_off_c, 1, 59, 0
1, 54635, Note_on_c, 1, 52, 127
1, 54809, Note_off_c, 1, 74, 0
1, 54810, Note_off_c, 1, 52, 0
1, 54813, Note_on_c, 1, 72, 127
1, 54813, Note_on_c, 1, 54, 127
1, 54899, Note_off_c, 1, 72, 0
1, 54902, Note_on_c, 1, 74, 127
1, 54988, Note_off_c, 1, 54, 0
1, 54988, Note_off_c, 1, 74, 0
1, 54990, Note_on_c, 1, 72, 127
1, 54990, Note_on_c, 1, 55, 127
1, 55076, Note_off_c, 1, 72, 0
1, 55080, Note_on_c, 1, 71, 127
1, 55165, Note_off_c, 1, 55, 0
1, 55166, Note_off_c, 1, 71, 0
1, 55169, Note_on_c, 1, 57, 127
1, 55169, Note_on_c, 1, 72, 127
1, 55344, Note_off_c, 1, 57, 0
1, 55346, Note_on_c, 1, 51, 127
1, 55521, Note_off_c, 1, 51, 0
1, 55525, Note_on_c, 1, 55, 127
1, 55699, Note_off_c, 1, 72, 0
1, 55702, Note_on_c, 1, 71, 127
1, 55877, Note_off_c, 1, 55, 0
1, 55877, Note_off_c, 1, 71, 0
1, 55880, Note_on_c, 1, 69, 127
1, 55880, Note_on_c, 1, 57, 127
1, 56055, Note_off_c, 1, 69, 0
1, 56058, Note_on_c, 1, 67, 127
1, 56232, Note_off_c, 1, 57, 0
1, 56233, Note_off_c, 1, 67, 0
1, 56236, Note_on_c, 1, 66, 127
1, 56236, Note_on_c, 1, 59, 127
1, 56411, Note_off_c, 1, 66, 0
1, 56414, Note_on_c, 1, 69, 127
1, 56588, Note_off_c, 1, 59, 0
1, 56589, Note_off_c, 1, 69, 0
1, 56591, Note_on_c, 1, 67, 127
1, 56591, Note_on_c, 1, 52, 127
1, 56769, Note_on_c, 1, 71, 127
1, 56942, Note_off_c, 1, 67, 0
1, 56943, Note_off_c, 1, 52, 0
1, 56944, Note_off_c, 1, 71, 0
1, 56947, Note_on_c, 1, 72, 127
1, 56947, Note_on_c, 1, 50, 127
1, 57122, Note_off_c, 1, 72, 0
1, 57126, Note_on_c, 1, 74, 127
1, 57299, Note_off_c, 1, 50, 0
1, 57301, Note_off_c, 1, 74, 0
1, 57303, Note_on_c, 1, 76, 127
1, 57303, Note_on_c, 1, 48, 127
1, 57481, Note_on_c, 1, 69, 127
1, 57569, Note_off_c, 1, 76, 0
1, 57655, Note_off_c, 1, 48, 0
1, 57656, Note_off_c, 1, 69, 0
1, 57658, Note_on_c, 1, 74, 127
1, 57658, Note_on_c, 1, 47, 127
1, 57837, Note_on_c, 1, 68, 127
1, 58009, Note_off_c, 1, 74, 0
1, 58010, Note_off_c, 1, 47, 0
1, 58012, Note_off_c, 1, 68, 0
1, 58015, Note_on_c, 1, 69, 127
1, 58015, Note_on_c, 1, 40, 127
1, 58190, Note_off_c, 1, 69, 0
1, 58192, Note_on_c, 1, 71, 127
1, 58367, Note_off_c, 1, 40, 0
1, 58367, Note_off_c, 1, 71, 0
1, 58370, Note_on_c, 1, 72, 127
1, 58370, Note_on_c, 1, 45, 127
1, 58547, Note_on_c, 1, 66, 127
1, 58636, Note_off_c, 1, 72, 0
1, 58722, Note_off_c, 1, 45, 0
1, 58722, Note_off_c, 1, 66, 0
1, 58727, Note_on_c, 1, 38, 127
1, 58727, Note_on_c, 1, 71, 127
1, 58902, Note_off_c, 1, 38, 0
1, 58904, Note_on_c, 1, 36, 127
1, 58904, Note_on_c, 1, 64, 127
1, 59078, Note_off_c, 1, 71, 0
1, 59079, Note_off_c, 1, 36, 0
1, 59079, Note_off_c, 1, 64, 0
1, 59082, Note_on_c, 1, 38, 127
1, 59082, Note_on_c, 1, 66, 127
1, 59257, Note_off_c, 1, 38, 0
1, 59257, Note_off_c, 1, 66, 0
1, 59259, Note_on_c, 1, 40, 127
1, 59259, Note_on_c, 1, 68, 127
1, 59434, Note_off_c, 1, 40, 0
1, 59434, Note_off_c, 1, 68, 0
1, 59437, Note_on_c, 1, 69, 127
1, 59437, Note_on_c, 1, 41, 127
1, 59616, Note_on_c, 1, 63, 127
1, 59703, Note_off_c, 1, 69, 0
1, 59789, Note_off_c, 1, 41, 0
1, 59791, Note_off_c, 1, 63, 0
1, 59793, Note_on_c, 1, 40, 127
1, 59793, Note_on_c, 1, 68, 127
1, 59968, Note_off_c, 1, 40, 0
1, 59971, Note_on_c, 1, 52, 127
1, 60145, Note_off_c, 1, 68, 0
1, 60146, Note_off_c, 1, 52, 0
1, 60148, Note_on_c, 1, 71, 127
1, 60148, Note_on_c, 1, 50, 127
1, 60234, Note_off_c, 1, 71, 0
1, 60237, Note_on_c, 1, 69, 127
1, 60323, Note_off_c, 1, 50, 0
1, 60323, Note_off_c, 1, 69, 0
1, 60328, Note_on_c, 1, 68, 127
1, 60328, Note_on_c, 1, 48, 127
1, 60414, Note_off_c, 1, 68, 0
1, 60416, Note_on_c, 1, 69, 127
1, 60502, Note_off_c, 1, 69, 0
1, 60503, Note_off_c, 1, 48, 0
1, 60505, Note_on_c, 1, 47, 127
1, 60505, Note_on_c, 1, 71, 127
1, 60683, Note_on_c, 1, 50, 127
1, 60685, Note_off_c, 1, 47, 0
1, 60848, Note_off_c, 1, 71, 0
1, 60858, Note_off_c, 1, 50, 0
1, 60860, Note_on_c, 1, 64, 127
1, 60860, Note_on_c, 1, 48, 127
1, 61037, Note_on_c, 1, 76, 127
1, 61211, Note_off_c, 1, 64, 0
1, 61212, Note_off_c, 1, 48, 0
1, 61212, Note_off_c, 1, 76, 0
1, 61217, Note_on_c, 1, 52, 127
1, 61217, Note_on_c, 1, 74, 127
1, 61303, Note_off_c, 1, 52, 0
1, 61306, Note_on_c, 1, 50, 127
1, 61392, Note_off_c, 1, 74, 0
1, 61392, Note_off_c, 1, 50, 0
1, 61394, Note_on_c, 1, 48, 127
1, 61394, Note_on_c, 1, 72, 127
1, 61480, Note_off_c, 1, 48, 0
1, 61483, Note_on_c, 1, 50, 127
1, 61569, Note_off_c, 1, 72, 0
1, 61569, Note_off_c, 1, 50, 0
1, 61572, Note_on_c, 1, 71, 127
1, 61572, Note_on_c, 1, 52, 127
1, 61747, Note_off_c, 1, 71, 0
1, 61749, Note_on_c, 1, 74, 127
1, 61924, Note_off_c, 1, 52, 0
1, 61928, Note_on_c, 1, 45, 127
1, 61928, Note_on_c, 1, 72, 127
1, 61939, Note_off_c, 1, 74, 0
1, 62103, Note_off_c, 1, 45, 0
1, 62106, Note_on_c, 1, 57, 127
1, 62280, Note_off_c, 1, 72, 0
1, 62281, Note_off_c, 1, 57, 0
1, 62284, Note_on_c, 1, 76, 127
1, 62284, Note_on_c, 1, 55, 127
1, 62370, Note_off_c, 1, 76, 0
1, 62372, Note_on_c, 1, 74, 127
1, 62458, Note_off_c, 1, 74, 0
1, 62459, Note_off_c, 1, 55, 0
1, 62461, Note_on_c, 1, 72, 127
1, 62461, Note_on_c, 1, 53, 127
1, 62547, Note_off_c, 1, 72, 0
1, 62550, Note_on_c, 1, 74, 127
1, 62636, Note_off_c, 1, 53, 0
1, 62636, Note_off_c, 1, 74, 0
1, 62638, Note_on_c, 1, 52, 127
1, 62638, Note_on_c, 1, 76, 127
1, 62813, Note_off_c, 1, 52, 0
1, 62817, Note_on_c, 1, 55, 127
1, 62990, Note_off_c, 1, 76, 0
1, 62995, Note_on_c, 1, 69, 127
1, 62995, Note_on_c, 1, 53, 127
1, 63000, Note_off_c, 1, 55, 0
1, 63173, Note_on_c, 1, 81, 127
1, 63346, Note_off_c, 1, 69, 0
1, 63347, Note_off_c, 1, 53, 0
1, 63348, Note_off_c, 1, 81, 0
1, 63350, Note_on_c, 1, 79, 127
1, 63350, Note_on_c, 1, 55, 127
1, 63525, Note_off_c, 1, 79, 0
1, 63529, Note_on_c, 1, 77, 127
1, 63702, Note_off_c, 1, 55, 0
1, 63704, Note_off_c, 1, 77, 0
1, 63706, Note_on_c, 1, 76, 127
1, 63706, Note_on_c, 1, 57, 127
1, 63881, Note_off_c, 1, 76, 0
1, 63884, Note_on_c, 1, 79, 127
1, 64058, Note_off_c, 1, 57, 0
1, 64059, Note_off_c, 1, 79, 0
1, 64062, Note_on_c, 1, 50, 127
1, 64062, Note_on_c, 1, 77, 127
1, 64237, Note_off_c, 1, 50, 0
1, 64239, Note_on_c, 1, 62, 127
1, 64414, Note_off_c, 1, 77, 0
1, 64414, Note_off_c, 1, 62, 0
1, 64418, Note_on_c, 1, 81, 127
1, 64418, Note_on_c, 1, 60, 127
1, 64504, Note_off_c, 1, 81, 0
1, 64507, Note_on_c, 1, 79, 127
1, 64593, Note_off_c, 1, 60, 0
1, 64593, Note_off_c, 1, 79, 0
1, 64595, Note_on_c, 1, 77, 127
1, 64595, Note_on_c, 1, 59, 127
1, 64681, Note_off_c, 1, 77, 0
1, 64685, Note_on_c, 1, 79, 127
1, 64770, Note_off_c, 1, 59, 0
1, 64771, Note_off_c, 1, 79, 0
1, 64774, Note_on_c, 1, 57, 127
1, 64774, Note_on_c, 1, 81, 127
1, 64949, Note_off_c, 1, 57, 0
1, 64951, Note_on_c, 1, 60, 127
1, 65126, Note_off_c, 1, 60, 0
1, 65130, Note_on_c, 1, 59, 127
1, 65304, Note_off_c, 1, 81, 0
1, 65307, Note_on_c, 1, 74, 127
1, 65482, Note_off_c, 1, 59, 0
1, 65482, Note_off_c, 1, 74, 0
1, 65484, Note_on_c, 1, 72, 127
1, 65484, Note_on_c, 1, 60, 127
1, 65659, Note_off_c, 1, 72, 0
1, 65663, Note_on_c, 1, 71, 127
1, 65836, Note_off_c, 1, 60, 0
1, 65838, Note_off_c, 1, 71, 0
1, 65840, Note_on_c, 1, 69, 127
1, 65840, Note_on_c, 1, 62, 127
1, 66015, Note_off_c, 1, 69, 0
1, 66019, Note_on_c, 1, 72, 127
1, 66194, Note_off_c, 1, 72, 0
1, 66196, Note_on_c, 1, 71, 127
1, 66320, Note_off_c, 1, 62, 0
1, 66374, Note_on_c, 1, 55, 127
1, 66548, Note_off_c, 1, 71, 0
1, 66549, Note_off_c, 1, 55, 0
1, 66552, Note_on_c, 1, 53, 127
1, 66552, Note_on_c, 1, 72, 127
1, 66727, Note_off_c, 1, 53, 0
1, 66731, Note_on_c, 1, 52, 127
1, 66904, Note_off_c, 1, 72, 0
1, 66906, Note_off_c, 1, 52, 0
1, 66908, Note_on_c, 1, 50, 127
1, 66908, Note_on_c, 1, 74, 127
1, 67083, Note_off_c, 1, 50, 0
1, 67085, Note_on_c, 1, 53, 127
1, 67260, Note_off_c, 1, 53, 0
1, 67263, Note_on_c, 1, 43, 127
1, 67438, Note_off_c, 1, 74, 0
1, 67438, Note_off_c, 1, 43, 0
1, 67441, Note_on_c, 1, 53, 127
1, 67441, Note_on_c, 1, 67, 127
1, 67616, Note_off_c, 1, 53, 0
1, 67616, Note_off_c, 1, 67, 0
1, 67620, Note_on_c, 1, 52, 127
1, 67620, Note_on_c, 1, 72, 127
1, 67795, Note_off_c, 1, 52, 0
1, 67795, Note_off_c, 1, 72, 0
1, 67797, Note_on_c, 1, 50, 127
1, 67797, Note_on_c, 1, 74, 127
1, 67972, Note_off_c, 1, 50, 0
1, 67972, Note_off_c, 1, 74, 0
1, 67975, Note_on_c, 1, 48, 127
1, 67975, Note_on_c, 1, 76, 127
1, 68150, Note_off_c, 1, 48, 0
1, 68152, Note_on_c, 1, 52, 127
1, 68327, Note_off_c, 1, 52, 0
1, 68331, Note_on_c, 1, 43, 127
1, 68505, Note_off_c, 1, 76, 0
1, 68506, Note_off_c, 1, 43, 0
1, 68509, Note_on_c, 1, 52, 127
1, 68509, Note_on_c, 1, 72, 127
1, 68684, Note_off_c, 1, 52, 0
1, 68684, Note_off_c, 1, 72, 0
1, 68686, Note_on_c, 1, 50, 127
1, 68686, Note_on_c, 1, 74, 127
1, 68861, Note_off_c, 1, 50, 0
1, 68861, Note_off_c, 1, 74, 0
1, 68864, Note_on_c, 1, 48, 127
1, 68864, Note_on_c, 1, 76, 127
1, 69039, Note_off_c, 1, 48, 0
1, 69039, Note_off_c, 1, 76, 0
1, 69041, Note_on_c, 1, 47, 127
1, 69041, Note_on_c, 1, 77, 127
1, 69216, Note_off_c, 1, 47, 0
1, 69221, Note_on_c, 1, 50, 127
1, 69396, Note_off_c, 1, 50, 0
1, 69398, Note_on_c, 1, 43, 127
1, 69571, Note_off_c, 1, 77, 0
1, 69576, Note_on_c, 1, 79, 127
1, 69750, Note_off_c, 1, 43, 0
1, 69751, Note_off_c, 1, 79, 0
1, 69753, Note_on_c, 1, 77, 127
1, 69753, Note_on_c, 1, 45, 127
1, 69928, Note_off_c, 1, 77, 0
1, 69932, Note_on_c, 1, 76, 127
1, 70105, Note_off_c, 1, 45, 0
1, 70107, Note_off_c, 1, 76, 0
1, 70110, Note_on_c, 1, 74, 127
1, 70110, Note_on_c, 1, 47, 127
1, 70287, Note_on_c, 1, 77, 127
1, 70311, Note_off_c, 1, 74, 0
1, 70462, Note_off_c, 1, 47, 0
1, 70462, Note_off_c, 1, 77, 0
1, 70465, Note_on_c, 1, 48, 127
1, 70465, Note_on_c, 1, 76, 127
1, 70640, Note_off_c, 1, 48, 0
1, 70642, Note_on_c, 1, 62, 127
1, 70642, Note_on_c, 1, 64, 127
1, 70816, Note_off_c, 1, 76, 0
1, 70817, Note_off_c, 1, 62, 0
1, 70817, Note_off_c, 1, 64, 0
1, 70822, Note_on_c, 1, 60, 127
1, 70822, Note_on_c, 1, 66, 127
1, 70997, Note_off_c, 1, 60, 0
1, 70997, Note_off_c, 1, 66, 0
1, 70999, Note_on_c, 1, 59, 127
1, 70999, Note_on_c, 1, 68, 127
1, 71174, Note_off_c, 1, 59, 0
1, 71174, Note_off_c, 1, 68, 0
1, 71177, Note_on_c, 1, 57, 127
1, 71177, Note_on_c, 1, 69, 127
1, 71352, Note_off_c, 1, 57, 0
1, 71352, Note_off_c, 1, 69, 0
1, 71354, Note_on_c, 1, 60, 127
1, 71354, Note_on_c, 1, 66, 127
1, 71529, Note_off_c, 1, 60, 0
1, 71529, Note_off_c, 1, 66, 0
1, 71532, Note_on_c, 1, 47, 127
1, 71532, Note_on_c, 1, 74, 127
1, 71707, Note_off_c, 1, 47, 0
1, 71711, Note_on_c, 1, 60, 127
1, 71711, Note_on_c, 1, 66, 127
1, 71883, Note_off_c, 1, 74, 0
1, 71886, Note_off_c, 1, 60, 0
1, 71886, Note_off_c, 1, 66, 0
1, 71888, Note_on_c, 1, 59, 127
1, 71888, Note_on_c, 1, 68, 127
1, 72063, Note_off_c, 1, 59, 0
1, 72063, Note_off_c, 1, 68, 0
1, 72066, Note_on_c, 1, 57, 127
1, 72066, Note_on_c, 1, 69, 127
1, 72241, Note_off_c, 1, 57, 0
1, 72241, Note_off_c, 1, 69, 0
1, 72243, Note_on_c, 1, 56, 127
1, 72243, Note_on_c, 1, 71, 127
1, 72418, Note_off_c, 1, 56, 0
1, 72418, Note_off_c, 1, 71, 0
1, 72422, Note_on_c, 1, 59, 127
1, 72422, Note_on_c, 1, 68, 127
1, 72597, Note_off_c, 1, 59, 0
1, 72597, Note_off_c, 1, 68, 0
1, 72600, Note_on_c, 1, 45, 127
1, 72600, Note_on_c, 1, 72, 127
1, 72775, Note_off_c, 1, 45, 0
1, 72777, Note_on_c, 1, 59, 127
1, 72777, Note_on_c, 1, 68, 127
1, 72866, Note_off_c, 1, 72, 0
1, 72952, Note_off_c, 1, 59, 0
1, 72952, Note_off_c, 1, 68, 0
1, 72955, Note_on_c, 1, 57, 127
1, 72955, Note_on_c, 1, 69, 127
1, 73130, Note_off_c, 1, 57, 0
1, 73130, Note_off_c, 1, 69, 0
1, 73132, Note_on_c, 1, 56, 127
1, 73132, Note_on_c, 1, 71, 127
1, 73307, Note_off_c, 1, 56, 0
1, 73307, Note_off_c, 1, 71, 0
1, 73311, Note_on_c, 1, 54, 127
1, 73311, Note_on_c, 1, 72, 127
1, 73486, Note_off_c, 1, 54, 0
1, 73486, Note_off_c, 1, 72, 0
1, 73496, Note_on_c, 1, 57, 127
1, 73496, Note_on_c, 1, 69, 127
1, 73671, Note_off_c, 1, 57, 0
1, 73671, Note_off_c, 1, 69, 0
1, 73683, Note_on_c, 1, 72, 127
1, 73683, Note_on_c, 1, 51, 127
1, 73858, Note_off_c, 1, 72, 0
1, 73860, Note_on_c, 1, 71, 127
1, 74035, Note_off_c, 1, 51, 0
1, 74035, Note_off_c, 1, 71, 0
1, 74039, Note_on_c, 1, 69, 127
1, 74039, Note_on_c, 1, 52, 127
1, 74214, Note_off_c, 1, 69, 0
1, 74216, Note_on_c, 1, 68, 127
1, 74391, Note_off_c, 1, 52, 0
1, 74391, Note_off_c, 1, 68, 0
1, 74394, Note_on_c, 1, 53, 127
1, 74394, Note_on_c, 1, 69, 127
1, 74746, Note_off_c, 1, 53, 0
1, 74749, Note_on_c, 1, 52, 127
1, 74924, Note_off_c, 1, 69, 0
1, 74924, Note_off_c, 1, 52, 0
1, 74928, Note_on_c, 1, 71, 127
1, 74928, Note_on_c, 1, 50, 127
1, 75103, Note_off_c, 1, 71, 0
1, 75103, Note_off_c, 1, 50, 0
1, 75105, Note_on_c, 1, 72, 127
1, 75105, Note_on_c, 1, 52, 127
1, 75250, Note_on_c, 1, 71, 127
1, 75254, Note_off_c, 1, 72, 0
1, 75336, Note_off_c, 1, 71, 0
1, 75457, Note_off_c, 1, 52, 0
1, 75461, Note_on_c, 1, 40, 127
1, 75640, Note_on_c, 1, 69, 127
1, 75813, Note_off_c, 1, 40, 0
1, 75815, Note_off_c, 1, 69, 0
1, 75817, Note_on_c, 1, 45, 127
1, 75817, Note_on_c, 1, 69, 127
1, 75992, Note_off_c, 1, 45, 0
1, 75994, Note_on_c, 1, 57, 127
1, 76169, Note_off_c, 1, 57, 0
1, 76173, Note_on_c, 1, 55, 127
1, 76348, Note_off_c, 1, 55, 0
1, 76350, Note_on_c, 1, 54, 127
1, 76525, Note_off_c, 1, 54, 0
1, 76529, Note_on_c, 1, 52, 127
1, 76704, Note_off_c, 1, 52, 0
1, 76881, Note_off_c, 1, 69, 0
1, 76884, Note_on_c, 1, 54, 127
1, 77062, Note_on_c, 1, 74, 127
1, 77236, Note_off_c, 1, 54, 0
1, 77237, Note_off_c, 1, 74, 0
1, 77240, Note_on_c, 1, 72, 127
1, 77240, Note_on_c, 1, 50, 127
1, 77415, Note_off_c, 1, 72, 0
1, 77418, Note_on_c, 1, 71, 127
1, 77592, Note_off_c, 1, 50, 0
1, 77593, Note_off_c, 1, 71, 0
1, 77595, Note_on_c, 1, 69, 127
1, 77595, Note_on_c, 1, 54, 127
1, 77770, Note_off_c, 1, 69, 0
1, 77773, Note_on_c, 1, 72, 127
1, 77947, Note_off_c, 1, 54, 0
1, 77948, Note_off_c, 1, 72, 0
1, 77951, Note_on_c, 1, 71, 127
1, 77951, Note_on_c, 1, 55, 127
1, 78126, Note_off_c, 1, 71, 0
1, 78130, Note_on_c, 1, 74, 127
1, 78303, Note_off_c, 1, 55, 0
1, 78305, Note_off_c, 1, 74, 0
1, 78307, Note_on_c, 1, 76, 127
1, 78307, Note_on_c, 1, 54, 127
1, 78482, Note_off_c, 1, 76, 0
1, 78485, Note_on_c, 1, 78, 127
1, 78659, Note_off_c, 1, 54, 0
1, 78660, Note_off_c, 1, 78, 0
1, 78662, Note_on_c, 1, 79, 127
1, 78662, Note_on_c, 1, 52, 127
1, 78841, Note_on_c, 1, 73, 127
1, 78928, Note_off_c, 1, 79, 0
1, 79014, Note_off_c, 1, 52, 0
1, 79016, Note_off_c, 1, 73, 0
1, 79019, Note_on_c, 1, 50, 127
1, 79019, Note_on_c, 1, 78, 127
1, 79194, Note_off_c, 1, 50, 0
1, 79196, Note_on_c, 1, 71, 127
1, 79196, Note_on_c, 1, 55, 127
1, 79370, Note_off_c, 1, 78, 0
1, 79371, Note_off_c, 1, 71, 0
1, 79371, Note_off_c, 1, 55, 0
1, 79374, Note_on_c, 1, 72, 127
1, 79374, Note_on_c, 1, 57, 127
1, 79549, Note_off_c, 1, 72, 0
1, 79549, Note_off_c, 1, 57, 0
1, 79552, Note_on_c, 1, 74, 127
1, 79552, Note_on_c, 1, 59, 127
1, 79727, Note_off_c, 1, 74, 0
1, 79727, Note_off_c, 1, 59, 0
1, 79731, Note_on_c, 1, 76, 127
1, 79731, Note_on_c, 1, 60, 127
1, 79908, Note_on_c, 1, 69, 127
1, 79997, Note_off_c, 1, 76, 0
1, 80083, Note_off_c, 1, 69, 0
1, 80086, Note_on_c, 1, 74, 127
1, 80261, Note_off_c, 1, 60, 0
1, 80263, Note_on_c, 1, 67, 127
1, 80263, Note_on_c, 1, 59, 127
1, 80437, Note_off_c, 1, 74, 0
1, 80438, Note_off_c, 1, 67, 0
1, 80438, Note_off_c, 1, 59, 0
1, 80442, Note_on_c, 1, 69, 127
1, 80442, Note_on_c, 1, 57, 127
1, 80617, Note_off_c, 1, 69, 0
1, 80617, Note_off_c, 1, 57, 0
1, 80620, Note_on_c, 1, 71, 127
1, 80620, Note_on_c, 1, 55, 127
1, 80795, Note_off_c, 1, 71, 0
1, 80795, Note_off_c, 1, 55, 0
1, 80797, Note_on_c, 1, 72, 127
1, 80797, Note_on_c, 1, 57, 127
1, 80975, Note_on_c, 1, 66, 127
1, 81063, Note_off_c, 1, 72, 0
1, 81150, Note_off_c, 1, 66, 0
1, 81152, Note_on_c, 1, 71, 127
1, 81327, Note_off_c, 1, 57, 0
1, 81332, Note_on_c, 1, 59, 127
1, 81504, Note_off_c, 1, 71, 0
1, 81507, Note_off_c, 1, 59, 0
1, 81509, Note_on_c, 1, 76, 127
1, 81509, Note_on_c, 1, 57, 127
1, 81635, Note_off_c, 1, 76, 0
1, 81638, Note_on_c, 1, 75, 127
1, 81684, Note_off_c, 1, 57, 0
1, 81686, Note_on_c, 1, 55, 127
1, 81724, Note_off_c, 1, 75, 0
1, 81861, Note_off_c, 1, 55, 0
1, 81864, Note_on_c, 1, 54, 127
1, 82028, Note_on_c, 1, 73, 127
1, 82039, Note_off_c, 1, 54, 0
1, 82126, Note_off_c, 1, 73, 0
1, 82398, Note_on_c, 1, 59, 127
1, 82573, Note_off_c, 1, 59, 0
1, 82576, Note_on_c, 1, 79, 127
1, 82576, Note_on_c, 1, 61, 127
1, 82662, Note_off_c, 1, 79, 0
1, 82664, Note_on_c, 1, 78, 127
1, 82750, Note_off_c, 1, 78, 0
1, 82751, Note_off_c, 1, 61, 0
1, 82753, Note_on_c, 1, 76, 127
1, 82753, Note_on_c, 1, 63, 127
1, 82839, Note_off_c, 1, 76, 0
1, 82843, Note_on_c, 1, 78, 127
1, 82928, Note_off_c, 1, 63, 0
1, 82929, Note_off_c, 1, 78, 0
1, 82932, Note_on_c, 1, 64, 127
1, 82932, Note_on_c, 1, 79, 127
1, 83107, Note_off_c, 1, 64, 0
1, 83110, Note_on_c, 1, 57, 127
1, 83285, Note_off_c, 1, 57, 0
1, 83287, Note_on_c, 1, 62, 127
1, 83462, Note_off_c, 1, 79, 0
1, 83462, Note_off_c, 1, 62, 0
1, 83465, Note_on_c, 1, 78, 127
1, 83465, Note_on_c, 1, 55, 127
1, 83640, Note_off_c, 1, 78, 0
1, 83640, Note_off_c, 1, 55, 0
1, 83643, Note_on_c, 1, 76, 127
1, 83643, Note_on_c, 1, 57, 127
1, 83818, Note_off_c, 1, 76, 0
1, 83818, Note_off_c, 1, 57, 0
1, 83821, Note_on_c, 1, 75, 127
1, 83821, Note_on_c, 1, 59, 127
1, 83996, Note_off_c, 1, 75, 0
1, 83996, Note_off_c, 1, 59, 0
1, 83999, Note_on_c, 1, 60, 127
1, 83999, Note_on_c, 1, 76, 127
1, 84174, Note_off_c, 1, 60, 0
1, 84177, Note_on_c, 1, 54, 127
1, 84352, Note_off_c, 1, 54, 0
1, 84354, Note_on_c, 1, 59, 127
1, 84529, Note_off_c, 1, 76, 0
1, 84529, Note_off_c, 1, 59, 0
1, 84533, Note_on_c, 1, 74, 127
1, 84533, Note_on_c, 1, 52, 127
1, 84708, Note_off_c, 1, 74, 0
1, 84708, Note_off_c, 1, 52, 0
1, 84710, Note_on_c, 1, 72, 127
1, 84710, Note_on_c, 1, 54, 127
1, 84885, Note_off_c, 1, 72, 0
1, 84885, Note_off_c, 1, 54, 0
1, 84888, Note_on_c, 1, 71, 127
1, 84888, Note_on_c, 1, 55, 127
1, 85063, Note_off_c, 1, 71, 0
1, 85063, Note_off_c, 1, 55, 0
1, 85066, Note_on_c, 1, 57, 127
1, 85066, Note_on_c, 1, 72, 127
1, 85241, Note_off_c, 1, 57, 0
1, 85244, Note_on_c, 1, 81, 127
1, 85244, Note_on_c, 1, 50, 127
1, 85332, Note_off_c, 1, 72, 0
1, 85419, Note_off_c, 1, 81, 0
1, 85419, Note_off_c, 1, 50, 0
1, 85422, Note_on_c, 1, 71, 127
1, 85422, Note_on_c, 1, 55, 127
1, 85597, Note_off_c, 1, 71, 0
1, 85597, Note_off_c, 1, 55, 0
1, 85599, Note_on_c, 1, 62, 127
1, 85599, Note_on_c, 1, 54, 127
1, 85774, Note_off_c, 1, 62, 0
1, 85774, Note_off_c, 1, 54, 0
1, 85778, Note_on_c, 1, 64, 127
1, 85778, Note_on_c, 1, 55, 127
1, 85953, Note_off_c, 1, 64, 0
1, 85953, Note_off_c, 1, 55, 0
1, 85955, Note_on_c, 1, 66, 127
1, 85955, Note_on_c, 1, 57, 127
1, 86130, Note_off_c, 1, 66, 0
1, 86130, Note_off_c, 1, 57, 0
1, 86133, Note_on_c, 1, 59, 127
1, 86133, Note_on_c, 1, 67, 127
1, 86308, Note_off_c, 1, 59, 0
1, 86311, Note_on_c, 1, 61, 127
1, 86486, Note_off_c, 1, 61, 0
1, 86488, Note_on_c, 1, 62, 127
1, 86538, Note_off_c, 1, 67, 0
1, 86663, Note_off_c, 1, 62, 0
1, 86667, Note_on_c, 1, 66, 127
1, 86667, Note_on_c, 1, 57, 127
1, 86842, Note_off_c, 1, 66, 0
1, 86842, Note_off_c, 1, 57, 0
1, 86845, Note_on_c, 1, 68, 127
1, 86845, Note_on_c, 1, 59, 127
1, 87020, Note_off_c, 1, 68, 0
1, 87020, Note_off_c, 1, 59, 0
1, 87023, Note_on_c, 1, 69, 127
1, 87023, Note_on_c, 1, 60, 127
1, 87198, Note_off_c, 1, 69, 0
1, 87198, Note_off_c, 1, 60, 0
1, 87200, Note_on_c, 1, 71, 127
1, 87200, Note_on_c, 1, 62, 127
1, 87375, Note_off_c, 1, 71, 0
1, 87378, Note_on_c, 1, 68, 127
1, 87553, Note_off_c, 1, 68, 0
1, 87556, Note_on_c, 1, 69, 127
1, 87643, Note_off_c, 1, 62, 0
1, 87731, Note_off_c, 1, 69, 0
1, 87734, Note_on_c, 1, 64, 127
1, 87734, Note_on_c, 1, 61, 127
1, 87909, Note_off_c, 1, 64, 0
1, 87909, Note_off_c, 1, 61, 0
1, 87912, Note_on_c, 1, 66, 127
1, 87912, Note_on_c, 1, 63, 127
1, 88087, Note_off_c, 1, 66, 0
1, 88087, Note_off_c, 1, 63, 0
1, 88089, Note_on_c, 1, 67, 127
1, 88089, Note_on_c, 1, 64, 127
1, 88264, Note_off_c, 1, 67, 0
1, 88264, Note_off_c, 1, 64, 0
1, 88267, Note_on_c, 1, 66, 127
1, 88267, Note_on_c, 1, 69, 127
1, 88442, Note_off_c, 1, 66, 0
1, 88446, Note_on_c, 1, 63, 127
1, 88621, Note_off_c, 1, 63, 0
1, 88624, Note_on_c, 1, 64, 127
1, 88710, Note_off_c, 1, 69, 0
1, 88799, Note_off_c, 1, 64, 0
1, 88801, Note_on_c, 1, 67, 127
1, 88801, Note_on_c, 1, 52, 127
1, 88976, Note_off_c, 1, 67, 0
1, 88976, Note_off_c, 1, 52, 0
1, 88979, Note_on_c, 1, 69, 127
1, 88979, Note_on_c, 1, 54, 127
1, 89154, Note_off_c, 1, 69, 0
1, 89154, Note_off_c, 1, 54, 0
1, 89156, Note_on_c, 1, 71, 127
1, 89156, Note_on_c, 1, 55, 127
1, 89331, Note_off_c, 1, 71, 0
1, 89331, Note_off_c, 1, 55, 0
1, 89335, Note_on_c, 1, 72, 127
1, 89335, Note_on_c, 1, 57, 127
1, 89510, Note_off_c, 1, 72, 0
1, 89510, Note_off_c, 1, 57, 0
1, 89513, Note_on_c, 1, 69, 127
1, 89513, Note_on_c, 1, 54, 127
1, 89688, Note_off_c, 1, 69, 0
1, 89688, Note_off_c, 1, 54, 0
1, 89690, Note_on_c, 1, 71, 127
1, 89690, Note_on_c, 1, 55, 127
1, 89865, Note_off_c, 1, 71, 0
1, 89868, Note_on_c, 1, 75, 127
1, 90042, Note_off_c, 1, 55, 0
1, 90043, Note_off_c, 1, 75, 0
1, 90047, Note_on_c, 1, 76, 127
1, 90047, Note_on_c, 1, 54, 127
1, 90222, Note_off_c, 1, 76, 0
1, 90225, Note_on_c, 1, 78, 127
1, 90399, Note_off_c, 1, 54, 0
1, 90400, Note_off_c, 1, 78, 0
1, 90402, Note_on_c, 1, 79, 127
1, 90402, Note_on_c, 1, 52, 127
1, 90577, Note_off_c, 1, 79, 0
1, 90579, Note_on_c, 1, 76, 127
1, 90754, Note_off_c, 1, 52, 0
1, 90754, Note_off_c, 1, 76, 0
1, 90757, Note_on_c, 1, 60, 127
1, 90757, Note_on_c, 1, 78, 127
1, 90868, Note_on_c, 1, 59, 127
1, 90894, Note_off_c, 1, 60, 0
1, 90932, Note_off_c, 1, 78, 0
1, 90936, Note_on_c, 1, 76, 127
1, 90954, Note_off_c, 1, 59, 0
1, 91111, Note_off_c, 1, 76, 0
1, 91114, Note_on_c, 1, 75, 127
1, 91289, Note_off_c, 1, 75, 0
1, 91291, Note_on_c, 1, 73, 127
1, 91466, Note_off_c, 1, 73, 0
1, 91469, Note_on_c, 1, 71, 127
1, 91644, Note_off_c, 1, 71, 0
1, 91647, Note_on_c, 1, 69, 127
1, 91822, Note_off_c, 1, 69, 0
1, 91826, Note_on_c, 1, 67, 127
1, 92001, Note_off_c, 1, 67, 0
1, 93781, Note_on_c, 1, 66, 127
1, 93948, Note_off_c, 1, 66, 0
1, 94059, Note_on_c, 1, 64, 127
1, 94137, Note_on_c, 1, 56, 127
1, 94145, Note_off_c, 1, 64, 0
1, 94312, Note_off_c, 1, 56, 0
1, 94315, Note_on_c, 1, 57, 127
1, 94490, Note_off_c, 1, 57, 0
1, 95560, Note_on_c, 1, 54, 127
1, 95735, Note_off_c, 1, 54, 0
1, 95738, Note_on_c, 1, 52, 127
1, 95913, Note_off_c, 1, 52, 0
1, 95916, Note_on_c, 1, 50, 127
1, 96091, Note_off_c, 1, 50, 0
1, 96093, Note_on_c, 1, 48, 127
1, 96268, Note_off_c, 1, 48, 0
1, 97517, Note_on_c, 1, 74, 127
1, 97517, Note_on_c, 1, 52, 127
1, 97603, Note_off_c, 1, 74, 0
1, 97605, Note_on_c, 1, 72, 127
1, 97691, Note_off_c, 1, 72, 0
1, 97692, Note_off_c, 1, 52, 0
1, 97694, Note_on_c, 1, 50, 127
1, 97694, Note_on_c, 1, 74, 127
1, 97869, Note_off_c, 1, 50, 0
1, 97872, Note_on_c, 1, 48, 127
1, 98047, Note_off_c, 1, 48, 0
1, 98050, Note_on_c, 1, 47, 127
1, 98225, Note_off_c, 1, 47, 0
1, 98228, Note_on_c, 1, 45, 127
1, 98401, Note_off_c, 1, 74, 0
1, 98406, Note_on_c, 1, 76, 127
1, 98567, Note_off_c, 1, 45, 0
1, 98581, Note_off_c, 1, 76, 0
1, 98583, Note_on_c, 1, 74, 127
1, 98583, Note_on_c, 1, 52, 127
1, 98758, Note_off_c, 1, 74, 0
1, 98761, Note_on_c, 1, 72, 127
1, 98922, Note_off_c, 1, 52, 0
1, 98936, Note_off_c, 1, 72, 0
1, 98940, Note_on_c, 1, 71, 127
1, 98940, Note_on_c, 1, 56, 127
1, 99115, Note_off_c, 1, 71, 0
1, 99118, Note_on_c, 1, 74, 127
1, 99279, Note_off_c, 1, 56, 0
1, 99293, Note_off_c, 1, 74, 0
1, 99295, Note_on_c, 1, 57, 127
1, 99295, Note_on_c, 1, 72, 127
1, 99470, Note_off_c, 1, 57, 0
1, 99472, Note_on_c, 1, 59, 127
1, 99617, Note_off_c, 1, 72, 0
1, 99647, Note_off_c, 1, 59, 0
1, 99651, Note_on_c, 1, 57, 127
1, 99651, Note_on_c, 1, 76, 127
1, 99826, Note_off_c, 1, 57, 0
1, 99829, Note_on_c, 1, 55, 127
1, 99973, Note_off_c, 1, 76, 0
1, 100004, Note_off_c, 1, 55, 0
1, 100007, Note_on_c, 1, 54, 127
1, 100007, Note_on_c, 1, 81, 127
1, 100182, Note_off_c, 1, 54, 0
1, 100184, Note_on_c, 1, 57, 127
1, 100359, Note_off_c, 1, 57, 0
1, 100362, Note_on_c, 1, 51, 127
1, 100537, Note_off_c, 1, 81, 0
1, 100541, Note_on_c, 1, 83, 127
1, 100658, Note_off_c, 1, 51, 0
1, 100716, Note_off_c, 1, 83, 0
1, 100719, Note_on_c, 1, 60, 127
1, 100719, Note_on_c, 1, 81, 127
1, 100805, Note_off_c, 1, 60, 0
1, 100807, Note_on_c, 1, 59, 127
1, 100893, Note_off_c, 1, 59, 0
1, 100894, Note_off_c, 1, 81, 0
1, 100896, Note_on_c, 1, 79, 127
1, 100896, Note_on_c, 1, 60, 127
1, 101071, Note_off_c, 1, 79, 0
1, 101073, Note_on_c, 1, 78, 127
1, 101248, Note_off_c, 1, 78, 0
1, 101251, Note_on_c, 1, 81, 127
1, 101426, Note_off_c, 1, 81, 0
1, 101430, Note_on_c, 1, 75, 127
1, 101603, Note_off_c, 1, 60, 0
1, 101608, Note_on_c, 1, 57, 127
1, 101743, Note_off_c, 1, 75, 0
1, 101783, Note_off_c, 1, 57, 0
1, 101785, Note_on_c, 1, 84, 127
1, 101785, Note_on_c, 1, 54, 127
1, 101871, Note_off_c, 1, 84, 0
1, 101874, Note_on_c, 1, 83, 127
1, 101960, Note_off_c, 1, 54, 0
1, 101960, Note_off_c, 1, 83, 0
1, 101963, Note_on_c, 1, 57, 127
1, 101963, Note_on_c, 1, 84, 127
1, 102138, Note_off_c, 1, 57, 0
1, 102141, Note_on_c, 1, 51, 127
1, 102316, Note_off_c, 1, 51, 0
1, 102320, Note_on_c, 1, 54, 127
1, 102495, Note_off_c, 1, 54, 0
1, 102497, Note_on_c, 1, 47, 127
1, 102670, Note_off_c, 1, 84, 0
1, 102674, Note_on_c, 1, 83, 127
1, 102819, Note_off_c, 1, 47, 0
1, 102849, Note_off_c, 1, 83, 0
1, 102852, Note_on_c, 1, 64, 127
1, 102852, Note_on_c, 1, 81, 127
1, 102938, Note_off_c, 1, 64, 0
1, 102942, Note_on_c, 1, 63, 127
1, 103027, Note_off_c, 1, 81, 0
1, 103028, Note_off_c, 1, 63, 0
1, 103030, Note_on_c, 1, 64, 127
1, 103030, Note_on_c, 1, 79, 127
1, 103116, Note_off_c, 1, 64, 0
1, 103119, Note_on_c, 1, 63, 127
1, 103205, Note_off_c, 1, 79, 0
1, 103205, Note_off_c, 1, 63, 0
1, 103209, Note_on_c, 1, 64, 127
1, 103209, Note_on_c, 1, 78, 127
1, 103295, Note_off_c, 1, 64, 0
1, 103297, Note_on_c, 1, 63, 127
1, 103383, Note_off_c, 1, 63, 0
1, 103384, Note_off_c, 1, 78, 0
1, 103386, Note_on_c, 1, 61, 127
1, 103386, Note_on_c, 1, 81, 127
1, 103472, Note_off_c, 1, 61, 0
1, 103475, Note_on_c, 1, 63, 127
1, 103561, Note_off_c, 1, 81, 0
1, 103561, Note_off_c, 1, 63, 0
1, 103564, Note_on_c, 1, 64, 127
1, 103564, Note_on_c, 1, 79, 127
1, 103739, Note_off_c, 1, 64, 0
1, 103742, Note_on_c, 1, 63, 127
1, 103917, Note_off_c, 1, 63, 0
1, 104098, Note_on_c, 1, 66, 127
1, 104273, Note_off_c, 1, 66, 0
1, 104275, Note_on_c, 1, 67, 127
1, 104450, Note_off_c, 1, 67, 0
1, 104631, Note_on_c, 1, 58, 127
1, 104806, Note_off_c, 1, 79, 0
1, 104806, Note_off_c, 1, 58, 0
1, 104809, Note_on_c, 1, 78, 127
1, 104809, Note_on_c, 1, 59, 127
1, 104984, Note_off_c, 1, 78, 0
1, 104984, Note_off_c, 1, 59, 0
1, 104987, Note_on_c, 1, 76, 127
1, 104987, Note_on_c, 1, 61, 127
1, 105162, Note_off_c, 1, 76, 0
1, 105162, Note_off_c, 1, 61, 0
1, 105165, Note_on_c, 1, 74, 127
1, 105165, Note_on_c, 1, 62, 127
1, 105340, Note_off_c, 1, 74, 0
1, 105340, Note_off_c, 1, 62, 0
1, 105343, Note_on_c, 1, 73, 127
1, 105343, Note_on_c, 1, 64, 127
1, 105518, Note_off_c, 1, 73, 0
1, 105518, Note_off_c, 1, 64, 0
1, 105520, Note_on_c, 1, 76, 127
1, 105520, Note_on_c, 1, 61, 127
1, 105695, Note_off_c, 1, 76, 0
1, 105695, Note_off_c, 1, 61, 0
1, 105698, Note_on_c, 1, 70, 127
1, 105698, Note_on_c, 1, 54, 127
1, 105873, Note_off_c, 1, 70, 0
1, 105876, Note_on_c, 1, 79, 127
1, 106050, Note_off_c, 1, 54, 0
1, 106051, Note_off_c, 1, 79, 0
1, 106054, Note_on_c, 1, 78, 127
1, 106054, Note_on_c, 1, 58, 127
1, 106229, Note_off_c, 1, 78, 0
1, 106232, Note_on_c, 1, 76, 127
1, 106406, Note_off_c, 1, 58, 0
1, 106407, Note_off_c, 1, 76, 0
1, 106410, Note_on_c, 1, 75, 127
1, 106410, Note_on_c, 1, 59, 127
1, 106585, Note_off_c, 1, 75, 0
1, 106587, Note_on_c, 1, 78, 127
1, 106762, Note_off_c, 1, 59, 0
1, 106762, Note_off_c, 1, 78, 0
1, 106766, Note_on_c, 1, 69, 127
1, 106766, Note_on_c, 1, 60, 127
1, 106941, Note_off_c, 1, 69, 0
1, 106944, Note_on_c, 1, 72, 127
1, 107118, Note_off_c, 1, 60, 0
1, 107119, Note_off_c, 1, 72, 0
1, 107121, Note_on_c, 1, 71, 127
1, 107121, Note_on_c, 1, 51, 127
1, 107296, Note_off_c, 1, 71, 0
1, 107299, Note_on_c, 1, 69, 127
1, 107473, Note_off_c, 1, 51, 0
1, 107474, Note_off_c, 1, 69, 0
1, 107476, Note_on_c, 1, 67, 127
1, 107476, Note_on_c, 1, 52, 127
1, 107651, Note_off_c, 1, 67, 0
1, 107655, Note_on_c, 1, 71, 127
1, 107837, Note_off_c, 1, 52, 0
1, 107840, Note_off_c, 1, 71, 0
1, 107846, Note_on_c, 1, 64, 127
1, 107846, Note_on_c, 1, 48, 127
1, 108198, Note_off_c, 1, 64, 0
1, 108198, Note_off_c, 1, 48, 0
1, 108204, Note_on_c, 1, 66, 127
1, 108204, Note_on_c, 1, 45, 127
1, 108279, Note_on_c, 1, 64, 127
1, 108290, Note_off_c, 1, 66, 0
1, 108365, Note_off_c, 1, 64, 0
1, 108556, Note_off_c, 1, 45, 0
1, 108561, Note_on_c, 1, 64, 127
1, 108561, Note_on_c, 1, 47, 127
1, 108646, Note_on_c, 1, 63, 127
1, 108647, Note_off_c, 1, 64, 0
1, 108731, Note_on_c, 1, 61, 127
1, 108732, Note_off_c, 1, 63, 0
1, 108817, Note_off_c, 1, 61, 0
1, 108913, Note_off_c, 1, 47, 0
1, 108916, Note_on_c, 1, 36, 127
1, 108916, Note_on_c, 1, 64, 127
1, 109095, Note_off_c, 1, 36, 0
1, 109095, Note_off_c, 1, 64, 0
1, 109097, Note_on_c, 1, 40, 127
1, 109097, Note_on_c, 1, 68, 127
1, 109276, Note_off_c, 1, 40, 0
1, 109276, Note_off_c, 1, 68, 0
1, 109278, Note_on_c, 1, 42, 127
1, 109278, Note_on_c, 1, 69, 127
1, 109457, Note_off_c, 1, 42, 0
1, 109457, Note_off_c, 1, 69, 0
1, 109461, Note_on_c, 1, 44, 127
1, 109461, Note_on_c, 1, 71, 127
1, 109640, Note_off_c, 1, 44, 0
1, 109640, Note_off_c, 1, 71, 0
1, 109643, Note_on_c, 1, 45, 127
1, 109643, Note_on_c, 1, 72, 127
1, 109822, Note_off_c, 1, 45, 0
1, 109822, Note_off_c, 1, 72, 0
1, 109824, Note_on_c, 1, 42, 127
1, 109824, Note_on_c, 1, 69, 127
1, 110003, Note_off_c, 1, 42, 0
1, 110003, Note_off_c, 1, 69, 0
1, 110005, Note_on_c, 1, 44, 127
1, 110005, Note_on_c, 1, 71, 127
1, 110184, Note_off_c, 1, 44, 0
1, 110184, Note_off_c, 1, 71, 0
1, 110186, Note_on_c, 1, 47, 127
1, 110186, Note_on_c, 1, 69, 127
1, 110365, Note_off_c, 1, 47, 0
1, 110365, Note_off_c, 1, 69, 0
1, 110368, Note_on_c, 1, 48, 127
1, 110368, Note_on_c, 1, 68, 127
1, 110547, Note_off_c, 1, 48, 0
1, 110547, Note_off_c, 1, 68, 0
1, 110551, Note_on_c, 1, 50, 127
1, 110551, Note_on_c, 1, 66, 127
1, 110730, Note_off_c, 1, 50, 0
1, 110730, Note_off_c, 1, 66, 0
1, 110732, Note_on_c, 1, 52, 127
1, 110732, Note_on_c, 1, 64, 127
1, 110911, Note_off_c, 1, 52, 0
1, 110911, Note_off_c, 1, 64, 0
1, 110913, Note_on_c, 1, 54, 127
1, 110913, Note_on_c, 1, 74, 127
1, 111092, Note_off_c, 1, 54, 0
1, 111092, Note_off_c, 1, 74, 0
1, 111094, Note_on_c, 1, 73, 127
1, 111094, Note_on_c, 1, 55, 127
1, 111275, Note_off_c, 1, 73, 0
1, 111278, Note_on_c, 1, 75, 127
1, 111458, Note_off_c, 1, 55, 0
1, 111459, Note_off_c, 1, 75, 0
1, 111462, Note_on_c, 1, 76, 127
1, 111462, Note_on_c, 1, 54, 127
1, 111643, Note_off_c, 1, 76, 0
1, 111646, Note_on_c, 1, 78, 127
1, 111826, Note_off_c, 1, 54, 0
1, 111827, Note_off_c, 1, 78, 0
1, 111829, Note_on_c, 1, 79, 127
1, 111829, Note_on_c, 1, 52, 127
1, 112010, Note_off_c, 1, 79, 0
1, 112012, Note_on_c, 1, 76, 127
1, 112193, Note_off_c, 1, 52, 0
1, 112193, Note_off_c, 1, 76, 0
1, 112195, Note_on_c, 1, 78, 127
1, 112195, Note_on_c, 1, 51, 127
1, 112376, Note_off_c, 1, 78, 0
1, 112378, Note_on_c, 1, 76, 127
1, 112559, Note_off_c, 1, 51, 0
1, 112559, Note_off_c, 1, 76, 0
1, 112562, Note_on_c, 1, 75, 127
1, 112562, Note_on_c, 1, 47, 127
1, 112743, Note_off_c, 1, 75, 0
1, 112745, Note_on_c, 1, 73, 127
1, 112926, Note_off_c, 1, 47, 0
1, 112926, Note_off_c, 1, 73, 0
1, 112930, Note_on_c, 1, 71, 127
1, 112930, Note_on_c, 1, 51, 127
1, 113111, Note_off_c, 1, 71, 0
1, 113113, Note_on_c, 1, 69, 127
1, 113294, Note_off_c, 1, 51, 0
1, 113294, Note_off_c, 1, 69, 0
1, 113296, Note_on_c, 1, 67, 127
1, 113296, Note_on_c, 1, 52, 127
1, 113658, Note_off_c, 1, 67, 0
1, 113681, Note_off_c, 1, 52, 0
1, 113683, Note_on_c, 1, 69, 127
1, 113683, Note_on_c, 1, 45, 127
1, 113754, Note_on_c, 1, 67, 127
1, 113777, Note_off_c, 1, 69, 0
1, 113848, Note_off_c, 1, 67, 0
1, 114066, Note_off_c, 1, 45, 0
1, 114068, Note_on_c, 1, 67, 127
1, 114068, Note_on_c, 1, 47, 127
1, 114170, Note_on_c, 1, 66, 127
1, 114175, Note_off_c, 1, 67, 0
1, 114274, Note_on_c, 1, 64, 127
1, 114279, Note_off_c, 1, 66, 0
1, 114383, Note_off_c, 1, 64, 0
1, 114513, Note_off_c, 1, 47, 0
1, 114517, Note_on_c, 1, 40, 127
1, 114517, Note_on_c, 1, 64, 127
1, 116317, Note_off_c, 1, 40, 0
1, 116317, Note_off_c, 1, 64, 0
1, 116592, Note_on_c, 1, 64, 127
1, 116720, Note_off_c, 1, 64, 0
1, 116725, Note_on_c, 1, 66, 127
1, 116853, Note_off_c, 1, 66, 0
1, 116856, Note_on_c, 1, 67, 127
1, 117235, Note_off_c, 1, 67, 0
1, 117246, Note_on_c, 1, 69, 127
1, 117342, Note_off_c, 1, 69, 0
1, 117344, Note_on_c, 1, 67, 127
1, 117440, Note_off_c, 1, 67, 0
1, 117442, Note_on_c, 1, 66, 127
1, 117538, Note_off_c, 1, 66, 0
1, 117540, Note_on_c, 1, 67, 127
1, 117636, Note_off_c, 1, 67, 0
1, 117638, Note_on_c, 1, 69, 127
1, 118017, Note_off_c, 1, 69, 0
1, 118027, Note_on_c, 1, 71, 127
1, 118123, Note_off_c, 1, 71, 0
1, 118125, Note_on_c, 1, 69, 127
1, 118221, Note_off_c, 1, 69, 0
1, 118224, Note_on_c, 1, 67, 127
1, 118320, Note_off_c, 1, 67, 0
1, 118322, Note_on_c, 1, 69, 127
1, 118418, Note_off_c, 1, 69, 0
1, 118420, Note_on_c, 1, 71, 127
1, 118784, Note_off_c, 1, 71, 0
1, 118809, Note_on_c, 1, 67, 127
1, 119173, Note_off_c, 1, 67, 0
1, 119198, Note_on_c, 1, 64, 127
1, 119562, Note_off_c, 1, 64, 0
1, 119587, Note_on_c, 1, 72, 127
1, 120366, Note_on_c, 1, 71, 127
1, 120374, Note_off_c, 1, 72, 0
1, 120607, Note_off_c, 1, 71, 0
1, 120627, Note_on_c, 1, 75, 127
1, 120755, Note_off_c, 1, 75, 0
1, 120757, Note_on_c, 1, 76, 127
1, 121136, Note_off_c, 1, 76, 0
1, 121147, Note_on_c, 1, 69, 127
1, 121928, Note_on_c, 1, 67, 127
1, 121934, Note_off_c, 1, 69, 0
1, 122169, Note_off_c, 1, 67, 0
1, 122186, Note_on_c, 1, 75, 127
1, 122314, Note_off_c, 1, 75, 0
1, 122318, Note_on_c, 1, 76, 127
1, 122697, Note_off_c, 1, 76, 0
1, 122707, Note_on_c, 1, 66, 127
1, 123224, Note_off_c, 1, 66, 0
1, 123227, Note_on_c, 1, 67, 127
1, 123355, Note_off_c, 1, 67, 0
1, 123359, Note_on_c, 1, 69, 127
1, 123487, Note_off_c, 1, 69, 0
1, 123491, Note_on_c, 1, 67, 127
1, 123619, Note_off_c, 1, 67, 0
1, 123622, Note_on_c, 1, 66, 127
1, 123750, Note_off_c, 1, 66, 0
1, 123754, Note_on_c, 1, 64, 127
1, 123882, Note_off_c, 1, 64, 0
1, 123885, Note_on_c, 1, 63, 127
1, 124013, Note_off_c, 1, 63, 0
1, 124018, Note_on_c, 1, 72, 127
1, 124146, Note_off_c, 1, 72, 0
1, 124149, Note_on_c, 1, 71, 127
1, 124277, Note_off_c, 1, 71, 0
1, 124280, Note_on_c, 1, 69, 127
1, 124408, Note_off_c, 1, 69, 0
1, 124412, Note_on_c, 1, 67, 127
1, 124540, Note_off_c, 1, 67, 0
1, 124543, Note_on_c, 1, 66, 127
1, 124671, Note_off_c, 1, 66, 0
1, 124675, Note_on_c, 1, 67, 127
1, 124803, Note_off_c, 1, 67, 0
1, 124807, Note_on_c, 1, 69, 127
1, 124935, Note_off_c, 1, 69, 0
1, 124938, Note_on_c, 1, 71, 127
1, 125066, Note_off_c, 1, 71, 0
1, 125069, Note_on_c, 1, 69, 127
1, 125197, Note_off_c, 1, 69, 0
1, 125201, Note_on_c, 1, 67, 127
1, 125329, Note_off_c, 1, 67, 0
1, 125333, Note_on_c, 1, 66, 127
1, 125461, Note_off_c, 1, 66, 0
1, 125464, Note_on_c, 1, 64, 127
1, 125592, Note_off_c, 1, 64, 0
1, 125596, Note_on_c, 1, 76, 127
1, 125724, Note_off_c, 1, 76, 0
1, 125727, Note_on_c, 1, 74, 127
1, 125855, Note_off_c, 1, 74, 0
1, 125858, Note_on_c, 1, 73, 127
1, 125986, Note_off_c, 1, 73, 0
1, 125990, Note_on_c, 1, 71, 127
1, 125990, Note_on_c, 1, 59, 127
1, 126118, Note_off_c, 1, 71, 0
1, 126118, Note_off_c, 1, 59, 0
1, 126122, Note_on_c, 1, 70, 127
1, 126122, Note_on_c, 1, 61, 127
1, 126250, Note_off_c, 1, 70, 0
1, 126250, Note_off_c, 1, 61, 0
1, 126254, Note_on_c, 1, 71, 127
1, 126254, Note_on_c, 1, 62, 127
1, 126382, Note_off_c, 1, 71, 0
1, 126385, Note_on_c, 1, 74, 127
1, 126513, Note_off_c, 1, 74, 0
1, 126516, Note_on_c, 1, 78, 127
1, 126637, Note_off_c, 1, 62, 0
1, 126642, Note_off_c, 1, 78, 0
1, 126647, Note_on_c, 1, 64, 127
1, 126647, Note_on_c, 1, 80, 127
1, 126743, Note_off_c, 1, 64, 0
1, 126745, Note_on_c, 1, 62, 127
1, 126841, Note_off_c, 1, 62, 0
1, 126843, Note_on_c, 1, 61, 127
1, 126939, Note_off_c, 1, 61, 0
1, 127037, Note_off_c, 1, 80, 0
1, 127039, Note_on_c, 1, 73, 127
1, 127039, Note_on_c, 1, 64, 127
1, 127167, Note_off_c, 1, 73, 0
1, 127170, Note_on_c, 1, 76, 127
1, 127298, Note_off_c, 1, 76, 0
1, 127302, Note_on_c, 1, 79, 127
1, 127422, Note_off_c, 1, 64, 0
1, 127430, Note_off_c, 1, 79, 0
1, 127434, Note_on_c, 1, 66, 127
1, 127434, Note_on_c, 1, 82, 127
1, 127530, Note_off_c, 1, 66, 0
1, 127532, Note_on_c, 1, 64, 127
1, 127628, Note_off_c, 1, 64, 0
1, 127630, Note_on_c, 1, 62, 127
1, 127726, Note_off_c, 1, 62, 0
1, 127824, Note_off_c, 1, 82, 0
1, 127826, Note_on_c, 1, 74, 127
1, 127826, Note_on_c, 1, 66, 127
1, 127954, Note_off_c, 1, 74, 0
1, 127958, Note_on_c, 1, 78, 127
1, 128086, Note_off_c, 1, 78, 0
1, 128089, Note_on_c, 1, 82, 127
1, 128209, Note_off_c, 1, 66, 0
1, 128215, Note_off_c, 1, 82, 0
1, 128219, Note_on_c, 1, 62, 127
1, 128219, Note_on_c, 1, 83, 127
1, 128598, Note_off_c, 1, 62, 0
1, 128608, Note_on_c, 1, 59, 127
1, 128736, Note_off_c, 1, 83, 0
1, 128740, Note_on_c, 1, 81, 127
1, 128868, Note_off_c, 1, 81, 0
1, 128870, Note_on_c, 1, 79, 127
1, 128991, Note_off_c, 1, 59, 0
1, 128996, Note_off_c, 1, 79, 0
1, 129001, Note_on_c, 1, 78, 127
1, 129001, Note_on_c, 1, 67, 127
1, 129129, Note_off_c, 1, 78, 0
1, 129133, Note_on_c, 1, 76, 127
1, 129261, Note_off_c, 1, 76, 0
1, 129264, Note_on_c, 1, 75, 127
1, 129392, Note_off_c, 1, 75, 0
1, 129784, Note_off_c, 1, 67, 0
1, 129786, Note_on_c, 1, 66, 127
1, 130044, Note_off_c, 1, 66, 0
1, 130049, Note_on_c, 1, 70, 127
1, 130177, Note_off_c, 1, 70, 0
1, 130179, Note_on_c, 1, 71, 127
1, 130179, Note_on_c, 1, 74, 127
1, 130567, Note_off_c, 1, 71, 0
1, 130570, Note_on_c, 1, 64, 127
1, 130958, Note_off_c, 1, 74, 0
1, 130960, Note_on_c, 1, 73, 127
1, 131349, Note_off_c, 1, 64, 0
1, 131352, Note_on_c, 1, 62, 127
1, 131610, Note_off_c, 1, 62, 0
1, 131614, Note_on_c, 1, 70, 127
1, 131741, Note_off_c, 1, 73, 0
1, 131742, Note_off_c, 1, 70, 0
1, 131745, Note_on_c, 1, 71, 127
1, 132135, Note_on_c, 1, 61, 127
1, 132522, Note_off_c, 1, 71, 0
1, 132525, Note_on_c, 1, 70, 127
1, 132654, Note_off_c, 1, 61, 0
1, 132656, Note_on_c, 1, 62, 127
1, 132784, Note_off_c, 1, 62, 0
1, 132788, Note_on_c, 1, 64, 127
1, 132916, Note_off_c, 1, 64, 0
1, 132917, Note_off_c, 1, 70, 0
1, 132920, Note_on_c, 1, 62, 127
1, 132920, Note_on_c, 1, 71, 127
1, 133048, Note_off_c, 1, 62, 0
1, 133051, Note_on_c, 1, 61, 127
1, 133179, Note_off_c, 1, 61, 0
1, 133182, Note_on_c, 1, 59, 127
1, 133310, Note_off_c, 1, 59, 0
1, 133312, Note_off_c, 1, 71, 0
1, 133315, Note_on_c, 1, 58, 127
1, 133315, Note_on_c, 1, 73, 127
1, 133443, Note_off_c, 1, 58, 0
1, 133446, Note_on_c, 1, 67, 127
1, 133574, Note_off_c, 1, 67, 0
1, 133577, Note_on_c, 1, 66, 127
1, 133705, Note_off_c, 1, 66, 0
1, 133709, Note_on_c, 1, 64, 127
1, 133837, Note_off_c, 1, 64, 0
1, 133840, Note_on_c, 1, 62, 127
1, 133968, Note_off_c, 1, 62, 0
1, 133972, Note_on_c, 1, 61, 127
1, 134100, Note_off_c, 1, 61, 0
1, 134496, Note_off_c, 1, 73, 0
1, 134498, Note_on_c, 1, 64, 127
1, 134498, Note_on_c, 1, 78, 127
1, 134626, Note_off_c, 1, 64, 0
1, 134630, Note_on_c, 1, 62, 127
1, 134758, Note_off_c, 1, 78, 0
1, 134758, Note_off_c, 1, 62, 0
1, 134761, Note_on_c, 1, 70, 127
1, 134761, Note_on_c, 1, 61, 127
1, 134889, Note_off_c, 1, 70, 0
1, 134889, Note_off_c, 1, 61, 0
1, 134893, Note_on_c, 1, 59, 127
1, 134893, Note_on_c, 1, 71, 127
1, 135021, Note_off_c, 1, 59, 0
1, 135024, Note_on_c, 1, 69, 127
1, 135152, Note_off_c, 1, 69, 0
1, 135156, Note_on_c, 1, 67, 127
1, 135284, Note_off_c, 1, 67, 0
1, 135287, Note_on_c, 1, 66, 127
1, 135415, Note_off_c, 1, 66, 0
1, 135419, Note_on_c, 1, 64, 127
1, 135419, Note_on_c, 1, 52, 127
1, 135547, Note_off_c, 1, 64, 0
1, 135547, Note_off_c, 1, 52, 0
1, 135551, Note_on_c, 1, 63, 127
1, 135551, Note_on_c, 1, 54, 127
1, 135679, Note_off_c, 1, 63, 0
1, 135679, Note_off_c, 1, 54, 0
1, 135682, Note_on_c, 1, 55, 127
1, 135810, Note_off_c, 1, 71, 0
1, 136074, Note_off_c, 1, 55, 0
1, 136077, Note_on_c, 1, 57, 127
1, 136077, Note_on_c, 1, 73, 127
1, 136173, Note_off_c, 1, 57, 0
1, 136597, Note_off_c, 1, 73, 0
1, 136733, Note_on_c, 1, 72, 127
1, 136861, Note_off_c, 1, 72, 0
1, 136864, Note_on_c, 1, 75, 127
1, 137384, Note_off_c, 1, 75, 0
1, 137652, Note_on_c, 1, 76, 127
1, 138043, Note_on_c, 1, 68, 127
1, 138171, Note_off_c, 1, 68, 0
1, 138174, Note_on_c, 1, 74, 127
1, 138302, Note_off_c, 1, 74, 0
1, 138437, Note_on_c, 1, 60, 127
1, 138960, Note_off_c, 1, 76, 0
1, 139224, Note_off_c, 1, 60, 0
1, 139227, Note_on_c, 1, 78, 127
1, 139747, Note_off_c, 1, 78, 0
1, 142379, Note_on_c, 1, 71, 127
1, 142379, Note_on_c, 1, 55, 127
1, 142379, Note_on_c, 1, 64, 127
1, 142507, Note_off_c, 1, 71, 0
1, 142507, Note_off_c, 1, 55, 0
1, 142512, Note_on_c, 1, 69, 127
1, 142512, Note_on_c, 1, 54, 127
1, 142640, Note_off_c, 1, 69, 0
1, 142640, Note_off_c, 1, 54, 0
1, 142643, Note_on_c, 1, 67, 127
1, 142643, Note_on_c, 1, 52, 127
1, 142771, Note_off_c, 1, 64, 0
1, 142771, Note_off_c, 1, 67, 0
1, 142771, Note_off_c, 1, 52, 0
1, 142774, Note_on_c, 1, 51, 127
1, 142774, Note_on_c, 1, 69, 127
1, 142774, Note_on_c, 1, 66, 127
1, 142902, Note_off_c, 1, 51, 0
1, 142906, Note_on_c, 1, 60, 127
1, 143034, Note_off_c, 1, 60, 0
1, 143037, Note_on_c, 1, 59, 127
1, 143165, Note_off_c, 1, 59, 0
1, 143166, Note_off_c, 1, 69, 0
1, 143169, Note_on_c, 1, 57, 127
1, 143169, Note_on_c, 1, 63, 127
1, 143297, Note_off_c, 1, 57, 0
1, 143301, Note_on_c, 1, 55, 127
1, 143429, Note_off_c, 1, 55, 0
1, 143432, Note_on_c, 1, 54, 127
1, 143560, Note_off_c, 1, 54, 0
1, 143561, Note_off_c, 1, 63, 0
1, 143563, Note_on_c, 1, 71, 127
1, 143823, Note_off_c, 1, 66, 0
1, 143958, Note_on_c, 1, 64, 127
1, 144218, Note_off_c, 1, 64, 0
1, 144353, Note_on_c, 1, 52, 127
1, 144353, Note_on_c, 1, 67, 127
1, 144481, Note_off_c, 1, 52, 0
1, 144484, Note_on_c, 1, 62, 127
1, 144612, Note_off_c, 1, 71, 0
1, 144612, Note_off_c, 1, 62, 0
1, 145142, Note_on_c, 1, 72, 127
1, 145402, Note_off_c, 1, 67, 0
1, 146191, Note_off_c, 1, 72, 0
1, 146721, Note_on_c, 1, 74, 127
1, 147638, Note_off_c, 1, 74, 0
1, 147773, Note_on_c, 1, 69, 127
1, 147773, Note_on_c, 1, 62, 127
1, 147901, Note_off_c, 1, 69, 0
1, 147901, Note_off_c, 1, 62, 0
1, 147904, Note_on_c, 1, 71, 127
1, 147904, Note_on_c, 1, 67, 127
1, 148032, Note_off_c, 1, 71, 0
1, 148037, Note_on_c, 1, 72, 127
1, 148165, Note_off_c, 1, 72, 0
1, 148168, Note_on_c, 1, 74, 127
1, 148296, Note_off_c, 1, 67, 0
1, 148296, Note_off_c, 1, 74, 0
1, 148299, Note_on_c, 1, 60, 127
1, 148299, Note_on_c, 1, 76, 127
1, 148429, Note_on_c, 1, 74, 127
1, 148557, Note_off_c, 1, 74, 0
1, 148560, Note_on_c, 1, 72, 127
1, 148688, Note_off_c, 1, 72, 0
1, 148689, Note_off_c, 1, 60, 0
1, 148692, Note_on_c, 1, 71, 127
1, 148692, Note_on_c, 1, 64, 127
1, 148820, Note_off_c, 1, 71, 0
1, 148824, Note_on_c, 1, 69, 127
1, 148952, Note_off_c, 1, 69, 0
1, 148956, Note_on_c, 1, 67, 127
1, 149084, Note_off_c, 1, 64, 0
1, 149084, Note_off_c, 1, 67, 0
1, 149086, Note_on_c, 1, 54, 127
1, 149214, Note_off_c, 1, 76, 0
1, 149214, Note_off_c, 1, 54, 0
1, 149218, Note_on_c, 1, 66, 127
1, 149218, Note_on_c, 1, 57, 127
1, 149346, Note_off_c, 1, 66, 0
1, 149346, Note_off_c, 1, 57, 0
1, 149351, Note_on_c, 1, 67, 127
1, 149351, Note_on_c, 1, 60, 127
1, 149479, Note_off_c, 1, 67, 0
1, 149479, Note_off_c, 1, 60, 0
1, 149481, Note_on_c, 1, 69, 127
1, 149481, Note_on_c, 1, 66, 127
1, 149609, Note_off_c, 1, 69, 0
1, 149613, Note_on_c, 1, 71, 127
1, 149741, Note_off_c, 1, 71, 0
1, 149745, Note_on_c, 1, 72, 127
1, 149873, Note_off_c, 1, 66, 0
1, 149873, Note_off_c, 1, 72, 0
1, 149875, Note_on_c, 1, 59, 127
1, 149875, Note_on_c, 1, 74, 127
1, 150006, Note_on_c, 1, 72, 127
1, 150134, Note_off_c, 1, 72, 0
1, 150138, Note_on_c, 1, 71, 127
1, 150265, Note_off_c, 1, 59, 0
1, 150266, Note_off_c, 1, 71, 0
1, 150268, Note_on_c, 1, 69, 127
1, 150268, Note_on_c, 1, 62, 127
1, 150396, Note_off_c, 1, 69, 0
1, 150400, Note_on_c, 1, 67, 127
1, 150528, Note_off_c, 1, 67, 0
1, 150532, Note_on_c, 1, 66, 127
1, 150660, Note_off_c, 1, 62, 0
1, 150660, Note_off_c, 1, 66, 0
1, 150663, Note_on_c, 1, 52, 127
1, 150790, Note_off_c, 1, 74, 0
1, 150791, Note_off_c, 1, 52, 0
1, 150795, Note_on_c, 1, 64, 127
1, 150795, Note_on_c, 1, 55, 127
1, 150923, Note_off_c, 1, 64, 0
1, 150923, Note_off_c, 1, 55, 0
1, 150927, Note_on_c, 1, 66, 127
1, 150927, Note_on_c, 1, 59, 127
1, 151055, Note_off_c, 1, 66, 0
1, 151055, Note_off_c, 1, 59, 0
1, 151057, Note_on_c, 1, 67, 127
1, 151057, Note_on_c, 1, 64, 127
1, 151185, Note_off_c, 1, 67, 0
1, 151189, Note_on_c, 1, 69, 127
1, 151317, Note_off_c, 1, 69, 0
1, 151322, Note_on_c, 1, 71, 127
1, 151449, Note_off_c, 1, 64, 0
1, 151450, Note_off_c, 1, 71, 0
1, 151453, Note_on_c, 1, 57, 127
1, 151453, Note_on_c, 1, 72, 127
1, 151582, Note_on_c, 1, 71, 127
1, 151710, Note_off_c, 1, 71, 0
1, 151714, Note_on_c, 1, 69, 127
1, 151842, Note_off_c, 1, 69, 0
1, 151843, Note_off_c, 1, 57, 0
1, 151845, Note_on_c, 1, 67, 127
1, 151845, Note_on_c, 1, 60, 127
1, 151973, Note_off_c, 1, 67, 0
1, 151977, Note_on_c, 1, 66, 127
1, 152105, Note_off_c, 1, 66, 0
1, 152109, Note_on_c, 1, 64, 127
1, 152237, Note_off_c, 1, 60, 0
1, 152237, Note_off_c, 1, 64, 0
1, 152240, Note_on_c, 1, 50, 127
1, 152368, Note_off_c, 1, 72, 0
1, 152368, Note_off_c, 1, 50, 0
1, 152371, Note_on_c, 1, 62, 127
1, 152371, Note_on_c, 1, 54, 127
1, 152499, Note_off_c, 1, 62, 0
1, 152499, Note_off_c, 1, 54, 0
1, 152503, Note_on_c, 1, 64, 127
1, 152503, Note_on_c, 1, 57, 127
1, 152631, Note_off_c, 1, 64, 0
1, 152631, Note_off_c, 1, 57, 0
1, 152635, Note_on_c, 1, 66, 127
1, 152635, Note_on_c, 1, 62, 127
1, 152763, Note_off_c, 1, 66, 0
1, 152766, Note_on_c, 1, 67, 127
1, 152894, Note_off_c, 1, 67, 0
1, 152898, Note_on_c, 1, 69, 127
1, 153026, Note_off_c, 1, 69, 0
1, 153027, Note_off_c, 1, 62, 0
1, 153029, Note_on_c, 1, 71, 127
1, 153029, Note_on_c, 1, 55, 127
1, 153158, Note_on_c, 1, 59, 127
1, 153286, Note_off_c, 1, 59, 0
1, 153291, Note_on_c, 1, 62, 127
1, 153419, Note_off_c, 1, 71, 0
1, 153419, Note_off_c, 1, 62, 0
1, 153423, Note_on_c, 1, 72, 127
1, 153423, Note_on_c, 1, 64, 127
1, 153519, Note_off_c, 1, 72, 0
1, 153619, Note_on_c, 1, 69, 127
1, 153715, Note_off_c, 1, 69, 0
1, 153812, Note_off_c, 1, 55, 0
1, 153815, Note_on_c, 1, 57, 127
1, 153943, Note_off_c, 1, 64, 0
1, 153947, Note_on_c, 1, 60, 127
1, 154075, Note_off_c, 1, 60, 0
1, 154210, Note_on_c, 1, 74, 127
1, 154210, Note_on_c, 1, 66, 127
1, 154306, Note_off_c, 1, 74, 0
1, 154600, Note_off_c, 1, 57, 0
1, 154730, Note_off_c, 1, 66, 0
1, 154997, Note_on_c, 1, 67, 127
1, 155125, Note_off_c, 1, 67, 0
1, 155392, Note_on_c, 1, 55, 127
1, 155392, Note_on_c, 1, 67, 127
1, 155520, Note_off_c, 1, 55, 0
1, 155523, Note_on_c, 1, 52, 127
1, 155651, Note_off_c, 1, 52, 0
1, 155655, Note_on_c, 1, 54, 127
1, 155783, Note_off_c, 1, 54, 0
1, 155784, Note_off_c, 1, 67, 0
1, 155786, Note_on_c, 1, 55, 127
1, 155786, Note_on_c, 1, 76, 127
1, 155914, Note_off_c, 1, 55, 0
1, 155918, Note_on_c, 1, 57, 127
1, 156046, Note_off_c, 1, 57, 0
1, 156050, Note_on_c, 1, 59, 127
1, 156178, Note_off_c, 1, 59, 0
1, 156181, Note_on_c, 1, 60, 127
1, 156571, Note_off_c, 1, 76, 0
1, 156574, Note_on_c, 1, 54, 127
1, 156574, Note_on_c, 1, 74, 127
1, 156702, Note_off_c, 1, 54, 0
1, 156834, Note_off_c, 1, 74, 0
1, 156837, Note_on_c, 1, 78, 127
1, 156965, Note_off_c, 1, 78, 0
1, 156966, Note_off_c, 1, 60, 0
1, 156968, Note_on_c, 1, 79, 127
1, 156968, Note_on_c, 1, 59, 127
1, 157098, Note_on_c, 1, 55, 127
1, 157226, Note_off_c, 1, 55, 0
1, 157230, Note_on_c, 1, 54, 127
1, 157358, Note_off_c, 1, 79, 0
1, 157358, Note_off_c, 1, 54, 0
1, 157361, Note_on_c, 1, 52, 127
1, 157361, Note_on_c, 1, 72, 127
1, 157489, Note_off_c, 1, 52, 0
1, 157753, Note_off_c, 1, 59, 0
1, 157756, Note_on_c, 1, 57, 127
1, 158146, Note_off_c, 1, 72, 0
1, 158149, Note_on_c, 1, 50, 127
1, 158149, Note_on_c, 1, 71, 127
1, 158277, Note_off_c, 1, 50, 0
1, 158409, Note_off_c, 1, 71, 0
1, 158412, Note_on_c, 1, 78, 127
1, 158412, Note_on_c, 1, 48, 127
1, 158540, Note_off_c, 1, 78, 0
1, 158540, Note_off_c, 1, 48, 0
1, 158541, Note_off_c, 1, 57, 0
1, 158544, Note_on_c, 1, 79, 127
1, 158544, Note_on_c, 1, 47, 127
1, 158672, Note_on_c, 1, 50, 127
1, 158800, Note_off_c, 1, 50, 0
1, 158804, Note_on_c, 1, 55, 127
1, 158934, Note_off_c, 1, 79, 0
1, 158934, Note_off_c, 1, 47, 0
1, 158936, Note_on_c, 1, 49, 127
1, 158936, Note_on_c, 1, 69, 127
1, 159064, Note_off_c, 1, 55, 0
1, 159067, Note_on_c, 1, 54, 127
1, 159195, Note_off_c, 1, 54, 0
1, 159328, Note_off_c, 1, 49, 0
1, 159458, Note_off_c, 1, 69, 0
1, 159462, Note_on_c, 1, 71, 127
1, 159590, Note_off_c, 1, 71, 0
1, 159593, Note_on_c, 1, 72, 127
1, 159721, Note_off_c, 1, 72, 0
1, 159988, Note_on_c, 1, 67, 127
1, 160116, Note_off_c, 1, 67, 0
1, 160120, Note_on_c, 1, 66, 127
1, 160120, Note_on_c, 1, 57, 127
1, 160248, Note_off_c, 1, 66, 0
1, 160252, Note_on_c, 1, 76, 127
1, 160380, Note_off_c, 1, 76, 0
1, 160383, Note_on_c, 1, 74, 127
1, 160511, Note_off_c, 1, 74, 0
1, 160512, Note_off_c, 1, 57, 0
1, 160515, Note_on_c, 1, 72, 127
1, 160515, Note_on_c, 1, 54, 127
1, 160515, Note_on_c, 1, 50, 127
1, 160643, Note_off_c, 1, 72, 0
1, 160647, Note_on_c, 1, 71, 127
1, 160775, Note_off_c, 1, 71, 0
1, 160777, Note_on_c, 1, 69, 127
1, 160905, Note_off_c, 1, 69, 0
1, 160907, Note_off_c, 1, 54, 0
1, 160907, Note_off_c, 1, 50, 0
1, 160909, Note_on_c, 1, 71, 127
1, 160909, Note_on_c, 1, 55, 127
1, 161037, Note_off_c, 1, 71, 0
1, 161041, Note_on_c, 1, 72, 127
1, 161169, Note_off_c, 1, 72, 0
1, 161172, Note_on_c, 1, 74, 127
1, 161172, Note_on_c, 1, 59, 127
1, 161300, Note_off_c, 1, 74, 0
1, 161300, Note_off_c, 1, 59, 0
1, 161304, Note_on_c, 1, 62, 127
1, 161564, Note_off_c, 1, 55, 0
1, 161566, Note_on_c, 1, 69, 127
1, 161566, Note_on_c, 1, 54, 127
1, 161694, Note_off_c, 1, 69, 0
1, 161694, Note_off_c, 1, 54, 0
1, 161698, Note_on_c, 1, 67, 127
1, 161698, Note_on_c, 1, 52, 127
1, 161826, Note_off_c, 1, 67, 0
1, 161831, Note_on_c, 1, 79, 127
1, 161959, Note_off_c, 1, 79, 0
1, 161961, Note_on_c, 1, 78, 127
1, 162089, Note_off_c, 1, 78, 0
1, 162090, Note_off_c, 1, 52, 0
1, 162091, Note_off_c, 1, 62, 0
1, 162093, Note_on_c, 1, 76, 127
1, 162093, Note_on_c, 1, 61, 127
1, 162093, Note_on_c, 1, 57, 127
1, 162221, Note_off_c, 1, 76, 0
1, 162221, Note_off_c, 1, 61, 0
1, 162225, Note_on_c, 1, 74, 127
1, 162225, Note_on_c, 1, 62, 127
1, 162353, Note_off_c, 1, 74, 0
1, 162353, Note_off_c, 1, 62, 0
1, 162356, Note_on_c, 1, 73, 127
1, 162356, Note_on_c, 1, 64, 127
1, 162484, Note_off_c, 1, 73, 0
1, 162484, Note_off_c, 1, 64, 0
1, 162485, Note_off_c, 1, 57, 0
1, 162488, Note_on_c, 1, 50, 127
1, 162488, Note_on_c, 1, 66, 127
1, 162488, Note_on_c, 1, 74, 127
1, 162616, Note_off_c, 1, 50, 0
1, 162620, Note_on_c, 1, 54, 127
1, 162748, Note_off_c, 1, 54, 0
1, 162751, Note_on_c, 1, 57, 127
1, 162879, Note_off_c, 1, 57, 0
1, 162880, Note_off_c, 1, 66, 0
1, 162882, Note_on_c, 1, 67, 127
1, 162882, Note_on_c, 1, 59, 127
1, 162978, Note_off_c, 1, 67, 0
1, 163077, Note_off_c, 1, 74, 0
1, 163078, Note_on_c, 1, 64, 127
1, 163174, Note_off_c, 1, 64, 0
1, 163272, Note_off_c, 1, 59, 0
1, 163275, Note_on_c, 1, 52, 127
1, 163275, Note_on_c, 1, 67, 127
1, 163275, Note_on_c, 1, 73, 127
1, 163403, Note_off_c, 1, 52, 0
1, 163407, Note_on_c, 1, 55, 127
1, 163535, Note_off_c, 1, 55, 0
1, 163538, Note_on_c, 1, 57, 127
1, 163666, Note_off_c, 1, 57, 0
1, 163667, Note_off_c, 1, 67, 0
1, 163669, Note_on_c, 1, 69, 127
1, 163669, Note_on_c, 1, 61, 127
1, 163765, Note_off_c, 1, 69, 0
1, 163864, Note_off_c, 1, 73, 0
1, 163866, Note_on_c, 1, 66, 127
1, 163962, Note_off_c, 1, 66, 0
1, 164059, Note_off_c, 1, 61, 0
1, 164062, Note_on_c, 1, 54, 127
1, 164062, Note_on_c, 1, 69, 127
1, 164062, Note_on_c, 1, 72, 127
1, 164190, Note_off_c, 1, 54, 0
1, 164194, Note_on_c, 1, 55, 127
1, 164322, Note_off_c, 1, 55, 0
1, 164325, Note_on_c, 1, 57, 127
1, 164453, Note_off_c, 1, 57, 0
1, 164454, Note_off_c, 1, 69, 0
1, 164457, Note_on_c, 1, 62, 127
1, 164457, Note_on_c, 1, 66, 127
1, 164651, Note_off_c, 1, 72, 0
1, 164844, Note_off_c, 1, 62, 0
1, 164847, Note_off_c, 1, 66, 0
1, 164850, Note_on_c, 1, 71, 127
1, 164850, Note_on_c, 1, 62, 127
1, 164980, Note_on_c, 1, 60, 127
1, 165108, Note_off_c, 1, 60, 0
1, 165111, Note_on_c, 1, 59, 127
1, 165239, Note_off_c, 1, 59, 0
1, 165240, Note_off_c, 1, 71, 0
1, 165240, Note_off_c, 1, 62, 0
1, 165243, Note_on_c, 1, 57, 127
1, 165243, Note_on_c, 1, 74, 127
1, 165243, Note_on_c, 1, 71, 127
1, 165371, Note_off_c, 1, 57, 0
1, 165374, Note_on_c, 1, 55, 127
1, 165502, Note_off_c, 1, 55, 0
1, 165505, Note_on_c, 1, 54, 127
1, 165633, Note_off_c, 1, 54, 0
1, 165635, Note_off_c, 1, 74, 0
1, 165638, Note_on_c, 1, 52, 127
1, 165638, Note_on_c, 1, 79, 127
1, 165766, Note_off_c, 1, 52, 0
1, 165900, Note_on_c, 1, 59, 127
1, 166028, Note_off_c, 1, 59, 0
1, 166030, Note_off_c, 1, 71, 0
1, 166032, Note_on_c, 1, 61, 127
1, 166032, Note_on_c, 1, 69, 127
1, 166160, Note_off_c, 1, 61, 0
1, 166163, Note_on_c, 1, 64, 127
1, 166291, Note_off_c, 1, 64, 0
1, 166292, Note_off_c, 1, 69, 0
1, 166295, Note_on_c, 1, 73, 127
1, 166423, Note_off_c, 1, 73, 0
1, 166425, Note_off_c, 1, 79, 0
1, 166427, Note_on_c, 1, 50, 127
1, 166427, Note_on_c, 1, 74, 127
1, 166427, Note_on_c, 1, 78, 127
1, 166555, Note_off_c, 1, 50, 0
1, 166558, Note_on_c, 1, 62, 127
1, 166686, Note_off_c, 1, 62, 0
1, 166690, Note_on_c, 1, 60, 127
1, 166818, Note_off_c, 1, 60, 0
1, 166819, Note_off_c, 1, 74, 0
1, 166821, Note_on_c, 1, 59, 127
1, 166821, Note_on_c, 1, 67, 127
1, 166949, Note_off_c, 1, 59, 0
1, 166953, Note_on_c, 1, 57, 127
1, 167081, Note_off_c, 1, 57, 0
1, 167085, Note_on_c, 1, 55, 127
1, 167213, Note_off_c, 1, 55, 0
1, 167214, Note_off_c, 1, 78, 0
1, 167216, Note_on_c, 1, 49, 127
1, 167216, Note_on_c, 1, 76, 127
1, 167344, Note_off_c, 1, 49, 0
1, 167348, Note_on_c, 1, 52, 127
1, 167476, Note_off_c, 1, 52, 0
1, 167608, Note_off_c, 1, 67, 0
1, 167610, Note_on_c, 1, 66, 127
1, 167743, Note_on_c, 1, 61, 127
1, 167870, Note_off_c, 1, 66, 0
1, 167871, Note_off_c, 1, 61, 0
1, 167874, Note_on_c, 1, 73, 127
1, 167874, Note_on_c, 1, 54, 127
1, 168002, Note_off_c, 1, 73, 0
1, 168002, Note_off_c, 1, 54, 0
1, 168003, Note_off_c, 1, 76, 0
1, 168005, Note_on_c, 1, 47, 127
1, 168005, Note_on_c, 1, 74, 127
1, 168133, Note_off_c, 1, 47, 0
1, 168137, Note_on_c, 1, 59, 127
1, 168265, Note_off_c, 1, 59, 0
1, 168268, Note_on_c, 1, 57, 127
1, 168396, Note_off_c, 1, 57, 0
1, 168400, Note_on_c, 1, 55, 127
1, 168400, Note_on_c, 1, 64, 127
1, 168528, Note_off_c, 1, 55, 0
1, 168532, Note_on_c, 1, 54, 127
1, 168660, Note_off_c, 1, 54, 0
1, 168663, Note_on_c, 1, 52, 127
1, 168791, Note_off_c, 1, 52, 0
1, 168792, Note_off_c, 1, 74, 0
1, 168794, Note_on_c, 1, 73, 127
1, 168922, Note_off_c, 1, 64, 0
1, 168926, Note_on_c, 1, 66, 127
1, 169054, Note_off_c, 1, 66, 0
1, 169058, Note_on_c, 1, 67, 127
1, 169186, Note_off_c, 1, 73, 0
1, 169186, Note_off_c, 1, 67, 0
1, 169453, Note_on_c, 1, 62, 127
1, 169581, Note_off_c, 1, 62, 0
1, 169583, Note_on_c, 1, 61, 127
1, 169583, Note_on_c, 1, 76, 127
1, 169711, Note_off_c, 1, 61, 0
1, 169715, Note_on_c, 1, 71, 127
1, 169843, Note_off_c, 1, 71, 0
1, 169848, Note_on_c, 1, 69, 127
1, 169976, Note_off_c, 1, 69, 0
1, 169978, Note_on_c, 1, 67, 127
1, 170106, Note_off_c, 1, 67, 0
1, 170110, Note_on_c, 1, 66, 127
1, 170238, Note_off_c, 1, 66, 0
1, 170242, Note_on_c, 1, 64, 127
1, 170370, Note_off_c, 1, 64, 0
1, 170372, Note_on_c, 1, 62, 127
1, 170632, Note_off_c, 1, 76, 0
1, 170637, Note_on_c, 1, 73, 127
1, 170765, Note_off_c, 1, 73, 0
1, 170767, Note_on_c, 1, 74, 127
1, 171027, Note_off_c, 1, 74, 0
1, 171159, Note_off_c, 1, 62, 0
1, 171162, Note_on_c, 1, 62, 127
1, 171162, Note_on_c, 1, 78, 127
1, 171290, Note_off_c, 1, 62, 0
1, 171294, Note_on_c, 1, 72, 127
1, 171422, Note_off_c, 1, 72, 0
1, 171426, Note_on_c, 1, 71, 127
1, 171554, Note_off_c, 1, 71, 0
1, 171556, Note_on_c, 1, 69, 127
1, 171556, Note_on_c, 1, 63, 127
1, 171684, Note_off_c, 1, 69, 0
1, 171688, Note_on_c, 1, 67, 127
1, 171816, Note_off_c, 1, 67, 0
1, 171821, Note_on_c, 1, 66, 127
1, 171948, Note_off_c, 1, 63, 0
1, 171949, Note_off_c, 1, 66, 0
1, 171952, Note_on_c, 1, 64, 127
1, 172211, Note_off_c, 1, 78, 0
1, 172215, Note_on_c, 1, 75, 127
1, 172343, Note_off_c, 1, 75, 0
1, 172346, Note_on_c, 1, 76, 127
1, 172606, Note_off_c, 1, 76, 0
1, 172739, Note_off_c, 1, 64, 0
1, 172741, Note_on_c, 1, 64, 127
1, 172741, Note_on_c, 1, 79, 127
1, 172869, Note_off_c, 1, 64, 0
1, 172872, Note_on_c, 1, 74, 127
1, 173000, Note_off_c, 1, 74, 0
1, 173004, Note_on_c, 1, 73, 127
1, 173132, Note_off_c, 1, 73, 0
1, 173133, Note_off_c, 1, 79, 0
1, 173135, Note_on_c, 1, 71, 127
1, 173135, Note_on_c, 1, 65, 127
1, 173135, Note_on_c, 1, 73, 127
1, 173263, Note_off_c, 1, 71, 0
1, 173267, Note_on_c, 1, 70, 127
1, 173395, Note_off_c, 1, 70, 0
1, 173399, Note_on_c, 1, 68, 127
1, 173527, Note_off_c, 1, 65, 0
1, 173527, Note_off_c, 1, 68, 0
1, 173530, Note_on_c, 1, 66, 127
1, 173657, Note_off_c, 1, 73, 0
1, 173661, Note_on_c, 1, 74, 127
1, 173789, Note_off_c, 1, 74, 0
1, 173793, Note_on_c, 1, 76, 127
1, 173921, Note_off_c, 1, 76, 0
1, 174319, Note_on_c, 1, 82, 127
1, 174447, Note_off_c, 1, 66, 0
1, 174451, Note_on_c, 1, 67, 127
1, 174579, Note_off_c, 1, 67, 0
1, 174711, Note_off_c, 1, 82, 0
1, 174714, Note_on_c, 1, 74, 127
1, 174714, Note_on_c, 1, 64, 127
1, 174809, Note_on_c, 1, 73, 127
1, 174810, Note_off_c, 1, 74, 0
1, 174842, Note_off_c, 1, 64, 0
1, 174846, Note_on_c, 1, 62, 127
1, 174906, Note_on_c, 1, 71, 127
1, 174907, Note_off_c, 1, 73, 0
1, 174976, Note_off_c, 1, 62, 0
1, 174979, Note_on_c, 1, 61, 127
1, 175004, Note_off_c, 1, 71, 0
1, 175107, Note_off_c, 1, 61, 0
1, 175110, Note_on_c, 1, 62, 127
1, 175110, Note_on_c, 1, 78, 127
1, 175240, Note_on_c, 1, 76, 127
1, 175368, Note_off_c, 1, 76, 0
1, 175372, Note_on_c, 1, 74, 127
1, 175500, Note_off_c, 1, 74, 0
1, 175503, Note_on_c, 1, 73, 127
1, 175631, Note_off_c, 1, 73, 0
1, 175635, Note_on_c, 1, 71, 127
1, 175763, Note_off_c, 1, 71, 0
1, 175766, Note_on_c, 1, 70, 127
1, 175894, Note_off_c, 1, 70, 0
1, 176025, Note_off_c, 1, 62, 0
1, 176030, Note_on_c, 1, 64, 127
1, 176158, Note_off_c, 1, 64, 0
1, 176289, Note_off_c, 1, 78, 0
1, 176293, Note_on_c, 1, 61, 127
1, 176293, Note_on_c, 1, 73, 127
1, 176293, Note_on_c, 1, 76, 127
1, 176421, Note_off_c, 1, 61, 0
1, 176424, Note_on_c, 1, 59, 127
1, 176552, Note_off_c, 1, 59, 0
1, 176556, Note_on_c, 1, 58, 127
1, 176684, Note_off_c, 1, 58, 0
1, 176685, Note_off_c, 1, 73, 0
1, 176688, Note_on_c, 1, 66, 127
1, 176815, Note_off_c, 1, 76, 0
1, 176819, Note_on_c, 1, 78, 127
1, 176947, Note_off_c, 1, 78, 0
1, 177082, Note_on_c, 1, 74, 127
1, 177210, Note_off_c, 1, 74, 0
1, 177345, Note_on_c, 1, 71, 127
1, 177473, Note_off_c, 1, 71, 0
1, 177475, Note_off_c, 1, 66, 0
1, 177608, Note_on_c, 1, 60, 127
1, 177736, Note_off_c, 1, 60, 0
1, 177871, Note_on_c, 1, 57, 127
1, 177999, Note_off_c, 1, 57, 0
1, 178002, Note_on_c, 1, 55, 127
1, 178130, Note_off_c, 1, 55, 0
1, 178135, Note_on_c, 1, 54, 127
1, 178263, Note_off_c, 1, 54, 0
1, 178397, Note_on_c, 1, 79, 127
1, 178525, Note_off_c, 1, 79, 0
1, 178792, Note_on_c, 1, 75, 127
1, 178920, Note_off_c, 1, 75, 0
1, 179056, Note_on_c, 1, 81, 127
1, 179581, Note_on_c, 1, 52, 127
1, 179709, Note_off_c, 1, 52, 0
1, 179713, Note_on_c, 1, 51, 127
1, 179841, Note_off_c, 1, 51, 0
1, 180237, Note_off_c, 1, 81, 0
1, 180240, Note_on_c, 1, 50, 127
1, 180240, Note_on_c, 1, 79, 127
1, 180240, Note_on_c, 1, 76, 127
1, 180368, Note_off_c, 1, 50, 0
1, 180370, Note_on_c, 1, 49, 127
1, 180498, Note_off_c, 1, 49, 0
1, 180502, Note_on_c, 1, 47, 127
1, 180630, Note_off_c, 1, 47, 0
1, 180632, Note_off_c, 1, 79, 0
1, 180634, Note_on_c, 1, 46, 127
1, 180634, Note_on_c, 1, 78, 127
1, 180762, Note_off_c, 1, 76, 0
1, 180762, Note_off_c, 1, 46, 0
1, 180764, Note_on_c, 1, 42, 127
1, 180892, Note_off_c, 1, 42, 0
1, 180897, Note_on_c, 1, 74, 127
1, 180897, Note_on_c, 1, 44, 127
1, 181025, Note_off_c, 1, 74, 0
1, 181025, Note_off_c, 1, 44, 0
1, 181029, Note_on_c, 1, 73, 127
1, 181157, Note_off_c, 1, 73, 0
1, 181159, Note_on_c, 1, 71, 127
1, 181287, Note_off_c, 1, 71, 0
1, 181291, Note_on_c, 1, 70, 127
1, 181419, Note_off_c, 1, 70, 0
1, 181818, Note_on_c, 1, 52, 127
1, 181818, Note_on_c, 1, 68, 127
1, 181914, Note_off_c, 1, 52, 0
1, 182208, Note_off_c, 1, 78, 0
1, 182338, Note_off_c, 1, 68, 0
1, 182605, Note_on_c, 1, 54, 127
1, 182701, Note_off_c, 1, 54, 0
1, 183391, Note_on_c, 1, 50, 127
1, 183391, Note_on_c, 1, 71, 127
1, 183779, Note_off_c, 1, 50, 0
1, 183781, Note_on_c, 1, 47, 127
1, 183912, Note_on_c, 1, 69, 127
1, 184040, Note_off_c, 1, 69, 0
1, 184043, Note_on_c, 1, 67, 127
1, 184171, Note_off_c, 1, 47, 0
1, 184171, Note_off_c, 1, 67, 0
1, 184174, Note_on_c, 1, 66, 127
1, 184174, Note_on_c, 1, 55, 127
1, 184302, Note_off_c, 1, 66, 0
1, 184306, Note_on_c, 1, 64, 127
1, 184434, Note_off_c, 1, 64, 0
1, 184437, Note_on_c, 1, 63, 127
1, 184565, Note_off_c, 1, 63, 0
1, 184697, Note_off_c, 1, 71, 0
1, 184701, Note_on_c, 1, 73, 127
1, 184829, Note_off_c, 1, 73, 0
1, 184961, Note_off_c, 1, 55, 0
1, 184963, Note_on_c, 1, 70, 127
1, 184963, Note_on_c, 1, 54, 127
1, 185091, Note_off_c, 1, 70, 0
1, 185095, Note_on_c, 1, 68, 127
1, 185223, Note_off_c, 1, 54, 0
1, 185223, Note_off_c, 1, 68, 0
1, 185227, Note_on_c, 1, 58, 127
1, 185355, Note_off_c, 1, 58, 0
1, 185358, Note_on_c, 1, 59, 127
1, 185358, Note_on_c, 1, 62, 127
1, 185750, Note_off_c, 1, 59, 0
1, 185753, Note_on_c, 1, 52, 127
1, 186145, Note_off_c, 1, 62, 0
1, 186148, Note_on_c, 1, 61, 127
1, 186540, Note_off_c, 1, 52, 0
1, 186935, Note_off_c, 1, 61, 0
1, 186937, Note_on_c, 1, 74, 127
1, 186937, Note_on_c, 1, 59, 127
1, 187065, Note_off_c, 1, 74, 0
1, 187068, Note_on_c, 1, 61, 127
1, 187196, Note_off_c, 1, 61, 0
1, 187199, Note_on_c, 1, 62, 127
1, 187327, Note_off_c, 1, 62, 0
1, 187332, Note_on_c, 1, 64, 127
1, 187332, Note_on_c, 1, 49, 127
1, 187460, Note_off_c, 1, 64, 0
1, 187463, Note_on_c, 1, 66, 127
1, 187591, Note_off_c, 1, 66, 0
1, 187594, Note_on_c, 1, 67, 127
1, 187724, Note_off_c, 1, 59, 0
1, 187726, Note_on_c, 1, 58, 127
1, 187854, Note_off_c, 1, 49, 0
1, 187857, Note_on_c, 1, 50, 127
1, 187985, Note_off_c, 1, 50, 0
1, 187989, Note_on_c, 1, 52, 127
1, 188116, Note_off_c, 1, 67, 0
1, 188117, Note_off_c, 1, 52, 0
1, 188118, Note_off_c, 1, 58, 0
1, 188121, Note_on_c, 1, 66, 127
1, 188121, Note_on_c, 1, 50, 127
1, 188121, Note_on_c, 1, 59, 127
1, 188249, Note_off_c, 1, 66, 0
1, 188249, Note_off_c, 1, 50, 0
1, 188253, Note_on_c, 1, 64, 127
1, 188253, Note_on_c, 1, 49, 127
1, 188381, Note_off_c, 1, 64, 0
1, 188381, Note_off_c, 1, 49, 0
1, 188383, Note_on_c, 1, 62, 127
1, 188383, Note_on_c, 1, 47, 127
1, 188511, Note_off_c, 1, 62, 0
1, 188511, Note_off_c, 1, 47, 0
1, 188513, Note_off_c, 1, 59, 0
1, 188515, Note_on_c, 1, 46, 127
1, 188515, Note_on_c, 1, 64, 127
1, 188515, Note_on_c, 1, 61, 127
1, 188643, Note_off_c, 1, 46, 0
1, 188647, Note_on_c, 1, 55, 127
1, 188775, Note_off_c, 1, 55, 0
1, 188778, Note_on_c, 1, 54, 127
1, 188906, Note_off_c, 1, 54, 0
1, 188907, Note_off_c, 1, 64, 0
1, 188910, Note_on_c, 1, 52, 127
1, 188910, Note_on_c, 1, 58, 127
1, 189038, Note_off_c, 1, 52, 0
1, 189042, Note_on_c, 1, 50, 127
1, 189170, Note_off_c, 1, 50, 0
1, 189172, Note_on_c, 1, 49, 127
1, 189300, Note_off_c, 1, 49, 0
1, 189302, Note_off_c, 1, 58, 0
1, 189304, Note_on_c, 1, 66, 127
1, 189564, Note_off_c, 1, 61, 0
1, 189699, Note_on_c, 1, 59, 127
1, 189959, Note_off_c, 1, 59, 0
1, 190094, Note_on_c, 1, 47, 127
1, 190094, Note_on_c, 1, 62, 127
1, 190222, Note_off_c, 1, 47, 0
1, 190226, Note_on_c, 1, 57, 127
1, 190353, Note_off_c, 1, 66, 0
1, 190354, Note_off_c, 1, 57, 0
1, 190883, Note_on_c, 1, 67, 127
1, 191143, Note_off_c, 1, 62, 0
1, 191932, Note_off_c, 1, 67, 0
1, 192461, Note_on_c, 1, 69, 127
1, 192856, Note_on_c, 1, 63, 127
1, 193116, Note_off_c, 1, 63, 0
1, 193251, Note_on_c, 1, 51, 127
1, 193379, Note_off_c, 1, 51, 0
1, 193382, Note_on_c, 1, 60, 127
1, 193510, Note_off_c, 1, 69, 0
1, 193510, Note_off_c, 1, 60, 0
1, 193646, Note_on_c, 1, 66, 127
1, 193646, Note_on_c, 1, 57, 127
1, 193646, Note_on_c, 1, 63, 127
1, 193774, Note_off_c, 1, 66, 0
1, 193774, Note_off_c, 1, 57, 0
1, 193777, Note_on_c, 1, 64, 127
1, 193777, Note_on_c, 1, 55, 127
1, 193905, Note_off_c, 1, 64, 0
1, 193905, Note_off_c, 1, 55, 0
1, 193909, Note_on_c, 1, 54, 127
1, 194037, Note_off_c, 1, 54, 0
1, 194038, Note_off_c, 1, 63, 0
1, 194040, Note_on_c, 1, 52, 127
1, 194040, Note_on_c, 1, 67, 127
1, 194040, Note_on_c, 1, 64, 127
1, 194168, Note_off_c, 1, 52, 0
1, 194171, Note_on_c, 1, 55, 127
1, 194299, Note_off_c, 1, 55, 0
1, 194304, Note_on_c, 1, 59, 127
1, 194428, Note_off_c, 1, 67, 0
1, 194432, Note_off_c, 1, 64, 0
1, 194432, Note_off_c, 1, 59, 0
1, 194435, Note_on_c, 1, 69, 127
1, 194435, Note_on_c, 1, 61, 127
1, 194531, Note_off_c, 1, 69, 0
1, 194533, Note_on_c, 1, 67, 127
1, 194629, Note_off_c, 1, 67, 0
1, 194631, Note_on_c, 1, 66, 127
1, 194727, Note_off_c, 1, 66, 0
1, 194825, Note_off_c, 1, 61, 0
1, 194828, Note_on_c, 1, 54, 127
1, 194828, Note_on_c, 1, 69, 127
1, 194828, Note_on_c, 1, 72, 127
1, 194956, Note_off_c, 1, 54, 0
1, 194959, Note_on_c, 1, 57, 127
1, 195087, Note_off_c, 1, 57, 0
1, 195091, Note_on_c, 1, 60, 127
1, 195219, Note_off_c, 1, 60, 0
1, 195220, Note_off_c, 1, 69, 0
1, 195222, Note_on_c, 1, 71, 127
1, 195222, Note_on_c, 1, 63, 127
1, 195318, Note_off_c, 1, 71, 0
1, 195417, Note_off_c, 1, 72, 0
1, 195418, Note_on_c, 1, 67, 127
1, 195514, Note_off_c, 1, 67, 0
1, 195612, Note_off_c, 1, 63, 0
1, 195615, Note_on_c, 1, 55, 127
1, 195615, Note_on_c, 1, 71, 127
1, 195743, Note_off_c, 1, 55, 0
1, 195747, Note_on_c, 1, 59, 127
1, 195875, Note_off_c, 1, 59, 0
1, 195878, Note_on_c, 1, 63, 127
1, 196006, Note_off_c, 1, 63, 0
1, 196009, Note_on_c, 1, 67, 127
1, 196009, Note_on_c, 1, 64, 127
1, 196137, Note_off_c, 1, 71, 0
1, 196142, Note_on_c, 1, 76, 127
1, 196270, Note_off_c, 1, 76, 0
1, 196273, Note_on_c, 1, 74, 127
1, 196401, Note_off_c, 1, 67, 0
1, 196401, Note_off_c, 1, 64, 0
1, 196401, Note_off_c, 1, 74, 0
1, 196404, Note_on_c, 1, 72, 127
1, 196404, Note_on_c, 1, 52, 127
1, 196404, Note_on_c, 1, 64, 127
1, 196532, Note_off_c, 1, 72, 0
1, 196532, Note_off_c, 1, 52, 0
1, 196536, Note_on_c, 1, 71, 127
1, 196536, Note_on_c, 1, 62, 127
1, 196664, Note_off_c, 1, 71, 0
1, 196664, Note_off_c, 1, 62, 0
1, 196667, Note_on_c, 1, 69, 127
1, 196667, Note_on_c, 1, 60, 127
1, 196795, Note_off_c, 1, 69, 0
1, 196795, Note_off_c, 1, 60, 0
1, 196796, Note_off_c, 1, 64, 0
1, 196798, Note_on_c, 1, 68, 127
1, 196798, Note_on_c, 1, 59, 127
1, 196798, Note_on_c, 1, 72, 127
1, 196926, Note_off_c, 1, 68, 0
1, 196926, Note_off_c, 1, 59, 0
1, 196931, Note_on_c, 1, 69, 127
1, 196931, Note_on_c, 1, 57, 127
1, 197059, Note_off_c, 1, 69, 0
1, 197059, Note_off_c, 1, 57, 0
1, 197062, Note_on_c, 1, 71, 127
1, 197062, Note_on_c, 1, 56, 127
1, 197190, Note_off_c, 1, 72, 0
1, 197190, Note_off_c, 1, 71, 0
1, 197190, Note_off_c, 1, 56, 0
1, 197193, Note_on_c, 1, 64, 127
1, 197193, Note_on_c, 1, 72, 127
1, 197193, Note_on_c, 1, 57, 127
1, 197321, Note_off_c, 1, 64, 0
1, 197325, Note_on_c, 1, 66, 127
1, 197453, Note_off_c, 1, 66, 0
1, 197585, Note_off_c, 1, 72, 0
1, 197588, Note_on_c, 1, 63, 127
1, 197588, Note_on_c, 1, 71, 127
1, 197716, Note_off_c, 1, 63, 0
1, 197848, Note_off_c, 1, 71, 0
1, 197852, Note_on_c, 1, 75, 127
1, 197980, Note_off_c, 1, 57, 0
1, 197980, Note_off_c, 1, 75, 0
1, 197982, Note_on_c, 1, 59, 127
1, 197982, Note_on_c, 1, 76, 127
1, 197982, Note_on_c, 1, 55, 127
1, 198110, Note_off_c, 1, 59, 0
1, 198114, Note_on_c, 1, 64, 127
1, 198242, Note_off_c, 1, 64, 0
1, 198247, Note_on_c, 1, 62, 127
1, 198374, Note_off_c, 1, 76, 0
1, 198375, Note_off_c, 1, 62, 0
1, 198377, Note_on_c, 1, 61, 127
1, 198377, Note_on_c, 1, 69, 127
1, 198505, Note_off_c, 1, 61, 0
1, 198769, Note_off_c, 1, 55, 0
1, 198771, Note_on_c, 1, 63, 127
1, 198771, Note_on_c, 1, 54, 127
1, 198899, Note_off_c, 1, 63, 0
1, 199036, Note_on_c, 1, 66, 127
1, 199164, Note_off_c, 1, 69, 0
1, 199164, Note_off_c, 1, 66, 0
1, 199166, Note_on_c, 1, 67, 127
1, 199298, Note_on_c, 1, 60, 127
1, 199426, Note_off_c, 1, 67, 0
1, 199426, Note_off_c, 1, 60, 0
1, 199430, Note_on_c, 1, 75, 127
1, 199430, Note_on_c, 1, 57, 127
1, 199558, Note_off_c, 1, 54, 0
1, 199558, Note_off_c, 1, 75, 0
1, 199558, Note_off_c, 1, 57, 0
1, 199561, Note_on_c, 1, 55, 127
1, 199561, Note_on_c, 1, 76, 127
1, 199561, Note_on_c, 1, 52, 127
1, 199689, Note_off_c, 1, 55, 0
1, 199693, Note_on_c, 1, 57, 127
1, 199821, Note_off_c, 1, 57, 0
1, 199825, Note_on_c, 1, 59, 127
1, 199953, Note_off_c, 1, 76, 0
1, 199953, Note_off_c, 1, 59, 0
1, 199956, Note_on_c, 1, 60, 127
1, 199956, Note_on_c, 1, 66, 127
1, 200084, Note_off_c, 1, 60, 0
1, 200348, Note_off_c, 1, 52, 0
1, 200352, Note_on_c, 1, 51, 127
1, 200478, Note_off_c, 1, 66, 0
1, 200482, Note_on_c, 1, 67, 127
1, 200610, Note_off_c, 1, 67, 0
1, 200614, Note_on_c, 1, 69, 127
1, 200742, Note_off_c, 1, 69, 0
1, 200744, Note_off_c, 1, 51, 0
1, 201009, Note_on_c, 1, 64, 127
1, 201137, Note_off_c, 1, 64, 0
1, 201141, Note_on_c, 1, 63, 127
1, 201141, Note_on_c, 1, 54, 127
1, 201269, Note_off_c, 1, 63, 0
1, 201271, Note_on_c, 1, 72, 127
1, 201399, Note_off_c, 1, 72, 0
1, 201403, Note_on_c, 1, 71, 127
1, 201531, Note_off_c, 1, 71, 0
1, 201533, Note_off_c, 1, 54, 0
1, 201535, Note_on_c, 1, 69, 127
1, 201535, Note_on_c, 1, 75, 127
1, 201535, Note_on_c, 1, 47, 127
1, 201663, Note_off_c, 1, 69, 0
1, 201666, Note_on_c, 1, 67, 127
1, 201794, Note_off_c, 1, 67, 0
1, 201798, Note_on_c, 1, 66, 127
1, 201926, Note_off_c, 1, 66, 0
1, 201927, Note_off_c, 1, 75, 0
1, 201927, Note_off_c, 1, 47, 0
1, 201930, Note_on_c, 1, 67, 127
1, 201930, Note_on_c, 1, 52, 127
1, 201930, Note_on_c, 1, 76, 127
1, 202058, Note_off_c, 1, 67, 0
1, 202060, Note_on_c, 1, 69, 127
1, 202188, Note_off_c, 1, 69, 0
1, 202192, Note_on_c, 1, 71, 127
1, 202320, Note_off_c, 1, 71, 0
1, 202322, Note_off_c, 1, 52, 0
1, 202324, Note_on_c, 1, 54, 127
1, 202587, Note_on_c, 1, 66, 127
1, 202715, Note_off_c, 1, 66, 0
1, 202716, Note_off_c, 1, 54, 0
1, 202719, Note_on_c, 1, 55, 127
1, 202719, Note_on_c, 1, 64, 127
1, 202847, Note_off_c, 1, 76, 0
1, 202850, Note_on_c, 1, 77, 127
1, 202978, Note_off_c, 1, 77, 0
1, 203111, Note_off_c, 1, 55, 0
1, 203114, Note_on_c, 1, 74, 127
1, 203114, Note_on_c, 1, 56, 127
1, 203242, Note_off_c, 1, 74, 0
1, 203245, Note_on_c, 1, 72, 127
1, 203373, Note_off_c, 1, 72, 0
1, 203506, Note_off_c, 1, 56, 0
1, 203508, Note_on_c, 1, 57, 127
1, 203768, Note_off_c, 1, 64, 0
1, 203900, Note_off_c, 1, 57, 0
1, 203903, Note_on_c, 1, 59, 127
1, 204165, Note_on_c, 1, 68, 127
1, 204293, Note_off_c, 1, 68, 0
1, 204295, Note_off_c, 1, 59, 0
1, 204297, Note_on_c, 1, 60, 127
1, 204297, Note_on_c, 1, 69, 127
1, 204427, Note_on_c, 1, 83, 127
1, 204555, Note_off_c, 1, 83, 0
1, 204558, Note_on_c, 1, 81, 127
1, 204677, Note_off_c, 1, 60, 0
1, 204686, Note_off_c, 1, 81, 0
1, 204687, Note_off_c, 1, 69, 0
1, 204690, Note_on_c, 1, 79, 127
1, 204690, Note_on_c, 1, 61, 127
1, 204690, Note_on_c, 1, 64, 127
1, 204818, Note_off_c, 1, 79, 0
1, 204821, Note_on_c, 1, 78, 127
1, 204949, Note_off_c, 1, 78, 0
1, 204953, Note_on_c, 1, 76, 127
1, 205070, Note_off_c, 1, 61, 0
1, 205078, Note_off_c, 1, 64, 0
1, 205081, Note_off_c, 1, 76, 0
1, 205085, Note_on_c, 1, 78, 127
1, 205085, Note_on_c, 1, 50, 127
1, 205213, Note_off_c, 1, 78, 0
1, 205216, Note_on_c, 1, 79, 127
1, 205344, Note_off_c, 1, 79, 0
1, 205348, Note_on_c, 1, 81, 127
1, 205348, Note_on_c, 1, 62, 127
1, 205476, Note_off_c, 1, 81, 0
1, 205477, Note_off_c, 1, 50, 0
1, 205479, Note_on_c, 1, 52, 127
1, 205740, Note_off_c, 1, 62, 0
1, 205743, Note_on_c, 1, 76, 127
1, 205743, Note_on_c, 1, 61, 127
1, 205871, Note_off_c, 1, 52, 0
1, 205871, Note_off_c, 1, 76, 0
1, 205871, Note_off_c, 1, 61, 0
1, 205874, Note_on_c, 1, 74, 127
1, 205874, Note_on_c, 1, 54, 127
1, 205874, Note_on_c, 1, 62, 127
1, 206002, Note_off_c, 1, 74, 0
1, 206005, Note_on_c, 1, 76, 127
1, 206133, Note_off_c, 1, 76, 0
1, 206254, Note_off_c, 1, 54, 0
1, 206268, Note_on_c, 1, 72, 127
1, 206268, Note_on_c, 1, 50, 127
1, 206396, Note_off_c, 1, 72, 0
1, 206399, Note_on_c, 1, 71, 127
1, 206527, Note_off_c, 1, 71, 0
1, 206532, Note_on_c, 1, 69, 127
1, 206648, Note_off_c, 1, 50, 0
1, 206660, Note_off_c, 1, 69, 0
1, 206663, Note_on_c, 1, 55, 127
1, 206923, Note_off_c, 1, 62, 0
1, 206926, Note_on_c, 1, 64, 127
1, 207055, Note_off_c, 1, 55, 0
1, 207057, Note_on_c, 1, 57, 127
1, 207318, Note_off_c, 1, 64, 0
1, 207321, Note_on_c, 1, 66, 127
1, 207449, Note_off_c, 1, 57, 0
1, 207449, Note_off_c, 1, 66, 0
1, 207453, Note_on_c, 1, 67, 127
1, 207453, Note_on_c, 1, 59, 127
1, 207581, Note_off_c, 1, 67, 0
1, 207583, Note_on_c, 1, 69, 127
1, 207711, Note_off_c, 1, 69, 0
1, 207833, Note_off_c, 1, 59, 0
1, 207848, Note_on_c, 1, 65, 127
1, 207848, Note_on_c, 1, 55, 127
1, 207976, Note_off_c, 1, 65, 0
1, 207978, Note_on_c, 1, 64, 127
1, 208106, Note_off_c, 1, 64, 0
1, 208110, Note_on_c, 1, 62, 127
1, 208228, Note_off_c, 1, 55, 0
1, 208238, Note_off_c, 1, 62, 0
1, 208242, Note_on_c, 1, 64, 127
1, 208242, Note_on_c, 1, 48, 127
1, 208370, Note_off_c, 1, 64, 0
1, 208370, Note_off_c, 1, 48, 0
1, 208373, Note_on_c, 1, 65, 127
1, 208373, Note_on_c, 1, 50, 127
1, 208501, Note_off_c, 1, 65, 0
1, 208501, Note_off_c, 1, 50, 0
1, 208505, Note_on_c, 1, 67, 127
1, 208505, Note_on_c, 1, 52, 127
1, 208633, Note_off_c, 1, 67, 0
1, 208633, Note_off_c, 1, 52, 0
1, 208637, Note_on_c, 1, 65, 127
1, 208637, Note_on_c, 1, 50, 127
1, 208765, Note_off_c, 1, 65, 0
1, 208765, Note_off_c, 1, 50, 0
1, 208768, Note_on_c, 1, 64, 127
1, 208768, Note_on_c, 1, 52, 127
1, 208896, Note_off_c, 1, 64, 0
1, 208896, Note_off_c, 1, 52, 0
1, 208899, Note_on_c, 1, 62, 127
1, 208899, Note_on_c, 1, 53, 127
1, 209027, Note_off_c, 1, 62, 0
1, 209027, Note_off_c, 1, 53, 0
1, 209031, Note_on_c, 1, 60, 127
1, 209031, Note_on_c, 1, 52, 127
1, 209159, Note_off_c, 1, 60, 0
1, 209159, Note_off_c, 1, 52, 0
1, 209162, Note_on_c, 1, 62, 127
1, 209162, Note_on_c, 1, 56, 127
1, 209290, Note_off_c, 1, 62, 0
1, 209290, Note_off_c, 1, 56, 0
1, 209294, Note_on_c, 1, 60, 127
1, 209294, Note_on_c, 1, 57, 127
1, 209422, Note_off_c, 1, 60, 0
1, 209422, Note_off_c, 1, 57, 0
1, 209426, Note_on_c, 1, 59, 127
1, 209426, Note_on_c, 1, 50, 127
1, 209554, Note_off_c, 1, 59, 0
1, 209557, Note_on_c, 1, 69, 127
1, 209557, Note_on_c, 1, 57, 127
1, 209685, Note_off_c, 1, 69, 0
1, 209685, Note_off_c, 1, 57, 0
1, 209688, Note_on_c, 1, 71, 127
1, 209688, Note_on_c, 1, 56, 127
1, 209816, Note_off_c, 1, 71, 0
1, 209816, Note_off_c, 1, 56, 0
1, 209818, Note_off_c, 1, 50, 0
1, 209820, Note_on_c, 1, 48, 127
1, 209820, Note_on_c, 1, 72, 127
1, 209820, Note_on_c, 1, 57, 127
1, 209948, Note_off_c, 1, 48, 0
1, 209953, Note_on_c, 1, 50, 127
1, 210081, Note_off_c, 1, 50, 0
1, 210083, Note_on_c, 1, 52, 127
1, 210211, Note_off_c, 1, 52, 0
1, 210212, Note_off_c, 1, 72, 0
1, 210215, Note_on_c, 1, 74, 127
1, 210215, Note_on_c, 1, 53, 127
1, 210311, Note_off_c, 1, 74, 0
1, 210411, Note_on_c, 1, 71, 127
1, 210507, Note_off_c, 1, 71, 0
1, 210605, Note_off_c, 1, 53, 0
1, 210608, Note_on_c, 1, 47, 127
1, 210735, Note_off_c, 1, 57, 0
1, 211002, Note_on_c, 1, 76, 127
1, 211002, Note_on_c, 1, 56, 127
1, 211098, Note_off_c, 1, 76, 0
1, 211389, Note_off_c, 1, 56, 0
1, 211393, Note_off_c, 1, 47, 0
1, 211395, Note_on_c, 1, 76, 127
1, 211395, Note_on_c, 1, 45, 127
1, 211525, Note_on_c, 1, 48, 127
1, 211653, Note_off_c, 1, 48, 0
1, 211656, Note_on_c, 1, 50, 127
1, 211784, Note_off_c, 1, 50, 0
1, 211785, Note_off_c, 1, 76, 0
1, 211788, Note_on_c, 1, 52, 127
1, 211788, Note_on_c, 1, 72, 127
1, 211916, Note_off_c, 1, 52, 0
1, 211920, Note_on_c, 1, 54, 127
1, 212048, Note_off_c, 1, 54, 0
1, 212051, Note_on_c, 1, 56, 127
1, 212179, Note_off_c, 1, 56, 0
1, 212180, Note_off_c, 1, 72, 0
1, 212182, Note_on_c, 1, 57, 127
1, 212182, Note_on_c, 1, 69, 127
1, 212310, Note_off_c, 1, 57, 0
1, 212313, Note_off_c, 1, 45, 0
1, 212314, Note_on_c, 1, 59, 127
1, 212442, Note_off_c, 1, 59, 0
1, 212446, Note_on_c, 1, 60, 127
1, 212574, Note_off_c, 1, 69, 0
1, 212574, Note_off_c, 1, 60, 0
1, 212577, Note_on_c, 1, 62, 127
1, 212577, Note_on_c, 1, 77, 127
1, 212705, Note_off_c, 1, 62, 0
1, 212709, Note_on_c, 1, 64, 127
1, 212837, Note_off_c, 1, 64, 0
1, 212840, Note_on_c, 1, 65, 127
1, 212968, Note_off_c, 1, 65, 0
1, 212971, Note_on_c, 1, 56, 127
1, 212971, Note_on_c, 1, 74, 127
1, 213099, Note_off_c, 1, 56, 0
1, 213103, Note_on_c, 1, 57, 127
1, 213231, Note_off_c, 1, 57, 0
1, 213235, Note_on_c, 1, 59, 127
1, 213363, Note_off_c, 1, 59, 0
1, 213364, Note_off_c, 1, 77, 0
1, 213366, Note_on_c, 1, 60, 127
1, 213366, Note_on_c, 1, 76, 127
1, 213494, Note_off_c, 1, 60, 0
1, 213626, Note_off_c, 1, 76, 0
1, 213629, Note_on_c, 1, 80, 127
1, 213757, Note_off_c, 1, 80, 0
1, 213758, Note_off_c, 1, 74, 0
1, 213760, Note_on_c, 1, 54, 127
1, 213760, Note_on_c, 1, 81, 127
1, 213760, Note_on_c, 1, 72, 127
1, 213888, Note_off_c, 1, 54, 0
1, 213893, Note_on_c, 1, 56, 127
1, 214021, Note_off_c, 1, 56, 0
1, 214024, Note_on_c, 1, 57, 127
1, 214152, Note_off_c, 1, 81, 0
1, 214152, Note_off_c, 1, 57, 0
1, 214156, Note_on_c, 1, 59, 127
1, 214156, Note_on_c, 1, 74, 127
1, 214284, Note_off_c, 1, 59, 0
1, 214287, Note_on_c, 1, 60, 127
1, 214415, Note_off_c, 1, 60, 0
1, 214547, Note_off_c, 1, 72, 0
1, 214551, Note_on_c, 1, 71, 127
1, 214813, Note_on_c, 1, 52, 127
1, 214941, Note_off_c, 1, 52, 0
1, 214943, Note_off_c, 1, 74, 0
1, 215208, Note_on_c, 1, 80, 127
1, 215336, Note_off_c, 1, 80, 0
1, 215338, Note_off_c, 1, 71, 0
1, 215340, Note_on_c, 1, 53, 127
1, 215340, Note_on_c, 1, 81, 127
1, 215340, Note_on_c, 1, 69, 127
1, 215468, Note_off_c, 1, 53, 0
1, 215471, Note_on_c, 1, 57, 127
1, 215599, Note_off_c, 1, 57, 0
1, 215602, Note_on_c, 1, 55, 127
1, 215730, Note_off_c, 1, 55, 0
1, 215732, Note_off_c, 1, 81, 0
1, 215734, Note_on_c, 1, 71, 127
1, 215998, Note_on_c, 1, 52, 127
1, 216126, Note_off_c, 1, 52, 0
1, 216127, Note_off_c, 1, 69, 0
1, 216129, Note_on_c, 1, 50, 127
1, 216129, Note_on_c, 1, 68, 127
1, 216256, Note_off_c, 1, 71, 0
1, 216260, Note_on_c, 1, 72, 127
1, 216388, Note_off_c, 1, 72, 0
1, 216389, Note_off_c, 1, 50, 0
1, 216389, Note_off_c, 1, 68, 0
1, 216392, Note_on_c, 1, 74, 127
1, 216392, Note_on_c, 1, 56, 127
1, 216392, Note_on_c, 1, 53, 127
1, 216520, Note_off_c, 1, 74, 0
1, 216520, Note_off_c, 1, 56, 0
1, 216520, Note_off_c, 1, 53, 0
1, 216523, Note_on_c, 1, 72, 127
1, 216523, Note_on_c, 1, 57, 127
1, 216523, Note_on_c, 1, 52, 127
1, 216651, Note_off_c, 1, 72, 0
1, 216656, Note_on_c, 1, 71, 127
1, 216783, Note_off_c, 1, 57, 0
1, 216783, Note_off_c, 1, 52, 0
1, 216784, Note_off_c, 1, 71, 0
1, 216787, Note_on_c, 1, 69, 127
1, 216787, Note_on_c, 1, 60, 127
1, 216787, Note_on_c, 1, 51, 127
1, 216915, Note_off_c, 1, 69, 0
1, 216915, Note_off_c, 1, 60, 0
1, 216915, Note_off_c, 1, 51, 0
1, 216918, Note_on_c, 1, 68, 127
1, 216918, Note_on_c, 1, 59, 127
1, 216918, Note_on_c, 1, 52, 127
1, 217046, Note_off_c, 1, 68, 0
1, 217046, Note_off_c, 1, 59, 0
1, 217050, Note_on_c, 1, 77, 127
1, 217050, Note_on_c, 1, 62, 127
1, 217178, Note_off_c, 1, 77, 0
1, 217178, Note_off_c, 1, 62, 0
1, 217181, Note_on_c, 1, 76, 127
1, 217181, Note_on_c, 1, 60, 127
1, 217309, Note_off_c, 1, 76, 0
1, 217309, Note_off_c, 1, 60, 0
1, 217313, Note_on_c, 1, 74, 127
1, 217441, Note_off_c, 1, 74, 0
1, 217445, Note_on_c, 1, 72, 127
1, 217445, Note_on_c, 1, 57, 127
1, 217573, Note_off_c, 1, 72, 0
1, 217573, Note_off_c, 1, 57, 0
1, 217576, Note_on_c, 1, 71, 127
1, 217576, Note_on_c, 1, 56, 127
1, 217704, Note_off_c, 1, 71, 0
1, 217704, Note_off_c, 1, 56, 0
1, 217705, Note_off_c, 1, 52, 0
1, 217707, Note_on_c, 1, 72, 127
1, 217707, Note_on_c, 1, 45, 127
1, 217707, Note_on_c, 1, 57, 127
1, 217835, Note_off_c, 1, 72, 0
1, 217839, Note_on_c, 1, 74, 127
1, 217967, Note_off_c, 1, 45, 0
1, 217967, Note_off_c, 1, 74, 0
1, 217971, Note_on_c, 1, 76, 127
1, 217971, Note_on_c, 1, 52, 127
1, 218095, Note_off_c, 1, 57, 0
1, 218099, Note_off_c, 1, 76, 0
1, 218099, Note_off_c, 1, 52, 0
1, 218102, Note_on_c, 1, 74, 127
1, 218102, Note_on_c, 1, 57, 127
1, 218230, Note_off_c, 1, 74, 0
1, 218234, Note_on_c, 1, 72, 127
1, 218362, Note_off_c, 1, 57, 0
1, 218362, Note_off_c, 1, 72, 0
1, 218365, Note_on_c, 1, 71, 127
1, 218365, Note_on_c, 1, 59, 127
1, 218493, Note_off_c, 1, 71, 0
1, 218493, Note_off_c, 1, 59, 0
1, 218496, Note_on_c, 1, 60, 127
1, 218496, Note_on_c, 1, 69, 127
1, 218627, Note_on_c, 1, 67, 127
1, 218754, Note_off_c, 1, 60, 0
1, 218755, Note_off_c, 1, 67, 0
1, 218758, Note_on_c, 1, 66, 127
1, 218758, Note_on_c, 1, 57, 127
1, 218886, Note_off_c, 1, 66, 0
1, 218886, Note_off_c, 1, 57, 0
1, 218889, Note_on_c, 1, 64, 127
1, 218889, Note_on_c, 1, 54, 127
1, 219017, Note_off_c, 1, 64, 0
1, 219021, Note_on_c, 1, 63, 127
1, 219149, Note_off_c, 1, 54, 0
1, 219149, Note_off_c, 1, 63, 0
1, 219153, Note_on_c, 1, 61, 127
1, 219281, Note_off_c, 1, 61, 0
1, 219284, Note_on_c, 1, 47, 127
1, 219412, Note_off_c, 1, 47, 0
1, 219416, Note_on_c, 1, 49, 127
1, 219544, Note_off_c, 1, 49, 0
1, 219548, Note_on_c, 1, 51, 127
1, 219676, Note_off_c, 1, 51, 0
1, 219942, Note_on_c, 1, 52, 127
1, 220070, Note_off_c, 1, 52, 0
1, 220073, Note_on_c, 1, 59, 127
1, 220200, Note_off_c, 1, 69, 0
1, 220337, Note_on_c, 1, 55, 127
1, 220465, Note_off_c, 1, 55, 0
1, 221126, Note_off_c, 1, 59, 0
1, 221530, Note_on_c, 1, 50, 127
1, 221660, Note_off_c, 1, 50, 0
1, 221662, Note_on_c, 1, 58, 127
1, 222059, Note_off_c, 1, 58, 0
1, 222063, Note_on_c, 1, 67, 127
1, 222063, Note_on_c, 1, 48, 127
1, 222063, Note_on_c, 1, 57, 127
1, 222193, Note_off_c, 1, 67, 0
1, 222197, Note_on_c, 1, 66, 127
1, 222327, Note_off_c, 1, 66, 0
1, 222331, Note_on_c, 1, 69, 127
1, 222460, Note_off_c, 1, 48, 0
1, 222461, Note_off_c, 1, 69, 0
1, 222463, Note_on_c, 1, 63, 127
1, 222463, Note_on_c, 1, 47, 127
1, 222597, Note_off_c, 1, 57, 0
1, 222601, Note_on_c, 1, 60, 127
1, 222734, Note_off_c, 1, 63, 0
1, 222734, Note_off_c, 1, 60, 0
1, 222737, Note_on_c, 1, 64, 127
1, 222737, Note_on_c, 1, 59, 127
1, 222870, Note_off_c, 1, 64, 0
1, 222870, Note_off_c, 1, 59, 0
1, 223012, Note_on_c, 1, 55, 127
1, 223145, Note_off_c, 1, 55, 0
1, 223149, Note_on_c, 1, 54, 127
1, 223282, Note_off_c, 1, 54, 0
1, 223850, Note_on_c, 1, 71, 127
1, 223983, Note_off_c, 1, 71, 0
1, 224246, Note_off_c, 1, 47, 0
1, 224282, Note_on_c, 1, 49, 127
1, 224419, Note_off_c, 1, 49, 0
1, 224422, Note_on_c, 1, 51, 127
1, 224559, Note_off_c, 1, 51, 0
1, 224563, Note_on_c, 1, 52, 127
1, 224700, Note_off_c, 1, 52, 0
1, 224986, Note_on_c, 1, 46, 127
1, 225267, Note_on_c, 1, 70, 127
1, 225404, Note_off_c, 1, 70, 0
1, 225408, Note_on_c, 1, 73, 127
1, 225545, Note_off_c, 1, 73, 0
1, 225548, Note_on_c, 1, 75, 127
1, 225685, Note_off_c, 1, 75, 0
1, 225689, Note_on_c, 1, 76, 127
1, 225836, Note_off_c, 1, 76, 0
1, 225838, Note_off_c, 1, 46, 0
1, 225863, Note_on_c, 1, 64, 127
1, 225863, Note_on_c, 1, 55, 127
1, 225863, Note_on_c, 1, 47, 127
1, 226353, Note_off_c, 1, 64, 0
1, 226353, Note_off_c, 1, 55, 0
1, 226367, Note_on_c, 1, 63, 127
1, 226367, Note_on_c, 1, 54, 127
1, 226833, Note_off_c, 1, 63, 0
1, 226833, Note_off_c, 1, 54, 0
1, 227005, Note_off_c, 1, 47, 0
1, 227017, Note_on_c, 1, 48, 127
1, 227145, Note_off_c, 1, 48, 0
1, 227148, Note_on_c, 1, 47, 127
1, 227276, Note_off_c, 1, 47, 0
1, 227280, Note_on_c, 1, 45, 127
1, 227408, Note_off_c, 1, 45, 0
1, 227412, Note_on_c, 1, 43, 127
1, 227540, Note_off_c, 1, 43, 0
1, 227543, Note_on_c, 1, 42, 127
1, 227671, Note_off_c, 1, 42, 0
1, 227675, Note_on_c, 1, 43, 127
1, 227803, Note_off_c, 1, 43, 0
1, 227806, Note_on_c, 1, 45, 127
1, 227806, Note_on_c, 1, 59, 127
1, 227934, Note_off_c, 1, 45, 0
1, 227934, Note_off_c, 1, 59, 0
1, 227937, Note_on_c, 1, 43, 127
1, 227937, Note_on_c, 1, 61, 127
1, 228065, Note_off_c, 1, 43, 0
1, 228065, Note_off_c, 1, 61, 0
1, 228069, Note_on_c, 1, 42, 127
1, 228069, Note_on_c, 1, 63, 127
1, 228197, Note_off_c, 1, 42, 0
1, 228197, Note_off_c, 1, 63, 0
1, 228201, Note_on_c, 1, 40, 127
1, 228201, Note_on_c, 1, 64, 127
1, 228329, Note_off_c, 1, 40, 0
1, 228329, Note_off_c, 1, 64, 0
1, 228332, Note_on_c, 1, 39, 127
1, 228332, Note_on_c, 1, 66, 127
1, 228460, Note_off_c, 1, 39, 0
1, 228460, Note_off_c, 1, 66, 0
1, 228464, Note_on_c, 1, 67, 127
1, 228464, Note_on_c, 1, 40, 127
1, 228592, Note_off_c, 1, 67, 0
1, 228596, Note_on_c, 1, 72, 127
1, 228724, Note_off_c, 1, 72, 0
1, 228726, Note_on_c, 1, 71, 127
1, 228854, Note_off_c, 1, 71, 0
1, 228859, Note_on_c, 1, 69, 127
1, 228986, Note_off_c, 1, 40, 0
1, 228987, Note_off_c, 1, 69, 0
1, 228991, Note_on_c, 1, 40, 127
1, 228991, Note_on_c, 1, 67, 127
1, 229119, Note_off_c, 1, 40, 0
1, 229119, Note_off_c, 1, 67, 0
1, 229121, Note_on_c, 1, 42, 127
1, 229121, Note_on_c, 1, 66, 127
1, 229249, Note_off_c, 1, 42, 0
1, 229249, Note_off_c, 1, 66, 0
1, 229253, Note_on_c, 1, 64, 127
1, 229253, Note_on_c, 1, 43, 127
1, 229381, Note_off_c, 1, 64, 0
1, 229385, Note_on_c, 1, 79, 127
1, 229513, Note_off_c, 1, 79, 0
1, 229516, Note_on_c, 1, 76, 127
1, 229644, Note_off_c, 1, 76, 0
1, 229645, Note_off_c, 1, 43, 0
1, 229648, Note_on_c, 1, 45, 127
1, 229648, Note_on_c, 1, 73, 127
1, 229744, Note_off_c, 1, 45, 0
1, 229746, Note_on_c, 1, 43, 127
1, 229842, Note_off_c, 1, 43, 0
1, 229844, Note_on_c, 1, 42, 127
1, 229940, Note_off_c, 1, 42, 0
1, 230038, Note_off_c, 1, 73, 0
1, 230040, Note_on_c, 1, 66, 127
1, 230040, Note_on_c, 1, 45, 127
1, 230168, Note_off_c, 1, 66, 0
1, 230173, Note_on_c, 1, 81, 127
1, 230301, Note_off_c, 1, 81, 0
1, 230303, Note_on_c, 1, 78, 127
1, 230431, Note_off_c, 1, 78, 0
1, 230432, Note_off_c, 1, 45, 0
1, 230435, Note_on_c, 1, 47, 127
1, 230435, Note_on_c, 1, 75, 127
1, 230531, Note_off_c, 1, 47, 0
1, 230533, Note_on_c, 1, 45, 127
1, 230629, Note_off_c, 1, 45, 0
1, 230631, Note_on_c, 1, 43, 127
1, 230727, Note_off_c, 1, 43, 0
1, 230825, Note_off_c, 1, 75, 0
1, 230828, Note_on_c, 1, 67, 127
1, 230828, Note_on_c, 1, 47, 127
1, 230956, Note_off_c, 1, 67, 0
1, 230960, Note_on_c, 1, 83, 127
1, 231088, Note_off_c, 1, 83, 0
1, 231092, Note_on_c, 1, 79, 127
1, 231220, Note_off_c, 1, 47, 0
1, 231220, Note_off_c, 1, 79, 0
1, 231222, Note_on_c, 1, 76, 127
1, 231222, Note_on_c, 1, 43, 127
1, 231350, Note_off_c, 1, 76, 0
1, 231354, Note_on_c, 1, 74, 127
1, 231482, Note_off_c, 1, 74, 0
1, 231487, Note_on_c, 1, 73, 127
1, 231614, Note_off_c, 1, 43, 0
1, 231615, Note_off_c, 1, 73, 0
1, 231617, Note_on_c, 1, 71, 127
1, 231617, Note_on_c, 1, 40, 127
1, 231617, Note_on_c, 1, 74, 127
1, 231745, Note_off_c, 1, 71, 0
1, 231881, Note_on_c, 1, 68, 127
1, 232009, Note_off_c, 1, 40, 0
1, 232009, Note_off_c, 1, 68, 0
1, 232011, Note_on_c, 1, 64, 127
1, 232011, Note_on_c, 1, 48, 127
1, 232139, Note_off_c, 1, 64, 0
1, 232144, Note_on_c, 1, 66, 127
1, 232272, Note_off_c, 1, 66, 0
1, 232404, Note_off_c, 1, 74, 0
1, 232406, Note_on_c, 1, 72, 127
1, 232406, Note_on_c, 1, 69, 127
1, 232534, Note_off_c, 1, 72, 0
1, 232798, Note_off_c, 1, 48, 0
1, 232801, Note_on_c, 1, 63, 127
1, 232801, Note_on_c, 1, 47, 127
1, 232929, Note_off_c, 1, 63, 0
1, 233061, Note_off_c, 1, 47, 0
1, 233065, Note_on_c, 1, 51, 127
1, 233193, Note_off_c, 1, 69, 0
1, 233193, Note_off_c, 1, 51, 0
1, 233196, Note_on_c, 1, 52, 127
1, 233196, Note_on_c, 1, 67, 127
1, 233325, Note_on_c, 1, 69, 127
1, 233453, Note_off_c, 1, 69, 0
1, 233458, Note_on_c, 1, 71, 127
1, 233586, Note_off_c, 1, 52, 0
1, 233586, Note_off_c, 1, 71, 0
1, 233589, Note_on_c, 1, 72, 127
1, 233589, Note_on_c, 1, 45, 127
1, 233717, Note_off_c, 1, 72, 0
1, 233981, Note_off_c, 1, 67, 0
1, 233983, Note_on_c, 1, 75, 127
1, 233983, Note_on_c, 1, 66, 127
1, 234111, Note_off_c, 1, 75, 0
1, 234115, Note_on_c, 1, 76, 127
1, 234243, Note_off_c, 1, 76, 0
1, 234247, Note_on_c, 1, 78, 127
1, 234375, Note_off_c, 1, 78, 0
1, 234376, Note_off_c, 1, 45, 0
1, 234378, Note_on_c, 1, 43, 127
1, 234638, Note_off_c, 1, 43, 0
1, 234641, Note_on_c, 1, 51, 127
1, 234769, Note_off_c, 1, 51, 0
1, 234770, Note_off_c, 1, 66, 0
1, 234773, Note_on_c, 1, 67, 127
1, 234773, Note_on_c, 1, 52, 127
1, 234773, Note_on_c, 1, 64, 127
1, 234901, Note_off_c, 1, 67, 0
1, 234904, Note_on_c, 1, 66, 127
1, 235032, Note_off_c, 1, 66, 0
1, 235165, Note_off_c, 1, 52, 0
1, 235167, Note_on_c, 1, 69, 127
1, 235167, Note_on_c, 1, 42, 127
1, 235295, Note_off_c, 1, 69, 0
1, 235299, Note_on_c, 1, 71, 127
1, 235427, Note_off_c, 1, 71, 0
1, 235430, Note_on_c, 1, 72, 127
1, 235560, Note_off_c, 1, 64, 0
1, 235562, Note_on_c, 1, 63, 127
1, 235689, Note_off_c, 1, 42, 0
1, 235694, Note_on_c, 1, 43, 127
1, 235822, Note_off_c, 1, 43, 0
1, 235825, Note_on_c, 1, 45, 127
1, 235952, Note_off_c, 1, 72, 0
1, 235953, Note_off_c, 1, 45, 0
1, 235954, Note_off_c, 1, 63, 0
1, 235956, Note_on_c, 1, 43, 127
1, 235956, Note_on_c, 1, 71, 127
1, 235956, Note_on_c, 1, 64, 127
1, 236084, Note_off_c, 1, 43, 0
1, 236084, Note_off_c, 1, 71, 0
1, 236088, Note_on_c, 1, 42, 127
1, 236088, Note_on_c, 1, 69, 127
1, 236216, Note_off_c, 1, 42, 0
1, 236216, Note_off_c, 1, 69, 0
1, 236220, Note_on_c, 1, 40, 127
1, 236220, Note_on_c, 1, 67, 127
1, 236348, Note_off_c, 1, 64, 0
1, 236348, Note_off_c, 1, 40, 0
1, 236348, Note_off_c, 1, 67, 0
1, 236351, Note_on_c, 1, 39, 127
1, 236351, Note_on_c, 1, 66, 127
1, 236351, Note_on_c, 1, 69, 127
1, 236479, Note_off_c, 1, 39, 0
1, 236483, Note_on_c, 1, 48, 127
1, 236611, Note_off_c, 1, 48, 0
1, 236614, Note_on_c, 1, 47, 127
1, 236742, Note_off_c, 1, 47, 0
1, 236745, Note_on_c, 1, 45, 127
1, 236873, Note_off_c, 1, 45, 0
1, 236878, Note_on_c, 1, 43, 127
1, 237006, Note_off_c, 1, 43, 0
1, 237009, Note_on_c, 1, 42, 127
1, 237137, Note_off_c, 1, 42, 0
1, 237400, Note_off_c, 1, 66, 0
1, 237400, Note_off_c, 1, 69, 0
1, 237403, Note_on_c, 1, 47, 127
1, 237403, Note_on_c, 1, 63, 127
1, 237403, Note_on_c, 1, 66, 127
1, 237531, Note_off_c, 1, 47, 0
1, 237531, Note_off_c, 1, 63, 0
1, 237531, Note_off_c, 1, 66, 0
1, 237534, Note_on_c, 1, 45, 127
1, 237534, Note_on_c, 1, 59, 127
1, 237534, Note_on_c, 1, 71, 127
1, 237662, Note_off_c, 1, 45, 0
1, 237667, Note_on_c, 1, 43, 127
1, 237794, Note_off_c, 1, 59, 0
1, 237794, Note_off_c, 1, 71, 0
1, 237795, Note_off_c, 1, 43, 0
1, 237799, Note_on_c, 1, 42, 127
1, 237799, Note_on_c, 1, 63, 127
1, 237799, Note_on_c, 1, 69, 127
1, 237927, Note_off_c, 1, 42, 0
1, 237927, Note_off_c, 1, 63, 0
1, 237927, Note_off_c, 1, 69, 0
1, 237929, Note_on_c, 1, 40, 127
1, 237929, Note_on_c, 1, 67, 127
1, 237929, Note_on_c, 1, 64, 127
1, 238057, Note_off_c, 1, 40, 0
1, 238061, Note_on_c, 1, 52, 127
1, 238189, Note_off_c, 1, 52, 0
1, 238193, Note_on_c, 1, 50, 127
1, 238321, Note_off_c, 1, 50, 0
1, 238324, Note_on_c, 1, 48, 127
1, 238452, Note_off_c, 1, 48, 0
1, 238456, Note_on_c, 1, 47, 127
1, 238584, Note_off_c, 1, 47, 0
1, 238588, Note_on_c, 1, 46, 127
1, 238716, Note_off_c, 1, 46, 0
1, 238846, Note_off_c, 1, 67, 0
1, 238866, Note_on_c, 1, 71, 127
1, 238994, Note_off_c, 1, 71, 0
1, 238999, Note_on_c, 1, 69, 127
1, 239110, Note_off_c, 1, 64, 0
1, 239129, Note_off_c, 1, 69, 0
1, 239263, Note_on_c, 1, 66, 127
1, 239391, Note_off_c, 1, 66, 0
1, 239525, Note_on_c, 1, 63, 127
1, 239653, Note_off_c, 1, 63, 0
1, 239657, Note_on_c, 1, 51, 127
1, 239657, Note_on_c, 1, 72, 127
1, 239785, Note_off_c, 1, 51, 0
1, 239920, Note_on_c, 1, 54, 127
1, 240059, Note_off_c, 1, 54, 0
1, 240068, Note_on_c, 1, 55, 127
1, 240071, Note_off_c, 1, 72, 0
1, 240200, Note_on_c, 1, 57, 127
1, 240207, Note_off_c, 1, 55, 0
1, 240328, Note_off_c, 1, 57, 0
1, 240332, Note_on_c, 1, 67, 127
1, 240332, Note_on_c, 1, 55, 127
1, 240332, Note_on_c, 1, 47, 127
1, 240462, Note_off_c, 1, 67, 0
1, 240480, Note_on_c, 1, 64, 127
1, 240745, Note_on_c, 1, 73, 127
1, 240858, Note_off_c, 1, 55, 0
1, 240877, Note_on_c, 1, 58, 127
1, 241006, Note_off_c, 1, 64, 0
1, 241007, Note_off_c, 1, 58, 0
1, 241011, Note_on_c, 1, 59, 127
1, 241125, Note_off_c, 1, 47, 0
1, 241275, Note_off_c, 1, 73, 0
1, 241277, Note_on_c, 1, 66, 127
1, 241409, Note_on_c, 1, 69, 127
1, 241541, Note_on_c, 1, 75, 127
1, 241605, Note_off_c, 1, 59, 0
1, 241801, Note_off_c, 1, 66, 0
1, 241935, Note_off_c, 1, 69, 0
1, 242069, Note_off_c, 1, 75, 0
1, 242222, Note_on_c, 1, 71, 127
1, 242355, Note_on_c, 1, 76, 127
1, 242752, Note_off_c, 1, 71, 0
1, 242885, Note_off_c, 1, 76, 0
1, 243172, Note_on_c, 1, 78, 127
1, 243704, Note_off_c, 1, 78, 0
1, 243992, Note_on_c, 1, 79, 127
1, 244431, Note_on_c, 1, 54, 127
1, 244574, Note_off_c, 1, 54, 0
1, 244723, Note_on_c, 1, 51, 127
1, 244866, Note_off_c, 1, 51, 0
1, 244870, Note_on_c, 1, 52, 127
1, 245013, Note_off_c, 1, 52, 0
1, 245162, Note_on_c, 1, 48, 127
1, 245305, Note_off_c, 1, 48, 0
1, 245309, Note_on_c, 1, 39, 127
1, 245464, Note_off_c, 1, 79, 0
1, 245482, Note_on_c, 1, 72, 127
1, 245798, Note_on_c, 1, 81, 127
1, 245948, Note_off_c, 1, 72, 0
1, 245952, Note_off_c, 1, 81, 0
1, 248180, Note_off_c, 1, 39, 0
1, 248199, Note_on_c, 1, 64, 127
1, 248199, Note_on_c, 1, 59, 127
1, 248199, Note_on_c, 1, 45, 127
1, 248199, Note_on_c, 1, 54, 127
1, 248818, Note_off_c, 1, 64, 0
1, 248821, Note_on_c, 1, 63, 127
1, 249441, Note_off_c, 1, 59, 0
1, 249441, Note_off_c, 1, 45, 0
1, 249441, Note_off_c, 1, 54, 0
1, 249738, Note_off_c, 1, 63, 0
1, 249765, Note_on_c, 1, 76, 127
1, 249838, Note_off_c, 1, 76, 0
1, 249842, Note_on_c, 1, 75, 127
1, 249915, Note_off_c, 1, 75, 0
1, 249918, Note_on_c, 1, 73, 127
1, 249991, Note_off_c, 1, 73, 0
1, 249994, Note_on_c, 1, 75, 127
1, 250067, Note_off_c, 1, 75, 0
1, 250069, Note_on_c, 1, 76, 127
1, 250368, Note_on_c, 1, 58, 127
1, 250368, Note_on_c, 1, 66, 127
1, 250515, Note_off_c, 1, 58, 0
1, 250515, Note_off_c, 1, 66, 0
1, 250519, Note_on_c, 1, 67, 127
1, 250519, Note_on_c, 1, 59, 127
1, 250664, Note_off_c, 1, 76, 0
1, 250668, Note_on_c, 1, 74, 127
1, 250815, Note_off_c, 1, 74, 0
1, 250819, Note_on_c, 1, 72, 127
1, 250966, Note_off_c, 1, 72, 0
1, 250968, Note_on_c, 1, 71, 127
1, 251115, Note_off_c, 1, 71, 0
1, 251116, Note_off_c, 1, 67, 0
1, 251119, Note_on_c, 1, 69, 127
1, 251266, Note_off_c, 1, 69, 0
1, 251268, Note_on_c, 1, 64, 127
1, 251418, Note_off_c, 1, 64, 0
1, 251423, Note_on_c, 1, 63, 127
1, 251726, Note_off_c, 1, 63, 0
1, 252514, Note_on_c, 1, 61, 127
1, 252672, Note_off_c, 1, 61, 0
1, 252998, Note_on_c, 1, 54, 127
1, 253156, Note_off_c, 1, 59, 0
1, 253156, Note_off_c, 1, 54, 0
1, 253158, Note_on_c, 1, 46, 127
1, 253158, Note_on_c, 1, 55, 127
1, 253158, Note_on_c, 1, 64, 127
1, 253322, Note_off_c, 1, 46, 0
1, 253322, Note_off_c, 1, 55, 0
1, 253325, Note_on_c, 1, 54, 127
1, 253325, Note_on_c, 1, 47, 127
1, 253488, Note_off_c, 1, 64, 0
1, 253492, Note_on_c, 1, 66, 127
1, 253580, Note_off_c, 1, 66, 0
1, 253583, Note_on_c, 1, 69, 127
1, 253695, Note_off_c, 1, 69, 0
1, 253700, Note_on_c, 1, 72, 127
1, 253848, Note_on_c, 1, 63, 127
1, 253859, Note_off_c, 1, 72, 0
1, 254005, Note_off_c, 1, 54, 0
1, 254198, Note_off_c, 1, 63, 0
1, 254205, Note_on_c, 1, 57, 127
1, 254393, Note_off_c, 1, 47, 0
1, 254400, Note_on_c, 1, 52, 127
1, 254557, Note_off_c, 1, 57, 0
1, 254585, Note_on_c, 1, 59, 127
1, 254585, Note_on_c, 1, 56, 127
1, 254760, Note_off_c, 1, 59, 0
1, 254760, Note_off_c, 1, 56, 0
1, 254763, Note_on_c, 1, 62, 127
1, 254938, Note_off_c, 1, 62, 0
1, 254940, Note_on_c, 1, 60, 127
1, 255115, Note_off_c, 1, 60, 0
1, 255712, Note_off_c, 1, 52, 0
1, 255722, Note_on_c, 1, 51, 127
1, 255931, Note_off_c, 1, 51, 0
1, 256221, Note_on_c, 1, 40, 127
1, 258818, Note_off_c, 1, 40, 0
1, 258818, End_track
0, 0, End_of_file