0, 0, Header, 1, 1, 480
1, 0, Start_track
1, 0, Title_t, "Test"
1, 0, Tempo, 500000
1, 0, Instrument_name_t, "Church Organ"
1, 64, Note_on_c, 1, 69, 127
1, 64, Note_on_c, 1, 45, 127
1, 194, Note_off_c, 1, 69, 0
1, 198, Note_on_c, 1, 71, 127
1, 328, Note_off_c, 1, 71, 0
1, 332, Note_on_c, 1, 72, 127
1, 596, Note_off_c, 1, 72, 0
1, 601, Note_on_c, 1, 76, 127
1, 865, Note_off_c, 1, 76, 0
1, 866, Note_off_c, 1, 45, 0
1, 870, Note_on_c, 1, 57, 127
1, 870, Note_on_c, 1, 72, 127
1, 1000, Note_off_c, 1, 57, 0
1, 1004, Note_on_c, 1, 56, 127
1, 1134, Note_off_c, 1, 72, 0
1, 1134, Note_off_c, 1, 56, 0
1, 1139, Note_on_c, 1, 57, 127
1, 1139, Note_on_c, 1, 69, 127
1, 1269, Note_off_c, 1, 57, 0
1, 1273, Note_on_c, 1, 56, 127
1, 1403, Note_off_c, 1, 69, 0
1, 1403, Note_off_c, 1, 56, 0
1, 1408, Note_on_c, 1, 57, 127
1, 1408, Note_on_c, 1, 64, 127
1, 1538, Note_off_c, 1, 57, 0
1, 1542, Note_on_c, 1, 56, 127
1, 1672, Note_off_c, 1, 64, 0
1, 1672, Note_off_c, 1, 56, 0
1, 1676, Note_on_c, 1, 57, 127
1, 1676, Note_on_c, 1, 69, 127
1, 1940, Note_off_c, 1, 57, 0
1, 1940, Note_off_c, 1, 69, 0
1, 1945, Note_on_c, 1, 52, 127
1, 1945, Note_on_c, 1, 72, 127
1, 2209, Note_off_c, 1, 52, 0
1, 2209, Note_off_c, 1, 72, 0
1, 2214, Note_on_c, 1, 48, 127
1, 2214, Note_on_c, 1, 76, 127
1, 2478, Note_off_c, 1, 48, 0
1, 2478, Note_off_c, 1, 76, 0
1, 2483, Note_on_c, 1, 71, 127
1, 2483, Note_on_c, 1, 45, 127
1, 2613, Note_off_c, 1, 71, 0
1, 2617, Note_on_c, 1, 72, 127
1, 2747, Note_off_c, 1, 72, 0
1, 2752, Note_on_c, 1, 74, 127
1, 3016, Note_off_c, 1, 74, 0
1, 3020, Note_on_c, 1, 77, 127
1, 3284, Note_off_c, 1, 77, 0
1, 3285, Note_off_c, 1, 45, 0
1, 3289, Note_on_c, 1, 57, 127
1, 3289, Note_on_c, 1, 74, 127
1, 3419, Note_off_c, 1, 57, 0
1, 3424, Note_on_c, 1, 56, 127
1, 3553, Note_off_c, 1, 74, 0
1, 3554, Note_off_c, 1, 56, 0
1, 3558, Note_on_c, 1, 57, 127
1, 3558, Note_on_c, 1, 71, 127
1, 3688, Note_off_c, 1, 57, 0
1, 3692, Note_on_c, 1, 56, 127
1, 3822, Note_off_c, 1, 71, 0
1, 3822, Note_off_c, 1, 56, 0
1, 3827, Note_on_c, 1, 57, 127
1, 3827, Note_on_c, 1, 68, 127
1, 3957, Note_off_c, 1, 57, 0
1, 3961, Note_on_c, 1, 56, 127
1, 4091, Note_off_c, 1, 68, 0
1, 4091, Note_off_c, 1, 56, 0
1, 4096, Note_on_c, 1, 57, 127
1, 4096, Note_on_c, 1, 71, 127
1, 4360, Note_off_c, 1, 57, 0
1, 4360, Note_off_c, 1, 71, 0
1, 4364, Note_on_c, 1, 53, 127
1, 4364, Note_on_c, 1, 74, 127
1, 4628, Note_off_c, 1, 53, 0
1, 4628, Note_off_c, 1, 74, 0
1, 4633, Note_on_c, 1, 50, 127
1, 4633, Note_on_c, 1, 77, 127
1, 4897, Note_off_c, 1, 50, 0
1, 4897, Note_off_c, 1, 77, 0
1, 4902, Note_on_c, 1, 74, 127
1, 4902, Note_on_c, 1, 45, 127
1, 5032, Note_off_c, 1, 74, 0
1, 5036, Note_on_c, 1, 76, 127
1, 5166, Note_off_c, 1, 76, 0
1, 5171, Note_on_c, 1, 77, 127
1, 5435, Note_off_c, 1, 77, 0
1, 5440, Note_on_c, 1, 80, 127
1, 5704, Note_off_c, 1, 45, 0
1, 5704, Note_off_c, 1, 80, 0
1, 5708, Note_on_c, 1, 57, 127
1, 5708, Note_on_c, 1, 77, 127
1, 5838, Note_off_c, 1, 57, 0
1, 5843, Note_on_c, 1, 56, 127
1, 5972, Note_off_c, 1, 77, 0
1, 5973, Note_off_c, 1, 56, 0
1, 5977, Note_on_c, 1, 57, 127
1, 5977, Note_on_c, 1, 74, 127
1, 6107, Note_off_c, 1, 57, 0
1, 6112, Note_on_c, 1, 56, 127
1, 6241, Note_off_c, 1, 74, 0
1, 6242, Note_off_c, 1, 56, 0
1, 6246, Note_on_c, 1, 57, 127
1, 6246, Note_on_c, 1, 71, 127
1, 6376, Note_off_c, 1, 57, 0
1, 6380, Note_on_c, 1, 56, 127
1, 6510, Note_off_c, 1, 71, 0
1, 6510, Note_off_c, 1, 56, 0
1, 6515, Note_on_c, 1, 57, 127
1, 6515, Note_on_c, 1, 74, 127
1, 6779, Note_off_c, 1, 57, 0
1, 6779, Note_off_c, 1, 74, 0
1, 6784, Note_on_c, 1, 53, 127
1, 6784, Note_on_c, 1, 77, 127
1, 7048, Note_off_c, 1, 53, 0
1, 7048, Note_off_c, 1, 77, 0
1, 7052, Note_on_c, 1, 50, 127
1, 7052, Note_on_c, 1, 80, 127
1, 7316, Note_off_c, 1, 50, 0
1, 7316, Note_off_c, 1, 80, 0
1, 7321, Note_on_c, 1, 81, 127
1, 7321, Note_on_c, 1, 45, 127
1, 7585, Note_off_c, 1, 81, 0
1, 7590, Note_on_c, 1, 79, 127
1, 7720, Note_off_c, 1, 79, 0
1, 7724, Note_on_c, 1, 77, 127
1, 7854, Note_off_c, 1, 77, 0
1, 7859, Note_on_c, 1, 76, 127
1, 7989, Note_off_c, 1, 76, 0
1, 7993, Note_on_c, 1, 74, 127
1, 8123, Note_off_c, 1, 74, 0
1, 8126, Note_off_c, 1, 45, 0
1, 8128, Note_on_c, 1, 72, 127
1, 8396, Note_on_c, 1, 69, 127
1, 8660, Note_off_c, 1, 69, 0
1, 8665, Note_on_c, 1, 64, 127
1, 8929, Note_off_c, 1, 64, 0
1, 8933, Note_off_c, 1, 72, 0
1, 8934, Note_on_c, 1, 60, 127
1, 9198, Note_off_c, 1, 60, 0
1, 9203, Note_on_c, 1, 57, 127
1, 9467, Note_off_c, 1, 57, 0
1, 9472, Note_on_c, 1, 63, 127
1, 9736, Note_off_c, 1, 63, 0
1, 9740, Note_on_c, 1, 52, 127
1, 9740, Note_on_c, 1, 71, 127
1, 9831, Note_on_c, 1, 76, 127
1, 9870, Note_off_c, 1, 52, 0
1, 9875, Note_on_c, 1, 54, 127
1, 9922, Note_on_c, 1, 79, 127
1, 10005, Note_off_c, 1, 54, 0
1, 10009, Note_on_c, 1, 55, 127
1, 10273, Note_off_c, 1, 55, 0
1, 10278, Note_on_c, 1, 59, 127
1, 10538, Note_off_c, 1, 79, 0
1, 10542, Note_off_c, 1, 59, 0
1, 10545, Note_off_c, 1, 71, 0
1, 10671, Note_off_c, 1, 76, 0
1, 10681, Note_on_c, 1, 75, 127
1, 10811, Note_off_c, 1, 75, 0
1, 10816, Note_on_c, 1, 76, 127
1, 10816, Note_on_c, 1, 52, 127
1, 10946, Note_off_c, 1, 76, 0
1, 10950, Note_on_c, 1, 75, 127
1, 11080, Note_off_c, 1, 52, 0
1, 11080, Note_off_c, 1, 75, 0
1, 11084, Note_on_c, 1, 76, 127
1, 11084, Note_on_c, 1, 47, 127
1, 11214, Note_off_c, 1, 76, 0
1, 11219, Note_on_c, 1, 75, 127
1, 11348, Note_off_c, 1, 47, 0
1, 11349, Note_off_c, 1, 75, 0
1, 11353, Note_on_c, 1, 76, 127
1, 11353, Note_on_c, 1, 52, 127
1, 11483, Note_off_c, 1, 76, 0
1, 11488, Note_on_c, 1, 71, 127
1, 11617, Note_off_c, 1, 52, 0
1, 11618, Note_off_c, 1, 71, 0
1, 11622, Note_on_c, 1, 69, 127
1, 11622, Note_on_c, 1, 55, 127
1, 11752, Note_off_c, 1, 69, 0
1, 11756, Note_on_c, 1, 67, 127
1, 11886, Note_off_c, 1, 55, 0
1, 11886, Note_off_c, 1, 67, 0
1, 11891, Note_on_c, 1, 66, 127
1, 11891, Note_on_c, 1, 59, 127
1, 12021, Note_off_c, 1, 66, 0
1, 12025, Note_on_c, 1, 64, 127
1, 12155, Note_off_c, 1, 59, 0
1, 12160, Note_on_c, 1, 54, 127
1, 12290, Note_off_c, 1, 54, 0
1, 12294, Note_on_c, 1, 55, 127
1, 12294, Note_on_c, 1, 69, 127
1, 12424, Note_off_c, 1, 55, 0
1, 12428, Note_on_c, 1, 57, 127
1, 12428, Note_on_c, 1, 72, 127
1, 12692, Note_off_c, 1, 57, 0
1, 12697, Note_on_c, 1, 60, 127
1, 12961, Note_off_c, 1, 60, 0
1, 13092, Note_off_c, 1, 69, 0
1, 13095, Note_off_c, 1, 72, 0
1, 13098, Note_off_c, 1, 64, 0
1, 13100, Note_on_c, 1, 71, 127
1, 13230, Note_off_c, 1, 71, 0
1, 13235, Note_on_c, 1, 72, 127
1, 13235, Note_on_c, 1, 54, 127
1, 13365, Note_off_c, 1, 72, 0
1, 13369, Note_on_c, 1, 71, 127
1, 13499, Note_off_c, 1, 54, 0
1, 13499, Note_off_c, 1, 71, 0
1, 13504, Note_on_c, 1, 72, 127
1, 13504, Note_on_c, 1, 51, 127
1, 13634, Note_off_c, 1, 72, 0
1, 13638, Note_on_c, 1, 71, 127
1, 13768, Note_off_c, 1, 51, 0
1, 13768, Note_off_c, 1, 71, 0
1, 13772, Note_on_c, 1, 72, 127
1, 13772, Note_on_c, 1, 54, 127
1, 13902, Note_off_c, 1, 72, 0
1, 13907, Note_on_c, 1, 79, 127
1, 14036, Note_off_c, 1, 54, 0
1, 14037, Note_off_c, 1, 79, 0
1, 14041, Note_on_c, 1, 78, 127
1, 14041, Note_on_c, 1, 57, 127
1, 14171, Note_off_c, 1, 78, 0
1, 14176, Note_on_c, 1, 76, 127
1, 14305, Note_off_c, 1, 57, 0
1, 14306, Note_off_c, 1, 76, 0
1, 14310, Note_on_c, 1, 75, 127
1, 14310, Note_on_c, 1, 60, 127
1, 14440, Note_off_c, 1, 75, 0
1, 14444, Note_on_c, 1, 76, 127
1, 14574, Note_off_c, 1, 60, 0
1, 14574, Note_off_c, 1, 76, 0
1, 14579, Note_on_c, 1, 57, 127
1, 14579, Note_on_c, 1, 66, 127
1, 14671, Note_on_c, 1, 69, 127
1, 14709, Note_off_c, 1, 57, 0
1, 14713, Note_on_c, 1, 59, 127
1, 14764, Note_on_c, 1, 72, 127
1, 14843, Note_off_c, 1, 59, 0
1, 14848, Note_on_c, 1, 60, 127
1, 14856, Note_on_c, 1, 75, 127
1, 15112, Note_off_c, 1, 60, 0
1, 15116, Note_on_c, 1, 63, 127
1, 15380, Note_off_c, 1, 63, 0
1, 15384, Note_off_c, 1, 66, 0
1, 15385, Note_off_c, 1, 69, 0
1, 15394, Note_off_c, 1, 72, 0
1, 15520, Note_on_c, 1, 76, 127
1, 15528, Note_off_c, 1, 75, 0
1, 15650, Note_off_c, 1, 76, 0
1, 15654, Note_on_c, 1, 78, 127
1, 15654, Note_on_c, 1, 57, 127
1, 15784, Note_off_c, 1, 78, 0
1, 15788, Note_on_c, 1, 76, 127
1, 15918, Note_off_c, 1, 57, 0
1, 15918, Note_off_c, 1, 76, 0
1, 15923, Note_on_c, 1, 78, 127
1, 15923, Note_on_c, 1, 54, 127
1, 16053, Note_off_c, 1, 78, 0
1, 16057, Note_on_c, 1, 76, 127
1, 16187, Note_off_c, 1, 54, 0
1, 16187, Note_off_c, 1, 76, 0
1, 16192, Note_on_c, 1, 78, 127
1, 16192, Note_on_c, 1, 57, 127
1, 16322, Note_off_c, 1, 78, 0
1, 16326, Note_on_c, 1, 76, 127
1, 16456, Note_off_c, 1, 57, 0
1, 16456, Note_off_c, 1, 76, 0
1, 16460, Note_on_c, 1, 75, 127
1, 16460, Note_on_c, 1, 60, 127
1, 16590, Note_off_c, 1, 75, 0
1, 16595, Note_on_c, 1, 78, 127
1, 16724, Note_off_c, 1, 60, 0
1, 16725, Note_off_c, 1, 78, 0
1, 16729, Note_on_c, 1, 71, 127
1, 16729, Note_on_c, 1, 63, 127
1, 16859, Note_off_c, 1, 71, 0
1, 16864, Note_on_c, 1, 69, 127
1, 16993, Note_off_c, 1, 63, 0
1, 16994, Note_off_c, 1, 69, 0
1, 16998, Note_on_c, 1, 64, 127
1, 16998, Note_on_c, 1, 67, 127
1, 17262, Note_off_c, 1, 64, 0
1, 17267, Note_on_c, 1, 52, 127
1, 17397, Note_off_c, 1, 52, 0
1, 17401, Note_on_c, 1, 54, 127
1, 17531, Note_off_c, 1, 54, 0
1, 17536, Note_on_c, 1, 55, 127
1, 17666, Note_off_c, 1, 55, 0
1, 17670, Note_on_c, 1, 57, 127
1, 17800, Note_off_c, 1, 57, 0
1, 17804, Note_on_c, 1, 59, 127
1, 18069, Note_off_c, 1, 67, 0
1, 18336, Note_off_c, 1, 59, 0
1, 18342, Note_on_c, 1, 67, 127
1, 18606, Note_off_c, 1, 67, 0
1, 18611, Note_on_c, 1, 71, 127
1, 18880, Note_on_c, 1, 76, 127
1, 19143, Note_off_c, 1, 71, 0
1, 19148, Note_on_c, 1, 70, 127
1, 19412, Note_off_c, 1, 76, 0
1, 19412, Note_off_c, 1, 70, 0
1, 19417, Note_on_c, 1, 64, 127
1, 19417, Note_on_c, 1, 71, 127
1, 19515, Note_on_c, 1, 76, 127
1, 19547, Note_off_c, 1, 64, 0
1, 19552, Note_on_c, 1, 66, 127
1, 19613, Note_on_c, 1, 79, 127
1, 19682, Note_off_c, 1, 66, 0
1, 19686, Note_on_c, 1, 67, 127
1, 19949, Note_off_c, 1, 71, 0
1, 19950, Note_off_c, 1, 67, 0
1, 20231, Note_off_c, 1, 76, 0
1, 20348, Note_off_c, 1, 79, 0
1, 20358, Note_on_c, 1, 78, 127
1, 20488, Note_off_c, 1, 78, 0
1, 20492, Note_on_c, 1, 79, 127
1, 20492, Note_on_c, 1, 64, 127
1, 20622, Note_off_c, 1, 79, 0
1, 20627, Note_on_c, 1, 78, 127
1, 20756, Note_off_c, 1, 64, 0
1, 20757, Note_off_c, 1, 78, 0
1, 20761, Note_on_c, 1, 79, 127
1, 20761, Note_on_c, 1, 59, 127
1, 20891, Note_off_c, 1, 79, 0
1, 20896, Note_on_c, 1, 78, 127
1, 21025, Note_off_c, 1, 59, 0
1, 21026, Note_off_c, 1, 78, 0
1, 21030, Note_on_c, 1, 79, 127
1, 21030, Note_on_c, 1, 61, 127
1, 21160, Note_off_c, 1, 79, 0
1, 21164, Note_on_c, 1, 77, 127
1, 21294, Note_off_c, 1, 61, 0
1, 21294, Note_off_c, 1, 77, 0
1, 21299, Note_on_c, 1, 76, 127
1, 21299, Note_on_c, 1, 64, 127
1, 21429, Note_off_c, 1, 76, 0
1, 21433, Note_on_c, 1, 74, 127
1, 21563, Note_off_c, 1, 64, 0
1, 21563, Note_off_c, 1, 74, 0
1, 21568, Note_on_c, 1, 73, 127
1, 21568, Note_on_c, 1, 69, 127
1, 21698, Note_off_c, 1, 73, 0
1, 21702, Note_on_c, 1, 71, 127
1, 21832, Note_off_c, 1, 69, 0
1, 21832, Note_off_c, 1, 71, 0
1, 21836, Note_on_c, 1, 62, 127
1, 21836, Note_on_c, 1, 69, 127
1, 21948, Note_on_c, 1, 74, 127
1, 21966, Note_off_c, 1, 62, 0
1, 21971, Note_on_c, 1, 64, 127
1, 22060, Note_on_c, 1, 77, 127
1, 22101, Note_off_c, 1, 64, 0
1, 22105, Note_on_c, 1, 65, 127
1, 22368, Note_off_c, 1, 69, 0
1, 22369, Note_off_c, 1, 65, 0
1, 22634, Note_off_c, 1, 74, 0
1, 22777, Note_on_c, 1, 76, 127
1, 22783, Note_off_c, 1, 77, 0
1, 22907, Note_off_c, 1, 76, 0
1, 22912, Note_on_c, 1, 77, 127
1, 22912, Note_on_c, 1, 62, 127
1, 23042, Note_off_c, 1, 77, 0
1, 23046, Note_on_c, 1, 76, 127
1, 23176, Note_off_c, 1, 62, 0
1, 23176, Note_off_c, 1, 76, 0
1, 23180, Note_on_c, 1, 77, 127
1, 23180, Note_on_c, 1, 57, 127
1, 23310, Note_off_c, 1, 77, 0
1, 23315, Note_on_c, 1, 76, 127
1, 23444, Note_off_c, 1, 57, 0
1, 23445, Note_off_c, 1, 76, 0
1, 23449, Note_on_c, 1, 77, 127
1, 23449, Note_on_c, 1, 59, 127
1, 23579, Note_off_c, 1, 77, 0
1, 23584, Note_on_c, 1, 76, 127
1, 23713, Note_off_c, 1, 59, 0
1, 23714, Note_off_c, 1, 76, 0
1, 23718, Note_on_c, 1, 74, 127
1, 23718, Note_on_c, 1, 62, 127
1, 23848, Note_off_c, 1, 74, 0
1, 23852, Note_on_c, 1, 72, 127
1, 23982, Note_off_c, 1, 62, 0
1, 23982, Note_off_c, 1, 72, 0
1, 23987, Note_on_c, 1, 71, 127
1, 23987, Note_on_c, 1, 67, 127
1, 24117, Note_off_c, 1, 71, 0
1, 24121, Note_on_c, 1, 69, 127
1, 24251, Note_off_c, 1, 67, 0
1, 24251, Note_off_c, 1, 69, 0
1, 24256, Note_on_c, 1, 60, 127
1, 24256, Note_on_c, 1, 67, 127
1, 24386, Note_off_c, 1, 60, 0
1, 24390, Note_on_c, 1, 62, 127
1, 24390, Note_on_c, 1, 72, 127
1, 24520, Note_off_c, 1, 62, 0
1, 24524, Note_on_c, 1, 64, 127
1, 24524, Note_on_c, 1, 76, 127
1, 24788, Note_off_c, 1, 67, 0
1, 24788, Note_off_c, 1, 64, 0
1, 25195, Note_off_c, 1, 72, 0
1, 25196, Note_off_c, 1, 76, 0
1, 25196, Note_on_c, 1, 74, 127
1, 25326, Note_off_c, 1, 74, 0
1, 25331, Note_on_c, 1, 76, 127
1, 25331, Note_on_c, 1, 60, 127
1, 25461, Note_off_c, 1, 76, 0
1, 25465, Note_on_c, 1, 74, 127
1, 25595, Note_off_c, 1, 60, 0
1, 25595, Note_off_c, 1, 74, 0
1, 25600, Note_on_c, 1, 76, 127
1, 25600, Note_on_c, 1, 55, 127
1, 25730, Note_off_c, 1, 76, 0
1, 25734, Note_on_c, 1, 74, 127
1, 25864, Note_off_c, 1, 55, 0
1, 25864, Note_off_c, 1, 74, 0
1, 25868, Note_on_c, 1, 72, 127
1, 25868, Note_on_c, 1, 57, 127
1, 25998, Note_off_c, 1, 72, 0
1, 26003, Note_on_c, 1, 79, 127
1, 26132, Note_off_c, 1, 57, 0
1, 26133, Note_off_c, 1, 79, 0
1, 26137, Note_on_c, 1, 77, 127
1, 26137, Note_on_c, 1, 60, 127
1, 26267, Note_off_c, 1, 77, 0
1, 26272, Note_on_c, 1, 76, 127
1, 26401, Note_off_c, 1, 60, 0
1, 26402, Note_off_c, 1, 76, 0
1, 26406, Note_on_c, 1, 74, 127
1, 26406, Note_on_c, 1, 65, 127
1, 26536, Note_off_c, 1, 74, 0
1, 26540, Note_on_c, 1, 72, 127
1, 26670, Note_off_c, 1, 65, 0
1, 26670, Note_off_c, 1, 72, 0
1, 26675, Note_on_c, 1, 71, 127
1, 26675, Note_on_c, 1, 55, 127
1, 26805, Note_off_c, 1, 71, 0
1, 26809, Note_on_c, 1, 76, 127
1, 26939, Note_off_c, 1, 55, 0
1, 26939, Note_off_c, 1, 76, 0
1, 26944, Note_on_c, 1, 74, 127
1, 26944, Note_on_c, 1, 59, 127
1, 27074, Note_off_c, 1, 74, 0
1, 27078, Note_on_c, 1, 72, 127
1, 27208, Note_off_c, 1, 59, 0
1, 27208, Note_off_c, 1, 72, 0
1, 27212, Note_on_c, 1, 71, 127
1, 27212, Note_on_c, 1, 62, 127
1, 27342, Note_off_c, 1, 71, 0
1, 27347, Note_on_c, 1, 69, 127
1, 27476, Note_off_c, 1, 62, 0
1, 27477, Note_off_c, 1, 69, 0
1, 27481, Note_on_c, 1, 67, 127
1, 27481, Note_on_c, 1, 65, 127
1, 27611, Note_off_c, 1, 67, 0
1, 27616, Note_on_c, 1, 72, 127
1, 27745, Note_off_c, 1, 65, 0
1, 27746, Note_off_c, 1, 72, 0
1, 27750, Note_on_c, 1, 71, 127
1, 27750, Note_on_c, 1, 62, 127
1, 27880, Note_off_c, 1, 71, 0
1, 27884, Note_on_c, 1, 69, 127
1, 28014, Note_off_c, 1, 62, 0
1, 28014, Note_off_c, 1, 69, 0
1, 28019, Note_on_c, 1, 67, 127
1, 28019, Note_on_c, 1, 59, 127
1, 28149, Note_off_c, 1, 67, 0
1, 28153, Note_on_c, 1, 65, 127
1, 28283, Note_off_c, 1, 59, 0
1, 28283, Note_off_c, 1, 65, 0
1, 28288, Note_on_c, 1, 64, 127
1, 28288, Note_on_c, 1, 55, 127
1, 28418, Note_off_c, 1, 64, 0
1, 28422, Note_on_c, 1, 69, 127
1, 28552, Note_off_c, 1, 55, 0
1, 28552, Note_off_c, 1, 69, 0
1, 28556, Note_on_c, 1, 67, 127
1, 28556, Note_on_c, 1, 59, 127
1, 28686, Note_off_c, 1, 67, 0
1, 28691, Note_on_c, 1, 65, 127
1, 28820, Note_off_c, 1, 59, 0
1, 28821, Note_off_c, 1, 65, 0
1, 28825, Note_on_c, 1, 64, 127
1, 28825, Note_on_c, 1, 55, 127
1, 28955, Note_off_c, 1, 64, 0
1, 28960, Note_on_c, 1, 62, 127
1, 29089, Note_off_c, 1, 55, 0
1, 29090, Note_off_c, 1, 62, 0
1, 29094, Note_on_c, 1, 64, 127
1, 29094, Note_on_c, 1, 60, 127
1, 29224, Note_off_c, 1, 64, 0
1, 29228, Note_on_c, 1, 65, 127
1, 29358, Note_off_c, 1, 65, 0
1, 29363, Note_on_c, 1, 67, 127
1, 29627, Note_off_c, 1, 67, 0
1, 29632, Note_on_c, 1, 72, 127
1, 29896, Note_off_c, 1, 72, 0
1, 30035, Note_on_c, 1, 57, 127
1, 30165, Note_off_c, 1, 57, 0
1, 30169, Note_on_c, 1, 55, 127
1, 30299, Note_off_c, 1, 55, 0
1, 30304, Note_on_c, 1, 53, 127
1, 30434, Note_off_c, 1, 53, 0
1, 30438, Note_on_c, 1, 52, 127
1, 30568, Note_off_c, 1, 52, 0
1, 30572, Note_on_c, 1, 50, 127
1, 30702, Note_off_c, 1, 50, 0
1, 30707, Note_on_c, 1, 48, 127
1, 30970, Note_off_c, 1, 60, 0
1, 31782, Note_on_c, 1, 69, 127
1, 32046, Note_off_c, 1, 69, 0
1, 32443, Note_off_c, 1, 48, 0
1, 33932, Note_on_c, 1, 71, 127
1, 34062, Note_off_c, 1, 71, 0
1, 34201, Note_on_c, 1, 74, 127
1, 34465, Note_off_c, 1, 74, 0
1, 34470, Note_on_c, 1, 77, 127
1, 34734, Note_off_c, 1, 77, 0
1, 34739, Note_on_c, 1, 74, 127
1, 34739, Note_on_c, 1, 47, 127
1, 34873, Note_on_c, 1, 52, 127
1, 35003, Note_off_c, 1, 74, 0
1, 35003, Note_off_c, 1, 52, 0
1, 35008, Note_on_c, 1, 50, 127
1, 35008, Note_on_c, 1, 71, 127
1, 35131, Note_off_c, 1, 47, 0
1, 35138, Note_off_c, 1, 50, 0
1, 35142, Note_on_c, 1, 48, 127
1, 35272, Note_off_c, 1, 71, 0
1, 35272, Note_off_c, 1, 48, 0
1, 35276, Note_on_c, 1, 47, 127
1, 35276, Note_on_c, 1, 67, 127
1, 35406, Note_off_c, 1, 47, 0
1, 35411, Note_on_c, 1, 45, 127
1, 35540, Note_off_c, 1, 67, 0
1, 35541, Note_off_c, 1, 45, 0
1, 35545, Note_on_c, 1, 43, 127
1, 35545, Note_on_c, 1, 71, 127
1, 35675, Note_off_c, 1, 43, 0
1, 35680, Note_on_c, 1, 45, 127
1, 35810, Note_off_c, 1, 45, 0
1, 35814, Note_on_c, 1, 74, 127
1, 35948, Note_on_c, 1, 41, 127
1, 36078, Note_off_c, 1, 41, 0
1, 36083, Note_on_c, 1, 40, 127
1, 36083, Note_on_c, 1, 77, 127
1, 36213, Note_off_c, 1, 40, 0
1, 36217, Note_on_c, 1, 38, 127
1, 36346, Note_off_c, 1, 74, 0
1, 36347, Note_off_c, 1, 77, 0
1, 36347, Note_off_c, 1, 38, 0
1, 36350, Note_off_c, 1, 71, 0
1, 36352, Note_on_c, 1, 36, 127
1, 36352, Note_on_c, 1, 76, 127
1, 36486, Note_on_c, 1, 74, 127
1, 36616, Note_off_c, 1, 74, 0
1, 36620, Note_on_c, 1, 72, 127
1, 36750, Note_off_c, 1, 72, 0
1, 36755, Note_on_c, 1, 71, 127
1, 36885, Note_off_c, 1, 71, 0
1, 37024, Note_on_c, 1, 67, 127
1, 37154, Note_off_c, 1, 36, 0
1, 37158, Note_on_c, 1, 64, 127
1, 37288, Note_off_c, 1, 64, 0
1, 37292, Note_on_c, 1, 62, 127
1, 37422, Note_off_c, 1, 62, 0
1, 37427, Note_on_c, 1, 60, 127
1, 37557, Note_off_c, 1, 60, 0
1, 37561, Note_on_c, 1, 59, 127
1, 37691, Note_off_c, 1, 59, 0
1, 37830, Note_on_c, 1, 55, 127
1, 37960, Note_off_c, 1, 55, 0
1, 37964, Note_on_c, 1, 52, 127
1, 38094, Note_off_c, 1, 52, 0
1, 38233, Note_on_c, 1, 53, 127
1, 38363, Note_off_c, 1, 53, 0
1, 38502, Note_on_c, 1, 50, 127
1, 38632, Note_off_c, 1, 50, 0
1, 38636, Note_on_c, 1, 48, 127
1, 38751, Note_off_c, 1, 76, 0
1, 38751, Note_off_c, 1, 67, 0
1, 38766, Note_off_c, 1, 48, 0
1, 38771, Note_on_c, 1, 54, 127
1, 38771, Note_on_c, 1, 75, 127
1, 38905, Note_on_c, 1, 69, 127
1, 39035, Note_off_c, 1, 54, 0
1, 39035, Note_off_c, 1, 69, 0
1, 39040, Note_on_c, 1, 70, 127
1, 39170, Note_off_c, 1, 70, 0
1, 39174, Note_on_c, 1, 72, 127
1, 39304, Note_off_c, 1, 72, 0
1, 39576, Note_off_c, 1, 75, 0
1, 39577, Note_on_c, 1, 54, 127
1, 39577, Note_on_c, 1, 74, 127
1, 39712, Note_on_c, 1, 69, 127
1, 39841, Note_off_c, 1, 54, 0
1, 39842, Note_off_c, 1, 69, 0
1, 39846, Note_on_c, 1, 70, 127
1, 39976, Note_off_c, 1, 70, 0
1, 39980, Note_on_c, 1, 72, 127
1, 40110, Note_off_c, 1, 72, 0
1, 40382, Note_off_c, 1, 74, 0
1, 40384, Note_on_c, 1, 54, 127
1, 40384, Note_on_c, 1, 81, 127
1, 40518, Note_on_c, 1, 69, 127
1, 40648, Note_off_c, 1, 54, 0
1, 40648, Note_off_c, 1, 69, 0
1, 40652, Note_on_c, 1, 70, 127
1, 40782, Note_off_c, 1, 70, 0
1, 40787, Note_on_c, 1, 72, 127
1, 40916, Note_off_c, 1, 81, 0
1, 40917, Note_off_c, 1, 72, 0
1, 40921, Note_on_c, 1, 70, 127
1, 40921, Note_on_c, 1, 54, 127
1, 41051, Note_off_c, 1, 70, 0
1, 41056, Note_on_c, 1, 69, 127
1, 41185, Note_off_c, 1, 54, 0
1, 41186, Note_off_c, 1, 69, 0
1, 41190, Note_on_c, 1, 55, 127
1, 41190, Note_on_c, 1, 70, 127
1, 41324, Note_on_c, 1, 69, 127
1, 41454, Note_off_c, 1, 69, 0
1, 41459, Note_on_c, 1, 67, 127
1, 41589, Note_off_c, 1, 67, 0
1, 41593, Note_on_c, 1, 66, 127
1, 41723, Note_off_c, 1, 66, 0
1, 41862, Note_on_c, 1, 62, 127
1, 41992, Note_off_c, 1, 55, 0
1, 41996, Note_on_c, 1, 58, 127
1, 42126, Note_off_c, 1, 58, 0
1, 42131, Note_on_c, 1, 57, 127
1, 42261, Note_off_c, 1, 57, 0
1, 42400, Note_on_c, 1, 54, 127
1, 42530, Note_off_c, 1, 54, 0
1, 42668, Note_on_c, 1, 50, 127
1, 42798, Note_off_c, 1, 50, 0
1, 42803, Note_on_c, 1, 46, 127
1, 42933, Note_off_c, 1, 46, 0
1, 43072, Note_on_c, 1, 48, 127
1, 43202, Note_off_c, 1, 48, 0
1, 43340, Note_on_c, 1, 45, 127
1, 43470, Note_off_c, 1, 45, 0
1, 43475, Note_on_c, 1, 43, 127
1, 43603, Note_off_c, 1, 70, 0
1, 43605, Note_off_c, 1, 62, 0
1, 43605, Note_off_c, 1, 43, 0
1, 43609, Note_on_c, 1, 49, 127
1, 43609, Note_on_c, 1, 70, 127
1, 43744, Note_on_c, 1, 64, 127
1, 43873, Note_off_c, 1, 49, 0
1, 43874, Note_off_c, 1, 64, 0
1, 43878, Note_on_c, 1, 65, 127
1, 44008, Note_off_c, 1, 65, 0
1, 44012, Note_on_c, 1, 67, 127
1, 44142, Note_off_c, 1, 67, 0
1, 44414, Note_off_c, 1, 70, 0
1, 44416, Note_on_c, 1, 49, 127
1, 44416, Note_on_c, 1, 69, 127
1, 44550, Note_on_c, 1, 64, 127
1, 44680, Note_off_c, 1, 49, 0
1, 44680, Note_off_c, 1, 64, 0
1, 44684, Note_on_c, 1, 65, 127
1, 44814, Note_off_c, 1, 65, 0
1, 44819, Note_on_c, 1, 67, 127
1, 44949, Note_off_c, 1, 67, 0
1, 45221, Note_off_c, 1, 69, 0
1, 45222, Note_on_c, 1, 49, 127
1, 45222, Note_on_c, 1, 76, 127
1, 45356, Note_on_c, 1, 64, 127
1, 45486, Note_off_c, 1, 49, 0
1, 45486, Note_off_c, 1, 64, 0
1, 45488, Note_off_c, 1, 76, 0
1, 45491, Note_on_c, 1, 65, 127
1, 45491, Note_on_c, 1, 49, 127
1, 45621, Note_off_c, 1, 65, 0
1, 45625, Note_on_c, 1, 67, 127
1, 45755, Note_off_c, 1, 49, 0
1, 45755, Note_off_c, 1, 67, 0
1, 45760, Note_on_c, 1, 65, 127
1, 45760, Note_on_c, 1, 49, 127
1, 45890, Note_off_c, 1, 65, 0
1, 45894, Note_on_c, 1, 64, 127
1, 46024, Note_off_c, 1, 49, 0
1, 46024, Note_off_c, 1, 64, 0
1, 46028, Note_on_c, 1, 50, 127
1, 46028, Note_on_c, 1, 65, 127
1, 46158, Note_off_c, 1, 50, 0
1, 46158, Note_off_c, 1, 65, 0
1, 46163, Note_on_c, 1, 52, 127
1, 46163, Note_on_c, 1, 64, 127
1, 46293, Note_off_c, 1, 52, 0
1, 46293, Note_off_c, 1, 64, 0
1, 46297, Note_on_c, 1, 53, 127
1, 46297, Note_on_c, 1, 65, 127
1, 46561, Note_off_c, 1, 53, 0
1, 46566, Note_on_c, 1, 57, 127
1, 46830, Note_off_c, 1, 57, 0
1, 46964, Note_off_c, 1, 65, 0
1, 46969, Note_on_c, 1, 64, 127
1, 47099, Note_off_c, 1, 64, 0
1, 47104, Note_on_c, 1, 65, 127
1, 47104, Note_on_c, 1, 50, 127
1, 47234, Note_off_c, 1, 65, 0
1, 47238, Note_on_c, 1, 69, 127
1, 47368, Note_off_c, 1, 50, 0
1, 47368, Note_off_c, 1, 69, 0
1, 47372, Note_on_c, 1, 74, 127
1, 47372, Note_on_c, 1, 45, 127
1, 47502, Note_off_c, 1, 74, 0
1, 47507, Note_on_c, 1, 69, 127
1, 47636, Note_off_c, 1, 45, 0
1, 47637, Note_off_c, 1, 69, 0
1, 47641, Note_on_c, 1, 77, 127
1, 47641, Note_on_c, 1, 50, 127
1, 47771, Note_off_c, 1, 77, 0
1, 47776, Note_on_c, 1, 76, 127
1, 47905, Note_off_c, 1, 50, 0
1, 47906, Note_off_c, 1, 76, 0
1, 47910, Note_on_c, 1, 74, 127
1, 47910, Note_on_c, 1, 53, 127
1, 48040, Note_off_c, 1, 74, 0
1, 48044, Note_on_c, 1, 72, 127
1, 48174, Note_off_c, 1, 53, 0
1, 48174, Note_off_c, 1, 72, 0
1, 48179, Note_on_c, 1, 71, 127
1, 48179, Note_on_c, 1, 57, 127
1, 48309, Note_off_c, 1, 71, 0
1, 48313, Note_on_c, 1, 69, 127
1, 48443, Note_off_c, 1, 57, 0
1, 48443, Note_off_c, 1, 69, 0
1, 48448, Note_on_c, 1, 80, 127
1, 48448, Note_on_c, 1, 50, 127
1, 48536, Note_off_c, 1, 80, 0
1, 48546, Note_on_c, 1, 78, 127
1, 48578, Note_off_c, 1, 50, 0
1, 48582, Note_on_c, 1, 52, 127
1, 48634, Note_off_c, 1, 78, 0
1, 48712, Note_off_c, 1, 52, 0
1, 48716, Note_on_c, 1, 53, 127
1, 48980, Note_off_c, 1, 53, 0
1, 48985, Note_on_c, 1, 56, 127
1, 49249, Note_off_c, 1, 56, 0
1, 49388, Note_on_c, 1, 81, 127
1, 49518, Note_off_c, 1, 81, 0
1, 49523, Note_on_c, 1, 83, 127
1, 49523, Note_on_c, 1, 50, 127
1, 49653, Note_off_c, 1, 83, 0
1, 49657, Note_on_c, 1, 81, 127
1, 49787, Note_off_c, 1, 50, 0
1, 49787, Note_off_c, 1, 81, 0
1, 49792, Note_on_c, 1, 80, 127
1, 49792, Note_on_c, 1, 47, 127
1, 49922, Note_off_c, 1, 80, 0
1, 49926, Note_on_c, 1, 78, 127
1, 50056, Note_off_c, 1, 47, 0
1, 50056, Note_off_c, 1, 78, 0
1, 50060, Note_on_c, 1, 76, 127
1, 50060, Note_on_c, 1, 50, 127
1, 50190, Note_off_c, 1, 76, 0
1, 50195, Note_on_c, 1, 77, 127
1, 50324, Note_off_c, 1, 50, 0
1, 50325, Note_off_c, 1, 77, 0
1, 50329, Note_on_c, 1, 76, 127
1, 50329, Note_on_c, 1, 53, 127
1, 50459, Note_off_c, 1, 76, 0
1, 50464, Note_on_c, 1, 74, 127
1, 50593, Note_off_c, 1, 53, 0
1, 50594, Note_off_c, 1, 74, 0
1, 50598, Note_on_c, 1, 72, 127
1, 50598, Note_on_c, 1, 56, 127
1, 50728, Note_off_c, 1, 72, 0
1, 50732, Note_on_c, 1, 71, 127
1, 50862, Note_off_c, 1, 56, 0
1, 50862, Note_off_c, 1, 71, 0
1, 50867, Note_on_c, 1, 69, 127
1, 50867, Note_on_c, 1, 48, 127
1, 50997, Note_off_c, 1, 69, 0
1, 51001, Note_on_c, 1, 71, 127
1, 51131, Note_off_c, 1, 71, 0
1, 51136, Note_on_c, 1, 72, 127
1, 51400, Note_off_c, 1, 72, 0
1, 51404, Note_on_c, 1, 76, 127
1, 51668, Note_off_c, 1, 76, 0
1, 51669, Note_off_c, 1, 48, 0
1, 51673, Note_on_c, 1, 57, 127
1, 51673, Note_on_c, 1, 72, 127
1, 51803, Note_off_c, 1, 57, 0
1, 51808, Note_on_c, 1, 56, 127
1, 51937, Note_off_c, 1, 72, 0
1, 51938, Note_off_c, 1, 56, 0
1, 51942, Note_on_c, 1, 57, 127
1, 51942, Note_on_c, 1, 69, 127
1, 52072, Note_off_c, 1, 57, 0
1, 52076, Note_on_c, 1, 56, 127
1, 52206, Note_off_c, 1, 69, 0
1, 52206, Note_off_c, 1, 56, 0
1, 52211, Note_on_c, 1, 57, 127
1, 52211, Note_on_c, 1, 64, 127
1, 52341, Note_off_c, 1, 57, 0
1, 52345, Note_on_c, 1, 56, 127
1, 52475, Note_off_c, 1, 64, 0
1, 52475, Note_off_c, 1, 56, 0
1, 52480, Note_on_c, 1, 76, 127
1, 52480, Note_on_c, 1, 57, 127
1, 52610, Note_off_c, 1, 76, 0
1, 52614, Note_on_c, 1, 74, 127
1, 52744, Note_off_c, 1, 57, 0
1, 52744, Note_off_c, 1, 74, 0
1, 52748, Note_on_c, 1, 72, 127
1, 52748, Note_on_c, 1, 52, 127
1, 52878, Note_off_c, 1, 72, 0
1, 52883, Note_on_c, 1, 71, 127
1, 53012, Note_off_c, 1, 52, 0
1, 53013, Note_off_c, 1, 71, 0
1, 53017, Note_on_c, 1, 69, 127
1, 53017, Note_on_c, 1, 48, 127
1, 53147, Note_off_c, 1, 69, 0
1, 53152, Note_on_c, 1, 68, 127
1, 53281, Note_off_c, 1, 48, 0
1, 53282, Note_off_c, 1, 68, 0
1, 53286, Note_on_c, 1, 69, 127
1, 53286, Note_on_c, 1, 41, 127
1, 53416, Note_off_c, 1, 69, 0
1, 53420, Note_on_c, 1, 71, 127
1, 53550, Note_off_c, 1, 71, 0
1, 53555, Note_on_c, 1, 72, 127
1, 53819, Note_off_c, 1, 72, 0
1, 53824, Note_on_c, 1, 81, 127
1, 54088, Note_off_c, 1, 41, 0
1, 54088, Note_off_c, 1, 81, 0
1, 54092, Note_on_c, 1, 57, 127
1, 54092, Note_on_c, 1, 76, 127
1, 54222, Note_off_c, 1, 57, 0
1, 54227, Note_on_c, 1, 56, 127
1, 54356, Note_off_c, 1, 76, 0
1, 54357, Note_off_c, 1, 56, 0
1, 54361, Note_on_c, 1, 57, 127
1, 54361, Note_on_c, 1, 72, 127
1, 54491, Note_off_c, 1, 57, 0
1, 54496, Note_on_c, 1, 56, 127
1, 54625, Note_off_c, 1, 72, 0
1, 54626, Note_off_c, 1, 56, 0
1, 54630, Note_on_c, 1, 57, 127
1, 54630, Note_on_c, 1, 69, 127
1, 54760, Note_off_c, 1, 57, 0
1, 54764, Note_on_c, 1, 56, 127
1, 54894, Note_off_c, 1, 69, 0
1, 54894, Note_off_c, 1, 56, 0
1, 54899, Note_on_c, 1, 81, 127
1, 54899, Note_on_c, 1, 57, 127
1, 55029, Note_off_c, 1, 81, 0
1, 55033, Note_on_c, 1, 79, 127
1, 55163, Note_off_c, 1, 57, 0
1, 55163, Note_off_c, 1, 79, 0
1, 55168, Note_on_c, 1, 77, 127
1, 55168, Note_on_c, 1, 59, 127
1, 55298, Note_off_c, 1, 77, 0
1, 55302, Note_on_c, 1, 76, 127
1, 55432, Note_off_c, 1, 59, 0
1, 55432, Note_off_c, 1, 76, 0
1, 55436, Note_on_c, 1, 74, 127
1, 55436, Note_on_c, 1, 60, 127
1, 55566, Note_off_c, 1, 74, 0
1, 55571, Note_on_c, 1, 72, 127
1, 55690, Note_off_c, 1, 72, 0
1, 55700, Note_off_c, 1, 60, 0
1, 55705, Note_on_c, 1, 77, 127
1, 55705, Note_on_c, 1, 50, 127
1, 55835, Note_off_c, 1, 77, 0
1, 55840, Note_on_c, 1, 76, 127
1, 55969, Note_off_c, 1, 50, 0
1, 55970, Note_off_c, 1, 76, 0
1, 55974, Note_on_c, 1, 74, 127
1, 55974, Note_on_c, 1, 52, 127
1, 56104, Note_off_c, 1, 74, 0
1, 56108, Note_on_c, 1, 72, 127
1, 56238, Note_off_c, 1, 52, 0
1, 56238, Note_off_c, 1, 72, 0
1, 56243, Note_on_c, 1, 71, 127
1, 56243, Note_on_c, 1, 53, 127
1, 56373, Note_off_c, 1, 71, 0
1, 56377, Note_on_c, 1, 69, 127
1, 56496, Note_off_c, 1, 69, 0
1, 56507, Note_off_c, 1, 53, 0
1, 56512, Note_on_c, 1, 74, 127
1, 56512, Note_on_c, 1, 47, 127
1, 56642, Note_off_c, 1, 74, 0
1, 56646, Note_on_c, 1, 72, 127
1, 56776, Note_off_c, 1, 47, 0
1, 56776, Note_off_c, 1, 72, 0
1, 56780, Note_on_c, 1, 71, 127
1, 56780, Note_on_c, 1, 48, 127
1, 56910, Note_off_c, 1, 71, 0
1, 56915, Note_on_c, 1, 69, 127
1, 57044, Note_off_c, 1, 48, 0
1, 57045, Note_off_c, 1, 69, 0
1, 57049, Note_on_c, 1, 68, 127
1, 57049, Note_on_c, 1, 50, 127
1, 57179, Note_off_c, 1, 68, 0
1, 57184, Note_on_c, 1, 66, 127
1, 57303, Note_off_c, 1, 66, 0
1, 57313, Note_off_c, 1, 50, 0
1, 57318, Note_on_c, 1, 71, 127
1, 57318, Note_on_c, 1, 44, 127
1, 57448, Note_off_c, 1, 71, 0
1, 57452, Note_on_c, 1, 69, 127
1, 57582, Note_off_c, 1, 44, 0
1, 57582, Note_off_c, 1, 69, 0
1, 57587, Note_on_c, 1, 68, 127
1, 57587, Note_on_c, 1, 45, 127
1, 57717, Note_off_c, 1, 68, 0
1, 57721, Note_on_c, 1, 66, 127
1, 57851, Note_off_c, 1, 45, 0
1, 57851, Note_off_c, 1, 66, 0
1, 57856, Note_on_c, 1, 64, 127
1, 57856, Note_on_c, 1, 47, 127
1, 57986, Note_off_c, 1, 64, 0
1, 57990, Note_on_c, 1, 62, 127
1, 58109, Note_off_c, 1, 62, 0
1, 58120, Note_off_c, 1, 47, 0
1, 58124, Note_on_c, 1, 64, 127
1, 58124, Note_on_c, 1, 36, 127
1, 58254, Note_off_c, 1, 64, 0
1, 58259, Note_on_c, 1, 69, 127
1, 58389, Note_off_c, 1, 69, 0
1, 58393, Note_on_c, 1, 67, 127
1, 58523, Note_off_c, 1, 67, 0
1, 58528, Note_on_c, 1, 65, 127
1, 58658, Note_off_c, 1, 65, 0
1, 58796, Note_on_c, 1, 62, 127
1, 58926, Note_off_c, 1, 62, 0
1, 58931, Note_on_c, 1, 60, 127
1, 59183, Note_off_c, 1, 60, 0
1, 59195, Note_off_c, 1, 36, 0
1, 59200, Note_on_c, 1, 64, 127
1, 59200, Note_on_c, 1, 48, 127
1, 59330, Note_off_c, 1, 64, 0
1, 59334, Note_on_c, 1, 62, 127
1, 59464, Note_off_c, 1, 48, 0
1, 59464, Note_off_c, 1, 62, 0
1, 59468, Note_on_c, 1, 60, 127
1, 59468, Note_on_c, 1, 50, 127
1, 59598, Note_off_c, 1, 60, 0
1, 59603, Note_on_c, 1, 59, 127
1, 59732, Note_off_c, 1, 50, 0
1, 59733, Note_off_c, 1, 59, 0
1, 59737, Note_on_c, 1, 57, 127
1, 59737, Note_on_c, 1, 52, 127
1, 59872, Note_on_c, 1, 62, 127
1, 59989, Note_off_c, 1, 57, 0
1, 60001, Note_off_c, 1, 52, 0
1, 60002, Note_off_c, 1, 62, 0
1, 60006, Note_on_c, 1, 60, 127
1, 60006, Note_on_c, 1, 50, 127
1, 60136, Note_off_c, 1, 60, 0
1, 60140, Note_on_c, 1, 59, 127
1, 60270, Note_off_c, 1, 50, 0
1, 60270, Note_off_c, 1, 59, 0
1, 60275, Note_on_c, 1, 57, 127
1, 60275, Note_on_c, 1, 52, 127
1, 60405, Note_off_c, 1, 57, 0
1, 60409, Note_on_c, 1, 56, 127
1, 60539, Note_off_c, 1, 52, 0
1, 60539, Note_off_c, 1, 56, 0
1, 60544, Note_on_c, 1, 57, 127
1, 60544, Note_on_c, 1, 45, 127
1, 60675, Note_off_c, 1, 57, 0
1, 60679, Note_on_c, 1, 59, 127
1, 60810, Note_off_c, 1, 59, 0
1, 60815, Note_on_c, 1, 61, 127
1, 60946, Note_off_c, 1, 61, 0
1, 60951, Note_on_c, 1, 62, 127
1, 61082, Note_off_c, 1, 62, 0
1, 61087, Note_on_c, 1, 64, 127
1, 61218, Note_off_c, 1, 64, 0
1, 61223, Note_on_c, 1, 65, 127
1, 61354, Note_off_c, 1, 65, 0
1, 61358, Note_on_c, 1, 67, 127
1, 61494, Note_on_c, 1, 47, 127
1, 61625, Note_off_c, 1, 67, 0
1, 61625, Note_off_c, 1, 47, 0
1, 61630, Note_on_c, 1, 49, 127
1, 61761, Note_off_c, 1, 49, 0
1, 61766, Note_on_c, 1, 50, 127
1, 61897, Note_off_c, 1, 50, 0
1, 61902, Note_on_c, 1, 52, 127
1, 62033, Note_off_c, 1, 52, 0
1, 62037, Note_on_c, 1, 53, 127
1, 62168, Note_off_c, 1, 53, 0
1, 62173, Note_on_c, 1, 55, 127
1, 62173, Note_on_c, 1, 70, 127
1, 62440, Note_off_c, 1, 55, 0
1, 62441, Note_off_c, 1, 70, 0
1, 62445, Note_on_c, 1, 69, 127
1, 62715, Note_off_c, 1, 69, 0
1, 62980, Note_off_c, 1, 45, 0
1, 62991, Note_on_c, 1, 65, 127
1, 62991, Note_on_c, 1, 50, 127
1, 62991, Note_on_c, 1, 45, 127
1, 63129, Note_on_c, 1, 69, 127
1, 63263, Note_off_c, 1, 69, 0
1, 63268, Note_on_c, 1, 71, 127
1, 63402, Note_off_c, 1, 71, 0
1, 63407, Note_on_c, 1, 73, 127
1, 63541, Note_off_c, 1, 73, 0
1, 63545, Note_on_c, 1, 74, 127
1, 63679, Note_off_c, 1, 74, 0
1, 63684, Note_on_c, 1, 76, 127
1, 63818, Note_off_c, 1, 76, 0
1, 63821, Note_off_c, 1, 65, 0
1, 63822, Note_on_c, 1, 77, 127
1, 63962, Note_off_c, 1, 50, 0
1, 63967, Note_on_c, 1, 57, 127
1, 64099, Note_off_c, 1, 45, 0
1, 64112, Note_on_c, 1, 59, 127
1, 64252, Note_off_c, 1, 59, 0
1, 64256, Note_on_c, 1, 61, 127
1, 64396, Note_off_c, 1, 61, 0
1, 64401, Note_on_c, 1, 62, 127
1, 64541, Note_off_c, 1, 62, 0
1, 64545, Note_on_c, 1, 64, 127
1, 64685, Note_off_c, 1, 64, 0
1, 64687, Note_off_c, 1, 77, 0
1, 64689, Note_on_c, 1, 81, 127
1, 64844, Note_off_c, 1, 81, 0
1, 64850, Note_on_c, 1, 80, 127
1, 65005, Note_off_c, 1, 80, 0
1, 68546, Note_off_c, 1, 57, 0
1, 68939, Note_on_c, 1, 57, 127
1, 69125, Note_off_c, 1, 57, 0
1, 69129, Note_on_c, 1, 56, 127
1, 69315, Note_off_c, 1, 56, 0
1, 69319, Note_on_c, 1, 57, 127
1, 69694, Note_off_c, 1, 57, 0
1, 69699, Note_on_c, 1, 59, 127
1, 70074, Note_off_c, 1, 59, 0
1, 70078, Note_on_c, 1, 60, 127
1, 70453, Note_off_c, 1, 60, 0
1, 70458, Note_on_c, 1, 60, 127
1, 70644, Note_off_c, 1, 60, 0
1, 70648, Note_on_c, 1, 59, 127
1, 70834, Note_off_c, 1, 59, 0
1, 70838, Note_on_c, 1, 60, 127
1, 71213, Note_off_c, 1, 60, 0
1, 71218, Note_on_c, 1, 62, 127
1, 71593, Note_off_c, 1, 62, 0
1, 71597, Note_on_c, 1, 64, 127
1, 71783, Note_off_c, 1, 64, 0
1, 71788, Note_on_c, 1, 62, 127
1, 71974, Note_off_c, 1, 62, 0
1, 71978, Note_on_c, 1, 60, 127
1, 72164, Note_off_c, 1, 60, 0
1, 72168, Note_on_c, 1, 62, 127
1, 72354, Note_off_c, 1, 62, 0
1, 72359, Note_on_c, 1, 64, 127
1, 72734, Note_off_c, 1, 64, 0
1, 72738, Note_on_c, 1, 65, 127
1, 73113, Note_off_c, 1, 65, 0
1, 73118, Note_on_c, 1, 56, 127
1, 73463, Note_off_c, 1, 56, 0
1, 73497, Note_on_c, 1, 52, 127
1, 74050, Note_off_c, 1, 52, 0
1, 74256, Note_on_c, 1, 57, 127
1, 74631, Note_off_c, 1, 57, 0
1, 74635, Note_on_c, 1, 59, 127
1, 74821, Note_off_c, 1, 59, 0
1, 74826, Note_on_c, 1, 60, 127
1, 75012, Note_off_c, 1, 60, 0
1, 75016, Note_on_c, 1, 57, 127
1, 75202, Note_off_c, 1, 57, 0
1, 75206, Note_on_c, 1, 59, 127
1, 75392, Note_off_c, 1, 59, 0
1, 75397, Note_on_c, 1, 60, 127
1, 75583, Note_off_c, 1, 60, 0
1, 75587, Note_on_c, 1, 62, 127
1, 75773, Note_off_c, 1, 62, 0
1, 75778, Note_on_c, 1, 59, 127
1, 75964, Note_off_c, 1, 59, 0
1, 75968, Note_on_c, 1, 60, 127
1, 76154, Note_off_c, 1, 60, 0
1, 76158, Note_on_c, 1, 62, 127
1, 76533, Note_off_c, 1, 62, 0
1, 76538, Note_on_c, 1, 60, 127
1, 76913, Note_off_c, 1, 60, 0
1, 76917, Note_on_c, 1, 59, 127
1, 77292, Note_off_c, 1, 59, 0
1, 77297, Note_on_c, 1, 64, 127
1, 77672, Note_off_c, 1, 64, 0
1, 77676, Note_on_c, 1, 57, 127
1, 78055, Note_on_c, 1, 64, 127
1, 78241, Note_off_c, 1, 64, 0
1, 78246, Note_on_c, 1, 63, 127
1, 78432, Note_off_c, 1, 57, 0
1, 78432, Note_off_c, 1, 63, 0
1, 78436, Note_on_c, 1, 64, 127
1, 78436, Note_on_c, 1, 55, 127
1, 78811, Note_off_c, 1, 64, 0
1, 78811, Note_off_c, 1, 55, 0
1, 78816, Note_on_c, 1, 66, 127
1, 78816, Note_on_c, 1, 54, 127
1, 79191, Note_off_c, 1, 66, 0
1, 79191, Note_off_c, 1, 54, 0
1, 79195, Note_on_c, 1, 67, 127
1, 79195, Note_on_c, 1, 52, 127
1, 79570, Note_off_c, 1, 67, 0
1, 79570, Note_off_c, 1, 52, 0
1, 79574, Note_on_c, 1, 67, 127
1, 79574, Note_on_c, 1, 60, 127
1, 79760, Note_off_c, 1, 67, 0
1, 79765, Note_on_c, 1, 66, 127
1, 79950, Note_off_c, 1, 60, 0
1, 79951, Note_off_c, 1, 66, 0
1, 79955, Note_on_c, 1, 67, 127
1, 79955, Note_on_c, 1, 59, 127
1, 80330, Note_off_c, 1, 67, 0
1, 80330, Note_off_c, 1, 59, 0
1, 80335, Note_on_c, 1, 69, 127
1, 80335, Note_on_c, 1, 57, 127
1, 80710, Note_off_c, 1, 69, 0
1, 80710, Note_off_c, 1, 57, 0
1, 80714, Note_on_c, 1, 71, 127
1, 80714, Note_on_c, 1, 55, 127
1, 80900, Note_off_c, 1, 71, 0
1, 80900, Note_off_c, 1, 55, 0
1, 80904, Note_on_c, 1, 69, 127
1, 80904, Note_on_c, 1, 54, 127
1, 81090, Note_off_c, 1, 69, 0
1, 81090, Note_off_c, 1, 54, 0
1, 81095, Note_on_c, 1, 67, 127
1, 81095, Note_on_c, 1, 52, 127
1, 81281, Note_off_c, 1, 67, 0
1, 81281, Note_off_c, 1, 52, 0
1, 81285, Note_on_c, 1, 69, 127
1, 81285, Note_on_c, 1, 54, 127
1, 81471, Note_off_c, 1, 69, 0
1, 81471, Note_off_c, 1, 54, 0
1, 81476, Note_on_c, 1, 71, 127
1, 81476, Note_on_c, 1, 55, 127
1, 81851, Note_off_c, 1, 71, 0
1, 81851, Note_off_c, 1, 55, 0
1, 81855, Note_on_c, 1, 72, 127
1, 81855, Note_on_c, 1, 57, 127
1, 82230, Note_off_c, 1, 72, 0
1, 82230, Note_off_c, 1, 57, 0
1, 82234, Note_on_c, 1, 59, 127
1, 82234, Note_on_c, 1, 63, 127
1, 82420, Note_off_c, 1, 59, 0
1, 82425, Note_on_c, 1, 57, 127
1, 82579, Note_off_c, 1, 63, 0
1, 82609, Note_off_c, 1, 57, 0
1, 82614, Note_on_c, 1, 55, 127
1, 82614, Note_on_c, 1, 59, 127
1, 82800, Note_off_c, 1, 55, 0
1, 82804, Note_on_c, 1, 57, 127
1, 82990, Note_off_c, 1, 59, 0
1, 82990, Note_off_c, 1, 57, 0
1, 82995, Note_on_c, 1, 59, 127
1, 83370, Note_off_c, 1, 59, 0
1, 83374, Note_on_c, 1, 64, 127
1, 83374, Note_on_c, 1, 60, 127
1, 83749, Note_off_c, 1, 64, 0
1, 83753, Note_on_c, 1, 66, 127
1, 83939, Note_off_c, 1, 66, 0
1, 83944, Note_on_c, 1, 67, 127
1, 84130, Note_off_c, 1, 60, 0
1, 84130, Note_off_c, 1, 67, 0
1, 84134, Note_on_c, 1, 64, 127
1, 84134, Note_on_c, 1, 59, 127
1, 84320, Note_off_c, 1, 64, 0
1, 84320, Note_off_c, 1, 59, 0
1, 84325, Note_on_c, 1, 66, 127
1, 84325, Note_on_c, 1, 57, 127
1, 84511, Note_off_c, 1, 66, 0
1, 84511, Note_off_c, 1, 57, 0
1, 84515, Note_on_c, 1, 67, 127
1, 84515, Note_on_c, 1, 59, 127
1, 84701, Note_off_c, 1, 67, 0
1, 84705, Note_on_c, 1, 69, 127
1, 84891, Note_off_c, 1, 59, 0
1, 84891, Note_off_c, 1, 69, 0
1, 84896, Note_on_c, 1, 66, 127
1, 84896, Note_on_c, 1, 64, 127
1, 85082, Note_off_c, 1, 66, 0
1, 85086, Note_on_c, 1, 67, 127
1, 85272, Note_off_c, 1, 67, 0
1, 85277, Note_on_c, 1, 69, 127
1, 85652, Note_off_c, 1, 64, 0
1, 85652, Note_off_c, 1, 69, 0
1, 85656, Note_on_c, 1, 62, 127
1, 85656, Note_on_c, 1, 67, 127
1, 85842, Note_off_c, 1, 62, 0
1, 85846, Note_on_c, 1, 61, 127
1, 86032, Note_off_c, 1, 67, 0
1, 86032, Note_off_c, 1, 61, 0
1, 86037, Note_on_c, 1, 66, 127
1, 86037, Note_on_c, 1, 62, 127
1, 86412, Note_off_c, 1, 66, 0
1, 86416, Note_on_c, 1, 71, 127
1, 86791, Note_off_c, 1, 71, 0
1, 86796, Note_on_c, 1, 64, 127
1, 87171, Note_off_c, 1, 62, 0
1, 87171, Note_off_c, 1, 64, 0
1, 87175, Note_on_c, 1, 66, 127
1, 87175, Note_on_c, 1, 60, 127
1, 87361, Note_off_c, 1, 66, 0
1, 87361, Note_off_c, 1, 60, 0
1, 87365, Note_on_c, 1, 68, 127
1, 87365, Note_on_c, 1, 59, 127
1, 87551, Note_off_c, 1, 68, 0
1, 87551, Note_off_c, 1, 59, 0
1, 87556, Note_on_c, 1, 69, 127
1, 87556, Note_on_c, 1, 60, 127
1, 87742, Note_off_c, 1, 69, 0
1, 87746, Note_on_c, 1, 71, 127
1, 87932, Note_off_c, 1, 71, 0
1, 87937, Note_on_c, 1, 72, 127
1, 88123, Note_off_c, 1, 72, 0
1, 88127, Note_on_c, 1, 74, 127
1, 88313, Note_off_c, 1, 74, 0
1, 88317, Note_on_c, 1, 76, 127
1, 88428, Note_off_c, 1, 60, 0
1, 88692, Note_off_c, 1, 76, 0
1, 88697, Note_on_c, 1, 67, 127
1, 88697, Note_on_c, 1, 69, 127
1, 88883, Note_off_c, 1, 67, 0
1, 88887, Note_on_c, 1, 65, 127
1, 89073, Note_off_c, 1, 69, 0
1, 89073, Note_off_c, 1, 65, 0
1, 89078, Note_on_c, 1, 69, 127
1, 89078, Note_on_c, 1, 64, 127
1, 89141, Note_on_c, 1, 68, 127
1, 89142, Note_off_c, 1, 69, 0
1, 89205, Note_off_c, 1, 68, 0
1, 89262, Note_off_c, 1, 64, 0
1, 89267, Note_on_c, 1, 62, 127
1, 89451, Note_off_c, 1, 62, 0
1, 89456, Note_on_c, 1, 60, 127
1, 89642, Note_off_c, 1, 60, 0
1, 89646, Note_on_c, 1, 59, 127
1, 89830, Note_off_c, 1, 59, 0
1, 89835, Note_on_c, 1, 60, 127
1, 89835, Note_on_c, 1, 69, 127
1, 90021, Note_off_c, 1, 60, 0
1, 90025, Note_on_c, 1, 59, 127
1, 90211, Note_off_c, 1, 69, 0
1, 90211, Note_off_c, 1, 59, 0
1, 90216, Note_on_c, 1, 45, 127
1, 90216, Note_on_c, 1, 69, 127
1, 90216, Note_on_c, 1, 60, 127
1, 90402, Note_off_c, 1, 45, 0
1, 90406, Note_on_c, 1, 44, 127
1, 90592, Note_off_c, 1, 69, 0
1, 90592, Note_off_c, 1, 44, 0
1, 90597, Note_on_c, 1, 67, 127
1, 90972, Note_off_c, 1, 60, 0
1, 90972, Note_off_c, 1, 67, 0
1, 90976, Note_on_c, 1, 65, 127
1, 90976, Note_on_c, 1, 62, 127
1, 90976, Note_on_c, 1, 47, 127
1, 91351, Note_off_c, 1, 65, 0
1, 91351, Note_off_c, 1, 62, 0
1, 91351, Note_off_c, 1, 47, 0
1, 91355, Note_on_c, 1, 64, 127
1, 91355, Note_on_c, 1, 48, 127
1, 91544, Note_on_c, 1, 62, 127
1, 91730, Note_off_c, 1, 64, 0
1, 91730, Note_off_c, 1, 48, 0
1, 91730, Note_off_c, 1, 62, 0
1, 91735, Note_on_c, 1, 48, 127
1, 91735, Note_on_c, 1, 72, 127
1, 91735, Note_on_c, 1, 64, 127
1, 91921, Note_off_c, 1, 48, 0
1, 91925, Note_on_c, 1, 47, 127
1, 92111, Note_off_c, 1, 72, 0
1, 92111, Note_off_c, 1, 47, 0
1, 92116, Note_on_c, 1, 71, 127
1, 92491, Note_off_c, 1, 64, 0
1, 92491, Note_off_c, 1, 71, 0
1, 92495, Note_on_c, 1, 69, 127
1, 92495, Note_on_c, 1, 65, 127
1, 92495, Note_on_c, 1, 50, 127
1, 92870, Note_off_c, 1, 69, 0
1, 92870, Note_off_c, 1, 65, 0
1, 92870, Note_off_c, 1, 50, 0
1, 92874, Note_on_c, 1, 52, 127
1, 92874, Note_on_c, 1, 68, 127
1, 93060, Note_off_c, 1, 52, 0
1, 93065, Note_on_c, 1, 66, 127
1, 93065, Note_on_c, 1, 50, 127
1, 93250, Note_off_c, 1, 68, 0
1, 93251, Note_off_c, 1, 66, 0
1, 93251, Note_off_c, 1, 50, 0
1, 93255, Note_on_c, 1, 64, 127
1, 93255, Note_on_c, 1, 48, 127
1, 93255, Note_on_c, 1, 76, 127
1, 93441, Note_off_c, 1, 64, 0
1, 93441, Note_off_c, 1, 48, 0
1, 93446, Note_on_c, 1, 66, 127
1, 93446, Note_on_c, 1, 50, 127
1, 93631, Note_off_c, 1, 76, 0
1, 93632, Note_off_c, 1, 66, 0
1, 93632, Note_off_c, 1, 50, 0
1, 93636, Note_on_c, 1, 74, 127
1, 93636, Note_on_c, 1, 68, 127
1, 93636, Note_on_c, 1, 52, 127
1, 94011, Note_off_c, 1, 74, 0
1, 94011, Note_off_c, 1, 68, 0
1, 94011, Note_off_c, 1, 52, 0
1, 94015, Note_on_c, 1, 72, 127
1, 94015, Note_on_c, 1, 69, 127
1, 94015, Note_on_c, 1, 53, 127
1, 94390, Note_off_c, 1, 72, 0
1, 94390, Note_off_c, 1, 69, 0
1, 94390, Note_off_c, 1, 53, 0
1, 94395, Note_on_c, 1, 44, 127
1, 94395, Note_on_c, 1, 71, 127
1, 94584, Note_on_c, 1, 72, 127
1, 94749, Note_off_c, 1, 44, 0
1, 94768, Note_off_c, 1, 72, 0
1, 94773, Note_on_c, 1, 74, 127
1, 94773, Note_on_c, 1, 40, 127
1, 94946, Note_off_c, 1, 71, 0
1, 94957, Note_off_c, 1, 74, 0
1, 95326, Note_off_c, 1, 40, 0
1, 95532, Note_on_c, 1, 69, 127
1, 95532, Note_on_c, 1, 45, 127
1, 95907, Note_off_c, 1, 69, 0
1, 95907, Note_off_c, 1, 45, 0
1, 95911, Note_on_c, 1, 74, 127
1, 95911, Note_on_c, 1, 47, 127
1, 95911, Note_on_c, 1, 67, 127
1, 96097, Note_off_c, 1, 74, 0
1, 96097, Note_off_c, 1, 47, 0
1, 96101, Note_on_c, 1, 76, 127
1, 96101, Note_on_c, 1, 48, 127
1, 96287, Note_off_c, 1, 76, 0
1, 96287, Note_off_c, 1, 48, 0
1, 96292, Note_on_c, 1, 77, 127
1, 96292, Note_on_c, 1, 45, 127
1, 96478, Note_off_c, 1, 77, 0
1, 96478, Note_off_c, 1, 45, 0
1, 96673, Note_on_c, 1, 49, 127
1, 96858, Note_off_c, 1, 67, 0
1, 96859, Note_off_c, 1, 49, 0
1, 96863, Note_on_c, 1, 65, 127
1, 96863, Note_on_c, 1, 50, 127
1, 97049, Note_off_c, 1, 65, 0
1, 97049, Note_off_c, 1, 50, 0
1, 97053, Note_on_c, 1, 64, 127
1, 97239, Note_off_c, 1, 64, 0
1, 97434, Note_on_c, 1, 66, 127
1, 97814, Note_on_c, 1, 69, 127
1, 98188, Note_off_c, 1, 66, 0
1, 98189, Note_off_c, 1, 69, 0
1, 98193, Note_on_c, 1, 71, 127
1, 98193, Note_on_c, 1, 47, 127
1, 98193, Note_on_c, 1, 68, 127
1, 98379, Note_off_c, 1, 71, 0
1, 98383, Note_on_c, 1, 72, 127
1, 98569, Note_off_c, 1, 47, 0
1, 98569, Note_off_c, 1, 72, 0
1, 98574, Note_on_c, 1, 74, 127
1, 98574, Note_on_c, 1, 52, 127
1, 98944, Note_off_c, 1, 68, 0
1, 98949, Note_off_c, 1, 74, 0
1, 98953, Note_on_c, 1, 69, 127
1, 98953, Note_on_c, 1, 45, 127
1, 99324, Note_off_c, 1, 52, 0
1, 99328, Note_off_c, 1, 69, 0
1, 99328, Note_off_c, 1, 45, 0
1, 99333, Note_on_c, 1, 52, 127
1, 99333, Note_on_c, 1, 69, 127
1, 99333, Note_on_c, 1, 72, 127
1, 99333, Note_on_c, 1, 47, 127
1, 99519, Note_off_c, 1, 52, 0
1, 99523, Note_on_c, 1, 51, 127
1, 99709, Note_off_c, 1, 69, 0
1, 99709, Note_off_c, 1, 72, 0
1, 99709, Note_off_c, 1, 47, 0
1, 99709, Note_off_c, 1, 51, 0
1, 99713, Note_on_c, 1, 67, 127
1, 99713, Note_on_c, 1, 71, 127
1, 99713, Note_on_c, 1, 52, 127
1, 99713, Note_on_c, 1, 49, 127
1, 100088, Note_off_c, 1, 67, 0
1, 100088, Note_off_c, 1, 71, 0
1, 100088, Note_off_c, 1, 52, 0
1, 100088, Note_off_c, 1, 49, 0
1, 100093, Note_on_c, 1, 69, 127
1, 100093, Note_on_c, 1, 66, 127
1, 100093, Note_on_c, 1, 54, 127
1, 100093, Note_on_c, 1, 51, 127
1, 100468, Note_off_c, 1, 69, 0
1, 100468, Note_off_c, 1, 66, 0
1, 100468, Note_off_c, 1, 54, 0
1, 100468, Note_off_c, 1, 51, 0
1, 100472, Note_on_c, 1, 64, 127
1, 100472, Note_on_c, 1, 67, 127
1, 100472, Note_on_c, 1, 55, 127
1, 100472, Note_on_c, 1, 52, 127
1, 100847, Note_off_c, 1, 64, 0
1, 100847, Note_off_c, 1, 67, 0
1, 100847, Note_off_c, 1, 55, 0
1, 100847, Note_off_c, 1, 52, 0
1, 100852, Note_on_c, 1, 55, 127
1, 100852, Note_on_c, 1, 52, 127
1, 100852, Note_on_c, 1, 72, 127
1, 100852, Note_on_c, 1, 76, 127
1, 101038, Note_off_c, 1, 55, 0
1, 101038, Note_off_c, 1, 52, 0
1, 101042, Note_on_c, 1, 54, 127
1, 101042, Note_on_c, 1, 50, 127
1, 101228, Note_off_c, 1, 72, 0
1, 101228, Note_off_c, 1, 76, 0
1, 101228, Note_off_c, 1, 54, 0
1, 101228, Note_off_c, 1, 50, 0
1, 101232, Note_on_c, 1, 71, 127
1, 101232, Note_on_c, 1, 74, 127
1, 101232, Note_on_c, 1, 55, 127
1, 101232, Note_on_c, 1, 52, 127
1, 101607, Note_off_c, 1, 71, 0
1, 101607, Note_off_c, 1, 74, 0
1, 101607, Note_off_c, 1, 55, 0
1, 101607, Note_off_c, 1, 52, 0
1, 101612, Note_on_c, 1, 69, 127
1, 101612, Note_on_c, 1, 72, 127
1, 101612, Note_on_c, 1, 57, 127
1, 101612, Note_on_c, 1, 54, 127
1, 101987, Note_off_c, 1, 69, 0
1, 101987, Note_off_c, 1, 72, 0
1, 101987, Note_off_c, 1, 57, 0
1, 101987, Note_off_c, 1, 54, 0
1, 101991, Note_on_c, 1, 67, 127
1, 101991, Note_on_c, 1, 59, 127
1, 101991, Note_on_c, 1, 55, 127
1, 101991, Note_on_c, 1, 71, 127
1, 102177, Note_off_c, 1, 67, 0
1, 102177, Note_off_c, 1, 59, 0
1, 102182, Note_on_c, 1, 66, 127
1, 102182, Note_on_c, 1, 57, 127
1, 102367, Note_off_c, 1, 55, 0
1, 102368, Note_off_c, 1, 66, 0
1, 102368, Note_off_c, 1, 57, 0
1, 102372, Note_on_c, 1, 64, 127
1, 102558, Note_off_c, 1, 64, 0
1, 102744, Note_off_c, 1, 71, 0
1, 102753, Note_on_c, 1, 67, 127
1, 102753, Note_on_c, 1, 59, 127
1, 103128, Note_off_c, 1, 67, 0
1, 103128, Note_off_c, 1, 59, 0
1, 103132, Note_on_c, 1, 60, 127
1, 103132, Note_on_c, 1, 57, 127
1, 103132, Note_on_c, 1, 69, 127
1, 103132, Note_on_c, 1, 66, 127
1, 103507, Note_off_c, 1, 60, 0
1, 103507, Note_off_c, 1, 57, 0
1, 103512, Note_on_c, 1, 51, 127
1, 103512, Note_on_c, 1, 59, 127
1, 103886, Note_off_c, 1, 69, 0
1, 103886, Note_off_c, 1, 66, 0
1, 103887, Note_off_c, 1, 51, 0
1, 103891, Note_on_c, 1, 67, 127
1, 103891, Note_on_c, 1, 64, 127
1, 103891, Note_on_c, 1, 47, 127
1, 104077, Note_off_c, 1, 59, 0
1, 104077, Note_off_c, 1, 67, 0
1, 104077, Note_off_c, 1, 64, 0
1, 104081, Note_on_c, 1, 63, 127
1, 104081, Note_on_c, 1, 45, 127
1, 104267, Note_off_c, 1, 47, 0
1, 104267, Note_off_c, 1, 63, 0
1, 104267, Note_off_c, 1, 45, 0
1, 104272, Note_on_c, 1, 67, 127
1, 104272, Note_on_c, 1, 43, 127
1, 104272, Note_on_c, 1, 64, 127
1, 104458, Note_off_c, 1, 67, 0
1, 104462, Note_on_c, 1, 69, 127
1, 104648, Note_off_c, 1, 43, 0
1, 104648, Note_off_c, 1, 69, 0
1, 104653, Note_on_c, 1, 71, 127
1, 104653, Note_on_c, 1, 52, 127
1, 104653, Note_on_c, 1, 40, 127
1, 104839, Note_off_c, 1, 71, 0
1, 105029, Note_off_c, 1, 52, 0
1, 105029, Note_off_c, 1, 40, 0
1, 105033, Note_on_c, 1, 54, 127
1, 105033, Note_on_c, 1, 45, 127
1, 105033, Note_on_c, 1, 72, 127
1, 105219, Note_off_c, 1, 54, 0
1, 105224, Note_on_c, 1, 55, 127
1, 105410, Note_off_c, 1, 64, 0
1, 105410, Note_off_c, 1, 55, 0
1, 105605, Note_on_c, 1, 63, 127
1, 105790, Note_off_c, 1, 45, 0
1, 105791, Note_off_c, 1, 63, 0
1, 105795, Note_on_c, 1, 47, 127
1, 105985, Note_on_c, 1, 57, 127
1, 106171, Note_off_c, 1, 72, 0
1, 106171, Note_off_c, 1, 57, 0
1, 106552, Note_off_c, 1, 47, 0
1, 106557, Note_on_c, 1, 48, 127
1, 106933, Note_off_c, 1, 48, 0
1, 107698, Note_on_c, 1, 47, 127
1, 107698, Note_on_c, 1, 66, 127
1, 107698, Note_on_c, 1, 63, 127
1, 107698, Note_on_c, 1, 59, 127
1, 107884, Note_off_c, 1, 47, 0
1, 107888, Note_on_c, 1, 45, 127
1, 108074, Note_off_c, 1, 66, 0
1, 108074, Note_off_c, 1, 63, 0
1, 108074, Note_off_c, 1, 59, 0
1, 108074, Note_off_c, 1, 45, 0
1, 108078, Note_on_c, 1, 71, 127
1, 108078, Note_on_c, 1, 43, 127
1, 108078, Note_on_c, 1, 52, 127
1, 108078, Note_on_c, 1, 64, 127
1, 108264, Note_off_c, 1, 71, 0
1, 108269, Note_on_c, 1, 69, 127
1, 108454, Note_off_c, 1, 43, 0
1, 108455, Note_off_c, 1, 69, 0
1, 108459, Note_on_c, 1, 72, 127
1, 108459, Note_on_c, 1, 45, 127
1, 108645, Note_off_c, 1, 72, 0
1, 108835, Note_off_c, 1, 52, 0
1, 108835, Note_off_c, 1, 45, 0
1, 108840, Note_on_c, 1, 59, 127
1, 108840, Note_on_c, 1, 47, 127
1, 109030, Note_on_c, 1, 67, 127
1, 109216, Note_off_c, 1, 64, 0
1, 109216, Note_off_c, 1, 59, 0
1, 109216, Note_off_c, 1, 67, 0
1, 109221, Note_on_c, 1, 66, 127
1, 109221, Note_on_c, 1, 63, 127
1, 109221, Note_on_c, 1, 57, 127
1, 109407, Note_off_c, 1, 66, 0
1, 109597, Note_off_c, 1, 47, 0
1, 109597, Note_off_c, 1, 63, 0
1, 109597, Note_off_c, 1, 57, 0
1, 109602, Note_on_c, 1, 64, 127
1, 109602, Note_on_c, 1, 56, 127
1, 109602, Note_on_c, 1, 52, 127
1, 109977, Note_off_c, 1, 64, 0
1, 109977, Note_off_c, 1, 56, 0
1, 109977, Note_off_c, 1, 52, 0
1, 109981, Note_on_c, 1, 76, 127
1, 109981, Note_on_c, 1, 52, 127
1, 109981, Note_on_c, 1, 50, 127
1, 110167, Note_off_c, 1, 76, 0
1, 110171, Note_on_c, 1, 77, 127
1, 110357, Note_off_c, 1, 52, 0
1, 110357, Note_off_c, 1, 50, 0
1, 110357, Note_off_c, 1, 77, 0
1, 110362, Note_on_c, 1, 76, 127
1, 110362, Note_on_c, 1, 54, 127
1, 110362, Note_on_c, 1, 48, 127
1, 110737, Note_off_c, 1, 76, 0
1, 110737, Note_off_c, 1, 54, 0
1, 110737, Note_off_c, 1, 48, 0
1, 110741, Note_on_c, 1, 74, 127
1, 110741, Note_on_c, 1, 56, 127
1, 110741, Note_on_c, 1, 47, 127
1, 111116, Note_off_c, 1, 74, 0
1, 111116, Note_off_c, 1, 56, 0
1, 111116, Note_off_c, 1, 47, 0
1, 111121, Note_on_c, 1, 72, 127
1, 111121, Note_on_c, 1, 57, 127
1, 111121, Note_on_c, 1, 45, 127
1, 111496, Note_off_c, 1, 72, 0
1, 111496, Note_off_c, 1, 57, 0
1, 111496, Note_off_c, 1, 45, 0
1, 111500, Note_on_c, 1, 72, 127
1, 111500, Note_on_c, 1, 64, 127
1, 111500, Note_on_c, 1, 59, 127
1, 111686, Note_off_c, 1, 72, 0
1, 111690, Note_on_c, 1, 74, 127
1, 111876, Note_off_c, 1, 64, 0
1, 111876, Note_off_c, 1, 59, 0
1, 111876, Note_off_c, 1, 74, 0
1, 111881, Note_on_c, 1, 66, 127
1, 111881, Note_on_c, 1, 72, 127
1, 111881, Note_on_c, 1, 57, 127
1, 112256, Note_off_c, 1, 66, 0
1, 112256, Note_off_c, 1, 72, 0
1, 112256, Note_off_c, 1, 57, 0
1, 112260, Note_on_c, 1, 67, 127
1, 112260, Note_on_c, 1, 71, 127
1, 112260, Note_on_c, 1, 55, 127
1, 112635, Note_off_c, 1, 67, 0
1, 112635, Note_off_c, 1, 71, 0
1, 112635, Note_off_c, 1, 55, 0
1, 112640, Note_on_c, 1, 69, 127
1, 112640, Note_on_c, 1, 54, 127
1, 112829, Note_on_c, 1, 71, 127
1, 113015, Note_off_c, 1, 69, 0
1, 113015, Note_off_c, 1, 54, 0
1, 113015, Note_off_c, 1, 71, 0
1, 113019, Note_on_c, 1, 72, 127
1, 113019, Note_on_c, 1, 57, 127
1, 113019, Note_on_c, 1, 55, 127
1, 113205, Note_off_c, 1, 72, 0
1, 113209, Note_on_c, 1, 71, 127
1, 113395, Note_off_c, 1, 57, 0
1, 113395, Note_off_c, 1, 55, 0
1, 113395, Note_off_c, 1, 71, 0
1, 113400, Note_on_c, 1, 69, 127
1, 113400, Note_on_c, 1, 59, 127
1, 113400, Note_on_c, 1, 54, 127
1, 113775, Note_off_c, 1, 69, 0
1, 113775, Note_off_c, 1, 59, 0
1, 113775, Note_off_c, 1, 54, 0
1, 113779, Note_on_c, 1, 67, 127
1, 113779, Note_on_c, 1, 61, 127
1, 113779, Note_on_c, 1, 52, 127
1, 114154, Note_off_c, 1, 67, 0
1, 114154, Note_off_c, 1, 61, 0
1, 114154, Note_off_c, 1, 52, 0
1, 114159, Note_on_c, 1, 78, 127
1, 114159, Note_on_c, 1, 62, 127
1, 114159, Note_on_c, 1, 50, 127
1, 114534, Note_off_c, 1, 78, 0
1, 114534, Note_off_c, 1, 62, 0
1, 114534, Note_off_c, 1, 50, 0
1, 114538, Note_on_c, 1, 62, 127
1, 114538, Note_on_c, 1, 81, 127
1, 114538, Note_on_c, 1, 52, 127
1, 114913, Note_off_c, 1, 62, 0
1, 114913, Note_off_c, 1, 81, 0
1, 114913, Note_off_c, 1, 52, 0
1, 114917, Note_on_c, 1, 64, 127
1, 114917, Note_on_c, 1, 50, 127
1, 115292, Note_off_c, 1, 64, 0
1, 115292, Note_off_c, 1, 50, 0
1, 115297, Note_on_c, 1, 66, 127
1, 115297, Note_on_c, 1, 76, 127
1, 115297, Note_on_c, 1, 48, 127
1, 115672, Note_off_c, 1, 66, 0
1, 115672, Note_off_c, 1, 76, 0
1, 115672, Note_off_c, 1, 48, 0
1, 115676, Note_on_c, 1, 74, 127
1, 115676, Note_on_c, 1, 67, 127
1, 115676, Note_on_c, 1, 47, 127
1, 115862, Note_off_c, 1, 74, 0
1, 115867, Note_on_c, 1, 72, 127
1, 116052, Note_off_c, 1, 67, 0
1, 116052, Note_off_c, 1, 47, 0
1, 116053, Note_off_c, 1, 72, 0
1, 116057, Note_on_c, 1, 76, 127
1, 116057, Note_on_c, 1, 59, 127
1, 116057, Note_on_c, 1, 55, 127
1, 116243, Note_off_c, 1, 76, 0
1, 116247, Note_on_c, 1, 74, 127
1, 116433, Note_off_c, 1, 59, 0
1, 116433, Note_off_c, 1, 74, 0
1, 116438, Note_on_c, 1, 72, 127
1, 116438, Note_on_c, 1, 57, 127
1, 116624, Note_off_c, 1, 72, 0
1, 116628, Note_on_c, 1, 71, 127
1, 116814, Note_off_c, 1, 55, 0
1, 116814, Note_off_c, 1, 71, 0
1, 116819, Note_on_c, 1, 54, 127
1, 117195, Note_off_c, 1, 57, 0
1, 117195, Note_off_c, 1, 54, 0
1, 117199, Note_on_c, 1, 71, 127
1, 117199, Note_on_c, 1, 55, 127
1, 117388, Note_on_c, 1, 52, 127
1, 117574, Note_off_c, 1, 71, 0
1, 117574, Note_off_c, 1, 52, 0
1, 117579, Note_on_c, 1, 50, 127
1, 117579, Note_on_c, 1, 72, 127
1, 117765, Note_off_c, 1, 50, 0
1, 117769, Note_on_c, 1, 48, 127
1, 117955, Note_off_c, 1, 72, 0
1, 117955, Note_off_c, 1, 48, 0
1, 117960, Note_on_c, 1, 74, 127
1, 117960, Note_on_c, 1, 47, 127
1, 118146, Note_off_c, 1, 74, 0
1, 118336, Note_off_c, 1, 47, 0
1, 118340, Note_on_c, 1, 69, 127
1, 118526, Note_off_c, 1, 69, 0
1, 118531, Note_on_c, 1, 67, 127
1, 118717, Note_off_c, 1, 67, 0
1, 118721, Note_on_c, 1, 76, 127
1, 118812, Note_off_c, 1, 76, 0
1, 118816, Note_on_c, 1, 78, 127
1, 118907, Note_off_c, 1, 78, 0
1, 119097, Note_off_c, 1, 55, 0
1, 119102, Note_on_c, 1, 74, 127
1, 119102, Note_on_c, 1, 78, 127
1, 119102, Note_on_c, 1, 45, 127
1, 119102, Note_on_c, 1, 57, 127
1, 119288, Note_off_c, 1, 74, 0
1, 119288, Note_off_c, 1, 78, 0
1, 119292, Note_on_c, 1, 76, 127
1, 119292, Note_on_c, 1, 79, 127
1, 119478, Note_off_c, 1, 45, 0
1, 119478, Note_off_c, 1, 76, 0
1, 119478, Note_off_c, 1, 79, 0
1, 119483, Note_on_c, 1, 50, 127
1, 119855, Note_off_c, 1, 57, 0
1, 119855, Note_off_c, 1, 50, 0
1, 119859, Note_on_c, 1, 72, 127
1, 119859, Note_on_c, 1, 38, 127
1, 120234, Note_off_c, 1, 72, 0
1, 120234, Note_off_c, 1, 38, 0
1, 120239, Note_on_c, 1, 71, 127
1, 120239, Note_on_c, 1, 43, 127
1, 120614, Note_off_c, 1, 71, 0
1, 120614, Note_off_c, 1, 43, 0
1, 120618, Note_on_c, 1, 67, 127
1, 120804, Note_off_c, 1, 67, 0
1, 120809, Note_on_c, 1, 69, 127
1, 120995, Note_off_c, 1, 69, 0
1, 121378, Note_on_c, 1, 65, 127
1, 121753, Note_off_c, 1, 65, 0
1, 121758, Note_on_c, 1, 64, 127
1, 122133, Note_off_c, 1, 64, 0
1, 122328, Note_on_c, 1, 81, 127
1, 122514, Note_off_c, 1, 81, 0
1, 122518, Note_on_c, 1, 69, 127
1, 122518, Note_on_c, 1, 79, 127
1, 122518, Note_on_c, 1, 64, 127
1, 122893, Note_off_c, 1, 69, 0
1, 122893, Note_off_c, 1, 79, 0
1, 122893, Note_off_c, 1, 64, 0
1, 122897, Note_on_c, 1, 71, 127
1, 122897, Note_on_c, 1, 77, 127
1, 122897, Note_on_c, 1, 62, 127
1, 123272, Note_off_c, 1, 71, 0
1, 123272, Note_off_c, 1, 77, 0
1, 123272, Note_off_c, 1, 62, 0
1, 123277, Note_on_c, 1, 76, 127
1, 123277, Note_on_c, 1, 60, 127
1, 123277, Note_on_c, 1, 72, 127
1, 123463, Note_off_c, 1, 76, 0
1, 123463, Note_off_c, 1, 60, 0
1, 123467, Note_on_c, 1, 74, 127
1, 123467, Note_on_c, 1, 62, 127
1, 123653, Note_off_c, 1, 72, 0
1, 123653, Note_off_c, 1, 74, 0
1, 123653, Note_off_c, 1, 62, 0
1, 123658, Note_on_c, 1, 64, 127
1, 123658, Note_on_c, 1, 72, 127
1, 123844, Note_off_c, 1, 64, 0
1, 123848, Note_on_c, 1, 74, 127
1, 123848, Note_on_c, 1, 62, 127
1, 124034, Note_off_c, 1, 72, 0
1, 124034, Note_off_c, 1, 74, 0
1, 124034, Note_off_c, 1, 62, 0
1, 124038, Note_on_c, 1, 76, 127
1, 124038, Note_on_c, 1, 60, 127
1, 124224, Note_off_c, 1, 76, 0
1, 124229, Note_on_c, 1, 77, 127
1, 124414, Note_off_c, 1, 60, 0
1, 124415, Note_off_c, 1, 77, 0
1, 124419, Note_on_c, 1, 74, 127
1, 124419, Note_on_c, 1, 58, 127
1, 124419, Note_on_c, 1, 79, 127
1, 124794, Note_off_c, 1, 74, 0
1, 124794, Note_off_c, 1, 58, 0
1, 124799, Note_on_c, 1, 73, 127
1, 124799, Note_on_c, 1, 69, 127
1, 124972, Note_off_c, 1, 79, 0
1, 124988, Note_on_c, 1, 77, 127
1, 125174, Note_off_c, 1, 73, 0
1, 125174, Note_off_c, 1, 69, 0
1, 125174, Note_off_c, 1, 77, 0
1, 125178, Note_on_c, 1, 76, 127
1, 125178, Note_on_c, 1, 73, 127
1, 125364, Note_off_c, 1, 76, 0
1, 125365, Note_off_c, 1, 73, 0
1, 125367, Note_on_c, 1, 77, 127
1, 125367, Note_on_c, 1, 74, 127
1, 125553, Note_off_c, 1, 77, 0
1, 125553, Note_off_c, 1, 74, 0
1, 125557, Note_on_c, 1, 79, 127
1, 125557, Note_on_c, 1, 76, 127
1, 125743, Note_off_c, 1, 79, 0
1, 125748, Note_on_c, 1, 81, 127
1, 125934, Note_off_c, 1, 81, 0
1, 125938, Note_on_c, 1, 82, 127
1, 125938, Note_on_c, 1, 67, 127
1, 126124, Note_off_c, 1, 82, 0
1, 126314, Note_off_c, 1, 67, 0
1, 126319, Note_on_c, 1, 65, 127
1, 126505, Note_off_c, 1, 65, 0
1, 126509, Note_off_c, 1, 76, 0
1, 126509, Note_on_c, 1, 73, 127
1, 126509, Note_on_c, 1, 64, 127
1, 126695, Note_off_c, 1, 73, 0
1, 126695, Note_off_c, 1, 64, 0
1, 126700, Note_on_c, 1, 74, 127
1, 127253, Note_off_c, 1, 74, 0
1, 127268, Note_on_c, 1, 71, 127
1, 127268, Note_on_c, 1, 62, 127
1, 127454, Note_off_c, 1, 71, 0
1, 127454, Note_off_c, 1, 62, 0
1, 127838, Note_on_c, 1, 77, 127
1, 127838, Note_on_c, 1, 62, 127
1, 127838, Note_on_c, 1, 74, 127
1, 128024, Note_off_c, 1, 77, 0
1, 128028, Note_on_c, 1, 76, 127
1, 128214, Note_off_c, 1, 62, 0
1, 128214, Note_off_c, 1, 76, 0
1, 128219, Note_on_c, 1, 64, 127
1, 128409, Note_on_c, 1, 79, 127
1, 128591, Note_off_c, 1, 74, 0
1, 128595, Note_off_c, 1, 64, 0
1, 128595, Note_off_c, 1, 79, 0
1, 128600, Note_on_c, 1, 65, 127
1, 128600, Note_on_c, 1, 81, 127
1, 128786, Note_off_c, 1, 65, 0
1, 128790, Note_on_c, 1, 64, 127
1, 128976, Note_off_c, 1, 81, 0
1, 128976, Note_off_c, 1, 64, 0
1, 128980, Note_on_c, 1, 62, 127
1, 128980, Note_on_c, 1, 65, 127
1, 128980, Note_on_c, 1, 69, 127
1, 129166, Note_off_c, 1, 62, 0
1, 129171, Note_on_c, 1, 60, 127
1, 129356, Note_off_c, 1, 65, 0
1, 129356, Note_off_c, 1, 69, 0
1, 129357, Note_off_c, 1, 60, 0
1, 129361, Note_on_c, 1, 67, 127
1, 129361, Note_on_c, 1, 74, 127
1, 129361, Note_on_c, 1, 58, 127
1, 129547, Note_off_c, 1, 67, 0
1, 129547, Note_off_c, 1, 74, 0
1, 129552, Note_on_c, 1, 79, 127
1, 129552, Note_on_c, 1, 73, 127
1, 129737, Note_off_c, 1, 58, 0
1, 129738, Note_off_c, 1, 79, 0
1, 129738, Note_off_c, 1, 73, 0
1, 129742, Note_on_c, 1, 77, 127
1, 129742, Note_on_c, 1, 74, 127
1, 129742, Note_on_c, 1, 57, 127
1, 129928, Note_off_c, 1, 77, 0
1, 129928, Note_off_c, 1, 74, 0
1, 129928, Note_off_c, 1, 57, 0
1, 129932, Note_on_c, 1, 55, 127
1, 129932, Note_on_c, 1, 76, 127
1, 129932, Note_on_c, 1, 58, 127
1, 130115, Note_off_c, 1, 55, 0
1, 130116, Note_off_c, 1, 76, 0
1, 130116, Note_off_c, 1, 58, 0
1, 130121, Note_on_c, 1, 77, 127
1, 130121, Note_on_c, 1, 73, 127
1, 130121, Note_on_c, 1, 57, 127
1, 130184, Note_on_c, 1, 76, 127
1, 130185, Note_off_c, 1, 77, 0
1, 130248, Note_off_c, 1, 76, 0
1, 130494, Note_off_c, 1, 73, 0
1, 130499, Note_on_c, 1, 55, 127
1, 130690, Note_on_c, 1, 74, 127
1, 130875, Note_off_c, 1, 55, 0
1, 130876, Note_off_c, 1, 74, 0
1, 130880, Note_on_c, 1, 53, 127
1, 131255, Note_off_c, 1, 57, 0
1, 131255, Note_off_c, 1, 53, 0
1, 131260, Note_on_c, 1, 69, 127
1, 131260, Note_on_c, 1, 53, 127
1, 131260, Note_on_c, 1, 57, 127
1, 131446, Note_off_c, 1, 69, 0
1, 131446, Note_off_c, 1, 53, 0
1, 131450, Note_on_c, 1, 70, 127
1, 131450, Note_on_c, 1, 55, 127
1, 131636, Note_off_c, 1, 57, 0
1, 131636, Note_off_c, 1, 70, 0
1, 131636, Note_off_c, 1, 55, 0
1, 131640, Note_on_c, 1, 69, 127
1, 131640, Note_on_c, 1, 59, 127
1, 131640, Note_on_c, 1, 53, 127
1, 132015, Note_off_c, 1, 69, 0
1, 132015, Note_off_c, 1, 59, 0
1, 132015, Note_off_c, 1, 53, 0
1, 132020, Note_on_c, 1, 67, 127
1, 132020, Note_on_c, 1, 76, 127
1, 132020, Note_on_c, 1, 61, 127
1, 132020, Note_on_c, 1, 52, 127
1, 132395, Note_off_c, 1, 67, 0
1, 132395, Note_off_c, 1, 76, 0
1, 132395, Note_off_c, 1, 61, 0
1, 132395, Note_off_c, 1, 52, 0
1, 132399, Note_on_c, 1, 50, 127
1, 132399, Note_on_c, 1, 65, 127
1, 132399, Note_on_c, 1, 62, 127
1, 132399, Note_on_c, 1, 77, 127
1, 132585, Note_off_c, 1, 50, 0
1, 132590, Note_on_c, 1, 52, 127
1, 132775, Note_off_c, 1, 65, 0
1, 132775, Note_off_c, 1, 62, 0
1, 132776, Note_off_c, 1, 52, 0
1, 132780, Note_on_c, 1, 53, 127
1, 132780, Note_on_c, 1, 69, 127
1, 132966, Note_off_c, 1, 53, 0
1, 133156, Note_off_c, 1, 69, 0
1, 133161, Note_on_c, 1, 71, 127
1, 133536, Note_off_c, 1, 71, 0
1, 133540, Note_on_c, 1, 72, 127
1, 133540, Note_on_c, 1, 48, 127
1, 133915, Note_off_c, 1, 72, 0
1, 133915, Note_off_c, 1, 48, 0
1, 133920, Note_on_c, 1, 74, 127
1, 133920, Note_on_c, 1, 59, 127
1, 134106, Note_off_c, 1, 74, 0
1, 134275, Note_off_c, 1, 59, 0
1, 134680, Note_on_c, 1, 67, 127
1, 134870, Note_on_c, 1, 76, 127
1, 134874, Note_off_c, 1, 77, 0
1, 135056, Note_off_c, 1, 67, 0
1, 135056, Note_off_c, 1, 76, 0
1, 135061, Note_on_c, 1, 74, 127
1, 135061, Note_on_c, 1, 57, 127
1, 135061, Note_on_c, 1, 65, 127
1, 135247, Note_off_c, 1, 74, 0
1, 135251, Note_on_c, 1, 72, 127
1, 135437, Note_off_c, 1, 57, 0
1, 135437, Note_off_c, 1, 72, 0
1, 135441, Note_on_c, 1, 55, 127
1, 135441, Note_on_c, 1, 71, 127
1, 135627, Note_off_c, 1, 55, 0
1, 135632, Note_on_c, 1, 53, 127
1, 135814, Note_off_c, 1, 65, 0
1, 135817, Note_off_c, 1, 71, 0
1, 135818, Note_off_c, 1, 53, 0
1, 135822, Note_on_c, 1, 57, 127
1, 135822, Note_on_c, 1, 64, 127
1, 135822, Note_on_c, 1, 72, 127
1, 136008, Note_off_c, 1, 57, 0
1, 136013, Note_on_c, 1, 55, 127
1, 136198, Note_off_c, 1, 64, 0
1, 136199, Note_off_c, 1, 55, 0
1, 136203, Note_on_c, 1, 53, 127
1, 136203, Note_on_c, 1, 62, 127
1, 136389, Note_off_c, 1, 53, 0
1, 136393, Note_on_c, 1, 52, 127
1, 136575, Note_off_c, 1, 72, 0
1, 136579, Note_off_c, 1, 52, 0
1, 136584, Note_on_c, 1, 71, 127
1, 136956, Note_off_c, 1, 62, 0
1, 136960, Note_off_c, 1, 71, 0
1, 136965, Note_on_c, 1, 52, 127
1, 136965, Note_on_c, 1, 72, 127
1, 137154, Note_on_c, 1, 69, 127
1, 137340, Note_off_c, 1, 52, 0
1, 137340, Note_off_c, 1, 69, 0
1, 137344, Note_on_c, 1, 67, 127
1, 137344, Note_on_c, 1, 53, 127
1, 137530, Note_off_c, 1, 67, 0
1, 137534, Note_on_c, 1, 65, 127
1, 137720, Note_off_c, 1, 53, 0
1, 137720, Note_off_c, 1, 65, 0
1, 137725, Note_on_c, 1, 55, 127
1, 137725, Note_on_c, 1, 64, 127
1, 137911, Note_off_c, 1, 55, 0
1, 138101, Note_off_c, 1, 64, 0
1, 138103, Note_off_c, 1, 72, 0
1, 138104, Note_on_c, 1, 50, 127
1, 138104, Note_on_c, 1, 70, 127
1, 138104, Note_on_c, 1, 67, 127
1, 138290, Note_off_c, 1, 50, 0
1, 138295, Note_on_c, 1, 48, 127
1, 138480, Note_off_c, 1, 70, 0
1, 138481, Note_off_c, 1, 48, 0
1, 138485, Note_on_c, 1, 53, 127
1, 138485, Note_on_c, 1, 69, 127
1, 138671, Note_off_c, 1, 53, 0
1, 138675, Note_on_c, 1, 52, 127
1, 138857, Note_off_c, 1, 67, 0
1, 138861, Note_off_c, 1, 52, 0
1, 138866, Note_on_c, 1, 65, 127
1, 139052, Note_off_c, 1, 65, 0
1, 139627, Note_on_c, 1, 64, 127
1, 140003, Note_off_c, 1, 64, 0
1, 140008, Note_on_c, 1, 62, 127
1, 140008, Note_on_c, 1, 47, 127
1, 140383, Note_off_c, 1, 62, 0
1, 140387, Note_off_c, 1, 69, 0
1, 140388, Note_on_c, 1, 59, 127
1, 140388, Note_on_c, 1, 68, 127
1, 140574, Note_off_c, 1, 59, 0
1, 140578, Note_on_c, 1, 60, 127
1, 140764, Note_off_c, 1, 47, 0
1, 140764, Note_off_c, 1, 68, 0
1, 140764, Note_off_c, 1, 60, 0
1, 140768, Note_on_c, 1, 69, 127
1, 140768, Note_on_c, 1, 62, 127
1, 140768, Note_on_c, 1, 59, 127
1, 140768, Note_on_c, 1, 48, 127
1, 141143, Note_off_c, 1, 69, 0
1, 141143, Note_off_c, 1, 62, 0
1, 141143, Note_off_c, 1, 59, 0
1, 141143, Note_off_c, 1, 48, 0
1, 141148, Note_on_c, 1, 60, 127
1, 141148, Note_on_c, 1, 71, 127
1, 141148, Note_on_c, 1, 57, 127
1, 141148, Note_on_c, 1, 50, 127
1, 141523, Note_off_c, 1, 60, 0
1, 141523, Note_off_c, 1, 71, 0
1, 141523, Note_off_c, 1, 57, 0
1, 141527, Note_on_c, 1, 59, 127
1, 141527, Note_on_c, 1, 64, 127
1, 141527, Note_on_c, 1, 56, 127
1, 141713, Note_off_c, 1, 59, 0
1, 141904, Note_off_c, 1, 50, 0
1, 141908, Note_on_c, 1, 62, 127
1, 141908, Note_on_c, 1, 52, 127
1, 142094, Note_off_c, 1, 62, 0
1, 142284, Note_off_c, 1, 52, 0
1, 142477, Note_off_c, 1, 64, 0
1, 142478, Note_on_c, 1, 66, 127
1, 142663, Note_off_c, 1, 56, 0
1, 142664, Note_off_c, 1, 66, 0
1, 142668, Note_on_c, 1, 68, 127
1, 142668, Note_on_c, 1, 57, 127
1, 142668, Note_on_c, 1, 52, 127
1, 142668, Note_on_c, 1, 48, 127
1, 142854, Note_off_c, 1, 68, 0
1, 142859, Note_on_c, 1, 69, 127
1, 143044, Note_off_c, 1, 57, 0
1, 143044, Note_off_c, 1, 52, 0
1, 143044, Note_off_c, 1, 48, 0
1, 143045, Note_off_c, 1, 69, 0
1, 143049, Note_on_c, 1, 71, 127
1, 143049, Note_on_c, 1, 68, 127
1, 143049, Note_on_c, 1, 50, 127
1, 143049, Note_on_c, 1, 47, 127
1, 143235, Note_off_c, 1, 71, 0
1, 143239, Note_on_c, 1, 72, 127
1, 143425, Note_off_c, 1, 68, 0
1, 143425, Note_off_c, 1, 50, 0
1, 143425, Note_off_c, 1, 47, 0
1, 143425, Note_off_c, 1, 72, 0
1, 143430, Note_on_c, 1, 53, 127
1, 143430, Note_on_c, 1, 50, 127
1, 143430, Note_on_c, 1, 71, 127
1, 143616, Note_off_c, 1, 53, 0
1, 143616, Note_off_c, 1, 50, 0
1, 143620, Note_on_c, 1, 72, 127
1, 143620, Note_on_c, 1, 52, 127
1, 143620, Note_on_c, 1, 48, 127
1, 143806, Note_off_c, 1, 71, 0
1, 143806, Note_off_c, 1, 72, 0
1, 143806, Note_off_c, 1, 52, 0
1, 143806, Note_off_c, 1, 48, 0
1, 143811, Note_on_c, 1, 50, 127
1, 143811, Note_on_c, 1, 47, 127
1, 143811, Note_on_c, 1, 74, 127
1, 144186, Note_off_c, 1, 50, 0
1, 144186, Note_off_c, 1, 47, 0
1, 144190, Note_on_c, 1, 65, 127
1, 144190, Note_on_c, 1, 48, 127
1, 144190, Note_on_c, 1, 45, 127
1, 144565, Note_off_c, 1, 65, 0
1, 144565, Note_off_c, 1, 48, 0
1, 144565, Note_off_c, 1, 45, 0
1, 144569, Note_on_c, 1, 64, 127
1, 144569, Note_on_c, 1, 44, 127
1, 144755, Note_off_c, 1, 64, 0
1, 144760, Note_on_c, 1, 62, 127
1, 144945, Note_off_c, 1, 44, 0
1, 144946, Note_off_c, 1, 62, 0
1, 144947, Note_off_c, 1, 74, 0
1, 144949, Note_on_c, 1, 65, 127
1, 144949, Note_on_c, 1, 48, 127
1, 144949, Note_on_c, 1, 45, 127
1, 144949, Note_on_c, 1, 72, 127
1, 145135, Note_off_c, 1, 65, 0
1, 145139, Note_on_c, 1, 64, 127
1, 145325, Note_off_c, 1, 48, 0
1, 145325, Note_off_c, 1, 45, 0
1, 145325, Note_off_c, 1, 64, 0
1, 145330, Note_on_c, 1, 62, 127
1, 145330, Note_on_c, 1, 50, 127
1, 145330, Note_on_c, 1, 47, 127
1, 145516, Note_off_c, 1, 62, 0
1, 145520, Note_on_c, 1, 60, 127
1, 145702, Note_off_c, 1, 72, 0
1, 145706, Note_off_c, 1, 50, 0
1, 145706, Note_off_c, 1, 47, 0
1, 145706, Note_off_c, 1, 60, 0
1, 145710, Note_on_c, 1, 64, 127
1, 145710, Note_on_c, 1, 47, 127
1, 145710, Note_on_c, 1, 44, 127
1, 145710, Note_on_c, 1, 71, 127
1, 145896, Note_off_c, 1, 64, 0
1, 145901, Note_on_c, 1, 62, 127
1, 146086, Note_off_c, 1, 47, 0
1, 146086, Note_off_c, 1, 44, 0
1, 146087, Note_off_c, 1, 62, 0
1, 146091, Note_on_c, 1, 60, 127
1, 146091, Note_on_c, 1, 45, 127
1, 146091, Note_on_c, 1, 52, 127
1, 146461, Note_off_c, 1, 71, 0
1, 146466, Note_off_c, 1, 60, 0
1, 146466, Note_off_c, 1, 45, 0
1, 146471, Note_on_c, 1, 69, 127
1, 146657, Note_off_c, 1, 69, 0
1, 146661, Note_on_c, 1, 68, 127
1, 146847, Note_off_c, 1, 68, 0
1, 146851, Note_on_c, 1, 48, 127
1, 147227, Note_off_c, 1, 52, 0
1, 147227, Note_off_c, 1, 48, 0
1, 147232, Note_on_c, 1, 59, 127
1, 147232, Note_on_c, 1, 53, 127
1, 147418, Note_off_c, 1, 59, 0
1, 147423, Note_on_c, 1, 57, 127
1, 147609, Note_off_c, 1, 57, 0
1, 147613, Note_on_c, 1, 65, 127
1, 147613, Note_on_c, 1, 50, 127
1, 147799, Note_off_c, 1, 65, 0
1, 147989, Note_off_c, 1, 53, 0
1, 147989, Note_off_c, 1, 50, 0
1, 148373, Note_on_c, 1, 60, 127
1, 148373, Note_on_c, 1, 69, 127
1, 148373, Note_on_c, 1, 52, 127
1, 148452, Note_on_c, 1, 59, 127
1, 148462, Note_off_c, 1, 60, 0
1, 148541, Note_off_c, 1, 59, 0
1, 148608, Note_off_c, 1, 69, 0
1, 148608, Note_on_c, 1, 68, 127
1, 148745, Note_off_c, 1, 52, 0
1, 148750, Note_on_c, 1, 50, 127
1, 148750, Note_on_c, 1, 40, 127
1, 148939, Note_on_c, 1, 57, 127
1, 149120, Note_off_c, 1, 68, 0
1, 149125, Note_off_c, 1, 50, 0
1, 149125, Note_off_c, 1, 40, 0
1, 149125, Note_off_c, 1, 57, 0
1, 149129, Note_on_c, 1, 57, 127
1, 149129, Note_on_c, 1, 69, 127
1, 149129, Note_on_c, 1, 45, 127
1, 149129, Note_on_c, 1, 48, 127
1, 149509, Note_off_c, 1, 57, 0
1, 149509, Note_off_c, 1, 69, 0
1, 149509, Note_off_c, 1, 45, 0
1, 149570, Note_off_c, 1, 48, 0
1, 149707, Note_on_c, 1, 68, 127
1, 149896, Note_off_c, 1, 68, 0
1, 149901, Note_on_c, 1, 69, 127
1, 149901, Note_on_c, 1, 48, 127
1, 150281, Note_off_c, 1, 69, 0
1, 150281, Note_off_c, 1, 48, 0
1, 150286, Note_on_c, 1, 71, 127
1, 150286, Note_on_c, 1, 52, 127
1, 150666, Note_off_c, 1, 71, 0
1, 150666, Note_off_c, 1, 52, 0
1, 150671, Note_on_c, 1, 72, 127
1, 150671, Note_on_c, 1, 45, 127
1, 151051, Note_off_c, 1, 72, 0
1, 151051, Note_off_c, 1, 45, 0
1, 151056, Note_on_c, 1, 72, 127
1, 151056, Note_on_c, 1, 57, 127
1, 151056, Note_on_c, 1, 53, 127
1, 151245, Note_off_c, 1, 72, 0
1, 151245, Note_off_c, 1, 57, 0
1, 151249, Note_on_c, 1, 71, 127
1, 151249, Note_on_c, 1, 56, 127
1, 151438, Note_off_c, 1, 53, 0
1, 151438, Note_off_c, 1, 71, 0
1, 151438, Note_off_c, 1, 56, 0
1, 151442, Note_on_c, 1, 72, 127
1, 151442, Note_on_c, 1, 57, 127
1, 151442, Note_on_c, 1, 52, 127
1, 151822, Note_off_c, 1, 72, 0
1, 151822, Note_off_c, 1, 57, 0
1, 151822, Note_off_c, 1, 52, 0
1, 151827, Note_on_c, 1, 74, 127
1, 151827, Note_on_c, 1, 59, 127
1, 151827, Note_on_c, 1, 50, 127
1, 152207, Note_off_c, 1, 74, 0
1, 152207, Note_off_c, 1, 59, 0
1, 152207, Note_off_c, 1, 50, 0
1, 152212, Note_on_c, 1, 76, 127
1, 152212, Note_on_c, 1, 60, 127
1, 152212, Note_on_c, 1, 48, 127
1, 152401, Note_off_c, 1, 76, 0
1, 152405, Note_on_c, 1, 74, 127
1, 152594, Note_off_c, 1, 60, 0
1, 152594, Note_off_c, 1, 48, 0
1, 152594, Note_off_c, 1, 74, 0
1, 152598, Note_on_c, 1, 72, 127
1, 152598, Note_on_c, 1, 60, 127
1, 152598, Note_on_c, 1, 57, 127
1, 152787, Note_off_c, 1, 72, 0
1, 152787, Note_off_c, 1, 60, 0
1, 152792, Note_on_c, 1, 74, 127
1, 152792, Note_on_c, 1, 59, 127
1, 152980, Note_off_c, 1, 57, 0
1, 152981, Note_off_c, 1, 74, 0
1, 152981, Note_off_c, 1, 59, 0
1, 152985, Note_on_c, 1, 76, 127
1, 152985, Note_on_c, 1, 60, 127
1, 152985, Note_on_c, 1, 55, 127
1, 153365, Note_off_c, 1, 76, 0
1, 153365, Note_off_c, 1, 60, 0
1, 153365, Note_off_c, 1, 55, 0
1, 153370, Note_on_c, 1, 77, 127
1, 153370, Note_on_c, 1, 62, 127
1, 153370, Note_on_c, 1, 53, 127
1, 153750, Note_off_c, 1, 77, 0
1, 153750, Note_off_c, 1, 62, 0
1, 153750, Note_off_c, 1, 53, 0
1, 153755, Note_on_c, 1, 64, 127
1, 153755, Note_on_c, 1, 68, 127
1, 153755, Note_on_c, 1, 52, 127
1, 153944, Note_off_c, 1, 64, 0
1, 153948, Note_on_c, 1, 62, 127
1, 154137, Note_off_c, 1, 68, 0
1, 154137, Note_off_c, 1, 52, 0
1, 154137, Note_off_c, 1, 62, 0
1, 154141, Note_on_c, 1, 60, 127
1, 154141, Note_on_c, 1, 57, 127
1, 154141, Note_on_c, 1, 64, 127
1, 154330, Note_off_c, 1, 60, 0
1, 154330, Note_off_c, 1, 57, 0
1, 154334, Note_on_c, 1, 62, 127
1, 154334, Note_on_c, 1, 55, 127
1, 154523, Note_off_c, 1, 64, 0
1, 154523, Note_off_c, 1, 62, 0
1, 154523, Note_off_c, 1, 55, 0
1, 154528, Note_on_c, 1, 53, 127
1, 154528, Note_on_c, 1, 64, 127
1, 154717, Note_off_c, 1, 53, 0
1, 154721, Note_on_c, 1, 52, 127
1, 154910, Note_off_c, 1, 64, 0
1, 154910, Note_off_c, 1, 52, 0
1, 154914, Note_on_c, 1, 50, 127
1, 154914, Note_on_c, 1, 69, 127
1, 154914, Note_on_c, 1, 65, 127
1, 155103, Note_off_c, 1, 50, 0
1, 155107, Note_on_c, 1, 48, 127
1, 155296, Note_off_c, 1, 69, 0
1, 155296, Note_off_c, 1, 65, 0
1, 155296, Note_off_c, 1, 48, 0
1, 155300, Note_on_c, 1, 71, 127
1, 155300, Note_on_c, 1, 56, 127
1, 155300, Note_on_c, 1, 47, 127
1, 155489, Note_off_c, 1, 71, 0
1, 155494, Note_on_c, 1, 72, 127
1, 155682, Note_off_c, 1, 56, 0
1, 155682, Note_off_c, 1, 47, 0
1, 155683, Note_off_c, 1, 72, 0
1, 155687, Note_on_c, 1, 69, 127
1, 155687, Note_on_c, 1, 60, 127
1, 155687, Note_on_c, 1, 52, 127
1, 155876, Note_off_c, 1, 69, 0
1, 155876, Note_off_c, 1, 60, 0
1, 155880, Note_on_c, 1, 71, 127
1, 155880, Note_on_c, 1, 59, 127
1, 156069, Note_off_c, 1, 71, 0
1, 156069, Note_off_c, 1, 59, 0
1, 156073, Note_on_c, 1, 72, 127
1, 156073, Note_on_c, 1, 57, 127
1, 156249, Note_off_c, 1, 52, 0
1, 156262, Note_off_c, 1, 72, 0
1, 156262, Note_off_c, 1, 57, 0
1, 156266, Note_on_c, 1, 74, 127
1, 156266, Note_on_c, 1, 55, 127
1, 156455, Note_off_c, 1, 74, 0
1, 156455, Note_off_c, 1, 55, 0
1, 156460, Note_on_c, 1, 71, 127
1, 156460, Note_on_c, 1, 53, 127
1, 156460, Note_on_c, 1, 57, 127
1, 156649, Note_off_c, 1, 71, 0
1, 156649, Note_off_c, 1, 53, 0
1, 156653, Note_on_c, 1, 72, 127
1, 156653, Note_on_c, 1, 52, 127
1, 156842, Note_off_c, 1, 57, 0
1, 156842, Note_off_c, 1, 72, 0
1, 156842, Note_off_c, 1, 52, 0
1, 156846, Note_on_c, 1, 59, 127
1, 156846, Note_on_c, 1, 74, 127
1, 156846, Note_on_c, 1, 50, 127
1, 157035, Note_off_c, 1, 59, 0
1, 157039, Note_on_c, 1, 60, 127
1, 157228, Note_off_c, 1, 74, 0
1, 157228, Note_off_c, 1, 60, 0
1, 157232, Note_on_c, 1, 57, 127
1, 157232, Note_on_c, 1, 72, 127
1, 157421, Note_off_c, 1, 57, 0
1, 157530, Note_off_c, 1, 50, 0
1, 157614, Note_off_c, 1, 72, 0
1, 157619, Note_on_c, 1, 60, 127
1, 157619, Note_on_c, 1, 71, 127
1, 157619, Note_on_c, 1, 52, 127
1, 157808, Note_off_c, 1, 60, 0
1, 157812, Note_on_c, 1, 62, 127
1, 158001, Note_off_c, 1, 71, 0
1, 158001, Note_off_c, 1, 62, 0
1, 158005, Note_on_c, 1, 59, 127
1, 158005, Note_on_c, 1, 76, 127
1, 158194, Note_off_c, 1, 59, 0
1, 158303, Note_off_c, 1, 52, 0
1, 158387, Note_off_c, 1, 76, 0
1, 158392, Note_on_c, 1, 69, 127
1, 158392, Note_on_c, 1, 62, 127
1, 158392, Note_on_c, 1, 53, 127
1, 158772, Note_off_c, 1, 69, 0
1, 158772, Note_off_c, 1, 62, 0
1, 158772, Note_off_c, 1, 53, 0
1, 158777, Note_on_c, 1, 60, 127
1, 158777, Note_on_c, 1, 52, 127
1, 158777, Note_on_c, 1, 81, 127
1, 159157, Note_off_c, 1, 60, 0
1, 159157, Note_off_c, 1, 52, 0
1, 159162, Note_on_c, 1, 59, 127
1, 159162, Note_on_c, 1, 50, 127
1, 159542, Note_off_c, 1, 81, 0
1, 159542, Note_off_c, 1, 59, 0
1, 159542, Note_off_c, 1, 50, 0
1, 159547, Note_on_c, 1, 64, 127
1, 159547, Note_on_c, 1, 52, 127
1, 159547, Note_on_c, 1, 79, 127
1, 159927, Note_off_c, 1, 64, 0
1, 159927, Note_off_c, 1, 52, 0
1, 159932, Note_on_c, 1, 48, 127
1, 159932, Note_on_c, 1, 57, 127
1, 160312, Note_off_c, 1, 79, 0
1, 160312, Note_off_c, 1, 48, 0
1, 160317, Note_on_c, 1, 84, 127
1, 160317, Note_on_c, 1, 47, 127
1, 160506, Note_off_c, 1, 84, 0
1, 160510, Note_on_c, 1, 83, 127
1, 160699, Note_off_c, 1, 47, 0
1, 160699, Note_off_c, 1, 83, 0
1, 160703, Note_on_c, 1, 81, 127
1, 160892, Note_off_c, 1, 81, 0
1, 161089, Note_on_c, 1, 78, 127
1, 161089, Note_on_c, 1, 45, 127
1, 161278, Note_off_c, 1, 78, 0
1, 161283, Note_on_c, 1, 76, 127
1, 161471, Note_off_c, 1, 45, 0
1, 161472, Note_off_c, 1, 76, 0
1, 161476, Note_on_c, 1, 75, 127
1, 161863, Note_off_c, 1, 75, 0
1, 161864, Note_off_c, 1, 57, 0
1, 161868, Note_on_c, 1, 55, 127
1, 161868, Note_on_c, 1, 71, 127
1, 162059, Note_off_c, 1, 55, 0
1, 162064, Note_on_c, 1, 63, 127
1, 162064, Note_on_c, 1, 54, 127
1, 162255, Note_off_c, 1, 71, 0
1, 162255, Note_off_c, 1, 63, 0
1, 162255, Note_off_c, 1, 54, 0
1, 162260, Note_on_c, 1, 73, 127
1, 162647, Note_off_c, 1, 73, 0
1, 162652, Note_on_c, 1, 75, 127
1, 162652, Note_on_c, 1, 66, 127
1, 162652, Note_on_c, 1, 57, 127
1, 162652, Note_on_c, 1, 45, 127
1, 163039, Note_off_c, 1, 75, 0
1, 163039, Note_off_c, 1, 66, 0
1, 163039, Note_off_c, 1, 57, 0
1, 163039, Note_off_c, 1, 45, 0
1, 163044, Note_on_c, 1, 76, 127
1, 163044, Note_on_c, 1, 71, 127
1, 163044, Note_on_c, 1, 67, 127
1, 163044, Note_on_c, 1, 43, 127
1, 163235, Note_off_c, 1, 76, 0
1, 163240, Note_on_c, 1, 74, 127
1, 163431, Note_off_c, 1, 71, 0
1, 163431, Note_off_c, 1, 67, 0
1, 163431, Note_off_c, 1, 43, 0
1, 163431, Note_off_c, 1, 74, 0
1, 163436, Note_on_c, 1, 72, 127
1, 163436, Note_on_c, 1, 67, 127
1, 163436, Note_on_c, 1, 52, 127
1, 163436, Note_on_c, 1, 64, 127
1, 163627, Note_off_c, 1, 72, 0
1, 163627, Note_off_c, 1, 67, 0
1, 163627, Note_off_c, 1, 52, 0
1, 163632, Note_on_c, 1, 71, 127
1, 163632, Note_on_c, 1, 66, 127
1, 163632, Note_on_c, 1, 51, 127
1, 163823, Note_off_c, 1, 71, 0
1, 163823, Note_off_c, 1, 66, 0
1, 163823, Note_off_c, 1, 51, 0
1, 164215, Note_off_c, 1, 64, 0
1, 164220, Note_on_c, 1, 69, 127
1, 164220, Note_on_c, 1, 63, 127
1, 164220, Note_on_c, 1, 54, 127
1, 164607, Note_off_c, 1, 69, 0
1, 164607, Note_off_c, 1, 63, 0
1, 164607, Note_off_c, 1, 54, 0
1, 164612, Note_on_c, 1, 71, 127
1, 164612, Note_on_c, 1, 64, 127
1, 164612, Note_on_c, 1, 55, 127
1, 164808, Note_on_c, 1, 69, 127
1, 164999, Note_off_c, 1, 71, 0
1, 164999, Note_off_c, 1, 64, 0
1, 164999, Note_off_c, 1, 55, 0
1, 164999, Note_off_c, 1, 69, 0
1, 165004, Note_on_c, 1, 76, 127
1, 165004, Note_on_c, 1, 67, 127
1, 165004, Note_on_c, 1, 55, 127
1, 165195, Note_off_c, 1, 76, 0
1, 165195, Note_off_c, 1, 67, 0
1, 165195, Note_off_c, 1, 55, 0
1, 165200, Note_on_c, 1, 75, 127
1, 165200, Note_on_c, 1, 69, 127
1, 165200, Note_on_c, 1, 54, 127
1, 165391, Note_off_c, 1, 75, 0
1, 165391, Note_off_c, 1, 69, 0
1, 165391, Note_off_c, 1, 54, 0
1, 165396, Note_on_c, 1, 76, 127
1, 165396, Note_on_c, 1, 71, 127
1, 165396, Note_on_c, 1, 55, 127
1, 165783, Note_off_c, 1, 76, 0
1, 165783, Note_off_c, 1, 71, 0
1, 165783, Note_off_c, 1, 55, 0
1, 165788, Note_on_c, 1, 78, 127
1, 165788, Note_on_c, 1, 72, 127
1, 165788, Note_on_c, 1, 57, 127
1, 166175, Note_off_c, 1, 78, 0
1, 166175, Note_off_c, 1, 72, 0
1, 166175, Note_off_c, 1, 57, 0
1, 166180, Note_on_c, 1, 59, 127
1, 166180, Note_on_c, 1, 79, 127
1, 166180, Note_on_c, 1, 63, 127
1, 166371, Note_off_c, 1, 59, 0
1, 166376, Note_on_c, 1, 57, 127
1, 166567, Note_off_c, 1, 79, 0
1, 166567, Note_off_c, 1, 63, 0
1, 166567, Note_off_c, 1, 57, 0
1, 166572, Note_on_c, 1, 79, 127
1, 166572, Note_on_c, 1, 55, 127
1, 166572, Note_on_c, 1, 59, 127
1, 166763, Note_off_c, 1, 79, 0
1, 166763, Note_off_c, 1, 55, 0
1, 166768, Note_on_c, 1, 78, 127
1, 166768, Note_on_c, 1, 57, 127
1, 166959, Note_off_c, 1, 59, 0
1, 166959, Note_off_c, 1, 78, 0
1, 166959, Note_off_c, 1, 57, 0
1, 166964, Note_on_c, 1, 79, 127
1, 166964, Note_on_c, 1, 59, 127
1, 167351, Note_off_c, 1, 79, 0
1, 167351, Note_off_c, 1, 59, 0
1, 167356, Note_on_c, 1, 81, 127
1, 167356, Note_on_c, 1, 64, 127
1, 167356, Note_on_c, 1, 60, 127
1, 167743, Note_off_c, 1, 81, 0
1, 167743, Note_off_c, 1, 64, 0
1, 167743, Note_off_c, 1, 60, 0
1, 167748, Note_on_c, 1, 66, 127
1, 167748, Note_on_c, 1, 51, 127
1, 167748, Note_on_c, 1, 71, 127
1, 167939, Note_off_c, 1, 66, 0
1, 167944, Note_on_c, 1, 67, 127
1, 168135, Note_off_c, 1, 51, 0
1, 168135, Note_off_c, 1, 67, 0
1, 168140, Note_on_c, 1, 64, 127
1, 168140, Note_on_c, 1, 47, 127
1, 168331, Note_off_c, 1, 64, 0
1, 168711, Note_off_c, 1, 47, 0
1, 168728, Note_on_c, 1, 69, 127
1, 168919, Note_off_c, 1, 69, 0
1, 168924, Note_on_c, 1, 52, 127
1, 169311, Note_off_c, 1, 52, 0
1, 169316, Note_on_c, 1, 54, 127
1, 169507, Note_off_c, 1, 54, 0
1, 169512, Note_on_c, 1, 55, 127
1, 169703, Note_off_c, 1, 55, 0
1, 170296, Note_on_c, 1, 57, 127
1, 170487, Note_off_c, 1, 71, 0
1, 170487, Note_off_c, 1, 57, 0
1, 170492, Note_on_c, 1, 76, 127
1, 170492, Note_on_c, 1, 54, 127
1, 170492, Note_on_c, 1, 71, 127
1, 170683, Note_off_c, 1, 76, 0
1, 170683, Note_off_c, 1, 54, 0
1, 170688, Note_on_c, 1, 74, 127
1, 170688, Note_on_c, 1, 55, 127
1, 170879, Note_off_c, 1, 71, 0
1, 170879, Note_off_c, 1, 74, 0
1, 170879, Note_off_c, 1, 55, 0
1, 170884, Note_on_c, 1, 72, 127
1, 170884, Note_on_c, 1, 57, 127
1, 170884, Note_on_c, 1, 64, 127
1, 171075, Note_off_c, 1, 72, 0
1, 171080, Note_on_c, 1, 71, 127
1, 171271, Note_off_c, 1, 57, 0
1, 171271, Note_off_c, 1, 71, 0
1, 171276, Note_on_c, 1, 69, 127
1, 171276, Note_on_c, 1, 55, 127
1, 171467, Note_off_c, 1, 69, 0
1, 171663, Note_off_c, 1, 55, 0
1, 171668, Note_on_c, 1, 54, 127
1, 172055, Note_off_c, 1, 64, 0
1, 172055, Note_off_c, 1, 54, 0
1, 172060, Note_on_c, 1, 71, 127
1, 172060, Note_on_c, 1, 63, 127
1, 172060, Note_on_c, 1, 59, 127
1, 172251, Note_off_c, 1, 71, 0
1, 172256, Note_on_c, 1, 69, 127
1, 172447, Note_off_c, 1, 63, 0
1, 172447, Note_off_c, 1, 59, 0
1, 172447, Note_off_c, 1, 69, 0
1, 172452, Note_on_c, 1, 64, 127
1, 172452, Note_on_c, 1, 52, 127
1, 172452, Note_on_c, 1, 67, 127
1, 172839, Note_off_c, 1, 64, 0
1, 172839, Note_off_c, 1, 52, 0
1, 172844, Note_on_c, 1, 72, 127
1, 173035, Note_off_c, 1, 72, 0
1, 173040, Note_on_c, 1, 71, 127
1, 173040, Note_on_c, 1, 51, 127
1, 173231, Note_off_c, 1, 67, 0
1, 173231, Note_off_c, 1, 71, 0
1, 173231, Note_off_c, 1, 51, 0
1, 173236, Note_on_c, 1, 69, 127
1, 173236, Note_on_c, 1, 52, 127
1, 173236, Note_on_c, 1, 72, 127
1, 173427, Note_off_c, 1, 69, 0
1, 173432, Note_on_c, 1, 67, 127
1, 173623, Note_off_c, 1, 52, 0
1, 173623, Note_off_c, 1, 67, 0
1, 173628, Note_on_c, 1, 66, 127
1, 173628, Note_on_c, 1, 54, 127
1, 173819, Note_off_c, 1, 66, 0
1, 173824, Note_on_c, 1, 64, 127
1, 174015, Note_off_c, 1, 54, 0
1, 174015, Note_off_c, 1, 64, 0
1, 174020, Note_on_c, 1, 62, 127
1, 174020, Note_on_c, 1, 55, 127
1, 174407, Note_off_c, 1, 72, 0
1, 174407, Note_off_c, 1, 62, 0
1, 174412, Note_on_c, 1, 71, 127
1, 174603, Note_off_c, 1, 71, 0
1, 174608, Note_on_c, 1, 65, 127
1, 174799, Note_off_c, 1, 65, 0
1, 175196, Note_on_c, 1, 61, 127
1, 175196, Note_on_c, 1, 73, 127
1, 175387, Note_off_c, 1, 61, 0
1, 175392, Note_on_c, 1, 59, 127
1, 175583, Note_off_c, 1, 73, 0
1, 175583, Note_off_c, 1, 59, 0
1, 175588, Note_on_c, 1, 74, 127
1, 175588, Note_on_c, 1, 57, 127
1, 175975, Note_off_c, 1, 55, 0
1, 175975, Note_off_c, 1, 74, 0
1, 175975, Note_off_c, 1, 57, 0
1, 175980, Note_on_c, 1, 54, 127
1, 175980, Note_on_c, 1, 74, 127
1, 176171, Note_off_c, 1, 54, 0
1, 176176, Note_on_c, 1, 72, 127
1, 176176, Note_on_c, 1, 52, 127
1, 176367, Note_off_c, 1, 72, 0
1, 176367, Note_off_c, 1, 52, 0
1, 176372, Note_on_c, 1, 71, 127
1, 176563, Note_off_c, 1, 71, 0
1, 176568, Note_on_c, 1, 69, 127
1, 176759, Note_off_c, 1, 69, 0
1, 176764, Note_on_c, 1, 68, 127
1, 176764, Note_on_c, 1, 56, 127
1, 176955, Note_off_c, 1, 68, 0
1, 176960, Note_on_c, 1, 66, 127
1, 177151, Note_off_c, 1, 56, 0
1, 177151, Note_off_c, 1, 66, 0
1, 177156, Note_on_c, 1, 57, 127
1, 177156, Note_on_c, 1, 64, 127
1, 177531, Note_off_c, 1, 74, 0
1, 177543, Note_off_c, 1, 57, 0
1, 177935, Note_off_c, 1, 64, 0
1, 177940, Note_on_c, 1, 72, 127
1, 177940, Note_on_c, 1, 57, 127
1, 177940, Note_on_c, 1, 69, 127
1, 178327, Note_off_c, 1, 72, 0
1, 178327, Note_off_c, 1, 57, 0
1, 178332, Note_on_c, 1, 74, 127
1, 178332, Note_on_c, 1, 59, 127
1, 178719, Note_off_c, 1, 74, 0
1, 178719, Note_off_c, 1, 59, 0
1, 178724, Note_on_c, 1, 76, 127
1, 178724, Note_on_c, 1, 60, 127
1, 179111, Note_off_c, 1, 76, 0
1, 179111, Note_off_c, 1, 60, 0
1, 179113, Note_off_c, 1, 69, 0
1, 179114, Note_on_c, 1, 60, 127
1, 179114, Note_on_c, 1, 69, 127
1, 179114, Note_on_c, 1, 57, 127
1, 179305, Note_off_c, 1, 60, 0
1, 179310, Note_on_c, 1, 68, 127
1, 179310, Note_on_c, 1, 59, 127
1, 179501, Note_off_c, 1, 69, 0
1, 179501, Note_off_c, 1, 57, 0
1, 179501, Note_off_c, 1, 68, 0
1, 179501, Note_off_c, 1, 59, 0
1, 179506, Note_on_c, 1, 69, 127
1, 179506, Note_on_c, 1, 60, 127
1, 179506, Note_on_c, 1, 55, 127
1, 179506, Note_on_c, 1, 81, 127
1, 179893, Note_off_c, 1, 69, 0
1, 179893, Note_off_c, 1, 60, 0
1, 179893, Note_off_c, 1, 55, 0
1, 179898, Note_on_c, 1, 71, 127
1, 179898, Note_on_c, 1, 62, 127
1, 179898, Note_on_c, 1, 53, 127
1, 180285, Note_off_c, 1, 71, 0
1, 180285, Note_off_c, 1, 62, 0
1, 180285, Note_off_c, 1, 53, 0
1, 180290, Note_on_c, 1, 64, 127
1, 180290, Note_on_c, 1, 72, 127
1, 180290, Note_on_c, 1, 52, 127
1, 180481, Note_off_c, 1, 81, 0
1, 180481, Note_off_c, 1, 64, 0
1, 180486, Note_on_c, 1, 80, 127
1, 180677, Note_off_c, 1, 72, 0
1, 180677, Note_off_c, 1, 80, 0
1, 181463, Note_off_c, 1, 52, 0
1, 181465, Note_on_c, 1, 83, 127
1, 181465, Note_on_c, 1, 74, 127
1, 181465, Note_on_c, 1, 65, 127
1, 181852, Note_off_c, 1, 83, 0
1, 181852, Note_off_c, 1, 74, 0
1, 181852, Note_off_c, 1, 65, 0
1, 181857, Note_on_c, 1, 56, 127
1, 181857, Note_on_c, 1, 76, 127
1, 182053, Note_on_c, 1, 74, 127
1, 182244, Note_off_c, 1, 56, 0
1, 182244, Note_off_c, 1, 74, 0
1, 182249, Note_on_c, 1, 72, 127
1, 182249, Note_on_c, 1, 45, 127
1, 182249, Note_on_c, 1, 52, 127
1, 182440, Note_off_c, 1, 72, 0
1, 182440, Note_off_c, 1, 45, 0
1, 182445, Note_on_c, 1, 47, 127
1, 182632, Note_off_c, 1, 76, 0
1, 182636, Note_off_c, 1, 47, 0
1, 182641, Note_on_c, 1, 48, 127
1, 182820, Note_off_c, 1, 52, 0
1, 183028, Note_off_c, 1, 48, 0
1, 183033, Note_on_c, 1, 74, 127
1, 183033, Note_on_c, 1, 77, 127
1, 183033, Note_on_c, 1, 57, 127
1, 183033, Note_on_c, 1, 50, 127
1, 183224, Note_off_c, 1, 74, 0
1, 183229, Note_on_c, 1, 72, 127
1, 183420, Note_off_c, 1, 77, 0
1, 183420, Note_off_c, 1, 57, 0
1, 183420, Note_off_c, 1, 72, 0
1, 183425, Note_on_c, 1, 59, 127
1, 183425, Note_on_c, 1, 71, 127
1, 183425, Note_on_c, 1, 68, 127
1, 183616, Note_off_c, 1, 59, 0
1, 183621, Note_on_c, 1, 60, 127
1, 183812, Note_off_c, 1, 50, 0
1, 183812, Note_off_c, 1, 71, 0
1, 183812, Note_off_c, 1, 68, 0
1, 183812, Note_off_c, 1, 60, 0
1, 183817, Note_on_c, 1, 76, 127
1, 183817, Note_on_c, 1, 57, 127
1, 183817, Note_on_c, 1, 48, 127
1, 183817, Note_on_c, 1, 64, 127
1, 184008, Note_off_c, 1, 76, 0
1, 184008, Note_off_c, 1, 57, 0
1, 184008, Note_off_c, 1, 48, 0
1, 184013, Note_on_c, 1, 74, 127
1, 184013, Note_on_c, 1, 59, 127
1, 184013, Note_on_c, 1, 50, 127
1, 184204, Note_off_c, 1, 74, 0
1, 184204, Note_off_c, 1, 59, 0
1, 184204, Note_off_c, 1, 50, 0
1, 184209, Note_on_c, 1, 72, 127
1, 184209, Note_on_c, 1, 60, 127
1, 184209, Note_on_c, 1, 52, 127
1, 184400, Note_off_c, 1, 72, 0
1, 184400, Note_off_c, 1, 60, 0
1, 184405, Note_on_c, 1, 71, 127
1, 184405, Note_on_c, 1, 62, 127
1, 184596, Note_off_c, 1, 64, 0
1, 184596, Note_off_c, 1, 52, 0
1, 184596, Note_off_c, 1, 71, 0
1, 184596, Note_off_c, 1, 62, 0
1, 184601, Note_on_c, 1, 59, 127
1, 184601, Note_on_c, 1, 69, 127
1, 184601, Note_on_c, 1, 53, 127
1, 184792, Note_off_c, 1, 59, 0
1, 184797, Note_on_c, 1, 68, 127
1, 184797, Note_on_c, 1, 60, 127
1, 184988, Note_off_c, 1, 69, 0
1, 184988, Note_off_c, 1, 68, 0
1, 184988, Note_off_c, 1, 60, 0
1, 184993, Note_on_c, 1, 71, 127
1, 184993, Note_on_c, 1, 62, 127
1, 185184, Note_off_c, 1, 71, 0
1, 185189, Note_on_c, 1, 72, 127
1, 185380, Note_off_c, 1, 53, 0
1, 185380, Note_off_c, 1, 62, 0
1, 185380, Note_off_c, 1, 72, 0
1, 185385, Note_on_c, 1, 52, 127
1, 185385, Note_on_c, 1, 69, 127
1, 185385, Note_on_c, 1, 60, 127
1, 185576, Note_off_c, 1, 52, 0
1, 185581, Note_on_c, 1, 71, 127
1, 185581, Note_on_c, 1, 50, 127
1, 185772, Note_off_c, 1, 69, 0
1, 185772, Note_off_c, 1, 60, 0
1, 185772, Note_off_c, 1, 71, 0
1, 185772, Note_off_c, 1, 50, 0
1, 185777, Note_on_c, 1, 72, 127
1, 185777, Note_on_c, 1, 59, 127
1, 185777, Note_on_c, 1, 52, 127
1, 185777, Note_on_c, 1, 68, 127
1, 185968, Note_off_c, 1, 72, 0
1, 185973, Note_on_c, 1, 74, 127
1, 186164, Note_off_c, 1, 59, 0
1, 186164, Note_off_c, 1, 52, 0
1, 186164, Note_off_c, 1, 74, 0
1, 186169, Note_on_c, 1, 71, 127
1, 186169, Note_on_c, 1, 64, 127
1, 186169, Note_on_c, 1, 48, 127
1, 186360, Note_off_c, 1, 71, 0
1, 186556, Note_off_c, 1, 68, 0
1, 186556, Note_off_c, 1, 64, 0
1, 186556, Note_off_c, 1, 48, 0
1, 186561, Note_on_c, 1, 74, 127
1, 186561, Note_on_c, 1, 53, 127
1, 186561, Note_on_c, 1, 69, 127
1, 186561, Note_on_c, 1, 57, 127
1, 186948, Note_off_c, 1, 74, 0
1, 186948, Note_off_c, 1, 53, 0
1, 186953, Note_on_c, 1, 52, 127
1, 186953, Note_on_c, 1, 72, 127
1, 187144, Note_off_c, 1, 52, 0
1, 187149, Note_on_c, 1, 50, 127
1, 187336, Note_off_c, 1, 69, 0
1, 187340, Note_off_c, 1, 72, 0
1, 187340, Note_off_c, 1, 50, 0
1, 187345, Note_on_c, 1, 71, 127
1, 187732, Note_off_c, 1, 57, 0
1, 187732, Note_off_c, 1, 71, 0
1, 187737, Note_on_c, 1, 52, 127
1, 187737, Note_on_c, 1, 76, 127
1, 187737, Note_on_c, 1, 55, 127
1, 187928, Note_off_c, 1, 52, 0
1, 187933, Note_on_c, 1, 50, 127
1, 188124, Note_off_c, 1, 76, 0
1, 188124, Note_off_c, 1, 50, 0
1, 188129, Note_on_c, 1, 49, 127
1, 188129, Note_on_c, 1, 69, 127
1, 188516, Note_off_c, 1, 55, 0
1, 188516, Note_off_c, 1, 49, 0
1, 188521, Note_on_c, 1, 53, 127
1, 188521, Note_on_c, 1, 45, 127
1, 188712, Note_off_c, 1, 53, 0
1, 188908, Note_off_c, 1, 45, 0
1, 189104, Note_off_c, 1, 69, 0
1, 189109, Note_on_c, 1, 77, 127
1, 189300, Note_off_c, 1, 77, 0
1, 189305, Note_on_c, 1, 74, 127
1, 189305, Note_on_c, 1, 48, 127
1, 189496, Note_off_c, 1, 74, 0
1, 189501, Note_on_c, 1, 71, 127
1, 189692, Note_off_c, 1, 48, 0
1, 189692, Note_off_c, 1, 71, 0
1, 189697, Note_on_c, 1, 47, 127
1, 189697, Note_on_c, 1, 67, 127
1, 190084, Note_off_c, 1, 47, 0
1, 190089, Note_on_c, 1, 43, 127
1, 190476, Note_off_c, 1, 43, 0
1, 190672, Note_off_c, 1, 67, 0
1, 190873, Note_on_c, 1, 72, 127
1, 191064, Note_off_c, 1, 72, 0
1, 191265, Note_on_c, 1, 65, 127
1, 191652, Note_off_c, 1, 65, 0
1, 192049, Note_on_c, 1, 67, 127
1, 192049, Note_on_c, 1, 47, 127
1, 192049, Note_on_c, 1, 50, 127
1, 192240, Note_off_c, 1, 67, 0
1, 192245, Note_on_c, 1, 65, 127
1, 192436, Note_off_c, 1, 47, 0
1, 192436, Note_off_c, 1, 65, 0
1, 192441, Note_on_c, 1, 64, 127
1, 192441, Note_on_c, 1, 43, 127
1, 192632, Note_off_c, 1, 64, 0
1, 192824, Note_off_c, 1, 50, 0
1, 192828, Note_off_c, 1, 43, 0
1, 192833, Note_on_c, 1, 48, 127
1, 192833, Note_on_c, 1, 64, 127
1, 193023, Note_off_c, 1, 48, 0
1, 193225, Note_on_c, 1, 50, 127
1, 193416, Note_off_c, 1, 50, 0
1, 193421, Note_on_c, 1, 52, 127
1, 193612, Note_off_c, 1, 52, 0
1, 193617, Note_on_c, 1, 53, 127
1, 193808, Note_off_c, 1, 53, 0
1, 193813, Note_on_c, 1, 55, 127
1, 194004, Note_off_c, 1, 55, 0
1, 194009, Note_on_c, 1, 57, 127
1, 194009, Note_on_c, 1, 47, 127
1, 194200, Note_off_c, 1, 57, 0
1, 194205, Note_on_c, 1, 59, 127
1, 194396, Note_off_c, 1, 47, 0
1, 194396, Note_off_c, 1, 59, 0
1, 194401, Note_on_c, 1, 45, 127
1, 194401, Note_on_c, 1, 60, 127
1, 194592, Note_off_c, 1, 64, 0
1, 194597, Note_on_c, 1, 62, 127
1, 194788, Note_off_c, 1, 62, 0
1, 194989, Note_on_c, 1, 65, 127
1, 195180, Note_off_c, 1, 65, 0
1, 195185, Note_on_c, 1, 67, 127
1, 195376, Note_off_c, 1, 67, 0
1, 195381, Note_off_c, 1, 45, 0
1, 195381, Note_on_c, 1, 69, 127
1, 195572, Note_off_c, 1, 69, 0
1, 195577, Note_on_c, 1, 71, 127
1, 195577, Note_on_c, 1, 43, 127
1, 195768, Note_off_c, 1, 71, 0
1, 195773, Note_on_c, 1, 72, 127
1, 195964, Note_off_c, 1, 43, 0
1, 195964, Note_off_c, 1, 72, 0
1, 195969, Note_on_c, 1, 41, 127
1, 196160, Note_off_c, 1, 41, 0
1, 196944, Note_off_c, 1, 60, 0
1, 197929, Note_on_c, 1, 72, 127
1, 197929, Note_on_c, 1, 67, 127
1, 197929, Note_on_c, 1, 64, 127
1, 197929, Note_on_c, 1, 55, 127
1, 198120, Note_off_c, 1, 72, 0
1, 198120, Note_off_c, 1, 67, 0
1, 198120, Note_off_c, 1, 64, 0
1, 198125, Note_on_c, 1, 71, 127
1, 198125, Note_on_c, 1, 65, 127
1, 198125, Note_on_c, 1, 62, 127
1, 198316, Note_off_c, 1, 55, 0
1, 198316, Note_off_c, 1, 71, 0
1, 198316, Note_off_c, 1, 65, 0
1, 198316, Note_off_c, 1, 62, 0
1, 198321, Note_on_c, 1, 60, 127
1, 198321, Note_on_c, 1, 72, 127
1, 198321, Note_on_c, 1, 64, 127
1, 198321, Note_on_c, 1, 57, 127
1, 198512, Note_off_c, 1, 60, 0
1, 198517, Note_on_c, 1, 59, 127
1, 198708, Note_off_c, 1, 72, 0
1, 198708, Note_off_c, 1, 64, 0
1, 198708, Note_off_c, 1, 57, 0
1, 198708, Note_off_c, 1, 59, 0
1, 198713, Note_on_c, 1, 57, 127
1, 198713, Note_on_c, 1, 74, 127
1, 198713, Note_on_c, 1, 69, 127
1, 198713, Note_on_c, 1, 53, 127
1, 198904, Note_off_c, 1, 57, 0
1, 198909, Note_on_c, 1, 59, 127
1, 199100, Note_off_c, 1, 74, 0
1, 199100, Note_off_c, 1, 69, 0
1, 199100, Note_off_c, 1, 53, 0
1, 199100, Note_off_c, 1, 59, 0
1, 199105, Note_on_c, 1, 76, 127
1, 199105, Note_on_c, 1, 67, 127
1, 199105, Note_on_c, 1, 60, 127
1, 199492, Note_off_c, 1, 76, 0
1, 199497, Note_on_c, 1, 48, 127
1, 199688, Note_off_c, 1, 48, 0
1, 199693, Note_on_c, 1, 74, 127
1, 199693, Note_on_c, 1, 47, 127
1, 199884, Note_off_c, 1, 74, 0
1, 199884, Note_off_c, 1, 47, 0
1, 200281, Note_on_c, 1, 77, 127
1, 200281, Note_on_c, 1, 50, 127
1, 200668, Note_off_c, 1, 77, 0
1, 200668, Note_off_c, 1, 50, 0
1, 200673, Note_on_c, 1, 79, 127
1, 200673, Note_on_c, 1, 52, 127
1, 200864, Note_off_c, 1, 79, 0
1, 201060, Note_off_c, 1, 67, 0
1, 201060, Note_off_c, 1, 60, 0
1, 201060, Note_off_c, 1, 52, 0
1, 201065, Note_on_c, 1, 76, 127
1, 201065, Note_on_c, 1, 52, 127
1, 201065, Note_on_c, 1, 72, 127
1, 201065, Note_on_c, 1, 55, 127
1, 201256, Note_off_c, 1, 76, 0
1, 201256, Note_off_c, 1, 52, 0
1, 201261, Note_on_c, 1, 77, 127
1, 201261, Note_on_c, 1, 50, 127
1, 201452, Note_off_c, 1, 72, 0
1, 201452, Note_off_c, 1, 77, 0
1, 201452, Note_off_c, 1, 50, 0
1, 201457, Note_on_c, 1, 79, 127
1, 201457, Note_on_c, 1, 71, 127
1, 201844, Note_off_c, 1, 55, 0
1, 201844, Note_off_c, 1, 79, 0
1, 201844, Note_off_c, 1, 71, 0
1, 201849, Note_on_c, 1, 81, 127
1, 201849, Note_on_c, 1, 69, 127
1, 201849, Note_on_c, 1, 54, 127
1, 201849, Note_on_c, 1, 62, 127
1, 202236, Note_off_c, 1, 81, 0
1, 202236, Note_off_c, 1, 69, 0
1, 202236, Note_off_c, 1, 54, 0
1, 202241, Note_on_c, 1, 55, 127
1, 202241, Note_on_c, 1, 71, 127
1, 202241, Note_on_c, 1, 67, 127
1, 202432, Note_off_c, 1, 55, 0
1, 202437, Note_on_c, 1, 53, 127
1, 202628, Note_off_c, 1, 62, 0
1, 202628, Note_off_c, 1, 71, 0
1, 202628, Note_off_c, 1, 67, 0
1, 202628, Note_off_c, 1, 53, 0
1, 202633, Note_on_c, 1, 52, 127
1, 202633, Note_on_c, 1, 64, 127
1, 202633, Note_on_c, 1, 67, 127
1, 202824, Note_off_c, 1, 52, 0
1, 202829, Note_on_c, 1, 53, 127
1, 203020, Note_off_c, 1, 64, 0
1, 203020, Note_off_c, 1, 53, 0
1, 203025, Note_on_c, 1, 65, 127
1, 203025, Note_on_c, 1, 62, 127
1, 203025, Note_on_c, 1, 55, 127
1, 203204, Note_off_c, 1, 67, 0
1, 203412, Note_off_c, 1, 65, 0
1, 203412, Note_off_c, 1, 62, 0
1, 203412, Note_off_c, 1, 55, 0
1, 203417, Note_on_c, 1, 72, 127
1, 203417, Note_on_c, 1, 64, 127
1, 203417, Note_on_c, 1, 60, 127
1, 203417, Note_on_c, 1, 57, 127
1, 203804, Note_off_c, 1, 72, 0
1, 203804, Note_off_c, 1, 64, 0
1, 203804, Note_off_c, 1, 60, 0
1, 203804, Note_off_c, 1, 57, 0
1, 203809, Note_on_c, 1, 74, 127
1, 203809, Note_on_c, 1, 62, 127
1, 203809, Note_on_c, 1, 47, 127
1, 203809, Note_on_c, 1, 55, 127
1, 204000, Note_off_c, 1, 74, 0
1, 204000, Note_off_c, 1, 62, 0
1, 204005, Note_on_c, 1, 76, 127
1, 204005, Note_on_c, 1, 67, 127
1, 204196, Note_off_c, 1, 47, 0
1, 204196, Note_off_c, 1, 76, 0
1, 204196, Note_off_c, 1, 67, 0
1, 204201, Note_on_c, 1, 72, 127
1, 204201, Note_on_c, 1, 69, 127
1, 204201, Note_on_c, 1, 43, 127
1, 204392, Note_off_c, 1, 72, 0
1, 204392, Note_off_c, 1, 69, 0
1, 204397, Note_on_c, 1, 71, 127
1, 204584, Note_off_c, 1, 55, 0
1, 204588, Note_off_c, 1, 71, 0
1, 204731, Note_off_c, 1, 43, 0
1, 204789, Note_on_c, 1, 77, 127
1, 204980, Note_off_c, 1, 77, 0
1, 204985, Note_on_c, 1, 48, 127
1, 205372, Note_off_c, 1, 48, 0
1, 205377, Note_on_c, 1, 50, 127
1, 205568, Note_off_c, 1, 50, 0
1, 205573, Note_on_c, 1, 52, 127
1, 205764, Note_off_c, 1, 52, 0
1, 206161, Note_on_c, 1, 52, 127
1, 206161, Note_on_c, 1, 74, 127
1, 206161, Note_on_c, 1, 71, 127
1, 206352, Note_off_c, 1, 52, 0
1, 206357, Note_on_c, 1, 53, 127
1, 206548, Note_off_c, 1, 74, 0
1, 206548, Note_off_c, 1, 71, 0
1, 206548, Note_off_c, 1, 53, 0
1, 206553, Note_on_c, 1, 50, 127
1, 206553, Note_on_c, 1, 79, 127
1, 206553, Note_on_c, 1, 70, 127
1, 206553, Note_on_c, 1, 55, 127
1, 206744, Note_off_c, 1, 50, 0
1, 206749, Note_on_c, 1, 52, 127
1, 206940, Note_off_c, 1, 79, 0
1, 206940, Note_off_c, 1, 70, 0
1, 206940, Note_off_c, 1, 55, 0
1, 206940, Note_off_c, 1, 52, 0
1, 206945, Note_on_c, 1, 72, 127
1, 206945, Note_on_c, 1, 57, 127
1, 206945, Note_on_c, 1, 69, 127
1, 206945, Note_on_c, 1, 53, 127
1, 207136, Note_off_c, 1, 72, 0
1, 207136, Note_off_c, 1, 57, 0
1, 207141, Note_on_c, 1, 71, 127
1, 207141, Note_on_c, 1, 59, 127
1, 207332, Note_off_c, 1, 69, 0
1, 207332, Note_off_c, 1, 53, 0
1, 207332, Note_off_c, 1, 71, 0
1, 207332, Note_off_c, 1, 59, 0
1, 207337, Note_on_c, 1, 74, 127
1, 207337, Note_on_c, 1, 55, 127
1, 207337, Note_on_c, 1, 52, 127
1, 207528, Note_off_c, 1, 74, 0
1, 207528, Note_off_c, 1, 55, 0
1, 207533, Note_on_c, 1, 72, 127
1, 207533, Note_on_c, 1, 57, 127
1, 207724, Note_off_c, 1, 52, 0
1, 207724, Note_off_c, 1, 72, 0
1, 207724, Note_off_c, 1, 57, 0
1, 207729, Note_on_c, 1, 71, 127
1, 207729, Note_on_c, 1, 59, 127
1, 207729, Note_on_c, 1, 50, 127
1, 207920, Note_off_c, 1, 71, 0
1, 207920, Note_off_c, 1, 59, 0
1, 207925, Note_on_c, 1, 69, 127
1, 207925, Note_on_c, 1, 60, 127
1, 208116, Note_off_c, 1, 50, 0
1, 208116, Note_off_c, 1, 69, 0
1, 208116, Note_off_c, 1, 60, 0
1, 208121, Note_on_c, 1, 67, 127
1, 208121, Note_on_c, 1, 57, 127
1, 208121, Note_on_c, 1, 55, 127
1, 208312, Note_off_c, 1, 67, 0
1, 208312, Note_off_c, 1, 57, 0
1, 208317, Note_on_c, 1, 65, 127
1, 208317, Note_on_c, 1, 59, 127
1, 208508, Note_off_c, 1, 55, 0
1, 208508, Note_off_c, 1, 65, 0
1, 208508, Note_off_c, 1, 59, 0
1, 208513, Note_on_c, 1, 64, 127
1, 208513, Note_on_c, 1, 60, 127
1, 208513, Note_on_c, 1, 48, 127
1, 208900, Note_off_c, 1, 64, 0
1, 208900, Note_off_c, 1, 60, 0
1, 208900, Note_off_c, 1, 48, 0
1, 208905, Note_on_c, 1, 65, 127
1, 208905, Note_on_c, 1, 50, 127
1, 208905, Note_on_c, 1, 59, 127
1, 209096, Note_off_c, 1, 65, 0
1, 209096, Note_off_c, 1, 50, 0
1, 209101, Note_on_c, 1, 67, 127
1, 209101, Note_on_c, 1, 52, 127
1, 209292, Note_off_c, 1, 59, 0
1, 209292, Note_off_c, 1, 67, 0
1, 209292, Note_off_c, 1, 52, 0
1, 209297, Note_on_c, 1, 69, 127
1, 209297, Note_on_c, 1, 57, 127
1, 209297, Note_on_c, 1, 53, 127
1, 209488, Note_off_c, 1, 69, 0
1, 209493, Note_on_c, 1, 71, 127
1, 209684, Note_off_c, 1, 57, 0
1, 209684, Note_off_c, 1, 71, 0
1, 209689, Note_on_c, 1, 72, 127
1, 209689, Note_on_c, 1, 62, 127
1, 209880, Note_off_c, 1, 72, 0
1, 209885, Note_on_c, 1, 74, 127
1, 210076, Note_off_c, 1, 74, 0
1, 210081, Note_on_c, 1, 55, 127
1, 210272, Note_off_c, 1, 62, 0
1, 210277, Note_on_c, 1, 64, 127
1, 210468, Note_off_c, 1, 64, 0
1, 210473, Note_on_c, 1, 60, 127
1, 210664, Note_off_c, 1, 60, 0
1, 210669, Note_on_c, 1, 67, 127
1, 210860, Note_off_c, 1, 53, 0
1, 210860, Note_off_c, 1, 67, 0
1, 210865, Note_on_c, 1, 52, 127
1, 211061, Note_on_c, 1, 65, 127
1, 211252, Note_off_c, 1, 55, 0
1, 211252, Note_off_c, 1, 52, 0
1, 211252, Note_off_c, 1, 65, 0
1, 211649, Note_on_c, 1, 50, 127
1, 212036, Note_off_c, 1, 50, 0
1, 212433, Note_on_c, 1, 59, 127
1, 212433, Note_on_c, 1, 62, 127
1, 212433, Note_on_c, 1, 55, 127
1, 212433, Note_on_c, 1, 71, 127
1, 212624, Note_off_c, 1, 59, 0
1, 212629, Note_on_c, 1, 60, 127
1, 212820, Note_off_c, 1, 62, 0
1, 212820, Note_off_c, 1, 55, 0
1, 212820, Note_off_c, 1, 60, 0
1, 212825, Note_on_c, 1, 67, 127
1, 212825, Note_on_c, 1, 43, 127
1, 213212, Note_off_c, 1, 71, 0
1, 213212, Note_off_c, 1, 67, 0
1, 213212, Note_off_c, 1, 43, 0
1, 213217, Note_on_c, 1, 64, 127
1, 213217, Note_on_c, 1, 72, 127
1, 213217, Note_on_c, 1, 55, 127
1, 213217, Note_on_c, 1, 48, 127
1, 213408, Note_off_c, 1, 64, 0
1, 213429, Note_on_c, 1, 65, 127
1, 213620, Note_off_c, 1, 65, 0
1, 213625, Note_on_c, 1, 76, 127
1, 213631, Note_off_c, 1, 72, 0
1, 213816, Note_off_c, 1, 76, 0
1, 213821, Note_on_c, 1, 62, 127
1, 213821, Note_on_c, 1, 77, 127
1, 213992, Note_off_c, 1, 55, 0
1, 213992, Note_off_c, 1, 48, 0
1, 214012, Note_off_c, 1, 62, 0
1, 214012, Note_off_c, 1, 77, 0
1, 214017, Note_on_c, 1, 60, 127
1, 214017, Note_on_c, 1, 76, 127
1, 214208, Note_off_c, 1, 60, 0
1, 214213, Note_on_c, 1, 59, 127
1, 214404, Note_off_c, 1, 76, 0
1, 214404, Note_off_c, 1, 59, 0
1, 214409, Note_on_c, 1, 57, 127
1, 214409, Note_on_c, 1, 52, 127
1, 214409, Note_on_c, 1, 74, 127
1, 214600, Note_off_c, 1, 57, 0
1, 214605, Note_on_c, 1, 56, 127
1, 214796, Note_off_c, 1, 52, 0
1, 214796, Note_off_c, 1, 74, 0
1, 214796, Note_off_c, 1, 56, 0
1, 214801, Note_on_c, 1, 57, 127
1, 214801, Note_on_c, 1, 72, 127
1, 214801, Note_on_c, 1, 45, 127
1, 214997, Note_on_c, 1, 58, 127
1, 215188, Note_off_c, 1, 57, 0
1, 215188, Note_off_c, 1, 72, 0
1, 215188, Note_off_c, 1, 58, 0
1, 215193, Note_on_c, 1, 69, 127
1, 215193, Note_on_c, 1, 73, 127
1, 215372, Note_off_c, 1, 45, 0
1, 215384, Note_off_c, 1, 69, 0
1, 215389, Note_on_c, 1, 55, 127
1, 215389, Note_on_c, 1, 70, 127
1, 215580, Note_off_c, 1, 73, 0
1, 215580, Note_off_c, 1, 55, 0
1, 215580, Note_off_c, 1, 70, 0
1, 215585, Note_on_c, 1, 53, 127
1, 215585, Note_on_c, 1, 69, 127
1, 215585, Note_on_c, 1, 74, 127
1, 215776, Note_off_c, 1, 53, 0
1, 215781, Note_on_c, 1, 52, 127
1, 215972, Note_off_c, 1, 69, 0
1, 215972, Note_off_c, 1, 74, 0
1, 215972, Note_off_c, 1, 52, 0
1, 215977, Note_on_c, 1, 50, 127
1, 215977, Note_on_c, 1, 67, 127
1, 215977, Note_on_c, 1, 76, 127
1, 216168, Note_off_c, 1, 50, 0
1, 216173, Note_on_c, 1, 49, 127
1, 216364, Note_off_c, 1, 67, 0
1, 216364, Note_off_c, 1, 76, 0
1, 216364, Note_off_c, 1, 49, 0
1, 216369, Note_on_c, 1, 65, 127
1, 216369, Note_on_c, 1, 69, 127
1, 216369, Note_on_c, 1, 50, 127
1, 216756, Note_off_c, 1, 65, 0
1, 216756, Note_off_c, 1, 69, 0
1, 216761, Note_on_c, 1, 57, 127
1, 216761, Note_on_c, 1, 74, 127
1, 216952, Note_off_c, 1, 57, 0
1, 216952, Note_off_c, 1, 74, 0
1, 216957, Note_on_c, 1, 58, 127
1, 216957, Note_on_c, 1, 67, 127
1, 216957, Note_on_c, 1, 76, 127
1, 217148, Note_off_c, 1, 58, 0
1, 217148, Note_off_c, 1, 67, 0
1, 217148, Note_off_c, 1, 76, 0
1, 217545, Note_on_c, 1, 55, 127
1, 217545, Note_on_c, 1, 64, 127
1, 217545, Note_on_c, 1, 72, 127
1, 217932, Note_off_c, 1, 55, 0
1, 217932, Note_off_c, 1, 64, 0
1, 217932, Note_off_c, 1, 72, 0
1, 217937, Note_on_c, 1, 62, 127
1, 217937, Note_on_c, 1, 71, 127
1, 217937, Note_on_c, 1, 53, 127
1, 218128, Note_off_c, 1, 62, 0
1, 218128, Note_off_c, 1, 71, 0
1, 218324, Note_off_c, 1, 53, 0
1, 219108, Note_off_c, 1, 50, 0
1, 219113, Note_on_c, 1, 52, 127
1, 219113, Note_on_c, 1, 60, 127
1, 219113, Note_on_c, 1, 69, 127
1, 219500, Note_off_c, 1, 52, 0
1, 219500, Note_off_c, 1, 60, 0
1, 219500, Note_off_c, 1, 69, 0
1, 219505, Note_on_c, 1, 50, 127
1, 219505, Note_on_c, 1, 53, 127
1, 219505, Note_on_c, 1, 71, 127
1, 219505, Note_on_c, 1, 67, 127
1, 219696, Note_off_c, 1, 50, 0
1, 219701, Note_on_c, 1, 52, 127
1, 219892, Note_off_c, 1, 53, 0
1, 219892, Note_off_c, 1, 71, 0
1, 219892, Note_off_c, 1, 52, 0
1, 219897, Note_on_c, 1, 74, 127
1, 220280, Note_off_c, 1, 67, 0
1, 220676, Note_off_c, 1, 74, 0
1, 220681, Note_on_c, 1, 48, 127
1, 220681, Note_on_c, 1, 69, 127
1, 221068, Note_off_c, 1, 48, 0
1, 221068, Note_off_c, 1, 69, 0
1, 221073, Note_on_c, 1, 59, 127
1, 221269, Note_on_c, 1, 55, 127
1, 221269, Note_on_c, 1, 65, 127
1, 221460, Note_off_c, 1, 59, 0
1, 221460, Note_off_c, 1, 55, 0
1, 221460, Note_off_c, 1, 65, 0
1, 221465, Note_on_c, 1, 53, 127
1, 221465, Note_on_c, 1, 69, 127
1, 221465, Note_on_c, 1, 62, 127
1, 221656, Note_off_c, 1, 53, 0
1, 221656, Note_off_c, 1, 69, 0
1, 221661, Note_on_c, 1, 52, 127
1, 221661, Note_on_c, 1, 67, 127
1, 221852, Note_off_c, 1, 52, 0
1, 221852, Note_off_c, 1, 67, 0
1, 221857, Note_on_c, 1, 65, 127
1, 221857, Note_on_c, 1, 50, 127
1, 222036, Note_off_c, 1, 62, 0
1, 222048, Note_off_c, 1, 65, 0
1, 222053, Note_on_c, 1, 64, 127
1, 222244, Note_off_c, 1, 64, 0
1, 222249, Note_on_c, 1, 57, 127
1, 222636, Note_off_c, 1, 57, 0
1, 222641, Note_on_c, 1, 55, 127
1, 222832, Note_off_c, 1, 55, 0
1, 223028, Note_off_c, 1, 50, 0
1, 223033, Note_on_c, 1, 57, 127
1, 223033, Note_on_c, 1, 65, 127
1, 223033, Note_on_c, 1, 48, 127
1, 223224, Note_off_c, 1, 57, 0
1, 223229, Note_on_c, 1, 55, 127
1, 223420, Note_off_c, 1, 65, 0
1, 223420, Note_off_c, 1, 55, 0
1, 223425, Note_on_c, 1, 53, 127
1, 223425, Note_on_c, 1, 67, 127
1, 223616, Note_off_c, 1, 53, 0
1, 223621, Note_on_c, 1, 52, 127
1, 223812, Note_off_c, 1, 48, 0
1, 223812, Note_off_c, 1, 67, 0
1, 223812, Note_off_c, 1, 52, 0
1, 223817, Note_on_c, 1, 55, 127
1, 223817, Note_on_c, 1, 47, 127
1, 223817, Note_on_c, 1, 62, 127
1, 224008, Note_off_c, 1, 55, 0
1, 224013, Note_on_c, 1, 53, 127
1, 224204, Note_off_c, 1, 47, 0
1, 224204, Note_off_c, 1, 62, 0
1, 224204, Note_off_c, 1, 53, 0
1, 224209, Note_on_c, 1, 69, 127
1, 224209, Note_on_c, 1, 48, 127
1, 224209, Note_on_c, 1, 52, 127
1, 224400, Note_off_c, 1, 69, 0
1, 224405, Note_on_c, 1, 71, 127
1, 224596, Note_off_c, 1, 48, 0
1, 224596, Note_off_c, 1, 52, 0
1, 224596, Note_off_c, 1, 71, 0
1, 224601, Note_on_c, 1, 69, 127
1, 224601, Note_on_c, 1, 50, 127
1, 224601, Note_on_c, 1, 53, 127
1, 224792, Note_off_c, 1, 69, 0
1, 224797, Note_on_c, 1, 71, 127
1, 224988, Note_off_c, 1, 50, 0
1, 224988, Note_off_c, 1, 53, 0
1, 224988, Note_off_c, 1, 71, 0
1, 224993, Note_on_c, 1, 72, 127
1, 224993, Note_on_c, 1, 55, 127
1, 224993, Note_on_c, 1, 43, 127
1, 225086, Note_off_c, 1, 72, 0
1, 225091, Note_on_c, 1, 71, 127
1, 225184, Note_off_c, 1, 71, 0
1, 225380, Note_off_c, 1, 55, 0
1, 225385, Note_on_c, 1, 50, 127
1, 225581, Note_on_c, 1, 69, 127
1, 225674, Note_off_c, 1, 69, 0
1, 225772, Note_off_c, 1, 50, 0
1, 225777, Note_on_c, 1, 57, 127
1, 225968, Note_off_c, 1, 57, 0
1, 225973, Note_on_c, 1, 59, 127
1, 225973, Note_on_c, 1, 74, 127
1, 226164, Note_off_c, 1, 43, 0
1, 226164, Note_off_c, 1, 59, 0
1, 226164, Note_off_c, 1, 74, 0
1, 226169, Note_on_c, 1, 72, 127
1, 226169, Note_on_c, 1, 57, 127
1, 226360, Note_off_c, 1, 72, 0
1, 226365, Note_on_c, 1, 59, 127
1, 226365, Note_on_c, 1, 74, 127
1, 226556, Note_off_c, 1, 57, 0
1, 226556, Note_off_c, 1, 59, 0
1, 226556, Note_off_c, 1, 74, 0
1, 226561, Note_on_c, 1, 60, 127
1, 226561, Note_on_c, 1, 76, 127
1, 226561, Note_on_c, 1, 55, 127
1, 226654, Note_off_c, 1, 60, 0
1, 226654, Note_off_c, 1, 76, 0
1, 226659, Note_on_c, 1, 59, 127
1, 226659, Note_on_c, 1, 74, 127
1, 226752, Note_off_c, 1, 59, 0
1, 226752, Note_off_c, 1, 74, 0
1, 226948, Note_off_c, 1, 55, 0
1, 226953, Note_on_c, 1, 60, 127
1, 226953, Note_on_c, 1, 76, 127
1, 226953, Note_on_c, 1, 53, 127
1, 227046, Note_off_c, 1, 60, 0
1, 227046, Note_off_c, 1, 76, 0
1, 227051, Note_on_c, 1, 59, 127
1, 227051, Note_on_c, 1, 74, 127
1, 227144, Note_off_c, 1, 59, 0
1, 227144, Note_off_c, 1, 74, 0
1, 227149, Note_on_c, 1, 57, 127
1, 227149, Note_on_c, 1, 72, 127
1, 227242, Note_off_c, 1, 57, 0
1, 227242, Note_off_c, 1, 72, 0
1, 227340, Note_off_c, 1, 53, 0
1, 227345, Note_on_c, 1, 76, 127
1, 227345, Note_on_c, 1, 52, 127
1, 227345, Note_on_c, 1, 60, 127
1, 227536, Note_off_c, 1, 76, 0
1, 227541, Note_on_c, 1, 74, 127
1, 227732, Note_off_c, 1, 52, 0
1, 227732, Note_off_c, 1, 74, 0
1, 227737, Note_on_c, 1, 72, 127
1, 227737, Note_on_c, 1, 50, 127
1, 227928, Note_off_c, 1, 72, 0
1, 227933, Note_on_c, 1, 71, 127
1, 228124, Note_off_c, 1, 50, 0
1, 228124, Note_off_c, 1, 71, 0
1, 228129, Note_on_c, 1, 69, 127
1, 228129, Note_on_c, 1, 48, 127
1, 228320, Note_off_c, 1, 69, 0
1, 228325, Note_on_c, 1, 67, 127
1, 228516, Note_off_c, 1, 48, 0
1, 228516, Note_off_c, 1, 67, 0
1, 228521, Note_on_c, 1, 66, 127
1, 228712, Note_off_c, 1, 66, 0
1, 228717, Note_on_c, 1, 64, 127
1, 228908, Note_off_c, 1, 64, 0
1, 229300, Note_off_c, 1, 60, 0
1, 229305, Note_on_c, 1, 50, 127
1, 229305, Note_on_c, 1, 54, 127
1, 229305, Note_on_c, 1, 62, 127
1, 229496, Note_off_c, 1, 50, 0
1, 229501, Note_on_c, 1, 52, 127
1, 229692, Note_off_c, 1, 54, 0
1, 229692, Note_off_c, 1, 62, 0
1, 229692, Note_off_c, 1, 52, 0
1, 229697, Note_on_c, 1, 50, 127
1, 229697, Note_on_c, 1, 55, 127
1, 229697, Note_on_c, 1, 64, 127
1, 230084, Note_off_c, 1, 50, 0
1, 230084, Note_off_c, 1, 55, 0
1, 230084, Note_off_c, 1, 64, 0
1, 230089, Note_on_c, 1, 48, 127
1, 230089, Note_on_c, 1, 57, 127
1, 230089, Note_on_c, 1, 66, 127
1, 230476, Note_off_c, 1, 48, 0
1, 230476, Note_off_c, 1, 57, 0
1, 230476, Note_off_c, 1, 66, 0
1, 230481, Note_on_c, 1, 47, 127
1, 230481, Note_on_c, 1, 59, 127
1, 230481, Note_on_c, 1, 67, 127
1, 230868, Note_off_c, 1, 47, 0
1, 230868, Note_off_c, 1, 59, 0
1, 230868, Note_off_c, 1, 67, 0
1, 230873, Note_on_c, 1, 47, 127
1, 230873, Note_on_c, 1, 74, 127
1, 230873, Note_on_c, 1, 50, 127
1, 230873, Note_on_c, 1, 66, 127
1, 231064, Note_off_c, 1, 47, 0
1, 231064, Note_off_c, 1, 74, 0
1, 231069, Note_on_c, 1, 48, 127
1, 231069, Note_on_c, 1, 76, 127
1, 231260, Note_off_c, 1, 50, 0
1, 231260, Note_off_c, 1, 66, 0
1, 231260, Note_off_c, 1, 48, 0
1, 231260, Note_off_c, 1, 76, 0
1, 231265, Note_on_c, 1, 47, 127
1, 231265, Note_on_c, 1, 52, 127
1, 231265, Note_on_c, 1, 67, 127
1, 231265, Note_on_c, 1, 74, 127
1, 231652, Note_off_c, 1, 47, 0
1, 231652, Note_off_c, 1, 52, 0
1, 231652, Note_off_c, 1, 67, 0
1, 231652, Note_off_c, 1, 74, 0
1, 231657, Note_on_c, 1, 45, 127
1, 231657, Note_on_c, 1, 54, 127
1, 231657, Note_on_c, 1, 69, 127
1, 231657, Note_on_c, 1, 72, 127
1, 232044, Note_off_c, 1, 45, 0
1, 232044, Note_off_c, 1, 54, 0
1, 232044, Note_off_c, 1, 69, 0
1, 232044, Note_off_c, 1, 72, 0
1, 232049, Note_on_c, 1, 43, 127
1, 232049, Note_on_c, 1, 71, 127
1, 232049, Note_on_c, 1, 55, 127
1, 232049, Note_on_c, 1, 62, 127
1, 232240, Note_off_c, 1, 43, 0
1, 232245, Note_on_c, 1, 45, 127
1, 232436, Note_off_c, 1, 71, 0
1, 232436, Note_off_c, 1, 45, 0
1, 232441, Note_on_c, 1, 47, 127
1, 232632, Note_off_c, 1, 47, 0
1, 232637, Note_on_c, 1, 72, 127
1, 232828, Note_off_c, 1, 72, 0
1, 233220, Note_off_c, 1, 55, 0
1, 233220, Note_off_c, 1, 62, 0
1, 233225, Note_on_c, 1, 42, 127
1, 233225, Note_on_c, 1, 57, 127
1, 233225, Note_on_c, 1, 63, 127
1, 233225, Note_on_c, 1, 69, 127
1, 233612, Note_off_c, 1, 42, 0
1, 233612, Note_off_c, 1, 57, 0
1, 233612, Note_off_c, 1, 63, 0
1, 233612, Note_off_c, 1, 69, 0
1, 233617, Note_on_c, 1, 67, 127
1, 233617, Note_on_c, 1, 52, 127
1, 233617, Note_on_c, 1, 64, 127
1, 233617, Note_on_c, 1, 59, 127
1, 233808, Note_off_c, 1, 67, 0
1, 233813, Note_on_c, 1, 69, 127
1, 234004, Note_off_c, 1, 52, 0
1, 234004, Note_off_c, 1, 64, 0
1, 234004, Note_off_c, 1, 69, 0
1, 234009, Note_on_c, 1, 71, 127
1, 234009, Note_on_c, 1, 55, 127
1, 234200, Note_off_c, 1, 71, 0
1, 234205, Note_on_c, 1, 63, 127
1, 234396, Note_off_c, 1, 63, 0
1, 234580, Note_off_c, 1, 55, 0
1, 234793, Note_on_c, 1, 50, 127
1, 234793, Note_on_c, 1, 66, 127
1, 235180, Note_off_c, 1, 50, 0
1, 235180, Note_off_c, 1, 66, 0
1, 235185, Note_on_c, 1, 48, 127
1, 235185, Note_on_c, 1, 76, 127
1, 235376, Note_off_c, 1, 48, 0
1, 235381, Note_on_c, 1, 47, 127
1, 235572, Note_off_c, 1, 59, 0
1, 235572, Note_off_c, 1, 76, 0
1, 235572, Note_off_c, 1, 47, 0
1, 235577, Note_on_c, 1, 50, 127
1, 235577, Note_on_c, 1, 52, 127
1, 235577, Note_on_c, 1, 67, 127
1, 235577, Note_on_c, 1, 79, 127
1, 235768, Note_off_c, 1, 50, 0
1, 235773, Note_on_c, 1, 48, 127
1, 235964, Note_off_c, 1, 52, 0
1, 235964, Note_off_c, 1, 67, 0
1, 235964, Note_off_c, 1, 48, 0
1, 235969, Note_on_c, 1, 47, 127
1, 235969, Note_on_c, 1, 54, 127
1, 235969, Note_on_c, 1, 69, 127
1, 236148, Note_off_c, 1, 79, 0
1, 236160, Note_off_c, 1, 47, 0
1, 236165, Note_on_c, 1, 45, 127
1, 236356, Note_off_c, 1, 54, 0
1, 236356, Note_off_c, 1, 69, 0
1, 236356, Note_off_c, 1, 45, 0
1, 236361, Note_on_c, 1, 48, 127
1, 236361, Note_on_c, 1, 55, 127
1, 236361, Note_on_c, 1, 71, 127
1, 236361, Note_on_c, 1, 74, 127
1, 236552, Note_off_c, 1, 48, 0
1, 236557, Note_on_c, 1, 47, 127
1, 236748, Note_off_c, 1, 55, 0
1, 236748, Note_off_c, 1, 71, 0
1, 236748, Note_off_c, 1, 74, 0
1, 236748, Note_off_c, 1, 47, 0
1, 236753, Note_on_c, 1, 72, 127
1, 236753, Note_on_c, 1, 45, 127
1, 236753, Note_on_c, 1, 57, 127
1, 236944, Note_off_c, 1, 72, 0
1, 236949, Note_on_c, 1, 71, 127
1, 237140, Note_off_c, 1, 45, 0
1, 237140, Note_off_c, 1, 57, 0
1, 237140, Note_off_c, 1, 71, 0
1, 237145, Note_on_c, 1, 74, 127
1, 237145, Note_on_c, 1, 47, 127
1, 237145, Note_on_c, 1, 50, 127
1, 237145, Note_on_c, 1, 67, 127
1, 237336, Note_off_c, 1, 74, 0
1, 237341, Note_on_c, 1, 72, 127
1, 237532, Note_off_c, 1, 47, 0
1, 237532, Note_off_c, 1, 50, 0
1, 237532, Note_off_c, 1, 72, 0
1, 237537, Note_on_c, 1, 71, 127
1, 237537, Note_on_c, 1, 48, 127
1, 237537, Note_on_c, 1, 52, 127
1, 237728, Note_off_c, 1, 71, 0
1, 237733, Note_on_c, 1, 69, 127
1, 237924, Note_off_c, 1, 67, 0
1, 237924, Note_off_c, 1, 48, 0
1, 237924, Note_off_c, 1, 52, 0
1, 237924, Note_off_c, 1, 69, 0
1, 237929, Note_on_c, 1, 50, 127
1, 237929, Note_on_c, 1, 66, 127
1, 237929, Note_on_c, 1, 72, 127
1, 237929, Note_on_c, 1, 43, 127
1, 238120, Note_off_c, 1, 50, 0
1, 238120, Note_off_c, 1, 66, 0
1, 238120, Note_off_c, 1, 72, 0
1, 238125, Note_on_c, 1, 52, 127
1, 238125, Note_on_c, 1, 67, 127
1, 238125, Note_on_c, 1, 71, 127
1, 238316, Note_off_c, 1, 43, 0
1, 238316, Note_off_c, 1, 52, 0
1, 238316, Note_off_c, 1, 67, 0
1, 238316, Note_off_c, 1, 71, 0
1, 238321, Note_on_c, 1, 54, 127
1, 238321, Note_on_c, 1, 69, 127
1, 238321, Note_on_c, 1, 50, 127
1, 238512, Note_off_c, 1, 54, 0
1, 238517, Note_on_c, 1, 55, 127
1, 238708, Note_off_c, 1, 69, 0
1, 238708, Note_off_c, 1, 55, 0
1, 238713, Note_on_c, 1, 52, 127
1, 238713, Note_on_c, 1, 71, 127
1, 238904, Note_off_c, 1, 52, 0
1, 239100, Note_off_c, 1, 50, 0
1, 239100, Note_off_c, 1, 71, 0
1, 239105, Note_on_c, 1, 55, 127
1, 239105, Note_on_c, 1, 72, 127
1, 239105, Note_on_c, 1, 52, 127
1, 239296, Note_off_c, 1, 55, 0
1, 239301, Note_on_c, 1, 57, 127
1, 239492, Note_off_c, 1, 72, 0
1, 239492, Note_off_c, 1, 57, 0
1, 239497, Note_on_c, 1, 54, 127
1, 239497, Note_on_c, 1, 67, 127
1, 239688, Note_off_c, 1, 54, 0
1, 239884, Note_off_c, 1, 52, 0
1, 239884, Note_off_c, 1, 67, 0
1, 239889, Note_on_c, 1, 74, 127
1, 239889, Note_on_c, 1, 57, 127
1, 239889, Note_on_c, 1, 54, 127
1, 240080, Note_off_c, 1, 74, 0
1, 240085, Note_on_c, 1, 76, 127
1, 240276, Note_off_c, 1, 57, 0
1, 240276, Note_off_c, 1, 76, 0
1, 240281, Note_on_c, 1, 59, 127
1, 240472, Note_off_c, 1, 59, 0
1, 240477, Note_on_c, 1, 60, 127
1, 240668, Note_off_c, 1, 54, 0
1, 240668, Note_off_c, 1, 60, 0
1, 240673, Note_on_c, 1, 77, 127
1, 240673, Note_on_c, 1, 55, 127
1, 240766, Note_off_c, 1, 77, 0
1, 241452, Note_off_c, 1, 55, 0
1, 241457, Note_on_c, 1, 60, 127
1, 241457, Note_on_c, 1, 57, 127
1, 241457, Note_on_c, 1, 77, 127
1, 241653, Note_on_c, 1, 76, 127
1, 241844, Note_off_c, 1, 60, 0
1, 241844, Note_off_c, 1, 76, 0
1, 241849, Note_on_c, 1, 62, 127
1, 241849, Note_on_c, 1, 74, 127
1, 242040, Note_off_c, 1, 62, 0
1, 242040, Note_off_c, 1, 74, 0
1, 242045, Note_on_c, 1, 64, 127
1, 242045, Note_on_c, 1, 72, 127
1, 242236, Note_off_c, 1, 57, 0
1, 242236, Note_off_c, 1, 64, 0
1, 242236, Note_off_c, 1, 72, 0
1, 242241, Note_on_c, 1, 71, 127
1, 242241, Note_on_c, 1, 59, 127
1, 242432, Note_off_c, 1, 71, 0
1, 242437, Note_on_c, 1, 69, 127
1, 242628, Note_off_c, 1, 59, 0
1, 242628, Note_off_c, 1, 69, 0
1, 242633, Note_on_c, 1, 68, 127
1, 242824, Note_off_c, 1, 68, 0
1, 243025, Note_on_c, 1, 56, 127
1, 243412, Note_off_c, 1, 77, 0
1, 243412, Note_off_c, 1, 56, 0
1, 243417, Note_on_c, 1, 52, 127
1, 243804, Note_off_c, 1, 52, 0
1, 243809, Note_on_c, 1, 54, 127
1, 244196, Note_off_c, 1, 54, 0
1, 244985, Note_on_c, 1, 64, 127
1, 244985, Note_on_c, 1, 72, 127
1, 244985, Note_on_c, 1, 48, 127
1, 244985, Note_on_c, 1, 52, 127
1, 245176, Note_off_c, 1, 64, 0
1, 245176, Note_off_c, 1, 72, 0
1, 245181, Note_on_c, 1, 65, 127
1, 245181, Note_on_c, 1, 74, 127
1, 245372, Note_off_c, 1, 48, 0
1, 245372, Note_off_c, 1, 52, 0
1, 245372, Note_off_c, 1, 65, 0
1, 245372, Note_off_c, 1, 74, 0
1, 245377, Note_on_c, 1, 50, 127
1, 245377, Note_on_c, 1, 54, 127
1, 245377, Note_on_c, 1, 64, 127
1, 245377, Note_on_c, 1, 72, 127
1, 245764, Note_off_c, 1, 50, 0
1, 245764, Note_off_c, 1, 54, 0
1, 245764, Note_off_c, 1, 64, 0
1, 245764, Note_off_c, 1, 72, 0
1, 245769, Note_on_c, 1, 52, 127
1, 245769, Note_on_c, 1, 56, 127
1, 245769, Note_on_c, 1, 62, 127
1, 245769, Note_on_c, 1, 71, 127
1, 246156, Note_off_c, 1, 52, 0
1, 246156, Note_off_c, 1, 56, 0
1, 246156, Note_off_c, 1, 62, 0
1, 246156, Note_off_c, 1, 71, 0
1, 246161, Note_on_c, 1, 69, 127
1, 246161, Note_on_c, 1, 60, 127
1, 246161, Note_on_c, 1, 53, 127
1, 246161, Note_on_c, 1, 57, 127
1, 246352, Note_off_c, 1, 69, 0
1, 246357, Note_on_c, 1, 71, 127
1, 246548, Note_off_c, 1, 60, 0
1, 246548, Note_off_c, 1, 71, 0
1, 246553, Note_on_c, 1, 72, 127
1, 246744, Note_off_c, 1, 72, 0
1, 246749, Note_on_c, 1, 62, 127
1, 246940, Note_off_c, 1, 62, 0
1, 247141, Note_off_c, 1, 53, 0
1, 247141, Note_off_c, 1, 57, 0
1, 247337, Note_on_c, 1, 49, 127
1, 247337, Note_on_c, 1, 52, 127
1, 247337, Note_on_c, 1, 58, 127
1, 247337, Note_on_c, 1, 67, 127
1, 247724, Note_off_c, 1, 49, 0
1, 247724, Note_off_c, 1, 52, 0
1, 247724, Note_off_c, 1, 58, 0
1, 247724, Note_off_c, 1, 67, 0
1, 247729, Note_on_c, 1, 57, 127
1, 247729, Note_on_c, 1, 50, 127
1, 247729, Note_on_c, 1, 53, 127
1, 247729, Note_on_c, 1, 77, 127
1, 247920, Note_off_c, 1, 57, 0
1, 247925, Note_on_c, 1, 59, 127
1, 248116, Note_off_c, 1, 50, 0
1, 248116, Note_off_c, 1, 53, 0
1, 248116, Note_off_c, 1, 77, 0
1, 248116, Note_off_c, 1, 59, 0
1, 248121, Note_on_c, 1, 61, 127
1, 248121, Note_on_c, 1, 52, 127
1, 248121, Note_on_c, 1, 55, 127
1, 248121, Note_on_c, 1, 81, 127
1, 248312, Note_off_c, 1, 61, 0
1, 248317, Note_on_c, 1, 59, 127
1, 248508, Note_off_c, 1, 52, 0
1, 248508, Note_off_c, 1, 55, 0
1, 248508, Note_off_c, 1, 59, 0
1, 248513, Note_on_c, 1, 53, 127
1, 248513, Note_on_c, 1, 57, 127
1, 248692, Note_off_c, 1, 81, 0
1, 248900, Note_off_c, 1, 53, 0
1, 248900, Note_off_c, 1, 57, 0
1, 248905, Note_on_c, 1, 49, 127
1, 248905, Note_on_c, 1, 55, 127
1, 248905, Note_on_c, 1, 58, 127
1, 248905, Note_on_c, 1, 76, 127
1, 249292, Note_off_c, 1, 49, 0
1, 249292, Note_off_c, 1, 55, 0
1, 249292, Note_off_c, 1, 58, 0
1, 249292, Note_off_c, 1, 76, 0
1, 249297, Note_on_c, 1, 74, 127
1, 249297, Note_on_c, 1, 57, 127
1, 249297, Note_on_c, 1, 66, 127
1, 249297, Note_on_c, 1, 50, 127
1, 249488, Note_off_c, 1, 74, 0
1, 249493, Note_on_c, 1, 72, 127
1, 249684, Note_off_c, 1, 57, 0
1, 249684, Note_off_c, 1, 66, 0
1, 249684, Note_off_c, 1, 72, 0
1, 249689, Note_on_c, 1, 56, 127
1, 249689, Note_on_c, 1, 76, 127
1, 249689, Note_on_c, 1, 71, 127
1, 249880, Note_off_c, 1, 56, 0
1, 249880, Note_off_c, 1, 76, 0
1, 249885, Note_on_c, 1, 54, 127
1, 250076, Note_off_c, 1, 50, 0
1, 250076, Note_off_c, 1, 71, 0
1, 250076, Note_off_c, 1, 54, 0
1, 250081, Note_on_c, 1, 72, 127
1, 250081, Note_on_c, 1, 52, 127
1, 250081, Note_on_c, 1, 45, 127
1, 250272, Note_off_c, 1, 72, 0
1, 250277, Note_on_c, 1, 71, 127
1, 250468, Note_off_c, 1, 52, 0
1, 250468, Note_off_c, 1, 71, 0
1, 250473, Note_on_c, 1, 74, 127
1, 250473, Note_on_c, 1, 57, 127
1, 250473, Note_on_c, 1, 64, 127
1, 250664, Note_off_c, 1, 74, 0
1, 250860, Note_off_c, 1, 57, 0
1, 250860, Note_off_c, 1, 64, 0
1, 250865, Note_on_c, 1, 62, 127
1, 250865, Note_on_c, 1, 53, 127
1, 251056, Note_off_c, 1, 62, 0
1, 251061, Note_on_c, 1, 60, 127
1, 251252, Note_off_c, 1, 45, 0
1, 251252, Note_off_c, 1, 53, 0
1, 251252, Note_off_c, 1, 60, 0
1, 251257, Note_on_c, 1, 44, 127
1, 251644, Note_off_c, 1, 44, 0
1, 251845, Note_on_c, 1, 59, 127
1, 252036, Note_off_c, 1, 59, 0
1, 252041, Note_on_c, 1, 69, 127
1, 252237, Note_on_c, 1, 51, 127
1, 252428, Note_off_c, 1, 51, 0
1, 252433, Note_on_c, 1, 40, 127
1, 252624, Note_off_c, 1, 69, 0
1, 252825, Note_on_c, 1, 68, 127
1, 253016, Note_off_c, 1, 68, 0
1, 253996, Note_off_c, 1, 40, 0
1, 255177, Note_on_c, 1, 65, 127
1, 255368, Note_off_c, 1, 65, 0
1, 257528, Note_on_c, 1, 52, 127
1, 257528, Note_on_c, 1, 72, 127
1, 257528, Note_on_c, 1, 64, 127
1, 257719, Note_off_c, 1, 52, 0
1, 257719, Note_off_c, 1, 72, 0
1, 257724, Note_on_c, 1, 53, 127
1, 257724, Note_on_c, 1, 74, 127
1, 257915, Note_off_c, 1, 64, 0
1, 257915, Note_off_c, 1, 53, 0
1, 257915, Note_off_c, 1, 74, 0
1, 257920, Note_on_c, 1, 76, 127
1, 257920, Note_on_c, 1, 52, 127
1, 258111, Note_off_c, 1, 76, 0
1, 258116, Note_on_c, 1, 77, 127
1, 258307, Note_off_c, 1, 52, 0
1, 258307, Note_off_c, 1, 77, 0
1, 258312, Note_on_c, 1, 50, 127
1, 258312, Note_on_c, 1, 79, 127
1, 258508, Note_on_c, 1, 70, 127
1, 258699, Note_off_c, 1, 50, 0
1, 258699, Note_off_c, 1, 70, 0
1, 258704, Note_on_c, 1, 49, 127
1, 258704, Note_on_c, 1, 69, 127
1, 258895, Note_off_c, 1, 79, 0
1, 258900, Note_on_c, 1, 81, 127
1, 259091, Note_off_c, 1, 49, 0
1, 259091, Note_off_c, 1, 81, 0
1, 259096, Note_on_c, 1, 52, 127
1, 259287, Note_off_c, 1, 52, 0
1, 259292, Note_on_c, 1, 53, 127
1, 259292, Note_on_c, 1, 77, 127
1, 259483, Note_off_c, 1, 53, 0
1, 259483, Note_off_c, 1, 77, 0
1, 259679, Note_off_c, 1, 69, 0
1, 259684, Note_on_c, 1, 73, 127
1, 259875, Note_off_c, 1, 73, 0
1, 259880, Note_on_c, 1, 76, 127
1, 259880, Note_on_c, 1, 47, 127
1, 260071, Note_off_c, 1, 76, 0
1, 260076, Note_on_c, 1, 74, 127
1, 260267, Note_off_c, 1, 47, 0
1, 260267, Note_off_c, 1, 74, 0
1, 260272, Note_on_c, 1, 45, 127
1, 260463, Note_off_c, 1, 45, 0
1, 260664, Note_on_c, 1, 49, 127
1, 260664, Note_on_c, 1, 52, 127
1, 260664, Note_on_c, 1, 76, 127
1, 260855, Note_off_c, 1, 49, 0
1, 260855, Note_off_c, 1, 52, 0
1, 260860, Note_on_c, 1, 47, 127
1, 260860, Note_on_c, 1, 50, 127
1, 260860, Note_on_c, 1, 77, 127
1, 261051, Note_off_c, 1, 47, 0
1, 261051, Note_off_c, 1, 50, 0
1, 261051, Note_off_c, 1, 77, 0
1, 261056, Note_on_c, 1, 45, 127
1, 261056, Note_on_c, 1, 79, 127
1, 261235, Note_off_c, 1, 76, 0
1, 261252, Note_on_c, 1, 69, 127
1, 261443, Note_off_c, 1, 45, 0
1, 261443, Note_off_c, 1, 69, 0
1, 261448, Note_on_c, 1, 73, 127
1, 261448, Note_on_c, 1, 43, 127
1, 261448, Note_on_c, 1, 46, 127
1, 261639, Note_off_c, 1, 73, 0
1, 261644, Note_on_c, 1, 74, 127
1, 261835, Note_off_c, 1, 43, 0
1, 261835, Note_off_c, 1, 46, 0
1, 261835, Note_off_c, 1, 74, 0
1, 261840, Note_on_c, 1, 41, 127
1, 262031, Note_off_c, 1, 79, 0
1, 262036, Note_on_c, 1, 82, 127
1, 262227, Note_off_c, 1, 82, 0
1, 262232, Note_on_c, 1, 81, 127
1, 262423, Note_off_c, 1, 81, 0
1, 262820, Note_off_c, 1, 41, 0
1, 263016, Note_on_c, 1, 65, 127
1, 263016, Note_on_c, 1, 69, 127
1, 263016, Note_on_c, 1, 74, 127
1, 263016, Note_on_c, 1, 53, 127
1, 263207, Note_off_c, 1, 65, 0
1, 263207, Note_off_c, 1, 69, 0
1, 263207, Note_off_c, 1, 74, 0
1, 263212, Note_on_c, 1, 64, 127
1, 263212, Note_on_c, 1, 67, 127
1, 263212, Note_on_c, 1, 73, 127
1, 263403, Note_off_c, 1, 53, 0
1, 263403, Note_off_c, 1, 64, 0
1, 263403, Note_off_c, 1, 67, 0
1, 263403, Note_off_c, 1, 73, 0
1, 263408, Note_on_c, 1, 74, 127
1, 263408, Note_on_c, 1, 58, 127
1, 263408, Note_on_c, 1, 65, 127
1, 263408, Note_on_c, 1, 62, 127
1, 263599, Note_off_c, 1, 74, 0
1, 263604, Note_on_c, 1, 76, 127
1, 263795, Note_off_c, 1, 58, 0
1, 263795, Note_off_c, 1, 65, 0
1, 263795, Note_off_c, 1, 76, 0
1, 263800, Note_on_c, 1, 55, 127
1, 263800, Note_on_c, 1, 70, 127
1, 264187, Note_off_c, 1, 55, 0
1, 264187, Note_off_c, 1, 70, 0
1, 264192, Note_on_c, 1, 77, 127
1, 264192, Note_on_c, 1, 69, 127
1, 264192, Note_on_c, 1, 57, 127
1, 264259, Note_off_c, 1, 77, 0
1, 264578, Note_off_c, 1, 62, 0
1, 264578, Note_off_c, 1, 69, 0
1, 264582, Note_on_c, 1, 61, 127
1, 264582, Note_on_c, 1, 67, 127
1, 264969, Note_off_c, 1, 61, 0
1, 264970, Note_off_c, 1, 57, 0
1, 264974, Note_on_c, 1, 50, 127
1, 265361, Note_off_c, 1, 67, 0
1, 265361, Note_off_c, 1, 50, 0
1, 265562, Note_on_c, 1, 49, 127
1, 265562, Note_on_c, 1, 64, 127
1, 265753, Note_off_c, 1, 49, 0
1, 265753, Note_off_c, 1, 64, 0
1, 266150, Note_on_c, 1, 52, 127
1, 266537, Note_off_c, 1, 52, 0
1, 266541, Note_on_c, 1, 53, 127
1, 266928, Note_off_c, 1, 53, 0
1, 267129, Note_on_c, 1, 56, 127
1, 267320, Note_off_c, 1, 56, 0
1, 267325, Note_on_c, 1, 54, 127
1, 267325, Note_on_c, 1, 57, 127
1, 267712, Note_off_c, 1, 54, 0
1, 267712, Note_off_c, 1, 57, 0
1, 267717, Note_on_c, 1, 56, 127
1, 267717, Note_on_c, 1, 59, 127
1, 268104, Note_off_c, 1, 56, 0
1, 268104, Note_off_c, 1, 59, 0
1, 268109, Note_on_c, 1, 57, 127
1, 268109, Note_on_c, 1, 60, 127
1, 268300, Note_off_c, 1, 57, 0
1, 268305, Note_on_c, 1, 56, 127
1, 268496, Note_off_c, 1, 60, 0
1, 268496, Note_off_c, 1, 56, 0
1, 268501, Note_on_c, 1, 54, 127
1, 268501, Note_on_c, 1, 60, 127
1, 268692, Note_off_c, 1, 54, 0
1, 268692, Note_off_c, 1, 60, 0
1, 268697, Note_on_c, 1, 56, 127
1, 268697, Note_on_c, 1, 59, 127
1, 268888, Note_off_c, 1, 56, 0
1, 268888, Note_off_c, 1, 59, 0
1, 268893, Note_on_c, 1, 57, 127
1, 268893, Note_on_c, 1, 60, 127
1, 269280, Note_off_c, 1, 57, 0
1, 269280, Note_off_c, 1, 60, 0
1, 269285, Note_on_c, 1, 59, 127
1, 269285, Note_on_c, 1, 62, 127
1, 269672, Note_off_c, 1, 59, 0
1, 269672, Note_off_c, 1, 62, 0
1, 269677, Note_on_c, 1, 64, 127
1, 269677, Note_on_c, 1, 48, 127
1, 269868, Note_off_c, 1, 64, 0
1, 269873, Note_on_c, 1, 62, 127
1, 270043, Note_off_c, 1, 48, 0
1, 270064, Note_off_c, 1, 62, 0
1, 270069, Note_on_c, 1, 60, 127
1, 270069, Note_on_c, 1, 45, 127
1, 270260, Note_off_c, 1, 60, 0
1, 270265, Note_on_c, 1, 62, 127
1, 270456, Note_off_c, 1, 62, 0
1, 270461, Note_on_c, 1, 64, 127
1, 270640, Note_off_c, 1, 45, 0
1, 270848, Note_off_c, 1, 64, 0
1, 270853, Note_on_c, 1, 50, 127
1, 270853, Note_on_c, 1, 65, 127
1, 271240, Note_off_c, 1, 50, 0
1, 271240, Note_off_c, 1, 65, 0
1, 271245, Note_on_c, 1, 52, 127
1, 271245, Note_on_c, 1, 56, 127
1, 271436, Note_off_c, 1, 52, 0
1, 271441, Note_on_c, 1, 53, 127
1, 271632, Note_off_c, 1, 56, 0
1, 271632, Note_off_c, 1, 53, 0
1, 271637, Note_on_c, 1, 52, 127
1, 271637, Note_on_c, 1, 50, 127
1, 271827, Note_off_c, 1, 52, 0
1, 271828, Note_off_c, 1, 50, 0
1, 271833, Note_on_c, 1, 52, 127
1, 272029, Note_on_c, 1, 53, 127
1, 272220, Note_off_c, 1, 53, 0
1, 272225, Note_on_c, 1, 55, 127
1, 272404, Note_off_c, 1, 52, 0
1, 272416, Note_off_c, 1, 55, 0
1, 272421, Note_on_c, 1, 52, 127
1, 272421, Note_on_c, 1, 57, 127
1, 272612, Note_off_c, 1, 52, 0
1, 272617, Note_on_c, 1, 54, 127
1, 272808, Note_off_c, 1, 57, 0
1, 272808, Note_off_c, 1, 54, 0
1, 272813, Note_on_c, 1, 59, 127
1, 272813, Note_on_c, 1, 55, 127
1, 273004, Note_off_c, 1, 59, 0
1, 273009, Note_on_c, 1, 60, 127
1, 273200, Note_off_c, 1, 55, 0
1, 273200, Note_off_c, 1, 60, 0
1, 273205, Note_on_c, 1, 57, 127
1, 273205, Note_on_c, 1, 53, 127
1, 273396, Note_off_c, 1, 57, 0
1, 273401, Note_on_c, 1, 59, 127
1, 273592, Note_off_c, 1, 53, 0
1, 273592, Note_off_c, 1, 59, 0
1, 273597, Note_on_c, 1, 60, 127
1, 273597, Note_on_c, 1, 52, 127
1, 273788, Note_off_c, 1, 60, 0
1, 273793, Note_on_c, 1, 62, 127
1, 273984, Note_off_c, 1, 52, 0
1, 273984, Note_off_c, 1, 62, 0
1, 273989, Note_on_c, 1, 59, 127
1, 273989, Note_on_c, 1, 57, 127
1, 274180, Note_off_c, 1, 59, 0
1, 274185, Note_on_c, 1, 61, 127
1, 274376, Note_off_c, 1, 57, 0
1, 274376, Note_off_c, 1, 61, 0
1, 274381, Note_on_c, 1, 50, 127
1, 274381, Note_on_c, 1, 62, 127
1, 274759, Note_off_c, 1, 50, 0
1, 274759, Note_off_c, 1, 62, 0
1, 274773, Note_on_c, 1, 76, 127
1, 274773, Note_on_c, 1, 60, 127
1, 274773, Note_on_c, 1, 57, 127
1, 274964, Note_off_c, 1, 76, 0
1, 274969, Note_on_c, 1, 77, 127
1, 275160, Note_off_c, 1, 60, 0
1, 275160, Note_off_c, 1, 77, 0
1, 275165, Note_on_c, 1, 59, 127
1, 275356, Note_off_c, 1, 57, 0
1, 275361, Note_on_c, 1, 56, 127
1, 275552, Note_off_c, 1, 59, 0
1, 275552, Note_off_c, 1, 56, 0
1, 275557, Note_on_c, 1, 57, 127
1, 275557, Note_on_c, 1, 64, 127
1, 275557, Note_on_c, 1, 74, 127
1, 275748, Note_off_c, 1, 57, 0
1, 275753, Note_on_c, 1, 56, 127
1, 275944, Note_off_c, 1, 64, 0
1, 275944, Note_off_c, 1, 74, 0
1, 275944, Note_off_c, 1, 56, 0
1, 275949, Note_on_c, 1, 72, 127
1, 275949, Note_on_c, 1, 69, 127
1, 275949, Note_on_c, 1, 57, 127
1, 276336, Note_off_c, 1, 72, 0
1, 276336, Note_off_c, 1, 69, 0
1, 276537, Note_on_c, 1, 71, 127
1, 276537, Note_on_c, 1, 74, 127
1, 276728, Note_off_c, 1, 71, 0
1, 276728, Note_off_c, 1, 74, 0
1, 276924, Note_off_c, 1, 57, 0
1, 276929, Note_on_c, 1, 55, 127
1, 277120, Note_off_c, 1, 55, 0
1, 277125, Note_on_c, 1, 53, 127
1, 277125, Note_on_c, 1, 67, 127
1, 277125, Note_on_c, 1, 70, 127
1, 277316, Note_off_c, 1, 53, 0
1, 277321, Note_on_c, 1, 52, 127
1, 277512, Note_off_c, 1, 67, 0
1, 277512, Note_off_c, 1, 70, 0
1, 277512, Note_off_c, 1, 52, 0
1, 277517, Note_on_c, 1, 69, 127
1, 277517, Note_on_c, 1, 65, 127
1, 277517, Note_on_c, 1, 53, 127
1, 277708, Note_off_c, 1, 69, 0
1, 277713, Note_on_c, 1, 70, 127
1, 277904, Note_off_c, 1, 65, 0
1, 277904, Note_off_c, 1, 70, 0
1, 277909, Note_on_c, 1, 57, 127
1, 277909, Note_on_c, 1, 72, 127
1, 278100, Note_off_c, 1, 57, 0
1, 278100, Note_off_c, 1, 72, 0
1, 278105, Note_on_c, 1, 58, 127
1, 278105, Note_on_c, 1, 67, 127
1, 278296, Note_off_c, 1, 58, 0
1, 278296, Note_off_c, 1, 67, 0
1, 278301, Note_on_c, 1, 60, 127
1, 278492, Note_off_c, 1, 53, 0
1, 278497, Note_on_c, 1, 52, 127
1, 278688, Note_off_c, 1, 60, 0
1, 278688, Note_off_c, 1, 52, 0
1, 278693, Note_on_c, 1, 50, 127
1, 278693, Note_on_c, 1, 58, 127
1, 278693, Note_on_c, 1, 64, 127
1, 278693, Note_on_c, 1, 67, 127
1, 278884, Note_off_c, 1, 50, 0
1, 278889, Note_on_c, 1, 49, 127
1, 279080, Note_off_c, 1, 58, 0
1, 279080, Note_off_c, 1, 64, 0
1, 279080, Note_off_c, 1, 67, 0
1, 279080, Note_off_c, 1, 49, 0
1, 279085, Note_on_c, 1, 62, 127
1, 279085, Note_on_c, 1, 50, 127
1, 279085, Note_on_c, 1, 57, 127
1, 279085, Note_on_c, 1, 77, 127
1, 279276, Note_off_c, 1, 62, 0
1, 279281, Note_on_c, 1, 64, 127
1, 279472, Note_off_c, 1, 50, 0
1, 279472, Note_off_c, 1, 57, 0
1, 279472, Note_off_c, 1, 77, 0
1, 279472, Note_off_c, 1, 64, 0
1, 279477, Note_on_c, 1, 65, 127
1, 279477, Note_on_c, 1, 62, 127
1, 279477, Note_on_c, 1, 81, 127
1, 279668, Note_off_c, 1, 65, 0
1, 279673, Note_on_c, 1, 64, 127
1, 279864, Note_off_c, 1, 62, 0
1, 279864, Note_off_c, 1, 64, 0
1, 280048, Note_off_c, 1, 81, 0
1, 280065, Note_on_c, 1, 67, 127
1, 280256, Note_off_c, 1, 67, 0
1, 280261, Note_on_c, 1, 61, 127
1, 280261, Note_on_c, 1, 76, 127
1, 280261, Note_on_c, 1, 69, 127
1, 280648, Note_off_c, 1, 61, 0
1, 280648, Note_off_c, 1, 76, 0
1, 280653, Note_on_c, 1, 74, 127
1, 280653, Note_on_c, 1, 70, 127
1, 280844, Note_off_c, 1, 74, 0
1, 280849, Note_on_c, 1, 73, 127
1, 281040, Note_off_c, 1, 69, 0
1, 281040, Note_off_c, 1, 70, 0
1, 281040, Note_off_c, 1, 73, 0
1, 281045, Note_on_c, 1, 74, 127
1, 281045, Note_on_c, 1, 76, 127
1, 281045, Note_on_c, 1, 67, 127
1, 281235, Note_off_c, 1, 74, 0
1, 281236, Note_off_c, 1, 76, 0
1, 281437, Note_on_c, 1, 73, 127
1, 281628, Note_off_c, 1, 73, 0
1, 281633, Note_on_c, 1, 71, 127
1, 281824, Note_off_c, 1, 67, 0
1, 281824, Note_off_c, 1, 71, 0
1, 281829, Note_on_c, 1, 74, 127
1, 281829, Note_on_c, 1, 69, 127
1, 281829, Note_on_c, 1, 65, 127
1, 282020, Note_off_c, 1, 74, 0
1, 282025, Note_on_c, 1, 72, 127
1, 282216, Note_off_c, 1, 69, 0
1, 282216, Note_off_c, 1, 72, 0
1, 282221, Note_on_c, 1, 67, 127
1, 282221, Note_on_c, 1, 71, 127
1, 282400, Note_off_c, 1, 65, 0
1, 282412, Note_off_c, 1, 67, 0
1, 282608, Note_off_c, 1, 71, 0
1, 282613, Note_on_c, 1, 69, 127
1, 282613, Note_on_c, 1, 64, 127
1, 282613, Note_on_c, 1, 73, 127
1, 282804, Note_off_c, 1, 69, 0
1, 282809, Note_on_c, 1, 67, 127
1, 283000, Note_off_c, 1, 64, 0
1, 283000, Note_off_c, 1, 73, 0
1, 283000, Note_off_c, 1, 67, 0
1, 283005, Note_on_c, 1, 65, 127
1, 283005, Note_on_c, 1, 74, 127
1, 283005, Note_on_c, 1, 62, 127
1, 283196, Note_off_c, 1, 65, 0
1, 283201, Note_on_c, 1, 64, 127
1, 283392, Note_off_c, 1, 74, 0
1, 283392, Note_off_c, 1, 64, 0
1, 283397, Note_on_c, 1, 67, 127
1, 283397, Note_on_c, 1, 69, 127
1, 283588, Note_off_c, 1, 67, 0
1, 283780, Note_off_c, 1, 62, 0
1, 283784, Note_off_c, 1, 69, 0
1, 283789, Note_on_c, 1, 64, 127
1, 283789, Note_on_c, 1, 76, 127
1, 283985, Note_on_c, 1, 61, 127
1, 284176, Note_off_c, 1, 64, 0
1, 284176, Note_off_c, 1, 61, 0
1, 284181, Note_on_c, 1, 65, 127
1, 284377, Note_on_c, 1, 62, 127
1, 284568, Note_off_c, 1, 65, 0
1, 284568, Note_off_c, 1, 62, 0
1, 284573, Note_on_c, 1, 67, 127
1, 284769, Note_on_c, 1, 59, 127
1, 284960, Note_off_c, 1, 59, 0
1, 285352, Note_off_c, 1, 67, 0
1, 285548, Note_off_c, 1, 76, 0
1, 285553, Note_on_c, 1, 73, 127
1, 285744, Note_off_c, 1, 73, 0
1, 285749, Note_on_c, 1, 74, 127
1, 285940, Note_off_c, 1, 74, 0
1, 285945, Note_on_c, 1, 77, 127
1, 286136, Note_off_c, 1, 77, 0
1, 286141, Note_on_c, 1, 79, 127
1, 286533, Note_on_c, 1, 69, 127
1, 287116, Note_off_c, 1, 79, 0
1, 287116, Note_off_c, 1, 69, 0
1, 287513, Note_on_c, 1, 81, 127
1, 287704, Note_off_c, 1, 81, 0
1, 287709, Note_on_c, 1, 82, 127
1, 288101, Note_on_c, 1, 72, 127
1, 288684, Note_off_c, 1, 82, 0
1, 288684, Note_off_c, 1, 72, 0
1, 289081, Note_on_c, 1, 84, 127
1, 289272, Note_off_c, 1, 84, 0
1, 289277, Note_on_c, 1, 70, 127
1, 289664, Note_off_c, 1, 70, 0
1, 289669, Note_on_c, 1, 67, 127
1, 289669, Note_on_c, 1, 76, 127
1, 289860, Note_off_c, 1, 67, 0
1, 289860, Note_off_c, 1, 76, 0
1, 289865, Note_on_c, 1, 79, 127
1, 289865, Note_on_c, 1, 70, 127
1, 290056, Note_off_c, 1, 79, 0
1, 290061, Note_on_c, 1, 64, 127
1, 290061, Note_on_c, 1, 72, 127
1, 290252, Note_off_c, 1, 70, 0
1, 290257, Note_on_c, 1, 67, 127
1, 290448, Note_off_c, 1, 64, 0
1, 290448, Note_off_c, 1, 67, 0
1, 290453, Note_on_c, 1, 69, 127
1, 290453, Note_on_c, 1, 65, 127
1, 290632, Note_off_c, 1, 72, 0
1, 290644, Note_off_c, 1, 69, 0
1, 290840, Note_off_c, 1, 65, 0
1, 290845, Note_on_c, 1, 58, 127
1, 290845, Note_on_c, 1, 62, 127
1, 291624, Note_off_c, 1, 58, 0
1, 291624, Note_off_c, 1, 62, 0
1, 291629, Note_on_c, 1, 60, 127
1, 292021, Note_on_c, 1, 48, 127
1, 292212, Note_off_c, 1, 48, 0
1, 292217, Note_on_c, 1, 50, 127
1, 292408, Note_off_c, 1, 50, 0
1, 292803, Note_on_c, 1, 46, 127
1, 293190, Note_off_c, 1, 46, 0
1, 293195, Note_on_c, 1, 45, 127
1, 293582, Note_off_c, 1, 45, 0
1, 293583, Note_off_c, 1, 60, 0
1, 293587, Note_on_c, 1, 52, 127
1, 293783, Note_on_c, 1, 74, 127
1, 293974, Note_off_c, 1, 52, 0
1, 293974, Note_off_c, 1, 74, 0
1, 293979, Note_on_c, 1, 53, 127
1, 294366, Note_off_c, 1, 53, 0
1, 294371, Note_on_c, 1, 43, 127
1, 294758, Note_off_c, 1, 43, 0
1, 294763, Note_on_c, 1, 41, 127
1, 294763, Note_on_c, 1, 53, 127
1, 294763, Note_on_c, 1, 69, 127
1, 294763, Note_on_c, 1, 72, 127
1, 294954, Note_off_c, 1, 41, 0
1, 294959, Note_on_c, 1, 43, 127
1, 295150, Note_off_c, 1, 53, 0
1, 295150, Note_off_c, 1, 69, 0
1, 295150, Note_off_c, 1, 43, 0
1, 295155, Note_on_c, 1, 45, 127
1, 295155, Note_on_c, 1, 52, 127
1, 295346, Note_off_c, 1, 45, 0
1, 295351, Note_on_c, 1, 70, 127
1, 295542, Note_off_c, 1, 52, 0
1, 295542, Note_off_c, 1, 70, 0
1, 295936, Note_off_c, 1, 72, 0
1, 295938, Note_on_c, 1, 39, 127
1, 295938, Note_on_c, 1, 67, 127
1, 295938, Note_on_c, 1, 72, 127
1, 296325, Note_off_c, 1, 39, 0
1, 296325, Note_off_c, 1, 67, 0
1, 296330, Note_on_c, 1, 57, 127
1, 296330, Note_on_c, 1, 66, 127
1, 296330, Note_on_c, 1, 50, 127
1, 296521, Note_off_c, 1, 57, 0
1, 296521, Note_off_c, 1, 66, 0
1, 296526, Note_on_c, 1, 55, 127
1, 296717, Note_off_c, 1, 50, 0
1, 296717, Note_off_c, 1, 55, 0
1, 296722, Note_on_c, 1, 54, 127
1, 296722, Note_on_c, 1, 69, 127
1, 296913, Note_off_c, 1, 54, 0
1, 296913, Note_off_c, 1, 69, 0
1, 297310, Note_on_c, 1, 58, 127
1, 297501, Note_off_c, 1, 58, 0
1, 297506, Note_on_c, 1, 60, 127
1, 297506, Note_on_c, 1, 48, 127
1, 297506, Note_on_c, 1, 63, 127
1, 297893, Note_off_c, 1, 60, 0
1, 297893, Note_off_c, 1, 48, 0
1, 297893, Note_off_c, 1, 63, 0
1, 297898, Note_on_c, 1, 46, 127
1, 297898, Note_on_c, 1, 74, 127
1, 298089, Note_off_c, 1, 46, 0
1, 298094, Note_on_c, 1, 45, 127
1, 298285, Note_off_c, 1, 72, 0
1, 298285, Note_off_c, 1, 74, 0
1, 298285, Note_off_c, 1, 45, 0
1, 298290, Note_on_c, 1, 48, 127
1, 298290, Note_on_c, 1, 57, 127
1, 298290, Note_on_c, 1, 69, 127
1, 298290, Note_on_c, 1, 78, 127
1, 298481, Note_off_c, 1, 48, 0
1, 298486, Note_on_c, 1, 46, 127
1, 298677, Note_off_c, 1, 57, 0
1, 298677, Note_off_c, 1, 69, 0
1, 298677, Note_off_c, 1, 46, 0
1, 298682, Note_on_c, 1, 45, 127
1, 298682, Note_on_c, 1, 55, 127
1, 298682, Note_on_c, 1, 75, 127
1, 298861, Note_off_c, 1, 78, 0
1, 298873, Note_off_c, 1, 45, 0
1, 298878, Note_on_c, 1, 43, 127
1, 299069, Note_off_c, 1, 55, 0
1, 299069, Note_off_c, 1, 43, 0
1, 299074, Note_on_c, 1, 54, 127
1, 299074, Note_on_c, 1, 72, 127
1, 299461, Note_off_c, 1, 54, 0
1, 299461, Note_off_c, 1, 72, 0
1, 299466, Note_on_c, 1, 70, 127
1, 299657, Note_off_c, 1, 70, 0
1, 299853, Note_off_c, 1, 75, 0
1, 299858, Note_on_c, 1, 53, 127
1, 299858, Note_on_c, 1, 74, 127
1, 300245, Note_off_c, 1, 53, 0
1, 300245, Note_off_c, 1, 74, 0
1, 300250, Note_on_c, 1, 51, 127
1, 300446, Note_on_c, 1, 67, 127
1, 300637, Note_off_c, 1, 51, 0
1, 300637, Note_off_c, 1, 67, 0
1, 300642, Note_on_c, 1, 70, 127
1, 300642, Note_on_c, 1, 74, 127
1, 300642, Note_on_c, 1, 42, 127
1, 300642, Note_on_c, 1, 50, 127
1, 300833, Note_off_c, 1, 70, 0
1, 300833, Note_off_c, 1, 74, 0
1, 300838, Note_on_c, 1, 72, 127
1, 300838, Note_on_c, 1, 69, 127
1, 301029, Note_off_c, 1, 42, 0
1, 301029, Note_off_c, 1, 72, 0
1, 301037, Note_off_c, 1, 69, 0
1, 301042, Note_on_c, 1, 67, 127
1, 301042, Note_on_c, 1, 43, 127
1, 301427, Note_off_c, 1, 50, 0
1, 301440, Note_on_c, 1, 55, 127
1, 301634, Note_off_c, 1, 55, 0
1, 301638, Note_on_c, 1, 57, 127
1, 301832, Note_off_c, 1, 57, 0
1, 302036, Note_off_c, 1, 67, 0
1, 302235, Note_on_c, 1, 53, 127
1, 302434, Note_on_c, 1, 65, 127
1, 302628, Note_off_c, 1, 53, 0
1, 302628, Note_off_c, 1, 65, 0
1, 302632, Note_on_c, 1, 52, 127
1, 303025, Note_off_c, 1, 52, 0
1, 303825, Note_on_c, 1, 64, 127
1, 304019, Note_off_c, 1, 64, 0
1, 304024, Note_on_c, 1, 62, 127
1, 304218, Note_off_c, 1, 43, 0
1, 304218, Note_off_c, 1, 62, 0
1, 304221, Note_on_c, 1, 49, 127
1, 304221, Note_on_c, 1, 43, 127
1, 304221, Note_on_c, 1, 76, 127
1, 304415, Note_off_c, 1, 49, 0
1, 304420, Note_on_c, 1, 50, 127
1, 304614, Note_off_c, 1, 50, 0
1, 304619, Note_on_c, 1, 52, 127
1, 304619, Note_on_c, 1, 69, 127
1, 304813, Note_off_c, 1, 52, 0
1, 304813, Note_off_c, 1, 69, 0
1, 304818, Note_on_c, 1, 67, 127
1, 305012, Note_off_c, 1, 67, 0
1, 305416, Note_on_c, 1, 47, 127
1, 305416, Note_on_c, 1, 71, 127
1, 305810, Note_off_c, 1, 47, 0
1, 305810, Note_off_c, 1, 71, 0
1, 305815, Note_on_c, 1, 57, 127
1, 305815, Note_on_c, 1, 73, 127
1, 306209, Note_off_c, 1, 43, 0
1, 306209, Note_off_c, 1, 76, 0
1, 306209, Note_off_c, 1, 57, 0
1, 306209, Note_off_c, 1, 73, 0
1, 306214, Note_on_c, 1, 52, 127
1, 306214, Note_on_c, 1, 73, 127
1, 306214, Note_on_c, 1, 76, 127
1, 306214, Note_on_c, 1, 61, 127
1, 306408, Note_off_c, 1, 52, 0
1, 306408, Note_off_c, 1, 73, 0
1, 306408, Note_off_c, 1, 76, 0
1, 306412, Note_on_c, 1, 53, 127
1, 306412, Note_on_c, 1, 71, 127
1, 306412, Note_on_c, 1, 74, 127
1, 306606, Note_off_c, 1, 53, 0
1, 306606, Note_off_c, 1, 71, 0
1, 306606, Note_off_c, 1, 74, 0
1, 306607, Note_off_c, 1, 61, 0
1, 306611, Note_on_c, 1, 55, 127
1, 306611, Note_on_c, 1, 73, 127
1, 306611, Note_on_c, 1, 76, 127
1, 306805, Note_off_c, 1, 55, 0
1, 306810, Note_on_c, 1, 53, 127
1, 307004, Note_off_c, 1, 73, 0
1, 307004, Note_off_c, 1, 76, 0
1, 307004, Note_off_c, 1, 53, 0
1, 307009, Note_on_c, 1, 52, 127
1, 307009, Note_on_c, 1, 74, 127
1, 307009, Note_on_c, 1, 69, 127
1, 307009, Note_on_c, 1, 77, 127
1, 307203, Note_off_c, 1, 52, 0
1, 307208, Note_on_c, 1, 50, 127
1, 307402, Note_off_c, 1, 74, 0
1, 307402, Note_off_c, 1, 69, 0
1, 307402, Note_off_c, 1, 77, 0
1, 307402, Note_off_c, 1, 50, 0
1, 307406, Note_on_c, 1, 76, 127
1, 307406, Note_on_c, 1, 49, 127
1, 307406, Note_on_c, 1, 79, 127
1, 307406, Note_on_c, 1, 70, 127
1, 307600, Note_off_c, 1, 76, 0
1, 307605, Note_on_c, 1, 74, 127
1, 307799, Note_off_c, 1, 49, 0
1, 307799, Note_off_c, 1, 79, 0
1, 307799, Note_off_c, 1, 74, 0
1, 307804, Note_on_c, 1, 73, 127
1, 307998, Note_off_c, 1, 70, 0
1, 307998, Note_off_c, 1, 73, 0
1, 308003, Note_on_c, 1, 69, 127
1, 308003, Note_on_c, 1, 74, 127
1, 308003, Note_on_c, 1, 77, 127
1, 308197, Note_off_c, 1, 69, 0
1, 308197, Note_off_c, 1, 74, 0
1, 308197, Note_off_c, 1, 77, 0
1, 308202, Note_on_c, 1, 67, 127
1, 308202, Note_on_c, 1, 76, 127
1, 308202, Note_on_c, 1, 79, 127
1, 308396, Note_off_c, 1, 67, 0
1, 308400, Note_on_c, 1, 65, 127
1, 308594, Note_off_c, 1, 65, 0
1, 308595, Note_off_c, 1, 76, 0
1, 308595, Note_off_c, 1, 79, 0
1, 308599, Note_on_c, 1, 64, 127
1, 308599, Note_on_c, 1, 77, 127
1, 308599, Note_on_c, 1, 81, 127
1, 308793, Note_off_c, 1, 64, 0
1, 308798, Note_on_c, 1, 62, 127
1, 308992, Note_off_c, 1, 77, 0
1, 308992, Note_off_c, 1, 81, 0
1, 308992, Note_off_c, 1, 62, 0
1, 308997, Note_on_c, 1, 82, 127
1, 308997, Note_on_c, 1, 67, 127
1, 308997, Note_on_c, 1, 61, 127
1, 309191, Note_off_c, 1, 82, 0
1, 309196, Note_on_c, 1, 81, 127
1, 309390, Note_off_c, 1, 67, 0
1, 309390, Note_off_c, 1, 81, 0
1, 309394, Note_on_c, 1, 79, 127
1, 309394, Note_on_c, 1, 64, 127
1, 309588, Note_off_c, 1, 79, 0
1, 309783, Note_off_c, 1, 61, 0
1, 310185, Note_off_c, 1, 64, 0
1, 310190, Note_on_c, 1, 81, 127
1, 310190, Note_on_c, 1, 61, 127
1, 310190, Note_on_c, 1, 57, 127
1, 310190, Note_on_c, 1, 69, 127
1, 310384, Note_off_c, 1, 81, 0
1, 310388, Note_on_c, 1, 76, 127
1, 310582, Note_off_c, 1, 76, 0
1, 310583, Note_off_c, 1, 61, 0
1, 310583, Note_off_c, 1, 57, 0
1, 310583, Note_off_c, 1, 69, 0
1, 310587, Note_on_c, 1, 77, 127
1, 310587, Note_on_c, 1, 62, 127
1, 310587, Note_on_c, 1, 69, 127
1, 310587, Note_on_c, 1, 50, 127
1, 310781, Note_off_c, 1, 77, 0
1, 310786, Note_on_c, 1, 76, 127
1, 310980, Note_off_c, 1, 62, 0
1, 310980, Note_off_c, 1, 69, 0
1, 310980, Note_off_c, 1, 76, 0
1, 310985, Note_on_c, 1, 65, 127
1, 310985, Note_on_c, 1, 74, 127
1, 311378, Note_off_c, 1, 65, 0
1, 311378, Note_off_c, 1, 74, 0
1, 311780, Note_on_c, 1, 57, 127
1, 311780, Note_on_c, 1, 67, 127
1, 311979, Note_on_c, 1, 73, 127
1, 312173, Note_off_c, 1, 50, 0
1, 312173, Note_off_c, 1, 57, 0
1, 312173, Note_off_c, 1, 67, 0
1, 312173, Note_off_c, 1, 73, 0
1, 312178, Note_on_c, 1, 74, 127
1, 312178, Note_on_c, 1, 58, 127
1, 312178, Note_on_c, 1, 65, 127
1, 312178, Note_on_c, 1, 50, 127
1, 312372, Note_off_c, 1, 74, 0
1, 312376, Note_on_c, 1, 72, 127
1, 312570, Note_off_c, 1, 72, 0
1, 312571, Note_off_c, 1, 58, 0
1, 312571, Note_off_c, 1, 65, 0
1, 312575, Note_on_c, 1, 70, 127
1, 312575, Note_on_c, 1, 53, 127
1, 312575, Note_on_c, 1, 62, 127
1, 312769, Note_off_c, 1, 70, 0
1, 312968, Note_off_c, 1, 53, 0
1, 312968, Note_off_c, 1, 62, 0
1, 313569, Note_on_c, 1, 69, 127
1, 313764, Note_off_c, 1, 50, 0
1, 313768, Note_on_c, 1, 59, 127
1, 313768, Note_on_c, 1, 64, 127
1, 313801, Note_off_c, 1, 69, 0
1, 313837, Note_on_c, 1, 71, 127
1, 313905, Note_on_c, 1, 76, 127
1, 313975, Note_on_c, 1, 80, 127
1, 314979, Note_off_c, 1, 59, 0
1, 314979, Note_off_c, 1, 64, 0
1, 314990, Note_off_c, 1, 80, 0
1, 315023, Note_off_c, 1, 76, 0
1, 315049, Note_off_c, 1, 71, 0
1, 315386, Note_on_c, 1, 51, 127
1, 315386, Note_on_c, 1, 57, 127
1, 315386, Note_on_c, 1, 60, 127
1, 315386, Note_on_c, 1, 81, 127
1, 315792, Note_on_c, 1, 69, 127
1, 315990, Note_off_c, 1, 69, 0
1, 315995, Note_on_c, 1, 68, 127
1, 316193, Note_off_c, 1, 68, 0
1, 316401, Note_off_c, 1, 51, 0
1, 316401, Note_off_c, 1, 57, 0
1, 316401, Note_off_c, 1, 60, 0
1, 316604, Note_on_c, 1, 71, 127
1, 317005, Note_off_c, 1, 71, 0
1, 317010, Note_on_c, 1, 72, 127
1, 317010, Note_on_c, 1, 52, 127
1, 317411, Note_off_c, 1, 81, 0
1, 317411, Note_off_c, 1, 72, 0
1, 317416, Note_on_c, 1, 76, 127
1, 317614, Note_off_c, 1, 76, 0
1, 317619, Note_on_c, 1, 74, 127
1, 317817, Note_off_c, 1, 74, 0
1, 318025, Note_off_c, 1, 52, 0
1, 318228, Note_on_c, 1, 74, 127
1, 318228, Note_on_c, 1, 78, 127
1, 318629, Note_off_c, 1, 74, 0
1, 318629, Note_off_c, 1, 78, 0
1, 318634, Note_on_c, 1, 76, 127
1, 318634, Note_on_c, 1, 80, 127
1, 318634, Note_on_c, 1, 59, 127
1, 318634, Note_on_c, 1, 52, 127
1, 318634, Note_on_c, 1, 62, 127
1, 318832, Note_off_c, 1, 76, 0
1, 318837, Note_on_c, 1, 74, 127
1, 319035, Note_off_c, 1, 80, 0
1, 319035, Note_off_c, 1, 74, 0
1, 319040, Note_on_c, 1, 72, 127
1, 319238, Note_off_c, 1, 72, 0
1, 319243, Note_on_c, 1, 78, 127
1, 319441, Note_off_c, 1, 78, 0
1, 319850, Note_off_c, 1, 59, 0
1, 319850, Note_off_c, 1, 52, 0
1, 319850, Note_off_c, 1, 62, 0
1, 319854, Note_on_c, 1, 77, 127
1, 319854, Note_on_c, 1, 81, 127
1, 320255, Note_off_c, 1, 77, 0
1, 320255, Note_off_c, 1, 81, 0
1, 320260, Note_on_c, 1, 83, 127
1, 320260, Note_on_c, 1, 68, 127
1, 320458, Note_off_c, 1, 83, 0
1, 320463, Note_on_c, 1, 81, 127
1, 320661, Note_off_c, 1, 68, 0
1, 320661, Note_off_c, 1, 81, 0
1, 320666, Note_on_c, 1, 59, 127
1, 320666, Note_on_c, 1, 80, 127
1, 320666, Note_on_c, 1, 64, 127
1, 320864, Note_off_c, 1, 59, 0
1, 320864, Note_off_c, 1, 80, 0
1, 320869, Note_on_c, 1, 60, 127
1, 320869, Note_on_c, 1, 81, 127
1, 321067, Note_off_c, 1, 60, 0
1, 321067, Note_off_c, 1, 81, 0
1, 321072, Note_on_c, 1, 62, 127
1, 321072, Note_on_c, 1, 83, 127
1, 321258, Note_off_c, 1, 64, 0
1, 321270, Note_off_c, 1, 62, 0
1, 321473, Note_off_c, 1, 83, 0
1, 321478, Note_on_c, 1, 66, 127
1, 321478, Note_on_c, 1, 69, 127
1, 321478, Note_on_c, 1, 84, 127
1, 321676, Note_off_c, 1, 66, 0
1, 321681, Note_on_c, 1, 68, 127
1, 321879, Note_off_c, 1, 69, 0
1, 321879, Note_off_c, 1, 84, 0
1, 321879, Note_off_c, 1, 68, 0
1, 321884, Note_on_c, 1, 69, 127
1, 321884, Note_on_c, 1, 66, 127
1, 321884, Note_on_c, 1, 54, 127
1, 321884, Note_on_c, 1, 57, 127
1, 321884, Note_on_c, 1, 71, 127
1, 321884, Note_on_c, 1, 75, 127
1, 322915, Note_off_c, 1, 69, 0
1, 322915, Note_off_c, 1, 66, 0
1, 322915, Note_off_c, 1, 54, 0
1, 322915, Note_off_c, 1, 57, 0
1, 322915, Note_off_c, 1, 71, 0
1, 322915, Note_off_c, 1, 75, 0
1, 323121, Note_on_c, 1, 56, 127
1, 323121, Note_on_c, 1, 59, 127
1, 323121, Note_on_c, 1, 71, 127
1, 323121, Note_on_c, 1, 76, 127
1, 323529, Note_off_c, 1, 56, 0
1, 323529, Note_off_c, 1, 59, 0
1, 323529, Note_off_c, 1, 71, 0
1, 323529, Note_off_c, 1, 76, 0
1, 323534, Note_on_c, 1, 74, 127
1, 323534, Note_on_c, 1, 60, 127
1, 323534, Note_on_c, 1, 57, 127
1, 323534, Note_on_c, 1, 69, 127
1, 323534, Note_on_c, 1, 64, 127
1, 323734, Note_off_c, 1, 74, 0
1, 323742, Note_on_c, 1, 72, 127
1, 323942, Note_off_c, 1, 72, 0
1, 323944, Note_off_c, 1, 60, 0
1, 323944, Note_off_c, 1, 57, 0
1, 323944, Note_off_c, 1, 69, 0
1, 323944, Note_off_c, 1, 64, 0
1, 323949, Note_on_c, 1, 71, 127
1, 323949, Note_on_c, 1, 62, 127
1, 323949, Note_on_c, 1, 50, 127
1, 323949, Note_on_c, 1, 65, 127
1, 324150, Note_off_c, 1, 71, 0
1, 324155, Note_on_c, 1, 69, 127
1, 324356, Note_off_c, 1, 62, 0
1, 324356, Note_off_c, 1, 50, 0
1, 324356, Note_off_c, 1, 65, 0
1, 324356, Note_off_c, 1, 69, 0
1, 324360, Note_on_c, 1, 72, 127
1, 324360, Note_on_c, 1, 60, 127
1, 324360, Note_on_c, 1, 69, 127
1, 324360, Note_on_c, 1, 52, 127
1, 324561, Note_off_c, 1, 72, 0
1, 324566, Note_on_c, 1, 71, 127
1, 324767, Note_off_c, 1, 60, 0
1, 324767, Note_off_c, 1, 69, 0
1, 324767, Note_off_c, 1, 71, 0
1, 324772, Note_on_c, 1, 59, 127
1, 324772, Note_on_c, 1, 62, 127
1, 324978, Note_on_c, 1, 68, 127
1, 325179, Note_off_c, 1, 52, 0
1, 325179, Note_off_c, 1, 59, 0
1, 325179, Note_off_c, 1, 62, 0
1, 325179, Note_off_c, 1, 68, 0
1, 325184, Note_on_c, 1, 57, 127
1, 325184, Note_on_c, 1, 61, 127
1, 325184, Note_on_c, 1, 64, 127
1, 325184, Note_on_c, 1, 45, 127
1, 325184, Note_on_c, 1, 69, 127
1, 325599, Note_off_c, 1, 57, 0
1, 325814, Note_on_c, 1, 58, 127
1, 326019, Note_off_c, 1, 58, 0
1, 326439, Note_off_c, 1, 61, 0
1, 326439, Note_off_c, 1, 64, 0
1, 326444, Note_on_c, 1, 55, 127
1, 326859, Note_off_c, 1, 45, 0
1, 326859, Note_off_c, 1, 55, 0
1, 326864, Note_on_c, 1, 53, 127
1, 327277, Note_off_c, 1, 69, 0
1, 327284, Note_off_c, 1, 53, 0
1, 327499, Note_on_c, 1, 70, 127
1, 327706, Note_off_c, 1, 70, 0
1, 328135, Note_on_c, 1, 52, 127
1, 328135, Note_on_c, 1, 67, 127
1, 328555, Note_off_c, 1, 52, 0
1, 328555, Note_off_c, 1, 67, 0
1, 328559, Note_on_c, 1, 50, 127
1, 328559, Note_on_c, 1, 65, 127
1, 328559, Note_on_c, 1, 45, 127
1, 328769, Note_off_c, 1, 50, 0
1, 328773, Note_on_c, 1, 52, 127
1, 328983, Note_off_c, 1, 65, 0
1, 328983, Note_off_c, 1, 52, 0
1, 328987, Note_on_c, 1, 53, 127
1, 328987, Note_on_c, 1, 74, 127
1, 329197, Note_off_c, 1, 53, 0
1, 329197, Note_off_c, 1, 74, 0
1, 329202, Note_on_c, 1, 67, 127
1, 329202, Note_on_c, 1, 73, 127
1, 329412, Note_off_c, 1, 67, 0
1, 329412, Note_off_c, 1, 73, 0
1, 329844, Note_on_c, 1, 49, 127
1, 329844, Note_on_c, 1, 64, 127
1, 329844, Note_on_c, 1, 76, 127
1, 330268, Note_off_c, 1, 45, 0
1, 330268, Note_off_c, 1, 49, 0
1, 330268, Note_off_c, 1, 64, 0
1, 330268, Note_off_c, 1, 76, 0
1, 330273, Note_on_c, 1, 50, 127
1, 330273, Note_on_c, 1, 74, 127
1, 330273, Note_on_c, 1, 77, 127
1, 330273, Note_on_c, 1, 45, 127
1, 330700, Note_off_c, 1, 50, 0
1, 330700, Note_off_c, 1, 74, 0
1, 330700, Note_off_c, 1, 77, 0
1, 330704, Note_on_c, 1, 57, 127
1, 330704, Note_on_c, 1, 69, 127
1, 330704, Note_on_c, 1, 53, 127
1, 330915, Note_off_c, 1, 57, 0
1, 330915, Note_off_c, 1, 69, 0
1, 330919, Note_on_c, 1, 59, 127
1, 330919, Note_on_c, 1, 67, 127
1, 330919, Note_on_c, 1, 76, 127
1, 331127, Note_off_c, 1, 45, 0
1, 331130, Note_off_c, 1, 59, 0
1, 331130, Note_off_c, 1, 67, 0
1, 331130, Note_off_c, 1, 76, 0
1, 331131, Note_off_c, 1, 53, 0
1, 331135, Note_on_c, 1, 61, 127
1, 331135, Note_on_c, 1, 52, 127
1, 331135, Note_on_c, 1, 69, 127
1, 331135, Note_on_c, 1, 77, 127
1, 331562, Note_off_c, 1, 61, 0
1, 331562, Note_off_c, 1, 52, 0
1, 331562, Note_off_c, 1, 69, 0
1, 331562, Note_off_c, 1, 77, 0
1, 331566, Note_on_c, 1, 62, 127
1, 331566, Note_on_c, 1, 50, 127
1, 331566, Note_on_c, 1, 71, 127
1, 331566, Note_on_c, 1, 79, 127
1, 331993, Note_off_c, 1, 62, 0
1, 331993, Note_off_c, 1, 50, 0
1, 331993, Note_off_c, 1, 71, 0
1, 331993, Note_off_c, 1, 79, 0
1, 331997, Note_on_c, 1, 81, 127
1, 331997, Note_on_c, 1, 73, 127
1, 331997, Note_on_c, 1, 55, 127
1, 331997, Note_on_c, 1, 45, 127
1, 332004, Note_on_c, 1, 52, 127
1, 332211, Note_off_c, 1, 81, 0
1, 332216, Note_on_c, 1, 79, 127
1, 332429, Note_off_c, 1, 73, 0
1, 332430, Note_off_c, 1, 79, 0
1, 332434, Note_on_c, 1, 77, 127
1, 332648, Note_off_c, 1, 77, 0
1, 332653, Note_on_c, 1, 71, 127
1, 332867, Note_off_c, 1, 71, 0
1, 333301, Note_off_c, 1, 55, 0
1, 333306, Note_on_c, 1, 53, 127
1, 333306, Note_on_c, 1, 50, 127
1, 333306, Note_on_c, 1, 74, 127
1, 333306, Note_on_c, 1, 82, 127
1, 333308, Note_off_c, 1, 52, 0
1, 333737, Note_off_c, 1, 53, 0
1, 333737, Note_off_c, 1, 50, 0
1, 333737, Note_off_c, 1, 74, 0
1, 333737, Note_off_c, 1, 82, 0
1, 333740, Note_off_c, 1, 45, 0
1, 333743, Note_on_c, 1, 76, 127
1, 333743, Note_on_c, 1, 73, 127
1, 333743, Note_on_c, 1, 52, 127
1, 333743, Note_on_c, 1, 67, 127
1, 333743, Note_on_c, 1, 45, 127
1, 333960, Note_off_c, 1, 76, 0
1, 333964, Note_on_c, 1, 74, 127
1, 334181, Note_off_c, 1, 73, 0
1, 334181, Note_off_c, 1, 74, 0
1, 334186, Note_on_c, 1, 69, 127
1, 335067, Note_off_c, 1, 52, 0
1, 335067, Note_off_c, 1, 67, 0
1, 335068, Note_off_c, 1, 69, 0
1, 335072, Note_on_c, 1, 65, 127
1, 335072, Note_on_c, 1, 50, 127
1, 335072, Note_on_c, 1, 77, 127
1, 335289, Note_off_c, 1, 65, 0
1, 335293, Note_on_c, 1, 64, 127
1, 335510, Note_off_c, 1, 50, 0
1, 335510, Note_off_c, 1, 77, 0
1, 335510, Note_off_c, 1, 64, 0
1, 335512, Note_off_c, 1, 45, 0
1, 335516, Note_on_c, 1, 74, 127
1, 335516, Note_on_c, 1, 62, 127
1, 335516, Note_on_c, 1, 68, 127
1, 335516, Note_on_c, 1, 45, 127
1, 335516, Note_on_c, 1, 59, 127
1, 335738, Note_off_c, 1, 74, 0
1, 335742, Note_on_c, 1, 72, 127
1, 335964, Note_off_c, 1, 72, 0
1, 335969, Note_on_c, 1, 71, 127
1, 336191, Note_off_c, 1, 71, 0
1, 336654, Note_on_c, 1, 76, 127
1, 336880, Note_off_c, 1, 76, 0
1, 336881, Note_off_c, 1, 62, 0
1, 336881, Note_off_c, 1, 68, 0
1, 336883, Note_off_c, 1, 45, 0
1, 336886, Note_on_c, 1, 78, 127
1, 336886, Note_on_c, 1, 57, 127
1, 337112, Note_off_c, 1, 78, 0
1, 337117, Note_on_c, 1, 64, 127
1, 337117, Note_on_c, 1, 80, 127
1, 337343, Note_off_c, 1, 57, 0
1, 337343, Note_off_c, 1, 64, 0
1, 337343, Note_off_c, 1, 80, 0
1, 337344, Note_off_c, 1, 59, 0
1, 337348, Note_on_c, 1, 65, 127
1, 337348, Note_on_c, 1, 74, 127
1, 337348, Note_on_c, 1, 57, 127
1, 337348, Note_on_c, 1, 81, 127
1, 337814, Note_off_c, 1, 65, 0
1, 337814, Note_off_c, 1, 74, 0
1, 337820, Note_on_c, 1, 61, 127
1, 337820, Note_on_c, 1, 64, 127
1, 337820, Note_on_c, 1, 73, 127
1, 337820, Note_on_c, 1, 76, 127
1, 338051, Note_off_c, 1, 61, 0
1, 338051, Note_off_c, 1, 64, 0
1, 338051, Note_off_c, 1, 73, 0
1, 338051, Note_off_c, 1, 76, 0
1, 338057, Note_on_c, 1, 59, 127
1, 338057, Note_on_c, 1, 62, 127
1, 338057, Note_on_c, 1, 77, 127
1, 338288, Note_off_c, 1, 59, 0
1, 338288, Note_off_c, 1, 62, 0
1, 338288, Note_off_c, 1, 77, 0
1, 338818, Note_on_c, 1, 71, 127
1, 339075, Note_off_c, 1, 71, 0
1, 339081, Note_on_c, 1, 68, 127
1, 339341, Note_off_c, 1, 57, 0
1, 339482, Note_on_c, 1, 69, 127
1, 339505, Note_off_c, 1, 68, 0
1, 339581, Note_off_c, 1, 81, 0
1, 342646, Note_off_c, 1, 69, 0
1, 342646, End_track
0, 0, End_of_file