0, 0, Header, 1, 1, 480
1, 0, Start_track
1, 0, Title_t, "Test"
1, 0, Tempo, 500000
1, 0, Instrument_name_t, "Church Organ"
1, 0, Note_on_c, 1, 71, 127
1, 0, Note_on_c, 1, 64, 127
1, 96, Note_off_c, 1, 71, 0
1, 96, Note_off_c, 1, 64, 0
1, 120, Note_on_c, 1, 76, 127
1, 120, Note_on_c, 1, 55, 127
1, 168, Note_off_c, 1, 76, 0
1, 180, Note_on_c, 1, 78, 127
1, 210, Note_off_c, 1, 55, 0
1, 228, Note_off_c, 1, 78, 0
1, 240, Note_on_c, 1, 79, 127
1, 240, Note_on_c, 1, 57, 127
1, 330, Note_off_c, 1, 57, 0
1, 336, Note_off_c, 1, 79, 0
1, 360, Note_on_c, 1, 78, 127
1, 360, Note_on_c, 1, 59, 127
1, 450, Note_off_c, 1, 59, 0
1, 456, Note_off_c, 1, 78, 0
1, 480, Note_on_c, 1, 79, 127
1, 480, Note_on_c, 1, 52, 127
1, 570, Note_off_c, 1, 52, 0
1, 576, Note_off_c, 1, 79, 0
1, 600, Note_on_c, 1, 76, 127
1, 600, Note_on_c, 1, 55, 127
1, 648, Note_off_c, 1, 76, 0
1, 660, Note_on_c, 1, 75, 127
1, 690, Note_off_c, 1, 55, 0
1, 708, Note_off_c, 1, 75, 0
1, 720, Note_on_c, 1, 76, 127
1, 720, Note_on_c, 1, 59, 127
1, 768, Note_off_c, 1, 76, 0
1, 780, Note_on_c, 1, 78, 127
1, 810, Note_off_c, 1, 59, 0
1, 828, Note_off_c, 1, 78, 0
1, 840, Note_on_c, 1, 79, 127
1, 840, Note_on_c, 1, 64, 127
1, 888, Note_off_c, 1, 79, 0
1, 888, Note_off_c, 1, 64, 0
1, 900, Note_on_c, 1, 81, 127
1, 900, Note_on_c, 1, 66, 127
1, 948, Note_off_c, 1, 81, 0
1, 948, Note_off_c, 1, 66, 0
1, 960, Note_on_c, 1, 83, 127
1, 960, Note_on_c, 1, 67, 127
1, 1008, Note_off_c, 1, 83, 0
1, 1020, Note_on_c, 1, 84, 127
1, 1050, Note_off_c, 1, 67, 0
1, 1068, Note_off_c, 1, 84, 0
1, 1080, Note_on_c, 1, 83, 127
1, 1080, Note_on_c, 1, 66, 127
1, 1128, Note_off_c, 1, 83, 0
1, 1140, Note_on_c, 1, 81, 127
1, 1170, Note_off_c, 1, 66, 0
1, 1188, Note_off_c, 1, 81, 0
1, 1200, Note_on_c, 1, 83, 127
1, 1200, Note_on_c, 1, 67, 127
1, 1248, Note_off_c, 1, 83, 0
1, 1260, Note_on_c, 1, 76, 127
1, 1296, Note_off_c, 1, 67, 0
1, 1308, Note_off_c, 1, 76, 0
1, 1320, Note_on_c, 1, 78, 127
1, 1320, Note_on_c, 1, 66, 127
1, 1368, Note_off_c, 1, 78, 0
1, 1368, Note_off_c, 1, 66, 0
1, 1380, Note_on_c, 1, 79, 127
1, 1380, Note_on_c, 1, 64, 127
1, 1428, Note_off_c, 1, 79, 0
1, 1428, Note_off_c, 1, 64, 0
1, 1440, Note_on_c, 1, 81, 127
1, 1440, Note_on_c, 1, 66, 127
1, 1488, Note_off_c, 1, 81, 0
1, 1488, Note_off_c, 1, 66, 0
1, 1500, Note_on_c, 1, 83, 127
1, 1500, Note_on_c, 1, 67, 127
1, 1548, Note_off_c, 1, 83, 0
1, 1548, Note_off_c, 1, 67, 0
1, 1560, Note_on_c, 1, 84, 127
1, 1560, Note_on_c, 1, 69, 127
1, 1650, Note_off_c, 1, 69, 0
1, 1656, Note_off_c, 1, 84, 0
1, 1680, Note_on_c, 1, 83, 127
1, 1680, Note_on_c, 1, 66, 127
1, 1728, Note_off_c, 1, 83, 0
1, 1740, Note_on_c, 1, 81, 127
1, 1770, Note_off_c, 1, 66, 0
1, 1788, Note_off_c, 1, 81, 0
1, 1800, Note_on_c, 1, 79, 127
1, 1800, Note_on_c, 1, 62, 127
1, 1848, Note_off_c, 1, 79, 0
1, 1860, Note_on_c, 1, 78, 127
1, 1890, Note_off_c, 1, 62, 0
1, 1908, Note_off_c, 1, 78, 0
1, 1920, Note_on_c, 1, 83, 127
1, 1920, Note_on_c, 1, 67, 127
1, 2010, Note_off_c, 1, 67, 0
1, 2016, Note_off_c, 1, 83, 0
1, 2040, Note_on_c, 1, 81, 127
1, 2040, Note_on_c, 1, 64, 127
1, 2088, Note_off_c, 1, 81, 0
1, 2100, Note_on_c, 1, 79, 127
1, 2130, Note_off_c, 1, 64, 0
1, 2148, Note_off_c, 1, 79, 0
1, 2160, Note_on_c, 1, 78, 127
1, 2160, Note_on_c, 1, 60, 127
1, 2208, Note_off_c, 1, 78, 0
1, 2220, Note_on_c, 1, 76, 127
1, 2250, Note_off_c, 1, 60, 0
1, 2268, Note_off_c, 1, 76, 0
1, 2280, Note_on_c, 1, 81, 127
1, 2280, Note_on_c, 1, 54, 127
1, 2328, Note_off_c, 1, 81, 0
1, 2340, Note_on_c, 1, 79, 127
1, 2370, Note_off_c, 1, 54, 0
1, 2388, Note_off_c, 1, 79, 0
1, 2400, Note_on_c, 1, 78, 127
1, 2400, Note_on_c, 1, 64, 127
1, 2448, Note_off_c, 1, 78, 0
1, 2460, Note_on_c, 1, 79, 127
1, 2490, Note_off_c, 1, 64, 0
1, 2508, Note_off_c, 1, 79, 0
1, 2520, Note_on_c, 1, 81, 127
1, 2520, Note_on_c, 1, 63, 127
1, 2568, Note_off_c, 1, 81, 0
1, 2580, Note_on_c, 1, 78, 127
1, 2610, Note_off_c, 1, 63, 0
1, 2628, Note_off_c, 1, 78, 0
1, 2640, Note_on_c, 1, 79, 127
1, 2640, Note_on_c, 1, 64, 127
1, 2688, Note_off_c, 1, 79, 0
1, 2700, Note_on_c, 1, 71, 127
1, 2730, Note_off_c, 1, 64, 0
1, 2748, Note_off_c, 1, 71, 0
1, 2760, Note_on_c, 1, 73, 127
1, 2760, Note_on_c, 1, 52, 127
1, 2808, Note_off_c, 1, 73, 0
1, 2820, Note_on_c, 1, 75, 127
1, 2850, Note_off_c, 1, 52, 0
1, 2868, Note_off_c, 1, 75, 0
1, 2880, Note_on_c, 1, 76, 127
1, 2880, Note_on_c, 1, 54, 127
1, 2928, Note_off_c, 1, 76, 0
1, 2940, Note_on_c, 1, 75, 127
1, 2970, Note_off_c, 1, 54, 0
1, 2988, Note_off_c, 1, 75, 0
1, 3000, Note_on_c, 1, 76, 127
1, 3000, Note_on_c, 1, 55, 127
1, 3048, Note_off_c, 1, 76, 0
1, 3060, Note_on_c, 1, 78, 127
1, 3090, Note_off_c, 1, 55, 0
1, 3108, Note_off_c, 1, 78, 0
1, 3120, Note_on_c, 1, 79, 127
1, 3120, Note_on_c, 1, 57, 127
1, 3168, Note_off_c, 1, 79, 0
1, 3180, Note_on_c, 1, 81, 127
1, 3210, Note_off_c, 1, 57, 0
1, 3228, Note_off_c, 1, 81, 0
1, 3240, Note_on_c, 1, 79, 127
1, 3240, Note_on_c, 1, 59, 127
1, 3288, Note_off_c, 1, 79, 0
1, 3300, Note_on_c, 1, 78, 127
1, 3330, Note_off_c, 1, 59, 0
1, 3348, Note_off_c, 1, 78, 0
1, 3360, Note_on_c, 1, 79, 127
1, 3360, Note_on_c, 1, 52, 127
1, 3408, Note_off_c, 1, 79, 0
1, 3420, Note_on_c, 1, 78, 127
1, 3450, Note_off_c, 1, 52, 0
1, 3468, Note_off_c, 1, 78, 0
1, 3480, Note_on_c, 1, 76, 127
1, 3480, Note_on_c, 1, 55, 127
1, 3528, Note_off_c, 1, 76, 0
1, 3540, Note_on_c, 1, 75, 127
1, 3570, Note_off_c, 1, 55, 0
1, 3588, Note_off_c, 1, 75, 0
1, 3600, Note_on_c, 1, 76, 127
1, 3600, Note_on_c, 1, 59, 127
1, 3648, Note_off_c, 1, 76, 0
1, 3660, Note_on_c, 1, 78, 127
1, 3690, Note_off_c, 1, 59, 0
1, 3708, Note_off_c, 1, 78, 0
1, 3720, Note_on_c, 1, 79, 127
1, 3720, Note_on_c, 1, 64, 127
1, 3768, Note_off_c, 1, 79, 0
1, 3768, Note_off_c, 1, 64, 0
1, 3780, Note_on_c, 1, 81, 127
1, 3780, Note_on_c, 1, 66, 127
1, 3828, Note_off_c, 1, 81, 0
1, 3828, Note_off_c, 1, 66, 0
1, 3840, Note_on_c, 1, 83, 127
1, 3840, Note_on_c, 1, 67, 127
1, 3888, Note_off_c, 1, 83, 0
1, 3900, Note_on_c, 1, 84, 127
1, 3930, Note_off_c, 1, 67, 0
1, 3948, Note_off_c, 1, 84, 0
1, 3960, Note_on_c, 1, 83, 127
1, 3960, Note_on_c, 1, 66, 127
1, 4008, Note_off_c, 1, 83, 0
1, 4020, Note_on_c, 1, 81, 127
1, 4050, Note_off_c, 1, 66, 0
1, 4068, Note_off_c, 1, 81, 0
1, 4080, Note_on_c, 1, 83, 127
1, 4080, Note_on_c, 1, 67, 127
1, 4128, Note_off_c, 1, 83, 0
1, 4140, Note_on_c, 1, 76, 127
1, 4170, Note_off_c, 1, 67, 0
1, 4188, Note_off_c, 1, 76, 0
1, 4200, Note_on_c, 1, 78, 127
1, 4200, Note_on_c, 1, 66, 127
1, 4248, Note_off_c, 1, 78, 0
1, 4248, Note_off_c, 1, 66, 0
1, 4260, Note_on_c, 1, 79, 127
1, 4260, Note_on_c, 1, 64, 127
1, 4308, Note_off_c, 1, 79, 0
1, 4308, Note_off_c, 1, 64, 0
1, 4320, Note_on_c, 1, 81, 127
1, 4320, Note_on_c, 1, 66, 127
1, 4368, Note_off_c, 1, 81, 0
1, 4368, Note_off_c, 1, 66, 0
1, 4380, Note_on_c, 1, 83, 127
1, 4380, Note_on_c, 1, 67, 127
1, 4428, Note_off_c, 1, 83, 0
1, 4428, Note_off_c, 1, 67, 0
1, 4440, Note_on_c, 1, 84, 127
1, 4440, Note_on_c, 1, 69, 127
1, 4488, Note_off_c, 1, 84, 0
1, 4500, Note_on_c, 1, 74, 127
1, 4530, Note_off_c, 1, 69, 0
1, 4548, Note_off_c, 1, 74, 0
1, 4560, Note_on_c, 1, 76, 127
1, 4560, Note_on_c, 1, 66, 127
1, 4608, Note_off_c, 1, 76, 0
1, 4620, Note_on_c, 1, 78, 127
1, 4650, Note_off_c, 1, 66, 0
1, 4668, Note_off_c, 1, 78, 0
1, 4680, Note_on_c, 1, 79, 127
1, 4680, Note_on_c, 1, 62, 127
1, 4728, Note_off_c, 1, 79, 0
1, 4740, Note_on_c, 1, 81, 127
1, 4770, Note_off_c, 1, 62, 0
1, 4788, Note_off_c, 1, 81, 0
1, 4800, Note_on_c, 1, 83, 127
1, 4800, Note_on_c, 1, 67, 127
1, 4848, Note_off_c, 1, 67, 0
1, 4860, Note_on_c, 1, 66, 127
1, 4896, Note_off_c, 1, 83, 0
1, 4908, Note_off_c, 1, 66, 0
1, 4920, Note_on_c, 1, 71, 127
1, 4920, Note_on_c, 1, 64, 127
1, 4968, Note_off_c, 1, 64, 0
1, 4980, Note_on_c, 1, 62, 127
1, 5010, Note_off_c, 1, 71, 0
1, 5028, Note_off_c, 1, 62, 0
1, 5040, Note_on_c, 1, 76, 127
1, 5040, Note_on_c, 1, 60, 127
1, 5088, Note_off_c, 1, 60, 0
1, 5100, Note_on_c, 1, 59, 127
1, 5148, Note_off_c, 1, 59, 0
1, 5208, Note_off_c, 1, 76, 0
1, 5220, Note_on_c, 1, 78, 127
1, 5220, Note_on_c, 1, 57, 127
1, 5268, Note_off_c, 1, 78, 0
1, 5268, Note_off_c, 1, 57, 0
1, 5280, Note_on_c, 1, 79, 127
1, 5280, Note_on_c, 1, 59, 127
1, 5304, Note_off_c, 1, 79, 0
1, 5310, Note_on_c, 1, 78, 127
1, 5334, Note_off_c, 1, 78, 0
1, 5370, Note_off_c, 1, 59, 0
1, 5400, Note_on_c, 1, 79, 127
1, 5400, Note_on_c, 1, 47, 127
1, 5424, Note_off_c, 1, 79, 0
1, 5430, Note_on_c, 1, 78, 127
1, 5454, Note_off_c, 1, 78, 0
1, 5460, Note_on_c, 1, 76, 127
1, 5490, Note_off_c, 1, 47, 0
1, 5508, Note_off_c, 1, 76, 0
1, 5520, Note_on_c, 1, 76, 127
1, 5520, Note_on_c, 1, 52, 127
1, 5610, Note_off_c, 1, 52, 0
1, 5640, Note_on_c, 1, 40, 127
1, 5712, Note_off_c, 1, 76, 0
1, 5730, Note_off_c, 1, 40, 0
1, 5760, Note_on_c, 1, 79, 127
1, 5760, Note_on_c, 1, 52, 127
1, 5808, Note_off_c, 1, 52, 0
1, 5820, Note_on_c, 1, 54, 127
1, 5856, Note_off_c, 1, 79, 0
1, 5868, Note_off_c, 1, 54, 0
1, 5880, Note_on_c, 1, 71, 127
1, 5880, Note_on_c, 1, 55, 127
1, 5928, Note_off_c, 1, 71, 0
1, 5928, Note_off_c, 1, 55, 0
1, 5940, Note_on_c, 1, 72, 127
1, 5940, Note_on_c, 1, 57, 127
1, 5988, Note_off_c, 1, 72, 0
1, 5988, Note_off_c, 1, 57, 0
1, 6000, Note_on_c, 1, 74, 127
1, 6000, Note_on_c, 1, 59, 127
1, 6048, Note_off_c, 1, 59, 0
1, 6060, Note_on_c, 1, 60, 127
1, 6090, Note_off_c, 1, 74, 0
1, 6108, Note_off_c, 1, 60, 0
1, 6120, Note_on_c, 1, 76, 127
1, 6120, Note_on_c, 1, 59, 127
1, 6168, Note_off_c, 1, 59, 0
1, 6180, Note_on_c, 1, 57, 127
1, 6210, Note_off_c, 1, 76, 0
1, 6228, Note_off_c, 1, 57, 0
1, 6240, Note_on_c, 1, 74, 127
1, 6240, Note_on_c, 1, 59, 127
1, 6288, Note_off_c, 1, 59, 0
1, 6300, Note_on_c, 1, 57, 127
1, 6336, Note_off_c, 1, 74, 0
1, 6348, Note_off_c, 1, 57, 0
1, 6360, Note_on_c, 1, 72, 127
1, 6360, Note_on_c, 1, 55, 127
1, 6408, Note_off_c, 1, 72, 0
1, 6408, Note_off_c, 1, 55, 0
1, 6420, Note_on_c, 1, 71, 127
1, 6420, Note_on_c, 1, 57, 127
1, 6468, Note_off_c, 1, 71, 0
1, 6468, Note_off_c, 1, 57, 0
1, 6480, Note_on_c, 1, 69, 127
1, 6480, Note_on_c, 1, 59, 127
1, 6528, Note_off_c, 1, 69, 0
1, 6528, Note_off_c, 1, 59, 0
1, 6540, Note_on_c, 1, 67, 127
1, 6540, Note_on_c, 1, 60, 127
1, 6588, Note_off_c, 1, 67, 0
1, 6588, Note_off_c, 1, 60, 0
1, 6600, Note_on_c, 1, 79, 127
1, 6600, Note_on_c, 1, 59, 127
1, 6648, Note_off_c, 1, 59, 0
1, 6660, Note_on_c, 1, 57, 127
1, 6690, Note_off_c, 1, 79, 0
1, 6708, Note_off_c, 1, 57, 0
1, 6720, Note_on_c, 1, 71, 127
1, 6720, Note_on_c, 1, 55, 127
1, 6768, Note_off_c, 1, 71, 0
1, 6768, Note_off_c, 1, 55, 0
1, 6780, Note_on_c, 1, 72, 127
1, 6780, Note_on_c, 1, 57, 127
1, 6828, Note_off_c, 1, 72, 0
1, 6828, Note_off_c, 1, 57, 0
1, 6840, Note_on_c, 1, 74, 127
1, 6840, Note_on_c, 1, 59, 127
1, 6888, Note_off_c, 1, 74, 0
1, 6888, Note_off_c, 1, 59, 0
1, 6900, Note_on_c, 1, 76, 127
1, 6900, Note_on_c, 1, 60, 127
1, 6948, Note_off_c, 1, 76, 0
1, 6948, Note_off_c, 1, 60, 0
1, 6960, Note_on_c, 1, 74, 127
1, 6960, Note_on_c, 1, 59, 127
1, 7008, Note_off_c, 1, 59, 0
1, 7020, Note_on_c, 1, 57, 127
1, 7050, Note_off_c, 1, 74, 0
1, 7068, Note_off_c, 1, 57, 0
1, 7080, Note_on_c, 1, 79, 127
1, 7080, Note_on_c, 1, 55, 127
1, 7128, Note_off_c, 1, 55, 0
1, 7140, Note_on_c, 1, 54, 127
1, 7188, Note_off_c, 1, 54, 0
1, 7200, Note_on_c, 1, 52, 127
1, 7248, Note_off_c, 1, 52, 0
1, 7260, Note_on_c, 1, 50, 127
1, 7308, Note_off_c, 1, 50, 0
1, 7320, Note_on_c, 1, 49, 127
1, 7368, Note_off_c, 1, 49, 0
1, 7416, Note_off_c, 1, 79, 0
1, 7440, Note_on_c, 1, 76, 127
1, 7440, Note_on_c, 1, 57, 127
1, 7488, Note_off_c, 1, 57, 0
1, 7500, Note_on_c, 1, 55, 127
1, 7530, Note_off_c, 1, 76, 0
1, 7548, Note_off_c, 1, 55, 0
1, 7560, Note_on_c, 1, 81, 127
1, 7560, Note_on_c, 1, 54, 127
1, 7608, Note_off_c, 1, 54, 0
1, 7620, Note_on_c, 1, 52, 127
1, 7650, Note_off_c, 1, 81, 0
1, 7668, Note_off_c, 1, 52, 0
1, 7680, Note_on_c, 1, 78, 127
1, 7680, Note_on_c, 1, 50, 127
1, 7728, Note_off_c, 1, 50, 0
1, 7740, Note_on_c, 1, 52, 127
1, 7770, Note_off_c, 1, 78, 0
1, 7788, Note_off_c, 1, 52, 0
1, 7800, Note_on_c, 1, 83, 127
1, 7800, Note_on_c, 1, 50, 127
1, 7848, Note_off_c, 1, 50, 0
1, 7860, Note_on_c, 1, 49, 127
1, 7908, Note_off_c, 1, 49, 0
1, 7920, Note_on_c, 1, 47, 127
1, 7968, Note_off_c, 1, 47, 0
1, 7980, Note_on_c, 1, 45, 127
1, 8028, Note_off_c, 1, 45, 0
1, 8040, Note_on_c, 1, 43, 127
1, 8088, Note_off_c, 1, 43, 0
1, 8100, Note_on_c, 1, 52, 127
1, 8136, Note_off_c, 1, 83, 0
1, 8148, Note_off_c, 1, 52, 0
1, 8160, Note_on_c, 1, 81, 127
1, 8160, Note_on_c, 1, 57, 127
1, 8208, Note_off_c, 1, 81, 0
1, 8220, Note_on_c, 1, 79, 127
1, 8250, Note_off_c, 1, 57, 0
1, 8268, Note_off_c, 1, 79, 0
1, 8280, Note_on_c, 1, 78, 127
1, 8280, Note_on_c, 1, 45, 127
1, 8328, Note_off_c, 1, 78, 0
1, 8340, Note_on_c, 1, 76, 127
1, 8370, Note_off_c, 1, 45, 0
1, 8388, Note_off_c, 1, 76, 0
1, 8400, Note_on_c, 1, 79, 127
1, 8400, Note_on_c, 1, 50, 127
1, 8448, Note_off_c, 1, 79, 0
1, 8460, Note_on_c, 1, 78, 127
1, 8508, Note_off_c, 1, 78, 0
1, 8520, Note_on_c, 1, 76, 127
1, 8544, Note_off_c, 1, 50, 0
1, 8568, Note_off_c, 1, 76, 0
1, 8580, Note_on_c, 1, 74, 127
1, 8580, Note_on_c, 1, 54, 127
1, 8628, Note_off_c, 1, 74, 0
1, 8628, Note_off_c, 1, 54, 0
1, 8640, Note_on_c, 1, 78, 127
1, 8640, Note_on_c, 1, 59, 127
1, 8688, Note_off_c, 1, 59, 0
1, 8700, Note_on_c, 1, 57, 127
1, 8736, Note_off_c, 1, 78, 0
1, 8748, Note_off_c, 1, 57, 0
1, 8760, Note_on_c, 1, 71, 127
1, 8760, Note_on_c, 1, 55, 127
1, 8808, Note_off_c, 1, 71, 0
1, 8808, Note_off_c, 1, 55, 0
1, 8820, Note_on_c, 1, 73, 127
1, 8820, Note_on_c, 1, 54, 127
1, 8868, Note_off_c, 1, 73, 0
1, 8868, Note_off_c, 1, 54, 0
1, 8880, Note_on_c, 1, 74, 127
1, 8880, Note_on_c, 1, 52, 127
1, 8928, Note_off_c, 1, 52, 0
1, 8940, Note_on_c, 1, 50, 127
1, 8970, Note_off_c, 1, 74, 0
1, 8988, Note_off_c, 1, 50, 0
1, 9000, Note_on_c, 1, 73, 127
1, 9000, Note_on_c, 1, 52, 127
1, 9048, Note_off_c, 1, 52, 0
1, 9060, Note_on_c, 1, 54, 127
1, 9090, Note_off_c, 1, 73, 0
1, 9108, Note_off_c, 1, 54, 0
1, 9120, Note_on_c, 1, 74, 127
1, 9120, Note_on_c, 1, 47, 127
1, 9168, Note_off_c, 1, 47, 0
1, 9180, Note_on_c, 1, 59, 127
1, 9216, Note_off_c, 1, 74, 0
1, 9228, Note_off_c, 1, 59, 0
1, 9240, Note_on_c, 1, 73, 127
1, 9240, Note_on_c, 1, 58, 127
1, 9288, Note_off_c, 1, 73, 0
1, 9288, Note_off_c, 1, 58, 0
1, 9300, Note_on_c, 1, 71, 127
1, 9300, Note_on_c, 1, 56, 127
1, 9348, Note_off_c, 1, 71, 0
1, 9348, Note_off_c, 1, 56, 0
1, 9360, Note_on_c, 1, 73, 127
1, 9360, Note_on_c, 1, 58, 127
1, 9408, Note_off_c, 1, 73, 0
1, 9408, Note_off_c, 1, 58, 0
1, 9420, Note_on_c, 1, 74, 127
1, 9420, Note_on_c, 1, 59, 127
1, 9468, Note_off_c, 1, 74, 0
1, 9468, Note_off_c, 1, 59, 0
1, 9480, Note_on_c, 1, 76, 127
1, 9480, Note_on_c, 1, 49, 127
1, 9528, Note_off_c, 1, 76, 0
1, 9528, Note_off_c, 1, 49, 0
1, 9540, Note_on_c, 1, 78, 127
1, 9540, Note_on_c, 1, 59, 127
1, 9588, Note_off_c, 1, 78, 0
1, 9588, Note_off_c, 1, 59, 0
1, 9600, Note_on_c, 1, 79, 127
1, 9600, Note_on_c, 1, 57, 127
1, 9648, Note_off_c, 1, 57, 0
1, 9660, Note_on_c, 1, 55, 127
1, 9690, Note_off_c, 1, 79, 0
1, 9708, Note_off_c, 1, 55, 0
1, 9720, Note_on_c, 1, 78, 127
1, 9720, Note_on_c, 1, 57, 127
1, 9768, Note_off_c, 1, 57, 0
1, 9780, Note_on_c, 1, 51, 127
1, 9810, Note_off_c, 1, 78, 0
1, 9828, Note_off_c, 1, 51, 0
1, 9840, Note_on_c, 1, 79, 127
1, 9840, Note_on_c, 1, 52, 127
1, 9888, Note_off_c, 1, 52, 0
1, 9900, Note_on_c, 1, 57, 127
1, 9948, Note_off_c, 1, 57, 0
1, 9960, Note_on_c, 1, 55, 127
1, 10008, Note_off_c, 1, 55, 0
1, 10020, Note_on_c, 1, 54, 127
1, 10068, Note_off_c, 1, 54, 0
1, 10200, Note_on_c, 1, 49, 127
1, 10248, Note_off_c, 1, 79, 0
1, 10260, Note_on_c, 1, 82, 127
1, 10290, Note_off_c, 1, 49, 0
1, 10308, Note_off_c, 1, 82, 0
1, 10320, Note_on_c, 1, 83, 127
1, 10320, Note_on_c, 1, 50, 127
1, 10368, Note_off_c, 1, 83, 0
1, 10380, Note_on_c, 1, 79, 127
1, 10410, Note_off_c, 1, 50, 0
1, 10428, Note_off_c, 1, 79, 0
1, 10440, Note_on_c, 1, 78, 127
1, 10440, Note_on_c, 1, 46, 127
1, 10488, Note_off_c, 1, 78, 0
1, 10500, Note_on_c, 1, 76, 127
1, 10530, Note_off_c, 1, 46, 0
1, 10548, Note_off_c, 1, 76, 0
1, 10560, Note_on_c, 1, 74, 127
1, 10560, Note_on_c, 1, 47, 127
1, 10608, Note_off_c, 1, 74, 0
1, 10620, Note_on_c, 1, 77, 127
1, 10650, Note_off_c, 1, 47, 0
1, 10668, Note_off_c, 1, 77, 0
1, 10680, Note_on_c, 1, 78, 127
1, 10680, Note_on_c, 1, 50, 127
1, 10728, Note_off_c, 1, 78, 0
1, 10740, Note_on_c, 1, 74, 127
1, 10770, Note_off_c, 1, 50, 0
1, 10788, Note_off_c, 1, 74, 0
1, 10800, Note_on_c, 1, 73, 127
1, 10800, Note_on_c, 1, 55, 127
1, 10848, Note_off_c, 1, 73, 0
1, 10860, Note_on_c, 1, 71, 127
1, 10908, Note_off_c, 1, 71, 0
1, 10920, Note_on_c, 1, 76, 127
1, 10968, Note_off_c, 1, 55, 0
1, 10968, Note_off_c, 1, 76, 0
1, 10980, Note_on_c, 1, 78, 127
1, 10980, Note_on_c, 1, 52, 127
1, 11028, Note_off_c, 1, 78, 0
1, 11028, Note_off_c, 1, 52, 0
1, 11040, Note_on_c, 1, 74, 127
1, 11040, Note_on_c, 1, 54, 127
1, 11064, Note_off_c, 1, 74, 0
1, 11070, Note_on_c, 1, 73, 127
1, 11094, Note_off_c, 1, 73, 0
1, 11136, Note_off_c, 1, 54, 0
1, 11160, Note_on_c, 1, 74, 127
1, 11160, Note_on_c, 1, 42, 127
1, 11184, Note_off_c, 1, 74, 0
1, 11190, Note_on_c, 1, 73, 127
1, 11214, Note_off_c, 1, 73, 0
1, 11220, Note_on_c, 1, 71, 127
1, 11256, Note_off_c, 1, 42, 0
1, 11268, Note_off_c, 1, 71, 0
1, 11280, Note_on_c, 1, 71, 127
1, 11280, Note_on_c, 1, 47, 127
1, 11376, Note_off_c, 1, 47, 0
1, 11400, Note_on_c, 1, 59, 127
1, 11448, Note_off_c, 1, 59, 0
1, 11460, Note_on_c, 1, 57, 127
1, 11472, Note_off_c, 1, 71, 0
1, 11508, Note_off_c, 1, 57, 0
1, 11520, Note_on_c, 1, 71, 127
1, 11520, Note_on_c, 1, 55, 127
1, 11568, Note_off_c, 1, 55, 0
1, 11580, Note_on_c, 1, 54, 127
1, 11616, Note_off_c, 1, 71, 0
1, 11628, Note_off_c, 1, 54, 0
1, 11640, Note_on_c, 1, 76, 127
1, 11640, Note_on_c, 1, 55, 127
1, 11688, Note_off_c, 1, 76, 0
1, 11700, Note_on_c, 1, 78, 127
1, 11730, Note_off_c, 1, 55, 0
1, 11748, Note_off_c, 1, 78, 0
1, 11760, Note_on_c, 1, 79, 127
1, 11760, Note_on_c, 1, 57, 127
1, 11850, Note_off_c, 1, 79, 0
1, 11850, Note_off_c, 1, 57, 0
1, 11880, Note_on_c, 1, 78, 127
1, 11880, Note_on_c, 1, 59, 127
1, 11970, Note_off_c, 1, 78, 0
1, 11970, Note_off_c, 1, 59, 0
1, 12000, Note_on_c, 1, 79, 127
1, 12000, Note_on_c, 1, 52, 127
1, 12090, Note_off_c, 1, 79, 0
1, 12090, Note_off_c, 1, 52, 0
1, 12120, Note_on_c, 1, 76, 127
1, 12120, Note_on_c, 1, 55, 127
1, 12168, Note_off_c, 1, 76, 0
1, 12180, Note_on_c, 1, 75, 127
1, 12210, Note_off_c, 1, 55, 0
1, 12228, Note_off_c, 1, 75, 0
1, 12240, Note_on_c, 1, 76, 127
1, 12240, Note_on_c, 1, 59, 127
1, 12288, Note_off_c, 1, 76, 0
1, 12300, Note_on_c, 1, 78, 127
1, 12330, Note_off_c, 1, 59, 0
1, 12348, Note_off_c, 1, 78, 0
1, 12360, Note_on_c, 1, 79, 127
1, 12360, Note_on_c, 1, 64, 127
1, 12408, Note_off_c, 1, 79, 0
1, 12408, Note_off_c, 1, 64, 0
1, 12420, Note_on_c, 1, 81, 127
1, 12420, Note_on_c, 1, 66, 127
1, 12468, Note_off_c, 1, 81, 0
1, 12468, Note_off_c, 1, 66, 0
1, 12480, Note_on_c, 1, 83, 127
1, 12480, Note_on_c, 1, 67, 127
1, 12528, Note_off_c, 1, 83, 0
1, 12540, Note_on_c, 1, 84, 127
1, 12570, Note_off_c, 1, 67, 0
1, 12588, Note_off_c, 1, 84, 0
1, 12600, Note_on_c, 1, 83, 127
1, 12600, Note_on_c, 1, 66, 127
1, 12648, Note_off_c, 1, 83, 0
1, 12660, Note_on_c, 1, 81, 127
1, 12690, Note_off_c, 1, 66, 0
1, 12708, Note_off_c, 1, 81, 0
1, 12720, Note_on_c, 1, 83, 127
1, 12720, Note_on_c, 1, 67, 127
1, 12768, Note_off_c, 1, 83, 0
1, 12780, Note_on_c, 1, 76, 127
1, 12816, Note_off_c, 1, 67, 0
1, 12828, Note_off_c, 1, 76, 0
1, 12840, Note_on_c, 1, 78, 127
1, 12840, Note_on_c, 1, 66, 127
1, 12888, Note_off_c, 1, 78, 0
1, 12888, Note_off_c, 1, 66, 0
1, 12900, Note_on_c, 1, 79, 127
1, 12900, Note_on_c, 1, 64, 127
1, 12948, Note_off_c, 1, 79, 0
1, 12948, Note_off_c, 1, 64, 0
1, 12960, Note_on_c, 1, 81, 127
1, 12960, Note_on_c, 1, 66, 127
1, 13008, Note_off_c, 1, 81, 0
1, 13008, Note_off_c, 1, 66, 0
1, 13020, Note_on_c, 1, 83, 127
1, 13020, Note_on_c, 1, 67, 127
1, 13068, Note_off_c, 1, 83, 0
1, 13068, Note_off_c, 1, 67, 0
1, 13080, Note_on_c, 1, 84, 127
1, 13080, Note_on_c, 1, 69, 127
1, 13170, Note_off_c, 1, 69, 0
1, 13176, Note_off_c, 1, 84, 0
1, 13200, Note_on_c, 1, 83, 127
1, 13200, Note_on_c, 1, 66, 127
1, 13248, Note_off_c, 1, 83, 0
1, 13260, Note_on_c, 1, 81, 127
1, 13290, Note_off_c, 1, 66, 0
1, 13308, Note_off_c, 1, 81, 0
1, 13320, Note_on_c, 1, 79, 127
1, 13320, Note_on_c, 1, 62, 127
1, 13368, Note_off_c, 1, 79, 0
1, 13380, Note_on_c, 1, 78, 127
1, 13410, Note_off_c, 1, 62, 0
1, 13428, Note_off_c, 1, 78, 0
1, 13440, Note_on_c, 1, 83, 127
1, 13440, Note_on_c, 1, 67, 127
1, 13530, Note_off_c, 1, 67, 0
1, 13536, Note_off_c, 1, 83, 0
1, 13560, Note_on_c, 1, 81, 127
1, 13560, Note_on_c, 1, 64, 127
1, 13608, Note_off_c, 1, 81, 0
1, 13620, Note_on_c, 1, 79, 127
1, 13650, Note_off_c, 1, 64, 0
1, 13668, Note_off_c, 1, 79, 0
1, 13680, Note_on_c, 1, 78, 127
1, 13680, Note_on_c, 1, 60, 127
1, 13728, Note_off_c, 1, 78, 0
1, 13740, Note_on_c, 1, 76, 127
1, 13770, Note_off_c, 1, 60, 0
1, 13788, Note_off_c, 1, 76, 0
1, 13800, Note_on_c, 1, 81, 127
1, 13800, Note_on_c, 1, 54, 127
1, 13848, Note_off_c, 1, 81, 0
1, 13860, Note_on_c, 1, 79, 127
1, 13890, Note_off_c, 1, 54, 0
1, 13908, Note_off_c, 1, 79, 0
1, 13920, Note_on_c, 1, 78, 127
1, 13920, Note_on_c, 1, 64, 127
1, 13968, Note_off_c, 1, 78, 0
1, 13980, Note_on_c, 1, 79, 127
1, 14010, Note_off_c, 1, 64, 0
1, 14028, Note_off_c, 1, 79, 0
1, 14040, Note_on_c, 1, 81, 127
1, 14040, Note_on_c, 1, 63, 127
1, 14088, Note_off_c, 1, 81, 0
1, 14100, Note_on_c, 1, 78, 127
1, 14130, Note_off_c, 1, 63, 0
1, 14148, Note_off_c, 1, 78, 0
1, 14160, Note_on_c, 1, 79, 127
1, 14160, Note_on_c, 1, 64, 127
1, 14208, Note_off_c, 1, 79, 0
1, 14220, Note_on_c, 1, 71, 127
1, 14250, Note_off_c, 1, 64, 0
1, 14268, Note_off_c, 1, 71, 0
1, 14280, Note_on_c, 1, 73, 127
1, 14280, Note_on_c, 1, 52, 127
1, 14328, Note_off_c, 1, 73, 0
1, 14340, Note_on_c, 1, 75, 127
1, 14370, Note_off_c, 1, 52, 0
1, 14388, Note_off_c, 1, 75, 0
1, 14400, Note_on_c, 1, 76, 127
1, 14400, Note_on_c, 1, 54, 127
1, 14448, Note_off_c, 1, 76, 0
1, 14460, Note_on_c, 1, 75, 127
1, 14490, Note_off_c, 1, 54, 0
1, 14508, Note_off_c, 1, 75, 0
1, 14520, Note_on_c, 1, 76, 127
1, 14520, Note_on_c, 1, 55, 127
1, 14568, Note_off_c, 1, 76, 0
1, 14580, Note_on_c, 1, 78, 127
1, 14610, Note_off_c, 1, 55, 0
1, 14628, Note_off_c, 1, 78, 0
1, 14640, Note_on_c, 1, 79, 127
1, 14640, Note_on_c, 1, 57, 127
1, 14688, Note_off_c, 1, 79, 0
1, 14700, Note_on_c, 1, 81, 127
1, 14730, Note_off_c, 1, 57, 0
1, 14748, Note_off_c, 1, 81, 0
1, 14760, Note_on_c, 1, 79, 127
1, 14760, Note_on_c, 1, 59, 127
1, 14808, Note_off_c, 1, 79, 0
1, 14820, Note_on_c, 1, 78, 127
1, 14850, Note_off_c, 1, 59, 0
1, 14868, Note_off_c, 1, 78, 0
1, 14880, Note_on_c, 1, 79, 127
1, 14880, Note_on_c, 1, 52, 127
1, 14928, Note_off_c, 1, 79, 0
1, 14940, Note_on_c, 1, 78, 127
1, 14970, Note_off_c, 1, 52, 0
1, 14988, Note_off_c, 1, 78, 0
1, 15000, Note_on_c, 1, 76, 127
1, 15000, Note_on_c, 1, 55, 127
1, 15048, Note_off_c, 1, 76, 0
1, 15060, Note_on_c, 1, 75, 127
1, 15090, Note_off_c, 1, 55, 0
1, 15108, Note_off_c, 1, 75, 0
1, 15120, Note_on_c, 1, 76, 127
1, 15120, Note_on_c, 1, 59, 127
1, 15168, Note_off_c, 1, 76, 0
1, 15180, Note_on_c, 1, 78, 127
1, 15210, Note_off_c, 1, 59, 0
1, 15228, Note_off_c, 1, 78, 0
1, 15240, Note_on_c, 1, 79, 127
1, 15240, Note_on_c, 1, 64, 127
1, 15288, Note_off_c, 1, 79, 0
1, 15288, Note_off_c, 1, 64, 0
1, 15300, Note_on_c, 1, 81, 127
1, 15300, Note_on_c, 1, 66, 127
1, 15348, Note_off_c, 1, 81, 0
1, 15348, Note_off_c, 1, 66, 0
1, 15360, Note_on_c, 1, 83, 127
1, 15360, Note_on_c, 1, 67, 127
1, 15408, Note_off_c, 1, 83, 0
1, 15420, Note_on_c, 1, 84, 127
1, 15450, Note_off_c, 1, 67, 0
1, 15468, Note_off_c, 1, 84, 0
1, 15480, Note_on_c, 1, 83, 127
1, 15480, Note_on_c, 1, 66, 127
1, 15528, Note_off_c, 1, 83, 0
1, 15540, Note_on_c, 1, 81, 127
1, 15570, Note_off_c, 1, 66, 0
1, 15588, Note_off_c, 1, 81, 0
1, 15600, Note_on_c, 1, 83, 127
1, 15600, Note_on_c, 1, 67, 127
1, 15648, Note_off_c, 1, 83, 0
1, 15660, Note_on_c, 1, 76, 127
1, 15696, Note_off_c, 1, 67, 0
1, 15708, Note_off_c, 1, 76, 0
1, 15720, Note_on_c, 1, 78, 127
1, 15720, Note_on_c, 1, 66, 127
1, 15768, Note_off_c, 1, 78, 0
1, 15768, Note_off_c, 1, 66, 0
1, 15780, Note_on_c, 1, 79, 127
1, 15780, Note_on_c, 1, 64, 127
1, 15828, Note_off_c, 1, 79, 0
1, 15828, Note_off_c, 1, 64, 0
1, 15840, Note_on_c, 1, 81, 127
1, 15840, Note_on_c, 1, 66, 127
1, 15888, Note_off_c, 1, 81, 0
1, 15888, Note_off_c, 1, 66, 0
1, 15900, Note_on_c, 1, 83, 127
1, 15900, Note_on_c, 1, 67, 127
1, 15948, Note_off_c, 1, 83, 0
1, 15948, Note_off_c, 1, 67, 0
1, 15960, Note_on_c, 1, 84, 127
1, 15960, Note_on_c, 1, 69, 127
1, 16008, Note_off_c, 1, 84, 0
1, 16020, Note_on_c, 1, 74, 127
1, 16050, Note_off_c, 1, 69, 0
1, 16068, Note_off_c, 1, 74, 0
1, 16080, Note_on_c, 1, 76, 127
1, 16080, Note_on_c, 1, 66, 127
1, 16128, Note_off_c, 1, 76, 0
1, 16140, Note_on_c, 1, 78, 127
1, 16170, Note_off_c, 1, 66, 0
1, 16188, Note_off_c, 1, 78, 0
1, 16200, Note_on_c, 1, 79, 127
1, 16200, Note_on_c, 1, 62, 127
1, 16248, Note_off_c, 1, 79, 0
1, 16260, Note_on_c, 1, 81, 127
1, 16290, Note_off_c, 1, 62, 0
1, 16308, Note_off_c, 1, 81, 0
1, 16320, Note_on_c, 1, 83, 127
1, 16320, Note_on_c, 1, 67, 127
1, 16368, Note_off_c, 1, 67, 0
1, 16380, Note_on_c, 1, 66, 127
1, 16410, Note_off_c, 1, 83, 0
1, 16428, Note_off_c, 1, 66, 0
1, 16440, Note_on_c, 1, 71, 127
1, 16440, Note_on_c, 1, 64, 127
1, 16488, Note_off_c, 1, 64, 0
1, 16500, Note_on_c, 1, 62, 127
1, 16530, Note_off_c, 1, 71, 0
1, 16548, Note_off_c, 1, 62, 0
1, 16560, Note_on_c, 1, 76, 127
1, 16560, Note_on_c, 1, 60, 127
1, 16608, Note_off_c, 1, 60, 0
1, 16620, Note_on_c, 1, 59, 127
1, 16668, Note_off_c, 1, 59, 0
1, 16728, Note_off_c, 1, 76, 0
1, 16740, Note_on_c, 1, 78, 127
1, 16740, Note_on_c, 1, 57, 127
1, 16788, Note_off_c, 1, 78, 0
1, 16788, Note_off_c, 1, 57, 0
1, 16800, Note_on_c, 1, 79, 127
1, 16800, Note_on_c, 1, 59, 127
1, 16824, Note_off_c, 1, 79, 0
1, 16830, Note_on_c, 1, 78, 127
1, 16854, Note_off_c, 1, 78, 0
1, 16890, Note_off_c, 1, 59, 0
1, 16920, Note_on_c, 1, 79, 127
1, 16920, Note_on_c, 1, 47, 127
1, 16944, Note_off_c, 1, 79, 0
1, 16950, Note_on_c, 1, 78, 127
1, 16974, Note_off_c, 1, 78, 0
1, 16980, Note_on_c, 1, 76, 127
1, 17010, Note_off_c, 1, 47, 0
1, 17028, Note_off_c, 1, 76, 0
1, 17040, Note_on_c, 1, 76, 127
1, 17040, Note_on_c, 1, 52, 127
1, 17130, Note_off_c, 1, 52, 0
1, 17160, Note_on_c, 1, 40, 127
1, 17232, Note_off_c, 1, 76, 0
1, 17250, Note_off_c, 1, 40, 0
1, 17280, Note_on_c, 1, 71, 127
1, 17328, Note_off_c, 1, 71, 0
1, 17340, Note_on_c, 1, 72, 127
1, 17388, Note_off_c, 1, 72, 0
1, 17400, Note_on_c, 1, 74, 127
1, 17448, Note_off_c, 1, 74, 0
1, 17460, Note_on_c, 1, 71, 127
1, 17508, Note_off_c, 1, 71, 0
1, 17520, Note_on_c, 1, 68, 127
1, 17520, Note_on_c, 1, 52, 127
1, 17568, Note_off_c, 1, 68, 0
1, 17568, Note_off_c, 1, 52, 0
1, 17580, Note_on_c, 1, 64, 127
1, 17580, Note_on_c, 1, 54, 127
1, 17628, Note_off_c, 1, 64, 0
1, 17628, Note_off_c, 1, 54, 0
1, 17640, Note_on_c, 1, 77, 127
1, 17640, Note_on_c, 1, 56, 127
1, 17688, Note_off_c, 1, 56, 0
1, 17700, Note_on_c, 1, 57, 127
1, 17748, Note_off_c, 1, 57, 0
1, 17760, Note_on_c, 1, 59, 127
1, 17808, Note_off_c, 1, 59, 0
1, 17856, Note_off_c, 1, 77, 0
1, 17880, Note_on_c, 1, 76, 127
1, 17880, Note_on_c, 1, 56, 127
1, 17928, Note_off_c, 1, 56, 0
1, 17940, Note_on_c, 1, 59, 127
1, 17970, Note_off_c, 1, 76, 0
1, 17988, Note_off_c, 1, 59, 0
1, 18000, Note_on_c, 1, 74, 127
1, 18000, Note_on_c, 1, 52, 127
1, 18048, Note_off_c, 1, 52, 0
1, 18060, Note_on_c, 1, 56, 127
1, 18090, Note_off_c, 1, 74, 0
1, 18108, Note_off_c, 1, 56, 0
1, 18120, Note_on_c, 1, 72, 127
1, 18120, Note_on_c, 1, 57, 127
1, 18168, Note_off_c, 1, 72, 0
1, 18180, Note_on_c, 1, 76, 127
1, 18210, Note_off_c, 1, 57, 0
1, 18228, Note_off_c, 1, 76, 0
1, 18240, Note_on_c, 1, 81, 127
1, 18240, Note_on_c, 1, 50, 127
1, 18288, Note_off_c, 1, 81, 0
1, 18300, Note_on_c, 1, 76, 127
1, 18330, Note_off_c, 1, 50, 0
1, 18348, Note_off_c, 1, 76, 0
1, 18360, Note_on_c, 1, 74, 127
1, 18360, Note_on_c, 1, 52, 127
1, 18408, Note_off_c, 1, 74, 0
1, 18420, Note_on_c, 1, 80, 127
1, 18450, Note_off_c, 1, 52, 0
1, 18468, Note_off_c, 1, 80, 0
1, 18480, Note_on_c, 1, 81, 127
1, 18480, Note_on_c, 1, 45, 127
1, 18528, Note_off_c, 1, 81, 0
1, 18540, Note_on_c, 1, 76, 127
1, 18570, Note_off_c, 1, 45, 0
1, 18588, Note_off_c, 1, 76, 0
1, 18600, Note_on_c, 1, 72, 127
1, 18600, Note_on_c, 1, 57, 127
1, 18648, Note_off_c, 1, 72, 0
1, 18660, Note_on_c, 1, 69, 127
1, 18690, Note_off_c, 1, 57, 0
1, 18708, Note_off_c, 1, 69, 0
1, 18720, Note_on_c, 1, 72, 127
1, 18720, Note_on_c, 1, 55, 127
1, 18768, Note_off_c, 1, 72, 0
1, 18780, Note_on_c, 1, 76, 127
1, 18810, Note_off_c, 1, 55, 0
1, 18828, Note_off_c, 1, 76, 0
1, 18840, Note_on_c, 1, 81, 127
1, 18840, Note_on_c, 1, 54, 127
1, 18888, Note_off_c, 1, 81, 0
1, 18900, Note_on_c, 1, 78, 127
1, 18930, Note_off_c, 1, 54, 0
1, 18948, Note_off_c, 1, 78, 0
1, 18960, Note_on_c, 1, 75, 127
1, 18960, Note_on_c, 1, 47, 127
1, 19008, Note_off_c, 1, 75, 0
1, 19008, Note_off_c, 1, 47, 0
1, 19020, Note_on_c, 1, 71, 127
1, 19020, Note_on_c, 1, 49, 127
1, 19068, Note_off_c, 1, 71, 0
1, 19068, Note_off_c, 1, 49, 0
1, 19080, Note_on_c, 1, 72, 127
1, 19080, Note_on_c, 1, 51, 127
1, 19128, Note_off_c, 1, 51, 0
1, 19140, Note_on_c, 1, 52, 127
1, 19188, Note_off_c, 1, 52, 0
1, 19200, Note_on_c, 1, 54, 127
1, 19248, Note_off_c, 1, 54, 0
1, 19296, Note_off_c, 1, 72, 0
1, 19320, Note_on_c, 1, 71, 127
1, 19320, Note_on_c, 1, 51, 127
1, 19368, Note_off_c, 1, 51, 0
1, 19380, Note_on_c, 1, 54, 127
1, 19410, Note_off_c, 1, 71, 0
1, 19428, Note_off_c, 1, 54, 0
1, 19440, Note_on_c, 1, 69, 127
1, 19440, Note_on_c, 1, 47, 127
1, 19488, Note_off_c, 1, 47, 0
1, 19500, Note_on_c, 1, 51, 127
1, 19530, Note_off_c, 1, 69, 0
1, 19548, Note_off_c, 1, 51, 0
1, 19560, Note_on_c, 1, 67, 127
1, 19560, Note_on_c, 1, 52, 127
1, 19608, Note_off_c, 1, 67, 0
1, 19620, Note_on_c, 1, 71, 127
1, 19650, Note_off_c, 1, 52, 0
1, 19668, Note_off_c, 1, 71, 0
1, 19680, Note_on_c, 1, 76, 127
1, 19680, Note_on_c, 1, 48, 127
1, 19728, Note_off_c, 1, 76, 0
1, 19740, Note_on_c, 1, 75, 127
1, 19770, Note_off_c, 1, 48, 0
1, 19788, Note_off_c, 1, 75, 0
1, 19800, Note_on_c, 1, 76, 127
1, 19800, Note_on_c, 1, 45, 127
1, 19848, Note_off_c, 1, 76, 0
1, 19860, Note_on_c, 1, 78, 127
1, 19890, Note_off_c, 1, 45, 0
1, 19908, Note_off_c, 1, 78, 0
1, 19920, Note_on_c, 1, 76, 127
1, 19920, Note_on_c, 1, 47, 127
1, 19968, Note_off_c, 1, 76, 0
1, 19980, Note_on_c, 1, 75, 127
1, 20028, Note_off_c, 1, 75, 0
1, 20040, Note_on_c, 1, 73, 127
1, 20064, Note_off_c, 1, 47, 0
1, 20088, Note_off_c, 1, 73, 0
1, 20100, Note_on_c, 1, 71, 127
1, 20100, Note_on_c, 1, 59, 127
1, 20148, Note_off_c, 1, 71, 0
1, 20148, Note_off_c, 1, 59, 0
1, 20160, Note_on_c, 1, 83, 127
1, 20160, Note_on_c, 1, 57, 127
1, 20208, Note_off_c, 1, 57, 0
1, 20220, Note_on_c, 1, 54, 127
1, 20268, Note_off_c, 1, 54, 0
1, 20280, Note_on_c, 1, 56, 127
1, 20328, Note_off_c, 1, 83, 0
1, 20340, Note_on_c, 1, 76, 127
1, 20370, Note_off_c, 1, 56, 0
1, 20388, Note_off_c, 1, 76, 0
1, 20400, Note_on_c, 1, 77, 127
1, 20400, Note_on_c, 1, 52, 127
1, 20448, Note_off_c, 1, 77, 0
1, 20460, Note_on_c, 1, 74, 127
1, 20490, Note_off_c, 1, 52, 0
1, 20508, Note_off_c, 1, 74, 0
1, 20520, Note_on_c, 1, 76, 127
1, 20520, Note_on_c, 1, 56, 127
1, 20568, Note_off_c, 1, 76, 0
1, 20580, Note_on_c, 1, 71, 127
1, 20610, Note_off_c, 1, 56, 0
1, 20628, Note_off_c, 1, 71, 0
1, 20640, Note_on_c, 1, 74, 127
1, 20640, Note_on_c, 1, 45, 127
1, 20688, Note_off_c, 1, 74, 0
1, 20700, Note_on_c, 1, 72, 127
1, 20748, Note_off_c, 1, 72, 0
1, 20760, Note_on_c, 1, 71, 127
1, 20784, Note_off_c, 1, 45, 0
1, 20808, Note_off_c, 1, 71, 0
1, 20820, Note_on_c, 1, 69, 127
1, 20820, Note_on_c, 1, 57, 127
1, 20868, Note_off_c, 1, 69, 0
1, 20868, Note_off_c, 1, 57, 0
1, 20880, Note_on_c, 1, 81, 127
1, 20880, Note_on_c, 1, 55, 127
1, 20928, Note_off_c, 1, 55, 0
1, 20940, Note_on_c, 1, 52, 127
1, 20988, Note_off_c, 1, 52, 0
1, 21000, Note_on_c, 1, 54, 127
1, 21048, Note_off_c, 1, 81, 0
1, 21060, Note_on_c, 1, 74, 127
1, 21090, Note_off_c, 1, 54, 0
1, 21108, Note_off_c, 1, 74, 0
1, 21120, Note_on_c, 1, 75, 127
1, 21120, Note_on_c, 1, 50, 127
1, 21168, Note_off_c, 1, 75, 0
1, 21180, Note_on_c, 1, 72, 127
1, 21210, Note_off_c, 1, 50, 0
1, 21228, Note_off_c, 1, 72, 0
1, 21240, Note_on_c, 1, 74, 127
1, 21240, Note_on_c, 1, 54, 127
1, 21288, Note_off_c, 1, 74, 0
1, 21300, Note_on_c, 1, 69, 127
1, 21330, Note_off_c, 1, 54, 0
1, 21348, Note_off_c, 1, 69, 0
1, 21360, Note_on_c, 1, 72, 127
1, 21360, Note_on_c, 1, 45, 127
1, 21408, Note_off_c, 1, 72, 0
1, 21420, Note_on_c, 1, 71, 127
1, 21468, Note_off_c, 1, 71, 0
1, 21480, Note_on_c, 1, 69, 127
1, 21504, Note_off_c, 1, 45, 0
1, 21528, Note_off_c, 1, 69, 0
1, 21540, Note_on_c, 1, 67, 127
1, 21540, Note_on_c, 1, 50, 127
1, 21588, Note_off_c, 1, 67, 0
1, 21588, Note_off_c, 1, 50, 0
1, 21600, Note_on_c, 1, 74, 127
1, 21600, Note_on_c, 1, 48, 127
1, 21648, Note_off_c, 1, 48, 0
1, 21660, Note_on_c, 1, 45, 127
1, 21708, Note_off_c, 1, 45, 0
1, 21720, Note_on_c, 1, 47, 127
1, 21768, Note_off_c, 1, 74, 0
1, 21780, Note_on_c, 1, 69, 127
1, 21810, Note_off_c, 1, 47, 0
1, 21828, Note_off_c, 1, 69, 0
1, 21840, Note_on_c, 1, 71, 127
1, 21840, Note_on_c, 1, 43, 127
1, 21888, Note_off_c, 1, 71, 0
1, 21900, Note_on_c, 1, 67, 127
1, 21930, Note_off_c, 1, 43, 0
1, 21948, Note_off_c, 1, 67, 0
1, 21960, Note_on_c, 1, 69, 127
1, 22008, Note_off_c, 1, 69, 0
1, 22020, Note_on_c, 1, 65, 127
1, 22068, Note_off_c, 1, 65, 0
1, 22080, Note_on_c, 1, 64, 127
1, 22080, Note_on_c, 1, 48, 127
1, 22128, Note_off_c, 1, 64, 0
1, 22140, Note_on_c, 1, 74, 127
1, 22170, Note_off_c, 1, 48, 0
1, 22188, Note_off_c, 1, 74, 0
1, 22200, Note_on_c, 1, 72, 127
1, 22200, Note_on_c, 1, 45, 127
1, 22248, Note_off_c, 1, 72, 0
1, 22260, Note_on_c, 1, 69, 127
1, 22290, Note_off_c, 1, 45, 0
1, 22308, Note_off_c, 1, 69, 0
1, 22320, Note_on_c, 1, 71, 127
1, 22368, Note_off_c, 1, 71, 0
1, 22380, Note_on_c, 1, 67, 127
1, 22428, Note_off_c, 1, 67, 0
1, 22440, Note_on_c, 1, 78, 127
1, 22440, Note_on_c, 1, 50, 127
1, 22488, Note_off_c, 1, 78, 0
1, 22500, Note_on_c, 1, 79, 127
1, 22530, Note_off_c, 1, 50, 0
1, 22548, Note_off_c, 1, 79, 0
1, 22560, Note_on_c, 1, 72, 127
1, 22560, Note_on_c, 1, 48, 127
1, 22608, Note_off_c, 1, 72, 0
1, 22620, Note_on_c, 1, 71, 127
1, 22650, Note_off_c, 1, 48, 0
1, 22668, Note_off_c, 1, 71, 0
1, 22680, Note_on_c, 1, 69, 127
1, 22680, Note_on_c, 1, 50, 127
1, 22728, Note_off_c, 1, 69, 0
1, 22740, Note_on_c, 1, 71, 127
1, 22770, Note_off_c, 1, 50, 0
1, 22788, Note_off_c, 1, 71, 0
1, 22800, Note_on_c, 1, 67, 127
1, 22800, Note_on_c, 1, 55, 127
1, 22848, Note_off_c, 1, 55, 0
1, 22860, Note_on_c, 1, 57, 127
1, 22908, Note_off_c, 1, 57, 0
1, 22920, Note_on_c, 1, 59, 127
1, 22968, Note_off_c, 1, 59, 0
1, 22992, Note_off_c, 1, 67, 0
1, 23040, Note_on_c, 1, 71, 127
1, 23040, Note_on_c, 1, 57, 127
1, 23088, Note_off_c, 1, 57, 0
1, 23100, Note_on_c, 1, 54, 127
1, 23136, Note_off_c, 1, 71, 0
1, 23148, Note_off_c, 1, 54, 0
1, 23160, Note_on_c, 1, 76, 127
1, 23160, Note_on_c, 1, 55, 127
1, 23208, Note_off_c, 1, 76, 0
1, 23220, Note_on_c, 1, 78, 127
1, 23250, Note_off_c, 1, 55, 0
1, 23268, Note_off_c, 1, 78, 0
1, 23280, Note_on_c, 1, 79, 127
1, 23280, Note_on_c, 1, 57, 127
1, 23370, Note_off_c, 1, 79, 0
1, 23370, Note_off_c, 1, 57, 0
1, 23400, Note_on_c, 1, 78, 127
1, 23400, Note_on_c, 1, 59, 127
1, 23490, Note_off_c, 1, 78, 0
1, 23490, Note_off_c, 1, 59, 0
1, 23520, Note_on_c, 1, 79, 127
1, 23520, Note_on_c, 1, 52, 127
1, 23610, Note_off_c, 1, 52, 0
1, 23616, Note_off_c, 1, 79, 0
1, 23640, Note_on_c, 1, 76, 127
1, 23640, Note_on_c, 1, 55, 127
1, 23688, Note_off_c, 1, 76, 0
1, 23700, Note_on_c, 1, 75, 127
1, 23730, Note_off_c, 1, 55, 0
1, 23748, Note_off_c, 1, 75, 0
1, 23760, Note_on_c, 1, 76, 127
1, 23760, Note_on_c, 1, 59, 127
1, 23808, Note_off_c, 1, 76, 0
1, 23820, Note_on_c, 1, 78, 127
1, 23850, Note_off_c, 1, 59, 0
1, 23868, Note_off_c, 1, 78, 0
1, 23880, Note_on_c, 1, 79, 127
1, 23880, Note_on_c, 1, 64, 127
1, 23928, Note_off_c, 1, 79, 0
1, 23928, Note_off_c, 1, 64, 0
1, 23940, Note_on_c, 1, 81, 127
1, 23940, Note_on_c, 1, 66, 127
1, 23988, Note_off_c, 1, 81, 0
1, 23988, Note_off_c, 1, 66, 0
1, 24000, Note_on_c, 1, 83, 127
1, 24000, Note_on_c, 1, 67, 127
1, 24048, Note_off_c, 1, 83, 0
1, 24060, Note_on_c, 1, 84, 127
1, 24090, Note_off_c, 1, 67, 0
1, 24108, Note_off_c, 1, 84, 0
1, 24120, Note_on_c, 1, 83, 127
1, 24120, Note_on_c, 1, 66, 127
1, 24168, Note_off_c, 1, 83, 0
1, 24180, Note_on_c, 1, 81, 127
1, 24210, Note_off_c, 1, 66, 0
1, 24228, Note_off_c, 1, 81, 0
1, 24240, Note_on_c, 1, 83, 127
1, 24240, Note_on_c, 1, 67, 127
1, 24288, Note_off_c, 1, 83, 0
1, 24300, Note_on_c, 1, 76, 127
1, 24336, Note_off_c, 1, 67, 0
1, 24348, Note_off_c, 1, 76, 0
1, 24360, Note_on_c, 1, 78, 127
1, 24360, Note_on_c, 1, 66, 127
1, 24408, Note_off_c, 1, 78, 0
1, 24408, Note_off_c, 1, 66, 0
1, 24420, Note_on_c, 1, 79, 127
1, 24420, Note_on_c, 1, 64, 127
1, 24468, Note_off_c, 1, 79, 0
1, 24468, Note_off_c, 1, 64, 0
1, 24480, Note_on_c, 1, 81, 127
1, 24480, Note_on_c, 1, 66, 127
1, 24528, Note_off_c, 1, 81, 0
1, 24528, Note_off_c, 1, 66, 0
1, 24540, Note_on_c, 1, 83, 127
1, 24540, Note_on_c, 1, 67, 127
1, 24588, Note_off_c, 1, 83, 0
1, 24588, Note_off_c, 1, 67, 0
1, 24600, Note_on_c, 1, 84, 127
1, 24600, Note_on_c, 1, 69, 127
1, 24690, Note_off_c, 1, 69, 0
1, 24696, Note_off_c, 1, 84, 0
1, 24720, Note_on_c, 1, 83, 127
1, 24720, Note_on_c, 1, 66, 127
1, 24768, Note_off_c, 1, 83, 0
1, 24780, Note_on_c, 1, 81, 127
1, 24810, Note_off_c, 1, 66, 0
1, 24828, Note_off_c, 1, 81, 0
1, 24840, Note_on_c, 1, 79, 127
1, 24840, Note_on_c, 1, 62, 127
1, 24888, Note_off_c, 1, 79, 0
1, 24900, Note_on_c, 1, 78, 127
1, 24930, Note_off_c, 1, 62, 0
1, 24948, Note_off_c, 1, 78, 0
1, 24960, Note_on_c, 1, 83, 127
1, 24960, Note_on_c, 1, 67, 127
1, 25050, Note_off_c, 1, 67, 0
1, 25056, Note_off_c, 1, 83, 0
1, 25080, Note_on_c, 1, 81, 127
1, 25080, Note_on_c, 1, 64, 127
1, 25128, Note_off_c, 1, 81, 0
1, 25140, Note_on_c, 1, 79, 127
1, 25170, Note_off_c, 1, 64, 0
1, 25188, Note_off_c, 1, 79, 0
1, 25200, Note_on_c, 1, 78, 127
1, 25200, Note_on_c, 1, 60, 127
1, 25248, Note_off_c, 1, 78, 0
1, 25260, Note_on_c, 1, 76, 127
1, 25290, Note_off_c, 1, 60, 0
1, 25308, Note_off_c, 1, 76, 0
1, 25320, Note_on_c, 1, 81, 127
1, 25320, Note_on_c, 1, 54, 127
1, 25368, Note_off_c, 1, 81, 0
1, 25380, Note_on_c, 1, 79, 127
1, 25410, Note_off_c, 1, 54, 0
1, 25428, Note_off_c, 1, 79, 0
1, 25440, Note_on_c, 1, 78, 127
1, 25440, Note_on_c, 1, 64, 127
1, 25488, Note_off_c, 1, 78, 0
1, 25500, Note_on_c, 1, 79, 127
1, 25530, Note_off_c, 1, 64, 0
1, 25548, Note_off_c, 1, 79, 0
1, 25560, Note_on_c, 1, 81, 127
1, 25560, Note_on_c, 1, 63, 127
1, 25608, Note_off_c, 1, 81, 0
1, 25620, Note_on_c, 1, 78, 127
1, 25650, Note_off_c, 1, 63, 0
1, 25668, Note_off_c, 1, 78, 0
1, 25680, Note_on_c, 1, 79, 127
1, 25680, Note_on_c, 1, 64, 127
1, 25728, Note_off_c, 1, 79, 0
1, 25740, Note_on_c, 1, 71, 127
1, 25770, Note_off_c, 1, 64, 0
1, 25788, Note_off_c, 1, 71, 0
1, 25800, Note_on_c, 1, 73, 127
1, 25800, Note_on_c, 1, 52, 127
1, 25848, Note_off_c, 1, 73, 0
1, 25860, Note_on_c, 1, 75, 127
1, 25890, Note_off_c, 1, 52, 0
1, 25908, Note_off_c, 1, 75, 0
1, 25920, Note_on_c, 1, 76, 127
1, 25920, Note_on_c, 1, 54, 127
1, 25968, Note_off_c, 1, 76, 0
1, 25980, Note_on_c, 1, 75, 127
1, 26010, Note_off_c, 1, 54, 0
1, 26028, Note_off_c, 1, 75, 0
1, 26040, Note_on_c, 1, 76, 127
1, 26040, Note_on_c, 1, 55, 127
1, 26088, Note_off_c, 1, 76, 0
1, 26100, Note_on_c, 1, 78, 127
1, 26130, Note_off_c, 1, 55, 0
1, 26148, Note_off_c, 1, 78, 0
1, 26160, Note_on_c, 1, 79, 127
1, 26160, Note_on_c, 1, 57, 127
1, 26208, Note_off_c, 1, 79, 0
1, 26220, Note_on_c, 1, 81, 127
1, 26250, Note_off_c, 1, 57, 0
1, 26268, Note_off_c, 1, 81, 0
1, 26280, Note_on_c, 1, 79, 127
1, 26280, Note_on_c, 1, 59, 127
1, 26328, Note_off_c, 1, 79, 0
1, 26340, Note_on_c, 1, 78, 127
1, 26370, Note_off_c, 1, 59, 0
1, 26388, Note_off_c, 1, 78, 0
1, 26400, Note_on_c, 1, 79, 127
1, 26400, Note_on_c, 1, 52, 127
1, 26448, Note_off_c, 1, 79, 0
1, 26460, Note_on_c, 1, 78, 127
1, 26490, Note_off_c, 1, 52, 0
1, 26508, Note_off_c, 1, 78, 0
1, 26520, Note_on_c, 1, 76, 127
1, 26520, Note_on_c, 1, 55, 127
1, 26568, Note_off_c, 1, 76, 0
1, 26580, Note_on_c, 1, 75, 127
1, 26610, Note_off_c, 1, 55, 0
1, 26628, Note_off_c, 1, 75, 0
1, 26640, Note_on_c, 1, 76, 127
1, 26640, Note_on_c, 1, 59, 127
1, 26688, Note_off_c, 1, 76, 0
1, 26700, Note_on_c, 1, 78, 127
1, 26730, Note_off_c, 1, 59, 0
1, 26748, Note_off_c, 1, 78, 0
1, 26760, Note_on_c, 1, 79, 127
1, 26760, Note_on_c, 1, 64, 127
1, 26808, Note_off_c, 1, 79, 0
1, 26808, Note_off_c, 1, 64, 0
1, 26820, Note_on_c, 1, 81, 127
1, 26820, Note_on_c, 1, 66, 127
1, 26868, Note_off_c, 1, 81, 0
1, 26868, Note_off_c, 1, 66, 0
1, 26880, Note_on_c, 1, 83, 127
1, 26880, Note_on_c, 1, 67, 127
1, 26928, Note_off_c, 1, 83, 0
1, 26940, Note_on_c, 1, 84, 127
1, 26970, Note_off_c, 1, 67, 0
1, 26988, Note_off_c, 1, 84, 0
1, 27000, Note_on_c, 1, 83, 127
1, 27000, Note_on_c, 1, 66, 127
1, 27048, Note_off_c, 1, 83, 0
1, 27060, Note_on_c, 1, 81, 127
1, 27090, Note_off_c, 1, 66, 0
1, 27108, Note_off_c, 1, 81, 0
1, 27120, Note_on_c, 1, 83, 127
1, 27120, Note_on_c, 1, 67, 127
1, 27168, Note_off_c, 1, 83, 0
1, 27180, Note_on_c, 1, 76, 127
1, 27216, Note_off_c, 1, 67, 0
1, 27228, Note_off_c, 1, 76, 0
1, 27240, Note_on_c, 1, 78, 127
1, 27240, Note_on_c, 1, 66, 127
1, 27288, Note_off_c, 1, 78, 0
1, 27288, Note_off_c, 1, 66, 0
1, 27300, Note_on_c, 1, 79, 127
1, 27300, Note_on_c, 1, 64, 127
1, 27348, Note_off_c, 1, 79, 0
1, 27348, Note_off_c, 1, 64, 0
1, 27360, Note_on_c, 1, 81, 127
1, 27360, Note_on_c, 1, 66, 127
1, 27408, Note_off_c, 1, 81, 0
1, 27408, Note_off_c, 1, 66, 0
1, 27420, Note_on_c, 1, 83, 127
1, 27420, Note_on_c, 1, 67, 127
1, 27468, Note_off_c, 1, 83, 0
1, 27468, Note_off_c, 1, 67, 0
1, 27480, Note_on_c, 1, 84, 127
1, 27480, Note_on_c, 1, 69, 127
1, 27528, Note_off_c, 1, 84, 0
1, 27540, Note_on_c, 1, 74, 127
1, 27570, Note_off_c, 1, 69, 0
1, 27588, Note_off_c, 1, 74, 0
1, 27600, Note_on_c, 1, 76, 127
1, 27600, Note_on_c, 1, 66, 127
1, 27648, Note_off_c, 1, 76, 0
1, 27660, Note_on_c, 1, 78, 127
1, 27690, Note_off_c, 1, 66, 0
1, 27708, Note_off_c, 1, 78, 0
1, 27720, Note_on_c, 1, 79, 127
1, 27720, Note_on_c, 1, 62, 127
1, 27768, Note_off_c, 1, 79, 0
1, 27780, Note_on_c, 1, 81, 127
1, 27810, Note_off_c, 1, 62, 0
1, 27828, Note_off_c, 1, 81, 0
1, 27840, Note_on_c, 1, 83, 127
1, 27840, Note_on_c, 1, 67, 127
1, 27888, Note_off_c, 1, 67, 0
1, 27900, Note_on_c, 1, 66, 127
1, 27930, Note_off_c, 1, 83, 0
1, 27948, Note_off_c, 1, 66, 0
1, 27960, Note_on_c, 1, 71, 127
1, 27960, Note_on_c, 1, 64, 127
1, 28008, Note_off_c, 1, 64, 0
1, 28020, Note_on_c, 1, 62, 127
1, 28050, Note_off_c, 1, 71, 0
1, 28068, Note_off_c, 1, 62, 0
1, 28080, Note_on_c, 1, 76, 127
1, 28080, Note_on_c, 1, 60, 127
1, 28128, Note_off_c, 1, 60, 0
1, 28140, Note_on_c, 1, 59, 127
1, 28188, Note_off_c, 1, 59, 0
1, 28248, Note_off_c, 1, 76, 0
1, 28260, Note_on_c, 1, 78, 127
1, 28260, Note_on_c, 1, 57, 127
1, 28308, Note_off_c, 1, 78, 0
1, 28308, Note_off_c, 1, 57, 0
1, 28320, Note_on_c, 1, 79, 127
1, 28320, Note_on_c, 1, 59, 127
1, 28344, Note_off_c, 1, 79, 0
1, 28350, Note_on_c, 1, 78, 127
1, 28374, Note_off_c, 1, 78, 0
1, 28410, Note_off_c, 1, 59, 0
1, 28440, Note_on_c, 1, 79, 127
1, 28440, Note_on_c, 1, 47, 127
1, 28464, Note_off_c, 1, 79, 0
1, 28470, Note_on_c, 1, 78, 127
1, 28494, Note_off_c, 1, 78, 0
1, 28500, Note_on_c, 1, 76, 127
1, 28530, Note_off_c, 1, 47, 0
1, 28548, Note_off_c, 1, 76, 0
1, 28560, Note_on_c, 1, 76, 127
1, 28560, Note_on_c, 1, 52, 127
1, 28650, Note_off_c, 1, 52, 0
1, 28680, Note_on_c, 1, 40, 127
1, 28752, Note_off_c, 1, 76, 0
1, 28770, Note_off_c, 1, 40, 0
1, 28770, End_track
0, 0, End_of_file