0, 0, Header, 1, 1, 480
1, 0, Start_track
1, 0, Title_t, "Test"
1, 0, Tempo, 500000
1, 0, Instrument_name_t, "Church Organ"
1, 64, Note_on_c, 1, 50, 127
1, 159, Note_on_c, 1, 74, 127
1, 254, Note_on_c, 1, 76, 127
1, 255, Note_off_c, 1, 74, 0
1, 349, Note_on_c, 1, 78, 127
1, 350, Note_off_c, 1, 76, 0
1, 444, Note_on_c, 1, 62, 127
1, 444, Note_on_c, 1, 69, 127
1, 445, Note_off_c, 1, 78, 0
1, 822, Note_off_c, 1, 50, 0
1, 824, Note_on_c, 1, 81, 127
1, 824, Note_on_c, 1, 54, 127
1, 920, Note_off_c, 1, 81, 0
1, 1202, Note_off_c, 1, 62, 0
1, 1203, Note_off_c, 1, 69, 0
1, 1582, Note_off_c, 1, 54, 0
1, 1584, Note_on_c, 1, 79, 127
1, 1584, Note_on_c, 1, 52, 127
1, 1680, Note_off_c, 1, 79, 0
1, 1964, Note_on_c, 1, 71, 127
1, 2155, Note_on_c, 1, 73, 127
1, 2248, Note_off_c, 1, 71, 0
1, 2251, Note_off_c, 1, 73, 0
1, 2342, Note_off_c, 1, 52, 0
1, 2345, Note_on_c, 1, 57, 127
1, 2725, Note_on_c, 1, 61, 127
1, 3103, Note_off_c, 1, 57, 0
1, 3103, Note_off_c, 1, 61, 0
1, 4436, Note_on_c, 1, 80, 127
1, 4532, Note_off_c, 1, 80, 0
1, 5006, Note_on_c, 1, 56, 127
1, 5386, Note_on_c, 1, 49, 127
1, 5764, Note_off_c, 1, 56, 0
1, 5766, Note_on_c, 1, 66, 127
1, 6144, Note_off_c, 1, 49, 0
1, 6144, Note_off_c, 1, 66, 0
1, 6147, Note_on_c, 1, 47, 127
1, 6717, Note_on_c, 1, 68, 127
1, 6813, Note_off_c, 1, 68, 0
1, 6905, Note_off_c, 1, 47, 0
1, 7287, Note_on_c, 1, 64, 127
1, 7665, Note_off_c, 1, 64, 0
1, 7667, Note_on_c, 1, 45, 127
1, 8143, Note_on_c, 1, 67, 127
1, 8239, Note_off_c, 1, 67, 0
1, 8425, Note_off_c, 1, 45, 0
1, 8998, Note_on_c, 1, 75, 127
1, 9094, Note_off_c, 1, 75, 0
1, 9568, Note_on_c, 1, 51, 127
1, 9946, Note_off_c, 1, 51, 0
1, 9949, Note_on_c, 1, 43, 127
1, 10707, Note_off_c, 1, 43, 0
1, 10709, Note_on_c, 1, 70, 127
1, 10709, Note_on_c, 1, 42, 127
1, 10805, Note_off_c, 1, 70, 0
1, 11467, Note_off_c, 1, 42, 0
1, 12230, Note_on_c, 1, 65, 127
1, 12326, Note_off_c, 1, 65, 0
1, 13085, Note_on_c, 1, 77, 127
1, 13181, Note_off_c, 1, 77, 0
1, 13465, Note_on_c, 1, 83, 127
1, 13561, Note_off_c, 1, 83, 0
1, 15271, Note_on_c, 1, 40, 127
1, 15842, Note_on_c, 1, 72, 127
1, 15938, Note_off_c, 1, 72, 0
1, 16029, Note_off_c, 1, 40, 0
1, 18313, Note_on_c, 1, 38, 127
1, 19071, Note_off_c, 1, 38, 0
1, 20309, Note_on_c, 1, 60, 127
1, 20404, Note_on_c, 1, 59, 127
1, 20405, Note_off_c, 1, 60, 0
1, 20500, Note_off_c, 1, 59, 0
1, 22115, Note_on_c, 1, 48, 127
1, 22873, Note_off_c, 1, 48, 0
1, 22875, Note_on_c, 1, 63, 127
1, 22971, Note_off_c, 1, 63, 0
1, 23636, Note_on_c, 1, 55, 127
1, 24014, Note_off_c, 1, 55, 0
1, 24396, Note_on_c, 1, 58, 127
1, 24492, Note_off_c, 1, 58, 0
1, 42971, Note_on_c, 1, 53, 127
1, 43068, Note_off_c, 1, 53, 0
1, 44442, Note_on_c, 1, 82, 127
1, 44541, Note_off_c, 1, 82, 0
1, 44933, Note_on_c, 1, 46, 127
1, 45030, Note_off_c, 1, 46, 0
1, 45129, Note_on_c, 1, 44, 127
1, 46692, Note_off_c, 1, 44, 0
1, 47352, Note_on_c, 1, 77, 127
1, 47352, Note_on_c, 1, 45, 127
1, 47456, Note_on_c, 1, 73, 127
1, 47560, Note_off_c, 1, 73, 0
1, 47560, Note_on_c, 1, 74, 127
1, 47560, Note_on_c, 1, 57, 127
1, 47663, Note_off_c, 1, 74, 0
1, 47663, Note_on_c, 1, 69, 127
1, 47764, Note_off_c, 1, 57, 0
1, 47766, Note_off_c, 1, 69, 0
1, 47766, Note_on_c, 1, 55, 127
1, 47766, Note_on_c, 1, 70, 127
1, 47869, Note_on_c, 1, 67, 127
1, 47970, Note_off_c, 1, 77, 0
1, 47970, Note_off_c, 1, 55, 0
1, 47972, Note_off_c, 1, 67, 0
1, 47972, Note_on_c, 1, 49, 127
1, 47972, Note_on_c, 1, 76, 127
1, 48175, Note_off_c, 1, 70, 0
1, 48176, Note_off_c, 1, 49, 0
1, 48178, Note_on_c, 1, 53, 127
1, 48280, Note_on_c, 1, 65, 127
1, 48379, Note_off_c, 1, 76, 0
1, 48382, Note_off_c, 1, 53, 0
1, 48383, Note_off_c, 1, 65, 0
1, 48383, Note_on_c, 1, 50, 127
1, 48587, Note_off_c, 1, 50, 0
1, 48589, Note_on_c, 1, 52, 127
1, 48692, Note_on_c, 1, 64, 127
1, 48793, Note_off_c, 1, 52, 0
1, 48795, Note_off_c, 1, 64, 0
1, 48995, Note_off_c, 1, 45, 0
1, 49260, Note_on_c, 1, 56, 127
1, 49311, Note_on_c, 1, 59, 127
1, 49363, Note_on_c, 1, 62, 127
1, 49466, Note_on_c, 1, 68, 127
1, 49517, Note_on_c, 1, 71, 127
1, 50724, Note_off_c, 1, 59, 0
1, 50724, Note_off_c, 1, 71, 0
1, 50725, Note_off_c, 1, 56, 0
1, 50725, Note_off_c, 1, 62, 0
1, 50725, Note_off_c, 1, 68, 0
1, 50760, Note_on_c, 1, 73, 127
1, 50839, Note_on_c, 1, 71, 127
1, 50840, Note_off_c, 1, 73, 0
1, 50919, Note_off_c, 1, 71, 0
1, 50919, Note_on_c, 1, 69, 127
1, 50999, Note_off_c, 1, 69, 0
1, 50999, Note_on_c, 1, 68, 127
1, 51079, Note_off_c, 1, 68, 0
1, 51080, Note_on_c, 1, 66, 127
1, 51160, Note_off_c, 1, 66, 0
1, 51160, Note_on_c, 1, 64, 127
1, 51240, Note_off_c, 1, 64, 0
1, 51319, Note_on_c, 1, 68, 127
1, 51399, Note_off_c, 1, 68, 0
1, 51399, Note_on_c, 1, 69, 127
1, 51479, Note_off_c, 1, 69, 0
1, 51480, Note_on_c, 1, 71, 127
1, 51560, Note_off_c, 1, 71, 0
1, 51560, Note_on_c, 1, 73, 127
1, 51640, Note_off_c, 1, 73, 0
1, 51640, Note_on_c, 1, 74, 127
1, 51720, Note_off_c, 1, 74, 0
1, 51720, Note_on_c, 1, 76, 127
1, 51800, Note_off_c, 1, 76, 0
1, 51800, Note_on_c, 1, 77, 127
1, 51880, Note_off_c, 1, 77, 0
1, 52200, Note_on_c, 1, 69, 127
1, 52280, Note_off_c, 1, 69, 0
1, 52280, Note_on_c, 1, 68, 127
1, 52360, Note_off_c, 1, 68, 0
1, 52360, Note_on_c, 1, 66, 127
1, 52440, Note_off_c, 1, 66, 0
1, 52440, Note_on_c, 1, 64, 127
1, 52520, Note_off_c, 1, 64, 0
1, 52520, Note_on_c, 1, 62, 127
1, 52600, Note_off_c, 1, 62, 0
1, 52615, Note_on_c, 1, 61, 127
1, 52719, Note_on_c, 1, 64, 127
1, 52771, Note_on_c, 1, 67, 127
1, 52822, Note_on_c, 1, 70, 127
1, 52874, Note_on_c, 1, 73, 127
1, 52925, Note_on_c, 1, 76, 127
1, 52977, Note_on_c, 1, 79, 127
1, 53028, Note_on_c, 1, 82, 127
1, 53527, Note_off_c, 1, 61, 0
1, 53527, Note_off_c, 1, 64, 0
1, 53527, Note_off_c, 1, 70, 0
1, 53527, Note_off_c, 1, 76, 0
1, 53528, Note_off_c, 1, 67, 0
1, 53528, Note_off_c, 1, 73, 0
1, 53528, Note_off_c, 1, 79, 0
1, 53528, Note_off_c, 1, 82, 0
1, 53555, Note_on_c, 1, 62, 127
1, 53676, Note_on_c, 1, 65, 127
1, 53733, Note_on_c, 1, 68, 127
1, 53789, Note_on_c, 1, 71, 127
1, 53846, Note_on_c, 1, 74, 127
1, 53902, Note_on_c, 1, 77, 127
1, 53958, Note_on_c, 1, 80, 127
1, 54015, Note_on_c, 1, 83, 127
1, 54695, Note_off_c, 1, 62, 0
1, 54695, Note_off_c, 1, 65, 0
1, 54695, Note_off_c, 1, 71, 0
1, 54695, Note_off_c, 1, 80, 0
1, 54696, Note_off_c, 1, 68, 0
1, 54696, Note_off_c, 1, 74, 0
1, 54696, Note_off_c, 1, 77, 0
1, 54696, Note_off_c, 1, 83, 0
1, 54818, Note_on_c, 1, 45, 127
1, 54947, Note_on_c, 1, 52, 127
1, 55043, Note_on_c, 1, 57, 127
1, 55139, Note_on_c, 1, 64, 127
1, 55236, Note_on_c, 1, 69, 127
1, 55332, Note_on_c, 1, 74, 127
1, 55425, Note_off_c, 1, 69, 0
1, 55517, Note_off_c, 1, 64, 0
1, 55616, Note_off_c, 1, 57, 0
1, 55619, Note_on_c, 1, 62, 127
1, 55712, Note_off_c, 1, 52, 0
1, 55866, Note_off_c, 1, 45, 0
1, 55888, Note_off_c, 1, 74, 0
1, 55888, Note_off_c, 1, 62, 0
1, 55916, Note_on_c, 1, 45, 127
1, 56036, Note_on_c, 1, 52, 127
1, 56133, Note_on_c, 1, 57, 127
1, 56229, Note_on_c, 1, 64, 127
1, 56325, Note_on_c, 1, 67, 127
1, 56421, Note_on_c, 1, 73, 127
1, 56431, Note_off_c, 1, 67, 0
1, 56517, Note_on_c, 1, 69, 127
1, 56610, Note_off_c, 1, 64, 0
1, 56708, Note_on_c, 1, 61, 127
1, 56802, Note_off_c, 1, 57, 0
1, 56885, Note_off_c, 1, 52, 0
1, 56923, Note_off_c, 1, 73, 0
1, 56923, Note_off_c, 1, 69, 0
1, 56923, Note_off_c, 1, 61, 0
1, 56964, Note_off_c, 1, 45, 0
1, 57004, Note_on_c, 1, 50, 127
1, 57126, Note_on_c, 1, 54, 127
1, 57222, Note_on_c, 1, 57, 127
1, 57318, Note_on_c, 1, 62, 127
1, 57414, Note_on_c, 1, 66, 127
1, 57510, Note_on_c, 1, 69, 127
1, 57605, Note_on_c, 1, 74, 127
1, 57699, Note_off_c, 1, 69, 0
1, 57795, Note_off_c, 1, 66, 0
1, 57892, Note_off_c, 1, 62, 0
1, 57987, Note_off_c, 1, 57, 0
1, 58083, Note_off_c, 1, 54, 0
1, 58152, Note_off_c, 1, 50, 0
1, 58179, Note_off_c, 1, 74, 0
1, 58476, Note_on_c, 1, 38, 127
1, 59360, Note_on_c, 1, 45, 127
1, 59360, Note_on_c, 1, 42, 127
1, 62098, Note_off_c, 1, 38, 0
1, 62098, Note_off_c, 1, 45, 0
1, 62098, Note_off_c, 1, 42, 0
1, 62283, Note_on_c, 1, 50, 127
1, 62536, Note_on_c, 1, 52, 127
1, 62542, Note_off_c, 1, 50, 0
1, 62604, Note_off_c, 1, 52, 0
1, 62607, Note_on_c, 1, 54, 127
1, 62675, Note_off_c, 1, 54, 0
1, 62677, Note_on_c, 1, 55, 127
1, 62745, Note_off_c, 1, 55, 0
1, 62747, Note_on_c, 1, 54, 127
1, 62815, Note_off_c, 1, 54, 0
1, 62818, Note_on_c, 1, 52, 127
1, 62886, Note_off_c, 1, 52, 0
1, 62888, Note_on_c, 1, 54, 127
1, 62956, Note_off_c, 1, 54, 0
1, 62958, Note_on_c, 1, 50, 127
1, 63026, Note_off_c, 1, 50, 0
1, 63029, Note_on_c, 1, 59, 127
1, 63661, Note_off_c, 1, 59, 0
1, 63663, Note_on_c, 1, 59, 127
1, 63752, Note_off_c, 1, 59, 0
1, 63754, Note_on_c, 1, 57, 127
1, 64386, Note_off_c, 1, 57, 0
1, 64389, Note_on_c, 1, 55, 127
1, 64478, Note_off_c, 1, 55, 0
1, 64480, Note_on_c, 1, 54, 127
1, 65112, Note_off_c, 1, 54, 0
1, 65115, Note_on_c, 1, 55, 127
1, 65204, Note_off_c, 1, 55, 0
1, 65206, Note_on_c, 1, 57, 127
1, 65206, Note_on_c, 1, 54, 127
1, 65439, Note_off_c, 1, 57, 0
1, 65441, Note_on_c, 1, 59, 127
1, 65509, Note_off_c, 1, 59, 0
1, 65512, Note_on_c, 1, 61, 127
1, 65580, Note_off_c, 1, 61, 0
1, 65582, Note_on_c, 1, 62, 127
1, 65650, Note_off_c, 1, 62, 0
1, 65840, Note_off_c, 1, 54, 0
1, 65842, Note_on_c, 1, 52, 127
1, 65931, Note_off_c, 1, 52, 0
1, 65933, Note_on_c, 1, 66, 127
1, 65933, Note_on_c, 1, 50, 127
1, 66565, Note_off_c, 1, 66, 0
1, 66656, Note_off_c, 1, 50, 0
1, 66659, Note_on_c, 1, 64, 127
1, 66659, Note_on_c, 1, 52, 127
1, 67291, Note_off_c, 1, 64, 0
1, 67294, Note_on_c, 1, 62, 127
1, 67382, Note_off_c, 1, 52, 0
1, 67383, Note_off_c, 1, 62, 0
1, 67385, Note_on_c, 1, 45, 127
1, 67385, Note_on_c, 1, 61, 127
1, 67926, Note_off_c, 1, 45, 0
1, 67929, Note_on_c, 1, 52, 127
1, 67987, Note_off_c, 1, 52, 0
1, 67989, Note_on_c, 1, 54, 127
1, 68047, Note_off_c, 1, 54, 0
1, 68049, Note_on_c, 1, 55, 127
1, 68107, Note_off_c, 1, 61, 0
1, 68107, Note_off_c, 1, 55, 0
1, 68110, Note_on_c, 1, 66, 127
1, 68110, Note_on_c, 1, 57, 127
1, 68742, Note_off_c, 1, 66, 0
1, 68835, Note_on_c, 1, 59, 127
1, 69376, Note_off_c, 1, 59, 0
1, 69439, Note_on_c, 1, 61, 127
1, 69497, Note_off_c, 1, 61, 0
1, 69500, Note_on_c, 1, 62, 127
1, 69558, Note_off_c, 1, 57, 0
1, 69558, Note_off_c, 1, 62, 0
1, 69560, Note_on_c, 1, 64, 127
1, 69560, Note_on_c, 1, 55, 127
1, 69739, Note_off_c, 1, 64, 0
1, 69741, Note_on_c, 1, 62, 127
1, 69920, Note_off_c, 1, 62, 0
1, 70104, Note_on_c, 1, 61, 127
1, 70283, Note_off_c, 1, 61, 0
1, 70285, Note_on_c, 1, 59, 127
1, 70343, Note_off_c, 1, 59, 0
1, 70345, Note_on_c, 1, 57, 127
1, 70403, Note_off_c, 1, 57, 0
1, 70886, Note_off_c, 1, 55, 0
1, 70889, Note_on_c, 1, 54, 127
1, 70947, Note_off_c, 1, 54, 0
1, 70949, Note_on_c, 1, 52, 127
1, 71007, Note_off_c, 1, 52, 0
1, 71010, Note_on_c, 1, 54, 127
1, 71010, Note_on_c, 1, 62, 127
1, 71245, Note_on_c, 1, 64, 127
1, 71313, Note_off_c, 1, 64, 0
1, 71316, Note_on_c, 1, 66, 127
1, 71384, Note_off_c, 1, 66, 0
1, 71386, Note_on_c, 1, 67, 127
1, 71454, Note_off_c, 1, 67, 0
1, 71644, Note_off_c, 1, 54, 0
1, 71646, Note_on_c, 1, 50, 127
1, 71661, Note_off_c, 1, 62, 0
1, 71735, Note_off_c, 1, 50, 0
1, 71737, Note_on_c, 1, 71, 127
1, 71737, Note_on_c, 1, 55, 127
1, 72369, Note_off_c, 1, 71, 0
1, 72369, Note_off_c, 1, 55, 0
1, 72372, Note_on_c, 1, 52, 127
1, 72461, Note_off_c, 1, 52, 0
1, 72463, Note_on_c, 1, 69, 127
1, 72463, Note_on_c, 1, 57, 127
1, 72463, Note_on_c, 1, 61, 127
1, 73095, Note_off_c, 1, 69, 0
1, 73095, Note_off_c, 1, 57, 0
1, 73098, Note_on_c, 1, 67, 127
1, 73098, Note_on_c, 1, 45, 127
1, 73180, Note_off_c, 1, 61, 0
1, 73187, Note_off_c, 1, 67, 0
1, 73187, Note_off_c, 1, 45, 0
1, 73189, Note_on_c, 1, 66, 127
1, 73189, Note_on_c, 1, 62, 127
1, 73189, Note_on_c, 1, 50, 127
1, 73640, Note_off_c, 1, 66, 0
1, 73642, Note_on_c, 1, 69, 127
1, 73652, Note_off_c, 1, 62, 0
1, 73708, Note_off_c, 1, 69, 0
1, 73711, Note_on_c, 1, 68, 127
1, 73777, Note_off_c, 1, 68, 0
1, 73822, Note_off_c, 1, 50, 0
1, 73825, Note_on_c, 1, 52, 127
1, 73914, Note_off_c, 1, 52, 0
1, 73916, Note_on_c, 1, 61, 127
1, 73916, Note_on_c, 1, 54, 127
1, 73916, Note_on_c, 1, 69, 127
1, 74151, Note_on_c, 1, 71, 127
1, 74219, Note_off_c, 1, 71, 0
1, 74222, Note_on_c, 1, 73, 127
1, 74290, Note_off_c, 1, 73, 0
1, 74292, Note_on_c, 1, 74, 127
1, 74360, Note_off_c, 1, 74, 0
1, 74550, Note_off_c, 1, 61, 0
1, 74550, Note_off_c, 1, 54, 0
1, 74552, Note_on_c, 1, 52, 127
1, 74567, Note_off_c, 1, 69, 0
1, 74641, Note_off_c, 1, 52, 0
1, 74643, Note_on_c, 1, 78, 127
1, 74643, Note_on_c, 1, 59, 127
1, 74643, Note_on_c, 1, 50, 127
1, 75275, Note_off_c, 1, 78, 0
1, 75275, Note_off_c, 1, 59, 0
1, 75275, Note_off_c, 1, 50, 0
1, 75278, Note_on_c, 1, 47, 127
1, 75367, Note_off_c, 1, 47, 0
1, 75369, Note_on_c, 1, 76, 127
1, 75369, Note_on_c, 1, 68, 127
1, 75369, Note_on_c, 1, 52, 127
1, 76001, Note_off_c, 1, 76, 0
1, 76004, Note_on_c, 1, 74, 127
1, 76086, Note_off_c, 1, 68, 0
1, 76092, Note_off_c, 1, 52, 0
1, 76093, Note_off_c, 1, 74, 0
1, 76095, Note_on_c, 1, 73, 127
1, 76095, Note_on_c, 1, 69, 127
1, 76095, Note_on_c, 1, 45, 127
1, 76095, Note_on_c, 1, 57, 127
1, 76636, Note_off_c, 1, 73, 0
1, 76636, Note_off_c, 1, 69, 0
1, 76638, Note_on_c, 1, 76, 127
1, 76696, Note_off_c, 1, 76, 0
1, 76698, Note_off_c, 1, 45, 0
1, 76699, Note_on_c, 1, 78, 127
1, 76755, Note_off_c, 1, 57, 0
1, 76757, Note_off_c, 1, 78, 0
1, 76759, Note_on_c, 1, 79, 127
1, 76817, Note_off_c, 1, 79, 0
1, 76820, Note_on_c, 1, 66, 127
1, 76820, Note_on_c, 1, 81, 127
1, 76820, Note_on_c, 1, 73, 127
1, 77053, Note_off_c, 1, 66, 0
1, 77055, Note_on_c, 1, 67, 127
1, 77123, Note_off_c, 1, 67, 0
1, 77126, Note_on_c, 1, 69, 127
1, 77194, Note_off_c, 1, 69, 0
1, 77196, Note_on_c, 1, 71, 127
1, 77264, Note_off_c, 1, 71, 0
1, 77454, Note_off_c, 1, 81, 0
1, 77539, Note_off_c, 1, 73, 0
1, 77547, Note_on_c, 1, 74, 127
1, 77547, Note_on_c, 1, 81, 127
1, 77547, Note_on_c, 1, 71, 127
1, 78088, Note_off_c, 1, 74, 0
1, 78088, Note_off_c, 1, 81, 0
1, 78151, Note_on_c, 1, 76, 127
1, 78209, Note_off_c, 1, 76, 0
1, 78212, Note_on_c, 1, 78, 127
1, 78269, Note_off_c, 1, 71, 0
1, 78270, Note_off_c, 1, 78, 0
1, 78272, Note_on_c, 1, 64, 127
1, 78272, Note_on_c, 1, 79, 127
1, 78272, Note_on_c, 1, 74, 127
1, 78505, Note_off_c, 1, 64, 0
1, 78508, Note_on_c, 1, 66, 127
1, 78576, Note_off_c, 1, 66, 0
1, 78578, Note_on_c, 1, 67, 127
1, 78646, Note_off_c, 1, 67, 0
1, 78648, Note_on_c, 1, 69, 127
1, 78716, Note_off_c, 1, 69, 0
1, 78906, Note_off_c, 1, 79, 0
1, 78991, Note_off_c, 1, 74, 0
1, 79000, Note_on_c, 1, 79, 127
1, 79000, Note_on_c, 1, 73, 127
1, 79000, Note_on_c, 1, 69, 127
1, 79541, Note_off_c, 1, 79, 0
1, 79541, Note_off_c, 1, 73, 0
1, 79543, Note_on_c, 1, 76, 127
1, 79601, Note_off_c, 1, 76, 0
1, 79604, Note_on_c, 1, 74, 127
1, 79660, Note_off_c, 1, 69, 0
1, 79662, Note_off_c, 1, 74, 0
1, 79664, Note_on_c, 1, 73, 127
1, 79722, Note_off_c, 1, 73, 0
1, 79725, Note_on_c, 1, 38, 127
1, 79725, Note_on_c, 1, 69, 127
1, 79785, Note_on_c, 1, 74, 127
1, 79845, Note_on_c, 1, 76, 127
1, 79903, Note_off_c, 1, 76, 0
1, 79906, Note_on_c, 1, 78, 127
1, 79958, Note_off_c, 1, 38, 0
1, 79960, Note_on_c, 1, 40, 127
1, 80028, Note_off_c, 1, 40, 0
1, 80031, Note_on_c, 1, 42, 127
1, 80099, Note_off_c, 1, 42, 0
1, 80101, Note_on_c, 1, 43, 127
1, 80169, Note_off_c, 1, 43, 0
1, 80345, Note_off_c, 1, 69, 0
1, 80345, Note_off_c, 1, 74, 0
1, 80358, Note_off_c, 1, 78, 0
1, 80360, Note_on_c, 1, 73, 127
1, 80360, Note_on_c, 1, 67, 127
1, 80449, Note_off_c, 1, 73, 0
1, 80449, Note_off_c, 1, 67, 0
1, 80451, Note_on_c, 1, 74, 127
1, 80451, Note_on_c, 1, 71, 127
1, 80451, Note_on_c, 1, 66, 127
1, 80451, Note_on_c, 1, 47, 127
1, 81083, Note_off_c, 1, 74, 0
1, 81083, Note_off_c, 1, 71, 0
1, 81083, Note_off_c, 1, 66, 0
1, 81083, Note_off_c, 1, 47, 0
1, 81086, Note_on_c, 1, 76, 127
1, 81086, Note_on_c, 1, 67, 127
1, 81086, Note_on_c, 1, 47, 127
1, 81175, Note_off_c, 1, 76, 0
1, 81175, Note_off_c, 1, 67, 0
1, 81175, Note_off_c, 1, 47, 0
1, 81177, Note_on_c, 1, 64, 127
1, 81177, Note_on_c, 1, 69, 127
1, 81177, Note_on_c, 1, 73, 127
1, 81177, Note_on_c, 1, 45, 127
1, 81809, Note_off_c, 1, 64, 0
1, 81809, Note_off_c, 1, 69, 0
1, 81809, Note_off_c, 1, 73, 0
1, 81809, Note_off_c, 1, 45, 0
1, 81812, Note_on_c, 1, 69, 127
1, 81812, Note_on_c, 1, 73, 127
1, 81812, Note_on_c, 1, 64, 127
1, 81812, Note_on_c, 1, 43, 127
1, 81901, Note_off_c, 1, 69, 0
1, 81901, Note_off_c, 1, 73, 0
1, 81901, Note_off_c, 1, 64, 0
1, 81901, Note_off_c, 1, 43, 0
1, 81903, Note_on_c, 1, 42, 127
1, 81903, Note_on_c, 1, 73, 127
1, 81903, Note_on_c, 1, 69, 127
1, 81903, Note_on_c, 1, 62, 127
1, 82444, Note_off_c, 1, 42, 0
1, 82446, Note_on_c, 1, 50, 127
1, 82504, Note_off_c, 1, 50, 0
1, 82507, Note_on_c, 1, 52, 127
1, 82565, Note_off_c, 1, 52, 0
1, 82567, Note_on_c, 1, 54, 127
1, 82625, Note_off_c, 1, 73, 0
1, 82625, Note_off_c, 1, 69, 0
1, 82625, Note_off_c, 1, 62, 0
1, 82625, Note_off_c, 1, 54, 0
1, 82628, Note_on_c, 1, 55, 127
1, 82628, Note_on_c, 1, 71, 127
1, 82628, Note_on_c, 1, 62, 127
1, 82863, Note_on_c, 1, 73, 127
1, 82931, Note_off_c, 1, 73, 0
1, 82933, Note_on_c, 1, 74, 127
1, 83001, Note_off_c, 1, 74, 0
1, 83004, Note_on_c, 1, 76, 127
1, 83072, Note_off_c, 1, 76, 0
1, 83262, Note_off_c, 1, 55, 0
1, 83264, Note_on_c, 1, 54, 127
1, 83279, Note_off_c, 1, 71, 0
1, 83347, Note_off_c, 1, 62, 0
1, 83353, Note_off_c, 1, 54, 0
1, 83355, Note_on_c, 1, 79, 127
1, 83355, Note_on_c, 1, 52, 127
1, 83355, Note_on_c, 1, 61, 127
1, 83987, Note_off_c, 1, 79, 0
1, 83987, Note_off_c, 1, 52, 0
1, 83990, Note_on_c, 1, 49, 127
1, 84079, Note_off_c, 1, 49, 0
1, 84081, Note_on_c, 1, 78, 127
1, 84081, Note_on_c, 1, 70, 127
1, 84713, Note_off_c, 1, 78, 0
1, 84798, Note_off_c, 1, 70, 0
1, 84804, Note_off_c, 1, 61, 0
1, 84807, Note_on_c, 1, 47, 127
1, 84807, Note_on_c, 1, 76, 127
1, 84807, Note_on_c, 1, 59, 127
1, 84807, Note_on_c, 1, 71, 127
1, 84896, Note_off_c, 1, 47, 0
1, 84898, Note_on_c, 1, 49, 127
1, 84987, Note_off_c, 1, 49, 0
1, 84989, Note_on_c, 1, 50, 127
1, 85078, Note_off_c, 1, 50, 0
1, 85080, Note_on_c, 1, 52, 127
1, 85169, Note_off_c, 1, 76, 0
1, 85169, Note_off_c, 1, 52, 0
1, 85171, Note_on_c, 1, 74, 127
1, 85527, Note_off_c, 1, 59, 0
1, 85533, Note_off_c, 1, 74, 0
1, 85535, Note_on_c, 1, 83, 127
1, 85535, Note_on_c, 1, 56, 127
1, 85714, Note_off_c, 1, 83, 0
1, 85717, Note_on_c, 1, 81, 127
1, 85896, Note_off_c, 1, 81, 0
1, 86075, Note_off_c, 1, 71, 0
1, 86078, Note_off_c, 1, 56, 0
1, 86079, Note_on_c, 1, 80, 127
1, 86258, Note_off_c, 1, 80, 0
1, 86260, Note_on_c, 1, 80, 127
1, 86260, Note_on_c, 1, 71, 127
1, 86260, Note_on_c, 1, 74, 127
1, 86439, Note_off_c, 1, 80, 0
1, 86441, Note_on_c, 1, 78, 127
1, 86620, Note_off_c, 1, 78, 0
1, 86804, Note_on_c, 1, 76, 127
1, 86892, Note_off_c, 1, 71, 0
1, 86892, Note_off_c, 1, 74, 0
1, 86895, Note_on_c, 1, 68, 127
1, 86984, Note_off_c, 1, 76, 0
1, 86984, Note_off_c, 1, 68, 0
1, 86986, Note_on_c, 1, 76, 127
1, 86986, Note_on_c, 1, 71, 127
1, 86986, Note_on_c, 1, 68, 127
1, 87165, Note_off_c, 1, 76, 0
1, 87167, Note_on_c, 1, 74, 127
1, 87346, Note_off_c, 1, 74, 0
1, 87530, Note_on_c, 1, 73, 127
1, 87618, Note_off_c, 1, 71, 0
1, 87618, Note_off_c, 1, 68, 0
1, 87621, Note_on_c, 1, 64, 127
1, 87621, Note_on_c, 1, 69, 127
1, 87710, Note_off_c, 1, 73, 0
1, 87710, Note_off_c, 1, 64, 0
1, 87710, Note_off_c, 1, 69, 0
1, 87712, Note_on_c, 1, 45, 127
1, 87712, Note_on_c, 1, 74, 127
1, 87712, Note_on_c, 1, 64, 127
1, 87712, Note_on_c, 1, 69, 127
1, 87801, Note_off_c, 1, 45, 0
1, 87803, Note_on_c, 1, 47, 127
1, 87892, Note_off_c, 1, 47, 0
1, 87894, Note_on_c, 1, 49, 127
1, 87983, Note_off_c, 1, 49, 0
1, 87985, Note_on_c, 1, 50, 127
1, 88074, Note_off_c, 1, 74, 0
1, 88074, Note_off_c, 1, 50, 0
1, 88076, Note_on_c, 1, 73, 127
1, 88432, Note_off_c, 1, 64, 0
1, 88438, Note_off_c, 1, 73, 0
1, 88440, Note_on_c, 1, 81, 127
1, 88440, Note_on_c, 1, 54, 127
1, 88619, Note_off_c, 1, 81, 0
1, 88622, Note_on_c, 1, 79, 127
1, 88801, Note_off_c, 1, 79, 0
1, 88980, Note_off_c, 1, 69, 0
1, 88984, Note_on_c, 1, 78, 127
1, 89074, Note_off_c, 1, 54, 0
1, 89164, Note_off_c, 1, 78, 0
1, 89166, Note_on_c, 1, 78, 127
1, 89166, Note_on_c, 1, 72, 127
1, 89166, Note_on_c, 1, 69, 127
1, 89345, Note_off_c, 1, 78, 0
1, 89347, Note_on_c, 1, 76, 127
1, 89526, Note_off_c, 1, 76, 0
1, 89710, Note_on_c, 1, 74, 127
1, 89798, Note_off_c, 1, 72, 0
1, 89798, Note_off_c, 1, 69, 0
1, 89801, Note_on_c, 1, 66, 127
1, 89890, Note_off_c, 1, 74, 0
1, 89890, Note_off_c, 1, 66, 0
1, 89892, Note_on_c, 1, 74, 127
1, 89892, Note_on_c, 1, 69, 127
1, 89892, Note_on_c, 1, 66, 127
1, 90071, Note_off_c, 1, 74, 0
1, 90073, Note_on_c, 1, 72, 127
1, 90252, Note_off_c, 1, 72, 0
1, 90435, Note_on_c, 1, 71, 127
1, 90524, Note_off_c, 1, 69, 0
1, 90524, Note_off_c, 1, 66, 0
1, 90527, Note_on_c, 1, 67, 127
1, 90527, Note_on_c, 1, 62, 127
1, 90615, Note_off_c, 1, 71, 0
1, 90616, Note_off_c, 1, 67, 0
1, 90616, Note_off_c, 1, 62, 0
1, 90618, Note_on_c, 1, 43, 127
1, 90618, Note_on_c, 1, 72, 127
1, 90618, Note_on_c, 1, 67, 127
1, 90618, Note_on_c, 1, 62, 127
1, 90707, Note_off_c, 1, 43, 0
1, 90709, Note_on_c, 1, 45, 127
1, 90798, Note_off_c, 1, 45, 0
1, 90800, Note_on_c, 1, 47, 127
1, 90889, Note_off_c, 1, 47, 0
1, 90891, Note_on_c, 1, 48, 127
1, 90980, Note_off_c, 1, 72, 0
1, 90980, Note_off_c, 1, 48, 0
1, 90982, Note_on_c, 1, 71, 127
1, 91338, Note_off_c, 1, 67, 0
1, 91338, Note_off_c, 1, 62, 0
1, 91344, Note_off_c, 1, 71, 0
1, 91346, Note_on_c, 1, 67, 127
1, 91346, Note_on_c, 1, 52, 127
1, 91579, Note_off_c, 1, 67, 0
1, 91582, Note_on_c, 1, 69, 127
1, 91650, Note_off_c, 1, 69, 0
1, 91652, Note_on_c, 1, 71, 127
1, 91720, Note_off_c, 1, 71, 0
1, 91723, Note_on_c, 1, 72, 127
1, 91791, Note_off_c, 1, 72, 0
1, 91980, Note_off_c, 1, 52, 0
1, 91983, Note_on_c, 1, 50, 127
1, 92072, Note_off_c, 1, 50, 0
1, 92074, Note_on_c, 1, 76, 127
1, 92074, Note_on_c, 1, 48, 127
1, 92706, Note_off_c, 1, 76, 0
1, 92797, Note_off_c, 1, 48, 0
1, 92800, Note_on_c, 1, 74, 127
1, 92800, Note_on_c, 1, 50, 127
1, 93432, Note_off_c, 1, 74, 0
1, 93434, Note_on_c, 1, 72, 127
1, 93523, Note_off_c, 1, 50, 0
1, 93523, Note_off_c, 1, 72, 0
1, 93526, Note_on_c, 1, 71, 127
1, 93526, Note_on_c, 1, 55, 127
1, 93977, Note_off_c, 1, 71, 0
1, 93979, Note_on_c, 1, 74, 127
1, 94045, Note_off_c, 1, 74, 0
1, 94047, Note_on_c, 1, 73, 127
1, 94113, Note_off_c, 1, 73, 0
1, 94159, Note_off_c, 1, 55, 0
1, 94161, Note_on_c, 1, 57, 127
1, 94250, Note_off_c, 1, 57, 0
1, 94252, Note_on_c, 1, 62, 127
1, 94252, Note_on_c, 1, 59, 127
1, 94252, Note_on_c, 1, 74, 127
1, 94485, Note_off_c, 1, 62, 0
1, 94488, Note_on_c, 1, 64, 127
1, 94556, Note_off_c, 1, 64, 0
1, 94558, Note_on_c, 1, 66, 127
1, 94626, Note_off_c, 1, 66, 0
1, 94629, Note_on_c, 1, 67, 127
1, 94697, Note_off_c, 1, 67, 0
1, 94876, Note_off_c, 1, 59, 0
1, 94888, Note_on_c, 1, 57, 127
1, 94946, Note_off_c, 1, 57, 0
1, 94976, Note_off_c, 1, 74, 0
1, 94979, Note_on_c, 1, 71, 127
1, 94979, Note_on_c, 1, 55, 127
1, 95611, Note_off_c, 1, 71, 0
1, 95611, Note_off_c, 1, 55, 0
1, 95614, Note_on_c, 1, 71, 127
1, 95614, Note_on_c, 1, 52, 127
1, 95703, Note_off_c, 1, 71, 0
1, 95703, Note_off_c, 1, 52, 0
1, 95705, Note_on_c, 1, 73, 127
1, 95705, Note_on_c, 1, 69, 127
1, 95705, Note_on_c, 1, 57, 127
1, 96337, Note_off_c, 1, 73, 0
1, 96337, Note_off_c, 1, 69, 0
1, 96337, Note_off_c, 1, 57, 0
1, 96339, Note_on_c, 1, 67, 127
1, 96339, Note_on_c, 1, 45, 127
1, 96428, Note_off_c, 1, 67, 0
1, 96428, Note_off_c, 1, 45, 0
1, 96431, Note_on_c, 1, 47, 127
1, 96431, Note_on_c, 1, 66, 127
1, 96431, Note_on_c, 1, 74, 127
1, 96664, Note_off_c, 1, 47, 0
1, 96666, Note_on_c, 1, 49, 127
1, 96734, Note_off_c, 1, 49, 0
1, 96736, Note_on_c, 1, 50, 127
1, 96804, Note_off_c, 1, 50, 0
1, 96807, Note_on_c, 1, 52, 127
1, 96875, Note_off_c, 1, 52, 0
1, 97016, Note_off_c, 1, 66, 0
1, 97016, Note_off_c, 1, 74, 0
1, 97018, Note_on_c, 1, 50, 127
1, 97018, Note_on_c, 1, 71, 127
1, 97086, Note_off_c, 1, 50, 0
1, 97088, Note_on_c, 1, 47, 127
1, 97156, Note_off_c, 1, 71, 0
1, 97156, Note_off_c, 1, 47, 0
1, 97158, Note_on_c, 1, 74, 127
1, 97158, Note_on_c, 1, 59, 127
1, 97391, Note_off_c, 1, 74, 0
1, 97394, Note_on_c, 1, 76, 127
1, 97462, Note_off_c, 1, 76, 0
1, 97464, Note_on_c, 1, 78, 127
1, 97532, Note_off_c, 1, 78, 0
1, 97534, Note_on_c, 1, 79, 127
1, 97602, Note_off_c, 1, 79, 0
1, 97792, Note_off_c, 1, 59, 0
1, 97795, Note_on_c, 1, 57, 127
1, 97884, Note_off_c, 1, 57, 0
1, 97886, Note_on_c, 1, 83, 127
1, 97886, Note_on_c, 1, 55, 127
1, 98518, Note_off_c, 1, 83, 0
1, 98518, Note_off_c, 1, 55, 0
1, 98521, Note_on_c, 1, 83, 127
1, 98521, Note_on_c, 1, 52, 127
1, 98610, Note_off_c, 1, 83, 0
1, 98610, Note_off_c, 1, 52, 0
1, 98612, Note_on_c, 1, 81, 127
1, 98612, Note_on_c, 1, 72, 127
1, 98612, Note_on_c, 1, 57, 127
1, 99244, Note_off_c, 1, 81, 0
1, 99244, Note_off_c, 1, 72, 0
1, 99244, Note_off_c, 1, 57, 0
1, 99246, Note_on_c, 1, 79, 127
1, 99246, Note_on_c, 1, 45, 127
1, 99335, Note_off_c, 1, 79, 0
1, 99335, Note_off_c, 1, 45, 0
1, 99337, Note_on_c, 1, 78, 127
1, 99337, Note_on_c, 1, 50, 127
1, 99878, Note_off_c, 1, 78, 0
1, 99881, Note_on_c, 1, 74, 127
1, 99939, Note_off_c, 1, 74, 0
1, 99941, Note_on_c, 1, 76, 127
1, 99999, Note_off_c, 1, 76, 0
1, 100059, Note_off_c, 1, 50, 0
1, 100062, Note_on_c, 1, 55, 127
1, 100062, Note_on_c, 1, 79, 127
1, 100062, Note_on_c, 1, 71, 127
1, 100062, Note_on_c, 1, 52, 127
1, 100295, Note_off_c, 1, 55, 0
1, 100298, Note_on_c, 1, 57, 127
1, 100366, Note_off_c, 1, 57, 0
1, 100368, Note_on_c, 1, 59, 127
1, 100436, Note_off_c, 1, 59, 0
1, 100438, Note_on_c, 1, 60, 127
1, 100506, Note_off_c, 1, 60, 0
1, 100696, Note_off_c, 1, 79, 0
1, 100696, Note_off_c, 1, 71, 0
1, 100713, Note_off_c, 1, 52, 0
1, 100790, Note_on_c, 1, 79, 127
1, 100790, Note_on_c, 1, 64, 127
1, 100790, Note_on_c, 1, 60, 127
1, 100790, Note_on_c, 1, 69, 127
1, 101422, Note_off_c, 1, 79, 0
1, 101422, Note_off_c, 1, 64, 0
1, 101422, Note_off_c, 1, 60, 0
1, 101425, Note_on_c, 1, 81, 127
1, 101425, Note_on_c, 1, 57, 127
1, 101514, Note_off_c, 1, 81, 0
1, 101514, Note_off_c, 1, 57, 0
1, 101516, Note_on_c, 1, 78, 127
1, 101516, Note_on_c, 1, 62, 127
1, 102148, Note_off_c, 1, 78, 0
1, 102148, Note_off_c, 1, 62, 0
1, 102150, Note_on_c, 1, 50, 127
1, 102239, Note_off_c, 1, 69, 0
1, 102239, Note_off_c, 1, 50, 0
1, 102241, Note_on_c, 1, 78, 127
1, 102241, Note_on_c, 1, 67, 127
1, 102241, Note_on_c, 1, 59, 127
1, 102241, Note_on_c, 1, 55, 127
1, 102842, Note_off_c, 1, 78, 0
1, 102845, Note_on_c, 1, 76, 127
1, 102903, Note_off_c, 1, 76, 0
1, 102906, Note_on_c, 1, 75, 127
1, 102957, Note_off_c, 1, 67, 0
1, 102963, Note_off_c, 1, 59, 0
1, 102963, Note_off_c, 1, 55, 0
1, 102964, Note_off_c, 1, 75, 0
1, 102966, Note_on_c, 1, 40, 127
1, 102966, Note_on_c, 1, 71, 127
1, 102966, Note_on_c, 1, 76, 127
1, 102966, Note_on_c, 1, 67, 127
1, 103199, Note_off_c, 1, 40, 0
1, 103202, Note_on_c, 1, 42, 127
1, 103270, Note_off_c, 1, 42, 0
1, 103272, Note_on_c, 1, 43, 127
1, 103340, Note_off_c, 1, 43, 0
1, 103342, Note_on_c, 1, 45, 127
1, 103410, Note_off_c, 1, 45, 0
1, 103691, Note_off_c, 1, 71, 0
1, 103691, Note_off_c, 1, 76, 0
1, 103691, Note_off_c, 1, 67, 0
1, 103694, Note_on_c, 1, 48, 127
1, 103694, Note_on_c, 1, 66, 127
1, 103758, Note_on_c, 1, 69, 127
1, 103823, Note_on_c, 1, 76, 127
1, 104326, Note_off_c, 1, 48, 0
1, 104334, Note_off_c, 1, 76, 0
1, 104345, Note_on_c, 1, 75, 127
1, 104434, Note_off_c, 1, 75, 0
1, 104436, Note_on_c, 1, 47, 127
1, 105068, Note_off_c, 1, 47, 0
1, 105070, Note_on_c, 1, 45, 127
1, 105070, Note_on_c, 1, 78, 127
1, 105159, Note_off_c, 1, 69, 0
1, 105159, Note_off_c, 1, 45, 0
1, 105159, Note_off_c, 1, 78, 0
1, 105161, Note_on_c, 1, 71, 127
1, 105161, Note_on_c, 1, 43, 127
1, 105762, Note_off_c, 1, 71, 0
1, 105765, Note_on_c, 1, 72, 127
1, 105793, Note_off_c, 1, 43, 0
1, 105796, Note_on_c, 1, 42, 127
1, 105824, Note_off_c, 1, 72, 0
1, 105867, Note_off_c, 1, 66, 0
1, 105885, Note_off_c, 1, 42, 0
1, 105887, Note_on_c, 1, 64, 127
1, 106008, Note_on_c, 1, 67, 127
1, 106507, Note_off_c, 1, 64, 0
1, 106508, Note_off_c, 1, 67, 0
1, 106521, Note_on_c, 1, 45, 127
1, 106521, Note_on_c, 1, 72, 127
1, 106521, Note_on_c, 1, 64, 127
1, 106610, Note_off_c, 1, 45, 0
1, 106610, Note_off_c, 1, 72, 0
1, 106610, Note_off_c, 1, 64, 0
1, 106612, Note_on_c, 1, 67, 127
1, 106612, Note_on_c, 1, 64, 127
1, 106612, Note_on_c, 1, 47, 127
1, 107247, Note_on_c, 1, 57, 127
1, 107335, Note_off_c, 1, 67, 0
1, 107335, Note_off_c, 1, 64, 0
1, 107336, Note_off_c, 1, 57, 0
1, 107338, Note_on_c, 1, 59, 127
1, 107338, Note_on_c, 1, 63, 127
1, 107398, Note_on_c, 1, 66, 127
1, 107456, Note_off_c, 1, 66, 0
1, 107939, Note_off_c, 1, 59, 0
1, 108054, Note_off_c, 1, 63, 0
1, 108060, Note_off_c, 1, 47, 0
1, 108062, Note_on_c, 1, 64, 127
1, 108062, Note_on_c, 1, 55, 127
1, 108062, Note_on_c, 1, 52, 127
1, 108151, Note_off_c, 1, 64, 0
1, 108153, Note_on_c, 1, 66, 127
1, 108242, Note_off_c, 1, 66, 0
1, 108245, Note_on_c, 1, 67, 127
1, 108334, Note_off_c, 1, 67, 0
1, 108336, Note_on_c, 1, 69, 127
1, 108425, Note_off_c, 1, 69, 0
1, 108788, Note_off_c, 1, 55, 0
1, 108788, Note_off_c, 1, 52, 0
1, 108791, Note_on_c, 1, 59, 127
1, 108791, Note_on_c, 1, 79, 127
1, 108970, Note_off_c, 1, 59, 0
1, 108972, Note_on_c, 1, 57, 127
1, 109151, Note_off_c, 1, 57, 0
1, 109244, Note_off_c, 1, 79, 0
1, 109336, Note_on_c, 1, 55, 127
1, 109515, Note_off_c, 1, 55, 0
1, 109517, Note_on_c, 1, 55, 127
1, 109517, Note_on_c, 1, 64, 127
1, 109517, Note_on_c, 1, 59, 127
1, 109696, Note_off_c, 1, 55, 0
1, 109698, Note_on_c, 1, 54, 127
1, 109877, Note_off_c, 1, 54, 0
1, 110060, Note_on_c, 1, 52, 127
1, 110149, Note_off_c, 1, 64, 0
1, 110149, Note_off_c, 1, 59, 0
1, 110151, Note_on_c, 1, 61, 127
1, 110240, Note_off_c, 1, 52, 0
1, 110240, Note_off_c, 1, 61, 0
1, 110243, Note_on_c, 1, 52, 127
1, 110243, Note_on_c, 1, 55, 127
1, 110243, Note_on_c, 1, 61, 127
1, 110422, Note_off_c, 1, 52, 0
1, 110424, Note_on_c, 1, 50, 127
1, 110603, Note_off_c, 1, 50, 0
1, 110786, Note_on_c, 1, 49, 127
1, 110875, Note_off_c, 1, 55, 0
1, 110875, Note_off_c, 1, 61, 0
1, 110877, Note_on_c, 1, 57, 127
1, 110966, Note_off_c, 1, 49, 0
1, 110966, Note_off_c, 1, 57, 0
1, 110968, Note_on_c, 1, 69, 127
1, 110968, Note_on_c, 1, 49, 127
1, 110968, Note_on_c, 1, 57, 127
1, 110968, Note_on_c, 1, 52, 127
1, 111057, Note_off_c, 1, 69, 0
1, 111059, Note_on_c, 1, 71, 127
1, 111148, Note_off_c, 1, 71, 0
1, 111150, Note_on_c, 1, 73, 127
1, 111239, Note_off_c, 1, 73, 0
1, 111242, Note_on_c, 1, 74, 127
1, 111331, Note_off_c, 1, 74, 0
1, 111694, Note_off_c, 1, 49, 0
1, 111694, Note_off_c, 1, 57, 0
1, 111694, Note_off_c, 1, 52, 0
1, 111697, Note_on_c, 1, 57, 127
1, 111697, Note_on_c, 1, 78, 127
1, 111876, Note_off_c, 1, 57, 0
1, 111878, Note_on_c, 1, 55, 127
1, 112057, Note_off_c, 1, 55, 0
1, 112240, Note_off_c, 1, 78, 0
1, 112241, Note_on_c, 1, 54, 127
1, 112420, Note_off_c, 1, 54, 0
1, 112422, Note_on_c, 1, 54, 127
1, 112422, Note_on_c, 1, 57, 127
1, 112422, Note_on_c, 1, 62, 127
1, 112601, Note_off_c, 1, 54, 0
1, 112603, Note_on_c, 1, 52, 127
1, 112782, Note_off_c, 1, 52, 0
1, 112965, Note_on_c, 1, 50, 127
1, 113054, Note_off_c, 1, 57, 0
1, 113054, Note_off_c, 1, 62, 0
1, 113056, Note_on_c, 1, 59, 127
1, 113145, Note_off_c, 1, 50, 0
1, 113145, Note_off_c, 1, 59, 0
1, 113148, Note_on_c, 1, 50, 127
1, 113148, Note_on_c, 1, 54, 127
1, 113148, Note_on_c, 1, 59, 127
1, 113327, Note_off_c, 1, 50, 0
1, 113329, Note_on_c, 1, 49, 127
1, 113508, Note_off_c, 1, 49, 0
1, 113691, Note_on_c, 1, 47, 127
1, 113780, Note_off_c, 1, 54, 0
1, 113780, Note_off_c, 1, 59, 0
1, 113782, Note_on_c, 1, 55, 127
1, 113871, Note_off_c, 1, 47, 0
1, 113871, Note_off_c, 1, 55, 0
1, 113873, Note_on_c, 1, 67, 127
1, 113873, Note_on_c, 1, 50, 127
1, 113873, Note_on_c, 1, 55, 127
1, 113873, Note_on_c, 1, 47, 127
1, 113962, Note_off_c, 1, 67, 0
1, 113964, Note_on_c, 1, 69, 127
1, 114053, Note_off_c, 1, 69, 0
1, 114055, Note_on_c, 1, 71, 127
1, 114144, Note_off_c, 1, 71, 0
1, 114147, Note_on_c, 1, 72, 127
1, 114236, Note_off_c, 1, 72, 0
1, 114593, Note_off_c, 1, 50, 0
1, 114593, Note_off_c, 1, 55, 0
1, 114599, Note_off_c, 1, 47, 0
1, 114602, Note_on_c, 1, 55, 127
1, 114602, Note_on_c, 1, 76, 127
1, 114781, Note_off_c, 1, 55, 0
1, 114783, Note_on_c, 1, 54, 127
1, 114962, Note_off_c, 1, 54, 0
1, 115145, Note_off_c, 1, 76, 0
1, 115146, Note_on_c, 1, 52, 127
1, 115325, Note_off_c, 1, 52, 0
1, 115327, Note_on_c, 1, 52, 127
1, 115327, Note_on_c, 1, 61, 127
1, 115327, Note_on_c, 1, 55, 127
1, 115506, Note_off_c, 1, 52, 0
1, 115508, Note_on_c, 1, 50, 127
1, 115687, Note_off_c, 1, 50, 0
1, 115870, Note_on_c, 1, 49, 127
1, 115959, Note_off_c, 1, 61, 0
1, 115959, Note_off_c, 1, 55, 0
1, 115961, Note_on_c, 1, 57, 127
1, 116050, Note_off_c, 1, 49, 0
1, 116050, Note_off_c, 1, 57, 0
1, 116052, Note_on_c, 1, 49, 127
1, 116052, Note_on_c, 1, 52, 127
1, 116052, Note_on_c, 1, 57, 127
1, 116231, Note_off_c, 1, 49, 0
1, 116234, Note_on_c, 1, 47, 127
1, 116413, Note_off_c, 1, 47, 0
1, 116596, Note_on_c, 1, 45, 127
1, 116684, Note_off_c, 1, 52, 0
1, 116684, Note_off_c, 1, 57, 0
1, 116687, Note_on_c, 1, 54, 127
1, 116776, Note_off_c, 1, 45, 0
1, 116776, Note_off_c, 1, 54, 0
1, 116778, Note_on_c, 1, 66, 127
1, 116778, Note_on_c, 1, 45, 127
1, 116778, Note_on_c, 1, 54, 127
1, 116778, Note_on_c, 1, 49, 127
1, 116998, Note_off_c, 1, 66, 0
1, 117001, Note_on_c, 1, 67, 127
1, 117071, Note_off_c, 1, 67, 0
1, 117073, Note_on_c, 1, 69, 127
1, 117143, Note_off_c, 1, 69, 0
1, 117146, Note_on_c, 1, 71, 127
1, 117216, Note_off_c, 1, 71, 0
1, 117323, Note_off_c, 1, 45, 0
1, 117323, Note_off_c, 1, 54, 0
1, 117323, Note_off_c, 1, 49, 0
1, 117361, Note_on_c, 1, 69, 127
1, 117431, Note_off_c, 1, 69, 0
1, 117434, Note_on_c, 1, 66, 127
1, 117505, Note_on_c, 1, 59, 127
1, 117505, Note_on_c, 1, 74, 127
1, 117712, Note_off_c, 1, 59, 0
1, 117715, Note_on_c, 1, 61, 127
1, 117786, Note_off_c, 1, 61, 0
1, 117788, Note_on_c, 1, 62, 127
1, 117859, Note_off_c, 1, 62, 0
1, 117861, Note_on_c, 1, 64, 127
1, 117932, Note_off_c, 1, 64, 0
1, 118135, Note_off_c, 1, 74, 0
1, 118205, Note_off_c, 1, 66, 0
1, 118228, Note_on_c, 1, 52, 127
1, 118228, Note_on_c, 1, 74, 127
1, 118228, Note_on_c, 1, 67, 127
1, 118435, Note_off_c, 1, 52, 0
1, 118438, Note_on_c, 1, 54, 127
1, 118509, Note_off_c, 1, 54, 0
1, 118511, Note_on_c, 1, 55, 127
1, 118582, Note_off_c, 1, 55, 0
1, 118584, Note_on_c, 1, 57, 127
1, 118655, Note_off_c, 1, 57, 0
1, 118858, Note_off_c, 1, 74, 0
1, 118860, Note_on_c, 1, 76, 127
1, 118948, Note_off_c, 1, 76, 0
1, 119071, Note_on_c, 1, 73, 127
1, 119129, Note_off_c, 1, 73, 0
1, 119160, Note_on_c, 1, 59, 127
1, 119232, Note_off_c, 1, 59, 0
1, 119235, Note_on_c, 1, 61, 127
1, 119306, Note_off_c, 1, 61, 0
1, 119308, Note_on_c, 1, 62, 127
1, 119380, Note_off_c, 1, 62, 0
1, 119675, Note_off_c, 1, 67, 0
1, 119677, Note_on_c, 1, 50, 127
1, 119677, Note_on_c, 1, 66, 127
1, 119677, Note_on_c, 1, 78, 127
1, 119884, Note_off_c, 1, 50, 0
1, 119887, Note_on_c, 1, 52, 127
1, 119958, Note_off_c, 1, 52, 0
1, 119960, Note_on_c, 1, 54, 127
1, 120031, Note_off_c, 1, 54, 0
1, 120034, Note_on_c, 1, 55, 127
1, 120105, Note_off_c, 1, 55, 0
1, 120397, Note_off_c, 1, 66, 0
1, 120397, Note_off_c, 1, 78, 0
1, 120400, Note_on_c, 1, 83, 127
1, 120400, Note_on_c, 1, 55, 127
1, 120579, Note_off_c, 1, 83, 0
1, 120581, Note_on_c, 1, 81, 127
1, 120760, Note_off_c, 1, 81, 0
1, 120944, Note_on_c, 1, 79, 127
1, 121060, Note_off_c, 1, 55, 0
1, 121123, Note_off_c, 1, 79, 0
1, 121125, Note_on_c, 1, 79, 127
1, 121125, Note_on_c, 1, 71, 127
1, 121125, Note_on_c, 1, 74, 127
1, 121304, Note_off_c, 1, 79, 0
1, 121306, Note_on_c, 1, 78, 127
1, 121485, Note_off_c, 1, 78, 0
1, 121668, Note_on_c, 1, 76, 127
1, 121757, Note_off_c, 1, 71, 0
1, 121757, Note_off_c, 1, 74, 0
1, 121759, Note_on_c, 1, 67, 127
1, 121848, Note_off_c, 1, 76, 0
1, 121848, Note_off_c, 1, 67, 0
1, 121850, Note_on_c, 1, 76, 127
1, 121850, Note_on_c, 1, 67, 127
1, 121850, Note_on_c, 1, 71, 127
1, 122029, Note_off_c, 1, 76, 0
1, 122032, Note_on_c, 1, 74, 127
1, 122211, Note_off_c, 1, 74, 0
1, 122394, Note_on_c, 1, 73, 127
1, 122482, Note_off_c, 1, 67, 0
1, 122482, Note_off_c, 1, 71, 0
1, 122485, Note_on_c, 1, 64, 127
1, 122485, Note_on_c, 1, 69, 127
1, 122574, Note_off_c, 1, 73, 0
1, 122574, Note_off_c, 1, 64, 0
1, 122574, Note_off_c, 1, 69, 0
1, 122592, Note_on_c, 1, 74, 127
1, 122592, Note_on_c, 1, 55, 127
1, 122592, Note_on_c, 1, 43, 127
1, 122592, Note_on_c, 1, 69, 127
1, 122592, Note_on_c, 1, 64, 127
1, 123026, Note_off_c, 1, 74, 0
1, 123029, Note_on_c, 1, 73, 127
1, 123244, Note_off_c, 1, 55, 0
1, 123244, Note_off_c, 1, 43, 0
1, 123306, Note_off_c, 1, 69, 0
1, 123306, Note_off_c, 1, 64, 0
1, 123395, Note_off_c, 1, 73, 0
1, 123411, Note_on_c, 1, 54, 127
1, 123411, Note_on_c, 1, 66, 127
1, 123652, Note_off_c, 1, 54, 0
1, 123727, Note_on_c, 1, 57, 127
1, 123797, Note_off_c, 1, 57, 0
1, 123944, Note_on_c, 1, 52, 127
1, 124014, Note_off_c, 1, 52, 0
1, 124016, Note_on_c, 1, 50, 127
1, 124064, Note_off_c, 1, 66, 0
1, 124086, Note_off_c, 1, 50, 0
1, 124088, Note_on_c, 1, 49, 127
1, 124158, Note_off_c, 1, 49, 0
1, 124161, Note_on_c, 1, 47, 127
1, 124161, Note_on_c, 1, 74, 127
1, 124161, Note_on_c, 1, 71, 127
1, 124161, Note_on_c, 1, 66, 127
1, 124402, Note_off_c, 1, 47, 0
1, 124404, Note_on_c, 1, 49, 127
1, 124474, Note_off_c, 1, 49, 0
1, 124477, Note_on_c, 1, 50, 127
1, 124547, Note_off_c, 1, 50, 0
1, 124693, Note_on_c, 1, 45, 127
1, 124763, Note_off_c, 1, 45, 0
1, 124814, Note_off_c, 1, 74, 0
1, 124814, Note_off_c, 1, 71, 0
1, 124814, Note_off_c, 1, 66, 0
1, 124816, Note_on_c, 1, 76, 127
1, 124816, Note_on_c, 1, 67, 127
1, 124838, Note_on_c, 1, 43, 127
1, 124908, Note_off_c, 1, 76, 0
1, 124908, Note_off_c, 1, 67, 0
1, 124908, Note_off_c, 1, 43, 0
1, 124910, Note_on_c, 1, 74, 127
1, 124910, Note_on_c, 1, 45, 127
1, 124910, Note_on_c, 1, 69, 127
1, 124910, Note_on_c, 1, 64, 127
1, 125032, Note_off_c, 1, 74, 0
1, 125035, Note_on_c, 1, 73, 127
1, 125095, Note_off_c, 1, 73, 0
1, 125097, Note_on_c, 1, 71, 127
1, 125157, Note_off_c, 1, 71, 0
1, 125562, Note_off_c, 1, 45, 0
1, 125652, Note_off_c, 1, 69, 0
1, 125652, Note_off_c, 1, 64, 0
1, 125661, Note_on_c, 1, 38, 127
1, 125661, Note_on_c, 1, 74, 127
1, 125661, Note_on_c, 1, 69, 127
1, 125661, Note_on_c, 1, 66, 127
1, 126238, Note_off_c, 1, 38, 0
1, 126252, Note_on_c, 1, 50, 127
1, 126336, Note_off_c, 1, 50, 0
1, 126336, Note_on_c, 1, 52, 127
1, 126420, Note_off_c, 1, 52, 0
1, 126420, Note_on_c, 1, 54, 127
1, 126431, Note_off_c, 1, 74, 0
1, 126431, Note_off_c, 1, 69, 0
1, 126431, Note_off_c, 1, 66, 0
1, 126505, Note_off_c, 1, 54, 0
1, 126506, Note_on_c, 1, 71, 127
1, 126506, Note_on_c, 1, 55, 127
1, 126601, Note_off_c, 1, 71, 0
1, 126603, Note_on_c, 1, 73, 127
1, 126698, Note_off_c, 1, 73, 0
1, 126700, Note_on_c, 1, 74, 127
1, 126795, Note_off_c, 1, 74, 0
1, 126797, Note_on_c, 1, 76, 127
1, 126892, Note_off_c, 1, 76, 0
1, 127280, Note_off_c, 1, 55, 0
1, 127282, Note_on_c, 1, 49, 127
1, 127282, Note_on_c, 1, 64, 127
1, 127377, Note_off_c, 1, 49, 0
1, 127379, Note_on_c, 1, 50, 127
1, 127379, Note_on_c, 1, 71, 127
1, 127474, Note_off_c, 1, 50, 0
1, 127476, Note_on_c, 1, 52, 127
1, 127476, Note_on_c, 1, 76, 127
1, 127571, Note_off_c, 1, 52, 0
1, 127573, Note_on_c, 1, 54, 127
1, 127668, Note_off_c, 1, 54, 0
1, 128045, Note_off_c, 1, 71, 0
1, 128049, Note_off_c, 1, 64, 0
1, 128055, Note_off_c, 1, 76, 0
1, 128057, Note_on_c, 1, 69, 127
1, 128057, Note_on_c, 1, 54, 127
1, 128152, Note_off_c, 1, 69, 0
1, 128154, Note_on_c, 1, 71, 127
1, 128249, Note_off_c, 1, 71, 0
1, 128251, Note_on_c, 1, 73, 127
1, 128346, Note_off_c, 1, 73, 0
1, 128348, Note_on_c, 1, 74, 127
1, 128443, Note_off_c, 1, 74, 0
1, 128831, Note_off_c, 1, 54, 0
1, 128833, Note_on_c, 1, 47, 127
1, 128833, Note_on_c, 1, 62, 127
1, 128898, Note_on_c, 1, 69, 127
1, 128928, Note_off_c, 1, 47, 0
1, 128930, Note_on_c, 1, 49, 127
1, 128963, Note_on_c, 1, 74, 127
1, 129025, Note_off_c, 1, 49, 0
1, 129027, Note_on_c, 1, 50, 127
1, 129122, Note_off_c, 1, 50, 0
1, 129124, Note_on_c, 1, 52, 127
1, 129219, Note_off_c, 1, 52, 0
1, 129600, Note_off_c, 1, 62, 0
1, 129600, Note_off_c, 1, 69, 0
1, 129609, Note_on_c, 1, 67, 127
1, 129614, Note_off_c, 1, 74, 0
1, 129717, Note_off_c, 1, 67, 0
1, 129719, Note_on_c, 1, 69, 127
1, 129719, Note_on_c, 1, 54, 127
1, 129812, Note_off_c, 1, 69, 0
1, 129812, Note_off_c, 1, 54, 0
1, 129814, Note_on_c, 1, 71, 127
1, 129814, Note_on_c, 1, 55, 127
1, 129907, Note_off_c, 1, 71, 0
1, 129907, Note_off_c, 1, 55, 0
1, 129910, Note_on_c, 1, 72, 127
1, 129910, Note_on_c, 1, 57, 127
1, 130003, Note_off_c, 1, 72, 0
1, 130003, Note_off_c, 1, 57, 0
1, 130005, Note_on_c, 1, 71, 127
1, 130005, Note_on_c, 1, 55, 127
1, 130098, Note_off_c, 1, 71, 0
1, 130098, Note_off_c, 1, 55, 0
1, 130100, Note_on_c, 1, 69, 127
1, 130100, Note_on_c, 1, 54, 127
1, 130193, Note_off_c, 1, 69, 0
1, 130193, Note_off_c, 1, 54, 0
1, 130195, Note_on_c, 1, 71, 127
1, 130195, Note_on_c, 1, 55, 127
1, 130288, Note_off_c, 1, 71, 0
1, 130288, Note_off_c, 1, 55, 0
1, 130290, Note_on_c, 1, 67, 127
1, 130290, Note_on_c, 1, 52, 127
1, 130383, Note_off_c, 1, 67, 0
1, 130383, Note_off_c, 1, 52, 0
1, 130385, Note_on_c, 1, 73, 127
1, 130385, Note_on_c, 1, 57, 127
1, 130507, Note_off_c, 1, 73, 0
1, 130507, Note_off_c, 1, 57, 0
1, 130510, Note_on_c, 1, 74, 127
1, 130510, Note_on_c, 1, 59, 127
1, 130601, Note_off_c, 1, 74, 0
1, 130601, Note_off_c, 1, 59, 0
1, 130603, Note_on_c, 1, 76, 127
1, 130603, Note_on_c, 1, 61, 127
1, 130694, Note_off_c, 1, 76, 0
1, 130694, Note_off_c, 1, 61, 0
1, 130696, Note_on_c, 1, 78, 127
1, 130696, Note_on_c, 1, 62, 127
1, 130787, Note_off_c, 1, 78, 0
1, 130787, Note_off_c, 1, 62, 0
1, 130789, Note_on_c, 1, 76, 127
1, 130789, Note_on_c, 1, 61, 127
1, 130880, Note_off_c, 1, 76, 0
1, 130880, Note_off_c, 1, 61, 0
1, 130882, Note_on_c, 1, 74, 127
1, 130882, Note_on_c, 1, 59, 127
1, 130973, Note_off_c, 1, 74, 0
1, 130973, Note_off_c, 1, 59, 0
1, 130975, Note_on_c, 1, 76, 127
1, 130975, Note_on_c, 1, 61, 127
1, 131066, Note_off_c, 1, 76, 0
1, 131066, Note_off_c, 1, 61, 0
1, 131068, Note_on_c, 1, 73, 127
1, 131068, Note_on_c, 1, 57, 127
1, 131159, Note_off_c, 1, 73, 0
1, 131159, Note_off_c, 1, 57, 0
1, 131161, Note_on_c, 1, 78, 127
1, 131161, Note_on_c, 1, 62, 127
1, 131312, Note_off_c, 1, 78, 0
1, 131312, Note_off_c, 1, 62, 0
1, 131314, Note_on_c, 1, 79, 127
1, 131314, Note_on_c, 1, 64, 127
1, 131400, Note_off_c, 1, 79, 0
1, 131400, Note_off_c, 1, 64, 0
1, 131403, Note_on_c, 1, 81, 127
1, 131403, Note_on_c, 1, 66, 127
1, 131489, Note_off_c, 1, 81, 0
1, 131489, Note_off_c, 1, 66, 0
1, 131491, Note_on_c, 1, 83, 127
1, 131491, Note_on_c, 1, 67, 127
1, 131577, Note_off_c, 1, 83, 0
1, 131577, Note_off_c, 1, 67, 0
1, 131579, Note_on_c, 1, 81, 127
1, 131579, Note_on_c, 1, 66, 127
1, 131665, Note_off_c, 1, 81, 0
1, 131665, Note_off_c, 1, 66, 0
1, 131667, Note_on_c, 1, 79, 127
1, 131667, Note_on_c, 1, 64, 127
1, 131753, Note_off_c, 1, 79, 0
1, 131753, Note_off_c, 1, 64, 0
1, 131755, Note_on_c, 1, 81, 127
1, 131755, Note_on_c, 1, 66, 127
1, 131841, Note_off_c, 1, 81, 0
1, 131841, Note_off_c, 1, 66, 0
1, 131843, Note_on_c, 1, 78, 127
1, 131843, Note_on_c, 1, 62, 127
1, 131929, Note_off_c, 1, 78, 0
1, 131929, Note_off_c, 1, 62, 0
1, 131931, Note_on_c, 1, 83, 127
1, 131931, Note_on_c, 1, 67, 127
1, 132575, Note_off_c, 1, 83, 0
1, 132606, Note_off_c, 1, 67, 0
1, 132609, Note_on_c, 1, 69, 127
1, 132609, Note_on_c, 1, 73, 127
1, 132609, Note_on_c, 1, 64, 127
1, 132609, Note_on_c, 1, 55, 127
1, 132704, Note_off_c, 1, 69, 0
1, 132704, Note_off_c, 1, 73, 0
1, 132704, Note_off_c, 1, 64, 0
1, 132704, Note_off_c, 1, 55, 0
1, 132706, Note_on_c, 1, 66, 127
1, 132706, Note_on_c, 1, 74, 127
1, 132706, Note_on_c, 1, 69, 127
1, 132706, Note_on_c, 1, 54, 127
1, 133380, Note_off_c, 1, 66, 0
1, 133380, Note_off_c, 1, 74, 0
1, 133380, Note_off_c, 1, 69, 0
1, 133380, Note_off_c, 1, 54, 0
1, 133382, Note_on_c, 1, 67, 127
1, 133382, Note_on_c, 1, 76, 127
1, 133382, Note_on_c, 1, 73, 127
1, 133382, Note_on_c, 1, 52, 127
1, 133477, Note_off_c, 1, 67, 0
1, 133477, Note_off_c, 1, 76, 0
1, 133477, Note_off_c, 1, 73, 0
1, 133477, Note_off_c, 1, 52, 0
1, 133479, Note_on_c, 1, 74, 127
1, 133479, Note_on_c, 1, 69, 127
1, 133479, Note_on_c, 1, 78, 127
1, 133479, Note_on_c, 1, 50, 127
1, 134123, Note_off_c, 1, 74, 0
1, 134123, Note_off_c, 1, 69, 0
1, 134123, Note_off_c, 1, 78, 0
1, 134154, Note_off_c, 1, 50, 0
1, 134156, Note_on_c, 1, 66, 127
1, 134156, Note_on_c, 1, 62, 127
1, 134156, Note_on_c, 1, 57, 127
1, 134156, Note_on_c, 1, 48, 127
1, 134251, Note_off_c, 1, 66, 0
1, 134251, Note_off_c, 1, 62, 0
1, 134251, Note_off_c, 1, 57, 0
1, 134251, Note_off_c, 1, 48, 0
1, 134253, Note_on_c, 1, 59, 127
1, 134253, Note_on_c, 1, 62, 127
1, 134253, Note_on_c, 1, 67, 127
1, 134253, Note_on_c, 1, 47, 127
1, 134927, Note_off_c, 1, 59, 0
1, 134927, Note_off_c, 1, 62, 0
1, 134927, Note_off_c, 1, 67, 0
1, 134927, Note_off_c, 1, 47, 0
1, 134929, Note_on_c, 1, 69, 127
1, 134929, Note_on_c, 1, 66, 127
1, 134929, Note_on_c, 1, 60, 127
1, 134929, Note_on_c, 1, 45, 127
1, 135027, Note_off_c, 1, 69, 0
1, 135027, Note_off_c, 1, 66, 0
1, 135027, Note_off_c, 1, 60, 0
1, 135027, Note_off_c, 1, 45, 0
1, 135029, Note_on_c, 1, 71, 127
1, 135029, Note_on_c, 1, 67, 127
1, 135029, Note_on_c, 1, 62, 127
1, 135029, Note_on_c, 1, 43, 127
1, 135695, Note_off_c, 1, 71, 0
1, 135695, Note_off_c, 1, 67, 0
1, 135695, Note_off_c, 1, 62, 0
1, 135727, Note_off_c, 1, 43, 0
1, 135729, Note_on_c, 1, 71, 127
1, 135729, Note_on_c, 1, 67, 127
1, 135729, Note_on_c, 1, 62, 127
1, 135729, Note_on_c, 1, 42, 127
1, 135827, Note_off_c, 1, 71, 0
1, 135827, Note_off_c, 1, 67, 0
1, 135827, Note_off_c, 1, 62, 0
1, 135827, Note_off_c, 1, 42, 0
1, 135829, Note_on_c, 1, 64, 127
1, 135829, Note_on_c, 1, 73, 127
1, 135829, Note_on_c, 1, 67, 127
1, 135829, Note_on_c, 1, 40, 127
1, 136527, Note_off_c, 1, 64, 0
1, 136527, Note_off_c, 1, 73, 0
1, 136527, Note_off_c, 1, 67, 0
1, 136527, Note_off_c, 1, 40, 0
1, 136529, Note_on_c, 1, 69, 127
1, 136529, Note_on_c, 1, 66, 127
1, 136529, Note_on_c, 1, 62, 127
1, 136529, Note_on_c, 1, 38, 127
1, 136627, Note_off_c, 1, 69, 0
1, 136627, Note_off_c, 1, 66, 0
1, 136627, Note_off_c, 1, 62, 0
1, 136627, Note_off_c, 1, 38, 0
1, 136629, Note_on_c, 1, 62, 127
1, 136629, Note_on_c, 1, 57, 127
1, 136629, Note_on_c, 1, 66, 127
1, 136629, Note_on_c, 1, 45, 127
1, 137427, Note_off_c, 1, 62, 0
1, 137427, Note_off_c, 1, 57, 0
1, 137427, Note_off_c, 1, 66, 0
1, 137427, Note_off_c, 1, 45, 0
1, 137429, Note_on_c, 1, 61, 127
1, 137429, Note_on_c, 1, 64, 127
1, 137429, Note_on_c, 1, 55, 127
1, 137429, Note_on_c, 1, 45, 127
1, 138127, Note_off_c, 1, 61, 0
1, 138127, Note_off_c, 1, 64, 0
1, 138129, Note_on_c, 1, 62, 127
1, 138262, Note_off_c, 1, 55, 0
1, 138288, Note_off_c, 1, 62, 0
1, 138296, Note_on_c, 1, 38, 127
1, 138296, Note_on_c, 1, 50, 127
1, 138296, Note_on_c, 1, 54, 127
1, 138296, Note_on_c, 1, 57, 127
1, 141487, Note_off_c, 1, 45, 0
1, 141491, Note_off_c, 1, 38, 0
1, 141491, Note_off_c, 1, 50, 0
1, 141491, Note_off_c, 1, 54, 0
1, 141491, Note_off_c, 1, 57, 0
1, 141491, End_track
0, 0, End_of_file