0, 0, Header, 1, 1, 480
1, 0, Start_track
1, 0, Title_t, "Test"
1, 0, Tempo, 500000
1, 0, Instrument_name_t, "Church Organ"
1, 0, Note_on_c, 1, 76, 127
1, 96, Note_off_c, 1, 76, 0
1, 120, Note_on_c, 1, 81, 127
1, 216, Note_off_c, 1, 81, 0
1, 240, Note_on_c, 1, 80, 127
1, 288, Note_off_c, 1, 80, 0
1, 300, Note_on_c, 1, 78, 127
1, 348, Note_off_c, 1, 78, 0
1, 360, Note_on_c, 1, 76, 127
1, 360, Note_on_c, 1, 64, 127
1, 408, Note_off_c, 1, 76, 0
1, 420, Note_on_c, 1, 74, 127
1, 456, Note_off_c, 1, 64, 0
1, 468, Note_off_c, 1, 74, 0
1, 480, Note_on_c, 1, 73, 127
1, 480, Note_on_c, 1, 69, 127
1, 528, Note_off_c, 1, 73, 0
1, 540, Note_on_c, 1, 74, 127
1, 576, Note_off_c, 1, 69, 0
1, 588, Note_off_c, 1, 74, 0
1, 600, Note_on_c, 1, 76, 127
1, 600, Note_on_c, 1, 68, 127
1, 629, Note_off_c, 1, 76, 0
1, 630, Note_on_c, 1, 74, 127
1, 648, Note_off_c, 1, 68, 0
1, 659, Note_off_c, 1, 74, 0
1, 660, Note_on_c, 1, 76, 127
1, 660, Note_on_c, 1, 66, 127
1, 684, Note_off_c, 1, 76, 0
1, 690, Note_on_c, 1, 74, 127
1, 708, Note_off_c, 1, 66, 0
1, 714, Note_off_c, 1, 74, 0
1, 720, Note_on_c, 1, 76, 127
1, 720, Note_on_c, 1, 64, 127
1, 744, Note_off_c, 1, 76, 0
1, 750, Note_on_c, 1, 74, 127
1, 768, Note_off_c, 1, 64, 0
1, 774, Note_off_c, 1, 74, 0
1, 780, Note_on_c, 1, 73, 127
1, 780, Note_on_c, 1, 62, 127
1, 804, Note_off_c, 1, 73, 0
1, 810, Note_on_c, 1, 74, 127
1, 828, Note_off_c, 1, 62, 0
1, 834, Note_off_c, 1, 74, 0
1, 840, Note_on_c, 1, 76, 127
1, 840, Note_on_c, 1, 61, 127
1, 897, Note_off_c, 1, 61, 0
1, 900, Note_on_c, 1, 62, 127
1, 936, Note_off_c, 1, 76, 0
1, 957, Note_off_c, 1, 62, 0
1, 960, Note_on_c, 1, 74, 127
1, 960, Note_on_c, 1, 64, 127
1, 989, Note_off_c, 1, 64, 0
1, 990, Note_on_c, 1, 62, 127
1, 1008, Note_off_c, 1, 74, 0
1, 1019, Note_off_c, 1, 62, 0
1, 1020, Note_on_c, 1, 73, 127
1, 1020, Note_on_c, 1, 64, 127
1, 1044, Note_off_c, 1, 64, 0
1, 1050, Note_on_c, 1, 62, 127
1, 1068, Note_off_c, 1, 73, 0
1, 1074, Note_off_c, 1, 62, 0
1, 1080, Note_on_c, 1, 71, 127
1, 1080, Note_on_c, 1, 64, 127
1, 1104, Note_off_c, 1, 64, 0
1, 1110, Note_on_c, 1, 62, 127
1, 1128, Note_off_c, 1, 71, 0
1, 1134, Note_off_c, 1, 62, 0
1, 1140, Note_on_c, 1, 69, 127
1, 1140, Note_on_c, 1, 61, 127
1, 1164, Note_off_c, 1, 61, 0
1, 1170, Note_on_c, 1, 62, 127
1, 1188, Note_off_c, 1, 69, 0
1, 1194, Note_off_c, 1, 62, 0
1, 1200, Note_on_c, 1, 68, 127
1, 1200, Note_on_c, 1, 64, 127
1, 1248, Note_off_c, 1, 68, 0
1, 1260, Note_on_c, 1, 69, 127
1, 1296, Note_off_c, 1, 64, 0
1, 1308, Note_off_c, 1, 69, 0
1, 1320, Note_on_c, 1, 71, 127
1, 1320, Note_on_c, 1, 62, 127
1, 1349, Note_off_c, 1, 71, 0
1, 1350, Note_on_c, 1, 69, 127
1, 1368, Note_off_c, 1, 62, 0
1, 1379, Note_off_c, 1, 69, 0
1, 1380, Note_on_c, 1, 71, 127
1, 1380, Note_on_c, 1, 61, 127
1, 1404, Note_off_c, 1, 71, 0
1, 1410, Note_on_c, 1, 69, 127
1, 1428, Note_off_c, 1, 61, 0
1, 1434, Note_off_c, 1, 69, 0
1, 1440, Note_on_c, 1, 71, 127
1, 1440, Note_on_c, 1, 59, 127
1, 1464, Note_off_c, 1, 71, 0
1, 1470, Note_on_c, 1, 69, 127
1, 1488, Note_off_c, 1, 59, 0
1, 1494, Note_off_c, 1, 69, 0
1, 1500, Note_on_c, 1, 68, 127
1, 1500, Note_on_c, 1, 57, 127
1, 1524, Note_off_c, 1, 68, 0
1, 1530, Note_on_c, 1, 69, 127
1, 1548, Note_off_c, 1, 57, 0
1, 1554, Note_off_c, 1, 69, 0
1, 1560, Note_on_c, 1, 71, 127
1, 1560, Note_on_c, 1, 56, 127
1, 1608, Note_off_c, 1, 71, 0
1, 1608, Note_off_c, 1, 56, 0
1, 1620, Note_on_c, 1, 73, 127
1, 1620, Note_on_c, 1, 57, 127
1, 1668, Note_off_c, 1, 73, 0
1, 1668, Note_off_c, 1, 57, 0
1, 1680, Note_on_c, 1, 74, 127
1, 1680, Note_on_c, 1, 59, 127
1, 1709, Note_off_c, 1, 74, 0
1, 1709, Note_off_c, 1, 59, 0
1, 1710, Note_on_c, 1, 73, 127
1, 1710, Note_on_c, 1, 57, 127
1, 1739, Note_off_c, 1, 73, 0
1, 1739, Note_off_c, 1, 57, 0
1, 1740, Note_on_c, 1, 74, 127
1, 1740, Note_on_c, 1, 59, 127
1, 1764, Note_off_c, 1, 74, 0
1, 1764, Note_off_c, 1, 59, 0
1, 1770, Note_on_c, 1, 73, 127
1, 1770, Note_on_c, 1, 57, 127
1, 1794, Note_off_c, 1, 73, 0
1, 1794, Note_off_c, 1, 57, 0
1, 1800, Note_on_c, 1, 74, 127
1, 1800, Note_on_c, 1, 59, 127
1, 1824, Note_off_c, 1, 74, 0
1, 1824, Note_off_c, 1, 59, 0
1, 1830, Note_on_c, 1, 73, 127
1, 1830, Note_on_c, 1, 57, 127
1, 1854, Note_off_c, 1, 73, 0
1, 1854, Note_off_c, 1, 57, 0
1, 1860, Note_on_c, 1, 71, 127
1, 1860, Note_on_c, 1, 56, 127
1, 1884, Note_off_c, 1, 71, 0
1, 1884, Note_off_c, 1, 56, 0
1, 1890, Note_on_c, 1, 73, 127
1, 1890, Note_on_c, 1, 57, 127
1, 1914, Note_off_c, 1, 73, 0
1, 1914, Note_off_c, 1, 57, 0
1, 1920, Note_on_c, 1, 74, 127
1, 1920, Note_on_c, 1, 59, 127
1, 1968, Note_off_c, 1, 59, 0
1, 1980, Note_on_c, 1, 57, 127
1, 2028, Note_off_c, 1, 57, 0
1, 2040, Note_on_c, 1, 56, 127
1, 2064, Note_off_c, 1, 74, 0
1, 2088, Note_off_c, 1, 56, 0
1, 2100, Note_on_c, 1, 76, 127
1, 2100, Note_on_c, 1, 52, 127
1, 2148, Note_off_c, 1, 76, 0
1, 2148, Note_off_c, 1, 52, 0
1, 2160, Note_on_c, 1, 73, 127
1, 2160, Note_on_c, 1, 57, 127
1, 2208, Note_off_c, 1, 57, 0
1, 2220, Note_on_c, 1, 56, 127
1, 2256, Note_off_c, 1, 73, 0
1, 2268, Note_off_c, 1, 56, 0
1, 2280, Note_on_c, 1, 73, 127
1, 2280, Note_on_c, 1, 54, 127
1, 2328, Note_off_c, 1, 73, 0
1, 2328, Note_off_c, 1, 54, 0
1, 2340, Note_on_c, 1, 74, 127
1, 2340, Note_on_c, 1, 50, 127
1, 2388, Note_off_c, 1, 74, 0
1, 2388, Note_off_c, 1, 50, 0
1, 2400, Note_on_c, 1, 71, 127
1, 2400, Note_on_c, 1, 52, 127
1, 2424, Note_off_c, 1, 52, 0
1, 2429, Note_off_c, 1, 71, 0
1, 2430, Note_on_c, 1, 73, 127
1, 2430, Note_on_c, 1, 50, 127
1, 2454, Note_off_c, 1, 50, 0
1, 2459, Note_off_c, 1, 73, 0
1, 2460, Note_on_c, 1, 71, 127
1, 2460, Note_on_c, 1, 52, 127
1, 2508, Note_off_c, 1, 52, 0
1, 2520, Note_on_c, 1, 40, 127
1, 2568, Note_off_c, 1, 40, 0
1, 2573, Note_off_c, 1, 71, 0
1, 2580, Note_on_c, 1, 76, 127
1, 2580, Note_on_c, 1, 52, 127
1, 2628, Note_off_c, 1, 76, 0
1, 2628, Note_off_c, 1, 52, 0
1, 2640, Note_on_c, 1, 73, 127
1, 2640, Note_on_c, 1, 57, 127
1, 2688, Note_off_c, 1, 73, 0
1, 2700, Note_on_c, 1, 71, 127
1, 2736, Note_off_c, 1, 57, 0
1, 2748, Note_off_c, 1, 71, 0
1, 2760, Note_on_c, 1, 69, 127
1, 2760, Note_on_c, 1, 56, 127
1, 2808, Note_off_c, 1, 69, 0
1, 2808, Note_off_c, 1, 56, 0
1, 2820, Note_on_c, 1, 71, 127
1, 2820, Note_on_c, 1, 54, 127
1, 2868, Note_off_c, 1, 71, 0
1, 2868, Note_off_c, 1, 54, 0
1, 2880, Note_on_c, 1, 73, 127
1, 2880, Note_on_c, 1, 52, 127
1, 2928, Note_off_c, 1, 73, 0
1, 2928, Note_off_c, 1, 52, 0
1, 2940, Note_on_c, 1, 74, 127
1, 2940, Note_on_c, 1, 50, 127
1, 2988, Note_off_c, 1, 74, 0
1, 2988, Note_off_c, 1, 50, 0
1, 3000, Note_on_c, 1, 76, 127
1, 3000, Note_on_c, 1, 49, 127
1, 3048, Note_off_c, 1, 76, 0
1, 3048, Note_off_c, 1, 49, 0
1, 3060, Note_on_c, 1, 74, 127
1, 3060, Note_on_c, 1, 50, 127
1, 3108, Note_off_c, 1, 74, 0
1, 3108, Note_off_c, 1, 50, 0
1, 3120, Note_on_c, 1, 73, 127
1, 3120, Note_on_c, 1, 52, 127
1, 3144, Note_off_c, 1, 52, 0
1, 3150, Note_on_c, 1, 50, 127
1, 3168, Note_off_c, 1, 73, 0
1, 3174, Note_off_c, 1, 50, 0
1, 3180, Note_on_c, 1, 74, 127
1, 3180, Note_on_c, 1, 52, 127
1, 3204, Note_off_c, 1, 52, 0
1, 3210, Note_on_c, 1, 50, 127
1, 3228, Note_off_c, 1, 74, 0
1, 3234, Note_off_c, 1, 50, 0
1, 3240, Note_on_c, 1, 76, 127
1, 3240, Note_on_c, 1, 52, 127
1, 3264, Note_off_c, 1, 52, 0
1, 3270, Note_on_c, 1, 50, 127
1, 3288, Note_off_c, 1, 76, 0
1, 3294, Note_off_c, 1, 50, 0
1, 3300, Note_on_c, 1, 78, 127
1, 3300, Note_on_c, 1, 49, 127
1, 3329, Note_off_c, 1, 49, 0
1, 3330, Note_on_c, 1, 50, 127
1, 3348, Note_off_c, 1, 78, 0
1, 3359, Note_off_c, 1, 50, 0
1, 3360, Note_on_c, 1, 79, 127
1, 3360, Note_on_c, 1, 52, 127
1, 3408, Note_off_c, 1, 79, 0
1, 3408, Note_off_c, 1, 52, 0
1, 3420, Note_on_c, 1, 78, 127
1, 3420, Note_on_c, 1, 45, 127
1, 3468, Note_off_c, 1, 78, 0
1, 3468, Note_off_c, 1, 45, 0
1, 3480, Note_on_c, 1, 76, 127
1, 3480, Note_on_c, 1, 57, 127
1, 3528, Note_off_c, 1, 76, 0
1, 3528, Note_off_c, 1, 57, 0
1, 3540, Note_on_c, 1, 78, 127
1, 3540, Note_on_c, 1, 55, 127
1, 3588, Note_off_c, 1, 78, 0
1, 3588, Note_off_c, 1, 55, 0
1, 3600, Note_on_c, 1, 79, 127
1, 3600, Note_on_c, 1, 54, 127
1, 3648, Note_off_c, 1, 79, 0
1, 3648, Note_off_c, 1, 54, 0
1, 3660, Note_on_c, 1, 81, 127
1, 3660, Note_on_c, 1, 52, 127
1, 3708, Note_off_c, 1, 81, 0
1, 3708, Note_off_c, 1, 52, 0
1, 3720, Note_on_c, 1, 78, 127
1, 3720, Note_on_c, 1, 50, 127
1, 3768, Note_off_c, 1, 78, 0
1, 3768, Note_off_c, 1, 50, 0
1, 3780, Note_on_c, 1, 76, 127
1, 3780, Note_on_c, 1, 52, 127
1, 3828, Note_off_c, 1, 76, 0
1, 3828, Note_off_c, 1, 52, 0
1, 3840, Note_on_c, 1, 74, 127
1, 3840, Note_on_c, 1, 54, 127
1, 3864, Note_off_c, 1, 54, 0
1, 3870, Note_on_c, 1, 52, 127
1, 3888, Note_off_c, 1, 74, 0
1, 3894, Note_off_c, 1, 52, 0
1, 3900, Note_on_c, 1, 76, 127
1, 3900, Note_on_c, 1, 54, 127
1, 3924, Note_off_c, 1, 54, 0
1, 3930, Note_on_c, 1, 52, 127
1, 3948, Note_off_c, 1, 76, 0
1, 3954, Note_off_c, 1, 52, 0
1, 3960, Note_on_c, 1, 78, 127
1, 3960, Note_on_c, 1, 54, 127
1, 3984, Note_off_c, 1, 54, 0
1, 3990, Note_on_c, 1, 52, 127
1, 4008, Note_off_c, 1, 78, 0
1, 4014, Note_off_c, 1, 52, 0
1, 4020, Note_on_c, 1, 80, 127
1, 4020, Note_on_c, 1, 50, 127
1, 4044, Note_off_c, 1, 50, 0
1, 4050, Note_on_c, 1, 52, 127
1, 4068, Note_off_c, 1, 80, 0
1, 4074, Note_off_c, 1, 52, 0
1, 4080, Note_on_c, 1, 81, 127
1, 4080, Note_on_c, 1, 54, 127
1, 4128, Note_off_c, 1, 81, 0
1, 4128, Note_off_c, 1, 54, 0
1, 4140, Note_on_c, 1, 80, 127
1, 4140, Note_on_c, 1, 47, 127
1, 4188, Note_off_c, 1, 80, 0
1, 4188, Note_off_c, 1, 47, 0
1, 4200, Note_on_c, 1, 78, 127
1, 4200, Note_on_c, 1, 59, 127
1, 4248, Note_off_c, 1, 78, 0
1, 4248, Note_off_c, 1, 59, 0
1, 4260, Note_on_c, 1, 80, 127
1, 4260, Note_on_c, 1, 57, 127
1, 4308, Note_off_c, 1, 80, 0
1, 4308, Note_off_c, 1, 57, 0
1, 4320, Note_on_c, 1, 81, 127
1, 4320, Note_on_c, 1, 56, 127
1, 4368, Note_off_c, 1, 81, 0
1, 4368, Note_off_c, 1, 56, 0
1, 4380, Note_on_c, 1, 83, 127
1, 4380, Note_on_c, 1, 54, 127
1, 4428, Note_off_c, 1, 83, 0
1, 4428, Note_off_c, 1, 54, 0
1, 4440, Note_on_c, 1, 80, 127
1, 4440, Note_on_c, 1, 52, 127
1, 4488, Note_off_c, 1, 80, 0
1, 4488, Note_off_c, 1, 52, 0
1, 4500, Note_on_c, 1, 78, 127
1, 4500, Note_on_c, 1, 54, 127
1, 4548, Note_off_c, 1, 78, 0
1, 4548, Note_off_c, 1, 54, 0
1, 4560, Note_on_c, 1, 76, 127
1, 4560, Note_on_c, 1, 56, 127
1, 4584, Note_off_c, 1, 56, 0
1, 4590, Note_on_c, 1, 54, 127
1, 4608, Note_off_c, 1, 76, 0
1, 4614, Note_off_c, 1, 54, 0
1, 4620, Note_on_c, 1, 78, 127
1, 4620, Note_on_c, 1, 56, 127
1, 4644, Note_off_c, 1, 56, 0
1, 4650, Note_on_c, 1, 54, 127
1, 4668, Note_off_c, 1, 78, 0
1, 4674, Note_off_c, 1, 54, 0
1, 4680, Note_on_c, 1, 80, 127
1, 4680, Note_on_c, 1, 56, 127
1, 4704, Note_off_c, 1, 56, 0
1, 4710, Note_on_c, 1, 54, 127
1, 4728, Note_off_c, 1, 80, 0
1, 4734, Note_off_c, 1, 54, 0
1, 4740, Note_on_c, 1, 81, 127
1, 4740, Note_on_c, 1, 52, 127
1, 4764, Note_off_c, 1, 52, 0
1, 4770, Note_on_c, 1, 54, 127
1, 4788, Note_off_c, 1, 81, 0
1, 4794, Note_off_c, 1, 54, 0
1, 4800, Note_on_c, 1, 83, 127
1, 4800, Note_on_c, 1, 56, 127
1, 4848, Note_off_c, 1, 83, 0
1, 4848, Note_off_c, 1, 56, 0
1, 4860, Note_on_c, 1, 81, 127
1, 4860, Note_on_c, 1, 54, 127
1, 4908, Note_off_c, 1, 81, 0
1, 4908, Note_off_c, 1, 54, 0
1, 4920, Note_on_c, 1, 80, 127
1, 4920, Note_on_c, 1, 52, 127
1, 4968, Note_off_c, 1, 80, 0
1, 4968, Note_off_c, 1, 52, 0
1, 4980, Note_on_c, 1, 78, 127
1, 4980, Note_on_c, 1, 54, 127
1, 5028, Note_off_c, 1, 78, 0
1, 5028, Note_off_c, 1, 54, 0
1, 5040, Note_on_c, 1, 76, 127
1, 5040, Note_on_c, 1, 56, 127
1, 5088, Note_off_c, 1, 76, 0
1, 5088, Note_off_c, 1, 56, 0
1, 5100, Note_on_c, 1, 74, 127
1, 5100, Note_on_c, 1, 52, 127
1, 5148, Note_off_c, 1, 74, 0
1, 5148, Note_off_c, 1, 52, 0
1, 5160, Note_on_c, 1, 73, 127
1, 5160, Note_on_c, 1, 57, 127
1, 5208, Note_off_c, 1, 73, 0
1, 5208, Note_off_c, 1, 57, 0
1, 5220, Note_on_c, 1, 75, 127
1, 5220, Note_on_c, 1, 59, 127
1, 5268, Note_off_c, 1, 75, 0
1, 5268, Note_off_c, 1, 59, 0
1, 5280, Note_on_c, 1, 76, 127
1, 5280, Note_on_c, 1, 61, 127
1, 5328, Note_off_c, 1, 76, 0
1, 5328, Note_off_c, 1, 61, 0
1, 5340, Note_on_c, 1, 78, 127
1, 5340, Note_on_c, 1, 59, 127
1, 5388, Note_off_c, 1, 78, 0
1, 5388, Note_off_c, 1, 59, 0
1, 5400, Note_on_c, 1, 80, 127
1, 5400, Note_on_c, 1, 57, 127
1, 5448, Note_off_c, 1, 80, 0
1, 5448, Note_off_c, 1, 57, 0
1, 5460, Note_on_c, 1, 76, 127
1, 5460, Note_on_c, 1, 56, 127
1, 5508, Note_off_c, 1, 76, 0
1, 5508, Note_off_c, 1, 56, 0
1, 5520, Note_on_c, 1, 81, 127
1, 5520, Note_on_c, 1, 54, 127
1, 5568, Note_off_c, 1, 81, 0
1, 5568, Note_off_c, 1, 54, 0
1, 5580, Note_on_c, 1, 80, 127
1, 5580, Note_on_c, 1, 56, 127
1, 5628, Note_off_c, 1, 80, 0
1, 5628, Note_off_c, 1, 56, 0
1, 5640, Note_on_c, 1, 78, 127
1, 5640, Note_on_c, 1, 57, 127
1, 5688, Note_off_c, 1, 78, 0
1, 5688, Note_off_c, 1, 57, 0
1, 5700, Note_on_c, 1, 76, 127
1, 5700, Note_on_c, 1, 56, 127
1, 5748, Note_off_c, 1, 76, 0
1, 5748, Note_off_c, 1, 56, 0
1, 5760, Note_on_c, 1, 75, 127
1, 5760, Note_on_c, 1, 57, 127
1, 5808, Note_off_c, 1, 75, 0
1, 5808, Note_off_c, 1, 57, 0
1, 5820, Note_on_c, 1, 73, 127
1, 5820, Note_on_c, 1, 54, 127
1, 5868, Note_off_c, 1, 73, 0
1, 5868, Note_off_c, 1, 54, 0
1, 5880, Note_on_c, 1, 71, 127
1, 5880, Note_on_c, 1, 56, 127
1, 5928, Note_off_c, 1, 71, 0
1, 5928, Note_off_c, 1, 56, 0
1, 5940, Note_on_c, 1, 73, 127
1, 5940, Note_on_c, 1, 57, 127
1, 5988, Note_off_c, 1, 73, 0
1, 5988, Note_off_c, 1, 57, 0
1, 6000, Note_on_c, 1, 75, 127
1, 6000, Note_on_c, 1, 59, 127
1, 6048, Note_off_c, 1, 75, 0
1, 6048, Note_off_c, 1, 59, 0
1, 6060, Note_on_c, 1, 76, 127
1, 6060, Note_on_c, 1, 57, 127
1, 6108, Note_off_c, 1, 76, 0
1, 6108, Note_off_c, 1, 57, 0
1, 6120, Note_on_c, 1, 78, 127
1, 6120, Note_on_c, 1, 56, 127
1, 6168, Note_off_c, 1, 78, 0
1, 6168, Note_off_c, 1, 56, 0
1, 6180, Note_on_c, 1, 75, 127
1, 6180, Note_on_c, 1, 54, 127
1, 6228, Note_off_c, 1, 75, 0
1, 6228, Note_off_c, 1, 54, 0
1, 6240, Note_on_c, 1, 80, 127
1, 6240, Note_on_c, 1, 52, 127
1, 6288, Note_off_c, 1, 80, 0
1, 6288, Note_off_c, 1, 52, 0
1, 6300, Note_on_c, 1, 78, 127
1, 6300, Note_on_c, 1, 54, 127
1, 6348, Note_off_c, 1, 78, 0
1, 6348, Note_off_c, 1, 54, 0
1, 6360, Note_on_c, 1, 76, 127
1, 6360, Note_on_c, 1, 56, 127
1, 6408, Note_off_c, 1, 76, 0
1, 6408, Note_off_c, 1, 56, 0
1, 6420, Note_on_c, 1, 75, 127
1, 6420, Note_on_c, 1, 54, 127
1, 6468, Note_off_c, 1, 75, 0
1, 6468, Note_off_c, 1, 54, 0
1, 6480, Note_on_c, 1, 73, 127
1, 6480, Note_on_c, 1, 56, 127
1, 6528, Note_off_c, 1, 73, 0
1, 6528, Note_off_c, 1, 56, 0
1, 6540, Note_on_c, 1, 71, 127
1, 6540, Note_on_c, 1, 52, 127
1, 6588, Note_off_c, 1, 71, 0
1, 6588, Note_off_c, 1, 52, 0
1, 6600, Note_on_c, 1, 69, 127
1, 6600, Note_on_c, 1, 54, 127
1, 6648, Note_off_c, 1, 69, 0
1, 6648, Note_off_c, 1, 54, 0
1, 6660, Note_on_c, 1, 71, 127
1, 6660, Note_on_c, 1, 56, 127
1, 6708, Note_off_c, 1, 71, 0
1, 6708, Note_off_c, 1, 56, 0
1, 6720, Note_on_c, 1, 73, 127
1, 6720, Note_on_c, 1, 57, 127
1, 6768, Note_off_c, 1, 73, 0
1, 6768, Note_off_c, 1, 57, 0
1, 6780, Note_on_c, 1, 75, 127
1, 6780, Note_on_c, 1, 56, 127
1, 6828, Note_off_c, 1, 75, 0
1, 6828, Note_off_c, 1, 56, 0
1, 6840, Note_on_c, 1, 76, 127
1, 6840, Note_on_c, 1, 54, 127
1, 6888, Note_off_c, 1, 76, 0
1, 6888, Note_off_c, 1, 54, 0
1, 6900, Note_on_c, 1, 73, 127
1, 6900, Note_on_c, 1, 52, 127
1, 6948, Note_off_c, 1, 73, 0
1, 6948, Note_off_c, 1, 52, 0
1, 6960, Note_on_c, 1, 78, 127
1, 6960, Note_on_c, 1, 51, 127
1, 7008, Note_off_c, 1, 78, 0
1, 7008, Note_off_c, 1, 51, 0
1, 7020, Note_on_c, 1, 76, 127
1, 7020, Note_on_c, 1, 52, 127
1, 7068, Note_off_c, 1, 76, 0
1, 7068, Note_off_c, 1, 52, 0
1, 7080, Note_on_c, 1, 75, 127
1, 7080, Note_on_c, 1, 54, 127
1, 7128, Note_off_c, 1, 75, 0
1, 7128, Note_off_c, 1, 54, 0
1, 7140, Note_on_c, 1, 73, 127
1, 7140, Note_on_c, 1, 52, 127
1, 7188, Note_off_c, 1, 73, 0
1, 7188, Note_off_c, 1, 52, 0
1, 7200, Note_on_c, 1, 71, 127
1, 7200, Note_on_c, 1, 54, 127
1, 7248, Note_off_c, 1, 71, 0
1, 7248, Note_off_c, 1, 54, 0
1, 7260, Note_on_c, 1, 69, 127
1, 7260, Note_on_c, 1, 51, 127
1, 7308, Note_off_c, 1, 69, 0
1, 7308, Note_off_c, 1, 51, 0
1, 7320, Note_on_c, 1, 68, 127
1, 7320, Note_on_c, 1, 52, 127
1, 7368, Note_off_c, 1, 68, 0
1, 7368, Note_off_c, 1, 52, 0
1, 7380, Note_on_c, 1, 76, 127
1, 7380, Note_on_c, 1, 54, 127
1, 7428, Note_off_c, 1, 76, 0
1, 7428, Note_off_c, 1, 54, 0
1, 7440, Note_on_c, 1, 75, 127
1, 7440, Note_on_c, 1, 54, 127
1, 7452, Note_off_c, 1, 54, 0
1, 7455, Note_on_c, 1, 56, 127
1, 7467, Note_off_c, 1, 56, 0
1, 7488, Note_off_c, 1, 75, 0
1, 7500, Note_on_c, 1, 73, 127
1, 7500, Note_on_c, 1, 52, 127
1, 7524, Note_off_c, 1, 52, 0
1, 7530, Note_on_c, 1, 54, 127
1, 7548, Note_off_c, 1, 73, 0
1, 7554, Note_off_c, 1, 54, 0
1, 7560, Note_on_c, 1, 71, 127
1, 7560, Note_on_c, 1, 56, 127
1, 7608, Note_off_c, 1, 71, 0
1, 7608, Note_off_c, 1, 56, 0
1, 7620, Note_on_c, 1, 69, 127
1, 7620, Note_on_c, 1, 57, 127
1, 7668, Note_off_c, 1, 69, 0
1, 7668, Note_off_c, 1, 57, 0
1, 7680, Note_on_c, 1, 68, 127
1, 7680, Note_on_c, 1, 57, 127
1, 7692, Note_off_c, 1, 57, 0
1, 7695, Note_on_c, 1, 59, 127
1, 7707, Note_off_c, 1, 59, 0
1, 7728, Note_off_c, 1, 68, 0
1, 7740, Note_on_c, 1, 69, 127
1, 7740, Note_on_c, 1, 56, 127
1, 7764, Note_off_c, 1, 69, 0
1, 7764, Note_off_c, 1, 56, 0
1, 7770, Note_on_c, 1, 71, 127
1, 7770, Note_on_c, 1, 57, 127
1, 7794, Note_off_c, 1, 71, 0
1, 7794, Note_off_c, 1, 57, 0
1, 7800, Note_on_c, 1, 68, 127
1, 7800, Note_on_c, 1, 59, 127
1, 7812, Note_off_c, 1, 68, 0
1, 7815, Note_on_c, 1, 66, 127
1, 7827, Note_off_c, 1, 66, 0
1, 7890, Note_off_c, 1, 59, 0
1, 7905, Note_on_c, 1, 66, 127
1, 7920, Note_off_c, 1, 66, 0
1, 7920, Note_on_c, 1, 68, 127
1, 7920, Note_on_c, 1, 47, 127
1, 7932, Note_off_c, 1, 68, 0
1, 7980, Note_on_c, 1, 64, 127
1, 8010, Note_off_c, 1, 47, 0
1, 8028, Note_off_c, 1, 64, 0
1, 8040, Note_on_c, 1, 64, 127
1, 8040, Note_on_c, 1, 40, 127
1, 8097, Note_off_c, 1, 64, 0
1, 8100, Note_on_c, 1, 66, 127
1, 8136, Note_off_c, 1, 40, 0
1, 8157, Note_off_c, 1, 66, 0
1, 8160, Note_on_c, 1, 68, 127
1, 8160, Note_on_c, 1, 52, 127
1, 8208, Note_off_c, 1, 52, 0
1, 8217, Note_off_c, 1, 68, 0
1, 8220, Note_on_c, 1, 69, 127
1, 8220, Note_on_c, 1, 50, 127
1, 8268, Note_off_c, 1, 50, 0
1, 8277, Note_off_c, 1, 69, 0
1, 8280, Note_on_c, 1, 71, 127
1, 8280, Note_on_c, 1, 49, 127
1, 8328, Note_off_c, 1, 49, 0
1, 8337, Note_off_c, 1, 71, 0
1, 8340, Note_on_c, 1, 68, 127
1, 8340, Note_on_c, 1, 47, 127
1, 8388, Note_off_c, 1, 47, 0
1, 8397, Note_off_c, 1, 68, 0
1, 8400, Note_on_c, 1, 73, 127
1, 8400, Note_on_c, 1, 45, 127
1, 8457, Note_off_c, 1, 73, 0
1, 8460, Note_on_c, 1, 71, 127
1, 8490, Note_off_c, 1, 45, 0
1, 8517, Note_off_c, 1, 71, 0
1, 8520, Note_on_c, 1, 69, 127
1, 8520, Note_on_c, 1, 47, 127
1, 8544, Note_off_c, 1, 47, 0
1, 8550, Note_on_c, 1, 45, 127
1, 8574, Note_off_c, 1, 45, 0
1, 8577, Note_off_c, 1, 69, 0
1, 8580, Note_on_c, 1, 68, 127
1, 8580, Note_on_c, 1, 47, 127
1, 8604, Note_off_c, 1, 47, 0
1, 8610, Note_on_c, 1, 45, 127
1, 8634, Note_off_c, 1, 45, 0
1, 8637, Note_off_c, 1, 68, 0
1, 8640, Note_on_c, 1, 66, 127
1, 8640, Note_on_c, 1, 47, 127
1, 8664, Note_off_c, 1, 47, 0
1, 8670, Note_on_c, 1, 45, 127
1, 8694, Note_off_c, 1, 45, 0
1, 8697, Note_off_c, 1, 66, 0
1, 8700, Note_on_c, 1, 64, 127
1, 8700, Note_on_c, 1, 44, 127
1, 8724, Note_off_c, 1, 44, 0
1, 8730, Note_on_c, 1, 45, 127
1, 8754, Note_off_c, 1, 45, 0
1, 8757, Note_off_c, 1, 64, 0
1, 8760, Note_on_c, 1, 63, 127
1, 8760, Note_on_c, 1, 47, 127
1, 8808, Note_off_c, 1, 47, 0
1, 8817, Note_off_c, 1, 63, 0
1, 8820, Note_on_c, 1, 64, 127
1, 8820, Note_on_c, 1, 49, 127
1, 8868, Note_off_c, 1, 49, 0
1, 8877, Note_off_c, 1, 64, 0
1, 8880, Note_on_c, 1, 66, 127
1, 8880, Note_on_c, 1, 51, 127
1, 8928, Note_off_c, 1, 51, 0
1, 8937, Note_off_c, 1, 66, 0
1, 8940, Note_on_c, 1, 68, 127
1, 8940, Note_on_c, 1, 49, 127
1, 8988, Note_off_c, 1, 49, 0
1, 8997, Note_off_c, 1, 68, 0
1, 9000, Note_on_c, 1, 69, 127
1, 9000, Note_on_c, 1, 47, 127
1, 9048, Note_off_c, 1, 47, 0
1, 9057, Note_off_c, 1, 69, 0
1, 9060, Note_on_c, 1, 66, 127
1, 9060, Note_on_c, 1, 45, 127
1, 9108, Note_off_c, 1, 45, 0
1, 9117, Note_off_c, 1, 66, 0
1, 9120, Note_on_c, 1, 71, 127
1, 9120, Note_on_c, 1, 44, 127
1, 9177, Note_off_c, 1, 71, 0
1, 9180, Note_on_c, 1, 69, 127
1, 9216, Note_off_c, 1, 44, 0
1, 9237, Note_off_c, 1, 69, 0
1, 9240, Note_on_c, 1, 68, 127
1, 9240, Note_on_c, 1, 47, 127
1, 9264, Note_off_c, 1, 47, 0
1, 9270, Note_on_c, 1, 45, 127
1, 9294, Note_off_c, 1, 45, 0
1, 9297, Note_off_c, 1, 68, 0
1, 9300, Note_on_c, 1, 66, 127
1, 9300, Note_on_c, 1, 47, 127
1, 9324, Note_off_c, 1, 47, 0
1, 9330, Note_on_c, 1, 45, 127
1, 9354, Note_off_c, 1, 45, 0
1, 9357, Note_off_c, 1, 66, 0
1, 9360, Note_on_c, 1, 64, 127
1, 9360, Note_on_c, 1, 47, 127
1, 9384, Note_off_c, 1, 47, 0
1, 9390, Note_on_c, 1, 45, 127
1, 9414, Note_off_c, 1, 45, 0
1, 9417, Note_off_c, 1, 64, 0
1, 9420, Note_on_c, 1, 63, 127
1, 9420, Note_on_c, 1, 42, 127
1, 9444, Note_off_c, 1, 42, 0
1, 9450, Note_on_c, 1, 44, 127
1, 9474, Note_off_c, 1, 44, 0
1, 9477, Note_off_c, 1, 63, 0
1, 9480, Note_on_c, 1, 61, 127
1, 9480, Note_on_c, 1, 45, 127
1, 9528, Note_off_c, 1, 61, 0
1, 9528, Note_off_c, 1, 45, 0
1, 9540, Note_on_c, 1, 63, 127
1, 9540, Note_on_c, 1, 47, 127
1, 9588, Note_off_c, 1, 63, 0
1, 9588, Note_off_c, 1, 47, 0
1, 9600, Note_on_c, 1, 64, 127
1, 9600, Note_on_c, 1, 49, 127
1, 9648, Note_off_c, 1, 64, 0
1, 9648, Note_off_c, 1, 49, 0
1, 9660, Note_on_c, 1, 66, 127
1, 9660, Note_on_c, 1, 47, 127
1, 9708, Note_off_c, 1, 66, 0
1, 9708, Note_off_c, 1, 47, 0
1, 9720, Note_on_c, 1, 68, 127
1, 9720, Note_on_c, 1, 45, 127
1, 9768, Note_off_c, 1, 68, 0
1, 9768, Note_off_c, 1, 45, 0
1, 9780, Note_on_c, 1, 64, 127
1, 9780, Note_on_c, 1, 44, 127
1, 9828, Note_off_c, 1, 64, 0
1, 9828, Note_off_c, 1, 44, 0
1, 9840, Note_on_c, 1, 69, 127
1, 9840, Note_on_c, 1, 42, 127
1, 9888, Note_off_c, 1, 69, 0
1, 9888, Note_off_c, 1, 42, 0
1, 9900, Note_on_c, 1, 68, 127
1, 9900, Note_on_c, 1, 44, 127
1, 9948, Note_off_c, 1, 68, 0
1, 9948, Note_off_c, 1, 44, 0
1, 9960, Note_on_c, 1, 66, 127
1, 9960, Note_on_c, 1, 45, 127
1, 10008, Note_off_c, 1, 66, 0
1, 10008, Note_off_c, 1, 45, 0
1, 10020, Note_on_c, 1, 64, 127
1, 10020, Note_on_c, 1, 44, 127
1, 10068, Note_off_c, 1, 64, 0
1, 10068, Note_off_c, 1, 44, 0
1, 10080, Note_on_c, 1, 63, 127
1, 10080, Note_on_c, 1, 42, 127
1, 10128, Note_off_c, 1, 63, 0
1, 10128, Note_off_c, 1, 42, 0
1, 10140, Note_on_c, 1, 61, 127
1, 10140, Note_on_c, 1, 40, 127
1, 10188, Note_off_c, 1, 61, 0
1, 10188, Note_off_c, 1, 40, 0
1, 10200, Note_on_c, 1, 59, 127
1, 10200, Note_on_c, 1, 39, 127
1, 10248, Note_off_c, 1, 59, 0
1, 10260, Note_on_c, 1, 69, 127
1, 10296, Note_off_c, 1, 39, 0
1, 10308, Note_off_c, 1, 69, 0
1, 10320, Note_on_c, 1, 68, 127
1, 10320, Note_on_c, 1, 47, 127
1, 10368, Note_off_c, 1, 68, 0
1, 10380, Note_on_c, 1, 66, 127
1, 10416, Note_off_c, 1, 47, 0
1, 10428, Note_off_c, 1, 66, 0
1, 10440, Note_on_c, 1, 64, 127
1, 10440, Note_on_c, 1, 49, 127
1, 10488, Note_off_c, 1, 64, 0
1, 10500, Note_on_c, 1, 63, 127
1, 10536, Note_off_c, 1, 49, 0
1, 10548, Note_off_c, 1, 63, 0
1, 10560, Note_on_c, 1, 64, 127
1, 10560, Note_on_c, 1, 45, 127
1, 10608, Note_off_c, 1, 64, 0
1, 10620, Note_on_c, 1, 66, 127
1, 10656, Note_off_c, 1, 45, 0
1, 10668, Note_off_c, 1, 66, 0
1, 10680, Note_on_c, 1, 68, 127
1, 10680, Note_on_c, 1, 47, 127
1, 10695, Note_off_c, 1, 68, 0
1, 10695, Note_on_c, 1, 66, 127
1, 10710, Note_off_c, 1, 66, 0
1, 10776, Note_off_c, 1, 47, 0
1, 10785, Note_on_c, 1, 66, 127
1, 10797, Note_off_c, 1, 66, 0
1, 10800, Note_on_c, 1, 68, 127
1, 10800, Note_on_c, 1, 35, 127
1, 10812, Note_off_c, 1, 68, 0
1, 10815, Note_on_c, 1, 66, 127
1, 10844, Note_off_c, 1, 66, 0
1, 10860, Note_on_c, 1, 64, 127
1, 10896, Note_off_c, 1, 35, 0
1, 10908, Note_off_c, 1, 64, 0
1, 10920, Note_on_c, 1, 64, 127
1, 10920, Note_on_c, 1, 40, 127
1, 11040, Note_on_c, 1, 44, 127
1, 11136, Note_off_c, 1, 44, 0
1, 11160, Note_on_c, 1, 47, 127
1, 11256, Note_off_c, 1, 47, 0
1, 11280, Note_on_c, 1, 52, 127
1, 11472, Note_off_c, 1, 64, 0
1, 11472, Note_off_c, 1, 40, 0
1, 11472, Note_off_c, 1, 52, 0
1, 11520, Note_on_c, 1, 76, 127
1, 11616, Note_off_c, 1, 76, 0
1, 11640, Note_on_c, 1, 81, 127
1, 11736, Note_off_c, 1, 81, 0
1, 11760, Note_on_c, 1, 80, 127
1, 11808, Note_off_c, 1, 80, 0
1, 11820, Note_on_c, 1, 78, 127
1, 11868, Note_off_c, 1, 78, 0
1, 11880, Note_on_c, 1, 76, 127
1, 11880, Note_on_c, 1, 64, 127
1, 11928, Note_off_c, 1, 76, 0
1, 11940, Note_on_c, 1, 74, 127
1, 11976, Note_off_c, 1, 64, 0
1, 11988, Note_off_c, 1, 74, 0
1, 12000, Note_on_c, 1, 73, 127
1, 12000, Note_on_c, 1, 69, 127
1, 12048, Note_off_c, 1, 73, 0
1, 12060, Note_on_c, 1, 74, 127
1, 12096, Note_off_c, 1, 69, 0
1, 12108, Note_off_c, 1, 74, 0
1, 12120, Note_on_c, 1, 76, 127
1, 12120, Note_on_c, 1, 68, 127
1, 12149, Note_off_c, 1, 76, 0
1, 12150, Note_on_c, 1, 74, 127
1, 12168, Note_off_c, 1, 68, 0
1, 12179, Note_off_c, 1, 74, 0
1, 12180, Note_on_c, 1, 76, 127
1, 12180, Note_on_c, 1, 66, 127
1, 12204, Note_off_c, 1, 76, 0
1, 12210, Note_on_c, 1, 74, 127
1, 12228, Note_off_c, 1, 66, 0
1, 12234, Note_off_c, 1, 74, 0
1, 12240, Note_on_c, 1, 76, 127
1, 12240, Note_on_c, 1, 64, 127
1, 12264, Note_off_c, 1, 76, 0
1, 12270, Note_on_c, 1, 74, 127
1, 12288, Note_off_c, 1, 64, 0
1, 12294, Note_off_c, 1, 74, 0
1, 12300, Note_on_c, 1, 73, 127
1, 12300, Note_on_c, 1, 62, 127
1, 12324, Note_off_c, 1, 73, 0
1, 12330, Note_on_c, 1, 74, 127
1, 12348, Note_off_c, 1, 62, 0
1, 12354, Note_off_c, 1, 74, 0
1, 12360, Note_on_c, 1, 76, 127
1, 12360, Note_on_c, 1, 61, 127
1, 12417, Note_off_c, 1, 61, 0
1, 12420, Note_on_c, 1, 62, 127
1, 12456, Note_off_c, 1, 76, 0
1, 12477, Note_off_c, 1, 62, 0
1, 12480, Note_on_c, 1, 74, 127
1, 12480, Note_on_c, 1, 64, 127
1, 12509, Note_off_c, 1, 64, 0
1, 12510, Note_on_c, 1, 62, 127
1, 12528, Note_off_c, 1, 74, 0
1, 12539, Note_off_c, 1, 62, 0
1, 12540, Note_on_c, 1, 73, 127
1, 12540, Note_on_c, 1, 64, 127
1, 12564, Note_off_c, 1, 64, 0
1, 12570, Note_on_c, 1, 62, 127
1, 12588, Note_off_c, 1, 73, 0
1, 12594, Note_off_c, 1, 62, 0
1, 12600, Note_on_c, 1, 71, 127
1, 12600, Note_on_c, 1, 64, 127
1, 12624, Note_off_c, 1, 64, 0
1, 12630, Note_on_c, 1, 62, 127
1, 12648, Note_off_c, 1, 71, 0
1, 12654, Note_off_c, 1, 62, 0
1, 12660, Note_on_c, 1, 69, 127
1, 12660, Note_on_c, 1, 61, 127
1, 12684, Note_off_c, 1, 61, 0
1, 12690, Note_on_c, 1, 62, 127
1, 12708, Note_off_c, 1, 69, 0
1, 12714, Note_off_c, 1, 62, 0
1, 12720, Note_on_c, 1, 68, 127
1, 12720, Note_on_c, 1, 64, 127
1, 12768, Note_off_c, 1, 68, 0
1, 12780, Note_on_c, 1, 69, 127
1, 12816, Note_off_c, 1, 64, 0
1, 12828, Note_off_c, 1, 69, 0
1, 12840, Note_on_c, 1, 71, 127
1, 12840, Note_on_c, 1, 62, 127
1, 12869, Note_off_c, 1, 71, 0
1, 12870, Note_on_c, 1, 69, 127
1, 12888, Note_off_c, 1, 62, 0
1, 12899, Note_off_c, 1, 69, 0
1, 12900, Note_on_c, 1, 71, 127
1, 12900, Note_on_c, 1, 61, 127
1, 12924, Note_off_c, 1, 71, 0
1, 12930, Note_on_c, 1, 69, 127
1, 12948, Note_off_c, 1, 61, 0
1, 12954, Note_off_c, 1, 69, 0
1, 12960, Note_on_c, 1, 71, 127
1, 12960, Note_on_c, 1, 59, 127
1, 12984, Note_off_c, 1, 71, 0
1, 12990, Note_on_c, 1, 69, 127
1, 13008, Note_off_c, 1, 59, 0
1, 13014, Note_off_c, 1, 69, 0
1, 13020, Note_on_c, 1, 68, 127
1, 13020, Note_on_c, 1, 57, 127
1, 13044, Note_off_c, 1, 68, 0
1, 13050, Note_on_c, 1, 69, 127
1, 13068, Note_off_c, 1, 57, 0
1, 13074, Note_off_c, 1, 69, 0
1, 13080, Note_on_c, 1, 71, 127
1, 13080, Note_on_c, 1, 56, 127
1, 13128, Note_off_c, 1, 71, 0
1, 13128, Note_off_c, 1, 56, 0
1, 13140, Note_on_c, 1, 73, 127
1, 13140, Note_on_c, 1, 57, 127
1, 13188, Note_off_c, 1, 73, 0
1, 13188, Note_off_c, 1, 57, 0
1, 13200, Note_on_c, 1, 74, 127
1, 13200, Note_on_c, 1, 59, 127
1, 13229, Note_off_c, 1, 74, 0
1, 13229, Note_off_c, 1, 59, 0
1, 13230, Note_on_c, 1, 73, 127
1, 13230, Note_on_c, 1, 57, 127
1, 13259, Note_off_c, 1, 73, 0
1, 13259, Note_off_c, 1, 57, 0
1, 13260, Note_on_c, 1, 74, 127
1, 13260, Note_on_c, 1, 59, 127
1, 13284, Note_off_c, 1, 74, 0
1, 13284, Note_off_c, 1, 59, 0
1, 13290, Note_on_c, 1, 73, 127
1, 13290, Note_on_c, 1, 57, 127
1, 13314, Note_off_c, 1, 73, 0
1, 13314, Note_off_c, 1, 57, 0
1, 13320, Note_on_c, 1, 74, 127
1, 13320, Note_on_c, 1, 59, 127
1, 13344, Note_off_c, 1, 74, 0
1, 13344, Note_off_c, 1, 59, 0
1, 13350, Note_on_c, 1, 73, 127
1, 13350, Note_on_c, 1, 57, 127
1, 13374, Note_off_c, 1, 73, 0
1, 13374, Note_off_c, 1, 57, 0
1, 13380, Note_on_c, 1, 71, 127
1, 13380, Note_on_c, 1, 56, 127
1, 13404, Note_off_c, 1, 71, 0
1, 13404, Note_off_c, 1, 56, 0
1, 13410, Note_on_c, 1, 73, 127
1, 13410, Note_on_c, 1, 57, 127
1, 13434, Note_off_c, 1, 73, 0
1, 13434, Note_off_c, 1, 57, 0
1, 13440, Note_on_c, 1, 74, 127
1, 13440, Note_on_c, 1, 59, 127
1, 13488, Note_off_c, 1, 59, 0
1, 13500, Note_on_c, 1, 57, 127
1, 13548, Note_off_c, 1, 57, 0
1, 13560, Note_on_c, 1, 56, 127
1, 13584, Note_off_c, 1, 74, 0
1, 13608, Note_off_c, 1, 56, 0
1, 13620, Note_on_c, 1, 76, 127
1, 13620, Note_on_c, 1, 52, 127
1, 13668, Note_off_c, 1, 76, 0
1, 13668, Note_off_c, 1, 52, 0
1, 13680, Note_on_c, 1, 73, 127
1, 13680, Note_on_c, 1, 57, 127
1, 13728, Note_off_c, 1, 57, 0
1, 13740, Note_on_c, 1, 56, 127
1, 13776, Note_off_c, 1, 73, 0
1, 13788, Note_off_c, 1, 56, 0
1, 13800, Note_on_c, 1, 73, 127
1, 13800, Note_on_c, 1, 54, 127
1, 13848, Note_off_c, 1, 73, 0
1, 13848, Note_off_c, 1, 54, 0
1, 13860, Note_on_c, 1, 74, 127
1, 13860, Note_on_c, 1, 50, 127
1, 13908, Note_off_c, 1, 74, 0
1, 13908, Note_off_c, 1, 50, 0
1, 13920, Note_on_c, 1, 71, 127
1, 13920, Note_on_c, 1, 52, 127
1, 13944, Note_off_c, 1, 52, 0
1, 13949, Note_off_c, 1, 71, 0
1, 13950, Note_on_c, 1, 73, 127
1, 13950, Note_on_c, 1, 50, 127
1, 13974, Note_off_c, 1, 50, 0
1, 13979, Note_off_c, 1, 73, 0
1, 13980, Note_on_c, 1, 71, 127
1, 13980, Note_on_c, 1, 52, 127
1, 14028, Note_off_c, 1, 52, 0
1, 14040, Note_on_c, 1, 40, 127
1, 14088, Note_off_c, 1, 40, 0
1, 14093, Note_off_c, 1, 71, 0
1, 14100, Note_on_c, 1, 76, 127
1, 14100, Note_on_c, 1, 52, 127
1, 14148, Note_off_c, 1, 76, 0
1, 14148, Note_off_c, 1, 52, 0
1, 14160, Note_on_c, 1, 73, 127
1, 14160, Note_on_c, 1, 57, 127
1, 14208, Note_off_c, 1, 73, 0
1, 14220, Note_on_c, 1, 71, 127
1, 14256, Note_off_c, 1, 57, 0
1, 14268, Note_off_c, 1, 71, 0
1, 14280, Note_on_c, 1, 69, 127
1, 14280, Note_on_c, 1, 56, 127
1, 14328, Note_off_c, 1, 69, 0
1, 14328, Note_off_c, 1, 56, 0
1, 14340, Note_on_c, 1, 71, 127
1, 14340, Note_on_c, 1, 54, 127
1, 14388, Note_off_c, 1, 71, 0
1, 14388, Note_off_c, 1, 54, 0
1, 14400, Note_on_c, 1, 73, 127
1, 14400, Note_on_c, 1, 52, 127
1, 14448, Note_off_c, 1, 73, 0
1, 14448, Note_off_c, 1, 52, 0
1, 14460, Note_on_c, 1, 74, 127
1, 14460, Note_on_c, 1, 50, 127
1, 14508, Note_off_c, 1, 74, 0
1, 14508, Note_off_c, 1, 50, 0
1, 14520, Note_on_c, 1, 76, 127
1, 14520, Note_on_c, 1, 49, 127
1, 14568, Note_off_c, 1, 76, 0
1, 14568, Note_off_c, 1, 49, 0
1, 14580, Note_on_c, 1, 74, 127
1, 14580, Note_on_c, 1, 50, 127
1, 14628, Note_off_c, 1, 74, 0
1, 14628, Note_off_c, 1, 50, 0
1, 14640, Note_on_c, 1, 73, 127
1, 14640, Note_on_c, 1, 52, 127
1, 14664, Note_off_c, 1, 52, 0
1, 14670, Note_on_c, 1, 50, 127
1, 14688, Note_off_c, 1, 73, 0
1, 14694, Note_off_c, 1, 50, 0
1, 14700, Note_on_c, 1, 74, 127
1, 14700, Note_on_c, 1, 52, 127
1, 14724, Note_off_c, 1, 52, 0
1, 14730, Note_on_c, 1, 50, 127
1, 14748, Note_off_c, 1, 74, 0
1, 14754, Note_off_c, 1, 50, 0
1, 14760, Note_on_c, 1, 76, 127
1, 14760, Note_on_c, 1, 52, 127
1, 14784, Note_off_c, 1, 52, 0
1, 14790, Note_on_c, 1, 50, 127
1, 14808, Note_off_c, 1, 76, 0
1, 14814, Note_off_c, 1, 50, 0
1, 14820, Note_on_c, 1, 78, 127
1, 14820, Note_on_c, 1, 49, 127
1, 14849, Note_off_c, 1, 49, 0
1, 14850, Note_on_c, 1, 50, 127
1, 14868, Note_off_c, 1, 78, 0
1, 14879, Note_off_c, 1, 50, 0
1, 14880, Note_on_c, 1, 79, 127
1, 14880, Note_on_c, 1, 52, 127
1, 14928, Note_off_c, 1, 79, 0
1, 14928, Note_off_c, 1, 52, 0
1, 14940, Note_on_c, 1, 78, 127
1, 14940, Note_on_c, 1, 45, 127
1, 14988, Note_off_c, 1, 78, 0
1, 14988, Note_off_c, 1, 45, 0
1, 15000, Note_on_c, 1, 76, 127
1, 15000, Note_on_c, 1, 57, 127
1, 15048, Note_off_c, 1, 76, 0
1, 15048, Note_off_c, 1, 57, 0
1, 15060, Note_on_c, 1, 78, 127
1, 15060, Note_on_c, 1, 55, 127
1, 15108, Note_off_c, 1, 78, 0
1, 15108, Note_off_c, 1, 55, 0
1, 15120, Note_on_c, 1, 79, 127
1, 15120, Note_on_c, 1, 54, 127
1, 15168, Note_off_c, 1, 79, 0
1, 15168, Note_off_c, 1, 54, 0
1, 15180, Note_on_c, 1, 81, 127
1, 15180, Note_on_c, 1, 52, 127
1, 15228, Note_off_c, 1, 81, 0
1, 15228, Note_off_c, 1, 52, 0
1, 15240, Note_on_c, 1, 78, 127
1, 15240, Note_on_c, 1, 50, 127
1, 15288, Note_off_c, 1, 78, 0
1, 15288, Note_off_c, 1, 50, 0
1, 15300, Note_on_c, 1, 76, 127
1, 15300, Note_on_c, 1, 52, 127
1, 15348, Note_off_c, 1, 76, 0
1, 15348, Note_off_c, 1, 52, 0
1, 15360, Note_on_c, 1, 74, 127
1, 15360, Note_on_c, 1, 54, 127
1, 15384, Note_off_c, 1, 54, 0
1, 15390, Note_on_c, 1, 52, 127
1, 15408, Note_off_c, 1, 74, 0
1, 15414, Note_off_c, 1, 52, 0
1, 15420, Note_on_c, 1, 76, 127
1, 15420, Note_on_c, 1, 54, 127
1, 15444, Note_off_c, 1, 54, 0
1, 15450, Note_on_c, 1, 52, 127
1, 15468, Note_off_c, 1, 76, 0
1, 15474, Note_off_c, 1, 52, 0
1, 15480, Note_on_c, 1, 78, 127
1, 15480, Note_on_c, 1, 54, 127
1, 15504, Note_off_c, 1, 54, 0
1, 15510, Note_on_c, 1, 52, 127
1, 15528, Note_off_c, 1, 78, 0
1, 15534, Note_off_c, 1, 52, 0
1, 15540, Note_on_c, 1, 80, 127
1, 15540, Note_on_c, 1, 50, 127
1, 15564, Note_off_c, 1, 50, 0
1, 15570, Note_on_c, 1, 52, 127
1, 15588, Note_off_c, 1, 80, 0
1, 15594, Note_off_c, 1, 52, 0
1, 15600, Note_on_c, 1, 81, 127
1, 15600, Note_on_c, 1, 54, 127
1, 15648, Note_off_c, 1, 81, 0
1, 15648, Note_off_c, 1, 54, 0
1, 15660, Note_on_c, 1, 80, 127
1, 15660, Note_on_c, 1, 47, 127
1, 15708, Note_off_c, 1, 80, 0
1, 15708, Note_off_c, 1, 47, 0
1, 15720, Note_on_c, 1, 78, 127
1, 15720, Note_on_c, 1, 59, 127
1, 15768, Note_off_c, 1, 78, 0
1, 15768, Note_off_c, 1, 59, 0
1, 15780, Note_on_c, 1, 80, 127
1, 15780, Note_on_c, 1, 57, 127
1, 15828, Note_off_c, 1, 80, 0
1, 15828, Note_off_c, 1, 57, 0
1, 15840, Note_on_c, 1, 81, 127
1, 15840, Note_on_c, 1, 56, 127
1, 15888, Note_off_c, 1, 81, 0
1, 15888, Note_off_c, 1, 56, 0
1, 15900, Note_on_c, 1, 83, 127
1, 15900, Note_on_c, 1, 54, 127
1, 15948, Note_off_c, 1, 83, 0
1, 15948, Note_off_c, 1, 54, 0
1, 15960, Note_on_c, 1, 80, 127
1, 15960, Note_on_c, 1, 52, 127
1, 16008, Note_off_c, 1, 80, 0
1, 16008, Note_off_c, 1, 52, 0
1, 16020, Note_on_c, 1, 78, 127
1, 16020, Note_on_c, 1, 54, 127
1, 16068, Note_off_c, 1, 78, 0
1, 16068, Note_off_c, 1, 54, 0
1, 16080, Note_on_c, 1, 76, 127
1, 16080, Note_on_c, 1, 56, 127
1, 16104, Note_off_c, 1, 56, 0
1, 16110, Note_on_c, 1, 54, 127
1, 16128, Note_off_c, 1, 76, 0
1, 16134, Note_off_c, 1, 54, 0
1, 16140, Note_on_c, 1, 78, 127
1, 16140, Note_on_c, 1, 56, 127
1, 16164, Note_off_c, 1, 56, 0
1, 16170, Note_on_c, 1, 54, 127
1, 16188, Note_off_c, 1, 78, 0
1, 16194, Note_off_c, 1, 54, 0
1, 16200, Note_on_c, 1, 80, 127
1, 16200, Note_on_c, 1, 56, 127
1, 16224, Note_off_c, 1, 56, 0
1, 16230, Note_on_c, 1, 54, 127
1, 16248, Note_off_c, 1, 80, 0
1, 16254, Note_off_c, 1, 54, 0
1, 16260, Note_on_c, 1, 81, 127
1, 16260, Note_on_c, 1, 52, 127
1, 16284, Note_off_c, 1, 52, 0
1, 16290, Note_on_c, 1, 54, 127
1, 16308, Note_off_c, 1, 81, 0
1, 16314, Note_off_c, 1, 54, 0
1, 16320, Note_on_c, 1, 83, 127
1, 16320, Note_on_c, 1, 56, 127
1, 16368, Note_off_c, 1, 83, 0
1, 16368, Note_off_c, 1, 56, 0
1, 16380, Note_on_c, 1, 81, 127
1, 16380, Note_on_c, 1, 54, 127
1, 16428, Note_off_c, 1, 81, 0
1, 16428, Note_off_c, 1, 54, 0
1, 16440, Note_on_c, 1, 80, 127
1, 16440, Note_on_c, 1, 52, 127
1, 16488, Note_off_c, 1, 80, 0
1, 16488, Note_off_c, 1, 52, 0
1, 16500, Note_on_c, 1, 78, 127
1, 16500, Note_on_c, 1, 54, 127
1, 16548, Note_off_c, 1, 78, 0
1, 16548, Note_off_c, 1, 54, 0
1, 16560, Note_on_c, 1, 76, 127
1, 16560, Note_on_c, 1, 56, 127
1, 16608, Note_off_c, 1, 76, 0
1, 16608, Note_off_c, 1, 56, 0
1, 16620, Note_on_c, 1, 74, 127
1, 16620, Note_on_c, 1, 52, 127
1, 16668, Note_off_c, 1, 74, 0
1, 16668, Note_off_c, 1, 52, 0
1, 16680, Note_on_c, 1, 73, 127
1, 16680, Note_on_c, 1, 57, 127
1, 16728, Note_off_c, 1, 73, 0
1, 16728, Note_off_c, 1, 57, 0
1, 16740, Note_on_c, 1, 75, 127
1, 16740, Note_on_c, 1, 59, 127
1, 16788, Note_off_c, 1, 75, 0
1, 16788, Note_off_c, 1, 59, 0
1, 16800, Note_on_c, 1, 76, 127
1, 16800, Note_on_c, 1, 61, 127
1, 16848, Note_off_c, 1, 76, 0
1, 16848, Note_off_c, 1, 61, 0
1, 16860, Note_on_c, 1, 78, 127
1, 16860, Note_on_c, 1, 59, 127
1, 16908, Note_off_c, 1, 78, 0
1, 16908, Note_off_c, 1, 59, 0
1, 16920, Note_on_c, 1, 80, 127
1, 16920, Note_on_c, 1, 57, 127
1, 16968, Note_off_c, 1, 80, 0
1, 16968, Note_off_c, 1, 57, 0
1, 16980, Note_on_c, 1, 76, 127
1, 16980, Note_on_c, 1, 56, 127
1, 17028, Note_off_c, 1, 76, 0
1, 17028, Note_off_c, 1, 56, 0
1, 17040, Note_on_c, 1, 81, 127
1, 17040, Note_on_c, 1, 54, 127
1, 17088, Note_off_c, 1, 81, 0
1, 17088, Note_off_c, 1, 54, 0
1, 17100, Note_on_c, 1, 80, 127
1, 17100, Note_on_c, 1, 56, 127
1, 17148, Note_off_c, 1, 80, 0
1, 17148, Note_off_c, 1, 56, 0
1, 17160, Note_on_c, 1, 78, 127
1, 17160, Note_on_c, 1, 57, 127
1, 17208, Note_off_c, 1, 78, 0
1, 17208, Note_off_c, 1, 57, 0
1, 17220, Note_on_c, 1, 76, 127
1, 17220, Note_on_c, 1, 56, 127
1, 17268, Note_off_c, 1, 76, 0
1, 17268, Note_off_c, 1, 56, 0
1, 17280, Note_on_c, 1, 75, 127
1, 17280, Note_on_c, 1, 57, 127
1, 17328, Note_off_c, 1, 75, 0
1, 17328, Note_off_c, 1, 57, 0
1, 17340, Note_on_c, 1, 73, 127
1, 17340, Note_on_c, 1, 54, 127
1, 17388, Note_off_c, 1, 73, 0
1, 17388, Note_off_c, 1, 54, 0
1, 17400, Note_on_c, 1, 71, 127
1, 17400, Note_on_c, 1, 56, 127
1, 17448, Note_off_c, 1, 71, 0
1, 17448, Note_off_c, 1, 56, 0
1, 17460, Note_on_c, 1, 73, 127
1, 17460, Note_on_c, 1, 57, 127
1, 17508, Note_off_c, 1, 73, 0
1, 17508, Note_off_c, 1, 57, 0
1, 17520, Note_on_c, 1, 75, 127
1, 17520, Note_on_c, 1, 59, 127
1, 17568, Note_off_c, 1, 75, 0
1, 17568, Note_off_c, 1, 59, 0
1, 17580, Note_on_c, 1, 76, 127
1, 17580, Note_on_c, 1, 57, 127
1, 17628, Note_off_c, 1, 76, 0
1, 17628, Note_off_c, 1, 57, 0
1, 17640, Note_on_c, 1, 78, 127
1, 17640, Note_on_c, 1, 56, 127
1, 17688, Note_off_c, 1, 78, 0
1, 17688, Note_off_c, 1, 56, 0
1, 17700, Note_on_c, 1, 75, 127
1, 17700, Note_on_c, 1, 54, 127
1, 17748, Note_off_c, 1, 75, 0
1, 17748, Note_off_c, 1, 54, 0
1, 17760, Note_on_c, 1, 80, 127
1, 17760, Note_on_c, 1, 52, 127
1, 17808, Note_off_c, 1, 80, 0
1, 17808, Note_off_c, 1, 52, 0
1, 17820, Note_on_c, 1, 78, 127
1, 17820, Note_on_c, 1, 54, 127
1, 17868, Note_off_c, 1, 78, 0
1, 17868, Note_off_c, 1, 54, 0
1, 17880, Note_on_c, 1, 76, 127
1, 17880, Note_on_c, 1, 56, 127
1, 17928, Note_off_c, 1, 76, 0
1, 17928, Note_off_c, 1, 56, 0
1, 17940, Note_on_c, 1, 75, 127
1, 17940, Note_on_c, 1, 54, 127
1, 17988, Note_off_c, 1, 75, 0
1, 17988, Note_off_c, 1, 54, 0
1, 18000, Note_on_c, 1, 73, 127
1, 18000, Note_on_c, 1, 56, 127
1, 18048, Note_off_c, 1, 73, 0
1, 18048, Note_off_c, 1, 56, 0
1, 18060, Note_on_c, 1, 71, 127
1, 18060, Note_on_c, 1, 52, 127
1, 18108, Note_off_c, 1, 71, 0
1, 18108, Note_off_c, 1, 52, 0
1, 18120, Note_on_c, 1, 69, 127
1, 18120, Note_on_c, 1, 54, 127
1, 18168, Note_off_c, 1, 69, 0
1, 18168, Note_off_c, 1, 54, 0
1, 18180, Note_on_c, 1, 71, 127
1, 18180, Note_on_c, 1, 56, 127
1, 18228, Note_off_c, 1, 71, 0
1, 18228, Note_off_c, 1, 56, 0
1, 18240, Note_on_c, 1, 73, 127
1, 18240, Note_on_c, 1, 57, 127
1, 18288, Note_off_c, 1, 73, 0
1, 18288, Note_off_c, 1, 57, 0
1, 18300, Note_on_c, 1, 75, 127
1, 18300, Note_on_c, 1, 56, 127
1, 18348, Note_off_c, 1, 75, 0
1, 18348, Note_off_c, 1, 56, 0
1, 18360, Note_on_c, 1, 76, 127
1, 18360, Note_on_c, 1, 54, 127
1, 18408, Note_off_c, 1, 76, 0
1, 18408, Note_off_c, 1, 54, 0
1, 18420, Note_on_c, 1, 73, 127
1, 18420, Note_on_c, 1, 52, 127
1, 18468, Note_off_c, 1, 73, 0
1, 18468, Note_off_c, 1, 52, 0
1, 18480, Note_on_c, 1, 78, 127
1, 18480, Note_on_c, 1, 51, 127
1, 18528, Note_off_c, 1, 78, 0
1, 18528, Note_off_c, 1, 51, 0
1, 18540, Note_on_c, 1, 76, 127
1, 18540, Note_on_c, 1, 52, 127
1, 18588, Note_off_c, 1, 76, 0
1, 18588, Note_off_c, 1, 52, 0
1, 18600, Note_on_c, 1, 75, 127
1, 18600, Note_on_c, 1, 54, 127
1, 18648, Note_off_c, 1, 75, 0
1, 18648, Note_off_c, 1, 54, 0
1, 18660, Note_on_c, 1, 73, 127
1, 18660, Note_on_c, 1, 52, 127
1, 18708, Note_off_c, 1, 73, 0
1, 18708, Note_off_c, 1, 52, 0
1, 18720, Note_on_c, 1, 71, 127
1, 18720, Note_on_c, 1, 54, 127
1, 18768, Note_off_c, 1, 71, 0
1, 18768, Note_off_c, 1, 54, 0
1, 18780, Note_on_c, 1, 69, 127
1, 18780, Note_on_c, 1, 51, 127
1, 18828, Note_off_c, 1, 69, 0
1, 18828, Note_off_c, 1, 51, 0
1, 18840, Note_on_c, 1, 68, 127
1, 18840, Note_on_c, 1, 52, 127
1, 18888, Note_off_c, 1, 68, 0
1, 18888, Note_off_c, 1, 52, 0
1, 18900, Note_on_c, 1, 76, 127
1, 18900, Note_on_c, 1, 54, 127
1, 18948, Note_off_c, 1, 76, 0
1, 18948, Note_off_c, 1, 54, 0
1, 18960, Note_on_c, 1, 75, 127
1, 18960, Note_on_c, 1, 54, 127
1, 18972, Note_off_c, 1, 54, 0
1, 18975, Note_on_c, 1, 56, 127
1, 18987, Note_off_c, 1, 56, 0
1, 19008, Note_off_c, 1, 75, 0
1, 19020, Note_on_c, 1, 73, 127
1, 19020, Note_on_c, 1, 52, 127
1, 19044, Note_off_c, 1, 52, 0
1, 19050, Note_on_c, 1, 54, 127
1, 19068, Note_off_c, 1, 73, 0
1, 19074, Note_off_c, 1, 54, 0
1, 19080, Note_on_c, 1, 71, 127
1, 19080, Note_on_c, 1, 56, 127
1, 19128, Note_off_c, 1, 71, 0
1, 19128, Note_off_c, 1, 56, 0
1, 19140, Note_on_c, 1, 69, 127
1, 19140, Note_on_c, 1, 57, 127
1, 19188, Note_off_c, 1, 69, 0
1, 19188, Note_off_c, 1, 57, 0
1, 19200, Note_on_c, 1, 68, 127
1, 19200, Note_on_c, 1, 57, 127
1, 19212, Note_off_c, 1, 57, 0
1, 19215, Note_on_c, 1, 59, 127
1, 19227, Note_off_c, 1, 59, 0
1, 19248, Note_off_c, 1, 68, 0
1, 19260, Note_on_c, 1, 69, 127
1, 19260, Note_on_c, 1, 56, 127
1, 19284, Note_off_c, 1, 69, 0
1, 19284, Note_off_c, 1, 56, 0
1, 19290, Note_on_c, 1, 71, 127
1, 19290, Note_on_c, 1, 57, 127
1, 19314, Note_off_c, 1, 71, 0
1, 19314, Note_off_c, 1, 57, 0
1, 19320, Note_on_c, 1, 68, 127
1, 19320, Note_on_c, 1, 59, 127
1, 19332, Note_off_c, 1, 68, 0
1, 19335, Note_on_c, 1, 66, 127
1, 19347, Note_off_c, 1, 66, 0
1, 19410, Note_off_c, 1, 59, 0
1, 19425, Note_on_c, 1, 66, 127
1, 19440, Note_off_c, 1, 66, 0
1, 19440, Note_on_c, 1, 68, 127
1, 19440, Note_on_c, 1, 47, 127
1, 19452, Note_off_c, 1, 68, 0
1, 19500, Note_on_c, 1, 64, 127
1, 19530, Note_off_c, 1, 47, 0
1, 19548, Note_off_c, 1, 64, 0
1, 19560, Note_on_c, 1, 64, 127
1, 19560, Note_on_c, 1, 40, 127
1, 19617, Note_off_c, 1, 64, 0
1, 19620, Note_on_c, 1, 66, 127
1, 19656, Note_off_c, 1, 40, 0
1, 19677, Note_off_c, 1, 66, 0
1, 19680, Note_on_c, 1, 68, 127
1, 19680, Note_on_c, 1, 52, 127
1, 19728, Note_off_c, 1, 52, 0
1, 19737, Note_off_c, 1, 68, 0
1, 19740, Note_on_c, 1, 69, 127
1, 19740, Note_on_c, 1, 50, 127
1, 19788, Note_off_c, 1, 50, 0
1, 19797, Note_off_c, 1, 69, 0
1, 19800, Note_on_c, 1, 71, 127
1, 19800, Note_on_c, 1, 49, 127
1, 19848, Note_off_c, 1, 49, 0
1, 19857, Note_off_c, 1, 71, 0
1, 19860, Note_on_c, 1, 68, 127
1, 19860, Note_on_c, 1, 47, 127
1, 19908, Note_off_c, 1, 47, 0
1, 19917, Note_off_c, 1, 68, 0
1, 19920, Note_on_c, 1, 73, 127
1, 19920, Note_on_c, 1, 45, 127
1, 19977, Note_off_c, 1, 73, 0
1, 19980, Note_on_c, 1, 71, 127
1, 20010, Note_off_c, 1, 45, 0
1, 20037, Note_off_c, 1, 71, 0
1, 20040, Note_on_c, 1, 69, 127
1, 20040, Note_on_c, 1, 47, 127
1, 20064, Note_off_c, 1, 47, 0
1, 20070, Note_on_c, 1, 45, 127
1, 20094, Note_off_c, 1, 45, 0
1, 20097, Note_off_c, 1, 69, 0
1, 20100, Note_on_c, 1, 68, 127
1, 20100, Note_on_c, 1, 47, 127
1, 20124, Note_off_c, 1, 47, 0
1, 20130, Note_on_c, 1, 45, 127
1, 20154, Note_off_c, 1, 45, 0
1, 20157, Note_off_c, 1, 68, 0
1, 20160, Note_on_c, 1, 66, 127
1, 20160, Note_on_c, 1, 47, 127
1, 20184, Note_off_c, 1, 47, 0
1, 20190, Note_on_c, 1, 45, 127
1, 20214, Note_off_c, 1, 45, 0
1, 20217, Note_off_c, 1, 66, 0
1, 20220, Note_on_c, 1, 64, 127
1, 20220, Note_on_c, 1, 44, 127
1, 20244, Note_off_c, 1, 44, 0
1, 20250, Note_on_c, 1, 45, 127
1, 20274, Note_off_c, 1, 45, 0
1, 20277, Note_off_c, 1, 64, 0
1, 20280, Note_on_c, 1, 63, 127
1, 20280, Note_on_c, 1, 47, 127
1, 20328, Note_off_c, 1, 47, 0
1, 20337, Note_off_c, 1, 63, 0
1, 20340, Note_on_c, 1, 64, 127
1, 20340, Note_on_c, 1, 49, 127
1, 20388, Note_off_c, 1, 49, 0
1, 20397, Note_off_c, 1, 64, 0
1, 20400, Note_on_c, 1, 66, 127
1, 20400, Note_on_c, 1, 51, 127
1, 20448, Note_off_c, 1, 51, 0
1, 20457, Note_off_c, 1, 66, 0
1, 20460, Note_on_c, 1, 68, 127
1, 20460, Note_on_c, 1, 49, 127
1, 20508, Note_off_c, 1, 49, 0
1, 20517, Note_off_c, 1, 68, 0
1, 20520, Note_on_c, 1, 69, 127
1, 20520, Note_on_c, 1, 47, 127
1, 20568, Note_off_c, 1, 47, 0
1, 20577, Note_off_c, 1, 69, 0
1, 20580, Note_on_c, 1, 66, 127
1, 20580, Note_on_c, 1, 45, 127
1, 20628, Note_off_c, 1, 45, 0
1, 20637, Note_off_c, 1, 66, 0
1, 20640, Note_on_c, 1, 71, 127
1, 20640, Note_on_c, 1, 44, 127
1, 20697, Note_off_c, 1, 71, 0
1, 20700, Note_on_c, 1, 69, 127
1, 20736, Note_off_c, 1, 44, 0
1, 20757, Note_off_c, 1, 69, 0
1, 20760, Note_on_c, 1, 68, 127
1, 20760, Note_on_c, 1, 47, 127
1, 20784, Note_off_c, 1, 47, 0
1, 20790, Note_on_c, 1, 45, 127
1, 20814, Note_off_c, 1, 45, 0
1, 20817, Note_off_c, 1, 68, 0
1, 20820, Note_on_c, 1, 66, 127
1, 20820, Note_on_c, 1, 47, 127
1, 20844, Note_off_c, 1, 47, 0
1, 20850, Note_on_c, 1, 45, 127
1, 20874, Note_off_c, 1, 45, 0
1, 20877, Note_off_c, 1, 66, 0
1, 20880, Note_on_c, 1, 64, 127
1, 20880, Note_on_c, 1, 47, 127
1, 20904, Note_off_c, 1, 47, 0
1, 20910, Note_on_c, 1, 45, 127
1, 20934, Note_off_c, 1, 45, 0
1, 20937, Note_off_c, 1, 64, 0
1, 20940, Note_on_c, 1, 63, 127
1, 20940, Note_on_c, 1, 42, 127
1, 20964, Note_off_c, 1, 42, 0
1, 20970, Note_on_c, 1, 44, 127
1, 20994, Note_off_c, 1, 44, 0
1, 20997, Note_off_c, 1, 63, 0
1, 21000, Note_on_c, 1, 61, 127
1, 21000, Note_on_c, 1, 45, 127
1, 21048, Note_off_c, 1, 61, 0
1, 21048, Note_off_c, 1, 45, 0
1, 21060, Note_on_c, 1, 63, 127
1, 21060, Note_on_c, 1, 47, 127
1, 21108, Note_off_c, 1, 63, 0
1, 21108, Note_off_c, 1, 47, 0
1, 21120, Note_on_c, 1, 64, 127
1, 21120, Note_on_c, 1, 49, 127
1, 21168, Note_off_c, 1, 64, 0
1, 21168, Note_off_c, 1, 49, 0
1, 21180, Note_on_c, 1, 66, 127
1, 21180, Note_on_c, 1, 47, 127
1, 21228, Note_off_c, 1, 66, 0
1, 21228, Note_off_c, 1, 47, 0
1, 21240, Note_on_c, 1, 68, 127
1, 21240, Note_on_c, 1, 45, 127
1, 21288, Note_off_c, 1, 68, 0
1, 21288, Note_off_c, 1, 45, 0
1, 21300, Note_on_c, 1, 64, 127
1, 21300, Note_on_c, 1, 44, 127
1, 21348, Note_off_c, 1, 64, 0
1, 21348, Note_off_c, 1, 44, 0
1, 21360, Note_on_c, 1, 69, 127
1, 21360, Note_on_c, 1, 42, 127
1, 21408, Note_off_c, 1, 69, 0
1, 21408, Note_off_c, 1, 42, 0
1, 21420, Note_on_c, 1, 68, 127
1, 21420, Note_on_c, 1, 44, 127
1, 21468, Note_off_c, 1, 68, 0
1, 21468, Note_off_c, 1, 44, 0
1, 21480, Note_on_c, 1, 66, 127
1, 21480, Note_on_c, 1, 45, 127
1, 21528, Note_off_c, 1, 66, 0
1, 21528, Note_off_c, 1, 45, 0
1, 21540, Note_on_c, 1, 64, 127
1, 21540, Note_on_c, 1, 44, 127
1, 21588, Note_off_c, 1, 64, 0
1, 21588, Note_off_c, 1, 44, 0
1, 21600, Note_on_c, 1, 63, 127
1, 21600, Note_on_c, 1, 42, 127
1, 21648, Note_off_c, 1, 63, 0
1, 21648, Note_off_c, 1, 42, 0
1, 21660, Note_on_c, 1, 61, 127
1, 21660, Note_on_c, 1, 40, 127
1, 21708, Note_off_c, 1, 61, 0
1, 21708, Note_off_c, 1, 40, 0
1, 21720, Note_on_c, 1, 59, 127
1, 21720, Note_on_c, 1, 39, 127
1, 21768, Note_off_c, 1, 59, 0
1, 21780, Note_on_c, 1, 69, 127
1, 21816, Note_off_c, 1, 39, 0
1, 21828, Note_off_c, 1, 69, 0
1, 21840, Note_on_c, 1, 68, 127
1, 21840, Note_on_c, 1, 47, 127
1, 21888, Note_off_c, 1, 68, 0
1, 21900, Note_on_c, 1, 66, 127
1, 21936, Note_off_c, 1, 47, 0
1, 21948, Note_off_c, 1, 66, 0
1, 21960, Note_on_c, 1, 64, 127
1, 21960, Note_on_c, 1, 49, 127
1, 22008, Note_off_c, 1, 64, 0
1, 22020, Note_on_c, 1, 63, 127
1, 22056, Note_off_c, 1, 49, 0
1, 22068, Note_off_c, 1, 63, 0
1, 22080, Note_on_c, 1, 64, 127
1, 22080, Note_on_c, 1, 45, 127
1, 22128, Note_off_c, 1, 64, 0
1, 22140, Note_on_c, 1, 66, 127
1, 22176, Note_off_c, 1, 45, 0
1, 22188, Note_off_c, 1, 66, 0
1, 22200, Note_on_c, 1, 68, 127
1, 22200, Note_on_c, 1, 47, 127
1, 22215, Note_off_c, 1, 68, 0
1, 22215, Note_on_c, 1, 66, 127
1, 22230, Note_off_c, 1, 66, 0
1, 22296, Note_off_c, 1, 47, 0
1, 22305, Note_on_c, 1, 66, 127
1, 22317, Note_off_c, 1, 66, 0
1, 22320, Note_on_c, 1, 68, 127
1, 22320, Note_on_c, 1, 35, 127
1, 22332, Note_off_c, 1, 68, 0
1, 22335, Note_on_c, 1, 66, 127
1, 22364, Note_off_c, 1, 66, 0
1, 22380, Note_on_c, 1, 64, 127
1, 22416, Note_off_c, 1, 35, 0
1, 22428, Note_off_c, 1, 64, 0
1, 22440, Note_on_c, 1, 64, 127
1, 22440, Note_on_c, 1, 40, 127
1, 22560, Note_on_c, 1, 44, 127
1, 22656, Note_off_c, 1, 44, 0
1, 22680, Note_on_c, 1, 47, 127
1, 22776, Note_off_c, 1, 47, 0
1, 22800, Note_on_c, 1, 52, 127
1, 22992, Note_off_c, 1, 64, 0
1, 22992, Note_off_c, 1, 40, 0
1, 22992, Note_off_c, 1, 52, 0
1, 23040, Note_on_c, 1, 71, 127
1, 23136, Note_off_c, 1, 71, 0
1, 23160, Note_on_c, 1, 64, 127
1, 23256, Note_off_c, 1, 64, 0
1, 23280, Note_on_c, 1, 66, 127
1, 23328, Note_off_c, 1, 66, 0
1, 23340, Note_on_c, 1, 68, 127
1, 23388, Note_off_c, 1, 68, 0
1, 23400, Note_on_c, 1, 69, 127
1, 23448, Note_off_c, 1, 69, 0
1, 23460, Note_on_c, 1, 71, 127
1, 23508, Note_off_c, 1, 71, 0
1, 23520, Note_on_c, 1, 69, 127
1, 23568, Note_off_c, 1, 69, 0
1, 23580, Note_on_c, 1, 71, 127
1, 23628, Note_off_c, 1, 71, 0
1, 23640, Note_on_c, 1, 73, 127
1, 23669, Note_off_c, 1, 73, 0
1, 23670, Note_on_c, 1, 71, 127
1, 23699, Note_off_c, 1, 71, 0
1, 23700, Note_on_c, 1, 73, 127
1, 23729, Note_off_c, 1, 73, 0
1, 23730, Note_on_c, 1, 71, 127
1, 23759, Note_off_c, 1, 71, 0
1, 23760, Note_on_c, 1, 73, 127
1, 23760, Note_on_c, 1, 52, 127
1, 23789, Note_off_c, 1, 73, 0
1, 23790, Note_on_c, 1, 71, 127
1, 23819, Note_off_c, 1, 71, 0
1, 23820, Note_on_c, 1, 69, 127
1, 23844, Note_off_c, 1, 69, 0
1, 23850, Note_off_c, 1, 52, 0
1, 23880, Note_on_c, 1, 73, 127
1, 23880, Note_on_c, 1, 45, 127
1, 23928, Note_off_c, 1, 73, 0
1, 23940, Note_on_c, 1, 74, 127
1, 23976, Note_off_c, 1, 45, 0
1, 23988, Note_off_c, 1, 74, 0
1, 24000, Note_on_c, 1, 73, 127
1, 24000, Note_on_c, 1, 47, 127
1, 24048, Note_off_c, 1, 73, 0
1, 24048, Note_off_c, 1, 47, 0
1, 24060, Note_on_c, 1, 71, 127
1, 24060, Note_on_c, 1, 49, 127
1, 24108, Note_off_c, 1, 71, 0
1, 24108, Note_off_c, 1, 49, 0
1, 24120, Note_on_c, 1, 69, 127
1, 24120, Note_on_c, 1, 50, 127
1, 24168, Note_off_c, 1, 69, 0
1, 24168, Note_off_c, 1, 50, 0
1, 24180, Note_on_c, 1, 67, 127
1, 24180, Note_on_c, 1, 52, 127
1, 24228, Note_off_c, 1, 67, 0
1, 24228, Note_off_c, 1, 52, 0
1, 24240, Note_on_c, 1, 66, 127
1, 24240, Note_on_c, 1, 50, 127
1, 24288, Note_off_c, 1, 66, 0
1, 24288, Note_off_c, 1, 50, 0
1, 24300, Note_on_c, 1, 78, 127
1, 24300, Note_on_c, 1, 52, 127
1, 24348, Note_off_c, 1, 78, 0
1, 24348, Note_off_c, 1, 52, 0
1, 24360, Note_on_c, 1, 76, 127
1, 24360, Note_on_c, 1, 54, 127
1, 24384, Note_off_c, 1, 54, 0
1, 24390, Note_on_c, 1, 52, 127
1, 24408, Note_off_c, 1, 76, 0
1, 24414, Note_off_c, 1, 52, 0
1, 24420, Note_on_c, 1, 74, 127
1, 24420, Note_on_c, 1, 54, 127
1, 24444, Note_off_c, 1, 54, 0
1, 24450, Note_on_c, 1, 52, 127
1, 24468, Note_off_c, 1, 74, 0
1, 24474, Note_off_c, 1, 52, 0
1, 24480, Note_on_c, 1, 73, 127
1, 24480, Note_on_c, 1, 54, 127
1, 24504, Note_off_c, 1, 54, 0
1, 24510, Note_on_c, 1, 52, 127
1, 24528, Note_off_c, 1, 73, 0
1, 24534, Note_off_c, 1, 52, 0
1, 24540, Note_on_c, 1, 71, 127
1, 24540, Note_on_c, 1, 50, 127
1, 24564, Note_off_c, 1, 50, 0
1, 24570, Note_on_c, 1, 52, 127
1, 24588, Note_off_c, 1, 71, 0
1, 24594, Note_off_c, 1, 52, 0
1, 24600, Note_on_c, 1, 70, 127
1, 24600, Note_on_c, 1, 54, 127
1, 24648, Note_off_c, 1, 70, 0
1, 24660, Note_on_c, 1, 71, 127
1, 24696, Note_off_c, 1, 54, 0
1, 24708, Note_off_c, 1, 71, 0
1, 24720, Note_on_c, 1, 73, 127
1, 24720, Note_on_c, 1, 52, 127
1, 24749, Note_off_c, 1, 73, 0
1, 24750, Note_on_c, 1, 71, 127
1, 24768, Note_off_c, 1, 52, 0
1, 24779, Note_off_c, 1, 71, 0
1, 24780, Note_on_c, 1, 73, 127
1, 24780, Note_on_c, 1, 50, 127
1, 24809, Note_off_c, 1, 73, 0
1, 24810, Note_on_c, 1, 71, 127
1, 24828, Note_off_c, 1, 50, 0
1, 24839, Note_off_c, 1, 71, 0
1, 24840, Note_on_c, 1, 73, 127
1, 24840, Note_on_c, 1, 49, 127
1, 24869, Note_off_c, 1, 73, 0
1, 24870, Note_on_c, 1, 71, 127
1, 24888, Note_off_c, 1, 49, 0
1, 24899, Note_off_c, 1, 71, 0
1, 24900, Note_on_c, 1, 70, 127
1, 24900, Note_on_c, 1, 47, 127
1, 24924, Note_off_c, 1, 70, 0
1, 24930, Note_on_c, 1, 71, 127
1, 24948, Note_off_c, 1, 47, 0
1, 24954, Note_off_c, 1, 71, 0
1, 24960, Note_on_c, 1, 73, 127
1, 24960, Note_on_c, 1, 46, 127
1, 25008, Note_off_c, 1, 46, 0
1, 25017, Note_off_c, 1, 73, 0
1, 25020, Note_on_c, 1, 74, 127
1, 25020, Note_on_c, 1, 47, 127
1, 25068, Note_off_c, 1, 47, 0
1, 25077, Note_off_c, 1, 74, 0
1, 25080, Note_on_c, 1, 76, 127
1, 25080, Note_on_c, 1, 50, 127
1, 25104, Note_off_c, 1, 50, 0
1, 25109, Note_off_c, 1, 76, 0
1, 25110, Note_on_c, 1, 74, 127
1, 25110, Note_on_c, 1, 49, 127
1, 25134, Note_off_c, 1, 49, 0
1, 25139, Note_off_c, 1, 74, 0
1, 25140, Note_on_c, 1, 76, 127
1, 25140, Note_on_c, 1, 50, 127
1, 25164, Note_off_c, 1, 50, 0
1, 25169, Note_off_c, 1, 76, 0
1, 25170, Note_on_c, 1, 74, 127
1, 25170, Note_on_c, 1, 49, 127
1, 25194, Note_off_c, 1, 49, 0
1, 25199, Note_off_c, 1, 74, 0
1, 25200, Note_on_c, 1, 76, 127
1, 25200, Note_on_c, 1, 50, 127
1, 25224, Note_off_c, 1, 50, 0
1, 25229, Note_off_c, 1, 76, 0
1, 25230, Note_on_c, 1, 74, 127
1, 25230, Note_on_c, 1, 49, 127
1, 25254, Note_off_c, 1, 74, 0
1, 25254, Note_off_c, 1, 49, 0
1, 25260, Note_on_c, 1, 73, 127
1, 25260, Note_on_c, 1, 45, 127
1, 25284, Note_off_c, 1, 73, 0
1, 25284, Note_off_c, 1, 45, 0
1, 25290, Note_on_c, 1, 74, 127
1, 25290, Note_on_c, 1, 47, 127
1, 25314, Note_off_c, 1, 74, 0
1, 25314, Note_off_c, 1, 47, 0
1, 25320, Note_on_c, 1, 76, 127
1, 25320, Note_on_c, 1, 49, 127
1, 25368, Note_off_c, 1, 49, 0
1, 25380, Note_on_c, 1, 42, 127
1, 25428, Note_off_c, 1, 42, 0
1, 25440, Note_on_c, 1, 44, 127
1, 25464, Note_off_c, 1, 76, 0
1, 25488, Note_off_c, 1, 44, 0
1, 25500, Note_on_c, 1, 78, 127
1, 25500, Note_on_c, 1, 46, 127
1, 25548, Note_off_c, 1, 78, 0
1, 25548, Note_off_c, 1, 46, 0
1, 25560, Note_on_c, 1, 74, 127
1, 25560, Note_on_c, 1, 47, 127
1, 25608, Note_off_c, 1, 47, 0
1, 25620, Note_on_c, 1, 49, 127
1, 25668, Note_off_c, 1, 49, 0
1, 25680, Note_on_c, 1, 50, 127
1, 25728, Note_off_c, 1, 74, 0
1, 25728, Note_off_c, 1, 50, 0
1, 25740, Note_on_c, 1, 76, 127
1, 25740, Note_on_c, 1, 47, 127
1, 25788, Note_off_c, 1, 76, 0
1, 25788, Note_off_c, 1, 47, 0
1, 25800, Note_on_c, 1, 74, 127
1, 25800, Note_on_c, 1, 54, 127
1, 25824, Note_off_c, 1, 74, 0
1, 25830, Note_on_c, 1, 73, 127
1, 25854, Note_off_c, 1, 73, 0
1, 25890, Note_off_c, 1, 54, 0
1, 25920, Note_on_c, 1, 74, 127
1, 25920, Note_on_c, 1, 42, 127
1, 25944, Note_off_c, 1, 74, 0
1, 25950, Note_on_c, 1, 73, 127
1, 25974, Note_off_c, 1, 73, 0
1, 25980, Note_on_c, 1, 78, 127
1, 26010, Note_off_c, 1, 42, 0
1, 26028, Note_off_c, 1, 78, 0
1, 26040, Note_on_c, 1, 75, 127
1, 26040, Note_on_c, 1, 47, 127
1, 26088, Note_off_c, 1, 75, 0
1, 26100, Note_on_c, 1, 71, 127
1, 26148, Note_off_c, 1, 71, 0
1, 26160, Note_on_c, 1, 73, 127
1, 26208, Note_off_c, 1, 73, 0
1, 26232, Note_off_c, 1, 47, 0
1, 26280, Note_on_c, 1, 76, 127
1, 26328, Note_off_c, 1, 76, 0
1, 26340, Note_on_c, 1, 78, 127
1, 26388, Note_off_c, 1, 78, 0
1, 26400, Note_on_c, 1, 76, 127
1, 26448, Note_off_c, 1, 76, 0
1, 26460, Note_on_c, 1, 78, 127
1, 26508, Note_off_c, 1, 78, 0
1, 26520, Note_on_c, 1, 79, 127
1, 26544, Note_off_c, 1, 79, 0
1, 26550, Note_on_c, 1, 78, 127
1, 26574, Note_off_c, 1, 78, 0
1, 26580, Note_on_c, 1, 79, 127
1, 26604, Note_off_c, 1, 79, 0
1, 26610, Note_on_c, 1, 78, 127
1, 26634, Note_off_c, 1, 78, 0
1, 26640, Note_on_c, 1, 79, 127
1, 26640, Note_on_c, 1, 59, 127
1, 26664, Note_off_c, 1, 79, 0
1, 26670, Note_on_c, 1, 78, 127
1, 26694, Note_off_c, 1, 78, 0
1, 26700, Note_on_c, 1, 76, 127
1, 26724, Note_off_c, 1, 76, 0
1, 26730, Note_off_c, 1, 59, 0
1, 26760, Note_on_c, 1, 79, 127
1, 26760, Note_on_c, 1, 52, 127
1, 26808, Note_off_c, 1, 79, 0
1, 26820, Note_on_c, 1, 81, 127
1, 26856, Note_off_c, 1, 52, 0
1, 26868, Note_off_c, 1, 81, 0
1, 26880, Note_on_c, 1, 79, 127
1, 26880, Note_on_c, 1, 54, 127
1, 26928, Note_off_c, 1, 79, 0
1, 26928, Note_off_c, 1, 54, 0
1, 26940, Note_on_c, 1, 78, 127
1, 26940, Note_on_c, 1, 55, 127
1, 26988, Note_off_c, 1, 78, 0
1, 26988, Note_off_c, 1, 55, 0
1, 27000, Note_on_c, 1, 76, 127
1, 27000, Note_on_c, 1, 57, 127
1, 27048, Note_off_c, 1, 76, 0
1, 27048, Note_off_c, 1, 57, 0
1, 27060, Note_on_c, 1, 74, 127
1, 27060, Note_on_c, 1, 59, 127
1, 27108, Note_off_c, 1, 74, 0
1, 27108, Note_off_c, 1, 59, 0
1, 27120, Note_on_c, 1, 72, 127
1, 27120, Note_on_c, 1, 57, 127
1, 27168, Note_off_c, 1, 72, 0
1, 27168, Note_off_c, 1, 57, 0
1, 27180, Note_on_c, 1, 83, 127
1, 27180, Note_on_c, 1, 59, 127
1, 27228, Note_off_c, 1, 83, 0
1, 27228, Note_off_c, 1, 59, 0
1, 27240, Note_on_c, 1, 81, 127
1, 27240, Note_on_c, 1, 60, 127
1, 27264, Note_off_c, 1, 60, 0
1, 27270, Note_on_c, 1, 59, 127
1, 27288, Note_off_c, 1, 81, 0
1, 27294, Note_off_c, 1, 59, 0
1, 27300, Note_on_c, 1, 79, 127
1, 27300, Note_on_c, 1, 60, 127
1, 27324, Note_off_c, 1, 60, 0
1, 27330, Note_on_c, 1, 59, 127
1, 27348, Note_off_c, 1, 79, 0
1, 27359, Note_off_c, 1, 59, 0
1, 27360, Note_on_c, 1, 78, 127
1, 27360, Note_on_c, 1, 60, 127
1, 27384, Note_off_c, 1, 60, 0
1, 27390, Note_on_c, 1, 59, 127
1, 27408, Note_off_c, 1, 78, 0
1, 27414, Note_off_c, 1, 59, 0
1, 27420, Note_on_c, 1, 76, 127
1, 27420, Note_on_c, 1, 57, 127
1, 27444, Note_off_c, 1, 57, 0
1, 27450, Note_on_c, 1, 59, 127
1, 27468, Note_off_c, 1, 76, 0
1, 27474, Note_off_c, 1, 59, 0
1, 27480, Note_on_c, 1, 75, 127
1, 27480, Note_on_c, 1, 60, 127
1, 27528, Note_off_c, 1, 75, 0
1, 27528, Note_off_c, 1, 60, 0
1, 27540, Note_on_c, 1, 76, 127
1, 27540, Note_on_c, 1, 59, 127
1, 27588, Note_off_c, 1, 76, 0
1, 27588, Note_off_c, 1, 59, 0
1, 27600, Note_on_c, 1, 78, 127
1, 27600, Note_on_c, 1, 57, 127
1, 27624, Note_off_c, 1, 78, 0
1, 27630, Note_on_c, 1, 76, 127
1, 27648, Note_off_c, 1, 57, 0
1, 27654, Note_off_c, 1, 76, 0
1, 27660, Note_on_c, 1, 78, 127
1, 27660, Note_on_c, 1, 55, 127
1, 27689, Note_off_c, 1, 78, 0
1, 27690, Note_on_c, 1, 76, 127
1, 27708, Note_off_c, 1, 55, 0
1, 27714, Note_off_c, 1, 76, 0
1, 27720, Note_on_c, 1, 78, 127
1, 27720, Note_on_c, 1, 54, 127
1, 27744, Note_off_c, 1, 78, 0
1, 27750, Note_on_c, 1, 76, 127
1, 27768, Note_off_c, 1, 54, 0
1, 27774, Note_off_c, 1, 76, 0
1, 27780, Note_on_c, 1, 74, 127
1, 27780, Note_on_c, 1, 52, 127
1, 27804, Note_off_c, 1, 74, 0
1, 27810, Note_on_c, 1, 76, 127
1, 27828, Note_off_c, 1, 52, 0
1, 27834, Note_off_c, 1, 76, 0
1, 27840, Note_on_c, 1, 78, 127
1, 27840, Note_on_c, 1, 51, 127
1, 27888, Note_off_c, 1, 78, 0
1, 27888, Note_off_c, 1, 51, 0
1, 27900, Note_on_c, 1, 79, 127
1, 27900, Note_on_c, 1, 52, 127
1, 27948, Note_off_c, 1, 79, 0
1, 27948, Note_off_c, 1, 52, 0
1, 27960, Note_on_c, 1, 81, 127
1, 27960, Note_on_c, 1, 54, 127
1, 27984, Note_off_c, 1, 81, 0
1, 27984, Note_off_c, 1, 54, 0
1, 27990, Note_on_c, 1, 79, 127
1, 27990, Note_on_c, 1, 52, 127
1, 28014, Note_off_c, 1, 79, 0
1, 28014, Note_off_c, 1, 52, 0
1, 28020, Note_on_c, 1, 81, 127
1, 28020, Note_on_c, 1, 54, 127
1, 28044, Note_off_c, 1, 81, 0
1, 28044, Note_off_c, 1, 54, 0
1, 28050, Note_on_c, 1, 79, 127
1, 28050, Note_on_c, 1, 52, 127
1, 28074, Note_off_c, 1, 79, 0
1, 28074, Note_off_c, 1, 52, 0
1, 28080, Note_on_c, 1, 81, 127
1, 28080, Note_on_c, 1, 54, 127
1, 28104, Note_off_c, 1, 81, 0
1, 28104, Note_off_c, 1, 54, 0
1, 28110, Note_on_c, 1, 79, 127
1, 28110, Note_on_c, 1, 52, 127
1, 28139, Note_off_c, 1, 79, 0
1, 28139, Note_off_c, 1, 52, 0
1, 28140, Note_on_c, 1, 78, 127
1, 28140, Note_on_c, 1, 51, 127
1, 28164, Note_off_c, 1, 78, 0
1, 28164, Note_off_c, 1, 51, 0
1, 28170, Note_on_c, 1, 79, 127
1, 28170, Note_on_c, 1, 52, 127
1, 28194, Note_off_c, 1, 79, 0
1, 28194, Note_off_c, 1, 52, 0
1, 28200, Note_on_c, 1, 81, 127
1, 28200, Note_on_c, 1, 54, 127
1, 28248, Note_off_c, 1, 54, 0
1, 28260, Note_on_c, 1, 47, 127
1, 28308, Note_off_c, 1, 47, 0
1, 28320, Note_on_c, 1, 49, 127
1, 28344, Note_off_c, 1, 81, 0
1, 28368, Note_off_c, 1, 49, 0
1, 28380, Note_on_c, 1, 83, 127
1, 28380, Note_on_c, 1, 51, 127
1, 28428, Note_off_c, 1, 83, 0
1, 28428, Note_off_c, 1, 51, 0
1, 28440, Note_on_c, 1, 79, 127
1, 28440, Note_on_c, 1, 52, 127
1, 28464, Note_off_c, 1, 79, 0
1, 28470, Note_on_c, 1, 78, 127
1, 28488, Note_off_c, 1, 52, 0
1, 28494, Note_off_c, 1, 78, 0
1, 28500, Note_on_c, 1, 79, 127
1, 28500, Note_on_c, 1, 54, 127
1, 28548, Note_off_c, 1, 54, 0
1, 28560, Note_on_c, 1, 55, 127
1, 28608, Note_off_c, 1, 79, 0
1, 28608, Note_off_c, 1, 55, 0
1, 28620, Note_on_c, 1, 81, 127
1, 28620, Note_on_c, 1, 52, 127
1, 28668, Note_off_c, 1, 81, 0
1, 28668, Note_off_c, 1, 52, 0
1, 28680, Note_on_c, 1, 78, 127
1, 28680, Note_on_c, 1, 59, 127
1, 28704, Note_off_c, 1, 78, 0
1, 28710, Note_on_c, 1, 79, 127
1, 28734, Note_off_c, 1, 79, 0
1, 28770, Note_off_c, 1, 59, 0
1, 28800, Note_on_c, 1, 47, 127
1, 28860, Note_on_c, 1, 83, 127
1, 28890, Note_off_c, 1, 47, 0
1, 28908, Note_off_c, 1, 83, 0
1, 28920, Note_on_c, 1, 80, 127
1, 28920, Note_on_c, 1, 40, 127
1, 28968, Note_off_c, 1, 80, 0
1, 28980, Note_on_c, 1, 81, 127
1, 29016, Note_off_c, 1, 40, 0
1, 29028, Note_off_c, 1, 81, 0
1, 29040, Note_on_c, 1, 80, 127
1, 29040, Note_on_c, 1, 42, 127
1, 29088, Note_off_c, 1, 80, 0
1, 29088, Note_off_c, 1, 42, 0
1, 29100, Note_on_c, 1, 78, 127
1, 29100, Note_on_c, 1, 44, 127
1, 29148, Note_off_c, 1, 78, 0
1, 29148, Note_off_c, 1, 44, 0
1, 29160, Note_on_c, 1, 76, 127
1, 29160, Note_on_c, 1, 45, 127
1, 29208, Note_off_c, 1, 76, 0
1, 29208, Note_off_c, 1, 45, 0
1, 29220, Note_on_c, 1, 74, 127
1, 29220, Note_on_c, 1, 47, 127
1, 29268, Note_off_c, 1, 74, 0
1, 29268, Note_off_c, 1, 47, 0
1, 29280, Note_on_c, 1, 73, 127
1, 29280, Note_on_c, 1, 45, 127
1, 29328, Note_off_c, 1, 73, 0
1, 29328, Note_off_c, 1, 45, 0
1, 29340, Note_on_c, 1, 71, 127
1, 29340, Note_on_c, 1, 47, 127
1, 29388, Note_off_c, 1, 71, 0
1, 29388, Note_off_c, 1, 47, 0
1, 29400, Note_on_c, 1, 69, 127
1, 29400, Note_on_c, 1, 49, 127
1, 29424, Note_off_c, 1, 49, 0
1, 29430, Note_on_c, 1, 47, 127
1, 29448, Note_off_c, 1, 69, 0
1, 29454, Note_off_c, 1, 47, 0
1, 29460, Note_on_c, 1, 71, 127
1, 29460, Note_on_c, 1, 49, 127
1, 29484, Note_off_c, 1, 49, 0
1, 29490, Note_on_c, 1, 47, 127
1, 29508, Note_off_c, 1, 71, 0
1, 29514, Note_off_c, 1, 47, 0
1, 29520, Note_on_c, 1, 73, 127
1, 29520, Note_on_c, 1, 49, 127
1, 29544, Note_off_c, 1, 49, 0
1, 29550, Note_on_c, 1, 47, 127
1, 29568, Note_off_c, 1, 73, 0
1, 29579, Note_off_c, 1, 47, 0
1, 29580, Note_on_c, 1, 74, 127
1, 29580, Note_on_c, 1, 45, 127
1, 29609, Note_off_c, 1, 45, 0
1, 29610, Note_on_c, 1, 47, 127
1, 29628, Note_off_c, 1, 74, 0
1, 29639, Note_off_c, 1, 47, 0
1, 29640, Note_on_c, 1, 76, 127
1, 29640, Note_on_c, 1, 49, 127
1, 29688, Note_off_c, 1, 76, 0
1, 29688, Note_off_c, 1, 49, 0
1, 29700, Note_on_c, 1, 74, 127
1, 29700, Note_on_c, 1, 45, 127
1, 29748, Note_off_c, 1, 74, 0
1, 29748, Note_off_c, 1, 45, 0
1, 29760, Note_on_c, 1, 73, 127
1, 29760, Note_on_c, 1, 47, 127
1, 29808, Note_off_c, 1, 73, 0
1, 29808, Note_off_c, 1, 47, 0
1, 29820, Note_on_c, 1, 71, 127
1, 29820, Note_on_c, 1, 49, 127
1, 29868, Note_off_c, 1, 71, 0
1, 29868, Note_off_c, 1, 49, 0
1, 29880, Note_on_c, 1, 69, 127
1, 29880, Note_on_c, 1, 50, 127
1, 29928, Note_off_c, 1, 69, 0
1, 29928, Note_off_c, 1, 50, 0
1, 29940, Note_on_c, 1, 67, 127
1, 29940, Note_on_c, 1, 52, 127
1, 29988, Note_off_c, 1, 67, 0
1, 29988, Note_off_c, 1, 52, 0
1, 30000, Note_on_c, 1, 66, 127
1, 30000, Note_on_c, 1, 50, 127
1, 30048, Note_off_c, 1, 66, 0
1, 30048, Note_off_c, 1, 50, 0
1, 30060, Note_on_c, 1, 64, 127
1, 30060, Note_on_c, 1, 52, 127
1, 30108, Note_off_c, 1, 64, 0
1, 30108, Note_off_c, 1, 52, 0
1, 30120, Note_on_c, 1, 62, 127
1, 30120, Note_on_c, 1, 54, 127
1, 30144, Note_off_c, 1, 54, 0
1, 30150, Note_on_c, 1, 52, 127
1, 30168, Note_off_c, 1, 62, 0
1, 30174, Note_off_c, 1, 52, 0
1, 30180, Note_on_c, 1, 64, 127
1, 30180, Note_on_c, 1, 54, 127
1, 30204, Note_off_c, 1, 54, 0
1, 30210, Note_on_c, 1, 52, 127
1, 30228, Note_off_c, 1, 64, 0
1, 30234, Note_off_c, 1, 52, 0
1, 30240, Note_on_c, 1, 66, 127
1, 30240, Note_on_c, 1, 54, 127
1, 30264, Note_off_c, 1, 54, 0
1, 30270, Note_on_c, 1, 52, 127
1, 30288, Note_off_c, 1, 66, 0
1, 30299, Note_off_c, 1, 52, 0
1, 30300, Note_on_c, 1, 67, 127
1, 30300, Note_on_c, 1, 50, 127
1, 30324, Note_off_c, 1, 50, 0
1, 30330, Note_on_c, 1, 52, 127
1, 30348, Note_off_c, 1, 67, 0
1, 30354, Note_off_c, 1, 52, 0
1, 30360, Note_on_c, 1, 69, 127
1, 30360, Note_on_c, 1, 54, 127
1, 30408, Note_off_c, 1, 69, 0
1, 30420, Note_on_c, 1, 62, 127
1, 30468, Note_off_c, 1, 62, 0
1, 30480, Note_on_c, 1, 74, 127
1, 30504, Note_off_c, 1, 54, 0
1, 30540, Note_on_c, 1, 50, 127
1, 30588, Note_off_c, 1, 50, 0
1, 30600, Note_on_c, 1, 47, 127
1, 30648, Note_off_c, 1, 47, 0
1, 30720, Note_on_c, 1, 44, 127
1, 30768, Note_off_c, 1, 74, 0
1, 30780, Note_on_c, 1, 71, 127
1, 30828, Note_off_c, 1, 71, 0
1, 30840, Note_on_c, 1, 68, 127
1, 30864, Note_off_c, 1, 44, 0
1, 30888, Note_off_c, 1, 68, 0
1, 30900, Note_on_c, 1, 71, 127
1, 30900, Note_on_c, 1, 52, 127
1, 30948, Note_off_c, 1, 71, 0
1, 30948, Note_off_c, 1, 52, 0
1, 30960, Note_on_c, 1, 64, 127
1, 30960, Note_on_c, 1, 56, 127
1, 31008, Note_off_c, 1, 56, 0
1, 31020, Note_on_c, 1, 52, 127
1, 31056, Note_off_c, 1, 64, 0
1, 31068, Note_off_c, 1, 52, 0
1, 31080, Note_on_c, 1, 64, 127
1, 31080, Note_on_c, 1, 57, 127
1, 31128, Note_off_c, 1, 64, 0
1, 31140, Note_on_c, 1, 69, 127
1, 31188, Note_off_c, 1, 69, 0
1, 31200, Note_on_c, 1, 73, 127
1, 31224, Note_off_c, 1, 57, 0
1, 31260, Note_on_c, 1, 52, 127
1, 31308, Note_off_c, 1, 52, 0
1, 31320, Note_on_c, 1, 45, 127
1, 31368, Note_off_c, 1, 45, 0
1, 31380, Note_on_c, 1, 49, 127
1, 31428, Note_off_c, 1, 49, 0
1, 31440, Note_on_c, 1, 38, 127
1, 31488, Note_off_c, 1, 73, 0
1, 31560, Note_on_c, 1, 66, 127
1, 31584, Note_off_c, 1, 38, 0
1, 31608, Note_off_c, 1, 66, 0
1, 31620, Note_on_c, 1, 69, 127
1, 31620, Note_on_c, 1, 42, 127
1, 31668, Note_off_c, 1, 69, 0
1, 31668, Note_off_c, 1, 42, 0
1, 31680, Note_on_c, 1, 62, 127
1, 31680, Note_on_c, 1, 44, 127
1, 31728, Note_off_c, 1, 62, 0
1, 31740, Note_on_c, 1, 73, 127
1, 31788, Note_off_c, 1, 73, 0
1, 31800, Note_on_c, 1, 71, 127
1, 31848, Note_off_c, 1, 44, 0
1, 31848, Note_off_c, 1, 71, 0
1, 31860, Note_on_c, 1, 68, 127
1, 31860, Note_on_c, 1, 47, 127
1, 31908, Note_off_c, 1, 68, 0
1, 31908, Note_off_c, 1, 47, 0
1, 31920, Note_on_c, 1, 64, 127
1, 31920, Note_on_c, 1, 49, 127
1, 31968, Note_off_c, 1, 64, 0
1, 31980, Note_on_c, 1, 68, 127
1, 32028, Note_off_c, 1, 68, 0
1, 32040, Note_on_c, 1, 61, 127
1, 32064, Note_off_c, 1, 49, 0
1, 32088, Note_off_c, 1, 61, 0
1, 32100, Note_on_c, 1, 71, 127
1, 32100, Note_on_c, 1, 52, 127
1, 32148, Note_off_c, 1, 71, 0
1, 32148, Note_off_c, 1, 52, 0
1, 32160, Note_on_c, 1, 69, 127
1, 32160, Note_on_c, 1, 54, 127
1, 32208, Note_off_c, 1, 69, 0
1, 32208, Note_off_c, 1, 54, 0
1, 32220, Note_on_c, 1, 66, 127
1, 32220, Note_on_c, 1, 57, 127
1, 32268, Note_off_c, 1, 66, 0
1, 32268, Note_off_c, 1, 57, 0
1, 32280, Note_on_c, 1, 62, 127
1, 32280, Note_on_c, 1, 59, 127
1, 32328, Note_off_c, 1, 62, 0
1, 32328, Note_off_c, 1, 59, 0
1, 32340, Note_on_c, 1, 66, 127
1, 32340, Note_on_c, 1, 57, 127
1, 32388, Note_off_c, 1, 66, 0
1, 32388, Note_off_c, 1, 57, 0
1, 32400, Note_on_c, 1, 59, 127
1, 32400, Note_on_c, 1, 54, 127
1, 32448, Note_off_c, 1, 59, 0
1, 32448, Note_off_c, 1, 54, 0
1, 32460, Note_on_c, 1, 69, 127
1, 32460, Note_on_c, 1, 47, 127
1, 32508, Note_off_c, 1, 69, 0
1, 32508, Note_off_c, 1, 47, 0
1, 32520, Note_on_c, 1, 68, 127
1, 32520, Note_on_c, 1, 52, 127
1, 32568, Note_off_c, 1, 68, 0
1, 32568, Note_off_c, 1, 52, 0
1, 32580, Note_on_c, 1, 64, 127
1, 32580, Note_on_c, 1, 57, 127
1, 32628, Note_off_c, 1, 64, 0
1, 32628, Note_off_c, 1, 57, 0
1, 32640, Note_on_c, 1, 66, 127
1, 32640, Note_on_c, 1, 56, 127
1, 32688, Note_off_c, 1, 66, 0
1, 32688, Note_off_c, 1, 56, 0
1, 32700, Note_on_c, 1, 68, 127
1, 32700, Note_on_c, 1, 54, 127
1, 32748, Note_off_c, 1, 68, 0
1, 32748, Note_off_c, 1, 54, 0
1, 32760, Note_on_c, 1, 69, 127
1, 32760, Note_on_c, 1, 52, 127
1, 32808, Note_off_c, 1, 69, 0
1, 32808, Note_off_c, 1, 52, 0
1, 32820, Note_on_c, 1, 71, 127
1, 32820, Note_on_c, 1, 50, 127
1, 32868, Note_off_c, 1, 71, 0
1, 32868, Note_off_c, 1, 50, 0
1, 32880, Note_on_c, 1, 69, 127
1, 32880, Note_on_c, 1, 49, 127
1, 32928, Note_off_c, 1, 69, 0
1, 32928, Note_off_c, 1, 49, 0
1, 32940, Note_on_c, 1, 71, 127
1, 32940, Note_on_c, 1, 50, 127
1, 32988, Note_off_c, 1, 71, 0
1, 32988, Note_off_c, 1, 50, 0
1, 33000, Note_on_c, 1, 73, 127
1, 33000, Note_on_c, 1, 52, 127
1, 33024, Note_off_c, 1, 73, 0
1, 33030, Note_on_c, 1, 71, 127
1, 33048, Note_off_c, 1, 52, 0
1, 33054, Note_off_c, 1, 71, 0
1, 33060, Note_on_c, 1, 73, 127
1, 33060, Note_on_c, 1, 50, 127
1, 33084, Note_off_c, 1, 73, 0
1, 33090, Note_on_c, 1, 71, 127
1, 33108, Note_off_c, 1, 50, 0
1, 33114, Note_off_c, 1, 71, 0
1, 33120, Note_on_c, 1, 73, 127
1, 33120, Note_on_c, 1, 49, 127
1, 33144, Note_off_c, 1, 73, 0
1, 33150, Note_on_c, 1, 71, 127
1, 33168, Note_off_c, 1, 49, 0
1, 33179, Note_off_c, 1, 71, 0
1, 33180, Note_on_c, 1, 69, 127
1, 33180, Note_on_c, 1, 47, 127
1, 33204, Note_off_c, 1, 69, 0
1, 33210, Note_on_c, 1, 71, 127
1, 33228, Note_off_c, 1, 47, 0
1, 33234, Note_off_c, 1, 71, 0
1, 33240, Note_on_c, 1, 73, 127
1, 33240, Note_on_c, 1, 45, 127
1, 33288, Note_off_c, 1, 73, 0
1, 33288, Note_off_c, 1, 45, 0
1, 33300, Note_on_c, 1, 69, 127
1, 33300, Note_on_c, 1, 50, 127
1, 33348, Note_off_c, 1, 69, 0
1, 33348, Note_off_c, 1, 50, 0
1, 33360, Note_on_c, 1, 71, 127
1, 33360, Note_on_c, 1, 49, 127
1, 33408, Note_off_c, 1, 71, 0
1, 33408, Note_off_c, 1, 49, 0
1, 33420, Note_on_c, 1, 73, 127
1, 33420, Note_on_c, 1, 47, 127
1, 33468, Note_off_c, 1, 73, 0
1, 33468, Note_off_c, 1, 47, 0
1, 33480, Note_on_c, 1, 74, 127
1, 33480, Note_on_c, 1, 45, 127
1, 33528, Note_off_c, 1, 74, 0
1, 33528, Note_off_c, 1, 45, 0
1, 33540, Note_on_c, 1, 76, 127
1, 33540, Note_on_c, 1, 43, 127
1, 33588, Note_off_c, 1, 76, 0
1, 33588, Note_off_c, 1, 43, 0
1, 33600, Note_on_c, 1, 74, 127
1, 33600, Note_on_c, 1, 42, 127
1, 33648, Note_off_c, 1, 74, 0
1, 33648, Note_off_c, 1, 42, 0
1, 33660, Note_on_c, 1, 76, 127
1, 33660, Note_on_c, 1, 43, 127
1, 33708, Note_off_c, 1, 76, 0
1, 33708, Note_off_c, 1, 43, 0
1, 33720, Note_on_c, 1, 78, 127
1, 33720, Note_on_c, 1, 45, 127
1, 33744, Note_off_c, 1, 78, 0
1, 33750, Note_on_c, 1, 76, 127
1, 33768, Note_off_c, 1, 45, 0
1, 33774, Note_off_c, 1, 76, 0
1, 33780, Note_on_c, 1, 78, 127
1, 33780, Note_on_c, 1, 43, 127
1, 33804, Note_off_c, 1, 78, 0
1, 33810, Note_on_c, 1, 76, 127
1, 33828, Note_off_c, 1, 43, 0
1, 33834, Note_off_c, 1, 76, 0
1, 33840, Note_on_c, 1, 78, 127
1, 33840, Note_on_c, 1, 42, 127
1, 33864, Note_off_c, 1, 78, 0
1, 33870, Note_on_c, 1, 76, 127
1, 33888, Note_off_c, 1, 42, 0
1, 33899, Note_off_c, 1, 76, 0
1, 33900, Note_on_c, 1, 74, 127
1, 33900, Note_on_c, 1, 40, 127
1, 33924, Note_off_c, 1, 74, 0
1, 33930, Note_on_c, 1, 76, 127
1, 33948, Note_off_c, 1, 40, 0
1, 33954, Note_off_c, 1, 76, 0
1, 33960, Note_on_c, 1, 78, 127
1, 33960, Note_on_c, 1, 38, 127
1, 34008, Note_off_c, 1, 78, 0
1, 34008, Note_off_c, 1, 38, 0
1, 34020, Note_on_c, 1, 74, 127
1, 34020, Note_on_c, 1, 42, 127
1, 34068, Note_off_c, 1, 74, 0
1, 34068, Note_off_c, 1, 42, 0
1, 34080, Note_on_c, 1, 76, 127
1, 34080, Note_on_c, 1, 43, 127
1, 34128, Note_off_c, 1, 76, 0
1, 34128, Note_off_c, 1, 43, 0
1, 34140, Note_on_c, 1, 78, 127
1, 34140, Note_on_c, 1, 45, 127
1, 34188, Note_off_c, 1, 78, 0
1, 34188, Note_off_c, 1, 45, 0
1, 34200, Note_on_c, 1, 79, 127
1, 34200, Note_on_c, 1, 47, 127
1, 34248, Note_off_c, 1, 79, 0
1, 34248, Note_off_c, 1, 47, 0
1, 34260, Note_on_c, 1, 81, 127
1, 34260, Note_on_c, 1, 49, 127
1, 34308, Note_off_c, 1, 81, 0
1, 34308, Note_off_c, 1, 49, 0
1, 34320, Note_on_c, 1, 80, 127
1, 34320, Note_on_c, 1, 50, 127
1, 34368, Note_off_c, 1, 80, 0
1, 34368, Note_off_c, 1, 50, 0
1, 34380, Note_on_c, 1, 81, 127
1, 34380, Note_on_c, 1, 52, 127
1, 34428, Note_off_c, 1, 81, 0
1, 34428, Note_off_c, 1, 52, 0
1, 34440, Note_on_c, 1, 83, 127
1, 34440, Note_on_c, 1, 50, 127
1, 34464, Note_off_c, 1, 83, 0
1, 34470, Note_on_c, 1, 81, 127
1, 34488, Note_off_c, 1, 50, 0
1, 34494, Note_off_c, 1, 81, 0
1, 34500, Note_on_c, 1, 83, 127
1, 34500, Note_on_c, 1, 49, 127
1, 34524, Note_off_c, 1, 83, 0
1, 34530, Note_on_c, 1, 81, 127
1, 34548, Note_off_c, 1, 49, 0
1, 34554, Note_off_c, 1, 81, 0
1, 34560, Note_on_c, 1, 83, 127
1, 34560, Note_on_c, 1, 47, 127
1, 34584, Note_off_c, 1, 83, 0
1, 34590, Note_on_c, 1, 81, 127
1, 34608, Note_off_c, 1, 47, 0
1, 34619, Note_off_c, 1, 81, 0
1, 34620, Note_on_c, 1, 80, 127
1, 34620, Note_on_c, 1, 45, 127
1, 34644, Note_off_c, 1, 80, 0
1, 34650, Note_on_c, 1, 81, 127
1, 34668, Note_off_c, 1, 45, 0
1, 34674, Note_off_c, 1, 81, 0
1, 34680, Note_on_c, 1, 83, 127
1, 34680, Note_on_c, 1, 44, 127
1, 34728, Note_off_c, 1, 83, 0
1, 34728, Note_off_c, 1, 44, 0
1, 34740, Note_on_c, 1, 81, 127
1, 34740, Note_on_c, 1, 40, 127
1, 34788, Note_off_c, 1, 81, 0
1, 34788, Note_off_c, 1, 40, 0
1, 34800, Note_on_c, 1, 80, 127
1, 34800, Note_on_c, 1, 42, 127
1, 34848, Note_off_c, 1, 80, 0
1, 34848, Note_off_c, 1, 42, 0
1, 34860, Note_on_c, 1, 78, 127
1, 34860, Note_on_c, 1, 44, 127
1, 34908, Note_off_c, 1, 78, 0
1, 34908, Note_off_c, 1, 44, 0
1, 34920, Note_on_c, 1, 76, 127
1, 34920, Note_on_c, 1, 45, 127
1, 34968, Note_off_c, 1, 76, 0
1, 34968, Note_off_c, 1, 45, 0
1, 34980, Note_on_c, 1, 74, 127
1, 34980, Note_on_c, 1, 47, 127
1, 35028, Note_off_c, 1, 74, 0
1, 35028, Note_off_c, 1, 47, 0
1, 35040, Note_on_c, 1, 73, 127
1, 35040, Note_on_c, 1, 45, 127
1, 35088, Note_off_c, 1, 73, 0
1, 35088, Note_off_c, 1, 45, 0
1, 35100, Note_on_c, 1, 71, 127
1, 35100, Note_on_c, 1, 47, 127
1, 35148, Note_off_c, 1, 71, 0
1, 35148, Note_off_c, 1, 47, 0
1, 35160, Note_on_c, 1, 69, 127
1, 35160, Note_on_c, 1, 49, 127
1, 35184, Note_off_c, 1, 49, 0
1, 35190, Note_on_c, 1, 47, 127
1, 35208, Note_off_c, 1, 69, 0
1, 35214, Note_off_c, 1, 47, 0
1, 35220, Note_on_c, 1, 71, 127
1, 35220, Note_on_c, 1, 49, 127
1, 35244, Note_off_c, 1, 49, 0
1, 35250, Note_on_c, 1, 47, 127
1, 35268, Note_off_c, 1, 71, 0
1, 35274, Note_off_c, 1, 47, 0
1, 35280, Note_on_c, 1, 73, 127
1, 35280, Note_on_c, 1, 49, 127
1, 35304, Note_off_c, 1, 49, 0
1, 35310, Note_on_c, 1, 47, 127
1, 35328, Note_off_c, 1, 73, 0
1, 35339, Note_off_c, 1, 47, 0
1, 35340, Note_on_c, 1, 74, 127
1, 35340, Note_on_c, 1, 45, 127
1, 35364, Note_off_c, 1, 45, 0
1, 35370, Note_on_c, 1, 47, 127
1, 35388, Note_off_c, 1, 74, 0
1, 35394, Note_off_c, 1, 47, 0
1, 35400, Note_on_c, 1, 76, 127
1, 35400, Note_on_c, 1, 49, 127
1, 35448, Note_off_c, 1, 76, 0
1, 35448, Note_off_c, 1, 49, 0
1, 35460, Note_on_c, 1, 74, 127
1, 35460, Note_on_c, 1, 47, 127
1, 35508, Note_off_c, 1, 74, 0
1, 35508, Note_off_c, 1, 47, 0
1, 35520, Note_on_c, 1, 73, 127
1, 35520, Note_on_c, 1, 45, 127
1, 35568, Note_off_c, 1, 73, 0
1, 35568, Note_off_c, 1, 45, 0
1, 35580, Note_on_c, 1, 71, 127
1, 35580, Note_on_c, 1, 47, 127
1, 35628, Note_off_c, 1, 71, 0
1, 35628, Note_off_c, 1, 47, 0
1, 35640, Note_on_c, 1, 69, 127
1, 35640, Note_on_c, 1, 49, 127
1, 35688, Note_off_c, 1, 69, 0
1, 35688, Note_off_c, 1, 49, 0
1, 35700, Note_on_c, 1, 67, 127
1, 35700, Note_on_c, 1, 45, 127
1, 35748, Note_off_c, 1, 67, 0
1, 35748, Note_off_c, 1, 45, 0
1, 35760, Note_on_c, 1, 66, 127
1, 35760, Note_on_c, 1, 50, 127
1, 35808, Note_off_c, 1, 66, 0
1, 35808, Note_off_c, 1, 50, 0
1, 35820, Note_on_c, 1, 76, 127
1, 35820, Note_on_c, 1, 49, 127
1, 35868, Note_off_c, 1, 76, 0
1, 35868, Note_off_c, 1, 49, 0
1, 35880, Note_on_c, 1, 74, 127
1, 35880, Note_on_c, 1, 47, 127
1, 35928, Note_off_c, 1, 74, 0
1, 35928, Note_off_c, 1, 47, 0
1, 35940, Note_on_c, 1, 73, 127
1, 35940, Note_on_c, 1, 49, 127
1, 35988, Note_off_c, 1, 73, 0
1, 35988, Note_off_c, 1, 49, 0
1, 36000, Note_on_c, 1, 71, 127
1, 36000, Note_on_c, 1, 50, 127
1, 36048, Note_off_c, 1, 71, 0
1, 36048, Note_off_c, 1, 50, 0
1, 36060, Note_on_c, 1, 69, 127
1, 36060, Note_on_c, 1, 47, 127
1, 36108, Note_off_c, 1, 69, 0
1, 36108, Note_off_c, 1, 47, 0
1, 36120, Note_on_c, 1, 68, 127
1, 36120, Note_on_c, 1, 52, 127
1, 36168, Note_off_c, 1, 68, 0
1, 36168, Note_off_c, 1, 52, 0
1, 36180, Note_on_c, 1, 64, 127
1, 36180, Note_on_c, 1, 54, 127
1, 36228, Note_off_c, 1, 64, 0
1, 36228, Note_off_c, 1, 54, 0
1, 36240, Note_on_c, 1, 66, 127
1, 36240, Note_on_c, 1, 52, 127
1, 36288, Note_off_c, 1, 66, 0
1, 36288, Note_off_c, 1, 52, 0
1, 36300, Note_on_c, 1, 68, 127
1, 36300, Note_on_c, 1, 50, 127
1, 36348, Note_off_c, 1, 68, 0
1, 36348, Note_off_c, 1, 50, 0
1, 36360, Note_on_c, 1, 69, 127
1, 36360, Note_on_c, 1, 49, 127
1, 36408, Note_off_c, 1, 69, 0
1, 36408, Note_off_c, 1, 49, 0
1, 36420, Note_on_c, 1, 68, 127
1, 36420, Note_on_c, 1, 47, 127
1, 36468, Note_off_c, 1, 68, 0
1, 36468, Note_off_c, 1, 47, 0
1, 36480, Note_on_c, 1, 69, 127
1, 36480, Note_on_c, 1, 49, 127
1, 36528, Note_off_c, 1, 69, 0
1, 36528, Note_off_c, 1, 49, 0
1, 36540, Note_on_c, 1, 71, 127
1, 36540, Note_on_c, 1, 50, 127
1, 36588, Note_off_c, 1, 71, 0
1, 36588, Note_off_c, 1, 50, 0
1, 36600, Note_on_c, 1, 69, 127
1, 36600, Note_on_c, 1, 52, 127
1, 36624, Note_off_c, 1, 69, 0
1, 36630, Note_on_c, 1, 68, 127
1, 36654, Note_off_c, 1, 68, 0
1, 36690, Note_off_c, 1, 52, 0
1, 36720, Note_on_c, 1, 69, 127
1, 36720, Note_on_c, 1, 40, 127
1, 36744, Note_off_c, 1, 69, 0
1, 36750, Note_on_c, 1, 68, 127
1, 36779, Note_off_c, 1, 68, 0
1, 36780, Note_on_c, 1, 66, 127
1, 36804, Note_off_c, 1, 66, 0
1, 36810, Note_off_c, 1, 40, 0
1, 36840, Note_on_c, 1, 69, 127
1, 36840, Note_on_c, 1, 45, 127
1, 36888, Note_off_c, 1, 69, 0
1, 36900, Note_on_c, 1, 71, 127
1, 36936, Note_off_c, 1, 45, 0
1, 36948, Note_off_c, 1, 71, 0
1, 36960, Note_on_c, 1, 73, 127
1, 36960, Note_on_c, 1, 57, 127
1, 37008, Note_off_c, 1, 73, 0
1, 37008, Note_off_c, 1, 57, 0
1, 37020, Note_on_c, 1, 74, 127
1, 37020, Note_on_c, 1, 56, 127
1, 37068, Note_off_c, 1, 74, 0
1, 37068, Note_off_c, 1, 56, 0
1, 37080, Note_on_c, 1, 76, 127
1, 37080, Note_on_c, 1, 54, 127
1, 37128, Note_off_c, 1, 76, 0
1, 37128, Note_off_c, 1, 54, 0
1, 37140, Note_on_c, 1, 73, 127
1, 37140, Note_on_c, 1, 52, 127
1, 37188, Note_off_c, 1, 73, 0
1, 37188, Note_off_c, 1, 52, 0
1, 37200, Note_on_c, 1, 78, 127
1, 37200, Note_on_c, 1, 50, 127
1, 37248, Note_off_c, 1, 78, 0
1, 37260, Note_on_c, 1, 76, 127
1, 37290, Note_off_c, 1, 50, 0
1, 37308, Note_off_c, 1, 76, 0
1, 37320, Note_on_c, 1, 74, 127
1, 37320, Note_on_c, 1, 52, 127
1, 37344, Note_off_c, 1, 52, 0
1, 37350, Note_on_c, 1, 50, 127
1, 37368, Note_off_c, 1, 74, 0
1, 37374, Note_off_c, 1, 50, 0
1, 37380, Note_on_c, 1, 73, 127
1, 37380, Note_on_c, 1, 52, 127
1, 37404, Note_off_c, 1, 52, 0
1, 37410, Note_on_c, 1, 50, 127
1, 37428, Note_off_c, 1, 73, 0
1, 37434, Note_off_c, 1, 50, 0
1, 37440, Note_on_c, 1, 71, 127
1, 37440, Note_on_c, 1, 52, 127
1, 37464, Note_off_c, 1, 52, 0
1, 37470, Note_on_c, 1, 50, 127
1, 37488, Note_off_c, 1, 71, 0
1, 37499, Note_off_c, 1, 50, 0
1, 37500, Note_on_c, 1, 69, 127
1, 37500, Note_on_c, 1, 49, 127
1, 37524, Note_off_c, 1, 49, 0
1, 37530, Note_on_c, 1, 50, 127
1, 37548, Note_off_c, 1, 69, 0
1, 37554, Note_off_c, 1, 50, 0
1, 37560, Note_on_c, 1, 68, 127
1, 37560, Note_on_c, 1, 52, 127
1, 37608, Note_off_c, 1, 68, 0
1, 37608, Note_off_c, 1, 52, 0
1, 37620, Note_on_c, 1, 69, 127
1, 37620, Note_on_c, 1, 54, 127
1, 37668, Note_off_c, 1, 69, 0
1, 37668, Note_off_c, 1, 54, 0
1, 37680, Note_on_c, 1, 71, 127
1, 37680, Note_on_c, 1, 56, 127
1, 37728, Note_off_c, 1, 71, 0
1, 37728, Note_off_c, 1, 56, 0
1, 37740, Note_on_c, 1, 73, 127
1, 37740, Note_on_c, 1, 54, 127
1, 37788, Note_off_c, 1, 73, 0
1, 37788, Note_off_c, 1, 54, 0
1, 37800, Note_on_c, 1, 74, 127
1, 37800, Note_on_c, 1, 52, 127
1, 37848, Note_off_c, 1, 74, 0
1, 37848, Note_off_c, 1, 52, 0
1, 37860, Note_on_c, 1, 71, 127
1, 37860, Note_on_c, 1, 50, 127
1, 37908, Note_off_c, 1, 71, 0
1, 37908, Note_off_c, 1, 50, 0
1, 37920, Note_on_c, 1, 76, 127
1, 37920, Note_on_c, 1, 49, 127
1, 37968, Note_off_c, 1, 76, 0
1, 37980, Note_on_c, 1, 74, 127
1, 38010, Note_off_c, 1, 49, 0
1, 38028, Note_off_c, 1, 74, 0
1, 38040, Note_on_c, 1, 73, 127
1, 38040, Note_on_c, 1, 50, 127
1, 38064, Note_off_c, 1, 50, 0
1, 38070, Note_on_c, 1, 49, 127
1, 38088, Note_off_c, 1, 73, 0
1, 38094, Note_off_c, 1, 49, 0
1, 38100, Note_on_c, 1, 71, 127
1, 38100, Note_on_c, 1, 50, 127
1, 38124, Note_off_c, 1, 50, 0
1, 38130, Note_on_c, 1, 49, 127
1, 38148, Note_off_c, 1, 71, 0
1, 38154, Note_off_c, 1, 49, 0
1, 38160, Note_on_c, 1, 69, 127
1, 38160, Note_on_c, 1, 50, 127
1, 38184, Note_off_c, 1, 50, 0
1, 38190, Note_on_c, 1, 49, 127
1, 38208, Note_off_c, 1, 69, 0
1, 38219, Note_off_c, 1, 49, 0
1, 38220, Note_on_c, 1, 68, 127
1, 38220, Note_on_c, 1, 47, 127
1, 38244, Note_off_c, 1, 47, 0
1, 38250, Note_on_c, 1, 49, 127
1, 38268, Note_off_c, 1, 68, 0
1, 38274, Note_off_c, 1, 49, 0
1, 38280, Note_on_c, 1, 66, 127
1, 38280, Note_on_c, 1, 50, 127
1, 38328, Note_off_c, 1, 66, 0
1, 38328, Note_off_c, 1, 50, 0
1, 38340, Note_on_c, 1, 68, 127
1, 38340, Note_on_c, 1, 52, 127
1, 38388, Note_off_c, 1, 68, 0
1, 38388, Note_off_c, 1, 52, 0
1, 38400, Note_on_c, 1, 69, 127
1, 38400, Note_on_c, 1, 54, 127
1, 38448, Note_off_c, 1, 69, 0
1, 38448, Note_off_c, 1, 54, 0
1, 38460, Note_on_c, 1, 71, 127
1, 38460, Note_on_c, 1, 52, 127
1, 38508, Note_off_c, 1, 71, 0
1, 38508, Note_off_c, 1, 52, 0
1, 38520, Note_on_c, 1, 73, 127
1, 38520, Note_on_c, 1, 50, 127
1, 38568, Note_off_c, 1, 73, 0
1, 38568, Note_off_c, 1, 50, 0
1, 38580, Note_on_c, 1, 69, 127
1, 38580, Note_on_c, 1, 49, 127
1, 38628, Note_off_c, 1, 69, 0
1, 38628, Note_off_c, 1, 49, 0
1, 38640, Note_on_c, 1, 74, 127
1, 38640, Note_on_c, 1, 47, 127
1, 38688, Note_off_c, 1, 74, 0
1, 38688, Note_off_c, 1, 47, 0
1, 38700, Note_on_c, 1, 73, 127
1, 38700, Note_on_c, 1, 49, 127
1, 38748, Note_off_c, 1, 73, 0
1, 38748, Note_off_c, 1, 49, 0
1, 38760, Note_on_c, 1, 71, 127
1, 38760, Note_on_c, 1, 50, 127
1, 38808, Note_off_c, 1, 71, 0
1, 38808, Note_off_c, 1, 50, 0
1, 38820, Note_on_c, 1, 69, 127
1, 38820, Note_on_c, 1, 49, 127
1, 38868, Note_off_c, 1, 69, 0
1, 38868, Note_off_c, 1, 49, 0
1, 38880, Note_on_c, 1, 68, 127
1, 38880, Note_on_c, 1, 47, 127
1, 38928, Note_off_c, 1, 68, 0
1, 38928, Note_off_c, 1, 47, 0
1, 38940, Note_on_c, 1, 66, 127
1, 38940, Note_on_c, 1, 45, 127
1, 38988, Note_off_c, 1, 66, 0
1, 38988, Note_off_c, 1, 45, 0
1, 39000, Note_on_c, 1, 64, 127
1, 39000, Note_on_c, 1, 44, 127
1, 39048, Note_off_c, 1, 64, 0
1, 39060, Note_on_c, 1, 74, 127
1, 39090, Note_off_c, 1, 44, 0
1, 39108, Note_off_c, 1, 74, 0
1, 39120, Note_on_c, 1, 73, 127
1, 39120, Note_on_c, 1, 52, 127
1, 39168, Note_off_c, 1, 73, 0
1, 39180, Note_on_c, 1, 71, 127
1, 39210, Note_off_c, 1, 52, 0
1, 39228, Note_off_c, 1, 71, 0
1, 39240, Note_on_c, 1, 69, 127
1, 39240, Note_on_c, 1, 54, 127
1, 39288, Note_off_c, 1, 69, 0
1, 39300, Note_on_c, 1, 68, 127
1, 39330, Note_off_c, 1, 54, 0
1, 39348, Note_off_c, 1, 68, 0
1, 39360, Note_on_c, 1, 69, 127
1, 39360, Note_on_c, 1, 50, 127
1, 39408, Note_off_c, 1, 69, 0
1, 39420, Note_on_c, 1, 71, 127
1, 39450, Note_off_c, 1, 50, 0
1, 39468, Note_off_c, 1, 71, 0
1, 39480, Note_on_c, 1, 71, 127
1, 39480, Note_on_c, 1, 52, 127
1, 39492, Note_off_c, 1, 71, 0
1, 39495, Note_on_c, 1, 73, 127
1, 39507, Note_off_c, 1, 73, 0
1, 39570, Note_off_c, 1, 52, 0
1, 39585, Note_on_c, 1, 73, 127
1, 39597, Note_off_c, 1, 73, 0
1, 39600, Note_on_c, 1, 71, 127
1, 39600, Note_on_c, 1, 40, 127
1, 39612, Note_off_c, 1, 71, 0
1, 39615, Note_on_c, 1, 73, 127
1, 39627, Note_off_c, 1, 73, 0
1, 39660, Note_on_c, 1, 69, 127
1, 39690, Note_off_c, 1, 40, 0
1, 39708, Note_off_c, 1, 69, 0
1, 39720, Note_on_c, 1, 69, 127
1, 39720, Note_on_c, 1, 33, 127
1, 39840, Note_on_c, 1, 37, 127
1, 39936, Note_off_c, 1, 37, 0
1, 39960, Note_on_c, 1, 40, 127
1, 40056, Note_off_c, 1, 40, 0
1, 40080, Note_on_c, 1, 45, 127
1, 40272, Note_off_c, 1, 69, 0
1, 40272, Note_off_c, 1, 33, 0
1, 40272, Note_off_c, 1, 45, 0
1, 40320, Note_on_c, 1, 71, 127
1, 40416, Note_off_c, 1, 71, 0
1, 40440, Note_on_c, 1, 64, 127
1, 40536, Note_off_c, 1, 64, 0
1, 40560, Note_on_c, 1, 66, 127
1, 40608, Note_off_c, 1, 66, 0
1, 40620, Note_on_c, 1, 68, 127
1, 40668, Note_off_c, 1, 68, 0
1, 40680, Note_on_c, 1, 69, 127
1, 40728, Note_off_c, 1, 69, 0
1, 40740, Note_on_c, 1, 71, 127
1, 40788, Note_off_c, 1, 71, 0
1, 40800, Note_on_c, 1, 69, 127
1, 40848, Note_off_c, 1, 69, 0
1, 40860, Note_on_c, 1, 71, 127
1, 40908, Note_off_c, 1, 71, 0
1, 40920, Note_on_c, 1, 73, 127
1, 40949, Note_off_c, 1, 73, 0
1, 40950, Note_on_c, 1, 71, 127
1, 40979, Note_off_c, 1, 71, 0
1, 40980, Note_on_c, 1, 73, 127
1, 41009, Note_off_c, 1, 73, 0
1, 41010, Note_on_c, 1, 71, 127
1, 41039, Note_off_c, 1, 71, 0
1, 41040, Note_on_c, 1, 73, 127
1, 41040, Note_on_c, 1, 52, 127
1, 41069, Note_off_c, 1, 73, 0
1, 41070, Note_on_c, 1, 71, 127
1, 41099, Note_off_c, 1, 71, 0
1, 41100, Note_on_c, 1, 69, 127
1, 41124, Note_off_c, 1, 69, 0
1, 41130, Note_off_c, 1, 52, 0
1, 41160, Note_on_c, 1, 73, 127
1, 41160, Note_on_c, 1, 45, 127
1, 41208, Note_off_c, 1, 73, 0
1, 41220, Note_on_c, 1, 74, 127
1, 41256, Note_off_c, 1, 45, 0
1, 41268, Note_off_c, 1, 74, 0
1, 41280, Note_on_c, 1, 73, 127
1, 41280, Note_on_c, 1, 47, 127
1, 41328, Note_off_c, 1, 73, 0
1, 41328, Note_off_c, 1, 47, 0
1, 41340, Note_on_c, 1, 71, 127
1, 41340, Note_on_c, 1, 49, 127
1, 41388, Note_off_c, 1, 71, 0
1, 41388, Note_off_c, 1, 49, 0
1, 41400, Note_on_c, 1, 69, 127
1, 41400, Note_on_c, 1, 50, 127
1, 41448, Note_off_c, 1, 69, 0
1, 41448, Note_off_c, 1, 50, 0
1, 41460, Note_on_c, 1, 67, 127
1, 41460, Note_on_c, 1, 52, 127
1, 41508, Note_off_c, 1, 67, 0
1, 41508, Note_off_c, 1, 52, 0
1, 41520, Note_on_c, 1, 66, 127
1, 41520, Note_on_c, 1, 50, 127
1, 41568, Note_off_c, 1, 66, 0
1, 41568, Note_off_c, 1, 50, 0
1, 41580, Note_on_c, 1, 78, 127
1, 41580, Note_on_c, 1, 52, 127
1, 41628, Note_off_c, 1, 78, 0
1, 41628, Note_off_c, 1, 52, 0
1, 41640, Note_on_c, 1, 76, 127
1, 41640, Note_on_c, 1, 54, 127
1, 41664, Note_off_c, 1, 54, 0
1, 41670, Note_on_c, 1, 52, 127
1, 41688, Note_off_c, 1, 76, 0
1, 41694, Note_off_c, 1, 52, 0
1, 41700, Note_on_c, 1, 74, 127
1, 41700, Note_on_c, 1, 54, 127
1, 41724, Note_off_c, 1, 54, 0
1, 41730, Note_on_c, 1, 52, 127
1, 41748, Note_off_c, 1, 74, 0
1, 41754, Note_off_c, 1, 52, 0
1, 41760, Note_on_c, 1, 73, 127
1, 41760, Note_on_c, 1, 54, 127
1, 41784, Note_off_c, 1, 54, 0
1, 41790, Note_on_c, 1, 52, 127
1, 41808, Note_off_c, 1, 73, 0
1, 41814, Note_off_c, 1, 52, 0
1, 41820, Note_on_c, 1, 71, 127
1, 41820, Note_on_c, 1, 50, 127
1, 41844, Note_off_c, 1, 50, 0
1, 41850, Note_on_c, 1, 52, 127
1, 41868, Note_off_c, 1, 71, 0
1, 41874, Note_off_c, 1, 52, 0
1, 41880, Note_on_c, 1, 70, 127
1, 41880, Note_on_c, 1, 54, 127
1, 41928, Note_off_c, 1, 70, 0
1, 41940, Note_on_c, 1, 71, 127
1, 41976, Note_off_c, 1, 54, 0
1, 41988, Note_off_c, 1, 71, 0
1, 42000, Note_on_c, 1, 73, 127
1, 42000, Note_on_c, 1, 52, 127
1, 42029, Note_off_c, 1, 73, 0
1, 42030, Note_on_c, 1, 71, 127
1, 42048, Note_off_c, 1, 52, 0
1, 42059, Note_off_c, 1, 71, 0
1, 42060, Note_on_c, 1, 73, 127
1, 42060, Note_on_c, 1, 50, 127
1, 42089, Note_off_c, 1, 73, 0
1, 42090, Note_on_c, 1, 71, 127
1, 42108, Note_off_c, 1, 50, 0
1, 42119, Note_off_c, 1, 71, 0
1, 42120, Note_on_c, 1, 73, 127
1, 42120, Note_on_c, 1, 49, 127
1, 42149, Note_off_c, 1, 73, 0
1, 42150, Note_on_c, 1, 71, 127
1, 42168, Note_off_c, 1, 49, 0
1, 42179, Note_off_c, 1, 71, 0
1, 42180, Note_on_c, 1, 70, 127
1, 42180, Note_on_c, 1, 47, 127
1, 42204, Note_off_c, 1, 70, 0
1, 42210, Note_on_c, 1, 71, 127
1, 42228, Note_off_c, 1, 47, 0
1, 42234, Note_off_c, 1, 71, 0
1, 42240, Note_on_c, 1, 73, 127
1, 42240, Note_on_c, 1, 46, 127
1, 42288, Note_off_c, 1, 46, 0
1, 42297, Note_off_c, 1, 73, 0
1, 42300, Note_on_c, 1, 74, 127
1, 42300, Note_on_c, 1, 47, 127
1, 42348, Note_off_c, 1, 47, 0
1, 42357, Note_off_c, 1, 74, 0
1, 42360, Note_on_c, 1, 76, 127
1, 42360, Note_on_c, 1, 50, 127
1, 42384, Note_off_c, 1, 50, 0
1, 42389, Note_off_c, 1, 76, 0
1, 42390, Note_on_c, 1, 74, 127
1, 42390, Note_on_c, 1, 49, 127
1, 42414, Note_off_c, 1, 49, 0
1, 42419, Note_off_c, 1, 74, 0
1, 42420, Note_on_c, 1, 76, 127
1, 42420, Note_on_c, 1, 50, 127
1, 42444, Note_off_c, 1, 50, 0
1, 42449, Note_off_c, 1, 76, 0
1, 42450, Note_on_c, 1, 74, 127
1, 42450, Note_on_c, 1, 49, 127
1, 42474, Note_off_c, 1, 49, 0
1, 42479, Note_off_c, 1, 74, 0
1, 42480, Note_on_c, 1, 76, 127
1, 42480, Note_on_c, 1, 50, 127
1, 42504, Note_off_c, 1, 50, 0
1, 42509, Note_off_c, 1, 76, 0
1, 42510, Note_on_c, 1, 74, 127
1, 42510, Note_on_c, 1, 49, 127
1, 42534, Note_off_c, 1, 74, 0
1, 42534, Note_off_c, 1, 49, 0
1, 42540, Note_on_c, 1, 73, 127
1, 42540, Note_on_c, 1, 45, 127
1, 42564, Note_off_c, 1, 73, 0
1, 42564, Note_off_c, 1, 45, 0
1, 42570, Note_on_c, 1, 74, 127
1, 42570, Note_on_c, 1, 47, 127
1, 42594, Note_off_c, 1, 74, 0
1, 42594, Note_off_c, 1, 47, 0
1, 42600, Note_on_c, 1, 76, 127
1, 42600, Note_on_c, 1, 49, 127
1, 42648, Note_off_c, 1, 49, 0
1, 42660, Note_on_c, 1, 42, 127
1, 42708, Note_off_c, 1, 42, 0
1, 42720, Note_on_c, 1, 44, 127
1, 42744, Note_off_c, 1, 76, 0
1, 42768, Note_off_c, 1, 44, 0
1, 42780, Note_on_c, 1, 78, 127
1, 42780, Note_on_c, 1, 46, 127
1, 42828, Note_off_c, 1, 78, 0
1, 42828, Note_off_c, 1, 46, 0
1, 42840, Note_on_c, 1, 74, 127
1, 42840, Note_on_c, 1, 47, 127
1, 42888, Note_off_c, 1, 47, 0
1, 42900, Note_on_c, 1, 49, 127
1, 42948, Note_off_c, 1, 49, 0
1, 42960, Note_on_c, 1, 50, 127
1, 43008, Note_off_c, 1, 74, 0
1, 43008, Note_off_c, 1, 50, 0
1, 43020, Note_on_c, 1, 76, 127
1, 43020, Note_on_c, 1, 47, 127
1, 43068, Note_off_c, 1, 76, 0
1, 43068, Note_off_c, 1, 47, 0
1, 43080, Note_on_c, 1, 74, 127
1, 43080, Note_on_c, 1, 54, 127
1, 43104, Note_off_c, 1, 74, 0
1, 43110, Note_on_c, 1, 73, 127
1, 43134, Note_off_c, 1, 73, 0
1, 43170, Note_off_c, 1, 54, 0
1, 43200, Note_on_c, 1, 74, 127
1, 43200, Note_on_c, 1, 42, 127
1, 43224, Note_off_c, 1, 74, 0
1, 43230, Note_on_c, 1, 73, 127
1, 43254, Note_off_c, 1, 73, 0
1, 43260, Note_on_c, 1, 78, 127
1, 43290, Note_off_c, 1, 42, 0
1, 43308, Note_off_c, 1, 78, 0
1, 43320, Note_on_c, 1, 75, 127
1, 43320, Note_on_c, 1, 47, 127
1, 43368, Note_off_c, 1, 75, 0
1, 43380, Note_on_c, 1, 71, 127
1, 43428, Note_off_c, 1, 71, 0
1, 43440, Note_on_c, 1, 73, 127
1, 43488, Note_off_c, 1, 73, 0
1, 43512, Note_off_c, 1, 47, 0
1, 43560, Note_on_c, 1, 76, 127
1, 43608, Note_off_c, 1, 76, 0
1, 43620, Note_on_c, 1, 78, 127
1, 43668, Note_off_c, 1, 78, 0
1, 43680, Note_on_c, 1, 76, 127
1, 43728, Note_off_c, 1, 76, 0
1, 43740, Note_on_c, 1, 78, 127
1, 43788, Note_off_c, 1, 78, 0
1, 43800, Note_on_c, 1, 79, 127
1, 43824, Note_off_c, 1, 79, 0
1, 43830, Note_on_c, 1, 78, 127
1, 43854, Note_off_c, 1, 78, 0
1, 43860, Note_on_c, 1, 79, 127
1, 43884, Note_off_c, 1, 79, 0
1, 43890, Note_on_c, 1, 78, 127
1, 43914, Note_off_c, 1, 78, 0
1, 43920, Note_on_c, 1, 79, 127
1, 43920, Note_on_c, 1, 59, 127
1, 43944, Note_off_c, 1, 79, 0
1, 43950, Note_on_c, 1, 78, 127
1, 43974, Note_off_c, 1, 78, 0
1, 43980, Note_on_c, 1, 76, 127
1, 44004, Note_off_c, 1, 76, 0
1, 44010, Note_off_c, 1, 59, 0
1, 44040, Note_on_c, 1, 79, 127
1, 44040, Note_on_c, 1, 52, 127
1, 44088, Note_off_c, 1, 79, 0
1, 44100, Note_on_c, 1, 81, 127
1, 44136, Note_off_c, 1, 52, 0
1, 44148, Note_off_c, 1, 81, 0
1, 44160, Note_on_c, 1, 79, 127
1, 44160, Note_on_c, 1, 54, 127
1, 44208, Note_off_c, 1, 79, 0
1, 44208, Note_off_c, 1, 54, 0
1, 44220, Note_on_c, 1, 78, 127
1, 44220, Note_on_c, 1, 55, 127
1, 44268, Note_off_c, 1, 78, 0
1, 44268, Note_off_c, 1, 55, 0
1, 44280, Note_on_c, 1, 76, 127
1, 44280, Note_on_c, 1, 57, 127
1, 44328, Note_off_c, 1, 76, 0
1, 44328, Note_off_c, 1, 57, 0
1, 44340, Note_on_c, 1, 74, 127
1, 44340, Note_on_c, 1, 59, 127
1, 44388, Note_off_c, 1, 74, 0
1, 44388, Note_off_c, 1, 59, 0
1, 44400, Note_on_c, 1, 72, 127
1, 44400, Note_on_c, 1, 57, 127
1, 44448, Note_off_c, 1, 72, 0
1, 44448, Note_off_c, 1, 57, 0
1, 44460, Note_on_c, 1, 83, 127
1, 44460, Note_on_c, 1, 59, 127
1, 44508, Note_off_c, 1, 83, 0
1, 44508, Note_off_c, 1, 59, 0
1, 44520, Note_on_c, 1, 81, 127
1, 44520, Note_on_c, 1, 60, 127
1, 44544, Note_off_c, 1, 60, 0
1, 44550, Note_on_c, 1, 59, 127
1, 44568, Note_off_c, 1, 81, 0
1, 44574, Note_off_c, 1, 59, 0
1, 44580, Note_on_c, 1, 79, 127
1, 44580, Note_on_c, 1, 60, 127
1, 44604, Note_off_c, 1, 60, 0
1, 44610, Note_on_c, 1, 59, 127
1, 44628, Note_off_c, 1, 79, 0
1, 44639, Note_off_c, 1, 59, 0
1, 44640, Note_on_c, 1, 78, 127
1, 44640, Note_on_c, 1, 60, 127
1, 44664, Note_off_c, 1, 60, 0
1, 44670, Note_on_c, 1, 59, 127
1, 44688, Note_off_c, 1, 78, 0
1, 44694, Note_off_c, 1, 59, 0
1, 44700, Note_on_c, 1, 76, 127
1, 44700, Note_on_c, 1, 57, 127
1, 44724, Note_off_c, 1, 57, 0
1, 44730, Note_on_c, 1, 59, 127
1, 44748, Note_off_c, 1, 76, 0
1, 44754, Note_off_c, 1, 59, 0
1, 44760, Note_on_c, 1, 75, 127
1, 44760, Note_on_c, 1, 60, 127
1, 44808, Note_off_c, 1, 75, 0
1, 44808, Note_off_c, 1, 60, 0
1, 44820, Note_on_c, 1, 76, 127
1, 44820, Note_on_c, 1, 59, 127
1, 44868, Note_off_c, 1, 76, 0
1, 44868, Note_off_c, 1, 59, 0
1, 44880, Note_on_c, 1, 78, 127
1, 44880, Note_on_c, 1, 57, 127
1, 44904, Note_off_c, 1, 78, 0
1, 44910, Note_on_c, 1, 76, 127
1, 44928, Note_off_c, 1, 57, 0
1, 44934, Note_off_c, 1, 76, 0
1, 44940, Note_on_c, 1, 78, 127
1, 44940, Note_on_c, 1, 55, 127
1, 44969, Note_off_c, 1, 78, 0
1, 44970, Note_on_c, 1, 76, 127
1, 44988, Note_off_c, 1, 55, 0
1, 44994, Note_off_c, 1, 76, 0
1, 45000, Note_on_c, 1, 78, 127
1, 45000, Note_on_c, 1, 54, 127
1, 45024, Note_off_c, 1, 78, 0
1, 45030, Note_on_c, 1, 76, 127
1, 45048, Note_off_c, 1, 54, 0
1, 45054, Note_off_c, 1, 76, 0
1, 45060, Note_on_c, 1, 74, 127
1, 45060, Note_on_c, 1, 52, 127
1, 45084, Note_off_c, 1, 74, 0
1, 45090, Note_on_c, 1, 76, 127
1, 45108, Note_off_c, 1, 52, 0
1, 45114, Note_off_c, 1, 76, 0
1, 45120, Note_on_c, 1, 78, 127
1, 45120, Note_on_c, 1, 51, 127
1, 45168, Note_off_c, 1, 78, 0
1, 45168, Note_off_c, 1, 51, 0
1, 45180, Note_on_c, 1, 79, 127
1, 45180, Note_on_c, 1, 52, 127
1, 45228, Note_off_c, 1, 79, 0
1, 45228, Note_off_c, 1, 52, 0
1, 45240, Note_on_c, 1, 81, 127
1, 45240, Note_on_c, 1, 54, 127
1, 45264, Note_off_c, 1, 81, 0
1, 45264, Note_off_c, 1, 54, 0
1, 45270, Note_on_c, 1, 79, 127
1, 45270, Note_on_c, 1, 52, 127
1, 45294, Note_off_c, 1, 79, 0
1, 45294, Note_off_c, 1, 52, 0
1, 45300, Note_on_c, 1, 81, 127
1, 45300, Note_on_c, 1, 54, 127
1, 45324, Note_off_c, 1, 81, 0
1, 45324, Note_off_c, 1, 54, 0
1, 45330, Note_on_c, 1, 79, 127
1, 45330, Note_on_c, 1, 52, 127
1, 45354, Note_off_c, 1, 79, 0
1, 45354, Note_off_c, 1, 52, 0
1, 45360, Note_on_c, 1, 81, 127
1, 45360, Note_on_c, 1, 54, 127
1, 45384, Note_off_c, 1, 81, 0
1, 45384, Note_off_c, 1, 54, 0
1, 45390, Note_on_c, 1, 79, 127
1, 45390, Note_on_c, 1, 52, 127
1, 45419, Note_off_c, 1, 79, 0
1, 45419, Note_off_c, 1, 52, 0
1, 45420, Note_on_c, 1, 78, 127
1, 45420, Note_on_c, 1, 51, 127
1, 45444, Note_off_c, 1, 78, 0
1, 45444, Note_off_c, 1, 51, 0
1, 45450, Note_on_c, 1, 79, 127
1, 45450, Note_on_c, 1, 52, 127
1, 45474, Note_off_c, 1, 79, 0
1, 45474, Note_off_c, 1, 52, 0
1, 45480, Note_on_c, 1, 81, 127
1, 45480, Note_on_c, 1, 54, 127
1, 45528, Note_off_c, 1, 54, 0
1, 45540, Note_on_c, 1, 47, 127
1, 45588, Note_off_c, 1, 47, 0
1, 45600, Note_on_c, 1, 49, 127
1, 45624, Note_off_c, 1, 81, 0
1, 45648, Note_off_c, 1, 49, 0
1, 45660, Note_on_c, 1, 83, 127
1, 45660, Note_on_c, 1, 51, 127
1, 45708, Note_off_c, 1, 83, 0
1, 45708, Note_off_c, 1, 51, 0
1, 45720, Note_on_c, 1, 79, 127
1, 45720, Note_on_c, 1, 52, 127
1, 45744, Note_off_c, 1, 79, 0
1, 45750, Note_on_c, 1, 78, 127
1, 45768, Note_off_c, 1, 52, 0
1, 45774, Note_off_c, 1, 78, 0
1, 45780, Note_on_c, 1, 79, 127
1, 45780, Note_on_c, 1, 54, 127
1, 45828, Note_off_c, 1, 54, 0
1, 45840, Note_on_c, 1, 55, 127
1, 45888, Note_off_c, 1, 79, 0
1, 45888, Note_off_c, 1, 55, 0
1, 45900, Note_on_c, 1, 81, 127
1, 45900, Note_on_c, 1, 52, 127
1, 45948, Note_off_c, 1, 81, 0
1, 45948, Note_off_c, 1, 52, 0
1, 45960, Note_on_c, 1, 78, 127
1, 45960, Note_on_c, 1, 59, 127
1, 45984, Note_off_c, 1, 78, 0
1, 45990, Note_on_c, 1, 79, 127
1, 46014, Note_off_c, 1, 79, 0
1, 46050, Note_off_c, 1, 59, 0
1, 46080, Note_on_c, 1, 47, 127
1, 46140, Note_on_c, 1, 83, 127
1, 46170, Note_off_c, 1, 47, 0
1, 46188, Note_off_c, 1, 83, 0
1, 46200, Note_on_c, 1, 80, 127
1, 46200, Note_on_c, 1, 40, 127
1, 46248, Note_off_c, 1, 80, 0
1, 46260, Note_on_c, 1, 81, 127
1, 46296, Note_off_c, 1, 40, 0
1, 46308, Note_off_c, 1, 81, 0
1, 46320, Note_on_c, 1, 80, 127
1, 46320, Note_on_c, 1, 42, 127
1, 46368, Note_off_c, 1, 80, 0
1, 46368, Note_off_c, 1, 42, 0
1, 46380, Note_on_c, 1, 78, 127
1, 46380, Note_on_c, 1, 44, 127
1, 46428, Note_off_c, 1, 78, 0
1, 46428, Note_off_c, 1, 44, 0
1, 46440, Note_on_c, 1, 76, 127
1, 46440, Note_on_c, 1, 45, 127
1, 46488, Note_off_c, 1, 76, 0
1, 46488, Note_off_c, 1, 45, 0
1, 46500, Note_on_c, 1, 74, 127
1, 46500, Note_on_c, 1, 47, 127
1, 46548, Note_off_c, 1, 74, 0
1, 46548, Note_off_c, 1, 47, 0
1, 46560, Note_on_c, 1, 73, 127
1, 46560, Note_on_c, 1, 45, 127
1, 46608, Note_off_c, 1, 73, 0
1, 46608, Note_off_c, 1, 45, 0
1, 46620, Note_on_c, 1, 71, 127
1, 46620, Note_on_c, 1, 47, 127
1, 46668, Note_off_c, 1, 71, 0
1, 46668, Note_off_c, 1, 47, 0
1, 46680, Note_on_c, 1, 69, 127
1, 46680, Note_on_c, 1, 49, 127
1, 46704, Note_off_c, 1, 49, 0
1, 46710, Note_on_c, 1, 47, 127
1, 46728, Note_off_c, 1, 69, 0
1, 46734, Note_off_c, 1, 47, 0
1, 46740, Note_on_c, 1, 71, 127
1, 46740, Note_on_c, 1, 49, 127
1, 46764, Note_off_c, 1, 49, 0
1, 46770, Note_on_c, 1, 47, 127
1, 46788, Note_off_c, 1, 71, 0
1, 46794, Note_off_c, 1, 47, 0
1, 46800, Note_on_c, 1, 73, 127
1, 46800, Note_on_c, 1, 49, 127
1, 46824, Note_off_c, 1, 49, 0
1, 46830, Note_on_c, 1, 47, 127
1, 46848, Note_off_c, 1, 73, 0
1, 46859, Note_off_c, 1, 47, 0
1, 46860, Note_on_c, 1, 74, 127
1, 46860, Note_on_c, 1, 45, 127
1, 46889, Note_off_c, 1, 45, 0
1, 46890, Note_on_c, 1, 47, 127
1, 46908, Note_off_c, 1, 74, 0
1, 46919, Note_off_c, 1, 47, 0
1, 46920, Note_on_c, 1, 76, 127
1, 46920, Note_on_c, 1, 49, 127
1, 46968, Note_off_c, 1, 76, 0
1, 46968, Note_off_c, 1, 49, 0
1, 46980, Note_on_c, 1, 74, 127
1, 46980, Note_on_c, 1, 45, 127
1, 47028, Note_off_c, 1, 74, 0
1, 47028, Note_off_c, 1, 45, 0
1, 47040, Note_on_c, 1, 73, 127
1, 47040, Note_on_c, 1, 47, 127
1, 47088, Note_off_c, 1, 73, 0
1, 47088, Note_off_c, 1, 47, 0
1, 47100, Note_on_c, 1, 71, 127
1, 47100, Note_on_c, 1, 49, 127
1, 47148, Note_off_c, 1, 71, 0
1, 47148, Note_off_c, 1, 49, 0
1, 47160, Note_on_c, 1, 69, 127
1, 47160, Note_on_c, 1, 50, 127
1, 47208, Note_off_c, 1, 69, 0
1, 47208, Note_off_c, 1, 50, 0
1, 47220, Note_on_c, 1, 67, 127
1, 47220, Note_on_c, 1, 52, 127
1, 47268, Note_off_c, 1, 67, 0
1, 47268, Note_off_c, 1, 52, 0
1, 47280, Note_on_c, 1, 66, 127
1, 47280, Note_on_c, 1, 50, 127
1, 47328, Note_off_c, 1, 66, 0
1, 47328, Note_off_c, 1, 50, 0
1, 47340, Note_on_c, 1, 64, 127
1, 47340, Note_on_c, 1, 52, 127
1, 47388, Note_off_c, 1, 64, 0
1, 47388, Note_off_c, 1, 52, 0
1, 47400, Note_on_c, 1, 62, 127
1, 47400, Note_on_c, 1, 54, 127
1, 47424, Note_off_c, 1, 54, 0
1, 47430, Note_on_c, 1, 52, 127
1, 47448, Note_off_c, 1, 62, 0
1, 47454, Note_off_c, 1, 52, 0
1, 47460, Note_on_c, 1, 64, 127
1, 47460, Note_on_c, 1, 54, 127
1, 47484, Note_off_c, 1, 54, 0
1, 47490, Note_on_c, 1, 52, 127
1, 47508, Note_off_c, 1, 64, 0
1, 47514, Note_off_c, 1, 52, 0
1, 47520, Note_on_c, 1, 66, 127
1, 47520, Note_on_c, 1, 54, 127
1, 47544, Note_off_c, 1, 54, 0
1, 47550, Note_on_c, 1, 52, 127
1, 47568, Note_off_c, 1, 66, 0
1, 47579, Note_off_c, 1, 52, 0
1, 47580, Note_on_c, 1, 67, 127
1, 47580, Note_on_c, 1, 50, 127
1, 47604, Note_off_c, 1, 50, 0
1, 47610, Note_on_c, 1, 52, 127
1, 47628, Note_off_c, 1, 67, 0
1, 47634, Note_off_c, 1, 52, 0
1, 47640, Note_on_c, 1, 69, 127
1, 47640, Note_on_c, 1, 54, 127
1, 47688, Note_off_c, 1, 69, 0
1, 47700, Note_on_c, 1, 62, 127
1, 47748, Note_off_c, 1, 62, 0
1, 47760, Note_on_c, 1, 74, 127
1, 47784, Note_off_c, 1, 54, 0
1, 47820, Note_on_c, 1, 50, 127
1, 47868, Note_off_c, 1, 50, 0
1, 47880, Note_on_c, 1, 47, 127
1, 47928, Note_off_c, 1, 47, 0
1, 48000, Note_on_c, 1, 44, 127
1, 48048, Note_off_c, 1, 74, 0
1, 48060, Note_on_c, 1, 71, 127
1, 48108, Note_off_c, 1, 71, 0
1, 48120, Note_on_c, 1, 68, 127
1, 48144, Note_off_c, 1, 44, 0
1, 48168, Note_off_c, 1, 68, 0
1, 48180, Note_on_c, 1, 71, 127
1, 48180, Note_on_c, 1, 52, 127
1, 48228, Note_off_c, 1, 71, 0
1, 48228, Note_off_c, 1, 52, 0
1, 48240, Note_on_c, 1, 64, 127
1, 48240, Note_on_c, 1, 56, 127
1, 48288, Note_off_c, 1, 56, 0
1, 48300, Note_on_c, 1, 52, 127
1, 48336, Note_off_c, 1, 64, 0
1, 48348, Note_off_c, 1, 52, 0
1, 48360, Note_on_c, 1, 64, 127
1, 48360, Note_on_c, 1, 57, 127
1, 48408, Note_off_c, 1, 64, 0
1, 48420, Note_on_c, 1, 69, 127
1, 48468, Note_off_c, 1, 69, 0
1, 48480, Note_on_c, 1, 73, 127
1, 48504, Note_off_c, 1, 57, 0
1, 48540, Note_on_c, 1, 52, 127
1, 48588, Note_off_c, 1, 52, 0
1, 48600, Note_on_c, 1, 45, 127
1, 48648, Note_off_c, 1, 45, 0
1, 48660, Note_on_c, 1, 49, 127
1, 48708, Note_off_c, 1, 49, 0
1, 48720, Note_on_c, 1, 38, 127
1, 48768, Note_off_c, 1, 73, 0
1, 48840, Note_on_c, 1, 66, 127
1, 48864, Note_off_c, 1, 38, 0
1, 48888, Note_off_c, 1, 66, 0
1, 48900, Note_on_c, 1, 69, 127
1, 48900, Note_on_c, 1, 42, 127
1, 48948, Note_off_c, 1, 69, 0
1, 48948, Note_off_c, 1, 42, 0
1, 48960, Note_on_c, 1, 62, 127
1, 48960, Note_on_c, 1, 44, 127
1, 49008, Note_off_c, 1, 62, 0
1, 49020, Note_on_c, 1, 73, 127
1, 49068, Note_off_c, 1, 73, 0
1, 49080, Note_on_c, 1, 71, 127
1, 49128, Note_off_c, 1, 44, 0
1, 49128, Note_off_c, 1, 71, 0
1, 49140, Note_on_c, 1, 68, 127
1, 49140, Note_on_c, 1, 47, 127
1, 49188, Note_off_c, 1, 68, 0
1, 49188, Note_off_c, 1, 47, 0
1, 49200, Note_on_c, 1, 64, 127
1, 49200, Note_on_c, 1, 49, 127
1, 49248, Note_off_c, 1, 64, 0
1, 49260, Note_on_c, 1, 68, 127
1, 49308, Note_off_c, 1, 68, 0
1, 49320, Note_on_c, 1, 61, 127
1, 49344, Note_off_c, 1, 49, 0
1, 49368, Note_off_c, 1, 61, 0
1, 49380, Note_on_c, 1, 71, 127
1, 49380, Note_on_c, 1, 52, 127
1, 49428, Note_off_c, 1, 71, 0
1, 49428, Note_off_c, 1, 52, 0
1, 49440, Note_on_c, 1, 69, 127
1, 49440, Note_on_c, 1, 54, 127
1, 49488, Note_off_c, 1, 69, 0
1, 49488, Note_off_c, 1, 54, 0
1, 49500, Note_on_c, 1, 66, 127
1, 49500, Note_on_c, 1, 57, 127
1, 49548, Note_off_c, 1, 66, 0
1, 49548, Note_off_c, 1, 57, 0
1, 49560, Note_on_c, 1, 62, 127
1, 49560, Note_on_c, 1, 59, 127
1, 49608, Note_off_c, 1, 62, 0
1, 49608, Note_off_c, 1, 59, 0
1, 49620, Note_on_c, 1, 66, 127
1, 49620, Note_on_c, 1, 57, 127
1, 49668, Note_off_c, 1, 66, 0
1, 49668, Note_off_c, 1, 57, 0
1, 49680, Note_on_c, 1, 59, 127
1, 49680, Note_on_c, 1, 54, 127
1, 49728, Note_off_c, 1, 59, 0
1, 49728, Note_off_c, 1, 54, 0
1, 49740, Note_on_c, 1, 69, 127
1, 49740, Note_on_c, 1, 47, 127
1, 49788, Note_off_c, 1, 69, 0
1, 49788, Note_off_c, 1, 47, 0
1, 49800, Note_on_c, 1, 68, 127
1, 49800, Note_on_c, 1, 52, 127
1, 49848, Note_off_c, 1, 68, 0
1, 49848, Note_off_c, 1, 52, 0
1, 49860, Note_on_c, 1, 64, 127
1, 49860, Note_on_c, 1, 57, 127
1, 49908, Note_off_c, 1, 64, 0
1, 49908, Note_off_c, 1, 57, 0
1, 49920, Note_on_c, 1, 66, 127
1, 49920, Note_on_c, 1, 56, 127
1, 49968, Note_off_c, 1, 66, 0
1, 49968, Note_off_c, 1, 56, 0
1, 49980, Note_on_c, 1, 68, 127
1, 49980, Note_on_c, 1, 54, 127
1, 50028, Note_off_c, 1, 68, 0
1, 50028, Note_off_c, 1, 54, 0
1, 50040, Note_on_c, 1, 69, 127
1, 50040, Note_on_c, 1, 52, 127
1, 50088, Note_off_c, 1, 69, 0
1, 50088, Note_off_c, 1, 52, 0
1, 50100, Note_on_c, 1, 71, 127
1, 50100, Note_on_c, 1, 50, 127
1, 50148, Note_off_c, 1, 71, 0
1, 50148, Note_off_c, 1, 50, 0
1, 50160, Note_on_c, 1, 69, 127
1, 50160, Note_on_c, 1, 49, 127
1, 50208, Note_off_c, 1, 69, 0
1, 50208, Note_off_c, 1, 49, 0
1, 50220, Note_on_c, 1, 71, 127
1, 50220, Note_on_c, 1, 50, 127
1, 50268, Note_off_c, 1, 71, 0
1, 50268, Note_off_c, 1, 50, 0
1, 50280, Note_on_c, 1, 73, 127
1, 50280, Note_on_c, 1, 52, 127
1, 50304, Note_off_c, 1, 73, 0
1, 50310, Note_on_c, 1, 71, 127
1, 50328, Note_off_c, 1, 52, 0
1, 50334, Note_off_c, 1, 71, 0
1, 50340, Note_on_c, 1, 73, 127
1, 50340, Note_on_c, 1, 50, 127
1, 50364, Note_off_c, 1, 73, 0
1, 50370, Note_on_c, 1, 71, 127
1, 50388, Note_off_c, 1, 50, 0
1, 50394, Note_off_c, 1, 71, 0
1, 50400, Note_on_c, 1, 73, 127
1, 50400, Note_on_c, 1, 49, 127
1, 50424, Note_off_c, 1, 73, 0
1, 50430, Note_on_c, 1, 71, 127
1, 50448, Note_off_c, 1, 49, 0
1, 50459, Note_off_c, 1, 71, 0
1, 50460, Note_on_c, 1, 69, 127
1, 50460, Note_on_c, 1, 47, 127
1, 50484, Note_off_c, 1, 69, 0
1, 50490, Note_on_c, 1, 71, 127
1, 50508, Note_off_c, 1, 47, 0
1, 50514, Note_off_c, 1, 71, 0
1, 50520, Note_on_c, 1, 73, 127
1, 50520, Note_on_c, 1, 45, 127
1, 50568, Note_off_c, 1, 73, 0
1, 50568, Note_off_c, 1, 45, 0
1, 50580, Note_on_c, 1, 69, 127
1, 50580, Note_on_c, 1, 50, 127
1, 50628, Note_off_c, 1, 69, 0
1, 50628, Note_off_c, 1, 50, 0
1, 50640, Note_on_c, 1, 71, 127
1, 50640, Note_on_c, 1, 49, 127
1, 50688, Note_off_c, 1, 71, 0
1, 50688, Note_off_c, 1, 49, 0
1, 50700, Note_on_c, 1, 73, 127
1, 50700, Note_on_c, 1, 47, 127
1, 50748, Note_off_c, 1, 73, 0
1, 50748, Note_off_c, 1, 47, 0
1, 50760, Note_on_c, 1, 74, 127
1, 50760, Note_on_c, 1, 45, 127
1, 50808, Note_off_c, 1, 74, 0
1, 50808, Note_off_c, 1, 45, 0
1, 50820, Note_on_c, 1, 76, 127
1, 50820, Note_on_c, 1, 43, 127
1, 50868, Note_off_c, 1, 76, 0
1, 50868, Note_off_c, 1, 43, 0
1, 50880, Note_on_c, 1, 74, 127
1, 50880, Note_on_c, 1, 42, 127
1, 50928, Note_off_c, 1, 74, 0
1, 50928, Note_off_c, 1, 42, 0
1, 50940, Note_on_c, 1, 76, 127
1, 50940, Note_on_c, 1, 43, 127
1, 50988, Note_off_c, 1, 76, 0
1, 50988, Note_off_c, 1, 43, 0
1, 51000, Note_on_c, 1, 78, 127
1, 51000, Note_on_c, 1, 45, 127
1, 51024, Note_off_c, 1, 78, 0
1, 51030, Note_on_c, 1, 76, 127
1, 51048, Note_off_c, 1, 45, 0
1, 51054, Note_off_c, 1, 76, 0
1, 51060, Note_on_c, 1, 78, 127
1, 51060, Note_on_c, 1, 43, 127
1, 51084, Note_off_c, 1, 78, 0
1, 51090, Note_on_c, 1, 76, 127
1, 51108, Note_off_c, 1, 43, 0
1, 51114, Note_off_c, 1, 76, 0
1, 51120, Note_on_c, 1, 78, 127
1, 51120, Note_on_c, 1, 42, 127
1, 51144, Note_off_c, 1, 78, 0
1, 51150, Note_on_c, 1, 76, 127
1, 51168, Note_off_c, 1, 42, 0
1, 51179, Note_off_c, 1, 76, 0
1, 51180, Note_on_c, 1, 74, 127
1, 51180, Note_on_c, 1, 40, 127
1, 51204, Note_off_c, 1, 74, 0
1, 51210, Note_on_c, 1, 76, 127
1, 51228, Note_off_c, 1, 40, 0
1, 51234, Note_off_c, 1, 76, 0
1, 51240, Note_on_c, 1, 78, 127
1, 51240, Note_on_c, 1, 38, 127
1, 51288, Note_off_c, 1, 78, 0
1, 51288, Note_off_c, 1, 38, 0
1, 51300, Note_on_c, 1, 74, 127
1, 51300, Note_on_c, 1, 42, 127
1, 51348, Note_off_c, 1, 74, 0
1, 51348, Note_off_c, 1, 42, 0
1, 51360, Note_on_c, 1, 76, 127
1, 51360, Note_on_c, 1, 43, 127
1, 51408, Note_off_c, 1, 76, 0
1, 51408, Note_off_c, 1, 43, 0
1, 51420, Note_on_c, 1, 78, 127
1, 51420, Note_on_c, 1, 45, 127
1, 51468, Note_off_c, 1, 78, 0
1, 51468, Note_off_c, 1, 45, 0
1, 51480, Note_on_c, 1, 79, 127
1, 51480, Note_on_c, 1, 47, 127
1, 51528, Note_off_c, 1, 79, 0
1, 51528, Note_off_c, 1, 47, 0
1, 51540, Note_on_c, 1, 81, 127
1, 51540, Note_on_c, 1, 49, 127
1, 51588, Note_off_c, 1, 81, 0
1, 51588, Note_off_c, 1, 49, 0
1, 51600, Note_on_c, 1, 80, 127
1, 51600, Note_on_c, 1, 50, 127
1, 51648, Note_off_c, 1, 80, 0
1, 51648, Note_off_c, 1, 50, 0
1, 51660, Note_on_c, 1, 81, 127
1, 51660, Note_on_c, 1, 52, 127
1, 51708, Note_off_c, 1, 81, 0
1, 51708, Note_off_c, 1, 52, 0
1, 51720, Note_on_c, 1, 83, 127
1, 51720, Note_on_c, 1, 50, 127
1, 51744, Note_off_c, 1, 83, 0
1, 51750, Note_on_c, 1, 81, 127
1, 51768, Note_off_c, 1, 50, 0
1, 51774, Note_off_c, 1, 81, 0
1, 51780, Note_on_c, 1, 83, 127
1, 51780, Note_on_c, 1, 49, 127
1, 51804, Note_off_c, 1, 83, 0
1, 51810, Note_on_c, 1, 81, 127
1, 51828, Note_off_c, 1, 49, 0
1, 51834, Note_off_c, 1, 81, 0
1, 51840, Note_on_c, 1, 83, 127
1, 51840, Note_on_c, 1, 47, 127
1, 51864, Note_off_c, 1, 83, 0
1, 51870, Note_on_c, 1, 81, 127
1, 51888, Note_off_c, 1, 47, 0
1, 51899, Note_off_c, 1, 81, 0
1, 51900, Note_on_c, 1, 80, 127
1, 51900, Note_on_c, 1, 45, 127
1, 51924, Note_off_c, 1, 80, 0
1, 51930, Note_on_c, 1, 81, 127
1, 51948, Note_off_c, 1, 45, 0
1, 51954, Note_off_c, 1, 81, 0
1, 51960, Note_on_c, 1, 83, 127
1, 51960, Note_on_c, 1, 44, 127
1, 52008, Note_off_c, 1, 83, 0
1, 52008, Note_off_c, 1, 44, 0
1, 52020, Note_on_c, 1, 81, 127
1, 52020, Note_on_c, 1, 40, 127
1, 52068, Note_off_c, 1, 81, 0
1, 52068, Note_off_c, 1, 40, 0
1, 52080, Note_on_c, 1, 80, 127
1, 52080, Note_on_c, 1, 42, 127
1, 52128, Note_off_c, 1, 80, 0
1, 52128, Note_off_c, 1, 42, 0
1, 52140, Note_on_c, 1, 78, 127
1, 52140, Note_on_c, 1, 44, 127
1, 52188, Note_off_c, 1, 78, 0
1, 52188, Note_off_c, 1, 44, 0
1, 52200, Note_on_c, 1, 76, 127
1, 52200, Note_on_c, 1, 45, 127
1, 52248, Note_off_c, 1, 76, 0
1, 52248, Note_off_c, 1, 45, 0
1, 52260, Note_on_c, 1, 74, 127
1, 52260, Note_on_c, 1, 47, 127
1, 52308, Note_off_c, 1, 74, 0
1, 52308, Note_off_c, 1, 47, 0
1, 52320, Note_on_c, 1, 73, 127
1, 52320, Note_on_c, 1, 45, 127
1, 52368, Note_off_c, 1, 73, 0
1, 52368, Note_off_c, 1, 45, 0
1, 52380, Note_on_c, 1, 71, 127
1, 52380, Note_on_c, 1, 47, 127
1, 52428, Note_off_c, 1, 71, 0
1, 52428, Note_off_c, 1, 47, 0
1, 52440, Note_on_c, 1, 69, 127
1, 52440, Note_on_c, 1, 49, 127
1, 52464, Note_off_c, 1, 49, 0
1, 52470, Note_on_c, 1, 47, 127
1, 52488, Note_off_c, 1, 69, 0
1, 52494, Note_off_c, 1, 47, 0
1, 52500, Note_on_c, 1, 71, 127
1, 52500, Note_on_c, 1, 49, 127
1, 52524, Note_off_c, 1, 49, 0
1, 52530, Note_on_c, 1, 47, 127
1, 52548, Note_off_c, 1, 71, 0
1, 52554, Note_off_c, 1, 47, 0
1, 52560, Note_on_c, 1, 73, 127
1, 52560, Note_on_c, 1, 49, 127
1, 52584, Note_off_c, 1, 49, 0
1, 52590, Note_on_c, 1, 47, 127
1, 52608, Note_off_c, 1, 73, 0
1, 52619, Note_off_c, 1, 47, 0
1, 52620, Note_on_c, 1, 74, 127
1, 52620, Note_on_c, 1, 45, 127
1, 52644, Note_off_c, 1, 45, 0
1, 52650, Note_on_c, 1, 47, 127
1, 52668, Note_off_c, 1, 74, 0
1, 52674, Note_off_c, 1, 47, 0
1, 52680, Note_on_c, 1, 76, 127
1, 52680, Note_on_c, 1, 49, 127
1, 52728, Note_off_c, 1, 76, 0
1, 52728, Note_off_c, 1, 49, 0
1, 52740, Note_on_c, 1, 74, 127
1, 52740, Note_on_c, 1, 47, 127
1, 52788, Note_off_c, 1, 74, 0
1, 52788, Note_off_c, 1, 47, 0
1, 52800, Note_on_c, 1, 73, 127
1, 52800, Note_on_c, 1, 45, 127
1, 52848, Note_off_c, 1, 73, 0
1, 52848, Note_off_c, 1, 45, 0
1, 52860, Note_on_c, 1, 71, 127
1, 52860, Note_on_c, 1, 47, 127
1, 52908, Note_off_c, 1, 71, 0
1, 52908, Note_off_c, 1, 47, 0
1, 52920, Note_on_c, 1, 69, 127
1, 52920, Note_on_c, 1, 49, 127
1, 52968, Note_off_c, 1, 69, 0
1, 52968, Note_off_c, 1, 49, 0
1, 52980, Note_on_c, 1, 67, 127
1, 52980, Note_on_c, 1, 45, 127
1, 53028, Note_off_c, 1, 67, 0
1, 53028, Note_off_c, 1, 45, 0
1, 53040, Note_on_c, 1, 66, 127
1, 53040, Note_on_c, 1, 50, 127
1, 53088, Note_off_c, 1, 66, 0
1, 53088, Note_off_c, 1, 50, 0
1, 53100, Note_on_c, 1, 76, 127
1, 53100, Note_on_c, 1, 49, 127
1, 53148, Note_off_c, 1, 76, 0
1, 53148, Note_off_c, 1, 49, 0
1, 53160, Note_on_c, 1, 74, 127
1, 53160, Note_on_c, 1, 47, 127
1, 53208, Note_off_c, 1, 74, 0
1, 53208, Note_off_c, 1, 47, 0
1, 53220, Note_on_c, 1, 73, 127
1, 53220, Note_on_c, 1, 49, 127
1, 53268, Note_off_c, 1, 73, 0
1, 53268, Note_off_c, 1, 49, 0
1, 53280, Note_on_c, 1, 71, 127
1, 53280, Note_on_c, 1, 50, 127
1, 53328, Note_off_c, 1, 71, 0
1, 53328, Note_off_c, 1, 50, 0
1, 53340, Note_on_c, 1, 69, 127
1, 53340, Note_on_c, 1, 47, 127
1, 53388, Note_off_c, 1, 69, 0
1, 53388, Note_off_c, 1, 47, 0
1, 53400, Note_on_c, 1, 68, 127
1, 53400, Note_on_c, 1, 52, 127
1, 53448, Note_off_c, 1, 68, 0
1, 53448, Note_off_c, 1, 52, 0
1, 53460, Note_on_c, 1, 64, 127
1, 53460, Note_on_c, 1, 54, 127
1, 53508, Note_off_c, 1, 64, 0
1, 53508, Note_off_c, 1, 54, 0
1, 53520, Note_on_c, 1, 66, 127
1, 53520, Note_on_c, 1, 52, 127
1, 53568, Note_off_c, 1, 66, 0
1, 53568, Note_off_c, 1, 52, 0
1, 53580, Note_on_c, 1, 68, 127
1, 53580, Note_on_c, 1, 50, 127
1, 53628, Note_off_c, 1, 68, 0
1, 53628, Note_off_c, 1, 50, 0
1, 53640, Note_on_c, 1, 69, 127
1, 53640, Note_on_c, 1, 49, 127
1, 53688, Note_off_c, 1, 69, 0
1, 53688, Note_off_c, 1, 49, 0
1, 53700, Note_on_c, 1, 68, 127
1, 53700, Note_on_c, 1, 47, 127
1, 53748, Note_off_c, 1, 68, 0
1, 53748, Note_off_c, 1, 47, 0
1, 53760, Note_on_c, 1, 69, 127
1, 53760, Note_on_c, 1, 49, 127
1, 53808, Note_off_c, 1, 69, 0
1, 53808, Note_off_c, 1, 49, 0
1, 53820, Note_on_c, 1, 71, 127
1, 53820, Note_on_c, 1, 50, 127
1, 53868, Note_off_c, 1, 71, 0
1, 53868, Note_off_c, 1, 50, 0
1, 53880, Note_on_c, 1, 69, 127
1, 53880, Note_on_c, 1, 52, 127
1, 53904, Note_off_c, 1, 69, 0
1, 53910, Note_on_c, 1, 68, 127
1, 53934, Note_off_c, 1, 68, 0
1, 53970, Note_off_c, 1, 52, 0
1, 54000, Note_on_c, 1, 69, 127
1, 54000, Note_on_c, 1, 40, 127
1, 54024, Note_off_c, 1, 69, 0
1, 54030, Note_on_c, 1, 68, 127
1, 54059, Note_off_c, 1, 68, 0
1, 54060, Note_on_c, 1, 66, 127
1, 54084, Note_off_c, 1, 66, 0
1, 54090, Note_off_c, 1, 40, 0
1, 54120, Note_on_c, 1, 69, 127
1, 54120, Note_on_c, 1, 45, 127
1, 54168, Note_off_c, 1, 69, 0
1, 54180, Note_on_c, 1, 71, 127
1, 54216, Note_off_c, 1, 45, 0
1, 54228, Note_off_c, 1, 71, 0
1, 54240, Note_on_c, 1, 73, 127
1, 54240, Note_on_c, 1, 57, 127
1, 54288, Note_off_c, 1, 73, 0
1, 54288, Note_off_c, 1, 57, 0
1, 54300, Note_on_c, 1, 74, 127
1, 54300, Note_on_c, 1, 56, 127
1, 54348, Note_off_c, 1, 74, 0
1, 54348, Note_off_c, 1, 56, 0
1, 54360, Note_on_c, 1, 76, 127
1, 54360, Note_on_c, 1, 54, 127
1, 54408, Note_off_c, 1, 76, 0
1, 54408, Note_off_c, 1, 54, 0
1, 54420, Note_on_c, 1, 73, 127
1, 54420, Note_on_c, 1, 52, 127
1, 54468, Note_off_c, 1, 73, 0
1, 54468, Note_off_c, 1, 52, 0
1, 54480, Note_on_c, 1, 78, 127
1, 54480, Note_on_c, 1, 50, 127
1, 54528, Note_off_c, 1, 78, 0
1, 54540, Note_on_c, 1, 76, 127
1, 54570, Note_off_c, 1, 50, 0
1, 54588, Note_off_c, 1, 76, 0
1, 54600, Note_on_c, 1, 74, 127
1, 54600, Note_on_c, 1, 52, 127
1, 54624, Note_off_c, 1, 52, 0
1, 54630, Note_on_c, 1, 50, 127
1, 54648, Note_off_c, 1, 74, 0
1, 54654, Note_off_c, 1, 50, 0
1, 54660, Note_on_c, 1, 73, 127
1, 54660, Note_on_c, 1, 52, 127
1, 54684, Note_off_c, 1, 52, 0
1, 54690, Note_on_c, 1, 50, 127
1, 54708, Note_off_c, 1, 73, 0
1, 54714, Note_off_c, 1, 50, 0
1, 54720, Note_on_c, 1, 71, 127
1, 54720, Note_on_c, 1, 52, 127
1, 54744, Note_off_c, 1, 52, 0
1, 54750, Note_on_c, 1, 50, 127
1, 54768, Note_off_c, 1, 71, 0
1, 54779, Note_off_c, 1, 50, 0
1, 54780, Note_on_c, 1, 69, 127
1, 54780, Note_on_c, 1, 49, 127
1, 54804, Note_off_c, 1, 49, 0
1, 54810, Note_on_c, 1, 50, 127
1, 54828, Note_off_c, 1, 69, 0
1, 54834, Note_off_c, 1, 50, 0
1, 54840, Note_on_c, 1, 68, 127
1, 54840, Note_on_c, 1, 52, 127
1, 54888, Note_off_c, 1, 68, 0
1, 54888, Note_off_c, 1, 52, 0
1, 54900, Note_on_c, 1, 69, 127
1, 54900, Note_on_c, 1, 54, 127
1, 54948, Note_off_c, 1, 69, 0
1, 54948, Note_off_c, 1, 54, 0
1, 54960, Note_on_c, 1, 71, 127
1, 54960, Note_on_c, 1, 56, 127
1, 55008, Note_off_c, 1, 71, 0
1, 55008, Note_off_c, 1, 56, 0
1, 55020, Note_on_c, 1, 73, 127
1, 55020, Note_on_c, 1, 54, 127
1, 55068, Note_off_c, 1, 73, 0
1, 55068, Note_off_c, 1, 54, 0
1, 55080, Note_on_c, 1, 74, 127
1, 55080, Note_on_c, 1, 52, 127
1, 55128, Note_off_c, 1, 74, 0
1, 55128, Note_off_c, 1, 52, 0
1, 55140, Note_on_c, 1, 71, 127
1, 55140, Note_on_c, 1, 50, 127
1, 55188, Note_off_c, 1, 71, 0
1, 55188, Note_off_c, 1, 50, 0
1, 55200, Note_on_c, 1, 76, 127
1, 55200, Note_on_c, 1, 49, 127
1, 55248, Note_off_c, 1, 76, 0
1, 55260, Note_on_c, 1, 74, 127
1, 55290, Note_off_c, 1, 49, 0
1, 55308, Note_off_c, 1, 74, 0
1, 55320, Note_on_c, 1, 73, 127
1, 55320, Note_on_c, 1, 50, 127
1, 55344, Note_off_c, 1, 50, 0
1, 55350, Note_on_c, 1, 49, 127
1, 55368, Note_off_c, 1, 73, 0
1, 55374, Note_off_c, 1, 49, 0
1, 55380, Note_on_c, 1, 71, 127
1, 55380, Note_on_c, 1, 50, 127
1, 55404, Note_off_c, 1, 50, 0
1, 55410, Note_on_c, 1, 49, 127
1, 55428, Note_off_c, 1, 71, 0
1, 55434, Note_off_c, 1, 49, 0
1, 55440, Note_on_c, 1, 69, 127
1, 55440, Note_on_c, 1, 50, 127
1, 55464, Note_off_c, 1, 50, 0
1, 55470, Note_on_c, 1, 49, 127
1, 55488, Note_off_c, 1, 69, 0
1, 55499, Note_off_c, 1, 49, 0
1, 55500, Note_on_c, 1, 68, 127
1, 55500, Note_on_c, 1, 47, 127
1, 55524, Note_off_c, 1, 47, 0
1, 55530, Note_on_c, 1, 49, 127
1, 55548, Note_off_c, 1, 68, 0
1, 55554, Note_off_c, 1, 49, 0
1, 55560, Note_on_c, 1, 66, 127
1, 55560, Note_on_c, 1, 50, 127
1, 55608, Note_off_c, 1, 66, 0
1, 55608, Note_off_c, 1, 50, 0
1, 55620, Note_on_c, 1, 68, 127
1, 55620, Note_on_c, 1, 52, 127
1, 55668, Note_off_c, 1, 68, 0
1, 55668, Note_off_c, 1, 52, 0
1, 55680, Note_on_c, 1, 69, 127
1, 55680, Note_on_c, 1, 54, 127
1, 55728, Note_off_c, 1, 69, 0
1, 55728, Note_off_c, 1, 54, 0
1, 55740, Note_on_c, 1, 71, 127
1, 55740, Note_on_c, 1, 52, 127
1, 55788, Note_off_c, 1, 71, 0
1, 55788, Note_off_c, 1, 52, 0
1, 55800, Note_on_c, 1, 73, 127
1, 55800, Note_on_c, 1, 50, 127
1, 55848, Note_off_c, 1, 73, 0
1, 55848, Note_off_c, 1, 50, 0
1, 55860, Note_on_c, 1, 69, 127
1, 55860, Note_on_c, 1, 49, 127
1, 55908, Note_off_c, 1, 69, 0
1, 55908, Note_off_c, 1, 49, 0
1, 55920, Note_on_c, 1, 74, 127
1, 55920, Note_on_c, 1, 47, 127
1, 55968, Note_off_c, 1, 74, 0
1, 55968, Note_off_c, 1, 47, 0
1, 55980, Note_on_c, 1, 73, 127
1, 55980, Note_on_c, 1, 49, 127
1, 56028, Note_off_c, 1, 73, 0
1, 56028, Note_off_c, 1, 49, 0
1, 56040, Note_on_c, 1, 71, 127
1, 56040, Note_on_c, 1, 50, 127
1, 56088, Note_off_c, 1, 71, 0
1, 56088, Note_off_c, 1, 50, 0
1, 56100, Note_on_c, 1, 69, 127
1, 56100, Note_on_c, 1, 49, 127
1, 56148, Note_off_c, 1, 69, 0
1, 56148, Note_off_c, 1, 49, 0
1, 56160, Note_on_c, 1, 68, 127
1, 56160, Note_on_c, 1, 47, 127
1, 56208, Note_off_c, 1, 68, 0
1, 56208, Note_off_c, 1, 47, 0
1, 56220, Note_on_c, 1, 66, 127
1, 56220, Note_on_c, 1, 45, 127
1, 56268, Note_off_c, 1, 66, 0
1, 56268, Note_off_c, 1, 45, 0
1, 56280, Note_on_c, 1, 64, 127
1, 56280, Note_on_c, 1, 44, 127
1, 56328, Note_off_c, 1, 64, 0
1, 56340, Note_on_c, 1, 74, 127
1, 56370, Note_off_c, 1, 44, 0
1, 56388, Note_off_c, 1, 74, 0
1, 56400, Note_on_c, 1, 73, 127
1, 56400, Note_on_c, 1, 52, 127
1, 56448, Note_off_c, 1, 73, 0
1, 56460, Note_on_c, 1, 71, 127
1, 56490, Note_off_c, 1, 52, 0
1, 56508, Note_off_c, 1, 71, 0
1, 56520, Note_on_c, 1, 69, 127
1, 56520, Note_on_c, 1, 54, 127
1, 56568, Note_off_c, 1, 69, 0
1, 56580, Note_on_c, 1, 68, 127
1, 56610, Note_off_c, 1, 54, 0
1, 56628, Note_off_c, 1, 68, 0
1, 56640, Note_on_c, 1, 69, 127
1, 56640, Note_on_c, 1, 50, 127
1, 56688, Note_off_c, 1, 69, 0
1, 56700, Note_on_c, 1, 71, 127
1, 56730, Note_off_c, 1, 50, 0
1, 56748, Note_off_c, 1, 71, 0
1, 56760, Note_on_c, 1, 71, 127
1, 56760, Note_on_c, 1, 52, 127
1, 56772, Note_off_c, 1, 71, 0
1, 56775, Note_on_c, 1, 73, 127
1, 56787, Note_off_c, 1, 73, 0
1, 56850, Note_off_c, 1, 52, 0
1, 56865, Note_on_c, 1, 73, 127
1, 56877, Note_off_c, 1, 73, 0
1, 56880, Note_on_c, 1, 71, 127
1, 56880, Note_on_c, 1, 40, 127
1, 56892, Note_off_c, 1, 71, 0
1, 56895, Note_on_c, 1, 73, 127
1, 56907, Note_off_c, 1, 73, 0
1, 56940, Note_on_c, 1, 69, 127
1, 56970, Note_off_c, 1, 40, 0
1, 56988, Note_off_c, 1, 69, 0
1, 57000, Note_on_c, 1, 69, 127
1, 57000, Note_on_c, 1, 33, 127
1, 57120, Note_on_c, 1, 37, 127
1, 57216, Note_off_c, 1, 37, 0
1, 57240, Note_on_c, 1, 40, 127
1, 57336, Note_off_c, 1, 40, 0
1, 57360, Note_on_c, 1, 45, 127
1, 57552, Note_off_c, 1, 69, 0
1, 57552, Note_off_c, 1, 33, 0
1, 57552, Note_off_c, 1, 45, 0
1, 57552, End_track
0, 0, End_of_file