0, 0, Header, 1, 1, 480
1, 0, Start_track
1, 0, Title_t, "Test"
1, 0, Tempo, 500000
1, 0, Instrument_name_t, "Church Organ"
1, 0, Note_on_c, 1, 60, 127
1, 96, Note_off_c, 1, 60, 0
1, 120, Note_on_c, 1, 65, 127
1, 216, Note_off_c, 1, 65, 0
1, 240, Note_on_c, 1, 60, 127
1, 336, Note_off_c, 1, 60, 0
1, 360, Note_on_c, 1, 65, 127
1, 456, Note_off_c, 1, 65, 0
1, 480, Note_on_c, 1, 69, 127
1, 576, Note_off_c, 1, 69, 0
1, 600, Note_on_c, 1, 65, 127
1, 696, Note_off_c, 1, 65, 0
1, 720, Note_on_c, 1, 69, 127
1, 720, Note_on_c, 1, 48, 127
1, 816, Note_off_c, 1, 69, 0
1, 816, Note_off_c, 1, 48, 0
1, 840, Note_on_c, 1, 72, 127
1, 840, Note_on_c, 1, 53, 127
1, 936, Note_off_c, 1, 53, 0
1, 960, Note_on_c, 1, 48, 127
1, 1032, Note_off_c, 1, 72, 0
1, 1056, Note_off_c, 1, 48, 0
1, 1080, Note_on_c, 1, 65, 127
1, 1080, Note_on_c, 1, 53, 127
1, 1176, Note_off_c, 1, 65, 0
1, 1176, Note_off_c, 1, 53, 0
1, 1200, Note_on_c, 1, 77, 127
1, 1200, Note_on_c, 1, 57, 127
1, 1296, Note_off_c, 1, 57, 0
1, 1320, Note_on_c, 1, 53, 127
1, 1416, Note_off_c, 1, 53, 0
1, 1560, Note_on_c, 1, 60, 127
1, 1656, Note_off_c, 1, 77, 0
1, 1680, Note_on_c, 1, 76, 127
1, 1776, Note_off_c, 1, 76, 0
1, 1800, Note_on_c, 1, 74, 127
1, 1848, Note_off_c, 1, 60, 0
1, 1896, Note_off_c, 1, 74, 0
1, 1920, Note_on_c, 1, 72, 127
1, 1920, Note_on_c, 1, 48, 127
1, 2016, Note_off_c, 1, 72, 0
1, 2040, Note_on_c, 1, 74, 127
1, 2136, Note_off_c, 1, 74, 0
1, 2160, Note_on_c, 1, 70, 127
1, 2208, Note_off_c, 1, 48, 0
1, 2256, Note_off_c, 1, 70, 0
1, 2280, Note_on_c, 1, 69, 127
1, 2280, Note_on_c, 1, 53, 127
1, 2376, Note_off_c, 1, 69, 0
1, 2400, Note_on_c, 1, 72, 127
1, 2472, Note_off_c, 1, 53, 0
1, 2496, Note_off_c, 1, 72, 0
1, 2520, Note_on_c, 1, 77, 127
1, 2520, Note_on_c, 1, 52, 127
1, 2616, Note_off_c, 1, 77, 0
1, 2616, Note_off_c, 1, 52, 0
1, 2640, Note_on_c, 1, 71, 127
1, 2640, Note_on_c, 1, 50, 127
1, 2736, Note_off_c, 1, 71, 0
1, 2760, Note_on_c, 1, 74, 127
1, 2832, Note_off_c, 1, 50, 0
1, 2856, Note_off_c, 1, 74, 0
1, 2880, Note_on_c, 1, 77, 127
1, 2880, Note_on_c, 1, 55, 127
1, 2976, Note_off_c, 1, 77, 0
1, 2976, Note_off_c, 1, 55, 0
1, 3000, Note_on_c, 1, 76, 127
1, 3000, Note_on_c, 1, 60, 127
1, 3096, Note_off_c, 1, 76, 0
1, 3096, Note_off_c, 1, 60, 0
1, 3120, Note_on_c, 1, 79, 127
1, 3120, Note_on_c, 1, 55, 127
1, 3216, Note_off_c, 1, 79, 0
1, 3216, Note_off_c, 1, 55, 0
1, 3240, Note_on_c, 1, 76, 127
1, 3240, Note_on_c, 1, 60, 127
1, 3336, Note_off_c, 1, 76, 0
1, 3336, Note_off_c, 1, 60, 0
1, 3360, Note_on_c, 1, 72, 127
1, 3360, Note_on_c, 1, 64, 127
1, 3456, Note_off_c, 1, 72, 0
1, 3456, Note_off_c, 1, 64, 0
1, 3480, Note_on_c, 1, 76, 127
1, 3480, Note_on_c, 1, 60, 127
1, 3576, Note_off_c, 1, 76, 0
1, 3576, Note_off_c, 1, 60, 0
1, 3600, Note_on_c, 1, 64, 127
1, 3600, Note_on_c, 1, 72, 127
1, 3696, Note_off_c, 1, 64, 0
1, 3696, Note_off_c, 1, 72, 0
1, 3720, Note_on_c, 1, 71, 127
1, 3720, Note_on_c, 1, 67, 127
1, 3816, Note_off_c, 1, 71, 0
1, 3840, Note_on_c, 1, 72, 127
1, 3912, Note_off_c, 1, 67, 0
1, 3936, Note_off_c, 1, 72, 0
1, 3960, Note_on_c, 1, 60, 127
1, 3960, Note_on_c, 1, 74, 127
1, 4056, Note_off_c, 1, 60, 0
1, 4056, Note_off_c, 1, 74, 0
1, 4080, Note_on_c, 1, 76, 127
1, 4080, Note_on_c, 1, 72, 127
1, 4176, Note_off_c, 1, 76, 0
1, 4200, Note_on_c, 1, 77, 127
1, 4296, Note_off_c, 1, 77, 0
1, 4320, Note_on_c, 1, 79, 127
1, 4416, Note_off_c, 1, 79, 0
1, 4440, Note_on_c, 1, 81, 127
1, 4536, Note_off_c, 1, 72, 0
1, 4536, Note_off_c, 1, 81, 0
1, 4560, Note_on_c, 1, 71, 127
1, 4560, Note_on_c, 1, 83, 127
1, 4656, Note_off_c, 1, 71, 0
1, 4656, Note_off_c, 1, 83, 0
1, 4680, Note_on_c, 1, 69, 127
1, 4680, Note_on_c, 1, 84, 127
1, 4776, Note_off_c, 1, 69, 0
1, 4776, Note_off_c, 1, 84, 0
1, 4800, Note_on_c, 1, 67, 127
1, 4800, Note_on_c, 1, 74, 127
1, 4896, Note_off_c, 1, 67, 0
1, 4896, Note_off_c, 1, 74, 0
1, 4920, Note_on_c, 1, 69, 127
1, 4920, Note_on_c, 1, 84, 127
1, 5016, Note_off_c, 1, 69, 0
1, 5016, Note_off_c, 1, 84, 0
1, 5040, Note_on_c, 1, 83, 127
1, 5040, Note_on_c, 1, 65, 127
1, 5136, Note_off_c, 1, 83, 0
1, 5136, Note_off_c, 1, 65, 0
1, 5160, Note_on_c, 1, 64, 127
1, 5160, Note_on_c, 1, 84, 127
1, 5256, Note_off_c, 1, 64, 0
1, 5280, Note_on_c, 1, 67, 127
1, 5376, Note_off_c, 1, 67, 0
1, 5400, Note_on_c, 1, 72, 127
1, 5448, Note_off_c, 1, 84, 0
1, 5496, Note_off_c, 1, 72, 0
1, 5520, Note_on_c, 1, 66, 127
1, 5616, Note_off_c, 1, 66, 0
1, 5640, Note_on_c, 1, 69, 127
1, 5736, Note_off_c, 1, 69, 0
1, 5760, Note_on_c, 1, 72, 127
1, 5760, Note_on_c, 1, 81, 127
1, 5856, Note_off_c, 1, 72, 0
1, 5856, Note_off_c, 1, 81, 0
1, 5880, Note_on_c, 1, 70, 127
1, 5880, Note_on_c, 1, 67, 127
1, 5976, Note_off_c, 1, 70, 0
1, 6000, Note_on_c, 1, 74, 127
1, 6096, Note_off_c, 1, 74, 0
1, 6120, Note_on_c, 1, 81, 127
1, 6168, Note_off_c, 1, 67, 0
1, 6216, Note_off_c, 1, 81, 0
1, 6240, Note_on_c, 1, 79, 127
1, 6336, Note_off_c, 1, 79, 0
1, 6360, Note_on_c, 1, 78, 127
1, 6456, Note_off_c, 1, 78, 0
1, 6480, Note_on_c, 1, 79, 127
1, 6480, Note_on_c, 1, 67, 127
1, 6576, Note_off_c, 1, 79, 0
1, 6576, Note_off_c, 1, 67, 0
1, 6600, Note_on_c, 1, 62, 127
1, 6696, Note_off_c, 1, 62, 0
1, 6720, Note_on_c, 1, 65, 127
1, 6816, Note_off_c, 1, 65, 0
1, 6840, Note_on_c, 1, 70, 127
1, 6936, Note_off_c, 1, 70, 0
1, 6960, Note_on_c, 1, 64, 127
1, 7056, Note_off_c, 1, 64, 0
1, 7080, Note_on_c, 1, 67, 127
1, 7176, Note_off_c, 1, 67, 0
1, 7200, Note_on_c, 1, 70, 127
1, 7200, Note_on_c, 1, 79, 127
1, 7200, Note_on_c, 1, 48, 127
1, 7296, Note_off_c, 1, 70, 0
1, 7296, Note_off_c, 1, 79, 0
1, 7296, Note_off_c, 1, 48, 0
1, 7320, Note_on_c, 1, 69, 127
1, 7320, Note_on_c, 1, 53, 127
1, 7416, Note_off_c, 1, 53, 0
1, 7440, Note_on_c, 1, 72, 127
1, 7440, Note_on_c, 1, 48, 127
1, 7512, Note_off_c, 1, 69, 0
1, 7536, Note_off_c, 1, 72, 0
1, 7536, Note_off_c, 1, 48, 0
1, 7560, Note_on_c, 1, 79, 127
1, 7560, Note_on_c, 1, 53, 127
1, 7656, Note_off_c, 1, 79, 0
1, 7656, Note_off_c, 1, 53, 0
1, 7680, Note_on_c, 1, 77, 127
1, 7680, Note_on_c, 1, 57, 127
1, 7776, Note_off_c, 1, 77, 0
1, 7776, Note_off_c, 1, 57, 0
1, 7800, Note_on_c, 1, 76, 127
1, 7800, Note_on_c, 1, 53, 127
1, 7896, Note_off_c, 1, 76, 0
1, 7896, Note_off_c, 1, 53, 0
1, 7920, Note_on_c, 1, 77, 127
1, 7920, Note_on_c, 1, 57, 127
1, 8016, Note_off_c, 1, 77, 0
1, 8016, Note_off_c, 1, 57, 0
1, 8040, Note_on_c, 1, 67, 127
1, 8040, Note_on_c, 1, 60, 127
1, 8160, Note_on_c, 1, 72, 127
1, 8232, Note_off_c, 1, 67, 0
1, 8232, Note_off_c, 1, 60, 0
1, 8256, Note_off_c, 1, 72, 0
1, 8280, Note_on_c, 1, 77, 127
1, 8280, Note_on_c, 1, 53, 127
1, 8376, Note_off_c, 1, 77, 0
1, 8376, Note_off_c, 1, 53, 0
1, 8400, Note_on_c, 1, 75, 127
1, 8400, Note_on_c, 1, 65, 127
1, 8496, Note_off_c, 1, 75, 0
1, 8520, Note_on_c, 1, 74, 127
1, 8616, Note_off_c, 1, 74, 0
1, 8640, Note_on_c, 1, 69, 127
1, 8736, Note_off_c, 1, 69, 0
1, 8760, Note_on_c, 1, 70, 127
1, 8856, Note_off_c, 1, 65, 0
1, 8880, Note_on_c, 1, 64, 127
1, 8976, Note_off_c, 1, 64, 0
1, 9000, Note_on_c, 1, 76, 127
1, 9000, Note_on_c, 1, 62, 127
1, 9048, Note_off_c, 1, 70, 0
1, 9096, Note_off_c, 1, 76, 0
1, 9096, Note_off_c, 1, 62, 0
1, 9120, Note_on_c, 1, 77, 127
1, 9120, Note_on_c, 1, 60, 127
1, 9144, Note_off_c, 1, 77, 0
1, 9150, Note_on_c, 1, 76, 127
1, 9174, Note_off_c, 1, 76, 0
1, 9216, Note_off_c, 1, 60, 0
1, 9240, Note_on_c, 1, 62, 127
1, 9336, Note_off_c, 1, 62, 0
1, 9360, Note_on_c, 1, 74, 127
1, 9360, Note_on_c, 1, 58, 127
1, 9408, Note_off_c, 1, 74, 0
1, 9420, Note_on_c, 1, 76, 127
1, 9456, Note_off_c, 1, 58, 0
1, 9468, Note_off_c, 1, 76, 0
1, 9480, Note_on_c, 1, 77, 127
1, 9480, Note_on_c, 1, 57, 127
1, 9576, Note_off_c, 1, 77, 0
1, 9600, Note_on_c, 1, 76, 127
1, 9672, Note_off_c, 1, 57, 0
1, 9696, Note_off_c, 1, 76, 0
1, 9720, Note_on_c, 1, 74, 127
1, 9720, Note_on_c, 1, 70, 127
1, 9720, Note_on_c, 1, 58, 127
1, 9816, Note_off_c, 1, 74, 0
1, 9816, Note_off_c, 1, 70, 0
1, 9816, Note_off_c, 1, 58, 0
1, 9840, Note_on_c, 1, 72, 127
1, 9840, Note_on_c, 1, 69, 127
1, 9840, Note_on_c, 1, 60, 127
1, 9936, Note_off_c, 1, 72, 0
1, 9960, Note_on_c, 1, 74, 127
1, 10032, Note_off_c, 1, 69, 0
1, 10032, Note_off_c, 1, 60, 0
1, 10056, Note_off_c, 1, 74, 0
1, 10080, Note_on_c, 1, 67, 127
1, 10080, Note_on_c, 1, 70, 127
1, 10080, Note_on_c, 1, 48, 127
1, 10176, Note_off_c, 1, 67, 0
1, 10176, Note_off_c, 1, 70, 0
1, 10176, Note_off_c, 1, 48, 0
1, 10200, Note_on_c, 1, 65, 127
1, 10200, Note_on_c, 1, 69, 127
1, 10200, Note_on_c, 1, 53, 127
1, 10296, Note_off_c, 1, 65, 0
1, 10296, Note_off_c, 1, 69, 0
1, 10296, Note_off_c, 1, 53, 0
1, 10320, Note_on_c, 1, 67, 127
1, 10320, Note_on_c, 1, 48, 127
1, 10416, Note_off_c, 1, 67, 0
1, 10416, Note_off_c, 1, 48, 0
1, 10440, Note_on_c, 1, 65, 127
1, 10440, Note_on_c, 1, 53, 127
1, 10536, Note_off_c, 1, 65, 0
1, 10536, Note_off_c, 1, 53, 0
1, 10560, Note_on_c, 1, 72, 127
1, 10560, Note_on_c, 1, 57, 127
1, 10656, Note_off_c, 1, 72, 0
1, 10656, Note_off_c, 1, 57, 0
1, 10680, Note_on_c, 1, 69, 127
1, 10680, Note_on_c, 1, 53, 127
1, 10776, Note_off_c, 1, 69, 0
1, 10776, Note_off_c, 1, 53, 0
1, 10800, Note_on_c, 1, 65, 127
1, 10800, Note_on_c, 1, 57, 127
1, 10896, Note_off_c, 1, 65, 0
1, 10896, Note_off_c, 1, 57, 0
1, 10920, Note_on_c, 1, 72, 127
1, 10920, Note_on_c, 1, 52, 127
1, 10944, Note_off_c, 1, 72, 0
1, 10950, Note_on_c, 1, 71, 127
1, 10974, Note_off_c, 1, 71, 0
1, 11016, Note_off_c, 1, 52, 0
1, 11040, Note_on_c, 1, 48, 127
1, 11136, Note_off_c, 1, 48, 0
1, 11280, Note_on_c, 1, 72, 127
1, 11280, Note_on_c, 1, 55, 127
1, 11376, Note_off_c, 1, 72, 0
1, 11376, Note_off_c, 1, 55, 0
1, 11400, Note_on_c, 1, 67, 127
1, 11400, Note_on_c, 1, 52, 127
1, 11496, Note_off_c, 1, 67, 0
1, 11496, Note_off_c, 1, 52, 0
1, 11520, Note_on_c, 1, 64, 127
1, 11520, Note_on_c, 1, 55, 127
1, 11616, Note_off_c, 1, 64, 0
1, 11616, Note_off_c, 1, 55, 0
1, 11640, Note_on_c, 1, 72, 127
1, 11640, Note_on_c, 1, 57, 127
1, 11664, Note_off_c, 1, 72, 0
1, 11670, Note_on_c, 1, 71, 127
1, 11694, Note_off_c, 1, 71, 0
1, 11736, Note_off_c, 1, 57, 0
1, 11760, Note_on_c, 1, 48, 127
1, 11856, Note_off_c, 1, 48, 0
1, 11880, Note_on_c, 1, 53, 127
1, 11976, Note_off_c, 1, 53, 0
1, 12000, Note_on_c, 1, 72, 127
1, 12000, Note_on_c, 1, 57, 127
1, 12096, Note_off_c, 1, 72, 0
1, 12096, Note_off_c, 1, 57, 0
1, 12120, Note_on_c, 1, 69, 127
1, 12120, Note_on_c, 1, 53, 127
1, 12216, Note_off_c, 1, 69, 0
1, 12216, Note_off_c, 1, 53, 0
1, 12240, Note_on_c, 1, 65, 127
1, 12240, Note_on_c, 1, 57, 127
1, 12336, Note_off_c, 1, 65, 0
1, 12336, Note_off_c, 1, 57, 0
1, 12360, Note_on_c, 1, 72, 127
1, 12360, Note_on_c, 1, 52, 127
1, 12384, Note_off_c, 1, 72, 0
1, 12390, Note_on_c, 1, 71, 127
1, 12414, Note_off_c, 1, 71, 0
1, 12456, Note_off_c, 1, 52, 0
1, 12480, Note_on_c, 1, 48, 127
1, 12576, Note_off_c, 1, 48, 0
1, 12720, Note_on_c, 1, 54, 127
1, 12816, Note_off_c, 1, 54, 0
1, 12840, Note_on_c, 1, 50, 127
1, 12936, Note_off_c, 1, 50, 0
1, 12960, Note_on_c, 1, 69, 127
1, 12960, Note_on_c, 1, 54, 127
1, 13056, Note_off_c, 1, 69, 0
1, 13056, Note_off_c, 1, 54, 0
1, 13080, Note_on_c, 1, 70, 127
1, 13080, Note_on_c, 1, 55, 127
1, 13176, Note_off_c, 1, 70, 0
1, 13200, Note_on_c, 1, 62, 127
1, 13296, Note_off_c, 1, 62, 0
1, 13320, Note_on_c, 1, 67, 127
1, 13368, Note_off_c, 1, 55, 0
1, 13416, Note_off_c, 1, 67, 0
1, 13440, Note_on_c, 1, 70, 127
1, 13440, Note_on_c, 1, 50, 127
1, 13536, Note_off_c, 1, 70, 0
1, 13536, Note_off_c, 1, 50, 0
1, 13560, Note_on_c, 1, 67, 127
1, 13560, Note_on_c, 1, 46, 127
1, 13656, Note_off_c, 1, 67, 0
1, 13656, Note_off_c, 1, 46, 0
1, 13680, Note_on_c, 1, 70, 127
1, 13680, Note_on_c, 1, 43, 127
1, 13776, Note_off_c, 1, 70, 0
1, 13776, Note_off_c, 1, 43, 0
1, 13800, Note_on_c, 1, 66, 127
1, 13800, Note_on_c, 1, 50, 127
1, 13824, Note_off_c, 1, 50, 0
1, 13830, Note_on_c, 1, 48, 127
1, 13854, Note_off_c, 1, 48, 0
1, 13896, Note_off_c, 1, 66, 0
1, 13920, Note_on_c, 1, 62, 127
1, 14016, Note_off_c, 1, 62, 0
1, 14160, Note_on_c, 1, 69, 127
1, 14160, Note_on_c, 1, 50, 127
1, 14256, Note_off_c, 1, 69, 0
1, 14256, Note_off_c, 1, 50, 0
1, 14280, Note_on_c, 1, 66, 127
1, 14280, Note_on_c, 1, 45, 127
1, 14376, Note_off_c, 1, 66, 0
1, 14376, Note_off_c, 1, 45, 0
1, 14400, Note_on_c, 1, 69, 127
1, 14400, Note_on_c, 1, 42, 127
1, 14496, Note_off_c, 1, 69, 0
1, 14496, Note_off_c, 1, 42, 0
1, 14520, Note_on_c, 1, 70, 127
1, 14520, Note_on_c, 1, 50, 127
1, 14544, Note_off_c, 1, 50, 0
1, 14550, Note_on_c, 1, 48, 127
1, 14574, Note_off_c, 1, 48, 0
1, 14616, Note_off_c, 1, 70, 0
1, 14640, Note_on_c, 1, 62, 127
1, 14736, Note_off_c, 1, 62, 0
1, 14760, Note_on_c, 1, 67, 127
1, 14856, Note_off_c, 1, 67, 0
1, 14880, Note_on_c, 1, 70, 127
1, 14880, Note_on_c, 1, 50, 127
1, 14976, Note_off_c, 1, 70, 0
1, 14976, Note_off_c, 1, 50, 0
1, 15000, Note_on_c, 1, 67, 127
1, 15000, Note_on_c, 1, 46, 127
1, 15096, Note_off_c, 1, 67, 0
1, 15096, Note_off_c, 1, 46, 0
1, 15120, Note_on_c, 1, 70, 127
1, 15120, Note_on_c, 1, 43, 127
1, 15216, Note_off_c, 1, 70, 0
1, 15216, Note_off_c, 1, 43, 0
1, 15240, Note_on_c, 1, 66, 127
1, 15240, Note_on_c, 1, 50, 127
1, 15264, Note_off_c, 1, 50, 0
1, 15270, Note_on_c, 1, 48, 127
1, 15294, Note_off_c, 1, 48, 0
1, 15336, Note_off_c, 1, 66, 0
1, 15360, Note_on_c, 1, 62, 127
1, 15456, Note_off_c, 1, 62, 0
1, 15600, Note_on_c, 1, 69, 127
1, 15696, Note_off_c, 1, 69, 0
1, 15720, Note_on_c, 1, 66, 127
1, 15816, Note_off_c, 1, 66, 0
1, 15840, Note_on_c, 1, 69, 127
1, 15840, Note_on_c, 1, 50, 127
1, 15936, Note_off_c, 1, 69, 0
1, 15936, Note_off_c, 1, 50, 0
1, 15960, Note_on_c, 1, 70, 127
1, 15960, Note_on_c, 1, 55, 127
1, 16056, Note_off_c, 1, 70, 0
1, 16056, Note_off_c, 1, 55, 0
1, 16080, Note_on_c, 1, 67, 127
1, 16080, Note_on_c, 1, 50, 127
1, 16176, Note_off_c, 1, 67, 0
1, 16176, Note_off_c, 1, 50, 0
1, 16200, Note_on_c, 1, 70, 127
1, 16200, Note_on_c, 1, 55, 127
1, 16296, Note_off_c, 1, 70, 0
1, 16296, Note_off_c, 1, 55, 0
1, 16320, Note_on_c, 1, 74, 127
1, 16320, Note_on_c, 1, 58, 127
1, 16416, Note_off_c, 1, 74, 0
1, 16416, Note_off_c, 1, 58, 0
1, 16440, Note_on_c, 1, 70, 127
1, 16440, Note_on_c, 1, 55, 127
1, 16536, Note_off_c, 1, 70, 0
1, 16536, Note_off_c, 1, 55, 0
1, 16560, Note_on_c, 1, 74, 127
1, 16560, Note_on_c, 1, 58, 127
1, 16656, Note_off_c, 1, 74, 0
1, 16656, Note_off_c, 1, 58, 0
1, 16680, Note_on_c, 1, 77, 127
1, 16680, Note_on_c, 1, 57, 127
1, 16704, Note_off_c, 1, 77, 0
1, 16710, Note_on_c, 1, 76, 127
1, 16734, Note_off_c, 1, 76, 0
1, 16776, Note_off_c, 1, 57, 0
1, 16800, Note_on_c, 1, 53, 127
1, 16896, Note_off_c, 1, 53, 0
1, 17040, Note_on_c, 1, 77, 127
1, 17040, Note_on_c, 1, 60, 127
1, 17136, Note_off_c, 1, 77, 0
1, 17136, Note_off_c, 1, 60, 0
1, 17160, Note_on_c, 1, 72, 127
1, 17160, Note_on_c, 1, 57, 127
1, 17256, Note_off_c, 1, 72, 0
1, 17256, Note_off_c, 1, 57, 0
1, 17280, Note_on_c, 1, 69, 127
1, 17280, Note_on_c, 1, 60, 127
1, 17376, Note_off_c, 1, 69, 0
1, 17376, Note_off_c, 1, 60, 0
1, 17400, Note_on_c, 1, 77, 127
1, 17400, Note_on_c, 1, 62, 127
1, 17424, Note_off_c, 1, 77, 0
1, 17430, Note_on_c, 1, 76, 127
1, 17454, Note_off_c, 1, 76, 0
1, 17496, Note_off_c, 1, 62, 0
1, 17520, Note_on_c, 1, 53, 127
1, 17616, Note_off_c, 1, 53, 0
1, 17640, Note_on_c, 1, 58, 127
1, 17736, Note_off_c, 1, 58, 0
1, 17760, Note_on_c, 1, 77, 127
1, 17760, Note_on_c, 1, 62, 127
1, 17856, Note_off_c, 1, 77, 0
1, 17856, Note_off_c, 1, 62, 0
1, 17880, Note_on_c, 1, 74, 127
1, 17880, Note_on_c, 1, 58, 127
1, 17976, Note_off_c, 1, 74, 0
1, 17976, Note_off_c, 1, 58, 0
1, 18000, Note_on_c, 1, 70, 127
1, 18000, Note_on_c, 1, 62, 127
1, 18096, Note_off_c, 1, 70, 0
1, 18096, Note_off_c, 1, 62, 0
1, 18120, Note_on_c, 1, 77, 127
1, 18120, Note_on_c, 1, 57, 127
1, 18144, Note_off_c, 1, 77, 0
1, 18150, Note_on_c, 1, 76, 127
1, 18174, Note_off_c, 1, 76, 0
1, 18216, Note_off_c, 1, 57, 0
1, 18240, Note_on_c, 1, 53, 127
1, 18336, Note_off_c, 1, 53, 0
1, 18480, Note_on_c, 1, 60, 127
1, 18576, Note_off_c, 1, 60, 0
1, 18600, Note_on_c, 1, 57, 127
1, 18696, Note_off_c, 1, 57, 0
1, 18720, Note_on_c, 1, 60, 127
1, 18816, Note_off_c, 1, 60, 0
1, 18840, Note_on_c, 1, 65, 127
1, 18936, Note_off_c, 1, 65, 0
1, 18960, Note_on_c, 1, 60, 127
1, 19056, Note_off_c, 1, 60, 0
1, 19080, Note_on_c, 1, 65, 127
1, 19176, Note_off_c, 1, 65, 0
1, 19200, Note_on_c, 1, 69, 127
1, 19296, Note_off_c, 1, 69, 0
1, 19320, Note_on_c, 1, 65, 127
1, 19416, Note_off_c, 1, 65, 0
1, 19440, Note_on_c, 1, 69, 127
1, 19440, Note_on_c, 1, 36, 127
1, 19536, Note_off_c, 1, 69, 0
1, 19536, Note_off_c, 1, 36, 0
1, 19560, Note_on_c, 1, 72, 127
1, 19560, Note_on_c, 1, 41, 127
1, 19656, Note_off_c, 1, 41, 0
1, 19680, Note_on_c, 1, 36, 127
1, 19752, Note_off_c, 1, 72, 0
1, 19776, Note_off_c, 1, 36, 0
1, 19800, Note_on_c, 1, 65, 127
1, 19800, Note_on_c, 1, 41, 127
1, 19896, Note_off_c, 1, 65, 0
1, 19896, Note_off_c, 1, 41, 0
1, 19920, Note_on_c, 1, 77, 127
1, 19920, Note_on_c, 1, 45, 127
1, 19944, Note_off_c, 1, 77, 0
1, 19950, Note_on_c, 1, 76, 127
1, 19974, Note_off_c, 1, 76, 0
1, 20016, Note_off_c, 1, 45, 0
1, 20040, Note_on_c, 1, 41, 127
1, 20136, Note_off_c, 1, 41, 0
1, 20280, Note_on_c, 1, 48, 127
1, 20376, Note_off_c, 1, 48, 0
1, 20400, Note_on_c, 1, 76, 127
1, 20400, Note_on_c, 1, 43, 127
1, 20496, Note_off_c, 1, 76, 0
1, 20496, Note_off_c, 1, 43, 0
1, 20520, Note_on_c, 1, 74, 127
1, 20520, Note_on_c, 1, 48, 127
1, 20616, Note_off_c, 1, 74, 0
1, 20616, Note_off_c, 1, 48, 0
1, 20640, Note_on_c, 1, 72, 127
1, 20640, Note_on_c, 1, 52, 127
1, 20736, Note_off_c, 1, 72, 0
1, 20736, Note_off_c, 1, 52, 0
1, 20760, Note_on_c, 1, 74, 127
1, 20760, Note_on_c, 1, 48, 127
1, 20856, Note_off_c, 1, 74, 0
1, 20856, Note_off_c, 1, 48, 0
1, 20880, Note_on_c, 1, 70, 127
1, 20880, Note_on_c, 1, 52, 127
1, 20976, Note_off_c, 1, 70, 0
1, 20976, Note_off_c, 1, 52, 0
1, 21000, Note_on_c, 1, 69, 127
1, 21000, Note_on_c, 1, 53, 127
1, 21096, Note_off_c, 1, 69, 0
1, 21096, Note_off_c, 1, 53, 0
1, 21120, Note_on_c, 1, 72, 127
1, 21120, Note_on_c, 1, 48, 127
1, 21216, Note_off_c, 1, 72, 0
1, 21216, Note_off_c, 1, 48, 0
1, 21240, Note_on_c, 1, 79, 127
1, 21240, Note_on_c, 1, 53, 127
1, 21336, Note_off_c, 1, 79, 0
1, 21336, Note_off_c, 1, 53, 0
1, 21360, Note_on_c, 1, 77, 127
1, 21360, Note_on_c, 1, 57, 127
1, 21456, Note_off_c, 1, 77, 0
1, 21456, Note_off_c, 1, 57, 0
1, 21480, Note_on_c, 1, 76, 127
1, 21480, Note_on_c, 1, 53, 127
1, 21576, Note_off_c, 1, 76, 0
1, 21576, Note_off_c, 1, 53, 0
1, 21600, Note_on_c, 1, 77, 127
1, 21600, Note_on_c, 1, 57, 127
1, 21696, Note_off_c, 1, 77, 0
1, 21696, Note_off_c, 1, 57, 0
1, 21720, Note_on_c, 1, 67, 127
1, 21720, Note_on_c, 1, 60, 127
1, 21816, Note_off_c, 1, 67, 0
1, 21840, Note_on_c, 1, 72, 127
1, 21936, Note_off_c, 1, 72, 0
1, 21960, Note_on_c, 1, 77, 127
1, 22008, Note_off_c, 1, 60, 0
1, 22056, Note_off_c, 1, 77, 0
1, 22080, Note_on_c, 1, 76, 127
1, 22176, Note_off_c, 1, 76, 0
1, 22200, Note_on_c, 1, 74, 127
1, 22296, Note_off_c, 1, 74, 0
1, 22320, Note_on_c, 1, 76, 127
1, 22320, Note_on_c, 1, 49, 127
1, 22416, Note_off_c, 1, 76, 0
1, 22416, Note_off_c, 1, 49, 0
1, 22440, Note_on_c, 1, 65, 127
1, 22440, Note_on_c, 1, 50, 127
1, 22536, Note_off_c, 1, 65, 0
1, 22536, Note_off_c, 1, 50, 0
1, 22560, Note_on_c, 1, 69, 127
1, 22560, Note_on_c, 1, 45, 127
1, 22656, Note_off_c, 1, 69, 0
1, 22656, Note_off_c, 1, 45, 0
1, 22680, Note_on_c, 1, 76, 127
1, 22680, Note_on_c, 1, 50, 127
1, 22776, Note_off_c, 1, 76, 0
1, 22776, Note_off_c, 1, 50, 0
1, 22800, Note_on_c, 1, 74, 127
1, 22800, Note_on_c, 1, 53, 127
1, 22896, Note_off_c, 1, 74, 0
1, 22896, Note_off_c, 1, 53, 0
1, 22920, Note_on_c, 1, 73, 127
1, 22920, Note_on_c, 1, 50, 127
1, 23016, Note_off_c, 1, 73, 0
1, 23016, Note_off_c, 1, 50, 0
1, 23040, Note_on_c, 1, 74, 127
1, 23040, Note_on_c, 1, 53, 127
1, 23136, Note_off_c, 1, 74, 0
1, 23136, Note_off_c, 1, 53, 0
1, 23160, Note_on_c, 1, 64, 127
1, 23160, Note_on_c, 1, 57, 127
1, 23256, Note_off_c, 1, 64, 0
1, 23280, Note_on_c, 1, 69, 127
1, 23352, Note_off_c, 1, 57, 0
1, 23376, Note_off_c, 1, 69, 0
1, 23400, Note_on_c, 1, 74, 127
1, 23496, Note_off_c, 1, 74, 0
1, 23520, Note_on_c, 1, 72, 127
1, 23616, Note_off_c, 1, 72, 0
1, 23640, Note_on_c, 1, 71, 127
1, 23736, Note_off_c, 1, 71, 0
1, 23760, Note_on_c, 1, 72, 127
1, 23760, Note_on_c, 1, 41, 127
1, 23856, Note_off_c, 1, 72, 0
1, 23856, Note_off_c, 1, 41, 0
1, 23880, Note_on_c, 1, 62, 127
1, 23880, Note_on_c, 1, 46, 127
1, 23976, Note_off_c, 1, 62, 0
1, 23976, Note_off_c, 1, 46, 0
1, 24000, Note_on_c, 1, 65, 127
1, 24000, Note_on_c, 1, 41, 127
1, 24096, Note_off_c, 1, 65, 0
1, 24096, Note_off_c, 1, 41, 0
1, 24120, Note_on_c, 1, 72, 127
1, 24120, Note_on_c, 1, 46, 127
1, 24216, Note_off_c, 1, 72, 0
1, 24216, Note_off_c, 1, 46, 0
1, 24240, Note_on_c, 1, 70, 127
1, 24240, Note_on_c, 1, 50, 127
1, 24336, Note_off_c, 1, 70, 0
1, 24336, Note_off_c, 1, 50, 0
1, 24360, Note_on_c, 1, 69, 127
1, 24360, Note_on_c, 1, 46, 127
1, 24456, Note_off_c, 1, 69, 0
1, 24456, Note_off_c, 1, 46, 0
1, 24480, Note_on_c, 1, 70, 127
1, 24480, Note_on_c, 1, 50, 127
1, 24576, Note_off_c, 1, 70, 0
1, 24576, Note_off_c, 1, 50, 0
1, 24600, Note_on_c, 1, 60, 127
1, 24600, Note_on_c, 1, 53, 127
1, 24696, Note_off_c, 1, 60, 0
1, 24720, Note_on_c, 1, 65, 127
1, 24792, Note_off_c, 1, 53, 0
1, 24816, Note_off_c, 1, 65, 0
1, 24840, Note_on_c, 1, 70, 127
1, 24840, Note_on_c, 1, 41, 127
1, 24936, Note_off_c, 1, 70, 0
1, 24936, Note_off_c, 1, 41, 0
1, 24960, Note_on_c, 1, 69, 127
1, 24960, Note_on_c, 1, 53, 127
1, 24984, Note_off_c, 1, 53, 0
1, 24990, Note_on_c, 1, 52, 127
1, 25014, Note_off_c, 1, 52, 0
1, 25056, Note_off_c, 1, 69, 0
1, 25080, Note_on_c, 1, 67, 127
1, 25176, Note_off_c, 1, 67, 0
1, 25320, Note_on_c, 1, 59, 127
1, 25416, Note_off_c, 1, 59, 0
1, 25440, Note_on_c, 1, 62, 127
1, 25536, Note_off_c, 1, 62, 0
1, 25560, Note_on_c, 1, 67, 127
1, 25560, Note_on_c, 1, 40, 127
1, 25656, Note_off_c, 1, 67, 0
1, 25656, Note_off_c, 1, 40, 0
1, 25680, Note_on_c, 1, 60, 127
1, 25680, Note_on_c, 1, 52, 127
1, 25776, Note_off_c, 1, 60, 0
1, 25800, Note_on_c, 1, 64, 127
1, 25896, Note_off_c, 1, 64, 0
1, 25920, Note_on_c, 1, 67, 127
1, 26016, Note_off_c, 1, 67, 0
1, 26040, Note_on_c, 1, 57, 127
1, 26136, Note_off_c, 1, 57, 0
1, 26232, Note_off_c, 1, 52, 0
1, 26280, Note_on_c, 1, 65, 127
1, 26280, Note_on_c, 1, 38, 127
1, 26376, Note_off_c, 1, 65, 0
1, 26376, Note_off_c, 1, 38, 0
1, 26400, Note_on_c, 1, 59, 127
1, 26400, Note_on_c, 1, 50, 127
1, 26496, Note_off_c, 1, 59, 0
1, 26520, Note_on_c, 1, 62, 127
1, 26592, Note_off_c, 1, 50, 0
1, 26616, Note_off_c, 1, 62, 0
1, 26640, Note_on_c, 1, 65, 127
1, 26640, Note_on_c, 1, 43, 127
1, 26736, Note_off_c, 1, 65, 0
1, 26736, Note_off_c, 1, 43, 0
1, 26760, Note_on_c, 1, 64, 127
1, 26760, Note_on_c, 1, 48, 127
1, 26856, Note_off_c, 1, 64, 0
1, 26880, Note_on_c, 1, 67, 127
1, 26952, Note_off_c, 1, 48, 0
1, 26976, Note_off_c, 1, 67, 0
1, 27000, Note_on_c, 1, 72, 127
1, 27000, Note_on_c, 1, 52, 127
1, 27096, Note_off_c, 1, 72, 0
1, 27096, Note_off_c, 1, 52, 0
1, 27120, Note_on_c, 1, 66, 127
1, 27120, Note_on_c, 1, 45, 127
1, 27216, Note_off_c, 1, 66, 0
1, 27240, Note_on_c, 1, 69, 127
1, 27312, Note_off_c, 1, 45, 0
1, 27336, Note_off_c, 1, 69, 0
1, 27360, Note_on_c, 1, 72, 127
1, 27360, Note_on_c, 1, 50, 127
1, 27456, Note_off_c, 1, 72, 0
1, 27456, Note_off_c, 1, 50, 0
1, 27480, Note_on_c, 1, 71, 127
1, 27480, Note_on_c, 1, 43, 127
1, 27576, Note_off_c, 1, 71, 0
1, 27600, Note_on_c, 1, 69, 127
1, 27696, Note_off_c, 1, 69, 0
1, 27720, Note_on_c, 1, 67, 127
1, 27768, Note_off_c, 1, 43, 0
1, 27816, Note_off_c, 1, 67, 0
1, 27840, Note_on_c, 1, 67, 127
1, 27936, Note_off_c, 1, 67, 0
1, 27960, Note_on_c, 1, 69, 127
1, 27960, Note_on_c, 1, 55, 127
1, 28056, Note_off_c, 1, 69, 0
1, 28056, Note_off_c, 1, 55, 0
1, 28080, Note_on_c, 1, 71, 127
1, 28080, Note_on_c, 1, 53, 127
1, 28176, Note_off_c, 1, 71, 0
1, 28176, Note_off_c, 1, 53, 0
1, 28200, Note_on_c, 1, 72, 127
1, 28200, Note_on_c, 1, 52, 127
1, 28296, Note_off_c, 1, 72, 0
1, 28296, Note_off_c, 1, 52, 0
1, 28320, Note_on_c, 1, 74, 127
1, 28320, Note_on_c, 1, 53, 127
1, 28416, Note_off_c, 1, 74, 0
1, 28416, Note_off_c, 1, 53, 0
1, 28440, Note_on_c, 1, 76, 127
1, 28440, Note_on_c, 1, 55, 127
1, 28536, Note_off_c, 1, 76, 0
1, 28536, Note_off_c, 1, 55, 0
1, 28560, Note_on_c, 1, 76, 127
1, 28560, Note_on_c, 1, 55, 127
1, 28656, Note_off_c, 1, 76, 0
1, 28656, Note_off_c, 1, 55, 0
1, 28680, Note_on_c, 1, 77, 127
1, 28680, Note_on_c, 1, 57, 127
1, 28776, Note_off_c, 1, 77, 0
1, 28776, Note_off_c, 1, 57, 0
1, 28800, Note_on_c, 1, 79, 127
1, 28800, Note_on_c, 1, 59, 127
1, 28896, Note_off_c, 1, 79, 0
1, 28896, Note_off_c, 1, 59, 0
1, 28920, Note_on_c, 1, 79, 127
1, 28920, Note_on_c, 1, 60, 127
1, 28944, Note_off_c, 1, 79, 0
1, 28950, Note_on_c, 1, 77, 127
1, 28974, Note_off_c, 1, 77, 0
1, 29016, Note_off_c, 1, 60, 0
1, 29040, Note_on_c, 1, 43, 127
1, 29136, Note_off_c, 1, 43, 0
1, 29160, Note_on_c, 1, 48, 127
1, 29256, Note_off_c, 1, 48, 0
1, 29280, Note_on_c, 1, 79, 127
1, 29280, Note_on_c, 1, 52, 127
1, 29376, Note_off_c, 1, 79, 0
1, 29376, Note_off_c, 1, 52, 0
1, 29400, Note_on_c, 1, 76, 127
1, 29400, Note_on_c, 1, 48, 127
1, 29496, Note_off_c, 1, 76, 0
1, 29496, Note_off_c, 1, 48, 0
1, 29520, Note_on_c, 1, 72, 127
1, 29520, Note_on_c, 1, 52, 127
1, 29616, Note_off_c, 1, 72, 0
1, 29616, Note_off_c, 1, 52, 0
1, 29640, Note_on_c, 1, 79, 127
1, 29640, Note_on_c, 1, 47, 127
1, 29664, Note_off_c, 1, 79, 0
1, 29670, Note_on_c, 1, 77, 127
1, 29694, Note_off_c, 1, 77, 0
1, 29736, Note_off_c, 1, 47, 0
1, 29760, Note_on_c, 1, 43, 127
1, 29856, Note_off_c, 1, 43, 0
1, 30000, Note_on_c, 1, 79, 127
1, 30000, Note_on_c, 1, 50, 127
1, 30096, Note_off_c, 1, 79, 0
1, 30096, Note_off_c, 1, 50, 0
1, 30120, Note_on_c, 1, 74, 127
1, 30120, Note_on_c, 1, 47, 127
1, 30216, Note_off_c, 1, 74, 0
1, 30216, Note_off_c, 1, 47, 0
1, 30240, Note_on_c, 1, 71, 127
1, 30240, Note_on_c, 1, 50, 127
1, 30336, Note_off_c, 1, 71, 0
1, 30336, Note_off_c, 1, 50, 0
1, 30360, Note_on_c, 1, 79, 127
1, 30360, Note_on_c, 1, 52, 127
1, 30384, Note_off_c, 1, 79, 0
1, 30390, Note_on_c, 1, 77, 127
1, 30414, Note_off_c, 1, 77, 0
1, 30456, Note_off_c, 1, 52, 0
1, 30480, Note_on_c, 1, 43, 127
1, 30576, Note_off_c, 1, 43, 0
1, 30600, Note_on_c, 1, 48, 127
1, 30696, Note_off_c, 1, 48, 0
1, 30720, Note_on_c, 1, 79, 127
1, 30720, Note_on_c, 1, 52, 127
1, 30816, Note_off_c, 1, 79, 0
1, 30816, Note_off_c, 1, 52, 0
1, 30840, Note_on_c, 1, 76, 127
1, 30840, Note_on_c, 1, 48, 127
1, 30936, Note_off_c, 1, 76, 0
1, 30936, Note_off_c, 1, 48, 0
1, 30960, Note_on_c, 1, 72, 127
1, 30960, Note_on_c, 1, 52, 127
1, 31056, Note_off_c, 1, 72, 0
1, 31056, Note_off_c, 1, 52, 0
1, 31080, Note_on_c, 1, 79, 127
1, 31080, Note_on_c, 1, 47, 127
1, 31104, Note_off_c, 1, 79, 0
1, 31110, Note_on_c, 1, 77, 127
1, 31134, Note_off_c, 1, 77, 0
1, 31176, Note_off_c, 1, 47, 0
1, 31200, Note_on_c, 1, 43, 127
1, 31296, Note_off_c, 1, 43, 0
1, 31440, Note_on_c, 1, 79, 127
1, 31440, Note_on_c, 1, 50, 127
1, 31536, Note_off_c, 1, 79, 0
1, 31536, Note_off_c, 1, 50, 0
1, 31560, Note_on_c, 1, 74, 127
1, 31560, Note_on_c, 1, 47, 127
1, 31656, Note_off_c, 1, 74, 0
1, 31656, Note_off_c, 1, 47, 0
1, 31680, Note_on_c, 1, 71, 127
1, 31680, Note_on_c, 1, 50, 127
1, 31776, Note_off_c, 1, 71, 0
1, 31776, Note_off_c, 1, 50, 0
1, 31800, Note_on_c, 1, 72, 127
1, 31800, Note_on_c, 1, 52, 127
1, 31896, Note_off_c, 1, 72, 0
1, 31896, Note_off_c, 1, 52, 0
1, 31920, Note_on_c, 1, 69, 127
1, 31920, Note_on_c, 1, 48, 127
1, 32016, Note_off_c, 1, 69, 0
1, 32016, Note_off_c, 1, 48, 0
1, 32040, Note_on_c, 1, 77, 127
1, 32040, Note_on_c, 1, 45, 127
1, 32136, Note_off_c, 1, 77, 0
1, 32136, Note_off_c, 1, 45, 0
1, 32160, Note_on_c, 1, 71, 127
1, 32160, Note_on_c, 1, 50, 127
1, 32256, Note_off_c, 1, 71, 0
1, 32256, Note_off_c, 1, 50, 0
1, 32280, Note_on_c, 1, 67, 127
1, 32280, Note_on_c, 1, 47, 127
1, 32376, Note_off_c, 1, 67, 0
1, 32376, Note_off_c, 1, 47, 0
1, 32400, Note_on_c, 1, 76, 127
1, 32400, Note_on_c, 1, 43, 127
1, 32496, Note_off_c, 1, 76, 0
1, 32496, Note_off_c, 1, 43, 0
1, 32520, Note_on_c, 1, 69, 127
1, 32520, Note_on_c, 1, 48, 127
1, 32616, Note_off_c, 1, 69, 0
1, 32616, Note_off_c, 1, 48, 0
1, 32640, Note_on_c, 1, 65, 127
1, 32640, Note_on_c, 1, 45, 127
1, 32736, Note_off_c, 1, 65, 0
1, 32736, Note_off_c, 1, 45, 0
1, 32760, Note_on_c, 1, 74, 127
1, 32760, Note_on_c, 1, 41, 127
1, 32856, Note_off_c, 1, 74, 0
1, 32856, Note_off_c, 1, 41, 0
1, 32880, Note_on_c, 1, 67, 127
1, 32880, Note_on_c, 1, 47, 127
1, 32976, Note_off_c, 1, 67, 0
1, 32976, Note_off_c, 1, 47, 0
1, 33000, Note_on_c, 1, 64, 127
1, 33000, Note_on_c, 1, 43, 127
1, 33096, Note_off_c, 1, 64, 0
1, 33096, Note_off_c, 1, 43, 0
1, 33120, Note_on_c, 1, 72, 127
1, 33120, Note_on_c, 1, 40, 127
1, 33216, Note_off_c, 1, 72, 0
1, 33216, Note_off_c, 1, 40, 0
1, 33240, Note_on_c, 1, 65, 127
1, 33240, Note_on_c, 1, 45, 127
1, 33336, Note_off_c, 1, 65, 0
1, 33336, Note_off_c, 1, 45, 0
1, 33360, Note_on_c, 1, 62, 127
1, 33360, Note_on_c, 1, 41, 127
1, 33456, Note_off_c, 1, 62, 0
1, 33456, Note_off_c, 1, 41, 0
1, 33480, Note_on_c, 1, 72, 127
1, 33480, Note_on_c, 1, 38, 127
1, 33576, Note_off_c, 1, 72, 0
1, 33576, Note_off_c, 1, 38, 0
1, 33600, Note_on_c, 1, 65, 127
1, 33600, Note_on_c, 1, 43, 127
1, 33696, Note_off_c, 1, 65, 0
1, 33696, Note_off_c, 1, 43, 0
1, 33720, Note_on_c, 1, 62, 127
1, 33720, Note_on_c, 1, 41, 127
1, 33816, Note_off_c, 1, 62, 0
1, 33816, Note_off_c, 1, 41, 0
1, 33840, Note_on_c, 1, 71, 127
1, 33840, Note_on_c, 1, 43, 127
1, 33936, Note_off_c, 1, 71, 0
1, 33936, Note_off_c, 1, 43, 0
1, 33960, Note_on_c, 1, 72, 127
1, 33960, Note_on_c, 1, 36, 127
1, 34056, Note_off_c, 1, 72, 0
1, 34080, Note_on_c, 1, 64, 127
1, 34176, Note_off_c, 1, 64, 0
1, 34200, Note_on_c, 1, 67, 127
1, 34296, Note_off_c, 1, 67, 0
1, 34320, Note_on_c, 1, 60, 127
1, 34512, Note_off_c, 1, 36, 0
1, 34512, Note_off_c, 1, 60, 0
1, 34560, Note_on_c, 1, 60, 127
1, 34656, Note_off_c, 1, 60, 0
1, 34680, Note_on_c, 1, 65, 127
1, 34776, Note_off_c, 1, 65, 0
1, 34800, Note_on_c, 1, 60, 127
1, 34896, Note_off_c, 1, 60, 0
1, 34920, Note_on_c, 1, 65, 127
1, 35016, Note_off_c, 1, 65, 0
1, 35040, Note_on_c, 1, 69, 127
1, 35136, Note_off_c, 1, 69, 0
1, 35160, Note_on_c, 1, 65, 127
1, 35256, Note_off_c, 1, 65, 0
1, 35280, Note_on_c, 1, 69, 127
1, 35280, Note_on_c, 1, 48, 127
1, 35376, Note_off_c, 1, 69, 0
1, 35376, Note_off_c, 1, 48, 0
1, 35400, Note_on_c, 1, 72, 127
1, 35400, Note_on_c, 1, 53, 127
1, 35496, Note_off_c, 1, 53, 0
1, 35520, Note_on_c, 1, 48, 127
1, 35592, Note_off_c, 1, 72, 0
1, 35616, Note_off_c, 1, 48, 0
1, 35640, Note_on_c, 1, 65, 127
1, 35640, Note_on_c, 1, 53, 127
1, 35736, Note_off_c, 1, 65, 0
1, 35736, Note_off_c, 1, 53, 0
1, 35760, Note_on_c, 1, 77, 127
1, 35760, Note_on_c, 1, 57, 127
1, 35856, Note_off_c, 1, 57, 0
1, 35880, Note_on_c, 1, 53, 127
1, 35976, Note_off_c, 1, 53, 0
1, 36120, Note_on_c, 1, 60, 127
1, 36216, Note_off_c, 1, 77, 0
1, 36240, Note_on_c, 1, 76, 127
1, 36336, Note_off_c, 1, 76, 0
1, 36360, Note_on_c, 1, 74, 127
1, 36408, Note_off_c, 1, 60, 0
1, 36456, Note_off_c, 1, 74, 0
1, 36480, Note_on_c, 1, 72, 127
1, 36480, Note_on_c, 1, 48, 127
1, 36576, Note_off_c, 1, 72, 0
1, 36600, Note_on_c, 1, 74, 127
1, 36696, Note_off_c, 1, 74, 0
1, 36720, Note_on_c, 1, 70, 127
1, 36768, Note_off_c, 1, 48, 0
1, 36816, Note_off_c, 1, 70, 0
1, 36840, Note_on_c, 1, 69, 127
1, 36840, Note_on_c, 1, 53, 127
1, 36936, Note_off_c, 1, 69, 0
1, 36960, Note_on_c, 1, 72, 127
1, 37032, Note_off_c, 1, 53, 0
1, 37056, Note_off_c, 1, 72, 0
1, 37080, Note_on_c, 1, 77, 127
1, 37080, Note_on_c, 1, 52, 127
1, 37176, Note_off_c, 1, 77, 0
1, 37176, Note_off_c, 1, 52, 0
1, 37200, Note_on_c, 1, 71, 127
1, 37200, Note_on_c, 1, 50, 127
1, 37296, Note_off_c, 1, 71, 0
1, 37320, Note_on_c, 1, 74, 127
1, 37392, Note_off_c, 1, 50, 0
1, 37416, Note_off_c, 1, 74, 0
1, 37440, Note_on_c, 1, 77, 127
1, 37440, Note_on_c, 1, 55, 127
1, 37536, Note_off_c, 1, 77, 0
1, 37536, Note_off_c, 1, 55, 0
1, 37560, Note_on_c, 1, 76, 127
1, 37560, Note_on_c, 1, 60, 127
1, 37656, Note_off_c, 1, 76, 0
1, 37656, Note_off_c, 1, 60, 0
1, 37680, Note_on_c, 1, 79, 127
1, 37680, Note_on_c, 1, 55, 127
1, 37776, Note_off_c, 1, 79, 0
1, 37776, Note_off_c, 1, 55, 0
1, 37800, Note_on_c, 1, 76, 127
1, 37800, Note_on_c, 1, 60, 127
1, 37896, Note_off_c, 1, 76, 0
1, 37896, Note_off_c, 1, 60, 0
1, 37920, Note_on_c, 1, 72, 127
1, 37920, Note_on_c, 1, 64, 127
1, 38016, Note_off_c, 1, 72, 0
1, 38016, Note_off_c, 1, 64, 0
1, 38040, Note_on_c, 1, 76, 127
1, 38040, Note_on_c, 1, 60, 127
1, 38136, Note_off_c, 1, 76, 0
1, 38136, Note_off_c, 1, 60, 0
1, 38160, Note_on_c, 1, 64, 127
1, 38160, Note_on_c, 1, 72, 127
1, 38256, Note_off_c, 1, 64, 0
1, 38256, Note_off_c, 1, 72, 0
1, 38280, Note_on_c, 1, 71, 127
1, 38280, Note_on_c, 1, 67, 127
1, 38376, Note_off_c, 1, 71, 0
1, 38400, Note_on_c, 1, 72, 127
1, 38472, Note_off_c, 1, 67, 0
1, 38496, Note_off_c, 1, 72, 0
1, 38520, Note_on_c, 1, 60, 127
1, 38520, Note_on_c, 1, 74, 127
1, 38616, Note_off_c, 1, 60, 0
1, 38616, Note_off_c, 1, 74, 0
1, 38640, Note_on_c, 1, 76, 127
1, 38640, Note_on_c, 1, 72, 127
1, 38736, Note_off_c, 1, 76, 0
1, 38760, Note_on_c, 1, 77, 127
1, 38856, Note_off_c, 1, 77, 0
1, 38880, Note_on_c, 1, 79, 127
1, 38976, Note_off_c, 1, 79, 0
1, 39000, Note_on_c, 1, 81, 127
1, 39096, Note_off_c, 1, 72, 0
1, 39096, Note_off_c, 1, 81, 0
1, 39120, Note_on_c, 1, 71, 127
1, 39120, Note_on_c, 1, 83, 127
1, 39216, Note_off_c, 1, 71, 0
1, 39216, Note_off_c, 1, 83, 0
1, 39240, Note_on_c, 1, 69, 127
1, 39240, Note_on_c, 1, 84, 127
1, 39336, Note_off_c, 1, 69, 0
1, 39336, Note_off_c, 1, 84, 0
1, 39360, Note_on_c, 1, 67, 127
1, 39360, Note_on_c, 1, 74, 127
1, 39456, Note_off_c, 1, 67, 0
1, 39456, Note_off_c, 1, 74, 0
1, 39480, Note_on_c, 1, 69, 127
1, 39480, Note_on_c, 1, 84, 127
1, 39576, Note_off_c, 1, 69, 0
1, 39576, Note_off_c, 1, 84, 0
1, 39600, Note_on_c, 1, 83, 127
1, 39600, Note_on_c, 1, 65, 127
1, 39696, Note_off_c, 1, 83, 0
1, 39696, Note_off_c, 1, 65, 0
1, 39720, Note_on_c, 1, 64, 127
1, 39720, Note_on_c, 1, 84, 127
1, 39816, Note_off_c, 1, 64, 0
1, 39840, Note_on_c, 1, 67, 127
1, 39936, Note_off_c, 1, 67, 0
1, 39960, Note_on_c, 1, 72, 127
1, 40008, Note_off_c, 1, 84, 0
1, 40056, Note_off_c, 1, 72, 0
1, 40080, Note_on_c, 1, 66, 127
1, 40176, Note_off_c, 1, 66, 0
1, 40200, Note_on_c, 1, 69, 127
1, 40296, Note_off_c, 1, 69, 0
1, 40320, Note_on_c, 1, 72, 127
1, 40320, Note_on_c, 1, 81, 127
1, 40416, Note_off_c, 1, 72, 0
1, 40416, Note_off_c, 1, 81, 0
1, 40440, Note_on_c, 1, 70, 127
1, 40440, Note_on_c, 1, 67, 127
1, 40536, Note_off_c, 1, 70, 0
1, 40560, Note_on_c, 1, 74, 127
1, 40656, Note_off_c, 1, 74, 0
1, 40680, Note_on_c, 1, 81, 127
1, 40728, Note_off_c, 1, 67, 0
1, 40776, Note_off_c, 1, 81, 0
1, 40800, Note_on_c, 1, 79, 127
1, 40896, Note_off_c, 1, 79, 0
1, 40920, Note_on_c, 1, 78, 127
1, 41016, Note_off_c, 1, 78, 0
1, 41040, Note_on_c, 1, 79, 127
1, 41040, Note_on_c, 1, 67, 127
1, 41136, Note_off_c, 1, 79, 0
1, 41136, Note_off_c, 1, 67, 0
1, 41160, Note_on_c, 1, 62, 127
1, 41256, Note_off_c, 1, 62, 0
1, 41280, Note_on_c, 1, 65, 127
1, 41376, Note_off_c, 1, 65, 0
1, 41400, Note_on_c, 1, 70, 127
1, 41496, Note_off_c, 1, 70, 0
1, 41520, Note_on_c, 1, 64, 127
1, 41616, Note_off_c, 1, 64, 0
1, 41640, Note_on_c, 1, 67, 127
1, 41736, Note_off_c, 1, 67, 0
1, 41760, Note_on_c, 1, 70, 127
1, 41760, Note_on_c, 1, 79, 127
1, 41760, Note_on_c, 1, 48, 127
1, 41856, Note_off_c, 1, 70, 0
1, 41856, Note_off_c, 1, 79, 0
1, 41856, Note_off_c, 1, 48, 0
1, 41880, Note_on_c, 1, 69, 127
1, 41880, Note_on_c, 1, 53, 127
1, 41976, Note_off_c, 1, 53, 0
1, 42000, Note_on_c, 1, 72, 127
1, 42000, Note_on_c, 1, 48, 127
1, 42072, Note_off_c, 1, 69, 0
1, 42096, Note_off_c, 1, 72, 0
1, 42096, Note_off_c, 1, 48, 0
1, 42120, Note_on_c, 1, 79, 127
1, 42120, Note_on_c, 1, 53, 127
1, 42216, Note_off_c, 1, 79, 0
1, 42216, Note_off_c, 1, 53, 0
1, 42240, Note_on_c, 1, 77, 127
1, 42240, Note_on_c, 1, 57, 127
1, 42336, Note_off_c, 1, 77, 0
1, 42336, Note_off_c, 1, 57, 0
1, 42360, Note_on_c, 1, 76, 127
1, 42360, Note_on_c, 1, 53, 127
1, 42456, Note_off_c, 1, 76, 0
1, 42456, Note_off_c, 1, 53, 0
1, 42480, Note_on_c, 1, 77, 127
1, 42480, Note_on_c, 1, 57, 127
1, 42576, Note_off_c, 1, 77, 0
1, 42576, Note_off_c, 1, 57, 0
1, 42600, Note_on_c, 1, 67, 127
1, 42600, Note_on_c, 1, 60, 127
1, 42720, Note_on_c, 1, 72, 127
1, 42792, Note_off_c, 1, 67, 0
1, 42792, Note_off_c, 1, 60, 0
1, 42816, Note_off_c, 1, 72, 0
1, 42840, Note_on_c, 1, 77, 127
1, 42840, Note_on_c, 1, 53, 127
1, 42936, Note_off_c, 1, 77, 0
1, 42936, Note_off_c, 1, 53, 0
1, 42960, Note_on_c, 1, 75, 127
1, 42960, Note_on_c, 1, 65, 127
1, 43056, Note_off_c, 1, 75, 0
1, 43080, Note_on_c, 1, 74, 127
1, 43176, Note_off_c, 1, 74, 0
1, 43200, Note_on_c, 1, 69, 127
1, 43296, Note_off_c, 1, 69, 0
1, 43320, Note_on_c, 1, 70, 127
1, 43416, Note_off_c, 1, 65, 0
1, 43440, Note_on_c, 1, 64, 127
1, 43536, Note_off_c, 1, 64, 0
1, 43560, Note_on_c, 1, 76, 127
1, 43560, Note_on_c, 1, 62, 127
1, 43608, Note_off_c, 1, 70, 0
1, 43656, Note_off_c, 1, 76, 0
1, 43656, Note_off_c, 1, 62, 0
1, 43680, Note_on_c, 1, 77, 127
1, 43680, Note_on_c, 1, 60, 127
1, 43704, Note_off_c, 1, 77, 0
1, 43710, Note_on_c, 1, 76, 127
1, 43734, Note_off_c, 1, 76, 0
1, 43776, Note_off_c, 1, 60, 0
1, 43800, Note_on_c, 1, 62, 127
1, 43896, Note_off_c, 1, 62, 0
1, 43920, Note_on_c, 1, 74, 127
1, 43920, Note_on_c, 1, 58, 127
1, 43968, Note_off_c, 1, 74, 0
1, 43980, Note_on_c, 1, 76, 127
1, 44016, Note_off_c, 1, 58, 0
1, 44028, Note_off_c, 1, 76, 0
1, 44040, Note_on_c, 1, 77, 127
1, 44040, Note_on_c, 1, 57, 127
1, 44136, Note_off_c, 1, 77, 0
1, 44160, Note_on_c, 1, 76, 127
1, 44232, Note_off_c, 1, 57, 0
1, 44256, Note_off_c, 1, 76, 0
1, 44280, Note_on_c, 1, 74, 127
1, 44280, Note_on_c, 1, 70, 127
1, 44280, Note_on_c, 1, 58, 127
1, 44376, Note_off_c, 1, 74, 0
1, 44376, Note_off_c, 1, 70, 0
1, 44376, Note_off_c, 1, 58, 0
1, 44400, Note_on_c, 1, 72, 127
1, 44400, Note_on_c, 1, 69, 127
1, 44400, Note_on_c, 1, 60, 127
1, 44496, Note_off_c, 1, 72, 0
1, 44520, Note_on_c, 1, 74, 127
1, 44592, Note_off_c, 1, 69, 0
1, 44592, Note_off_c, 1, 60, 0
1, 44616, Note_off_c, 1, 74, 0
1, 44640, Note_on_c, 1, 67, 127
1, 44640, Note_on_c, 1, 70, 127
1, 44640, Note_on_c, 1, 48, 127
1, 44736, Note_off_c, 1, 67, 0
1, 44736, Note_off_c, 1, 70, 0
1, 44736, Note_off_c, 1, 48, 0
1, 44760, Note_on_c, 1, 65, 127
1, 44760, Note_on_c, 1, 69, 127
1, 44760, Note_on_c, 1, 53, 127
1, 44856, Note_off_c, 1, 65, 0
1, 44856, Note_off_c, 1, 69, 0
1, 44856, Note_off_c, 1, 53, 0
1, 44880, Note_on_c, 1, 67, 127
1, 44880, Note_on_c, 1, 48, 127
1, 44976, Note_off_c, 1, 67, 0
1, 44976, Note_off_c, 1, 48, 0
1, 45000, Note_on_c, 1, 65, 127
1, 45000, Note_on_c, 1, 53, 127
1, 45096, Note_off_c, 1, 65, 0
1, 45096, Note_off_c, 1, 53, 0
1, 45120, Note_on_c, 1, 72, 127
1, 45120, Note_on_c, 1, 57, 127
1, 45216, Note_off_c, 1, 72, 0
1, 45216, Note_off_c, 1, 57, 0
1, 45240, Note_on_c, 1, 69, 127
1, 45240, Note_on_c, 1, 53, 127
1, 45336, Note_off_c, 1, 69, 0
1, 45336, Note_off_c, 1, 53, 0
1, 45360, Note_on_c, 1, 65, 127
1, 45360, Note_on_c, 1, 57, 127
1, 45456, Note_off_c, 1, 65, 0
1, 45456, Note_off_c, 1, 57, 0
1, 45480, Note_on_c, 1, 72, 127
1, 45480, Note_on_c, 1, 52, 127
1, 45504, Note_off_c, 1, 72, 0
1, 45510, Note_on_c, 1, 71, 127
1, 45534, Note_off_c, 1, 71, 0
1, 45576, Note_off_c, 1, 52, 0
1, 45600, Note_on_c, 1, 48, 127
1, 45696, Note_off_c, 1, 48, 0
1, 45840, Note_on_c, 1, 72, 127
1, 45840, Note_on_c, 1, 55, 127
1, 45936, Note_off_c, 1, 72, 0
1, 45936, Note_off_c, 1, 55, 0
1, 45960, Note_on_c, 1, 67, 127
1, 45960, Note_on_c, 1, 52, 127
1, 46056, Note_off_c, 1, 67, 0
1, 46056, Note_off_c, 1, 52, 0
1, 46080, Note_on_c, 1, 64, 127
1, 46080, Note_on_c, 1, 55, 127
1, 46176, Note_off_c, 1, 64, 0
1, 46176, Note_off_c, 1, 55, 0
1, 46200, Note_on_c, 1, 72, 127
1, 46200, Note_on_c, 1, 57, 127
1, 46224, Note_off_c, 1, 72, 0
1, 46230, Note_on_c, 1, 71, 127
1, 46254, Note_off_c, 1, 71, 0
1, 46296, Note_off_c, 1, 57, 0
1, 46320, Note_on_c, 1, 48, 127
1, 46416, Note_off_c, 1, 48, 0
1, 46440, Note_on_c, 1, 53, 127
1, 46536, Note_off_c, 1, 53, 0
1, 46560, Note_on_c, 1, 72, 127
1, 46560, Note_on_c, 1, 57, 127
1, 46656, Note_off_c, 1, 72, 0
1, 46656, Note_off_c, 1, 57, 0
1, 46680, Note_on_c, 1, 69, 127
1, 46680, Note_on_c, 1, 53, 127
1, 46776, Note_off_c, 1, 69, 0
1, 46776, Note_off_c, 1, 53, 0
1, 46800, Note_on_c, 1, 65, 127
1, 46800, Note_on_c, 1, 57, 127
1, 46896, Note_off_c, 1, 65, 0
1, 46896, Note_off_c, 1, 57, 0
1, 46920, Note_on_c, 1, 72, 127
1, 46920, Note_on_c, 1, 52, 127
1, 46944, Note_off_c, 1, 72, 0
1, 46950, Note_on_c, 1, 71, 127
1, 46974, Note_off_c, 1, 71, 0
1, 47016, Note_off_c, 1, 52, 0
1, 47040, Note_on_c, 1, 48, 127
1, 47136, Note_off_c, 1, 48, 0
1, 47280, Note_on_c, 1, 54, 127
1, 47376, Note_off_c, 1, 54, 0
1, 47400, Note_on_c, 1, 50, 127
1, 47496, Note_off_c, 1, 50, 0
1, 47520, Note_on_c, 1, 69, 127
1, 47520, Note_on_c, 1, 54, 127
1, 47616, Note_off_c, 1, 69, 0
1, 47616, Note_off_c, 1, 54, 0
1, 47640, Note_on_c, 1, 70, 127
1, 47640, Note_on_c, 1, 55, 127
1, 47736, Note_off_c, 1, 70, 0
1, 47760, Note_on_c, 1, 62, 127
1, 47856, Note_off_c, 1, 62, 0
1, 47880, Note_on_c, 1, 67, 127
1, 47928, Note_off_c, 1, 55, 0
1, 47976, Note_off_c, 1, 67, 0
1, 48000, Note_on_c, 1, 70, 127
1, 48000, Note_on_c, 1, 50, 127
1, 48096, Note_off_c, 1, 70, 0
1, 48096, Note_off_c, 1, 50, 0
1, 48120, Note_on_c, 1, 67, 127
1, 48120, Note_on_c, 1, 46, 127
1, 48216, Note_off_c, 1, 67, 0
1, 48216, Note_off_c, 1, 46, 0
1, 48240, Note_on_c, 1, 70, 127
1, 48240, Note_on_c, 1, 43, 127
1, 48336, Note_off_c, 1, 70, 0
1, 48336, Note_off_c, 1, 43, 0
1, 48360, Note_on_c, 1, 66, 127
1, 48360, Note_on_c, 1, 50, 127
1, 48384, Note_off_c, 1, 50, 0
1, 48390, Note_on_c, 1, 48, 127
1, 48414, Note_off_c, 1, 48, 0
1, 48456, Note_off_c, 1, 66, 0
1, 48480, Note_on_c, 1, 62, 127
1, 48576, Note_off_c, 1, 62, 0
1, 48720, Note_on_c, 1, 69, 127
1, 48720, Note_on_c, 1, 50, 127
1, 48816, Note_off_c, 1, 69, 0
1, 48816, Note_off_c, 1, 50, 0
1, 48840, Note_on_c, 1, 66, 127
1, 48840, Note_on_c, 1, 45, 127
1, 48936, Note_off_c, 1, 66, 0
1, 48936, Note_off_c, 1, 45, 0
1, 48960, Note_on_c, 1, 69, 127
1, 48960, Note_on_c, 1, 42, 127
1, 49056, Note_off_c, 1, 69, 0
1, 49056, Note_off_c, 1, 42, 0
1, 49080, Note_on_c, 1, 70, 127
1, 49080, Note_on_c, 1, 50, 127
1, 49104, Note_off_c, 1, 50, 0
1, 49110, Note_on_c, 1, 48, 127
1, 49134, Note_off_c, 1, 48, 0
1, 49176, Note_off_c, 1, 70, 0
1, 49200, Note_on_c, 1, 62, 127
1, 49296, Note_off_c, 1, 62, 0
1, 49320, Note_on_c, 1, 67, 127
1, 49416, Note_off_c, 1, 67, 0
1, 49440, Note_on_c, 1, 70, 127
1, 49440, Note_on_c, 1, 50, 127
1, 49536, Note_off_c, 1, 70, 0
1, 49536, Note_off_c, 1, 50, 0
1, 49560, Note_on_c, 1, 67, 127
1, 49560, Note_on_c, 1, 46, 127
1, 49656, Note_off_c, 1, 67, 0
1, 49656, Note_off_c, 1, 46, 0
1, 49680, Note_on_c, 1, 70, 127
1, 49680, Note_on_c, 1, 43, 127
1, 49776, Note_off_c, 1, 70, 0
1, 49776, Note_off_c, 1, 43, 0
1, 49800, Note_on_c, 1, 66, 127
1, 49800, Note_on_c, 1, 50, 127
1, 49824, Note_off_c, 1, 50, 0
1, 49830, Note_on_c, 1, 48, 127
1, 49854, Note_off_c, 1, 48, 0
1, 49896, Note_off_c, 1, 66, 0
1, 49920, Note_on_c, 1, 62, 127
1, 50016, Note_off_c, 1, 62, 0
1, 50160, Note_on_c, 1, 69, 127
1, 50256, Note_off_c, 1, 69, 0
1, 50280, Note_on_c, 1, 66, 127
1, 50376, Note_off_c, 1, 66, 0
1, 50400, Note_on_c, 1, 69, 127
1, 50400, Note_on_c, 1, 50, 127
1, 50496, Note_off_c, 1, 69, 0
1, 50496, Note_off_c, 1, 50, 0
1, 50520, Note_on_c, 1, 70, 127
1, 50520, Note_on_c, 1, 55, 127
1, 50616, Note_off_c, 1, 70, 0
1, 50616, Note_off_c, 1, 55, 0
1, 50640, Note_on_c, 1, 67, 127
1, 50640, Note_on_c, 1, 50, 127
1, 50736, Note_off_c, 1, 67, 0
1, 50736, Note_off_c, 1, 50, 0
1, 50760, Note_on_c, 1, 70, 127
1, 50760, Note_on_c, 1, 55, 127
1, 50856, Note_off_c, 1, 70, 0
1, 50856, Note_off_c, 1, 55, 0
1, 50880, Note_on_c, 1, 74, 127
1, 50880, Note_on_c, 1, 58, 127
1, 50976, Note_off_c, 1, 74, 0
1, 50976, Note_off_c, 1, 58, 0
1, 51000, Note_on_c, 1, 70, 127
1, 51000, Note_on_c, 1, 55, 127
1, 51096, Note_off_c, 1, 70, 0
1, 51096, Note_off_c, 1, 55, 0
1, 51120, Note_on_c, 1, 74, 127
1, 51120, Note_on_c, 1, 58, 127
1, 51216, Note_off_c, 1, 74, 0
1, 51216, Note_off_c, 1, 58, 0
1, 51240, Note_on_c, 1, 77, 127
1, 51240, Note_on_c, 1, 57, 127
1, 51264, Note_off_c, 1, 77, 0
1, 51270, Note_on_c, 1, 76, 127
1, 51294, Note_off_c, 1, 76, 0
1, 51336, Note_off_c, 1, 57, 0
1, 51360, Note_on_c, 1, 53, 127
1, 51456, Note_off_c, 1, 53, 0
1, 51600, Note_on_c, 1, 77, 127
1, 51600, Note_on_c, 1, 60, 127
1, 51696, Note_off_c, 1, 77, 0
1, 51696, Note_off_c, 1, 60, 0
1, 51720, Note_on_c, 1, 72, 127
1, 51720, Note_on_c, 1, 57, 127
1, 51816, Note_off_c, 1, 72, 0
1, 51816, Note_off_c, 1, 57, 0
1, 51840, Note_on_c, 1, 69, 127
1, 51840, Note_on_c, 1, 60, 127
1, 51936, Note_off_c, 1, 69, 0
1, 51936, Note_off_c, 1, 60, 0
1, 51960, Note_on_c, 1, 77, 127
1, 51960, Note_on_c, 1, 62, 127
1, 51984, Note_off_c, 1, 77, 0
1, 51990, Note_on_c, 1, 76, 127
1, 52014, Note_off_c, 1, 76, 0
1, 52056, Note_off_c, 1, 62, 0
1, 52080, Note_on_c, 1, 53, 127
1, 52176, Note_off_c, 1, 53, 0
1, 52200, Note_on_c, 1, 58, 127
1, 52296, Note_off_c, 1, 58, 0
1, 52320, Note_on_c, 1, 77, 127
1, 52320, Note_on_c, 1, 62, 127
1, 52416, Note_off_c, 1, 77, 0
1, 52416, Note_off_c, 1, 62, 0
1, 52440, Note_on_c, 1, 74, 127
1, 52440, Note_on_c, 1, 58, 127
1, 52536, Note_off_c, 1, 74, 0
1, 52536, Note_off_c, 1, 58, 0
1, 52560, Note_on_c, 1, 70, 127
1, 52560, Note_on_c, 1, 62, 127
1, 52656, Note_off_c, 1, 70, 0
1, 52656, Note_off_c, 1, 62, 0
1, 52680, Note_on_c, 1, 77, 127
1, 52680, Note_on_c, 1, 57, 127
1, 52704, Note_off_c, 1, 77, 0
1, 52710, Note_on_c, 1, 76, 127
1, 52734, Note_off_c, 1, 76, 0
1, 52776, Note_off_c, 1, 57, 0
1, 52800, Note_on_c, 1, 53, 127
1, 52896, Note_off_c, 1, 53, 0
1, 53040, Note_on_c, 1, 60, 127
1, 53136, Note_off_c, 1, 60, 0
1, 53160, Note_on_c, 1, 57, 127
1, 53256, Note_off_c, 1, 57, 0
1, 53280, Note_on_c, 1, 60, 127
1, 53376, Note_off_c, 1, 60, 0
1, 53400, Note_on_c, 1, 65, 127
1, 53496, Note_off_c, 1, 65, 0
1, 53520, Note_on_c, 1, 60, 127
1, 53616, Note_off_c, 1, 60, 0
1, 53640, Note_on_c, 1, 65, 127
1, 53736, Note_off_c, 1, 65, 0
1, 53760, Note_on_c, 1, 69, 127
1, 53856, Note_off_c, 1, 69, 0
1, 53880, Note_on_c, 1, 65, 127
1, 53976, Note_off_c, 1, 65, 0
1, 54000, Note_on_c, 1, 69, 127
1, 54000, Note_on_c, 1, 36, 127
1, 54096, Note_off_c, 1, 69, 0
1, 54096, Note_off_c, 1, 36, 0
1, 54120, Note_on_c, 1, 72, 127
1, 54120, Note_on_c, 1, 41, 127
1, 54216, Note_off_c, 1, 41, 0
1, 54240, Note_on_c, 1, 36, 127
1, 54312, Note_off_c, 1, 72, 0
1, 54336, Note_off_c, 1, 36, 0
1, 54360, Note_on_c, 1, 65, 127
1, 54360, Note_on_c, 1, 41, 127
1, 54456, Note_off_c, 1, 65, 0
1, 54456, Note_off_c, 1, 41, 0
1, 54480, Note_on_c, 1, 77, 127
1, 54480, Note_on_c, 1, 45, 127
1, 54504, Note_off_c, 1, 77, 0
1, 54510, Note_on_c, 1, 76, 127
1, 54534, Note_off_c, 1, 76, 0
1, 54576, Note_off_c, 1, 45, 0
1, 54600, Note_on_c, 1, 41, 127
1, 54696, Note_off_c, 1, 41, 0
1, 54840, Note_on_c, 1, 48, 127
1, 54936, Note_off_c, 1, 48, 0
1, 54960, Note_on_c, 1, 76, 127
1, 54960, Note_on_c, 1, 43, 127
1, 55056, Note_off_c, 1, 76, 0
1, 55056, Note_off_c, 1, 43, 0
1, 55080, Note_on_c, 1, 74, 127
1, 55080, Note_on_c, 1, 48, 127
1, 55176, Note_off_c, 1, 74, 0
1, 55176, Note_off_c, 1, 48, 0
1, 55200, Note_on_c, 1, 72, 127
1, 55200, Note_on_c, 1, 52, 127
1, 55296, Note_off_c, 1, 72, 0
1, 55296, Note_off_c, 1, 52, 0
1, 55320, Note_on_c, 1, 74, 127
1, 55320, Note_on_c, 1, 48, 127
1, 55416, Note_off_c, 1, 74, 0
1, 55416, Note_off_c, 1, 48, 0
1, 55440, Note_on_c, 1, 70, 127
1, 55440, Note_on_c, 1, 52, 127
1, 55536, Note_off_c, 1, 70, 0
1, 55536, Note_off_c, 1, 52, 0
1, 55560, Note_on_c, 1, 69, 127
1, 55560, Note_on_c, 1, 53, 127
1, 55656, Note_off_c, 1, 69, 0
1, 55656, Note_off_c, 1, 53, 0
1, 55680, Note_on_c, 1, 72, 127
1, 55680, Note_on_c, 1, 48, 127
1, 55776, Note_off_c, 1, 72, 0
1, 55776, Note_off_c, 1, 48, 0
1, 55800, Note_on_c, 1, 79, 127
1, 55800, Note_on_c, 1, 53, 127
1, 55896, Note_off_c, 1, 79, 0
1, 55896, Note_off_c, 1, 53, 0
1, 55920, Note_on_c, 1, 77, 127
1, 55920, Note_on_c, 1, 57, 127
1, 56016, Note_off_c, 1, 77, 0
1, 56016, Note_off_c, 1, 57, 0
1, 56040, Note_on_c, 1, 76, 127
1, 56040, Note_on_c, 1, 53, 127
1, 56136, Note_off_c, 1, 76, 0
1, 56136, Note_off_c, 1, 53, 0
1, 56160, Note_on_c, 1, 77, 127
1, 56160, Note_on_c, 1, 57, 127
1, 56256, Note_off_c, 1, 77, 0
1, 56256, Note_off_c, 1, 57, 0
1, 56280, Note_on_c, 1, 67, 127
1, 56280, Note_on_c, 1, 60, 127
1, 56376, Note_off_c, 1, 67, 0
1, 56400, Note_on_c, 1, 72, 127
1, 56496, Note_off_c, 1, 72, 0
1, 56520, Note_on_c, 1, 77, 127
1, 56568, Note_off_c, 1, 60, 0
1, 56616, Note_off_c, 1, 77, 0
1, 56640, Note_on_c, 1, 76, 127
1, 56736, Note_off_c, 1, 76, 0
1, 56760, Note_on_c, 1, 74, 127
1, 56856, Note_off_c, 1, 74, 0
1, 56880, Note_on_c, 1, 76, 127
1, 56880, Note_on_c, 1, 49, 127
1, 56976, Note_off_c, 1, 76, 0
1, 56976, Note_off_c, 1, 49, 0
1, 57000, Note_on_c, 1, 65, 127
1, 57000, Note_on_c, 1, 50, 127
1, 57096, Note_off_c, 1, 65, 0
1, 57096, Note_off_c, 1, 50, 0
1, 57120, Note_on_c, 1, 69, 127
1, 57120, Note_on_c, 1, 45, 127
1, 57216, Note_off_c, 1, 69, 0
1, 57216, Note_off_c, 1, 45, 0
1, 57240, Note_on_c, 1, 76, 127
1, 57240, Note_on_c, 1, 50, 127
1, 57336, Note_off_c, 1, 76, 0
1, 57336, Note_off_c, 1, 50, 0
1, 57360, Note_on_c, 1, 74, 127
1, 57360, Note_on_c, 1, 53, 127
1, 57456, Note_off_c, 1, 74, 0
1, 57456, Note_off_c, 1, 53, 0
1, 57480, Note_on_c, 1, 73, 127
1, 57480, Note_on_c, 1, 50, 127
1, 57576, Note_off_c, 1, 73, 0
1, 57576, Note_off_c, 1, 50, 0
1, 57600, Note_on_c, 1, 74, 127
1, 57600, Note_on_c, 1, 53, 127
1, 57696, Note_off_c, 1, 74, 0
1, 57696, Note_off_c, 1, 53, 0
1, 57720, Note_on_c, 1, 64, 127
1, 57720, Note_on_c, 1, 57, 127
1, 57816, Note_off_c, 1, 64, 0
1, 57840, Note_on_c, 1, 69, 127
1, 57912, Note_off_c, 1, 57, 0
1, 57936, Note_off_c, 1, 69, 0
1, 57960, Note_on_c, 1, 74, 127
1, 58056, Note_off_c, 1, 74, 0
1, 58080, Note_on_c, 1, 72, 127
1, 58176, Note_off_c, 1, 72, 0
1, 58200, Note_on_c, 1, 71, 127
1, 58296, Note_off_c, 1, 71, 0
1, 58320, Note_on_c, 1, 72, 127
1, 58320, Note_on_c, 1, 41, 127
1, 58416, Note_off_c, 1, 72, 0
1, 58416, Note_off_c, 1, 41, 0
1, 58440, Note_on_c, 1, 62, 127
1, 58440, Note_on_c, 1, 46, 127
1, 58536, Note_off_c, 1, 62, 0
1, 58536, Note_off_c, 1, 46, 0
1, 58560, Note_on_c, 1, 65, 127
1, 58560, Note_on_c, 1, 41, 127
1, 58656, Note_off_c, 1, 65, 0
1, 58656, Note_off_c, 1, 41, 0
1, 58680, Note_on_c, 1, 72, 127
1, 58680, Note_on_c, 1, 46, 127
1, 58776, Note_off_c, 1, 72, 0
1, 58776, Note_off_c, 1, 46, 0
1, 58800, Note_on_c, 1, 70, 127
1, 58800, Note_on_c, 1, 50, 127
1, 58896, Note_off_c, 1, 70, 0
1, 58896, Note_off_c, 1, 50, 0
1, 58920, Note_on_c, 1, 69, 127
1, 58920, Note_on_c, 1, 46, 127
1, 59016, Note_off_c, 1, 69, 0
1, 59016, Note_off_c, 1, 46, 0
1, 59040, Note_on_c, 1, 70, 127
1, 59040, Note_on_c, 1, 50, 127
1, 59136, Note_off_c, 1, 70, 0
1, 59136, Note_off_c, 1, 50, 0
1, 59160, Note_on_c, 1, 60, 127
1, 59160, Note_on_c, 1, 53, 127
1, 59256, Note_off_c, 1, 60, 0
1, 59280, Note_on_c, 1, 65, 127
1, 59352, Note_off_c, 1, 53, 0
1, 59376, Note_off_c, 1, 65, 0
1, 59400, Note_on_c, 1, 70, 127
1, 59400, Note_on_c, 1, 41, 127
1, 59496, Note_off_c, 1, 70, 0
1, 59496, Note_off_c, 1, 41, 0
1, 59520, Note_on_c, 1, 69, 127
1, 59520, Note_on_c, 1, 53, 127
1, 59544, Note_off_c, 1, 53, 0
1, 59550, Note_on_c, 1, 52, 127
1, 59574, Note_off_c, 1, 52, 0
1, 59616, Note_off_c, 1, 69, 0
1, 59640, Note_on_c, 1, 67, 127
1, 59736, Note_off_c, 1, 67, 0
1, 59880, Note_on_c, 1, 59, 127
1, 59976, Note_off_c, 1, 59, 0
1, 60000, Note_on_c, 1, 62, 127
1, 60096, Note_off_c, 1, 62, 0
1, 60120, Note_on_c, 1, 67, 127
1, 60120, Note_on_c, 1, 40, 127
1, 60216, Note_off_c, 1, 67, 0
1, 60216, Note_off_c, 1, 40, 0
1, 60240, Note_on_c, 1, 60, 127
1, 60240, Note_on_c, 1, 52, 127
1, 60336, Note_off_c, 1, 60, 0
1, 60360, Note_on_c, 1, 64, 127
1, 60456, Note_off_c, 1, 64, 0
1, 60480, Note_on_c, 1, 67, 127
1, 60576, Note_off_c, 1, 67, 0
1, 60600, Note_on_c, 1, 57, 127
1, 60696, Note_off_c, 1, 57, 0
1, 60792, Note_off_c, 1, 52, 0
1, 60840, Note_on_c, 1, 65, 127
1, 60840, Note_on_c, 1, 38, 127
1, 60936, Note_off_c, 1, 65, 0
1, 60936, Note_off_c, 1, 38, 0
1, 60960, Note_on_c, 1, 59, 127
1, 60960, Note_on_c, 1, 50, 127
1, 61056, Note_off_c, 1, 59, 0
1, 61080, Note_on_c, 1, 62, 127
1, 61152, Note_off_c, 1, 50, 0
1, 61176, Note_off_c, 1, 62, 0
1, 61200, Note_on_c, 1, 65, 127
1, 61200, Note_on_c, 1, 43, 127
1, 61296, Note_off_c, 1, 65, 0
1, 61296, Note_off_c, 1, 43, 0
1, 61320, Note_on_c, 1, 64, 127
1, 61320, Note_on_c, 1, 48, 127
1, 61416, Note_off_c, 1, 64, 0
1, 61440, Note_on_c, 1, 67, 127
1, 61512, Note_off_c, 1, 48, 0
1, 61536, Note_off_c, 1, 67, 0
1, 61560, Note_on_c, 1, 72, 127
1, 61560, Note_on_c, 1, 52, 127
1, 61656, Note_off_c, 1, 72, 0
1, 61656, Note_off_c, 1, 52, 0
1, 61680, Note_on_c, 1, 66, 127
1, 61680, Note_on_c, 1, 45, 127
1, 61776, Note_off_c, 1, 66, 0
1, 61800, Note_on_c, 1, 69, 127
1, 61872, Note_off_c, 1, 45, 0
1, 61896, Note_off_c, 1, 69, 0
1, 61920, Note_on_c, 1, 72, 127
1, 61920, Note_on_c, 1, 50, 127
1, 62016, Note_off_c, 1, 72, 0
1, 62016, Note_off_c, 1, 50, 0
1, 62040, Note_on_c, 1, 71, 127
1, 62040, Note_on_c, 1, 43, 127
1, 62136, Note_off_c, 1, 71, 0
1, 62160, Note_on_c, 1, 69, 127
1, 62256, Note_off_c, 1, 69, 0
1, 62280, Note_on_c, 1, 67, 127
1, 62328, Note_off_c, 1, 43, 0
1, 62376, Note_off_c, 1, 67, 0
1, 62400, Note_on_c, 1, 67, 127
1, 62496, Note_off_c, 1, 67, 0
1, 62520, Note_on_c, 1, 69, 127
1, 62520, Note_on_c, 1, 55, 127
1, 62616, Note_off_c, 1, 69, 0
1, 62616, Note_off_c, 1, 55, 0
1, 62640, Note_on_c, 1, 71, 127
1, 62640, Note_on_c, 1, 53, 127
1, 62736, Note_off_c, 1, 71, 0
1, 62736, Note_off_c, 1, 53, 0
1, 62760, Note_on_c, 1, 72, 127
1, 62760, Note_on_c, 1, 52, 127
1, 62856, Note_off_c, 1, 72, 0
1, 62856, Note_off_c, 1, 52, 0
1, 62880, Note_on_c, 1, 74, 127
1, 62880, Note_on_c, 1, 53, 127
1, 62976, Note_off_c, 1, 74, 0
1, 62976, Note_off_c, 1, 53, 0
1, 63000, Note_on_c, 1, 76, 127
1, 63000, Note_on_c, 1, 55, 127
1, 63096, Note_off_c, 1, 76, 0
1, 63096, Note_off_c, 1, 55, 0
1, 63120, Note_on_c, 1, 76, 127
1, 63120, Note_on_c, 1, 55, 127
1, 63216, Note_off_c, 1, 76, 0
1, 63216, Note_off_c, 1, 55, 0
1, 63240, Note_on_c, 1, 77, 127
1, 63240, Note_on_c, 1, 57, 127
1, 63336, Note_off_c, 1, 77, 0
1, 63336, Note_off_c, 1, 57, 0
1, 63360, Note_on_c, 1, 79, 127
1, 63360, Note_on_c, 1, 59, 127
1, 63456, Note_off_c, 1, 79, 0
1, 63456, Note_off_c, 1, 59, 0
1, 63480, Note_on_c, 1, 79, 127
1, 63480, Note_on_c, 1, 60, 127
1, 63504, Note_off_c, 1, 79, 0
1, 63510, Note_on_c, 1, 77, 127
1, 63534, Note_off_c, 1, 77, 0
1, 63576, Note_off_c, 1, 60, 0
1, 63600, Note_on_c, 1, 43, 127
1, 63696, Note_off_c, 1, 43, 0
1, 63720, Note_on_c, 1, 48, 127
1, 63816, Note_off_c, 1, 48, 0
1, 63840, Note_on_c, 1, 79, 127
1, 63840, Note_on_c, 1, 52, 127
1, 63936, Note_off_c, 1, 79, 0
1, 63936, Note_off_c, 1, 52, 0
1, 63960, Note_on_c, 1, 76, 127
1, 63960, Note_on_c, 1, 48, 127
1, 64056, Note_off_c, 1, 76, 0
1, 64056, Note_off_c, 1, 48, 0
1, 64080, Note_on_c, 1, 72, 127
1, 64080, Note_on_c, 1, 52, 127
1, 64176, Note_off_c, 1, 72, 0
1, 64176, Note_off_c, 1, 52, 0
1, 64200, Note_on_c, 1, 79, 127
1, 64200, Note_on_c, 1, 47, 127
1, 64224, Note_off_c, 1, 79, 0
1, 64230, Note_on_c, 1, 77, 127
1, 64254, Note_off_c, 1, 77, 0
1, 64296, Note_off_c, 1, 47, 0
1, 64320, Note_on_c, 1, 43, 127
1, 64416, Note_off_c, 1, 43, 0
1, 64560, Note_on_c, 1, 79, 127
1, 64560, Note_on_c, 1, 50, 127
1, 64656, Note_off_c, 1, 79, 0
1, 64656, Note_off_c, 1, 50, 0
1, 64680, Note_on_c, 1, 74, 127
1, 64680, Note_on_c, 1, 47, 127
1, 64776, Note_off_c, 1, 74, 0
1, 64776, Note_off_c, 1, 47, 0
1, 64800, Note_on_c, 1, 71, 127
1, 64800, Note_on_c, 1, 50, 127
1, 64896, Note_off_c, 1, 71, 0
1, 64896, Note_off_c, 1, 50, 0
1, 64920, Note_on_c, 1, 79, 127
1, 64920, Note_on_c, 1, 52, 127
1, 64944, Note_off_c, 1, 79, 0
1, 64950, Note_on_c, 1, 77, 127
1, 64974, Note_off_c, 1, 77, 0
1, 65016, Note_off_c, 1, 52, 0
1, 65040, Note_on_c, 1, 43, 127
1, 65136, Note_off_c, 1, 43, 0
1, 65160, Note_on_c, 1, 48, 127
1, 65256, Note_off_c, 1, 48, 0
1, 65280, Note_on_c, 1, 79, 127
1, 65280, Note_on_c, 1, 52, 127
1, 65376, Note_off_c, 1, 79, 0
1, 65376, Note_off_c, 1, 52, 0
1, 65400, Note_on_c, 1, 76, 127
1, 65400, Note_on_c, 1, 48, 127
1, 65496, Note_off_c, 1, 76, 0
1, 65496, Note_off_c, 1, 48, 0
1, 65520, Note_on_c, 1, 72, 127
1, 65520, Note_on_c, 1, 52, 127
1, 65616, Note_off_c, 1, 72, 0
1, 65616, Note_off_c, 1, 52, 0
1, 65640, Note_on_c, 1, 79, 127
1, 65640, Note_on_c, 1, 47, 127
1, 65664, Note_off_c, 1, 79, 0
1, 65670, Note_on_c, 1, 77, 127
1, 65694, Note_off_c, 1, 77, 0
1, 65736, Note_off_c, 1, 47, 0
1, 65760, Note_on_c, 1, 43, 127
1, 65856, Note_off_c, 1, 43, 0
1, 66000, Note_on_c, 1, 79, 127
1, 66000, Note_on_c, 1, 50, 127
1, 66096, Note_off_c, 1, 79, 0
1, 66096, Note_off_c, 1, 50, 0
1, 66120, Note_on_c, 1, 74, 127
1, 66120, Note_on_c, 1, 47, 127
1, 66216, Note_off_c, 1, 74, 0
1, 66216, Note_off_c, 1, 47, 0
1, 66240, Note_on_c, 1, 71, 127
1, 66240, Note_on_c, 1, 50, 127
1, 66336, Note_off_c, 1, 71, 0
1, 66336, Note_off_c, 1, 50, 0
1, 66360, Note_on_c, 1, 72, 127
1, 66360, Note_on_c, 1, 52, 127
1, 66456, Note_off_c, 1, 72, 0
1, 66456, Note_off_c, 1, 52, 0
1, 66480, Note_on_c, 1, 69, 127
1, 66480, Note_on_c, 1, 48, 127
1, 66576, Note_off_c, 1, 69, 0
1, 66576, Note_off_c, 1, 48, 0
1, 66600, Note_on_c, 1, 77, 127
1, 66600, Note_on_c, 1, 45, 127
1, 66696, Note_off_c, 1, 77, 0
1, 66696, Note_off_c, 1, 45, 0
1, 66720, Note_on_c, 1, 71, 127
1, 66720, Note_on_c, 1, 50, 127
1, 66816, Note_off_c, 1, 71, 0
1, 66816, Note_off_c, 1, 50, 0
1, 66840, Note_on_c, 1, 67, 127
1, 66840, Note_on_c, 1, 47, 127
1, 66936, Note_off_c, 1, 67, 0
1, 66936, Note_off_c, 1, 47, 0
1, 66960, Note_on_c, 1, 76, 127
1, 66960, Note_on_c, 1, 43, 127
1, 67056, Note_off_c, 1, 76, 0
1, 67056, Note_off_c, 1, 43, 0
1, 67080, Note_on_c, 1, 69, 127
1, 67080, Note_on_c, 1, 48, 127
1, 67176, Note_off_c, 1, 69, 0
1, 67176, Note_off_c, 1, 48, 0
1, 67200, Note_on_c, 1, 65, 127
1, 67200, Note_on_c, 1, 45, 127
1, 67296, Note_off_c, 1, 65, 0
1, 67296, Note_off_c, 1, 45, 0
1, 67320, Note_on_c, 1, 74, 127
1, 67320, Note_on_c, 1, 41, 127
1, 67416, Note_off_c, 1, 74, 0
1, 67416, Note_off_c, 1, 41, 0
1, 67440, Note_on_c, 1, 67, 127
1, 67440, Note_on_c, 1, 47, 127
1, 67536, Note_off_c, 1, 67, 0
1, 67536, Note_off_c, 1, 47, 0
1, 67560, Note_on_c, 1, 64, 127
1, 67560, Note_on_c, 1, 43, 127
1, 67656, Note_off_c, 1, 64, 0
1, 67656, Note_off_c, 1, 43, 0
1, 67680, Note_on_c, 1, 72, 127
1, 67680, Note_on_c, 1, 40, 127
1, 67776, Note_off_c, 1, 72, 0
1, 67776, Note_off_c, 1, 40, 0
1, 67800, Note_on_c, 1, 65, 127
1, 67800, Note_on_c, 1, 45, 127
1, 67896, Note_off_c, 1, 65, 0
1, 67896, Note_off_c, 1, 45, 0
1, 67920, Note_on_c, 1, 62, 127
1, 67920, Note_on_c, 1, 41, 127
1, 68016, Note_off_c, 1, 62, 0
1, 68016, Note_off_c, 1, 41, 0
1, 68040, Note_on_c, 1, 72, 127
1, 68040, Note_on_c, 1, 38, 127
1, 68136, Note_off_c, 1, 72, 0
1, 68136, Note_off_c, 1, 38, 0
1, 68160, Note_on_c, 1, 65, 127
1, 68160, Note_on_c, 1, 43, 127
1, 68256, Note_off_c, 1, 65, 0
1, 68256, Note_off_c, 1, 43, 0
1, 68280, Note_on_c, 1, 62, 127
1, 68280, Note_on_c, 1, 41, 127
1, 68376, Note_off_c, 1, 62, 0
1, 68376, Note_off_c, 1, 41, 0
1, 68400, Note_on_c, 1, 71, 127
1, 68400, Note_on_c, 1, 43, 127
1, 68496, Note_off_c, 1, 71, 0
1, 68496, Note_off_c, 1, 43, 0
1, 68520, Note_on_c, 1, 72, 127
1, 68520, Note_on_c, 1, 36, 127
1, 68616, Note_off_c, 1, 72, 0
1, 68640, Note_on_c, 1, 64, 127
1, 68736, Note_off_c, 1, 64, 0
1, 68760, Note_on_c, 1, 67, 127
1, 68856, Note_off_c, 1, 67, 0
1, 68880, Note_on_c, 1, 60, 127
1, 69072, Note_off_c, 1, 36, 0
1, 69072, Note_off_c, 1, 60, 0
1, 69120, Note_on_c, 1, 67, 127
1, 69216, Note_off_c, 1, 67, 0
1, 69240, Note_on_c, 1, 64, 127
1, 69336, Note_off_c, 1, 64, 0
1, 69360, Note_on_c, 1, 67, 127
1, 69456, Note_off_c, 1, 67, 0
1, 69480, Note_on_c, 1, 64, 127
1, 69576, Note_off_c, 1, 64, 0
1, 69600, Note_on_c, 1, 60, 127
1, 69696, Note_off_c, 1, 60, 0
1, 69720, Note_on_c, 1, 64, 127
1, 69816, Note_off_c, 1, 64, 0
1, 69840, Note_on_c, 1, 60, 127
1, 69840, Note_on_c, 1, 79, 127
1, 69936, Note_off_c, 1, 60, 0
1, 69936, Note_off_c, 1, 79, 0
1, 69960, Note_on_c, 1, 76, 127
1, 69960, Note_on_c, 1, 55, 127
1, 70056, Note_off_c, 1, 76, 0
1, 70080, Note_on_c, 1, 79, 127
1, 70152, Note_off_c, 1, 55, 0
1, 70176, Note_off_c, 1, 79, 0
1, 70200, Note_on_c, 1, 76, 127
1, 70200, Note_on_c, 1, 60, 127
1, 70296, Note_off_c, 1, 76, 0
1, 70296, Note_off_c, 1, 60, 0
1, 70320, Note_on_c, 1, 72, 127
1, 70320, Note_on_c, 1, 48, 127
1, 70416, Note_off_c, 1, 72, 0
1, 70440, Note_on_c, 1, 76, 127
1, 70536, Note_off_c, 1, 76, 0
1, 70680, Note_on_c, 1, 67, 127
1, 70776, Note_off_c, 1, 48, 0
1, 70776, Note_off_c, 1, 67, 0
1, 70800, Note_on_c, 1, 72, 127
1, 70800, Note_on_c, 1, 50, 127
1, 70896, Note_off_c, 1, 72, 0
1, 70896, Note_off_c, 1, 50, 0
1, 70920, Note_on_c, 1, 70, 127
1, 70920, Note_on_c, 1, 52, 127
1, 71016, Note_off_c, 1, 70, 0
1, 71016, Note_off_c, 1, 52, 0
1, 71040, Note_on_c, 1, 69, 127
1, 71040, Note_on_c, 1, 53, 127
1, 71136, Note_off_c, 1, 69, 0
1, 71136, Note_off_c, 1, 53, 0
1, 71160, Note_on_c, 1, 70, 127
1, 71160, Note_on_c, 1, 52, 127
1, 71256, Note_off_c, 1, 70, 0
1, 71256, Note_off_c, 1, 52, 0
1, 71280, Note_on_c, 1, 67, 127
1, 71280, Note_on_c, 1, 55, 127
1, 71376, Note_off_c, 1, 67, 0
1, 71376, Note_off_c, 1, 55, 0
1, 71400, Note_on_c, 1, 65, 127
1, 71400, Note_on_c, 1, 57, 127
1, 71496, Note_off_c, 1, 65, 0
1, 71496, Note_off_c, 1, 57, 0
1, 71520, Note_on_c, 1, 64, 127
1, 71520, Note_on_c, 1, 55, 127
1, 71616, Note_off_c, 1, 64, 0
1, 71616, Note_off_c, 1, 55, 0
1, 71640, Note_on_c, 1, 67, 127
1, 71640, Note_on_c, 1, 58, 127
1, 71736, Note_off_c, 1, 67, 0
1, 71736, Note_off_c, 1, 58, 0
1, 71760, Note_on_c, 1, 65, 127
1, 71760, Note_on_c, 1, 57, 127
1, 71856, Note_off_c, 1, 57, 0
1, 71880, Note_on_c, 1, 58, 127
1, 71952, Note_off_c, 1, 65, 0
1, 71976, Note_off_c, 1, 58, 0
1, 72000, Note_on_c, 1, 84, 127
1, 72000, Note_on_c, 1, 60, 127
1, 72096, Note_off_c, 1, 84, 0
1, 72096, Note_off_c, 1, 60, 0
1, 72120, Note_on_c, 1, 81, 127
1, 72120, Note_on_c, 1, 53, 127
1, 72216, Note_off_c, 1, 81, 0
1, 72240, Note_on_c, 1, 84, 127
1, 72336, Note_off_c, 1, 84, 0
1, 72408, Note_off_c, 1, 53, 0
1, 72480, Note_on_c, 1, 77, 127
1, 72576, Note_off_c, 1, 77, 0
1, 72600, Note_on_c, 1, 81, 127
1, 72696, Note_off_c, 1, 81, 0
1, 72720, Note_on_c, 1, 77, 127
1, 72720, Note_on_c, 1, 53, 127
1, 72816, Note_off_c, 1, 77, 0
1, 72816, Note_off_c, 1, 53, 0
1, 72840, Note_on_c, 1, 72, 127
1, 72840, Note_on_c, 1, 57, 127
1, 72936, Note_off_c, 1, 57, 0
1, 72960, Note_on_c, 1, 53, 127
1, 73032, Note_off_c, 1, 72, 0
1, 73056, Note_off_c, 1, 53, 0
1, 73080, Note_on_c, 1, 77, 127
1, 73080, Note_on_c, 1, 57, 127
1, 73176, Note_off_c, 1, 77, 0
1, 73176, Note_off_c, 1, 57, 0
1, 73200, Note_on_c, 1, 65, 127
1, 73200, Note_on_c, 1, 60, 127
1, 73296, Note_off_c, 1, 60, 0
1, 73320, Note_on_c, 1, 57, 127
1, 73416, Note_off_c, 1, 57, 0
1, 73560, Note_on_c, 1, 63, 127
1, 73656, Note_off_c, 1, 65, 0
1, 73680, Note_on_c, 1, 67, 127
1, 73752, Note_off_c, 1, 63, 0
1, 73776, Note_off_c, 1, 67, 0
1, 73800, Note_on_c, 1, 69, 127
1, 73800, Note_on_c, 1, 51, 127
1, 73896, Note_off_c, 1, 69, 0
1, 73896, Note_off_c, 1, 51, 0
1, 73920, Note_on_c, 1, 70, 127
1, 73920, Note_on_c, 1, 50, 127
1, 74016, Note_off_c, 1, 70, 0
1, 74040, Note_on_c, 1, 69, 127
1, 74112, Note_off_c, 1, 50, 0
1, 74136, Note_off_c, 1, 69, 0
1, 74160, Note_on_c, 1, 72, 127
1, 74160, Note_on_c, 1, 48, 127
1, 74256, Note_off_c, 1, 72, 0
1, 74256, Note_off_c, 1, 48, 0
1, 74280, Note_on_c, 1, 74, 127
1, 74280, Note_on_c, 1, 46, 127
1, 74376, Note_off_c, 1, 74, 0
1, 74400, Note_on_c, 1, 72, 127
1, 74472, Note_off_c, 1, 46, 0
1, 74496, Note_off_c, 1, 72, 0
1, 74520, Note_on_c, 1, 75, 127
1, 74520, Note_on_c, 1, 53, 127
1, 74616, Note_off_c, 1, 75, 0
1, 74616, Note_off_c, 1, 53, 0
1, 74640, Note_on_c, 1, 74, 127
1, 74640, Note_on_c, 1, 58, 127
1, 74736, Note_off_c, 1, 74, 0
1, 74736, Note_off_c, 1, 58, 0
1, 74760, Note_on_c, 1, 76, 127
1, 74760, Note_on_c, 1, 60, 127
1, 74856, Note_off_c, 1, 76, 0
1, 74856, Note_off_c, 1, 60, 0
1, 74880, Note_on_c, 1, 78, 127
1, 74880, Note_on_c, 1, 57, 127
1, 74976, Note_off_c, 1, 78, 0
1, 74976, Note_off_c, 1, 57, 0
1, 75000, Note_on_c, 1, 79, 127
1, 75000, Note_on_c, 1, 58, 127
1, 75096, Note_off_c, 1, 79, 0
1, 75096, Note_off_c, 1, 58, 0
1, 75120, Note_on_c, 1, 78, 127
1, 75120, Note_on_c, 1, 60, 127
1, 75216, Note_off_c, 1, 78, 0
1, 75216, Note_off_c, 1, 60, 0
1, 75240, Note_on_c, 1, 81, 127
1, 75240, Note_on_c, 1, 57, 127
1, 75336, Note_off_c, 1, 81, 0
1, 75336, Note_off_c, 1, 57, 0
1, 75360, Note_on_c, 1, 79, 127
1, 75360, Note_on_c, 1, 59, 127
1, 75456, Note_off_c, 1, 79, 0
1, 75480, Note_on_c, 1, 77, 127
1, 75552, Note_off_c, 1, 59, 0
1, 75576, Note_off_c, 1, 77, 0
1, 75600, Note_on_c, 1, 76, 127
1, 75600, Note_on_c, 1, 61, 127
1, 75696, Note_off_c, 1, 76, 0
1, 75696, Note_off_c, 1, 61, 0
1, 75720, Note_on_c, 1, 77, 127
1, 75720, Note_on_c, 1, 62, 127
1, 75816, Note_off_c, 1, 77, 0
1, 75816, Note_off_c, 1, 62, 0
1, 75840, Note_on_c, 1, 76, 127
1, 75840, Note_on_c, 1, 61, 127
1, 75936, Note_off_c, 1, 76, 0
1, 75936, Note_off_c, 1, 61, 0
1, 75960, Note_on_c, 1, 79, 127
1, 75960, Note_on_c, 1, 64, 127
1, 76056, Note_off_c, 1, 79, 0
1, 76056, Note_off_c, 1, 64, 0
1, 76080, Note_on_c, 1, 77, 127
1, 76080, Note_on_c, 1, 62, 127
1, 76176, Note_off_c, 1, 77, 0
1, 76176, Note_off_c, 1, 62, 0
1, 76200, Note_on_c, 1, 76, 127
1, 76200, Note_on_c, 1, 55, 127
1, 76296, Note_off_c, 1, 76, 0
1, 76296, Note_off_c, 1, 55, 0
1, 76320, Note_on_c, 1, 74, 127
1, 76320, Note_on_c, 1, 58, 127
1, 76416, Note_off_c, 1, 74, 0
1, 76416, Note_off_c, 1, 58, 0
1, 76440, Note_on_c, 1, 73, 127
1, 76440, Note_on_c, 1, 57, 127
1, 76536, Note_off_c, 1, 73, 0
1, 76560, Note_on_c, 1, 71, 127
1, 76632, Note_off_c, 1, 57, 0
1, 76656, Note_off_c, 1, 71, 0
1, 76680, Note_on_c, 1, 74, 127
1, 76680, Note_on_c, 1, 45, 127
1, 76776, Note_off_c, 1, 74, 0
1, 76776, Note_off_c, 1, 45, 0
1, 76800, Note_on_c, 1, 73, 127
1, 76800, Note_on_c, 1, 57, 127
1, 76824, Note_off_c, 1, 57, 0
1, 76830, Note_on_c, 1, 56, 127
1, 76854, Note_off_c, 1, 56, 0
1, 76896, Note_off_c, 1, 73, 0
1, 76920, Note_on_c, 1, 69, 127
1, 77016, Note_off_c, 1, 69, 0
1, 77160, Note_on_c, 1, 74, 127
1, 77256, Note_off_c, 1, 74, 0
1, 77400, Note_on_c, 1, 76, 127
1, 77400, Note_on_c, 1, 45, 127
1, 77496, Note_off_c, 1, 76, 0
1, 77496, Note_off_c, 1, 45, 0
1, 77520, Note_on_c, 1, 74, 127
1, 77520, Note_on_c, 1, 57, 127
1, 77544, Note_off_c, 1, 57, 0
1, 77550, Note_on_c, 1, 56, 127
1, 77574, Note_off_c, 1, 56, 0
1, 77616, Note_off_c, 1, 74, 0
1, 77640, Note_on_c, 1, 69, 127
1, 77736, Note_off_c, 1, 69, 0
1, 77880, Note_on_c, 1, 76, 127
1, 77880, Note_on_c, 1, 57, 127
1, 77976, Note_off_c, 1, 76, 0
1, 78000, Note_on_c, 1, 74, 127
1, 78072, Note_off_c, 1, 57, 0
1, 78096, Note_off_c, 1, 74, 0
1, 78120, Note_on_c, 1, 77, 127
1, 78120, Note_on_c, 1, 45, 127
1, 78216, Note_off_c, 1, 77, 0
1, 78216, Note_off_c, 1, 45, 0
1, 78240, Note_on_c, 1, 76, 127
1, 78240, Note_on_c, 1, 57, 127
1, 78264, Note_off_c, 1, 57, 0
1, 78270, Note_on_c, 1, 56, 127
1, 78294, Note_off_c, 1, 56, 0
1, 78336, Note_off_c, 1, 76, 0
1, 78360, Note_on_c, 1, 69, 127
1, 78456, Note_off_c, 1, 69, 0
1, 78600, Note_on_c, 1, 77, 127
1, 78696, Note_off_c, 1, 77, 0
1, 78840, Note_on_c, 1, 79, 127
1, 78840, Note_on_c, 1, 45, 127
1, 78936, Note_off_c, 1, 79, 0
1, 78936, Note_off_c, 1, 45, 0
1, 78960, Note_on_c, 1, 77, 127
1, 78960, Note_on_c, 1, 57, 127
1, 79056, Note_off_c, 1, 77, 0
1, 79080, Note_on_c, 1, 76, 127
1, 79152, Note_off_c, 1, 57, 0
1, 79176, Note_off_c, 1, 76, 0
1, 79200, Note_on_c, 1, 74, 127
1, 79200, Note_on_c, 1, 45, 127
1, 79296, Note_off_c, 1, 74, 0
1, 79296, Note_off_c, 1, 45, 0
1, 79320, Note_on_c, 1, 73, 127
1, 79320, Note_on_c, 1, 57, 127
1, 79416, Note_off_c, 1, 73, 0
1, 79416, Note_off_c, 1, 57, 0
1, 79440, Note_on_c, 1, 76, 127
1, 79440, Note_on_c, 1, 55, 127
1, 79536, Note_off_c, 1, 76, 0
1, 79536, Note_off_c, 1, 55, 0
1, 79560, Note_on_c, 1, 74, 127
1, 79560, Note_on_c, 1, 58, 127
1, 79656, Note_off_c, 1, 74, 0
1, 79656, Note_off_c, 1, 58, 0
1, 79680, Note_on_c, 1, 73, 127
1, 79680, Note_on_c, 1, 57, 127
1, 79776, Note_off_c, 1, 73, 0
1, 79776, Note_off_c, 1, 57, 0
1, 79800, Note_on_c, 1, 76, 127
1, 79800, Note_on_c, 1, 55, 127
1, 79896, Note_off_c, 1, 76, 0
1, 79896, Note_off_c, 1, 55, 0
1, 79920, Note_on_c, 1, 74, 127
1, 79920, Note_on_c, 1, 58, 127
1, 80016, Note_off_c, 1, 74, 0
1, 80016, Note_off_c, 1, 58, 0
1, 80040, Note_on_c, 1, 73, 127
1, 80040, Note_on_c, 1, 57, 127
1, 80136, Note_off_c, 1, 73, 0
1, 80136, Note_off_c, 1, 57, 0
1, 80160, Note_on_c, 1, 76, 127
1, 80160, Note_on_c, 1, 55, 127
1, 80256, Note_off_c, 1, 76, 0
1, 80256, Note_off_c, 1, 55, 0
1, 80280, Note_on_c, 1, 74, 127
1, 80280, Note_on_c, 1, 58, 127
1, 80376, Note_off_c, 1, 74, 0
1, 80376, Note_off_c, 1, 58, 0
1, 80400, Note_on_c, 1, 74, 127
1, 80400, Note_on_c, 1, 57, 127
1, 80424, Note_off_c, 1, 74, 0
1, 80430, Note_on_c, 1, 73, 127
1, 80454, Note_off_c, 1, 73, 0
1, 80496, Note_off_c, 1, 57, 0
1, 80520, Note_on_c, 1, 58, 127
1, 80616, Note_off_c, 1, 58, 0
1, 80640, Note_on_c, 1, 69, 127
1, 80640, Note_on_c, 1, 55, 127
1, 80736, Note_off_c, 1, 69, 0
1, 80736, Note_off_c, 1, 55, 0
1, 80760, Note_on_c, 1, 81, 127
1, 80760, Note_on_c, 1, 53, 127
1, 80856, Note_off_c, 1, 53, 0
1, 80880, Note_on_c, 1, 52, 127
1, 80952, Note_off_c, 1, 81, 0
1, 80976, Note_off_c, 1, 52, 0
1, 81000, Note_on_c, 1, 69, 127
1, 81000, Note_on_c, 1, 55, 127
1, 81096, Note_off_c, 1, 69, 0
1, 81096, Note_off_c, 1, 55, 0
1, 81120, Note_on_c, 1, 81, 127
1, 81120, Note_on_c, 1, 53, 127
1, 81216, Note_off_c, 1, 53, 0
1, 81240, Note_on_c, 1, 57, 127
1, 81336, Note_off_c, 1, 57, 0
1, 81360, Note_on_c, 1, 52, 127
1, 81456, Note_off_c, 1, 52, 0
1, 81672, Note_off_c, 1, 81, 0
1, 81720, Note_on_c, 1, 69, 127
1, 81720, Note_on_c, 1, 55, 127
1, 81816, Note_off_c, 1, 69, 0
1, 81816, Note_off_c, 1, 55, 0
1, 81840, Note_on_c, 1, 81, 127
1, 81840, Note_on_c, 1, 53, 127
1, 81936, Note_off_c, 1, 53, 0
1, 81960, Note_on_c, 1, 52, 127
1, 82056, Note_off_c, 1, 52, 0
1, 82065, Note_off_c, 1, 81, 0
1, 82080, Note_on_c, 1, 69, 127
1, 82080, Note_on_c, 1, 50, 127
1, 82176, Note_off_c, 1, 69, 0
1, 82176, Note_off_c, 1, 50, 0
1, 82200, Note_on_c, 1, 81, 127
1, 82200, Note_on_c, 1, 49, 127
1, 82296, Note_off_c, 1, 49, 0
1, 82320, Note_on_c, 1, 47, 127
1, 82392, Note_off_c, 1, 81, 0
1, 82416, Note_off_c, 1, 47, 0
1, 82440, Note_on_c, 1, 69, 127
1, 82440, Note_on_c, 1, 50, 127
1, 82536, Note_off_c, 1, 69, 0
1, 82536, Note_off_c, 1, 50, 0
1, 82560, Note_on_c, 1, 81, 127
1, 82560, Note_on_c, 1, 49, 127
1, 82656, Note_off_c, 1, 49, 0
1, 82680, Note_on_c, 1, 52, 127
1, 82776, Note_off_c, 1, 52, 0
1, 82800, Note_on_c, 1, 47, 127
1, 82896, Note_off_c, 1, 47, 0
1, 83112, Note_off_c, 1, 81, 0
1, 83160, Note_on_c, 1, 69, 127
1, 83160, Note_on_c, 1, 50, 127
1, 83256, Note_off_c, 1, 69, 0
1, 83256, Note_off_c, 1, 50, 0
1, 83280, Note_on_c, 1, 81, 127
1, 83280, Note_on_c, 1, 49, 127
1, 83376, Note_off_c, 1, 49, 0
1, 83400, Note_on_c, 1, 47, 127
1, 83496, Note_off_c, 1, 47, 0
1, 83505, Note_off_c, 1, 81, 0
1, 83520, Note_on_c, 1, 76, 127
1, 83520, Note_on_c, 1, 45, 127
1, 83616, Note_off_c, 1, 76, 0
1, 83616, Note_off_c, 1, 45, 0
1, 83640, Note_on_c, 1, 77, 127
1, 83640, Note_on_c, 1, 50, 127
1, 83688, Note_off_c, 1, 77, 0
1, 83700, Note_on_c, 1, 79, 127
1, 83748, Note_off_c, 1, 79, 0
1, 83760, Note_on_c, 1, 81, 127
1, 83832, Note_off_c, 1, 50, 0
1, 83856, Note_off_c, 1, 81, 0
1, 83880, Note_on_c, 1, 74, 127
1, 83880, Note_on_c, 1, 53, 127
1, 83976, Note_off_c, 1, 74, 0
1, 83976, Note_off_c, 1, 53, 0
1, 84000, Note_on_c, 1, 69, 127
1, 84000, Note_on_c, 1, 57, 127
1, 84096, Note_off_c, 1, 69, 0
1, 84120, Note_on_c, 1, 74, 127
1, 84192, Note_off_c, 1, 57, 0
1, 84216, Note_off_c, 1, 74, 0
1, 84240, Note_on_c, 1, 73, 127
1, 84240, Note_on_c, 1, 45, 127
1, 84336, Note_off_c, 1, 73, 0
1, 84336, Note_off_c, 1, 45, 0
1, 84360, Note_on_c, 1, 74, 127
1, 84360, Note_on_c, 1, 50, 127
1, 84456, Note_off_c, 1, 50, 0
1, 84480, Note_on_c, 1, 45, 127
1, 84576, Note_off_c, 1, 45, 0
1, 84720, Note_on_c, 1, 53, 127
1, 84816, Note_off_c, 1, 53, 0
1, 84912, Note_off_c, 1, 74, 0
1, 84960, Note_on_c, 1, 74, 127
1, 84960, Note_on_c, 1, 53, 127
1, 85056, Note_off_c, 1, 74, 0
1, 85056, Note_off_c, 1, 53, 0
1, 85080, Note_on_c, 1, 72, 127
1, 85080, Note_on_c, 1, 57, 127
1, 85176, Note_off_c, 1, 72, 0
1, 85200, Note_on_c, 1, 77, 127
1, 85296, Note_off_c, 1, 77, 0
1, 85368, Note_off_c, 1, 57, 0
1, 85440, Note_on_c, 1, 69, 127
1, 85536, Note_off_c, 1, 69, 0
1, 85560, Note_on_c, 1, 72, 127
1, 85656, Note_off_c, 1, 72, 0
1, 85680, Note_on_c, 1, 69, 127
1, 85680, Note_on_c, 1, 60, 127
1, 85776, Note_off_c, 1, 69, 0
1, 85776, Note_off_c, 1, 60, 0
1, 85800, Note_on_c, 1, 65, 127
1, 85800, Note_on_c, 1, 57, 127
1, 85896, Note_off_c, 1, 57, 0
1, 85920, Note_on_c, 1, 60, 127
1, 85992, Note_off_c, 1, 65, 0
1, 86016, Note_off_c, 1, 60, 0
1, 86040, Note_on_c, 1, 72, 127
1, 86040, Note_on_c, 1, 57, 127
1, 86136, Note_off_c, 1, 72, 0
1, 86136, Note_off_c, 1, 57, 0
1, 86160, Note_on_c, 1, 60, 127
1, 86160, Note_on_c, 1, 53, 127
1, 86256, Note_off_c, 1, 53, 0
1, 86280, Note_on_c, 1, 57, 127
1, 86376, Note_off_c, 1, 57, 0
1, 86520, Note_on_c, 1, 48, 127
1, 86616, Note_off_c, 1, 60, 0
1, 86616, Note_off_c, 1, 48, 0
1, 86640, Note_on_c, 1, 62, 127
1, 86640, Note_on_c, 1, 53, 127
1, 86736, Note_off_c, 1, 62, 0
1, 86736, Note_off_c, 1, 53, 0
1, 86760, Note_on_c, 1, 63, 127
1, 86760, Note_on_c, 1, 48, 127
1, 86856, Note_off_c, 1, 63, 0
1, 86856, Note_off_c, 1, 48, 0
1, 86880, Note_on_c, 1, 65, 127
1, 86880, Note_on_c, 1, 45, 127
1, 86976, Note_off_c, 1, 65, 0
1, 86976, Note_off_c, 1, 45, 0
1, 87000, Note_on_c, 1, 67, 127
1, 87000, Note_on_c, 1, 41, 127
1, 87096, Note_off_c, 1, 67, 0
1, 87096, Note_off_c, 1, 41, 0
1, 87120, Note_on_c, 1, 63, 127
1, 87120, Note_on_c, 1, 45, 127
1, 87216, Note_off_c, 1, 63, 0
1, 87216, Note_off_c, 1, 45, 0
1, 87240, Note_on_c, 1, 62, 127
1, 87240, Note_on_c, 1, 46, 127
1, 87336, Note_off_c, 1, 62, 0
1, 87336, Note_off_c, 1, 46, 0
1, 87360, Note_on_c, 1, 65, 127
1, 87360, Note_on_c, 1, 41, 127
1, 87456, Note_off_c, 1, 65, 0
1, 87456, Note_off_c, 1, 41, 0
1, 87480, Note_on_c, 1, 72, 127
1, 87480, Note_on_c, 1, 46, 127
1, 87576, Note_off_c, 1, 72, 0
1, 87576, Note_off_c, 1, 46, 0
1, 87600, Note_on_c, 1, 70, 127
1, 87600, Note_on_c, 1, 50, 127
1, 87696, Note_off_c, 1, 70, 0
1, 87696, Note_off_c, 1, 50, 0
1, 87720, Note_on_c, 1, 69, 127
1, 87720, Note_on_c, 1, 46, 127
1, 87816, Note_off_c, 1, 69, 0
1, 87816, Note_off_c, 1, 46, 0
1, 87840, Note_on_c, 1, 70, 127
1, 87840, Note_on_c, 1, 50, 127
1, 87936, Note_off_c, 1, 70, 0
1, 87936, Note_off_c, 1, 50, 0
1, 87960, Note_on_c, 1, 60, 127
1, 87960, Note_on_c, 1, 53, 127
1, 88056, Note_off_c, 1, 60, 0
1, 88080, Note_on_c, 1, 65, 127
1, 88176, Note_off_c, 1, 65, 0
1, 88200, Note_on_c, 1, 70, 127
1, 88248, Note_off_c, 1, 53, 0
1, 88296, Note_off_c, 1, 70, 0
1, 88320, Note_on_c, 1, 69, 127
1, 88416, Note_off_c, 1, 69, 0
1, 88440, Note_on_c, 1, 67, 127
1, 88536, Note_off_c, 1, 67, 0
1, 88560, Note_on_c, 1, 69, 127
1, 88560, Note_on_c, 1, 42, 127
1, 88656, Note_off_c, 1, 69, 0
1, 88656, Note_off_c, 1, 42, 0
1, 88680, Note_on_c, 1, 58, 127
1, 88680, Note_on_c, 1, 43, 127
1, 88776, Note_off_c, 1, 58, 0
1, 88776, Note_off_c, 1, 43, 0
1, 88800, Note_on_c, 1, 62, 127
1, 88800, Note_on_c, 1, 38, 127
1, 88896, Note_off_c, 1, 62, 0
1, 88896, Note_off_c, 1, 38, 0
1, 88920, Note_on_c, 1, 69, 127
1, 88920, Note_on_c, 1, 43, 127
1, 89016, Note_off_c, 1, 69, 0
1, 89016, Note_off_c, 1, 43, 0
1, 89040, Note_on_c, 1, 67, 127
1, 89040, Note_on_c, 1, 46, 127
1, 89136, Note_off_c, 1, 67, 0
1, 89136, Note_off_c, 1, 46, 0
1, 89160, Note_on_c, 1, 66, 127
1, 89160, Note_on_c, 1, 43, 127
1, 89256, Note_off_c, 1, 66, 0
1, 89256, Note_off_c, 1, 43, 0
1, 89280, Note_on_c, 1, 67, 127
1, 89280, Note_on_c, 1, 46, 127
1, 89376, Note_off_c, 1, 67, 0
1, 89376, Note_off_c, 1, 46, 0
1, 89400, Note_on_c, 1, 66, 127
1, 89400, Note_on_c, 1, 50, 127
1, 89496, Note_off_c, 1, 50, 0
1, 89520, Note_on_c, 1, 48, 127
1, 89592, Note_off_c, 1, 66, 0
1, 89616, Note_off_c, 1, 48, 0
1, 89640, Note_on_c, 1, 62, 127
1, 89640, Note_on_c, 1, 51, 127
1, 89736, Note_off_c, 1, 62, 0
1, 89736, Note_off_c, 1, 51, 0
1, 89760, Note_on_c, 1, 74, 127
1, 89760, Note_on_c, 1, 50, 127
1, 89856, Note_off_c, 1, 50, 0
1, 89880, Note_on_c, 1, 51, 127
1, 89976, Note_off_c, 1, 51, 0
1, 90000, Note_on_c, 1, 48, 127
1, 90096, Note_off_c, 1, 48, 0
1, 90120, Note_on_c, 1, 46, 127
1, 90216, Note_off_c, 1, 46, 0
1, 90240, Note_on_c, 1, 45, 127
1, 90312, Note_off_c, 1, 74, 0
1, 90336, Note_off_c, 1, 45, 0
1, 90360, Note_on_c, 1, 62, 127
1, 90360, Note_on_c, 1, 48, 127
1, 90456, Note_off_c, 1, 62, 0
1, 90456, Note_off_c, 1, 48, 0
1, 90480, Note_on_c, 1, 74, 127
1, 90480, Note_on_c, 1, 46, 127
1, 90576, Note_off_c, 1, 46, 0
1, 90600, Note_on_c, 1, 48, 127
1, 90672, Note_off_c, 1, 74, 0
1, 90696, Note_off_c, 1, 48, 0
1, 90720, Note_on_c, 1, 62, 127
1, 90720, Note_on_c, 1, 45, 127
1, 90816, Note_off_c, 1, 62, 0
1, 90816, Note_off_c, 1, 45, 0
1, 90840, Note_on_c, 1, 74, 127
1, 90840, Note_on_c, 1, 43, 127
1, 90936, Note_off_c, 1, 43, 0
1, 90960, Note_on_c, 1, 42, 127
1, 91032, Note_off_c, 1, 74, 0
1, 91056, Note_off_c, 1, 42, 0
1, 91080, Note_on_c, 1, 62, 127
1, 91080, Note_on_c, 1, 45, 127
1, 91176, Note_off_c, 1, 62, 0
1, 91176, Note_off_c, 1, 45, 0
1, 91200, Note_on_c, 1, 74, 127
1, 91200, Note_on_c, 1, 43, 127
1, 91296, Note_off_c, 1, 43, 0
1, 91320, Note_on_c, 1, 46, 127
1, 91416, Note_off_c, 1, 46, 0
1, 91440, Note_on_c, 1, 45, 127
1, 91536, Note_off_c, 1, 45, 0
1, 91560, Note_on_c, 1, 42, 127
1, 91656, Note_off_c, 1, 42, 0
1, 91752, Note_off_c, 1, 74, 0
1, 91800, Note_on_c, 1, 62, 127
1, 91800, Note_on_c, 1, 45, 127
1, 91896, Note_off_c, 1, 62, 0
1, 91896, Note_off_c, 1, 45, 0
1, 91920, Note_on_c, 1, 74, 127
1, 91920, Note_on_c, 1, 38, 127
1, 92016, Note_off_c, 1, 74, 0
1, 92040, Note_on_c, 1, 76, 127
1, 92136, Note_off_c, 1, 76, 0
1, 92160, Note_on_c, 1, 78, 127
1, 92256, Note_off_c, 1, 78, 0
1, 92280, Note_on_c, 1, 79, 127
1, 92376, Note_off_c, 1, 79, 0
1, 92472, Note_off_c, 1, 38, 0
1, 92520, Note_on_c, 1, 81, 127
1, 92520, Note_on_c, 1, 38, 127
1, 92616, Note_off_c, 1, 81, 0
1, 92616, Note_off_c, 1, 38, 0
1, 92640, Note_on_c, 1, 79, 127
1, 92640, Note_on_c, 1, 50, 127
1, 92664, Note_off_c, 1, 50, 0
1, 92670, Note_on_c, 1, 49, 127
1, 92694, Note_off_c, 1, 49, 0
1, 92736, Note_off_c, 1, 79, 0
1, 92760, Note_on_c, 1, 74, 127
1, 92760, Note_on_c, 1, 50, 127
1, 92856, Note_off_c, 1, 74, 0
1, 92880, Note_on_c, 1, 79, 127
1, 92976, Note_off_c, 1, 79, 0
1, 93000, Note_on_c, 1, 81, 127
1, 93096, Note_off_c, 1, 81, 0
1, 93192, Note_off_c, 1, 50, 0
1, 93240, Note_on_c, 1, 82, 127
1, 93240, Note_on_c, 1, 38, 127
1, 93336, Note_off_c, 1, 82, 0
1, 93336, Note_off_c, 1, 38, 0
1, 93360, Note_on_c, 1, 81, 127
1, 93360, Note_on_c, 1, 50, 127
1, 93456, Note_off_c, 1, 81, 0
1, 93480, Note_on_c, 1, 74, 127
1, 93552, Note_off_c, 1, 50, 0
1, 93576, Note_off_c, 1, 74, 0
1, 93600, Note_on_c, 1, 81, 127
1, 93600, Note_on_c, 1, 38, 127
1, 93696, Note_off_c, 1, 81, 0
1, 93696, Note_off_c, 1, 38, 0
1, 93720, Note_on_c, 1, 82, 127
1, 93720, Note_on_c, 1, 50, 127
1, 93816, Note_off_c, 1, 82, 0
1, 93840, Note_on_c, 1, 81, 127
1, 93912, Note_off_c, 1, 50, 0
1, 93936, Note_off_c, 1, 81, 0
1, 93960, Note_on_c, 1, 84, 127
1, 93960, Note_on_c, 1, 38, 127
1, 94056, Note_off_c, 1, 84, 0
1, 94056, Note_off_c, 1, 38, 0
1, 94080, Note_on_c, 1, 82, 127
1, 94080, Note_on_c, 1, 50, 127
1, 94104, Note_off_c, 1, 50, 0
1, 94110, Note_on_c, 1, 49, 127
1, 94134, Note_off_c, 1, 49, 0
1, 94176, Note_off_c, 1, 82, 0
1, 94200, Note_on_c, 1, 81, 127
1, 94296, Note_off_c, 1, 81, 0
1, 94320, Note_on_c, 1, 79, 127
1, 94416, Note_off_c, 1, 79, 0
1, 94440, Note_on_c, 1, 78, 127
1, 94536, Note_off_c, 1, 78, 0
1, 94560, Note_on_c, 1, 76, 127
1, 94560, Note_on_c, 1, 50, 127
1, 94656, Note_off_c, 1, 76, 0
1, 94656, Note_off_c, 1, 50, 0
1, 94680, Note_on_c, 1, 74, 127
1, 94680, Note_on_c, 1, 52, 127
1, 94776, Note_off_c, 1, 74, 0
1, 94776, Note_off_c, 1, 52, 0
1, 94800, Note_on_c, 1, 81, 127
1, 94800, Note_on_c, 1, 54, 127
1, 94896, Note_off_c, 1, 54, 0
1, 94920, Note_on_c, 1, 52, 127
1, 94992, Note_off_c, 1, 81, 0
1, 95016, Note_off_c, 1, 52, 0
1, 95040, Note_on_c, 1, 72, 127
1, 95040, Note_on_c, 1, 50, 127
1, 95136, Note_off_c, 1, 72, 0
1, 95136, Note_off_c, 1, 50, 0
1, 95160, Note_on_c, 1, 70, 127
1, 95160, Note_on_c, 1, 55, 127
1, 95208, Note_off_c, 1, 70, 0
1, 95220, Note_on_c, 1, 72, 127
1, 95256, Note_off_c, 1, 55, 0
1, 95268, Note_off_c, 1, 72, 0
1, 95280, Note_on_c, 1, 74, 127
1, 95280, Note_on_c, 1, 46, 127
1, 95376, Note_off_c, 1, 74, 0
1, 95376, Note_off_c, 1, 46, 0
1, 95400, Note_on_c, 1, 67, 127
1, 95400, Note_on_c, 1, 48, 127
1, 95496, Note_off_c, 1, 67, 0
1, 95496, Note_off_c, 1, 48, 0
1, 95520, Note_on_c, 1, 62, 127
1, 95520, Note_on_c, 1, 50, 127
1, 95616, Note_off_c, 1, 62, 0
1, 95616, Note_off_c, 1, 50, 0
1, 95640, Note_on_c, 1, 67, 127
1, 95640, Note_on_c, 1, 48, 127
1, 95736, Note_off_c, 1, 67, 0
1, 95736, Note_off_c, 1, 48, 0
1, 95760, Note_on_c, 1, 66, 127
1, 95760, Note_on_c, 1, 50, 127
1, 95856, Note_off_c, 1, 66, 0
1, 95856, Note_off_c, 1, 50, 0
1, 95880, Note_on_c, 1, 67, 127
1, 95880, Note_on_c, 1, 43, 127
1, 95976, Note_off_c, 1, 43, 0
1, 96000, Note_on_c, 1, 62, 127
1, 96096, Note_off_c, 1, 62, 0
1, 96120, Note_on_c, 1, 58, 127
1, 96168, Note_off_c, 1, 67, 0
1, 96216, Note_off_c, 1, 58, 0
1, 96240, Note_on_c, 1, 55, 127
1, 96336, Note_off_c, 1, 55, 0
1, 96360, Note_on_c, 1, 58, 127
1, 96456, Note_off_c, 1, 58, 0
1, 96480, Note_on_c, 1, 70, 127
1, 96480, Note_on_c, 1, 55, 127
1, 96576, Note_off_c, 1, 70, 0
1, 96576, Note_off_c, 1, 55, 0
1, 96600, Note_on_c, 1, 60, 127
1, 96600, Note_on_c, 1, 52, 127
1, 96696, Note_off_c, 1, 60, 0
1, 96720, Note_on_c, 1, 64, 127
1, 96792, Note_off_c, 1, 52, 0
1, 96816, Note_off_c, 1, 64, 0
1, 96840, Note_on_c, 1, 67, 127
1, 96840, Note_on_c, 1, 60, 127
1, 96936, Note_off_c, 1, 67, 0
1, 96936, Note_off_c, 1, 60, 0
1, 96960, Note_on_c, 1, 70, 127
1, 96960, Note_on_c, 1, 48, 127
1, 97056, Note_off_c, 1, 70, 0
1, 97080, Note_on_c, 1, 67, 127
1, 97176, Note_off_c, 1, 67, 0
1, 97200, Note_on_c, 1, 69, 127
1, 97296, Note_off_c, 1, 69, 0
1, 97416, Note_off_c, 1, 48, 0
1, 97440, Note_on_c, 1, 64, 127
1, 97440, Note_on_c, 1, 60, 127
1, 97536, Note_off_c, 1, 64, 0
1, 97536, Note_off_c, 1, 60, 0
1, 97560, Note_on_c, 1, 65, 127
1, 97560, Note_on_c, 1, 57, 127
1, 97656, Note_off_c, 1, 65, 0
1, 97656, Note_off_c, 1, 57, 0
1, 97680, Note_on_c, 1, 69, 127
1, 97680, Note_on_c, 1, 53, 127
1, 97776, Note_off_c, 1, 69, 0
1, 97776, Note_off_c, 1, 53, 0
1, 97800, Note_on_c, 1, 64, 127
1, 97800, Note_on_c, 1, 57, 127
1, 97896, Note_off_c, 1, 64, 0
1, 97896, Note_off_c, 1, 57, 0
1, 97920, Note_on_c, 1, 65, 127
1, 97920, Note_on_c, 1, 53, 127
1, 98016, Note_off_c, 1, 65, 0
1, 98016, Note_off_c, 1, 53, 0
1, 98040, Note_on_c, 1, 58, 127
1, 98040, Note_on_c, 1, 50, 127
1, 98136, Note_off_c, 1, 58, 0
1, 98160, Note_on_c, 1, 62, 127
1, 98232, Note_off_c, 1, 50, 0
1, 98256, Note_off_c, 1, 62, 0
1, 98280, Note_on_c, 1, 65, 127
1, 98280, Note_on_c, 1, 58, 127
1, 98376, Note_off_c, 1, 65, 0
1, 98376, Note_off_c, 1, 58, 0
1, 98400, Note_on_c, 1, 69, 127
1, 98400, Note_on_c, 1, 46, 127
1, 98496, Note_off_c, 1, 69, 0
1, 98520, Note_on_c, 1, 65, 127
1, 98616, Note_off_c, 1, 65, 0
1, 98640, Note_on_c, 1, 67, 127
1, 98736, Note_off_c, 1, 67, 0
1, 98856, Note_off_c, 1, 46, 0
1, 98880, Note_on_c, 1, 62, 127
1, 98880, Note_on_c, 1, 58, 127
1, 98976, Note_off_c, 1, 62, 0
1, 98976, Note_off_c, 1, 58, 0
1, 99000, Note_on_c, 1, 64, 127
1, 99000, Note_on_c, 1, 55, 127
1, 99096, Note_off_c, 1, 64, 0
1, 99096, Note_off_c, 1, 55, 0
1, 99120, Note_on_c, 1, 67, 127
1, 99120, Note_on_c, 1, 52, 127
1, 99216, Note_off_c, 1, 67, 0
1, 99216, Note_off_c, 1, 52, 0
1, 99240, Note_on_c, 1, 62, 127
1, 99240, Note_on_c, 1, 55, 127
1, 99336, Note_off_c, 1, 62, 0
1, 99336, Note_off_c, 1, 55, 0
1, 99360, Note_on_c, 1, 64, 127
1, 99360, Note_on_c, 1, 52, 127
1, 99456, Note_off_c, 1, 64, 0
1, 99456, Note_off_c, 1, 52, 0
1, 99480, Note_on_c, 1, 57, 127
1, 99480, Note_on_c, 1, 48, 127
1, 99576, Note_off_c, 1, 57, 0
1, 99600, Note_on_c, 1, 60, 127
1, 99672, Note_off_c, 1, 48, 0
1, 99696, Note_off_c, 1, 60, 0
1, 99720, Note_on_c, 1, 64, 127
1, 99720, Note_on_c, 1, 57, 127
1, 99816, Note_off_c, 1, 64, 0
1, 99816, Note_off_c, 1, 57, 0
1, 99840, Note_on_c, 1, 67, 127
1, 99840, Note_on_c, 1, 45, 127
1, 99936, Note_off_c, 1, 67, 0
1, 99960, Note_on_c, 1, 64, 127
1, 100032, Note_off_c, 1, 45, 0
1, 100056, Note_off_c, 1, 64, 0
1, 100080, Note_on_c, 1, 65, 127
1, 100080, Note_on_c, 1, 50, 127
1, 100176, Note_off_c, 1, 65, 0
1, 100176, Note_off_c, 1, 50, 0
1, 100200, Note_on_c, 1, 55, 127
1, 100200, Note_on_c, 1, 46, 127
1, 100296, Note_off_c, 1, 55, 0
1, 100320, Note_on_c, 1, 58, 127
1, 100392, Note_off_c, 1, 46, 0
1, 100416, Note_off_c, 1, 58, 0
1, 100440, Note_on_c, 1, 62, 127
1, 100440, Note_on_c, 1, 55, 127
1, 100536, Note_off_c, 1, 62, 0
1, 100536, Note_off_c, 1, 55, 0
1, 100560, Note_on_c, 1, 65, 127
1, 100560, Note_on_c, 1, 43, 127
1, 100656, Note_off_c, 1, 65, 0
1, 100680, Note_on_c, 1, 62, 127
1, 100752, Note_off_c, 1, 43, 0
1, 100776, Note_off_c, 1, 62, 0
1, 100800, Note_on_c, 1, 64, 127
1, 100800, Note_on_c, 1, 48, 127
1, 100896, Note_off_c, 1, 64, 0
1, 100896, Note_off_c, 1, 48, 0
1, 100920, Note_on_c, 1, 53, 127
1, 100920, Note_on_c, 1, 45, 127
1, 101016, Note_off_c, 1, 53, 0
1, 101040, Note_on_c, 1, 57, 127
1, 101112, Note_off_c, 1, 45, 0
1, 101136, Note_off_c, 1, 57, 0
1, 101160, Note_on_c, 1, 60, 127
1, 101160, Note_on_c, 1, 53, 127
1, 101256, Note_off_c, 1, 60, 0
1, 101256, Note_off_c, 1, 53, 0
1, 101280, Note_on_c, 1, 67, 127
1, 101280, Note_on_c, 1, 47, 127
1, 101376, Note_off_c, 1, 67, 0
1, 101400, Note_on_c, 1, 64, 127
1, 101472, Note_off_c, 1, 47, 0
1, 101496, Note_off_c, 1, 64, 0
1, 101520, Note_on_c, 1, 65, 127
1, 101520, Note_on_c, 1, 55, 127
1, 101616, Note_off_c, 1, 65, 0
1, 101616, Note_off_c, 1, 55, 0
1, 101640, Note_on_c, 1, 69, 127
1, 101640, Note_on_c, 1, 48, 127
1, 101736, Note_off_c, 1, 69, 0
1, 101760, Note_on_c, 1, 64, 127
1, 101832, Note_off_c, 1, 48, 0
1, 101856, Note_off_c, 1, 64, 0
1, 101880, Note_on_c, 1, 65, 127
1, 101880, Note_on_c, 1, 57, 127
1, 101976, Note_off_c, 1, 65, 0
1, 101976, Note_off_c, 1, 57, 0
1, 102000, Note_on_c, 1, 71, 127
1, 102000, Note_on_c, 1, 50, 127
1, 102096, Note_off_c, 1, 71, 0
1, 102120, Note_on_c, 1, 64, 127
1, 102192, Note_off_c, 1, 50, 0
1, 102216, Note_off_c, 1, 64, 0
1, 102240, Note_on_c, 1, 65, 127
1, 102240, Note_on_c, 1, 59, 127
1, 102336, Note_off_c, 1, 65, 0
1, 102336, Note_off_c, 1, 59, 0
1, 102360, Note_on_c, 1, 72, 127
1, 102360, Note_on_c, 1, 48, 127
1, 102456, Note_off_c, 1, 72, 0
1, 102480, Note_on_c, 1, 64, 127
1, 102576, Note_off_c, 1, 64, 0
1, 102600, Note_on_c, 1, 67, 127
1, 102648, Note_off_c, 1, 48, 0
1, 102696, Note_off_c, 1, 67, 0
1, 102720, Note_on_c, 1, 72, 127
1, 102816, Note_off_c, 1, 72, 0
1, 102840, Note_on_c, 1, 74, 127
1, 102840, Note_on_c, 1, 48, 127
1, 102936, Note_off_c, 1, 74, 0
1, 102936, Note_off_c, 1, 48, 0
1, 102960, Note_on_c, 1, 76, 127
1, 102960, Note_on_c, 1, 46, 127
1, 103056, Note_off_c, 1, 76, 0
1, 103056, Note_off_c, 1, 46, 0
1, 103080, Note_on_c, 1, 77, 127
1, 103080, Note_on_c, 1, 45, 127
1, 103176, Note_off_c, 1, 77, 0
1, 103176, Note_off_c, 1, 45, 0
1, 103200, Note_on_c, 1, 79, 127
1, 103200, Note_on_c, 1, 43, 127
1, 103296, Note_off_c, 1, 79, 0
1, 103296, Note_off_c, 1, 43, 0
1, 103320, Note_on_c, 1, 81, 127
1, 103320, Note_on_c, 1, 41, 127
1, 103416, Note_off_c, 1, 81, 0
1, 103416, Note_off_c, 1, 41, 0
1, 103440, Note_on_c, 1, 81, 127
1, 103440, Note_on_c, 1, 41, 127
1, 103536, Note_off_c, 1, 81, 0
1, 103536, Note_off_c, 1, 41, 0
1, 103560, Note_on_c, 1, 82, 127
1, 103560, Note_on_c, 1, 43, 127
1, 103656, Note_off_c, 1, 82, 0
1, 103656, Note_off_c, 1, 43, 0
1, 103680, Note_on_c, 1, 84, 127
1, 103680, Note_on_c, 1, 45, 127
1, 103776, Note_off_c, 1, 84, 0
1, 103776, Note_off_c, 1, 45, 0
1, 103800, Note_on_c, 1, 84, 127
1, 103800, Note_on_c, 1, 45, 127
1, 103824, Note_off_c, 1, 84, 0
1, 103830, Note_on_c, 1, 83, 127
1, 103854, Note_off_c, 1, 83, 0
1, 103896, Note_off_c, 1, 45, 0
1, 103920, Note_on_c, 1, 36, 127
1, 104016, Note_off_c, 1, 36, 0
1, 104040, Note_on_c, 1, 41, 127
1, 104136, Note_off_c, 1, 41, 0
1, 104160, Note_on_c, 1, 84, 127
1, 104160, Note_on_c, 1, 45, 127
1, 104256, Note_off_c, 1, 84, 0
1, 104256, Note_off_c, 1, 45, 0
1, 104280, Note_on_c, 1, 81, 127
1, 104280, Note_on_c, 1, 41, 127
1, 104376, Note_off_c, 1, 81, 0
1, 104376, Note_off_c, 1, 41, 0
1, 104400, Note_on_c, 1, 77, 127
1, 104400, Note_on_c, 1, 45, 127
1, 104496, Note_off_c, 1, 77, 0
1, 104496, Note_off_c, 1, 45, 0
1, 104520, Note_on_c, 1, 84, 127
1, 104520, Note_on_c, 1, 48, 127
1, 104544, Note_off_c, 1, 84, 0
1, 104550, Note_on_c, 1, 83, 127
1, 104574, Note_off_c, 1, 83, 0
1, 104616, Note_off_c, 1, 48, 0
1, 104640, Note_on_c, 1, 43, 127
1, 104736, Note_off_c, 1, 43, 0
1, 104880, Note_on_c, 1, 84, 127
1, 104880, Note_on_c, 1, 52, 127
1, 104976, Note_off_c, 1, 84, 0
1, 104976, Note_off_c, 1, 52, 0
1, 105000, Note_on_c, 1, 79, 127
1, 105000, Note_on_c, 1, 48, 127
1, 105096, Note_off_c, 1, 79, 0
1, 105096, Note_off_c, 1, 48, 0
1, 105120, Note_on_c, 1, 76, 127
1, 105120, Note_on_c, 1, 52, 127
1, 105216, Note_off_c, 1, 76, 0
1, 105216, Note_off_c, 1, 52, 0
1, 105240, Note_on_c, 1, 84, 127
1, 105240, Note_on_c, 1, 53, 127
1, 105264, Note_off_c, 1, 84, 0
1, 105270, Note_on_c, 1, 83, 127
1, 105294, Note_off_c, 1, 83, 0
1, 105336, Note_off_c, 1, 53, 0
1, 105360, Note_on_c, 1, 48, 127
1, 105456, Note_off_c, 1, 48, 0
1, 105600, Note_on_c, 1, 84, 127
1, 105600, Note_on_c, 1, 57, 127
1, 105696, Note_off_c, 1, 84, 0
1, 105696, Note_off_c, 1, 57, 0
1, 105720, Note_on_c, 1, 81, 127
1, 105720, Note_on_c, 1, 53, 127
1, 105816, Note_off_c, 1, 81, 0
1, 105816, Note_off_c, 1, 53, 0
1, 105840, Note_on_c, 1, 77, 127
1, 105840, Note_on_c, 1, 57, 127
1, 105936, Note_off_c, 1, 77, 0
1, 105936, Note_off_c, 1, 57, 0
1, 105960, Note_on_c, 1, 84, 127
1, 105960, Note_on_c, 1, 60, 127
1, 105984, Note_off_c, 1, 84, 0
1, 105990, Note_on_c, 1, 83, 127
1, 106014, Note_off_c, 1, 83, 0
1, 106056, Note_off_c, 1, 60, 0
1, 106080, Note_on_c, 1, 55, 127
1, 106176, Note_off_c, 1, 55, 0
1, 106320, Note_on_c, 1, 84, 127
1, 106320, Note_on_c, 1, 64, 127
1, 106416, Note_off_c, 1, 84, 0
1, 106416, Note_off_c, 1, 64, 0
1, 106440, Note_on_c, 1, 79, 127
1, 106440, Note_on_c, 1, 60, 127
1, 106536, Note_off_c, 1, 79, 0
1, 106536, Note_off_c, 1, 60, 0
1, 106560, Note_on_c, 1, 76, 127
1, 106560, Note_on_c, 1, 64, 127
1, 106656, Note_off_c, 1, 76, 0
1, 106656, Note_off_c, 1, 64, 0
1, 106680, Note_on_c, 1, 77, 127
1, 106680, Note_on_c, 1, 69, 127
1, 106776, Note_off_c, 1, 77, 0
1, 106776, Note_off_c, 1, 69, 0
1, 106800, Note_on_c, 1, 74, 127
1, 106800, Note_on_c, 1, 65, 127
1, 106896, Note_off_c, 1, 74, 0
1, 106896, Note_off_c, 1, 65, 0
1, 106920, Note_on_c, 1, 82, 127
1, 106920, Note_on_c, 1, 62, 127
1, 107016, Note_off_c, 1, 82, 0
1, 107016, Note_off_c, 1, 62, 0
1, 107040, Note_on_c, 1, 76, 127
1, 107040, Note_on_c, 1, 67, 127
1, 107136, Note_off_c, 1, 76, 0
1, 107136, Note_off_c, 1, 67, 0
1, 107160, Note_on_c, 1, 72, 127
1, 107160, Note_on_c, 1, 64, 127
1, 107256, Note_off_c, 1, 72, 0
1, 107256, Note_off_c, 1, 64, 0
1, 107280, Note_on_c, 1, 81, 127
1, 107280, Note_on_c, 1, 60, 127
1, 107376, Note_off_c, 1, 81, 0
1, 107376, Note_off_c, 1, 60, 0
1, 107400, Note_on_c, 1, 74, 127
1, 107400, Note_on_c, 1, 65, 127
1, 107496, Note_off_c, 1, 74, 0
1, 107496, Note_off_c, 1, 65, 0
1, 107520, Note_on_c, 1, 70, 127
1, 107520, Note_on_c, 1, 62, 127
1, 107616, Note_off_c, 1, 70, 0
1, 107616, Note_off_c, 1, 62, 0
1, 107640, Note_on_c, 1, 79, 127
1, 107640, Note_on_c, 1, 58, 127
1, 107736, Note_off_c, 1, 79, 0
1, 107736, Note_off_c, 1, 58, 0
1, 107760, Note_on_c, 1, 72, 127
1, 107760, Note_on_c, 1, 64, 127
1, 107856, Note_off_c, 1, 72, 0
1, 107856, Note_off_c, 1, 64, 0
1, 107880, Note_on_c, 1, 69, 127
1, 107880, Note_on_c, 1, 60, 127
1, 107976, Note_off_c, 1, 69, 0
1, 107976, Note_off_c, 1, 60, 0
1, 108000, Note_on_c, 1, 77, 127
1, 108000, Note_on_c, 1, 57, 127
1, 108096, Note_off_c, 1, 77, 0
1, 108096, Note_off_c, 1, 57, 0
1, 108120, Note_on_c, 1, 70, 127
1, 108120, Note_on_c, 1, 62, 127
1, 108216, Note_off_c, 1, 70, 0
1, 108216, Note_off_c, 1, 62, 0
1, 108240, Note_on_c, 1, 67, 127
1, 108240, Note_on_c, 1, 58, 127
1, 108336, Note_off_c, 1, 67, 0
1, 108336, Note_off_c, 1, 58, 0
1, 108360, Note_on_c, 1, 77, 127
1, 108360, Note_on_c, 1, 55, 127
1, 108456, Note_off_c, 1, 77, 0
1, 108456, Note_off_c, 1, 55, 0
1, 108480, Note_on_c, 1, 70, 127
1, 108480, Note_on_c, 1, 60, 127
1, 108576, Note_off_c, 1, 70, 0
1, 108600, Note_on_c, 1, 67, 127
1, 108672, Note_off_c, 1, 60, 0
1, 108696, Note_off_c, 1, 67, 0
1, 108720, Note_on_c, 1, 76, 127
1, 108720, Note_on_c, 1, 48, 127
1, 108816, Note_off_c, 1, 76, 0
1, 108816, Note_off_c, 1, 48, 0
1, 108840, Note_on_c, 1, 77, 127
1, 108840, Note_on_c, 1, 41, 127
1, 108936, Note_off_c, 1, 77, 0
1, 108960, Note_on_c, 1, 69, 127
1, 109056, Note_off_c, 1, 69, 0
1, 109080, Note_on_c, 1, 72, 127
1, 109176, Note_off_c, 1, 72, 0
1, 109200, Note_on_c, 1, 65, 127
1, 109392, Note_off_c, 1, 41, 0
1, 109392, Note_off_c, 1, 65, 0
1, 109440, Note_on_c, 1, 67, 127
1, 109536, Note_off_c, 1, 67, 0
1, 109560, Note_on_c, 1, 64, 127
1, 109656, Note_off_c, 1, 64, 0
1, 109680, Note_on_c, 1, 67, 127
1, 109776, Note_off_c, 1, 67, 0
1, 109800, Note_on_c, 1, 64, 127
1, 109896, Note_off_c, 1, 64, 0
1, 109920, Note_on_c, 1, 60, 127
1, 110016, Note_off_c, 1, 60, 0
1, 110040, Note_on_c, 1, 64, 127
1, 110136, Note_off_c, 1, 64, 0
1, 110160, Note_on_c, 1, 60, 127
1, 110160, Note_on_c, 1, 79, 127
1, 110256, Note_off_c, 1, 60, 0
1, 110256, Note_off_c, 1, 79, 0
1, 110280, Note_on_c, 1, 76, 127
1, 110280, Note_on_c, 1, 55, 127
1, 110376, Note_off_c, 1, 76, 0
1, 110400, Note_on_c, 1, 79, 127
1, 110472, Note_off_c, 1, 55, 0
1, 110496, Note_off_c, 1, 79, 0
1, 110520, Note_on_c, 1, 76, 127
1, 110520, Note_on_c, 1, 60, 127
1, 110616, Note_off_c, 1, 76, 0
1, 110616, Note_off_c, 1, 60, 0
1, 110640, Note_on_c, 1, 72, 127
1, 110640, Note_on_c, 1, 48, 127
1, 110736, Note_off_c, 1, 72, 0
1, 110760, Note_on_c, 1, 76, 127
1, 110856, Note_off_c, 1, 76, 0
1, 111000, Note_on_c, 1, 67, 127
1, 111096, Note_off_c, 1, 48, 0
1, 111096, Note_off_c, 1, 67, 0
1, 111120, Note_on_c, 1, 72, 127
1, 111120, Note_on_c, 1, 50, 127
1, 111216, Note_off_c, 1, 72, 0
1, 111216, Note_off_c, 1, 50, 0
1, 111240, Note_on_c, 1, 70, 127
1, 111240, Note_on_c, 1, 52, 127
1, 111336, Note_off_c, 1, 70, 0
1, 111336, Note_off_c, 1, 52, 0
1, 111360, Note_on_c, 1, 69, 127
1, 111360, Note_on_c, 1, 53, 127
1, 111456, Note_off_c, 1, 69, 0
1, 111456, Note_off_c, 1, 53, 0
1, 111480, Note_on_c, 1, 70, 127
1, 111480, Note_on_c, 1, 52, 127
1, 111576, Note_off_c, 1, 70, 0
1, 111576, Note_off_c, 1, 52, 0
1, 111600, Note_on_c, 1, 67, 127
1, 111600, Note_on_c, 1, 55, 127
1, 111696, Note_off_c, 1, 67, 0
1, 111696, Note_off_c, 1, 55, 0
1, 111720, Note_on_c, 1, 65, 127
1, 111720, Note_on_c, 1, 57, 127
1, 111816, Note_off_c, 1, 65, 0
1, 111816, Note_off_c, 1, 57, 0
1, 111840, Note_on_c, 1, 64, 127
1, 111840, Note_on_c, 1, 55, 127
1, 111936, Note_off_c, 1, 64, 0
1, 111936, Note_off_c, 1, 55, 0
1, 111960, Note_on_c, 1, 67, 127
1, 111960, Note_on_c, 1, 58, 127
1, 112056, Note_off_c, 1, 67, 0
1, 112056, Note_off_c, 1, 58, 0
1, 112080, Note_on_c, 1, 65, 127
1, 112080, Note_on_c, 1, 57, 127
1, 112176, Note_off_c, 1, 57, 0
1, 112200, Note_on_c, 1, 58, 127
1, 112272, Note_off_c, 1, 65, 0
1, 112296, Note_off_c, 1, 58, 0
1, 112320, Note_on_c, 1, 84, 127
1, 112320, Note_on_c, 1, 60, 127
1, 112416, Note_off_c, 1, 84, 0
1, 112416, Note_off_c, 1, 60, 0
1, 112440, Note_on_c, 1, 81, 127
1, 112440, Note_on_c, 1, 53, 127
1, 112536, Note_off_c, 1, 81, 0
1, 112560, Note_on_c, 1, 84, 127
1, 112656, Note_off_c, 1, 84, 0
1, 112728, Note_off_c, 1, 53, 0
1, 112800, Note_on_c, 1, 77, 127
1, 112896, Note_off_c, 1, 77, 0
1, 112920, Note_on_c, 1, 81, 127
1, 113016, Note_off_c, 1, 81, 0
1, 113040, Note_on_c, 1, 77, 127
1, 113040, Note_on_c, 1, 53, 127
1, 113136, Note_off_c, 1, 77, 0
1, 113136, Note_off_c, 1, 53, 0
1, 113160, Note_on_c, 1, 72, 127
1, 113160, Note_on_c, 1, 57, 127
1, 113256, Note_off_c, 1, 57, 0
1, 113280, Note_on_c, 1, 53, 127
1, 113352, Note_off_c, 1, 72, 0
1, 113376, Note_off_c, 1, 53, 0
1, 113400, Note_on_c, 1, 77, 127
1, 113400, Note_on_c, 1, 57, 127
1, 113496, Note_off_c, 1, 77, 0
1, 113496, Note_off_c, 1, 57, 0
1, 113520, Note_on_c, 1, 65, 127
1, 113520, Note_on_c, 1, 60, 127
1, 113616, Note_off_c, 1, 60, 0
1, 113640, Note_on_c, 1, 57, 127
1, 113736, Note_off_c, 1, 57, 0
1, 113880, Note_on_c, 1, 63, 127
1, 113976, Note_off_c, 1, 65, 0
1, 114000, Note_on_c, 1, 67, 127
1, 114072, Note_off_c, 1, 63, 0
1, 114096, Note_off_c, 1, 67, 0
1, 114120, Note_on_c, 1, 69, 127
1, 114120, Note_on_c, 1, 51, 127
1, 114216, Note_off_c, 1, 69, 0
1, 114216, Note_off_c, 1, 51, 0
1, 114240, Note_on_c, 1, 70, 127
1, 114240, Note_on_c, 1, 50, 127
1, 114336, Note_off_c, 1, 70, 0
1, 114360, Note_on_c, 1, 69, 127
1, 114432, Note_off_c, 1, 50, 0
1, 114456, Note_off_c, 1, 69, 0
1, 114480, Note_on_c, 1, 72, 127
1, 114480, Note_on_c, 1, 48, 127
1, 114576, Note_off_c, 1, 72, 0
1, 114576, Note_off_c, 1, 48, 0
1, 114600, Note_on_c, 1, 74, 127
1, 114600, Note_on_c, 1, 46, 127
1, 114696, Note_off_c, 1, 74, 0
1, 114720, Note_on_c, 1, 72, 127
1, 114792, Note_off_c, 1, 46, 0
1, 114816, Note_off_c, 1, 72, 0
1, 114840, Note_on_c, 1, 75, 127
1, 114840, Note_on_c, 1, 53, 127
1, 114936, Note_off_c, 1, 75, 0
1, 114936, Note_off_c, 1, 53, 0
1, 114960, Note_on_c, 1, 74, 127
1, 114960, Note_on_c, 1, 58, 127
1, 115056, Note_off_c, 1, 74, 0
1, 115056, Note_off_c, 1, 58, 0
1, 115080, Note_on_c, 1, 76, 127
1, 115080, Note_on_c, 1, 60, 127
1, 115176, Note_off_c, 1, 76, 0
1, 115176, Note_off_c, 1, 60, 0
1, 115200, Note_on_c, 1, 78, 127
1, 115200, Note_on_c, 1, 57, 127
1, 115296, Note_off_c, 1, 78, 0
1, 115296, Note_off_c, 1, 57, 0
1, 115320, Note_on_c, 1, 79, 127
1, 115320, Note_on_c, 1, 58, 127
1, 115416, Note_off_c, 1, 79, 0
1, 115416, Note_off_c, 1, 58, 0
1, 115440, Note_on_c, 1, 78, 127
1, 115440, Note_on_c, 1, 60, 127
1, 115536, Note_off_c, 1, 78, 0
1, 115536, Note_off_c, 1, 60, 0
1, 115560, Note_on_c, 1, 81, 127
1, 115560, Note_on_c, 1, 57, 127
1, 115656, Note_off_c, 1, 81, 0
1, 115656, Note_off_c, 1, 57, 0
1, 115680, Note_on_c, 1, 79, 127
1, 115680, Note_on_c, 1, 59, 127
1, 115776, Note_off_c, 1, 79, 0
1, 115800, Note_on_c, 1, 77, 127
1, 115872, Note_off_c, 1, 59, 0
1, 115896, Note_off_c, 1, 77, 0
1, 115920, Note_on_c, 1, 76, 127
1, 115920, Note_on_c, 1, 61, 127
1, 116016, Note_off_c, 1, 76, 0
1, 116016, Note_off_c, 1, 61, 0
1, 116040, Note_on_c, 1, 77, 127
1, 116040, Note_on_c, 1, 62, 127
1, 116136, Note_off_c, 1, 77, 0
1, 116136, Note_off_c, 1, 62, 0
1, 116160, Note_on_c, 1, 76, 127
1, 116160, Note_on_c, 1, 61, 127
1, 116256, Note_off_c, 1, 76, 0
1, 116256, Note_off_c, 1, 61, 0
1, 116280, Note_on_c, 1, 79, 127
1, 116280, Note_on_c, 1, 64, 127
1, 116376, Note_off_c, 1, 79, 0
1, 116376, Note_off_c, 1, 64, 0
1, 116400, Note_on_c, 1, 77, 127
1, 116400, Note_on_c, 1, 62, 127
1, 116496, Note_off_c, 1, 77, 0
1, 116496, Note_off_c, 1, 62, 0
1, 116520, Note_on_c, 1, 76, 127
1, 116520, Note_on_c, 1, 55, 127
1, 116616, Note_off_c, 1, 76, 0
1, 116616, Note_off_c, 1, 55, 0
1, 116640, Note_on_c, 1, 74, 127
1, 116640, Note_on_c, 1, 58, 127
1, 116736, Note_off_c, 1, 74, 0
1, 116736, Note_off_c, 1, 58, 0
1, 116760, Note_on_c, 1, 73, 127
1, 116760, Note_on_c, 1, 57, 127
1, 116856, Note_off_c, 1, 73, 0
1, 116880, Note_on_c, 1, 71, 127
1, 116952, Note_off_c, 1, 57, 0
1, 116976, Note_off_c, 1, 71, 0
1, 117000, Note_on_c, 1, 74, 127
1, 117000, Note_on_c, 1, 45, 127
1, 117096, Note_off_c, 1, 74, 0
1, 117096, Note_off_c, 1, 45, 0
1, 117120, Note_on_c, 1, 73, 127
1, 117120, Note_on_c, 1, 57, 127
1, 117144, Note_off_c, 1, 57, 0
1, 117150, Note_on_c, 1, 56, 127
1, 117174, Note_off_c, 1, 56, 0
1, 117216, Note_off_c, 1, 73, 0
1, 117240, Note_on_c, 1, 69, 127
1, 117336, Note_off_c, 1, 69, 0
1, 117480, Note_on_c, 1, 74, 127
1, 117576, Note_off_c, 1, 74, 0
1, 117720, Note_on_c, 1, 76, 127
1, 117720, Note_on_c, 1, 45, 127
1, 117816, Note_off_c, 1, 76, 0
1, 117816, Note_off_c, 1, 45, 0
1, 117840, Note_on_c, 1, 74, 127
1, 117840, Note_on_c, 1, 57, 127
1, 117864, Note_off_c, 1, 57, 0
1, 117870, Note_on_c, 1, 56, 127
1, 117894, Note_off_c, 1, 56, 0
1, 117936, Note_off_c, 1, 74, 0
1, 117960, Note_on_c, 1, 69, 127
1, 118056, Note_off_c, 1, 69, 0
1, 118200, Note_on_c, 1, 76, 127
1, 118200, Note_on_c, 1, 57, 127
1, 118296, Note_off_c, 1, 76, 0
1, 118320, Note_on_c, 1, 74, 127
1, 118392, Note_off_c, 1, 57, 0
1, 118416, Note_off_c, 1, 74, 0
1, 118440, Note_on_c, 1, 77, 127
1, 118440, Note_on_c, 1, 45, 127
1, 118536, Note_off_c, 1, 77, 0
1, 118536, Note_off_c, 1, 45, 0
1, 118560, Note_on_c, 1, 76, 127
1, 118560, Note_on_c, 1, 57, 127
1, 118584, Note_off_c, 1, 57, 0
1, 118590, Note_on_c, 1, 56, 127
1, 118614, Note_off_c, 1, 56, 0
1, 118656, Note_off_c, 1, 76, 0
1, 118680, Note_on_c, 1, 69, 127
1, 118776, Note_off_c, 1, 69, 0
1, 118920, Note_on_c, 1, 77, 127
1, 119016, Note_off_c, 1, 77, 0
1, 119160, Note_on_c, 1, 79, 127
1, 119160, Note_on_c, 1, 45, 127
1, 119256, Note_off_c, 1, 79, 0
1, 119256, Note_off_c, 1, 45, 0
1, 119280, Note_on_c, 1, 77, 127
1, 119280, Note_on_c, 1, 57, 127
1, 119376, Note_off_c, 1, 77, 0
1, 119400, Note_on_c, 1, 76, 127
1, 119472, Note_off_c, 1, 57, 0
1, 119496, Note_off_c, 1, 76, 0
1, 119520, Note_on_c, 1, 74, 127
1, 119520, Note_on_c, 1, 45, 127
1, 119616, Note_off_c, 1, 74, 0
1, 119616, Note_off_c, 1, 45, 0
1, 119640, Note_on_c, 1, 73, 127
1, 119640, Note_on_c, 1, 57, 127
1, 119736, Note_off_c, 1, 73, 0
1, 119736, Note_off_c, 1, 57, 0
1, 119760, Note_on_c, 1, 76, 127
1, 119760, Note_on_c, 1, 55, 127
1, 119856, Note_off_c, 1, 76, 0
1, 119856, Note_off_c, 1, 55, 0
1, 119880, Note_on_c, 1, 74, 127
1, 119880, Note_on_c, 1, 58, 127
1, 119976, Note_off_c, 1, 74, 0
1, 119976, Note_off_c, 1, 58, 0
1, 120000, Note_on_c, 1, 73, 127
1, 120000, Note_on_c, 1, 57, 127
1, 120096, Note_off_c, 1, 73, 0
1, 120096, Note_off_c, 1, 57, 0
1, 120120, Note_on_c, 1, 76, 127
1, 120120, Note_on_c, 1, 55, 127
1, 120216, Note_off_c, 1, 76, 0
1, 120216, Note_off_c, 1, 55, 0
1, 120240, Note_on_c, 1, 74, 127
1, 120240, Note_on_c, 1, 58, 127
1, 120336, Note_off_c, 1, 74, 0
1, 120336, Note_off_c, 1, 58, 0
1, 120360, Note_on_c, 1, 73, 127
1, 120360, Note_on_c, 1, 57, 127
1, 120456, Note_off_c, 1, 73, 0
1, 120456, Note_off_c, 1, 57, 0
1, 120480, Note_on_c, 1, 76, 127
1, 120480, Note_on_c, 1, 55, 127
1, 120576, Note_off_c, 1, 76, 0
1, 120576, Note_off_c, 1, 55, 0
1, 120600, Note_on_c, 1, 74, 127
1, 120600, Note_on_c, 1, 58, 127
1, 120696, Note_off_c, 1, 74, 0
1, 120696, Note_off_c, 1, 58, 0
1, 120720, Note_on_c, 1, 74, 127
1, 120720, Note_on_c, 1, 57, 127
1, 120744, Note_off_c, 1, 74, 0
1, 120750, Note_on_c, 1, 73, 127
1, 120774, Note_off_c, 1, 73, 0
1, 120816, Note_off_c, 1, 57, 0
1, 120840, Note_on_c, 1, 58, 127
1, 120936, Note_off_c, 1, 58, 0
1, 120960, Note_on_c, 1, 69, 127
1, 120960, Note_on_c, 1, 55, 127
1, 121056, Note_off_c, 1, 69, 0
1, 121056, Note_off_c, 1, 55, 0
1, 121080, Note_on_c, 1, 81, 127
1, 121080, Note_on_c, 1, 53, 127
1, 121176, Note_off_c, 1, 53, 0
1, 121200, Note_on_c, 1, 52, 127
1, 121272, Note_off_c, 1, 81, 0
1, 121296, Note_off_c, 1, 52, 0
1, 121320, Note_on_c, 1, 69, 127
1, 121320, Note_on_c, 1, 55, 127
1, 121416, Note_off_c, 1, 69, 0
1, 121416, Note_off_c, 1, 55, 0
1, 121440, Note_on_c, 1, 81, 127
1, 121440, Note_on_c, 1, 53, 127
1, 121536, Note_off_c, 1, 53, 0
1, 121560, Note_on_c, 1, 57, 127
1, 121656, Note_off_c, 1, 57, 0
1, 121680, Note_on_c, 1, 52, 127
1, 121776, Note_off_c, 1, 52, 0
1, 121992, Note_off_c, 1, 81, 0
1, 122040, Note_on_c, 1, 69, 127
1, 122040, Note_on_c, 1, 55, 127
1, 122136, Note_off_c, 1, 69, 0
1, 122136, Note_off_c, 1, 55, 0
1, 122160, Note_on_c, 1, 81, 127
1, 122160, Note_on_c, 1, 53, 127
1, 122256, Note_off_c, 1, 53, 0
1, 122280, Note_on_c, 1, 52, 127
1, 122376, Note_off_c, 1, 52, 0
1, 122385, Note_off_c, 1, 81, 0
1, 122400, Note_on_c, 1, 69, 127
1, 122400, Note_on_c, 1, 50, 127
1, 122496, Note_off_c, 1, 69, 0
1, 122496, Note_off_c, 1, 50, 0
1, 122520, Note_on_c, 1, 81, 127
1, 122520, Note_on_c, 1, 49, 127
1, 122616, Note_off_c, 1, 49, 0
1, 122640, Note_on_c, 1, 47, 127
1, 122712, Note_off_c, 1, 81, 0
1, 122736, Note_off_c, 1, 47, 0
1, 122760, Note_on_c, 1, 69, 127
1, 122760, Note_on_c, 1, 50, 127
1, 122856, Note_off_c, 1, 69, 0
1, 122856, Note_off_c, 1, 50, 0
1, 122880, Note_on_c, 1, 81, 127
1, 122880, Note_on_c, 1, 49, 127
1, 122976, Note_off_c, 1, 49, 0
1, 123000, Note_on_c, 1, 52, 127
1, 123096, Note_off_c, 1, 52, 0
1, 123120, Note_on_c, 1, 47, 127
1, 123216, Note_off_c, 1, 47, 0
1, 123432, Note_off_c, 1, 81, 0
1, 123480, Note_on_c, 1, 69, 127
1, 123480, Note_on_c, 1, 50, 127
1, 123576, Note_off_c, 1, 69, 0
1, 123576, Note_off_c, 1, 50, 0
1, 123600, Note_on_c, 1, 81, 127
1, 123600, Note_on_c, 1, 49, 127
1, 123696, Note_off_c, 1, 49, 0
1, 123720, Note_on_c, 1, 47, 127
1, 123816, Note_off_c, 1, 47, 0
1, 123825, Note_off_c, 1, 81, 0
1, 123840, Note_on_c, 1, 76, 127
1, 123840, Note_on_c, 1, 45, 127
1, 123936, Note_off_c, 1, 76, 0
1, 123936, Note_off_c, 1, 45, 0
1, 123960, Note_on_c, 1, 77, 127
1, 123960, Note_on_c, 1, 50, 127
1, 124008, Note_off_c, 1, 77, 0
1, 124020, Note_on_c, 1, 79, 127
1, 124068, Note_off_c, 1, 79, 0
1, 124080, Note_on_c, 1, 81, 127
1, 124152, Note_off_c, 1, 50, 0
1, 124176, Note_off_c, 1, 81, 0
1, 124200, Note_on_c, 1, 74, 127
1, 124200, Note_on_c, 1, 53, 127
1, 124296, Note_off_c, 1, 74, 0
1, 124296, Note_off_c, 1, 53, 0
1, 124320, Note_on_c, 1, 69, 127
1, 124320, Note_on_c, 1, 57, 127
1, 124416, Note_off_c, 1, 69, 0
1, 124440, Note_on_c, 1, 74, 127
1, 124512, Note_off_c, 1, 57, 0
1, 124536, Note_off_c, 1, 74, 0
1, 124560, Note_on_c, 1, 73, 127
1, 124560, Note_on_c, 1, 45, 127
1, 124656, Note_off_c, 1, 73, 0
1, 124656, Note_off_c, 1, 45, 0
1, 124680, Note_on_c, 1, 74, 127
1, 124680, Note_on_c, 1, 50, 127
1, 124776, Note_off_c, 1, 50, 0
1, 124800, Note_on_c, 1, 45, 127
1, 124896, Note_off_c, 1, 45, 0
1, 125040, Note_on_c, 1, 53, 127
1, 125136, Note_off_c, 1, 53, 0
1, 125232, Note_off_c, 1, 74, 0
1, 125280, Note_on_c, 1, 74, 127
1, 125280, Note_on_c, 1, 53, 127
1, 125376, Note_off_c, 1, 74, 0
1, 125376, Note_off_c, 1, 53, 0
1, 125400, Note_on_c, 1, 72, 127
1, 125400, Note_on_c, 1, 57, 127
1, 125496, Note_off_c, 1, 72, 0
1, 125520, Note_on_c, 1, 77, 127
1, 125616, Note_off_c, 1, 77, 0
1, 125688, Note_off_c, 1, 57, 0
1, 125760, Note_on_c, 1, 69, 127
1, 125856, Note_off_c, 1, 69, 0
1, 125880, Note_on_c, 1, 72, 127
1, 125976, Note_off_c, 1, 72, 0
1, 126000, Note_on_c, 1, 69, 127
1, 126000, Note_on_c, 1, 60, 127
1, 126096, Note_off_c, 1, 69, 0
1, 126096, Note_off_c, 1, 60, 0
1, 126120, Note_on_c, 1, 65, 127
1, 126120, Note_on_c, 1, 57, 127
1, 126216, Note_off_c, 1, 57, 0
1, 126240, Note_on_c, 1, 60, 127
1, 126312, Note_off_c, 1, 65, 0
1, 126336, Note_off_c, 1, 60, 0
1, 126360, Note_on_c, 1, 72, 127
1, 126360, Note_on_c, 1, 57, 127
1, 126456, Note_off_c, 1, 72, 0
1, 126456, Note_off_c, 1, 57, 0
1, 126480, Note_on_c, 1, 60, 127
1, 126480, Note_on_c, 1, 53, 127
1, 126576, Note_off_c, 1, 53, 0
1, 126600, Note_on_c, 1, 57, 127
1, 126696, Note_off_c, 1, 57, 0
1, 126840, Note_on_c, 1, 48, 127
1, 126936, Note_off_c, 1, 60, 0
1, 126936, Note_off_c, 1, 48, 0
1, 126960, Note_on_c, 1, 62, 127
1, 126960, Note_on_c, 1, 53, 127
1, 127056, Note_off_c, 1, 62, 0
1, 127056, Note_off_c, 1, 53, 0
1, 127080, Note_on_c, 1, 63, 127
1, 127080, Note_on_c, 1, 48, 127
1, 127176, Note_off_c, 1, 63, 0
1, 127176, Note_off_c, 1, 48, 0
1, 127200, Note_on_c, 1, 65, 127
1, 127200, Note_on_c, 1, 45, 127
1, 127296, Note_off_c, 1, 65, 0
1, 127296, Note_off_c, 1, 45, 0
1, 127320, Note_on_c, 1, 67, 127
1, 127320, Note_on_c, 1, 41, 127
1, 127416, Note_off_c, 1, 67, 0
1, 127416, Note_off_c, 1, 41, 0
1, 127440, Note_on_c, 1, 63, 127
1, 127440, Note_on_c, 1, 45, 127
1, 127536, Note_off_c, 1, 63, 0
1, 127536, Note_off_c, 1, 45, 0
1, 127560, Note_on_c, 1, 62, 127
1, 127560, Note_on_c, 1, 46, 127
1, 127656, Note_off_c, 1, 62, 0
1, 127656, Note_off_c, 1, 46, 0
1, 127680, Note_on_c, 1, 65, 127
1, 127680, Note_on_c, 1, 41, 127
1, 127776, Note_off_c, 1, 65, 0
1, 127776, Note_off_c, 1, 41, 0
1, 127800, Note_on_c, 1, 72, 127
1, 127800, Note_on_c, 1, 46, 127
1, 127896, Note_off_c, 1, 72, 0
1, 127896, Note_off_c, 1, 46, 0
1, 127920, Note_on_c, 1, 70, 127
1, 127920, Note_on_c, 1, 50, 127
1, 128016, Note_off_c, 1, 70, 0
1, 128016, Note_off_c, 1, 50, 0
1, 128040, Note_on_c, 1, 69, 127
1, 128040, Note_on_c, 1, 46, 127
1, 128136, Note_off_c, 1, 69, 0
1, 128136, Note_off_c, 1, 46, 0
1, 128160, Note_on_c, 1, 70, 127
1, 128160, Note_on_c, 1, 50, 127
1, 128256, Note_off_c, 1, 70, 0
1, 128256, Note_off_c, 1, 50, 0
1, 128280, Note_on_c, 1, 60, 127
1, 128280, Note_on_c, 1, 53, 127
1, 128376, Note_off_c, 1, 60, 0
1, 128400, Note_on_c, 1, 65, 127
1, 128496, Note_off_c, 1, 65, 0
1, 128520, Note_on_c, 1, 70, 127
1, 128568, Note_off_c, 1, 53, 0
1, 128616, Note_off_c, 1, 70, 0
1, 128640, Note_on_c, 1, 69, 127
1, 128736, Note_off_c, 1, 69, 0
1, 128760, Note_on_c, 1, 67, 127
1, 128856, Note_off_c, 1, 67, 0
1, 128880, Note_on_c, 1, 69, 127
1, 128880, Note_on_c, 1, 42, 127
1, 128976, Note_off_c, 1, 69, 0
1, 128976, Note_off_c, 1, 42, 0
1, 129000, Note_on_c, 1, 58, 127
1, 129000, Note_on_c, 1, 43, 127
1, 129096, Note_off_c, 1, 58, 0
1, 129096, Note_off_c, 1, 43, 0
1, 129120, Note_on_c, 1, 62, 127
1, 129120, Note_on_c, 1, 38, 127
1, 129216, Note_off_c, 1, 62, 0
1, 129216, Note_off_c, 1, 38, 0
1, 129240, Note_on_c, 1, 69, 127
1, 129240, Note_on_c, 1, 43, 127
1, 129336, Note_off_c, 1, 69, 0
1, 129336, Note_off_c, 1, 43, 0
1, 129360, Note_on_c, 1, 67, 127
1, 129360, Note_on_c, 1, 46, 127
1, 129456, Note_off_c, 1, 67, 0
1, 129456, Note_off_c, 1, 46, 0
1, 129480, Note_on_c, 1, 66, 127
1, 129480, Note_on_c, 1, 43, 127
1, 129576, Note_off_c, 1, 66, 0
1, 129576, Note_off_c, 1, 43, 0
1, 129600, Note_on_c, 1, 67, 127
1, 129600, Note_on_c, 1, 46, 127
1, 129696, Note_off_c, 1, 67, 0
1, 129696, Note_off_c, 1, 46, 0
1, 129720, Note_on_c, 1, 66, 127
1, 129720, Note_on_c, 1, 50, 127
1, 129816, Note_off_c, 1, 50, 0
1, 129840, Note_on_c, 1, 48, 127
1, 129912, Note_off_c, 1, 66, 0
1, 129936, Note_off_c, 1, 48, 0
1, 129960, Note_on_c, 1, 62, 127
1, 129960, Note_on_c, 1, 51, 127
1, 130056, Note_off_c, 1, 62, 0
1, 130056, Note_off_c, 1, 51, 0
1, 130080, Note_on_c, 1, 74, 127
1, 130080, Note_on_c, 1, 50, 127
1, 130176, Note_off_c, 1, 50, 0
1, 130200, Note_on_c, 1, 51, 127
1, 130296, Note_off_c, 1, 51, 0
1, 130320, Note_on_c, 1, 48, 127
1, 130416, Note_off_c, 1, 48, 0
1, 130440, Note_on_c, 1, 46, 127
1, 130536, Note_off_c, 1, 46, 0
1, 130560, Note_on_c, 1, 45, 127
1, 130632, Note_off_c, 1, 74, 0
1, 130656, Note_off_c, 1, 45, 0
1, 130680, Note_on_c, 1, 62, 127
1, 130680, Note_on_c, 1, 48, 127
1, 130776, Note_off_c, 1, 62, 0
1, 130776, Note_off_c, 1, 48, 0
1, 130800, Note_on_c, 1, 74, 127
1, 130800, Note_on_c, 1, 46, 127
1, 130896, Note_off_c, 1, 46, 0
1, 130920, Note_on_c, 1, 48, 127
1, 130992, Note_off_c, 1, 74, 0
1, 131016, Note_off_c, 1, 48, 0
1, 131040, Note_on_c, 1, 62, 127
1, 131040, Note_on_c, 1, 45, 127
1, 131136, Note_off_c, 1, 62, 0
1, 131136, Note_off_c, 1, 45, 0
1, 131160, Note_on_c, 1, 74, 127
1, 131160, Note_on_c, 1, 43, 127
1, 131256, Note_off_c, 1, 43, 0
1, 131280, Note_on_c, 1, 42, 127
1, 131352, Note_off_c, 1, 74, 0
1, 131376, Note_off_c, 1, 42, 0
1, 131400, Note_on_c, 1, 62, 127
1, 131400, Note_on_c, 1, 45, 127
1, 131496, Note_off_c, 1, 62, 0
1, 131496, Note_off_c, 1, 45, 0
1, 131520, Note_on_c, 1, 74, 127
1, 131520, Note_on_c, 1, 43, 127
1, 131616, Note_off_c, 1, 43, 0
1, 131640, Note_on_c, 1, 46, 127
1, 131736, Note_off_c, 1, 46, 0
1, 131760, Note_on_c, 1, 45, 127
1, 131856, Note_off_c, 1, 45, 0
1, 131880, Note_on_c, 1, 42, 127
1, 131976, Note_off_c, 1, 42, 0
1, 132072, Note_off_c, 1, 74, 0
1, 132120, Note_on_c, 1, 62, 127
1, 132120, Note_on_c, 1, 45, 127
1, 132216, Note_off_c, 1, 62, 0
1, 132216, Note_off_c, 1, 45, 0
1, 132240, Note_on_c, 1, 74, 127
1, 132240, Note_on_c, 1, 38, 127
1, 132336, Note_off_c, 1, 74, 0
1, 132360, Note_on_c, 1, 76, 127
1, 132456, Note_off_c, 1, 76, 0
1, 132480, Note_on_c, 1, 78, 127
1, 132576, Note_off_c, 1, 78, 0
1, 132600, Note_on_c, 1, 79, 127
1, 132696, Note_off_c, 1, 79, 0
1, 132792, Note_off_c, 1, 38, 0
1, 132840, Note_on_c, 1, 81, 127
1, 132840, Note_on_c, 1, 38, 127
1, 132936, Note_off_c, 1, 81, 0
1, 132936, Note_off_c, 1, 38, 0
1, 132960, Note_on_c, 1, 79, 127
1, 132960, Note_on_c, 1, 50, 127
1, 132984, Note_off_c, 1, 50, 0
1, 132990, Note_on_c, 1, 49, 127
1, 133014, Note_off_c, 1, 49, 0
1, 133056, Note_off_c, 1, 79, 0
1, 133080, Note_on_c, 1, 74, 127
1, 133080, Note_on_c, 1, 50, 127
1, 133176, Note_off_c, 1, 74, 0
1, 133200, Note_on_c, 1, 79, 127
1, 133296, Note_off_c, 1, 79, 0
1, 133320, Note_on_c, 1, 81, 127
1, 133416, Note_off_c, 1, 81, 0
1, 133512, Note_off_c, 1, 50, 0
1, 133560, Note_on_c, 1, 82, 127
1, 133560, Note_on_c, 1, 38, 127
1, 133656, Note_off_c, 1, 82, 0
1, 133656, Note_off_c, 1, 38, 0
1, 133680, Note_on_c, 1, 81, 127
1, 133680, Note_on_c, 1, 50, 127
1, 133776, Note_off_c, 1, 81, 0
1, 133800, Note_on_c, 1, 74, 127
1, 133872, Note_off_c, 1, 50, 0
1, 133896, Note_off_c, 1, 74, 0
1, 133920, Note_on_c, 1, 81, 127
1, 133920, Note_on_c, 1, 38, 127
1, 134016, Note_off_c, 1, 81, 0
1, 134016, Note_off_c, 1, 38, 0
1, 134040, Note_on_c, 1, 82, 127
1, 134040, Note_on_c, 1, 50, 127
1, 134136, Note_off_c, 1, 82, 0
1, 134160, Note_on_c, 1, 81, 127
1, 134232, Note_off_c, 1, 50, 0
1, 134256, Note_off_c, 1, 81, 0
1, 134280, Note_on_c, 1, 84, 127
1, 134280, Note_on_c, 1, 38, 127
1, 134376, Note_off_c, 1, 84, 0
1, 134376, Note_off_c, 1, 38, 0
1, 134400, Note_on_c, 1, 82, 127
1, 134400, Note_on_c, 1, 50, 127
1, 134424, Note_off_c, 1, 50, 0
1, 134430, Note_on_c, 1, 49, 127
1, 134454, Note_off_c, 1, 49, 0
1, 134496, Note_off_c, 1, 82, 0
1, 134520, Note_on_c, 1, 81, 127
1, 134616, Note_off_c, 1, 81, 0
1, 134640, Note_on_c, 1, 79, 127
1, 134736, Note_off_c, 1, 79, 0
1, 134760, Note_on_c, 1, 78, 127
1, 134856, Note_off_c, 1, 78, 0
1, 134880, Note_on_c, 1, 76, 127
1, 134880, Note_on_c, 1, 50, 127
1, 134976, Note_off_c, 1, 76, 0
1, 134976, Note_off_c, 1, 50, 0
1, 135000, Note_on_c, 1, 74, 127
1, 135000, Note_on_c, 1, 52, 127
1, 135096, Note_off_c, 1, 74, 0
1, 135096, Note_off_c, 1, 52, 0
1, 135120, Note_on_c, 1, 81, 127
1, 135120, Note_on_c, 1, 54, 127
1, 135216, Note_off_c, 1, 54, 0
1, 135240, Note_on_c, 1, 52, 127
1, 135312, Note_off_c, 1, 81, 0
1, 135336, Note_off_c, 1, 52, 0
1, 135360, Note_on_c, 1, 72, 127
1, 135360, Note_on_c, 1, 50, 127
1, 135456, Note_off_c, 1, 72, 0
1, 135456, Note_off_c, 1, 50, 0
1, 135480, Note_on_c, 1, 70, 127
1, 135480, Note_on_c, 1, 55, 127
1, 135528, Note_off_c, 1, 70, 0
1, 135540, Note_on_c, 1, 72, 127
1, 135576, Note_off_c, 1, 55, 0
1, 135588, Note_off_c, 1, 72, 0
1, 135600, Note_on_c, 1, 74, 127
1, 135600, Note_on_c, 1, 46, 127
1, 135696, Note_off_c, 1, 74, 0
1, 135696, Note_off_c, 1, 46, 0
1, 135720, Note_on_c, 1, 67, 127
1, 135720, Note_on_c, 1, 48, 127
1, 135816, Note_off_c, 1, 67, 0
1, 135816, Note_off_c, 1, 48, 0
1, 135840, Note_on_c, 1, 62, 127
1, 135840, Note_on_c, 1, 50, 127
1, 135936, Note_off_c, 1, 62, 0
1, 135936, Note_off_c, 1, 50, 0
1, 135960, Note_on_c, 1, 67, 127
1, 135960, Note_on_c, 1, 48, 127
1, 136056, Note_off_c, 1, 67, 0
1, 136056, Note_off_c, 1, 48, 0
1, 136080, Note_on_c, 1, 66, 127
1, 136080, Note_on_c, 1, 50, 127
1, 136176, Note_off_c, 1, 66, 0
1, 136176, Note_off_c, 1, 50, 0
1, 136200, Note_on_c, 1, 67, 127
1, 136200, Note_on_c, 1, 43, 127
1, 136296, Note_off_c, 1, 43, 0
1, 136320, Note_on_c, 1, 62, 127
1, 136416, Note_off_c, 1, 62, 0
1, 136440, Note_on_c, 1, 58, 127
1, 136488, Note_off_c, 1, 67, 0
1, 136536, Note_off_c, 1, 58, 0
1, 136560, Note_on_c, 1, 55, 127
1, 136656, Note_off_c, 1, 55, 0
1, 136680, Note_on_c, 1, 58, 127
1, 136776, Note_off_c, 1, 58, 0
1, 136800, Note_on_c, 1, 70, 127
1, 136800, Note_on_c, 1, 55, 127
1, 136896, Note_off_c, 1, 70, 0
1, 136896, Note_off_c, 1, 55, 0
1, 136920, Note_on_c, 1, 60, 127
1, 136920, Note_on_c, 1, 52, 127
1, 137016, Note_off_c, 1, 60, 0
1, 137040, Note_on_c, 1, 64, 127
1, 137112, Note_off_c, 1, 52, 0
1, 137136, Note_off_c, 1, 64, 0
1, 137160, Note_on_c, 1, 67, 127
1, 137160, Note_on_c, 1, 60, 127
1, 137256, Note_off_c, 1, 67, 0
1, 137256, Note_off_c, 1, 60, 0
1, 137280, Note_on_c, 1, 70, 127
1, 137280, Note_on_c, 1, 48, 127
1, 137376, Note_off_c, 1, 70, 0
1, 137400, Note_on_c, 1, 67, 127
1, 137496, Note_off_c, 1, 67, 0
1, 137520, Note_on_c, 1, 69, 127
1, 137616, Note_off_c, 1, 69, 0
1, 137736, Note_off_c, 1, 48, 0
1, 137760, Note_on_c, 1, 64, 127
1, 137760, Note_on_c, 1, 60, 127
1, 137856, Note_off_c, 1, 64, 0
1, 137856, Note_off_c, 1, 60, 0
1, 137880, Note_on_c, 1, 65, 127
1, 137880, Note_on_c, 1, 57, 127
1, 137976, Note_off_c, 1, 65, 0
1, 137976, Note_off_c, 1, 57, 0
1, 138000, Note_on_c, 1, 69, 127
1, 138000, Note_on_c, 1, 53, 127
1, 138096, Note_off_c, 1, 69, 0
1, 138096, Note_off_c, 1, 53, 0
1, 138120, Note_on_c, 1, 64, 127
1, 138120, Note_on_c, 1, 57, 127
1, 138216, Note_off_c, 1, 64, 0
1, 138216, Note_off_c, 1, 57, 0
1, 138240, Note_on_c, 1, 65, 127
1, 138240, Note_on_c, 1, 53, 127
1, 138336, Note_off_c, 1, 65, 0
1, 138336, Note_off_c, 1, 53, 0
1, 138360, Note_on_c, 1, 58, 127
1, 138360, Note_on_c, 1, 50, 127
1, 138456, Note_off_c, 1, 58, 0
1, 138480, Note_on_c, 1, 62, 127
1, 138552, Note_off_c, 1, 50, 0
1, 138576, Note_off_c, 1, 62, 0
1, 138600, Note_on_c, 1, 65, 127
1, 138600, Note_on_c, 1, 58, 127
1, 138696, Note_off_c, 1, 65, 0
1, 138696, Note_off_c, 1, 58, 0
1, 138720, Note_on_c, 1, 69, 127
1, 138720, Note_on_c, 1, 46, 127
1, 138816, Note_off_c, 1, 69, 0
1, 138840, Note_on_c, 1, 65, 127
1, 138936, Note_off_c, 1, 65, 0
1, 138960, Note_on_c, 1, 67, 127
1, 139056, Note_off_c, 1, 67, 0
1, 139176, Note_off_c, 1, 46, 0
1, 139200, Note_on_c, 1, 62, 127
1, 139200, Note_on_c, 1, 58, 127
1, 139296, Note_off_c, 1, 62, 0
1, 139296, Note_off_c, 1, 58, 0
1, 139320, Note_on_c, 1, 64, 127
1, 139320, Note_on_c, 1, 55, 127
1, 139416, Note_off_c, 1, 64, 0
1, 139416, Note_off_c, 1, 55, 0
1, 139440, Note_on_c, 1, 67, 127
1, 139440, Note_on_c, 1, 52, 127
1, 139536, Note_off_c, 1, 67, 0
1, 139536, Note_off_c, 1, 52, 0
1, 139560, Note_on_c, 1, 62, 127
1, 139560, Note_on_c, 1, 55, 127
1, 139656, Note_off_c, 1, 62, 0
1, 139656, Note_off_c, 1, 55, 0
1, 139680, Note_on_c, 1, 64, 127
1, 139680, Note_on_c, 1, 52, 127
1, 139776, Note_off_c, 1, 64, 0
1, 139776, Note_off_c, 1, 52, 0
1, 139800, Note_on_c, 1, 57, 127
1, 139800, Note_on_c, 1, 48, 127
1, 139896, Note_off_c, 1, 57, 0
1, 139920, Note_on_c, 1, 60, 127
1, 139992, Note_off_c, 1, 48, 0
1, 140016, Note_off_c, 1, 60, 0
1, 140040, Note_on_c, 1, 64, 127
1, 140040, Note_on_c, 1, 57, 127
1, 140136, Note_off_c, 1, 64, 0
1, 140136, Note_off_c, 1, 57, 0
1, 140160, Note_on_c, 1, 67, 127
1, 140160, Note_on_c, 1, 45, 127
1, 140256, Note_off_c, 1, 67, 0
1, 140280, Note_on_c, 1, 64, 127
1, 140352, Note_off_c, 1, 45, 0
1, 140376, Note_off_c, 1, 64, 0
1, 140400, Note_on_c, 1, 65, 127
1, 140400, Note_on_c, 1, 50, 127
1, 140496, Note_off_c, 1, 65, 0
1, 140496, Note_off_c, 1, 50, 0
1, 140520, Note_on_c, 1, 55, 127
1, 140520, Note_on_c, 1, 46, 127
1, 140616, Note_off_c, 1, 55, 0
1, 140640, Note_on_c, 1, 58, 127
1, 140712, Note_off_c, 1, 46, 0
1, 140736, Note_off_c, 1, 58, 0
1, 140760, Note_on_c, 1, 62, 127
1, 140760, Note_on_c, 1, 55, 127
1, 140856, Note_off_c, 1, 62, 0
1, 140856, Note_off_c, 1, 55, 0
1, 140880, Note_on_c, 1, 65, 127
1, 140880, Note_on_c, 1, 43, 127
1, 140976, Note_off_c, 1, 65, 0
1, 141000, Note_on_c, 1, 62, 127
1, 141072, Note_off_c, 1, 43, 0
1, 141096, Note_off_c, 1, 62, 0
1, 141120, Note_on_c, 1, 64, 127
1, 141120, Note_on_c, 1, 48, 127
1, 141216, Note_off_c, 1, 64, 0
1, 141216, Note_off_c, 1, 48, 0
1, 141240, Note_on_c, 1, 53, 127
1, 141240, Note_on_c, 1, 45, 127
1, 141336, Note_off_c, 1, 53, 0
1, 141360, Note_on_c, 1, 57, 127
1, 141432, Note_off_c, 1, 45, 0
1, 141456, Note_off_c, 1, 57, 0
1, 141480, Note_on_c, 1, 60, 127
1, 141480, Note_on_c, 1, 53, 127
1, 141576, Note_off_c, 1, 60, 0
1, 141576, Note_off_c, 1, 53, 0
1, 141600, Note_on_c, 1, 67, 127
1, 141600, Note_on_c, 1, 47, 127
1, 141696, Note_off_c, 1, 67, 0
1, 141720, Note_on_c, 1, 64, 127
1, 141792, Note_off_c, 1, 47, 0
1, 141816, Note_off_c, 1, 64, 0
1, 141840, Note_on_c, 1, 65, 127
1, 141840, Note_on_c, 1, 55, 127
1, 141936, Note_off_c, 1, 65, 0
1, 141936, Note_off_c, 1, 55, 0
1, 141960, Note_on_c, 1, 69, 127
1, 141960, Note_on_c, 1, 48, 127
1, 142056, Note_off_c, 1, 69, 0
1, 142080, Note_on_c, 1, 64, 127
1, 142152, Note_off_c, 1, 48, 0
1, 142176, Note_off_c, 1, 64, 0
1, 142200, Note_on_c, 1, 65, 127
1, 142200, Note_on_c, 1, 57, 127
1, 142296, Note_off_c, 1, 65, 0
1, 142296, Note_off_c, 1, 57, 0
1, 142320, Note_on_c, 1, 71, 127
1, 142320, Note_on_c, 1, 50, 127
1, 142416, Note_off_c, 1, 71, 0
1, 142440, Note_on_c, 1, 64, 127
1, 142512, Note_off_c, 1, 50, 0
1, 142536, Note_off_c, 1, 64, 0
1, 142560, Note_on_c, 1, 65, 127
1, 142560, Note_on_c, 1, 59, 127
1, 142656, Note_off_c, 1, 65, 0
1, 142656, Note_off_c, 1, 59, 0
1, 142680, Note_on_c, 1, 72, 127
1, 142680, Note_on_c, 1, 48, 127
1, 142776, Note_off_c, 1, 72, 0
1, 142800, Note_on_c, 1, 64, 127
1, 142896, Note_off_c, 1, 64, 0
1, 142920, Note_on_c, 1, 67, 127
1, 142968, Note_off_c, 1, 48, 0
1, 143016, Note_off_c, 1, 67, 0
1, 143040, Note_on_c, 1, 72, 127
1, 143136, Note_off_c, 1, 72, 0
1, 143160, Note_on_c, 1, 74, 127
1, 143160, Note_on_c, 1, 48, 127
1, 143256, Note_off_c, 1, 74, 0
1, 143256, Note_off_c, 1, 48, 0
1, 143280, Note_on_c, 1, 76, 127
1, 143280, Note_on_c, 1, 46, 127
1, 143376, Note_off_c, 1, 76, 0
1, 143376, Note_off_c, 1, 46, 0
1, 143400, Note_on_c, 1, 77, 127
1, 143400, Note_on_c, 1, 45, 127
1, 143496, Note_off_c, 1, 77, 0
1, 143496, Note_off_c, 1, 45, 0
1, 143520, Note_on_c, 1, 79, 127
1, 143520, Note_on_c, 1, 43, 127
1, 143616, Note_off_c, 1, 79, 0
1, 143616, Note_off_c, 1, 43, 0
1, 143640, Note_on_c, 1, 81, 127
1, 143640, Note_on_c, 1, 41, 127
1, 143736, Note_off_c, 1, 81, 0
1, 143736, Note_off_c, 1, 41, 0
1, 143760, Note_on_c, 1, 81, 127
1, 143760, Note_on_c, 1, 41, 127
1, 143856, Note_off_c, 1, 81, 0
1, 143856, Note_off_c, 1, 41, 0
1, 143880, Note_on_c, 1, 82, 127
1, 143880, Note_on_c, 1, 43, 127
1, 143976, Note_off_c, 1, 82, 0
1, 143976, Note_off_c, 1, 43, 0
1, 144000, Note_on_c, 1, 84, 127
1, 144000, Note_on_c, 1, 45, 127
1, 144096, Note_off_c, 1, 84, 0
1, 144096, Note_off_c, 1, 45, 0
1, 144120, Note_on_c, 1, 84, 127
1, 144120, Note_on_c, 1, 45, 127
1, 144144, Note_off_c, 1, 84, 0
1, 144150, Note_on_c, 1, 83, 127
1, 144174, Note_off_c, 1, 83, 0
1, 144216, Note_off_c, 1, 45, 0
1, 144240, Note_on_c, 1, 36, 127
1, 144336, Note_off_c, 1, 36, 0
1, 144360, Note_on_c, 1, 41, 127
1, 144456, Note_off_c, 1, 41, 0
1, 144480, Note_on_c, 1, 84, 127
1, 144480, Note_on_c, 1, 45, 127
1, 144576, Note_off_c, 1, 84, 0
1, 144576, Note_off_c, 1, 45, 0
1, 144600, Note_on_c, 1, 81, 127
1, 144600, Note_on_c, 1, 41, 127
1, 144696, Note_off_c, 1, 81, 0
1, 144696, Note_off_c, 1, 41, 0
1, 144720, Note_on_c, 1, 77, 127
1, 144720, Note_on_c, 1, 45, 127
1, 144816, Note_off_c, 1, 77, 0
1, 144816, Note_off_c, 1, 45, 0
1, 144840, Note_on_c, 1, 84, 127
1, 144840, Note_on_c, 1, 48, 127
1, 144864, Note_off_c, 1, 84, 0
1, 144870, Note_on_c, 1, 83, 127
1, 144894, Note_off_c, 1, 83, 0
1, 144936, Note_off_c, 1, 48, 0
1, 144960, Note_on_c, 1, 43, 127
1, 145056, Note_off_c, 1, 43, 0
1, 145200, Note_on_c, 1, 84, 127
1, 145200, Note_on_c, 1, 52, 127
1, 145296, Note_off_c, 1, 84, 0
1, 145296, Note_off_c, 1, 52, 0
1, 145320, Note_on_c, 1, 79, 127
1, 145320, Note_on_c, 1, 48, 127
1, 145416, Note_off_c, 1, 79, 0
1, 145416, Note_off_c, 1, 48, 0
1, 145440, Note_on_c, 1, 76, 127
1, 145440, Note_on_c, 1, 52, 127
1, 145536, Note_off_c, 1, 76, 0
1, 145536, Note_off_c, 1, 52, 0
1, 145560, Note_on_c, 1, 84, 127
1, 145560, Note_on_c, 1, 53, 127
1, 145584, Note_off_c, 1, 84, 0
1, 145590, Note_on_c, 1, 83, 127
1, 145614, Note_off_c, 1, 83, 0
1, 145656, Note_off_c, 1, 53, 0
1, 145680, Note_on_c, 1, 48, 127
1, 145776, Note_off_c, 1, 48, 0
1, 145920, Note_on_c, 1, 84, 127
1, 145920, Note_on_c, 1, 57, 127
1, 146016, Note_off_c, 1, 84, 0
1, 146016, Note_off_c, 1, 57, 0
1, 146040, Note_on_c, 1, 81, 127
1, 146040, Note_on_c, 1, 53, 127
1, 146136, Note_off_c, 1, 81, 0
1, 146136, Note_off_c, 1, 53, 0
1, 146160, Note_on_c, 1, 77, 127
1, 146160, Note_on_c, 1, 57, 127
1, 146256, Note_off_c, 1, 77, 0
1, 146256, Note_off_c, 1, 57, 0
1, 146280, Note_on_c, 1, 84, 127
1, 146280, Note_on_c, 1, 60, 127
1, 146304, Note_off_c, 1, 84, 0
1, 146310, Note_on_c, 1, 83, 127
1, 146334, Note_off_c, 1, 83, 0
1, 146376, Note_off_c, 1, 60, 0
1, 146400, Note_on_c, 1, 55, 127
1, 146496, Note_off_c, 1, 55, 0
1, 146640, Note_on_c, 1, 84, 127
1, 146640, Note_on_c, 1, 64, 127
1, 146736, Note_off_c, 1, 84, 0
1, 146736, Note_off_c, 1, 64, 0
1, 146760, Note_on_c, 1, 79, 127
1, 146760, Note_on_c, 1, 60, 127
1, 146856, Note_off_c, 1, 79, 0
1, 146856, Note_off_c, 1, 60, 0
1, 146880, Note_on_c, 1, 76, 127
1, 146880, Note_on_c, 1, 64, 127
1, 146976, Note_off_c, 1, 76, 0
1, 146976, Note_off_c, 1, 64, 0
1, 147000, Note_on_c, 1, 77, 127
1, 147000, Note_on_c, 1, 69, 127
1, 147096, Note_off_c, 1, 77, 0
1, 147096, Note_off_c, 1, 69, 0
1, 147120, Note_on_c, 1, 74, 127
1, 147120, Note_on_c, 1, 65, 127
1, 147216, Note_off_c, 1, 74, 0
1, 147216, Note_off_c, 1, 65, 0
1, 147240, Note_on_c, 1, 82, 127
1, 147240, Note_on_c, 1, 62, 127
1, 147336, Note_off_c, 1, 82, 0
1, 147336, Note_off_c, 1, 62, 0
1, 147360, Note_on_c, 1, 76, 127
1, 147360, Note_on_c, 1, 67, 127
1, 147456, Note_off_c, 1, 76, 0
1, 147456, Note_off_c, 1, 67, 0
1, 147480, Note_on_c, 1, 72, 127
1, 147480, Note_on_c, 1, 64, 127
1, 147576, Note_off_c, 1, 72, 0
1, 147576, Note_off_c, 1, 64, 0
1, 147600, Note_on_c, 1, 81, 127
1, 147600, Note_on_c, 1, 60, 127
1, 147696, Note_off_c, 1, 81, 0
1, 147696, Note_off_c, 1, 60, 0
1, 147720, Note_on_c, 1, 74, 127
1, 147720, Note_on_c, 1, 65, 127
1, 147816, Note_off_c, 1, 74, 0
1, 147816, Note_off_c, 1, 65, 0
1, 147840, Note_on_c, 1, 70, 127
1, 147840, Note_on_c, 1, 62, 127
1, 147936, Note_off_c, 1, 70, 0
1, 147936, Note_off_c, 1, 62, 0
1, 147960, Note_on_c, 1, 79, 127
1, 147960, Note_on_c, 1, 58, 127
1, 148056, Note_off_c, 1, 79, 0
1, 148056, Note_off_c, 1, 58, 0
1, 148080, Note_on_c, 1, 72, 127
1, 148080, Note_on_c, 1, 64, 127
1, 148176, Note_off_c, 1, 72, 0
1, 148176, Note_off_c, 1, 64, 0
1, 148200, Note_on_c, 1, 69, 127
1, 148200, Note_on_c, 1, 60, 127
1, 148296, Note_off_c, 1, 69, 0
1, 148296, Note_off_c, 1, 60, 0
1, 148320, Note_on_c, 1, 77, 127
1, 148320, Note_on_c, 1, 57, 127
1, 148416, Note_off_c, 1, 77, 0
1, 148416, Note_off_c, 1, 57, 0
1, 148440, Note_on_c, 1, 70, 127
1, 148440, Note_on_c, 1, 62, 127
1, 148536, Note_off_c, 1, 70, 0
1, 148536, Note_off_c, 1, 62, 0
1, 148560, Note_on_c, 1, 67, 127
1, 148560, Note_on_c, 1, 58, 127
1, 148656, Note_off_c, 1, 67, 0
1, 148656, Note_off_c, 1, 58, 0
1, 148680, Note_on_c, 1, 77, 127
1, 148680, Note_on_c, 1, 55, 127
1, 148776, Note_off_c, 1, 77, 0
1, 148776, Note_off_c, 1, 55, 0
1, 148800, Note_on_c, 1, 70, 127
1, 148800, Note_on_c, 1, 60, 127
1, 148896, Note_off_c, 1, 70, 0
1, 148920, Note_on_c, 1, 67, 127
1, 148992, Note_off_c, 1, 60, 0
1, 149016, Note_off_c, 1, 67, 0
1, 149040, Note_on_c, 1, 76, 127
1, 149040, Note_on_c, 1, 48, 127
1, 149136, Note_off_c, 1, 76, 0
1, 149136, Note_off_c, 1, 48, 0
1, 149160, Note_on_c, 1, 77, 127
1, 149160, Note_on_c, 1, 41, 127
1, 149256, Note_off_c, 1, 77, 0
1, 149280, Note_on_c, 1, 69, 127
1, 149376, Note_off_c, 1, 69, 0
1, 149400, Note_on_c, 1, 72, 127
1, 149496, Note_off_c, 1, 72, 0
1, 149520, Note_on_c, 1, 65, 127
1, 149712, Note_off_c, 1, 41, 0
1, 149712, Note_off_c, 1, 65, 0
1, 149712, End_track
0, 0, End_of_file