0, 0, Header, 1, 1, 480
1, 0, Start_track
1, 0, Title_t, "Test"
1, 0, Tempo, 500000
1, 0, Instrument_name_t, "Church Organ"
1, 0, Note_on_c, 1, 69, 127
1, 96, Note_off_c, 1, 69, 0
1, 120, Note_on_c, 1, 64, 127
1, 120, Note_on_c, 1, 60, 127
1, 120, Note_on_c, 1, 69, 127
1, 120, Note_on_c, 1, 57, 127
1, 312, Note_off_c, 1, 57, 0
1, 360, Note_on_c, 1, 52, 127
1, 408, Note_off_c, 1, 64, 0
1, 408, Note_off_c, 1, 60, 0
1, 408, Note_off_c, 1, 69, 0
1, 480, Note_on_c, 1, 71, 127
1, 552, Note_off_c, 1, 52, 0
1, 576, Note_off_c, 1, 71, 0
1, 600, Note_on_c, 1, 72, 127
1, 600, Note_on_c, 1, 45, 127
1, 696, Note_off_c, 1, 72, 0
1, 720, Note_on_c, 1, 74, 127
1, 792, Note_off_c, 1, 45, 0
1, 816, Note_off_c, 1, 74, 0
1, 840, Note_on_c, 1, 76, 127
1, 840, Note_on_c, 1, 57, 127
1, 936, Note_off_c, 1, 76, 0
1, 960, Note_on_c, 1, 77, 127
1, 1032, Note_off_c, 1, 57, 0
1, 1056, Note_off_c, 1, 77, 0
1, 1080, Note_on_c, 1, 76, 127
1, 1080, Note_on_c, 1, 56, 127
1, 1176, Note_off_c, 1, 76, 0
1, 1200, Note_on_c, 1, 74, 127
1, 1272, Note_off_c, 1, 56, 0
1, 1296, Note_off_c, 1, 74, 0
1, 1320, Note_on_c, 1, 72, 127
1, 1320, Note_on_c, 1, 52, 127
1, 1416, Note_off_c, 1, 72, 0
1, 1440, Note_on_c, 1, 71, 127
1, 1512, Note_off_c, 1, 52, 0
1, 1536, Note_off_c, 1, 71, 0
1, 1560, Note_on_c, 1, 72, 127
1, 1560, Note_on_c, 1, 57, 127
1, 1584, Note_off_c, 1, 72, 0
1, 1590, Note_on_c, 1, 74, 127
1, 1614, Note_off_c, 1, 74, 0
1, 1656, Note_off_c, 1, 57, 0
1, 1680, Note_on_c, 1, 45, 127
1, 1776, Note_off_c, 1, 45, 0
1, 1920, Note_on_c, 1, 71, 127
1, 1920, Note_on_c, 1, 59, 127
1, 2016, Note_off_c, 1, 71, 0
1, 2016, Note_off_c, 1, 59, 0
1, 2040, Note_on_c, 1, 69, 127
1, 2040, Note_on_c, 1, 60, 127
1, 2136, Note_off_c, 1, 60, 0
1, 2160, Note_on_c, 1, 62, 127
1, 2232, Note_off_c, 1, 69, 0
1, 2256, Note_off_c, 1, 62, 0
1, 2280, Note_on_c, 1, 81, 127
1, 2280, Note_on_c, 1, 64, 127
1, 2376, Note_off_c, 1, 64, 0
1, 2400, Note_on_c, 1, 65, 127
1, 2472, Note_off_c, 1, 81, 0
1, 2496, Note_off_c, 1, 65, 0
1, 2520, Note_on_c, 1, 80, 127
1, 2520, Note_on_c, 1, 64, 127
1, 2544, Note_off_c, 1, 80, 0
1, 2550, Note_on_c, 1, 78, 127
1, 2574, Note_off_c, 1, 78, 0
1, 2616, Note_off_c, 1, 64, 0
1, 2640, Note_on_c, 1, 62, 127
1, 2736, Note_off_c, 1, 62, 0
1, 2760, Note_on_c, 1, 60, 127
1, 2856, Note_off_c, 1, 60, 0
1, 2880, Note_on_c, 1, 81, 127
1, 2880, Note_on_c, 1, 59, 127
1, 2976, Note_off_c, 1, 81, 0
1, 2976, Note_off_c, 1, 59, 0
1, 3000, Note_on_c, 1, 76, 127
1, 3000, Note_on_c, 1, 60, 127
1, 3120, Note_on_c, 1, 64, 127
1, 3216, Note_off_c, 1, 64, 0
1, 3240, Note_on_c, 1, 69, 127
1, 3288, Note_off_c, 1, 76, 0
1, 3288, Note_off_c, 1, 60, 0
1, 3360, Note_on_c, 1, 79, 127
1, 3360, Note_on_c, 1, 61, 127
1, 3456, Note_off_c, 1, 79, 0
1, 3456, Note_off_c, 1, 61, 0
1, 3480, Note_on_c, 1, 77, 127
1, 3480, Note_on_c, 1, 62, 127
1, 3576, Note_off_c, 1, 77, 0
1, 3624, Note_off_c, 1, 69, 0
1, 3672, Note_off_c, 1, 62, 0
1, 3720, Note_on_c, 1, 74, 127
1, 3720, Note_on_c, 1, 68, 127
1, 3720, Note_on_c, 1, 59, 127
1, 3816, Note_off_c, 1, 74, 0
1, 3840, Note_on_c, 1, 77, 127
1, 3900, Note_off_c, 1, 59, 0
1, 3912, Note_off_c, 1, 68, 0
1, 3936, Note_off_c, 1, 77, 0
1, 3960, Note_on_c, 1, 76, 127
1, 3960, Note_on_c, 1, 69, 127
1, 3960, Note_on_c, 1, 60, 127
1, 4056, Note_off_c, 1, 76, 0
1, 4080, Note_on_c, 1, 74, 127
1, 4140, Note_off_c, 1, 60, 0
1, 4176, Note_off_c, 1, 74, 0
1, 4200, Note_on_c, 1, 62, 127
1, 4320, Note_on_c, 1, 77, 127
1, 4344, Note_off_c, 1, 69, 0
1, 4380, Note_off_c, 1, 62, 0
1, 4416, Note_off_c, 1, 77, 0
1, 4440, Note_on_c, 1, 72, 127
1, 4440, Note_on_c, 1, 64, 127
1, 4488, Note_off_c, 1, 72, 0
1, 4500, Note_on_c, 1, 71, 127
1, 4560, Note_on_c, 1, 69, 127
1, 4656, Note_off_c, 1, 69, 0
1, 4680, Note_on_c, 1, 68, 127
1, 4728, Note_off_c, 1, 64, 0
1, 4872, Note_off_c, 1, 71, 0
1, 4872, Note_off_c, 1, 68, 0
1, 4920, Note_on_c, 1, 62, 127
1, 5016, Note_off_c, 1, 62, 0
1, 5040, Note_on_c, 1, 60, 127
1, 5136, Note_off_c, 1, 60, 0
1, 5160, Note_on_c, 1, 68, 127
1, 5160, Note_on_c, 1, 59, 127
1, 5256, Note_off_c, 1, 68, 0
1, 5256, Note_off_c, 1, 59, 0
1, 5280, Note_on_c, 1, 69, 127
1, 5280, Note_on_c, 1, 62, 127
1, 5376, Note_off_c, 1, 69, 0
1, 5376, Note_off_c, 1, 62, 0
1, 5400, Note_on_c, 1, 71, 127
1, 5400, Note_on_c, 1, 60, 127
1, 5424, Note_off_c, 1, 71, 0
1, 5430, Note_on_c, 1, 69, 127
1, 5454, Note_off_c, 1, 69, 0
1, 5496, Note_off_c, 1, 60, 0
1, 5520, Note_on_c, 1, 71, 127
1, 5520, Note_on_c, 1, 59, 127
1, 5544, Note_off_c, 1, 71, 0
1, 5550, Note_on_c, 1, 69, 127
1, 5574, Note_off_c, 1, 69, 0
1, 5616, Note_off_c, 1, 59, 0
1, 5640, Note_on_c, 1, 71, 127
1, 5640, Note_on_c, 1, 60, 127
1, 5664, Note_off_c, 1, 71, 0
1, 5670, Note_on_c, 1, 69, 127
1, 5694, Note_off_c, 1, 69, 0
1, 5736, Note_off_c, 1, 60, 0
1, 5760, Note_on_c, 1, 68, 127
1, 5760, Note_on_c, 1, 62, 127
1, 5808, Note_off_c, 1, 68, 0
1, 5820, Note_on_c, 1, 69, 127
1, 5856, Note_off_c, 1, 62, 0
1, 5868, Note_off_c, 1, 69, 0
1, 5880, Note_on_c, 1, 71, 127
1, 5880, Note_on_c, 1, 56, 127
1, 5976, Note_off_c, 1, 56, 0
1, 6000, Note_on_c, 1, 59, 127
1, 6096, Note_off_c, 1, 59, 0
1, 6120, Note_on_c, 1, 57, 127
1, 6168, Note_off_c, 1, 71, 0
1, 6216, Note_off_c, 1, 57, 0
1, 6240, Note_on_c, 1, 72, 127
1, 6240, Note_on_c, 1, 56, 127
1, 6336, Note_off_c, 1, 72, 0
1, 6336, Note_off_c, 1, 56, 0
1, 6360, Note_on_c, 1, 74, 127
1, 6360, Note_on_c, 1, 54, 127
1, 6456, Note_off_c, 1, 74, 0
1, 6456, Note_off_c, 1, 54, 0
1, 6480, Note_on_c, 1, 71, 127
1, 6480, Note_on_c, 1, 52, 127
1, 6576, Note_off_c, 1, 71, 0
1, 6576, Note_off_c, 1, 52, 0
1, 6600, Note_on_c, 1, 72, 127
1, 6600, Note_on_c, 1, 57, 127
1, 6696, Note_off_c, 1, 72, 0
1, 6696, Note_off_c, 1, 57, 0
1, 6720, Note_on_c, 1, 74, 127
1, 6720, Note_on_c, 1, 55, 127
1, 6816, Note_off_c, 1, 74, 0
1, 6816, Note_off_c, 1, 55, 0
1, 6840, Note_on_c, 1, 76, 127
1, 6840, Note_on_c, 1, 53, 127
1, 6869, Note_off_c, 1, 76, 0
1, 6870, Note_on_c, 1, 74, 127
1, 6899, Note_off_c, 1, 74, 0
1, 6936, Note_off_c, 1, 53, 0
1, 6960, Note_on_c, 1, 76, 127
1, 6960, Note_on_c, 1, 52, 127
1, 6984, Note_off_c, 1, 76, 0
1, 6990, Note_on_c, 1, 74, 127
1, 7014, Note_off_c, 1, 74, 0
1, 7056, Note_off_c, 1, 52, 0
1, 7080, Note_on_c, 1, 76, 127
1, 7080, Note_on_c, 1, 53, 127
1, 7104, Note_off_c, 1, 76, 0
1, 7110, Note_on_c, 1, 74, 127
1, 7134, Note_off_c, 1, 74, 0
1, 7176, Note_off_c, 1, 53, 0
1, 7200, Note_on_c, 1, 72, 127
1, 7200, Note_on_c, 1, 55, 127
1, 7248, Note_off_c, 1, 72, 0
1, 7260, Note_on_c, 1, 74, 127
1, 7296, Note_off_c, 1, 55, 0
1, 7308, Note_off_c, 1, 74, 0
1, 7320, Note_on_c, 1, 76, 127
1, 7320, Note_on_c, 1, 48, 127
1, 7416, Note_off_c, 1, 48, 0
1, 7440, Note_on_c, 1, 53, 127
1, 7536, Note_off_c, 1, 53, 0
1, 7560, Note_on_c, 1, 52, 127
1, 7608, Note_off_c, 1, 76, 0
1, 7656, Note_off_c, 1, 52, 0
1, 7680, Note_on_c, 1, 77, 127
1, 7680, Note_on_c, 1, 50, 127
1, 7776, Note_off_c, 1, 77, 0
1, 7776, Note_off_c, 1, 50, 0
1, 7800, Note_on_c, 1, 79, 127
1, 7800, Note_on_c, 1, 48, 127
1, 7896, Note_off_c, 1, 79, 0
1, 7896, Note_off_c, 1, 48, 0
1, 7920, Note_on_c, 1, 76, 127
1, 7920, Note_on_c, 1, 46, 127
1, 8016, Note_off_c, 1, 76, 0
1, 8016, Note_off_c, 1, 46, 0
1, 8040, Note_on_c, 1, 77, 127
1, 8040, Note_on_c, 1, 45, 127
1, 8136, Note_off_c, 1, 77, 0
1, 8136, Note_off_c, 1, 45, 0
1, 8160, Note_on_c, 1, 79, 127
1, 8160, Note_on_c, 1, 48, 127
1, 8256, Note_off_c, 1, 79, 0
1, 8256, Note_off_c, 1, 48, 0
1, 8280, Note_on_c, 1, 81, 127
1, 8280, Note_on_c, 1, 46, 127
1, 8309, Note_off_c, 1, 81, 0
1, 8310, Note_on_c, 1, 79, 127
1, 8339, Note_off_c, 1, 79, 0
1, 8376, Note_off_c, 1, 46, 0
1, 8400, Note_on_c, 1, 81, 127
1, 8400, Note_on_c, 1, 45, 127
1, 8424, Note_off_c, 1, 81, 0
1, 8430, Note_on_c, 1, 79, 127
1, 8454, Note_off_c, 1, 79, 0
1, 8496, Note_off_c, 1, 45, 0
1, 8520, Note_on_c, 1, 81, 127
1, 8520, Note_on_c, 1, 46, 127
1, 8544, Note_off_c, 1, 81, 0
1, 8550, Note_on_c, 1, 79, 127
1, 8574, Note_off_c, 1, 79, 0
1, 8616, Note_off_c, 1, 46, 0
1, 8640, Note_on_c, 1, 77, 127
1, 8640, Note_on_c, 1, 48, 127
1, 8688, Note_off_c, 1, 77, 0
1, 8700, Note_on_c, 1, 79, 127
1, 8736, Note_off_c, 1, 48, 0
1, 8748, Note_off_c, 1, 79, 0
1, 8760, Note_on_c, 1, 81, 127
1, 8760, Note_on_c, 1, 41, 127
1, 8856, Note_off_c, 1, 81, 0
1, 8880, Note_on_c, 1, 82, 127
1, 8952, Note_off_c, 1, 41, 0
1, 8976, Note_off_c, 1, 82, 0
1, 9000, Note_on_c, 1, 81, 127
1, 9000, Note_on_c, 1, 53, 127
1, 9096, Note_off_c, 1, 81, 0
1, 9096, Note_off_c, 1, 53, 0
1, 9120, Note_on_c, 1, 79, 127
1, 9120, Note_on_c, 1, 55, 127
1, 9216, Note_off_c, 1, 79, 0
1, 9216, Note_off_c, 1, 55, 0
1, 9240, Note_on_c, 1, 77, 127
1, 9240, Note_on_c, 1, 57, 127
1, 9336, Note_off_c, 1, 77, 0
1, 9336, Note_off_c, 1, 57, 0
1, 9360, Note_on_c, 1, 76, 127
1, 9360, Note_on_c, 1, 55, 127
1, 9456, Note_off_c, 1, 76, 0
1, 9456, Note_off_c, 1, 55, 0
1, 9480, Note_on_c, 1, 74, 127
1, 9480, Note_on_c, 1, 53, 127
1, 9576, Note_off_c, 1, 74, 0
1, 9576, Note_off_c, 1, 53, 0
1, 9600, Note_on_c, 1, 72, 127
1, 9600, Note_on_c, 1, 52, 127
1, 9696, Note_off_c, 1, 72, 0
1, 9696, Note_off_c, 1, 52, 0
1, 9720, Note_on_c, 1, 77, 127
1, 9720, Note_on_c, 1, 50, 127
1, 9744, Note_off_c, 1, 77, 0
1, 9750, Note_on_c, 1, 76, 127
1, 9774, Note_off_c, 1, 76, 0
1, 9816, Note_off_c, 1, 50, 0
1, 9840, Note_on_c, 1, 48, 127
1, 9936, Note_off_c, 1, 48, 0
1, 9960, Note_on_c, 1, 47, 127
1, 10056, Note_off_c, 1, 47, 0
1, 10080, Note_on_c, 1, 77, 127
1, 10080, Note_on_c, 1, 45, 127
1, 10176, Note_off_c, 1, 77, 0
1, 10176, Note_off_c, 1, 45, 0
1, 10200, Note_on_c, 1, 67, 127
1, 10200, Note_on_c, 1, 47, 127
1, 10230, Note_on_c, 1, 74, 127
1, 10260, Note_on_c, 1, 77, 127
1, 10296, Note_off_c, 1, 47, 0
1, 10320, Note_on_c, 1, 43, 127
1, 10416, Note_off_c, 1, 43, 0
1, 10440, Note_on_c, 1, 45, 127
1, 10488, Note_off_c, 1, 67, 0
1, 10512, Note_off_c, 1, 74, 0
1, 10512, Note_off_c, 1, 77, 0
1, 10536, Note_off_c, 1, 45, 0
1, 10560, Note_on_c, 1, 74, 127
1, 10560, Note_on_c, 1, 47, 127
1, 10656, Note_off_c, 1, 74, 0
1, 10656, Note_off_c, 1, 47, 0
1, 10680, Note_on_c, 1, 76, 127
1, 10680, Note_on_c, 1, 48, 127
1, 10776, Note_off_c, 1, 76, 0
1, 10776, Note_off_c, 1, 48, 0
1, 10800, Note_on_c, 1, 77, 127
1, 10800, Note_on_c, 1, 50, 127
1, 10896, Note_off_c, 1, 77, 0
1, 10896, Note_off_c, 1, 50, 0
1, 10920, Note_on_c, 1, 79, 127
1, 10920, Note_on_c, 1, 52, 127
1, 11016, Note_off_c, 1, 79, 0
1, 11016, Note_off_c, 1, 52, 0
1, 11040, Note_on_c, 1, 81, 127
1, 11040, Note_on_c, 1, 53, 127
1, 11136, Note_off_c, 1, 81, 0
1, 11136, Note_off_c, 1, 53, 0
1, 11160, Note_on_c, 1, 79, 127
1, 11160, Note_on_c, 1, 55, 127
1, 11256, Note_off_c, 1, 79, 0
1, 11280, Note_on_c, 1, 77, 127
1, 11340, Note_off_c, 1, 55, 0
1, 11376, Note_off_c, 1, 77, 0
1, 11400, Note_on_c, 1, 76, 127
1, 11400, Note_on_c, 1, 43, 127
1, 11496, Note_off_c, 1, 76, 0
1, 11520, Note_on_c, 1, 74, 127
1, 11580, Note_off_c, 1, 43, 0
1, 11616, Note_off_c, 1, 74, 0
1, 11640, Note_on_c, 1, 76, 127
1, 11640, Note_on_c, 1, 48, 127
1, 11664, Note_off_c, 1, 76, 0
1, 11670, Note_on_c, 1, 77, 127
1, 11694, Note_off_c, 1, 77, 0
1, 11760, Note_on_c, 1, 55, 127
1, 11856, Note_off_c, 1, 55, 0
1, 11880, Note_on_c, 1, 60, 127
1, 12000, Note_off_c, 1, 48, 0
1, 12000, Note_on_c, 1, 74, 127
1, 12000, Note_on_c, 1, 50, 127
1, 12072, Note_off_c, 1, 60, 0
1, 12096, Note_off_c, 1, 74, 0
1, 12120, Note_off_c, 1, 50, 0
1, 12120, Note_on_c, 1, 72, 127
1, 12120, Note_on_c, 1, 52, 127
1, 12216, Note_off_c, 1, 72, 0
1, 12360, Note_off_c, 1, 52, 0
1, 12360, Note_on_c, 1, 53, 127
1, 12540, Note_off_c, 1, 53, 0
1, 12600, Note_on_c, 1, 71, 127
1, 12600, Note_on_c, 1, 55, 127
1, 12696, Note_off_c, 1, 71, 0
1, 12720, Note_on_c, 1, 69, 127
1, 12780, Note_off_c, 1, 55, 0
1, 12816, Note_off_c, 1, 69, 0
1, 12840, Note_on_c, 1, 71, 127
1, 12840, Note_on_c, 1, 57, 127
1, 12936, Note_off_c, 1, 71, 0
1, 12960, Note_on_c, 1, 72, 127
1, 13020, Note_off_c, 1, 57, 0
1, 13056, Note_off_c, 1, 72, 0
1, 13080, Note_on_c, 1, 65, 127
1, 13080, Note_on_c, 1, 59, 127
1, 13176, Note_off_c, 1, 59, 0
1, 13200, Note_on_c, 1, 60, 127
1, 13296, Note_off_c, 1, 60, 0
1, 13320, Note_on_c, 1, 62, 127
1, 13368, Note_off_c, 1, 65, 0
1, 13416, Note_off_c, 1, 62, 0
1, 13440, Note_on_c, 1, 64, 127
1, 13440, Note_on_c, 1, 60, 127
1, 13536, Note_off_c, 1, 64, 0
1, 13536, Note_off_c, 1, 60, 0
1, 13560, Note_on_c, 1, 65, 127
1, 13560, Note_on_c, 1, 59, 127
1, 13656, Note_off_c, 1, 65, 0
1, 13656, Note_off_c, 1, 59, 0
1, 13680, Note_on_c, 1, 62, 127
1, 13680, Note_on_c, 1, 57, 127
1, 13776, Note_off_c, 1, 62, 0
1, 13776, Note_off_c, 1, 57, 0
1, 13800, Note_on_c, 1, 64, 127
1, 13800, Note_on_c, 1, 55, 127
1, 13896, Note_off_c, 1, 64, 0
1, 13896, Note_off_c, 1, 55, 0
1, 13920, Note_on_c, 1, 65, 127
1, 13920, Note_on_c, 1, 53, 127
1, 14016, Note_off_c, 1, 65, 0
1, 14016, Note_off_c, 1, 53, 0
1, 14040, Note_on_c, 1, 67, 127
1, 14040, Note_on_c, 1, 52, 127
1, 14136, Note_off_c, 1, 67, 0
1, 14136, Note_off_c, 1, 52, 0
1, 14160, Note_on_c, 1, 69, 127
1, 14160, Note_on_c, 1, 48, 127
1, 14256, Note_off_c, 1, 69, 0
1, 14256, Note_off_c, 1, 48, 0
1, 14280, Note_on_c, 1, 70, 127
1, 14280, Note_on_c, 1, 50, 127
1, 14376, Note_off_c, 1, 70, 0
1, 14376, Note_off_c, 1, 50, 0
1, 14400, Note_on_c, 1, 67, 127
1, 14400, Note_on_c, 1, 52, 127
1, 14496, Note_off_c, 1, 67, 0
1, 14496, Note_off_c, 1, 52, 0
1, 14520, Note_on_c, 1, 69, 127
1, 14520, Note_on_c, 1, 53, 127
1, 14616, Note_off_c, 1, 53, 0
1, 14640, Note_on_c, 1, 52, 127
1, 14736, Note_off_c, 1, 52, 0
1, 14808, Note_off_c, 1, 69, 0
1, 14880, Note_on_c, 1, 67, 127
1, 14880, Note_on_c, 1, 55, 127
1, 14976, Note_off_c, 1, 67, 0
1, 14976, Note_off_c, 1, 55, 0
1, 15000, Note_on_c, 1, 65, 127
1, 15000, Note_on_c, 1, 57, 127
1, 15096, Note_off_c, 1, 65, 0
1, 15120, Note_on_c, 1, 64, 127
1, 15192, Note_off_c, 1, 57, 0
1, 15216, Note_off_c, 1, 64, 0
1, 15240, Note_on_c, 1, 62, 127
1, 15240, Note_on_c, 1, 53, 127
1, 15336, Note_off_c, 1, 62, 0
1, 15360, Note_on_c, 1, 74, 127
1, 15420, Note_off_c, 1, 53, 0
1, 15456, Note_off_c, 1, 74, 0
1, 15480, Note_on_c, 1, 72, 127
1, 15480, Note_on_c, 1, 55, 127
1, 15504, Note_off_c, 1, 72, 0
1, 15510, Note_on_c, 1, 71, 127
1, 15534, Note_off_c, 1, 71, 0
1, 15540, Note_on_c, 1, 69, 127
1, 15564, Note_off_c, 1, 69, 0
1, 15660, Note_off_c, 1, 55, 0
1, 15690, Note_on_c, 1, 71, 127
1, 15714, Note_off_c, 1, 71, 0
1, 15720, Note_on_c, 1, 72, 127
1, 15720, Note_on_c, 1, 43, 127
1, 15744, Note_off_c, 1, 72, 0
1, 15750, Note_on_c, 1, 71, 127
1, 15774, Note_off_c, 1, 71, 0
1, 15780, Note_on_c, 1, 69, 127
1, 15804, Note_off_c, 1, 69, 0
1, 15900, Note_off_c, 1, 43, 0
1, 15960, Note_on_c, 1, 72, 127
1, 15960, Note_on_c, 1, 48, 127
1, 16200, Note_on_c, 1, 36, 127
1, 16344, Note_off_c, 1, 48, 0
1, 16440, Note_on_c, 1, 43, 127
1, 16632, Note_off_c, 1, 43, 0
1, 16680, Note_on_c, 1, 67, 127
1, 16680, Note_on_c, 1, 64, 127
1, 17064, Note_off_c, 1, 72, 0
1, 17064, Note_off_c, 1, 36, 0
1, 17064, Note_off_c, 1, 67, 0
1, 17064, Note_off_c, 1, 64, 0
1, 17280, Note_on_c, 1, 69, 127
1, 17376, Note_off_c, 1, 69, 0
1, 17400, Note_on_c, 1, 64, 127
1, 17400, Note_on_c, 1, 60, 127
1, 17400, Note_on_c, 1, 69, 127
1, 17400, Note_on_c, 1, 57, 127
1, 17592, Note_off_c, 1, 57, 0
1, 17640, Note_on_c, 1, 52, 127
1, 17688, Note_off_c, 1, 64, 0
1, 17688, Note_off_c, 1, 60, 0
1, 17688, Note_off_c, 1, 69, 0
1, 17760, Note_on_c, 1, 71, 127
1, 17832, Note_off_c, 1, 52, 0
1, 17856, Note_off_c, 1, 71, 0
1, 17880, Note_on_c, 1, 72, 127
1, 17880, Note_on_c, 1, 45, 127
1, 17976, Note_off_c, 1, 72, 0
1, 18000, Note_on_c, 1, 74, 127
1, 18072, Note_off_c, 1, 45, 0
1, 18096, Note_off_c, 1, 74, 0
1, 18120, Note_on_c, 1, 76, 127
1, 18120, Note_on_c, 1, 57, 127
1, 18216, Note_off_c, 1, 76, 0
1, 18240, Note_on_c, 1, 77, 127
1, 18312, Note_off_c, 1, 57, 0
1, 18336, Note_off_c, 1, 77, 0
1, 18360, Note_on_c, 1, 76, 127
1, 18360, Note_on_c, 1, 56, 127
1, 18456, Note_off_c, 1, 76, 0
1, 18480, Note_on_c, 1, 74, 127
1, 18552, Note_off_c, 1, 56, 0
1, 18576, Note_off_c, 1, 74, 0
1, 18600, Note_on_c, 1, 72, 127
1, 18600, Note_on_c, 1, 52, 127
1, 18696, Note_off_c, 1, 72, 0
1, 18720, Note_on_c, 1, 71, 127
1, 18792, Note_off_c, 1, 52, 0
1, 18816, Note_off_c, 1, 71, 0
1, 18840, Note_on_c, 1, 72, 127
1, 18840, Note_on_c, 1, 57, 127
1, 18864, Note_off_c, 1, 72, 0
1, 18870, Note_on_c, 1, 74, 127
1, 18894, Note_off_c, 1, 74, 0
1, 18936, Note_off_c, 1, 57, 0
1, 18960, Note_on_c, 1, 45, 127
1, 19056, Note_off_c, 1, 45, 0
1, 19200, Note_on_c, 1, 71, 127
1, 19200, Note_on_c, 1, 59, 127
1, 19296, Note_off_c, 1, 71, 0
1, 19296, Note_off_c, 1, 59, 0
1, 19320, Note_on_c, 1, 69, 127
1, 19320, Note_on_c, 1, 60, 127
1, 19416, Note_off_c, 1, 60, 0
1, 19440, Note_on_c, 1, 62, 127
1, 19512, Note_off_c, 1, 69, 0
1, 19536, Note_off_c, 1, 62, 0
1, 19560, Note_on_c, 1, 81, 127
1, 19560, Note_on_c, 1, 64, 127
1, 19656, Note_off_c, 1, 64, 0
1, 19680, Note_on_c, 1, 65, 127
1, 19752, Note_off_c, 1, 81, 0
1, 19776, Note_off_c, 1, 65, 0
1, 19800, Note_on_c, 1, 80, 127
1, 19800, Note_on_c, 1, 64, 127
1, 19824, Note_off_c, 1, 80, 0
1, 19830, Note_on_c, 1, 78, 127
1, 19854, Note_off_c, 1, 78, 0
1, 19896, Note_off_c, 1, 64, 0
1, 19920, Note_on_c, 1, 62, 127
1, 20016, Note_off_c, 1, 62, 0
1, 20040, Note_on_c, 1, 60, 127
1, 20136, Note_off_c, 1, 60, 0
1, 20160, Note_on_c, 1, 81, 127
1, 20160, Note_on_c, 1, 59, 127
1, 20256, Note_off_c, 1, 81, 0
1, 20256, Note_off_c, 1, 59, 0
1, 20280, Note_on_c, 1, 76, 127
1, 20280, Note_on_c, 1, 60, 127
1, 20400, Note_on_c, 1, 64, 127
1, 20496, Note_off_c, 1, 64, 0
1, 20520, Note_on_c, 1, 69, 127
1, 20568, Note_off_c, 1, 76, 0
1, 20568, Note_off_c, 1, 60, 0
1, 20640, Note_on_c, 1, 79, 127
1, 20640, Note_on_c, 1, 61, 127
1, 20736, Note_off_c, 1, 79, 0
1, 20736, Note_off_c, 1, 61, 0
1, 20760, Note_on_c, 1, 77, 127
1, 20760, Note_on_c, 1, 62, 127
1, 20856, Note_off_c, 1, 77, 0
1, 20904, Note_off_c, 1, 69, 0
1, 20952, Note_off_c, 1, 62, 0
1, 21000, Note_on_c, 1, 74, 127
1, 21000, Note_on_c, 1, 68, 127
1, 21000, Note_on_c, 1, 59, 127
1, 21096, Note_off_c, 1, 74, 0
1, 21120, Note_on_c, 1, 77, 127
1, 21180, Note_off_c, 1, 59, 0
1, 21192, Note_off_c, 1, 68, 0
1, 21216, Note_off_c, 1, 77, 0
1, 21240, Note_on_c, 1, 76, 127
1, 21240, Note_on_c, 1, 69, 127
1, 21240, Note_on_c, 1, 60, 127
1, 21336, Note_off_c, 1, 76, 0
1, 21360, Note_on_c, 1, 74, 127
1, 21420, Note_off_c, 1, 60, 0
1, 21456, Note_off_c, 1, 74, 0
1, 21480, Note_on_c, 1, 62, 127
1, 21600, Note_on_c, 1, 77, 127
1, 21624, Note_off_c, 1, 69, 0
1, 21660, Note_off_c, 1, 62, 0
1, 21696, Note_off_c, 1, 77, 0
1, 21720, Note_on_c, 1, 72, 127
1, 21720, Note_on_c, 1, 64, 127
1, 21768, Note_off_c, 1, 72, 0
1, 21780, Note_on_c, 1, 71, 127
1, 21840, Note_on_c, 1, 69, 127
1, 21936, Note_off_c, 1, 69, 0
1, 21960, Note_on_c, 1, 68, 127
1, 22008, Note_off_c, 1, 64, 0
1, 22152, Note_off_c, 1, 71, 0
1, 22152, Note_off_c, 1, 68, 0
1, 22200, Note_on_c, 1, 62, 127
1, 22296, Note_off_c, 1, 62, 0
1, 22320, Note_on_c, 1, 60, 127
1, 22416, Note_off_c, 1, 60, 0
1, 22440, Note_on_c, 1, 68, 127
1, 22440, Note_on_c, 1, 59, 127
1, 22536, Note_off_c, 1, 68, 0
1, 22536, Note_off_c, 1, 59, 0
1, 22560, Note_on_c, 1, 69, 127
1, 22560, Note_on_c, 1, 62, 127
1, 22656, Note_off_c, 1, 69, 0
1, 22656, Note_off_c, 1, 62, 0
1, 22680, Note_on_c, 1, 71, 127
1, 22680, Note_on_c, 1, 60, 127
1, 22704, Note_off_c, 1, 71, 0
1, 22710, Note_on_c, 1, 69, 127
1, 22734, Note_off_c, 1, 69, 0
1, 22776, Note_off_c, 1, 60, 0
1, 22800, Note_on_c, 1, 71, 127
1, 22800, Note_on_c, 1, 59, 127
1, 22824, Note_off_c, 1, 71, 0
1, 22830, Note_on_c, 1, 69, 127
1, 22854, Note_off_c, 1, 69, 0
1, 22896, Note_off_c, 1, 59, 0
1, 22920, Note_on_c, 1, 71, 127
1, 22920, Note_on_c, 1, 60, 127
1, 22944, Note_off_c, 1, 71, 0
1, 22950, Note_on_c, 1, 69, 127
1, 22974, Note_off_c, 1, 69, 0
1, 23016, Note_off_c, 1, 60, 0
1, 23040, Note_on_c, 1, 68, 127
1, 23040, Note_on_c, 1, 62, 127
1, 23088, Note_off_c, 1, 68, 0
1, 23100, Note_on_c, 1, 69, 127
1, 23136, Note_off_c, 1, 62, 0
1, 23148, Note_off_c, 1, 69, 0
1, 23160, Note_on_c, 1, 71, 127
1, 23160, Note_on_c, 1, 56, 127
1, 23256, Note_off_c, 1, 56, 0
1, 23280, Note_on_c, 1, 59, 127
1, 23376, Note_off_c, 1, 59, 0
1, 23400, Note_on_c, 1, 57, 127
1, 23448, Note_off_c, 1, 71, 0
1, 23496, Note_off_c, 1, 57, 0
1, 23520, Note_on_c, 1, 72, 127
1, 23520, Note_on_c, 1, 56, 127
1, 23616, Note_off_c, 1, 72, 0
1, 23616, Note_off_c, 1, 56, 0
1, 23640, Note_on_c, 1, 74, 127
1, 23640, Note_on_c, 1, 54, 127
1, 23736, Note_off_c, 1, 74, 0
1, 23736, Note_off_c, 1, 54, 0
1, 23760, Note_on_c, 1, 71, 127
1, 23760, Note_on_c, 1, 52, 127
1, 23856, Note_off_c, 1, 71, 0
1, 23856, Note_off_c, 1, 52, 0
1, 23880, Note_on_c, 1, 72, 127
1, 23880, Note_on_c, 1, 57, 127
1, 23976, Note_off_c, 1, 72, 0
1, 23976, Note_off_c, 1, 57, 0
1, 24000, Note_on_c, 1, 74, 127
1, 24000, Note_on_c, 1, 55, 127
1, 24096, Note_off_c, 1, 74, 0
1, 24096, Note_off_c, 1, 55, 0
1, 24120, Note_on_c, 1, 76, 127
1, 24120, Note_on_c, 1, 53, 127
1, 24149, Note_off_c, 1, 76, 0
1, 24150, Note_on_c, 1, 74, 127
1, 24179, Note_off_c, 1, 74, 0
1, 24216, Note_off_c, 1, 53, 0
1, 24240, Note_on_c, 1, 76, 127
1, 24240, Note_on_c, 1, 52, 127
1, 24264, Note_off_c, 1, 76, 0
1, 24270, Note_on_c, 1, 74, 127
1, 24294, Note_off_c, 1, 74, 0
1, 24336, Note_off_c, 1, 52, 0
1, 24360, Note_on_c, 1, 76, 127
1, 24360, Note_on_c, 1, 53, 127
1, 24384, Note_off_c, 1, 76, 0
1, 24390, Note_on_c, 1, 74, 127
1, 24414, Note_off_c, 1, 74, 0
1, 24456, Note_off_c, 1, 53, 0
1, 24480, Note_on_c, 1, 72, 127
1, 24480, Note_on_c, 1, 55, 127
1, 24528, Note_off_c, 1, 72, 0
1, 24540, Note_on_c, 1, 74, 127
1, 24576, Note_off_c, 1, 55, 0
1, 24588, Note_off_c, 1, 74, 0
1, 24600, Note_on_c, 1, 76, 127
1, 24600, Note_on_c, 1, 48, 127
1, 24696, Note_off_c, 1, 48, 0
1, 24720, Note_on_c, 1, 53, 127
1, 24816, Note_off_c, 1, 53, 0
1, 24840, Note_on_c, 1, 52, 127
1, 24888, Note_off_c, 1, 76, 0
1, 24936, Note_off_c, 1, 52, 0
1, 24960, Note_on_c, 1, 77, 127
1, 24960, Note_on_c, 1, 50, 127
1, 25056, Note_off_c, 1, 77, 0
1, 25056, Note_off_c, 1, 50, 0
1, 25080, Note_on_c, 1, 79, 127
1, 25080, Note_on_c, 1, 48, 127
1, 25176, Note_off_c, 1, 79, 0
1, 25176, Note_off_c, 1, 48, 0
1, 25200, Note_on_c, 1, 76, 127
1, 25200, Note_on_c, 1, 46, 127
1, 25296, Note_off_c, 1, 76, 0
1, 25296, Note_off_c, 1, 46, 0
1, 25320, Note_on_c, 1, 77, 127
1, 25320, Note_on_c, 1, 45, 127
1, 25416, Note_off_c, 1, 77, 0
1, 25416, Note_off_c, 1, 45, 0
1, 25440, Note_on_c, 1, 79, 127
1, 25440, Note_on_c, 1, 48, 127
1, 25536, Note_off_c, 1, 79, 0
1, 25536, Note_off_c, 1, 48, 0
1, 25560, Note_on_c, 1, 81, 127
1, 25560, Note_on_c, 1, 46, 127
1, 25589, Note_off_c, 1, 81, 0
1, 25590, Note_on_c, 1, 79, 127
1, 25619, Note_off_c, 1, 79, 0
1, 25656, Note_off_c, 1, 46, 0
1, 25680, Note_on_c, 1, 81, 127
1, 25680, Note_on_c, 1, 45, 127
1, 25704, Note_off_c, 1, 81, 0
1, 25710, Note_on_c, 1, 79, 127
1, 25734, Note_off_c, 1, 79, 0
1, 25776, Note_off_c, 1, 45, 0
1, 25800, Note_on_c, 1, 81, 127
1, 25800, Note_on_c, 1, 46, 127
1, 25824, Note_off_c, 1, 81, 0
1, 25830, Note_on_c, 1, 79, 127
1, 25854, Note_off_c, 1, 79, 0
1, 25896, Note_off_c, 1, 46, 0
1, 25920, Note_on_c, 1, 77, 127
1, 25920, Note_on_c, 1, 48, 127
1, 25968, Note_off_c, 1, 77, 0
1, 25980, Note_on_c, 1, 79, 127
1, 26016, Note_off_c, 1, 48, 0
1, 26028, Note_off_c, 1, 79, 0
1, 26040, Note_on_c, 1, 81, 127
1, 26040, Note_on_c, 1, 41, 127
1, 26136, Note_off_c, 1, 81, 0
1, 26160, Note_on_c, 1, 82, 127
1, 26232, Note_off_c, 1, 41, 0
1, 26256, Note_off_c, 1, 82, 0
1, 26280, Note_on_c, 1, 81, 127
1, 26280, Note_on_c, 1, 53, 127
1, 26376, Note_off_c, 1, 81, 0
1, 26376, Note_off_c, 1, 53, 0
1, 26400, Note_on_c, 1, 79, 127
1, 26400, Note_on_c, 1, 55, 127
1, 26496, Note_off_c, 1, 79, 0
1, 26496, Note_off_c, 1, 55, 0
1, 26520, Note_on_c, 1, 77, 127
1, 26520, Note_on_c, 1, 57, 127
1, 26616, Note_off_c, 1, 77, 0
1, 26616, Note_off_c, 1, 57, 0
1, 26640, Note_on_c, 1, 76, 127
1, 26640, Note_on_c, 1, 55, 127
1, 26736, Note_off_c, 1, 76, 0
1, 26736, Note_off_c, 1, 55, 0
1, 26760, Note_on_c, 1, 74, 127
1, 26760, Note_on_c, 1, 53, 127
1, 26856, Note_off_c, 1, 74, 0
1, 26856, Note_off_c, 1, 53, 0
1, 26880, Note_on_c, 1, 72, 127
1, 26880, Note_on_c, 1, 52, 127
1, 26976, Note_off_c, 1, 72, 0
1, 26976, Note_off_c, 1, 52, 0
1, 27000, Note_on_c, 1, 77, 127
1, 27000, Note_on_c, 1, 50, 127
1, 27024, Note_off_c, 1, 77, 0
1, 27030, Note_on_c, 1, 76, 127
1, 27054, Note_off_c, 1, 76, 0
1, 27096, Note_off_c, 1, 50, 0
1, 27120, Note_on_c, 1, 48, 127
1, 27216, Note_off_c, 1, 48, 0
1, 27240, Note_on_c, 1, 47, 127
1, 27336, Note_off_c, 1, 47, 0
1, 27360, Note_on_c, 1, 77, 127
1, 27360, Note_on_c, 1, 45, 127
1, 27456, Note_off_c, 1, 77, 0
1, 27456, Note_off_c, 1, 45, 0
1, 27480, Note_on_c, 1, 67, 127
1, 27480, Note_on_c, 1, 47, 127
1, 27510, Note_on_c, 1, 74, 127
1, 27540, Note_on_c, 1, 77, 127
1, 27576, Note_off_c, 1, 47, 0
1, 27600, Note_on_c, 1, 43, 127
1, 27696, Note_off_c, 1, 43, 0
1, 27720, Note_on_c, 1, 45, 127
1, 27768, Note_off_c, 1, 67, 0
1, 27792, Note_off_c, 1, 74, 0
1, 27792, Note_off_c, 1, 77, 0
1, 27816, Note_off_c, 1, 45, 0
1, 27840, Note_on_c, 1, 74, 127
1, 27840, Note_on_c, 1, 47, 127
1, 27936, Note_off_c, 1, 74, 0
1, 27936, Note_off_c, 1, 47, 0
1, 27960, Note_on_c, 1, 76, 127
1, 27960, Note_on_c, 1, 48, 127
1, 28056, Note_off_c, 1, 76, 0
1, 28056, Note_off_c, 1, 48, 0
1, 28080, Note_on_c, 1, 77, 127
1, 28080, Note_on_c, 1, 50, 127
1, 28176, Note_off_c, 1, 77, 0
1, 28176, Note_off_c, 1, 50, 0
1, 28200, Note_on_c, 1, 79, 127
1, 28200, Note_on_c, 1, 52, 127
1, 28296, Note_off_c, 1, 79, 0
1, 28296, Note_off_c, 1, 52, 0
1, 28320, Note_on_c, 1, 81, 127
1, 28320, Note_on_c, 1, 53, 127
1, 28416, Note_off_c, 1, 81, 0
1, 28416, Note_off_c, 1, 53, 0
1, 28440, Note_on_c, 1, 79, 127
1, 28440, Note_on_c, 1, 55, 127
1, 28536, Note_off_c, 1, 79, 0
1, 28560, Note_on_c, 1, 77, 127
1, 28620, Note_off_c, 1, 55, 0
1, 28656, Note_off_c, 1, 77, 0
1, 28680, Note_on_c, 1, 76, 127
1, 28680, Note_on_c, 1, 43, 127
1, 28776, Note_off_c, 1, 76, 0
1, 28800, Note_on_c, 1, 74, 127
1, 28860, Note_off_c, 1, 43, 0
1, 28896, Note_off_c, 1, 74, 0
1, 28920, Note_on_c, 1, 76, 127
1, 28920, Note_on_c, 1, 48, 127
1, 28944, Note_off_c, 1, 76, 0
1, 28950, Note_on_c, 1, 77, 127
1, 28974, Note_off_c, 1, 77, 0
1, 29040, Note_on_c, 1, 55, 127
1, 29136, Note_off_c, 1, 55, 0
1, 29160, Note_on_c, 1, 60, 127
1, 29280, Note_off_c, 1, 48, 0
1, 29280, Note_on_c, 1, 74, 127
1, 29280, Note_on_c, 1, 50, 127
1, 29352, Note_off_c, 1, 60, 0
1, 29376, Note_off_c, 1, 74, 0
1, 29400, Note_off_c, 1, 50, 0
1, 29400, Note_on_c, 1, 72, 127
1, 29400, Note_on_c, 1, 52, 127
1, 29496, Note_off_c, 1, 72, 0
1, 29640, Note_off_c, 1, 52, 0
1, 29640, Note_on_c, 1, 53, 127
1, 29820, Note_off_c, 1, 53, 0
1, 29880, Note_on_c, 1, 71, 127
1, 29880, Note_on_c, 1, 55, 127
1, 29976, Note_off_c, 1, 71, 0
1, 30000, Note_on_c, 1, 69, 127
1, 30060, Note_off_c, 1, 55, 0
1, 30096, Note_off_c, 1, 69, 0
1, 30120, Note_on_c, 1, 71, 127
1, 30120, Note_on_c, 1, 57, 127
1, 30216, Note_off_c, 1, 71, 0
1, 30240, Note_on_c, 1, 72, 127
1, 30300, Note_off_c, 1, 57, 0
1, 30336, Note_off_c, 1, 72, 0
1, 30360, Note_on_c, 1, 65, 127
1, 30360, Note_on_c, 1, 59, 127
1, 30456, Note_off_c, 1, 59, 0
1, 30480, Note_on_c, 1, 60, 127
1, 30576, Note_off_c, 1, 60, 0
1, 30600, Note_on_c, 1, 62, 127
1, 30648, Note_off_c, 1, 65, 0
1, 30696, Note_off_c, 1, 62, 0
1, 30720, Note_on_c, 1, 64, 127
1, 30720, Note_on_c, 1, 60, 127
1, 30816, Note_off_c, 1, 64, 0
1, 30816, Note_off_c, 1, 60, 0
1, 30840, Note_on_c, 1, 65, 127
1, 30840, Note_on_c, 1, 59, 127
1, 30936, Note_off_c, 1, 65, 0
1, 30936, Note_off_c, 1, 59, 0
1, 30960, Note_on_c, 1, 62, 127
1, 30960, Note_on_c, 1, 57, 127
1, 31056, Note_off_c, 1, 62, 0
1, 31056, Note_off_c, 1, 57, 0
1, 31080, Note_on_c, 1, 64, 127
1, 31080, Note_on_c, 1, 55, 127
1, 31176, Note_off_c, 1, 64, 0
1, 31176, Note_off_c, 1, 55, 0
1, 31200, Note_on_c, 1, 65, 127
1, 31200, Note_on_c, 1, 53, 127
1, 31296, Note_off_c, 1, 65, 0
1, 31296, Note_off_c, 1, 53, 0
1, 31320, Note_on_c, 1, 67, 127
1, 31320, Note_on_c, 1, 52, 127
1, 31416, Note_off_c, 1, 67, 0
1, 31416, Note_off_c, 1, 52, 0
1, 31440, Note_on_c, 1, 69, 127
1, 31440, Note_on_c, 1, 48, 127
1, 31536, Note_off_c, 1, 69, 0
1, 31536, Note_off_c, 1, 48, 0
1, 31560, Note_on_c, 1, 70, 127
1, 31560, Note_on_c, 1, 50, 127
1, 31656, Note_off_c, 1, 70, 0
1, 31656, Note_off_c, 1, 50, 0
1, 31680, Note_on_c, 1, 67, 127
1, 31680, Note_on_c, 1, 52, 127
1, 31776, Note_off_c, 1, 67, 0
1, 31776, Note_off_c, 1, 52, 0
1, 31800, Note_on_c, 1, 69, 127
1, 31800, Note_on_c, 1, 53, 127
1, 31896, Note_off_c, 1, 53, 0
1, 31920, Note_on_c, 1, 52, 127
1, 32016, Note_off_c, 1, 52, 0
1, 32088, Note_off_c, 1, 69, 0
1, 32160, Note_on_c, 1, 67, 127
1, 32160, Note_on_c, 1, 55, 127
1, 32256, Note_off_c, 1, 67, 0
1, 32256, Note_off_c, 1, 55, 0
1, 32280, Note_on_c, 1, 65, 127
1, 32280, Note_on_c, 1, 57, 127
1, 32376, Note_off_c, 1, 65, 0
1, 32400, Note_on_c, 1, 64, 127
1, 32472, Note_off_c, 1, 57, 0
1, 32496, Note_off_c, 1, 64, 0
1, 32520, Note_on_c, 1, 62, 127
1, 32520, Note_on_c, 1, 53, 127
1, 32616, Note_off_c, 1, 62, 0
1, 32640, Note_on_c, 1, 74, 127
1, 32700, Note_off_c, 1, 53, 0
1, 32736, Note_off_c, 1, 74, 0
1, 32760, Note_on_c, 1, 72, 127
1, 32760, Note_on_c, 1, 55, 127
1, 32784, Note_off_c, 1, 72, 0
1, 32790, Note_on_c, 1, 71, 127
1, 32814, Note_off_c, 1, 71, 0
1, 32820, Note_on_c, 1, 69, 127
1, 32844, Note_off_c, 1, 69, 0
1, 32940, Note_off_c, 1, 55, 0
1, 32970, Note_on_c, 1, 71, 127
1, 32994, Note_off_c, 1, 71, 0
1, 33000, Note_on_c, 1, 72, 127
1, 33000, Note_on_c, 1, 43, 127
1, 33024, Note_off_c, 1, 72, 0
1, 33030, Note_on_c, 1, 71, 127
1, 33054, Note_off_c, 1, 71, 0
1, 33060, Note_on_c, 1, 69, 127
1, 33084, Note_off_c, 1, 69, 0
1, 33180, Note_off_c, 1, 43, 0
1, 33240, Note_on_c, 1, 72, 127
1, 33240, Note_on_c, 1, 48, 127
1, 33480, Note_on_c, 1, 36, 127
1, 33624, Note_off_c, 1, 48, 0
1, 33720, Note_on_c, 1, 43, 127
1, 33912, Note_off_c, 1, 43, 0
1, 33960, Note_on_c, 1, 67, 127
1, 33960, Note_on_c, 1, 64, 127
1, 34344, Note_off_c, 1, 72, 0
1, 34344, Note_off_c, 1, 36, 0
1, 34344, Note_off_c, 1, 67, 0
1, 34344, Note_off_c, 1, 64, 0
1, 34560, Note_on_c, 1, 76, 127
1, 34656, Note_off_c, 1, 76, 0
1, 34680, Note_on_c, 1, 67, 127
1, 34680, Note_on_c, 1, 76, 127
1, 34680, Note_on_c, 1, 72, 127
1, 34680, Note_on_c, 1, 48, 127
1, 34872, Note_off_c, 1, 48, 0
1, 34920, Note_on_c, 1, 50, 127
1, 34968, Note_off_c, 1, 67, 0
1, 34968, Note_off_c, 1, 76, 0
1, 34968, Note_off_c, 1, 72, 0
1, 35040, Note_on_c, 1, 74, 127
1, 35112, Note_off_c, 1, 50, 0
1, 35136, Note_off_c, 1, 74, 0
1, 35160, Note_on_c, 1, 72, 127
1, 35160, Note_on_c, 1, 52, 127
1, 35256, Note_off_c, 1, 72, 0
1, 35280, Note_on_c, 1, 71, 127
1, 35352, Note_off_c, 1, 52, 0
1, 35376, Note_off_c, 1, 71, 0
1, 35400, Note_on_c, 1, 69, 127
1, 35400, Note_on_c, 1, 48, 127
1, 35496, Note_off_c, 1, 69, 0
1, 35520, Note_on_c, 1, 67, 127
1, 35592, Note_off_c, 1, 48, 0
1, 35616, Note_off_c, 1, 67, 0
1, 35640, Note_on_c, 1, 66, 127
1, 35640, Note_on_c, 1, 50, 127
1, 35736, Note_off_c, 1, 66, 0
1, 35760, Note_on_c, 1, 68, 127
1, 35832, Note_off_c, 1, 50, 0
1, 35856, Note_off_c, 1, 68, 0
1, 35880, Note_on_c, 1, 69, 127
1, 35880, Note_on_c, 1, 47, 127
1, 35976, Note_off_c, 1, 69, 0
1, 36000, Note_on_c, 1, 71, 127
1, 36072, Note_off_c, 1, 47, 0
1, 36096, Note_off_c, 1, 71, 0
1, 36120, Note_on_c, 1, 68, 127
1, 36120, Note_on_c, 1, 52, 127
1, 36144, Note_off_c, 1, 68, 0
1, 36150, Note_on_c, 1, 69, 127
1, 36174, Note_off_c, 1, 69, 0
1, 36216, Note_off_c, 1, 52, 0
1, 36240, Note_on_c, 1, 50, 127
1, 36336, Note_off_c, 1, 50, 0
1, 36360, Note_on_c, 1, 53, 127
1, 36456, Note_off_c, 1, 53, 0
1, 36480, Note_on_c, 1, 69, 127
1, 36480, Note_on_c, 1, 52, 127
1, 36576, Note_off_c, 1, 69, 0
1, 36576, Note_off_c, 1, 52, 0
1, 36600, Note_on_c, 1, 71, 127
1, 36600, Note_on_c, 1, 50, 127
1, 36696, Note_off_c, 1, 50, 0
1, 36720, Note_on_c, 1, 48, 127
1, 36792, Note_off_c, 1, 71, 0
1, 36816, Note_off_c, 1, 48, 0
1, 36840, Note_on_c, 1, 64, 127
1, 36840, Note_on_c, 1, 47, 127
1, 36936, Note_off_c, 1, 47, 0
1, 36960, Note_on_c, 1, 45, 127
1, 37032, Note_off_c, 1, 64, 0
1, 37056, Note_off_c, 1, 45, 0
1, 37080, Note_on_c, 1, 74, 127
1, 37080, Note_on_c, 1, 44, 127
1, 37176, Note_off_c, 1, 44, 0
1, 37200, Note_on_c, 1, 42, 127
1, 37272, Note_off_c, 1, 74, 0
1, 37296, Note_off_c, 1, 42, 0
1, 37320, Note_on_c, 1, 72, 127
1, 37320, Note_on_c, 1, 44, 127
1, 37416, Note_off_c, 1, 72, 0
1, 37416, Note_off_c, 1, 44, 0
1, 37440, Note_on_c, 1, 71, 127
1, 37440, Note_on_c, 1, 40, 127
1, 37536, Note_off_c, 1, 71, 0
1, 37536, Note_off_c, 1, 40, 0
1, 37560, Note_on_c, 1, 72, 127
1, 37560, Note_on_c, 1, 45, 127
1, 37656, Note_off_c, 1, 45, 0
1, 37680, Note_on_c, 1, 44, 127
1, 37776, Note_off_c, 1, 44, 0
1, 37848, Note_off_c, 1, 72, 0
1, 37920, Note_on_c, 1, 71, 127
1, 37920, Note_on_c, 1, 47, 127
1, 38016, Note_off_c, 1, 71, 0
1, 38016, Note_off_c, 1, 47, 0
1, 38040, Note_on_c, 1, 69, 127
1, 38040, Note_on_c, 1, 48, 127
1, 38136, Note_off_c, 1, 69, 0
1, 38136, Note_off_c, 1, 48, 0
1, 38160, Note_on_c, 1, 71, 127
1, 38160, Note_on_c, 1, 50, 127
1, 38256, Note_off_c, 1, 71, 0
1, 38256, Note_off_c, 1, 50, 0
1, 38280, Note_on_c, 1, 72, 127
1, 38280, Note_on_c, 1, 52, 127
1, 38376, Note_off_c, 1, 72, 0
1, 38376, Note_off_c, 1, 52, 0
1, 38400, Note_on_c, 1, 74, 127
1, 38400, Note_on_c, 1, 53, 127
1, 38496, Note_off_c, 1, 74, 0
1, 38496, Note_off_c, 1, 53, 0
1, 38520, Note_on_c, 1, 76, 127
1, 38520, Note_on_c, 1, 55, 127
1, 38616, Note_off_c, 1, 76, 0
1, 38616, Note_off_c, 1, 55, 0
1, 38640, Note_on_c, 1, 77, 127
1, 38640, Note_on_c, 1, 57, 127
1, 38736, Note_off_c, 1, 77, 0
1, 38736, Note_off_c, 1, 57, 0
1, 38760, Note_on_c, 1, 79, 127
1, 38760, Note_on_c, 1, 58, 127
1, 38856, Note_off_c, 1, 79, 0
1, 38856, Note_off_c, 1, 58, 0
1, 38880, Note_on_c, 1, 76, 127
1, 38880, Note_on_c, 1, 55, 127
1, 38976, Note_off_c, 1, 76, 0
1, 38976, Note_off_c, 1, 55, 0
1, 39000, Note_on_c, 1, 73, 127
1, 39000, Note_on_c, 1, 57, 127
1, 39024, Note_off_c, 1, 73, 0
1, 39030, Note_on_c, 1, 74, 127
1, 39054, Note_off_c, 1, 74, 0
1, 39096, Note_off_c, 1, 57, 0
1, 39120, Note_on_c, 1, 55, 127
1, 39216, Note_off_c, 1, 55, 0
1, 39240, Note_on_c, 1, 58, 127
1, 39336, Note_off_c, 1, 58, 0
1, 39360, Note_on_c, 1, 74, 127
1, 39360, Note_on_c, 1, 57, 127
1, 39456, Note_off_c, 1, 74, 0
1, 39456, Note_off_c, 1, 57, 0
1, 39480, Note_on_c, 1, 76, 127
1, 39480, Note_on_c, 1, 55, 127
1, 39576, Note_off_c, 1, 55, 0
1, 39600, Note_on_c, 1, 53, 127
1, 39672, Note_off_c, 1, 76, 0
1, 39696, Note_off_c, 1, 53, 0
1, 39720, Note_on_c, 1, 81, 127
1, 39720, Note_on_c, 1, 52, 127
1, 39816, Note_off_c, 1, 52, 0
1, 39840, Note_on_c, 1, 50, 127
1, 39912, Note_off_c, 1, 81, 0
1, 39936, Note_off_c, 1, 50, 0
1, 39960, Note_on_c, 1, 81, 127
1, 39960, Note_on_c, 1, 49, 127
1, 40056, Note_off_c, 1, 81, 0
1, 40056, Note_off_c, 1, 49, 0
1, 40080, Note_on_c, 1, 79, 127
1, 40080, Note_on_c, 1, 47, 127
1, 40176, Note_off_c, 1, 79, 0
1, 40176, Note_off_c, 1, 47, 0
1, 40200, Note_on_c, 1, 77, 127
1, 40200, Note_on_c, 1, 49, 127
1, 40296, Note_off_c, 1, 77, 0
1, 40296, Note_off_c, 1, 49, 0
1, 40320, Note_on_c, 1, 76, 127
1, 40320, Note_on_c, 1, 45, 127
1, 40416, Note_off_c, 1, 76, 0
1, 40416, Note_off_c, 1, 45, 0
1, 40440, Note_on_c, 1, 77, 127
1, 40440, Note_on_c, 1, 50, 127
1, 40464, Note_off_c, 1, 77, 0
1, 40470, Note_on_c, 1, 76, 127
1, 40494, Note_off_c, 1, 76, 0
1, 40500, Note_on_c, 1, 74, 127
1, 40524, Note_off_c, 1, 74, 0
1, 40632, Note_off_c, 1, 50, 0
1, 40680, Note_on_c, 1, 58, 127
1, 40800, Note_on_c, 1, 79, 127
1, 40872, Note_off_c, 1, 58, 0
1, 40896, Note_off_c, 1, 79, 0
1, 40920, Note_on_c, 1, 81, 127
1, 40920, Note_on_c, 1, 53, 127
1, 41112, Note_off_c, 1, 81, 0
1, 41112, Note_off_c, 1, 53, 0
1, 41160, Note_on_c, 1, 74, 127
1, 41160, Note_on_c, 1, 55, 127
1, 41256, Note_off_c, 1, 74, 0
1, 41280, Note_on_c, 1, 76, 127
1, 41352, Note_off_c, 1, 55, 0
1, 41376, Note_off_c, 1, 76, 0
1, 41400, Note_on_c, 1, 79, 127
1, 41400, Note_on_c, 1, 57, 127
1, 41496, Note_off_c, 1, 79, 0
1, 41520, Note_on_c, 1, 77, 127
1, 41592, Note_off_c, 1, 57, 0
1, 41616, Note_off_c, 1, 77, 0
1, 41640, Note_on_c, 1, 76, 127
1, 41640, Note_on_c, 1, 45, 127
1, 41736, Note_off_c, 1, 76, 0
1, 41760, Note_on_c, 1, 74, 127
1, 41832, Note_off_c, 1, 45, 0
1, 41856, Note_off_c, 1, 74, 0
1, 41880, Note_on_c, 1, 74, 127
1, 41880, Note_on_c, 1, 38, 127
1, 41904, Note_off_c, 1, 74, 0
1, 41910, Note_on_c, 1, 73, 127
1, 41934, Note_off_c, 1, 73, 0
1, 42072, Note_off_c, 1, 38, 0
1, 42120, Note_on_c, 1, 57, 127
1, 42216, Note_off_c, 1, 57, 0
1, 42240, Note_on_c, 1, 55, 127
1, 42336, Note_off_c, 1, 55, 0
1, 42360, Note_on_c, 1, 53, 127
1, 42456, Note_off_c, 1, 53, 0
1, 42480, Note_on_c, 1, 52, 127
1, 42576, Note_off_c, 1, 52, 0
1, 42600, Note_on_c, 1, 77, 127
1, 42600, Note_on_c, 1, 50, 127
1, 42696, Note_off_c, 1, 77, 0
1, 42696, Note_off_c, 1, 50, 0
1, 42720, Note_on_c, 1, 76, 127
1, 42720, Note_on_c, 1, 48, 127
1, 42816, Note_off_c, 1, 76, 0
1, 42816, Note_off_c, 1, 48, 0
1, 42840, Note_on_c, 1, 74, 127
1, 42840, Note_on_c, 1, 47, 127
1, 42936, Note_off_c, 1, 74, 0
1, 42936, Note_off_c, 1, 47, 0
1, 42960, Note_on_c, 1, 72, 127
1, 42960, Note_on_c, 1, 45, 127
1, 43056, Note_off_c, 1, 72, 0
1, 43056, Note_off_c, 1, 45, 0
1, 43080, Note_on_c, 1, 74, 127
1, 43080, Note_on_c, 1, 43, 127
1, 43176, Note_off_c, 1, 74, 0
1, 43176, Note_off_c, 1, 43, 0
1, 43200, Note_on_c, 1, 71, 127
1, 43200, Note_on_c, 1, 41, 127
1, 43296, Note_off_c, 1, 71, 0
1, 43296, Note_off_c, 1, 41, 0
1, 43320, Note_on_c, 1, 79, 127
1, 43320, Note_on_c, 1, 40, 127
1, 43416, Note_off_c, 1, 40, 0
1, 43440, Note_on_c, 1, 43, 127
1, 43536, Note_off_c, 1, 43, 0
1, 43560, Note_on_c, 1, 45, 127
1, 43608, Note_off_c, 1, 79, 0
1, 43656, Note_off_c, 1, 45, 0
1, 43680, Note_on_c, 1, 77, 127
1, 43680, Note_on_c, 1, 47, 127
1, 43776, Note_off_c, 1, 77, 0
1, 43776, Note_off_c, 1, 47, 0
1, 43800, Note_on_c, 1, 76, 127
1, 43800, Note_on_c, 1, 48, 127
1, 43896, Note_off_c, 1, 76, 0
1, 43896, Note_off_c, 1, 48, 0
1, 43920, Note_on_c, 1, 74, 127
1, 43920, Note_on_c, 1, 50, 127
1, 44016, Note_off_c, 1, 74, 0
1, 44016, Note_off_c, 1, 50, 0
1, 44040, Note_on_c, 1, 72, 127
1, 44040, Note_on_c, 1, 52, 127
1, 44136, Note_off_c, 1, 72, 0
1, 44136, Note_off_c, 1, 52, 0
1, 44160, Note_on_c, 1, 71, 127
1, 44160, Note_on_c, 1, 54, 127
1, 44256, Note_off_c, 1, 71, 0
1, 44256, Note_off_c, 1, 54, 0
1, 44280, Note_on_c, 1, 72, 127
1, 44280, Note_on_c, 1, 55, 127
1, 44376, Note_off_c, 1, 72, 0
1, 44376, Note_off_c, 1, 55, 0
1, 44400, Note_on_c, 1, 69, 127
1, 44400, Note_on_c, 1, 54, 127
1, 44496, Note_off_c, 1, 69, 0
1, 44496, Note_off_c, 1, 54, 0
1, 44520, Note_on_c, 1, 74, 127
1, 44520, Note_on_c, 1, 52, 127
1, 44616, Note_off_c, 1, 52, 0
1, 44640, Note_on_c, 1, 50, 127
1, 44712, Note_off_c, 1, 74, 0
1, 44736, Note_off_c, 1, 50, 0
1, 44760, Note_on_c, 1, 72, 127
1, 44760, Note_on_c, 1, 55, 127
1, 44784, Note_off_c, 1, 72, 0
1, 44790, Note_on_c, 1, 74, 127
1, 44814, Note_off_c, 1, 74, 0
1, 44880, Note_on_c, 1, 71, 127
1, 44952, Note_off_c, 1, 55, 0
1, 44976, Note_off_c, 1, 71, 0
1, 45000, Note_on_c, 1, 69, 127
1, 45000, Note_on_c, 1, 53, 127
1, 45096, Note_off_c, 1, 69, 0
1, 45120, Note_on_c, 1, 67, 127
1, 45192, Note_off_c, 1, 53, 0
1, 45216, Note_off_c, 1, 67, 0
1, 45240, Note_on_c, 1, 69, 127
1, 45240, Note_on_c, 1, 52, 127
1, 45336, Note_off_c, 1, 69, 0
1, 45360, Note_on_c, 1, 71, 127
1, 45432, Note_off_c, 1, 52, 0
1, 45456, Note_off_c, 1, 71, 0
1, 45480, Note_on_c, 1, 72, 127
1, 45480, Note_on_c, 1, 50, 127
1, 45576, Note_off_c, 1, 72, 0
1, 45600, Note_on_c, 1, 74, 127
1, 45672, Note_off_c, 1, 50, 0
1, 45696, Note_off_c, 1, 74, 0
1, 45720, Note_on_c, 1, 76, 127
1, 45720, Note_on_c, 1, 48, 127
1, 45816, Note_off_c, 1, 76, 0
1, 45840, Note_on_c, 1, 71, 127
1, 45912, Note_off_c, 1, 48, 0
1, 45936, Note_off_c, 1, 71, 0
1, 45960, Note_on_c, 1, 72, 127
1, 45960, Note_on_c, 1, 45, 127
1, 46056, Note_off_c, 1, 72, 0
1, 46080, Note_on_c, 1, 69, 127
1, 46152, Note_off_c, 1, 45, 0
1, 46176, Note_off_c, 1, 69, 0
1, 46200, Note_on_c, 1, 66, 127
1, 46200, Note_on_c, 1, 50, 127
1, 46224, Note_off_c, 1, 66, 0
1, 46230, Note_on_c, 1, 67, 127
1, 46254, Note_off_c, 1, 67, 0
1, 46320, Note_on_c, 1, 64, 127
1, 46392, Note_off_c, 1, 50, 0
1, 46416, Note_off_c, 1, 64, 0
1, 46440, Note_on_c, 1, 66, 127
1, 46440, Note_on_c, 1, 52, 127
1, 46536, Note_off_c, 1, 66, 0
1, 46560, Note_on_c, 1, 69, 127
1, 46632, Note_off_c, 1, 52, 0
1, 46656, Note_off_c, 1, 69, 0
1, 46680, Note_on_c, 1, 71, 127
1, 46680, Note_on_c, 1, 50, 127
1, 46776, Note_off_c, 1, 71, 0
1, 46800, Note_on_c, 1, 72, 127
1, 46872, Note_off_c, 1, 50, 0
1, 46896, Note_off_c, 1, 72, 0
1, 46920, Note_on_c, 1, 74, 127
1, 46920, Note_on_c, 1, 48, 127
1, 47016, Note_off_c, 1, 74, 0
1, 47040, Note_on_c, 1, 76, 127
1, 47112, Note_off_c, 1, 48, 0
1, 47136, Note_off_c, 1, 76, 0
1, 47160, Note_on_c, 1, 77, 127
1, 47160, Note_on_c, 1, 47, 127
1, 47256, Note_off_c, 1, 77, 0
1, 47280, Note_on_c, 1, 76, 127
1, 47352, Note_off_c, 1, 47, 0
1, 47376, Note_off_c, 1, 76, 0
1, 47400, Note_on_c, 1, 81, 127
1, 47400, Note_on_c, 1, 48, 127
1, 47496, Note_off_c, 1, 48, 0
1, 47520, Note_on_c, 1, 50, 127
1, 47592, Note_off_c, 1, 81, 0
1, 47616, Note_off_c, 1, 50, 0
1, 47640, Note_on_c, 1, 80, 127
1, 47640, Note_on_c, 1, 52, 127
1, 47664, Note_off_c, 1, 80, 0
1, 47670, Note_on_c, 1, 78, 127
1, 47694, Note_off_c, 1, 78, 0
1, 47736, Note_off_c, 1, 52, 0
1, 47760, Note_on_c, 1, 50, 127
1, 47856, Note_off_c, 1, 50, 0
1, 47880, Note_on_c, 1, 53, 127
1, 47976, Note_off_c, 1, 53, 0
1, 48000, Note_on_c, 1, 81, 127
1, 48000, Note_on_c, 1, 52, 127
1, 48096, Note_off_c, 1, 81, 0
1, 48096, Note_off_c, 1, 52, 0
1, 48120, Note_on_c, 1, 83, 127
1, 48120, Note_on_c, 1, 50, 127
1, 48216, Note_off_c, 1, 83, 0
1, 48216, Note_off_c, 1, 50, 0
1, 48240, Note_on_c, 1, 76, 127
1, 48240, Note_on_c, 1, 48, 127
1, 48336, Note_off_c, 1, 76, 0
1, 48336, Note_off_c, 1, 48, 0
1, 48360, Note_on_c, 1, 84, 127
1, 48360, Note_on_c, 1, 47, 127
1, 48456, Note_off_c, 1, 47, 0
1, 48480, Note_on_c, 1, 45, 127
1, 48552, Note_off_c, 1, 84, 0
1, 48576, Note_off_c, 1, 45, 0
1, 48600, Note_on_c, 1, 84, 127
1, 48600, Note_on_c, 1, 50, 127
1, 48696, Note_off_c, 1, 84, 0
1, 48720, Note_on_c, 1, 83, 127
1, 48792, Note_off_c, 1, 50, 0
1, 48816, Note_off_c, 1, 83, 0
1, 48840, Note_on_c, 1, 81, 127
1, 48840, Note_on_c, 1, 52, 127
1, 48936, Note_off_c, 1, 81, 0
1, 48960, Note_on_c, 1, 80, 127
1, 49032, Note_off_c, 1, 52, 0
1, 49056, Note_off_c, 1, 80, 0
1, 49080, Note_on_c, 1, 81, 127
1, 49080, Note_on_c, 1, 53, 127
1, 49176, Note_off_c, 1, 81, 0
1, 49176, Note_off_c, 1, 53, 0
1, 49200, Note_on_c, 1, 76, 127
1, 49200, Note_on_c, 1, 49, 127
1, 49296, Note_off_c, 1, 76, 0
1, 49296, Note_off_c, 1, 49, 0
1, 49320, Note_on_c, 1, 77, 127
1, 49320, Note_on_c, 1, 50, 127
1, 49416, Note_off_c, 1, 77, 0
1, 49416, Note_off_c, 1, 50, 0
1, 49440, Note_on_c, 1, 74, 127
1, 49440, Note_on_c, 1, 57, 127
1, 49536, Note_off_c, 1, 74, 0
1, 49536, Note_off_c, 1, 57, 0
1, 49560, Note_on_c, 1, 76, 127
1, 49560, Note_on_c, 1, 56, 127
1, 49584, Note_off_c, 1, 76, 0
1, 49590, Note_on_c, 1, 74, 127
1, 49614, Note_off_c, 1, 74, 0
1, 49656, Note_off_c, 1, 56, 0
1, 49680, Note_on_c, 1, 52, 127
1, 49776, Note_off_c, 1, 52, 0
1, 49800, Note_on_c, 1, 57, 127
1, 49896, Note_off_c, 1, 57, 0
1, 49920, Note_on_c, 1, 77, 127
1, 49920, Note_on_c, 1, 50, 127
1, 50016, Note_off_c, 1, 77, 0
1, 50016, Note_off_c, 1, 50, 0
1, 50040, Note_on_c, 1, 71, 127
1, 50040, Note_on_c, 1, 68, 127
1, 50040, Note_on_c, 1, 52, 127
1, 50064, Note_off_c, 1, 71, 0
1, 50070, Note_on_c, 1, 72, 127
1, 50094, Note_off_c, 1, 72, 0
1, 50232, Note_off_c, 1, 52, 0
1, 50280, Note_on_c, 1, 40, 127
1, 50400, Note_on_c, 1, 69, 127
1, 50424, Note_off_c, 1, 68, 0
1, 50472, Note_off_c, 1, 40, 0
1, 50496, Note_off_c, 1, 69, 0
1, 50520, Note_on_c, 1, 69, 127
1, 50520, Note_on_c, 1, 45, 127
1, 50760, Note_on_c, 1, 48, 127
1, 50952, Note_off_c, 1, 48, 0
1, 51000, Note_on_c, 1, 64, 127
1, 51000, Note_on_c, 1, 60, 127
1, 51000, Note_on_c, 1, 52, 127
1, 51192, Note_off_c, 1, 52, 0
1, 51240, Note_on_c, 1, 57, 127
1, 51384, Note_off_c, 1, 64, 0
1, 51384, Note_off_c, 1, 60, 0
1, 51624, Note_off_c, 1, 69, 0
1, 51624, Note_off_c, 1, 45, 0
1, 51624, Note_off_c, 1, 57, 0
1, 51840, Note_on_c, 1, 76, 127
1, 51936, Note_off_c, 1, 76, 0
1, 51960, Note_on_c, 1, 67, 127
1, 51960, Note_on_c, 1, 76, 127
1, 51960, Note_on_c, 1, 72, 127
1, 51960, Note_on_c, 1, 48, 127
1, 52152, Note_off_c, 1, 48, 0
1, 52200, Note_on_c, 1, 50, 127
1, 52248, Note_off_c, 1, 67, 0
1, 52248, Note_off_c, 1, 76, 0
1, 52248, Note_off_c, 1, 72, 0
1, 52320, Note_on_c, 1, 74, 127
1, 52392, Note_off_c, 1, 50, 0
1, 52416, Note_off_c, 1, 74, 0
1, 52440, Note_on_c, 1, 72, 127
1, 52440, Note_on_c, 1, 52, 127
1, 52536, Note_off_c, 1, 72, 0
1, 52560, Note_on_c, 1, 71, 127
1, 52632, Note_off_c, 1, 52, 0
1, 52656, Note_off_c, 1, 71, 0
1, 52680, Note_on_c, 1, 69, 127
1, 52680, Note_on_c, 1, 48, 127
1, 52776, Note_off_c, 1, 69, 0
1, 52800, Note_on_c, 1, 67, 127
1, 52872, Note_off_c, 1, 48, 0
1, 52896, Note_off_c, 1, 67, 0
1, 52920, Note_on_c, 1, 66, 127
1, 52920, Note_on_c, 1, 50, 127
1, 53016, Note_off_c, 1, 66, 0
1, 53040, Note_on_c, 1, 68, 127
1, 53112, Note_off_c, 1, 50, 0
1, 53136, Note_off_c, 1, 68, 0
1, 53160, Note_on_c, 1, 69, 127
1, 53160, Note_on_c, 1, 47, 127
1, 53256, Note_off_c, 1, 69, 0
1, 53280, Note_on_c, 1, 71, 127
1, 53352, Note_off_c, 1, 47, 0
1, 53376, Note_off_c, 1, 71, 0
1, 53400, Note_on_c, 1, 68, 127
1, 53400, Note_on_c, 1, 52, 127
1, 53424, Note_off_c, 1, 68, 0
1, 53430, Note_on_c, 1, 69, 127
1, 53454, Note_off_c, 1, 69, 0
1, 53496, Note_off_c, 1, 52, 0
1, 53520, Note_on_c, 1, 50, 127
1, 53616, Note_off_c, 1, 50, 0
1, 53640, Note_on_c, 1, 53, 127
1, 53736, Note_off_c, 1, 53, 0
1, 53760, Note_on_c, 1, 69, 127
1, 53760, Note_on_c, 1, 52, 127
1, 53856, Note_off_c, 1, 69, 0
1, 53856, Note_off_c, 1, 52, 0
1, 53880, Note_on_c, 1, 71, 127
1, 53880, Note_on_c, 1, 50, 127
1, 53976, Note_off_c, 1, 50, 0
1, 54000, Note_on_c, 1, 48, 127
1, 54072, Note_off_c, 1, 71, 0
1, 54096, Note_off_c, 1, 48, 0
1, 54120, Note_on_c, 1, 64, 127
1, 54120, Note_on_c, 1, 47, 127
1, 54216, Note_off_c, 1, 47, 0
1, 54240, Note_on_c, 1, 45, 127
1, 54312, Note_off_c, 1, 64, 0
1, 54336, Note_off_c, 1, 45, 0
1, 54360, Note_on_c, 1, 74, 127
1, 54360, Note_on_c, 1, 44, 127
1, 54456, Note_off_c, 1, 44, 0
1, 54480, Note_on_c, 1, 42, 127
1, 54552, Note_off_c, 1, 74, 0
1, 54576, Note_off_c, 1, 42, 0
1, 54600, Note_on_c, 1, 72, 127
1, 54600, Note_on_c, 1, 44, 127
1, 54696, Note_off_c, 1, 72, 0
1, 54696, Note_off_c, 1, 44, 0
1, 54720, Note_on_c, 1, 71, 127
1, 54720, Note_on_c, 1, 40, 127
1, 54816, Note_off_c, 1, 71, 0
1, 54816, Note_off_c, 1, 40, 0
1, 54840, Note_on_c, 1, 72, 127
1, 54840, Note_on_c, 1, 45, 127
1, 54936, Note_off_c, 1, 45, 0
1, 54960, Note_on_c, 1, 44, 127
1, 55056, Note_off_c, 1, 44, 0
1, 55128, Note_off_c, 1, 72, 0
1, 55200, Note_on_c, 1, 71, 127
1, 55200, Note_on_c, 1, 47, 127
1, 55296, Note_off_c, 1, 71, 0
1, 55296, Note_off_c, 1, 47, 0
1, 55320, Note_on_c, 1, 69, 127
1, 55320, Note_on_c, 1, 48, 127
1, 55416, Note_off_c, 1, 69, 0
1, 55416, Note_off_c, 1, 48, 0
1, 55440, Note_on_c, 1, 71, 127
1, 55440, Note_on_c, 1, 50, 127
1, 55536, Note_off_c, 1, 71, 0
1, 55536, Note_off_c, 1, 50, 0
1, 55560, Note_on_c, 1, 72, 127
1, 55560, Note_on_c, 1, 52, 127
1, 55656, Note_off_c, 1, 72, 0
1, 55656, Note_off_c, 1, 52, 0
1, 55680, Note_on_c, 1, 74, 127
1, 55680, Note_on_c, 1, 53, 127
1, 55776, Note_off_c, 1, 74, 0
1, 55776, Note_off_c, 1, 53, 0
1, 55800, Note_on_c, 1, 76, 127
1, 55800, Note_on_c, 1, 55, 127
1, 55896, Note_off_c, 1, 76, 0
1, 55896, Note_off_c, 1, 55, 0
1, 55920, Note_on_c, 1, 77, 127
1, 55920, Note_on_c, 1, 57, 127
1, 56016, Note_off_c, 1, 77, 0
1, 56016, Note_off_c, 1, 57, 0
1, 56040, Note_on_c, 1, 79, 127
1, 56040, Note_on_c, 1, 58, 127
1, 56136, Note_off_c, 1, 79, 0
1, 56136, Note_off_c, 1, 58, 0
1, 56160, Note_on_c, 1, 76, 127
1, 56160, Note_on_c, 1, 55, 127
1, 56256, Note_off_c, 1, 76, 0
1, 56256, Note_off_c, 1, 55, 0
1, 56280, Note_on_c, 1, 73, 127
1, 56280, Note_on_c, 1, 57, 127
1, 56304, Note_off_c, 1, 73, 0
1, 56310, Note_on_c, 1, 74, 127
1, 56334, Note_off_c, 1, 74, 0
1, 56376, Note_off_c, 1, 57, 0
1, 56400, Note_on_c, 1, 55, 127
1, 56496, Note_off_c, 1, 55, 0
1, 56520, Note_on_c, 1, 58, 127
1, 56616, Note_off_c, 1, 58, 0
1, 56640, Note_on_c, 1, 74, 127
1, 56640, Note_on_c, 1, 57, 127
1, 56736, Note_off_c, 1, 74, 0
1, 56736, Note_off_c, 1, 57, 0
1, 56760, Note_on_c, 1, 76, 127
1, 56760, Note_on_c, 1, 55, 127
1, 56856, Note_off_c, 1, 55, 0
1, 56880, Note_on_c, 1, 53, 127
1, 56952, Note_off_c, 1, 76, 0
1, 56976, Note_off_c, 1, 53, 0
1, 57000, Note_on_c, 1, 81, 127
1, 57000, Note_on_c, 1, 52, 127
1, 57096, Note_off_c, 1, 52, 0
1, 57120, Note_on_c, 1, 50, 127
1, 57192, Note_off_c, 1, 81, 0
1, 57216, Note_off_c, 1, 50, 0
1, 57240, Note_on_c, 1, 81, 127
1, 57240, Note_on_c, 1, 49, 127
1, 57336, Note_off_c, 1, 81, 0
1, 57336, Note_off_c, 1, 49, 0
1, 57360, Note_on_c, 1, 79, 127
1, 57360, Note_on_c, 1, 47, 127
1, 57456, Note_off_c, 1, 79, 0
1, 57456, Note_off_c, 1, 47, 0
1, 57480, Note_on_c, 1, 77, 127
1, 57480, Note_on_c, 1, 49, 127
1, 57576, Note_off_c, 1, 77, 0
1, 57576, Note_off_c, 1, 49, 0
1, 57600, Note_on_c, 1, 76, 127
1, 57600, Note_on_c, 1, 45, 127
1, 57696, Note_off_c, 1, 76, 0
1, 57696, Note_off_c, 1, 45, 0
1, 57720, Note_on_c, 1, 77, 127
1, 57720, Note_on_c, 1, 50, 127
1, 57744, Note_off_c, 1, 77, 0
1, 57750, Note_on_c, 1, 76, 127
1, 57774, Note_off_c, 1, 76, 0
1, 57780, Note_on_c, 1, 74, 127
1, 57804, Note_off_c, 1, 74, 0
1, 57912, Note_off_c, 1, 50, 0
1, 57960, Note_on_c, 1, 58, 127
1, 58080, Note_on_c, 1, 79, 127
1, 58152, Note_off_c, 1, 58, 0
1, 58176, Note_off_c, 1, 79, 0
1, 58200, Note_on_c, 1, 81, 127
1, 58200, Note_on_c, 1, 53, 127
1, 58392, Note_off_c, 1, 81, 0
1, 58392, Note_off_c, 1, 53, 0
1, 58440, Note_on_c, 1, 74, 127
1, 58440, Note_on_c, 1, 55, 127
1, 58536, Note_off_c, 1, 74, 0
1, 58560, Note_on_c, 1, 76, 127
1, 58632, Note_off_c, 1, 55, 0
1, 58656, Note_off_c, 1, 76, 0
1, 58680, Note_on_c, 1, 79, 127
1, 58680, Note_on_c, 1, 57, 127
1, 58776, Note_off_c, 1, 79, 0
1, 58800, Note_on_c, 1, 77, 127
1, 58872, Note_off_c, 1, 57, 0
1, 58896, Note_off_c, 1, 77, 0
1, 58920, Note_on_c, 1, 76, 127
1, 58920, Note_on_c, 1, 45, 127
1, 59016, Note_off_c, 1, 76, 0
1, 59040, Note_on_c, 1, 74, 127
1, 59112, Note_off_c, 1, 45, 0
1, 59136, Note_off_c, 1, 74, 0
1, 59160, Note_on_c, 1, 74, 127
1, 59160, Note_on_c, 1, 38, 127
1, 59184, Note_off_c, 1, 74, 0
1, 59190, Note_on_c, 1, 73, 127
1, 59214, Note_off_c, 1, 73, 0
1, 59352, Note_off_c, 1, 38, 0
1, 59400, Note_on_c, 1, 57, 127
1, 59496, Note_off_c, 1, 57, 0
1, 59520, Note_on_c, 1, 55, 127
1, 59616, Note_off_c, 1, 55, 0
1, 59640, Note_on_c, 1, 53, 127
1, 59736, Note_off_c, 1, 53, 0
1, 59760, Note_on_c, 1, 52, 127
1, 59856, Note_off_c, 1, 52, 0
1, 59880, Note_on_c, 1, 77, 127
1, 59880, Note_on_c, 1, 50, 127
1, 59976, Note_off_c, 1, 77, 0
1, 59976, Note_off_c, 1, 50, 0
1, 60000, Note_on_c, 1, 76, 127
1, 60000, Note_on_c, 1, 48, 127
1, 60096, Note_off_c, 1, 76, 0
1, 60096, Note_off_c, 1, 48, 0
1, 60120, Note_on_c, 1, 74, 127
1, 60120, Note_on_c, 1, 47, 127
1, 60216, Note_off_c, 1, 74, 0
1, 60216, Note_off_c, 1, 47, 0
1, 60240, Note_on_c, 1, 72, 127
1, 60240, Note_on_c, 1, 45, 127
1, 60336, Note_off_c, 1, 72, 0
1, 60336, Note_off_c, 1, 45, 0
1, 60360, Note_on_c, 1, 74, 127
1, 60360, Note_on_c, 1, 43, 127
1, 60456, Note_off_c, 1, 74, 0
1, 60456, Note_off_c, 1, 43, 0
1, 60480, Note_on_c, 1, 71, 127
1, 60480, Note_on_c, 1, 41, 127
1, 60576, Note_off_c, 1, 71, 0
1, 60576, Note_off_c, 1, 41, 0
1, 60600, Note_on_c, 1, 79, 127
1, 60600, Note_on_c, 1, 40, 127
1, 60696, Note_off_c, 1, 40, 0
1, 60720, Note_on_c, 1, 43, 127
1, 60816, Note_off_c, 1, 43, 0
1, 60840, Note_on_c, 1, 45, 127
1, 60888, Note_off_c, 1, 79, 0
1, 60936, Note_off_c, 1, 45, 0
1, 60960, Note_on_c, 1, 77, 127
1, 60960, Note_on_c, 1, 47, 127
1, 61056, Note_off_c, 1, 77, 0
1, 61056, Note_off_c, 1, 47, 0
1, 61080, Note_on_c, 1, 76, 127
1, 61080, Note_on_c, 1, 48, 127
1, 61176, Note_off_c, 1, 76, 0
1, 61176, Note_off_c, 1, 48, 0
1, 61200, Note_on_c, 1, 74, 127
1, 61200, Note_on_c, 1, 50, 127
1, 61296, Note_off_c, 1, 74, 0
1, 61296, Note_off_c, 1, 50, 0
1, 61320, Note_on_c, 1, 72, 127
1, 61320, Note_on_c, 1, 52, 127
1, 61416, Note_off_c, 1, 72, 0
1, 61416, Note_off_c, 1, 52, 0
1, 61440, Note_on_c, 1, 71, 127
1, 61440, Note_on_c, 1, 54, 127
1, 61536, Note_off_c, 1, 71, 0
1, 61536, Note_off_c, 1, 54, 0
1, 61560, Note_on_c, 1, 72, 127
1, 61560, Note_on_c, 1, 55, 127
1, 61656, Note_off_c, 1, 72, 0
1, 61656, Note_off_c, 1, 55, 0
1, 61680, Note_on_c, 1, 69, 127
1, 61680, Note_on_c, 1, 54, 127
1, 61776, Note_off_c, 1, 69, 0
1, 61776, Note_off_c, 1, 54, 0
1, 61800, Note_on_c, 1, 74, 127
1, 61800, Note_on_c, 1, 52, 127
1, 61896, Note_off_c, 1, 52, 0
1, 61920, Note_on_c, 1, 50, 127
1, 61992, Note_off_c, 1, 74, 0
1, 62016, Note_off_c, 1, 50, 0
1, 62040, Note_on_c, 1, 72, 127
1, 62040, Note_on_c, 1, 55, 127
1, 62064, Note_off_c, 1, 72, 0
1, 62070, Note_on_c, 1, 74, 127
1, 62094, Note_off_c, 1, 74, 0
1, 62160, Note_on_c, 1, 71, 127
1, 62232, Note_off_c, 1, 55, 0
1, 62256, Note_off_c, 1, 71, 0
1, 62280, Note_on_c, 1, 69, 127
1, 62280, Note_on_c, 1, 53, 127
1, 62376, Note_off_c, 1, 69, 0
1, 62400, Note_on_c, 1, 67, 127
1, 62472, Note_off_c, 1, 53, 0
1, 62496, Note_off_c, 1, 67, 0
1, 62520, Note_on_c, 1, 69, 127
1, 62520, Note_on_c, 1, 52, 127
1, 62616, Note_off_c, 1, 69, 0
1, 62640, Note_on_c, 1, 71, 127
1, 62712, Note_off_c, 1, 52, 0
1, 62736, Note_off_c, 1, 71, 0
1, 62760, Note_on_c, 1, 72, 127
1, 62760, Note_on_c, 1, 50, 127
1, 62856, Note_off_c, 1, 72, 0
1, 62880, Note_on_c, 1, 74, 127
1, 62952, Note_off_c, 1, 50, 0
1, 62976, Note_off_c, 1, 74, 0
1, 63000, Note_on_c, 1, 76, 127
1, 63000, Note_on_c, 1, 48, 127
1, 63096, Note_off_c, 1, 76, 0
1, 63120, Note_on_c, 1, 71, 127
1, 63192, Note_off_c, 1, 48, 0
1, 63216, Note_off_c, 1, 71, 0
1, 63240, Note_on_c, 1, 72, 127
1, 63240, Note_on_c, 1, 45, 127
1, 63336, Note_off_c, 1, 72, 0
1, 63360, Note_on_c, 1, 69, 127
1, 63432, Note_off_c, 1, 45, 0
1, 63456, Note_off_c, 1, 69, 0
1, 63480, Note_on_c, 1, 66, 127
1, 63480, Note_on_c, 1, 50, 127
1, 63504, Note_off_c, 1, 66, 0
1, 63510, Note_on_c, 1, 67, 127
1, 63534, Note_off_c, 1, 67, 0
1, 63600, Note_on_c, 1, 64, 127
1, 63672, Note_off_c, 1, 50, 0
1, 63696, Note_off_c, 1, 64, 0
1, 63720, Note_on_c, 1, 66, 127
1, 63720, Note_on_c, 1, 52, 127
1, 63816, Note_off_c, 1, 66, 0
1, 63840, Note_on_c, 1, 69, 127
1, 63912, Note_off_c, 1, 52, 0
1, 63936, Note_off_c, 1, 69, 0
1, 63960, Note_on_c, 1, 71, 127
1, 63960, Note_on_c, 1, 50, 127
1, 64056, Note_off_c, 1, 71, 0
1, 64080, Note_on_c, 1, 72, 127
1, 64152, Note_off_c, 1, 50, 0
1, 64176, Note_off_c, 1, 72, 0
1, 64200, Note_on_c, 1, 74, 127
1, 64200, Note_on_c, 1, 48, 127
1, 64296, Note_off_c, 1, 74, 0
1, 64320, Note_on_c, 1, 76, 127
1, 64392, Note_off_c, 1, 48, 0
1, 64416, Note_off_c, 1, 76, 0
1, 64440, Note_on_c, 1, 77, 127
1, 64440, Note_on_c, 1, 47, 127
1, 64536, Note_off_c, 1, 77, 0
1, 64560, Note_on_c, 1, 76, 127
1, 64632, Note_off_c, 1, 47, 0
1, 64656, Note_off_c, 1, 76, 0
1, 64680, Note_on_c, 1, 81, 127
1, 64680, Note_on_c, 1, 48, 127
1, 64776, Note_off_c, 1, 48, 0
1, 64800, Note_on_c, 1, 50, 127
1, 64872, Note_off_c, 1, 81, 0
1, 64896, Note_off_c, 1, 50, 0
1, 64920, Note_on_c, 1, 80, 127
1, 64920, Note_on_c, 1, 52, 127
1, 64944, Note_off_c, 1, 80, 0
1, 64950, Note_on_c, 1, 78, 127
1, 64974, Note_off_c, 1, 78, 0
1, 65016, Note_off_c, 1, 52, 0
1, 65040, Note_on_c, 1, 50, 127
1, 65136, Note_off_c, 1, 50, 0
1, 65160, Note_on_c, 1, 53, 127
1, 65256, Note_off_c, 1, 53, 0
1, 65280, Note_on_c, 1, 81, 127
1, 65280, Note_on_c, 1, 52, 127
1, 65376, Note_off_c, 1, 81, 0
1, 65376, Note_off_c, 1, 52, 0
1, 65400, Note_on_c, 1, 83, 127
1, 65400, Note_on_c, 1, 50, 127
1, 65496, Note_off_c, 1, 83, 0
1, 65496, Note_off_c, 1, 50, 0
1, 65520, Note_on_c, 1, 76, 127
1, 65520, Note_on_c, 1, 48, 127
1, 65616, Note_off_c, 1, 76, 0
1, 65616, Note_off_c, 1, 48, 0
1, 65640, Note_on_c, 1, 84, 127
1, 65640, Note_on_c, 1, 47, 127
1, 65736, Note_off_c, 1, 47, 0
1, 65760, Note_on_c, 1, 45, 127
1, 65832, Note_off_c, 1, 84, 0
1, 65856, Note_off_c, 1, 45, 0
1, 65880, Note_on_c, 1, 84, 127
1, 65880, Note_on_c, 1, 50, 127
1, 65976, Note_off_c, 1, 84, 0
1, 66000, Note_on_c, 1, 83, 127
1, 66072, Note_off_c, 1, 50, 0
1, 66096, Note_off_c, 1, 83, 0
1, 66120, Note_on_c, 1, 81, 127
1, 66120, Note_on_c, 1, 52, 127
1, 66216, Note_off_c, 1, 81, 0
1, 66240, Note_on_c, 1, 80, 127
1, 66312, Note_off_c, 1, 52, 0
1, 66336, Note_off_c, 1, 80, 0
1, 66360, Note_on_c, 1, 81, 127
1, 66360, Note_on_c, 1, 53, 127
1, 66456, Note_off_c, 1, 81, 0
1, 66456, Note_off_c, 1, 53, 0
1, 66480, Note_on_c, 1, 76, 127
1, 66480, Note_on_c, 1, 49, 127
1, 66576, Note_off_c, 1, 76, 0
1, 66576, Note_off_c, 1, 49, 0
1, 66600, Note_on_c, 1, 77, 127
1, 66600, Note_on_c, 1, 50, 127
1, 66696, Note_off_c, 1, 77, 0
1, 66696, Note_off_c, 1, 50, 0
1, 66720, Note_on_c, 1, 74, 127
1, 66720, Note_on_c, 1, 57, 127
1, 66816, Note_off_c, 1, 74, 0
1, 66816, Note_off_c, 1, 57, 0
1, 66840, Note_on_c, 1, 76, 127
1, 66840, Note_on_c, 1, 56, 127
1, 66864, Note_off_c, 1, 76, 0
1, 66870, Note_on_c, 1, 74, 127
1, 66894, Note_off_c, 1, 74, 0
1, 66936, Note_off_c, 1, 56, 0
1, 66960, Note_on_c, 1, 52, 127
1, 67056, Note_off_c, 1, 52, 0
1, 67080, Note_on_c, 1, 57, 127
1, 67176, Note_off_c, 1, 57, 0
1, 67200, Note_on_c, 1, 77, 127
1, 67200, Note_on_c, 1, 50, 127
1, 67296, Note_off_c, 1, 77, 0
1, 67296, Note_off_c, 1, 50, 0
1, 67320, Note_on_c, 1, 71, 127
1, 67320, Note_on_c, 1, 68, 127
1, 67320, Note_on_c, 1, 52, 127
1, 67344, Note_off_c, 1, 71, 0
1, 67350, Note_on_c, 1, 72, 127
1, 67374, Note_off_c, 1, 72, 0
1, 67512, Note_off_c, 1, 52, 0
1, 67560, Note_on_c, 1, 40, 127
1, 67680, Note_on_c, 1, 69, 127
1, 67704, Note_off_c, 1, 68, 0
1, 67752, Note_off_c, 1, 40, 0
1, 67776, Note_off_c, 1, 69, 0
1, 67800, Note_on_c, 1, 69, 127
1, 67800, Note_on_c, 1, 45, 127
1, 68040, Note_on_c, 1, 48, 127
1, 68232, Note_off_c, 1, 48, 0
1, 68280, Note_on_c, 1, 64, 127
1, 68280, Note_on_c, 1, 60, 127
1, 68280, Note_on_c, 1, 52, 127
1, 68472, Note_off_c, 1, 52, 0
1, 68520, Note_on_c, 1, 57, 127
1, 68664, Note_off_c, 1, 64, 0
1, 68664, Note_off_c, 1, 60, 0
1, 68904, Note_off_c, 1, 69, 0
1, 68904, Note_off_c, 1, 45, 0
1, 68904, Note_off_c, 1, 57, 0
1, 68904, End_track
0, 0, End_of_file