0, 0, Header, 1, 1, 480
1, 0, Start_track
1, 0, Title_t, "Test"
1, 0, Tempo, 500000
1, 0, Instrument_name_t, "Church Organ"
1, 0, Note_on_c, 1, 56, 127
1, 0, Note_on_c, 1, 49, 127
1, 191, Note_on_c, 1, 65, 127
1, 380, Note_off_c, 1, 56, 0
1, 380, Note_off_c, 1, 65, 0
1, 382, Note_on_c, 1, 68, 127
1, 571, Note_off_c, 1, 68, 0
1, 573, Note_on_c, 1, 73, 127
1, 764, Note_off_c, 1, 49, 0
1, 764, Note_on_c, 1, 61, 127
1, 955, Note_on_c, 1, 66, 127
1, 1144, Note_off_c, 1, 61, 0
1, 1144, Note_off_c, 1, 66, 0
1, 1508, Note_off_c, 1, 73, 0
1, 1528, Note_on_c, 1, 59, 127
1, 1908, Note_off_c, 1, 59, 0
1, 3056, Note_on_c, 1, 58, 127
1, 3436, Note_off_c, 1, 58, 0
1, 3438, Note_on_c, 1, 70, 127
1, 3627, Note_off_c, 1, 70, 0
1, 3820, Note_on_c, 1, 54, 127
1, 4200, Note_off_c, 1, 54, 0
1, 4584, Note_on_c, 1, 60, 127
1, 4964, Note_off_c, 1, 60, 0
1, 5158, Note_on_c, 1, 75, 127
1, 6093, Note_off_c, 1, 75, 0
1, 8405, Note_on_c, 1, 53, 127
1, 8785, Note_off_c, 1, 53, 0
1, 9360, Note_on_c, 1, 63, 127
1, 9549, Note_off_c, 1, 63, 0
1, 9552, Note_on_c, 1, 67, 127
1, 9741, Note_off_c, 1, 67, 0
1, 10698, Note_on_c, 1, 48, 127
1, 11271, Note_on_c, 1, 72, 127
1, 11462, Note_off_c, 1, 48, 0
1, 11462, Note_on_c, 1, 51, 127
1, 11842, Note_off_c, 1, 51, 0
1, 12206, Note_off_c, 1, 72, 0
1, 12226, Note_on_c, 1, 46, 127
1, 12990, Note_off_c, 1, 46, 0
1, 13754, Note_on_c, 1, 55, 127
1, 14134, Note_off_c, 1, 55, 0
1, 15283, Note_on_c, 1, 44, 127
1, 16047, Note_off_c, 1, 44, 0
1, 18912, Note_on_c, 1, 74, 127
1, 19486, Note_on_c, 1, 50, 127
1, 19847, Note_off_c, 1, 74, 0
1, 19866, Note_off_c, 1, 50, 0
1, 19868, Note_on_c, 1, 42, 127
1, 20632, Note_off_c, 1, 42, 0
1, 21396, Note_on_c, 1, 41, 127
1, 21778, Note_on_c, 1, 69, 127
1, 21967, Note_off_c, 1, 69, 0
1, 22160, Note_off_c, 1, 41, 0
1, 26554, Note_on_c, 1, 77, 127
1, 27489, Note_off_c, 1, 77, 0
1, 35724, Note_on_c, 1, 71, 127
1, 36659, Note_off_c, 1, 71, 0
1, 42601, Note_on_c, 1, 62, 127
1, 42794, Note_off_c, 1, 62, 0
1, 55019, Note_on_c, 1, 39, 127
1, 55783, Note_off_c, 1, 39, 0
1, 58076, Note_on_c, 1, 37, 127
1, 58840, Note_off_c, 1, 37, 0
1, 62661, Note_on_c, 1, 47, 127
1, 63425, Note_off_c, 1, 47, 0
1, 64189, Note_on_c, 1, 52, 127
1, 64953, Note_off_c, 1, 52, 0
1, 68774, Note_on_c, 1, 59, 127
1, 68774, Note_on_c, 1, 51, 127
1, 68965, Note_on_c, 1, 62, 127
1, 69154, Note_off_c, 1, 59, 0
1, 69154, Note_off_c, 1, 62, 0
1, 69156, Note_on_c, 1, 65, 127
1, 69345, Note_off_c, 1, 65, 0
1, 69347, Note_on_c, 1, 68, 127
1, 69538, Note_off_c, 1, 51, 0
1, 69729, Note_on_c, 1, 63, 127
1, 69918, Note_off_c, 1, 63, 0
1, 70282, Note_off_c, 1, 68, 0
1, 70302, Note_on_c, 1, 58, 127
1, 70493, Note_on_c, 1, 61, 127
1, 70682, Note_off_c, 1, 58, 0
1, 70682, Note_off_c, 1, 61, 0
1, 70684, Note_on_c, 1, 64, 127
1, 70873, Note_off_c, 1, 64, 0
1, 72404, Note_on_c, 1, 67, 127
1, 73339, Note_off_c, 1, 67, 0
1, 73359, Note_on_c, 1, 60, 127
1, 73359, Note_on_c, 1, 56, 127
1, 73359, Note_on_c, 1, 44, 127
1, 73715, Note_off_c, 1, 60, 0
1, 73768, Note_off_c, 1, 56, 0
1, 73768, Note_off_c, 1, 44, 0
1, 73912, Note_on_c, 1, 61, 127
1, 74089, Note_off_c, 1, 61, 0
1, 74091, Note_on_c, 1, 63, 127
1, 74268, Note_off_c, 1, 63, 0
1, 74270, Note_on_c, 1, 65, 127
1, 74447, Note_off_c, 1, 65, 0
1, 74449, Note_on_c, 1, 65, 127
1, 74805, Note_off_c, 1, 65, 0
1, 74808, Note_on_c, 1, 58, 127
1, 74808, Note_on_c, 1, 66, 127
1, 74985, Note_off_c, 1, 58, 0
1, 74987, Note_on_c, 1, 56, 127
1, 75164, Note_off_c, 1, 56, 0
1, 75345, Note_on_c, 1, 60, 127
1, 75522, Note_off_c, 1, 60, 0
1, 75880, Note_off_c, 1, 66, 0
1, 75882, Note_on_c, 1, 65, 127
1, 75882, Note_on_c, 1, 61, 127
1, 76238, Note_off_c, 1, 65, 0
1, 76240, Note_on_c, 1, 70, 127
1, 76596, Note_off_c, 1, 70, 0
1, 76599, Note_on_c, 1, 63, 127
1, 76954, Note_off_c, 1, 61, 0
1, 76955, Note_off_c, 1, 63, 0
1, 76957, Note_on_c, 1, 68, 127
1, 76957, Note_on_c, 1, 60, 127
1, 77046, Note_on_c, 1, 66, 127
1, 77060, Note_off_c, 1, 68, 0
1, 77149, Note_off_c, 1, 66, 0
1, 77313, Note_off_c, 1, 60, 0
1, 77315, Note_on_c, 1, 65, 127
1, 77671, Note_off_c, 1, 65, 0
1, 77673, Note_on_c, 1, 58, 127
1, 78029, Note_off_c, 1, 58, 0
1, 78031, Note_on_c, 1, 63, 127
1, 78208, Note_off_c, 1, 63, 0
1, 78211, Note_on_c, 1, 61, 127
1, 78211, Note_on_c, 1, 65, 127
1, 78388, Note_off_c, 1, 61, 0
1, 78388, Note_off_c, 1, 65, 0
1, 78390, Note_on_c, 1, 66, 127
1, 78390, Note_on_c, 1, 63, 127
1, 78567, Note_off_c, 1, 66, 0
1, 78569, Note_on_c, 1, 68, 127
1, 78746, Note_off_c, 1, 68, 0
1, 79104, Note_off_c, 1, 63, 0
1, 79106, Note_on_c, 1, 53, 127
1, 79106, Note_on_c, 1, 65, 127
1, 79106, Note_on_c, 1, 61, 127
1, 79283, Note_off_c, 1, 53, 0
1, 79285, Note_on_c, 1, 51, 127
1, 79462, Note_off_c, 1, 51, 0
1, 79643, Note_on_c, 1, 54, 127
1, 79820, Note_off_c, 1, 65, 0
1, 79820, Note_off_c, 1, 54, 0
1, 79822, Note_on_c, 1, 63, 127
1, 79822, Note_on_c, 1, 56, 127
1, 80178, Note_off_c, 1, 61, 0
1, 80178, Note_off_c, 1, 63, 0
1, 80181, Note_on_c, 1, 60, 127
1, 80181, Note_on_c, 1, 68, 127
1, 80358, Note_off_c, 1, 60, 0
1, 80358, Note_off_c, 1, 68, 0
1, 80360, Note_on_c, 1, 58, 127
1, 80360, Note_on_c, 1, 67, 127
1, 80537, Note_off_c, 1, 58, 0
1, 80537, Note_off_c, 1, 67, 0
1, 80718, Note_on_c, 1, 70, 127
1, 80895, Note_off_c, 1, 70, 0
1, 80897, Note_on_c, 1, 72, 127
1, 81074, Note_off_c, 1, 72, 0
1, 81252, Note_off_c, 1, 56, 0
1, 81255, Note_on_c, 1, 73, 127
1, 81255, Note_on_c, 1, 56, 127
1, 81255, Note_on_c, 1, 53, 127
1, 81432, Note_off_c, 1, 73, 0
1, 81434, Note_on_c, 1, 75, 127
1, 81611, Note_off_c, 1, 56, 0
1, 81611, Note_off_c, 1, 53, 0
1, 81611, Note_off_c, 1, 75, 0
1, 81613, Note_on_c, 1, 73, 127
1, 81613, Note_on_c, 1, 58, 127
1, 81613, Note_on_c, 1, 61, 127
1, 81790, Note_off_c, 1, 73, 0
1, 81793, Note_on_c, 1, 72, 127
1, 81969, Note_off_c, 1, 58, 0
1, 81969, Note_off_c, 1, 61, 0
1, 81970, Note_off_c, 1, 72, 0
1, 81972, Note_on_c, 1, 70, 127
1, 81972, Note_on_c, 1, 51, 127
1, 81972, Note_on_c, 1, 66, 127
1, 82149, Note_off_c, 1, 70, 0
1, 82151, Note_on_c, 1, 72, 127
1, 82328, Note_off_c, 1, 51, 0
1, 82328, Note_off_c, 1, 72, 0
1, 82330, Note_on_c, 1, 73, 127
1, 82330, Note_on_c, 1, 56, 127
1, 82417, Note_off_c, 1, 73, 0
1, 82686, Note_off_c, 1, 56, 0
1, 82688, Note_on_c, 1, 44, 127
1, 83044, Note_off_c, 1, 44, 0
1, 83046, Note_on_c, 1, 49, 127
1, 83221, Note_off_c, 1, 66, 0
1, 83225, Note_on_c, 1, 65, 127
1, 83402, Note_off_c, 1, 49, 0
1, 83404, Note_on_c, 1, 61, 127
1, 83404, Note_on_c, 1, 77, 127
1, 83581, Note_off_c, 1, 61, 0
1, 83584, Note_on_c, 1, 63, 127
1, 83758, Note_off_c, 1, 65, 0
1, 83760, Note_off_c, 1, 77, 0
1, 83761, Note_off_c, 1, 63, 0
1, 83763, Note_on_c, 1, 61, 127
1, 83763, Note_on_c, 1, 75, 127
1, 83763, Note_on_c, 1, 68, 127
1, 83940, Note_off_c, 1, 61, 0
1, 83942, Note_on_c, 1, 60, 127
1, 84119, Note_off_c, 1, 75, 0
1, 84119, Note_off_c, 1, 60, 0
1, 84121, Note_on_c, 1, 73, 127
1, 84121, Note_on_c, 1, 58, 127
1, 84296, Note_off_c, 1, 68, 0
1, 84300, Note_on_c, 1, 65, 127
1, 84477, Note_off_c, 1, 73, 0
1, 84477, Note_off_c, 1, 65, 0
1, 84479, Note_on_c, 1, 78, 127
1, 84656, Note_off_c, 1, 78, 0
1, 84658, Note_on_c, 1, 80, 127
1, 84835, Note_off_c, 1, 80, 0
1, 84837, Note_on_c, 1, 63, 127
1, 85014, Note_off_c, 1, 63, 0
1, 85016, Note_on_c, 1, 77, 127
1, 85193, Note_off_c, 1, 77, 0
1, 85370, Note_off_c, 1, 58, 0
1, 85554, Note_on_c, 1, 57, 127
1, 85554, Note_on_c, 1, 72, 127
1, 85731, Note_off_c, 1, 57, 0
1, 85733, Note_on_c, 1, 55, 127
1, 85910, Note_off_c, 1, 72, 0
1, 85910, Note_off_c, 1, 55, 0
1, 86091, Note_on_c, 1, 53, 127
1, 86268, Note_off_c, 1, 53, 0
1, 86628, Note_on_c, 1, 46, 127
1, 86628, Note_on_c, 1, 66, 127
1, 86805, Note_off_c, 1, 46, 0
1, 86807, Note_on_c, 1, 44, 127
1, 86984, Note_off_c, 1, 44, 0
1, 87166, Note_on_c, 1, 48, 127
1, 87343, Note_off_c, 1, 48, 0
1, 87345, Note_on_c, 1, 49, 127
1, 87523, Note_off_c, 1, 66, 0
1, 88419, Note_on_c, 1, 67, 127
1, 88419, Note_on_c, 1, 70, 127
1, 88596, Note_off_c, 1, 67, 0
1, 88773, Note_off_c, 1, 70, 0
1, 88775, Note_off_c, 1, 49, 0
1, 88777, Note_on_c, 1, 68, 127
1, 88777, Note_on_c, 1, 48, 127
1, 88777, Note_on_c, 1, 72, 127
1, 88954, Note_off_c, 1, 68, 0
1, 88957, Note_on_c, 1, 67, 127
1, 89133, Note_off_c, 1, 48, 0
1, 89134, Note_off_c, 1, 67, 0
1, 89136, Note_on_c, 1, 53, 127
1, 89310, Note_off_c, 1, 72, 0
1, 89492, Note_off_c, 1, 53, 0
1, 89494, Note_on_c, 1, 46, 127
1, 89494, Note_on_c, 1, 73, 127
1, 89850, Note_off_c, 1, 46, 0
1, 89852, Note_on_c, 1, 51, 127
1, 90031, Note_on_c, 1, 65, 127
1, 90208, Note_off_c, 1, 51, 0
1, 90208, Note_off_c, 1, 65, 0
1, 90210, Note_on_c, 1, 39, 127
1, 90566, Note_off_c, 1, 73, 0
1, 90566, Note_off_c, 1, 39, 0
1, 90568, Note_on_c, 1, 44, 127
1, 90568, Note_on_c, 1, 68, 127
1, 90568, Note_on_c, 1, 72, 127
1, 90745, Note_off_c, 1, 44, 0
1, 90748, Note_on_c, 1, 43, 127
1, 90924, Note_off_c, 1, 68, 0
1, 90924, Note_off_c, 1, 72, 0
1, 90925, Note_off_c, 1, 43, 0
1, 90927, Note_on_c, 1, 44, 127
1, 90927, Note_on_c, 1, 63, 127
1, 91104, Note_off_c, 1, 44, 0
1, 91104, Note_off_c, 1, 63, 0
1, 91106, Note_on_c, 1, 46, 127
1, 91106, Note_on_c, 1, 61, 127
1, 91283, Note_off_c, 1, 46, 0
1, 91283, Note_off_c, 1, 61, 0
1, 91285, Note_on_c, 1, 48, 127
1, 91285, Note_on_c, 1, 63, 127
1, 91462, Note_off_c, 1, 48, 0
1, 91462, Note_off_c, 1, 63, 0
1, 91464, Note_on_c, 1, 49, 127
1, 91464, Note_on_c, 1, 65, 127
1, 91641, Note_off_c, 1, 49, 0
1, 91641, Note_off_c, 1, 65, 0
1, 91643, Note_on_c, 1, 51, 127
1, 91643, Note_on_c, 1, 66, 127
1, 91820, Note_off_c, 1, 51, 0
1, 91822, Note_on_c, 1, 50, 127
1, 91999, Note_off_c, 1, 50, 0
1, 92001, Note_on_c, 1, 70, 127
1, 92178, Note_off_c, 1, 70, 0
1, 92180, Note_on_c, 1, 53, 127
1, 92180, Note_on_c, 1, 68, 127
1, 92357, Note_off_c, 1, 53, 0
1, 92357, Note_off_c, 1, 68, 0
1, 92359, Note_on_c, 1, 54, 127
1, 92536, Note_off_c, 1, 54, 0
1, 92539, Note_on_c, 1, 56, 127
1, 92539, Note_on_c, 1, 72, 127
1, 92716, Note_off_c, 1, 56, 0
1, 92716, Note_off_c, 1, 72, 0
1, 92718, Note_on_c, 1, 58, 127
1, 92718, Note_on_c, 1, 73, 127
1, 92895, Note_off_c, 1, 58, 0
1, 92897, Note_on_c, 1, 57, 127
1, 93073, Note_off_c, 1, 66, 0
1, 93074, Note_off_c, 1, 57, 0
1, 93076, Note_on_c, 1, 65, 127
1, 93255, Note_on_c, 1, 60, 127
1, 93432, Note_off_c, 1, 65, 0
1, 93432, Note_off_c, 1, 60, 0
1, 93434, Note_on_c, 1, 61, 127
1, 93611, Note_off_c, 1, 61, 0
1, 93613, Note_on_c, 1, 63, 127
1, 93790, Note_off_c, 1, 63, 0
1, 93792, Note_on_c, 1, 69, 127
1, 94148, Note_off_c, 1, 73, 0
1, 94500, Note_off_c, 1, 69, 0
1, 94509, Note_on_c, 1, 65, 127
1, 94509, Note_on_c, 1, 77, 127
1, 94509, Note_on_c, 1, 68, 127
1, 94686, Note_off_c, 1, 65, 0
1, 94688, Note_on_c, 1, 63, 127
1, 94865, Note_off_c, 1, 77, 0
1, 94865, Note_off_c, 1, 63, 0
1, 94867, Note_on_c, 1, 62, 127
1, 94867, Note_on_c, 1, 70, 127
1, 95044, Note_off_c, 1, 62, 0
1, 95046, Note_on_c, 1, 58, 127
1, 95217, Note_off_c, 1, 68, 0
1, 95223, Note_off_c, 1, 58, 0
1, 95225, Note_on_c, 1, 67, 127
1, 95575, Note_off_c, 1, 70, 0
1, 95581, Note_off_c, 1, 67, 0
1, 95583, Note_on_c, 1, 63, 127
1, 95583, Note_on_c, 1, 75, 127
1, 95583, Note_on_c, 1, 66, 127
1, 95760, Note_off_c, 1, 63, 0
1, 95762, Note_on_c, 1, 61, 127
1, 95939, Note_off_c, 1, 75, 0
1, 95939, Note_off_c, 1, 61, 0
1, 95941, Note_on_c, 1, 60, 127
1, 95941, Note_on_c, 1, 68, 127
1, 96118, Note_off_c, 1, 60, 0
1, 96121, Note_on_c, 1, 56, 127
1, 96291, Note_off_c, 1, 66, 0
1, 96298, Note_off_c, 1, 56, 0
1, 96300, Note_on_c, 1, 65, 127
1, 96479, Note_on_c, 1, 59, 127
1, 96649, Note_off_c, 1, 68, 0
1, 96656, Note_off_c, 1, 65, 0
1, 96656, Note_off_c, 1, 59, 0
1, 96658, Note_on_c, 1, 58, 127
1, 96658, Note_on_c, 1, 64, 127
1, 96658, Note_on_c, 1, 73, 127
1, 96835, Note_off_c, 1, 58, 0
1, 96837, Note_on_c, 1, 56, 127
1, 97014, Note_off_c, 1, 64, 0
1, 97014, Note_off_c, 1, 56, 0
1, 97016, Note_on_c, 1, 55, 127
1, 97016, Note_on_c, 1, 63, 127
1, 97193, Note_off_c, 1, 55, 0
1, 97195, Note_on_c, 1, 51, 127
1, 97366, Note_off_c, 1, 73, 0
1, 97372, Note_off_c, 1, 51, 0
1, 97374, Note_on_c, 1, 72, 127
1, 97551, Note_off_c, 1, 72, 0
1, 97553, Note_on_c, 1, 70, 127
1, 97730, Note_off_c, 1, 70, 0
1, 97912, Note_on_c, 1, 54, 127
1, 97912, Note_on_c, 1, 75, 127
1, 98089, Note_off_c, 1, 54, 0
1, 98089, Note_off_c, 1, 75, 0
1, 98091, Note_on_c, 1, 53, 127
1, 98091, Note_on_c, 1, 68, 127
1, 98268, Note_off_c, 1, 53, 0
1, 98446, Note_off_c, 1, 63, 0
1, 98447, Note_off_c, 1, 68, 0
1, 98449, Note_on_c, 1, 53, 127
1, 98449, Note_on_c, 1, 73, 127
1, 98449, Note_on_c, 1, 61, 127
1, 98626, Note_off_c, 1, 53, 0
1, 98628, Note_on_c, 1, 51, 127
1, 98805, Note_off_c, 1, 73, 0
1, 98805, Note_off_c, 1, 61, 0
1, 98805, Note_off_c, 1, 51, 0
1, 98807, Note_on_c, 1, 53, 127
1, 98807, Note_on_c, 1, 66, 127
1, 98807, Note_on_c, 1, 63, 127
1, 98984, Note_off_c, 1, 53, 0
1, 98986, Note_on_c, 1, 54, 127
1, 99163, Note_off_c, 1, 66, 0
1, 99163, Note_off_c, 1, 54, 0
1, 99165, Note_on_c, 1, 65, 127
1, 99165, Note_on_c, 1, 56, 127
1, 99346, Note_off_c, 1, 63, 0
1, 99366, Note_on_c, 1, 61, 127
1, 99531, Note_off_c, 1, 65, 0
1, 99533, Note_off_c, 1, 56, 0
1, 99551, Note_on_c, 1, 42, 127
1, 99742, Note_off_c, 1, 61, 0
1, 99746, Note_on_c, 1, 58, 127
1, 99939, Note_off_c, 1, 42, 0
1, 99939, Note_off_c, 1, 58, 0
1, 99941, Note_on_c, 1, 60, 127
1, 99941, Note_on_c, 1, 44, 127
1, 100360, Note_off_c, 1, 60, 0
1, 100362, Note_off_c, 1, 44, 0
1, 100365, Note_on_c, 1, 53, 127
1, 100365, Note_on_c, 1, 56, 127
1, 100365, Note_on_c, 1, 61, 127
1, 100365, Note_on_c, 1, 37, 127
1, 102339, Note_off_c, 1, 53, 0
1, 102339, Note_off_c, 1, 56, 0
1, 102339, Note_off_c, 1, 61, 0
1, 102339, Note_off_c, 1, 37, 0
1, 103036, Note_on_c, 1, 49, 127
1, 103378, Note_off_c, 1, 49, 0
1, 103384, Note_on_c, 1, 53, 127
1, 103726, Note_off_c, 1, 53, 0
1, 103732, Note_on_c, 1, 49, 127
1, 104074, Note_off_c, 1, 49, 0
1, 104081, Note_on_c, 1, 56, 127
1, 104427, Note_on_c, 1, 68, 127
1, 104586, Note_off_c, 1, 56, 0
1, 104769, Note_off_c, 1, 68, 0
1, 104775, Note_on_c, 1, 72, 127
1, 104775, Note_on_c, 1, 54, 127
1, 105117, Note_off_c, 1, 72, 0
1, 105123, Note_on_c, 1, 68, 127
1, 105282, Note_off_c, 1, 54, 0
1, 105465, Note_off_c, 1, 68, 0
1, 105472, Note_on_c, 1, 53, 127
1, 105472, Note_on_c, 1, 73, 127
1, 105639, Note_off_c, 1, 53, 0
1, 105645, Note_on_c, 1, 51, 127
1, 105812, Note_off_c, 1, 51, 0
1, 105818, Note_on_c, 1, 68, 127
1, 105818, Note_on_c, 1, 49, 127
1, 105977, Note_off_c, 1, 73, 0
1, 106160, Note_off_c, 1, 68, 0
1, 106166, Note_on_c, 1, 65, 127
1, 106166, Note_on_c, 1, 71, 127
1, 106333, Note_off_c, 1, 49, 0
1, 106506, Note_off_c, 1, 65, 0
1, 106671, Note_off_c, 1, 71, 0
1, 106861, Note_on_c, 1, 70, 127
1, 106861, Note_on_c, 1, 61, 127
1, 106861, Note_on_c, 1, 54, 127
1, 107028, Note_off_c, 1, 70, 0
1, 107034, Note_on_c, 1, 68, 127
1, 107201, Note_off_c, 1, 68, 0
1, 107207, Note_on_c, 1, 66, 127
1, 107366, Note_off_c, 1, 61, 0
1, 107366, Note_off_c, 1, 54, 0
1, 107553, Note_on_c, 1, 63, 127
1, 107553, Note_on_c, 1, 42, 127
1, 107720, Note_off_c, 1, 66, 0
1, 108058, Note_off_c, 1, 63, 0
1, 108058, Note_off_c, 1, 42, 0
1, 108075, Note_on_c, 1, 66, 127
1, 108242, Note_off_c, 1, 66, 0
1, 108248, Note_on_c, 1, 65, 127
1, 108248, Note_on_c, 1, 68, 127
1, 108415, Note_off_c, 1, 65, 0
1, 108421, Note_on_c, 1, 66, 127
1, 108588, Note_off_c, 1, 66, 0
1, 108590, Note_off_c, 1, 68, 0
1, 108594, Note_on_c, 1, 49, 127
1, 108594, Note_on_c, 1, 68, 127
1, 108936, Note_off_c, 1, 49, 0
1, 108942, Note_on_c, 1, 46, 127
1, 108942, Note_on_c, 1, 73, 127
1, 109109, Note_off_c, 1, 68, 0
1, 109115, Note_on_c, 1, 66, 127
1, 109282, Note_off_c, 1, 46, 0
1, 109282, Note_off_c, 1, 66, 0
1, 109288, Note_on_c, 1, 65, 127
1, 109447, Note_off_c, 1, 73, 0
1, 109457, Note_off_c, 1, 65, 0
1, 109637, Note_on_c, 1, 63, 127
1, 109637, Note_on_c, 1, 42, 127
1, 109637, Note_on_c, 1, 73, 127
1, 109804, Note_off_c, 1, 63, 0
1, 109810, Note_on_c, 1, 65, 127
1, 109977, Note_off_c, 1, 42, 0
1, 109977, Note_off_c, 1, 65, 0
1, 109983, Note_on_c, 1, 46, 127
1, 109983, Note_on_c, 1, 66, 127
1, 110142, Note_off_c, 1, 73, 0
1, 110325, Note_off_c, 1, 46, 0
1, 110331, Note_on_c, 1, 39, 127
1, 110331, Note_on_c, 1, 72, 127
1, 110498, Note_off_c, 1, 66, 0
1, 110671, Note_off_c, 1, 39, 0
1, 110677, Note_on_c, 1, 44, 127
1, 110836, Note_off_c, 1, 72, 0
1, 111019, Note_off_c, 1, 44, 0
1, 111026, Note_on_c, 1, 65, 127
1, 111026, Note_on_c, 1, 37, 127
1, 111372, Note_on_c, 1, 73, 127
1, 111531, Note_off_c, 1, 65, 0
1, 111531, Note_off_c, 1, 37, 0
1, 111714, Note_off_c, 1, 73, 0
1, 111720, Note_on_c, 1, 77, 127
1, 112062, Note_off_c, 1, 77, 0
1, 112069, Note_on_c, 1, 73, 127
1, 112069, Note_on_c, 1, 61, 127
1, 112411, Note_off_c, 1, 73, 0
1, 112411, Note_off_c, 1, 61, 0
1, 112417, Note_on_c, 1, 60, 127
1, 112417, Note_on_c, 1, 80, 127
1, 112759, Note_off_c, 1, 60, 0
1, 112765, Note_on_c, 1, 68, 127
1, 112765, Note_on_c, 1, 63, 127
1, 112924, Note_off_c, 1, 80, 0
1, 113107, Note_off_c, 1, 68, 0
1, 113107, Note_off_c, 1, 63, 0
1, 113113, Note_on_c, 1, 72, 127
1, 113113, Note_on_c, 1, 78, 127
1, 113113, Note_on_c, 1, 56, 127
1, 113455, Note_off_c, 1, 72, 0
1, 113462, Note_on_c, 1, 68, 127
1, 113620, Note_off_c, 1, 78, 0
1, 113620, Note_off_c, 1, 56, 0
1, 113804, Note_off_c, 1, 68, 0
1, 113810, Note_on_c, 1, 77, 127
1, 113810, Note_on_c, 1, 73, 127
1, 113977, Note_off_c, 1, 77, 0
1, 113983, Note_on_c, 1, 75, 127
1, 114150, Note_off_c, 1, 75, 0
1, 114152, Note_off_c, 1, 73, 0
1, 114156, Note_on_c, 1, 49, 127
1, 114156, Note_on_c, 1, 73, 127
1, 114498, Note_off_c, 1, 49, 0
1, 114504, Note_on_c, 1, 53, 127
1, 114504, Note_on_c, 1, 71, 127
1, 114671, Note_off_c, 1, 73, 0
1, 114677, Note_on_c, 1, 75, 127
1, 114844, Note_off_c, 1, 53, 0
1, 114844, Note_off_c, 1, 75, 0
1, 114851, Note_on_c, 1, 77, 127
1, 115009, Note_off_c, 1, 71, 0
1, 115020, Note_off_c, 1, 77, 0
1, 115199, Note_on_c, 1, 70, 127
1, 115199, Note_on_c, 1, 54, 127
1, 115545, Note_on_c, 1, 78, 127
1, 115704, Note_off_c, 1, 70, 0
1, 115704, Note_off_c, 1, 54, 0
1, 115714, Note_off_c, 1, 78, 0
1, 115720, Note_on_c, 1, 75, 127
1, 115887, Note_off_c, 1, 75, 0
1, 115893, Note_on_c, 1, 80, 127
1, 115893, Note_on_c, 1, 53, 127
1, 116066, Note_on_c, 1, 70, 127
1, 116233, Note_off_c, 1, 70, 0
1, 116240, Note_on_c, 1, 74, 127
1, 116398, Note_off_c, 1, 80, 0
1, 116398, Note_off_c, 1, 53, 0
1, 116409, Note_off_c, 1, 74, 0
1, 116415, Note_on_c, 1, 70, 127
1, 116582, Note_off_c, 1, 70, 0
1, 116588, Note_on_c, 1, 78, 127
1, 116588, Note_on_c, 1, 75, 127
1, 116761, Note_on_c, 1, 51, 127
1, 116928, Note_off_c, 1, 51, 0
1, 116934, Note_on_c, 1, 48, 127
1, 117093, Note_off_c, 1, 78, 0
1, 117093, Note_off_c, 1, 75, 0
1, 117103, Note_off_c, 1, 48, 0
1, 117109, Note_on_c, 1, 51, 127
1, 117276, Note_off_c, 1, 51, 0
1, 117282, Note_on_c, 1, 45, 127
1, 117282, Note_on_c, 1, 77, 127
1, 117455, Note_on_c, 1, 75, 127
1, 117622, Note_off_c, 1, 45, 0
1, 117622, Note_off_c, 1, 75, 0
1, 117629, Note_on_c, 1, 46, 127
1, 117629, Note_on_c, 1, 73, 127
1, 117795, Note_off_c, 1, 77, 0
1, 117969, Note_off_c, 1, 46, 0
1, 117975, Note_on_c, 1, 79, 127
1, 117975, Note_on_c, 1, 39, 127
1, 118142, Note_off_c, 1, 73, 0
1, 118148, Note_on_c, 1, 72, 127
1, 118315, Note_off_c, 1, 79, 0
1, 118315, Note_off_c, 1, 39, 0
1, 118321, Note_on_c, 1, 41, 127
1, 118321, Note_on_c, 1, 80, 127
1, 118488, Note_off_c, 1, 72, 0
1, 118661, Note_off_c, 1, 41, 0
1, 118667, Note_on_c, 1, 37, 127
1, 118667, Note_on_c, 1, 70, 127
1, 118834, Note_off_c, 1, 80, 0
1, 119007, Note_off_c, 1, 37, 0
1, 119180, Note_off_c, 1, 70, 0
1, 119360, Note_on_c, 1, 80, 127
1, 119360, Note_on_c, 1, 72, 127
1, 119706, Note_on_c, 1, 44, 127
1, 119865, Note_off_c, 1, 80, 0
1, 119865, Note_off_c, 1, 72, 0
1, 120048, Note_off_c, 1, 44, 0
1, 120054, Note_on_c, 1, 48, 127
1, 120396, Note_off_c, 1, 48, 0
1, 120403, Note_on_c, 1, 44, 127
1, 120745, Note_off_c, 1, 44, 0
1, 120751, Note_on_c, 1, 49, 127
1, 121097, Note_on_c, 1, 56, 127
1, 121256, Note_off_c, 1, 49, 0
1, 121439, Note_off_c, 1, 56, 0
1, 121445, Note_on_c, 1, 60, 127
1, 121445, Note_on_c, 1, 48, 127
1, 121787, Note_off_c, 1, 60, 0
1, 121794, Note_on_c, 1, 56, 127
1, 121952, Note_off_c, 1, 48, 0
1, 122136, Note_off_c, 1, 56, 0
1, 122142, Note_on_c, 1, 46, 127
1, 122142, Note_on_c, 1, 61, 127
1, 122309, Note_off_c, 1, 46, 0
1, 122315, Note_on_c, 1, 48, 127
1, 122482, Note_off_c, 1, 48, 0
1, 122488, Note_on_c, 1, 49, 127
1, 122488, Note_on_c, 1, 65, 127
1, 122647, Note_off_c, 1, 61, 0
1, 122657, Note_off_c, 1, 49, 0
1, 122663, Note_on_c, 1, 51, 127
1, 122830, Note_off_c, 1, 65, 0
1, 122830, Note_off_c, 1, 51, 0
1, 122836, Note_on_c, 1, 53, 127
1, 122836, Note_on_c, 1, 68, 127
1, 122836, Note_on_c, 1, 59, 127
1, 123003, Note_off_c, 1, 53, 0
1, 123010, Note_on_c, 1, 54, 127
1, 123176, Note_off_c, 1, 68, 0
1, 123177, Note_off_c, 1, 54, 0
1, 123183, Note_on_c, 1, 56, 127
1, 123183, Note_on_c, 1, 65, 127
1, 123292, Note_off_c, 1, 56, 0
1, 123341, Note_off_c, 1, 59, 0
1, 123525, Note_off_c, 1, 65, 0
1, 123531, Note_on_c, 1, 58, 127
1, 123531, Note_on_c, 1, 70, 127
1, 123531, Note_on_c, 1, 54, 127
1, 123698, Note_off_c, 1, 58, 0
1, 123704, Note_on_c, 1, 60, 127
1, 123871, Note_off_c, 1, 60, 0
1, 123877, Note_on_c, 1, 62, 127
1, 124036, Note_off_c, 1, 70, 0
1, 124036, Note_off_c, 1, 54, 0
1, 124046, Note_off_c, 1, 62, 0
1, 124052, Note_on_c, 1, 63, 127
1, 124219, Note_off_c, 1, 63, 0
1, 124225, Note_on_c, 1, 65, 127
1, 124225, Note_on_c, 1, 68, 127
1, 124225, Note_on_c, 1, 50, 127
1, 124392, Note_off_c, 1, 65, 0
1, 124399, Note_on_c, 1, 66, 127
1, 124566, Note_off_c, 1, 66, 0
1, 124567, Note_off_c, 1, 68, 0
1, 124730, Note_off_c, 1, 50, 0
1, 124805, Note_on_c, 1, 65, 127
1, 124914, Note_off_c, 1, 65, 0
1, 124920, Note_on_c, 1, 66, 127
1, 124920, Note_on_c, 1, 51, 127
1, 125093, Note_on_c, 1, 68, 127
1, 125260, Note_off_c, 1, 68, 0
1, 125266, Note_on_c, 1, 70, 127
1, 125425, Note_off_c, 1, 66, 0
1, 125425, Note_off_c, 1, 51, 0
1, 125435, Note_off_c, 1, 70, 0
1, 125441, Note_on_c, 1, 72, 127
1, 125608, Note_off_c, 1, 72, 0
1, 125614, Note_on_c, 1, 74, 127
1, 125614, Note_on_c, 1, 65, 127
1, 125781, Note_off_c, 1, 74, 0
1, 125788, Note_on_c, 1, 75, 127
1, 125955, Note_off_c, 1, 75, 0
1, 125961, Note_on_c, 1, 77, 127
1, 125961, Note_on_c, 1, 58, 127
1, 126070, Note_off_c, 1, 77, 0
1, 126119, Note_off_c, 1, 65, 0
1, 126303, Note_off_c, 1, 58, 0
1, 126309, Note_on_c, 1, 54, 127
1, 126309, Note_on_c, 1, 75, 127
1, 126651, Note_off_c, 1, 54, 0
1, 126657, Note_on_c, 1, 70, 127
1, 126657, Note_on_c, 1, 58, 127
1, 126816, Note_off_c, 1, 75, 0
1, 126999, Note_off_c, 1, 70, 0
1, 126999, Note_off_c, 1, 58, 0
1, 127005, Note_on_c, 1, 66, 127
1, 127005, Note_on_c, 1, 51, 127
1, 127347, Note_off_c, 1, 66, 0
1, 127347, Note_off_c, 1, 51, 0
1, 127354, Note_on_c, 1, 75, 127
1, 127354, Note_on_c, 1, 70, 127
1, 127354, Note_on_c, 1, 55, 127
1, 127696, Note_off_c, 1, 75, 0
1, 127696, Note_off_c, 1, 70, 0
1, 127696, Note_off_c, 1, 55, 0
1, 127702, Note_on_c, 1, 56, 127
1, 127702, Note_on_c, 1, 72, 127
1, 127702, Note_on_c, 1, 63, 127
1, 127869, Note_off_c, 1, 56, 0
1, 127875, Note_on_c, 1, 44, 127
1, 128042, Note_off_c, 1, 72, 0
1, 128042, Note_off_c, 1, 63, 0
1, 128042, Note_off_c, 1, 44, 0
1, 128048, Note_on_c, 1, 46, 127
1, 128048, Note_on_c, 1, 75, 127
1, 128048, Note_on_c, 1, 66, 127
1, 128215, Note_off_c, 1, 46, 0
1, 128221, Note_on_c, 1, 48, 127
1, 128388, Note_off_c, 1, 75, 0
1, 128388, Note_off_c, 1, 66, 0
1, 128388, Note_off_c, 1, 48, 0
1, 128394, Note_on_c, 1, 49, 127
1, 128394, Note_on_c, 1, 68, 127
1, 128394, Note_on_c, 1, 65, 127
1, 128561, Note_off_c, 1, 49, 0
1, 128568, Note_on_c, 1, 51, 127
1, 128734, Note_off_c, 1, 68, 0
1, 128734, Note_off_c, 1, 65, 0
1, 128735, Note_off_c, 1, 51, 0
1, 128741, Note_on_c, 1, 53, 127
1, 128741, Note_on_c, 1, 73, 127
1, 128741, Note_on_c, 1, 68, 127
1, 128850, Note_off_c, 1, 53, 0
1, 128856, Note_on_c, 1, 51, 127
1, 128965, Note_off_c, 1, 51, 0
1, 128972, Note_on_c, 1, 49, 127
1, 129081, Note_off_c, 1, 73, 0
1, 129081, Note_off_c, 1, 49, 0
1, 129087, Note_on_c, 1, 54, 127
1, 129087, Note_on_c, 1, 70, 127
1, 129254, Note_off_c, 1, 68, 0
1, 129427, Note_off_c, 1, 54, 0
1, 129433, Note_on_c, 1, 66, 127
1, 129592, Note_off_c, 1, 70, 0
1, 129602, Note_off_c, 1, 66, 0
1, 129608, Note_on_c, 1, 65, 127
1, 129775, Note_off_c, 1, 65, 0
1, 129781, Note_on_c, 1, 63, 127
1, 129781, Note_on_c, 1, 72, 127
1, 129948, Note_off_c, 1, 63, 0
1, 129955, Note_on_c, 1, 61, 127
1, 130122, Note_off_c, 1, 61, 0
1, 130128, Note_on_c, 1, 60, 127
1, 130128, Note_on_c, 1, 56, 127
1, 130237, Note_off_c, 1, 60, 0
1, 130286, Note_off_c, 1, 72, 0
1, 130470, Note_off_c, 1, 56, 0
1, 130476, Note_on_c, 1, 73, 127
1, 130476, Note_on_c, 1, 53, 127
1, 130476, Note_on_c, 1, 56, 127
1, 130818, Note_off_c, 1, 73, 0
1, 130818, Note_off_c, 1, 53, 0
1, 130820, Note_off_c, 1, 56, 0
1, 130824, Note_on_c, 1, 80, 127
1, 130824, Note_on_c, 1, 56, 127
1, 131166, Note_off_c, 1, 80, 0
1, 131166, Note_off_c, 1, 56, 0
1, 131173, Note_on_c, 1, 77, 127
1, 131173, Note_on_c, 1, 49, 127
1, 131515, Note_off_c, 1, 77, 0
1, 131521, Note_on_c, 1, 80, 127
1, 131521, Note_on_c, 1, 61, 127
1, 131680, Note_off_c, 1, 49, 0
1, 131863, Note_off_c, 1, 80, 0
1, 131863, Note_off_c, 1, 61, 0
1, 131869, Note_on_c, 1, 65, 127
1, 131869, Note_on_c, 1, 73, 127
1, 132211, Note_off_c, 1, 65, 0
1, 132217, Note_on_c, 1, 61, 127
1, 132217, Note_on_c, 1, 49, 127
1, 132376, Note_off_c, 1, 73, 0
1, 132559, Note_off_c, 1, 61, 0
1, 132559, Note_off_c, 1, 49, 0
1, 132566, Note_on_c, 1, 53, 127
1, 132566, Note_on_c, 1, 68, 127
1, 132739, Note_on_c, 1, 71, 127
1, 132906, Note_off_c, 1, 53, 0
1, 132906, Note_off_c, 1, 71, 0
1, 132908, Note_off_c, 1, 68, 0
1, 132912, Note_on_c, 1, 70, 127
1, 132912, Note_on_c, 1, 49, 127
1, 133079, Note_off_c, 1, 70, 0
1, 133085, Note_on_c, 1, 68, 127
1, 133252, Note_off_c, 1, 49, 0
1, 133252, Note_off_c, 1, 68, 0
1, 133258, Note_on_c, 1, 54, 127
1, 133258, Note_on_c, 1, 70, 127
1, 133431, Note_on_c, 1, 68, 127
1, 133598, Note_off_c, 1, 54, 0
1, 133598, Note_off_c, 1, 68, 0
1, 133604, Note_on_c, 1, 66, 127
1, 133604, Note_on_c, 1, 58, 127
1, 133771, Note_off_c, 1, 66, 0
1, 133777, Note_on_c, 1, 65, 127
1, 133944, Note_off_c, 1, 58, 0
1, 133944, Note_off_c, 1, 65, 0
1, 133951, Note_on_c, 1, 51, 127
1, 134117, Note_off_c, 1, 70, 0
1, 134291, Note_off_c, 1, 51, 0
1, 134297, Note_on_c, 1, 75, 127
1, 134637, Note_off_c, 1, 75, 0
1, 134643, Note_on_c, 1, 48, 127
1, 134983, Note_off_c, 1, 48, 0
1, 134989, Note_on_c, 1, 56, 127
1, 135162, Note_on_c, 1, 63, 127
1, 135329, Note_off_c, 1, 56, 0
1, 135329, Note_off_c, 1, 63, 0
1, 135336, Note_on_c, 1, 49, 127
1, 135676, Note_off_c, 1, 49, 0
1, 135682, Note_on_c, 1, 73, 127
1, 135682, Note_on_c, 1, 53, 127
1, 136022, Note_off_c, 1, 73, 0
1, 136022, Note_off_c, 1, 53, 0
1, 136028, Note_on_c, 1, 46, 127
1, 136368, Note_off_c, 1, 46, 0
1, 136547, Note_on_c, 1, 61, 127
1, 136714, Note_off_c, 1, 61, 0
1, 137413, Note_on_c, 1, 45, 127
1, 137753, Note_off_c, 1, 45, 0
1, 137759, Note_on_c, 1, 41, 127
1, 137933, Note_on_c, 1, 60, 127
1, 138099, Note_off_c, 1, 41, 0
1, 138100, Note_off_c, 1, 60, 0
1, 138452, Note_on_c, 1, 44, 127
1, 138792, Note_off_c, 1, 44, 0
1, 138798, Note_on_c, 1, 42, 127
1, 138971, Note_on_c, 1, 57, 127
1, 139138, Note_off_c, 1, 42, 0
1, 139138, Note_off_c, 1, 57, 0
1, 140183, Note_on_c, 1, 41, 127
1, 140183, Note_on_c, 1, 65, 127
1, 140183, Note_on_c, 1, 57, 127
1, 140525, Note_off_c, 1, 41, 0
1, 140531, Note_on_c, 1, 53, 127
1, 140690, Note_off_c, 1, 65, 0
1, 140690, Note_off_c, 1, 57, 0
1, 140873, Note_off_c, 1, 53, 0
1, 140880, Note_on_c, 1, 57, 127
1, 141222, Note_off_c, 1, 57, 0
1, 141228, Note_on_c, 1, 77, 127
1, 141228, Note_on_c, 1, 53, 127
1, 141570, Note_off_c, 1, 77, 0
1, 141570, Note_off_c, 1, 53, 0
1, 141576, Note_on_c, 1, 73, 127
1, 141576, Note_on_c, 1, 58, 127
1, 141918, Note_off_c, 1, 73, 0
1, 141920, Note_off_c, 1, 58, 0
1, 141924, Note_on_c, 1, 77, 127
1, 141924, Note_on_c, 1, 58, 127
1, 142266, Note_off_c, 1, 77, 0
1, 142266, Note_off_c, 1, 58, 0
1, 142273, Note_on_c, 1, 62, 127
1, 142273, Note_on_c, 1, 70, 127
1, 142273, Note_on_c, 1, 56, 127
1, 142615, Note_off_c, 1, 62, 0
1, 142621, Note_on_c, 1, 58, 127
1, 142780, Note_off_c, 1, 70, 0
1, 142780, Note_off_c, 1, 56, 0
1, 142963, Note_off_c, 1, 58, 0
1, 142969, Note_on_c, 1, 55, 127
1, 142969, Note_on_c, 1, 63, 127
1, 143136, Note_off_c, 1, 55, 0
1, 143142, Note_on_c, 1, 53, 127
1, 143309, Note_off_c, 1, 53, 0
1, 143315, Note_on_c, 1, 82, 127
1, 143315, Note_on_c, 1, 51, 127
1, 143657, Note_off_c, 1, 63, 0
1, 143657, Note_off_c, 1, 82, 0
1, 143664, Note_on_c, 1, 79, 127
1, 143664, Note_on_c, 1, 61, 127
1, 143830, Note_off_c, 1, 51, 0
1, 144004, Note_off_c, 1, 79, 0
1, 144350, Note_off_c, 1, 61, 0
1, 144356, Note_on_c, 1, 60, 127
1, 144356, Note_on_c, 1, 56, 127
1, 144356, Note_on_c, 1, 75, 127
1, 144523, Note_off_c, 1, 60, 0
1, 144529, Note_on_c, 1, 58, 127
1, 144696, Note_off_c, 1, 58, 0
1, 144698, Note_off_c, 1, 56, 0
1, 144861, Note_off_c, 1, 75, 0
1, 145049, Note_on_c, 1, 77, 127
1, 145395, Note_on_c, 1, 59, 127
1, 145504, Note_off_c, 1, 59, 0
1, 145554, Note_off_c, 1, 77, 0
1, 145628, Note_on_c, 1, 56, 127
1, 145737, Note_off_c, 1, 56, 0
1, 145743, Note_on_c, 1, 78, 127
1, 145743, Note_on_c, 1, 58, 127
1, 145910, Note_off_c, 1, 78, 0
1, 145910, Note_off_c, 1, 58, 0
1, 145916, Note_on_c, 1, 80, 127
1, 145916, Note_on_c, 1, 60, 127
1, 146083, Note_off_c, 1, 80, 0
1, 146083, Note_off_c, 1, 60, 0
1, 146090, Note_on_c, 1, 61, 127
1, 146090, Note_on_c, 1, 82, 127
1, 146199, Note_off_c, 1, 61, 0
1, 146205, Note_on_c, 1, 60, 127
1, 146314, Note_off_c, 1, 60, 0
1, 146320, Note_on_c, 1, 58, 127
1, 146429, Note_off_c, 1, 58, 0
1, 146603, Note_off_c, 1, 82, 0
1, 146609, Note_on_c, 1, 80, 127
1, 146609, Note_on_c, 1, 61, 127
1, 146776, Note_off_c, 1, 80, 0
1, 146776, Note_off_c, 1, 61, 0
1, 146782, Note_on_c, 1, 63, 127
1, 146782, Note_on_c, 1, 78, 127
1, 146883, Note_off_c, 1, 63, 0
1, 146890, Note_on_c, 1, 61, 127
1, 146990, Note_off_c, 1, 78, 0
1, 146991, Note_off_c, 1, 61, 0
1, 146997, Note_on_c, 1, 80, 127
1, 146997, Note_on_c, 1, 60, 127
1, 147124, Note_off_c, 1, 80, 0
1, 147124, Note_off_c, 1, 60, 0
1, 147130, Note_on_c, 1, 77, 127
1, 147130, Note_on_c, 1, 61, 127
1, 147297, Note_off_c, 1, 77, 0
1, 147303, Note_on_c, 1, 78, 127
1, 147470, Note_off_c, 1, 78, 0
1, 147477, Note_on_c, 1, 49, 127
1, 147477, Note_on_c, 1, 80, 127
1, 147819, Note_off_c, 1, 49, 0
1, 147825, Note_on_c, 1, 53, 127
1, 147992, Note_off_c, 1, 80, 0
1, 148165, Note_off_c, 1, 53, 0
1, 148517, Note_on_c, 1, 75, 127
1, 148517, Note_on_c, 1, 56, 127
1, 148684, Note_off_c, 1, 75, 0
1, 148857, Note_off_c, 1, 61, 0
1, 149210, Note_on_c, 1, 60, 127
1, 149383, Note_on_c, 1, 73, 127
1, 149550, Note_off_c, 1, 60, 0
1, 149550, Note_off_c, 1, 73, 0
1, 149556, Note_on_c, 1, 72, 127
1, 149556, Note_on_c, 1, 65, 127
1, 149665, Note_off_c, 1, 72, 0
1, 149896, Note_off_c, 1, 65, 0
1, 149902, Note_on_c, 1, 58, 127
1, 150076, Note_on_c, 1, 70, 127
1, 150242, Note_off_c, 1, 56, 0
1, 150243, Note_off_c, 1, 70, 0
1, 150595, Note_on_c, 1, 54, 127
1, 150934, Note_off_c, 1, 58, 0
1, 150941, Note_on_c, 1, 63, 127
1, 151281, Note_off_c, 1, 63, 0
1, 151627, Note_off_c, 1, 54, 0
1, 151807, Note_on_c, 1, 68, 127
1, 151976, Note_off_c, 1, 68, 0
1, 151982, Note_on_c, 1, 73, 127
1, 151982, Note_on_c, 1, 53, 127
1, 152155, Note_on_c, 1, 68, 127
1, 152322, Note_off_c, 1, 68, 0
1, 152328, Note_on_c, 1, 65, 127
1, 152487, Note_off_c, 1, 73, 0
1, 152487, Note_off_c, 1, 53, 0
1, 152497, Note_off_c, 1, 65, 0
1, 152503, Note_on_c, 1, 68, 127
1, 152670, Note_off_c, 1, 68, 0
1, 152676, Note_on_c, 1, 70, 127
1, 152676, Note_on_c, 1, 61, 127
1, 152850, Note_on_c, 1, 58, 127
1, 153017, Note_off_c, 1, 58, 0
1, 153023, Note_on_c, 1, 54, 127
1, 153181, Note_off_c, 1, 70, 0
1, 153181, Note_off_c, 1, 61, 0
1, 153192, Note_off_c, 1, 54, 0
1, 153198, Note_on_c, 1, 58, 127
1, 153365, Note_off_c, 1, 58, 0
1, 153371, Note_on_c, 1, 78, 127
1, 153371, Note_on_c, 1, 51, 127
1, 153544, Note_on_c, 1, 60, 127
1, 153711, Note_off_c, 1, 60, 0
1, 153717, Note_on_c, 1, 56, 127
1, 153876, Note_off_c, 1, 78, 0
1, 153876, Note_off_c, 1, 51, 0
1, 153886, Note_off_c, 1, 56, 0
1, 153892, Note_on_c, 1, 60, 127
1, 154059, Note_off_c, 1, 60, 0
1, 154065, Note_on_c, 1, 61, 127
1, 154065, Note_on_c, 1, 49, 127
1, 154239, Note_on_c, 1, 78, 127
1, 154405, Note_off_c, 1, 61, 0
1, 154406, Note_off_c, 1, 78, 0
1, 154412, Note_on_c, 1, 77, 127
1, 154412, Note_on_c, 1, 56, 127
1, 154570, Note_off_c, 1, 49, 0
1, 154581, Note_off_c, 1, 77, 0
1, 154587, Note_on_c, 1, 75, 127
1, 154754, Note_off_c, 1, 56, 0
1, 154754, Note_off_c, 1, 75, 0
1, 154760, Note_on_c, 1, 77, 127
1, 154760, Note_on_c, 1, 61, 127
1, 154869, Note_off_c, 1, 77, 0
1, 154875, Note_on_c, 1, 78, 127
1, 154933, Note_on_c, 1, 49, 127
1, 154984, Note_off_c, 1, 78, 0
1, 154991, Note_on_c, 1, 80, 127
1, 155100, Note_off_c, 1, 49, 0
1, 155100, Note_off_c, 1, 80, 0
1, 155106, Note_on_c, 1, 73, 127
1, 155106, Note_on_c, 1, 53, 127
1, 155215, Note_off_c, 1, 73, 0
1, 155222, Note_on_c, 1, 75, 127
1, 155273, Note_off_c, 1, 53, 0
1, 155331, Note_off_c, 1, 75, 0
1, 155452, Note_on_c, 1, 70, 127
1, 155452, Note_on_c, 1, 54, 127
1, 155619, Note_off_c, 1, 70, 0
1, 155792, Note_off_c, 1, 61, 0
1, 155799, Note_on_c, 1, 58, 127
1, 155957, Note_off_c, 1, 54, 0
1, 156141, Note_off_c, 1, 58, 0
1, 156147, Note_on_c, 1, 75, 127
1, 156147, Note_on_c, 1, 54, 127
1, 156256, Note_off_c, 1, 75, 0
1, 156262, Note_on_c, 1, 77, 127
1, 156371, Note_off_c, 1, 77, 0
1, 156378, Note_on_c, 1, 78, 127
1, 156487, Note_off_c, 1, 78, 0
1, 156493, Note_on_c, 1, 72, 127
1, 156493, Note_on_c, 1, 51, 127
1, 156602, Note_off_c, 1, 72, 0
1, 156609, Note_on_c, 1, 73, 127
1, 156718, Note_off_c, 1, 73, 0
1, 156833, Note_off_c, 1, 51, 0
1, 156840, Note_on_c, 1, 68, 127
1, 156840, Note_on_c, 1, 48, 127
1, 157007, Note_off_c, 1, 68, 0
1, 157179, Note_off_c, 1, 54, 0
1, 157186, Note_on_c, 1, 56, 127
1, 157345, Note_off_c, 1, 48, 0
1, 157528, Note_off_c, 1, 56, 0
1, 157534, Note_on_c, 1, 73, 127
1, 157534, Note_on_c, 1, 53, 127
1, 157643, Note_off_c, 1, 73, 0
1, 157649, Note_on_c, 1, 75, 127
1, 157758, Note_off_c, 1, 75, 0
1, 157765, Note_on_c, 1, 77, 127
1, 157874, Note_off_c, 1, 53, 0
1, 157874, Note_off_c, 1, 77, 0
1, 157880, Note_on_c, 1, 68, 127
1, 157880, Note_on_c, 1, 49, 127
1, 157880, Note_on_c, 1, 65, 127
1, 157989, Note_off_c, 1, 68, 0
1, 157996, Note_on_c, 1, 70, 127
1, 158105, Note_off_c, 1, 70, 0
1, 158111, Note_on_c, 1, 71, 127
1, 158220, Note_off_c, 1, 49, 0
1, 158220, Note_off_c, 1, 71, 0
1, 158227, Note_on_c, 1, 42, 127
1, 158393, Note_off_c, 1, 65, 0
1, 158400, Note_on_c, 1, 61, 127
1, 158567, Note_off_c, 1, 42, 0
1, 158567, Note_off_c, 1, 61, 0
1, 158573, Note_on_c, 1, 54, 127
1, 158573, Note_on_c, 1, 63, 127
1, 158746, Note_on_c, 1, 66, 127
1, 158913, Note_off_c, 1, 54, 0
1, 158913, Note_off_c, 1, 66, 0
1, 158919, Note_on_c, 1, 53, 127
1, 159086, Note_off_c, 1, 63, 0
1, 159092, Note_on_c, 1, 60, 127
1, 159259, Note_off_c, 1, 53, 0
1, 159259, Note_off_c, 1, 60, 0
1, 159265, Note_on_c, 1, 46, 127
1, 159605, Note_off_c, 1, 46, 0
1, 159612, Note_on_c, 1, 51, 127
1, 159785, Note_on_c, 1, 58, 127
1, 159952, Note_off_c, 1, 51, 0
1, 159952, Note_off_c, 1, 58, 0
1, 159958, Note_on_c, 1, 44, 127
1, 160298, Note_off_c, 1, 44, 0
1, 160304, Note_on_c, 1, 49, 127
1, 160304, Note_on_c, 1, 65, 127
1, 160477, Note_on_c, 1, 61, 127
1, 160644, Note_off_c, 1, 49, 0
1, 160644, Note_off_c, 1, 61, 0
1, 160650, Note_on_c, 1, 56, 127
1, 160650, Note_on_c, 1, 37, 127
1, 160817, Note_off_c, 1, 56, 0
1, 160824, Note_on_c, 1, 59, 127
1, 160990, Note_off_c, 1, 37, 0
1, 160991, Note_off_c, 1, 59, 0
1, 160997, Note_on_c, 1, 42, 127
1, 160997, Note_on_c, 1, 58, 127
1, 161164, Note_off_c, 1, 42, 0
1, 161343, Note_on_c, 1, 46, 127
1, 161510, Note_off_c, 1, 46, 0
1, 161689, Note_on_c, 1, 54, 127
1, 161856, Note_off_c, 1, 65, 0
1, 161862, Note_on_c, 1, 63, 127
1, 162029, Note_off_c, 1, 63, 0
1, 162035, Note_on_c, 1, 66, 127
1, 162202, Note_off_c, 1, 66, 0
1, 162380, Note_off_c, 1, 58, 0
1, 162382, Note_on_c, 1, 60, 127
1, 162721, Note_off_c, 1, 54, 0
1, 162722, Note_off_c, 1, 60, 0
1, 163074, Note_on_c, 1, 53, 127
1, 163074, Note_on_c, 1, 68, 127
1, 163414, Note_off_c, 1, 53, 0
1, 163587, Note_off_c, 1, 68, 0
1, 163767, Note_on_c, 1, 65, 127
1, 163767, Note_on_c, 1, 49, 127
1, 163940, Note_on_c, 1, 61, 127
1, 164107, Note_off_c, 1, 65, 0
1, 164107, Note_off_c, 1, 49, 0
1, 164113, Note_on_c, 1, 59, 127
1, 164286, Note_on_c, 1, 68, 127
1, 164453, Note_off_c, 1, 59, 0
1, 164453, Note_off_c, 1, 68, 0
1, 164459, Note_on_c, 1, 58, 127
1, 164459, Note_on_c, 1, 73, 127
1, 164626, Note_off_c, 1, 61, 0
1, 164632, Note_on_c, 1, 66, 127
1, 164799, Note_off_c, 1, 58, 0
1, 164799, Note_off_c, 1, 66, 0
1, 164972, Note_off_c, 1, 73, 0
1, 164979, Note_on_c, 1, 71, 127
1, 165146, Note_off_c, 1, 71, 0
1, 165152, Note_on_c, 1, 70, 127
1, 165152, Note_on_c, 1, 54, 127
1, 165325, Note_on_c, 1, 66, 127
1, 165492, Note_off_c, 1, 70, 0
1, 165492, Note_off_c, 1, 54, 0
1, 165498, Note_on_c, 1, 53, 127
1, 165671, Note_on_c, 1, 73, 127
1, 165838, Note_off_c, 1, 53, 0
1, 165838, Note_off_c, 1, 73, 0
1, 165844, Note_on_c, 1, 51, 127
1, 165844, Note_on_c, 1, 78, 127
1, 166011, Note_off_c, 1, 66, 0
1, 166017, Note_on_c, 1, 71, 127
1, 166184, Note_off_c, 1, 51, 0
1, 166184, Note_off_c, 1, 71, 0
1, 166364, Note_on_c, 1, 75, 127
1, 166531, Note_off_c, 1, 75, 0
1, 166537, Note_on_c, 1, 48, 127
1, 166537, Note_on_c, 1, 68, 127
1, 166703, Note_off_c, 1, 78, 0
1, 166877, Note_off_c, 1, 48, 0
1, 166883, Note_on_c, 1, 72, 127
1, 166883, Note_on_c, 1, 56, 127
1, 167042, Note_off_c, 1, 68, 0
1, 167052, Note_off_c, 1, 72, 0
1, 167225, Note_off_c, 1, 56, 0
1, 167231, Note_on_c, 1, 75, 127
1, 167231, Note_on_c, 1, 60, 127
1, 167398, Note_off_c, 1, 75, 0
1, 167404, Note_on_c, 1, 77, 127
1, 167571, Note_off_c, 1, 60, 0
1, 167571, Note_off_c, 1, 77, 0
1, 167578, Note_on_c, 1, 78, 127
1, 167578, Note_on_c, 1, 56, 127
1, 167687, Note_off_c, 1, 78, 0
1, 167693, Note_on_c, 1, 77, 127
1, 167802, Note_off_c, 1, 77, 0
1, 167808, Note_on_c, 1, 75, 127
1, 167917, Note_off_c, 1, 75, 0
1, 167918, Note_off_c, 1, 56, 0
1, 167924, Note_on_c, 1, 77, 127
1, 167924, Note_on_c, 1, 61, 127
1, 168091, Note_off_c, 1, 77, 0
1, 168097, Note_on_c, 1, 78, 127
1, 168097, Note_on_c, 1, 60, 127
1, 168264, Note_off_c, 1, 78, 0
1, 168264, Note_off_c, 1, 60, 0
1, 168266, Note_off_c, 1, 61, 0
1, 168270, Note_on_c, 1, 77, 127
1, 168270, Note_on_c, 1, 61, 127
1, 168437, Note_off_c, 1, 77, 0
1, 168437, Note_off_c, 1, 61, 0
1, 168443, Note_on_c, 1, 75, 127
1, 168443, Note_on_c, 1, 63, 127
1, 168610, Note_off_c, 1, 75, 0
1, 168610, Note_off_c, 1, 63, 0
1, 168616, Note_on_c, 1, 73, 127
1, 168616, Note_on_c, 1, 65, 127
1, 168616, Note_on_c, 1, 58, 127
1, 168783, Note_off_c, 1, 73, 0
1, 168783, Note_off_c, 1, 65, 0
1, 168789, Note_on_c, 1, 72, 127
1, 168789, Note_on_c, 1, 67, 127
1, 168956, Note_off_c, 1, 72, 0
1, 168956, Note_off_c, 1, 67, 0
1, 168963, Note_on_c, 1, 70, 127
1, 168963, Note_on_c, 1, 68, 127
1, 169064, Note_off_c, 1, 70, 0
1, 169121, Note_off_c, 1, 58, 0
1, 169171, Note_off_c, 1, 68, 0
1, 169178, Note_on_c, 1, 73, 127
1, 169178, Note_on_c, 1, 67, 127
1, 169305, Note_off_c, 1, 73, 0
1, 169305, Note_off_c, 1, 67, 0
1, 169311, Note_on_c, 1, 72, 127
1, 169311, Note_on_c, 1, 68, 127
1, 169484, Note_on_c, 1, 56, 127
1, 169651, Note_off_c, 1, 72, 0
1, 169651, Note_off_c, 1, 56, 0
1, 169657, Note_on_c, 1, 58, 127
1, 169657, Note_on_c, 1, 80, 127
1, 169816, Note_off_c, 1, 68, 0
1, 169826, Note_off_c, 1, 58, 0
1, 169832, Note_on_c, 1, 60, 127
1, 169999, Note_off_c, 1, 80, 0
1, 169999, Note_off_c, 1, 60, 0
1, 170005, Note_on_c, 1, 77, 127
1, 170005, Note_on_c, 1, 61, 127
1, 170178, Note_on_c, 1, 63, 127
1, 170345, Note_off_c, 1, 77, 0
1, 170345, Note_off_c, 1, 63, 0
1, 170347, Note_off_c, 1, 61, 0
1, 170352, Note_on_c, 1, 65, 127
1, 170352, Note_on_c, 1, 80, 127
1, 170519, Note_off_c, 1, 65, 0
1, 170525, Note_on_c, 1, 61, 127
1, 170692, Note_off_c, 1, 80, 0
1, 170692, Note_off_c, 1, 61, 0
1, 170698, Note_on_c, 1, 73, 127
1, 170698, Note_on_c, 1, 58, 127
1, 170698, Note_on_c, 1, 65, 127
1, 170865, Note_off_c, 1, 73, 0
1, 170871, Note_on_c, 1, 77, 127
1, 171038, Note_off_c, 1, 58, 0
1, 171038, Note_off_c, 1, 77, 0
1, 171044, Note_on_c, 1, 78, 127
1, 171203, Note_off_c, 1, 65, 0
1, 171213, Note_off_c, 1, 78, 0
1, 171219, Note_on_c, 1, 80, 127
1, 171386, Note_off_c, 1, 80, 0
1, 171392, Note_on_c, 1, 82, 127
1, 171392, Note_on_c, 1, 61, 127
1, 171559, Note_off_c, 1, 82, 0
1, 171566, Note_on_c, 1, 84, 127
1, 171733, Note_off_c, 1, 84, 0
1, 171739, Note_on_c, 1, 85, 127
1, 171739, Note_on_c, 1, 58, 127
1, 171897, Note_off_c, 1, 61, 0
1, 171908, Note_off_c, 1, 85, 0
1, 172081, Note_off_c, 1, 58, 0
1, 172087, Note_on_c, 1, 78, 127
1, 172087, Note_on_c, 1, 63, 127
1, 172087, Note_on_c, 1, 66, 127
1, 172254, Note_off_c, 1, 78, 0
1, 172260, Note_on_c, 1, 80, 127
1, 172427, Note_off_c, 1, 63, 0
1, 172427, Note_off_c, 1, 80, 0
1, 172429, Note_off_c, 1, 66, 0
1, 172433, Note_on_c, 1, 78, 127
1, 172433, Note_on_c, 1, 51, 127
1, 172600, Note_off_c, 1, 78, 0
1, 172606, Note_on_c, 1, 77, 127
1, 172773, Note_off_c, 1, 51, 0
1, 172773, Note_off_c, 1, 77, 0
1, 172779, Note_on_c, 1, 75, 127
1, 172779, Note_on_c, 1, 48, 127
1, 172946, Note_off_c, 1, 75, 0
1, 172953, Note_on_c, 1, 73, 127
1, 173119, Note_off_c, 1, 48, 0
1, 173120, Note_off_c, 1, 73, 0
1, 173126, Note_on_c, 1, 72, 127
1, 173126, Note_on_c, 1, 51, 127
1, 173126, Note_on_c, 1, 66, 127
1, 173235, Note_off_c, 1, 72, 0
1, 173241, Note_on_c, 1, 73, 127
1, 173350, Note_off_c, 1, 73, 0
1, 173357, Note_on_c, 1, 75, 127
1, 173466, Note_off_c, 1, 51, 0
1, 173466, Note_off_c, 1, 75, 0
1, 173472, Note_on_c, 1, 68, 127
1, 173472, Note_on_c, 1, 53, 127
1, 173639, Note_off_c, 1, 66, 0
1, 173645, Note_on_c, 1, 70, 127
1, 173812, Note_off_c, 1, 68, 0
1, 173812, Note_off_c, 1, 53, 0
1, 173812, Note_off_c, 1, 70, 0
1, 173818, Note_on_c, 1, 41, 127
1, 173818, Note_on_c, 1, 68, 127
1, 173991, Note_on_c, 1, 66, 127
1, 174158, Note_off_c, 1, 41, 0
1, 174158, Note_off_c, 1, 66, 0
1, 174164, Note_on_c, 1, 65, 127
1, 174164, Note_on_c, 1, 37, 127
1, 174331, Note_off_c, 1, 65, 0
1, 174338, Note_on_c, 1, 63, 127
1, 174504, Note_off_c, 1, 37, 0
1, 174505, Note_off_c, 1, 63, 0
1, 174511, Note_on_c, 1, 61, 127
1, 174620, Note_off_c, 1, 61, 0
1, 174857, Note_on_c, 1, 58, 127
1, 174857, Note_on_c, 1, 42, 127
1, 175023, Note_off_c, 1, 68, 0
1, 175362, Note_off_c, 1, 58, 0
1, 175545, Note_off_c, 1, 42, 0
1, 175551, Note_on_c, 1, 66, 127
1, 175551, Note_on_c, 1, 51, 127
1, 175718, Note_off_c, 1, 66, 0
1, 175725, Note_on_c, 1, 68, 127
1, 175892, Note_off_c, 1, 68, 0
1, 175898, Note_on_c, 1, 70, 127
1, 175898, Note_on_c, 1, 63, 127
1, 176065, Note_off_c, 1, 70, 0
1, 176237, Note_off_c, 1, 51, 0
1, 176238, Note_off_c, 1, 63, 0
1, 176244, Note_on_c, 1, 63, 127
1, 176244, Note_on_c, 1, 58, 127
1, 176244, Note_on_c, 1, 54, 127
1, 176411, Note_off_c, 1, 63, 0
1, 176417, Note_on_c, 1, 65, 127
1, 176584, Note_off_c, 1, 58, 0
1, 176584, Note_off_c, 1, 65, 0
1, 176590, Note_on_c, 1, 66, 127
1, 176757, Note_off_c, 1, 66, 0
1, 176763, Note_on_c, 1, 68, 127
1, 176930, Note_off_c, 1, 54, 0
1, 176930, Note_off_c, 1, 68, 0
1, 176937, Note_on_c, 1, 70, 127
1, 176937, Note_on_c, 1, 54, 127
1, 176937, Note_on_c, 1, 51, 127
1, 177104, Note_off_c, 1, 70, 0
1, 177110, Note_on_c, 1, 72, 127
1, 177277, Note_off_c, 1, 54, 0
1, 177277, Note_off_c, 1, 72, 0
1, 177283, Note_on_c, 1, 73, 127
1, 177283, Note_on_c, 1, 66, 127
1, 177392, Note_off_c, 1, 73, 0
1, 177623, Note_off_c, 1, 51, 0
1, 177629, Note_on_c, 1, 56, 127
1, 177796, Note_off_c, 1, 66, 0
1, 177802, Note_on_c, 1, 68, 127
1, 177969, Note_off_c, 1, 68, 0
1, 177975, Note_on_c, 1, 75, 127
1, 178142, Note_off_c, 1, 75, 0
1, 178148, Note_on_c, 1, 64, 127
1, 178315, Note_off_c, 1, 64, 0
1, 178322, Note_on_c, 1, 63, 127
1, 178489, Note_off_c, 1, 63, 0
1, 178495, Note_on_c, 1, 61, 127
1, 178662, Note_off_c, 1, 61, 0
1, 178668, Note_on_c, 1, 60, 127
1, 178777, Note_off_c, 1, 60, 0
1, 179707, Note_on_c, 1, 76, 127
1, 179880, Note_on_c, 1, 59, 127
1, 180047, Note_off_c, 1, 76, 0
1, 180047, Note_off_c, 1, 59, 0
1, 180053, Note_on_c, 1, 58, 127
1, 180162, Note_off_c, 1, 58, 0
1, 180399, Note_on_c, 1, 78, 127
1, 180566, Note_off_c, 1, 78, 0
1, 180572, Note_on_c, 1, 81, 127
1, 180739, Note_off_c, 1, 81, 0
1, 180745, Note_on_c, 1, 80, 127
1, 180912, Note_off_c, 1, 80, 0
1, 181784, Note_on_c, 1, 67, 127
1, 181951, Note_off_c, 1, 67, 0
1, 182304, Note_on_c, 1, 71, 127
1, 182471, Note_off_c, 1, 71, 0
1, 183336, Note_off_c, 1, 56, 0
1, 183864, Note_on_c, 1, 53, 127
1, 183864, Note_on_c, 1, 80, 127
1, 184031, Note_off_c, 1, 53, 0
1, 184037, Note_on_c, 1, 51, 127
1, 184204, Note_off_c, 1, 51, 0
1, 184210, Note_on_c, 1, 50, 127
1, 184210, Note_on_c, 1, 77, 127
1, 184319, Note_off_c, 1, 50, 0
1, 184550, Note_off_c, 1, 77, 0
1, 184556, Note_on_c, 1, 46, 127
1, 184556, Note_on_c, 1, 74, 127
1, 184723, Note_off_c, 1, 46, 0
1, 184729, Note_on_c, 1, 58, 127
1, 184896, Note_off_c, 1, 74, 0
1, 184896, Note_off_c, 1, 58, 0
1, 184903, Note_on_c, 1, 60, 127
1, 185070, Note_off_c, 1, 60, 0
1, 185076, Note_on_c, 1, 62, 127
1, 185243, Note_off_c, 1, 80, 0
1, 185243, Note_off_c, 1, 62, 0
1, 185249, Note_on_c, 1, 63, 127
1, 185249, Note_on_c, 1, 70, 127
1, 185249, Note_on_c, 1, 78, 127
1, 185416, Note_off_c, 1, 63, 0
1, 185422, Note_on_c, 1, 65, 127
1, 185589, Note_off_c, 1, 70, 0
1, 185589, Note_off_c, 1, 65, 0
1, 185595, Note_on_c, 1, 66, 127
1, 185595, Note_on_c, 1, 75, 127
1, 185704, Note_off_c, 1, 66, 0
1, 185935, Note_off_c, 1, 75, 0
1, 185941, Note_on_c, 1, 68, 127
1, 185941, Note_on_c, 1, 72, 127
1, 186108, Note_off_c, 1, 68, 0
1, 186281, Note_off_c, 1, 72, 0
1, 186628, Note_off_c, 1, 78, 0
1, 186634, Note_on_c, 1, 61, 127
1, 186634, Note_on_c, 1, 68, 127
1, 186634, Note_on_c, 1, 77, 127
1, 186801, Note_off_c, 1, 61, 0
1, 186807, Note_on_c, 1, 59, 127
1, 186974, Note_off_c, 1, 68, 0
1, 186974, Note_off_c, 1, 59, 0
1, 186980, Note_on_c, 1, 58, 127
1, 186980, Note_on_c, 1, 73, 127
1, 187089, Note_off_c, 1, 58, 0
1, 187320, Note_off_c, 1, 73, 0
1, 187326, Note_on_c, 1, 70, 127
1, 187326, Note_on_c, 1, 54, 127
1, 187493, Note_off_c, 1, 70, 0
1, 187666, Note_off_c, 1, 54, 0
1, 187673, Note_on_c, 1, 39, 127
1, 187673, Note_on_c, 1, 66, 127
1, 187754, Note_off_c, 1, 77, 0
1, 187760, Note_on_c, 1, 75, 127
1, 187841, Note_off_c, 1, 75, 0
1, 187935, Note_on_c, 1, 71, 127
1, 188016, Note_off_c, 1, 71, 0
1, 188017, Note_off_c, 1, 39, 0
1, 188019, Note_off_c, 1, 66, 0
1, 188023, Note_on_c, 1, 70, 127
1, 188023, Note_on_c, 1, 42, 127
1, 188104, Note_off_c, 1, 70, 0
1, 188110, Note_on_c, 1, 68, 127
1, 188191, Note_off_c, 1, 68, 0
1, 188198, Note_on_c, 1, 66, 127
1, 188279, Note_off_c, 1, 66, 0
1, 188286, Note_on_c, 1, 65, 127
1, 188367, Note_off_c, 1, 42, 0
1, 188367, Note_off_c, 1, 65, 0
1, 188373, Note_on_c, 1, 39, 127
1, 188373, Note_on_c, 1, 66, 127
1, 188461, Note_on_c, 1, 65, 127
1, 188542, Note_off_c, 1, 65, 0
1, 188548, Note_on_c, 1, 63, 127
1, 188629, Note_off_c, 1, 63, 0
1, 188636, Note_on_c, 1, 61, 127
1, 188717, Note_off_c, 1, 39, 0
1, 188717, Note_off_c, 1, 61, 0
1, 188723, Note_on_c, 1, 60, 127
1, 188723, Note_on_c, 1, 44, 127
1, 188890, Note_off_c, 1, 60, 0
1, 189070, Note_on_c, 1, 56, 127
1, 189157, Note_on_c, 1, 54, 127
1, 189238, Note_off_c, 1, 54, 0
1, 189245, Note_on_c, 1, 53, 127
1, 189326, Note_off_c, 1, 53, 0
1, 189332, Note_on_c, 1, 51, 127
1, 189413, Note_off_c, 1, 51, 0
1, 189595, Note_on_c, 1, 49, 127
1, 189676, Note_off_c, 1, 49, 0
1, 189682, Note_on_c, 1, 48, 127
1, 189763, Note_off_c, 1, 48, 0
1, 189767, Note_off_c, 1, 66, 0
1, 189851, Note_off_c, 1, 44, 0
1, 189858, Note_on_c, 1, 46, 127
1, 189939, Note_off_c, 1, 46, 0
1, 190033, Note_on_c, 1, 43, 127
1, 190114, Note_off_c, 1, 43, 0
1, 190118, Note_off_c, 1, 56, 0
1, 190471, Note_on_c, 1, 55, 127
1, 190731, Note_on_c, 1, 58, 127
1, 190812, Note_off_c, 1, 58, 0
1, 190813, Note_off_c, 1, 55, 0
1, 191864, Note_on_c, 1, 52, 127
1, 192204, Note_off_c, 1, 52, 0
1, 192902, Note_on_c, 1, 37, 127
1, 193977, Note_on_c, 1, 59, 127
1, 194150, Note_off_c, 1, 59, 0
1, 198391, Note_on_c, 1, 70, 127
1, 198609, Note_off_c, 1, 70, 0
1, 198618, Note_on_c, 1, 68, 127
1, 198836, Note_off_c, 1, 68, 0
1, 202368, Note_off_c, 1, 37, 0
1, 202368, End_track
0, 0, End_of_file