0, 0, Header, 1, 1, 480
1, 0, Start_track
1, 0, Title_t, "Test"
1, 0, Tempo, 500000
1, 0, Instrument_name_t, "Church Organ"
1, 60, Note_on_c, 1, 60, 127
1, 108, Note_off_c, 1, 60, 0
1, 120, Note_on_c, 1, 62, 127
1, 168, Note_off_c, 1, 62, 0
1, 180, Note_on_c, 1, 64, 127
1, 228, Note_off_c, 1, 64, 0
1, 240, Note_on_c, 1, 65, 127
1, 288, Note_off_c, 1, 65, 0
1, 300, Note_on_c, 1, 67, 127
1, 348, Note_off_c, 1, 67, 0
1, 360, Note_on_c, 1, 69, 127
1, 408, Note_off_c, 1, 69, 0
1, 420, Note_on_c, 1, 65, 127
1, 468, Note_off_c, 1, 65, 0
1, 480, Note_on_c, 1, 70, 127
1, 528, Note_off_c, 1, 70, 0
1, 540, Note_on_c, 1, 72, 127
1, 588, Note_off_c, 1, 72, 0
1, 600, Note_on_c, 1, 70, 127
1, 648, Note_off_c, 1, 70, 0
1, 660, Note_on_c, 1, 69, 127
1, 708, Note_off_c, 1, 69, 0
1, 720, Note_on_c, 1, 67, 127
1, 768, Note_off_c, 1, 67, 0
1, 780, Note_on_c, 1, 72, 127
1, 828, Note_off_c, 1, 72, 0
1, 840, Note_on_c, 1, 70, 127
1, 888, Note_off_c, 1, 70, 0
1, 900, Note_on_c, 1, 72, 127
1, 948, Note_off_c, 1, 72, 0
1, 960, Note_on_c, 1, 69, 127
1, 1020, Note_on_c, 1, 48, 127
1, 1056, Note_off_c, 1, 69, 0
1, 1068, Note_off_c, 1, 48, 0
1, 1080, Note_on_c, 1, 65, 127
1, 1080, Note_on_c, 1, 50, 127
1, 1128, Note_off_c, 1, 50, 0
1, 1140, Note_on_c, 1, 52, 127
1, 1176, Note_off_c, 1, 65, 0
1, 1188, Note_off_c, 1, 52, 0
1, 1200, Note_on_c, 1, 77, 127
1, 1200, Note_on_c, 1, 53, 127
1, 1248, Note_off_c, 1, 53, 0
1, 1260, Note_on_c, 1, 55, 127
1, 1308, Note_off_c, 1, 55, 0
1, 1320, Note_on_c, 1, 57, 127
1, 1344, Note_off_c, 1, 77, 0
1, 1368, Note_off_c, 1, 57, 0
1, 1380, Note_on_c, 1, 77, 127
1, 1380, Note_on_c, 1, 53, 127
1, 1428, Note_off_c, 1, 77, 0
1, 1428, Note_off_c, 1, 53, 0
1, 1440, Note_on_c, 1, 77, 127
1, 1440, Note_on_c, 1, 58, 127
1, 1488, Note_off_c, 1, 58, 0
1, 1500, Note_on_c, 1, 60, 127
1, 1548, Note_off_c, 1, 60, 0
1, 1584, Note_off_c, 1, 77, 0
1, 1620, Note_on_c, 1, 79, 127
1, 1620, Note_on_c, 1, 57, 127
1, 1668, Note_off_c, 1, 79, 0
1, 1668, Note_off_c, 1, 57, 0
1, 1680, Note_on_c, 1, 77, 127
1, 1680, Note_on_c, 1, 55, 127
1, 1704, Note_off_c, 1, 77, 0
1, 1710, Note_on_c, 1, 76, 127
1, 1728, Note_off_c, 1, 55, 0
1, 1734, Note_off_c, 1, 76, 0
1, 1740, Note_on_c, 1, 77, 127
1, 1740, Note_on_c, 1, 60, 127
1, 1764, Note_off_c, 1, 77, 0
1, 1770, Note_on_c, 1, 76, 127
1, 1788, Note_off_c, 1, 60, 0
1, 1800, Note_on_c, 1, 58, 127
1, 1848, Note_off_c, 1, 76, 0
1, 1848, Note_off_c, 1, 58, 0
1, 1860, Note_on_c, 1, 77, 127
1, 1860, Note_on_c, 1, 60, 127
1, 1908, Note_off_c, 1, 77, 0
1, 1908, Note_off_c, 1, 60, 0
1, 1920, Note_on_c, 1, 77, 127
1, 1920, Note_on_c, 1, 57, 127
1, 1968, Note_off_c, 1, 77, 0
1, 1980, Note_on_c, 1, 79, 127
1, 2016, Note_off_c, 1, 57, 0
1, 2028, Note_off_c, 1, 79, 0
1, 2040, Note_on_c, 1, 77, 127
1, 2040, Note_on_c, 1, 53, 127
1, 2088, Note_off_c, 1, 77, 0
1, 2100, Note_on_c, 1, 76, 127
1, 2136, Note_off_c, 1, 53, 0
1, 2148, Note_off_c, 1, 76, 0
1, 2160, Note_on_c, 1, 74, 127
1, 2160, Note_on_c, 1, 65, 127
1, 2208, Note_off_c, 1, 74, 0
1, 2220, Note_on_c, 1, 76, 127
1, 2268, Note_off_c, 1, 76, 0
1, 2280, Note_on_c, 1, 77, 127
1, 2304, Note_off_c, 1, 65, 0
1, 2328, Note_off_c, 1, 77, 0
1, 2340, Note_on_c, 1, 81, 127
1, 2340, Note_on_c, 1, 65, 127
1, 2388, Note_off_c, 1, 81, 0
1, 2388, Note_off_c, 1, 65, 0
1, 2400, Note_on_c, 1, 71, 127
1, 2400, Note_on_c, 1, 65, 127
1, 2448, Note_off_c, 1, 71, 0
1, 2460, Note_on_c, 1, 72, 127
1, 2508, Note_off_c, 1, 72, 0
1, 2520, Note_on_c, 1, 74, 127
1, 2544, Note_off_c, 1, 65, 0
1, 2568, Note_off_c, 1, 74, 0
1, 2580, Note_on_c, 1, 79, 127
1, 2580, Note_on_c, 1, 67, 127
1, 2628, Note_off_c, 1, 79, 0
1, 2628, Note_off_c, 1, 67, 0
1, 2640, Note_on_c, 1, 72, 127
1, 2640, Note_on_c, 1, 65, 127
1, 2664, Note_off_c, 1, 65, 0
1, 2670, Note_on_c, 1, 64, 127
1, 2688, Note_off_c, 1, 72, 0
1, 2694, Note_off_c, 1, 64, 0
1, 2700, Note_on_c, 1, 74, 127
1, 2700, Note_on_c, 1, 65, 127
1, 2724, Note_off_c, 1, 65, 0
1, 2730, Note_on_c, 1, 64, 127
1, 2748, Note_off_c, 1, 74, 0
1, 2760, Note_on_c, 1, 76, 127
1, 2808, Note_off_c, 1, 64, 0
1, 2808, Note_off_c, 1, 76, 0
1, 2820, Note_on_c, 1, 79, 127
1, 2820, Note_on_c, 1, 64, 127
1, 2868, Note_off_c, 1, 79, 0
1, 2868, Note_off_c, 1, 64, 0
1, 2880, Note_on_c, 1, 69, 127
1, 2880, Note_on_c, 1, 64, 127
1, 2928, Note_off_c, 1, 69, 0
1, 2940, Note_on_c, 1, 71, 127
1, 2976, Note_off_c, 1, 64, 0
1, 2988, Note_off_c, 1, 71, 0
1, 3000, Note_on_c, 1, 72, 127
1, 3000, Note_on_c, 1, 57, 127
1, 3048, Note_off_c, 1, 72, 0
1, 3060, Note_on_c, 1, 77, 127
1, 3096, Note_off_c, 1, 57, 0
1, 3108, Note_off_c, 1, 77, 0
1, 3120, Note_on_c, 1, 71, 127
1, 3120, Note_on_c, 1, 62, 127
1, 3168, Note_off_c, 1, 71, 0
1, 3180, Note_on_c, 1, 72, 127
1, 3228, Note_off_c, 1, 72, 0
1, 3240, Note_on_c, 1, 74, 127
1, 3264, Note_off_c, 1, 62, 0
1, 3288, Note_off_c, 1, 74, 0
1, 3300, Note_on_c, 1, 77, 127
1, 3300, Note_on_c, 1, 62, 127
1, 3348, Note_off_c, 1, 77, 0
1, 3348, Note_off_c, 1, 62, 0
1, 3360, Note_on_c, 1, 67, 127
1, 3360, Note_on_c, 1, 62, 127
1, 3408, Note_off_c, 1, 67, 0
1, 3420, Note_on_c, 1, 69, 127
1, 3468, Note_off_c, 1, 69, 0
1, 3480, Note_on_c, 1, 71, 127
1, 3504, Note_off_c, 1, 62, 0
1, 3528, Note_off_c, 1, 71, 0
1, 3540, Note_on_c, 1, 76, 127
1, 3540, Note_on_c, 1, 64, 127
1, 3588, Note_off_c, 1, 76, 0
1, 3588, Note_off_c, 1, 64, 0
1, 3600, Note_on_c, 1, 69, 127
1, 3600, Note_on_c, 1, 62, 127
1, 3624, Note_off_c, 1, 62, 0
1, 3630, Note_on_c, 1, 60, 127
1, 3648, Note_off_c, 1, 69, 0
1, 3654, Note_off_c, 1, 60, 0
1, 3660, Note_on_c, 1, 71, 127
1, 3660, Note_on_c, 1, 62, 127
1, 3684, Note_off_c, 1, 62, 0
1, 3690, Note_on_c, 1, 60, 127
1, 3708, Note_off_c, 1, 71, 0
1, 3720, Note_on_c, 1, 72, 127
1, 3768, Note_off_c, 1, 60, 0
1, 3768, Note_off_c, 1, 72, 0
1, 3780, Note_on_c, 1, 76, 127
1, 3780, Note_on_c, 1, 60, 127
1, 3828, Note_off_c, 1, 76, 0
1, 3840, Note_on_c, 1, 65, 127
1, 3888, Note_off_c, 1, 60, 0
1, 3900, Note_on_c, 1, 64, 127
1, 3936, Note_off_c, 1, 65, 0
1, 3948, Note_off_c, 1, 64, 0
1, 3960, Note_on_c, 1, 69, 127
1, 3960, Note_on_c, 1, 62, 127
1, 4008, Note_off_c, 1, 62, 0
1, 4020, Note_on_c, 1, 60, 127
1, 4056, Note_off_c, 1, 69, 0
1, 4068, Note_off_c, 1, 60, 0
1, 4080, Note_on_c, 1, 74, 127
1, 4080, Note_on_c, 1, 59, 127
1, 4128, Note_off_c, 1, 59, 0
1, 4140, Note_on_c, 1, 57, 127
1, 4188, Note_off_c, 1, 57, 0
1, 4200, Note_on_c, 1, 55, 127
1, 4224, Note_off_c, 1, 74, 0
1, 4248, Note_off_c, 1, 55, 0
1, 4260, Note_on_c, 1, 74, 127
1, 4260, Note_on_c, 1, 53, 127
1, 4308, Note_off_c, 1, 74, 0
1, 4308, Note_off_c, 1, 53, 0
1, 4320, Note_on_c, 1, 74, 127
1, 4320, Note_on_c, 1, 52, 127
1, 4368, Note_off_c, 1, 74, 0
1, 4380, Note_on_c, 1, 67, 127
1, 4428, Note_off_c, 1, 67, 0
1, 4440, Note_on_c, 1, 69, 127
1, 4488, Note_off_c, 1, 69, 0
1, 4500, Note_on_c, 1, 71, 127
1, 4548, Note_off_c, 1, 71, 0
1, 4560, Note_on_c, 1, 72, 127
1, 4608, Note_off_c, 1, 52, 0
1, 4608, Note_off_c, 1, 72, 0
1, 4620, Note_on_c, 1, 74, 127
1, 4620, Note_on_c, 1, 50, 127
1, 4668, Note_off_c, 1, 74, 0
1, 4668, Note_off_c, 1, 50, 0
1, 4680, Note_on_c, 1, 76, 127
1, 4680, Note_on_c, 1, 48, 127
1, 4728, Note_off_c, 1, 76, 0
1, 4728, Note_off_c, 1, 48, 0
1, 4740, Note_on_c, 1, 72, 127
1, 4740, Note_on_c, 1, 47, 127
1, 4788, Note_off_c, 1, 72, 0
1, 4788, Note_off_c, 1, 47, 0
1, 4800, Note_on_c, 1, 77, 127
1, 4800, Note_on_c, 1, 45, 127
1, 4848, Note_off_c, 1, 77, 0
1, 4848, Note_off_c, 1, 45, 0
1, 4860, Note_on_c, 1, 79, 127
1, 4860, Note_on_c, 1, 43, 127
1, 4908, Note_off_c, 1, 79, 0
1, 4908, Note_off_c, 1, 43, 0
1, 4920, Note_on_c, 1, 77, 127
1, 4920, Note_on_c, 1, 45, 127
1, 4968, Note_off_c, 1, 77, 0
1, 4968, Note_off_c, 1, 45, 0
1, 4980, Note_on_c, 1, 76, 127
1, 4980, Note_on_c, 1, 41, 127
1, 5028, Note_off_c, 1, 76, 0
1, 5028, Note_off_c, 1, 41, 0
1, 5040, Note_on_c, 1, 74, 127
1, 5040, Note_on_c, 1, 43, 127
1, 5088, Note_off_c, 1, 74, 0
1, 5100, Note_on_c, 1, 79, 127
1, 5136, Note_off_c, 1, 43, 0
1, 5148, Note_off_c, 1, 79, 0
1, 5160, Note_on_c, 1, 77, 127
1, 5160, Note_on_c, 1, 55, 127
1, 5208, Note_off_c, 1, 77, 0
1, 5220, Note_on_c, 1, 79, 127
1, 5256, Note_off_c, 1, 55, 0
1, 5268, Note_off_c, 1, 79, 0
1, 5280, Note_on_c, 1, 76, 127
1, 5280, Note_on_c, 1, 48, 127
1, 5328, Note_off_c, 1, 48, 0
1, 5340, Note_on_c, 1, 55, 127
1, 5376, Note_off_c, 1, 76, 0
1, 5388, Note_off_c, 1, 55, 0
1, 5400, Note_on_c, 1, 72, 127
1, 5400, Note_on_c, 1, 57, 127
1, 5448, Note_off_c, 1, 57, 0
1, 5460, Note_on_c, 1, 59, 127
1, 5496, Note_off_c, 1, 72, 0
1, 5508, Note_off_c, 1, 59, 0
1, 5520, Note_on_c, 1, 84, 127
1, 5520, Note_on_c, 1, 60, 127
1, 5568, Note_off_c, 1, 60, 0
1, 5580, Note_on_c, 1, 62, 127
1, 5628, Note_off_c, 1, 62, 0
1, 5640, Note_on_c, 1, 64, 127
1, 5664, Note_off_c, 1, 84, 0
1, 5688, Note_off_c, 1, 64, 0
1, 5700, Note_on_c, 1, 84, 127
1, 5700, Note_on_c, 1, 60, 127
1, 5748, Note_off_c, 1, 84, 0
1, 5748, Note_off_c, 1, 60, 0
1, 5760, Note_on_c, 1, 84, 127
1, 5760, Note_on_c, 1, 65, 127
1, 5808, Note_off_c, 1, 65, 0
1, 5820, Note_on_c, 1, 67, 127
1, 5868, Note_off_c, 1, 67, 0
1, 5904, Note_off_c, 1, 84, 0
1, 5910, Note_on_c, 1, 83, 127
1, 5934, Note_off_c, 1, 83, 0
1, 5940, Note_on_c, 1, 84, 127
1, 5940, Note_on_c, 1, 64, 127
1, 5964, Note_off_c, 1, 84, 0
1, 5970, Note_on_c, 1, 81, 127
1, 5988, Note_off_c, 1, 64, 0
1, 5994, Note_off_c, 1, 81, 0
1, 6000, Note_on_c, 1, 83, 127
1, 6000, Note_on_c, 1, 62, 127
1, 6048, Note_off_c, 1, 62, 0
1, 6060, Note_on_c, 1, 67, 127
1, 6108, Note_off_c, 1, 67, 0
1, 6120, Note_on_c, 1, 65, 127
1, 6144, Note_off_c, 1, 83, 0
1, 6168, Note_off_c, 1, 65, 0
1, 6180, Note_on_c, 1, 83, 127
1, 6180, Note_on_c, 1, 67, 127
1, 6228, Note_off_c, 1, 83, 0
1, 6228, Note_off_c, 1, 67, 0
1, 6240, Note_on_c, 1, 83, 127
1, 6240, Note_on_c, 1, 60, 127
1, 6288, Note_off_c, 1, 60, 0
1, 6300, Note_on_c, 1, 62, 127
1, 6336, Note_off_c, 1, 83, 0
1, 6348, Note_off_c, 1, 62, 0
1, 6360, Note_on_c, 1, 76, 127
1, 6360, Note_on_c, 1, 64, 127
1, 6408, Note_off_c, 1, 64, 0
1, 6420, Note_on_c, 1, 67, 127
1, 6456, Note_off_c, 1, 76, 0
1, 6468, Note_off_c, 1, 67, 0
1, 6480, Note_on_c, 1, 81, 127
1, 6480, Note_on_c, 1, 53, 127
1, 6528, Note_off_c, 1, 53, 0
1, 6540, Note_on_c, 1, 55, 127
1, 6588, Note_off_c, 1, 55, 0
1, 6600, Note_on_c, 1, 57, 127
1, 6624, Note_off_c, 1, 81, 0
1, 6648, Note_off_c, 1, 57, 0
1, 6660, Note_on_c, 1, 81, 127
1, 6660, Note_on_c, 1, 60, 127
1, 6708, Note_off_c, 1, 81, 0
1, 6708, Note_off_c, 1, 60, 0
1, 6720, Note_on_c, 1, 81, 127
1, 6720, Note_on_c, 1, 59, 127
1, 6768, Note_off_c, 1, 59, 0
1, 6780, Note_on_c, 1, 60, 127
1, 6828, Note_off_c, 1, 60, 0
1, 6840, Note_on_c, 1, 62, 127
1, 6864, Note_off_c, 1, 81, 0
1, 6888, Note_off_c, 1, 62, 0
1, 6900, Note_on_c, 1, 79, 127
1, 6900, Note_on_c, 1, 65, 127
1, 6924, Note_off_c, 1, 79, 0
1, 6930, Note_on_c, 1, 77, 127
1, 6948, Note_off_c, 1, 65, 0
1, 6954, Note_off_c, 1, 77, 0
1, 6960, Note_on_c, 1, 79, 127
1, 6960, Note_on_c, 1, 52, 127
1, 7008, Note_off_c, 1, 52, 0
1, 7020, Note_on_c, 1, 53, 127
1, 7068, Note_off_c, 1, 53, 0
1, 7080, Note_on_c, 1, 55, 127
1, 7104, Note_off_c, 1, 79, 0
1, 7128, Note_off_c, 1, 55, 0
1, 7140, Note_on_c, 1, 79, 127
1, 7140, Note_on_c, 1, 59, 127
1, 7188, Note_off_c, 1, 79, 0
1, 7188, Note_off_c, 1, 59, 0
1, 7200, Note_on_c, 1, 79, 127
1, 7200, Note_on_c, 1, 57, 127
1, 7248, Note_off_c, 1, 57, 0
1, 7260, Note_on_c, 1, 59, 127
1, 7296, Note_off_c, 1, 79, 0
1, 7308, Note_off_c, 1, 59, 0
1, 7320, Note_on_c, 1, 72, 127
1, 7320, Note_on_c, 1, 60, 127
1, 7368, Note_off_c, 1, 60, 0
1, 7380, Note_on_c, 1, 64, 127
1, 7416, Note_off_c, 1, 72, 0
1, 7428, Note_off_c, 1, 64, 0
1, 7440, Note_on_c, 1, 77, 127
1, 7440, Note_on_c, 1, 50, 127
1, 7488, Note_off_c, 1, 50, 0
1, 7500, Note_on_c, 1, 52, 127
1, 7548, Note_off_c, 1, 52, 0
1, 7560, Note_on_c, 1, 53, 127
1, 7584, Note_off_c, 1, 77, 0
1, 7608, Note_off_c, 1, 53, 0
1, 7620, Note_on_c, 1, 77, 127
1, 7620, Note_on_c, 1, 57, 127
1, 7668, Note_off_c, 1, 77, 0
1, 7668, Note_off_c, 1, 57, 0
1, 7680, Note_on_c, 1, 77, 127
1, 7680, Note_on_c, 1, 55, 127
1, 7728, Note_off_c, 1, 77, 0
1, 7740, Note_on_c, 1, 81, 127
1, 7776, Note_off_c, 1, 55, 0
1, 7788, Note_off_c, 1, 81, 0
1, 7800, Note_on_c, 1, 79, 127
1, 7800, Note_on_c, 1, 48, 127
1, 7848, Note_off_c, 1, 79, 0
1, 7860, Note_on_c, 1, 77, 127
1, 7896, Note_off_c, 1, 48, 0
1, 7908, Note_off_c, 1, 77, 0
1, 7920, Note_on_c, 1, 76, 127
1, 7920, Note_on_c, 1, 60, 127
1, 7968, Note_off_c, 1, 76, 0
1, 7980, Note_on_c, 1, 77, 127
1, 8028, Note_off_c, 1, 77, 0
1, 8040, Note_on_c, 1, 79, 127
1, 8064, Note_off_c, 1, 60, 0
1, 8088, Note_off_c, 1, 79, 0
1, 8100, Note_on_c, 1, 76, 127
1, 8100, Note_on_c, 1, 60, 127
1, 8148, Note_off_c, 1, 76, 0
1, 8148, Note_off_c, 1, 60, 0
1, 8160, Note_on_c, 1, 77, 127
1, 8160, Note_on_c, 1, 60, 127
1, 8208, Note_off_c, 1, 77, 0
1, 8220, Note_on_c, 1, 79, 127
1, 8268, Note_off_c, 1, 79, 0
1, 8304, Note_off_c, 1, 60, 0
1, 8340, Note_on_c, 1, 76, 127
1, 8340, Note_on_c, 1, 62, 127
1, 8388, Note_off_c, 1, 76, 0
1, 8388, Note_off_c, 1, 62, 0
1, 8400, Note_on_c, 1, 74, 127
1, 8400, Note_on_c, 1, 60, 127
1, 8424, Note_off_c, 1, 60, 0
1, 8430, Note_on_c, 1, 58, 127
1, 8448, Note_off_c, 1, 74, 0
1, 8454, Note_off_c, 1, 58, 0
1, 8460, Note_on_c, 1, 79, 127
1, 8460, Note_on_c, 1, 60, 127
1, 8484, Note_off_c, 1, 60, 0
1, 8490, Note_on_c, 1, 58, 127
1, 8508, Note_off_c, 1, 79, 0
1, 8520, Note_on_c, 1, 77, 127
1, 8568, Note_off_c, 1, 58, 0
1, 8568, Note_off_c, 1, 77, 0
1, 8580, Note_on_c, 1, 79, 127
1, 8580, Note_on_c, 1, 58, 127
1, 8628, Note_off_c, 1, 79, 0
1, 8628, Note_off_c, 1, 58, 0
1, 8640, Note_on_c, 1, 76, 127
1, 8640, Note_on_c, 1, 58, 127
1, 8688, Note_off_c, 1, 76, 0
1, 8700, Note_on_c, 1, 72, 127
1, 8736, Note_off_c, 1, 58, 0
1, 8748, Note_off_c, 1, 72, 0
1, 8760, Note_on_c, 1, 74, 127
1, 8760, Note_on_c, 1, 60, 127
1, 8808, Note_off_c, 1, 74, 0
1, 8808, Note_off_c, 1, 60, 0
1, 8820, Note_on_c, 1, 76, 127
1, 8820, Note_on_c, 1, 58, 127
1, 8868, Note_off_c, 1, 76, 0
1, 8868, Note_off_c, 1, 58, 0
1, 8880, Note_on_c, 1, 77, 127
1, 8880, Note_on_c, 1, 57, 127
1, 8928, Note_off_c, 1, 77, 0
1, 8928, Note_off_c, 1, 57, 0
1, 8940, Note_on_c, 1, 79, 127
1, 8940, Note_on_c, 1, 55, 127
1, 8988, Note_off_c, 1, 79, 0
1, 8988, Note_off_c, 1, 55, 0
1, 9000, Note_on_c, 1, 81, 127
1, 9000, Note_on_c, 1, 53, 127
1, 9048, Note_off_c, 1, 81, 0
1, 9048, Note_off_c, 1, 53, 0
1, 9060, Note_on_c, 1, 77, 127
1, 9060, Note_on_c, 1, 52, 127
1, 9108, Note_off_c, 1, 77, 0
1, 9108, Note_off_c, 1, 52, 0
1, 9120, Note_on_c, 1, 82, 127
1, 9120, Note_on_c, 1, 50, 127
1, 9168, Note_off_c, 1, 82, 0
1, 9168, Note_off_c, 1, 50, 0
1, 9180, Note_on_c, 1, 84, 127
1, 9180, Note_on_c, 1, 48, 127
1, 9228, Note_off_c, 1, 84, 0
1, 9228, Note_off_c, 1, 48, 0
1, 9240, Note_on_c, 1, 82, 127
1, 9240, Note_on_c, 1, 50, 127
1, 9288, Note_off_c, 1, 82, 0
1, 9288, Note_off_c, 1, 50, 0
1, 9300, Note_on_c, 1, 81, 127
1, 9300, Note_on_c, 1, 46, 127
1, 9348, Note_off_c, 1, 81, 0
1, 9348, Note_off_c, 1, 46, 0
1, 9360, Note_on_c, 1, 79, 127
1, 9360, Note_on_c, 1, 48, 127
1, 9408, Note_off_c, 1, 79, 0
1, 9420, Note_on_c, 1, 84, 127
1, 9456, Note_off_c, 1, 48, 0
1, 9468, Note_off_c, 1, 84, 0
1, 9480, Note_on_c, 1, 82, 127
1, 9480, Note_on_c, 1, 36, 127
1, 9528, Note_off_c, 1, 82, 0
1, 9540, Note_on_c, 1, 84, 127
1, 9576, Note_off_c, 1, 36, 0
1, 9588, Note_off_c, 1, 84, 0
1, 9600, Note_on_c, 1, 81, 127
1, 9600, Note_on_c, 1, 41, 127
1, 9648, Note_off_c, 1, 81, 0
1, 9660, Note_on_c, 1, 82, 127
1, 9708, Note_off_c, 1, 82, 0
1, 9780, Note_on_c, 1, 79, 127
1, 9792, Note_off_c, 1, 41, 0
1, 9828, Note_off_c, 1, 79, 0
1, 9840, Note_on_c, 1, 77, 127
1, 9888, Note_off_c, 1, 77, 0
1, 9900, Note_on_c, 1, 76, 127
1, 9948, Note_off_c, 1, 76, 0
1, 9960, Note_on_c, 1, 74, 127
1, 9960, Note_on_c, 1, 53, 127
1, 10008, Note_off_c, 1, 74, 0
1, 10020, Note_on_c, 1, 72, 127
1, 10056, Note_off_c, 1, 53, 0
1, 10068, Note_off_c, 1, 72, 0
1, 10080, Note_on_c, 1, 71, 127
1, 10080, Note_on_c, 1, 55, 127
1, 10128, Note_off_c, 1, 71, 0
1, 10128, Note_off_c, 1, 55, 0
1, 10140, Note_on_c, 1, 67, 127
1, 10140, Note_on_c, 1, 60, 127
1, 10188, Note_off_c, 1, 67, 0
1, 10188, Note_off_c, 1, 60, 0
1, 10200, Note_on_c, 1, 69, 127
1, 10200, Note_on_c, 1, 59, 127
1, 10248, Note_off_c, 1, 69, 0
1, 10248, Note_off_c, 1, 59, 0
1, 10260, Note_on_c, 1, 71, 127
1, 10260, Note_on_c, 1, 57, 127
1, 10308, Note_off_c, 1, 71, 0
1, 10308, Note_off_c, 1, 57, 0
1, 10320, Note_on_c, 1, 72, 127
1, 10320, Note_on_c, 1, 55, 127
1, 10368, Note_off_c, 1, 72, 0
1, 10368, Note_off_c, 1, 55, 0
1, 10380, Note_on_c, 1, 74, 127
1, 10380, Note_on_c, 1, 53, 127
1, 10428, Note_off_c, 1, 74, 0
1, 10428, Note_off_c, 1, 53, 0
1, 10440, Note_on_c, 1, 76, 127
1, 10440, Note_on_c, 1, 52, 127
1, 10488, Note_off_c, 1, 76, 0
1, 10488, Note_off_c, 1, 52, 0
1, 10500, Note_on_c, 1, 77, 127
1, 10500, Note_on_c, 1, 50, 127
1, 10548, Note_off_c, 1, 77, 0
1, 10548, Note_off_c, 1, 50, 0
1, 10560, Note_on_c, 1, 79, 127
1, 10560, Note_on_c, 1, 48, 127
1, 10608, Note_off_c, 1, 79, 0
1, 10620, Note_on_c, 1, 81, 127
1, 10636, Note_off_c, 1, 81, 0
1, 10656, Note_off_c, 1, 48, 0
1, 10660, Note_on_c, 1, 77, 127
1, 10676, Note_off_c, 1, 77, 0
1, 10680, Note_on_c, 1, 79, 127
1, 10680, Note_on_c, 1, 53, 127
1, 10728, Note_off_c, 1, 79, 0
1, 10740, Note_on_c, 1, 81, 127
1, 10776, Note_off_c, 1, 53, 0
1, 10788, Note_off_c, 1, 81, 0
1, 10800, Note_on_c, 1, 76, 127
1, 10800, Note_on_c, 1, 55, 127
1, 10824, Note_off_c, 1, 76, 0
1, 10830, Note_on_c, 1, 74, 127
1, 10854, Note_off_c, 1, 74, 0
1, 10896, Note_off_c, 1, 55, 0
1, 10920, Note_on_c, 1, 43, 127
1, 10980, Note_on_c, 1, 72, 127
1, 11016, Note_off_c, 1, 43, 0
1, 11028, Note_off_c, 1, 72, 0
1, 11040, Note_on_c, 1, 72, 127
1, 11040, Note_on_c, 1, 36, 127
1, 11088, Note_off_c, 1, 72, 0
1, 11100, Note_on_c, 1, 67, 127
1, 11148, Note_off_c, 1, 67, 0
1, 11160, Note_on_c, 1, 69, 127
1, 11208, Note_off_c, 1, 69, 0
1, 11220, Note_on_c, 1, 71, 127
1, 11232, Note_off_c, 1, 36, 0
1, 11268, Note_off_c, 1, 71, 0
1, 11280, Note_on_c, 1, 72, 127
1, 11280, Note_on_c, 1, 60, 127
1, 11328, Note_off_c, 1, 72, 0
1, 11340, Note_on_c, 1, 74, 127
1, 11388, Note_off_c, 1, 74, 0
1, 11400, Note_on_c, 1, 76, 127
1, 11424, Note_off_c, 1, 60, 0
1, 11448, Note_off_c, 1, 76, 0
1, 11460, Note_on_c, 1, 72, 127
1, 11460, Note_on_c, 1, 60, 127
1, 11508, Note_off_c, 1, 72, 0
1, 11508, Note_off_c, 1, 60, 0
1, 11520, Note_on_c, 1, 77, 127
1, 11520, Note_on_c, 1, 60, 127
1, 11568, Note_off_c, 1, 77, 0
1, 11580, Note_on_c, 1, 79, 127
1, 11628, Note_off_c, 1, 79, 0
1, 11664, Note_off_c, 1, 60, 0
1, 11700, Note_on_c, 1, 76, 127
1, 11700, Note_on_c, 1, 62, 127
1, 11748, Note_off_c, 1, 76, 0
1, 11748, Note_off_c, 1, 62, 0
1, 11760, Note_on_c, 1, 74, 127
1, 11760, Note_on_c, 1, 60, 127
1, 11784, Note_off_c, 1, 60, 0
1, 11790, Note_on_c, 1, 58, 127
1, 11808, Note_off_c, 1, 74, 0
1, 11814, Note_off_c, 1, 58, 0
1, 11820, Note_on_c, 1, 79, 127
1, 11820, Note_on_c, 1, 60, 127
1, 11844, Note_off_c, 1, 60, 0
1, 11850, Note_on_c, 1, 58, 127
1, 11868, Note_off_c, 1, 79, 0
1, 11880, Note_on_c, 1, 77, 127
1, 11928, Note_off_c, 1, 58, 0
1, 11928, Note_off_c, 1, 77, 0
1, 11940, Note_on_c, 1, 79, 127
1, 11940, Note_on_c, 1, 58, 127
1, 11988, Note_off_c, 1, 79, 0
1, 11988, Note_off_c, 1, 58, 0
1, 12000, Note_on_c, 1, 76, 127
1, 12000, Note_on_c, 1, 58, 127
1, 12048, Note_off_c, 1, 58, 0
1, 12060, Note_on_c, 1, 48, 127
1, 12096, Note_off_c, 1, 76, 0
1, 12108, Note_off_c, 1, 48, 0
1, 12120, Note_on_c, 1, 72, 127
1, 12120, Note_on_c, 1, 50, 127
1, 12168, Note_off_c, 1, 50, 0
1, 12180, Note_on_c, 1, 52, 127
1, 12216, Note_off_c, 1, 72, 0
1, 12228, Note_off_c, 1, 52, 0
1, 12240, Note_on_c, 1, 77, 127
1, 12240, Note_on_c, 1, 53, 127
1, 12264, Note_off_c, 1, 77, 0
1, 12270, Note_on_c, 1, 76, 127
1, 12288, Note_off_c, 1, 53, 0
1, 12294, Note_off_c, 1, 76, 0
1, 12300, Note_on_c, 1, 77, 127
1, 12300, Note_on_c, 1, 55, 127
1, 12348, Note_off_c, 1, 55, 0
1, 12360, Note_on_c, 1, 57, 127
1, 12396, Note_off_c, 1, 77, 0
1, 12408, Note_off_c, 1, 57, 0
1, 12420, Note_on_c, 1, 77, 127
1, 12420, Note_on_c, 1, 53, 127
1, 12468, Note_off_c, 1, 77, 0
1, 12468, Note_off_c, 1, 53, 0
1, 12480, Note_on_c, 1, 77, 127
1, 12480, Note_on_c, 1, 58, 127
1, 12528, Note_off_c, 1, 58, 0
1, 12540, Note_on_c, 1, 60, 127
1, 12588, Note_off_c, 1, 60, 0
1, 12624, Note_off_c, 1, 77, 0
1, 12660, Note_on_c, 1, 79, 127
1, 12660, Note_on_c, 1, 57, 127
1, 12708, Note_off_c, 1, 79, 0
1, 12708, Note_off_c, 1, 57, 0
1, 12720, Note_on_c, 1, 75, 127
1, 12720, Note_on_c, 1, 55, 127
1, 12768, Note_off_c, 1, 55, 0
1, 12780, Note_on_c, 1, 60, 127
1, 12828, Note_off_c, 1, 60, 0
1, 12840, Note_on_c, 1, 58, 127
1, 12864, Note_off_c, 1, 75, 0
1, 12888, Note_off_c, 1, 58, 0
1, 12900, Note_on_c, 1, 75, 127
1, 12900, Note_on_c, 1, 60, 127
1, 12948, Note_off_c, 1, 75, 0
1, 12948, Note_off_c, 1, 60, 0
1, 12960, Note_on_c, 1, 75, 127
1, 12960, Note_on_c, 1, 57, 127
1, 13008, Note_off_c, 1, 75, 0
1, 13020, Note_on_c, 1, 65, 127
1, 13056, Note_off_c, 1, 57, 0
1, 13068, Note_off_c, 1, 65, 0
1, 13080, Note_on_c, 1, 67, 127
1, 13080, Note_on_c, 1, 53, 127
1, 13128, Note_off_c, 1, 67, 0
1, 13140, Note_on_c, 1, 69, 127
1, 13176, Note_off_c, 1, 53, 0
1, 13188, Note_off_c, 1, 69, 0
1, 13200, Note_on_c, 1, 70, 127
1, 13200, Note_on_c, 1, 58, 127
1, 13248, Note_off_c, 1, 70, 0
1, 13260, Note_on_c, 1, 72, 127
1, 13308, Note_off_c, 1, 72, 0
1, 13320, Note_on_c, 1, 74, 127
1, 13344, Note_off_c, 1, 58, 0
1, 13368, Note_off_c, 1, 74, 0
1, 13380, Note_on_c, 1, 70, 127
1, 13380, Note_on_c, 1, 58, 127
1, 13428, Note_off_c, 1, 70, 0
1, 13428, Note_off_c, 1, 58, 0
1, 13440, Note_on_c, 1, 75, 127
1, 13440, Note_on_c, 1, 58, 127
1, 13488, Note_off_c, 1, 75, 0
1, 13500, Note_on_c, 1, 77, 127
1, 13548, Note_off_c, 1, 77, 0
1, 13584, Note_off_c, 1, 58, 0
1, 13620, Note_on_c, 1, 74, 127
1, 13620, Note_on_c, 1, 60, 127
1, 13668, Note_off_c, 1, 74, 0
1, 13668, Note_off_c, 1, 60, 0
1, 13680, Note_on_c, 1, 72, 127
1, 13680, Note_on_c, 1, 58, 127
1, 13704, Note_off_c, 1, 58, 0
1, 13710, Note_on_c, 1, 57, 127
1, 13728, Note_off_c, 1, 72, 0
1, 13734, Note_off_c, 1, 57, 0
1, 13740, Note_on_c, 1, 77, 127
1, 13740, Note_on_c, 1, 58, 127
1, 13764, Note_off_c, 1, 58, 0
1, 13770, Note_on_c, 1, 57, 127
1, 13788, Note_off_c, 1, 77, 0
1, 13800, Note_on_c, 1, 75, 127
1, 13848, Note_off_c, 1, 57, 0
1, 13848, Note_off_c, 1, 75, 0
1, 13860, Note_on_c, 1, 77, 127
1, 13860, Note_on_c, 1, 58, 127
1, 13908, Note_off_c, 1, 77, 0
1, 13908, Note_off_c, 1, 58, 0
1, 13920, Note_on_c, 1, 74, 127
1, 13920, Note_on_c, 1, 58, 127
1, 13968, Note_off_c, 1, 58, 0
1, 13980, Note_on_c, 1, 50, 127
1, 14016, Note_off_c, 1, 74, 0
1, 14028, Note_off_c, 1, 50, 0
1, 14040, Note_on_c, 1, 70, 127
1, 14040, Note_on_c, 1, 52, 127
1, 14088, Note_off_c, 1, 52, 0
1, 14100, Note_on_c, 1, 53, 127
1, 14136, Note_off_c, 1, 70, 0
1, 14148, Note_off_c, 1, 53, 0
1, 14160, Note_on_c, 1, 79, 127
1, 14160, Note_on_c, 1, 74, 127
1, 14160, Note_on_c, 1, 82, 127
1, 14160, Note_on_c, 1, 55, 127
1, 14208, Note_off_c, 1, 55, 0
1, 14220, Note_on_c, 1, 57, 127
1, 14268, Note_off_c, 1, 57, 0
1, 14280, Note_on_c, 1, 58, 127
1, 14304, Note_off_c, 1, 79, 0
1, 14304, Note_off_c, 1, 74, 0
1, 14304, Note_off_c, 1, 82, 0
1, 14328, Note_off_c, 1, 58, 0
1, 14340, Note_on_c, 1, 74, 127
1, 14340, Note_on_c, 1, 82, 127
1, 14340, Note_on_c, 1, 79, 127
1, 14340, Note_on_c, 1, 55, 127
1, 14388, Note_off_c, 1, 74, 0
1, 14388, Note_off_c, 1, 82, 0
1, 14388, Note_off_c, 1, 79, 0
1, 14388, Note_off_c, 1, 55, 0
1, 14400, Note_on_c, 1, 76, 127
1, 14400, Note_on_c, 1, 82, 127
1, 14400, Note_on_c, 1, 79, 127
1, 14400, Note_on_c, 1, 60, 127
1, 14448, Note_off_c, 1, 60, 0
1, 14460, Note_on_c, 1, 48, 127
1, 14508, Note_off_c, 1, 48, 0
1, 14520, Note_on_c, 1, 50, 127
1, 14544, Note_off_c, 1, 76, 0
1, 14544, Note_off_c, 1, 82, 0
1, 14544, Note_off_c, 1, 79, 0
1, 14568, Note_off_c, 1, 50, 0
1, 14580, Note_on_c, 1, 79, 127
1, 14580, Note_on_c, 1, 84, 127
1, 14580, Note_on_c, 1, 76, 127
1, 14580, Note_on_c, 1, 52, 127
1, 14628, Note_off_c, 1, 79, 0
1, 14628, Note_off_c, 1, 84, 0
1, 14628, Note_off_c, 1, 76, 0
1, 14628, Note_off_c, 1, 52, 0
1, 14640, Note_on_c, 1, 81, 127
1, 14640, Note_on_c, 1, 76, 127
1, 14640, Note_on_c, 1, 77, 127
1, 14640, Note_on_c, 1, 53, 127
1, 14688, Note_off_c, 1, 53, 0
1, 14700, Note_on_c, 1, 55, 127
1, 14748, Note_off_c, 1, 55, 0
1, 14760, Note_on_c, 1, 57, 127
1, 14784, Note_off_c, 1, 81, 0
1, 14784, Note_off_c, 1, 76, 0
1, 14784, Note_off_c, 1, 77, 0
1, 14808, Note_off_c, 1, 57, 0
1, 14820, Note_on_c, 1, 77, 127
1, 14820, Note_on_c, 1, 81, 127
1, 14820, Note_on_c, 1, 76, 127
1, 14820, Note_on_c, 1, 53, 127
1, 14868, Note_off_c, 1, 77, 0
1, 14868, Note_off_c, 1, 81, 0
1, 14868, Note_off_c, 1, 76, 0
1, 14868, Note_off_c, 1, 53, 0
1, 14880, Note_on_c, 1, 77, 127
1, 14880, Note_on_c, 1, 74, 127
1, 14880, Note_on_c, 1, 81, 127
1, 14880, Note_on_c, 1, 58, 127
1, 14928, Note_off_c, 1, 58, 0
1, 14940, Note_on_c, 1, 57, 127
1, 14976, Note_off_c, 1, 77, 0
1, 14976, Note_off_c, 1, 74, 0
1, 14976, Note_off_c, 1, 81, 0
1, 14988, Note_off_c, 1, 57, 0
1, 15000, Note_on_c, 1, 74, 127
1, 15000, Note_on_c, 1, 55, 127
1, 15048, Note_off_c, 1, 55, 0
1, 15060, Note_on_c, 1, 53, 127
1, 15096, Note_off_c, 1, 74, 0
1, 15108, Note_off_c, 1, 53, 0
1, 15120, Note_on_c, 1, 79, 127
1, 15120, Note_on_c, 1, 74, 127
1, 15120, Note_on_c, 1, 52, 127
1, 15168, Note_off_c, 1, 52, 0
1, 15180, Note_on_c, 1, 50, 127
1, 15228, Note_off_c, 1, 50, 0
1, 15240, Note_on_c, 1, 48, 127
1, 15264, Note_off_c, 1, 79, 0
1, 15264, Note_off_c, 1, 74, 0
1, 15288, Note_off_c, 1, 48, 0
1, 15300, Note_on_c, 1, 74, 127
1, 15300, Note_on_c, 1, 79, 127
1, 15300, Note_on_c, 1, 46, 127
1, 15348, Note_off_c, 1, 74, 0
1, 15348, Note_off_c, 1, 79, 0
1, 15348, Note_off_c, 1, 46, 0
1, 15360, Note_on_c, 1, 79, 127
1, 15360, Note_on_c, 1, 72, 127
1, 15360, Note_on_c, 1, 45, 127
1, 15408, Note_off_c, 1, 45, 0
1, 15420, Note_on_c, 1, 46, 127
1, 15468, Note_off_c, 1, 46, 0
1, 15480, Note_on_c, 1, 48, 127
1, 15504, Note_off_c, 1, 79, 0
1, 15504, Note_off_c, 1, 72, 0
1, 15528, Note_off_c, 1, 48, 0
1, 15540, Note_on_c, 1, 81, 127
1, 15540, Note_on_c, 1, 72, 127
1, 15540, Note_on_c, 1, 52, 127
1, 15588, Note_off_c, 1, 81, 0
1, 15588, Note_off_c, 1, 72, 0
1, 15588, Note_off_c, 1, 52, 0
1, 15600, Note_on_c, 1, 72, 127
1, 15600, Note_on_c, 1, 77, 127
1, 15600, Note_on_c, 1, 50, 127
1, 15648, Note_off_c, 1, 50, 0
1, 15660, Note_on_c, 1, 52, 127
1, 15708, Note_off_c, 1, 52, 0
1, 15720, Note_on_c, 1, 53, 127
1, 15744, Note_off_c, 1, 72, 0
1, 15744, Note_off_c, 1, 77, 0
1, 15768, Note_off_c, 1, 53, 0
1, 15780, Note_on_c, 1, 77, 127
1, 15780, Note_on_c, 1, 72, 127
1, 15780, Note_on_c, 1, 57, 127
1, 15828, Note_off_c, 1, 77, 0
1, 15828, Note_off_c, 1, 72, 0
1, 15828, Note_off_c, 1, 57, 0
1, 15840, Note_on_c, 1, 77, 127
1, 15840, Note_on_c, 1, 70, 127
1, 15840, Note_on_c, 1, 55, 127
1, 15888, Note_off_c, 1, 55, 0
1, 15900, Note_on_c, 1, 43, 127
1, 15948, Note_off_c, 1, 43, 0
1, 15960, Note_on_c, 1, 45, 127
1, 15984, Note_off_c, 1, 77, 0
1, 15984, Note_off_c, 1, 70, 0
1, 16008, Note_off_c, 1, 45, 0
1, 16020, Note_on_c, 1, 79, 127
1, 16020, Note_on_c, 1, 70, 127
1, 16020, Note_on_c, 1, 46, 127
1, 16068, Note_off_c, 1, 79, 0
1, 16068, Note_off_c, 1, 70, 0
1, 16068, Note_off_c, 1, 46, 0
1, 16080, Note_on_c, 1, 76, 127
1, 16080, Note_on_c, 1, 70, 127
1, 16080, Note_on_c, 1, 48, 127
1, 16128, Note_off_c, 1, 48, 0
1, 16140, Note_on_c, 1, 45, 127
1, 16188, Note_off_c, 1, 45, 0
1, 16200, Note_on_c, 1, 46, 127
1, 16224, Note_off_c, 1, 76, 0
1, 16224, Note_off_c, 1, 70, 0
1, 16248, Note_off_c, 1, 46, 0
1, 16260, Note_on_c, 1, 77, 127
1, 16260, Note_on_c, 1, 70, 127
1, 16260, Note_on_c, 1, 48, 127
1, 16308, Note_off_c, 1, 77, 0
1, 16308, Note_off_c, 1, 70, 0
1, 16308, Note_off_c, 1, 48, 0
1, 16320, Note_on_c, 1, 69, 127
1, 16320, Note_on_c, 1, 77, 127
1, 16320, Note_on_c, 1, 38, 127
1, 16416, Note_off_c, 1, 69, 0
1, 16416, Note_off_c, 1, 77, 0
1, 16440, Note_on_c, 1, 62, 127
1, 16488, Note_off_c, 1, 62, 0
1, 16500, Note_on_c, 1, 64, 127
1, 16512, Note_off_c, 1, 38, 0
1, 16548, Note_off_c, 1, 64, 0
1, 16560, Note_on_c, 1, 65, 127
1, 16608, Note_off_c, 1, 65, 0
1, 16620, Note_on_c, 1, 67, 127
1, 16668, Note_off_c, 1, 67, 0
1, 16680, Note_on_c, 1, 69, 127
1, 16680, Note_on_c, 1, 50, 127
1, 16728, Note_off_c, 1, 69, 0
1, 16740, Note_on_c, 1, 65, 127
1, 16776, Note_off_c, 1, 50, 0
1, 16788, Note_off_c, 1, 65, 0
1, 16800, Note_on_c, 1, 70, 127
1, 16800, Note_on_c, 1, 55, 127
1, 16848, Note_off_c, 1, 70, 0
1, 16848, Note_off_c, 1, 55, 0
1, 16860, Note_on_c, 1, 72, 127
1, 16860, Note_on_c, 1, 57, 127
1, 16908, Note_off_c, 1, 72, 0
1, 16908, Note_off_c, 1, 57, 0
1, 16920, Note_on_c, 1, 70, 127
1, 16920, Note_on_c, 1, 55, 127
1, 16968, Note_off_c, 1, 70, 0
1, 16968, Note_off_c, 1, 55, 0
1, 16980, Note_on_c, 1, 69, 127
1, 16980, Note_on_c, 1, 53, 127
1, 17028, Note_off_c, 1, 69, 0
1, 17028, Note_off_c, 1, 53, 0
1, 17040, Note_on_c, 1, 67, 127
1, 17040, Note_on_c, 1, 52, 127
1, 17088, Note_off_c, 1, 67, 0
1, 17088, Note_off_c, 1, 52, 0
1, 17100, Note_on_c, 1, 72, 127
1, 17100, Note_on_c, 1, 48, 127
1, 17148, Note_off_c, 1, 72, 0
1, 17148, Note_off_c, 1, 48, 0
1, 17160, Note_on_c, 1, 70, 127
1, 17160, Note_on_c, 1, 50, 127
1, 17208, Note_off_c, 1, 70, 0
1, 17208, Note_off_c, 1, 50, 0
1, 17220, Note_on_c, 1, 72, 127
1, 17220, Note_on_c, 1, 52, 127
1, 17268, Note_off_c, 1, 72, 0
1, 17268, Note_off_c, 1, 52, 0
1, 17280, Note_on_c, 1, 69, 127
1, 17280, Note_on_c, 1, 53, 127
1, 17328, Note_off_c, 1, 53, 0
1, 17340, Note_on_c, 1, 55, 127
1, 17376, Note_off_c, 1, 69, 0
1, 17388, Note_off_c, 1, 55, 0
1, 17400, Note_on_c, 1, 60, 127
1, 17400, Note_on_c, 1, 53, 127
1, 17448, Note_off_c, 1, 53, 0
1, 17460, Note_on_c, 1, 52, 127
1, 17496, Note_off_c, 1, 60, 0
1, 17508, Note_off_c, 1, 52, 0
1, 17520, Note_on_c, 1, 65, 127
1, 17520, Note_on_c, 1, 50, 127
1, 17568, Note_off_c, 1, 50, 0
1, 17580, Note_on_c, 1, 48, 127
1, 17628, Note_off_c, 1, 48, 0
1, 17640, Note_on_c, 1, 46, 127
1, 17664, Note_off_c, 1, 65, 0
1, 17688, Note_off_c, 1, 46, 0
1, 17700, Note_on_c, 1, 65, 127
1, 17700, Note_on_c, 1, 60, 127
1, 17700, Note_on_c, 1, 57, 127
1, 17700, Note_on_c, 1, 45, 127
1, 17748, Note_off_c, 1, 65, 0
1, 17748, Note_off_c, 1, 60, 0
1, 17748, Note_off_c, 1, 57, 0
1, 17748, Note_off_c, 1, 45, 0
1, 17760, Note_on_c, 1, 62, 127
1, 17760, Note_on_c, 1, 65, 127
1, 17760, Note_on_c, 1, 55, 127
1, 17760, Note_on_c, 1, 46, 127
1, 17808, Note_off_c, 1, 62, 0
1, 17820, Note_on_c, 1, 60, 127
1, 17856, Note_off_c, 1, 55, 0
1, 17856, Note_off_c, 1, 46, 0
1, 17868, Note_off_c, 1, 60, 0
1, 17880, Note_on_c, 1, 58, 127
1, 17880, Note_on_c, 1, 43, 127
1, 17928, Note_off_c, 1, 58, 0
1, 17940, Note_on_c, 1, 57, 127
1, 17952, Note_off_c, 1, 65, 0
1, 17976, Note_off_c, 1, 43, 0
1, 17988, Note_off_c, 1, 57, 0
1, 18000, Note_on_c, 1, 55, 127
1, 18000, Note_on_c, 1, 64, 127
1, 18000, Note_on_c, 1, 48, 127
1, 18048, Note_off_c, 1, 55, 0
1, 18060, Note_on_c, 1, 60, 127
1, 18096, Note_off_c, 1, 48, 0
1, 18108, Note_off_c, 1, 60, 0
1, 18120, Note_on_c, 1, 58, 127
1, 18120, Note_on_c, 1, 36, 127
1, 18144, Note_off_c, 1, 64, 0
1, 18168, Note_off_c, 1, 58, 0
1, 18216, Note_off_c, 1, 36, 0
1, 18240, Note_on_c, 1, 65, 127
1, 18240, Note_on_c, 1, 41, 127
1, 18240, Note_on_c, 1, 57, 127
1, 18336, Note_off_c, 1, 41, 0
1, 18360, Note_on_c, 1, 53, 127
1, 18408, Note_off_c, 1, 53, 0
1, 18420, Note_on_c, 1, 52, 127
1, 18432, Note_off_c, 1, 65, 0
1, 18432, Note_off_c, 1, 57, 0
1, 18468, Note_off_c, 1, 52, 0
1, 18480, Note_on_c, 1, 53, 127
1, 18540, Note_on_c, 1, 77, 127
1, 18576, Note_off_c, 1, 53, 0
1, 18588, Note_off_c, 1, 77, 0
1, 18600, Note_on_c, 1, 76, 127
1, 18600, Note_on_c, 1, 55, 127
1, 18648, Note_off_c, 1, 76, 0
1, 18660, Note_on_c, 1, 77, 127
1, 18696, Note_off_c, 1, 55, 0
1, 18708, Note_off_c, 1, 77, 0
1, 18720, Note_on_c, 1, 72, 127
1, 18720, Note_on_c, 1, 57, 127
1, 18768, Note_off_c, 1, 72, 0
1, 18780, Note_on_c, 1, 77, 127
1, 18816, Note_off_c, 1, 57, 0
1, 18828, Note_off_c, 1, 77, 0
1, 18840, Note_on_c, 1, 74, 127
1, 18840, Note_on_c, 1, 58, 127
1, 18888, Note_off_c, 1, 74, 0
1, 18900, Note_on_c, 1, 77, 127
1, 18936, Note_off_c, 1, 58, 0
1, 18948, Note_off_c, 1, 77, 0
1, 18960, Note_on_c, 1, 72, 127
1, 18960, Note_on_c, 1, 57, 127
1, 19008, Note_off_c, 1, 72, 0
1, 19020, Note_on_c, 1, 77, 127
1, 19056, Note_off_c, 1, 57, 0
1, 19068, Note_off_c, 1, 77, 0
1, 19080, Note_on_c, 1, 70, 127
1, 19080, Note_on_c, 1, 55, 127
1, 19128, Note_off_c, 1, 70, 0
1, 19140, Note_on_c, 1, 77, 127
1, 19176, Note_off_c, 1, 55, 0
1, 19188, Note_off_c, 1, 77, 0
1, 19200, Note_on_c, 1, 69, 127
1, 19200, Note_on_c, 1, 53, 127
1, 19248, Note_off_c, 1, 69, 0
1, 19260, Note_on_c, 1, 77, 127
1, 19308, Note_off_c, 1, 77, 0
1, 19320, Note_on_c, 1, 70, 127
1, 19320, Note_on_c, 1, 62, 127
1, 19368, Note_off_c, 1, 70, 0
1, 19416, Note_off_c, 1, 62, 0
1, 19440, Note_on_c, 1, 60, 127
1, 19536, Note_off_c, 1, 60, 0
1, 19560, Note_on_c, 1, 67, 127
1, 19560, Note_on_c, 1, 58, 127
1, 19608, Note_off_c, 1, 67, 0
1, 19656, Note_off_c, 1, 58, 0
1, 19680, Note_on_c, 1, 65, 127
1, 19680, Note_on_c, 1, 57, 127
1, 19728, Note_off_c, 1, 65, 0
1, 19776, Note_off_c, 1, 53, 0
1, 19776, Note_off_c, 1, 57, 0
1, 19800, Note_on_c, 1, 67, 127
1, 19800, Note_on_c, 1, 58, 127
1, 19800, Note_on_c, 1, 53, 127
1, 19848, Note_off_c, 1, 67, 0
1, 19860, Note_on_c, 1, 77, 127
1, 19896, Note_off_c, 1, 58, 0
1, 19896, Note_off_c, 1, 53, 0
1, 19908, Note_off_c, 1, 77, 0
1, 19920, Note_on_c, 1, 69, 127
1, 19920, Note_on_c, 1, 52, 127
1, 19920, Note_on_c, 1, 60, 127
1, 19968, Note_off_c, 1, 69, 0
1, 19980, Note_on_c, 1, 77, 127
1, 20016, Note_off_c, 1, 52, 0
1, 20016, Note_off_c, 1, 60, 0
1, 20028, Note_off_c, 1, 77, 0
1, 20040, Note_on_c, 1, 71, 127
1, 20040, Note_on_c, 1, 62, 127
1, 20040, Note_on_c, 1, 50, 127
1, 20088, Note_off_c, 1, 71, 0
1, 20100, Note_on_c, 1, 77, 127
1, 20136, Note_off_c, 1, 62, 0
1, 20136, Note_off_c, 1, 50, 0
1, 20148, Note_off_c, 1, 77, 0
1, 20160, Note_on_c, 1, 72, 127
1, 20160, Note_on_c, 1, 76, 127
1, 20160, Note_on_c, 1, 55, 127
1, 20160, Note_on_c, 1, 48, 127
1, 20208, Note_off_c, 1, 72, 0
1, 20208, Note_off_c, 1, 76, 0
1, 20220, Note_on_c, 1, 67, 127
1, 20268, Note_off_c, 1, 67, 0
1, 20280, Note_on_c, 1, 69, 127
1, 20328, Note_off_c, 1, 69, 0
1, 20340, Note_on_c, 1, 71, 127
1, 20352, Note_off_c, 1, 55, 0
1, 20385, Note_off_c, 1, 48, 0
1, 20388, Note_off_c, 1, 71, 0
1, 20400, Note_on_c, 1, 72, 127
1, 20448, Note_off_c, 1, 72, 0
1, 20460, Note_on_c, 1, 74, 127
1, 20460, Note_on_c, 1, 60, 127
1, 20508, Note_off_c, 1, 74, 0
1, 20508, Note_off_c, 1, 60, 0
1, 20520, Note_on_c, 1, 76, 127
1, 20520, Note_on_c, 1, 59, 127
1, 20544, Note_off_c, 1, 76, 0
1, 20550, Note_on_c, 1, 74, 127
1, 20568, Note_off_c, 1, 59, 0
1, 20574, Note_off_c, 1, 74, 0
1, 20580, Note_on_c, 1, 72, 127
1, 20580, Note_on_c, 1, 60, 127
1, 20604, Note_off_c, 1, 72, 0
1, 20610, Note_on_c, 1, 74, 127
1, 20628, Note_off_c, 1, 60, 0
1, 20634, Note_off_c, 1, 74, 0
1, 20640, Note_on_c, 1, 76, 127
1, 20640, Note_on_c, 1, 55, 127
1, 20688, Note_off_c, 1, 55, 0
1, 20700, Note_on_c, 1, 60, 127
1, 20736, Note_off_c, 1, 76, 0
1, 20748, Note_off_c, 1, 60, 0
1, 20760, Note_on_c, 1, 77, 127
1, 20760, Note_on_c, 1, 57, 127
1, 20808, Note_off_c, 1, 57, 0
1, 20820, Note_on_c, 1, 60, 127
1, 20856, Note_off_c, 1, 77, 0
1, 20868, Note_off_c, 1, 60, 0
1, 20880, Note_on_c, 1, 76, 127
1, 20880, Note_on_c, 1, 55, 127
1, 20928, Note_off_c, 1, 55, 0
1, 20940, Note_on_c, 1, 60, 127
1, 20976, Note_off_c, 1, 76, 0
1, 20988, Note_off_c, 1, 60, 0
1, 21000, Note_on_c, 1, 74, 127
1, 21000, Note_on_c, 1, 53, 127
1, 21048, Note_off_c, 1, 53, 0
1, 21060, Note_on_c, 1, 60, 127
1, 21096, Note_off_c, 1, 74, 0
1, 21108, Note_off_c, 1, 60, 0
1, 21120, Note_on_c, 1, 72, 127
1, 21120, Note_on_c, 1, 52, 127
1, 21168, Note_off_c, 1, 52, 0
1, 21180, Note_on_c, 1, 60, 127
1, 21228, Note_off_c, 1, 60, 0
1, 21240, Note_on_c, 1, 81, 127
1, 21240, Note_on_c, 1, 53, 127
1, 21288, Note_off_c, 1, 53, 0
1, 21336, Note_off_c, 1, 81, 0
1, 21360, Note_on_c, 1, 79, 127
1, 21456, Note_off_c, 1, 79, 0
1, 21480, Note_on_c, 1, 77, 127
1, 21480, Note_on_c, 1, 50, 127
1, 21504, Note_off_c, 1, 72, 0
1, 21528, Note_off_c, 1, 50, 0
1, 21576, Note_off_c, 1, 77, 0
1, 21600, Note_on_c, 1, 76, 127
1, 21600, Note_on_c, 1, 72, 127
1, 21600, Note_on_c, 1, 48, 127
1, 21648, Note_off_c, 1, 48, 0
1, 21660, Note_on_c, 1, 60, 127
1, 21696, Note_off_c, 1, 76, 0
1, 21696, Note_off_c, 1, 72, 0
1, 21708, Note_off_c, 1, 60, 0
1, 21720, Note_on_c, 1, 72, 127
1, 21720, Note_on_c, 1, 77, 127
1, 21720, Note_on_c, 1, 50, 127
1, 21768, Note_off_c, 1, 50, 0
1, 21780, Note_on_c, 1, 60, 127
1, 21816, Note_off_c, 1, 72, 0
1, 21816, Note_off_c, 1, 77, 0
1, 21828, Note_off_c, 1, 60, 0
1, 21840, Note_on_c, 1, 79, 127
1, 21840, Note_on_c, 1, 71, 127
1, 21840, Note_on_c, 1, 52, 127
1, 21888, Note_off_c, 1, 52, 0
1, 21900, Note_on_c, 1, 60, 127
1, 21936, Note_off_c, 1, 79, 0
1, 21936, Note_off_c, 1, 71, 0
1, 21948, Note_off_c, 1, 60, 0
1, 21960, Note_on_c, 1, 81, 127
1, 21960, Note_on_c, 1, 69, 127
1, 21960, Note_on_c, 1, 53, 127
1, 22008, Note_off_c, 1, 53, 0
1, 22020, Note_on_c, 1, 60, 127
1, 22056, Note_off_c, 1, 81, 0
1, 22056, Note_off_c, 1, 69, 0
1, 22068, Note_off_c, 1, 60, 0
1, 22080, Note_on_c, 1, 71, 127
1, 22080, Note_on_c, 1, 74, 127
1, 22080, Note_on_c, 1, 55, 127
1, 22080, Note_on_c, 1, 59, 127
1, 22128, Note_off_c, 1, 71, 0
1, 22128, Note_off_c, 1, 74, 0
1, 22140, Note_on_c, 1, 67, 127
1, 22176, Note_off_c, 1, 55, 0
1, 22176, Note_off_c, 1, 59, 0
1, 22188, Note_off_c, 1, 67, 0
1, 22200, Note_on_c, 1, 71, 127
1, 22200, Note_on_c, 1, 43, 127
1, 22248, Note_off_c, 1, 71, 0
1, 22260, Note_on_c, 1, 74, 127
1, 22296, Note_off_c, 1, 43, 0
1, 22308, Note_off_c, 1, 74, 0
1, 22320, Note_on_c, 1, 71, 127
1, 22368, Note_off_c, 1, 71, 0
1, 22380, Note_on_c, 1, 67, 127
1, 22428, Note_off_c, 1, 67, 0
1, 22440, Note_on_c, 1, 71, 127
1, 22440, Note_on_c, 1, 55, 127
1, 22488, Note_off_c, 1, 71, 0
1, 22500, Note_on_c, 1, 74, 127
1, 22536, Note_off_c, 1, 55, 0
1, 22548, Note_off_c, 1, 74, 0
1, 22560, Note_on_c, 1, 77, 127
1, 22560, Note_on_c, 1, 50, 127
1, 22620, Note_on_c, 1, 62, 127
1, 22656, Note_off_c, 1, 77, 0
1, 22656, Note_off_c, 1, 50, 0
1, 22668, Note_off_c, 1, 62, 0
1, 22680, Note_on_c, 1, 65, 127
1, 22680, Note_on_c, 1, 77, 127
1, 22728, Note_off_c, 1, 65, 0
1, 22740, Note_on_c, 1, 69, 127
1, 22776, Note_off_c, 1, 77, 0
1, 22788, Note_off_c, 1, 69, 0
1, 22800, Note_on_c, 1, 65, 127
1, 22800, Note_on_c, 1, 77, 127
1, 22848, Note_off_c, 1, 65, 0
1, 22860, Note_on_c, 1, 62, 127
1, 22896, Note_off_c, 1, 77, 0
1, 22908, Note_off_c, 1, 62, 0
1, 22920, Note_on_c, 1, 65, 127
1, 22920, Note_on_c, 1, 77, 127
1, 22968, Note_off_c, 1, 65, 0
1, 22980, Note_on_c, 1, 69, 127
1, 23016, Note_off_c, 1, 77, 0
1, 23028, Note_off_c, 1, 69, 0
1, 23040, Note_on_c, 1, 77, 127
1, 23040, Note_on_c, 1, 71, 127
1, 23100, Note_on_c, 1, 55, 127
1, 23136, Note_off_c, 1, 77, 0
1, 23136, Note_off_c, 1, 71, 0
1, 23148, Note_off_c, 1, 55, 0
1, 23160, Note_on_c, 1, 77, 127
1, 23160, Note_on_c, 1, 74, 127
1, 23160, Note_on_c, 1, 59, 127
1, 23208, Note_off_c, 1, 59, 0
1, 23220, Note_on_c, 1, 62, 127
1, 23256, Note_off_c, 1, 77, 0
1, 23256, Note_off_c, 1, 74, 0
1, 23268, Note_off_c, 1, 62, 0
1, 23280, Note_on_c, 1, 74, 127
1, 23280, Note_on_c, 1, 77, 127
1, 23280, Note_on_c, 1, 59, 127
1, 23328, Note_off_c, 1, 59, 0
1, 23340, Note_on_c, 1, 55, 127
1, 23376, Note_off_c, 1, 74, 0
1, 23376, Note_off_c, 1, 77, 0
1, 23388, Note_off_c, 1, 55, 0
1, 23400, Note_on_c, 1, 77, 127
1, 23400, Note_on_c, 1, 74, 127
1, 23400, Note_on_c, 1, 59, 127
1, 23448, Note_off_c, 1, 59, 0
1, 23460, Note_on_c, 1, 62, 127
1, 23496, Note_off_c, 1, 77, 0
1, 23496, Note_off_c, 1, 74, 0
1, 23508, Note_off_c, 1, 62, 0
1, 23520, Note_on_c, 1, 76, 127
1, 23520, Note_on_c, 1, 74, 127
1, 23520, Note_on_c, 1, 67, 127
1, 23580, Note_on_c, 1, 48, 127
1, 23616, Note_off_c, 1, 76, 0
1, 23616, Note_off_c, 1, 74, 0
1, 23616, Note_off_c, 1, 67, 0
1, 23628, Note_off_c, 1, 48, 0
1, 23640, Note_on_c, 1, 74, 127
1, 23640, Note_on_c, 1, 76, 127
1, 23640, Note_on_c, 1, 67, 127
1, 23640, Note_on_c, 1, 52, 127
1, 23688, Note_off_c, 1, 52, 0
1, 23700, Note_on_c, 1, 55, 127
1, 23736, Note_off_c, 1, 74, 0
1, 23736, Note_off_c, 1, 76, 0
1, 23736, Note_off_c, 1, 67, 0
1, 23748, Note_off_c, 1, 55, 0
1, 23760, Note_on_c, 1, 72, 127
1, 23760, Note_on_c, 1, 67, 127
1, 23760, Note_on_c, 1, 76, 127
1, 23760, Note_on_c, 1, 52, 127
1, 23808, Note_off_c, 1, 52, 0
1, 23820, Note_on_c, 1, 48, 127
1, 23856, Note_off_c, 1, 72, 0
1, 23856, Note_off_c, 1, 67, 0
1, 23856, Note_off_c, 1, 76, 0
1, 23868, Note_off_c, 1, 48, 0
1, 23880, Note_on_c, 1, 76, 127
1, 23880, Note_on_c, 1, 67, 127
1, 23880, Note_on_c, 1, 72, 127
1, 23880, Note_on_c, 1, 52, 127
1, 23928, Note_off_c, 1, 52, 0
1, 23940, Note_on_c, 1, 55, 127
1, 23976, Note_off_c, 1, 76, 0
1, 23976, Note_off_c, 1, 67, 0
1, 23976, Note_off_c, 1, 72, 0
1, 23988, Note_off_c, 1, 55, 0
1, 24000, Note_on_c, 1, 76, 127
1, 24000, Note_on_c, 1, 65, 127
1, 24000, Note_on_c, 1, 72, 127
1, 24000, Note_on_c, 1, 57, 127
1, 24048, Note_off_c, 1, 57, 0
1, 24060, Note_on_c, 1, 41, 127
1, 24096, Note_off_c, 1, 76, 0
1, 24096, Note_off_c, 1, 65, 0
1, 24096, Note_off_c, 1, 72, 0
1, 24108, Note_off_c, 1, 41, 0
1, 24120, Note_on_c, 1, 65, 127
1, 24120, Note_on_c, 1, 76, 127
1, 24120, Note_on_c, 1, 72, 127
1, 24120, Note_on_c, 1, 45, 127
1, 24168, Note_off_c, 1, 45, 0
1, 24180, Note_on_c, 1, 48, 127
1, 24216, Note_off_c, 1, 65, 0
1, 24216, Note_off_c, 1, 76, 0
1, 24216, Note_off_c, 1, 72, 0
1, 24228, Note_off_c, 1, 48, 0
1, 24240, Note_on_c, 1, 65, 127
1, 24240, Note_on_c, 1, 76, 127
1, 24240, Note_on_c, 1, 72, 127
1, 24240, Note_on_c, 1, 45, 127
1, 24288, Note_off_c, 1, 45, 0
1, 24300, Note_on_c, 1, 41, 127
1, 24336, Note_off_c, 1, 65, 0
1, 24336, Note_off_c, 1, 76, 0
1, 24336, Note_off_c, 1, 72, 0
1, 24348, Note_off_c, 1, 41, 0
1, 24360, Note_on_c, 1, 76, 127
1, 24360, Note_on_c, 1, 72, 127
1, 24360, Note_on_c, 1, 65, 127
1, 24360, Note_on_c, 1, 45, 127
1, 24408, Note_off_c, 1, 45, 0
1, 24420, Note_on_c, 1, 48, 127
1, 24456, Note_off_c, 1, 76, 0
1, 24456, Note_off_c, 1, 72, 0
1, 24456, Note_off_c, 1, 65, 0
1, 24468, Note_off_c, 1, 48, 0
1, 24480, Note_on_c, 1, 67, 127
1, 24480, Note_on_c, 1, 65, 127
1, 24480, Note_on_c, 1, 74, 127
1, 24480, Note_on_c, 1, 47, 127
1, 24528, Note_off_c, 1, 47, 0
1, 24540, Note_on_c, 1, 43, 127
1, 24576, Note_off_c, 1, 67, 0
1, 24576, Note_off_c, 1, 65, 0
1, 24576, Note_off_c, 1, 74, 0
1, 24588, Note_off_c, 1, 43, 0
1, 24600, Note_on_c, 1, 74, 127
1, 24600, Note_on_c, 1, 67, 127
1, 24600, Note_on_c, 1, 65, 127
1, 24600, Note_on_c, 1, 47, 127
1, 24648, Note_off_c, 1, 47, 0
1, 24660, Note_on_c, 1, 50, 127
1, 24696, Note_off_c, 1, 74, 0
1, 24696, Note_off_c, 1, 67, 0
1, 24696, Note_off_c, 1, 65, 0
1, 24708, Note_off_c, 1, 50, 0
1, 24720, Note_on_c, 1, 65, 127
1, 24720, Note_on_c, 1, 67, 127
1, 24720, Note_on_c, 1, 74, 127
1, 24720, Note_on_c, 1, 47, 127
1, 24768, Note_off_c, 1, 47, 0
1, 24780, Note_on_c, 1, 43, 127
1, 24816, Note_off_c, 1, 65, 0
1, 24816, Note_off_c, 1, 67, 0
1, 24816, Note_off_c, 1, 74, 0
1, 24828, Note_off_c, 1, 43, 0
1, 24840, Note_on_c, 1, 74, 127
1, 24840, Note_on_c, 1, 65, 127
1, 24840, Note_on_c, 1, 67, 127
1, 24840, Note_on_c, 1, 47, 127
1, 24888, Note_off_c, 1, 47, 0
1, 24900, Note_on_c, 1, 50, 127
1, 24936, Note_off_c, 1, 74, 0
1, 24936, Note_off_c, 1, 65, 0
1, 24936, Note_off_c, 1, 67, 0
1, 24948, Note_off_c, 1, 50, 0
1, 24960, Note_on_c, 1, 74, 127
1, 24960, Note_on_c, 1, 67, 127
1, 24960, Note_on_c, 1, 65, 127
1, 24960, Note_on_c, 1, 40, 127
1, 25056, Note_off_c, 1, 74, 0
1, 25056, Note_off_c, 1, 67, 0
1, 25056, Note_off_c, 1, 65, 0
1, 25056, Note_off_c, 1, 40, 0
1, 25080, Note_on_c, 1, 67, 127
1, 25080, Note_on_c, 1, 64, 127
1, 25080, Note_on_c, 1, 72, 127
1, 25080, Note_on_c, 1, 52, 127
1, 25128, Note_off_c, 1, 52, 0
1, 25140, Note_on_c, 1, 53, 127
1, 25176, Note_off_c, 1, 67, 0
1, 25176, Note_off_c, 1, 64, 0
1, 25176, Note_off_c, 1, 72, 0
1, 25188, Note_off_c, 1, 53, 0
1, 25200, Note_on_c, 1, 62, 127
1, 25200, Note_on_c, 1, 72, 127
1, 25200, Note_on_c, 1, 67, 127
1, 25200, Note_on_c, 1, 55, 127
1, 25296, Note_off_c, 1, 62, 0
1, 25296, Note_off_c, 1, 72, 0
1, 25296, Note_off_c, 1, 67, 0
1, 25296, Note_off_c, 1, 55, 0
1, 25320, Note_on_c, 1, 62, 127
1, 25320, Note_on_c, 1, 71, 127
1, 25320, Note_on_c, 1, 67, 127
1, 25320, Note_on_c, 1, 43, 127
1, 25416, Note_off_c, 1, 62, 0
1, 25416, Note_off_c, 1, 71, 0
1, 25416, Note_off_c, 1, 67, 0
1, 25416, Note_off_c, 1, 43, 0
1, 25440, Note_on_c, 1, 67, 127
1, 25440, Note_on_c, 1, 64, 127
1, 25440, Note_on_c, 1, 72, 127
1, 25440, Note_on_c, 1, 36, 127
1, 25488, Note_off_c, 1, 67, 0
1, 25488, Note_off_c, 1, 64, 0
1, 25488, Note_off_c, 1, 72, 0
1, 25500, Note_on_c, 1, 55, 127
1, 25548, Note_off_c, 1, 55, 0
1, 25560, Note_on_c, 1, 57, 127
1, 25608, Note_off_c, 1, 57, 0
1, 25620, Note_on_c, 1, 59, 127
1, 25632, Note_off_c, 1, 36, 0
1, 25668, Note_off_c, 1, 59, 0
1, 25680, Note_on_c, 1, 60, 127
1, 25680, Note_on_c, 1, 48, 127
1, 25728, Note_off_c, 1, 60, 0
1, 25740, Note_on_c, 1, 62, 127
1, 25788, Note_off_c, 1, 62, 0
1, 25800, Note_on_c, 1, 64, 127
1, 25824, Note_off_c, 1, 48, 0
1, 25848, Note_off_c, 1, 64, 0
1, 25860, Note_on_c, 1, 60, 127
1, 25860, Note_on_c, 1, 48, 127
1, 25908, Note_off_c, 1, 60, 0
1, 25908, Note_off_c, 1, 48, 0
1, 25920, Note_on_c, 1, 65, 127
1, 25920, Note_on_c, 1, 48, 127
1, 25968, Note_off_c, 1, 65, 0
1, 25980, Note_on_c, 1, 67, 127
1, 26028, Note_off_c, 1, 67, 0
1, 26064, Note_off_c, 1, 48, 0
1, 26100, Note_on_c, 1, 64, 127
1, 26100, Note_on_c, 1, 50, 127
1, 26148, Note_off_c, 1, 64, 0
1, 26148, Note_off_c, 1, 50, 0
1, 26160, Note_on_c, 1, 62, 127
1, 26160, Note_on_c, 1, 47, 127
1, 26208, Note_off_c, 1, 62, 0
1, 26220, Note_on_c, 1, 67, 127
1, 26268, Note_off_c, 1, 67, 0
1, 26280, Note_on_c, 1, 65, 127
1, 26304, Note_off_c, 1, 47, 0
1, 26328, Note_off_c, 1, 65, 0
1, 26340, Note_on_c, 1, 67, 127
1, 26340, Note_on_c, 1, 48, 127
1, 26388, Note_off_c, 1, 67, 0
1, 26388, Note_off_c, 1, 48, 0
1, 26400, Note_on_c, 1, 64, 127
1, 26400, Note_on_c, 1, 48, 127
1, 26448, Note_off_c, 1, 48, 0
1, 26460, Note_on_c, 1, 43, 127
1, 26496, Note_off_c, 1, 64, 0
1, 26508, Note_off_c, 1, 43, 0
1, 26520, Note_on_c, 1, 60, 127
1, 26520, Note_on_c, 1, 45, 127
1, 26568, Note_off_c, 1, 45, 0
1, 26580, Note_on_c, 1, 47, 127
1, 26616, Note_off_c, 1, 60, 0
1, 26628, Note_off_c, 1, 47, 0
1, 26640, Note_on_c, 1, 72, 127
1, 26640, Note_on_c, 1, 48, 127
1, 26688, Note_off_c, 1, 48, 0
1, 26700, Note_on_c, 1, 50, 127
1, 26736, Note_off_c, 1, 72, 0
1, 26748, Note_off_c, 1, 50, 0
1, 26760, Note_on_c, 1, 64, 127
1, 26760, Note_on_c, 1, 72, 127
1, 26760, Note_on_c, 1, 52, 127
1, 26808, Note_off_c, 1, 52, 0
1, 26820, Note_on_c, 1, 48, 127
1, 26856, Note_off_c, 1, 64, 0
1, 26856, Note_off_c, 1, 72, 0
1, 26868, Note_off_c, 1, 48, 0
1, 26880, Note_on_c, 1, 72, 127
1, 26880, Note_on_c, 1, 62, 127
1, 26880, Note_on_c, 1, 53, 127
1, 26928, Note_off_c, 1, 53, 0
1, 26940, Note_on_c, 1, 55, 127
1, 26976, Note_off_c, 1, 72, 0
1, 26988, Note_off_c, 1, 55, 0
1, 27000, Note_on_c, 1, 71, 127
1, 27048, Note_off_c, 1, 71, 0
1, 27060, Note_on_c, 1, 52, 127
1, 27072, Note_off_c, 1, 62, 0
1, 27108, Note_off_c, 1, 52, 0
1, 27120, Note_on_c, 1, 74, 127
1, 27120, Note_on_c, 1, 50, 127
1, 27168, Note_off_c, 1, 50, 0
1, 27180, Note_on_c, 1, 55, 127
1, 27216, Note_off_c, 1, 74, 0
1, 27228, Note_off_c, 1, 55, 0
1, 27240, Note_on_c, 1, 74, 127
1, 27240, Note_on_c, 1, 71, 127
1, 27240, Note_on_c, 1, 53, 127
1, 27288, Note_off_c, 1, 53, 0
1, 27300, Note_on_c, 1, 55, 127
1, 27336, Note_off_c, 1, 74, 0
1, 27336, Note_off_c, 1, 71, 0
1, 27348, Note_off_c, 1, 55, 0
1, 27360, Note_on_c, 1, 74, 127
1, 27360, Note_on_c, 1, 67, 127
1, 27360, Note_on_c, 1, 52, 127
1, 27408, Note_off_c, 1, 52, 0
1, 27420, Note_on_c, 1, 55, 127
1, 27456, Note_off_c, 1, 74, 0
1, 27468, Note_off_c, 1, 55, 0
1, 27480, Note_on_c, 1, 72, 127
1, 27480, Note_on_c, 1, 57, 127
1, 27528, Note_off_c, 1, 72, 0
1, 27528, Note_off_c, 1, 57, 0
1, 27540, Note_on_c, 1, 59, 127
1, 27552, Note_off_c, 1, 67, 0
1, 27588, Note_off_c, 1, 59, 0
1, 27600, Note_on_c, 1, 76, 127
1, 27600, Note_on_c, 1, 60, 127
1, 27648, Note_off_c, 1, 60, 0
1, 27660, Note_on_c, 1, 62, 127
1, 27696, Note_off_c, 1, 76, 0
1, 27708, Note_off_c, 1, 62, 0
1, 27720, Note_on_c, 1, 76, 127
1, 27720, Note_on_c, 1, 72, 127
1, 27720, Note_on_c, 1, 64, 127
1, 27768, Note_off_c, 1, 64, 0
1, 27780, Note_on_c, 1, 60, 127
1, 27816, Note_off_c, 1, 76, 0
1, 27816, Note_off_c, 1, 72, 0
1, 27828, Note_off_c, 1, 60, 0
1, 27840, Note_on_c, 1, 76, 127
1, 27840, Note_on_c, 1, 69, 127
1, 27840, Note_on_c, 1, 65, 127
1, 27888, Note_off_c, 1, 65, 0
1, 27900, Note_on_c, 1, 67, 127
1, 27936, Note_off_c, 1, 76, 0
1, 27948, Note_off_c, 1, 67, 0
1, 27960, Note_on_c, 1, 74, 127
1, 28008, Note_off_c, 1, 74, 0
1, 28020, Note_on_c, 1, 64, 127
1, 28032, Note_off_c, 1, 69, 0
1, 28068, Note_off_c, 1, 64, 0
1, 28080, Note_on_c, 1, 77, 127
1, 28080, Note_on_c, 1, 62, 127
1, 28128, Note_off_c, 1, 62, 0
1, 28140, Note_on_c, 1, 64, 127
1, 28176, Note_off_c, 1, 77, 0
1, 28188, Note_off_c, 1, 64, 0
1, 28200, Note_on_c, 1, 77, 127
1, 28200, Note_on_c, 1, 69, 127
1, 28200, Note_on_c, 1, 65, 127
1, 28248, Note_off_c, 1, 65, 0
1, 28260, Note_on_c, 1, 62, 127
1, 28296, Note_off_c, 1, 77, 0
1, 28296, Note_off_c, 1, 69, 0
1, 28308, Note_off_c, 1, 62, 0
1, 28320, Note_on_c, 1, 77, 127
1, 28320, Note_on_c, 1, 71, 127
1, 28320, Note_on_c, 1, 67, 127
1, 28368, Note_off_c, 1, 67, 0
1, 28380, Note_on_c, 1, 69, 127
1, 28416, Note_off_c, 1, 77, 0
1, 28428, Note_off_c, 1, 69, 0
1, 28440, Note_on_c, 1, 76, 127
1, 28488, Note_off_c, 1, 76, 0
1, 28500, Note_on_c, 1, 65, 127
1, 28512, Note_off_c, 1, 71, 0
1, 28548, Note_off_c, 1, 65, 0
1, 28560, Note_on_c, 1, 79, 127
1, 28560, Note_on_c, 1, 64, 127
1, 28608, Note_off_c, 1, 64, 0
1, 28620, Note_on_c, 1, 65, 127
1, 28656, Note_off_c, 1, 79, 0
1, 28668, Note_off_c, 1, 65, 0
1, 28680, Note_on_c, 1, 71, 127
1, 28680, Note_on_c, 1, 79, 127
1, 28680, Note_on_c, 1, 67, 127
1, 28728, Note_off_c, 1, 67, 0
1, 28740, Note_on_c, 1, 64, 127
1, 28776, Note_off_c, 1, 71, 0
1, 28776, Note_off_c, 1, 79, 0
1, 28788, Note_off_c, 1, 64, 0
1, 28800, Note_on_c, 1, 79, 127
1, 28800, Note_on_c, 1, 72, 127
1, 28800, Note_on_c, 1, 69, 127
1, 28848, Note_off_c, 1, 79, 0
1, 28860, Note_on_c, 1, 83, 127
1, 28896, Note_off_c, 1, 69, 0
1, 28908, Note_off_c, 1, 83, 0
1, 28920, Note_on_c, 1, 81, 127
1, 28920, Note_on_c, 1, 67, 127
1, 28968, Note_off_c, 1, 81, 0
1, 29016, Note_off_c, 1, 67, 0
1, 29040, Note_on_c, 1, 78, 127
1, 29088, Note_off_c, 1, 78, 0
1, 29160, Note_on_c, 1, 76, 127
1, 29160, Note_on_c, 1, 62, 127
1, 29208, Note_off_c, 1, 76, 0
1, 29256, Note_off_c, 1, 62, 0
1, 29328, Note_off_c, 1, 72, 0
1, 29400, Note_on_c, 1, 71, 127
1, 29400, Note_on_c, 1, 74, 127
1, 29448, Note_off_c, 1, 71, 0
1, 29496, Note_off_c, 1, 74, 0
1, 29580, Note_on_c, 1, 65, 127
1, 29628, Note_off_c, 1, 65, 0
1, 29640, Note_on_c, 1, 64, 127
1, 29688, Note_off_c, 1, 64, 0
1, 29700, Note_on_c, 1, 71, 127
1, 29700, Note_on_c, 1, 79, 127
1, 29700, Note_on_c, 1, 62, 127
1, 29748, Note_off_c, 1, 71, 0
1, 29748, Note_off_c, 1, 79, 0
1, 29748, Note_off_c, 1, 62, 0
1, 29760, Note_on_c, 1, 79, 127
1, 29760, Note_on_c, 1, 69, 127
1, 29760, Note_on_c, 1, 61, 127
1, 29808, Note_off_c, 1, 61, 0
1, 29820, Note_on_c, 1, 57, 127
1, 29868, Note_off_c, 1, 57, 0
1, 29880, Note_on_c, 1, 59, 127
1, 29904, Note_off_c, 1, 79, 0
1, 29928, Note_off_c, 1, 59, 0
1, 29940, Note_on_c, 1, 81, 127
1, 29952, Note_off_c, 1, 69, 0
1, 29988, Note_off_c, 1, 81, 0
1, 30000, Note_on_c, 1, 69, 127
1, 30000, Note_on_c, 1, 77, 127
1, 30000, Note_on_c, 1, 62, 127
1, 30048, Note_off_c, 1, 62, 0
1, 30060, Note_on_c, 1, 64, 127
1, 30108, Note_off_c, 1, 64, 0
1, 30120, Note_on_c, 1, 65, 127
1, 30144, Note_off_c, 1, 69, 0
1, 30144, Note_off_c, 1, 77, 0
1, 30168, Note_off_c, 1, 65, 0
1, 30180, Note_on_c, 1, 69, 127
1, 30180, Note_on_c, 1, 77, 127
1, 30180, Note_on_c, 1, 62, 127
1, 30228, Note_off_c, 1, 69, 0
1, 30228, Note_off_c, 1, 77, 0
1, 30228, Note_off_c, 1, 62, 0
1, 30240, Note_on_c, 1, 77, 127
1, 30240, Note_on_c, 1, 71, 127
1, 30240, Note_on_c, 1, 67, 127
1, 30288, Note_off_c, 1, 67, 0
1, 30300, Note_on_c, 1, 69, 127
1, 30348, Note_off_c, 1, 69, 0
1, 30384, Note_off_c, 1, 77, 0
1, 30420, Note_on_c, 1, 76, 127
1, 30420, Note_on_c, 1, 65, 127
1, 30444, Note_off_c, 1, 76, 0
1, 30450, Note_on_c, 1, 74, 127
1, 30468, Note_off_c, 1, 65, 0
1, 30474, Note_off_c, 1, 74, 0
1, 30480, Note_on_c, 1, 72, 127
1, 30480, Note_on_c, 1, 64, 127
1, 30528, Note_off_c, 1, 71, 0
1, 30528, Note_off_c, 1, 64, 0
1, 30624, Note_off_c, 1, 72, 0
1, 30660, Note_on_c, 1, 76, 127
1, 30660, Note_on_c, 1, 72, 127
1, 30660, Note_on_c, 1, 69, 127
1, 30708, Note_off_c, 1, 76, 0
1, 30708, Note_off_c, 1, 72, 0
1, 30708, Note_off_c, 1, 69, 0
1, 30720, Note_on_c, 1, 76, 127
1, 30720, Note_on_c, 1, 69, 127
1, 30720, Note_on_c, 1, 65, 127
1, 30768, Note_off_c, 1, 76, 0
1, 30780, Note_on_c, 1, 79, 127
1, 30828, Note_off_c, 1, 79, 0
1, 30840, Note_on_c, 1, 77, 127
1, 30888, Note_off_c, 1, 77, 0
1, 30912, Note_off_c, 1, 69, 0
1, 30912, Note_off_c, 1, 65, 0
1, 30960, Note_on_c, 1, 74, 127
1, 31008, Note_off_c, 1, 74, 0
1, 31020, Note_on_c, 1, 72, 127
1, 31068, Note_off_c, 1, 72, 0
1, 31080, Note_on_c, 1, 71, 127
1, 31080, Note_on_c, 1, 53, 127
1, 31128, Note_off_c, 1, 71, 0
1, 31140, Note_on_c, 1, 69, 127
1, 31188, Note_off_c, 1, 69, 0
1, 31248, Note_off_c, 1, 53, 0
1, 31260, Note_on_c, 1, 57, 127
1, 31308, Note_off_c, 1, 57, 0
1, 31320, Note_on_c, 1, 67, 127
1, 31320, Note_on_c, 1, 55, 127
1, 31368, Note_off_c, 1, 55, 0
1, 31380, Note_on_c, 1, 53, 127
1, 31416, Note_off_c, 1, 67, 0
1, 31428, Note_off_c, 1, 53, 0
1, 31440, Note_on_c, 1, 72, 127
1, 31440, Note_on_c, 1, 52, 127
1, 31488, Note_off_c, 1, 52, 0
1, 31500, Note_on_c, 1, 50, 127
1, 31548, Note_off_c, 1, 50, 0
1, 31560, Note_on_c, 1, 48, 127
1, 31584, Note_off_c, 1, 72, 0
1, 31608, Note_off_c, 1, 48, 0
1, 31620, Note_on_c, 1, 72, 127
1, 31620, Note_on_c, 1, 64, 127
1, 31620, Note_on_c, 1, 47, 127
1, 31668, Note_off_c, 1, 72, 0
1, 31668, Note_off_c, 1, 64, 0
1, 31668, Note_off_c, 1, 47, 0
1, 31680, Note_on_c, 1, 64, 127
1, 31680, Note_on_c, 1, 72, 127
1, 31680, Note_on_c, 1, 45, 127
1, 31728, Note_off_c, 1, 45, 0
1, 31740, Note_on_c, 1, 43, 127
1, 31788, Note_off_c, 1, 43, 0
1, 31824, Note_off_c, 1, 64, 0
1, 31824, Note_off_c, 1, 72, 0
1, 31860, Note_on_c, 1, 74, 127
1, 31860, Note_on_c, 1, 64, 127
1, 31860, Note_on_c, 1, 41, 127
1, 31908, Note_off_c, 1, 74, 0
1, 31908, Note_off_c, 1, 64, 0
1, 31908, Note_off_c, 1, 41, 0
1, 31920, Note_on_c, 1, 62, 127
1, 31920, Note_on_c, 1, 71, 127
1, 31920, Note_on_c, 1, 43, 127
1, 32040, Note_on_c, 1, 55, 127
1, 32064, Note_off_c, 1, 62, 0
1, 32064, Note_off_c, 1, 71, 0
1, 32100, Note_on_c, 1, 72, 127
1, 32100, Note_on_c, 1, 64, 127
1, 32112, Note_off_c, 1, 43, 0
1, 32136, Note_off_c, 1, 55, 0
1, 32148, Note_off_c, 1, 72, 0
1, 32148, Note_off_c, 1, 64, 0
1, 32160, Note_on_c, 1, 72, 127
1, 32160, Note_on_c, 1, 64, 127
1, 32160, Note_on_c, 1, 36, 127
1, 32256, Note_off_c, 1, 36, 0
1, 32280, Note_on_c, 1, 48, 127
1, 32328, Note_off_c, 1, 48, 0
1, 32340, Note_on_c, 1, 47, 127
1, 32352, Note_off_c, 1, 72, 0
1, 32352, Note_off_c, 1, 64, 0
1, 32388, Note_off_c, 1, 47, 0
1, 32400, Note_on_c, 1, 48, 127
1, 32460, Note_on_c, 1, 72, 127
1, 32496, Note_off_c, 1, 48, 0
1, 32508, Note_off_c, 1, 72, 0
1, 32520, Note_on_c, 1, 71, 127
1, 32520, Note_on_c, 1, 50, 127
1, 32568, Note_off_c, 1, 71, 0
1, 32580, Note_on_c, 1, 72, 127
1, 32616, Note_off_c, 1, 50, 0
1, 32628, Note_off_c, 1, 72, 0
1, 32640, Note_on_c, 1, 67, 127
1, 32640, Note_on_c, 1, 52, 127
1, 32688, Note_off_c, 1, 67, 0
1, 32700, Note_on_c, 1, 72, 127
1, 32736, Note_off_c, 1, 52, 0
1, 32748, Note_off_c, 1, 72, 0
1, 32760, Note_on_c, 1, 69, 127
1, 32760, Note_on_c, 1, 53, 127
1, 32808, Note_off_c, 1, 69, 0
1, 32820, Note_on_c, 1, 72, 127
1, 32856, Note_off_c, 1, 53, 0
1, 32868, Note_off_c, 1, 72, 0
1, 32880, Note_on_c, 1, 67, 127
1, 32880, Note_on_c, 1, 52, 127
1, 32928, Note_off_c, 1, 67, 0
1, 32940, Note_on_c, 1, 72, 127
1, 32976, Note_off_c, 1, 52, 0
1, 32988, Note_off_c, 1, 72, 0
1, 33000, Note_on_c, 1, 65, 127
1, 33000, Note_on_c, 1, 50, 127
1, 33048, Note_off_c, 1, 65, 0
1, 33060, Note_on_c, 1, 72, 127
1, 33096, Note_off_c, 1, 50, 0
1, 33108, Note_off_c, 1, 72, 0
1, 33120, Note_on_c, 1, 64, 127
1, 33120, Note_on_c, 1, 48, 127
1, 33168, Note_off_c, 1, 64, 0
1, 33180, Note_on_c, 1, 72, 127
1, 33228, Note_off_c, 1, 72, 0
1, 33240, Note_on_c, 1, 65, 127
1, 33240, Note_on_c, 1, 57, 127
1, 33288, Note_off_c, 1, 65, 0
1, 33336, Note_off_c, 1, 57, 0
1, 33360, Note_on_c, 1, 55, 127
1, 33456, Note_off_c, 1, 55, 0
1, 33480, Note_on_c, 1, 62, 127
1, 33480, Note_on_c, 1, 53, 127
1, 33528, Note_off_c, 1, 62, 0
1, 33576, Note_off_c, 1, 53, 0
1, 33600, Note_on_c, 1, 60, 127
1, 33600, Note_on_c, 1, 52, 127
1, 33648, Note_off_c, 1, 60, 0
1, 33696, Note_off_c, 1, 48, 0
1, 33696, Note_off_c, 1, 52, 0
1, 33720, Note_on_c, 1, 62, 127
1, 33720, Note_on_c, 1, 48, 127
1, 33720, Note_on_c, 1, 54, 127
1, 33768, Note_off_c, 1, 62, 0
1, 33780, Note_on_c, 1, 72, 127
1, 33816, Note_off_c, 1, 48, 0
1, 33816, Note_off_c, 1, 54, 0
1, 33828, Note_off_c, 1, 72, 0
1, 33840, Note_on_c, 1, 64, 127
1, 33840, Note_on_c, 1, 55, 127
1, 33840, Note_on_c, 1, 46, 127
1, 33888, Note_off_c, 1, 64, 0
1, 33900, Note_on_c, 1, 72, 127
1, 33936, Note_off_c, 1, 55, 0
1, 33936, Note_off_c, 1, 46, 0
1, 33948, Note_off_c, 1, 72, 0
1, 33960, Note_on_c, 1, 66, 127
1, 33960, Note_on_c, 1, 45, 127
1, 33960, Note_on_c, 1, 57, 127
1, 34008, Note_off_c, 1, 66, 0
1, 34020, Note_on_c, 1, 72, 127
1, 34056, Note_off_c, 1, 45, 0
1, 34056, Note_off_c, 1, 57, 0
1, 34068, Note_off_c, 1, 72, 0
1, 34080, Note_on_c, 1, 67, 127
1, 34080, Note_on_c, 1, 70, 127
1, 34080, Note_on_c, 1, 50, 127
1, 34080, Note_on_c, 1, 43, 127
1, 34128, Note_off_c, 1, 67, 0
1, 34128, Note_off_c, 1, 70, 0
1, 34140, Note_on_c, 1, 62, 127
1, 34188, Note_off_c, 1, 62, 0
1, 34200, Note_on_c, 1, 64, 127
1, 34248, Note_off_c, 1, 64, 0
1, 34260, Note_on_c, 1, 66, 127
1, 34272, Note_off_c, 1, 50, 0
1, 34272, Note_off_c, 1, 43, 0
1, 34308, Note_off_c, 1, 66, 0
1, 34320, Note_on_c, 1, 67, 127
1, 34368, Note_off_c, 1, 67, 0
1, 34380, Note_on_c, 1, 69, 127
1, 34380, Note_on_c, 1, 55, 127
1, 34428, Note_off_c, 1, 69, 0
1, 34428, Note_off_c, 1, 55, 0
1, 34440, Note_on_c, 1, 70, 127
1, 34440, Note_on_c, 1, 54, 127
1, 34464, Note_off_c, 1, 70, 0
1, 34470, Note_on_c, 1, 69, 127
1, 34488, Note_off_c, 1, 54, 0
1, 34494, Note_off_c, 1, 69, 0
1, 34500, Note_on_c, 1, 67, 127
1, 34500, Note_on_c, 1, 55, 127
1, 34524, Note_off_c, 1, 67, 0
1, 34530, Note_on_c, 1, 69, 127
1, 34548, Note_off_c, 1, 55, 0
1, 34554, Note_off_c, 1, 69, 0
1, 34560, Note_on_c, 1, 70, 127
1, 34560, Note_on_c, 1, 50, 127
1, 34608, Note_off_c, 1, 50, 0
1, 34620, Note_on_c, 1, 55, 127
1, 34656, Note_off_c, 1, 70, 0
1, 34668, Note_off_c, 1, 55, 0
1, 34680, Note_on_c, 1, 72, 127
1, 34680, Note_on_c, 1, 51, 127
1, 34728, Note_off_c, 1, 51, 0
1, 34740, Note_on_c, 1, 55, 127
1, 34776, Note_off_c, 1, 72, 0
1, 34788, Note_off_c, 1, 55, 0
1, 34800, Note_on_c, 1, 70, 127
1, 34800, Note_on_c, 1, 50, 127
1, 34848, Note_off_c, 1, 50, 0
1, 34860, Note_on_c, 1, 55, 127
1, 34896, Note_off_c, 1, 70, 0
1, 34908, Note_off_c, 1, 55, 0
1, 34920, Note_on_c, 1, 69, 127
1, 34920, Note_on_c, 1, 48, 127
1, 34968, Note_off_c, 1, 48, 0
1, 34980, Note_on_c, 1, 55, 127
1, 35016, Note_off_c, 1, 69, 0
1, 35028, Note_off_c, 1, 55, 0
1, 35040, Note_on_c, 1, 67, 127
1, 35040, Note_on_c, 1, 46, 127
1, 35088, Note_off_c, 1, 46, 0
1, 35100, Note_on_c, 1, 55, 127
1, 35148, Note_off_c, 1, 55, 0
1, 35160, Note_on_c, 1, 75, 127
1, 35160, Note_on_c, 1, 48, 127
1, 35208, Note_off_c, 1, 48, 0
1, 35256, Note_off_c, 1, 75, 0
1, 35280, Note_on_c, 1, 74, 127
1, 35376, Note_off_c, 1, 74, 0
1, 35400, Note_on_c, 1, 72, 127
1, 35400, Note_on_c, 1, 45, 127
1, 35448, Note_off_c, 1, 45, 0
1, 35496, Note_off_c, 1, 72, 0
1, 35520, Note_on_c, 1, 70, 127
1, 35520, Note_on_c, 1, 43, 127
1, 35568, Note_off_c, 1, 43, 0
1, 35616, Note_off_c, 1, 67, 0
1, 35616, Note_off_c, 1, 70, 0
1, 35640, Note_on_c, 1, 67, 127
1, 35640, Note_on_c, 1, 72, 127
1, 35640, Note_on_c, 1, 45, 127
1, 35688, Note_off_c, 1, 45, 0
1, 35700, Note_on_c, 1, 55, 127
1, 35736, Note_off_c, 1, 67, 0
1, 35736, Note_off_c, 1, 72, 0
1, 35748, Note_off_c, 1, 55, 0
1, 35760, Note_on_c, 1, 74, 127
1, 35760, Note_on_c, 1, 65, 127
1, 35760, Note_on_c, 1, 47, 127
1, 35808, Note_off_c, 1, 47, 0
1, 35820, Note_on_c, 1, 55, 127
1, 35856, Note_off_c, 1, 74, 0
1, 35856, Note_off_c, 1, 65, 0
1, 35868, Note_off_c, 1, 55, 0
1, 35880, Note_on_c, 1, 76, 127
1, 35880, Note_on_c, 1, 64, 127
1, 35880, Note_on_c, 1, 49, 127
1, 35928, Note_off_c, 1, 49, 0
1, 35940, Note_on_c, 1, 55, 127
1, 35976, Note_off_c, 1, 76, 0
1, 35976, Note_off_c, 1, 64, 0
1, 35988, Note_off_c, 1, 55, 0
1, 36000, Note_on_c, 1, 69, 127
1, 36000, Note_on_c, 1, 62, 127
1, 36000, Note_on_c, 1, 53, 127
1, 36048, Note_off_c, 1, 53, 0
1, 36060, Note_on_c, 1, 55, 127
1, 36096, Note_off_c, 1, 69, 0
1, 36096, Note_off_c, 1, 62, 0
1, 36108, Note_off_c, 1, 55, 0
1, 36120, Note_on_c, 1, 62, 127
1, 36120, Note_on_c, 1, 69, 127
1, 36120, Note_on_c, 1, 53, 127
1, 36168, Note_off_c, 1, 62, 0
1, 36168, Note_off_c, 1, 53, 0
1, 36180, Note_on_c, 1, 64, 127
1, 36180, Note_on_c, 1, 52, 127
1, 36216, Note_off_c, 1, 69, 0
1, 36228, Note_off_c, 1, 64, 0
1, 36228, Note_off_c, 1, 52, 0
1, 36240, Note_on_c, 1, 74, 127
1, 36240, Note_on_c, 1, 65, 127
1, 36240, Note_on_c, 1, 50, 127
1, 36288, Note_off_c, 1, 50, 0
1, 36300, Note_on_c, 1, 52, 127
1, 36348, Note_off_c, 1, 52, 0
1, 36360, Note_on_c, 1, 53, 127
1, 36384, Note_off_c, 1, 74, 0
1, 36384, Note_off_c, 1, 65, 0
1, 36408, Note_off_c, 1, 53, 0
1, 36420, Note_on_c, 1, 65, 127
1, 36420, Note_on_c, 1, 74, 127
1, 36420, Note_on_c, 1, 50, 127
1, 36468, Note_off_c, 1, 65, 0
1, 36468, Note_off_c, 1, 74, 0
1, 36468, Note_off_c, 1, 50, 0
1, 36480, Note_on_c, 1, 74, 127
1, 36480, Note_on_c, 1, 64, 127
1, 36480, Note_on_c, 1, 55, 127
1, 36528, Note_off_c, 1, 55, 0
1, 36540, Note_on_c, 1, 57, 127
1, 36588, Note_off_c, 1, 57, 0
1, 36624, Note_off_c, 1, 74, 0
1, 36660, Note_on_c, 1, 76, 127
1, 36660, Note_on_c, 1, 53, 127
1, 36672, Note_off_c, 1, 64, 0
1, 36708, Note_off_c, 1, 76, 0
1, 36708, Note_off_c, 1, 53, 0
1, 36720, Note_on_c, 1, 73, 127
1, 36720, Note_on_c, 1, 52, 127
1, 36768, Note_off_c, 1, 52, 0
1, 36780, Note_on_c, 1, 57, 127
1, 36828, Note_off_c, 1, 57, 0
1, 36840, Note_on_c, 1, 55, 127
1, 36864, Note_off_c, 1, 73, 0
1, 36888, Note_off_c, 1, 55, 0
1, 36900, Note_on_c, 1, 74, 127
1, 36900, Note_on_c, 1, 57, 127
1, 36948, Note_off_c, 1, 74, 0
1, 36948, Note_off_c, 1, 57, 0
1, 36960, Note_on_c, 1, 74, 127
1, 36960, Note_on_c, 1, 53, 127
1, 37008, Note_off_c, 1, 74, 0
1, 37020, Note_on_c, 1, 69, 127
1, 37068, Note_off_c, 1, 69, 0
1, 37080, Note_on_c, 1, 71, 127
1, 37080, Note_on_c, 1, 57, 127
1, 37128, Note_off_c, 1, 71, 0
1, 37140, Note_on_c, 1, 73, 127
1, 37152, Note_off_c, 1, 53, 0
1, 37176, Note_off_c, 1, 57, 0
1, 37188, Note_off_c, 1, 73, 0
1, 37200, Note_on_c, 1, 74, 127
1, 37200, Note_on_c, 1, 62, 127
1, 37248, Note_off_c, 1, 74, 0
1, 37260, Note_on_c, 1, 76, 127
1, 37296, Note_off_c, 1, 62, 0
1, 37308, Note_off_c, 1, 76, 0
1, 37320, Note_on_c, 1, 77, 127
1, 37320, Note_on_c, 1, 62, 127
1, 37320, Note_on_c, 1, 58, 127
1, 37368, Note_off_c, 1, 77, 0
1, 37380, Note_on_c, 1, 74, 127
1, 37416, Note_off_c, 1, 62, 0
1, 37416, Note_off_c, 1, 58, 0
1, 37428, Note_off_c, 1, 74, 0
1, 37440, Note_on_c, 1, 79, 127
1, 37440, Note_on_c, 1, 62, 127
1, 37440, Note_on_c, 1, 52, 127
1, 37488, Note_off_c, 1, 79, 0
1, 37500, Note_on_c, 1, 81, 127
1, 37536, Note_off_c, 1, 62, 0
1, 37548, Note_off_c, 1, 81, 0
1, 37560, Note_on_c, 1, 61, 127
1, 37608, Note_off_c, 1, 61, 0
1, 37620, Note_on_c, 1, 77, 127
1, 37632, Note_off_c, 1, 52, 0
1, 37668, Note_off_c, 1, 77, 0
1, 37680, Note_on_c, 1, 76, 127
1, 37680, Note_on_c, 1, 64, 127
1, 37728, Note_off_c, 1, 76, 0
1, 37740, Note_on_c, 1, 81, 127
1, 37776, Note_off_c, 1, 64, 0
1, 37788, Note_off_c, 1, 81, 0
1, 37800, Note_on_c, 1, 79, 127
1, 37800, Note_on_c, 1, 64, 127
1, 37800, Note_on_c, 1, 61, 127
1, 37800, Note_on_c, 1, 57, 127
1, 37848, Note_off_c, 1, 79, 0
1, 37860, Note_on_c, 1, 81, 127
1, 37896, Note_off_c, 1, 64, 0
1, 37896, Note_off_c, 1, 61, 0
1, 37896, Note_off_c, 1, 57, 0
1, 37908, Note_off_c, 1, 81, 0
1, 37920, Note_on_c, 1, 77, 127
1, 37920, Note_on_c, 1, 64, 127
1, 37920, Note_on_c, 1, 57, 127
1, 37920, Note_on_c, 1, 50, 127
1, 37968, Note_off_c, 1, 77, 0
1, 37980, Note_on_c, 1, 79, 127
1, 38016, Note_off_c, 1, 64, 0
1, 38028, Note_off_c, 1, 79, 0
1, 38040, Note_on_c, 1, 62, 127
1, 38088, Note_off_c, 1, 62, 0
1, 38100, Note_on_c, 1, 76, 127
1, 38112, Note_off_c, 1, 57, 0
1, 38112, Note_off_c, 1, 50, 0
1, 38148, Note_off_c, 1, 76, 0
1, 38160, Note_on_c, 1, 74, 127
1, 38160, Note_on_c, 1, 65, 127
1, 38208, Note_off_c, 1, 74, 0
1, 38220, Note_on_c, 1, 77, 127
1, 38256, Note_off_c, 1, 65, 0
1, 38268, Note_off_c, 1, 77, 0
1, 38280, Note_on_c, 1, 79, 127
1, 38280, Note_on_c, 1, 65, 127
1, 38280, Note_on_c, 1, 62, 127
1, 38328, Note_off_c, 1, 79, 0
1, 38340, Note_on_c, 1, 81, 127
1, 38376, Note_off_c, 1, 65, 0
1, 38376, Note_off_c, 1, 62, 0
1, 38388, Note_off_c, 1, 81, 0
1, 38400, Note_on_c, 1, 82, 127
1, 38400, Note_on_c, 1, 65, 127
1, 38400, Note_on_c, 1, 62, 127
1, 38400, Note_on_c, 1, 55, 127
1, 38448, Note_off_c, 1, 82, 0
1, 38460, Note_on_c, 1, 84, 127
1, 38496, Note_off_c, 1, 65, 0
1, 38508, Note_off_c, 1, 84, 0
1, 38520, Note_on_c, 1, 64, 127
1, 38568, Note_off_c, 1, 64, 0
1, 38580, Note_on_c, 1, 81, 127
1, 38592, Note_off_c, 1, 62, 0
1, 38592, Note_off_c, 1, 55, 0
1, 38628, Note_off_c, 1, 81, 0
1, 38640, Note_on_c, 1, 79, 127
1, 38640, Note_on_c, 1, 67, 127
1, 38688, Note_off_c, 1, 79, 0
1, 38700, Note_on_c, 1, 84, 127
1, 38736, Note_off_c, 1, 67, 0
1, 38748, Note_off_c, 1, 84, 0
1, 38760, Note_on_c, 1, 82, 127
1, 38760, Note_on_c, 1, 67, 127
1, 38760, Note_on_c, 1, 64, 127
1, 38760, Note_on_c, 1, 60, 127
1, 38808, Note_off_c, 1, 82, 0
1, 38820, Note_on_c, 1, 84, 127
1, 38856, Note_off_c, 1, 67, 0
1, 38856, Note_off_c, 1, 64, 0
1, 38856, Note_off_c, 1, 60, 0
1, 38868, Note_off_c, 1, 84, 0
1, 38880, Note_on_c, 1, 81, 127
1, 38880, Note_on_c, 1, 67, 127
1, 38880, Note_on_c, 1, 60, 127
1, 38880, Note_on_c, 1, 53, 127
1, 38928, Note_off_c, 1, 81, 0
1, 38940, Note_on_c, 1, 82, 127
1, 38976, Note_off_c, 1, 67, 0
1, 38988, Note_off_c, 1, 82, 0
1, 39000, Note_on_c, 1, 65, 127
1, 39048, Note_off_c, 1, 65, 0
1, 39060, Note_on_c, 1, 79, 127
1, 39072, Note_off_c, 1, 60, 0
1, 39072, Note_off_c, 1, 53, 0
1, 39108, Note_off_c, 1, 79, 0
1, 39120, Note_on_c, 1, 77, 127
1, 39120, Note_on_c, 1, 69, 127
1, 39168, Note_off_c, 1, 77, 0
1, 39180, Note_on_c, 1, 76, 127
1, 39216, Note_off_c, 1, 69, 0
1, 39228, Note_off_c, 1, 76, 0
1, 39240, Note_on_c, 1, 74, 127
1, 39240, Note_on_c, 1, 69, 127
1, 39240, Note_on_c, 1, 62, 127
1, 39288, Note_off_c, 1, 74, 0
1, 39300, Note_on_c, 1, 73, 127
1, 39336, Note_off_c, 1, 69, 0
1, 39336, Note_off_c, 1, 62, 0
1, 39348, Note_off_c, 1, 73, 0
1, 39360, Note_on_c, 1, 69, 127
1, 39360, Note_on_c, 1, 74, 127
1, 39360, Note_on_c, 1, 59, 127
1, 39408, Note_off_c, 1, 69, 0
1, 39420, Note_on_c, 1, 72, 127
1, 39456, Note_off_c, 1, 59, 0
1, 39468, Note_off_c, 1, 72, 0
1, 39480, Note_on_c, 1, 71, 127
1, 39480, Note_on_c, 1, 60, 127
1, 39528, Note_off_c, 1, 71, 0
1, 39528, Note_off_c, 1, 60, 0
1, 39540, Note_on_c, 1, 62, 127
1, 39588, Note_off_c, 1, 62, 0
1, 39600, Note_on_c, 1, 68, 127
1, 39600, Note_on_c, 1, 64, 127
1, 39648, Note_off_c, 1, 68, 0
1, 39696, Note_off_c, 1, 64, 0
1, 39720, Note_on_c, 1, 66, 127
1, 39720, Note_on_c, 1, 52, 127
1, 39768, Note_off_c, 1, 66, 0
1, 39816, Note_off_c, 1, 52, 0
1, 39840, Note_on_c, 1, 57, 127
1, 39888, Note_off_c, 1, 74, 0
1, 40128, Note_off_c, 1, 57, 0
1, 40140, Note_on_c, 1, 71, 127
1, 40140, Note_on_c, 1, 56, 127
1, 40188, Note_off_c, 1, 71, 0
1, 40188, Note_off_c, 1, 56, 0
1, 40200, Note_on_c, 1, 72, 127
1, 40200, Note_on_c, 1, 54, 127
1, 40248, Note_off_c, 1, 72, 0
1, 40248, Note_off_c, 1, 54, 0
1, 40260, Note_on_c, 1, 69, 127
1, 40260, Note_on_c, 1, 52, 127
1, 40308, Note_off_c, 1, 52, 0
1, 40320, Note_on_c, 1, 70, 127
1, 40320, Note_on_c, 1, 50, 127
1, 40368, Note_off_c, 1, 50, 0
1, 40380, Note_on_c, 1, 46, 127
1, 40428, Note_off_c, 1, 46, 0
1, 40440, Note_on_c, 1, 48, 127
1, 40464, Note_off_c, 1, 69, 0
1, 40488, Note_off_c, 1, 48, 0
1, 40512, Note_off_c, 1, 70, 0
1, 40560, Note_on_c, 1, 70, 127
1, 40560, Note_on_c, 1, 67, 127
1, 40560, Note_on_c, 1, 51, 127
1, 40608, Note_off_c, 1, 51, 0
1, 40620, Note_on_c, 1, 53, 127
1, 40668, Note_off_c, 1, 53, 0
1, 40680, Note_on_c, 1, 55, 127
1, 40704, Note_off_c, 1, 70, 0
1, 40728, Note_off_c, 1, 55, 0
1, 40800, Note_on_c, 1, 69, 127
1, 40800, Note_on_c, 1, 49, 127
1, 40848, Note_off_c, 1, 49, 0
1, 40860, Note_on_c, 1, 50, 127
1, 40908, Note_off_c, 1, 50, 0
1, 40944, Note_off_c, 1, 67, 0
1, 40980, Note_on_c, 1, 47, 127
1, 40992, Note_off_c, 1, 69, 0
1, 41028, Note_off_c, 1, 47, 0
1, 41040, Note_on_c, 1, 69, 127
1, 41040, Note_on_c, 1, 65, 127
1, 41040, Note_on_c, 1, 45, 127
1, 41088, Note_off_c, 1, 45, 0
1, 41100, Note_on_c, 1, 50, 127
1, 41148, Note_off_c, 1, 50, 0
1, 41160, Note_on_c, 1, 48, 127
1, 41184, Note_off_c, 1, 69, 0
1, 41184, Note_off_c, 1, 65, 0
1, 41208, Note_off_c, 1, 48, 0
1, 41220, Note_on_c, 1, 69, 127
1, 41220, Note_on_c, 1, 65, 127
1, 41220, Note_on_c, 1, 50, 127
1, 41268, Note_off_c, 1, 69, 0
1, 41268, Note_off_c, 1, 50, 0
1, 41280, Note_on_c, 1, 43, 127
1, 41328, Note_off_c, 1, 65, 0
1, 41340, Note_on_c, 1, 64, 127
1, 41340, Note_on_c, 1, 72, 127
1, 41376, Note_off_c, 1, 43, 0
1, 41388, Note_off_c, 1, 64, 0
1, 41388, Note_off_c, 1, 72, 0
1, 41400, Note_on_c, 1, 62, 127
1, 41400, Note_on_c, 1, 70, 127
1, 41448, Note_off_c, 1, 62, 0
1, 41448, Note_off_c, 1, 70, 0
1, 41460, Note_on_c, 1, 60, 127
1, 41460, Note_on_c, 1, 69, 127
1, 41508, Note_off_c, 1, 60, 0
1, 41508, Note_off_c, 1, 69, 0
1, 41520, Note_on_c, 1, 67, 127
1, 41520, Note_on_c, 1, 58, 127
1, 41568, Note_off_c, 1, 67, 0
1, 41568, Note_off_c, 1, 58, 0
1, 41580, Note_on_c, 1, 65, 127
1, 41580, Note_on_c, 1, 57, 127
1, 41628, Note_off_c, 1, 65, 0
1, 41628, Note_off_c, 1, 57, 0
1, 41640, Note_on_c, 1, 64, 127
1, 41640, Note_on_c, 1, 55, 127
1, 41688, Note_off_c, 1, 64, 0
1, 41688, Note_off_c, 1, 55, 0
1, 41700, Note_on_c, 1, 62, 127
1, 41700, Note_on_c, 1, 53, 127
1, 41748, Note_off_c, 1, 62, 0
1, 41748, Note_off_c, 1, 53, 0
1, 41760, Note_on_c, 1, 61, 127
1, 41760, Note_on_c, 1, 52, 127
1, 41820, Note_on_c, 1, 46, 127
1, 41856, Note_off_c, 1, 61, 0
1, 41868, Note_off_c, 1, 46, 0
1, 41880, Note_on_c, 1, 57, 127
1, 41880, Note_on_c, 1, 45, 127
1, 41928, Note_off_c, 1, 45, 0
1, 41940, Note_on_c, 1, 43, 127
1, 41952, Note_off_c, 1, 52, 0
1, 41976, Note_off_c, 1, 57, 0
1, 41988, Note_off_c, 1, 43, 0
1, 42000, Note_on_c, 1, 62, 127
1, 42000, Note_on_c, 1, 69, 127
1, 42000, Note_on_c, 1, 41, 127
1, 42000, Note_on_c, 1, 57, 127
1, 42048, Note_off_c, 1, 41, 0
1, 42060, Note_on_c, 1, 40, 127
1, 42096, Note_off_c, 1, 62, 0
1, 42108, Note_off_c, 1, 40, 0
1, 42120, Note_on_c, 1, 38, 127
1, 42144, Note_off_c, 1, 69, 0
1, 42144, Note_off_c, 1, 57, 0
1, 42168, Note_off_c, 1, 38, 0
1, 42180, Note_on_c, 1, 64, 127
1, 42180, Note_on_c, 1, 57, 127
1, 42180, Note_on_c, 1, 37, 127
1, 42228, Note_off_c, 1, 64, 0
1, 42228, Note_off_c, 1, 57, 0
1, 42228, Note_off_c, 1, 37, 0
1, 42240, Note_on_c, 1, 65, 127
1, 42240, Note_on_c, 1, 62, 127
1, 42240, Note_on_c, 1, 57, 127
1, 42240, Note_on_c, 1, 38, 127
1, 42336, Note_off_c, 1, 57, 0
1, 42336, Note_off_c, 1, 38, 0
1, 42360, Note_on_c, 1, 59, 127
1, 42360, Note_on_c, 1, 43, 127
1, 42384, Note_off_c, 1, 65, 0
1, 42420, Note_on_c, 1, 67, 127
1, 42432, Note_off_c, 1, 62, 0
1, 42456, Note_off_c, 1, 59, 0
1, 42456, Note_off_c, 1, 43, 0
1, 42468, Note_off_c, 1, 67, 0
1, 42480, Note_on_c, 1, 64, 127
1, 42480, Note_on_c, 1, 45, 127
1, 42480, Note_on_c, 1, 61, 127
1, 42576, Note_off_c, 1, 45, 0
1, 42624, Note_off_c, 1, 64, 0
1, 42660, Note_on_c, 1, 62, 127
1, 42672, Note_off_c, 1, 61, 0
1, 42708, Note_off_c, 1, 62, 0
1, 42720, Note_on_c, 1, 62, 127
1, 42720, Note_on_c, 1, 38, 127
1, 42768, Note_off_c, 1, 62, 0
1, 42780, Note_on_c, 1, 64, 127
1, 42828, Note_off_c, 1, 64, 0
1, 42840, Note_on_c, 1, 65, 127
1, 42888, Note_off_c, 1, 65, 0
1, 42900, Note_on_c, 1, 69, 127
1, 42912, Note_off_c, 1, 38, 0
1, 42948, Note_off_c, 1, 69, 0
1, 42960, Note_on_c, 1, 65, 127
1, 43008, Note_off_c, 1, 65, 0
1, 43020, Note_on_c, 1, 67, 127
1, 43068, Note_off_c, 1, 67, 0
1, 43080, Note_on_c, 1, 69, 127
1, 43080, Note_on_c, 1, 62, 127
1, 43128, Note_off_c, 1, 69, 0
1, 43140, Note_on_c, 1, 74, 127
1, 43176, Note_off_c, 1, 62, 0
1, 43188, Note_off_c, 1, 74, 0
1, 43200, Note_on_c, 1, 67, 127
1, 43200, Note_on_c, 1, 59, 127
1, 43248, Note_off_c, 1, 67, 0
1, 43260, Note_on_c, 1, 69, 127
1, 43296, Note_off_c, 1, 59, 0
1, 43308, Note_off_c, 1, 69, 0
1, 43320, Note_on_c, 1, 71, 127
1, 43320, Note_on_c, 1, 55, 127
1, 43368, Note_off_c, 1, 71, 0
1, 43380, Note_on_c, 1, 74, 127
1, 43416, Note_off_c, 1, 55, 0
1, 43428, Note_off_c, 1, 74, 0
1, 43440, Note_on_c, 1, 71, 127
1, 43488, Note_off_c, 1, 71, 0
1, 43500, Note_on_c, 1, 72, 127
1, 43548, Note_off_c, 1, 72, 0
1, 43560, Note_on_c, 1, 74, 127
1, 43560, Note_on_c, 1, 55, 127
1, 43608, Note_off_c, 1, 74, 0
1, 43620, Note_on_c, 1, 79, 127
1, 43656, Note_off_c, 1, 55, 0
1, 43668, Note_off_c, 1, 79, 0
1, 43680, Note_on_c, 1, 60, 127
1, 43680, Note_on_c, 1, 52, 127
1, 43728, Note_off_c, 1, 60, 0
1, 43740, Note_on_c, 1, 62, 127
1, 43776, Note_off_c, 1, 52, 0
1, 43788, Note_off_c, 1, 62, 0
1, 43800, Note_on_c, 1, 64, 127
1, 43800, Note_on_c, 1, 48, 127
1, 43848, Note_off_c, 1, 64, 0
1, 43860, Note_on_c, 1, 67, 127
1, 43896, Note_off_c, 1, 48, 0
1, 43908, Note_off_c, 1, 67, 0
1, 43920, Note_on_c, 1, 64, 127
1, 43968, Note_off_c, 1, 64, 0
1, 43980, Note_on_c, 1, 65, 127
1, 44028, Note_off_c, 1, 65, 0
1, 44040, Note_on_c, 1, 67, 127
1, 44040, Note_on_c, 1, 60, 127
1, 44088, Note_off_c, 1, 67, 0
1, 44100, Note_on_c, 1, 72, 127
1, 44136, Note_off_c, 1, 60, 0
1, 44148, Note_off_c, 1, 72, 0
1, 44160, Note_on_c, 1, 65, 127
1, 44160, Note_on_c, 1, 57, 127
1, 44208, Note_off_c, 1, 65, 0
1, 44220, Note_on_c, 1, 67, 127
1, 44256, Note_off_c, 1, 57, 0
1, 44268, Note_off_c, 1, 67, 0
1, 44280, Note_on_c, 1, 69, 127
1, 44280, Note_on_c, 1, 53, 127
1, 44328, Note_off_c, 1, 69, 0
1, 44340, Note_on_c, 1, 72, 127
1, 44376, Note_off_c, 1, 53, 0
1, 44388, Note_off_c, 1, 72, 0
1, 44400, Note_on_c, 1, 69, 127
1, 44448, Note_off_c, 1, 69, 0
1, 44460, Note_on_c, 1, 70, 127
1, 44508, Note_off_c, 1, 70, 0
1, 44520, Note_on_c, 1, 72, 127
1, 44520, Note_on_c, 1, 53, 127
1, 44568, Note_off_c, 1, 72, 0
1, 44580, Note_on_c, 1, 77, 127
1, 44616, Note_off_c, 1, 53, 0
1, 44628, Note_off_c, 1, 77, 0
1, 44640, Note_on_c, 1, 59, 127
1, 44640, Note_on_c, 1, 50, 127
1, 44688, Note_off_c, 1, 59, 0
1, 44700, Note_on_c, 1, 60, 127
1, 44736, Note_off_c, 1, 50, 0
1, 44748, Note_off_c, 1, 60, 0
1, 44760, Note_on_c, 1, 62, 127
1, 44760, Note_on_c, 1, 47, 127
1, 44808, Note_off_c, 1, 62, 0
1, 44820, Note_on_c, 1, 65, 127
1, 44856, Note_off_c, 1, 47, 0
1, 44868, Note_off_c, 1, 65, 0
1, 44880, Note_on_c, 1, 62, 127
1, 44928, Note_off_c, 1, 62, 0
1, 44940, Note_on_c, 1, 64, 127
1, 44988, Note_off_c, 1, 64, 0
1, 45000, Note_on_c, 1, 65, 127
1, 45000, Note_on_c, 1, 59, 127
1, 45048, Note_off_c, 1, 65, 0
1, 45060, Note_on_c, 1, 71, 127
1, 45096, Note_off_c, 1, 59, 0
1, 45108, Note_off_c, 1, 71, 0
1, 45120, Note_on_c, 1, 64, 127
1, 45120, Note_on_c, 1, 56, 127
1, 45168, Note_off_c, 1, 64, 0
1, 45180, Note_on_c, 1, 66, 127
1, 45216, Note_off_c, 1, 56, 0
1, 45228, Note_off_c, 1, 66, 0
1, 45240, Note_on_c, 1, 68, 127
1, 45240, Note_on_c, 1, 52, 127
1, 45288, Note_off_c, 1, 68, 0
1, 45300, Note_on_c, 1, 71, 127
1, 45336, Note_off_c, 1, 52, 0
1, 45348, Note_off_c, 1, 71, 0
1, 45360, Note_on_c, 1, 68, 127
1, 45408, Note_off_c, 1, 68, 0
1, 45420, Note_on_c, 1, 69, 127
1, 45468, Note_off_c, 1, 69, 0
1, 45480, Note_on_c, 1, 71, 127
1, 45480, Note_on_c, 1, 52, 127
1, 45528, Note_off_c, 1, 71, 0
1, 45540, Note_on_c, 1, 76, 127
1, 45576, Note_off_c, 1, 52, 0
1, 45588, Note_off_c, 1, 76, 0
1, 45600, Note_on_c, 1, 69, 127
1, 45600, Note_on_c, 1, 48, 127
1, 45648, Note_off_c, 1, 69, 0
1, 45660, Note_on_c, 1, 71, 127
1, 45696, Note_off_c, 1, 48, 0
1, 45708, Note_off_c, 1, 71, 0
1, 45720, Note_on_c, 1, 72, 127
1, 45720, Note_on_c, 1, 45, 127
1, 45768, Note_off_c, 1, 72, 0
1, 45780, Note_on_c, 1, 76, 127
1, 45816, Note_off_c, 1, 45, 0
1, 45828, Note_off_c, 1, 76, 0
1, 45840, Note_on_c, 1, 67, 127
1, 45888, Note_off_c, 1, 67, 0
1, 45900, Note_on_c, 1, 69, 127
1, 45948, Note_off_c, 1, 69, 0
1, 45960, Note_on_c, 1, 70, 127
1, 45960, Note_on_c, 1, 49, 127
1, 46008, Note_off_c, 1, 70, 0
1, 46020, Note_on_c, 1, 76, 127
1, 46056, Note_off_c, 1, 49, 0
1, 46068, Note_off_c, 1, 76, 0
1, 46080, Note_on_c, 1, 66, 127
1, 46080, Note_on_c, 1, 50, 127
1, 46128, Note_off_c, 1, 66, 0
1, 46140, Note_on_c, 1, 67, 127
1, 46176, Note_off_c, 1, 50, 0
1, 46188, Note_off_c, 1, 67, 0
1, 46200, Note_on_c, 1, 69, 127
1, 46200, Note_on_c, 1, 38, 127
1, 46248, Note_off_c, 1, 69, 0
1, 46260, Note_on_c, 1, 76, 127
1, 46296, Note_off_c, 1, 38, 0
1, 46308, Note_off_c, 1, 76, 0
1, 46320, Note_on_c, 1, 65, 127
1, 46368, Note_off_c, 1, 65, 0
1, 46380, Note_on_c, 1, 67, 127
1, 46428, Note_off_c, 1, 67, 0
1, 46440, Note_on_c, 1, 69, 127
1, 46440, Note_on_c, 1, 53, 127
1, 46488, Note_off_c, 1, 69, 0
1, 46500, Note_on_c, 1, 74, 127
1, 46536, Note_off_c, 1, 53, 0
1, 46548, Note_off_c, 1, 74, 0
1, 46560, Note_on_c, 1, 64, 127
1, 46560, Note_on_c, 1, 44, 127
1, 46608, Note_off_c, 1, 64, 0
1, 46620, Note_on_c, 1, 66, 127
1, 46656, Note_off_c, 1, 44, 0
1, 46668, Note_off_c, 1, 66, 0
1, 46680, Note_on_c, 1, 68, 127
1, 46680, Note_on_c, 1, 52, 127
1, 46728, Note_off_c, 1, 68, 0
1, 46740, Note_on_c, 1, 74, 127
1, 46776, Note_off_c, 1, 52, 0
1, 46788, Note_off_c, 1, 74, 0
1, 46800, Note_on_c, 1, 64, 127
1, 46848, Note_off_c, 1, 64, 0
1, 46860, Note_on_c, 1, 68, 127
1, 46908, Note_off_c, 1, 68, 0
1, 46920, Note_on_c, 1, 69, 127
1, 46920, Note_on_c, 1, 57, 127
1, 46968, Note_off_c, 1, 69, 0
1, 46980, Note_on_c, 1, 72, 127
1, 47016, Note_off_c, 1, 57, 0
1, 47028, Note_off_c, 1, 72, 0
1, 47040, Note_on_c, 1, 63, 127
1, 47040, Note_on_c, 1, 59, 127
1, 47088, Note_off_c, 1, 63, 0
1, 47100, Note_on_c, 1, 64, 127
1, 47136, Note_off_c, 1, 59, 0
1, 47148, Note_off_c, 1, 64, 0
1, 47160, Note_on_c, 1, 66, 127
1, 47160, Note_on_c, 1, 57, 127
1, 47208, Note_off_c, 1, 66, 0
1, 47220, Note_on_c, 1, 72, 127
1, 47256, Note_off_c, 1, 57, 0
1, 47268, Note_off_c, 1, 72, 0
1, 47280, Note_on_c, 1, 62, 127
1, 47280, Note_on_c, 1, 59, 127
1, 47328, Note_off_c, 1, 62, 0
1, 47340, Note_on_c, 1, 64, 127
1, 47376, Note_off_c, 1, 59, 0
1, 47388, Note_off_c, 1, 64, 0
1, 47400, Note_on_c, 1, 65, 127
1, 47400, Note_on_c, 1, 56, 127
1, 47448, Note_off_c, 1, 65, 0
1, 47460, Note_on_c, 1, 71, 127
1, 47496, Note_off_c, 1, 56, 0
1, 47508, Note_off_c, 1, 71, 0
1, 47520, Note_on_c, 1, 61, 127
1, 47520, Note_on_c, 1, 57, 127
1, 47568, Note_off_c, 1, 61, 0
1, 47580, Note_on_c, 1, 62, 127
1, 47616, Note_off_c, 1, 57, 0
1, 47628, Note_off_c, 1, 62, 0
1, 47640, Note_on_c, 1, 64, 127
1, 47640, Note_on_c, 1, 55, 127
1, 47688, Note_off_c, 1, 64, 0
1, 47700, Note_on_c, 1, 71, 127
1, 47736, Note_off_c, 1, 55, 0
1, 47748, Note_off_c, 1, 71, 0
1, 47760, Note_on_c, 1, 60, 127
1, 47760, Note_on_c, 1, 53, 127
1, 47808, Note_off_c, 1, 60, 0
1, 47820, Note_on_c, 1, 62, 127
1, 47856, Note_off_c, 1, 53, 0
1, 47868, Note_off_c, 1, 62, 0
1, 47880, Note_on_c, 1, 64, 127
1, 47880, Note_on_c, 1, 48, 127
1, 47928, Note_off_c, 1, 64, 0
1, 47940, Note_on_c, 1, 69, 127
1, 47976, Note_off_c, 1, 48, 0
1, 47988, Note_off_c, 1, 69, 0
1, 48000, Note_on_c, 1, 59, 127
1, 48000, Note_on_c, 1, 50, 127
1, 48048, Note_off_c, 1, 59, 0
1, 48060, Note_on_c, 1, 60, 127
1, 48096, Note_off_c, 1, 50, 0
1, 48108, Note_off_c, 1, 60, 0
1, 48120, Note_on_c, 1, 62, 127
1, 48120, Note_on_c, 1, 47, 127
1, 48168, Note_off_c, 1, 62, 0
1, 48180, Note_on_c, 1, 69, 127
1, 48216, Note_off_c, 1, 47, 0
1, 48228, Note_off_c, 1, 69, 0
1, 48240, Note_on_c, 1, 59, 127
1, 48240, Note_on_c, 1, 52, 127
1, 48288, Note_off_c, 1, 59, 0
1, 48300, Note_on_c, 1, 60, 127
1, 48336, Note_off_c, 1, 52, 0
1, 48348, Note_off_c, 1, 60, 0
1, 48360, Note_on_c, 1, 62, 127
1, 48360, Note_on_c, 1, 40, 127
1, 48408, Note_off_c, 1, 62, 0
1, 48420, Note_on_c, 1, 68, 127
1, 48456, Note_off_c, 1, 40, 0
1, 48468, Note_off_c, 1, 68, 0
1, 48480, Note_on_c, 1, 60, 127
1, 48480, Note_on_c, 1, 69, 127
1, 48480, Note_on_c, 1, 45, 127
1, 48528, Note_off_c, 1, 45, 0
1, 48540, Note_on_c, 1, 52, 127
1, 48588, Note_off_c, 1, 52, 0
1, 48600, Note_on_c, 1, 54, 127
1, 48648, Note_off_c, 1, 54, 0
1, 48660, Note_on_c, 1, 56, 127
1, 48672, Note_off_c, 1, 60, 0
1, 48672, Note_off_c, 1, 69, 0
1, 48708, Note_off_c, 1, 56, 0
1, 48720, Note_on_c, 1, 57, 127
1, 48768, Note_off_c, 1, 57, 0
1, 48780, Note_on_c, 1, 59, 127
1, 48828, Note_off_c, 1, 59, 0
1, 48840, Note_on_c, 1, 60, 127
1, 48888, Note_off_c, 1, 60, 0
1, 48900, Note_on_c, 1, 57, 127
1, 48948, Note_off_c, 1, 57, 0
1, 48960, Note_on_c, 1, 62, 127
1, 49008, Note_off_c, 1, 62, 0
1, 49020, Note_on_c, 1, 64, 127
1, 49068, Note_off_c, 1, 64, 0
1, 49080, Note_on_c, 1, 62, 127
1, 49128, Note_off_c, 1, 62, 0
1, 49140, Note_on_c, 1, 60, 127
1, 49188, Note_off_c, 1, 60, 0
1, 49200, Note_on_c, 1, 59, 127
1, 49248, Note_off_c, 1, 59, 0
1, 49260, Note_on_c, 1, 64, 127
1, 49308, Note_off_c, 1, 64, 0
1, 49320, Note_on_c, 1, 62, 127
1, 49368, Note_off_c, 1, 62, 0
1, 49380, Note_on_c, 1, 64, 127
1, 49428, Note_off_c, 1, 64, 0
1, 49440, Note_on_c, 1, 60, 127
1, 49500, Note_on_c, 1, 77, 127
1, 49536, Note_off_c, 1, 60, 0
1, 49548, Note_off_c, 1, 77, 0
1, 49560, Note_on_c, 1, 76, 127
1, 49560, Note_on_c, 1, 52, 127
1, 49608, Note_off_c, 1, 76, 0
1, 49620, Note_on_c, 1, 74, 127
1, 49656, Note_off_c, 1, 52, 0
1, 49668, Note_off_c, 1, 74, 0
1, 49680, Note_on_c, 1, 72, 127
1, 49680, Note_on_c, 1, 57, 127
1, 49728, Note_off_c, 1, 72, 0
1, 49740, Note_on_c, 1, 71, 127
1, 49776, Note_off_c, 1, 57, 0
1, 49788, Note_off_c, 1, 71, 0
1, 49800, Note_on_c, 1, 69, 127
1, 49800, Note_on_c, 1, 57, 127
1, 49848, Note_off_c, 1, 69, 0
1, 49860, Note_on_c, 1, 72, 127
1, 49896, Note_off_c, 1, 57, 0
1, 49908, Note_off_c, 1, 72, 0
1, 49920, Note_on_c, 1, 65, 127
1, 49920, Note_on_c, 1, 57, 127
1, 49968, Note_off_c, 1, 65, 0
1, 49980, Note_on_c, 1, 76, 127
1, 50016, Note_off_c, 1, 57, 0
1, 50028, Note_off_c, 1, 76, 0
1, 50040, Note_on_c, 1, 74, 127
1, 50040, Note_on_c, 1, 56, 127
1, 50088, Note_off_c, 1, 74, 0
1, 50088, Note_off_c, 1, 56, 0
1, 50100, Note_on_c, 1, 72, 127
1, 50100, Note_on_c, 1, 57, 127
1, 50148, Note_off_c, 1, 72, 0
1, 50157, Note_off_c, 1, 57, 0
1, 50160, Note_on_c, 1, 71, 127
1, 50160, Note_on_c, 1, 59, 127
1, 50208, Note_off_c, 1, 71, 0
1, 50220, Note_on_c, 1, 69, 127
1, 50256, Note_off_c, 1, 59, 0
1, 50268, Note_off_c, 1, 69, 0
1, 50280, Note_on_c, 1, 68, 127
1, 50280, Note_on_c, 1, 59, 127
1, 50328, Note_off_c, 1, 68, 0
1, 50340, Note_on_c, 1, 71, 127
1, 50376, Note_off_c, 1, 59, 0
1, 50388, Note_off_c, 1, 71, 0
1, 50400, Note_on_c, 1, 64, 127
1, 50400, Note_on_c, 1, 59, 127
1, 50448, Note_off_c, 1, 64, 0
1, 50460, Note_on_c, 1, 74, 127
1, 50508, Note_off_c, 1, 74, 0
1, 50513, Note_off_c, 1, 59, 0
1, 50520, Note_on_c, 1, 72, 127
1, 50520, Note_on_c, 1, 57, 127
1, 50568, Note_off_c, 1, 72, 0
1, 50568, Note_off_c, 1, 57, 0
1, 50580, Note_on_c, 1, 71, 127
1, 50580, Note_on_c, 1, 59, 127
1, 50628, Note_off_c, 1, 71, 0
1, 50628, Note_off_c, 1, 59, 0
1, 50640, Note_on_c, 1, 69, 127
1, 50640, Note_on_c, 1, 60, 127
1, 50688, Note_off_c, 1, 69, 0
1, 50700, Note_on_c, 1, 67, 127
1, 50736, Note_off_c, 1, 60, 0
1, 50748, Note_off_c, 1, 67, 0
1, 50760, Note_on_c, 1, 65, 127
1, 50760, Note_on_c, 1, 60, 127
1, 50808, Note_off_c, 1, 65, 0
1, 50820, Note_on_c, 1, 69, 127
1, 50868, Note_off_c, 1, 69, 0
1, 50880, Note_on_c, 1, 62, 127
1, 50928, Note_off_c, 1, 60, 0
1, 51000, Note_on_c, 1, 68, 127
1, 51000, Note_on_c, 1, 59, 127
1, 51048, Note_off_c, 1, 68, 0
1, 51048, Note_off_c, 1, 59, 0
1, 51060, Note_on_c, 1, 57, 127
1, 51072, Note_off_c, 1, 62, 0
1, 51108, Note_off_c, 1, 57, 0
1, 51120, Note_on_c, 1, 71, 127
1, 51120, Note_on_c, 1, 56, 127
1, 51168, Note_off_c, 1, 56, 0
1, 51180, Note_on_c, 1, 54, 127
1, 51216, Note_off_c, 1, 71, 0
1, 51228, Note_off_c, 1, 54, 0
1, 51240, Note_on_c, 1, 71, 127
1, 51240, Note_on_c, 1, 62, 127
1, 51240, Note_on_c, 1, 68, 127
1, 51240, Note_on_c, 1, 52, 127
1, 51288, Note_off_c, 1, 52, 0
1, 51300, Note_on_c, 1, 56, 127
1, 51336, Note_off_c, 1, 71, 0
1, 51336, Note_off_c, 1, 62, 0
1, 51336, Note_off_c, 1, 68, 0
1, 51348, Note_off_c, 1, 56, 0
1, 51360, Note_on_c, 1, 71, 127
1, 51360, Note_on_c, 1, 64, 127
1, 51360, Note_on_c, 1, 68, 127
1, 51360, Note_on_c, 1, 48, 127
1, 51408, Note_off_c, 1, 48, 0
1, 51420, Note_on_c, 1, 53, 127
1, 51456, Note_off_c, 1, 71, 0
1, 51468, Note_off_c, 1, 53, 0
1, 51480, Note_on_c, 1, 69, 127
1, 51480, Note_on_c, 1, 52, 127
1, 51528, Note_off_c, 1, 69, 0
1, 51528, Note_off_c, 1, 52, 0
1, 51540, Note_on_c, 1, 50, 127
1, 51552, Note_off_c, 1, 64, 0
1, 51552, Note_off_c, 1, 68, 0
1, 51588, Note_off_c, 1, 50, 0
1, 51600, Note_on_c, 1, 72, 127
1, 51600, Note_on_c, 1, 48, 127
1, 51648, Note_off_c, 1, 48, 0
1, 51660, Note_on_c, 1, 47, 127
1, 51696, Note_off_c, 1, 72, 0
1, 51708, Note_off_c, 1, 47, 0
1, 51720, Note_on_c, 1, 64, 127
1, 51720, Note_on_c, 1, 69, 127
1, 51720, Note_on_c, 1, 72, 127
1, 51720, Note_on_c, 1, 45, 127
1, 51768, Note_off_c, 1, 45, 0
1, 51780, Note_on_c, 1, 48, 127
1, 51816, Note_off_c, 1, 64, 0
1, 51816, Note_off_c, 1, 69, 0
1, 51816, Note_off_c, 1, 72, 0
1, 51828, Note_off_c, 1, 48, 0
1, 51840, Note_on_c, 1, 69, 127
1, 51840, Note_on_c, 1, 72, 127
1, 51840, Note_on_c, 1, 62, 127
1, 51840, Note_on_c, 1, 42, 127
1, 51888, Note_off_c, 1, 42, 0
1, 51900, Note_on_c, 1, 52, 127
1, 51936, Note_off_c, 1, 69, 0
1, 51936, Note_off_c, 1, 72, 0
1, 51948, Note_off_c, 1, 52, 0
1, 51960, Note_on_c, 1, 68, 127
1, 51960, Note_on_c, 1, 71, 127
1, 51960, Note_on_c, 1, 50, 127
1, 52008, Note_off_c, 1, 68, 0
1, 52008, Note_off_c, 1, 71, 0
1, 52008, Note_off_c, 1, 50, 0
1, 52020, Note_on_c, 1, 48, 127
1, 52032, Note_off_c, 1, 62, 0
1, 52068, Note_off_c, 1, 48, 0
1, 52080, Note_on_c, 1, 71, 127
1, 52080, Note_on_c, 1, 74, 127
1, 52080, Note_on_c, 1, 47, 127
1, 52128, Note_off_c, 1, 47, 0
1, 52140, Note_on_c, 1, 45, 127
1, 52176, Note_off_c, 1, 71, 0
1, 52176, Note_off_c, 1, 74, 0
1, 52188, Note_off_c, 1, 45, 0
1, 52200, Note_on_c, 1, 65, 127
1, 52200, Note_on_c, 1, 74, 127
1, 52200, Note_on_c, 1, 71, 127
1, 52200, Note_on_c, 1, 44, 127
1, 52248, Note_off_c, 1, 44, 0
1, 52260, Note_on_c, 1, 47, 127
1, 52296, Note_off_c, 1, 65, 0
1, 52296, Note_off_c, 1, 74, 0
1, 52296, Note_off_c, 1, 71, 0
1, 52308, Note_off_c, 1, 47, 0
1, 52320, Note_on_c, 1, 71, 127
1, 52320, Note_on_c, 1, 74, 127
1, 52320, Note_on_c, 1, 64, 127
1, 52320, Note_on_c, 1, 40, 127
1, 52416, Note_off_c, 1, 71, 0
1, 52416, Note_off_c, 1, 74, 0
1, 52416, Note_off_c, 1, 40, 0
1, 52440, Note_on_c, 1, 72, 127
1, 52440, Note_on_c, 1, 69, 127
1, 52440, Note_on_c, 1, 48, 127
1, 52488, Note_off_c, 1, 72, 0
1, 52488, Note_off_c, 1, 48, 0
1, 52500, Note_on_c, 1, 50, 127
1, 52512, Note_off_c, 1, 64, 0
1, 52536, Note_off_c, 1, 69, 0
1, 52548, Note_off_c, 1, 50, 0
1, 52560, Note_on_c, 1, 71, 127
1, 52560, Note_on_c, 1, 68, 127
1, 52560, Note_on_c, 1, 52, 127
1, 52656, Note_off_c, 1, 52, 0
1, 52680, Note_on_c, 1, 40, 127
1, 52704, Note_off_c, 1, 71, 0
1, 52740, Note_on_c, 1, 69, 127
1, 52752, Note_off_c, 1, 68, 0
1, 52776, Note_off_c, 1, 40, 0
1, 52788, Note_off_c, 1, 69, 0
1, 52800, Note_on_c, 1, 69, 127
1, 52800, Note_on_c, 1, 45, 127
1, 52848, Note_off_c, 1, 69, 0
1, 52896, Note_off_c, 1, 45, 0
1, 52920, Note_on_c, 1, 72, 127
1, 52920, Note_on_c, 1, 57, 127
1, 52968, Note_off_c, 1, 72, 0
1, 52980, Note_on_c, 1, 76, 127
1, 53016, Note_off_c, 1, 57, 0
1, 53028, Note_off_c, 1, 76, 0
1, 53040, Note_on_c, 1, 72, 127
1, 53040, Note_on_c, 1, 57, 127
1, 53088, Note_off_c, 1, 72, 0
1, 53100, Note_on_c, 1, 69, 127
1, 53136, Note_off_c, 1, 57, 0
1, 53148, Note_off_c, 1, 69, 0
1, 53160, Note_on_c, 1, 72, 127
1, 53160, Note_on_c, 1, 55, 127
1, 53208, Note_off_c, 1, 72, 0
1, 53220, Note_on_c, 1, 76, 127
1, 53256, Note_off_c, 1, 55, 0
1, 53268, Note_off_c, 1, 76, 0
1, 53280, Note_on_c, 1, 81, 127
1, 53280, Note_on_c, 1, 53, 127
1, 53340, Note_on_c, 1, 65, 127
1, 53376, Note_off_c, 1, 81, 0
1, 53376, Note_off_c, 1, 53, 0
1, 53388, Note_off_c, 1, 65, 0
1, 53400, Note_on_c, 1, 69, 127
1, 53400, Note_on_c, 1, 81, 127
1, 53448, Note_off_c, 1, 69, 0
1, 53460, Note_on_c, 1, 72, 127
1, 53496, Note_off_c, 1, 81, 0
1, 53508, Note_off_c, 1, 72, 0
1, 53520, Note_on_c, 1, 69, 127
1, 53520, Note_on_c, 1, 81, 127
1, 53568, Note_off_c, 1, 69, 0
1, 53580, Note_on_c, 1, 65, 127
1, 53616, Note_off_c, 1, 81, 0
1, 53628, Note_off_c, 1, 65, 0
1, 53640, Note_on_c, 1, 69, 127
1, 53640, Note_on_c, 1, 81, 127
1, 53688, Note_off_c, 1, 69, 0
1, 53700, Note_on_c, 1, 72, 127
1, 53736, Note_off_c, 1, 81, 0
1, 53748, Note_off_c, 1, 72, 0
1, 53760, Note_on_c, 1, 81, 127
1, 53760, Note_on_c, 1, 74, 127
1, 53820, Note_on_c, 1, 58, 127
1, 53856, Note_off_c, 1, 81, 0
1, 53856, Note_off_c, 1, 74, 0
1, 53868, Note_off_c, 1, 58, 0
1, 53880, Note_on_c, 1, 81, 127
1, 53880, Note_on_c, 1, 77, 127
1, 53880, Note_on_c, 1, 62, 127
1, 53928, Note_off_c, 1, 62, 0
1, 53940, Note_on_c, 1, 65, 127
1, 53976, Note_off_c, 1, 81, 0
1, 53976, Note_off_c, 1, 77, 0
1, 53988, Note_off_c, 1, 65, 0
1, 54000, Note_on_c, 1, 81, 127
1, 54000, Note_on_c, 1, 77, 127
1, 54000, Note_on_c, 1, 62, 127
1, 54048, Note_off_c, 1, 62, 0
1, 54060, Note_on_c, 1, 58, 127
1, 54096, Note_off_c, 1, 81, 0
1, 54096, Note_off_c, 1, 77, 0
1, 54108, Note_off_c, 1, 58, 0
1, 54120, Note_on_c, 1, 77, 127
1, 54120, Note_on_c, 1, 81, 127
1, 54120, Note_on_c, 1, 62, 127
1, 54168, Note_off_c, 1, 62, 0
1, 54180, Note_on_c, 1, 65, 127
1, 54216, Note_off_c, 1, 77, 0
1, 54216, Note_off_c, 1, 81, 0
1, 54228, Note_off_c, 1, 65, 0
1, 54240, Note_on_c, 1, 79, 127
1, 54240, Note_on_c, 1, 67, 127
1, 54240, Note_on_c, 1, 77, 127
1, 54300, Note_on_c, 1, 52, 127
1, 54336, Note_off_c, 1, 79, 0
1, 54336, Note_off_c, 1, 67, 0
1, 54336, Note_off_c, 1, 77, 0
1, 54348, Note_off_c, 1, 52, 0
1, 54360, Note_on_c, 1, 70, 127
1, 54360, Note_on_c, 1, 79, 127
1, 54360, Note_on_c, 1, 76, 127
1, 54360, Note_on_c, 1, 55, 127
1, 54408, Note_off_c, 1, 55, 0
1, 54420, Note_on_c, 1, 58, 127
1, 54456, Note_off_c, 1, 70, 0
1, 54456, Note_off_c, 1, 79, 0
1, 54456, Note_off_c, 1, 76, 0
1, 54468, Note_off_c, 1, 58, 0
1, 54480, Note_on_c, 1, 70, 127
1, 54480, Note_on_c, 1, 79, 127
1, 54480, Note_on_c, 1, 76, 127
1, 54480, Note_on_c, 1, 55, 127
1, 54528, Note_off_c, 1, 55, 0
1, 54540, Note_on_c, 1, 52, 127
1, 54576, Note_off_c, 1, 70, 0
1, 54576, Note_off_c, 1, 79, 0
1, 54576, Note_off_c, 1, 76, 0
1, 54588, Note_off_c, 1, 52, 0
1, 54600, Note_on_c, 1, 79, 127
1, 54600, Note_on_c, 1, 70, 127
1, 54600, Note_on_c, 1, 76, 127
1, 54600, Note_on_c, 1, 55, 127
1, 54648, Note_off_c, 1, 55, 0
1, 54660, Note_on_c, 1, 58, 127
1, 54696, Note_off_c, 1, 79, 0
1, 54696, Note_off_c, 1, 70, 0
1, 54696, Note_off_c, 1, 76, 0
1, 54708, Note_off_c, 1, 58, 0
1, 54720, Note_on_c, 1, 69, 127
1, 54720, Note_on_c, 1, 76, 127
1, 54720, Note_on_c, 1, 79, 127
1, 54720, Note_on_c, 1, 61, 127
1, 54768, Note_off_c, 1, 61, 0
1, 54780, Note_on_c, 1, 45, 127
1, 54816, Note_off_c, 1, 69, 0
1, 54816, Note_off_c, 1, 76, 0
1, 54816, Note_off_c, 1, 79, 0
1, 54828, Note_off_c, 1, 45, 0
1, 54840, Note_on_c, 1, 69, 127
1, 54840, Note_on_c, 1, 76, 127
1, 54840, Note_on_c, 1, 79, 127
1, 54840, Note_on_c, 1, 49, 127
1, 54888, Note_off_c, 1, 49, 0
1, 54900, Note_on_c, 1, 52, 127
1, 54936, Note_off_c, 1, 69, 0
1, 54936, Note_off_c, 1, 76, 0
1, 54936, Note_off_c, 1, 79, 0
1, 54948, Note_off_c, 1, 52, 0
1, 54960, Note_on_c, 1, 79, 127
1, 54960, Note_on_c, 1, 69, 127
1, 54960, Note_on_c, 1, 76, 127
1, 54960, Note_on_c, 1, 49, 127
1, 55008, Note_off_c, 1, 49, 0
1, 55020, Note_on_c, 1, 45, 127
1, 55056, Note_off_c, 1, 79, 0
1, 55056, Note_off_c, 1, 69, 0
1, 55056, Note_off_c, 1, 76, 0
1, 55068, Note_off_c, 1, 45, 0
1, 55080, Note_on_c, 1, 76, 127
1, 55080, Note_on_c, 1, 69, 127
1, 55080, Note_on_c, 1, 79, 127
1, 55080, Note_on_c, 1, 49, 127
1, 55128, Note_off_c, 1, 49, 0
1, 55140, Note_on_c, 1, 52, 127
1, 55176, Note_off_c, 1, 76, 0
1, 55176, Note_off_c, 1, 69, 0
1, 55176, Note_off_c, 1, 79, 0
1, 55188, Note_off_c, 1, 52, 0
1, 55200, Note_on_c, 1, 79, 127
1, 55200, Note_on_c, 1, 69, 127
1, 55200, Note_on_c, 1, 76, 127
1, 55200, Note_on_c, 1, 53, 127
1, 55248, Note_off_c, 1, 53, 0
1, 55260, Note_on_c, 1, 38, 127
1, 55296, Note_off_c, 1, 79, 0
1, 55296, Note_off_c, 1, 69, 0
1, 55296, Note_off_c, 1, 76, 0
1, 55308, Note_off_c, 1, 38, 0
1, 55320, Note_on_c, 1, 77, 127
1, 55320, Note_on_c, 1, 74, 127
1, 55320, Note_on_c, 1, 69, 127
1, 55320, Note_on_c, 1, 41, 127
1, 55368, Note_off_c, 1, 41, 0
1, 55380, Note_on_c, 1, 45, 127
1, 55416, Note_off_c, 1, 77, 0
1, 55416, Note_off_c, 1, 74, 0
1, 55416, Note_off_c, 1, 69, 0
1, 55428, Note_off_c, 1, 45, 0
1, 55440, Note_on_c, 1, 69, 127
1, 55440, Note_on_c, 1, 74, 127
1, 55440, Note_on_c, 1, 77, 127
1, 55440, Note_on_c, 1, 41, 127
1, 55488, Note_off_c, 1, 41, 0
1, 55500, Note_on_c, 1, 38, 127
1, 55536, Note_off_c, 1, 69, 0
1, 55536, Note_off_c, 1, 74, 0
1, 55536, Note_off_c, 1, 77, 0
1, 55548, Note_off_c, 1, 38, 0
1, 55560, Note_on_c, 1, 74, 127
1, 55560, Note_on_c, 1, 69, 127
1, 55560, Note_on_c, 1, 77, 127
1, 55560, Note_on_c, 1, 41, 127
1, 55608, Note_off_c, 1, 41, 0
1, 55620, Note_on_c, 1, 45, 127
1, 55656, Note_off_c, 1, 74, 0
1, 55656, Note_off_c, 1, 69, 0
1, 55656, Note_off_c, 1, 77, 0
1, 55668, Note_off_c, 1, 45, 0
1, 55680, Note_on_c, 1, 67, 127
1, 55680, Note_on_c, 1, 77, 127
1, 55680, Note_on_c, 1, 74, 127
1, 55680, Note_on_c, 1, 46, 127
1, 55728, Note_off_c, 1, 67, 0
1, 55728, Note_off_c, 1, 77, 0
1, 55728, Note_off_c, 1, 74, 0
1, 55800, Note_on_c, 1, 70, 127
1, 55848, Note_off_c, 1, 70, 0
1, 55872, Note_off_c, 1, 46, 0
1, 55920, Note_on_c, 1, 70, 127
1, 55968, Note_off_c, 1, 70, 0
1, 55980, Note_on_c, 1, 67, 127
1, 56028, Note_off_c, 1, 67, 0
1, 56040, Note_on_c, 1, 70, 127
1, 56040, Note_on_c, 1, 58, 127
1, 56088, Note_off_c, 1, 70, 0
1, 56100, Note_on_c, 1, 74, 127
1, 56136, Note_off_c, 1, 58, 0
1, 56148, Note_off_c, 1, 74, 0
1, 56160, Note_on_c, 1, 76, 127
1, 56160, Note_on_c, 1, 49, 127
1, 56256, Note_off_c, 1, 76, 0
1, 56256, Note_off_c, 1, 49, 0
1, 56280, Note_on_c, 1, 65, 127
1, 56280, Note_on_c, 1, 74, 127
1, 56280, Note_on_c, 1, 69, 127
1, 56280, Note_on_c, 1, 50, 127
1, 56376, Note_off_c, 1, 65, 0
1, 56376, Note_off_c, 1, 74, 0
1, 56376, Note_off_c, 1, 69, 0
1, 56376, Note_off_c, 1, 50, 0
1, 56400, Note_on_c, 1, 64, 127
1, 56400, Note_on_c, 1, 69, 127
1, 56400, Note_on_c, 1, 74, 127
1, 56400, Note_on_c, 1, 57, 127
1, 56496, Note_off_c, 1, 64, 0
1, 56496, Note_off_c, 1, 69, 0
1, 56496, Note_off_c, 1, 74, 0
1, 56496, Note_off_c, 1, 57, 0
1, 56520, Note_on_c, 1, 64, 127
1, 56520, Note_on_c, 1, 69, 127
1, 56520, Note_on_c, 1, 73, 127
1, 56520, Note_on_c, 1, 67, 127
1, 56520, Note_on_c, 1, 45, 127
1, 56616, Note_off_c, 1, 64, 0
1, 56616, Note_off_c, 1, 69, 0
1, 56616, Note_off_c, 1, 73, 0
1, 56616, Note_off_c, 1, 67, 0
1, 56616, Note_off_c, 1, 45, 0
1, 56640, Note_on_c, 1, 69, 127
1, 56640, Note_on_c, 1, 65, 127
1, 56640, Note_on_c, 1, 74, 127
1, 56640, Note_on_c, 1, 38, 127
1, 56688, Note_off_c, 1, 69, 0
1, 56688, Note_off_c, 1, 65, 0
1, 56688, Note_off_c, 1, 74, 0
1, 56700, Note_on_c, 1, 57, 127
1, 56748, Note_off_c, 1, 57, 0
1, 56760, Note_on_c, 1, 59, 127
1, 56808, Note_off_c, 1, 59, 0
1, 56820, Note_on_c, 1, 61, 127
1, 56832, Note_off_c, 1, 38, 0
1, 56868, Note_off_c, 1, 61, 0
1, 56880, Note_on_c, 1, 62, 127
1, 56928, Note_off_c, 1, 62, 0
1, 56940, Note_on_c, 1, 64, 127
1, 56988, Note_off_c, 1, 64, 0
1, 57000, Note_on_c, 1, 65, 127
1, 57000, Note_on_c, 1, 57, 127
1, 57000, Note_on_c, 1, 50, 127
1, 57048, Note_off_c, 1, 65, 0
1, 57060, Note_on_c, 1, 62, 127
1, 57096, Note_off_c, 1, 57, 0
1, 57096, Note_off_c, 1, 50, 0
1, 57108, Note_off_c, 1, 62, 0
1, 57120, Note_on_c, 1, 67, 127
1, 57120, Note_on_c, 1, 50, 127
1, 57120, Note_on_c, 1, 58, 127
1, 57168, Note_off_c, 1, 67, 0
1, 57180, Note_on_c, 1, 69, 127
1, 57216, Note_off_c, 1, 50, 0
1, 57228, Note_off_c, 1, 69, 0
1, 57240, Note_on_c, 1, 52, 127
1, 57288, Note_off_c, 1, 52, 0
1, 57300, Note_on_c, 1, 65, 127
1, 57312, Note_off_c, 1, 58, 0
1, 57348, Note_off_c, 1, 65, 0
1, 57360, Note_on_c, 1, 64, 127
1, 57360, Note_on_c, 1, 48, 127
1, 57408, Note_off_c, 1, 64, 0
1, 57420, Note_on_c, 1, 69, 127
1, 57456, Note_off_c, 1, 48, 0
1, 57468, Note_off_c, 1, 69, 0
1, 57480, Note_on_c, 1, 67, 127
1, 57480, Note_on_c, 1, 48, 127
1, 57480, Note_on_c, 1, 52, 127
1, 57528, Note_off_c, 1, 67, 0
1, 57540, Note_on_c, 1, 69, 127
1, 57576, Note_off_c, 1, 48, 0
1, 57576, Note_off_c, 1, 52, 0
1, 57588, Note_off_c, 1, 69, 0
1, 57600, Note_on_c, 1, 66, 127
1, 57600, Note_on_c, 1, 48, 127
1, 57600, Note_on_c, 1, 57, 127
1, 57648, Note_off_c, 1, 66, 0
1, 57660, Note_on_c, 1, 62, 127
1, 57696, Note_off_c, 1, 48, 0
1, 57708, Note_off_c, 1, 62, 0
1, 57720, Note_on_c, 1, 64, 127
1, 57720, Note_on_c, 1, 50, 127
1, 57768, Note_off_c, 1, 64, 0
1, 57768, Note_off_c, 1, 50, 0
1, 57792, Note_off_c, 1, 57, 0
1, 57840, Note_on_c, 1, 67, 127
1, 57840, Note_on_c, 1, 46, 127
1, 57888, Note_off_c, 1, 67, 0
1, 57900, Note_on_c, 1, 69, 127
1, 57936, Note_off_c, 1, 46, 0
1, 57948, Note_off_c, 1, 69, 0
1, 57960, Note_on_c, 1, 70, 127
1, 57960, Note_on_c, 1, 55, 127
1, 57960, Note_on_c, 1, 46, 127
1, 58008, Note_off_c, 1, 70, 0
1, 58020, Note_on_c, 1, 67, 127
1, 58056, Note_off_c, 1, 55, 0
1, 58056, Note_off_c, 1, 46, 0
1, 58068, Note_off_c, 1, 67, 0
1, 58080, Note_on_c, 1, 72, 127
1, 58080, Note_on_c, 1, 46, 127
1, 58080, Note_on_c, 1, 52, 127
1, 58128, Note_off_c, 1, 72, 0
1, 58140, Note_on_c, 1, 64, 127
1, 58176, Note_off_c, 1, 46, 0
1, 58188, Note_off_c, 1, 64, 0
1, 58200, Note_on_c, 1, 66, 127
1, 58200, Note_on_c, 1, 48, 127
1, 58248, Note_off_c, 1, 66, 0
1, 58248, Note_off_c, 1, 48, 0
1, 58260, Note_on_c, 1, 67, 127
1, 58272, Note_off_c, 1, 52, 0
1, 58308, Note_off_c, 1, 67, 0
1, 58320, Note_on_c, 1, 69, 127
1, 58320, Note_on_c, 1, 45, 127
1, 58368, Note_off_c, 1, 69, 0
1, 58380, Note_on_c, 1, 70, 127
1, 58416, Note_off_c, 1, 45, 0
1, 58428, Note_off_c, 1, 70, 0
1, 58440, Note_on_c, 1, 72, 127
1, 58440, Note_on_c, 1, 54, 127
1, 58440, Note_on_c, 1, 45, 127
1, 58488, Note_off_c, 1, 72, 0
1, 58500, Note_on_c, 1, 69, 127
1, 58536, Note_off_c, 1, 54, 0
1, 58536, Note_off_c, 1, 45, 0
1, 58548, Note_off_c, 1, 69, 0
1, 58560, Note_on_c, 1, 74, 127
1, 58560, Note_on_c, 1, 45, 127
1, 58560, Note_on_c, 1, 58, 127
1, 58608, Note_off_c, 1, 74, 0
1, 58620, Note_on_c, 1, 66, 127
1, 58656, Note_off_c, 1, 45, 0
1, 58668, Note_off_c, 1, 66, 0
1, 58680, Note_on_c, 1, 67, 127
1, 58680, Note_on_c, 1, 46, 127
1, 58728, Note_off_c, 1, 67, 0
1, 58728, Note_off_c, 1, 46, 0
1, 58740, Note_on_c, 1, 69, 127
1, 58752, Note_off_c, 1, 58, 0
1, 58788, Note_off_c, 1, 69, 0
1, 58800, Note_on_c, 1, 70, 127
1, 58800, Note_on_c, 1, 43, 127
1, 58848, Note_off_c, 1, 70, 0
1, 58860, Note_on_c, 1, 72, 127
1, 58896, Note_off_c, 1, 43, 0
1, 58908, Note_off_c, 1, 72, 0
1, 58920, Note_on_c, 1, 74, 127
1, 58920, Note_on_c, 1, 58, 127
1, 58920, Note_on_c, 1, 55, 127
1, 58968, Note_off_c, 1, 74, 0
1, 58980, Note_on_c, 1, 70, 127
1, 59016, Note_off_c, 1, 58, 0
1, 59016, Note_off_c, 1, 55, 0
1, 59028, Note_off_c, 1, 70, 0
1, 59040, Note_on_c, 1, 75, 127
1, 59040, Note_on_c, 1, 55, 127
1, 59040, Note_on_c, 1, 57, 127
1, 59040, Note_on_c, 1, 60, 127
1, 59088, Note_off_c, 1, 75, 0
1, 59100, Note_on_c, 1, 74, 127
1, 59136, Note_off_c, 1, 55, 0
1, 59136, Note_off_c, 1, 57, 0
1, 59136, Note_off_c, 1, 60, 0
1, 59148, Note_off_c, 1, 74, 0
1, 59160, Note_on_c, 1, 72, 127
1, 59160, Note_on_c, 1, 57, 127
1, 59208, Note_off_c, 1, 72, 0
1, 59208, Note_off_c, 1, 57, 0
1, 59220, Note_on_c, 1, 70, 127
1, 59220, Note_on_c, 1, 55, 127
1, 59268, Note_off_c, 1, 70, 0
1, 59268, Note_off_c, 1, 55, 0
1, 59280, Note_on_c, 1, 69, 127
1, 59280, Note_on_c, 1, 54, 127
1, 59328, Note_off_c, 1, 69, 0
1, 59340, Note_on_c, 1, 74, 127
1, 59376, Note_off_c, 1, 54, 0
1, 59388, Note_off_c, 1, 74, 0
1, 59400, Note_on_c, 1, 72, 127
1, 59400, Note_on_c, 1, 50, 127
1, 59400, Note_on_c, 1, 54, 127
1, 59448, Note_off_c, 1, 72, 0
1, 59460, Note_on_c, 1, 74, 127
1, 59496, Note_off_c, 1, 50, 0
1, 59496, Note_off_c, 1, 54, 0
1, 59508, Note_off_c, 1, 74, 0
1, 59520, Note_on_c, 1, 70, 127
1, 59520, Note_on_c, 1, 55, 127
1, 59568, Note_off_c, 1, 55, 0
1, 59580, Note_on_c, 1, 69, 127
1, 59580, Note_on_c, 1, 53, 127
1, 59628, Note_off_c, 1, 69, 0
1, 59628, Note_off_c, 1, 53, 0
1, 59640, Note_on_c, 1, 67, 127
1, 59640, Note_on_c, 1, 51, 127
1, 59688, Note_off_c, 1, 67, 0
1, 59688, Note_off_c, 1, 51, 0
1, 59700, Note_on_c, 1, 65, 127
1, 59700, Note_on_c, 1, 50, 127
1, 59748, Note_off_c, 1, 65, 0
1, 59748, Note_off_c, 1, 50, 0
1, 59760, Note_on_c, 1, 63, 127
1, 59760, Note_on_c, 1, 48, 127
1, 59808, Note_off_c, 1, 70, 0
1, 59808, Note_off_c, 1, 48, 0
1, 59952, Note_off_c, 1, 63, 0
1, 60000, Note_on_c, 1, 62, 127
1, 60000, Note_on_c, 1, 46, 127
1, 60048, Note_off_c, 1, 46, 0
1, 60192, Note_off_c, 1, 62, 0
1, 60240, Note_on_c, 1, 60, 127
1, 60240, Note_on_c, 1, 45, 127
1, 60288, Note_off_c, 1, 45, 0
1, 60360, Note_on_c, 1, 66, 127
1, 60432, Note_off_c, 1, 60, 0
1, 60456, Note_off_c, 1, 66, 0
1, 60480, Note_on_c, 1, 67, 127
1, 60480, Note_on_c, 1, 58, 127
1, 60480, Note_on_c, 1, 43, 127
1, 60528, Note_off_c, 1, 67, 0
1, 60540, Note_on_c, 1, 65, 127
1, 60576, Note_off_c, 1, 58, 0
1, 60576, Note_off_c, 1, 43, 0
1, 60588, Note_off_c, 1, 65, 0
1, 60600, Note_on_c, 1, 63, 127
1, 60600, Note_on_c, 1, 46, 127
1, 60648, Note_off_c, 1, 63, 0
1, 60660, Note_on_c, 1, 62, 127
1, 60696, Note_off_c, 1, 46, 0
1, 60708, Note_off_c, 1, 62, 0
1, 60720, Note_on_c, 1, 63, 127
1, 60720, Note_on_c, 1, 48, 127
1, 60780, Note_on_c, 1, 58, 127
1, 60816, Note_off_c, 1, 48, 0
1, 60828, Note_off_c, 1, 58, 0
1, 60840, Note_on_c, 1, 60, 127
1, 60840, Note_on_c, 1, 57, 127
1, 60840, Note_on_c, 1, 45, 127
1, 60888, Note_off_c, 1, 60, 0
1, 60900, Note_on_c, 1, 54, 127
1, 60912, Note_off_c, 1, 63, 0
1, 60936, Note_off_c, 1, 57, 0
1, 60936, Note_off_c, 1, 45, 0
1, 60948, Note_off_c, 1, 54, 0
1, 60960, Note_on_c, 1, 55, 127
1, 60960, Note_on_c, 1, 46, 127
1, 61008, Note_off_c, 1, 55, 0
1, 61020, Note_on_c, 1, 63, 127
1, 61056, Note_off_c, 1, 46, 0
1, 61068, Note_off_c, 1, 63, 0
1, 61080, Note_on_c, 1, 62, 127
1, 61080, Note_on_c, 1, 48, 127
1, 61128, Note_off_c, 1, 62, 0
1, 61140, Note_on_c, 1, 60, 127
1, 61176, Note_off_c, 1, 48, 0
1, 61188, Note_off_c, 1, 60, 0
1, 61200, Note_on_c, 1, 58, 127
1, 61200, Note_on_c, 1, 50, 127
1, 61248, Note_off_c, 1, 58, 0
1, 61260, Note_on_c, 1, 67, 127
1, 61296, Note_off_c, 1, 50, 0
1, 61308, Note_off_c, 1, 67, 0
1, 61320, Note_on_c, 1, 57, 127
1, 61320, Note_on_c, 1, 38, 127
1, 61368, Note_off_c, 1, 57, 0
1, 61380, Note_on_c, 1, 66, 127
1, 61416, Note_off_c, 1, 38, 0
1, 61428, Note_off_c, 1, 66, 0
1, 61440, Note_on_c, 1, 67, 127
1, 61440, Note_on_c, 1, 43, 127
1, 61488, Note_off_c, 1, 43, 0
1, 61500, Note_on_c, 1, 50, 127
1, 61536, Note_off_c, 1, 67, 0
1, 61548, Note_off_c, 1, 50, 0
1, 61560, Note_on_c, 1, 70, 127
1, 61560, Note_on_c, 1, 52, 127
1, 61608, Note_off_c, 1, 70, 0
1, 61608, Note_off_c, 1, 52, 0
1, 61620, Note_on_c, 1, 69, 127
1, 61620, Note_on_c, 1, 54, 127
1, 61668, Note_off_c, 1, 69, 0
1, 61668, Note_off_c, 1, 54, 0
1, 61680, Note_on_c, 1, 70, 127
1, 61680, Note_on_c, 1, 55, 127
1, 61728, Note_off_c, 1, 55, 0
1, 61740, Note_on_c, 1, 57, 127
1, 61776, Note_off_c, 1, 70, 0
1, 61788, Note_off_c, 1, 57, 0
1, 61800, Note_on_c, 1, 70, 127
1, 61800, Note_on_c, 1, 79, 127
1, 61800, Note_on_c, 1, 58, 127
1, 61848, Note_off_c, 1, 58, 0
1, 61860, Note_on_c, 1, 55, 127
1, 61896, Note_off_c, 1, 70, 0
1, 61896, Note_off_c, 1, 79, 0
1, 61908, Note_off_c, 1, 55, 0
1, 61920, Note_on_c, 1, 79, 127
1, 61920, Note_on_c, 1, 69, 127
1, 61920, Note_on_c, 1, 60, 127
1, 61968, Note_off_c, 1, 60, 0
1, 61980, Note_on_c, 1, 62, 127
1, 62016, Note_off_c, 1, 79, 0
1, 62028, Note_off_c, 1, 62, 0
1, 62040, Note_on_c, 1, 81, 127
1, 62088, Note_off_c, 1, 81, 0
1, 62100, Note_on_c, 1, 58, 127
1, 62112, Note_off_c, 1, 69, 0
1, 62148, Note_off_c, 1, 58, 0
1, 62160, Note_on_c, 1, 77, 127
1, 62160, Note_on_c, 1, 57, 127
1, 62208, Note_off_c, 1, 57, 0
1, 62220, Note_on_c, 1, 62, 127
1, 62256, Note_off_c, 1, 77, 0
1, 62268, Note_off_c, 1, 62, 0
1, 62280, Note_on_c, 1, 77, 127
1, 62280, Note_on_c, 1, 69, 127
1, 62280, Note_on_c, 1, 60, 127
1, 62328, Note_off_c, 1, 60, 0
1, 62340, Note_on_c, 1, 62, 127
1, 62376, Note_off_c, 1, 77, 0
1, 62376, Note_off_c, 1, 69, 0
1, 62388, Note_off_c, 1, 62, 0
1, 62400, Note_on_c, 1, 77, 127
1, 62400, Note_on_c, 1, 67, 127
1, 62400, Note_on_c, 1, 58, 127
1, 62448, Note_off_c, 1, 58, 0
1, 62460, Note_on_c, 1, 55, 127
1, 62496, Note_off_c, 1, 77, 0
1, 62508, Note_off_c, 1, 55, 0
1, 62520, Note_on_c, 1, 79, 127
1, 62520, Note_on_c, 1, 57, 127
1, 62568, Note_off_c, 1, 79, 0
1, 62568, Note_off_c, 1, 57, 0
1, 62592, Note_off_c, 1, 67, 0
1, 62640, Note_on_c, 1, 75, 127
1, 62640, Note_on_c, 1, 60, 127
1, 62688, Note_off_c, 1, 60, 0
1, 62700, Note_on_c, 1, 62, 127
1, 62736, Note_off_c, 1, 75, 0
1, 62748, Note_off_c, 1, 62, 0
1, 62760, Note_on_c, 1, 72, 127
1, 62760, Note_on_c, 1, 75, 127
1, 62760, Note_on_c, 1, 63, 127
1, 62808, Note_off_c, 1, 63, 0
1, 62820, Note_on_c, 1, 60, 127
1, 62856, Note_off_c, 1, 72, 0
1, 62856, Note_off_c, 1, 75, 0
1, 62868, Note_off_c, 1, 60, 0
1, 62880, Note_on_c, 1, 75, 127
1, 62880, Note_on_c, 1, 69, 127
1, 62880, Note_on_c, 1, 65, 127
1, 62928, Note_off_c, 1, 65, 0
1, 62940, Note_on_c, 1, 57, 127
1, 62976, Note_off_c, 1, 75, 0
1, 62988, Note_off_c, 1, 57, 0
1, 63000, Note_on_c, 1, 77, 127
1, 63000, Note_on_c, 1, 58, 127
1, 63048, Note_off_c, 1, 77, 0
1, 63048, Note_off_c, 1, 58, 0
1, 63060, Note_on_c, 1, 60, 127
1, 63072, Note_off_c, 1, 69, 0
1, 63108, Note_off_c, 1, 60, 0
1, 63120, Note_on_c, 1, 74, 127
1, 63120, Note_on_c, 1, 62, 127
1, 63168, Note_off_c, 1, 62, 0
1, 63180, Note_on_c, 1, 63, 127
1, 63216, Note_off_c, 1, 74, 0
1, 63228, Note_off_c, 1, 63, 0
1, 63240, Note_on_c, 1, 72, 127
1, 63240, Note_on_c, 1, 74, 127
1, 63240, Note_on_c, 1, 65, 127
1, 63288, Note_off_c, 1, 65, 0
1, 63300, Note_on_c, 1, 62, 127
1, 63336, Note_off_c, 1, 72, 0
1, 63336, Note_off_c, 1, 74, 0
1, 63348, Note_off_c, 1, 62, 0
1, 63360, Note_on_c, 1, 74, 127
1, 63360, Note_on_c, 1, 70, 127
1, 63360, Note_on_c, 1, 67, 127
1, 63408, Note_off_c, 1, 67, 0
1, 63420, Note_on_c, 1, 58, 127
1, 63456, Note_off_c, 1, 74, 0
1, 63468, Note_off_c, 1, 58, 0
1, 63480, Note_on_c, 1, 75, 127
1, 63480, Note_on_c, 1, 60, 127
1, 63528, Note_off_c, 1, 75, 0
1, 63528, Note_off_c, 1, 60, 0
1, 63540, Note_on_c, 1, 62, 127
1, 63552, Note_off_c, 1, 70, 0
1, 63588, Note_off_c, 1, 62, 0
1, 63600, Note_on_c, 1, 72, 127
1, 63600, Note_on_c, 1, 63, 127
1, 63648, Note_off_c, 1, 63, 0
1, 63660, Note_on_c, 1, 65, 127
1, 63696, Note_off_c, 1, 72, 0
1, 63708, Note_off_c, 1, 65, 0
1, 63720, Note_on_c, 1, 70, 127
1, 63720, Note_on_c, 1, 72, 127
1, 63720, Note_on_c, 1, 67, 127
1, 63768, Note_off_c, 1, 67, 0
1, 63780, Note_on_c, 1, 64, 127
1, 63816, Note_off_c, 1, 70, 0
1, 63816, Note_off_c, 1, 72, 0
1, 63828, Note_off_c, 1, 64, 0
1, 63840, Note_on_c, 1, 72, 127
1, 63840, Note_on_c, 1, 69, 127
1, 63840, Note_on_c, 1, 65, 127
1, 63888, Note_off_c, 1, 65, 0
1, 63900, Note_on_c, 1, 67, 127
1, 63936, Note_off_c, 1, 72, 0
1, 63948, Note_off_c, 1, 67, 0
1, 64020, Note_on_c, 1, 63, 127
1, 64032, Note_off_c, 1, 69, 0
1, 64068, Note_off_c, 1, 63, 0
1, 64080, Note_on_c, 1, 70, 127
1, 64080, Note_on_c, 1, 62, 127
1, 64128, Note_off_c, 1, 62, 0
1, 64140, Note_on_c, 1, 60, 127
1, 64176, Note_off_c, 1, 70, 0
1, 64188, Note_off_c, 1, 60, 0
1, 64200, Note_on_c, 1, 70, 127
1, 64200, Note_on_c, 1, 62, 127
1, 64200, Note_on_c, 1, 65, 127
1, 64200, Note_on_c, 1, 58, 127
1, 64248, Note_off_c, 1, 58, 0
1, 64296, Note_off_c, 1, 70, 0
1, 64296, Note_off_c, 1, 65, 0
1, 64308, Note_off_c, 1, 62, 0
1, 64320, Note_on_c, 1, 62, 127
1, 64320, Note_on_c, 1, 70, 127
1, 64320, Note_on_c, 1, 67, 127
1, 64320, Note_on_c, 1, 55, 127
1, 64368, Note_off_c, 1, 55, 0
1, 64380, Note_on_c, 1, 65, 127
1, 64416, Note_off_c, 1, 62, 0
1, 64416, Note_off_c, 1, 70, 0
1, 64416, Note_off_c, 1, 67, 0
1, 64428, Note_off_c, 1, 65, 0
1, 64440, Note_on_c, 1, 69, 127
1, 64440, Note_on_c, 1, 63, 127
1, 64488, Note_off_c, 1, 69, 0
1, 64488, Note_off_c, 1, 63, 0
1, 64500, Note_on_c, 1, 70, 127
1, 64500, Note_on_c, 1, 62, 127
1, 64548, Note_off_c, 1, 70, 0
1, 64548, Note_off_c, 1, 62, 0
1, 64560, Note_on_c, 1, 72, 127
1, 64560, Note_on_c, 1, 60, 127
1, 64608, Note_off_c, 1, 60, 0
1, 64620, Note_on_c, 1, 58, 127
1, 64656, Note_off_c, 1, 72, 0
1, 64668, Note_off_c, 1, 58, 0
1, 64680, Note_on_c, 1, 72, 127
1, 64680, Note_on_c, 1, 63, 127
1, 64680, Note_on_c, 1, 67, 127
1, 64680, Note_on_c, 1, 57, 127
1, 64728, Note_off_c, 1, 57, 0
1, 64740, Note_on_c, 1, 60, 127
1, 64776, Note_off_c, 1, 72, 0
1, 64776, Note_off_c, 1, 63, 0
1, 64776, Note_off_c, 1, 67, 0
1, 64788, Note_off_c, 1, 60, 0
1, 64800, Note_on_c, 1, 69, 127
1, 64800, Note_on_c, 1, 72, 127
1, 64800, Note_on_c, 1, 63, 127
1, 64800, Note_on_c, 1, 53, 127
1, 64848, Note_off_c, 1, 53, 0
1, 64896, Note_off_c, 1, 69, 0
1, 64896, Note_off_c, 1, 72, 0
1, 64908, Note_off_c, 1, 63, 0
1, 64920, Note_on_c, 1, 70, 127
1, 64920, Note_on_c, 1, 62, 127
1, 64968, Note_off_c, 1, 70, 0
1, 64968, Note_off_c, 1, 62, 0
1, 64980, Note_on_c, 1, 72, 127
1, 64980, Note_on_c, 1, 60, 127
1, 65028, Note_off_c, 1, 72, 0
1, 65028, Note_off_c, 1, 60, 0
1, 65040, Note_on_c, 1, 74, 127
1, 65040, Note_on_c, 1, 58, 127
1, 65088, Note_off_c, 1, 58, 0
1, 65100, Note_on_c, 1, 57, 127
1, 65136, Note_off_c, 1, 74, 0
1, 65148, Note_off_c, 1, 57, 0
1, 65160, Note_on_c, 1, 74, 127
1, 65160, Note_on_c, 1, 70, 127
1, 65160, Note_on_c, 1, 65, 127
1, 65160, Note_on_c, 1, 55, 127
1, 65208, Note_off_c, 1, 55, 0
1, 65220, Note_on_c, 1, 58, 127
1, 65256, Note_off_c, 1, 74, 0
1, 65256, Note_off_c, 1, 70, 0
1, 65256, Note_off_c, 1, 65, 0
1, 65268, Note_off_c, 1, 58, 0
1, 65280, Note_on_c, 1, 67, 127
1, 65280, Note_on_c, 1, 74, 127
1, 65280, Note_on_c, 1, 70, 127
1, 65280, Note_on_c, 1, 51, 127
1, 65328, Note_off_c, 1, 51, 0
1, 65340, Note_on_c, 1, 53, 127
1, 65376, Note_off_c, 1, 67, 0
1, 65376, Note_off_c, 1, 74, 0
1, 65376, Note_off_c, 1, 70, 0
1, 65388, Note_off_c, 1, 53, 0
1, 65400, Note_on_c, 1, 72, 127
1, 65400, Note_on_c, 1, 51, 127
1, 65448, Note_off_c, 1, 72, 0
1, 65448, Note_off_c, 1, 51, 0
1, 65460, Note_on_c, 1, 74, 127
1, 65460, Note_on_c, 1, 50, 127
1, 65508, Note_off_c, 1, 74, 0
1, 65508, Note_off_c, 1, 50, 0
1, 65520, Note_on_c, 1, 75, 127
1, 65520, Note_on_c, 1, 48, 127
1, 65568, Note_off_c, 1, 48, 0
1, 65580, Note_on_c, 1, 46, 127
1, 65616, Note_off_c, 1, 75, 0
1, 65628, Note_off_c, 1, 46, 0
1, 65640, Note_on_c, 1, 67, 127
1, 65640, Note_on_c, 1, 72, 127
1, 65640, Note_on_c, 1, 75, 127
1, 65640, Note_on_c, 1, 45, 127
1, 65688, Note_off_c, 1, 45, 0
1, 65700, Note_on_c, 1, 48, 127
1, 65736, Note_off_c, 1, 67, 0
1, 65736, Note_off_c, 1, 72, 0
1, 65736, Note_off_c, 1, 75, 0
1, 65748, Note_off_c, 1, 48, 0
1, 65760, Note_on_c, 1, 69, 127
1, 65760, Note_on_c, 1, 75, 127
1, 65760, Note_on_c, 1, 72, 127
1, 65760, Note_on_c, 1, 41, 127
1, 65856, Note_off_c, 1, 69, 0
1, 65856, Note_off_c, 1, 75, 0
1, 65856, Note_off_c, 1, 72, 0
1, 65856, Note_off_c, 1, 41, 0
1, 65880, Note_on_c, 1, 74, 127
1, 65880, Note_on_c, 1, 70, 127
1, 65880, Note_on_c, 1, 46, 127
1, 65928, Note_off_c, 1, 74, 0
1, 65940, Note_on_c, 1, 72, 127
1, 65976, Note_off_c, 1, 70, 0
1, 65976, Note_off_c, 1, 46, 0
1, 65988, Note_off_c, 1, 72, 0
1, 66000, Note_on_c, 1, 72, 127
1, 66000, Note_on_c, 1, 69, 127
1, 66000, Note_on_c, 1, 53, 127
1, 66096, Note_off_c, 1, 53, 0
1, 66120, Note_on_c, 1, 41, 127
1, 66144, Note_off_c, 1, 72, 0
1, 66180, Note_on_c, 1, 70, 127
1, 66192, Note_off_c, 1, 69, 0
1, 66216, Note_off_c, 1, 41, 0
1, 66228, Note_off_c, 1, 70, 0
1, 66240, Note_on_c, 1, 70, 127
1, 66240, Note_on_c, 1, 46, 127
1, 66288, Note_off_c, 1, 70, 0
1, 66288, Note_off_c, 1, 46, 0
1, 66300, Note_on_c, 1, 69, 127
1, 66300, Note_on_c, 1, 53, 127
1, 66348, Note_off_c, 1, 69, 0
1, 66348, Note_off_c, 1, 53, 0
1, 66360, Note_on_c, 1, 70, 127
1, 66360, Note_on_c, 1, 55, 127
1, 66408, Note_off_c, 1, 70, 0
1, 66408, Note_off_c, 1, 55, 0
1, 66420, Note_on_c, 1, 72, 127
1, 66420, Note_on_c, 1, 57, 127
1, 66468, Note_off_c, 1, 72, 0
1, 66468, Note_off_c, 1, 57, 0
1, 66480, Note_on_c, 1, 74, 127
1, 66480, Note_on_c, 1, 58, 127
1, 66528, Note_off_c, 1, 74, 0
1, 66528, Note_off_c, 1, 58, 0
1, 66540, Note_on_c, 1, 75, 127
1, 66540, Note_on_c, 1, 60, 127
1, 66588, Note_off_c, 1, 75, 0
1, 66588, Note_off_c, 1, 60, 0
1, 66600, Note_on_c, 1, 77, 127
1, 66600, Note_on_c, 1, 62, 127
1, 66648, Note_off_c, 1, 77, 0
1, 66648, Note_off_c, 1, 62, 0
1, 66660, Note_on_c, 1, 82, 127
1, 66660, Note_on_c, 1, 58, 127
1, 66708, Note_off_c, 1, 82, 0
1, 66708, Note_off_c, 1, 58, 0
1, 66720, Note_on_c, 1, 72, 127
1, 66720, Note_on_c, 1, 63, 127
1, 66768, Note_off_c, 1, 72, 0
1, 66768, Note_off_c, 1, 63, 0
1, 66780, Note_on_c, 1, 74, 127
1, 66780, Note_on_c, 1, 65, 127
1, 66828, Note_off_c, 1, 74, 0
1, 66828, Note_off_c, 1, 65, 0
1, 66840, Note_on_c, 1, 75, 127
1, 66840, Note_on_c, 1, 63, 127
1, 66888, Note_off_c, 1, 75, 0
1, 66888, Note_off_c, 1, 63, 0
1, 66900, Note_on_c, 1, 79, 127
1, 66900, Note_on_c, 1, 62, 127
1, 66948, Note_off_c, 1, 79, 0
1, 66948, Note_off_c, 1, 62, 0
1, 66960, Note_on_c, 1, 69, 127
1, 66960, Note_on_c, 1, 60, 127
1, 67008, Note_off_c, 1, 69, 0
1, 67008, Note_off_c, 1, 60, 0
1, 67020, Note_on_c, 1, 70, 127
1, 67020, Note_on_c, 1, 65, 127
1, 67068, Note_off_c, 1, 70, 0
1, 67068, Note_off_c, 1, 65, 0
1, 67080, Note_on_c, 1, 72, 127
1, 67080, Note_on_c, 1, 63, 127
1, 67128, Note_off_c, 1, 72, 0
1, 67128, Note_off_c, 1, 63, 0
1, 67140, Note_on_c, 1, 81, 127
1, 67140, Note_on_c, 1, 65, 127
1, 67188, Note_off_c, 1, 81, 0
1, 67188, Note_off_c, 1, 65, 0
1, 67200, Note_on_c, 1, 70, 127
1, 67200, Note_on_c, 1, 62, 127
1, 67248, Note_off_c, 1, 70, 0
1, 67248, Note_off_c, 1, 62, 0
1, 67260, Note_on_c, 1, 72, 127
1, 67260, Note_on_c, 1, 63, 127
1, 67308, Note_off_c, 1, 72, 0
1, 67308, Note_off_c, 1, 63, 0
1, 67320, Note_on_c, 1, 74, 127
1, 67320, Note_on_c, 1, 62, 127
1, 67368, Note_off_c, 1, 74, 0
1, 67368, Note_off_c, 1, 62, 0
1, 67380, Note_on_c, 1, 77, 127
1, 67380, Note_on_c, 1, 60, 127
1, 67428, Note_off_c, 1, 77, 0
1, 67428, Note_off_c, 1, 60, 0
1, 67440, Note_on_c, 1, 67, 127
1, 67440, Note_on_c, 1, 58, 127
1, 67488, Note_off_c, 1, 67, 0
1, 67488, Note_off_c, 1, 58, 0
1, 67500, Note_on_c, 1, 69, 127
1, 67500, Note_on_c, 1, 63, 127
1, 67548, Note_off_c, 1, 69, 0
1, 67548, Note_off_c, 1, 63, 0
1, 67560, Note_on_c, 1, 70, 127
1, 67560, Note_on_c, 1, 62, 127
1, 67608, Note_off_c, 1, 70, 0
1, 67608, Note_off_c, 1, 62, 0
1, 67620, Note_on_c, 1, 79, 127
1, 67620, Note_on_c, 1, 63, 127
1, 67668, Note_off_c, 1, 79, 0
1, 67668, Note_off_c, 1, 63, 0
1, 67680, Note_on_c, 1, 69, 127
1, 67680, Note_on_c, 1, 60, 127
1, 67728, Note_off_c, 1, 69, 0
1, 67728, Note_off_c, 1, 60, 0
1, 67740, Note_on_c, 1, 70, 127
1, 67740, Note_on_c, 1, 62, 127
1, 67788, Note_off_c, 1, 70, 0
1, 67788, Note_off_c, 1, 62, 0
1, 67800, Note_on_c, 1, 72, 127
1, 67800, Note_on_c, 1, 60, 127
1, 67848, Note_off_c, 1, 72, 0
1, 67848, Note_off_c, 1, 60, 0
1, 67860, Note_on_c, 1, 75, 127
1, 67860, Note_on_c, 1, 58, 127
1, 67908, Note_off_c, 1, 75, 0
1, 67908, Note_off_c, 1, 58, 0
1, 67920, Note_on_c, 1, 65, 127
1, 67920, Note_on_c, 1, 57, 127
1, 67968, Note_off_c, 1, 65, 0
1, 67968, Note_off_c, 1, 57, 0
1, 67980, Note_on_c, 1, 67, 127
1, 67980, Note_on_c, 1, 62, 127
1, 68028, Note_off_c, 1, 67, 0
1, 68028, Note_off_c, 1, 62, 0
1, 68040, Note_on_c, 1, 69, 127
1, 68040, Note_on_c, 1, 60, 127
1, 68088, Note_off_c, 1, 69, 0
1, 68088, Note_off_c, 1, 60, 0
1, 68100, Note_on_c, 1, 77, 127
1, 68100, Note_on_c, 1, 62, 127
1, 68148, Note_off_c, 1, 77, 0
1, 68148, Note_off_c, 1, 62, 0
1, 68160, Note_on_c, 1, 67, 127
1, 68160, Note_on_c, 1, 58, 127
1, 68208, Note_off_c, 1, 67, 0
1, 68208, Note_off_c, 1, 58, 0
1, 68220, Note_on_c, 1, 69, 127
1, 68220, Note_on_c, 1, 60, 127
1, 68268, Note_off_c, 1, 69, 0
1, 68268, Note_off_c, 1, 60, 0
1, 68280, Note_on_c, 1, 70, 127
1, 68280, Note_on_c, 1, 58, 127
1, 68328, Note_off_c, 1, 70, 0
1, 68328, Note_off_c, 1, 58, 0
1, 68340, Note_on_c, 1, 74, 127
1, 68340, Note_on_c, 1, 57, 127
1, 68388, Note_off_c, 1, 74, 0
1, 68388, Note_off_c, 1, 57, 0
1, 68400, Note_on_c, 1, 63, 127
1, 68400, Note_on_c, 1, 55, 127
1, 68448, Note_off_c, 1, 63, 0
1, 68448, Note_off_c, 1, 55, 0
1, 68460, Note_on_c, 1, 65, 127
1, 68460, Note_on_c, 1, 60, 127
1, 68508, Note_off_c, 1, 65, 0
1, 68508, Note_off_c, 1, 60, 0
1, 68520, Note_on_c, 1, 67, 127
1, 68520, Note_on_c, 1, 58, 127
1, 68568, Note_off_c, 1, 67, 0
1, 68568, Note_off_c, 1, 58, 0
1, 68580, Note_on_c, 1, 75, 127
1, 68580, Note_on_c, 1, 60, 127
1, 68628, Note_off_c, 1, 75, 0
1, 68628, Note_off_c, 1, 60, 0
1, 68640, Note_on_c, 1, 65, 127
1, 68640, Note_on_c, 1, 57, 127
1, 68688, Note_off_c, 1, 65, 0
1, 68688, Note_off_c, 1, 57, 0
1, 68700, Note_on_c, 1, 67, 127
1, 68700, Note_on_c, 1, 58, 127
1, 68748, Note_off_c, 1, 67, 0
1, 68748, Note_off_c, 1, 58, 0
1, 68760, Note_on_c, 1, 69, 127
1, 68760, Note_on_c, 1, 57, 127
1, 68808, Note_off_c, 1, 69, 0
1, 68808, Note_off_c, 1, 57, 0
1, 68820, Note_on_c, 1, 72, 127
1, 68820, Note_on_c, 1, 55, 127
1, 68868, Note_off_c, 1, 72, 0
1, 68868, Note_off_c, 1, 55, 0
1, 68880, Note_on_c, 1, 62, 127
1, 68880, Note_on_c, 1, 53, 127
1, 68928, Note_off_c, 1, 62, 0
1, 68928, Note_off_c, 1, 53, 0
1, 68940, Note_on_c, 1, 63, 127
1, 68940, Note_on_c, 1, 58, 127
1, 68988, Note_off_c, 1, 63, 0
1, 68988, Note_off_c, 1, 58, 0
1, 69000, Note_on_c, 1, 65, 127
1, 69000, Note_on_c, 1, 57, 127
1, 69048, Note_off_c, 1, 65, 0
1, 69048, Note_off_c, 1, 57, 0
1, 69060, Note_on_c, 1, 74, 127
1, 69060, Note_on_c, 1, 58, 127
1, 69108, Note_off_c, 1, 74, 0
1, 69108, Note_off_c, 1, 58, 0
1, 69120, Note_on_c, 1, 63, 127
1, 69120, Note_on_c, 1, 55, 127
1, 69168, Note_off_c, 1, 63, 0
1, 69180, Note_on_c, 1, 74, 127
1, 69216, Note_off_c, 1, 55, 0
1, 69228, Note_off_c, 1, 74, 0
1, 69240, Note_on_c, 1, 62, 127
1, 69240, Note_on_c, 1, 53, 127
1, 69288, Note_off_c, 1, 62, 0
1, 69300, Note_on_c, 1, 74, 127
1, 69336, Note_off_c, 1, 53, 0
1, 69348, Note_off_c, 1, 74, 0
1, 69360, Note_on_c, 1, 63, 127
1, 69360, Note_on_c, 1, 55, 127
1, 69408, Note_off_c, 1, 63, 0
1, 69420, Note_on_c, 1, 72, 127
1, 69456, Note_off_c, 1, 55, 0
1, 69468, Note_off_c, 1, 72, 0
1, 69480, Note_on_c, 1, 60, 127
1, 69480, Note_on_c, 1, 57, 127
1, 69528, Note_off_c, 1, 60, 0
1, 69540, Note_on_c, 1, 72, 127
1, 69576, Note_off_c, 1, 57, 0
1, 69588, Note_off_c, 1, 72, 0
1, 69600, Note_on_c, 1, 62, 127
1, 69600, Note_on_c, 1, 58, 127
1, 69648, Note_off_c, 1, 62, 0
1, 69660, Note_on_c, 1, 72, 127
1, 69696, Note_off_c, 1, 58, 0
1, 69708, Note_off_c, 1, 72, 0
1, 69720, Note_on_c, 1, 63, 127
1, 69720, Note_on_c, 1, 60, 127
1, 69768, Note_off_c, 1, 63, 0
1, 69780, Note_on_c, 1, 72, 127
1, 69816, Note_off_c, 1, 60, 0
1, 69828, Note_off_c, 1, 72, 0
1, 69840, Note_on_c, 1, 65, 127
1, 69840, Note_on_c, 1, 62, 127
1, 69888, Note_off_c, 1, 65, 0
1, 69900, Note_on_c, 1, 70, 127
1, 69936, Note_off_c, 1, 62, 0
1, 69948, Note_off_c, 1, 70, 0
1, 69960, Note_on_c, 1, 62, 127
1, 69960, Note_on_c, 1, 46, 127
1, 70008, Note_off_c, 1, 62, 0
1, 70020, Note_on_c, 1, 70, 127
1, 70056, Note_off_c, 1, 46, 0
1, 70068, Note_off_c, 1, 70, 0
1, 70080, Note_on_c, 1, 67, 127
1, 70080, Note_on_c, 1, 51, 127
1, 70128, Note_off_c, 1, 67, 0
1, 70140, Note_on_c, 1, 70, 127
1, 70176, Note_off_c, 1, 51, 0
1, 70188, Note_off_c, 1, 70, 0
1, 70200, Note_on_c, 1, 65, 127
1, 70200, Note_on_c, 1, 50, 127
1, 70248, Note_off_c, 1, 65, 0
1, 70260, Note_on_c, 1, 70, 127
1, 70296, Note_off_c, 1, 50, 0
1, 70308, Note_off_c, 1, 70, 0
1, 70320, Note_on_c, 1, 63, 127
1, 70320, Note_on_c, 1, 48, 127
1, 70368, Note_off_c, 1, 63, 0
1, 70380, Note_on_c, 1, 70, 127
1, 70416, Note_off_c, 1, 48, 0
1, 70428, Note_off_c, 1, 70, 0
1, 70440, Note_on_c, 1, 67, 127
1, 70440, Note_on_c, 1, 51, 127
1, 70488, Note_off_c, 1, 67, 0
1, 70500, Note_on_c, 1, 70, 127
1, 70536, Note_off_c, 1, 51, 0
1, 70548, Note_off_c, 1, 70, 0
1, 70560, Note_on_c, 1, 65, 127
1, 70560, Note_on_c, 1, 50, 127
1, 70608, Note_off_c, 1, 65, 0
1, 70620, Note_on_c, 1, 70, 127
1, 70656, Note_off_c, 1, 50, 0
1, 70668, Note_off_c, 1, 70, 0
1, 70680, Note_on_c, 1, 63, 127
1, 70680, Note_on_c, 1, 48, 127
1, 70728, Note_off_c, 1, 63, 0
1, 70740, Note_on_c, 1, 70, 127
1, 70776, Note_off_c, 1, 48, 0
1, 70788, Note_off_c, 1, 70, 0
1, 70800, Note_on_c, 1, 62, 127
1, 70800, Note_on_c, 1, 46, 127
1, 70848, Note_off_c, 1, 62, 0
1, 70860, Note_on_c, 1, 70, 127
1, 70908, Note_off_c, 1, 70, 0
1, 70920, Note_on_c, 1, 60, 127
1, 70920, Note_on_c, 1, 48, 127
1, 70968, Note_off_c, 1, 60, 0
1, 71016, Note_off_c, 1, 48, 0
1, 71040, Note_on_c, 1, 58, 127
1, 71040, Note_on_c, 1, 50, 127
1, 71088, Note_off_c, 1, 58, 0
1, 71136, Note_off_c, 1, 46, 0
1, 71136, Note_off_c, 1, 50, 0
1, 71160, Note_on_c, 1, 60, 127
1, 71160, Note_on_c, 1, 46, 127
1, 71160, Note_on_c, 1, 52, 127
1, 71208, Note_off_c, 1, 60, 0
1, 71220, Note_on_c, 1, 70, 127
1, 71256, Note_off_c, 1, 46, 0
1, 71256, Note_off_c, 1, 52, 0
1, 71268, Note_off_c, 1, 70, 0
1, 71280, Note_on_c, 1, 62, 127
1, 71280, Note_on_c, 1, 53, 127
1, 71280, Note_on_c, 1, 45, 127
1, 71328, Note_off_c, 1, 62, 0
1, 71340, Note_on_c, 1, 70, 127
1, 71376, Note_off_c, 1, 53, 0
1, 71376, Note_off_c, 1, 45, 0
1, 71388, Note_off_c, 1, 70, 0
1, 71400, Note_on_c, 1, 64, 127
1, 71400, Note_on_c, 1, 43, 127
1, 71400, Note_on_c, 1, 55, 127
1, 71448, Note_off_c, 1, 64, 0
1, 71460, Note_on_c, 1, 70, 127
1, 71496, Note_off_c, 1, 43, 0
1, 71496, Note_off_c, 1, 55, 0
1, 71508, Note_off_c, 1, 70, 0
1, 71520, Note_on_c, 1, 65, 127
1, 71520, Note_on_c, 1, 69, 127
1, 71520, Note_on_c, 1, 48, 127
1, 71520, Note_on_c, 1, 41, 127
1, 71568, Note_off_c, 1, 65, 0
1, 71568, Note_off_c, 1, 69, 0
1, 71580, Note_on_c, 1, 60, 127
1, 71628, Note_off_c, 1, 60, 0
1, 71640, Note_on_c, 1, 62, 127
1, 71688, Note_off_c, 1, 62, 0
1, 71700, Note_on_c, 1, 64, 127
1, 71712, Note_off_c, 1, 48, 0
1, 71712, Note_off_c, 1, 41, 0
1, 71748, Note_off_c, 1, 64, 0
1, 71760, Note_on_c, 1, 65, 127
1, 71808, Note_off_c, 1, 65, 0
1, 71820, Note_on_c, 1, 67, 127
1, 71820, Note_on_c, 1, 53, 127
1, 71868, Note_off_c, 1, 67, 0
1, 71868, Note_off_c, 1, 53, 0
1, 71880, Note_on_c, 1, 69, 127
1, 71880, Note_on_c, 1, 52, 127
1, 71904, Note_off_c, 1, 69, 0
1, 71910, Note_on_c, 1, 67, 127
1, 71928, Note_off_c, 1, 52, 0
1, 71934, Note_off_c, 1, 67, 0
1, 71940, Note_on_c, 1, 65, 127
1, 71940, Note_on_c, 1, 53, 127
1, 71964, Note_off_c, 1, 65, 0
1, 71970, Note_on_c, 1, 67, 127
1, 71988, Note_off_c, 1, 53, 0
1, 71994, Note_off_c, 1, 67, 0
1, 72000, Note_on_c, 1, 69, 127
1, 72000, Note_on_c, 1, 48, 127
1, 72048, Note_off_c, 1, 48, 0
1, 72060, Note_on_c, 1, 53, 127
1, 72096, Note_off_c, 1, 69, 0
1, 72108, Note_off_c, 1, 53, 0
1, 72120, Note_on_c, 1, 70, 127
1, 72120, Note_on_c, 1, 50, 127
1, 72168, Note_off_c, 1, 50, 0
1, 72180, Note_on_c, 1, 53, 127
1, 72216, Note_off_c, 1, 70, 0
1, 72228, Note_off_c, 1, 53, 0
1, 72240, Note_on_c, 1, 69, 127
1, 72240, Note_on_c, 1, 48, 127
1, 72288, Note_off_c, 1, 48, 0
1, 72300, Note_on_c, 1, 53, 127
1, 72336, Note_off_c, 1, 69, 0
1, 72348, Note_off_c, 1, 53, 0
1, 72360, Note_on_c, 1, 67, 127
1, 72360, Note_on_c, 1, 46, 127
1, 72408, Note_off_c, 1, 46, 0
1, 72420, Note_on_c, 1, 53, 127
1, 72456, Note_off_c, 1, 67, 0
1, 72468, Note_off_c, 1, 53, 0
1, 72480, Note_on_c, 1, 65, 127
1, 72480, Note_on_c, 1, 45, 127
1, 72528, Note_off_c, 1, 45, 0
1, 72540, Note_on_c, 1, 53, 127
1, 72588, Note_off_c, 1, 53, 0
1, 72600, Note_on_c, 1, 74, 127
1, 72600, Note_on_c, 1, 46, 127
1, 72648, Note_off_c, 1, 46, 0
1, 72696, Note_off_c, 1, 74, 0
1, 72720, Note_on_c, 1, 72, 127
1, 72816, Note_off_c, 1, 72, 0
1, 72840, Note_on_c, 1, 70, 127
1, 72840, Note_on_c, 1, 43, 127
1, 72888, Note_off_c, 1, 43, 0
1, 72936, Note_off_c, 1, 70, 0
1, 72960, Note_on_c, 1, 69, 127
1, 72960, Note_on_c, 1, 41, 127
1, 73008, Note_off_c, 1, 41, 0
1, 73056, Note_off_c, 1, 69, 0
1, 73440, Note_on_c, 1, 67, 127
1, 73440, Note_on_c, 1, 48, 127
1, 73488, Note_off_c, 1, 48, 0
1, 73536, Note_off_c, 1, 65, 0
1, 73560, Note_on_c, 1, 64, 127
1, 73608, Note_off_c, 1, 64, 0
1, 73620, Note_on_c, 1, 62, 127
1, 73620, Note_on_c, 1, 47, 127
1, 73632, Note_off_c, 1, 67, 0
1, 73668, Note_off_c, 1, 62, 0
1, 73668, Note_off_c, 1, 47, 0
1, 73680, Note_on_c, 1, 64, 127
1, 73680, Note_on_c, 1, 48, 127
1, 73728, Note_off_c, 1, 48, 0
1, 73740, Note_on_c, 1, 50, 127
1, 73776, Note_off_c, 1, 64, 0
1, 73788, Note_off_c, 1, 50, 0
1, 73800, Note_on_c, 1, 72, 127
1, 73800, Note_on_c, 1, 67, 127
1, 73800, Note_on_c, 1, 64, 127
1, 73800, Note_on_c, 1, 52, 127
1, 73848, Note_off_c, 1, 52, 0
1, 73860, Note_on_c, 1, 48, 127
1, 73896, Note_off_c, 1, 72, 0
1, 73896, Note_off_c, 1, 67, 0
1, 73896, Note_off_c, 1, 64, 0
1, 73908, Note_off_c, 1, 48, 0
1, 73920, Note_on_c, 1, 72, 127
1, 73920, Note_on_c, 1, 62, 127
1, 73920, Note_on_c, 1, 69, 127
1, 73920, Note_on_c, 1, 53, 127
1, 73968, Note_off_c, 1, 53, 0
1, 73980, Note_on_c, 1, 55, 127
1, 74016, Note_off_c, 1, 72, 0
1, 74028, Note_off_c, 1, 55, 0
1, 74040, Note_on_c, 1, 74, 127
1, 74088, Note_off_c, 1, 74, 0
1, 74100, Note_on_c, 1, 52, 127
1, 74112, Note_off_c, 1, 62, 0
1, 74112, Note_off_c, 1, 69, 0
1, 74148, Note_off_c, 1, 52, 0
1, 74160, Note_on_c, 1, 70, 127
1, 74160, Note_on_c, 1, 50, 127
1, 74208, Note_off_c, 1, 50, 0
1, 74220, Note_on_c, 1, 55, 127
1, 74256, Note_off_c, 1, 70, 0
1, 74268, Note_off_c, 1, 55, 0
1, 74280, Note_on_c, 1, 62, 127
1, 74280, Note_on_c, 1, 70, 127
1, 74280, Note_on_c, 1, 67, 127
1, 74280, Note_on_c, 1, 53, 127
1, 74328, Note_off_c, 1, 53, 0
1, 74340, Note_on_c, 1, 55, 127
1, 74376, Note_off_c, 1, 62, 0
1, 74376, Note_off_c, 1, 70, 0
1, 74376, Note_off_c, 1, 67, 0
1, 74388, Note_off_c, 1, 55, 0
1, 74400, Note_on_c, 1, 70, 127
1, 74400, Note_on_c, 1, 67, 127
1, 74400, Note_on_c, 1, 60, 127
1, 74400, Note_on_c, 1, 52, 127
1, 74448, Note_off_c, 1, 52, 0
1, 74460, Note_on_c, 1, 48, 127
1, 74496, Note_off_c, 1, 70, 0
1, 74508, Note_off_c, 1, 48, 0
1, 74520, Note_on_c, 1, 72, 127
1, 74520, Note_on_c, 1, 50, 127
1, 74568, Note_off_c, 1, 72, 0
1, 74568, Note_off_c, 1, 50, 0
1, 74592, Note_off_c, 1, 67, 0
1, 74592, Note_off_c, 1, 60, 0
1, 74640, Note_on_c, 1, 69, 127
1, 74640, Note_on_c, 1, 53, 127
1, 74688, Note_off_c, 1, 53, 0
1, 74700, Note_on_c, 1, 55, 127
1, 74736, Note_off_c, 1, 69, 0
1, 74748, Note_off_c, 1, 55, 0
1, 74760, Note_on_c, 1, 72, 127
1, 74760, Note_on_c, 1, 77, 127
1, 74760, Note_on_c, 1, 69, 127
1, 74760, Note_on_c, 1, 57, 127
1, 74808, Note_off_c, 1, 57, 0
1, 74820, Note_on_c, 1, 53, 127
1, 74856, Note_off_c, 1, 72, 0
1, 74856, Note_off_c, 1, 77, 0
1, 74856, Note_off_c, 1, 69, 0
1, 74868, Note_off_c, 1, 53, 0
1, 74880, Note_on_c, 1, 77, 127
1, 74880, Note_on_c, 1, 67, 127
1, 74880, Note_on_c, 1, 74, 127
1, 74880, Note_on_c, 1, 58, 127
1, 74928, Note_off_c, 1, 58, 0
1, 74940, Note_on_c, 1, 60, 127
1, 74976, Note_off_c, 1, 77, 0
1, 74988, Note_off_c, 1, 60, 0
1, 75000, Note_on_c, 1, 79, 127
1, 75048, Note_off_c, 1, 79, 0
1, 75060, Note_on_c, 1, 57, 127
1, 75072, Note_off_c, 1, 67, 0
1, 75072, Note_off_c, 1, 74, 0
1, 75108, Note_off_c, 1, 57, 0
1, 75120, Note_on_c, 1, 75, 127
1, 75120, Note_on_c, 1, 55, 127
1, 75168, Note_off_c, 1, 55, 0
1, 75180, Note_on_c, 1, 60, 127
1, 75216, Note_off_c, 1, 75, 0
1, 75228, Note_off_c, 1, 60, 0
1, 75240, Note_on_c, 1, 67, 127
1, 75240, Note_on_c, 1, 75, 127
1, 75240, Note_on_c, 1, 72, 127
1, 75240, Note_on_c, 1, 58, 127
1, 75288, Note_off_c, 1, 58, 0
1, 75300, Note_on_c, 1, 60, 127
1, 75336, Note_off_c, 1, 67, 0
1, 75336, Note_off_c, 1, 75, 0
1, 75336, Note_off_c, 1, 72, 0
1, 75348, Note_off_c, 1, 60, 0
1, 75360, Note_on_c, 1, 75, 127
1, 75360, Note_on_c, 1, 72, 127
1, 75360, Note_on_c, 1, 65, 127
1, 75360, Note_on_c, 1, 57, 127
1, 75408, Note_off_c, 1, 57, 0
1, 75420, Note_on_c, 1, 53, 127
1, 75456, Note_off_c, 1, 75, 0
1, 75468, Note_off_c, 1, 53, 0
1, 75480, Note_on_c, 1, 77, 127
1, 75480, Note_on_c, 1, 55, 127
1, 75528, Note_off_c, 1, 77, 0
1, 75528, Note_off_c, 1, 55, 0
1, 75552, Note_off_c, 1, 72, 0
1, 75552, Note_off_c, 1, 65, 0
1, 75600, Note_on_c, 1, 74, 127
1, 75600, Note_on_c, 1, 58, 127
1, 75648, Note_off_c, 1, 58, 0
1, 75660, Note_on_c, 1, 60, 127
1, 75696, Note_off_c, 1, 74, 0
1, 75708, Note_off_c, 1, 60, 0
1, 75720, Note_on_c, 1, 74, 127
1, 75720, Note_on_c, 1, 77, 127
1, 75720, Note_on_c, 1, 82, 127
1, 75720, Note_on_c, 1, 62, 127
1, 75768, Note_off_c, 1, 62, 0
1, 75780, Note_on_c, 1, 58, 127
1, 75816, Note_off_c, 1, 74, 0
1, 75816, Note_off_c, 1, 77, 0
1, 75816, Note_off_c, 1, 82, 0
1, 75828, Note_off_c, 1, 58, 0
1, 75840, Note_on_c, 1, 82, 127
1, 75840, Note_on_c, 1, 72, 127
1, 75840, Note_on_c, 1, 79, 127
1, 75840, Note_on_c, 1, 63, 127
1, 75888, Note_off_c, 1, 63, 0
1, 75900, Note_on_c, 1, 65, 127
1, 75936, Note_off_c, 1, 82, 0
1, 75948, Note_off_c, 1, 65, 0
1, 75960, Note_on_c, 1, 84, 127
1, 76008, Note_off_c, 1, 84, 0
1, 76020, Note_on_c, 1, 62, 127
1, 76032, Note_off_c, 1, 72, 0
1, 76032, Note_off_c, 1, 79, 0
1, 76068, Note_off_c, 1, 62, 0
1, 76080, Note_on_c, 1, 81, 127
1, 76080, Note_on_c, 1, 60, 127
1, 76128, Note_off_c, 1, 60, 0
1, 76140, Note_on_c, 1, 65, 127
1, 76188, Note_off_c, 1, 65, 0
1, 76200, Note_on_c, 1, 72, 127
1, 76200, Note_on_c, 1, 77, 127
1, 76200, Note_on_c, 1, 63, 127
1, 76248, Note_off_c, 1, 63, 0
1, 76296, Note_off_c, 1, 81, 0
1, 76296, Note_off_c, 1, 72, 0
1, 76296, Note_off_c, 1, 77, 0
1, 76320, Note_on_c, 1, 81, 127
1, 76320, Note_on_c, 1, 77, 127
1, 76320, Note_on_c, 1, 70, 127
1, 76320, Note_on_c, 1, 62, 127
1, 76368, Note_off_c, 1, 62, 0
1, 76380, Note_on_c, 1, 63, 127
1, 76416, Note_off_c, 1, 81, 0
1, 76428, Note_off_c, 1, 63, 0
1, 76440, Note_on_c, 1, 82, 127
1, 76488, Note_off_c, 1, 82, 0
1, 76500, Note_on_c, 1, 60, 127
1, 76512, Note_off_c, 1, 77, 0
1, 76512, Note_off_c, 1, 70, 0
1, 76548, Note_off_c, 1, 60, 0
1, 76560, Note_on_c, 1, 79, 127
1, 76560, Note_on_c, 1, 58, 127
1, 76608, Note_off_c, 1, 58, 0
1, 76620, Note_on_c, 1, 57, 127
1, 76656, Note_off_c, 1, 79, 0
1, 76668, Note_off_c, 1, 57, 0
1, 76680, Note_on_c, 1, 79, 127
1, 76680, Note_on_c, 1, 74, 127
1, 76680, Note_on_c, 1, 70, 127
1, 76680, Note_on_c, 1, 55, 127
1, 76728, Note_off_c, 1, 55, 0
1, 76740, Note_on_c, 1, 53, 127
1, 76776, Note_off_c, 1, 79, 0
1, 76776, Note_off_c, 1, 74, 0
1, 76776, Note_off_c, 1, 70, 0
1, 76788, Note_off_c, 1, 53, 0
1, 76800, Note_on_c, 1, 79, 127
1, 76800, Note_on_c, 1, 70, 127
1, 76800, Note_on_c, 1, 72, 127
1, 76800, Note_on_c, 1, 52, 127
1, 76848, Note_off_c, 1, 52, 0
1, 76860, Note_on_c, 1, 50, 127
1, 76896, Note_off_c, 1, 79, 0
1, 76896, Note_off_c, 1, 70, 0
1, 76896, Note_off_c, 1, 72, 0
1, 76908, Note_off_c, 1, 50, 0
1, 76920, Note_on_c, 1, 81, 127
1, 76920, Note_on_c, 1, 48, 127
1, 76968, Note_off_c, 1, 81, 0
1, 76968, Note_off_c, 1, 48, 0
1, 76980, Note_on_c, 1, 79, 127
1, 76980, Note_on_c, 1, 46, 127
1, 77028, Note_off_c, 1, 79, 0
1, 77028, Note_off_c, 1, 46, 0
1, 77040, Note_on_c, 1, 77, 127
1, 77040, Note_on_c, 1, 45, 127
1, 77088, Note_off_c, 1, 77, 0
1, 77088, Note_off_c, 1, 45, 0
1, 77100, Note_on_c, 1, 81, 127
1, 77100, Note_on_c, 1, 43, 127
1, 77148, Note_off_c, 1, 81, 0
1, 77148, Note_off_c, 1, 43, 0
1, 77160, Note_on_c, 1, 79, 127
1, 77160, Note_on_c, 1, 45, 127
1, 77208, Note_off_c, 1, 79, 0
1, 77208, Note_off_c, 1, 45, 0
1, 77220, Note_on_c, 1, 77, 127
1, 77220, Note_on_c, 1, 41, 127
1, 77268, Note_off_c, 1, 77, 0
1, 77268, Note_off_c, 1, 41, 0
1, 77280, Note_on_c, 1, 76, 127
1, 77280, Note_on_c, 1, 36, 127
1, 77328, Note_off_c, 1, 76, 0
1, 77340, Note_on_c, 1, 74, 127
1, 77376, Note_off_c, 1, 36, 0
1, 77388, Note_off_c, 1, 74, 0
1, 77400, Note_on_c, 1, 72, 127
1, 77400, Note_on_c, 1, 55, 127
1, 77448, Note_off_c, 1, 72, 0
1, 77460, Note_on_c, 1, 74, 127
1, 77496, Note_off_c, 1, 55, 0
1, 77508, Note_off_c, 1, 74, 0
1, 77520, Note_on_c, 1, 76, 127
1, 77520, Note_on_c, 1, 60, 127
1, 77568, Note_off_c, 1, 76, 0
1, 77580, Note_on_c, 1, 74, 127
1, 77616, Note_off_c, 1, 60, 0
1, 77628, Note_off_c, 1, 74, 0
1, 77640, Note_on_c, 1, 76, 127
1, 77640, Note_on_c, 1, 60, 127
1, 77688, Note_off_c, 1, 76, 0
1, 77700, Note_on_c, 1, 72, 127
1, 77736, Note_off_c, 1, 60, 0
1, 77748, Note_off_c, 1, 72, 0
1, 77760, Note_on_c, 1, 74, 127
1, 77760, Note_on_c, 1, 60, 127
1, 77808, Note_off_c, 1, 74, 0
1, 77820, Note_on_c, 1, 76, 127
1, 77856, Note_off_c, 1, 60, 0
1, 77868, Note_off_c, 1, 76, 0
1, 77880, Note_on_c, 1, 77, 127
1, 77880, Note_on_c, 1, 62, 127
1, 77928, Note_off_c, 1, 77, 0
1, 77928, Note_off_c, 1, 62, 0
1, 77940, Note_on_c, 1, 81, 127
1, 77940, Note_on_c, 1, 60, 127
1, 77988, Note_off_c, 1, 81, 0
1, 77988, Note_off_c, 1, 60, 0
1, 78000, Note_on_c, 1, 79, 127
1, 78000, Note_on_c, 1, 58, 127
1, 78048, Note_off_c, 1, 79, 0
1, 78060, Note_on_c, 1, 81, 127
1, 78096, Note_off_c, 1, 58, 0
1, 78108, Note_off_c, 1, 81, 0
1, 78120, Note_on_c, 1, 82, 127
1, 78120, Note_on_c, 1, 58, 127
1, 78168, Note_off_c, 1, 82, 0
1, 78180, Note_on_c, 1, 74, 127
1, 78216, Note_off_c, 1, 58, 0
1, 78228, Note_off_c, 1, 74, 0
1, 78240, Note_on_c, 1, 72, 127
1, 78240, Note_on_c, 1, 58, 127
1, 78288, Note_off_c, 1, 72, 0
1, 78300, Note_on_c, 1, 74, 127
1, 78336, Note_off_c, 1, 58, 0
1, 78348, Note_off_c, 1, 74, 0
1, 78360, Note_on_c, 1, 76, 127
1, 78360, Note_on_c, 1, 60, 127
1, 78408, Note_off_c, 1, 76, 0
1, 78408, Note_off_c, 1, 60, 0
1, 78420, Note_on_c, 1, 79, 127
1, 78420, Note_on_c, 1, 58, 127
1, 78468, Note_off_c, 1, 79, 0
1, 78468, Note_off_c, 1, 58, 0
1, 78480, Note_on_c, 1, 77, 127
1, 78480, Note_on_c, 1, 57, 127
1, 78528, Note_off_c, 1, 77, 0
1, 78540, Note_on_c, 1, 79, 127
1, 78576, Note_off_c, 1, 57, 0
1, 78588, Note_off_c, 1, 79, 0
1, 78600, Note_on_c, 1, 81, 127
1, 78600, Note_on_c, 1, 57, 127
1, 78648, Note_off_c, 1, 81, 0
1, 78660, Note_on_c, 1, 72, 127
1, 78696, Note_off_c, 1, 57, 0
1, 78708, Note_off_c, 1, 72, 0
1, 78720, Note_on_c, 1, 70, 127
1, 78720, Note_on_c, 1, 57, 127
1, 78768, Note_off_c, 1, 70, 0
1, 78780, Note_on_c, 1, 72, 127
1, 78816, Note_off_c, 1, 57, 0
1, 78828, Note_off_c, 1, 72, 0
1, 78840, Note_on_c, 1, 74, 127
1, 78840, Note_on_c, 1, 58, 127
1, 78888, Note_off_c, 1, 74, 0
1, 78888, Note_off_c, 1, 58, 0
1, 78900, Note_on_c, 1, 77, 127
1, 78900, Note_on_c, 1, 57, 127
1, 78948, Note_off_c, 1, 77, 0
1, 78948, Note_off_c, 1, 57, 0
1, 78960, Note_on_c, 1, 76, 127
1, 78960, Note_on_c, 1, 55, 127
1, 79008, Note_off_c, 1, 76, 0
1, 79008, Note_off_c, 1, 55, 0
1, 79020, Note_on_c, 1, 77, 127
1, 79020, Note_on_c, 1, 53, 127
1, 79068, Note_off_c, 1, 77, 0
1, 79068, Note_off_c, 1, 53, 0
1, 79080, Note_on_c, 1, 79, 127
1, 79080, Note_on_c, 1, 52, 127
1, 79128, Note_off_c, 1, 79, 0
1, 79128, Note_off_c, 1, 52, 0
1, 79140, Note_on_c, 1, 70, 127
1, 79140, Note_on_c, 1, 55, 127
1, 79188, Note_off_c, 1, 70, 0
1, 79188, Note_off_c, 1, 55, 0
1, 79200, Note_on_c, 1, 69, 127
1, 79200, Note_on_c, 1, 53, 127
1, 79248, Note_off_c, 1, 53, 0
1, 79260, Note_on_c, 1, 58, 127
1, 79296, Note_off_c, 1, 69, 0
1, 79308, Note_off_c, 1, 58, 0
1, 79320, Note_on_c, 1, 72, 127
1, 79320, Note_on_c, 1, 57, 127
1, 79368, Note_off_c, 1, 57, 0
1, 79380, Note_on_c, 1, 55, 127
1, 79416, Note_off_c, 1, 72, 0
1, 79428, Note_off_c, 1, 55, 0
1, 79440, Note_on_c, 1, 77, 127
1, 79440, Note_on_c, 1, 53, 127
1, 79488, Note_off_c, 1, 53, 0
1, 79500, Note_on_c, 1, 52, 127
1, 79548, Note_off_c, 1, 52, 0
1, 79560, Note_on_c, 1, 50, 127
1, 79584, Note_off_c, 1, 77, 0
1, 79608, Note_off_c, 1, 50, 0
1, 79620, Note_on_c, 1, 77, 127
1, 79620, Note_on_c, 1, 53, 127
1, 79668, Note_off_c, 1, 77, 0
1, 79668, Note_off_c, 1, 53, 0
1, 79680, Note_on_c, 1, 77, 127
1, 79680, Note_on_c, 1, 46, 127
1, 79728, Note_off_c, 1, 77, 0
1, 79728, Note_off_c, 1, 46, 0
1, 79740, Note_on_c, 1, 82, 127
1, 79740, Note_on_c, 1, 50, 127
1, 79788, Note_off_c, 1, 82, 0
1, 79788, Note_off_c, 1, 50, 0
1, 79800, Note_on_c, 1, 81, 127
1, 79800, Note_on_c, 1, 48, 127
1, 79848, Note_off_c, 1, 81, 0
1, 79848, Note_off_c, 1, 48, 0
1, 79860, Note_on_c, 1, 79, 127
1, 79860, Note_on_c, 1, 46, 127
1, 79908, Note_off_c, 1, 79, 0
1, 79917, Note_off_c, 1, 46, 0
1, 79920, Note_on_c, 1, 79, 127
1, 79920, Note_on_c, 1, 48, 127
1, 80016, Note_off_c, 1, 48, 0
1, 80040, Note_on_c, 1, 36, 127
1, 80064, Note_off_c, 1, 79, 0
1, 80100, Note_on_c, 1, 77, 127
1, 80136, Note_off_c, 1, 36, 0
1, 80148, Note_off_c, 1, 77, 0
1, 80160, Note_on_c, 1, 77, 127
1, 80160, Note_on_c, 1, 41, 127
1, 80208, Note_off_c, 1, 41, 0
1, 80220, Note_on_c, 1, 36, 127
1, 80268, Note_off_c, 1, 36, 0
1, 80280, Note_on_c, 1, 38, 127
1, 80328, Note_off_c, 1, 38, 0
1, 80340, Note_on_c, 1, 40, 127
1, 80352, Note_off_c, 1, 77, 0
1, 80388, Note_off_c, 1, 40, 0
1, 80400, Note_on_c, 1, 41, 127
1, 80448, Note_off_c, 1, 41, 0
1, 80460, Note_on_c, 1, 43, 127
1, 80508, Note_off_c, 1, 43, 0
1, 80520, Note_on_c, 1, 65, 127
1, 80520, Note_on_c, 1, 45, 127
1, 80568, Note_off_c, 1, 45, 0
1, 80580, Note_on_c, 1, 41, 127
1, 80616, Note_off_c, 1, 65, 0
1, 80628, Note_off_c, 1, 41, 0
1, 80640, Note_on_c, 1, 64, 127
1, 80640, Note_on_c, 1, 48, 127
1, 80688, Note_off_c, 1, 64, 0
1, 80700, Note_on_c, 1, 65, 127
1, 80736, Note_off_c, 1, 48, 0
1, 80748, Note_off_c, 1, 65, 0
1, 80760, Note_on_c, 1, 67, 127
1, 80760, Note_on_c, 1, 36, 127
1, 80808, Note_off_c, 1, 67, 0
1, 80820, Note_on_c, 1, 58, 127
1, 80856, Note_off_c, 1, 36, 0
1, 80868, Note_off_c, 1, 58, 0
1, 80880, Note_on_c, 1, 57, 127
1, 80928, Note_off_c, 1, 57, 0
1, 80940, Note_on_c, 1, 58, 127
1, 80988, Note_off_c, 1, 58, 0
1, 81000, Note_on_c, 1, 60, 127
1, 81000, Note_on_c, 1, 48, 127
1, 81048, Note_off_c, 1, 60, 0
1, 81060, Note_on_c, 1, 65, 127
1, 81096, Note_off_c, 1, 48, 0
1, 81108, Note_off_c, 1, 65, 0
1, 81120, Note_on_c, 1, 64, 127
1, 81120, Note_on_c, 1, 48, 127
1, 81168, Note_off_c, 1, 64, 0
1, 81180, Note_on_c, 1, 65, 127
1, 81216, Note_off_c, 1, 48, 0
1, 81228, Note_off_c, 1, 65, 0
1, 81240, Note_on_c, 1, 67, 127
1, 81240, Note_on_c, 1, 36, 127
1, 81288, Note_off_c, 1, 67, 0
1, 81300, Note_on_c, 1, 58, 127
1, 81336, Note_off_c, 1, 36, 0
1, 81348, Note_off_c, 1, 58, 0
1, 81360, Note_on_c, 1, 57, 127
1, 81408, Note_off_c, 1, 57, 0
1, 81420, Note_on_c, 1, 58, 127
1, 81468, Note_off_c, 1, 58, 0
1, 81480, Note_on_c, 1, 60, 127
1, 81480, Note_on_c, 1, 48, 127
1, 81528, Note_off_c, 1, 60, 0
1, 81540, Note_on_c, 1, 64, 127
1, 81576, Note_off_c, 1, 48, 0
1, 81588, Note_off_c, 1, 64, 0
1, 81600, Note_on_c, 1, 65, 127
1, 81600, Note_on_c, 1, 48, 127
1, 81648, Note_off_c, 1, 65, 0
1, 81660, Note_on_c, 1, 67, 127
1, 81696, Note_off_c, 1, 48, 0
1, 81708, Note_off_c, 1, 67, 0
1, 81720, Note_on_c, 1, 68, 127
1, 81720, Note_on_c, 1, 36, 127
1, 81768, Note_off_c, 1, 68, 0
1, 81780, Note_on_c, 1, 60, 127
1, 81816, Note_off_c, 1, 36, 0
1, 81828, Note_off_c, 1, 60, 0
1, 81840, Note_on_c, 1, 59, 127
1, 81888, Note_off_c, 1, 59, 0
1, 81900, Note_on_c, 1, 60, 127
1, 81948, Note_off_c, 1, 60, 0
1, 81960, Note_on_c, 1, 62, 127
1, 81960, Note_on_c, 1, 48, 127
1, 82008, Note_off_c, 1, 62, 0
1, 82020, Note_on_c, 1, 64, 127
1, 82056, Note_off_c, 1, 48, 0
1, 82068, Note_off_c, 1, 64, 0
1, 82080, Note_on_c, 1, 65, 127
1, 82080, Note_on_c, 1, 48, 127
1, 82128, Note_off_c, 1, 65, 0
1, 82140, Note_on_c, 1, 67, 127
1, 82176, Note_off_c, 1, 48, 0
1, 82188, Note_off_c, 1, 67, 0
1, 82200, Note_on_c, 1, 68, 127
1, 82200, Note_on_c, 1, 36, 127
1, 82248, Note_off_c, 1, 68, 0
1, 82260, Note_on_c, 1, 60, 127
1, 82296, Note_off_c, 1, 36, 0
1, 82308, Note_off_c, 1, 60, 0
1, 82320, Note_on_c, 1, 58, 127
1, 82368, Note_off_c, 1, 58, 0
1, 82380, Note_on_c, 1, 60, 127
1, 82428, Note_off_c, 1, 60, 0
1, 82440, Note_on_c, 1, 62, 127
1, 82440, Note_on_c, 1, 48, 127
1, 82488, Note_off_c, 1, 62, 0
1, 82500, Note_on_c, 1, 65, 127
1, 82536, Note_off_c, 1, 48, 0
1, 82548, Note_off_c, 1, 65, 0
1, 82560, Note_on_c, 1, 64, 127
1, 82560, Note_on_c, 1, 48, 127
1, 82608, Note_off_c, 1, 64, 0
1, 82620, Note_on_c, 1, 65, 127
1, 82656, Note_off_c, 1, 48, 0
1, 82668, Note_off_c, 1, 65, 0
1, 82680, Note_on_c, 1, 67, 127
1, 82680, Note_on_c, 1, 36, 127
1, 82728, Note_off_c, 1, 67, 0
1, 82740, Note_on_c, 1, 60, 127
1, 82776, Note_off_c, 1, 36, 0
1, 82788, Note_off_c, 1, 60, 0
1, 82800, Note_on_c, 1, 58, 127
1, 82848, Note_off_c, 1, 58, 0
1, 82860, Note_on_c, 1, 60, 127
1, 82908, Note_off_c, 1, 60, 0
1, 82920, Note_on_c, 1, 61, 127
1, 82968, Note_off_c, 1, 61, 0
1, 82980, Note_on_c, 1, 56, 127
1, 83028, Note_off_c, 1, 56, 0
1, 83040, Note_on_c, 1, 55, 127
1, 83088, Note_off_c, 1, 55, 0
1, 83100, Note_on_c, 1, 57, 127
1, 83148, Note_off_c, 1, 57, 0
1, 83160, Note_on_c, 1, 58, 127
1, 83208, Note_off_c, 1, 58, 0
1, 83220, Note_on_c, 1, 53, 127
1, 83268, Note_off_c, 1, 53, 0
1, 83280, Note_on_c, 1, 52, 127
1, 83328, Note_off_c, 1, 52, 0
1, 83340, Note_on_c, 1, 53, 127
1, 83388, Note_off_c, 1, 53, 0
1, 83400, Note_on_c, 1, 55, 127
1, 83448, Note_off_c, 1, 55, 0
1, 83460, Note_on_c, 1, 48, 127
1, 83508, Note_off_c, 1, 48, 0
1, 83520, Note_on_c, 1, 46, 127
1, 83568, Note_off_c, 1, 46, 0
1, 83580, Note_on_c, 1, 48, 127
1, 83628, Note_off_c, 1, 48, 0
1, 83640, Note_on_c, 1, 49, 127
1, 83688, Note_off_c, 1, 49, 0
1, 83700, Note_on_c, 1, 44, 127
1, 83748, Note_off_c, 1, 44, 0
1, 83760, Note_on_c, 1, 43, 127
1, 83808, Note_off_c, 1, 43, 0
1, 83820, Note_on_c, 1, 44, 127
1, 83868, Note_off_c, 1, 44, 0
1, 83880, Note_on_c, 1, 46, 127
1, 83928, Note_off_c, 1, 46, 0
1, 83940, Note_on_c, 1, 41, 127
1, 83988, Note_off_c, 1, 41, 0
1, 84000, Note_on_c, 1, 40, 127
1, 84096, Note_off_c, 1, 40, 0
1, 84120, Note_on_c, 1, 69, 127
1, 84120, Note_on_c, 1, 65, 127
1, 84120, Note_on_c, 1, 41, 127
1, 84168, Note_off_c, 1, 69, 0
1, 84180, Note_on_c, 1, 70, 127
1, 84204, Note_off_c, 1, 70, 0
1, 84210, Note_on_c, 1, 72, 127
1, 84216, Note_off_c, 1, 65, 0
1, 84216, Note_off_c, 1, 41, 0
1, 84234, Note_off_c, 1, 72, 0
1, 84240, Note_on_c, 1, 65, 127
1, 84240, Note_on_c, 1, 69, 127
1, 84240, Note_on_c, 1, 48, 127
1, 84336, Note_off_c, 1, 65, 0
1, 84336, Note_off_c, 1, 69, 0
1, 84336, Note_off_c, 1, 48, 0
1, 84360, Note_on_c, 1, 67, 127
1, 84360, Note_on_c, 1, 64, 127
1, 84360, Note_on_c, 1, 36, 127
1, 84408, Note_off_c, 1, 67, 0
1, 84420, Note_on_c, 1, 65, 127
1, 84456, Note_off_c, 1, 64, 0
1, 84456, Note_off_c, 1, 36, 0
1, 84468, Note_off_c, 1, 65, 0
1, 84480, Note_on_c, 1, 65, 127
1, 84480, Note_on_c, 1, 41, 127
1, 84528, Note_off_c, 1, 65, 0
1, 84528, Note_off_c, 1, 41, 0
1, 84540, Note_on_c, 1, 60, 127
1, 84588, Note_off_c, 1, 60, 0
1, 84600, Note_on_c, 1, 62, 127
1, 84648, Note_off_c, 1, 62, 0
1, 84660, Note_on_c, 1, 64, 127
1, 84708, Note_off_c, 1, 64, 0
1, 84720, Note_on_c, 1, 65, 127
1, 84768, Note_off_c, 1, 65, 0
1, 84780, Note_on_c, 1, 67, 127
1, 84828, Note_off_c, 1, 67, 0
1, 84840, Note_on_c, 1, 69, 127
1, 84888, Note_off_c, 1, 69, 0
1, 84900, Note_on_c, 1, 65, 127
1, 84948, Note_off_c, 1, 65, 0
1, 84960, Note_on_c, 1, 70, 127
1, 85008, Note_off_c, 1, 70, 0
1, 85020, Note_on_c, 1, 72, 127
1, 85068, Note_off_c, 1, 72, 0
1, 85080, Note_on_c, 1, 70, 127
1, 85128, Note_off_c, 1, 70, 0
1, 85140, Note_on_c, 1, 69, 127
1, 85188, Note_off_c, 1, 69, 0
1, 85200, Note_on_c, 1, 67, 127
1, 85248, Note_off_c, 1, 67, 0
1, 85260, Note_on_c, 1, 72, 127
1, 85308, Note_off_c, 1, 72, 0
1, 85320, Note_on_c, 1, 70, 127
1, 85368, Note_off_c, 1, 70, 0
1, 85380, Note_on_c, 1, 72, 127
1, 85428, Note_off_c, 1, 72, 0
1, 85440, Note_on_c, 1, 69, 127
1, 85500, Note_on_c, 1, 48, 127
1, 85536, Note_off_c, 1, 69, 0
1, 85548, Note_off_c, 1, 48, 0
1, 85560, Note_on_c, 1, 65, 127
1, 85560, Note_on_c, 1, 50, 127
1, 85608, Note_off_c, 1, 50, 0
1, 85620, Note_on_c, 1, 52, 127
1, 85656, Note_off_c, 1, 65, 0
1, 85668, Note_off_c, 1, 52, 0
1, 85680, Note_on_c, 1, 77, 127
1, 85680, Note_on_c, 1, 53, 127
1, 85728, Note_off_c, 1, 53, 0
1, 85740, Note_on_c, 1, 55, 127
1, 85788, Note_off_c, 1, 55, 0
1, 85800, Note_on_c, 1, 57, 127
1, 85824, Note_off_c, 1, 77, 0
1, 85848, Note_off_c, 1, 57, 0
1, 85860, Note_on_c, 1, 77, 127
1, 85860, Note_on_c, 1, 53, 127
1, 85908, Note_off_c, 1, 77, 0
1, 85908, Note_off_c, 1, 53, 0
1, 85920, Note_on_c, 1, 77, 127
1, 85920, Note_on_c, 1, 58, 127
1, 85968, Note_off_c, 1, 58, 0
1, 85980, Note_on_c, 1, 60, 127
1, 86028, Note_off_c, 1, 60, 0
1, 86064, Note_off_c, 1, 77, 0
1, 86100, Note_on_c, 1, 79, 127
1, 86100, Note_on_c, 1, 57, 127
1, 86148, Note_off_c, 1, 79, 0
1, 86148, Note_off_c, 1, 57, 0
1, 86160, Note_on_c, 1, 77, 127
1, 86160, Note_on_c, 1, 55, 127
1, 86184, Note_off_c, 1, 77, 0
1, 86190, Note_on_c, 1, 76, 127
1, 86208, Note_off_c, 1, 55, 0
1, 86214, Note_off_c, 1, 76, 0
1, 86220, Note_on_c, 1, 77, 127
1, 86220, Note_on_c, 1, 60, 127
1, 86244, Note_off_c, 1, 77, 0
1, 86250, Note_on_c, 1, 76, 127
1, 86268, Note_off_c, 1, 60, 0
1, 86280, Note_on_c, 1, 58, 127
1, 86328, Note_off_c, 1, 76, 0
1, 86328, Note_off_c, 1, 58, 0
1, 86340, Note_on_c, 1, 77, 127
1, 86340, Note_on_c, 1, 60, 127
1, 86388, Note_off_c, 1, 77, 0
1, 86400, Note_on_c, 1, 57, 127
1, 86460, Note_on_c, 1, 79, 127
1, 86496, Note_off_c, 1, 57, 0
1, 86508, Note_off_c, 1, 79, 0
1, 86520, Note_on_c, 1, 53, 127
1, 86580, Note_on_c, 1, 76, 127
1, 86616, Note_off_c, 1, 53, 0
1, 86628, Note_off_c, 1, 76, 0
1, 86640, Note_on_c, 1, 74, 127
1, 86640, Note_on_c, 1, 65, 127
1, 86688, Note_off_c, 1, 74, 0
1, 86784, Note_off_c, 1, 65, 0
1, 86820, Note_on_c, 1, 81, 127
1, 86868, Note_off_c, 1, 81, 0
1, 86880, Note_on_c, 1, 71, 127
1, 86928, Note_off_c, 1, 71, 0
1, 86940, Note_on_c, 1, 72, 127
1, 86988, Note_off_c, 1, 72, 0
1, 87060, Note_on_c, 1, 67, 127
1, 87108, Note_off_c, 1, 67, 0
1, 87120, Note_on_c, 1, 64, 127
1, 87264, Note_off_c, 1, 64, 0
1, 87360, Note_on_c, 1, 69, 127
1, 87408, Note_off_c, 1, 69, 0
1, 87600, Note_on_c, 1, 62, 127
1, 87744, Note_off_c, 1, 62, 0
1, 88368, Note_off_c, 1, 60, 0
1, 88440, Note_on_c, 1, 69, 127
1, 88440, Note_on_c, 1, 62, 127
1, 88488, Note_off_c, 1, 62, 0
1, 88500, Note_on_c, 1, 60, 127
1, 88536, Note_off_c, 1, 69, 0
1, 88548, Note_off_c, 1, 60, 0
1, 88560, Note_on_c, 1, 74, 127
1, 88560, Note_on_c, 1, 59, 127
1, 88608, Note_off_c, 1, 59, 0
1, 88620, Note_on_c, 1, 57, 127
1, 88668, Note_off_c, 1, 57, 0
1, 88680, Note_on_c, 1, 55, 127
1, 88704, Note_off_c, 1, 74, 0
1, 88728, Note_off_c, 1, 55, 0
1, 88740, Note_on_c, 1, 74, 127
1, 88740, Note_on_c, 1, 53, 127
1, 88788, Note_off_c, 1, 74, 0
1, 88788, Note_off_c, 1, 53, 0
1, 88800, Note_on_c, 1, 74, 127
1, 88800, Note_on_c, 1, 52, 127
1, 88848, Note_off_c, 1, 74, 0
1, 88860, Note_on_c, 1, 67, 127
1, 88908, Note_off_c, 1, 67, 0
1, 88920, Note_on_c, 1, 69, 127
1, 88968, Note_off_c, 1, 69, 0
1, 88980, Note_on_c, 1, 71, 127
1, 89028, Note_off_c, 1, 71, 0
1, 89040, Note_on_c, 1, 72, 127
1, 89088, Note_off_c, 1, 52, 0
1, 89088, Note_off_c, 1, 72, 0
1, 89100, Note_on_c, 1, 74, 127
1, 89100, Note_on_c, 1, 50, 127
1, 89148, Note_off_c, 1, 74, 0
1, 89148, Note_off_c, 1, 50, 0
1, 89160, Note_on_c, 1, 76, 127
1, 89160, Note_on_c, 1, 48, 127
1, 89208, Note_off_c, 1, 76, 0
1, 89208, Note_off_c, 1, 48, 0
1, 89220, Note_on_c, 1, 72, 127
1, 89220, Note_on_c, 1, 47, 127
1, 89268, Note_off_c, 1, 72, 0
1, 89268, Note_off_c, 1, 47, 0
1, 89280, Note_on_c, 1, 77, 127
1, 89280, Note_on_c, 1, 45, 127
1, 89328, Note_off_c, 1, 77, 0
1, 89328, Note_off_c, 1, 45, 0
1, 89340, Note_on_c, 1, 79, 127
1, 89340, Note_on_c, 1, 43, 127
1, 89388, Note_off_c, 1, 79, 0
1, 89388, Note_off_c, 1, 43, 0
1, 89400, Note_on_c, 1, 77, 127
1, 89400, Note_on_c, 1, 45, 127
1, 89448, Note_off_c, 1, 77, 0
1, 89448, Note_off_c, 1, 45, 0
1, 89460, Note_on_c, 1, 76, 127
1, 89460, Note_on_c, 1, 41, 127
1, 89508, Note_off_c, 1, 76, 0
1, 89508, Note_off_c, 1, 41, 0
1, 89520, Note_on_c, 1, 74, 127
1, 89520, Note_on_c, 1, 43, 127
1, 89568, Note_off_c, 1, 74, 0
1, 89580, Note_on_c, 1, 79, 127
1, 89616, Note_off_c, 1, 43, 0
1, 89628, Note_off_c, 1, 79, 0
1, 89640, Note_on_c, 1, 77, 127
1, 89640, Note_on_c, 1, 55, 127
1, 89688, Note_off_c, 1, 77, 0
1, 89700, Note_on_c, 1, 79, 127
1, 89736, Note_off_c, 1, 55, 0
1, 89748, Note_off_c, 1, 79, 0
1, 89760, Note_on_c, 1, 76, 127
1, 89760, Note_on_c, 1, 48, 127
1, 89808, Note_off_c, 1, 48, 0
1, 89820, Note_on_c, 1, 55, 127
1, 89856, Note_off_c, 1, 76, 0
1, 89868, Note_off_c, 1, 55, 0
1, 89880, Note_on_c, 1, 72, 127
1, 89880, Note_on_c, 1, 57, 127
1, 89928, Note_off_c, 1, 57, 0
1, 89940, Note_on_c, 1, 59, 127
1, 89976, Note_off_c, 1, 72, 0
1, 89988, Note_off_c, 1, 59, 0
1, 90000, Note_on_c, 1, 84, 127
1, 90000, Note_on_c, 1, 60, 127
1, 90048, Note_off_c, 1, 60, 0
1, 90060, Note_on_c, 1, 62, 127
1, 90108, Note_off_c, 1, 62, 0
1, 90120, Note_on_c, 1, 64, 127
1, 90144, Note_off_c, 1, 84, 0
1, 90168, Note_off_c, 1, 64, 0
1, 90180, Note_on_c, 1, 84, 127
1, 90180, Note_on_c, 1, 60, 127
1, 90228, Note_off_c, 1, 84, 0
1, 90228, Note_off_c, 1, 60, 0
1, 90240, Note_on_c, 1, 84, 127
1, 90240, Note_on_c, 1, 65, 127
1, 90288, Note_off_c, 1, 65, 0
1, 90300, Note_on_c, 1, 67, 127
1, 90348, Note_off_c, 1, 67, 0
1, 90384, Note_off_c, 1, 84, 0
1, 90390, Note_on_c, 1, 83, 127
1, 90414, Note_off_c, 1, 83, 0
1, 90420, Note_on_c, 1, 84, 127
1, 90420, Note_on_c, 1, 64, 127
1, 90444, Note_off_c, 1, 84, 0
1, 90450, Note_on_c, 1, 81, 127
1, 90468, Note_off_c, 1, 64, 0
1, 90474, Note_off_c, 1, 81, 0
1, 90480, Note_on_c, 1, 83, 127
1, 90480, Note_on_c, 1, 62, 127
1, 90528, Note_off_c, 1, 62, 0
1, 90540, Note_on_c, 1, 67, 127
1, 90588, Note_off_c, 1, 67, 0
1, 90600, Note_on_c, 1, 65, 127
1, 90624, Note_off_c, 1, 83, 0
1, 90648, Note_off_c, 1, 65, 0
1, 90660, Note_on_c, 1, 83, 127
1, 90660, Note_on_c, 1, 67, 127
1, 90708, Note_off_c, 1, 83, 0
1, 90708, Note_off_c, 1, 67, 0
1, 90720, Note_on_c, 1, 83, 127
1, 90720, Note_on_c, 1, 60, 127
1, 90768, Note_off_c, 1, 60, 0
1, 90780, Note_on_c, 1, 62, 127
1, 90816, Note_off_c, 1, 83, 0
1, 90828, Note_off_c, 1, 62, 0
1, 90840, Note_on_c, 1, 76, 127
1, 90840, Note_on_c, 1, 64, 127
1, 90888, Note_off_c, 1, 64, 0
1, 90900, Note_on_c, 1, 67, 127
1, 90936, Note_off_c, 1, 76, 0
1, 90948, Note_off_c, 1, 67, 0
1, 90960, Note_on_c, 1, 81, 127
1, 90960, Note_on_c, 1, 53, 127
1, 91008, Note_off_c, 1, 53, 0
1, 91020, Note_on_c, 1, 55, 127
1, 91068, Note_off_c, 1, 55, 0
1, 91080, Note_on_c, 1, 57, 127
1, 91104, Note_off_c, 1, 81, 0
1, 91128, Note_off_c, 1, 57, 0
1, 91140, Note_on_c, 1, 81, 127
1, 91140, Note_on_c, 1, 60, 127
1, 91188, Note_off_c, 1, 81, 0
1, 91188, Note_off_c, 1, 60, 0
1, 91200, Note_on_c, 1, 81, 127
1, 91200, Note_on_c, 1, 59, 127
1, 91248, Note_off_c, 1, 59, 0
1, 91260, Note_on_c, 1, 60, 127
1, 91308, Note_off_c, 1, 60, 0
1, 91320, Note_on_c, 1, 62, 127
1, 91344, Note_off_c, 1, 81, 0
1, 91368, Note_off_c, 1, 62, 0
1, 91380, Note_on_c, 1, 79, 127
1, 91380, Note_on_c, 1, 65, 127
1, 91404, Note_off_c, 1, 79, 0
1, 91410, Note_on_c, 1, 77, 127
1, 91428, Note_off_c, 1, 65, 0
1, 91434, Note_off_c, 1, 77, 0
1, 91440, Note_on_c, 1, 79, 127
1, 91440, Note_on_c, 1, 52, 127
1, 91488, Note_off_c, 1, 52, 0
1, 91500, Note_on_c, 1, 53, 127
1, 91548, Note_off_c, 1, 53, 0
1, 91560, Note_on_c, 1, 55, 127
1, 91584, Note_off_c, 1, 79, 0
1, 91608, Note_off_c, 1, 55, 0
1, 91620, Note_on_c, 1, 79, 127
1, 91620, Note_on_c, 1, 59, 127
1, 91668, Note_off_c, 1, 79, 0
1, 91668, Note_off_c, 1, 59, 0
1, 91680, Note_on_c, 1, 79, 127
1, 91680, Note_on_c, 1, 57, 127
1, 91728, Note_off_c, 1, 57, 0
1, 91740, Note_on_c, 1, 59, 127
1, 91776, Note_off_c, 1, 79, 0
1, 91788, Note_off_c, 1, 59, 0
1, 91800, Note_on_c, 1, 72, 127
1, 91800, Note_on_c, 1, 60, 127
1, 91848, Note_off_c, 1, 60, 0
1, 91860, Note_on_c, 1, 64, 127
1, 91896, Note_off_c, 1, 72, 0
1, 91908, Note_off_c, 1, 64, 0
1, 91920, Note_on_c, 1, 77, 127
1, 91920, Note_on_c, 1, 50, 127
1, 91968, Note_off_c, 1, 50, 0
1, 91980, Note_on_c, 1, 52, 127
1, 92028, Note_off_c, 1, 52, 0
1, 92040, Note_on_c, 1, 53, 127
1, 92064, Note_off_c, 1, 77, 0
1, 92088, Note_off_c, 1, 53, 0
1, 92100, Note_on_c, 1, 77, 127
1, 92100, Note_on_c, 1, 57, 127
1, 92148, Note_off_c, 1, 77, 0
1, 92148, Note_off_c, 1, 57, 0
1, 92160, Note_on_c, 1, 77, 127
1, 92160, Note_on_c, 1, 55, 127
1, 92208, Note_off_c, 1, 77, 0
1, 92220, Note_on_c, 1, 81, 127
1, 92256, Note_off_c, 1, 55, 0
1, 92268, Note_off_c, 1, 81, 0
1, 92280, Note_on_c, 1, 79, 127
1, 92280, Note_on_c, 1, 48, 127
1, 92328, Note_off_c, 1, 79, 0
1, 92340, Note_on_c, 1, 77, 127
1, 92376, Note_off_c, 1, 48, 0
1, 92388, Note_off_c, 1, 77, 0
1, 92400, Note_on_c, 1, 76, 127
1, 92400, Note_on_c, 1, 60, 127
1, 92448, Note_off_c, 1, 76, 0
1, 92460, Note_on_c, 1, 77, 127
1, 92508, Note_off_c, 1, 77, 0
1, 92520, Note_on_c, 1, 79, 127
1, 92544, Note_off_c, 1, 60, 0
1, 92568, Note_off_c, 1, 79, 0
1, 92580, Note_on_c, 1, 76, 127
1, 92580, Note_on_c, 1, 60, 127
1, 92628, Note_off_c, 1, 76, 0
1, 92628, Note_off_c, 1, 60, 0
1, 92640, Note_on_c, 1, 77, 127
1, 92640, Note_on_c, 1, 60, 127
1, 92688, Note_off_c, 1, 77, 0
1, 92700, Note_on_c, 1, 79, 127
1, 92748, Note_off_c, 1, 79, 0
1, 92784, Note_off_c, 1, 60, 0
1, 92820, Note_on_c, 1, 76, 127
1, 92820, Note_on_c, 1, 62, 127
1, 92868, Note_off_c, 1, 76, 0
1, 92868, Note_off_c, 1, 62, 0
1, 92880, Note_on_c, 1, 74, 127
1, 92880, Note_on_c, 1, 60, 127
1, 92904, Note_off_c, 1, 60, 0
1, 92910, Note_on_c, 1, 58, 127
1, 92928, Note_off_c, 1, 74, 0
1, 92934, Note_off_c, 1, 58, 0
1, 92940, Note_on_c, 1, 79, 127
1, 92940, Note_on_c, 1, 60, 127
1, 92964, Note_off_c, 1, 60, 0
1, 92970, Note_on_c, 1, 58, 127
1, 92988, Note_off_c, 1, 79, 0
1, 93000, Note_on_c, 1, 77, 127
1, 93048, Note_off_c, 1, 58, 0
1, 93048, Note_off_c, 1, 77, 0
1, 93060, Note_on_c, 1, 79, 127
1, 93060, Note_on_c, 1, 58, 127
1, 93108, Note_off_c, 1, 79, 0
1, 93108, Note_off_c, 1, 58, 0
1, 93120, Note_on_c, 1, 76, 127
1, 93120, Note_on_c, 1, 58, 127
1, 93168, Note_off_c, 1, 76, 0
1, 93180, Note_on_c, 1, 72, 127
1, 93216, Note_off_c, 1, 58, 0
1, 93228, Note_off_c, 1, 72, 0
1, 93240, Note_on_c, 1, 74, 127
1, 93240, Note_on_c, 1, 60, 127
1, 93288, Note_off_c, 1, 74, 0
1, 93288, Note_off_c, 1, 60, 0
1, 93300, Note_on_c, 1, 76, 127
1, 93300, Note_on_c, 1, 58, 127
1, 93348, Note_off_c, 1, 76, 0
1, 93348, Note_off_c, 1, 58, 0
1, 93360, Note_on_c, 1, 77, 127
1, 93360, Note_on_c, 1, 57, 127
1, 93408, Note_off_c, 1, 77, 0
1, 93408, Note_off_c, 1, 57, 0
1, 93420, Note_on_c, 1, 79, 127
1, 93420, Note_on_c, 1, 55, 127
1, 93468, Note_off_c, 1, 79, 0
1, 93468, Note_off_c, 1, 55, 0
1, 93480, Note_on_c, 1, 81, 127
1, 93480, Note_on_c, 1, 53, 127
1, 93528, Note_off_c, 1, 81, 0
1, 93528, Note_off_c, 1, 53, 0
1, 93540, Note_on_c, 1, 77, 127
1, 93540, Note_on_c, 1, 52, 127
1, 93588, Note_off_c, 1, 77, 0
1, 93588, Note_off_c, 1, 52, 0
1, 93600, Note_on_c, 1, 82, 127
1, 93600, Note_on_c, 1, 50, 127
1, 93648, Note_off_c, 1, 82, 0
1, 93648, Note_off_c, 1, 50, 0
1, 93660, Note_on_c, 1, 84, 127
1, 93660, Note_on_c, 1, 48, 127
1, 93708, Note_off_c, 1, 84, 0
1, 93708, Note_off_c, 1, 48, 0
1, 93720, Note_on_c, 1, 82, 127
1, 93720, Note_on_c, 1, 50, 127
1, 93768, Note_off_c, 1, 82, 0
1, 93768, Note_off_c, 1, 50, 0
1, 93780, Note_on_c, 1, 81, 127
1, 93780, Note_on_c, 1, 46, 127
1, 93828, Note_off_c, 1, 81, 0
1, 93828, Note_off_c, 1, 46, 0
1, 93840, Note_on_c, 1, 79, 127
1, 93840, Note_on_c, 1, 48, 127
1, 93888, Note_off_c, 1, 79, 0
1, 93900, Note_on_c, 1, 84, 127
1, 93936, Note_off_c, 1, 48, 0
1, 93948, Note_off_c, 1, 84, 0
1, 93960, Note_on_c, 1, 82, 127
1, 93960, Note_on_c, 1, 36, 127
1, 94008, Note_off_c, 1, 82, 0
1, 94020, Note_on_c, 1, 84, 127
1, 94056, Note_off_c, 1, 36, 0
1, 94068, Note_off_c, 1, 84, 0
1, 94080, Note_on_c, 1, 81, 127
1, 94080, Note_on_c, 1, 41, 127
1, 94128, Note_off_c, 1, 81, 0
1, 94140, Note_on_c, 1, 82, 127
1, 94188, Note_off_c, 1, 82, 0
1, 94260, Note_on_c, 1, 79, 127
1, 94272, Note_off_c, 1, 41, 0
1, 94308, Note_off_c, 1, 79, 0
1, 94320, Note_on_c, 1, 77, 127
1, 94368, Note_off_c, 1, 77, 0
1, 94380, Note_on_c, 1, 76, 127
1, 94428, Note_off_c, 1, 76, 0
1, 94440, Note_on_c, 1, 74, 127
1, 94440, Note_on_c, 1, 53, 127
1, 94488, Note_off_c, 1, 74, 0
1, 94500, Note_on_c, 1, 72, 127
1, 94536, Note_off_c, 1, 53, 0
1, 94548, Note_off_c, 1, 72, 0
1, 94560, Note_on_c, 1, 71, 127
1, 94560, Note_on_c, 1, 55, 127
1, 94608, Note_off_c, 1, 71, 0
1, 94608, Note_off_c, 1, 55, 0
1, 94620, Note_on_c, 1, 67, 127
1, 94620, Note_on_c, 1, 60, 127
1, 94668, Note_off_c, 1, 67, 0
1, 94668, Note_off_c, 1, 60, 0
1, 94680, Note_on_c, 1, 69, 127
1, 94680, Note_on_c, 1, 59, 127
1, 94728, Note_off_c, 1, 69, 0
1, 94728, Note_off_c, 1, 59, 0
1, 94740, Note_on_c, 1, 71, 127
1, 94740, Note_on_c, 1, 57, 127
1, 94788, Note_off_c, 1, 71, 0
1, 94788, Note_off_c, 1, 57, 0
1, 94800, Note_on_c, 1, 72, 127
1, 94800, Note_on_c, 1, 55, 127
1, 94848, Note_off_c, 1, 72, 0
1, 94848, Note_off_c, 1, 55, 0
1, 94860, Note_on_c, 1, 74, 127
1, 94860, Note_on_c, 1, 53, 127
1, 94908, Note_off_c, 1, 74, 0
1, 94908, Note_off_c, 1, 53, 0
1, 94920, Note_on_c, 1, 76, 127
1, 94920, Note_on_c, 1, 52, 127
1, 94968, Note_off_c, 1, 76, 0
1, 94968, Note_off_c, 1, 52, 0
1, 94980, Note_on_c, 1, 77, 127
1, 94980, Note_on_c, 1, 50, 127
1, 95028, Note_off_c, 1, 77, 0
1, 95028, Note_off_c, 1, 50, 0
1, 95040, Note_on_c, 1, 79, 127
1, 95040, Note_on_c, 1, 48, 127
1, 95088, Note_off_c, 1, 79, 0
1, 95100, Note_on_c, 1, 81, 127
1, 95116, Note_off_c, 1, 81, 0
1, 95136, Note_off_c, 1, 48, 0
1, 95140, Note_on_c, 1, 77, 127
1, 95156, Note_off_c, 1, 77, 0
1, 95160, Note_on_c, 1, 79, 127
1, 95160, Note_on_c, 1, 53, 127
1, 95208, Note_off_c, 1, 79, 0
1, 95220, Note_on_c, 1, 81, 127
1, 95256, Note_off_c, 1, 53, 0
1, 95268, Note_off_c, 1, 81, 0
1, 95280, Note_on_c, 1, 76, 127
1, 95280, Note_on_c, 1, 55, 127
1, 95304, Note_off_c, 1, 76, 0
1, 95310, Note_on_c, 1, 74, 127
1, 95334, Note_off_c, 1, 74, 0
1, 95376, Note_off_c, 1, 55, 0
1, 95400, Note_on_c, 1, 74, 127
1, 95400, Note_on_c, 1, 43, 127
1, 95448, Note_off_c, 1, 74, 0
1, 95460, Note_on_c, 1, 72, 127
1, 95496, Note_off_c, 1, 43, 0
1, 95508, Note_off_c, 1, 72, 0
1, 95520, Note_on_c, 1, 72, 127
1, 95520, Note_on_c, 1, 36, 127
1, 95568, Note_off_c, 1, 72, 0
1, 95580, Note_on_c, 1, 67, 127
1, 95628, Note_off_c, 1, 67, 0
1, 95640, Note_on_c, 1, 69, 127
1, 95688, Note_off_c, 1, 69, 0
1, 95700, Note_on_c, 1, 71, 127
1, 95712, Note_off_c, 1, 36, 0
1, 95748, Note_off_c, 1, 71, 0
1, 95760, Note_on_c, 1, 72, 127
1, 95760, Note_on_c, 1, 60, 127
1, 95808, Note_off_c, 1, 72, 0
1, 95820, Note_on_c, 1, 74, 127
1, 95868, Note_off_c, 1, 74, 0
1, 95880, Note_on_c, 1, 76, 127
1, 95904, Note_off_c, 1, 60, 0
1, 95928, Note_off_c, 1, 76, 0
1, 95940, Note_on_c, 1, 72, 127
1, 95940, Note_on_c, 1, 60, 127
1, 95988, Note_off_c, 1, 72, 0
1, 95988, Note_off_c, 1, 60, 0
1, 96000, Note_on_c, 1, 77, 127
1, 96000, Note_on_c, 1, 60, 127
1, 96048, Note_off_c, 1, 77, 0
1, 96060, Note_on_c, 1, 79, 127
1, 96108, Note_off_c, 1, 79, 0
1, 96144, Note_off_c, 1, 60, 0
1, 96180, Note_on_c, 1, 76, 127
1, 96180, Note_on_c, 1, 62, 127
1, 96228, Note_off_c, 1, 76, 0
1, 96228, Note_off_c, 1, 62, 0
1, 96240, Note_on_c, 1, 74, 127
1, 96240, Note_on_c, 1, 60, 127
1, 96264, Note_off_c, 1, 60, 0
1, 96270, Note_on_c, 1, 58, 127
1, 96288, Note_off_c, 1, 74, 0
1, 96294, Note_off_c, 1, 58, 0
1, 96300, Note_on_c, 1, 79, 127
1, 96300, Note_on_c, 1, 60, 127
1, 96324, Note_off_c, 1, 60, 0
1, 96330, Note_on_c, 1, 58, 127
1, 96348, Note_off_c, 1, 79, 0
1, 96360, Note_on_c, 1, 77, 127
1, 96408, Note_off_c, 1, 58, 0
1, 96408, Note_off_c, 1, 77, 0
1, 96420, Note_on_c, 1, 79, 127
1, 96420, Note_on_c, 1, 58, 127
1, 96468, Note_off_c, 1, 79, 0
1, 96468, Note_off_c, 1, 58, 0
1, 96480, Note_on_c, 1, 76, 127
1, 96480, Note_on_c, 1, 58, 127
1, 96528, Note_off_c, 1, 58, 0
1, 96540, Note_on_c, 1, 48, 127
1, 96576, Note_off_c, 1, 76, 0
1, 96588, Note_off_c, 1, 48, 0
1, 96600, Note_on_c, 1, 72, 127
1, 96600, Note_on_c, 1, 50, 127
1, 96648, Note_off_c, 1, 50, 0
1, 96660, Note_on_c, 1, 52, 127
1, 96696, Note_off_c, 1, 72, 0
1, 96708, Note_off_c, 1, 52, 0
1, 96720, Note_on_c, 1, 77, 127
1, 96720, Note_on_c, 1, 53, 127
1, 96744, Note_off_c, 1, 77, 0
1, 96750, Note_on_c, 1, 76, 127
1, 96768, Note_off_c, 1, 53, 0
1, 96774, Note_off_c, 1, 76, 0
1, 96780, Note_on_c, 1, 77, 127
1, 96780, Note_on_c, 1, 55, 127
1, 96828, Note_off_c, 1, 55, 0
1, 96840, Note_on_c, 1, 57, 127
1, 96876, Note_off_c, 1, 77, 0
1, 96888, Note_off_c, 1, 57, 0
1, 96900, Note_on_c, 1, 77, 127
1, 96900, Note_on_c, 1, 53, 127
1, 96948, Note_off_c, 1, 77, 0
1, 96948, Note_off_c, 1, 53, 0
1, 96960, Note_on_c, 1, 77, 127
1, 96960, Note_on_c, 1, 58, 127
1, 97008, Note_off_c, 1, 58, 0
1, 97020, Note_on_c, 1, 60, 127
1, 97068, Note_off_c, 1, 60, 0
1, 97104, Note_off_c, 1, 77, 0
1, 97140, Note_on_c, 1, 79, 127
1, 97140, Note_on_c, 1, 57, 127
1, 97188, Note_off_c, 1, 79, 0
1, 97188, Note_off_c, 1, 57, 0
1, 97200, Note_on_c, 1, 75, 127
1, 97200, Note_on_c, 1, 55, 127
1, 97248, Note_off_c, 1, 55, 0
1, 97260, Note_on_c, 1, 60, 127
1, 97308, Note_off_c, 1, 60, 0
1, 97320, Note_on_c, 1, 58, 127
1, 97344, Note_off_c, 1, 75, 0
1, 97368, Note_off_c, 1, 58, 0
1, 97380, Note_on_c, 1, 75, 127
1, 97380, Note_on_c, 1, 60, 127
1, 97428, Note_off_c, 1, 75, 0
1, 97428, Note_off_c, 1, 60, 0
1, 97440, Note_on_c, 1, 75, 127
1, 97440, Note_on_c, 1, 57, 127
1, 97488, Note_off_c, 1, 75, 0
1, 97500, Note_on_c, 1, 65, 127
1, 97536, Note_off_c, 1, 57, 0
1, 97548, Note_off_c, 1, 65, 0
1, 97560, Note_on_c, 1, 67, 127
1, 97560, Note_on_c, 1, 53, 127
1, 97608, Note_off_c, 1, 67, 0
1, 97620, Note_on_c, 1, 69, 127
1, 97656, Note_off_c, 1, 53, 0
1, 97668, Note_off_c, 1, 69, 0
1, 97680, Note_on_c, 1, 70, 127
1, 97680, Note_on_c, 1, 58, 127
1, 97728, Note_off_c, 1, 70, 0
1, 97740, Note_on_c, 1, 72, 127
1, 97788, Note_off_c, 1, 72, 0
1, 97800, Note_on_c, 1, 74, 127
1, 97824, Note_off_c, 1, 58, 0
1, 97848, Note_off_c, 1, 74, 0
1, 97860, Note_on_c, 1, 70, 127
1, 97860, Note_on_c, 1, 58, 127
1, 97908, Note_off_c, 1, 70, 0
1, 97908, Note_off_c, 1, 58, 0
1, 97920, Note_on_c, 1, 75, 127
1, 97920, Note_on_c, 1, 58, 127
1, 97968, Note_off_c, 1, 75, 0
1, 97980, Note_on_c, 1, 77, 127
1, 98028, Note_off_c, 1, 77, 0
1, 98064, Note_off_c, 1, 58, 0
1, 98100, Note_on_c, 1, 74, 127
1, 98100, Note_on_c, 1, 60, 127
1, 98148, Note_off_c, 1, 74, 0
1, 98148, Note_off_c, 1, 60, 0
1, 98160, Note_on_c, 1, 72, 127
1, 98160, Note_on_c, 1, 58, 127
1, 98184, Note_off_c, 1, 58, 0
1, 98190, Note_on_c, 1, 57, 127
1, 98208, Note_off_c, 1, 72, 0
1, 98214, Note_off_c, 1, 57, 0
1, 98220, Note_on_c, 1, 77, 127
1, 98220, Note_on_c, 1, 58, 127
1, 98244, Note_off_c, 1, 58, 0
1, 98250, Note_on_c, 1, 57, 127
1, 98268, Note_off_c, 1, 77, 0
1, 98280, Note_on_c, 1, 75, 127
1, 98328, Note_off_c, 1, 57, 0
1, 98328, Note_off_c, 1, 75, 0
1, 98340, Note_on_c, 1, 77, 127
1, 98340, Note_on_c, 1, 58, 127
1, 98388, Note_off_c, 1, 77, 0
1, 98388, Note_off_c, 1, 58, 0
1, 98400, Note_on_c, 1, 74, 127
1, 98400, Note_on_c, 1, 58, 127
1, 98448, Note_off_c, 1, 58, 0
1, 98460, Note_on_c, 1, 50, 127
1, 98496, Note_off_c, 1, 74, 0
1, 98508, Note_off_c, 1, 50, 0
1, 98520, Note_on_c, 1, 70, 127
1, 98520, Note_on_c, 1, 52, 127
1, 98568, Note_off_c, 1, 52, 0
1, 98580, Note_on_c, 1, 53, 127
1, 98616, Note_off_c, 1, 70, 0
1, 98628, Note_off_c, 1, 53, 0
1, 98640, Note_on_c, 1, 79, 127
1, 98640, Note_on_c, 1, 74, 127
1, 98640, Note_on_c, 1, 82, 127
1, 98640, Note_on_c, 1, 55, 127
1, 98688, Note_off_c, 1, 55, 0
1, 98700, Note_on_c, 1, 57, 127
1, 98748, Note_off_c, 1, 57, 0
1, 98760, Note_on_c, 1, 58, 127
1, 98784, Note_off_c, 1, 79, 0
1, 98784, Note_off_c, 1, 74, 0
1, 98784, Note_off_c, 1, 82, 0
1, 98808, Note_off_c, 1, 58, 0
1, 98820, Note_on_c, 1, 74, 127
1, 98820, Note_on_c, 1, 82, 127
1, 98820, Note_on_c, 1, 79, 127
1, 98820, Note_on_c, 1, 55, 127
1, 98868, Note_off_c, 1, 74, 0
1, 98868, Note_off_c, 1, 82, 0
1, 98868, Note_off_c, 1, 79, 0
1, 98868, Note_off_c, 1, 55, 0
1, 98880, Note_on_c, 1, 76, 127
1, 98880, Note_on_c, 1, 82, 127
1, 98880, Note_on_c, 1, 79, 127
1, 98880, Note_on_c, 1, 60, 127
1, 98928, Note_off_c, 1, 60, 0
1, 98940, Note_on_c, 1, 48, 127
1, 98988, Note_off_c, 1, 48, 0
1, 99000, Note_on_c, 1, 50, 127
1, 99024, Note_off_c, 1, 76, 0
1, 99024, Note_off_c, 1, 82, 0
1, 99024, Note_off_c, 1, 79, 0
1, 99048, Note_off_c, 1, 50, 0
1, 99060, Note_on_c, 1, 84, 127
1, 99060, Note_on_c, 1, 79, 127
1, 99060, Note_on_c, 1, 76, 127
1, 99060, Note_on_c, 1, 52, 127
1, 99108, Note_off_c, 1, 84, 0
1, 99108, Note_off_c, 1, 79, 0
1, 99108, Note_off_c, 1, 76, 0
1, 99108, Note_off_c, 1, 52, 0
1, 99120, Note_on_c, 1, 76, 127
1, 99120, Note_on_c, 1, 81, 127
1, 99120, Note_on_c, 1, 77, 127
1, 99120, Note_on_c, 1, 53, 127
1, 99168, Note_off_c, 1, 53, 0
1, 99180, Note_on_c, 1, 55, 127
1, 99228, Note_off_c, 1, 55, 0
1, 99240, Note_on_c, 1, 57, 127
1, 99264, Note_off_c, 1, 76, 0
1, 99264, Note_off_c, 1, 81, 0
1, 99264, Note_off_c, 1, 77, 0
1, 99288, Note_off_c, 1, 57, 0
1, 99300, Note_on_c, 1, 76, 127
1, 99300, Note_on_c, 1, 81, 127
1, 99300, Note_on_c, 1, 77, 127
1, 99300, Note_on_c, 1, 53, 127
1, 99348, Note_off_c, 1, 76, 0
1, 99348, Note_off_c, 1, 81, 0
1, 99348, Note_off_c, 1, 77, 0
1, 99348, Note_off_c, 1, 53, 0
1, 99360, Note_on_c, 1, 81, 127
1, 99360, Note_on_c, 1, 74, 127
1, 99360, Note_on_c, 1, 77, 127
1, 99360, Note_on_c, 1, 58, 127
1, 99408, Note_off_c, 1, 58, 0
1, 99420, Note_on_c, 1, 57, 127
1, 99456, Note_off_c, 1, 81, 0
1, 99456, Note_off_c, 1, 74, 0
1, 99456, Note_off_c, 1, 77, 0
1, 99468, Note_off_c, 1, 57, 0
1, 99480, Note_on_c, 1, 74, 127
1, 99480, Note_on_c, 1, 55, 127
1, 99528, Note_off_c, 1, 55, 0
1, 99540, Note_on_c, 1, 53, 127
1, 99576, Note_off_c, 1, 74, 0
1, 99588, Note_off_c, 1, 53, 0
1, 99600, Note_on_c, 1, 79, 127
1, 99600, Note_on_c, 1, 74, 127
1, 99600, Note_on_c, 1, 52, 127
1, 99648, Note_off_c, 1, 52, 0
1, 99660, Note_on_c, 1, 50, 127
1, 99708, Note_off_c, 1, 50, 0
1, 99720, Note_on_c, 1, 48, 127
1, 99744, Note_off_c, 1, 79, 0
1, 99744, Note_off_c, 1, 74, 0
1, 99768, Note_off_c, 1, 48, 0
1, 99780, Note_on_c, 1, 74, 127
1, 99780, Note_on_c, 1, 79, 127
1, 99780, Note_on_c, 1, 46, 127
1, 99828, Note_off_c, 1, 74, 0
1, 99828, Note_off_c, 1, 79, 0
1, 99828, Note_off_c, 1, 46, 0
1, 99840, Note_on_c, 1, 79, 127
1, 99840, Note_on_c, 1, 72, 127
1, 99840, Note_on_c, 1, 45, 127
1, 99888, Note_off_c, 1, 45, 0
1, 99900, Note_on_c, 1, 46, 127
1, 99948, Note_off_c, 1, 46, 0
1, 99960, Note_on_c, 1, 48, 127
1, 99984, Note_off_c, 1, 79, 0
1, 99984, Note_off_c, 1, 72, 0
1, 100008, Note_off_c, 1, 48, 0
1, 100020, Note_on_c, 1, 81, 127
1, 100020, Note_on_c, 1, 72, 127
1, 100020, Note_on_c, 1, 52, 127
1, 100068, Note_off_c, 1, 81, 0
1, 100068, Note_off_c, 1, 72, 0
1, 100068, Note_off_c, 1, 52, 0
1, 100080, Note_on_c, 1, 77, 127
1, 100080, Note_on_c, 1, 72, 127
1, 100080, Note_on_c, 1, 50, 127
1, 100128, Note_off_c, 1, 50, 0
1, 100140, Note_on_c, 1, 52, 127
1, 100188, Note_off_c, 1, 52, 0
1, 100200, Note_on_c, 1, 53, 127
1, 100224, Note_off_c, 1, 77, 0
1, 100224, Note_off_c, 1, 72, 0
1, 100248, Note_off_c, 1, 53, 0
1, 100260, Note_on_c, 1, 77, 127
1, 100260, Note_on_c, 1, 72, 127
1, 100260, Note_on_c, 1, 57, 127
1, 100308, Note_off_c, 1, 77, 0
1, 100308, Note_off_c, 1, 72, 0
1, 100308, Note_off_c, 1, 57, 0
1, 100320, Note_on_c, 1, 77, 127
1, 100320, Note_on_c, 1, 70, 127
1, 100320, Note_on_c, 1, 55, 127
1, 100368, Note_off_c, 1, 55, 0
1, 100380, Note_on_c, 1, 43, 127
1, 100428, Note_off_c, 1, 43, 0
1, 100440, Note_on_c, 1, 45, 127
1, 100464, Note_off_c, 1, 77, 0
1, 100464, Note_off_c, 1, 70, 0
1, 100488, Note_off_c, 1, 45, 0
1, 100500, Note_on_c, 1, 79, 127
1, 100500, Note_on_c, 1, 70, 127
1, 100500, Note_on_c, 1, 46, 127
1, 100548, Note_off_c, 1, 79, 0
1, 100548, Note_off_c, 1, 70, 0
1, 100548, Note_off_c, 1, 46, 0
1, 100560, Note_on_c, 1, 76, 127
1, 100560, Note_on_c, 1, 70, 127
1, 100560, Note_on_c, 1, 48, 127
1, 100608, Note_off_c, 1, 48, 0
1, 100620, Note_on_c, 1, 45, 127
1, 100668, Note_off_c, 1, 45, 0
1, 100680, Note_on_c, 1, 46, 127
1, 100704, Note_off_c, 1, 76, 0
1, 100704, Note_off_c, 1, 70, 0
1, 100728, Note_off_c, 1, 46, 0
1, 100740, Note_on_c, 1, 77, 127
1, 100740, Note_on_c, 1, 70, 127
1, 100740, Note_on_c, 1, 48, 127
1, 100788, Note_off_c, 1, 77, 0
1, 100788, Note_off_c, 1, 70, 0
1, 100788, Note_off_c, 1, 48, 0
1, 100800, Note_on_c, 1, 69, 127
1, 100800, Note_on_c, 1, 77, 127
1, 100800, Note_on_c, 1, 38, 127
1, 100896, Note_off_c, 1, 69, 0
1, 100896, Note_off_c, 1, 77, 0
1, 100920, Note_on_c, 1, 62, 127
1, 100968, Note_off_c, 1, 62, 0
1, 100980, Note_on_c, 1, 64, 127
1, 100992, Note_off_c, 1, 38, 0
1, 101028, Note_off_c, 1, 64, 0
1, 101040, Note_on_c, 1, 65, 127
1, 101088, Note_off_c, 1, 65, 0
1, 101100, Note_on_c, 1, 67, 127
1, 101148, Note_off_c, 1, 67, 0
1, 101160, Note_on_c, 1, 69, 127
1, 101160, Note_on_c, 1, 50, 127
1, 101208, Note_off_c, 1, 69, 0
1, 101220, Note_on_c, 1, 65, 127
1, 101256, Note_off_c, 1, 50, 0
1, 101268, Note_off_c, 1, 65, 0
1, 101280, Note_on_c, 1, 70, 127
1, 101280, Note_on_c, 1, 55, 127
1, 101328, Note_off_c, 1, 70, 0
1, 101328, Note_off_c, 1, 55, 0
1, 101340, Note_on_c, 1, 72, 127
1, 101340, Note_on_c, 1, 57, 127
1, 101388, Note_off_c, 1, 72, 0
1, 101388, Note_off_c, 1, 57, 0
1, 101400, Note_on_c, 1, 70, 127
1, 101400, Note_on_c, 1, 55, 127
1, 101448, Note_off_c, 1, 70, 0
1, 101448, Note_off_c, 1, 55, 0
1, 101460, Note_on_c, 1, 69, 127
1, 101460, Note_on_c, 1, 53, 127
1, 101508, Note_off_c, 1, 69, 0
1, 101508, Note_off_c, 1, 53, 0
1, 101520, Note_on_c, 1, 67, 127
1, 101520, Note_on_c, 1, 52, 127
1, 101568, Note_off_c, 1, 67, 0
1, 101568, Note_off_c, 1, 52, 0
1, 101580, Note_on_c, 1, 72, 127
1, 101580, Note_on_c, 1, 48, 127
1, 101628, Note_off_c, 1, 72, 0
1, 101628, Note_off_c, 1, 48, 0
1, 101640, Note_on_c, 1, 70, 127
1, 101640, Note_on_c, 1, 50, 127
1, 101688, Note_off_c, 1, 70, 0
1, 101688, Note_off_c, 1, 50, 0
1, 101700, Note_on_c, 1, 72, 127
1, 101700, Note_on_c, 1, 52, 127
1, 101748, Note_off_c, 1, 72, 0
1, 101748, Note_off_c, 1, 52, 0
1, 101760, Note_on_c, 1, 69, 127
1, 101760, Note_on_c, 1, 53, 127
1, 101808, Note_off_c, 1, 53, 0
1, 101820, Note_on_c, 1, 55, 127
1, 101856, Note_off_c, 1, 69, 0
1, 101868, Note_off_c, 1, 55, 0
1, 101880, Note_on_c, 1, 60, 127
1, 101880, Note_on_c, 1, 53, 127
1, 101928, Note_off_c, 1, 53, 0
1, 101940, Note_on_c, 1, 52, 127
1, 101976, Note_off_c, 1, 60, 0
1, 101988, Note_off_c, 1, 52, 0
1, 102000, Note_on_c, 1, 65, 127
1, 102000, Note_on_c, 1, 50, 127
1, 102048, Note_off_c, 1, 50, 0
1, 102060, Note_on_c, 1, 48, 127
1, 102108, Note_off_c, 1, 48, 0
1, 102120, Note_on_c, 1, 46, 127
1, 102144, Note_off_c, 1, 65, 0
1, 102168, Note_off_c, 1, 46, 0
1, 102180, Note_on_c, 1, 60, 127
1, 102180, Note_on_c, 1, 65, 127
1, 102180, Note_on_c, 1, 57, 127
1, 102180, Note_on_c, 1, 45, 127
1, 102228, Note_off_c, 1, 60, 0
1, 102228, Note_off_c, 1, 65, 0
1, 102228, Note_off_c, 1, 57, 0
1, 102228, Note_off_c, 1, 45, 0
1, 102240, Note_on_c, 1, 62, 127
1, 102240, Note_on_c, 1, 65, 127
1, 102240, Note_on_c, 1, 55, 127
1, 102240, Note_on_c, 1, 46, 127
1, 102288, Note_off_c, 1, 62, 0
1, 102300, Note_on_c, 1, 60, 127
1, 102336, Note_off_c, 1, 55, 0
1, 102336, Note_off_c, 1, 46, 0
1, 102348, Note_off_c, 1, 60, 0
1, 102360, Note_on_c, 1, 58, 127
1, 102360, Note_on_c, 1, 43, 127
1, 102408, Note_off_c, 1, 58, 0
1, 102420, Note_on_c, 1, 57, 127
1, 102432, Note_off_c, 1, 65, 0
1, 102456, Note_off_c, 1, 43, 0
1, 102468, Note_off_c, 1, 57, 0
1, 102480, Note_on_c, 1, 55, 127
1, 102480, Note_on_c, 1, 64, 127
1, 102480, Note_on_c, 1, 48, 127
1, 102528, Note_off_c, 1, 55, 0
1, 102540, Note_on_c, 1, 60, 127
1, 102576, Note_off_c, 1, 48, 0
1, 102588, Note_off_c, 1, 60, 0
1, 102600, Note_on_c, 1, 58, 127
1, 102600, Note_on_c, 1, 36, 127
1, 102624, Note_off_c, 1, 64, 0
1, 102648, Note_off_c, 1, 58, 0
1, 102696, Note_off_c, 1, 36, 0
1, 102720, Note_on_c, 1, 65, 127
1, 102720, Note_on_c, 1, 57, 127
1, 102720, Note_on_c, 1, 41, 127
1, 102912, Note_off_c, 1, 65, 0
1, 102912, Note_off_c, 1, 57, 0
1, 102912, Note_off_c, 1, 41, 0
1, 102912, End_track
0, 0, End_of_file