0, 0, Header, 1, 1, 480
1, 0, Start_track
1, 0, Title_t, "Test"
1, 0, Tempo, 500000
1, 0, Instrument_name_t, "Church Organ"
1, 198, Note_on_c, 1, 70, 127
1, 198, Note_on_c, 1, 62, 127
1, 198, Note_on_c, 1, 58, 127
1, 256, Note_on_c, 1, 69, 127
1, 273, Note_off_c, 1, 70, 0
1, 314, Note_off_c, 1, 69, 0
1, 427, Note_off_c, 1, 62, 0
1, 429, Note_on_c, 1, 63, 127
1, 429, Note_on_c, 1, 72, 127
1, 657, Note_off_c, 1, 58, 0
1, 657, Note_off_c, 1, 63, 0
1, 657, Note_off_c, 1, 72, 0
1, 659, Note_on_c, 1, 63, 127
1, 659, Note_on_c, 1, 72, 127
1, 659, Note_on_c, 1, 58, 127
1, 887, Note_off_c, 1, 63, 0
1, 887, Note_off_c, 1, 72, 0
1, 889, Note_on_c, 1, 65, 127
1, 889, Note_on_c, 1, 74, 127
1, 1117, Note_off_c, 1, 58, 0
1, 1117, Note_off_c, 1, 65, 0
1, 1117, Note_off_c, 1, 74, 0
1, 1119, Note_on_c, 1, 72, 127
1, 1119, Note_on_c, 1, 63, 127
1, 1119, Note_on_c, 1, 51, 127
1, 1201, Note_off_c, 1, 72, 0
1, 1201, Note_on_c, 1, 74, 127
1, 1280, Note_off_c, 1, 74, 0
1, 1347, Note_off_c, 1, 63, 0
1, 1349, Note_on_c, 1, 62, 127
1, 1349, Note_on_c, 1, 70, 127
1, 1577, Note_off_c, 1, 51, 0
1, 1577, Note_off_c, 1, 62, 0
1, 1577, Note_off_c, 1, 70, 0
1, 1579, Note_on_c, 1, 70, 127
1, 1579, Note_on_c, 1, 60, 127
1, 1579, Note_on_c, 1, 53, 127
1, 1807, Note_off_c, 1, 70, 0
1, 1809, Note_on_c, 1, 69, 127
1, 1884, Note_off_c, 1, 69, 0
1, 2035, Note_off_c, 1, 60, 0
1, 2040, Note_on_c, 1, 62, 127
1, 2268, Note_off_c, 1, 62, 0
1, 2270, Note_on_c, 1, 72, 127
1, 2270, Note_on_c, 1, 63, 127
1, 2498, Note_off_c, 1, 53, 0
1, 2498, Note_off_c, 1, 72, 0
1, 2498, Note_off_c, 1, 63, 0
1, 2500, Note_on_c, 1, 70, 127
1, 2500, Note_on_c, 1, 62, 127
1, 2500, Note_on_c, 1, 58, 127
1, 2558, Note_on_c, 1, 69, 127
1, 2575, Note_off_c, 1, 70, 0
1, 2616, Note_off_c, 1, 69, 0
1, 2731, Note_on_c, 1, 65, 127
1, 2959, Note_off_c, 1, 65, 0
1, 3412, Note_off_c, 1, 62, 0
1, 3419, Note_off_c, 1, 58, 0
1, 3421, Note_on_c, 1, 46, 127
1, 3879, Note_off_c, 1, 46, 0
1, 3881, Note_on_c, 1, 70, 127
1, 3881, Note_on_c, 1, 62, 127
1, 3881, Note_on_c, 1, 58, 127
1, 3939, Note_on_c, 1, 69, 127
1, 3956, Note_off_c, 1, 70, 0
1, 3992, Note_off_c, 1, 69, 0
1, 4110, Note_off_c, 1, 62, 0
1, 4112, Note_on_c, 1, 63, 127
1, 4112, Note_on_c, 1, 72, 127
1, 4340, Note_off_c, 1, 58, 0
1, 4340, Note_off_c, 1, 63, 0
1, 4340, Note_off_c, 1, 72, 0
1, 4342, Note_on_c, 1, 72, 127
1, 4342, Note_on_c, 1, 65, 127
1, 4342, Note_on_c, 1, 58, 127
1, 4570, Note_off_c, 1, 72, 0
1, 4572, Note_on_c, 1, 74, 127
1, 4798, Note_off_c, 1, 65, 0
1, 4800, Note_off_c, 1, 74, 0
1, 4802, Note_on_c, 1, 75, 127
1, 4802, Note_on_c, 1, 63, 127
1, 4876, Note_off_c, 1, 75, 0
1, 5029, Note_off_c, 1, 63, 0
1, 5031, Note_on_c, 1, 62, 127
1, 5031, Note_on_c, 1, 77, 127
1, 5259, Note_off_c, 1, 58, 0
1, 5259, Note_off_c, 1, 62, 0
1, 5259, Note_off_c, 1, 77, 0
1, 5261, Note_on_c, 1, 79, 127
1, 5261, Note_on_c, 1, 63, 127
1, 5261, Note_on_c, 1, 51, 127
1, 5489, Note_off_c, 1, 79, 0
1, 5491, Note_on_c, 1, 77, 127
1, 5717, Note_off_c, 1, 63, 0
1, 5719, Note_off_c, 1, 77, 0
1, 5721, Note_on_c, 1, 75, 127
1, 5721, Note_on_c, 1, 60, 127
1, 5795, Note_off_c, 1, 75, 0
1, 6176, Note_off_c, 1, 60, 0
1, 6178, Note_off_c, 1, 51, 0
1, 6180, Note_on_c, 1, 77, 127
1, 6180, Note_on_c, 1, 62, 127
1, 6180, Note_on_c, 1, 58, 127
1, 6408, Note_off_c, 1, 77, 0
1, 6410, Note_on_c, 1, 70, 127
1, 6638, Note_off_c, 1, 70, 0
1, 7091, Note_off_c, 1, 62, 0
1, 7098, Note_off_c, 1, 58, 0
1, 7100, Note_on_c, 1, 46, 127
1, 7558, Note_off_c, 1, 46, 0
1, 7560, Note_on_c, 1, 57, 127
1, 7560, Note_on_c, 1, 72, 127
1, 7560, Note_on_c, 1, 65, 127
1, 8018, Note_off_c, 1, 57, 0
1, 8018, Note_off_c, 1, 72, 0
1, 8018, Note_off_c, 1, 65, 0
1, 8020, Note_on_c, 1, 74, 127
1, 8020, Note_on_c, 1, 65, 127
1, 8020, Note_on_c, 1, 58, 127
1, 8478, Note_off_c, 1, 74, 0
1, 8480, Note_on_c, 1, 72, 127
1, 8593, Note_off_c, 1, 72, 0
1, 8595, Note_on_c, 1, 70, 127
1, 8708, Note_off_c, 1, 70, 0
1, 8710, Note_on_c, 1, 69, 127
1, 8931, Note_off_c, 1, 65, 0
1, 8938, Note_off_c, 1, 58, 0
1, 8938, Note_off_c, 1, 69, 0
1, 8940, Note_on_c, 1, 69, 127
1, 8940, Note_on_c, 1, 64, 127
1, 8940, Note_on_c, 1, 60, 127
1, 9168, Note_off_c, 1, 69, 0
1, 9170, Note_on_c, 1, 67, 127
1, 9396, Note_off_c, 1, 64, 0
1, 9398, Note_off_c, 1, 60, 0
1, 9398, Note_off_c, 1, 67, 0
1, 9400, Note_on_c, 1, 69, 127
1, 9400, Note_on_c, 1, 62, 127
1, 9400, Note_on_c, 1, 58, 127
1, 9628, Note_off_c, 1, 69, 0
1, 9630, Note_on_c, 1, 70, 127
1, 9856, Note_off_c, 1, 62, 0
1, 9858, Note_off_c, 1, 58, 0
1, 9858, Note_off_c, 1, 70, 0
1, 9860, Note_on_c, 1, 72, 127
1, 9860, Note_on_c, 1, 60, 127
1, 9860, Note_on_c, 1, 57, 127
1, 10088, Note_off_c, 1, 72, 0
1, 10090, Note_on_c, 1, 65, 127
1, 10318, Note_off_c, 1, 65, 0
1, 10771, Note_off_c, 1, 60, 0
1, 10778, Note_off_c, 1, 57, 0
1, 10780, Note_on_c, 1, 58, 127
1, 10780, Note_on_c, 1, 62, 127
1, 11238, Note_off_c, 1, 58, 0
1, 11240, Note_on_c, 1, 57, 127
1, 11240, Note_on_c, 1, 65, 127
1, 11691, Note_off_c, 1, 62, 0
1, 11698, Note_off_c, 1, 57, 0
1, 11698, Note_off_c, 1, 65, 0
1, 11700, Note_on_c, 1, 67, 127
1, 11700, Note_on_c, 1, 55, 127
1, 11700, Note_on_c, 1, 64, 127
1, 11813, Note_off_c, 1, 67, 0
1, 11815, Note_on_c, 1, 69, 127
1, 11928, Note_off_c, 1, 69, 0
1, 11930, Note_on_c, 1, 70, 127
1, 12158, Note_off_c, 1, 55, 0
1, 12158, Note_off_c, 1, 64, 0
1, 12158, Note_off_c, 1, 70, 0
1, 12160, Note_on_c, 1, 69, 127
1, 12160, Note_on_c, 1, 65, 127
1, 12160, Note_on_c, 1, 53, 127
1, 12388, Note_off_c, 1, 69, 0
1, 12390, Note_on_c, 1, 70, 127
1, 12616, Note_off_c, 1, 65, 0
1, 12618, Note_off_c, 1, 53, 0
1, 12618, Note_off_c, 1, 70, 0
1, 12620, Note_on_c, 1, 69, 127
1, 12620, Note_on_c, 1, 60, 127
1, 12829, Note_off_c, 1, 69, 0
1, 12831, Note_on_c, 1, 67, 127
1, 12889, Note_off_c, 1, 67, 0
1, 13080, Note_off_c, 1, 60, 0
1, 13082, Note_on_c, 1, 67, 127
1, 13082, Note_on_c, 1, 64, 127
1, 13082, Note_on_c, 1, 48, 127
1, 13310, Note_off_c, 1, 67, 0
1, 13312, Note_on_c, 1, 69, 127
1, 13538, Note_off_c, 1, 64, 0
1, 13540, Note_off_c, 1, 48, 0
1, 13540, Note_off_c, 1, 69, 0
1, 13542, Note_on_c, 1, 69, 127
1, 13542, Note_on_c, 1, 65, 127
1, 13542, Note_on_c, 1, 53, 127
1, 13770, Note_off_c, 1, 69, 0
1, 13772, Note_on_c, 1, 67, 127
1, 13998, Note_off_c, 1, 65, 0
1, 14000, Note_off_c, 1, 67, 0
1, 14002, Note_on_c, 1, 60, 127
1, 14228, Note_off_c, 1, 60, 0
1, 14230, Note_on_c, 1, 70, 127
1, 14230, Note_on_c, 1, 62, 127
1, 14458, Note_off_c, 1, 70, 0
1, 14458, Note_off_c, 1, 62, 0
1, 14690, Note_on_c, 1, 58, 127
1, 14918, Note_off_c, 1, 58, 0
1, 15376, Note_off_c, 1, 53, 0
1, 15378, Note_on_c, 1, 45, 127
1, 15378, Note_on_c, 1, 69, 127
1, 15378, Note_on_c, 1, 60, 127
1, 15836, Note_off_c, 1, 45, 0
1, 15836, Note_off_c, 1, 69, 0
1, 15836, Note_off_c, 1, 60, 0
1, 15838, Note_on_c, 1, 69, 127
1, 15838, Note_on_c, 1, 58, 127
1, 15838, Note_on_c, 1, 46, 127
1, 15896, Note_off_c, 1, 69, 0
1, 15896, Note_on_c, 1, 67, 127
1, 15954, Note_off_c, 1, 67, 0
1, 16067, Note_off_c, 1, 58, 0
1, 16067, Note_on_c, 1, 65, 127
1, 16069, Note_on_c, 1, 57, 127
1, 16295, Note_off_c, 1, 65, 0
1, 16297, Note_off_c, 1, 46, 0
1, 16297, Note_off_c, 1, 57, 0
1, 16299, Note_on_c, 1, 65, 127
1, 16299, Note_on_c, 1, 48, 127
1, 16299, Note_on_c, 1, 55, 127
1, 16527, Note_off_c, 1, 65, 0
1, 16529, Note_on_c, 1, 64, 127
1, 16589, Note_off_c, 1, 64, 0
1, 16757, Note_off_c, 1, 48, 0
1, 16757, Note_off_c, 1, 55, 0
1, 16759, Note_on_c, 1, 57, 127
1, 16759, Note_on_c, 1, 36, 127
1, 16987, Note_off_c, 1, 57, 0
1, 16989, Note_on_c, 1, 58, 127
1, 16989, Note_on_c, 1, 67, 127
1, 17217, Note_off_c, 1, 36, 0
1, 17217, Note_off_c, 1, 58, 0
1, 17217, Note_off_c, 1, 67, 0
1, 17219, Note_on_c, 1, 65, 127
1, 17219, Note_on_c, 1, 57, 127
1, 17219, Note_on_c, 1, 41, 127
1, 17447, Note_off_c, 1, 65, 0
1, 17449, Note_on_c, 1, 60, 127
1, 17677, Note_off_c, 1, 60, 0
1, 18130, Note_off_c, 1, 57, 0
1, 18137, Note_off_c, 1, 41, 0
1, 18139, Note_on_c, 1, 53, 127
1, 18367, Note_off_c, 1, 53, 0
1, 18369, Note_on_c, 1, 52, 127
1, 18597, Note_off_c, 1, 52, 0
1, 18599, Note_on_c, 1, 65, 127
1, 18599, Note_on_c, 1, 57, 127
1, 18599, Note_on_c, 1, 50, 127
1, 18657, Note_on_c, 1, 64, 127
1, 18674, Note_off_c, 1, 65, 0
1, 18715, Note_off_c, 1, 64, 0
1, 18828, Note_off_c, 1, 57, 0
1, 18830, Note_on_c, 1, 58, 127
1, 18830, Note_on_c, 1, 67, 127
1, 19058, Note_off_c, 1, 50, 0
1, 19058, Note_off_c, 1, 58, 0
1, 19058, Note_off_c, 1, 67, 0
1, 19060, Note_on_c, 1, 67, 127
1, 19060, Note_on_c, 1, 60, 127
1, 19060, Note_on_c, 1, 45, 127
1, 19288, Note_off_c, 1, 67, 0
1, 19290, Note_on_c, 1, 69, 127
1, 19516, Note_off_c, 1, 60, 0
1, 19518, Note_off_c, 1, 45, 0
1, 19518, Note_off_c, 1, 69, 0
1, 19520, Note_on_c, 1, 67, 127
1, 19520, Note_on_c, 1, 58, 127
1, 19520, Note_on_c, 1, 46, 127
1, 19594, Note_off_c, 1, 67, 0
1, 19596, Note_on_c, 1, 69, 127
1, 19670, Note_off_c, 1, 69, 0
1, 19746, Note_off_c, 1, 58, 0
1, 19748, Note_on_c, 1, 57, 127
1, 19748, Note_on_c, 1, 65, 127
1, 19976, Note_off_c, 1, 46, 0
1, 19976, Note_off_c, 1, 57, 0
1, 19976, Note_off_c, 1, 65, 0
1, 19978, Note_on_c, 1, 65, 127
1, 19978, Note_on_c, 1, 55, 127
1, 19978, Note_on_c, 1, 48, 127
1, 20129, Note_off_c, 1, 65, 0
1, 20131, Note_on_c, 1, 64, 127
1, 20205, Note_off_c, 1, 64, 0
1, 20432, Note_off_c, 1, 55, 0
1, 20437, Note_on_c, 1, 57, 127
1, 20665, Note_off_c, 1, 57, 0
1, 20667, Note_on_c, 1, 58, 127
1, 20895, Note_off_c, 1, 48, 0
1, 20895, Note_off_c, 1, 58, 0
1, 20897, Note_on_c, 1, 41, 127
1, 20897, Note_on_c, 1, 57, 127
1, 20897, Note_on_c, 1, 65, 127
1, 22049, Note_off_c, 1, 41, 0
1, 22049, Note_off_c, 1, 57, 0
1, 22049, Note_off_c, 1, 65, 0
1, 22279, Note_on_c, 1, 70, 127
1, 22279, Note_on_c, 1, 65, 127
1, 22392, Note_off_c, 1, 70, 0
1, 22394, Note_on_c, 1, 69, 127
1, 22507, Note_off_c, 1, 69, 0
1, 22509, Note_on_c, 1, 67, 127
1, 22737, Note_off_c, 1, 65, 0
1, 22737, Note_off_c, 1, 67, 0
1, 22739, Note_on_c, 1, 65, 127
1, 22739, Note_on_c, 1, 72, 127
1, 22739, Note_on_c, 1, 69, 127
1, 23197, Note_off_c, 1, 65, 0
1, 23197, Note_off_c, 1, 72, 0
1, 23199, Note_on_c, 1, 77, 127
1, 23199, Note_on_c, 1, 62, 127
1, 23427, Note_off_c, 1, 77, 0
1, 23429, Note_on_c, 1, 75, 127
1, 23650, Note_off_c, 1, 69, 0
1, 23657, Note_off_c, 1, 62, 0
1, 23657, Note_off_c, 1, 75, 0
1, 23659, Note_on_c, 1, 74, 127
1, 23659, Note_on_c, 1, 67, 127
1, 23659, Note_on_c, 1, 71, 127
1, 23887, Note_off_c, 1, 74, 0
1, 23889, Note_on_c, 1, 72, 127
1, 24117, Note_off_c, 1, 67, 0
1, 24117, Note_off_c, 1, 72, 0
1, 24119, Note_on_c, 1, 55, 127
1, 24349, Note_on_c, 1, 75, 127
1, 24570, Note_off_c, 1, 71, 0
1, 24577, Note_off_c, 1, 55, 0
1, 24577, Note_off_c, 1, 75, 0
1, 24579, Note_on_c, 1, 75, 127
1, 24579, Note_on_c, 1, 67, 127
1, 24579, Note_on_c, 1, 60, 127
1, 24807, Note_off_c, 1, 75, 0
1, 24809, Note_on_c, 1, 72, 127
1, 25035, Note_off_c, 1, 67, 0
1, 25037, Note_off_c, 1, 72, 0
1, 25039, Note_on_c, 1, 63, 127
1, 25497, Note_off_c, 1, 60, 0
1, 25497, Note_off_c, 1, 63, 0
1, 25499, Note_on_c, 1, 60, 127
1, 25499, Note_on_c, 1, 57, 127
1, 25960, Note_on_c, 1, 77, 127
1, 26188, Note_off_c, 1, 77, 0
1, 26190, Note_on_c, 1, 75, 127
1, 26411, Note_off_c, 1, 60, 0
1, 26418, Note_off_c, 1, 57, 0
1, 26418, Note_off_c, 1, 75, 0
1, 26420, Note_on_c, 1, 75, 127
1, 26420, Note_on_c, 1, 58, 127
1, 26420, Note_on_c, 1, 55, 127
1, 26756, Note_off_c, 1, 75, 0
1, 26878, Note_off_c, 1, 58, 0
1, 26878, Note_off_c, 1, 55, 0
1, 26880, Note_on_c, 1, 77, 127
1, 26880, Note_on_c, 1, 57, 127
1, 26880, Note_on_c, 1, 60, 127
1, 27108, Note_off_c, 1, 77, 0
1, 27110, Note_on_c, 1, 76, 127
1, 27338, Note_off_c, 1, 57, 0
1, 27338, Note_off_c, 1, 60, 0
1, 27338, Note_off_c, 1, 76, 0
1, 27340, Note_on_c, 1, 76, 127
1, 27340, Note_on_c, 1, 58, 127
1, 27340, Note_on_c, 1, 55, 127
1, 27676, Note_off_c, 1, 76, 0
1, 27798, Note_off_c, 1, 58, 0
1, 27798, Note_off_c, 1, 55, 0
1, 27800, Note_on_c, 1, 75, 127
1, 27800, Note_on_c, 1, 60, 127
1, 27800, Note_on_c, 1, 57, 127
1, 28028, Note_off_c, 1, 75, 0
1, 28030, Note_on_c, 1, 74, 127
1, 28258, Note_off_c, 1, 60, 0
1, 28258, Note_off_c, 1, 57, 0
1, 28258, Note_off_c, 1, 74, 0
1, 28260, Note_on_c, 1, 58, 127
1, 28260, Note_on_c, 1, 74, 127
1, 28718, Note_off_c, 1, 58, 0
1, 28718, Note_off_c, 1, 74, 0
1, 28720, Note_on_c, 1, 75, 127
1, 28720, Note_on_c, 1, 58, 127
1, 28720, Note_on_c, 1, 55, 127
1, 28948, Note_off_c, 1, 75, 0
1, 28950, Note_on_c, 1, 74, 127
1, 29178, Note_off_c, 1, 58, 0
1, 29178, Note_off_c, 1, 55, 0
1, 29178, Note_off_c, 1, 74, 0
1, 29180, Note_on_c, 1, 57, 127
1, 29180, Note_on_c, 1, 53, 127
1, 29180, Note_on_c, 1, 74, 127
1, 29638, Note_off_c, 1, 57, 0
1, 29638, Note_off_c, 1, 53, 0
1, 29638, Note_off_c, 1, 74, 0
1, 29640, Note_on_c, 1, 74, 127
1, 29640, Note_on_c, 1, 55, 127
1, 29640, Note_on_c, 1, 51, 127
1, 29714, Note_off_c, 1, 74, 0
1, 29716, Note_on_c, 1, 72, 127
1, 29790, Note_off_c, 1, 72, 0
1, 29944, Note_on_c, 1, 70, 127
1, 30095, Note_off_c, 1, 55, 0
1, 30095, Note_off_c, 1, 51, 0
1, 30095, Note_off_c, 1, 70, 0
1, 30097, Note_on_c, 1, 53, 127
1, 30097, Note_on_c, 1, 50, 127
1, 30097, Note_on_c, 1, 70, 127
1, 30555, Note_off_c, 1, 53, 0
1, 30555, Note_off_c, 1, 50, 0
1, 30555, Note_off_c, 1, 70, 0
1, 30557, Note_on_c, 1, 79, 127
1, 30557, Note_on_c, 1, 55, 127
1, 30557, Note_on_c, 1, 51, 127
1, 30785, Note_off_c, 1, 79, 0
1, 30787, Note_on_c, 1, 70, 127
1, 31015, Note_off_c, 1, 55, 0
1, 31015, Note_off_c, 1, 51, 0
1, 31015, Note_off_c, 1, 70, 0
1, 31017, Note_on_c, 1, 72, 127
1, 31017, Note_on_c, 1, 53, 127
1, 31091, Note_off_c, 1, 72, 0
1, 31093, Note_on_c, 1, 74, 127
1, 31167, Note_off_c, 1, 74, 0
1, 31169, Note_on_c, 1, 75, 127
1, 31243, Note_off_c, 1, 75, 0
1, 31475, Note_on_c, 1, 41, 127
1, 31705, Note_on_c, 1, 70, 127
1, 31933, Note_off_c, 1, 41, 0
1, 31933, Note_off_c, 1, 70, 0
1, 31935, Note_on_c, 1, 50, 127
1, 31935, Note_on_c, 1, 46, 127
1, 32854, Note_off_c, 1, 53, 0
1, 32914, Note_on_c, 1, 69, 127
1, 32967, Note_off_c, 1, 69, 0
1, 33087, Note_off_c, 1, 50, 0
1, 33087, Note_off_c, 1, 46, 0
1, 33317, Note_on_c, 1, 58, 127
1, 33545, Note_off_c, 1, 58, 0
1, 33547, Note_on_c, 1, 55, 127
1, 33547, Note_on_c, 1, 70, 127
1, 33775, Note_off_c, 1, 55, 0
1, 33775, Note_off_c, 1, 70, 0
1, 33777, Note_on_c, 1, 57, 127
1, 33777, Note_on_c, 1, 72, 127
1, 33851, Note_off_c, 1, 57, 0
1, 33851, Note_off_c, 1, 72, 0
1, 33853, Note_on_c, 1, 55, 127
1, 33853, Note_on_c, 1, 70, 127
1, 33927, Note_off_c, 1, 55, 0
1, 33927, Note_off_c, 1, 70, 0
1, 33929, Note_on_c, 1, 57, 127
1, 33929, Note_on_c, 1, 72, 127
1, 34003, Note_off_c, 1, 57, 0
1, 34003, Note_off_c, 1, 72, 0
1, 34005, Note_on_c, 1, 55, 127
1, 34005, Note_on_c, 1, 70, 127
1, 34221, Note_off_c, 1, 55, 0
1, 34221, Note_off_c, 1, 70, 0
1, 34235, Note_on_c, 1, 75, 127
1, 34463, Note_off_c, 1, 75, 0
1, 34465, Note_on_c, 1, 72, 127
1, 34693, Note_off_c, 1, 72, 0
1, 34695, Note_on_c, 1, 72, 127
1, 34753, Note_on_c, 1, 70, 127
1, 34770, Note_off_c, 1, 72, 0
1, 34808, Note_off_c, 1, 70, 0
1, 34810, Note_on_c, 1, 72, 127
1, 35156, Note_off_c, 1, 72, 0
1, 35156, Note_on_c, 1, 60, 127
1, 35156, Note_on_c, 1, 75, 127
1, 35384, Note_off_c, 1, 60, 0
1, 35384, Note_off_c, 1, 75, 0
1, 35386, Note_on_c, 1, 57, 127
1, 35386, Note_on_c, 1, 72, 127
1, 35614, Note_off_c, 1, 57, 0
1, 35614, Note_off_c, 1, 72, 0
1, 35616, Note_on_c, 1, 58, 127
1, 35616, Note_on_c, 1, 74, 127
1, 35690, Note_off_c, 1, 58, 0
1, 35690, Note_off_c, 1, 74, 0
1, 35692, Note_on_c, 1, 57, 127
1, 35692, Note_on_c, 1, 72, 127
1, 35766, Note_off_c, 1, 57, 0
1, 35766, Note_off_c, 1, 72, 0
1, 35768, Note_on_c, 1, 58, 127
1, 35768, Note_on_c, 1, 74, 127
1, 35842, Note_off_c, 1, 58, 0
1, 35842, Note_off_c, 1, 74, 0
1, 35844, Note_on_c, 1, 57, 127
1, 35844, Note_on_c, 1, 72, 127
1, 36060, Note_off_c, 1, 57, 0
1, 36060, Note_off_c, 1, 72, 0
1, 36074, Note_on_c, 1, 77, 127
1, 36302, Note_off_c, 1, 77, 0
1, 36304, Note_on_c, 1, 74, 127
1, 36532, Note_off_c, 1, 74, 0
1, 36534, Note_on_c, 1, 74, 127
1, 36592, Note_on_c, 1, 72, 127
1, 36609, Note_off_c, 1, 74, 0
1, 36645, Note_off_c, 1, 72, 0
1, 36650, Note_on_c, 1, 74, 127
1, 36996, Note_off_c, 1, 74, 0
1, 36996, Note_on_c, 1, 62, 127
1, 36996, Note_on_c, 1, 77, 127
1, 37224, Note_off_c, 1, 62, 0
1, 37224, Note_off_c, 1, 77, 0
1, 37226, Note_on_c, 1, 58, 127
1, 37226, Note_on_c, 1, 74, 127
1, 37454, Note_off_c, 1, 58, 0
1, 37454, Note_off_c, 1, 74, 0
1, 37456, Note_on_c, 1, 74, 127
1, 37456, Note_on_c, 1, 58, 127
1, 37912, Note_off_c, 1, 74, 0
1, 37914, Note_off_c, 1, 58, 0
1, 37916, Note_on_c, 1, 55, 127
1, 37916, Note_on_c, 1, 75, 127
1, 38144, Note_off_c, 1, 55, 0
1, 38144, Note_off_c, 1, 75, 0
1, 38146, Note_on_c, 1, 51, 127
1, 38146, Note_on_c, 1, 72, 127
1, 38374, Note_off_c, 1, 51, 0
1, 38374, Note_off_c, 1, 72, 0
1, 38376, Note_on_c, 1, 74, 127
1, 38376, Note_on_c, 1, 53, 127
1, 38450, Note_off_c, 1, 74, 0
1, 38452, Note_on_c, 1, 72, 127
1, 38526, Note_off_c, 1, 72, 0
1, 38833, Note_off_c, 1, 53, 0
1, 38835, Note_on_c, 1, 72, 127
1, 38835, Note_on_c, 1, 41, 127
1, 38909, Note_off_c, 1, 72, 0
1, 38911, Note_on_c, 1, 74, 127
1, 38985, Note_off_c, 1, 74, 0
1, 39063, Note_on_c, 1, 70, 127
1, 39291, Note_off_c, 1, 41, 0
1, 39291, Note_off_c, 1, 70, 0
1, 39293, Note_on_c, 1, 46, 127
1, 39293, Note_on_c, 1, 70, 127
1, 39751, Note_off_c, 1, 46, 0
1, 39753, Note_on_c, 1, 53, 127
1, 39981, Note_off_c, 1, 53, 0
1, 39983, Note_on_c, 1, 50, 127
1, 40211, Note_off_c, 1, 50, 0
1, 40443, Note_off_c, 1, 70, 0
1, 40673, Note_on_c, 1, 58, 127
1, 40901, Note_off_c, 1, 58, 0
1, 40903, Note_on_c, 1, 53, 127
1, 41131, Note_off_c, 1, 53, 0
1, 41133, Note_on_c, 1, 53, 127
1, 41591, Note_off_c, 1, 53, 0
1, 41593, Note_on_c, 1, 62, 127
1, 41593, Note_on_c, 1, 70, 127
1, 41821, Note_off_c, 1, 62, 0
1, 41821, Note_off_c, 1, 70, 0
1, 41823, Note_on_c, 1, 58, 127
1, 41823, Note_on_c, 1, 65, 127
1, 42051, Note_off_c, 1, 58, 0
1, 42051, Note_off_c, 1, 65, 0
1, 42053, Note_on_c, 1, 65, 127
1, 42053, Note_on_c, 1, 58, 127
1, 42511, Note_off_c, 1, 65, 0
1, 42513, Note_on_c, 1, 74, 127
1, 42741, Note_off_c, 1, 74, 0
1, 42743, Note_on_c, 1, 70, 127
1, 42743, Note_on_c, 1, 62, 127
1, 42964, Note_off_c, 1, 58, 0
1, 42971, Note_off_c, 1, 70, 0
1, 42971, Note_off_c, 1, 62, 0
1, 42973, Note_on_c, 1, 70, 127
1, 42973, Note_on_c, 1, 62, 127
1, 43201, Note_off_c, 1, 70, 0
1, 43201, Note_off_c, 1, 62, 0
1, 43203, Note_on_c, 1, 60, 127
1, 43203, Note_on_c, 1, 69, 127
1, 43431, Note_off_c, 1, 60, 0
1, 43431, Note_off_c, 1, 69, 0
1, 43433, Note_on_c, 1, 62, 127
1, 43433, Note_on_c, 1, 70, 127
1, 43433, Note_on_c, 1, 51, 127
1, 43661, Note_off_c, 1, 62, 0
1, 43661, Note_off_c, 1, 70, 0
1, 43663, Note_on_c, 1, 72, 127
1, 43663, Note_on_c, 1, 63, 127
1, 43891, Note_off_c, 1, 51, 0
1, 43891, Note_off_c, 1, 72, 0
1, 43891, Note_off_c, 1, 63, 0
1, 43893, Note_on_c, 1, 70, 127
1, 43893, Note_on_c, 1, 60, 127
1, 43893, Note_on_c, 1, 53, 127
1, 43946, Note_off_c, 1, 70, 0
1, 43951, Note_on_c, 1, 69, 127
1, 44004, Note_off_c, 1, 69, 0
1, 44353, Note_off_c, 1, 60, 0
1, 44355, Note_on_c, 1, 74, 127
1, 44355, Note_on_c, 1, 65, 127
1, 44583, Note_off_c, 1, 74, 0
1, 44583, Note_off_c, 1, 65, 0
1, 44585, Note_on_c, 1, 62, 127
1, 44813, Note_off_c, 1, 53, 0
1, 44813, Note_off_c, 1, 62, 0
1, 44815, Note_on_c, 1, 62, 127
1, 44815, Note_on_c, 1, 70, 127
1, 44815, Note_on_c, 1, 55, 127
1, 45043, Note_off_c, 1, 62, 0
1, 45043, Note_off_c, 1, 70, 0
1, 45045, Note_on_c, 1, 60, 127
1, 45045, Note_on_c, 1, 69, 127
1, 45273, Note_off_c, 1, 55, 0
1, 45273, Note_off_c, 1, 60, 0
1, 45273, Note_off_c, 1, 69, 0
1, 45275, Note_on_c, 1, 62, 127
1, 45275, Note_on_c, 1, 70, 127
1, 45275, Note_on_c, 1, 51, 127
1, 45503, Note_off_c, 1, 62, 0
1, 45503, Note_off_c, 1, 70, 0
1, 45505, Note_on_c, 1, 63, 127
1, 45505, Note_on_c, 1, 72, 127
1, 45733, Note_off_c, 1, 51, 0
1, 45733, Note_off_c, 1, 63, 0
1, 45733, Note_off_c, 1, 72, 0
1, 45735, Note_on_c, 1, 70, 127
1, 45735, Note_on_c, 1, 60, 127
1, 45735, Note_on_c, 1, 53, 127
1, 45805, Note_on_c, 1, 69, 127
1, 45810, Note_off_c, 1, 70, 0
1, 45880, Note_off_c, 1, 69, 0
1, 46195, Note_off_c, 1, 60, 0
1, 46197, Note_on_c, 1, 72, 127
1, 46197, Note_on_c, 1, 63, 127
1, 46425, Note_off_c, 1, 72, 0
1, 46425, Note_off_c, 1, 63, 0
1, 46427, Note_on_c, 1, 62, 127
1, 46435, Note_off_c, 1, 53, 0
1, 46655, Note_off_c, 1, 62, 0
1, 46657, Note_on_c, 1, 62, 127
1, 46657, Note_on_c, 1, 70, 127
1, 46657, Note_on_c, 1, 46, 127
1, 47115, Note_off_c, 1, 62, 0
1, 47115, Note_off_c, 1, 70, 0
1, 47117, Note_on_c, 1, 63, 127
1, 47117, Note_on_c, 1, 72, 127
1, 47328, Note_off_c, 1, 46, 0
1, 47345, Note_off_c, 1, 63, 0
1, 47345, Note_off_c, 1, 72, 0
1, 47347, Note_on_c, 1, 62, 127
1, 47347, Note_on_c, 1, 70, 127
1, 47575, Note_off_c, 1, 62, 0
1, 47575, Note_off_c, 1, 70, 0
1, 47577, Note_on_c, 1, 70, 127
1, 47577, Note_on_c, 1, 62, 127
1, 47577, Note_on_c, 1, 45, 127
1, 48035, Note_off_c, 1, 70, 0
1, 48035, Note_off_c, 1, 62, 0
1, 48037, Note_on_c, 1, 72, 127
1, 48037, Note_on_c, 1, 63, 127
1, 48248, Note_off_c, 1, 45, 0
1, 48265, Note_off_c, 1, 72, 0
1, 48265, Note_off_c, 1, 63, 0
1, 48267, Note_on_c, 1, 62, 127
1, 48267, Note_on_c, 1, 70, 127
1, 48495, Note_off_c, 1, 62, 0
1, 48495, Note_off_c, 1, 70, 0
1, 48497, Note_on_c, 1, 70, 127
1, 48497, Note_on_c, 1, 62, 127
1, 48497, Note_on_c, 1, 43, 127
1, 48955, Note_off_c, 1, 70, 0
1, 48955, Note_off_c, 1, 62, 0
1, 48957, Note_on_c, 1, 72, 127
1, 48957, Note_on_c, 1, 63, 127
1, 49168, Note_off_c, 1, 43, 0
1, 49185, Note_off_c, 1, 72, 0
1, 49185, Note_off_c, 1, 63, 0
1, 49187, Note_on_c, 1, 62, 127
1, 49187, Note_on_c, 1, 70, 127
1, 49415, Note_off_c, 1, 62, 0
1, 49415, Note_off_c, 1, 70, 0
1, 49417, Note_on_c, 1, 70, 127
1, 49417, Note_on_c, 1, 62, 127
1, 49417, Note_on_c, 1, 41, 127
1, 49875, Note_off_c, 1, 70, 0
1, 49875, Note_off_c, 1, 62, 0
1, 49877, Note_on_c, 1, 72, 127
1, 49877, Note_on_c, 1, 63, 127
1, 50088, Note_off_c, 1, 41, 0
1, 50105, Note_off_c, 1, 72, 0
1, 50105, Note_off_c, 1, 63, 0
1, 50107, Note_on_c, 1, 62, 127
1, 50107, Note_on_c, 1, 70, 127
1, 50335, Note_off_c, 1, 62, 0
1, 50335, Note_off_c, 1, 70, 0
1, 50337, Note_on_c, 1, 70, 127
1, 50337, Note_on_c, 1, 62, 127
1, 50337, Note_on_c, 1, 39, 127
1, 50795, Note_off_c, 1, 70, 0
1, 50795, Note_off_c, 1, 62, 0
1, 50797, Note_on_c, 1, 63, 127
1, 50797, Note_on_c, 1, 72, 127
1, 51008, Note_off_c, 1, 39, 0
1, 51025, Note_off_c, 1, 63, 0
1, 51025, Note_off_c, 1, 72, 0
1, 51027, Note_on_c, 1, 62, 127
1, 51027, Note_on_c, 1, 70, 127
1, 51255, Note_off_c, 1, 62, 0
1, 51255, Note_off_c, 1, 70, 0
1, 51257, Note_on_c, 1, 60, 127
1, 51257, Note_on_c, 1, 69, 127
1, 51257, Note_on_c, 1, 41, 127
1, 51718, Note_on_c, 1, 53, 127
1, 51946, Note_off_c, 1, 53, 0
1, 51948, Note_on_c, 1, 51, 127
1, 52169, Note_off_c, 1, 60, 0
1, 52169, Note_off_c, 1, 69, 0
1, 52176, Note_off_c, 1, 51, 0
1, 52638, Note_on_c, 1, 50, 127
1, 52638, Note_on_c, 1, 65, 127
1, 52866, Note_off_c, 1, 50, 0
1, 52866, Note_off_c, 1, 65, 0
1, 52868, Note_on_c, 1, 48, 127
1, 52868, Note_on_c, 1, 63, 127
1, 53096, Note_off_c, 1, 48, 0
1, 53096, Note_off_c, 1, 63, 0
1, 53556, Note_on_c, 1, 70, 127
1, 53556, Note_on_c, 1, 62, 127
1, 53556, Note_on_c, 1, 46, 127
1, 53784, Note_off_c, 1, 70, 0
1, 53784, Note_off_c, 1, 62, 0
1, 54244, Note_off_c, 1, 46, 0
1, 55624, Note_on_c, 1, 58, 127
1, 55852, Note_off_c, 1, 58, 0
1, 55854, Note_off_c, 1, 41, 0
1, 56822, Note_on_c, 1, 58, 127
1, 56875, Note_off_c, 1, 58, 0
1, 56880, Note_on_c, 1, 57, 127
1, 56933, Note_off_c, 1, 57, 0
1, 56938, Note_on_c, 1, 58, 127
1, 57226, Note_off_c, 1, 58, 0
1, 57284, Note_on_c, 1, 65, 127
1, 57512, Note_off_c, 1, 65, 0
1, 57514, Note_on_c, 1, 62, 127
1, 57742, Note_off_c, 1, 62, 0
1, 57744, Note_on_c, 1, 63, 127
1, 57802, Note_on_c, 1, 62, 127
1, 57819, Note_off_c, 1, 63, 0
1, 57877, Note_off_c, 1, 62, 0
1, 58206, Note_on_c, 1, 70, 127
1, 58434, Note_off_c, 1, 70, 0
1, 58436, Note_on_c, 1, 65, 127
1, 58664, Note_off_c, 1, 65, 0
1, 58666, Note_on_c, 1, 65, 127
1, 59124, Note_off_c, 1, 65, 0
1, 59126, Note_on_c, 1, 74, 127
1, 59126, Note_on_c, 1, 77, 127
1, 59354, Note_off_c, 1, 74, 0
1, 59354, Note_off_c, 1, 77, 0
1, 59356, Note_on_c, 1, 70, 127
1, 59356, Note_on_c, 1, 74, 127
1, 59584, Note_off_c, 1, 70, 0
1, 59584, Note_off_c, 1, 74, 0
1, 59586, Note_on_c, 1, 70, 127
1, 59586, Note_on_c, 1, 65, 127
1, 59586, Note_on_c, 1, 74, 127
1, 59586, Note_on_c, 1, 58, 127
1, 59586, Note_on_c, 1, 53, 127
1, 59586, Note_on_c, 1, 46, 127
1, 59660, Note_off_c, 1, 70, 0
1, 59662, Note_on_c, 1, 69, 127
1, 59736, Note_off_c, 1, 69, 0
1, 62976, Note_off_c, 1, 65, 0
1, 62976, Note_off_c, 1, 74, 0
1, 62976, Note_off_c, 1, 58, 0
1, 62976, Note_off_c, 1, 53, 0
1, 62976, Note_off_c, 1, 46, 0
1, 64372, Note_on_c, 1, 74, 127
1, 64469, Note_off_c, 1, 74, 0
1, 64471, Note_on_c, 1, 72, 127
1, 64568, Note_off_c, 1, 72, 0
1, 64570, Note_on_c, 1, 74, 127
1, 64767, Note_off_c, 1, 74, 0
1, 64769, Note_on_c, 1, 74, 127
1, 65164, Note_off_c, 1, 74, 0
1, 65166, Note_on_c, 1, 67, 127
1, 65363, Note_off_c, 1, 67, 0
1, 65365, Note_on_c, 1, 66, 127
1, 65562, Note_off_c, 1, 66, 0
1, 65564, Note_on_c, 1, 67, 127
1, 65959, Note_off_c, 1, 67, 0
1, 65961, Note_on_c, 1, 69, 127
1, 66027, Note_on_c, 1, 67, 127
1, 66058, Note_off_c, 1, 69, 0
1, 66124, Note_off_c, 1, 67, 0
1, 66755, Note_on_c, 1, 69, 127
1, 66952, Note_off_c, 1, 69, 0
1, 66954, Note_on_c, 1, 70, 127
1, 67151, Note_off_c, 1, 70, 0
1, 67153, Note_on_c, 1, 72, 127
1, 67548, Note_off_c, 1, 72, 0
1, 67550, Note_on_c, 1, 72, 127
1, 67550, Note_on_c, 1, 67, 127
1, 67682, Note_on_c, 1, 70, 127
1, 67696, Note_off_c, 1, 72, 0
1, 67766, Note_off_c, 1, 70, 0
1, 67944, Note_off_c, 1, 67, 0
1, 68343, Note_on_c, 1, 74, 127
1, 68343, Note_on_c, 1, 59, 127
1, 68738, Note_off_c, 1, 74, 0
1, 68738, Note_off_c, 1, 59, 0
1, 68740, Note_on_c, 1, 75, 127
1, 68740, Note_on_c, 1, 60, 127
1, 69135, Note_off_c, 1, 75, 0
1, 69135, Note_off_c, 1, 60, 0
1, 69137, Note_on_c, 1, 72, 127
1, 69137, Note_on_c, 1, 62, 127
1, 69532, Note_off_c, 1, 72, 0
1, 69534, Note_on_c, 1, 71, 127
1, 69631, Note_off_c, 1, 71, 0
1, 69922, Note_off_c, 1, 62, 0
1, 69930, Note_on_c, 1, 72, 127
1, 69930, Note_on_c, 1, 63, 127
1, 69996, Note_on_c, 1, 71, 127
1, 70027, Note_off_c, 1, 72, 0
1, 70068, Note_off_c, 1, 71, 0
1, 70325, Note_off_c, 1, 63, 0
1, 70327, Note_on_c, 1, 65, 127
1, 70327, Note_on_c, 1, 74, 127
1, 70722, Note_off_c, 1, 65, 0
1, 70722, Note_off_c, 1, 74, 0
1, 70724, Note_on_c, 1, 74, 127
1, 70724, Note_on_c, 1, 64, 127
1, 70865, Note_off_c, 1, 74, 0
1, 70865, Note_on_c, 1, 72, 127
1, 70944, Note_off_c, 1, 72, 0
1, 71120, Note_off_c, 1, 64, 0
1, 71122, Note_on_c, 1, 74, 127
1, 71122, Note_on_c, 1, 66, 127
1, 71319, Note_off_c, 1, 74, 0
1, 71321, Note_on_c, 1, 69, 127
1, 71515, Note_off_c, 1, 66, 0
1, 71517, Note_off_c, 1, 69, 0
1, 71519, Note_on_c, 1, 67, 127
1, 71519, Note_on_c, 1, 70, 127
1, 71914, Note_off_c, 1, 67, 0
1, 71914, Note_off_c, 1, 70, 0
1, 71916, Note_on_c, 1, 72, 127
1, 71916, Note_on_c, 1, 64, 127
1, 72113, Note_off_c, 1, 72, 0
1, 72115, Note_on_c, 1, 67, 127
1, 72309, Note_off_c, 1, 64, 0
1, 72311, Note_off_c, 1, 67, 0
1, 72313, Note_on_c, 1, 66, 127
1, 72313, Note_on_c, 1, 62, 127
1, 72313, Note_on_c, 1, 69, 127
1, 72410, Note_off_c, 1, 66, 0
1, 72412, Note_on_c, 1, 64, 127
1, 72509, Note_off_c, 1, 64, 0
1, 72708, Note_off_c, 1, 62, 0
1, 72892, Note_off_c, 1, 69, 0
1, 72908, Note_on_c, 1, 67, 127
1, 73105, Note_off_c, 1, 67, 0
1, 73107, Note_on_c, 1, 69, 127
1, 73107, Note_on_c, 1, 54, 127
1, 73107, Note_on_c, 1, 74, 127
1, 73502, Note_off_c, 1, 69, 0
1, 73502, Note_off_c, 1, 54, 0
1, 73504, Note_on_c, 1, 70, 127
1, 73504, Note_on_c, 1, 55, 127
1, 73893, Note_off_c, 1, 74, 0
1, 73899, Note_off_c, 1, 70, 0
1, 73899, Note_off_c, 1, 55, 0
1, 73901, Note_on_c, 1, 66, 127
1, 73901, Note_on_c, 1, 57, 127
1, 74298, Note_on_c, 1, 72, 127
1, 74687, Note_off_c, 1, 66, 0
1, 74693, Note_off_c, 1, 57, 0
1, 74693, Note_off_c, 1, 72, 0
1, 74695, Note_on_c, 1, 72, 127
1, 74695, Note_on_c, 1, 67, 127
1, 74695, Note_on_c, 1, 58, 127
1, 74892, Note_off_c, 1, 72, 0
1, 74894, Note_on_c, 1, 74, 127
1, 75091, Note_off_c, 1, 67, 0
1, 75091, Note_off_c, 1, 58, 0
1, 75091, Note_off_c, 1, 74, 0
1, 75093, Note_on_c, 1, 74, 127
1, 75093, Note_on_c, 1, 69, 127
1, 75093, Note_on_c, 1, 60, 127
1, 75290, Note_off_c, 1, 74, 0
1, 75292, Note_on_c, 1, 75, 127
1, 75489, Note_off_c, 1, 69, 0
1, 75489, Note_off_c, 1, 60, 0
1, 75489, Note_off_c, 1, 75, 0
1, 75491, Note_on_c, 1, 55, 127
1, 75491, Note_on_c, 1, 58, 127
1, 75491, Note_on_c, 1, 74, 127
1, 75491, Note_on_c, 1, 67, 127
1, 75886, Note_off_c, 1, 55, 0
1, 76070, Note_off_c, 1, 58, 0
1, 76087, Note_on_c, 1, 60, 127
1, 76283, Note_off_c, 1, 60, 0
1, 76285, Note_on_c, 1, 62, 127
1, 76285, Note_on_c, 1, 47, 127
1, 76680, Note_off_c, 1, 74, 0
1, 76680, Note_off_c, 1, 62, 0
1, 76680, Note_off_c, 1, 47, 0
1, 76682, Note_on_c, 1, 72, 127
1, 76682, Note_on_c, 1, 63, 127
1, 76682, Note_on_c, 1, 48, 127
1, 77077, Note_off_c, 1, 67, 0
1, 77077, Note_off_c, 1, 72, 0
1, 77077, Note_off_c, 1, 63, 0
1, 77077, Note_off_c, 1, 48, 0
1, 77079, Note_on_c, 1, 77, 127
1, 77079, Note_on_c, 1, 59, 127
1, 77079, Note_on_c, 1, 50, 127
1, 77476, Note_on_c, 1, 65, 127
1, 77865, Note_off_c, 1, 77, 0
1, 77869, Note_off_c, 1, 65, 0
1, 77871, Note_off_c, 1, 59, 0
1, 77871, Note_off_c, 1, 50, 0
1, 77873, Note_on_c, 1, 65, 127
1, 77873, Note_on_c, 1, 75, 127
1, 77873, Note_on_c, 1, 51, 127
1, 77873, Note_on_c, 1, 60, 127
1, 78070, Note_off_c, 1, 65, 0
1, 78072, Note_on_c, 1, 67, 127
1, 78269, Note_off_c, 1, 75, 0
1, 78269, Note_off_c, 1, 51, 0
1, 78269, Note_off_c, 1, 60, 0
1, 78269, Note_off_c, 1, 67, 0
1, 78271, Note_on_c, 1, 67, 127
1, 78271, Note_on_c, 1, 53, 127
1, 78271, Note_on_c, 1, 62, 127
1, 78271, Note_on_c, 1, 74, 127
1, 78468, Note_off_c, 1, 67, 0
1, 78470, Note_on_c, 1, 68, 127
1, 78667, Note_off_c, 1, 53, 0
1, 78667, Note_off_c, 1, 62, 0
1, 78667, Note_off_c, 1, 68, 0
1, 78669, Note_on_c, 1, 51, 127
1, 78669, Note_on_c, 1, 63, 127
1, 79058, Note_off_c, 1, 74, 0
1, 79064, Note_off_c, 1, 51, 0
1, 79064, Note_off_c, 1, 63, 0
1, 79066, Note_on_c, 1, 68, 127
1, 79066, Note_on_c, 1, 53, 127
1, 79066, Note_on_c, 1, 60, 127
1, 79066, Note_on_c, 1, 72, 127
1, 79263, Note_off_c, 1, 68, 0
1, 79265, Note_on_c, 1, 63, 127
1, 79462, Note_off_c, 1, 53, 0
1, 79462, Note_off_c, 1, 60, 0
1, 79462, Note_off_c, 1, 63, 0
1, 79464, Note_on_c, 1, 65, 127
1, 79464, Note_on_c, 1, 50, 127
1, 79464, Note_on_c, 1, 62, 127
1, 79853, Note_off_c, 1, 72, 0
1, 79859, Note_off_c, 1, 65, 0
1, 79859, Note_off_c, 1, 50, 0
1, 79861, Note_on_c, 1, 67, 127
1, 79861, Note_on_c, 1, 71, 127
1, 79861, Note_on_c, 1, 55, 127
1, 80043, Note_off_c, 1, 62, 0
1, 80057, Note_off_c, 1, 67, 0
1, 80253, Note_off_c, 1, 71, 0
1, 80255, Note_off_c, 1, 55, 0
1, 80257, Note_on_c, 1, 72, 127
1, 80257, Note_on_c, 1, 64, 127
1, 80257, Note_on_c, 1, 60, 127
1, 80257, Note_on_c, 1, 48, 127
1, 80652, Note_off_c, 1, 72, 0
1, 81043, Note_off_c, 1, 64, 0
1, 81049, Note_off_c, 1, 60, 0
1, 81049, Note_off_c, 1, 48, 0
1, 81051, Note_on_c, 1, 65, 127
1, 81051, Note_on_c, 1, 58, 127
1, 81117, Note_on_c, 1, 64, 127
1, 81119, Note_off_c, 1, 65, 0
1, 81185, Note_off_c, 1, 64, 0
1, 81445, Note_off_c, 1, 58, 0
1, 81447, Note_on_c, 1, 65, 127
1, 81447, Note_on_c, 1, 56, 127
1, 81842, Note_off_c, 1, 65, 0
1, 81842, Note_off_c, 1, 56, 0
1, 81844, Note_on_c, 1, 67, 127
1, 81844, Note_on_c, 1, 55, 127
1, 81941, Note_off_c, 1, 67, 0
1, 81943, Note_on_c, 1, 65, 127
1, 82040, Note_off_c, 1, 65, 0
1, 82636, Note_off_c, 1, 55, 0
1, 82638, Note_on_c, 1, 67, 127
1, 82638, Note_on_c, 1, 60, 127
1, 82835, Note_off_c, 1, 67, 0
1, 82837, Note_on_c, 1, 68, 127
1, 83034, Note_off_c, 1, 68, 0
1, 83036, Note_on_c, 1, 70, 127
1, 83431, Note_off_c, 1, 60, 0
1, 83431, Note_off_c, 1, 70, 0
1, 83433, Note_on_c, 1, 70, 127
1, 83433, Note_on_c, 1, 65, 127
1, 83433, Note_on_c, 1, 53, 127
1, 83563, Note_off_c, 1, 70, 0
1, 83565, Note_on_c, 1, 68, 127
1, 83633, Note_off_c, 1, 68, 0
1, 83827, Note_off_c, 1, 65, 0
1, 84217, Note_off_c, 1, 53, 0
1, 84225, Note_on_c, 1, 72, 127
1, 84225, Note_on_c, 1, 57, 127
1, 84620, Note_off_c, 1, 72, 0
1, 84620, Note_off_c, 1, 57, 0
1, 84622, Note_on_c, 1, 58, 127
1, 84622, Note_on_c, 1, 73, 127
1, 85017, Note_off_c, 1, 58, 0
1, 85017, Note_off_c, 1, 73, 0
1, 85019, Note_on_c, 1, 70, 127
1, 85019, Note_on_c, 1, 60, 127
1, 85085, Note_on_c, 1, 69, 127
1, 85087, Note_off_c, 1, 70, 0
1, 85153, Note_off_c, 1, 69, 0
1, 85811, Note_off_c, 1, 60, 0
1, 85813, Note_on_c, 1, 70, 127
1, 85813, Note_on_c, 1, 61, 127
1, 85910, Note_off_c, 1, 70, 0
1, 85912, Note_on_c, 1, 69, 127
1, 86009, Note_off_c, 1, 69, 0
1, 86208, Note_off_c, 1, 61, 0
1, 86210, Note_on_c, 1, 72, 127
1, 86210, Note_on_c, 1, 63, 127
1, 86605, Note_off_c, 1, 72, 0
1, 86605, Note_off_c, 1, 63, 0
1, 86607, Note_on_c, 1, 72, 127
1, 86607, Note_on_c, 1, 62, 127
1, 86804, Note_off_c, 1, 72, 0
1, 86806, Note_on_c, 1, 70, 127
1, 86874, Note_off_c, 1, 70, 0
1, 87002, Note_off_c, 1, 62, 0
1, 87004, Note_on_c, 1, 64, 127
1, 87202, Note_on_c, 1, 67, 127
1, 87396, Note_off_c, 1, 64, 0
1, 87398, Note_off_c, 1, 67, 0
1, 87400, Note_on_c, 1, 68, 127
1, 87400, Note_on_c, 1, 65, 127
1, 87497, Note_off_c, 1, 68, 0
1, 87499, Note_on_c, 1, 67, 127
1, 87596, Note_off_c, 1, 67, 0
1, 87794, Note_off_c, 1, 65, 0
1, 87796, Note_on_c, 1, 70, 127
1, 87796, Note_on_c, 1, 62, 127
1, 87993, Note_off_c, 1, 70, 0
1, 87995, Note_on_c, 1, 65, 127
1, 88189, Note_off_c, 1, 62, 0
1, 88191, Note_off_c, 1, 65, 0
1, 88193, Note_on_c, 1, 65, 127
1, 88193, Note_on_c, 1, 60, 127
1, 88193, Note_on_c, 1, 67, 127
1, 88390, Note_off_c, 1, 65, 0
1, 88392, Note_on_c, 1, 64, 127
1, 88460, Note_off_c, 1, 64, 0
1, 88588, Note_off_c, 1, 60, 0
1, 88979, Note_off_c, 1, 67, 0
1, 88987, Note_on_c, 1, 67, 127
1, 88987, Note_on_c, 1, 52, 127
1, 88987, Note_on_c, 1, 72, 127
1, 89382, Note_off_c, 1, 67, 0
1, 89382, Note_off_c, 1, 52, 0
1, 89384, Note_on_c, 1, 68, 127
1, 89384, Note_on_c, 1, 53, 127
1, 89773, Note_off_c, 1, 72, 0
1, 89779, Note_off_c, 1, 68, 0
1, 89779, Note_off_c, 1, 53, 0
1, 89781, Note_on_c, 1, 65, 127
1, 89781, Note_on_c, 1, 55, 127
1, 89847, Note_on_c, 1, 64, 127
1, 89849, Note_off_c, 1, 65, 0
1, 89915, Note_off_c, 1, 64, 0
1, 90178, Note_on_c, 1, 70, 127
1, 90573, Note_off_c, 1, 55, 0
1, 90573, Note_off_c, 1, 70, 0
1, 90575, Note_on_c, 1, 64, 127
1, 90575, Note_on_c, 1, 72, 127
1, 90575, Note_on_c, 1, 56, 127
1, 90772, Note_off_c, 1, 64, 0
1, 90774, Note_on_c, 1, 65, 127
1, 90971, Note_off_c, 1, 72, 0
1, 90971, Note_off_c, 1, 56, 0
1, 90971, Note_off_c, 1, 65, 0
1, 90973, Note_on_c, 1, 65, 127
1, 90973, Note_on_c, 1, 73, 127
1, 90973, Note_on_c, 1, 58, 127
1, 91170, Note_off_c, 1, 65, 0
1, 91172, Note_on_c, 1, 67, 127
1, 91369, Note_off_c, 1, 73, 0
1, 91369, Note_off_c, 1, 58, 0
1, 91369, Note_off_c, 1, 67, 0
1, 91371, Note_on_c, 1, 53, 127
1, 91371, Note_on_c, 1, 56, 127
1, 91371, Note_on_c, 1, 72, 127
1, 91371, Note_on_c, 1, 65, 127
1, 91766, Note_off_c, 1, 53, 0
1, 91950, Note_off_c, 1, 56, 0
1, 91967, Note_on_c, 1, 58, 127
1, 92163, Note_off_c, 1, 58, 0
1, 92165, Note_on_c, 1, 60, 127
1, 92165, Note_on_c, 1, 45, 127
1, 92560, Note_off_c, 1, 72, 0
1, 92560, Note_off_c, 1, 60, 0
1, 92560, Note_off_c, 1, 45, 0
1, 92562, Note_on_c, 1, 70, 127
1, 92562, Note_on_c, 1, 61, 127
1, 92562, Note_on_c, 1, 46, 127
1, 92957, Note_off_c, 1, 65, 0
1, 92957, Note_off_c, 1, 70, 0
1, 92957, Note_off_c, 1, 61, 0
1, 92957, Note_off_c, 1, 46, 0
1, 92959, Note_on_c, 1, 75, 127
1, 92959, Note_on_c, 1, 48, 127
1, 92959, Note_on_c, 1, 57, 127
1, 93356, Note_on_c, 1, 63, 127
1, 93745, Note_off_c, 1, 75, 0
1, 93751, Note_off_c, 1, 48, 0
1, 93751, Note_off_c, 1, 57, 0
1, 93751, Note_off_c, 1, 63, 0
1, 93753, Note_on_c, 1, 63, 127
1, 93753, Note_on_c, 1, 73, 127
1, 93753, Note_on_c, 1, 49, 127
1, 93753, Note_on_c, 1, 58, 127
1, 93950, Note_off_c, 1, 63, 0
1, 93952, Note_on_c, 1, 65, 127
1, 94149, Note_off_c, 1, 73, 0
1, 94149, Note_off_c, 1, 49, 0
1, 94149, Note_off_c, 1, 58, 0
1, 94149, Note_off_c, 1, 65, 0
1, 94151, Note_on_c, 1, 65, 127
1, 94151, Note_on_c, 1, 51, 127
1, 94151, Note_on_c, 1, 60, 127
1, 94151, Note_on_c, 1, 72, 127
1, 94348, Note_off_c, 1, 65, 0
1, 94350, Note_on_c, 1, 66, 127
1, 94547, Note_off_c, 1, 51, 0
1, 94547, Note_off_c, 1, 60, 0
1, 94547, Note_off_c, 1, 66, 0
1, 94549, Note_on_c, 1, 61, 127
1, 94549, Note_on_c, 1, 49, 127
1, 94938, Note_off_c, 1, 72, 0
1, 94944, Note_off_c, 1, 61, 0
1, 94944, Note_off_c, 1, 49, 0
1, 94946, Note_on_c, 1, 66, 127
1, 94946, Note_on_c, 1, 58, 127
1, 94946, Note_on_c, 1, 54, 127
1, 94946, Note_on_c, 1, 70, 127
1, 95143, Note_off_c, 1, 66, 0
1, 95145, Note_on_c, 1, 61, 127
1, 95342, Note_off_c, 1, 58, 0
1, 95342, Note_off_c, 1, 54, 0
1, 95342, Note_off_c, 1, 61, 0
1, 95344, Note_on_c, 1, 63, 127
1, 95344, Note_on_c, 1, 48, 127
1, 95344, Note_on_c, 1, 60, 127
1, 95733, Note_off_c, 1, 70, 0
1, 95739, Note_off_c, 1, 63, 0
1, 95739, Note_off_c, 1, 48, 0
1, 95741, Note_on_c, 1, 65, 127
1, 95741, Note_on_c, 1, 69, 127
1, 95741, Note_on_c, 1, 53, 127
1, 95923, Note_off_c, 1, 60, 0
1, 95937, Note_off_c, 1, 65, 0
1, 96133, Note_off_c, 1, 69, 0
1, 96135, Note_off_c, 1, 53, 0
1, 96137, Note_on_c, 1, 70, 127
1, 96137, Note_on_c, 1, 61, 127
1, 96137, Note_on_c, 1, 46, 127
1, 96137, Note_on_c, 1, 58, 127
1, 96532, Note_off_c, 1, 70, 0
1, 96923, Note_off_c, 1, 61, 0
1, 96929, Note_off_c, 1, 46, 0
1, 96929, Note_off_c, 1, 58, 0
1, 96931, Note_on_c, 1, 63, 127
1, 96931, Note_on_c, 1, 56, 127
1, 97128, Note_off_c, 1, 63, 0
1, 97130, Note_on_c, 1, 62, 127
1, 97196, Note_off_c, 1, 62, 0
1, 97326, Note_off_c, 1, 56, 0
1, 97328, Note_on_c, 1, 55, 127
1, 97723, Note_off_c, 1, 55, 0
1, 97725, Note_on_c, 1, 65, 127
1, 97725, Note_on_c, 1, 53, 127
1, 97791, Note_on_c, 1, 63, 127
1, 97822, Note_off_c, 1, 65, 0
1, 97857, Note_off_c, 1, 63, 0
1, 98517, Note_off_c, 1, 53, 0
1, 98519, Note_on_c, 1, 65, 127
1, 98519, Note_on_c, 1, 58, 127
1, 98716, Note_off_c, 1, 65, 0
1, 98718, Note_on_c, 1, 67, 127
1, 98915, Note_off_c, 1, 67, 0
1, 98917, Note_on_c, 1, 68, 127
1, 99312, Note_off_c, 1, 58, 0
1, 99312, Note_off_c, 1, 68, 0
1, 99314, Note_on_c, 1, 68, 127
1, 99314, Note_on_c, 1, 63, 127
1, 99314, Note_on_c, 1, 51, 127
1, 99511, Note_off_c, 1, 68, 0
1, 99513, Note_on_c, 1, 67, 127
1, 99610, Note_off_c, 1, 67, 0
1, 99709, Note_off_c, 1, 63, 0
1, 100100, Note_off_c, 1, 51, 0
1, 100108, Note_on_c, 1, 70, 127
1, 100108, Note_on_c, 1, 55, 127
1, 100503, Note_off_c, 1, 70, 0
1, 100503, Note_off_c, 1, 55, 0
1, 100505, Note_on_c, 1, 56, 127
1, 100505, Note_on_c, 1, 72, 127
1, 100900, Note_off_c, 1, 56, 0
1, 100900, Note_off_c, 1, 72, 0
1, 100902, Note_on_c, 1, 68, 127
1, 100902, Note_on_c, 1, 58, 127
1, 100968, Note_on_c, 1, 67, 127
1, 100970, Note_off_c, 1, 68, 0
1, 101036, Note_off_c, 1, 67, 0
1, 101693, Note_off_c, 1, 58, 0
1, 101695, Note_on_c, 1, 68, 127
1, 101695, Note_on_c, 1, 60, 127
1, 101792, Note_off_c, 1, 68, 0
1, 101794, Note_on_c, 1, 67, 127
1, 101891, Note_off_c, 1, 67, 0
1, 102089, Note_off_c, 1, 60, 0
1, 102091, Note_on_c, 1, 61, 127
1, 102091, Note_on_c, 1, 70, 127
1, 102486, Note_off_c, 1, 61, 0
1, 102486, Note_off_c, 1, 70, 0
1, 102488, Note_on_c, 1, 68, 127
1, 102488, Note_on_c, 1, 60, 127
1, 102883, Note_off_c, 1, 68, 0
1, 102883, Note_off_c, 1, 60, 0
1, 102885, Note_on_c, 1, 70, 127
1, 102885, Note_on_c, 1, 62, 127
1, 103082, Note_off_c, 1, 70, 0
1, 103084, Note_on_c, 1, 65, 127
1, 103278, Note_off_c, 1, 62, 0
1, 103280, Note_off_c, 1, 65, 0
1, 103282, Note_on_c, 1, 67, 127
1, 103282, Note_on_c, 1, 63, 127
1, 103677, Note_off_c, 1, 67, 0
1, 103677, Note_off_c, 1, 63, 0
1, 103679, Note_on_c, 1, 68, 127
1, 103679, Note_on_c, 1, 60, 127
1, 103876, Note_off_c, 1, 68, 0
1, 103878, Note_on_c, 1, 63, 127
1, 104072, Note_off_c, 1, 60, 0
1, 104074, Note_off_c, 1, 63, 0
1, 104076, Note_on_c, 1, 63, 127
1, 104076, Note_on_c, 1, 58, 127
1, 104076, Note_on_c, 1, 65, 127
1, 104341, Note_off_c, 1, 63, 0
1, 104341, Note_on_c, 1, 62, 127
1, 104409, Note_off_c, 1, 62, 0
1, 104471, Note_off_c, 1, 58, 0
1, 104669, Note_off_c, 1, 65, 0
1, 104870, Note_on_c, 1, 65, 127
1, 104870, Note_on_c, 1, 50, 127
1, 104870, Note_on_c, 1, 70, 127
1, 105265, Note_off_c, 1, 65, 0
1, 105265, Note_off_c, 1, 50, 0
1, 105267, Note_on_c, 1, 67, 127
1, 105267, Note_on_c, 1, 51, 127
1, 105656, Note_off_c, 1, 70, 0
1, 105662, Note_off_c, 1, 67, 0
1, 105662, Note_off_c, 1, 51, 0
1, 105664, Note_on_c, 1, 62, 127
1, 105664, Note_on_c, 1, 53, 127
1, 106061, Note_on_c, 1, 68, 127
1, 106450, Note_off_c, 1, 62, 0
1, 106456, Note_off_c, 1, 53, 0
1, 106456, Note_off_c, 1, 68, 0
1, 106458, Note_on_c, 1, 70, 127
1, 106458, Note_on_c, 1, 55, 127
1, 106458, Note_on_c, 1, 63, 127
1, 106555, Note_off_c, 1, 70, 0
1, 106557, Note_on_c, 1, 68, 127
1, 106654, Note_off_c, 1, 68, 0
1, 106852, Note_off_c, 1, 55, 0
1, 106854, Note_on_c, 1, 72, 127
1, 106854, Note_on_c, 1, 56, 127
1, 107243, Note_off_c, 1, 63, 0
1, 107249, Note_off_c, 1, 72, 0
1, 107249, Note_off_c, 1, 56, 0
1, 107251, Note_on_c, 1, 51, 127
1, 107251, Note_on_c, 1, 55, 127
1, 107251, Note_on_c, 1, 70, 127
1, 107251, Note_on_c, 1, 63, 127
1, 107646, Note_off_c, 1, 51, 0
1, 107830, Note_off_c, 1, 55, 0
1, 107847, Note_on_c, 1, 56, 127
1, 108043, Note_off_c, 1, 56, 0
1, 108045, Note_on_c, 1, 58, 127
1, 108045, Note_on_c, 1, 43, 127
1, 108440, Note_off_c, 1, 70, 0
1, 108440, Note_off_c, 1, 58, 0
1, 108440, Note_off_c, 1, 43, 0
1, 108442, Note_on_c, 1, 68, 127
1, 108442, Note_on_c, 1, 60, 127
1, 108442, Note_on_c, 1, 44, 127
1, 108837, Note_off_c, 1, 63, 0
1, 108837, Note_off_c, 1, 68, 0
1, 108837, Note_off_c, 1, 60, 0
1, 108837, Note_off_c, 1, 44, 0
1, 108839, Note_on_c, 1, 73, 127
1, 108839, Note_on_c, 1, 46, 127
1, 108839, Note_on_c, 1, 55, 127
1, 109236, Note_on_c, 1, 61, 127
1, 109625, Note_off_c, 1, 73, 0
1, 109631, Note_off_c, 1, 46, 0
1, 109631, Note_off_c, 1, 55, 0
1, 109631, Note_off_c, 1, 61, 0
1, 109633, Note_on_c, 1, 63, 127
1, 109633, Note_on_c, 1, 72, 127
1, 109633, Note_on_c, 1, 48, 127
1, 109633, Note_on_c, 1, 56, 127
1, 110028, Note_off_c, 1, 63, 0
1, 110028, Note_off_c, 1, 72, 0
1, 110028, Note_off_c, 1, 48, 0
1, 110028, Note_off_c, 1, 56, 0
1, 110030, Note_on_c, 1, 65, 127
1, 110030, Note_on_c, 1, 53, 127
1, 110030, Note_on_c, 1, 49, 127
1, 110030, Note_on_c, 1, 70, 127
1, 110425, Note_off_c, 1, 65, 0
1, 110425, Note_off_c, 1, 53, 0
1, 110425, Note_off_c, 1, 49, 0
1, 110427, Note_on_c, 1, 63, 127
1, 110427, Note_on_c, 1, 48, 127
1, 110427, Note_on_c, 1, 55, 127
1, 110816, Note_off_c, 1, 70, 0
1, 110822, Note_off_c, 1, 63, 0
1, 110822, Note_off_c, 1, 48, 0
1, 110822, Note_off_c, 1, 55, 0
1, 110824, Note_on_c, 1, 65, 127
1, 110824, Note_on_c, 1, 56, 127
1, 110824, Note_on_c, 1, 53, 127
1, 110824, Note_on_c, 1, 68, 127
1, 111021, Note_off_c, 1, 65, 0
1, 111023, Note_on_c, 1, 60, 127
1, 111220, Note_off_c, 1, 56, 0
1, 111220, Note_off_c, 1, 53, 0
1, 111220, Note_off_c, 1, 60, 0
1, 111222, Note_on_c, 1, 61, 127
1, 111222, Note_on_c, 1, 46, 127
1, 111222, Note_on_c, 1, 58, 127
1, 111611, Note_off_c, 1, 68, 0
1, 111617, Note_off_c, 1, 61, 0
1, 111617, Note_off_c, 1, 46, 0
1, 111619, Note_on_c, 1, 63, 127
1, 111619, Note_on_c, 1, 51, 127
1, 111619, Note_on_c, 1, 67, 127
1, 111801, Note_off_c, 1, 58, 0
1, 111815, Note_off_c, 1, 63, 0
1, 112014, Note_off_c, 1, 51, 0
1, 112016, Note_on_c, 1, 44, 127
1, 112405, Note_off_c, 1, 67, 0
1, 112612, Note_on_c, 1, 64, 127
1, 112808, Note_off_c, 1, 64, 0
1, 113206, Note_off_c, 1, 44, 0
1, 113208, Note_on_c, 1, 67, 127
1, 113208, Note_on_c, 1, 47, 127
1, 113405, Note_off_c, 1, 67, 0
1, 113407, Note_on_c, 1, 62, 127
1, 113604, Note_off_c, 1, 47, 0
1, 113604, Note_off_c, 1, 62, 0
1, 113606, Note_on_c, 1, 65, 127
1, 113606, Note_on_c, 1, 55, 127
1, 113606, Note_on_c, 1, 60, 127
1, 113606, Note_on_c, 1, 48, 127
1, 113672, Note_on_c, 1, 64, 127
1, 113674, Note_off_c, 1, 65, 0
1, 113740, Note_off_c, 1, 64, 0
1, 113998, Note_off_c, 1, 55, 0
1, 114000, Note_off_c, 1, 60, 0
1, 114396, Note_off_c, 1, 48, 0
1, 114398, Note_on_c, 1, 67, 127
1, 114398, Note_on_c, 1, 52, 127
1, 114793, Note_off_c, 1, 67, 0
1, 114793, Note_off_c, 1, 52, 0
1, 114795, Note_on_c, 1, 53, 127
1, 114795, Note_on_c, 1, 68, 127
1, 115188, Note_off_c, 1, 53, 0
1, 115190, Note_off_c, 1, 68, 0
1, 115192, Note_on_c, 1, 65, 127
1, 115192, Note_on_c, 1, 55, 127
1, 115415, Note_on_c, 1, 64, 127
1, 115457, Note_off_c, 1, 65, 0
1, 115500, Note_off_c, 1, 64, 0
1, 115821, Note_on_c, 1, 62, 127
1, 115909, Note_off_c, 1, 62, 0
1, 115985, Note_off_c, 1, 55, 0
1, 115987, Note_on_c, 1, 56, 127
1, 116382, Note_off_c, 1, 56, 0
1, 116384, Note_on_c, 1, 67, 127
1, 116384, Note_on_c, 1, 58, 127
1, 116779, Note_off_c, 1, 67, 0
1, 116779, Note_off_c, 1, 58, 0
1, 116781, Note_on_c, 1, 53, 127
1, 116781, Note_on_c, 1, 56, 127
1, 116781, Note_on_c, 1, 65, 127
1, 117176, Note_off_c, 1, 53, 0
1, 117378, Note_off_c, 1, 56, 0
1, 117380, Note_on_c, 1, 58, 127
1, 117574, Note_off_c, 1, 65, 0
1, 117580, Note_off_c, 1, 58, 0
1, 117582, Note_on_c, 1, 60, 127
1, 117582, Note_on_c, 1, 45, 127
1, 117582, Note_on_c, 1, 65, 127
1, 117984, Note_off_c, 1, 60, 0
1, 117984, Note_off_c, 1, 45, 0
1, 117986, Note_on_c, 1, 61, 127
1, 117986, Note_on_c, 1, 46, 127
1, 118382, Note_off_c, 1, 65, 0
1, 118388, Note_off_c, 1, 61, 0
1, 118388, Note_off_c, 1, 46, 0
1, 118390, Note_on_c, 1, 60, 127
1, 118390, Note_on_c, 1, 48, 127
1, 118390, Note_on_c, 1, 65, 127
1, 118792, Note_off_c, 1, 60, 0
1, 118794, Note_on_c, 1, 57, 127
1, 119196, Note_off_c, 1, 48, 0
1, 119196, Note_off_c, 1, 57, 0
1, 119198, Note_on_c, 1, 58, 127
1, 119198, Note_on_c, 1, 49, 127
1, 119600, Note_off_c, 1, 58, 0
1, 119600, Note_off_c, 1, 49, 0
1, 119602, Note_on_c, 1, 51, 127
1, 120004, Note_off_c, 1, 51, 0
1, 120006, Note_on_c, 1, 46, 127
1, 120423, Note_off_c, 1, 46, 0
1, 120839, Note_off_c, 1, 65, 0
1, 120867, Note_on_c, 1, 40, 127
1, 120867, Note_on_c, 1, 67, 127
1, 121284, Note_off_c, 1, 40, 0
1, 121284, Note_off_c, 1, 67, 0
1, 121286, Note_on_c, 1, 41, 127
1, 121286, Note_on_c, 1, 56, 127
1, 121703, Note_off_c, 1, 41, 0
1, 121703, Note_off_c, 1, 56, 0
1, 121705, Note_on_c, 1, 38, 127
1, 121705, Note_on_c, 1, 50, 127
1, 121705, Note_on_c, 1, 53, 127
1, 121705, Note_on_c, 1, 59, 127
1, 121705, Note_on_c, 1, 65, 127
1, 121705, Note_on_c, 1, 62, 127
1, 122752, Note_off_c, 1, 38, 0
1, 122752, Note_off_c, 1, 50, 0
1, 122752, Note_off_c, 1, 53, 0
1, 122752, Note_off_c, 1, 59, 0
1, 122752, Note_off_c, 1, 65, 0
1, 122752, Note_off_c, 1, 62, 0
1, 123057, Note_on_c, 1, 71, 127
1, 123057, Note_on_c, 1, 67, 127
1, 123057, Note_on_c, 1, 65, 127
1, 123057, Note_on_c, 1, 62, 127
1, 123057, Note_on_c, 1, 59, 127
1, 123057, Note_on_c, 1, 55, 127
1, 123057, Note_on_c, 1, 53, 127
1, 123057, Note_on_c, 1, 50, 127
1, 123474, Note_off_c, 1, 71, 0
1, 123474, Note_off_c, 1, 67, 0
1, 123474, Note_off_c, 1, 65, 0
1, 123474, Note_off_c, 1, 62, 0
1, 123474, Note_off_c, 1, 59, 0
1, 123474, Note_off_c, 1, 55, 0
1, 123474, Note_off_c, 1, 53, 0
1, 123474, Note_off_c, 1, 50, 0
1, 123476, Note_on_c, 1, 67, 127
1, 123476, Note_on_c, 1, 72, 127
1, 123476, Note_on_c, 1, 60, 127
1, 123476, Note_on_c, 1, 55, 127
1, 123476, Note_on_c, 1, 48, 127
1, 124032, Note_off_c, 1, 67, 0
1, 124032, Note_on_c, 1, 64, 127
1, 125760, Note_off_c, 1, 72, 0
1, 125760, Note_off_c, 1, 60, 0
1, 125760, Note_off_c, 1, 55, 0
1, 125760, Note_off_c, 1, 48, 0
1, 125760, Note_off_c, 1, 64, 0
1, 126688, Note_on_c, 1, 72, 127
1, 126688, Note_on_c, 1, 53, 127
1, 126688, Note_on_c, 1, 68, 127
1, 127088, Note_off_c, 1, 72, 0
1, 127089, Note_on_c, 1, 73, 127
1, 127489, Note_off_c, 1, 53, 0
1, 127889, Note_off_c, 1, 68, 0
1, 127891, Note_on_c, 1, 52, 127
1, 127891, Note_on_c, 1, 67, 127
1, 128290, Note_off_c, 1, 73, 0
1, 128692, Note_off_c, 1, 52, 0
1, 128693, Note_on_c, 1, 70, 127
1, 129093, Note_off_c, 1, 70, 0
1, 129488, Note_off_c, 1, 67, 0
1, 129494, Note_on_c, 1, 49, 127
1, 129494, Note_on_c, 1, 65, 127
1, 129894, Note_off_c, 1, 49, 0
1, 129895, Note_on_c, 1, 46, 127
1, 130295, Note_off_c, 1, 46, 0
1, 130296, Note_on_c, 1, 48, 127
1, 130695, Note_off_c, 1, 65, 0
1, 130697, Note_on_c, 1, 64, 127
1, 131097, Note_off_c, 1, 48, 0
1, 131498, Note_off_c, 1, 64, 0
1, 131499, Note_on_c, 1, 65, 127
1, 131499, Note_on_c, 1, 68, 127
1, 131499, Note_on_c, 1, 53, 127
1, 131899, Note_off_c, 1, 65, 0
1, 131899, Note_off_c, 1, 68, 0
1, 131900, Note_on_c, 1, 77, 127
1, 131900, Note_on_c, 1, 60, 127
1, 132099, Note_off_c, 1, 77, 0
1, 132100, Note_on_c, 1, 75, 127
1, 132299, Note_off_c, 1, 53, 0
1, 132299, Note_off_c, 1, 60, 0
1, 132299, Note_off_c, 1, 75, 0
1, 132300, Note_on_c, 1, 75, 127
1, 132300, Note_on_c, 1, 53, 127
1, 132300, Note_on_c, 1, 56, 127
1, 132499, Note_off_c, 1, 75, 0
1, 132500, Note_on_c, 1, 73, 127
1, 132699, Note_off_c, 1, 53, 0
1, 132699, Note_off_c, 1, 56, 0
1, 132699, Note_off_c, 1, 73, 0
1, 132700, Note_on_c, 1, 73, 127
1, 132700, Note_on_c, 1, 55, 127
1, 132700, Note_on_c, 1, 52, 127
1, 132899, Note_off_c, 1, 73, 0
1, 132900, Note_on_c, 1, 72, 127
1, 133099, Note_off_c, 1, 55, 0
1, 133100, Note_on_c, 1, 60, 127
1, 133192, Note_off_c, 1, 72, 0
1, 133301, Note_on_c, 1, 70, 127
1, 133500, Note_off_c, 1, 52, 0
1, 133500, Note_off_c, 1, 60, 0
1, 133500, Note_off_c, 1, 70, 0
1, 133501, Note_on_c, 1, 72, 127
1, 133501, Note_on_c, 1, 52, 127
1, 133501, Note_on_c, 1, 55, 127
1, 133700, Note_off_c, 1, 72, 0
1, 133701, Note_on_c, 1, 70, 127
1, 133900, Note_off_c, 1, 52, 0
1, 133900, Note_off_c, 1, 55, 0
1, 133900, Note_off_c, 1, 70, 0
1, 133901, Note_on_c, 1, 70, 127
1, 133901, Note_on_c, 1, 60, 127
1, 133901, Note_on_c, 1, 53, 127
1, 134100, Note_off_c, 1, 70, 0
1, 134101, Note_on_c, 1, 68, 127
1, 134300, Note_off_c, 1, 60, 0
1, 134300, Note_off_c, 1, 53, 0
1, 134300, Note_off_c, 1, 68, 0
1, 134301, Note_on_c, 1, 68, 127
1, 134301, Note_on_c, 1, 49, 127
1, 134301, Note_on_c, 1, 58, 127
1, 134500, Note_off_c, 1, 68, 0
1, 134501, Note_on_c, 1, 67, 127
1, 134700, Note_off_c, 1, 49, 0
1, 134700, Note_off_c, 1, 58, 0
1, 134700, Note_off_c, 1, 67, 0
1, 134701, Note_on_c, 1, 67, 127
1, 134701, Note_on_c, 1, 61, 127
1, 134701, Note_on_c, 1, 46, 127
1, 134900, Note_off_c, 1, 67, 0
1, 134901, Note_on_c, 1, 65, 127
1, 135097, Note_off_c, 1, 61, 0
1, 135100, Note_off_c, 1, 46, 0
1, 135100, Note_off_c, 1, 65, 0
1, 135101, Note_on_c, 1, 65, 127
1, 135101, Note_on_c, 1, 48, 127
1, 135101, Note_on_c, 1, 60, 127
1, 135300, Note_off_c, 1, 65, 0
1, 135301, Note_on_c, 1, 64, 127
1, 135500, Note_off_c, 1, 64, 0
1, 135901, Note_off_c, 1, 48, 0
1, 135902, Note_on_c, 1, 58, 127
1, 136301, Note_off_c, 1, 60, 0
1, 136302, Note_off_c, 1, 58, 0
1, 136303, Note_on_c, 1, 56, 127
1, 136303, Note_on_c, 1, 41, 127
1, 136502, Note_off_c, 1, 56, 0
1, 136503, Note_on_c, 1, 70, 127
1, 136702, Note_off_c, 1, 70, 0
1, 136903, Note_on_c, 1, 68, 127
1, 137102, Note_off_c, 1, 41, 0
1, 137103, Note_on_c, 1, 53, 127
1, 137195, Note_off_c, 1, 68, 0
1, 137304, Note_on_c, 1, 73, 127
1, 137503, Note_off_c, 1, 53, 0
1, 137504, Note_on_c, 1, 60, 127
1, 137504, Note_on_c, 1, 52, 127
1, 137596, Note_off_c, 1, 73, 0
1, 138105, Note_on_c, 1, 67, 127
1, 138304, Note_off_c, 1, 60, 0
1, 138304, Note_off_c, 1, 52, 0
1, 138305, Note_on_c, 1, 58, 127
1, 138397, Note_off_c, 1, 67, 0
1, 138506, Note_on_c, 1, 72, 127
1, 138705, Note_off_c, 1, 58, 0
1, 138798, Note_off_c, 1, 72, 0
1, 139107, Note_on_c, 1, 49, 127
1, 139307, Note_on_c, 1, 65, 127
1, 139506, Note_off_c, 1, 49, 0
1, 139507, Note_on_c, 1, 46, 127
1, 139599, Note_off_c, 1, 65, 0
1, 139907, Note_off_c, 1, 46, 0
1, 139908, Note_on_c, 1, 48, 127
1, 140309, Note_on_c, 1, 55, 127
1, 140509, Note_on_c, 1, 64, 127
1, 140708, Note_off_c, 1, 48, 0
1, 140708, Note_off_c, 1, 55, 0
1, 140709, Note_on_c, 1, 36, 127
1, 140801, Note_off_c, 1, 64, 0
1, 141109, Note_off_c, 1, 36, 0
1, 141911, Note_on_c, 1, 73, 127
1, 141911, Note_on_c, 1, 56, 127
1, 141911, Note_on_c, 1, 53, 127
1, 142110, Note_off_c, 1, 73, 0
1, 142111, Note_on_c, 1, 70, 127
1, 142310, Note_off_c, 1, 56, 0
1, 142310, Note_off_c, 1, 53, 0
1, 142310, Note_off_c, 1, 70, 0
1, 142311, Note_on_c, 1, 67, 127
1, 142311, Note_on_c, 1, 61, 127
1, 142311, Note_on_c, 1, 52, 127
1, 142708, Note_off_c, 1, 67, 0
1, 142711, Note_off_c, 1, 61, 0
1, 142712, Note_on_c, 1, 60, 127
1, 143111, Note_off_c, 1, 52, 0
1, 143111, Note_off_c, 1, 60, 0
1, 143112, Note_on_c, 1, 72, 127
1, 143112, Note_on_c, 1, 51, 127
1, 143112, Note_on_c, 1, 55, 127
1, 143311, Note_off_c, 1, 72, 0
1, 143312, Note_on_c, 1, 68, 127
1, 143511, Note_off_c, 1, 51, 0
1, 143511, Note_off_c, 1, 55, 0
1, 143511, Note_off_c, 1, 68, 0
1, 143512, Note_on_c, 1, 65, 127
1, 143512, Note_on_c, 1, 60, 127
1, 143512, Note_on_c, 1, 50, 127
1, 143909, Note_off_c, 1, 65, 0
1, 143912, Note_off_c, 1, 60, 0
1, 143913, Note_on_c, 1, 58, 127
1, 144312, Note_off_c, 1, 50, 0
1, 144312, Note_off_c, 1, 58, 0
1, 144313, Note_on_c, 1, 70, 127
1, 144313, Note_on_c, 1, 49, 127
1, 144313, Note_on_c, 1, 53, 127
1, 144512, Note_off_c, 1, 70, 0
1, 144513, Note_on_c, 1, 67, 127
1, 144712, Note_off_c, 1, 49, 0
1, 144712, Note_off_c, 1, 53, 0
1, 144712, Note_off_c, 1, 67, 0
1, 144713, Note_on_c, 1, 73, 127
1, 144713, Note_on_c, 1, 46, 127
1, 144713, Note_on_c, 1, 55, 127
1, 144912, Note_off_c, 1, 73, 0
1, 144913, Note_on_c, 1, 65, 127
1, 145112, Note_off_c, 1, 46, 0
1, 145112, Note_off_c, 1, 65, 0
1, 145113, Note_on_c, 1, 64, 127
1, 145113, Note_on_c, 1, 48, 127
1, 145212, Note_off_c, 1, 64, 0
1, 145213, Note_on_c, 1, 62, 127
1, 145312, Note_off_c, 1, 62, 0
1, 145512, Note_off_c, 1, 55, 0
1, 145512, Note_off_c, 1, 48, 0
1, 145513, Note_on_c, 1, 36, 127
1, 145513, Note_on_c, 1, 58, 127
1, 145912, Note_off_c, 1, 36, 0
1, 145912, Note_off_c, 1, 58, 0
1, 145913, Note_on_c, 1, 65, 127
1, 145913, Note_on_c, 1, 56, 127
1, 145913, Note_on_c, 1, 41, 127
1, 146316, Note_off_c, 1, 65, 0
1, 146316, Note_off_c, 1, 56, 0
1, 146316, Note_off_c, 1, 41, 0
1, 146317, Note_on_c, 1, 68, 127
1, 146317, Note_on_c, 1, 53, 127
1, 146519, Note_on_c, 1, 73, 127
1, 146717, Note_off_c, 1, 68, 0
1, 146720, Note_off_c, 1, 53, 0
1, 146721, Note_on_c, 1, 55, 127
1, 146721, Note_on_c, 1, 65, 127
1, 146919, Note_off_c, 1, 73, 0
1, 146922, Note_off_c, 1, 55, 0
1, 146923, Note_on_c, 1, 56, 127
1, 147121, Note_off_c, 1, 65, 0
1, 147124, Note_off_c, 1, 56, 0
1, 147125, Note_on_c, 1, 52, 127
1, 147125, Note_on_c, 1, 67, 127
1, 147327, Note_on_c, 1, 73, 127
1, 147528, Note_off_c, 1, 52, 0
1, 147529, Note_on_c, 1, 51, 127
1, 147730, Note_off_c, 1, 73, 0
1, 147731, Note_on_c, 1, 72, 127
1, 147931, Note_off_c, 1, 72, 0
1, 147932, Note_off_c, 1, 67, 0
1, 147932, Note_off_c, 1, 51, 0
1, 147933, Note_on_c, 1, 53, 127
1, 148134, Note_off_c, 1, 53, 0
1, 148135, Note_on_c, 1, 64, 127
1, 148135, Note_on_c, 1, 54, 127
1, 148336, Note_off_c, 1, 64, 0
1, 148336, Note_off_c, 1, 54, 0
1, 148337, Note_on_c, 1, 50, 127
1, 148337, Note_on_c, 1, 65, 127
1, 148539, Note_on_c, 1, 72, 127
1, 148740, Note_off_c, 1, 50, 0
1, 148741, Note_on_c, 1, 49, 127
1, 148942, Note_off_c, 1, 72, 0
1, 148943, Note_on_c, 1, 70, 127
1, 149143, Note_off_c, 1, 70, 0
1, 149144, Note_off_c, 1, 65, 0
1, 149144, Note_off_c, 1, 49, 0
1, 149145, Note_on_c, 1, 51, 127
1, 149346, Note_off_c, 1, 51, 0
1, 149347, Note_on_c, 1, 60, 127
1, 149347, Note_on_c, 1, 68, 127
1, 149347, Note_on_c, 1, 53, 127
1, 149548, Note_off_c, 1, 60, 0
1, 149548, Note_off_c, 1, 68, 0
1, 149548, Note_off_c, 1, 53, 0
1, 149549, Note_on_c, 1, 61, 127
1, 149549, Note_on_c, 1, 46, 127
1, 149751, Note_on_c, 1, 66, 127
1, 149949, Note_off_c, 1, 61, 0
1, 149952, Note_off_c, 1, 46, 0
1, 149952, Note_off_c, 1, 66, 0
1, 149953, Note_on_c, 1, 57, 127
1, 149953, Note_on_c, 1, 48, 127
1, 150155, Note_on_c, 1, 65, 127
1, 150353, Note_off_c, 1, 57, 0
1, 150355, Note_off_c, 1, 65, 0
1, 150356, Note_off_c, 1, 48, 0
1, 150357, Note_on_c, 1, 46, 127
1, 150357, Note_on_c, 1, 55, 127
1, 150558, Note_off_c, 1, 46, 0
1, 150559, Note_on_c, 1, 64, 127
1, 150559, Note_on_c, 1, 48, 127
1, 150757, Note_off_c, 1, 55, 0
1, 150759, Note_off_c, 1, 64, 0
1, 150760, Note_off_c, 1, 48, 0
1, 150761, Note_on_c, 1, 41, 127
1, 150761, Note_on_c, 1, 56, 127
1, 150965, Note_on_c, 1, 65, 127
1, 151165, Note_off_c, 1, 41, 0
1, 151165, Note_off_c, 1, 56, 0
1, 151168, Note_off_c, 1, 65, 0
1, 151169, Note_on_c, 1, 73, 127
1, 151372, Note_off_c, 1, 73, 0
1, 151373, Note_on_c, 1, 73, 127
1, 151576, Note_off_c, 1, 73, 0
1, 151577, Note_on_c, 1, 74, 127
1, 151577, Note_on_c, 1, 59, 127
1, 151577, Note_on_c, 1, 53, 127
1, 151781, Note_on_c, 1, 68, 127
1, 151981, Note_off_c, 1, 74, 0
1, 151984, Note_off_c, 1, 59, 0
1, 151984, Note_off_c, 1, 53, 0
1, 151984, Note_off_c, 1, 68, 0
1, 151985, Note_on_c, 1, 67, 127
1, 151985, Note_on_c, 1, 58, 127
1, 151985, Note_on_c, 1, 55, 127
1, 152188, Note_off_c, 1, 67, 0
1, 152189, Note_on_c, 1, 70, 127
1, 152389, Note_off_c, 1, 58, 0
1, 152389, Note_off_c, 1, 55, 0
1, 152392, Note_off_c, 1, 70, 0
1, 152393, Note_on_c, 1, 75, 127
1, 152596, Note_off_c, 1, 75, 0
1, 152597, Note_on_c, 1, 75, 127
1, 152800, Note_off_c, 1, 75, 0
1, 152801, Note_on_c, 1, 76, 127
1, 152801, Note_on_c, 1, 43, 127
1, 152801, Note_on_c, 1, 49, 127
1, 153005, Note_on_c, 1, 70, 127
1, 153162, Note_off_c, 1, 76, 0
1, 153208, Note_off_c, 1, 43, 0
1, 153208, Note_off_c, 1, 49, 0
1, 153208, Note_off_c, 1, 70, 0
1, 153209, Note_on_c, 1, 68, 127
1, 153209, Note_on_c, 1, 48, 127
1, 153209, Note_on_c, 1, 44, 127
1, 153412, Note_off_c, 1, 68, 0
1, 153413, Note_on_c, 1, 72, 127
1, 153613, Note_off_c, 1, 48, 0
1, 153613, Note_off_c, 1, 44, 0
1, 153616, Note_off_c, 1, 72, 0
1, 153617, Note_on_c, 1, 77, 127
1, 153820, Note_off_c, 1, 77, 0
1, 153821, Note_on_c, 1, 77, 127
1, 154024, Note_off_c, 1, 77, 0
1, 154025, Note_on_c, 1, 80, 127
1, 154025, Note_on_c, 1, 49, 127
1, 154025, Note_on_c, 1, 53, 127
1, 154228, Note_off_c, 1, 80, 0
1, 154229, Note_on_c, 1, 71, 127
1, 154432, Note_off_c, 1, 49, 0
1, 154432, Note_off_c, 1, 53, 0
1, 154432, Note_off_c, 1, 71, 0
1, 154433, Note_on_c, 1, 72, 127
1, 154433, Note_on_c, 1, 52, 127
1, 154433, Note_on_c, 1, 48, 127
1, 154636, Note_off_c, 1, 72, 0
1, 154637, Note_on_c, 1, 67, 127
1, 154837, Note_off_c, 1, 52, 0
1, 154837, Note_off_c, 1, 48, 0
1, 154840, Note_off_c, 1, 67, 0
1, 154841, Note_on_c, 1, 70, 127
1, 155044, Note_off_c, 1, 70, 0
1, 155045, Note_on_c, 1, 70, 127
1, 155248, Note_off_c, 1, 70, 0
1, 155249, Note_on_c, 1, 73, 127
1, 155249, Note_on_c, 1, 36, 127
1, 155452, Note_off_c, 1, 73, 0
1, 155453, Note_on_c, 1, 64, 127
1, 155453, Note_on_c, 1, 58, 127
1, 155653, Note_off_c, 1, 36, 0
1, 155656, Note_off_c, 1, 64, 0
1, 155656, Note_off_c, 1, 58, 0
1, 155657, Note_on_c, 1, 41, 127
1, 155657, Note_on_c, 1, 65, 127
1, 155657, Note_on_c, 1, 56, 127
1, 155860, Note_off_c, 1, 41, 0
1, 155861, Note_on_c, 1, 53, 127
1, 156061, Note_off_c, 1, 65, 0
1, 156061, Note_off_c, 1, 56, 0
1, 156064, Note_off_c, 1, 53, 0
1, 156065, Note_on_c, 1, 56, 127
1, 156268, Note_off_c, 1, 56, 0
1, 156269, Note_on_c, 1, 56, 127
1, 156472, Note_off_c, 1, 56, 0
1, 156473, Note_on_c, 1, 61, 127
1, 156473, Note_on_c, 1, 70, 127
1, 156473, Note_on_c, 1, 73, 127
1, 156676, Note_off_c, 1, 61, 0
1, 156677, Note_on_c, 1, 53, 127
1, 156880, Note_off_c, 1, 70, 0
1, 156880, Note_off_c, 1, 53, 0
1, 156881, Note_on_c, 1, 51, 127
1, 156881, Note_on_c, 1, 67, 127
1, 157084, Note_off_c, 1, 51, 0
1, 157085, Note_on_c, 1, 55, 127
1, 157288, Note_off_c, 1, 55, 0
1, 157289, Note_on_c, 1, 59, 127
1, 157492, Note_off_c, 1, 59, 0
1, 157603, Note_off_c, 1, 67, 0
1, 157694, Note_off_c, 1, 73, 0
1, 157696, Note_on_c, 1, 60, 127
1, 157696, Note_on_c, 1, 68, 127
1, 157696, Note_on_c, 1, 72, 127
1, 157899, Note_off_c, 1, 60, 0
1, 157900, Note_on_c, 1, 51, 127
1, 158103, Note_off_c, 1, 68, 0
1, 158103, Note_off_c, 1, 51, 0
1, 158104, Note_on_c, 1, 49, 127
1, 158104, Note_on_c, 1, 65, 127
1, 158307, Note_off_c, 1, 49, 0
1, 158308, Note_on_c, 1, 53, 127
1, 158511, Note_off_c, 1, 53, 0
1, 158512, Note_on_c, 1, 57, 127
1, 158715, Note_off_c, 1, 57, 0
1, 158826, Note_off_c, 1, 65, 0
1, 158917, Note_off_c, 1, 72, 0
1, 158919, Note_on_c, 1, 58, 127
1, 158919, Note_on_c, 1, 67, 127
1, 158919, Note_on_c, 1, 70, 127
1, 159122, Note_off_c, 1, 58, 0
1, 159123, Note_on_c, 1, 49, 127
1, 159326, Note_off_c, 1, 67, 0
1, 159326, Note_off_c, 1, 49, 0
1, 159327, Note_on_c, 1, 48, 127
1, 159327, Note_on_c, 1, 64, 127
1, 159530, Note_off_c, 1, 48, 0
1, 159531, Note_on_c, 1, 52, 127
1, 159734, Note_off_c, 1, 52, 0
1, 159735, Note_on_c, 1, 55, 127
1, 159938, Note_off_c, 1, 55, 0
1, 160141, Note_off_c, 1, 70, 0
1, 160549, Note_off_c, 1, 64, 0
1, 160551, Note_on_c, 1, 65, 127
1, 160551, Note_on_c, 1, 68, 127
1, 160551, Note_on_c, 1, 41, 127
1, 160757, Note_off_c, 1, 65, 0
1, 160757, Note_off_c, 1, 68, 0
1, 160758, Note_on_c, 1, 77, 127
1, 160961, Note_off_c, 1, 41, 0
1, 160964, Note_off_c, 1, 77, 0
1, 160965, Note_on_c, 1, 76, 127
1, 161171, Note_off_c, 1, 76, 0
1, 161172, Note_on_c, 1, 75, 127
1, 161378, Note_off_c, 1, 75, 0
1, 161379, Note_on_c, 1, 74, 127
1, 161379, Note_on_c, 1, 56, 127
1, 161379, Note_on_c, 1, 53, 127
1, 161585, Note_off_c, 1, 74, 0
1, 161586, Note_on_c, 1, 73, 127
1, 161792, Note_off_c, 1, 56, 0
1, 161792, Note_off_c, 1, 53, 0
1, 161793, Note_on_c, 1, 55, 127
1, 161793, Note_on_c, 1, 52, 127
1, 161888, Note_off_c, 1, 73, 0
1, 162000, Note_on_c, 1, 76, 127
1, 162203, Note_off_c, 1, 55, 0
1, 162203, Note_off_c, 1, 52, 0
1, 162206, Note_off_c, 1, 76, 0
1, 162207, Note_on_c, 1, 75, 127
1, 162413, Note_off_c, 1, 75, 0
1, 162414, Note_on_c, 1, 74, 127
1, 162620, Note_off_c, 1, 74, 0
1, 162621, Note_on_c, 1, 73, 127
1, 162621, Note_on_c, 1, 51, 127
1, 162621, Note_on_c, 1, 54, 127
1, 162827, Note_off_c, 1, 73, 0
1, 162828, Note_on_c, 1, 72, 127
1, 163034, Note_off_c, 1, 51, 0
1, 163034, Note_off_c, 1, 54, 0
1, 163035, Note_on_c, 1, 50, 127
1, 163035, Note_on_c, 1, 53, 127
1, 163130, Note_off_c, 1, 72, 0
1, 163242, Note_on_c, 1, 75, 127
1, 163445, Note_off_c, 1, 50, 0
1, 163445, Note_off_c, 1, 53, 0
1, 163448, Note_off_c, 1, 75, 0
1, 163449, Note_on_c, 1, 74, 127
1, 163655, Note_off_c, 1, 74, 0
1, 163656, Note_on_c, 1, 73, 127
1, 163862, Note_off_c, 1, 73, 0
1, 163863, Note_on_c, 1, 72, 127
1, 163863, Note_on_c, 1, 53, 127
1, 163863, Note_on_c, 1, 49, 127
1, 164069, Note_off_c, 1, 72, 0
1, 164070, Note_on_c, 1, 71, 127
1, 164276, Note_off_c, 1, 53, 0
1, 164276, Note_off_c, 1, 49, 0
1, 164277, Note_on_c, 1, 48, 127
1, 164277, Note_on_c, 1, 52, 127
1, 164372, Note_off_c, 1, 71, 0
1, 164687, Note_off_c, 1, 48, 0
1, 164687, Note_off_c, 1, 52, 0
1, 164691, Note_on_c, 1, 73, 127
1, 164897, Note_off_c, 1, 73, 0
1, 164898, Note_on_c, 1, 72, 127
1, 165104, Note_off_c, 1, 72, 0
1, 165105, Note_on_c, 1, 71, 127
1, 165105, Note_on_c, 1, 52, 127
1, 165105, Note_on_c, 1, 48, 127
1, 165311, Note_off_c, 1, 71, 0
1, 165312, Note_on_c, 1, 70, 127
1, 165518, Note_off_c, 1, 52, 0
1, 165518, Note_off_c, 1, 48, 0
1, 165518, Note_off_c, 1, 70, 0
1, 165519, Note_on_c, 1, 69, 127
1, 165519, Note_on_c, 1, 53, 127
1, 165519, Note_on_c, 1, 41, 127
1, 165725, Note_off_c, 1, 69, 0
1, 165726, Note_on_c, 1, 68, 127
1, 165929, Note_off_c, 1, 53, 0
1, 165929, Note_off_c, 1, 41, 0
1, 165932, Note_off_c, 1, 68, 0
1, 165933, Note_on_c, 1, 67, 127
1, 166139, Note_off_c, 1, 67, 0
1, 166140, Note_on_c, 1, 66, 127
1, 166346, Note_off_c, 1, 66, 0
1, 166347, Note_on_c, 1, 65, 127
1, 166553, Note_off_c, 1, 65, 0
1, 166554, Note_on_c, 1, 73, 127
1, 166554, Note_on_c, 1, 65, 127
1, 166760, Note_off_c, 1, 73, 0
1, 166760, Note_off_c, 1, 65, 0
1, 166761, Note_on_c, 1, 73, 127
1, 166761, Note_on_c, 1, 64, 127
1, 166967, Note_off_c, 1, 73, 0
1, 166967, Note_off_c, 1, 64, 0
1, 166968, Note_on_c, 1, 63, 127
1, 166968, Note_on_c, 1, 67, 127
1, 167174, Note_off_c, 1, 63, 0
1, 167175, Note_on_c, 1, 62, 127
1, 167378, Note_off_c, 1, 67, 0
1, 167381, Note_off_c, 1, 62, 0
1, 167382, Note_on_c, 1, 61, 127
1, 167588, Note_off_c, 1, 61, 0
1, 167589, Note_on_c, 1, 60, 127
1, 167797, Note_on_c, 1, 72, 127
1, 168000, Note_off_c, 1, 60, 0
1, 168003, Note_off_c, 1, 72, 0
1, 168004, Note_on_c, 1, 72, 127
1, 168210, Note_off_c, 1, 72, 0
1, 168211, Note_on_c, 1, 61, 127
1, 168211, Note_on_c, 1, 65, 127
1, 168417, Note_off_c, 1, 61, 0
1, 168418, Note_on_c, 1, 60, 127
1, 168621, Note_off_c, 1, 65, 0
1, 168624, Note_off_c, 1, 60, 0
1, 168625, Note_on_c, 1, 59, 127
1, 168831, Note_off_c, 1, 59, 0
1, 168832, Note_on_c, 1, 58, 127
1, 169040, Note_on_c, 1, 70, 127
1, 169243, Note_off_c, 1, 58, 0
1, 169246, Note_off_c, 1, 70, 0
1, 169247, Note_on_c, 1, 70, 127
1, 169453, Note_off_c, 1, 70, 0
1, 169454, Note_on_c, 1, 60, 127
1, 169454, Note_on_c, 1, 64, 127
1, 169660, Note_off_c, 1, 60, 0
1, 169661, Note_on_c, 1, 59, 127
1, 169867, Note_off_c, 1, 59, 0
1, 169868, Note_on_c, 1, 58, 127
1, 170074, Note_off_c, 1, 64, 0
1, 170074, Note_off_c, 1, 58, 0
1, 170075, Note_on_c, 1, 56, 127
1, 170281, Note_off_c, 1, 56, 0
1, 170282, Note_on_c, 1, 70, 127
1, 170282, Note_on_c, 1, 55, 127
1, 170488, Note_off_c, 1, 70, 0
1, 170488, Note_off_c, 1, 55, 0
1, 170489, Note_on_c, 1, 70, 127
1, 170489, Note_on_c, 1, 53, 127
1, 170699, Note_off_c, 1, 70, 0
1, 170700, Note_on_c, 1, 68, 127
1, 170910, Note_off_c, 1, 68, 0
1, 170911, Note_on_c, 1, 73, 127
1, 171017, Note_off_c, 1, 53, 0
1, 171122, Note_off_c, 1, 73, 0
1, 171123, Note_on_c, 1, 68, 127
1, 171123, Note_on_c, 1, 73, 127
1, 171123, Note_on_c, 1, 53, 127
1, 171333, Note_off_c, 1, 68, 0
1, 171333, Note_off_c, 1, 73, 0
1, 171333, Note_off_c, 1, 53, 0
1, 171334, Note_on_c, 1, 73, 127
1, 171334, Note_on_c, 1, 68, 127
1, 171334, Note_on_c, 1, 53, 127
1, 171544, Note_off_c, 1, 73, 0
1, 171544, Note_off_c, 1, 68, 0
1, 171544, Note_off_c, 1, 53, 0
1, 171545, Note_on_c, 1, 67, 127
1, 171545, Note_on_c, 1, 72, 127
1, 171545, Note_on_c, 1, 51, 127
1, 171755, Note_off_c, 1, 67, 0
1, 171755, Note_off_c, 1, 72, 0
1, 171755, Note_off_c, 1, 51, 0
1, 171756, Note_on_c, 1, 65, 127
1, 171756, Note_on_c, 1, 77, 127
1, 171756, Note_on_c, 1, 49, 127
1, 171966, Note_off_c, 1, 65, 0
1, 171966, Note_off_c, 1, 77, 0
1, 171966, Note_off_c, 1, 49, 0
1, 171967, Note_on_c, 1, 77, 127
1, 171967, Note_on_c, 1, 70, 127
1, 171967, Note_on_c, 1, 61, 127
1, 172177, Note_off_c, 1, 77, 0
1, 172177, Note_off_c, 1, 70, 0
1, 172177, Note_off_c, 1, 61, 0
1, 172178, Note_on_c, 1, 77, 127
1, 172178, Note_on_c, 1, 70, 127
1, 172178, Note_on_c, 1, 61, 127
1, 172388, Note_off_c, 1, 77, 0
1, 172388, Note_off_c, 1, 70, 0
1, 172388, Note_off_c, 1, 61, 0
1, 172389, Note_on_c, 1, 72, 127
1, 172389, Note_on_c, 1, 76, 127
1, 172389, Note_on_c, 1, 60, 127
1, 172599, Note_off_c, 1, 72, 0
1, 172599, Note_off_c, 1, 76, 0
1, 172600, Note_on_c, 1, 80, 127
1, 172697, Note_off_c, 1, 60, 0
1, 172810, Note_off_c, 1, 80, 0
1, 172811, Note_on_c, 1, 80, 127
1, 172811, Note_on_c, 1, 77, 127
1, 172811, Note_on_c, 1, 60, 127
1, 173021, Note_off_c, 1, 80, 0
1, 173021, Note_off_c, 1, 77, 0
1, 173021, Note_off_c, 1, 60, 0
1, 173022, Note_on_c, 1, 77, 127
1, 173022, Note_on_c, 1, 80, 127
1, 173022, Note_on_c, 1, 60, 127
1, 173232, Note_off_c, 1, 77, 0
1, 173232, Note_off_c, 1, 80, 0
1, 173232, Note_off_c, 1, 60, 0
1, 173233, Note_on_c, 1, 76, 127
1, 173233, Note_on_c, 1, 79, 127
1, 173233, Note_on_c, 1, 58, 127
1, 173443, Note_off_c, 1, 76, 0
1, 173443, Note_off_c, 1, 79, 0
1, 173444, Note_on_c, 1, 82, 127
1, 173541, Note_off_c, 1, 58, 0
1, 173654, Note_off_c, 1, 82, 0
1, 173655, Note_on_c, 1, 76, 127
1, 173655, Note_on_c, 1, 82, 127
1, 173655, Note_on_c, 1, 55, 127
1, 173865, Note_off_c, 1, 76, 0
1, 173865, Note_off_c, 1, 82, 0
1, 173865, Note_off_c, 1, 55, 0
1, 173866, Note_on_c, 1, 76, 127
1, 173866, Note_on_c, 1, 82, 127
1, 173866, Note_on_c, 1, 55, 127
1, 174076, Note_off_c, 1, 76, 0
1, 174076, Note_off_c, 1, 82, 0
1, 174076, Note_off_c, 1, 55, 0
1, 174077, Note_on_c, 1, 80, 127
1, 174077, Note_on_c, 1, 77, 127
1, 174077, Note_on_c, 1, 53, 127
1, 174287, Note_off_c, 1, 80, 0
1, 174287, Note_off_c, 1, 77, 0
1, 174288, Note_on_c, 1, 84, 127
1, 174385, Note_off_c, 1, 53, 0
1, 174498, Note_off_c, 1, 84, 0
1, 174499, Note_on_c, 1, 79, 127
1, 174499, Note_on_c, 1, 82, 127
1, 174499, Note_on_c, 1, 56, 127
1, 174709, Note_off_c, 1, 79, 0
1, 174709, Note_off_c, 1, 82, 0
1, 174709, Note_off_c, 1, 56, 0
1, 174710, Note_on_c, 1, 82, 127
1, 174710, Note_on_c, 1, 79, 127
1, 174710, Note_on_c, 1, 58, 127
1, 174920, Note_off_c, 1, 82, 0
1, 174920, Note_off_c, 1, 79, 0
1, 174920, Note_off_c, 1, 58, 0
1, 174921, Note_on_c, 1, 80, 127
1, 174921, Note_on_c, 1, 77, 127
1, 174921, Note_on_c, 1, 59, 127
1, 175131, Note_off_c, 1, 80, 0
1, 175131, Note_off_c, 1, 77, 0
1, 175131, Note_off_c, 1, 59, 0
1, 175132, Note_on_c, 1, 77, 127
1, 175132, Note_on_c, 1, 80, 127
1, 175132, Note_on_c, 1, 60, 127
1, 175342, Note_off_c, 1, 77, 0
1, 175342, Note_off_c, 1, 80, 0
1, 175342, Note_off_c, 1, 60, 0
1, 175343, Note_on_c, 1, 70, 127
1, 175343, Note_on_c, 1, 79, 127
1, 175343, Note_on_c, 1, 48, 127
1, 175553, Note_off_c, 1, 70, 0
1, 175553, Note_off_c, 1, 79, 0
1, 175553, Note_off_c, 1, 48, 0
1, 175554, Note_on_c, 1, 79, 127
1, 175554, Note_on_c, 1, 70, 127
1, 175554, Note_on_c, 1, 53, 127
1, 175764, Note_off_c, 1, 79, 0
1, 175764, Note_off_c, 1, 70, 0
1, 175765, Note_on_c, 1, 77, 127
1, 175765, Note_on_c, 1, 68, 127
1, 175975, Note_off_c, 1, 53, 0
1, 175975, Note_off_c, 1, 77, 0
1, 175975, Note_off_c, 1, 68, 0
1, 175976, Note_on_c, 1, 77, 127
1, 175976, Note_on_c, 1, 41, 127
1, 175976, Note_on_c, 1, 68, 127
1, 176186, Note_off_c, 1, 77, 0
1, 176187, Note_on_c, 1, 75, 127
1, 176397, Note_off_c, 1, 41, 0
1, 176397, Note_off_c, 1, 75, 0
1, 176398, Note_on_c, 1, 53, 127
1, 176609, Note_on_c, 1, 73, 127
1, 176819, Note_off_c, 1, 68, 0
1, 176819, Note_off_c, 1, 53, 0
1, 176819, Note_off_c, 1, 73, 0
1, 176820, Note_on_c, 1, 73, 127
1, 176820, Note_on_c, 1, 52, 127
1, 176820, Note_on_c, 1, 67, 127
1, 177030, Note_off_c, 1, 73, 0
1, 177031, Note_on_c, 1, 72, 127
1, 177241, Note_off_c, 1, 52, 0
1, 177242, Note_on_c, 1, 40, 127
1, 177339, Note_off_c, 1, 72, 0
1, 177453, Note_on_c, 1, 70, 127
1, 177663, Note_off_c, 1, 40, 0
1, 177663, Note_off_c, 1, 70, 0
1, 178084, Note_off_c, 1, 67, 0
1, 178086, Note_on_c, 1, 70, 127
1, 178086, Note_on_c, 1, 60, 127
1, 178086, Note_on_c, 1, 53, 127
1, 178296, Note_off_c, 1, 70, 0
1, 178297, Note_on_c, 1, 68, 127
1, 178504, Note_off_c, 1, 60, 0
1, 178507, Note_off_c, 1, 53, 0
1, 178507, Note_off_c, 1, 68, 0
1, 178508, Note_on_c, 1, 68, 127
1, 178508, Note_on_c, 1, 58, 127
1, 178508, Note_on_c, 1, 49, 127
1, 178718, Note_off_c, 1, 68, 0
1, 178719, Note_on_c, 1, 66, 127
1, 178926, Note_off_c, 1, 58, 0
1, 178929, Note_off_c, 1, 49, 0
1, 178929, Note_off_c, 1, 66, 0
1, 178930, Note_on_c, 1, 66, 127
1, 178930, Note_on_c, 1, 61, 127
1, 178930, Note_on_c, 1, 46, 127
1, 179140, Note_off_c, 1, 66, 0
1, 179141, Note_on_c, 1, 65, 127
1, 179348, Note_off_c, 1, 61, 0
1, 179351, Note_off_c, 1, 46, 0
1, 179351, Note_off_c, 1, 65, 0
1, 179352, Note_on_c, 1, 65, 127
1, 179352, Note_on_c, 1, 60, 127
1, 179352, Note_on_c, 1, 48, 127
1, 179562, Note_off_c, 1, 65, 0
1, 179563, Note_on_c, 1, 64, 127
1, 179770, Note_off_c, 1, 60, 0
1, 179773, Note_off_c, 1, 48, 0
1, 179774, Note_on_c, 1, 36, 127
1, 179871, Note_off_c, 1, 64, 0
1, 179985, Note_on_c, 1, 70, 127
1, 180195, Note_off_c, 1, 36, 0
1, 180195, Note_off_c, 1, 70, 0
1, 180196, Note_on_c, 1, 64, 127
1, 180196, Note_on_c, 1, 68, 127
1, 180196, Note_on_c, 1, 48, 127
1, 180399, Note_on_c, 1, 60, 127
1, 180407, Note_off_c, 1, 64, 0
1, 180479, Note_on_c, 1, 67, 127
1, 180486, Note_off_c, 1, 68, 0
1, 180609, Note_off_c, 1, 60, 0
1, 180619, Note_off_c, 1, 48, 0
1, 180620, Note_on_c, 1, 56, 127
1, 180620, Note_on_c, 1, 53, 127
1, 180836, Note_off_c, 1, 67, 0
1, 180837, Note_on_c, 1, 65, 127
1, 181050, Note_off_c, 1, 56, 0
1, 181053, Note_off_c, 1, 53, 0
1, 181267, Note_off_c, 1, 65, 0
1, 181271, Note_on_c, 1, 57, 127
1, 181487, Note_off_c, 1, 57, 0
1, 181488, Note_on_c, 1, 58, 127
1, 181704, Note_off_c, 1, 58, 0
1, 181705, Note_on_c, 1, 59, 127
1, 181921, Note_off_c, 1, 59, 0
1, 181922, Note_on_c, 1, 60, 127
1, 182138, Note_off_c, 1, 60, 0
1, 182139, Note_on_c, 1, 53, 127
1, 182355, Note_off_c, 1, 53, 0
1, 182356, Note_on_c, 1, 52, 127
1, 182572, Note_off_c, 1, 52, 0
1, 182573, Note_on_c, 1, 51, 127
1, 182789, Note_off_c, 1, 51, 0
1, 182790, Note_on_c, 1, 50, 127
1, 183006, Note_off_c, 1, 50, 0
1, 183007, Note_on_c, 1, 49, 127
1, 183223, Note_off_c, 1, 49, 0
1, 183224, Note_on_c, 1, 48, 127
1, 183449, Note_off_c, 1, 48, 0
1, 183450, Note_on_c, 1, 60, 127
1, 183675, Note_off_c, 1, 60, 0
1, 183676, Note_on_c, 1, 61, 127
1, 183901, Note_off_c, 1, 61, 0
1, 183902, Note_on_c, 1, 50, 127
1, 184127, Note_off_c, 1, 50, 0
1, 184128, Note_on_c, 1, 51, 127
1, 184353, Note_off_c, 1, 51, 0
1, 184354, Note_on_c, 1, 64, 127
1, 184579, Note_off_c, 1, 64, 0
1, 184580, Note_on_c, 1, 65, 127
1, 184805, Note_off_c, 1, 65, 0
1, 184806, Note_on_c, 1, 46, 127
1, 185031, Note_off_c, 1, 46, 0
1, 185032, Note_on_c, 1, 48, 127
1, 185483, Note_off_c, 1, 48, 0
1, 185524, Note_on_c, 1, 64, 127
1, 185524, Note_on_c, 1, 55, 127
1, 185524, Note_on_c, 1, 36, 127
1, 185975, Note_off_c, 1, 64, 0
1, 185975, Note_off_c, 1, 55, 0
1, 185975, Note_off_c, 1, 36, 0
1, 186024, Note_on_c, 1, 41, 127
1, 186024, Note_on_c, 1, 56, 127
1, 186024, Note_on_c, 1, 65, 127
1, 187377, Note_off_c, 1, 41, 0
1, 187377, Note_off_c, 1, 56, 0
1, 187377, Note_off_c, 1, 65, 0
1, 189119, Note_on_c, 1, 70, 127
1, 189119, Note_on_c, 1, 68, 127
1, 189119, Note_on_c, 1, 65, 127
1, 189119, Note_on_c, 1, 62, 127
1, 189119, Note_on_c, 1, 58, 127
1, 189119, Note_on_c, 1, 56, 127
1, 189119, Note_on_c, 1, 53, 127
1, 189119, Note_on_c, 1, 50, 127
1, 189119, Note_on_c, 1, 74, 127
1, 190178, Note_off_c, 1, 70, 0
1, 190178, Note_off_c, 1, 68, 0
1, 190178, Note_off_c, 1, 65, 0
1, 190178, Note_off_c, 1, 62, 0
1, 190178, Note_off_c, 1, 58, 0
1, 190178, Note_off_c, 1, 56, 0
1, 190178, Note_off_c, 1, 53, 0
1, 190178, Note_off_c, 1, 50, 0
1, 190473, Note_off_c, 1, 74, 0
1, 190474, Note_on_c, 1, 62, 127
1, 190474, Note_on_c, 1, 65, 127
1, 190474, Note_on_c, 1, 70, 127
1, 190474, Note_on_c, 1, 68, 127
1, 190474, Note_on_c, 1, 58, 127
1, 190474, Note_on_c, 1, 50, 127
1, 190474, Note_on_c, 1, 53, 127
1, 190474, Note_on_c, 1, 56, 127
1, 190925, Note_off_c, 1, 62, 0
1, 190925, Note_off_c, 1, 65, 0
1, 190925, Note_off_c, 1, 70, 0
1, 190925, Note_off_c, 1, 68, 0
1, 190925, Note_off_c, 1, 58, 0
1, 190925, Note_off_c, 1, 50, 0
1, 190925, Note_off_c, 1, 53, 0
1, 190925, Note_off_c, 1, 56, 0
1, 190926, Note_on_c, 1, 70, 127
1, 190926, Note_on_c, 1, 67, 127
1, 190926, Note_on_c, 1, 63, 127
1, 190926, Note_on_c, 1, 58, 127
1, 190926, Note_on_c, 1, 51, 127
1, 190926, Note_on_c, 1, 55, 127
1, 191032, Note_off_c, 1, 70, 0
1, 191985, Note_off_c, 1, 67, 0
1, 191985, Note_off_c, 1, 63, 0
1, 191985, Note_off_c, 1, 58, 0
1, 191985, Note_off_c, 1, 51, 0
1, 191985, Note_off_c, 1, 55, 0
1, 192281, Note_on_c, 1, 70, 127
1, 192281, Note_on_c, 1, 63, 127
1, 192281, Note_on_c, 1, 67, 127
1, 192281, Note_on_c, 1, 58, 127
1, 192281, Note_on_c, 1, 55, 127
1, 192281, Note_on_c, 1, 51, 127
1, 192732, Note_off_c, 1, 70, 0
1, 192732, Note_off_c, 1, 63, 0
1, 192732, Note_off_c, 1, 67, 0
1, 192732, Note_off_c, 1, 58, 0
1, 192732, Note_off_c, 1, 55, 0
1, 192732, Note_off_c, 1, 51, 0
1, 192733, Note_on_c, 1, 70, 127
1, 192733, Note_on_c, 1, 67, 127
1, 192733, Note_on_c, 1, 63, 127
1, 192733, Note_on_c, 1, 73, 127
1, 192733, Note_on_c, 1, 43, 127
1, 192733, Note_on_c, 1, 46, 127
1, 192733, Note_on_c, 1, 51, 127
1, 192839, Note_off_c, 1, 70, 0
1, 193792, Note_off_c, 1, 67, 0
1, 193792, Note_off_c, 1, 63, 0
1, 193792, Note_off_c, 1, 73, 0
1, 193792, Note_off_c, 1, 43, 0
1, 193792, Note_off_c, 1, 46, 0
1, 193792, Note_off_c, 1, 51, 0
1, 194088, Note_on_c, 1, 63, 127
1, 194088, Note_on_c, 1, 67, 127
1, 194088, Note_on_c, 1, 70, 127
1, 194088, Note_on_c, 1, 73, 127
1, 194088, Note_on_c, 1, 43, 127
1, 194088, Note_on_c, 1, 51, 127
1, 194088, Note_on_c, 1, 46, 127
1, 194539, Note_off_c, 1, 63, 0
1, 194539, Note_off_c, 1, 67, 0
1, 194539, Note_off_c, 1, 70, 0
1, 194539, Note_off_c, 1, 73, 0
1, 194539, Note_off_c, 1, 43, 0
1, 194539, Note_off_c, 1, 51, 0
1, 194539, Note_off_c, 1, 46, 0
1, 194540, Note_on_c, 1, 68, 127
1, 194540, Note_on_c, 1, 72, 127
1, 194540, Note_on_c, 1, 63, 127
1, 194540, Note_on_c, 1, 56, 127
1, 194540, Note_on_c, 1, 51, 127
1, 194540, Note_on_c, 1, 44, 127
1, 194765, Note_off_c, 1, 68, 0
1, 194765, Note_off_c, 1, 72, 0
1, 194766, Note_on_c, 1, 67, 127
1, 194766, Note_on_c, 1, 70, 127
1, 194987, Note_off_c, 1, 63, 0
1, 194991, Note_off_c, 1, 67, 0
1, 194991, Note_off_c, 1, 70, 0
1, 194992, Note_on_c, 1, 65, 127
1, 195105, Note_off_c, 1, 56, 0
1, 195105, Note_off_c, 1, 51, 0
1, 195105, Note_off_c, 1, 44, 0
1, 195217, Note_off_c, 1, 65, 0
1, 195218, Note_on_c, 1, 67, 127
1, 195218, Note_on_c, 1, 63, 127
1, 195218, Note_on_c, 1, 56, 127
1, 195443, Note_off_c, 1, 67, 0
1, 195443, Note_off_c, 1, 63, 0
1, 195443, Note_off_c, 1, 56, 0
1, 195444, Note_on_c, 1, 62, 127
1, 195444, Note_on_c, 1, 58, 127
1, 195444, Note_on_c, 1, 65, 127
1, 195669, Note_off_c, 1, 62, 0
1, 195669, Note_off_c, 1, 58, 0
1, 195670, Note_on_c, 1, 60, 127
1, 195670, Note_on_c, 1, 56, 127
1, 195891, Note_off_c, 1, 65, 0
1, 195893, Note_off_c, 1, 60, 0
1, 195894, Note_off_c, 1, 56, 0
1, 195895, Note_on_c, 1, 58, 127
1, 195895, Note_on_c, 1, 55, 127
1, 196120, Note_off_c, 1, 58, 0
1, 196120, Note_off_c, 1, 55, 0
1, 196121, Note_on_c, 1, 65, 127
1, 196121, Note_on_c, 1, 62, 127
1, 196121, Note_on_c, 1, 53, 127
1, 196121, Note_on_c, 1, 56, 127
1, 196346, Note_off_c, 1, 65, 0
1, 196346, Note_off_c, 1, 62, 0
1, 196346, Note_off_c, 1, 53, 0
1, 196346, Note_off_c, 1, 56, 0
1, 196347, Note_on_c, 1, 75, 127
1, 196347, Note_on_c, 1, 67, 127
1, 196347, Note_on_c, 1, 63, 127
1, 196347, Note_on_c, 1, 51, 127
1, 196347, Note_on_c, 1, 58, 127
1, 196347, Note_on_c, 1, 55, 127
1, 196572, Note_off_c, 1, 75, 0
1, 196573, Note_on_c, 1, 73, 127
1, 196794, Note_off_c, 1, 67, 0
1, 196794, Note_off_c, 1, 63, 0
1, 196798, Note_off_c, 1, 51, 0
1, 196798, Note_off_c, 1, 58, 0
1, 196798, Note_off_c, 1, 55, 0
1, 196798, Note_off_c, 1, 73, 0
1, 196799, Note_on_c, 1, 72, 127
1, 196799, Note_on_c, 1, 56, 127
1, 197024, Note_off_c, 1, 72, 0
1, 197024, Note_off_c, 1, 56, 0
1, 197025, Note_on_c, 1, 70, 127
1, 197025, Note_on_c, 1, 63, 127
1, 197025, Note_on_c, 1, 55, 127
1, 197025, Note_on_c, 1, 51, 127
1, 197250, Note_off_c, 1, 70, 0
1, 197250, Note_off_c, 1, 63, 0
1, 197250, Note_off_c, 1, 55, 0
1, 197250, Note_off_c, 1, 51, 0
1, 197251, Note_on_c, 1, 68, 127
1, 197251, Note_on_c, 1, 63, 127
1, 197251, Note_on_c, 1, 72, 127
1, 197251, Note_on_c, 1, 56, 127
1, 197251, Note_on_c, 1, 44, 127
1, 197476, Note_off_c, 1, 68, 0
1, 197477, Note_on_c, 1, 67, 127
1, 197698, Note_off_c, 1, 63, 0
1, 197698, Note_off_c, 1, 72, 0
1, 197702, Note_off_c, 1, 67, 0
1, 197703, Note_on_c, 1, 65, 127
1, 197816, Note_off_c, 1, 56, 0
1, 197816, Note_off_c, 1, 44, 0
1, 197928, Note_off_c, 1, 65, 0
1, 197929, Note_on_c, 1, 65, 127
1, 197929, Note_on_c, 1, 72, 127
1, 197929, Note_on_c, 1, 63, 127
1, 197929, Note_on_c, 1, 53, 127
1, 197929, Note_on_c, 1, 45, 127
1, 198154, Note_off_c, 1, 65, 0
1, 198154, Note_off_c, 1, 72, 0
1, 198154, Note_off_c, 1, 63, 0
1, 198154, Note_off_c, 1, 53, 0
1, 198154, Note_off_c, 1, 45, 0
1, 198155, Note_on_c, 1, 74, 127
1, 198155, Note_on_c, 1, 62, 127
1, 198155, Note_on_c, 1, 65, 127
1, 198155, Note_on_c, 1, 46, 127
1, 198155, Note_on_c, 1, 53, 127
1, 198380, Note_off_c, 1, 74, 0
1, 198381, Note_on_c, 1, 72, 127
1, 198602, Note_off_c, 1, 62, 0
1, 198602, Note_off_c, 1, 65, 0
1, 198606, Note_off_c, 1, 46, 0
1, 198606, Note_off_c, 1, 53, 0
1, 198606, Note_off_c, 1, 72, 0
1, 198607, Note_on_c, 1, 70, 127
1, 198607, Note_on_c, 1, 55, 127
1, 198832, Note_off_c, 1, 70, 0
1, 198832, Note_off_c, 1, 55, 0
1, 198833, Note_on_c, 1, 69, 127
1, 198833, Note_on_c, 1, 62, 127
1, 198833, Note_on_c, 1, 42, 127
1, 198833, Note_on_c, 1, 57, 127
1, 198833, Note_on_c, 1, 50, 127
1, 199058, Note_off_c, 1, 69, 0
1, 199058, Note_off_c, 1, 62, 0
1, 199058, Note_off_c, 1, 42, 0
1, 199058, Note_off_c, 1, 57, 0
1, 199058, Note_off_c, 1, 50, 0
1, 199059, Note_on_c, 1, 43, 127
1, 199059, Note_on_c, 1, 55, 127
1, 199059, Note_on_c, 1, 50, 127
1, 199059, Note_on_c, 1, 67, 127
1, 199059, Note_on_c, 1, 70, 127
1, 199284, Note_off_c, 1, 43, 0
1, 199285, Note_on_c, 1, 45, 127
1, 199506, Note_off_c, 1, 55, 0
1, 199506, Note_off_c, 1, 50, 0
1, 199510, Note_off_c, 1, 67, 0
1, 199510, Note_off_c, 1, 70, 0
1, 199510, Note_off_c, 1, 45, 0
1, 199511, Note_on_c, 1, 69, 127
1, 199511, Note_on_c, 1, 46, 127
1, 199736, Note_off_c, 1, 69, 0
1, 199736, Note_off_c, 1, 46, 0
1, 199737, Note_on_c, 1, 67, 127
1, 199737, Note_on_c, 1, 63, 127
1, 199737, Note_on_c, 1, 60, 127
1, 199737, Note_on_c, 1, 48, 127
1, 199962, Note_off_c, 1, 67, 0
1, 199962, Note_off_c, 1, 63, 0
1, 199962, Note_off_c, 1, 60, 0
1, 199962, Note_off_c, 1, 48, 0
1, 199963, Note_on_c, 1, 62, 127
1, 199963, Note_on_c, 1, 66, 127
1, 199963, Note_on_c, 1, 50, 127
1, 199963, Note_on_c, 1, 57, 127
1, 200188, Note_off_c, 1, 62, 0
1, 200189, Note_on_c, 1, 60, 127
1, 200410, Note_off_c, 1, 66, 0
1, 200414, Note_off_c, 1, 50, 0
1, 200414, Note_off_c, 1, 57, 0
1, 200414, Note_off_c, 1, 60, 0
1, 200415, Note_on_c, 1, 74, 127
1, 200415, Note_on_c, 1, 58, 127
1, 200640, Note_off_c, 1, 74, 0
1, 200640, Note_off_c, 1, 58, 0
1, 200641, Note_on_c, 1, 66, 127
1, 200641, Note_on_c, 1, 72, 127
1, 200641, Note_on_c, 1, 57, 127
1, 200641, Note_on_c, 1, 50, 127
1, 200866, Note_off_c, 1, 66, 0
1, 200866, Note_off_c, 1, 72, 0
1, 200866, Note_off_c, 1, 57, 0
1, 200866, Note_off_c, 1, 50, 0
1, 200867, Note_on_c, 1, 79, 127
1, 200867, Note_on_c, 1, 70, 127
1, 200867, Note_on_c, 1, 55, 127
1, 200867, Note_on_c, 1, 43, 127
1, 201092, Note_off_c, 1, 79, 0
1, 201092, Note_off_c, 1, 70, 0
1, 201093, Note_on_c, 1, 69, 127
1, 201093, Note_on_c, 1, 77, 127
1, 201318, Note_off_c, 1, 69, 0
1, 201318, Note_off_c, 1, 77, 0
1, 201319, Note_on_c, 1, 67, 127
1, 201319, Note_on_c, 1, 76, 127
1, 201432, Note_off_c, 1, 55, 0
1, 201432, Note_off_c, 1, 43, 0
1, 201544, Note_off_c, 1, 67, 0
1, 201544, Note_off_c, 1, 76, 0
1, 201545, Note_on_c, 1, 65, 127
1, 201545, Note_on_c, 1, 74, 127
1, 201545, Note_on_c, 1, 52, 127
1, 201545, Note_on_c, 1, 55, 127
1, 201770, Note_off_c, 1, 65, 0
1, 201770, Note_off_c, 1, 74, 0
1, 201770, Note_off_c, 1, 52, 0
1, 201770, Note_off_c, 1, 55, 0
1, 201771, Note_on_c, 1, 57, 127
1, 201771, Note_on_c, 1, 45, 127
1, 201771, Note_on_c, 1, 64, 127
1, 201771, Note_on_c, 1, 73, 127
1, 201996, Note_off_c, 1, 57, 0
1, 201997, Note_on_c, 1, 55, 127
1, 202218, Note_off_c, 1, 45, 0
1, 202222, Note_off_c, 1, 64, 0
1, 202222, Note_off_c, 1, 73, 0
1, 202222, Note_off_c, 1, 55, 0
1, 202223, Note_on_c, 1, 59, 127
1, 202223, Note_on_c, 1, 65, 127
1, 202223, Note_on_c, 1, 74, 127
1, 202223, Note_on_c, 1, 53, 127
1, 202448, Note_off_c, 1, 59, 0
1, 202448, Note_off_c, 1, 65, 0
1, 202448, Note_off_c, 1, 74, 0
1, 202448, Note_off_c, 1, 53, 0
1, 202449, Note_on_c, 1, 67, 127
1, 202449, Note_on_c, 1, 61, 127
1, 202449, Note_on_c, 1, 76, 127
1, 202449, Note_on_c, 1, 52, 127
1, 202674, Note_off_c, 1, 67, 0
1, 202674, Note_off_c, 1, 61, 0
1, 202674, Note_off_c, 1, 76, 0
1, 202674, Note_off_c, 1, 52, 0
1, 202675, Note_on_c, 1, 62, 127
1, 202675, Note_on_c, 1, 50, 127
1, 202675, Note_on_c, 1, 57, 127
1, 202675, Note_on_c, 1, 69, 127
1, 202675, Note_on_c, 1, 77, 127
1, 202675, Note_on_c, 1, 74, 127
1, 202899, Note_off_c, 1, 62, 0
1, 202900, Note_off_c, 1, 50, 0
1, 202901, Note_on_c, 1, 48, 127
1, 203122, Note_off_c, 1, 57, 0
1, 203126, Note_off_c, 1, 48, 0
1, 203127, Note_on_c, 1, 46, 127
1, 203240, Note_off_c, 1, 69, 0
1, 203240, Note_off_c, 1, 77, 0
1, 203240, Note_off_c, 1, 74, 0
1, 203352, Note_off_c, 1, 46, 0
1, 203353, Note_on_c, 1, 69, 127
1, 203353, Note_on_c, 1, 65, 127
1, 203353, Note_on_c, 1, 72, 127
1, 203353, Note_on_c, 1, 45, 127
1, 203353, Note_on_c, 1, 53, 127
1, 203578, Note_off_c, 1, 69, 0
1, 203578, Note_off_c, 1, 65, 0
1, 203578, Note_off_c, 1, 72, 0
1, 203578, Note_off_c, 1, 45, 0
1, 203578, Note_off_c, 1, 53, 0
1, 203579, Note_on_c, 1, 74, 127
1, 203579, Note_on_c, 1, 65, 127
1, 203579, Note_on_c, 1, 50, 127
1, 203579, Note_on_c, 1, 46, 127
1, 203579, Note_on_c, 1, 53, 127
1, 203805, Note_on_c, 1, 77, 127
1, 204026, Note_off_c, 1, 74, 0
1, 204026, Note_off_c, 1, 65, 0
1, 204030, Note_off_c, 1, 50, 0
1, 204030, Note_off_c, 1, 46, 0
1, 204030, Note_off_c, 1, 53, 0
1, 204030, Note_off_c, 1, 77, 0
1, 204031, Note_on_c, 1, 72, 127
1, 204031, Note_on_c, 1, 65, 127
1, 204031, Note_on_c, 1, 53, 127
1, 204031, Note_on_c, 1, 45, 127
1, 204031, Note_on_c, 1, 48, 127
1, 204257, Note_on_c, 1, 77, 127
1, 204478, Note_off_c, 1, 72, 0
1, 204478, Note_off_c, 1, 65, 0
1, 204482, Note_off_c, 1, 53, 0
1, 204482, Note_off_c, 1, 45, 0
1, 204482, Note_off_c, 1, 48, 0
1, 204482, Note_off_c, 1, 77, 0
1, 204483, Note_on_c, 1, 67, 127
1, 204483, Note_on_c, 1, 70, 127
1, 204483, Note_on_c, 1, 52, 127
1, 204483, Note_on_c, 1, 43, 127
1, 204709, Note_on_c, 1, 77, 127
1, 204930, Note_off_c, 1, 67, 0
1, 204930, Note_off_c, 1, 70, 0
1, 204934, Note_off_c, 1, 52, 0
1, 204934, Note_off_c, 1, 43, 0
1, 204934, Note_off_c, 1, 77, 0
1, 204935, Note_on_c, 1, 72, 127
1, 204935, Note_on_c, 1, 69, 127
1, 204935, Note_on_c, 1, 48, 127
1, 204935, Note_on_c, 1, 53, 127
1, 204935, Note_on_c, 1, 41, 127
1, 205161, Note_on_c, 1, 77, 127
1, 205382, Note_off_c, 1, 72, 0
1, 205382, Note_off_c, 1, 69, 0
1, 205386, Note_off_c, 1, 48, 0
1, 205386, Note_off_c, 1, 53, 0
1, 205386, Note_off_c, 1, 41, 0
1, 205386, Note_off_c, 1, 77, 0
1, 205387, Note_on_c, 1, 74, 127
1, 205387, Note_on_c, 1, 70, 127
1, 205387, Note_on_c, 1, 67, 127
1, 205387, Note_on_c, 1, 46, 127
1, 205387, Note_on_c, 1, 50, 127
1, 205387, Note_on_c, 1, 55, 127
1, 205613, Note_on_c, 1, 77, 127
1, 205834, Note_off_c, 1, 74, 0
1, 205834, Note_off_c, 1, 70, 0
1, 205834, Note_off_c, 1, 67, 0
1, 205838, Note_off_c, 1, 46, 0
1, 205838, Note_off_c, 1, 50, 0
1, 205838, Note_off_c, 1, 55, 0
1, 205838, Note_off_c, 1, 77, 0
1, 205839, Note_on_c, 1, 72, 127
1, 205839, Note_on_c, 1, 70, 127
1, 205839, Note_on_c, 1, 67, 127
1, 205839, Note_on_c, 1, 52, 127
1, 205839, Note_on_c, 1, 55, 127
1, 205839, Note_on_c, 1, 48, 127
1, 205839, Note_on_c, 1, 58, 127
1, 206065, Note_on_c, 1, 76, 127
1, 206286, Note_off_c, 1, 72, 0
1, 206286, Note_off_c, 1, 70, 0
1, 206286, Note_off_c, 1, 67, 0
1, 206290, Note_off_c, 1, 52, 0
1, 206290, Note_off_c, 1, 55, 0
1, 206290, Note_off_c, 1, 48, 0
1, 206290, Note_off_c, 1, 58, 0
1, 206290, Note_off_c, 1, 76, 0
1, 206291, Note_on_c, 1, 60, 127
1, 206291, Note_on_c, 1, 53, 127
1, 206291, Note_on_c, 1, 72, 127
1, 206291, Note_on_c, 1, 69, 127
1, 206291, Note_on_c, 1, 77, 127
1, 206516, Note_off_c, 1, 60, 0
1, 206517, Note_on_c, 1, 58, 127
1, 206738, Note_off_c, 1, 53, 0
1, 206742, Note_off_c, 1, 72, 0
1, 206742, Note_off_c, 1, 69, 0
1, 206742, Note_off_c, 1, 77, 0
1, 206742, Note_off_c, 1, 58, 0
1, 206743, Note_on_c, 1, 72, 127
1, 206743, Note_on_c, 1, 57, 127
1, 206968, Note_off_c, 1, 72, 0
1, 206968, Note_off_c, 1, 57, 0
1, 206969, Note_on_c, 1, 70, 127
1, 206969, Note_on_c, 1, 64, 127
1, 206969, Note_on_c, 1, 55, 127
1, 206969, Note_on_c, 1, 48, 127
1, 207194, Note_off_c, 1, 70, 0
1, 207194, Note_off_c, 1, 64, 0
1, 207194, Note_off_c, 1, 55, 0
1, 207194, Note_off_c, 1, 48, 0
1, 207195, Note_on_c, 1, 65, 127
1, 207195, Note_on_c, 1, 69, 127
1, 207195, Note_on_c, 1, 60, 127
1, 207195, Note_on_c, 1, 53, 127
1, 207420, Note_off_c, 1, 65, 0
1, 207420, Note_off_c, 1, 69, 0
1, 207420, Note_off_c, 1, 60, 0
1, 207421, Note_on_c, 1, 67, 127
1, 207421, Note_on_c, 1, 58, 127
1, 207642, Note_off_c, 1, 53, 0
1, 207646, Note_off_c, 1, 67, 0
1, 207646, Note_off_c, 1, 58, 0
1, 207647, Note_on_c, 1, 65, 127
1, 207647, Note_on_c, 1, 57, 127
1, 207967, Note_off_c, 1, 65, 0
1, 207967, Note_off_c, 1, 57, 0
1, 207999, Note_on_c, 1, 48, 127
1, 207999, Note_on_c, 1, 55, 127
1, 207999, Note_on_c, 1, 64, 127
1, 207999, Note_on_c, 1, 60, 127
1, 208339, Note_off_c, 1, 48, 0
1, 208339, Note_off_c, 1, 55, 0
1, 208339, Note_off_c, 1, 64, 0
1, 208339, Note_off_c, 1, 60, 0
1, 208383, Note_on_c, 1, 48, 127
1, 208383, Note_on_c, 1, 57, 127
1, 208383, Note_on_c, 1, 53, 127
1, 208383, Note_on_c, 1, 41, 127
1, 208383, Note_on_c, 1, 60, 127
1, 208383, Note_on_c, 1, 65, 127
1, 211443, Note_off_c, 1, 48, 0
1, 211443, Note_off_c, 1, 57, 0
1, 211443, Note_off_c, 1, 53, 0
1, 211443, Note_off_c, 1, 41, 0
1, 211443, Note_off_c, 1, 60, 0
1, 211443, Note_off_c, 1, 65, 0
1, 212991, Note_on_c, 1, 70, 127
1, 212991, Note_on_c, 1, 46, 127
1, 213181, Note_off_c, 1, 70, 0
1, 213183, Note_on_c, 1, 72, 127
1, 213373, Note_off_c, 1, 72, 0
1, 213375, Note_on_c, 1, 74, 127
1, 213375, Note_on_c, 1, 53, 127
1, 213565, Note_off_c, 1, 74, 0
1, 213567, Note_on_c, 1, 75, 127
1, 213757, Note_off_c, 1, 53, 0
1, 213757, Note_off_c, 1, 75, 0
1, 213759, Note_on_c, 1, 77, 127
1, 213759, Note_on_c, 1, 58, 127
1, 214141, Note_off_c, 1, 46, 0
1, 214141, Note_off_c, 1, 77, 0
1, 214143, Note_on_c, 1, 51, 127
1, 214143, Note_on_c, 1, 79, 127
1, 214525, Note_off_c, 1, 51, 0
1, 214525, Note_off_c, 1, 79, 0
1, 214909, Note_off_c, 1, 58, 0
1, 214911, Note_on_c, 1, 57, 127
1, 215293, Note_off_c, 1, 57, 0
1, 215295, Note_on_c, 1, 75, 127
1, 215295, Note_on_c, 1, 46, 127
1, 215295, Note_on_c, 1, 58, 127
1, 215389, Note_off_c, 1, 75, 0
1, 215391, Note_on_c, 1, 74, 127
1, 215485, Note_off_c, 1, 74, 0
1, 215871, Note_on_c, 1, 72, 127
1, 216055, Note_off_c, 1, 46, 0
1, 216055, Note_off_c, 1, 58, 0
1, 216061, Note_off_c, 1, 72, 0
1, 216063, Note_on_c, 1, 70, 127
1, 216445, Note_off_c, 1, 70, 0
1, 216447, Note_on_c, 1, 82, 127
1, 216637, Note_off_c, 1, 82, 0
1, 216639, Note_on_c, 1, 70, 127
1, 216829, Note_off_c, 1, 70, 0
1, 216831, Note_on_c, 1, 70, 127
1, 217213, Note_off_c, 1, 70, 0
1, 217215, Note_on_c, 1, 82, 127
1, 217405, Note_off_c, 1, 82, 0
1, 217407, Note_on_c, 1, 70, 127
1, 217597, Note_off_c, 1, 70, 0
1, 217599, Note_on_c, 1, 70, 127
1, 217981, Note_off_c, 1, 70, 0
1, 217983, Note_on_c, 1, 82, 127
1, 218173, Note_off_c, 1, 82, 0
1, 218175, Note_on_c, 1, 70, 127
1, 218365, Note_off_c, 1, 70, 0
1, 218367, Note_on_c, 1, 70, 127
1, 218749, Note_off_c, 1, 70, 0
1, 218751, Note_on_c, 1, 82, 127
1, 218941, Note_off_c, 1, 82, 0
1, 218943, Note_on_c, 1, 70, 127
1, 219133, Note_off_c, 1, 70, 0
1, 219135, Note_on_c, 1, 72, 127
1, 219135, Note_on_c, 1, 45, 127
1, 219135, Note_on_c, 1, 53, 127
1, 219325, Note_off_c, 1, 72, 0
1, 219327, Note_on_c, 1, 70, 127
1, 219517, Note_off_c, 1, 45, 0
1, 219517, Note_off_c, 1, 70, 0
1, 219519, Note_on_c, 1, 69, 127
1, 219519, Note_on_c, 1, 48, 127
1, 219709, Note_off_c, 1, 69, 0
1, 219711, Note_on_c, 1, 67, 127
1, 219901, Note_off_c, 1, 48, 0
1, 219901, Note_off_c, 1, 67, 0
1, 219903, Note_on_c, 1, 50, 127
1, 219903, Note_on_c, 1, 65, 127
1, 220285, Note_off_c, 1, 53, 0
1, 220285, Note_off_c, 1, 50, 0
1, 220285, Note_off_c, 1, 65, 0
1, 220287, Note_on_c, 1, 46, 127
1, 220287, Note_on_c, 1, 70, 127
1, 220287, Note_on_c, 1, 53, 127
1, 220669, Note_off_c, 1, 46, 0
1, 220669, Note_off_c, 1, 70, 0
1, 220671, Note_on_c, 1, 69, 127
1, 220671, Note_on_c, 1, 48, 127
1, 221047, Note_off_c, 1, 53, 0
1, 221053, Note_off_c, 1, 69, 0
1, 221055, Note_on_c, 1, 67, 127
1, 221055, Note_on_c, 1, 52, 127
1, 221245, Note_off_c, 1, 67, 0
1, 221247, Note_on_c, 1, 65, 127
1, 221431, Note_off_c, 1, 48, 0
1, 221437, Note_off_c, 1, 52, 0
1, 221437, Note_off_c, 1, 65, 0
1, 221439, Note_on_c, 1, 65, 127
1, 221439, Note_on_c, 1, 41, 127
1, 221439, Note_on_c, 1, 53, 127
1, 221821, Note_off_c, 1, 65, 0
1, 221823, Note_on_c, 1, 77, 127
1, 222013, Note_off_c, 1, 77, 0
1, 222199, Note_off_c, 1, 41, 0
1, 222199, Note_off_c, 1, 53, 0
1, 222207, Note_on_c, 1, 65, 127
1, 222589, Note_off_c, 1, 65, 0
1, 222591, Note_on_c, 1, 77, 127
1, 222781, Note_off_c, 1, 77, 0
1, 222783, Note_on_c, 1, 65, 127
1, 222973, Note_off_c, 1, 65, 0
1, 222975, Note_on_c, 1, 65, 127
1, 223357, Note_off_c, 1, 65, 0
1, 223359, Note_on_c, 1, 77, 127
1, 223359, Note_on_c, 1, 48, 127
1, 223359, Note_on_c, 1, 45, 127
1, 223359, Note_on_c, 1, 53, 127
1, 223549, Note_off_c, 1, 77, 0
1, 223551, Note_on_c, 1, 75, 127
1, 223741, Note_off_c, 1, 48, 0
1, 223741, Note_off_c, 1, 45, 0
1, 223741, Note_off_c, 1, 53, 0
1, 223741, Note_off_c, 1, 75, 0
1, 223743, Note_on_c, 1, 74, 127
1, 223743, Note_on_c, 1, 46, 127
1, 223743, Note_on_c, 1, 53, 127
1, 223933, Note_off_c, 1, 74, 0
1, 223935, Note_on_c, 1, 72, 127
1, 224125, Note_off_c, 1, 46, 0
1, 224125, Note_off_c, 1, 53, 0
1, 224125, Note_off_c, 1, 72, 0
1, 224127, Note_on_c, 1, 70, 127
1, 224127, Note_on_c, 1, 51, 127
1, 224127, Note_on_c, 1, 55, 127
1, 224317, Note_off_c, 1, 70, 0
1, 224319, Note_on_c, 1, 72, 127
1, 224509, Note_off_c, 1, 51, 0
1, 224509, Note_off_c, 1, 55, 0
1, 224509, Note_off_c, 1, 72, 0
1, 224511, Note_on_c, 1, 70, 127
1, 224511, Note_on_c, 1, 53, 127
1, 224637, Note_off_c, 1, 70, 0
1, 224639, Note_on_c, 1, 69, 127
1, 224701, Note_off_c, 1, 69, 0
1, 225277, Note_off_c, 1, 53, 0
1, 225279, Note_on_c, 1, 70, 127
1, 225279, Note_on_c, 1, 46, 127
1, 225279, Note_on_c, 1, 50, 127
1, 225279, Note_on_c, 1, 53, 127
1, 225661, Note_off_c, 1, 70, 0
1, 225663, Note_on_c, 1, 82, 127
1, 225853, Note_off_c, 1, 82, 0
1, 226039, Note_off_c, 1, 46, 0
1, 226039, Note_off_c, 1, 50, 0
1, 226039, Note_off_c, 1, 53, 0
1, 226047, Note_on_c, 1, 70, 127
1, 226429, Note_off_c, 1, 70, 0
1, 226431, Note_on_c, 1, 82, 127
1, 226621, Note_off_c, 1, 82, 0
1, 226623, Note_on_c, 1, 70, 127
1, 226813, Note_off_c, 1, 70, 0
1, 226815, Note_on_c, 1, 70, 127
1, 227197, Note_off_c, 1, 70, 0
1, 227199, Note_on_c, 1, 82, 127
1, 227389, Note_off_c, 1, 82, 0
1, 227391, Note_on_c, 1, 70, 127
1, 227581, Note_off_c, 1, 70, 0
1, 227583, Note_on_c, 1, 70, 127
1, 227583, Note_on_c, 1, 46, 127
1, 227583, Note_on_c, 1, 58, 127
1, 227583, Note_on_c, 1, 53, 127
1, 227583, Note_on_c, 1, 50, 127
1, 227677, Note_off_c, 1, 70, 0
1, 227679, Note_on_c, 1, 69, 127
1, 227773, Note_off_c, 1, 69, 0
1, 228349, Note_off_c, 1, 46, 0
1, 228349, Note_off_c, 1, 58, 0
1, 228349, Note_off_c, 1, 53, 0
1, 228349, Note_off_c, 1, 50, 0
1, 228351, Note_on_c, 1, 55, 127
1, 228351, Note_on_c, 1, 74, 127
1, 228351, Note_on_c, 1, 70, 127
1, 228541, Note_off_c, 1, 55, 0
1, 228543, Note_on_c, 1, 57, 127
1, 228733, Note_off_c, 1, 74, 0
1, 228733, Note_off_c, 1, 57, 0
1, 228735, Note_on_c, 1, 58, 127
1, 228735, Note_on_c, 1, 79, 127
1, 228925, Note_off_c, 1, 58, 0
1, 228927, Note_on_c, 1, 60, 127
1, 229111, Note_off_c, 1, 70, 0
1, 229117, Note_off_c, 1, 79, 0
1, 229117, Note_off_c, 1, 60, 0
1, 229119, Note_on_c, 1, 62, 127
1, 229119, Note_on_c, 1, 78, 127
1, 229119, Note_on_c, 1, 69, 127
1, 229501, Note_off_c, 1, 62, 0
1, 229501, Note_off_c, 1, 78, 0
1, 229501, Note_off_c, 1, 69, 0
1, 229503, Note_on_c, 1, 63, 127
1, 229503, Note_on_c, 1, 79, 127
1, 229503, Note_on_c, 1, 67, 127
1, 229885, Note_off_c, 1, 63, 0
1, 229885, Note_off_c, 1, 79, 0
1, 229885, Note_off_c, 1, 67, 0
1, 229887, Note_on_c, 1, 62, 127
1, 229887, Note_on_c, 1, 81, 127
1, 229887, Note_on_c, 1, 66, 127
1, 230077, Note_off_c, 1, 62, 0
1, 230079, Note_on_c, 1, 63, 127
1, 230269, Note_off_c, 1, 81, 0
1, 230269, Note_off_c, 1, 66, 0
1, 230269, Note_off_c, 1, 63, 0
1, 230271, Note_on_c, 1, 62, 127
1, 230271, Note_on_c, 1, 74, 127
1, 230461, Note_off_c, 1, 62, 0
1, 230463, Note_on_c, 1, 60, 127
1, 230653, Note_off_c, 1, 74, 0
1, 230653, Note_off_c, 1, 60, 0
1, 230655, Note_on_c, 1, 60, 127
1, 230655, Note_on_c, 1, 79, 127
1, 230845, Note_off_c, 1, 60, 0
1, 230847, Note_on_c, 1, 58, 127
1, 230941, Note_off_c, 1, 58, 0
1, 231231, Note_on_c, 1, 57, 127
1, 231415, Note_off_c, 1, 79, 0
1, 231421, Note_off_c, 1, 57, 0
1, 231423, Note_on_c, 1, 55, 127
1, 231805, Note_off_c, 1, 55, 0
1, 231807, Note_on_c, 1, 67, 127
1, 231997, Note_off_c, 1, 67, 0
1, 231999, Note_on_c, 1, 55, 127
1, 232189, Note_off_c, 1, 55, 0
1, 232191, Note_on_c, 1, 55, 127
1, 232573, Note_off_c, 1, 55, 0
1, 232575, Note_on_c, 1, 67, 127
1, 232765, Note_off_c, 1, 67, 0
1, 232767, Note_on_c, 1, 55, 127
1, 232957, Note_off_c, 1, 55, 0
1, 232959, Note_on_c, 1, 55, 127
1, 233341, Note_off_c, 1, 55, 0
1, 233343, Note_on_c, 1, 67, 127
1, 233533, Note_off_c, 1, 67, 0
1, 233535, Note_on_c, 1, 55, 127
1, 233725, Note_off_c, 1, 55, 0
1, 233727, Note_on_c, 1, 55, 127
1, 234109, Note_off_c, 1, 55, 0
1, 234111, Note_on_c, 1, 67, 127
1, 234493, Note_off_c, 1, 67, 0
1, 234495, Note_on_c, 1, 57, 127
1, 234495, Note_on_c, 1, 73, 127
1, 234495, Note_on_c, 1, 69, 127
1, 234685, Note_off_c, 1, 57, 0
1, 234687, Note_on_c, 1, 55, 127
1, 234877, Note_off_c, 1, 73, 0
1, 234877, Note_off_c, 1, 55, 0
1, 234879, Note_on_c, 1, 53, 127
1, 234879, Note_on_c, 1, 74, 127
1, 235069, Note_off_c, 1, 53, 0
1, 235069, Note_off_c, 1, 74, 0
1, 235071, Note_on_c, 1, 52, 127
1, 235071, Note_on_c, 1, 76, 127
1, 235261, Note_off_c, 1, 52, 0
1, 235261, Note_off_c, 1, 76, 0
1, 235263, Note_on_c, 1, 50, 127
1, 235263, Note_on_c, 1, 77, 127
1, 235645, Note_off_c, 1, 69, 0
1, 235645, Note_off_c, 1, 50, 0
1, 235645, Note_off_c, 1, 77, 0
1, 235647, Note_on_c, 1, 55, 127
1, 235647, Note_on_c, 1, 70, 127
1, 235647, Note_on_c, 1, 76, 127
1, 236029, Note_off_c, 1, 55, 0
1, 236029, Note_off_c, 1, 70, 0
1, 236029, Note_off_c, 1, 76, 0
1, 236031, Note_on_c, 1, 53, 127
1, 236031, Note_on_c, 1, 74, 127
1, 236031, Note_on_c, 1, 69, 127
1, 236413, Note_off_c, 1, 53, 0
1, 236413, Note_off_c, 1, 74, 0
1, 236413, Note_off_c, 1, 69, 0
1, 236415, Note_on_c, 1, 52, 127
1, 236415, Note_on_c, 1, 67, 127
1, 236415, Note_on_c, 1, 73, 127
1, 236797, Note_off_c, 1, 52, 0
1, 236797, Note_off_c, 1, 67, 0
1, 236797, Note_off_c, 1, 73, 0
1, 236799, Note_on_c, 1, 50, 127
1, 236799, Note_on_c, 1, 66, 127
1, 236799, Note_on_c, 1, 74, 127
1, 237181, Note_off_c, 1, 50, 0
1, 237183, Note_on_c, 1, 62, 127
1, 237373, Note_off_c, 1, 62, 0
1, 237374, Note_off_c, 1, 66, 0
1, 237374, Note_off_c, 1, 74, 0
1, 237375, Note_on_c, 1, 50, 127
1, 237565, Note_off_c, 1, 50, 0
1, 237567, Note_on_c, 1, 50, 127
1, 237949, Note_off_c, 1, 50, 0
1, 237951, Note_on_c, 1, 62, 127
1, 238141, Note_off_c, 1, 62, 0
1, 238143, Note_on_c, 1, 50, 127
1, 238333, Note_off_c, 1, 50, 0
1, 238335, Note_on_c, 1, 50, 127
1, 238719, Note_on_c, 1, 77, 127
1, 238909, Note_off_c, 1, 77, 0
1, 238911, Note_on_c, 1, 65, 127
1, 239101, Note_off_c, 1, 65, 0
1, 239295, Note_off_c, 1, 50, 0
1, 239679, Note_on_c, 1, 38, 127
1, 239869, Note_off_c, 1, 38, 0
1, 241023, Note_on_c, 1, 58, 127
1, 241213, Note_off_c, 1, 58, 0
1, 241215, Note_on_c, 1, 46, 127
1, 241405, Note_off_c, 1, 46, 0
1, 241791, Note_on_c, 1, 82, 127
1, 241981, Note_off_c, 1, 82, 0
1, 241983, Note_on_c, 1, 70, 127
1, 242173, Note_off_c, 1, 70, 0
1, 243327, Note_on_c, 1, 58, 127
1, 243517, Note_off_c, 1, 58, 0
1, 243519, Note_on_c, 1, 46, 127
1, 243709, Note_off_c, 1, 46, 0
1, 243711, Note_on_c, 1, 46, 127
1, 244095, Note_on_c, 1, 82, 127
1, 244285, Note_off_c, 1, 82, 0
1, 244287, Note_on_c, 1, 70, 127
1, 244477, Note_off_c, 1, 70, 0
1, 244671, Note_on_c, 1, 72, 127
1, 244861, Note_off_c, 1, 46, 0
1, 244861, Note_off_c, 1, 72, 0
1, 244863, Note_on_c, 1, 74, 127
1, 244863, Note_on_c, 1, 48, 127
1, 244863, Note_on_c, 1, 57, 127
1, 245053, Note_off_c, 1, 74, 0
1, 245055, Note_on_c, 1, 75, 127
1, 245245, Note_off_c, 1, 48, 0
1, 245245, Note_off_c, 1, 57, 0
1, 245245, Note_off_c, 1, 75, 0
1, 245247, Note_on_c, 1, 58, 127
1, 245247, Note_on_c, 1, 50, 127
1, 245247, Note_on_c, 1, 77, 127
1, 245629, Note_off_c, 1, 58, 0
1, 245629, Note_off_c, 1, 50, 0
1, 245629, Note_off_c, 1, 77, 0
1, 245631, Note_on_c, 1, 70, 127
1, 245631, Note_on_c, 1, 55, 127
1, 245631, Note_on_c, 1, 51, 127
1, 245821, Note_off_c, 1, 70, 0
1, 245823, Note_on_c, 1, 72, 127
1, 246013, Note_off_c, 1, 55, 0
1, 246013, Note_off_c, 1, 51, 0
1, 246013, Note_off_c, 1, 72, 0
1, 246015, Note_on_c, 1, 70, 127
1, 246015, Note_on_c, 1, 53, 127
1, 246141, Note_off_c, 1, 70, 0
1, 246143, Note_on_c, 1, 69, 127
1, 246205, Note_off_c, 1, 69, 0
1, 246399, Note_on_c, 1, 41, 127
1, 246781, Note_off_c, 1, 41, 0
1, 246783, Note_on_c, 1, 46, 127
1, 247167, Note_on_c, 1, 82, 127
1, 247357, Note_off_c, 1, 82, 0
1, 247549, Note_off_c, 1, 53, 0
1, 247743, Note_off_c, 1, 46, 0
1, 247935, Note_on_c, 1, 58, 127
1, 248125, Note_off_c, 1, 58, 0
1, 252943, Note_on_c, 1, 58, 127
1, 253621, Note_off_c, 1, 58, 0
1, 253757, Note_on_c, 1, 58, 127
1, 253891, Note_off_c, 1, 58, 0
1, 253892, Note_on_c, 1, 58, 127
1, 254026, Note_off_c, 1, 58, 0
1, 254027, Note_on_c, 1, 65, 127
1, 254297, Note_off_c, 1, 65, 0
1, 254298, Note_on_c, 1, 65, 127
1, 254568, Note_off_c, 1, 65, 0
1, 254569, Note_on_c, 1, 65, 127
1, 254839, Note_off_c, 1, 65, 0
1, 254840, Note_on_c, 1, 65, 127
1, 255110, Note_off_c, 1, 65, 0
1, 255111, Note_on_c, 1, 62, 127
1, 255381, Note_off_c, 1, 62, 0
1, 255382, Note_on_c, 1, 58, 127
1, 255652, Note_off_c, 1, 58, 0
1, 255653, Note_on_c, 1, 58, 127
1, 255923, Note_off_c, 1, 58, 0
1, 255924, Note_on_c, 1, 58, 127
1, 256058, Note_off_c, 1, 58, 0
1, 256059, Note_on_c, 1, 58, 127
1, 256193, Note_off_c, 1, 58, 0
1, 256194, Note_on_c, 1, 67, 127
1, 256464, Note_off_c, 1, 67, 0
1, 256465, Note_on_c, 1, 67, 127
1, 256735, Note_off_c, 1, 67, 0
1, 256736, Note_on_c, 1, 67, 127
1, 257006, Note_off_c, 1, 67, 0
1, 257007, Note_on_c, 1, 67, 127
1, 257277, Note_off_c, 1, 67, 0
1, 257278, Note_on_c, 1, 60, 127
1, 257548, Note_off_c, 1, 60, 0
1, 257549, Note_on_c, 1, 57, 127
1, 257819, Note_off_c, 1, 57, 0
1, 257820, Note_on_c, 1, 57, 127
1, 258090, Note_off_c, 1, 57, 0
1, 258091, Note_on_c, 1, 65, 127
1, 258361, Note_off_c, 1, 65, 0
1, 258362, Note_on_c, 1, 58, 127
1, 258632, Note_off_c, 1, 58, 0
1, 258633, Note_on_c, 1, 55, 127
1, 258903, Note_off_c, 1, 55, 0
1, 258904, Note_on_c, 1, 55, 127
1, 259174, Note_off_c, 1, 55, 0
1, 259175, Note_on_c, 1, 64, 127
1, 259425, Note_off_c, 1, 64, 0
1, 259446, Note_on_c, 1, 65, 127
1, 259716, Note_off_c, 1, 65, 0
1, 259717, Note_on_c, 1, 67, 127
1, 259851, Note_off_c, 1, 67, 0
1, 259852, Note_on_c, 1, 69, 127
1, 259986, Note_off_c, 1, 69, 0
1, 259987, Note_on_c, 1, 64, 127
1, 260257, Note_off_c, 1, 64, 0
1, 260258, Note_on_c, 1, 65, 127
1, 260392, Note_off_c, 1, 65, 0
1, 260393, Note_on_c, 1, 67, 127
1, 260527, Note_off_c, 1, 67, 0
1, 260528, Note_on_c, 1, 65, 127
1, 260798, Note_off_c, 1, 65, 0
1, 260799, Note_on_c, 1, 67, 127
1, 260933, Note_off_c, 1, 67, 0
1, 260934, Note_on_c, 1, 69, 127
1, 261068, Note_off_c, 1, 69, 0
1, 261069, Note_on_c, 1, 64, 127
1, 261339, Note_off_c, 1, 64, 0
1, 261340, Note_on_c, 1, 65, 127
1, 261474, Note_off_c, 1, 65, 0
1, 261475, Note_on_c, 1, 67, 127
1, 261609, Note_off_c, 1, 67, 0
1, 261610, Note_on_c, 1, 65, 127
1, 261610, Note_on_c, 1, 53, 127
1, 261880, Note_off_c, 1, 65, 0
1, 261881, Note_on_c, 1, 77, 127
1, 262015, Note_off_c, 1, 77, 0
1, 262421, Note_off_c, 1, 53, 0
1, 262692, Note_on_c, 1, 58, 127
1, 262962, Note_off_c, 1, 58, 0
1, 262963, Note_on_c, 1, 74, 127
1, 262963, Note_on_c, 1, 58, 127
1, 263097, Note_off_c, 1, 74, 0
1, 263098, Note_on_c, 1, 62, 127
1, 263232, Note_off_c, 1, 58, 0
1, 263232, Note_off_c, 1, 62, 0
1, 263233, Note_on_c, 1, 58, 127
1, 263233, Note_on_c, 1, 62, 127
1, 263503, Note_off_c, 1, 58, 0
1, 263769, Note_off_c, 1, 62, 0
1, 263774, Note_on_c, 1, 57, 127
1, 264044, Note_off_c, 1, 57, 0
1, 264045, Note_on_c, 1, 69, 127
1, 264045, Note_on_c, 1, 53, 127
1, 264179, Note_off_c, 1, 69, 0
1, 264180, Note_on_c, 1, 67, 127
1, 264314, Note_off_c, 1, 53, 0
1, 264314, Note_off_c, 1, 67, 0
1, 264315, Note_on_c, 1, 69, 127
1, 264315, Note_on_c, 1, 53, 127
1, 264449, Note_off_c, 1, 69, 0
1, 264450, Note_on_c, 1, 70, 127
1, 264584, Note_off_c, 1, 53, 0
1, 264584, Note_off_c, 1, 70, 0
1, 264585, Note_on_c, 1, 69, 127
1, 264585, Note_on_c, 1, 53, 127
1, 264719, Note_off_c, 1, 69, 0
1, 264719, Note_off_c, 1, 53, 0
1, 264720, Note_on_c, 1, 67, 127
1, 264720, Note_on_c, 1, 53, 127
1, 264854, Note_off_c, 1, 67, 0
1, 264854, Note_off_c, 1, 53, 0
1, 264855, Note_on_c, 1, 62, 127
1, 264855, Note_on_c, 1, 65, 127
1, 265125, Note_off_c, 1, 62, 0
1, 265391, Note_off_c, 1, 65, 0
1, 265396, Note_on_c, 1, 62, 127
1, 265666, Note_off_c, 1, 62, 0
1, 265667, Note_on_c, 1, 62, 127
1, 265937, Note_off_c, 1, 62, 0
1, 265938, Note_on_c, 1, 55, 127
1, 266208, Note_off_c, 1, 55, 0
1, 266209, Note_on_c, 1, 79, 127
1, 266209, Note_on_c, 1, 52, 127
1, 266343, Note_off_c, 1, 79, 0
1, 266344, Note_on_c, 1, 67, 127
1, 266478, Note_off_c, 1, 52, 0
1, 266478, Note_off_c, 1, 67, 0
1, 266479, Note_on_c, 1, 52, 127
1, 266479, Note_on_c, 1, 67, 127
1, 266749, Note_off_c, 1, 52, 0
1, 266750, Note_on_c, 1, 60, 127
1, 267015, Note_off_c, 1, 67, 0
1, 267019, Note_off_c, 1, 60, 0
1, 267020, Note_on_c, 1, 53, 127
1, 267290, Note_off_c, 1, 53, 0
1, 267291, Note_on_c, 1, 77, 127
1, 267291, Note_on_c, 1, 50, 127
1, 267425, Note_off_c, 1, 77, 0
1, 267426, Note_on_c, 1, 65, 127
1, 267560, Note_off_c, 1, 50, 0
1, 267560, Note_off_c, 1, 65, 0
1, 267561, Note_on_c, 1, 50, 127
1, 267561, Note_on_c, 1, 65, 127
1, 267831, Note_off_c, 1, 50, 0
1, 267832, Note_on_c, 1, 59, 127
1, 268097, Note_off_c, 1, 65, 0
1, 268101, Note_off_c, 1, 59, 0
1, 268102, Note_on_c, 1, 60, 127
1, 268372, Note_off_c, 1, 60, 0
1, 268373, Note_on_c, 1, 75, 127
1, 268373, Note_on_c, 1, 62, 127
1, 268507, Note_off_c, 1, 75, 0
1, 268507, Note_off_c, 1, 62, 0
1, 268508, Note_on_c, 1, 74, 127
1, 268508, Note_on_c, 1, 63, 127
1, 268642, Note_off_c, 1, 74, 0
1, 268642, Note_off_c, 1, 63, 0
1, 268643, Note_on_c, 1, 72, 127
1, 268643, Note_on_c, 1, 57, 127
1, 268913, Note_off_c, 1, 72, 0
1, 268913, Note_off_c, 1, 57, 0
1, 268914, Note_on_c, 1, 58, 127
1, 268914, Note_on_c, 1, 65, 127
1, 269048, Note_off_c, 1, 58, 0
1, 269049, Note_on_c, 1, 60, 127
1, 269183, Note_off_c, 1, 65, 0
1, 269183, Note_off_c, 1, 60, 0
1, 269184, Note_on_c, 1, 74, 127
1, 269184, Note_on_c, 1, 58, 127
1, 269454, Note_off_c, 1, 74, 0
1, 269454, Note_off_c, 1, 58, 0
1, 269455, Note_on_c, 1, 60, 127
1, 269455, Note_on_c, 1, 65, 127
1, 269589, Note_off_c, 1, 60, 0
1, 269590, Note_on_c, 1, 62, 127
1, 269724, Note_off_c, 1, 65, 0
1, 269724, Note_off_c, 1, 62, 0
1, 269725, Note_on_c, 1, 75, 127
1, 269725, Note_on_c, 1, 57, 127
1, 269995, Note_off_c, 1, 75, 0
1, 269995, Note_off_c, 1, 57, 0
1, 269996, Note_on_c, 1, 58, 127
1, 269996, Note_on_c, 1, 65, 127
1, 270130, Note_off_c, 1, 58, 0
1, 270131, Note_on_c, 1, 60, 127
1, 270265, Note_off_c, 1, 65, 0
1, 270265, Note_off_c, 1, 60, 0
1, 270266, Note_on_c, 1, 58, 127
1, 270266, Note_on_c, 1, 74, 127
1, 270536, Note_off_c, 1, 58, 0
1, 270537, Note_on_c, 1, 70, 127
1, 270671, Note_off_c, 1, 70, 0
1, 270802, Note_off_c, 1, 74, 0
1, 270807, Note_on_c, 1, 58, 127
1, 271078, Note_on_c, 1, 70, 127
1, 271212, Note_off_c, 1, 70, 0
1, 271213, Note_on_c, 1, 69, 127
1, 271343, Note_off_c, 1, 58, 0
1, 271347, Note_off_c, 1, 69, 0
1, 271348, Note_on_c, 1, 70, 127
1, 271619, Note_on_c, 1, 67, 127
1, 271753, Note_off_c, 1, 67, 0
1, 271754, Note_on_c, 1, 55, 127
1, 271888, Note_off_c, 1, 55, 0
1, 272023, Note_off_c, 1, 70, 0
1, 272159, Note_on_c, 1, 75, 127
1, 272293, Note_off_c, 1, 75, 0
1, 272294, Note_on_c, 1, 74, 127
1, 272428, Note_off_c, 1, 74, 0
1, 272429, Note_on_c, 1, 72, 127
1, 272700, Note_on_c, 1, 69, 127
1, 272834, Note_off_c, 1, 69, 0
1, 272835, Note_on_c, 1, 57, 127
1, 272969, Note_off_c, 1, 57, 0
1, 273104, Note_off_c, 1, 72, 0
1, 273240, Note_on_c, 1, 77, 127
1, 273374, Note_off_c, 1, 77, 0
1, 273375, Note_on_c, 1, 75, 127
1, 273509, Note_off_c, 1, 75, 0
1, 273510, Note_on_c, 1, 74, 127
1, 273510, Note_on_c, 1, 46, 127
1, 273781, Note_on_c, 1, 70, 127
1, 273915, Note_off_c, 1, 70, 0
1, 273916, Note_on_c, 1, 58, 127
1, 274050, Note_off_c, 1, 58, 0
1, 274321, Note_off_c, 1, 74, 0
1, 274321, Note_off_c, 1, 46, 0
1, 274322, Note_on_c, 1, 72, 127
1, 274456, Note_off_c, 1, 72, 0
1, 274592, Note_on_c, 1, 53, 127
1, 274592, Note_on_c, 1, 72, 127
1, 274862, Note_off_c, 1, 53, 0
1, 274863, Note_on_c, 1, 69, 127
1, 274997, Note_off_c, 1, 69, 0
1, 274998, Note_on_c, 1, 57, 127
1, 275128, Note_off_c, 1, 72, 0
1, 275132, Note_off_c, 1, 57, 0
1, 275133, Note_on_c, 1, 53, 127
1, 275133, Note_on_c, 1, 57, 127
1, 275269, Note_on_c, 1, 65, 127
1, 275403, Note_off_c, 1, 53, 0
1, 275403, Note_off_c, 1, 65, 0
1, 275404, Note_on_c, 1, 67, 127
1, 275538, Note_off_c, 1, 67, 0
1, 275539, Note_on_c, 1, 69, 127
1, 275669, Note_off_c, 1, 57, 0
1, 275673, Note_off_c, 1, 69, 0
1, 275674, Note_on_c, 1, 50, 127
1, 275674, Note_on_c, 1, 70, 127
1, 275944, Note_off_c, 1, 50, 0
1, 275945, Note_on_c, 1, 62, 127
1, 275945, Note_on_c, 1, 46, 127
1, 276079, Note_off_c, 1, 62, 0
1, 276080, Note_on_c, 1, 60, 127
1, 276210, Note_off_c, 1, 70, 0
1, 276214, Note_off_c, 1, 46, 0
1, 276214, Note_off_c, 1, 60, 0
1, 276215, Note_on_c, 1, 62, 127
1, 276215, Note_on_c, 1, 46, 127
1, 276349, Note_off_c, 1, 62, 0
1, 276350, Note_on_c, 1, 63, 127
1, 276484, Note_off_c, 1, 46, 0
1, 276484, Note_off_c, 1, 63, 0
1, 276485, Note_on_c, 1, 70, 127
1, 276485, Note_on_c, 1, 62, 127
1, 276485, Note_on_c, 1, 46, 127
1, 276619, Note_off_c, 1, 70, 0
1, 276619, Note_off_c, 1, 62, 0
1, 276619, Note_off_c, 1, 46, 0
1, 276620, Note_on_c, 1, 69, 127
1, 276620, Note_on_c, 1, 60, 127
1, 276620, Note_on_c, 1, 46, 127
1, 276754, Note_off_c, 1, 69, 0
1, 276754, Note_off_c, 1, 60, 0
1, 276754, Note_off_c, 1, 46, 0
1, 276755, Note_on_c, 1, 55, 127
1, 276755, Note_on_c, 1, 67, 127
1, 276755, Note_on_c, 1, 58, 127
1, 277025, Note_off_c, 1, 55, 0
1, 277291, Note_off_c, 1, 67, 0
1, 277291, Note_off_c, 1, 58, 0
1, 277296, Note_on_c, 1, 55, 127
1, 277432, Note_on_c, 1, 67, 127
1, 277566, Note_off_c, 1, 55, 0
1, 277566, Note_off_c, 1, 67, 0
1, 277567, Note_on_c, 1, 69, 127
1, 277567, Note_on_c, 1, 55, 127
1, 277701, Note_off_c, 1, 69, 0
1, 277702, Note_on_c, 1, 70, 127
1, 277836, Note_off_c, 1, 55, 0
1, 277836, Note_off_c, 1, 70, 0
1, 277837, Note_on_c, 1, 48, 127
1, 277837, Note_on_c, 1, 69, 127
1, 278107, Note_off_c, 1, 48, 0
1, 278108, Note_on_c, 1, 72, 127
1, 278108, Note_on_c, 1, 45, 127
1, 278242, Note_off_c, 1, 72, 0
1, 278243, Note_on_c, 1, 60, 127
1, 278373, Note_off_c, 1, 69, 0
1, 278377, Note_off_c, 1, 45, 0
1, 278377, Note_off_c, 1, 60, 0
1, 278378, Note_on_c, 1, 45, 127
1, 278378, Note_on_c, 1, 60, 127
1, 278514, Note_on_c, 1, 69, 127
1, 278648, Note_off_c, 1, 45, 0
1, 278648, Note_off_c, 1, 69, 0
1, 278649, Note_on_c, 1, 70, 127
1, 278649, Note_on_c, 1, 53, 127
1, 278783, Note_off_c, 1, 70, 0
1, 278784, Note_on_c, 1, 72, 127
1, 278914, Note_off_c, 1, 60, 0
1, 278918, Note_off_c, 1, 53, 0
1, 278918, Note_off_c, 1, 72, 0
1, 278919, Note_on_c, 1, 46, 127
1, 278919, Note_on_c, 1, 74, 127
1, 279189, Note_off_c, 1, 46, 0
1, 279190, Note_on_c, 1, 70, 127
1, 279190, Note_on_c, 1, 43, 127
1, 279324, Note_off_c, 1, 70, 0
1, 279325, Note_on_c, 1, 58, 127
1, 279455, Note_off_c, 1, 74, 0
1, 279459, Note_off_c, 1, 43, 0
1, 279459, Note_off_c, 1, 58, 0
1, 279460, Note_on_c, 1, 43, 127
1, 279460, Note_on_c, 1, 58, 127
1, 279596, Note_on_c, 1, 64, 127
1, 279730, Note_off_c, 1, 43, 0
1, 279730, Note_off_c, 1, 64, 0
1, 279731, Note_on_c, 1, 65, 127
1, 279731, Note_on_c, 1, 52, 127
1, 279865, Note_off_c, 1, 65, 0
1, 279866, Note_on_c, 1, 67, 127
1, 279996, Note_off_c, 1, 58, 0
1, 280000, Note_off_c, 1, 52, 0
1, 280000, Note_off_c, 1, 67, 0
1, 280001, Note_on_c, 1, 53, 127
1, 280001, Note_on_c, 1, 69, 127
1, 280271, Note_off_c, 1, 53, 0
1, 280272, Note_on_c, 1, 67, 127
1, 280272, Note_on_c, 1, 55, 127
1, 280406, Note_off_c, 1, 67, 0
1, 280406, Note_off_c, 1, 55, 0
1, 280407, Note_on_c, 1, 65, 127
1, 280407, Note_on_c, 1, 57, 127
1, 280541, Note_off_c, 1, 69, 0
1, 280541, Note_off_c, 1, 65, 0
1, 280541, Note_off_c, 1, 57, 0
1, 280542, Note_on_c, 1, 64, 127
1, 280542, Note_on_c, 1, 52, 127
1, 280542, Note_on_c, 1, 67, 127
1, 280542, Note_on_c, 1, 72, 127
1, 280812, Note_off_c, 1, 64, 0
1, 280812, Note_off_c, 1, 52, 0
1, 280813, Note_on_c, 1, 53, 127
1, 280813, Note_on_c, 1, 60, 127
1, 280947, Note_off_c, 1, 53, 0
1, 280948, Note_on_c, 1, 55, 127
1, 281078, Note_off_c, 1, 67, 0
1, 281082, Note_off_c, 1, 72, 0
1, 281082, Note_off_c, 1, 60, 0
1, 281082, Note_off_c, 1, 55, 0
1, 281083, Note_on_c, 1, 69, 127
1, 281083, Note_on_c, 1, 53, 127
1, 281083, Note_on_c, 1, 72, 127
1, 281353, Note_off_c, 1, 69, 0
1, 281353, Note_off_c, 1, 53, 0
1, 281354, Note_on_c, 1, 55, 127
1, 281354, Note_on_c, 1, 60, 127
1, 281488, Note_off_c, 1, 55, 0
1, 281489, Note_on_c, 1, 57, 127
1, 281623, Note_off_c, 1, 72, 0
1, 281623, Note_off_c, 1, 60, 0
1, 281623, Note_off_c, 1, 57, 0
1, 281624, Note_on_c, 1, 67, 127
1, 281624, Note_on_c, 1, 52, 127
1, 281624, Note_on_c, 1, 72, 127
1, 281894, Note_off_c, 1, 67, 0
1, 281894, Note_off_c, 1, 52, 0
1, 281895, Note_on_c, 1, 53, 127
1, 281895, Note_on_c, 1, 60, 127
1, 282029, Note_off_c, 1, 53, 0
1, 282030, Note_on_c, 1, 55, 127
1, 282164, Note_off_c, 1, 72, 0
1, 282164, Note_off_c, 1, 60, 0
1, 282164, Note_off_c, 1, 55, 0
1, 282165, Note_on_c, 1, 53, 127
1, 282165, Note_on_c, 1, 72, 127
1, 282165, Note_on_c, 1, 69, 127
1, 282435, Note_off_c, 1, 53, 0
1, 282436, Note_on_c, 1, 57, 127
1, 282570, Note_off_c, 1, 57, 0
1, 282571, Note_on_c, 1, 45, 127
1, 282701, Note_off_c, 1, 72, 0
1, 282701, Note_off_c, 1, 69, 0
1, 282705, Note_off_c, 1, 45, 0
1, 282706, Note_on_c, 1, 45, 127
1, 282842, Note_on_c, 1, 67, 127
1, 282976, Note_off_c, 1, 67, 0
1, 282977, Note_on_c, 1, 65, 127
1, 283111, Note_off_c, 1, 65, 0
1, 283112, Note_on_c, 1, 63, 127
1, 283242, Note_off_c, 1, 45, 0
1, 283246, Note_off_c, 1, 63, 0
1, 283247, Note_on_c, 1, 62, 127
1, 283383, Note_on_c, 1, 65, 127
1, 283517, Note_off_c, 1, 65, 0
1, 283518, Note_on_c, 1, 67, 127
1, 283518, Note_on_c, 1, 58, 127
1, 283652, Note_off_c, 1, 67, 0
1, 283652, Note_off_c, 1, 58, 0
1, 283653, Note_on_c, 1, 69, 127
1, 283653, Note_on_c, 1, 46, 127
1, 283783, Note_off_c, 1, 62, 0
1, 283787, Note_off_c, 1, 69, 0
1, 283787, Note_off_c, 1, 46, 0
1, 283788, Note_on_c, 1, 46, 127
1, 283788, Note_on_c, 1, 70, 127
1, 283924, Note_on_c, 1, 67, 127
1, 284058, Note_off_c, 1, 67, 0
1, 284059, Note_on_c, 1, 62, 127
1, 284193, Note_off_c, 1, 62, 0
1, 284194, Note_on_c, 1, 65, 127
1, 284324, Note_off_c, 1, 46, 0
1, 284328, Note_off_c, 1, 65, 0
1, 284329, Note_on_c, 1, 63, 127
1, 284465, Note_on_c, 1, 48, 127
1, 284599, Note_off_c, 1, 63, 0
1, 284599, Note_off_c, 1, 48, 0
1, 284600, Note_on_c, 1, 50, 127
1, 284600, Note_on_c, 1, 60, 127
1, 284734, Note_off_c, 1, 50, 0
1, 284735, Note_on_c, 1, 51, 127
1, 284869, Note_off_c, 1, 70, 0
1, 284869, Note_off_c, 1, 51, 0
1, 284870, Note_on_c, 1, 53, 127
1, 285004, Note_off_c, 1, 53, 0
1, 285005, Note_on_c, 1, 69, 127
1, 285005, Note_on_c, 1, 55, 127
1, 285139, Note_off_c, 1, 69, 0
1, 285139, Note_off_c, 1, 55, 0
1, 285275, Note_on_c, 1, 72, 127
1, 285409, Note_off_c, 1, 60, 0
1, 285409, Note_off_c, 1, 72, 0
1, 285410, Note_on_c, 1, 58, 127
1, 285410, Note_on_c, 1, 50, 127
1, 285410, Note_on_c, 1, 70, 127
1, 285410, Note_on_c, 1, 74, 127
1, 285544, Note_off_c, 1, 58, 0
1, 285545, Note_on_c, 1, 67, 127
1, 285679, Note_off_c, 1, 50, 0
1, 285679, Note_off_c, 1, 67, 0
1, 285680, Note_on_c, 1, 65, 127
1, 285814, Note_off_c, 1, 65, 0
1, 285815, Note_on_c, 1, 63, 127
1, 285815, Note_on_c, 1, 46, 127
1, 285945, Note_off_c, 1, 70, 0
1, 285945, Note_off_c, 1, 74, 0
1, 285949, Note_off_c, 1, 63, 0
1, 285949, Note_off_c, 1, 46, 0
1, 285950, Note_on_c, 1, 62, 127
1, 285950, Note_on_c, 1, 46, 127
1, 286220, Note_off_c, 1, 62, 0
1, 286221, Note_on_c, 1, 70, 127
1, 286221, Note_on_c, 1, 67, 127
1, 286355, Note_off_c, 1, 70, 0
1, 286486, Note_off_c, 1, 46, 0
1, 286490, Note_off_c, 1, 67, 0
1, 286491, Note_on_c, 1, 69, 127
1, 286491, Note_on_c, 1, 77, 127
1, 286625, Note_off_c, 1, 69, 0
1, 286626, Note_on_c, 1, 70, 127
1, 286760, Note_off_c, 1, 77, 0
1, 286760, Note_off_c, 1, 70, 0
1, 286761, Note_on_c, 1, 72, 127
1, 286761, Note_on_c, 1, 57, 127
1, 286761, Note_on_c, 1, 77, 127
1, 286895, Note_off_c, 1, 72, 0
1, 286895, Note_off_c, 1, 57, 0
1, 286896, Note_on_c, 1, 74, 127
1, 286896, Note_on_c, 1, 45, 127
1, 287030, Note_off_c, 1, 77, 0
1, 287030, Note_off_c, 1, 74, 0
1, 287030, Note_off_c, 1, 45, 0
1, 287031, Note_on_c, 1, 77, 127
1, 287031, Note_on_c, 1, 45, 127
1, 287031, Note_on_c, 1, 72, 127
1, 287301, Note_off_c, 1, 77, 0
1, 287567, Note_off_c, 1, 45, 0
1, 287571, Note_off_c, 1, 72, 0
1, 287572, Note_on_c, 1, 74, 127
1, 287572, Note_on_c, 1, 70, 127
1, 287842, Note_off_c, 1, 74, 0
1, 287842, Note_off_c, 1, 70, 0
1, 287843, Note_on_c, 1, 50, 127
1, 287843, Note_on_c, 1, 70, 127
1, 287843, Note_on_c, 1, 65, 127
1, 287977, Note_off_c, 1, 50, 0
1, 287978, Note_on_c, 1, 48, 127
1, 288112, Note_off_c, 1, 70, 0
1, 288112, Note_off_c, 1, 65, 0
1, 288112, Note_off_c, 1, 48, 0
1, 288113, Note_on_c, 1, 50, 127
1, 288113, Note_on_c, 1, 70, 127
1, 288113, Note_on_c, 1, 65, 127
1, 288247, Note_off_c, 1, 50, 0
1, 288248, Note_on_c, 1, 51, 127
1, 288382, Note_off_c, 1, 70, 0
1, 288382, Note_off_c, 1, 65, 0
1, 288382, Note_off_c, 1, 51, 0
1, 288383, Note_on_c, 1, 70, 127
1, 288383, Note_on_c, 1, 50, 127
1, 288517, Note_off_c, 1, 70, 0
1, 288517, Note_off_c, 1, 50, 0
1, 288518, Note_on_c, 1, 70, 127
1, 288518, Note_on_c, 1, 48, 127
1, 288652, Note_off_c, 1, 70, 0
1, 288652, Note_off_c, 1, 48, 0
1, 288653, Note_on_c, 1, 74, 127
1, 288653, Note_on_c, 1, 79, 127
1, 288653, Note_on_c, 1, 46, 127
1, 288787, Note_off_c, 1, 74, 0
1, 288788, Note_on_c, 1, 72, 127
1, 288922, Note_off_c, 1, 79, 0
1, 288922, Note_off_c, 1, 72, 0
1, 289058, Note_on_c, 1, 75, 127
1, 289188, Note_off_c, 1, 46, 0
1, 289192, Note_off_c, 1, 75, 0
1, 289193, Note_on_c, 1, 79, 127
1, 289193, Note_on_c, 1, 74, 127
1, 289463, Note_off_c, 1, 79, 0
1, 289463, Note_off_c, 1, 74, 0
1, 289464, Note_on_c, 1, 70, 127
1, 289464, Note_on_c, 1, 79, 127
1, 289598, Note_off_c, 1, 70, 0
1, 289599, Note_on_c, 1, 67, 127
1, 289733, Note_off_c, 1, 79, 0
1, 289733, Note_off_c, 1, 67, 0
1, 289734, Note_on_c, 1, 72, 127
1, 289734, Note_on_c, 1, 64, 127
1, 290004, Note_off_c, 1, 72, 0
1, 290005, Note_on_c, 1, 60, 127
1, 290005, Note_on_c, 1, 69, 127
1, 290139, Note_off_c, 1, 60, 0
1, 290140, Note_on_c, 1, 48, 127
1, 290270, Note_off_c, 1, 64, 0
1, 290274, Note_off_c, 1, 69, 0
1, 290274, Note_off_c, 1, 48, 0
1, 290275, Note_on_c, 1, 69, 127
1, 290275, Note_on_c, 1, 48, 127
1, 290545, Note_off_c, 1, 69, 0
1, 290546, Note_on_c, 1, 77, 127
1, 290681, Note_on_c, 1, 65, 127
1, 290811, Note_off_c, 1, 48, 0
1, 290815, Note_off_c, 1, 77, 0
1, 290815, Note_off_c, 1, 65, 0
1, 290816, Note_on_c, 1, 70, 127
1, 290816, Note_on_c, 1, 62, 127
1, 291086, Note_off_c, 1, 70, 0
1, 291087, Note_on_c, 1, 58, 127
1, 291087, Note_on_c, 1, 67, 127
1, 291221, Note_off_c, 1, 58, 0
1, 291222, Note_on_c, 1, 46, 127
1, 291352, Note_off_c, 1, 62, 0
1, 291356, Note_off_c, 1, 67, 0
1, 291356, Note_off_c, 1, 46, 0
1, 291357, Note_on_c, 1, 46, 127
1, 291357, Note_on_c, 1, 67, 127
1, 291625, Note_off_c, 1, 46, 0
1, 291626, Note_off_c, 1, 67, 0
1, 291627, Note_on_c, 1, 67, 127
1, 291627, Note_on_c, 1, 76, 127
1, 291761, Note_off_c, 1, 67, 0
1, 291762, Note_on_c, 1, 64, 127
1, 291896, Note_off_c, 1, 76, 0
1, 291896, Note_off_c, 1, 64, 0
1, 291897, Note_on_c, 1, 77, 127
1, 291897, Note_on_c, 1, 57, 127
1, 291897, Note_on_c, 1, 60, 127
1, 292167, Note_off_c, 1, 77, 0
1, 292167, Note_off_c, 1, 57, 0
1, 292168, Note_on_c, 1, 79, 127
1, 292168, Note_on_c, 1, 55, 127
1, 292302, Note_off_c, 1, 79, 0
1, 292302, Note_off_c, 1, 55, 0
1, 292303, Note_on_c, 1, 81, 127
1, 292303, Note_on_c, 1, 53, 127
1, 292437, Note_off_c, 1, 60, 0
1, 292437, Note_off_c, 1, 81, 0
1, 292437, Note_off_c, 1, 53, 0
1, 292438, Note_on_c, 1, 76, 127
1, 292438, Note_on_c, 1, 55, 127
1, 292438, Note_on_c, 1, 58, 127
1, 292708, Note_off_c, 1, 76, 0
1, 292708, Note_off_c, 1, 55, 0
1, 292709, Note_on_c, 1, 77, 127
1, 292709, Note_on_c, 1, 48, 127
1, 292843, Note_off_c, 1, 77, 0
1, 292844, Note_on_c, 1, 79, 127
1, 292978, Note_off_c, 1, 58, 0
1, 292978, Note_off_c, 1, 48, 0
1, 292978, Note_off_c, 1, 79, 0
1, 292979, Note_on_c, 1, 77, 127
1, 292979, Note_on_c, 1, 57, 127
1, 292979, Note_on_c, 1, 60, 127
1, 293249, Note_off_c, 1, 77, 0
1, 293249, Note_off_c, 1, 57, 0
1, 293250, Note_on_c, 1, 79, 127
1, 293250, Note_on_c, 1, 48, 127
1, 293384, Note_off_c, 1, 79, 0
1, 293385, Note_on_c, 1, 81, 127
1, 293519, Note_off_c, 1, 60, 0
1, 293519, Note_off_c, 1, 48, 0
1, 293519, Note_off_c, 1, 81, 0
1, 293520, Note_on_c, 1, 76, 127
1, 293520, Note_on_c, 1, 55, 127
1, 293520, Note_on_c, 1, 58, 127
1, 293790, Note_off_c, 1, 76, 0
1, 293790, Note_off_c, 1, 55, 0
1, 293791, Note_on_c, 1, 77, 127
1, 293791, Note_on_c, 1, 48, 127
1, 293925, Note_off_c, 1, 77, 0
1, 293926, Note_on_c, 1, 79, 127
1, 294060, Note_off_c, 1, 58, 0
1, 294060, Note_off_c, 1, 48, 0
1, 294060, Note_off_c, 1, 79, 0
1, 294061, Note_on_c, 1, 77, 127
1, 294061, Note_on_c, 1, 57, 127
1, 294061, Note_on_c, 1, 53, 127
1, 294331, Note_off_c, 1, 77, 0
1, 294332, Note_on_c, 1, 81, 127
1, 294466, Note_off_c, 1, 81, 0
1, 294467, Note_on_c, 1, 69, 127
1, 294597, Note_off_c, 1, 57, 0
1, 294597, Note_off_c, 1, 53, 0
1, 294601, Note_off_c, 1, 69, 0
1, 294602, Note_on_c, 1, 69, 127
1, 294738, Note_on_c, 1, 55, 127
1, 294872, Note_off_c, 1, 55, 0
1, 294873, Note_on_c, 1, 53, 127
1, 295007, Note_off_c, 1, 53, 0
1, 295008, Note_on_c, 1, 52, 127
1, 295138, Note_off_c, 1, 69, 0
1, 295142, Note_off_c, 1, 52, 0
1, 295143, Note_on_c, 1, 57, 127
1, 295143, Note_on_c, 1, 50, 127
1, 295414, Note_on_c, 1, 77, 127
1, 295548, Note_off_c, 1, 77, 0
1, 295549, Note_on_c, 1, 65, 127
1, 295679, Note_off_c, 1, 57, 0
1, 295679, Note_off_c, 1, 50, 0
1, 295683, Note_off_c, 1, 65, 0
1, 295684, Note_on_c, 1, 65, 127
1, 295820, Note_on_c, 1, 50, 127
1, 295954, Note_off_c, 1, 50, 0
1, 295955, Note_on_c, 1, 51, 127
1, 296089, Note_off_c, 1, 51, 0
1, 296090, Note_on_c, 1, 53, 127
1, 296220, Note_off_c, 1, 65, 0
1, 296224, Note_off_c, 1, 53, 0
1, 296225, Note_on_c, 1, 58, 127
1, 296225, Note_on_c, 1, 55, 127
1, 296496, Note_on_c, 1, 82, 127
1, 296630, Note_off_c, 1, 82, 0
1, 296631, Note_on_c, 1, 70, 127
1, 296761, Note_off_c, 1, 58, 0
1, 296761, Note_off_c, 1, 55, 0
1, 296765, Note_off_c, 1, 70, 0
1, 296766, Note_on_c, 1, 70, 127
1, 296902, Note_on_c, 1, 55, 127
1, 297036, Note_off_c, 1, 55, 0
1, 297037, Note_on_c, 1, 53, 127
1, 297171, Note_off_c, 1, 53, 0
1, 297172, Note_on_c, 1, 51, 127
1, 297302, Note_off_c, 1, 70, 0
1, 297306, Note_off_c, 1, 51, 0
1, 297307, Note_on_c, 1, 62, 127
1, 297307, Note_on_c, 1, 50, 127
1, 297578, Note_on_c, 1, 82, 127
1, 297712, Note_off_c, 1, 82, 0
1, 297713, Note_on_c, 1, 70, 127
1, 297843, Note_off_c, 1, 62, 0
1, 297843, Note_off_c, 1, 50, 0
1, 297847, Note_off_c, 1, 70, 0
1, 297848, Note_on_c, 1, 70, 127
1, 297984, Note_on_c, 1, 48, 127
1, 298118, Note_off_c, 1, 48, 0
1, 298119, Note_on_c, 1, 50, 127
1, 298253, Note_off_c, 1, 50, 0
1, 298254, Note_on_c, 1, 51, 127
1, 298384, Note_off_c, 1, 70, 0
1, 298388, Note_off_c, 1, 51, 0
1, 298389, Note_on_c, 1, 60, 127
1, 298389, Note_on_c, 1, 53, 127
1, 298525, Note_on_c, 1, 69, 127
1, 298658, Note_off_c, 1, 60, 0
1, 298659, Note_off_c, 1, 69, 0
1, 298660, Note_on_c, 1, 70, 127
1, 298794, Note_off_c, 1, 53, 0
1, 298794, Note_off_c, 1, 70, 0
1, 298795, Note_on_c, 1, 72, 127
1, 298795, Note_on_c, 1, 41, 127
1, 298929, Note_off_c, 1, 72, 0
1, 298929, Note_off_c, 1, 41, 0
1, 298930, Note_on_c, 1, 70, 127
1, 298930, Note_on_c, 1, 41, 127
1, 298996, Note_off_c, 1, 70, 0
1, 298997, Note_on_c, 1, 69, 127
1, 299063, Note_off_c, 1, 69, 0
1, 299198, Note_on_c, 1, 65, 127
1, 299331, Note_off_c, 1, 65, 0
1, 299462, Note_off_c, 1, 41, 0
1, 299467, Note_on_c, 1, 70, 127
1, 299467, Note_on_c, 1, 74, 127
1, 299737, Note_off_c, 1, 70, 0
1, 299738, Note_on_c, 1, 50, 127
1, 299872, Note_off_c, 1, 50, 0
1, 299873, Note_on_c, 1, 38, 127
1, 300003, Note_off_c, 1, 74, 0
1, 300007, Note_off_c, 1, 38, 0
1, 300008, Note_on_c, 1, 70, 127
1, 300008, Note_on_c, 1, 38, 127
1, 300144, Note_on_c, 1, 77, 127
1, 300278, Note_off_c, 1, 70, 0
1, 300278, Note_off_c, 1, 77, 0
1, 300279, Note_on_c, 1, 75, 127
1, 300413, Note_off_c, 1, 75, 0
1, 300414, Note_on_c, 1, 74, 127
1, 300544, Note_off_c, 1, 38, 0
1, 300548, Note_off_c, 1, 74, 0
1, 300549, Note_on_c, 1, 69, 127
1, 300549, Note_on_c, 1, 72, 127
1, 300819, Note_off_c, 1, 69, 0
1, 300820, Note_on_c, 1, 45, 127
1, 300820, Note_on_c, 1, 65, 127
1, 300954, Note_off_c, 1, 45, 0
1, 300955, Note_on_c, 1, 43, 127
1, 301085, Note_off_c, 1, 72, 0
1, 301089, Note_off_c, 1, 65, 0
1, 301089, Note_off_c, 1, 43, 0
1, 301090, Note_on_c, 1, 45, 127
1, 301090, Note_on_c, 1, 65, 127
1, 301224, Note_off_c, 1, 45, 0
1, 301225, Note_on_c, 1, 46, 127
1, 301359, Note_off_c, 1, 65, 0
1, 301359, Note_off_c, 1, 46, 0
1, 301360, Note_on_c, 1, 65, 127
1, 301360, Note_on_c, 1, 45, 127
1, 301494, Note_off_c, 1, 65, 0
1, 301494, Note_off_c, 1, 45, 0
1, 301495, Note_on_c, 1, 65, 127
1, 301495, Note_on_c, 1, 43, 127
1, 301629, Note_off_c, 1, 65, 0
1, 301629, Note_off_c, 1, 43, 0
1, 301630, Note_on_c, 1, 74, 127
1, 301630, Note_on_c, 1, 41, 127
1, 301900, Note_off_c, 1, 74, 0
1, 301901, Note_on_c, 1, 77, 127
1, 302035, Note_off_c, 1, 77, 0
1, 302036, Note_on_c, 1, 79, 127
1, 302166, Note_off_c, 1, 41, 0
1, 302170, Note_off_c, 1, 79, 0
1, 302171, Note_on_c, 1, 77, 127
1, 302171, Note_on_c, 1, 74, 127
1, 302305, Note_off_c, 1, 77, 0
1, 302306, Note_on_c, 1, 75, 127
1, 302440, Note_off_c, 1, 74, 0
1, 302440, Note_off_c, 1, 75, 0
1, 302441, Note_on_c, 1, 74, 127
1, 302441, Note_on_c, 1, 53, 127
1, 302577, Note_on_c, 1, 72, 127
1, 302711, Note_off_c, 1, 74, 0
1, 302711, Note_off_c, 1, 53, 0
1, 302711, Note_off_c, 1, 72, 0
1, 302712, Note_on_c, 1, 70, 127
1, 302712, Note_on_c, 1, 67, 127
1, 302712, Note_on_c, 1, 55, 127
1, 302982, Note_off_c, 1, 70, 0
1, 302982, Note_off_c, 1, 67, 0
1, 302983, Note_on_c, 1, 79, 127
1, 302983, Note_on_c, 1, 63, 127
1, 303117, Note_off_c, 1, 79, 0
1, 303252, Note_off_c, 1, 63, 0
1, 303523, Note_off_c, 1, 55, 0
1, 303524, Note_on_c, 1, 72, 127
1, 303793, Note_off_c, 1, 72, 0
1, 303794, Note_on_c, 1, 65, 127
1, 304065, Note_on_c, 1, 77, 127
1, 304065, Note_on_c, 1, 62, 127
1, 304189, Note_off_c, 1, 65, 0
1, 304199, Note_off_c, 1, 77, 0
1, 304334, Note_off_c, 1, 62, 0
1, 304335, Note_on_c, 1, 62, 127
1, 304335, Note_on_c, 1, 65, 127
1, 304605, Note_off_c, 1, 62, 0
1, 304606, Note_on_c, 1, 77, 127
1, 304606, Note_on_c, 1, 70, 127
1, 304876, Note_off_c, 1, 65, 0
1, 304876, Note_off_c, 1, 77, 0
1, 304876, Note_off_c, 1, 70, 0
1, 304877, Note_on_c, 1, 72, 127
1, 304877, Note_on_c, 1, 75, 127
1, 305147, Note_off_c, 1, 72, 0
1, 305148, Note_on_c, 1, 74, 127
1, 305148, Note_on_c, 1, 48, 127
1, 305272, Note_off_c, 1, 75, 0
1, 305282, Note_off_c, 1, 74, 0
1, 305417, Note_off_c, 1, 48, 0
1, 305418, Note_on_c, 1, 69, 127
1, 305418, Note_on_c, 1, 60, 127
1, 305418, Note_on_c, 1, 75, 127
1, 305688, Note_off_c, 1, 69, 0
1, 305688, Note_off_c, 1, 60, 0
1, 305689, Note_on_c, 1, 70, 127
1, 305689, Note_on_c, 1, 53, 127
1, 305823, Note_off_c, 1, 70, 0
1, 305824, Note_on_c, 1, 72, 127
1, 305958, Note_off_c, 1, 75, 0
1, 305958, Note_off_c, 1, 53, 0
1, 305958, Note_off_c, 1, 72, 0
1, 305959, Note_on_c, 1, 70, 127
1, 305959, Note_on_c, 1, 58, 127
1, 305959, Note_on_c, 1, 77, 127
1, 306229, Note_off_c, 1, 70, 0
1, 306229, Note_off_c, 1, 58, 0
1, 306230, Note_on_c, 1, 72, 127
1, 306230, Note_on_c, 1, 53, 127
1, 306364, Note_off_c, 1, 72, 0
1, 306365, Note_on_c, 1, 74, 127
1, 306499, Note_off_c, 1, 77, 0
1, 306499, Note_off_c, 1, 53, 0
1, 306499, Note_off_c, 1, 74, 0
1, 306500, Note_on_c, 1, 69, 127
1, 306500, Note_on_c, 1, 60, 127
1, 306500, Note_on_c, 1, 75, 127
1, 306770, Note_off_c, 1, 69, 0
1, 306770, Note_off_c, 1, 60, 0
1, 306771, Note_on_c, 1, 70, 127
1, 306771, Note_on_c, 1, 53, 127
1, 306905, Note_off_c, 1, 70, 0
1, 306906, Note_on_c, 1, 72, 127
1, 307040, Note_off_c, 1, 75, 0
1, 307040, Note_off_c, 1, 53, 0
1, 307040, Note_off_c, 1, 72, 0
1, 307041, Note_on_c, 1, 62, 127
1, 307041, Note_on_c, 1, 70, 127
1, 307041, Note_on_c, 1, 77, 127
1, 307175, Note_off_c, 1, 62, 0
1, 307176, Note_on_c, 1, 63, 127
1, 307310, Note_off_c, 1, 63, 0
1, 307446, Note_on_c, 1, 60, 127
1, 307580, Note_off_c, 1, 70, 0
1, 307580, Note_off_c, 1, 60, 0
1, 307581, Note_on_c, 1, 74, 127
1, 307581, Note_on_c, 1, 58, 127
1, 307851, Note_off_c, 1, 74, 0
1, 307852, Note_on_c, 1, 79, 127
1, 307986, Note_off_c, 1, 79, 0
1, 307987, Note_on_c, 1, 67, 127
1, 308121, Note_off_c, 1, 77, 0
1, 308121, Note_off_c, 1, 58, 0
1, 308121, Note_off_c, 1, 67, 0
1, 308122, Note_on_c, 1, 60, 127
1, 308122, Note_on_c, 1, 67, 127
1, 308122, Note_on_c, 1, 75, 127
1, 308256, Note_off_c, 1, 60, 0
1, 308257, Note_on_c, 1, 62, 127
1, 308391, Note_off_c, 1, 62, 0
1, 308527, Note_on_c, 1, 58, 127
1, 308661, Note_off_c, 1, 67, 0
1, 308661, Note_off_c, 1, 58, 0
1, 308662, Note_on_c, 1, 72, 127
1, 308662, Note_on_c, 1, 57, 127
1, 308932, Note_off_c, 1, 72, 0
1, 308933, Note_on_c, 1, 77, 127
1, 309067, Note_off_c, 1, 77, 0
1, 309068, Note_on_c, 1, 65, 127
1, 309202, Note_off_c, 1, 75, 0
1, 309202, Note_off_c, 1, 57, 0
1, 309202, Note_off_c, 1, 65, 0
1, 309203, Note_on_c, 1, 74, 127
1, 309203, Note_on_c, 1, 65, 127
1, 309203, Note_on_c, 1, 58, 127
1, 309473, Note_off_c, 1, 74, 0
1, 309474, Note_on_c, 1, 82, 127
1, 309608, Note_off_c, 1, 82, 0
1, 309609, Note_on_c, 1, 70, 127
1, 309739, Note_off_c, 1, 65, 0
1, 309739, Note_off_c, 1, 58, 0
1, 309743, Note_off_c, 1, 70, 0
1, 309744, Note_on_c, 1, 70, 127
1, 309880, Note_on_c, 1, 64, 127
1, 310014, Note_off_c, 1, 64, 0
1, 310015, Note_on_c, 1, 65, 127
1, 310015, Note_on_c, 1, 58, 127
1, 310149, Note_off_c, 1, 65, 0
1, 310149, Note_off_c, 1, 58, 0
1, 310150, Note_on_c, 1, 67, 127
1, 310280, Note_off_c, 1, 70, 0
1, 310284, Note_off_c, 1, 67, 0
1, 310285, Note_on_c, 1, 65, 127
1, 310285, Note_on_c, 1, 69, 127
1, 310555, Note_off_c, 1, 65, 0
1, 310556, Note_on_c, 1, 81, 127
1, 310680, Note_off_c, 1, 69, 0
1, 310690, Note_off_c, 1, 81, 0
1, 310826, Note_on_c, 1, 65, 127
1, 310826, Note_on_c, 1, 69, 127
1, 310962, Note_on_c, 1, 72, 127
1, 311096, Note_off_c, 1, 65, 0
1, 311096, Note_off_c, 1, 72, 0
1, 311097, Note_on_c, 1, 70, 127
1, 311221, Note_off_c, 1, 69, 0
1, 311231, Note_off_c, 1, 70, 0
1, 311367, Note_on_c, 1, 62, 127
1, 311367, Note_on_c, 1, 70, 127
1, 311637, Note_off_c, 1, 62, 0
1, 311638, Note_on_c, 1, 74, 127
1, 311638, Note_on_c, 1, 58, 127
1, 311772, Note_off_c, 1, 74, 0
1, 311773, Note_on_c, 1, 72, 127
1, 311907, Note_off_c, 1, 70, 0
1, 311907, Note_off_c, 1, 58, 0
1, 311907, Note_off_c, 1, 72, 0
1, 311908, Note_on_c, 1, 74, 127
1, 311908, Note_on_c, 1, 58, 127
1, 311908, Note_on_c, 1, 65, 127
1, 312042, Note_off_c, 1, 74, 0
1, 312043, Note_on_c, 1, 75, 127
1, 312177, Note_off_c, 1, 58, 0
1, 312177, Note_off_c, 1, 75, 0
1, 312313, Note_on_c, 1, 72, 127
1, 312443, Note_off_c, 1, 65, 0
1, 312447, Note_off_c, 1, 72, 0
1, 312448, Note_on_c, 1, 67, 127
1, 312448, Note_on_c, 1, 70, 127
1, 312718, Note_off_c, 1, 67, 0
1, 312719, Note_on_c, 1, 74, 127
1, 312853, Note_off_c, 1, 74, 0
1, 312854, Note_on_c, 1, 72, 127
1, 312984, Note_off_c, 1, 70, 0
1, 312988, Note_off_c, 1, 72, 0
1, 312989, Note_on_c, 1, 70, 127
1, 312989, Note_on_c, 1, 67, 127
1, 313123, Note_off_c, 1, 70, 0
1, 313124, Note_on_c, 1, 69, 127
1, 313258, Note_off_c, 1, 67, 0
1, 313258, Note_off_c, 1, 69, 0
1, 313259, Note_on_c, 1, 67, 127
1, 313395, Note_on_c, 1, 65, 127
1, 313529, Note_off_c, 1, 67, 0
1, 313529, Note_off_c, 1, 65, 0
1, 313530, Note_on_c, 1, 60, 127
1, 313530, Note_on_c, 1, 64, 127
1, 313800, Note_off_c, 1, 60, 0
1, 313801, Note_on_c, 1, 84, 127
1, 313801, Note_on_c, 1, 57, 127
1, 313935, Note_off_c, 1, 84, 0
1, 313936, Note_on_c, 1, 72, 127
1, 314066, Note_off_c, 1, 64, 0
1, 314070, Note_off_c, 1, 57, 0
1, 314070, Note_off_c, 1, 72, 0
1, 314071, Note_on_c, 1, 57, 127
1, 314071, Note_on_c, 1, 72, 127
1, 314207, Note_on_c, 1, 65, 127
1, 314341, Note_off_c, 1, 57, 0
1, 314341, Note_off_c, 1, 65, 0
1, 314342, Note_on_c, 1, 67, 127
1, 314476, Note_off_c, 1, 67, 0
1, 314477, Note_on_c, 1, 69, 127
1, 314607, Note_off_c, 1, 72, 0
1, 314611, Note_off_c, 1, 69, 0
1, 314612, Note_on_c, 1, 58, 127
1, 314612, Note_on_c, 1, 67, 127
1, 314882, Note_off_c, 1, 58, 0
1, 314883, Note_on_c, 1, 82, 127
1, 314883, Note_on_c, 1, 55, 127
1, 315017, Note_off_c, 1, 82, 0
1, 315018, Note_on_c, 1, 70, 127
1, 315148, Note_off_c, 1, 67, 0
1, 315152, Note_off_c, 1, 55, 0
1, 315152, Note_off_c, 1, 70, 0
1, 315153, Note_on_c, 1, 55, 127
1, 315153, Note_on_c, 1, 70, 127
1, 315289, Note_on_c, 1, 64, 127
1, 315423, Note_off_c, 1, 55, 0
1, 315423, Note_off_c, 1, 64, 0
1, 315424, Note_on_c, 1, 65, 127
1, 315558, Note_off_c, 1, 65, 0
1, 315559, Note_on_c, 1, 67, 127
1, 315689, Note_off_c, 1, 70, 0
1, 315693, Note_off_c, 1, 67, 0
1, 315694, Note_on_c, 1, 69, 127
1, 315694, Note_on_c, 1, 65, 127
1, 315964, Note_off_c, 1, 69, 0
1, 315964, Note_off_c, 1, 65, 0
1, 315965, Note_on_c, 1, 67, 127
1, 315965, Note_on_c, 1, 77, 127
1, 315965, Note_on_c, 1, 72, 127
1, 316099, Note_off_c, 1, 67, 0
1, 316100, Note_on_c, 1, 69, 127
1, 316234, Note_off_c, 1, 77, 0
1, 316234, Note_off_c, 1, 69, 0
1, 316235, Note_on_c, 1, 64, 127
1, 316235, Note_on_c, 1, 79, 127
1, 316505, Note_off_c, 1, 72, 0
1, 316505, Note_off_c, 1, 64, 0
1, 316506, Note_on_c, 1, 65, 127
1, 316640, Note_off_c, 1, 65, 0
1, 316775, Note_off_c, 1, 79, 0
1, 316776, Note_on_c, 1, 81, 127
1, 317316, Note_off_c, 1, 81, 0
1, 318399, Note_on_c, 1, 62, 127
1, 318399, Note_on_c, 1, 81, 127
1, 318669, Note_off_c, 1, 62, 0
1, 318670, Note_on_c, 1, 63, 127
1, 318670, Note_on_c, 1, 70, 127
1, 318804, Note_off_c, 1, 63, 0
1, 318805, Note_on_c, 1, 65, 127
1, 318939, Note_off_c, 1, 81, 0
1, 318939, Note_off_c, 1, 65, 0
1, 318940, Note_on_c, 1, 79, 127
1, 319210, Note_off_c, 1, 70, 0
1, 319346, Note_on_c, 1, 67, 127
1, 319480, Note_off_c, 1, 79, 0
1, 319480, Note_off_c, 1, 67, 0
1, 319481, Note_on_c, 1, 60, 127
1, 319481, Note_on_c, 1, 79, 127
1, 319751, Note_off_c, 1, 60, 0
1, 319752, Note_on_c, 1, 62, 127
1, 319752, Note_on_c, 1, 69, 127
1, 319886, Note_off_c, 1, 62, 0
1, 319887, Note_on_c, 1, 63, 127
1, 320021, Note_off_c, 1, 79, 0
1, 320021, Note_off_c, 1, 63, 0
1, 320022, Note_on_c, 1, 77, 127
1, 320292, Note_off_c, 1, 69, 0
1, 320428, Note_on_c, 1, 65, 127
1, 320562, Note_off_c, 1, 77, 0
1, 320562, Note_off_c, 1, 65, 0
1, 320563, Note_on_c, 1, 74, 127
1, 320563, Note_on_c, 1, 58, 127
1, 320563, Note_on_c, 1, 77, 127
1, 320833, Note_off_c, 1, 74, 0
1, 320833, Note_off_c, 1, 58, 0
1, 320834, Note_on_c, 1, 60, 127
1, 320834, Note_on_c, 1, 70, 127
1, 320968, Note_off_c, 1, 60, 0
1, 320969, Note_on_c, 1, 62, 127
1, 321103, Note_off_c, 1, 70, 0
1, 321103, Note_off_c, 1, 62, 0
1, 321104, Note_on_c, 1, 69, 127
1, 321104, Note_on_c, 1, 53, 127
1, 321374, Note_off_c, 1, 77, 0
1, 321374, Note_off_c, 1, 69, 0
1, 321510, Note_on_c, 1, 65, 127
1, 321640, Note_off_c, 1, 53, 0
1, 321644, Note_off_c, 1, 65, 0
1, 321645, Note_on_c, 1, 63, 127
1, 321645, Note_on_c, 1, 65, 127
1, 321781, Note_on_c, 1, 72, 127
1, 321915, Note_off_c, 1, 63, 0
1, 321915, Note_off_c, 1, 72, 0
1, 321916, Note_on_c, 1, 70, 127
1, 321916, Note_on_c, 1, 53, 127
1, 321916, Note_on_c, 1, 62, 127
1, 322050, Note_off_c, 1, 70, 0
1, 322050, Note_off_c, 1, 53, 0
1, 322050, Note_off_c, 1, 62, 0
1, 322051, Note_on_c, 1, 69, 127
1, 322051, Note_on_c, 1, 60, 127
1, 322181, Note_off_c, 1, 65, 0
1, 322185, Note_off_c, 1, 69, 0
1, 322185, Note_off_c, 1, 60, 0
1, 322186, Note_on_c, 1, 58, 127
1, 322186, Note_on_c, 1, 62, 127
1, 322186, Note_on_c, 1, 70, 127
1, 322456, Note_off_c, 1, 58, 0
1, 322457, Note_on_c, 1, 74, 127
1, 322581, Note_off_c, 1, 62, 0
1, 322591, Note_off_c, 1, 74, 0
1, 322722, Note_off_c, 1, 70, 0
1, 322727, Note_on_c, 1, 62, 127
1, 322727, Note_on_c, 1, 58, 127
1, 322863, Note_on_c, 1, 65, 127
1, 322996, Note_off_c, 1, 62, 0
1, 322997, Note_off_c, 1, 58, 0
1, 322997, Note_off_c, 1, 65, 0
1, 322998, Note_on_c, 1, 63, 127
1, 322998, Note_on_c, 1, 58, 127
1, 323132, Note_off_c, 1, 63, 0
1, 323133, Note_on_c, 1, 62, 127
1, 323267, Note_off_c, 1, 58, 0
1, 323267, Note_off_c, 1, 62, 0
1, 323268, Note_on_c, 1, 57, 127
1, 323268, Note_on_c, 1, 60, 127
1, 323538, Note_off_c, 1, 57, 0
1, 323539, Note_on_c, 1, 69, 127
1, 323539, Note_on_c, 1, 53, 127
1, 323673, Note_off_c, 1, 69, 0
1, 323674, Note_on_c, 1, 67, 127
1, 323804, Note_off_c, 1, 60, 0
1, 323808, Note_off_c, 1, 53, 0
1, 323808, Note_off_c, 1, 67, 0
1, 323809, Note_on_c, 1, 69, 127
1, 323809, Note_on_c, 1, 53, 127
1, 323943, Note_off_c, 1, 69, 0
1, 323944, Note_on_c, 1, 70, 127
1, 324078, Note_off_c, 1, 53, 0
1, 324078, Note_off_c, 1, 70, 0
1, 324079, Note_on_c, 1, 69, 127
1, 324079, Note_on_c, 1, 53, 127
1, 324213, Note_off_c, 1, 69, 0
1, 324213, Note_off_c, 1, 53, 0
1, 324214, Note_on_c, 1, 67, 127
1, 324214, Note_on_c, 1, 53, 127
1, 324348, Note_off_c, 1, 67, 0
1, 324348, Note_off_c, 1, 53, 0
1, 324349, Note_on_c, 1, 62, 127
1, 324349, Note_on_c, 1, 65, 127
1, 324619, Note_off_c, 1, 62, 0
1, 324620, Note_on_c, 1, 70, 127
1, 324754, Note_off_c, 1, 70, 0
1, 324755, Note_on_c, 1, 72, 127
1, 324885, Note_off_c, 1, 65, 0
1, 324889, Note_off_c, 1, 72, 0
1, 324890, Note_on_c, 1, 70, 127
1, 324890, Note_on_c, 1, 62, 127
1, 325024, Note_off_c, 1, 70, 0
1, 325025, Note_on_c, 1, 69, 127
1, 325159, Note_off_c, 1, 62, 0
1, 325159, Note_off_c, 1, 69, 0
1, 325160, Note_on_c, 1, 67, 127
1, 325160, Note_on_c, 1, 62, 127
1, 325294, Note_off_c, 1, 67, 0
1, 325295, Note_on_c, 1, 65, 127
1, 325429, Note_off_c, 1, 62, 0
1, 325429, Note_off_c, 1, 65, 0
1, 325430, Note_on_c, 1, 55, 127
1, 325430, Note_on_c, 1, 63, 127
1, 325700, Note_off_c, 1, 55, 0
1, 325701, Note_on_c, 1, 79, 127
1, 325701, Note_on_c, 1, 51, 127
1, 325835, Note_off_c, 1, 79, 0
1, 325836, Note_on_c, 1, 67, 127
1, 325966, Note_off_c, 1, 63, 0
1, 325970, Note_off_c, 1, 51, 0
1, 325970, Note_off_c, 1, 67, 0
1, 325971, Note_on_c, 1, 51, 127
1, 325971, Note_on_c, 1, 67, 127
1, 326107, Note_on_c, 1, 65, 127
1, 326241, Note_off_c, 1, 51, 0
1, 326241, Note_off_c, 1, 65, 0
1, 326242, Note_on_c, 1, 63, 127
1, 326242, Note_on_c, 1, 60, 127
1, 326376, Note_off_c, 1, 63, 0
1, 326377, Note_on_c, 1, 62, 127
1, 326507, Note_off_c, 1, 67, 0
1, 326511, Note_off_c, 1, 60, 0
1, 326511, Note_off_c, 1, 62, 0
1, 326512, Note_on_c, 1, 53, 127
1, 326512, Note_on_c, 1, 60, 127
1, 326782, Note_off_c, 1, 53, 0
1, 326783, Note_on_c, 1, 77, 127
1, 326783, Note_on_c, 1, 50, 127
1, 326917, Note_off_c, 1, 77, 0
1, 326918, Note_on_c, 1, 65, 127
1, 327048, Note_off_c, 1, 60, 0
1, 327052, Note_off_c, 1, 50, 0
1, 327052, Note_off_c, 1, 65, 0
1, 327053, Note_on_c, 1, 50, 127
1, 327053, Note_on_c, 1, 65, 127
1, 327189, Note_on_c, 1, 59, 127
1, 327323, Note_off_c, 1, 50, 0
1, 327323, Note_off_c, 1, 59, 0
1, 327324, Note_on_c, 1, 60, 127
1, 327458, Note_off_c, 1, 60, 0
1, 327459, Note_on_c, 1, 62, 127
1, 327589, Note_off_c, 1, 65, 0
1, 327593, Note_off_c, 1, 62, 0
1, 327594, Note_on_c, 1, 63, 127
1, 327594, Note_on_c, 1, 60, 127
1, 327730, Note_on_c, 1, 75, 127
1, 327864, Note_off_c, 1, 63, 0
1, 327864, Note_off_c, 1, 60, 0
1, 327864, Note_off_c, 1, 75, 0
1, 327865, Note_on_c, 1, 74, 127
1, 327865, Note_on_c, 1, 62, 127
1, 327865, Note_on_c, 1, 67, 127
1, 327999, Note_off_c, 1, 74, 0
1, 327999, Note_off_c, 1, 62, 0
1, 328000, Note_on_c, 1, 72, 127
1, 328000, Note_on_c, 1, 63, 127
1, 328134, Note_off_c, 1, 67, 0
1, 328134, Note_off_c, 1, 72, 0
1, 328134, Note_off_c, 1, 63, 0
1, 328135, Note_on_c, 1, 72, 127
1, 328135, Note_on_c, 1, 57, 127
1, 328135, Note_on_c, 1, 77, 127
1, 328405, Note_off_c, 1, 72, 0
1, 328405, Note_off_c, 1, 57, 0
1, 328406, Note_on_c, 1, 58, 127
1, 328406, Note_on_c, 1, 65, 127
1, 328540, Note_off_c, 1, 58, 0
1, 328541, Note_on_c, 1, 60, 127
1, 328675, Note_off_c, 1, 65, 0
1, 328675, Note_off_c, 1, 60, 0
1, 328676, Note_on_c, 1, 74, 127
1, 328810, Note_off_c, 1, 77, 0
1, 328945, Note_off_c, 1, 74, 0
1, 329081, Note_on_c, 1, 62, 127
1, 329215, Note_off_c, 1, 62, 0
1, 331106, Note_on_c, 1, 70, 127
1, 331375, Note_off_c, 1, 70, 0
1, 331376, Note_on_c, 1, 63, 127
1, 331376, Note_on_c, 1, 67, 127
1, 331511, Note_on_c, 1, 75, 127
1, 331645, Note_off_c, 1, 63, 0
1, 331780, Note_off_c, 1, 75, 0
1, 331915, Note_off_c, 1, 67, 0
1, 331916, Note_on_c, 1, 69, 127
1, 331916, Note_on_c, 1, 41, 127
1, 332186, Note_off_c, 1, 69, 0
1, 332186, Note_off_c, 1, 41, 0
1, 332187, Note_on_c, 1, 65, 127
1, 332187, Note_on_c, 1, 74, 127
1, 332187, Note_on_c, 1, 70, 127
1, 332321, Note_off_c, 1, 65, 0
1, 332322, Note_on_c, 1, 53, 127
1, 332456, Note_off_c, 1, 74, 0
1, 332456, Note_off_c, 1, 53, 0
1, 332457, Note_on_c, 1, 72, 127
1, 332727, Note_off_c, 1, 70, 0
1, 332728, Note_on_c, 1, 41, 127
1, 332728, Note_on_c, 1, 69, 127
1, 332862, Note_off_c, 1, 41, 0
1, 332997, Note_off_c, 1, 72, 0
1, 332997, Note_off_c, 1, 69, 0
1, 332998, Note_on_c, 1, 70, 127
1, 332998, Note_on_c, 1, 46, 127
1, 333268, Note_off_c, 1, 70, 0
1, 333268, Note_off_c, 1, 46, 0
1, 333269, Note_on_c, 1, 62, 127
1, 333269, Note_on_c, 1, 65, 127
1, 333269, Note_on_c, 1, 46, 127
1, 333403, Note_off_c, 1, 62, 0
1, 333404, Note_on_c, 1, 50, 127
1, 333537, Note_off_c, 1, 65, 0
1, 333538, Note_off_c, 1, 46, 0
1, 333538, Note_off_c, 1, 50, 0
1, 333539, Note_on_c, 1, 50, 127
1, 333539, Note_on_c, 1, 46, 127
1, 333673, Note_off_c, 1, 50, 0
1, 333674, Note_on_c, 1, 65, 127
1, 333808, Note_off_c, 1, 46, 0
1, 333808, Note_off_c, 1, 65, 0
1, 333809, Note_on_c, 1, 63, 127
1, 333809, Note_on_c, 1, 46, 127
1, 333943, Note_off_c, 1, 63, 0
1, 333944, Note_on_c, 1, 62, 127
1, 334078, Note_off_c, 1, 46, 0
1, 334078, Note_off_c, 1, 62, 0
1, 334079, Note_on_c, 1, 60, 127
1, 334079, Note_on_c, 1, 45, 127
1, 334349, Note_off_c, 1, 60, 0
1, 334349, Note_off_c, 1, 45, 0
1, 334350, Note_on_c, 1, 57, 127
1, 334350, Note_on_c, 1, 41, 127
1, 334484, Note_off_c, 1, 57, 0
1, 334485, Note_on_c, 1, 55, 127
1, 334619, Note_off_c, 1, 41, 0
1, 334619, Note_off_c, 1, 55, 0
1, 334620, Note_on_c, 1, 57, 127
1, 334620, Note_on_c, 1, 41, 127
1, 334754, Note_off_c, 1, 57, 0
1, 334755, Note_on_c, 1, 58, 127
1, 334889, Note_off_c, 1, 41, 0
1, 334889, Note_off_c, 1, 58, 0
1, 334890, Note_on_c, 1, 57, 127
1, 334890, Note_on_c, 1, 41, 127
1, 335024, Note_off_c, 1, 57, 0
1, 335024, Note_off_c, 1, 41, 0
1, 335025, Note_on_c, 1, 55, 127
1, 335025, Note_on_c, 1, 41, 127
1, 335159, Note_off_c, 1, 55, 0
1, 335159, Note_off_c, 1, 41, 0
1, 335160, Note_on_c, 1, 50, 127
1, 335160, Note_on_c, 1, 53, 127
1, 335430, Note_off_c, 1, 50, 0
1, 335431, Note_on_c, 1, 62, 127
1, 335565, Note_off_c, 1, 62, 0
1, 335566, Note_on_c, 1, 63, 127
1, 335696, Note_off_c, 1, 53, 0
1, 335700, Note_off_c, 1, 63, 0
1, 335701, Note_on_c, 1, 62, 127
1, 335701, Note_on_c, 1, 50, 127
1, 335835, Note_off_c, 1, 62, 0
1, 335836, Note_on_c, 1, 60, 127
1, 335970, Note_off_c, 1, 50, 0
1, 335970, Note_off_c, 1, 60, 0
1, 335971, Note_on_c, 1, 58, 127
1, 335971, Note_on_c, 1, 50, 127
1, 336105, Note_off_c, 1, 58, 0
1, 336106, Note_on_c, 1, 60, 127
1, 336240, Note_off_c, 1, 50, 0
1, 336240, Note_off_c, 1, 60, 0
1, 336241, Note_on_c, 1, 43, 127
1, 336241, Note_on_c, 1, 58, 127
1, 336511, Note_off_c, 1, 43, 0
1, 336512, Note_on_c, 1, 67, 127
1, 336512, Note_on_c, 1, 39, 127
1, 336646, Note_off_c, 1, 67, 0
1, 336647, Note_on_c, 1, 55, 127
1, 336777, Note_off_c, 1, 58, 0
1, 336781, Note_off_c, 1, 39, 0
1, 336781, Note_off_c, 1, 55, 0
1, 336782, Note_on_c, 1, 39, 127
1, 336782, Note_on_c, 1, 55, 127
1, 336918, Note_on_c, 1, 60, 127
1, 337052, Note_off_c, 1, 39, 0
1, 337052, Note_off_c, 1, 60, 0
1, 337053, Note_on_c, 1, 62, 127
1, 337053, Note_on_c, 1, 48, 127
1, 337187, Note_off_c, 1, 62, 0
1, 337188, Note_on_c, 1, 63, 127
1, 337318, Note_off_c, 1, 55, 0
1, 337322, Note_off_c, 1, 48, 0
1, 337322, Note_off_c, 1, 63, 0
1, 337323, Note_on_c, 1, 41, 127
1, 337323, Note_on_c, 1, 62, 127
1, 337593, Note_off_c, 1, 41, 0
1, 337594, Note_on_c, 1, 65, 127
1, 337594, Note_on_c, 1, 38, 127
1, 337728, Note_off_c, 1, 65, 0
1, 337729, Note_on_c, 1, 53, 127
1, 337859, Note_off_c, 1, 62, 0
1, 337863, Note_off_c, 1, 38, 0
1, 337863, Note_off_c, 1, 53, 0
1, 337864, Note_on_c, 1, 38, 127
1, 337864, Note_on_c, 1, 53, 127
1, 338000, Note_on_c, 1, 58, 127
1, 338134, Note_off_c, 1, 38, 0
1, 338134, Note_off_c, 1, 58, 0
1, 338135, Note_on_c, 1, 60, 127
1, 338135, Note_on_c, 1, 46, 127
1, 338269, Note_off_c, 1, 60, 0
1, 338270, Note_on_c, 1, 62, 127
1, 338400, Note_off_c, 1, 53, 0
1, 338404, Note_off_c, 1, 46, 0
1, 338404, Note_off_c, 1, 62, 0
1, 338405, Note_on_c, 1, 39, 127
1, 338405, Note_on_c, 1, 60, 127
1, 338675, Note_off_c, 1, 39, 0
1, 338676, Note_on_c, 1, 63, 127
1, 338676, Note_on_c, 1, 36, 127
1, 338810, Note_off_c, 1, 63, 0
1, 338811, Note_on_c, 1, 51, 127
1, 338941, Note_off_c, 1, 60, 0
1, 338945, Note_off_c, 1, 36, 0
1, 338945, Note_off_c, 1, 51, 0
1, 338946, Note_on_c, 1, 36, 127
1, 338946, Note_on_c, 1, 51, 127
1, 339082, Note_on_c, 1, 57, 127
1, 339216, Note_off_c, 1, 36, 0
1, 339216, Note_off_c, 1, 57, 0
1, 339217, Note_on_c, 1, 58, 127
1, 339217, Note_on_c, 1, 45, 127
1, 339351, Note_off_c, 1, 58, 0
1, 339352, Note_on_c, 1, 60, 127
1, 339482, Note_off_c, 1, 51, 0
1, 339486, Note_off_c, 1, 45, 0
1, 339486, Note_off_c, 1, 60, 0
1, 339487, Note_on_c, 1, 46, 127
1, 339487, Note_on_c, 1, 62, 127
1, 339757, Note_off_c, 1, 46, 0
1, 339758, Note_on_c, 1, 60, 127
1, 339758, Note_on_c, 1, 48, 127
1, 339892, Note_off_c, 1, 60, 0
1, 339892, Note_off_c, 1, 48, 0
1, 339893, Note_on_c, 1, 58, 127
1, 339893, Note_on_c, 1, 50, 127
1, 340027, Note_off_c, 1, 62, 0
1, 340027, Note_off_c, 1, 58, 0
1, 340027, Note_off_c, 1, 50, 0
1, 340028, Note_on_c, 1, 60, 127
1, 340028, Note_on_c, 1, 45, 127
1, 340028, Note_on_c, 1, 63, 127
1, 340298, Note_off_c, 1, 60, 0
1, 340298, Note_off_c, 1, 45, 0
1, 340299, Note_on_c, 1, 46, 127
1, 340299, Note_on_c, 1, 53, 127
1, 340433, Note_off_c, 1, 46, 0
1, 340434, Note_on_c, 1, 48, 127
1, 340568, Note_off_c, 1, 63, 0
1, 340568, Note_off_c, 1, 53, 0
1, 340568, Note_off_c, 1, 48, 0
1, 340569, Note_on_c, 1, 58, 127
1, 340569, Note_on_c, 1, 46, 127
1, 340569, Note_on_c, 1, 62, 127
1, 340839, Note_off_c, 1, 58, 0
1, 340839, Note_off_c, 1, 46, 0
1, 340840, Note_on_c, 1, 48, 127
1, 340840, Note_on_c, 1, 53, 127
1, 340974, Note_off_c, 1, 48, 0
1, 340975, Note_on_c, 1, 50, 127
1, 341109, Note_off_c, 1, 62, 0
1, 341109, Note_off_c, 1, 53, 0
1, 341109, Note_off_c, 1, 50, 0
1, 341110, Note_on_c, 1, 60, 127
1, 341110, Note_on_c, 1, 45, 127
1, 341110, Note_on_c, 1, 63, 127
1, 341380, Note_off_c, 1, 60, 0
1, 341380, Note_off_c, 1, 45, 0
1, 341381, Note_on_c, 1, 46, 127
1, 341381, Note_on_c, 1, 53, 127
1, 341515, Note_off_c, 1, 46, 0
1, 341516, Note_on_c, 1, 48, 127
1, 341650, Note_off_c, 1, 63, 0
1, 341650, Note_off_c, 1, 53, 0
1, 341650, Note_off_c, 1, 48, 0
1, 341651, Note_on_c, 1, 62, 127
1, 341651, Note_on_c, 1, 53, 127
1, 341651, Note_on_c, 1, 46, 127
1, 341921, Note_off_c, 1, 62, 0
1, 341922, Note_on_c, 1, 82, 127
1, 342058, Note_on_c, 1, 70, 127
1, 342188, Note_off_c, 1, 53, 0
1, 342188, Note_off_c, 1, 46, 0
1, 342191, Note_off_c, 1, 82, 0
1, 342192, Note_off_c, 1, 70, 0
1, 342193, Note_on_c, 1, 70, 127
1, 342463, Note_off_c, 1, 70, 0
1, 342464, Note_on_c, 1, 82, 127
1, 342464, Note_on_c, 1, 48, 127
1, 342464, Note_on_c, 1, 51, 127
1, 342600, Note_on_c, 1, 70, 127
1, 342733, Note_off_c, 1, 82, 0
1, 342734, Note_off_c, 1, 48, 0
1, 342734, Note_off_c, 1, 51, 0
1, 342734, Note_off_c, 1, 70, 0
1, 342735, Note_on_c, 1, 70, 127
1, 342735, Note_on_c, 1, 50, 127
1, 342735, Note_on_c, 1, 53, 127
1, 342871, Note_on_c, 1, 82, 127
1, 343004, Note_off_c, 1, 70, 0
1, 343005, Note_off_c, 1, 50, 0
1, 343005, Note_off_c, 1, 53, 0
1, 343005, Note_off_c, 1, 82, 0
1, 343006, Note_on_c, 1, 82, 127
1, 343006, Note_on_c, 1, 48, 127
1, 343006, Note_on_c, 1, 51, 127
1, 343142, Note_on_c, 1, 70, 127
1, 343275, Note_off_c, 1, 82, 0
1, 343276, Note_off_c, 1, 48, 0
1, 343276, Note_off_c, 1, 51, 0
1, 343276, Note_off_c, 1, 70, 0
1, 343277, Note_on_c, 1, 70, 127
1, 343277, Note_on_c, 1, 50, 127
1, 343277, Note_on_c, 1, 53, 127
1, 343413, Note_on_c, 1, 82, 127
1, 343546, Note_off_c, 1, 70, 0
1, 343547, Note_off_c, 1, 50, 0
1, 343547, Note_off_c, 1, 53, 0
1, 343547, Note_off_c, 1, 82, 0
1, 343548, Note_on_c, 1, 82, 127
1, 343548, Note_on_c, 1, 52, 127
1, 343548, Note_on_c, 1, 55, 127
1, 343684, Note_on_c, 1, 70, 127
1, 343817, Note_off_c, 1, 82, 0
1, 343818, Note_off_c, 1, 52, 0
1, 343818, Note_off_c, 1, 55, 0
1, 343818, Note_off_c, 1, 70, 0
1, 343819, Note_on_c, 1, 60, 127
1, 343819, Note_on_c, 1, 53, 127
1, 343819, Note_on_c, 1, 69, 127
1, 343955, Note_on_c, 1, 81, 127
1, 344089, Note_off_c, 1, 60, 0
1, 344089, Note_off_c, 1, 53, 0
1, 344089, Note_off_c, 1, 81, 0
1, 344090, Note_on_c, 1, 50, 127
1, 344090, Note_on_c, 1, 58, 127
1, 344214, Note_off_c, 1, 69, 0
1, 344359, Note_off_c, 1, 50, 0
1, 344360, Note_on_c, 1, 51, 127
1, 344360, Note_on_c, 1, 67, 127
1, 344496, Note_on_c, 1, 79, 127
1, 344630, Note_off_c, 1, 58, 0
1, 344630, Note_off_c, 1, 51, 0
1, 344630, Note_off_c, 1, 79, 0
1, 344631, Note_on_c, 1, 48, 127
1, 344631, Note_on_c, 1, 57, 127
1, 344755, Note_off_c, 1, 67, 0
1, 344900, Note_off_c, 1, 48, 0
1, 344901, Note_on_c, 1, 65, 127
1, 345037, Note_on_c, 1, 77, 127
1, 345171, Note_off_c, 1, 57, 0
1, 345171, Note_off_c, 1, 77, 0
1, 345172, Note_on_c, 1, 46, 127
1, 345172, Note_on_c, 1, 55, 127
1, 345296, Note_off_c, 1, 65, 0
1, 345441, Note_off_c, 1, 46, 0
1, 345442, Note_on_c, 1, 63, 127
1, 345578, Note_on_c, 1, 75, 127
1, 345711, Note_off_c, 1, 63, 0
1, 345712, Note_off_c, 1, 55, 0
1, 345712, Note_off_c, 1, 75, 0
1, 345713, Note_on_c, 1, 75, 127
1, 345713, Note_on_c, 1, 45, 127
1, 345713, Note_on_c, 1, 53, 127
1, 345847, Note_off_c, 1, 75, 0
1, 345848, Note_on_c, 1, 63, 127
1, 345982, Note_off_c, 1, 45, 0
1, 345982, Note_off_c, 1, 63, 0
1, 345983, Note_on_c, 1, 62, 127
1, 345983, Note_on_c, 1, 46, 127
1, 346117, Note_off_c, 1, 62, 0
1, 346118, Note_on_c, 1, 65, 127
1, 346252, Note_off_c, 1, 46, 0
1, 346252, Note_off_c, 1, 65, 0
1, 346253, Note_on_c, 1, 48, 127
1, 346388, Note_on_c, 1, 67, 127
1, 346522, Note_off_c, 1, 53, 0
1, 346522, Note_off_c, 1, 48, 0
1, 346522, Note_off_c, 1, 67, 0
1, 346523, Note_on_c, 1, 65, 127
1, 346523, Note_on_c, 1, 50, 127
1, 346657, Note_off_c, 1, 65, 0
1, 346658, Note_on_c, 1, 69, 127
1, 346792, Note_off_c, 1, 50, 0
1, 346792, Note_off_c, 1, 69, 0
1, 346793, Note_on_c, 1, 67, 127
1, 346793, Note_on_c, 1, 46, 127
1, 346927, Note_off_c, 1, 67, 0
1, 346928, Note_on_c, 1, 70, 127
1, 347062, Note_off_c, 1, 46, 0
1, 347062, Note_off_c, 1, 70, 0
1, 347063, Note_on_c, 1, 65, 127
1, 347063, Note_on_c, 1, 41, 127
1, 347063, Note_on_c, 1, 69, 127
1, 347197, Note_off_c, 1, 65, 0
1, 347197, Note_off_c, 1, 41, 0
1, 347198, Note_on_c, 1, 53, 127
1, 347332, Note_off_c, 1, 53, 0
1, 347333, Note_on_c, 1, 74, 127
1, 347598, Note_off_c, 1, 69, 0
1, 347603, Note_on_c, 1, 63, 127
1, 347603, Note_on_c, 1, 67, 127
1, 347737, Note_off_c, 1, 63, 0
1, 347738, Note_on_c, 1, 51, 127
1, 347872, Note_off_c, 1, 74, 0
1, 347872, Note_off_c, 1, 51, 0
1, 347873, Note_on_c, 1, 72, 127
1, 348142, Note_off_c, 1, 67, 0
1, 348143, Note_on_c, 1, 62, 127
1, 348277, Note_off_c, 1, 62, 0
1, 348278, Note_on_c, 1, 50, 127
1, 348412, Note_off_c, 1, 72, 0
1, 348412, Note_off_c, 1, 50, 0
1, 348413, Note_on_c, 1, 70, 127
1, 348683, Note_on_c, 1, 60, 127
1, 348817, Note_off_c, 1, 60, 0
1, 348818, Note_on_c, 1, 48, 127
1, 348952, Note_off_c, 1, 70, 0
1, 348952, Note_off_c, 1, 48, 0
1, 349223, Note_on_c, 1, 74, 127
1, 349223, Note_on_c, 1, 62, 127
1, 349223, Note_on_c, 1, 58, 127
1, 349362, Note_on_c, 1, 79, 127
1, 349498, Note_off_c, 1, 74, 0
1, 349499, Note_off_c, 1, 62, 0
1, 349499, Note_off_c, 1, 79, 0
1, 349500, Note_on_c, 1, 67, 127
1, 349639, Note_on_c, 1, 70, 127
1, 349776, Note_off_c, 1, 58, 0
1, 349776, Note_off_c, 1, 70, 0
1, 349777, Note_on_c, 1, 72, 127
1, 349777, Note_on_c, 1, 57, 127
1, 349777, Note_on_c, 1, 60, 127
1, 349916, Note_on_c, 1, 78, 127
1, 350053, Note_off_c, 1, 67, 0
1, 350053, Note_off_c, 1, 78, 0
1, 350054, Note_on_c, 1, 66, 127
1, 350181, Note_off_c, 1, 72, 0
1, 350192, Note_on_c, 1, 69, 127
1, 350329, Note_off_c, 1, 57, 0
1, 350329, Note_off_c, 1, 60, 0
1, 350329, Note_off_c, 1, 66, 0
1, 350329, Note_off_c, 1, 69, 0
1, 350330, Note_on_c, 1, 62, 127
1, 350330, Note_on_c, 1, 70, 127
1, 350330, Note_on_c, 1, 67, 127
1, 350330, Note_on_c, 1, 55, 127
1, 350469, Note_on_c, 1, 82, 127
1, 350605, Note_off_c, 1, 62, 0
1, 350606, Note_off_c, 1, 82, 0
1, 350607, Note_on_c, 1, 63, 127
1, 350734, Note_off_c, 1, 70, 0
1, 350878, Note_off_c, 1, 67, 0
1, 350882, Note_off_c, 1, 55, 0
1, 350883, Note_on_c, 1, 69, 127
1, 350883, Note_on_c, 1, 53, 127
1, 351022, Note_on_c, 1, 81, 127
1, 351159, Note_off_c, 1, 63, 0
1, 351159, Note_off_c, 1, 81, 0
1, 351287, Note_off_c, 1, 69, 0
1, 351435, Note_off_c, 1, 53, 0
1, 351436, Note_on_c, 1, 58, 127
1, 351582, Note_on_c, 1, 79, 127
1, 351727, Note_off_c, 1, 58, 0
1, 351727, Note_off_c, 1, 79, 0
1, 351729, Note_on_c, 1, 73, 127
1, 351729, Note_on_c, 1, 64, 127
1, 351729, Note_on_c, 1, 57, 127
1, 351875, Note_on_c, 1, 79, 127
1, 352018, Note_off_c, 1, 73, 0
1, 352020, Note_off_c, 1, 64, 0
1, 352020, Note_off_c, 1, 57, 0
1, 352020, Note_off_c, 1, 79, 0
1, 352022, Note_on_c, 1, 74, 127
1, 352022, Note_on_c, 1, 50, 127
1, 352022, Note_on_c, 1, 62, 127
1, 352168, Note_on_c, 1, 78, 127
1, 352311, Note_off_c, 1, 74, 0
1, 352313, Note_off_c, 1, 50, 0
1, 352313, Note_off_c, 1, 62, 0
1, 352313, Note_off_c, 1, 78, 0
1, 352315, Note_on_c, 1, 71, 127
1, 352315, Note_on_c, 1, 55, 127
1, 352461, Note_on_c, 1, 77, 127
1, 352604, Note_off_c, 1, 71, 0
1, 352606, Note_off_c, 1, 55, 0
1, 352606, Note_off_c, 1, 77, 0
1, 352608, Note_on_c, 1, 72, 127
1, 352608, Note_on_c, 1, 48, 127
1, 352608, Note_on_c, 1, 60, 127
1, 352754, Note_on_c, 1, 76, 127
1, 352897, Note_off_c, 1, 72, 0
1, 352899, Note_off_c, 1, 48, 0
1, 352899, Note_off_c, 1, 76, 0
1, 352901, Note_on_c, 1, 69, 127
1, 352901, Note_on_c, 1, 53, 127
1, 353047, Note_on_c, 1, 75, 127
1, 353187, Note_off_c, 1, 60, 0
1, 353190, Note_off_c, 1, 69, 0
1, 353192, Note_off_c, 1, 53, 0
1, 353192, Note_off_c, 1, 75, 0
1, 353194, Note_on_c, 1, 70, 127
1, 353194, Note_on_c, 1, 58, 127
1, 353340, Note_on_c, 1, 74, 127
1, 353483, Note_off_c, 1, 70, 0
1, 353486, Note_on_c, 1, 64, 127
1, 353486, Note_on_c, 1, 55, 127
1, 353629, Note_off_c, 1, 74, 0
1, 353631, Note_off_c, 1, 64, 0
1, 353633, Note_on_c, 1, 73, 127
1, 353773, Note_off_c, 1, 58, 0
1, 353778, Note_off_c, 1, 55, 0
1, 353778, Note_off_c, 1, 73, 0
1, 353780, Note_on_c, 1, 74, 127
1, 353780, Note_on_c, 1, 53, 127
1, 353780, Note_on_c, 1, 57, 127
1, 353924, Note_off_c, 1, 74, 0
1, 353926, Note_on_c, 1, 69, 127
1, 354070, Note_off_c, 1, 53, 0
1, 354070, Note_off_c, 1, 57, 0
1, 354070, Note_off_c, 1, 69, 0
1, 354072, Note_on_c, 1, 67, 127
1, 354072, Note_on_c, 1, 55, 127
1, 354072, Note_on_c, 1, 58, 127
1, 354216, Note_off_c, 1, 67, 0
1, 354218, Note_on_c, 1, 65, 127
1, 354362, Note_off_c, 1, 55, 0
1, 354362, Note_off_c, 1, 58, 0
1, 354362, Note_off_c, 1, 65, 0
1, 354364, Note_on_c, 1, 64, 127
1, 354364, Note_on_c, 1, 56, 127
1, 354364, Note_on_c, 1, 59, 127
1, 354510, Note_on_c, 1, 74, 127
1, 354653, Note_off_c, 1, 64, 0
1, 354655, Note_off_c, 1, 56, 0
1, 354655, Note_off_c, 1, 59, 0
1, 354657, Note_on_c, 1, 57, 127
1, 354657, Note_on_c, 1, 45, 127
1, 354800, Note_off_c, 1, 74, 0
1, 354803, Note_on_c, 1, 73, 127
1, 354948, Note_off_c, 1, 57, 0
1, 354948, Note_off_c, 1, 45, 0
1, 354948, Note_off_c, 1, 73, 0
1, 354950, Note_on_c, 1, 53, 127
1, 354950, Note_on_c, 1, 62, 127
1, 354950, Note_on_c, 1, 74, 127
1, 354950, Note_on_c, 1, 50, 127
1, 355220, Note_off_c, 1, 53, 0
1, 355221, Note_on_c, 1, 55, 127
1, 355355, Note_off_c, 1, 55, 0
1, 355356, Note_on_c, 1, 57, 127
1, 355486, Note_off_c, 1, 62, 0
1, 355486, Note_off_c, 1, 74, 0
1, 355486, Note_off_c, 1, 50, 0
1, 355490, Note_off_c, 1, 57, 0
1, 355491, Note_on_c, 1, 58, 127
1, 355627, Note_on_c, 1, 53, 127
1, 355761, Note_off_c, 1, 53, 0
1, 355762, Note_on_c, 1, 62, 127
1, 355762, Note_on_c, 1, 52, 127
1, 355896, Note_off_c, 1, 62, 0
1, 355896, Note_off_c, 1, 52, 0
1, 355897, Note_on_c, 1, 50, 127
1, 356027, Note_off_c, 1, 58, 0
1, 356031, Note_off_c, 1, 50, 0
1, 356032, Note_on_c, 1, 49, 127
1, 356032, Note_on_c, 1, 69, 127
1, 356166, Note_off_c, 1, 49, 0
1, 356167, Note_on_c, 1, 50, 127
1, 356301, Note_off_c, 1, 69, 0
1, 356301, Note_off_c, 1, 50, 0
1, 356302, Note_on_c, 1, 49, 127
1, 356302, Note_on_c, 1, 69, 127
1, 356436, Note_off_c, 1, 49, 0
1, 356437, Note_on_c, 1, 47, 127
1, 356571, Note_off_c, 1, 69, 0
1, 356571, Note_off_c, 1, 47, 0
1, 356572, Note_on_c, 1, 69, 127
1, 356572, Note_on_c, 1, 45, 127
1, 356842, Note_off_c, 1, 69, 0
1, 356842, Note_off_c, 1, 45, 0
1, 356843, Note_on_c, 1, 57, 127
1, 356843, Note_on_c, 1, 69, 127
1, 356843, Note_on_c, 1, 49, 127
1, 356977, Note_off_c, 1, 57, 0
1, 357111, Note_off_c, 1, 69, 0
1, 357112, Note_off_c, 1, 49, 0
1, 357113, Note_on_c, 1, 65, 127
1, 357113, Note_on_c, 1, 62, 127
1, 357113, Note_on_c, 1, 50, 127
1, 357383, Note_off_c, 1, 65, 0
1, 357383, Note_off_c, 1, 62, 0
1, 357383, Note_off_c, 1, 50, 0
1, 357384, Note_on_c, 1, 77, 127
1, 357384, Note_on_c, 1, 62, 127
1, 357384, Note_on_c, 1, 52, 127
1, 357518, Note_off_c, 1, 77, 0
1, 357519, Note_on_c, 1, 65, 127
1, 357653, Note_off_c, 1, 62, 0
1, 357653, Note_off_c, 1, 52, 0
1, 357653, Note_off_c, 1, 65, 0
1, 357654, Note_on_c, 1, 62, 127
1, 357654, Note_on_c, 1, 53, 127
1, 357654, Note_on_c, 1, 65, 127
1, 357924, Note_off_c, 1, 62, 0
1, 357924, Note_off_c, 1, 53, 0
1, 357925, Note_on_c, 1, 55, 127
1, 358190, Note_off_c, 1, 65, 0
1, 358194, Note_off_c, 1, 55, 0
1, 358195, Note_on_c, 1, 57, 127
1, 358195, Note_on_c, 1, 61, 127
1, 358465, Note_off_c, 1, 57, 0
1, 358466, Note_on_c, 1, 76, 127
1, 358600, Note_off_c, 1, 76, 0
1, 358601, Note_on_c, 1, 64, 127
1, 358735, Note_off_c, 1, 61, 0
1, 358735, Note_off_c, 1, 64, 0
1, 358736, Note_on_c, 1, 57, 127
1, 358736, Note_on_c, 1, 64, 127
1, 358736, Note_on_c, 1, 61, 127
1, 359006, Note_off_c, 1, 57, 0
1, 359272, Note_off_c, 1, 64, 0
1, 359276, Note_off_c, 1, 61, 0
1, 359277, Note_on_c, 1, 65, 127
1, 359277, Note_on_c, 1, 62, 127
1, 359547, Note_off_c, 1, 65, 0
1, 359548, Note_on_c, 1, 81, 127
1, 359682, Note_off_c, 1, 81, 0
1, 359683, Note_on_c, 1, 69, 127
1, 359813, Note_off_c, 1, 62, 0
1, 359817, Note_off_c, 1, 69, 0
1, 359818, Note_on_c, 1, 65, 127
1, 359818, Note_on_c, 1, 69, 127
1, 360088, Note_off_c, 1, 65, 0
1, 360354, Note_off_c, 1, 69, 0
1, 360360, Note_on_c, 1, 58, 127
1, 360496, Note_on_c, 1, 70, 127
1, 360630, Note_off_c, 1, 58, 0
1, 360630, Note_off_c, 1, 70, 0
1, 360631, Note_on_c, 1, 82, 127
1, 360631, Note_on_c, 1, 55, 127
1, 360765, Note_off_c, 1, 82, 0
1, 360766, Note_on_c, 1, 70, 127
1, 360900, Note_off_c, 1, 55, 0
1, 360900, Note_off_c, 1, 70, 0
1, 360901, Note_on_c, 1, 55, 127
1, 360901, Note_on_c, 1, 70, 127
1, 361171, Note_off_c, 1, 55, 0
1, 361172, Note_on_c, 1, 64, 127
1, 361437, Note_off_c, 1, 70, 0
1, 361441, Note_off_c, 1, 64, 0
1, 361442, Note_on_c, 1, 57, 127
1, 361578, Note_on_c, 1, 69, 127
1, 361712, Note_off_c, 1, 57, 0
1, 361712, Note_off_c, 1, 69, 0
1, 361713, Note_on_c, 1, 81, 127
1, 361713, Note_on_c, 1, 53, 127
1, 361847, Note_off_c, 1, 81, 0
1, 361848, Note_on_c, 1, 69, 127
1, 361982, Note_off_c, 1, 53, 0
1, 361982, Note_off_c, 1, 69, 0
1, 361983, Note_on_c, 1, 53, 127
1, 361983, Note_on_c, 1, 69, 127
1, 362253, Note_off_c, 1, 53, 0
1, 362254, Note_on_c, 1, 62, 127
1, 362519, Note_off_c, 1, 69, 0
1, 362523, Note_off_c, 1, 62, 0
1, 362524, Note_on_c, 1, 55, 127
1, 362660, Note_on_c, 1, 67, 127
1, 362794, Note_off_c, 1, 55, 0
1, 362794, Note_off_c, 1, 67, 0
1, 362795, Note_on_c, 1, 79, 127
1, 362795, Note_on_c, 1, 52, 127
1, 362929, Note_off_c, 1, 79, 0
1, 362930, Note_on_c, 1, 67, 127
1, 363064, Note_off_c, 1, 52, 0
1, 363064, Note_off_c, 1, 67, 0
1, 363065, Note_on_c, 1, 52, 127
1, 363065, Note_on_c, 1, 67, 127
1, 363335, Note_off_c, 1, 52, 0
1, 363336, Note_on_c, 1, 61, 127
1, 363601, Note_off_c, 1, 67, 0
1, 363605, Note_off_c, 1, 61, 0
1, 363606, Note_on_c, 1, 62, 127
1, 363742, Note_on_c, 1, 77, 127
1, 363876, Note_off_c, 1, 62, 0
1, 363876, Note_off_c, 1, 77, 0
1, 363877, Note_on_c, 1, 76, 127
1, 363877, Note_on_c, 1, 64, 127
1, 364011, Note_off_c, 1, 76, 0
1, 364011, Note_off_c, 1, 64, 0
1, 364012, Note_on_c, 1, 74, 127
1, 364012, Note_on_c, 1, 65, 127
1, 364146, Note_off_c, 1, 74, 0
1, 364146, Note_off_c, 1, 65, 0
1, 364147, Note_on_c, 1, 75, 127
1, 364147, Note_on_c, 1, 60, 127
1, 364281, Note_off_c, 1, 75, 0
1, 364282, Note_on_c, 1, 79, 127
1, 364416, Note_off_c, 1, 60, 0
1, 364416, Note_off_c, 1, 79, 0
1, 364417, Note_on_c, 1, 77, 127
1, 364417, Note_on_c, 1, 62, 127
1, 364551, Note_off_c, 1, 77, 0
1, 364551, Note_off_c, 1, 62, 0
1, 364552, Note_on_c, 1, 75, 127
1, 364552, Note_on_c, 1, 63, 127
1, 364686, Note_off_c, 1, 75, 0
1, 364686, Note_off_c, 1, 63, 0
1, 364687, Note_on_c, 1, 77, 127
1, 364687, Note_on_c, 1, 62, 127
1, 364821, Note_off_c, 1, 77, 0
1, 364822, Note_on_c, 1, 79, 127
1, 364956, Note_off_c, 1, 62, 0
1, 364956, Note_off_c, 1, 79, 0
1, 364957, Note_on_c, 1, 77, 127
1, 364957, Note_on_c, 1, 63, 127
1, 365091, Note_off_c, 1, 77, 0
1, 365091, Note_off_c, 1, 63, 0
1, 365092, Note_on_c, 1, 75, 127
1, 365092, Note_on_c, 1, 65, 127
1, 365226, Note_off_c, 1, 75, 0
1, 365226, Note_off_c, 1, 65, 0
1, 365227, Note_on_c, 1, 74, 127
1, 365227, Note_on_c, 1, 59, 127
1, 365361, Note_off_c, 1, 74, 0
1, 365362, Note_on_c, 1, 77, 127
1, 365496, Note_off_c, 1, 59, 0
1, 365496, Note_off_c, 1, 77, 0
1, 365497, Note_on_c, 1, 75, 127
1, 365497, Note_on_c, 1, 60, 127
1, 365631, Note_off_c, 1, 75, 0
1, 365631, Note_off_c, 1, 60, 0
1, 365632, Note_on_c, 1, 74, 127
1, 365632, Note_on_c, 1, 62, 127
1, 365766, Note_off_c, 1, 74, 0
1, 365766, Note_off_c, 1, 62, 0
1, 365767, Note_on_c, 1, 60, 127
1, 365767, Note_on_c, 1, 75, 127
1, 366037, Note_off_c, 1, 60, 0
1, 366038, Note_on_c, 1, 72, 127
1, 366172, Note_off_c, 1, 72, 0
1, 366173, Note_on_c, 1, 67, 127
1, 366303, Note_off_c, 1, 75, 0
1, 366307, Note_off_c, 1, 67, 0
1, 366308, Note_on_c, 1, 69, 127
1, 366579, Note_on_c, 1, 77, 127
1, 366713, Note_off_c, 1, 77, 0
1, 366714, Note_on_c, 1, 72, 127
1, 366844, Note_off_c, 1, 69, 0
1, 366848, Note_off_c, 1, 72, 0
1, 366849, Note_on_c, 1, 74, 127
1, 367120, Note_on_c, 1, 70, 127
1, 367254, Note_off_c, 1, 70, 0
1, 367255, Note_on_c, 1, 65, 127
1, 367385, Note_off_c, 1, 74, 0
1, 367389, Note_off_c, 1, 65, 0
1, 367390, Note_on_c, 1, 70, 127
1, 367660, Note_off_c, 1, 70, 0
1, 367661, Note_on_c, 1, 77, 127
1, 367661, Note_on_c, 1, 69, 127
1, 367795, Note_off_c, 1, 77, 0
1, 367796, Note_on_c, 1, 74, 127
1, 367930, Note_off_c, 1, 69, 0
1, 367930, Note_off_c, 1, 74, 0
1, 367931, Note_on_c, 1, 75, 127
1, 367931, Note_on_c, 1, 67, 127
1, 368065, Note_off_c, 1, 75, 0
1, 368066, Note_on_c, 1, 79, 127
1, 368200, Note_off_c, 1, 67, 0
1, 368200, Note_off_c, 1, 79, 0
1, 368201, Note_on_c, 1, 72, 127
1, 368201, Note_on_c, 1, 69, 127
1, 368335, Note_off_c, 1, 72, 0
1, 368336, Note_on_c, 1, 75, 127
1, 368470, Note_off_c, 1, 69, 0
1, 368470, Note_off_c, 1, 75, 0
1, 368471, Note_on_c, 1, 74, 127
1, 368471, Note_on_c, 1, 65, 127
1, 368605, Note_off_c, 1, 74, 0
1, 368606, Note_on_c, 1, 77, 127
1, 368740, Note_off_c, 1, 65, 0
1, 368740, Note_off_c, 1, 77, 0
1, 368741, Note_on_c, 1, 70, 127
1, 368741, Note_on_c, 1, 67, 127
1, 368875, Note_off_c, 1, 70, 0
1, 368876, Note_on_c, 1, 74, 127
1, 369010, Note_off_c, 1, 67, 0
1, 369010, Note_off_c, 1, 74, 0
1, 369011, Note_on_c, 1, 72, 127
1, 369011, Note_on_c, 1, 63, 127
1, 369145, Note_off_c, 1, 72, 0
1, 369146, Note_on_c, 1, 75, 127
1, 369280, Note_off_c, 1, 63, 0
1, 369280, Note_off_c, 1, 75, 0
1, 369281, Note_on_c, 1, 69, 127
1, 369281, Note_on_c, 1, 65, 127
1, 369415, Note_off_c, 1, 69, 0
1, 369416, Note_on_c, 1, 72, 127
1, 369550, Note_off_c, 1, 65, 0
1, 369550, Note_off_c, 1, 72, 0
1, 369551, Note_on_c, 1, 70, 127
1, 369551, Note_on_c, 1, 62, 127
1, 369685, Note_off_c, 1, 70, 0
1, 369686, Note_on_c, 1, 74, 127
1, 369820, Note_off_c, 1, 62, 0
1, 369820, Note_off_c, 1, 74, 0
1, 369821, Note_on_c, 1, 67, 127
1, 369821, Note_on_c, 1, 64, 127
1, 369955, Note_off_c, 1, 67, 0
1, 369956, Note_on_c, 1, 70, 127
1, 370090, Note_off_c, 1, 64, 0
1, 370090, Note_off_c, 1, 70, 0
1, 370091, Note_on_c, 1, 69, 127
1, 370091, Note_on_c, 1, 65, 127
1, 370091, Note_on_c, 1, 53, 127
1, 370361, Note_off_c, 1, 69, 0
1, 370362, Note_on_c, 1, 72, 127
1, 370496, Note_off_c, 1, 65, 0
1, 370497, Note_on_c, 1, 63, 127
1, 370631, Note_off_c, 1, 63, 0
1, 370632, Note_on_c, 1, 62, 127
1, 370766, Note_off_c, 1, 72, 0
1, 370767, Note_on_c, 1, 70, 127
1, 370901, Note_off_c, 1, 53, 0
1, 370901, Note_off_c, 1, 62, 0
1, 370902, Note_on_c, 1, 60, 127
1, 371036, Note_off_c, 1, 70, 0
1, 371171, Note_off_c, 1, 60, 0
1, 371172, Note_on_c, 1, 62, 127
1, 371172, Note_on_c, 1, 58, 127
1, 371172, Note_on_c, 1, 70, 127
1, 371442, Note_off_c, 1, 62, 0
1, 371442, Note_off_c, 1, 58, 0
1, 371443, Note_on_c, 1, 65, 127
1, 371577, Note_off_c, 1, 65, 0
1, 371708, Note_off_c, 1, 70, 0
1, 371713, Note_on_c, 1, 58, 127
1, 371713, Note_on_c, 1, 65, 127
1, 371713, Note_on_c, 1, 62, 127
1, 371983, Note_off_c, 1, 58, 0
1, 371984, Note_on_c, 1, 70, 127
1, 372118, Note_off_c, 1, 70, 0
1, 372253, Note_off_c, 1, 65, 0
1, 372253, Note_off_c, 1, 62, 0
1, 372254, Note_on_c, 1, 77, 127
1, 372254, Note_on_c, 1, 57, 127
1, 372254, Note_on_c, 1, 60, 127
1, 372524, Note_off_c, 1, 77, 0
1, 372524, Note_off_c, 1, 57, 0
1, 372525, Note_on_c, 1, 72, 127
1, 372525, Note_on_c, 1, 53, 127
1, 372659, Note_off_c, 1, 72, 0
1, 372660, Note_on_c, 1, 69, 127
1, 372790, Note_off_c, 1, 60, 0
1, 372794, Note_off_c, 1, 53, 0
1, 372794, Note_off_c, 1, 69, 0
1, 372795, Note_on_c, 1, 77, 127
1, 372795, Note_on_c, 1, 53, 127
1, 372795, Note_on_c, 1, 69, 127
1, 373065, Note_off_c, 1, 77, 0
1, 373065, Note_off_c, 1, 53, 0
1, 373066, Note_on_c, 1, 65, 127
1, 373200, Note_off_c, 1, 65, 0
1, 373201, Note_on_c, 1, 62, 127
1, 373331, Note_off_c, 1, 69, 0
1, 373335, Note_off_c, 1, 62, 0
1, 373336, Note_on_c, 1, 77, 127
1, 373336, Note_on_c, 1, 55, 127
1, 373336, Note_on_c, 1, 58, 127
1, 373606, Note_off_c, 1, 77, 0
1, 373606, Note_off_c, 1, 55, 0
1, 373607, Note_on_c, 1, 70, 127
1, 373607, Note_on_c, 1, 75, 127
1, 373741, Note_off_c, 1, 70, 0
1, 373742, Note_on_c, 1, 67, 127
1, 373872, Note_off_c, 1, 58, 0
1, 373876, Note_off_c, 1, 75, 0
1, 373876, Note_off_c, 1, 67, 0
1, 373877, Note_on_c, 1, 75, 127
1, 373877, Note_on_c, 1, 63, 127
1, 373877, Note_on_c, 1, 55, 127
1, 374147, Note_off_c, 1, 75, 0
1, 374147, Note_off_c, 1, 63, 0
1, 374147, Note_off_c, 1, 55, 0
1, 374148, Note_on_c, 1, 63, 127
1, 374148, Note_on_c, 1, 67, 127
1, 374148, Note_on_c, 1, 75, 127
1, 374148, Note_on_c, 1, 51, 127
1, 374282, Note_off_c, 1, 63, 0
1, 374283, Note_on_c, 1, 60, 127
1, 374416, Note_off_c, 1, 67, 0
1, 374417, Note_off_c, 1, 75, 0
1, 374417, Note_off_c, 1, 51, 0
1, 374417, Note_off_c, 1, 60, 0
1, 374418, Note_on_c, 1, 75, 127
1, 374418, Note_on_c, 1, 65, 127
1, 374418, Note_on_c, 1, 53, 127
1, 374418, Note_on_c, 1, 57, 127
1, 374688, Note_off_c, 1, 75, 0
1, 374689, Note_on_c, 1, 84, 127
1, 374823, Note_off_c, 1, 84, 0
1, 374958, Note_off_c, 1, 65, 0
1, 374958, Note_off_c, 1, 53, 0
1, 374958, Note_off_c, 1, 57, 0
1, 374959, Note_on_c, 1, 74, 127
1, 374959, Note_on_c, 1, 65, 127
1, 374959, Note_on_c, 1, 58, 127
1, 375229, Note_off_c, 1, 74, 0
1, 375230, Note_on_c, 1, 82, 127
1, 375364, Note_off_c, 1, 82, 0
1, 375499, Note_off_c, 1, 65, 0
1, 375499, Note_off_c, 1, 58, 0
1, 375500, Note_on_c, 1, 72, 127
1, 375500, Note_on_c, 1, 65, 127
1, 375500, Note_on_c, 1, 60, 127
1, 375500, Note_on_c, 1, 53, 127
1, 375636, Note_on_c, 1, 82, 127
1, 375770, Note_off_c, 1, 82, 0
1, 375771, Note_on_c, 1, 81, 127
1, 375895, Note_off_c, 1, 72, 0
1, 376039, Note_off_c, 1, 81, 0
1, 376040, Note_off_c, 1, 65, 0
1, 376040, Note_off_c, 1, 60, 0
1, 376040, Note_off_c, 1, 53, 0
1, 376041, Note_on_c, 1, 74, 127
1, 376041, Note_on_c, 1, 65, 127
1, 376041, Note_on_c, 1, 58, 127
1, 376177, Note_on_c, 1, 77, 127
1, 376310, Note_off_c, 1, 74, 0
1, 376311, Note_off_c, 1, 65, 0
1, 376311, Note_off_c, 1, 58, 0
1, 376312, Note_on_c, 1, 72, 127
1, 376312, Note_on_c, 1, 63, 127
1, 376312, Note_on_c, 1, 60, 127
1, 376312, Note_on_c, 1, 53, 127
1, 376445, Note_off_c, 1, 77, 0
1, 376448, Note_on_c, 1, 81, 127
1, 376581, Note_off_c, 1, 72, 0
1, 376582, Note_off_c, 1, 63, 0
1, 376582, Note_off_c, 1, 60, 0
1, 376582, Note_off_c, 1, 53, 0
1, 376582, Note_off_c, 1, 81, 0
1, 376583, Note_on_c, 1, 70, 127
1, 376583, Note_on_c, 1, 62, 127
1, 376583, Note_on_c, 1, 58, 127
1, 376583, Note_on_c, 1, 65, 127
1, 376853, Note_off_c, 1, 70, 0
1, 376902, Note_on_c, 1, 82, 127
1, 377036, Note_off_c, 1, 82, 0
1, 377119, Note_off_c, 1, 62, 0
1, 377119, Note_off_c, 1, 58, 0
1, 377430, Note_off_c, 1, 65, 0
1, 377480, Note_on_c, 1, 65, 127
1, 377480, Note_on_c, 1, 69, 127
1, 377480, Note_on_c, 1, 72, 127
1, 377480, Note_on_c, 1, 41, 127
1, 377632, Note_off_c, 1, 65, 0
1, 377634, Note_on_c, 1, 53, 127
1, 377784, Note_off_c, 1, 69, 0
1, 377786, Note_off_c, 1, 72, 0
1, 377786, Note_off_c, 1, 41, 0
1, 377786, Note_off_c, 1, 53, 0
1, 377788, Note_on_c, 1, 74, 127
1, 377788, Note_on_c, 1, 53, 127
1, 377788, Note_on_c, 1, 65, 127
1, 377788, Note_on_c, 1, 70, 127
1, 377788, Note_on_c, 1, 46, 127
1, 378141, Note_off_c, 1, 74, 0
1, 378141, Note_off_c, 1, 53, 0
1, 378141, Note_off_c, 1, 65, 0
1, 378141, Note_off_c, 1, 70, 0
1, 378143, Note_on_c, 1, 58, 127
1, 378143, Note_on_c, 1, 72, 127
1, 378143, Note_on_c, 1, 75, 127
1, 378143, Note_on_c, 1, 69, 127
1, 378305, Note_off_c, 1, 46, 0
1, 378494, Note_off_c, 1, 58, 0
1, 378496, Note_off_c, 1, 72, 0
1, 378496, Note_off_c, 1, 75, 0
1, 378496, Note_off_c, 1, 69, 0
1, 378498, Note_on_c, 1, 77, 127
1, 378498, Note_on_c, 1, 74, 127
1, 378498, Note_on_c, 1, 65, 127
1, 378498, Note_on_c, 1, 70, 127
1, 378498, Note_on_c, 1, 50, 127
1, 378498, Note_on_c, 1, 58, 127
1, 378498, Note_on_c, 1, 53, 127
1, 378498, Note_on_c, 1, 46, 127
1, 379560, Note_off_c, 1, 77, 0
1, 379560, Note_off_c, 1, 74, 0
1, 379560, Note_off_c, 1, 65, 0
1, 379560, Note_off_c, 1, 70, 0
1, 379560, Note_off_c, 1, 50, 0
1, 379560, Note_off_c, 1, 58, 0
1, 379560, Note_off_c, 1, 53, 0
1, 379560, Note_off_c, 1, 46, 0
1, 379560, End_track
0, 0, End_of_file