0, 0, Header, 1, 1, 480
1, 0, Start_track
1, 0, Title_t, "Test"
1, 0, Tempo, 500000
1, 0, Instrument_name_t, "Church Organ"
1, 26, Note_on_c, 1, 62, 127
1, 216, Note_off_c, 1, 62, 0
1, 218, Note_on_c, 1, 64, 127
1, 293, Note_off_c, 1, 64, 0
1, 295, Note_on_c, 1, 65, 127
1, 370, Note_off_c, 1, 65, 0
1, 372, Note_on_c, 1, 67, 127
1, 446, Note_off_c, 1, 67, 0
1, 448, Note_on_c, 1, 69, 127
1, 524, Note_off_c, 1, 69, 0
1, 526, Note_on_c, 1, 71, 127
1, 600, Note_off_c, 1, 71, 0
1, 602, Note_on_c, 1, 73, 127
1, 677, Note_off_c, 1, 73, 0
1, 679, Note_on_c, 1, 74, 127
1, 765, Note_off_c, 1, 74, 0
1, 767, Note_on_c, 1, 72, 127
1, 853, Note_off_c, 1, 72, 0
1, 855, Note_on_c, 1, 70, 127
1, 941, Note_off_c, 1, 70, 0
1, 943, Note_on_c, 1, 69, 127
1, 1029, Note_off_c, 1, 69, 0
1, 1031, Note_on_c, 1, 67, 127
1, 1117, Note_off_c, 1, 67, 0
1, 1119, Note_on_c, 1, 65, 127
1, 1205, Note_off_c, 1, 65, 0
1, 1207, Note_on_c, 1, 64, 127
1, 1293, Note_off_c, 1, 64, 0
1, 1295, Note_on_c, 1, 62, 127
1, 1386, Note_off_c, 1, 62, 0
1, 1388, Note_on_c, 1, 61, 127
1, 1500, Note_off_c, 1, 61, 0
1, 1502, Note_on_c, 1, 62, 127
1, 1599, Note_off_c, 1, 62, 0
1, 1601, Note_on_c, 1, 64, 127
1, 1698, Note_off_c, 1, 64, 0
1, 1700, Note_on_c, 1, 65, 127
1, 1798, Note_off_c, 1, 65, 0
1, 1800, Note_on_c, 1, 67, 127
1, 1897, Note_off_c, 1, 67, 0
1, 1899, Note_on_c, 1, 69, 127
1, 1996, Note_off_c, 1, 69, 0
1, 1998, Note_on_c, 1, 70, 127
1, 2143, Note_off_c, 1, 70, 0
1, 2145, Note_on_c, 1, 76, 127
1, 2226, Note_off_c, 1, 76, 0
1, 2228, Note_on_c, 1, 76, 127
1, 3288, Note_off_c, 1, 76, 0
1, 3349, Note_on_c, 1, 69, 127
1, 3511, Note_off_c, 1, 69, 0
1, 3513, Note_on_c, 1, 71, 127
1, 3592, Note_off_c, 1, 71, 0
1, 3594, Note_on_c, 1, 73, 127
1, 3674, Note_off_c, 1, 73, 0
1, 3676, Note_on_c, 1, 74, 127
1, 3755, Note_off_c, 1, 74, 0
1, 3757, Note_on_c, 1, 76, 127
1, 3838, Note_off_c, 1, 76, 0
1, 3840, Note_on_c, 1, 77, 127
1, 3919, Note_off_c, 1, 77, 0
1, 3921, Note_on_c, 1, 79, 127
1, 4001, Note_off_c, 1, 79, 0
1, 4003, Note_on_c, 1, 77, 127
1, 4082, Note_off_c, 1, 77, 0
1, 4084, Note_on_c, 1, 76, 127
1, 4164, Note_off_c, 1, 76, 0
1, 4166, Note_on_c, 1, 74, 127
1, 4245, Note_off_c, 1, 74, 0
1, 4247, Note_on_c, 1, 73, 127
1, 4327, Note_off_c, 1, 73, 0
1, 4329, Note_on_c, 1, 71, 127
1, 4409, Note_off_c, 1, 71, 0
1, 4411, Note_on_c, 1, 69, 127
1, 4491, Note_off_c, 1, 69, 0
1, 4493, Note_on_c, 1, 67, 127
1, 4572, Note_off_c, 1, 67, 0
1, 4574, Note_on_c, 1, 65, 127
1, 4654, Note_off_c, 1, 65, 0
1, 4656, Note_on_c, 1, 64, 127
1, 4735, Note_off_c, 1, 64, 0
1, 4737, Note_on_c, 1, 62, 127
1, 4840, Note_off_c, 1, 62, 0
1, 4842, Note_on_c, 1, 64, 127
1, 4944, Note_off_c, 1, 64, 0
1, 4946, Note_on_c, 1, 65, 127
1, 5048, Note_off_c, 1, 65, 0
1, 5050, Note_on_c, 1, 69, 127
1, 5151, Note_off_c, 1, 69, 0
1, 5153, Note_on_c, 1, 73, 127
1, 5255, Note_off_c, 1, 73, 0
1, 5257, Note_on_c, 1, 74, 127
1, 5435, Note_off_c, 1, 74, 0
1, 5437, Note_on_c, 1, 77, 127
1, 5531, Note_off_c, 1, 77, 0
1, 5533, Note_on_c, 1, 77, 127
1, 6783, Note_off_c, 1, 77, 0
1, 6989, Note_on_c, 1, 62, 127
1, 7098, Note_on_c, 1, 74, 127
1, 7129, Note_off_c, 1, 62, 0
1, 7205, Note_off_c, 1, 74, 0
1, 7207, Note_on_c, 1, 77, 127
1, 7314, Note_off_c, 1, 77, 0
1, 7316, Note_on_c, 1, 64, 127
1, 7426, Note_on_c, 1, 74, 127
1, 7451, Note_off_c, 1, 64, 0
1, 7533, Note_off_c, 1, 74, 0
1, 7535, Note_on_c, 1, 79, 127
1, 7642, Note_off_c, 1, 79, 0
1, 7644, Note_on_c, 1, 65, 127
1, 7753, Note_on_c, 1, 74, 127
1, 7779, Note_off_c, 1, 65, 0
1, 7861, Note_off_c, 1, 74, 0
1, 7863, Note_on_c, 1, 81, 127
1, 7970, Note_off_c, 1, 81, 0
1, 7972, Note_on_c, 1, 67, 127
1, 8081, Note_on_c, 1, 74, 127
1, 8102, Note_off_c, 1, 67, 0
1, 8188, Note_off_c, 1, 74, 0
1, 8190, Note_on_c, 1, 82, 127
1, 8298, Note_off_c, 1, 82, 0
1, 8300, Note_on_c, 1, 69, 127
1, 8409, Note_on_c, 1, 73, 127
1, 8450, Note_off_c, 1, 69, 0
1, 8516, Note_off_c, 1, 73, 0
1, 8518, Note_on_c, 1, 76, 127
1, 8625, Note_off_c, 1, 76, 0
1, 8627, Note_on_c, 1, 79, 127
1, 8735, Note_off_c, 1, 79, 0
1, 8737, Note_on_c, 1, 82, 127
1, 8844, Note_off_c, 1, 82, 0
1, 8846, Note_on_c, 1, 79, 127
1, 8953, Note_off_c, 1, 79, 0
1, 8955, Note_on_c, 1, 76, 127
1, 9062, Note_off_c, 1, 76, 0
1, 9064, Note_on_c, 1, 73, 127
1, 9171, Note_off_c, 1, 73, 0
1, 9173, Note_on_c, 1, 69, 127
1, 9281, Note_off_c, 1, 69, 0
1, 9283, Note_on_c, 1, 67, 127
1, 9390, Note_off_c, 1, 67, 0
1, 9392, Note_on_c, 1, 65, 127
1, 9499, Note_off_c, 1, 65, 0
1, 9501, Note_on_c, 1, 64, 127
1, 9613, Note_off_c, 1, 64, 0
1, 9615, Note_on_c, 1, 62, 127
1, 9726, Note_off_c, 1, 62, 0
1, 9728, Note_on_c, 1, 77, 127
1, 9840, Note_off_c, 1, 77, 0
1, 9842, Note_on_c, 1, 74, 127
1, 9953, Note_off_c, 1, 74, 0
1, 9955, Note_on_c, 1, 64, 127
1, 10066, Note_off_c, 1, 64, 0
1, 10068, Note_on_c, 1, 79, 127
1, 10180, Note_off_c, 1, 79, 0
1, 10182, Note_on_c, 1, 74, 127
1, 10293, Note_off_c, 1, 74, 0
1, 10295, Note_on_c, 1, 65, 127
1, 10407, Note_off_c, 1, 65, 0
1, 10409, Note_on_c, 1, 81, 127
1, 10520, Note_off_c, 1, 81, 0
1, 10522, Note_on_c, 1, 74, 127
1, 10634, Note_off_c, 1, 74, 0
1, 10636, Note_on_c, 1, 67, 127
1, 10747, Note_off_c, 1, 67, 0
1, 10749, Note_on_c, 1, 82, 127
1, 10861, Note_off_c, 1, 82, 0
1, 10863, Note_on_c, 1, 74, 127
1, 10974, Note_off_c, 1, 74, 0
1, 10976, Note_on_c, 1, 73, 127
1, 11094, Note_off_c, 1, 73, 0
1, 11096, Note_on_c, 1, 70, 127
1, 11208, Note_off_c, 1, 70, 0
1, 11210, Note_on_c, 1, 67, 127
1, 11321, Note_off_c, 1, 67, 0
1, 11323, Note_on_c, 1, 64, 127
1, 11435, Note_off_c, 1, 64, 0
1, 11437, Note_on_c, 1, 61, 127
1, 11548, Note_off_c, 1, 61, 0
1, 11550, Note_on_c, 1, 57, 127
1, 11661, Note_off_c, 1, 57, 0
1, 11663, Note_on_c, 1, 61, 127
1, 11775, Note_off_c, 1, 61, 0
1, 11777, Note_on_c, 1, 64, 127
1, 11888, Note_off_c, 1, 64, 0
1, 11890, Note_on_c, 1, 67, 127
1, 12002, Note_off_c, 1, 67, 0
1, 12004, Note_on_c, 1, 70, 127
1, 12115, Note_off_c, 1, 70, 0
1, 12117, Note_on_c, 1, 73, 127
1, 12229, Note_off_c, 1, 73, 0
1, 12231, Note_on_c, 1, 76, 127
1, 12369, Note_off_c, 1, 76, 0
1, 12371, Note_on_c, 1, 74, 127
1, 12488, Note_on_c, 1, 76, 127
1, 12581, Note_off_c, 1, 74, 0
1, 12603, Note_off_c, 1, 76, 0
1, 12605, Note_on_c, 1, 77, 127
1, 12719, Note_off_c, 1, 77, 0
1, 12721, Note_on_c, 1, 82, 127
1, 12836, Note_off_c, 1, 82, 0
1, 12838, Note_on_c, 1, 74, 127
1, 12953, Note_off_c, 1, 74, 0
1, 12955, Note_on_c, 1, 67, 127
1, 13070, Note_off_c, 1, 67, 0
1, 13072, Note_on_c, 1, 72, 127
1, 13195, Note_on_c, 1, 74, 127
1, 13212, Note_off_c, 1, 72, 0
1, 13310, Note_off_c, 1, 74, 0
1, 13312, Note_on_c, 1, 76, 127
1, 13427, Note_off_c, 1, 76, 0
1, 13429, Note_on_c, 1, 81, 127
1, 13544, Note_off_c, 1, 81, 0
1, 13546, Note_on_c, 1, 72, 127
1, 13661, Note_off_c, 1, 72, 0
1, 13663, Note_on_c, 1, 65, 127
1, 13777, Note_off_c, 1, 65, 0
1, 13779, Note_on_c, 1, 70, 127
1, 13907, Note_on_c, 1, 73, 127
1, 13919, Note_off_c, 1, 70, 0
1, 14026, Note_off_c, 1, 73, 0
1, 14028, Note_on_c, 1, 74, 127
1, 14147, Note_off_c, 1, 74, 0
1, 14149, Note_on_c, 1, 79, 127
1, 14268, Note_off_c, 1, 79, 0
1, 14270, Note_on_c, 1, 70, 127
1, 14389, Note_off_c, 1, 70, 0
1, 14391, Note_on_c, 1, 64, 127
1, 14510, Note_off_c, 1, 64, 0
1, 14512, Note_on_c, 1, 69, 127
1, 14640, Note_on_c, 1, 71, 127
1, 14642, Note_off_c, 1, 69, 0
1, 14759, Note_off_c, 1, 71, 0
1, 14761, Note_on_c, 1, 73, 127
1, 14880, Note_off_c, 1, 73, 0
1, 14882, Note_on_c, 1, 77, 127
1, 15003, Note_on_c, 1, 69, 127
1, 15022, Note_off_c, 1, 77, 0
1, 15122, Note_off_c, 1, 69, 0
1, 15124, Note_on_c, 1, 62, 127
1, 15243, Note_off_c, 1, 62, 0
1, 15245, Note_on_c, 1, 67, 127
1, 15357, Note_on_c, 1, 70, 127
1, 15415, Note_off_c, 1, 67, 0
1, 15466, Note_off_c, 1, 70, 0
1, 15468, Note_on_c, 1, 75, 127
1, 15578, Note_off_c, 1, 75, 0
1, 15580, Note_on_c, 1, 65, 127
1, 15692, Note_on_c, 1, 69, 127
1, 15730, Note_off_c, 1, 65, 0
1, 15802, Note_off_c, 1, 69, 0
1, 15804, Note_on_c, 1, 74, 127
1, 15914, Note_off_c, 1, 74, 0
1, 15916, Note_on_c, 1, 64, 127
1, 16027, Note_on_c, 1, 67, 127
1, 16056, Note_off_c, 1, 64, 0
1, 16137, Note_off_c, 1, 67, 0
1, 16139, Note_on_c, 1, 73, 127
1, 16249, Note_off_c, 1, 73, 0
1, 16251, Note_on_c, 1, 65, 127
1, 16363, Note_on_c, 1, 69, 127
1, 16391, Note_off_c, 1, 65, 0
1, 16472, Note_off_c, 1, 69, 0
1, 16474, Note_on_c, 1, 74, 127
1, 16591, Note_off_c, 1, 74, 0
1, 16593, Note_on_c, 1, 62, 127
1, 16706, Note_on_c, 1, 65, 127
1, 16773, Note_off_c, 1, 62, 0
1, 16818, Note_off_c, 1, 65, 0
1, 16820, Note_on_c, 1, 70, 127
1, 16931, Note_off_c, 1, 70, 0
1, 16933, Note_on_c, 1, 61, 127
1, 17047, Note_on_c, 1, 64, 127
1, 17093, Note_off_c, 1, 61, 0
1, 17158, Note_off_c, 1, 64, 0
1, 17160, Note_on_c, 1, 69, 127
1, 17271, Note_off_c, 1, 69, 0
1, 17273, Note_on_c, 1, 62, 127
1, 17391, Note_off_c, 1, 62, 0
1, 17393, Note_on_c, 1, 65, 127
1, 17510, Note_off_c, 1, 65, 0
1, 17512, Note_on_c, 1, 70, 127
1, 17629, Note_off_c, 1, 70, 0
1, 17631, Note_on_c, 1, 61, 127
1, 17749, Note_off_c, 1, 61, 0
1, 17751, Note_on_c, 1, 64, 127
1, 17868, Note_off_c, 1, 64, 0
1, 17870, Note_on_c, 1, 69, 127
1, 17994, Note_off_c, 1, 69, 0
1, 17996, Note_on_c, 1, 62, 127
1, 18110, Note_on_c, 1, 65, 127
1, 18216, Note_off_c, 1, 62, 0
1, 18221, Note_off_c, 1, 65, 0
1, 18223, Note_on_c, 1, 70, 127
1, 18335, Note_off_c, 1, 70, 0
1, 18337, Note_on_c, 1, 68, 127
1, 18448, Note_off_c, 1, 68, 0
1, 18450, Note_on_c, 1, 65, 127
1, 18561, Note_off_c, 1, 65, 0
1, 18563, Note_on_c, 1, 62, 127
1, 18675, Note_off_c, 1, 62, 0
1, 18677, Note_on_c, 1, 59, 127
1, 18790, Note_on_c, 1, 62, 127
1, 18807, Note_off_c, 1, 59, 0
1, 18902, Note_off_c, 1, 62, 0
1, 18904, Note_on_c, 1, 65, 127
1, 19015, Note_off_c, 1, 65, 0
1, 19017, Note_on_c, 1, 68, 127
1, 19129, Note_off_c, 1, 68, 0
1, 19131, Note_on_c, 1, 71, 127
1, 19242, Note_off_c, 1, 71, 0
1, 19244, Note_on_c, 1, 62, 127
1, 19356, Note_off_c, 1, 62, 0
1, 19358, Note_on_c, 1, 60, 127
1, 19471, Note_on_c, 1, 64, 127
1, 19582, Note_off_c, 1, 64, 0
1, 19584, Note_on_c, 1, 69, 127
1, 19598, Note_off_c, 1, 60, 0
1, 19696, Note_off_c, 1, 69, 0
1, 19698, Note_on_c, 1, 66, 127
1, 19809, Note_off_c, 1, 66, 0
1, 19811, Note_on_c, 1, 63, 127
1, 19923, Note_off_c, 1, 63, 0
1, 19925, Note_on_c, 1, 60, 127
1, 20036, Note_off_c, 1, 60, 0
1, 20038, Note_on_c, 1, 57, 127
1, 20152, Note_on_c, 1, 60, 127
1, 20178, Note_off_c, 1, 57, 0
1, 20263, Note_off_c, 1, 60, 0
1, 20265, Note_on_c, 1, 63, 127
1, 20377, Note_off_c, 1, 63, 0
1, 20379, Note_on_c, 1, 66, 127
1, 20490, Note_off_c, 1, 66, 0
1, 20492, Note_on_c, 1, 69, 127
1, 20603, Note_off_c, 1, 69, 0
1, 20605, Note_on_c, 1, 60, 127
1, 20724, Note_off_c, 1, 60, 0
1, 20726, Note_on_c, 1, 58, 127
1, 20839, Note_on_c, 1, 62, 127
1, 20950, Note_off_c, 1, 62, 0
1, 20952, Note_on_c, 1, 67, 127
1, 20966, Note_off_c, 1, 58, 0
1, 21064, Note_off_c, 1, 67, 0
1, 21066, Note_on_c, 1, 65, 127
1, 21177, Note_off_c, 1, 65, 0
1, 21179, Note_on_c, 1, 64, 127
1, 21291, Note_off_c, 1, 64, 0
1, 21293, Note_on_c, 1, 62, 127
1, 21408, Note_off_c, 1, 62, 0
1, 21410, Note_on_c, 1, 56, 127
1, 21526, Note_on_c, 1, 62, 127
1, 21570, Note_off_c, 1, 56, 0
1, 21638, Note_off_c, 1, 62, 0
1, 21640, Note_on_c, 1, 71, 127
1, 21751, Note_off_c, 1, 71, 0
1, 21753, Note_on_c, 1, 65, 127
1, 21865, Note_off_c, 1, 65, 0
1, 21867, Note_on_c, 1, 64, 127
1, 21978, Note_off_c, 1, 64, 0
1, 21980, Note_on_c, 1, 62, 127
1, 22098, Note_off_c, 1, 62, 0
1, 22100, Note_on_c, 1, 57, 127
1, 22214, Note_on_c, 1, 61, 127
1, 22320, Note_off_c, 1, 57, 0
1, 22325, Note_off_c, 1, 61, 0
1, 22327, Note_on_c, 1, 64, 127
1, 22439, Note_off_c, 1, 64, 0
1, 22441, Note_on_c, 1, 65, 127
1, 22554, Note_on_c, 1, 62, 127
1, 22601, Note_off_c, 1, 65, 0
1, 22666, Note_off_c, 1, 62, 0
1, 22668, Note_on_c, 1, 56, 127
1, 22785, Note_off_c, 1, 56, 0
1, 22787, Note_on_c, 1, 57, 127
1, 22904, Note_off_c, 1, 57, 0
1, 22906, Note_on_c, 1, 61, 127
1, 23024, Note_off_c, 1, 61, 0
1, 23026, Note_on_c, 1, 64, 127
1, 23143, Note_off_c, 1, 64, 0
1, 23145, Note_on_c, 1, 65, 127
1, 23262, Note_off_c, 1, 65, 0
1, 23264, Note_on_c, 1, 62, 127
1, 23382, Note_off_c, 1, 62, 0
1, 23384, Note_on_c, 1, 56, 127
1, 23508, Note_off_c, 1, 56, 0
1, 23510, Note_on_c, 1, 57, 127
1, 23623, Note_on_c, 1, 60, 127
1, 23735, Note_off_c, 1, 60, 0
1, 23737, Note_on_c, 1, 65, 127
1, 23840, Note_off_c, 1, 57, 0
1, 23848, Note_off_c, 1, 65, 0
1, 23850, Note_on_c, 1, 63, 127
1, 23961, Note_off_c, 1, 63, 0
1, 23963, Note_on_c, 1, 60, 127
1, 24075, Note_off_c, 1, 60, 0
1, 24077, Note_on_c, 1, 57, 127
1, 24188, Note_off_c, 1, 57, 0
1, 24190, Note_on_c, 1, 54, 127
1, 24304, Note_on_c, 1, 57, 127
1, 24330, Note_off_c, 1, 54, 0
1, 24415, Note_off_c, 1, 57, 0
1, 24417, Note_on_c, 1, 60, 127
1, 24529, Note_off_c, 1, 60, 0
1, 24531, Note_on_c, 1, 63, 127
1, 24642, Note_off_c, 1, 63, 0
1, 24644, Note_on_c, 1, 66, 127
1, 24756, Note_off_c, 1, 66, 0
1, 24758, Note_on_c, 1, 57, 127
1, 24869, Note_off_c, 1, 57, 0
1, 24871, Note_on_c, 1, 55, 127
1, 24984, Note_on_c, 1, 58, 127
1, 25096, Note_off_c, 1, 58, 0
1, 25098, Note_on_c, 1, 63, 127
1, 25171, Note_off_c, 1, 55, 0
1, 25209, Note_off_c, 1, 63, 0
1, 25211, Note_on_c, 1, 61, 127
1, 25323, Note_off_c, 1, 61, 0
1, 25325, Note_on_c, 1, 58, 127
1, 25436, Note_off_c, 1, 58, 0
1, 25438, Note_on_c, 1, 55, 127
1, 25550, Note_off_c, 1, 55, 0
1, 25552, Note_on_c, 1, 52, 127
1, 25665, Note_on_c, 1, 55, 127
1, 25692, Note_off_c, 1, 52, 0
1, 25777, Note_off_c, 1, 55, 0
1, 25779, Note_on_c, 1, 58, 127
1, 25890, Note_off_c, 1, 58, 0
1, 25892, Note_on_c, 1, 61, 127
1, 26003, Note_off_c, 1, 61, 0
1, 26005, Note_on_c, 1, 64, 127
1, 26117, Note_off_c, 1, 64, 0
1, 26119, Note_on_c, 1, 55, 127
1, 26237, Note_off_c, 1, 55, 0
1, 26239, Note_on_c, 1, 54, 127
1, 26352, Note_on_c, 1, 57, 127
1, 26459, Note_off_c, 1, 54, 0
1, 26464, Note_off_c, 1, 57, 0
1, 26466, Note_on_c, 1, 62, 127
1, 26577, Note_off_c, 1, 62, 0
1, 26579, Note_on_c, 1, 59, 127
1, 26693, Note_on_c, 1, 56, 127
1, 26799, Note_off_c, 1, 59, 0
1, 26804, Note_off_c, 1, 56, 0
1, 26806, Note_on_c, 1, 53, 127
1, 26918, Note_off_c, 1, 53, 0
1, 26920, Note_on_c, 1, 52, 127
1, 27033, Note_on_c, 1, 55, 127
1, 27140, Note_off_c, 1, 52, 0
1, 27145, Note_off_c, 1, 55, 0
1, 27147, Note_on_c, 1, 60, 127
1, 27258, Note_off_c, 1, 60, 0
1, 27260, Note_on_c, 1, 57, 127
1, 27373, Note_on_c, 1, 54, 127
1, 27480, Note_off_c, 1, 57, 0
1, 27485, Note_off_c, 1, 54, 0
1, 27487, Note_on_c, 1, 51, 127
1, 27598, Note_off_c, 1, 51, 0
1, 27600, Note_on_c, 1, 50, 127
1, 27721, Note_on_c, 1, 55, 127
1, 27832, Note_off_c, 1, 55, 0
1, 27834, Note_on_c, 1, 58, 127
1, 27930, Note_off_c, 1, 50, 0
1, 27945, Note_off_c, 1, 58, 0
1, 27947, Note_on_c, 1, 61, 127
1, 28059, Note_off_c, 1, 61, 0
1, 28061, Note_on_c, 1, 64, 127
1, 28172, Note_off_c, 1, 64, 0
1, 28174, Note_on_c, 1, 61, 127
1, 28286, Note_off_c, 1, 61, 0
1, 28288, Note_on_c, 1, 58, 127
1, 28399, Note_off_c, 1, 58, 0
1, 28401, Note_on_c, 1, 55, 127
1, 28513, Note_off_c, 1, 55, 0
1, 28515, Note_on_c, 1, 53, 127
1, 28626, Note_off_c, 1, 53, 0
1, 28628, Note_on_c, 1, 51, 127
1, 28740, Note_off_c, 1, 51, 0
1, 28742, Note_on_c, 1, 50, 127
1, 28853, Note_off_c, 1, 50, 0
1, 28855, Note_on_c, 1, 49, 127
1, 28966, Note_off_c, 1, 49, 0
1, 28968, Note_on_c, 1, 50, 127
1, 29101, Note_on_c, 1, 53, 127
1, 29188, Note_off_c, 1, 50, 0
1, 29219, Note_off_c, 1, 53, 0
1, 29221, Note_on_c, 1, 58, 127
1, 29338, Note_off_c, 1, 58, 0
1, 29340, Note_on_c, 1, 56, 127
1, 29459, Note_on_c, 1, 53, 127
1, 29560, Note_off_c, 1, 56, 0
1, 29577, Note_off_c, 1, 53, 0
1, 29579, Note_on_c, 1, 50, 127
1, 29696, Note_off_c, 1, 50, 0
1, 29698, Note_on_c, 1, 49, 127
1, 29831, Note_on_c, 1, 52, 127
1, 29918, Note_off_c, 1, 49, 0
1, 29948, Note_off_c, 1, 52, 0
1, 29950, Note_on_c, 1, 57, 127
1, 30067, Note_off_c, 1, 57, 0
1, 30069, Note_on_c, 1, 54, 127
1, 30189, Note_on_c, 1, 51, 127
1, 30289, Note_off_c, 1, 54, 0
1, 30306, Note_off_c, 1, 51, 0
1, 30308, Note_on_c, 1, 48, 127
1, 30425, Note_off_c, 1, 48, 0
1, 30427, Note_on_c, 1, 47, 127
1, 30560, Note_on_c, 1, 50, 127
1, 30647, Note_off_c, 1, 47, 0
1, 30677, Note_off_c, 1, 50, 0
1, 30679, Note_on_c, 1, 55, 127
1, 30797, Note_off_c, 1, 55, 0
1, 30799, Note_on_c, 1, 52, 127
1, 30918, Note_on_c, 1, 49, 127
1, 30989, Note_off_c, 1, 52, 0
1, 31035, Note_off_c, 1, 49, 0
1, 31037, Note_on_c, 1, 46, 127
1, 31155, Note_off_c, 1, 46, 0
1, 31157, Note_on_c, 1, 45, 127
1, 31289, Note_on_c, 1, 48, 127
1, 31377, Note_off_c, 1, 45, 0
1, 31407, Note_off_c, 1, 48, 0
1, 31409, Note_on_c, 1, 53, 127
1, 31526, Note_off_c, 1, 53, 0
1, 31528, Note_on_c, 1, 50, 127
1, 31647, Note_on_c, 1, 47, 127
1, 31688, Note_off_c, 1, 50, 0
1, 31765, Note_off_c, 1, 47, 0
1, 31767, Note_on_c, 1, 44, 127
1, 31891, Note_off_c, 1, 44, 0
1, 31893, Note_on_c, 1, 43, 127
1, 32045, Note_on_c, 1, 48, 127
1, 32113, Note_off_c, 1, 43, 0
1, 32168, Note_off_c, 1, 48, 0
1, 32170, Note_on_c, 1, 51, 127
1, 32293, Note_off_c, 1, 51, 0
1, 32295, Note_on_c, 1, 48, 127
1, 32421, Note_on_c, 1, 51, 127
1, 32515, Note_off_c, 1, 48, 0
1, 32544, Note_off_c, 1, 51, 0
1, 32546, Note_on_c, 1, 55, 127
1, 32669, Note_off_c, 1, 55, 0
1, 32671, Note_on_c, 1, 51, 127
1, 32796, Note_on_c, 1, 55, 127
1, 32891, Note_off_c, 1, 51, 0
1, 32919, Note_off_c, 1, 55, 0
1, 32921, Note_on_c, 1, 60, 127
1, 33045, Note_off_c, 1, 60, 0
1, 33047, Note_on_c, 1, 55, 127
1, 33172, Note_on_c, 1, 60, 127
1, 33267, Note_off_c, 1, 55, 0
1, 33295, Note_off_c, 1, 60, 0
1, 33297, Note_on_c, 1, 63, 127
1, 33420, Note_off_c, 1, 63, 0
1, 33422, Note_on_c, 1, 58, 127
1, 33542, Note_on_c, 1, 61, 127
1, 33602, Note_off_c, 1, 58, 0
1, 33659, Note_off_c, 1, 61, 0
1, 33661, Note_on_c, 1, 64, 127
1, 33778, Note_off_c, 1, 64, 0
1, 33780, Note_on_c, 1, 61, 127
1, 33900, Note_on_c, 1, 64, 127
1, 33950, Note_off_c, 1, 61, 0
1, 34017, Note_off_c, 1, 64, 0
1, 34019, Note_on_c, 1, 67, 127
1, 34136, Note_off_c, 1, 67, 0
1, 34138, Note_on_c, 1, 64, 127
1, 34258, Note_on_c, 1, 67, 127
1, 34298, Note_off_c, 1, 64, 0
1, 34375, Note_off_c, 1, 67, 0
1, 34377, Note_on_c, 1, 70, 127
1, 34494, Note_off_c, 1, 70, 0
1, 34496, Note_on_c, 1, 67, 127
1, 34616, Note_on_c, 1, 70, 127
1, 34636, Note_off_c, 1, 67, 0
1, 34760, Note_off_c, 1, 70, 0
1, 34762, Note_on_c, 1, 73, 127
1, 34924, Note_off_c, 1, 73, 0
1, 34926, Note_on_c, 1, 57, 127
1, 35045, Note_on_c, 1, 70, 127
1, 35126, Note_off_c, 1, 57, 0
1, 35162, Note_off_c, 1, 70, 0
1, 35164, Note_on_c, 1, 73, 127
1, 35282, Note_off_c, 1, 73, 0
1, 35284, Note_on_c, 1, 79, 127
1, 35401, Note_off_c, 1, 79, 0
1, 35403, Note_on_c, 1, 77, 127
1, 35520, Note_off_c, 1, 77, 0
1, 35522, Note_on_c, 1, 76, 127
1, 35640, Note_off_c, 1, 76, 0
1, 35642, Note_on_c, 1, 67, 127
1, 35759, Note_off_c, 1, 67, 0
1, 35761, Note_on_c, 1, 73, 127
1, 35878, Note_off_c, 1, 73, 0
1, 35880, Note_on_c, 1, 76, 127
1, 35998, Note_off_c, 1, 76, 0
1, 36000, Note_on_c, 1, 82, 127
1, 36117, Note_off_c, 1, 82, 0
1, 36119, Note_on_c, 1, 81, 127
1, 36236, Note_off_c, 1, 81, 0
1, 36238, Note_on_c, 1, 79, 127
1, 36369, Note_off_c, 1, 79, 0
1, 36371, Note_on_c, 1, 57, 127
1, 36499, Note_on_c, 1, 70, 127
1, 36561, Note_off_c, 1, 57, 0
1, 36624, Note_off_c, 1, 70, 0
1, 36626, Note_on_c, 1, 73, 127
1, 36752, Note_off_c, 1, 73, 0
1, 36754, Note_on_c, 1, 79, 127
1, 36880, Note_off_c, 1, 79, 0
1, 36882, Note_on_c, 1, 77, 127
1, 37008, Note_off_c, 1, 77, 0
1, 37010, Note_on_c, 1, 76, 127
1, 37135, Note_off_c, 1, 76, 0
1, 37137, Note_on_c, 1, 67, 127
1, 37263, Note_off_c, 1, 67, 0
1, 37265, Note_on_c, 1, 73, 127
1, 37391, Note_off_c, 1, 73, 0
1, 37393, Note_on_c, 1, 76, 127
1, 37519, Note_off_c, 1, 76, 0
1, 37521, Note_on_c, 1, 82, 127
1, 37646, Note_off_c, 1, 82, 0
1, 37648, Note_on_c, 1, 81, 127
1, 37774, Note_off_c, 1, 81, 0
1, 37776, Note_on_c, 1, 79, 127
1, 37915, Note_off_c, 1, 79, 0
1, 37917, Note_on_c, 1, 65, 127
1, 38036, Note_on_c, 1, 69, 127
1, 38047, Note_off_c, 1, 65, 0
1, 38154, Note_off_c, 1, 69, 0
1, 38156, Note_on_c, 1, 73, 127
1, 38273, Note_off_c, 1, 73, 0
1, 38275, Note_on_c, 1, 74, 127
1, 38392, Note_off_c, 1, 74, 0
1, 38394, Note_on_c, 1, 76, 127
1, 38512, Note_off_c, 1, 76, 0
1, 38514, Note_on_c, 1, 77, 127
1, 38631, Note_off_c, 1, 77, 0
1, 38633, Note_on_c, 1, 69, 127
1, 38752, Note_on_c, 1, 73, 127
1, 38763, Note_off_c, 1, 69, 0
1, 38870, Note_off_c, 1, 73, 0
1, 38872, Note_on_c, 1, 74, 127
1, 38989, Note_off_c, 1, 74, 0
1, 38991, Note_on_c, 1, 77, 127
1, 39108, Note_off_c, 1, 77, 0
1, 39110, Note_on_c, 1, 79, 127
1, 39228, Note_off_c, 1, 79, 0
1, 39230, Note_on_c, 1, 81, 127
1, 39347, Note_off_c, 1, 81, 0
1, 39349, Note_on_c, 1, 77, 127
1, 39466, Note_off_c, 1, 77, 0
1, 39468, Note_on_c, 1, 76, 127
1, 39586, Note_off_c, 1, 76, 0
1, 39588, Note_on_c, 1, 74, 127
1, 39705, Note_off_c, 1, 74, 0
1, 39707, Note_on_c, 1, 72, 127
1, 39824, Note_off_c, 1, 72, 0
1, 39826, Note_on_c, 1, 70, 127
1, 39944, Note_off_c, 1, 70, 0
1, 39946, Note_on_c, 1, 69, 127
1, 40063, Note_off_c, 1, 69, 0
1, 40065, Note_on_c, 1, 67, 127
1, 40182, Note_off_c, 1, 67, 0
1, 40184, Note_on_c, 1, 65, 127
1, 40302, Note_off_c, 1, 65, 0
1, 40304, Note_on_c, 1, 64, 127
1, 40421, Note_off_c, 1, 64, 0
1, 40423, Note_on_c, 1, 62, 127
1, 40540, Note_off_c, 1, 62, 0
1, 40542, Note_on_c, 1, 61, 127
1, 40660, Note_off_c, 1, 61, 0
1, 40662, Note_on_c, 1, 59, 127
1, 40786, Note_off_c, 1, 59, 0
1, 40788, Note_on_c, 1, 57, 127
1, 40907, Note_on_c, 1, 67, 127
1, 40968, Note_off_c, 1, 57, 0
1, 41024, Note_off_c, 1, 67, 0
1, 41026, Note_on_c, 1, 73, 127
1, 41144, Note_off_c, 1, 73, 0
1, 41146, Note_on_c, 1, 76, 127
1, 41263, Note_off_c, 1, 76, 0
1, 41265, Note_on_c, 1, 74, 127
1, 41382, Note_off_c, 1, 74, 0
1, 41384, Note_on_c, 1, 73, 127
1, 41502, Note_off_c, 1, 73, 0
1, 41504, Note_on_c, 1, 61, 127
1, 41621, Note_off_c, 1, 61, 0
1, 41623, Note_on_c, 1, 64, 127
1, 41740, Note_off_c, 1, 64, 0
1, 41742, Note_on_c, 1, 67, 127
1, 41860, Note_off_c, 1, 67, 0
1, 41862, Note_on_c, 1, 70, 127
1, 41979, Note_off_c, 1, 70, 0
1, 41981, Note_on_c, 1, 69, 127
1, 42098, Note_off_c, 1, 69, 0
1, 42100, Note_on_c, 1, 67, 127
1, 42231, Note_off_c, 1, 67, 0
1, 42233, Note_on_c, 1, 57, 127
1, 42358, Note_on_c, 1, 67, 127
1, 42373, Note_off_c, 1, 57, 0
1, 42482, Note_off_c, 1, 67, 0
1, 42484, Note_on_c, 1, 73, 127
1, 42607, Note_off_c, 1, 73, 0
1, 42609, Note_on_c, 1, 76, 127
1, 42732, Note_off_c, 1, 76, 0
1, 42734, Note_on_c, 1, 74, 127
1, 42857, Note_off_c, 1, 74, 0
1, 42859, Note_on_c, 1, 73, 127
1, 42982, Note_off_c, 1, 73, 0
1, 42984, Note_on_c, 1, 61, 127
1, 43108, Note_off_c, 1, 61, 0
1, 43110, Note_on_c, 1, 64, 127
1, 43233, Note_off_c, 1, 64, 0
1, 43235, Note_on_c, 1, 67, 127
1, 43358, Note_off_c, 1, 67, 0
1, 43360, Note_on_c, 1, 70, 127
1, 43483, Note_off_c, 1, 70, 0
1, 43485, Note_on_c, 1, 69, 127
1, 43608, Note_off_c, 1, 69, 0
1, 43610, Note_on_c, 1, 67, 127
1, 43739, Note_off_c, 1, 67, 0
1, 43741, Note_on_c, 1, 57, 127
1, 43863, Note_on_c, 1, 61, 127
1, 43974, Note_off_c, 1, 61, 0
1, 43976, Note_on_c, 1, 62, 127
1, 43981, Note_off_c, 1, 57, 0
1, 44087, Note_off_c, 1, 62, 0
1, 44089, Note_on_c, 1, 65, 127
1, 44201, Note_off_c, 1, 65, 0
1, 44203, Note_on_c, 1, 67, 127
1, 44314, Note_off_c, 1, 67, 0
1, 44316, Note_on_c, 1, 69, 127
1, 44428, Note_off_c, 1, 69, 0
1, 44430, Note_on_c, 1, 62, 127
1, 44543, Note_on_c, 1, 65, 127
1, 44610, Note_off_c, 1, 62, 0
1, 44655, Note_off_c, 1, 65, 0
1, 44657, Note_on_c, 1, 68, 127
1, 44768, Note_off_c, 1, 68, 0
1, 44770, Note_on_c, 1, 69, 127
1, 44882, Note_off_c, 1, 69, 0
1, 44884, Note_on_c, 1, 73, 127
1, 44995, Note_off_c, 1, 73, 0
1, 44997, Note_on_c, 1, 74, 127
1, 45108, Note_off_c, 1, 74, 0
1, 45110, Note_on_c, 1, 65, 127
1, 45224, Note_on_c, 1, 69, 127
1, 45260, Note_off_c, 1, 65, 0
1, 45335, Note_off_c, 1, 69, 0
1, 45337, Note_on_c, 1, 73, 127
1, 45449, Note_off_c, 1, 73, 0
1, 45451, Note_on_c, 1, 74, 127
1, 45562, Note_off_c, 1, 74, 0
1, 45564, Note_on_c, 1, 76, 127
1, 45676, Note_off_c, 1, 76, 0
1, 45678, Note_on_c, 1, 77, 127
1, 45789, Note_off_c, 1, 77, 0
1, 45791, Note_on_c, 1, 69, 127
1, 45905, Note_on_c, 1, 73, 127
1, 45921, Note_off_c, 1, 69, 0
1, 46016, Note_off_c, 1, 73, 0
1, 46018, Note_on_c, 1, 74, 127
1, 46129, Note_off_c, 1, 74, 0
1, 46131, Note_on_c, 1, 77, 127
1, 46243, Note_off_c, 1, 77, 0
1, 46245, Note_on_c, 1, 80, 127
1, 46356, Note_off_c, 1, 80, 0
1, 46358, Note_on_c, 1, 81, 127
1, 46470, Note_off_c, 1, 81, 0
1, 46472, Note_on_c, 1, 83, 127
1, 46697, Note_off_c, 1, 83, 0
1, 46699, Note_on_c, 1, 80, 127
1, 46801, Note_off_c, 1, 80, 0
1, 46803, Note_on_c, 1, 81, 127
1, 46905, Note_off_c, 1, 81, 0
1, 46907, Note_on_c, 1, 83, 127
1, 47009, Note_off_c, 1, 83, 0
1, 47011, Note_on_c, 1, 74, 127
1, 47113, Note_off_c, 1, 74, 0
1, 47115, Note_on_c, 1, 76, 127
1, 47218, Note_off_c, 1, 76, 0
1, 47220, Note_on_c, 1, 77, 127
1, 47322, Note_off_c, 1, 77, 0
1, 47324, Note_on_c, 1, 71, 127
1, 47426, Note_off_c, 1, 71, 0
1, 47428, Note_on_c, 1, 72, 127
1, 47530, Note_off_c, 1, 72, 0
1, 47532, Note_on_c, 1, 74, 127
1, 47634, Note_off_c, 1, 74, 0
1, 47636, Note_on_c, 1, 68, 127
1, 47739, Note_off_c, 1, 68, 0
1, 47741, Note_on_c, 1, 69, 127
1, 47843, Note_off_c, 1, 69, 0
1, 47845, Note_on_c, 1, 71, 127
1, 47947, Note_off_c, 1, 71, 0
1, 47949, Note_on_c, 1, 62, 127
1, 48051, Note_off_c, 1, 62, 0
1, 48053, Note_on_c, 1, 64, 127
1, 48155, Note_off_c, 1, 64, 0
1, 48157, Note_on_c, 1, 65, 127
1, 48260, Note_off_c, 1, 65, 0
1, 48262, Note_on_c, 1, 59, 127
1, 48364, Note_off_c, 1, 59, 0
1, 48366, Note_on_c, 1, 60, 127
1, 48468, Note_off_c, 1, 60, 0
1, 48470, Note_on_c, 1, 62, 127
1, 48572, Note_off_c, 1, 62, 0
1, 48574, Note_on_c, 1, 56, 127
1, 48676, Note_off_c, 1, 56, 0
1, 48678, Note_on_c, 1, 57, 127
1, 48781, Note_off_c, 1, 57, 0
1, 48783, Note_on_c, 1, 59, 127
1, 48885, Note_off_c, 1, 59, 0
1, 48887, Note_on_c, 1, 61, 127
1, 48989, Note_off_c, 1, 61, 0
1, 48991, Note_on_c, 1, 62, 127
1, 49093, Note_off_c, 1, 62, 0
1, 49095, Note_on_c, 1, 61, 127
1, 49304, Note_on_c, 1, 64, 127
1, 49315, Note_off_c, 1, 61, 0
1, 49398, Note_off_c, 1, 64, 0
1, 49400, Note_on_c, 1, 62, 127
1, 49495, Note_off_c, 1, 62, 0
1, 49497, Note_on_c, 1, 61, 127
1, 49592, Note_off_c, 1, 61, 0
1, 49594, Note_on_c, 1, 59, 127
1, 49688, Note_off_c, 1, 59, 0
1, 49690, Note_on_c, 1, 57, 127
1, 49785, Note_off_c, 1, 57, 0
1, 49787, Note_on_c, 1, 55, 127
1, 49882, Note_off_c, 1, 55, 0
1, 49884, Note_on_c, 1, 53, 127
1, 49978, Note_off_c, 1, 53, 0
1, 49980, Note_on_c, 1, 52, 127
1, 50075, Note_off_c, 1, 52, 0
1, 50077, Note_on_c, 1, 50, 127
1, 50171, Note_off_c, 1, 50, 0
1, 50173, Note_on_c, 1, 49, 127
1, 50268, Note_off_c, 1, 49, 0
1, 50270, Note_on_c, 1, 52, 127
1, 50365, Note_off_c, 1, 52, 0
1, 50367, Note_on_c, 1, 45, 127
1, 50750, Note_on_c, 1, 65, 127
1, 50807, Note_off_c, 1, 45, 0
1, 50848, Note_off_c, 1, 65, 0
1, 50850, Note_on_c, 1, 64, 127
1, 50948, Note_off_c, 1, 64, 0
1, 50950, Note_on_c, 1, 62, 127
1, 51048, Note_off_c, 1, 62, 0
1, 51050, Note_on_c, 1, 61, 127
1, 51148, Note_off_c, 1, 61, 0
1, 51150, Note_on_c, 1, 58, 127
1, 51248, Note_off_c, 1, 58, 0
1, 51250, Note_on_c, 1, 57, 127
1, 51348, Note_off_c, 1, 57, 0
1, 51350, Note_on_c, 1, 55, 127
1, 51448, Note_off_c, 1, 55, 0
1, 51450, Note_on_c, 1, 53, 127
1, 51548, Note_off_c, 1, 53, 0
1, 51550, Note_on_c, 1, 52, 127
1, 51648, Note_off_c, 1, 52, 0
1, 51650, Note_on_c, 1, 50, 127
1, 51748, Note_off_c, 1, 50, 0
1, 51750, Note_on_c, 1, 49, 127
1, 51848, Note_off_c, 1, 49, 0
1, 51850, Note_on_c, 1, 52, 127
1, 51948, Note_off_c, 1, 52, 0
1, 51950, Note_on_c, 1, 45, 127
1, 52214, Note_on_c, 1, 67, 127
1, 52250, Note_off_c, 1, 45, 0
1, 52316, Note_off_c, 1, 67, 0
1, 52318, Note_on_c, 1, 65, 127
1, 52420, Note_off_c, 1, 65, 0
1, 52422, Note_on_c, 1, 64, 127
1, 52525, Note_off_c, 1, 64, 0
1, 52527, Note_on_c, 1, 62, 127
1, 52629, Note_off_c, 1, 62, 0
1, 52631, Note_on_c, 1, 61, 127
1, 52733, Note_off_c, 1, 61, 0
1, 52735, Note_on_c, 1, 70, 127
1, 52837, Note_off_c, 1, 70, 0
1, 52839, Note_on_c, 1, 69, 127
1, 52941, Note_off_c, 1, 69, 0
1, 52943, Note_on_c, 1, 67, 127
1, 53046, Note_off_c, 1, 67, 0
1, 53048, Note_on_c, 1, 65, 127
1, 53150, Note_off_c, 1, 65, 0
1, 53152, Note_on_c, 1, 64, 127
1, 53254, Note_off_c, 1, 64, 0
1, 53256, Note_on_c, 1, 74, 127
1, 53358, Note_off_c, 1, 74, 0
1, 53360, Note_on_c, 1, 73, 127
1, 53462, Note_off_c, 1, 73, 0
1, 53464, Note_on_c, 1, 71, 127
1, 53567, Note_off_c, 1, 71, 0
1, 53569, Note_on_c, 1, 69, 127
1, 53671, Note_off_c, 1, 69, 0
1, 53673, Note_on_c, 1, 67, 127
1, 53775, Note_off_c, 1, 67, 0
1, 53777, Note_on_c, 1, 77, 127
1, 53879, Note_off_c, 1, 77, 0
1, 53881, Note_on_c, 1, 76, 127
1, 53983, Note_off_c, 1, 76, 0
1, 53985, Note_on_c, 1, 74, 127
1, 54088, Note_off_c, 1, 74, 0
1, 54090, Note_on_c, 1, 73, 127
1, 54192, Note_off_c, 1, 73, 0
1, 54194, Note_on_c, 1, 71, 127
1, 54296, Note_off_c, 1, 71, 0
1, 54298, Note_on_c, 1, 80, 127
1, 54400, Note_off_c, 1, 80, 0
1, 54402, Note_on_c, 1, 77, 127
1, 54504, Note_off_c, 1, 77, 0
1, 54506, Note_on_c, 1, 76, 127
1, 54609, Note_off_c, 1, 76, 0
1, 54611, Note_on_c, 1, 74, 127
1, 54719, Note_off_c, 1, 74, 0
1, 54721, Note_on_c, 1, 73, 127
1, 54832, Note_on_c, 1, 76, 127
1, 54881, Note_off_c, 1, 73, 0
1, 54920, Note_off_c, 1, 76, 0
1, 54922, Note_on_c, 1, 81, 127
1, 55010, Note_off_c, 1, 81, 0
1, 55012, Note_on_c, 1, 76, 127
1, 55100, Note_off_c, 1, 76, 0
1, 55102, Note_on_c, 1, 73, 127
1, 55190, Note_off_c, 1, 73, 0
1, 55192, Note_on_c, 1, 76, 127
1, 55280, Note_off_c, 1, 76, 0
1, 55282, Note_on_c, 1, 73, 127
1, 55370, Note_off_c, 1, 73, 0
1, 55372, Note_on_c, 1, 69, 127
1, 55460, Note_off_c, 1, 69, 0
1, 55462, Note_on_c, 1, 73, 127
1, 55550, Note_off_c, 1, 73, 0
1, 55552, Note_on_c, 1, 69, 127
1, 55640, Note_off_c, 1, 69, 0
1, 55642, Note_on_c, 1, 64, 127
1, 55730, Note_off_c, 1, 64, 0
1, 55732, Note_on_c, 1, 69, 127
1, 55819, Note_off_c, 1, 69, 0
1, 55821, Note_on_c, 1, 64, 127
1, 55909, Note_off_c, 1, 64, 0
1, 55911, Note_on_c, 1, 61, 127
1, 55999, Note_off_c, 1, 61, 0
1, 56001, Note_on_c, 1, 64, 127
1, 56089, Note_off_c, 1, 64, 0
1, 56091, Note_on_c, 1, 61, 127
1, 56179, Note_off_c, 1, 61, 0
1, 56181, Note_on_c, 1, 57, 127
1, 56269, Note_off_c, 1, 57, 0
1, 56271, Note_on_c, 1, 52, 127
1, 56359, Note_off_c, 1, 52, 0
1, 56361, Note_on_c, 1, 49, 127
1, 56449, Note_off_c, 1, 49, 0
1, 56451, Note_on_c, 1, 45, 127
1, 56643, Note_on_c, 1, 49, 127
1, 56721, Note_on_c, 1, 52, 127
1, 56800, Note_on_c, 1, 57, 127
1, 56878, Note_on_c, 1, 61, 127
1, 56954, Note_off_c, 1, 61, 0
1, 56956, Note_on_c, 1, 64, 127
1, 57032, Note_off_c, 1, 64, 0
1, 57034, Note_on_c, 1, 69, 127
1, 57112, Note_on_c, 1, 73, 127
1, 57190, Note_on_c, 1, 76, 127
1, 57269, Note_on_c, 1, 81, 127
1, 57345, Note_off_c, 1, 81, 0
1, 57347, Note_on_c, 1, 80, 127
1, 57423, Note_off_c, 1, 80, 0
1, 57490, Note_off_c, 1, 76, 0
1, 57512, Note_off_c, 1, 73, 0
1, 57534, Note_off_c, 1, 69, 0
1, 58700, Note_off_c, 1, 57, 0
1, 58721, Note_off_c, 1, 52, 0
1, 58743, Note_off_c, 1, 49, 0
1, 58751, Note_off_c, 1, 45, 0
1, 59725, Note_on_c, 1, 67, 127
1, 59896, Note_off_c, 1, 67, 0
1, 59898, Note_on_c, 1, 64, 127
1, 59981, Note_off_c, 1, 64, 0
1, 59983, Note_on_c, 1, 65, 127
1, 60067, Note_off_c, 1, 65, 0
1, 60069, Note_on_c, 1, 67, 127
1, 60153, Note_off_c, 1, 67, 0
1, 60155, Note_on_c, 1, 69, 127
1, 60239, Note_off_c, 1, 69, 0
1, 60241, Note_on_c, 1, 71, 127
1, 60324, Note_off_c, 1, 71, 0
1, 60326, Note_on_c, 1, 73, 127
1, 60410, Note_off_c, 1, 73, 0
1, 60412, Note_on_c, 1, 74, 127
1, 60496, Note_off_c, 1, 74, 0
1, 60498, Note_on_c, 1, 76, 127
1, 60581, Note_off_c, 1, 76, 0
1, 60583, Note_on_c, 1, 77, 127
1, 60667, Note_off_c, 1, 77, 0
1, 60669, Note_on_c, 1, 79, 127
1, 60753, Note_off_c, 1, 79, 0
1, 60755, Note_on_c, 1, 81, 127
1, 60839, Note_off_c, 1, 81, 0
1, 60841, Note_on_c, 1, 82, 127
1, 60924, Note_off_c, 1, 82, 0
1, 60926, Note_on_c, 1, 81, 127
1, 61010, Note_off_c, 1, 81, 0
1, 61012, Note_on_c, 1, 79, 127
1, 61096, Note_off_c, 1, 79, 0
1, 61098, Note_on_c, 1, 77, 127
1, 61181, Note_off_c, 1, 77, 0
1, 61183, Note_on_c, 1, 76, 127
1, 61267, Note_off_c, 1, 76, 0
1, 61269, Note_on_c, 1, 77, 127
1, 61353, Note_off_c, 1, 77, 0
1, 61355, Note_on_c, 1, 79, 127
1, 61439, Note_off_c, 1, 79, 0
1, 61441, Note_on_c, 1, 77, 127
1, 61524, Note_off_c, 1, 77, 0
1, 61526, Note_on_c, 1, 76, 127
1, 61610, Note_off_c, 1, 76, 0
1, 61612, Note_on_c, 1, 74, 127
1, 61696, Note_off_c, 1, 74, 0
1, 61698, Note_on_c, 1, 73, 127
1, 61781, Note_off_c, 1, 73, 0
1, 61783, Note_on_c, 1, 74, 127
1, 61867, Note_off_c, 1, 74, 0
1, 61869, Note_on_c, 1, 76, 127
1, 61953, Note_off_c, 1, 76, 0
1, 61955, Note_on_c, 1, 74, 127
1, 62039, Note_off_c, 1, 74, 0
1, 62041, Note_on_c, 1, 73, 127
1, 62124, Note_off_c, 1, 73, 0
1, 62126, Note_on_c, 1, 71, 127
1, 62210, Note_off_c, 1, 71, 0
1, 62212, Note_on_c, 1, 69, 127
1, 62296, Note_off_c, 1, 69, 0
1, 62298, Note_on_c, 1, 67, 127
1, 62386, Note_off_c, 1, 67, 0
1, 62388, Note_on_c, 1, 70, 127
1, 62476, Note_off_c, 1, 70, 0
1, 62478, Note_on_c, 1, 69, 127
1, 62565, Note_off_c, 1, 69, 0
1, 62567, Note_on_c, 1, 67, 127
1, 62655, Note_off_c, 1, 67, 0
1, 62657, Note_on_c, 1, 65, 127
1, 62745, Note_off_c, 1, 65, 0
1, 62747, Note_on_c, 1, 64, 127
1, 62835, Note_off_c, 1, 64, 0
1, 62837, Note_on_c, 1, 65, 127
1, 62925, Note_off_c, 1, 65, 0
1, 62927, Note_on_c, 1, 67, 127
1, 63015, Note_off_c, 1, 67, 0
1, 63017, Note_on_c, 1, 65, 127
1, 63105, Note_off_c, 1, 65, 0
1, 63107, Note_on_c, 1, 64, 127
1, 63195, Note_off_c, 1, 64, 0
1, 63197, Note_on_c, 1, 62, 127
1, 63285, Note_off_c, 1, 62, 0
1, 63287, Note_on_c, 1, 61, 127
1, 63375, Note_off_c, 1, 61, 0
1, 63377, Note_on_c, 1, 62, 127
1, 63465, Note_off_c, 1, 62, 0
1, 63467, Note_on_c, 1, 64, 127
1, 63555, Note_off_c, 1, 64, 0
1, 63557, Note_on_c, 1, 62, 127
1, 63644, Note_off_c, 1, 62, 0
1, 63646, Note_on_c, 1, 61, 127
1, 63734, Note_off_c, 1, 61, 0
1, 63736, Note_on_c, 1, 59, 127
1, 63824, Note_off_c, 1, 59, 0
1, 63826, Note_on_c, 1, 57, 127
1, 63914, Note_off_c, 1, 57, 0
1, 63916, Note_on_c, 1, 55, 127
1, 64004, Note_off_c, 1, 55, 0
1, 64006, Note_on_c, 1, 58, 127
1, 64094, Note_off_c, 1, 58, 0
1, 64096, Note_on_c, 1, 57, 127
1, 64184, Note_off_c, 1, 57, 0
1, 64186, Note_on_c, 1, 55, 127
1, 64274, Note_off_c, 1, 55, 0
1, 64276, Note_on_c, 1, 53, 127
1, 64364, Note_off_c, 1, 53, 0
1, 64366, Note_on_c, 1, 52, 127
1, 64454, Note_off_c, 1, 52, 0
1, 64456, Note_on_c, 1, 53, 127
1, 64544, Note_off_c, 1, 53, 0
1, 64546, Note_on_c, 1, 55, 127
1, 64634, Note_off_c, 1, 55, 0
1, 64636, Note_on_c, 1, 53, 127
1, 64723, Note_off_c, 1, 53, 0
1, 64725, Note_on_c, 1, 52, 127
1, 64813, Note_off_c, 1, 52, 0
1, 64815, Note_on_c, 1, 50, 127
1, 64903, Note_off_c, 1, 50, 0
1, 64905, Note_on_c, 1, 49, 127
1, 64993, Note_off_c, 1, 49, 0
1, 64995, Note_on_c, 1, 50, 127
1, 65083, Note_off_c, 1, 50, 0
1, 65085, Note_on_c, 1, 52, 127
1, 65173, Note_off_c, 1, 52, 0
1, 65175, Note_on_c, 1, 50, 127
1, 65263, Note_off_c, 1, 50, 0
1, 65265, Note_on_c, 1, 49, 127
1, 65353, Note_off_c, 1, 49, 0
1, 65355, Note_on_c, 1, 47, 127
1, 65443, Note_off_c, 1, 47, 0
1, 65445, Note_on_c, 1, 45, 127
1, 65573, Note_off_c, 1, 45, 0
1, 65575, Note_on_c, 1, 47, 127
1, 65665, Note_off_c, 1, 47, 0
1, 65667, Note_on_c, 1, 49, 127
1, 65758, Note_off_c, 1, 49, 0
1, 65760, Note_on_c, 1, 50, 127
1, 65850, Note_off_c, 1, 50, 0
1, 65852, Note_on_c, 1, 52, 127
1, 65943, Note_off_c, 1, 52, 0
1, 65945, Note_on_c, 1, 53, 127
1, 66035, Note_off_c, 1, 53, 0
1, 66037, Note_on_c, 1, 55, 127
1, 66128, Note_off_c, 1, 55, 0
1, 66130, Note_on_c, 1, 53, 127
1, 66220, Note_off_c, 1, 53, 0
1, 66222, Note_on_c, 1, 52, 127
1, 66312, Note_off_c, 1, 52, 0
1, 66314, Note_on_c, 1, 55, 127
1, 66405, Note_off_c, 1, 55, 0
1, 66407, Note_on_c, 1, 53, 127
1, 66497, Note_off_c, 1, 53, 0
1, 66499, Note_on_c, 1, 52, 127
1, 66590, Note_off_c, 1, 52, 0
1, 66592, Note_on_c, 1, 50, 127
1, 66682, Note_off_c, 1, 50, 0
1, 66684, Note_on_c, 1, 49, 127
1, 66775, Note_off_c, 1, 49, 0
1, 66777, Note_on_c, 1, 47, 127
1, 66867, Note_off_c, 1, 47, 0
1, 66869, Note_on_c, 1, 45, 127
1, 66964, Note_off_c, 1, 45, 0
1, 66966, Note_on_c, 1, 47, 127
1, 67060, Note_off_c, 1, 47, 0
1, 67062, Note_on_c, 1, 49, 127
1, 67157, Note_off_c, 1, 49, 0
1, 67159, Note_on_c, 1, 50, 127
1, 67254, Note_off_c, 1, 50, 0
1, 67256, Note_on_c, 1, 52, 127
1, 67350, Note_off_c, 1, 52, 0
1, 67352, Note_on_c, 1, 53, 127
1, 67447, Note_off_c, 1, 53, 0
1, 67449, Note_on_c, 1, 55, 127
1, 67544, Note_off_c, 1, 55, 0
1, 67546, Note_on_c, 1, 57, 127
1, 67640, Note_off_c, 1, 57, 0
1, 67642, Note_on_c, 1, 58, 127
1, 67737, Note_off_c, 1, 58, 0
1, 67739, Note_on_c, 1, 57, 127
1, 67834, Note_off_c, 1, 57, 0
1, 67836, Note_on_c, 1, 55, 127
1, 67930, Note_off_c, 1, 55, 0
1, 67932, Note_on_c, 1, 53, 127
1, 68027, Note_off_c, 1, 53, 0
1, 68029, Note_on_c, 1, 57, 127
1, 68123, Note_off_c, 1, 57, 0
1, 68125, Note_on_c, 1, 55, 127
1, 68220, Note_off_c, 1, 55, 0
1, 68222, Note_on_c, 1, 53, 127
1, 68317, Note_off_c, 1, 53, 0
1, 68319, Note_on_c, 1, 52, 127
1, 68413, Note_off_c, 1, 52, 0
1, 68415, Note_on_c, 1, 50, 127
1, 68510, Note_off_c, 1, 50, 0
1, 68512, Note_on_c, 1, 49, 127
1, 68620, Note_off_c, 1, 49, 0
1, 68622, Note_on_c, 1, 50, 127
1, 68730, Note_off_c, 1, 50, 0
1, 68732, Note_on_c, 1, 52, 127
1, 68827, Note_off_c, 1, 52, 0
1, 68829, Note_on_c, 1, 53, 127
1, 68923, Note_off_c, 1, 53, 0
1, 68925, Note_on_c, 1, 55, 127
1, 69020, Note_off_c, 1, 55, 0
1, 69022, Note_on_c, 1, 57, 127
1, 69117, Note_off_c, 1, 57, 0
1, 69119, Note_on_c, 1, 58, 127
1, 69213, Note_off_c, 1, 58, 0
1, 69215, Note_on_c, 1, 57, 127
1, 69310, Note_off_c, 1, 57, 0
1, 69312, Note_on_c, 1, 55, 127
1, 69407, Note_off_c, 1, 55, 0
1, 69409, Note_on_c, 1, 57, 127
1, 69503, Note_off_c, 1, 57, 0
1, 69505, Note_on_c, 1, 59, 127
1, 69600, Note_off_c, 1, 59, 0
1, 69602, Note_on_c, 1, 61, 127
1, 69697, Note_off_c, 1, 61, 0
1, 69699, Note_on_c, 1, 62, 127
1, 69793, Note_off_c, 1, 62, 0
1, 69795, Note_on_c, 1, 64, 127
1, 69890, Note_off_c, 1, 64, 0
1, 69892, Note_on_c, 1, 65, 127
1, 69986, Note_off_c, 1, 65, 0
1, 69988, Note_on_c, 1, 67, 127
1, 70083, Note_off_c, 1, 67, 0
1, 70085, Note_on_c, 1, 65, 127
1, 70189, Note_off_c, 1, 65, 0
1, 70191, Note_on_c, 1, 67, 127
1, 70295, Note_off_c, 1, 67, 0
1, 70297, Note_on_c, 1, 69, 127
1, 70401, Note_off_c, 1, 69, 0
1, 70403, Note_on_c, 1, 64, 127
1, 70507, Note_off_c, 1, 64, 0
1, 70509, Note_on_c, 1, 65, 127
1, 70612, Note_off_c, 1, 65, 0
1, 70614, Note_on_c, 1, 61, 127
1, 70718, Note_off_c, 1, 61, 0
1, 70720, Note_on_c, 1, 62, 127
1, 70824, Note_off_c, 1, 62, 0
1, 70826, Note_on_c, 1, 57, 127
1, 70930, Note_off_c, 1, 57, 0
1, 70932, Note_on_c, 1, 53, 127
1, 71036, Note_off_c, 1, 53, 0
1, 71038, Note_on_c, 1, 55, 127
1, 71142, Note_off_c, 1, 55, 0
1, 71144, Note_on_c, 1, 57, 127
1, 71248, Note_off_c, 1, 57, 0
1, 71250, Note_on_c, 1, 53, 127
1, 71354, Note_off_c, 1, 53, 0
1, 71356, Note_on_c, 1, 50, 127
1, 71460, Note_off_c, 1, 50, 0
1, 71462, Note_on_c, 1, 53, 127
1, 71565, Note_off_c, 1, 53, 0
1, 71567, Note_on_c, 1, 52, 127
1, 71671, Note_off_c, 1, 52, 0
1, 71673, Note_on_c, 1, 50, 127
1, 71768, Note_off_c, 1, 50, 0
1, 71770, Note_on_c, 1, 56, 127
1, 71865, Note_off_c, 1, 56, 0
1, 71867, Note_on_c, 1, 54, 127
1, 71961, Note_off_c, 1, 54, 0
1, 71963, Note_on_c, 1, 52, 127
1, 72058, Note_off_c, 1, 52, 0
1, 72060, Note_on_c, 1, 59, 127
1, 72155, Note_off_c, 1, 59, 0
1, 72157, Note_on_c, 1, 57, 127
1, 72251, Note_off_c, 1, 57, 0
1, 72253, Note_on_c, 1, 56, 127
1, 72348, Note_off_c, 1, 56, 0
1, 72350, Note_on_c, 1, 62, 127
1, 72444, Note_off_c, 1, 62, 0
1, 72446, Note_on_c, 1, 60, 127
1, 72541, Note_off_c, 1, 60, 0
1, 72543, Note_on_c, 1, 59, 127
1, 72638, Note_off_c, 1, 59, 0
1, 72640, Note_on_c, 1, 65, 127
1, 72741, Note_off_c, 1, 65, 0
1, 72743, Note_on_c, 1, 64, 127
1, 72838, Note_off_c, 1, 64, 0
1, 72840, Note_on_c, 1, 62, 127
1, 72934, Note_off_c, 1, 62, 0
1, 72936, Note_on_c, 1, 68, 127
1, 73031, Note_off_c, 1, 68, 0
1, 73033, Note_on_c, 1, 66, 127
1, 73128, Note_off_c, 1, 66, 0
1, 73130, Note_on_c, 1, 64, 127
1, 73224, Note_off_c, 1, 64, 0
1, 73226, Note_on_c, 1, 71, 127
1, 73321, Note_off_c, 1, 71, 0
1, 73323, Note_on_c, 1, 69, 127
1, 73418, Note_off_c, 1, 69, 0
1, 73420, Note_on_c, 1, 68, 127
1, 73514, Note_off_c, 1, 68, 0
1, 73516, Note_on_c, 1, 74, 127
1, 73611, Note_off_c, 1, 74, 0
1, 73613, Note_on_c, 1, 72, 127
1, 73707, Note_off_c, 1, 72, 0
1, 73709, Note_on_c, 1, 71, 127
1, 73804, Note_off_c, 1, 71, 0
1, 73806, Note_on_c, 1, 77, 127
1, 73901, Note_off_c, 1, 77, 0
1, 73903, Note_on_c, 1, 76, 127
1, 73997, Note_off_c, 1, 76, 0
1, 73999, Note_on_c, 1, 74, 127
1, 74107, Note_off_c, 1, 74, 0
1, 74109, Note_on_c, 1, 80, 127
1, 74272, Note_off_c, 1, 80, 0
1, 74274, Note_on_c, 1, 81, 127
1, 74376, Note_off_c, 1, 81, 0
1, 74378, Note_on_c, 1, 80, 127
1, 74479, Note_off_c, 1, 80, 0
1, 74481, Note_on_c, 1, 78, 127
1, 74582, Note_off_c, 1, 78, 0
1, 74584, Note_on_c, 1, 80, 127
1, 74686, Note_off_c, 1, 80, 0
1, 74688, Note_on_c, 1, 81, 127
1, 74793, Note_off_c, 1, 81, 0
1, 74795, Note_on_c, 1, 80, 127
1, 74900, Note_off_c, 1, 80, 0
1, 74902, Note_on_c, 1, 81, 127
1, 75007, Note_off_c, 1, 81, 0
1, 75008, Note_on_c, 1, 80, 127
1, 75113, Note_off_c, 1, 80, 0
1, 75114, Note_on_c, 1, 81, 127
1, 75217, Note_on_c, 1, 80, 127
1, 75219, Note_off_c, 1, 81, 0
1, 75324, Note_off_c, 1, 80, 0
1, 75326, Note_on_c, 1, 81, 127
1, 75431, Note_off_c, 1, 81, 0
1, 75433, Note_on_c, 1, 80, 127
1, 75539, Note_off_c, 1, 80, 0
1, 75541, Note_on_c, 1, 81, 127
1, 75647, Note_off_c, 1, 81, 0
1, 75653, Note_on_c, 1, 80, 127
1, 75758, Note_off_c, 1, 80, 0
1, 75764, Note_on_c, 1, 78, 127
1, 75870, Note_off_c, 1, 78, 0
1, 75876, Note_on_c, 1, 80, 127
1, 75981, Note_off_c, 1, 80, 0
1, 75987, Note_on_c, 1, 81, 127
1, 76112, Note_off_c, 1, 81, 0
1, 76114, Note_on_c, 1, 86, 127
1, 76226, Note_off_c, 1, 86, 0
1, 76228, Note_on_c, 1, 81, 127
1, 76339, Note_off_c, 1, 81, 0
1, 76341, Note_on_c, 1, 77, 127
1, 76452, Note_off_c, 1, 77, 0
1, 76454, Note_on_c, 1, 81, 127
1, 76566, Note_off_c, 1, 81, 0
1, 76568, Note_on_c, 1, 77, 127
1, 76679, Note_off_c, 1, 77, 0
1, 76681, Note_on_c, 1, 74, 127
1, 76793, Note_off_c, 1, 74, 0
1, 76795, Note_on_c, 1, 77, 127
1, 76906, Note_off_c, 1, 77, 0
1, 76908, Note_on_c, 1, 74, 127
1, 77020, Note_off_c, 1, 74, 0
1, 77022, Note_on_c, 1, 69, 127
1, 77133, Note_off_c, 1, 69, 0
1, 77135, Note_on_c, 1, 74, 127
1, 77247, Note_off_c, 1, 74, 0
1, 77249, Note_on_c, 1, 69, 127
1, 77360, Note_off_c, 1, 69, 0
1, 77362, Note_on_c, 1, 65, 127
1, 77473, Note_off_c, 1, 65, 0
1, 77475, Note_on_c, 1, 69, 127
1, 77587, Note_off_c, 1, 69, 0
1, 77589, Note_on_c, 1, 65, 127
1, 77700, Note_off_c, 1, 65, 0
1, 77702, Note_on_c, 1, 62, 127
1, 77814, Note_off_c, 1, 62, 0
1, 77816, Note_on_c, 1, 65, 127
1, 77927, Note_off_c, 1, 65, 0
1, 77929, Note_on_c, 1, 62, 127
1, 78041, Note_off_c, 1, 62, 0
1, 78043, Note_on_c, 1, 57, 127
1, 78154, Note_off_c, 1, 57, 0
1, 78156, Note_on_c, 1, 62, 127
1, 78268, Note_off_c, 1, 62, 0
1, 78270, Note_on_c, 1, 57, 127
1, 78381, Note_off_c, 1, 57, 0
1, 78383, Note_on_c, 1, 53, 127
1, 78494, Note_off_c, 1, 53, 0
1, 78496, Note_on_c, 1, 57, 127
1, 78608, Note_off_c, 1, 57, 0
1, 78610, Note_on_c, 1, 53, 127
1, 78721, Note_off_c, 1, 53, 0
1, 78723, Note_on_c, 1, 50, 127
1, 78871, Note_on_c, 1, 53, 127
1, 78992, Note_on_c, 1, 57, 127
1, 79113, Note_on_c, 1, 62, 127
1, 79234, Note_on_c, 1, 65, 127
1, 79355, Note_on_c, 1, 69, 127
1, 79476, Note_on_c, 1, 74, 127
1, 79591, Note_off_c, 1, 69, 0
1, 79702, Note_off_c, 1, 65, 0
1, 79821, Note_off_c, 1, 62, 0
1, 79944, Note_off_c, 1, 57, 0
1, 80079, Note_off_c, 1, 53, 0
1, 80187, Note_off_c, 1, 50, 0
1, 80192, Note_off_c, 1, 74, 0
1, 80312, Note_on_c, 1, 52, 127
1, 80421, Note_on_c, 1, 55, 127
1, 80530, Note_on_c, 1, 61, 127
1, 80639, Note_on_c, 1, 64, 127
1, 80749, Note_on_c, 1, 67, 127
1, 80858, Note_on_c, 1, 70, 127
1, 80967, Note_on_c, 1, 76, 127
1, 81062, Note_off_c, 1, 70, 0
1, 81169, Note_off_c, 1, 67, 0
1, 81279, Note_off_c, 1, 64, 0
1, 81390, Note_off_c, 1, 61, 0
1, 81497, Note_off_c, 1, 55, 0
1, 81608, Note_off_c, 1, 52, 0
1, 81727, Note_off_c, 1, 76, 0
1, 81732, Note_on_c, 1, 50, 127
1, 81836, Note_on_c, 1, 53, 127
1, 81940, Note_on_c, 1, 57, 127
1, 82044, Note_on_c, 1, 62, 127
1, 82149, Note_on_c, 1, 65, 127
1, 82253, Note_on_c, 1, 69, 127
1, 82357, Note_on_c, 1, 74, 127
1, 82461, Note_on_c, 1, 77, 127
1, 82553, Note_off_c, 1, 74, 0
1, 82657, Note_off_c, 1, 69, 0
1, 82769, Note_off_c, 1, 65, 0
1, 82860, Note_off_c, 1, 62, 0
1, 82964, Note_off_c, 1, 57, 0
1, 83068, Note_off_c, 1, 53, 0
1, 83169, Note_off_c, 1, 77, 0
1, 83180, Note_off_c, 1, 50, 0
1, 83191, Note_on_c, 1, 50, 127
1, 83292, Note_on_c, 1, 54, 127
1, 83394, Note_on_c, 1, 57, 127
1, 83496, Note_on_c, 1, 60, 127
1, 83597, Note_on_c, 1, 69, 127
1, 83699, Note_on_c, 1, 72, 127
1, 83801, Note_on_c, 1, 75, 127
1, 83902, Note_on_c, 1, 78, 127
1, 83997, Note_off_c, 1, 75, 0
1, 84099, Note_off_c, 1, 72, 0
1, 84189, Note_off_c, 1, 69, 0
1, 84296, Note_off_c, 1, 60, 0
1, 84398, Note_off_c, 1, 57, 0
1, 84504, Note_off_c, 1, 54, 0
1, 84606, Note_off_c, 1, 78, 0
1, 84607, Note_off_c, 1, 50, 0
1, 84713, Note_on_c, 1, 55, 127
1, 84812, Note_on_c, 1, 58, 127
1, 84912, Note_on_c, 1, 62, 127
1, 85011, Note_on_c, 1, 67, 127
1, 85110, Note_on_c, 1, 70, 127
1, 85209, Note_on_c, 1, 74, 127
1, 85308, Note_on_c, 1, 79, 127
1, 85389, Note_off_c, 1, 74, 0
1, 85494, Note_off_c, 1, 70, 0
1, 85591, Note_off_c, 1, 67, 0
1, 85688, Note_off_c, 1, 62, 0
1, 85788, Note_off_c, 1, 58, 0
1, 85889, Note_off_c, 1, 55, 0
1, 85980, Note_off_c, 1, 79, 0
1, 86002, Note_on_c, 1, 50, 127
1, 86099, Note_on_c, 1, 53, 127
1, 86196, Note_on_c, 1, 56, 127
1, 86292, Note_on_c, 1, 59, 127
1, 86389, Note_on_c, 1, 71, 127
1, 86486, Note_on_c, 1, 74, 127
1, 86582, Note_on_c, 1, 77, 127
1, 86679, Note_on_c, 1, 80, 127
1, 86758, Note_off_c, 1, 77, 0
1, 86854, Note_off_c, 1, 74, 0
1, 86953, Note_off_c, 1, 71, 0
1, 87048, Note_off_c, 1, 59, 0
1, 87144, Note_off_c, 1, 56, 0
1, 87251, Note_off_c, 1, 53, 0
1, 87327, Note_off_c, 1, 80, 0
1, 87342, Note_off_c, 1, 50, 0
1, 87355, Note_on_c, 1, 50, 127
1, 87450, Note_off_c, 1, 50, 0
1, 87452, Note_on_c, 1, 49, 127
1, 87640, Note_on_c, 1, 52, 127
1, 87728, Note_on_c, 1, 57, 127
1, 87815, Note_on_c, 1, 64, 127
1, 87901, Note_off_c, 1, 64, 0
1, 87903, Note_on_c, 1, 69, 127
1, 87990, Note_on_c, 1, 73, 127
1, 88077, Note_on_c, 1, 76, 127
1, 88165, Note_on_c, 1, 81, 127
1, 88533, Note_off_c, 1, 76, 0
1, 88542, Note_off_c, 1, 73, 0
1, 88543, Note_off_c, 1, 69, 0
1, 88640, Note_off_c, 1, 52, 0
1, 88640, Note_off_c, 1, 57, 0
1, 88647, Note_off_c, 1, 81, 0
1, 88649, Note_on_c, 1, 82, 127
1, 88652, Note_off_c, 1, 49, 0
1, 88766, Note_off_c, 1, 82, 0
1, 88768, Note_on_c, 1, 81, 127
1, 88885, Note_off_c, 1, 81, 0
1, 88887, Note_on_c, 1, 82, 127
1, 89005, Note_off_c, 1, 82, 0
1, 89007, Note_on_c, 1, 81, 127
1, 89124, Note_off_c, 1, 81, 0
1, 89126, Note_on_c, 1, 82, 127
1, 89243, Note_off_c, 1, 82, 0
1, 89245, Note_on_c, 1, 81, 127
1, 89371, Note_off_c, 1, 81, 0
1, 89373, Note_on_c, 1, 82, 127
1, 89505, Note_off_c, 1, 82, 0
1, 89507, Note_on_c, 1, 81, 127
1, 89640, Note_on_c, 1, 79, 127
1, 89642, Note_off_c, 1, 81, 0
1, 89772, Note_off_c, 1, 79, 0
1, 89774, Note_on_c, 1, 81, 127
1, 89868, Note_on_c, 1, 43, 127
1, 89909, Note_off_c, 1, 81, 0
1, 89964, Note_on_c, 1, 46, 127
1, 90061, Note_on_c, 1, 49, 127
1, 90158, Note_on_c, 1, 52, 127
1, 90254, Note_on_c, 1, 55, 127
1, 90351, Note_on_c, 1, 61, 127
1, 90446, Note_off_c, 1, 61, 0
1, 90448, Note_on_c, 1, 64, 127
1, 90542, Note_off_c, 1, 64, 0
1, 90544, Note_on_c, 1, 67, 127
1, 90639, Note_off_c, 1, 67, 0
1, 90641, Note_on_c, 1, 70, 127
1, 90737, Note_on_c, 1, 73, 127
1, 90834, Note_on_c, 1, 76, 127
1, 90931, Note_on_c, 1, 79, 127
1, 91027, Note_on_c, 1, 82, 127
1, 91441, Note_off_c, 1, 73, 0
1, 91445, Note_off_c, 1, 70, 0
1, 91450, Note_off_c, 1, 76, 0
1, 91451, Note_off_c, 1, 79, 0
1, 91538, Note_off_c, 1, 55, 0
1, 91540, Note_off_c, 1, 43, 0
1, 91544, Note_off_c, 1, 46, 0
1, 91545, Note_off_c, 1, 49, 0
1, 91550, Note_off_c, 1, 52, 0
1, 91716, Note_off_c, 1, 82, 0
1, 91809, Note_on_c, 1, 79, 127
1, 91916, Note_off_c, 1, 79, 0
1, 91918, Note_on_c, 1, 77, 127
1, 92025, Note_off_c, 1, 77, 0
1, 92027, Note_on_c, 1, 76, 127
1, 92134, Note_off_c, 1, 76, 0
1, 92136, Note_on_c, 1, 77, 127
1, 92244, Note_off_c, 1, 77, 0
1, 92246, Note_on_c, 1, 79, 127
1, 92353, Note_off_c, 1, 79, 0
1, 92355, Note_on_c, 1, 76, 127
1, 92462, Note_off_c, 1, 76, 0
1, 92464, Note_on_c, 1, 73, 127
1, 92571, Note_off_c, 1, 73, 0
1, 92573, Note_on_c, 1, 74, 127
1, 92680, Note_off_c, 1, 74, 0
1, 92682, Note_on_c, 1, 76, 127
1, 92790, Note_off_c, 1, 76, 0
1, 92792, Note_on_c, 1, 73, 127
1, 92899, Note_off_c, 1, 73, 0
1, 92901, Note_on_c, 1, 67, 127
1, 93008, Note_off_c, 1, 67, 0
1, 93010, Note_on_c, 1, 69, 127
1, 93117, Note_off_c, 1, 69, 0
1, 93119, Note_on_c, 1, 70, 127
1, 93227, Note_off_c, 1, 70, 0
1, 93229, Note_on_c, 1, 67, 127
1, 93336, Note_off_c, 1, 67, 0
1, 93338, Note_on_c, 1, 64, 127
1, 93445, Note_off_c, 1, 64, 0
1, 93447, Note_on_c, 1, 65, 127
1, 93554, Note_off_c, 1, 65, 0
1, 93556, Note_on_c, 1, 67, 127
1, 93664, Note_off_c, 1, 67, 0
1, 93666, Note_on_c, 1, 64, 127
1, 93773, Note_off_c, 1, 64, 0
1, 93775, Note_on_c, 1, 61, 127
1, 93882, Note_off_c, 1, 61, 0
1, 93884, Note_on_c, 1, 62, 127
1, 93991, Note_off_c, 1, 62, 0
1, 93993, Note_on_c, 1, 64, 127
1, 94101, Note_off_c, 1, 64, 0
1, 94103, Note_on_c, 1, 61, 127
1, 94210, Note_off_c, 1, 61, 0
1, 94212, Note_on_c, 1, 55, 127
1, 94319, Note_off_c, 1, 55, 0
1, 94321, Note_on_c, 1, 57, 127
1, 94428, Note_off_c, 1, 57, 0
1, 94430, Note_on_c, 1, 58, 127
1, 94538, Note_off_c, 1, 58, 0
1, 94540, Note_on_c, 1, 55, 127
1, 94647, Note_off_c, 1, 55, 0
1, 94649, Note_on_c, 1, 52, 127
1, 94756, Note_off_c, 1, 52, 0
1, 94758, Note_on_c, 1, 53, 127
1, 94865, Note_off_c, 1, 53, 0
1, 94867, Note_on_c, 1, 55, 127
1, 94975, Note_off_c, 1, 55, 0
1, 94977, Note_on_c, 1, 52, 127
1, 95084, Note_off_c, 1, 52, 0
1, 95086, Note_on_c, 1, 49, 127
1, 95193, Note_off_c, 1, 49, 0
1, 95195, Note_on_c, 1, 50, 127
1, 95302, Note_off_c, 1, 50, 0
1, 95304, Note_on_c, 1, 52, 127
1, 95412, Note_off_c, 1, 52, 0
1, 95414, Note_on_c, 1, 49, 127
1, 95521, Note_off_c, 1, 49, 0
1, 95523, Note_on_c, 1, 45, 127
1, 95625, Note_off_c, 1, 45, 0
1, 95627, Note_on_c, 1, 47, 127
1, 95729, Note_off_c, 1, 47, 0
1, 95731, Note_on_c, 1, 49, 127
1, 95833, Note_off_c, 1, 49, 0
1, 95835, Note_on_c, 1, 50, 127
1, 95938, Note_off_c, 1, 50, 0
1, 95940, Note_on_c, 1, 52, 127
1, 96042, Note_off_c, 1, 52, 0
1, 96044, Note_on_c, 1, 53, 127
1, 96146, Note_off_c, 1, 53, 0
1, 96148, Note_on_c, 1, 55, 127
1, 96250, Note_off_c, 1, 55, 0
1, 96252, Note_on_c, 1, 52, 127
1, 96354, Note_off_c, 1, 52, 0
1, 96356, Note_on_c, 1, 49, 127
1, 96459, Note_off_c, 1, 49, 0
1, 96461, Note_on_c, 1, 50, 127
1, 96563, Note_off_c, 1, 50, 0
1, 96565, Note_on_c, 1, 52, 127
1, 96667, Note_off_c, 1, 52, 0
1, 96669, Note_on_c, 1, 53, 127
1, 96771, Note_off_c, 1, 53, 0
1, 96773, Note_on_c, 1, 55, 127
1, 96875, Note_off_c, 1, 55, 0
1, 96877, Note_on_c, 1, 57, 127
1, 96980, Note_off_c, 1, 57, 0
1, 96982, Note_on_c, 1, 58, 127
1, 97084, Note_off_c, 1, 58, 0
1, 97086, Note_on_c, 1, 55, 127
1, 97188, Note_off_c, 1, 55, 0
1, 97190, Note_on_c, 1, 52, 127
1, 97292, Note_off_c, 1, 52, 0
1, 97294, Note_on_c, 1, 53, 127
1, 97396, Note_off_c, 1, 53, 0
1, 97398, Note_on_c, 1, 55, 127
1, 97501, Note_off_c, 1, 55, 0
1, 97503, Note_on_c, 1, 52, 127
1, 97605, Note_off_c, 1, 52, 0
1, 97607, Note_on_c, 1, 49, 127
1, 97709, Note_off_c, 1, 49, 0
1, 97711, Note_on_c, 1, 50, 127
1, 97813, Note_off_c, 1, 50, 0
1, 97815, Note_on_c, 1, 52, 127
1, 97917, Note_off_c, 1, 52, 0
1, 97919, Note_on_c, 1, 49, 127
1, 98022, Note_off_c, 1, 49, 0
1, 98024, Note_on_c, 1, 45, 127
1, 98126, Note_off_c, 1, 45, 0
1, 98128, Note_on_c, 1, 47, 127
1, 98230, Note_off_c, 1, 47, 0
1, 98232, Note_on_c, 1, 49, 127
1, 98341, Note_off_c, 1, 49, 0
1, 98343, Note_on_c, 1, 45, 127
1, 98462, Note_off_c, 1, 45, 0
1, 98464, Note_on_c, 1, 42, 127
1, 98792, Note_on_c, 1, 45, 127
1, 98905, Note_on_c, 1, 48, 127
1, 99019, Note_on_c, 1, 51, 127
1, 99132, Note_on_c, 1, 54, 127
1, 99246, Note_on_c, 1, 57, 127
1, 99357, Note_off_c, 1, 57, 0
1, 99359, Note_on_c, 1, 60, 127
1, 99471, Note_off_c, 1, 60, 0
1, 99473, Note_on_c, 1, 63, 127
1, 99584, Note_off_c, 1, 63, 0
1, 99586, Note_on_c, 1, 66, 127
1, 99697, Note_off_c, 1, 66, 0
1, 99699, Note_on_c, 1, 69, 127
1, 99811, Note_off_c, 1, 69, 0
1, 99813, Note_on_c, 1, 72, 127
1, 99924, Note_off_c, 1, 72, 0
1, 99926, Note_on_c, 1, 75, 127
1, 99940, Note_off_c, 1, 51, 0
1, 100171, Note_off_c, 1, 75, 0
1, 100173, Note_on_c, 1, 74, 127
1, 100393, Note_off_c, 1, 48, 0
1, 100396, Note_off_c, 1, 54, 0
1, 100400, Note_off_c, 1, 45, 0
1, 100408, Note_off_c, 1, 42, 0
1, 100605, Note_on_c, 1, 62, 127
1, 100877, Note_off_c, 1, 74, 0
1, 101605, Note_off_c, 1, 62, 0
1, 102450, Note_on_c, 1, 51, 127
1, 102564, Note_on_c, 1, 54, 127
1, 102677, Note_on_c, 1, 57, 127
1, 102791, Note_on_c, 1, 59, 127
1, 102904, Note_on_c, 1, 63, 127
1, 103017, Note_on_c, 1, 66, 127
1, 103131, Note_on_c, 1, 69, 127
1, 103244, Note_on_c, 1, 71, 127
1, 103351, Note_off_c, 1, 69, 0
1, 103465, Note_off_c, 1, 66, 0
1, 103576, Note_off_c, 1, 63, 0
1, 103691, Note_off_c, 1, 59, 0
1, 103805, Note_off_c, 1, 57, 0
1, 103912, Note_off_c, 1, 54, 0
1, 104020, Note_off_c, 1, 71, 0
1, 104026, Note_off_c, 1, 51, 0
1, 104374, Note_on_c, 1, 60, 127
1, 104821, Note_on_c, 1, 72, 127
1, 105258, Note_off_c, 1, 60, 0
1, 105581, Note_off_c, 1, 72, 0
1, 105603, Note_on_c, 1, 52, 127
1, 105712, Note_on_c, 1, 55, 127
1, 105822, Note_on_c, 1, 58, 127
1, 105931, Note_on_c, 1, 61, 127
1, 106040, Note_on_c, 1, 64, 127
1, 106149, Note_on_c, 1, 67, 127
1, 106259, Note_on_c, 1, 70, 127
1, 106368, Note_on_c, 1, 73, 127
1, 106475, Note_off_c, 1, 70, 0
1, 106479, Note_off_c, 1, 52, 0
1, 106573, Note_off_c, 1, 67, 0
1, 106688, Note_off_c, 1, 64, 0
1, 106799, Note_off_c, 1, 61, 0
1, 106902, Note_off_c, 1, 58, 0
1, 107004, Note_off_c, 1, 55, 0
1, 107004, Note_off_c, 1, 73, 0
1, 107133, Note_on_c, 1, 56, 127
1, 107242, Note_on_c, 1, 59, 127
1, 107351, Note_on_c, 1, 62, 127
1, 107460, Note_on_c, 1, 65, 127
1, 107570, Note_on_c, 1, 68, 127
1, 107679, Note_on_c, 1, 71, 127
1, 107788, Note_on_c, 1, 74, 127
1, 107887, Note_off_c, 1, 71, 0
1, 107998, Note_off_c, 1, 68, 0
1, 108104, Note_off_c, 1, 65, 0
1, 108211, Note_off_c, 1, 62, 0
1, 108314, Note_off_c, 1, 59, 0
1, 108429, Note_off_c, 1, 56, 0
1, 108566, Note_on_c, 1, 48, 127
1, 108699, Note_on_c, 1, 52, 127
1, 109057, Note_on_c, 1, 64, 127
1, 109396, Note_off_c, 1, 74, 0
1, 109737, Note_off_c, 1, 64, 0
1, 110115, Note_off_c, 1, 52, 0
1, 110242, Note_off_c, 1, 48, 0
1, 110489, Note_on_c, 1, 57, 127
1, 110608, Note_on_c, 1, 60, 127
1, 110847, Note_on_c, 1, 69, 127
1, 110966, Note_on_c, 1, 72, 127
1, 111079, Note_off_c, 1, 69, 0
1, 111312, Note_off_c, 1, 60, 0
1, 111358, Note_off_c, 1, 72, 0
1, 111433, Note_off_c, 1, 57, 0
1, 111815, Note_on_c, 1, 54, 127
1, 112143, Note_on_c, 1, 63, 127
1, 112252, Note_on_c, 1, 66, 127
1, 112680, Note_off_c, 1, 66, 0
1, 112783, Note_off_c, 1, 63, 0
1, 113107, Note_off_c, 1, 54, 0
1, 113235, Note_on_c, 1, 55, 127
1, 113344, Note_on_c, 1, 58, 127
1, 113454, Note_on_c, 1, 61, 127
1, 113563, Note_on_c, 1, 64, 127
1, 113672, Note_on_c, 1, 70, 127
1, 113781, Note_on_c, 1, 73, 127
1, 113880, Note_off_c, 1, 70, 0
1, 113995, Note_off_c, 1, 64, 0
1, 114102, Note_off_c, 1, 61, 0
1, 114204, Note_off_c, 1, 58, 0
1, 114319, Note_off_c, 1, 55, 0
1, 114429, Note_off_c, 1, 73, 0
1, 114437, Note_on_c, 1, 53, 127
1, 114549, Note_on_c, 1, 57, 127
1, 114660, Note_on_c, 1, 60, 127
1, 114772, Note_on_c, 1, 65, 127
1, 114884, Note_on_c, 1, 69, 127
1, 114996, Note_on_c, 1, 72, 127
1, 115107, Note_on_c, 1, 75, 127
1, 115204, Note_off_c, 1, 72, 0
1, 115320, Note_off_c, 1, 69, 0
1, 115428, Note_off_c, 1, 65, 0
1, 115540, Note_off_c, 1, 60, 0
1, 115653, Note_off_c, 1, 57, 0
1, 115765, Note_off_c, 1, 53, 0
1, 115871, Note_off_c, 1, 75, 0
1, 116337, Note_on_c, 1, 67, 127
1, 116781, Note_off_c, 1, 67, 0
1, 117561, Note_on_c, 1, 62, 127
1, 117889, Note_on_c, 1, 74, 127
1, 118209, Note_off_c, 1, 62, 0
1, 118517, Note_off_c, 1, 74, 0
1, 118544, Note_on_c, 1, 54, 127
1, 118654, Note_on_c, 1, 57, 127
1, 118763, Note_on_c, 1, 62, 127
1, 118872, Note_on_c, 1, 66, 127
1, 118981, Note_on_c, 1, 69, 127
1, 119091, Note_on_c, 1, 72, 127
1, 119193, Note_off_c, 1, 69, 0
1, 119296, Note_off_c, 1, 66, 0
1, 119407, Note_off_c, 1, 62, 0
1, 119514, Note_off_c, 1, 57, 0
1, 119620, Note_off_c, 1, 54, 0
1, 119707, Note_off_c, 1, 72, 0
1, 119759, Note_on_c, 1, 55, 127
1, 119899, Note_on_c, 1, 58, 127
1, 120018, Note_on_c, 1, 63, 127
1, 120137, Note_on_c, 1, 67, 127
1, 120257, Note_on_c, 1, 70, 127
1, 120365, Note_off_c, 1, 67, 0
1, 120482, Note_off_c, 1, 63, 0
1, 120607, Note_off_c, 1, 58, 0
1, 120719, Note_off_c, 1, 55, 0
1, 120853, Note_on_c, 1, 51, 127
1, 121019, Note_on_c, 1, 43, 127
1, 121144, Note_on_c, 1, 46, 127
1, 121253, Note_off_c, 1, 51, 0
1, 121757, Note_off_c, 1, 70, 0
1, 122016, Note_off_c, 1, 46, 0
1, 122019, Note_off_c, 1, 43, 0
1, 122021, Note_on_c, 1, 43, 127
1, 122152, Note_on_c, 1, 46, 127
1, 122283, Note_on_c, 1, 51, 127
1, 122414, Note_on_c, 1, 55, 127
1, 122545, Note_on_c, 1, 62, 127
1, 122676, Note_on_c, 1, 67, 127
1, 122807, Note_on_c, 1, 70, 127
1, 123060, Note_off_c, 1, 46, 0
1, 123064, Note_off_c, 1, 67, 0
1, 123065, Note_off_c, 1, 43, 0
1, 123066, Note_off_c, 1, 55, 0
1, 123067, Note_off_c, 1, 51, 0
1, 123068, Note_off_c, 1, 70, 0
1, 123069, Note_off_c, 1, 62, 0
1, 123070, Note_on_c, 1, 45, 127
1, 123190, Note_on_c, 1, 49, 127
1, 123309, Note_on_c, 1, 52, 127
1, 123428, Note_on_c, 1, 55, 127
1, 123548, Note_on_c, 1, 61, 127
1, 123667, Note_on_c, 1, 64, 127
1, 123786, Note_on_c, 1, 67, 127
1, 123906, Note_on_c, 1, 70, 127
1, 124018, Note_off_c, 1, 67, 0
1, 124139, Note_off_c, 1, 64, 0
1, 124256, Note_off_c, 1, 61, 0
1, 124368, Note_off_c, 1, 55, 0
1, 124485, Note_off_c, 1, 52, 0
1, 124606, Note_off_c, 1, 49, 0
1, 124734, Note_off_c, 1, 45, 0
1, 125074, Note_off_c, 1, 70, 0
1, 125099, Note_on_c, 1, 53, 127
1, 125457, Note_on_c, 1, 65, 127
1, 125576, Note_on_c, 1, 69, 127
1, 125685, Note_off_c, 1, 65, 0
1, 126039, Note_off_c, 1, 53, 0
1, 126508, Note_off_c, 1, 69, 0
1, 126539, Note_on_c, 1, 46, 127
1, 126711, Note_on_c, 1, 50, 127
1, 126830, Note_on_c, 1, 53, 127
1, 126949, Note_on_c, 1, 62, 127
1, 127069, Note_on_c, 1, 65, 127
1, 127188, Note_on_c, 1, 69, 127
1, 127670, Note_off_c, 1, 53, 0
1, 127675, Note_off_c, 1, 46, 0
1, 127679, Note_off_c, 1, 50, 0
1, 127763, Note_on_c, 1, 67, 127
1, 127765, Note_off_c, 1, 65, 0
1, 127765, Note_off_c, 1, 69, 0
1, 127769, Note_off_c, 1, 62, 0
1, 127900, Note_off_c, 1, 67, 0
1, 127902, Note_on_c, 1, 65, 127
1, 128040, Note_off_c, 1, 65, 0
1, 128042, Note_on_c, 1, 64, 127
1, 128179, Note_off_c, 1, 64, 0
1, 128181, Note_on_c, 1, 65, 127
1, 128319, Note_off_c, 1, 65, 0
1, 128321, Note_on_c, 1, 61, 127
1, 128458, Note_off_c, 1, 61, 0
1, 128460, Note_on_c, 1, 62, 127
1, 128598, Note_off_c, 1, 62, 0
1, 128600, Note_on_c, 1, 57, 127
1, 128737, Note_off_c, 1, 57, 0
1, 128739, Note_on_c, 1, 58, 127
1, 128877, Note_off_c, 1, 58, 0
1, 128879, Note_on_c, 1, 56, 127
1, 129016, Note_off_c, 1, 56, 0
1, 129018, Note_on_c, 1, 57, 127
1, 129156, Note_off_c, 1, 57, 0
1, 129158, Note_on_c, 1, 52, 127
1, 129295, Note_off_c, 1, 52, 0
1, 129297, Note_on_c, 1, 53, 127
1, 129435, Note_off_c, 1, 53, 0
1, 129437, Note_on_c, 1, 49, 127
1, 129574, Note_off_c, 1, 49, 0
1, 129576, Note_on_c, 1, 50, 127
1, 129714, Note_off_c, 1, 50, 0
1, 129716, Note_on_c, 1, 45, 127
1, 129853, Note_off_c, 1, 45, 0
1, 129855, Note_on_c, 1, 46, 127
1, 129993, Note_off_c, 1, 46, 0
1, 129995, Note_on_c, 1, 50, 127
1, 130132, Note_off_c, 1, 50, 0
1, 130134, Note_on_c, 1, 53, 127
1, 130272, Note_off_c, 1, 53, 0
1, 130274, Note_on_c, 1, 57, 127
1, 130411, Note_off_c, 1, 57, 0
1, 130413, Note_on_c, 1, 62, 127
1, 130551, Note_off_c, 1, 62, 0
1, 130553, Note_on_c, 1, 65, 127
1, 130690, Note_off_c, 1, 65, 0
1, 130692, Note_on_c, 1, 69, 127
1, 130830, Note_off_c, 1, 69, 0
1, 130832, Note_on_c, 1, 68, 127
1, 130969, Note_off_c, 1, 68, 0
1, 130971, Note_on_c, 1, 69, 127
1, 131109, Note_off_c, 1, 69, 0
1, 131111, Note_on_c, 1, 66, 127
1, 131258, Note_off_c, 1, 66, 0
1, 131260, Note_on_c, 1, 63, 127
1, 131406, Note_off_c, 1, 63, 0
1, 131408, Note_on_c, 1, 60, 127
1, 131555, Note_off_c, 1, 60, 0
1, 131557, Note_on_c, 1, 59, 127
1, 131704, Note_off_c, 1, 59, 0
1, 131706, Note_on_c, 1, 57, 127
1, 131852, Note_off_c, 1, 57, 0
1, 131854, Note_on_c, 1, 54, 127
1, 132021, Note_off_c, 1, 54, 0
1, 132023, Note_on_c, 1, 52, 127
1, 132190, Note_off_c, 1, 52, 0
1, 132192, Note_on_c, 1, 51, 127
1, 132357, Note_on_c, 1, 54, 127
1, 132473, Note_on_c, 1, 57, 127
1, 132589, Note_on_c, 1, 60, 127
1, 132705, Note_on_c, 1, 66, 127
1, 132818, Note_off_c, 1, 66, 0
1, 132820, Note_on_c, 1, 69, 127
1, 133507, Note_off_c, 1, 60, 0
1, 133517, Note_off_c, 1, 57, 0
1, 133523, Note_on_c, 1, 59, 127
1, 134476, Note_off_c, 1, 69, 0
1, 134490, Note_off_c, 1, 51, 0
1, 134493, Note_off_c, 1, 54, 0
1, 134505, Note_off_c, 1, 59, 0
1, 134507, Note_on_c, 1, 40, 127
1, 134612, Note_on_c, 1, 45, 127
1, 134716, Note_on_c, 1, 48, 127
1, 134820, Note_on_c, 1, 52, 127
1, 134924, Note_on_c, 1, 57, 127
1, 135028, Note_on_c, 1, 60, 127
1, 135133, Note_on_c, 1, 64, 127
1, 135237, Note_on_c, 1, 69, 127
1, 135325, Note_off_c, 1, 64, 0
1, 135436, Note_off_c, 1, 60, 0
1, 135536, Note_off_c, 1, 57, 0
1, 135640, Note_off_c, 1, 52, 0
1, 135744, Note_off_c, 1, 48, 0
1, 135852, Note_off_c, 1, 45, 0
1, 135951, Note_off_c, 1, 40, 0
1, 136053, Note_off_c, 1, 69, 0
1, 136070, Note_on_c, 1, 47, 127
1, 136279, Note_on_c, 1, 59, 127
1, 136383, Note_on_c, 1, 62, 127
1, 136591, Note_on_c, 1, 68, 127
1, 136785, Note_off_c, 1, 62, 0
1, 136879, Note_off_c, 1, 59, 0
1, 137102, Note_off_c, 1, 47, 0
1, 137317, Note_on_c, 1, 56, 127
1, 137695, Note_off_c, 1, 68, 0
1, 137817, Note_on_c, 1, 71, 127
1, 137917, Note_on_c, 1, 72, 127
1, 138015, Note_off_c, 1, 71, 0
1, 138499, Note_off_c, 1, 56, 0
1, 139291, Note_off_c, 1, 72, 0
1, 139517, Note_on_c, 1, 45, 127
1, 139617, Note_on_c, 1, 48, 127
1, 139717, Note_on_c, 1, 52, 127
1, 139817, Note_on_c, 1, 57, 127
1, 139917, Note_on_c, 1, 60, 127
1, 140017, Note_on_c, 1, 64, 127
1, 140117, Note_on_c, 1, 69, 127
1, 140217, Note_on_c, 1, 72, 127
1, 140345, Note_off_c, 1, 52, 0
1, 140345, Note_off_c, 1, 57, 0
1, 140345, Note_off_c, 1, 60, 0
1, 140345, Note_off_c, 1, 69, 0
1, 140348, Note_off_c, 1, 72, 0
1, 140349, Note_off_c, 1, 45, 0
1, 140349, Note_off_c, 1, 48, 0
1, 140349, Note_off_c, 1, 64, 0
1, 140350, Note_on_c, 1, 41, 127
1, 140454, Note_on_c, 1, 45, 127
1, 140559, Note_on_c, 1, 48, 127
1, 140663, Note_on_c, 1, 53, 127
1, 140767, Note_on_c, 1, 60, 127
1, 140871, Note_on_c, 1, 64, 127
1, 140975, Note_on_c, 1, 65, 127
1, 141080, Note_on_c, 1, 69, 127
1, 141184, Note_on_c, 1, 72, 127
1, 141276, Note_off_c, 1, 69, 0
1, 141278, Note_off_c, 1, 41, 0
1, 141391, Note_off_c, 1, 65, 0
1, 141483, Note_off_c, 1, 64, 0
1, 141591, Note_off_c, 1, 60, 0
1, 141695, Note_off_c, 1, 53, 0
1, 141791, Note_off_c, 1, 48, 0
1, 141898, Note_off_c, 1, 45, 0
1, 142008, Note_off_c, 1, 72, 0
1, 142017, Note_on_c, 1, 71, 127
1, 142017, Note_on_c, 1, 42, 127
1, 142226, Note_on_c, 1, 47, 127
1, 142328, Note_off_c, 1, 47, 0
1, 142330, Note_on_c, 1, 51, 127
1, 142434, Note_on_c, 1, 54, 127
1, 142538, Note_on_c, 1, 59, 127
1, 142643, Note_on_c, 1, 63, 127
1, 142747, Note_on_c, 1, 66, 127
1, 142829, Note_off_c, 1, 71, 0
1, 142838, Note_off_c, 1, 59, 0
1, 142841, Note_off_c, 1, 42, 0
1, 142849, Note_off_c, 1, 66, 0
1, 143154, Note_off_c, 1, 51, 0
1, 143254, Note_off_c, 1, 54, 0
1, 143372, Note_on_c, 1, 57, 127
1, 143571, Note_off_c, 1, 63, 0
1, 143705, Note_on_c, 1, 40, 127
1, 143712, Note_off_c, 1, 57, 0
1, 144005, Note_on_c, 1, 52, 127
1, 144605, Note_on_c, 1, 76, 127
1, 144705, Note_on_c, 1, 81, 127
1, 144797, Note_off_c, 1, 76, 0
1, 144993, Note_off_c, 1, 81, 0
1, 145389, Note_off_c, 1, 52, 0
1, 145689, Note_off_c, 1, 40, 0
1, 146105, Note_on_c, 1, 62, 127
1, 146485, Note_off_c, 1, 62, 0
1, 146505, Note_on_c, 1, 40, 127
1, 146605, Note_on_c, 1, 47, 127
1, 146705, Note_on_c, 1, 52, 127
1, 146805, Note_on_c, 1, 59, 127
1, 146905, Note_on_c, 1, 62, 127
1, 147005, Note_on_c, 1, 64, 127
1, 147105, Note_on_c, 1, 68, 127
1, 147297, Note_off_c, 1, 62, 0
1, 147297, Note_off_c, 1, 64, 0
1, 147541, Note_off_c, 1, 68, 0
1, 147545, Note_off_c, 1, 40, 0
1, 147545, Note_off_c, 1, 47, 0
1, 147545, Note_off_c, 1, 52, 0
1, 147545, Note_off_c, 1, 59, 0
1, 147553, Note_on_c, 1, 45, 127
1, 147653, Note_on_c, 1, 52, 127
1, 147753, Note_on_c, 1, 57, 127
1, 147853, Note_on_c, 1, 62, 127
1, 147953, Note_on_c, 1, 64, 127
1, 148053, Note_on_c, 1, 69, 127
1, 148858, Note_on_c, 1, 61, 127
1, 148953, Note_off_c, 1, 62, 0
1, 150153, Note_off_c, 1, 45, 0
1, 150153, Note_off_c, 1, 57, 0
1, 150157, Note_off_c, 1, 52, 0
1, 150158, Note_off_c, 1, 61, 0
1, 150160, Note_off_c, 1, 69, 0
1, 150163, Note_off_c, 1, 64, 0
1, 150643, Note_on_c, 1, 70, 127
1, 150828, Note_off_c, 1, 70, 0
1, 150830, Note_on_c, 1, 69, 127
1, 151014, Note_off_c, 1, 69, 0
1, 151016, Note_on_c, 1, 67, 127
1, 151201, Note_off_c, 1, 67, 0
1, 151203, Note_on_c, 1, 66, 127
1, 151388, Note_off_c, 1, 66, 0
1, 151390, Note_on_c, 1, 67, 127
1, 151574, Note_off_c, 1, 67, 0
1, 151576, Note_on_c, 1, 66, 127
1, 151761, Note_off_c, 1, 66, 0
1, 151763, Note_on_c, 1, 67, 127
1, 151947, Note_off_c, 1, 67, 0
1, 151949, Note_on_c, 1, 69, 127
1, 152089, Note_off_c, 1, 69, 0
1, 152097, Note_on_c, 1, 67, 127
1, 152237, Note_off_c, 1, 67, 0
1, 152245, Note_on_c, 1, 69, 127
1, 152377, Note_on_c, 1, 67, 127
1, 152385, Note_off_c, 1, 69, 0
1, 152517, Note_off_c, 1, 67, 0
1, 152525, Note_on_c, 1, 69, 127
1, 152665, Note_off_c, 1, 69, 0
1, 152673, Note_on_c, 1, 67, 127
1, 152813, Note_off_c, 1, 67, 0
1, 152820, Note_on_c, 1, 66, 127
1, 152982, Note_off_c, 1, 66, 0
1, 152984, Note_on_c, 1, 67, 127
1, 153146, Note_off_c, 1, 67, 0
1, 153148, Note_on_c, 1, 69, 127
1, 153310, Note_off_c, 1, 69, 0
1, 153312, Note_on_c, 1, 66, 127
1, 153474, Note_off_c, 1, 66, 0
1, 153476, Note_on_c, 1, 62, 127
1, 153634, Note_on_c, 1, 61, 127
1, 153638, Note_off_c, 1, 62, 0
1, 153968, Note_on_c, 1, 60, 127
1, 153970, Note_off_c, 1, 61, 0
1, 154255, Note_off_c, 1, 60, 0
1, 154257, Note_on_c, 1, 70, 127
1, 154257, Note_on_c, 1, 63, 127
1, 154257, Note_on_c, 1, 60, 127
1, 154257, Note_on_c, 1, 54, 127
1, 154257, Note_on_c, 1, 48, 127
1, 154257, Note_on_c, 1, 42, 127
1, 154257, Note_on_c, 1, 51, 127
1, 154583, Note_off_c, 1, 70, 0
1, 154585, Note_on_c, 1, 69, 127
1, 155304, Note_off_c, 1, 63, 0
1, 155304, Note_off_c, 1, 60, 0
1, 155304, Note_off_c, 1, 54, 0
1, 155304, Note_off_c, 1, 48, 0
1, 155304, Note_off_c, 1, 42, 0
1, 155304, Note_off_c, 1, 51, 0
1, 155304, Note_off_c, 1, 69, 0
1, 155790, Note_on_c, 1, 64, 127
1, 155978, Note_off_c, 1, 64, 0
1, 155980, Note_on_c, 1, 65, 127
1, 156168, Note_off_c, 1, 65, 0
1, 156170, Note_on_c, 1, 67, 127
1, 156358, Note_off_c, 1, 67, 0
1, 156360, Note_on_c, 1, 69, 127
1, 156548, Note_off_c, 1, 69, 0
1, 156550, Note_on_c, 1, 70, 127
1, 156738, Note_off_c, 1, 70, 0
1, 156740, Note_on_c, 1, 72, 127
1, 156928, Note_off_c, 1, 72, 0
1, 156930, Note_on_c, 1, 73, 127
1, 157118, Note_off_c, 1, 73, 0
1, 157120, Note_on_c, 1, 72, 127
1, 157308, Note_off_c, 1, 72, 0
1, 157310, Note_on_c, 1, 73, 127
1, 157498, Note_off_c, 1, 73, 0
1, 157500, Note_on_c, 1, 75, 127
1, 157640, Note_off_c, 1, 75, 0
1, 157650, Note_on_c, 1, 73, 127
1, 157790, Note_off_c, 1, 73, 0
1, 157800, Note_on_c, 1, 75, 127
1, 157940, Note_off_c, 1, 75, 0
1, 157950, Note_on_c, 1, 73, 127
1, 158090, Note_off_c, 1, 73, 0
1, 158100, Note_on_c, 1, 75, 127
1, 158240, Note_off_c, 1, 75, 0
1, 158250, Note_on_c, 1, 73, 127
1, 158390, Note_off_c, 1, 73, 0
1, 158401, Note_on_c, 1, 72, 127
1, 158574, Note_off_c, 1, 72, 0
1, 158586, Note_on_c, 1, 73, 127
1, 158750, Note_off_c, 1, 73, 0
1, 158761, Note_on_c, 1, 75, 127
1, 158925, Note_off_c, 1, 75, 0
1, 158927, Note_on_c, 1, 54, 127
1, 158927, Note_on_c, 1, 60, 127
1, 158927, Note_on_c, 1, 66, 127
1, 158927, Note_on_c, 1, 63, 127
1, 158927, Note_on_c, 1, 48, 127
1, 158927, Note_on_c, 1, 51, 127
1, 158927, Note_on_c, 1, 75, 127
1, 159385, Note_on_c, 1, 69, 127
1, 160168, Note_off_c, 1, 54, 0
1, 160168, Note_off_c, 1, 60, 0
1, 160168, Note_off_c, 1, 66, 0
1, 160168, Note_off_c, 1, 63, 0
1, 160168, Note_off_c, 1, 48, 0
1, 160168, Note_off_c, 1, 51, 0
1, 160168, Note_off_c, 1, 75, 0
1, 160172, Note_off_c, 1, 69, 0
1, 160457, Note_on_c, 1, 75, 127
1, 160733, Note_off_c, 1, 75, 0
1, 160735, Note_on_c, 1, 78, 127
1, 161011, Note_off_c, 1, 78, 0
1, 161013, Note_on_c, 1, 77, 127
1, 161289, Note_off_c, 1, 77, 0
1, 161291, Note_on_c, 1, 75, 127
1, 161568, Note_off_c, 1, 75, 0
1, 161570, Note_on_c, 1, 73, 127
1, 161846, Note_off_c, 1, 73, 0
1, 161848, Note_on_c, 1, 72, 127
1, 162124, Note_off_c, 1, 72, 0
1, 162126, Note_on_c, 1, 73, 127
1, 162321, Note_off_c, 1, 73, 0
1, 162323, Note_on_c, 1, 70, 127
1, 162519, Note_off_c, 1, 70, 0
1, 162521, Note_on_c, 1, 70, 127
1, 163075, Note_off_c, 1, 70, 0
1, 163077, Note_on_c, 1, 69, 127
1, 163618, Note_off_c, 1, 69, 0
1, 163620, Note_on_c, 1, 54, 127
1, 163620, Note_on_c, 1, 57, 127
1, 163620, Note_on_c, 1, 66, 127
1, 163620, Note_on_c, 1, 60, 127
1, 163620, Note_on_c, 1, 63, 127
1, 163620, Note_on_c, 1, 69, 127
1, 164048, Note_off_c, 1, 54, 0
1, 164048, Note_off_c, 1, 57, 0
1, 164048, Note_off_c, 1, 66, 0
1, 164048, Note_off_c, 1, 60, 0
1, 164048, Note_off_c, 1, 63, 0
1, 164048, Note_off_c, 1, 69, 0
1, 164050, Note_on_c, 1, 70, 127
1, 164050, Note_on_c, 1, 61, 127
1, 164188, Note_off_c, 1, 70, 0
1, 164188, Note_off_c, 1, 61, 0
1, 164190, Note_on_c, 1, 69, 127
1, 164190, Note_on_c, 1, 60, 127
1, 164327, Note_off_c, 1, 69, 0
1, 164327, Note_off_c, 1, 60, 0
1, 164329, Note_on_c, 1, 70, 127
1, 164329, Note_on_c, 1, 61, 127
1, 164467, Note_off_c, 1, 70, 0
1, 164467, Note_off_c, 1, 61, 0
1, 164469, Note_on_c, 1, 63, 127
1, 164469, Note_on_c, 1, 72, 127
1, 164606, Note_off_c, 1, 63, 0
1, 164606, Note_off_c, 1, 72, 0
1, 164608, Note_on_c, 1, 70, 127
1, 164608, Note_on_c, 1, 61, 127
1, 164746, Note_off_c, 1, 70, 0
1, 164746, Note_off_c, 1, 61, 0
1, 164748, Note_on_c, 1, 72, 127
1, 164748, Note_on_c, 1, 63, 127
1, 164885, Note_off_c, 1, 72, 0
1, 164885, Note_off_c, 1, 63, 0
1, 164887, Note_on_c, 1, 70, 127
1, 164887, Note_on_c, 1, 61, 127
1, 165025, Note_off_c, 1, 70, 0
1, 165025, Note_off_c, 1, 61, 0
1, 165027, Note_on_c, 1, 72, 127
1, 165027, Note_on_c, 1, 63, 127
1, 165164, Note_off_c, 1, 72, 0
1, 165164, Note_off_c, 1, 63, 0
1, 165166, Note_on_c, 1, 70, 127
1, 165166, Note_on_c, 1, 61, 127
1, 165304, Note_off_c, 1, 70, 0
1, 165304, Note_off_c, 1, 61, 0
1, 165306, Note_on_c, 1, 60, 127
1, 165306, Note_on_c, 1, 69, 127
1, 165443, Note_off_c, 1, 60, 0
1, 165443, Note_off_c, 1, 69, 0
1, 165445, Note_on_c, 1, 70, 127
1, 165445, Note_on_c, 1, 61, 127
1, 165583, Note_off_c, 1, 70, 0
1, 165583, Note_off_c, 1, 61, 0
1, 165585, Note_on_c, 1, 63, 127
1, 165585, Note_on_c, 1, 72, 127
1, 166123, Note_off_c, 1, 63, 0
1, 166123, Note_off_c, 1, 72, 0
1, 166141, Note_on_c, 1, 63, 127
1, 166141, Note_on_c, 1, 72, 127
1, 166141, Note_on_c, 1, 66, 127
1, 166141, Note_on_c, 1, 60, 127
1, 166141, Note_on_c, 1, 57, 127
1, 166141, Note_on_c, 1, 54, 127
1, 166141, Note_on_c, 1, 51, 127
1, 166141, Note_on_c, 1, 45, 127
1, 166556, Note_off_c, 1, 63, 0
1, 166556, Note_off_c, 1, 72, 0
1, 166556, Note_off_c, 1, 66, 0
1, 166556, Note_off_c, 1, 60, 0
1, 166556, Note_off_c, 1, 57, 0
1, 166556, Note_off_c, 1, 54, 0
1, 166556, Note_off_c, 1, 51, 0
1, 166556, Note_off_c, 1, 45, 0
1, 166558, Note_on_c, 1, 73, 127
1, 166558, Note_on_c, 1, 65, 127
1, 166695, Note_off_c, 1, 73, 0
1, 166695, Note_off_c, 1, 65, 0
1, 166697, Note_on_c, 1, 63, 127
1, 166697, Note_on_c, 1, 72, 127
1, 166835, Note_off_c, 1, 63, 0
1, 166835, Note_off_c, 1, 72, 0
1, 166837, Note_on_c, 1, 65, 127
1, 166837, Note_on_c, 1, 73, 127
1, 166974, Note_off_c, 1, 65, 0
1, 166974, Note_off_c, 1, 73, 0
1, 166976, Note_on_c, 1, 66, 127
1, 166976, Note_on_c, 1, 75, 127
1, 167114, Note_off_c, 1, 66, 0
1, 167114, Note_off_c, 1, 75, 0
1, 167116, Note_on_c, 1, 73, 127
1, 167116, Note_on_c, 1, 65, 127
1, 167253, Note_off_c, 1, 73, 0
1, 167253, Note_off_c, 1, 65, 0
1, 167255, Note_on_c, 1, 75, 127
1, 167255, Note_on_c, 1, 66, 127
1, 167393, Note_off_c, 1, 75, 0
1, 167393, Note_off_c, 1, 66, 0
1, 167395, Note_on_c, 1, 73, 127
1, 167395, Note_on_c, 1, 65, 127
1, 167532, Note_off_c, 1, 73, 0
1, 167532, Note_off_c, 1, 65, 0
1, 167534, Note_on_c, 1, 75, 127
1, 167534, Note_on_c, 1, 66, 127
1, 167672, Note_off_c, 1, 75, 0
1, 167672, Note_off_c, 1, 66, 0
1, 167674, Note_on_c, 1, 65, 127
1, 167674, Note_on_c, 1, 73, 127
1, 167811, Note_off_c, 1, 65, 0
1, 167811, Note_off_c, 1, 73, 0
1, 167813, Note_on_c, 1, 63, 127
1, 167813, Note_on_c, 1, 72, 127
1, 167951, Note_off_c, 1, 63, 0
1, 167951, Note_off_c, 1, 72, 0
1, 167953, Note_on_c, 1, 73, 127
1, 167953, Note_on_c, 1, 65, 127
1, 168090, Note_off_c, 1, 73, 0
1, 168090, Note_off_c, 1, 65, 0
1, 168092, Note_on_c, 1, 75, 127
1, 168092, Note_on_c, 1, 66, 127
1, 168331, Note_off_c, 1, 75, 0
1, 168333, Note_on_c, 1, 72, 127
1, 168573, Note_off_c, 1, 72, 0
1, 168575, Note_on_c, 1, 69, 127
1, 168578, Note_off_c, 1, 66, 0
1, 168814, Note_off_c, 1, 69, 0
1, 168816, Note_on_c, 1, 70, 127
1, 169055, Note_off_c, 1, 70, 0
1, 169057, Note_on_c, 1, 70, 127
1, 169510, Note_off_c, 1, 70, 0
1, 169512, Note_on_c, 1, 69, 127
1, 169964, Note_off_c, 1, 69, 0
1, 169966, Note_on_c, 1, 65, 127
1, 169966, Note_on_c, 1, 69, 127
1, 169966, Note_on_c, 1, 41, 127
1, 169966, Note_on_c, 1, 63, 127
1, 169966, Note_on_c, 1, 60, 127
1, 169966, Note_on_c, 1, 45, 127
1, 169966, Note_on_c, 1, 53, 127
1, 169966, Note_on_c, 1, 48, 127
1, 171224, Note_off_c, 1, 65, 0
1, 171224, Note_off_c, 1, 69, 0
1, 171224, Note_off_c, 1, 41, 0
1, 171224, Note_off_c, 1, 63, 0
1, 171224, Note_off_c, 1, 60, 0
1, 171224, Note_off_c, 1, 45, 0
1, 171224, Note_off_c, 1, 53, 0
1, 171224, Note_off_c, 1, 48, 0
1, 171441, Note_on_c, 1, 65, 127
1, 171689, Note_off_c, 1, 65, 0
1, 171691, Note_on_c, 1, 69, 127
1, 171938, Note_off_c, 1, 69, 0
1, 171940, Note_on_c, 1, 72, 127
1, 172188, Note_off_c, 1, 72, 0
1, 172190, Note_on_c, 1, 75, 127
1, 172438, Note_off_c, 1, 75, 0
1, 172440, Note_on_c, 1, 78, 127
1, 172761, Note_off_c, 1, 78, 0
1, 172763, Note_on_c, 1, 77, 127
1, 173085, Note_off_c, 1, 77, 0
1, 173087, Note_on_c, 1, 75, 127
1, 173334, Note_off_c, 1, 75, 0
1, 173336, Note_on_c, 1, 73, 127
1, 173584, Note_off_c, 1, 73, 0
1, 173586, Note_on_c, 1, 73, 127
1, 174084, Note_off_c, 1, 73, 0
1, 174086, Note_on_c, 1, 73, 127
1, 174086, Note_on_c, 1, 41, 127
1, 174086, Note_on_c, 1, 46, 127
1, 174086, Note_on_c, 1, 49, 127
1, 174086, Note_on_c, 1, 54, 127
1, 174086, Note_on_c, 1, 61, 127
1, 174086, Note_on_c, 1, 66, 127
1, 174086, Note_on_c, 1, 70, 127
1, 175200, Note_off_c, 1, 73, 0
1, 175352, Note_off_c, 1, 41, 0
1, 175352, Note_off_c, 1, 46, 0
1, 175352, Note_off_c, 1, 49, 0
1, 175352, Note_off_c, 1, 54, 0
1, 175352, Note_off_c, 1, 61, 0
1, 175352, Note_off_c, 1, 66, 0
1, 175352, Note_off_c, 1, 70, 0
1, 175430, Note_on_c, 1, 76, 127
1, 175657, Note_off_c, 1, 76, 0
1, 175659, Note_on_c, 1, 75, 127
1, 175865, Note_off_c, 1, 75, 0
1, 175867, Note_on_c, 1, 73, 127
1, 176074, Note_off_c, 1, 73, 0
1, 176076, Note_on_c, 1, 71, 127
1, 176282, Note_off_c, 1, 71, 0
1, 176284, Note_on_c, 1, 70, 127
1, 176490, Note_off_c, 1, 70, 0
1, 176492, Note_on_c, 1, 71, 127
1, 176699, Note_off_c, 1, 71, 0
1, 176701, Note_on_c, 1, 73, 127
1, 176877, Note_off_c, 1, 73, 0
1, 176879, Note_on_c, 1, 71, 127
1, 177055, Note_off_c, 1, 71, 0
1, 177057, Note_on_c, 1, 73, 127
1, 177233, Note_off_c, 1, 73, 0
1, 177235, Note_on_c, 1, 71, 127
1, 177411, Note_off_c, 1, 71, 0
1, 177413, Note_on_c, 1, 73, 127
1, 177590, Note_off_c, 1, 73, 0
1, 177592, Note_on_c, 1, 71, 127
1, 177768, Note_off_c, 1, 71, 0
1, 177770, Note_on_c, 1, 70, 127
1, 177946, Note_off_c, 1, 70, 0
1, 177948, Note_on_c, 1, 71, 127
1, 178124, Note_off_c, 1, 71, 0
1, 178126, Note_on_c, 1, 73, 127
1, 178302, Note_off_c, 1, 73, 0
1, 178304, Note_on_c, 1, 68, 127
1, 178669, Note_off_c, 1, 68, 0
1, 178671, Note_on_c, 1, 67, 127
1, 179011, Note_off_c, 1, 67, 0
1, 179018, Note_on_c, 1, 67, 127
1, 179018, Note_on_c, 1, 63, 127
1, 179018, Note_on_c, 1, 61, 127
1, 179018, Note_on_c, 1, 58, 127
1, 179018, Note_on_c, 1, 46, 127
1, 179018, Note_on_c, 1, 51, 127
1, 179018, Note_on_c, 1, 43, 127
1, 179018, Note_on_c, 1, 39, 127
1, 180096, Note_off_c, 1, 67, 0
1, 180332, Note_off_c, 1, 63, 0
1, 180332, Note_off_c, 1, 61, 0
1, 180332, Note_off_c, 1, 58, 0
1, 180332, Note_off_c, 1, 46, 0
1, 180332, Note_off_c, 1, 51, 0
1, 180338, Note_off_c, 1, 43, 0
1, 180344, Note_off_c, 1, 39, 0
1, 180348, Note_on_c, 1, 63, 127
1, 180595, Note_off_c, 1, 63, 0
1, 180597, Note_on_c, 1, 65, 127
1, 180845, Note_off_c, 1, 65, 0
1, 180847, Note_on_c, 1, 67, 127
1, 181095, Note_off_c, 1, 67, 0
1, 181097, Note_on_c, 1, 68, 127
1, 181237, Note_off_c, 1, 68, 0
1, 181239, Note_on_c, 1, 67, 127
1, 181365, Note_off_c, 1, 67, 0
1, 181367, Note_on_c, 1, 65, 127
1, 181615, Note_off_c, 1, 65, 0
1, 181617, Note_on_c, 1, 68, 127
1, 181757, Note_off_c, 1, 68, 0
1, 181759, Note_on_c, 1, 67, 127
1, 181926, Note_off_c, 1, 67, 0
1, 181928, Note_on_c, 1, 68, 127
1, 182054, Note_off_c, 1, 68, 0
1, 182056, Note_on_c, 1, 67, 127
1, 182169, Note_off_c, 1, 67, 0
1, 182171, Note_on_c, 1, 68, 127
1, 182750, Note_off_c, 1, 68, 0
1, 182752, Note_on_c, 1, 68, 127
1, 182752, Note_on_c, 1, 64, 127
1, 182752, Note_on_c, 1, 56, 127
1, 182752, Note_on_c, 1, 59, 127
1, 182752, Note_on_c, 1, 52, 127
1, 182752, Note_on_c, 1, 47, 127
1, 182752, Note_on_c, 1, 38, 127
1, 183541, Note_off_c, 1, 68, 0
1, 183541, Note_off_c, 1, 64, 0
1, 183541, Note_off_c, 1, 56, 0
1, 183541, Note_off_c, 1, 59, 0
1, 183541, Note_off_c, 1, 52, 0
1, 183541, Note_off_c, 1, 47, 0
1, 183541, Note_off_c, 1, 38, 0
1, 183591, Note_on_c, 1, 59, 127
1, 183728, Note_off_c, 1, 59, 0
1, 183730, Note_on_c, 1, 61, 127
1, 183868, Note_off_c, 1, 61, 0
1, 183870, Note_on_c, 1, 63, 127
1, 184007, Note_off_c, 1, 63, 0
1, 184009, Note_on_c, 1, 64, 127
1, 184147, Note_off_c, 1, 64, 0
1, 184149, Note_on_c, 1, 66, 127
1, 184286, Note_off_c, 1, 66, 0
1, 184288, Note_on_c, 1, 68, 127
1, 184426, Note_off_c, 1, 68, 0
1, 184428, Note_on_c, 1, 69, 127
1, 184565, Note_off_c, 1, 69, 0
1, 184567, Note_on_c, 1, 71, 127
1, 184786, Note_off_c, 1, 71, 0
1, 184788, Note_on_c, 1, 74, 127
1, 185006, Note_off_c, 1, 74, 0
1, 185008, Note_on_c, 1, 73, 127
1, 185226, Note_off_c, 1, 73, 0
1, 185228, Note_on_c, 1, 76, 127
1, 185365, Note_off_c, 1, 76, 0
1, 185367, Note_on_c, 1, 74, 127
1, 185505, Note_off_c, 1, 74, 0
1, 185507, Note_on_c, 1, 74, 127
1, 185783, Note_off_c, 1, 74, 0
1, 185785, Note_on_c, 1, 49, 127
1, 185898, Note_on_c, 1, 53, 127
1, 186012, Note_on_c, 1, 56, 127
1, 186125, Note_on_c, 1, 61, 127
1, 186239, Note_on_c, 1, 65, 127
1, 186352, Note_on_c, 1, 68, 127
1, 186466, Note_on_c, 1, 71, 127
1, 186579, Note_on_c, 1, 74, 127
1, 186954, Note_off_c, 1, 74, 0
1, 186956, Note_on_c, 1, 73, 127
1, 187672, Note_off_c, 1, 68, 0
1, 187673, Note_off_c, 1, 65, 0
1, 187678, Note_off_c, 1, 71, 0
1, 187685, Note_off_c, 1, 61, 0
1, 187686, Note_off_c, 1, 56, 0
1, 187692, Note_off_c, 1, 53, 0
1, 187693, Note_off_c, 1, 49, 0
1, 187700, Note_off_c, 1, 73, 0
1, 187702, Note_on_c, 1, 71, 127
1, 187702, Note_on_c, 1, 62, 127
1, 188074, Note_off_c, 1, 71, 0
1, 188074, Note_off_c, 1, 62, 0
1, 188076, Note_on_c, 1, 71, 127
1, 188076, Note_on_c, 1, 62, 127
1, 188448, Note_off_c, 1, 71, 0
1, 188448, Note_off_c, 1, 62, 0
1, 188450, Note_on_c, 1, 69, 127
1, 188450, Note_on_c, 1, 61, 127
1, 188822, Note_off_c, 1, 69, 0
1, 188822, Note_off_c, 1, 61, 0
1, 188824, Note_on_c, 1, 61, 127
1, 188824, Note_on_c, 1, 69, 127
1, 189196, Note_off_c, 1, 61, 0
1, 189196, Note_off_c, 1, 69, 0
1, 189198, Note_on_c, 1, 59, 127
1, 189198, Note_on_c, 1, 68, 127
1, 189570, Note_off_c, 1, 59, 0
1, 189570, Note_off_c, 1, 68, 0
1, 189572, Note_on_c, 1, 68, 127
1, 189572, Note_on_c, 1, 59, 127
1, 189797, Note_off_c, 1, 68, 0
1, 189799, Note_on_c, 1, 69, 127
1, 190025, Note_off_c, 1, 69, 0
1, 190027, Note_on_c, 1, 71, 127
1, 190253, Note_off_c, 1, 71, 0
1, 190255, Note_on_c, 1, 73, 127
1, 190376, Note_off_c, 1, 59, 0
1, 190480, Note_off_c, 1, 73, 0
1, 190482, Note_on_c, 1, 74, 127
1, 190482, Note_on_c, 1, 61, 127
1, 190708, Note_off_c, 1, 74, 0
1, 190710, Note_on_c, 1, 71, 127
1, 190926, Note_off_c, 1, 61, 0
1, 190936, Note_off_c, 1, 71, 0
1, 190938, Note_on_c, 1, 68, 127
1, 190938, Note_on_c, 1, 62, 127
1, 191070, Note_off_c, 1, 68, 0
1, 191072, Note_on_c, 1, 65, 127
1, 191217, Note_off_c, 1, 65, 0
1, 191219, Note_on_c, 1, 66, 127
1, 191466, Note_off_c, 1, 62, 0
1, 191483, Note_off_c, 1, 66, 0
1, 191485, Note_on_c, 1, 66, 127
1, 191485, Note_on_c, 1, 62, 127
1, 191485, Note_on_c, 1, 56, 127
1, 191485, Note_on_c, 1, 47, 127
1, 191958, Note_off_c, 1, 66, 0
1, 191960, Note_on_c, 1, 65, 127
1, 192583, Note_off_c, 1, 62, 0
1, 192583, Note_off_c, 1, 56, 0
1, 192587, Note_off_c, 1, 65, 0
1, 192589, Note_off_c, 1, 47, 0
1, 192728, Note_on_c, 1, 66, 127
1, 192864, Note_off_c, 1, 66, 0
1, 192866, Note_on_c, 1, 68, 127
1, 193003, Note_off_c, 1, 68, 0
1, 193005, Note_on_c, 1, 66, 127
1, 193249, Note_off_c, 1, 66, 0
1, 193251, Note_on_c, 1, 65, 127
1, 193509, Note_off_c, 1, 65, 0
1, 193511, Note_on_c, 1, 71, 127
1, 193511, Note_on_c, 1, 53, 127
1, 193511, Note_on_c, 1, 56, 127
1, 193894, Note_off_c, 1, 71, 0
1, 193896, Note_on_c, 1, 73, 127
1, 194086, Note_off_c, 1, 73, 0
1, 194088, Note_on_c, 1, 74, 127
1, 194273, Note_off_c, 1, 53, 0
1, 194279, Note_off_c, 1, 56, 0
1, 194279, Note_off_c, 1, 74, 0
1, 194281, Note_on_c, 1, 69, 127
1, 194281, Note_on_c, 1, 73, 127
1, 194281, Note_on_c, 1, 57, 127
1, 194281, Note_on_c, 1, 54, 127
1, 194664, Note_off_c, 1, 69, 0
1, 194664, Note_off_c, 1, 73, 0
1, 194664, Note_off_c, 1, 57, 0
1, 194665, Note_off_c, 1, 54, 0
1, 194666, Note_on_c, 1, 68, 127
1, 194666, Note_on_c, 1, 71, 127
1, 194666, Note_on_c, 1, 59, 127
1, 194666, Note_on_c, 1, 62, 127
1, 195049, Note_off_c, 1, 68, 0
1, 195049, Note_off_c, 1, 71, 0
1, 195049, Note_off_c, 1, 59, 0
1, 195049, Note_off_c, 1, 62, 0
1, 195051, Note_on_c, 1, 66, 127
1, 195051, Note_on_c, 1, 69, 127
1, 195051, Note_on_c, 1, 49, 127
1, 195051, Note_on_c, 1, 61, 127
1, 195433, Note_off_c, 1, 66, 0
1, 195433, Note_off_c, 1, 69, 0
1, 195435, Note_on_c, 1, 68, 127
1, 195626, Note_off_c, 1, 68, 0
1, 195628, Note_on_c, 1, 71, 127
1, 195795, Note_off_c, 1, 49, 0
1, 195813, Note_off_c, 1, 61, 0
1, 195818, Note_off_c, 1, 71, 0
1, 195820, Note_on_c, 1, 69, 127
1, 195820, Note_on_c, 1, 65, 127
1, 195820, Note_on_c, 1, 49, 127
1, 195820, Note_on_c, 1, 59, 127
1, 196203, Note_off_c, 1, 69, 0
1, 196203, Note_off_c, 1, 65, 0
1, 196205, Note_on_c, 1, 68, 127
1, 196396, Note_off_c, 1, 68, 0
1, 196398, Note_on_c, 1, 66, 127
1, 196570, Note_off_c, 1, 49, 0
1, 196576, Note_off_c, 1, 59, 0
1, 196588, Note_off_c, 1, 66, 0
1, 196590, Note_on_c, 1, 57, 127
1, 196590, Note_on_c, 1, 54, 127
1, 196590, Note_on_c, 1, 48, 127
1, 196590, Note_on_c, 1, 69, 127
1, 196590, Note_on_c, 1, 75, 127
1, 196590, Note_on_c, 1, 66, 127
1, 196590, Note_on_c, 1, 63, 127
1, 197429, Note_off_c, 1, 57, 0
1, 197429, Note_off_c, 1, 54, 0
1, 197429, Note_off_c, 1, 48, 0
1, 197429, Note_off_c, 1, 69, 0
1, 197429, Note_off_c, 1, 75, 0
1, 197429, Note_off_c, 1, 66, 0
1, 197429, Note_off_c, 1, 63, 0
1, 197479, Note_on_c, 1, 76, 127
1, 197614, Note_off_c, 1, 76, 0
1, 197616, Note_on_c, 1, 75, 127
1, 197751, Note_off_c, 1, 75, 0
1, 197753, Note_on_c, 1, 73, 127
1, 197875, Note_off_c, 1, 73, 0
1, 197877, Note_on_c, 1, 72, 127
1, 198039, Note_off_c, 1, 72, 0
1, 198041, Note_on_c, 1, 73, 127
1, 198202, Note_off_c, 1, 73, 0
1, 198204, Note_on_c, 1, 75, 127
1, 198366, Note_off_c, 1, 75, 0
1, 198368, Note_on_c, 1, 76, 127
1, 198530, Note_off_c, 1, 76, 0
1, 198532, Note_on_c, 1, 78, 127
1, 198694, Note_off_c, 1, 78, 0
1, 198696, Note_on_c, 1, 80, 127
1, 198858, Note_off_c, 1, 80, 0
1, 198860, Note_on_c, 1, 81, 127
1, 199186, Note_off_c, 1, 81, 0
1, 199188, Note_on_c, 1, 81, 127
1, 199515, Note_off_c, 1, 81, 0
1, 199517, Note_on_c, 1, 60, 127
1, 199517, Note_on_c, 1, 51, 127
1, 199517, Note_on_c, 1, 54, 127
1, 199517, Note_on_c, 1, 44, 127
1, 199701, Note_on_c, 1, 72, 127
1, 199845, Note_off_c, 1, 60, 0
1, 199853, Note_off_c, 1, 72, 0
1, 199855, Note_on_c, 1, 75, 127
1, 199999, Note_on_c, 1, 78, 127
1, 200007, Note_off_c, 1, 75, 0
1, 200151, Note_off_c, 1, 78, 0
1, 200152, Note_on_c, 1, 81, 127
1, 200304, Note_off_c, 1, 81, 0
1, 200307, Note_on_c, 1, 80, 127
1, 200597, Note_off_c, 1, 51, 0
1, 200603, Note_off_c, 1, 54, 0
1, 200609, Note_off_c, 1, 44, 0
1, 200667, Note_off_c, 1, 80, 0
1, 200829, Note_on_c, 1, 78, 127
1, 200991, Note_off_c, 1, 78, 0
1, 200993, Note_on_c, 1, 66, 127
1, 200993, Note_on_c, 1, 61, 127
1, 200993, Note_on_c, 1, 78, 127
1, 200993, Note_on_c, 1, 73, 127
1, 200993, Note_on_c, 1, 68, 127
1, 200993, Note_on_c, 1, 56, 127
1, 200993, Note_on_c, 1, 49, 127
1, 201303, Note_off_c, 1, 66, 0
1, 201303, Note_off_c, 1, 61, 0
1, 201303, Note_off_c, 1, 78, 0
1, 201303, Note_off_c, 1, 73, 0
1, 201303, Note_off_c, 1, 68, 0
1, 201305, Note_on_c, 1, 64, 127
1, 201305, Note_on_c, 1, 76, 127
1, 202091, Note_off_c, 1, 56, 0
1, 202096, Note_off_c, 1, 64, 0
1, 202096, Note_off_c, 1, 76, 0
1, 202109, Note_off_c, 1, 49, 0
1, 202290, Note_on_c, 1, 73, 127
1, 202409, Note_off_c, 1, 73, 0
1, 202411, Note_on_c, 1, 72, 127
1, 202529, Note_off_c, 1, 72, 0
1, 202531, Note_on_c, 1, 73, 127
1, 202650, Note_off_c, 1, 73, 0
1, 202652, Note_on_c, 1, 68, 127
1, 202770, Note_off_c, 1, 68, 0
1, 202772, Note_on_c, 1, 67, 127
1, 202891, Note_off_c, 1, 67, 0
1, 202893, Note_on_c, 1, 68, 127
1, 203012, Note_off_c, 1, 68, 0
1, 203014, Note_on_c, 1, 64, 127
1, 203132, Note_off_c, 1, 64, 0
1, 203134, Note_on_c, 1, 63, 127
1, 203253, Note_off_c, 1, 63, 0
1, 203255, Note_on_c, 1, 64, 127
1, 203373, Note_off_c, 1, 64, 0
1, 203375, Note_on_c, 1, 61, 127
1, 203494, Note_off_c, 1, 61, 0
1, 203496, Note_on_c, 1, 60, 127
1, 203615, Note_off_c, 1, 60, 0
1, 203617, Note_on_c, 1, 61, 127
1, 203736, Note_off_c, 1, 61, 0
1, 203738, Note_on_c, 1, 64, 127
1, 203856, Note_off_c, 1, 64, 0
1, 203858, Note_on_c, 1, 63, 127
1, 203977, Note_off_c, 1, 63, 0
1, 203979, Note_on_c, 1, 64, 127
1, 204097, Note_off_c, 1, 64, 0
1, 204099, Note_on_c, 1, 69, 127
1, 204218, Note_off_c, 1, 69, 0
1, 204220, Note_on_c, 1, 68, 127
1, 204338, Note_off_c, 1, 68, 0
1, 204340, Note_on_c, 1, 69, 127
1, 204459, Note_off_c, 1, 69, 0
1, 204461, Note_on_c, 1, 73, 127
1, 204579, Note_off_c, 1, 73, 0
1, 204581, Note_on_c, 1, 72, 127
1, 204700, Note_off_c, 1, 72, 0
1, 204702, Note_on_c, 1, 73, 127
1, 204820, Note_off_c, 1, 73, 0
1, 204822, Note_on_c, 1, 76, 127
1, 204941, Note_off_c, 1, 76, 0
1, 204943, Note_on_c, 1, 75, 127
1, 205062, Note_off_c, 1, 75, 0
1, 205064, Note_on_c, 1, 76, 127
1, 205220, Note_off_c, 1, 76, 0
1, 205222, Note_on_c, 1, 78, 127
1, 205341, Note_off_c, 1, 78, 0
1, 205343, Note_on_c, 1, 79, 127
1, 205462, Note_off_c, 1, 79, 0
1, 205464, Note_on_c, 1, 81, 127
1, 205568, Note_off_c, 1, 81, 0
1, 205570, Note_on_c, 1, 79, 127
1, 205673, Note_off_c, 1, 79, 0
1, 205675, Note_on_c, 1, 81, 127
1, 205778, Note_off_c, 1, 81, 0
1, 205780, Note_on_c, 1, 79, 127
1, 205883, Note_off_c, 1, 79, 0
1, 205885, Note_on_c, 1, 81, 127
1, 205988, Note_off_c, 1, 81, 0
1, 205990, Note_on_c, 1, 79, 127
1, 206093, Note_off_c, 1, 79, 0
1, 206095, Note_on_c, 1, 78, 127
1, 206198, Note_off_c, 1, 78, 0
1, 206200, Note_on_c, 1, 79, 127
1, 206303, Note_off_c, 1, 79, 0
1, 206305, Note_on_c, 1, 81, 127
1, 206408, Note_off_c, 1, 81, 0
1, 206410, Note_on_c, 1, 75, 127
1, 206630, Note_off_c, 1, 75, 0
1, 206632, Note_on_c, 1, 74, 127
1, 206865, Note_off_c, 1, 74, 0
1, 206867, Note_on_c, 1, 48, 127
1, 206867, Note_on_c, 1, 54, 127
1, 206867, Note_on_c, 1, 57, 127
1, 206867, Note_on_c, 1, 62, 127
1, 206867, Note_on_c, 1, 66, 127
1, 206867, Note_on_c, 1, 74, 127
1, 206867, Note_on_c, 1, 69, 127
1, 207413, Note_off_c, 1, 48, 0
1, 207413, Note_off_c, 1, 54, 0
1, 207413, Note_off_c, 1, 57, 0
1, 207413, Note_off_c, 1, 62, 0
1, 207413, Note_off_c, 1, 66, 0
1, 207413, Note_off_c, 1, 74, 0
1, 207413, Note_off_c, 1, 69, 0
1, 207431, Note_on_c, 1, 74, 127
1, 207523, Note_off_c, 1, 74, 0
1, 207525, Note_on_c, 1, 72, 127
1, 207616, Note_off_c, 1, 72, 0
1, 207618, Note_on_c, 1, 70, 127
1, 207710, Note_off_c, 1, 70, 0
1, 207712, Note_on_c, 1, 69, 127
1, 207805, Note_off_c, 1, 69, 0
1, 207807, Note_on_c, 1, 70, 127
1, 207898, Note_off_c, 1, 70, 0
1, 207900, Note_on_c, 1, 72, 127
1, 207992, Note_off_c, 1, 72, 0
1, 207994, Note_on_c, 1, 75, 127
1, 208085, Note_off_c, 1, 75, 0
1, 208087, Note_on_c, 1, 72, 127
1, 208179, Note_off_c, 1, 72, 0
1, 208181, Note_on_c, 1, 70, 127
1, 208273, Note_off_c, 1, 70, 0
1, 208275, Note_on_c, 1, 69, 127
1, 208367, Note_off_c, 1, 69, 0
1, 208369, Note_on_c, 1, 67, 127
1, 208461, Note_off_c, 1, 67, 0
1, 208463, Note_on_c, 1, 66, 127
1, 208555, Note_off_c, 1, 66, 0
1, 208557, Note_on_c, 1, 67, 127
1, 208648, Note_off_c, 1, 67, 0
1, 208650, Note_on_c, 1, 69, 127
1, 208742, Note_off_c, 1, 69, 0
1, 208744, Note_on_c, 1, 72, 127
1, 208836, Note_off_c, 1, 72, 0
1, 208838, Note_on_c, 1, 69, 127
1, 208930, Note_off_c, 1, 69, 0
1, 208932, Note_on_c, 1, 67, 127
1, 209024, Note_off_c, 1, 67, 0
1, 209026, Note_on_c, 1, 66, 127
1, 209118, Note_off_c, 1, 66, 0
1, 209120, Note_on_c, 1, 64, 127
1, 209211, Note_off_c, 1, 64, 0
1, 209213, Note_on_c, 1, 62, 127
1, 209302, Note_off_c, 1, 62, 0
1, 209304, Note_on_c, 1, 64, 127
1, 209393, Note_off_c, 1, 64, 0
1, 209395, Note_on_c, 1, 66, 127
1, 209484, Note_off_c, 1, 66, 0
1, 209486, Note_on_c, 1, 69, 127
1, 209573, Note_off_c, 1, 69, 0
1, 209575, Note_on_c, 1, 67, 127
1, 209664, Note_off_c, 1, 67, 0
1, 209666, Note_on_c, 1, 66, 127
1, 209755, Note_off_c, 1, 66, 0
1, 209757, Note_on_c, 1, 64, 127
1, 209846, Note_off_c, 1, 64, 0
1, 209848, Note_on_c, 1, 62, 127
1, 209936, Note_off_c, 1, 62, 0
1, 209938, Note_on_c, 1, 60, 127
1, 210026, Note_off_c, 1, 60, 0
1, 210028, Note_on_c, 1, 62, 127
1, 210117, Note_off_c, 1, 62, 0
1, 210119, Note_on_c, 1, 63, 127
1, 210208, Note_off_c, 1, 63, 0
1, 210210, Note_on_c, 1, 66, 127
1, 210298, Note_off_c, 1, 66, 0
1, 210300, Note_on_c, 1, 63, 127
1, 210389, Note_off_c, 1, 63, 0
1, 210391, Note_on_c, 1, 62, 127
1, 210479, Note_off_c, 1, 62, 0
1, 210481, Note_on_c, 1, 60, 127
1, 210570, Note_off_c, 1, 60, 0
1, 210572, Note_on_c, 1, 58, 127
1, 210661, Note_off_c, 1, 58, 0
1, 210663, Note_on_c, 1, 57, 127
1, 210751, Note_off_c, 1, 57, 0
1, 210753, Note_on_c, 1, 58, 127
1, 210842, Note_off_c, 1, 58, 0
1, 210844, Note_on_c, 1, 60, 127
1, 210932, Note_off_c, 1, 60, 0
1, 210934, Note_on_c, 1, 63, 127
1, 211023, Note_off_c, 1, 63, 0
1, 211025, Note_on_c, 1, 60, 127
1, 211113, Note_off_c, 1, 60, 0
1, 211115, Note_on_c, 1, 58, 127
1, 211204, Note_off_c, 1, 58, 0
1, 211206, Note_on_c, 1, 57, 127
1, 211294, Note_off_c, 1, 57, 0
1, 211296, Note_on_c, 1, 55, 127
1, 211385, Note_off_c, 1, 55, 0
1, 211387, Note_on_c, 1, 54, 127
1, 211475, Note_off_c, 1, 54, 0
1, 211477, Note_on_c, 1, 55, 127
1, 211566, Note_off_c, 1, 55, 0
1, 211568, Note_on_c, 1, 57, 127
1, 211657, Note_off_c, 1, 57, 0
1, 211659, Note_on_c, 1, 60, 127
1, 211747, Note_off_c, 1, 60, 0
1, 211749, Note_on_c, 1, 57, 127
1, 211838, Note_off_c, 1, 57, 0
1, 211840, Note_on_c, 1, 55, 127
1, 211928, Note_off_c, 1, 55, 0
1, 211930, Note_on_c, 1, 54, 127
1, 212019, Note_off_c, 1, 54, 0
1, 212021, Note_on_c, 1, 52, 127
1, 212123, Note_off_c, 1, 52, 0
1, 212125, Note_on_c, 1, 50, 127
1, 212209, Note_off_c, 1, 50, 0
1, 212211, Note_on_c, 1, 52, 127
1, 212294, Note_off_c, 1, 52, 0
1, 212296, Note_on_c, 1, 54, 127
1, 212380, Note_off_c, 1, 54, 0
1, 212382, Note_on_c, 1, 55, 127
1, 212466, Note_off_c, 1, 55, 0
1, 212468, Note_on_c, 1, 57, 127
1, 212552, Note_off_c, 1, 57, 0
1, 212554, Note_on_c, 1, 58, 127
1, 212637, Note_off_c, 1, 58, 0
1, 212639, Note_on_c, 1, 57, 127
1, 212723, Note_off_c, 1, 57, 0
1, 212725, Note_on_c, 1, 58, 127
1, 212809, Note_off_c, 1, 58, 0
1, 212811, Note_on_c, 1, 60, 127
1, 212894, Note_off_c, 1, 60, 0
1, 212896, Note_on_c, 1, 54, 127
1, 212978, Note_off_c, 1, 54, 0
1, 212980, Note_on_c, 1, 55, 127
1, 213061, Note_off_c, 1, 55, 0
1, 213063, Note_on_c, 1, 57, 127
1, 213144, Note_off_c, 1, 57, 0
1, 213146, Note_on_c, 1, 58, 127
1, 213227, Note_off_c, 1, 58, 0
1, 213229, Note_on_c, 1, 60, 127
1, 213310, Note_off_c, 1, 60, 0
1, 213312, Note_on_c, 1, 62, 127
1, 213394, Note_off_c, 1, 62, 0
1, 213396, Note_on_c, 1, 63, 127
1, 213477, Note_off_c, 1, 63, 0
1, 213479, Note_on_c, 1, 60, 127
1, 213560, Note_off_c, 1, 60, 0
1, 213562, Note_on_c, 1, 62, 127
1, 213643, Note_off_c, 1, 62, 0
1, 213645, Note_on_c, 1, 63, 127
1, 213726, Note_off_c, 1, 63, 0
1, 213728, Note_on_c, 1, 57, 127
1, 213807, Note_off_c, 1, 57, 0
1, 213809, Note_on_c, 1, 58, 127
1, 213888, Note_off_c, 1, 58, 0
1, 213890, Note_on_c, 1, 60, 127
1, 213968, Note_off_c, 1, 60, 0
1, 213970, Note_on_c, 1, 62, 127
1, 214049, Note_off_c, 1, 62, 0
1, 214051, Note_on_c, 1, 64, 127
1, 214130, Note_off_c, 1, 64, 0
1, 214132, Note_on_c, 1, 66, 127
1, 214210, Note_off_c, 1, 66, 0
1, 214212, Note_on_c, 1, 67, 127
1, 214291, Note_off_c, 1, 67, 0
1, 214293, Note_on_c, 1, 69, 127
1, 214372, Note_off_c, 1, 69, 0
1, 214374, Note_on_c, 1, 66, 127
1, 214452, Note_off_c, 1, 66, 0
1, 214454, Note_on_c, 1, 67, 127
1, 214533, Note_off_c, 1, 67, 0
1, 214535, Note_on_c, 1, 69, 127
1, 214614, Note_off_c, 1, 69, 0
1, 214616, Note_on_c, 1, 62, 127
1, 214692, Note_off_c, 1, 62, 0
1, 214694, Note_on_c, 1, 64, 127
1, 214770, Note_off_c, 1, 64, 0
1, 214772, Note_on_c, 1, 66, 127
1, 214848, Note_off_c, 1, 66, 0
1, 214850, Note_on_c, 1, 67, 127
1, 214926, Note_off_c, 1, 67, 0
1, 214928, Note_on_c, 1, 69, 127
1, 215005, Note_off_c, 1, 69, 0
1, 215007, Note_on_c, 1, 70, 127
1, 215083, Note_off_c, 1, 70, 0
1, 215085, Note_on_c, 1, 72, 127
1, 215161, Note_off_c, 1, 72, 0
1, 215163, Note_on_c, 1, 69, 127
1, 215239, Note_off_c, 1, 69, 0
1, 215241, Note_on_c, 1, 70, 127
1, 215317, Note_off_c, 1, 70, 0
1, 215319, Note_on_c, 1, 72, 127
1, 215395, Note_off_c, 1, 72, 0
1, 215397, Note_on_c, 1, 66, 127
1, 215471, Note_off_c, 1, 66, 0
1, 215473, Note_on_c, 1, 67, 127
1, 215547, Note_off_c, 1, 67, 0
1, 215549, Note_on_c, 1, 69, 127
1, 215622, Note_off_c, 1, 69, 0
1, 215624, Note_on_c, 1, 70, 127
1, 215698, Note_off_c, 1, 70, 0
1, 215700, Note_on_c, 1, 72, 127
1, 215773, Note_off_c, 1, 72, 0
1, 215775, Note_on_c, 1, 74, 127
1, 215849, Note_off_c, 1, 74, 0
1, 215851, Note_on_c, 1, 75, 127
1, 215925, Note_off_c, 1, 75, 0
1, 215927, Note_on_c, 1, 72, 127
1, 216000, Note_off_c, 1, 72, 0
1, 216002, Note_on_c, 1, 74, 127
1, 216076, Note_off_c, 1, 74, 0
1, 216078, Note_on_c, 1, 75, 127
1, 216152, Note_off_c, 1, 75, 0
1, 216154, Note_on_c, 1, 69, 127
1, 216226, Note_off_c, 1, 69, 0
1, 216228, Note_on_c, 1, 70, 127
1, 216299, Note_off_c, 1, 70, 0
1, 216301, Note_on_c, 1, 72, 127
1, 216373, Note_off_c, 1, 72, 0
1, 216375, Note_on_c, 1, 74, 127
1, 216447, Note_off_c, 1, 74, 0
1, 216449, Note_on_c, 1, 76, 127
1, 216521, Note_off_c, 1, 76, 0
1, 216523, Note_on_c, 1, 78, 127
1, 216595, Note_off_c, 1, 78, 0
1, 216597, Note_on_c, 1, 79, 127
1, 216669, Note_off_c, 1, 79, 0
1, 216671, Note_on_c, 1, 81, 127
1, 216743, Note_off_c, 1, 81, 0
1, 216745, Note_on_c, 1, 78, 127
1, 216817, Note_off_c, 1, 78, 0
1, 216819, Note_on_c, 1, 79, 127
1, 216891, Note_off_c, 1, 79, 0
1, 216893, Note_on_c, 1, 81, 127
1, 216965, Note_off_c, 1, 81, 0
1, 216967, Note_on_c, 1, 74, 127
1, 217091, Note_off_c, 1, 74, 0
1, 217093, Note_on_c, 1, 76, 127
1, 217156, Note_off_c, 1, 76, 0
1, 217158, Note_on_c, 1, 78, 127
1, 217220, Note_off_c, 1, 78, 0
1, 217222, Note_on_c, 1, 79, 127
1, 217285, Note_off_c, 1, 79, 0
1, 217287, Note_on_c, 1, 81, 127
1, 217350, Note_off_c, 1, 81, 0
1, 217352, Note_on_c, 1, 82, 127
1, 217415, Note_off_c, 1, 82, 0
1, 217417, Note_on_c, 1, 84, 127
1, 217477, Note_off_c, 1, 84, 0
1, 217479, Note_on_c, 1, 82, 127
1, 217539, Note_off_c, 1, 82, 0
1, 217541, Note_on_c, 1, 81, 127
1, 217601, Note_off_c, 1, 81, 0
1, 217603, Note_on_c, 1, 79, 127
1, 217663, Note_off_c, 1, 79, 0
1, 217665, Note_on_c, 1, 78, 127
1, 217726, Note_off_c, 1, 78, 0
1, 217728, Note_on_c, 1, 76, 127
1, 217788, Note_off_c, 1, 76, 0
1, 217790, Note_on_c, 1, 74, 127
1, 217850, Note_off_c, 1, 74, 0
1, 217852, Note_on_c, 1, 72, 127
1, 217912, Note_off_c, 1, 72, 0
1, 217914, Note_on_c, 1, 70, 127
1, 217974, Note_off_c, 1, 70, 0
1, 217976, Note_on_c, 1, 69, 127
1, 218036, Note_off_c, 1, 69, 0
1, 218038, Note_on_c, 1, 67, 127
1, 218099, Note_off_c, 1, 67, 0
1, 218101, Note_on_c, 1, 66, 127
1, 218161, Note_off_c, 1, 66, 0
1, 218163, Note_on_c, 1, 64, 127
1, 218223, Note_off_c, 1, 64, 0
1, 218225, Note_on_c, 1, 62, 127
1, 218285, Note_off_c, 1, 62, 0
1, 218287, Note_on_c, 1, 60, 127
1, 218347, Note_off_c, 1, 60, 0
1, 218349, Note_on_c, 1, 58, 127
1, 218410, Note_off_c, 1, 58, 0
1, 218412, Note_on_c, 1, 57, 127
1, 218472, Note_off_c, 1, 57, 0
1, 218474, Note_on_c, 1, 55, 127
1, 218534, Note_off_c, 1, 55, 0
1, 218536, Note_on_c, 1, 54, 127
1, 218596, Note_off_c, 1, 54, 0
1, 218598, Note_on_c, 1, 52, 127
1, 218658, Note_off_c, 1, 52, 0
1, 218660, Note_on_c, 1, 50, 127
1, 218720, Note_off_c, 1, 50, 0
1, 218722, Note_on_c, 1, 48, 127
1, 218783, Note_off_c, 1, 48, 0
1, 218785, Note_on_c, 1, 46, 127
1, 218845, Note_off_c, 1, 46, 0
1, 218847, Note_on_c, 1, 45, 127
1, 218907, Note_off_c, 1, 45, 0
1, 218909, Note_on_c, 1, 43, 127
1, 218969, Note_off_c, 1, 43, 0
1, 218971, Note_on_c, 1, 42, 127
1, 219031, Note_off_c, 1, 42, 0
1, 219033, Note_on_c, 1, 40, 127
1, 219094, Note_off_c, 1, 40, 0
1, 219096, Note_on_c, 1, 38, 127
1, 219341, Note_on_c, 1, 72, 127
1, 219584, Note_off_c, 1, 72, 0
1, 219586, Note_on_c, 1, 70, 127
1, 219586, Note_on_c, 1, 57, 127
1, 219586, Note_on_c, 1, 62, 127
1, 219586, Note_on_c, 1, 54, 127
1, 219586, Note_on_c, 1, 50, 127
1, 219586, Note_on_c, 1, 66, 127
1, 219588, Note_off_c, 1, 38, 0
1, 219830, Note_off_c, 1, 70, 0
1, 219954, Note_on_c, 1, 69, 127
1, 220054, Note_off_c, 1, 57, 0
1, 220054, Note_off_c, 1, 62, 0
1, 220072, Note_off_c, 1, 54, 0
1, 220072, Note_off_c, 1, 50, 0
1, 220072, Note_off_c, 1, 66, 0
1, 220075, Note_off_c, 1, 69, 0
1, 220077, Note_on_c, 1, 69, 127
1, 220077, Note_on_c, 1, 43, 127
1, 220077, Note_on_c, 1, 46, 127
1, 220077, Note_on_c, 1, 50, 127
1, 220077, Note_on_c, 1, 55, 127
1, 220077, Note_on_c, 1, 62, 127
1, 220077, Note_on_c, 1, 67, 127
1, 220320, Note_off_c, 1, 69, 0
1, 220322, Note_on_c, 1, 70, 127
1, 220403, Note_off_c, 1, 70, 0
1, 221463, Note_off_c, 1, 43, 0
1, 221553, Note_off_c, 1, 46, 0
1, 221649, Note_off_c, 1, 50, 0
1, 221751, Note_off_c, 1, 55, 0
1, 221841, Note_off_c, 1, 62, 0
1, 221925, Note_off_c, 1, 67, 0
1, 222387, Note_on_c, 1, 70, 127
1, 222524, Note_off_c, 1, 70, 0
1, 222526, Note_on_c, 1, 72, 127
1, 222664, Note_off_c, 1, 72, 0
1, 222666, Note_on_c, 1, 74, 127
1, 222803, Note_off_c, 1, 74, 0
1, 222805, Note_on_c, 1, 75, 127
1, 222943, Note_off_c, 1, 75, 0
1, 222945, Note_on_c, 1, 74, 127
1, 223082, Note_off_c, 1, 74, 0
1, 223084, Note_on_c, 1, 75, 127
1, 223222, Note_off_c, 1, 75, 0
1, 223224, Note_on_c, 1, 74, 127
1, 223361, Note_off_c, 1, 74, 0
1, 223363, Note_on_c, 1, 75, 127
1, 223501, Note_off_c, 1, 75, 0
1, 223503, Note_on_c, 1, 74, 127
1, 223640, Note_off_c, 1, 74, 0
1, 223642, Note_on_c, 1, 72, 127
1, 223780, Note_off_c, 1, 72, 0
1, 223782, Note_on_c, 1, 74, 127
1, 223919, Note_off_c, 1, 74, 0
1, 223921, Note_on_c, 1, 75, 127
1, 224197, Note_off_c, 1, 75, 0
1, 224199, Note_on_c, 1, 69, 127
1, 224337, Note_off_c, 1, 69, 0
1, 224339, Note_on_c, 1, 70, 127
1, 224476, Note_off_c, 1, 70, 0
1, 224478, Note_on_c, 1, 72, 127
1, 224616, Note_off_c, 1, 72, 0
1, 224618, Note_on_c, 1, 70, 127
1, 224755, Note_off_c, 1, 70, 0
1, 224757, Note_on_c, 1, 72, 127
1, 224895, Note_off_c, 1, 72, 0
1, 224897, Note_on_c, 1, 70, 127
1, 225034, Note_off_c, 1, 70, 0
1, 225036, Note_on_c, 1, 72, 127
1, 225174, Note_off_c, 1, 72, 0
1, 225176, Note_on_c, 1, 70, 127
1, 225313, Note_off_c, 1, 70, 0
1, 225315, Note_on_c, 1, 69, 127
1, 225453, Note_off_c, 1, 69, 0
1, 225455, Note_on_c, 1, 70, 127
1, 225592, Note_off_c, 1, 70, 0
1, 225594, Note_on_c, 1, 72, 127
1, 225870, Note_off_c, 1, 72, 0
1, 225872, Note_on_c, 1, 66, 127
1, 226010, Note_off_c, 1, 66, 0
1, 226012, Note_on_c, 1, 67, 127
1, 226149, Note_off_c, 1, 67, 0
1, 226151, Note_on_c, 1, 69, 127
1, 226289, Note_off_c, 1, 69, 0
1, 226291, Note_on_c, 1, 67, 127
1, 226428, Note_off_c, 1, 67, 0
1, 226430, Note_on_c, 1, 69, 127
1, 226568, Note_off_c, 1, 69, 0
1, 226570, Note_on_c, 1, 67, 127
1, 226707, Note_off_c, 1, 67, 0
1, 226709, Note_on_c, 1, 69, 127
1, 226847, Note_off_c, 1, 69, 0
1, 226849, Note_on_c, 1, 67, 127
1, 226986, Note_off_c, 1, 67, 0
1, 226988, Note_on_c, 1, 66, 127
1, 227126, Note_off_c, 1, 66, 0
1, 227128, Note_on_c, 1, 67, 127
1, 227265, Note_off_c, 1, 67, 0
1, 227267, Note_on_c, 1, 69, 127
1, 227682, Note_off_c, 1, 69, 0
1, 227684, Note_on_c, 1, 57, 127
1, 227684, Note_on_c, 1, 54, 127
1, 227684, Note_on_c, 1, 51, 127
1, 227684, Note_on_c, 1, 48, 127
1, 227684, Note_on_c, 1, 63, 127
1, 227684, Note_on_c, 1, 66, 127
1, 227684, Note_on_c, 1, 69, 127
1, 228534, Note_off_c, 1, 57, 0
1, 228534, Note_off_c, 1, 54, 0
1, 228534, Note_off_c, 1, 51, 0
1, 228534, Note_off_c, 1, 48, 0
1, 228534, Note_off_c, 1, 63, 0
1, 228534, Note_off_c, 1, 66, 0
1, 228534, Note_off_c, 1, 69, 0
1, 228536, Note_on_c, 1, 69, 127
1, 228762, Note_off_c, 1, 69, 0
1, 228764, Note_on_c, 1, 72, 127
1, 228990, Note_off_c, 1, 72, 0
1, 228992, Note_on_c, 1, 70, 127
1, 229217, Note_off_c, 1, 70, 0
1, 229219, Note_on_c, 1, 69, 127
1, 229445, Note_off_c, 1, 69, 0
1, 229447, Note_on_c, 1, 67, 127
1, 229673, Note_off_c, 1, 67, 0
1, 229675, Note_on_c, 1, 69, 127
1, 229793, Note_off_c, 1, 69, 0
1, 229795, Note_on_c, 1, 66, 127
1, 229913, Note_off_c, 1, 66, 0
1, 229915, Note_on_c, 1, 67, 127
1, 230368, Note_off_c, 1, 67, 0
1, 230370, Note_on_c, 1, 58, 127
1, 230370, Note_on_c, 1, 67, 127
1, 230370, Note_on_c, 1, 64, 127
1, 230370, Note_on_c, 1, 55, 127
1, 230370, Note_on_c, 1, 52, 127
1, 230370, Note_on_c, 1, 49, 127
1, 231277, Note_off_c, 1, 58, 0
1, 231277, Note_off_c, 1, 67, 0
1, 231277, Note_off_c, 1, 64, 0
1, 231277, Note_off_c, 1, 55, 0
1, 231277, Note_off_c, 1, 52, 0
1, 231277, Note_off_c, 1, 49, 0
1, 231279, Note_on_c, 1, 69, 127
1, 231381, Note_off_c, 1, 69, 0
1, 231383, Note_on_c, 1, 68, 127
1, 231485, Note_off_c, 1, 68, 0
1, 231487, Note_on_c, 1, 69, 127
1, 231590, Note_off_c, 1, 69, 0
1, 231592, Note_on_c, 1, 71, 127
1, 231694, Note_off_c, 1, 71, 0
1, 231696, Note_on_c, 1, 73, 127
1, 231798, Note_off_c, 1, 73, 0
1, 231800, Note_on_c, 1, 74, 127
1, 231902, Note_off_c, 1, 74, 0
1, 231904, Note_on_c, 1, 76, 127
1, 232006, Note_off_c, 1, 76, 0
1, 232008, Note_on_c, 1, 77, 127
1, 232111, Note_off_c, 1, 77, 0
1, 232113, Note_on_c, 1, 79, 127
1, 232215, Note_off_c, 1, 79, 0
1, 232217, Note_on_c, 1, 77, 127
1, 232319, Note_off_c, 1, 77, 0
1, 232321, Note_on_c, 1, 79, 127
1, 232423, Note_off_c, 1, 79, 0
1, 232425, Note_on_c, 1, 76, 127
1, 232527, Note_off_c, 1, 76, 0
1, 232529, Note_on_c, 1, 77, 127
1, 232529, Note_on_c, 1, 74, 127
1, 232529, Note_on_c, 1, 50, 127
1, 232529, Note_on_c, 1, 53, 127
1, 232529, Note_on_c, 1, 62, 127
1, 232529, Note_on_c, 1, 57, 127
1, 232529, Note_on_c, 1, 69, 127
1, 232529, Note_on_c, 1, 65, 127
1, 232764, Note_off_c, 1, 77, 0
1, 232764, Note_off_c, 1, 74, 0
1, 233003, Note_on_c, 1, 76, 127
1, 233238, Note_off_c, 1, 76, 0
1, 233457, Note_off_c, 1, 50, 0
1, 233457, Note_off_c, 1, 53, 0
1, 233471, Note_off_c, 1, 62, 0
1, 233473, Note_off_c, 1, 57, 0
1, 233484, Note_on_c, 1, 79, 127
1, 233484, Note_on_c, 1, 60, 127
1, 233712, Note_off_c, 1, 79, 0
1, 234395, Note_off_c, 1, 69, 0
1, 234407, Note_off_c, 1, 65, 0
1, 234450, Note_off_c, 1, 60, 0
1, 234460, Note_on_c, 1, 58, 127
1, 234461, Note_on_c, 1, 81, 127
1, 234461, Note_on_c, 1, 67, 127
1, 234461, Note_on_c, 1, 74, 127
1, 234606, Note_off_c, 1, 81, 0
1, 234608, Note_on_c, 1, 79, 127
1, 234726, Note_off_c, 1, 79, 0
1, 234968, Note_on_c, 1, 64, 127
1, 235448, Note_off_c, 1, 64, 0
1, 235448, Note_on_c, 1, 61, 127
1, 235928, Note_off_c, 1, 61, 0
1, 235929, Note_on_c, 1, 62, 127
1, 236169, Note_on_c, 1, 77, 127
1, 236314, Note_off_c, 1, 77, 0
1, 236413, Note_off_c, 1, 67, 0
1, 236417, Note_off_c, 1, 62, 0
1, 236420, Note_off_c, 1, 58, 0
1, 236445, Note_off_c, 1, 74, 0
1, 236471, Note_on_c, 1, 57, 127
1, 236471, Note_on_c, 1, 52, 127
1, 236471, Note_on_c, 1, 49, 127
1, 236471, Note_on_c, 1, 45, 127
1, 236471, Note_on_c, 1, 73, 127
1, 236471, Note_on_c, 1, 69, 127
1, 236471, Note_on_c, 1, 76, 127
1, 236471, Note_on_c, 1, 81, 127
1, 237685, Note_off_c, 1, 57, 0
1, 237685, Note_off_c, 1, 52, 0
1, 237685, Note_off_c, 1, 49, 0
1, 237685, Note_off_c, 1, 45, 0
1, 237685, Note_off_c, 1, 73, 0
1, 237685, Note_off_c, 1, 69, 0
1, 237685, Note_off_c, 1, 76, 0
1, 237685, Note_off_c, 1, 81, 0
1, 237687, Note_on_c, 1, 82, 127
1, 237794, Note_off_c, 1, 82, 0
1, 237796, Note_on_c, 1, 81, 127
1, 237903, Note_off_c, 1, 81, 0
1, 237905, Note_on_c, 1, 79, 127
1, 238013, Note_off_c, 1, 79, 0
1, 238015, Note_on_c, 1, 77, 127
1, 238122, Note_off_c, 1, 77, 0
1, 238124, Note_on_c, 1, 76, 127
1, 238231, Note_off_c, 1, 76, 0
1, 238233, Note_on_c, 1, 74, 127
1, 238340, Note_off_c, 1, 74, 0
1, 238342, Note_on_c, 1, 73, 127
1, 238450, Note_off_c, 1, 73, 0
1, 238452, Note_on_c, 1, 71, 127
1, 238559, Note_off_c, 1, 71, 0
1, 238561, Note_on_c, 1, 69, 127
1, 238668, Note_off_c, 1, 69, 0
1, 238670, Note_on_c, 1, 71, 127
1, 238777, Note_off_c, 1, 71, 0
1, 238779, Note_on_c, 1, 73, 127
1, 238887, Note_off_c, 1, 73, 0
1, 238889, Note_on_c, 1, 74, 127
1, 238996, Note_off_c, 1, 74, 0
1, 238998, Note_on_c, 1, 76, 127
1, 239105, Note_off_c, 1, 76, 0
1, 239107, Note_on_c, 1, 77, 127
1, 239214, Note_off_c, 1, 77, 0
1, 239216, Note_on_c, 1, 79, 127
1, 239344, Note_off_c, 1, 79, 0
1, 239346, Note_on_c, 1, 76, 127
1, 239453, Note_off_c, 1, 76, 0
1, 239455, Note_on_c, 1, 73, 127
1, 239562, Note_off_c, 1, 73, 0
1, 239564, Note_on_c, 1, 70, 127
1, 239672, Note_off_c, 1, 70, 0
1, 239674, Note_on_c, 1, 67, 127
1, 239781, Note_off_c, 1, 67, 0
1, 239783, Note_on_c, 1, 64, 127
1, 239890, Note_off_c, 1, 64, 0
1, 239892, Note_on_c, 1, 61, 127
1, 239999, Note_off_c, 1, 61, 0
1, 240001, Note_on_c, 1, 58, 127
1, 240108, Note_off_c, 1, 58, 0
1, 240110, Note_on_c, 1, 55, 127
1, 240218, Note_off_c, 1, 55, 0
1, 240220, Note_on_c, 1, 52, 127
1, 240327, Note_off_c, 1, 52, 0
1, 240329, Note_on_c, 1, 49, 127
1, 240436, Note_off_c, 1, 49, 0
1, 240438, Note_on_c, 1, 52, 127
1, 240545, Note_off_c, 1, 52, 0
1, 240547, Note_on_c, 1, 42, 127
1, 240977, Note_off_c, 1, 42, 0
1, 240979, Note_on_c, 1, 75, 127
1, 240979, Note_on_c, 1, 72, 127
1, 240979, Note_on_c, 1, 60, 127
1, 240979, Note_on_c, 1, 63, 127
1, 240979, Note_on_c, 1, 66, 127
1, 240979, Note_on_c, 1, 69, 127
1, 240979, Note_on_c, 1, 57, 127
1, 240979, Note_on_c, 1, 54, 127
1, 241198, Note_off_c, 1, 75, 0
1, 241198, Note_off_c, 1, 72, 0
1, 241198, Note_off_c, 1, 60, 0
1, 241198, Note_off_c, 1, 63, 0
1, 241200, Note_on_c, 1, 74, 127
1, 241200, Note_on_c, 1, 62, 127
1, 241795, Note_off_c, 1, 66, 0
1, 241795, Note_off_c, 1, 69, 0
1, 241803, Note_off_c, 1, 57, 0
1, 241811, Note_off_c, 1, 54, 0
1, 241833, Note_off_c, 1, 74, 0
1, 241833, Note_off_c, 1, 62, 0
1, 241883, Note_on_c, 1, 50, 127
1, 241978, Note_off_c, 1, 50, 0
1, 241980, Note_on_c, 1, 52, 127
1, 242074, Note_off_c, 1, 52, 0
1, 242076, Note_on_c, 1, 54, 127
1, 242171, Note_off_c, 1, 54, 0
1, 242173, Note_on_c, 1, 55, 127
1, 242267, Note_off_c, 1, 55, 0
1, 242269, Note_on_c, 1, 57, 127
1, 242364, Note_off_c, 1, 57, 0
1, 242366, Note_on_c, 1, 58, 127
1, 242461, Note_off_c, 1, 58, 0
1, 242463, Note_on_c, 1, 60, 127
1, 242557, Note_off_c, 1, 60, 0
1, 242559, Note_on_c, 1, 62, 127
1, 242654, Note_off_c, 1, 62, 0
1, 242656, Note_on_c, 1, 63, 127
1, 242751, Note_off_c, 1, 63, 0
1, 242753, Note_on_c, 1, 62, 127
1, 242847, Note_off_c, 1, 62, 0
1, 242849, Note_on_c, 1, 60, 127
1, 242944, Note_off_c, 1, 60, 0
1, 242946, Note_on_c, 1, 58, 127
1, 243041, Note_off_c, 1, 58, 0
1, 243043, Note_on_c, 1, 57, 127
1, 243137, Note_off_c, 1, 57, 0
1, 243139, Note_on_c, 1, 55, 127
1, 243234, Note_off_c, 1, 55, 0
1, 243236, Note_on_c, 1, 54, 127
1, 243347, Note_off_c, 1, 54, 0
1, 243349, Note_on_c, 1, 57, 127
1, 243461, Note_off_c, 1, 57, 0
1, 243463, Note_on_c, 1, 60, 127
1, 243574, Note_off_c, 1, 60, 0
1, 243576, Note_on_c, 1, 63, 127
1, 243688, Note_off_c, 1, 63, 0
1, 243690, Note_on_c, 1, 66, 127
1, 243801, Note_off_c, 1, 66, 0
1, 243803, Note_on_c, 1, 69, 127
1, 243914, Note_off_c, 1, 69, 0
1, 243916, Note_on_c, 1, 72, 127
1, 244028, Note_off_c, 1, 72, 0
1, 244030, Note_on_c, 1, 75, 127
1, 244141, Note_off_c, 1, 75, 0
1, 244143, Note_on_c, 1, 78, 127
1, 244255, Note_off_c, 1, 78, 0
1, 244257, Note_on_c, 1, 81, 127
1, 244482, Note_off_c, 1, 81, 0
1, 244484, Note_on_c, 1, 84, 127
1, 244595, Note_off_c, 1, 84, 0
1, 244597, Note_on_c, 1, 81, 127
1, 244709, Note_off_c, 1, 81, 0
1, 244711, Note_on_c, 1, 78, 127
1, 244935, Note_off_c, 1, 78, 0
1, 244937, Note_on_c, 1, 81, 127
1, 245049, Note_off_c, 1, 81, 0
1, 245051, Note_on_c, 1, 78, 127
1, 245162, Note_off_c, 1, 78, 0
1, 245164, Note_on_c, 1, 74, 127
1, 245389, Note_off_c, 1, 74, 0
1, 245391, Note_on_c, 1, 78, 127
1, 245503, Note_off_c, 1, 78, 0
1, 245505, Note_on_c, 1, 74, 127
1, 245616, Note_off_c, 1, 74, 0
1, 245618, Note_on_c, 1, 72, 127
1, 245910, Note_off_c, 1, 72, 0
1, 245912, Note_on_c, 1, 71, 127
1, 246204, Note_off_c, 1, 71, 0
1, 246206, Note_on_c, 1, 71, 127
1, 246206, Note_on_c, 1, 59, 127
1, 246206, Note_on_c, 1, 62, 127
1, 246206, Note_on_c, 1, 55, 127
1, 246206, Note_on_c, 1, 43, 127
1, 246206, Note_on_c, 1, 67, 127
1, 246206, Note_on_c, 1, 50, 127
1, 246206, Note_on_c, 1, 41, 127
1, 247057, Note_off_c, 1, 71, 0
1, 247126, Note_off_c, 1, 59, 0
1, 247126, Note_off_c, 1, 62, 0
1, 247134, Note_off_c, 1, 55, 0
1, 247134, Note_off_c, 1, 43, 0
1, 247142, Note_off_c, 1, 67, 0
1, 247142, Note_off_c, 1, 50, 0
1, 247142, Note_off_c, 1, 41, 0
1, 247198, Note_on_c, 1, 73, 127
1, 247336, Note_off_c, 1, 73, 0
1, 247338, Note_on_c, 1, 74, 127
1, 247475, Note_off_c, 1, 74, 0
1, 247477, Note_on_c, 1, 76, 127
1, 247615, Note_off_c, 1, 76, 0
1, 247617, Note_on_c, 1, 77, 127
1, 247754, Note_off_c, 1, 77, 0
1, 247756, Note_on_c, 1, 61, 127
1, 247756, Note_on_c, 1, 55, 127
1, 247756, Note_on_c, 1, 52, 127
1, 247756, Note_on_c, 1, 69, 127
1, 247756, Note_on_c, 1, 76, 127
1, 247756, Note_on_c, 1, 79, 127
1, 247756, Note_on_c, 1, 73, 127
1, 248310, Note_off_c, 1, 61, 0
1, 248310, Note_off_c, 1, 55, 0
1, 248310, Note_off_c, 1, 52, 0
1, 248310, Note_off_c, 1, 69, 0
1, 248310, Note_off_c, 1, 76, 0
1, 248310, Note_off_c, 1, 79, 0
1, 248310, Note_off_c, 1, 73, 0
1, 248312, Note_on_c, 1, 53, 127
1, 248312, Note_on_c, 1, 62, 127
1, 248312, Note_on_c, 1, 74, 127
1, 248312, Note_on_c, 1, 81, 127
1, 248312, Note_on_c, 1, 77, 127
1, 248312, Note_on_c, 1, 69, 127
1, 248312, Note_on_c, 1, 50, 127
1, 248576, Note_off_c, 1, 53, 0
1, 248591, Note_on_c, 1, 55, 127
1, 248840, Note_off_c, 1, 62, 0
1, 248840, Note_off_c, 1, 74, 0
1, 248840, Note_off_c, 1, 81, 0
1, 248848, Note_off_c, 1, 77, 0
1, 248848, Note_off_c, 1, 69, 0
1, 248867, Note_off_c, 1, 55, 0
1, 248869, Note_on_c, 1, 57, 127
1, 248872, Note_off_c, 1, 50, 0
1, 249423, Note_off_c, 1, 57, 0
1, 249425, Note_on_c, 1, 76, 127
1, 249425, Note_on_c, 1, 73, 127
1, 249425, Note_on_c, 1, 69, 127
1, 249425, Note_on_c, 1, 67, 127
1, 249425, Note_on_c, 1, 45, 127
1, 249701, Note_off_c, 1, 76, 0
1, 249701, Note_off_c, 1, 73, 0
1, 249703, Note_on_c, 1, 74, 127
1, 249961, Note_off_c, 1, 69, 0
1, 249961, Note_off_c, 1, 67, 0
1, 249977, Note_off_c, 1, 45, 0
1, 249979, Note_off_c, 1, 74, 0
1, 249981, Note_on_c, 1, 67, 127
1, 249981, Note_on_c, 1, 69, 127
1, 249981, Note_on_c, 1, 74, 127
1, 250259, Note_on_c, 1, 50, 127
1, 250536, Note_off_c, 1, 50, 0
1, 250538, Note_on_c, 1, 54, 127
1, 250814, Note_off_c, 1, 54, 0
1, 250816, Note_on_c, 1, 57, 127
1, 251077, Note_off_c, 1, 67, 0
1, 251092, Note_off_c, 1, 57, 0
1, 251094, Note_on_c, 1, 60, 127
1, 251094, Note_on_c, 1, 66, 127
1, 251370, Note_off_c, 1, 60, 0
1, 251372, Note_on_c, 1, 63, 127
1, 251648, Note_off_c, 1, 63, 0
1, 251650, Note_on_c, 1, 62, 127
1, 251926, Note_off_c, 1, 62, 0
1, 252205, Note_off_c, 1, 69, 0
1, 252213, Note_off_c, 1, 74, 0
1, 252220, Note_on_c, 1, 58, 127
1, 252222, Note_off_c, 1, 66, 0
1, 252748, Note_on_c, 1, 75, 127
1, 252955, Note_off_c, 1, 75, 0
1, 253165, Note_on_c, 1, 73, 127
1, 253371, Note_off_c, 1, 73, 0
1, 253582, Note_on_c, 1, 76, 127
1, 253788, Note_off_c, 1, 76, 0
1, 253790, Note_on_c, 1, 78, 127
1, 253997, Note_off_c, 1, 78, 0
1, 253999, Note_on_c, 1, 79, 127
1, 254205, Note_off_c, 1, 79, 0
1, 254207, Note_on_c, 1, 81, 127
1, 254413, Note_off_c, 1, 81, 0
1, 254415, Note_on_c, 1, 82, 127
1, 254612, Note_off_c, 1, 58, 0
1, 254622, Note_off_c, 1, 82, 0
1, 254624, Note_on_c, 1, 74, 127
1, 254624, Note_on_c, 1, 67, 127
1, 254624, Note_on_c, 1, 64, 127
1, 254624, Note_on_c, 1, 61, 127
1, 254624, Note_on_c, 1, 58, 127
1, 254624, Note_on_c, 1, 55, 127
1, 254624, Note_on_c, 1, 50, 127
1, 255533, Note_off_c, 1, 74, 0
1, 255535, Note_on_c, 1, 73, 127
1, 256248, Note_off_c, 1, 67, 0
1, 256248, Note_off_c, 1, 64, 0
1, 256248, Note_off_c, 1, 61, 0
1, 256248, Note_off_c, 1, 58, 0
1, 256248, Note_off_c, 1, 55, 0
1, 256248, Note_off_c, 1, 50, 0
1, 256360, Note_off_c, 1, 73, 0
1, 256362, Note_on_c, 1, 60, 127
1, 256362, Note_on_c, 1, 63, 127
1, 256362, Note_on_c, 1, 66, 127
1, 256362, Note_on_c, 1, 57, 127
1, 256578, Note_on_c, 1, 72, 127
1, 256792, Note_off_c, 1, 72, 0
1, 256794, Note_on_c, 1, 74, 127
1, 257008, Note_off_c, 1, 74, 0
1, 257226, Note_on_c, 1, 71, 127
1, 257440, Note_off_c, 1, 71, 0
1, 257658, Note_on_c, 1, 75, 127
1, 257872, Note_off_c, 1, 75, 0
1, 257874, Note_on_c, 1, 78, 127
1, 258088, Note_off_c, 1, 78, 0
1, 258090, Note_on_c, 1, 81, 127
1, 258304, Note_off_c, 1, 81, 0
1, 258714, Note_off_c, 1, 60, 0
1, 258714, Note_off_c, 1, 63, 0
1, 258714, Note_off_c, 1, 66, 0
1, 258730, Note_off_c, 1, 57, 0
1, 258738, Note_on_c, 1, 72, 127
1, 258738, Note_on_c, 1, 62, 127
1, 258738, Note_on_c, 1, 65, 127
1, 258738, Note_on_c, 1, 59, 127
1, 258738, Note_on_c, 1, 56, 127
1, 258738, Note_on_c, 1, 50, 127
1, 258738, Note_on_c, 1, 53, 127
1, 259505, Note_off_c, 1, 72, 0
1, 259507, Note_on_c, 1, 71, 127
1, 260088, Note_off_c, 1, 62, 0
1, 260088, Note_off_c, 1, 65, 0
1, 260088, Note_off_c, 1, 59, 0
1, 260088, Note_off_c, 1, 56, 0
1, 260088, Note_off_c, 1, 50, 0
1, 260088, Note_off_c, 1, 53, 0
1, 260206, Note_off_c, 1, 71, 0
1, 260208, Note_on_c, 1, 64, 127
1, 260208, Note_on_c, 1, 61, 127
1, 260208, Note_on_c, 1, 58, 127
1, 260208, Note_on_c, 1, 55, 127
1, 260435, Note_on_c, 1, 70, 127
1, 260661, Note_off_c, 1, 70, 0
1, 260663, Note_on_c, 1, 72, 127
1, 260889, Note_off_c, 1, 72, 0
1, 261118, Note_on_c, 1, 69, 127
1, 261344, Note_off_c, 1, 69, 0
1, 261574, Note_on_c, 1, 73, 127
1, 261800, Note_off_c, 1, 73, 0
1, 261802, Note_on_c, 1, 76, 127
1, 262027, Note_off_c, 1, 76, 0
1, 262029, Note_on_c, 1, 79, 127
1, 262255, Note_off_c, 1, 79, 0
1, 262456, Note_off_c, 1, 64, 0
1, 262464, Note_off_c, 1, 61, 0
1, 262464, Note_off_c, 1, 58, 0
1, 262472, Note_off_c, 1, 55, 0
1, 262485, Note_on_c, 1, 70, 127
1, 262485, Note_on_c, 1, 63, 127
1, 262485, Note_on_c, 1, 50, 127
1, 262485, Note_on_c, 1, 54, 127
1, 262485, Note_on_c, 1, 60, 127
1, 262485, Note_on_c, 1, 57, 127
1, 263239, Note_off_c, 1, 70, 0
1, 263241, Note_on_c, 1, 69, 127
1, 263832, Note_off_c, 1, 63, 0
1, 263832, Note_off_c, 1, 50, 0
1, 263832, Note_off_c, 1, 54, 0
1, 263832, Note_off_c, 1, 60, 0
1, 263832, Note_off_c, 1, 57, 0
1, 263975, Note_off_c, 1, 69, 0
1, 263977, Note_on_c, 1, 62, 127
1, 263977, Note_on_c, 1, 53, 127
1, 263977, Note_on_c, 1, 57, 127
1, 264179, Note_on_c, 1, 69, 127
1, 264379, Note_off_c, 1, 69, 0
1, 264381, Note_on_c, 1, 70, 127
1, 264580, Note_off_c, 1, 70, 0
1, 264784, Note_on_c, 1, 68, 127
1, 264984, Note_off_c, 1, 68, 0
1, 265389, Note_on_c, 1, 71, 127
1, 265589, Note_off_c, 1, 71, 0
1, 265591, Note_on_c, 1, 72, 127
1, 265790, Note_off_c, 1, 72, 0
1, 265792, Note_on_c, 1, 73, 127
1, 265992, Note_off_c, 1, 73, 0
1, 265994, Note_on_c, 1, 74, 127
1, 266194, Note_off_c, 1, 74, 0
1, 266196, Note_on_c, 1, 75, 127
1, 266395, Note_off_c, 1, 75, 0
1, 266397, Note_on_c, 1, 76, 127
1, 266597, Note_off_c, 1, 76, 0
1, 266599, Note_on_c, 1, 77, 127
1, 266799, Note_off_c, 1, 77, 0
1, 266961, Note_off_c, 1, 62, 0
1, 266985, Note_off_c, 1, 53, 0
1, 266985, Note_off_c, 1, 57, 0
1, 267002, Note_on_c, 1, 69, 127
1, 267002, Note_on_c, 1, 62, 127
1, 267002, Note_on_c, 1, 50, 127
1, 267002, Note_on_c, 1, 53, 127
1, 267002, Note_on_c, 1, 56, 127
1, 267002, Note_on_c, 1, 59, 127
1, 267760, Note_off_c, 1, 69, 0
1, 267762, Note_on_c, 1, 68, 127
1, 268344, Note_off_c, 1, 62, 0
1, 268344, Note_off_c, 1, 50, 0
1, 268344, Note_off_c, 1, 53, 0
1, 268344, Note_off_c, 1, 56, 0
1, 268344, Note_off_c, 1, 59, 0
1, 268500, Note_off_c, 1, 68, 0
1, 268502, Note_on_c, 1, 58, 127
1, 268502, Note_on_c, 1, 55, 127
1, 268502, Note_on_c, 1, 61, 127
1, 268502, Note_on_c, 1, 52, 127
1, 268725, Note_on_c, 1, 67, 127
1, 268947, Note_off_c, 1, 67, 0
1, 268949, Note_on_c, 1, 69, 127
1, 269170, Note_off_c, 1, 69, 0
1, 269396, Note_on_c, 1, 66, 127
1, 269617, Note_off_c, 1, 66, 0
1, 269843, Note_on_c, 1, 70, 127
1, 270064, Note_off_c, 1, 70, 0
1, 270066, Note_on_c, 1, 73, 127
1, 270288, Note_off_c, 1, 73, 0
1, 270290, Note_on_c, 1, 76, 127
1, 270511, Note_off_c, 1, 76, 0
1, 271158, Note_off_c, 1, 58, 0
1, 271166, Note_off_c, 1, 55, 0
1, 271174, Note_off_c, 1, 61, 0
1, 271182, Note_off_c, 1, 52, 0
1, 271184, Note_on_c, 1, 67, 127
1, 271184, Note_on_c, 1, 54, 127
1, 271184, Note_on_c, 1, 60, 127
1, 271184, Note_on_c, 1, 57, 127
1, 271184, Note_on_c, 1, 51, 127
1, 271184, Note_on_c, 1, 63, 127
1, 271927, Note_off_c, 1, 67, 0
1, 271929, Note_on_c, 1, 66, 127
1, 272472, Note_off_c, 1, 54, 0
1, 272472, Note_off_c, 1, 60, 0
1, 272472, Note_off_c, 1, 57, 0
1, 272472, Note_off_c, 1, 51, 0
1, 272472, Note_off_c, 1, 63, 0
1, 272651, Note_off_c, 1, 66, 0
1, 272653, Note_on_c, 1, 53, 127
1, 272653, Note_on_c, 1, 50, 127
1, 272653, Note_on_c, 1, 56, 127
1, 272653, Note_on_c, 1, 59, 127
1, 272893, Note_on_c, 1, 65, 127
1, 273132, Note_off_c, 1, 65, 0
1, 273134, Note_on_c, 1, 67, 127
1, 273372, Note_off_c, 1, 67, 0
1, 273614, Note_on_c, 1, 64, 127
1, 273853, Note_off_c, 1, 64, 0
1, 274095, Note_on_c, 1, 74, 127
1, 274333, Note_off_c, 1, 74, 0
1, 274335, Note_on_c, 1, 71, 127
1, 274574, Note_off_c, 1, 71, 0
1, 274576, Note_on_c, 1, 68, 127
1, 274814, Note_off_c, 1, 68, 0
1, 275056, Note_on_c, 1, 62, 127
1, 275261, Note_off_c, 1, 53, 0
1, 275269, Note_off_c, 1, 50, 0
1, 275277, Note_off_c, 1, 56, 0
1, 275285, Note_off_c, 1, 59, 0
1, 275295, Note_off_c, 1, 62, 0
1, 275297, Note_on_c, 1, 62, 127
1, 275297, Note_on_c, 1, 49, 127
1, 275297, Note_on_c, 1, 52, 127
1, 275297, Note_on_c, 1, 58, 127
1, 275297, Note_on_c, 1, 55, 127
1, 276090, Note_off_c, 1, 62, 0
1, 276092, Note_on_c, 1, 64, 127
1, 276696, Note_off_c, 1, 49, 0
1, 276696, Note_off_c, 1, 52, 0
1, 276696, Note_off_c, 1, 58, 0
1, 276696, Note_off_c, 1, 55, 0
1, 276866, Note_off_c, 1, 64, 0
1, 276868, Note_on_c, 1, 48, 127
1, 276868, Note_on_c, 1, 51, 127
1, 276868, Note_on_c, 1, 54, 127
1, 276868, Note_on_c, 1, 57, 127
1, 277118, Note_on_c, 1, 75, 127
1, 277365, Note_off_c, 1, 75, 0
1, 277367, Note_on_c, 1, 77, 127
1, 277615, Note_off_c, 1, 77, 0
1, 277617, Note_on_c, 1, 74, 127
1, 277864, Note_off_c, 1, 74, 0
1, 277866, Note_on_c, 1, 72, 127
1, 278114, Note_off_c, 1, 72, 0
1, 278116, Note_on_c, 1, 70, 127
1, 278364, Note_off_c, 1, 70, 0
1, 278366, Note_on_c, 1, 69, 127
1, 278613, Note_off_c, 1, 69, 0
1, 279114, Note_on_c, 1, 67, 127
1, 279362, Note_off_c, 1, 67, 0
1, 279364, Note_on_c, 1, 66, 127
1, 279611, Note_off_c, 1, 66, 0
1, 280113, Note_on_c, 1, 63, 127
1, 280260, Note_off_c, 1, 48, 0
1, 280276, Note_off_c, 1, 51, 0
1, 280300, Note_off_c, 1, 54, 0
1, 280308, Note_off_c, 1, 57, 0
1, 280374, Note_off_c, 1, 63, 0
1, 280376, Note_on_c, 1, 63, 127
1, 280664, Note_off_c, 1, 63, 0
1, 280666, Note_on_c, 1, 60, 127
1, 280967, Note_off_c, 1, 60, 0
1, 280969, Note_on_c, 1, 62, 127
1, 281578, Note_on_c, 1, 56, 127
1, 281578, Note_on_c, 1, 53, 127
1, 281578, Note_on_c, 1, 50, 127
1, 281578, Note_on_c, 1, 47, 127
1, 282778, Note_off_c, 1, 56, 0
1, 282778, Note_off_c, 1, 53, 0
1, 282778, Note_off_c, 1, 50, 0
1, 282778, Note_off_c, 1, 47, 0
1, 282783, Note_on_c, 1, 55, 127
1, 282783, Note_on_c, 1, 46, 127
1, 283224, Note_off_c, 1, 62, 0
1, 283541, Note_on_c, 1, 63, 127
1, 283746, Note_off_c, 1, 63, 0
1, 283968, Note_on_c, 1, 61, 127
1, 284186, Note_off_c, 1, 61, 0
1, 284492, Note_on_c, 1, 64, 127
1, 284742, Note_off_c, 1, 64, 0
1, 284744, Note_on_c, 1, 66, 127
1, 284995, Note_off_c, 1, 66, 0
1, 284997, Note_on_c, 1, 67, 127
1, 285255, Note_off_c, 1, 67, 0
1, 285257, Note_on_c, 1, 69, 127
1, 285516, Note_off_c, 1, 69, 0
1, 285518, Note_on_c, 1, 70, 127
1, 285864, Note_off_c, 1, 55, 0
1, 285864, Note_off_c, 1, 46, 0
1, 285888, Note_off_c, 1, 70, 0
1, 285890, Note_on_c, 1, 69, 127
1, 286158, Note_off_c, 1, 69, 0
1, 286160, Note_on_c, 1, 67, 127
1, 286418, Note_off_c, 1, 67, 0
1, 286420, Note_on_c, 1, 65, 127
1, 286679, Note_off_c, 1, 65, 0
1, 286681, Note_on_c, 1, 64, 127
1, 286994, Note_off_c, 1, 64, 0
1, 286996, Note_on_c, 1, 65, 127
1, 287220, Note_off_c, 1, 65, 0
1, 287222, Note_on_c, 1, 67, 127
1, 287469, Note_off_c, 1, 67, 0
1, 287471, Note_on_c, 1, 62, 127
1, 287471, Note_on_c, 1, 55, 127
1, 287471, Note_on_c, 1, 58, 127
1, 287471, Note_on_c, 1, 52, 127
1, 287471, Note_on_c, 1, 46, 127
1, 288063, Note_off_c, 1, 62, 0
1, 288065, Note_on_c, 1, 61, 127
1, 289039, Note_off_c, 1, 55, 0
1, 289047, Note_off_c, 1, 58, 0
1, 289055, Note_off_c, 1, 52, 0
1, 289055, Note_off_c, 1, 46, 0
1, 289080, Note_off_c, 1, 61, 0
1, 289082, Note_on_c, 1, 62, 127
1, 289378, Note_off_c, 1, 62, 0
1, 289380, Note_on_c, 1, 61, 127
1, 289675, Note_off_c, 1, 61, 0
1, 289677, Note_on_c, 1, 62, 127
1, 289973, Note_off_c, 1, 62, 0
1, 289975, Note_on_c, 1, 61, 127
1, 290270, Note_off_c, 1, 61, 0
1, 290272, Note_on_c, 1, 62, 127
1, 290568, Note_off_c, 1, 62, 0
1, 290570, Note_on_c, 1, 61, 127
1, 290865, Note_off_c, 1, 61, 0
1, 290867, Note_on_c, 1, 62, 127
1, 291162, Note_off_c, 1, 62, 0
1, 291164, Note_on_c, 1, 61, 127
1, 291460, Note_off_c, 1, 61, 0
1, 291462, Note_on_c, 1, 59, 127
1, 291784, Note_off_c, 1, 59, 0
1, 291786, Note_on_c, 1, 61, 127
1, 292136, Note_off_c, 1, 61, 0
1, 292138, Note_on_c, 1, 50, 127
1, 292546, Note_on_c, 1, 54, 127
1, 292954, Note_on_c, 1, 57, 127
1, 293363, Note_on_c, 1, 62, 127
1, 296802, Note_off_c, 1, 50, 0
1, 296834, Note_off_c, 1, 57, 0
1, 296839, Note_off_c, 1, 54, 0
1, 297463, Note_off_c, 1, 62, 0
1, 297616, Note_on_c, 1, 69, 127
1, 298056, Note_off_c, 1, 69, 0
1, 298057, Note_on_c, 1, 70, 127
1, 298497, Note_off_c, 1, 70, 0
1, 298499, Note_on_c, 1, 71, 127
1, 298939, Note_off_c, 1, 71, 0
1, 298940, Note_on_c, 1, 72, 127
1, 299380, Note_off_c, 1, 72, 0
1, 299382, Note_on_c, 1, 72, 127
1, 299601, Note_off_c, 1, 72, 0
1, 299603, Note_on_c, 1, 71, 127
1, 299822, Note_off_c, 1, 71, 0
1, 299824, Note_on_c, 1, 72, 127
1, 300264, Note_off_c, 1, 72, 0
1, 300265, Note_on_c, 1, 64, 127
1, 300705, Note_off_c, 1, 64, 0
1, 300707, Note_on_c, 1, 65, 127
1, 301147, Note_off_c, 1, 65, 0
1, 301148, Note_on_c, 1, 66, 127
1, 301588, Note_off_c, 1, 66, 0
1, 301590, Note_on_c, 1, 67, 127
1, 302030, Note_off_c, 1, 67, 0
1, 302032, Note_on_c, 1, 67, 127
1, 302251, Note_off_c, 1, 67, 0
1, 302252, Note_on_c, 1, 66, 127
1, 302471, Note_off_c, 1, 66, 0
1, 302473, Note_on_c, 1, 67, 127
1, 302692, Note_off_c, 1, 67, 0
1, 302694, Note_on_c, 1, 69, 127
1, 302913, Note_off_c, 1, 69, 0
1, 302915, Note_on_c, 1, 70, 127
1, 303355, Note_off_c, 1, 70, 0
1, 303356, Note_on_c, 1, 69, 127
1, 303796, Note_off_c, 1, 69, 0
1, 303798, Note_on_c, 1, 67, 127
1, 304238, Note_off_c, 1, 67, 0
1, 304240, Note_on_c, 1, 65, 127
1, 304680, Note_off_c, 1, 65, 0
1, 304681, Note_on_c, 1, 67, 127
1, 304900, Note_off_c, 1, 67, 0
1, 304902, Note_on_c, 1, 65, 127
1, 305121, Note_off_c, 1, 65, 0
1, 305123, Note_on_c, 1, 64, 127
1, 305342, Note_off_c, 1, 64, 0
1, 305344, Note_on_c, 1, 62, 127
1, 305563, Note_off_c, 1, 62, 0
1, 305564, Note_on_c, 1, 64, 127
1, 306004, Note_off_c, 1, 64, 0
1, 306006, Note_on_c, 1, 57, 127
1, 306446, Note_off_c, 1, 57, 0
1, 306448, Note_on_c, 1, 61, 127
1, 306888, Note_off_c, 1, 61, 0
1, 306889, Note_on_c, 1, 62, 127
1, 307108, Note_off_c, 1, 62, 0
1, 307110, Note_on_c, 1, 62, 127
1, 307219, Note_off_c, 1, 62, 0
1, 307220, Note_on_c, 1, 64, 127
1, 307329, Note_off_c, 1, 64, 0
1, 307331, Note_on_c, 1, 65, 127
1, 307550, Note_off_c, 1, 65, 0
1, 307552, Note_on_c, 1, 65, 127
1, 307661, Note_off_c, 1, 65, 0
1, 307662, Note_on_c, 1, 67, 127
1, 307771, Note_off_c, 1, 67, 0
1, 307772, Note_on_c, 1, 69, 127
1, 307991, Note_off_c, 1, 69, 0
1, 307993, Note_on_c, 1, 69, 127
1, 308102, Note_off_c, 1, 69, 0
1, 308104, Note_on_c, 1, 71, 127
1, 308213, Note_off_c, 1, 71, 0
1, 308214, Note_on_c, 1, 64, 127
1, 308214, Note_on_c, 1, 72, 127
1, 308654, Note_off_c, 1, 64, 0
1, 308656, Note_on_c, 1, 65, 127
1, 309096, Note_off_c, 1, 65, 0
1, 309097, Note_on_c, 1, 66, 127
1, 309537, Note_off_c, 1, 66, 0
1, 309539, Note_on_c, 1, 67, 127
1, 309758, Note_off_c, 1, 72, 0
1, 309760, Note_on_c, 1, 69, 127
1, 309869, Note_off_c, 1, 69, 0
1, 309870, Note_on_c, 1, 70, 127
1, 309979, Note_off_c, 1, 67, 0
1, 309979, Note_off_c, 1, 70, 0
1, 309980, Note_on_c, 1, 67, 127
1, 309980, Note_on_c, 1, 72, 127
1, 310199, Note_off_c, 1, 67, 0
1, 310199, Note_off_c, 1, 72, 0
1, 310201, Note_on_c, 1, 72, 127
1, 310201, Note_on_c, 1, 66, 127
1, 310310, Note_off_c, 1, 72, 0
1, 310312, Note_on_c, 1, 74, 127
1, 310420, Note_off_c, 1, 66, 0
1, 310421, Note_off_c, 1, 74, 0
1, 310422, Note_on_c, 1, 76, 127
1, 310422, Note_on_c, 1, 67, 127
1, 310641, Note_off_c, 1, 76, 0
1, 310753, Note_on_c, 1, 78, 127
1, 310862, Note_off_c, 1, 67, 0
1, 310862, Note_off_c, 1, 78, 0
1, 310864, Note_on_c, 1, 59, 127
1, 310864, Note_on_c, 1, 79, 127
1, 311304, Note_off_c, 1, 59, 0
1, 311305, Note_on_c, 1, 60, 127
1, 311745, Note_off_c, 1, 60, 0
1, 311747, Note_on_c, 1, 61, 127
1, 312187, Note_off_c, 1, 61, 0
1, 312188, Note_on_c, 1, 62, 127
1, 312408, Note_off_c, 1, 79, 0
1, 312409, Note_on_c, 1, 81, 127
1, 312518, Note_off_c, 1, 81, 0
1, 312628, Note_off_c, 1, 62, 0
1, 312630, Note_on_c, 1, 62, 127
1, 312630, Note_on_c, 1, 77, 127
1, 312849, Note_off_c, 1, 62, 0
1, 312849, Note_off_c, 1, 77, 0
1, 312851, Note_on_c, 1, 77, 127
1, 312851, Note_on_c, 1, 61, 127
1, 312960, Note_off_c, 1, 77, 0
1, 312961, Note_on_c, 1, 76, 127
1, 313070, Note_off_c, 1, 61, 0
1, 313070, Note_off_c, 1, 76, 0
1, 313072, Note_on_c, 1, 62, 127
1, 313072, Note_on_c, 1, 74, 127
1, 313291, Note_off_c, 1, 62, 0
1, 313291, Note_off_c, 1, 74, 0
1, 313292, Note_on_c, 1, 72, 127
1, 313292, Note_on_c, 1, 64, 127
1, 313401, Note_off_c, 1, 72, 0
1, 313403, Note_on_c, 1, 71, 127
1, 313511, Note_off_c, 1, 64, 0
1, 313512, Note_off_c, 1, 71, 0
1, 313513, Note_on_c, 1, 81, 127
1, 313513, Note_on_c, 1, 65, 127
1, 313622, Note_off_c, 1, 81, 0
1, 313624, Note_on_c, 1, 80, 127
1, 313733, Note_off_c, 1, 80, 0
1, 313953, Note_off_c, 1, 65, 0
1, 313955, Note_on_c, 1, 81, 127
1, 313955, Note_on_c, 1, 64, 127
1, 314064, Note_off_c, 1, 81, 0
1, 314065, Note_on_c, 1, 80, 127
1, 314174, Note_off_c, 1, 80, 0
1, 314395, Note_off_c, 1, 64, 0
1, 314396, Note_on_c, 1, 81, 127
1, 314396, Note_on_c, 1, 62, 127
1, 314505, Note_off_c, 1, 81, 0
1, 314507, Note_on_c, 1, 80, 127
1, 314616, Note_off_c, 1, 80, 0
1, 314617, Note_on_c, 1, 78, 127
1, 314726, Note_off_c, 1, 78, 0
1, 314836, Note_off_c, 1, 62, 0
1, 314838, Note_on_c, 1, 60, 127
1, 314838, Note_on_c, 1, 81, 127
1, 315278, Note_off_c, 1, 60, 0
1, 315280, Note_on_c, 1, 62, 127
1, 315499, Note_off_c, 1, 62, 0
1, 315721, Note_on_c, 1, 59, 127
1, 315940, Note_off_c, 1, 59, 0
1, 315942, Note_on_c, 1, 57, 127
1, 316161, Note_off_c, 1, 57, 0
1, 316382, Note_off_c, 1, 81, 0
1, 316384, Note_on_c, 1, 83, 127
1, 316493, Note_off_c, 1, 83, 0
1, 316604, Note_on_c, 1, 80, 127
1, 316604, Note_on_c, 1, 52, 127
1, 316823, Note_off_c, 1, 80, 0
1, 316936, Note_on_c, 1, 78, 127
1, 317044, Note_off_c, 1, 52, 0
1, 317045, Note_off_c, 1, 78, 0
1, 317046, Note_on_c, 1, 76, 127
1, 317046, Note_on_c, 1, 56, 127
1, 317265, Note_off_c, 1, 76, 0
1, 317377, Note_on_c, 1, 74, 127
1, 317486, Note_off_c, 1, 56, 0
1, 317486, Note_off_c, 1, 74, 0
1, 317488, Note_on_c, 1, 57, 127
1, 317488, Note_on_c, 1, 72, 127
1, 317707, Note_off_c, 1, 57, 0
1, 317707, Note_off_c, 1, 72, 0
1, 317708, Note_on_c, 1, 57, 127
1, 317708, Note_on_c, 1, 64, 127
1, 317817, Note_off_c, 1, 57, 0
1, 317819, Note_on_c, 1, 59, 127
1, 317927, Note_off_c, 1, 64, 0
1, 317928, Note_off_c, 1, 59, 0
1, 317929, Note_on_c, 1, 60, 127
1, 317929, Note_on_c, 1, 69, 127
1, 318148, Note_off_c, 1, 60, 0
1, 318148, Note_off_c, 1, 69, 0
1, 318150, Note_on_c, 1, 60, 127
1, 318150, Note_on_c, 1, 69, 127
1, 318259, Note_off_c, 1, 60, 0
1, 318259, Note_off_c, 1, 69, 0
1, 318260, Note_on_c, 1, 62, 127
1, 318260, Note_on_c, 1, 71, 127
1, 318369, Note_off_c, 1, 62, 0
1, 318369, Note_off_c, 1, 71, 0
1, 318371, Note_on_c, 1, 64, 127
1, 318371, Note_on_c, 1, 72, 127
1, 318590, Note_off_c, 1, 64, 0
1, 318702, Note_on_c, 1, 66, 127
1, 318811, Note_off_c, 1, 66, 0
1, 318812, Note_on_c, 1, 67, 127
1, 318921, Note_off_c, 1, 72, 0
1, 318923, Note_on_c, 1, 70, 127
1, 319032, Note_off_c, 1, 70, 0
1, 319033, Note_on_c, 1, 69, 127
1, 319142, Note_off_c, 1, 69, 0
1, 319364, Note_on_c, 1, 74, 127
1, 319473, Note_off_c, 1, 74, 0
1, 319475, Note_on_c, 1, 75, 127
1, 319584, Note_off_c, 1, 75, 0
1, 320356, Note_off_c, 1, 67, 0
1, 320358, Note_on_c, 1, 55, 127
1, 320358, Note_on_c, 1, 62, 127
1, 320467, Note_off_c, 1, 55, 0
1, 320468, Note_on_c, 1, 57, 127
1, 320577, Note_off_c, 1, 62, 0
1, 320577, Note_off_c, 1, 57, 0
1, 320579, Note_on_c, 1, 58, 127
1, 320579, Note_on_c, 1, 67, 127
1, 320798, Note_off_c, 1, 58, 0
1, 320798, Note_off_c, 1, 67, 0
1, 320800, Note_on_c, 1, 58, 127
1, 320800, Note_on_c, 1, 67, 127
1, 320909, Note_off_c, 1, 58, 0
1, 320909, Note_off_c, 1, 67, 0
1, 320910, Note_on_c, 1, 60, 127
1, 320910, Note_on_c, 1, 69, 127
1, 321019, Note_off_c, 1, 60, 0
1, 321019, Note_off_c, 1, 69, 0
1, 321020, Note_on_c, 1, 62, 127
1, 321020, Note_on_c, 1, 70, 127
1, 321239, Note_off_c, 1, 62, 0
1, 321239, Note_off_c, 1, 70, 0
1, 321241, Note_on_c, 1, 62, 127
1, 321241, Note_on_c, 1, 72, 127
1, 321350, Note_off_c, 1, 62, 0
1, 321350, Note_off_c, 1, 72, 0
1, 321352, Note_on_c, 1, 64, 127
1, 321352, Note_on_c, 1, 70, 127
1, 321461, Note_off_c, 1, 64, 0
1, 321461, Note_off_c, 1, 70, 0
1, 321462, Note_on_c, 1, 69, 127
1, 321462, Note_on_c, 1, 57, 127
1, 321462, Note_on_c, 1, 65, 127
1, 321681, Note_off_c, 1, 69, 0
1, 321683, Note_on_c, 1, 70, 127
1, 321792, Note_off_c, 1, 70, 0
1, 321793, Note_on_c, 1, 72, 127
1, 321902, Note_off_c, 1, 57, 0
1, 321902, Note_off_c, 1, 72, 0
1, 321904, Note_on_c, 1, 74, 127
1, 321904, Note_on_c, 1, 58, 127
1, 322013, Note_off_c, 1, 74, 0
1, 322014, Note_on_c, 1, 75, 127
1, 322123, Note_off_c, 1, 75, 0
1, 322344, Note_off_c, 1, 58, 0
1, 322345, Note_on_c, 1, 59, 127
1, 322456, Note_on_c, 1, 71, 127
1, 322565, Note_off_c, 1, 71, 0
1, 322785, Note_off_c, 1, 59, 0
1, 322787, Note_on_c, 1, 60, 127
1, 322787, Note_on_c, 1, 67, 127
1, 323006, Note_off_c, 1, 65, 0
1, 323008, Note_on_c, 1, 62, 127
1, 323117, Note_off_c, 1, 62, 0
1, 323118, Note_on_c, 1, 64, 127
1, 323227, Note_off_c, 1, 60, 0
1, 323227, Note_off_c, 1, 64, 0
1, 323520, Note_off_c, 1, 67, 0
1, 324112, Note_on_c, 1, 52, 127
1, 324552, Note_off_c, 1, 52, 0
1, 324553, Note_on_c, 1, 53, 127
1, 324993, Note_off_c, 1, 53, 0
1, 324995, Note_on_c, 1, 54, 127
1, 325105, Note_on_c, 1, 66, 127
1, 325214, Note_off_c, 1, 66, 0
1, 325435, Note_off_c, 1, 54, 0
1, 325436, Note_on_c, 1, 55, 127
1, 325876, Note_off_c, 1, 55, 0
1, 325878, Note_on_c, 1, 70, 127
1, 325878, Note_on_c, 1, 55, 127
1, 325878, Note_on_c, 1, 74, 127
1, 326097, Note_off_c, 1, 70, 0
1, 326097, Note_off_c, 1, 55, 0
1, 326099, Note_on_c, 1, 54, 127
1, 326209, Note_on_c, 1, 69, 127
1, 326318, Note_off_c, 1, 54, 0
1, 326318, Note_off_c, 1, 69, 0
1, 326320, Note_on_c, 1, 67, 127
1, 326539, Note_off_c, 1, 67, 0
1, 326540, Note_on_c, 1, 65, 127
1, 326540, Note_on_c, 1, 57, 127
1, 326649, Note_off_c, 1, 65, 0
1, 326651, Note_on_c, 1, 64, 127
1, 326759, Note_off_c, 1, 57, 0
1, 326760, Note_off_c, 1, 74, 0
1, 326760, Note_off_c, 1, 64, 0
1, 326761, Note_on_c, 1, 74, 127
1, 326761, Note_on_c, 1, 58, 127
1, 326761, Note_on_c, 1, 76, 127
1, 326854, Note_off_c, 1, 74, 0
1, 326855, Note_on_c, 1, 73, 127
1, 326948, Note_off_c, 1, 73, 0
1, 327201, Note_off_c, 1, 58, 0
1, 327203, Note_on_c, 1, 57, 127
1, 327643, Note_off_c, 1, 57, 0
1, 327644, Note_on_c, 1, 55, 127
1, 327895, Note_on_c, 1, 71, 127
1, 327988, Note_off_c, 1, 71, 0
1, 328084, Note_off_c, 1, 76, 0
1, 328084, Note_off_c, 1, 55, 0
1, 328086, Note_on_c, 1, 53, 127
1, 328086, Note_on_c, 1, 74, 127
1, 328196, Note_on_c, 1, 81, 127
1, 328305, Note_off_c, 1, 81, 0
1, 328307, Note_on_c, 1, 79, 127
1, 328416, Note_off_c, 1, 79, 0
1, 328417, Note_on_c, 1, 77, 127
1, 328526, Note_off_c, 1, 53, 0
1, 328526, Note_off_c, 1, 77, 0
1, 328528, Note_on_c, 1, 76, 127
1, 328528, Note_on_c, 1, 55, 127
1, 328637, Note_off_c, 1, 76, 0
1, 328747, Note_off_c, 1, 55, 0
1, 328969, Note_on_c, 1, 52, 127
1, 329188, Note_off_c, 1, 52, 0
1, 329190, Note_on_c, 1, 50, 127
1, 329409, Note_off_c, 1, 50, 0
1, 329630, Note_off_c, 1, 74, 0
1, 329852, Note_on_c, 1, 73, 127
1, 329852, Note_on_c, 1, 45, 127
1, 329852, Note_on_c, 1, 76, 127
1, 330071, Note_off_c, 1, 73, 0
1, 330184, Note_on_c, 1, 71, 127
1, 330292, Note_off_c, 1, 45, 0
1, 330293, Note_off_c, 1, 71, 0
1, 330294, Note_on_c, 1, 69, 127
1, 330294, Note_on_c, 1, 49, 127
1, 330513, Note_off_c, 1, 69, 0
1, 330625, Note_on_c, 1, 67, 127
1, 330734, Note_off_c, 1, 76, 0
1, 330734, Note_off_c, 1, 49, 0
1, 330734, Note_off_c, 1, 67, 0
1, 330736, Note_on_c, 1, 50, 127
1, 330736, Note_on_c, 1, 65, 127
1, 330956, Note_on_c, 1, 77, 127
1, 331065, Note_off_c, 1, 77, 0
1, 331067, Note_on_c, 1, 76, 127
1, 331176, Note_off_c, 1, 50, 0
1, 331176, Note_off_c, 1, 76, 0
1, 331177, Note_on_c, 1, 74, 127
1, 331177, Note_on_c, 1, 38, 127
1, 331396, Note_off_c, 1, 74, 0
1, 331508, Note_on_c, 1, 72, 127
1, 331617, Note_off_c, 1, 38, 0
1, 331617, Note_off_c, 1, 72, 0
1, 331619, Note_on_c, 1, 70, 127
1, 331838, Note_off_c, 1, 70, 0
1, 331950, Note_on_c, 1, 69, 127
1, 332058, Note_off_c, 1, 65, 0
1, 332059, Note_off_c, 1, 69, 0
1, 332060, Note_on_c, 1, 52, 127
1, 332060, Note_on_c, 1, 67, 127
1, 332279, Note_off_c, 1, 52, 0
1, 332281, Note_on_c, 1, 55, 127
1, 332281, Note_on_c, 1, 59, 127
1, 332390, Note_off_c, 1, 55, 0
1, 332392, Note_on_c, 1, 53, 127
1, 332500, Note_off_c, 1, 59, 0
1, 332501, Note_off_c, 1, 53, 0
1, 332502, Note_on_c, 1, 60, 127
1, 332721, Note_off_c, 1, 60, 0
1, 332723, Note_on_c, 1, 62, 127
1, 332833, Note_on_c, 1, 50, 127
1, 332942, Note_off_c, 1, 62, 0
1, 332942, Note_off_c, 1, 50, 0
1, 332944, Note_on_c, 1, 48, 127
1, 332944, Note_on_c, 1, 64, 127
1, 333162, Note_off_c, 1, 67, 0
1, 333163, Note_off_c, 1, 48, 0
1, 333275, Note_on_c, 1, 46, 127
1, 333384, Note_off_c, 1, 46, 0
1, 333385, Note_on_c, 1, 45, 127
1, 333385, Note_on_c, 1, 72, 127
1, 333604, Note_off_c, 1, 45, 0
1, 333605, Note_off_c, 1, 64, 0
1, 333716, Note_on_c, 1, 58, 127
1, 333825, Note_off_c, 1, 58, 0
1, 333827, Note_on_c, 1, 65, 127
1, 333827, Note_on_c, 1, 57, 127
1, 334046, Note_off_c, 1, 65, 0
1, 334046, Note_off_c, 1, 57, 0
1, 334268, Note_on_c, 1, 69, 127
1, 334487, Note_off_c, 1, 72, 0
1, 334710, Note_on_c, 1, 77, 127
1, 334929, Note_off_c, 1, 69, 0
1, 335152, Note_on_c, 1, 70, 127
1, 335371, Note_off_c, 1, 70, 0
1, 335593, Note_on_c, 1, 74, 127
1, 335812, Note_off_c, 1, 77, 0
1, 336035, Note_on_c, 1, 43, 127
1, 336035, Note_on_c, 1, 82, 127
1, 336254, Note_off_c, 1, 74, 0
1, 336254, Note_off_c, 1, 43, 0
1, 336476, Note_on_c, 1, 76, 127
1, 336695, Note_off_c, 1, 76, 0
1, 336918, Note_on_c, 1, 79, 127
1, 337137, Note_off_c, 1, 79, 0
1, 337357, Note_off_c, 1, 82, 0
1, 337360, Note_on_c, 1, 76, 127
1, 337360, Note_on_c, 1, 48, 127
1, 337580, Note_on_c, 1, 84, 127
1, 337689, Note_off_c, 1, 84, 0
1, 337691, Note_on_c, 1, 82, 127
1, 337797, Note_off_c, 1, 76, 0
1, 337797, Note_off_c, 1, 48, 0
1, 337800, Note_off_c, 1, 82, 0
1, 337801, Note_on_c, 1, 81, 127
1, 338020, Note_off_c, 1, 81, 0
1, 338022, Note_on_c, 1, 81, 127
1, 338022, Note_on_c, 1, 57, 127
1, 338022, Note_on_c, 1, 53, 127
1, 338131, Note_off_c, 1, 81, 0
1, 338132, Note_on_c, 1, 79, 127
1, 338241, Note_off_c, 1, 57, 0
1, 338241, Note_off_c, 1, 53, 0
1, 338241, Note_off_c, 1, 79, 0
1, 338243, Note_on_c, 1, 58, 127
1, 338243, Note_on_c, 1, 55, 127
1, 338243, Note_on_c, 1, 77, 127
1, 338462, Note_off_c, 1, 58, 0
1, 338462, Note_off_c, 1, 55, 0
1, 338462, Note_off_c, 1, 77, 0
1, 338464, Note_on_c, 1, 77, 127
1, 338464, Note_on_c, 1, 60, 127
1, 338464, Note_on_c, 1, 57, 127
1, 338573, Note_off_c, 1, 77, 0
1, 338574, Note_on_c, 1, 75, 127
1, 338683, Note_off_c, 1, 60, 0
1, 338683, Note_off_c, 1, 57, 0
1, 338683, Note_off_c, 1, 75, 0
1, 338684, Note_on_c, 1, 62, 127
1, 338684, Note_on_c, 1, 58, 127
1, 338684, Note_on_c, 1, 74, 127
1, 338903, Note_off_c, 1, 62, 0
1, 338903, Note_off_c, 1, 58, 0
1, 338903, Note_off_c, 1, 74, 0
1, 338905, Note_on_c, 1, 77, 127
1, 338905, Note_on_c, 1, 60, 127
1, 338905, Note_on_c, 1, 57, 127
1, 339014, Note_off_c, 1, 77, 0
1, 339016, Note_on_c, 1, 75, 127
1, 339124, Note_off_c, 1, 60, 0
1, 339124, Note_off_c, 1, 57, 0
1, 339125, Note_off_c, 1, 75, 0
1, 339126, Note_on_c, 1, 62, 127
1, 339126, Note_on_c, 1, 58, 127
1, 339126, Note_on_c, 1, 74, 127
1, 339345, Note_off_c, 1, 62, 0
1, 339345, Note_off_c, 1, 58, 0
1, 339345, Note_off_c, 1, 74, 0
1, 339347, Note_on_c, 1, 74, 127
1, 339347, Note_on_c, 1, 63, 127
1, 339347, Note_on_c, 1, 60, 127
1, 339456, Note_off_c, 1, 74, 0
1, 339457, Note_on_c, 1, 72, 127
1, 339566, Note_off_c, 1, 63, 0
1, 339566, Note_off_c, 1, 60, 0
1, 339566, Note_off_c, 1, 72, 0
1, 339568, Note_on_c, 1, 65, 127
1, 339568, Note_on_c, 1, 62, 127
1, 339568, Note_on_c, 1, 70, 127
1, 339787, Note_off_c, 1, 65, 0
1, 339787, Note_off_c, 1, 62, 0
1, 339787, Note_off_c, 1, 70, 0
1, 339788, Note_on_c, 1, 70, 127
1, 339788, Note_on_c, 1, 63, 127
1, 339788, Note_on_c, 1, 60, 127
1, 339897, Note_off_c, 1, 70, 0
1, 339899, Note_on_c, 1, 69, 127
1, 340007, Note_off_c, 1, 63, 0
1, 340007, Note_off_c, 1, 60, 0
1, 340008, Note_off_c, 1, 69, 0
1, 340009, Note_on_c, 1, 58, 127
1, 340009, Note_on_c, 1, 67, 127
1, 340009, Note_on_c, 1, 62, 127
1, 340228, Note_off_c, 1, 58, 0
1, 340228, Note_off_c, 1, 67, 0
1, 340230, Note_on_c, 1, 74, 127
1, 340230, Note_on_c, 1, 57, 127
1, 340339, Note_off_c, 1, 74, 0
1, 340340, Note_on_c, 1, 72, 127
1, 340449, Note_off_c, 1, 57, 0
1, 340449, Note_off_c, 1, 72, 0
1, 340451, Note_on_c, 1, 55, 127
1, 340451, Note_on_c, 1, 70, 127
1, 340670, Note_off_c, 1, 55, 0
1, 340670, Note_off_c, 1, 70, 0
1, 340782, Note_on_c, 1, 69, 127
1, 340891, Note_off_c, 1, 69, 0
1, 341224, Note_on_c, 1, 65, 127
1, 341332, Note_off_c, 1, 62, 0
1, 341333, Note_off_c, 1, 65, 0
1, 341334, Note_on_c, 1, 60, 127
1, 341334, Note_on_c, 1, 64, 127
1, 341430, Note_off_c, 1, 60, 0
1, 341443, Note_off_c, 1, 64, 0
1, 341776, Note_on_c, 1, 65, 127
1, 341776, Note_on_c, 1, 60, 127
1, 341776, Note_on_c, 1, 57, 127
1, 341885, Note_off_c, 1, 65, 0
1, 341886, Note_on_c, 1, 67, 127
1, 341995, Note_off_c, 1, 60, 0
1, 341995, Note_off_c, 1, 57, 0
1, 341995, Note_off_c, 1, 67, 0
1, 341996, Note_on_c, 1, 69, 127
1, 341996, Note_on_c, 1, 58, 127
1, 341996, Note_on_c, 1, 55, 127
1, 342105, Note_off_c, 1, 69, 0
1, 342107, Note_on_c, 1, 70, 127
1, 342215, Note_off_c, 1, 58, 0
1, 342215, Note_off_c, 1, 55, 0
1, 342216, Note_off_c, 1, 70, 0
1, 342217, Note_on_c, 1, 72, 127
1, 342217, Note_on_c, 1, 57, 127
1, 342217, Note_on_c, 1, 53, 127
1, 342326, Note_off_c, 1, 72, 0
1, 342328, Note_on_c, 1, 70, 127
1, 342436, Note_off_c, 1, 57, 0
1, 342436, Note_off_c, 1, 53, 0
1, 342437, Note_off_c, 1, 70, 0
1, 342438, Note_on_c, 1, 72, 127
1, 342438, Note_on_c, 1, 55, 127
1, 342438, Note_on_c, 1, 52, 127
1, 342547, Note_off_c, 1, 72, 0
1, 342548, Note_on_c, 1, 74, 127
1, 342657, Note_off_c, 1, 55, 0
1, 342657, Note_off_c, 1, 52, 0
1, 342657, Note_off_c, 1, 74, 0
1, 342659, Note_on_c, 1, 72, 127
1, 342659, Note_on_c, 1, 57, 127
1, 342659, Note_on_c, 1, 53, 127
1, 342768, Note_off_c, 1, 72, 0
1, 342769, Note_on_c, 1, 70, 127
1, 342878, Note_off_c, 1, 57, 0
1, 342878, Note_off_c, 1, 53, 0
1, 342878, Note_off_c, 1, 70, 0
1, 342880, Note_on_c, 1, 72, 127
1, 342880, Note_on_c, 1, 46, 127
1, 342880, Note_on_c, 1, 53, 127
1, 342989, Note_off_c, 1, 72, 0
1, 342990, Note_on_c, 1, 74, 127
1, 343099, Note_off_c, 1, 46, 0
1, 343099, Note_off_c, 1, 74, 0
1, 343100, Note_on_c, 1, 69, 127
1, 343100, Note_on_c, 1, 48, 127
1, 343188, Note_off_c, 1, 69, 0
1, 343189, Note_on_c, 1, 67, 127
1, 343277, Note_off_c, 1, 67, 0
1, 343320, Note_off_c, 1, 53, 0
1, 343321, Note_on_c, 1, 52, 127
1, 343430, Note_off_c, 1, 52, 0
1, 343432, Note_on_c, 1, 50, 127
1, 343541, Note_off_c, 1, 50, 0
1, 343763, Note_on_c, 1, 58, 127
1, 343806, Note_on_c, 1, 65, 127
1, 343894, Note_off_c, 1, 65, 0
1, 343982, Note_off_c, 1, 48, 0
1, 344093, Note_off_c, 1, 58, 0
1, 344204, Note_on_c, 1, 57, 127
1, 344313, Note_off_c, 1, 57, 0
1, 344315, Note_on_c, 1, 55, 127
1, 344424, Note_off_c, 1, 55, 0
1, 345088, Note_on_c, 1, 59, 127
1, 345307, Note_off_c, 1, 59, 0
1, 345308, Note_on_c, 1, 60, 127
1, 345529, Note_on_c, 1, 64, 127
1, 345638, Note_off_c, 1, 64, 0
1, 345640, Note_on_c, 1, 62, 127
1, 345749, Note_off_c, 1, 62, 0
1, 345858, Note_off_c, 1, 60, 0
1, 345971, Note_on_c, 1, 45, 127
1, 346190, Note_off_c, 1, 45, 0
1, 346412, Note_on_c, 1, 38, 127
1, 346523, Note_on_c, 1, 66, 127
1, 346631, Note_off_c, 1, 38, 0
1, 346632, Note_off_c, 1, 66, 0
1, 346633, Note_on_c, 1, 43, 127
1, 346852, Note_off_c, 1, 43, 0
1, 347737, Note_on_c, 1, 67, 127
1, 347737, Note_on_c, 1, 61, 127
1, 347737, Note_on_c, 1, 45, 127
1, 347846, Note_off_c, 1, 67, 0
1, 347848, Note_on_c, 1, 69, 127
1, 347956, Note_off_c, 1, 61, 0
1, 347956, Note_off_c, 1, 45, 0
1, 347957, Note_off_c, 1, 69, 0
1, 347958, Note_on_c, 1, 65, 127
1, 347958, Note_on_c, 1, 50, 127
1, 347958, Note_on_c, 1, 62, 127
1, 348067, Note_off_c, 1, 65, 0
1, 348068, Note_on_c, 1, 69, 127
1, 348177, Note_off_c, 1, 69, 0
1, 348179, Note_on_c, 1, 71, 127
1, 348288, Note_off_c, 1, 71, 0
1, 348289, Note_on_c, 1, 73, 127
1, 348398, Note_off_c, 1, 50, 0
1, 348398, Note_off_c, 1, 73, 0
1, 348400, Note_on_c, 1, 54, 127
1, 348400, Note_on_c, 1, 74, 127
1, 348508, Note_off_c, 1, 62, 0
1, 348510, Note_on_c, 1, 64, 127
1, 348619, Note_off_c, 1, 64, 0
1, 348731, Note_on_c, 1, 60, 127
1, 348840, Note_off_c, 1, 54, 0
1, 348840, Note_off_c, 1, 60, 0
1, 348841, Note_on_c, 1, 59, 127
1, 348841, Note_on_c, 1, 56, 127
1, 348950, Note_off_c, 1, 59, 0
1, 349281, Note_off_c, 1, 56, 0
1, 349283, Note_on_c, 1, 57, 127
1, 349392, Note_off_c, 1, 74, 0
1, 349504, Note_on_c, 1, 72, 127
1, 349613, Note_off_c, 1, 72, 0
1, 349833, Note_off_c, 1, 57, 0
1, 350056, Note_on_c, 1, 55, 127
1, 350165, Note_off_c, 1, 55, 0
1, 350608, Note_on_c, 1, 52, 127
1, 351049, Note_on_c, 1, 68, 127
1, 351268, Note_off_c, 1, 68, 0
1, 351269, Note_off_c, 1, 52, 0
1, 351380, Note_on_c, 1, 66, 127
1, 351489, Note_off_c, 1, 66, 0
1, 352153, Note_on_c, 1, 76, 127
1, 352262, Note_off_c, 1, 76, 0
1, 352816, Note_on_c, 1, 69, 127
1, 352816, Note_on_c, 1, 66, 127
1, 352816, Note_on_c, 1, 45, 127
1, 353035, Note_off_c, 1, 69, 0
1, 353110, Note_on_c, 1, 71, 127
1, 353182, Note_off_c, 1, 71, 0
1, 353184, Note_on_c, 1, 72, 127
1, 353256, Note_off_c, 1, 66, 0
1, 353256, Note_off_c, 1, 45, 0
1, 353256, Note_off_c, 1, 72, 0
1, 353257, Note_on_c, 1, 71, 127
1, 353257, Note_on_c, 1, 67, 127
1, 353257, Note_on_c, 1, 52, 127
1, 353476, Note_off_c, 1, 71, 0
1, 353478, Note_on_c, 1, 69, 127
1, 353587, Note_off_c, 1, 69, 0
1, 353697, Note_off_c, 1, 67, 0
1, 353699, Note_on_c, 1, 72, 127
1, 353918, Note_off_c, 1, 72, 0
1, 353920, Note_on_c, 1, 66, 127
1, 354030, Note_on_c, 1, 74, 127
1, 354139, Note_off_c, 1, 66, 0
1, 354139, Note_off_c, 1, 74, 0
1, 354140, Note_on_c, 1, 76, 127
1, 354359, Note_off_c, 1, 76, 0
1, 354472, Note_on_c, 1, 78, 127
1, 354581, Note_off_c, 1, 78, 0
1, 354582, Note_on_c, 1, 59, 127
1, 354582, Note_on_c, 1, 79, 127
1, 354691, Note_off_c, 1, 52, 0
1, 354803, Note_on_c, 1, 53, 127
1, 354912, Note_off_c, 1, 53, 0
1, 354913, Note_on_c, 1, 55, 127
1, 355022, Note_off_c, 1, 59, 0
1, 355022, Note_off_c, 1, 55, 0
1, 355024, Note_on_c, 1, 57, 127
1, 355024, Note_on_c, 1, 60, 127
1, 355243, Note_off_c, 1, 57, 0
1, 355464, Note_off_c, 1, 60, 0
1, 355465, Note_on_c, 1, 61, 127
1, 355905, Note_off_c, 1, 61, 0
1, 355907, Note_on_c, 1, 62, 127
1, 355907, Note_on_c, 1, 50, 127
1, 356126, Note_off_c, 1, 79, 0
1, 356128, Note_on_c, 1, 81, 127
1, 356237, Note_off_c, 1, 81, 0
1, 356347, Note_off_c, 1, 62, 0
1, 356348, Note_on_c, 1, 77, 127
1, 356567, Note_off_c, 1, 77, 0
1, 357011, Note_on_c, 1, 64, 127
1, 357230, Note_off_c, 1, 50, 0
1, 357230, Note_off_c, 1, 64, 0
1, 357232, Note_on_c, 1, 62, 127
1, 357232, Note_on_c, 1, 71, 127
1, 357232, Note_on_c, 1, 56, 127
1, 357341, Note_off_c, 1, 62, 0
1, 357342, Note_on_c, 1, 64, 127
1, 357451, Note_off_c, 1, 64, 0
1, 357452, Note_on_c, 1, 65, 127
1, 357671, Note_off_c, 1, 65, 0
1, 358554, Note_off_c, 1, 71, 0
1, 358555, Note_off_c, 1, 56, 0
1, 358556, Note_on_c, 1, 62, 127
1, 358556, Note_on_c, 1, 57, 127
1, 358775, Note_off_c, 1, 62, 0
1, 358777, Note_on_c, 1, 81, 127
1, 358777, Note_on_c, 1, 60, 127
1, 358886, Note_off_c, 1, 81, 0
1, 358888, Note_on_c, 1, 79, 127
1, 358996, Note_off_c, 1, 60, 0
1, 358997, Note_off_c, 1, 79, 0
1, 358998, Note_on_c, 1, 77, 127
1, 359217, Note_off_c, 1, 77, 0
1, 359329, Note_on_c, 1, 76, 127
1, 359438, Note_off_c, 1, 76, 0
1, 359440, Note_on_c, 1, 59, 127
1, 359440, Note_on_c, 1, 74, 127
1, 359656, Note_off_c, 1, 57, 0
1, 359659, Note_off_c, 1, 59, 0
1, 359659, Note_off_c, 1, 74, 0
1, 359660, Note_on_c, 1, 74, 127
1, 359660, Note_on_c, 1, 57, 127
1, 359769, Note_off_c, 1, 74, 0
1, 359771, Note_on_c, 1, 72, 127
1, 359880, Note_off_c, 1, 72, 0
1, 359881, Note_on_c, 1, 59, 127
1, 360212, Note_on_c, 1, 77, 127
1, 360321, Note_off_c, 1, 57, 0
1, 360321, Note_off_c, 1, 59, 0
1, 360321, Note_off_c, 1, 77, 0
1, 360323, Note_on_c, 1, 76, 127
1, 360323, Note_on_c, 1, 56, 127
1, 360323, Note_on_c, 1, 52, 127
1, 360542, Note_off_c, 1, 76, 0
1, 360654, Note_on_c, 1, 74, 127
1, 360763, Note_off_c, 1, 56, 0
1, 360763, Note_off_c, 1, 52, 0
1, 360763, Note_off_c, 1, 74, 0
1, 360764, Note_on_c, 1, 72, 127
1, 360764, Note_on_c, 1, 56, 127
1, 360764, Note_on_c, 1, 64, 127
1, 360983, Note_off_c, 1, 72, 0
1, 361096, Note_on_c, 1, 71, 127
1, 361204, Note_off_c, 1, 56, 0
1, 361205, Note_off_c, 1, 71, 0
1, 361206, Note_on_c, 1, 57, 127
1, 361316, Note_off_c, 1, 64, 0
1, 361316, Note_on_c, 1, 69, 127
1, 361425, Note_off_c, 1, 69, 0
1, 361537, Note_on_c, 1, 60, 127
1, 361643, Note_off_c, 1, 57, 0
1, 361646, Note_off_c, 1, 60, 0
1, 362089, Note_on_c, 1, 54, 127
1, 362200, Note_on_c, 1, 62, 127
1, 362309, Note_off_c, 1, 62, 0
1, 362526, Note_off_c, 1, 54, 0
1, 362531, Note_on_c, 1, 55, 127
1, 362531, Note_on_c, 1, 71, 127
1, 362641, Note_on_c, 1, 67, 127
1, 362750, Note_off_c, 1, 67, 0
1, 362752, Note_on_c, 1, 62, 127
1, 362861, Note_off_c, 1, 62, 0
1, 362862, Note_on_c, 1, 59, 127
1, 362968, Note_off_c, 1, 55, 0
1, 362971, Note_off_c, 1, 59, 0
1, 363413, Note_off_c, 1, 71, 0
1, 363414, Note_on_c, 1, 52, 127
1, 363524, Note_on_c, 1, 60, 127
1, 363633, Note_off_c, 1, 60, 0
1, 363635, Note_on_c, 1, 67, 127
1, 363744, Note_off_c, 1, 67, 0
1, 363745, Note_on_c, 1, 70, 127
1, 363854, Note_off_c, 1, 52, 0
1, 363854, Note_off_c, 1, 70, 0
1, 363856, Note_on_c, 1, 69, 127
1, 363856, Note_on_c, 1, 53, 127
1, 363965, Note_off_c, 1, 69, 0
1, 363966, Note_on_c, 1, 65, 127
1, 364075, Note_off_c, 1, 65, 0
1, 364187, Note_on_c, 1, 72, 127
1, 364296, Note_off_c, 1, 72, 0
1, 364297, Note_on_c, 1, 77, 127
1, 364406, Note_off_c, 1, 53, 0
1, 364628, Note_on_c, 1, 62, 127
1, 364737, Note_off_c, 1, 62, 0
1, 364739, Note_on_c, 1, 59, 127
1, 364847, Note_off_c, 1, 77, 0
1, 364849, Note_on_c, 1, 67, 127
1, 364958, Note_off_c, 1, 59, 0
1, 364958, Note_off_c, 1, 67, 0
1, 364960, Note_on_c, 1, 74, 127
1, 364960, Note_on_c, 1, 55, 127
1, 365069, Note_off_c, 1, 74, 0
1, 365070, Note_on_c, 1, 77, 127
1, 365179, Note_off_c, 1, 55, 0
1, 365179, Note_off_c, 1, 77, 0
1, 365180, Note_on_c, 1, 76, 127
1, 365180, Note_on_c, 1, 60, 127
1, 365289, Note_off_c, 1, 76, 0
1, 365291, Note_on_c, 1, 67, 127
1, 365400, Note_off_c, 1, 67, 0
1, 365401, Note_on_c, 1, 72, 127
1, 365510, Note_off_c, 1, 72, 0
1, 365622, Note_on_c, 1, 79, 127
1, 365730, Note_off_c, 1, 60, 0
1, 365732, Note_on_c, 1, 70, 127
1, 365841, Note_off_c, 1, 70, 0
1, 365953, Note_on_c, 1, 64, 127
1, 366062, Note_off_c, 1, 64, 0
1, 366064, Note_on_c, 1, 61, 127
1, 366172, Note_off_c, 1, 79, 0
1, 366174, Note_on_c, 1, 69, 127
1, 366283, Note_off_c, 1, 61, 0
1, 366283, Note_off_c, 1, 69, 0
1, 366284, Note_on_c, 1, 76, 127
1, 366284, Note_on_c, 1, 57, 127
1, 366393, Note_off_c, 1, 76, 0
1, 366395, Note_on_c, 1, 79, 127
1, 366502, Note_off_c, 1, 57, 0
1, 366504, Note_off_c, 1, 79, 0
1, 366505, Note_on_c, 1, 79, 127
1, 366505, Note_on_c, 1, 62, 127
1, 366616, Note_on_c, 1, 74, 127
1, 366680, Note_off_c, 1, 79, 0
1, 366682, Note_on_c, 1, 77, 127
1, 366725, Note_off_c, 1, 74, 0
1, 366726, Note_on_c, 1, 72, 127
1, 366770, Note_off_c, 1, 77, 0
1, 366770, Note_on_c, 1, 76, 127
1, 366835, Note_off_c, 1, 72, 0
1, 366836, Note_on_c, 1, 70, 127
1, 366858, Note_off_c, 1, 76, 0
1, 366945, Note_off_c, 1, 70, 0
1, 366947, Note_on_c, 1, 69, 127
1, 367056, Note_off_c, 1, 69, 0
1, 367168, Note_on_c, 1, 67, 127
1, 367277, Note_off_c, 1, 67, 0
1, 367278, Note_on_c, 1, 65, 127
1, 367387, Note_off_c, 1, 62, 0
1, 367387, Note_off_c, 1, 65, 0
1, 367388, Note_on_c, 1, 79, 127
1, 367388, Note_on_c, 1, 62, 127
1, 367460, Note_off_c, 1, 79, 0
1, 367462, Note_on_c, 1, 77, 127
1, 367497, Note_off_c, 1, 62, 0
1, 367499, Note_on_c, 1, 65, 127
1, 367534, Note_off_c, 1, 77, 0
1, 367608, Note_off_c, 1, 65, 0
1, 367609, Note_on_c, 1, 77, 127
1, 367609, Note_on_c, 1, 60, 127
1, 367681, Note_off_c, 1, 77, 0
1, 367683, Note_on_c, 1, 79, 127
1, 367718, Note_off_c, 1, 60, 0
1, 367720, Note_on_c, 1, 65, 127
1, 367755, Note_off_c, 1, 79, 0
1, 367829, Note_off_c, 1, 65, 0
1, 367830, Note_on_c, 1, 79, 127
1, 367830, Note_on_c, 1, 59, 127
1, 367902, Note_off_c, 1, 79, 0
1, 367904, Note_on_c, 1, 77, 127
1, 367939, Note_off_c, 1, 59, 0
1, 367940, Note_on_c, 1, 62, 127
1, 367976, Note_off_c, 1, 77, 0
1, 368049, Note_off_c, 1, 62, 0
1, 368051, Note_on_c, 1, 77, 127
1, 368051, Note_on_c, 1, 64, 127
1, 368123, Note_off_c, 1, 77, 0
1, 368124, Note_on_c, 1, 79, 127
1, 368160, Note_off_c, 1, 64, 0
1, 368161, Note_on_c, 1, 67, 127
1, 368196, Note_off_c, 1, 79, 0
1, 368270, Note_off_c, 1, 67, 0
1, 368272, Note_on_c, 1, 79, 127
1, 368272, Note_on_c, 1, 65, 127
1, 368344, Note_off_c, 1, 79, 0
1, 368345, Note_on_c, 1, 77, 127
1, 368381, Note_off_c, 1, 65, 0
1, 368382, Note_on_c, 1, 64, 127
1, 368417, Note_off_c, 1, 77, 0
1, 368491, Note_off_c, 1, 64, 0
1, 368492, Note_on_c, 1, 77, 127
1, 368492, Note_on_c, 1, 62, 127
1, 368564, Note_off_c, 1, 77, 0
1, 368566, Note_on_c, 1, 79, 127
1, 368601, Note_off_c, 1, 62, 0
1, 368603, Note_on_c, 1, 60, 127
1, 368638, Note_off_c, 1, 79, 0
1, 368712, Note_off_c, 1, 60, 0
1, 368713, Note_on_c, 1, 79, 127
1, 368713, Note_on_c, 1, 59, 127
1, 368785, Note_off_c, 1, 79, 0
1, 368787, Note_on_c, 1, 77, 127
1, 368822, Note_off_c, 1, 59, 0
1, 368824, Note_on_c, 1, 62, 127
1, 368859, Note_off_c, 1, 77, 0
1, 368933, Note_off_c, 1, 62, 0
1, 368934, Note_on_c, 1, 77, 127
1, 368934, Note_on_c, 1, 57, 127
1, 369006, Note_off_c, 1, 77, 0
1, 369008, Note_on_c, 1, 79, 127
1, 369043, Note_off_c, 1, 57, 0
1, 369044, Note_on_c, 1, 62, 127
1, 369080, Note_off_c, 1, 79, 0
1, 369153, Note_off_c, 1, 62, 0
1, 369155, Note_on_c, 1, 79, 127
1, 369155, Note_on_c, 1, 56, 127
1, 369227, Note_off_c, 1, 79, 0
1, 369228, Note_on_c, 1, 77, 127
1, 369264, Note_off_c, 1, 56, 0
1, 369265, Note_on_c, 1, 59, 127
1, 369300, Note_off_c, 1, 77, 0
1, 369374, Note_off_c, 1, 59, 0
1, 369376, Note_on_c, 1, 60, 127
1, 369376, Note_on_c, 1, 77, 127
1, 369485, Note_off_c, 1, 60, 0
1, 369486, Note_on_c, 1, 64, 127
1, 369595, Note_off_c, 1, 64, 0
1, 369596, Note_on_c, 1, 62, 127
1, 369698, Note_off_c, 1, 77, 0
1, 369705, Note_off_c, 1, 62, 0
1, 369707, Note_on_c, 1, 60, 127
1, 369707, Note_on_c, 1, 76, 127
1, 369816, Note_off_c, 1, 60, 0
1, 369816, Note_off_c, 1, 76, 0
1, 369817, Note_on_c, 1, 59, 127
1, 369817, Note_on_c, 1, 74, 127
1, 369926, Note_off_c, 1, 59, 0
1, 369926, Note_off_c, 1, 74, 0
1, 369928, Note_on_c, 1, 57, 127
1, 369928, Note_on_c, 1, 72, 127
1, 370037, Note_off_c, 1, 57, 0
1, 370037, Note_off_c, 1, 72, 0
1, 370038, Note_on_c, 1, 56, 127
1, 370038, Note_on_c, 1, 71, 127
1, 370147, Note_off_c, 1, 56, 0
1, 370147, Note_off_c, 1, 71, 0
1, 370148, Note_on_c, 1, 59, 127
1, 370148, Note_on_c, 1, 74, 127
1, 370257, Note_off_c, 1, 59, 0
1, 370257, Note_off_c, 1, 74, 0
1, 370259, Note_on_c, 1, 54, 127
1, 370259, Note_on_c, 1, 69, 127
1, 370368, Note_off_c, 1, 54, 0
1, 370368, Note_off_c, 1, 69, 0
1, 370369, Note_on_c, 1, 59, 127
1, 370369, Note_on_c, 1, 74, 127
1, 370478, Note_off_c, 1, 59, 0
1, 370478, Note_off_c, 1, 74, 0
1, 370480, Note_on_c, 1, 52, 127
1, 370480, Note_on_c, 1, 68, 127
1, 370589, Note_off_c, 1, 52, 0
1, 370589, Note_off_c, 1, 68, 0
1, 370590, Note_on_c, 1, 56, 127
1, 370590, Note_on_c, 1, 71, 127
1, 370699, Note_off_c, 1, 56, 0
1, 370699, Note_off_c, 1, 71, 0
1, 370700, Note_on_c, 1, 57, 127
1, 370700, Note_on_c, 1, 72, 127
1, 370809, Note_off_c, 1, 57, 0
1, 370809, Note_off_c, 1, 72, 0
1, 370811, Note_on_c, 1, 60, 127
1, 370811, Note_on_c, 1, 76, 127
1, 370920, Note_off_c, 1, 60, 0
1, 370920, Note_off_c, 1, 76, 0
1, 370921, Note_on_c, 1, 59, 127
1, 370921, Note_on_c, 1, 74, 127
1, 371030, Note_off_c, 1, 59, 0
1, 371030, Note_off_c, 1, 74, 0
1, 371032, Note_on_c, 1, 57, 127
1, 371032, Note_on_c, 1, 72, 127
1, 371141, Note_off_c, 1, 57, 0
1, 371141, Note_off_c, 1, 72, 0
1, 371142, Note_on_c, 1, 56, 127
1, 371142, Note_on_c, 1, 71, 127
1, 371251, Note_off_c, 1, 56, 0
1, 371251, Note_off_c, 1, 71, 0
1, 371252, Note_on_c, 1, 54, 127
1, 371252, Note_on_c, 1, 69, 127
1, 371361, Note_off_c, 1, 54, 0
1, 371361, Note_off_c, 1, 69, 0
1, 371363, Note_on_c, 1, 52, 127
1, 371363, Note_on_c, 1, 68, 127
1, 371472, Note_off_c, 1, 52, 0
1, 371472, Note_off_c, 1, 68, 0
1, 371473, Note_on_c, 1, 56, 127
1, 371473, Note_on_c, 1, 71, 127
1, 371582, Note_off_c, 1, 56, 0
1, 371582, Note_off_c, 1, 71, 0
1, 371584, Note_on_c, 1, 50, 127
1, 371584, Note_on_c, 1, 65, 127
1, 371693, Note_off_c, 1, 50, 0
1, 371693, Note_off_c, 1, 65, 0
1, 371694, Note_on_c, 1, 56, 127
1, 371694, Note_on_c, 1, 71, 127
1, 371803, Note_off_c, 1, 56, 0
1, 371803, Note_off_c, 1, 71, 0
1, 371804, Note_on_c, 1, 48, 127
1, 371804, Note_on_c, 1, 64, 127
1, 371913, Note_off_c, 1, 48, 0
1, 371913, Note_off_c, 1, 64, 0
1, 371915, Note_on_c, 1, 52, 127
1, 371915, Note_on_c, 1, 68, 127
1, 372024, Note_off_c, 1, 52, 0
1, 372024, Note_off_c, 1, 68, 0
1, 372025, Note_on_c, 1, 54, 127
1, 372025, Note_on_c, 1, 69, 127
1, 372134, Note_off_c, 1, 54, 0
1, 372134, Note_off_c, 1, 69, 0
1, 372136, Note_on_c, 1, 57, 127
1, 372136, Note_on_c, 1, 72, 127
1, 372245, Note_off_c, 1, 57, 0
1, 372245, Note_off_c, 1, 72, 0
1, 372246, Note_on_c, 1, 50, 127
1, 372246, Note_on_c, 1, 66, 127
1, 372355, Note_off_c, 1, 50, 0
1, 372355, Note_off_c, 1, 66, 0
1, 372356, Note_on_c, 1, 54, 127
1, 372356, Note_on_c, 1, 69, 127
1, 372465, Note_off_c, 1, 54, 0
1, 372465, Note_off_c, 1, 69, 0
1, 372467, Note_on_c, 1, 56, 127
1, 372467, Note_on_c, 1, 71, 127
1, 372576, Note_off_c, 1, 56, 0
1, 372576, Note_off_c, 1, 71, 0
1, 372577, Note_on_c, 1, 59, 127
1, 372577, Note_on_c, 1, 74, 127
1, 372686, Note_off_c, 1, 59, 0
1, 372686, Note_off_c, 1, 74, 0
1, 372688, Note_on_c, 1, 52, 127
1, 372688, Note_on_c, 1, 68, 127
1, 372797, Note_off_c, 1, 52, 0
1, 372797, Note_off_c, 1, 68, 0
1, 372798, Note_on_c, 1, 56, 127
1, 372798, Note_on_c, 1, 71, 127
1, 372907, Note_off_c, 1, 56, 0
1, 372907, Note_off_c, 1, 71, 0
1, 372908, Note_on_c, 1, 57, 127
1, 372908, Note_on_c, 1, 72, 127
1, 373017, Note_off_c, 1, 57, 0
1, 373017, Note_off_c, 1, 72, 0
1, 373019, Note_on_c, 1, 60, 127
1, 373019, Note_on_c, 1, 76, 127
1, 373128, Note_off_c, 1, 60, 0
1, 373128, Note_off_c, 1, 76, 0
1, 373129, Note_on_c, 1, 54, 127
1, 373129, Note_on_c, 1, 69, 127
1, 373238, Note_off_c, 1, 54, 0
1, 373238, Note_off_c, 1, 69, 0
1, 373240, Note_on_c, 1, 56, 127
1, 373240, Note_on_c, 1, 71, 127
1, 373349, Note_off_c, 1, 56, 0
1, 373349, Note_off_c, 1, 71, 0
1, 373350, Note_on_c, 1, 57, 127
1, 373350, Note_on_c, 1, 72, 127
1, 373459, Note_off_c, 1, 57, 0
1, 373459, Note_off_c, 1, 72, 0
1, 373460, Note_on_c, 1, 60, 127
1, 373460, Note_on_c, 1, 76, 127
1, 373569, Note_off_c, 1, 60, 0
1, 373569, Note_off_c, 1, 76, 0
1, 373571, Note_on_c, 1, 56, 127
1, 373571, Note_on_c, 1, 71, 127
1, 373680, Note_off_c, 1, 56, 0
1, 373680, Note_off_c, 1, 71, 0
1, 373681, Note_on_c, 1, 57, 127
1, 373681, Note_on_c, 1, 72, 127
1, 373790, Note_off_c, 1, 57, 0
1, 373790, Note_off_c, 1, 72, 0
1, 373792, Note_on_c, 1, 59, 127
1, 373792, Note_on_c, 1, 74, 127
1, 373901, Note_off_c, 1, 59, 0
1, 373901, Note_off_c, 1, 74, 0
1, 373902, Note_on_c, 1, 62, 127
1, 373902, Note_on_c, 1, 77, 127
1, 374011, Note_off_c, 1, 62, 0
1, 374011, Note_off_c, 1, 77, 0
1, 374012, Note_on_c, 1, 60, 127
1, 374012, Note_on_c, 1, 76, 127
1, 374121, Note_off_c, 1, 60, 0
1, 374121, Note_off_c, 1, 76, 0
1, 374123, Note_on_c, 1, 59, 127
1, 374123, Note_on_c, 1, 74, 127
1, 374232, Note_off_c, 1, 59, 0
1, 374232, Note_off_c, 1, 74, 0
1, 374233, Note_on_c, 1, 57, 127
1, 374233, Note_on_c, 1, 72, 127
1, 374342, Note_off_c, 1, 57, 0
1, 374342, Note_off_c, 1, 72, 0
1, 374344, Note_on_c, 1, 56, 127
1, 374344, Note_on_c, 1, 71, 127
1, 374453, Note_off_c, 1, 56, 0
1, 374453, Note_off_c, 1, 71, 0
1, 374454, Note_on_c, 1, 72, 127
1, 374454, Note_on_c, 1, 57, 127
1, 374563, Note_off_c, 1, 72, 0
1, 374564, Note_on_c, 1, 76, 127
1, 374673, Note_off_c, 1, 57, 0
1, 374673, Note_off_c, 1, 76, 0
1, 374675, Note_on_c, 1, 81, 127
1, 374675, Note_on_c, 1, 52, 127
1, 374784, Note_off_c, 1, 81, 0
1, 374785, Note_on_c, 1, 80, 127
1, 374894, Note_off_c, 1, 52, 0
1, 374894, Note_off_c, 1, 80, 0
1, 374896, Note_on_c, 1, 81, 127
1, 374896, Note_on_c, 1, 53, 127
1, 375005, Note_off_c, 1, 81, 0
1, 375006, Note_on_c, 1, 74, 127
1, 375115, Note_off_c, 1, 53, 0
1, 375115, Note_off_c, 1, 74, 0
1, 375116, Note_on_c, 1, 76, 127
1, 375116, Note_on_c, 1, 50, 127
1, 375225, Note_off_c, 1, 76, 0
1, 375227, Note_on_c, 1, 77, 127
1, 375335, Note_off_c, 1, 50, 0
1, 375336, Note_off_c, 1, 77, 0
1, 375337, Note_on_c, 1, 68, 127
1, 375337, Note_on_c, 1, 52, 127
1, 375446, Note_off_c, 1, 68, 0
1, 375448, Note_on_c, 1, 71, 127
1, 375556, Note_off_c, 1, 52, 0
1, 375557, Note_off_c, 1, 71, 0
1, 375558, Note_on_c, 1, 76, 127
1, 375558, Note_on_c, 1, 40, 127
1, 375667, Note_off_c, 1, 76, 0
1, 375668, Note_on_c, 1, 74, 127
1, 375777, Note_off_c, 1, 40, 0
1, 375777, Note_off_c, 1, 74, 0
1, 375779, Note_on_c, 1, 72, 127
1, 375779, Note_on_c, 1, 69, 127
1, 375779, Note_on_c, 1, 45, 127
1, 375888, Note_off_c, 1, 72, 0
1, 376000, Note_on_c, 1, 76, 127
1, 376109, Note_off_c, 1, 76, 0
1, 376110, Note_on_c, 1, 81, 127
1, 376219, Note_off_c, 1, 69, 0
1, 376220, Note_on_c, 1, 70, 127
1, 376329, Note_off_c, 1, 81, 0
1, 376331, Note_on_c, 1, 74, 127
1, 376440, Note_off_c, 1, 74, 0
1, 376441, Note_on_c, 1, 77, 127
1, 376550, Note_off_c, 1, 77, 0
1, 376660, Note_off_c, 1, 70, 0
1, 376662, Note_on_c, 1, 71, 127
1, 376993, Note_on_c, 1, 80, 127
1, 377102, Note_off_c, 1, 71, 0
1, 377102, Note_off_c, 1, 80, 0
1, 377323, Note_off_c, 1, 45, 0
1, 377435, Note_on_c, 1, 47, 127
1, 377544, Note_off_c, 1, 47, 0
1, 377545, Note_on_c, 1, 72, 127
1, 377545, Note_on_c, 1, 48, 127
1, 377545, Note_on_c, 1, 81, 127
1, 377764, Note_off_c, 1, 72, 0
1, 377764, Note_off_c, 1, 48, 0
1, 377764, Note_off_c, 1, 81, 0
1, 377766, Note_on_c, 1, 48, 127
1, 377766, Note_on_c, 1, 71, 127
1, 377766, Note_on_c, 1, 80, 127
1, 377875, Note_off_c, 1, 48, 0
1, 377876, Note_on_c, 1, 50, 127
1, 377985, Note_off_c, 1, 71, 0
1, 377985, Note_off_c, 1, 80, 0
1, 377985, Note_off_c, 1, 50, 0
1, 377987, Note_on_c, 1, 52, 127
1, 377987, Note_on_c, 1, 72, 127
1, 377987, Note_on_c, 1, 81, 127
1, 378206, Note_off_c, 1, 52, 0
1, 378318, Note_on_c, 1, 54, 127
1, 378427, Note_off_c, 1, 72, 0
1, 378427, Note_off_c, 1, 54, 0
1, 378428, Note_on_c, 1, 64, 127
1, 378428, Note_on_c, 1, 56, 127
1, 378537, Note_off_c, 1, 81, 0
1, 378539, Note_on_c, 1, 74, 127
1, 378648, Note_off_c, 1, 74, 0
1, 378649, Note_on_c, 1, 76, 127
1, 378758, Note_off_c, 1, 76, 0
1, 378760, Note_on_c, 1, 83, 127
1, 378868, Note_off_c, 1, 64, 0
1, 378868, Note_off_c, 1, 56, 0
1, 378870, Note_on_c, 1, 65, 127
1, 378870, Note_on_c, 1, 57, 127
1, 378979, Note_off_c, 1, 83, 0
1, 379310, Note_off_c, 1, 65, 0
1, 379312, Note_on_c, 1, 66, 127
1, 379422, Note_on_c, 1, 69, 127
1, 379531, Note_off_c, 1, 69, 0
1, 379643, Note_on_c, 1, 75, 127
1, 379752, Note_off_c, 1, 57, 0
1, 379752, Note_off_c, 1, 66, 0
1, 379752, Note_off_c, 1, 75, 0
1, 379753, Note_on_c, 1, 52, 127
1, 379753, Note_on_c, 1, 67, 127
1, 379753, Note_on_c, 1, 76, 127
1, 379972, Note_off_c, 1, 52, 0
1, 379974, Note_on_c, 1, 40, 127
1, 380083, Note_off_c, 1, 40, 0
1, 380084, Note_on_c, 1, 42, 127
1, 380193, Note_off_c, 1, 67, 0
1, 380193, Note_off_c, 1, 76, 0
1, 380193, Note_off_c, 1, 42, 0
1, 380195, Note_on_c, 1, 67, 127
1, 380195, Note_on_c, 1, 43, 127
1, 380195, Note_on_c, 1, 76, 127
1, 380414, Note_off_c, 1, 67, 0
1, 380414, Note_off_c, 1, 43, 0
1, 380414, Note_off_c, 1, 76, 0
1, 380416, Note_on_c, 1, 43, 127
1, 380416, Note_on_c, 1, 66, 127
1, 380416, Note_on_c, 1, 75, 127
1, 380525, Note_off_c, 1, 43, 0
1, 380526, Note_on_c, 1, 45, 127
1, 380635, Note_off_c, 1, 66, 0
1, 380635, Note_off_c, 1, 75, 0
1, 380635, Note_off_c, 1, 45, 0
1, 380636, Note_on_c, 1, 47, 127
1, 380636, Note_on_c, 1, 67, 127
1, 380636, Note_on_c, 1, 76, 127
1, 380855, Note_off_c, 1, 47, 0
1, 380931, Note_on_c, 1, 49, 127
1, 381003, Note_off_c, 1, 49, 0
1, 381004, Note_on_c, 1, 50, 127
1, 381076, Note_off_c, 1, 67, 0
1, 381076, Note_off_c, 1, 50, 0
1, 381188, Note_on_c, 1, 69, 127
1, 381297, Note_off_c, 1, 69, 0
1, 381299, Note_on_c, 1, 70, 127
1, 381518, Note_off_c, 1, 70, 0
1, 381520, Note_on_c, 1, 62, 127
1, 381607, Note_off_c, 1, 62, 0
1, 381608, Note_on_c, 1, 61, 127
1, 381695, Note_off_c, 1, 61, 0
1, 382226, Note_on_c, 1, 59, 127
1, 382313, Note_off_c, 1, 59, 0
1, 382622, Note_off_c, 1, 76, 0
1, 382624, Note_on_c, 1, 73, 127
1, 382624, Note_on_c, 1, 65, 127
1, 382733, Note_off_c, 1, 73, 0
1, 382734, Note_on_c, 1, 74, 127
1, 382843, Note_off_c, 1, 65, 0
1, 382843, Note_off_c, 1, 74, 0
1, 383176, Note_on_c, 1, 77, 127
1, 383285, Note_off_c, 1, 77, 0
1, 383286, Note_on_c, 1, 64, 127
1, 383286, Note_on_c, 1, 79, 127
1, 383505, Note_off_c, 1, 64, 0
1, 383505, Note_off_c, 1, 79, 0
1, 383617, Note_on_c, 1, 81, 127
1, 383726, Note_off_c, 1, 81, 0
1, 383728, Note_on_c, 1, 79, 127
1, 383728, Note_on_c, 1, 64, 127
1, 383837, Note_off_c, 1, 79, 0
1, 383838, Note_on_c, 1, 81, 127
1, 383947, Note_off_c, 1, 81, 0
1, 383948, Note_on_c, 1, 52, 127
1, 383948, Note_on_c, 1, 82, 127
1, 384057, Note_off_c, 1, 52, 0
1, 384059, Note_on_c, 1, 53, 127
1, 384167, Note_off_c, 1, 82, 0
1, 384168, Note_off_c, 1, 64, 0
1, 384168, Note_off_c, 1, 53, 0
1, 384169, Note_on_c, 1, 55, 127
1, 384169, Note_on_c, 1, 82, 127
1, 384169, Note_on_c, 1, 76, 127
1, 384388, Note_off_c, 1, 55, 0
1, 384388, Note_off_c, 1, 82, 0
1, 384390, Note_on_c, 1, 81, 127
1, 384500, Note_on_c, 1, 57, 127
1, 384609, Note_off_c, 1, 81, 0
1, 384609, Note_off_c, 1, 57, 0
1, 384611, Note_on_c, 1, 59, 127
1, 384830, Note_off_c, 1, 59, 0
1, 384832, Note_on_c, 1, 79, 127
1, 384942, Note_on_c, 1, 61, 127
1, 385051, Note_off_c, 1, 79, 0
1, 385051, Note_off_c, 1, 61, 0
1, 385052, Note_on_c, 1, 62, 127
1, 385271, Note_off_c, 1, 62, 0
1, 385273, Note_on_c, 1, 77, 127
1, 385384, Note_on_c, 1, 60, 127
1, 385492, Note_off_c, 1, 76, 0
1, 385492, Note_off_c, 1, 77, 0
1, 385493, Note_off_c, 1, 60, 0
1, 385494, Note_on_c, 1, 58, 127
1, 385494, Note_on_c, 1, 79, 127
1, 385494, Note_on_c, 1, 74, 127
1, 385713, Note_off_c, 1, 58, 0
1, 385713, Note_off_c, 1, 79, 0
1, 385715, Note_on_c, 1, 77, 127
1, 385825, Note_on_c, 1, 57, 127
1, 385934, Note_off_c, 1, 77, 0
1, 385934, Note_off_c, 1, 57, 0
1, 385936, Note_on_c, 1, 55, 127
1, 385936, Note_on_c, 1, 76, 127
1, 386154, Note_off_c, 1, 74, 0
1, 386155, Note_off_c, 1, 55, 0
1, 386155, Note_off_c, 1, 76, 0
1, 386156, Note_on_c, 1, 55, 127
1, 386156, Note_on_c, 1, 74, 127
1, 386265, Note_off_c, 1, 55, 0
1, 386267, Note_on_c, 1, 53, 127
1, 386376, Note_off_c, 1, 53, 0
1, 386377, Note_on_c, 1, 76, 127
1, 386708, Note_on_c, 1, 58, 127
1, 386817, Note_off_c, 1, 74, 0
1, 386817, Note_off_c, 1, 58, 0
1, 386819, Note_on_c, 1, 57, 127
1, 386819, Note_on_c, 1, 72, 127
1, 387038, Note_off_c, 1, 76, 0
1, 387038, Note_off_c, 1, 57, 0
1, 387260, Note_on_c, 1, 81, 127
1, 387369, Note_off_c, 1, 81, 0
1, 387371, Note_on_c, 1, 79, 127
1, 387480, Note_off_c, 1, 79, 0
1, 387592, Note_on_c, 1, 52, 127
1, 387701, Note_off_c, 1, 52, 0
1, 387702, Note_on_c, 1, 54, 127
1, 387920, Note_off_c, 1, 54, 0
1, 388142, Note_off_c, 1, 72, 0
1, 388144, Note_on_c, 1, 70, 127
1, 388475, Note_on_c, 1, 77, 127
1, 388584, Note_off_c, 1, 77, 0
1, 388916, Note_on_c, 1, 50, 127
1, 389025, Note_off_c, 1, 50, 0
1, 389027, Note_on_c, 1, 73, 127
1, 389246, Note_off_c, 1, 70, 0
1, 389358, Note_on_c, 1, 69, 127
1, 389467, Note_off_c, 1, 69, 0
1, 389468, Note_on_c, 1, 67, 127
1, 389687, Note_off_c, 1, 67, 0
1, 389800, Note_on_c, 1, 65, 127
1, 389909, Note_off_c, 1, 65, 0
1, 389910, Note_on_c, 1, 64, 127
1, 390129, Note_off_c, 1, 64, 0
1, 390131, Note_on_c, 1, 45, 127
1, 390350, Note_off_c, 1, 73, 0
1, 390350, Note_off_c, 1, 45, 0
1, 390352, Note_on_c, 1, 65, 127
1, 390352, Note_on_c, 1, 50, 127
1, 390352, Note_on_c, 1, 74, 127
1, 390461, Note_off_c, 1, 65, 0
1, 390462, Note_on_c, 1, 69, 127
1, 390571, Note_off_c, 1, 50, 0
1, 390571, Note_off_c, 1, 69, 0
1, 390572, Note_on_c, 1, 62, 127
1, 390572, Note_on_c, 1, 57, 127
1, 390681, Note_off_c, 1, 62, 0
1, 390683, Note_on_c, 1, 64, 127
1, 390791, Note_off_c, 1, 57, 0
1, 390792, Note_off_c, 1, 64, 0
1, 390904, Note_on_c, 1, 67, 127
1, 391013, Note_off_c, 1, 67, 0
1, 391014, Note_on_c, 1, 60, 127
1, 391233, Note_off_c, 1, 60, 0
1, 391345, Note_on_c, 1, 58, 127
1, 391454, Note_off_c, 1, 58, 0
1, 391675, Note_off_c, 1, 74, 0
1, 391676, Note_on_c, 1, 69, 127
1, 391676, Note_on_c, 1, 72, 127
1, 391676, Note_on_c, 1, 57, 127
1, 391895, Note_off_c, 1, 69, 0
1, 391895, Note_off_c, 1, 72, 0
1, 392008, Note_on_c, 1, 71, 127
1, 392008, Note_on_c, 1, 74, 127
1, 392117, Note_off_c, 1, 71, 0
1, 392117, Note_off_c, 1, 74, 0
1, 392118, Note_on_c, 1, 76, 127
1, 392337, Note_off_c, 1, 57, 0
1, 392449, Note_on_c, 1, 70, 127
1, 392558, Note_off_c, 1, 76, 0
1, 392558, Note_off_c, 1, 70, 0
1, 392560, Note_on_c, 1, 69, 127
1, 392560, Note_on_c, 1, 62, 127
1, 392560, Note_on_c, 1, 78, 127
1, 392779, Note_off_c, 1, 69, 0
1, 392779, Note_off_c, 1, 62, 0
1, 392780, Note_on_c, 1, 74, 127
1, 392780, Note_on_c, 1, 50, 127
1, 392889, Note_off_c, 1, 74, 0
1, 392891, Note_on_c, 1, 72, 127
1, 392999, Note_off_c, 1, 50, 0
1, 393000, Note_off_c, 1, 78, 0
1, 393000, Note_off_c, 1, 72, 0
1, 393001, Note_on_c, 1, 70, 127
1, 393001, Note_on_c, 1, 55, 127
1, 393001, Note_on_c, 1, 79, 127
1, 393220, Note_off_c, 1, 70, 0
1, 393220, Note_off_c, 1, 55, 0
1, 393222, Note_on_c, 1, 74, 127
1, 393222, Note_on_c, 1, 43, 127
1, 393331, Note_off_c, 1, 74, 0
1, 393332, Note_on_c, 1, 72, 127
1, 393441, Note_off_c, 1, 79, 0
1, 393441, Note_off_c, 1, 43, 0
1, 393441, Note_off_c, 1, 72, 0
1, 393443, Note_on_c, 1, 70, 127
1, 393443, Note_on_c, 1, 46, 127
1, 393443, Note_on_c, 1, 79, 127
1, 393662, Note_off_c, 1, 70, 0
1, 393662, Note_off_c, 1, 46, 0
1, 393662, Note_off_c, 1, 79, 0
1, 393664, Note_on_c, 1, 70, 127
1, 393664, Note_on_c, 1, 79, 127
1, 393664, Note_on_c, 1, 50, 127
1, 393773, Note_off_c, 1, 70, 0
1, 393773, Note_off_c, 1, 79, 0
1, 393774, Note_on_c, 1, 69, 127
1, 393774, Note_on_c, 1, 78, 127
1, 393883, Note_off_c, 1, 50, 0
1, 393883, Note_off_c, 1, 69, 0
1, 393883, Note_off_c, 1, 78, 0
1, 393884, Note_on_c, 1, 70, 127
1, 393884, Note_on_c, 1, 55, 127
1, 393884, Note_on_c, 1, 79, 127
1, 393993, Note_off_c, 1, 70, 0
1, 393995, Note_on_c, 1, 72, 127
1, 394103, Note_off_c, 1, 55, 0
1, 394104, Note_off_c, 1, 72, 0
1, 394105, Note_on_c, 1, 74, 127
1, 394105, Note_on_c, 1, 53, 127
1, 394214, Note_off_c, 1, 74, 0
1, 394324, Note_off_c, 1, 53, 0
1, 394326, Note_on_c, 1, 67, 127
1, 394326, Note_on_c, 1, 52, 127
1, 394545, Note_off_c, 1, 79, 0
1, 394547, Note_on_c, 1, 76, 127
1, 394656, Note_off_c, 1, 67, 0
1, 394656, Note_off_c, 1, 76, 0
1, 394657, Note_on_c, 1, 69, 127
1, 394657, Note_on_c, 1, 77, 127
1, 394766, Note_off_c, 1, 69, 0
1, 394766, Note_off_c, 1, 77, 0
1, 394768, Note_on_c, 1, 71, 127
1, 394987, Note_off_c, 1, 52, 0
1, 395208, Note_off_c, 1, 71, 0
1, 395209, Note_on_c, 1, 57, 127
1, 395209, Note_on_c, 1, 76, 127
1, 395209, Note_on_c, 1, 73, 127
1, 395428, Note_off_c, 1, 57, 0
1, 395428, Note_off_c, 1, 76, 0
1, 395430, Note_on_c, 1, 81, 127
1, 395430, Note_on_c, 1, 45, 127
1, 395539, Note_off_c, 1, 81, 0
1, 395540, Note_on_c, 1, 79, 127
1, 395649, Note_off_c, 1, 73, 0
1, 395649, Note_off_c, 1, 45, 0
1, 395649, Note_off_c, 1, 79, 0
1, 395651, Note_on_c, 1, 50, 127
1, 395651, Note_on_c, 1, 77, 127
1, 395651, Note_on_c, 1, 74, 127
1, 395870, Note_off_c, 1, 50, 0
1, 395870, Note_off_c, 1, 77, 0
1, 395872, Note_on_c, 1, 81, 127
1, 395872, Note_on_c, 1, 38, 127
1, 395981, Note_off_c, 1, 81, 0
1, 395982, Note_on_c, 1, 79, 127
1, 396091, Note_off_c, 1, 74, 0
1, 396091, Note_off_c, 1, 38, 0
1, 396091, Note_off_c, 1, 79, 0
1, 396092, Note_on_c, 1, 74, 127
1, 396092, Note_on_c, 1, 41, 127
1, 396092, Note_on_c, 1, 77, 127
1, 396311, Note_off_c, 1, 74, 0
1, 396311, Note_off_c, 1, 41, 0
1, 396311, Note_off_c, 1, 77, 0
1, 396313, Note_on_c, 1, 74, 127
1, 396313, Note_on_c, 1, 77, 127
1, 396313, Note_on_c, 1, 45, 127
1, 396422, Note_off_c, 1, 74, 0
1, 396422, Note_off_c, 1, 77, 0
1, 396424, Note_on_c, 1, 73, 127
1, 396424, Note_on_c, 1, 76, 127
1, 396532, Note_off_c, 1, 45, 0
1, 396533, Note_off_c, 1, 73, 0
1, 396533, Note_off_c, 1, 76, 0
1, 396534, Note_on_c, 1, 77, 127
1, 396534, Note_on_c, 1, 50, 127
1, 396534, Note_on_c, 1, 74, 127
1, 396643, Note_off_c, 1, 77, 0
1, 396644, Note_on_c, 1, 79, 127
1, 396753, Note_off_c, 1, 50, 0
1, 396753, Note_off_c, 1, 79, 0
1, 396755, Note_on_c, 1, 81, 127
1, 396755, Note_on_c, 1, 52, 127
1, 396864, Note_off_c, 1, 81, 0
1, 396971, Note_off_c, 1, 74, 0
1, 396974, Note_off_c, 1, 52, 0
1, 396976, Note_on_c, 1, 53, 127
1, 396976, Note_on_c, 1, 74, 127
1, 397086, Note_on_c, 1, 69, 127
1, 397195, Note_off_c, 1, 53, 0
1, 397195, Note_off_c, 1, 69, 0
1, 397196, Note_on_c, 1, 71, 127
1, 397196, Note_on_c, 1, 54, 127
1, 397305, Note_off_c, 1, 71, 0
1, 397307, Note_on_c, 1, 72, 127
1, 397415, Note_off_c, 1, 54, 0
1, 397416, Note_off_c, 1, 72, 0
1, 397417, Note_on_c, 1, 55, 127
1, 397638, Note_on_c, 1, 67, 127
1, 397747, Note_off_c, 1, 67, 0
1, 397748, Note_on_c, 1, 65, 127
1, 397857, Note_off_c, 1, 55, 0
1, 397857, Note_off_c, 1, 65, 0
1, 397859, Note_on_c, 1, 56, 127
1, 397859, Note_on_c, 1, 64, 127
1, 397968, Note_off_c, 1, 74, 0
1, 397969, Note_on_c, 1, 68, 127
1, 398078, Note_off_c, 1, 68, 0
1, 398299, Note_off_c, 1, 56, 0
1, 398300, Note_on_c, 1, 57, 127
1, 398411, Note_on_c, 1, 81, 127
1, 398520, Note_off_c, 1, 81, 0
1, 398521, Note_on_c, 1, 79, 127
1, 398630, Note_off_c, 1, 79, 0
1, 398632, Note_on_c, 1, 77, 127
1, 398740, Note_off_c, 1, 57, 0
1, 398741, Note_off_c, 1, 77, 0
1, 398742, Note_on_c, 1, 76, 127
1, 398851, Note_off_c, 1, 76, 0
1, 399404, Note_on_c, 1, 66, 127
1, 399456, Note_off_c, 1, 64, 0
1, 399513, Note_off_c, 1, 66, 0
1, 399625, Note_on_c, 1, 48, 127
1, 399625, Note_on_c, 1, 69, 127
1, 399736, Note_on_c, 1, 64, 127
1, 399844, Note_off_c, 1, 48, 0
1, 399845, Note_off_c, 1, 64, 0
1, 399846, Note_on_c, 1, 66, 127
1, 399846, Note_on_c, 1, 49, 127
1, 399955, Note_off_c, 1, 66, 0
1, 399956, Note_on_c, 1, 67, 127
1, 400065, Note_off_c, 1, 49, 0
1, 400065, Note_off_c, 1, 67, 0
1, 400067, Note_on_c, 1, 50, 127
1, 400288, Note_on_c, 1, 62, 127
1, 400397, Note_off_c, 1, 62, 0
1, 400398, Note_on_c, 1, 60, 127
1, 400507, Note_off_c, 1, 50, 0
1, 400507, Note_off_c, 1, 60, 0
1, 400508, Note_on_c, 1, 51, 127
1, 400508, Note_on_c, 1, 59, 127
1, 400617, Note_off_c, 1, 69, 0
1, 400619, Note_on_c, 1, 63, 127
1, 400728, Note_off_c, 1, 63, 0
1, 400948, Note_off_c, 1, 51, 0
1, 400950, Note_on_c, 1, 52, 127
1, 401060, Note_on_c, 1, 76, 127
1, 401169, Note_off_c, 1, 76, 0
1, 401171, Note_on_c, 1, 74, 127
1, 401280, Note_off_c, 1, 74, 0
1, 401281, Note_on_c, 1, 72, 127
1, 401390, Note_off_c, 1, 52, 0
1, 401390, Note_off_c, 1, 72, 0
1, 401392, Note_on_c, 1, 71, 127
1, 401501, Note_off_c, 1, 71, 0
1, 401830, Note_off_c, 1, 59, 0
1, 401833, Note_on_c, 1, 64, 127
1, 401833, Note_on_c, 1, 52, 127
1, 401942, Note_off_c, 1, 64, 0
1, 401944, Note_on_c, 1, 62, 127
1, 402052, Note_off_c, 1, 52, 0
1, 402053, Note_off_c, 1, 62, 0
1, 402054, Note_on_c, 1, 61, 127
1, 402054, Note_on_c, 1, 54, 127
1, 402163, Note_off_c, 1, 61, 0
1, 402164, Note_on_c, 1, 59, 127
1, 402273, Note_off_c, 1, 54, 0
1, 402275, Note_on_c, 1, 71, 127
1, 402275, Note_on_c, 1, 55, 127
1, 402356, Note_on_c, 1, 70, 127
1, 402357, Note_off_c, 1, 71, 0
1, 402382, Note_off_c, 1, 59, 0
1, 402438, Note_off_c, 1, 70, 0
1, 402494, Note_off_c, 1, 55, 0
1, 402937, Note_on_c, 1, 52, 127
1, 403156, Note_off_c, 1, 52, 0
1, 403379, Note_on_c, 1, 50, 127
1, 403414, Note_on_c, 1, 68, 127
1, 403496, Note_off_c, 1, 68, 0
1, 403598, Note_off_c, 1, 50, 0
1, 403600, Note_on_c, 1, 50, 127
1, 403600, Note_on_c, 1, 71, 127
1, 403819, Note_off_c, 1, 50, 0
1, 403820, Note_on_c, 1, 66, 127
1, 403820, Note_on_c, 1, 49, 127
1, 403929, Note_off_c, 1, 66, 0
1, 403931, Note_on_c, 1, 69, 127
1, 404039, Note_off_c, 1, 49, 0
1, 404040, Note_off_c, 1, 69, 0
1, 404041, Note_on_c, 1, 67, 127
1, 404041, Note_on_c, 1, 52, 127
1, 404260, Note_off_c, 1, 67, 0
1, 404260, Note_off_c, 1, 52, 0
1, 404483, Note_on_c, 1, 64, 127
1, 404702, Note_off_c, 1, 64, 0
1, 404704, Note_on_c, 1, 47, 127
1, 404814, Note_on_c, 1, 62, 127
1, 404922, Note_off_c, 1, 71, 0
1, 404923, Note_off_c, 1, 47, 0
1, 404923, Note_off_c, 1, 62, 0
1, 404924, Note_on_c, 1, 49, 127
1, 404924, Note_on_c, 1, 64, 127
1, 405143, Note_off_c, 1, 49, 0
1, 405145, Note_on_c, 1, 76, 127
1, 405145, Note_on_c, 1, 47, 127
1, 405254, Note_off_c, 1, 76, 0
1, 405255, Note_off_c, 1, 64, 0
1, 405256, Note_on_c, 1, 79, 127
1, 405364, Note_off_c, 1, 47, 0
1, 405365, Note_off_c, 1, 79, 0
1, 405366, Note_on_c, 1, 46, 127
1, 405366, Note_on_c, 1, 78, 127
1, 405585, Note_off_c, 1, 46, 0
1, 405585, Note_off_c, 1, 78, 0
1, 405587, Note_on_c, 1, 78, 127
1, 405587, Note_on_c, 1, 49, 127
1, 405696, Note_off_c, 1, 78, 0
1, 405697, Note_on_c, 1, 76, 127
1, 405806, Note_off_c, 1, 49, 0
1, 405806, Note_off_c, 1, 76, 0
1, 405808, Note_on_c, 1, 42, 127
1, 405808, Note_on_c, 1, 74, 127
1, 405808, Note_on_c, 1, 66, 127
1, 406027, Note_off_c, 1, 42, 0
1, 406027, Note_off_c, 1, 74, 0
1, 406028, Note_on_c, 1, 46, 127
1, 406139, Note_on_c, 1, 73, 127
1, 406247, Note_off_c, 1, 46, 0
1, 406248, Note_off_c, 1, 73, 0
1, 406249, Note_on_c, 1, 47, 127
1, 406470, Note_on_c, 1, 71, 127
1, 406579, Note_off_c, 1, 71, 0
1, 406690, Note_off_c, 1, 66, 0
1, 406910, Note_off_c, 1, 47, 0
1, 406912, Note_on_c, 1, 47, 127
1, 406912, Note_on_c, 1, 74, 127
1, 407021, Note_off_c, 1, 47, 0
1, 407021, Note_off_c, 1, 74, 0
1, 407022, Note_on_c, 1, 49, 127
1, 407022, Note_on_c, 1, 76, 127
1, 407131, Note_off_c, 1, 49, 0
1, 407131, Note_off_c, 1, 76, 0
1, 407132, Note_on_c, 1, 50, 127
1, 407132, Note_on_c, 1, 78, 127
1, 407351, Note_off_c, 1, 50, 0
1, 407351, Note_off_c, 1, 78, 0
1, 407353, Note_on_c, 1, 50, 127
1, 407353, Note_on_c, 1, 78, 127
1, 407462, Note_off_c, 1, 50, 0
1, 407462, Note_off_c, 1, 78, 0
1, 407464, Note_on_c, 1, 52, 127
1, 407464, Note_on_c, 1, 80, 127
1, 407573, Note_off_c, 1, 52, 0
1, 407573, Note_off_c, 1, 80, 0
1, 407574, Note_on_c, 1, 54, 127
1, 407574, Note_on_c, 1, 81, 127
1, 407795, Note_on_c, 1, 66, 127
1, 407904, Note_off_c, 1, 66, 0
1, 407905, Note_off_c, 1, 54, 0
1, 407905, Note_on_c, 1, 68, 127
1, 408014, Note_off_c, 1, 68, 0
1, 408016, Note_on_c, 1, 69, 127
1, 408235, Note_off_c, 1, 81, 0
1, 408235, Note_off_c, 1, 69, 0
1, 408236, Note_on_c, 1, 69, 127
1, 408236, Note_on_c, 1, 81, 127
1, 408345, Note_off_c, 1, 69, 0
1, 408345, Note_off_c, 1, 81, 0
1, 408347, Note_on_c, 1, 71, 127
1, 408347, Note_on_c, 1, 80, 127
1, 408456, Note_off_c, 1, 71, 0
1, 408456, Note_off_c, 1, 80, 0
1, 408457, Note_on_c, 1, 73, 127
1, 408457, Note_on_c, 1, 81, 127
1, 408676, Note_off_c, 1, 73, 0
1, 408676, Note_off_c, 1, 81, 0
1, 408678, Note_on_c, 1, 73, 127
1, 408678, Note_on_c, 1, 83, 127
1, 408787, Note_off_c, 1, 73, 0
1, 408787, Note_off_c, 1, 83, 0
1, 408788, Note_on_c, 1, 75, 127
1, 408788, Note_on_c, 1, 81, 127
1, 408897, Note_off_c, 1, 75, 0
1, 408897, Note_off_c, 1, 81, 0
1, 408899, Note_on_c, 1, 76, 127
1, 408899, Note_on_c, 1, 80, 127
1, 409118, Note_off_c, 1, 76, 0
1, 409120, Note_on_c, 1, 52, 127
1, 409120, Note_on_c, 1, 71, 127
1, 409229, Note_off_c, 1, 52, 0
1, 409230, Note_on_c, 1, 54, 127
1, 409339, Note_off_c, 1, 71, 0
1, 409339, Note_off_c, 1, 54, 0
1, 409340, Note_on_c, 1, 56, 127
1, 409449, Note_off_c, 1, 56, 0
1, 409560, Note_off_c, 1, 80, 0
1, 409561, Note_on_c, 1, 76, 127
1, 409561, Note_on_c, 1, 56, 127
1, 409561, Note_on_c, 1, 80, 127
1, 409670, Note_off_c, 1, 76, 0
1, 409670, Note_off_c, 1, 56, 0
1, 409670, Note_off_c, 1, 80, 0
1, 409672, Note_on_c, 1, 75, 127
1, 409672, Note_on_c, 1, 57, 127
1, 409672, Note_on_c, 1, 78, 127
1, 409781, Note_off_c, 1, 75, 0
1, 409781, Note_off_c, 1, 57, 0
1, 409781, Note_off_c, 1, 78, 0
1, 409782, Note_on_c, 1, 59, 127
1, 409782, Note_on_c, 1, 79, 127
1, 409782, Note_on_c, 1, 76, 127
1, 409891, Note_off_c, 1, 59, 0
1, 409892, Note_on_c, 1, 52, 127
1, 410001, Note_off_c, 1, 79, 0
1, 410001, Note_off_c, 1, 52, 0
1, 410003, Note_on_c, 1, 81, 127
1, 410112, Note_off_c, 1, 81, 0
1, 410113, Note_on_c, 1, 61, 127
1, 410222, Note_off_c, 1, 61, 0
1, 410224, Note_on_c, 1, 62, 127
1, 410224, Note_on_c, 1, 78, 127
1, 410443, Note_off_c, 1, 76, 0
1, 410443, Note_off_c, 1, 62, 0
1, 410444, Note_on_c, 1, 50, 127
1, 410444, Note_on_c, 1, 69, 127
1, 410553, Note_off_c, 1, 50, 0
1, 410663, Note_off_c, 1, 69, 0
1, 410665, Note_on_c, 1, 54, 127
1, 410665, Note_on_c, 1, 74, 127
1, 410774, Note_off_c, 1, 54, 0
1, 410884, Note_off_c, 1, 74, 0
1, 410885, Note_off_c, 1, 78, 0
1, 410886, Note_on_c, 1, 74, 127
1, 410886, Note_on_c, 1, 54, 127
1, 410886, Note_on_c, 1, 78, 127
1, 410995, Note_off_c, 1, 74, 0
1, 410995, Note_off_c, 1, 54, 0
1, 410995, Note_off_c, 1, 78, 0
1, 410996, Note_on_c, 1, 73, 127
1, 410996, Note_on_c, 1, 55, 127
1, 410996, Note_on_c, 1, 76, 127
1, 411105, Note_off_c, 1, 73, 0
1, 411105, Note_off_c, 1, 55, 0
1, 411105, Note_off_c, 1, 76, 0
1, 411107, Note_on_c, 1, 57, 127
1, 411107, Note_on_c, 1, 77, 127
1, 411107, Note_on_c, 1, 74, 127
1, 411216, Note_off_c, 1, 57, 0
1, 411217, Note_on_c, 1, 50, 127
1, 411326, Note_off_c, 1, 77, 0
1, 411326, Note_off_c, 1, 50, 0
1, 411328, Note_on_c, 1, 79, 127
1, 411437, Note_off_c, 1, 79, 0
1, 411438, Note_on_c, 1, 59, 127
1, 411547, Note_off_c, 1, 59, 0
1, 411548, Note_on_c, 1, 60, 127
1, 411548, Note_on_c, 1, 76, 127
1, 411657, Note_off_c, 1, 60, 0
1, 411659, Note_on_c, 1, 62, 127
1, 411768, Note_off_c, 1, 74, 0
1, 411768, Note_off_c, 1, 62, 0
1, 411769, Note_on_c, 1, 64, 127
1, 411769, Note_on_c, 1, 67, 127
1, 411878, Note_off_c, 1, 64, 0
1, 411988, Note_off_c, 1, 67, 0
1, 411990, Note_on_c, 1, 69, 127
1, 412209, Note_off_c, 1, 69, 0
1, 412211, Note_on_c, 1, 71, 127
1, 412430, Note_off_c, 1, 71, 0
1, 412432, Note_on_c, 1, 72, 127
1, 412650, Note_off_c, 1, 76, 0
1, 412763, Note_on_c, 1, 55, 127
1, 412872, Note_off_c, 1, 55, 0
1, 412873, Note_on_c, 1, 54, 127
1, 412873, Note_on_c, 1, 75, 127
1, 412982, Note_off_c, 1, 54, 0
1, 413093, Note_off_c, 1, 72, 0
1, 413094, Note_on_c, 1, 63, 127
1, 413094, Note_on_c, 1, 66, 127
1, 413203, Note_off_c, 1, 63, 0
1, 413204, Note_on_c, 1, 61, 127
1, 413313, Note_off_c, 1, 66, 0
1, 413313, Note_off_c, 1, 61, 0
1, 413315, Note_on_c, 1, 68, 127
1, 413534, Note_off_c, 1, 68, 0
1, 413756, Note_on_c, 1, 56, 127
1, 413865, Note_off_c, 1, 56, 0
1, 413975, Note_off_c, 1, 75, 0
1, 414198, Note_on_c, 1, 52, 127
1, 414198, Note_on_c, 1, 73, 127
1, 414307, Note_off_c, 1, 52, 0
1, 415300, Note_off_c, 1, 73, 0
1, 415523, Note_on_c, 1, 51, 127
1, 415963, Note_off_c, 1, 51, 0
1, 415964, Note_on_c, 1, 67, 127
1, 415964, Note_on_c, 1, 52, 127
1, 415964, Note_on_c, 1, 72, 127
1, 416073, Note_off_c, 1, 67, 0
1, 416075, Note_on_c, 1, 69, 127
1, 416183, Note_off_c, 1, 52, 0
1, 416184, Note_off_c, 1, 69, 0
1, 416185, Note_on_c, 1, 71, 127
1, 416185, Note_on_c, 1, 51, 127
1, 416294, Note_off_c, 1, 71, 0
1, 416404, Note_off_c, 1, 72, 0
1, 416404, Note_off_c, 1, 51, 0
1, 416406, Note_on_c, 1, 67, 127
1, 416406, Note_on_c, 1, 52, 127
1, 416406, Note_on_c, 1, 73, 127
1, 416515, Note_off_c, 1, 67, 0
1, 416516, Note_on_c, 1, 66, 127
1, 416625, Note_off_c, 1, 52, 0
1, 416625, Note_off_c, 1, 66, 0
1, 416627, Note_on_c, 1, 64, 127
1, 416627, Note_on_c, 1, 46, 127
1, 416736, Note_off_c, 1, 64, 0
1, 416846, Note_off_c, 1, 73, 0
1, 416846, Note_off_c, 1, 46, 0
1, 416848, Note_on_c, 1, 66, 127
1, 416848, Note_on_c, 1, 74, 127
1, 416848, Note_on_c, 1, 47, 127
1, 416957, Note_off_c, 1, 66, 0
1, 416958, Note_on_c, 1, 71, 127
1, 417067, Note_off_c, 1, 71, 0
1, 417068, Note_on_c, 1, 69, 127
1, 417177, Note_off_c, 1, 69, 0
1, 417179, Note_on_c, 1, 67, 127
1, 417288, Note_off_c, 1, 74, 0
1, 417288, Note_off_c, 1, 67, 0
1, 417510, Note_on_c, 1, 64, 127
1, 417510, Note_on_c, 1, 73, 127
1, 417619, Note_off_c, 1, 64, 0
1, 417620, Note_on_c, 1, 70, 127
1, 417729, Note_off_c, 1, 73, 0
1, 417729, Note_off_c, 1, 70, 0
1, 418171, Note_off_c, 1, 47, 0
1, 418172, Note_on_c, 1, 62, 127
1, 418172, Note_on_c, 1, 59, 127
1, 418172, Note_on_c, 1, 66, 127
1, 418172, Note_on_c, 1, 47, 127
1, 418281, Note_off_c, 1, 62, 0
1, 418283, Note_on_c, 1, 64, 127
1, 418392, Note_off_c, 1, 64, 0
1, 418504, Note_on_c, 1, 61, 127
1, 418560, Note_off_c, 1, 59, 0
1, 418612, Note_off_c, 1, 66, 0
1, 418613, Note_off_c, 1, 61, 0
1, 418614, Note_on_c, 1, 67, 127
1, 419054, Note_off_c, 1, 67, 0
1, 419056, Note_on_c, 1, 68, 127
1, 419166, Note_on_c, 1, 65, 127
1, 419275, Note_off_c, 1, 65, 0
1, 419495, Note_off_c, 1, 47, 0
1, 419496, Note_off_c, 1, 68, 0
1, 419497, Note_on_c, 1, 61, 127
1, 419497, Note_on_c, 1, 69, 127
1, 419497, Note_on_c, 1, 47, 127
1, 419497, Note_on_c, 1, 59, 127
1, 419606, Note_off_c, 1, 61, 0
1, 419608, Note_on_c, 1, 64, 127
1, 419717, Note_off_c, 1, 64, 0
1, 419718, Note_on_c, 1, 62, 127
1, 419827, Note_off_c, 1, 62, 0
1, 419937, Note_off_c, 1, 69, 0
1, 419939, Note_on_c, 1, 66, 127
1, 420048, Note_off_c, 1, 66, 0
1, 420049, Note_on_c, 1, 67, 127
1, 420158, Note_off_c, 1, 67, 0
1, 420160, Note_on_c, 1, 68, 127
1, 420379, Note_off_c, 1, 68, 0
1, 420380, Note_on_c, 1, 63, 127
1, 420489, Note_off_c, 1, 63, 0
1, 420601, Note_on_c, 1, 71, 127
1, 420820, Note_off_c, 1, 47, 0
1, 420820, Note_off_c, 1, 59, 0
1, 420820, Note_off_c, 1, 71, 0
1, 420822, Note_on_c, 1, 47, 127
1, 420822, Note_on_c, 1, 54, 127
1, 420822, Note_on_c, 1, 51, 127
1, 420822, Note_on_c, 1, 59, 127
1, 420822, Note_on_c, 1, 72, 127
1, 420822, Note_on_c, 1, 69, 127
1, 421041, Note_off_c, 1, 47, 0
1, 421041, Note_off_c, 1, 54, 0
1, 421041, Note_off_c, 1, 51, 0
1, 421041, Note_off_c, 1, 59, 0
1, 421153, Note_on_c, 1, 57, 127
1, 421262, Note_off_c, 1, 72, 0
1, 421262, Note_off_c, 1, 69, 0
1, 421262, Note_off_c, 1, 57, 0
1, 421264, Note_on_c, 1, 55, 127
1, 421264, Note_on_c, 1, 64, 127
1, 421264, Note_on_c, 1, 71, 127
1, 421264, Note_on_c, 1, 67, 127
1, 421483, Note_off_c, 1, 55, 0
1, 421595, Note_on_c, 1, 54, 127
1, 421704, Note_off_c, 1, 64, 0
1, 421704, Note_off_c, 1, 71, 0
1, 421704, Note_off_c, 1, 67, 0
1, 421704, Note_off_c, 1, 54, 0
1, 421705, Note_on_c, 1, 52, 127
1, 421705, Note_on_c, 1, 59, 127
1, 421705, Note_on_c, 1, 66, 127
1, 421705, Note_on_c, 1, 69, 127
1, 421924, Note_off_c, 1, 52, 0
1, 422036, Note_on_c, 1, 51, 127
1, 422145, Note_off_c, 1, 59, 0
1, 422145, Note_off_c, 1, 66, 0
1, 422145, Note_off_c, 1, 69, 0
1, 422145, Note_off_c, 1, 51, 0
1, 422147, Note_on_c, 1, 52, 127
1, 422147, Note_on_c, 1, 67, 127
1, 422147, Note_on_c, 1, 64, 127
1, 422366, Note_off_c, 1, 52, 0
1, 422478, Note_on_c, 1, 50, 127
1, 422587, Note_off_c, 1, 67, 0
1, 422587, Note_off_c, 1, 50, 0
1, 422588, Note_on_c, 1, 48, 127
1, 422588, Note_on_c, 1, 69, 127
1, 422807, Note_off_c, 1, 48, 0
1, 422807, Note_off_c, 1, 69, 0
1, 422920, Note_on_c, 1, 47, 127
1, 423029, Note_off_c, 1, 47, 0
1, 423030, Note_on_c, 1, 45, 127
1, 423030, Note_on_c, 1, 66, 127
1, 423220, Note_off_c, 1, 64, 0
1, 423249, Note_off_c, 1, 45, 0
1, 423249, Note_off_c, 1, 66, 0
1, 423251, Note_on_c, 1, 45, 127
1, 423251, Note_on_c, 1, 64, 127
1, 423360, Note_off_c, 1, 45, 0
1, 423361, Note_on_c, 1, 43, 127
1, 423470, Note_off_c, 1, 43, 0
1, 423472, Note_on_c, 1, 66, 127
1, 423581, Note_off_c, 1, 66, 0
1, 423582, Note_on_c, 1, 67, 127
1, 423691, Note_off_c, 1, 67, 0
1, 423692, Note_on_c, 1, 69, 127
1, 423801, Note_off_c, 1, 69, 0
1, 423803, Note_on_c, 1, 71, 127
1, 423912, Note_off_c, 1, 71, 0
1, 423913, Note_on_c, 1, 72, 127
1, 424022, Note_off_c, 1, 72, 0
1, 424024, Note_on_c, 1, 42, 127
1, 424133, Note_off_c, 1, 42, 0
1, 424353, Note_off_c, 1, 64, 0
1, 424355, Note_on_c, 1, 63, 127
1, 424355, Note_on_c, 1, 47, 127
1, 424792, Note_off_c, 1, 63, 0
1, 424795, Note_off_c, 1, 47, 0
1, 424796, Note_on_c, 1, 40, 127
1, 424796, Note_on_c, 1, 67, 127
1, 424907, Note_on_c, 1, 64, 127
1, 425016, Note_off_c, 1, 64, 0
1, 425017, Note_on_c, 1, 59, 127
1, 425126, Note_off_c, 1, 59, 0
1, 425128, Note_on_c, 1, 55, 127
1, 425237, Note_off_c, 1, 55, 0
1, 425238, Note_on_c, 1, 52, 127
1, 425346, Note_off_c, 1, 40, 0
1, 425678, Note_off_c, 1, 67, 0
1, 425680, Note_on_c, 1, 49, 127
1, 425790, Note_on_c, 1, 57, 127
1, 425899, Note_off_c, 1, 57, 0
1, 426006, Note_off_c, 1, 52, 0
1, 426120, Note_off_c, 1, 49, 0
1, 426121, Note_on_c, 1, 50, 127
1, 426121, Note_on_c, 1, 66, 127
1, 426232, Note_on_c, 1, 62, 127
1, 426341, Note_off_c, 1, 62, 0
1, 426342, Note_on_c, 1, 57, 127
1, 426451, Note_off_c, 1, 57, 0
1, 426452, Note_on_c, 1, 54, 127
1, 426528, Note_off_c, 1, 50, 0
1, 426561, Note_off_c, 1, 54, 0
1, 426671, Note_off_c, 1, 66, 0
1, 426894, Note_on_c, 1, 50, 127
1, 427004, Note_on_c, 1, 47, 127
1, 427113, Note_off_c, 1, 50, 0
1, 427115, Note_on_c, 1, 55, 127
1, 427224, Note_off_c, 1, 55, 0
1, 427225, Note_on_c, 1, 62, 127
1, 427334, Note_off_c, 1, 62, 0
1, 427336, Note_on_c, 1, 65, 127
1, 427444, Note_off_c, 1, 47, 0
1, 427445, Note_off_c, 1, 65, 0
1, 427446, Note_on_c, 1, 64, 127
1, 427446, Note_on_c, 1, 48, 127
1, 427555, Note_off_c, 1, 64, 0
1, 427556, Note_on_c, 1, 60, 127
1, 427665, Note_off_c, 1, 60, 0
1, 427777, Note_on_c, 1, 67, 127
1, 427886, Note_off_c, 1, 67, 0
1, 427888, Note_on_c, 1, 72, 127
1, 427993, Note_off_c, 1, 48, 0
1, 428219, Note_on_c, 1, 57, 127
1, 428328, Note_off_c, 1, 57, 0
1, 428329, Note_on_c, 1, 54, 127
1, 428438, Note_off_c, 1, 72, 0
1, 428440, Note_on_c, 1, 62, 127
1, 428548, Note_off_c, 1, 54, 0
1, 428549, Note_off_c, 1, 62, 0
1, 428550, Note_on_c, 1, 69, 127
1, 428550, Note_on_c, 1, 50, 127
1, 428659, Note_off_c, 1, 69, 0
1, 428660, Note_on_c, 1, 72, 127
1, 428769, Note_off_c, 1, 50, 0
1, 428769, Note_off_c, 1, 72, 0
1, 428771, Note_on_c, 1, 71, 127
1, 428771, Note_on_c, 1, 55, 127
1, 428880, Note_off_c, 1, 71, 0
1, 428881, Note_on_c, 1, 62, 127
1, 428990, Note_off_c, 1, 62, 0
1, 428992, Note_on_c, 1, 67, 127
1, 429101, Note_off_c, 1, 67, 0
1, 429212, Note_on_c, 1, 74, 127
1, 429321, Note_off_c, 1, 55, 0
1, 429323, Note_on_c, 1, 65, 127
1, 429432, Note_off_c, 1, 65, 0
1, 429544, Note_on_c, 1, 59, 127
1, 429653, Note_off_c, 1, 59, 0
1, 429654, Note_on_c, 1, 56, 127
1, 429762, Note_off_c, 1, 74, 0
1, 429764, Note_on_c, 1, 64, 127
1, 429873, Note_off_c, 1, 56, 0
1, 429873, Note_off_c, 1, 64, 0
1, 429875, Note_on_c, 1, 71, 127
1, 429875, Note_on_c, 1, 52, 127
1, 429984, Note_off_c, 1, 71, 0
1, 429985, Note_on_c, 1, 74, 127
1, 430094, Note_off_c, 1, 52, 0
1, 430094, Note_off_c, 1, 74, 0
1, 430096, Note_on_c, 1, 74, 127
1, 430096, Note_on_c, 1, 57, 127
1, 430206, Note_on_c, 1, 69, 127
1, 430240, Note_off_c, 1, 74, 0
1, 430240, Note_on_c, 1, 72, 127
1, 430315, Note_off_c, 1, 69, 0
1, 430316, Note_on_c, 1, 67, 127
1, 430336, Note_off_c, 1, 72, 0
1, 430339, Note_on_c, 1, 71, 127
1, 430425, Note_off_c, 1, 67, 0
1, 430427, Note_on_c, 1, 65, 127
1, 430435, Note_off_c, 1, 71, 0
1, 430536, Note_off_c, 1, 65, 0
1, 430537, Note_on_c, 1, 64, 127
1, 430646, Note_off_c, 1, 64, 0
1, 430648, Note_on_c, 1, 62, 127
1, 430757, Note_off_c, 1, 62, 0
1, 430758, Note_on_c, 1, 60, 127
1, 430867, Note_off_c, 1, 60, 0
1, 430868, Note_on_c, 1, 59, 127
1, 430977, Note_off_c, 1, 59, 0
1, 430978, Note_off_c, 1, 57, 0
1, 430979, Note_on_c, 1, 74, 127
1, 430979, Note_on_c, 1, 57, 127
1, 431051, Note_off_c, 1, 74, 0
1, 431052, Note_on_c, 1, 72, 127
1, 431088, Note_off_c, 1, 57, 0
1, 431089, Note_on_c, 1, 60, 127
1, 431124, Note_off_c, 1, 72, 0
1, 431198, Note_off_c, 1, 60, 0
1, 431200, Note_on_c, 1, 72, 127
1, 431200, Note_on_c, 1, 55, 127
1, 431272, Note_off_c, 1, 72, 0
1, 431273, Note_on_c, 1, 74, 127
1, 431309, Note_off_c, 1, 55, 0
1, 431310, Note_on_c, 1, 60, 127
1, 431345, Note_off_c, 1, 74, 0
1, 431419, Note_off_c, 1, 60, 0
1, 431420, Note_on_c, 1, 74, 127
1, 431420, Note_on_c, 1, 54, 127
1, 431492, Note_off_c, 1, 74, 0
1, 431494, Note_on_c, 1, 72, 127
1, 431529, Note_off_c, 1, 54, 0
1, 431531, Note_on_c, 1, 57, 127
1, 431566, Note_off_c, 1, 72, 0
1, 431640, Note_off_c, 1, 57, 0
1, 431641, Note_on_c, 1, 72, 127
1, 431641, Note_on_c, 1, 58, 127
1, 431713, Note_off_c, 1, 72, 0
1, 431715, Note_on_c, 1, 74, 127
1, 431750, Note_off_c, 1, 58, 0
1, 431752, Note_on_c, 1, 62, 127
1, 431787, Note_off_c, 1, 74, 0
1, 431861, Note_off_c, 1, 62, 0
1, 431862, Note_on_c, 1, 74, 127
1, 431862, Note_on_c, 1, 60, 127
1, 431934, Note_off_c, 1, 74, 0
1, 431936, Note_on_c, 1, 72, 127
1, 431971, Note_off_c, 1, 60, 0
1, 431972, Note_on_c, 1, 58, 127
1, 432008, Note_off_c, 1, 72, 0
1, 432081, Note_off_c, 1, 58, 0
1, 432083, Note_on_c, 1, 72, 127
1, 432083, Note_on_c, 1, 57, 127
1, 432155, Note_off_c, 1, 72, 0
1, 432156, Note_on_c, 1, 74, 127
1, 432192, Note_off_c, 1, 57, 0
1, 432193, Note_on_c, 1, 55, 127
1, 432228, Note_off_c, 1, 74, 0
1, 432302, Note_off_c, 1, 55, 0
1, 432304, Note_on_c, 1, 74, 127
1, 432304, Note_on_c, 1, 54, 127
1, 432376, Note_off_c, 1, 74, 0
1, 432377, Note_on_c, 1, 72, 127
1, 432413, Note_off_c, 1, 54, 0
1, 432414, Note_on_c, 1, 57, 127
1, 432449, Note_off_c, 1, 72, 0
1, 432523, Note_off_c, 1, 57, 0
1, 432524, Note_on_c, 1, 52, 127
1, 432524, Note_on_c, 1, 72, 127
1, 432633, Note_off_c, 1, 52, 0
1, 432635, Note_on_c, 1, 57, 127
1, 432744, Note_off_c, 1, 57, 0
1, 432745, Note_on_c, 1, 50, 127
1, 432854, Note_off_c, 1, 50, 0
1, 432855, Note_off_c, 1, 72, 0
1, 432856, Note_on_c, 1, 54, 127
1, 432856, Note_on_c, 1, 69, 127
1, 432965, Note_off_c, 1, 54, 0
1, 432965, Note_off_c, 1, 69, 0
1, 432966, Note_on_c, 1, 55, 127
1, 432966, Note_on_c, 1, 70, 127
1, 433075, Note_off_c, 1, 55, 0
1, 433075, Note_off_c, 1, 70, 0
1, 433076, Note_on_c, 1, 58, 127
1, 433076, Note_on_c, 1, 74, 127
1, 433185, Note_off_c, 1, 58, 0
1, 433185, Note_off_c, 1, 74, 0
1, 433187, Note_on_c, 1, 57, 127
1, 433187, Note_on_c, 1, 72, 127
1, 433296, Note_off_c, 1, 57, 0
1, 433296, Note_off_c, 1, 72, 0
1, 433297, Note_on_c, 1, 55, 127
1, 433297, Note_on_c, 1, 70, 127
1, 433406, Note_off_c, 1, 55, 0
1, 433406, Note_off_c, 1, 70, 0
1, 433408, Note_on_c, 1, 54, 127
1, 433408, Note_on_c, 1, 69, 127
1, 433517, Note_off_c, 1, 54, 0
1, 433517, Note_off_c, 1, 69, 0
1, 433518, Note_on_c, 1, 52, 127
1, 433518, Note_on_c, 1, 67, 127
1, 433627, Note_off_c, 1, 52, 0
1, 433627, Note_off_c, 1, 67, 0
1, 433628, Note_on_c, 1, 50, 127
1, 433628, Note_on_c, 1, 66, 127
1, 433737, Note_off_c, 1, 50, 0
1, 433737, Note_off_c, 1, 66, 0
1, 433739, Note_on_c, 1, 54, 127
1, 433739, Note_on_c, 1, 69, 127
1, 433848, Note_off_c, 1, 54, 0
1, 433848, Note_off_c, 1, 69, 0
1, 433849, Note_on_c, 1, 48, 127
1, 433849, Note_on_c, 1, 63, 127
1, 433958, Note_off_c, 1, 48, 0
1, 433958, Note_off_c, 1, 63, 0
1, 433960, Note_on_c, 1, 54, 127
1, 433960, Note_on_c, 1, 69, 127
1, 434069, Note_off_c, 1, 54, 0
1, 434069, Note_off_c, 1, 69, 0
1, 434070, Note_on_c, 1, 46, 127
1, 434070, Note_on_c, 1, 62, 127
1, 434179, Note_off_c, 1, 46, 0
1, 434179, Note_off_c, 1, 62, 0
1, 434180, Note_on_c, 1, 50, 127
1, 434180, Note_on_c, 1, 66, 127
1, 434289, Note_off_c, 1, 50, 0
1, 434289, Note_off_c, 1, 66, 0
1, 434291, Note_on_c, 1, 52, 127
1, 434291, Note_on_c, 1, 67, 127
1, 434400, Note_off_c, 1, 52, 0
1, 434400, Note_off_c, 1, 67, 0
1, 434401, Note_on_c, 1, 55, 127
1, 434401, Note_on_c, 1, 70, 127
1, 434510, Note_off_c, 1, 55, 0
1, 434510, Note_off_c, 1, 70, 0
1, 434512, Note_on_c, 1, 48, 127
1, 434512, Note_on_c, 1, 64, 127
1, 434621, Note_off_c, 1, 48, 0
1, 434621, Note_off_c, 1, 64, 0
1, 434622, Note_on_c, 1, 52, 127
1, 434622, Note_on_c, 1, 67, 127
1, 434731, Note_off_c, 1, 52, 0
1, 434731, Note_off_c, 1, 67, 0
1, 434732, Note_on_c, 1, 54, 127
1, 434732, Note_on_c, 1, 69, 127
1, 434841, Note_off_c, 1, 54, 0
1, 434841, Note_off_c, 1, 69, 0
1, 434843, Note_on_c, 1, 57, 127
1, 434843, Note_on_c, 1, 72, 127
1, 434952, Note_off_c, 1, 57, 0
1, 434952, Note_off_c, 1, 72, 0
1, 434953, Note_on_c, 1, 50, 127
1, 434953, Note_on_c, 1, 66, 127
1, 435062, Note_off_c, 1, 50, 0
1, 435062, Note_off_c, 1, 66, 0
1, 435064, Note_on_c, 1, 54, 127
1, 435064, Note_on_c, 1, 69, 127
1, 435173, Note_off_c, 1, 54, 0
1, 435173, Note_off_c, 1, 69, 0
1, 435174, Note_on_c, 1, 55, 127
1, 435174, Note_on_c, 1, 70, 127
1, 435283, Note_off_c, 1, 55, 0
1, 435283, Note_off_c, 1, 70, 0
1, 435284, Note_on_c, 1, 58, 127
1, 435284, Note_on_c, 1, 74, 127
1, 435393, Note_off_c, 1, 58, 0
1, 435393, Note_off_c, 1, 74, 0
1, 435395, Note_on_c, 1, 52, 127
1, 435395, Note_on_c, 1, 67, 127
1, 435504, Note_off_c, 1, 52, 0
1, 435504, Note_off_c, 1, 67, 0
1, 435505, Note_on_c, 1, 55, 127
1, 435505, Note_on_c, 1, 70, 127
1, 435614, Note_off_c, 1, 55, 0
1, 435614, Note_off_c, 1, 70, 0
1, 435616, Note_on_c, 1, 57, 127
1, 435616, Note_on_c, 1, 72, 127
1, 435725, Note_off_c, 1, 57, 0
1, 435725, Note_off_c, 1, 72, 0
1, 435726, Note_on_c, 1, 58, 127
1, 435726, Note_on_c, 1, 74, 127
1, 435835, Note_off_c, 1, 58, 0
1, 435835, Note_off_c, 1, 74, 0
1, 435836, Note_on_c, 1, 54, 127
1, 435836, Note_on_c, 1, 69, 127
1, 435945, Note_off_c, 1, 54, 0
1, 435945, Note_off_c, 1, 69, 0
1, 435947, Note_on_c, 1, 57, 127
1, 435947, Note_on_c, 1, 72, 127
1, 436056, Note_off_c, 1, 57, 0
1, 436056, Note_off_c, 1, 72, 0
1, 436057, Note_on_c, 1, 58, 127
1, 436057, Note_on_c, 1, 74, 127
1, 436166, Note_off_c, 1, 58, 0
1, 436166, Note_off_c, 1, 74, 0
1, 436168, Note_on_c, 1, 60, 127
1, 436168, Note_on_c, 1, 75, 127
1, 436277, Note_off_c, 1, 60, 0
1, 436277, Note_off_c, 1, 75, 0
1, 436278, Note_on_c, 1, 58, 127
1, 436278, Note_on_c, 1, 74, 127
1, 436387, Note_off_c, 1, 58, 0
1, 436387, Note_off_c, 1, 74, 0
1, 436388, Note_on_c, 1, 57, 127
1, 436388, Note_on_c, 1, 72, 127
1, 436497, Note_off_c, 1, 57, 0
1, 436497, Note_off_c, 1, 72, 0
1, 436499, Note_on_c, 1, 55, 127
1, 436499, Note_on_c, 1, 70, 127
1, 436608, Note_off_c, 1, 55, 0
1, 436608, Note_off_c, 1, 70, 0
1, 436609, Note_on_c, 1, 54, 127
1, 436609, Note_on_c, 1, 69, 127
1, 436718, Note_off_c, 1, 54, 0
1, 436718, Note_off_c, 1, 69, 0
1, 436720, Note_on_c, 1, 70, 127
1, 436720, Note_on_c, 1, 55, 127
1, 436829, Note_off_c, 1, 70, 0
1, 436830, Note_on_c, 1, 74, 127
1, 436939, Note_off_c, 1, 55, 0
1, 436939, Note_off_c, 1, 74, 0
1, 436940, Note_on_c, 1, 79, 127
1, 436940, Note_on_c, 1, 50, 127
1, 437049, Note_off_c, 1, 79, 0
1, 437051, Note_on_c, 1, 78, 127
1, 437159, Note_off_c, 1, 50, 0
1, 437160, Note_off_c, 1, 78, 0
1, 437161, Note_on_c, 1, 79, 127
1, 437161, Note_on_c, 1, 51, 127
1, 437270, Note_off_c, 1, 79, 0
1, 437272, Note_on_c, 1, 72, 127
1, 437380, Note_off_c, 1, 51, 0
1, 437381, Note_off_c, 1, 72, 0
1, 437382, Note_on_c, 1, 74, 127
1, 437382, Note_on_c, 1, 48, 127
1, 437491, Note_off_c, 1, 74, 0
1, 437492, Note_on_c, 1, 75, 127
1, 437601, Note_off_c, 1, 48, 0
1, 437601, Note_off_c, 1, 75, 0
1, 437603, Note_on_c, 1, 66, 127
1, 437603, Note_on_c, 1, 50, 127
1, 437712, Note_off_c, 1, 66, 0
1, 437713, Note_on_c, 1, 75, 127
1, 437822, Note_off_c, 1, 75, 0
1, 437824, Note_on_c, 1, 74, 127
1, 437824, Note_on_c, 1, 38, 127
1, 437933, Note_off_c, 1, 74, 0
1, 437934, Note_on_c, 1, 72, 127
1, 438043, Note_off_c, 1, 50, 0
1, 438043, Note_off_c, 1, 38, 0
1, 438043, Note_off_c, 1, 72, 0
1, 438044, Note_on_c, 1, 70, 127
1, 438044, Note_on_c, 1, 67, 127
1, 438044, Note_on_c, 1, 43, 127
1, 438153, Note_off_c, 1, 70, 0
1, 438155, Note_on_c, 1, 74, 127
1, 438264, Note_off_c, 1, 74, 0
1, 438265, Note_on_c, 1, 79, 127
1, 438374, Note_off_c, 1, 67, 0
1, 438376, Note_on_c, 1, 69, 127
1, 438485, Note_off_c, 1, 69, 0
1, 438595, Note_off_c, 1, 79, 0
1, 438596, Note_on_c, 1, 72, 127
1, 438705, Note_off_c, 1, 72, 0
1, 438817, Note_on_c, 1, 75, 127
1, 438926, Note_off_c, 1, 75, 0
1, 438928, Note_on_c, 1, 77, 127
1, 438928, Note_on_c, 1, 71, 127
1, 439037, Note_off_c, 1, 77, 0
1, 439038, Note_on_c, 1, 80, 127
1, 439147, Note_off_c, 1, 80, 0
1, 439367, Note_off_c, 1, 43, 0
1, 439368, Note_off_c, 1, 71, 0
1, 439369, Note_on_c, 1, 75, 127
1, 439369, Note_on_c, 1, 72, 127
1, 439369, Note_on_c, 1, 43, 127
1, 439588, Note_off_c, 1, 75, 0
1, 439590, Note_on_c, 1, 79, 127
1, 439699, Note_off_c, 1, 79, 0
1, 439700, Note_on_c, 1, 77, 127
1, 439809, Note_off_c, 1, 72, 0
1, 439809, Note_off_c, 1, 77, 0
1, 440032, Note_on_c, 1, 71, 127
1, 440142, Note_on_c, 1, 74, 127
1, 440251, Note_off_c, 1, 71, 0
1, 440251, Note_off_c, 1, 74, 0
1, 440363, Note_on_c, 1, 68, 127
1, 440472, Note_off_c, 1, 68, 0
1, 440473, Note_on_c, 1, 67, 127
1, 440582, Note_off_c, 1, 67, 0
1, 440584, Note_on_c, 1, 65, 127
1, 440692, Note_off_c, 1, 43, 0
1, 440693, Note_off_c, 1, 65, 0
1, 440694, Note_on_c, 1, 63, 127
1, 440694, Note_on_c, 1, 43, 127
1, 440804, Note_on_c, 1, 67, 127
1, 440913, Note_off_c, 1, 67, 0
1, 440915, Note_on_c, 1, 72, 127
1, 441024, Note_off_c, 1, 63, 0
1, 441025, Note_on_c, 1, 64, 127
1, 441134, Note_off_c, 1, 64, 0
1, 441136, Note_on_c, 1, 65, 127
1, 441245, Note_off_c, 1, 72, 0
1, 441356, Note_on_c, 1, 69, 127
1, 441465, Note_off_c, 1, 69, 0
1, 441467, Note_on_c, 1, 70, 127
1, 441576, Note_off_c, 1, 65, 0
1, 441576, Note_off_c, 1, 70, 0
1, 441577, Note_on_c, 1, 66, 127
1, 441688, Note_on_c, 1, 75, 127
1, 441797, Note_off_c, 1, 75, 0
1, 441798, Note_on_c, 1, 74, 127
1, 441907, Note_off_c, 1, 74, 0
1, 442017, Note_off_c, 1, 43, 0
1, 442017, Note_off_c, 1, 66, 0
1, 442019, Note_on_c, 1, 70, 127
1, 442019, Note_on_c, 1, 67, 127
1, 442019, Note_on_c, 1, 43, 127
1, 442238, Note_off_c, 1, 70, 0
1, 442240, Note_on_c, 1, 74, 127
1, 442349, Note_off_c, 1, 74, 0
1, 442350, Note_on_c, 1, 72, 127
1, 442459, Note_off_c, 1, 67, 0
1, 442459, Note_off_c, 1, 72, 0
1, 442681, Note_on_c, 1, 66, 127
1, 442792, Note_on_c, 1, 69, 127
1, 442900, Note_off_c, 1, 66, 0
1, 442901, Note_off_c, 1, 69, 0
1, 443123, Note_on_c, 1, 79, 127
1, 443342, Note_off_c, 1, 79, 0
1, 443508, Note_on_c, 1, 73, 127
1, 443563, Note_off_c, 1, 43, 0
1, 443564, Note_on_c, 1, 58, 127
1, 443595, Note_off_c, 1, 73, 0
1, 443673, Note_off_c, 1, 58, 0
1, 443675, Note_on_c, 1, 57, 127
1, 443784, Note_off_c, 1, 57, 0
1, 443785, Note_on_c, 1, 74, 127
1, 443785, Note_on_c, 1, 55, 127
1, 443785, Note_on_c, 1, 69, 127
1, 443872, Note_off_c, 1, 74, 0
1, 443874, Note_on_c, 1, 73, 127
1, 443961, Note_off_c, 1, 73, 0
1, 444004, Note_off_c, 1, 55, 0
1, 444116, Note_on_c, 1, 53, 127
1, 444225, Note_off_c, 1, 69, 0
1, 444225, Note_off_c, 1, 53, 0
1, 444227, Note_on_c, 1, 52, 127
1, 444227, Note_on_c, 1, 67, 127
1, 444336, Note_off_c, 1, 52, 0
1, 444337, Note_on_c, 1, 57, 127
1, 444446, Note_off_c, 1, 57, 0
1, 444491, Note_on_c, 1, 71, 127
1, 444578, Note_off_c, 1, 71, 0
1, 444667, Note_off_c, 1, 67, 0
1, 444668, Note_on_c, 1, 50, 127
1, 444668, Note_on_c, 1, 65, 127
1, 444668, Note_on_c, 1, 74, 127
1, 444777, Note_off_c, 1, 50, 0
1, 444779, Note_on_c, 1, 57, 127
1, 444888, Note_off_c, 1, 57, 0
1, 444889, Note_on_c, 1, 62, 127
1, 444998, Note_off_c, 1, 62, 0
1, 445000, Note_on_c, 1, 60, 127
1, 445108, Note_off_c, 1, 65, 0
1, 445109, Note_off_c, 1, 60, 0
1, 445110, Note_on_c, 1, 58, 127
1, 445110, Note_on_c, 1, 67, 127
1, 445219, Note_off_c, 1, 58, 0
1, 445329, Note_off_c, 1, 67, 0
1, 445552, Note_on_c, 1, 55, 127
1, 445552, Note_on_c, 1, 64, 127
1, 445661, Note_off_c, 1, 55, 0
1, 445771, Note_off_c, 1, 64, 0
1, 445991, Note_off_c, 1, 74, 0
1, 445993, Note_on_c, 1, 64, 127
1, 445993, Note_on_c, 1, 70, 127
1, 445993, Note_on_c, 1, 49, 127
1, 446212, Note_off_c, 1, 64, 0
1, 446214, Note_on_c, 1, 67, 127
1, 446323, Note_off_c, 1, 67, 0
1, 446324, Note_on_c, 1, 65, 127
1, 446433, Note_off_c, 1, 70, 0
1, 446433, Note_off_c, 1, 65, 0
1, 446435, Note_on_c, 1, 69, 127
1, 446654, Note_off_c, 1, 49, 0
1, 446656, Note_on_c, 1, 52, 127
1, 446875, Note_off_c, 1, 69, 0
1, 446875, Note_off_c, 1, 52, 0
1, 446876, Note_on_c, 1, 61, 127
1, 446876, Note_on_c, 1, 45, 127
1, 446876, Note_on_c, 1, 67, 127
1, 446985, Note_off_c, 1, 61, 0
1, 446987, Note_on_c, 1, 62, 127
1, 447095, Note_off_c, 1, 45, 0
1, 447096, Note_off_c, 1, 62, 0
1, 447097, Note_on_c, 1, 64, 127
1, 447097, Note_on_c, 1, 49, 127
1, 447206, Note_off_c, 1, 64, 0
1, 447316, Note_off_c, 1, 67, 0
1, 447316, Note_off_c, 1, 49, 0
1, 447318, Note_on_c, 1, 50, 127
1, 447318, Note_on_c, 1, 57, 127
1, 447318, Note_on_c, 1, 65, 127
1, 447427, Note_off_c, 1, 50, 0
1, 447428, Note_on_c, 1, 52, 127
1, 447537, Note_off_c, 1, 57, 0
1, 447537, Note_off_c, 1, 52, 0
1, 447539, Note_on_c, 1, 62, 127
1, 447539, Note_on_c, 1, 53, 127
1, 447648, Note_off_c, 1, 62, 0
1, 447648, Note_off_c, 1, 53, 0
1, 447649, Note_on_c, 1, 61, 127
1, 447758, Note_off_c, 1, 65, 0
1, 447758, Note_off_c, 1, 61, 0
1, 447760, Note_on_c, 1, 62, 127
1, 447760, Note_on_c, 1, 46, 127
1, 447760, Note_on_c, 1, 67, 127
1, 447979, Note_off_c, 1, 62, 0
1, 447979, Note_off_c, 1, 46, 0
1, 447979, Note_off_c, 1, 67, 0
1, 447980, Note_on_c, 1, 62, 127
1, 447980, Note_on_c, 1, 45, 127
1, 447980, Note_on_c, 1, 65, 127
1, 448089, Note_off_c, 1, 62, 0
1, 448091, Note_on_c, 1, 61, 127
1, 448199, Note_off_c, 1, 45, 0
1, 448199, Note_off_c, 1, 65, 0
1, 448200, Note_off_c, 1, 61, 0
1, 448201, Note_on_c, 1, 62, 127
1, 448201, Note_on_c, 1, 43, 127
1, 448201, Note_on_c, 1, 64, 127
1, 448420, Note_off_c, 1, 62, 0
1, 448420, Note_off_c, 1, 43, 0
1, 448420, Note_off_c, 1, 64, 0
1, 448422, Note_on_c, 1, 62, 127
1, 448422, Note_on_c, 1, 41, 127
1, 448532, Note_on_c, 1, 61, 127
1, 448641, Note_off_c, 1, 62, 0
1, 448641, Note_off_c, 1, 41, 0
1, 448641, Note_off_c, 1, 61, 0
1, 448643, Note_on_c, 1, 43, 127
1, 448643, Note_on_c, 1, 64, 127
1, 448643, Note_on_c, 1, 62, 127
1, 448862, Note_off_c, 1, 43, 0
1, 448862, Note_off_c, 1, 64, 0
1, 448864, Note_on_c, 1, 55, 127
1, 448973, Note_off_c, 1, 55, 0
1, 448974, Note_on_c, 1, 53, 127
1, 448974, Note_on_c, 1, 65, 127
1, 449083, Note_off_c, 1, 53, 0
1, 449083, Note_off_c, 1, 65, 0
1, 449084, Note_on_c, 1, 67, 127
1, 449084, Note_on_c, 1, 52, 127
1, 449193, Note_off_c, 1, 67, 0
1, 449195, Note_on_c, 1, 69, 127
1, 449303, Note_off_c, 1, 52, 0
1, 449304, Note_off_c, 1, 69, 0
1, 449305, Note_on_c, 1, 70, 127
1, 449414, Note_off_c, 1, 70, 0
1, 449525, Note_off_c, 1, 62, 0
1, 449526, Note_on_c, 1, 57, 127
1, 449526, Note_on_c, 1, 60, 127
1, 449745, Note_off_c, 1, 57, 0
1, 449747, Note_on_c, 1, 45, 127
1, 449966, Note_off_c, 1, 45, 0
1, 449968, Note_on_c, 1, 66, 127
1, 449968, Note_on_c, 1, 50, 127
1, 450077, Note_off_c, 1, 66, 0
1, 450187, Note_off_c, 1, 60, 0
1, 450188, Note_on_c, 1, 58, 127
1, 450407, Note_off_c, 1, 58, 0
1, 450740, Note_on_c, 1, 71, 127
1, 450849, Note_off_c, 1, 71, 0
1, 450851, Note_on_c, 1, 72, 127
1, 450851, Note_on_c, 1, 54, 127
1, 450960, Note_off_c, 1, 72, 0
1, 451070, Note_off_c, 1, 54, 0
1, 451072, Note_off_c, 1, 50, 0
1, 451292, Note_on_c, 1, 68, 127
1, 451292, Note_on_c, 1, 52, 127
1, 451511, Note_off_c, 1, 68, 0
1, 451513, Note_on_c, 1, 56, 127
1, 451513, Note_on_c, 1, 71, 127
1, 451622, Note_off_c, 1, 56, 0
1, 451622, Note_off_c, 1, 71, 0
1, 451624, Note_on_c, 1, 57, 127
1, 451624, Note_on_c, 1, 72, 127
1, 451733, Note_off_c, 1, 57, 0
1, 451733, Note_off_c, 1, 72, 0
1, 451734, Note_on_c, 1, 59, 127
1, 451734, Note_on_c, 1, 74, 127
1, 451953, Note_off_c, 1, 59, 0
1, 451953, Note_off_c, 1, 74, 0
1, 452065, Note_on_c, 1, 60, 127
1, 452065, Note_on_c, 1, 76, 127
1, 452174, Note_off_c, 1, 52, 0
1, 452174, Note_off_c, 1, 60, 0
1, 452174, Note_off_c, 1, 76, 0
1, 452176, Note_on_c, 1, 62, 127
1, 452176, Note_on_c, 1, 77, 127
1, 452176, Note_on_c, 1, 56, 127
1, 452395, Note_off_c, 1, 62, 0
1, 452395, Note_off_c, 1, 77, 0
1, 452396, Note_on_c, 1, 60, 127
1, 452396, Note_on_c, 1, 76, 127
1, 452505, Note_off_c, 1, 60, 0
1, 452505, Note_off_c, 1, 76, 0
1, 452507, Note_on_c, 1, 59, 127
1, 452507, Note_on_c, 1, 74, 127
1, 452616, Note_off_c, 1, 56, 0
1, 452616, Note_off_c, 1, 59, 0
1, 452616, Note_off_c, 1, 74, 0
1, 452617, Note_on_c, 1, 57, 127
1, 452617, Note_on_c, 1, 72, 127
1, 452728, Note_on_c, 1, 70, 127
1, 452836, Note_off_c, 1, 57, 0
1, 452837, Note_off_c, 1, 70, 0
1, 452838, Note_on_c, 1, 69, 127
1, 452838, Note_on_c, 1, 58, 127
1, 452947, Note_off_c, 1, 69, 0
1, 452947, Note_off_c, 1, 58, 0
1, 452948, Note_on_c, 1, 67, 127
1, 452948, Note_on_c, 1, 60, 127
1, 453057, Note_off_c, 1, 67, 0
1, 453057, Note_off_c, 1, 60, 0
1, 453059, Note_on_c, 1, 62, 127
1, 453059, Note_on_c, 1, 66, 127
1, 453167, Note_off_c, 1, 72, 0
1, 453278, Note_off_c, 1, 62, 0
1, 453611, Note_on_c, 1, 75, 127
1, 453720, Note_off_c, 1, 75, 0
1, 453721, Note_on_c, 1, 74, 127
1, 453830, Note_off_c, 1, 74, 0
1, 453942, Note_on_c, 1, 55, 127
1, 454051, Note_off_c, 1, 66, 0
1, 454161, Note_off_c, 1, 55, 0
1, 454273, Note_on_c, 1, 65, 127
1, 454382, Note_off_c, 1, 65, 0
1, 454384, Note_on_c, 1, 64, 127
1, 455267, Note_on_c, 1, 53, 127
1, 455376, Note_off_c, 1, 64, 0
1, 455376, Note_off_c, 1, 53, 0
1, 455377, Note_on_c, 1, 52, 127
1, 455486, Note_off_c, 1, 52, 0
1, 455488, Note_on_c, 1, 50, 127
1, 455597, Note_off_c, 1, 50, 0
1, 455598, Note_on_c, 1, 48, 127
1, 455707, Note_off_c, 1, 48, 0
1, 455708, Note_on_c, 1, 47, 127
1, 455817, Note_off_c, 1, 47, 0
1, 455819, Note_on_c, 1, 49, 127
1, 455928, Note_off_c, 1, 49, 0
1, 455929, Note_on_c, 1, 71, 127
1, 456038, Note_off_c, 1, 71, 0
1, 456040, Note_on_c, 1, 73, 127
1, 456149, Note_off_c, 1, 73, 0
1, 456260, Note_on_c, 1, 57, 127
1, 456260, Note_on_c, 1, 77, 127
1, 456369, Note_off_c, 1, 57, 0
1, 456369, Note_off_c, 1, 77, 0
1, 456371, Note_on_c, 1, 55, 127
1, 456371, Note_on_c, 1, 76, 127
1, 456480, Note_off_c, 1, 55, 0
1, 456480, Note_off_c, 1, 76, 0
1, 456481, Note_on_c, 1, 53, 127
1, 456481, Note_on_c, 1, 74, 127
1, 456590, Note_off_c, 1, 53, 0
1, 456590, Note_off_c, 1, 74, 0
1, 456592, Note_on_c, 1, 52, 127
1, 456592, Note_on_c, 1, 73, 127
1, 456701, Note_off_c, 1, 52, 0
1, 456701, Note_off_c, 1, 73, 0
1, 456702, Note_on_c, 1, 50, 127
1, 456702, Note_on_c, 1, 74, 127
1, 456811, Note_off_c, 1, 50, 0
1, 456811, Note_off_c, 1, 74, 0
1, 456812, Note_on_c, 1, 49, 127
1, 456812, Note_on_c, 1, 76, 127
1, 456921, Note_off_c, 1, 49, 0
1, 456921, Note_off_c, 1, 76, 0
1, 456923, Note_on_c, 1, 47, 127
1, 456923, Note_on_c, 1, 77, 127
1, 457032, Note_off_c, 1, 47, 0
1, 457032, Note_off_c, 1, 77, 0
1, 457033, Note_on_c, 1, 45, 127
1, 457033, Note_on_c, 1, 79, 127
1, 457142, Note_off_c, 1, 45, 0
1, 457142, Note_off_c, 1, 79, 0
1, 457144, Note_on_c, 1, 47, 127
1, 457144, Note_on_c, 1, 77, 127
1, 457253, Note_off_c, 1, 47, 0
1, 457253, Note_off_c, 1, 77, 0
1, 457254, Note_on_c, 1, 49, 127
1, 457254, Note_on_c, 1, 76, 127
1, 457363, Note_off_c, 1, 49, 0
1, 457363, Note_off_c, 1, 76, 0
1, 457364, Note_on_c, 1, 50, 127
1, 457364, Note_on_c, 1, 77, 127
1, 457473, Note_off_c, 1, 50, 0
1, 457473, Note_off_c, 1, 77, 0
1, 457475, Note_on_c, 1, 52, 127
1, 457475, Note_on_c, 1, 79, 127
1, 457584, Note_off_c, 1, 52, 0
1, 457584, Note_off_c, 1, 79, 0
1, 457585, Note_on_c, 1, 55, 127
1, 457585, Note_on_c, 1, 82, 127
1, 457694, Note_off_c, 1, 55, 0
1, 457694, Note_off_c, 1, 82, 0
1, 457696, Note_on_c, 1, 53, 127
1, 457696, Note_on_c, 1, 81, 127
1, 457805, Note_off_c, 1, 53, 0
1, 457805, Note_off_c, 1, 81, 0
1, 457806, Note_on_c, 1, 52, 127
1, 457806, Note_on_c, 1, 79, 127
1, 457915, Note_off_c, 1, 52, 0
1, 457915, Note_off_c, 1, 79, 0
1, 457916, Note_on_c, 1, 50, 127
1, 457916, Note_on_c, 1, 77, 127
1, 458027, Note_on_c, 1, 76, 127
1, 458135, Note_off_c, 1, 50, 0
1, 458136, Note_off_c, 1, 76, 0
1, 458137, Note_on_c, 1, 74, 127
1, 458137, Note_on_c, 1, 52, 127
1, 458246, Note_off_c, 1, 74, 0
1, 458246, Note_off_c, 1, 52, 0
1, 458248, Note_on_c, 1, 72, 127
1, 458248, Note_on_c, 1, 53, 127
1, 458357, Note_off_c, 1, 72, 0
1, 458357, Note_off_c, 1, 53, 0
1, 458358, Note_on_c, 1, 55, 127
1, 458358, Note_on_c, 1, 71, 127
1, 458466, Note_off_c, 1, 77, 0
1, 458577, Note_off_c, 1, 55, 0
1, 458910, Note_on_c, 1, 81, 127
1, 459019, Note_off_c, 1, 81, 0
1, 459020, Note_on_c, 1, 79, 127
1, 459129, Note_off_c, 1, 79, 0
1, 459241, Note_on_c, 1, 48, 127
1, 459350, Note_off_c, 1, 71, 0
1, 459460, Note_off_c, 1, 48, 0
1, 459572, Note_on_c, 1, 70, 127
1, 459681, Note_off_c, 1, 70, 0
1, 459683, Note_on_c, 1, 69, 127
1, 459904, Note_on_c, 1, 51, 127
1, 460123, Note_off_c, 1, 51, 0
1, 460124, Note_on_c, 1, 75, 127
1, 460233, Note_off_c, 1, 75, 0
1, 460566, Note_on_c, 1, 46, 127
1, 460675, Note_off_c, 1, 69, 0
1, 460675, Note_off_c, 1, 46, 0
1, 460676, Note_on_c, 1, 45, 127
1, 460785, Note_off_c, 1, 45, 0
1, 460787, Note_on_c, 1, 43, 127
1, 460896, Note_off_c, 1, 43, 0
1, 460897, Note_on_c, 1, 41, 127
1, 461006, Note_off_c, 1, 41, 0
1, 461008, Note_on_c, 1, 40, 127
1, 461008, Note_on_c, 1, 67, 127
1, 461117, Note_off_c, 1, 40, 0
1, 461118, Note_on_c, 1, 42, 127
1, 461227, Note_off_c, 1, 42, 0
1, 462000, Note_off_c, 1, 67, 0
1, 462332, Note_on_c, 1, 66, 127
1, 462553, Note_on_c, 1, 54, 127
1, 462662, Note_off_c, 1, 54, 0
1, 462774, Note_on_c, 1, 57, 127
1, 462883, Note_off_c, 1, 57, 0
1, 463214, Note_off_c, 1, 66, 0
1, 463216, Note_on_c, 1, 55, 127
1, 463216, Note_on_c, 1, 70, 127
1, 463216, Note_on_c, 1, 67, 127
1, 463325, Note_off_c, 1, 55, 0
1, 463326, Note_on_c, 1, 50, 127
1, 463435, Note_off_c, 1, 70, 0
1, 463435, Note_off_c, 1, 50, 0
1, 463436, Note_on_c, 1, 74, 127
1, 463547, Note_on_c, 1, 57, 127
1, 463655, Note_off_c, 1, 74, 0
1, 463656, Note_off_c, 1, 57, 0
1, 463657, Note_on_c, 1, 58, 127
1, 463657, Note_on_c, 1, 79, 127
1, 463766, Note_off_c, 1, 58, 0
1, 463876, Note_off_c, 1, 79, 0
1, 463877, Note_off_c, 1, 67, 0
1, 463878, Note_on_c, 1, 70, 127
1, 463878, Note_on_c, 1, 58, 127
1, 463878, Note_on_c, 1, 79, 127
1, 463987, Note_off_c, 1, 70, 0
1, 463987, Note_off_c, 1, 58, 0
1, 463987, Note_off_c, 1, 79, 0
1, 463988, Note_on_c, 1, 69, 127
1, 463988, Note_on_c, 1, 60, 127
1, 463988, Note_on_c, 1, 78, 127
1, 464097, Note_off_c, 1, 69, 0
1, 464097, Note_off_c, 1, 60, 0
1, 464097, Note_off_c, 1, 78, 0
1, 464099, Note_on_c, 1, 62, 127
1, 464099, Note_on_c, 1, 70, 127
1, 464099, Note_on_c, 1, 79, 127
1, 464208, Note_off_c, 1, 62, 0
1, 464209, Note_on_c, 1, 55, 127
1, 464318, Note_off_c, 1, 70, 0
1, 464318, Note_off_c, 1, 55, 0
1, 464320, Note_on_c, 1, 72, 127
1, 464429, Note_off_c, 1, 72, 0
1, 464430, Note_on_c, 1, 64, 127
1, 464539, Note_off_c, 1, 64, 0
1, 464540, Note_on_c, 1, 65, 127
1, 464540, Note_on_c, 1, 69, 127
1, 464759, Note_off_c, 1, 65, 0
1, 464760, Note_off_c, 1, 79, 0
1, 464761, Note_on_c, 1, 53, 127
1, 464870, Note_off_c, 1, 53, 0
1, 464982, Note_on_c, 1, 57, 127
1, 464982, Note_on_c, 1, 77, 127
1, 465091, Note_off_c, 1, 57, 0
1, 465201, Note_off_c, 1, 69, 0
1, 465201, Note_off_c, 1, 77, 0
1, 465203, Note_on_c, 1, 69, 127
1, 465203, Note_on_c, 1, 57, 127
1, 465203, Note_on_c, 1, 77, 127
1, 465312, Note_off_c, 1, 69, 0
1, 465312, Note_off_c, 1, 57, 0
1, 465312, Note_off_c, 1, 77, 0
1, 465313, Note_on_c, 1, 67, 127
1, 465313, Note_on_c, 1, 58, 127
1, 465313, Note_on_c, 1, 76, 127
1, 465422, Note_off_c, 1, 67, 0
1, 465422, Note_off_c, 1, 58, 0
1, 465422, Note_off_c, 1, 76, 0
1, 465424, Note_on_c, 1, 60, 127
1, 465424, Note_on_c, 1, 68, 127
1, 465424, Note_on_c, 1, 77, 127
1, 465533, Note_off_c, 1, 60, 0
1, 465534, Note_on_c, 1, 53, 127
1, 465643, Note_off_c, 1, 68, 0
1, 465643, Note_off_c, 1, 53, 0
1, 465644, Note_on_c, 1, 70, 127
1, 465753, Note_off_c, 1, 70, 0
1, 465755, Note_on_c, 1, 62, 127
1, 465864, Note_off_c, 1, 62, 0
1, 465865, Note_on_c, 1, 63, 127
1, 465865, Note_on_c, 1, 67, 127
1, 465974, Note_off_c, 1, 63, 0
1, 465976, Note_on_c, 1, 65, 127
1, 466085, Note_off_c, 1, 77, 0
1, 466085, Note_off_c, 1, 67, 0
1, 466085, Note_off_c, 1, 65, 0
1, 466086, Note_on_c, 1, 70, 127
1, 466086, Note_on_c, 1, 67, 127
1, 466196, Note_on_c, 1, 65, 127
1, 466305, Note_off_c, 1, 70, 0
1, 466305, Note_off_c, 1, 65, 0
1, 466307, Note_on_c, 1, 63, 127
1, 466307, Note_on_c, 1, 72, 127
1, 466368, Note_off_c, 1, 67, 0
1, 466416, Note_off_c, 1, 63, 0
1, 466526, Note_off_c, 1, 72, 0
1, 466528, Note_on_c, 1, 74, 127
1, 466638, Note_on_c, 1, 62, 127
1, 466747, Note_off_c, 1, 74, 0
1, 466747, Note_off_c, 1, 62, 0
1, 466748, Note_on_c, 1, 60, 127
1, 466748, Note_on_c, 1, 75, 127
1, 466857, Note_off_c, 1, 60, 0
1, 467080, Note_on_c, 1, 58, 127
1, 467189, Note_off_c, 1, 58, 0
1, 467190, Note_on_c, 1, 57, 127
1, 467190, Note_on_c, 1, 66, 127
1, 467299, Note_off_c, 1, 57, 0
1, 467409, Note_off_c, 1, 75, 0
1, 467411, Note_on_c, 1, 69, 127
1, 467630, Note_off_c, 1, 69, 0
1, 467632, Note_on_c, 1, 71, 127
1, 467851, Note_off_c, 1, 71, 0
1, 468073, Note_on_c, 1, 59, 127
1, 468182, Note_off_c, 1, 59, 0
1, 468240, Note_off_c, 1, 66, 0
1, 468515, Note_on_c, 1, 55, 127
1, 468515, Note_on_c, 1, 64, 127
1, 468624, Note_off_c, 1, 55, 0
1, 469565, Note_off_c, 1, 64, 0
1, 469840, Note_on_c, 1, 54, 127
1, 470059, Note_off_c, 1, 54, 0
1, 470060, Note_on_c, 1, 50, 127
1, 470279, Note_off_c, 1, 50, 0
1, 470281, Note_on_c, 1, 70, 127
1, 470281, Note_on_c, 1, 55, 127
1, 470281, Note_on_c, 1, 63, 127
1, 470390, Note_off_c, 1, 70, 0
1, 470392, Note_on_c, 1, 69, 127
1, 470500, Note_off_c, 1, 55, 0
1, 470501, Note_off_c, 1, 69, 0
1, 470502, Note_on_c, 1, 67, 127
1, 470502, Note_on_c, 1, 53, 127
1, 470611, Note_off_c, 1, 67, 0
1, 470721, Note_off_c, 1, 63, 0
1, 470721, Note_off_c, 1, 53, 0
1, 470723, Note_on_c, 1, 70, 127
1, 470723, Note_on_c, 1, 55, 127
1, 470723, Note_on_c, 1, 64, 127
1, 470832, Note_off_c, 1, 70, 0
1, 470833, Note_on_c, 1, 74, 127
1, 470942, Note_off_c, 1, 55, 0
1, 470942, Note_off_c, 1, 74, 0
1, 470944, Note_on_c, 1, 72, 127
1, 470944, Note_on_c, 1, 43, 127
1, 471053, Note_off_c, 1, 72, 0
1, 471163, Note_off_c, 1, 64, 0
1, 471163, Note_off_c, 1, 43, 0
1, 471164, Note_on_c, 1, 69, 127
1, 471164, Note_on_c, 1, 65, 127
1, 471164, Note_on_c, 1, 50, 127
1, 471273, Note_off_c, 1, 69, 0
1, 471275, Note_on_c, 1, 74, 127
1, 471384, Note_off_c, 1, 74, 0
1, 471385, Note_on_c, 1, 72, 127
1, 471494, Note_off_c, 1, 72, 0
1, 471496, Note_on_c, 1, 70, 127
1, 471604, Note_off_c, 1, 65, 0
1, 471605, Note_off_c, 1, 70, 0
1, 471827, Note_on_c, 1, 67, 127
1, 471827, Note_on_c, 1, 64, 127
1, 471936, Note_off_c, 1, 67, 0
1, 471937, Note_on_c, 1, 73, 127
1, 472046, Note_off_c, 1, 64, 0
1, 472046, Note_off_c, 1, 73, 0
1, 472487, Note_off_c, 1, 50, 0
1, 472489, Note_on_c, 1, 65, 127
1, 472489, Note_on_c, 1, 57, 127
1, 472489, Note_on_c, 1, 50, 127
1, 472598, Note_off_c, 1, 65, 0
1, 472600, Note_on_c, 1, 67, 127
1, 472709, Note_off_c, 1, 67, 0
1, 472820, Note_on_c, 1, 64, 127
1, 472929, Note_off_c, 1, 57, 0
1, 472929, Note_off_c, 1, 64, 0
1, 472931, Note_on_c, 1, 62, 127
1, 472931, Note_on_c, 1, 58, 127
1, 473040, Note_off_c, 1, 62, 0
1, 473371, Note_off_c, 1, 58, 0
1, 473372, Note_on_c, 1, 59, 127
1, 473483, Note_on_c, 1, 69, 127
1, 473592, Note_off_c, 1, 69, 0
1, 473812, Note_off_c, 1, 50, 0
1, 473812, Note_off_c, 1, 59, 0
1, 473814, Note_on_c, 1, 64, 127
1, 473814, Note_on_c, 1, 60, 127
1, 473814, Note_on_c, 1, 50, 127
1, 473923, Note_off_c, 1, 64, 0
1, 473924, Note_on_c, 1, 67, 127
1, 474033, Note_off_c, 1, 67, 0
1, 474035, Note_on_c, 1, 65, 127
1, 474144, Note_off_c, 1, 65, 0
1, 474254, Note_off_c, 1, 60, 0
1, 474256, Note_on_c, 1, 69, 127
1, 474365, Note_off_c, 1, 69, 0
1, 474366, Note_on_c, 1, 70, 127
1, 474475, Note_off_c, 1, 70, 0
1, 474476, Note_on_c, 1, 59, 127
1, 474695, Note_off_c, 1, 59, 0
1, 474697, Note_on_c, 1, 66, 127
1, 474806, Note_off_c, 1, 66, 0
1, 475137, Note_off_c, 1, 50, 0
1, 475139, Note_on_c, 1, 50, 127
1, 475139, Note_on_c, 1, 54, 127
1, 475139, Note_on_c, 1, 62, 127
1, 475139, Note_on_c, 1, 57, 127
1, 475139, Note_on_c, 1, 69, 127
1, 475139, Note_on_c, 1, 66, 127
1, 475139, Note_on_c, 1, 72, 127
1, 475139, Note_on_c, 1, 75, 127
1, 475358, Note_off_c, 1, 50, 0
1, 475358, Note_off_c, 1, 54, 0
1, 475358, Note_off_c, 1, 62, 0
1, 475358, Note_off_c, 1, 57, 0
1, 475470, Note_on_c, 1, 60, 127
1, 475579, Note_off_c, 1, 69, 0
1, 475579, Note_off_c, 1, 66, 0
1, 475579, Note_off_c, 1, 72, 0
1, 475579, Note_off_c, 1, 75, 0
1, 475579, Note_off_c, 1, 60, 0
1, 475580, Note_on_c, 1, 58, 127
1, 475580, Note_on_c, 1, 70, 127
1, 475580, Note_on_c, 1, 67, 127
1, 475580, Note_on_c, 1, 74, 127
1, 475799, Note_off_c, 1, 58, 0
1, 475912, Note_on_c, 1, 57, 127
1, 476020, Note_off_c, 1, 70, 0
1, 476020, Note_off_c, 1, 67, 0
1, 476020, Note_off_c, 1, 74, 0
1, 476021, Note_off_c, 1, 57, 0
1, 476022, Note_on_c, 1, 55, 127
1, 476022, Note_on_c, 1, 69, 127
1, 476022, Note_on_c, 1, 72, 127
1, 476022, Note_on_c, 1, 62, 127
1, 476241, Note_off_c, 1, 55, 0
1, 476353, Note_on_c, 1, 54, 127
1, 476462, Note_off_c, 1, 69, 0
1, 476462, Note_off_c, 1, 72, 0
1, 476462, Note_off_c, 1, 62, 0
1, 476462, Note_off_c, 1, 54, 0
1, 476464, Note_on_c, 1, 55, 127
1, 476464, Note_on_c, 1, 70, 127
1, 476464, Note_on_c, 1, 62, 127
1, 476464, Note_on_c, 1, 67, 127
1, 476683, Note_off_c, 1, 55, 0
1, 476795, Note_on_c, 1, 53, 127
1, 476904, Note_off_c, 1, 70, 0
1, 476904, Note_off_c, 1, 62, 0
1, 476904, Note_off_c, 1, 67, 0
1, 476904, Note_off_c, 1, 53, 0
1, 476905, Note_on_c, 1, 51, 127
1, 476905, Note_on_c, 1, 67, 127
1, 476905, Note_on_c, 1, 72, 127
1, 477124, Note_off_c, 1, 51, 0
1, 477124, Note_off_c, 1, 67, 0
1, 477124, Note_off_c, 1, 72, 0
1, 477126, Note_on_c, 1, 51, 127
1, 477126, Note_on_c, 1, 70, 127
1, 477235, Note_off_c, 1, 51, 0
1, 477236, Note_on_c, 1, 50, 127
1, 477345, Note_off_c, 1, 70, 0
1, 477345, Note_off_c, 1, 50, 0
1, 477347, Note_on_c, 1, 48, 127
1, 477347, Note_on_c, 1, 69, 127
1, 477566, Note_off_c, 1, 48, 0
1, 477566, Note_off_c, 1, 69, 0
1, 477568, Note_on_c, 1, 48, 127
1, 477568, Note_on_c, 1, 67, 127
1, 477677, Note_off_c, 1, 48, 0
1, 477678, Note_on_c, 1, 46, 127
1, 477787, Note_off_c, 1, 67, 0
1, 477787, Note_off_c, 1, 46, 0
1, 477788, Note_on_c, 1, 45, 127
1, 477788, Note_on_c, 1, 70, 127
1, 477788, Note_on_c, 1, 73, 127
1, 478009, Note_on_c, 1, 57, 127
1, 478118, Note_off_c, 1, 57, 0
1, 478120, Note_on_c, 1, 55, 127
1, 478225, Note_off_c, 1, 45, 0
1, 478228, Note_off_c, 1, 70, 0
1, 478228, Note_off_c, 1, 73, 0
1, 478229, Note_off_c, 1, 55, 0
1, 478230, Note_on_c, 1, 53, 127
1, 478230, Note_on_c, 1, 69, 127
1, 478230, Note_on_c, 1, 74, 127
1, 478449, Note_off_c, 1, 53, 0
1, 478561, Note_on_c, 1, 52, 127
1, 478670, Note_off_c, 1, 69, 0
1, 478670, Note_off_c, 1, 74, 0
1, 478670, Note_off_c, 1, 52, 0
1, 478672, Note_on_c, 1, 50, 127
1, 478672, Note_on_c, 1, 76, 127
1, 478672, Note_on_c, 1, 67, 127
1, 478891, Note_off_c, 1, 50, 0
1, 479003, Note_on_c, 1, 49, 127
1, 479112, Note_off_c, 1, 76, 0
1, 479112, Note_off_c, 1, 67, 0
1, 479112, Note_off_c, 1, 49, 0
1, 479113, Note_on_c, 1, 50, 127
1, 479113, Note_on_c, 1, 65, 127
1, 479332, Note_off_c, 1, 50, 0
1, 479444, Note_on_c, 1, 48, 127
1, 479553, Note_off_c, 1, 65, 0
1, 479553, Note_off_c, 1, 48, 0
1, 479555, Note_on_c, 1, 46, 127
1, 479555, Note_on_c, 1, 67, 127
1, 479555, Note_on_c, 1, 74, 127
1, 479774, Note_off_c, 1, 46, 0
1, 479774, Note_off_c, 1, 67, 0
1, 479774, Note_off_c, 1, 74, 0
1, 479776, Note_on_c, 1, 46, 127
1, 479776, Note_on_c, 1, 65, 127
1, 479885, Note_off_c, 1, 46, 0
1, 479886, Note_on_c, 1, 45, 127
1, 479995, Note_off_c, 1, 65, 0
1, 479995, Note_off_c, 1, 45, 0
1, 479996, Note_on_c, 1, 43, 127
1, 479996, Note_on_c, 1, 64, 127
1, 480215, Note_off_c, 1, 43, 0
1, 480215, Note_off_c, 1, 64, 0
1, 480217, Note_on_c, 1, 43, 127
1, 480217, Note_on_c, 1, 62, 127
1, 480326, Note_off_c, 1, 43, 0
1, 480328, Note_on_c, 1, 41, 127
1, 480436, Note_off_c, 1, 62, 0
1, 480437, Note_off_c, 1, 41, 0
1, 480438, Note_on_c, 1, 40, 127
1, 480438, Note_on_c, 1, 77, 127
1, 480438, Note_on_c, 1, 68, 127
1, 480438, Note_on_c, 1, 71, 127
1, 480438, Note_on_c, 1, 74, 127
1, 480657, Note_off_c, 1, 40, 0
1, 480659, Note_on_c, 1, 52, 127
1, 480768, Note_off_c, 1, 52, 0
1, 480769, Note_on_c, 1, 50, 127
1, 480878, Note_off_c, 1, 77, 0
1, 480878, Note_off_c, 1, 68, 0
1, 480878, Note_off_c, 1, 71, 0
1, 480878, Note_off_c, 1, 74, 0
1, 480878, Note_off_c, 1, 50, 0
1, 480880, Note_on_c, 1, 48, 127
1, 480880, Note_on_c, 1, 64, 127
1, 480880, Note_on_c, 1, 69, 127
1, 480880, Note_on_c, 1, 72, 127
1, 480880, Note_on_c, 1, 76, 127
1, 481099, Note_off_c, 1, 48, 0
1, 481211, Note_on_c, 1, 47, 127
1, 481320, Note_off_c, 1, 64, 0
1, 481320, Note_off_c, 1, 69, 0
1, 481320, Note_off_c, 1, 72, 0
1, 481320, Note_off_c, 1, 76, 0
1, 481320, Note_off_c, 1, 47, 0
1, 481321, Note_on_c, 1, 45, 127
1, 481321, Note_on_c, 1, 71, 127
1, 481321, Note_on_c, 1, 64, 127
1, 481321, Note_on_c, 1, 74, 127
1, 481540, Note_off_c, 1, 45, 0
1, 481652, Note_on_c, 1, 44, 127
1, 481761, Note_off_c, 1, 71, 0
1, 481761, Note_off_c, 1, 64, 0
1, 481761, Note_off_c, 1, 74, 0
1, 481761, Note_off_c, 1, 44, 0
1, 481763, Note_on_c, 1, 73, 127
1, 481763, Note_on_c, 1, 57, 127
1, 481763, Note_on_c, 1, 45, 127
1, 481872, Note_off_c, 1, 73, 0
1, 481873, Note_on_c, 1, 69, 127
1, 481982, Note_off_c, 1, 69, 0
1, 481984, Note_on_c, 1, 71, 127
1, 482093, Note_off_c, 1, 71, 0
1, 482203, Note_off_c, 1, 57, 0
1, 482203, Note_off_c, 1, 45, 0
1, 482204, Note_on_c, 1, 74, 127
1, 482204, Note_on_c, 1, 46, 127
1, 482204, Note_on_c, 1, 58, 127
1, 482313, Note_off_c, 1, 74, 0
1, 482315, Note_on_c, 1, 72, 127
1, 482424, Note_off_c, 1, 72, 0
1, 482425, Note_on_c, 1, 70, 127
1, 482534, Note_off_c, 1, 70, 0
1, 482536, Note_on_c, 1, 69, 127
1, 482644, Note_off_c, 1, 46, 0
1, 482644, Note_off_c, 1, 58, 0
1, 482645, Note_off_c, 1, 69, 0
1, 482646, Note_on_c, 1, 67, 127
1, 482646, Note_on_c, 1, 47, 127
1, 482646, Note_on_c, 1, 59, 127
1, 482755, Note_off_c, 1, 67, 0
1, 482756, Note_on_c, 1, 71, 127
1, 482865, Note_off_c, 1, 71, 0
1, 482867, Note_on_c, 1, 74, 127
1, 482976, Note_off_c, 1, 74, 0
1, 482977, Note_on_c, 1, 77, 127
1, 483086, Note_off_c, 1, 47, 0
1, 483086, Note_off_c, 1, 59, 0
1, 483086, Note_off_c, 1, 77, 0
1, 483088, Note_on_c, 1, 72, 127
1, 483088, Note_on_c, 1, 76, 127
1, 483088, Note_on_c, 1, 48, 127
1, 483197, Note_off_c, 1, 72, 0
1, 483197, Note_off_c, 1, 76, 0
1, 483198, Note_on_c, 1, 84, 127
1, 483307, Note_off_c, 1, 84, 0
1, 483308, Note_on_c, 1, 74, 127
1, 483308, Note_on_c, 1, 83, 127
1, 483417, Note_off_c, 1, 74, 0
1, 483417, Note_off_c, 1, 83, 0
1, 483419, Note_on_c, 1, 81, 127
1, 483528, Note_off_c, 1, 48, 0
1, 483528, Note_off_c, 1, 81, 0
1, 483529, Note_on_c, 1, 71, 127
1, 483529, Note_on_c, 1, 79, 127
1, 483529, Note_on_c, 1, 48, 127
1, 483638, Note_off_c, 1, 71, 0
1, 483638, Note_off_c, 1, 79, 0
1, 483640, Note_on_c, 1, 69, 127
1, 483640, Note_on_c, 1, 77, 127
1, 483748, Note_off_c, 1, 48, 0
1, 483749, Note_off_c, 1, 69, 0
1, 483749, Note_off_c, 1, 77, 0
1, 483750, Note_on_c, 1, 67, 127
1, 483750, Note_on_c, 1, 76, 127
1, 483750, Note_on_c, 1, 47, 127
1, 483859, Note_off_c, 1, 67, 0
1, 483859, Note_off_c, 1, 76, 0
1, 483860, Note_on_c, 1, 65, 127
1, 483860, Note_on_c, 1, 74, 127
1, 483969, Note_off_c, 1, 47, 0
1, 483969, Note_off_c, 1, 65, 0
1, 483969, Note_off_c, 1, 74, 0
1, 483971, Note_on_c, 1, 72, 127
1, 483971, Note_on_c, 1, 48, 127
1, 483971, Note_on_c, 1, 64, 127
1, 484080, Note_off_c, 1, 72, 0
1, 484081, Note_on_c, 1, 71, 127
1, 484190, Note_off_c, 1, 71, 0
1, 484192, Note_on_c, 1, 69, 127
1, 484301, Note_off_c, 1, 69, 0
1, 484302, Note_on_c, 1, 67, 127
1, 484411, Note_off_c, 1, 48, 0
1, 484411, Note_off_c, 1, 67, 0
1, 484412, Note_on_c, 1, 40, 127
1, 484521, Note_off_c, 1, 64, 0
1, 484744, Note_on_c, 1, 70, 127
1, 484852, Note_off_c, 1, 40, 0
1, 484853, Note_off_c, 1, 70, 0
1, 484854, Note_on_c, 1, 41, 127
1, 485075, Note_on_c, 1, 65, 127
1, 485184, Note_off_c, 1, 65, 0
1, 485185, Note_on_c, 1, 63, 127
1, 485294, Note_off_c, 1, 41, 0
1, 485294, Note_off_c, 1, 63, 0
1, 485296, Note_on_c, 1, 42, 127
1, 485296, Note_on_c, 1, 62, 127
1, 485406, Note_on_c, 1, 66, 127
1, 485515, Note_off_c, 1, 66, 0
1, 485736, Note_off_c, 1, 42, 0
1, 485737, Note_on_c, 1, 43, 127
1, 485846, Note_off_c, 1, 62, 0
1, 486177, Note_off_c, 1, 43, 0
1, 486289, Note_on_c, 1, 60, 127
1, 486398, Note_off_c, 1, 60, 0
1, 486400, Note_on_c, 1, 58, 127
1, 486509, Note_off_c, 1, 58, 0
1, 486510, Note_on_c, 1, 57, 127
1, 486619, Note_off_c, 1, 57, 0
1, 486620, Note_on_c, 1, 55, 127
1, 486620, Note_on_c, 1, 43, 127
1, 486620, Note_on_c, 1, 58, 127
1, 486729, Note_off_c, 1, 55, 0
1, 486731, Note_on_c, 1, 53, 127
1, 486839, Note_off_c, 1, 43, 0
1, 486840, Note_off_c, 1, 53, 0
1, 486841, Note_on_c, 1, 52, 127
1, 486841, Note_on_c, 1, 45, 127
1, 486950, Note_off_c, 1, 52, 0
1, 486952, Note_on_c, 1, 50, 127
1, 487060, Note_off_c, 1, 58, 0
1, 487060, Note_off_c, 1, 45, 0
1, 487062, Note_on_c, 1, 62, 127
1, 487062, Note_on_c, 1, 46, 127
1, 487264, Note_off_c, 1, 62, 0
1, 487265, Note_on_c, 1, 61, 127
1, 487281, Note_off_c, 1, 46, 0
1, 487283, Note_off_c, 1, 50, 0
1, 487343, Note_off_c, 1, 61, 0
1, 487504, Note_on_c, 1, 62, 127
1, 487504, Note_on_c, 1, 45, 127
1, 487576, Note_off_c, 1, 62, 0
1, 487577, Note_on_c, 1, 61, 127
1, 487649, Note_off_c, 1, 61, 0
1, 487723, Note_off_c, 1, 45, 0
1, 487724, Note_on_c, 1, 61, 127
1, 487724, Note_on_c, 1, 43, 127
1, 487796, Note_off_c, 1, 61, 0
1, 487798, Note_on_c, 1, 62, 127
1, 487870, Note_off_c, 1, 62, 0
1, 487943, Note_off_c, 1, 43, 0
1, 487945, Note_on_c, 1, 62, 127
1, 487945, Note_on_c, 1, 43, 127
1, 488017, Note_off_c, 1, 62, 0
1, 488019, Note_on_c, 1, 61, 127
1, 488091, Note_off_c, 1, 61, 0
1, 488164, Note_off_c, 1, 43, 0
1, 488166, Note_on_c, 1, 61, 127
1, 488166, Note_on_c, 1, 41, 127
1, 488238, Note_off_c, 1, 61, 0
1, 488240, Note_on_c, 1, 59, 127
1, 488312, Note_off_c, 1, 59, 0
1, 488385, Note_off_c, 1, 41, 0
1, 488387, Note_on_c, 1, 41, 127
1, 488387, Note_on_c, 1, 62, 127
1, 488606, Note_off_c, 1, 41, 0
1, 488608, Note_on_c, 1, 69, 127
1, 488608, Note_on_c, 1, 40, 127
1, 488717, Note_off_c, 1, 69, 0
1, 488718, Note_on_c, 1, 72, 127
1, 488827, Note_off_c, 1, 40, 0
1, 488827, Note_off_c, 1, 72, 0
1, 488828, Note_on_c, 1, 43, 127
1, 488828, Note_on_c, 1, 70, 127
1, 489047, Note_off_c, 1, 43, 0
1, 489047, Note_off_c, 1, 70, 0
1, 489270, Note_on_c, 1, 67, 127
1, 489489, Note_off_c, 1, 67, 0
1, 489491, Note_on_c, 1, 38, 127
1, 489601, Note_on_c, 1, 65, 127
1, 489710, Note_off_c, 1, 38, 0
1, 489710, Note_off_c, 1, 65, 0
1, 490146, Note_off_c, 1, 62, 0
1, 490153, Note_on_c, 1, 61, 127
1, 490595, Note_on_c, 1, 45, 127
1, 490704, Note_off_c, 1, 45, 0
1, 490926, Note_on_c, 1, 64, 127
1, 491035, Note_off_c, 1, 61, 0
1, 491035, Note_off_c, 1, 64, 0
1, 491036, Note_on_c, 1, 38, 127
1, 491036, Note_on_c, 1, 65, 127
1, 491145, Note_off_c, 1, 38, 0
1, 491147, Note_on_c, 1, 64, 127
1, 491147, Note_on_c, 1, 50, 127
1, 491256, Note_off_c, 1, 64, 0
1, 491256, Note_off_c, 1, 50, 0
1, 491257, Note_on_c, 1, 62, 127
1, 491257, Note_on_c, 1, 52, 127
1, 491366, Note_off_c, 1, 62, 0
1, 491366, Note_off_c, 1, 52, 0
1, 491368, Note_on_c, 1, 60, 127
1, 491368, Note_on_c, 1, 53, 127
1, 491477, Note_off_c, 1, 60, 0
1, 491477, Note_off_c, 1, 53, 0
1, 491478, Note_on_c, 1, 55, 127
1, 491478, Note_on_c, 1, 59, 127
1, 491586, Note_off_c, 1, 65, 0
1, 491697, Note_off_c, 1, 55, 0
1, 492030, Note_on_c, 1, 69, 127
1, 492139, Note_off_c, 1, 69, 0
1, 492140, Note_on_c, 1, 67, 127
1, 492249, Note_off_c, 1, 67, 0
1, 492360, Note_off_c, 1, 59, 0
1, 492361, Note_on_c, 1, 48, 127
1, 492361, Note_on_c, 1, 64, 127
1, 492472, Note_on_c, 1, 62, 127
1, 492580, Note_off_c, 1, 48, 0
1, 492581, Note_off_c, 1, 62, 0
1, 492582, Note_on_c, 1, 60, 127
1, 492582, Note_on_c, 1, 50, 127
1, 492691, Note_off_c, 1, 60, 0
1, 492691, Note_off_c, 1, 50, 0
1, 492692, Note_on_c, 1, 58, 127
1, 492692, Note_on_c, 1, 52, 127
1, 492801, Note_off_c, 1, 58, 0
1, 492801, Note_off_c, 1, 52, 0
1, 492803, Note_on_c, 1, 53, 127
1, 492803, Note_on_c, 1, 57, 127
1, 492911, Note_off_c, 1, 64, 0
1, 493022, Note_off_c, 1, 53, 0
1, 493024, Note_on_c, 1, 51, 127
1, 493243, Note_off_c, 1, 51, 0
1, 493244, Note_on_c, 1, 63, 127
1, 493353, Note_off_c, 1, 63, 0
1, 493355, Note_on_c, 1, 67, 127
1, 493464, Note_off_c, 1, 67, 0
1, 493465, Note_on_c, 1, 65, 127
1, 493574, Note_off_c, 1, 65, 0
1, 493685, Note_off_c, 1, 57, 0
1, 493686, Note_on_c, 1, 46, 127
1, 493686, Note_on_c, 1, 62, 127
1, 493795, Note_off_c, 1, 46, 0
1, 493796, Note_on_c, 1, 60, 127
1, 493796, Note_on_c, 1, 45, 127
1, 493905, Note_off_c, 1, 60, 0
1, 493905, Note_off_c, 1, 45, 0
1, 493907, Note_on_c, 1, 58, 127
1, 493907, Note_on_c, 1, 43, 127
1, 494016, Note_off_c, 1, 58, 0
1, 494016, Note_off_c, 1, 43, 0
1, 494017, Note_on_c, 1, 57, 127
1, 494017, Note_on_c, 1, 41, 127
1, 494126, Note_off_c, 1, 57, 0
1, 494126, Note_off_c, 1, 41, 0
1, 494128, Note_on_c, 1, 40, 127
1, 494128, Note_on_c, 1, 55, 127
1, 494236, Note_off_c, 1, 62, 0
1, 494237, Note_off_c, 1, 40, 0
1, 494238, Note_on_c, 1, 42, 127
1, 494347, Note_off_c, 1, 42, 0
1, 494348, Note_on_c, 1, 64, 127
1, 494457, Note_off_c, 1, 64, 0
1, 494459, Note_on_c, 1, 66, 127
1, 494568, Note_off_c, 1, 66, 0
1, 494569, Note_on_c, 1, 67, 127
1, 494677, Note_off_c, 1, 55, 0
1, 494678, Note_off_c, 1, 67, 0
1, 494680, Note_on_c, 1, 50, 127
1, 494680, Note_on_c, 1, 70, 127
1, 494789, Note_off_c, 1, 50, 0
1, 494789, Note_off_c, 1, 70, 0
1, 494790, Note_on_c, 1, 48, 127
1, 494790, Note_on_c, 1, 69, 127
1, 494899, Note_off_c, 1, 48, 0
1, 494899, Note_off_c, 1, 69, 0
1, 494900, Note_on_c, 1, 46, 127
1, 494900, Note_on_c, 1, 67, 127
1, 495009, Note_off_c, 1, 46, 0
1, 495009, Note_off_c, 1, 67, 0
1, 495011, Note_on_c, 1, 45, 127
1, 495011, Note_on_c, 1, 66, 127
1, 495120, Note_off_c, 1, 45, 0
1, 495120, Note_off_c, 1, 66, 0
1, 495121, Note_on_c, 1, 43, 127
1, 495121, Note_on_c, 1, 67, 127
1, 495230, Note_off_c, 1, 43, 0
1, 495230, Note_off_c, 1, 67, 0
1, 495232, Note_on_c, 1, 42, 127
1, 495232, Note_on_c, 1, 69, 127
1, 495341, Note_off_c, 1, 42, 0
1, 495341, Note_off_c, 1, 69, 0
1, 495342, Note_on_c, 1, 40, 127
1, 495342, Note_on_c, 1, 70, 127
1, 495451, Note_off_c, 1, 40, 0
1, 495451, Note_off_c, 1, 70, 0
1, 495452, Note_on_c, 1, 72, 127
1, 495452, Note_on_c, 1, 38, 127
1, 495561, Note_off_c, 1, 72, 0
1, 495562, Note_off_c, 1, 38, 0
1, 495563, Note_on_c, 1, 40, 127
1, 495563, Note_on_c, 1, 70, 127
1, 495672, Note_off_c, 1, 40, 0
1, 495672, Note_off_c, 1, 70, 0
1, 495673, Note_on_c, 1, 42, 127
1, 495673, Note_on_c, 1, 69, 127
1, 495782, Note_off_c, 1, 42, 0
1, 495782, Note_off_c, 1, 69, 0
1, 495784, Note_on_c, 1, 43, 127
1, 495784, Note_on_c, 1, 70, 127
1, 495893, Note_off_c, 1, 43, 0
1, 495893, Note_off_c, 1, 70, 0
1, 495894, Note_on_c, 1, 45, 127
1, 495894, Note_on_c, 1, 72, 127
1, 496003, Note_off_c, 1, 45, 0
1, 496003, Note_off_c, 1, 72, 0
1, 496004, Note_on_c, 1, 48, 127
1, 496004, Note_on_c, 1, 75, 127
1, 496113, Note_off_c, 1, 48, 0
1, 496113, Note_off_c, 1, 75, 0
1, 496115, Note_on_c, 1, 46, 127
1, 496115, Note_on_c, 1, 74, 127
1, 496224, Note_off_c, 1, 46, 0
1, 496224, Note_off_c, 1, 74, 0
1, 496225, Note_on_c, 1, 45, 127
1, 496225, Note_on_c, 1, 72, 127
1, 496334, Note_off_c, 1, 45, 0
1, 496334, Note_off_c, 1, 72, 0
1, 496336, Note_on_c, 1, 43, 127
1, 496336, Note_on_c, 1, 70, 127
1, 496446, Note_on_c, 1, 69, 127
1, 496555, Note_off_c, 1, 43, 0
1, 496555, Note_off_c, 1, 69, 0
1, 496556, Note_on_c, 1, 67, 127
1, 496556, Note_on_c, 1, 45, 127
1, 496665, Note_off_c, 1, 67, 0
1, 496665, Note_off_c, 1, 45, 0
1, 496667, Note_on_c, 1, 65, 127
1, 496667, Note_on_c, 1, 46, 127
1, 496776, Note_off_c, 1, 65, 0
1, 496776, Note_off_c, 1, 46, 0
1, 496777, Note_on_c, 1, 48, 127
1, 496777, Note_on_c, 1, 64, 127
1, 496886, Note_off_c, 1, 70, 0
1, 496996, Note_off_c, 1, 48, 0
1, 497329, Note_on_c, 1, 74, 127
1, 497438, Note_off_c, 1, 74, 0
1, 497440, Note_on_c, 1, 72, 127
1, 497549, Note_off_c, 1, 72, 0
1, 497659, Note_off_c, 1, 64, 0
1, 497660, Note_on_c, 1, 41, 127
1, 497660, Note_on_c, 1, 69, 127
1, 497769, Note_off_c, 1, 41, 0
1, 497771, Note_on_c, 1, 67, 127
1, 497771, Note_on_c, 1, 52, 127
1, 497880, Note_off_c, 1, 67, 0
1, 497880, Note_off_c, 1, 52, 0
1, 497881, Note_on_c, 1, 65, 127
1, 497881, Note_on_c, 1, 50, 127
1, 497990, Note_off_c, 1, 65, 0
1, 497990, Note_off_c, 1, 50, 0
1, 497992, Note_on_c, 1, 64, 127
1, 497992, Note_on_c, 1, 48, 127
1, 498101, Note_off_c, 1, 64, 0
1, 498101, Note_off_c, 1, 48, 0
1, 498102, Note_on_c, 1, 47, 127
1, 498102, Note_on_c, 1, 62, 127
1, 498210, Note_off_c, 1, 69, 0
1, 498211, Note_off_c, 1, 47, 0
1, 498212, Note_on_c, 1, 49, 127
1, 498321, Note_off_c, 1, 49, 0
1, 498323, Note_on_c, 1, 71, 127
1, 498432, Note_off_c, 1, 71, 0
1, 498433, Note_on_c, 1, 73, 127
1, 498542, Note_off_c, 1, 73, 0
1, 498544, Note_on_c, 1, 53, 127
1, 498544, Note_on_c, 1, 74, 127
1, 498653, Note_off_c, 1, 53, 0
1, 498653, Note_off_c, 1, 74, 0
1, 498654, Note_off_c, 1, 62, 0
1, 498654, Note_on_c, 1, 57, 127
1, 498654, Note_on_c, 1, 77, 127
1, 498763, Note_off_c, 1, 57, 0
1, 498763, Note_off_c, 1, 77, 0
1, 498764, Note_on_c, 1, 55, 127
1, 498764, Note_on_c, 1, 76, 127
1, 498873, Note_off_c, 1, 55, 0
1, 498873, Note_off_c, 1, 76, 0
1, 498875, Note_on_c, 1, 53, 127
1, 498875, Note_on_c, 1, 74, 127
1, 498984, Note_off_c, 1, 53, 0
1, 498984, Note_off_c, 1, 74, 0
1, 498985, Note_on_c, 1, 73, 127
1, 498985, Note_on_c, 1, 52, 127
1, 499094, Note_off_c, 1, 73, 0
1, 499096, Note_on_c, 1, 50, 127
1, 499096, Note_on_c, 1, 74, 127
1, 499098, Note_off_c, 1, 52, 0
1, 499205, Note_off_c, 1, 50, 0
1, 499205, Note_off_c, 1, 74, 0
1, 499206, Note_on_c, 1, 49, 127
1, 499206, Note_on_c, 1, 76, 127
1, 499315, Note_off_c, 1, 49, 0
1, 499315, Note_off_c, 1, 76, 0
1, 499316, Note_on_c, 1, 47, 127
1, 499316, Note_on_c, 1, 77, 127
1, 499425, Note_off_c, 1, 47, 0
1, 499425, Note_off_c, 1, 77, 0
1, 499427, Note_on_c, 1, 45, 127
1, 499427, Note_on_c, 1, 79, 127
1, 499536, Note_off_c, 1, 45, 0
1, 499536, Note_off_c, 1, 79, 0
1, 499537, Note_on_c, 1, 47, 127
1, 499537, Note_on_c, 1, 77, 127
1, 499646, Note_off_c, 1, 47, 0
1, 499646, Note_off_c, 1, 77, 0
1, 499648, Note_on_c, 1, 49, 127
1, 499648, Note_on_c, 1, 76, 127
1, 499757, Note_off_c, 1, 49, 0
1, 499757, Note_off_c, 1, 76, 0
1, 499758, Note_on_c, 1, 50, 127
1, 499758, Note_on_c, 1, 77, 127
1, 499867, Note_off_c, 1, 50, 0
1, 499867, Note_off_c, 1, 77, 0
1, 499868, Note_on_c, 1, 52, 127
1, 499868, Note_on_c, 1, 79, 127
1, 499977, Note_off_c, 1, 52, 0
1, 499977, Note_off_c, 1, 79, 0
1, 499979, Note_on_c, 1, 55, 127
1, 499979, Note_on_c, 1, 82, 127
1, 500088, Note_off_c, 1, 55, 0
1, 500088, Note_off_c, 1, 82, 0
1, 500089, Note_on_c, 1, 53, 127
1, 500089, Note_on_c, 1, 81, 127
1, 500198, Note_off_c, 1, 53, 0
1, 500198, Note_off_c, 1, 81, 0
1, 500200, Note_on_c, 1, 52, 127
1, 500200, Note_on_c, 1, 79, 127
1, 500309, Note_off_c, 1, 52, 0
1, 500309, Note_off_c, 1, 79, 0
1, 500310, Note_on_c, 1, 77, 127
1, 500310, Note_on_c, 1, 81, 127
1, 500310, Note_on_c, 1, 50, 127
1, 500422, Note_off_c, 1, 77, 0
1, 500538, Note_on_c, 1, 76, 127
1, 500650, Note_off_c, 1, 76, 0
1, 500651, Note_on_c, 1, 79, 127
1, 500763, Note_off_c, 1, 79, 0
1, 500764, Note_off_c, 1, 81, 0
1, 500765, Note_on_c, 1, 82, 127
1, 500878, Note_off_c, 1, 50, 0
1, 500879, Note_on_c, 1, 52, 127
1, 500991, Note_off_c, 1, 52, 0
1, 500993, Note_on_c, 1, 53, 127
1, 501105, Note_off_c, 1, 53, 0
1, 501219, Note_off_c, 1, 82, 0
1, 501221, Note_on_c, 1, 77, 127
1, 501221, Note_on_c, 1, 50, 127
1, 501221, Note_on_c, 1, 83, 127
1, 501333, Note_off_c, 1, 77, 0
1, 501333, Note_off_c, 1, 50, 0
1, 501335, Note_on_c, 1, 76, 127
1, 501335, Note_on_c, 1, 52, 127
1, 501447, Note_off_c, 1, 76, 0
1, 501447, Note_off_c, 1, 52, 0
1, 501448, Note_on_c, 1, 74, 127
1, 501448, Note_on_c, 1, 53, 127
1, 501560, Note_off_c, 1, 74, 0
1, 501560, Note_off_c, 1, 53, 0
1, 501562, Note_on_c, 1, 56, 127
1, 501674, Note_off_c, 1, 56, 0
1, 501675, Note_off_c, 1, 83, 0
1, 501676, Note_on_c, 1, 76, 127
1, 501676, Note_on_c, 1, 84, 127
1, 501676, Note_on_c, 1, 57, 127
1, 501791, Note_off_c, 1, 76, 0
1, 501792, Note_on_c, 1, 81, 127
1, 501907, Note_off_c, 1, 81, 0
1, 501908, Note_on_c, 1, 79, 127
1, 502023, Note_off_c, 1, 79, 0
1, 502025, Note_on_c, 1, 77, 127
1, 502139, Note_off_c, 1, 84, 0
1, 502140, Note_off_c, 1, 77, 0
1, 502141, Note_on_c, 1, 45, 127
1, 502373, Note_on_c, 1, 74, 127
1, 502373, Note_on_c, 1, 83, 127
1, 502488, Note_off_c, 1, 74, 0
1, 502489, Note_on_c, 1, 80, 127
1, 502604, Note_off_c, 1, 83, 0
1, 502604, Note_off_c, 1, 80, 0
1, 503067, Note_off_c, 1, 57, 0
1, 503069, Note_off_c, 1, 45, 0
1, 503070, Note_on_c, 1, 72, 127
1, 503070, Note_on_c, 1, 76, 127
1, 503070, Note_on_c, 1, 45, 127
1, 503070, Note_on_c, 1, 57, 127
1, 503185, Note_off_c, 1, 72, 0
1, 503186, Note_on_c, 1, 74, 127
1, 503301, Note_off_c, 1, 74, 0
1, 503418, Note_on_c, 1, 70, 127
1, 503533, Note_off_c, 1, 76, 0
1, 503533, Note_off_c, 1, 70, 0
1, 503535, Note_on_c, 1, 69, 127
1, 503535, Note_on_c, 1, 77, 127
1, 503650, Note_off_c, 1, 69, 0
1, 503998, Note_off_c, 1, 77, 0
1, 503999, Note_on_c, 1, 78, 127
1, 504115, Note_on_c, 1, 75, 127
1, 504230, Note_off_c, 1, 75, 0
1, 504462, Note_off_c, 1, 45, 0
1, 504462, Note_off_c, 1, 57, 0
1, 504462, Note_off_c, 1, 78, 0
1, 504464, Note_on_c, 1, 71, 127
1, 504464, Note_on_c, 1, 79, 127
1, 504464, Note_on_c, 1, 45, 127
1, 504464, Note_on_c, 1, 57, 127
1, 504579, Note_off_c, 1, 71, 0
1, 504580, Note_on_c, 1, 74, 127
1, 504695, Note_off_c, 1, 74, 0
1, 504696, Note_on_c, 1, 72, 127
1, 504811, Note_off_c, 1, 72, 0
1, 504927, Note_off_c, 1, 79, 0
1, 504928, Note_on_c, 1, 76, 127
1, 505043, Note_off_c, 1, 76, 0
1, 505044, Note_on_c, 1, 77, 127
1, 505159, Note_off_c, 1, 77, 0
1, 505161, Note_on_c, 1, 78, 127
1, 505392, Note_off_c, 1, 78, 0
1, 505393, Note_on_c, 1, 73, 127
1, 505508, Note_off_c, 1, 73, 0
1, 505625, Note_on_c, 1, 81, 127
1, 505856, Note_off_c, 1, 45, 0
1, 505856, Note_off_c, 1, 57, 0
1, 505856, Note_off_c, 1, 81, 0
1, 505858, Note_on_c, 1, 69, 127
1, 505858, Note_on_c, 1, 57, 127
1, 505858, Note_on_c, 1, 76, 127
1, 505858, Note_on_c, 1, 73, 127
1, 505858, Note_on_c, 1, 79, 127
1, 505858, Note_on_c, 1, 82, 127
1, 506100, Note_off_c, 1, 69, 0
1, 506100, Note_off_c, 1, 57, 0
1, 506223, Note_on_c, 1, 67, 127
1, 506223, Note_on_c, 1, 55, 127
1, 506343, Note_off_c, 1, 67, 0
1, 506343, Note_off_c, 1, 55, 0
1, 506344, Note_off_c, 1, 76, 0
1, 506344, Note_off_c, 1, 73, 0
1, 506344, Note_off_c, 1, 79, 0
1, 506344, Note_off_c, 1, 82, 0
1, 506345, Note_on_c, 1, 65, 127
1, 506345, Note_on_c, 1, 53, 127
1, 506345, Note_on_c, 1, 77, 127
1, 506345, Note_on_c, 1, 81, 127
1, 506345, Note_on_c, 1, 74, 127
1, 506345, Note_on_c, 1, 69, 127
1, 506587, Note_off_c, 1, 65, 0
1, 506587, Note_off_c, 1, 53, 0
1, 506711, Note_on_c, 1, 64, 127
1, 506711, Note_on_c, 1, 52, 127
1, 506831, Note_off_c, 1, 77, 0
1, 506831, Note_off_c, 1, 81, 0
1, 506831, Note_off_c, 1, 74, 0
1, 506831, Note_off_c, 1, 69, 0
1, 506831, Note_off_c, 1, 64, 0
1, 506831, Note_off_c, 1, 52, 0
1, 506833, Note_on_c, 1, 62, 127
1, 506833, Note_on_c, 1, 50, 127
1, 506833, Note_on_c, 1, 76, 127
1, 506833, Note_on_c, 1, 79, 127
1, 506833, Note_on_c, 1, 70, 127
1, 507075, Note_off_c, 1, 62, 0
1, 507075, Note_off_c, 1, 50, 0
1, 507198, Note_on_c, 1, 61, 127
1, 507198, Note_on_c, 1, 49, 127
1, 507318, Note_off_c, 1, 61, 0
1, 507318, Note_off_c, 1, 49, 0
1, 507319, Note_off_c, 1, 76, 0
1, 507319, Note_off_c, 1, 79, 0
1, 507319, Note_off_c, 1, 70, 0
1, 507320, Note_on_c, 1, 62, 127
1, 507320, Note_on_c, 1, 50, 127
1, 507320, Note_on_c, 1, 77, 127
1, 507320, Note_on_c, 1, 74, 127
1, 507320, Note_on_c, 1, 69, 127
1, 507570, Note_off_c, 1, 62, 0
1, 507570, Note_off_c, 1, 50, 0
1, 507698, Note_on_c, 1, 60, 127
1, 507698, Note_on_c, 1, 48, 127
1, 507821, Note_off_c, 1, 77, 0
1, 507821, Note_off_c, 1, 74, 0
1, 507821, Note_off_c, 1, 69, 0
1, 507822, Note_off_c, 1, 60, 0
1, 507822, Note_off_c, 1, 48, 0
1, 507823, Note_on_c, 1, 58, 127
1, 507823, Note_on_c, 1, 46, 127
1, 507823, Note_on_c, 1, 79, 127
1, 507823, Note_on_c, 1, 74, 127
1, 507823, Note_on_c, 1, 67, 127
1, 508073, Note_off_c, 1, 58, 0
1, 508073, Note_off_c, 1, 46, 0
1, 508073, Note_off_c, 1, 79, 0
1, 508073, Note_off_c, 1, 74, 0
1, 508073, Note_off_c, 1, 67, 0
1, 508075, Note_on_c, 1, 58, 127
1, 508075, Note_on_c, 1, 46, 127
1, 508075, Note_on_c, 1, 74, 127
1, 508075, Note_on_c, 1, 77, 127
1, 508075, Note_on_c, 1, 69, 127
1, 508199, Note_off_c, 1, 58, 0
1, 508199, Note_off_c, 1, 46, 0
1, 508200, Note_on_c, 1, 57, 127
1, 508200, Note_on_c, 1, 45, 127
1, 508324, Note_off_c, 1, 74, 0
1, 508324, Note_off_c, 1, 77, 0
1, 508324, Note_off_c, 1, 69, 0
1, 508324, Note_off_c, 1, 57, 0
1, 508324, Note_off_c, 1, 45, 0
1, 508325, Note_on_c, 1, 55, 127
1, 508325, Note_on_c, 1, 43, 127
1, 508325, Note_on_c, 1, 73, 127
1, 508325, Note_on_c, 1, 76, 127
1, 508325, Note_on_c, 1, 70, 127
1, 508655, Note_off_c, 1, 55, 0
1, 508655, Note_off_c, 1, 43, 0
1, 508655, Note_off_c, 1, 73, 0
1, 508655, Note_off_c, 1, 76, 0
1, 508655, Note_off_c, 1, 70, 0
1, 508658, Note_on_c, 1, 55, 127
1, 508658, Note_on_c, 1, 43, 127
1, 508658, Note_on_c, 1, 69, 127
1, 508658, Note_on_c, 1, 74, 127
1, 508848, Note_off_c, 1, 55, 0
1, 508848, Note_off_c, 1, 43, 0
1, 508851, Note_on_c, 1, 53, 127
1, 508851, Note_on_c, 1, 41, 127
1, 509041, Note_off_c, 1, 53, 0
1, 509041, Note_off_c, 1, 41, 0
1, 509042, Note_off_c, 1, 69, 0
1, 509042, Note_off_c, 1, 74, 0
1, 509044, Note_on_c, 1, 52, 127
1, 509044, Note_on_c, 1, 55, 127
1, 509044, Note_on_c, 1, 43, 127
1, 509044, Note_on_c, 1, 46, 127
1, 509044, Note_on_c, 1, 64, 127
1, 509044, Note_on_c, 1, 70, 127
1, 509044, Note_on_c, 1, 74, 127
1, 509044, Note_on_c, 1, 76, 127
1, 510544, Note_off_c, 1, 52, 0
1, 510544, Note_off_c, 1, 55, 0
1, 510544, Note_off_c, 1, 43, 0
1, 510544, Note_off_c, 1, 46, 0
1, 510544, Note_off_c, 1, 64, 0
1, 510544, Note_off_c, 1, 70, 0
1, 510544, Note_off_c, 1, 74, 0
1, 510544, Note_off_c, 1, 76, 0
1, 510789, Note_on_c, 1, 33, 127
1, 510789, Note_on_c, 1, 45, 127
1, 511109, Note_off_c, 1, 33, 0
1, 511109, Note_off_c, 1, 45, 0
1, 511110, Note_on_c, 1, 35, 127
1, 511110, Note_on_c, 1, 47, 127
1, 511173, Note_off_c, 1, 35, 0
1, 511173, Note_off_c, 1, 47, 0
1, 511174, Note_on_c, 1, 37, 127
1, 511174, Note_on_c, 1, 49, 127
1, 511237, Note_off_c, 1, 37, 0
1, 511237, Note_off_c, 1, 49, 0
1, 511239, Note_on_c, 1, 38, 127
1, 511239, Note_on_c, 1, 50, 127
1, 511302, Note_off_c, 1, 38, 0
1, 511302, Note_off_c, 1, 50, 0
1, 511303, Note_on_c, 1, 40, 127
1, 511303, Note_on_c, 1, 52, 127
1, 511366, Note_off_c, 1, 40, 0
1, 511366, Note_off_c, 1, 52, 0
1, 511368, Note_on_c, 1, 41, 127
1, 511368, Note_on_c, 1, 53, 127
1, 511431, Note_off_c, 1, 41, 0
1, 511431, Note_off_c, 1, 53, 0
1, 511432, Note_on_c, 1, 43, 127
1, 511432, Note_on_c, 1, 55, 127
1, 511495, Note_off_c, 1, 43, 0
1, 511495, Note_off_c, 1, 55, 0
1, 511496, Note_on_c, 1, 45, 127
1, 511496, Note_on_c, 1, 57, 127
1, 511559, Note_off_c, 1, 45, 0
1, 511559, Note_off_c, 1, 57, 0
1, 511561, Note_on_c, 1, 47, 127
1, 511561, Note_on_c, 1, 59, 127
1, 511624, Note_off_c, 1, 47, 0
1, 511624, Note_off_c, 1, 59, 0
1, 511625, Note_on_c, 1, 49, 127
1, 511625, Note_on_c, 1, 61, 127
1, 511688, Note_off_c, 1, 49, 0
1, 511688, Note_off_c, 1, 61, 0
1, 511690, Note_on_c, 1, 50, 127
1, 511690, Note_on_c, 1, 62, 127
1, 511753, Note_off_c, 1, 50, 0
1, 511753, Note_off_c, 1, 62, 0
1, 511754, Note_on_c, 1, 52, 127
1, 511754, Note_on_c, 1, 64, 127
1, 511817, Note_off_c, 1, 52, 0
1, 511817, Note_off_c, 1, 64, 0
1, 511818, Note_on_c, 1, 53, 127
1, 511818, Note_on_c, 1, 65, 127
1, 511881, Note_off_c, 1, 53, 0
1, 511881, Note_off_c, 1, 65, 0
1, 511883, Note_on_c, 1, 55, 127
1, 511883, Note_on_c, 1, 67, 127
1, 511946, Note_off_c, 1, 55, 0
1, 511946, Note_off_c, 1, 67, 0
1, 511947, Note_on_c, 1, 57, 127
1, 511947, Note_on_c, 1, 69, 127
1, 512010, Note_off_c, 1, 57, 0
1, 512010, Note_off_c, 1, 69, 0
1, 512012, Note_on_c, 1, 59, 127
1, 512012, Note_on_c, 1, 71, 127
1, 512075, Note_off_c, 1, 59, 0
1, 512075, Note_off_c, 1, 71, 0
1, 512076, Note_on_c, 1, 61, 127
1, 512076, Note_on_c, 1, 73, 127
1, 512139, Note_off_c, 1, 61, 0
1, 512139, Note_off_c, 1, 73, 0
1, 512140, Note_on_c, 1, 62, 127
1, 512140, Note_on_c, 1, 74, 127
1, 512203, Note_off_c, 1, 62, 0
1, 512203, Note_off_c, 1, 74, 0
1, 512205, Note_on_c, 1, 64, 127
1, 512205, Note_on_c, 1, 76, 127
1, 512268, Note_off_c, 1, 64, 0
1, 512268, Note_off_c, 1, 76, 0
1, 512269, Note_on_c, 1, 65, 127
1, 512269, Note_on_c, 1, 77, 127
1, 512332, Note_off_c, 1, 65, 0
1, 512332, Note_off_c, 1, 77, 0
1, 512334, Note_on_c, 1, 67, 127
1, 512334, Note_on_c, 1, 79, 127
1, 512734, Note_off_c, 1, 67, 0
1, 512734, Note_off_c, 1, 79, 0
1, 512735, Note_on_c, 1, 64, 127
1, 512735, Note_on_c, 1, 76, 127
1, 512862, Note_off_c, 1, 64, 0
1, 512862, Note_off_c, 1, 76, 0
1, 512864, Note_on_c, 1, 62, 127
1, 512864, Note_on_c, 1, 74, 127
1, 512991, Note_off_c, 1, 62, 0
1, 512991, Note_off_c, 1, 74, 0
1, 512993, Note_on_c, 1, 61, 127
1, 512993, Note_on_c, 1, 73, 127
1, 513056, Note_off_c, 1, 61, 0
1, 513056, Note_off_c, 1, 73, 0
1, 513057, Note_on_c, 1, 62, 127
1, 513057, Note_on_c, 1, 74, 127
1, 513120, Note_off_c, 1, 62, 0
1, 513120, Note_off_c, 1, 74, 0
1, 513122, Note_on_c, 1, 61, 127
1, 513122, Note_on_c, 1, 73, 127
1, 513185, Note_off_c, 1, 61, 0
1, 513185, Note_off_c, 1, 73, 0
1, 513186, Note_on_c, 1, 62, 127
1, 513186, Note_on_c, 1, 74, 127
1, 513249, Note_off_c, 1, 62, 0
1, 513249, Note_off_c, 1, 74, 0
1, 513253, Note_on_c, 1, 61, 127
1, 513253, Note_on_c, 1, 73, 127
1, 513316, Note_off_c, 1, 61, 0
1, 513316, Note_off_c, 1, 73, 0
1, 513317, Note_on_c, 1, 62, 127
1, 513317, Note_on_c, 1, 74, 127
1, 513378, Note_on_c, 1, 73, 127
1, 513378, Note_on_c, 1, 61, 127
1, 513380, Note_off_c, 1, 62, 0
1, 513380, Note_off_c, 1, 74, 0
1, 513441, Note_off_c, 1, 73, 0
1, 513441, Note_off_c, 1, 61, 0
1, 513443, Note_on_c, 1, 74, 127
1, 513443, Note_on_c, 1, 62, 127
1, 513506, Note_off_c, 1, 74, 0
1, 513506, Note_off_c, 1, 62, 0
1, 513507, Note_on_c, 1, 73, 127
1, 513507, Note_on_c, 1, 61, 127
1, 514022, Note_on_c, 1, 45, 127
1, 514022, Note_on_c, 1, 52, 127
1, 514022, Note_on_c, 1, 55, 127
1, 514022, Note_on_c, 1, 57, 127
1, 514805, Note_on_c, 1, 62, 127
1, 514805, Note_on_c, 1, 74, 127
1, 514807, Note_off_c, 1, 73, 0
1, 514807, Note_off_c, 1, 61, 0
1, 515051, Note_off_c, 1, 45, 0
1, 515051, Note_off_c, 1, 52, 0
1, 515051, Note_off_c, 1, 55, 0
1, 515051, Note_off_c, 1, 57, 0
1, 515085, Note_on_c, 1, 50, 127
1, 515085, Note_on_c, 1, 66, 127
1, 515085, Note_on_c, 1, 69, 127
1, 515085, Note_on_c, 1, 54, 127
1, 516373, Note_on_c, 1, 38, 127
1, 520736, Note_off_c, 1, 62, 0
1, 520736, Note_off_c, 1, 74, 0
1, 520736, Note_off_c, 1, 50, 0
1, 520736, Note_off_c, 1, 66, 0
1, 520736, Note_off_c, 1, 69, 0
1, 520736, Note_off_c, 1, 54, 0
1, 520736, Note_off_c, 1, 38, 0
1, 520736, End_track
0, 0, End_of_file