0, 0, Header, 1, 1, 480
1, 0, Start_track
1, 0, Title_t, "Test"
1, 0, Tempo, 500000
1, 0, Instrument_name_t, "Church Organ"
1, 96, Note_on_c, 1, 54, 127
1, 96, Note_on_c, 1, 50, 127
1, 96, Note_on_c, 1, 57, 127
1, 490, Note_on_c, 1, 69, 127
1, 883, Note_off_c, 1, 54, 0
1, 884, Note_on_c, 1, 78, 127
1, 1080, Note_off_c, 1, 78, 0
1, 1081, Note_on_c, 1, 76, 127
1, 1276, Note_off_c, 1, 50, 0
1, 1277, Note_off_c, 1, 57, 0
1, 1277, Note_off_c, 1, 76, 0
1, 1278, Note_on_c, 1, 61, 127
1, 1670, Note_off_c, 1, 69, 0
1, 2065, Note_off_c, 1, 61, 0
1, 2066, Note_on_c, 1, 57, 127
1, 2066, Note_on_c, 1, 55, 127
1, 2066, Note_on_c, 1, 61, 127
1, 2066, Note_on_c, 1, 69, 127
1, 2066, Note_on_c, 1, 64, 127
1, 2066, Note_on_c, 1, 73, 127
1, 2459, Note_off_c, 1, 57, 0
1, 2459, Note_off_c, 1, 55, 0
1, 2459, Note_off_c, 1, 61, 0
1, 2459, Note_off_c, 1, 69, 0
1, 2459, Note_off_c, 1, 64, 0
1, 2459, Note_off_c, 1, 73, 0
1, 2460, Note_on_c, 1, 54, 127
1, 2460, Note_on_c, 1, 74, 127
1, 2460, Note_on_c, 1, 57, 127
1, 2460, Note_on_c, 1, 62, 127
1, 2460, Note_on_c, 1, 66, 127
1, 2460, Note_on_c, 1, 69, 127
1, 2853, Note_off_c, 1, 54, 0
1, 2853, Note_off_c, 1, 74, 0
1, 2854, Note_on_c, 1, 52, 127
1, 2854, Note_on_c, 1, 76, 127
1, 3247, Note_off_c, 1, 57, 0
1, 3247, Note_off_c, 1, 62, 0
1, 3247, Note_off_c, 1, 66, 0
1, 3247, Note_off_c, 1, 52, 0
1, 3247, Note_off_c, 1, 76, 0
1, 3248, Note_on_c, 1, 50, 127
1, 3248, Note_on_c, 1, 78, 127
1, 3640, Note_off_c, 1, 69, 0
1, 3641, Note_off_c, 1, 50, 0
1, 3641, Note_off_c, 1, 78, 0
1, 3642, Note_on_c, 1, 69, 127
1, 3642, Note_on_c, 1, 73, 127
1, 3642, Note_on_c, 1, 57, 127
1, 3642, Note_on_c, 1, 64, 127
1, 4035, Note_off_c, 1, 69, 0
1, 4035, Note_off_c, 1, 73, 0
1, 4429, Note_off_c, 1, 57, 0
1, 4429, Note_off_c, 1, 64, 0
1, 4430, Note_on_c, 1, 54, 127
1, 4430, Note_on_c, 1, 57, 127
1, 4430, Note_on_c, 1, 66, 127
1, 4430, Note_on_c, 1, 69, 127
1, 4430, Note_on_c, 1, 74, 127
1, 4430, Note_on_c, 1, 62, 127
1, 4823, Note_off_c, 1, 54, 0
1, 4823, Note_off_c, 1, 57, 0
1, 4823, Note_off_c, 1, 66, 0
1, 4823, Note_off_c, 1, 69, 0
1, 4823, Note_off_c, 1, 74, 0
1, 4823, Note_off_c, 1, 62, 0
1, 4824, Note_on_c, 1, 55, 127
1, 4824, Note_on_c, 1, 71, 127
1, 4824, Note_on_c, 1, 67, 127
1, 4824, Note_on_c, 1, 59, 127
1, 4824, Note_on_c, 1, 62, 127
1, 5217, Note_off_c, 1, 55, 0
1, 5217, Note_off_c, 1, 71, 0
1, 5217, Note_off_c, 1, 67, 0
1, 5218, Note_on_c, 1, 54, 127
1, 5218, Note_on_c, 1, 69, 127
1, 5611, Note_off_c, 1, 54, 0
1, 5611, Note_off_c, 1, 69, 0
1, 5612, Note_on_c, 1, 52, 127
1, 6004, Note_off_c, 1, 59, 0
1, 6004, Note_off_c, 1, 62, 0
1, 6005, Note_off_c, 1, 52, 0
1, 6006, Note_on_c, 1, 54, 127
1, 6006, Note_on_c, 1, 69, 127
1, 6006, Note_on_c, 1, 57, 127
1, 6006, Note_on_c, 1, 62, 127
1, 6399, Note_off_c, 1, 54, 0
1, 6399, Note_off_c, 1, 69, 0
1, 6400, Note_on_c, 1, 52, 127
1, 6400, Note_on_c, 1, 67, 127
1, 6793, Note_off_c, 1, 52, 0
1, 6793, Note_off_c, 1, 67, 0
1, 6794, Note_on_c, 1, 50, 127
1, 6794, Note_on_c, 1, 66, 127
1, 7186, Note_off_c, 1, 57, 0
1, 7186, Note_off_c, 1, 62, 0
1, 7187, Note_off_c, 1, 50, 0
1, 7187, Note_off_c, 1, 66, 0
1, 7188, Note_on_c, 1, 71, 127
1, 7188, Note_on_c, 1, 62, 127
1, 7188, Note_on_c, 1, 43, 127
1, 7188, Note_on_c, 1, 55, 127
1, 7188, Note_on_c, 1, 52, 127
1, 7384, Note_off_c, 1, 71, 0
1, 7385, Note_on_c, 1, 64, 127
1, 7578, Note_off_c, 1, 62, 0
1, 7581, Note_off_c, 1, 43, 0
1, 7581, Note_off_c, 1, 55, 0
1, 7581, Note_off_c, 1, 64, 0
1, 7582, Note_on_c, 1, 66, 127
1, 7582, Note_on_c, 1, 61, 127
1, 7582, Note_on_c, 1, 45, 127
1, 7713, Note_off_c, 1, 66, 0
1, 7976, Note_off_c, 1, 52, 0
1, 8173, Note_off_c, 1, 61, 0
1, 8370, Note_off_c, 1, 45, 0
1, 8371, Note_on_c, 1, 54, 127
1, 8371, Note_on_c, 1, 50, 127
1, 8371, Note_on_c, 1, 62, 127
1, 8371, Note_on_c, 1, 57, 127
1, 8765, Note_on_c, 1, 69, 127
1, 9158, Note_off_c, 1, 54, 0
1, 9158, Note_off_c, 1, 50, 0
1, 9158, Note_off_c, 1, 62, 0
1, 9158, Note_off_c, 1, 57, 0
1, 9158, Note_off_c, 1, 69, 0
1, 9159, Note_on_c, 1, 78, 127
1, 9355, Note_off_c, 1, 78, 0
1, 9356, Note_on_c, 1, 76, 127
1, 9552, Note_off_c, 1, 76, 0
1, 9553, Note_on_c, 1, 76, 127
1, 9946, Note_off_c, 1, 76, 0
1, 9947, Note_on_c, 1, 57, 127
1, 9947, Note_on_c, 1, 69, 127
1, 10340, Note_off_c, 1, 57, 0
1, 10341, Note_on_c, 1, 66, 127
1, 10537, Note_off_c, 1, 66, 0
1, 10538, Note_on_c, 1, 64, 127
1, 10734, Note_off_c, 1, 64, 0
1, 11127, Note_off_c, 1, 69, 0
1, 11523, Note_on_c, 1, 67, 127
1, 11523, Note_on_c, 1, 69, 127
1, 11523, Note_on_c, 1, 73, 127
1, 11916, Note_off_c, 1, 67, 0
1, 11916, Note_off_c, 1, 69, 0
1, 11916, Note_off_c, 1, 73, 0
1, 11917, Note_on_c, 1, 66, 127
1, 11917, Note_on_c, 1, 71, 127
1, 11917, Note_on_c, 1, 69, 127
1, 11917, Note_on_c, 1, 74, 127
1, 12310, Note_off_c, 1, 66, 0
1, 12310, Note_off_c, 1, 71, 0
1, 12310, Note_off_c, 1, 69, 0
1, 12310, Note_off_c, 1, 74, 0
1, 12311, Note_on_c, 1, 64, 127
1, 12311, Note_on_c, 1, 73, 127
1, 12311, Note_on_c, 1, 67, 127
1, 12311, Note_on_c, 1, 76, 127
1, 12704, Note_off_c, 1, 64, 0
1, 12704, Note_off_c, 1, 73, 0
1, 12704, Note_off_c, 1, 67, 0
1, 12704, Note_off_c, 1, 76, 0
1, 12705, Note_on_c, 1, 62, 127
1, 12705, Note_on_c, 1, 69, 127
1, 12705, Note_on_c, 1, 74, 127
1, 12705, Note_on_c, 1, 78, 127
1, 13098, Note_off_c, 1, 62, 0
1, 13098, Note_off_c, 1, 69, 0
1, 13098, Note_off_c, 1, 74, 0
1, 13098, Note_off_c, 1, 78, 0
1, 13099, Note_on_c, 1, 69, 127
1, 13099, Note_on_c, 1, 73, 127
1, 13099, Note_on_c, 1, 64, 127
1, 13099, Note_on_c, 1, 57, 127
1, 13492, Note_off_c, 1, 69, 0
1, 13492, Note_off_c, 1, 73, 0
1, 13493, Note_on_c, 1, 61, 127
1, 13886, Note_off_c, 1, 64, 0
1, 13886, Note_off_c, 1, 57, 0
1, 13886, Note_off_c, 1, 61, 0
1, 13887, Note_on_c, 1, 54, 127
1, 13887, Note_on_c, 1, 57, 127
1, 13887, Note_on_c, 1, 69, 127
1, 13887, Note_on_c, 1, 66, 127
1, 13887, Note_on_c, 1, 74, 127
1, 13887, Note_on_c, 1, 62, 127
1, 14280, Note_off_c, 1, 54, 0
1, 14280, Note_off_c, 1, 57, 0
1, 14280, Note_off_c, 1, 69, 0
1, 14280, Note_off_c, 1, 66, 0
1, 14280, Note_off_c, 1, 74, 0
1, 14280, Note_off_c, 1, 62, 0
1, 14281, Note_on_c, 1, 55, 127
1, 14281, Note_on_c, 1, 71, 127
1, 14281, Note_on_c, 1, 67, 127
1, 14281, Note_on_c, 1, 62, 127
1, 14674, Note_off_c, 1, 55, 0
1, 14674, Note_off_c, 1, 71, 0
1, 14674, Note_off_c, 1, 67, 0
1, 14675, Note_on_c, 1, 57, 127
1, 14675, Note_on_c, 1, 66, 127
1, 14675, Note_on_c, 1, 69, 127
1, 15068, Note_off_c, 1, 62, 0
1, 15068, Note_off_c, 1, 57, 0
1, 15068, Note_off_c, 1, 66, 0
1, 15068, Note_off_c, 1, 69, 0
1, 15069, Note_on_c, 1, 59, 127
1, 15069, Note_on_c, 1, 64, 127
1, 15069, Note_on_c, 1, 67, 127
1, 15462, Note_off_c, 1, 59, 0
1, 15462, Note_off_c, 1, 64, 0
1, 15462, Note_off_c, 1, 67, 0
1, 15463, Note_on_c, 1, 54, 127
1, 15463, Note_on_c, 1, 66, 127
1, 15463, Note_on_c, 1, 69, 127
1, 15463, Note_on_c, 1, 62, 127
1, 15856, Note_off_c, 1, 54, 0
1, 15856, Note_off_c, 1, 66, 0
1, 15856, Note_off_c, 1, 69, 0
1, 15857, Note_on_c, 1, 55, 127
1, 15857, Note_on_c, 1, 64, 127
1, 15857, Note_on_c, 1, 67, 127
1, 16250, Note_off_c, 1, 62, 0
1, 16250, Note_off_c, 1, 55, 0
1, 16250, Note_off_c, 1, 64, 0
1, 16250, Note_off_c, 1, 67, 0
1, 16251, Note_on_c, 1, 57, 127
1, 16251, Note_on_c, 1, 62, 127
1, 16251, Note_on_c, 1, 66, 127
1, 16644, Note_off_c, 1, 57, 0
1, 16644, Note_off_c, 1, 62, 0
1, 16644, Note_off_c, 1, 66, 0
1, 16645, Note_on_c, 1, 71, 127
1, 16645, Note_on_c, 1, 55, 127
1, 16645, Note_on_c, 1, 62, 127
1, 16841, Note_off_c, 1, 71, 0
1, 16842, Note_on_c, 1, 64, 127
1, 17038, Note_off_c, 1, 55, 0
1, 17038, Note_off_c, 1, 64, 0
1, 17039, Note_on_c, 1, 57, 127
1, 17236, Note_on_c, 1, 66, 127
1, 17432, Note_off_c, 1, 62, 0
1, 17432, Note_off_c, 1, 66, 0
1, 17433, Note_on_c, 1, 67, 127
1, 17433, Note_on_c, 1, 61, 127
1, 17629, Note_off_c, 1, 67, 0
1, 17630, Note_on_c, 1, 69, 127
1, 17823, Note_off_c, 1, 61, 0
1, 17826, Note_off_c, 1, 57, 0
1, 17826, Note_off_c, 1, 69, 0
1, 17827, Note_on_c, 1, 66, 127
1, 17827, Note_on_c, 1, 62, 127
1, 18220, Note_off_c, 1, 66, 0
1, 18220, Note_off_c, 1, 62, 0
1, 18221, Note_on_c, 1, 62, 127
1, 18221, Note_on_c, 1, 59, 127
1, 18417, Note_off_c, 1, 62, 0
1, 18418, Note_on_c, 1, 64, 127
1, 18614, Note_off_c, 1, 64, 0
1, 18615, Note_on_c, 1, 66, 127
1, 18811, Note_off_c, 1, 66, 0
1, 18812, Note_on_c, 1, 67, 127
1, 19008, Note_off_c, 1, 59, 0
1, 19008, Note_off_c, 1, 67, 0
1, 19009, Note_on_c, 1, 61, 127
1, 19009, Note_on_c, 1, 66, 127
1, 19009, Note_on_c, 1, 64, 127
1, 19009, Note_on_c, 1, 69, 127
1, 19402, Note_off_c, 1, 61, 0
1, 19402, Note_off_c, 1, 66, 0
1, 19402, Note_off_c, 1, 64, 0
1, 19402, Note_off_c, 1, 69, 0
1, 19403, Note_on_c, 1, 59, 127
1, 19403, Note_on_c, 1, 71, 127
1, 19403, Note_on_c, 1, 68, 127
1, 19403, Note_on_c, 1, 62, 127
1, 19796, Note_off_c, 1, 59, 0
1, 19796, Note_off_c, 1, 71, 0
1, 19796, Note_off_c, 1, 68, 0
1, 19796, Note_off_c, 1, 62, 0
1, 19797, Note_on_c, 1, 57, 127
1, 19797, Note_on_c, 1, 64, 127
1, 19797, Note_on_c, 1, 73, 127
1, 19797, Note_on_c, 1, 61, 127
1, 19797, Note_on_c, 1, 69, 127
1, 20190, Note_off_c, 1, 57, 0
1, 20190, Note_off_c, 1, 64, 0
1, 20190, Note_off_c, 1, 73, 0
1, 20190, Note_off_c, 1, 61, 0
1, 20190, Note_off_c, 1, 69, 0
1, 20191, Note_on_c, 1, 56, 127
1, 20191, Note_on_c, 1, 74, 127
1, 20191, Note_on_c, 1, 59, 127
1, 20191, Note_on_c, 1, 71, 127
1, 20191, Note_on_c, 1, 64, 127
1, 20584, Note_off_c, 1, 56, 0
1, 20584, Note_off_c, 1, 74, 0
1, 20585, Note_on_c, 1, 76, 127
1, 20585, Note_on_c, 1, 52, 127
1, 20781, Note_off_c, 1, 76, 0
1, 20978, Note_off_c, 1, 59, 0
1, 20978, Note_off_c, 1, 71, 0
1, 20978, Note_off_c, 1, 64, 0
1, 20978, Note_off_c, 1, 52, 0
1, 20979, Note_on_c, 1, 73, 127
1, 20979, Note_on_c, 1, 69, 127
1, 20979, Note_on_c, 1, 64, 127
1, 20979, Note_on_c, 1, 57, 127
1, 21175, Note_off_c, 1, 73, 0
1, 21176, Note_on_c, 1, 74, 127
1, 21369, Note_off_c, 1, 69, 0
1, 21369, Note_off_c, 1, 64, 0
1, 21372, Note_off_c, 1, 57, 0
1, 21372, Note_off_c, 1, 74, 0
1, 21373, Note_on_c, 1, 62, 127
1, 21373, Note_on_c, 1, 71, 127
1, 21373, Note_on_c, 1, 50, 127
1, 21373, Note_on_c, 1, 66, 127
1, 21569, Note_off_c, 1, 62, 0
1, 21569, Note_off_c, 1, 71, 0
1, 21570, Note_on_c, 1, 61, 127
1, 21570, Note_on_c, 1, 69, 127
1, 21763, Note_off_c, 1, 50, 0
1, 21763, Note_off_c, 1, 66, 0
1, 21766, Note_off_c, 1, 61, 0
1, 21766, Note_off_c, 1, 69, 0
1, 21767, Note_on_c, 1, 69, 127
1, 21767, Note_on_c, 1, 59, 127
1, 21767, Note_on_c, 1, 52, 127
1, 21767, Note_on_c, 1, 64, 127
1, 21898, Note_off_c, 1, 69, 0
1, 21898, Note_on_c, 1, 68, 127
1, 21964, Note_off_c, 1, 68, 0
1, 22161, Note_off_c, 1, 59, 0
1, 22162, Note_on_c, 1, 62, 127
1, 22555, Note_off_c, 1, 52, 0
1, 22555, Note_off_c, 1, 64, 0
1, 22555, Note_off_c, 1, 62, 0
1, 22556, Note_on_c, 1, 64, 127
1, 22556, Note_on_c, 1, 57, 127
1, 22556, Note_on_c, 1, 61, 127
1, 22556, Note_on_c, 1, 69, 127
1, 22949, Note_off_c, 1, 64, 0
1, 22966, Note_on_c, 1, 73, 127
1, 22966, Note_on_c, 1, 76, 127
1, 23343, Note_off_c, 1, 57, 0
1, 23343, Note_off_c, 1, 61, 0
1, 23343, Note_off_c, 1, 69, 0
1, 23359, Note_off_c, 1, 73, 0
1, 23359, Note_off_c, 1, 76, 0
1, 23360, Note_on_c, 1, 78, 127
1, 23360, Note_on_c, 1, 74, 127
1, 23753, Note_off_c, 1, 78, 0
1, 23753, Note_off_c, 1, 74, 0
1, 23754, Note_on_c, 1, 76, 127
1, 23754, Note_on_c, 1, 79, 127
1, 24148, Note_on_c, 1, 64, 127
1, 24148, Note_on_c, 1, 67, 127
1, 24541, Note_off_c, 1, 64, 0
1, 24541, Note_off_c, 1, 67, 0
1, 24542, Note_on_c, 1, 69, 127
1, 24542, Note_on_c, 1, 66, 127
1, 24934, Note_off_c, 1, 76, 0
1, 24934, Note_off_c, 1, 79, 0
1, 24935, Note_off_c, 1, 69, 0
1, 24935, Note_off_c, 1, 66, 0
1, 24936, Note_on_c, 1, 71, 127
1, 24936, Note_on_c, 1, 67, 127
1, 25329, Note_off_c, 1, 71, 0
1, 25329, Note_off_c, 1, 67, 0
1, 25330, Note_on_c, 1, 74, 127
1, 25330, Note_on_c, 1, 71, 127
1, 25330, Note_on_c, 1, 69, 127
1, 25330, Note_on_c, 1, 66, 127
1, 25723, Note_off_c, 1, 74, 0
1, 25723, Note_off_c, 1, 71, 0
1, 25723, Note_off_c, 1, 69, 0
1, 25723, Note_off_c, 1, 66, 0
1, 25724, Note_on_c, 1, 76, 127
1, 25724, Note_on_c, 1, 73, 127
1, 25724, Note_on_c, 1, 67, 127
1, 25724, Note_on_c, 1, 64, 127
1, 26117, Note_off_c, 1, 76, 0
1, 26117, Note_off_c, 1, 73, 0
1, 26117, Note_off_c, 1, 67, 0
1, 26117, Note_off_c, 1, 64, 0
1, 26118, Note_on_c, 1, 78, 127
1, 26118, Note_on_c, 1, 62, 127
1, 26118, Note_on_c, 1, 74, 127
1, 26118, Note_on_c, 1, 69, 127
1, 26511, Note_off_c, 1, 78, 0
1, 26511, Note_off_c, 1, 62, 0
1, 26512, Note_on_c, 1, 79, 127
1, 26512, Note_on_c, 1, 64, 127
1, 26905, Note_off_c, 1, 79, 0
1, 26905, Note_off_c, 1, 64, 0
1, 26906, Note_on_c, 1, 81, 127
1, 26906, Note_on_c, 1, 66, 127
1, 27298, Note_off_c, 1, 74, 0
1, 27298, Note_off_c, 1, 69, 0
1, 27299, Note_off_c, 1, 81, 0
1, 27299, Note_off_c, 1, 66, 0
1, 27300, Note_on_c, 1, 79, 127
1, 27300, Note_on_c, 1, 83, 127
1, 27300, Note_on_c, 1, 67, 127
1, 27496, Note_off_c, 1, 79, 0
1, 27496, Note_off_c, 1, 83, 0
1, 27497, Note_on_c, 1, 81, 127
1, 27497, Note_on_c, 1, 78, 127
1, 27693, Note_off_c, 1, 67, 0
1, 27693, Note_off_c, 1, 81, 0
1, 27693, Note_off_c, 1, 78, 0
1, 27694, Note_on_c, 1, 61, 127
1, 27694, Note_on_c, 1, 76, 127
1, 27792, Note_on_c, 1, 78, 127
1, 27858, Note_off_c, 1, 78, 0
1, 27891, Note_on_c, 1, 79, 127
1, 28087, Note_off_c, 1, 61, 0
1, 28088, Note_on_c, 1, 62, 127
1, 28281, Note_off_c, 1, 79, 0
1, 28284, Note_off_c, 1, 76, 0
1, 28285, Note_on_c, 1, 74, 127
1, 28481, Note_off_c, 1, 62, 0
1, 28481, Note_off_c, 1, 74, 0
1, 28482, Note_on_c, 1, 55, 127
1, 28482, Note_on_c, 1, 76, 127
1, 28482, Note_on_c, 1, 74, 127
1, 28875, Note_off_c, 1, 55, 0
1, 28876, Note_on_c, 1, 52, 127
1, 29072, Note_off_c, 1, 76, 0
1, 29073, Note_on_c, 1, 78, 127
1, 29269, Note_off_c, 1, 74, 0
1, 29269, Note_off_c, 1, 52, 0
1, 29269, Note_off_c, 1, 78, 0
1, 29270, Note_on_c, 1, 79, 127
1, 29270, Note_on_c, 1, 73, 127
1, 29270, Note_on_c, 1, 57, 127
1, 29466, Note_off_c, 1, 79, 0
1, 29467, Note_on_c, 1, 81, 127
1, 29660, Note_off_c, 1, 73, 0
1, 29663, Note_off_c, 1, 57, 0
1, 29663, Note_off_c, 1, 81, 0
1, 29664, Note_on_c, 1, 78, 127
1, 29664, Note_on_c, 1, 62, 127
1, 29664, Note_on_c, 1, 74, 127
1, 29860, Note_off_c, 1, 78, 0
1, 29860, Note_off_c, 1, 62, 0
1, 29861, Note_on_c, 1, 79, 127
1, 29861, Note_on_c, 1, 55, 127
1, 30057, Note_off_c, 1, 79, 0
1, 30057, Note_off_c, 1, 55, 0
1, 30058, Note_on_c, 1, 57, 127
1, 30189, Note_on_c, 1, 76, 127
1, 30255, Note_off_c, 1, 76, 0
1, 30452, Note_off_c, 1, 74, 0
1, 30452, Note_off_c, 1, 57, 0
1, 30453, Note_on_c, 1, 73, 127
1, 30453, Note_on_c, 1, 45, 127
1, 30843, Note_off_c, 1, 73, 0
1, 30846, Note_off_c, 1, 45, 0
1, 30847, Note_on_c, 1, 50, 127
1, 30847, Note_on_c, 1, 74, 127
1, 30847, Note_on_c, 1, 69, 127
1, 30847, Note_on_c, 1, 66, 127
1, 31216, Note_off_c, 1, 50, 0
1, 31237, Note_off_c, 1, 74, 0
1, 31237, Note_off_c, 1, 69, 0
1, 31240, Note_off_c, 1, 66, 0
1, 31257, Note_on_c, 1, 66, 127
1, 31651, Note_on_c, 1, 74, 127
1, 31847, Note_off_c, 1, 74, 0
1, 31848, Note_on_c, 1, 73, 127
1, 32044, Note_off_c, 1, 73, 0
1, 32437, Note_off_c, 1, 66, 0
1, 32439, Note_on_c, 1, 54, 127
1, 32439, Note_on_c, 1, 66, 127
1, 32832, Note_off_c, 1, 54, 0
1, 32833, Note_on_c, 1, 62, 127
1, 32833, Note_on_c, 1, 71, 127
1, 33029, Note_off_c, 1, 62, 0
1, 33029, Note_off_c, 1, 71, 0
1, 33030, Note_on_c, 1, 61, 127
1, 33030, Note_on_c, 1, 70, 127
1, 33226, Note_off_c, 1, 61, 0
1, 33226, Note_off_c, 1, 70, 0
1, 33619, Note_off_c, 1, 66, 0
1, 33621, Note_on_c, 1, 62, 127
1, 33621, Note_on_c, 1, 71, 127
1, 33817, Note_off_c, 1, 62, 0
1, 33817, Note_off_c, 1, 71, 0
1, 33818, Note_on_c, 1, 64, 127
1, 33818, Note_on_c, 1, 70, 127
1, 34014, Note_off_c, 1, 64, 0
1, 34014, Note_off_c, 1, 70, 0
1, 34015, Note_on_c, 1, 62, 127
1, 34015, Note_on_c, 1, 71, 127
1, 34211, Note_off_c, 1, 62, 0
1, 34211, Note_off_c, 1, 71, 0
1, 34212, Note_on_c, 1, 61, 127
1, 34212, Note_on_c, 1, 73, 127
1, 34408, Note_off_c, 1, 61, 0
1, 34408, Note_off_c, 1, 73, 0
1, 34409, Note_on_c, 1, 74, 127
1, 34409, Note_on_c, 1, 59, 127
1, 34802, Note_off_c, 1, 74, 0
1, 34803, Note_on_c, 1, 71, 127
1, 35196, Note_off_c, 1, 59, 0
1, 35196, Note_off_c, 1, 71, 0
1, 35197, Note_on_c, 1, 79, 127
1, 35197, Note_on_c, 1, 62, 127
1, 35197, Note_on_c, 1, 59, 127
1, 35393, Note_off_c, 1, 79, 0
1, 35394, Note_on_c, 1, 78, 127
1, 35590, Note_off_c, 1, 62, 0
1, 35590, Note_off_c, 1, 78, 0
1, 35591, Note_on_c, 1, 61, 127
1, 35984, Note_off_c, 1, 59, 0
1, 35985, Note_on_c, 1, 58, 127
1, 35985, Note_on_c, 1, 73, 127
1, 36378, Note_off_c, 1, 61, 0
1, 36378, Note_off_c, 1, 58, 0
1, 36378, Note_off_c, 1, 73, 0
1, 36379, Note_on_c, 1, 74, 127
1, 36379, Note_on_c, 1, 59, 127
1, 36772, Note_off_c, 1, 74, 0
1, 36773, Note_on_c, 1, 76, 127
1, 36773, Note_on_c, 1, 52, 127
1, 36969, Note_off_c, 1, 76, 0
1, 36970, Note_on_c, 1, 78, 127
1, 37067, Note_off_c, 1, 78, 0
1, 37068, Note_on_c, 1, 79, 127
1, 37165, Note_off_c, 1, 52, 0
1, 37165, Note_off_c, 1, 79, 0
1, 37166, Note_on_c, 1, 54, 127
1, 37556, Note_off_c, 1, 59, 0
1, 37558, Note_on_c, 1, 58, 127
1, 37558, Note_on_c, 1, 73, 127
1, 37754, Note_off_c, 1, 58, 0
1, 37754, Note_off_c, 1, 73, 0
1, 37755, Note_on_c, 1, 71, 127
1, 37951, Note_off_c, 1, 54, 0
1, 37951, Note_off_c, 1, 71, 0
1, 37952, Note_on_c, 1, 59, 127
1, 37952, Note_on_c, 1, 47, 127
1, 37952, Note_on_c, 1, 71, 127
1, 38363, Note_off_c, 1, 59, 0
1, 38378, Note_on_c, 1, 66, 127
1, 38378, Note_on_c, 1, 62, 127
1, 38392, Note_off_c, 1, 47, 0
1, 38727, Note_off_c, 1, 71, 0
1, 38771, Note_off_c, 1, 66, 0
1, 38771, Note_off_c, 1, 62, 0
1, 38772, Note_on_c, 1, 74, 127
1, 38772, Note_on_c, 1, 47, 127
1, 38772, Note_on_c, 1, 59, 127
1, 38772, Note_on_c, 1, 66, 127
1, 38968, Note_off_c, 1, 74, 0
1, 38969, Note_on_c, 1, 73, 127
1, 39165, Note_off_c, 1, 47, 0
1, 39165, Note_off_c, 1, 73, 0
1, 39166, Note_on_c, 1, 54, 127
1, 39559, Note_off_c, 1, 59, 0
1, 39559, Note_off_c, 1, 66, 0
1, 39560, Note_on_c, 1, 58, 127
1, 39953, Note_off_c, 1, 54, 0
1, 39953, Note_off_c, 1, 58, 0
1, 39954, Note_on_c, 1, 52, 127
1, 39954, Note_on_c, 1, 61, 127
1, 39954, Note_on_c, 1, 66, 127
1, 39954, Note_on_c, 1, 70, 127
1, 40347, Note_off_c, 1, 52, 0
1, 40347, Note_off_c, 1, 61, 0
1, 40347, Note_off_c, 1, 66, 0
1, 40347, Note_off_c, 1, 70, 0
1, 40348, Note_on_c, 1, 50, 127
1, 40348, Note_on_c, 1, 71, 127
1, 40348, Note_on_c, 1, 59, 127
1, 40348, Note_on_c, 1, 66, 127
1, 40741, Note_off_c, 1, 50, 0
1, 40741, Note_off_c, 1, 71, 0
1, 40742, Note_on_c, 1, 49, 127
1, 40742, Note_on_c, 1, 73, 127
1, 41135, Note_off_c, 1, 49, 0
1, 41135, Note_off_c, 1, 73, 0
1, 41136, Note_on_c, 1, 47, 127
1, 41136, Note_on_c, 1, 74, 127
1, 41528, Note_off_c, 1, 59, 0
1, 41529, Note_off_c, 1, 47, 0
1, 41529, Note_off_c, 1, 74, 0
1, 41530, Note_on_c, 1, 70, 127
1, 41530, Note_on_c, 1, 61, 127
1, 41530, Note_on_c, 1, 54, 127
1, 41918, Note_off_c, 1, 66, 0
1, 41923, Note_off_c, 1, 70, 0
1, 42317, Note_off_c, 1, 61, 0
1, 42317, Note_off_c, 1, 54, 0
1, 42334, Note_on_c, 1, 66, 127
1, 42334, Note_on_c, 1, 63, 127
1, 42335, Note_on_c, 1, 71, 127
1, 42335, Note_on_c, 1, 78, 127
1, 42335, Note_on_c, 1, 83, 127
1, 42727, Note_off_c, 1, 66, 0
1, 42727, Note_off_c, 1, 63, 0
1, 42728, Note_off_c, 1, 78, 0
1, 42728, Note_off_c, 1, 83, 0
1, 42728, Note_on_c, 1, 76, 127
1, 42728, Note_on_c, 1, 79, 127
1, 42728, Note_on_c, 1, 67, 127
1, 42728, Note_on_c, 1, 64, 127
1, 43121, Note_off_c, 1, 71, 0
1, 43121, Note_off_c, 1, 76, 0
1, 43121, Note_off_c, 1, 79, 0
1, 43121, Note_off_c, 1, 67, 0
1, 43121, Note_off_c, 1, 64, 0
1, 43122, Note_on_c, 1, 78, 127
1, 43122, Note_on_c, 1, 74, 127
1, 43122, Note_on_c, 1, 66, 127
1, 43515, Note_off_c, 1, 78, 0
1, 43515, Note_off_c, 1, 74, 0
1, 43515, Note_off_c, 1, 66, 0
1, 43516, Note_on_c, 1, 76, 127
1, 43516, Note_on_c, 1, 73, 127
1, 43516, Note_on_c, 1, 67, 127
1, 43909, Note_off_c, 1, 76, 0
1, 43909, Note_off_c, 1, 73, 0
1, 43909, Note_off_c, 1, 67, 0
1, 43910, Note_on_c, 1, 78, 127
1, 43910, Note_on_c, 1, 73, 127
1, 43910, Note_on_c, 1, 58, 127
1, 43910, Note_on_c, 1, 66, 127
1, 44303, Note_off_c, 1, 78, 0
1, 44304, Note_on_c, 1, 76, 127
1, 44697, Note_off_c, 1, 73, 0
1, 44697, Note_off_c, 1, 58, 0
1, 44697, Note_off_c, 1, 66, 0
1, 44697, Note_off_c, 1, 76, 0
1, 44698, Note_on_c, 1, 74, 127
1, 44698, Note_on_c, 1, 66, 127
1, 44698, Note_on_c, 1, 62, 127
1, 44698, Note_on_c, 1, 59, 127
1, 44698, Note_on_c, 1, 71, 127
1, 45091, Note_off_c, 1, 74, 0
1, 45091, Note_off_c, 1, 66, 0
1, 45091, Note_off_c, 1, 62, 0
1, 45091, Note_off_c, 1, 59, 0
1, 45092, Note_on_c, 1, 79, 127
1, 45092, Note_on_c, 1, 52, 127
1, 45092, Note_on_c, 1, 61, 127
1, 45288, Note_off_c, 1, 79, 0
1, 45289, Note_on_c, 1, 73, 127
1, 45485, Note_off_c, 1, 71, 0
1, 45485, Note_off_c, 1, 52, 0
1, 45485, Note_off_c, 1, 73, 0
1, 45486, Note_on_c, 1, 70, 127
1, 45486, Note_on_c, 1, 54, 127
1, 45880, Note_off_c, 1, 61, 0
1, 45881, Note_on_c, 1, 64, 127
1, 46274, Note_off_c, 1, 70, 0
1, 46274, Note_off_c, 1, 54, 0
1, 46274, Note_off_c, 1, 64, 0
1, 46275, Note_on_c, 1, 62, 127
1, 46275, Note_on_c, 1, 66, 127
1, 46275, Note_on_c, 1, 71, 127
1, 46275, Note_on_c, 1, 59, 127
1, 46665, Note_off_c, 1, 62, 0
1, 46668, Note_off_c, 1, 66, 0
1, 46668, Note_off_c, 1, 71, 0
1, 47062, Note_off_c, 1, 59, 0
1, 47095, Note_on_c, 1, 67, 127
1, 47291, Note_off_c, 1, 67, 0
1, 47489, Note_on_c, 1, 66, 127
1, 47882, Note_off_c, 1, 66, 0
1, 47883, Note_on_c, 1, 62, 127
1, 47883, Note_on_c, 1, 57, 127
1, 47883, Note_on_c, 1, 50, 127
1, 48276, Note_off_c, 1, 62, 0
1, 48276, Note_off_c, 1, 57, 0
1, 48277, Note_on_c, 1, 66, 127
1, 48474, Note_on_c, 1, 60, 127
1, 48670, Note_off_c, 1, 50, 0
1, 48670, Note_off_c, 1, 66, 0
1, 48670, Note_off_c, 1, 60, 0
1, 48671, Note_on_c, 1, 67, 127
1, 48671, Note_on_c, 1, 64, 127
1, 48671, Note_on_c, 1, 59, 127
1, 49064, Note_off_c, 1, 67, 0
1, 49064, Note_off_c, 1, 64, 0
1, 49064, Note_off_c, 1, 59, 0
1, 49065, Note_on_c, 1, 69, 127
1, 49065, Note_on_c, 1, 66, 127
1, 49065, Note_on_c, 1, 57, 127
1, 49458, Note_off_c, 1, 69, 0
1, 49458, Note_off_c, 1, 66, 0
1, 49458, Note_off_c, 1, 57, 0
1, 49459, Note_on_c, 1, 67, 127
1, 49459, Note_on_c, 1, 71, 127
1, 49459, Note_on_c, 1, 55, 127
1, 49852, Note_off_c, 1, 67, 0
1, 49852, Note_off_c, 1, 71, 0
1, 49852, Note_off_c, 1, 55, 0
1, 49853, Note_on_c, 1, 62, 127
1, 49853, Note_on_c, 1, 69, 127
1, 49853, Note_on_c, 1, 66, 127
1, 50243, Note_off_c, 1, 62, 0
1, 50246, Note_off_c, 1, 69, 0
1, 50640, Note_off_c, 1, 66, 0
1, 50652, Note_on_c, 1, 69, 127
1, 50652, Note_on_c, 1, 66, 127
1, 50652, Note_on_c, 1, 62, 127
1, 51045, Note_off_c, 1, 69, 0
1, 51045, Note_off_c, 1, 66, 0
1, 51045, Note_off_c, 1, 62, 0
1, 51051, Note_on_c, 1, 62, 127
1, 51051, Note_on_c, 1, 68, 127
1, 51051, Note_on_c, 1, 71, 127
1, 51444, Note_off_c, 1, 62, 0
1, 51444, Note_off_c, 1, 68, 0
1, 51444, Note_off_c, 1, 71, 0
1, 51445, Note_on_c, 1, 64, 127
1, 51445, Note_on_c, 1, 61, 127
1, 51445, Note_on_c, 1, 73, 127
1, 51445, Note_on_c, 1, 70, 127
1, 51838, Note_off_c, 1, 64, 0
1, 51838, Note_off_c, 1, 61, 0
1, 51838, Note_off_c, 1, 73, 0
1, 51838, Note_off_c, 1, 70, 0
1, 51839, Note_on_c, 1, 66, 127
1, 51839, Note_on_c, 1, 59, 127
1, 51839, Note_on_c, 1, 74, 127
1, 51839, Note_on_c, 1, 71, 127
1, 52232, Note_off_c, 1, 66, 0
1, 52232, Note_off_c, 1, 59, 0
1, 52232, Note_off_c, 1, 74, 0
1, 52232, Note_off_c, 1, 71, 0
1, 52233, Note_on_c, 1, 69, 127
1, 52233, Note_on_c, 1, 73, 127
1, 52233, Note_on_c, 1, 66, 127
1, 52626, Note_off_c, 1, 69, 0
1, 52626, Note_off_c, 1, 73, 0
1, 53020, Note_off_c, 1, 66, 0
1, 53029, Note_on_c, 1, 73, 127
1, 53029, Note_on_c, 1, 69, 127
1, 53029, Note_on_c, 1, 67, 127
1, 53422, Note_off_c, 1, 73, 0
1, 53422, Note_off_c, 1, 69, 0
1, 53422, Note_off_c, 1, 67, 0
1, 53431, Note_on_c, 1, 75, 127
1, 53431, Note_on_c, 1, 69, 127
1, 53431, Note_on_c, 1, 66, 127
1, 53824, Note_off_c, 1, 75, 0
1, 53824, Note_off_c, 1, 69, 0
1, 53824, Note_off_c, 1, 66, 0
1, 53825, Note_on_c, 1, 76, 127
1, 53825, Note_on_c, 1, 71, 127
1, 53825, Note_on_c, 1, 67, 127
1, 53825, Note_on_c, 1, 64, 127
1, 54218, Note_off_c, 1, 76, 0
1, 54218, Note_off_c, 1, 71, 0
1, 54218, Note_off_c, 1, 67, 0
1, 54218, Note_off_c, 1, 64, 0
1, 54219, Note_on_c, 1, 78, 127
1, 54219, Note_on_c, 1, 63, 127
1, 54219, Note_on_c, 1, 66, 127
1, 54219, Note_on_c, 1, 71, 127
1, 54612, Note_off_c, 1, 78, 0
1, 54612, Note_off_c, 1, 63, 0
1, 54612, Note_off_c, 1, 66, 0
1, 54613, Note_on_c, 1, 79, 127
1, 54613, Note_on_c, 1, 64, 127
1, 54907, Note_off_c, 1, 79, 0
1, 55005, Note_off_c, 1, 71, 0
1, 55006, Note_on_c, 1, 76, 127
1, 55006, Note_on_c, 1, 67, 127
1, 55293, Note_on_c, 1, 74, 127
1, 55300, Note_off_c, 1, 76, 0
1, 55390, Note_off_c, 1, 74, 0
1, 55395, Note_off_c, 1, 67, 0
1, 55398, Note_off_c, 1, 64, 0
1, 55399, Note_on_c, 1, 72, 127
1, 55399, Note_on_c, 1, 57, 127
1, 55399, Note_on_c, 1, 64, 127
1, 55686, Note_on_c, 1, 71, 127
1, 55693, Note_off_c, 1, 72, 0
1, 55783, Note_off_c, 1, 71, 0
1, 55792, Note_on_c, 1, 69, 127
1, 56079, Note_on_c, 1, 67, 127
1, 56086, Note_off_c, 1, 69, 0
1, 56176, Note_off_c, 1, 67, 0
1, 56184, Note_off_c, 1, 57, 0
1, 56185, Note_on_c, 1, 59, 127
1, 56251, Note_on_c, 1, 66, 127
1, 56317, Note_off_c, 1, 66, 0
1, 56578, Note_off_c, 1, 64, 0
1, 56580, Note_on_c, 1, 63, 127
1, 56970, Note_off_c, 1, 63, 0
1, 56973, Note_off_c, 1, 59, 0
1, 56974, Note_on_c, 1, 55, 127
1, 56974, Note_on_c, 1, 64, 127
1, 56974, Note_on_c, 1, 52, 127
1, 56974, Note_on_c, 1, 59, 127
1, 57384, Note_on_c, 1, 71, 127
1, 57564, Note_off_c, 1, 55, 0
1, 57761, Note_off_c, 1, 64, 0
1, 57761, Note_off_c, 1, 52, 0
1, 57761, Note_off_c, 1, 59, 0
1, 57777, Note_off_c, 1, 71, 0
1, 57794, Note_on_c, 1, 79, 127
1, 57990, Note_off_c, 1, 79, 0
1, 57991, Note_on_c, 1, 78, 127
1, 58187, Note_off_c, 1, 78, 0
1, 58188, Note_on_c, 1, 78, 127
1, 58581, Note_off_c, 1, 78, 0
1, 58582, Note_on_c, 1, 59, 127
1, 58582, Note_on_c, 1, 71, 127
1, 58975, Note_off_c, 1, 59, 0
1, 58976, Note_on_c, 1, 67, 127
1, 59172, Note_off_c, 1, 67, 0
1, 59173, Note_on_c, 1, 66, 127
1, 59369, Note_off_c, 1, 66, 0
1, 60032, Note_off_c, 1, 71, 0
1, 60158, Note_on_c, 1, 63, 127
1, 60158, Note_on_c, 1, 59, 127
1, 60158, Note_on_c, 1, 57, 127
1, 60158, Note_on_c, 1, 66, 127
1, 60158, Note_on_c, 1, 71, 127
1, 60158, Note_on_c, 1, 75, 127
1, 60551, Note_off_c, 1, 63, 0
1, 60551, Note_off_c, 1, 59, 0
1, 60551, Note_off_c, 1, 57, 0
1, 60551, Note_off_c, 1, 66, 0
1, 60551, Note_off_c, 1, 71, 0
1, 60551, Note_off_c, 1, 75, 0
1, 60552, Note_on_c, 1, 55, 127
1, 60552, Note_on_c, 1, 76, 127
1, 60552, Note_on_c, 1, 59, 127
1, 60552, Note_on_c, 1, 64, 127
1, 60552, Note_on_c, 1, 71, 127
1, 60942, Note_off_c, 1, 55, 0
1, 60945, Note_off_c, 1, 76, 0
1, 60946, Note_on_c, 1, 54, 127
1, 60946, Note_on_c, 1, 78, 127
1, 61339, Note_off_c, 1, 59, 0
1, 61339, Note_off_c, 1, 64, 0
1, 61339, Note_off_c, 1, 71, 0
1, 61339, Note_off_c, 1, 54, 0
1, 61339, Note_off_c, 1, 78, 0
1, 61340, Note_on_c, 1, 52, 127
1, 61340, Note_on_c, 1, 59, 127
1, 61340, Note_on_c, 1, 64, 127
1, 61340, Note_on_c, 1, 76, 127
1, 61340, Note_on_c, 1, 71, 127
1, 61340, Note_on_c, 1, 79, 127
1, 61733, Note_off_c, 1, 52, 0
1, 61733, Note_off_c, 1, 59, 0
1, 61733, Note_off_c, 1, 64, 0
1, 61733, Note_off_c, 1, 76, 0
1, 61733, Note_off_c, 1, 71, 0
1, 61733, Note_off_c, 1, 79, 0
1, 61734, Note_on_c, 1, 71, 127
1, 61734, Note_on_c, 1, 75, 127
1, 61734, Note_on_c, 1, 59, 127
1, 61734, Note_on_c, 1, 66, 127
1, 62127, Note_off_c, 1, 71, 0
1, 62127, Note_off_c, 1, 75, 0
1, 62128, Note_on_c, 1, 47, 127
1, 62521, Note_off_c, 1, 59, 0
1, 62521, Note_off_c, 1, 66, 0
1, 62521, Note_off_c, 1, 47, 0
1, 62522, Note_on_c, 1, 55, 127
1, 62522, Note_on_c, 1, 59, 127
1, 62522, Note_on_c, 1, 67, 127
1, 62522, Note_on_c, 1, 64, 127
1, 62522, Note_on_c, 1, 71, 127
1, 62522, Note_on_c, 1, 76, 127
1, 62915, Note_off_c, 1, 55, 0
1, 62915, Note_off_c, 1, 59, 0
1, 62915, Note_off_c, 1, 67, 0
1, 62915, Note_off_c, 1, 64, 0
1, 62915, Note_off_c, 1, 71, 0
1, 62915, Note_off_c, 1, 76, 0
1, 62916, Note_on_c, 1, 57, 127
1, 62916, Note_on_c, 1, 69, 127
1, 62916, Note_on_c, 1, 72, 127
1, 62916, Note_on_c, 1, 60, 127
1, 62916, Note_on_c, 1, 64, 127
1, 63309, Note_off_c, 1, 57, 0
1, 63309, Note_off_c, 1, 69, 0
1, 63309, Note_off_c, 1, 72, 0
1, 63310, Note_on_c, 1, 55, 127
1, 63310, Note_on_c, 1, 71, 127
1, 63703, Note_off_c, 1, 60, 0
1, 63703, Note_off_c, 1, 64, 0
1, 63703, Note_off_c, 1, 55, 0
1, 63703, Note_off_c, 1, 71, 0
1, 63704, Note_on_c, 1, 54, 127
1, 63704, Note_on_c, 1, 57, 127
1, 63704, Note_on_c, 1, 59, 127
1, 63704, Note_on_c, 1, 63, 127
1, 63704, Note_on_c, 1, 69, 127
1, 64097, Note_off_c, 1, 54, 0
1, 64097, Note_off_c, 1, 57, 0
1, 64097, Note_off_c, 1, 59, 0
1, 64097, Note_off_c, 1, 63, 0
1, 64097, Note_off_c, 1, 69, 0
1, 64098, Note_on_c, 1, 55, 127
1, 64098, Note_on_c, 1, 71, 127
1, 64098, Note_on_c, 1, 59, 127
1, 64098, Note_on_c, 1, 64, 127
1, 64491, Note_off_c, 1, 55, 0
1, 64491, Note_off_c, 1, 71, 0
1, 64492, Note_on_c, 1, 54, 127
1, 64492, Note_on_c, 1, 69, 127
1, 64885, Note_off_c, 1, 59, 0
1, 64885, Note_off_c, 1, 64, 0
1, 64885, Note_off_c, 1, 54, 0
1, 64885, Note_off_c, 1, 69, 0
1, 64886, Note_on_c, 1, 52, 127
1, 64886, Note_on_c, 1, 59, 127
1, 64886, Note_on_c, 1, 67, 127
1, 64886, Note_on_c, 1, 64, 127
1, 65279, Note_off_c, 1, 52, 0
1, 65279, Note_off_c, 1, 59, 0
1, 65279, Note_off_c, 1, 67, 0
1, 65280, Note_on_c, 1, 72, 127
1, 65280, Note_on_c, 1, 45, 127
1, 65280, Note_on_c, 1, 54, 127
1, 65280, Note_on_c, 1, 57, 127
1, 65476, Note_off_c, 1, 72, 0
1, 65477, Note_on_c, 1, 66, 127
1, 65673, Note_off_c, 1, 45, 0
1, 65673, Note_off_c, 1, 66, 0
1, 65674, Note_on_c, 1, 47, 127
1, 66067, Note_off_c, 1, 64, 0
1, 66068, Note_off_c, 1, 54, 0
1, 66068, Note_off_c, 1, 57, 0
1, 66069, Note_on_c, 1, 63, 127
1, 66459, Note_off_c, 1, 63, 0
1, 66462, Note_off_c, 1, 47, 0
1, 66463, Note_on_c, 1, 59, 127
1, 66463, Note_on_c, 1, 64, 127
1, 66463, Note_on_c, 1, 52, 127
1, 66463, Note_on_c, 1, 55, 127
1, 66856, Note_off_c, 1, 59, 0
1, 66856, Note_off_c, 1, 64, 0
1, 66873, Note_on_c, 1, 67, 127
1, 66873, Note_on_c, 1, 76, 127
1, 67250, Note_off_c, 1, 52, 0
1, 67250, Note_off_c, 1, 55, 0
1, 67266, Note_off_c, 1, 67, 0
1, 67266, Note_off_c, 1, 76, 0
1, 67267, Note_on_c, 1, 78, 127
1, 67267, Note_on_c, 1, 69, 127
1, 67660, Note_off_c, 1, 78, 0
1, 67660, Note_off_c, 1, 69, 0
1, 67661, Note_on_c, 1, 71, 127
1, 67661, Note_on_c, 1, 79, 127
1, 68071, Note_on_c, 1, 67, 127
1, 68071, Note_on_c, 1, 64, 127
1, 68464, Note_off_c, 1, 67, 0
1, 68464, Note_off_c, 1, 64, 0
1, 68465, Note_on_c, 1, 66, 127
1, 68465, Note_on_c, 1, 69, 127
1, 68841, Note_off_c, 1, 71, 0
1, 68841, Note_off_c, 1, 79, 0
1, 68858, Note_off_c, 1, 66, 0
1, 68858, Note_off_c, 1, 69, 0
1, 68859, Note_on_c, 1, 71, 127
1, 68859, Note_on_c, 1, 67, 127
1, 69252, Note_off_c, 1, 71, 0
1, 69252, Note_off_c, 1, 67, 0
1, 69269, Note_on_c, 1, 76, 127
1, 69269, Note_on_c, 1, 83, 127
1, 69269, Note_on_c, 1, 71, 127
1, 69269, Note_on_c, 1, 67, 127
1, 69662, Note_off_c, 1, 76, 0
1, 69662, Note_off_c, 1, 83, 0
1, 69662, Note_off_c, 1, 71, 0
1, 69662, Note_off_c, 1, 67, 0
1, 69663, Note_on_c, 1, 71, 127
1, 69663, Note_on_c, 1, 75, 127
1, 69663, Note_on_c, 1, 69, 127
1, 69663, Note_on_c, 1, 66, 127
1, 70056, Note_off_c, 1, 71, 0
1, 70056, Note_off_c, 1, 75, 0
1, 70056, Note_off_c, 1, 69, 0
1, 70056, Note_off_c, 1, 66, 0
1, 70057, Note_on_c, 1, 76, 127
1, 70057, Note_on_c, 1, 64, 127
1, 70057, Note_on_c, 1, 67, 127
1, 70057, Note_on_c, 1, 71, 127
1, 70450, Note_off_c, 1, 76, 0
1, 70450, Note_off_c, 1, 64, 0
1, 70450, Note_off_c, 1, 67, 0
1, 70451, Note_on_c, 1, 78, 127
1, 70451, Note_on_c, 1, 63, 127
1, 70451, Note_on_c, 1, 66, 127
1, 70844, Note_off_c, 1, 71, 0
1, 70844, Note_off_c, 1, 78, 0
1, 70844, Note_off_c, 1, 63, 0
1, 70844, Note_off_c, 1, 66, 0
1, 70845, Note_on_c, 1, 71, 127
1, 70845, Note_on_c, 1, 79, 127
1, 70845, Note_on_c, 1, 64, 127
1, 71238, Note_off_c, 1, 71, 0
1, 71238, Note_off_c, 1, 79, 0
1, 71238, Note_off_c, 1, 64, 0
1, 71239, Note_on_c, 1, 71, 127
1, 71239, Note_on_c, 1, 75, 127
1, 71239, Note_on_c, 1, 66, 127
1, 71239, Note_on_c, 1, 59, 127
1, 71632, Note_off_c, 1, 71, 0
1, 71632, Note_off_c, 1, 75, 0
1, 71632, Note_off_c, 1, 66, 0
1, 71633, Note_on_c, 1, 63, 127
1, 72026, Note_off_c, 1, 59, 0
1, 72026, Note_off_c, 1, 63, 0
1, 72027, Note_on_c, 1, 59, 127
1, 72027, Note_on_c, 1, 63, 127
1, 72027, Note_on_c, 1, 57, 127
1, 72420, Note_off_c, 1, 59, 0
1, 72420, Note_off_c, 1, 63, 0
1, 72420, Note_off_c, 1, 57, 0
1, 72421, Note_on_c, 1, 61, 127
1, 72421, Note_on_c, 1, 64, 127
1, 72421, Note_on_c, 1, 59, 127
1, 72421, Note_on_c, 1, 55, 127
1, 72814, Note_off_c, 1, 61, 0
1, 72814, Note_off_c, 1, 64, 0
1, 72814, Note_off_c, 1, 59, 0
1, 72814, Note_off_c, 1, 55, 0
1, 72815, Note_on_c, 1, 66, 127
1, 72815, Note_on_c, 1, 63, 127
1, 72815, Note_on_c, 1, 57, 127
1, 72815, Note_on_c, 1, 54, 127
1, 73208, Note_off_c, 1, 66, 0
1, 73208, Note_off_c, 1, 63, 0
1, 73208, Note_off_c, 1, 57, 0
1, 73208, Note_off_c, 1, 54, 0
1, 73209, Note_on_c, 1, 64, 127
1, 73209, Note_on_c, 1, 67, 127
1, 73209, Note_on_c, 1, 52, 127
1, 73209, Note_on_c, 1, 59, 127
1, 73602, Note_off_c, 1, 64, 0
1, 73602, Note_off_c, 1, 67, 0
1, 73602, Note_off_c, 1, 52, 0
1, 73602, Note_off_c, 1, 59, 0
1, 73603, Note_on_c, 1, 51, 127
1, 73603, Note_on_c, 1, 69, 127
1, 73603, Note_on_c, 1, 66, 127
1, 73603, Note_on_c, 1, 59, 127
1, 73996, Note_off_c, 1, 51, 0
1, 73997, Note_on_c, 1, 47, 127
1, 74193, Note_off_c, 1, 69, 0
1, 74194, Note_on_c, 1, 71, 127
1, 74390, Note_off_c, 1, 66, 0
1, 74390, Note_off_c, 1, 59, 0
1, 74390, Note_off_c, 1, 47, 0
1, 74390, Note_off_c, 1, 71, 0
1, 74391, Note_on_c, 1, 67, 127
1, 74391, Note_on_c, 1, 59, 127
1, 74391, Note_on_c, 1, 52, 127
1, 74391, Note_on_c, 1, 64, 127
1, 74587, Note_off_c, 1, 67, 0
1, 74588, Note_on_c, 1, 66, 127
1, 74784, Note_off_c, 1, 59, 0
1, 74784, Note_off_c, 1, 52, 0
1, 74784, Note_off_c, 1, 66, 0
1, 74785, Note_on_c, 1, 45, 127
1, 74785, Note_on_c, 1, 60, 127
1, 74982, Note_on_c, 1, 69, 127
1, 75178, Note_off_c, 1, 64, 0
1, 75178, Note_off_c, 1, 45, 0
1, 75178, Note_off_c, 1, 60, 0
1, 75178, Note_off_c, 1, 69, 0
1, 75179, Note_on_c, 1, 67, 127
1, 75179, Note_on_c, 1, 59, 127
1, 75179, Note_on_c, 1, 63, 127
1, 75179, Note_on_c, 1, 47, 127
1, 75245, Note_on_c, 1, 66, 127
1, 75246, Note_off_c, 1, 67, 0
1, 75312, Note_off_c, 1, 66, 0
1, 75574, Note_off_c, 1, 59, 0
1, 75575, Note_on_c, 1, 57, 127
1, 75771, Note_off_c, 1, 63, 0
1, 75772, Note_on_c, 1, 64, 127
1, 75956, Note_off_c, 1, 64, 0
1, 75968, Note_off_c, 1, 47, 0
1, 75968, Note_off_c, 1, 57, 0
1, 75969, Note_on_c, 1, 59, 127
1, 75969, Note_on_c, 1, 64, 127
1, 75969, Note_on_c, 1, 52, 127
1, 75969, Note_on_c, 1, 55, 127
1, 76362, Note_off_c, 1, 59, 0
1, 76395, Note_on_c, 1, 76, 127
1, 76395, Note_on_c, 1, 71, 127
1, 76395, Note_on_c, 1, 67, 127
1, 76449, Note_off_c, 1, 64, 0
1, 76756, Note_off_c, 1, 52, 0
1, 76756, Note_off_c, 1, 55, 0
1, 76788, Note_off_c, 1, 76, 0
1, 76788, Note_off_c, 1, 71, 0
1, 76788, Note_off_c, 1, 67, 0
1, 76789, Note_on_c, 1, 69, 127
1, 76789, Note_on_c, 1, 74, 127
1, 76789, Note_on_c, 1, 66, 127
1, 77182, Note_off_c, 1, 69, 0
1, 77182, Note_off_c, 1, 74, 0
1, 77182, Note_off_c, 1, 66, 0
1, 77183, Note_on_c, 1, 67, 127
1, 77183, Note_on_c, 1, 64, 127
1, 77183, Note_on_c, 1, 72, 127
1, 77576, Note_off_c, 1, 67, 0
1, 77576, Note_off_c, 1, 64, 0
1, 77576, Note_off_c, 1, 72, 0
1, 77577, Note_on_c, 1, 69, 127
1, 77577, Note_on_c, 1, 74, 127
1, 77577, Note_on_c, 1, 66, 127
1, 77970, Note_off_c, 1, 69, 0
1, 77970, Note_off_c, 1, 74, 0
1, 77970, Note_off_c, 1, 66, 0
1, 77971, Note_on_c, 1, 76, 127
1, 77971, Note_on_c, 1, 71, 127
1, 77971, Note_on_c, 1, 67, 127
1, 78364, Note_off_c, 1, 76, 0
1, 78364, Note_off_c, 1, 71, 0
1, 78364, Note_off_c, 1, 67, 0
1, 78365, Note_on_c, 1, 78, 127
1, 78365, Note_on_c, 1, 69, 127
1, 78365, Note_on_c, 1, 72, 127
1, 78758, Note_off_c, 1, 78, 0
1, 78758, Note_off_c, 1, 69, 0
1, 78758, Note_off_c, 1, 72, 0
1, 78759, Note_on_c, 1, 74, 127
1, 78759, Note_on_c, 1, 71, 127
1, 78759, Note_on_c, 1, 79, 127
1, 79152, Note_off_c, 1, 74, 0
1, 79152, Note_off_c, 1, 71, 0
1, 79152, Note_off_c, 1, 79, 0
1, 79153, Note_on_c, 1, 78, 127
1, 79153, Note_on_c, 1, 72, 127
1, 79153, Note_on_c, 1, 69, 127
1, 79546, Note_off_c, 1, 78, 0
1, 79546, Note_off_c, 1, 72, 0
1, 79546, Note_off_c, 1, 69, 0
1, 79547, Note_on_c, 1, 74, 127
1, 79547, Note_on_c, 1, 83, 127
1, 79547, Note_on_c, 1, 67, 127
1, 79940, Note_off_c, 1, 74, 0
1, 79941, Note_on_c, 1, 72, 127
1, 80137, Note_off_c, 1, 83, 0
1, 80138, Note_on_c, 1, 81, 127
1, 80331, Note_off_c, 1, 72, 0
1, 80334, Note_off_c, 1, 81, 0
1, 80335, Note_on_c, 1, 79, 127
1, 80335, Note_on_c, 1, 71, 127
1, 80531, Note_off_c, 1, 79, 0
1, 80532, Note_on_c, 1, 78, 127
1, 80727, Note_off_c, 1, 67, 0
1, 80728, Note_off_c, 1, 78, 0
1, 80729, Note_on_c, 1, 76, 127
1, 80729, Note_on_c, 1, 60, 127
1, 80925, Note_off_c, 1, 71, 0
1, 80925, Note_off_c, 1, 76, 0
1, 80926, Note_on_c, 1, 69, 127
1, 81122, Note_off_c, 1, 60, 0
1, 81122, Note_off_c, 1, 69, 0
1, 81123, Note_on_c, 1, 79, 127
1, 81123, Note_on_c, 1, 69, 127
1, 81123, Note_on_c, 1, 62, 127
1, 81200, Note_off_c, 1, 79, 0
1, 81200, Note_on_c, 1, 78, 127
1, 81277, Note_off_c, 1, 78, 0
1, 81516, Note_off_c, 1, 69, 0
1, 81517, Note_on_c, 1, 72, 127
1, 81907, Note_off_c, 1, 72, 0
1, 81910, Note_off_c, 1, 62, 0
1, 81911, Note_on_c, 1, 67, 127
1, 81911, Note_on_c, 1, 74, 127
1, 81911, Note_on_c, 1, 79, 127
1, 81911, Note_on_c, 1, 71, 127
1, 81911, Note_on_c, 1, 55, 127
1, 82304, Note_off_c, 1, 67, 0
1, 82304, Note_off_c, 1, 74, 0
1, 82304, Note_off_c, 1, 79, 0
1, 82304, Note_off_c, 1, 71, 0
1, 82698, Note_off_c, 1, 55, 0
1, 82731, Note_on_c, 1, 76, 127
1, 82927, Note_off_c, 1, 76, 0
1, 82928, Note_on_c, 1, 74, 127
1, 83124, Note_off_c, 1, 74, 0
1, 83125, Note_on_c, 1, 74, 127
1, 83518, Note_off_c, 1, 74, 0
1, 83519, Note_on_c, 1, 55, 127
1, 83519, Note_on_c, 1, 67, 127
1, 83912, Note_off_c, 1, 55, 0
1, 83913, Note_on_c, 1, 64, 127
1, 84109, Note_off_c, 1, 64, 0
1, 84110, Note_on_c, 1, 62, 127
1, 84306, Note_off_c, 1, 62, 0
1, 84699, Note_off_c, 1, 67, 0
1, 84701, Note_on_c, 1, 55, 127
1, 85094, Note_off_c, 1, 55, 0
1, 85095, Note_on_c, 1, 69, 127
1, 85095, Note_on_c, 1, 66, 127
1, 85095, Note_on_c, 1, 62, 127
1, 85095, Note_on_c, 1, 60, 127
1, 85488, Note_off_c, 1, 69, 0
1, 85488, Note_off_c, 1, 66, 0
1, 85488, Note_off_c, 1, 62, 0
1, 85488, Note_off_c, 1, 60, 0
1, 85489, Note_on_c, 1, 71, 127
1, 85489, Note_on_c, 1, 67, 127
1, 85489, Note_on_c, 1, 62, 127
1, 85489, Note_on_c, 1, 59, 127
1, 85882, Note_off_c, 1, 71, 0
1, 85882, Note_off_c, 1, 67, 0
1, 85882, Note_off_c, 1, 62, 0
1, 85882, Note_off_c, 1, 59, 0
1, 85883, Note_on_c, 1, 72, 127
1, 85883, Note_on_c, 1, 69, 127
1, 85883, Note_on_c, 1, 57, 127
1, 85883, Note_on_c, 1, 60, 127
1, 86276, Note_off_c, 1, 72, 0
1, 86276, Note_off_c, 1, 69, 0
1, 86276, Note_off_c, 1, 57, 0
1, 86276, Note_off_c, 1, 60, 0
1, 86277, Note_on_c, 1, 74, 127
1, 86277, Note_on_c, 1, 71, 127
1, 86277, Note_on_c, 1, 55, 127
1, 86277, Note_on_c, 1, 59, 127
1, 86670, Note_off_c, 1, 74, 0
1, 86670, Note_off_c, 1, 71, 0
1, 86670, Note_off_c, 1, 55, 0
1, 86670, Note_off_c, 1, 59, 0
1, 86671, Note_on_c, 1, 60, 127
1, 86671, Note_on_c, 1, 57, 127
1, 86671, Note_on_c, 1, 66, 127
1, 87064, Note_off_c, 1, 60, 0
1, 87064, Note_off_c, 1, 57, 0
1, 87065, Note_on_c, 1, 55, 127
1, 87065, Note_on_c, 1, 59, 127
1, 87261, Note_off_c, 1, 66, 0
1, 87262, Note_on_c, 1, 67, 127
1, 87458, Note_off_c, 1, 55, 0
1, 87458, Note_off_c, 1, 59, 0
1, 87458, Note_off_c, 1, 67, 0
1, 87459, Note_on_c, 1, 69, 127
1, 87459, Note_on_c, 1, 57, 127
1, 87459, Note_on_c, 1, 54, 127
1, 87655, Note_off_c, 1, 69, 0
1, 87656, Note_on_c, 1, 71, 127
1, 87852, Note_off_c, 1, 57, 0
1, 87852, Note_off_c, 1, 54, 0
1, 87852, Note_off_c, 1, 71, 0
1, 87853, Note_on_c, 1, 67, 127
1, 87853, Note_on_c, 1, 59, 127
1, 87853, Note_on_c, 1, 55, 127
1, 88049, Note_off_c, 1, 67, 0
1, 88050, Note_on_c, 1, 62, 127
1, 88246, Note_off_c, 1, 59, 0
1, 88246, Note_off_c, 1, 55, 0
1, 88246, Note_off_c, 1, 62, 0
1, 88247, Note_on_c, 1, 64, 127
1, 88247, Note_on_c, 1, 60, 127
1, 88247, Note_on_c, 1, 48, 127
1, 88443, Note_off_c, 1, 64, 0
1, 88444, Note_on_c, 1, 66, 127
1, 88640, Note_off_c, 1, 60, 0
1, 88640, Note_off_c, 1, 66, 0
1, 88641, Note_on_c, 1, 67, 127
1, 88641, Note_on_c, 1, 59, 127
1, 88837, Note_off_c, 1, 67, 0
1, 88838, Note_on_c, 1, 69, 127
1, 89034, Note_off_c, 1, 48, 0
1, 89034, Note_off_c, 1, 59, 0
1, 89034, Note_off_c, 1, 69, 0
1, 89035, Note_on_c, 1, 57, 127
1, 89035, Note_on_c, 1, 66, 127
1, 89035, Note_on_c, 1, 50, 127
1, 89425, Note_off_c, 1, 57, 0
1, 89428, Note_off_c, 1, 66, 0
1, 89429, Note_on_c, 1, 62, 127
1, 89625, Note_off_c, 1, 50, 0
1, 89626, Note_on_c, 1, 60, 127
1, 89822, Note_off_c, 1, 62, 0
1, 89822, Note_off_c, 1, 60, 0
1, 89831, Note_on_c, 1, 59, 127
1, 89831, Note_on_c, 1, 66, 127
1, 89831, Note_on_c, 1, 69, 127
1, 90027, Note_off_c, 1, 59, 0
1, 90028, Note_on_c, 1, 57, 127
1, 90224, Note_off_c, 1, 66, 0
1, 90224, Note_off_c, 1, 69, 0
1, 90224, Note_off_c, 1, 57, 0
1, 90225, Note_on_c, 1, 67, 127
1, 90225, Note_on_c, 1, 71, 127
1, 90225, Note_on_c, 1, 55, 127
1, 90618, Note_off_c, 1, 67, 0
1, 90618, Note_off_c, 1, 71, 0
1, 90619, Note_on_c, 1, 69, 127
1, 90619, Note_on_c, 1, 72, 127
1, 90815, Note_off_c, 1, 55, 0
1, 91012, Note_off_c, 1, 69, 0
1, 91012, Note_off_c, 1, 72, 0
1, 91013, Note_on_c, 1, 71, 127
1, 91013, Note_on_c, 1, 74, 127
1, 91013, Note_on_c, 1, 53, 127
1, 91406, Note_off_c, 1, 71, 0
1, 91406, Note_off_c, 1, 74, 0
1, 91406, Note_off_c, 1, 53, 0
1, 91407, Note_on_c, 1, 72, 127
1, 91407, Note_on_c, 1, 52, 127
1, 91407, Note_on_c, 1, 76, 127
1, 91800, Note_off_c, 1, 72, 0
1, 91800, Note_off_c, 1, 52, 0
1, 91801, Note_on_c, 1, 69, 127
1, 91801, Note_on_c, 1, 54, 127
1, 91997, Note_off_c, 1, 76, 0
1, 91998, Note_on_c, 1, 74, 127
1, 92191, Note_off_c, 1, 69, 0
1, 92194, Note_off_c, 1, 54, 0
1, 92194, Note_off_c, 1, 74, 0
1, 92195, Note_on_c, 1, 72, 127
1, 92195, Note_on_c, 1, 62, 127
1, 92195, Note_on_c, 1, 55, 127
1, 92195, Note_on_c, 1, 67, 127
1, 92391, Note_off_c, 1, 72, 0
1, 92392, Note_on_c, 1, 71, 127
1, 92588, Note_off_c, 1, 62, 0
1, 92588, Note_off_c, 1, 55, 0
1, 92588, Note_off_c, 1, 71, 0
1, 92589, Note_on_c, 1, 48, 127
1, 92589, Note_on_c, 1, 64, 127
1, 92982, Note_off_c, 1, 48, 0
1, 92982, Note_off_c, 1, 64, 0
1, 92983, Note_on_c, 1, 57, 127
1, 92983, Note_on_c, 1, 50, 127
1, 93055, Note_on_c, 1, 69, 127
1, 93121, Note_off_c, 1, 69, 0
1, 93375, Note_off_c, 1, 67, 0
1, 93376, Note_off_c, 1, 57, 0
1, 93377, Note_on_c, 1, 66, 127
1, 93767, Note_off_c, 1, 66, 0
1, 93770, Note_off_c, 1, 50, 0
1, 93771, Note_on_c, 1, 67, 127
1, 93771, Note_on_c, 1, 62, 127
1, 93771, Note_on_c, 1, 59, 127
1, 93771, Note_on_c, 1, 43, 127
1, 94164, Note_off_c, 1, 67, 0
1, 94181, Note_on_c, 1, 71, 127
1, 94558, Note_off_c, 1, 62, 0
1, 94558, Note_off_c, 1, 59, 0
1, 94558, Note_off_c, 1, 43, 0
1, 94574, Note_off_c, 1, 71, 0
1, 94575, Note_on_c, 1, 76, 127
1, 94771, Note_off_c, 1, 76, 0
1, 94772, Note_on_c, 1, 74, 127
1, 94968, Note_off_c, 1, 74, 0
1, 94969, Note_on_c, 1, 72, 127
1, 95362, Note_off_c, 1, 72, 0
1, 95363, Note_on_c, 1, 69, 127
1, 95363, Note_on_c, 1, 57, 127
1, 95756, Note_off_c, 1, 69, 0
1, 95953, Note_off_c, 1, 57, 0
1, 95954, Note_on_c, 1, 67, 127
1, 96150, Note_off_c, 1, 67, 0
1, 96151, Note_on_c, 1, 66, 127
1, 96544, Note_off_c, 1, 66, 0
1, 96545, Note_on_c, 1, 74, 127
1, 96545, Note_on_c, 1, 62, 127
1, 96741, Note_off_c, 1, 74, 0
1, 96742, Note_on_c, 1, 72, 127
1, 96938, Note_off_c, 1, 72, 0
1, 96939, Note_on_c, 1, 71, 127
1, 97135, Note_off_c, 1, 62, 0
1, 97135, Note_off_c, 1, 71, 0
1, 97136, Note_on_c, 1, 69, 127
1, 97332, Note_off_c, 1, 69, 0
1, 97333, Note_on_c, 1, 67, 127
1, 97726, Note_off_c, 1, 67, 0
1, 97727, Note_on_c, 1, 64, 127
1, 97924, Note_on_c, 1, 62, 127
1, 98117, Note_off_c, 1, 64, 0
1, 98120, Note_off_c, 1, 62, 0
1, 98121, Note_on_c, 1, 60, 127
1, 98121, Note_on_c, 1, 69, 127
1, 98317, Note_off_c, 1, 60, 0
1, 98318, Note_on_c, 1, 59, 127
1, 98514, Note_off_c, 1, 59, 0
1, 98515, Note_on_c, 1, 57, 127
1, 98711, Note_off_c, 1, 69, 0
1, 98712, Note_on_c, 1, 71, 127
1, 98908, Note_off_c, 1, 57, 0
1, 98908, Note_off_c, 1, 71, 0
1, 98909, Note_on_c, 1, 69, 127
1, 98909, Note_on_c, 1, 59, 127
1, 98909, Note_on_c, 1, 52, 127
1, 99104, Note_off_c, 1, 69, 0
1, 99106, Note_on_c, 1, 68, 127
1, 99302, Note_off_c, 1, 59, 0
1, 99303, Note_on_c, 1, 64, 127
1, 99496, Note_off_c, 1, 68, 0
1, 99499, Note_off_c, 1, 64, 0
1, 99500, Note_on_c, 1, 62, 127
1, 99696, Note_off_c, 1, 52, 0
1, 99696, Note_off_c, 1, 62, 0
1, 99697, Note_on_c, 1, 69, 127
1, 99697, Note_on_c, 1, 61, 127
1, 99697, Note_on_c, 1, 57, 127
1, 100090, Note_off_c, 1, 69, 0
1, 100091, Note_on_c, 1, 76, 127
1, 100091, Note_on_c, 1, 73, 127
1, 100484, Note_off_c, 1, 61, 0
1, 100484, Note_off_c, 1, 57, 0
1, 100484, Note_off_c, 1, 76, 0
1, 100484, Note_off_c, 1, 73, 0
1, 100485, Note_on_c, 1, 78, 127
1, 100485, Note_on_c, 1, 74, 127
1, 100878, Note_off_c, 1, 78, 0
1, 100878, Note_off_c, 1, 74, 0
1, 100879, Note_on_c, 1, 73, 127
1, 100879, Note_on_c, 1, 76, 127
1, 101272, Note_off_c, 1, 73, 0
1, 101272, Note_off_c, 1, 76, 0
1, 101273, Note_on_c, 1, 61, 127
1, 101273, Note_on_c, 1, 57, 127
1, 101273, Note_on_c, 1, 69, 127
1, 101666, Note_off_c, 1, 61, 0
1, 101666, Note_off_c, 1, 57, 0
1, 101667, Note_on_c, 1, 59, 127
1, 101667, Note_on_c, 1, 62, 127
1, 102060, Note_off_c, 1, 59, 0
1, 102060, Note_off_c, 1, 62, 0
1, 102061, Note_on_c, 1, 64, 127
1, 102454, Note_off_c, 1, 69, 0
1, 102455, Note_on_c, 1, 66, 127
1, 102848, Note_off_c, 1, 64, 0
1, 102848, Note_off_c, 1, 66, 0
1, 102849, Note_on_c, 1, 59, 127
1, 102849, Note_on_c, 1, 62, 127
1, 102849, Note_on_c, 1, 68, 127
1, 102849, Note_on_c, 1, 71, 127
1, 103242, Note_off_c, 1, 59, 0
1, 103242, Note_off_c, 1, 62, 0
1, 103242, Note_off_c, 1, 68, 0
1, 103242, Note_off_c, 1, 71, 0
1, 103243, Note_on_c, 1, 57, 127
1, 103243, Note_on_c, 1, 64, 127
1, 103243, Note_on_c, 1, 73, 127
1, 103243, Note_on_c, 1, 69, 127
1, 103636, Note_off_c, 1, 57, 0
1, 103637, Note_on_c, 1, 56, 127
1, 104030, Note_off_c, 1, 64, 0
1, 104030, Note_off_c, 1, 73, 0
1, 104030, Note_off_c, 1, 69, 0
1, 104030, Note_off_c, 1, 56, 0
1, 104031, Note_on_c, 1, 54, 127
1, 104031, Note_on_c, 1, 66, 127
1, 104031, Note_on_c, 1, 69, 127
1, 104031, Note_on_c, 1, 74, 127
1, 104424, Note_off_c, 1, 54, 0
1, 104424, Note_off_c, 1, 66, 0
1, 104424, Note_off_c, 1, 69, 0
1, 104425, Note_on_c, 1, 71, 127
1, 104425, Note_on_c, 1, 56, 127
1, 104425, Note_on_c, 1, 64, 127
1, 104621, Note_off_c, 1, 74, 0
1, 104622, Note_on_c, 1, 76, 127
1, 104815, Note_off_c, 1, 71, 0
1, 104818, Note_off_c, 1, 56, 0
1, 104818, Note_off_c, 1, 64, 0
1, 104818, Note_off_c, 1, 76, 0
1, 104819, Note_on_c, 1, 74, 127
1, 104819, Note_on_c, 1, 57, 127
1, 104819, Note_on_c, 1, 69, 127
1, 104819, Note_on_c, 1, 64, 127
1, 104959, Note_off_c, 1, 74, 0
1, 104965, Note_on_c, 1, 73, 127
1, 105053, Note_off_c, 1, 73, 0
1, 105210, Note_off_c, 1, 57, 0
1, 105211, Note_on_c, 1, 45, 127
1, 105406, Note_off_c, 1, 69, 0
1, 105407, Note_on_c, 1, 71, 127
1, 105603, Note_off_c, 1, 64, 0
1, 105603, Note_off_c, 1, 45, 0
1, 105603, Note_off_c, 1, 71, 0
1, 105604, Note_on_c, 1, 68, 127
1, 105604, Note_on_c, 1, 71, 127
1, 105604, Note_on_c, 1, 52, 127
1, 105604, Note_on_c, 1, 64, 127
1, 105997, Note_off_c, 1, 68, 0
1, 105997, Note_off_c, 1, 71, 0
1, 105998, Note_on_c, 1, 76, 127
1, 106391, Note_off_c, 1, 52, 0
1, 106391, Note_off_c, 1, 64, 0
1, 106391, Note_off_c, 1, 76, 0
1, 106408, Note_on_c, 1, 78, 127
1, 106408, Note_on_c, 1, 69, 127
1, 106801, Note_off_c, 1, 78, 0
1, 106801, Note_off_c, 1, 69, 0
1, 106802, Note_on_c, 1, 71, 127
1, 106802, Note_on_c, 1, 80, 127
1, 107195, Note_off_c, 1, 71, 0
1, 107195, Note_off_c, 1, 80, 0
1, 107196, Note_on_c, 1, 78, 127
1, 107196, Note_on_c, 1, 71, 127
1, 107196, Note_on_c, 1, 68, 127
1, 107196, Note_on_c, 1, 62, 127
1, 107589, Note_off_c, 1, 78, 0
1, 107589, Note_off_c, 1, 71, 0
1, 107589, Note_off_c, 1, 68, 0
1, 107589, Note_off_c, 1, 62, 0
1, 107590, Note_on_c, 1, 76, 127
1, 107590, Note_on_c, 1, 73, 127
1, 107590, Note_on_c, 1, 61, 127
1, 107590, Note_on_c, 1, 69, 127
1, 107983, Note_off_c, 1, 76, 0
1, 107983, Note_off_c, 1, 73, 0
1, 107983, Note_off_c, 1, 61, 0
1, 107983, Note_off_c, 1, 69, 0
1, 107984, Note_on_c, 1, 78, 127
1, 107984, Note_on_c, 1, 62, 127
1, 107984, Note_on_c, 1, 69, 127
1, 107984, Note_on_c, 1, 66, 127
1, 108377, Note_off_c, 1, 78, 0
1, 108377, Note_off_c, 1, 62, 0
1, 108378, Note_on_c, 1, 76, 127
1, 108378, Note_on_c, 1, 61, 127
1, 108771, Note_off_c, 1, 69, 0
1, 108771, Note_off_c, 1, 66, 0
1, 108771, Note_off_c, 1, 76, 0
1, 108771, Note_off_c, 1, 61, 0
1, 108772, Note_on_c, 1, 74, 127
1, 108772, Note_on_c, 1, 59, 127
1, 108772, Note_on_c, 1, 66, 127
1, 108772, Note_on_c, 1, 71, 127
1, 109165, Note_off_c, 1, 74, 0
1, 109165, Note_off_c, 1, 59, 0
1, 109165, Note_off_c, 1, 66, 0
1, 109166, Note_on_c, 1, 76, 127
1, 109166, Note_on_c, 1, 64, 127
1, 109166, Note_on_c, 1, 61, 127
1, 109559, Note_off_c, 1, 71, 0
1, 109560, Note_on_c, 1, 69, 127
1, 109756, Note_off_c, 1, 76, 0
1, 109757, Note_on_c, 1, 78, 127
1, 109950, Note_off_c, 1, 69, 0
1, 109953, Note_off_c, 1, 64, 0
1, 109953, Note_off_c, 1, 61, 0
1, 109953, Note_off_c, 1, 78, 0
1, 109954, Note_on_c, 1, 76, 127
1, 109954, Note_on_c, 1, 71, 127
1, 109954, Note_on_c, 1, 64, 127
1, 109954, Note_on_c, 1, 56, 127
1, 110150, Note_off_c, 1, 76, 0
1, 110151, Note_on_c, 1, 74, 127
1, 110344, Note_off_c, 1, 71, 0
1, 110347, Note_off_c, 1, 64, 0
1, 110347, Note_off_c, 1, 56, 0
1, 110347, Note_off_c, 1, 74, 0
1, 110348, Note_on_c, 1, 73, 127
1, 110348, Note_on_c, 1, 64, 127
1, 110348, Note_on_c, 1, 57, 127
1, 110742, Note_on_c, 1, 69, 127
1, 110938, Note_off_c, 1, 73, 0
1, 110939, Note_on_c, 1, 74, 127
1, 111132, Note_off_c, 1, 69, 0
1, 111135, Note_off_c, 1, 64, 0
1, 111135, Note_off_c, 1, 57, 0
1, 111135, Note_off_c, 1, 74, 0
1, 111136, Note_on_c, 1, 73, 127
1, 111136, Note_on_c, 1, 68, 127
1, 111136, Note_on_c, 1, 61, 127
1, 111136, Note_on_c, 1, 53, 127
1, 111332, Note_off_c, 1, 73, 0
1, 111333, Note_on_c, 1, 74, 127
1, 111526, Note_off_c, 1, 68, 0
1, 111529, Note_off_c, 1, 61, 0
1, 111529, Note_off_c, 1, 53, 0
1, 111529, Note_off_c, 1, 74, 0
1, 111530, Note_on_c, 1, 69, 127
1, 111530, Note_on_c, 1, 54, 127
1, 111530, Note_on_c, 1, 73, 127
1, 111530, Note_on_c, 1, 61, 127
1, 111923, Note_off_c, 1, 69, 0
1, 111923, Note_off_c, 1, 54, 0
1, 111924, Note_on_c, 1, 68, 127
1, 111924, Note_on_c, 1, 53, 127
1, 112120, Note_off_c, 1, 73, 0
1, 112121, Note_on_c, 1, 74, 127
1, 112314, Note_off_c, 1, 68, 0
1, 112317, Note_off_c, 1, 61, 0
1, 112317, Note_off_c, 1, 53, 0
1, 112317, Note_off_c, 1, 74, 0
1, 112318, Note_on_c, 1, 73, 127
1, 112318, Note_on_c, 1, 66, 127
1, 112318, Note_on_c, 1, 63, 127
1, 112318, Note_on_c, 1, 51, 127
1, 112514, Note_off_c, 1, 73, 0
1, 112515, Note_on_c, 1, 74, 127
1, 112708, Note_off_c, 1, 66, 0
1, 112711, Note_off_c, 1, 63, 0
1, 112711, Note_off_c, 1, 51, 0
1, 112711, Note_off_c, 1, 74, 0
1, 112712, Note_on_c, 1, 68, 127
1, 112712, Note_on_c, 1, 53, 127
1, 112712, Note_on_c, 1, 73, 127
1, 112712, Note_on_c, 1, 61, 127
1, 113105, Note_off_c, 1, 68, 0
1, 113105, Note_off_c, 1, 53, 0
1, 113106, Note_on_c, 1, 65, 127
1, 113106, Note_on_c, 1, 49, 127
1, 113302, Note_off_c, 1, 73, 0
1, 113303, Note_on_c, 1, 71, 127
1, 113496, Note_off_c, 1, 65, 0
1, 113499, Note_off_c, 1, 61, 0
1, 113499, Note_off_c, 1, 49, 0
1, 113499, Note_off_c, 1, 71, 0
1, 113500, Note_on_c, 1, 69, 127
1, 113500, Note_on_c, 1, 66, 127
1, 113500, Note_on_c, 1, 61, 127
1, 113500, Note_on_c, 1, 54, 127
1, 113696, Note_off_c, 1, 69, 0
1, 113696, Note_off_c, 1, 66, 0
1, 113697, Note_on_c, 1, 68, 127
1, 113890, Note_off_c, 1, 61, 0
1, 113893, Note_off_c, 1, 68, 0
1, 113894, Note_on_c, 1, 62, 127
1, 113894, Note_on_c, 1, 47, 127
1, 114091, Note_on_c, 1, 71, 127
1, 114284, Note_off_c, 1, 62, 0
1, 114287, Note_off_c, 1, 47, 0
1, 114287, Note_off_c, 1, 71, 0
1, 114288, Note_on_c, 1, 49, 127
1, 114681, Note_off_c, 1, 54, 0
1, 114683, Note_on_c, 1, 53, 127
1, 115076, Note_off_c, 1, 49, 0
1, 115076, Note_off_c, 1, 53, 0
1, 115077, Note_on_c, 1, 57, 127
1, 115077, Note_on_c, 1, 66, 127
1, 115077, Note_on_c, 1, 61, 127
1, 115077, Note_on_c, 1, 54, 127
1, 115077, Note_on_c, 1, 42, 127
1, 115470, Note_off_c, 1, 57, 0
1, 115470, Note_off_c, 1, 66, 0
1, 115470, Note_off_c, 1, 61, 0
1, 115487, Note_on_c, 1, 69, 127
1, 115864, Note_off_c, 1, 54, 0
1, 115864, Note_off_c, 1, 42, 0
1, 115897, Note_on_c, 1, 71, 127
1, 115900, Note_off_c, 1, 69, 0
1, 116093, Note_off_c, 1, 71, 0
1, 116094, Note_on_c, 1, 69, 127
1, 116290, Note_off_c, 1, 69, 0
1, 116291, Note_on_c, 1, 69, 127
1, 116684, Note_off_c, 1, 69, 0
1, 116685, Note_on_c, 1, 69, 127
1, 116685, Note_on_c, 1, 74, 127
1, 116685, Note_on_c, 1, 62, 127
1, 116685, Note_on_c, 1, 54, 127
1, 116685, Note_on_c, 1, 57, 127
1, 117078, Note_off_c, 1, 69, 0
1, 117078, Note_off_c, 1, 74, 0
1, 117078, Note_off_c, 1, 62, 0
1, 117078, Note_off_c, 1, 54, 0
1, 117078, Note_off_c, 1, 57, 0
1, 117079, Note_on_c, 1, 55, 127
1, 117079, Note_on_c, 1, 59, 127
1, 117079, Note_on_c, 1, 74, 127
1, 117079, Note_on_c, 1, 71, 127
1, 117079, Note_on_c, 1, 62, 127
1, 117079, Note_on_c, 1, 67, 127
1, 117275, Note_off_c, 1, 55, 0
1, 117276, Note_on_c, 1, 54, 127
1, 117469, Note_off_c, 1, 59, 0
1, 117472, Note_off_c, 1, 74, 0
1, 117472, Note_off_c, 1, 71, 0
1, 117472, Note_off_c, 1, 62, 0
1, 117472, Note_off_c, 1, 67, 0
1, 117472, Note_off_c, 1, 54, 0
1, 117473, Note_on_c, 1, 54, 127
1, 117473, Note_on_c, 1, 74, 127
1, 117473, Note_on_c, 1, 69, 127
1, 117473, Note_on_c, 1, 62, 127
1, 117473, Note_on_c, 1, 57, 127
1, 117866, Note_off_c, 1, 54, 0
1, 117867, Note_on_c, 1, 50, 127
1, 118063, Note_off_c, 1, 74, 0
1, 118064, Note_on_c, 1, 76, 127
1, 118260, Note_off_c, 1, 69, 0
1, 118260, Note_off_c, 1, 62, 0
1, 118260, Note_off_c, 1, 57, 0
1, 118260, Note_off_c, 1, 50, 0
1, 118260, Note_off_c, 1, 76, 0
1, 118261, Note_on_c, 1, 74, 127
1, 118261, Note_on_c, 1, 55, 127
1, 118261, Note_on_c, 1, 71, 127
1, 118261, Note_on_c, 1, 67, 127
1, 118261, Note_on_c, 1, 59, 127
1, 118457, Note_off_c, 1, 74, 0
1, 118457, Note_off_c, 1, 55, 0
1, 118458, Note_on_c, 1, 76, 127
1, 118458, Note_on_c, 1, 54, 127
1, 118651, Note_off_c, 1, 71, 0
1, 118651, Note_off_c, 1, 67, 0
1, 118651, Note_off_c, 1, 59, 0
1, 118654, Note_off_c, 1, 76, 0
1, 118654, Note_off_c, 1, 54, 0
1, 118655, Note_on_c, 1, 74, 127
1, 118655, Note_on_c, 1, 54, 127
1, 118655, Note_on_c, 1, 62, 127
1, 118655, Note_on_c, 1, 69, 127
1, 118655, Note_on_c, 1, 57, 127
1, 118851, Note_off_c, 1, 74, 0
1, 118852, Note_on_c, 1, 76, 127
1, 119048, Note_off_c, 1, 54, 0
1, 119048, Note_off_c, 1, 76, 0
1, 119049, Note_on_c, 1, 50, 127
1, 119246, Note_on_c, 1, 73, 127
1, 119442, Note_off_c, 1, 62, 0
1, 119442, Note_off_c, 1, 69, 0
1, 119442, Note_off_c, 1, 57, 0
1, 119442, Note_off_c, 1, 50, 0
1, 119442, Note_off_c, 1, 73, 0
1, 119443, Note_on_c, 1, 71, 127
1, 119443, Note_on_c, 1, 55, 127
1, 119443, Note_on_c, 1, 62, 127
1, 119443, Note_on_c, 1, 67, 127
1, 119443, Note_on_c, 1, 59, 127
1, 119639, Note_off_c, 1, 71, 0
1, 119639, Note_off_c, 1, 55, 0
1, 119640, Note_on_c, 1, 73, 127
1, 119640, Note_on_c, 1, 54, 127
1, 119833, Note_off_c, 1, 62, 0
1, 119833, Note_off_c, 1, 67, 0
1, 119833, Note_off_c, 1, 59, 0
1, 119836, Note_off_c, 1, 73, 0
1, 119836, Note_off_c, 1, 54, 0
1, 119837, Note_on_c, 1, 74, 127
1, 119837, Note_on_c, 1, 57, 127
1, 119837, Note_on_c, 1, 54, 127
1, 119837, Note_on_c, 1, 62, 127
1, 119837, Note_on_c, 1, 69, 127
1, 120033, Note_off_c, 1, 74, 0
1, 120033, Note_off_c, 1, 57, 0
1, 120033, Note_off_c, 1, 54, 0
1, 120034, Note_on_c, 1, 76, 127
1, 120034, Note_on_c, 1, 55, 127
1, 120230, Note_off_c, 1, 76, 0
1, 120230, Note_off_c, 1, 55, 0
1, 120231, Note_on_c, 1, 78, 127
1, 120624, Note_off_c, 1, 62, 0
1, 120624, Note_off_c, 1, 69, 0
1, 120624, Note_off_c, 1, 78, 0
1, 120625, Note_on_c, 1, 73, 127
1, 120625, Note_on_c, 1, 67, 127
1, 120625, Note_on_c, 1, 45, 127
1, 120821, Note_off_c, 1, 73, 0
1, 121015, Note_off_c, 1, 67, 0
1, 121018, Note_off_c, 1, 45, 0
1, 121019, Note_on_c, 1, 74, 127
1, 121019, Note_on_c, 1, 69, 127
1, 121019, Note_on_c, 1, 66, 127
1, 121019, Note_on_c, 1, 57, 127
1, 121019, Note_on_c, 1, 50, 127
1, 121412, Note_off_c, 1, 74, 0
1, 121412, Note_off_c, 1, 69, 0
1, 121806, Note_off_c, 1, 66, 0
1, 121806, Note_off_c, 1, 57, 0
1, 121806, Note_off_c, 1, 50, 0
1, 121839, Note_on_c, 1, 78, 127
1, 122035, Note_off_c, 1, 78, 0
1, 122036, Note_on_c, 1, 76, 127
1, 122232, Note_off_c, 1, 76, 0
1, 122233, Note_on_c, 1, 76, 127
1, 122626, Note_off_c, 1, 76, 0
1, 122627, Note_on_c, 1, 57, 127
1, 122627, Note_on_c, 1, 64, 127
1, 122627, Note_on_c, 1, 69, 127
1, 122823, Note_off_c, 1, 57, 0
1, 122824, Note_on_c, 1, 59, 127
1, 123020, Note_off_c, 1, 64, 0
1, 123020, Note_off_c, 1, 69, 0
1, 123020, Note_off_c, 1, 59, 0
1, 123021, Note_on_c, 1, 69, 127
1, 123021, Note_on_c, 1, 61, 127
1, 123217, Note_off_c, 1, 69, 0
1, 123217, Note_off_c, 1, 61, 0
1, 123218, Note_on_c, 1, 67, 127
1, 123218, Note_on_c, 1, 57, 127
1, 123414, Note_off_c, 1, 67, 0
1, 123414, Note_off_c, 1, 57, 0
1, 123415, Note_on_c, 1, 66, 127
1, 123415, Note_on_c, 1, 62, 127
1, 123809, Note_on_c, 1, 69, 127
1, 124202, Note_off_c, 1, 66, 0
1, 124202, Note_off_c, 1, 62, 0
1, 124202, Note_off_c, 1, 69, 0
1, 124203, Note_on_c, 1, 78, 127
1, 124399, Note_off_c, 1, 78, 0
1, 124400, Note_on_c, 1, 76, 127
1, 124596, Note_off_c, 1, 76, 0
1, 124597, Note_on_c, 1, 76, 127
1, 124793, Note_off_c, 1, 76, 0
1, 124794, Note_on_c, 1, 74, 127
1, 124990, Note_off_c, 1, 74, 0
1, 124991, Note_on_c, 1, 71, 127
1, 124991, Note_on_c, 1, 76, 127
1, 124991, Note_on_c, 1, 64, 127
1, 124991, Note_on_c, 1, 56, 127
1, 125187, Note_off_c, 1, 71, 0
1, 125187, Note_off_c, 1, 76, 0
1, 125381, Note_off_c, 1, 64, 0
1, 125384, Note_off_c, 1, 56, 0
1, 125385, Note_on_c, 1, 73, 127
1, 125385, Note_on_c, 1, 68, 127
1, 125385, Note_on_c, 1, 59, 127
1, 125385, Note_on_c, 1, 52, 127
1, 125581, Note_off_c, 1, 73, 0
1, 125582, Note_on_c, 1, 74, 127
1, 125775, Note_off_c, 1, 68, 0
1, 125778, Note_off_c, 1, 59, 0
1, 125778, Note_off_c, 1, 52, 0
1, 125778, Note_off_c, 1, 74, 0
1, 125779, Note_on_c, 1, 73, 127
1, 125779, Note_on_c, 1, 69, 127
1, 125779, Note_on_c, 1, 57, 127
1, 125779, Note_on_c, 1, 64, 127
1, 125779, Note_on_c, 1, 61, 127
1, 125975, Note_off_c, 1, 73, 0
1, 125975, Note_off_c, 1, 69, 0
1, 125975, Note_off_c, 1, 57, 0
1, 125976, Note_on_c, 1, 71, 127
1, 125976, Note_on_c, 1, 55, 127
1, 126169, Note_off_c, 1, 64, 0
1, 126169, Note_off_c, 1, 61, 0
1, 126172, Note_off_c, 1, 71, 0
1, 126172, Note_off_c, 1, 55, 0
1, 126173, Note_on_c, 1, 54, 127
1, 126173, Note_on_c, 1, 62, 127
1, 126173, Note_on_c, 1, 66, 127
1, 126173, Note_on_c, 1, 69, 127
1, 126369, Note_off_c, 1, 54, 0
1, 126370, Note_on_c, 1, 52, 127
1, 126563, Note_off_c, 1, 62, 0
1, 126566, Note_off_c, 1, 66, 0
1, 126566, Note_off_c, 1, 69, 0
1, 126566, Note_off_c, 1, 52, 0
1, 126567, Note_on_c, 1, 74, 127
1, 126567, Note_on_c, 1, 66, 127
1, 126567, Note_on_c, 1, 69, 127
1, 126567, Note_on_c, 1, 50, 127
1, 126567, Note_on_c, 1, 57, 127
1, 126763, Note_off_c, 1, 74, 0
1, 126764, Note_on_c, 1, 73, 127
1, 126957, Note_off_c, 1, 66, 0
1, 126957, Note_off_c, 1, 69, 0
1, 126960, Note_off_c, 1, 50, 0
1, 126960, Note_off_c, 1, 57, 0
1, 126960, Note_off_c, 1, 73, 0
1, 126961, Note_on_c, 1, 57, 127
1, 126961, Note_on_c, 1, 61, 127
1, 126961, Note_on_c, 1, 64, 127
1, 126961, Note_on_c, 1, 73, 127
1, 126961, Note_on_c, 1, 69, 127
1, 127157, Note_off_c, 1, 57, 0
1, 127158, Note_on_c, 1, 55, 127
1, 127351, Note_off_c, 1, 61, 0
1, 127354, Note_off_c, 1, 64, 0
1, 127354, Note_off_c, 1, 73, 0
1, 127354, Note_off_c, 1, 55, 0
1, 127355, Note_on_c, 1, 54, 127
1, 127355, Note_on_c, 1, 62, 127
1, 127355, Note_on_c, 1, 66, 127
1, 127551, Note_off_c, 1, 54, 0
1, 127552, Note_on_c, 1, 52, 127
1, 127745, Note_off_c, 1, 62, 0
1, 127748, Note_off_c, 1, 69, 0
1, 127748, Note_off_c, 1, 66, 0
1, 127748, Note_off_c, 1, 52, 0
1, 127749, Note_on_c, 1, 62, 127
1, 127749, Note_on_c, 1, 66, 127
1, 127749, Note_on_c, 1, 50, 127
1, 127749, Note_on_c, 1, 57, 127
1, 127945, Note_off_c, 1, 62, 0
1, 127945, Note_off_c, 1, 66, 0
1, 127946, Note_on_c, 1, 64, 127
1, 127946, Note_on_c, 1, 61, 127
1, 128142, Note_off_c, 1, 50, 0
1, 128142, Note_off_c, 1, 57, 0
1, 128142, Note_off_c, 1, 64, 0
1, 128142, Note_off_c, 1, 61, 0
1, 128143, Note_on_c, 1, 57, 127
1, 128143, Note_on_c, 1, 64, 127
1, 128143, Note_on_c, 1, 61, 127
1, 128339, Note_off_c, 1, 57, 0
1, 128340, Note_on_c, 1, 55, 127
1, 128536, Note_off_c, 1, 64, 0
1, 128536, Note_off_c, 1, 61, 0
1, 128536, Note_off_c, 1, 55, 0
1, 128537, Note_on_c, 1, 62, 127
1, 128537, Note_on_c, 1, 54, 127
1, 128537, Note_on_c, 1, 57, 127
1, 128733, Note_off_c, 1, 62, 0
1, 128733, Note_off_c, 1, 54, 0
1, 128734, Note_on_c, 1, 64, 127
1, 128734, Note_on_c, 1, 52, 127
1, 128927, Note_off_c, 1, 57, 0
1, 128930, Note_off_c, 1, 64, 0
1, 128930, Note_off_c, 1, 52, 0
1, 128931, Note_on_c, 1, 74, 127
1, 128931, Note_on_c, 1, 66, 127
1, 128931, Note_on_c, 1, 62, 127
1, 128931, Note_on_c, 1, 57, 127
1, 128931, Note_on_c, 1, 50, 127
1, 129127, Note_off_c, 1, 74, 0
1, 129127, Note_off_c, 1, 66, 0
1, 129128, Note_on_c, 1, 73, 127
1, 129321, Note_off_c, 1, 62, 0
1, 129324, Note_off_c, 1, 57, 0
1, 129324, Note_off_c, 1, 50, 0
1, 129324, Note_off_c, 1, 73, 0
1, 129325, Note_on_c, 1, 55, 127
1, 129325, Note_on_c, 1, 71, 127
1, 129325, Note_on_c, 1, 62, 127
1, 129325, Note_on_c, 1, 59, 127
1, 129718, Note_off_c, 1, 55, 0
1, 129719, Note_on_c, 1, 54, 127
1, 129915, Note_off_c, 1, 71, 0
1, 129916, Note_on_c, 1, 69, 127
1, 130112, Note_off_c, 1, 62, 0
1, 130112, Note_off_c, 1, 59, 0
1, 130112, Note_off_c, 1, 54, 0
1, 130112, Note_off_c, 1, 69, 0
1, 130113, Note_on_c, 1, 67, 127
1, 130113, Note_on_c, 1, 61, 127
1, 130113, Note_on_c, 1, 55, 127
1, 130113, Note_on_c, 1, 52, 127
1, 130309, Note_off_c, 1, 67, 0
1, 130310, Note_on_c, 1, 66, 127
1, 130503, Note_off_c, 1, 61, 0
1, 130506, Note_off_c, 1, 55, 0
1, 130506, Note_off_c, 1, 52, 0
1, 130506, Note_off_c, 1, 66, 0
1, 130507, Note_on_c, 1, 66, 127
1, 130507, Note_on_c, 1, 50, 127
1, 130507, Note_on_c, 1, 62, 127
1, 130507, Note_on_c, 1, 57, 127
1, 130703, Note_off_c, 1, 66, 0
1, 130704, Note_on_c, 1, 67, 127
1, 130900, Note_off_c, 1, 50, 0
1, 130900, Note_off_c, 1, 67, 0
1, 130901, Note_on_c, 1, 45, 127
1, 131059, Note_on_c, 1, 64, 127
1, 131137, Note_off_c, 1, 64, 0
1, 131292, Note_off_c, 1, 62, 0
1, 131292, Note_off_c, 1, 57, 0
1, 131293, Note_on_c, 1, 61, 127
1, 131293, Note_on_c, 1, 55, 127
1, 131682, Note_off_c, 1, 61, 0
1, 131685, Note_off_c, 1, 45, 0
1, 131685, Note_off_c, 1, 55, 0
1, 131686, Note_on_c, 1, 57, 127
1, 131686, Note_on_c, 1, 62, 127
1, 131686, Note_on_c, 1, 54, 127
1, 131686, Note_on_c, 1, 50, 127
1, 132079, Note_off_c, 1, 57, 0
1, 132079, Note_off_c, 1, 62, 0
1, 132080, Note_on_c, 1, 66, 127
1, 132080, Note_on_c, 1, 69, 127
1, 132473, Note_off_c, 1, 54, 0
1, 132473, Note_off_c, 1, 50, 0
1, 132490, Note_off_c, 1, 66, 0
1, 132490, Note_off_c, 1, 69, 0
1, 132490, Note_on_c, 1, 67, 127
1, 132490, Note_on_c, 1, 71, 127
1, 132686, Note_off_c, 1, 67, 0
1, 132686, Note_off_c, 1, 71, 0
1, 132687, Note_on_c, 1, 66, 127
1, 132687, Note_on_c, 1, 69, 127
1, 132883, Note_off_c, 1, 66, 0
1, 132883, Note_off_c, 1, 69, 0
1, 132884, Note_on_c, 1, 50, 127
1, 132884, Note_on_c, 1, 66, 127
1, 132884, Note_on_c, 1, 69, 127
1, 133080, Note_off_c, 1, 50, 0
1, 133081, Note_on_c, 1, 48, 127
1, 133277, Note_off_c, 1, 48, 0
1, 133278, Note_on_c, 1, 47, 127
1, 133278, Note_on_c, 1, 62, 127
1, 133474, Note_off_c, 1, 47, 0
1, 133475, Note_on_c, 1, 45, 127
1, 133577, Note_off_c, 1, 66, 0
1, 133577, Note_off_c, 1, 69, 0
1, 133671, Note_off_c, 1, 62, 0
1, 133671, Note_off_c, 1, 45, 0
1, 133672, Note_on_c, 1, 67, 127
1, 133672, Note_on_c, 1, 71, 127
1, 133672, Note_on_c, 1, 43, 127
1, 133868, Note_off_c, 1, 67, 0
1, 133868, Note_off_c, 1, 71, 0
1, 133869, Note_on_c, 1, 66, 127
1, 133869, Note_on_c, 1, 69, 127
1, 134065, Note_off_c, 1, 43, 0
1, 134065, Note_off_c, 1, 66, 0
1, 134065, Note_off_c, 1, 69, 0
1, 134066, Note_on_c, 1, 50, 127
1, 134066, Note_on_c, 1, 66, 127
1, 134066, Note_on_c, 1, 69, 127
1, 134262, Note_off_c, 1, 50, 0
1, 134263, Note_on_c, 1, 48, 127
1, 134459, Note_off_c, 1, 48, 0
1, 134460, Note_on_c, 1, 47, 127
1, 134460, Note_on_c, 1, 62, 127
1, 134656, Note_off_c, 1, 47, 0
1, 134657, Note_on_c, 1, 45, 127
1, 134759, Note_off_c, 1, 66, 0
1, 134759, Note_off_c, 1, 69, 0
1, 134853, Note_off_c, 1, 62, 0
1, 134853, Note_off_c, 1, 45, 0
1, 134854, Note_on_c, 1, 71, 127
1, 134854, Note_on_c, 1, 43, 127
1, 134854, Note_on_c, 1, 67, 127
1, 135050, Note_off_c, 1, 71, 0
1, 135051, Note_on_c, 1, 69, 127
1, 135247, Note_off_c, 1, 43, 0
1, 135247, Note_off_c, 1, 69, 0
1, 135248, Note_on_c, 1, 50, 127
1, 135641, Note_off_c, 1, 67, 0
1, 135642, Note_on_c, 1, 74, 127
1, 135642, Note_on_c, 1, 66, 127
1, 135838, Note_off_c, 1, 74, 0
1, 135839, Note_on_c, 1, 72, 127
1, 136032, Note_off_c, 1, 66, 0
1, 136035, Note_off_c, 1, 50, 0
1, 136035, Note_off_c, 1, 72, 0
1, 136036, Note_on_c, 1, 67, 127
1, 136036, Note_on_c, 1, 71, 127
1, 136036, Note_on_c, 1, 55, 127
1, 136232, Note_off_c, 1, 67, 0
1, 136232, Note_off_c, 1, 71, 0
1, 136233, Note_on_c, 1, 69, 127
1, 136233, Note_on_c, 1, 66, 127
1, 136429, Note_off_c, 1, 69, 0
1, 136429, Note_off_c, 1, 66, 0
1, 136430, Note_on_c, 1, 64, 127
1, 136626, Note_off_c, 1, 64, 0
1, 136627, Note_on_c, 1, 62, 127
1, 136823, Note_off_c, 1, 55, 0
1, 136823, Note_off_c, 1, 62, 0
1, 136824, Note_on_c, 1, 66, 127
1, 136824, Note_on_c, 1, 57, 127
1, 136824, Note_on_c, 1, 61, 127
1, 136955, Note_off_c, 1, 66, 0
1, 136955, Note_on_c, 1, 64, 127
1, 137021, Note_off_c, 1, 64, 0
1, 137218, Note_off_c, 1, 57, 0
1, 137219, Note_on_c, 1, 45, 127
1, 137415, Note_off_c, 1, 61, 0
1, 137416, Note_on_c, 1, 62, 127
1, 137612, Note_off_c, 1, 45, 0
1, 137612, Note_off_c, 1, 62, 0
1, 137613, Note_on_c, 1, 62, 127
1, 137613, Note_on_c, 1, 50, 127
1, 138013, Note_off_c, 1, 62, 0
1, 138030, Note_on_c, 1, 69, 127
1, 138213, Note_off_c, 1, 50, 0
1, 138429, Note_off_c, 1, 69, 0
1, 138430, Note_on_c, 1, 78, 127
1, 138629, Note_off_c, 1, 78, 0
1, 138630, Note_on_c, 1, 76, 127
1, 138829, Note_off_c, 1, 76, 0
1, 138830, Note_on_c, 1, 57, 127
1, 138830, Note_on_c, 1, 61, 127
1, 138830, Note_on_c, 1, 76, 127
1, 139029, Note_off_c, 1, 57, 0
1, 139030, Note_on_c, 1, 55, 127
1, 139226, Note_off_c, 1, 61, 0
1, 139229, Note_off_c, 1, 76, 0
1, 139229, Note_off_c, 1, 55, 0
1, 139230, Note_on_c, 1, 54, 127
1, 139230, Note_on_c, 1, 62, 127
1, 139230, Note_on_c, 1, 69, 127
1, 139429, Note_off_c, 1, 54, 0
1, 139430, Note_on_c, 1, 52, 127
1, 139626, Note_off_c, 1, 62, 0
1, 139629, Note_off_c, 1, 69, 0
1, 139629, Note_off_c, 1, 52, 0
1, 139630, Note_on_c, 1, 78, 127
1, 139630, Note_on_c, 1, 62, 127
1, 139630, Note_on_c, 1, 57, 127
1, 139630, Note_on_c, 1, 50, 127
1, 139829, Note_off_c, 1, 78, 0
1, 139830, Note_on_c, 1, 76, 127
1, 140029, Note_off_c, 1, 62, 0
1, 140029, Note_off_c, 1, 57, 0
1, 140029, Note_off_c, 1, 50, 0
1, 140029, Note_off_c, 1, 76, 0
1, 140030, Note_on_c, 1, 62, 127
1, 140030, Note_on_c, 1, 55, 127
1, 140030, Note_on_c, 1, 76, 127
1, 140430, Note_off_c, 1, 62, 0
1, 140430, Note_off_c, 1, 55, 0
1, 140431, Note_on_c, 1, 61, 127
1, 140431, Note_on_c, 1, 57, 127
1, 140630, Note_off_c, 1, 76, 0
1, 140631, Note_on_c, 1, 78, 127
1, 140830, Note_off_c, 1, 61, 0
1, 140830, Note_off_c, 1, 57, 0
1, 140830, Note_off_c, 1, 78, 0
1, 140831, Note_on_c, 1, 79, 127
1, 140831, Note_on_c, 1, 62, 127
1, 140831, Note_on_c, 1, 59, 127
1, 141030, Note_off_c, 1, 79, 0
1, 141031, Note_on_c, 1, 81, 127
1, 141230, Note_off_c, 1, 62, 0
1, 141230, Note_off_c, 1, 59, 0
1, 141230, Note_off_c, 1, 81, 0
1, 141231, Note_on_c, 1, 78, 127
1, 141231, Note_on_c, 1, 57, 127
1, 141231, Note_on_c, 1, 62, 127
1, 141430, Note_off_c, 1, 78, 0
1, 141430, Note_off_c, 1, 57, 0
1, 141431, Note_on_c, 1, 76, 127
1, 141431, Note_on_c, 1, 55, 127
1, 141630, Note_off_c, 1, 76, 0
1, 141630, Note_off_c, 1, 55, 0
1, 142032, Note_off_c, 1, 62, 0
1, 142033, Note_on_c, 1, 61, 127
1, 142234, Note_on_c, 1, 74, 127
1, 142433, Note_off_c, 1, 61, 0
1, 142433, Note_off_c, 1, 74, 0
1, 142434, Note_on_c, 1, 74, 127
1, 142434, Note_on_c, 1, 50, 127
1, 142434, Note_on_c, 1, 62, 127
1, 142844, Note_off_c, 1, 74, 0
1, 142861, Note_on_c, 1, 66, 127
1, 142861, Note_on_c, 1, 69, 127
1, 143270, Note_off_c, 1, 66, 0
1, 143271, Note_off_c, 1, 69, 0
1, 143272, Note_on_c, 1, 67, 127
1, 143272, Note_on_c, 1, 71, 127
1, 143477, Note_off_c, 1, 67, 0
1, 143477, Note_off_c, 1, 71, 0
1, 143667, Note_off_c, 1, 50, 0
1, 143667, Note_off_c, 1, 62, 0
1, 144606, Note_on_c, 1, 64, 127
1, 145062, Note_off_c, 1, 64, 0
1, 147217, Note_on_c, 1, 61, 127
1, 147217, Note_on_c, 1, 70, 127
1, 147217, Note_on_c, 1, 73, 127
1, 147217, Note_on_c, 1, 66, 127
1, 147217, Note_on_c, 1, 58, 127
1, 147217, Note_on_c, 1, 54, 127
1, 148310, Note_off_c, 1, 61, 0
1, 148310, Note_off_c, 1, 70, 0
1, 148310, Note_off_c, 1, 73, 0
1, 148310, Note_off_c, 1, 66, 0
1, 148310, Note_off_c, 1, 58, 0
1, 148310, Note_off_c, 1, 54, 0
1, 148311, Note_on_c, 1, 74, 127
1, 148367, Note_off_c, 1, 74, 0
1, 148368, Note_on_c, 1, 73, 127
1, 148540, Note_off_c, 1, 73, 0
1, 148541, Note_on_c, 1, 71, 127
1, 148597, Note_off_c, 1, 71, 0
1, 148598, Note_on_c, 1, 70, 127
1, 148770, Note_off_c, 1, 70, 0
1, 148771, Note_on_c, 1, 74, 127
1, 148827, Note_off_c, 1, 74, 0
1, 148828, Note_on_c, 1, 73, 127
1, 149000, Note_off_c, 1, 73, 0
1, 149001, Note_on_c, 1, 71, 127
1, 149057, Note_off_c, 1, 71, 0
1, 149058, Note_on_c, 1, 76, 127
1, 149230, Note_off_c, 1, 76, 0
1, 149231, Note_on_c, 1, 74, 127
1, 149287, Note_off_c, 1, 74, 0
1, 149288, Note_on_c, 1, 73, 127
1, 149460, Note_off_c, 1, 73, 0
1, 149461, Note_on_c, 1, 71, 127
1, 149517, Note_off_c, 1, 71, 0
1, 149518, Note_on_c, 1, 78, 127
1, 149690, Note_off_c, 1, 78, 0
1, 149691, Note_on_c, 1, 74, 127
1, 149747, Note_off_c, 1, 74, 0
1, 149748, Note_on_c, 1, 73, 127
1, 149920, Note_off_c, 1, 73, 0
1, 149921, Note_on_c, 1, 71, 127
1, 149977, Note_off_c, 1, 71, 0
1, 149978, Note_on_c, 1, 79, 127
1, 150208, Note_on_c, 1, 64, 127
1, 150208, Note_on_c, 1, 61, 127
1, 150208, Note_on_c, 1, 58, 127
1, 150208, Note_on_c, 1, 70, 127
1, 150208, Note_on_c, 1, 73, 127
1, 150434, Note_off_c, 1, 79, 0
1, 150438, Note_off_c, 1, 64, 0
1, 150439, Note_on_c, 1, 66, 127
1, 150439, Note_on_c, 1, 78, 127
1, 150667, Note_off_c, 1, 66, 0
1, 150668, Note_off_c, 1, 78, 0
1, 150669, Note_on_c, 1, 76, 127
1, 150898, Note_off_c, 1, 61, 0
1, 150898, Note_off_c, 1, 58, 0
1, 150898, Note_off_c, 1, 70, 0
1, 150898, Note_off_c, 1, 73, 0
1, 150898, Note_off_c, 1, 76, 0
1, 150899, Note_on_c, 1, 76, 127
1, 150899, Note_on_c, 1, 71, 127
1, 150899, Note_on_c, 1, 66, 127
1, 150899, Note_on_c, 1, 59, 127
1, 150899, Note_on_c, 1, 47, 127
1, 150899, Note_on_c, 1, 62, 127
1, 150941, Note_on_c, 1, 74, 127
1, 150942, Note_off_c, 1, 76, 0
1, 150984, Note_off_c, 1, 74, 0
1, 151243, Note_off_c, 1, 71, 0
1, 151244, Note_on_c, 1, 73, 127
1, 151358, Note_off_c, 1, 73, 0
1, 151587, Note_off_c, 1, 66, 0
1, 151588, Note_off_c, 1, 59, 0
1, 151588, Note_off_c, 1, 47, 0
1, 151588, Note_off_c, 1, 62, 0
1, 152174, Note_on_c, 1, 61, 127
1, 152230, Note_off_c, 1, 61, 0
1, 152231, Note_on_c, 1, 62, 127
1, 152287, Note_off_c, 1, 62, 0
1, 152288, Note_on_c, 1, 64, 127
1, 152344, Note_off_c, 1, 64, 0
1, 152345, Note_on_c, 1, 66, 127
1, 152401, Note_off_c, 1, 66, 0
1, 152402, Note_on_c, 1, 67, 127
1, 152458, Note_off_c, 1, 67, 0
1, 152459, Note_on_c, 1, 69, 127
1, 152515, Note_off_c, 1, 69, 0
1, 152516, Note_on_c, 1, 71, 127
1, 152572, Note_off_c, 1, 71, 0
1, 152573, Note_on_c, 1, 73, 127
1, 152629, Note_off_c, 1, 73, 0
1, 152630, Note_on_c, 1, 74, 127
1, 152686, Note_off_c, 1, 74, 0
1, 152687, Note_on_c, 1, 76, 127
1, 152743, Note_off_c, 1, 76, 0
1, 152744, Note_on_c, 1, 78, 127
1, 152800, Note_off_c, 1, 78, 0
1, 152801, Note_on_c, 1, 79, 127
1, 152857, Note_off_c, 1, 79, 0
1, 152858, Note_on_c, 1, 81, 127
1, 152914, Note_off_c, 1, 81, 0
1, 152915, Note_on_c, 1, 83, 127
1, 152958, Note_on_c, 1, 54, 127
1, 152958, Note_on_c, 1, 66, 127
1, 152958, Note_on_c, 1, 63, 127
1, 152958, Note_on_c, 1, 57, 127
1, 153172, Note_on_c, 1, 84, 127
1, 153213, Note_off_c, 1, 83, 0
1, 153354, Note_off_c, 1, 54, 0
1, 153369, Note_off_c, 1, 84, 0
1, 153569, Note_on_c, 1, 81, 127
1, 153752, Note_off_c, 1, 66, 0
1, 153752, Note_off_c, 1, 63, 0
1, 153752, Note_off_c, 1, 57, 0
1, 153767, Note_off_c, 1, 81, 0
1, 153768, Note_on_c, 1, 64, 127
1, 153768, Note_on_c, 1, 59, 127
1, 153768, Note_on_c, 1, 52, 127
1, 153768, Note_on_c, 1, 79, 127
1, 153967, Note_on_c, 1, 78, 127
1, 154165, Note_off_c, 1, 78, 0
1, 154166, Note_on_c, 1, 76, 127
1, 154365, Note_on_c, 1, 74, 127
1, 154563, Note_off_c, 1, 64, 0
1, 154563, Note_off_c, 1, 59, 0
1, 154563, Note_off_c, 1, 52, 0
1, 154563, Note_off_c, 1, 74, 0
1, 154564, Note_on_c, 1, 73, 127
1, 154564, Note_on_c, 1, 57, 127
1, 154762, Note_off_c, 1, 73, 0
1, 154763, Note_on_c, 1, 71, 127
1, 154961, Note_off_c, 1, 71, 0
1, 154962, Note_on_c, 1, 69, 127
1, 155160, Note_off_c, 1, 69, 0
1, 155161, Note_on_c, 1, 67, 127
1, 155353, Note_off_c, 1, 79, 0
1, 155357, Note_off_c, 1, 76, 0
1, 155358, Note_off_c, 1, 67, 0
1, 155369, Note_on_c, 1, 66, 127
1, 156363, Note_off_c, 1, 66, 0
1, 156768, Note_on_c, 1, 62, 127
1, 156946, Note_off_c, 1, 57, 0
1, 156965, Note_off_c, 1, 62, 0
1, 156966, Note_on_c, 1, 61, 127
1, 157760, Note_off_c, 1, 61, 0
1, 158557, Note_on_c, 1, 56, 127
1, 159352, Note_off_c, 1, 56, 0
1, 159353, Note_on_c, 1, 57, 127
1, 159353, Note_on_c, 1, 73, 127
1, 159353, Note_on_c, 1, 64, 127
1, 159551, Note_off_c, 1, 57, 0
1, 159552, Note_on_c, 1, 69, 127
1, 159552, Note_on_c, 1, 59, 127
1, 159750, Note_off_c, 1, 69, 0
1, 159750, Note_off_c, 1, 59, 0
1, 159751, Note_on_c, 1, 71, 127
1, 159949, Note_off_c, 1, 73, 0
1, 159949, Note_off_c, 1, 71, 0
1, 159950, Note_on_c, 1, 55, 127
1, 160148, Note_off_c, 1, 64, 0
1, 160148, Note_off_c, 1, 55, 0
1, 160149, Note_on_c, 1, 74, 127
1, 160149, Note_on_c, 1, 54, 127
1, 160348, Note_on_c, 1, 76, 127
1, 160348, Note_on_c, 1, 66, 127
1, 160546, Note_off_c, 1, 76, 0
1, 160546, Note_off_c, 1, 66, 0
1, 160547, Note_on_c, 1, 78, 127
1, 160547, Note_on_c, 1, 64, 127
1, 160745, Note_off_c, 1, 78, 0
1, 160745, Note_off_c, 1, 64, 0
1, 160746, Note_on_c, 1, 79, 127
1, 160746, Note_on_c, 1, 62, 127
1, 160944, Note_off_c, 1, 74, 0
1, 160944, Note_off_c, 1, 79, 0
1, 160944, Note_off_c, 1, 62, 0
1, 160945, Note_on_c, 1, 61, 127
1, 160945, Note_on_c, 1, 69, 127
1, 160945, Note_on_c, 1, 81, 127
1, 161143, Note_off_c, 1, 61, 0
1, 161144, Note_on_c, 1, 57, 127
1, 161342, Note_off_c, 1, 57, 0
1, 161542, Note_on_c, 1, 60, 127
1, 161734, Note_off_c, 1, 54, 0
1, 161739, Note_off_c, 1, 69, 0
1, 161739, Note_off_c, 1, 60, 0
1, 161740, Note_on_c, 1, 55, 127
1, 161740, Note_on_c, 1, 59, 127
1, 161939, Note_on_c, 1, 71, 127
1, 162136, Note_off_c, 1, 81, 0
1, 162137, Note_off_c, 1, 71, 0
1, 162535, Note_off_c, 1, 55, 0
1, 162535, Note_off_c, 1, 59, 0
1, 162536, Note_on_c, 1, 73, 127
1, 163332, Note_on_c, 1, 58, 127
1, 164121, Note_off_c, 1, 73, 0
1, 164126, Note_off_c, 1, 58, 0
1, 165122, Note_on_c, 1, 70, 127
1, 165319, Note_off_c, 1, 70, 0
1, 165519, Note_on_c, 1, 68, 127
1, 165716, Note_off_c, 1, 68, 0
1, 165717, Note_on_c, 1, 66, 127
1, 165717, Note_on_c, 1, 70, 127
1, 165717, Note_on_c, 1, 73, 127
1, 165717, Note_on_c, 1, 54, 127
1, 165928, Note_on_c, 1, 61, 127
1, 166138, Note_off_c, 1, 61, 0
1, 166139, Note_on_c, 1, 64, 127
1, 166349, Note_off_c, 1, 64, 0
1, 166350, Note_on_c, 1, 62, 127
1, 166560, Note_off_c, 1, 62, 0
1, 166771, Note_off_c, 1, 66, 0
1, 166771, Note_off_c, 1, 70, 0
1, 166771, Note_off_c, 1, 73, 0
1, 166983, Note_on_c, 1, 67, 127
1, 166983, Note_on_c, 1, 59, 127
1, 167193, Note_off_c, 1, 67, 0
1, 167399, Note_off_c, 1, 54, 0
1, 167639, Note_on_c, 1, 68, 127
1, 167871, Note_off_c, 1, 68, 0
1, 167872, Note_on_c, 1, 71, 127
1, 168104, Note_off_c, 1, 71, 0
1, 168335, Note_off_c, 1, 59, 0
1, 168337, Note_on_c, 1, 65, 127
1, 169266, Note_off_c, 1, 65, 0
1, 169298, Note_on_c, 1, 54, 127
1, 169299, Note_on_c, 1, 58, 127
1, 169300, Note_on_c, 1, 61, 127
1, 169300, Note_on_c, 1, 66, 127
1, 169301, Note_on_c, 1, 70, 127
1, 171498, Note_off_c, 1, 54, 0
1, 171499, Note_off_c, 1, 58, 0
1, 171500, Note_off_c, 1, 61, 0
1, 171500, Note_off_c, 1, 66, 0
1, 171501, Note_off_c, 1, 70, 0
1, 171929, Note_on_c, 1, 59, 127
1, 172388, Note_off_c, 1, 59, 0
1, 172394, Note_on_c, 1, 66, 127
1, 172851, Note_off_c, 1, 66, 0
1, 172859, Note_on_c, 1, 62, 127
1, 173207, Note_off_c, 1, 62, 0
1, 173208, Note_on_c, 1, 61, 127
1, 173323, Note_off_c, 1, 61, 0
1, 173324, Note_on_c, 1, 59, 127
1, 173556, Note_off_c, 1, 59, 0
1, 173557, Note_on_c, 1, 61, 127
1, 173672, Note_off_c, 1, 61, 0
1, 173673, Note_on_c, 1, 62, 127
1, 173788, Note_off_c, 1, 62, 0
1, 173789, Note_on_c, 1, 64, 127
1, 174020, Note_off_c, 1, 64, 0
1, 174022, Note_on_c, 1, 64, 127
1, 174254, Note_off_c, 1, 64, 0
1, 174255, Note_on_c, 1, 64, 127
1, 174487, Note_off_c, 1, 64, 0
1, 174488, Note_on_c, 1, 64, 127
1, 174721, Note_on_c, 1, 66, 127
1, 174953, Note_off_c, 1, 64, 0
1, 174954, Note_on_c, 1, 62, 127
1, 175069, Note_off_c, 1, 62, 0
1, 175070, Note_on_c, 1, 61, 127
1, 175185, Note_off_c, 1, 66, 0
1, 175185, Note_off_c, 1, 61, 0
1, 175186, Note_on_c, 1, 62, 127
1, 175186, Note_on_c, 1, 71, 127
1, 175418, Note_off_c, 1, 62, 0
1, 175419, Note_on_c, 1, 61, 127
1, 175534, Note_off_c, 1, 61, 0
1, 175535, Note_on_c, 1, 59, 127
1, 175650, Note_off_c, 1, 71, 0
1, 175650, Note_off_c, 1, 59, 0
1, 175651, Note_on_c, 1, 69, 127
1, 175651, Note_on_c, 1, 61, 127
1, 175999, Note_off_c, 1, 69, 0
1, 176000, Note_on_c, 1, 68, 127
1, 176115, Note_off_c, 1, 61, 0
1, 176115, Note_off_c, 1, 68, 0
1, 176116, Note_on_c, 1, 66, 127
1, 176116, Note_on_c, 1, 62, 127
1, 176348, Note_off_c, 1, 66, 0
1, 176349, Note_on_c, 1, 68, 127
1, 176464, Note_off_c, 1, 68, 0
1, 176465, Note_on_c, 1, 69, 127
1, 176580, Note_off_c, 1, 62, 0
1, 176580, Note_off_c, 1, 69, 0
1, 176581, Note_on_c, 1, 71, 127
1, 176581, Note_on_c, 1, 63, 127
1, 176813, Note_off_c, 1, 71, 0
1, 177046, Note_off_c, 1, 63, 0
1, 177047, Note_on_c, 1, 71, 127
1, 177047, Note_on_c, 1, 65, 127
1, 177279, Note_off_c, 1, 71, 0
1, 177512, Note_off_c, 1, 65, 0
1, 177513, Note_on_c, 1, 66, 127
1, 177746, Note_on_c, 1, 69, 127
1, 177861, Note_off_c, 1, 69, 0
1, 177862, Note_on_c, 1, 68, 127
1, 177977, Note_off_c, 1, 66, 0
1, 177977, Note_off_c, 1, 68, 0
1, 177978, Note_on_c, 1, 69, 127
1, 177978, Note_on_c, 1, 61, 127
1, 178210, Note_off_c, 1, 69, 0
1, 178210, Note_off_c, 1, 61, 0
1, 178211, Note_on_c, 1, 67, 127
1, 178211, Note_on_c, 1, 63, 127
1, 178326, Note_off_c, 1, 67, 0
1, 178327, Note_on_c, 1, 66, 127
1, 178442, Note_off_c, 1, 63, 0
1, 178442, Note_off_c, 1, 66, 0
1, 178443, Note_on_c, 1, 64, 127
1, 178443, Note_on_c, 1, 67, 127
1, 178675, Note_off_c, 1, 64, 0
1, 178676, Note_on_c, 1, 59, 127
1, 178908, Note_off_c, 1, 59, 0
1, 179024, Note_off_c, 1, 67, 0
1, 179025, Note_on_c, 1, 66, 127
1, 179140, Note_off_c, 1, 66, 0
1, 179257, Note_on_c, 1, 69, 127
1, 179372, Note_off_c, 1, 69, 0
1, 179606, Note_on_c, 1, 62, 127
1, 179721, Note_off_c, 1, 62, 0
1, 179722, Note_on_c, 1, 61, 127
1, 179837, Note_off_c, 1, 61, 0
1, 179838, Note_on_c, 1, 62, 127
1, 179838, Note_on_c, 1, 71, 127
1, 179953, Note_off_c, 1, 62, 0
1, 179954, Note_on_c, 1, 61, 127
1, 180069, Note_off_c, 1, 61, 0
1, 180186, Note_on_c, 1, 64, 127
1, 180301, Note_off_c, 1, 64, 0
1, 180302, Note_on_c, 1, 73, 127
1, 180302, Note_on_c, 1, 66, 127
1, 180534, Note_off_c, 1, 71, 0
1, 180535, Note_on_c, 1, 69, 127
1, 180650, Note_off_c, 1, 69, 0
1, 180651, Note_on_c, 1, 68, 127
1, 180763, Note_off_c, 1, 73, 0
1, 180767, Note_off_c, 1, 68, 0
1, 180768, Note_on_c, 1, 78, 127
1, 181105, Note_off_c, 1, 66, 0
1, 181229, Note_off_c, 1, 78, 0
1, 181234, Note_on_c, 1, 76, 127
1, 181234, Note_on_c, 1, 68, 127
1, 181234, Note_on_c, 1, 61, 127
1, 181582, Note_off_c, 1, 76, 0
1, 181583, Note_on_c, 1, 74, 127
1, 181695, Note_off_c, 1, 68, 0
1, 181699, Note_off_c, 1, 61, 0
1, 181699, Note_off_c, 1, 74, 0
1, 181700, Note_on_c, 1, 73, 127
1, 181700, Note_on_c, 1, 64, 127
1, 181932, Note_off_c, 1, 73, 0
1, 182049, Note_on_c, 1, 74, 127
1, 182164, Note_off_c, 1, 74, 0
1, 182165, Note_on_c, 1, 76, 127
1, 182165, Note_on_c, 1, 68, 127
1, 182397, Note_off_c, 1, 64, 0
1, 182397, Note_off_c, 1, 76, 0
1, 182398, Note_on_c, 1, 62, 127
1, 182626, Note_off_c, 1, 68, 0
1, 182630, Note_off_c, 1, 62, 0
1, 182631, Note_on_c, 1, 76, 127
1, 182631, Note_on_c, 1, 61, 127
1, 182631, Note_on_c, 1, 70, 127
1, 182861, Note_off_c, 1, 76, 0
1, 182862, Note_off_c, 1, 61, 0
1, 182863, Note_on_c, 1, 66, 127
1, 183091, Note_off_c, 1, 70, 0
1, 183095, Note_off_c, 1, 66, 0
1, 183096, Note_on_c, 1, 71, 127
1, 183096, Note_on_c, 1, 59, 127
1, 183328, Note_off_c, 1, 71, 0
1, 183329, Note_on_c, 1, 74, 127
1, 183444, Note_off_c, 1, 74, 0
1, 183445, Note_on_c, 1, 73, 127
1, 183560, Note_off_c, 1, 73, 0
1, 183676, Note_off_c, 1, 59, 0
1, 183677, Note_on_c, 1, 62, 127
1, 183792, Note_off_c, 1, 62, 0
1, 183793, Note_on_c, 1, 67, 127
1, 183908, Note_off_c, 1, 67, 0
1, 184025, Note_on_c, 1, 64, 127
1, 184140, Note_off_c, 1, 64, 0
1, 184721, Note_on_c, 1, 78, 127
1, 184836, Note_off_c, 1, 78, 0
1, 184954, Note_on_c, 1, 74, 127
1, 184954, Note_on_c, 1, 71, 127
1, 184954, Note_on_c, 1, 59, 127
1, 185069, Note_off_c, 1, 74, 0
1, 185069, Note_off_c, 1, 71, 0
1, 185186, Note_on_c, 1, 73, 127
1, 185186, Note_on_c, 1, 69, 127
1, 185301, Note_off_c, 1, 73, 0
1, 185416, Note_off_c, 1, 69, 0
1, 185417, Note_off_c, 1, 59, 0
1, 185418, Note_on_c, 1, 68, 127
1, 185418, Note_on_c, 1, 64, 127
1, 185418, Note_on_c, 1, 76, 127
1, 185650, Note_off_c, 1, 68, 0
1, 185650, Note_off_c, 1, 64, 0
1, 185651, Note_on_c, 1, 70, 127
1, 185651, Note_on_c, 1, 62, 127
1, 185766, Note_off_c, 1, 70, 0
1, 185767, Note_on_c, 1, 71, 127
1, 185882, Note_off_c, 1, 62, 0
1, 185882, Note_off_c, 1, 71, 0
1, 185883, Note_on_c, 1, 61, 127
1, 185883, Note_on_c, 1, 54, 127
1, 186115, Note_off_c, 1, 76, 0
1, 186115, Note_off_c, 1, 61, 0
1, 186116, Note_on_c, 1, 74, 127
1, 186116, Note_on_c, 1, 66, 127
1, 186231, Note_off_c, 1, 74, 0
1, 186232, Note_on_c, 1, 73, 127
1, 186344, Note_off_c, 1, 54, 0
1, 186348, Note_off_c, 1, 73, 0
1, 186349, Note_on_c, 1, 59, 127
1, 186577, Note_off_c, 1, 66, 0
1, 186810, Note_off_c, 1, 59, 0
1, 186815, Note_on_c, 1, 57, 127
1, 186815, Note_on_c, 1, 61, 127
1, 186815, Note_on_c, 1, 66, 127
1, 186815, Note_on_c, 1, 73, 127
1, 187163, Note_off_c, 1, 57, 0
1, 187164, Note_on_c, 1, 56, 127
1, 187276, Note_off_c, 1, 61, 0
1, 187280, Note_off_c, 1, 66, 0
1, 187280, Note_off_c, 1, 73, 0
1, 187280, Note_off_c, 1, 56, 0
1, 187281, Note_on_c, 1, 54, 127
1, 187281, Note_on_c, 1, 74, 127
1, 187281, Note_on_c, 1, 69, 127
1, 187513, Note_off_c, 1, 54, 0
1, 187514, Note_on_c, 1, 56, 127
1, 187629, Note_off_c, 1, 56, 0
1, 187630, Note_on_c, 1, 57, 127
1, 187745, Note_off_c, 1, 74, 0
1, 187745, Note_off_c, 1, 69, 0
1, 187745, Note_off_c, 1, 57, 0
1, 187746, Note_on_c, 1, 59, 127
1, 187746, Note_on_c, 1, 75, 127
1, 187746, Note_on_c, 1, 66, 127
1, 187978, Note_off_c, 1, 59, 0
1, 188211, Note_off_c, 1, 75, 0
1, 188211, Note_off_c, 1, 66, 0
1, 188212, Note_on_c, 1, 59, 127
1, 188212, Note_on_c, 1, 68, 127
1, 188212, Note_on_c, 1, 77, 127
1, 188444, Note_off_c, 1, 59, 0
1, 188677, Note_off_c, 1, 68, 0
1, 188677, Note_off_c, 1, 77, 0
1, 188678, Note_on_c, 1, 61, 127
1, 188678, Note_on_c, 1, 78, 127
1, 188678, Note_on_c, 1, 73, 127
1, 188911, Note_on_c, 1, 57, 127
1, 189026, Note_off_c, 1, 57, 0
1, 189027, Note_on_c, 1, 56, 127
1, 189139, Note_off_c, 1, 61, 0
1, 189143, Note_off_c, 1, 78, 0
1, 189143, Note_off_c, 1, 73, 0
1, 189143, Note_off_c, 1, 56, 0
1, 189144, Note_on_c, 1, 73, 127
1, 189144, Note_on_c, 1, 57, 127
1, 189144, Note_on_c, 1, 69, 127
1, 189144, Note_on_c, 1, 66, 127
1, 189376, Note_off_c, 1, 73, 0
1, 189376, Note_off_c, 1, 57, 0
1, 189377, Note_on_c, 1, 55, 127
1, 189377, Note_on_c, 1, 75, 127
1, 189492, Note_off_c, 1, 55, 0
1, 189493, Note_on_c, 1, 54, 127
1, 189605, Note_off_c, 1, 69, 0
1, 189605, Note_off_c, 1, 66, 0
1, 189609, Note_off_c, 1, 75, 0
1, 189609, Note_off_c, 1, 54, 0
1, 189610, Note_on_c, 1, 64, 127
1, 189610, Note_on_c, 1, 71, 127
1, 189610, Note_on_c, 1, 55, 127
1, 189610, Note_on_c, 1, 76, 127
1, 189958, Note_off_c, 1, 64, 0
1, 189959, Note_on_c, 1, 62, 127
1, 190071, Note_off_c, 1, 71, 0
1, 190071, Note_off_c, 1, 55, 0
1, 190075, Note_off_c, 1, 62, 0
1, 190076, Note_on_c, 1, 61, 127
1, 190076, Note_on_c, 1, 57, 127
1, 190191, Note_off_c, 1, 76, 0
1, 190307, Note_off_c, 1, 61, 0
1, 190308, Note_on_c, 1, 74, 127
1, 190423, Note_off_c, 1, 74, 0
1, 190424, Note_on_c, 1, 73, 127
1, 190536, Note_off_c, 1, 57, 0
1, 190540, Note_off_c, 1, 73, 0
1, 190541, Note_on_c, 1, 64, 127
1, 190541, Note_on_c, 1, 56, 127
1, 190541, Note_on_c, 1, 71, 127
1, 190773, Note_off_c, 1, 64, 0
1, 191002, Note_off_c, 1, 56, 0
1, 191006, Note_off_c, 1, 71, 0
1, 191007, Note_on_c, 1, 64, 127
1, 191007, Note_on_c, 1, 58, 127
1, 191007, Note_on_c, 1, 73, 127
1, 191239, Note_off_c, 1, 64, 0
1, 191468, Note_off_c, 1, 58, 0
1, 191473, Note_on_c, 1, 66, 127
1, 191473, Note_on_c, 1, 59, 127
1, 191706, Note_on_c, 1, 62, 127
1, 191821, Note_off_c, 1, 62, 0
1, 191822, Note_on_c, 1, 61, 127
1, 191937, Note_off_c, 1, 73, 0
1, 191937, Note_off_c, 1, 66, 0
1, 191937, Note_off_c, 1, 61, 0
1, 191938, Note_on_c, 1, 71, 127
1, 192170, Note_off_c, 1, 59, 0
1, 192171, Note_on_c, 1, 55, 127
1, 192287, Note_on_c, 1, 74, 127
1, 192399, Note_off_c, 1, 71, 0
1, 192401, Note_off_c, 1, 55, 0
1, 192402, Note_off_c, 1, 74, 0
1, 192403, Note_on_c, 1, 69, 127
1, 192403, Note_on_c, 1, 73, 127
1, 192403, Note_on_c, 1, 54, 127
1, 192403, Note_on_c, 1, 61, 127
1, 192751, Note_off_c, 1, 69, 0
1, 192752, Note_on_c, 1, 68, 127
1, 192864, Note_off_c, 1, 73, 0
1, 192868, Note_off_c, 1, 54, 0
1, 192868, Note_off_c, 1, 61, 0
1, 192868, Note_off_c, 1, 68, 0
1, 192869, Note_on_c, 1, 66, 127
1, 192869, Note_on_c, 1, 62, 127
1, 192869, Note_on_c, 1, 59, 127
1, 193101, Note_off_c, 1, 66, 0
1, 193102, Note_on_c, 1, 68, 127
1, 193217, Note_off_c, 1, 68, 0
1, 193218, Note_on_c, 1, 69, 127
1, 193333, Note_off_c, 1, 62, 0
1, 193333, Note_off_c, 1, 59, 0
1, 193333, Note_off_c, 1, 69, 0
1, 193334, Note_on_c, 1, 71, 127
1, 193334, Note_on_c, 1, 56, 127
1, 193334, Note_on_c, 1, 63, 127
1, 193566, Note_off_c, 1, 71, 0
1, 193799, Note_off_c, 1, 56, 0
1, 193799, Note_off_c, 1, 63, 0
1, 193800, Note_on_c, 1, 71, 127
1, 193800, Note_on_c, 1, 65, 127
1, 193800, Note_on_c, 1, 61, 127
1, 194032, Note_off_c, 1, 71, 0
1, 194265, Note_off_c, 1, 65, 0
1, 194265, Note_off_c, 1, 61, 0
1, 194266, Note_on_c, 1, 66, 127
1, 194266, Note_on_c, 1, 54, 127
1, 194497, Note_off_c, 1, 66, 0
1, 194499, Note_on_c, 1, 69, 127
1, 194614, Note_off_c, 1, 69, 0
1, 194615, Note_on_c, 1, 68, 127
1, 194730, Note_off_c, 1, 68, 0
1, 194963, Note_off_c, 1, 54, 0
1, 194964, Note_on_c, 1, 71, 127
1, 194964, Note_on_c, 1, 68, 127
1, 194964, Note_on_c, 1, 52, 127
1, 195079, Note_off_c, 1, 71, 0
1, 195079, Note_off_c, 1, 68, 0
1, 195080, Note_on_c, 1, 69, 127
1, 195080, Note_on_c, 1, 73, 127
1, 195195, Note_off_c, 1, 52, 0
1, 195195, Note_off_c, 1, 69, 0
1, 195195, Note_off_c, 1, 73, 0
1, 195196, Note_on_c, 1, 74, 127
1, 195196, Note_on_c, 1, 50, 127
1, 195196, Note_on_c, 1, 71, 127
1, 195428, Note_off_c, 1, 74, 0
1, 195428, Note_off_c, 1, 50, 0
1, 195429, Note_on_c, 1, 49, 127
1, 195657, Note_off_c, 1, 71, 0
1, 195661, Note_off_c, 1, 49, 0
1, 195662, Note_on_c, 1, 74, 127
1, 195662, Note_on_c, 1, 50, 127
1, 195662, Note_on_c, 1, 66, 127
1, 195894, Note_off_c, 1, 74, 0
1, 195894, Note_off_c, 1, 50, 0
1, 195895, Note_on_c, 1, 47, 127
1, 196123, Note_off_c, 1, 66, 0
1, 196127, Note_off_c, 1, 47, 0
1, 196128, Note_on_c, 1, 67, 127
1, 196128, Note_on_c, 1, 52, 127
1, 196361, Note_on_c, 1, 73, 127
1, 196593, Note_off_c, 1, 67, 0
1, 196593, Note_off_c, 1, 52, 0
1, 196594, Note_on_c, 1, 55, 127
1, 196594, Note_on_c, 1, 64, 127
1, 196826, Note_off_c, 1, 73, 0
1, 196827, Note_on_c, 1, 71, 127
1, 197059, Note_off_c, 1, 55, 0
1, 197059, Note_off_c, 1, 64, 0
1, 197060, Note_on_c, 1, 54, 127
1, 197288, Note_off_c, 1, 71, 0
1, 197293, Note_on_c, 1, 70, 127
1, 197408, Note_off_c, 1, 70, 0
1, 197409, Note_on_c, 1, 68, 127
1, 197521, Note_off_c, 1, 54, 0
1, 197525, Note_off_c, 1, 68, 0
1, 197526, Note_on_c, 1, 70, 127
1, 197526, Note_on_c, 1, 78, 127
1, 197874, Note_off_c, 1, 70, 0
1, 197875, Note_on_c, 1, 71, 127
1, 197987, Note_off_c, 1, 78, 0
1, 197991, Note_off_c, 1, 71, 0
1, 197992, Note_on_c, 1, 71, 127
1, 197992, Note_on_c, 1, 74, 127
1, 198224, Note_off_c, 1, 71, 0
1, 198225, Note_on_c, 1, 66, 127
1, 198332, Note_off_c, 1, 74, 0
1, 198342, Note_on_c, 1, 73, 127
1, 198456, Note_off_c, 1, 66, 0
1, 198457, Note_off_c, 1, 73, 0
1, 198458, Note_on_c, 1, 71, 127
1, 198458, Note_on_c, 1, 67, 127
1, 198690, Note_off_c, 1, 71, 0
1, 198691, Note_on_c, 1, 73, 127
1, 198806, Note_off_c, 1, 73, 0
1, 198807, Note_on_c, 1, 74, 127
1, 198919, Note_off_c, 1, 67, 0
1, 198923, Note_off_c, 1, 74, 0
1, 198924, Note_on_c, 1, 76, 127
1, 198924, Note_on_c, 1, 68, 127
1, 199156, Note_off_c, 1, 76, 0
1, 199385, Note_off_c, 1, 68, 0
1, 199390, Note_on_c, 1, 76, 127
1, 199390, Note_on_c, 1, 70, 127
1, 199620, Note_off_c, 1, 76, 0
1, 199850, Note_off_c, 1, 70, 0
1, 199855, Note_on_c, 1, 71, 127
1, 199855, Note_on_c, 1, 59, 127
1, 200087, Note_off_c, 1, 71, 0
1, 200088, Note_on_c, 1, 74, 127
1, 200088, Note_on_c, 1, 66, 127
1, 200203, Note_off_c, 1, 74, 0
1, 200204, Note_on_c, 1, 73, 127
1, 200317, Note_off_c, 1, 66, 0
1, 200319, Note_off_c, 1, 59, 0
1, 200319, Note_off_c, 1, 73, 0
1, 200320, Note_on_c, 1, 74, 127
1, 200320, Note_on_c, 1, 69, 127
1, 200320, Note_on_c, 1, 66, 127
1, 200552, Note_off_c, 1, 74, 0
1, 200553, Note_on_c, 1, 73, 127
1, 200668, Note_off_c, 1, 73, 0
1, 200669, Note_on_c, 1, 71, 127
1, 200781, Note_off_c, 1, 69, 0
1, 200785, Note_off_c, 1, 66, 0
1, 200785, Note_off_c, 1, 71, 0
1, 200786, Note_on_c, 1, 64, 127
1, 200786, Note_on_c, 1, 73, 127
1, 200786, Note_on_c, 1, 67, 127
1, 201134, Note_off_c, 1, 64, 0
1, 201135, Note_on_c, 1, 62, 127
1, 201250, Note_off_c, 1, 73, 0
1, 201250, Note_off_c, 1, 62, 0
1, 201251, Note_on_c, 1, 61, 127
1, 201251, Note_on_c, 1, 76, 127
1, 201483, Note_off_c, 1, 67, 0
1, 201483, Note_off_c, 1, 61, 0
1, 201600, Note_on_c, 1, 66, 127
1, 201715, Note_off_c, 1, 66, 0
1, 201948, Note_off_c, 1, 76, 0
1, 201949, Note_on_c, 1, 74, 127
1, 202181, Note_off_c, 1, 74, 0
1, 202182, Note_on_c, 1, 73, 127
1, 202182, Note_on_c, 1, 64, 127
1, 202182, Note_on_c, 1, 67, 127
1, 202414, Note_off_c, 1, 73, 0
1, 202414, Note_off_c, 1, 64, 0
1, 202415, Note_on_c, 1, 71, 127
1, 202643, Note_off_c, 1, 67, 0
1, 202647, Note_off_c, 1, 71, 0
1, 202648, Note_on_c, 1, 66, 127
1, 202648, Note_on_c, 1, 70, 127
1, 202881, Note_on_c, 1, 62, 127
1, 202996, Note_off_c, 1, 62, 0
1, 202997, Note_on_c, 1, 61, 127
1, 203112, Note_off_c, 1, 66, 0
1, 203112, Note_off_c, 1, 70, 0
1, 203112, Note_off_c, 1, 61, 0
1, 203113, Note_on_c, 1, 66, 127
1, 203113, Note_on_c, 1, 62, 127
1, 203113, Note_on_c, 1, 71, 127
1, 203345, Note_off_c, 1, 66, 0
1, 203345, Note_off_c, 1, 62, 0
1, 203346, Note_on_c, 1, 61, 127
1, 203346, Note_on_c, 1, 67, 127
1, 203461, Note_off_c, 1, 61, 0
1, 203462, Note_on_c, 1, 59, 127
1, 203577, Note_off_c, 1, 67, 0
1, 203577, Note_off_c, 1, 59, 0
1, 203578, Note_on_c, 1, 64, 127
1, 203578, Note_on_c, 1, 49, 127
1, 203694, Note_off_c, 1, 71, 0
1, 203694, Note_on_c, 1, 70, 127
1, 203808, Note_off_c, 1, 64, 0
1, 203809, Note_off_c, 1, 70, 0
1, 203926, Note_on_c, 1, 73, 127
1, 204041, Note_off_c, 1, 49, 0
1, 204041, Note_off_c, 1, 73, 0
1, 204042, Note_on_c, 1, 64, 127
1, 204042, Note_on_c, 1, 70, 127
1, 204042, Note_on_c, 1, 54, 127
1, 204272, Note_off_c, 1, 64, 0
1, 204274, Note_on_c, 1, 61, 127
1, 204381, Note_off_c, 1, 70, 0
1, 204391, Note_on_c, 1, 71, 127
1, 204505, Note_off_c, 1, 61, 0
1, 204506, Note_off_c, 1, 54, 0
1, 204506, Note_off_c, 1, 71, 0
1, 204507, Note_on_c, 1, 50, 127
1, 204507, Note_on_c, 1, 59, 127
1, 204507, Note_on_c, 1, 71, 127
1, 204507, Note_on_c, 1, 66, 127
1, 204855, Note_off_c, 1, 50, 0
1, 204856, Note_on_c, 1, 49, 127
1, 204968, Note_off_c, 1, 59, 0
1, 204972, Note_off_c, 1, 71, 0
1, 204972, Note_off_c, 1, 66, 0
1, 204972, Note_off_c, 1, 49, 0
1, 204973, Note_on_c, 1, 47, 127
1, 204973, Note_on_c, 1, 54, 127
1, 204973, Note_on_c, 1, 71, 127
1, 204973, Note_on_c, 1, 74, 127
1, 205205, Note_off_c, 1, 47, 0
1, 205206, Note_on_c, 1, 49, 127
1, 205321, Note_off_c, 1, 49, 0
1, 205322, Note_on_c, 1, 50, 127
1, 205434, Note_off_c, 1, 54, 0
1, 205438, Note_off_c, 1, 50, 0
1, 205439, Note_on_c, 1, 52, 127
1, 205439, Note_on_c, 1, 56, 127
1, 205671, Note_off_c, 1, 52, 0
1, 205900, Note_off_c, 1, 56, 0
1, 205904, Note_off_c, 1, 71, 0
1, 205904, Note_off_c, 1, 74, 0
1, 205905, Note_on_c, 1, 52, 127
1, 205905, Note_on_c, 1, 58, 127
1, 205905, Note_on_c, 1, 73, 127
1, 205905, Note_on_c, 1, 66, 127
1, 206137, Note_off_c, 1, 52, 0
1, 206366, Note_off_c, 1, 58, 0
1, 206370, Note_off_c, 1, 73, 0
1, 206371, Note_on_c, 1, 59, 127
1, 206371, Note_on_c, 1, 71, 127
1, 206604, Note_on_c, 1, 50, 127
1, 206719, Note_off_c, 1, 50, 0
1, 206720, Note_on_c, 1, 49, 127
1, 206832, Note_off_c, 1, 59, 0
1, 206835, Note_off_c, 1, 66, 0
1, 206836, Note_off_c, 1, 71, 0
1, 206836, Note_off_c, 1, 49, 0
1, 206837, Note_on_c, 1, 50, 127
1, 206837, Note_on_c, 1, 66, 127
1, 206837, Note_on_c, 1, 71, 127
1, 207069, Note_off_c, 1, 50, 0
1, 207070, Note_on_c, 1, 49, 127
1, 207185, Note_off_c, 1, 49, 0
1, 207186, Note_on_c, 1, 47, 127
1, 207301, Note_off_c, 1, 66, 0
1, 207301, Note_off_c, 1, 71, 0
1, 207301, Note_off_c, 1, 47, 0
1, 207302, Note_on_c, 1, 69, 127
1, 207302, Note_on_c, 1, 64, 127
1, 207302, Note_on_c, 1, 49, 127
1, 207650, Note_off_c, 1, 69, 0
1, 207651, Note_on_c, 1, 67, 127
1, 207766, Note_off_c, 1, 64, 0
1, 207766, Note_off_c, 1, 49, 0
1, 207766, Note_off_c, 1, 67, 0
1, 207767, Note_on_c, 1, 66, 127
1, 207767, Note_on_c, 1, 62, 127
1, 207767, Note_on_c, 1, 50, 127
1, 207999, Note_off_c, 1, 66, 0
1, 207999, Note_off_c, 1, 62, 0
1, 208000, Note_on_c, 1, 68, 127
1, 208000, Note_on_c, 1, 61, 127
1, 208115, Note_off_c, 1, 68, 0
1, 208116, Note_on_c, 1, 69, 127
1, 208228, Note_off_c, 1, 50, 0
1, 208232, Note_off_c, 1, 61, 0
1, 208232, Note_off_c, 1, 69, 0
1, 208233, Note_on_c, 1, 71, 127
1, 208233, Note_on_c, 1, 59, 127
1, 208233, Note_on_c, 1, 51, 127
1, 208465, Note_off_c, 1, 71, 0
1, 208465, Note_off_c, 1, 59, 0
1, 208466, Note_on_c, 1, 57, 127
1, 208694, Note_off_c, 1, 51, 0
1, 208698, Note_off_c, 1, 57, 0
1, 208699, Note_on_c, 1, 71, 127
1, 208699, Note_on_c, 1, 56, 127
1, 208699, Note_on_c, 1, 53, 127
1, 208931, Note_off_c, 1, 71, 0
1, 209164, Note_off_c, 1, 56, 0
1, 209164, Note_off_c, 1, 53, 0
1, 209165, Note_on_c, 1, 61, 127
1, 209165, Note_on_c, 1, 54, 127
1, 209397, Note_off_c, 1, 61, 0
1, 209398, Note_on_c, 1, 69, 127
1, 209513, Note_off_c, 1, 69, 0
1, 209514, Note_on_c, 1, 68, 127
1, 209629, Note_off_c, 1, 68, 0
1, 209862, Note_off_c, 1, 54, 0
1, 209863, Note_on_c, 1, 68, 127
1, 209863, Note_on_c, 1, 52, 127
1, 209863, Note_on_c, 1, 61, 127
1, 210095, Note_off_c, 1, 68, 0
1, 210095, Note_off_c, 1, 52, 0
1, 210096, Note_on_c, 1, 66, 127
1, 210096, Note_on_c, 1, 50, 127
1, 210324, Note_off_c, 1, 61, 0
1, 210329, Note_on_c, 1, 59, 127
1, 210444, Note_off_c, 1, 59, 0
1, 210445, Note_on_c, 1, 57, 127
1, 210560, Note_off_c, 1, 57, 0
1, 210793, Note_off_c, 1, 66, 0
1, 210793, Note_off_c, 1, 50, 0
1, 210794, Note_on_c, 1, 49, 127
1, 210909, Note_off_c, 1, 49, 0
1, 210910, Note_on_c, 1, 47, 127
1, 211025, Note_off_c, 1, 47, 0
1, 211026, Note_on_c, 1, 65, 127
1, 211375, Note_on_c, 1, 56, 127
1, 211490, Note_off_c, 1, 56, 0
1, 211606, Note_off_c, 1, 65, 0
1, 212305, Note_on_c, 1, 54, 127
1, 212420, Note_off_c, 1, 54, 0
1, 212421, Note_on_c, 1, 73, 127
1, 212885, Note_off_c, 1, 73, 0
1, 212886, Note_on_c, 1, 69, 127
1, 212886, Note_on_c, 1, 66, 127
1, 212886, Note_on_c, 1, 54, 127
1, 212886, Note_on_c, 1, 42, 127
1, 213234, Note_off_c, 1, 69, 0
1, 213235, Note_on_c, 1, 68, 127
1, 213347, Note_off_c, 1, 66, 0
1, 213351, Note_off_c, 1, 68, 0
1, 213584, Note_off_c, 1, 54, 0
1, 213585, Note_on_c, 1, 52, 127
1, 213816, Note_off_c, 1, 42, 0
1, 213816, Note_off_c, 1, 52, 0
1, 213817, Note_on_c, 1, 71, 127
1, 213817, Note_on_c, 1, 44, 127
1, 213817, Note_on_c, 1, 51, 127
1, 214049, Note_off_c, 1, 71, 0
1, 214282, Note_off_c, 1, 44, 0
1, 214282, Note_off_c, 1, 51, 0
1, 214283, Note_on_c, 1, 71, 127
1, 214283, Note_on_c, 1, 49, 127
1, 214283, Note_on_c, 1, 53, 127
1, 214515, Note_off_c, 1, 71, 0
1, 214748, Note_off_c, 1, 49, 0
1, 214748, Note_off_c, 1, 53, 0
1, 214749, Note_on_c, 1, 61, 127
1, 214749, Note_on_c, 1, 54, 127
1, 214749, Note_on_c, 1, 42, 127
1, 214982, Note_on_c, 1, 70, 127
1, 215097, Note_off_c, 1, 70, 0
1, 215098, Note_on_c, 1, 68, 127
1, 215210, Note_off_c, 1, 61, 0
1, 215210, Note_off_c, 1, 54, 0
1, 215214, Note_off_c, 1, 68, 0
1, 215215, Note_on_c, 1, 66, 127
1, 215447, Note_off_c, 1, 66, 0
1, 215448, Note_on_c, 1, 64, 127
1, 215680, Note_off_c, 1, 42, 0
1, 215680, Note_off_c, 1, 64, 0
1, 215681, Note_on_c, 1, 62, 127
1, 215681, Note_on_c, 1, 71, 127
1, 215681, Note_on_c, 1, 54, 127
1, 215681, Note_on_c, 1, 47, 127
1, 216029, Note_off_c, 1, 62, 0
1, 216030, Note_on_c, 1, 61, 127
1, 216142, Note_off_c, 1, 71, 0
1, 216142, Note_off_c, 1, 54, 0
1, 216146, Note_off_c, 1, 61, 0
1, 216147, Note_on_c, 1, 59, 127
1, 216608, Note_off_c, 1, 59, 0
1, 216612, Note_off_c, 1, 47, 0
1, 216613, Note_on_c, 1, 64, 127
1, 216613, Note_on_c, 1, 55, 127
1, 216845, Note_off_c, 1, 64, 0
1, 216961, Note_off_c, 1, 55, 0
1, 216962, Note_on_c, 1, 54, 127
1, 217077, Note_off_c, 1, 54, 0
1, 217078, Note_on_c, 1, 64, 127
1, 217078, Note_on_c, 1, 52, 127
1, 217310, Note_off_c, 1, 64, 0
1, 217310, Note_off_c, 1, 52, 0
1, 217311, Note_on_c, 1, 54, 127
1, 217311, Note_on_c, 1, 64, 127
1, 217426, Note_off_c, 1, 54, 0
1, 217427, Note_on_c, 1, 55, 127
1, 217542, Note_off_c, 1, 64, 0
1, 217542, Note_off_c, 1, 55, 0
1, 217543, Note_on_c, 1, 57, 127
1, 217543, Note_on_c, 1, 61, 127
1, 217775, Note_off_c, 1, 57, 0
1, 217891, Note_off_c, 1, 61, 0
1, 217892, Note_on_c, 1, 59, 127
1, 218007, Note_off_c, 1, 59, 0
1, 218008, Note_on_c, 1, 57, 127
1, 218240, Note_off_c, 1, 57, 0
1, 218241, Note_on_c, 1, 59, 127
1, 218241, Note_on_c, 1, 57, 127
1, 218356, Note_off_c, 1, 59, 0
1, 218357, Note_on_c, 1, 61, 127
1, 218472, Note_off_c, 1, 57, 0
1, 218472, Note_off_c, 1, 61, 0
1, 218473, Note_on_c, 1, 62, 127
1, 218473, Note_on_c, 1, 54, 127
1, 218705, Note_off_c, 1, 62, 0
1, 218821, Note_off_c, 1, 54, 0
1, 218822, Note_on_c, 1, 52, 127
1, 218937, Note_off_c, 1, 52, 0
1, 218938, Note_on_c, 1, 62, 127
1, 218938, Note_on_c, 1, 50, 127
1, 219170, Note_off_c, 1, 62, 0
1, 219170, Note_off_c, 1, 50, 0
1, 219171, Note_on_c, 1, 52, 127
1, 219171, Note_on_c, 1, 62, 127
1, 219286, Note_off_c, 1, 52, 0
1, 219287, Note_on_c, 1, 54, 127
1, 219402, Note_off_c, 1, 62, 0
1, 219402, Note_off_c, 1, 54, 0
1, 219403, Note_on_c, 1, 59, 127
1, 219403, Note_on_c, 1, 55, 127
1, 219403, Note_on_c, 1, 71, 127
1, 219742, Note_off_c, 1, 59, 0
1, 219752, Note_on_c, 1, 57, 127
1, 219864, Note_off_c, 1, 55, 0
1, 219868, Note_off_c, 1, 71, 0
1, 219868, Note_off_c, 1, 57, 0
1, 219869, Note_on_c, 1, 55, 127
1, 219869, Note_on_c, 1, 52, 127
1, 219869, Note_on_c, 1, 76, 127
1, 220101, Note_off_c, 1, 55, 0
1, 220102, Note_on_c, 1, 57, 127
1, 220217, Note_off_c, 1, 57, 0
1, 220330, Note_off_c, 1, 52, 0
1, 220334, Note_off_c, 1, 76, 0
1, 220335, Note_on_c, 1, 75, 127
1, 220335, Note_on_c, 1, 66, 127
1, 220335, Note_on_c, 1, 47, 127
1, 220335, Note_on_c, 1, 54, 127
1, 220683, Note_off_c, 1, 75, 0
1, 220684, Note_on_c, 1, 73, 127
1, 220796, Note_off_c, 1, 66, 0
1, 220800, Note_off_c, 1, 73, 0
1, 220801, Note_on_c, 1, 71, 127
1, 221262, Note_off_c, 1, 71, 0
1, 221266, Note_off_c, 1, 47, 0
1, 221266, Note_off_c, 1, 54, 0
1, 221267, Note_on_c, 1, 76, 127
1, 221267, Note_on_c, 1, 67, 127
1, 221499, Note_off_c, 1, 76, 0
1, 221607, Note_off_c, 1, 67, 0
1, 221617, Note_on_c, 1, 66, 127
1, 221732, Note_off_c, 1, 66, 0
1, 221733, Note_on_c, 1, 76, 127
1, 221733, Note_on_c, 1, 64, 127
1, 221965, Note_off_c, 1, 76, 0
1, 221965, Note_off_c, 1, 64, 0
1, 221966, Note_on_c, 1, 66, 127
1, 221966, Note_on_c, 1, 76, 127
1, 222081, Note_off_c, 1, 66, 0
1, 222082, Note_on_c, 1, 67, 127
1, 222197, Note_off_c, 1, 67, 0
1, 222426, Note_off_c, 1, 76, 0
1, 222431, Note_on_c, 1, 75, 127
1, 222528, Note_off_c, 1, 75, 0
1, 222547, Note_on_c, 1, 73, 127
1, 222644, Note_off_c, 1, 73, 0
1, 222664, Note_on_c, 1, 71, 127
1, 222664, Note_on_c, 1, 74, 127
1, 222896, Note_off_c, 1, 71, 0
1, 222897, Note_on_c, 1, 69, 127
1, 223012, Note_off_c, 1, 69, 0
1, 223013, Note_on_c, 1, 68, 127
1, 223128, Note_off_c, 1, 68, 0
1, 223361, Note_off_c, 1, 74, 0
1, 223362, Note_on_c, 1, 73, 127
1, 223459, Note_off_c, 1, 73, 0
1, 223594, Note_on_c, 1, 72, 127
1, 223827, Note_on_c, 1, 67, 127
1, 223942, Note_off_c, 1, 67, 0
1, 223943, Note_on_c, 1, 66, 127
1, 224058, Note_off_c, 1, 66, 0
1, 224291, Note_off_c, 1, 72, 0
1, 224873, Note_on_c, 1, 64, 127
1, 224988, Note_off_c, 1, 64, 0
1, 225222, Note_on_c, 1, 69, 127
1, 225222, Note_on_c, 1, 61, 127
1, 225337, Note_off_c, 1, 69, 0
1, 225338, Note_on_c, 1, 67, 127
1, 225452, Note_off_c, 1, 61, 0
1, 225453, Note_off_c, 1, 67, 0
1, 225454, Note_on_c, 1, 62, 127
1, 225454, Note_on_c, 1, 66, 127
1, 225684, Note_off_c, 1, 62, 0
1, 225686, Note_on_c, 1, 58, 127
1, 225801, Note_off_c, 1, 66, 0
1, 225802, Note_on_c, 1, 64, 127
1, 225917, Note_off_c, 1, 58, 0
1, 225917, Note_off_c, 1, 64, 0
1, 225918, Note_on_c, 1, 62, 127
1, 225918, Note_on_c, 1, 47, 127
1, 225918, Note_on_c, 1, 59, 127
1, 226150, Note_off_c, 1, 62, 0
1, 226151, Note_on_c, 1, 64, 127
1, 226266, Note_off_c, 1, 64, 0
1, 226382, Note_off_c, 1, 47, 0
1, 226383, Note_on_c, 1, 54, 127
1, 226383, Note_on_c, 1, 61, 127
1, 226615, Note_off_c, 1, 59, 0
1, 226616, Note_on_c, 1, 57, 127
1, 226844, Note_off_c, 1, 54, 0
1, 226848, Note_off_c, 1, 61, 0
1, 226849, Note_on_c, 1, 51, 127
1, 226849, Note_on_c, 1, 66, 127
1, 227197, Note_off_c, 1, 51, 0
1, 227198, Note_on_c, 1, 49, 127
1, 227313, Note_off_c, 1, 57, 0
1, 227313, Note_off_c, 1, 66, 0
1, 227313, Note_off_c, 1, 49, 0
1, 227314, Note_on_c, 1, 47, 127
1, 227314, Note_on_c, 1, 66, 127
1, 227314, Note_on_c, 1, 71, 127
1, 227546, Note_off_c, 1, 47, 0
1, 227547, Note_on_c, 1, 49, 127
1, 227662, Note_off_c, 1, 49, 0
1, 227663, Note_on_c, 1, 51, 127
1, 227778, Note_off_c, 1, 66, 0
1, 227778, Note_off_c, 1, 71, 0
1, 227778, Note_off_c, 1, 51, 0
1, 227779, Note_on_c, 1, 52, 127
1, 227779, Note_on_c, 1, 67, 127
1, 227779, Note_on_c, 1, 59, 127
1, 228011, Note_off_c, 1, 52, 0
1, 228127, Note_off_c, 1, 67, 0
1, 228128, Note_on_c, 1, 66, 127
1, 228240, Note_off_c, 1, 59, 0
1, 228244, Note_off_c, 1, 66, 0
1, 228245, Note_on_c, 1, 64, 127
1, 228245, Note_on_c, 1, 61, 127
1, 228245, Note_on_c, 1, 52, 127
1, 228477, Note_off_c, 1, 64, 0
1, 228477, Note_off_c, 1, 61, 0
1, 228477, Note_off_c, 1, 52, 0
1, 228478, Note_on_c, 1, 66, 127
1, 228478, Note_on_c, 1, 62, 127
1, 228478, Note_on_c, 1, 52, 127
1, 228593, Note_off_c, 1, 66, 0
1, 228594, Note_on_c, 1, 67, 127
1, 228708, Note_off_c, 1, 62, 0
1, 228709, Note_off_c, 1, 52, 0
1, 228709, Note_off_c, 1, 67, 0
1, 228710, Note_on_c, 1, 69, 127
1, 228710, Note_on_c, 1, 49, 127
1, 228710, Note_on_c, 1, 64, 127
1, 228942, Note_off_c, 1, 69, 0
1, 229058, Note_off_c, 1, 49, 0
1, 229059, Note_on_c, 1, 47, 127
1, 229171, Note_off_c, 1, 64, 0
1, 229175, Note_off_c, 1, 47, 0
1, 229176, Note_on_c, 1, 69, 127
1, 229176, Note_on_c, 1, 45, 127
1, 229176, Note_on_c, 1, 61, 127
1, 229408, Note_off_c, 1, 69, 0
1, 229408, Note_off_c, 1, 45, 0
1, 229409, Note_on_c, 1, 47, 127
1, 229524, Note_off_c, 1, 47, 0
1, 229525, Note_on_c, 1, 49, 127
1, 229640, Note_off_c, 1, 49, 0
1, 229641, Note_on_c, 1, 54, 127
1, 229641, Note_on_c, 1, 66, 127
1, 229641, Note_on_c, 1, 50, 127
1, 229873, Note_off_c, 1, 61, 0
1, 229874, Note_on_c, 1, 62, 127
1, 229989, Note_off_c, 1, 62, 0
1, 230105, Note_off_c, 1, 54, 0
1, 230106, Note_on_c, 1, 59, 127
1, 230337, Note_off_c, 1, 66, 0
1, 230338, Note_off_c, 1, 50, 0
1, 230339, Note_on_c, 1, 52, 127
1, 230339, Note_on_c, 1, 64, 127
1, 230567, Note_off_c, 1, 59, 0
1, 230571, Note_off_c, 1, 52, 0
1, 230572, Note_on_c, 1, 58, 127
1, 230920, Note_off_c, 1, 58, 0
1, 230921, Note_on_c, 1, 56, 127
1, 231036, Note_off_c, 1, 56, 0
1, 231269, Note_off_c, 1, 64, 0
1, 231270, Note_on_c, 1, 62, 127
1, 231270, Note_on_c, 1, 56, 127
1, 231385, Note_off_c, 1, 62, 0
1, 231385, Note_off_c, 1, 56, 0
1, 231386, Note_on_c, 1, 61, 127
1, 231386, Note_on_c, 1, 58, 127
1, 231501, Note_off_c, 1, 61, 0
1, 231501, Note_off_c, 1, 58, 0
1, 231502, Note_on_c, 1, 59, 127
1, 231502, Note_on_c, 1, 62, 127
1, 231734, Note_off_c, 1, 59, 0
1, 231735, Note_on_c, 1, 57, 127
1, 231967, Note_off_c, 1, 57, 0
1, 231968, Note_on_c, 1, 55, 127
1, 232200, Note_off_c, 1, 62, 0
1, 232200, Note_off_c, 1, 55, 0
1, 232201, Note_on_c, 1, 54, 127
1, 232201, Note_on_c, 1, 64, 127
1, 232316, Note_off_c, 1, 54, 0
1, 232317, Note_on_c, 1, 52, 127
1, 232432, Note_off_c, 1, 64, 0
1, 232432, Note_off_c, 1, 52, 0
1, 232433, Note_on_c, 1, 66, 127
1, 232433, Note_on_c, 1, 50, 127
1, 232666, Note_on_c, 1, 61, 127
1, 232894, Note_off_c, 1, 66, 0
1, 232898, Note_off_c, 1, 61, 0
1, 232899, Note_on_c, 1, 71, 127
1, 233131, Note_off_c, 1, 50, 0
1, 233364, Note_off_c, 1, 71, 0
1, 233365, Note_on_c, 1, 70, 127
1, 233365, Note_on_c, 1, 61, 127
1, 233365, Note_on_c, 1, 54, 127
1, 233365, Note_on_c, 1, 42, 127
1, 233597, Note_off_c, 1, 70, 0
1, 233598, Note_on_c, 1, 71, 127
1, 233713, Note_off_c, 1, 71, 0
1, 233714, Note_on_c, 1, 73, 127
1, 233826, Note_off_c, 1, 61, 0
1, 233830, Note_off_c, 1, 54, 0
1, 233830, Note_off_c, 1, 42, 0
1, 233830, Note_off_c, 1, 73, 0
1, 233831, Note_on_c, 1, 74, 127
1, 233831, Note_on_c, 1, 59, 127
1, 233831, Note_on_c, 1, 54, 127
1, 233831, Note_on_c, 1, 47, 127
1, 234063, Note_off_c, 1, 74, 0
1, 234064, Note_on_c, 1, 76, 127
1, 234179, Note_off_c, 1, 76, 0
1, 234292, Note_off_c, 1, 59, 0
1, 234296, Note_off_c, 1, 54, 0
1, 234296, Note_off_c, 1, 47, 0
1, 234297, Note_on_c, 1, 61, 127
1, 234297, Note_on_c, 1, 46, 127
1, 234297, Note_on_c, 1, 73, 127
1, 234297, Note_on_c, 1, 54, 127
1, 234529, Note_off_c, 1, 61, 0
1, 234530, Note_on_c, 1, 62, 127
1, 234645, Note_off_c, 1, 46, 0
1, 234646, Note_on_c, 1, 44, 127
1, 234758, Note_off_c, 1, 73, 0
1, 234758, Note_off_c, 1, 54, 0
1, 234762, Note_off_c, 1, 62, 0
1, 234762, Note_off_c, 1, 44, 0
1, 234763, Note_on_c, 1, 42, 127
1, 234763, Note_on_c, 1, 61, 127
1, 234763, Note_on_c, 1, 64, 127
1, 234763, Note_on_c, 1, 70, 127
1, 234995, Note_off_c, 1, 42, 0
1, 234996, Note_on_c, 1, 44, 127
1, 235111, Note_off_c, 1, 44, 0
1, 235112, Note_on_c, 1, 46, 127
1, 235224, Note_off_c, 1, 61, 0
1, 235228, Note_off_c, 1, 64, 0
1, 235228, Note_off_c, 1, 70, 0
1, 235228, Note_off_c, 1, 46, 0
1, 235245, Note_on_c, 1, 47, 127
1, 235245, Note_on_c, 1, 59, 127
1, 235245, Note_on_c, 1, 66, 127
1, 235245, Note_on_c, 1, 62, 127
1, 235871, Note_off_c, 1, 47, 0
1, 235871, Note_off_c, 1, 59, 0
1, 235871, Note_off_c, 1, 66, 0
1, 235871, Note_off_c, 1, 62, 0
1, 236012, Note_on_c, 1, 64, 127
1, 236012, Note_on_c, 1, 67, 127
1, 236012, Note_on_c, 1, 59, 127
1, 236012, Note_on_c, 1, 52, 127
1, 236261, Note_off_c, 1, 64, 0
1, 236261, Note_off_c, 1, 67, 0
1, 236261, Note_off_c, 1, 59, 0
1, 236261, Note_off_c, 1, 52, 0
1, 236262, Note_on_c, 1, 49, 127
1, 236262, Note_on_c, 1, 57, 127
1, 236262, Note_on_c, 1, 67, 127
1, 236262, Note_on_c, 1, 64, 127
1, 236636, Note_off_c, 1, 49, 0
1, 236637, Note_on_c, 1, 47, 127
1, 236757, Note_off_c, 1, 57, 0
1, 236761, Note_off_c, 1, 47, 0
1, 236762, Note_on_c, 1, 45, 127
1, 236887, Note_off_c, 1, 67, 0
1, 236887, Note_off_c, 1, 64, 0
1, 237011, Note_off_c, 1, 45, 0
1, 237012, Note_on_c, 1, 47, 127
1, 237012, Note_on_c, 1, 57, 127
1, 237012, Note_on_c, 1, 64, 127
1, 237012, Note_on_c, 1, 67, 127
1, 237136, Note_off_c, 1, 47, 0
1, 237137, Note_on_c, 1, 49, 127
1, 237260, Note_off_c, 1, 57, 0
1, 237261, Note_off_c, 1, 64, 0
1, 237261, Note_off_c, 1, 67, 0
1, 237261, Note_off_c, 1, 49, 0
1, 237262, Note_on_c, 1, 50, 127
1, 237262, Note_on_c, 1, 62, 127
1, 237262, Note_on_c, 1, 66, 127
1, 237262, Note_on_c, 1, 57, 127
1, 237517, Note_off_c, 1, 50, 0
1, 237645, Note_off_c, 1, 62, 0
1, 237646, Note_on_c, 1, 64, 127
1, 237769, Note_off_c, 1, 66, 0
1, 237769, Note_off_c, 1, 57, 0
1, 237773, Note_off_c, 1, 64, 0
1, 237774, Note_on_c, 1, 66, 127
1, 237774, Note_on_c, 1, 50, 127
1, 237774, Note_on_c, 1, 54, 127
1, 237774, Note_on_c, 1, 71, 127
1, 238029, Note_off_c, 1, 66, 0
1, 238029, Note_off_c, 1, 50, 0
1, 238030, Note_on_c, 1, 68, 127
1, 238157, Note_off_c, 1, 68, 0
1, 238281, Note_off_c, 1, 54, 0
1, 238286, Note_on_c, 1, 65, 127
1, 238286, Note_on_c, 1, 56, 127
1, 238286, Note_on_c, 1, 44, 127
1, 238553, Note_off_c, 1, 71, 0
1, 238570, Note_on_c, 1, 74, 127
1, 238703, Note_off_c, 1, 74, 0
1, 238704, Note_on_c, 1, 73, 127
1, 238816, Note_off_c, 1, 65, 0
1, 238836, Note_off_c, 1, 73, 0
1, 238955, Note_off_c, 1, 56, 0
1, 238955, Note_off_c, 1, 44, 0
1, 238971, Note_on_c, 1, 70, 127
1, 239104, Note_off_c, 1, 70, 0
1, 239105, Note_on_c, 1, 71, 127
1, 239105, Note_on_c, 1, 64, 127
1, 239105, Note_on_c, 1, 55, 127
1, 239105, Note_on_c, 1, 59, 127
1, 239238, Note_off_c, 1, 71, 0
1, 239239, Note_on_c, 1, 73, 127
1, 239370, Note_off_c, 1, 64, 0
1, 239371, Note_off_c, 1, 55, 0
1, 239371, Note_off_c, 1, 59, 0
1, 239371, Note_off_c, 1, 73, 0
1, 239372, Note_on_c, 1, 58, 127
1, 239372, Note_on_c, 1, 74, 127
1, 239372, Note_on_c, 1, 54, 127
1, 239372, Note_on_c, 1, 66, 127
1, 239666, Note_off_c, 1, 58, 0
1, 239668, Note_on_c, 1, 59, 127
1, 239814, Note_off_c, 1, 74, 0
1, 239816, Note_on_c, 1, 76, 127
1, 239962, Note_off_c, 1, 76, 0
1, 239964, Note_on_c, 1, 64, 127
1, 240038, Note_on_c, 1, 73, 127
1, 240112, Note_off_c, 1, 73, 0
1, 240258, Note_off_c, 1, 59, 0
1, 240408, Note_on_c, 1, 71, 127
1, 240554, Note_off_c, 1, 54, 0
1, 240554, Note_off_c, 1, 66, 0
1, 240554, Note_off_c, 1, 71, 0
1, 240556, Note_on_c, 1, 47, 127
1, 240951, Note_off_c, 1, 64, 0
1, 240953, Note_on_c, 1, 63, 127
1, 241173, Note_off_c, 1, 63, 0
1, 241192, Note_on_c, 1, 61, 127
1, 241412, Note_off_c, 1, 61, 0
1, 242956, Note_off_c, 1, 47, 0
1, 244555, Note_on_c, 1, 44, 127
1, 244968, Note_on_c, 1, 71, 127
1, 245365, Note_on_c, 1, 74, 127
1, 245546, Note_off_c, 1, 44, 0
1, 245564, Note_on_c, 1, 56, 127
1, 245761, Note_off_c, 1, 56, 0
1, 245763, Note_on_c, 1, 54, 127
1, 245763, Note_on_c, 1, 64, 127
1, 245960, Note_off_c, 1, 54, 0
1, 245962, Note_on_c, 1, 52, 127
1, 246152, Note_off_c, 1, 74, 0
1, 246158, Note_off_c, 1, 71, 0
1, 246158, Note_off_c, 1, 52, 0
1, 246160, Note_on_c, 1, 57, 127
1, 246573, Note_on_c, 1, 69, 127
1, 246970, Note_on_c, 1, 73, 127
1, 247151, Note_off_c, 1, 57, 0
1, 247350, Note_off_c, 1, 64, 0
1, 247567, Note_on_c, 1, 50, 127
1, 247757, Note_off_c, 1, 73, 0
1, 247763, Note_off_c, 1, 69, 0
1, 247763, Note_off_c, 1, 50, 0
1, 247765, Note_on_c, 1, 49, 127
1, 248178, Note_on_c, 1, 76, 127
1, 248575, Note_on_c, 1, 79, 127
1, 248756, Note_off_c, 1, 49, 0
1, 248774, Note_on_c, 1, 61, 127
1, 248971, Note_off_c, 1, 61, 0
1, 248973, Note_on_c, 1, 59, 127
1, 248973, Note_on_c, 1, 69, 127
1, 249170, Note_off_c, 1, 59, 0
1, 249172, Note_on_c, 1, 57, 127
1, 249362, Note_off_c, 1, 79, 0
1, 249368, Note_off_c, 1, 76, 0
1, 249368, Note_off_c, 1, 57, 0
1, 249370, Note_on_c, 1, 62, 127
1, 249783, Note_on_c, 1, 74, 127
1, 250180, Note_on_c, 1, 78, 127
1, 250361, Note_off_c, 1, 62, 0
1, 250560, Note_off_c, 1, 69, 0
1, 250777, Note_on_c, 1, 55, 127
1, 250967, Note_off_c, 1, 78, 0
1, 250973, Note_off_c, 1, 74, 0
1, 250973, Note_off_c, 1, 55, 0
1, 250991, Note_on_c, 1, 54, 127
1, 250991, Note_on_c, 1, 72, 127
1, 251388, Note_on_c, 1, 74, 127
1, 251785, Note_on_c, 1, 81, 127
1, 251982, Note_off_c, 1, 54, 0
1, 252181, Note_off_c, 1, 72, 0
1, 252183, Note_on_c, 1, 52, 127
1, 252380, Note_off_c, 1, 52, 0
1, 252382, Note_on_c, 1, 50, 127
1, 252579, Note_off_c, 1, 50, 0
1, 252581, Note_on_c, 1, 55, 127
1, 252581, Note_on_c, 1, 71, 127
1, 252976, Note_off_c, 1, 74, 0
1, 253373, Note_off_c, 1, 81, 0
1, 253391, Note_on_c, 1, 79, 127
1, 253572, Note_off_c, 1, 55, 0
1, 253771, Note_off_c, 1, 71, 0
1, 253789, Note_on_c, 1, 57, 127
1, 253986, Note_off_c, 1, 57, 0
1, 253988, Note_on_c, 1, 59, 127
1, 254178, Note_off_c, 1, 79, 0
1, 254184, Note_off_c, 1, 59, 0
1, 254186, Note_on_c, 1, 51, 127
1, 254186, Note_on_c, 1, 69, 127
1, 254599, Note_on_c, 1, 71, 127
1, 254996, Note_on_c, 1, 78, 127
1, 255177, Note_off_c, 1, 51, 0
1, 255376, Note_off_c, 1, 69, 0
1, 255394, Note_on_c, 1, 49, 127
1, 255591, Note_off_c, 1, 49, 0
1, 255593, Note_on_c, 1, 47, 127
1, 255790, Note_off_c, 1, 47, 0
1, 255792, Note_on_c, 1, 52, 127
1, 255792, Note_on_c, 1, 67, 127
1, 256187, Note_off_c, 1, 71, 0
1, 256584, Note_off_c, 1, 78, 0
1, 256602, Note_on_c, 1, 76, 127
1, 256783, Note_off_c, 1, 52, 0
1, 256801, Note_on_c, 1, 50, 127
1, 256982, Note_off_c, 1, 67, 0
1, 256998, Note_off_c, 1, 50, 0
1, 257389, Note_off_c, 1, 76, 0
1, 257397, Note_on_c, 1, 46, 127
1, 257397, Note_on_c, 1, 66, 127
1, 257810, Note_on_c, 1, 73, 127
1, 258207, Note_on_c, 1, 76, 127
1, 258388, Note_off_c, 1, 46, 0
1, 258406, Note_on_c, 1, 58, 127
1, 258587, Note_off_c, 1, 66, 0
1, 258603, Note_off_c, 1, 58, 0
1, 258605, Note_on_c, 1, 56, 127
1, 258605, Note_on_c, 1, 70, 127
1, 258802, Note_off_c, 1, 56, 0
1, 258804, Note_on_c, 1, 54, 127
1, 258994, Note_off_c, 1, 76, 0
1, 258998, Note_off_c, 1, 70, 0
1, 259000, Note_off_c, 1, 73, 0
1, 259000, Note_off_c, 1, 54, 0
1, 259002, Note_on_c, 1, 59, 127
1, 259415, Note_on_c, 1, 71, 127
1, 259812, Note_on_c, 1, 74, 127
1, 259993, Note_off_c, 1, 59, 0
1, 260210, Note_on_c, 1, 61, 127
1, 260210, Note_on_c, 1, 67, 127
1, 260407, Note_off_c, 1, 61, 0
1, 260409, Note_on_c, 1, 62, 127
1, 260599, Note_off_c, 1, 74, 0
1, 260605, Note_off_c, 1, 71, 0
1, 260605, Note_off_c, 1, 67, 0
1, 260605, Note_off_c, 1, 62, 0
1, 260623, Note_on_c, 1, 48, 127
1, 260623, Note_on_c, 1, 69, 127
1, 261020, Note_on_c, 1, 74, 127
1, 261417, Note_on_c, 1, 78, 127
1, 261614, Note_off_c, 1, 48, 0
1, 261616, Note_on_c, 1, 52, 127
1, 261813, Note_off_c, 1, 69, 0
1, 261813, Note_off_c, 1, 52, 0
1, 261815, Note_on_c, 1, 50, 127
1, 262012, Note_off_c, 1, 50, 0
1, 262204, Note_off_c, 1, 78, 0
1, 262210, Note_off_c, 1, 74, 0
1, 262212, Note_on_c, 1, 47, 127
1, 262212, Note_on_c, 1, 71, 127
1, 262409, Note_off_c, 1, 47, 0
1, 262411, Note_on_c, 1, 59, 127
1, 262411, Note_on_c, 1, 74, 127
1, 262608, Note_off_c, 1, 59, 0
1, 262610, Note_on_c, 1, 61, 127
1, 262610, Note_on_c, 1, 79, 127
1, 262807, Note_off_c, 1, 61, 0
1, 262809, Note_on_c, 1, 62, 127
1, 262991, Note_off_c, 1, 74, 0
1, 262999, Note_off_c, 1, 71, 0
1, 263005, Note_off_c, 1, 62, 0
1, 263007, Note_on_c, 1, 69, 127
1, 263007, Note_on_c, 1, 76, 127
1, 263702, Note_on_c, 1, 57, 127
1, 263799, Note_off_c, 1, 79, 0
1, 263799, Note_off_c, 1, 69, 0
1, 263799, Note_off_c, 1, 57, 0
1, 263801, Note_on_c, 1, 78, 127
1, 264000, Note_on_c, 1, 52, 127
1, 264197, Note_off_c, 1, 76, 0
1, 264197, Note_off_c, 1, 52, 0
1, 264199, Note_on_c, 1, 54, 127
1, 264396, Note_off_c, 1, 54, 0
1, 264398, Note_on_c, 1, 55, 127
1, 264595, Note_off_c, 1, 55, 0
1, 265292, Note_on_c, 1, 50, 127
1, 265389, Note_off_c, 1, 78, 0
1, 265389, Note_off_c, 1, 50, 0
1, 265789, Note_on_c, 1, 56, 127
1, 265986, Note_off_c, 1, 56, 0
1, 266981, Note_on_c, 1, 57, 127
1, 267048, Note_on_c, 1, 69, 127
1, 267112, Note_on_c, 1, 73, 127
1, 267176, Note_on_c, 1, 76, 127
1, 267910, Note_off_c, 1, 69, 0
1, 267974, Note_off_c, 1, 73, 0
1, 268269, Note_on_c, 1, 81, 127
1, 268276, Note_off_c, 1, 76, 0
1, 268574, Note_off_c, 1, 81, 0
1, 268781, Note_off_c, 1, 57, 0
1, 268853, Note_on_c, 1, 81, 127
1, 268853, Note_on_c, 1, 78, 127
1, 269140, Note_off_c, 1, 81, 0
1, 269140, Note_off_c, 1, 78, 0
1, 269142, Note_on_c, 1, 76, 127
1, 269142, Note_on_c, 1, 73, 127
1, 269428, Note_off_c, 1, 76, 0
1, 269428, Note_off_c, 1, 73, 0
1, 269430, Note_on_c, 1, 78, 127
1, 269430, Note_on_c, 1, 74, 127
1, 269430, Note_on_c, 1, 69, 127
1, 269716, Note_off_c, 1, 78, 0
1, 269716, Note_off_c, 1, 74, 0
1, 269716, Note_off_c, 1, 69, 0
1, 269718, Note_on_c, 1, 73, 127
1, 269718, Note_on_c, 1, 69, 127
1, 269718, Note_on_c, 1, 64, 127
1, 270004, Note_off_c, 1, 73, 0
1, 270004, Note_off_c, 1, 69, 0
1, 270004, Note_off_c, 1, 64, 0
1, 270006, Note_on_c, 1, 62, 127
1, 270006, Note_on_c, 1, 69, 127
1, 270006, Note_on_c, 1, 66, 127
1, 270006, Note_on_c, 1, 74, 127
1, 270292, Note_off_c, 1, 62, 0
1, 270292, Note_off_c, 1, 69, 0
1, 270292, Note_off_c, 1, 66, 0
1, 270292, Note_off_c, 1, 74, 0
1, 270294, Note_on_c, 1, 57, 127
1, 270294, Note_on_c, 1, 73, 127
1, 270294, Note_on_c, 1, 69, 127
1, 270294, Note_on_c, 1, 64, 127
1, 270647, Note_off_c, 1, 57, 0
1, 270647, Note_off_c, 1, 73, 0
1, 270647, Note_off_c, 1, 69, 0
1, 270647, Note_off_c, 1, 64, 0
1, 270649, Note_on_c, 1, 59, 127
1, 270649, Note_on_c, 1, 68, 127
1, 270649, Note_on_c, 1, 71, 127
1, 270649, Note_on_c, 1, 62, 127
1, 271002, Note_off_c, 1, 59, 0
1, 271002, Note_off_c, 1, 68, 0
1, 271011, Note_on_c, 1, 54, 127
1, 271049, Note_off_c, 1, 71, 0
1, 271078, Note_off_c, 1, 62, 0
1, 271144, Note_on_c, 1, 69, 127
1, 271272, Note_on_c, 1, 72, 127
1, 272044, Note_off_c, 1, 69, 0
1, 272050, Note_on_c, 1, 74, 127
1, 272156, Note_off_c, 1, 72, 0
1, 272225, Note_off_c, 1, 74, 0
1, 272426, Note_off_c, 1, 54, 0
1, 272935, Note_on_c, 1, 57, 127
1, 273110, Note_off_c, 1, 57, 0
1, 273289, Note_on_c, 1, 67, 127
1, 273466, Note_on_c, 1, 55, 127
1, 273641, Note_off_c, 1, 67, 0
1, 273659, Note_on_c, 1, 49, 127
1, 273659, Note_on_c, 1, 76, 127
1, 273667, Note_off_c, 1, 55, 0
1, 273918, Note_off_c, 1, 49, 0
1, 273921, Note_on_c, 1, 50, 127
1, 274115, Note_off_c, 1, 76, 0
1, 274151, Note_on_c, 1, 38, 127
1, 274611, Note_on_c, 1, 66, 127
1, 274839, Note_off_c, 1, 66, 0
1, 274857, Note_on_c, 1, 64, 127
1, 275085, Note_off_c, 1, 64, 0
1, 276981, Note_off_c, 1, 38, 0
1, 277021, Note_off_c, 1, 50, 0
1, 278468, Note_on_c, 1, 74, 127
1, 278663, Note_off_c, 1, 74, 0
1, 278677, Note_on_c, 1, 74, 127
1, 278771, Note_off_c, 1, 74, 0
1, 278782, Note_on_c, 1, 74, 127
1, 278876, Note_off_c, 1, 74, 0
1, 278887, Note_on_c, 1, 74, 127
1, 279082, Note_off_c, 1, 74, 0
1, 279096, Note_on_c, 1, 74, 127
1, 279291, Note_off_c, 1, 74, 0
1, 279305, Note_on_c, 1, 74, 127
1, 279500, Note_off_c, 1, 74, 0
1, 279514, Note_on_c, 1, 74, 127
1, 279709, Note_off_c, 1, 74, 0
1, 279723, Note_on_c, 1, 78, 127
1, 279918, Note_off_c, 1, 78, 0
1, 279932, Note_on_c, 1, 81, 127
1, 280127, Note_off_c, 1, 81, 0
1, 280141, Note_on_c, 1, 74, 127
1, 280336, Note_off_c, 1, 74, 0
1, 280350, Note_on_c, 1, 78, 127
1, 280545, Note_off_c, 1, 78, 0
1, 280559, Note_on_c, 1, 81, 127
1, 280754, Note_off_c, 1, 81, 0
1, 280768, Note_on_c, 1, 74, 127
1, 280963, Note_off_c, 1, 74, 0
1, 280977, Note_on_c, 1, 78, 127
1, 281172, Note_off_c, 1, 78, 0
1, 281186, Note_on_c, 1, 83, 127
1, 281280, Note_off_c, 1, 83, 0
1, 281291, Note_on_c, 1, 81, 127
1, 281385, Note_off_c, 1, 81, 0
1, 281396, Note_on_c, 1, 79, 127
1, 281490, Note_off_c, 1, 79, 0
1, 281501, Note_on_c, 1, 78, 127
1, 281595, Note_off_c, 1, 78, 0
1, 281606, Note_on_c, 1, 79, 127
1, 281801, Note_off_c, 1, 79, 0
1, 281815, Note_on_c, 1, 83, 127
1, 282010, Note_off_c, 1, 83, 0
1, 282024, Note_on_c, 1, 76, 127
1, 282219, Note_off_c, 1, 76, 0
1, 282233, Note_on_c, 1, 79, 127
1, 282428, Note_off_c, 1, 79, 0
1, 282442, Note_on_c, 1, 83, 127
1, 282637, Note_off_c, 1, 83, 0
1, 282651, Note_on_c, 1, 76, 127
1, 282846, Note_off_c, 1, 76, 0
1, 282860, Note_on_c, 1, 79, 127
1, 283055, Note_off_c, 1, 79, 0
1, 283069, Note_on_c, 1, 81, 127
1, 283163, Note_off_c, 1, 81, 0
1, 283174, Note_on_c, 1, 79, 127
1, 283268, Note_off_c, 1, 79, 0
1, 283279, Note_on_c, 1, 78, 127
1, 283373, Note_off_c, 1, 78, 0
1, 283384, Note_on_c, 1, 76, 127
1, 283478, Note_off_c, 1, 76, 0
1, 283489, Note_on_c, 1, 78, 127
1, 283684, Note_off_c, 1, 78, 0
1, 283698, Note_on_c, 1, 81, 127
1, 283893, Note_off_c, 1, 81, 0
1, 283907, Note_on_c, 1, 74, 127
1, 284102, Note_off_c, 1, 74, 0
1, 284116, Note_on_c, 1, 76, 127
1, 284311, Note_off_c, 1, 76, 0
1, 284325, Note_on_c, 1, 79, 127
1, 284520, Note_off_c, 1, 79, 0
1, 284534, Note_on_c, 1, 73, 127
1, 284729, Note_off_c, 1, 73, 0
1, 284743, Note_on_c, 1, 74, 127
1, 284938, Note_off_c, 1, 74, 0
1, 284952, Note_on_c, 1, 78, 127
1, 285147, Note_off_c, 1, 78, 0
1, 285161, Note_on_c, 1, 71, 127
1, 285356, Note_off_c, 1, 71, 0
1, 285370, Note_on_c, 1, 73, 127
1, 285565, Note_off_c, 1, 73, 0
1, 285579, Note_on_c, 1, 76, 127
1, 285774, Note_off_c, 1, 76, 0
1, 285788, Note_on_c, 1, 69, 127
1, 285983, Note_off_c, 1, 69, 0
1, 285997, Note_on_c, 1, 69, 127
1, 286192, Note_off_c, 1, 69, 0
1, 286206, Note_on_c, 1, 69, 127
1, 286300, Note_off_c, 1, 69, 0
1, 286311, Note_on_c, 1, 69, 127
1, 286405, Note_off_c, 1, 69, 0
1, 286416, Note_on_c, 1, 71, 127
1, 286416, Note_on_c, 1, 69, 127
1, 286611, Note_off_c, 1, 71, 0
1, 286611, Note_off_c, 1, 69, 0
1, 286625, Note_on_c, 1, 69, 127
1, 286625, Note_on_c, 1, 73, 127
1, 286820, Note_off_c, 1, 69, 0
1, 286820, Note_off_c, 1, 73, 0
1, 286834, Note_on_c, 1, 76, 127
1, 286834, Note_on_c, 1, 69, 127
1, 287029, Note_off_c, 1, 76, 0
1, 287029, Note_off_c, 1, 69, 0
1, 287043, Note_on_c, 1, 69, 127
1, 287238, Note_off_c, 1, 69, 0
1, 287252, Note_on_c, 1, 73, 127
1, 287252, Note_on_c, 1, 81, 127
1, 287447, Note_off_c, 1, 73, 0
1, 287447, Note_off_c, 1, 81, 0
1, 287461, Note_on_c, 1, 76, 127
1, 287656, Note_off_c, 1, 76, 0
1, 287670, Note_on_c, 1, 69, 127
1, 287865, Note_off_c, 1, 69, 0
1, 287879, Note_on_c, 1, 73, 127
1, 287879, Note_on_c, 1, 81, 127
1, 288074, Note_off_c, 1, 73, 0
1, 288074, Note_off_c, 1, 81, 0
1, 288088, Note_on_c, 1, 76, 127
1, 288283, Note_off_c, 1, 76, 0
1, 288297, Note_on_c, 1, 69, 127
1, 288492, Note_off_c, 1, 69, 0
1, 288506, Note_on_c, 1, 82, 127
1, 288506, Note_on_c, 1, 73, 127
1, 288701, Note_off_c, 1, 82, 0
1, 288701, Note_off_c, 1, 73, 0
1, 288715, Note_on_c, 1, 78, 127
1, 288809, Note_off_c, 1, 78, 0
1, 288820, Note_on_c, 1, 76, 127
1, 288914, Note_off_c, 1, 76, 0
1, 288925, Note_on_c, 1, 74, 127
1, 289019, Note_off_c, 1, 74, 0
1, 289030, Note_on_c, 1, 73, 127
1, 289124, Note_off_c, 1, 73, 0
1, 289135, Note_on_c, 1, 74, 127
1, 289135, Note_on_c, 1, 83, 127
1, 289330, Note_off_c, 1, 74, 0
1, 289330, Note_off_c, 1, 83, 0
1, 289344, Note_on_c, 1, 78, 127
1, 289539, Note_off_c, 1, 78, 0
1, 289553, Note_on_c, 1, 71, 127
1, 289748, Note_off_c, 1, 71, 0
1, 289762, Note_on_c, 1, 83, 127
1, 289762, Note_on_c, 1, 74, 127
1, 289957, Note_off_c, 1, 83, 0
1, 289957, Note_off_c, 1, 74, 0
1, 289971, Note_on_c, 1, 78, 127
1, 290166, Note_off_c, 1, 78, 0
1, 290180, Note_on_c, 1, 71, 127
1, 290375, Note_off_c, 1, 71, 0
1, 290389, Note_on_c, 1, 74, 127
1, 290389, Note_on_c, 1, 80, 127
1, 290584, Note_off_c, 1, 74, 0
1, 290584, Note_off_c, 1, 80, 0
1, 290598, Note_on_c, 1, 76, 127
1, 290692, Note_off_c, 1, 76, 0
1, 290703, Note_on_c, 1, 74, 127
1, 290797, Note_off_c, 1, 74, 0
1, 290808, Note_on_c, 1, 73, 127
1, 290902, Note_off_c, 1, 73, 0
1, 290913, Note_on_c, 1, 71, 127
1, 291007, Note_off_c, 1, 71, 0
1, 291018, Note_on_c, 1, 81, 127
1, 291018, Note_on_c, 1, 73, 127
1, 291213, Note_off_c, 1, 81, 0
1, 291213, Note_off_c, 1, 73, 0
1, 291227, Note_on_c, 1, 76, 127
1, 291422, Note_off_c, 1, 76, 0
1, 291436, Note_on_c, 1, 69, 127
1, 291436, Note_on_c, 1, 78, 127
1, 291631, Note_off_c, 1, 69, 0
1, 291631, Note_off_c, 1, 78, 0
1, 291645, Note_on_c, 1, 74, 127
1, 291645, Note_on_c, 1, 71, 127
1, 291840, Note_off_c, 1, 74, 0
1, 291840, Note_off_c, 1, 71, 0
1, 291854, Note_on_c, 1, 74, 127
1, 292049, Note_off_c, 1, 74, 0
1, 292063, Note_on_c, 1, 76, 127
1, 292063, Note_on_c, 1, 68, 127
1, 292258, Note_off_c, 1, 76, 0
1, 292258, Note_off_c, 1, 68, 0
1, 292272, Note_on_c, 1, 69, 127
1, 292272, Note_on_c, 1, 73, 127
1, 292467, Note_off_c, 1, 69, 0
1, 292467, Note_off_c, 1, 73, 0
1, 292481, Note_on_c, 1, 73, 127
1, 292676, Note_off_c, 1, 73, 0
1, 292690, Note_on_c, 1, 74, 127
1, 292690, Note_on_c, 1, 66, 127
1, 292885, Note_off_c, 1, 74, 0
1, 292885, Note_off_c, 1, 66, 0
1, 292899, Note_on_c, 1, 67, 127
1, 292899, Note_on_c, 1, 71, 127
1, 293094, Note_off_c, 1, 67, 0
1, 293094, Note_off_c, 1, 71, 0
1, 293108, Note_on_c, 1, 71, 127
1, 293303, Note_off_c, 1, 71, 0
1, 293317, Note_on_c, 1, 73, 127
1, 293317, Note_on_c, 1, 64, 127
1, 293512, Note_off_c, 1, 73, 0
1, 293512, Note_off_c, 1, 64, 0
1, 293526, Note_on_c, 1, 66, 127
1, 293526, Note_on_c, 1, 69, 127
1, 293721, Note_off_c, 1, 66, 0
1, 293721, Note_off_c, 1, 69, 0
1, 293735, Note_on_c, 1, 69, 127
1, 293930, Note_off_c, 1, 69, 0
1, 293944, Note_on_c, 1, 71, 127
1, 293944, Note_on_c, 1, 62, 127
1, 294139, Note_off_c, 1, 71, 0
1, 294139, Note_off_c, 1, 62, 0
1, 294153, Note_on_c, 1, 64, 127
1, 294153, Note_on_c, 1, 67, 127
1, 294348, Note_off_c, 1, 64, 0
1, 294348, Note_off_c, 1, 67, 0
1, 294362, Note_on_c, 1, 67, 127
1, 294557, Note_off_c, 1, 67, 0
1, 294571, Note_on_c, 1, 69, 127
1, 294571, Note_on_c, 1, 61, 127
1, 294766, Note_off_c, 1, 69, 0
1, 294766, Note_off_c, 1, 61, 0
1, 294780, Note_on_c, 1, 62, 127
1, 294780, Note_on_c, 1, 66, 127
1, 294975, Note_off_c, 1, 62, 0
1, 295188, Note_off_c, 1, 66, 0
1, 295199, Note_on_c, 1, 64, 127
1, 295199, Note_on_c, 1, 67, 127
1, 295199, Note_on_c, 1, 62, 127
1, 295394, Note_off_c, 1, 64, 0
1, 295394, Note_off_c, 1, 67, 0
1, 295394, Note_off_c, 1, 62, 0
1, 295408, Note_on_c, 1, 69, 127
1, 295408, Note_on_c, 1, 66, 127
1, 295408, Note_on_c, 1, 62, 127
1, 295603, Note_off_c, 1, 69, 0
1, 295603, Note_off_c, 1, 66, 0
1, 295603, Note_off_c, 1, 62, 0
1, 295617, Note_on_c, 1, 69, 127
1, 295617, Note_on_c, 1, 62, 127
1, 295812, Note_off_c, 1, 69, 0
1, 295812, Note_off_c, 1, 62, 0
1, 295826, Note_on_c, 1, 62, 127
1, 296021, Note_off_c, 1, 62, 0
1, 296035, Note_on_c, 1, 81, 127
1, 296035, Note_on_c, 1, 66, 127
1, 296035, Note_on_c, 1, 74, 127
1, 296230, Note_off_c, 1, 81, 0
1, 296230, Note_off_c, 1, 66, 0
1, 296244, Note_on_c, 1, 69, 127
1, 296244, Note_on_c, 1, 78, 127
1, 296439, Note_off_c, 1, 74, 0
1, 296439, Note_off_c, 1, 69, 0
1, 296453, Note_on_c, 1, 62, 127
1, 296648, Note_off_c, 1, 62, 0
1, 296651, Note_off_c, 1, 78, 0
1, 296662, Note_on_c, 1, 81, 127
1, 296662, Note_on_c, 1, 66, 127
1, 296662, Note_on_c, 1, 74, 127
1, 296857, Note_off_c, 1, 81, 0
1, 296857, Note_off_c, 1, 66, 0
1, 296871, Note_on_c, 1, 69, 127
1, 296871, Note_on_c, 1, 78, 127
1, 297066, Note_off_c, 1, 74, 0
1, 297066, Note_off_c, 1, 69, 0
1, 297080, Note_on_c, 1, 62, 127
1, 297275, Note_off_c, 1, 62, 0
1, 297278, Note_off_c, 1, 78, 0
1, 297289, Note_on_c, 1, 81, 127
1, 297289, Note_on_c, 1, 66, 127
1, 297289, Note_on_c, 1, 75, 127
1, 297484, Note_off_c, 1, 81, 0
1, 297484, Note_off_c, 1, 66, 0
1, 297498, Note_on_c, 1, 71, 127
1, 297498, Note_on_c, 1, 78, 127
1, 297592, Note_off_c, 1, 71, 0
1, 297603, Note_on_c, 1, 69, 127
1, 297694, Note_off_c, 1, 75, 0
1, 297697, Note_off_c, 1, 69, 0
1, 297708, Note_on_c, 1, 67, 127
1, 297802, Note_off_c, 1, 67, 0
1, 297907, Note_off_c, 1, 78, 0
1, 297918, Note_on_c, 1, 83, 127
1, 297918, Note_on_c, 1, 67, 127
1, 297918, Note_on_c, 1, 76, 127
1, 298113, Note_off_c, 1, 83, 0
1, 298113, Note_off_c, 1, 67, 0
1, 298127, Note_on_c, 1, 71, 127
1, 298127, Note_on_c, 1, 79, 127
1, 298322, Note_off_c, 1, 76, 0
1, 298322, Note_off_c, 1, 71, 0
1, 298336, Note_on_c, 1, 64, 127
1, 298531, Note_off_c, 1, 64, 0
1, 298534, Note_off_c, 1, 79, 0
1, 298545, Note_on_c, 1, 83, 127
1, 298545, Note_on_c, 1, 67, 127
1, 298545, Note_on_c, 1, 76, 127
1, 298740, Note_off_c, 1, 83, 0
1, 298740, Note_off_c, 1, 67, 0
1, 298754, Note_on_c, 1, 71, 127
1, 298754, Note_on_c, 1, 79, 127
1, 298949, Note_off_c, 1, 76, 0
1, 298949, Note_off_c, 1, 71, 0
1, 298963, Note_on_c, 1, 64, 127
1, 299158, Note_off_c, 1, 64, 0
1, 299161, Note_off_c, 1, 79, 0
1, 299172, Note_on_c, 1, 67, 127
1, 299172, Note_on_c, 1, 76, 127
1, 299172, Note_on_c, 1, 73, 127
1, 299367, Note_off_c, 1, 67, 0
1, 299381, Note_on_c, 1, 69, 127
1, 299467, Note_off_c, 1, 76, 0
1, 299467, Note_off_c, 1, 73, 0
1, 299475, Note_off_c, 1, 69, 0
1, 299486, Note_on_c, 1, 67, 127
1, 299580, Note_off_c, 1, 67, 0
1, 299591, Note_on_c, 1, 66, 127
1, 299685, Note_off_c, 1, 66, 0
1, 299696, Note_on_c, 1, 64, 127
1, 299790, Note_off_c, 1, 64, 0
1, 299801, Note_on_c, 1, 81, 127
1, 299801, Note_on_c, 1, 66, 127
1, 299801, Note_on_c, 1, 74, 127
1, 299996, Note_off_c, 1, 81, 0
1, 299996, Note_off_c, 1, 66, 0
1, 300010, Note_on_c, 1, 69, 127
1, 300010, Note_on_c, 1, 78, 127
1, 300205, Note_off_c, 1, 74, 0
1, 300205, Note_off_c, 1, 69, 0
1, 300219, Note_on_c, 1, 71, 127
1, 300219, Note_on_c, 1, 62, 127
1, 300414, Note_off_c, 1, 78, 0
1, 300414, Note_off_c, 1, 71, 0
1, 300414, Note_off_c, 1, 62, 0
1, 300428, Note_on_c, 1, 64, 127
1, 300428, Note_on_c, 1, 67, 127
1, 300428, Note_on_c, 1, 76, 127
1, 300623, Note_off_c, 1, 64, 0
1, 300625, Note_off_c, 1, 67, 0
1, 300836, Note_off_c, 1, 76, 0
1, 300847, Note_on_c, 1, 69, 127
1, 300847, Note_on_c, 1, 61, 127
1, 301042, Note_off_c, 1, 69, 0
1, 301042, Note_off_c, 1, 61, 0
1, 301056, Note_on_c, 1, 62, 127
1, 301056, Note_on_c, 1, 66, 127
1, 301056, Note_on_c, 1, 69, 127
1, 301251, Note_off_c, 1, 62, 0
1, 301253, Note_off_c, 1, 66, 0
1, 301463, Note_off_c, 1, 69, 0
1, 301474, Note_on_c, 1, 68, 127
1, 301474, Note_on_c, 1, 64, 127
1, 301474, Note_on_c, 1, 71, 127
1, 301669, Note_off_c, 1, 68, 0
1, 301669, Note_off_c, 1, 64, 0
1, 301683, Note_on_c, 1, 61, 127
1, 301878, Note_off_c, 1, 61, 0
1, 302090, Note_off_c, 1, 71, 0
1, 302101, Note_on_c, 1, 66, 127
1, 302101, Note_on_c, 1, 57, 127
1, 302101, Note_on_c, 1, 69, 127
1, 302296, Note_off_c, 1, 66, 0
1, 302296, Note_off_c, 1, 57, 0
1, 302310, Note_on_c, 1, 59, 127
1, 302310, Note_on_c, 1, 62, 127
1, 302519, Note_on_c, 1, 68, 127
1, 302718, Note_off_c, 1, 69, 0
1, 302718, Note_off_c, 1, 59, 0
1, 302729, Note_on_c, 1, 52, 127
1, 302824, Note_off_c, 1, 62, 0
1, 302924, Note_off_c, 1, 52, 0
1, 302927, Note_off_c, 1, 68, 0
1, 302938, Note_on_c, 1, 69, 127
1, 302938, Note_on_c, 1, 61, 127
1, 302938, Note_on_c, 1, 57, 127
1, 303133, Note_off_c, 1, 69, 0
1, 303133, Note_off_c, 1, 61, 0
1, 303147, Note_on_c, 1, 62, 127
1, 303147, Note_on_c, 1, 71, 127
1, 303342, Note_off_c, 1, 62, 0
1, 303342, Note_off_c, 1, 71, 0
1, 303345, Note_off_c, 1, 57, 0
1, 303356, Note_on_c, 1, 73, 127
1, 303356, Note_on_c, 1, 64, 127
1, 303356, Note_on_c, 1, 57, 127
1, 303551, Note_off_c, 1, 73, 0
1, 303551, Note_off_c, 1, 64, 0
1, 303551, Note_off_c, 1, 57, 0
1, 303565, Note_on_c, 1, 66, 127
1, 303565, Note_on_c, 1, 74, 127
1, 303565, Note_on_c, 1, 54, 127
1, 303760, Note_off_c, 1, 66, 0
1, 303774, Note_on_c, 1, 69, 127
1, 303969, Note_off_c, 1, 74, 0
1, 303969, Note_off_c, 1, 69, 0
1, 303972, Note_off_c, 1, 54, 0
1, 303983, Note_on_c, 1, 73, 127
1, 303983, Note_on_c, 1, 64, 127
1, 303983, Note_on_c, 1, 57, 127
1, 304178, Note_off_c, 1, 73, 0
1, 304178, Note_off_c, 1, 64, 0
1, 304178, Note_off_c, 1, 57, 0
1, 304192, Note_on_c, 1, 66, 127
1, 304192, Note_on_c, 1, 74, 127
1, 304192, Note_on_c, 1, 50, 127
1, 304387, Note_off_c, 1, 66, 0
1, 304401, Note_on_c, 1, 69, 127
1, 304596, Note_off_c, 1, 74, 0
1, 304596, Note_off_c, 1, 69, 0
1, 304599, Note_off_c, 1, 50, 0
1, 304610, Note_on_c, 1, 73, 127
1, 304610, Note_on_c, 1, 64, 127
1, 304610, Note_on_c, 1, 57, 127
1, 304805, Note_off_c, 1, 73, 0
1, 304805, Note_off_c, 1, 64, 0
1, 304805, Note_off_c, 1, 57, 0
1, 304819, Note_on_c, 1, 66, 127
1, 304819, Note_on_c, 1, 74, 127
1, 304819, Note_on_c, 1, 54, 127
1, 305014, Note_off_c, 1, 66, 0
1, 305028, Note_on_c, 1, 69, 127
1, 305223, Note_off_c, 1, 74, 0
1, 305223, Note_off_c, 1, 69, 0
1, 305226, Note_off_c, 1, 54, 0
1, 305237, Note_on_c, 1, 64, 127
1, 305237, Note_on_c, 1, 73, 127
1, 305237, Note_on_c, 1, 57, 127
1, 305432, Note_off_c, 1, 64, 0
1, 305432, Note_off_c, 1, 73, 0
1, 305432, Note_off_c, 1, 57, 0
1, 305446, Note_on_c, 1, 66, 127
1, 305446, Note_on_c, 1, 50, 127
1, 305446, Note_on_c, 1, 74, 127
1, 305641, Note_off_c, 1, 66, 0
1, 305641, Note_off_c, 1, 50, 0
1, 305655, Note_on_c, 1, 67, 127
1, 305655, Note_on_c, 1, 52, 127
1, 305850, Note_off_c, 1, 74, 0
1, 305850, Note_off_c, 1, 67, 0
1, 305850, Note_off_c, 1, 52, 0
1, 305864, Note_on_c, 1, 69, 127
1, 305864, Note_on_c, 1, 73, 127
1, 305864, Note_on_c, 1, 54, 127
1, 306059, Note_off_c, 1, 69, 0
1, 306059, Note_off_c, 1, 73, 0
1, 306059, Note_off_c, 1, 54, 0
1, 306073, Note_on_c, 1, 55, 127
1, 306073, Note_on_c, 1, 71, 127
1, 306073, Note_on_c, 1, 67, 127
1, 306268, Note_off_c, 1, 55, 0
1, 306282, Note_on_c, 1, 59, 127
1, 306477, Note_off_c, 1, 59, 0
1, 306480, Note_off_c, 1, 71, 0
1, 306480, Note_off_c, 1, 67, 0
1, 306491, Note_on_c, 1, 74, 127
1, 306491, Note_on_c, 1, 66, 127
1, 306491, Note_on_c, 1, 50, 127
1, 306686, Note_off_c, 1, 74, 0
1, 306686, Note_off_c, 1, 66, 0
1, 306686, Note_off_c, 1, 50, 0
1, 306700, Note_on_c, 1, 55, 127
1, 306700, Note_on_c, 1, 67, 127
1, 306700, Note_on_c, 1, 71, 127
1, 306895, Note_off_c, 1, 55, 0
1, 306909, Note_on_c, 1, 59, 127
1, 307104, Note_off_c, 1, 59, 0
1, 307107, Note_off_c, 1, 67, 0
1, 307107, Note_off_c, 1, 71, 0
1, 307118, Note_on_c, 1, 68, 127
1, 307118, Note_on_c, 1, 76, 127
1, 307118, Note_on_c, 1, 52, 127
1, 307313, Note_off_c, 1, 68, 0
1, 307313, Note_off_c, 1, 76, 0
1, 307313, Note_off_c, 1, 52, 0
1, 307327, Note_on_c, 1, 57, 127
1, 307327, Note_on_c, 1, 69, 127
1, 307327, Note_on_c, 1, 73, 127
1, 307522, Note_off_c, 1, 57, 0
1, 307536, Note_on_c, 1, 61, 127
1, 307731, Note_off_c, 1, 61, 0
1, 307734, Note_off_c, 1, 69, 0
1, 307734, Note_off_c, 1, 73, 0
1, 307745, Note_on_c, 1, 76, 127
1, 307745, Note_on_c, 1, 68, 127
1, 307745, Note_on_c, 1, 52, 127
1, 307940, Note_off_c, 1, 76, 0
1, 307940, Note_off_c, 1, 68, 0
1, 307940, Note_off_c, 1, 52, 0
1, 307954, Note_on_c, 1, 73, 127
1, 307954, Note_on_c, 1, 57, 127
1, 307954, Note_on_c, 1, 69, 127
1, 308149, Note_off_c, 1, 73, 0
1, 308149, Note_off_c, 1, 57, 0
1, 308163, Note_on_c, 1, 74, 127
1, 308163, Note_on_c, 1, 59, 127
1, 308358, Note_off_c, 1, 69, 0
1, 308358, Note_off_c, 1, 74, 0
1, 308358, Note_off_c, 1, 59, 0
1, 308372, Note_on_c, 1, 76, 127
1, 308372, Note_on_c, 1, 69, 127
1, 308372, Note_on_c, 1, 61, 127
1, 308567, Note_off_c, 1, 76, 0
1, 308567, Note_off_c, 1, 69, 0
1, 308567, Note_off_c, 1, 61, 0
1, 308581, Note_on_c, 1, 66, 127
1, 308581, Note_on_c, 1, 74, 127
1, 308581, Note_on_c, 1, 62, 127
1, 308776, Note_off_c, 1, 66, 0
1, 308776, Note_off_c, 1, 74, 0
1, 308790, Note_on_c, 1, 81, 127
1, 308985, Note_off_c, 1, 81, 0
1, 308988, Note_off_c, 1, 62, 0
1, 308999, Note_on_c, 1, 73, 127
1, 308999, Note_on_c, 1, 64, 127
1, 308999, Note_on_c, 1, 69, 127
1, 308999, Note_on_c, 1, 57, 127
1, 309194, Note_off_c, 1, 73, 0
1, 309194, Note_off_c, 1, 64, 0
1, 309194, Note_off_c, 1, 69, 0
1, 309194, Note_off_c, 1, 57, 0
1, 309208, Note_on_c, 1, 74, 127
1, 309208, Note_on_c, 1, 66, 127
1, 309208, Note_on_c, 1, 59, 127
1, 309403, Note_off_c, 1, 74, 0
1, 309417, Note_on_c, 1, 78, 127
1, 309612, Note_off_c, 1, 66, 0
1, 309612, Note_off_c, 1, 78, 0
1, 309615, Note_off_c, 1, 59, 0
1, 309626, Note_on_c, 1, 69, 127
1, 309626, Note_on_c, 1, 73, 127
1, 309626, Note_on_c, 1, 57, 127
1, 309821, Note_off_c, 1, 69, 0
1, 309821, Note_off_c, 1, 73, 0
1, 309821, Note_off_c, 1, 57, 0
1, 309835, Note_on_c, 1, 74, 127
1, 309835, Note_on_c, 1, 66, 127
1, 309835, Note_on_c, 1, 62, 127
1, 310030, Note_off_c, 1, 74, 0
1, 310030, Note_off_c, 1, 66, 0
1, 310044, Note_on_c, 1, 81, 127
1, 310239, Note_off_c, 1, 81, 0
1, 310242, Note_off_c, 1, 62, 0
1, 310253, Note_on_c, 1, 69, 127
1, 310253, Note_on_c, 1, 73, 127
1, 310253, Note_on_c, 1, 64, 127
1, 310253, Note_on_c, 1, 57, 127
1, 310448, Note_off_c, 1, 69, 0
1, 310448, Note_off_c, 1, 73, 0
1, 310448, Note_off_c, 1, 64, 0
1, 310448, Note_off_c, 1, 57, 0
1, 310462, Note_on_c, 1, 74, 127
1, 310462, Note_on_c, 1, 66, 127
1, 310462, Note_on_c, 1, 59, 127
1, 310657, Note_off_c, 1, 74, 0
1, 310671, Note_on_c, 1, 78, 127
1, 310866, Note_off_c, 1, 66, 0
1, 310866, Note_off_c, 1, 78, 0
1, 310869, Note_off_c, 1, 59, 0
1, 310880, Note_on_c, 1, 73, 127
1, 310880, Note_on_c, 1, 69, 127
1, 310880, Note_on_c, 1, 57, 127
1, 311075, Note_off_c, 1, 73, 0
1, 311075, Note_off_c, 1, 69, 0
1, 311075, Note_off_c, 1, 57, 0
1, 311089, Note_on_c, 1, 50, 127
1, 311089, Note_on_c, 1, 62, 127
1, 311089, Note_on_c, 1, 66, 127
1, 311089, Note_on_c, 1, 74, 127
1, 311284, Note_off_c, 1, 50, 0
1, 311494, Note_off_c, 1, 62, 0
1, 311508, Note_on_c, 1, 57, 127
1, 311703, Note_off_c, 1, 57, 0
1, 311706, Note_off_c, 1, 66, 0
1, 311706, Note_off_c, 1, 74, 0
1, 311717, Note_on_c, 1, 50, 127
1, 311717, Note_on_c, 1, 54, 127
1, 311912, Note_off_c, 1, 50, 0
1, 312121, Note_off_c, 1, 54, 0
1, 312135, Note_on_c, 1, 50, 127
1, 312135, Note_on_c, 1, 62, 127
1, 312330, Note_off_c, 1, 50, 0
1, 312330, Note_off_c, 1, 62, 0
1, 312344, Note_on_c, 1, 69, 127
1, 312344, Note_on_c, 1, 54, 127
1, 312344, Note_on_c, 1, 62, 127
1, 312539, Note_off_c, 1, 69, 0
1, 312539, Note_off_c, 1, 54, 0
1, 312553, Note_on_c, 1, 57, 127
1, 312553, Note_on_c, 1, 66, 127
1, 312748, Note_off_c, 1, 62, 0
1, 312748, Note_off_c, 1, 57, 0
1, 312762, Note_on_c, 1, 50, 127
1, 312957, Note_off_c, 1, 50, 0
1, 312960, Note_off_c, 1, 66, 0
1, 312971, Note_on_c, 1, 69, 127
1, 312971, Note_on_c, 1, 54, 127
1, 312971, Note_on_c, 1, 62, 127
1, 313166, Note_off_c, 1, 69, 0
1, 313166, Note_off_c, 1, 54, 0
1, 313180, Note_on_c, 1, 57, 127
1, 313180, Note_on_c, 1, 66, 127
1, 313375, Note_off_c, 1, 62, 0
1, 313375, Note_off_c, 1, 57, 0
1, 313389, Note_on_c, 1, 50, 127
1, 313584, Note_off_c, 1, 50, 0
1, 313587, Note_off_c, 1, 66, 0
1, 313598, Note_on_c, 1, 69, 127
1, 313598, Note_on_c, 1, 54, 127
1, 313598, Note_on_c, 1, 63, 127
1, 313793, Note_off_c, 1, 69, 0
1, 313793, Note_off_c, 1, 54, 0
1, 313807, Note_on_c, 1, 59, 127
1, 313807, Note_on_c, 1, 66, 127
1, 313901, Note_off_c, 1, 59, 0
1, 313912, Note_on_c, 1, 57, 127
1, 314003, Note_off_c, 1, 63, 0
1, 314006, Note_off_c, 1, 57, 0
1, 314017, Note_on_c, 1, 55, 127
1, 314111, Note_off_c, 1, 55, 0
1, 314216, Note_off_c, 1, 66, 0
1, 314227, Note_on_c, 1, 71, 127
1, 314227, Note_on_c, 1, 55, 127
1, 314227, Note_on_c, 1, 64, 127
1, 314422, Note_off_c, 1, 71, 0
1, 314422, Note_off_c, 1, 55, 0
1, 314436, Note_on_c, 1, 59, 127
1, 314436, Note_on_c, 1, 67, 127
1, 314631, Note_off_c, 1, 64, 0
1, 314631, Note_off_c, 1, 59, 0
1, 314645, Note_on_c, 1, 52, 127
1, 314840, Note_off_c, 1, 52, 0
1, 314843, Note_off_c, 1, 67, 0
1, 314854, Note_on_c, 1, 71, 127
1, 314854, Note_on_c, 1, 55, 127
1, 314854, Note_on_c, 1, 64, 127
1, 315049, Note_off_c, 1, 71, 0
1, 315049, Note_off_c, 1, 55, 0
1, 315063, Note_on_c, 1, 59, 127
1, 315063, Note_on_c, 1, 67, 127
1, 315258, Note_off_c, 1, 64, 0
1, 315258, Note_off_c, 1, 59, 0
1, 315272, Note_on_c, 1, 52, 127
1, 315467, Note_off_c, 1, 52, 0
1, 315470, Note_off_c, 1, 67, 0
1, 315481, Note_on_c, 1, 55, 127
1, 315481, Note_on_c, 1, 61, 127
1, 315481, Note_on_c, 1, 64, 127
1, 315676, Note_off_c, 1, 55, 0
1, 315690, Note_on_c, 1, 57, 127
1, 315776, Note_off_c, 1, 61, 0
1, 315776, Note_off_c, 1, 64, 0
1, 315784, Note_off_c, 1, 57, 0
1, 315795, Note_on_c, 1, 55, 127
1, 315889, Note_off_c, 1, 55, 0
1, 315900, Note_on_c, 1, 54, 127
1, 315994, Note_off_c, 1, 54, 0
1, 316005, Note_on_c, 1, 52, 127
1, 316099, Note_off_c, 1, 52, 0
1, 316110, Note_on_c, 1, 69, 127
1, 316110, Note_on_c, 1, 54, 127
1, 316110, Note_on_c, 1, 62, 127
1, 316305, Note_off_c, 1, 69, 0
1, 316305, Note_off_c, 1, 54, 0
1, 316319, Note_on_c, 1, 57, 127
1, 316319, Note_on_c, 1, 66, 127
1, 316514, Note_off_c, 1, 62, 0
1, 316514, Note_off_c, 1, 57, 0
1, 316528, Note_on_c, 1, 50, 127
1, 316723, Note_off_c, 1, 50, 0
1, 316726, Note_off_c, 1, 66, 0
1, 316737, Note_on_c, 1, 67, 127
1, 316737, Note_on_c, 1, 52, 127
1, 316737, Note_on_c, 1, 61, 127
1, 316932, Note_off_c, 1, 67, 0
1, 316932, Note_off_c, 1, 52, 0
1, 316946, Note_on_c, 1, 55, 127
1, 316946, Note_on_c, 1, 64, 127
1, 317141, Note_off_c, 1, 61, 0
1, 317141, Note_off_c, 1, 55, 0
1, 317155, Note_on_c, 1, 49, 127
1, 317350, Note_off_c, 1, 49, 0
1, 317353, Note_off_c, 1, 64, 0
1, 317364, Note_on_c, 1, 66, 127
1, 317364, Note_on_c, 1, 50, 127
1, 317364, Note_on_c, 1, 59, 127
1, 317559, Note_off_c, 1, 66, 0
1, 317559, Note_off_c, 1, 50, 0
1, 317573, Note_on_c, 1, 54, 127
1, 317573, Note_on_c, 1, 62, 127
1, 317768, Note_off_c, 1, 59, 0
1, 317768, Note_off_c, 1, 54, 0
1, 317782, Note_on_c, 1, 47, 127
1, 317977, Note_off_c, 1, 47, 0
1, 317980, Note_off_c, 1, 62, 0
1, 317991, Note_on_c, 1, 57, 127
1, 317991, Note_on_c, 1, 49, 127
1, 317991, Note_on_c, 1, 64, 127
1, 318186, Note_off_c, 1, 57, 0
1, 318186, Note_off_c, 1, 49, 0
1, 318200, Note_on_c, 1, 52, 127
1, 318200, Note_on_c, 1, 56, 127
1, 318395, Note_off_c, 1, 52, 0
1, 318395, Note_off_c, 1, 56, 0
1, 318398, Note_off_c, 1, 64, 0
1, 318409, Note_on_c, 1, 64, 127
1, 318409, Note_on_c, 1, 59, 127
1, 318409, Note_on_c, 1, 44, 127
1, 318604, Note_off_c, 1, 64, 0
1, 318604, Note_off_c, 1, 59, 0
1, 318604, Note_off_c, 1, 44, 0
1, 318618, Note_on_c, 1, 61, 127
1, 318618, Note_on_c, 1, 45, 127
1, 318618, Note_on_c, 1, 57, 127
1, 318813, Note_off_c, 1, 61, 0
1, 318813, Note_off_c, 1, 45, 0
1, 318827, Note_on_c, 1, 62, 127
1, 318827, Note_on_c, 1, 47, 127
1, 319022, Note_off_c, 1, 57, 0
1, 319022, Note_off_c, 1, 62, 0
1, 319022, Note_off_c, 1, 47, 0
1, 319036, Note_on_c, 1, 64, 127
1, 319036, Note_on_c, 1, 57, 127
1, 319036, Note_on_c, 1, 49, 127
1, 319231, Note_off_c, 1, 64, 0
1, 319231, Note_off_c, 1, 57, 0
1, 319231, Note_off_c, 1, 49, 0
1, 319245, Note_on_c, 1, 66, 127
1, 319245, Note_on_c, 1, 50, 127
1, 319245, Note_on_c, 1, 57, 127
1, 319440, Note_off_c, 1, 66, 0
1, 319440, Note_off_c, 1, 50, 0
1, 319440, Note_off_c, 1, 57, 0
1, 319454, Note_on_c, 1, 67, 127
1, 319454, Note_on_c, 1, 52, 127
1, 319649, Note_off_c, 1, 67, 0
1, 319649, Note_off_c, 1, 52, 0
1, 319663, Note_on_c, 1, 69, 127
1, 319663, Note_on_c, 1, 54, 127
1, 319663, Note_on_c, 1, 62, 127
1, 319858, Note_off_c, 1, 69, 0
1, 319858, Note_off_c, 1, 54, 0
1, 319858, Note_off_c, 1, 62, 0
1, 319872, Note_on_c, 1, 62, 127
1, 319872, Note_on_c, 1, 55, 127
1, 319872, Note_on_c, 1, 59, 127
1, 320067, Note_off_c, 1, 62, 0
1, 320081, Note_on_c, 1, 64, 127
1, 320276, Note_off_c, 1, 64, 0
1, 320279, Note_off_c, 1, 55, 0
1, 320279, Note_off_c, 1, 59, 0
1, 320290, Note_on_c, 1, 66, 127
1, 320290, Note_on_c, 1, 57, 127
1, 320290, Note_on_c, 1, 54, 127
1, 320485, Note_off_c, 1, 66, 0
1, 320485, Note_off_c, 1, 57, 0
1, 320485, Note_off_c, 1, 54, 0
1, 320499, Note_on_c, 1, 67, 127
1, 320499, Note_on_c, 1, 52, 127
1, 320499, Note_on_c, 1, 55, 127
1, 320694, Note_off_c, 1, 67, 0
1, 320708, Note_on_c, 1, 69, 127
1, 320903, Note_off_c, 1, 69, 0
1, 320906, Note_off_c, 1, 52, 0
1, 320906, Note_off_c, 1, 55, 0
1, 320917, Note_on_c, 1, 71, 127
1, 320917, Note_on_c, 1, 50, 127
1, 320917, Note_on_c, 1, 54, 127
1, 321112, Note_off_c, 1, 71, 0
1, 321112, Note_off_c, 1, 50, 0
1, 321112, Note_off_c, 1, 54, 0
1, 321126, Note_on_c, 1, 69, 127
1, 321126, Note_on_c, 1, 52, 127
1, 321126, Note_on_c, 1, 49, 127
1, 321321, Note_off_c, 1, 69, 0
1, 321335, Note_on_c, 1, 73, 127
1, 321530, Note_off_c, 1, 73, 0
1, 321533, Note_off_c, 1, 52, 0
1, 321544, Note_on_c, 1, 64, 127
1, 321544, Note_on_c, 1, 57, 127
1, 321739, Note_off_c, 1, 64, 0
1, 321739, Note_off_c, 1, 57, 0
1, 321742, Note_off_c, 1, 49, 0
1, 321753, Note_on_c, 1, 66, 127
1, 321753, Note_on_c, 1, 54, 127
1, 321753, Note_on_c, 1, 50, 127
1, 321948, Note_off_c, 1, 66, 0
1, 321962, Note_on_c, 1, 69, 127
1, 322157, Note_off_c, 1, 69, 0
1, 322160, Note_off_c, 1, 54, 0
1, 322171, Note_on_c, 1, 62, 127
1, 322366, Note_off_c, 1, 62, 0
1, 322369, Note_off_c, 1, 50, 0
1, 322380, Note_on_c, 1, 59, 127
1, 322380, Note_on_c, 1, 55, 127
1, 322380, Note_on_c, 1, 43, 127
1, 322577, Note_off_c, 1, 59, 0
1, 322784, Note_off_c, 1, 55, 0
1, 322784, Note_off_c, 1, 43, 0
1, 322798, Note_on_c, 1, 61, 127
1, 322798, Note_on_c, 1, 52, 127
1, 322798, Note_on_c, 1, 45, 127
1, 322993, Note_off_c, 1, 61, 0
1, 322993, Note_off_c, 1, 52, 0
1, 322993, Note_off_c, 1, 45, 0
1, 323007, Note_on_c, 1, 54, 127
1, 323007, Note_on_c, 1, 50, 127
1, 323007, Note_on_c, 1, 62, 127
1, 323202, Note_off_c, 1, 54, 0
1, 323202, Note_off_c, 1, 50, 0
1, 323414, Note_off_c, 1, 62, 0
1, 323425, Note_on_c, 1, 62, 127
1, 323425, Note_on_c, 1, 47, 127
1, 323425, Note_on_c, 1, 56, 127
1, 323620, Note_off_c, 1, 62, 0
1, 323620, Note_off_c, 1, 47, 0
1, 323620, Note_off_c, 1, 56, 0
1, 323634, Note_on_c, 1, 69, 127
1, 323634, Note_on_c, 1, 61, 127
1, 323634, Note_on_c, 1, 57, 127
1, 323634, Note_on_c, 1, 45, 127
1, 323829, Note_off_c, 1, 69, 0
1, 324039, Note_off_c, 1, 61, 0
1, 324042, Note_off_c, 1, 57, 0
1, 324042, Note_off_c, 1, 45, 0
1, 324053, Note_on_c, 1, 69, 127
1, 324053, Note_on_c, 1, 47, 127
1, 324248, Note_off_c, 1, 69, 0
1, 324248, Note_off_c, 1, 47, 0
1, 324262, Note_on_c, 1, 69, 127
1, 324262, Note_on_c, 1, 49, 127
1, 324262, Note_on_c, 1, 64, 127
1, 324457, Note_off_c, 1, 69, 0
1, 324457, Note_off_c, 1, 49, 0
1, 324471, Note_on_c, 1, 52, 127
1, 324666, Note_off_c, 1, 64, 0
1, 324666, Note_off_c, 1, 52, 0
1, 324680, Note_on_c, 1, 69, 127
1, 324680, Note_on_c, 1, 45, 127
1, 324875, Note_off_c, 1, 69, 0
1, 324875, Note_off_c, 1, 45, 0
1, 324889, Note_on_c, 1, 73, 127
1, 324889, Note_on_c, 1, 64, 127
1, 324889, Note_on_c, 1, 57, 127
1, 325084, Note_off_c, 1, 73, 0
1, 325084, Note_off_c, 1, 64, 0
1, 325098, Note_on_c, 1, 76, 127
1, 325098, Note_on_c, 1, 61, 127
1, 325293, Note_off_c, 1, 57, 0
1, 325293, Note_off_c, 1, 76, 0
1, 325307, Note_on_c, 1, 69, 127
1, 325502, Note_off_c, 1, 69, 0
1, 325505, Note_off_c, 1, 61, 0
1, 325516, Note_on_c, 1, 73, 127
1, 325516, Note_on_c, 1, 64, 127
1, 325516, Note_on_c, 1, 57, 127
1, 325711, Note_off_c, 1, 73, 0
1, 325711, Note_off_c, 1, 64, 0
1, 325725, Note_on_c, 1, 76, 127
1, 325725, Note_on_c, 1, 61, 127
1, 325920, Note_off_c, 1, 57, 0
1, 325920, Note_off_c, 1, 76, 0
1, 325934, Note_on_c, 1, 69, 127
1, 326129, Note_off_c, 1, 69, 0
1, 326132, Note_off_c, 1, 61, 0
1, 326143, Note_on_c, 1, 73, 127
1, 326143, Note_on_c, 1, 64, 127
1, 326143, Note_on_c, 1, 58, 127
1, 326338, Note_off_c, 1, 73, 0
1, 326338, Note_off_c, 1, 64, 0
1, 326352, Note_on_c, 1, 78, 127
1, 326352, Note_on_c, 1, 61, 127
1, 326446, Note_off_c, 1, 78, 0
1, 326457, Note_on_c, 1, 76, 127
1, 326548, Note_off_c, 1, 58, 0
1, 326551, Note_off_c, 1, 76, 0
1, 326562, Note_on_c, 1, 74, 127
1, 326656, Note_off_c, 1, 74, 0
1, 326761, Note_off_c, 1, 61, 0
1, 326772, Note_on_c, 1, 74, 127
1, 326772, Note_on_c, 1, 66, 127
1, 326772, Note_on_c, 1, 59, 127
1, 326967, Note_off_c, 1, 74, 0
1, 326967, Note_off_c, 1, 66, 0
1, 326981, Note_on_c, 1, 78, 127
1, 326981, Note_on_c, 1, 62, 127
1, 327176, Note_off_c, 1, 59, 0
1, 327176, Note_off_c, 1, 78, 0
1, 327190, Note_on_c, 1, 71, 127
1, 327385, Note_off_c, 1, 71, 0
1, 327388, Note_off_c, 1, 62, 0
1, 327399, Note_on_c, 1, 74, 127
1, 327399, Note_on_c, 1, 66, 127
1, 327399, Note_on_c, 1, 59, 127
1, 327594, Note_off_c, 1, 74, 0
1, 327594, Note_off_c, 1, 66, 0
1, 327608, Note_on_c, 1, 78, 127
1, 327608, Note_on_c, 1, 62, 127
1, 327803, Note_off_c, 1, 59, 0
1, 327803, Note_off_c, 1, 78, 0
1, 327817, Note_on_c, 1, 71, 127
1, 328012, Note_off_c, 1, 71, 0
1, 328015, Note_off_c, 1, 62, 0
1, 328026, Note_on_c, 1, 74, 127
1, 328026, Note_on_c, 1, 56, 127
1, 328026, Note_on_c, 1, 59, 127
1, 328221, Note_off_c, 1, 74, 0
1, 328235, Note_on_c, 1, 76, 127
1, 328321, Note_off_c, 1, 56, 0
1, 328321, Note_off_c, 1, 59, 0
1, 328329, Note_off_c, 1, 76, 0
1, 328340, Note_on_c, 1, 74, 127
1, 328434, Note_off_c, 1, 74, 0
1, 328445, Note_on_c, 1, 73, 127
1, 328539, Note_off_c, 1, 73, 0
1, 328550, Note_on_c, 1, 71, 127
1, 328644, Note_off_c, 1, 71, 0
1, 328655, Note_on_c, 1, 73, 127
1, 328655, Note_on_c, 1, 64, 127
1, 328655, Note_on_c, 1, 57, 127
1, 328850, Note_off_c, 1, 73, 0
1, 328850, Note_off_c, 1, 64, 0
1, 328864, Note_on_c, 1, 76, 127
1, 328864, Note_on_c, 1, 61, 127
1, 329059, Note_off_c, 1, 57, 0
1, 329059, Note_off_c, 1, 76, 0
1, 329073, Note_on_c, 1, 69, 127
1, 329268, Note_off_c, 1, 69, 0
1, 329271, Note_off_c, 1, 61, 0
1, 329282, Note_on_c, 1, 71, 127
1, 329282, Note_on_c, 1, 62, 127
1, 329282, Note_on_c, 1, 50, 127
1, 329477, Note_off_c, 1, 71, 0
1, 329477, Note_off_c, 1, 62, 0
1, 329491, Note_on_c, 1, 74, 127
1, 329491, Note_on_c, 1, 59, 127
1, 329686, Note_off_c, 1, 50, 0
1, 329686, Note_off_c, 1, 74, 0
1, 329700, Note_on_c, 1, 68, 127
1, 329700, Note_on_c, 1, 52, 127
1, 329895, Note_off_c, 1, 59, 0
1, 329895, Note_off_c, 1, 68, 0
1, 329895, Note_off_c, 1, 52, 0
1, 329909, Note_on_c, 1, 69, 127
1, 329909, Note_on_c, 1, 61, 127
1, 329909, Note_on_c, 1, 49, 127
1, 330104, Note_off_c, 1, 69, 0
1, 330104, Note_off_c, 1, 61, 0
1, 330118, Note_on_c, 1, 73, 127
1, 330118, Note_on_c, 1, 57, 127
1, 330313, Note_off_c, 1, 49, 0
1, 330313, Note_off_c, 1, 73, 0
1, 330327, Note_on_c, 1, 66, 127
1, 330327, Note_on_c, 1, 50, 127
1, 330522, Note_off_c, 1, 57, 0
1, 330522, Note_off_c, 1, 66, 0
1, 330522, Note_off_c, 1, 50, 0
1, 330536, Note_on_c, 1, 68, 127
1, 330536, Note_on_c, 1, 59, 127
1, 330536, Note_on_c, 1, 47, 127
1, 330731, Note_off_c, 1, 68, 0
1, 330731, Note_off_c, 1, 59, 0
1, 330745, Note_on_c, 1, 71, 127
1, 330745, Note_on_c, 1, 56, 127
1, 330940, Note_off_c, 1, 47, 0
1, 330940, Note_off_c, 1, 71, 0
1, 330954, Note_on_c, 1, 65, 127
1, 330954, Note_on_c, 1, 49, 127
1, 331149, Note_off_c, 1, 56, 0
1, 331149, Note_off_c, 1, 65, 0
1, 331149, Note_off_c, 1, 49, 0
1, 331163, Note_on_c, 1, 66, 127
1, 331163, Note_on_c, 1, 57, 127
1, 331163, Note_on_c, 1, 54, 127
1, 331363, Note_off_c, 1, 66, 0
1, 331373, Note_on_c, 1, 73, 127
1, 331573, Note_off_c, 1, 73, 0
1, 331576, Note_off_c, 1, 57, 0
1, 331576, Note_off_c, 1, 54, 0
1, 331583, Note_on_c, 1, 69, 127
1, 331583, Note_on_c, 1, 61, 127
1, 331783, Note_off_c, 1, 69, 0
1, 331783, Note_off_c, 1, 61, 0
1, 331793, Note_on_c, 1, 66, 127
1, 331793, Note_on_c, 1, 54, 127
1, 331793, Note_on_c, 1, 57, 127
1, 331993, Note_off_c, 1, 66, 0
1, 332003, Note_on_c, 1, 74, 127
1, 332203, Note_off_c, 1, 74, 0
1, 332206, Note_off_c, 1, 54, 0
1, 332206, Note_off_c, 1, 57, 0
1, 332213, Note_on_c, 1, 69, 127
1, 332213, Note_on_c, 1, 62, 127
1, 332413, Note_off_c, 1, 69, 0
1, 332413, Note_off_c, 1, 62, 0
1, 332423, Note_on_c, 1, 71, 127
1, 332423, Note_on_c, 1, 59, 127
1, 332423, Note_on_c, 1, 56, 127
1, 332623, Note_off_c, 1, 71, 0
1, 332633, Note_on_c, 1, 74, 127
1, 332833, Note_off_c, 1, 74, 0
1, 332836, Note_off_c, 1, 59, 0
1, 332836, Note_off_c, 1, 56, 0
1, 332843, Note_on_c, 1, 71, 127
1, 332843, Note_on_c, 1, 64, 127
1, 333043, Note_off_c, 1, 71, 0
1, 333043, Note_off_c, 1, 64, 0
1, 333053, Note_on_c, 1, 68, 127
1, 333053, Note_on_c, 1, 59, 127
1, 333053, Note_on_c, 1, 52, 127
1, 333253, Note_off_c, 1, 68, 0
1, 333263, Note_on_c, 1, 76, 127
1, 333463, Note_off_c, 1, 76, 0
1, 333466, Note_off_c, 1, 59, 0
1, 333466, Note_off_c, 1, 52, 0
1, 333473, Note_on_c, 1, 71, 127
1, 333473, Note_on_c, 1, 56, 127
1, 333673, Note_off_c, 1, 71, 0
1, 333673, Note_off_c, 1, 56, 0
1, 333683, Note_on_c, 1, 73, 127
1, 333683, Note_on_c, 1, 52, 127
1, 333683, Note_on_c, 1, 57, 127
1, 333883, Note_off_c, 1, 73, 0
1, 333893, Note_on_c, 1, 76, 127
1, 334093, Note_off_c, 1, 76, 0
1, 334096, Note_off_c, 1, 52, 0
1, 334096, Note_off_c, 1, 57, 0
1, 334103, Note_on_c, 1, 71, 127
1, 334103, Note_on_c, 1, 56, 127
1, 334303, Note_off_c, 1, 71, 0
1, 334303, Note_off_c, 1, 56, 0
1, 334313, Note_on_c, 1, 73, 127
1, 334313, Note_on_c, 1, 57, 127
1, 334313, Note_on_c, 1, 52, 127
1, 334513, Note_off_c, 1, 73, 0
1, 334523, Note_on_c, 1, 76, 127
1, 334723, Note_off_c, 1, 76, 0
1, 334726, Note_off_c, 1, 57, 0
1, 334726, Note_off_c, 1, 52, 0
1, 334733, Note_on_c, 1, 73, 127
1, 334733, Note_on_c, 1, 57, 127
1, 334933, Note_off_c, 1, 73, 0
1, 334933, Note_off_c, 1, 57, 0
1, 334943, Note_on_c, 1, 74, 127
1, 334943, Note_on_c, 1, 54, 127
1, 334943, Note_on_c, 1, 57, 127
1, 335145, Note_off_c, 1, 74, 0
1, 335153, Note_on_c, 1, 78, 127
1, 335355, Note_off_c, 1, 78, 0
1, 335358, Note_off_c, 1, 54, 0
1, 335358, Note_off_c, 1, 57, 0
1, 335362, Note_on_c, 1, 71, 127
1, 335362, Note_on_c, 1, 55, 127
1, 335564, Note_off_c, 1, 71, 0
1, 335564, Note_off_c, 1, 55, 0
1, 335572, Note_on_c, 1, 73, 127
1, 335572, Note_on_c, 1, 64, 127
1, 335572, Note_on_c, 1, 52, 127
1, 335774, Note_off_c, 1, 73, 0
1, 335774, Note_off_c, 1, 64, 0
1, 335782, Note_on_c, 1, 76, 127
1, 335782, Note_on_c, 1, 61, 127
1, 335984, Note_off_c, 1, 52, 0
1, 335984, Note_off_c, 1, 76, 0
1, 335992, Note_on_c, 1, 70, 127
1, 335992, Note_on_c, 1, 54, 127
1, 336194, Note_off_c, 1, 61, 0
1, 336194, Note_off_c, 1, 70, 0
1, 336194, Note_off_c, 1, 54, 0
1, 336202, Note_on_c, 1, 66, 127
1, 336202, Note_on_c, 1, 71, 127
1, 336202, Note_on_c, 1, 62, 127
1, 336202, Note_on_c, 1, 59, 127
1, 336404, Note_off_c, 1, 66, 0
1, 336404, Note_off_c, 1, 71, 0
1, 336616, Note_off_c, 1, 62, 0
1, 336616, Note_off_c, 1, 59, 0
1, 336620, Note_on_c, 1, 66, 127
1, 336620, Note_on_c, 1, 78, 127
1, 336620, Note_on_c, 1, 58, 127
1, 336620, Note_on_c, 1, 61, 127
1, 336822, Note_off_c, 1, 66, 0
1, 336822, Note_off_c, 1, 78, 0
1, 336822, Note_off_c, 1, 58, 0
1, 336822, Note_off_c, 1, 61, 0
1, 336830, Note_on_c, 1, 66, 127
1, 336830, Note_on_c, 1, 74, 127
1, 336830, Note_on_c, 1, 59, 127
1, 337032, Note_off_c, 1, 66, 0
1, 337032, Note_off_c, 1, 74, 0
1, 337242, Note_off_c, 1, 59, 0
1, 337250, Note_on_c, 1, 66, 127
1, 337452, Note_off_c, 1, 66, 0
1, 337460, Note_on_c, 1, 69, 127
1, 337460, Note_on_c, 1, 61, 127
1, 337460, Note_on_c, 1, 54, 127
1, 337662, Note_off_c, 1, 69, 0
1, 337662, Note_off_c, 1, 61, 0
1, 337670, Note_on_c, 1, 73, 127
1, 337670, Note_on_c, 1, 57, 127
1, 337872, Note_off_c, 1, 54, 0
1, 337872, Note_off_c, 1, 73, 0
1, 337880, Note_on_c, 1, 66, 127
1, 338082, Note_off_c, 1, 66, 0
1, 338085, Note_off_c, 1, 57, 0
1, 338089, Note_on_c, 1, 69, 127
1, 338089, Note_on_c, 1, 61, 127
1, 338089, Note_on_c, 1, 52, 127
1, 338291, Note_off_c, 1, 69, 0
1, 338291, Note_off_c, 1, 61, 0
1, 338299, Note_on_c, 1, 73, 127
1, 338299, Note_on_c, 1, 57, 127
1, 338501, Note_off_c, 1, 52, 0
1, 338501, Note_off_c, 1, 73, 0
1, 338509, Note_on_c, 1, 66, 127
1, 338711, Note_off_c, 1, 66, 0
1, 338714, Note_off_c, 1, 57, 0
1, 338718, Note_on_c, 1, 71, 127
1, 338718, Note_on_c, 1, 62, 127
1, 338718, Note_on_c, 1, 50, 127
1, 338920, Note_off_c, 1, 71, 0
1, 338920, Note_off_c, 1, 62, 0
1, 338928, Note_on_c, 1, 74, 127
1, 338928, Note_on_c, 1, 59, 127
1, 339028, Note_off_c, 1, 74, 0
1, 339032, Note_on_c, 1, 73, 127
1, 339129, Note_off_c, 1, 50, 0
1, 339132, Note_off_c, 1, 73, 0
1, 339240, Note_on_c, 1, 69, 127
1, 339340, Note_off_c, 1, 59, 0
1, 339340, Note_off_c, 1, 69, 0
1, 339344, Note_on_c, 1, 68, 127
1, 339344, Note_on_c, 1, 59, 127
1, 339344, Note_on_c, 1, 52, 127
1, 339546, Note_off_c, 1, 68, 0
1, 339546, Note_off_c, 1, 59, 0
1, 339554, Note_on_c, 1, 71, 127
1, 339554, Note_on_c, 1, 56, 127
1, 339756, Note_off_c, 1, 52, 0
1, 339756, Note_off_c, 1, 71, 0
1, 339764, Note_on_c, 1, 64, 127
1, 339966, Note_off_c, 1, 64, 0
1, 339969, Note_off_c, 1, 56, 0
1, 339973, Note_on_c, 1, 69, 127
1, 339973, Note_on_c, 1, 61, 127
1, 339973, Note_on_c, 1, 49, 127
1, 340175, Note_off_c, 1, 69, 0
1, 340175, Note_off_c, 1, 61, 0
1, 340183, Note_on_c, 1, 73, 127
1, 340183, Note_on_c, 1, 57, 127
1, 340283, Note_off_c, 1, 73, 0
1, 340287, Note_on_c, 1, 71, 127
1, 340384, Note_off_c, 1, 49, 0
1, 340387, Note_off_c, 1, 71, 0
1, 340495, Note_on_c, 1, 67, 127
1, 340595, Note_off_c, 1, 57, 0
1, 340595, Note_off_c, 1, 67, 0
1, 340599, Note_on_c, 1, 66, 127
1, 340599, Note_on_c, 1, 57, 127
1, 340599, Note_on_c, 1, 50, 127
1, 340801, Note_off_c, 1, 66, 0
1, 340801, Note_off_c, 1, 57, 0
1, 340809, Note_on_c, 1, 69, 127
1, 340809, Note_on_c, 1, 54, 127
1, 341011, Note_off_c, 1, 50, 0
1, 341011, Note_off_c, 1, 69, 0
1, 341019, Note_on_c, 1, 62, 127
1, 341221, Note_off_c, 1, 62, 0
1, 341224, Note_off_c, 1, 54, 0
1, 341228, Note_on_c, 1, 67, 127
1, 341228, Note_on_c, 1, 59, 127
1, 341228, Note_on_c, 1, 47, 127
1, 341430, Note_off_c, 1, 67, 0
1, 341430, Note_off_c, 1, 59, 0
1, 341438, Note_on_c, 1, 71, 127
1, 341438, Note_on_c, 1, 55, 127
1, 341538, Note_off_c, 1, 71, 0
1, 341542, Note_on_c, 1, 69, 127
1, 341639, Note_off_c, 1, 47, 0
1, 341642, Note_off_c, 1, 69, 0
1, 341750, Note_on_c, 1, 66, 127
1, 341850, Note_off_c, 1, 55, 0
1, 341850, Note_off_c, 1, 66, 0
1, 341854, Note_on_c, 1, 67, 127
1, 341854, Note_on_c, 1, 55, 127
1, 341854, Note_on_c, 1, 52, 127
1, 342056, Note_off_c, 1, 67, 0
1, 342056, Note_off_c, 1, 55, 0
1, 342056, Note_off_c, 1, 52, 0
1, 342064, Note_on_c, 1, 69, 127
1, 342064, Note_on_c, 1, 52, 127
1, 342064, Note_on_c, 1, 49, 127
1, 342164, Note_off_c, 1, 69, 0
1, 342168, Note_on_c, 1, 67, 127
1, 342268, Note_off_c, 1, 67, 0
1, 342272, Note_on_c, 1, 66, 127
1, 342372, Note_off_c, 1, 66, 0
1, 342376, Note_on_c, 1, 64, 127
1, 342476, Note_off_c, 1, 52, 0
1, 342476, Note_off_c, 1, 49, 0
1, 342476, Note_off_c, 1, 64, 0
1, 342480, Note_on_c, 1, 66, 127
1, 342480, Note_on_c, 1, 50, 127
1, 342682, Note_off_c, 1, 66, 0
1, 342690, Note_on_c, 1, 69, 127
1, 342892, Note_off_c, 1, 69, 0
1, 342895, Note_off_c, 1, 50, 0
1, 342899, Note_on_c, 1, 61, 127
1, 342899, Note_on_c, 1, 57, 127
1, 343101, Note_off_c, 1, 61, 0
1, 343101, Note_off_c, 1, 57, 0
1, 343109, Note_on_c, 1, 62, 127
1, 343109, Note_on_c, 1, 54, 127
1, 343311, Note_off_c, 1, 62, 0
1, 343319, Note_on_c, 1, 66, 127
1, 343521, Note_off_c, 1, 66, 0
1, 343524, Note_off_c, 1, 54, 0
1, 343528, Note_on_c, 1, 62, 127
1, 343528, Note_on_c, 1, 54, 127
1, 343730, Note_off_c, 1, 62, 0
1, 343730, Note_off_c, 1, 54, 0
1, 343738, Note_on_c, 1, 71, 127
1, 343738, Note_on_c, 1, 50, 127
1, 343940, Note_off_c, 1, 71, 0
1, 343948, Note_on_c, 1, 74, 127
1, 344150, Note_off_c, 1, 74, 0
1, 344153, Note_off_c, 1, 50, 0
1, 344157, Note_on_c, 1, 66, 127
1, 344157, Note_on_c, 1, 62, 127
1, 344359, Note_off_c, 1, 66, 0
1, 344359, Note_off_c, 1, 62, 0
1, 344367, Note_on_c, 1, 67, 127
1, 344367, Note_on_c, 1, 59, 127
1, 344569, Note_off_c, 1, 67, 0
1, 344569, Note_off_c, 1, 59, 0
1, 344577, Note_on_c, 1, 71, 127
1, 344577, Note_on_c, 1, 55, 127
1, 344779, Note_off_c, 1, 71, 0
1, 344787, Note_on_c, 1, 64, 127
1, 344989, Note_off_c, 1, 64, 0
1, 344992, Note_off_c, 1, 55, 0
1, 344996, Note_on_c, 1, 66, 127
1, 344996, Note_on_c, 1, 57, 127
1, 344996, Note_on_c, 1, 50, 127
1, 345198, Note_off_c, 1, 66, 0
1, 345198, Note_off_c, 1, 57, 0
1, 345206, Note_on_c, 1, 69, 127
1, 345407, Note_off_c, 1, 50, 0
1, 345407, Note_off_c, 1, 69, 0
1, 345414, Note_on_c, 1, 61, 127
1, 345414, Note_on_c, 1, 45, 127
1, 345414, Note_on_c, 1, 57, 127
1, 345616, Note_off_c, 1, 61, 0
1, 345616, Note_off_c, 1, 45, 0
1, 345616, Note_off_c, 1, 57, 0
1, 345624, Note_on_c, 1, 57, 127
1, 345624, Note_on_c, 1, 62, 127
1, 345624, Note_on_c, 1, 42, 127
1, 345826, Note_off_c, 1, 57, 0
1, 346036, Note_off_c, 1, 62, 0
1, 346036, Note_off_c, 1, 42, 0
1, 346044, Note_on_c, 1, 57, 127
1, 346246, Note_off_c, 1, 57, 0
1, 346254, Note_on_c, 1, 76, 127
1, 346254, Note_on_c, 1, 61, 127
1, 346254, Note_on_c, 1, 57, 127
1, 346456, Note_off_c, 1, 76, 0
1, 346456, Note_off_c, 1, 61, 0
1, 346464, Note_on_c, 1, 64, 127
1, 346464, Note_on_c, 1, 73, 127
1, 346666, Note_off_c, 1, 57, 0
1, 346666, Note_off_c, 1, 64, 0
1, 346879, Note_off_c, 1, 73, 0
1, 346883, Note_on_c, 1, 76, 127
1, 346883, Note_on_c, 1, 61, 127
1, 346883, Note_on_c, 1, 57, 127
1, 347085, Note_off_c, 1, 76, 0
1, 347085, Note_off_c, 1, 61, 0
1, 347093, Note_on_c, 1, 64, 127
1, 347093, Note_on_c, 1, 73, 127
1, 347295, Note_off_c, 1, 57, 0
1, 347295, Note_off_c, 1, 64, 0
1, 347508, Note_off_c, 1, 73, 0
1, 347512, Note_on_c, 1, 76, 127
1, 347512, Note_on_c, 1, 61, 127
1, 347512, Note_on_c, 1, 58, 127
1, 347714, Note_off_c, 1, 76, 0
1, 347714, Note_off_c, 1, 61, 0
1, 347722, Note_on_c, 1, 66, 127
1, 347722, Note_on_c, 1, 73, 127
1, 347822, Note_off_c, 1, 66, 0
1, 347826, Note_on_c, 1, 64, 127
1, 347923, Note_off_c, 1, 58, 0
1, 347926, Note_off_c, 1, 64, 0
1, 347930, Note_on_c, 1, 62, 127
1, 348030, Note_off_c, 1, 62, 0
1, 348134, Note_off_c, 1, 73, 0
1, 348138, Note_on_c, 1, 78, 127
1, 348138, Note_on_c, 1, 62, 127
1, 348138, Note_on_c, 1, 59, 127
1, 348340, Note_off_c, 1, 78, 0
1, 348340, Note_off_c, 1, 62, 0
1, 348348, Note_on_c, 1, 66, 127
1, 348348, Note_on_c, 1, 74, 127
1, 348550, Note_off_c, 1, 59, 0
1, 348550, Note_off_c, 1, 66, 0
1, 348763, Note_off_c, 1, 74, 0
1, 348767, Note_on_c, 1, 78, 127
1, 348767, Note_on_c, 1, 62, 127
1, 348767, Note_on_c, 1, 59, 127
1, 348969, Note_off_c, 1, 78, 0
1, 348969, Note_off_c, 1, 62, 0
1, 348977, Note_on_c, 1, 66, 127
1, 348977, Note_on_c, 1, 74, 127
1, 349179, Note_off_c, 1, 59, 0
1, 349179, Note_off_c, 1, 66, 0
1, 349392, Note_off_c, 1, 74, 0
1, 349396, Note_on_c, 1, 62, 127
1, 349396, Note_on_c, 1, 71, 127
1, 349396, Note_on_c, 1, 56, 127
1, 349598, Note_off_c, 1, 62, 0
1, 349606, Note_on_c, 1, 64, 127
1, 349706, Note_off_c, 1, 64, 0
1, 349807, Note_off_c, 1, 71, 0
1, 349807, Note_off_c, 1, 56, 0
1, 349814, Note_on_c, 1, 61, 127
1, 349914, Note_off_c, 1, 61, 0
1, 349918, Note_on_c, 1, 59, 127
1, 350018, Note_off_c, 1, 59, 0
1, 350022, Note_on_c, 1, 76, 127
1, 350022, Note_on_c, 1, 61, 127
1, 350022, Note_on_c, 1, 57, 127
1, 350224, Note_off_c, 1, 76, 0
1, 350224, Note_off_c, 1, 61, 0
1, 350232, Note_on_c, 1, 64, 127
1, 350232, Note_on_c, 1, 73, 127
1, 350434, Note_off_c, 1, 57, 0
1, 350434, Note_off_c, 1, 64, 0
1, 350647, Note_off_c, 1, 73, 0
1, 350651, Note_on_c, 1, 74, 127
1, 350651, Note_on_c, 1, 59, 127
1, 350651, Note_on_c, 1, 56, 127
1, 350853, Note_off_c, 1, 74, 0
1, 350853, Note_off_c, 1, 59, 0
1, 350861, Note_on_c, 1, 62, 127
1, 350861, Note_on_c, 1, 71, 127
1, 351063, Note_off_c, 1, 56, 0
1, 351063, Note_off_c, 1, 62, 0
1, 351276, Note_off_c, 1, 71, 0
1, 351280, Note_on_c, 1, 73, 127
1, 351280, Note_on_c, 1, 57, 127
1, 351280, Note_on_c, 1, 54, 127
1, 351482, Note_off_c, 1, 73, 0
1, 351482, Note_off_c, 1, 57, 0
1, 351490, Note_on_c, 1, 61, 127
1, 351490, Note_on_c, 1, 69, 127
1, 351692, Note_off_c, 1, 54, 0
1, 351692, Note_off_c, 1, 61, 0
1, 351905, Note_off_c, 1, 69, 0
1, 351909, Note_on_c, 1, 71, 127
1, 351909, Note_on_c, 1, 56, 127
1, 351909, Note_on_c, 1, 52, 127
1, 352111, Note_off_c, 1, 71, 0
1, 352111, Note_off_c, 1, 56, 0
1, 352119, Note_on_c, 1, 59, 127
1, 352119, Note_on_c, 1, 68, 127
1, 352321, Note_off_c, 1, 52, 0
1, 352321, Note_off_c, 1, 59, 0
1, 352534, Note_off_c, 1, 68, 0
1, 352538, Note_on_c, 1, 69, 127
1, 352538, Note_on_c, 1, 54, 127
1, 352538, Note_on_c, 1, 57, 127
1, 352740, Note_off_c, 1, 69, 0
1, 352740, Note_off_c, 1, 54, 0
1, 352740, Note_off_c, 1, 57, 0
1, 352748, Note_on_c, 1, 71, 127
1, 352748, Note_on_c, 1, 54, 127
1, 352748, Note_on_c, 1, 51, 127
1, 352950, Note_off_c, 1, 71, 0
1, 352958, Note_on_c, 1, 69, 127
1, 353160, Note_off_c, 1, 69, 0
1, 353163, Note_off_c, 1, 54, 0
1, 353163, Note_off_c, 1, 51, 0
1, 353167, Note_on_c, 1, 68, 127
1, 353167, Note_on_c, 1, 52, 127
1, 353167, Note_on_c, 1, 59, 127
1, 353369, Note_off_c, 1, 68, 0
1, 353377, Note_on_c, 1, 66, 127
1, 353579, Note_off_c, 1, 66, 0
1, 353587, Note_on_c, 1, 64, 127
1, 353688, Note_off_c, 1, 52, 0
1, 353688, Note_off_c, 1, 59, 0
1, 353788, Note_off_c, 1, 64, 0
1, 353796, Note_on_c, 1, 67, 127
1, 353796, Note_on_c, 1, 64, 127
1, 354002, Note_off_c, 1, 67, 0
1, 354002, Note_off_c, 1, 64, 0
1, 354005, Note_on_c, 1, 69, 127
1, 354005, Note_on_c, 1, 61, 127
1, 354211, Note_off_c, 1, 69, 0
1, 354214, Note_on_c, 1, 67, 127
1, 354420, Note_off_c, 1, 67, 0
1, 354423, Note_off_c, 1, 61, 0
1, 354423, Note_on_c, 1, 66, 127
1, 354423, Note_on_c, 1, 62, 127
1, 354629, Note_off_c, 1, 66, 0
1, 354629, Note_off_c, 1, 62, 0
1, 354632, Note_on_c, 1, 67, 127
1, 354632, Note_on_c, 1, 59, 127
1, 354838, Note_off_c, 1, 67, 0
1, 354841, Note_on_c, 1, 66, 127
1, 355047, Note_off_c, 1, 66, 0
1, 355050, Note_off_c, 1, 59, 0
1, 355050, Note_on_c, 1, 64, 127
1, 355050, Note_on_c, 1, 60, 127
1, 355256, Note_off_c, 1, 64, 0
1, 355256, Note_off_c, 1, 60, 0
1, 355259, Note_on_c, 1, 66, 127
1, 355259, Note_on_c, 1, 57, 127
1, 355465, Note_off_c, 1, 66, 0
1, 355468, Note_on_c, 1, 64, 127
1, 355674, Note_off_c, 1, 64, 0
1, 355677, Note_off_c, 1, 57, 0
1, 355677, Note_on_c, 1, 63, 127
1, 355677, Note_on_c, 1, 59, 127
1, 355883, Note_off_c, 1, 63, 0
1, 355883, Note_off_c, 1, 59, 0
1, 355886, Note_on_c, 1, 59, 127
1, 355886, Note_on_c, 1, 57, 127
1, 356092, Note_off_c, 1, 59, 0
1, 356092, Note_off_c, 1, 57, 0
1, 356095, Note_on_c, 1, 55, 127
1, 356095, Note_on_c, 1, 64, 127
1, 356301, Note_off_c, 1, 55, 0
1, 356304, Note_on_c, 1, 57, 127
1, 356499, Note_off_c, 1, 57, 0
1, 356513, Note_off_c, 1, 64, 0
1, 356513, Note_on_c, 1, 66, 127
1, 356513, Note_on_c, 1, 54, 127
1, 356708, Note_off_c, 1, 66, 0
1, 356708, Note_off_c, 1, 54, 0
1, 356722, Note_on_c, 1, 63, 127
1, 356722, Note_on_c, 1, 59, 127
1, 356917, Note_off_c, 1, 63, 0
1, 356917, Note_off_c, 1, 59, 0
1, 356931, Note_on_c, 1, 40, 127
1, 356931, Note_on_c, 1, 55, 127
1, 356931, Note_on_c, 1, 64, 127
1, 357126, Note_off_c, 1, 40, 0
1, 357336, Note_off_c, 1, 55, 0
1, 357339, Note_off_c, 1, 64, 0
1, 357350, Note_on_c, 1, 71, 127
1, 357350, Note_on_c, 1, 40, 127
1, 357545, Note_off_c, 1, 71, 0
1, 357545, Note_off_c, 1, 40, 0
1, 357559, Note_on_c, 1, 40, 127
1, 357559, Note_on_c, 1, 67, 127
1, 357754, Note_off_c, 1, 40, 0
1, 357966, Note_off_c, 1, 67, 0
1, 357977, Note_on_c, 1, 67, 127
1, 357977, Note_on_c, 1, 40, 127
1, 358172, Note_off_c, 1, 67, 0
1, 358172, Note_off_c, 1, 40, 0
1, 358186, Note_on_c, 1, 43, 127
1, 358186, Note_on_c, 1, 64, 127
1, 358381, Note_off_c, 1, 43, 0
1, 358395, Note_on_c, 1, 47, 127
1, 358590, Note_off_c, 1, 47, 0
1, 358593, Note_off_c, 1, 64, 0
1, 358604, Note_on_c, 1, 67, 127
1, 358604, Note_on_c, 1, 40, 127
1, 358799, Note_off_c, 1, 67, 0
1, 358799, Note_off_c, 1, 40, 0
1, 358813, Note_on_c, 1, 43, 127
1, 358813, Note_on_c, 1, 64, 127
1, 359008, Note_off_c, 1, 43, 0
1, 359022, Note_on_c, 1, 47, 127
1, 359217, Note_off_c, 1, 47, 0
1, 359220, Note_off_c, 1, 64, 0
1, 359231, Note_on_c, 1, 67, 127
1, 359231, Note_on_c, 1, 40, 127
1, 359426, Note_off_c, 1, 67, 0
1, 359426, Note_off_c, 1, 40, 0
1, 359440, Note_on_c, 1, 43, 127
1, 359440, Note_on_c, 1, 64, 127
1, 359635, Note_off_c, 1, 43, 0
1, 359649, Note_on_c, 1, 48, 127
1, 359743, Note_off_c, 1, 48, 0
1, 359754, Note_on_c, 1, 47, 127
1, 359848, Note_off_c, 1, 64, 0
1, 359848, Note_off_c, 1, 47, 0
1, 359859, Note_on_c, 1, 45, 127
1, 359859, Note_on_c, 1, 66, 127
1, 359953, Note_off_c, 1, 45, 0
1, 359964, Note_on_c, 1, 43, 127
1, 360055, Note_off_c, 1, 66, 0
1, 360058, Note_off_c, 1, 43, 0
1, 360069, Note_on_c, 1, 42, 127
1, 360069, Note_on_c, 1, 63, 127
1, 360264, Note_off_c, 1, 42, 0
1, 360278, Note_on_c, 1, 47, 127
1, 360473, Note_off_c, 1, 47, 0
1, 360476, Note_off_c, 1, 63, 0
1, 360487, Note_on_c, 1, 78, 127
1, 360487, Note_on_c, 1, 45, 127
1, 360682, Note_off_c, 1, 78, 0
1, 360682, Note_off_c, 1, 45, 0
1, 360696, Note_on_c, 1, 71, 127
1, 360696, Note_on_c, 1, 43, 127
1, 360891, Note_off_c, 1, 71, 0
1, 360891, Note_off_c, 1, 43, 0
1, 360905, Note_on_c, 1, 67, 127
1, 360905, Note_on_c, 1, 52, 127
1, 361100, Note_off_c, 1, 67, 0
1, 361100, Note_off_c, 1, 52, 0
1, 361114, Note_on_c, 1, 76, 127
1, 361114, Note_on_c, 1, 55, 127
1, 361309, Note_off_c, 1, 76, 0
1, 361309, Note_off_c, 1, 55, 0
1, 361323, Note_on_c, 1, 69, 127
1, 361323, Note_on_c, 1, 54, 127
1, 361518, Note_off_c, 1, 69, 0
1, 361518, Note_off_c, 1, 54, 0
1, 361532, Note_on_c, 1, 66, 127
1, 361532, Note_on_c, 1, 59, 127
1, 361727, Note_off_c, 1, 66, 0
1, 361727, Note_off_c, 1, 59, 0
1, 361741, Note_on_c, 1, 75, 127
1, 361741, Note_on_c, 1, 47, 127
1, 361936, Note_off_c, 1, 75, 0
1, 361936, Note_off_c, 1, 47, 0
1, 361950, Note_on_c, 1, 67, 127
1, 361950, Note_on_c, 1, 52, 127
1, 362145, Note_off_c, 1, 67, 0
1, 362145, Note_off_c, 1, 52, 0
1, 362159, Note_on_c, 1, 64, 127
1, 362159, Note_on_c, 1, 55, 127
1, 362354, Note_off_c, 1, 64, 0
1, 362354, Note_off_c, 1, 55, 0
1, 362368, Note_on_c, 1, 72, 127
1, 362368, Note_on_c, 1, 52, 127
1, 362563, Note_off_c, 1, 72, 0
1, 362563, Note_off_c, 1, 52, 0
1, 362577, Note_on_c, 1, 69, 127
1, 362577, Note_on_c, 1, 54, 127
1, 362772, Note_off_c, 1, 69, 0
1, 362772, Note_off_c, 1, 54, 0
1, 362786, Note_on_c, 1, 66, 127
1, 362786, Note_on_c, 1, 51, 127
1, 362981, Note_off_c, 1, 66, 0
1, 362981, Note_off_c, 1, 51, 0
1, 362995, Note_on_c, 1, 71, 127
1, 362995, Note_on_c, 1, 47, 127
1, 363190, Note_off_c, 1, 71, 0
1, 363190, Note_off_c, 1, 47, 0
1, 363204, Note_on_c, 1, 67, 127
1, 363204, Note_on_c, 1, 52, 127
1, 363399, Note_off_c, 1, 67, 0
1, 363399, Note_off_c, 1, 52, 0
1, 363413, Note_on_c, 1, 64, 127
1, 363413, Note_on_c, 1, 49, 127
1, 363608, Note_off_c, 1, 64, 0
1, 363608, Note_off_c, 1, 49, 0
1, 363622, Note_on_c, 1, 69, 127
1, 363622, Note_on_c, 1, 45, 127
1, 363817, Note_off_c, 1, 69, 0
1, 363817, Note_off_c, 1, 45, 0
1, 363831, Note_on_c, 1, 66, 127
1, 363831, Note_on_c, 1, 50, 127
1, 364026, Note_off_c, 1, 66, 0
1, 364026, Note_off_c, 1, 50, 0
1, 364040, Note_on_c, 1, 62, 127
1, 364040, Note_on_c, 1, 54, 127
1, 364235, Note_off_c, 1, 62, 0
1, 364235, Note_off_c, 1, 54, 0
1, 364249, Note_on_c, 1, 69, 127
1, 364249, Note_on_c, 1, 49, 127
1, 364444, Note_off_c, 1, 69, 0
1, 364444, Note_off_c, 1, 49, 0
1, 364458, Note_on_c, 1, 66, 127
1, 364458, Note_on_c, 1, 50, 127
1, 364653, Note_off_c, 1, 66, 0
1, 364653, Note_off_c, 1, 50, 0
1, 364667, Note_on_c, 1, 69, 127
1, 364667, Note_on_c, 1, 54, 127
1, 364862, Note_off_c, 1, 69, 0
1, 364862, Note_off_c, 1, 54, 0
1, 364876, Note_on_c, 1, 57, 127
1, 364876, Note_on_c, 1, 66, 127
1, 365071, Note_off_c, 1, 57, 0
1, 365073, Note_off_c, 1, 66, 0
1, 365085, Note_on_c, 1, 62, 127
1, 365280, Note_off_c, 1, 62, 0
1, 365294, Note_on_c, 1, 69, 127
1, 365294, Note_on_c, 1, 54, 127
1, 365489, Note_off_c, 1, 69, 0
1, 365489, Note_off_c, 1, 54, 0
1, 365503, Note_on_c, 1, 57, 127
1, 365503, Note_on_c, 1, 66, 127
1, 365698, Note_off_c, 1, 57, 0
1, 365700, Note_off_c, 1, 66, 0
1, 365712, Note_on_c, 1, 50, 127
1, 365907, Note_off_c, 1, 50, 0
1, 365921, Note_on_c, 1, 66, 127
1, 365921, Note_on_c, 1, 45, 127
1, 366116, Note_off_c, 1, 66, 0
1, 366116, Note_off_c, 1, 45, 0
1, 366130, Note_on_c, 1, 54, 127
1, 366130, Note_on_c, 1, 62, 127
1, 366325, Note_off_c, 1, 54, 0
1, 366327, Note_off_c, 1, 62, 0
1, 366339, Note_on_c, 1, 50, 127
1, 366534, Note_off_c, 1, 50, 0
1, 366548, Note_on_c, 1, 66, 127
1, 366548, Note_on_c, 1, 45, 127
1, 366743, Note_off_c, 1, 66, 0
1, 366743, Note_off_c, 1, 45, 0
1, 366757, Note_on_c, 1, 62, 127
1, 366757, Note_on_c, 1, 54, 127
1, 366952, Note_off_c, 1, 62, 0
1, 366952, Note_off_c, 1, 54, 0
1, 366966, Note_on_c, 1, 60, 127
1, 366966, Note_on_c, 1, 52, 127
1, 367161, Note_off_c, 1, 60, 0
1, 367161, Note_off_c, 1, 52, 0
1, 367175, Note_on_c, 1, 57, 127
1, 367175, Note_on_c, 1, 54, 127
1, 367370, Note_off_c, 1, 57, 0
1, 367370, Note_off_c, 1, 54, 0
1, 367384, Note_on_c, 1, 62, 127
1, 367384, Note_on_c, 1, 50, 127
1, 367579, Note_off_c, 1, 62, 0
1, 367579, Note_off_c, 1, 50, 0
1, 367593, Note_on_c, 1, 74, 127
1, 367593, Note_on_c, 1, 59, 127
1, 367593, Note_on_c, 1, 55, 127
1, 367788, Note_off_c, 1, 74, 0
1, 367788, Note_off_c, 1, 59, 0
1, 367802, Note_on_c, 1, 62, 127
1, 367998, Note_off_c, 1, 55, 0
1, 368000, Note_off_c, 1, 62, 0
1, 368012, Note_on_c, 1, 59, 127
1, 368012, Note_on_c, 1, 74, 127
1, 368207, Note_off_c, 1, 59, 0
1, 368207, Note_off_c, 1, 74, 0
1, 368221, Note_on_c, 1, 74, 127
1, 368221, Note_on_c, 1, 54, 127
1, 368416, Note_off_c, 1, 74, 0
1, 368430, Note_on_c, 1, 57, 127
1, 368625, Note_off_c, 1, 54, 0
1, 368625, Note_off_c, 1, 57, 0
1, 368639, Note_on_c, 1, 74, 127
1, 368639, Note_on_c, 1, 50, 127
1, 368639, Note_on_c, 1, 54, 127
1, 368834, Note_off_c, 1, 74, 0
1, 368834, Note_off_c, 1, 50, 0
1, 368834, Note_off_c, 1, 54, 0
1, 368848, Note_on_c, 1, 69, 127
1, 368848, Note_on_c, 1, 78, 127
1, 368848, Note_on_c, 1, 62, 127
1, 369043, Note_off_c, 1, 69, 0
1, 369043, Note_off_c, 1, 78, 0
1, 369057, Note_on_c, 1, 81, 127
1, 369057, Note_on_c, 1, 66, 127
1, 369252, Note_off_c, 1, 62, 0
1, 369252, Note_off_c, 1, 81, 0
1, 369266, Note_on_c, 1, 74, 127
1, 369461, Note_off_c, 1, 66, 0
1, 369461, Note_off_c, 1, 74, 0
1, 369475, Note_on_c, 1, 78, 127
1, 369475, Note_on_c, 1, 69, 127
1, 369475, Note_on_c, 1, 62, 127
1, 369670, Note_off_c, 1, 78, 0
1, 369670, Note_off_c, 1, 69, 0
1, 369684, Note_on_c, 1, 81, 127
1, 369684, Note_on_c, 1, 66, 127
1, 369879, Note_off_c, 1, 62, 0
1, 369879, Note_off_c, 1, 81, 0
1, 369893, Note_on_c, 1, 74, 127
1, 370088, Note_off_c, 1, 66, 0
1, 370088, Note_off_c, 1, 74, 0
1, 370102, Note_on_c, 1, 78, 127
1, 370102, Note_on_c, 1, 69, 127
1, 370102, Note_on_c, 1, 63, 127
1, 370297, Note_off_c, 1, 78, 0
1, 370297, Note_off_c, 1, 69, 0
1, 370311, Note_on_c, 1, 83, 127
1, 370311, Note_on_c, 1, 66, 127
1, 370405, Note_off_c, 1, 83, 0
1, 370416, Note_on_c, 1, 81, 127
1, 370507, Note_off_c, 1, 63, 0
1, 370510, Note_off_c, 1, 81, 0
1, 370521, Note_on_c, 1, 79, 127
1, 370615, Note_off_c, 1, 79, 0
1, 370717, Note_off_c, 1, 66, 0
1, 370731, Note_on_c, 1, 79, 127
1, 370731, Note_on_c, 1, 71, 127
1, 370731, Note_on_c, 1, 64, 127
1, 370926, Note_off_c, 1, 79, 0
1, 370926, Note_off_c, 1, 71, 0
1, 370940, Note_on_c, 1, 83, 127
1, 370940, Note_on_c, 1, 67, 127
1, 371135, Note_off_c, 1, 64, 0
1, 371135, Note_off_c, 1, 83, 0
1, 371149, Note_on_c, 1, 76, 127
1, 371344, Note_off_c, 1, 67, 0
1, 371344, Note_off_c, 1, 76, 0
1, 371358, Note_on_c, 1, 71, 127
1, 371358, Note_on_c, 1, 79, 127
1, 371358, Note_on_c, 1, 64, 127
1, 371553, Note_off_c, 1, 71, 0
1, 371553, Note_off_c, 1, 79, 0
1, 371567, Note_on_c, 1, 83, 127
1, 371567, Note_on_c, 1, 67, 127
1, 371762, Note_off_c, 1, 64, 0
1, 371762, Note_off_c, 1, 83, 0
1, 371776, Note_on_c, 1, 76, 127
1, 371971, Note_off_c, 1, 67, 0
1, 371971, Note_off_c, 1, 76, 0
1, 371985, Note_on_c, 1, 79, 127
1, 371985, Note_on_c, 1, 64, 127
1, 371985, Note_on_c, 1, 61, 127
1, 372180, Note_off_c, 1, 79, 0
1, 372194, Note_on_c, 1, 81, 127
1, 372288, Note_off_c, 1, 81, 0
1, 372390, Note_off_c, 1, 64, 0
1, 372390, Note_off_c, 1, 61, 0
1, 372404, Note_on_c, 1, 78, 127
1, 372498, Note_off_c, 1, 78, 0
1, 372509, Note_on_c, 1, 76, 127
1, 372603, Note_off_c, 1, 76, 0
1, 372614, Note_on_c, 1, 69, 127
1, 372614, Note_on_c, 1, 78, 127
1, 372614, Note_on_c, 1, 62, 127
1, 372809, Note_off_c, 1, 69, 0
1, 372809, Note_off_c, 1, 78, 0
1, 372823, Note_on_c, 1, 81, 127
1, 372823, Note_on_c, 1, 66, 127
1, 373018, Note_off_c, 1, 62, 0
1, 373018, Note_off_c, 1, 81, 0
1, 373032, Note_on_c, 1, 74, 127
1, 373227, Note_off_c, 1, 66, 0
1, 373227, Note_off_c, 1, 74, 0
1, 373241, Note_on_c, 1, 76, 127
1, 373241, Note_on_c, 1, 67, 127
1, 373241, Note_on_c, 1, 55, 127
1, 373436, Note_off_c, 1, 76, 0
1, 373436, Note_off_c, 1, 67, 0
1, 373450, Note_on_c, 1, 79, 127
1, 373450, Note_on_c, 1, 64, 127
1, 373645, Note_off_c, 1, 79, 0
1, 373648, Note_off_c, 1, 55, 0
1, 373659, Note_on_c, 1, 73, 127
1, 373659, Note_on_c, 1, 57, 127
1, 373854, Note_off_c, 1, 64, 0
1, 373854, Note_off_c, 1, 73, 0
1, 373854, Note_off_c, 1, 57, 0
1, 373868, Note_on_c, 1, 74, 127
1, 373868, Note_on_c, 1, 66, 127
1, 373868, Note_on_c, 1, 54, 127
1, 374063, Note_off_c, 1, 74, 0
1, 374063, Note_off_c, 1, 66, 0
1, 374077, Note_on_c, 1, 78, 127
1, 374077, Note_on_c, 1, 62, 127
1, 374272, Note_off_c, 1, 78, 0
1, 374275, Note_off_c, 1, 54, 0
1, 374286, Note_on_c, 1, 71, 127
1, 374286, Note_on_c, 1, 55, 127
1, 374481, Note_off_c, 1, 62, 0
1, 374481, Note_off_c, 1, 71, 0
1, 374481, Note_off_c, 1, 55, 0
1, 374495, Note_on_c, 1, 64, 127
1, 374495, Note_on_c, 1, 73, 127
1, 374495, Note_on_c, 1, 52, 127
1, 374690, Note_off_c, 1, 64, 0
1, 374690, Note_off_c, 1, 73, 0
1, 374704, Note_on_c, 1, 76, 127
1, 374704, Note_on_c, 1, 61, 127
1, 374899, Note_off_c, 1, 76, 0
1, 374902, Note_off_c, 1, 52, 0
1, 374913, Note_on_c, 1, 69, 127
1, 374913, Note_on_c, 1, 54, 127
1, 375108, Note_off_c, 1, 61, 0
1, 375108, Note_off_c, 1, 69, 0
1, 375108, Note_off_c, 1, 54, 0
1, 375122, Note_on_c, 1, 71, 127
1, 375122, Note_on_c, 1, 62, 127
1, 375122, Note_on_c, 1, 50, 127
1, 375317, Note_off_c, 1, 71, 0
1, 375317, Note_off_c, 1, 62, 0
1, 375331, Note_on_c, 1, 74, 127
1, 375331, Note_on_c, 1, 59, 127
1, 375526, Note_off_c, 1, 74, 0
1, 375529, Note_off_c, 1, 50, 0
1, 375540, Note_on_c, 1, 68, 127
1, 375540, Note_on_c, 1, 52, 127
1, 375735, Note_off_c, 1, 59, 0
1, 375735, Note_off_c, 1, 68, 0
1, 375735, Note_off_c, 1, 52, 0
1, 375749, Note_on_c, 1, 61, 127
1, 375749, Note_on_c, 1, 69, 127
1, 375749, Note_on_c, 1, 57, 127
1, 375944, Note_off_c, 1, 61, 0
1, 375958, Note_on_c, 1, 64, 127
1, 376153, Note_off_c, 1, 69, 0
1, 376153, Note_off_c, 1, 57, 0
1, 376153, Note_off_c, 1, 64, 0
1, 376167, Note_on_c, 1, 73, 127
1, 376167, Note_on_c, 1, 57, 127
1, 376362, Note_off_c, 1, 73, 0
1, 376362, Note_off_c, 1, 57, 0
1, 376376, Note_on_c, 1, 62, 127
1, 376376, Note_on_c, 1, 69, 127
1, 376376, Note_on_c, 1, 54, 127
1, 376571, Note_off_c, 1, 62, 0
1, 376585, Note_on_c, 1, 66, 127
1, 376780, Note_off_c, 1, 69, 0
1, 376780, Note_off_c, 1, 54, 0
1, 376780, Note_off_c, 1, 66, 0
1, 376794, Note_on_c, 1, 57, 127
1, 376794, Note_on_c, 1, 74, 127
1, 376989, Note_off_c, 1, 57, 0
1, 376989, Note_off_c, 1, 74, 0
1, 377003, Note_on_c, 1, 64, 127
1, 377003, Note_on_c, 1, 71, 127
1, 377003, Note_on_c, 1, 55, 127
1, 377198, Note_off_c, 1, 64, 0
1, 377212, Note_on_c, 1, 67, 127
1, 377407, Note_off_c, 1, 71, 0
1, 377407, Note_off_c, 1, 55, 0
1, 377407, Note_off_c, 1, 67, 0
1, 377421, Note_on_c, 1, 59, 127
1, 377421, Note_on_c, 1, 76, 127
1, 377616, Note_off_c, 1, 59, 0
1, 377616, Note_off_c, 1, 76, 0
1, 377630, Note_on_c, 1, 66, 127
1, 377630, Note_on_c, 1, 73, 127
1, 377630, Note_on_c, 1, 57, 127
1, 377825, Note_off_c, 1, 66, 0
1, 377839, Note_on_c, 1, 69, 127
1, 378034, Note_off_c, 1, 73, 0
1, 378034, Note_off_c, 1, 57, 0
1, 378034, Note_off_c, 1, 69, 0
1, 378048, Note_on_c, 1, 61, 127
1, 378048, Note_on_c, 1, 78, 127
1, 378243, Note_off_c, 1, 61, 0
1, 378243, Note_off_c, 1, 78, 0
1, 378257, Note_on_c, 1, 66, 127
1, 378257, Note_on_c, 1, 74, 127
1, 378257, Note_on_c, 1, 59, 127
1, 378452, Note_off_c, 1, 66, 0
1, 378452, Note_off_c, 1, 74, 0
1, 378466, Note_on_c, 1, 71, 127
1, 378466, Note_on_c, 1, 62, 127
1, 378661, Note_off_c, 1, 71, 0
1, 378661, Note_off_c, 1, 62, 0
1, 378664, Note_off_c, 1, 59, 0
1, 378675, Note_on_c, 1, 64, 127
1, 378675, Note_on_c, 1, 61, 127
1, 378870, Note_off_c, 1, 64, 0
1, 378870, Note_off_c, 1, 61, 0
1, 378884, Note_on_c, 1, 66, 127
1, 378884, Note_on_c, 1, 62, 127
1, 379079, Note_off_c, 1, 66, 0
1, 379079, Note_off_c, 1, 62, 0
1, 379093, Note_on_c, 1, 64, 127
1, 379093, Note_on_c, 1, 61, 127
1, 379288, Note_off_c, 1, 64, 0
1, 379288, Note_off_c, 1, 61, 0
1, 379302, Note_on_c, 1, 66, 127
1, 379302, Note_on_c, 1, 63, 127
1, 379497, Note_off_c, 1, 66, 0
1, 379497, Note_off_c, 1, 63, 0
1, 379511, Note_on_c, 1, 83, 127
1, 379511, Note_on_c, 1, 67, 127
1, 379511, Note_on_c, 1, 64, 127
1, 379706, Note_off_c, 1, 83, 0
1, 379706, Note_off_c, 1, 67, 0
1, 379720, Note_on_c, 1, 79, 127
1, 379720, Note_on_c, 1, 71, 127
1, 379915, Note_off_c, 1, 64, 0
1, 379915, Note_off_c, 1, 79, 0
1, 379915, Note_off_c, 1, 71, 0
1, 379929, Note_on_c, 1, 64, 127
1, 380124, Note_off_c, 1, 64, 0
1, 380138, Note_on_c, 1, 64, 127
1, 380138, Note_on_c, 1, 61, 127
1, 380333, Note_off_c, 1, 64, 0
1, 380347, Note_on_c, 1, 69, 127
1, 380542, Note_off_c, 1, 61, 0
1, 380542, Note_off_c, 1, 69, 0
1, 380556, Note_on_c, 1, 64, 127
1, 380751, Note_off_c, 1, 64, 0
1, 380765, Note_on_c, 1, 81, 127
1, 380765, Note_on_c, 1, 66, 127
1, 380765, Note_on_c, 1, 62, 127
1, 380960, Note_off_c, 1, 81, 0
1, 380960, Note_off_c, 1, 66, 0
1, 380974, Note_on_c, 1, 69, 127
1, 380974, Note_on_c, 1, 78, 127
1, 381169, Note_off_c, 1, 62, 0
1, 381169, Note_off_c, 1, 69, 0
1, 381169, Note_off_c, 1, 78, 0
1, 381183, Note_on_c, 1, 66, 127
1, 381378, Note_off_c, 1, 66, 0
1, 381392, Note_on_c, 1, 62, 127
1, 381392, Note_on_c, 1, 59, 127
1, 381587, Note_off_c, 1, 62, 0
1, 381601, Note_on_c, 1, 67, 127
1, 381796, Note_off_c, 1, 59, 0
1, 381796, Note_off_c, 1, 67, 0
1, 381810, Note_on_c, 1, 62, 127
1, 382005, Note_off_c, 1, 62, 0
1, 382019, Note_on_c, 1, 64, 127
1, 382019, Note_on_c, 1, 79, 127
1, 382019, Note_on_c, 1, 61, 127
1, 382214, Note_off_c, 1, 64, 0
1, 382214, Note_off_c, 1, 79, 0
1, 382228, Note_on_c, 1, 76, 127
1, 382228, Note_on_c, 1, 67, 127
1, 382423, Note_off_c, 1, 61, 0
1, 382423, Note_off_c, 1, 76, 0
1, 382423, Note_off_c, 1, 67, 0
1, 382437, Note_on_c, 1, 64, 127
1, 382632, Note_off_c, 1, 64, 0
1, 382646, Note_on_c, 1, 61, 127
1, 382646, Note_on_c, 1, 58, 127
1, 382841, Note_off_c, 1, 61, 0
1, 382855, Note_on_c, 1, 66, 127
1, 383050, Note_off_c, 1, 66, 0
1, 383262, Note_off_c, 1, 58, 0
1, 383273, Note_on_c, 1, 78, 127
1, 383273, Note_on_c, 1, 62, 127
1, 383273, Note_on_c, 1, 59, 127
1, 383468, Note_off_c, 1, 78, 0
1, 383468, Note_off_c, 1, 62, 0
1, 383468, Note_off_c, 1, 59, 0
1, 383482, Note_on_c, 1, 74, 127
1, 383482, Note_on_c, 1, 61, 127
1, 383677, Note_off_c, 1, 74, 0
1, 383677, Note_off_c, 1, 61, 0
1, 383691, Note_on_c, 1, 83, 127
1, 383691, Note_on_c, 1, 63, 127
1, 383886, Note_off_c, 1, 83, 0
1, 383886, Note_off_c, 1, 63, 0
1, 383900, Note_on_c, 1, 79, 127
1, 383900, Note_on_c, 1, 71, 127
1, 383900, Note_on_c, 1, 64, 127
1, 384095, Note_off_c, 1, 79, 0
1, 384095, Note_off_c, 1, 71, 0
1, 384109, Note_on_c, 1, 67, 127
1, 384109, Note_on_c, 1, 76, 127
1, 384304, Note_off_c, 1, 67, 0
1, 384304, Note_off_c, 1, 76, 0
1, 384307, Note_off_c, 1, 64, 0
1, 384318, Note_on_c, 1, 78, 127
1, 384318, Note_on_c, 1, 63, 127
1, 384513, Note_off_c, 1, 78, 0
1, 384513, Note_off_c, 1, 63, 0
1, 384527, Note_on_c, 1, 79, 127
1, 384527, Note_on_c, 1, 64, 127
1, 384722, Note_off_c, 1, 79, 0
1, 384722, Note_off_c, 1, 64, 0
1, 384736, Note_on_c, 1, 76, 127
1, 384736, Note_on_c, 1, 62, 127
1, 384931, Note_off_c, 1, 76, 0
1, 384931, Note_off_c, 1, 62, 0
1, 384945, Note_on_c, 1, 81, 127
1, 384945, Note_on_c, 1, 61, 127
1, 385140, Note_off_c, 1, 81, 0
1, 385140, Note_off_c, 1, 61, 0
1, 385154, Note_on_c, 1, 69, 127
1, 385154, Note_on_c, 1, 78, 127
1, 385154, Note_on_c, 1, 62, 127
1, 385349, Note_off_c, 1, 69, 0
1, 385349, Note_off_c, 1, 78, 0
1, 385363, Note_on_c, 1, 74, 127
1, 385363, Note_on_c, 1, 66, 127
1, 385558, Note_off_c, 1, 74, 0
1, 385558, Note_off_c, 1, 66, 0
1, 385561, Note_off_c, 1, 62, 0
1, 385572, Note_on_c, 1, 76, 127
1, 385572, Note_on_c, 1, 61, 127
1, 385767, Note_off_c, 1, 76, 0
1, 385767, Note_off_c, 1, 61, 0
1, 385781, Note_on_c, 1, 78, 127
1, 385781, Note_on_c, 1, 69, 127
1, 385781, Note_on_c, 1, 62, 127
1, 385976, Note_off_c, 1, 78, 0
1, 385976, Note_off_c, 1, 69, 0
1, 385990, Note_on_c, 1, 74, 127
1, 385990, Note_on_c, 1, 66, 127
1, 386185, Note_off_c, 1, 74, 0
1, 386185, Note_off_c, 1, 66, 0
1, 386188, Note_off_c, 1, 62, 0
1, 386199, Note_on_c, 1, 76, 127
1, 386199, Note_on_c, 1, 55, 127
1, 386199, Note_on_c, 1, 71, 127
1, 386394, Note_off_c, 1, 76, 0
1, 386394, Note_off_c, 1, 55, 0
1, 386408, Note_on_c, 1, 73, 127
1, 386408, Note_on_c, 1, 57, 127
1, 386613, Note_off_c, 1, 71, 0
1, 386628, Note_on_c, 1, 69, 127
1, 386833, Note_off_c, 1, 73, 0
1, 386848, Note_on_c, 1, 78, 127
1, 387053, Note_off_c, 1, 78, 0
1, 387056, Note_off_c, 1, 57, 0
1, 387275, Note_off_c, 1, 69, 0
1, 387286, Note_on_c, 1, 67, 127
1, 387933, Note_off_c, 1, 67, 0
1, 387944, Note_on_c, 1, 66, 127
1, 388163, Note_on_c, 1, 74, 127
1, 388368, Note_off_c, 1, 74, 0
1, 388591, Note_off_c, 1, 66, 0
1, 388602, Note_on_c, 1, 64, 127
1, 389041, Note_on_c, 1, 54, 127
1, 389249, Note_off_c, 1, 64, 0
1, 389260, Note_on_c, 1, 62, 127
1, 389468, Note_off_c, 1, 54, 0
1, 390127, Note_off_c, 1, 62, 0
1, 390138, Note_on_c, 1, 67, 127
1, 390138, Note_on_c, 1, 61, 127
1, 390138, Note_on_c, 1, 45, 127
1, 390343, Note_off_c, 1, 67, 0
1, 390343, Note_off_c, 1, 61, 0
1, 390343, Note_off_c, 1, 45, 0
1, 390358, Note_on_c, 1, 50, 127
1, 390358, Note_on_c, 1, 62, 127
1, 390358, Note_on_c, 1, 66, 127
1, 390573, Note_off_c, 1, 50, 0
1, 390807, Note_off_c, 1, 62, 0
1, 390807, Note_off_c, 1, 66, 0
1, 390819, Note_on_c, 1, 64, 127
1, 390819, Note_on_c, 1, 67, 127
1, 390819, Note_on_c, 1, 50, 127
1, 391034, Note_off_c, 1, 64, 0
1, 391034, Note_off_c, 1, 67, 0
1, 391034, Note_off_c, 1, 50, 0
1, 391050, Note_on_c, 1, 69, 127
1, 391050, Note_on_c, 1, 66, 127
1, 391050, Note_on_c, 1, 50, 127
1, 391265, Note_off_c, 1, 69, 0
1, 391265, Note_off_c, 1, 66, 0
1, 391265, Note_off_c, 1, 50, 0
1, 391281, Note_on_c, 1, 69, 127
1, 391281, Note_on_c, 1, 50, 127
1, 391496, Note_off_c, 1, 69, 0
1, 391496, Note_off_c, 1, 50, 0
1, 391512, Note_on_c, 1, 62, 127
1, 391512, Note_on_c, 1, 50, 127
1, 391727, Note_off_c, 1, 62, 0
1, 391727, Note_off_c, 1, 50, 0
1, 391743, Note_on_c, 1, 69, 127
1, 391743, Note_on_c, 1, 54, 127
1, 391743, Note_on_c, 1, 74, 127
1, 391743, Note_on_c, 1, 50, 127
1, 391958, Note_off_c, 1, 69, 0
1, 391958, Note_off_c, 1, 54, 0
1, 391974, Note_on_c, 1, 57, 127
1, 391974, Note_on_c, 1, 66, 127
1, 392189, Note_off_c, 1, 74, 0
1, 392189, Note_off_c, 1, 50, 0
1, 392189, Note_off_c, 1, 57, 0
1, 392424, Note_off_c, 1, 66, 0
1, 392436, Note_on_c, 1, 69, 127
1, 392436, Note_on_c, 1, 54, 127
1, 392436, Note_on_c, 1, 74, 127
1, 392436, Note_on_c, 1, 50, 127
1, 392651, Note_off_c, 1, 69, 0
1, 392651, Note_off_c, 1, 54, 0
1, 392667, Note_on_c, 1, 57, 127
1, 392667, Note_on_c, 1, 66, 127
1, 392882, Note_off_c, 1, 74, 0
1, 392882, Note_off_c, 1, 50, 0
1, 392882, Note_off_c, 1, 57, 0
1, 393117, Note_off_c, 1, 66, 0
1, 393129, Note_on_c, 1, 83, 127
1, 393129, Note_on_c, 1, 55, 127
1, 393129, Note_on_c, 1, 74, 127
1, 393129, Note_on_c, 1, 50, 127
1, 393344, Note_off_c, 1, 83, 0
1, 393344, Note_off_c, 1, 55, 0
1, 393360, Note_on_c, 1, 59, 127
1, 393360, Note_on_c, 1, 79, 127
1, 393575, Note_off_c, 1, 74, 0
1, 393575, Note_off_c, 1, 50, 0
1, 393575, Note_off_c, 1, 59, 0
1, 393810, Note_off_c, 1, 79, 0
1, 393822, Note_on_c, 1, 83, 127
1, 393822, Note_on_c, 1, 55, 127
1, 393822, Note_on_c, 1, 74, 127
1, 393822, Note_on_c, 1, 50, 127
1, 394037, Note_off_c, 1, 83, 0
1, 394037, Note_off_c, 1, 55, 0
1, 394053, Note_on_c, 1, 59, 127
1, 394053, Note_on_c, 1, 79, 127
1, 394268, Note_off_c, 1, 74, 0
1, 394268, Note_off_c, 1, 50, 0
1, 394268, Note_off_c, 1, 59, 0
1, 394503, Note_off_c, 1, 79, 0
1, 394515, Note_on_c, 1, 81, 127
1, 394515, Note_on_c, 1, 54, 127
1, 394515, Note_on_c, 1, 74, 127
1, 394515, Note_on_c, 1, 50, 127
1, 394730, Note_off_c, 1, 81, 0
1, 394730, Note_off_c, 1, 54, 0
1, 394746, Note_on_c, 1, 78, 127
1, 394746, Note_on_c, 1, 57, 127
1, 394961, Note_off_c, 1, 74, 0
1, 394961, Note_off_c, 1, 50, 0
1, 394961, Note_off_c, 1, 78, 0
1, 394963, Note_off_c, 1, 57, 0
1, 394976, Note_on_c, 1, 81, 127
1, 395326, Note_off_c, 1, 81, 0
1, 395351, Note_on_c, 1, 54, 127
1, 395351, Note_on_c, 1, 50, 127
1, 395351, Note_on_c, 1, 62, 127
1, 395351, Note_on_c, 1, 57, 127
1, 395351, Note_on_c, 1, 69, 127
1, 395351, Note_on_c, 1, 78, 127
1, 395351, Note_on_c, 1, 74, 127
1, 396029, Note_off_c, 1, 54, 0
1, 396029, Note_off_c, 1, 50, 0
1, 396029, Note_off_c, 1, 62, 0
1, 396029, Note_off_c, 1, 57, 0
1, 396029, Note_off_c, 1, 69, 0
1, 396029, Note_off_c, 1, 78, 0
1, 396029, Note_off_c, 1, 74, 0
1, 396029, End_track
0, 0, End_of_file