0, 0, Header, 1, 1, 480
1, 0, Start_track
1, 0, Title_t, "Test"
1, 0, Tempo, 500000
1, 0, Instrument_name_t, "Church Organ"
1, 192, Note_on_c, 1, 67, 127
1, 380, Note_off_c, 1, 67, 0
1, 384, Note_on_c, 1, 65, 127
1, 572, Note_off_c, 1, 65, 0
1, 576, Note_on_c, 1, 67, 127
1, 764, Note_off_c, 1, 67, 0
1, 768, Note_on_c, 1, 68, 127
1, 896, Note_off_c, 1, 68, 0
1, 960, Note_on_c, 1, 69, 127
1, 1148, Note_off_c, 1, 69, 0
1, 1152, Note_on_c, 1, 67, 127
1, 1340, Note_off_c, 1, 67, 0
1, 1344, Note_on_c, 1, 69, 127
1, 1532, Note_off_c, 1, 69, 0
1, 1536, Note_on_c, 1, 70, 127
1, 1664, Note_off_c, 1, 70, 0
1, 1728, Note_on_c, 1, 71, 127
1, 1916, Note_off_c, 1, 71, 0
1, 1920, Note_on_c, 1, 69, 127
1, 2108, Note_off_c, 1, 69, 0
1, 2112, Note_on_c, 1, 71, 127
1, 2300, Note_off_c, 1, 71, 0
1, 2304, Note_on_c, 1, 72, 127
1, 2432, Note_off_c, 1, 72, 0
1, 2496, Note_on_c, 1, 67, 127
1, 2624, Note_off_c, 1, 67, 0
1, 2688, Note_on_c, 1, 74, 127
1, 2816, Note_off_c, 1, 74, 0
1, 2880, Note_on_c, 1, 65, 127
1, 3008, Note_off_c, 1, 65, 0
1, 3072, Note_on_c, 1, 63, 127
1, 3264, Note_on_c, 1, 62, 127
1, 3328, Note_off_c, 1, 63, 0
1, 3452, Note_off_c, 1, 62, 0
1, 3456, Note_on_c, 1, 68, 127
1, 3456, Note_on_c, 1, 60, 127
1, 3644, Note_off_c, 1, 60, 0
1, 3648, Note_on_c, 1, 62, 127
1, 3836, Note_off_c, 1, 62, 0
1, 3840, Note_on_c, 1, 63, 127
1, 3968, Note_off_c, 1, 63, 0
1, 4028, Note_off_c, 1, 68, 0
1, 4032, Note_on_c, 1, 67, 127
1, 4032, Note_on_c, 1, 64, 127
1, 4220, Note_off_c, 1, 67, 0
1, 4220, Note_off_c, 1, 64, 0
1, 4224, Note_on_c, 1, 70, 127
1, 4224, Note_on_c, 1, 62, 127
1, 4412, Note_off_c, 1, 62, 0
1, 4416, Note_on_c, 1, 64, 127
1, 4604, Note_off_c, 1, 64, 0
1, 4608, Note_on_c, 1, 65, 127
1, 4736, Note_off_c, 1, 65, 0
1, 4796, Note_off_c, 1, 70, 0
1, 4800, Note_on_c, 1, 69, 127
1, 4800, Note_on_c, 1, 66, 127
1, 4928, Note_off_c, 1, 69, 0
1, 4988, Note_off_c, 1, 66, 0
1, 4992, Note_on_c, 1, 72, 127
1, 4992, Note_on_c, 1, 64, 127
1, 5180, Note_off_c, 1, 64, 0
1, 5184, Note_on_c, 1, 66, 127
1, 5372, Note_off_c, 1, 72, 0
1, 5372, Note_off_c, 1, 66, 0
1, 5376, Note_on_c, 1, 67, 127
1, 5376, Note_on_c, 1, 70, 127
1, 5504, Note_off_c, 1, 67, 0
1, 5568, Note_on_c, 1, 62, 127
1, 5696, Note_off_c, 1, 62, 0
1, 5756, Note_off_c, 1, 70, 0
1, 5760, Note_on_c, 1, 69, 127
1, 5760, Note_on_c, 1, 65, 127
1, 5888, Note_off_c, 1, 69, 0
1, 5952, Note_on_c, 1, 60, 127
1, 6080, Note_off_c, 1, 60, 0
1, 6140, Note_off_c, 1, 65, 0
1, 6144, Note_on_c, 1, 58, 127
1, 6144, Note_on_c, 1, 67, 127
1, 6336, Note_on_c, 1, 55, 127
1, 6524, Note_off_c, 1, 58, 0
1, 6524, Note_off_c, 1, 67, 0
1, 6524, Note_off_c, 1, 55, 0
1, 6528, Note_on_c, 1, 70, 127
1, 6528, Note_on_c, 1, 61, 127
1, 6528, Note_on_c, 1, 53, 127
1, 6716, Note_off_c, 1, 53, 0
1, 6720, Note_on_c, 1, 55, 127
1, 6908, Note_off_c, 1, 70, 0
1, 6908, Note_off_c, 1, 55, 0
1, 6912, Note_on_c, 1, 63, 127
1, 6912, Note_on_c, 1, 56, 127
1, 7040, Note_off_c, 1, 56, 0
1, 7100, Note_off_c, 1, 61, 0
1, 7104, Note_on_c, 1, 60, 127
1, 7104, Note_on_c, 1, 57, 127
1, 7292, Note_off_c, 1, 63, 0
1, 7292, Note_off_c, 1, 60, 0
1, 7292, Note_off_c, 1, 57, 0
1, 7296, Note_on_c, 1, 72, 127
1, 7296, Note_on_c, 1, 63, 127
1, 7296, Note_on_c, 1, 55, 127
1, 7484, Note_off_c, 1, 55, 0
1, 7488, Note_on_c, 1, 57, 127
1, 7676, Note_off_c, 1, 72, 0
1, 7676, Note_off_c, 1, 57, 0
1, 7680, Note_on_c, 1, 65, 127
1, 7680, Note_on_c, 1, 58, 127
1, 7808, Note_off_c, 1, 58, 0
1, 7868, Note_off_c, 1, 63, 0
1, 7872, Note_on_c, 1, 62, 127
1, 7872, Note_on_c, 1, 59, 127
1, 8060, Note_off_c, 1, 65, 0
1, 8060, Note_off_c, 1, 62, 0
1, 8060, Note_off_c, 1, 59, 0
1, 8064, Note_on_c, 1, 65, 127
1, 8064, Note_on_c, 1, 74, 127
1, 8064, Note_on_c, 1, 57, 127
1, 8252, Note_off_c, 1, 57, 0
1, 8256, Note_on_c, 1, 59, 127
1, 8444, Note_off_c, 1, 65, 0
1, 8444, Note_off_c, 1, 59, 0
1, 8448, Note_on_c, 1, 63, 127
1, 8448, Note_on_c, 1, 60, 127
1, 8576, Note_off_c, 1, 60, 0
1, 8636, Note_off_c, 1, 74, 0
1, 8640, Note_on_c, 1, 72, 127
1, 8640, Note_on_c, 1, 55, 127
1, 8768, Note_off_c, 1, 55, 0
1, 8828, Note_off_c, 1, 63, 0
1, 8832, Note_on_c, 1, 62, 127
1, 8960, Note_off_c, 1, 62, 0
1, 9020, Note_off_c, 1, 72, 0
1, 9024, Note_on_c, 1, 68, 127
1, 9024, Note_on_c, 1, 71, 127
1, 9024, Note_on_c, 1, 53, 127
1, 9152, Note_off_c, 1, 53, 0
1, 9212, Note_off_c, 1, 68, 0
1, 9212, Note_off_c, 1, 71, 0
1, 9216, Note_on_c, 1, 67, 127
1, 9216, Note_on_c, 1, 72, 127
1, 9216, Note_on_c, 1, 51, 127
1, 9344, Note_off_c, 1, 51, 0
1, 9408, Note_on_c, 1, 60, 127
1, 9596, Note_off_c, 1, 67, 0
1, 9596, Note_off_c, 1, 72, 0
1, 9596, Note_off_c, 1, 60, 0
1, 9600, Note_on_c, 1, 64, 127
1, 9600, Note_on_c, 1, 73, 127
1, 9600, Note_on_c, 1, 58, 127
1, 9788, Note_off_c, 1, 58, 0
1, 9792, Note_on_c, 1, 60, 127
1, 9980, Note_off_c, 1, 64, 0
1, 9980, Note_off_c, 1, 73, 0
1, 9980, Note_off_c, 1, 60, 0
1, 9984, Note_on_c, 1, 65, 127
1, 9984, Note_on_c, 1, 71, 127
1, 9984, Note_on_c, 1, 62, 127
1, 10112, Note_off_c, 1, 62, 0
1, 10176, Note_on_c, 1, 56, 127
1, 10304, Note_off_c, 1, 56, 0
1, 10364, Note_off_c, 1, 65, 0
1, 10364, Note_off_c, 1, 71, 0
1, 10368, Note_on_c, 1, 67, 127
1, 10368, Note_on_c, 1, 70, 127
1, 10368, Note_on_c, 1, 64, 127
1, 10496, Note_off_c, 1, 64, 0
1, 10560, Note_on_c, 1, 55, 127
1, 10688, Note_off_c, 1, 55, 0
1, 10748, Note_off_c, 1, 67, 0
1, 10748, Note_off_c, 1, 70, 0
1, 10752, Note_on_c, 1, 68, 127
1, 10752, Note_on_c, 1, 53, 127
1, 10880, Note_off_c, 1, 53, 0
1, 10944, Note_on_c, 1, 62, 127
1, 11008, Note_off_c, 1, 68, 0
1, 11132, Note_off_c, 1, 62, 0
1, 11136, Note_on_c, 1, 66, 127
1, 11136, Note_on_c, 1, 75, 127
1, 11136, Note_on_c, 1, 60, 127
1, 11324, Note_off_c, 1, 60, 0
1, 11328, Note_on_c, 1, 62, 127
1, 11516, Note_off_c, 1, 66, 0
1, 11516, Note_off_c, 1, 75, 0
1, 11516, Note_off_c, 1, 62, 0
1, 11520, Note_on_c, 1, 67, 127
1, 11520, Note_on_c, 1, 73, 127
1, 11520, Note_on_c, 1, 64, 127
1, 11648, Note_off_c, 1, 64, 0
1, 11712, Note_on_c, 1, 58, 127
1, 11840, Note_off_c, 1, 58, 0
1, 11900, Note_off_c, 1, 67, 0
1, 11900, Note_off_c, 1, 73, 0
1, 11904, Note_on_c, 1, 69, 127
1, 11904, Note_on_c, 1, 72, 127
1, 11904, Note_on_c, 1, 66, 127
1, 12032, Note_off_c, 1, 66, 0
1, 12096, Note_on_c, 1, 57, 127
1, 12224, Note_off_c, 1, 57, 0
1, 12284, Note_off_c, 1, 69, 0
1, 12284, Note_off_c, 1, 72, 0
1, 12288, Note_on_c, 1, 70, 127
1, 12288, Note_on_c, 1, 55, 127
1, 12480, Note_on_c, 1, 74, 127
1, 12668, Note_off_c, 1, 70, 0
1, 12668, Note_off_c, 1, 55, 0
1, 12668, Note_off_c, 1, 74, 0
1, 12672, Note_on_c, 1, 72, 127
1, 12672, Note_on_c, 1, 68, 127
1, 12672, Note_on_c, 1, 59, 127
1, 12860, Note_off_c, 1, 72, 0
1, 12864, Note_on_c, 1, 74, 127
1, 13052, Note_off_c, 1, 59, 0
1, 13052, Note_off_c, 1, 74, 0
1, 13056, Note_on_c, 1, 75, 127
1, 13056, Note_on_c, 1, 60, 127
1, 13184, Note_off_c, 1, 75, 0
1, 13244, Note_off_c, 1, 68, 0
1, 13248, Note_on_c, 1, 67, 127
1, 13248, Note_on_c, 1, 76, 127
1, 13436, Note_off_c, 1, 60, 0
1, 13436, Note_off_c, 1, 67, 0
1, 13436, Note_off_c, 1, 76, 0
1, 13440, Note_on_c, 1, 74, 127
1, 13440, Note_on_c, 1, 70, 127
1, 13440, Note_on_c, 1, 61, 127
1, 13628, Note_off_c, 1, 74, 0
1, 13632, Note_on_c, 1, 76, 127
1, 13820, Note_off_c, 1, 61, 0
1, 13820, Note_off_c, 1, 76, 0
1, 13824, Note_on_c, 1, 77, 127
1, 13824, Note_on_c, 1, 62, 127
1, 13952, Note_off_c, 1, 77, 0
1, 14012, Note_off_c, 1, 70, 0
1, 14016, Note_on_c, 1, 69, 127
1, 14016, Note_on_c, 1, 78, 127
1, 14080, Note_off_c, 1, 62, 0
1, 14144, Note_off_c, 1, 69, 0
1, 14204, Note_off_c, 1, 78, 0
1, 14208, Note_on_c, 1, 76, 127
1, 14208, Note_on_c, 1, 72, 127
1, 14208, Note_on_c, 1, 62, 127
1, 14396, Note_off_c, 1, 76, 0
1, 14400, Note_on_c, 1, 78, 127
1, 14464, Note_off_c, 1, 72, 0
1, 14588, Note_off_c, 1, 62, 0
1, 14588, Note_off_c, 1, 78, 0
1, 14592, Note_on_c, 1, 79, 127
1, 14592, Note_on_c, 1, 70, 127
1, 14592, Note_on_c, 1, 63, 127
1, 14720, Note_off_c, 1, 79, 0
1, 14784, Note_on_c, 1, 74, 127
1, 14848, Note_off_c, 1, 70, 0
1, 14912, Note_off_c, 1, 74, 0
1, 14972, Note_off_c, 1, 63, 0
1, 14976, Note_on_c, 1, 81, 127
1, 14976, Note_on_c, 1, 69, 127
1, 14976, Note_on_c, 1, 66, 127
1, 15104, Note_off_c, 1, 81, 0
1, 15168, Note_on_c, 1, 72, 127
1, 15232, Note_off_c, 1, 69, 0
1, 15296, Note_off_c, 1, 72, 0
1, 15356, Note_off_c, 1, 66, 0
1, 15360, Note_on_c, 1, 67, 127
1, 15360, Note_on_c, 1, 70, 127
1, 15552, Note_on_c, 1, 79, 127
1, 15740, Note_off_c, 1, 67, 0
1, 15740, Note_off_c, 1, 70, 0
1, 15740, Note_off_c, 1, 79, 0
1, 15744, Note_on_c, 1, 77, 127
1, 15744, Note_on_c, 1, 68, 127
1, 15744, Note_on_c, 1, 59, 127
1, 15932, Note_off_c, 1, 77, 0
1, 15936, Note_on_c, 1, 79, 127
1, 16124, Note_off_c, 1, 68, 0
1, 16124, Note_off_c, 1, 59, 0
1, 16124, Note_off_c, 1, 79, 0
1, 16128, Note_on_c, 1, 81, 127
1, 16128, Note_on_c, 1, 66, 127
1, 16128, Note_on_c, 1, 60, 127
1, 16316, Note_off_c, 1, 81, 0
1, 16320, Note_on_c, 1, 75, 127
1, 16448, Note_off_c, 1, 75, 0
1, 16508, Note_off_c, 1, 66, 0
1, 16508, Note_off_c, 1, 60, 0
1, 16512, Note_on_c, 1, 83, 127
1, 16512, Note_on_c, 1, 65, 127
1, 16512, Note_on_c, 1, 62, 127
1, 16640, Note_off_c, 1, 83, 0
1, 16704, Note_on_c, 1, 74, 127
1, 16832, Note_off_c, 1, 74, 0
1, 16892, Note_off_c, 1, 65, 0
1, 16892, Note_off_c, 1, 62, 0
1, 16896, Note_on_c, 1, 63, 127
1, 16896, Note_on_c, 1, 72, 127
1, 17276, Note_off_c, 1, 63, 0
1, 17276, Note_off_c, 1, 72, 0
1, 17280, Note_on_c, 1, 70, 127
1, 17280, Note_on_c, 1, 76, 127
1, 17280, Note_on_c, 1, 61, 127
1, 17468, Note_off_c, 1, 70, 0
1, 17472, Note_on_c, 1, 72, 127
1, 17660, Note_off_c, 1, 76, 0
1, 17660, Note_off_c, 1, 61, 0
1, 17660, Note_off_c, 1, 72, 0
1, 17664, Note_on_c, 1, 74, 127
1, 17664, Note_on_c, 1, 77, 127
1, 17664, Note_on_c, 1, 59, 127
1, 17792, Note_off_c, 1, 74, 0
1, 17856, Note_on_c, 1, 68, 127
1, 17984, Note_off_c, 1, 68, 0
1, 18044, Note_off_c, 1, 77, 0
1, 18044, Note_off_c, 1, 59, 0
1, 18048, Note_on_c, 1, 76, 127
1, 18048, Note_on_c, 1, 79, 127
1, 18048, Note_on_c, 1, 58, 127
1, 18176, Note_off_c, 1, 76, 0
1, 18240, Note_on_c, 1, 67, 127
1, 18368, Note_off_c, 1, 67, 0
1, 18428, Note_off_c, 1, 79, 0
1, 18428, Note_off_c, 1, 58, 0
1, 18432, Note_on_c, 1, 65, 127
1, 18432, Note_on_c, 1, 80, 127
1, 18432, Note_on_c, 1, 56, 127
1, 18620, Note_off_c, 1, 56, 0
1, 18688, Note_off_c, 1, 80, 0
1, 18812, Note_off_c, 1, 65, 0
1, 18816, Note_on_c, 1, 69, 127
1, 18816, Note_on_c, 1, 78, 127
1, 18816, Note_on_c, 1, 63, 127
1, 19004, Note_off_c, 1, 63, 0
1, 19008, Note_on_c, 1, 65, 127
1, 19196, Note_off_c, 1, 69, 0
1, 19196, Note_off_c, 1, 78, 0
1, 19196, Note_off_c, 1, 65, 0
1, 19200, Note_on_c, 1, 67, 127
1, 19200, Note_on_c, 1, 70, 127
1, 19200, Note_on_c, 1, 76, 127
1, 19328, Note_off_c, 1, 67, 0
1, 19392, Note_on_c, 1, 61, 127
1, 19520, Note_off_c, 1, 61, 0
1, 19580, Note_off_c, 1, 70, 0
1, 19580, Note_off_c, 1, 76, 0
1, 19584, Note_on_c, 1, 69, 127
1, 19584, Note_on_c, 1, 72, 127
1, 19584, Note_on_c, 1, 75, 127
1, 19712, Note_off_c, 1, 69, 0
1, 19776, Note_on_c, 1, 60, 127
1, 19904, Note_off_c, 1, 60, 0
1, 19964, Note_off_c, 1, 72, 0
1, 19964, Note_off_c, 1, 75, 0
1, 19968, Note_on_c, 1, 74, 127
1, 19968, Note_on_c, 1, 58, 127
1, 20156, Note_off_c, 1, 58, 0
1, 20160, Note_on_c, 1, 62, 127
1, 20224, Note_off_c, 1, 74, 0
1, 20348, Note_off_c, 1, 62, 0
1, 20352, Note_on_c, 1, 75, 127
1, 20352, Note_on_c, 1, 78, 127
1, 20352, Note_on_c, 1, 60, 127
1, 20540, Note_off_c, 1, 60, 0
1, 20544, Note_on_c, 1, 62, 127
1, 20732, Note_off_c, 1, 75, 0
1, 20732, Note_off_c, 1, 78, 0
1, 20732, Note_off_c, 1, 62, 0
1, 20736, Note_on_c, 1, 73, 127
1, 20736, Note_on_c, 1, 79, 127
1, 20736, Note_on_c, 1, 64, 127
1, 20864, Note_off_c, 1, 64, 0
1, 20928, Note_on_c, 1, 58, 127
1, 21056, Note_off_c, 1, 58, 0
1, 21116, Note_off_c, 1, 73, 0
1, 21116, Note_off_c, 1, 79, 0
1, 21120, Note_on_c, 1, 72, 127
1, 21120, Note_on_c, 1, 81, 127
1, 21120, Note_on_c, 1, 66, 127
1, 21248, Note_off_c, 1, 66, 0
1, 21312, Note_on_c, 1, 57, 127
1, 21440, Note_off_c, 1, 57, 0
1, 21500, Note_off_c, 1, 72, 0
1, 21500, Note_off_c, 1, 81, 0
1, 21504, Note_on_c, 1, 70, 127
1, 21504, Note_on_c, 1, 74, 127
1, 21504, Note_on_c, 1, 55, 127
1, 21692, Note_off_c, 1, 70, 0
1, 21696, Note_on_c, 1, 67, 127
1, 21760, Note_off_c, 1, 74, 0
1, 21884, Note_off_c, 1, 55, 0
1, 21884, Note_off_c, 1, 67, 0
1, 21888, Note_on_c, 1, 65, 127
1, 21888, Note_on_c, 1, 80, 127
1, 22076, Note_off_c, 1, 65, 0
1, 22080, Note_on_c, 1, 67, 127
1, 22268, Note_off_c, 1, 80, 0
1, 22268, Note_off_c, 1, 67, 0
1, 22272, Note_on_c, 1, 69, 127
1, 22272, Note_on_c, 1, 78, 127
1, 22400, Note_off_c, 1, 69, 0
1, 22464, Note_on_c, 1, 63, 127
1, 22592, Note_off_c, 1, 63, 0
1, 22652, Note_off_c, 1, 78, 0
1, 22656, Note_on_c, 1, 71, 127
1, 22656, Note_on_c, 1, 77, 127
1, 22784, Note_off_c, 1, 71, 0
1, 22848, Note_on_c, 1, 62, 127
1, 22976, Note_off_c, 1, 62, 0
1, 23036, Note_off_c, 1, 77, 0
1, 23040, Note_on_c, 1, 75, 127
1, 23040, Note_on_c, 1, 60, 127
1, 23168, Note_off_c, 1, 75, 0
1, 23232, Note_on_c, 1, 72, 127
1, 23296, Note_off_c, 1, 60, 0
1, 23420, Note_off_c, 1, 72, 0
1, 23424, Note_on_c, 1, 70, 127
1, 23424, Note_on_c, 1, 64, 127
1, 23424, Note_on_c, 1, 61, 127
1, 23612, Note_off_c, 1, 70, 0
1, 23616, Note_on_c, 1, 72, 127
1, 23680, Note_off_c, 1, 64, 0
1, 23680, Note_off_c, 1, 61, 0
1, 23804, Note_off_c, 1, 72, 0
1, 23808, Note_on_c, 1, 74, 127
1, 23808, Note_on_c, 1, 65, 127
1, 23808, Note_on_c, 1, 59, 127
1, 23936, Note_off_c, 1, 74, 0
1, 24000, Note_on_c, 1, 68, 127
1, 24064, Note_off_c, 1, 65, 0
1, 24064, Note_off_c, 1, 59, 0
1, 24128, Note_off_c, 1, 68, 0
1, 24192, Note_on_c, 1, 76, 127
1, 24192, Note_on_c, 1, 67, 127
1, 24192, Note_on_c, 1, 58, 127
1, 24320, Note_off_c, 1, 76, 0
1, 24448, Note_off_c, 1, 58, 0
1, 24512, Note_off_c, 1, 67, 0
1, 24576, Note_on_c, 1, 60, 127
1, 24576, Note_on_c, 1, 65, 127
1, 24576, Note_on_c, 1, 56, 127
1, 24764, Note_off_c, 1, 56, 0
1, 24768, Note_on_c, 1, 55, 127
1, 24832, Note_off_c, 1, 60, 0
1, 24832, Note_off_c, 1, 65, 0
1, 24956, Note_off_c, 1, 55, 0
1, 24960, Note_on_c, 1, 73, 127
1, 24960, Note_on_c, 1, 53, 127
1, 25148, Note_off_c, 1, 53, 0
1, 25152, Note_on_c, 1, 55, 127
1, 25340, Note_off_c, 1, 55, 0
1, 25344, Note_on_c, 1, 56, 127
1, 25472, Note_off_c, 1, 56, 0
1, 25532, Note_off_c, 1, 73, 0
1, 25536, Note_on_c, 1, 72, 127
1, 25536, Note_on_c, 1, 57, 127
1, 25724, Note_off_c, 1, 72, 0
1, 25724, Note_off_c, 1, 57, 0
1, 25728, Note_on_c, 1, 75, 127
1, 25728, Note_on_c, 1, 55, 127
1, 25916, Note_off_c, 1, 55, 0
1, 25920, Note_on_c, 1, 57, 127
1, 26108, Note_off_c, 1, 57, 0
1, 26112, Note_on_c, 1, 58, 127
1, 26240, Note_off_c, 1, 58, 0
1, 26300, Note_off_c, 1, 75, 0
1, 26304, Note_on_c, 1, 74, 127
1, 26304, Note_on_c, 1, 59, 127
1, 26492, Note_off_c, 1, 74, 0
1, 26492, Note_off_c, 1, 59, 0
1, 26496, Note_on_c, 1, 77, 127
1, 26496, Note_on_c, 1, 57, 127
1, 26684, Note_off_c, 1, 57, 0
1, 26688, Note_on_c, 1, 59, 127
1, 26876, Note_off_c, 1, 59, 0
1, 26880, Note_on_c, 1, 60, 127
1, 27068, Note_off_c, 1, 77, 0
1, 27068, Note_off_c, 1, 60, 0
1, 27072, Note_on_c, 1, 75, 127
1, 27072, Note_on_c, 1, 55, 127
1, 27164, Note_off_c, 1, 75, 0
1, 27168, Note_on_c, 1, 74, 127
1, 27200, Note_off_c, 1, 55, 0
1, 27260, Note_off_c, 1, 74, 0
1, 27264, Note_on_c, 1, 72, 127
1, 27264, Note_on_c, 1, 62, 127
1, 27452, Note_off_c, 1, 72, 0
1, 27452, Note_off_c, 1, 62, 0
1, 27456, Note_on_c, 1, 71, 127
1, 27456, Note_on_c, 1, 53, 127
1, 27584, Note_off_c, 1, 53, 0
1, 27644, Note_off_c, 1, 71, 0
1, 27648, Note_on_c, 1, 72, 127
1, 27648, Note_on_c, 1, 51, 127
1, 27840, Note_on_c, 1, 62, 127
1, 27904, Note_off_c, 1, 72, 0
1, 27904, Note_off_c, 1, 51, 0
1, 28028, Note_off_c, 1, 62, 0
1, 28032, Note_on_c, 1, 60, 127
1, 28032, Note_on_c, 1, 65, 127
1, 28032, Note_on_c, 1, 56, 127
1, 28220, Note_off_c, 1, 60, 0
1, 28224, Note_on_c, 1, 62, 127
1, 28412, Note_off_c, 1, 65, 0
1, 28412, Note_off_c, 1, 62, 0
1, 28416, Note_on_c, 1, 63, 127
1, 28416, Note_on_c, 1, 70, 127
1, 28604, Note_off_c, 1, 56, 0
1, 28604, Note_off_c, 1, 63, 0
1, 28608, Note_on_c, 1, 64, 127
1, 28608, Note_on_c, 1, 55, 127
1, 28796, Note_off_c, 1, 70, 0
1, 28796, Note_off_c, 1, 64, 0
1, 28796, Note_off_c, 1, 55, 0
1, 28800, Note_on_c, 1, 62, 127
1, 28800, Note_on_c, 1, 67, 127
1, 28800, Note_on_c, 1, 58, 127
1, 28988, Note_off_c, 1, 62, 0
1, 28992, Note_on_c, 1, 64, 127
1, 29180, Note_off_c, 1, 67, 0
1, 29180, Note_off_c, 1, 64, 0
1, 29184, Note_on_c, 1, 65, 127
1, 29184, Note_on_c, 1, 72, 127
1, 29312, Note_off_c, 1, 58, 0
1, 29372, Note_off_c, 1, 65, 0
1, 29376, Note_on_c, 1, 66, 127
1, 29376, Note_on_c, 1, 57, 127
1, 29504, Note_off_c, 1, 57, 0
1, 29564, Note_off_c, 1, 72, 0
1, 29564, Note_off_c, 1, 66, 0
1, 29568, Note_on_c, 1, 64, 127
1, 29568, Note_on_c, 1, 69, 127
1, 29568, Note_on_c, 1, 60, 127
1, 29756, Note_off_c, 1, 64, 0
1, 29760, Note_on_c, 1, 66, 127
1, 29948, Note_off_c, 1, 69, 0
1, 29948, Note_off_c, 1, 66, 0
1, 29952, Note_on_c, 1, 67, 127
1, 29952, Note_on_c, 1, 74, 127
1, 30080, Note_off_c, 1, 67, 0
1, 30140, Note_off_c, 1, 60, 0
1, 30144, Note_on_c, 1, 62, 127
1, 30144, Note_on_c, 1, 58, 127
1, 30236, Note_off_c, 1, 58, 0
1, 30240, Note_on_c, 1, 57, 127
1, 30272, Note_off_c, 1, 62, 0
1, 30332, Note_off_c, 1, 57, 0
1, 30336, Note_on_c, 1, 55, 127
1, 30524, Note_off_c, 1, 55, 0
1, 30528, Note_on_c, 1, 54, 127
1, 30716, Note_off_c, 1, 74, 0
1, 30716, Note_off_c, 1, 54, 0
1, 30720, Note_on_c, 1, 58, 127
1, 30720, Note_on_c, 1, 55, 127
1, 30908, Note_off_c, 1, 58, 0
1, 30912, Note_on_c, 1, 67, 127
1, 30912, Note_on_c, 1, 59, 127
1, 31100, Note_off_c, 1, 67, 0
1, 31100, Note_off_c, 1, 59, 0
1, 31104, Note_on_c, 1, 65, 127
1, 31104, Note_on_c, 1, 57, 127
1, 31292, Note_off_c, 1, 65, 0
1, 31292, Note_off_c, 1, 57, 0
1, 31488, Note_on_c, 1, 68, 127
1, 31488, Note_on_c, 1, 60, 127
1, 31676, Note_off_c, 1, 55, 0
1, 31676, Note_off_c, 1, 68, 0
1, 31680, Note_on_c, 1, 69, 127
1, 31680, Note_on_c, 1, 53, 127
1, 31868, Note_off_c, 1, 69, 0
1, 31868, Note_off_c, 1, 53, 0
1, 31872, Note_on_c, 1, 51, 127
1, 32060, Note_off_c, 1, 51, 0
1, 32252, Note_off_c, 1, 60, 0
1, 32256, Note_on_c, 1, 70, 127
1, 32256, Note_on_c, 1, 50, 127
1, 32444, Note_off_c, 1, 70, 0
1, 32448, Note_on_c, 1, 62, 127
1, 32448, Note_on_c, 1, 71, 127
1, 32636, Note_off_c, 1, 62, 0
1, 32636, Note_off_c, 1, 71, 0
1, 32640, Note_on_c, 1, 60, 127
1, 32640, Note_on_c, 1, 69, 127
1, 32828, Note_off_c, 1, 60, 0
1, 32828, Note_off_c, 1, 69, 0
1, 33024, Note_on_c, 1, 72, 127
1, 33024, Note_on_c, 1, 63, 127
1, 33212, Note_off_c, 1, 50, 0
1, 33212, Note_off_c, 1, 72, 0
1, 33216, Note_on_c, 1, 67, 127
1, 33216, Note_on_c, 1, 48, 127
1, 33404, Note_off_c, 1, 63, 0
1, 33404, Note_off_c, 1, 67, 0
1, 33408, Note_on_c, 1, 74, 127
1, 33596, Note_off_c, 1, 48, 0
1, 33596, Note_off_c, 1, 74, 0
1, 33600, Note_on_c, 1, 65, 127
1, 33600, Note_on_c, 1, 47, 127
1, 33788, Note_off_c, 1, 65, 0
1, 33788, Note_off_c, 1, 47, 0
1, 33792, Note_on_c, 1, 63, 127
1, 33792, Note_on_c, 1, 60, 127
1, 33792, Note_on_c, 1, 48, 127
1, 33920, Note_off_c, 1, 63, 0
1, 33920, Note_off_c, 1, 60, 0
1, 33984, Note_on_c, 1, 67, 127
1, 33984, Note_on_c, 1, 51, 127
1, 34172, Note_off_c, 1, 67, 0
1, 34172, Note_off_c, 1, 51, 0
1, 34176, Note_on_c, 1, 65, 127
1, 34176, Note_on_c, 1, 50, 127
1, 34364, Note_off_c, 1, 65, 0
1, 34364, Note_off_c, 1, 50, 0
1, 34560, Note_on_c, 1, 68, 127
1, 34560, Note_on_c, 1, 53, 127
1, 34748, Note_off_c, 1, 68, 0
1, 34940, Note_off_c, 1, 48, 0
1, 34940, Note_off_c, 1, 53, 0
1, 34944, Note_on_c, 1, 70, 127
1, 34944, Note_on_c, 1, 46, 127
1, 34944, Note_on_c, 1, 55, 127
1, 35132, Note_off_c, 1, 70, 0
1, 35136, Note_on_c, 1, 61, 127
1, 35324, Note_off_c, 1, 46, 0
1, 35324, Note_off_c, 1, 61, 0
1, 35328, Note_on_c, 1, 60, 127
1, 35328, Note_on_c, 1, 44, 127
1, 35516, Note_off_c, 1, 55, 0
1, 35516, Note_off_c, 1, 60, 0
1, 35520, Note_on_c, 1, 63, 127
1, 35520, Note_on_c, 1, 48, 127
1, 35708, Note_off_c, 1, 63, 0
1, 35708, Note_off_c, 1, 48, 0
1, 35712, Note_on_c, 1, 62, 127
1, 35712, Note_on_c, 1, 47, 127
1, 35840, Note_off_c, 1, 62, 0
1, 35900, Note_off_c, 1, 47, 0
1, 35904, Note_on_c, 1, 64, 127
1, 36092, Note_off_c, 1, 64, 0
1, 36096, Note_on_c, 1, 65, 127
1, 36096, Note_on_c, 1, 50, 127
1, 36284, Note_off_c, 1, 65, 0
1, 36476, Note_off_c, 1, 44, 0
1, 36476, Note_off_c, 1, 50, 0
1, 36480, Note_on_c, 1, 67, 127
1, 36480, Note_on_c, 1, 52, 127
1, 36480, Note_on_c, 1, 43, 127
1, 36668, Note_off_c, 1, 67, 0
1, 36672, Note_on_c, 1, 58, 127
1, 36860, Note_off_c, 1, 52, 0
1, 36860, Note_off_c, 1, 43, 0
1, 36860, Note_off_c, 1, 58, 0
1, 36864, Note_on_c, 1, 56, 127
1, 36864, Note_on_c, 1, 41, 127
1, 36864, Note_on_c, 1, 53, 127
1, 36956, Note_off_c, 1, 56, 0
1, 36960, Note_on_c, 1, 60, 127
1, 37052, Note_off_c, 1, 60, 0
1, 37056, Note_on_c, 1, 62, 127
1, 37148, Note_off_c, 1, 62, 0
1, 37152, Note_on_c, 1, 64, 127
1, 37244, Note_off_c, 1, 41, 0
1, 37244, Note_off_c, 1, 53, 0
1, 37244, Note_off_c, 1, 64, 0
1, 37248, Note_on_c, 1, 65, 127
1, 37340, Note_off_c, 1, 65, 0
1, 37344, Note_on_c, 1, 67, 127
1, 37436, Note_off_c, 1, 67, 0
1, 37440, Note_on_c, 1, 68, 127
1, 37532, Note_off_c, 1, 68, 0
1, 37536, Note_on_c, 1, 70, 127
1, 37628, Note_off_c, 1, 70, 0
1, 37632, Note_on_c, 1, 72, 127
1, 37728, Note_on_c, 1, 70, 127
1, 37820, Note_off_c, 1, 70, 0
1, 37824, Note_on_c, 1, 68, 127
1, 37916, Note_off_c, 1, 68, 0
1, 37920, Note_on_c, 1, 67, 127
1, 38012, Note_off_c, 1, 67, 0
1, 38016, Note_on_c, 1, 65, 127
1, 38016, Note_on_c, 1, 56, 127
1, 38108, Note_off_c, 1, 65, 0
1, 38112, Note_on_c, 1, 63, 127
1, 38204, Note_off_c, 1, 63, 0
1, 38208, Note_on_c, 1, 62, 127
1, 38300, Note_off_c, 1, 62, 0
1, 38304, Note_on_c, 1, 60, 127
1, 38396, Note_off_c, 1, 72, 0
1, 38396, Note_off_c, 1, 60, 0
1, 38400, Note_on_c, 1, 59, 127
1, 38400, Note_on_c, 1, 74, 127
1, 38492, Note_off_c, 1, 56, 0
1, 38492, Note_off_c, 1, 59, 0
1, 38492, Note_off_c, 1, 74, 0
1, 38496, Note_on_c, 1, 62, 127
1, 38496, Note_on_c, 1, 58, 127
1, 38588, Note_off_c, 1, 62, 0
1, 38588, Note_off_c, 1, 58, 0
1, 38592, Note_on_c, 1, 63, 127
1, 38592, Note_on_c, 1, 56, 127
1, 38684, Note_off_c, 1, 63, 0
1, 38684, Note_off_c, 1, 56, 0
1, 38688, Note_on_c, 1, 65, 127
1, 38688, Note_on_c, 1, 55, 127
1, 38780, Note_off_c, 1, 65, 0
1, 38780, Note_off_c, 1, 55, 0
1, 38784, Note_on_c, 1, 67, 127
1, 38784, Note_on_c, 1, 53, 127
1, 38876, Note_off_c, 1, 67, 0
1, 38876, Note_off_c, 1, 53, 0
1, 38880, Note_on_c, 1, 69, 127
1, 38880, Note_on_c, 1, 51, 127
1, 38972, Note_off_c, 1, 69, 0
1, 38972, Note_off_c, 1, 51, 0
1, 38976, Note_on_c, 1, 71, 127
1, 38976, Note_on_c, 1, 50, 127
1, 39068, Note_off_c, 1, 71, 0
1, 39068, Note_off_c, 1, 50, 0
1, 39072, Note_on_c, 1, 72, 127
1, 39072, Note_on_c, 1, 48, 127
1, 39164, Note_off_c, 1, 72, 0
1, 39164, Note_off_c, 1, 48, 0
1, 39168, Note_on_c, 1, 74, 127
1, 39168, Note_on_c, 1, 47, 127
1, 39264, Note_on_c, 1, 72, 127
1, 39356, Note_off_c, 1, 72, 0
1, 39360, Note_on_c, 1, 71, 127
1, 39452, Note_off_c, 1, 71, 0
1, 39456, Note_on_c, 1, 69, 127
1, 39548, Note_off_c, 1, 47, 0
1, 39548, Note_off_c, 1, 69, 0
1, 39552, Note_on_c, 1, 67, 127
1, 39552, Note_on_c, 1, 59, 127
1, 39644, Note_off_c, 1, 67, 0
1, 39648, Note_on_c, 1, 65, 127
1, 39740, Note_off_c, 1, 65, 0
1, 39744, Note_on_c, 1, 63, 127
1, 39836, Note_off_c, 1, 63, 0
1, 39840, Note_on_c, 1, 62, 127
1, 39932, Note_off_c, 1, 59, 0
1, 39932, Note_off_c, 1, 62, 0
1, 39936, Note_on_c, 1, 60, 127
1, 40028, Note_off_c, 1, 74, 0
1, 40316, Note_off_c, 1, 60, 0
1, 40320, Note_on_c, 1, 72, 127
1, 40412, Note_off_c, 1, 72, 0
1, 40416, Note_on_c, 1, 74, 127
1, 40416, Note_on_c, 1, 59, 127
1, 40508, Note_off_c, 1, 74, 0
1, 40508, Note_off_c, 1, 59, 0
1, 40512, Note_on_c, 1, 75, 127
1, 40512, Note_on_c, 1, 60, 127
1, 40604, Note_off_c, 1, 75, 0
1, 40604, Note_off_c, 1, 60, 0
1, 40608, Note_on_c, 1, 77, 127
1, 40608, Note_on_c, 1, 62, 127
1, 40700, Note_off_c, 1, 77, 0
1, 40700, Note_off_c, 1, 62, 0
1, 40704, Note_on_c, 1, 79, 127
1, 40704, Note_on_c, 1, 63, 127
1, 40796, Note_off_c, 1, 63, 0
1, 40800, Note_on_c, 1, 77, 127
1, 40800, Note_on_c, 1, 62, 127
1, 40892, Note_off_c, 1, 77, 0
1, 40892, Note_off_c, 1, 62, 0
1, 40896, Note_on_c, 1, 75, 127
1, 40896, Note_on_c, 1, 60, 127
1, 40988, Note_off_c, 1, 75, 0
1, 40988, Note_off_c, 1, 60, 0
1, 40992, Note_on_c, 1, 74, 127
1, 41084, Note_off_c, 1, 74, 0
1, 41088, Note_on_c, 1, 72, 127
1, 41180, Note_off_c, 1, 72, 0
1, 41184, Note_on_c, 1, 70, 127
1, 41276, Note_off_c, 1, 70, 0
1, 41280, Note_on_c, 1, 68, 127
1, 41372, Note_off_c, 1, 68, 0
1, 41376, Note_on_c, 1, 67, 127
1, 41468, Note_off_c, 1, 67, 0
1, 41472, Note_on_c, 1, 65, 127
1, 41564, Note_off_c, 1, 65, 0
1, 41852, Note_off_c, 1, 79, 0
1, 42048, Note_on_c, 1, 59, 127
1, 42140, Note_off_c, 1, 59, 0
1, 42144, Note_on_c, 1, 57, 127
1, 42236, Note_off_c, 1, 57, 0
1, 42336, Note_on_c, 1, 55, 127
1, 42428, Note_off_c, 1, 55, 0
1, 42720, Note_on_c, 1, 58, 127
1, 42812, Note_off_c, 1, 58, 0
1, 42816, Note_on_c, 1, 56, 127
1, 42908, Note_off_c, 1, 56, 0
1, 43392, Note_on_c, 1, 53, 127
1, 43484, Note_off_c, 1, 53, 0
1, 43488, Note_on_c, 1, 51, 127
1, 43580, Note_off_c, 1, 51, 0
1, 43584, Note_on_c, 1, 50, 127
1, 43676, Note_off_c, 1, 50, 0
1, 43680, Note_on_c, 1, 48, 127
1, 43772, Note_off_c, 1, 48, 0
1, 43776, Note_on_c, 1, 47, 127
1, 43868, Note_off_c, 1, 47, 0
1, 43872, Note_on_c, 1, 43, 127
1, 43964, Note_off_c, 1, 43, 0
1, 43968, Note_on_c, 1, 71, 127
1, 43968, Note_on_c, 1, 45, 127
1, 44060, Note_off_c, 1, 45, 0
1, 44156, Note_off_c, 1, 71, 0
1, 44160, Note_on_c, 1, 67, 127
1, 44160, Note_on_c, 1, 63, 127
1, 44160, Note_on_c, 1, 48, 127
1, 44252, Note_off_c, 1, 48, 0
1, 44256, Note_on_c, 1, 46, 127
1, 44348, Note_off_c, 1, 67, 0
1, 44348, Note_off_c, 1, 46, 0
1, 44352, Note_on_c, 1, 72, 127
1, 44352, Note_on_c, 1, 44, 127
1, 44444, Note_off_c, 1, 44, 0
1, 44448, Note_on_c, 1, 43, 127
1, 44540, Note_off_c, 1, 63, 0
1, 44540, Note_off_c, 1, 72, 0
1, 44540, Note_off_c, 1, 43, 0
1, 44544, Note_on_c, 1, 42, 127
1, 44800, Note_off_c, 1, 42, 0
1, 44928, Note_on_c, 1, 63, 127
1, 44928, Note_on_c, 1, 60, 127
1, 45308, Note_off_c, 1, 63, 0
1, 45308, Note_off_c, 1, 60, 0
1, 45312, Note_on_c, 1, 43, 127
1, 45504, Note_on_c, 1, 63, 127
1, 45504, Note_on_c, 1, 55, 127
1, 45692, Note_off_c, 1, 43, 0
1, 45692, Note_off_c, 1, 63, 0
1, 45692, Note_off_c, 1, 55, 0
1, 45696, Note_on_c, 1, 62, 127
1, 45696, Note_on_c, 1, 53, 127
1, 45884, Note_off_c, 1, 62, 0
1, 45884, Note_off_c, 1, 53, 0
1, 45888, Note_on_c, 1, 59, 127
1, 45888, Note_on_c, 1, 50, 127
1, 46076, Note_off_c, 1, 59, 0
1, 46076, Note_off_c, 1, 50, 0
1, 46080, Note_on_c, 1, 44, 127
1, 46272, Note_on_c, 1, 59, 127
1, 46272, Note_on_c, 1, 50, 127
1, 46400, Note_off_c, 1, 59, 0
1, 46400, Note_off_c, 1, 50, 0
1, 46460, Note_off_c, 1, 44, 0
1, 46464, Note_on_c, 1, 59, 127
1, 46464, Note_on_c, 1, 50, 127
1, 46652, Note_off_c, 1, 59, 0
1, 46652, Note_off_c, 1, 50, 0
1, 46656, Note_on_c, 1, 60, 127
1, 46656, Note_on_c, 1, 51, 127
1, 46844, Note_off_c, 1, 60, 0
1, 46844, Note_off_c, 1, 51, 0
1, 46848, Note_on_c, 1, 43, 127
1, 46944, Note_on_c, 1, 60, 127
1, 46944, Note_on_c, 1, 51, 127
1, 47036, Note_off_c, 1, 60, 0
1, 47036, Note_off_c, 1, 51, 0
1, 47040, Note_on_c, 1, 59, 127
1, 47040, Note_on_c, 1, 50, 127
1, 47132, Note_off_c, 1, 59, 0
1, 47132, Note_off_c, 1, 50, 0
1, 47228, Note_off_c, 1, 43, 0
1, 47232, Note_on_c, 1, 62, 127
1, 47232, Note_on_c, 1, 53, 127
1, 47324, Note_off_c, 1, 62, 0
1, 47324, Note_off_c, 1, 53, 0
1, 47328, Note_on_c, 1, 59, 127
1, 47328, Note_on_c, 1, 50, 127
1, 47420, Note_off_c, 1, 59, 0
1, 47420, Note_off_c, 1, 50, 0
1, 47424, Note_on_c, 1, 60, 127
1, 47424, Note_on_c, 1, 51, 127
1, 47612, Note_off_c, 1, 60, 0
1, 47612, Note_off_c, 1, 51, 0
1, 47616, Note_on_c, 1, 42, 127
1, 47712, Note_on_c, 1, 60, 127
1, 47804, Note_off_c, 1, 60, 0
1, 47808, Note_on_c, 1, 63, 127
1, 47900, Note_off_c, 1, 63, 0
1, 47904, Note_on_c, 1, 69, 127
1, 47996, Note_off_c, 1, 42, 0
1, 47996, Note_off_c, 1, 69, 0
1, 48000, Note_on_c, 1, 72, 127
1, 48192, Note_on_c, 1, 62, 127
1, 48192, Note_on_c, 1, 54, 127
1, 48380, Note_off_c, 1, 62, 0
1, 48380, Note_off_c, 1, 54, 0
1, 48384, Note_on_c, 1, 63, 127
1, 48384, Note_on_c, 1, 55, 127
1, 48572, Note_off_c, 1, 72, 0
1, 48576, Note_on_c, 1, 70, 127
1, 48668, Note_off_c, 1, 70, 0
1, 48672, Note_on_c, 1, 68, 127
1, 48764, Note_off_c, 1, 63, 0
1, 48764, Note_off_c, 1, 68, 0
1, 48768, Note_on_c, 1, 67, 127
1, 48768, Note_on_c, 1, 59, 127
1, 48860, Note_off_c, 1, 67, 0
1, 48864, Note_on_c, 1, 65, 127
1, 48956, Note_off_c, 1, 65, 0
1, 49148, Note_off_c, 1, 55, 0
1, 49148, Note_off_c, 1, 59, 0
1, 49152, Note_on_c, 1, 60, 127
1, 49152, Note_on_c, 1, 48, 127
1, 49244, Note_off_c, 1, 60, 0
1, 49248, Note_on_c, 1, 56, 127
1, 49340, Note_off_c, 1, 56, 0
1, 49440, Note_on_c, 1, 53, 127
1, 49532, Note_off_c, 1, 53, 0
1, 49728, Note_on_c, 1, 51, 127
1, 49820, Note_off_c, 1, 51, 0
1, 49824, Note_on_c, 1, 50, 127
1, 49916, Note_off_c, 1, 48, 0
1, 49916, Note_off_c, 1, 50, 0
1, 49920, Note_on_c, 1, 60, 127
1, 49920, Note_on_c, 1, 48, 127
1, 49920, Note_on_c, 1, 51, 127
1, 50012, Note_off_c, 1, 48, 0
1, 50016, Note_on_c, 1, 44, 127
1, 50108, Note_off_c, 1, 44, 0
1, 50112, Note_on_c, 1, 43, 127
1, 50204, Note_off_c, 1, 43, 0
1, 50208, Note_on_c, 1, 41, 127
1, 50300, Note_off_c, 1, 60, 0
1, 50300, Note_off_c, 1, 51, 0
1, 50300, Note_off_c, 1, 41, 0
1, 50304, Note_on_c, 1, 43, 127
1, 50396, Note_off_c, 1, 43, 0
1, 50400, Note_on_c, 1, 41, 127
1, 50492, Note_off_c, 1, 41, 0
1, 50496, Note_on_c, 1, 39, 127
1, 50588, Note_off_c, 1, 39, 0
1, 50592, Note_on_c, 1, 38, 127
1, 50684, Note_off_c, 1, 38, 0
1, 50688, Note_on_c, 1, 36, 127
1, 50880, Note_on_c, 1, 67, 127
1, 51068, Note_off_c, 1, 36, 0
1, 51068, Note_off_c, 1, 67, 0
1, 51072, Note_on_c, 1, 72, 127
1, 51072, Note_on_c, 1, 51, 127
1, 51164, Note_off_c, 1, 51, 0
1, 51168, Note_on_c, 1, 50, 127
1, 51260, Note_off_c, 1, 72, 0
1, 51260, Note_off_c, 1, 50, 0
1, 51264, Note_on_c, 1, 75, 127
1, 51264, Note_on_c, 1, 48, 127
1, 51452, Note_off_c, 1, 48, 0
1, 51456, Note_on_c, 1, 38, 127
1, 51548, Note_off_c, 1, 75, 0
1, 51552, Note_on_c, 1, 74, 127
1, 51644, Note_off_c, 1, 74, 0
1, 51648, Note_on_c, 1, 72, 127
1, 51740, Note_off_c, 1, 72, 0
1, 51836, Note_off_c, 1, 38, 0
1, 51840, Note_on_c, 1, 74, 127
1, 51840, Note_on_c, 1, 53, 127
1, 51932, Note_off_c, 1, 74, 0
1, 51932, Note_off_c, 1, 53, 0
1, 51936, Note_on_c, 1, 72, 127
1, 51936, Note_on_c, 1, 51, 127
1, 52028, Note_off_c, 1, 72, 0
1, 52028, Note_off_c, 1, 51, 0
1, 52032, Note_on_c, 1, 71, 127
1, 52032, Note_on_c, 1, 50, 127
1, 52124, Note_off_c, 1, 71, 0
1, 52128, Note_on_c, 1, 69, 127
1, 52220, Note_off_c, 1, 50, 0
1, 52220, Note_off_c, 1, 69, 0
1, 52224, Note_on_c, 1, 67, 127
1, 52224, Note_on_c, 1, 39, 127
1, 52412, Note_off_c, 1, 67, 0
1, 52416, Note_on_c, 1, 72, 127
1, 52604, Note_off_c, 1, 39, 0
1, 52604, Note_off_c, 1, 72, 0
1, 52608, Note_on_c, 1, 75, 127
1, 52608, Note_on_c, 1, 55, 127
1, 52700, Note_off_c, 1, 55, 0
1, 52704, Note_on_c, 1, 53, 127
1, 52796, Note_off_c, 1, 75, 0
1, 52796, Note_off_c, 1, 53, 0
1, 52800, Note_on_c, 1, 79, 127
1, 52800, Note_on_c, 1, 51, 127
1, 52988, Note_off_c, 1, 51, 0
1, 52992, Note_on_c, 1, 41, 127
1, 53084, Note_off_c, 1, 79, 0
1, 53088, Note_on_c, 1, 77, 127
1, 53180, Note_off_c, 1, 77, 0
1, 53184, Note_on_c, 1, 75, 127
1, 53276, Note_off_c, 1, 75, 0
1, 53372, Note_off_c, 1, 41, 0
1, 53376, Note_on_c, 1, 77, 127
1, 53376, Note_on_c, 1, 56, 127
1, 53468, Note_off_c, 1, 77, 0
1, 53468, Note_off_c, 1, 56, 0
1, 53472, Note_on_c, 1, 75, 127
1, 53472, Note_on_c, 1, 55, 127
1, 53564, Note_off_c, 1, 75, 0
1, 53564, Note_off_c, 1, 55, 0
1, 53568, Note_on_c, 1, 74, 127
1, 53568, Note_on_c, 1, 53, 127
1, 53660, Note_off_c, 1, 74, 0
1, 53664, Note_on_c, 1, 72, 127
1, 53756, Note_off_c, 1, 53, 0
1, 53756, Note_off_c, 1, 72, 0
1, 53760, Note_on_c, 1, 71, 127
1, 53760, Note_on_c, 1, 43, 127
1, 53852, Note_off_c, 1, 71, 0
1, 53856, Note_on_c, 1, 74, 127
1, 53948, Note_off_c, 1, 43, 0
1, 53948, Note_off_c, 1, 74, 0
1, 53952, Note_on_c, 1, 72, 127
1, 53952, Note_on_c, 1, 55, 127
1, 54044, Note_off_c, 1, 72, 0
1, 54048, Note_on_c, 1, 74, 127
1, 54140, Note_off_c, 1, 55, 0
1, 54140, Note_off_c, 1, 74, 0
1, 54144, Note_on_c, 1, 75, 127
1, 54144, Note_on_c, 1, 48, 127
1, 54236, Note_off_c, 1, 75, 0
1, 54240, Note_on_c, 1, 67, 127
1, 54332, Note_off_c, 1, 48, 0
1, 54332, Note_off_c, 1, 67, 0
1, 54336, Note_on_c, 1, 65, 127
1, 54336, Note_on_c, 1, 51, 127
1, 54428, Note_off_c, 1, 65, 0
1, 54432, Note_on_c, 1, 67, 127
1, 54524, Note_off_c, 1, 51, 0
1, 54524, Note_off_c, 1, 67, 0
1, 54528, Note_on_c, 1, 68, 127
1, 54528, Note_on_c, 1, 53, 127
1, 54620, Note_off_c, 1, 68, 0
1, 54624, Note_on_c, 1, 76, 127
1, 54716, Note_off_c, 1, 53, 0
1, 54716, Note_off_c, 1, 76, 0
1, 54720, Note_on_c, 1, 74, 127
1, 54720, Note_on_c, 1, 56, 127
1, 54812, Note_off_c, 1, 74, 0
1, 54816, Note_on_c, 1, 76, 127
1, 54908, Note_off_c, 1, 56, 0
1, 54908, Note_off_c, 1, 76, 0
1, 54912, Note_on_c, 1, 77, 127
1, 54912, Note_on_c, 1, 50, 127
1, 55004, Note_off_c, 1, 77, 0
1, 55008, Note_on_c, 1, 69, 127
1, 55100, Note_off_c, 1, 50, 0
1, 55100, Note_off_c, 1, 69, 0
1, 55104, Note_on_c, 1, 67, 127
1, 55104, Note_on_c, 1, 53, 127
1, 55196, Note_off_c, 1, 67, 0
1, 55200, Note_on_c, 1, 69, 127
1, 55292, Note_off_c, 1, 53, 0
1, 55292, Note_off_c, 1, 69, 0
1, 55296, Note_on_c, 1, 70, 127
1, 55296, Note_on_c, 1, 55, 127
1, 55388, Note_off_c, 1, 70, 0
1, 55392, Note_on_c, 1, 78, 127
1, 55484, Note_off_c, 1, 55, 0
1, 55484, Note_off_c, 1, 78, 0
1, 55488, Note_on_c, 1, 76, 127
1, 55488, Note_on_c, 1, 58, 127
1, 55580, Note_off_c, 1, 76, 0
1, 55584, Note_on_c, 1, 78, 127
1, 55676, Note_off_c, 1, 58, 0
1, 55676, Note_off_c, 1, 78, 0
1, 55680, Note_on_c, 1, 79, 127
1, 55680, Note_on_c, 1, 51, 127
1, 55772, Note_off_c, 1, 79, 0
1, 55776, Note_on_c, 1, 71, 127
1, 55868, Note_off_c, 1, 51, 0
1, 55868, Note_off_c, 1, 71, 0
1, 55872, Note_on_c, 1, 69, 127
1, 55872, Note_on_c, 1, 55, 127
1, 55964, Note_off_c, 1, 69, 0
1, 55968, Note_on_c, 1, 71, 127
1, 56060, Note_off_c, 1, 55, 0
1, 56060, Note_off_c, 1, 71, 0
1, 56064, Note_on_c, 1, 72, 127
1, 56064, Note_on_c, 1, 56, 127
1, 56156, Note_off_c, 1, 72, 0
1, 56160, Note_on_c, 1, 75, 127
1, 56252, Note_off_c, 1, 56, 0
1, 56252, Note_off_c, 1, 75, 0
1, 56256, Note_on_c, 1, 74, 127
1, 56256, Note_on_c, 1, 53, 127
1, 56348, Note_off_c, 1, 74, 0
1, 56352, Note_on_c, 1, 72, 127
1, 56444, Note_off_c, 1, 53, 0
1, 56444, Note_off_c, 1, 72, 0
1, 56448, Note_on_c, 1, 71, 127
1, 56448, Note_on_c, 1, 50, 127
1, 56540, Note_off_c, 1, 71, 0
1, 56544, Note_on_c, 1, 69, 127
1, 56636, Note_off_c, 1, 50, 0
1, 56636, Note_off_c, 1, 69, 0
1, 56640, Note_on_c, 1, 67, 127
1, 56640, Note_on_c, 1, 59, 127
1, 56732, Note_off_c, 1, 67, 0
1, 56736, Note_on_c, 1, 65, 127
1, 56828, Note_off_c, 1, 59, 0
1, 56828, Note_off_c, 1, 65, 0
1, 56832, Note_on_c, 1, 63, 127
1, 56832, Note_on_c, 1, 60, 127
1, 56896, Note_off_c, 1, 63, 0
1, 56928, Note_on_c, 1, 67, 127
1, 57020, Note_off_c, 1, 60, 0
1, 57020, Note_off_c, 1, 67, 0
1, 57024, Note_on_c, 1, 65, 127
1, 57024, Note_on_c, 1, 75, 127
1, 57116, Note_off_c, 1, 65, 0
1, 57120, Note_on_c, 1, 67, 127
1, 57152, Note_off_c, 1, 75, 0
1, 57212, Note_off_c, 1, 67, 0
1, 57216, Note_on_c, 1, 68, 127
1, 57216, Note_on_c, 1, 75, 127
1, 57308, Note_off_c, 1, 68, 0
1, 57312, Note_on_c, 1, 67, 127
1, 57344, Note_off_c, 1, 75, 0
1, 57404, Note_off_c, 1, 67, 0
1, 57408, Note_on_c, 1, 65, 127
1, 57408, Note_on_c, 1, 60, 127
1, 57500, Note_off_c, 1, 65, 0
1, 57504, Note_on_c, 1, 63, 127
1, 57596, Note_off_c, 1, 60, 0
1, 57596, Note_off_c, 1, 63, 0
1, 57600, Note_on_c, 1, 62, 127
1, 57600, Note_on_c, 1, 59, 127
1, 57692, Note_off_c, 1, 62, 0
1, 57696, Note_on_c, 1, 65, 127
1, 57788, Note_off_c, 1, 59, 0
1, 57788, Note_off_c, 1, 65, 0
1, 57792, Note_on_c, 1, 63, 127
1, 57792, Note_on_c, 1, 74, 127
1, 57884, Note_off_c, 1, 63, 0
1, 57888, Note_on_c, 1, 65, 127
1, 57920, Note_off_c, 1, 74, 0
1, 57980, Note_off_c, 1, 65, 0
1, 57984, Note_on_c, 1, 67, 127
1, 57984, Note_on_c, 1, 74, 127
1, 58076, Note_off_c, 1, 67, 0
1, 58080, Note_on_c, 1, 65, 127
1, 58112, Note_off_c, 1, 74, 0
1, 58172, Note_off_c, 1, 65, 0
1, 58176, Note_on_c, 1, 63, 127
1, 58176, Note_on_c, 1, 58, 127
1, 58268, Note_off_c, 1, 63, 0
1, 58272, Note_on_c, 1, 62, 127
1, 58364, Note_off_c, 1, 58, 0
1, 58364, Note_off_c, 1, 62, 0
1, 58368, Note_on_c, 1, 60, 127
1, 58368, Note_on_c, 1, 57, 127
1, 58460, Note_off_c, 1, 60, 0
1, 58464, Note_on_c, 1, 63, 127
1, 58556, Note_off_c, 1, 57, 0
1, 58556, Note_off_c, 1, 63, 0
1, 58560, Note_on_c, 1, 62, 127
1, 58560, Note_on_c, 1, 72, 127
1, 58652, Note_off_c, 1, 62, 0
1, 58656, Note_on_c, 1, 63, 127
1, 58688, Note_off_c, 1, 72, 0
1, 58748, Note_off_c, 1, 63, 0
1, 58752, Note_on_c, 1, 66, 127
1, 58752, Note_on_c, 1, 72, 127
1, 58844, Note_off_c, 1, 66, 0
1, 58848, Note_on_c, 1, 63, 127
1, 58880, Note_off_c, 1, 72, 0
1, 58940, Note_off_c, 1, 63, 0
1, 58944, Note_on_c, 1, 62, 127
1, 58944, Note_on_c, 1, 55, 127
1, 59036, Note_off_c, 1, 62, 0
1, 59040, Note_on_c, 1, 63, 127
1, 59132, Note_off_c, 1, 55, 0
1, 59132, Note_off_c, 1, 63, 0
1, 59136, Note_on_c, 1, 69, 127
1, 59136, Note_on_c, 1, 54, 127
1, 59228, Note_off_c, 1, 69, 0
1, 59232, Note_on_c, 1, 63, 127
1, 59324, Note_off_c, 1, 54, 0
1, 59324, Note_off_c, 1, 63, 0
1, 59328, Note_on_c, 1, 62, 127
1, 59328, Note_on_c, 1, 72, 127
1, 59420, Note_off_c, 1, 62, 0
1, 59424, Note_on_c, 1, 63, 127
1, 59456, Note_off_c, 1, 72, 0
1, 59516, Note_off_c, 1, 63, 0
1, 59520, Note_on_c, 1, 69, 127
1, 59520, Note_on_c, 1, 72, 127
1, 59612, Note_off_c, 1, 69, 0
1, 59616, Note_on_c, 1, 63, 127
1, 59648, Note_off_c, 1, 72, 0
1, 59708, Note_off_c, 1, 63, 0
1, 59712, Note_on_c, 1, 62, 127
1, 59712, Note_on_c, 1, 54, 127
1, 59804, Note_off_c, 1, 62, 0
1, 59808, Note_on_c, 1, 60, 127
1, 59900, Note_off_c, 1, 54, 0
1, 59900, Note_off_c, 1, 60, 0
1, 59904, Note_on_c, 1, 58, 127
1, 59904, Note_on_c, 1, 55, 127
1, 59996, Note_off_c, 1, 58, 0
1, 60000, Note_on_c, 1, 62, 127
1, 60032, Note_off_c, 1, 55, 0
1, 60092, Note_off_c, 1, 62, 0
1, 60096, Note_on_c, 1, 67, 127
1, 60096, Note_on_c, 1, 50, 127
1, 60188, Note_off_c, 1, 67, 0
1, 60192, Note_on_c, 1, 70, 127
1, 60284, Note_off_c, 1, 50, 0
1, 60284, Note_off_c, 1, 70, 0
1, 60288, Note_on_c, 1, 74, 127
1, 60288, Note_on_c, 1, 55, 127
1, 60380, Note_off_c, 1, 74, 0
1, 60384, Note_on_c, 1, 72, 127
1, 60476, Note_off_c, 1, 55, 0
1, 60476, Note_off_c, 1, 72, 0
1, 60480, Note_on_c, 1, 70, 127
1, 60480, Note_on_c, 1, 58, 127
1, 60668, Note_off_c, 1, 70, 0
1, 60672, Note_on_c, 1, 60, 127
1, 60764, Note_off_c, 1, 58, 0
1, 60768, Note_on_c, 1, 57, 127
1, 60860, Note_off_c, 1, 57, 0
1, 60864, Note_on_c, 1, 55, 127
1, 60956, Note_off_c, 1, 55, 0
1, 61052, Note_off_c, 1, 60, 0
1, 61056, Note_on_c, 1, 72, 127
1, 61056, Note_on_c, 1, 57, 127
1, 61148, Note_off_c, 1, 72, 0
1, 61148, Note_off_c, 1, 57, 0
1, 61152, Note_on_c, 1, 70, 127
1, 61152, Note_on_c, 1, 55, 127
1, 61244, Note_off_c, 1, 70, 0
1, 61244, Note_off_c, 1, 55, 0
1, 61248, Note_on_c, 1, 69, 127
1, 61248, Note_on_c, 1, 54, 127
1, 61340, Note_off_c, 1, 54, 0
1, 61344, Note_on_c, 1, 52, 127
1, 61436, Note_off_c, 1, 69, 0
1, 61436, Note_off_c, 1, 52, 0
1, 61440, Note_on_c, 1, 58, 127
1, 61440, Note_on_c, 1, 50, 127
1, 61628, Note_off_c, 1, 50, 0
1, 61632, Note_on_c, 1, 55, 127
1, 61820, Note_off_c, 1, 58, 0
1, 61820, Note_off_c, 1, 55, 0
1, 61824, Note_on_c, 1, 70, 127
1, 61824, Note_on_c, 1, 58, 127
1, 61916, Note_off_c, 1, 70, 0
1, 61920, Note_on_c, 1, 69, 127
1, 62012, Note_off_c, 1, 58, 0
1, 62012, Note_off_c, 1, 69, 0
1, 62016, Note_on_c, 1, 67, 127
1, 62016, Note_on_c, 1, 62, 127
1, 62204, Note_off_c, 1, 67, 0
1, 62208, Note_on_c, 1, 57, 127
1, 62300, Note_off_c, 1, 62, 0
1, 62304, Note_on_c, 1, 60, 127
1, 62396, Note_off_c, 1, 60, 0
1, 62400, Note_on_c, 1, 58, 127
1, 62492, Note_off_c, 1, 58, 0
1, 62588, Note_off_c, 1, 57, 0
1, 62592, Note_on_c, 1, 69, 127
1, 62592, Note_on_c, 1, 60, 127
1, 62684, Note_off_c, 1, 69, 0
1, 62684, Note_off_c, 1, 60, 0
1, 62688, Note_on_c, 1, 67, 127
1, 62688, Note_on_c, 1, 58, 127
1, 62780, Note_off_c, 1, 67, 0
1, 62780, Note_off_c, 1, 58, 0
1, 62784, Note_on_c, 1, 66, 127
1, 62784, Note_on_c, 1, 57, 127
1, 62876, Note_off_c, 1, 57, 0
1, 62880, Note_on_c, 1, 55, 127
1, 62972, Note_off_c, 1, 66, 0
1, 62972, Note_off_c, 1, 55, 0
1, 62976, Note_on_c, 1, 54, 127
1, 62976, Note_on_c, 1, 50, 127
1, 63068, Note_off_c, 1, 54, 0
1, 63072, Note_on_c, 1, 57, 127
1, 63164, Note_off_c, 1, 50, 0
1, 63164, Note_off_c, 1, 57, 0
1, 63168, Note_on_c, 1, 74, 127
1, 63168, Note_on_c, 1, 55, 127
1, 63260, Note_off_c, 1, 55, 0
1, 63264, Note_on_c, 1, 57, 127
1, 63356, Note_off_c, 1, 74, 0
1, 63356, Note_off_c, 1, 57, 0
1, 63360, Note_on_c, 1, 67, 127
1, 63360, Note_on_c, 1, 58, 127
1, 63452, Note_off_c, 1, 58, 0
1, 63456, Note_on_c, 1, 50, 127
1, 63548, Note_off_c, 1, 67, 0
1, 63548, Note_off_c, 1, 50, 0
1, 63552, Note_on_c, 1, 70, 127
1, 63552, Note_on_c, 1, 48, 127
1, 63644, Note_off_c, 1, 48, 0
1, 63648, Note_on_c, 1, 50, 127
1, 63740, Note_off_c, 1, 70, 0
1, 63740, Note_off_c, 1, 50, 0
1, 63744, Note_on_c, 1, 72, 127
1, 63744, Note_on_c, 1, 51, 127
1, 63836, Note_off_c, 1, 51, 0
1, 63840, Note_on_c, 1, 59, 127
1, 63872, Note_off_c, 1, 72, 0
1, 63932, Note_off_c, 1, 59, 0
1, 63936, Note_on_c, 1, 75, 127
1, 63936, Note_on_c, 1, 57, 127
1, 64028, Note_off_c, 1, 57, 0
1, 64032, Note_on_c, 1, 59, 127
1, 64124, Note_off_c, 1, 75, 0
1, 64124, Note_off_c, 1, 59, 0
1, 64128, Note_on_c, 1, 69, 127
1, 64128, Note_on_c, 1, 60, 127
1, 64220, Note_off_c, 1, 60, 0
1, 64224, Note_on_c, 1, 51, 127
1, 64316, Note_off_c, 1, 69, 0
1, 64316, Note_off_c, 1, 51, 0
1, 64320, Note_on_c, 1, 72, 127
1, 64320, Note_on_c, 1, 50, 127
1, 64412, Note_off_c, 1, 50, 0
1, 64416, Note_on_c, 1, 51, 127
1, 64508, Note_off_c, 1, 72, 0
1, 64508, Note_off_c, 1, 51, 0
1, 64512, Note_on_c, 1, 74, 127
1, 64512, Note_on_c, 1, 53, 127
1, 64604, Note_off_c, 1, 53, 0
1, 64608, Note_on_c, 1, 61, 127
1, 64640, Note_off_c, 1, 74, 0
1, 64700, Note_off_c, 1, 61, 0
1, 64704, Note_on_c, 1, 77, 127
1, 64704, Note_on_c, 1, 59, 127
1, 64796, Note_off_c, 1, 59, 0
1, 64800, Note_on_c, 1, 61, 127
1, 64892, Note_off_c, 1, 77, 0
1, 64892, Note_off_c, 1, 61, 0
1, 64896, Note_on_c, 1, 70, 127
1, 64896, Note_on_c, 1, 62, 127
1, 64988, Note_off_c, 1, 62, 0
1, 64992, Note_on_c, 1, 54, 127
1, 65084, Note_off_c, 1, 70, 0
1, 65084, Note_off_c, 1, 54, 0
1, 65088, Note_on_c, 1, 74, 127
1, 65088, Note_on_c, 1, 52, 127
1, 65180, Note_off_c, 1, 52, 0
1, 65184, Note_on_c, 1, 54, 127
1, 65276, Note_off_c, 1, 74, 0
1, 65276, Note_off_c, 1, 54, 0
1, 65280, Note_on_c, 1, 75, 127
1, 65280, Note_on_c, 1, 55, 127
1, 65372, Note_off_c, 1, 55, 0
1, 65376, Note_on_c, 1, 58, 127
1, 65408, Note_off_c, 1, 75, 0
1, 65468, Note_off_c, 1, 58, 0
1, 65472, Note_on_c, 1, 72, 127
1, 65472, Note_on_c, 1, 57, 127
1, 65564, Note_off_c, 1, 57, 0
1, 65568, Note_on_c, 1, 55, 127
1, 65660, Note_off_c, 1, 72, 0
1, 65660, Note_off_c, 1, 55, 0
1, 65664, Note_on_c, 1, 69, 127
1, 65664, Note_on_c, 1, 54, 127
1, 65756, Note_off_c, 1, 54, 0
1, 65760, Note_on_c, 1, 52, 127
1, 65852, Note_off_c, 1, 69, 0
1, 65852, Note_off_c, 1, 52, 0
1, 65856, Note_on_c, 1, 78, 127
1, 65856, Note_on_c, 1, 50, 127
1, 65948, Note_off_c, 1, 50, 0
1, 65952, Note_on_c, 1, 48, 127
1, 66044, Note_off_c, 1, 78, 0
1, 66044, Note_off_c, 1, 48, 0
1, 66048, Note_on_c, 1, 79, 127
1, 66048, Note_on_c, 1, 46, 127
1, 66140, Note_off_c, 1, 46, 0
1, 66144, Note_on_c, 1, 50, 127
1, 66236, Note_off_c, 1, 79, 0
1, 66236, Note_off_c, 1, 50, 0
1, 66240, Note_on_c, 1, 58, 127
1, 66240, Note_on_c, 1, 48, 127
1, 66332, Note_off_c, 1, 48, 0
1, 66336, Note_on_c, 1, 50, 127
1, 66368, Note_off_c, 1, 58, 0
1, 66428, Note_off_c, 1, 50, 0
1, 66432, Note_on_c, 1, 58, 127
1, 66432, Note_on_c, 1, 51, 127
1, 66524, Note_off_c, 1, 51, 0
1, 66528, Note_on_c, 1, 50, 127
1, 66560, Note_off_c, 1, 58, 0
1, 66620, Note_off_c, 1, 50, 0
1, 66624, Note_on_c, 1, 79, 127
1, 66624, Note_on_c, 1, 48, 127
1, 66716, Note_off_c, 1, 48, 0
1, 66720, Note_on_c, 1, 47, 127
1, 66812, Note_off_c, 1, 79, 0
1, 66812, Note_off_c, 1, 47, 0
1, 66816, Note_on_c, 1, 78, 127
1, 66816, Note_on_c, 1, 48, 127
1, 66908, Note_off_c, 1, 48, 0
1, 66912, Note_on_c, 1, 51, 127
1, 67004, Note_off_c, 1, 78, 0
1, 67004, Note_off_c, 1, 51, 0
1, 67008, Note_on_c, 1, 57, 127
1, 67008, Note_on_c, 1, 50, 127
1, 67100, Note_off_c, 1, 50, 0
1, 67104, Note_on_c, 1, 51, 127
1, 67136, Note_off_c, 1, 57, 0
1, 67196, Note_off_c, 1, 51, 0
1, 67200, Note_on_c, 1, 57, 127
1, 67200, Note_on_c, 1, 53, 127
1, 67292, Note_off_c, 1, 53, 0
1, 67296, Note_on_c, 1, 51, 127
1, 67328, Note_off_c, 1, 57, 0
1, 67388, Note_off_c, 1, 51, 0
1, 67392, Note_on_c, 1, 77, 127
1, 67392, Note_on_c, 1, 50, 127
1, 67484, Note_off_c, 1, 50, 0
1, 67488, Note_on_c, 1, 48, 127
1, 67580, Note_off_c, 1, 77, 0
1, 67580, Note_off_c, 1, 48, 0
1, 67584, Note_on_c, 1, 77, 127
1, 67584, Note_on_c, 1, 50, 127
1, 67676, Note_off_c, 1, 50, 0
1, 67680, Note_on_c, 1, 53, 127
1, 67712, Note_off_c, 1, 77, 0
1, 67772, Note_off_c, 1, 53, 0
1, 67776, Note_on_c, 1, 59, 127
1, 67776, Note_on_c, 1, 51, 127
1, 67868, Note_off_c, 1, 51, 0
1, 67872, Note_on_c, 1, 53, 127
1, 67904, Note_off_c, 1, 59, 0
1, 67964, Note_off_c, 1, 53, 0
1, 67968, Note_on_c, 1, 59, 127
1, 67968, Note_on_c, 1, 55, 127
1, 68060, Note_off_c, 1, 55, 0
1, 68064, Note_on_c, 1, 53, 127
1, 68096, Note_off_c, 1, 59, 0
1, 68156, Note_off_c, 1, 53, 0
1, 68160, Note_on_c, 1, 74, 127
1, 68160, Note_on_c, 1, 51, 127
1, 68252, Note_off_c, 1, 51, 0
1, 68256, Note_on_c, 1, 50, 127
1, 68348, Note_off_c, 1, 74, 0
1, 68348, Note_off_c, 1, 50, 0
1, 68352, Note_on_c, 1, 67, 127
1, 68352, Note_on_c, 1, 51, 127
1, 68444, Note_off_c, 1, 51, 0
1, 68448, Note_on_c, 1, 60, 127
1, 68540, Note_off_c, 1, 67, 0
1, 68540, Note_off_c, 1, 60, 0
1, 68544, Note_on_c, 1, 75, 127
1, 68544, Note_on_c, 1, 58, 127
1, 68636, Note_off_c, 1, 58, 0
1, 68640, Note_on_c, 1, 56, 127
1, 68732, Note_off_c, 1, 56, 0
1, 68736, Note_on_c, 1, 55, 127
1, 68828, Note_off_c, 1, 75, 0
1, 68828, Note_off_c, 1, 55, 0
1, 68832, Note_on_c, 1, 74, 127
1, 68832, Note_on_c, 1, 53, 127
1, 68924, Note_off_c, 1, 74, 0
1, 68924, Note_off_c, 1, 53, 0
1, 68928, Note_on_c, 1, 72, 127
1, 68928, Note_on_c, 1, 51, 127
1, 69020, Note_off_c, 1, 72, 0
1, 69020, Note_off_c, 1, 51, 0
1, 69024, Note_on_c, 1, 71, 127
1, 69024, Note_on_c, 1, 50, 127
1, 69116, Note_off_c, 1, 71, 0
1, 69116, Note_off_c, 1, 50, 0
1, 69120, Note_on_c, 1, 72, 127
1, 69120, Note_on_c, 1, 51, 127
1, 69212, Note_off_c, 1, 51, 0
1, 69216, Note_on_c, 1, 53, 127
1, 69308, Note_off_c, 1, 53, 0
1, 69312, Note_on_c, 1, 67, 127
1, 69408, Note_on_c, 1, 50, 127
1, 69500, Note_off_c, 1, 67, 0
1, 69500, Note_off_c, 1, 50, 0
1, 69504, Note_on_c, 1, 65, 127
1, 69504, Note_on_c, 1, 48, 127
1, 69596, Note_off_c, 1, 48, 0
1, 69600, Note_on_c, 1, 46, 127
1, 69692, Note_off_c, 1, 65, 0
1, 69692, Note_off_c, 1, 46, 0
1, 69696, Note_on_c, 1, 44, 127
1, 69788, Note_off_c, 1, 44, 0
1, 69792, Note_on_c, 1, 43, 127
1, 69884, Note_off_c, 1, 43, 0
1, 69888, Note_on_c, 1, 68, 127
1, 69888, Note_on_c, 1, 41, 127
1, 70016, Note_off_c, 1, 68, 0
1, 70076, Note_off_c, 1, 72, 0
1, 70080, Note_on_c, 1, 69, 127
1, 70268, Note_off_c, 1, 69, 0
1, 70272, Note_on_c, 1, 70, 127
1, 70460, Note_off_c, 1, 70, 0
1, 70656, Note_on_c, 1, 73, 127
1, 70748, Note_off_c, 1, 41, 0
1, 70844, Note_off_c, 1, 73, 0
1, 70848, Note_on_c, 1, 71, 127
1, 70848, Note_on_c, 1, 74, 127
1, 70848, Note_on_c, 1, 51, 127
1, 70940, Note_off_c, 1, 51, 0
1, 70944, Note_on_c, 1, 53, 127
1, 71036, Note_off_c, 1, 71, 0
1, 71036, Note_off_c, 1, 74, 0
1, 71036, Note_off_c, 1, 53, 0
1, 71040, Note_on_c, 1, 68, 127
1, 71040, Note_on_c, 1, 72, 127
1, 71040, Note_on_c, 1, 55, 127
1, 71132, Note_off_c, 1, 55, 0
1, 71136, Note_on_c, 1, 53, 127
1, 71228, Note_off_c, 1, 68, 0
1, 71228, Note_off_c, 1, 72, 0
1, 71228, Note_off_c, 1, 53, 0
1, 71232, Note_on_c, 1, 71, 127
1, 71232, Note_on_c, 1, 74, 127
1, 71232, Note_on_c, 1, 51, 127
1, 71324, Note_off_c, 1, 51, 0
1, 71328, Note_on_c, 1, 53, 127
1, 71420, Note_off_c, 1, 71, 0
1, 71420, Note_off_c, 1, 74, 0
1, 71420, Note_off_c, 1, 53, 0
1, 71424, Note_on_c, 1, 72, 127
1, 71424, Note_on_c, 1, 75, 127
1, 71424, Note_on_c, 1, 39, 127
1, 71516, Note_off_c, 1, 39, 0
1, 71520, Note_on_c, 1, 51, 127
1, 71612, Note_off_c, 1, 51, 0
1, 71616, Note_on_c, 1, 67, 127
1, 71616, Note_on_c, 1, 50, 127
1, 71708, Note_off_c, 1, 50, 0
1, 71804, Note_off_c, 1, 72, 0
1, 71804, Note_off_c, 1, 75, 0
1, 71804, Note_off_c, 1, 67, 0
1, 71808, Note_on_c, 1, 71, 127
1, 71808, Note_on_c, 1, 74, 127
1, 71808, Note_on_c, 1, 53, 127
1, 71900, Note_off_c, 1, 53, 0
1, 71904, Note_on_c, 1, 51, 127
1, 71996, Note_off_c, 1, 51, 0
1, 72000, Note_on_c, 1, 65, 127
1, 72000, Note_on_c, 1, 50, 127
1, 72092, Note_off_c, 1, 50, 0
1, 72188, Note_off_c, 1, 71, 0
1, 72188, Note_off_c, 1, 74, 0
1, 72188, Note_off_c, 1, 65, 0
1, 72192, Note_on_c, 1, 72, 127
1, 72192, Note_on_c, 1, 63, 127
1, 72192, Note_on_c, 1, 44, 127
1, 72284, Note_off_c, 1, 72, 0
1, 72288, Note_on_c, 1, 75, 127
1, 72380, Note_off_c, 1, 75, 0
1, 72384, Note_on_c, 1, 77, 127
1, 72476, Note_off_c, 1, 77, 0
1, 72480, Note_on_c, 1, 79, 127
1, 72572, Note_off_c, 1, 63, 0
1, 72572, Note_off_c, 1, 44, 0
1, 72572, Note_off_c, 1, 79, 0
1, 72576, Note_on_c, 1, 80, 127
1, 72576, Note_on_c, 1, 72, 127
1, 72576, Note_on_c, 1, 53, 127
1, 72668, Note_off_c, 1, 80, 0
1, 72672, Note_on_c, 1, 79, 127
1, 72764, Note_off_c, 1, 79, 0
1, 72768, Note_on_c, 1, 77, 127
1, 72860, Note_off_c, 1, 77, 0
1, 72864, Note_on_c, 1, 75, 127
1, 72956, Note_off_c, 1, 75, 0
1, 72960, Note_on_c, 1, 74, 127
1, 73052, Note_off_c, 1, 74, 0
1, 73148, Note_off_c, 1, 72, 0
1, 73152, Note_on_c, 1, 70, 127
1, 73340, Note_off_c, 1, 53, 0
1, 73340, Note_off_c, 1, 70, 0
1, 73344, Note_on_c, 1, 74, 127
1, 73344, Note_on_c, 1, 65, 127
1, 73344, Note_on_c, 1, 58, 127
1, 73436, Note_off_c, 1, 74, 0
1, 73440, Note_on_c, 1, 72, 127
1, 73532, Note_off_c, 1, 65, 0
1, 73532, Note_off_c, 1, 72, 0
1, 73536, Note_on_c, 1, 70, 127
1, 73536, Note_on_c, 1, 62, 127
1, 73628, Note_off_c, 1, 70, 0
1, 73632, Note_on_c, 1, 68, 127
1, 73724, Note_off_c, 1, 58, 0
1, 73724, Note_off_c, 1, 62, 0
1, 73724, Note_off_c, 1, 68, 0
1, 73728, Note_on_c, 1, 67, 127
1, 73728, Note_on_c, 1, 63, 127
1, 73820, Note_off_c, 1, 67, 0
1, 73824, Note_on_c, 1, 74, 127
1, 73916, Note_off_c, 1, 74, 0
1, 73920, Note_on_c, 1, 75, 127
1, 74012, Note_off_c, 1, 75, 0
1, 74016, Note_on_c, 1, 77, 127
1, 74108, Note_off_c, 1, 63, 0
1, 74108, Note_off_c, 1, 77, 0
1, 74112, Note_on_c, 1, 79, 127
1, 74112, Note_on_c, 1, 67, 127
1, 74112, Note_on_c, 1, 51, 127
1, 74204, Note_off_c, 1, 79, 0
1, 74208, Note_on_c, 1, 77, 127
1, 74300, Note_off_c, 1, 77, 0
1, 74304, Note_on_c, 1, 75, 127
1, 74396, Note_off_c, 1, 75, 0
1, 74400, Note_on_c, 1, 74, 127
1, 74492, Note_off_c, 1, 67, 0
1, 74492, Note_off_c, 1, 74, 0
1, 74496, Note_on_c, 1, 71, 127
1, 74496, Note_on_c, 1, 68, 127
1, 74588, Note_off_c, 1, 71, 0
1, 74592, Note_on_c, 1, 72, 127
1, 74684, Note_off_c, 1, 68, 0
1, 74684, Note_off_c, 1, 72, 0
1, 74876, Note_off_c, 1, 51, 0
1, 74880, Note_on_c, 1, 77, 127
1, 74880, Note_on_c, 1, 72, 127
1, 74880, Note_on_c, 1, 56, 127
1, 74972, Note_off_c, 1, 77, 0
1, 74976, Note_on_c, 1, 75, 127
1, 75068, Note_off_c, 1, 72, 0
1, 75068, Note_off_c, 1, 75, 0
1, 75072, Note_on_c, 1, 74, 127
1, 75164, Note_off_c, 1, 74, 0
1, 75260, Note_off_c, 1, 56, 0
1, 75264, Note_on_c, 1, 79, 127
1, 75264, Note_on_c, 1, 71, 127
1, 75264, Note_on_c, 1, 55, 127
1, 75392, Note_off_c, 1, 79, 0
1, 75456, Note_on_c, 1, 67, 127
1, 75644, Note_off_c, 1, 71, 0
1, 75644, Note_off_c, 1, 55, 0
1, 75644, Note_off_c, 1, 67, 0
1, 75648, Note_on_c, 1, 65, 127
1, 75836, Note_off_c, 1, 65, 0
1, 75840, Note_on_c, 1, 67, 127
1, 76028, Note_off_c, 1, 67, 0
1, 76032, Note_on_c, 1, 68, 127
1, 76160, Note_off_c, 1, 68, 0
1, 76224, Note_on_c, 1, 69, 127
1, 76412, Note_off_c, 1, 69, 0
1, 76416, Note_on_c, 1, 67, 127
1, 76604, Note_off_c, 1, 67, 0
1, 76608, Note_on_c, 1, 69, 127
1, 76796, Note_off_c, 1, 69, 0
1, 76800, Note_on_c, 1, 70, 127
1, 76928, Note_off_c, 1, 70, 0
1, 76992, Note_on_c, 1, 71, 127
1, 77180, Note_off_c, 1, 71, 0
1, 77184, Note_on_c, 1, 69, 127
1, 77372, Note_off_c, 1, 69, 0
1, 77376, Note_on_c, 1, 71, 127
1, 77564, Note_off_c, 1, 71, 0
1, 77568, Note_on_c, 1, 72, 127
1, 77696, Note_off_c, 1, 72, 0
1, 77760, Note_on_c, 1, 67, 127
1, 77888, Note_off_c, 1, 67, 0
1, 77952, Note_on_c, 1, 74, 127
1, 78080, Note_off_c, 1, 74, 0
1, 78144, Note_on_c, 1, 65, 127
1, 78272, Note_off_c, 1, 65, 0
1, 78336, Note_on_c, 1, 63, 127
1, 78528, Note_on_c, 1, 62, 127
1, 78592, Note_off_c, 1, 63, 0
1, 78716, Note_off_c, 1, 62, 0
1, 78720, Note_on_c, 1, 68, 127
1, 78720, Note_on_c, 1, 60, 127
1, 78908, Note_off_c, 1, 60, 0
1, 78912, Note_on_c, 1, 62, 127
1, 79100, Note_off_c, 1, 62, 0
1, 79104, Note_on_c, 1, 63, 127
1, 79232, Note_off_c, 1, 63, 0
1, 79292, Note_off_c, 1, 68, 0
1, 79296, Note_on_c, 1, 67, 127
1, 79296, Note_on_c, 1, 64, 127
1, 79484, Note_off_c, 1, 67, 0
1, 79484, Note_off_c, 1, 64, 0
1, 79488, Note_on_c, 1, 70, 127
1, 79488, Note_on_c, 1, 62, 127
1, 79676, Note_off_c, 1, 62, 0
1, 79680, Note_on_c, 1, 64, 127
1, 79868, Note_off_c, 1, 64, 0
1, 79872, Note_on_c, 1, 65, 127
1, 80000, Note_off_c, 1, 65, 0
1, 80060, Note_off_c, 1, 70, 0
1, 80064, Note_on_c, 1, 69, 127
1, 80064, Note_on_c, 1, 66, 127
1, 80192, Note_off_c, 1, 69, 0
1, 80252, Note_off_c, 1, 66, 0
1, 80256, Note_on_c, 1, 72, 127
1, 80256, Note_on_c, 1, 64, 127
1, 80444, Note_off_c, 1, 64, 0
1, 80448, Note_on_c, 1, 66, 127
1, 80636, Note_off_c, 1, 72, 0
1, 80636, Note_off_c, 1, 66, 0
1, 80640, Note_on_c, 1, 67, 127
1, 80640, Note_on_c, 1, 70, 127
1, 80768, Note_off_c, 1, 67, 0
1, 80832, Note_on_c, 1, 62, 127
1, 80960, Note_off_c, 1, 62, 0
1, 81020, Note_off_c, 1, 70, 0
1, 81024, Note_on_c, 1, 69, 127
1, 81024, Note_on_c, 1, 65, 127
1, 81152, Note_off_c, 1, 69, 0
1, 81216, Note_on_c, 1, 60, 127
1, 81344, Note_off_c, 1, 60, 0
1, 81404, Note_off_c, 1, 65, 0
1, 81408, Note_on_c, 1, 58, 127
1, 81408, Note_on_c, 1, 67, 127
1, 81600, Note_on_c, 1, 55, 127
1, 81788, Note_off_c, 1, 58, 0
1, 81788, Note_off_c, 1, 67, 0
1, 81788, Note_off_c, 1, 55, 0
1, 81792, Note_on_c, 1, 70, 127
1, 81792, Note_on_c, 1, 61, 127
1, 81792, Note_on_c, 1, 53, 127
1, 81980, Note_off_c, 1, 53, 0
1, 81984, Note_on_c, 1, 55, 127
1, 82172, Note_off_c, 1, 70, 0
1, 82172, Note_off_c, 1, 55, 0
1, 82176, Note_on_c, 1, 63, 127
1, 82176, Note_on_c, 1, 56, 127
1, 82304, Note_off_c, 1, 56, 0
1, 82364, Note_off_c, 1, 61, 0
1, 82368, Note_on_c, 1, 60, 127
1, 82368, Note_on_c, 1, 57, 127
1, 82556, Note_off_c, 1, 63, 0
1, 82556, Note_off_c, 1, 60, 0
1, 82556, Note_off_c, 1, 57, 0
1, 82560, Note_on_c, 1, 72, 127
1, 82560, Note_on_c, 1, 63, 127
1, 82560, Note_on_c, 1, 55, 127
1, 82748, Note_off_c, 1, 55, 0
1, 82752, Note_on_c, 1, 57, 127
1, 82940, Note_off_c, 1, 72, 0
1, 82940, Note_off_c, 1, 57, 0
1, 82944, Note_on_c, 1, 65, 127
1, 82944, Note_on_c, 1, 58, 127
1, 83072, Note_off_c, 1, 58, 0
1, 83132, Note_off_c, 1, 63, 0
1, 83136, Note_on_c, 1, 62, 127
1, 83136, Note_on_c, 1, 59, 127
1, 83324, Note_off_c, 1, 65, 0
1, 83324, Note_off_c, 1, 62, 0
1, 83324, Note_off_c, 1, 59, 0
1, 83328, Note_on_c, 1, 65, 127
1, 83328, Note_on_c, 1, 74, 127
1, 83328, Note_on_c, 1, 57, 127
1, 83516, Note_off_c, 1, 57, 0
1, 83520, Note_on_c, 1, 59, 127
1, 83708, Note_off_c, 1, 65, 0
1, 83708, Note_off_c, 1, 59, 0
1, 83712, Note_on_c, 1, 63, 127
1, 83712, Note_on_c, 1, 60, 127
1, 83840, Note_off_c, 1, 60, 0
1, 83900, Note_off_c, 1, 74, 0
1, 83904, Note_on_c, 1, 72, 127
1, 83904, Note_on_c, 1, 55, 127
1, 84032, Note_off_c, 1, 55, 0
1, 84092, Note_off_c, 1, 63, 0
1, 84096, Note_on_c, 1, 62, 127
1, 84224, Note_off_c, 1, 62, 0
1, 84284, Note_off_c, 1, 72, 0
1, 84288, Note_on_c, 1, 68, 127
1, 84288, Note_on_c, 1, 71, 127
1, 84288, Note_on_c, 1, 53, 127
1, 84416, Note_off_c, 1, 53, 0
1, 84476, Note_off_c, 1, 68, 0
1, 84476, Note_off_c, 1, 71, 0
1, 84480, Note_on_c, 1, 67, 127
1, 84480, Note_on_c, 1, 72, 127
1, 84480, Note_on_c, 1, 51, 127
1, 84608, Note_off_c, 1, 51, 0
1, 84672, Note_on_c, 1, 60, 127
1, 84860, Note_off_c, 1, 67, 0
1, 84860, Note_off_c, 1, 72, 0
1, 84860, Note_off_c, 1, 60, 0
1, 84864, Note_on_c, 1, 64, 127
1, 84864, Note_on_c, 1, 73, 127
1, 84864, Note_on_c, 1, 58, 127
1, 85052, Note_off_c, 1, 58, 0
1, 85056, Note_on_c, 1, 60, 127
1, 85244, Note_off_c, 1, 64, 0
1, 85244, Note_off_c, 1, 73, 0
1, 85244, Note_off_c, 1, 60, 0
1, 85248, Note_on_c, 1, 65, 127
1, 85248, Note_on_c, 1, 71, 127
1, 85248, Note_on_c, 1, 62, 127
1, 85376, Note_off_c, 1, 62, 0
1, 85440, Note_on_c, 1, 56, 127
1, 85568, Note_off_c, 1, 56, 0
1, 85628, Note_off_c, 1, 65, 0
1, 85628, Note_off_c, 1, 71, 0
1, 85632, Note_on_c, 1, 67, 127
1, 85632, Note_on_c, 1, 70, 127
1, 85632, Note_on_c, 1, 64, 127
1, 85760, Note_off_c, 1, 64, 0
1, 85824, Note_on_c, 1, 55, 127
1, 85952, Note_off_c, 1, 55, 0
1, 86012, Note_off_c, 1, 67, 0
1, 86012, Note_off_c, 1, 70, 0
1, 86016, Note_on_c, 1, 68, 127
1, 86016, Note_on_c, 1, 53, 127
1, 86144, Note_off_c, 1, 53, 0
1, 86208, Note_on_c, 1, 62, 127
1, 86272, Note_off_c, 1, 68, 0
1, 86396, Note_off_c, 1, 62, 0
1, 86400, Note_on_c, 1, 66, 127
1, 86400, Note_on_c, 1, 75, 127
1, 86400, Note_on_c, 1, 60, 127
1, 86588, Note_off_c, 1, 60, 0
1, 86592, Note_on_c, 1, 62, 127
1, 86780, Note_off_c, 1, 66, 0
1, 86780, Note_off_c, 1, 75, 0
1, 86780, Note_off_c, 1, 62, 0
1, 86784, Note_on_c, 1, 67, 127
1, 86784, Note_on_c, 1, 73, 127
1, 86784, Note_on_c, 1, 64, 127
1, 86912, Note_off_c, 1, 64, 0
1, 86976, Note_on_c, 1, 58, 127
1, 87104, Note_off_c, 1, 58, 0
1, 87164, Note_off_c, 1, 67, 0
1, 87164, Note_off_c, 1, 73, 0
1, 87168, Note_on_c, 1, 69, 127
1, 87168, Note_on_c, 1, 72, 127
1, 87168, Note_on_c, 1, 66, 127
1, 87296, Note_off_c, 1, 66, 0
1, 87360, Note_on_c, 1, 57, 127
1, 87488, Note_off_c, 1, 57, 0
1, 87548, Note_off_c, 1, 69, 0
1, 87548, Note_off_c, 1, 72, 0
1, 87552, Note_on_c, 1, 71, 127
1, 87552, Note_on_c, 1, 67, 127
1, 87680, Note_off_c, 1, 71, 0
1, 87740, Note_off_c, 1, 67, 0
1, 87744, Note_on_c, 1, 79, 127
1, 87744, Note_on_c, 1, 55, 127
1, 87836, Note_off_c, 1, 55, 0
1, 87840, Note_on_c, 1, 57, 127
1, 87932, Note_off_c, 1, 79, 0
1, 87932, Note_off_c, 1, 57, 0
1, 87936, Note_on_c, 1, 77, 127
1, 87936, Note_on_c, 1, 74, 127
1, 87936, Note_on_c, 1, 59, 127
1, 88028, Note_off_c, 1, 59, 0
1, 88032, Note_on_c, 1, 60, 127
1, 88124, Note_off_c, 1, 77, 0
1, 88124, Note_off_c, 1, 60, 0
1, 88128, Note_on_c, 1, 79, 127
1, 88128, Note_on_c, 1, 62, 127
1, 88220, Note_off_c, 1, 62, 0
1, 88316, Note_off_c, 1, 74, 0
1, 88316, Note_off_c, 1, 79, 0
1, 88320, Note_on_c, 1, 80, 127
1, 88320, Note_on_c, 1, 75, 127
1, 88320, Note_on_c, 1, 60, 127
1, 88448, Note_off_c, 1, 80, 0
1, 88508, Note_off_c, 1, 60, 0
1, 88512, Note_on_c, 1, 81, 127
1, 88512, Note_on_c, 1, 57, 127
1, 88604, Note_off_c, 1, 57, 0
1, 88608, Note_on_c, 1, 59, 127
1, 88700, Note_off_c, 1, 75, 0
1, 88700, Note_off_c, 1, 81, 0
1, 88700, Note_off_c, 1, 59, 0
1, 88704, Note_on_c, 1, 79, 127
1, 88704, Note_on_c, 1, 65, 127
1, 88704, Note_on_c, 1, 60, 127
1, 88796, Note_off_c, 1, 60, 0
1, 88800, Note_on_c, 1, 62, 127
1, 88892, Note_off_c, 1, 79, 0
1, 88892, Note_off_c, 1, 62, 0
1, 88896, Note_on_c, 1, 81, 127
1, 88896, Note_on_c, 1, 63, 127
1, 88988, Note_off_c, 1, 63, 0
1, 89084, Note_off_c, 1, 65, 0
1, 89084, Note_off_c, 1, 81, 0
1, 89088, Note_on_c, 1, 82, 127
1, 89088, Note_on_c, 1, 67, 127
1, 89088, Note_on_c, 1, 62, 127
1, 89180, Note_off_c, 1, 62, 0
1, 89184, Note_on_c, 1, 60, 127
1, 89216, Note_off_c, 1, 82, 0
1, 89276, Note_off_c, 1, 60, 0
1, 89280, Note_on_c, 1, 83, 127
1, 89280, Note_on_c, 1, 59, 127
1, 89372, Note_off_c, 1, 59, 0
1, 89376, Note_on_c, 1, 57, 127
1, 89468, Note_off_c, 1, 67, 0
1, 89468, Note_off_c, 1, 83, 0
1, 89468, Note_off_c, 1, 57, 0
1, 89472, Note_on_c, 1, 81, 127
1, 89472, Note_on_c, 1, 74, 127
1, 89472, Note_on_c, 1, 55, 127
1, 89564, Note_off_c, 1, 55, 0
1, 89568, Note_on_c, 1, 53, 127
1, 89660, Note_off_c, 1, 81, 0
1, 89660, Note_off_c, 1, 53, 0
1, 89664, Note_on_c, 1, 83, 127
1, 89664, Note_on_c, 1, 51, 127
1, 89756, Note_off_c, 1, 51, 0
1, 89760, Note_on_c, 1, 50, 127
1, 89852, Note_off_c, 1, 74, 0
1, 89852, Note_off_c, 1, 83, 0
1, 89852, Note_off_c, 1, 50, 0
1, 89856, Note_on_c, 1, 84, 127
1, 89856, Note_on_c, 1, 72, 127
1, 89856, Note_on_c, 1, 51, 127
1, 89948, Note_off_c, 1, 51, 0
1, 89952, Note_on_c, 1, 50, 127
1, 90044, Note_off_c, 1, 84, 0
1, 90044, Note_off_c, 1, 50, 0
1, 90048, Note_on_c, 1, 79, 127
1, 90048, Note_on_c, 1, 48, 127
1, 90140, Note_off_c, 1, 48, 0
1, 90144, Note_on_c, 1, 47, 127
1, 90236, Note_off_c, 1, 79, 0
1, 90236, Note_off_c, 1, 47, 0
1, 90240, Note_on_c, 1, 86, 127
1, 90240, Note_on_c, 1, 45, 127
1, 90332, Note_off_c, 1, 45, 0
1, 90336, Note_on_c, 1, 43, 127
1, 90428, Note_off_c, 1, 72, 0
1, 90428, Note_off_c, 1, 86, 0
1, 90428, Note_off_c, 1, 43, 0
1, 90432, Note_on_c, 1, 71, 127
1, 90432, Note_on_c, 1, 77, 127
1, 90432, Note_on_c, 1, 41, 127
1, 90524, Note_off_c, 1, 41, 0
1, 90528, Note_on_c, 1, 43, 127
1, 90620, Note_off_c, 1, 71, 0
1, 90620, Note_off_c, 1, 77, 0
1, 90620, Note_off_c, 1, 43, 0
1, 90624, Note_on_c, 1, 72, 127
1, 90624, Note_on_c, 1, 75, 127
1, 90624, Note_on_c, 1, 36, 127
1, 91004, Note_off_c, 1, 72, 0
1, 91004, Note_off_c, 1, 75, 0
1, 91004, Note_off_c, 1, 36, 0
1, 91296, Note_on_c, 1, 75, 127
1, 91296, Note_on_c, 1, 84, 127
1, 91296, Note_on_c, 1, 44, 127
1, 91296, Note_on_c, 1, 56, 127
1, 91388, Note_off_c, 1, 75, 0
1, 91388, Note_off_c, 1, 84, 0
1, 91388, Note_off_c, 1, 44, 0
1, 91388, Note_off_c, 1, 56, 0
1, 91392, Note_on_c, 1, 75, 127
1, 91392, Note_on_c, 1, 84, 127
1, 91392, Note_on_c, 1, 56, 127
1, 91392, Note_on_c, 1, 44, 127
1, 91964, Note_off_c, 1, 75, 0
1, 91964, Note_off_c, 1, 84, 0
1, 91964, Note_off_c, 1, 56, 0
1, 91964, Note_off_c, 1, 44, 0
1, 92064, Note_on_c, 1, 72, 127
1, 92064, Note_on_c, 1, 75, 127
1, 92064, Note_on_c, 1, 44, 127
1, 92064, Note_on_c, 1, 56, 127
1, 92128, Note_off_c, 1, 44, 0
1, 92156, Note_off_c, 1, 72, 0
1, 92156, Note_off_c, 1, 75, 0
1, 92156, Note_off_c, 1, 56, 0
1, 92160, Note_on_c, 1, 68, 127
1, 92160, Note_on_c, 1, 75, 127
1, 92160, Note_on_c, 1, 41, 127
1, 92160, Note_on_c, 1, 53, 127
1, 92540, Note_off_c, 1, 68, 0
1, 92544, Note_on_c, 1, 72, 127
1, 92924, Note_off_c, 1, 75, 0
1, 92924, Note_off_c, 1, 41, 0
1, 92924, Note_off_c, 1, 53, 0
1, 92924, Note_off_c, 1, 72, 0
1, 92928, Note_on_c, 1, 71, 127
1, 92928, Note_on_c, 1, 74, 127
1, 92928, Note_on_c, 1, 43, 127
1, 92928, Note_on_c, 1, 55, 127
1, 93308, Note_off_c, 1, 71, 0
1, 93308, Note_off_c, 1, 43, 0
1, 93308, Note_off_c, 1, 55, 0
1, 93312, Note_on_c, 1, 65, 127
1, 93312, Note_on_c, 1, 31, 127
1, 93692, Note_off_c, 1, 74, 0
1, 93692, Note_off_c, 1, 65, 0
1, 93692, Note_off_c, 1, 31, 0
1, 93696, Note_on_c, 1, 65, 127
1, 93696, Note_on_c, 1, 72, 127
1, 93696, Note_on_c, 1, 36, 127
1, 93696, Note_on_c, 1, 48, 127
1, 94076, Note_off_c, 1, 65, 0
1, 94080, Note_on_c, 1, 64, 127
1, 94268, Note_off_c, 1, 64, 0
1, 94272, Note_on_c, 1, 62, 127
1, 94460, Note_off_c, 1, 62, 0
1, 95996, Note_off_c, 1, 72, 0
1, 95996, Note_off_c, 1, 36, 0
1, 96000, Note_off_c, 1, 48, 0
1, 96000, End_track
0, 0, End_of_file