0, 0, Header, 1, 1, 480
1, 0, Start_track
1, 0, Title_t, "Test"
1, 0, Tempo, 500000
1, 0, Instrument_name_t, "Church Organ"
1, 96, Note_on_c, 1, 48, 127
1, 96, Note_on_c, 1, 60, 127
1, 98, Note_on_c, 1, 67, 127
1, 98, Note_on_c, 1, 76, 127
1, 1533, Note_off_c, 1, 48, 0
1, 1535, Note_off_c, 1, 67, 0
1, 1747, Note_on_c, 1, 55, 127
1, 2009, Note_off_c, 1, 55, 0
1, 2014, Note_on_c, 1, 57, 127
1, 2032, Note_off_c, 1, 60, 0
1, 2372, Note_off_c, 1, 57, 0
1, 2494, Note_on_c, 1, 59, 127
1, 2732, Note_off_c, 1, 59, 0
1, 2734, Note_on_c, 1, 62, 127
1, 2852, Note_off_c, 1, 62, 0
1, 2974, Note_off_c, 1, 76, 0
1, 3934, Note_on_c, 1, 69, 127
1, 3934, Note_on_c, 1, 60, 127
1, 4292, Note_off_c, 1, 69, 0
1, 4292, Note_off_c, 1, 60, 0
1, 4294, Note_on_c, 1, 72, 127
1, 4294, Note_on_c, 1, 64, 127
1, 4412, Note_off_c, 1, 72, 0
1, 4412, Note_off_c, 1, 64, 0
1, 4414, Note_on_c, 1, 71, 127
1, 4414, Note_on_c, 1, 62, 127
1, 4652, Note_off_c, 1, 71, 0
1, 4652, Note_off_c, 1, 62, 0
1, 4654, Note_on_c, 1, 74, 127
1, 4654, Note_on_c, 1, 65, 127
1, 4772, Note_off_c, 1, 74, 0
1, 4772, Note_off_c, 1, 65, 0
1, 4774, Note_on_c, 1, 72, 127
1, 4774, Note_on_c, 1, 64, 127
1, 4892, Note_off_c, 1, 72, 0
1, 4892, Note_off_c, 1, 64, 0
1, 4894, Note_on_c, 1, 64, 127
1, 4894, Note_on_c, 1, 72, 127
1, 5136, Note_on_c, 1, 43, 127
1, 5374, Note_off_c, 1, 43, 0
1, 5374, Note_on_c, 1, 45, 127
1, 5544, Note_off_c, 1, 64, 0
1, 5612, Note_off_c, 1, 45, 0
1, 5614, Note_on_c, 1, 48, 127
1, 5614, Note_on_c, 1, 74, 127
1, 5732, Note_off_c, 1, 48, 0
1, 5734, Note_on_c, 1, 47, 127
1, 5852, Note_off_c, 1, 74, 0
1, 5852, Note_off_c, 1, 47, 0
1, 5854, Note_on_c, 1, 76, 127
1, 6212, Note_off_c, 1, 76, 0
1, 6214, Note_on_c, 1, 79, 127
1, 6214, Note_on_c, 1, 50, 127
1, 6332, Note_off_c, 1, 79, 0
1, 6332, Note_off_c, 1, 50, 0
1, 6334, Note_on_c, 1, 52, 127
1, 6334, Note_on_c, 1, 77, 127
1, 6499, Note_off_c, 1, 52, 0
1, 6571, Note_off_c, 1, 77, 0
1, 6573, Note_on_c, 1, 81, 127
1, 6691, Note_off_c, 1, 81, 0
1, 7052, Note_on_c, 1, 55, 127
1, 7290, Note_off_c, 1, 55, 0
1, 7292, Note_on_c, 1, 57, 127
1, 7530, Note_off_c, 1, 57, 0
1, 7532, Note_on_c, 1, 60, 127
1, 7650, Note_off_c, 1, 60, 0
1, 7652, Note_on_c, 1, 59, 127
1, 7767, Note_off_c, 1, 72, 0
1, 7769, Note_off_c, 1, 59, 0
1, 8999, Note_on_c, 1, 67, 127
1, 9237, Note_off_c, 1, 67, 0
1, 9239, Note_on_c, 1, 69, 127
1, 9477, Note_off_c, 1, 69, 0
1, 9479, Note_on_c, 1, 70, 127
1, 9717, Note_off_c, 1, 70, 0
1, 10199, Note_on_c, 1, 65, 127
1, 10317, Note_off_c, 1, 65, 0
1, 12119, Note_on_c, 1, 71, 127
1, 12237, Note_off_c, 1, 71, 0
1, 14158, Note_on_c, 1, 62, 127
1, 14276, Note_off_c, 1, 62, 0
1, 14518, Note_on_c, 1, 64, 127
1, 14518, Note_on_c, 1, 72, 127
1, 14518, Note_on_c, 1, 60, 127
1, 14756, Note_off_c, 1, 64, 0
1, 14998, Note_on_c, 1, 67, 127
1, 15218, Note_off_c, 1, 72, 0
1, 15473, Note_off_c, 1, 67, 0
1, 15477, Note_on_c, 1, 74, 127
1, 15717, Note_on_c, 1, 65, 127
1, 15955, Note_off_c, 1, 65, 0
1, 15957, Note_on_c, 1, 71, 127
1, 16177, Note_off_c, 1, 74, 0
1, 16432, Note_off_c, 1, 71, 0
1, 16436, Note_on_c, 1, 76, 127
1, 17136, Note_off_c, 1, 76, 0
1, 17635, Note_on_c, 1, 69, 127
1, 17753, Note_off_c, 1, 69, 0
1, 18235, Note_on_c, 1, 68, 127
1, 18340, Note_off_c, 1, 60, 0
1, 18352, Note_off_c, 1, 68, 0
1, 18594, Note_on_c, 1, 78, 127
1, 18712, Note_off_c, 1, 78, 0
1, 18714, Note_on_c, 1, 80, 127
1, 18832, Note_off_c, 1, 80, 0
1, 18834, Note_on_c, 1, 81, 127
1, 18952, Note_off_c, 1, 81, 0
1, 18954, Note_on_c, 1, 83, 127
1, 19072, Note_off_c, 1, 83, 0
1, 19074, Note_on_c, 1, 84, 127
1, 19192, Note_off_c, 1, 84, 0
1, 19434, Note_on_c, 1, 79, 127
1, 19552, Note_off_c, 1, 79, 0
1, 20994, Note_on_c, 1, 66, 127
1, 21112, Note_off_c, 1, 66, 0
1, 21234, Note_on_c, 1, 62, 127
1, 21352, Note_off_c, 1, 62, 0
1, 21474, Note_on_c, 1, 59, 127
1, 21592, Note_off_c, 1, 59, 0
1, 21714, Note_on_c, 1, 57, 127
1, 21952, Note_off_c, 1, 57, 0
1, 22194, Note_on_c, 1, 59, 127
1, 22314, Note_on_c, 1, 74, 127
1, 22432, Note_off_c, 1, 74, 0
1, 22434, Note_on_c, 1, 76, 127
1, 22552, Note_off_c, 1, 76, 0
1, 22554, Note_on_c, 1, 78, 127
1, 22672, Note_off_c, 1, 78, 0
1, 22674, Note_on_c, 1, 79, 127
1, 22674, Note_on_c, 1, 62, 127
1, 22792, Note_off_c, 1, 79, 0
1, 22794, Note_on_c, 1, 81, 127
1, 22912, Note_off_c, 1, 81, 0
1, 22914, Note_on_c, 1, 83, 127
1, 23032, Note_off_c, 1, 83, 0
1, 23154, Note_on_c, 1, 67, 127
1, 23274, Note_on_c, 1, 77, 127
1, 23392, Note_off_c, 1, 77, 0
1, 23634, Note_on_c, 1, 72, 127
1, 23752, Note_off_c, 1, 72, 0
1, 23754, Note_on_c, 1, 71, 127
1, 23872, Note_off_c, 1, 71, 0
1, 24112, Note_off_c, 1, 59, 0
1, 24112, Note_off_c, 1, 62, 0
1, 24114, Note_on_c, 1, 57, 127
1, 24219, Note_off_c, 1, 67, 0
1, 24234, Note_on_c, 1, 69, 127
1, 24352, Note_off_c, 1, 69, 0
1, 24474, Note_on_c, 1, 65, 127
1, 24592, Note_off_c, 1, 65, 0
1, 24594, Note_on_c, 1, 64, 127
1, 24712, Note_off_c, 1, 64, 0
1, 24834, Note_on_c, 1, 60, 127
1, 24952, Note_off_c, 1, 60, 0
1, 24972, Note_off_c, 1, 57, 0
1, 25674, Note_on_c, 1, 66, 127
1, 25792, Note_off_c, 1, 66, 0
1, 27951, Note_on_c, 1, 67, 127
1, 27951, Note_on_c, 1, 71, 127
1, 28311, Note_on_c, 1, 55, 127
1, 28429, Note_off_c, 1, 55, 0
1, 28431, Note_on_c, 1, 53, 127
1, 28549, Note_off_c, 1, 53, 0
1, 28551, Note_on_c, 1, 52, 127
1, 28669, Note_off_c, 1, 52, 0
1, 28671, Note_on_c, 1, 50, 127
1, 28789, Note_off_c, 1, 50, 0
1, 29311, Note_on_c, 1, 57, 127
1, 29391, Note_off_c, 1, 57, 0
1, 29869, Note_off_c, 1, 67, 0
1, 29869, Note_off_c, 1, 71, 0
1, 29871, Note_on_c, 1, 52, 127
1, 29991, Note_on_c, 1, 72, 127
1, 30109, Note_off_c, 1, 72, 0
1, 30111, Note_on_c, 1, 71, 127
1, 30229, Note_off_c, 1, 71, 0
1, 30231, Note_on_c, 1, 69, 127
1, 30349, Note_off_c, 1, 69, 0
1, 30351, Note_on_c, 1, 67, 127
1, 30469, Note_off_c, 1, 67, 0
1, 30471, Note_on_c, 1, 65, 127
1, 30589, Note_off_c, 1, 65, 0
1, 30591, Note_on_c, 1, 64, 127
1, 30709, Note_off_c, 1, 64, 0
1, 31431, Note_on_c, 1, 60, 127
1, 31671, Note_on_c, 1, 70, 127
1, 31781, Note_off_c, 1, 60, 0
1, 31789, Note_off_c, 1, 52, 0
1, 31789, Note_off_c, 1, 70, 0
1, 31791, Note_on_c, 1, 69, 127
1, 31791, Note_on_c, 1, 53, 127
1, 31911, Note_on_c, 1, 81, 127
1, 32029, Note_off_c, 1, 69, 0
1, 32029, Note_off_c, 1, 81, 0
1, 32031, Note_on_c, 1, 79, 127
1, 32149, Note_off_c, 1, 79, 0
1, 32151, Note_on_c, 1, 77, 127
1, 32269, Note_off_c, 1, 77, 0
1, 32271, Note_on_c, 1, 76, 127
1, 32389, Note_off_c, 1, 76, 0
1, 32391, Note_on_c, 1, 74, 127
1, 32509, Note_off_c, 1, 74, 0
1, 32511, Note_on_c, 1, 73, 127
1, 32629, Note_off_c, 1, 73, 0
1, 32749, Note_off_c, 1, 53, 0
1, 32751, Note_on_c, 1, 76, 127
1, 32751, Note_on_c, 1, 49, 127
1, 32871, Note_on_c, 1, 73, 127
1, 32989, Note_off_c, 1, 76, 0
1, 32989, Note_off_c, 1, 73, 0
1, 32991, Note_on_c, 1, 74, 127
1, 33109, Note_off_c, 1, 74, 0
1, 33351, Note_on_c, 1, 69, 127
1, 33591, Note_on_c, 1, 79, 127
1, 33708, Note_off_c, 1, 49, 0
1, 33708, Note_off_c, 1, 79, 0
1, 33710, Note_off_c, 1, 69, 0
1, 33710, Note_on_c, 1, 78, 127
1, 33710, Note_on_c, 1, 50, 127
1, 33950, Note_on_c, 1, 72, 127
1, 34068, Note_off_c, 1, 72, 0
1, 34070, Note_on_c, 1, 71, 127
1, 34188, Note_off_c, 1, 71, 0
1, 34310, Note_on_c, 1, 67, 127
1, 34428, Note_off_c, 1, 67, 0
1, 34430, Note_on_c, 1, 66, 127
1, 34548, Note_off_c, 1, 66, 0
1, 34660, Note_off_c, 1, 78, 0
1, 35270, Note_on_c, 1, 62, 127
1, 35628, Note_off_c, 1, 50, 0
1, 35630, Note_on_c, 1, 55, 127
1, 35745, Note_off_c, 1, 62, 0
1, 35870, Note_on_c, 1, 77, 127
1, 35988, Note_off_c, 1, 77, 0
1, 37548, Note_off_c, 1, 55, 0
1, 37550, Note_on_c, 1, 48, 127
1, 38012, Note_off_c, 1, 48, 0
1, 38029, Note_on_c, 1, 45, 127
1, 38269, Note_on_c, 1, 81, 127
1, 38469, Note_off_c, 1, 81, 0
1, 38491, Note_off_c, 1, 45, 0
1, 38988, Note_on_c, 1, 43, 127
1, 39450, Note_off_c, 1, 43, 0
1, 39708, Note_on_c, 1, 68, 127
1, 39932, Note_off_c, 1, 68, 0
1, 39947, Note_on_c, 1, 53, 127
1, 40409, Note_off_c, 1, 53, 0
1, 40427, Note_on_c, 1, 47, 127
1, 40889, Note_off_c, 1, 47, 0
1, 40906, Note_on_c, 1, 52, 127
1, 41368, Note_off_c, 1, 52, 0
1, 41385, Note_on_c, 1, 45, 127
1, 41385, Note_on_c, 1, 72, 127
1, 41625, Note_on_c, 1, 64, 127
1, 41847, Note_off_c, 1, 45, 0
1, 41849, Note_off_c, 1, 64, 0
1, 41864, Note_on_c, 1, 69, 127
1, 41864, Note_on_c, 1, 57, 127
1, 42084, Note_off_c, 1, 72, 0
1, 42104, Note_on_c, 1, 74, 127
1, 42304, Note_off_c, 1, 74, 0
1, 42339, Note_off_c, 1, 69, 0
1, 42344, Note_on_c, 1, 70, 127
1, 42584, Note_on_c, 1, 62, 127
1, 42809, Note_off_c, 1, 62, 0
1, 42821, Note_off_c, 1, 57, 0
1, 42823, Note_on_c, 1, 55, 127
1, 43043, Note_off_c, 1, 70, 0
1, 43299, Note_off_c, 1, 55, 0
1, 43301, Note_on_c, 1, 69, 127
1, 43301, Note_on_c, 1, 65, 127
1, 43301, Note_on_c, 1, 53, 127
1, 43419, Note_off_c, 1, 69, 0
1, 43421, Note_on_c, 1, 70, 127
1, 43539, Note_off_c, 1, 70, 0
1, 43541, Note_on_c, 1, 72, 127
1, 43659, Note_off_c, 1, 72, 0
1, 43661, Note_on_c, 1, 74, 127
1, 43779, Note_off_c, 1, 74, 0
1, 44126, Note_off_c, 1, 65, 0
1, 44140, Note_on_c, 1, 67, 127
1, 44258, Note_off_c, 1, 67, 0
1, 45100, Note_on_c, 1, 64, 127
1, 45218, Note_off_c, 1, 53, 0
1, 45218, Note_off_c, 1, 64, 0
1, 45220, Note_on_c, 1, 72, 127
1, 45220, Note_on_c, 1, 62, 127
1, 45220, Note_on_c, 1, 54, 127
1, 45338, Note_off_c, 1, 72, 0
1, 45340, Note_on_c, 1, 74, 127
1, 45458, Note_off_c, 1, 74, 0
1, 45460, Note_on_c, 1, 76, 127
1, 45578, Note_off_c, 1, 76, 0
1, 45580, Note_on_c, 1, 77, 127
1, 45698, Note_off_c, 1, 77, 0
1, 46060, Note_on_c, 1, 71, 127
1, 46178, Note_off_c, 1, 71, 0
1, 46180, Note_on_c, 1, 69, 127
1, 46298, Note_off_c, 1, 69, 0
1, 47020, Note_on_c, 1, 67, 127
1, 47138, Note_off_c, 1, 67, 0
1, 47140, Note_on_c, 1, 66, 127
1, 47258, Note_off_c, 1, 66, 0
1, 47970, Note_off_c, 1, 62, 0
1, 47980, Note_on_c, 1, 64, 127
1, 48098, Note_off_c, 1, 64, 0
1, 48940, Note_on_c, 1, 60, 127
1, 49058, Note_off_c, 1, 54, 0
1, 49058, Note_off_c, 1, 60, 0
1, 49060, Note_on_c, 1, 59, 127
1, 49060, Note_on_c, 1, 55, 127
1, 49178, Note_off_c, 1, 59, 0
1, 49180, Note_on_c, 1, 60, 127
1, 49298, Note_off_c, 1, 60, 0
1, 49300, Note_on_c, 1, 62, 127
1, 49418, Note_off_c, 1, 62, 0
1, 49420, Note_on_c, 1, 64, 127
1, 49538, Note_off_c, 1, 64, 0
1, 49540, Note_on_c, 1, 74, 127
1, 49900, Note_on_c, 1, 57, 127
1, 50010, Note_off_c, 1, 55, 0
1, 50018, Note_off_c, 1, 74, 0
1, 50018, Note_off_c, 1, 57, 0
1, 50020, Note_on_c, 1, 55, 127
1, 50020, Note_on_c, 1, 71, 127
1, 50138, Note_off_c, 1, 55, 0
1, 50140, Note_on_c, 1, 57, 127
1, 50258, Note_off_c, 1, 57, 0
1, 50260, Note_on_c, 1, 59, 127
1, 50378, Note_off_c, 1, 59, 0
1, 50380, Note_on_c, 1, 60, 127
1, 50498, Note_off_c, 1, 60, 0
1, 50500, Note_on_c, 1, 62, 127
1, 50860, Note_on_c, 1, 53, 127
1, 50970, Note_off_c, 1, 71, 0
1, 50978, Note_off_c, 1, 62, 0
1, 50978, Note_off_c, 1, 53, 0
1, 50980, Note_on_c, 1, 52, 127
1, 50980, Note_on_c, 1, 67, 127
1, 51098, Note_off_c, 1, 52, 0
1, 51100, Note_on_c, 1, 53, 127
1, 51218, Note_off_c, 1, 53, 0
1, 51220, Note_on_c, 1, 55, 127
1, 51338, Note_off_c, 1, 55, 0
1, 51340, Note_on_c, 1, 57, 127
1, 51458, Note_off_c, 1, 57, 0
1, 51460, Note_on_c, 1, 79, 127
1, 51820, Note_on_c, 1, 50, 127
1, 51930, Note_off_c, 1, 67, 0
1, 51938, Note_off_c, 1, 79, 0
1, 51938, Note_off_c, 1, 50, 0
1, 51940, Note_on_c, 1, 48, 127
1, 51940, Note_on_c, 1, 76, 127
1, 52058, Note_off_c, 1, 48, 0
1, 52060, Note_on_c, 1, 50, 127
1, 52178, Note_off_c, 1, 50, 0
1, 52180, Note_on_c, 1, 52, 127
1, 52298, Note_off_c, 1, 52, 0
1, 52300, Note_on_c, 1, 53, 127
1, 52418, Note_off_c, 1, 53, 0
1, 52420, Note_on_c, 1, 67, 127
1, 52780, Note_on_c, 1, 47, 127
1, 52898, Note_off_c, 1, 67, 0
1, 52898, Note_off_c, 1, 47, 0
1, 52900, Note_on_c, 1, 45, 127
1, 52900, Note_on_c, 1, 72, 127
1, 53018, Note_off_c, 1, 45, 0
1, 53378, Note_off_c, 1, 76, 0
1, 53380, Note_on_c, 1, 81, 127
1, 53740, Note_on_c, 1, 43, 127
1, 53858, Note_off_c, 1, 81, 0
1, 53858, Note_off_c, 1, 43, 0
1, 53860, Note_on_c, 1, 41, 127
1, 53860, Note_on_c, 1, 74, 127
1, 53978, Note_off_c, 1, 41, 0
1, 54338, Note_off_c, 1, 72, 0
1, 54700, Note_on_c, 1, 40, 127
1, 54818, Note_off_c, 1, 40, 0
1, 54820, Note_on_c, 1, 38, 127
1, 54820, Note_on_c, 1, 65, 127
1, 55060, Note_off_c, 1, 74, 0
1, 55660, Note_on_c, 1, 77, 127
1, 55778, Note_off_c, 1, 38, 0
1, 55778, Note_off_c, 1, 77, 0
1, 55940, Note_on_c, 1, 71, 127
1, 56020, Note_off_c, 1, 71, 0
1, 56740, Note_on_c, 1, 36, 127
1, 56970, Note_off_c, 1, 65, 0
1, 57220, Note_on_c, 1, 64, 127
1, 57460, Note_on_c, 1, 70, 127
1, 57698, Note_off_c, 1, 70, 0
1, 57700, Note_on_c, 1, 69, 127
1, 57920, Note_off_c, 1, 64, 0
1, 59140, Note_on_c, 1, 62, 127
1, 59378, Note_off_c, 1, 62, 0
1, 59380, Note_on_c, 1, 60, 127
1, 59618, Note_off_c, 1, 60, 0
1, 59620, Note_on_c, 1, 59, 127
1, 59850, Note_off_c, 1, 69, 0
1, 60602, Note_off_c, 1, 59, 0
1, 60644, Note_on_c, 1, 55, 127
1, 63940, Note_off_c, 1, 36, 0
1, 63974, Note_off_c, 1, 55, 0
1, 65282, Note_on_c, 1, 64, 127
1, 65424, Note_off_c, 1, 64, 0
1, 65426, Note_on_c, 1, 65, 127
1, 65568, Note_off_c, 1, 65, 0
1, 65570, Note_on_c, 1, 67, 127
1, 65856, Note_off_c, 1, 67, 0
1, 65858, Note_on_c, 1, 67, 127
1, 66144, Note_off_c, 1, 67, 0
1, 66146, Note_on_c, 1, 67, 127
1, 66432, Note_off_c, 1, 67, 0
1, 66434, Note_on_c, 1, 67, 127
1, 66576, Note_off_c, 1, 67, 0
1, 66578, Note_on_c, 1, 69, 127
1, 66720, Note_off_c, 1, 69, 0
1, 66722, Note_on_c, 1, 67, 127
1, 66864, Note_off_c, 1, 67, 0
1, 66866, Note_on_c, 1, 65, 127
1, 67008, Note_off_c, 1, 65, 0
1, 67010, Note_on_c, 1, 64, 127
1, 67152, Note_off_c, 1, 64, 0
1, 67154, Note_on_c, 1, 62, 127
1, 67296, Note_off_c, 1, 62, 0
1, 67298, Note_on_c, 1, 60, 127
1, 67440, Note_off_c, 1, 60, 0
1, 67442, Note_on_c, 1, 67, 127
1, 67584, Note_off_c, 1, 67, 0
1, 67586, Note_on_c, 1, 65, 127
1, 67728, Note_off_c, 1, 65, 0
1, 67730, Note_on_c, 1, 67, 127
1, 67872, Note_off_c, 1, 67, 0
1, 67874, Note_on_c, 1, 69, 127
1, 68016, Note_off_c, 1, 69, 0
1, 68018, Note_on_c, 1, 67, 127
1, 68160, Note_off_c, 1, 67, 0
1, 68162, Note_on_c, 1, 65, 127
1, 68304, Note_off_c, 1, 65, 0
1, 68306, Note_on_c, 1, 64, 127
1, 68448, Note_off_c, 1, 64, 0
1, 68450, Note_on_c, 1, 62, 127
1, 68592, Note_off_c, 1, 62, 0
1, 68594, Note_on_c, 1, 69, 127
1, 68736, Note_off_c, 1, 69, 0
1, 68738, Note_on_c, 1, 67, 127
1, 68880, Note_off_c, 1, 67, 0
1, 68882, Note_on_c, 1, 69, 127
1, 69024, Note_off_c, 1, 69, 0
1, 69026, Note_on_c, 1, 71, 127
1, 69168, Note_off_c, 1, 71, 0
1, 69170, Note_on_c, 1, 69, 127
1, 69312, Note_off_c, 1, 69, 0
1, 69314, Note_on_c, 1, 67, 127
1, 69456, Note_off_c, 1, 67, 0
1, 69458, Note_on_c, 1, 65, 127
1, 69600, Note_off_c, 1, 65, 0
1, 69602, Note_on_c, 1, 64, 127
1, 69744, Note_off_c, 1, 64, 0
1, 69746, Note_on_c, 1, 71, 127
1, 69888, Note_off_c, 1, 71, 0
1, 69890, Note_on_c, 1, 69, 127
1, 70032, Note_off_c, 1, 69, 0
1, 70034, Note_on_c, 1, 71, 127
1, 70176, Note_off_c, 1, 71, 0
1, 70178, Note_on_c, 1, 72, 127
1, 70464, Note_off_c, 1, 72, 0
1, 70466, Note_on_c, 1, 71, 127
1, 70608, Note_off_c, 1, 71, 0
1, 70610, Note_on_c, 1, 69, 127
1, 70752, Note_off_c, 1, 69, 0
1, 70754, Note_on_c, 1, 67, 127
1, 70896, Note_off_c, 1, 67, 0
1, 70898, Note_on_c, 1, 69, 127
1, 71040, Note_off_c, 1, 69, 0
1, 71042, Note_on_c, 1, 65, 127
1, 71042, Note_on_c, 1, 71, 127
1, 71184, Note_off_c, 1, 65, 0
1, 71186, Note_on_c, 1, 67, 127
1, 71328, Note_off_c, 1, 71, 0
1, 71328, Note_off_c, 1, 67, 0
1, 71330, Note_on_c, 1, 64, 127
1, 71330, Note_on_c, 1, 72, 127
1, 71472, Note_off_c, 1, 64, 0
1, 71474, Note_on_c, 1, 65, 127
1, 71616, Note_off_c, 1, 72, 0
1, 71616, Note_off_c, 1, 65, 0
1, 71618, Note_on_c, 1, 62, 127
1, 71618, Note_on_c, 1, 72, 127
1, 71760, Note_off_c, 1, 62, 0
1, 71762, Note_on_c, 1, 65, 127
1, 71904, Note_off_c, 1, 72, 0
1, 71904, Note_off_c, 1, 65, 0
1, 71906, Note_on_c, 1, 64, 127
1, 71906, Note_on_c, 1, 72, 127
1, 72048, Note_off_c, 1, 64, 0
1, 72050, Note_on_c, 1, 62, 127
1, 72192, Note_off_c, 1, 72, 0
1, 72192, Note_off_c, 1, 62, 0
1, 72194, Note_on_c, 1, 72, 127
1, 72194, Note_on_c, 1, 64, 127
1, 72336, Note_off_c, 1, 72, 0
1, 72336, Note_off_c, 1, 64, 0
1, 72338, Note_on_c, 1, 76, 127
1, 72338, Note_on_c, 1, 60, 127
1, 72480, Note_off_c, 1, 76, 0
1, 72480, Note_off_c, 1, 60, 0
1, 72482, Note_on_c, 1, 74, 127
1, 72482, Note_on_c, 1, 67, 127
1, 72624, Note_off_c, 1, 74, 0
1, 72626, Note_on_c, 1, 72, 127
1, 72768, Note_off_c, 1, 67, 0
1, 72768, Note_off_c, 1, 72, 0
1, 72770, Note_on_c, 1, 71, 127
1, 72770, Note_on_c, 1, 55, 127
1, 72912, Note_off_c, 1, 71, 0
1, 72914, Note_on_c, 1, 69, 127
1, 73056, Note_off_c, 1, 69, 0
1, 73058, Note_on_c, 1, 67, 127
1, 73190, Note_off_c, 1, 55, 0
1, 73200, Note_off_c, 1, 67, 0
1, 73202, Note_on_c, 1, 74, 127
1, 73344, Note_off_c, 1, 74, 0
1, 73346, Note_on_c, 1, 72, 127
1, 73346, Note_on_c, 1, 59, 127
1, 73488, Note_off_c, 1, 72, 0
1, 73490, Note_on_c, 1, 74, 127
1, 73632, Note_off_c, 1, 59, 0
1, 73632, Note_off_c, 1, 74, 0
1, 73634, Note_on_c, 1, 76, 127
1, 73634, Note_on_c, 1, 60, 127
1, 73776, Note_off_c, 1, 76, 0
1, 73778, Note_on_c, 1, 74, 127
1, 73920, Note_off_c, 1, 74, 0
1, 73922, Note_on_c, 1, 72, 127
1, 74064, Note_off_c, 1, 72, 0
1, 74066, Note_on_c, 1, 71, 127
1, 74208, Note_off_c, 1, 71, 0
1, 74210, Note_on_c, 1, 69, 127
1, 74352, Note_off_c, 1, 69, 0
1, 74354, Note_off_c, 1, 60, 0
1, 74498, Note_on_c, 1, 74, 127
1, 74498, Note_on_c, 1, 60, 127
1, 74640, Note_off_c, 1, 74, 0
1, 74642, Note_on_c, 1, 76, 127
1, 74784, Note_off_c, 1, 60, 0
1, 74784, Note_off_c, 1, 76, 0
1, 74786, Note_on_c, 1, 78, 127
1, 74786, Note_on_c, 1, 62, 127
1, 74928, Note_off_c, 1, 78, 0
1, 74930, Note_on_c, 1, 76, 127
1, 75072, Note_off_c, 1, 76, 0
1, 75074, Note_on_c, 1, 74, 127
1, 75216, Note_off_c, 1, 74, 0
1, 75218, Note_on_c, 1, 72, 127
1, 75360, Note_off_c, 1, 72, 0
1, 75362, Note_on_c, 1, 71, 127
1, 75504, Note_off_c, 1, 71, 0
1, 75506, Note_off_c, 1, 62, 0
1, 75650, Note_on_c, 1, 76, 127
1, 75650, Note_on_c, 1, 62, 127
1, 75792, Note_off_c, 1, 76, 0
1, 75794, Note_on_c, 1, 78, 127
1, 75936, Note_off_c, 1, 62, 0
1, 75936, Note_off_c, 1, 78, 0
1, 75938, Note_on_c, 1, 79, 127
1, 75938, Note_on_c, 1, 64, 127
1, 76224, Note_off_c, 1, 79, 0
1, 76226, Note_on_c, 1, 78, 127
1, 76368, Note_off_c, 1, 78, 0
1, 76370, Note_on_c, 1, 76, 127
1, 76508, Note_off_c, 1, 64, 0
1, 76512, Note_off_c, 1, 76, 0
1, 76514, Note_on_c, 1, 74, 127
1, 76656, Note_off_c, 1, 74, 0
1, 76658, Note_on_c, 1, 76, 127
1, 76800, Note_off_c, 1, 76, 0
1, 76802, Note_on_c, 1, 72, 127
1, 76802, Note_on_c, 1, 52, 127
1, 76802, Note_on_c, 1, 64, 127
1, 76944, Note_off_c, 1, 72, 0
1, 76944, Note_off_c, 1, 52, 0
1, 76946, Note_on_c, 1, 74, 127
1, 76946, Note_on_c, 1, 54, 127
1, 77088, Note_off_c, 1, 64, 0
1, 77088, Note_off_c, 1, 74, 0
1, 77088, Note_off_c, 1, 54, 0
1, 77090, Note_on_c, 1, 71, 127
1, 77090, Note_on_c, 1, 62, 127
1, 77090, Note_on_c, 1, 55, 127
1, 77232, Note_off_c, 1, 71, 0
1, 77234, Note_on_c, 1, 72, 127
1, 77376, Note_off_c, 1, 62, 0
1, 77376, Note_off_c, 1, 55, 0
1, 77376, Note_off_c, 1, 72, 0
1, 77378, Note_on_c, 1, 69, 127
1, 77378, Note_on_c, 1, 60, 127
1, 77378, Note_on_c, 1, 55, 127
1, 77520, Note_off_c, 1, 69, 0
1, 77522, Note_on_c, 1, 72, 127
1, 77664, Note_off_c, 1, 60, 0
1, 77664, Note_off_c, 1, 55, 0
1, 77664, Note_off_c, 1, 72, 0
1, 77666, Note_on_c, 1, 71, 127
1, 77666, Note_on_c, 1, 55, 127
1, 77666, Note_on_c, 1, 62, 127
1, 77808, Note_off_c, 1, 71, 0
1, 77810, Note_on_c, 1, 69, 127
1, 77952, Note_off_c, 1, 55, 0
1, 77952, Note_off_c, 1, 69, 0
1, 78098, Note_on_c, 1, 67, 127
1, 78098, Note_on_c, 1, 57, 127
1, 78236, Note_off_c, 1, 62, 0
1, 78240, Note_off_c, 1, 67, 0
1, 78240, Note_off_c, 1, 57, 0
1, 78242, Note_on_c, 1, 55, 127
1, 78242, Note_on_c, 1, 76, 127
1, 78384, Note_off_c, 1, 55, 0
1, 78386, Note_on_c, 1, 53, 127
1, 78528, Note_off_c, 1, 53, 0
1, 78530, Note_on_c, 1, 52, 127
1, 78530, Note_on_c, 1, 67, 127
1, 78672, Note_off_c, 1, 52, 0
1, 78674, Note_on_c, 1, 50, 127
1, 78816, Note_off_c, 1, 67, 0
1, 78816, Note_off_c, 1, 50, 0
1, 78818, Note_on_c, 1, 48, 127
1, 78818, Note_on_c, 1, 72, 127
1, 78960, Note_off_c, 1, 48, 0
1, 78962, Note_off_c, 1, 76, 0
1, 79394, Note_on_c, 1, 57, 127
1, 79394, Note_on_c, 1, 77, 127
1, 79536, Note_off_c, 1, 57, 0
1, 79538, Note_off_c, 1, 72, 0
1, 79682, Note_on_c, 1, 69, 127
1, 79968, Note_off_c, 1, 69, 0
1, 79970, Note_on_c, 1, 74, 127
1, 80114, Note_off_c, 1, 77, 0
1, 80546, Note_on_c, 1, 59, 127
1, 80546, Note_on_c, 1, 79, 127
1, 80688, Note_off_c, 1, 59, 0
1, 80690, Note_off_c, 1, 74, 0
1, 80834, Note_on_c, 1, 71, 127
1, 81120, Note_off_c, 1, 71, 0
1, 81266, Note_off_c, 1, 79, 0
1, 81698, Note_on_c, 1, 60, 127
1, 81698, Note_on_c, 1, 81, 127
1, 81984, Note_off_c, 1, 60, 0
1, 82418, Note_off_c, 1, 81, 0
1, 82850, Note_on_c, 1, 52, 127
1, 82850, Note_on_c, 1, 79, 127
1, 82992, Note_off_c, 1, 52, 0
1, 82994, Note_on_c, 1, 53, 127
1, 83136, Note_off_c, 1, 53, 0
1, 83138, Note_on_c, 1, 50, 127
1, 83138, Note_on_c, 1, 71, 127
1, 83280, Note_off_c, 1, 50, 0
1, 83424, Note_off_c, 1, 71, 0
1, 83426, Note_on_c, 1, 72, 127
1, 83570, Note_off_c, 1, 79, 0
1, 83712, Note_off_c, 1, 72, 0
1, 83714, Note_on_c, 1, 52, 127
1, 83714, Note_on_c, 1, 79, 127
1, 83714, Note_on_c, 1, 70, 127
1, 83856, Note_off_c, 1, 52, 0
1, 83858, Note_on_c, 1, 48, 127
1, 84000, Note_off_c, 1, 79, 0
1, 84000, Note_off_c, 1, 70, 0
1, 84000, Note_off_c, 1, 48, 0
1, 84002, Note_on_c, 1, 53, 127
1, 84002, Note_on_c, 1, 81, 127
1, 84002, Note_on_c, 1, 72, 127
1, 84144, Note_off_c, 1, 53, 0
1, 84146, Note_on_c, 1, 55, 127
1, 84288, Note_off_c, 1, 81, 0
1, 84288, Note_off_c, 1, 55, 0
1, 84290, Note_on_c, 1, 52, 127
1, 84290, Note_on_c, 1, 79, 127
1, 84432, Note_off_c, 1, 52, 0
1, 84576, Note_off_c, 1, 72, 0
1, 84576, Note_off_c, 1, 79, 0
1, 84578, Note_on_c, 1, 53, 127
1, 84578, Note_on_c, 1, 77, 127
1, 84578, Note_on_c, 1, 74, 127
1, 84720, Note_off_c, 1, 53, 0
1, 84722, Note_on_c, 1, 52, 127
1, 84864, Note_off_c, 1, 77, 0
1, 84864, Note_off_c, 1, 74, 0
1, 84864, Note_off_c, 1, 52, 0
1, 84866, Note_on_c, 1, 53, 127
1, 84866, Note_on_c, 1, 76, 127
1, 84866, Note_on_c, 1, 72, 127
1, 85008, Note_off_c, 1, 53, 0
1, 85010, Note_on_c, 1, 50, 127
1, 85152, Note_off_c, 1, 76, 0
1, 85152, Note_off_c, 1, 72, 0
1, 85152, Note_off_c, 1, 50, 0
1, 85154, Note_on_c, 1, 71, 127
1, 85154, Note_on_c, 1, 55, 127
1, 85154, Note_on_c, 1, 74, 127
1, 85296, Note_off_c, 1, 71, 0
1, 85298, Note_on_c, 1, 72, 127
1, 85440, Note_off_c, 1, 55, 0
1, 85440, Note_off_c, 1, 72, 0
1, 85442, Note_on_c, 1, 69, 127
1, 85442, Note_on_c, 1, 43, 127
1, 85584, Note_off_c, 1, 69, 0
1, 85724, Note_off_c, 1, 74, 0
1, 85728, Note_off_c, 1, 43, 0
1, 85730, Note_on_c, 1, 71, 127
1, 85730, Note_on_c, 1, 55, 127
1, 85872, Note_off_c, 1, 71, 0
1, 85874, Note_on_c, 1, 69, 127
1, 86016, Note_off_c, 1, 55, 0
1, 86016, Note_off_c, 1, 69, 0
1, 86018, Note_on_c, 1, 71, 127
1, 86018, Note_on_c, 1, 53, 127
1, 86160, Note_off_c, 1, 71, 0
1, 86162, Note_on_c, 1, 67, 127
1, 86304, Note_off_c, 1, 53, 0
1, 86304, Note_off_c, 1, 67, 0
1, 86306, Note_on_c, 1, 52, 127
1, 86306, Note_on_c, 1, 72, 127
1, 86448, Note_off_c, 1, 52, 0
1, 86450, Note_on_c, 1, 53, 127
1, 86592, Note_off_c, 1, 53, 0
1, 86594, Note_on_c, 1, 50, 127
1, 86594, Note_on_c, 1, 60, 127
1, 86736, Note_off_c, 1, 50, 0
1, 86876, Note_off_c, 1, 72, 0
1, 86984, Note_off_c, 1, 60, 0
1, 87170, Note_on_c, 1, 52, 127
1, 87170, Note_on_c, 1, 70, 127
1, 87312, Note_off_c, 1, 52, 0
1, 87314, Note_on_c, 1, 48, 127
1, 87456, Note_off_c, 1, 70, 0
1, 87456, Note_off_c, 1, 48, 0
1, 87458, Note_on_c, 1, 69, 127
1, 87458, Note_on_c, 1, 53, 127
1, 87600, Note_off_c, 1, 69, 0
1, 87602, Note_on_c, 1, 70, 127
1, 87744, Note_off_c, 1, 53, 0
1, 87744, Note_off_c, 1, 70, 0
1, 87746, Note_on_c, 1, 67, 127
1, 87746, Note_on_c, 1, 52, 127
1, 87888, Note_off_c, 1, 67, 0
1, 87890, Note_on_c, 1, 70, 127
1, 88032, Note_off_c, 1, 52, 0
1, 88032, Note_off_c, 1, 70, 0
1, 88034, Note_on_c, 1, 69, 127
1, 88034, Note_on_c, 1, 53, 127
1, 88176, Note_off_c, 1, 69, 0
1, 88178, Note_on_c, 1, 67, 127
1, 88320, Note_off_c, 1, 53, 0
1, 88320, Note_off_c, 1, 67, 0
1, 88322, Note_on_c, 1, 69, 127
1, 88322, Note_on_c, 1, 48, 127
1, 88464, Note_off_c, 1, 69, 0
1, 88466, Note_on_c, 1, 64, 127
1, 88608, Note_off_c, 1, 48, 0
1, 88608, Note_off_c, 1, 64, 0
1, 88610, Note_on_c, 1, 65, 127
1, 88610, Note_on_c, 1, 50, 127
1, 88752, Note_off_c, 1, 65, 0
1, 88754, Note_on_c, 1, 67, 127
1, 88896, Note_off_c, 1, 50, 0
1, 88896, Note_off_c, 1, 67, 0
1, 88898, Note_on_c, 1, 64, 127
1, 88898, Note_on_c, 1, 48, 127
1, 89040, Note_off_c, 1, 64, 0
1, 89042, Note_on_c, 1, 67, 127
1, 89184, Note_off_c, 1, 48, 0
1, 89184, Note_off_c, 1, 67, 0
1, 89186, Note_on_c, 1, 65, 127
1, 89186, Note_on_c, 1, 50, 127
1, 89328, Note_off_c, 1, 65, 0
1, 89330, Note_on_c, 1, 64, 127
1, 89472, Note_off_c, 1, 50, 0
1, 89472, Note_off_c, 1, 64, 0
1, 89474, Note_on_c, 1, 65, 127
1, 89474, Note_on_c, 1, 45, 127
1, 89616, Note_off_c, 1, 65, 0
1, 89618, Note_on_c, 1, 60, 127
1, 89760, Note_off_c, 1, 45, 0
1, 89760, Note_off_c, 1, 60, 0
1, 89762, Note_on_c, 1, 62, 127
1, 89762, Note_on_c, 1, 47, 127
1, 89904, Note_off_c, 1, 62, 0
1, 89906, Note_on_c, 1, 57, 127
1, 90048, Note_off_c, 1, 57, 0
1, 90050, Note_on_c, 1, 55, 127
1, 90192, Note_off_c, 1, 55, 0
1, 90194, Note_on_c, 1, 53, 127
1, 90336, Note_off_c, 1, 47, 0
1, 90336, Note_off_c, 1, 53, 0
1, 90338, Note_on_c, 1, 52, 127
1, 90338, Note_on_c, 1, 48, 127
1, 90480, Note_off_c, 1, 52, 0
1, 90482, Note_on_c, 1, 55, 127
1, 90624, Note_off_c, 1, 55, 0
1, 90626, Note_on_c, 1, 76, 127
1, 90626, Note_on_c, 1, 60, 127
1, 90768, Note_off_c, 1, 48, 0
1, 90768, Note_off_c, 1, 76, 0
1, 90770, Note_on_c, 1, 77, 127
1, 90770, Note_on_c, 1, 50, 127
1, 90912, Note_off_c, 1, 77, 0
1, 90912, Note_off_c, 1, 50, 0
1, 90914, Note_on_c, 1, 79, 127
1, 91058, Note_on_c, 1, 53, 127
1, 91200, Note_off_c, 1, 79, 0
1, 91200, Note_off_c, 1, 53, 0
1, 91922, Note_on_c, 1, 81, 127
1, 92064, Note_off_c, 1, 81, 0
1, 92352, Note_off_c, 1, 60, 0
1, 92354, Note_on_c, 1, 59, 127
1, 92498, Note_on_c, 1, 74, 127
1, 92639, Note_off_c, 1, 59, 0
1, 92641, Note_off_c, 1, 74, 0
1, 92643, Note_on_c, 1, 72, 127
1, 92643, Note_on_c, 1, 57, 127
1, 92785, Note_off_c, 1, 72, 0
1, 92787, Note_on_c, 1, 79, 127
1, 92929, Note_off_c, 1, 79, 0
1, 92931, Note_on_c, 1, 77, 127
1, 92931, Note_on_c, 1, 64, 127
1, 93073, Note_off_c, 1, 77, 0
1, 93217, Note_off_c, 1, 64, 0
1, 93219, Note_on_c, 1, 81, 127
1, 93219, Note_on_c, 1, 65, 127
1, 93361, Note_off_c, 1, 81, 0
1, 93363, Note_off_c, 1, 57, 0
1, 93651, Note_on_c, 1, 76, 127
1, 93793, Note_off_c, 1, 76, 0
1, 93795, Note_on_c, 1, 74, 127
1, 93795, Note_on_c, 1, 59, 127
1, 93937, Note_off_c, 1, 74, 0
1, 93939, Note_off_c, 1, 65, 0
1, 94083, Note_on_c, 1, 66, 127
1, 94369, Note_off_c, 1, 66, 0
1, 94371, Note_on_c, 1, 83, 127
1, 94371, Note_on_c, 1, 67, 127
1, 94513, Note_off_c, 1, 83, 0
1, 94515, Note_off_c, 1, 59, 0
1, 94947, Note_on_c, 1, 60, 127
1, 95091, Note_off_c, 1, 67, 0
1, 95235, Note_on_c, 1, 68, 127
1, 95521, Note_off_c, 1, 68, 0
1, 95523, Note_on_c, 1, 84, 127
1, 95523, Note_on_c, 1, 69, 127
1, 95667, Note_off_c, 1, 60, 0
1, 95809, Note_off_c, 1, 84, 0
1, 96097, Note_off_c, 1, 69, 0
1, 96099, Note_on_c, 1, 79, 127
1, 96099, Note_on_c, 1, 59, 127
1, 96099, Note_on_c, 1, 62, 127
1, 96241, Note_off_c, 1, 79, 0
1, 96243, Note_on_c, 1, 81, 127
1, 96385, Note_off_c, 1, 59, 0
1, 96385, Note_off_c, 1, 81, 0
1, 96387, Note_on_c, 1, 77, 127
1, 96387, Note_on_c, 1, 57, 127
1, 96529, Note_off_c, 1, 77, 0
1, 96673, Note_off_c, 1, 57, 0
1, 96675, Note_on_c, 1, 76, 127
1, 96675, Note_on_c, 1, 55, 127
1, 96817, Note_off_c, 1, 76, 0
1, 96961, Note_off_c, 1, 55, 0
1, 96963, Note_on_c, 1, 74, 127
1, 96963, Note_on_c, 1, 52, 127
1, 97105, Note_off_c, 1, 74, 0
1, 97249, Note_off_c, 1, 62, 0
1, 97249, Note_off_c, 1, 52, 0
1, 97251, Note_on_c, 1, 76, 127
1, 97251, Note_on_c, 1, 57, 127
1, 97251, Note_on_c, 1, 60, 127
1, 97393, Note_off_c, 1, 76, 0
1, 97395, Note_on_c, 1, 74, 127
1, 97537, Note_off_c, 1, 57, 0
1, 97537, Note_off_c, 1, 74, 0
1, 97539, Note_on_c, 1, 55, 127
1, 97683, Note_on_c, 1, 72, 127
1, 97825, Note_off_c, 1, 55, 0
1, 97825, Note_off_c, 1, 72, 0
1, 97827, Note_on_c, 1, 53, 127
1, 98113, Note_off_c, 1, 53, 0
1, 98115, Note_on_c, 1, 50, 127
1, 98401, Note_off_c, 1, 60, 0
1, 98401, Note_off_c, 1, 50, 0
1, 98403, Note_on_c, 1, 74, 127
1, 98403, Note_on_c, 1, 55, 127
1, 98403, Note_on_c, 1, 59, 127
1, 98545, Note_off_c, 1, 74, 0
1, 98547, Note_on_c, 1, 72, 127
1, 98689, Note_off_c, 1, 55, 0
1, 98689, Note_off_c, 1, 72, 0
1, 98691, Note_on_c, 1, 53, 127
1, 98835, Note_on_c, 1, 67, 127
1, 98977, Note_off_c, 1, 59, 0
1, 98977, Note_off_c, 1, 53, 0
1, 98977, Note_off_c, 1, 67, 0
1, 98979, Note_on_c, 1, 72, 127
1, 98979, Note_on_c, 1, 52, 127
1, 98979, Note_on_c, 1, 60, 127
1, 99121, Note_off_c, 1, 72, 0
1, 99123, Note_on_c, 1, 71, 127
1, 99265, Note_off_c, 1, 52, 0
1, 99265, Note_off_c, 1, 71, 0
1, 99267, Note_on_c, 1, 48, 127
1, 99411, Note_on_c, 1, 67, 127
1, 99549, Note_off_c, 1, 60, 0
1, 99553, Note_off_c, 1, 48, 0
1, 99553, Note_off_c, 1, 67, 0
1, 99555, Note_on_c, 1, 74, 127
1, 99555, Note_on_c, 1, 47, 127
1, 99697, Note_off_c, 1, 74, 0
1, 99699, Note_on_c, 1, 72, 127
1, 99841, Note_off_c, 1, 47, 0
1, 99841, Note_off_c, 1, 72, 0
1, 99843, Note_on_c, 1, 74, 127
1, 99843, Note_on_c, 1, 43, 127
1, 99985, Note_off_c, 1, 74, 0
1, 99987, Note_on_c, 1, 67, 127
1, 100129, Note_off_c, 1, 43, 0
1, 100129, Note_off_c, 1, 67, 0
1, 100131, Note_on_c, 1, 48, 127
1, 100131, Note_on_c, 1, 76, 127
1, 100273, Note_off_c, 1, 48, 0
1, 100275, Note_on_c, 1, 47, 127
1, 100417, Note_off_c, 1, 76, 0
1, 100417, Note_off_c, 1, 47, 0
1, 100419, Note_on_c, 1, 48, 127
1, 100419, Note_on_c, 1, 72, 127
1, 100561, Note_off_c, 1, 48, 0
1, 100563, Note_on_c, 1, 43, 127
1, 100704, Note_off_c, 1, 72, 0
1, 100706, Note_off_c, 1, 43, 0
1, 100708, Note_on_c, 1, 50, 127
1, 100850, Note_off_c, 1, 50, 0
1, 100852, Note_on_c, 1, 48, 127
1, 100994, Note_off_c, 1, 48, 0
1, 100996, Note_on_c, 1, 50, 127
1, 100996, Note_on_c, 1, 71, 127
1, 101138, Note_off_c, 1, 50, 0
1, 101140, Note_on_c, 1, 43, 127
1, 101282, Note_off_c, 1, 71, 0
1, 101282, Note_off_c, 1, 43, 0
1, 101284, Note_on_c, 1, 72, 127
1, 101284, Note_on_c, 1, 52, 127
1, 101426, Note_off_c, 1, 72, 0
1, 101428, Note_on_c, 1, 71, 127
1, 101570, Note_off_c, 1, 52, 0
1, 101570, Note_off_c, 1, 71, 0
1, 101572, Note_on_c, 1, 72, 127
1, 101572, Note_on_c, 1, 48, 127
1, 101716, Note_on_c, 1, 67, 127
1, 101752, Note_off_c, 1, 72, 0
1, 101858, Note_off_c, 1, 48, 0
1, 101858, Note_off_c, 1, 67, 0
1, 101860, Note_on_c, 1, 74, 127
1, 101860, Note_on_c, 1, 47, 127
1, 102002, Note_off_c, 1, 74, 0
1, 102004, Note_on_c, 1, 72, 127
1, 102146, Note_off_c, 1, 47, 0
1, 102146, Note_off_c, 1, 72, 0
1, 102148, Note_on_c, 1, 74, 127
1, 102148, Note_on_c, 1, 43, 127
1, 102292, Note_on_c, 1, 67, 127
1, 102328, Note_off_c, 1, 74, 0
1, 102434, Note_off_c, 1, 43, 0
1, 102434, Note_off_c, 1, 67, 0
1, 102436, Note_on_c, 1, 76, 127
1, 102436, Note_on_c, 1, 48, 127
1, 102578, Note_off_c, 1, 76, 0
1, 102580, Note_on_c, 1, 74, 127
1, 102722, Note_off_c, 1, 48, 0
1, 102722, Note_off_c, 1, 74, 0
1, 102724, Note_on_c, 1, 76, 127
1, 102724, Note_on_c, 1, 36, 127
1, 102868, Note_on_c, 1, 67, 127
1, 102934, Note_off_c, 1, 76, 0
1, 103010, Note_off_c, 1, 36, 0
1, 103010, Note_off_c, 1, 67, 0
1, 103012, Note_on_c, 1, 77, 127
1, 103012, Note_on_c, 1, 38, 127
1, 103154, Note_off_c, 1, 77, 0
1, 103156, Note_on_c, 1, 76, 127
1, 103298, Note_off_c, 1, 38, 0
1, 103298, Note_off_c, 1, 76, 0
1, 103300, Note_on_c, 1, 77, 127
1, 103300, Note_on_c, 1, 50, 127
1, 103442, Note_off_c, 1, 77, 0
1, 103444, Note_on_c, 1, 67, 127
1, 103586, Note_off_c, 1, 50, 0
1, 103586, Note_off_c, 1, 67, 0
1, 103588, Note_on_c, 1, 79, 127
1, 103588, Note_on_c, 1, 52, 127
1, 103730, Note_off_c, 1, 79, 0
1, 103732, Note_on_c, 1, 77, 127
1, 103874, Note_off_c, 1, 52, 0
1, 103874, Note_off_c, 1, 77, 0
1, 103876, Note_on_c, 1, 79, 127
1, 103876, Note_on_c, 1, 48, 127
1, 104020, Note_on_c, 1, 67, 127
1, 104161, Note_off_c, 1, 79, 0
1, 104163, Note_off_c, 1, 48, 0
1, 104163, Note_off_c, 1, 67, 0
1, 104165, Note_on_c, 1, 53, 127
1, 104165, Note_on_c, 1, 69, 127
1, 104307, Note_off_c, 1, 53, 0
1, 104309, Note_on_c, 1, 52, 127
1, 104451, Note_off_c, 1, 69, 0
1, 104451, Note_off_c, 1, 52, 0
1, 104453, Note_on_c, 1, 53, 127
1, 104453, Note_on_c, 1, 72, 127
1, 104595, Note_off_c, 1, 53, 0
1, 104597, Note_on_c, 1, 48, 127
1, 104739, Note_off_c, 1, 72, 0
1, 104739, Note_off_c, 1, 48, 0
1, 104741, Note_on_c, 1, 77, 127
1, 104741, Note_on_c, 1, 50, 127
1, 104883, Note_off_c, 1, 77, 0
1, 104885, Note_on_c, 1, 76, 127
1, 105027, Note_off_c, 1, 50, 0
1, 105027, Note_off_c, 1, 76, 0
1, 105029, Note_on_c, 1, 77, 127
1, 105029, Note_on_c, 1, 47, 127
1, 105173, Note_on_c, 1, 65, 127
1, 105314, Note_off_c, 1, 77, 0
1, 105316, Note_off_c, 1, 47, 0
1, 105316, Note_off_c, 1, 65, 0
1, 105318, Note_on_c, 1, 52, 127
1, 105318, Note_on_c, 1, 67, 127
1, 105460, Note_off_c, 1, 52, 0
1, 105462, Note_on_c, 1, 50, 127
1, 105604, Note_off_c, 1, 67, 0
1, 105604, Note_off_c, 1, 50, 0
1, 105606, Note_on_c, 1, 52, 127
1, 105606, Note_on_c, 1, 71, 127
1, 105748, Note_off_c, 1, 52, 0
1, 105750, Note_on_c, 1, 47, 127
1, 105892, Note_off_c, 1, 71, 0
1, 105892, Note_off_c, 1, 47, 0
1, 105894, Note_on_c, 1, 76, 127
1, 105894, Note_on_c, 1, 48, 127
1, 106036, Note_off_c, 1, 76, 0
1, 106038, Note_on_c, 1, 74, 127
1, 106180, Note_off_c, 1, 48, 0
1, 106180, Note_off_c, 1, 74, 0
1, 106182, Note_on_c, 1, 76, 127
1, 106182, Note_on_c, 1, 45, 127
1, 106326, Note_on_c, 1, 64, 127
1, 106467, Note_off_c, 1, 76, 0
1, 106469, Note_off_c, 1, 45, 0
1, 106469, Note_off_c, 1, 64, 0
1, 106471, Note_on_c, 1, 50, 127
1, 106471, Note_on_c, 1, 65, 127
1, 106613, Note_off_c, 1, 50, 0
1, 106615, Note_on_c, 1, 48, 127
1, 106757, Note_off_c, 1, 65, 0
1, 106757, Note_off_c, 1, 48, 0
1, 106759, Note_on_c, 1, 50, 127
1, 106759, Note_on_c, 1, 69, 127
1, 106901, Note_off_c, 1, 50, 0
1, 106903, Note_on_c, 1, 45, 127
1, 107045, Note_off_c, 1, 69, 0
1, 107045, Note_off_c, 1, 45, 0
1, 107047, Note_on_c, 1, 74, 127
1, 107047, Note_on_c, 1, 47, 127
1, 107189, Note_off_c, 1, 74, 0
1, 107191, Note_on_c, 1, 72, 127
1, 107333, Note_off_c, 1, 47, 0
1, 107333, Note_off_c, 1, 72, 0
1, 107335, Note_on_c, 1, 74, 127
1, 107335, Note_on_c, 1, 43, 127
1, 107479, Note_on_c, 1, 62, 127
1, 107620, Note_off_c, 1, 74, 0
1, 107622, Note_off_c, 1, 43, 0
1, 107622, Note_off_c, 1, 62, 0
1, 107624, Note_on_c, 1, 48, 127
1, 107624, Note_on_c, 1, 64, 127
1, 107766, Note_off_c, 1, 48, 0
1, 107768, Note_on_c, 1, 47, 127
1, 107910, Note_off_c, 1, 64, 0
1, 107910, Note_off_c, 1, 47, 0
1, 107912, Note_on_c, 1, 48, 127
1, 107912, Note_on_c, 1, 67, 127
1, 108054, Note_off_c, 1, 48, 0
1, 108056, Note_on_c, 1, 43, 127
1, 108198, Note_off_c, 1, 67, 0
1, 108198, Note_off_c, 1, 43, 0
1, 108200, Note_on_c, 1, 72, 127
1, 108200, Note_on_c, 1, 45, 127
1, 108342, Note_off_c, 1, 72, 0
1, 108344, Note_on_c, 1, 71, 127
1, 108486, Note_off_c, 1, 45, 0
1, 108486, Note_off_c, 1, 71, 0
1, 108488, Note_on_c, 1, 72, 127
1, 108488, Note_on_c, 1, 48, 127
1, 108630, Note_off_c, 1, 72, 0
1, 108632, Note_on_c, 1, 64, 127
1, 108774, Note_off_c, 1, 48, 0
1, 108774, Note_off_c, 1, 64, 0
1, 108776, Note_on_c, 1, 66, 127
1, 108776, Note_on_c, 1, 50, 127
1, 108918, Note_off_c, 1, 66, 0
1, 108920, Note_on_c, 1, 64, 127
1, 109062, Note_off_c, 1, 50, 0
1, 109062, Note_off_c, 1, 64, 0
1, 109064, Note_on_c, 1, 66, 127
1, 109064, Note_on_c, 1, 48, 127
1, 109206, Note_off_c, 1, 66, 0
1, 109208, Note_on_c, 1, 62, 127
1, 109350, Note_off_c, 1, 48, 0
1, 109350, Note_off_c, 1, 62, 0
1, 109352, Note_on_c, 1, 67, 127
1, 109352, Note_on_c, 1, 47, 127
1, 109494, Note_off_c, 1, 67, 0
1, 109496, Note_on_c, 1, 66, 127
1, 109638, Note_off_c, 1, 47, 0
1, 109638, Note_off_c, 1, 66, 0
1, 109640, Note_on_c, 1, 67, 127
1, 109640, Note_on_c, 1, 43, 127
1, 109782, Note_off_c, 1, 67, 0
1, 109784, Note_on_c, 1, 62, 127
1, 109926, Note_off_c, 1, 43, 0
1, 109926, Note_off_c, 1, 62, 0
1, 109928, Note_on_c, 1, 69, 127
1, 109928, Note_on_c, 1, 42, 127
1, 110070, Note_off_c, 1, 69, 0
1, 110072, Note_on_c, 1, 67, 127
1, 110214, Note_off_c, 1, 42, 0
1, 110214, Note_off_c, 1, 67, 0
1, 110216, Note_on_c, 1, 69, 127
1, 110216, Note_on_c, 1, 38, 127
1, 110358, Note_off_c, 1, 69, 0
1, 110360, Note_on_c, 1, 62, 127
1, 110502, Note_off_c, 1, 38, 0
1, 110502, Note_off_c, 1, 62, 0
1, 110504, Note_on_c, 1, 55, 127
1, 110504, Note_on_c, 1, 71, 127
1, 110646, Note_off_c, 1, 55, 0
1, 110648, Note_on_c, 1, 54, 127
1, 110790, Note_off_c, 1, 71, 0
1, 110790, Note_off_c, 1, 54, 0
1, 110792, Note_on_c, 1, 55, 127
1, 110792, Note_on_c, 1, 79, 127
1, 110934, Note_off_c, 1, 55, 0
1, 110936, Note_on_c, 1, 50, 127
1, 111078, Note_off_c, 1, 79, 0
1, 111078, Note_off_c, 1, 50, 0
1, 111080, Note_on_c, 1, 57, 127
1, 111080, Note_on_c, 1, 72, 127
1, 111222, Note_off_c, 1, 57, 0
1, 111224, Note_on_c, 1, 55, 127
1, 111366, Note_off_c, 1, 72, 0
1, 111366, Note_off_c, 1, 55, 0
1, 111368, Note_on_c, 1, 79, 127
1, 111368, Note_on_c, 1, 57, 127
1, 111510, Note_off_c, 1, 79, 0
1, 111510, Note_off_c, 1, 57, 0
1, 111512, Note_on_c, 1, 78, 127
1, 111512, Note_on_c, 1, 50, 127
1, 111654, Note_off_c, 1, 78, 0
1, 111654, Note_off_c, 1, 50, 0
1, 111656, Note_on_c, 1, 59, 127
1, 111656, Note_on_c, 1, 79, 127
1, 111798, Note_off_c, 1, 59, 0
1, 111800, Note_on_c, 1, 57, 127
1, 111942, Note_off_c, 1, 79, 0
1, 111942, Note_off_c, 1, 57, 0
1, 111944, Note_on_c, 1, 59, 127
1, 111944, Note_on_c, 1, 74, 127
1, 112086, Note_off_c, 1, 59, 0
1, 112088, Note_on_c, 1, 50, 127
1, 112230, Note_off_c, 1, 74, 0
1, 112230, Note_off_c, 1, 50, 0
1, 112232, Note_on_c, 1, 60, 127
1, 112232, Note_on_c, 1, 76, 127
1, 112374, Note_off_c, 1, 60, 0
1, 112376, Note_on_c, 1, 59, 127
1, 112518, Note_off_c, 1, 76, 0
1, 112518, Note_off_c, 1, 59, 0
1, 112520, Note_on_c, 1, 60, 127
1, 112520, Note_on_c, 1, 84, 127
1, 112662, Note_off_c, 1, 60, 0
1, 112664, Note_on_c, 1, 50, 127
1, 112806, Note_off_c, 1, 84, 0
1, 112806, Note_off_c, 1, 50, 0
1, 112808, Note_on_c, 1, 78, 127
1, 112808, Note_on_c, 1, 62, 127
1, 112950, Note_off_c, 1, 78, 0
1, 112952, Note_on_c, 1, 74, 127
1, 113094, Note_off_c, 1, 62, 0
1, 113094, Note_off_c, 1, 74, 0
1, 113096, Note_on_c, 1, 79, 127
1, 113096, Note_on_c, 1, 59, 127
1, 113238, Note_off_c, 1, 79, 0
1, 113238, Note_off_c, 1, 59, 0
1, 113240, Note_on_c, 1, 60, 127
1, 113240, Note_on_c, 1, 81, 127
1, 113382, Note_off_c, 1, 60, 0
1, 113382, Note_off_c, 1, 81, 0
1, 113384, Note_on_c, 1, 79, 127
1, 113384, Note_on_c, 1, 62, 127
1, 113454, Note_off_c, 1, 79, 0
1, 113456, Note_on_c, 1, 78, 127
1, 113526, Note_off_c, 1, 78, 0
1, 113670, Note_off_c, 1, 62, 0
1, 113672, Note_on_c, 1, 79, 127
1, 113672, Note_on_c, 1, 50, 127
1, 113742, Note_off_c, 1, 79, 0
1, 113744, Note_on_c, 1, 78, 127
1, 113814, Note_off_c, 1, 78, 0
1, 113958, Note_off_c, 1, 50, 0
1, 113960, Note_on_c, 1, 55, 127
1, 113960, Note_on_c, 1, 79, 127
1, 114102, Note_off_c, 1, 55, 0
1, 114104, Note_on_c, 1, 54, 127
1, 114246, Note_off_c, 1, 54, 0
1, 114392, Note_on_c, 1, 50, 127
1, 114534, Note_off_c, 1, 50, 0
1, 114536, Note_on_c, 1, 57, 127
1, 114678, Note_off_c, 1, 57, 0
1, 114824, Note_on_c, 1, 71, 127
1, 114966, Note_off_c, 1, 71, 0
1, 114968, Note_on_c, 1, 72, 127
1, 115110, Note_off_c, 1, 72, 0
1, 115112, Note_on_c, 1, 59, 127
1, 115112, Note_on_c, 1, 74, 127
1, 115254, Note_off_c, 1, 59, 0
1, 115256, Note_on_c, 1, 60, 127
1, 115398, Note_off_c, 1, 74, 0
1, 115398, Note_off_c, 1, 60, 0
1, 115760, Note_off_c, 1, 79, 0
1, 115976, Note_on_c, 1, 74, 127
1, 115976, Note_on_c, 1, 59, 127
1, 116118, Note_off_c, 1, 74, 0
1, 116118, Note_off_c, 1, 59, 0
1, 116120, Note_on_c, 1, 76, 127
1, 116120, Note_on_c, 1, 55, 127
1, 116262, Note_off_c, 1, 76, 0
1, 116262, Note_off_c, 1, 55, 0
1, 116264, Note_on_c, 1, 74, 127
1, 116264, Note_on_c, 1, 59, 127
1, 116406, Note_off_c, 1, 74, 0
1, 116408, Note_on_c, 1, 72, 127
1, 116550, Note_off_c, 1, 59, 0
1, 116550, Note_off_c, 1, 72, 0
1, 116552, Note_on_c, 1, 71, 127
1, 116552, Note_on_c, 1, 62, 127
1, 116694, Note_off_c, 1, 71, 0
1, 116696, Note_on_c, 1, 69, 127
1, 116838, Note_off_c, 1, 62, 0
1, 116838, Note_off_c, 1, 69, 0
1, 116840, Note_on_c, 1, 67, 127
1, 116840, Note_on_c, 1, 59, 127
1, 116982, Note_off_c, 1, 67, 0
1, 116984, Note_on_c, 1, 74, 127
1, 117126, Note_off_c, 1, 59, 0
1, 117126, Note_off_c, 1, 74, 0
1, 117128, Note_on_c, 1, 72, 127
1, 117128, Note_on_c, 1, 55, 127
1, 117270, Note_off_c, 1, 72, 0
1, 117272, Note_on_c, 1, 74, 127
1, 117414, Note_off_c, 1, 55, 0
1, 117414, Note_off_c, 1, 74, 0
1, 117416, Note_on_c, 1, 76, 127
1, 117416, Note_on_c, 1, 60, 127
1, 117558, Note_off_c, 1, 76, 0
1, 117560, Note_on_c, 1, 74, 127
1, 117702, Note_off_c, 1, 60, 0
1, 117702, Note_off_c, 1, 74, 0
1, 117704, Note_on_c, 1, 72, 127
1, 117704, Note_on_c, 1, 64, 127
1, 117846, Note_off_c, 1, 72, 0
1, 117848, Note_on_c, 1, 71, 127
1, 117990, Note_off_c, 1, 64, 0
1, 117990, Note_off_c, 1, 71, 0
1, 117992, Note_on_c, 1, 69, 127
1, 117992, Note_on_c, 1, 60, 127
1, 118134, Note_off_c, 1, 69, 0
1, 118136, Note_on_c, 1, 76, 127
1, 118278, Note_off_c, 1, 60, 0
1, 118278, Note_off_c, 1, 76, 0
1, 118280, Note_on_c, 1, 74, 127
1, 118280, Note_on_c, 1, 57, 127
1, 118422, Note_off_c, 1, 74, 0
1, 118424, Note_on_c, 1, 76, 127
1, 118566, Note_off_c, 1, 57, 0
1, 118566, Note_off_c, 1, 76, 0
1, 118568, Note_on_c, 1, 78, 127
1, 118568, Note_on_c, 1, 62, 127
1, 118710, Note_off_c, 1, 78, 0
1, 118712, Note_on_c, 1, 76, 127
1, 118854, Note_off_c, 1, 62, 0
1, 118854, Note_off_c, 1, 76, 0
1, 118856, Note_on_c, 1, 74, 127
1, 118856, Note_on_c, 1, 66, 127
1, 118998, Note_off_c, 1, 74, 0
1, 119000, Note_on_c, 1, 72, 127
1, 119142, Note_off_c, 1, 66, 0
1, 119142, Note_off_c, 1, 72, 0
1, 119144, Note_on_c, 1, 71, 127
1, 119144, Note_on_c, 1, 62, 127
1, 119286, Note_off_c, 1, 71, 0
1, 119288, Note_on_c, 1, 78, 127
1, 119430, Note_off_c, 1, 62, 0
1, 119430, Note_off_c, 1, 78, 0
1, 119432, Note_on_c, 1, 76, 127
1, 119432, Note_on_c, 1, 59, 127
1, 119574, Note_off_c, 1, 76, 0
1, 119576, Note_on_c, 1, 78, 127
1, 119718, Note_off_c, 1, 59, 0
1, 119718, Note_off_c, 1, 78, 0
1, 119720, Note_on_c, 1, 79, 127
1, 119720, Note_on_c, 1, 64, 127
1, 120006, Note_off_c, 1, 79, 0
1, 120008, Note_on_c, 1, 78, 127
1, 120150, Note_off_c, 1, 78, 0
1, 120152, Note_on_c, 1, 76, 127
1, 120290, Note_off_c, 1, 64, 0
1, 120294, Note_off_c, 1, 76, 0
1, 120296, Note_on_c, 1, 74, 127
1, 120438, Note_off_c, 1, 74, 0
1, 120440, Note_on_c, 1, 76, 127
1, 120582, Note_off_c, 1, 76, 0
1, 120584, Note_on_c, 1, 72, 127
1, 120584, Note_on_c, 1, 81, 127
1, 120584, Note_on_c, 1, 66, 127
1, 120726, Note_off_c, 1, 72, 0
1, 120728, Note_on_c, 1, 74, 127
1, 120870, Note_off_c, 1, 81, 0
1, 120870, Note_off_c, 1, 66, 0
1, 120870, Note_off_c, 1, 74, 0
1, 120872, Note_on_c, 1, 83, 127
1, 120872, Note_on_c, 1, 71, 127
1, 120872, Note_on_c, 1, 67, 127
1, 121158, Note_off_c, 1, 83, 0
1, 121160, Note_on_c, 1, 81, 127
1, 121302, Note_off_c, 1, 81, 0
1, 121304, Note_on_c, 1, 79, 127
1, 121446, Note_off_c, 1, 79, 0
1, 121448, Note_on_c, 1, 78, 127
1, 121590, Note_off_c, 1, 78, 0
1, 121592, Note_off_c, 1, 71, 0
1, 121592, Note_off_c, 1, 67, 0
1, 121736, Note_on_c, 1, 76, 127
1, 121736, Note_on_c, 1, 72, 127
1, 121736, Note_on_c, 1, 69, 127
1, 121878, Note_off_c, 1, 76, 0
1, 121880, Note_on_c, 1, 78, 127
1, 122022, Note_off_c, 1, 72, 0
1, 122022, Note_off_c, 1, 69, 0
1, 122022, Note_off_c, 1, 78, 0
1, 122024, Note_on_c, 1, 71, 127
1, 122024, Note_on_c, 1, 74, 127
1, 122310, Note_off_c, 1, 71, 0
1, 122312, Note_on_c, 1, 72, 127
1, 122312, Note_on_c, 1, 69, 127
1, 122454, Note_off_c, 1, 72, 0
1, 122454, Note_off_c, 1, 69, 0
1, 122456, Note_on_c, 1, 67, 127
1, 122598, Note_off_c, 1, 67, 0
1, 122600, Note_on_c, 1, 66, 127
1, 122742, Note_off_c, 1, 66, 0
1, 122886, Note_off_c, 1, 74, 0
1, 122888, Note_on_c, 1, 64, 127
1, 122888, Note_on_c, 1, 67, 127
1, 122888, Note_on_c, 1, 72, 127
1, 123030, Note_off_c, 1, 64, 0
1, 123032, Note_on_c, 1, 66, 127
1, 123174, Note_off_c, 1, 67, 0
1, 123174, Note_off_c, 1, 66, 0
1, 123176, Note_on_c, 1, 62, 127
1, 123318, Note_off_c, 1, 62, 0
1, 123462, Note_off_c, 1, 72, 0
1, 123464, Note_on_c, 1, 60, 127
1, 123606, Note_off_c, 1, 60, 0
1, 123752, Note_on_c, 1, 71, 127
1, 124184, Note_on_c, 1, 59, 127
1, 124326, Note_off_c, 1, 59, 0
1, 124614, Note_off_c, 1, 71, 0
1, 124904, Note_on_c, 1, 69, 127
1, 125336, Note_on_c, 1, 57, 127
1, 125478, Note_off_c, 1, 57, 0
1, 125766, Note_off_c, 1, 69, 0
1, 126488, Note_on_c, 1, 55, 127
1, 126630, Note_off_c, 1, 55, 0
1, 127208, Note_on_c, 1, 60, 127
1, 127208, Note_on_c, 1, 57, 127
1, 127208, Note_on_c, 1, 66, 127
1, 127350, Note_off_c, 1, 60, 0
1, 127352, Note_on_c, 1, 59, 127
1, 127494, Note_off_c, 1, 57, 0
1, 127494, Note_off_c, 1, 59, 0
1, 127496, Note_on_c, 1, 50, 127
1, 127782, Note_off_c, 1, 66, 0
1, 127782, Note_off_c, 1, 50, 0
1, 127784, Note_on_c, 1, 67, 127
1, 127784, Note_on_c, 1, 59, 127
1, 127784, Note_on_c, 1, 55, 127
1, 127926, Note_off_c, 1, 67, 0
1, 127928, Note_on_c, 1, 69, 127
1, 128070, Note_off_c, 1, 59, 0
1, 128070, Note_off_c, 1, 69, 0
1, 128072, Note_on_c, 1, 66, 127
1, 128072, Note_on_c, 1, 57, 127
1, 128214, Note_off_c, 1, 66, 0
1, 128354, Note_off_c, 1, 55, 0
1, 128358, Note_off_c, 1, 57, 0
1, 128360, Note_on_c, 1, 67, 127
1, 128360, Note_on_c, 1, 59, 127
1, 128502, Note_off_c, 1, 67, 0
1, 128504, Note_on_c, 1, 66, 127
1, 128646, Note_off_c, 1, 59, 0
1, 128646, Note_off_c, 1, 66, 0
1, 128648, Note_on_c, 1, 67, 127
1, 128648, Note_on_c, 1, 61, 127
1, 128790, Note_off_c, 1, 67, 0
1, 128792, Note_on_c, 1, 64, 127
1, 128934, Note_off_c, 1, 61, 0
1, 128934, Note_off_c, 1, 64, 0
1, 128936, Note_on_c, 1, 62, 127
1, 128936, Note_on_c, 1, 66, 127
1, 129078, Note_off_c, 1, 62, 0
1, 129080, Note_on_c, 1, 64, 127
1, 129222, Note_off_c, 1, 66, 0
1, 129222, Note_off_c, 1, 64, 0
1, 129224, Note_on_c, 1, 60, 127
1, 129224, Note_on_c, 1, 66, 127
1, 129366, Note_off_c, 1, 60, 0
1, 129368, Note_on_c, 1, 64, 127
1, 129510, Note_off_c, 1, 66, 0
1, 129510, Note_off_c, 1, 64, 0
1, 129512, Note_on_c, 1, 62, 127
1, 129512, Note_on_c, 1, 71, 127
1, 129654, Note_off_c, 1, 62, 0
1, 129656, Note_on_c, 1, 60, 127
1, 129798, Note_off_c, 1, 60, 0
1, 129944, Note_on_c, 1, 59, 127
1, 130086, Note_off_c, 1, 59, 0
1, 130232, Note_off_c, 1, 71, 0
1, 130376, Note_on_c, 1, 59, 127
1, 130376, Note_on_c, 1, 71, 127
1, 130518, Note_off_c, 1, 59, 0
1, 130520, Note_on_c, 1, 62, 127
1, 130662, Note_off_c, 1, 71, 0
1, 130662, Note_off_c, 1, 62, 0
1, 130664, Note_on_c, 1, 60, 127
1, 130664, Note_on_c, 1, 69, 127
1, 130806, Note_off_c, 1, 60, 0
1, 130808, Note_on_c, 1, 59, 127
1, 130950, Note_off_c, 1, 59, 0
1, 131096, Note_on_c, 1, 57, 127
1, 131238, Note_off_c, 1, 57, 0
1, 131240, Note_on_c, 1, 64, 127
1, 131382, Note_off_c, 1, 64, 0
1, 131384, Note_off_c, 1, 69, 0
1, 131384, Note_on_c, 1, 65, 127
1, 131526, Note_off_c, 1, 65, 0
1, 131528, Note_on_c, 1, 62, 127
1, 131528, Note_on_c, 1, 67, 127
1, 131670, Note_off_c, 1, 62, 0
1, 131672, Note_on_c, 1, 65, 127
1, 131814, Note_off_c, 1, 67, 0
1, 131814, Note_off_c, 1, 65, 0
1, 131816, Note_on_c, 1, 64, 127
1, 131816, Note_on_c, 1, 72, 127
1, 131958, Note_off_c, 1, 64, 0
1, 131960, Note_on_c, 1, 62, 127
1, 132102, Note_off_c, 1, 62, 0
1, 132248, Note_on_c, 1, 60, 127
1, 132390, Note_off_c, 1, 60, 0
1, 132536, Note_off_c, 1, 72, 0
1, 132680, Note_on_c, 1, 60, 127
1, 132680, Note_on_c, 1, 72, 127
1, 132822, Note_off_c, 1, 60, 0
1, 132824, Note_on_c, 1, 64, 127
1, 132966, Note_off_c, 1, 72, 0
1, 132966, Note_off_c, 1, 64, 0
1, 132968, Note_on_c, 1, 62, 127
1, 132968, Note_on_c, 1, 71, 127
1, 133110, Note_off_c, 1, 62, 0
1, 133112, Note_on_c, 1, 60, 127
1, 133254, Note_off_c, 1, 60, 0
1, 133400, Note_on_c, 1, 59, 127
1, 133542, Note_off_c, 1, 59, 0
1, 133688, Note_off_c, 1, 71, 0
1, 133832, Note_on_c, 1, 59, 127
1, 133832, Note_on_c, 1, 71, 127
1, 133974, Note_off_c, 1, 59, 0
1, 133976, Note_on_c, 1, 62, 127
1, 134118, Note_off_c, 1, 71, 0
1, 134118, Note_off_c, 1, 62, 0
1, 134120, Note_on_c, 1, 60, 127
1, 134120, Note_on_c, 1, 69, 127
1, 134262, Note_off_c, 1, 60, 0
1, 134264, Note_on_c, 1, 59, 127
1, 134406, Note_off_c, 1, 69, 0
1, 134406, Note_off_c, 1, 59, 0
1, 134408, Note_on_c, 1, 60, 127
1, 134408, Note_on_c, 1, 76, 127
1, 134550, Note_off_c, 1, 60, 0
1, 134552, Note_on_c, 1, 57, 127
1, 134694, Note_off_c, 1, 57, 0
1, 134696, Note_on_c, 1, 59, 127
1, 134828, Note_off_c, 1, 76, 0
1, 134838, Note_off_c, 1, 59, 0
1, 134840, Note_on_c, 1, 60, 127
1, 134982, Note_off_c, 1, 60, 0
1, 134984, Note_on_c, 1, 57, 127
1, 134984, Note_on_c, 1, 76, 127
1, 135126, Note_off_c, 1, 57, 0
1, 135128, Note_on_c, 1, 60, 127
1, 135270, Note_off_c, 1, 76, 0
1, 135270, Note_off_c, 1, 60, 0
1, 135272, Note_on_c, 1, 59, 127
1, 135272, Note_on_c, 1, 74, 127
1, 135414, Note_off_c, 1, 59, 0
1, 135416, Note_on_c, 1, 57, 127
1, 135558, Note_off_c, 1, 74, 0
1, 135558, Note_off_c, 1, 57, 0
1, 135560, Note_on_c, 1, 59, 127
1, 135560, Note_on_c, 1, 79, 127
1, 135702, Note_off_c, 1, 59, 0
1, 135704, Note_on_c, 1, 55, 127
1, 135846, Note_off_c, 1, 55, 0
1, 135848, Note_on_c, 1, 57, 127
1, 135990, Note_off_c, 1, 57, 0
1, 136040, Note_off_c, 1, 79, 0
1, 136136, Note_on_c, 1, 55, 127
1, 136136, Note_on_c, 1, 79, 127
1, 136278, Note_off_c, 1, 55, 0
1, 136280, Note_on_c, 1, 59, 127
1, 136422, Note_off_c, 1, 79, 0
1, 136422, Note_off_c, 1, 59, 0
1, 136424, Note_on_c, 1, 57, 127
1, 136424, Note_on_c, 1, 78, 127
1, 136566, Note_off_c, 1, 57, 0
1, 136568, Note_on_c, 1, 55, 127
1, 136710, Note_off_c, 1, 78, 0
1, 136710, Note_off_c, 1, 55, 0
1, 136712, Note_on_c, 1, 57, 127
1, 136712, Note_on_c, 1, 84, 127
1, 136854, Note_off_c, 1, 57, 0
1, 136856, Note_on_c, 1, 54, 127
1, 136998, Note_off_c, 1, 54, 0
1, 137000, Note_on_c, 1, 55, 127
1, 137142, Note_off_c, 1, 55, 0
1, 137222, Note_off_c, 1, 84, 0
1, 137288, Note_on_c, 1, 54, 127
1, 137288, Note_on_c, 1, 84, 127
1, 137430, Note_off_c, 1, 54, 0
1, 137432, Note_on_c, 1, 57, 127
1, 137574, Note_off_c, 1, 84, 0
1, 137574, Note_off_c, 1, 57, 0
1, 137576, Note_on_c, 1, 55, 127
1, 137576, Note_on_c, 1, 83, 127
1, 137718, Note_off_c, 1, 55, 0
1, 137720, Note_on_c, 1, 54, 127
1, 137862, Note_off_c, 1, 83, 0
1, 137862, Note_off_c, 1, 54, 0
1, 137864, Note_on_c, 1, 55, 127
1, 137864, Note_on_c, 1, 76, 127
1, 138006, Note_off_c, 1, 55, 0
1, 138008, Note_on_c, 1, 52, 127
1, 138150, Note_off_c, 1, 52, 0
1, 138152, Note_on_c, 1, 54, 127
1, 138284, Note_off_c, 1, 76, 0
1, 138294, Note_off_c, 1, 54, 0
1, 138296, Note_on_c, 1, 55, 127
1, 138438, Note_off_c, 1, 55, 0
1, 138440, Note_on_c, 1, 52, 127
1, 138440, Note_on_c, 1, 76, 127
1, 138582, Note_off_c, 1, 52, 0
1, 138584, Note_on_c, 1, 55, 127
1, 138726, Note_off_c, 1, 76, 0
1, 138726, Note_off_c, 1, 55, 0
1, 138728, Note_on_c, 1, 54, 127
1, 138728, Note_on_c, 1, 75, 127
1, 138870, Note_off_c, 1, 54, 0
1, 138872, Note_on_c, 1, 52, 127
1, 139014, Note_off_c, 1, 75, 0
1, 139014, Note_off_c, 1, 52, 0
1, 139016, Note_on_c, 1, 54, 127
1, 139016, Note_on_c, 1, 81, 127
1, 139158, Note_off_c, 1, 54, 0
1, 139160, Note_on_c, 1, 51, 127
1, 139302, Note_off_c, 1, 51, 0
1, 139304, Note_on_c, 1, 52, 127
1, 139446, Note_off_c, 1, 81, 0
1, 139448, Note_on_c, 1, 79, 127
1, 139590, Note_off_c, 1, 52, 0
1, 139590, Note_off_c, 1, 79, 0
1, 139592, Note_on_c, 1, 81, 127
1, 139592, Note_on_c, 1, 59, 127
1, 139734, Note_off_c, 1, 81, 0
1, 139736, Note_on_c, 1, 78, 127
1, 139878, Note_off_c, 1, 59, 0
1, 139878, Note_off_c, 1, 78, 0
1, 139880, Note_on_c, 1, 79, 127
1, 139880, Note_on_c, 1, 64, 127
1, 140022, Note_off_c, 1, 79, 0
1, 140024, Note_on_c, 1, 78, 127
1, 140166, Note_off_c, 1, 64, 0
1, 140166, Note_off_c, 1, 78, 0
1, 140168, Note_on_c, 1, 79, 127
1, 140168, Note_on_c, 1, 55, 127
1, 140310, Note_off_c, 1, 79, 0
1, 140312, Note_on_c, 1, 76, 127
1, 140454, Note_off_c, 1, 55, 0
1, 140454, Note_off_c, 1, 76, 0
1, 140456, Note_on_c, 1, 78, 127
1, 140456, Note_on_c, 1, 57, 127
1, 140598, Note_off_c, 1, 78, 0
1, 140600, Note_on_c, 1, 76, 127
1, 140742, Note_off_c, 1, 57, 0
1, 140742, Note_off_c, 1, 76, 0
1, 140744, Note_on_c, 1, 78, 127
1, 140744, Note_on_c, 1, 59, 127
1, 140886, Note_off_c, 1, 78, 0
1, 140888, Note_on_c, 1, 75, 127
1, 141030, Note_off_c, 1, 59, 0
1, 141030, Note_off_c, 1, 75, 0
1, 141032, Note_on_c, 1, 76, 127
1, 141032, Note_on_c, 1, 60, 127
1, 141174, Note_off_c, 1, 76, 0
1, 141176, Note_on_c, 1, 75, 127
1, 141318, Note_off_c, 1, 60, 0
1, 141318, Note_off_c, 1, 75, 0
1, 141320, Note_on_c, 1, 76, 127
1, 141320, Note_on_c, 1, 55, 127
1, 141462, Note_off_c, 1, 76, 0
1, 141464, Note_on_c, 1, 71, 127
1, 141606, Note_off_c, 1, 55, 0
1, 141606, Note_off_c, 1, 71, 0
1, 141608, Note_on_c, 1, 72, 127
1, 141608, Note_on_c, 1, 57, 127
1, 141750, Note_off_c, 1, 72, 0
1, 141752, Note_on_c, 1, 71, 127
1, 141894, Note_off_c, 1, 57, 0
1, 141894, Note_off_c, 1, 71, 0
1, 141896, Note_on_c, 1, 54, 127
1, 141896, Note_on_c, 1, 72, 127
1, 142040, Note_on_c, 1, 64, 127
1, 142182, Note_off_c, 1, 54, 0
1, 142182, Note_off_c, 1, 64, 0
1, 142184, Note_on_c, 1, 63, 127
1, 142184, Note_on_c, 1, 59, 127
1, 142316, Note_off_c, 1, 72, 0
1, 142328, Note_on_c, 1, 66, 127
1, 142469, Note_off_c, 1, 63, 0
1, 142471, Note_off_c, 1, 59, 0
1, 142471, Note_off_c, 1, 66, 0
1, 142473, Note_on_c, 1, 71, 127
1, 142473, Note_on_c, 1, 63, 127
1, 142615, Note_off_c, 1, 71, 0
1, 142617, Note_on_c, 1, 69, 127
1, 142759, Note_off_c, 1, 63, 0
1, 142759, Note_off_c, 1, 69, 0
1, 142761, Note_on_c, 1, 67, 127
1, 142761, Note_on_c, 1, 64, 127
1, 142903, Note_off_c, 1, 67, 0
1, 142905, Note_on_c, 1, 66, 127
1, 143047, Note_off_c, 1, 66, 0
1, 143181, Note_off_c, 1, 64, 0
1, 143193, Note_on_c, 1, 64, 127
1, 143337, Note_on_c, 1, 76, 127
1, 143478, Note_off_c, 1, 64, 0
1, 143480, Note_off_c, 1, 76, 0
1, 143482, Note_on_c, 1, 75, 127
1, 143624, Note_off_c, 1, 75, 0
1, 143626, Note_on_c, 1, 76, 127
1, 143626, Note_on_c, 1, 55, 127
1, 143768, Note_off_c, 1, 76, 0
1, 143768, Note_off_c, 1, 55, 0
1, 143770, Note_on_c, 1, 78, 127
1, 143770, Note_on_c, 1, 57, 127
1, 143912, Note_off_c, 1, 78, 0
1, 143912, Note_off_c, 1, 57, 0
1, 143914, Note_on_c, 1, 75, 127
1, 143914, Note_on_c, 1, 59, 127
1, 144056, Note_off_c, 1, 75, 0
1, 144058, Note_on_c, 1, 76, 127
1, 144200, Note_off_c, 1, 59, 0
1, 144200, Note_off_c, 1, 76, 0
1, 144202, Note_on_c, 1, 73, 127
1, 144202, Note_on_c, 1, 59, 127
1, 144344, Note_off_c, 1, 73, 0
1, 144346, Note_on_c, 1, 76, 127
1, 144488, Note_off_c, 1, 59, 0
1, 144488, Note_off_c, 1, 76, 0
1, 144490, Note_on_c, 1, 75, 127
1, 144490, Note_on_c, 1, 59, 127
1, 144632, Note_off_c, 1, 75, 0
1, 144634, Note_on_c, 1, 73, 127
1, 144776, Note_off_c, 1, 59, 0
1, 144776, Note_off_c, 1, 73, 0
1, 144778, Note_on_c, 1, 75, 127
1, 144778, Note_on_c, 1, 59, 127
1, 144920, Note_off_c, 1, 75, 0
1, 144920, Note_off_c, 1, 59, 0
1, 144922, Note_on_c, 1, 71, 127
1, 144922, Note_on_c, 1, 60, 127
1, 145064, Note_off_c, 1, 71, 0
1, 145064, Note_off_c, 1, 60, 0
1, 145066, Note_on_c, 1, 59, 127
1, 145066, Note_on_c, 1, 79, 127
1, 145208, Note_off_c, 1, 59, 0
1, 145210, Note_on_c, 1, 78, 127
1, 145210, Note_on_c, 1, 57, 127
1, 145352, Note_off_c, 1, 78, 0
1, 145352, Note_off_c, 1, 57, 0
1, 145354, Note_on_c, 1, 76, 127
1, 145354, Note_on_c, 1, 55, 127
1, 145496, Note_off_c, 1, 76, 0
1, 145496, Note_off_c, 1, 55, 0
1, 145498, Note_on_c, 1, 75, 127
1, 145498, Note_on_c, 1, 54, 127
1, 145636, Note_off_c, 1, 79, 0
1, 145640, Note_off_c, 1, 75, 0
1, 145640, Note_off_c, 1, 54, 0
1, 145642, Note_on_c, 1, 52, 127
1, 145642, Note_on_c, 1, 76, 127
1, 145784, Note_off_c, 1, 52, 0
1, 145786, Note_on_c, 1, 59, 127
1, 145928, Note_off_c, 1, 59, 0
1, 145930, Note_on_c, 1, 57, 127
1, 145930, Note_on_c, 1, 80, 127
1, 146072, Note_off_c, 1, 57, 0
1, 146216, Note_off_c, 1, 80, 0
1, 146218, Note_on_c, 1, 60, 127
1, 146218, Note_on_c, 1, 81, 127
1, 146360, Note_off_c, 1, 76, 0
1, 146360, Note_off_c, 1, 60, 0
1, 146362, Note_on_c, 1, 79, 127
1, 146504, Note_off_c, 1, 79, 0
1, 146506, Note_on_c, 1, 78, 127
1, 146648, Note_off_c, 1, 78, 0
1, 146650, Note_on_c, 1, 55, 127
1, 146788, Note_off_c, 1, 81, 0
1, 146792, Note_off_c, 1, 55, 0
1, 146794, Note_on_c, 1, 54, 127
1, 146794, Note_on_c, 1, 78, 127
1, 146936, Note_off_c, 1, 54, 0
1, 146938, Note_on_c, 1, 61, 127
1, 147080, Note_off_c, 1, 61, 0
1, 147082, Note_on_c, 1, 59, 127
1, 147082, Note_on_c, 1, 82, 127
1, 147224, Note_off_c, 1, 59, 0
1, 147368, Note_off_c, 1, 82, 0
1, 147370, Note_on_c, 1, 62, 127
1, 147370, Note_on_c, 1, 83, 127
1, 147512, Note_off_c, 1, 78, 0
1, 147512, Note_off_c, 1, 62, 0
1, 147514, Note_on_c, 1, 81, 127
1, 147514, Note_on_c, 1, 60, 127
1, 147656, Note_off_c, 1, 81, 0
1, 147656, Note_off_c, 1, 60, 0
1, 147658, Note_on_c, 1, 79, 127
1, 147800, Note_off_c, 1, 79, 0
1, 147802, Note_on_c, 1, 57, 127
1, 147940, Note_off_c, 1, 83, 0
1, 147944, Note_off_c, 1, 57, 0
1, 147946, Note_on_c, 1, 55, 127
1, 147946, Note_on_c, 1, 76, 127
1, 148088, Note_off_c, 1, 55, 0
1, 148090, Note_on_c, 1, 63, 127
1, 148232, Note_off_c, 1, 76, 0
1, 148232, Note_off_c, 1, 63, 0
1, 148234, Note_on_c, 1, 61, 127
1, 148234, Note_on_c, 1, 81, 127
1, 148234, Note_on_c, 1, 78, 127
1, 148376, Note_off_c, 1, 61, 0
1, 148378, Note_on_c, 1, 63, 127
1, 148520, Note_off_c, 1, 81, 0
1, 148520, Note_off_c, 1, 78, 0
1, 148520, Note_off_c, 1, 63, 0
1, 148522, Note_on_c, 1, 79, 127
1, 148522, Note_on_c, 1, 64, 127
1, 148522, Note_on_c, 1, 71, 127
1, 148808, Note_off_c, 1, 79, 0
1, 148808, Note_off_c, 1, 64, 0
1, 148810, Note_on_c, 1, 78, 127
1, 148810, Note_on_c, 1, 62, 127
1, 148952, Note_off_c, 1, 78, 0
1, 148952, Note_off_c, 1, 62, 0
1, 148954, Note_on_c, 1, 76, 127
1, 148954, Note_on_c, 1, 60, 127
1, 149096, Note_off_c, 1, 76, 0
1, 149096, Note_off_c, 1, 60, 0
1, 149098, Note_on_c, 1, 59, 127
1, 149098, Note_on_c, 1, 75, 127
1, 149240, Note_off_c, 1, 59, 0
1, 149384, Note_off_c, 1, 75, 0
1, 149386, Note_on_c, 1, 57, 127
1, 149528, Note_off_c, 1, 57, 0
1, 149674, Note_on_c, 1, 55, 127
1, 149816, Note_off_c, 1, 55, 0
1, 149962, Note_on_c, 1, 54, 127
1, 150104, Note_off_c, 1, 54, 0
1, 150538, Note_on_c, 1, 56, 127
1, 150538, Note_on_c, 1, 74, 127
1, 150680, Note_off_c, 1, 56, 0
1, 150682, Note_on_c, 1, 52, 127
1, 150824, Note_off_c, 1, 74, 0
1, 150824, Note_off_c, 1, 52, 0
1, 150826, Note_on_c, 1, 72, 127
1, 151112, Note_off_c, 1, 71, 0
1, 151114, Note_on_c, 1, 69, 127
1, 151256, Note_off_c, 1, 69, 0
1, 151258, Note_on_c, 1, 68, 127
1, 151400, Note_off_c, 1, 68, 0
1, 151688, Note_off_c, 1, 72, 0
1, 151690, Note_on_c, 1, 57, 127
1, 151690, Note_on_c, 1, 66, 127
1, 151832, Note_off_c, 1, 57, 0
1, 151834, Note_on_c, 1, 54, 127
1, 151834, Note_on_c, 1, 69, 127
1, 151976, Note_off_c, 1, 66, 0
1, 151976, Note_off_c, 1, 54, 0
1, 151978, Note_on_c, 1, 63, 127
1, 151978, Note_on_c, 1, 59, 127
1, 152120, Note_off_c, 1, 69, 0
1, 152264, Note_off_c, 1, 63, 0
1, 152264, Note_off_c, 1, 59, 0
1, 152266, Note_on_c, 1, 67, 127
1, 152266, Note_on_c, 1, 57, 127
1, 152266, Note_on_c, 1, 64, 127
1, 152408, Note_off_c, 1, 67, 0
1, 152410, Note_on_c, 1, 69, 127
1, 152552, Note_off_c, 1, 57, 0
1, 152552, Note_off_c, 1, 69, 0
1, 152554, Note_on_c, 1, 59, 127
1, 152612, Note_on_c, 1, 66, 127
1, 152676, Note_off_c, 1, 66, 0
1, 152840, Note_off_c, 1, 64, 0
1, 152840, Note_off_c, 1, 59, 0
1, 152842, Note_on_c, 1, 63, 127
1, 152842, Note_on_c, 1, 47, 127
1, 153128, Note_off_c, 1, 63, 0
1, 153128, Note_off_c, 1, 47, 0
1, 153130, Note_on_c, 1, 64, 127
1, 153130, Note_on_c, 1, 40, 127
1, 153274, Note_on_c, 1, 63, 127
1, 153415, Note_off_c, 1, 64, 0
1, 153417, Note_off_c, 1, 40, 0
1, 153417, Note_off_c, 1, 63, 0
1, 153419, Note_on_c, 1, 64, 127
1, 153419, Note_on_c, 1, 52, 127
1, 153561, Note_off_c, 1, 64, 0
1, 153563, Note_on_c, 1, 59, 127
1, 153705, Note_off_c, 1, 52, 0
1, 153705, Note_off_c, 1, 59, 0
1, 153707, Note_on_c, 1, 66, 127
1, 153707, Note_on_c, 1, 51, 127
1, 153849, Note_off_c, 1, 66, 0
1, 153851, Note_on_c, 1, 64, 127
1, 153993, Note_off_c, 1, 51, 0
1, 153993, Note_off_c, 1, 64, 0
1, 153995, Note_on_c, 1, 66, 127
1, 153995, Note_on_c, 1, 47, 127
1, 154137, Note_off_c, 1, 66, 0
1, 154139, Note_on_c, 1, 59, 127
1, 154281, Note_off_c, 1, 47, 0
1, 154281, Note_off_c, 1, 59, 0
1, 154283, Note_on_c, 1, 52, 127
1, 154283, Note_on_c, 1, 67, 127
1, 154425, Note_off_c, 1, 52, 0
1, 154427, Note_on_c, 1, 51, 127
1, 154538, Note_off_c, 1, 67, 0
1, 154570, Note_off_c, 1, 51, 0
1, 154572, Note_on_c, 1, 52, 127
1, 154572, Note_on_c, 1, 64, 127
1, 154714, Note_off_c, 1, 52, 0
1, 154716, Note_on_c, 1, 47, 127
1, 154857, Note_off_c, 1, 64, 0
1, 154859, Note_off_c, 1, 47, 0
1, 154861, Note_on_c, 1, 54, 127
1, 155003, Note_off_c, 1, 54, 0
1, 155005, Note_on_c, 1, 52, 127
1, 155147, Note_off_c, 1, 52, 0
1, 155149, Note_on_c, 1, 54, 127
1, 155149, Note_on_c, 1, 63, 127
1, 155291, Note_off_c, 1, 54, 0
1, 155293, Note_on_c, 1, 47, 127
1, 155435, Note_off_c, 1, 63, 0
1, 155435, Note_off_c, 1, 47, 0
1, 155437, Note_on_c, 1, 64, 127
1, 155437, Note_on_c, 1, 55, 127
1, 155579, Note_off_c, 1, 64, 0
1, 155581, Note_on_c, 1, 63, 127
1, 155723, Note_off_c, 1, 55, 0
1, 155723, Note_off_c, 1, 63, 0
1, 155725, Note_on_c, 1, 64, 127
1, 155725, Note_on_c, 1, 52, 127
1, 155867, Note_off_c, 1, 64, 0
1, 155869, Note_on_c, 1, 59, 127
1, 156011, Note_off_c, 1, 52, 0
1, 156011, Note_off_c, 1, 59, 0
1, 156013, Note_on_c, 1, 66, 127
1, 156013, Note_on_c, 1, 51, 127
1, 156155, Note_off_c, 1, 66, 0
1, 156157, Note_on_c, 1, 64, 127
1, 156299, Note_off_c, 1, 51, 0
1, 156299, Note_off_c, 1, 64, 0
1, 156301, Note_on_c, 1, 66, 127
1, 156301, Note_on_c, 1, 47, 127
1, 156443, Note_off_c, 1, 66, 0
1, 156445, Note_on_c, 1, 59, 127
1, 156587, Note_off_c, 1, 47, 0
1, 156587, Note_off_c, 1, 59, 0
1, 156589, Note_on_c, 1, 67, 127
1, 156589, Note_on_c, 1, 52, 127
1, 156731, Note_off_c, 1, 67, 0
1, 156733, Note_on_c, 1, 66, 127
1, 156875, Note_off_c, 1, 52, 0
1, 156875, Note_off_c, 1, 66, 0
1, 156877, Note_on_c, 1, 67, 127
1, 156877, Note_on_c, 1, 40, 127
1, 157019, Note_off_c, 1, 67, 0
1, 157021, Note_on_c, 1, 59, 127
1, 157163, Note_off_c, 1, 40, 0
1, 157165, Note_on_c, 1, 69, 127
1, 157165, Note_on_c, 1, 42, 127
1, 157174, Note_off_c, 1, 59, 0
1, 157308, Note_off_c, 1, 69, 0
1, 157452, Note_off_c, 1, 42, 0
1, 157454, Note_on_c, 1, 69, 127
1, 157454, Note_on_c, 1, 54, 127
1, 157596, Note_off_c, 1, 69, 0
1, 157598, Note_on_c, 1, 59, 127
1, 157740, Note_off_c, 1, 54, 0
1, 157740, Note_off_c, 1, 59, 0
1, 157742, Note_on_c, 1, 71, 127
1, 157742, Note_on_c, 1, 55, 127
1, 157884, Note_off_c, 1, 71, 0
1, 157886, Note_on_c, 1, 69, 127
1, 158028, Note_off_c, 1, 55, 0
1, 158028, Note_off_c, 1, 69, 0
1, 158030, Note_on_c, 1, 71, 127
1, 158030, Note_on_c, 1, 52, 127
1, 158172, Note_off_c, 1, 71, 0
1, 158174, Note_on_c, 1, 59, 127
1, 158316, Note_off_c, 1, 52, 0
1, 158316, Note_off_c, 1, 59, 0
1, 158318, Note_on_c, 1, 61, 127
1, 158318, Note_on_c, 1, 57, 127
1, 158460, Note_off_c, 1, 61, 0
1, 158462, Note_on_c, 1, 64, 127
1, 158604, Note_off_c, 1, 57, 0
1, 158604, Note_off_c, 1, 64, 0
1, 158606, Note_on_c, 1, 66, 127
1, 158606, Note_on_c, 1, 55, 127
1, 158748, Note_off_c, 1, 66, 0
1, 158750, Note_on_c, 1, 67, 127
1, 158892, Note_off_c, 1, 55, 0
1, 158892, Note_off_c, 1, 67, 0
1, 158894, Note_on_c, 1, 69, 127
1, 158894, Note_on_c, 1, 54, 127
1, 159036, Note_off_c, 1, 69, 0
1, 159038, Note_on_c, 1, 67, 127
1, 159180, Note_off_c, 1, 54, 0
1, 159180, Note_off_c, 1, 67, 0
1, 159182, Note_on_c, 1, 69, 127
1, 159182, Note_on_c, 1, 52, 127
1, 159324, Note_off_c, 1, 69, 0
1, 159326, Note_on_c, 1, 61, 127
1, 159468, Note_off_c, 1, 52, 0
1, 159468, Note_off_c, 1, 61, 0
1, 159470, Note_on_c, 1, 63, 127
1, 159470, Note_on_c, 1, 54, 127
1, 159612, Note_off_c, 1, 63, 0
1, 159614, Note_on_c, 1, 66, 127
1, 159756, Note_off_c, 1, 54, 0
1, 159756, Note_off_c, 1, 66, 0
1, 159758, Note_on_c, 1, 71, 127
1, 159758, Note_on_c, 1, 47, 127
1, 159900, Note_off_c, 1, 71, 0
1, 159902, Note_on_c, 1, 69, 127
1, 160044, Note_off_c, 1, 47, 0
1, 160044, Note_off_c, 1, 69, 0
1, 160046, Note_on_c, 1, 52, 127
1, 160046, Note_on_c, 1, 67, 127
1, 160188, Note_off_c, 1, 52, 0
1, 160190, Note_on_c, 1, 51, 127
1, 160332, Note_off_c, 1, 67, 0
1, 160332, Note_off_c, 1, 51, 0
1, 160334, Note_on_c, 1, 52, 127
1, 160334, Note_on_c, 1, 76, 127
1, 160476, Note_off_c, 1, 52, 0
1, 160478, Note_on_c, 1, 47, 127
1, 160620, Note_off_c, 1, 76, 0
1, 160620, Note_off_c, 1, 47, 0
1, 160622, Note_on_c, 1, 54, 127
1, 160622, Note_on_c, 1, 69, 127
1, 160764, Note_off_c, 1, 54, 0
1, 160766, Note_on_c, 1, 52, 127
1, 160908, Note_off_c, 1, 69, 0
1, 160908, Note_off_c, 1, 52, 0
1, 160910, Note_on_c, 1, 76, 127
1, 160910, Note_on_c, 1, 54, 127
1, 161052, Note_off_c, 1, 76, 0
1, 161052, Note_off_c, 1, 54, 0
1, 161054, Note_on_c, 1, 75, 127
1, 161054, Note_on_c, 1, 47, 127
1, 161196, Note_off_c, 1, 75, 0
1, 161196, Note_off_c, 1, 47, 0
1, 161198, Note_on_c, 1, 55, 127
1, 161198, Note_on_c, 1, 76, 127
1, 161340, Note_off_c, 1, 55, 0
1, 161342, Note_on_c, 1, 54, 127
1, 161484, Note_off_c, 1, 76, 0
1, 161484, Note_off_c, 1, 54, 0
1, 161486, Note_on_c, 1, 55, 127
1, 161486, Note_on_c, 1, 71, 127
1, 161628, Note_off_c, 1, 55, 0
1, 161630, Note_on_c, 1, 47, 127
1, 161772, Note_off_c, 1, 71, 0
1, 161772, Note_off_c, 1, 47, 0
1, 161774, Note_on_c, 1, 72, 127
1, 161774, Note_on_c, 1, 57, 127
1, 161916, Note_off_c, 1, 72, 0
1, 161916, Note_off_c, 1, 57, 0
1, 161918, Note_on_c, 1, 64, 127
1, 161918, Note_on_c, 1, 55, 127
1, 162060, Note_off_c, 1, 64, 0
1, 162060, Note_off_c, 1, 55, 0
1, 162062, Note_on_c, 1, 66, 127
1, 162062, Note_on_c, 1, 57, 127
1, 162204, Note_off_c, 1, 66, 0
1, 162204, Note_off_c, 1, 57, 0
1, 162206, Note_on_c, 1, 69, 127
1, 162206, Note_on_c, 1, 47, 127
1, 162348, Note_off_c, 1, 69, 0
1, 162348, Note_off_c, 1, 47, 0
1, 162350, Note_on_c, 1, 63, 127
1, 162350, Note_on_c, 1, 59, 127
1, 162492, Note_off_c, 1, 63, 0
1, 162494, Note_on_c, 1, 69, 127
1, 162636, Note_off_c, 1, 59, 0
1, 162636, Note_off_c, 1, 69, 0
1, 162638, Note_on_c, 1, 67, 127
1, 162638, Note_on_c, 1, 60, 127
1, 162780, Note_off_c, 1, 67, 0
1, 162782, Note_on_c, 1, 66, 127
1, 162924, Note_off_c, 1, 60, 0
1, 162924, Note_off_c, 1, 66, 0
1, 162926, Note_on_c, 1, 67, 127
1, 162926, Note_on_c, 1, 57, 127
1, 162974, Note_on_c, 1, 66, 127
1, 162980, Note_off_c, 1, 67, 0
1, 163028, Note_off_c, 1, 66, 0
1, 163070, Note_on_c, 1, 69, 127
1, 163212, Note_off_c, 1, 57, 0
1, 163214, Note_on_c, 1, 71, 127
1, 163214, Note_on_c, 1, 59, 127
1, 163355, Note_off_c, 1, 69, 0
1, 163357, Note_off_c, 1, 71, 0
1, 163359, Note_on_c, 1, 72, 127
1, 163501, Note_off_c, 1, 59, 0
1, 163501, Note_off_c, 1, 72, 0
1, 163503, Note_on_c, 1, 74, 127
1, 163503, Note_on_c, 1, 56, 127
1, 163503, Note_on_c, 1, 64, 127
1, 163789, Note_off_c, 1, 74, 0
1, 163789, Note_off_c, 1, 56, 0
1, 163791, Note_on_c, 1, 54, 127
1, 164077, Note_off_c, 1, 64, 0
1, 164077, Note_off_c, 1, 54, 0
1, 164079, Note_on_c, 1, 74, 127
1, 164079, Note_on_c, 1, 52, 127
1, 164079, Note_on_c, 1, 56, 127
1, 164365, Note_off_c, 1, 74, 0
1, 164365, Note_off_c, 1, 52, 0
1, 164367, Note_on_c, 1, 50, 127
1, 164511, Note_on_c, 1, 77, 127
1, 164653, Note_off_c, 1, 50, 0
1, 164653, Note_off_c, 1, 77, 0
1, 164655, Note_on_c, 1, 76, 127
1, 164655, Note_on_c, 1, 48, 127
1, 164797, Note_off_c, 1, 76, 0
1, 164941, Note_off_c, 1, 56, 0
1, 164943, Note_on_c, 1, 72, 127
1, 164943, Note_on_c, 1, 57, 127
1, 165085, Note_off_c, 1, 72, 0
1, 165085, Note_off_c, 1, 57, 0
1, 165087, Note_on_c, 1, 71, 127
1, 165229, Note_off_c, 1, 71, 0
1, 165231, Note_on_c, 1, 69, 127
1, 165315, Note_off_c, 1, 48, 0
1, 165373, Note_off_c, 1, 69, 0
1, 165519, Note_on_c, 1, 49, 127
1, 165805, Note_off_c, 1, 49, 0
1, 166095, Note_on_c, 1, 59, 127
1, 166237, Note_off_c, 1, 59, 0
1, 166527, Note_on_c, 1, 78, 127
1, 166669, Note_off_c, 1, 78, 0
1, 166671, Note_on_c, 1, 51, 127
1, 166957, Note_off_c, 1, 51, 0
1, 166959, Note_on_c, 1, 79, 127
1, 167101, Note_off_c, 1, 79, 0
1, 167247, Note_on_c, 1, 60, 127
1, 167389, Note_off_c, 1, 60, 0
1, 167679, Note_on_c, 1, 80, 127
1, 167821, Note_off_c, 1, 80, 0
1, 168111, Note_on_c, 1, 81, 127
1, 168111, Note_on_c, 1, 53, 127
1, 168397, Note_off_c, 1, 81, 0
1, 168397, Note_off_c, 1, 53, 0
1, 168399, Note_on_c, 1, 79, 127
1, 168399, Note_on_c, 1, 59, 127
1, 168399, Note_on_c, 1, 54, 127
1, 168541, Note_off_c, 1, 79, 0
1, 168541, Note_off_c, 1, 59, 0
1, 168543, Note_on_c, 1, 78, 127
1, 168543, Note_on_c, 1, 57, 127
1, 168685, Note_off_c, 1, 54, 0
1, 168685, Note_off_c, 1, 78, 0
1, 168685, Note_off_c, 1, 57, 0
1, 168687, Note_on_c, 1, 76, 127
1, 168687, Note_on_c, 1, 55, 127
1, 168687, Note_on_c, 1, 59, 127
1, 168829, Note_off_c, 1, 76, 0
1, 168831, Note_on_c, 1, 77, 127
1, 168973, Note_off_c, 1, 55, 0
1, 168973, Note_off_c, 1, 77, 0
1, 168975, Note_on_c, 1, 74, 127
1, 168975, Note_on_c, 1, 56, 127
1, 169117, Note_off_c, 1, 74, 0
1, 169257, Note_off_c, 1, 59, 0
1, 169261, Note_off_c, 1, 56, 0
1, 169263, Note_on_c, 1, 72, 127
1, 169263, Note_on_c, 1, 57, 127
1, 169407, Note_on_c, 1, 69, 127
1, 169549, Note_off_c, 1, 69, 0
1, 169551, Note_on_c, 1, 67, 127
1, 169693, Note_off_c, 1, 67, 0
1, 169695, Note_on_c, 1, 65, 127
1, 169837, Note_off_c, 1, 65, 0
1, 169839, Note_on_c, 1, 64, 127
1, 169981, Note_off_c, 1, 72, 0
1, 169981, Note_off_c, 1, 64, 0
1, 169983, Note_on_c, 1, 74, 127
1, 170125, Note_off_c, 1, 74, 0
1, 170127, Note_on_c, 1, 71, 127
1, 170127, Note_on_c, 1, 62, 127
1, 170269, Note_off_c, 1, 71, 0
1, 170269, Note_off_c, 1, 62, 0
1, 170415, Note_on_c, 1, 60, 127
1, 170559, Note_on_c, 1, 76, 127
1, 170701, Note_off_c, 1, 60, 0
1, 170701, Note_off_c, 1, 76, 0
1, 170989, Note_off_c, 1, 57, 0
1, 170991, Note_on_c, 1, 71, 127
1, 170991, Note_on_c, 1, 62, 127
1, 170991, Note_on_c, 1, 50, 127
1, 171133, Note_off_c, 1, 71, 0
1, 171135, Note_on_c, 1, 72, 127
1, 171277, Note_off_c, 1, 62, 0
1, 171277, Note_off_c, 1, 72, 0
1, 171279, Note_on_c, 1, 69, 127
1, 171279, Note_on_c, 1, 60, 127
1, 171421, Note_off_c, 1, 69, 0
1, 171565, Note_off_c, 1, 60, 0
1, 171567, Note_on_c, 1, 68, 127
1, 171567, Note_on_c, 1, 59, 127
1, 171651, Note_off_c, 1, 50, 0
1, 171711, Note_on_c, 1, 53, 127
1, 171853, Note_off_c, 1, 53, 0
1, 171855, Note_on_c, 1, 52, 127
1, 171997, Note_off_c, 1, 52, 0
1, 172141, Note_off_c, 1, 68, 0
1, 172141, Note_off_c, 1, 59, 0
1, 172143, Note_on_c, 1, 48, 127
1, 172143, Note_on_c, 1, 69, 127
1, 172143, Note_on_c, 1, 64, 127
1, 172285, Note_off_c, 1, 48, 0
1, 172287, Note_on_c, 1, 50, 127
1, 172429, Note_off_c, 1, 69, 0
1, 172429, Note_off_c, 1, 50, 0
1, 172431, Note_on_c, 1, 47, 127
1, 172431, Note_on_c, 1, 67, 127
1, 172573, Note_off_c, 1, 47, 0
1, 172717, Note_off_c, 1, 67, 0
1, 172719, Note_on_c, 1, 45, 127
1, 172719, Note_on_c, 1, 65, 127
1, 172861, Note_off_c, 1, 64, 0
1, 173005, Note_off_c, 1, 45, 0
1, 173007, Note_on_c, 1, 62, 127
1, 173007, Note_on_c, 1, 57, 127
1, 173149, Note_off_c, 1, 62, 0
1, 173151, Note_on_c, 1, 60, 127
1, 173293, Note_off_c, 1, 57, 0
1, 173293, Note_off_c, 1, 60, 0
1, 173295, Note_on_c, 1, 56, 127
1, 173295, Note_on_c, 1, 59, 127
1, 173379, Note_off_c, 1, 65, 0
1, 173581, Note_off_c, 1, 56, 0
1, 173583, Note_on_c, 1, 55, 127
1, 173725, Note_off_c, 1, 59, 0
1, 173869, Note_off_c, 1, 55, 0
1, 173871, Note_on_c, 1, 54, 127
1, 174157, Note_off_c, 1, 54, 0
1, 174159, Note_on_c, 1, 53, 127
1, 174445, Note_off_c, 1, 53, 0
1, 174447, Note_on_c, 1, 67, 127
1, 174447, Note_on_c, 1, 59, 127
1, 174447, Note_on_c, 1, 52, 127
1, 174589, Note_off_c, 1, 67, 0
1, 174591, Note_on_c, 1, 65, 127
1, 174733, Note_off_c, 1, 59, 0
1, 174733, Note_off_c, 1, 65, 0
1, 174735, Note_on_c, 1, 69, 127
1, 174735, Note_on_c, 1, 61, 127
1, 174877, Note_off_c, 1, 69, 0
1, 175017, Note_off_c, 1, 52, 0
1, 175021, Note_off_c, 1, 61, 0
1, 175023, Note_on_c, 1, 65, 127
1, 175023, Note_on_c, 1, 62, 127
1, 175167, Note_on_c, 1, 50, 127
1, 175309, Note_off_c, 1, 50, 0
1, 175311, Note_on_c, 1, 52, 127
1, 175453, Note_off_c, 1, 52, 0
1, 175455, Note_on_c, 1, 53, 127
1, 175597, Note_off_c, 1, 65, 0
1, 175597, Note_off_c, 1, 53, 0
1, 175599, Note_on_c, 1, 55, 127
1, 175599, Note_on_c, 1, 64, 127
1, 175741, Note_off_c, 1, 55, 0
1, 175885, Note_off_c, 1, 62, 0
1, 175887, Note_on_c, 1, 57, 127
1, 175887, Note_on_c, 1, 61, 127
1, 176029, Note_off_c, 1, 57, 0
1, 176173, Note_off_c, 1, 64, 0
1, 176173, Note_off_c, 1, 61, 0
1, 176175, Note_on_c, 1, 53, 127
1, 176175, Note_on_c, 1, 62, 127
1, 176319, Note_on_c, 1, 69, 127
1, 176461, Note_off_c, 1, 53, 0
1, 176461, Note_off_c, 1, 69, 0
1, 176463, Note_on_c, 1, 71, 127
1, 176463, Note_on_c, 1, 52, 127
1, 176605, Note_off_c, 1, 71, 0
1, 176607, Note_on_c, 1, 73, 127
1, 176745, Note_off_c, 1, 62, 0
1, 176749, Note_off_c, 1, 52, 0
1, 176749, Note_off_c, 1, 73, 0
1, 176751, Note_on_c, 1, 74, 127
1, 176751, Note_on_c, 1, 53, 127
1, 176893, Note_off_c, 1, 74, 0
1, 176895, Note_on_c, 1, 73, 127
1, 177037, Note_off_c, 1, 53, 0
1, 177037, Note_off_c, 1, 73, 0
1, 177039, Note_on_c, 1, 76, 127
1, 177039, Note_on_c, 1, 55, 127
1, 177181, Note_off_c, 1, 76, 0
1, 177183, Note_on_c, 1, 74, 127
1, 177325, Note_off_c, 1, 55, 0
1, 177325, Note_off_c, 1, 74, 0
1, 177327, Note_on_c, 1, 57, 127
1, 177327, Note_on_c, 1, 73, 127
1, 177469, Note_off_c, 1, 57, 0
1, 177471, Note_on_c, 1, 59, 127
1, 177613, Note_off_c, 1, 73, 0
1, 177613, Note_off_c, 1, 59, 0
1, 177615, Note_on_c, 1, 71, 127
1, 177615, Note_on_c, 1, 55, 127
1, 177757, Note_off_c, 1, 71, 0
1, 177757, Note_off_c, 1, 55, 0
1, 177759, Note_on_c, 1, 69, 127
1, 177759, Note_on_c, 1, 57, 127
1, 177901, Note_off_c, 1, 69, 0
1, 177901, Note_off_c, 1, 57, 0
1, 177903, Note_on_c, 1, 53, 127
1, 177903, Note_on_c, 1, 74, 127
1, 178189, Note_off_c, 1, 53, 0
1, 178191, Note_on_c, 1, 65, 127
1, 178191, Note_on_c, 1, 50, 127
1, 178333, Note_off_c, 1, 65, 0
1, 178333, Note_off_c, 1, 50, 0
1, 178335, Note_on_c, 1, 67, 127
1, 178335, Note_on_c, 1, 52, 127
1, 178477, Note_off_c, 1, 67, 0
1, 178477, Note_off_c, 1, 52, 0
1, 178479, Note_on_c, 1, 69, 127
1, 178623, Note_on_c, 1, 55, 127
1, 178765, Note_off_c, 1, 69, 0
1, 178765, Note_off_c, 1, 55, 0
1, 179487, Note_on_c, 1, 70, 127
1, 179629, Note_off_c, 1, 70, 0
1, 180063, Note_on_c, 1, 64, 127
1, 180198, Note_off_c, 1, 74, 0
1, 180206, Note_off_c, 1, 64, 0
1, 180208, Note_on_c, 1, 62, 127
1, 180352, Note_on_c, 1, 69, 127
1, 180494, Note_off_c, 1, 69, 0
1, 180496, Note_on_c, 1, 67, 127
1, 180496, Note_on_c, 1, 78, 127
1, 180638, Note_off_c, 1, 67, 0
1, 180782, Note_off_c, 1, 62, 0
1, 180782, Note_off_c, 1, 78, 0
1, 180784, Note_on_c, 1, 70, 127
1, 180784, Note_on_c, 1, 55, 127
1, 180784, Note_on_c, 1, 79, 127
1, 180926, Note_off_c, 1, 70, 0
1, 180928, Note_on_c, 1, 69, 127
1, 181070, Note_off_c, 1, 69, 0
1, 181072, Note_on_c, 1, 67, 127
1, 181214, Note_off_c, 1, 67, 0
1, 181216, Note_on_c, 1, 65, 127
1, 181358, Note_off_c, 1, 55, 0
1, 181358, Note_off_c, 1, 65, 0
1, 181360, Note_on_c, 1, 64, 127
1, 181504, Note_off_c, 1, 79, 0
1, 181504, Note_on_c, 1, 71, 127
1, 181646, Note_off_c, 1, 71, 0
1, 181648, Note_on_c, 1, 80, 127
1, 181934, Note_off_c, 1, 64, 0
1, 181934, Note_off_c, 1, 80, 0
1, 181936, Note_on_c, 1, 72, 127
1, 181936, Note_on_c, 1, 57, 127
1, 181936, Note_on_c, 1, 81, 127
1, 182078, Note_off_c, 1, 72, 0
1, 182080, Note_on_c, 1, 70, 127
1, 182222, Note_off_c, 1, 70, 0
1, 182224, Note_on_c, 1, 69, 127
1, 182366, Note_off_c, 1, 69, 0
1, 182368, Note_on_c, 1, 67, 127
1, 182510, Note_off_c, 1, 57, 0
1, 182510, Note_off_c, 1, 67, 0
1, 182512, Note_on_c, 1, 65, 127
1, 182656, Note_off_c, 1, 81, 0
1, 182656, Note_on_c, 1, 73, 127
1, 182798, Note_off_c, 1, 73, 0
1, 182800, Note_on_c, 1, 71, 127
1, 182800, Note_on_c, 1, 79, 127
1, 182942, Note_off_c, 1, 71, 0
1, 183086, Note_off_c, 1, 65, 0
1, 183086, Note_off_c, 1, 79, 0
1, 183088, Note_on_c, 1, 58, 127
1, 183088, Note_on_c, 1, 74, 127
1, 183088, Note_on_c, 1, 77, 127
1, 183230, Note_off_c, 1, 58, 0
1, 183232, Note_on_c, 1, 70, 127
1, 183374, Note_off_c, 1, 74, 0
1, 183374, Note_off_c, 1, 70, 0
1, 183376, Note_on_c, 1, 72, 127
1, 183376, Note_on_c, 1, 69, 127
1, 183518, Note_off_c, 1, 72, 0
1, 183518, Note_off_c, 1, 69, 0
1, 183520, Note_on_c, 1, 67, 127
1, 183662, Note_off_c, 1, 67, 0
1, 183664, Note_on_c, 1, 65, 127
1, 183806, Note_off_c, 1, 77, 0
1, 183952, Note_on_c, 1, 76, 127
1, 184094, Note_off_c, 1, 76, 0
1, 184240, Note_on_c, 1, 73, 127
1, 184382, Note_off_c, 1, 65, 0
1, 184384, Note_on_c, 1, 53, 127
1, 184526, Note_off_c, 1, 53, 0
1, 184528, Note_on_c, 1, 55, 127
1, 184670, Note_off_c, 1, 55, 0
1, 184672, Note_on_c, 1, 57, 127
1, 184814, Note_off_c, 1, 57, 0
1, 184816, Note_on_c, 1, 64, 127
1, 184958, Note_off_c, 1, 73, 0
1, 185391, Note_off_c, 1, 64, 0
1, 185681, Note_on_c, 1, 71, 127
1, 185823, Note_off_c, 1, 71, 0
1, 186401, Note_on_c, 1, 62, 127
1, 186543, Note_off_c, 1, 62, 0
1, 186545, Note_on_c, 1, 79, 127
1, 186687, Note_off_c, 1, 79, 0
1, 187553, Note_on_c, 1, 61, 127
1, 187695, Note_off_c, 1, 61, 0
1, 187697, Note_on_c, 1, 62, 127
1, 187697, Note_on_c, 1, 77, 127
1, 187697, Note_on_c, 1, 50, 127
1, 187839, Note_off_c, 1, 62, 0
1, 187841, Note_on_c, 1, 61, 127
1, 187983, Note_off_c, 1, 77, 0
1, 187983, Note_off_c, 1, 61, 0
1, 187985, Note_on_c, 1, 74, 127
1, 188129, Note_on_c, 1, 57, 127
1, 188267, Note_off_c, 1, 50, 0
1, 188271, Note_off_c, 1, 57, 0
1, 188273, Note_on_c, 1, 64, 127
1, 188405, Note_off_c, 1, 74, 0
1, 188415, Note_off_c, 1, 64, 0
1, 188417, Note_on_c, 1, 62, 127
1, 188559, Note_off_c, 1, 62, 0
1, 188561, Note_on_c, 1, 64, 127
1, 188561, Note_on_c, 1, 73, 127
1, 188703, Note_off_c, 1, 64, 0
1, 188705, Note_on_c, 1, 57, 127
1, 188847, Note_off_c, 1, 73, 0
1, 188847, Note_off_c, 1, 57, 0
1, 188849, Note_on_c, 1, 74, 127
1, 188849, Note_on_c, 1, 65, 127
1, 188991, Note_off_c, 1, 74, 0
1, 188993, Note_on_c, 1, 73, 127
1, 189135, Note_off_c, 1, 65, 0
1, 189135, Note_off_c, 1, 73, 0
1, 189137, Note_on_c, 1, 74, 127
1, 189137, Note_on_c, 1, 62, 127
1, 189279, Note_off_c, 1, 74, 0
1, 189281, Note_on_c, 1, 69, 127
1, 189423, Note_off_c, 1, 62, 0
1, 189423, Note_off_c, 1, 69, 0
1, 189425, Note_on_c, 1, 76, 127
1, 189425, Note_on_c, 1, 61, 127
1, 189567, Note_off_c, 1, 76, 0
1, 189569, Note_on_c, 1, 74, 127
1, 189711, Note_off_c, 1, 61, 0
1, 189711, Note_off_c, 1, 74, 0
1, 189713, Note_on_c, 1, 76, 127
1, 189713, Note_on_c, 1, 57, 127
1, 189855, Note_off_c, 1, 76, 0
1, 189857, Note_on_c, 1, 69, 127
1, 189999, Note_off_c, 1, 57, 0
1, 189999, Note_off_c, 1, 69, 0
1, 190001, Note_on_c, 1, 62, 127
1, 190001, Note_on_c, 1, 77, 127
1, 190143, Note_off_c, 1, 62, 0
1, 190145, Note_on_c, 1, 61, 127
1, 190287, Note_off_c, 1, 77, 0
1, 190287, Note_off_c, 1, 61, 0
1, 190289, Note_on_c, 1, 62, 127
1, 190289, Note_on_c, 1, 74, 127
1, 190431, Note_off_c, 1, 62, 0
1, 190433, Note_on_c, 1, 57, 127
1, 190575, Note_off_c, 1, 74, 0
1, 190575, Note_off_c, 1, 57, 0
1, 190577, Note_on_c, 1, 64, 127
1, 190577, Note_on_c, 1, 73, 127
1, 190719, Note_off_c, 1, 64, 0
1, 190721, Note_on_c, 1, 62, 127
1, 190863, Note_off_c, 1, 73, 0
1, 190863, Note_off_c, 1, 62, 0
1, 190865, Note_on_c, 1, 64, 127
1, 190865, Note_on_c, 1, 82, 127
1, 191007, Note_off_c, 1, 64, 0
1, 191009, Note_on_c, 1, 57, 127
1, 191151, Note_off_c, 1, 82, 0
1, 191151, Note_off_c, 1, 57, 0
1, 191153, Note_on_c, 1, 65, 127
1, 191153, Note_on_c, 1, 81, 127
1, 191295, Note_off_c, 1, 65, 0
1, 191297, Note_on_c, 1, 64, 127
1, 191439, Note_off_c, 1, 81, 0
1, 191439, Note_off_c, 1, 64, 0
1, 191441, Note_on_c, 1, 65, 127
1, 191441, Note_on_c, 1, 74, 127
1, 191583, Note_off_c, 1, 65, 0
1, 191585, Note_on_c, 1, 57, 127
1, 191727, Note_off_c, 1, 74, 0
1, 191727, Note_off_c, 1, 57, 0
1, 191729, Note_on_c, 1, 67, 127
1, 191729, Note_on_c, 1, 75, 127
1, 191871, Note_off_c, 1, 67, 0
1, 191873, Note_on_c, 1, 65, 127
1, 192015, Note_off_c, 1, 75, 0
1, 192015, Note_off_c, 1, 65, 0
1, 192017, Note_on_c, 1, 67, 127
1, 192017, Note_on_c, 1, 79, 127
1, 192159, Note_off_c, 1, 67, 0
1, 192161, Note_on_c, 1, 57, 127
1, 192303, Note_off_c, 1, 57, 0
1, 192305, Note_on_c, 1, 69, 127
1, 192447, Note_off_c, 1, 79, 0
1, 192449, Note_on_c, 1, 73, 127
1, 192591, Note_off_c, 1, 73, 0
1, 192593, Note_on_c, 1, 74, 127
1, 192735, Note_off_c, 1, 74, 0
1, 192737, Note_on_c, 1, 76, 127
1, 192875, Note_off_c, 1, 69, 0
1, 192879, Note_off_c, 1, 76, 0
1, 192881, Note_on_c, 1, 69, 127
1, 193025, Note_on_c, 1, 67, 127
1, 193167, Note_off_c, 1, 69, 0
1, 193167, Note_off_c, 1, 67, 0
1, 193169, Note_on_c, 1, 71, 127
1, 193169, Note_on_c, 1, 65, 127
1, 193311, Note_off_c, 1, 71, 0
1, 193311, Note_off_c, 1, 65, 0
1, 193313, Note_on_c, 1, 73, 127
1, 193313, Note_on_c, 1, 64, 127
1, 193455, Note_off_c, 1, 73, 0
1, 193455, Note_off_c, 1, 64, 0
1, 193457, Note_on_c, 1, 74, 127
1, 193457, Note_on_c, 1, 65, 127
1, 193599, Note_off_c, 1, 74, 0
1, 193601, Note_on_c, 1, 73, 127
1, 193743, Note_off_c, 1, 65, 0
1, 193743, Note_off_c, 1, 73, 0
1, 193745, Note_on_c, 1, 74, 127
1, 193745, Note_on_c, 1, 62, 127
1, 193887, Note_off_c, 1, 74, 0
1, 193889, Note_on_c, 1, 69, 127
1, 194031, Note_off_c, 1, 62, 0
1, 194031, Note_off_c, 1, 69, 0
1, 194033, Note_on_c, 1, 76, 127
1, 194033, Note_on_c, 1, 61, 127
1, 194175, Note_off_c, 1, 76, 0
1, 194177, Note_on_c, 1, 74, 127
1, 194319, Note_off_c, 1, 61, 0
1, 194319, Note_off_c, 1, 74, 0
1, 194321, Note_on_c, 1, 76, 127
1, 194321, Note_on_c, 1, 57, 127
1, 194463, Note_off_c, 1, 76, 0
1, 194465, Note_on_c, 1, 69, 127
1, 194607, Note_off_c, 1, 57, 0
1, 194607, Note_off_c, 1, 69, 0
1, 194609, Note_on_c, 1, 77, 127
1, 194609, Note_on_c, 1, 62, 127
1, 194751, Note_off_c, 1, 77, 0
1, 194753, Note_on_c, 1, 76, 127
1, 194895, Note_off_c, 1, 62, 0
1, 194895, Note_off_c, 1, 76, 0
1, 194897, Note_on_c, 1, 77, 127
1, 194897, Note_on_c, 1, 50, 127
1, 195039, Note_off_c, 1, 77, 0
1, 195041, Note_on_c, 1, 69, 127
1, 195183, Note_off_c, 1, 50, 0
1, 195183, Note_off_c, 1, 69, 0
1, 195185, Note_on_c, 1, 79, 127
1, 195185, Note_on_c, 1, 52, 127
1, 195327, Note_off_c, 1, 79, 0
1, 195329, Note_on_c, 1, 77, 127
1, 195471, Note_off_c, 1, 52, 0
1, 195471, Note_off_c, 1, 77, 0
1, 195473, Note_on_c, 1, 79, 127
1, 195473, Note_on_c, 1, 64, 127
1, 195615, Note_off_c, 1, 79, 0
1, 195617, Note_on_c, 1, 69, 127
1, 195759, Note_off_c, 1, 64, 0
1, 195759, Note_off_c, 1, 69, 0
1, 195761, Note_on_c, 1, 81, 127
1, 195761, Note_on_c, 1, 65, 127
1, 195903, Note_off_c, 1, 81, 0
1, 195905, Note_on_c, 1, 79, 127
1, 196047, Note_off_c, 1, 65, 0
1, 196047, Note_off_c, 1, 79, 0
1, 196049, Note_on_c, 1, 81, 127
1, 196049, Note_on_c, 1, 53, 127
1, 196193, Note_on_c, 1, 69, 127
1, 196334, Note_off_c, 1, 81, 0
1, 196336, Note_off_c, 1, 53, 0
1, 196336, Note_off_c, 1, 69, 0
1, 196338, Note_on_c, 1, 70, 127
1, 196338, Note_on_c, 1, 55, 127
1, 196480, Note_off_c, 1, 70, 0
1, 196482, Note_on_c, 1, 69, 127
1, 196624, Note_off_c, 1, 55, 0
1, 196624, Note_off_c, 1, 69, 0
1, 196626, Note_on_c, 1, 70, 127
1, 196626, Note_on_c, 1, 67, 127
1, 196768, Note_off_c, 1, 70, 0
1, 196768, Note_off_c, 1, 67, 0
1, 196770, Note_on_c, 1, 74, 127
1, 196770, Note_on_c, 1, 65, 127
1, 196912, Note_off_c, 1, 74, 0
1, 196912, Note_off_c, 1, 65, 0
1, 196914, Note_on_c, 1, 79, 127
1, 196914, Note_on_c, 1, 64, 127
1, 197056, Note_off_c, 1, 79, 0
1, 197058, Note_on_c, 1, 77, 127
1, 197200, Note_off_c, 1, 64, 0
1, 197200, Note_off_c, 1, 77, 0
1, 197202, Note_on_c, 1, 79, 127
1, 197202, Note_on_c, 1, 52, 127
1, 197346, Note_on_c, 1, 67, 127
1, 197487, Note_off_c, 1, 79, 0
1, 197489, Note_off_c, 1, 52, 0
1, 197489, Note_off_c, 1, 67, 0
1, 197491, Note_on_c, 1, 69, 127
1, 197491, Note_on_c, 1, 53, 127
1, 197633, Note_off_c, 1, 69, 0
1, 197635, Note_on_c, 1, 67, 127
1, 197777, Note_off_c, 1, 53, 0
1, 197777, Note_off_c, 1, 67, 0
1, 197779, Note_on_c, 1, 69, 127
1, 197779, Note_on_c, 1, 65, 127
1, 197921, Note_off_c, 1, 69, 0
1, 197921, Note_off_c, 1, 65, 0
1, 197923, Note_on_c, 1, 72, 127
1, 197923, Note_on_c, 1, 64, 127
1, 198065, Note_off_c, 1, 72, 0
1, 198065, Note_off_c, 1, 64, 0
1, 198067, Note_on_c, 1, 77, 127
1, 198067, Note_on_c, 1, 62, 127
1, 198209, Note_off_c, 1, 77, 0
1, 198211, Note_on_c, 1, 76, 127
1, 198353, Note_off_c, 1, 62, 0
1, 198353, Note_off_c, 1, 76, 0
1, 198355, Note_on_c, 1, 77, 127
1, 198355, Note_on_c, 1, 50, 127
1, 198499, Note_on_c, 1, 65, 127
1, 198640, Note_off_c, 1, 77, 0
1, 198642, Note_off_c, 1, 50, 0
1, 198642, Note_off_c, 1, 65, 0
1, 198644, Note_on_c, 1, 67, 127
1, 198644, Note_on_c, 1, 52, 127
1, 198786, Note_off_c, 1, 67, 0
1, 198788, Note_on_c, 1, 65, 127
1, 198930, Note_off_c, 1, 52, 0
1, 198930, Note_off_c, 1, 65, 0
1, 198932, Note_on_c, 1, 67, 127
1, 198932, Note_on_c, 1, 64, 127
1, 199074, Note_off_c, 1, 67, 0
1, 199074, Note_off_c, 1, 64, 0
1, 199076, Note_on_c, 1, 71, 127
1, 199076, Note_on_c, 1, 62, 127
1, 199218, Note_off_c, 1, 71, 0
1, 199218, Note_off_c, 1, 62, 0
1, 199220, Note_on_c, 1, 76, 127
1, 199220, Note_on_c, 1, 61, 127
1, 199362, Note_off_c, 1, 76, 0
1, 199364, Note_on_c, 1, 74, 127
1, 199506, Note_off_c, 1, 61, 0
1, 199506, Note_off_c, 1, 74, 0
1, 199508, Note_on_c, 1, 76, 127
1, 199508, Note_on_c, 1, 57, 127
1, 199652, Note_on_c, 1, 64, 127
1, 199793, Note_off_c, 1, 76, 0
1, 199795, Note_off_c, 1, 57, 0
1, 199795, Note_off_c, 1, 64, 0
1, 199797, Note_on_c, 1, 65, 127
1, 199797, Note_on_c, 1, 62, 127
1, 199939, Note_off_c, 1, 65, 0
1, 199941, Note_on_c, 1, 64, 127
1, 200083, Note_off_c, 1, 62, 0
1, 200083, Note_off_c, 1, 64, 0
1, 200085, Note_on_c, 1, 65, 127
1, 200085, Note_on_c, 1, 60, 127
1, 200227, Note_off_c, 1, 65, 0
1, 200229, Note_on_c, 1, 69, 127
1, 200371, Note_off_c, 1, 60, 0
1, 200371, Note_off_c, 1, 69, 0
1, 200373, Note_on_c, 1, 74, 127
1, 200373, Note_on_c, 1, 58, 127
1, 200515, Note_off_c, 1, 74, 0
1, 200517, Note_on_c, 1, 72, 127
1, 200659, Note_off_c, 1, 58, 0
1, 200659, Note_off_c, 1, 72, 0
1, 200661, Note_on_c, 1, 74, 127
1, 200661, Note_on_c, 1, 55, 127
1, 200803, Note_off_c, 1, 74, 0
1, 200805, Note_on_c, 1, 70, 127
1, 200947, Note_off_c, 1, 55, 0
1, 200947, Note_off_c, 1, 70, 0
1, 200949, Note_on_c, 1, 76, 127
1, 200949, Note_on_c, 1, 60, 127
1, 201091, Note_off_c, 1, 76, 0
1, 201093, Note_on_c, 1, 74, 127
1, 201235, Note_off_c, 1, 60, 0
1, 201235, Note_off_c, 1, 74, 0
1, 201237, Note_on_c, 1, 76, 127
1, 201237, Note_on_c, 1, 48, 127
1, 201379, Note_off_c, 1, 76, 0
1, 201381, Note_on_c, 1, 70, 127
1, 201523, Note_off_c, 1, 48, 0
1, 201523, Note_off_c, 1, 70, 0
1, 201525, Note_on_c, 1, 77, 127
1, 201525, Note_on_c, 1, 50, 127
1, 201667, Note_off_c, 1, 77, 0
1, 201669, Note_on_c, 1, 76, 127
1, 201811, Note_off_c, 1, 50, 0
1, 201811, Note_off_c, 1, 76, 0
1, 201813, Note_on_c, 1, 77, 127
1, 201813, Note_on_c, 1, 62, 127
1, 201955, Note_off_c, 1, 77, 0
1, 201957, Note_on_c, 1, 70, 127
1, 202099, Note_off_c, 1, 62, 0
1, 202099, Note_off_c, 1, 70, 0
1, 202101, Note_on_c, 1, 79, 127
1, 202101, Note_on_c, 1, 64, 127
1, 202243, Note_off_c, 1, 79, 0
1, 202245, Note_on_c, 1, 77, 127
1, 202387, Note_off_c, 1, 64, 0
1, 202387, Note_off_c, 1, 77, 0
1, 202389, Note_on_c, 1, 79, 127
1, 202389, Note_on_c, 1, 52, 127
1, 202531, Note_off_c, 1, 79, 0
1, 202533, Note_on_c, 1, 70, 127
1, 202675, Note_off_c, 1, 52, 0
1, 202675, Note_off_c, 1, 70, 0
1, 202677, Note_on_c, 1, 69, 127
1, 202677, Note_on_c, 1, 53, 127
1, 202819, Note_off_c, 1, 69, 0
1, 202821, Note_on_c, 1, 67, 127
1, 202963, Note_off_c, 1, 53, 0
1, 202963, Note_off_c, 1, 67, 0
1, 202965, Note_on_c, 1, 69, 127
1, 202965, Note_on_c, 1, 65, 127
1, 203107, Note_off_c, 1, 69, 0
1, 203107, Note_off_c, 1, 65, 0
1, 203109, Note_on_c, 1, 72, 127
1, 203109, Note_on_c, 1, 64, 127
1, 203251, Note_off_c, 1, 72, 0
1, 203251, Note_off_c, 1, 64, 0
1, 203253, Note_on_c, 1, 77, 127
1, 203253, Note_on_c, 1, 62, 127
1, 203395, Note_off_c, 1, 77, 0
1, 203397, Note_on_c, 1, 76, 127
1, 203539, Note_off_c, 1, 62, 0
1, 203539, Note_off_c, 1, 76, 0
1, 203541, Note_on_c, 1, 77, 127
1, 203541, Note_on_c, 1, 60, 127
1, 203683, Note_off_c, 1, 77, 0
1, 203685, Note_on_c, 1, 69, 127
1, 203827, Note_off_c, 1, 60, 0
1, 203827, Note_off_c, 1, 69, 0
1, 203829, Note_on_c, 1, 67, 127
1, 203829, Note_on_c, 1, 58, 127
1, 203971, Note_off_c, 1, 67, 0
1, 203973, Note_on_c, 1, 65, 127
1, 204115, Note_off_c, 1, 58, 0
1, 204115, Note_off_c, 1, 65, 0
1, 204117, Note_on_c, 1, 67, 127
1, 204117, Note_on_c, 1, 55, 127
1, 204259, Note_off_c, 1, 67, 0
1, 204261, Note_on_c, 1, 70, 127
1, 204403, Note_off_c, 1, 55, 0
1, 204403, Note_off_c, 1, 70, 0
1, 204405, Note_on_c, 1, 75, 127
1, 204405, Note_on_c, 1, 60, 127
1, 204547, Note_off_c, 1, 75, 0
1, 204549, Note_on_c, 1, 74, 127
1, 204691, Note_off_c, 1, 60, 0
1, 204691, Note_off_c, 1, 74, 0
1, 204693, Note_on_c, 1, 75, 127
1, 204693, Note_on_c, 1, 58, 127
1, 204835, Note_off_c, 1, 75, 0
1, 204837, Note_on_c, 1, 67, 127
1, 204979, Note_off_c, 1, 58, 0
1, 204979, Note_off_c, 1, 67, 0
1, 204981, Note_on_c, 1, 65, 127
1, 204981, Note_on_c, 1, 57, 127
1, 205123, Note_off_c, 1, 65, 0
1, 205125, Note_on_c, 1, 64, 127
1, 205267, Note_off_c, 1, 64, 0
1, 205413, Note_on_c, 1, 60, 127
1, 205557, Note_on_c, 1, 69, 127
1, 205699, Note_off_c, 1, 60, 0
1, 205843, Note_off_c, 1, 57, 0
1, 205845, Note_on_c, 1, 45, 127
1, 205987, Note_off_c, 1, 69, 0
1, 205987, Note_off_c, 1, 45, 0
1, 205989, Note_on_c, 1, 46, 127
1, 206131, Note_off_c, 1, 46, 0
1, 206133, Note_on_c, 1, 48, 127
1, 206133, Note_on_c, 1, 67, 127
1, 206419, Note_off_c, 1, 48, 0
1, 206565, Note_on_c, 1, 62, 127
1, 206707, Note_off_c, 1, 62, 0
1, 206851, Note_off_c, 1, 67, 0
1, 207141, Note_on_c, 1, 70, 127
1, 207141, Note_on_c, 1, 50, 127
1, 207283, Note_off_c, 1, 70, 0
1, 207283, Note_off_c, 1, 50, 0
1, 207285, Note_on_c, 1, 72, 127
1, 207717, Note_on_c, 1, 43, 127
1, 207859, Note_off_c, 1, 43, 0
1, 207861, Note_on_c, 1, 41, 127
1, 208003, Note_off_c, 1, 41, 0
1, 208147, Note_off_c, 1, 72, 0
1, 208149, Note_on_c, 1, 74, 127
1, 208291, Note_off_c, 1, 74, 0
1, 208293, Note_on_c, 1, 76, 127
1, 208435, Note_off_c, 1, 76, 0
1, 208437, Note_on_c, 1, 77, 127
1, 209299, Note_off_c, 1, 77, 0
1, 209589, Note_on_c, 1, 52, 127
1, 209589, Note_on_c, 1, 79, 127
1, 209731, Note_off_c, 1, 52, 0
1, 210451, Note_off_c, 1, 79, 0
1, 210741, Note_on_c, 1, 81, 127
1, 210741, Note_on_c, 1, 53, 127
1, 211027, Note_off_c, 1, 81, 0
1, 211027, Note_off_c, 1, 53, 0
1, 211605, Note_on_c, 1, 46, 127
1, 211605, Note_on_c, 1, 74, 127
1, 211605, Note_on_c, 1, 67, 127
1, 211747, Note_off_c, 1, 46, 0
1, 211749, Note_on_c, 1, 48, 127
1, 211891, Note_off_c, 1, 74, 0
1, 211891, Note_off_c, 1, 48, 0
1, 211893, Note_on_c, 1, 45, 127
1, 211893, Note_on_c, 1, 72, 127
1, 212035, Note_off_c, 1, 67, 0
1, 212035, Note_off_c, 1, 45, 0
1, 212037, Note_on_c, 1, 65, 127
1, 212179, Note_off_c, 1, 65, 0
1, 212181, Note_on_c, 1, 43, 127
1, 212323, Note_off_c, 1, 43, 0
1, 212325, Note_on_c, 1, 64, 127
1, 212467, Note_off_c, 1, 64, 0
1, 212611, Note_off_c, 1, 72, 0
1, 212613, Note_on_c, 1, 70, 127
1, 212755, Note_off_c, 1, 70, 0
1, 212901, Note_on_c, 1, 69, 127
1, 212901, Note_on_c, 1, 41, 127
1, 213043, Note_off_c, 1, 69, 0
1, 213043, Note_off_c, 1, 41, 0
1, 213477, Note_on_c, 1, 62, 127
1, 213619, Note_off_c, 1, 62, 0
1, 214053, Note_on_c, 1, 36, 127
1, 214195, Note_off_c, 1, 36, 0
1, 214197, Note_on_c, 1, 65, 127
1, 214197, Note_on_c, 1, 41, 127
1, 214197, Note_on_c, 1, 69, 127
1, 214339, Note_off_c, 1, 65, 0
1, 214341, Note_on_c, 1, 60, 127
1, 214483, Note_off_c, 1, 60, 0
1, 214485, Note_on_c, 1, 62, 127
1, 214627, Note_off_c, 1, 62, 0
1, 214629, Note_on_c, 1, 64, 127
1, 214771, Note_off_c, 1, 64, 0
1, 214857, Note_off_c, 1, 41, 0
1, 214917, Note_on_c, 1, 67, 127
1, 215059, Note_off_c, 1, 67, 0
1, 215061, Note_on_c, 1, 53, 127
1, 215347, Note_off_c, 1, 69, 0
1, 215349, Note_on_c, 1, 71, 127
1, 215491, Note_off_c, 1, 53, 0
1, 215637, Note_on_c, 1, 52, 127
1, 215779, Note_off_c, 1, 52, 0
1, 215781, Note_on_c, 1, 50, 127
1, 215923, Note_off_c, 1, 71, 0
1, 215923, Note_off_c, 1, 50, 0
1, 215925, Note_on_c, 1, 52, 127
1, 215925, Note_on_c, 1, 67, 127
1, 215925, Note_on_c, 1, 72, 127
1, 216067, Note_off_c, 1, 52, 0
1, 216069, Note_on_c, 1, 50, 127
1, 216211, Note_off_c, 1, 67, 0
1, 216211, Note_off_c, 1, 50, 0
1, 216357, Note_on_c, 1, 69, 127
1, 216357, Note_on_c, 1, 48, 127
1, 216499, Note_off_c, 1, 72, 0
1, 216499, Note_off_c, 1, 69, 0
1, 216499, Note_off_c, 1, 48, 0
1, 216501, Note_on_c, 1, 67, 127
1, 216501, Note_on_c, 1, 55, 127
1, 216501, Note_on_c, 1, 71, 127
1, 216643, Note_off_c, 1, 67, 0
1, 216645, Note_on_c, 1, 65, 127
1, 216787, Note_off_c, 1, 55, 0
1, 216787, Note_off_c, 1, 65, 0
1, 216789, Note_on_c, 1, 64, 127
1, 216789, Note_on_c, 1, 43, 127
1, 216931, Note_off_c, 1, 64, 0
1, 216933, Note_on_c, 1, 62, 127
1, 217075, Note_off_c, 1, 71, 0
1, 217075, Note_off_c, 1, 62, 0
1, 217077, Note_on_c, 1, 60, 127
1, 217077, Note_on_c, 1, 70, 127
1, 217119, Note_off_c, 1, 43, 0
1, 217219, Note_off_c, 1, 60, 0
1, 217365, Note_on_c, 1, 52, 127
1, 217651, Note_off_c, 1, 70, 0
1, 217651, Note_off_c, 1, 52, 0
1, 217653, Note_on_c, 1, 69, 127
1, 217653, Note_on_c, 1, 53, 127
1, 217797, Note_on_c, 1, 67, 127
1, 217939, Note_off_c, 1, 67, 0
1, 217941, Note_on_c, 1, 65, 127
1, 218083, Note_off_c, 1, 65, 0
1, 218085, Note_on_c, 1, 64, 127
1, 218227, Note_off_c, 1, 69, 0
1, 218227, Note_off_c, 1, 64, 0
1, 218229, Note_on_c, 1, 62, 127
1, 218229, Note_on_c, 1, 72, 127
1, 218371, Note_off_c, 1, 62, 0
1, 218373, Note_off_c, 1, 53, 0
1, 218517, Note_on_c, 1, 54, 127
1, 218803, Note_off_c, 1, 72, 0
1, 218803, Note_off_c, 1, 54, 0
1, 218805, Note_on_c, 1, 71, 127
1, 218805, Note_on_c, 1, 55, 127
1, 218949, Note_on_c, 1, 69, 127
1, 219091, Note_off_c, 1, 69, 0
1, 219093, Note_on_c, 1, 67, 127
1, 219235, Note_off_c, 1, 67, 0
1, 219237, Note_on_c, 1, 65, 127
1, 219379, Note_off_c, 1, 71, 0
1, 219379, Note_off_c, 1, 65, 0
1, 219381, Note_on_c, 1, 64, 127
1, 219381, Note_on_c, 1, 74, 127
1, 219523, Note_off_c, 1, 64, 0
1, 219525, Note_off_c, 1, 55, 0
1, 219669, Note_on_c, 1, 56, 127
1, 219955, Note_off_c, 1, 74, 0
1, 219955, Note_off_c, 1, 56, 0
1, 219957, Note_on_c, 1, 57, 127
1, 219957, Note_on_c, 1, 72, 127
1, 220243, Note_off_c, 1, 57, 0
1, 220245, Note_on_c, 1, 71, 127
1, 220245, Note_on_c, 1, 55, 127
1, 220387, Note_off_c, 1, 71, 0
1, 220387, Note_off_c, 1, 55, 0
1, 220389, Note_on_c, 1, 69, 127
1, 220389, Note_on_c, 1, 53, 127
1, 220531, Note_off_c, 1, 69, 0
1, 220531, Note_off_c, 1, 53, 0
1, 220533, Note_on_c, 1, 67, 127
1, 220533, Note_on_c, 1, 52, 127
1, 220675, Note_off_c, 1, 67, 0
1, 220675, Note_off_c, 1, 52, 0
1, 220821, Note_on_c, 1, 65, 127
1, 220821, Note_on_c, 1, 50, 127
1, 220963, Note_off_c, 1, 65, 0
1, 220963, Note_off_c, 1, 50, 0
1, 221251, Note_off_c, 1, 72, 0
1, 221253, Note_on_c, 1, 64, 127
1, 221395, Note_off_c, 1, 64, 0
1, 221397, Note_on_c, 1, 74, 127
1, 221397, Note_on_c, 1, 62, 127
1, 221539, Note_off_c, 1, 74, 0
1, 221539, Note_off_c, 1, 62, 0
1, 221541, Note_on_c, 1, 76, 127
1, 221541, Note_on_c, 1, 60, 127
1, 221683, Note_off_c, 1, 76, 0
1, 221683, Note_off_c, 1, 60, 0
1, 221685, Note_on_c, 1, 77, 127
1, 221685, Note_on_c, 1, 59, 127
1, 221685, Note_on_c, 1, 67, 127
1, 221827, Note_off_c, 1, 77, 0
1, 221827, Note_off_c, 1, 59, 0
1, 221829, Note_on_c, 1, 76, 127
1, 221829, Note_on_c, 1, 60, 127
1, 221971, Note_off_c, 1, 76, 0
1, 221971, Note_off_c, 1, 60, 0
1, 221973, Note_on_c, 1, 79, 127
1, 221973, Note_on_c, 1, 57, 127
1, 222115, Note_off_c, 1, 79, 0
1, 222115, Note_off_c, 1, 57, 0
1, 222403, Note_off_c, 1, 67, 0
1, 222549, Note_on_c, 1, 69, 127
1, 222691, Note_off_c, 1, 69, 0
1, 222693, Note_on_c, 1, 71, 127
1, 222835, Note_off_c, 1, 71, 0
1, 222837, Note_on_c, 1, 72, 127
1, 222979, Note_off_c, 1, 72, 0
1, 223125, Note_on_c, 1, 74, 127
1, 223125, Note_on_c, 1, 78, 127
1, 223125, Note_on_c, 1, 62, 127
1, 223267, Note_off_c, 1, 74, 0
1, 223269, Note_on_c, 1, 72, 127
1, 223411, Note_off_c, 1, 78, 0
1, 223411, Note_off_c, 1, 62, 0
1, 223411, Note_off_c, 1, 72, 0
1, 223413, Note_on_c, 1, 79, 127
1, 223413, Note_on_c, 1, 71, 127
1, 223413, Note_on_c, 1, 67, 127
1, 223555, Note_off_c, 1, 79, 0
1, 223557, Note_on_c, 1, 81, 127
1, 223699, Note_off_c, 1, 71, 0
1, 223699, Note_off_c, 1, 81, 0
1, 223701, Note_on_c, 1, 78, 127
1, 223701, Note_on_c, 1, 69, 127
1, 223843, Note_off_c, 1, 78, 0
1, 223987, Note_off_c, 1, 69, 0
1, 224133, Note_on_c, 1, 77, 127
1, 224275, Note_off_c, 1, 77, 0
1, 224421, Note_on_c, 1, 76, 127
1, 224421, Note_on_c, 1, 72, 127
1, 224563, Note_off_c, 1, 76, 0
1, 224563, Note_off_c, 1, 72, 0
1, 224565, Note_on_c, 1, 74, 127
1, 224707, Note_off_c, 1, 74, 0
1, 225708, Note_off_c, 1, 67, 0
1, 225718, Note_on_c, 1, 76, 127
1, 225718, Note_on_c, 1, 72, 127
1, 225718, Note_on_c, 1, 67, 127
1, 225860, Note_off_c, 1, 76, 0
1, 225860, Note_off_c, 1, 72, 0
1, 225862, Note_on_c, 1, 77, 127
1, 225862, Note_on_c, 1, 74, 127
1, 226004, Note_off_c, 1, 77, 0
1, 226004, Note_off_c, 1, 74, 0
1, 226006, Note_on_c, 1, 71, 127
1, 226148, Note_off_c, 1, 71, 0
1, 226723, Note_off_c, 1, 67, 0
1, 226727, Note_on_c, 1, 78, 127
1, 226727, Note_on_c, 1, 69, 127
1, 226869, Note_off_c, 1, 78, 0
1, 226869, Note_off_c, 1, 69, 0
1, 226871, Note_on_c, 1, 79, 127
1, 226871, Note_on_c, 1, 71, 127
1, 227015, Note_on_c, 1, 69, 127
1, 227157, Note_off_c, 1, 79, 0
1, 227157, Note_off_c, 1, 69, 0
1, 227159, Note_on_c, 1, 65, 127
1, 227159, Note_on_c, 1, 74, 127
1, 227301, Note_off_c, 1, 65, 0
1, 227445, Note_off_c, 1, 74, 0
1, 227447, Note_on_c, 1, 67, 127
1, 227447, Note_on_c, 1, 76, 127
1, 227589, Note_off_c, 1, 67, 0
1, 227733, Note_off_c, 1, 71, 0
1, 227735, Note_on_c, 1, 72, 127
1, 227879, Note_on_c, 1, 64, 127
1, 228021, Note_off_c, 1, 72, 0
1, 228021, Note_off_c, 1, 64, 0
1, 228309, Note_off_c, 1, 76, 0
1, 229031, Note_on_c, 1, 62, 127
1, 229173, Note_off_c, 1, 62, 0
1, 229751, Note_on_c, 1, 67, 127
1, 229751, Note_on_c, 1, 64, 127
1, 229751, Note_on_c, 1, 72, 127
1, 229893, Note_off_c, 1, 67, 0
1, 229893, Note_off_c, 1, 64, 0
1, 229895, Note_on_c, 1, 65, 127
1, 229895, Note_on_c, 1, 62, 127
1, 230037, Note_off_c, 1, 65, 0
1, 230037, Note_off_c, 1, 62, 0
1, 230183, Note_on_c, 1, 60, 127
1, 230325, Note_off_c, 1, 60, 0
1, 230901, Note_off_c, 1, 72, 0
1, 230903, Note_on_c, 1, 65, 127
1, 230903, Note_on_c, 1, 62, 127
1, 230903, Note_on_c, 1, 71, 127
1, 231045, Note_off_c, 1, 65, 0
1, 231047, Note_on_c, 1, 64, 127
1, 231189, Note_off_c, 1, 62, 0
1, 231189, Note_off_c, 1, 64, 0
1, 231191, Note_on_c, 1, 55, 127
1, 231477, Note_off_c, 1, 71, 0
1, 231477, Note_off_c, 1, 55, 0
1, 231479, Note_on_c, 1, 60, 127
1, 231479, Note_on_c, 1, 72, 127
1, 231479, Note_on_c, 1, 64, 127
1, 231621, Note_off_c, 1, 60, 0
1, 231623, Note_on_c, 1, 59, 127
1, 231765, Note_off_c, 1, 72, 0
1, 231765, Note_off_c, 1, 59, 0
1, 231767, Note_on_c, 1, 67, 127
1, 231911, Note_on_c, 1, 55, 127
1, 232049, Note_off_c, 1, 64, 0
1, 232053, Note_off_c, 1, 55, 0
1, 232055, Note_on_c, 1, 62, 127
1, 232187, Note_off_c, 1, 67, 0
1, 232197, Note_off_c, 1, 62, 0
1, 232199, Note_on_c, 1, 60, 127
1, 232341, Note_off_c, 1, 60, 0
1, 232343, Note_on_c, 1, 62, 127
1, 232343, Note_on_c, 1, 71, 127
1, 232485, Note_off_c, 1, 62, 0
1, 232487, Note_on_c, 1, 55, 127
1, 232629, Note_off_c, 1, 71, 0
1, 232629, Note_off_c, 1, 55, 0
1, 232631, Note_on_c, 1, 72, 127
1, 232631, Note_on_c, 1, 64, 127
1, 232773, Note_off_c, 1, 72, 0
1, 232775, Note_on_c, 1, 71, 127
1, 232917, Note_off_c, 1, 64, 0
1, 232917, Note_off_c, 1, 71, 0
1, 232919, Note_on_c, 1, 72, 127
1, 232919, Note_on_c, 1, 60, 127
1, 233061, Note_off_c, 1, 72, 0
1, 233063, Note_on_c, 1, 67, 127
1, 233204, Note_off_c, 1, 60, 0
1, 233206, Note_off_c, 1, 67, 0
1, 233208, Note_on_c, 1, 74, 127
1, 233350, Note_off_c, 1, 74, 0
1, 233352, Note_on_c, 1, 72, 127
1, 233494, Note_off_c, 1, 72, 0
1, 233496, Note_on_c, 1, 74, 127
1, 233496, Note_on_c, 1, 55, 127
1, 233638, Note_off_c, 1, 74, 0
1, 233640, Note_on_c, 1, 67, 127
1, 233782, Note_off_c, 1, 55, 0
1, 233782, Note_off_c, 1, 67, 0
1, 233784, Note_on_c, 1, 60, 127
1, 233784, Note_on_c, 1, 76, 127
1, 233926, Note_off_c, 1, 60, 0
1, 233928, Note_on_c, 1, 62, 127
1, 234070, Note_off_c, 1, 62, 0
1, 234072, Note_on_c, 1, 58, 127
1, 234072, Note_on_c, 1, 64, 127
1, 234214, Note_off_c, 1, 58, 0
1, 234358, Note_off_c, 1, 64, 0
1, 234360, Note_on_c, 1, 69, 127
1, 234646, Note_off_c, 1, 76, 0
1, 234648, Note_on_c, 1, 81, 127
1, 234792, Note_on_c, 1, 57, 127
1, 234934, Note_off_c, 1, 81, 0
1, 234934, Note_off_c, 1, 57, 0
1, 234936, Note_on_c, 1, 74, 127
1, 235222, Note_off_c, 1, 69, 0
1, 235512, Note_on_c, 1, 67, 127
1, 235798, Note_off_c, 1, 74, 0
1, 235800, Note_on_c, 1, 79, 127
1, 235944, Note_on_c, 1, 55, 127
1, 236086, Note_off_c, 1, 79, 0
1, 236086, Note_off_c, 1, 55, 0
1, 236088, Note_on_c, 1, 72, 127
1, 236374, Note_off_c, 1, 67, 0
1, 236664, Note_on_c, 1, 65, 127
1, 236950, Note_off_c, 1, 72, 0
1, 236952, Note_on_c, 1, 77, 127
1, 237096, Note_on_c, 1, 53, 127
1, 237238, Note_off_c, 1, 77, 0
1, 237238, Note_off_c, 1, 53, 0
1, 237240, Note_on_c, 1, 70, 127
1, 237382, Note_off_c, 1, 70, 0
1, 237814, Note_off_c, 1, 65, 0
1, 237816, Note_on_c, 1, 70, 127
1, 237816, Note_on_c, 1, 55, 127
1, 237816, Note_on_c, 1, 64, 127
1, 237958, Note_off_c, 1, 70, 0
1, 237960, Note_on_c, 1, 69, 127
1, 238102, Note_off_c, 1, 55, 0
1, 238102, Note_off_c, 1, 69, 0
1, 238104, Note_on_c, 1, 48, 127
1, 238248, Note_on_c, 1, 67, 127
1, 238390, Note_off_c, 1, 64, 0
1, 238390, Note_off_c, 1, 48, 0
1, 238390, Note_off_c, 1, 67, 0
1, 238392, Note_on_c, 1, 53, 127
1, 238392, Note_on_c, 1, 69, 127
1, 238392, Note_on_c, 1, 65, 127
1, 238534, Note_off_c, 1, 53, 0
1, 238536, Note_on_c, 1, 52, 127
1, 238678, Note_off_c, 1, 52, 0
1, 238824, Note_on_c, 1, 48, 127
1, 238902, Note_off_c, 1, 69, 0
1, 238932, Note_off_c, 1, 65, 0
1, 238966, Note_off_c, 1, 48, 0
1, 238968, Note_on_c, 1, 55, 127
1, 239110, Note_off_c, 1, 55, 0
1, 239112, Note_on_c, 1, 53, 127
1, 239254, Note_off_c, 1, 53, 0
1, 239256, Note_on_c, 1, 55, 127
1, 239256, Note_on_c, 1, 64, 127
1, 239398, Note_off_c, 1, 55, 0
1, 239400, Note_on_c, 1, 48, 127
1, 239542, Note_off_c, 1, 64, 0
1, 239542, Note_off_c, 1, 48, 0
1, 239544, Note_on_c, 1, 65, 127
1, 239544, Note_on_c, 1, 57, 127
1, 239686, Note_off_c, 1, 65, 0
1, 239688, Note_on_c, 1, 64, 127
1, 239830, Note_off_c, 1, 57, 0
1, 239830, Note_off_c, 1, 64, 0
1, 239832, Note_on_c, 1, 65, 127
1, 239832, Note_on_c, 1, 53, 127
1, 239974, Note_off_c, 1, 65, 0
1, 239976, Note_on_c, 1, 60, 127
1, 240118, Note_off_c, 1, 60, 0
1, 240120, Note_on_c, 1, 67, 127
1, 240212, Note_off_c, 1, 53, 0
1, 240262, Note_off_c, 1, 67, 0
1, 240264, Note_on_c, 1, 65, 127
1, 240406, Note_off_c, 1, 65, 0
1, 240408, Note_on_c, 1, 67, 127
1, 240408, Note_on_c, 1, 48, 127
1, 240550, Note_off_c, 1, 67, 0
1, 240552, Note_on_c, 1, 60, 127
1, 240694, Note_off_c, 1, 48, 0
1, 240694, Note_off_c, 1, 60, 0
1, 240696, Note_on_c, 1, 69, 127
1, 240696, Note_on_c, 1, 53, 127
1, 240838, Note_off_c, 1, 69, 0
1, 240838, Note_off_c, 1, 53, 0
1, 240840, Note_on_c, 1, 67, 127
1, 240840, Note_on_c, 1, 52, 127
1, 240982, Note_off_c, 1, 67, 0
1, 240982, Note_off_c, 1, 52, 0
1, 240984, Note_on_c, 1, 69, 127
1, 240984, Note_on_c, 1, 53, 127
1, 241126, Note_off_c, 1, 69, 0
1, 241126, Note_off_c, 1, 53, 0
1, 241128, Note_on_c, 1, 65, 127
1, 241128, Note_on_c, 1, 48, 127
1, 241270, Note_off_c, 1, 65, 0
1, 241270, Note_off_c, 1, 48, 0
1, 241272, Note_on_c, 1, 70, 127
1, 241272, Note_on_c, 1, 55, 127
1, 241414, Note_off_c, 1, 70, 0
1, 241414, Note_off_c, 1, 55, 0
1, 241416, Note_on_c, 1, 69, 127
1, 241416, Note_on_c, 1, 53, 127
1, 241558, Note_off_c, 1, 69, 0
1, 241558, Note_off_c, 1, 53, 0
1, 241560, Note_on_c, 1, 70, 127
1, 241560, Note_on_c, 1, 55, 127
1, 241702, Note_off_c, 1, 70, 0
1, 241702, Note_off_c, 1, 55, 0
1, 241704, Note_on_c, 1, 67, 127
1, 241704, Note_on_c, 1, 48, 127
1, 241846, Note_off_c, 1, 67, 0
1, 241846, Note_off_c, 1, 48, 0
1, 241848, Note_on_c, 1, 72, 127
1, 241848, Note_on_c, 1, 57, 127
1, 241990, Note_off_c, 1, 72, 0
1, 241990, Note_off_c, 1, 57, 0
1, 241992, Note_on_c, 1, 70, 127
1, 241992, Note_on_c, 1, 55, 127
1, 242134, Note_off_c, 1, 70, 0
1, 242134, Note_off_c, 1, 55, 0
1, 242136, Note_on_c, 1, 72, 127
1, 242136, Note_on_c, 1, 57, 127
1, 242278, Note_off_c, 1, 72, 0
1, 242278, Note_off_c, 1, 57, 0
1, 242280, Note_on_c, 1, 60, 127
1, 242280, Note_on_c, 1, 52, 127
1, 242422, Note_off_c, 1, 60, 0
1, 242422, Note_off_c, 1, 52, 0
1, 242424, Note_on_c, 1, 62, 127
1, 242424, Note_on_c, 1, 53, 127
1, 242566, Note_off_c, 1, 62, 0
1, 242566, Note_off_c, 1, 53, 0
1, 242568, Note_on_c, 1, 65, 127
1, 242568, Note_on_c, 1, 52, 127
1, 242710, Note_off_c, 1, 65, 0
1, 242710, Note_off_c, 1, 52, 0
1, 242712, Note_on_c, 1, 69, 127
1, 242712, Note_on_c, 1, 53, 127
1, 242854, Note_off_c, 1, 69, 0
1, 242854, Note_off_c, 1, 53, 0
1, 242856, Note_on_c, 1, 72, 127
1, 242856, Note_on_c, 1, 50, 127
1, 242998, Note_off_c, 1, 72, 0
1, 242998, Note_off_c, 1, 50, 0
1, 243000, Note_on_c, 1, 70, 127
1, 243000, Note_on_c, 1, 55, 127
1, 243142, Note_off_c, 1, 70, 0
1, 243142, Note_off_c, 1, 55, 0
1, 243144, Note_on_c, 1, 69, 127
1, 243144, Note_on_c, 1, 53, 127
1, 243286, Note_off_c, 1, 69, 0
1, 243286, Note_off_c, 1, 53, 0
1, 243288, Note_on_c, 1, 70, 127
1, 243288, Note_on_c, 1, 55, 127
1, 243430, Note_off_c, 1, 70, 0
1, 243430, Note_off_c, 1, 55, 0
1, 243432, Note_on_c, 1, 58, 127
1, 243432, Note_on_c, 1, 50, 127
1, 243574, Note_off_c, 1, 58, 0
1, 243574, Note_off_c, 1, 50, 0
1, 243576, Note_on_c, 1, 60, 127
1, 243576, Note_on_c, 1, 52, 127
1, 243718, Note_off_c, 1, 60, 0
1, 243718, Note_off_c, 1, 52, 0
1, 243720, Note_on_c, 1, 64, 127
1, 243720, Note_on_c, 1, 50, 127
1, 243862, Note_off_c, 1, 64, 0
1, 243862, Note_off_c, 1, 50, 0
1, 243864, Note_on_c, 1, 67, 127
1, 243864, Note_on_c, 1, 52, 127
1, 244006, Note_off_c, 1, 67, 0
1, 244006, Note_off_c, 1, 52, 0
1, 244008, Note_on_c, 1, 70, 127
1, 244008, Note_on_c, 1, 48, 127
1, 244150, Note_off_c, 1, 70, 0
1, 244150, Note_off_c, 1, 48, 0
1, 244152, Note_on_c, 1, 53, 127
1, 244152, Note_on_c, 1, 69, 127
1, 244294, Note_off_c, 1, 53, 0
1, 244296, Note_on_c, 1, 52, 127
1, 244438, Note_off_c, 1, 69, 0
1, 244438, Note_off_c, 1, 52, 0
1, 244440, Note_on_c, 1, 53, 127
1, 244440, Note_on_c, 1, 57, 127
1, 244582, Note_off_c, 1, 53, 0
1, 244584, Note_on_c, 1, 41, 127
1, 244726, Note_off_c, 1, 57, 0
1, 244726, Note_off_c, 1, 41, 0
1, 244728, Note_on_c, 1, 43, 127
1, 244728, Note_on_c, 1, 58, 127
1, 244870, Note_off_c, 1, 43, 0
1, 244872, Note_on_c, 1, 46, 127
1, 245014, Note_off_c, 1, 58, 0
1, 245014, Note_off_c, 1, 46, 0
1, 245016, Note_on_c, 1, 50, 127
1, 245016, Note_on_c, 1, 69, 127
1, 245158, Note_off_c, 1, 50, 0
1, 245160, Note_on_c, 1, 53, 127
1, 245302, Note_off_c, 1, 69, 0
1, 245302, Note_off_c, 1, 53, 0
1, 245304, Note_on_c, 1, 52, 127
1, 245304, Note_on_c, 1, 67, 127
1, 245446, Note_off_c, 1, 52, 0
1, 245448, Note_on_c, 1, 50, 127
1, 245590, Note_off_c, 1, 67, 0
1, 245590, Note_off_c, 1, 50, 0
1, 245592, Note_on_c, 1, 52, 127
1, 245592, Note_on_c, 1, 55, 127
1, 245734, Note_off_c, 1, 52, 0
1, 245736, Note_on_c, 1, 40, 127
1, 245878, Note_off_c, 1, 55, 0
1, 245878, Note_off_c, 1, 40, 0
1, 245880, Note_on_c, 1, 41, 127
1, 245880, Note_on_c, 1, 57, 127
1, 246022, Note_off_c, 1, 41, 0
1, 246024, Note_on_c, 1, 45, 127
1, 246166, Note_off_c, 1, 57, 0
1, 246166, Note_off_c, 1, 45, 0
1, 246168, Note_on_c, 1, 48, 127
1, 246168, Note_on_c, 1, 67, 127
1, 246310, Note_off_c, 1, 48, 0
1, 246312, Note_on_c, 1, 52, 127
1, 246454, Note_off_c, 1, 67, 0
1, 246454, Note_off_c, 1, 52, 0
1, 246456, Note_on_c, 1, 50, 127
1, 246456, Note_on_c, 1, 65, 127
1, 246598, Note_off_c, 1, 50, 0
1, 246600, Note_on_c, 1, 48, 127
1, 246742, Note_off_c, 1, 65, 0
1, 246742, Note_off_c, 1, 48, 0
1, 246744, Note_on_c, 1, 50, 127
1, 246744, Note_on_c, 1, 53, 127
1, 246886, Note_off_c, 1, 50, 0
1, 246888, Note_on_c, 1, 38, 127
1, 247030, Note_off_c, 1, 53, 0
1, 247030, Note_off_c, 1, 38, 0
1, 247032, Note_on_c, 1, 40, 127
1, 247032, Note_on_c, 1, 55, 127
1, 247174, Note_off_c, 1, 40, 0
1, 247176, Note_on_c, 1, 43, 127
1, 247318, Note_off_c, 1, 55, 0
1, 247318, Note_off_c, 1, 43, 0
1, 247320, Note_on_c, 1, 47, 127
1, 247320, Note_on_c, 1, 65, 127
1, 247462, Note_off_c, 1, 47, 0
1, 247464, Note_on_c, 1, 50, 127
1, 247606, Note_off_c, 1, 65, 0
1, 247606, Note_off_c, 1, 50, 0
1, 247608, Note_on_c, 1, 64, 127
1, 247608, Note_on_c, 1, 48, 127
1, 247750, Note_off_c, 1, 64, 0
1, 247750, Note_off_c, 1, 48, 0
1, 247752, Note_on_c, 1, 62, 127
1, 247752, Note_on_c, 1, 47, 127
1, 247894, Note_off_c, 1, 62, 0
1, 247894, Note_off_c, 1, 47, 0
1, 247896, Note_on_c, 1, 64, 127
1, 247896, Note_on_c, 1, 48, 127
1, 248038, Note_off_c, 1, 64, 0
1, 248038, Note_off_c, 1, 48, 0
1, 248040, Note_on_c, 1, 55, 127
1, 248040, Note_on_c, 1, 40, 127
1, 248182, Note_off_c, 1, 55, 0
1, 248182, Note_off_c, 1, 40, 0
1, 248184, Note_on_c, 1, 57, 127
1, 248184, Note_on_c, 1, 41, 127
1, 248326, Note_off_c, 1, 57, 0
1, 248326, Note_off_c, 1, 41, 0
1, 248328, Note_on_c, 1, 64, 127
1, 248328, Note_on_c, 1, 40, 127
1, 248470, Note_off_c, 1, 64, 0
1, 248470, Note_off_c, 1, 40, 0
1, 248472, Note_on_c, 1, 62, 127
1, 248472, Note_on_c, 1, 41, 127
1, 248614, Note_off_c, 1, 62, 0
1, 248614, Note_off_c, 1, 41, 0
1, 248616, Note_on_c, 1, 60, 127
1, 248616, Note_on_c, 1, 38, 127
1, 248758, Note_off_c, 1, 60, 0
1, 248758, Note_off_c, 1, 38, 0
1, 248760, Note_on_c, 1, 59, 127
1, 248760, Note_on_c, 1, 43, 127
1, 248902, Note_off_c, 1, 59, 0
1, 248904, Note_on_c, 1, 57, 127
1, 249046, Note_off_c, 1, 43, 0
1, 249046, Note_off_c, 1, 57, 0
1, 249048, Note_on_c, 1, 59, 127
1, 249048, Note_on_c, 1, 55, 127
1, 249190, Note_off_c, 1, 59, 0
1, 249190, Note_off_c, 1, 55, 0
1, 249192, Note_on_c, 1, 55, 127
1, 249192, Note_on_c, 1, 53, 127
1, 249334, Note_off_c, 1, 55, 0
1, 249334, Note_off_c, 1, 53, 0
1, 249336, Note_on_c, 1, 60, 127
1, 249336, Note_on_c, 1, 52, 127
1, 249478, Note_off_c, 1, 60, 0
1, 249480, Note_on_c, 1, 59, 127
1, 249622, Note_off_c, 1, 52, 0
1, 249622, Note_off_c, 1, 59, 0
1, 249624, Note_on_c, 1, 60, 127
1, 249624, Note_on_c, 1, 48, 127
1, 249766, Note_off_c, 1, 60, 0
1, 249768, Note_on_c, 1, 55, 127
1, 249910, Note_off_c, 1, 48, 0
1, 249910, Note_off_c, 1, 55, 0
1, 249912, Note_on_c, 1, 57, 127
1, 249912, Note_on_c, 1, 53, 127
1, 250054, Note_off_c, 1, 57, 0
1, 250056, Note_on_c, 1, 55, 127
1, 250198, Note_off_c, 1, 55, 0
1, 250342, Note_off_c, 1, 53, 0
1, 250344, Note_on_c, 1, 60, 127
1, 250344, Note_on_c, 1, 52, 127
1, 250486, Note_off_c, 1, 60, 0
1, 250486, Note_off_c, 1, 52, 0
1, 250488, Note_on_c, 1, 62, 127
1, 250488, Note_on_c, 1, 53, 127
1, 250630, Note_off_c, 1, 62, 0
1, 250632, Note_on_c, 1, 60, 127
1, 250774, Note_off_c, 1, 53, 0
1, 250774, Note_off_c, 1, 60, 0
1, 250776, Note_on_c, 1, 62, 127
1, 250776, Note_on_c, 1, 50, 127
1, 250918, Note_off_c, 1, 62, 0
1, 250920, Note_on_c, 1, 57, 127
1, 251062, Note_off_c, 1, 50, 0
1, 251062, Note_off_c, 1, 57, 0
1, 251064, Note_on_c, 1, 59, 127
1, 251064, Note_on_c, 1, 55, 127
1, 251206, Note_off_c, 1, 59, 0
1, 251208, Note_on_c, 1, 57, 127
1, 251350, Note_off_c, 1, 57, 0
1, 251494, Note_off_c, 1, 55, 0
1, 251496, Note_on_c, 1, 62, 127
1, 251496, Note_on_c, 1, 53, 127
1, 251638, Note_off_c, 1, 62, 0
1, 251638, Note_off_c, 1, 53, 0
1, 251640, Note_on_c, 1, 64, 127
1, 251640, Note_on_c, 1, 55, 127
1, 251782, Note_off_c, 1, 64, 0
1, 251784, Note_on_c, 1, 62, 127
1, 251926, Note_off_c, 1, 55, 0
1, 251926, Note_off_c, 1, 62, 0
1, 251928, Note_on_c, 1, 64, 127
1, 251928, Note_on_c, 1, 52, 127
1, 252070, Note_off_c, 1, 64, 0
1, 252072, Note_on_c, 1, 59, 127
1, 252214, Note_off_c, 1, 52, 0
1, 252214, Note_off_c, 1, 59, 0
1, 252216, Note_on_c, 1, 60, 127
1, 252216, Note_on_c, 1, 57, 127
1, 252358, Note_off_c, 1, 60, 0
1, 252360, Note_on_c, 1, 59, 127
1, 252502, Note_off_c, 1, 59, 0
1, 252646, Note_off_c, 1, 57, 0
1, 252648, Note_on_c, 1, 64, 127
1, 252648, Note_on_c, 1, 55, 127
1, 252790, Note_off_c, 1, 64, 0
1, 252790, Note_off_c, 1, 55, 0
1, 252792, Note_on_c, 1, 65, 127
1, 252792, Note_on_c, 1, 57, 127
1, 252934, Note_off_c, 1, 65, 0
1, 252936, Note_on_c, 1, 64, 127
1, 253078, Note_off_c, 1, 57, 0
1, 253078, Note_off_c, 1, 64, 0
1, 253080, Note_on_c, 1, 65, 127
1, 253080, Note_on_c, 1, 53, 127
1, 253222, Note_off_c, 1, 65, 0
1, 253224, Note_on_c, 1, 60, 127
1, 253366, Note_off_c, 1, 53, 0
1, 253366, Note_off_c, 1, 60, 0
1, 253368, Note_on_c, 1, 62, 127
1, 253368, Note_on_c, 1, 59, 127
1, 253510, Note_off_c, 1, 62, 0
1, 253512, Note_on_c, 1, 60, 127
1, 253654, Note_off_c, 1, 60, 0
1, 253798, Note_off_c, 1, 59, 0
1, 253800, Note_on_c, 1, 65, 127
1, 253800, Note_on_c, 1, 57, 127
1, 253942, Note_off_c, 1, 65, 0
1, 253942, Note_off_c, 1, 57, 0
1, 253944, Note_on_c, 1, 67, 127
1, 253944, Note_on_c, 1, 59, 127
1, 254086, Note_off_c, 1, 67, 0
1, 254088, Note_on_c, 1, 65, 127
1, 254230, Note_off_c, 1, 59, 0
1, 254230, Note_off_c, 1, 65, 0
1, 254232, Note_on_c, 1, 67, 127
1, 254232, Note_on_c, 1, 55, 127
1, 254374, Note_off_c, 1, 67, 0
1, 254376, Note_on_c, 1, 62, 127
1, 254518, Note_off_c, 1, 55, 0
1, 254518, Note_off_c, 1, 62, 0
1, 254520, Note_on_c, 1, 60, 127
1, 254520, Note_on_c, 1, 64, 127
1, 254662, Note_off_c, 1, 60, 0
1, 254664, Note_on_c, 1, 59, 127
1, 254806, Note_off_c, 1, 64, 0
1, 254806, Note_off_c, 1, 59, 0
1, 254808, Note_on_c, 1, 60, 127
1, 254808, Note_on_c, 1, 72, 127
1, 254950, Note_off_c, 1, 60, 0
1, 254952, Note_on_c, 1, 55, 127
1, 255094, Note_off_c, 1, 72, 0
1, 255094, Note_off_c, 1, 55, 0
1, 255096, Note_on_c, 1, 62, 127
1, 255096, Note_on_c, 1, 65, 127
1, 255238, Note_off_c, 1, 62, 0
1, 255240, Note_on_c, 1, 60, 127
1, 255382, Note_off_c, 1, 65, 0
1, 255382, Note_off_c, 1, 60, 0
1, 255384, Note_on_c, 1, 62, 127
1, 255384, Note_on_c, 1, 72, 127
1, 255526, Note_off_c, 1, 62, 0
1, 255528, Note_on_c, 1, 55, 127
1, 255670, Note_off_c, 1, 72, 0
1, 255670, Note_off_c, 1, 55, 0
1, 255672, Note_on_c, 1, 64, 127
1, 255672, Note_on_c, 1, 67, 127
1, 255814, Note_off_c, 1, 64, 0
1, 255816, Note_on_c, 1, 62, 127
1, 255958, Note_off_c, 1, 67, 0
1, 255958, Note_off_c, 1, 62, 0
1, 255960, Note_on_c, 1, 64, 127
1, 255960, Note_on_c, 1, 72, 127
1, 256102, Note_off_c, 1, 64, 0
1, 256104, Note_on_c, 1, 55, 127
1, 256246, Note_off_c, 1, 72, 0
1, 256246, Note_off_c, 1, 55, 0
1, 256248, Note_on_c, 1, 65, 127
1, 256248, Note_on_c, 1, 69, 127
1, 256390, Note_off_c, 1, 65, 0
1, 256392, Note_on_c, 1, 64, 127
1, 256534, Note_off_c, 1, 69, 0
1, 256534, Note_off_c, 1, 64, 0
1, 256536, Note_on_c, 1, 65, 127
1, 256536, Note_on_c, 1, 74, 127
1, 256678, Note_off_c, 1, 65, 0
1, 256680, Note_on_c, 1, 55, 127
1, 256822, Note_off_c, 1, 55, 0
1, 256824, Note_on_c, 1, 64, 127
1, 256966, Note_off_c, 1, 74, 0
1, 256968, Note_on_c, 1, 67, 127
1, 257110, Note_off_c, 1, 67, 0
1, 257112, Note_on_c, 1, 69, 127
1, 257254, Note_off_c, 1, 69, 0
1, 257256, Note_on_c, 1, 71, 127
1, 257398, Note_off_c, 1, 71, 0
1, 257400, Note_on_c, 1, 72, 127
1, 257688, Note_on_c, 1, 76, 127
1, 257830, Note_off_c, 1, 76, 0
1, 257832, Note_on_c, 1, 77, 127
1, 257974, Note_off_c, 1, 64, 0
1, 257974, Note_off_c, 1, 77, 0
1, 257976, Note_on_c, 1, 79, 127
1, 258120, Note_off_c, 1, 72, 0
1, 258262, Note_off_c, 1, 79, 0
1, 258552, Note_on_c, 1, 79, 127
1, 258552, Note_on_c, 1, 64, 127
1, 258696, Note_on_c, 1, 62, 127
1, 258838, Note_off_c, 1, 79, 0
1, 258838, Note_off_c, 1, 62, 0
1, 258840, Note_on_c, 1, 60, 127
1, 258982, Note_off_c, 1, 60, 0
1, 258984, Note_on_c, 1, 81, 127
1, 258984, Note_on_c, 1, 59, 127
1, 259126, Note_off_c, 1, 81, 0
1, 259126, Note_off_c, 1, 59, 0
1, 259272, Note_on_c, 1, 77, 127
1, 259414, Note_off_c, 1, 64, 0
1, 259414, Note_off_c, 1, 77, 0
1, 259416, Note_on_c, 1, 76, 127
1, 259416, Note_on_c, 1, 59, 127
1, 259416, Note_on_c, 1, 55, 127
1, 259558, Note_off_c, 1, 76, 0
1, 259560, Note_on_c, 1, 74, 127
1, 259702, Note_off_c, 1, 59, 0
1, 259702, Note_off_c, 1, 55, 0
1, 259702, Note_off_c, 1, 74, 0
1, 259704, Note_on_c, 1, 72, 127
1, 259704, Note_on_c, 1, 57, 127
1, 259704, Note_on_c, 1, 60, 127
1, 259846, Note_off_c, 1, 72, 0
1, 259848, Note_on_c, 1, 79, 127
1, 259990, Note_off_c, 1, 57, 0
1, 259990, Note_off_c, 1, 79, 0
1, 259992, Note_on_c, 1, 77, 127
1, 259992, Note_on_c, 1, 52, 127
1, 260134, Note_off_c, 1, 77, 0
1, 260278, Note_off_c, 1, 52, 0
1, 260280, Note_on_c, 1, 81, 127
1, 260280, Note_on_c, 1, 53, 127
1, 260422, Note_off_c, 1, 81, 0
1, 260566, Note_off_c, 1, 60, 0
1, 260712, Note_on_c, 1, 76, 127
1, 260854, Note_off_c, 1, 76, 0
1, 260856, Note_on_c, 1, 74, 127
1, 260856, Note_on_c, 1, 62, 127
1, 260998, Note_off_c, 1, 74, 0
1, 261000, Note_off_c, 1, 53, 0
1, 261144, Note_on_c, 1, 54, 127
1, 261430, Note_off_c, 1, 54, 0
1, 261432, Note_on_c, 1, 83, 127
1, 261432, Note_on_c, 1, 55, 127
1, 261574, Note_off_c, 1, 83, 0
1, 261718, Note_off_c, 1, 62, 0
1, 261720, Note_on_c, 1, 59, 127
1, 262006, Note_off_c, 1, 59, 0
1, 262008, Note_on_c, 1, 64, 127
1, 262152, Note_off_c, 1, 55, 0
1, 262296, Note_on_c, 1, 56, 127
1, 262582, Note_off_c, 1, 56, 0
1, 262584, Note_on_c, 1, 84, 127
1, 262870, Note_off_c, 1, 64, 0
1, 262870, Note_off_c, 1, 84, 0
1, 263160, Note_on_c, 1, 79, 127
1, 263160, Note_on_c, 1, 59, 127
1, 263160, Note_on_c, 1, 62, 127
1, 263302, Note_off_c, 1, 79, 0
1, 263304, Note_on_c, 1, 81, 127
1, 263446, Note_off_c, 1, 59, 0
1, 263446, Note_off_c, 1, 81, 0
1, 263448, Note_on_c, 1, 77, 127
1, 263448, Note_on_c, 1, 55, 127
1, 263590, Note_off_c, 1, 77, 0
1, 263734, Note_off_c, 1, 55, 0
1, 263736, Note_on_c, 1, 76, 127
1, 263736, Note_on_c, 1, 60, 127
1, 263878, Note_off_c, 1, 76, 0
1, 264022, Note_off_c, 1, 60, 0
1, 264024, Note_on_c, 1, 74, 127
1, 264166, Note_off_c, 1, 74, 0
1, 264310, Note_off_c, 1, 62, 0
1, 264312, Note_on_c, 1, 76, 127
1, 264312, Note_on_c, 1, 57, 127
1, 264312, Note_on_c, 1, 60, 127
1, 264454, Note_off_c, 1, 76, 0
1, 264456, Note_on_c, 1, 74, 127
1, 264598, Note_off_c, 1, 57, 0
1, 264598, Note_off_c, 1, 74, 0
1, 264600, Note_on_c, 1, 55, 127
1, 264744, Note_on_c, 1, 72, 127
1, 264886, Note_off_c, 1, 55, 0
1, 264886, Note_off_c, 1, 72, 0
1, 264888, Note_on_c, 1, 53, 127
1, 265174, Note_off_c, 1, 53, 0
1, 265176, Note_on_c, 1, 50, 127
1, 265462, Note_off_c, 1, 60, 0
1, 265462, Note_off_c, 1, 50, 0
1, 265464, Note_on_c, 1, 74, 127
1, 265464, Note_on_c, 1, 55, 127
1, 265464, Note_on_c, 1, 59, 127
1, 265606, Note_off_c, 1, 74, 0
1, 265608, Note_on_c, 1, 72, 127
1, 265750, Note_off_c, 1, 55, 0
1, 265750, Note_off_c, 1, 72, 0
1, 265752, Note_on_c, 1, 53, 127
1, 265896, Note_on_c, 1, 71, 127
1, 266038, Note_off_c, 1, 59, 0
1, 266038, Note_off_c, 1, 53, 0
1, 266038, Note_off_c, 1, 71, 0
1, 266040, Note_on_c, 1, 72, 127
1, 266040, Note_on_c, 1, 60, 127
1, 266040, Note_on_c, 1, 52, 127
1, 266182, Note_off_c, 1, 72, 0
1, 266184, Note_on_c, 1, 74, 127
1, 266326, Note_off_c, 1, 74, 0
1, 266328, Note_on_c, 1, 71, 127
1, 266470, Note_off_c, 1, 71, 0
1, 266610, Note_off_c, 1, 60, 0
1, 266760, Note_off_c, 1, 52, 0
1, 266904, Note_on_c, 1, 72, 127
1, 266904, Note_on_c, 1, 40, 127
1, 267046, Note_off_c, 1, 72, 0
1, 267046, Note_off_c, 1, 40, 0
1, 267048, Note_on_c, 1, 69, 127
1, 267048, Note_on_c, 1, 41, 127
1, 267190, Note_off_c, 1, 69, 0
1, 267190, Note_off_c, 1, 41, 0
1, 267192, Note_on_c, 1, 71, 127
1, 267192, Note_on_c, 1, 43, 127
1, 267334, Note_off_c, 1, 71, 0
1, 267336, Note_on_c, 1, 72, 127
1, 267478, Note_off_c, 1, 43, 0
1, 267478, Note_off_c, 1, 72, 0
1, 267480, Note_on_c, 1, 69, 127
1, 267480, Note_on_c, 1, 43, 127
1, 267622, Note_off_c, 1, 69, 0
1, 267624, Note_on_c, 1, 72, 127
1, 267766, Note_off_c, 1, 43, 0
1, 267766, Note_off_c, 1, 72, 0
1, 267768, Note_on_c, 1, 71, 127
1, 267768, Note_on_c, 1, 43, 127
1, 267910, Note_off_c, 1, 71, 0
1, 267912, Note_on_c, 1, 69, 127
1, 268054, Note_off_c, 1, 43, 0
1, 268054, Note_off_c, 1, 69, 0
1, 268056, Note_on_c, 1, 71, 127
1, 268056, Note_on_c, 1, 43, 127
1, 268198, Note_off_c, 1, 71, 0
1, 268198, Note_off_c, 1, 43, 0
1, 268200, Note_on_c, 1, 67, 127
1, 268200, Note_on_c, 1, 45, 127
1, 268342, Note_off_c, 1, 67, 0
1, 268342, Note_off_c, 1, 45, 0
1, 268344, Note_on_c, 1, 43, 127
1, 268344, Note_on_c, 1, 76, 127
1, 268486, Note_off_c, 1, 43, 0
1, 268488, Note_on_c, 1, 67, 127
1, 268488, Note_on_c, 1, 41, 127
1, 268630, Note_off_c, 1, 67, 0
1, 268630, Note_off_c, 1, 41, 0
1, 268632, Note_on_c, 1, 69, 127
1, 268632, Note_on_c, 1, 40, 127
1, 268774, Note_off_c, 1, 69, 0
1, 268774, Note_off_c, 1, 40, 0
1, 268776, Note_on_c, 1, 71, 127
1, 268776, Note_on_c, 1, 38, 127
1, 268914, Note_off_c, 1, 76, 0
1, 268918, Note_off_c, 1, 71, 0
1, 268918, Note_off_c, 1, 38, 0
1, 268920, Note_on_c, 1, 36, 127
1, 268920, Note_on_c, 1, 72, 127
1, 269062, Note_off_c, 1, 36, 0
1, 269064, Note_on_c, 1, 76, 127
1, 269064, Note_on_c, 1, 43, 127
1, 269206, Note_off_c, 1, 76, 0
1, 269206, Note_off_c, 1, 43, 0
1, 269208, Note_on_c, 1, 74, 127
1, 269208, Note_on_c, 1, 41, 127
1, 269350, Note_off_c, 1, 74, 0
1, 269350, Note_off_c, 1, 41, 0
1, 269490, Note_off_c, 1, 72, 0
1, 269496, Note_on_c, 1, 45, 127
1, 269496, Note_on_c, 1, 77, 127
1, 269638, Note_off_c, 1, 45, 0
1, 269640, Note_on_c, 1, 69, 127
1, 269640, Note_on_c, 1, 43, 127
1, 269782, Note_off_c, 1, 69, 0
1, 269782, Note_off_c, 1, 43, 0
1, 269784, Note_on_c, 1, 71, 127
1, 269784, Note_on_c, 1, 41, 127
1, 269926, Note_off_c, 1, 71, 0
1, 269926, Note_off_c, 1, 41, 0
1, 269928, Note_on_c, 1, 72, 127
1, 269928, Note_on_c, 1, 40, 127
1, 270066, Note_off_c, 1, 77, 0
1, 270070, Note_off_c, 1, 72, 0
1, 270070, Note_off_c, 1, 40, 0
1, 270072, Note_on_c, 1, 38, 127
1, 270072, Note_on_c, 1, 74, 127
1, 270214, Note_off_c, 1, 38, 0
1, 270216, Note_on_c, 1, 78, 127
1, 270216, Note_on_c, 1, 45, 127
1, 270358, Note_off_c, 1, 78, 0
1, 270358, Note_off_c, 1, 45, 0
1, 270360, Note_on_c, 1, 76, 127
1, 270360, Note_on_c, 1, 43, 127
1, 270502, Note_off_c, 1, 76, 0
1, 270502, Note_off_c, 1, 43, 0
1, 270642, Note_off_c, 1, 74, 0
1, 270648, Note_on_c, 1, 47, 127
1, 270648, Note_on_c, 1, 79, 127
1, 270790, Note_off_c, 1, 47, 0
1, 270792, Note_on_c, 1, 71, 127
1, 270792, Note_on_c, 1, 45, 127
1, 270934, Note_off_c, 1, 71, 0
1, 270934, Note_off_c, 1, 45, 0
1, 270936, Note_on_c, 1, 72, 127
1, 270936, Note_on_c, 1, 43, 127
1, 271078, Note_off_c, 1, 72, 0
1, 271078, Note_off_c, 1, 43, 0
1, 271080, Note_on_c, 1, 74, 127
1, 271080, Note_on_c, 1, 41, 127
1, 271218, Note_off_c, 1, 79, 0
1, 271222, Note_off_c, 1, 74, 0
1, 271222, Note_off_c, 1, 41, 0
1, 271224, Note_on_c, 1, 40, 127
1, 271224, Note_on_c, 1, 76, 127
1, 271366, Note_off_c, 1, 40, 0
1, 271368, Note_on_c, 1, 79, 127
1, 271368, Note_on_c, 1, 47, 127
1, 271510, Note_off_c, 1, 79, 0
1, 271510, Note_off_c, 1, 47, 0
1, 271512, Note_on_c, 1, 77, 127
1, 271512, Note_on_c, 1, 45, 127
1, 271654, Note_off_c, 1, 77, 0
1, 271654, Note_off_c, 1, 45, 0
1, 271794, Note_off_c, 1, 76, 0
1, 271800, Note_on_c, 1, 48, 127
1, 271800, Note_on_c, 1, 81, 127
1, 271944, Note_on_c, 1, 74, 127
1, 272086, Note_off_c, 1, 48, 0
1, 272086, Note_off_c, 1, 74, 0
1, 272088, Note_on_c, 1, 76, 127
1, 272088, Note_on_c, 1, 47, 127
1, 272230, Note_off_c, 1, 76, 0
1, 272230, Note_off_c, 1, 47, 0
1, 272232, Note_on_c, 1, 77, 127
1, 272232, Note_on_c, 1, 45, 127
1, 272370, Note_off_c, 1, 81, 0
1, 272374, Note_off_c, 1, 77, 0
1, 272374, Note_off_c, 1, 45, 0
1, 272376, Note_on_c, 1, 43, 127
1, 272376, Note_on_c, 1, 79, 127
1, 272518, Note_off_c, 1, 43, 0
1, 272520, Note_on_c, 1, 83, 127
1, 272520, Note_on_c, 1, 45, 127
1, 272662, Note_off_c, 1, 83, 0
1, 272662, Note_off_c, 1, 45, 0
1, 272664, Note_on_c, 1, 81, 127
1, 272664, Note_on_c, 1, 41, 127
1, 272806, Note_off_c, 1, 81, 0
1, 272806, Note_off_c, 1, 41, 0
1, 272952, Note_on_c, 1, 40, 127
1, 272952, Note_on_c, 1, 84, 127
1, 273094, Note_off_c, 1, 40, 0
1, 273096, Note_on_c, 1, 52, 127
1, 273238, Note_off_c, 1, 84, 0
1, 273238, Note_off_c, 1, 52, 0
1, 273240, Note_on_c, 1, 50, 127
1, 273382, Note_off_c, 1, 50, 0
1, 273384, Note_on_c, 1, 48, 127
1, 273526, Note_off_c, 1, 79, 0
1, 273526, Note_off_c, 1, 48, 0
1, 273528, Note_on_c, 1, 79, 127
1, 273528, Note_on_c, 1, 47, 127
1, 273670, Note_off_c, 1, 79, 0
1, 273670, Note_off_c, 1, 47, 0
1, 273672, Note_on_c, 1, 81, 127
1, 273672, Note_on_c, 1, 48, 127
1, 273814, Note_off_c, 1, 81, 0
1, 273814, Note_off_c, 1, 48, 0
1, 273816, Note_on_c, 1, 77, 127
1, 273816, Note_on_c, 1, 45, 127
1, 273958, Note_off_c, 1, 77, 0
1, 273958, Note_off_c, 1, 45, 0
1, 273960, Note_on_c, 1, 79, 127
1, 273960, Note_on_c, 1, 47, 127
1, 274102, Note_off_c, 1, 79, 0
1, 274102, Note_off_c, 1, 47, 0
1, 274104, Note_on_c, 1, 48, 127
1, 274104, Note_on_c, 1, 76, 127
1, 274248, Note_on_c, 1, 74, 127
1, 274390, Note_off_c, 1, 74, 0
1, 274392, Note_on_c, 1, 72, 127
1, 274534, Note_off_c, 1, 72, 0
1, 274536, Note_on_c, 1, 70, 127
1, 274678, Note_off_c, 1, 70, 0
1, 274680, Note_on_c, 1, 69, 127
1, 274822, Note_off_c, 1, 69, 0
1, 274824, Note_off_c, 1, 48, 0
1, 274968, Note_on_c, 1, 67, 127
1, 275110, Note_off_c, 1, 67, 0
1, 275256, Note_on_c, 1, 53, 127
1, 275398, Note_off_c, 1, 76, 0
1, 275400, Note_on_c, 1, 79, 127
1, 275542, Note_off_c, 1, 53, 0
1, 275542, Note_off_c, 1, 79, 0
1, 275544, Note_on_c, 1, 77, 127
1, 275544, Note_on_c, 1, 52, 127
1, 275686, Note_off_c, 1, 77, 0
1, 275830, Note_off_c, 1, 52, 0
1, 276120, Note_on_c, 1, 50, 127
1, 276406, Note_off_c, 1, 50, 0
1, 276408, Note_on_c, 1, 71, 127
1, 276408, Note_on_c, 1, 55, 127
1, 276840, Note_on_c, 1, 65, 127
1, 276982, Note_off_c, 1, 65, 0
1, 276984, Note_on_c, 1, 64, 127
1, 277126, Note_off_c, 1, 64, 0
1, 277272, Note_on_c, 1, 62, 127
1, 277414, Note_off_c, 1, 62, 0
1, 277560, Note_on_c, 1, 63, 127
1, 277702, Note_off_c, 1, 71, 0
1, 278712, Note_on_c, 1, 66, 127
1, 278854, Note_off_c, 1, 63, 0
1, 279144, Note_on_c, 1, 60, 127
1, 279286, Note_off_c, 1, 60, 0
1, 279288, Note_on_c, 1, 59, 127
1, 279430, Note_off_c, 1, 66, 0
1, 279574, Note_off_c, 1, 59, 0
1, 279576, Note_on_c, 1, 57, 127
1, 279718, Note_off_c, 1, 57, 0
1, 280006, Note_off_c, 1, 55, 0
1, 280152, Note_on_c, 1, 55, 127
1, 280152, Note_on_c, 1, 67, 127
1, 280152, Note_on_c, 1, 59, 127
1, 280294, Note_off_c, 1, 55, 0
1, 280296, Note_on_c, 1, 53, 127
1, 280438, Note_off_c, 1, 67, 0
1, 280438, Note_off_c, 1, 59, 0
1, 280438, Note_off_c, 1, 53, 0
1, 280440, Note_on_c, 1, 52, 127
1, 280440, Note_on_c, 1, 69, 127
1, 280440, Note_on_c, 1, 60, 127
1, 280582, Note_off_c, 1, 52, 0
1, 280584, Note_on_c, 1, 53, 127
1, 280726, Note_off_c, 1, 69, 0
1, 280726, Note_off_c, 1, 60, 0
1, 280726, Note_off_c, 1, 53, 0
1, 280728, Note_on_c, 1, 50, 127
1, 280728, Note_on_c, 1, 71, 127
1, 280728, Note_on_c, 1, 62, 127
1, 280870, Note_off_c, 1, 50, 0
1, 280872, Note_on_c, 1, 53, 127
1, 281014, Note_off_c, 1, 71, 0
1, 281014, Note_off_c, 1, 62, 0
1, 281014, Note_off_c, 1, 53, 0
1, 281016, Note_on_c, 1, 52, 127
1, 281016, Note_on_c, 1, 72, 127
1, 281016, Note_on_c, 1, 64, 127
1, 281158, Note_off_c, 1, 52, 0
1, 281160, Note_on_c, 1, 50, 127
1, 281302, Note_off_c, 1, 72, 0
1, 281302, Note_off_c, 1, 64, 0
1, 281302, Note_off_c, 1, 50, 0
1, 281304, Note_on_c, 1, 48, 127
1, 281304, Note_on_c, 1, 72, 127
1, 281304, Note_on_c, 1, 64, 127
1, 281446, Note_off_c, 1, 48, 0
1, 281448, Note_on_c, 1, 46, 127
1, 281590, Note_off_c, 1, 72, 0
1, 281590, Note_off_c, 1, 64, 0
1, 281590, Note_off_c, 1, 46, 0
1, 281592, Note_on_c, 1, 45, 127
1, 281592, Note_on_c, 1, 74, 127
1, 281592, Note_on_c, 1, 65, 127
1, 281734, Note_off_c, 1, 45, 0
1, 281736, Note_on_c, 1, 46, 127
1, 281878, Note_off_c, 1, 74, 0
1, 281878, Note_off_c, 1, 65, 0
1, 281878, Note_off_c, 1, 46, 0
1, 281880, Note_on_c, 1, 43, 127
1, 281880, Note_on_c, 1, 76, 127
1, 281880, Note_on_c, 1, 67, 127
1, 282022, Note_off_c, 1, 43, 0
1, 282024, Note_on_c, 1, 45, 127
1, 282166, Note_off_c, 1, 76, 0
1, 282166, Note_off_c, 1, 67, 0
1, 282166, Note_off_c, 1, 45, 0
1, 282168, Note_on_c, 1, 41, 127
1, 282168, Note_on_c, 1, 77, 127
1, 282168, Note_on_c, 1, 69, 127
1, 282310, Note_off_c, 1, 41, 0
1, 282312, Note_on_c, 1, 43, 127
1, 282454, Note_off_c, 1, 77, 0
1, 282454, Note_off_c, 1, 69, 0
1, 282454, Note_off_c, 1, 43, 0
1, 282456, Note_on_c, 1, 41, 127
1, 282456, Note_on_c, 1, 81, 127
1, 282456, Note_on_c, 1, 72, 127
1, 282598, Note_off_c, 1, 41, 0
1, 282600, Note_on_c, 1, 40, 127
1, 282742, Note_off_c, 1, 81, 0
1, 282742, Note_off_c, 1, 72, 0
1, 282742, Note_off_c, 1, 40, 0
1, 282744, Note_on_c, 1, 38, 127
1, 282744, Note_on_c, 1, 83, 127
1, 282744, Note_on_c, 1, 74, 127
1, 282886, Note_off_c, 1, 38, 0
1, 282888, Note_on_c, 1, 40, 127
1, 283030, Note_off_c, 1, 83, 0
1, 283030, Note_off_c, 1, 74, 0
1, 283030, Note_off_c, 1, 40, 0
1, 283032, Note_on_c, 1, 36, 127
1, 283032, Note_on_c, 1, 76, 127
1, 283032, Note_on_c, 1, 84, 127
1, 283174, Note_off_c, 1, 36, 0
1, 283176, Note_on_c, 1, 40, 127
1, 283318, Note_off_c, 1, 76, 0
1, 283318, Note_off_c, 1, 40, 0
1, 283320, Note_on_c, 1, 77, 127
1, 283320, Note_on_c, 1, 38, 127
1, 283462, Note_off_c, 1, 77, 0
1, 283606, Note_off_c, 1, 84, 0
1, 283606, Note_off_c, 1, 38, 0
1, 283608, Note_on_c, 1, 77, 127
1, 283608, Note_on_c, 1, 43, 127
1, 283608, Note_on_c, 1, 83, 127
1, 283750, Note_off_c, 1, 77, 0
1, 283750, Note_off_c, 1, 43, 0
1, 283752, Note_on_c, 1, 74, 127
1, 283752, Note_on_c, 1, 41, 127
1, 283894, Note_off_c, 1, 83, 0
1, 283894, Note_off_c, 1, 74, 0
1, 283894, Note_off_c, 1, 41, 0
1, 283896, Note_on_c, 1, 40, 127
1, 283896, Note_on_c, 1, 84, 127
1, 283896, Note_on_c, 1, 79, 127
1, 284038, Note_off_c, 1, 40, 0
1, 284040, Note_on_c, 1, 41, 127
1, 284182, Note_off_c, 1, 84, 0
1, 284182, Note_off_c, 1, 79, 0
1, 284182, Note_off_c, 1, 41, 0
1, 284184, Note_on_c, 1, 38, 127
1, 284184, Note_on_c, 1, 77, 127
1, 284184, Note_on_c, 1, 74, 127
1, 284326, Note_off_c, 1, 38, 0
1, 284328, Note_on_c, 1, 41, 127
1, 284470, Note_off_c, 1, 77, 0
1, 284470, Note_off_c, 1, 41, 0
1, 284472, Note_on_c, 1, 40, 127
1, 284472, Note_on_c, 1, 79, 127
1, 284614, Note_off_c, 1, 40, 0
1, 284758, Note_off_c, 1, 74, 0
1, 284760, Note_on_c, 1, 72, 127
1, 284902, Note_off_c, 1, 79, 0
1, 284904, Note_on_c, 1, 81, 127
1, 284904, Note_on_c, 1, 36, 127
1, 285046, Note_off_c, 1, 81, 0
1, 285046, Note_off_c, 1, 36, 0
1, 285048, Note_on_c, 1, 76, 127
1, 285048, Note_on_c, 1, 43, 127
1, 285342, Note_off_c, 1, 72, 0
1, 285342, Note_off_c, 1, 76, 0
1, 285342, Note_off_c, 1, 43, 0
1, 285344, Note_on_c, 1, 74, 127
1, 285344, Note_on_c, 1, 71, 127
1, 285344, Note_on_c, 1, 43, 127
1, 285490, Note_off_c, 1, 74, 0
1, 285490, Note_off_c, 1, 71, 0
1, 285492, Note_on_c, 1, 72, 127
1, 285638, Note_off_c, 1, 43, 0
1, 285640, Note_on_c, 1, 36, 127
1, 285712, Note_off_c, 1, 72, 0
1, 286102, Note_on_c, 1, 69, 127
1, 286254, Note_off_c, 1, 69, 0
1, 286256, Note_on_c, 1, 67, 127
1, 286408, Note_off_c, 1, 67, 0
1, 286564, Note_on_c, 1, 65, 127
1, 286716, Note_off_c, 1, 65, 0
1, 286872, Note_on_c, 1, 64, 127
1, 287872, Note_off_c, 1, 64, 0
1, 288220, Note_on_c, 1, 60, 127
1, 289140, Note_off_c, 1, 36, 0
1, 289820, Note_off_c, 1, 60, 0
1, 291983, Note_on_c, 1, 55, 127
1, 291983, Note_on_c, 1, 52, 127
1, 291983, Note_on_c, 1, 48, 127
1, 292726, Note_on_c, 1, 72, 127
1, 293268, Note_off_c, 1, 72, 0
1, 293283, Note_on_c, 1, 74, 127
1, 293345, Note_off_c, 1, 74, 0
1, 293345, Note_on_c, 1, 76, 127
1, 293407, Note_off_c, 1, 76, 0
1, 293407, Note_on_c, 1, 77, 127
1, 293469, Note_off_c, 1, 77, 0
1, 294318, Note_on_c, 1, 71, 127
1, 294409, Note_off_c, 1, 71, 0
1, 294765, Note_on_c, 1, 79, 127
1, 294821, Note_on_c, 1, 81, 127
1, 294825, Note_off_c, 1, 79, 0
1, 294881, Note_off_c, 1, 81, 0
1, 294955, Note_off_c, 1, 55, 0
1, 294957, Note_on_c, 1, 60, 127
1, 296259, Note_on_c, 1, 83, 127
1, 296319, Note_off_c, 1, 83, 0
1, 296445, Note_on_c, 1, 84, 127
1, 296908, Note_off_c, 1, 84, 0
1, 297747, Note_on_c, 1, 69, 127
1, 297807, Note_off_c, 1, 69, 0
1, 297871, Note_on_c, 1, 67, 127
1, 297921, Note_off_c, 1, 52, 0
1, 297923, Note_off_c, 1, 48, 0
1, 297931, Note_off_c, 1, 60, 0
1, 297931, Note_off_c, 1, 67, 0
1, 297933, Note_on_c, 1, 77, 127
1, 297933, Note_on_c, 1, 60, 127
1, 297933, Note_on_c, 1, 57, 127
1, 297933, Note_on_c, 1, 50, 127
1, 298396, Note_off_c, 1, 77, 0
1, 298398, Note_on_c, 1, 79, 127
1, 298489, Note_off_c, 1, 79, 0
1, 298491, Note_on_c, 1, 81, 127
1, 298582, Note_off_c, 1, 81, 0
1, 298770, Note_on_c, 1, 76, 127
1, 298861, Note_off_c, 1, 76, 0
1, 298863, Note_on_c, 1, 74, 127
1, 298954, Note_off_c, 1, 74, 0
1, 299142, Note_on_c, 1, 72, 127
1, 299233, Note_off_c, 1, 72, 0
1, 299235, Note_on_c, 1, 71, 127
1, 299326, Note_off_c, 1, 71, 0
1, 299419, Note_off_c, 1, 60, 0
1, 299419, Note_off_c, 1, 57, 0
1, 299421, Note_on_c, 1, 53, 127
1, 300165, Note_on_c, 1, 59, 127
1, 300630, Note_on_c, 1, 69, 127
1, 300721, Note_off_c, 1, 69, 0
1, 300723, Note_on_c, 1, 67, 127
1, 300783, Note_off_c, 1, 67, 0
1, 300847, Note_on_c, 1, 65, 127
1, 300897, Note_off_c, 1, 50, 0
1, 300907, Note_off_c, 1, 53, 0
1, 300907, Note_off_c, 1, 59, 0
1, 300907, Note_off_c, 1, 65, 0
1, 300909, Note_on_c, 1, 48, 127
1, 300909, Note_on_c, 1, 60, 127
1, 300909, Note_on_c, 1, 55, 127
1, 300909, Note_on_c, 1, 64, 127
1, 301093, Note_off_c, 1, 48, 0
1, 301093, Note_off_c, 1, 60, 0
1, 301093, Note_off_c, 1, 55, 0
1, 301095, Note_on_c, 1, 57, 127
1, 301279, Note_off_c, 1, 57, 0
1, 301467, Note_on_c, 1, 53, 127
1, 301651, Note_off_c, 1, 53, 0
1, 301653, Note_on_c, 1, 52, 127
1, 301837, Note_off_c, 1, 64, 0
1, 301837, Note_off_c, 1, 52, 0
1, 301839, Note_on_c, 1, 50, 127
1, 301839, Note_on_c, 1, 64, 127
1, 302023, Note_off_c, 1, 50, 0
1, 302023, Note_off_c, 1, 64, 0
1, 302025, Note_on_c, 1, 48, 127
1, 302025, Note_on_c, 1, 66, 127
1, 302209, Note_off_c, 1, 48, 0
1, 302209, Note_off_c, 1, 66, 0
1, 302211, Note_on_c, 1, 69, 127
1, 302211, Note_on_c, 1, 47, 127
1, 302302, Note_off_c, 1, 69, 0
1, 302304, Note_on_c, 1, 68, 127
1, 302395, Note_off_c, 1, 47, 0
1, 302395, Note_off_c, 1, 68, 0
1, 302397, Note_on_c, 1, 69, 127
1, 302397, Note_on_c, 1, 48, 127
1, 302583, Note_on_c, 1, 52, 127
1, 302769, Note_on_c, 1, 57, 127
1, 302860, Note_off_c, 1, 69, 0
1, 302862, Note_on_c, 1, 64, 127
1, 302953, Note_off_c, 1, 64, 0
1, 302955, Note_on_c, 1, 66, 127
1, 303046, Note_off_c, 1, 66, 0
1, 303048, Note_on_c, 1, 68, 127
1, 303139, Note_off_c, 1, 68, 0
1, 303234, Note_on_c, 1, 71, 127
1, 303325, Note_off_c, 1, 71, 0
1, 303327, Note_on_c, 1, 72, 127
1, 303418, Note_off_c, 1, 72, 0
1, 303420, Note_on_c, 1, 74, 127
1, 303511, Note_off_c, 1, 74, 0
1, 303513, Note_on_c, 1, 76, 127
1, 303604, Note_off_c, 1, 76, 0
1, 303606, Note_on_c, 1, 78, 127
1, 303697, Note_off_c, 1, 78, 0
1, 303699, Note_on_c, 1, 80, 127
1, 303790, Note_off_c, 1, 80, 0
1, 303792, Note_on_c, 1, 81, 127
1, 303881, Note_off_c, 1, 52, 0
1, 303883, Note_off_c, 1, 57, 0
1, 303883, Note_off_c, 1, 81, 0
1, 303885, Note_on_c, 1, 50, 127
1, 304350, Note_on_c, 1, 67, 127
1, 304441, Note_off_c, 1, 67, 0
1, 304629, Note_on_c, 1, 62, 127
1, 304720, Note_off_c, 1, 62, 0
1, 305361, Note_off_c, 1, 48, 0
1, 305371, Note_off_c, 1, 50, 0
1, 305373, Note_on_c, 1, 67, 127
1, 305373, Note_on_c, 1, 47, 127
1, 305373, Note_on_c, 1, 50, 127
1, 305373, Note_on_c, 1, 55, 127
1, 305836, Note_off_c, 1, 67, 0
1, 305838, Note_on_c, 1, 62, 127
1, 305929, Note_off_c, 1, 62, 0
1, 305931, Note_on_c, 1, 64, 127
1, 306022, Note_off_c, 1, 64, 0
1, 306024, Note_on_c, 1, 66, 127
1, 306115, Note_off_c, 1, 66, 0
1, 306210, Note_on_c, 1, 69, 127
1, 306301, Note_off_c, 1, 69, 0
1, 306303, Note_on_c, 1, 71, 127
1, 306394, Note_off_c, 1, 71, 0
1, 306396, Note_on_c, 1, 72, 127
1, 306487, Note_off_c, 1, 72, 0
1, 306489, Note_on_c, 1, 74, 127
1, 306580, Note_off_c, 1, 74, 0
1, 306582, Note_on_c, 1, 76, 127
1, 306673, Note_off_c, 1, 76, 0
1, 306675, Note_on_c, 1, 78, 127
1, 306766, Note_off_c, 1, 78, 0
1, 306768, Note_on_c, 1, 79, 127
1, 306859, Note_off_c, 1, 47, 0
1, 306859, Note_off_c, 1, 50, 0
1, 306859, Note_off_c, 1, 79, 0
1, 306861, Note_on_c, 1, 52, 127
1, 306861, Note_on_c, 1, 45, 127
1, 308070, Note_on_c, 1, 81, 127
1, 308161, Note_off_c, 1, 81, 0
1, 308163, Note_on_c, 1, 83, 127
1, 308254, Note_off_c, 1, 83, 0
1, 308256, Note_on_c, 1, 84, 127
1, 308337, Note_off_c, 1, 55, 0
1, 308347, Note_off_c, 1, 52, 0
1, 308347, Note_off_c, 1, 45, 0
1, 308347, Note_off_c, 1, 84, 0
1, 308349, Note_on_c, 1, 78, 127
1, 308349, Note_on_c, 1, 57, 127
1, 308349, Note_on_c, 1, 60, 127
1, 308626, Note_off_c, 1, 78, 0
1, 308628, Note_on_c, 1, 76, 127
1, 308719, Note_off_c, 1, 76, 0
1, 308721, Note_on_c, 1, 74, 127
1, 308812, Note_off_c, 1, 74, 0
1, 308814, Note_on_c, 1, 72, 127
1, 308905, Note_off_c, 1, 72, 0
1, 309093, Note_on_c, 1, 50, 127
1, 309186, Note_on_c, 1, 71, 127
1, 309277, Note_off_c, 1, 71, 0
1, 309279, Note_on_c, 1, 69, 127
1, 309370, Note_off_c, 1, 69, 0
1, 309627, Note_on_c, 1, 67, 127
1, 309708, Note_off_c, 1, 67, 0
1, 309772, Note_on_c, 1, 66, 127
1, 309832, Note_off_c, 1, 66, 0
1, 309834, Note_off_c, 1, 57, 0
1, 309834, Note_off_c, 1, 50, 0
1, 309836, Note_on_c, 1, 55, 127
1, 310014, Note_off_c, 1, 60, 0
1, 310208, Note_on_c, 1, 59, 127
1, 310378, Note_off_c, 1, 55, 0
1, 310394, Note_on_c, 1, 53, 127
1, 310394, Note_on_c, 1, 62, 127
1, 310578, Note_off_c, 1, 53, 0
1, 310578, Note_off_c, 1, 62, 0
1, 310580, Note_on_c, 1, 52, 127
1, 310750, Note_off_c, 1, 59, 0
1, 311121, Note_off_c, 1, 52, 0
1, 311137, Note_on_c, 1, 65, 127
1, 311321, Note_off_c, 1, 65, 0
1, 311323, Note_on_c, 1, 48, 127
1, 311323, Note_on_c, 1, 64, 127
1, 311864, Note_off_c, 1, 48, 0
1, 311878, Note_off_c, 1, 64, 0
1, 311880, Note_on_c, 1, 47, 127
1, 312064, Note_off_c, 1, 47, 0
1, 312066, Note_on_c, 1, 45, 127
1, 312433, Note_off_c, 1, 45, 0
1, 312437, Note_on_c, 1, 54, 127
1, 312807, Note_off_c, 1, 54, 0
1, 312809, Note_on_c, 1, 79, 127
1, 312809, Note_on_c, 1, 55, 127
1, 312809, Note_on_c, 1, 59, 127
1, 312993, Note_off_c, 1, 79, 0
1, 312995, Note_on_c, 1, 81, 127
1, 313179, Note_off_c, 1, 81, 0
1, 313181, Note_on_c, 1, 83, 127
1, 313365, Note_off_c, 1, 83, 0
1, 313367, Note_on_c, 1, 74, 127
1, 313551, Note_off_c, 1, 74, 0
1, 313739, Note_on_c, 1, 71, 127
1, 313923, Note_off_c, 1, 55, 0
1, 313923, Note_off_c, 1, 59, 0
1, 313923, Note_off_c, 1, 71, 0
1, 313925, Note_on_c, 1, 74, 127
1, 313925, Note_on_c, 1, 57, 127
1, 313925, Note_on_c, 1, 54, 127
1, 314109, Note_off_c, 1, 74, 0
1, 314111, Note_on_c, 1, 69, 127
1, 314295, Note_off_c, 1, 57, 0
1, 314295, Note_off_c, 1, 54, 0
1, 314295, Note_off_c, 1, 69, 0
1, 314297, Note_on_c, 1, 71, 127
1, 314297, Note_on_c, 1, 55, 127
1, 314481, Note_off_c, 1, 71, 0
1, 314483, Note_on_c, 1, 72, 127
1, 314667, Note_off_c, 1, 72, 0
1, 314669, Note_on_c, 1, 74, 127
1, 314669, Note_on_c, 1, 43, 127
1, 314853, Note_off_c, 1, 74, 0
1, 314855, Note_on_c, 1, 67, 127
1, 315039, Note_off_c, 1, 67, 0
1, 315225, Note_off_c, 1, 43, 0
1, 315227, Note_on_c, 1, 57, 127
1, 315227, Note_on_c, 1, 66, 127
1, 315411, Note_off_c, 1, 57, 0
1, 315411, Note_off_c, 1, 66, 0
1, 315413, Note_on_c, 1, 59, 127
1, 315597, Note_off_c, 1, 59, 0
1, 315599, Note_on_c, 1, 60, 127
1, 315599, Note_on_c, 1, 69, 127
1, 315783, Note_off_c, 1, 60, 0
1, 315783, Note_off_c, 1, 69, 0
1, 315785, Note_on_c, 1, 62, 127
1, 316155, Note_off_c, 1, 62, 0
1, 316893, Note_off_c, 1, 55, 0
1, 316901, Note_on_c, 1, 64, 127
1, 316901, Note_on_c, 1, 54, 127
1, 317085, Note_off_c, 1, 64, 0
1, 317087, Note_on_c, 1, 66, 127
1, 317271, Note_off_c, 1, 54, 0
1, 317271, Note_off_c, 1, 66, 0
1, 317273, Note_on_c, 1, 67, 127
1, 317273, Note_on_c, 1, 52, 127
1, 317273, Note_on_c, 1, 55, 127
1, 317457, Note_off_c, 1, 67, 0
1, 317459, Note_on_c, 1, 69, 127
1, 317643, Note_off_c, 1, 69, 0
1, 317645, Note_on_c, 1, 71, 127
1, 317829, Note_off_c, 1, 71, 0
1, 317831, Note_on_c, 1, 72, 127
1, 318015, Note_off_c, 1, 52, 0
1, 318015, Note_off_c, 1, 72, 0
1, 318017, Note_on_c, 1, 74, 127
1, 318017, Note_on_c, 1, 47, 127
1, 318201, Note_off_c, 1, 74, 0
1, 318203, Note_on_c, 1, 76, 127
1, 318387, Note_off_c, 1, 76, 0
1, 318389, Note_on_c, 1, 77, 127
1, 318573, Note_off_c, 1, 77, 0
1, 318575, Note_on_c, 1, 79, 127
1, 318759, Note_off_c, 1, 55, 0
1, 318759, Note_off_c, 1, 47, 0
1, 318759, Note_off_c, 1, 79, 0
1, 318761, Note_on_c, 1, 76, 127
1, 318761, Note_on_c, 1, 55, 127
1, 318761, Note_on_c, 1, 48, 127
1, 318945, Note_off_c, 1, 76, 0
1, 318947, Note_on_c, 1, 84, 127
1, 319131, Note_off_c, 1, 84, 0
1, 319133, Note_on_c, 1, 83, 127
1, 319133, Note_on_c, 1, 50, 127
1, 319317, Note_off_c, 1, 83, 0
1, 319319, Note_on_c, 1, 81, 127
1, 319503, Note_off_c, 1, 50, 0
1, 319503, Note_off_c, 1, 81, 0
1, 319505, Note_on_c, 1, 79, 127
1, 319505, Note_on_c, 1, 52, 127
1, 319689, Note_off_c, 1, 79, 0
1, 319875, Note_off_c, 1, 55, 0
1, 319875, Note_off_c, 1, 48, 0
1, 319875, Note_off_c, 1, 52, 0
1, 319877, Note_on_c, 1, 48, 127
1, 319877, Note_on_c, 1, 76, 127
1, 319877, Note_on_c, 1, 55, 127
1, 319877, Note_on_c, 1, 60, 127
1, 320061, Note_off_c, 1, 48, 0
1, 320061, Note_off_c, 1, 76, 0
1, 320063, Note_on_c, 1, 50, 127
1, 320063, Note_on_c, 1, 77, 127
1, 320245, Note_off_c, 1, 55, 0
1, 320247, Note_off_c, 1, 50, 0
1, 320247, Note_off_c, 1, 77, 0
1, 320249, Note_on_c, 1, 79, 127
1, 320249, Note_on_c, 1, 52, 127
1, 320433, Note_off_c, 1, 79, 0
1, 320613, Note_off_c, 1, 60, 0
1, 320619, Note_off_c, 1, 52, 0
1, 320621, Note_on_c, 1, 77, 127
1, 320621, Note_on_c, 1, 50, 127
1, 320621, Note_on_c, 1, 59, 127
1, 320805, Note_off_c, 1, 77, 0
1, 320807, Note_on_c, 1, 74, 127
1, 320991, Note_off_c, 1, 50, 0
1, 320991, Note_off_c, 1, 59, 0
1, 320991, Note_off_c, 1, 74, 0
1, 320993, Note_on_c, 1, 76, 127
1, 320993, Note_on_c, 1, 60, 127
1, 321177, Note_off_c, 1, 76, 0
1, 321179, Note_on_c, 1, 48, 127
1, 321179, Note_on_c, 1, 79, 127
1, 321363, Note_off_c, 1, 48, 0
1, 321363, Note_off_c, 1, 79, 0
1, 321365, Note_on_c, 1, 52, 127
1, 321365, Note_on_c, 1, 72, 127
1, 321549, Note_off_c, 1, 52, 0
1, 321549, Note_off_c, 1, 72, 0
1, 321551, Note_on_c, 1, 55, 127
1, 321551, Note_on_c, 1, 74, 127
1, 321729, Note_off_c, 1, 60, 0
1, 321735, Note_off_c, 1, 55, 0
1, 321735, Note_off_c, 1, 74, 0
1, 321737, Note_on_c, 1, 76, 127
1, 321737, Note_on_c, 1, 60, 127
1, 321921, Note_off_c, 1, 76, 0
1, 321923, Note_on_c, 1, 72, 127
1, 322107, Note_off_c, 1, 60, 0
1, 322107, Note_off_c, 1, 72, 0
1, 322109, Note_on_c, 1, 74, 127
1, 322109, Note_on_c, 1, 55, 127
1, 322293, Note_off_c, 1, 74, 0
1, 322295, Note_on_c, 1, 71, 127
1, 322479, Note_off_c, 1, 55, 0
1, 322479, Note_off_c, 1, 71, 0
1, 322481, Note_on_c, 1, 57, 127
1, 322481, Note_on_c, 1, 72, 127
1, 322665, Note_off_c, 1, 57, 0
1, 322665, Note_off_c, 1, 72, 0
1, 322667, Note_on_c, 1, 45, 127
1, 322667, Note_on_c, 1, 76, 127
1, 322851, Note_off_c, 1, 45, 0
1, 322851, Note_off_c, 1, 76, 0
1, 322853, Note_on_c, 1, 48, 127
1, 322853, Note_on_c, 1, 69, 127
1, 323037, Note_off_c, 1, 48, 0
1, 323037, Note_off_c, 1, 69, 0
1, 323039, Note_on_c, 1, 52, 127
1, 323039, Note_on_c, 1, 72, 127
1, 323223, Note_off_c, 1, 52, 0
1, 323223, Note_off_c, 1, 72, 0
1, 323225, Note_on_c, 1, 64, 127
1, 323225, Note_on_c, 1, 57, 127
1, 323409, Note_off_c, 1, 64, 0
1, 323411, Note_on_c, 1, 69, 127
1, 323595, Note_off_c, 1, 69, 0
1, 323597, Note_on_c, 1, 60, 127
1, 323597, Note_on_c, 1, 45, 127
1, 323781, Note_off_c, 1, 60, 0
1, 323967, Note_off_c, 1, 45, 0
1, 323969, Note_on_c, 1, 50, 127
1, 323969, Note_on_c, 1, 65, 127
1, 324153, Note_off_c, 1, 50, 0
1, 324153, Note_off_c, 1, 65, 0
1, 324155, Note_on_c, 1, 53, 127
1, 324339, Note_off_c, 1, 57, 0
1, 324339, Note_off_c, 1, 53, 0
1, 324341, Note_on_c, 1, 52, 127
1, 324341, Note_on_c, 1, 67, 127
1, 324341, Note_on_c, 1, 60, 127
1, 324525, Note_off_c, 1, 52, 0
1, 324525, Note_off_c, 1, 67, 0
1, 324527, Note_on_c, 1, 55, 127
1, 324527, Note_on_c, 1, 70, 127
1, 324709, Note_off_c, 1, 60, 0
1, 324711, Note_off_c, 1, 55, 0
1, 324711, Note_off_c, 1, 70, 0
1, 324713, Note_on_c, 1, 69, 127
1, 324713, Note_on_c, 1, 53, 127
1, 324897, Note_off_c, 1, 69, 0
1, 324899, Note_on_c, 1, 41, 127
1, 324899, Note_on_c, 1, 81, 127
1, 325083, Note_off_c, 1, 41, 0
1, 325083, Note_off_c, 1, 81, 0
1, 325085, Note_on_c, 1, 45, 127
1, 325085, Note_on_c, 1, 77, 127
1, 325269, Note_off_c, 1, 45, 0
1, 325269, Note_off_c, 1, 77, 0
1, 325271, Note_on_c, 1, 48, 127
1, 325271, Note_on_c, 1, 79, 127
1, 325449, Note_off_c, 1, 53, 0
1, 325455, Note_off_c, 1, 48, 0
1, 325455, Note_off_c, 1, 79, 0
1, 325457, Note_on_c, 1, 81, 127
1, 325457, Note_on_c, 1, 53, 127
1, 325641, Note_off_c, 1, 81, 0
1, 325643, Note_on_c, 1, 76, 127
1, 325827, Note_off_c, 1, 53, 0
1, 325827, Note_off_c, 1, 76, 0
1, 325829, Note_on_c, 1, 77, 127
1, 325829, Note_on_c, 1, 45, 127
1, 326013, Note_off_c, 1, 77, 0
1, 326015, Note_on_c, 1, 72, 127
1, 326199, Note_off_c, 1, 45, 0
1, 326199, Note_off_c, 1, 72, 0
1, 326201, Note_on_c, 1, 47, 127
1, 326201, Note_on_c, 1, 74, 127
1, 326385, Note_off_c, 1, 47, 0
1, 326385, Note_off_c, 1, 74, 0
1, 326387, Note_on_c, 1, 52, 127
1, 326387, Note_on_c, 1, 79, 127
1, 326571, Note_off_c, 1, 52, 0
1, 326571, Note_off_c, 1, 79, 0
1, 326573, Note_on_c, 1, 50, 127
1, 326573, Note_on_c, 1, 71, 127
1, 326757, Note_off_c, 1, 50, 0
1, 326757, Note_off_c, 1, 71, 0
1, 326759, Note_on_c, 1, 48, 127
1, 326759, Note_on_c, 1, 72, 127
1, 326943, Note_off_c, 1, 48, 0
1, 326943, Note_off_c, 1, 72, 0
1, 326945, Note_on_c, 1, 74, 127
1, 326945, Note_on_c, 1, 47, 127
1, 327129, Note_off_c, 1, 74, 0
1, 327131, Note_on_c, 1, 71, 127
1, 327131, Note_on_c, 1, 55, 127
1, 327313, Note_off_c, 1, 47, 0
1, 327315, Note_off_c, 1, 71, 0
1, 327317, Note_on_c, 1, 72, 127
1, 327317, Note_on_c, 1, 45, 127
1, 327499, Note_off_c, 1, 55, 0
1, 327501, Note_off_c, 1, 72, 0
1, 327503, Note_on_c, 1, 54, 127
1, 327503, Note_on_c, 1, 69, 127
1, 327685, Note_off_c, 1, 45, 0
1, 327687, Note_off_c, 1, 54, 0
1, 327687, Note_off_c, 1, 69, 0
1, 327689, Note_on_c, 1, 43, 127
1, 327689, Note_on_c, 1, 71, 127
1, 327873, Note_off_c, 1, 43, 0
1, 327873, Note_off_c, 1, 71, 0
1, 327875, Note_on_c, 1, 50, 127
1, 327875, Note_on_c, 1, 83, 127
1, 328059, Note_off_c, 1, 50, 0
1, 328059, Note_off_c, 1, 83, 0
1, 328061, Note_on_c, 1, 55, 127
1, 328061, Note_on_c, 1, 76, 127
1, 328245, Note_off_c, 1, 55, 0
1, 328245, Note_off_c, 1, 76, 0
1, 328247, Note_on_c, 1, 53, 127
1, 328247, Note_on_c, 1, 77, 127
1, 328431, Note_off_c, 1, 53, 0
1, 328431, Note_off_c, 1, 77, 0
1, 328433, Note_on_c, 1, 79, 127
1, 328433, Note_on_c, 1, 52, 127
1, 328617, Note_off_c, 1, 79, 0
1, 328619, Note_on_c, 1, 76, 127
1, 328619, Note_on_c, 1, 60, 127
1, 328801, Note_off_c, 1, 52, 0
1, 328803, Note_off_c, 1, 76, 0
1, 328805, Note_on_c, 1, 77, 127
1, 328805, Note_on_c, 1, 50, 127
1, 328987, Note_off_c, 1, 60, 0
1, 328989, Note_off_c, 1, 77, 0
1, 328991, Note_on_c, 1, 74, 127
1, 328991, Note_on_c, 1, 59, 127
1, 329173, Note_off_c, 1, 50, 0
1, 329175, Note_off_c, 1, 74, 0
1, 329177, Note_on_c, 1, 48, 127
1, 329359, Note_off_c, 1, 59, 0
1, 329363, Note_on_c, 1, 81, 127
1, 329363, Note_on_c, 1, 57, 127
1, 329545, Note_off_c, 1, 48, 0
1, 329547, Note_off_c, 1, 81, 0
1, 329549, Note_on_c, 1, 71, 127
1, 329549, Note_on_c, 1, 53, 127
1, 329731, Note_off_c, 1, 57, 0
1, 329733, Note_off_c, 1, 71, 0
1, 329735, Note_on_c, 1, 72, 127
1, 329917, Note_off_c, 1, 53, 0
1, 329919, Note_off_c, 1, 72, 0
1, 329921, Note_on_c, 1, 47, 127
1, 330293, Note_on_c, 1, 56, 127
1, 330463, Note_off_c, 1, 47, 0
1, 330661, Note_off_c, 1, 56, 0
1, 330665, Note_on_c, 1, 72, 127
1, 330665, Note_on_c, 1, 57, 127
1, 330849, Note_off_c, 1, 72, 0
1, 330851, Note_on_c, 1, 74, 127
1, 331035, Note_off_c, 1, 74, 0
1, 331037, Note_on_c, 1, 45, 127
1, 331207, Note_off_c, 1, 57, 0
1, 331223, Note_on_c, 1, 71, 127
1, 331407, Note_off_c, 1, 71, 0
1, 331409, Note_on_c, 1, 69, 127
1, 331579, Note_off_c, 1, 45, 0
1, 331593, Note_off_c, 1, 69, 0
1, 331595, Note_on_c, 1, 77, 127
1, 331779, Note_off_c, 1, 77, 0
1, 331781, Note_on_c, 1, 76, 127
1, 331781, Note_on_c, 1, 57, 127
1, 331965, Note_off_c, 1, 76, 0
1, 331967, Note_on_c, 1, 77, 127
1, 332151, Note_off_c, 1, 57, 0
1, 332151, Note_off_c, 1, 77, 0
1, 332153, Note_on_c, 1, 74, 127
1, 332153, Note_on_c, 1, 59, 127
1, 332337, Note_off_c, 1, 74, 0
1, 332339, Note_on_c, 1, 72, 127
1, 332523, Note_off_c, 1, 72, 0
1, 332525, Note_on_c, 1, 71, 127
1, 332525, Note_on_c, 1, 47, 127
1, 332695, Note_off_c, 1, 59, 0
1, 332709, Note_off_c, 1, 71, 0
1, 332711, Note_on_c, 1, 69, 127
1, 332895, Note_off_c, 1, 69, 0
1, 332897, Note_on_c, 1, 67, 127
1, 333067, Note_off_c, 1, 47, 0
1, 333081, Note_off_c, 1, 67, 0
1, 333083, Note_on_c, 1, 79, 127
1, 333267, Note_off_c, 1, 79, 0
1, 333269, Note_on_c, 1, 77, 127
1, 333269, Note_on_c, 1, 59, 127
1, 333453, Note_off_c, 1, 77, 0
1, 333455, Note_on_c, 1, 79, 127
1, 333639, Note_off_c, 1, 59, 0
1, 333639, Note_off_c, 1, 79, 0
1, 333641, Note_on_c, 1, 76, 127
1, 333641, Note_on_c, 1, 60, 127
1, 333825, Note_off_c, 1, 76, 0
1, 333827, Note_on_c, 1, 74, 127
1, 334011, Note_off_c, 1, 74, 0
1, 334013, Note_on_c, 1, 72, 127
1, 334013, Note_on_c, 1, 48, 127
1, 334183, Note_off_c, 1, 60, 0
1, 334197, Note_off_c, 1, 72, 0
1, 334199, Note_on_c, 1, 71, 127
1, 334383, Note_off_c, 1, 71, 0
1, 334385, Note_on_c, 1, 69, 127
1, 334555, Note_off_c, 1, 48, 0
1, 334569, Note_off_c, 1, 69, 0
1, 334571, Note_on_c, 1, 81, 127
1, 334755, Note_off_c, 1, 81, 0
1, 334757, Note_on_c, 1, 79, 127
1, 334757, Note_on_c, 1, 60, 127
1, 334941, Note_off_c, 1, 79, 0
1, 334943, Note_on_c, 1, 81, 127
1, 335127, Note_off_c, 1, 60, 0
1, 335127, Note_off_c, 1, 81, 0
1, 335129, Note_on_c, 1, 77, 127
1, 335129, Note_on_c, 1, 62, 127
1, 335313, Note_off_c, 1, 77, 0
1, 335315, Note_on_c, 1, 76, 127
1, 335499, Note_off_c, 1, 62, 0
1, 335499, Note_off_c, 1, 76, 0
1, 335501, Note_on_c, 1, 74, 127
1, 335501, Note_on_c, 1, 53, 127
1, 335685, Note_off_c, 1, 74, 0
1, 335687, Note_on_c, 1, 72, 127
1, 335871, Note_off_c, 1, 53, 0
1, 335871, Note_off_c, 1, 72, 0
1, 335873, Note_on_c, 1, 71, 127
1, 335873, Note_on_c, 1, 55, 127
1, 336057, Note_off_c, 1, 71, 0
1, 336059, Note_on_c, 1, 79, 127
1, 336243, Note_off_c, 1, 55, 0
1, 336243, Note_off_c, 1, 79, 0
1, 336245, Note_on_c, 1, 77, 127
1, 336245, Note_on_c, 1, 59, 127
1, 336429, Note_off_c, 1, 77, 0
1, 336431, Note_on_c, 1, 79, 127
1, 336615, Note_off_c, 1, 59, 0
1, 336615, Note_off_c, 1, 79, 0
1, 336617, Note_on_c, 1, 60, 127
1, 336617, Note_on_c, 1, 76, 127
1, 336801, Note_off_c, 1, 60, 0
1, 336801, Note_off_c, 1, 76, 0
1, 336803, Note_on_c, 1, 55, 127
1, 336803, Note_on_c, 1, 77, 127
1, 336987, Note_off_c, 1, 55, 0
1, 336987, Note_off_c, 1, 77, 0
1, 336989, Note_on_c, 1, 52, 127
1, 336989, Note_on_c, 1, 79, 127
1, 337173, Note_off_c, 1, 52, 0
1, 337173, Note_off_c, 1, 79, 0
1, 337175, Note_on_c, 1, 55, 127
1, 337175, Note_on_c, 1, 77, 127
1, 337359, Note_off_c, 1, 55, 0
1, 337359, Note_off_c, 1, 77, 0
1, 337361, Note_on_c, 1, 76, 127
1, 337361, Note_on_c, 1, 48, 127
1, 337545, Note_off_c, 1, 76, 0
1, 337547, Note_on_c, 1, 77, 127
1, 337713, Note_off_c, 1, 48, 0
1, 337730, Note_off_c, 1, 77, 0
1, 337732, Note_on_c, 1, 76, 127
1, 337732, Note_on_c, 1, 55, 127
1, 337916, Note_off_c, 1, 76, 0
1, 337918, Note_on_c, 1, 74, 127
1, 338086, Note_off_c, 1, 55, 0
1, 338101, Note_off_c, 1, 74, 0
1, 338103, Note_on_c, 1, 76, 127
1, 338103, Note_on_c, 1, 60, 127
1, 338287, Note_off_c, 1, 76, 0
1, 338289, Note_on_c, 1, 72, 127
1, 338473, Note_off_c, 1, 60, 0
1, 338473, Note_off_c, 1, 72, 0
1, 338475, Note_on_c, 1, 64, 127
1, 338475, Note_on_c, 1, 67, 127
1, 338659, Note_off_c, 1, 64, 0
1, 338659, Note_off_c, 1, 67, 0
1, 338661, Note_on_c, 1, 62, 127
1, 338661, Note_on_c, 1, 72, 127
1, 338845, Note_off_c, 1, 62, 0
1, 338845, Note_off_c, 1, 72, 0
1, 338847, Note_on_c, 1, 76, 127
1, 338847, Note_on_c, 1, 60, 127
1, 339031, Note_off_c, 1, 76, 0
1, 339033, Note_on_c, 1, 77, 127
1, 339217, Note_off_c, 1, 60, 0
1, 339217, Note_off_c, 1, 77, 0
1, 339219, Note_on_c, 1, 76, 127
1, 339219, Note_on_c, 1, 59, 127
1, 339403, Note_off_c, 1, 76, 0
1, 339405, Note_on_c, 1, 74, 127
1, 339589, Note_off_c, 1, 59, 0
1, 339589, Note_off_c, 1, 74, 0
1, 339591, Note_on_c, 1, 76, 127
1, 339591, Note_on_c, 1, 57, 127
1, 339775, Note_off_c, 1, 76, 0
1, 339777, Note_on_c, 1, 72, 127
1, 339961, Note_off_c, 1, 57, 0
1, 339961, Note_off_c, 1, 72, 0
1, 339963, Note_on_c, 1, 60, 127
1, 339963, Note_on_c, 1, 67, 127
1, 340147, Note_off_c, 1, 60, 0
1, 340147, Note_off_c, 1, 67, 0
1, 340149, Note_on_c, 1, 59, 127
1, 340149, Note_on_c, 1, 72, 127
1, 340333, Note_off_c, 1, 59, 0
1, 340333, Note_off_c, 1, 72, 0
1, 340335, Note_on_c, 1, 76, 127
1, 340335, Note_on_c, 1, 57, 127
1, 340519, Note_off_c, 1, 76, 0
1, 340521, Note_on_c, 1, 77, 127
1, 340705, Note_off_c, 1, 57, 0
1, 340705, Note_off_c, 1, 77, 0
1, 340707, Note_on_c, 1, 76, 127
1, 340707, Note_on_c, 1, 55, 127
1, 340891, Note_off_c, 1, 76, 0
1, 340893, Note_on_c, 1, 74, 127
1, 341077, Note_off_c, 1, 55, 0
1, 341077, Note_off_c, 1, 74, 0
1, 341079, Note_on_c, 1, 76, 127
1, 341079, Note_on_c, 1, 53, 127
1, 341263, Note_off_c, 1, 76, 0
1, 341265, Note_on_c, 1, 72, 127
1, 341449, Note_off_c, 1, 53, 0
1, 341449, Note_off_c, 1, 72, 0
1, 341451, Note_on_c, 1, 52, 127
1, 341451, Note_on_c, 1, 67, 127
1, 341635, Note_off_c, 1, 52, 0
1, 341635, Note_off_c, 1, 67, 0
1, 341637, Note_on_c, 1, 53, 127
1, 341637, Note_on_c, 1, 72, 127
1, 341821, Note_off_c, 1, 53, 0
1, 341821, Note_off_c, 1, 72, 0
1, 341823, Note_on_c, 1, 76, 127
1, 341823, Note_on_c, 1, 55, 127
1, 342007, Note_off_c, 1, 76, 0
1, 342009, Note_on_c, 1, 77, 127
1, 342193, Note_off_c, 1, 55, 0
1, 342193, Note_off_c, 1, 77, 0
1, 342195, Note_on_c, 1, 76, 127
1, 342195, Note_on_c, 1, 43, 127
1, 342379, Note_off_c, 1, 76, 0
1, 342381, Note_on_c, 1, 74, 127
1, 342565, Note_off_c, 1, 43, 0
1, 342565, Note_off_c, 1, 74, 0
1, 342567, Note_on_c, 1, 72, 127
1, 342567, Note_on_c, 1, 48, 127
1, 342751, Note_off_c, 1, 72, 0
1, 342753, Note_on_c, 1, 67, 127
1, 342937, Note_off_c, 1, 67, 0
1, 342939, Note_on_c, 1, 64, 127
1, 342939, Note_on_c, 1, 52, 127
1, 343123, Note_off_c, 1, 64, 0
1, 343311, Note_on_c, 1, 55, 127
1, 343497, Note_on_c, 1, 74, 127
1, 343681, Note_off_c, 1, 48, 0
1, 343681, Note_off_c, 1, 74, 0
1, 343683, Note_on_c, 1, 47, 127
1, 343869, Note_on_c, 1, 71, 127
1, 344047, Note_off_c, 1, 55, 0
1, 344053, Note_off_c, 1, 52, 0
1, 344053, Note_off_c, 1, 47, 0
1, 344053, Note_off_c, 1, 71, 0
1, 344055, Note_on_c, 1, 72, 127
1, 344055, Note_on_c, 1, 45, 127
1, 344239, Note_off_c, 1, 72, 0
1, 344241, Note_on_c, 1, 67, 127
1, 344425, Note_off_c, 1, 67, 0
1, 344427, Note_on_c, 1, 64, 127
1, 344427, Note_on_c, 1, 48, 127
1, 344611, Note_off_c, 1, 64, 0
1, 344799, Note_on_c, 1, 52, 127
1, 344985, Note_on_c, 1, 74, 127
1, 345169, Note_off_c, 1, 45, 0
1, 345169, Note_off_c, 1, 74, 0
1, 345171, Note_on_c, 1, 43, 127
1, 345357, Note_on_c, 1, 71, 127
1, 345535, Note_off_c, 1, 52, 0
1, 345541, Note_off_c, 1, 48, 0
1, 345541, Note_off_c, 1, 43, 0
1, 345541, Note_off_c, 1, 71, 0
1, 345543, Note_on_c, 1, 72, 127
1, 345543, Note_on_c, 1, 41, 127
1, 345727, Note_off_c, 1, 72, 0
1, 345729, Note_on_c, 1, 67, 127
1, 345913, Note_off_c, 1, 67, 0
1, 345915, Note_on_c, 1, 64, 127
1, 345915, Note_on_c, 1, 48, 127
1, 346099, Note_off_c, 1, 64, 0
1, 346287, Note_on_c, 1, 52, 127
1, 346473, Note_on_c, 1, 74, 127
1, 346657, Note_off_c, 1, 41, 0
1, 346657, Note_off_c, 1, 74, 0
1, 346659, Note_on_c, 1, 40, 127
1, 346845, Note_on_c, 1, 71, 127
1, 347023, Note_off_c, 1, 52, 0
1, 347029, Note_off_c, 1, 48, 0
1, 347029, Note_off_c, 1, 40, 0
1, 347029, Note_off_c, 1, 71, 0
1, 347031, Note_on_c, 1, 72, 127
1, 347031, Note_on_c, 1, 41, 127
1, 347215, Note_off_c, 1, 72, 0
1, 347217, Note_on_c, 1, 67, 127
1, 347401, Note_off_c, 1, 67, 0
1, 347403, Note_on_c, 1, 64, 127
1, 347403, Note_on_c, 1, 48, 127
1, 347587, Note_off_c, 1, 64, 0
1, 347775, Note_on_c, 1, 52, 127
1, 347961, Note_on_c, 1, 74, 127
1, 348145, Note_off_c, 1, 41, 0
1, 348145, Note_off_c, 1, 74, 0
1, 348147, Note_on_c, 1, 43, 127
1, 348333, Note_on_c, 1, 71, 127
1, 348511, Note_off_c, 1, 52, 0
1, 348517, Note_off_c, 1, 48, 0
1, 348517, Note_off_c, 1, 43, 0
1, 348517, Note_off_c, 1, 71, 0
1, 348519, Note_on_c, 1, 36, 127
1, 348519, Note_on_c, 1, 72, 127
1, 348767, Note_on_c, 1, 67, 127
1, 349015, Note_on_c, 1, 64, 127
1, 349263, Note_on_c, 1, 60, 127
1, 349511, Note_off_c, 1, 36, 0
1, 349573, Note_on_c, 1, 48, 127
1, 350038, Note_off_c, 1, 60, 0
1, 350177, Note_off_c, 1, 64, 0
1, 350316, Note_off_c, 1, 67, 0
1, 350746, Note_off_c, 1, 72, 0
1, 351058, Note_off_c, 1, 48, 0
1, 353583, Note_on_c, 1, 53, 127
1, 353583, Note_on_c, 1, 71, 127
1, 353746, Note_off_c, 1, 53, 0
1, 353746, Note_off_c, 1, 71, 0
1, 353748, Note_on_c, 1, 52, 127
1, 353748, Note_on_c, 1, 72, 127
1, 353911, Note_off_c, 1, 52, 0
1, 353911, Note_off_c, 1, 72, 0
1, 353913, Note_on_c, 1, 50, 127
1, 353913, Note_on_c, 1, 74, 127
1, 354076, Note_off_c, 1, 50, 0
1, 354076, Note_off_c, 1, 74, 0
1, 354078, Note_on_c, 1, 48, 127
1, 354078, Note_on_c, 1, 76, 127
1, 354078, Note_on_c, 1, 72, 127
1, 354078, Note_on_c, 1, 67, 127
1, 354241, Note_off_c, 1, 48, 0
1, 354243, Note_on_c, 1, 60, 127
1, 354406, Note_off_c, 1, 60, 0
1, 354408, Note_on_c, 1, 59, 127
1, 354571, Note_off_c, 1, 59, 0
1, 354573, Note_on_c, 1, 57, 127
1, 354736, Note_off_c, 1, 57, 0
1, 354738, Note_on_c, 1, 55, 127
1, 354901, Note_off_c, 1, 55, 0
1, 355233, Note_on_c, 1, 53, 127
1, 355396, Note_off_c, 1, 53, 0
1, 355398, Note_on_c, 1, 52, 127
1, 355561, Note_off_c, 1, 76, 0
1, 355561, Note_off_c, 1, 72, 0
1, 355561, Note_off_c, 1, 67, 0
1, 355563, Note_on_c, 1, 79, 127
1, 355726, Note_off_c, 1, 79, 0
1, 355728, Note_on_c, 1, 77, 127
1, 355891, Note_off_c, 1, 77, 0
1, 356051, Note_off_c, 1, 52, 0
1, 356058, Note_on_c, 1, 74, 127
1, 356058, Note_on_c, 1, 53, 127
1, 356058, Note_on_c, 1, 57, 127
1, 356221, Note_off_c, 1, 74, 0
1, 356223, Note_on_c, 1, 76, 127
1, 356386, Note_off_c, 1, 53, 0
1, 356386, Note_off_c, 1, 76, 0
1, 356388, Note_on_c, 1, 62, 127
1, 356388, Note_on_c, 1, 54, 127
1, 356553, Note_on_c, 1, 72, 127
1, 356711, Note_off_c, 1, 57, 0
1, 356714, Note_off_c, 1, 62, 0
1, 356716, Note_off_c, 1, 54, 0
1, 356716, Note_off_c, 1, 72, 0
1, 356718, Note_on_c, 1, 71, 127
1, 356718, Note_on_c, 1, 55, 127
1, 356881, Note_off_c, 1, 71, 0
1, 356883, Note_on_c, 1, 74, 127
1, 357046, Note_off_c, 1, 74, 0
1, 357048, Note_on_c, 1, 72, 127
1, 357048, Note_on_c, 1, 57, 127
1, 357211, Note_off_c, 1, 72, 0
1, 357213, Note_on_c, 1, 76, 127
1, 357376, Note_off_c, 1, 57, 0
1, 357376, Note_off_c, 1, 76, 0
1, 357378, Note_on_c, 1, 59, 127
1, 357541, Note_off_c, 1, 59, 0
1, 357543, Note_on_c, 1, 60, 127
1, 357706, Note_off_c, 1, 55, 0
1, 357706, Note_off_c, 1, 60, 0
1, 357708, Note_on_c, 1, 62, 127
1, 357708, Note_on_c, 1, 77, 127
1, 357708, Note_on_c, 1, 55, 127
1, 357871, Note_off_c, 1, 62, 0
1, 357871, Note_off_c, 1, 77, 0
1, 357873, Note_on_c, 1, 59, 127
1, 357873, Note_on_c, 1, 79, 127
1, 358034, Note_off_c, 1, 55, 0
1, 358036, Note_off_c, 1, 59, 0
1, 358036, Note_off_c, 1, 79, 0
1, 358038, Note_on_c, 1, 60, 127
1, 358038, Note_on_c, 1, 76, 127
1, 358038, Note_on_c, 1, 57, 127
1, 358201, Note_off_c, 1, 60, 0
1, 358203, Note_on_c, 1, 64, 127
1, 358203, Note_on_c, 1, 74, 127
1, 358366, Note_off_c, 1, 64, 0
1, 358366, Note_off_c, 1, 74, 0
1, 358368, Note_on_c, 1, 66, 127
1, 358368, Note_on_c, 1, 72, 127
1, 358531, Note_off_c, 1, 66, 0
1, 358531, Note_off_c, 1, 72, 0
1, 358533, Note_on_c, 1, 68, 127
1, 358533, Note_on_c, 1, 71, 127
1, 358696, Note_off_c, 1, 68, 0
1, 358696, Note_off_c, 1, 71, 0
1, 358698, Note_on_c, 1, 69, 127
1, 358863, Note_off_c, 1, 76, 0
1, 358863, Note_on_c, 1, 78, 127
1, 359026, Note_off_c, 1, 57, 0
1, 359026, Note_off_c, 1, 78, 0
1, 359351, Note_off_c, 1, 69, 0
1, 359358, Note_on_c, 1, 59, 127
1, 359358, Note_on_c, 1, 79, 127
1, 359523, Note_on_c, 1, 62, 127
1, 359686, Note_off_c, 1, 62, 0
1, 359688, Note_on_c, 1, 60, 127
1, 359851, Note_off_c, 1, 60, 0
1, 360011, Note_off_c, 1, 59, 0
1, 360018, Note_on_c, 1, 64, 127
1, 360181, Note_off_c, 1, 79, 0
1, 360183, Note_on_c, 1, 81, 127
1, 360346, Note_off_c, 1, 81, 0
1, 360676, Note_off_c, 1, 64, 0
1, 360678, Note_on_c, 1, 78, 127
1, 360841, Note_off_c, 1, 78, 0
1, 360843, Note_on_c, 1, 74, 127
1, 361006, Note_off_c, 1, 74, 0
1, 361008, Note_on_c, 1, 76, 127
1, 361171, Note_off_c, 1, 76, 0
1, 361173, Note_on_c, 1, 57, 127
1, 361336, Note_off_c, 1, 57, 0
1, 362988, Note_on_c, 1, 50, 127
1, 363316, Note_off_c, 1, 50, 0
1, 363318, Note_on_c, 1, 55, 127
1, 363318, Note_on_c, 1, 59, 127
1, 363318, Note_on_c, 1, 79, 127
1, 363481, Note_off_c, 1, 55, 0
1, 363483, Note_on_c, 1, 57, 127
1, 363646, Note_off_c, 1, 57, 0
1, 363813, Note_on_c, 1, 53, 127
1, 363971, Note_off_c, 1, 59, 0
1, 363976, Note_off_c, 1, 53, 0
1, 363978, Note_on_c, 1, 52, 127
1, 363978, Note_on_c, 1, 60, 127
1, 364141, Note_off_c, 1, 79, 0
1, 364306, Note_off_c, 1, 52, 0
1, 364308, Note_on_c, 1, 77, 127
1, 364308, Note_on_c, 1, 48, 127
1, 364471, Note_off_c, 1, 77, 0
1, 364473, Note_on_c, 1, 76, 127
1, 364636, Note_off_c, 1, 48, 0
1, 364636, Note_off_c, 1, 76, 0
1, 364638, Note_on_c, 1, 74, 127
1, 364965, Note_off_c, 1, 60, 0
1, 365130, Note_off_c, 1, 74, 0
1, 365627, Note_on_c, 1, 72, 127
1, 365627, Note_on_c, 1, 54, 127
1, 365790, Note_off_c, 1, 72, 0
1, 365955, Note_off_c, 1, 54, 0
1, 365957, Note_on_c, 1, 71, 127
1, 365957, Note_on_c, 1, 55, 127
1, 366122, Note_on_c, 1, 62, 127
1, 366287, Note_on_c, 1, 67, 127
1, 366438, Note_off_c, 1, 71, 0
1, 366452, Note_on_c, 1, 72, 127
1, 366615, Note_off_c, 1, 72, 0
1, 366945, Note_off_c, 1, 55, 0
1, 366945, Note_off_c, 1, 62, 0
1, 366947, Note_on_c, 1, 74, 127
1, 366947, Note_on_c, 1, 43, 127
1, 367112, Note_off_c, 1, 67, 0
1, 367112, Note_on_c, 1, 65, 127
1, 367273, Note_off_c, 1, 74, 0
1, 367275, Note_off_c, 1, 43, 0
1, 367275, Note_off_c, 1, 65, 0
1, 367277, Note_on_c, 1, 64, 127
1, 367277, Note_on_c, 1, 72, 127
1, 367277, Note_on_c, 1, 45, 127
1, 367440, Note_off_c, 1, 64, 0
1, 367442, Note_on_c, 1, 65, 127
1, 367605, Note_off_c, 1, 65, 0
1, 367607, Note_on_c, 1, 62, 127
1, 367770, Note_off_c, 1, 62, 0
1, 368265, Note_off_c, 1, 72, 0
1, 368265, Note_off_c, 1, 45, 0
1, 368267, Note_on_c, 1, 71, 127
1, 368267, Note_on_c, 1, 57, 127
1, 368430, Note_off_c, 1, 71, 0
1, 368595, Note_off_c, 1, 57, 0
1, 368597, Note_on_c, 1, 74, 127
1, 368597, Note_on_c, 1, 59, 127
1, 368762, Note_on_c, 1, 66, 127
1, 368925, Note_off_c, 1, 66, 0
1, 368927, Note_on_c, 1, 64, 127
1, 369090, Note_off_c, 1, 64, 0
1, 369257, Note_on_c, 1, 67, 127
1, 369585, Note_off_c, 1, 74, 0
1, 369585, Note_off_c, 1, 59, 0
1, 369587, Note_on_c, 1, 72, 127
1, 369587, Note_on_c, 1, 47, 127
1, 369750, Note_off_c, 1, 72, 0
1, 369915, Note_off_c, 1, 47, 0
1, 369917, Note_on_c, 1, 76, 127
1, 369917, Note_on_c, 1, 48, 127
1, 370245, Note_off_c, 1, 67, 0
1, 370247, Note_on_c, 1, 65, 127
1, 370410, Note_off_c, 1, 65, 0
1, 370577, Note_on_c, 1, 69, 127
1, 370905, Note_off_c, 1, 76, 0
1, 370905, Note_off_c, 1, 48, 0
1, 370907, Note_on_c, 1, 60, 127
1, 371235, Note_off_c, 1, 60, 0
1, 371237, Note_on_c, 1, 77, 127
1, 371237, Note_on_c, 1, 62, 127
1, 371565, Note_off_c, 1, 69, 0
1, 371897, Note_on_c, 1, 71, 127
1, 371987, Note_off_c, 1, 77, 0
1, 372062, Note_on_c, 1, 78, 127
1, 372225, Note_off_c, 1, 62, 0
1, 372225, Note_off_c, 1, 78, 0
1, 372227, Note_on_c, 1, 50, 127
1, 372555, Note_off_c, 1, 50, 0
1, 372557, Note_on_c, 1, 79, 127
1, 372557, Note_on_c, 1, 52, 127
1, 372885, Note_off_c, 1, 71, 0
1, 373545, Note_off_c, 1, 79, 0
1, 373545, Note_off_c, 1, 52, 0
1, 373877, Note_on_c, 1, 81, 127
1, 374702, Note_off_c, 1, 81, 0
1, 375197, Note_on_c, 1, 74, 127
1, 375197, Note_on_c, 1, 71, 127
1, 375197, Note_on_c, 1, 67, 127
1, 375360, Note_off_c, 1, 74, 0
1, 375360, Note_off_c, 1, 71, 0
1, 375362, Note_on_c, 1, 76, 127
1, 375362, Note_on_c, 1, 72, 127
1, 375525, Note_off_c, 1, 76, 0
1, 375525, Note_off_c, 1, 72, 0
1, 375527, Note_on_c, 1, 69, 127
1, 375690, Note_off_c, 1, 69, 0
1, 375850, Note_off_c, 1, 67, 0
1, 375857, Note_on_c, 1, 71, 127
1, 375857, Note_on_c, 1, 67, 127
1, 376020, Note_off_c, 1, 71, 0
1, 376020, Note_off_c, 1, 67, 0
1, 376022, Note_on_c, 1, 69, 127
1, 376022, Note_on_c, 1, 72, 127
1, 376185, Note_off_c, 1, 69, 0
1, 376185, Note_off_c, 1, 72, 0
1, 376187, Note_on_c, 1, 65, 127
1, 376187, Note_on_c, 1, 74, 127
1, 376350, Note_off_c, 1, 65, 0
1, 376350, Note_off_c, 1, 74, 0
1, 376352, Note_on_c, 1, 76, 127
1, 376352, Note_on_c, 1, 67, 127
1, 376515, Note_off_c, 1, 76, 0
1, 376515, Note_off_c, 1, 67, 0
1, 376517, Note_on_c, 1, 67, 127
1, 376517, Note_on_c, 1, 64, 127
1, 376517, Note_on_c, 1, 55, 127
1, 376680, Note_off_c, 1, 67, 0
1, 376682, Note_on_c, 1, 74, 127
1, 376845, Note_off_c, 1, 74, 0
1, 376847, Note_on_c, 1, 72, 127
1, 377010, Note_off_c, 1, 72, 0
1, 377012, Note_on_c, 1, 71, 127
1, 377175, Note_off_c, 1, 71, 0
1, 377342, Note_off_c, 1, 64, 0
1, 377342, Note_on_c, 1, 65, 127
1, 377505, Note_off_c, 1, 65, 0
1, 377507, Note_on_c, 1, 62, 127
1, 377670, Note_off_c, 1, 62, 0
1, 377672, Note_on_c, 1, 69, 127
1, 377672, Note_on_c, 1, 60, 127
1, 377835, Note_off_c, 1, 69, 0
1, 377835, Note_off_c, 1, 60, 0
1, 378497, Note_on_c, 1, 59, 127
1, 378660, Note_off_c, 1, 59, 0
1, 378827, Note_on_c, 1, 57, 127
1, 378827, Note_on_c, 1, 66, 127
1, 378990, Note_off_c, 1, 57, 0
1, 378990, Note_off_c, 1, 66, 0
1, 379146, Note_off_c, 1, 55, 0
1, 379157, Note_on_c, 1, 59, 127
1, 379157, Note_on_c, 1, 67, 127
1, 379322, Note_on_c, 1, 55, 127
1, 379485, Note_off_c, 1, 55, 0
1, 379487, Note_on_c, 1, 54, 127
1, 379650, Note_off_c, 1, 54, 0
1, 379652, Note_on_c, 1, 52, 127
1, 379815, Note_off_c, 1, 52, 0
1, 379817, Note_on_c, 1, 50, 127
1, 379980, Note_off_c, 1, 50, 0
1, 380145, Note_off_c, 1, 59, 0
1, 380147, Note_on_c, 1, 48, 127
1, 380147, Note_on_c, 1, 60, 127
1, 380310, Note_off_c, 1, 48, 0
1, 380473, Note_off_c, 1, 60, 0
1, 380477, Note_on_c, 1, 47, 127
1, 380477, Note_on_c, 1, 62, 127
1, 380640, Note_off_c, 1, 67, 0
1, 380642, Note_on_c, 1, 71, 127
1, 380805, Note_off_c, 1, 71, 0
1, 380807, Note_on_c, 1, 72, 127
1, 380970, Note_off_c, 1, 72, 0
1, 380972, Note_on_c, 1, 74, 127
1, 381135, Note_off_c, 1, 74, 0
1, 381300, Note_off_c, 1, 47, 0
1, 381465, Note_off_c, 1, 62, 0
1, 381467, Note_on_c, 1, 48, 127
1, 381467, Note_on_c, 1, 57, 127
1, 381467, Note_on_c, 1, 66, 127
1, 381467, Note_on_c, 1, 62, 127
1, 381630, Note_off_c, 1, 48, 0
1, 381632, Note_on_c, 1, 50, 127
1, 381793, Note_off_c, 1, 57, 0
1, 381795, Note_off_c, 1, 66, 0
1, 381795, Note_off_c, 1, 62, 0
1, 381795, Note_off_c, 1, 50, 0
1, 381797, Note_on_c, 1, 43, 127
1, 381797, Note_on_c, 1, 59, 127
1, 381797, Note_on_c, 1, 67, 127
1, 381797, Note_on_c, 1, 62, 127
1, 382618, Note_off_c, 1, 43, 0
1, 382618, Note_off_c, 1, 59, 0
1, 382618, Note_off_c, 1, 67, 0
1, 382618, Note_off_c, 1, 62, 0
1, 382620, Note_on_c, 1, 59, 127
1, 382620, Note_on_c, 1, 79, 127
1, 382783, Note_off_c, 1, 59, 0
1, 382783, Note_off_c, 1, 79, 0
1, 382785, Note_on_c, 1, 60, 127
1, 382785, Note_on_c, 1, 76, 127
1, 382948, Note_off_c, 1, 60, 0
1, 382948, Note_off_c, 1, 76, 0
1, 382950, Note_on_c, 1, 57, 127
1, 382950, Note_on_c, 1, 78, 127
1, 383113, Note_off_c, 1, 57, 0
1, 383113, Note_off_c, 1, 78, 0
1, 383115, Note_on_c, 1, 79, 127
1, 383115, Note_on_c, 1, 55, 127
1, 383280, Note_on_c, 1, 59, 127
1, 383443, Note_off_c, 1, 59, 0
1, 383445, Note_on_c, 1, 57, 127
1, 383608, Note_off_c, 1, 79, 0
1, 383608, Note_off_c, 1, 57, 0
1, 383610, Note_on_c, 1, 77, 127
1, 383773, Note_off_c, 1, 77, 0
1, 383775, Note_on_c, 1, 76, 127
1, 383775, Note_on_c, 1, 60, 127
1, 383938, Note_off_c, 1, 76, 0
1, 384103, Note_off_c, 1, 60, 0
1, 384105, Note_on_c, 1, 74, 127
1, 384268, Note_off_c, 1, 74, 0
1, 384270, Note_on_c, 1, 72, 127
1, 384433, Note_off_c, 1, 72, 0
1, 384435, Note_on_c, 1, 62, 127
1, 384435, Note_on_c, 1, 71, 127
1, 384598, Note_off_c, 1, 62, 0
1, 384598, Note_off_c, 1, 71, 0
1, 384600, Note_on_c, 1, 64, 127
1, 384763, Note_off_c, 1, 64, 0
1, 384930, Note_on_c, 1, 69, 127
1, 385093, Note_off_c, 1, 69, 0
1, 385095, Note_on_c, 1, 67, 127
1, 385258, Note_off_c, 1, 67, 0
1, 385590, Note_on_c, 1, 66, 127
1, 385744, Note_off_c, 1, 55, 0
1, 385753, Note_off_c, 1, 66, 0
1, 385755, Note_on_c, 1, 67, 127
1, 385755, Note_on_c, 1, 59, 127
1, 385918, Note_off_c, 1, 67, 0
1, 385920, Note_on_c, 1, 69, 127
1, 386083, Note_off_c, 1, 59, 0
1, 386083, Note_off_c, 1, 69, 0
1, 386085, Note_on_c, 1, 71, 127
1, 386085, Note_on_c, 1, 62, 127
1, 386248, Note_off_c, 1, 71, 0
1, 386250, Note_on_c, 1, 57, 127
1, 386250, Note_on_c, 1, 72, 127
1, 386413, Note_off_c, 1, 57, 0
1, 386413, Note_off_c, 1, 72, 0
1, 386415, Note_on_c, 1, 74, 127
1, 386415, Note_on_c, 1, 59, 127
1, 386578, Note_off_c, 1, 74, 0
1, 386580, Note_on_c, 1, 76, 127
1, 386743, Note_off_c, 1, 59, 0
1, 386743, Note_off_c, 1, 76, 0
1, 386745, Note_on_c, 1, 77, 127
1, 386745, Note_on_c, 1, 55, 127
1, 386908, Note_off_c, 1, 77, 0
1, 386910, Note_on_c, 1, 79, 127
1, 387073, Note_off_c, 1, 62, 0
1, 387073, Note_off_c, 1, 55, 0
1, 387073, Note_off_c, 1, 79, 0
1, 387075, Note_on_c, 1, 48, 127
1, 387075, Note_on_c, 1, 67, 127
1, 387075, Note_on_c, 1, 76, 127
1, 387075, Note_on_c, 1, 72, 127
1, 387238, Note_off_c, 1, 48, 0
1, 387240, Note_on_c, 1, 50, 127
1, 387403, Note_off_c, 1, 50, 0
1, 387405, Note_on_c, 1, 52, 127
1, 387568, Note_off_c, 1, 52, 0
1, 387570, Note_on_c, 1, 53, 127
1, 387733, Note_off_c, 1, 53, 0
1, 387735, Note_on_c, 1, 55, 127
1, 387898, Note_off_c, 1, 55, 0
1, 387900, Note_on_c, 1, 57, 127
1, 388063, Note_off_c, 1, 57, 0
1, 388065, Note_on_c, 1, 59, 127
1, 388228, Note_off_c, 1, 59, 0
1, 388230, Note_on_c, 1, 60, 127
1, 388393, Note_off_c, 1, 67, 0
1, 388393, Note_off_c, 1, 76, 0
1, 388393, Note_off_c, 1, 72, 0
1, 388395, Note_on_c, 1, 66, 127
1, 388395, Note_on_c, 1, 74, 127
1, 388558, Note_off_c, 1, 66, 0
1, 388560, Note_on_c, 1, 62, 127
1, 388723, Note_off_c, 1, 62, 0
1, 388725, Note_on_c, 1, 64, 127
1, 388888, Note_off_c, 1, 64, 0
1, 389053, Note_off_c, 1, 60, 0
1, 389220, Note_on_c, 1, 69, 127
1, 389383, Note_off_c, 1, 69, 0
1, 389385, Note_on_c, 1, 71, 127
1, 389548, Note_off_c, 1, 71, 0
1, 389873, Note_off_c, 1, 74, 0
1, 390869, Note_on_c, 1, 65, 127
1, 391032, Note_off_c, 1, 65, 0
1, 391034, Note_on_c, 1, 72, 127
1, 391034, Note_on_c, 1, 64, 127
1, 391034, Note_on_c, 1, 57, 127
1, 391197, Note_off_c, 1, 72, 0
1, 391199, Note_on_c, 1, 74, 127
1, 391362, Note_off_c, 1, 74, 0
1, 391364, Note_on_c, 1, 71, 127
1, 391527, Note_off_c, 1, 71, 0
1, 391687, Note_off_c, 1, 64, 0
1, 391694, Note_on_c, 1, 69, 127
1, 391859, Note_on_c, 1, 65, 127
1, 392020, Note_off_c, 1, 69, 0
1, 392022, Note_off_c, 1, 65, 0
1, 392352, Note_off_c, 1, 57, 0
1, 392354, Note_on_c, 1, 62, 127
1, 392354, Note_on_c, 1, 59, 127
1, 392519, Note_on_c, 1, 74, 127
1, 392680, Note_off_c, 1, 62, 0
1, 392682, Note_off_c, 1, 74, 0
1, 392684, Note_on_c, 1, 72, 127
1, 392684, Note_on_c, 1, 66, 127
1, 392847, Note_off_c, 1, 72, 0
1, 393010, Note_off_c, 1, 66, 0
1, 393014, Note_on_c, 1, 71, 127
1, 393179, Note_on_c, 1, 67, 127
1, 393340, Note_off_c, 1, 71, 0
1, 393342, Note_off_c, 1, 67, 0
1, 393344, Note_on_c, 1, 65, 127
1, 393507, Note_off_c, 1, 65, 0
1, 393672, Note_off_c, 1, 59, 0
1, 393674, Note_on_c, 1, 64, 127
1, 393674, Note_on_c, 1, 60, 127
1, 393839, Note_on_c, 1, 76, 127
1, 394000, Note_off_c, 1, 64, 0
1, 394002, Note_off_c, 1, 76, 0
1, 394004, Note_on_c, 1, 74, 127
1, 394004, Note_on_c, 1, 67, 127
1, 394167, Note_off_c, 1, 74, 0
1, 394330, Note_off_c, 1, 67, 0
1, 394334, Note_on_c, 1, 72, 127
1, 394499, Note_on_c, 1, 69, 127
1, 394660, Note_off_c, 1, 72, 0
1, 394662, Note_off_c, 1, 69, 0
1, 394992, Note_off_c, 1, 60, 0
1, 394994, Note_on_c, 1, 65, 127
1, 394994, Note_on_c, 1, 62, 127
1, 395159, Note_on_c, 1, 77, 127
1, 395320, Note_off_c, 1, 65, 0
1, 395322, Note_off_c, 1, 77, 0
1, 395324, Note_on_c, 1, 76, 127
1, 395324, Note_on_c, 1, 69, 127
1, 395487, Note_off_c, 1, 76, 0
1, 395650, Note_off_c, 1, 69, 0
1, 395654, Note_on_c, 1, 74, 127
1, 395819, Note_on_c, 1, 71, 127
1, 395980, Note_off_c, 1, 74, 0
1, 395982, Note_off_c, 1, 71, 0
1, 396312, Note_off_c, 1, 62, 0
1, 396314, Note_on_c, 1, 67, 127
1, 396314, Note_on_c, 1, 64, 127
1, 396479, Note_on_c, 1, 79, 127
1, 396640, Note_off_c, 1, 67, 0
1, 396642, Note_off_c, 1, 79, 0
1, 396644, Note_on_c, 1, 77, 127
1, 396644, Note_on_c, 1, 71, 127
1, 396807, Note_off_c, 1, 77, 0
1, 396970, Note_off_c, 1, 71, 0
1, 396974, Note_on_c, 1, 76, 127
1, 397139, Note_on_c, 1, 72, 127
1, 397300, Note_off_c, 1, 76, 0
1, 397302, Note_off_c, 1, 72, 0
1, 397632, Note_off_c, 1, 64, 0
1, 397634, Note_on_c, 1, 69, 127
1, 397634, Note_on_c, 1, 65, 127
1, 397799, Note_on_c, 1, 81, 127
1, 397960, Note_off_c, 1, 69, 0
1, 397962, Note_off_c, 1, 81, 0
1, 397964, Note_on_c, 1, 79, 127
1, 397964, Note_on_c, 1, 72, 127
1, 398127, Note_off_c, 1, 79, 0
1, 398290, Note_off_c, 1, 72, 0
1, 398294, Note_on_c, 1, 77, 127
1, 398294, Note_on_c, 1, 74, 127
1, 398457, Note_off_c, 1, 77, 0
1, 398459, Note_on_c, 1, 76, 127
1, 398620, Note_off_c, 1, 74, 0
1, 398622, Note_off_c, 1, 65, 0
1, 398622, Note_off_c, 1, 76, 0
1, 398624, Note_on_c, 1, 74, 127
1, 398624, Note_on_c, 1, 69, 127
1, 398624, Note_on_c, 1, 66, 127
1, 398787, Note_off_c, 1, 74, 0
1, 398789, Note_on_c, 1, 72, 127
1, 398950, Note_off_c, 1, 69, 0
1, 398952, Note_off_c, 1, 66, 0
1, 398952, Note_off_c, 1, 72, 0
1, 398954, Note_on_c, 1, 71, 127
1, 398954, Note_on_c, 1, 67, 127
1, 399119, Note_on_c, 1, 72, 127
1, 399282, Note_off_c, 1, 72, 0
1, 399284, Note_on_c, 1, 74, 127
1, 399435, Note_off_c, 1, 71, 0
1, 399447, Note_off_c, 1, 67, 0
1, 399449, Note_on_c, 1, 65, 127
1, 399610, Note_off_c, 1, 74, 0
1, 399612, Note_off_c, 1, 65, 0
1, 399614, Note_on_c, 1, 76, 127
1, 399614, Note_on_c, 1, 72, 127
1, 399614, Note_on_c, 1, 64, 127
1, 399777, Note_off_c, 1, 76, 0
1, 399779, Note_on_c, 1, 77, 127
1, 399942, Note_off_c, 1, 77, 0
1, 399944, Note_on_c, 1, 79, 127
1, 400095, Note_off_c, 1, 72, 0
1, 400107, Note_off_c, 1, 64, 0
1, 400109, Note_on_c, 1, 62, 127
1, 400270, Note_off_c, 1, 79, 0
1, 400272, Note_off_c, 1, 62, 0
1, 400274, Note_on_c, 1, 78, 127
1, 400274, Note_on_c, 1, 60, 127
1, 400439, Note_on_c, 1, 81, 127
1, 400600, Note_off_c, 1, 78, 0
1, 400602, Note_off_c, 1, 60, 0
1, 400604, Note_on_c, 1, 59, 127
1, 400604, Note_on_c, 1, 79, 127
1, 400765, Note_off_c, 1, 81, 0
1, 400768, Note_on_c, 1, 83, 127
1, 400931, Note_off_c, 1, 59, 0
1, 400931, Note_off_c, 1, 83, 0
1, 400933, Note_on_c, 1, 84, 127
1, 400933, Note_on_c, 1, 57, 127
1, 401084, Note_off_c, 1, 79, 0
1, 401259, Note_off_c, 1, 84, 0
1, 401261, Note_off_c, 1, 57, 0
1, 401263, Note_on_c, 1, 79, 127
1, 401263, Note_on_c, 1, 83, 127
1, 401263, Note_on_c, 1, 55, 127
1, 401426, Note_off_c, 1, 79, 0
1, 401428, Note_on_c, 1, 76, 127
1, 401589, Note_off_c, 1, 83, 0
1, 401591, Note_off_c, 1, 55, 0
1, 401591, Note_off_c, 1, 76, 0
1, 401593, Note_on_c, 1, 81, 127
1, 401593, Note_on_c, 1, 62, 127
1, 401593, Note_on_c, 1, 78, 127
1, 401756, Note_off_c, 1, 81, 0
1, 401758, Note_on_c, 1, 84, 127
1, 401921, Note_off_c, 1, 62, 0
1, 401921, Note_off_c, 1, 84, 0
1, 401923, Note_on_c, 1, 83, 127
1, 401923, Note_on_c, 1, 50, 127
1, 402086, Note_off_c, 1, 83, 0
1, 402246, Note_off_c, 1, 78, 0
1, 402251, Note_off_c, 1, 50, 0
1, 402253, Note_on_c, 1, 52, 127
1, 402253, Note_on_c, 1, 79, 127
1, 402418, Note_on_c, 1, 81, 127
1, 402581, Note_off_c, 1, 52, 0
1, 402581, Note_off_c, 1, 81, 0
1, 402583, Note_on_c, 1, 83, 127
1, 402583, Note_on_c, 1, 50, 127
1, 402746, Note_off_c, 1, 83, 0
1, 402748, Note_on_c, 1, 84, 127
1, 402911, Note_off_c, 1, 50, 0
1, 402911, Note_off_c, 1, 84, 0
1, 402913, Note_on_c, 1, 48, 127
1, 403241, Note_off_c, 1, 79, 0
1, 403241, Note_off_c, 1, 48, 0
1, 403243, Note_on_c, 1, 78, 127
1, 403243, Note_on_c, 1, 45, 127
1, 403406, Note_off_c, 1, 78, 0
1, 403408, Note_on_c, 1, 76, 127
1, 403571, Note_off_c, 1, 45, 0
1, 403571, Note_off_c, 1, 76, 0
1, 403573, Note_on_c, 1, 74, 127
1, 403573, Note_on_c, 1, 50, 127
1, 403573, Note_on_c, 1, 78, 127
1, 403736, Note_off_c, 1, 74, 0
1, 403738, Note_on_c, 1, 76, 127
1, 403901, Note_off_c, 1, 50, 0
1, 403901, Note_off_c, 1, 76, 0
1, 403903, Note_on_c, 1, 38, 127
1, 404068, Note_on_c, 1, 72, 127
1, 404226, Note_off_c, 1, 78, 0
1, 404231, Note_off_c, 1, 38, 0
1, 404231, Note_off_c, 1, 72, 0
1, 404233, Note_on_c, 1, 79, 127
1, 404233, Note_on_c, 1, 43, 127
1, 404233, Note_on_c, 1, 71, 127
1, 404396, Note_off_c, 1, 79, 0
1, 404398, Note_on_c, 1, 81, 127
1, 404561, Note_off_c, 1, 81, 0
1, 404563, Note_on_c, 1, 83, 127
1, 404726, Note_off_c, 1, 83, 0
1, 405221, Note_off_c, 1, 43, 0
1, 405223, Note_on_c, 1, 77, 127
1, 405223, Note_on_c, 1, 55, 127
1, 405386, Note_off_c, 1, 77, 0
1, 405551, Note_off_c, 1, 71, 0
1, 405551, Note_off_c, 1, 55, 0
1, 405553, Note_on_c, 1, 60, 127
1, 405553, Note_on_c, 1, 76, 127
1, 405553, Note_on_c, 1, 72, 127
1, 405716, Note_off_c, 1, 60, 0
1, 405718, Note_on_c, 1, 62, 127
1, 405881, Note_off_c, 1, 76, 0
1, 405881, Note_off_c, 1, 62, 0
1, 405883, Note_on_c, 1, 64, 127
1, 405883, Note_on_c, 1, 79, 127
1, 406046, Note_off_c, 1, 64, 0
1, 406046, Note_off_c, 1, 79, 0
1, 406048, Note_on_c, 1, 77, 127
1, 406211, Note_off_c, 1, 77, 0
1, 406543, Note_on_c, 1, 59, 127
1, 406543, Note_on_c, 1, 74, 127
1, 406706, Note_off_c, 1, 59, 0
1, 406706, Note_off_c, 1, 74, 0
1, 406871, Note_off_c, 1, 72, 0
1, 406873, Note_on_c, 1, 57, 127
1, 407381, Note_off_c, 1, 57, 0
1, 408743, Note_on_c, 1, 65, 127
1, 408911, Note_off_c, 1, 65, 0
1, 408913, Note_on_c, 1, 67, 127
1, 409250, Note_off_c, 1, 67, 0
1, 409252, Note_on_c, 1, 76, 127
1, 409252, Note_on_c, 1, 71, 127
1, 409252, Note_on_c, 1, 55, 127
1, 409420, Note_off_c, 1, 76, 0
1, 409422, Note_on_c, 1, 74, 127
1, 409588, Note_off_c, 1, 71, 0
1, 409590, Note_off_c, 1, 55, 0
1, 409590, Note_off_c, 1, 74, 0
1, 409592, Note_on_c, 1, 72, 127
1, 409592, Note_on_c, 1, 57, 127
1, 409769, Note_on_c, 1, 69, 127
1, 409943, Note_off_c, 1, 72, 0
1, 409945, Note_off_c, 1, 57, 0
1, 409945, Note_off_c, 1, 69, 0
1, 409947, Note_on_c, 1, 67, 127
1, 409947, Note_on_c, 1, 74, 127
1, 409947, Note_on_c, 1, 59, 127
1, 410122, Note_off_c, 1, 67, 0
1, 410124, Note_on_c, 1, 65, 127
1, 410298, Note_off_c, 1, 74, 0
1, 410300, Note_off_c, 1, 59, 0
1, 410300, Note_off_c, 1, 65, 0
1, 410302, Note_on_c, 1, 67, 127
1, 410302, Note_on_c, 1, 64, 127
1, 410302, Note_on_c, 1, 60, 127
1, 410477, Note_off_c, 1, 67, 0
1, 410479, Note_on_c, 1, 72, 127
1, 410653, Note_off_c, 1, 64, 0
1, 410655, Note_off_c, 1, 60, 0
1, 410655, Note_off_c, 1, 72, 0
1, 410657, Note_on_c, 1, 69, 127
1, 410657, Note_on_c, 1, 55, 127
1, 410657, Note_on_c, 1, 52, 127
1, 410773, Note_off_c, 1, 69, 0
1, 410775, Note_on_c, 1, 71, 127
1, 410891, Note_off_c, 1, 71, 0
1, 410893, Note_on_c, 1, 72, 127
1, 411009, Note_off_c, 1, 55, 0
1, 411009, Note_off_c, 1, 52, 0
1, 411009, Note_off_c, 1, 72, 0
1, 411011, Note_on_c, 1, 71, 127
1, 411011, Note_on_c, 1, 57, 127
1, 411011, Note_on_c, 1, 53, 127
1, 411127, Note_off_c, 1, 71, 0
1, 411129, Note_on_c, 1, 72, 127
1, 411245, Note_off_c, 1, 72, 0
1, 411247, Note_on_c, 1, 74, 127
1, 411363, Note_off_c, 1, 57, 0
1, 411363, Note_off_c, 1, 53, 0
1, 411363, Note_off_c, 1, 74, 0
1, 411365, Note_on_c, 1, 72, 127
1, 411365, Note_on_c, 1, 55, 127
1, 411365, Note_on_c, 1, 59, 127
1, 411481, Note_off_c, 1, 72, 0
1, 411483, Note_on_c, 1, 74, 127
1, 411599, Note_off_c, 1, 74, 0
1, 411601, Note_on_c, 1, 76, 127
1, 411717, Note_off_c, 1, 55, 0
1, 411717, Note_off_c, 1, 59, 0
1, 411717, Note_off_c, 1, 76, 0
1, 411719, Note_on_c, 1, 74, 127
1, 411719, Note_on_c, 1, 57, 127
1, 411719, Note_on_c, 1, 60, 127
1, 411835, Note_off_c, 1, 74, 0
1, 411837, Note_on_c, 1, 76, 127
1, 411953, Note_off_c, 1, 76, 0
1, 411955, Note_on_c, 1, 77, 127
1, 412071, Note_off_c, 1, 57, 0
1, 412071, Note_off_c, 1, 60, 0
1, 412071, Note_off_c, 1, 77, 0
1, 412073, Note_on_c, 1, 76, 127
1, 412073, Note_on_c, 1, 62, 127
1, 412073, Note_on_c, 1, 59, 127
1, 412189, Note_off_c, 1, 76, 0
1, 412191, Note_on_c, 1, 77, 127
1, 412307, Note_off_c, 1, 77, 0
1, 412309, Note_on_c, 1, 79, 127
1, 412425, Note_off_c, 1, 62, 0
1, 412425, Note_off_c, 1, 59, 0
1, 412425, Note_off_c, 1, 79, 0
1, 412427, Note_on_c, 1, 77, 127
1, 412427, Note_on_c, 1, 64, 127
1, 412427, Note_on_c, 1, 60, 127
1, 412543, Note_off_c, 1, 77, 0
1, 412545, Note_on_c, 1, 79, 127
1, 412661, Note_off_c, 1, 79, 0
1, 412663, Note_on_c, 1, 81, 127
1, 412779, Note_off_c, 1, 64, 0
1, 412779, Note_off_c, 1, 60, 0
1, 412779, Note_off_c, 1, 81, 0
1, 412781, Note_on_c, 1, 79, 127
1, 412781, Note_on_c, 1, 65, 127
1, 412781, Note_on_c, 1, 62, 127
1, 412897, Note_off_c, 1, 79, 0
1, 412899, Note_on_c, 1, 81, 127
1, 413015, Note_off_c, 1, 81, 0
1, 413017, Note_on_c, 1, 77, 127
1, 413133, Note_off_c, 1, 65, 0
1, 413133, Note_off_c, 1, 62, 0
1, 413133, Note_off_c, 1, 77, 0
1, 413135, Note_on_c, 1, 76, 127
1, 413135, Note_on_c, 1, 60, 127
1, 413312, Note_on_c, 1, 57, 127
1, 413312, Note_on_c, 1, 72, 127
1, 413487, Note_off_c, 1, 57, 0
1, 413487, Note_off_c, 1, 72, 0
1, 413489, Note_on_c, 1, 55, 127
1, 413489, Note_on_c, 1, 71, 127
1, 413664, Note_off_c, 1, 55, 0
1, 413664, Note_off_c, 1, 71, 0
1, 413666, Note_on_c, 1, 53, 127
1, 413666, Note_on_c, 1, 69, 127
1, 413841, Note_off_c, 1, 53, 0
1, 413841, Note_off_c, 1, 69, 0
1, 413843, Note_on_c, 1, 67, 127
1, 413843, Note_on_c, 1, 52, 127
1, 414194, Note_off_c, 1, 67, 0
1, 414196, Note_off_c, 1, 76, 0
1, 414196, Note_off_c, 1, 60, 0
1, 414196, Note_off_c, 1, 52, 0
1, 414198, Note_on_c, 1, 65, 127
1, 414198, Note_on_c, 1, 74, 127
1, 414198, Note_on_c, 1, 53, 127
1, 414198, Note_on_c, 1, 69, 127
1, 414373, Note_off_c, 1, 65, 0
1, 414373, Note_off_c, 1, 74, 0
1, 414375, Note_on_c, 1, 64, 127
1, 414375, Note_on_c, 1, 72, 127
1, 414549, Note_off_c, 1, 53, 0
1, 414549, Note_off_c, 1, 69, 0
1, 414551, Note_off_c, 1, 64, 0
1, 414551, Note_off_c, 1, 72, 0
1, 414553, Note_on_c, 1, 55, 127
1, 414553, Note_on_c, 1, 62, 127
1, 414553, Note_on_c, 1, 71, 127
1, 414730, Note_on_c, 1, 69, 127
1, 414905, Note_off_c, 1, 55, 0
1, 414905, Note_off_c, 1, 69, 0
1, 414907, Note_on_c, 1, 67, 127
1, 414907, Note_on_c, 1, 43, 127
1, 415082, Note_off_c, 1, 67, 0
1, 415084, Note_on_c, 1, 65, 127
1, 415254, Note_off_c, 1, 62, 0
1, 415254, Note_off_c, 1, 71, 0
1, 415260, Note_off_c, 1, 43, 0
1, 415260, Note_off_c, 1, 65, 0
1, 415278, Note_on_c, 1, 48, 127
1, 415278, Note_on_c, 1, 64, 127
1, 415470, Note_on_c, 1, 67, 127
1, 415660, Note_off_c, 1, 67, 0
1, 415662, Note_on_c, 1, 69, 127
1, 415852, Note_off_c, 1, 69, 0
1, 415854, Note_on_c, 1, 71, 127
1, 416044, Note_off_c, 1, 71, 0
1, 416046, Note_on_c, 1, 72, 127
1, 416245, Note_on_c, 1, 40, 127
1, 416274, Note_off_c, 1, 48, 0
1, 416469, Note_off_c, 1, 40, 0
1, 416478, Note_off_c, 1, 64, 0
1, 416478, Note_off_c, 1, 72, 0
1, 416498, Note_on_c, 1, 41, 127
1, 416498, Note_on_c, 1, 71, 127
1, 416498, Note_on_c, 1, 62, 127
1, 416498, Note_on_c, 1, 67, 127
1, 416722, Note_off_c, 1, 41, 0
1, 416767, Note_on_c, 1, 43, 127
1, 416959, Note_off_c, 1, 71, 0
1, 416959, Note_off_c, 1, 62, 0
1, 416959, Note_off_c, 1, 67, 0
1, 417009, Note_off_c, 1, 43, 0
1, 417038, Note_on_c, 1, 36, 127
1, 417038, Note_on_c, 1, 64, 127
1, 417038, Note_on_c, 1, 72, 127
1, 417038, Note_on_c, 1, 67, 127
1, 418772, Note_off_c, 1, 36, 0
1, 418772, Note_off_c, 1, 64, 0
1, 418772, Note_off_c, 1, 72, 0
1, 418772, Note_off_c, 1, 67, 0
1, 418772, End_track
0, 0, End_of_file