0, 0, Header, 1, 1, 480
1, 0, Start_track
1, 0, Title_t, "Test"
1, 0, Tempo, 500000
1, 0, Instrument_name_t, "Church Organ"
1, 137, Note_on_c, 1, 64, 127
1, 305, Note_off_c, 1, 64, 0
1, 307, Note_on_c, 1, 68, 127
1, 475, Note_off_c, 1, 68, 0
1, 477, Note_on_c, 1, 64, 127
1, 645, Note_off_c, 1, 64, 0
1, 647, Note_on_c, 1, 71, 127
1, 815, Note_off_c, 1, 71, 0
1, 817, Note_on_c, 1, 59, 127
1, 985, Note_off_c, 1, 59, 0
1, 987, Note_on_c, 1, 63, 127
1, 1155, Note_off_c, 1, 63, 0
1, 1157, Note_on_c, 1, 59, 127
1, 1325, Note_off_c, 1, 59, 0
1, 1327, Note_on_c, 1, 64, 127
1, 1664, Note_off_c, 1, 64, 0
1, 1666, Note_on_c, 1, 64, 127
1, 2003, Note_off_c, 1, 64, 0
1, 2005, Note_on_c, 1, 64, 127
1, 2342, Note_off_c, 1, 64, 0
1, 2344, Note_on_c, 1, 64, 127
1, 2681, Note_off_c, 1, 64, 0
1, 2683, Note_on_c, 1, 66, 127
1, 3020, Note_off_c, 1, 66, 0
1, 3022, Note_on_c, 1, 69, 127
1, 3190, Note_off_c, 1, 69, 0
1, 3192, Note_on_c, 1, 68, 127
1, 3360, Note_off_c, 1, 68, 0
1, 3362, Note_on_c, 1, 66, 127
1, 3699, Note_off_c, 1, 66, 0
1, 3701, Note_on_c, 1, 71, 127
1, 3869, Note_off_c, 1, 71, 0
1, 3871, Note_on_c, 1, 69, 127
1, 4039, Note_off_c, 1, 69, 0
1, 4041, Note_on_c, 1, 68, 127
1, 4378, Note_off_c, 1, 68, 0
1, 4380, Note_on_c, 1, 71, 127
1, 4548, Note_off_c, 1, 71, 0
1, 4550, Note_on_c, 1, 69, 127
1, 4718, Note_off_c, 1, 69, 0
1, 4720, Note_on_c, 1, 68, 127
1, 5057, Note_off_c, 1, 68, 0
1, 5059, Note_on_c, 1, 73, 127
1, 5227, Note_off_c, 1, 73, 0
1, 5229, Note_on_c, 1, 71, 127
1, 5397, Note_off_c, 1, 71, 0
1, 5399, Note_on_c, 1, 70, 127
1, 5567, Note_off_c, 1, 70, 0
1, 5569, Note_on_c, 1, 68, 127
1, 5737, Note_off_c, 1, 68, 0
1, 5739, Note_on_c, 1, 70, 127
1, 5907, Note_off_c, 1, 70, 0
1, 5909, Note_on_c, 1, 66, 127
1, 6077, Note_off_c, 1, 66, 0
1, 6079, Note_on_c, 1, 71, 127
1, 6416, Note_off_c, 1, 71, 0
1, 6418, Note_on_c, 1, 80, 127
1, 6755, Note_off_c, 1, 80, 0
1, 6757, Note_on_c, 1, 70, 127
1, 7209, Note_on_c, 1, 71, 127
1, 7234, Note_off_c, 1, 70, 0
1, 7423, Note_off_c, 1, 71, 0
1, 7435, Note_on_c, 1, 73, 127
1, 7502, Note_on_c, 1, 71, 127
1, 7504, Note_off_c, 1, 73, 0
1, 7571, Note_off_c, 1, 71, 0
1, 7774, Note_on_c, 1, 71, 127
1, 7942, Note_off_c, 1, 71, 0
1, 7944, Note_on_c, 1, 70, 127
1, 8112, Note_off_c, 1, 70, 0
1, 8114, Note_on_c, 1, 71, 127
1, 8283, Note_on_c, 1, 59, 127
1, 8451, Note_off_c, 1, 59, 0
1, 8453, Note_on_c, 1, 63, 127
1, 8621, Note_off_c, 1, 71, 0
1, 8621, Note_off_c, 1, 63, 0
1, 8623, Note_on_c, 1, 69, 127
1, 8623, Note_on_c, 1, 59, 127
1, 8791, Note_off_c, 1, 69, 0
1, 8791, Note_off_c, 1, 59, 0
1, 8793, Note_on_c, 1, 64, 127
1, 8793, Note_on_c, 1, 68, 127
1, 8961, Note_off_c, 1, 64, 0
1, 8963, Note_on_c, 1, 52, 127
1, 9131, Note_off_c, 1, 68, 0
1, 9131, Note_off_c, 1, 52, 0
1, 9133, Note_on_c, 1, 56, 127
1, 9133, Note_on_c, 1, 76, 127
1, 9301, Note_off_c, 1, 56, 0
1, 9303, Note_on_c, 1, 52, 127
1, 9471, Note_off_c, 1, 52, 0
1, 9473, Note_on_c, 1, 59, 127
1, 9810, Note_off_c, 1, 76, 0
1, 9810, Note_off_c, 1, 59, 0
1, 9812, Note_on_c, 1, 78, 127
1, 9812, Note_on_c, 1, 59, 127
1, 9980, Note_off_c, 1, 78, 0
1, 9982, Note_on_c, 1, 76, 127
1, 10150, Note_off_c, 1, 59, 0
1, 10150, Note_off_c, 1, 76, 0
1, 10152, Note_on_c, 1, 75, 127
1, 10152, Note_on_c, 1, 59, 127
1, 10320, Note_off_c, 1, 75, 0
1, 10322, Note_on_c, 1, 76, 127
1, 10490, Note_off_c, 1, 59, 0
1, 10490, Note_off_c, 1, 76, 0
1, 10492, Note_on_c, 1, 73, 127
1, 10492, Note_on_c, 1, 59, 127
1, 10660, Note_off_c, 1, 73, 0
1, 10662, Note_on_c, 1, 75, 127
1, 10830, Note_off_c, 1, 59, 0
1, 10830, Note_off_c, 1, 75, 0
1, 10832, Note_on_c, 1, 76, 127
1, 10832, Note_on_c, 1, 61, 127
1, 11169, Note_off_c, 1, 76, 0
1, 11169, Note_off_c, 1, 61, 0
1, 11171, Note_on_c, 1, 64, 127
1, 11171, Note_on_c, 1, 70, 127
1, 11339, Note_off_c, 1, 64, 0
1, 11341, Note_on_c, 1, 63, 127
1, 11509, Note_off_c, 1, 70, 0
1, 11509, Note_off_c, 1, 63, 0
1, 11511, Note_on_c, 1, 61, 127
1, 11511, Note_on_c, 1, 70, 127
1, 11848, Note_off_c, 1, 61, 0
1, 11850, Note_on_c, 1, 66, 127
1, 12018, Note_off_c, 1, 70, 0
1, 12018, Note_off_c, 1, 66, 0
1, 12020, Note_on_c, 1, 70, 127
1, 12020, Note_on_c, 1, 64, 127
1, 12188, Note_off_c, 1, 70, 0
1, 12188, Note_off_c, 1, 64, 0
1, 12190, Note_on_c, 1, 63, 127
1, 12190, Note_on_c, 1, 71, 127
1, 12527, Note_off_c, 1, 63, 0
1, 12529, Note_on_c, 1, 66, 127
1, 12697, Note_off_c, 1, 66, 0
1, 12699, Note_on_c, 1, 64, 127
1, 12867, Note_off_c, 1, 64, 0
1, 13038, Note_off_c, 1, 71, 0
1, 13208, Note_on_c, 1, 68, 127
1, 13208, Note_on_c, 1, 76, 127
1, 13376, Note_off_c, 1, 68, 0
1, 13378, Note_on_c, 1, 64, 127
1, 13546, Note_off_c, 1, 76, 0
1, 13546, Note_off_c, 1, 64, 0
1, 13548, Note_on_c, 1, 63, 127
1, 13548, Note_on_c, 1, 78, 127
1, 13716, Note_off_c, 1, 63, 0
1, 13718, Note_on_c, 1, 61, 127
1, 13886, Note_off_c, 1, 78, 0
1, 13886, Note_off_c, 1, 61, 0
1, 13888, Note_on_c, 1, 80, 127
1, 13888, Note_on_c, 1, 63, 127
1, 14056, Note_off_c, 1, 80, 0
1, 14056, Note_off_c, 1, 63, 0
1, 14058, Note_on_c, 1, 81, 127
1, 14058, Note_on_c, 1, 59, 127
1, 14226, Note_off_c, 1, 81, 0
1, 14226, Note_off_c, 1, 59, 0
1, 14228, Note_on_c, 1, 80, 127
1, 14228, Note_on_c, 1, 64, 127
1, 14565, Note_off_c, 1, 80, 0
1, 14565, Note_off_c, 1, 64, 0
1, 14567, Note_on_c, 1, 78, 127
1, 14567, Note_on_c, 1, 73, 127
1, 14735, Note_off_c, 1, 78, 0
1, 14737, Note_on_c, 1, 76, 127
1, 14905, Note_off_c, 1, 73, 0
1, 14905, Note_off_c, 1, 76, 0
1, 14907, Note_on_c, 1, 78, 127
1, 14907, Note_on_c, 1, 63, 127
1, 15075, Note_off_c, 1, 78, 0
1, 15077, Note_on_c, 1, 83, 127
1, 15245, Note_off_c, 1, 63, 0
1, 15245, Note_off_c, 1, 83, 0
1, 15247, Note_on_c, 1, 80, 127
1, 15247, Note_on_c, 1, 64, 127
1, 15415, Note_off_c, 1, 80, 0
1, 15417, Note_on_c, 1, 76, 127
1, 15585, Note_off_c, 1, 64, 0
1, 15585, Note_off_c, 1, 76, 0
1, 15587, Note_on_c, 1, 80, 127
1, 15587, Note_on_c, 1, 64, 127
1, 15675, Note_on_c, 1, 78, 127
1, 15682, Note_off_c, 1, 80, 0
1, 15744, Note_off_c, 1, 78, 0
1, 16094, Note_off_c, 1, 64, 0
1, 16096, Note_on_c, 1, 76, 127
1, 16096, Note_on_c, 1, 63, 127
1, 16264, Note_off_c, 1, 76, 0
1, 16264, Note_off_c, 1, 63, 0
1, 16266, Note_on_c, 1, 64, 127
1, 16266, Note_on_c, 1, 76, 127
1, 16603, Note_off_c, 1, 64, 0
1, 16605, Note_on_c, 1, 73, 127
1, 16773, Note_off_c, 1, 76, 0
1, 16775, Note_on_c, 1, 78, 127
1, 16943, Note_off_c, 1, 78, 0
1, 16945, Note_on_c, 1, 75, 127
1, 17282, Note_off_c, 1, 73, 0
1, 17284, Note_on_c, 1, 72, 127
1, 17452, Note_off_c, 1, 75, 0
1, 17622, Note_off_c, 1, 72, 0
1, 17624, Note_on_c, 1, 76, 127
1, 17624, Note_on_c, 1, 73, 127
1, 17792, Note_off_c, 1, 76, 0
1, 17794, Note_on_c, 1, 78, 127
1, 17962, Note_off_c, 1, 73, 0
1, 17962, Note_off_c, 1, 78, 0
1, 17964, Note_on_c, 1, 71, 127
1, 17964, Note_on_c, 1, 80, 127
1, 18132, Note_off_c, 1, 71, 0
1, 18134, Note_on_c, 1, 73, 127
1, 18302, Note_off_c, 1, 80, 0
1, 18302, Note_off_c, 1, 73, 0
1, 18304, Note_on_c, 1, 78, 127
1, 18304, Note_on_c, 1, 75, 127
1, 18472, Note_off_c, 1, 78, 0
1, 18474, Note_on_c, 1, 80, 127
1, 18642, Note_off_c, 1, 75, 0
1, 18642, Note_off_c, 1, 80, 0
1, 18644, Note_on_c, 1, 78, 127
1, 18644, Note_on_c, 1, 70, 127
1, 18812, Note_off_c, 1, 78, 0
1, 18814, Note_on_c, 1, 76, 127
1, 18982, Note_off_c, 1, 70, 0
1, 18982, Note_off_c, 1, 76, 0
1, 18984, Note_on_c, 1, 71, 127
1, 18984, Note_on_c, 1, 75, 127
1, 19152, Note_off_c, 1, 71, 0
1, 19154, Note_on_c, 1, 66, 127
1, 19322, Note_off_c, 1, 75, 0
1, 19322, Note_off_c, 1, 66, 0
1, 19324, Note_on_c, 1, 76, 127
1, 19324, Note_on_c, 1, 68, 127
1, 19492, Note_off_c, 1, 76, 0
1, 19494, Note_on_c, 1, 71, 127
1, 19662, Note_off_c, 1, 68, 0
1, 19662, Note_off_c, 1, 71, 0
1, 19664, Note_on_c, 1, 73, 127
1, 19664, Note_on_c, 1, 69, 127
1, 19832, Note_off_c, 1, 73, 0
1, 19834, Note_on_c, 1, 78, 127
1, 20002, Note_off_c, 1, 69, 0
1, 20002, Note_off_c, 1, 78, 0
1, 20004, Note_on_c, 1, 71, 127
1, 20004, Note_on_c, 1, 68, 127
1, 20172, Note_off_c, 1, 71, 0
1, 20174, Note_on_c, 1, 76, 127
1, 20342, Note_off_c, 1, 68, 0
1, 20342, Note_off_c, 1, 76, 0
1, 20344, Note_on_c, 1, 69, 127
1, 20344, Note_on_c, 1, 66, 127
1, 20512, Note_off_c, 1, 69, 0
1, 20514, Note_on_c, 1, 75, 127
1, 20682, Note_off_c, 1, 66, 0
1, 20682, Note_off_c, 1, 75, 0
1, 20684, Note_on_c, 1, 68, 127
1, 20684, Note_on_c, 1, 64, 127
1, 20852, Note_off_c, 1, 68, 0
1, 20854, Note_on_c, 1, 73, 127
1, 21022, Note_off_c, 1, 64, 0
1, 21022, Note_off_c, 1, 73, 0
1, 21024, Note_on_c, 1, 66, 127
1, 21024, Note_on_c, 1, 63, 127
1, 21192, Note_off_c, 1, 66, 0
1, 21194, Note_on_c, 1, 71, 127
1, 21362, Note_off_c, 1, 63, 0
1, 21362, Note_off_c, 1, 71, 0
1, 21364, Note_on_c, 1, 64, 127
1, 21364, Note_on_c, 1, 61, 127
1, 21532, Note_off_c, 1, 64, 0
1, 21534, Note_on_c, 1, 69, 127
1, 21702, Note_off_c, 1, 61, 0
1, 21702, Note_off_c, 1, 69, 0
1, 21704, Note_on_c, 1, 63, 127
1, 21704, Note_on_c, 1, 59, 127
1, 21872, Note_off_c, 1, 63, 0
1, 21874, Note_on_c, 1, 69, 127
1, 22042, Note_off_c, 1, 59, 0
1, 22042, Note_off_c, 1, 69, 0
1, 22044, Note_on_c, 1, 68, 127
1, 22044, Note_on_c, 1, 64, 127
1, 22212, Note_off_c, 1, 68, 0
1, 22214, Note_on_c, 1, 69, 127
1, 22297, Note_off_c, 1, 69, 0
1, 22299, Note_on_c, 1, 71, 127
1, 22382, Note_off_c, 1, 71, 0
1, 22455, Note_on_c, 1, 66, 127
1, 22524, Note_off_c, 1, 66, 0
1, 22891, Note_off_c, 1, 64, 0
1, 22893, Note_on_c, 1, 68, 127
1, 22893, Note_on_c, 1, 63, 127
1, 23061, Note_off_c, 1, 68, 0
1, 23061, Note_off_c, 1, 63, 0
1, 23063, Note_on_c, 1, 64, 127
1, 23063, Note_on_c, 1, 68, 127
1, 23231, Note_off_c, 1, 64, 0
1, 23233, Note_on_c, 1, 52, 127
1, 23401, Note_off_c, 1, 68, 0
1, 23401, Note_off_c, 1, 52, 0
1, 23403, Note_on_c, 1, 71, 127
1, 23403, Note_on_c, 1, 56, 127
1, 23571, Note_off_c, 1, 71, 0
1, 23571, Note_off_c, 1, 56, 0
1, 23573, Note_on_c, 1, 68, 127
1, 23573, Note_on_c, 1, 52, 127
1, 23741, Note_off_c, 1, 68, 0
1, 23741, Note_off_c, 1, 52, 0
1, 23743, Note_on_c, 1, 59, 127
1, 23743, Note_on_c, 1, 66, 127
1, 23911, Note_off_c, 1, 59, 0
1, 23913, Note_on_c, 1, 47, 127
1, 24081, Note_off_c, 1, 66, 0
1, 24081, Note_off_c, 1, 47, 0
1, 24083, Note_on_c, 1, 51, 127
1, 24083, Note_on_c, 1, 71, 127
1, 24083, Note_on_c, 1, 63, 127
1, 24251, Note_off_c, 1, 51, 0
1, 24253, Note_on_c, 1, 47, 127
1, 24421, Note_off_c, 1, 71, 0
1, 24421, Note_off_c, 1, 63, 0
1, 24421, Note_off_c, 1, 47, 0
1, 24423, Note_on_c, 1, 64, 127
1, 24423, Note_on_c, 1, 52, 127
1, 24423, Note_on_c, 1, 68, 127
1, 24760, Note_off_c, 1, 64, 0
1, 24760, Note_off_c, 1, 52, 0
1, 24762, Note_on_c, 1, 76, 127
1, 24930, Note_off_c, 1, 76, 0
1, 24932, Note_on_c, 1, 75, 127
1, 25100, Note_off_c, 1, 75, 0
1, 25102, Note_on_c, 1, 73, 127
1, 25270, Note_off_c, 1, 73, 0
1, 25272, Note_off_c, 1, 68, 0
1, 25442, Note_on_c, 1, 73, 127
1, 25442, Note_on_c, 1, 52, 127
1, 25442, Note_on_c, 1, 80, 127
1, 25610, Note_off_c, 1, 73, 0
1, 25612, Note_on_c, 1, 71, 127
1, 25780, Note_off_c, 1, 52, 0
1, 25780, Note_off_c, 1, 71, 0
1, 25782, Note_on_c, 1, 54, 127
1, 25782, Note_on_c, 1, 69, 127
1, 26119, Note_off_c, 1, 80, 0
1, 26119, Note_off_c, 1, 54, 0
1, 26121, Note_on_c, 1, 78, 127
1, 26121, Note_on_c, 1, 57, 127
1, 26289, Note_off_c, 1, 78, 0
1, 26289, Note_off_c, 1, 57, 0
1, 26291, Note_on_c, 1, 76, 127
1, 26291, Note_on_c, 1, 56, 127
1, 26459, Note_off_c, 1, 76, 0
1, 26459, Note_off_c, 1, 56, 0
1, 26461, Note_on_c, 1, 75, 127
1, 26798, Note_off_c, 1, 69, 0
1, 26800, Note_on_c, 1, 68, 127
1, 26800, Note_on_c, 1, 59, 127
1, 26968, Note_off_c, 1, 68, 0
1, 26968, Note_off_c, 1, 59, 0
1, 26970, Note_on_c, 1, 66, 127
1, 27138, Note_off_c, 1, 66, 0
1, 27477, Note_off_c, 1, 75, 0
1, 28158, Note_on_c, 1, 70, 127
1, 28158, Note_on_c, 1, 61, 127
1, 28326, Note_off_c, 1, 70, 0
1, 28326, Note_off_c, 1, 61, 0
1, 28498, Note_on_c, 1, 78, 127
1, 28498, Note_on_c, 1, 58, 127
1, 28498, Note_on_c, 1, 73, 127
1, 28666, Note_off_c, 1, 78, 0
1, 28666, Note_off_c, 1, 58, 0
1, 28668, Note_on_c, 1, 80, 127
1, 28668, Note_on_c, 1, 56, 127
1, 28836, Note_off_c, 1, 80, 0
1, 28836, Note_off_c, 1, 56, 0
1, 29008, Note_on_c, 1, 76, 127
1, 29008, Note_on_c, 1, 54, 127
1, 29176, Note_off_c, 1, 76, 0
1, 29176, Note_off_c, 1, 54, 0
1, 29178, Note_on_c, 1, 59, 127
1, 29178, Note_on_c, 1, 75, 127
1, 29346, Note_off_c, 1, 73, 0
1, 29516, Note_off_c, 1, 59, 0
1, 29518, Note_on_c, 1, 71, 127
1, 29518, Note_on_c, 1, 68, 127
1, 29686, Note_off_c, 1, 75, 0
1, 29856, Note_off_c, 1, 71, 0
1, 29856, Note_off_c, 1, 68, 0
1, 30198, Note_on_c, 1, 75, 127
1, 30198, Note_on_c, 1, 71, 127
1, 30198, Note_on_c, 1, 59, 127
1, 30366, Note_off_c, 1, 75, 0
1, 30368, Note_on_c, 1, 76, 127
1, 30536, Note_off_c, 1, 71, 0
1, 30536, Note_off_c, 1, 59, 0
1, 30536, Note_off_c, 1, 76, 0
1, 30538, Note_on_c, 1, 59, 127
1, 30538, Note_on_c, 1, 73, 127
1, 30877, Note_on_c, 1, 78, 127
1, 31045, Note_off_c, 1, 59, 0
1, 31045, Note_off_c, 1, 78, 0
1, 31047, Note_on_c, 1, 76, 127
1, 31047, Note_on_c, 1, 58, 127
1, 31215, Note_off_c, 1, 76, 0
1, 31215, Note_off_c, 1, 58, 0
1, 31217, Note_on_c, 1, 75, 127
1, 31385, Note_off_c, 1, 73, 0
1, 31387, Note_on_c, 1, 66, 127
1, 31555, Note_off_c, 1, 66, 0
1, 31557, Note_on_c, 1, 71, 127
1, 31727, Note_on_c, 1, 61, 127
1, 31895, Note_off_c, 1, 61, 0
1, 31897, Note_on_c, 1, 63, 127
1, 32065, Note_off_c, 1, 71, 0
1, 32065, Note_off_c, 1, 63, 0
1, 32407, Note_on_c, 1, 68, 127
1, 32407, Note_on_c, 1, 64, 127
1, 32575, Note_off_c, 1, 75, 0
1, 32575, Note_off_c, 1, 68, 0
1, 32575, Note_off_c, 1, 64, 0
1, 32577, Note_on_c, 1, 69, 127
1, 32577, Note_on_c, 1, 66, 127
1, 32916, Note_on_c, 1, 73, 127
1, 33084, Note_off_c, 1, 73, 0
1, 33086, Note_on_c, 1, 75, 127
1, 33254, Note_off_c, 1, 69, 0
1, 33254, Note_off_c, 1, 66, 0
1, 33254, Note_off_c, 1, 75, 0
1, 33256, Note_on_c, 1, 76, 127
1, 33256, Note_on_c, 1, 71, 127
1, 33256, Note_on_c, 1, 68, 127
1, 33424, Note_off_c, 1, 76, 0
1, 33426, Note_on_c, 1, 78, 127
1, 33594, Note_off_c, 1, 71, 0
1, 33594, Note_off_c, 1, 68, 0
1, 33594, Note_off_c, 1, 78, 0
1, 33596, Note_on_c, 1, 80, 127
1, 33596, Note_on_c, 1, 66, 127
1, 33596, Note_on_c, 1, 74, 127
1, 33764, Note_off_c, 1, 80, 0
1, 33766, Note_on_c, 1, 81, 127
1, 33934, Note_off_c, 1, 66, 0
1, 33934, Note_off_c, 1, 81, 0
1, 33936, Note_on_c, 1, 83, 127
1, 33936, Note_on_c, 1, 65, 127
1, 34104, Note_off_c, 1, 74, 0
1, 34106, Note_on_c, 1, 73, 127
1, 34274, Note_off_c, 1, 83, 0
1, 34274, Note_off_c, 1, 65, 0
1, 34614, Note_off_c, 1, 73, 0
1, 34616, Note_on_c, 1, 71, 127
1, 34786, Note_on_c, 1, 78, 127
1, 34954, Note_off_c, 1, 78, 0
1, 34956, Note_on_c, 1, 64, 127
1, 35294, Note_off_c, 1, 71, 0
1, 35296, Note_on_c, 1, 70, 127
1, 35466, Note_on_c, 1, 76, 127
1, 35634, Note_off_c, 1, 64, 0
1, 35634, Note_off_c, 1, 70, 0
1, 35634, Note_off_c, 1, 76, 0
1, 35636, Note_on_c, 1, 78, 127
1, 35636, Note_on_c, 1, 63, 127
1, 35636, Note_on_c, 1, 71, 127
1, 35804, Note_off_c, 1, 78, 0
1, 35806, Note_on_c, 1, 80, 127
1, 35974, Note_off_c, 1, 63, 0
1, 35974, Note_off_c, 1, 80, 0
1, 35976, Note_on_c, 1, 76, 127
1, 35976, Note_on_c, 1, 61, 127
1, 36144, Note_off_c, 1, 76, 0
1, 36146, Note_on_c, 1, 75, 127
1, 36314, Note_off_c, 1, 71, 0
1, 36314, Note_off_c, 1, 61, 0
1, 36314, Note_off_c, 1, 75, 0
1, 36316, Note_on_c, 1, 76, 127
1, 36316, Note_on_c, 1, 70, 127
1, 36316, Note_on_c, 1, 66, 127
1, 36484, Note_off_c, 1, 76, 0
1, 36486, Note_on_c, 1, 78, 127
1, 36654, Note_off_c, 1, 70, 0
1, 36654, Note_off_c, 1, 66, 0
1, 36654, Note_off_c, 1, 78, 0
1, 36656, Note_on_c, 1, 59, 127
1, 36656, Note_on_c, 1, 75, 127
1, 36656, Note_on_c, 1, 71, 127
1, 36824, Note_off_c, 1, 59, 0
1, 36826, Note_on_c, 1, 47, 127
1, 36994, Note_off_c, 1, 47, 0
1, 36996, Note_on_c, 1, 51, 127
1, 37151, Note_off_c, 1, 75, 0
1, 37151, Note_off_c, 1, 71, 0
1, 37163, Note_off_c, 1, 51, 0
1, 37165, Note_on_c, 1, 47, 127
1, 37333, Note_off_c, 1, 47, 0
1, 37335, Note_on_c, 1, 52, 127
1, 37503, Note_off_c, 1, 52, 0
1, 37505, Note_on_c, 1, 64, 127
1, 37505, Note_on_c, 1, 40, 127
1, 37673, Note_off_c, 1, 64, 0
1, 37673, Note_off_c, 1, 40, 0
1, 37675, Note_on_c, 1, 64, 127
1, 37675, Note_on_c, 1, 44, 127
1, 37843, Note_off_c, 1, 64, 0
1, 37843, Note_off_c, 1, 44, 0
1, 37845, Note_on_c, 1, 64, 127
1, 37845, Note_on_c, 1, 40, 127
1, 38013, Note_off_c, 1, 64, 0
1, 38013, Note_off_c, 1, 40, 0
1, 38015, Note_on_c, 1, 64, 127
1, 38015, Note_on_c, 1, 47, 127
1, 38183, Note_off_c, 1, 64, 0
1, 38353, Note_off_c, 1, 47, 0
1, 38355, Note_on_c, 1, 64, 127
1, 38355, Note_on_c, 1, 47, 127
1, 38523, Note_off_c, 1, 64, 0
1, 38693, Note_off_c, 1, 47, 0
1, 38695, Note_on_c, 1, 66, 127
1, 38695, Note_on_c, 1, 47, 127
1, 38751, Note_off_c, 1, 66, 0
1, 38751, Note_on_c, 1, 64, 127
1, 38807, Note_off_c, 1, 64, 0
1, 39030, Note_off_c, 1, 47, 0
1, 39201, Note_on_c, 1, 63, 127
1, 39369, Note_off_c, 1, 63, 0
1, 39371, Note_on_c, 1, 64, 127
1, 39371, Note_on_c, 1, 49, 127
1, 39539, Note_off_c, 1, 64, 0
1, 39541, Note_on_c, 1, 63, 127
1, 39709, Note_off_c, 1, 49, 0
1, 39709, Note_off_c, 1, 63, 0
1, 39711, Note_on_c, 1, 61, 127
1, 39711, Note_on_c, 1, 52, 127
1, 39879, Note_off_c, 1, 61, 0
1, 39879, Note_off_c, 1, 52, 0
1, 39881, Note_on_c, 1, 63, 127
1, 39881, Note_on_c, 1, 51, 127
1, 40049, Note_off_c, 1, 63, 0
1, 40049, Note_off_c, 1, 51, 0
1, 40051, Note_on_c, 1, 64, 127
1, 40051, Note_on_c, 1, 49, 127
1, 40388, Note_off_c, 1, 64, 0
1, 40388, Note_off_c, 1, 49, 0
1, 40390, Note_on_c, 1, 54, 127
1, 40390, Note_on_c, 1, 61, 127
1, 40558, Note_off_c, 1, 54, 0
1, 40560, Note_on_c, 1, 52, 127
1, 40728, Note_off_c, 1, 61, 0
1, 40728, Note_off_c, 1, 52, 0
1, 40730, Note_on_c, 1, 66, 127
1, 40730, Note_on_c, 1, 51, 127
1, 40898, Note_off_c, 1, 66, 0
1, 40900, Note_on_c, 1, 64, 127
1, 41068, Note_off_c, 1, 51, 0
1, 41068, Note_off_c, 1, 64, 0
1, 41070, Note_on_c, 1, 63, 127
1, 41070, Note_on_c, 1, 54, 127
1, 41238, Note_off_c, 1, 63, 0
1, 41238, Note_off_c, 1, 54, 0
1, 41240, Note_on_c, 1, 64, 127
1, 41240, Note_on_c, 1, 52, 127
1, 41408, Note_off_c, 1, 64, 0
1, 41408, Note_off_c, 1, 52, 0
1, 41410, Note_on_c, 1, 66, 127
1, 41410, Note_on_c, 1, 51, 127
1, 41747, Note_off_c, 1, 66, 0
1, 41747, Note_off_c, 1, 51, 0
1, 41749, Note_on_c, 1, 56, 127
1, 41749, Note_on_c, 1, 59, 127
1, 41917, Note_off_c, 1, 56, 0
1, 41919, Note_on_c, 1, 52, 127
1, 42087, Note_off_c, 1, 52, 0
1, 42089, Note_on_c, 1, 51, 127
1, 42257, Note_off_c, 1, 51, 0
1, 42259, Note_on_c, 1, 49, 127
1, 42427, Note_off_c, 1, 59, 0
1, 42427, Note_off_c, 1, 49, 0
1, 42429, Note_on_c, 1, 71, 127
1, 42429, Note_on_c, 1, 51, 127
1, 42597, Note_off_c, 1, 71, 0
1, 42597, Note_off_c, 1, 51, 0
1, 42599, Note_on_c, 1, 69, 127
1, 42599, Note_on_c, 1, 47, 127
1, 42767, Note_off_c, 1, 69, 0
1, 42767, Note_off_c, 1, 47, 0
1, 42769, Note_on_c, 1, 68, 127
1, 42769, Note_on_c, 1, 52, 127
1, 43106, Note_off_c, 1, 68, 0
1, 43106, Note_off_c, 1, 52, 0
1, 43108, Note_on_c, 1, 66, 127
1, 43108, Note_on_c, 1, 61, 127
1, 43276, Note_off_c, 1, 66, 0
1, 43278, Note_on_c, 1, 64, 127
1, 43446, Note_off_c, 1, 61, 0
1, 43446, Note_off_c, 1, 64, 0
1, 43448, Note_on_c, 1, 73, 127
1, 43448, Note_on_c, 1, 51, 127
1, 43616, Note_off_c, 1, 73, 0
1, 43618, Note_on_c, 1, 71, 127
1, 43786, Note_off_c, 1, 51, 0
1, 43786, Note_off_c, 1, 71, 0
1, 43788, Note_on_c, 1, 69, 127
1, 43788, Note_on_c, 1, 52, 127
1, 43956, Note_off_c, 1, 69, 0
1, 43958, Note_on_c, 1, 68, 127
1, 44126, Note_off_c, 1, 52, 0
1, 44126, Note_off_c, 1, 68, 0
1, 44128, Note_on_c, 1, 66, 127
1, 44128, Note_on_c, 1, 52, 127
1, 44296, Note_off_c, 1, 66, 0
1, 44298, Note_on_c, 1, 68, 127
1, 44466, Note_off_c, 1, 68, 0
1, 44468, Note_on_c, 1, 69, 127
1, 44636, Note_off_c, 1, 52, 0
1, 44636, Note_off_c, 1, 69, 0
1, 44638, Note_on_c, 1, 71, 127
1, 44638, Note_on_c, 1, 51, 127
1, 44806, Note_off_c, 1, 71, 0
1, 44806, Note_off_c, 1, 51, 0
1, 44808, Note_on_c, 1, 68, 127
1, 44808, Note_on_c, 1, 52, 127
1, 44976, Note_off_c, 1, 68, 0
1, 44978, Note_on_c, 1, 64, 127
1, 45146, Note_off_c, 1, 64, 0
1, 45488, Note_on_c, 1, 71, 127
1, 45656, Note_off_c, 1, 71, 0
1, 45658, Note_off_c, 1, 52, 0
1, 45658, Note_on_c, 1, 59, 127
1, 45826, Note_off_c, 1, 59, 0
1, 45828, Note_on_c, 1, 63, 127
1, 45828, Note_on_c, 1, 56, 127
1, 45996, Note_off_c, 1, 63, 0
1, 45998, Note_on_c, 1, 59, 127
1, 46166, Note_off_c, 1, 56, 0
1, 46166, Note_off_c, 1, 59, 0
1, 46168, Note_on_c, 1, 64, 127
1, 46168, Note_on_c, 1, 49, 127
1, 46336, Note_off_c, 1, 64, 0
1, 46338, Note_on_c, 1, 61, 127
1, 46506, Note_off_c, 1, 61, 0
1, 46848, Note_on_c, 1, 70, 127
1, 47017, Note_off_c, 1, 49, 0
1, 47017, Note_on_c, 1, 58, 127
1, 47185, Note_off_c, 1, 58, 0
1, 47187, Note_on_c, 1, 54, 127
1, 47525, Note_off_c, 1, 54, 0
1, 47527, Note_on_c, 1, 63, 127
1, 47527, Note_on_c, 1, 47, 127
1, 47695, Note_off_c, 1, 63, 0
1, 47697, Note_on_c, 1, 59, 127
1, 47865, Note_off_c, 1, 59, 0
1, 48205, Note_off_c, 1, 70, 0
1, 48207, Note_on_c, 1, 68, 127
1, 48376, Note_off_c, 1, 47, 0
1, 48376, Note_on_c, 1, 56, 127
1, 48544, Note_off_c, 1, 56, 0
1, 48546, Note_on_c, 1, 52, 127
1, 48884, Note_off_c, 1, 68, 0
1, 48886, Note_on_c, 1, 66, 127
1, 49224, Note_off_c, 1, 52, 0
1, 49226, Note_on_c, 1, 51, 127
1, 49394, Note_off_c, 1, 66, 0
1, 49564, Note_off_c, 1, 51, 0
1, 50246, Note_on_c, 1, 63, 127
1, 50246, Note_on_c, 1, 59, 127
1, 50246, Note_on_c, 1, 47, 127
1, 50414, Note_off_c, 1, 63, 0
1, 50416, Note_on_c, 1, 71, 127
1, 50584, Note_off_c, 1, 59, 0
1, 50584, Note_off_c, 1, 47, 0
1, 50584, Note_off_c, 1, 71, 0
1, 50586, Note_on_c, 1, 75, 127
1, 50586, Note_on_c, 1, 57, 127
1, 50586, Note_on_c, 1, 54, 127
1, 50754, Note_off_c, 1, 75, 0
1, 50756, Note_on_c, 1, 71, 127
1, 50924, Note_off_c, 1, 57, 0
1, 50924, Note_off_c, 1, 54, 0
1, 50924, Note_off_c, 1, 71, 0
1, 50926, Note_on_c, 1, 76, 127
1, 50926, Note_on_c, 1, 56, 127
1, 50926, Note_on_c, 1, 52, 127
1, 51094, Note_off_c, 1, 76, 0
1, 51096, Note_on_c, 1, 64, 127
1, 51264, Note_off_c, 1, 56, 0
1, 51264, Note_off_c, 1, 52, 0
1, 51264, Note_off_c, 1, 64, 0
1, 51266, Note_on_c, 1, 68, 127
1, 51266, Note_on_c, 1, 56, 127
1, 51266, Note_on_c, 1, 52, 127
1, 51434, Note_off_c, 1, 68, 0
1, 51436, Note_on_c, 1, 64, 127
1, 51584, Note_off_c, 1, 56, 0
1, 51603, Note_off_c, 1, 52, 0
1, 51603, Note_off_c, 1, 64, 0
1, 51605, Note_on_c, 1, 71, 127
1, 51605, Note_on_c, 1, 54, 127
1, 51605, Note_on_c, 1, 47, 127
1, 51774, Note_on_c, 1, 64, 127
1, 51942, Note_off_c, 1, 71, 0
1, 51942, Note_off_c, 1, 64, 0
1, 52793, Note_on_c, 1, 63, 127
1, 52961, Note_off_c, 1, 54, 0
1, 52961, Note_off_c, 1, 47, 0
1, 52961, Note_off_c, 1, 63, 0
1, 52963, Note_on_c, 1, 73, 127
1, 52963, Note_on_c, 1, 64, 127
1, 52963, Note_on_c, 1, 47, 127
1, 52963, Note_on_c, 1, 56, 127
1, 53300, Note_off_c, 1, 73, 0
1, 53302, Note_on_c, 1, 76, 127
1, 53470, Note_off_c, 1, 76, 0
1, 53472, Note_on_c, 1, 75, 127
1, 53640, Note_off_c, 1, 75, 0
1, 53811, Note_off_c, 1, 64, 0
1, 53979, Note_off_c, 1, 47, 0
1, 53979, Note_off_c, 1, 56, 0
1, 53981, Note_on_c, 1, 78, 127
1, 53981, Note_on_c, 1, 66, 127
1, 53981, Note_on_c, 1, 46, 127
1, 53981, Note_on_c, 1, 49, 127
1, 54149, Note_off_c, 1, 78, 0
1, 54151, Note_on_c, 1, 76, 127
1, 54319, Note_off_c, 1, 66, 0
1, 54319, Note_off_c, 1, 46, 0
1, 54319, Note_off_c, 1, 49, 0
1, 54319, Note_off_c, 1, 76, 0
1, 54321, Note_on_c, 1, 75, 127
1, 54321, Note_on_c, 1, 71, 127
1, 54321, Note_on_c, 1, 54, 127
1, 54321, Note_on_c, 1, 47, 127
1, 54658, Note_off_c, 1, 75, 0
1, 54660, Note_on_c, 1, 78, 127
1, 54828, Note_off_c, 1, 78, 0
1, 54830, Note_on_c, 1, 76, 127
1, 54998, Note_off_c, 1, 76, 0
1, 55169, Note_off_c, 1, 71, 0
1, 55337, Note_off_c, 1, 54, 0
1, 55337, Note_off_c, 1, 47, 0
1, 55339, Note_on_c, 1, 80, 127
1, 55339, Note_on_c, 1, 71, 127
1, 55339, Note_on_c, 1, 52, 127
1, 55339, Note_on_c, 1, 44, 127
1, 55507, Note_off_c, 1, 80, 0
1, 55509, Note_on_c, 1, 76, 127
1, 55677, Note_off_c, 1, 71, 0
1, 55677, Note_off_c, 1, 52, 0
1, 55677, Note_off_c, 1, 44, 0
1, 55677, Note_off_c, 1, 76, 0
1, 55679, Note_on_c, 1, 75, 127
1, 55679, Note_on_c, 1, 54, 127
1, 55679, Note_on_c, 1, 71, 127
1, 55679, Note_on_c, 1, 47, 127
1, 55847, Note_off_c, 1, 75, 0
1, 55849, Note_on_c, 1, 73, 127
1, 56017, Note_off_c, 1, 54, 0
1, 56017, Note_off_c, 1, 73, 0
1, 56019, Note_on_c, 1, 57, 127
1, 56174, Note_off_c, 1, 71, 0
1, 56350, Note_off_c, 1, 47, 0
1, 56355, Note_off_c, 1, 57, 0
1, 56357, Note_on_c, 1, 76, 127
1, 56357, Note_on_c, 1, 56, 127
1, 56357, Note_on_c, 1, 49, 127
1, 56694, Note_off_c, 1, 76, 0
1, 56694, Note_off_c, 1, 56, 0
1, 56696, Note_on_c, 1, 81, 127
1, 56866, Note_on_c, 1, 52, 127
1, 57028, Note_off_c, 1, 49, 0
1, 57033, Note_off_c, 1, 52, 0
1, 57035, Note_on_c, 1, 51, 127
1, 57035, Note_on_c, 1, 59, 127
1, 57203, Note_off_c, 1, 81, 0
1, 57205, Note_on_c, 1, 83, 127
1, 57373, Note_off_c, 1, 51, 0
1, 57373, Note_off_c, 1, 83, 0
1, 57375, Note_on_c, 1, 80, 127
1, 57543, Note_off_c, 1, 80, 0
1, 57713, Note_off_c, 1, 59, 0
1, 57715, Note_on_c, 1, 78, 127
1, 57798, Note_off_c, 1, 78, 0
1, 60095, Note_on_c, 1, 45, 127
1, 60433, Note_off_c, 1, 45, 0
1, 60435, Note_on_c, 1, 72, 127
1, 60435, Note_on_c, 1, 44, 127
1, 60603, Note_off_c, 1, 72, 0
1, 60605, Note_on_c, 1, 70, 127
1, 60773, Note_off_c, 1, 70, 0
1, 60775, Note_on_c, 1, 68, 127
1, 60943, Note_off_c, 1, 68, 0
1, 61113, Note_off_c, 1, 44, 0
1, 61115, Note_on_c, 1, 76, 127
1, 61115, Note_on_c, 1, 49, 127
1, 61283, Note_off_c, 1, 76, 0
1, 61285, Note_on_c, 1, 75, 127
1, 61453, Note_off_c, 1, 49, 0
1, 61453, Note_off_c, 1, 75, 0
1, 61455, Note_on_c, 1, 73, 127
1, 61455, Note_on_c, 1, 57, 127
1, 61455, Note_on_c, 1, 54, 127
1, 61455, Note_on_c, 1, 61, 127
1, 61623, Note_off_c, 1, 73, 0
1, 61625, Note_on_c, 1, 75, 127
1, 61793, Note_off_c, 1, 57, 0
1, 61793, Note_off_c, 1, 54, 0
1, 61793, Note_off_c, 1, 75, 0
1, 61795, Note_on_c, 1, 76, 127
1, 61795, Note_on_c, 1, 56, 127
1, 61963, Note_off_c, 1, 76, 0
1, 62126, Note_off_c, 1, 61, 0
1, 62133, Note_on_c, 1, 60, 127
1, 62470, Note_off_c, 1, 56, 0
1, 62470, Note_off_c, 1, 60, 0
1, 62472, Note_on_c, 1, 73, 127
1, 62472, Note_on_c, 1, 61, 127
1, 62472, Note_on_c, 1, 49, 127
1, 62640, Note_off_c, 1, 73, 0
1, 62642, Note_on_c, 1, 76, 127
1, 62810, Note_off_c, 1, 76, 0
1, 62812, Note_on_c, 1, 75, 127
1, 62980, Note_off_c, 1, 61, 0
1, 62980, Note_off_c, 1, 75, 0
1, 63144, Note_off_c, 1, 49, 0
1, 63151, Note_on_c, 1, 78, 127
1, 63151, Note_on_c, 1, 63, 127
1, 63319, Note_off_c, 1, 78, 0
1, 63321, Note_on_c, 1, 73, 127
1, 63489, Note_off_c, 1, 73, 0
1, 63491, Note_on_c, 1, 71, 127
1, 63659, Note_off_c, 1, 63, 0
1, 63659, Note_off_c, 1, 71, 0
1, 63661, Note_on_c, 1, 69, 127
1, 63661, Note_on_c, 1, 63, 127
1, 63829, Note_off_c, 1, 69, 0
1, 63829, Note_off_c, 1, 63, 0
1, 63831, Note_on_c, 1, 68, 127
1, 63831, Note_on_c, 1, 64, 127
1, 63999, Note_off_c, 1, 68, 0
1, 64001, Note_on_c, 1, 80, 127
1, 64169, Note_off_c, 1, 80, 0
1, 64171, Note_on_c, 1, 78, 127
1, 64339, Note_off_c, 1, 64, 0
1, 64339, Note_off_c, 1, 78, 0
1, 64341, Note_on_c, 1, 76, 127
1, 64341, Note_on_c, 1, 64, 127
1, 64509, Note_off_c, 1, 76, 0
1, 64509, Note_off_c, 1, 64, 0
1, 64511, Note_on_c, 1, 81, 127
1, 64511, Note_on_c, 1, 66, 127
1, 64679, Note_off_c, 1, 81, 0
1, 64681, Note_on_c, 1, 76, 127
1, 64849, Note_off_c, 1, 76, 0
1, 64851, Note_on_c, 1, 75, 127
1, 65019, Note_off_c, 1, 66, 0
1, 65019, Note_off_c, 1, 75, 0
1, 65021, Note_on_c, 1, 73, 127
1, 65021, Note_on_c, 1, 66, 127
1, 65189, Note_off_c, 1, 73, 0
1, 65189, Note_off_c, 1, 66, 0
1, 65191, Note_on_c, 1, 71, 127
1, 65191, Note_on_c, 1, 68, 127
1, 65360, Note_on_c, 1, 52, 127
1, 65528, Note_off_c, 1, 52, 0
1, 65530, Note_on_c, 1, 56, 127
1, 65698, Note_off_c, 1, 71, 0
1, 65698, Note_off_c, 1, 56, 0
1, 65700, Note_on_c, 1, 73, 127
1, 65868, Note_off_c, 1, 68, 0
1, 65868, Note_off_c, 1, 73, 0
1, 65870, Note_on_c, 1, 71, 127
1, 65870, Note_on_c, 1, 59, 127
1, 65870, Note_on_c, 1, 66, 127
1, 66038, Note_off_c, 1, 71, 0
1, 66038, Note_off_c, 1, 59, 0
1, 66040, Note_on_c, 1, 73, 127
1, 66040, Note_on_c, 1, 47, 127
1, 66208, Note_off_c, 1, 66, 0
1, 66208, Note_off_c, 1, 73, 0
1, 66208, Note_off_c, 1, 47, 0
1, 66210, Note_on_c, 1, 71, 127
1, 66210, Note_on_c, 1, 51, 127
1, 66210, Note_on_c, 1, 66, 127
1, 66378, Note_off_c, 1, 71, 0
1, 66378, Note_off_c, 1, 51, 0
1, 66380, Note_on_c, 1, 73, 127
1, 66380, Note_on_c, 1, 47, 127
1, 66548, Note_off_c, 1, 66, 0
1, 66548, Note_off_c, 1, 73, 0
1, 66548, Note_off_c, 1, 47, 0
1, 66550, Note_on_c, 1, 71, 127
1, 66550, Note_on_c, 1, 68, 127
1, 66550, Note_on_c, 1, 52, 127
1, 66718, Note_off_c, 1, 71, 0
1, 66720, Note_on_c, 1, 73, 127
1, 66888, Note_off_c, 1, 68, 0
1, 66888, Note_off_c, 1, 52, 0
1, 66888, Note_off_c, 1, 73, 0
1, 66890, Note_on_c, 1, 71, 127
1, 66890, Note_on_c, 1, 68, 127
1, 66890, Note_on_c, 1, 52, 127
1, 67058, Note_off_c, 1, 71, 0
1, 67060, Note_on_c, 1, 73, 127
1, 67228, Note_off_c, 1, 68, 0
1, 67228, Note_off_c, 1, 52, 0
1, 67228, Note_off_c, 1, 73, 0
1, 67230, Note_on_c, 1, 71, 127
1, 67230, Note_on_c, 1, 68, 127
1, 67230, Note_on_c, 1, 52, 127
1, 67398, Note_off_c, 1, 71, 0
1, 67400, Note_on_c, 1, 73, 127
1, 67568, Note_off_c, 1, 68, 0
1, 67568, Note_off_c, 1, 52, 0
1, 67568, Note_off_c, 1, 73, 0
1, 67570, Note_on_c, 1, 71, 127
1, 67570, Note_on_c, 1, 68, 127
1, 67570, Note_on_c, 1, 52, 127
1, 67738, Note_off_c, 1, 71, 0
1, 67740, Note_on_c, 1, 73, 127
1, 67908, Note_off_c, 1, 68, 0
1, 67908, Note_off_c, 1, 52, 0
1, 67908, Note_off_c, 1, 73, 0
1, 67910, Note_on_c, 1, 54, 127
1, 67910, Note_on_c, 1, 69, 127
1, 67910, Note_on_c, 1, 66, 127
1, 68247, Note_off_c, 1, 54, 0
1, 68249, Note_on_c, 1, 57, 127
1, 68417, Note_off_c, 1, 57, 0
1, 68419, Note_on_c, 1, 56, 127
1, 68587, Note_off_c, 1, 56, 0
1, 68758, Note_off_c, 1, 69, 0
1, 68758, Note_off_c, 1, 66, 0
1, 68928, Note_on_c, 1, 59, 127
1, 68928, Note_on_c, 1, 66, 127
1, 68928, Note_on_c, 1, 63, 127
1, 69096, Note_off_c, 1, 59, 0
1, 69098, Note_on_c, 1, 57, 127
1, 69266, Note_off_c, 1, 66, 0
1, 69266, Note_off_c, 1, 63, 0
1, 69266, Note_off_c, 1, 57, 0
1, 69268, Note_on_c, 1, 56, 127
1, 69268, Note_on_c, 1, 71, 127
1, 69268, Note_on_c, 1, 68, 127
1, 69605, Note_off_c, 1, 56, 0
1, 69607, Note_on_c, 1, 59, 127
1, 69775, Note_off_c, 1, 59, 0
1, 69777, Note_on_c, 1, 57, 127
1, 69945, Note_off_c, 1, 57, 0
1, 70116, Note_off_c, 1, 71, 0
1, 70116, Note_off_c, 1, 68, 0
1, 70286, Note_on_c, 1, 61, 127
1, 70286, Note_on_c, 1, 68, 127
1, 70286, Note_on_c, 1, 64, 127
1, 70454, Note_off_c, 1, 61, 0
1, 70456, Note_on_c, 1, 59, 127
1, 70624, Note_off_c, 1, 68, 0
1, 70624, Note_off_c, 1, 59, 0
1, 70626, Note_on_c, 1, 58, 127
1, 70626, Note_on_c, 1, 73, 127
1, 70794, Note_off_c, 1, 58, 0
1, 70796, Note_on_c, 1, 56, 127
1, 70964, Note_off_c, 1, 64, 0
1, 70964, Note_off_c, 1, 56, 0
1, 70966, Note_on_c, 1, 66, 127
1, 71136, Note_on_c, 1, 54, 127
1, 71304, Note_off_c, 1, 73, 0
1, 71304, Note_off_c, 1, 54, 0
1, 71306, Note_on_c, 1, 75, 127
1, 71644, Note_off_c, 1, 66, 0
1, 71984, Note_off_c, 1, 75, 0
1, 71986, Note_on_c, 1, 76, 127
1, 72326, Note_on_c, 1, 70, 127
1, 72664, Note_off_c, 1, 76, 0
1, 72666, Note_on_c, 1, 63, 127
1, 72666, Note_on_c, 1, 78, 127
1, 72834, Note_off_c, 1, 63, 0
1, 73004, Note_off_c, 1, 70, 0
1, 73006, Note_on_c, 1, 71, 127
1, 73344, Note_off_c, 1, 78, 0
1, 73346, Note_on_c, 1, 80, 127
1, 73514, Note_off_c, 1, 71, 0
1, 74024, Note_off_c, 1, 80, 0
1, 76065, Note_on_c, 1, 63, 127
1, 76234, Note_on_c, 1, 71, 127
1, 76402, Note_off_c, 1, 63, 0
1, 76402, Note_off_c, 1, 71, 0
1, 76404, Note_on_c, 1, 75, 127
1, 76404, Note_on_c, 1, 59, 127
1, 76572, Note_off_c, 1, 75, 0
1, 76574, Note_on_c, 1, 71, 127
1, 76742, Note_off_c, 1, 59, 0
1, 76742, Note_off_c, 1, 71, 0
1, 76744, Note_on_c, 1, 76, 127
1, 76744, Note_on_c, 1, 56, 127
1, 76912, Note_off_c, 1, 76, 0
1, 76914, Note_on_c, 1, 64, 127
1, 77082, Note_off_c, 1, 56, 0
1, 77082, Note_off_c, 1, 64, 0
1, 77084, Note_on_c, 1, 68, 127
1, 77084, Note_on_c, 1, 52, 127
1, 77252, Note_off_c, 1, 68, 0
1, 77254, Note_on_c, 1, 64, 127
1, 77422, Note_off_c, 1, 52, 0
1, 77422, Note_off_c, 1, 64, 0
1, 77424, Note_on_c, 1, 51, 127
1, 77424, Note_on_c, 1, 71, 127
1, 77592, Note_off_c, 1, 51, 0
1, 77594, Note_on_c, 1, 59, 127
1, 77762, Note_off_c, 1, 71, 0
1, 77762, Note_off_c, 1, 59, 0
1, 77764, Note_on_c, 1, 63, 127
1, 77764, Note_on_c, 1, 71, 127
1, 77932, Note_off_c, 1, 63, 0
1, 77934, Note_on_c, 1, 59, 127
1, 78102, Note_off_c, 1, 71, 0
1, 78102, Note_off_c, 1, 59, 0
1, 78104, Note_on_c, 1, 64, 127
1, 78104, Note_on_c, 1, 71, 127
1, 78272, Note_off_c, 1, 64, 0
1, 78274, Note_on_c, 1, 52, 127
1, 78442, Note_off_c, 1, 71, 0
1, 78442, Note_off_c, 1, 52, 0
1, 78444, Note_on_c, 1, 56, 127
1, 78444, Note_on_c, 1, 71, 127
1, 78612, Note_off_c, 1, 56, 0
1, 78614, Note_on_c, 1, 52, 127
1, 78782, Note_off_c, 1, 71, 0
1, 78782, Note_off_c, 1, 52, 0
1, 78784, Note_on_c, 1, 73, 127
1, 78784, Note_on_c, 1, 57, 127
1, 79121, Note_off_c, 1, 73, 0
1, 79123, Note_on_c, 1, 76, 127
1, 79291, Note_off_c, 1, 76, 0
1, 79293, Note_on_c, 1, 75, 127
1, 79455, Note_off_c, 1, 57, 0
1, 79460, Note_off_c, 1, 75, 0
1, 79462, Note_on_c, 1, 73, 127
1, 79545, Note_off_c, 1, 73, 0
1, 79547, Note_on_c, 1, 71, 127
1, 79630, Note_off_c, 1, 71, 0
1, 79632, Note_on_c, 1, 73, 127
1, 79632, Note_on_c, 1, 54, 127
1, 79800, Note_off_c, 1, 73, 0
1, 79800, Note_off_c, 1, 54, 0
1, 79802, Note_on_c, 1, 78, 127
1, 79802, Note_on_c, 1, 57, 127
1, 79970, Note_off_c, 1, 78, 0
1, 79970, Note_off_c, 1, 57, 0
1, 79972, Note_on_c, 1, 76, 127
1, 79972, Note_on_c, 1, 54, 127
1, 80140, Note_off_c, 1, 76, 0
1, 80140, Note_off_c, 1, 54, 0
1, 80142, Note_on_c, 1, 75, 127
1, 80142, Note_on_c, 1, 59, 127
1, 80479, Note_off_c, 1, 75, 0
1, 80479, Note_off_c, 1, 59, 0
1, 80481, Note_on_c, 1, 78, 127
1, 80481, Note_on_c, 1, 47, 127
1, 80649, Note_off_c, 1, 78, 0
1, 80651, Note_on_c, 1, 76, 127
1, 80819, Note_off_c, 1, 76, 0
1, 80821, Note_on_c, 1, 75, 127
1, 80904, Note_off_c, 1, 75, 0
1, 80906, Note_on_c, 1, 73, 127
1, 80989, Note_off_c, 1, 73, 0
1, 81159, Note_off_c, 1, 47, 0
1, 81161, Note_on_c, 1, 80, 127
1, 81161, Note_on_c, 1, 52, 127
1, 81329, Note_off_c, 1, 80, 0
1, 81331, Note_on_c, 1, 76, 127
1, 81499, Note_off_c, 1, 52, 0
1, 81499, Note_off_c, 1, 76, 0
1, 81501, Note_on_c, 1, 75, 127
1, 81501, Note_on_c, 1, 54, 127
1, 81669, Note_off_c, 1, 75, 0
1, 81671, Note_on_c, 1, 73, 127
1, 81839, Note_off_c, 1, 54, 0
1, 81839, Note_off_c, 1, 73, 0
1, 81841, Note_on_c, 1, 75, 127
1, 81841, Note_on_c, 1, 59, 127
1, 82009, Note_off_c, 1, 75, 0
1, 82009, Note_off_c, 1, 59, 0
1, 82011, Note_on_c, 1, 71, 127
1, 82011, Note_on_c, 1, 57, 127
1, 82179, Note_off_c, 1, 71, 0
1, 82179, Note_off_c, 1, 57, 0
1, 82181, Note_on_c, 1, 76, 127
1, 82181, Note_on_c, 1, 56, 127
1, 82518, Note_off_c, 1, 76, 0
1, 82518, Note_off_c, 1, 56, 0
1, 82520, Note_on_c, 1, 57, 127
1, 82520, Note_on_c, 1, 73, 127
1, 82688, Note_off_c, 1, 57, 0
1, 82690, Note_on_c, 1, 56, 127
1, 82858, Note_off_c, 1, 73, 0
1, 82858, Note_off_c, 1, 56, 0
1, 82860, Note_on_c, 1, 75, 127
1, 82860, Note_on_c, 1, 54, 127
1, 83197, Note_off_c, 1, 75, 0
1, 83197, Note_off_c, 1, 54, 0
1, 83199, Note_on_c, 1, 76, 127
1, 83199, Note_on_c, 1, 52, 127
1, 83536, Note_off_c, 1, 76, 0
1, 83536, Note_off_c, 1, 52, 0
1, 83538, Note_on_c, 1, 78, 127
1, 83538, Note_on_c, 1, 54, 127
1, 83651, Note_off_c, 1, 78, 0
1, 83651, Note_on_c, 1, 76, 127
1, 83707, Note_off_c, 1, 76, 0
1, 84101, Note_on_c, 1, 75, 127
1, 84212, Note_off_c, 1, 54, 0
1, 84212, Note_off_c, 1, 75, 0
1, 84214, Note_on_c, 1, 52, 127
1, 84214, Note_on_c, 1, 76, 127
1, 84383, Note_on_c, 1, 64, 127
1, 84551, Note_off_c, 1, 52, 0
1, 84551, Note_off_c, 1, 64, 0
1, 84553, Note_on_c, 1, 68, 127
1, 84553, Note_on_c, 1, 49, 127
1, 84721, Note_off_c, 1, 68, 0
1, 84891, Note_off_c, 1, 76, 0
1, 84891, Note_off_c, 1, 49, 0
1, 84893, Note_on_c, 1, 71, 127
1, 84893, Note_on_c, 1, 78, 127
1, 84893, Note_on_c, 1, 51, 127
1, 85061, Note_off_c, 1, 71, 0
1, 85063, Note_on_c, 1, 59, 127
1, 85231, Note_off_c, 1, 59, 0
1, 85233, Note_on_c, 1, 63, 127
1, 85401, Note_off_c, 1, 63, 0
1, 85571, Note_off_c, 1, 78, 0
1, 85571, Note_off_c, 1, 51, 0
1, 85573, Note_on_c, 1, 80, 127
1, 85573, Note_on_c, 1, 64, 127
1, 85573, Note_on_c, 1, 52, 127
1, 85741, Note_off_c, 1, 80, 0
1, 85743, Note_on_c, 1, 78, 127
1, 85911, Note_off_c, 1, 64, 0
1, 85911, Note_off_c, 1, 52, 0
1, 85911, Note_off_c, 1, 78, 0
1, 85913, Note_on_c, 1, 80, 127
1, 85913, Note_on_c, 1, 64, 127
1, 85913, Note_on_c, 1, 54, 127
1, 86081, Note_off_c, 1, 80, 0
1, 86083, Note_on_c, 1, 76, 127
1, 86251, Note_off_c, 1, 64, 0
1, 86251, Note_off_c, 1, 54, 0
1, 86251, Note_off_c, 1, 76, 0
1, 86253, Note_on_c, 1, 83, 127
1, 86253, Note_on_c, 1, 64, 127
1, 86253, Note_on_c, 1, 56, 127
1, 86590, Note_off_c, 1, 83, 0
1, 86590, Note_off_c, 1, 64, 0
1, 86590, Note_off_c, 1, 56, 0
1, 86592, Note_on_c, 1, 80, 127
1, 86592, Note_on_c, 1, 64, 127
1, 86592, Note_on_c, 1, 61, 127
1, 86760, Note_off_c, 1, 80, 0
1, 86762, Note_on_c, 1, 76, 127
1, 86930, Note_off_c, 1, 64, 0
1, 86930, Note_off_c, 1, 61, 0
1, 86930, Note_off_c, 1, 76, 0
1, 86932, Note_on_c, 1, 66, 127
1, 86932, Note_on_c, 1, 81, 127
1, 86932, Note_on_c, 1, 73, 127
1, 86932, Note_on_c, 1, 57, 127
1, 87269, Note_off_c, 1, 66, 0
1, 87271, Note_on_c, 1, 69, 127
1, 87439, Note_off_c, 1, 69, 0
1, 87441, Note_on_c, 1, 68, 127
1, 87609, Note_off_c, 1, 68, 0
1, 87780, Note_off_c, 1, 81, 0
1, 87780, Note_off_c, 1, 73, 0
1, 87780, Note_off_c, 1, 57, 0
1, 87950, Note_on_c, 1, 71, 127
1, 87950, Note_on_c, 1, 75, 127
1, 87950, Note_on_c, 1, 59, 127
1, 88118, Note_off_c, 1, 71, 0
1, 88120, Note_on_c, 1, 69, 127
1, 88288, Note_off_c, 1, 75, 0
1, 88288, Note_off_c, 1, 59, 0
1, 88288, Note_off_c, 1, 69, 0
1, 88290, Note_on_c, 1, 68, 127
1, 88290, Note_on_c, 1, 52, 127
1, 88290, Note_on_c, 1, 76, 127
1, 88627, Note_off_c, 1, 68, 0
1, 88629, Note_on_c, 1, 71, 127
1, 88797, Note_off_c, 1, 71, 0
1, 88799, Note_on_c, 1, 69, 127
1, 88967, Note_off_c, 1, 69, 0
1, 89137, Note_off_c, 1, 52, 0
1, 89139, Note_on_c, 1, 51, 127
1, 89307, Note_off_c, 1, 51, 0
1, 89309, Note_on_c, 1, 73, 127
1, 89477, Note_off_c, 1, 73, 0
1, 89479, Note_on_c, 1, 49, 127
1, 89647, Note_off_c, 1, 49, 0
1, 89649, Note_on_c, 1, 70, 127
1, 89649, Note_on_c, 1, 54, 127
1, 89817, Note_off_c, 1, 70, 0
1, 90159, Note_on_c, 1, 66, 127
1, 90327, Note_off_c, 1, 76, 0
1, 90327, Note_off_c, 1, 54, 0
1, 90327, Note_off_c, 1, 66, 0
1, 90329, Note_on_c, 1, 56, 127
1, 90329, Note_on_c, 1, 75, 127
1, 90329, Note_on_c, 1, 71, 127
1, 90497, Note_off_c, 1, 56, 0
1, 90499, Note_on_c, 1, 54, 127
1, 90667, Note_off_c, 1, 75, 0
1, 90667, Note_off_c, 1, 71, 0
1, 90667, Note_off_c, 1, 54, 0
1, 90669, Note_on_c, 1, 73, 127
1, 90669, Note_on_c, 1, 80, 127
1, 90669, Note_on_c, 1, 52, 127
1, 90837, Note_off_c, 1, 73, 0
1, 90839, Note_on_c, 1, 71, 127
1, 91007, Note_off_c, 1, 80, 0
1, 91007, Note_off_c, 1, 71, 0
1, 91009, Note_on_c, 1, 70, 127
1, 91346, Note_off_c, 1, 52, 0
1, 91346, Note_off_c, 1, 70, 0
1, 91348, Note_on_c, 1, 75, 127
1, 91348, Note_on_c, 1, 51, 127
1, 91348, Note_on_c, 1, 71, 127
1, 91516, Note_off_c, 1, 75, 0
1, 91518, Note_on_c, 1, 76, 127
1, 91686, Note_off_c, 1, 51, 0
1, 91686, Note_off_c, 1, 76, 0
1, 91688, Note_on_c, 1, 49, 127
1, 92026, Note_off_c, 1, 71, 0
1, 92026, Note_off_c, 1, 49, 0
1, 92028, Note_on_c, 1, 70, 127
1, 92028, Note_on_c, 1, 54, 127
1, 92366, Note_off_c, 1, 70, 0
1, 92366, Note_off_c, 1, 54, 0
1, 92368, Note_on_c, 1, 47, 127
1, 92368, Note_on_c, 1, 75, 127
1, 92368, Note_on_c, 1, 71, 127
1, 92536, Note_off_c, 1, 47, 0
1, 92538, Note_on_c, 1, 59, 127
1, 92704, Note_off_c, 1, 75, 0
1, 92704, Note_off_c, 1, 71, 0
1, 92708, Note_on_c, 1, 63, 127
1, 92715, Note_off_c, 1, 59, 0
1, 92919, Note_off_c, 1, 63, 0
1, 93046, Note_on_c, 1, 64, 127
1, 93214, Note_off_c, 1, 64, 0
1, 93216, Note_on_c, 1, 68, 127
1, 93216, Note_on_c, 1, 52, 127
1, 93384, Note_off_c, 1, 68, 0
1, 93384, Note_off_c, 1, 52, 0
1, 93386, Note_on_c, 1, 71, 127
1, 93386, Note_on_c, 1, 56, 127
1, 93554, Note_off_c, 1, 71, 0
1, 93554, Note_off_c, 1, 56, 0
1, 93556, Note_on_c, 1, 68, 127
1, 93556, Note_on_c, 1, 52, 127
1, 93724, Note_off_c, 1, 68, 0
1, 93724, Note_off_c, 1, 52, 0
1, 93726, Note_on_c, 1, 59, 127
1, 93726, Note_on_c, 1, 75, 127
1, 93894, Note_off_c, 1, 59, 0
1, 93896, Note_on_c, 1, 63, 127
1, 93896, Note_on_c, 1, 47, 127
1, 94062, Note_off_c, 1, 75, 0
1, 94064, Note_off_c, 1, 63, 0
1, 94064, Note_off_c, 1, 47, 0
1, 94066, Note_on_c, 1, 51, 127
1, 94066, Note_on_c, 1, 66, 127
1, 94234, Note_off_c, 1, 51, 0
1, 94236, Note_on_c, 1, 63, 127
1, 94236, Note_on_c, 1, 47, 127
1, 94402, Note_off_c, 1, 66, 0
1, 94404, Note_off_c, 1, 63, 0
1, 94404, Note_off_c, 1, 47, 0
1, 94406, Note_on_c, 1, 52, 127
1, 94406, Note_on_c, 1, 68, 127
1, 94574, Note_off_c, 1, 52, 0
1, 94576, Note_on_c, 1, 56, 127
1, 94576, Note_on_c, 1, 40, 127
1, 94744, Note_off_c, 1, 56, 0
1, 94744, Note_off_c, 1, 40, 0
1, 94746, Note_on_c, 1, 59, 127
1, 94746, Note_on_c, 1, 44, 127
1, 94901, Note_off_c, 1, 68, 0
1, 94913, Note_off_c, 1, 59, 0
1, 94913, Note_off_c, 1, 44, 0
1, 94915, Note_on_c, 1, 56, 127
1, 94915, Note_on_c, 1, 40, 127
1, 95083, Note_off_c, 1, 56, 0
1, 95083, Note_off_c, 1, 40, 0
1, 95085, Note_on_c, 1, 63, 127
1, 95085, Note_on_c, 1, 47, 127
1, 95254, Note_on_c, 1, 59, 127
1, 95420, Note_off_c, 1, 63, 0
1, 95422, Note_off_c, 1, 47, 0
1, 95422, Note_off_c, 1, 59, 0
1, 95424, Note_on_c, 1, 66, 127
1, 95424, Note_on_c, 1, 47, 127
1, 95593, Note_on_c, 1, 63, 127
1, 95759, Note_off_c, 1, 66, 0
1, 95761, Note_off_c, 1, 47, 0
1, 95761, Note_off_c, 1, 63, 0
1, 95763, Note_on_c, 1, 71, 127
1, 95763, Note_on_c, 1, 47, 127
1, 95932, Note_on_c, 1, 66, 127
1, 96098, Note_off_c, 1, 71, 0
1, 96100, Note_off_c, 1, 47, 0
1, 96100, Note_off_c, 1, 66, 0
1, 96102, Note_on_c, 1, 68, 127
1, 96102, Note_on_c, 1, 47, 127
1, 96271, Note_on_c, 1, 63, 127
1, 96278, Note_off_c, 1, 68, 0
1, 96439, Note_off_c, 1, 47, 0
1, 96439, Note_off_c, 1, 63, 0
1, 96441, Note_on_c, 1, 64, 127
1, 96441, Note_on_c, 1, 49, 127
1, 96610, Note_on_c, 1, 61, 127
1, 96776, Note_off_c, 1, 64, 0
1, 96778, Note_off_c, 1, 49, 0
1, 96778, Note_off_c, 1, 61, 0
1, 96780, Note_on_c, 1, 52, 127
1, 96780, Note_on_c, 1, 68, 127
1, 96948, Note_off_c, 1, 52, 0
1, 96950, Note_on_c, 1, 64, 127
1, 96950, Note_on_c, 1, 51, 127
1, 97116, Note_off_c, 1, 68, 0
1, 97118, Note_off_c, 1, 64, 0
1, 97118, Note_off_c, 1, 51, 0
1, 97120, Note_on_c, 1, 49, 127
1, 97120, Note_on_c, 1, 73, 127
1, 97289, Note_on_c, 1, 68, 127
1, 97457, Note_off_c, 1, 49, 0
1, 97457, Note_off_c, 1, 68, 0
1, 97459, Note_on_c, 1, 69, 127
1, 97459, Note_on_c, 1, 54, 127
1, 97614, Note_off_c, 1, 73, 0
1, 97626, Note_off_c, 1, 69, 0
1, 97626, Note_off_c, 1, 54, 0
1, 97628, Note_on_c, 1, 68, 127
1, 97628, Note_on_c, 1, 52, 127
1, 97796, Note_off_c, 1, 68, 0
1, 97796, Note_off_c, 1, 52, 0
1, 97798, Note_on_c, 1, 66, 127
1, 97798, Note_on_c, 1, 51, 127
1, 97967, Note_on_c, 1, 59, 127
1, 98133, Note_off_c, 1, 66, 0
1, 98135, Note_off_c, 1, 51, 0
1, 98135, Note_off_c, 1, 59, 0
1, 98137, Note_on_c, 1, 69, 127
1, 98137, Note_on_c, 1, 54, 127
1, 98305, Note_off_c, 1, 69, 0
1, 98305, Note_off_c, 1, 54, 0
1, 98307, Note_on_c, 1, 68, 127
1, 98307, Note_on_c, 1, 52, 127
1, 98475, Note_off_c, 1, 68, 0
1, 98475, Note_off_c, 1, 52, 0
1, 98477, Note_on_c, 1, 66, 127
1, 98477, Note_on_c, 1, 51, 127
1, 98646, Note_on_c, 1, 59, 127
1, 98812, Note_off_c, 1, 66, 0
1, 98814, Note_off_c, 1, 51, 0
1, 98814, Note_off_c, 1, 59, 0
1, 98816, Note_on_c, 1, 71, 127
1, 98816, Note_on_c, 1, 56, 127
1, 98984, Note_off_c, 1, 71, 0
1, 98984, Note_off_c, 1, 56, 0
1, 98986, Note_on_c, 1, 68, 127
1, 98986, Note_on_c, 1, 52, 127
1, 99154, Note_off_c, 1, 68, 0
1, 99154, Note_off_c, 1, 52, 0
1, 99156, Note_on_c, 1, 51, 127
1, 99156, Note_on_c, 1, 66, 127
1, 99324, Note_off_c, 1, 51, 0
1, 99326, Note_on_c, 1, 59, 127
1, 99326, Note_on_c, 1, 49, 127
1, 99492, Note_off_c, 1, 66, 0
1, 99494, Note_off_c, 1, 59, 0
1, 99494, Note_off_c, 1, 49, 0
1, 99496, Note_on_c, 1, 71, 127
1, 99496, Note_on_c, 1, 51, 127
1, 99664, Note_off_c, 1, 71, 0
1, 99664, Note_off_c, 1, 51, 0
1, 99666, Note_on_c, 1, 69, 127
1, 99666, Note_on_c, 1, 47, 127
1, 99834, Note_off_c, 1, 69, 0
1, 99834, Note_off_c, 1, 47, 0
1, 99836, Note_on_c, 1, 68, 127
1, 99836, Note_on_c, 1, 52, 127
1, 100005, Note_on_c, 1, 64, 127
1, 100171, Note_off_c, 1, 68, 0
1, 100173, Note_off_c, 1, 52, 0
1, 100173, Note_off_c, 1, 64, 0
1, 100175, Note_on_c, 1, 76, 127
1, 100175, Note_on_c, 1, 61, 127
1, 100343, Note_off_c, 1, 76, 0
1, 100345, Note_on_c, 1, 73, 127
1, 100513, Note_off_c, 1, 61, 0
1, 100513, Note_off_c, 1, 73, 0
1, 100515, Note_on_c, 1, 51, 127
1, 100515, Note_on_c, 1, 78, 127
1, 100684, Note_on_c, 1, 69, 127
1, 100852, Note_off_c, 1, 51, 0
1, 100852, Note_off_c, 1, 69, 0
1, 100854, Note_on_c, 1, 68, 127
1, 100854, Note_on_c, 1, 52, 127
1, 101009, Note_off_c, 1, 78, 0
1, 101023, Note_on_c, 1, 76, 127
1, 101189, Note_off_c, 1, 68, 0
1, 101191, Note_off_c, 1, 52, 0
1, 101193, Note_on_c, 1, 45, 127
1, 101193, Note_on_c, 1, 66, 127
1, 101359, Note_off_c, 1, 76, 0
1, 101531, Note_off_c, 1, 45, 0
1, 101533, Note_on_c, 1, 75, 127
1, 101533, Note_on_c, 1, 47, 127
1, 101688, Note_off_c, 1, 66, 0
1, 101868, Note_off_c, 1, 75, 0
1, 101870, Note_off_c, 1, 47, 0
1, 101872, Note_on_c, 1, 68, 127
1, 101872, Note_on_c, 1, 40, 127
1, 102041, Note_on_c, 1, 76, 127
1, 102207, Note_off_c, 1, 68, 0
1, 102211, Note_on_c, 1, 66, 127
1, 102377, Note_off_c, 1, 76, 0
1, 102381, Note_on_c, 1, 75, 127
1, 102543, Note_off_c, 1, 40, 0
1, 102547, Note_off_c, 1, 66, 0
1, 102549, Note_off_c, 1, 75, 0
1, 102551, Note_on_c, 1, 64, 127
1, 102551, Note_on_c, 1, 80, 127
1, 102719, Note_off_c, 1, 64, 0
1, 102721, Note_on_c, 1, 73, 127
1, 102889, Note_off_c, 1, 80, 0
1, 102889, Note_off_c, 1, 73, 0
1, 102891, Note_on_c, 1, 63, 127
1, 102891, Note_on_c, 1, 78, 127
1, 103059, Note_off_c, 1, 63, 0
1, 103061, Note_on_c, 1, 72, 127
1, 103229, Note_off_c, 1, 78, 0
1, 103229, Note_off_c, 1, 72, 0
1, 103231, Note_on_c, 1, 64, 127
1, 103231, Note_on_c, 1, 80, 127
1, 103400, Note_on_c, 1, 73, 127
1, 103568, Note_off_c, 1, 64, 0
1, 103568, Note_off_c, 1, 73, 0
1, 103570, Note_on_c, 1, 72, 127
1, 103570, Note_on_c, 1, 68, 127
1, 103725, Note_off_c, 1, 80, 0
1, 103737, Note_off_c, 1, 72, 0
1, 103739, Note_on_c, 1, 78, 127
1, 103907, Note_off_c, 1, 68, 0
1, 103907, Note_off_c, 1, 78, 0
1, 103909, Note_on_c, 1, 69, 127
1, 103909, Note_on_c, 1, 76, 127
1, 104078, Note_on_c, 1, 73, 127
1, 104246, Note_off_c, 1, 69, 0
1, 104246, Note_off_c, 1, 73, 0
1, 104248, Note_on_c, 1, 68, 127
1, 104248, Note_on_c, 1, 64, 127
1, 104403, Note_off_c, 1, 76, 0
1, 104415, Note_off_c, 1, 68, 0
1, 104585, Note_off_c, 1, 64, 0
1, 104587, Note_on_c, 1, 75, 127
1, 104587, Note_on_c, 1, 66, 127
1, 104756, Note_on_c, 1, 70, 127
1, 104922, Note_off_c, 1, 75, 0
1, 104924, Note_off_c, 1, 66, 0
1, 104924, Note_off_c, 1, 70, 0
1, 104926, Note_on_c, 1, 68, 127
1, 104926, Note_on_c, 1, 72, 127
1, 105094, Note_off_c, 1, 68, 0
1, 105096, Note_on_c, 1, 66, 127
1, 105264, Note_off_c, 1, 72, 0
1, 105264, Note_off_c, 1, 66, 0
1, 105266, Note_on_c, 1, 64, 127
1, 105266, Note_on_c, 1, 73, 127
1, 105434, Note_off_c, 1, 64, 0
1, 105436, Note_on_c, 1, 63, 127
1, 105604, Note_off_c, 1, 63, 0
1, 105606, Note_on_c, 1, 61, 127
1, 105774, Note_off_c, 1, 73, 0
1, 105944, Note_off_c, 1, 61, 0
1, 105946, Note_on_c, 1, 72, 127
1, 105946, Note_on_c, 1, 68, 127
1, 106114, Note_off_c, 1, 72, 0
1, 106116, Note_on_c, 1, 73, 127
1, 106194, Note_off_c, 1, 68, 0
1, 106284, Note_off_c, 1, 73, 0
1, 106286, Note_on_c, 1, 75, 127
1, 106286, Note_on_c, 1, 67, 127
1, 106454, Note_off_c, 1, 75, 0
1, 106456, Note_on_c, 1, 70, 127
1, 106534, Note_off_c, 1, 67, 0
1, 106624, Note_off_c, 1, 70, 0
1, 106626, Note_on_c, 1, 68, 127
1, 106626, Note_on_c, 1, 72, 127
1, 106794, Note_off_c, 1, 68, 0
1, 106796, Note_on_c, 1, 63, 127
1, 106874, Note_off_c, 1, 72, 0
1, 106964, Note_off_c, 1, 63, 0
1, 106966, Note_on_c, 1, 56, 127
1, 107134, Note_off_c, 1, 56, 0
1, 107136, Note_on_c, 1, 73, 127
1, 107136, Note_on_c, 1, 67, 127
1, 107304, Note_off_c, 1, 73, 0
1, 107304, Note_off_c, 1, 67, 0
1, 107306, Note_on_c, 1, 72, 127
1, 107306, Note_on_c, 1, 68, 127
1, 107474, Note_off_c, 1, 72, 0
1, 107476, Note_on_c, 1, 73, 127
1, 107554, Note_off_c, 1, 68, 0
1, 107644, Note_off_c, 1, 73, 0
1, 107646, Note_on_c, 1, 75, 127
1, 107646, Note_on_c, 1, 66, 127
1, 107814, Note_off_c, 1, 75, 0
1, 107816, Note_on_c, 1, 68, 127
1, 107894, Note_off_c, 1, 66, 0
1, 107984, Note_off_c, 1, 68, 0
1, 107986, Note_on_c, 1, 65, 127
1, 107986, Note_on_c, 1, 73, 127
1, 108154, Note_off_c, 1, 65, 0
1, 108156, Note_on_c, 1, 61, 127
1, 108234, Note_off_c, 1, 73, 0
1, 108324, Note_off_c, 1, 61, 0
1, 108326, Note_on_c, 1, 53, 127
1, 108494, Note_off_c, 1, 53, 0
1, 108496, Note_on_c, 1, 71, 127
1, 108496, Note_on_c, 1, 61, 127
1, 108664, Note_off_c, 1, 71, 0
1, 108664, Note_off_c, 1, 61, 0
1, 108666, Note_on_c, 1, 70, 127
1, 108666, Note_on_c, 1, 66, 127
1, 108834, Note_off_c, 1, 70, 0
1, 108836, Note_on_c, 1, 71, 127
1, 108914, Note_off_c, 1, 66, 0
1, 109004, Note_off_c, 1, 71, 0
1, 109006, Note_on_c, 1, 73, 127
1, 109006, Note_on_c, 1, 65, 127
1, 109174, Note_off_c, 1, 73, 0
1, 109176, Note_on_c, 1, 68, 127
1, 109254, Note_off_c, 1, 65, 0
1, 109344, Note_off_c, 1, 68, 0
1, 109346, Note_on_c, 1, 66, 127
1, 109346, Note_on_c, 1, 70, 127
1, 109514, Note_off_c, 1, 66, 0
1, 109516, Note_on_c, 1, 61, 127
1, 109629, Note_off_c, 1, 70, 0
1, 109684, Note_off_c, 1, 61, 0
1, 109686, Note_on_c, 1, 54, 127
1, 109854, Note_off_c, 1, 54, 0
1, 109856, Note_on_c, 1, 71, 127
1, 109856, Note_on_c, 1, 65, 127
1, 110024, Note_off_c, 1, 71, 0
1, 110024, Note_off_c, 1, 65, 0
1, 110026, Note_on_c, 1, 70, 127
1, 110026, Note_on_c, 1, 66, 127
1, 110194, Note_off_c, 1, 70, 0
1, 110196, Note_on_c, 1, 71, 127
1, 110274, Note_off_c, 1, 66, 0
1, 110364, Note_off_c, 1, 71, 0
1, 110366, Note_on_c, 1, 73, 127
1, 110366, Note_on_c, 1, 64, 127
1, 110534, Note_off_c, 1, 73, 0
1, 110536, Note_on_c, 1, 66, 127
1, 110614, Note_off_c, 1, 64, 0
1, 110704, Note_off_c, 1, 66, 0
1, 110706, Note_on_c, 1, 63, 127
1, 110706, Note_on_c, 1, 71, 127
1, 110874, Note_off_c, 1, 63, 0
1, 110876, Note_on_c, 1, 59, 127
1, 111024, Note_off_c, 1, 71, 0
1, 111043, Note_off_c, 1, 59, 0
1, 111045, Note_on_c, 1, 51, 127
1, 111213, Note_off_c, 1, 51, 0
1, 111215, Note_on_c, 1, 69, 127
1, 111215, Note_on_c, 1, 59, 127
1, 111383, Note_off_c, 1, 69, 0
1, 111383, Note_off_c, 1, 59, 0
1, 111385, Note_on_c, 1, 68, 127
1, 111385, Note_on_c, 1, 64, 127
1, 111553, Note_off_c, 1, 68, 0
1, 111555, Note_on_c, 1, 69, 127
1, 111633, Note_off_c, 1, 64, 0
1, 111723, Note_off_c, 1, 69, 0
1, 111725, Note_on_c, 1, 71, 127
1, 111725, Note_on_c, 1, 63, 127
1, 111893, Note_off_c, 1, 71, 0
1, 111895, Note_on_c, 1, 64, 127
1, 111973, Note_off_c, 1, 63, 0
1, 112063, Note_off_c, 1, 64, 0
1, 112065, Note_on_c, 1, 61, 127
1, 112065, Note_on_c, 1, 69, 127
1, 112233, Note_off_c, 1, 61, 0
1, 112235, Note_on_c, 1, 57, 127
1, 112403, Note_off_c, 1, 57, 0
1, 112405, Note_on_c, 1, 49, 127
1, 112454, Note_off_c, 1, 69, 0
1, 112572, Note_off_c, 1, 49, 0
1, 112574, Note_on_c, 1, 68, 127
1, 112574, Note_on_c, 1, 57, 127
1, 112742, Note_off_c, 1, 68, 0
1, 112742, Note_off_c, 1, 57, 0
1, 112744, Note_on_c, 1, 66, 127
1, 112744, Note_on_c, 1, 62, 127
1, 112912, Note_off_c, 1, 66, 0
1, 112914, Note_on_c, 1, 68, 127
1, 112992, Note_off_c, 1, 62, 0
1, 113082, Note_off_c, 1, 68, 0
1, 113084, Note_on_c, 1, 69, 127
1, 113084, Note_on_c, 1, 61, 127
1, 113252, Note_off_c, 1, 69, 0
1, 113254, Note_on_c, 1, 63, 127
1, 113332, Note_off_c, 1, 61, 0
1, 113422, Note_off_c, 1, 63, 0
1, 113424, Note_on_c, 1, 60, 127
1, 113424, Note_on_c, 1, 68, 127
1, 113592, Note_off_c, 1, 60, 0
1, 113594, Note_on_c, 1, 56, 127
1, 113762, Note_off_c, 1, 56, 0
1, 113764, Note_on_c, 1, 48, 127
1, 113902, Note_off_c, 1, 68, 0
1, 113932, Note_off_c, 1, 48, 0
1, 113934, Note_on_c, 1, 66, 127
1, 113934, Note_on_c, 1, 56, 127
1, 114102, Note_off_c, 1, 66, 0
1, 114102, Note_off_c, 1, 56, 0
1, 114104, Note_on_c, 1, 64, 127
1, 114104, Note_on_c, 1, 61, 127
1, 114272, Note_off_c, 1, 64, 0
1, 114274, Note_on_c, 1, 66, 127
1, 114352, Note_off_c, 1, 61, 0
1, 114442, Note_off_c, 1, 66, 0
1, 114444, Note_on_c, 1, 68, 127
1, 114444, Note_on_c, 1, 60, 127
1, 114612, Note_off_c, 1, 68, 0
1, 114614, Note_on_c, 1, 63, 127
1, 114692, Note_off_c, 1, 60, 0
1, 114782, Note_off_c, 1, 63, 0
1, 114784, Note_on_c, 1, 61, 127
1, 114784, Note_on_c, 1, 64, 127
1, 114952, Note_off_c, 1, 61, 0
1, 114954, Note_on_c, 1, 56, 127
1, 115122, Note_off_c, 1, 56, 0
1, 115124, Note_on_c, 1, 49, 127
1, 115279, Note_off_c, 1, 64, 0
1, 115291, Note_off_c, 1, 49, 0
1, 115293, Note_on_c, 1, 63, 127
1, 115293, Note_on_c, 1, 56, 127
1, 115461, Note_off_c, 1, 63, 0
1, 115461, Note_off_c, 1, 56, 0
1, 115463, Note_on_c, 1, 64, 127
1, 115463, Note_on_c, 1, 61, 127
1, 115631, Note_off_c, 1, 64, 0
1, 115633, Note_on_c, 1, 68, 127
1, 115746, Note_off_c, 1, 61, 0
1, 115801, Note_off_c, 1, 68, 0
1, 115803, Note_on_c, 1, 66, 127
1, 115803, Note_on_c, 1, 63, 127
1, 115971, Note_off_c, 1, 66, 0
1, 115973, Note_on_c, 1, 69, 127
1, 116086, Note_off_c, 1, 63, 0
1, 116141, Note_off_c, 1, 69, 0
1, 116143, Note_on_c, 1, 64, 127
1, 116143, Note_on_c, 1, 68, 127
1, 116311, Note_off_c, 1, 64, 0
1, 116313, Note_on_c, 1, 59, 127
1, 116481, Note_off_c, 1, 59, 0
1, 116483, Note_on_c, 1, 52, 127
1, 116638, Note_off_c, 1, 68, 0
1, 116650, Note_off_c, 1, 52, 0
1, 116652, Note_on_c, 1, 66, 127
1, 116652, Note_on_c, 1, 59, 127
1, 116820, Note_off_c, 1, 66, 0
1, 116820, Note_off_c, 1, 59, 0
1, 116822, Note_on_c, 1, 68, 127
1, 116822, Note_on_c, 1, 64, 127
1, 116990, Note_off_c, 1, 68, 0
1, 116992, Note_on_c, 1, 71, 127
1, 117140, Note_off_c, 1, 64, 0
1, 117159, Note_off_c, 1, 71, 0
1, 117161, Note_on_c, 1, 70, 127
1, 117161, Note_on_c, 1, 66, 127
1, 117329, Note_off_c, 1, 70, 0
1, 117331, Note_on_c, 1, 73, 127
1, 117479, Note_off_c, 1, 66, 0
1, 117498, Note_off_c, 1, 73, 0
1, 117500, Note_on_c, 1, 68, 127
1, 117500, Note_on_c, 1, 71, 127
1, 117668, Note_off_c, 1, 68, 0
1, 117670, Note_on_c, 1, 63, 127
1, 117838, Note_off_c, 1, 63, 0
1, 117840, Note_on_c, 1, 56, 127
1, 117925, Note_off_c, 1, 71, 0
1, 118008, Note_off_c, 1, 56, 0
1, 118010, Note_on_c, 1, 70, 127
1, 118010, Note_on_c, 1, 63, 127
1, 118178, Note_off_c, 1, 70, 0
1, 118178, Note_off_c, 1, 63, 0
1, 118180, Note_on_c, 1, 71, 127
1, 118180, Note_on_c, 1, 68, 127
1, 118348, Note_off_c, 1, 71, 0
1, 118350, Note_on_c, 1, 75, 127
1, 118516, Note_off_c, 1, 68, 0
1, 118518, Note_off_c, 1, 75, 0
1, 118520, Note_on_c, 1, 73, 127
1, 118520, Note_on_c, 1, 70, 127
1, 118688, Note_off_c, 1, 73, 0
1, 118690, Note_on_c, 1, 76, 127
1, 118856, Note_off_c, 1, 70, 0
1, 118858, Note_off_c, 1, 76, 0
1, 118860, Note_on_c, 1, 71, 127
1, 118860, Note_on_c, 1, 75, 127
1, 119028, Note_off_c, 1, 71, 0
1, 119030, Note_on_c, 1, 66, 127
1, 119178, Note_off_c, 1, 75, 0
1, 119197, Note_off_c, 1, 66, 0
1, 119199, Note_on_c, 1, 59, 127
1, 119367, Note_off_c, 1, 59, 0
1, 119369, Note_on_c, 1, 73, 127
1, 119369, Note_on_c, 1, 70, 127
1, 119537, Note_off_c, 1, 73, 0
1, 119537, Note_off_c, 1, 70, 0
1, 119539, Note_on_c, 1, 71, 127
1, 119539, Note_on_c, 1, 75, 127
1, 119707, Note_off_c, 1, 71, 0
1, 119709, Note_on_c, 1, 66, 127
1, 119787, Note_off_c, 1, 75, 0
1, 119877, Note_off_c, 1, 66, 0
1, 119879, Note_on_c, 1, 59, 127
1, 120047, Note_off_c, 1, 59, 0
1, 120049, Note_on_c, 1, 73, 127
1, 120049, Note_on_c, 1, 70, 127
1, 120217, Note_off_c, 1, 73, 0
1, 120217, Note_off_c, 1, 70, 0
1, 120219, Note_on_c, 1, 75, 127
1, 120219, Note_on_c, 1, 71, 127
1, 120387, Note_off_c, 1, 75, 0
1, 120389, Note_on_c, 1, 76, 127
1, 120502, Note_off_c, 1, 71, 0
1, 120557, Note_off_c, 1, 76, 0
1, 120559, Note_on_c, 1, 63, 127
1, 120559, Note_on_c, 1, 78, 127
1, 120728, Note_on_c, 1, 66, 127
1, 120841, Note_off_c, 1, 63, 0
1, 120894, Note_off_c, 1, 78, 0
1, 120896, Note_off_c, 1, 66, 0
1, 120898, Note_on_c, 1, 64, 127
1, 120898, Note_on_c, 1, 68, 127
1, 121067, Note_on_c, 1, 59, 127
1, 121127, Note_off_c, 1, 64, 0
1, 121145, Note_off_c, 1, 68, 0
1, 121235, Note_off_c, 1, 59, 0
1, 121237, Note_on_c, 1, 52, 127
1, 121405, Note_off_c, 1, 52, 0
1, 121407, Note_on_c, 1, 66, 127
1, 121407, Note_on_c, 1, 63, 127
1, 121575, Note_off_c, 1, 66, 0
1, 121575, Note_off_c, 1, 63, 0
1, 121577, Note_on_c, 1, 68, 127
1, 121577, Note_on_c, 1, 64, 127
1, 121745, Note_off_c, 1, 68, 0
1, 121747, Note_on_c, 1, 70, 127
1, 121825, Note_off_c, 1, 64, 0
1, 121915, Note_off_c, 1, 70, 0
1, 121917, Note_on_c, 1, 71, 127
1, 121917, Note_on_c, 1, 63, 127
1, 122085, Note_off_c, 1, 71, 0
1, 122087, Note_on_c, 1, 73, 127
1, 122165, Note_off_c, 1, 63, 0
1, 122255, Note_off_c, 1, 73, 0
1, 122257, Note_on_c, 1, 66, 127
1, 122257, Note_on_c, 1, 70, 127
1, 122425, Note_off_c, 1, 66, 0
1, 122427, Note_on_c, 1, 61, 127
1, 122505, Note_off_c, 1, 70, 0
1, 122597, Note_on_c, 1, 54, 127
1, 122710, Note_off_c, 1, 61, 0
1, 122765, Note_off_c, 1, 54, 0
1, 122767, Note_on_c, 1, 71, 127
1, 122767, Note_on_c, 1, 65, 127
1, 122935, Note_off_c, 1, 71, 0
1, 122935, Note_off_c, 1, 65, 0
1, 122937, Note_on_c, 1, 66, 127
1, 122937, Note_on_c, 1, 70, 127
1, 123105, Note_off_c, 1, 66, 0
1, 123107, Note_on_c, 1, 61, 127
1, 123276, Note_on_c, 1, 54, 127
1, 123431, Note_off_c, 1, 70, 0
1, 123442, Note_off_c, 1, 61, 0
1, 123444, Note_off_c, 1, 54, 0
1, 123446, Note_on_c, 1, 74, 127
1, 123446, Note_on_c, 1, 71, 127
1, 123446, Note_on_c, 1, 65, 127
1, 123614, Note_off_c, 1, 74, 0
1, 123614, Note_off_c, 1, 71, 0
1, 123614, Note_off_c, 1, 65, 0
1, 123616, Note_on_c, 1, 66, 127
1, 123616, Note_on_c, 1, 73, 127
1, 123616, Note_on_c, 1, 70, 127
1, 123784, Note_off_c, 1, 66, 0
1, 123786, Note_on_c, 1, 64, 127
1, 123864, Note_off_c, 1, 73, 0
1, 123954, Note_off_c, 1, 64, 0
1, 123956, Note_on_c, 1, 62, 127
1, 124124, Note_off_c, 1, 70, 0
1, 124124, Note_off_c, 1, 62, 0
1, 124126, Note_on_c, 1, 74, 127
1, 124126, Note_on_c, 1, 64, 127
1, 124126, Note_on_c, 1, 71, 127
1, 124294, Note_off_c, 1, 74, 0
1, 124294, Note_off_c, 1, 64, 0
1, 124296, Note_on_c, 1, 73, 127
1, 124296, Note_on_c, 1, 66, 127
1, 124464, Note_off_c, 1, 71, 0
1, 124544, Note_off_c, 1, 73, 0
1, 124634, Note_off_c, 1, 66, 0
1, 124636, Note_on_c, 1, 70, 127
1, 124636, Note_on_c, 1, 54, 127
1, 124805, Note_on_c, 1, 78, 127
1, 124973, Note_off_c, 1, 70, 0
1, 124973, Note_off_c, 1, 54, 0
1, 124973, Note_off_c, 1, 78, 0
1, 124975, Note_on_c, 1, 71, 127
1, 124975, Note_on_c, 1, 59, 127
1, 124975, Note_on_c, 1, 75, 127
1, 125143, Note_off_c, 1, 71, 0
1, 125143, Note_off_c, 1, 59, 0
1, 125145, Note_on_c, 1, 66, 127
1, 125145, Note_on_c, 1, 47, 127
1, 125313, Note_off_c, 1, 66, 0
1, 125313, Note_off_c, 1, 47, 0
1, 125315, Note_on_c, 1, 51, 127
1, 125483, Note_off_c, 1, 51, 0
1, 125647, Note_off_c, 1, 75, 0
1, 125654, Note_on_c, 1, 52, 127
1, 125654, Note_on_c, 1, 68, 127
1, 125822, Note_off_c, 1, 52, 0
1, 125824, Note_on_c, 1, 71, 127
1, 125824, Note_on_c, 1, 40, 127
1, 125992, Note_off_c, 1, 71, 0
1, 125992, Note_off_c, 1, 40, 0
1, 125994, Note_on_c, 1, 76, 127
1, 125994, Note_on_c, 1, 44, 127
1, 126162, Note_off_c, 1, 76, 0
1, 126162, Note_off_c, 1, 44, 0
1, 126164, Note_on_c, 1, 73, 127
1, 126332, Note_off_c, 1, 68, 0
1, 126332, Note_off_c, 1, 73, 0
1, 126334, Note_on_c, 1, 75, 127
1, 126334, Note_on_c, 1, 66, 127
1, 126334, Note_on_c, 1, 47, 127
1, 126671, Note_off_c, 1, 75, 0
1, 126671, Note_off_c, 1, 66, 0
1, 126671, Note_off_c, 1, 47, 0
1, 126673, Note_on_c, 1, 76, 127
1, 126673, Note_on_c, 1, 68, 127
1, 126673, Note_on_c, 1, 47, 127
1, 127010, Note_off_c, 1, 76, 0
1, 127010, Note_off_c, 1, 68, 0
1, 127010, Note_off_c, 1, 47, 0
1, 127012, Note_on_c, 1, 66, 127
1, 127012, Note_on_c, 1, 47, 127
1, 127012, Note_on_c, 1, 76, 127
1, 127349, Note_off_c, 1, 66, 0
1, 127349, Note_off_c, 1, 47, 0
1, 127351, Note_on_c, 1, 69, 127
1, 127519, Note_off_c, 1, 76, 0
1, 127521, Note_on_c, 1, 75, 127
1, 127689, Note_off_c, 1, 69, 0
1, 127689, Note_off_c, 1, 75, 0
1, 127691, Note_on_c, 1, 76, 127
1, 127691, Note_on_c, 1, 49, 127
1, 127691, Note_on_c, 1, 68, 127
1, 128028, Note_off_c, 1, 76, 0
1, 128028, Note_off_c, 1, 49, 0
1, 128030, Note_on_c, 1, 52, 127
1, 128030, Note_on_c, 1, 73, 127
1, 128198, Note_off_c, 1, 52, 0
1, 128200, Note_on_c, 1, 51, 127
1, 128362, Note_off_c, 1, 68, 0
1, 128367, Note_off_c, 1, 51, 0
1, 128537, Note_off_c, 1, 73, 0
1, 128539, Note_on_c, 1, 71, 127
1, 128707, Note_off_c, 1, 71, 0
1, 128709, Note_on_c, 1, 70, 127
1, 128709, Note_on_c, 1, 54, 127
1, 128877, Note_off_c, 1, 70, 0
1, 128877, Note_off_c, 1, 54, 0
1, 128879, Note_on_c, 1, 68, 127
1, 128879, Note_on_c, 1, 52, 127
1, 129047, Note_off_c, 1, 68, 0
1, 129047, Note_off_c, 1, 52, 0
1, 129049, Note_on_c, 1, 66, 127
1, 129049, Note_on_c, 1, 51, 127
1, 129386, Note_off_c, 1, 66, 0
1, 129386, Note_off_c, 1, 51, 0
1, 129388, Note_on_c, 1, 54, 127
1, 129388, Note_on_c, 1, 75, 127
1, 129556, Note_off_c, 1, 54, 0
1, 129558, Note_on_c, 1, 52, 127
1, 129726, Note_off_c, 1, 52, 0
1, 129728, Note_on_c, 1, 51, 127
1, 129896, Note_off_c, 1, 75, 0
1, 129898, Note_on_c, 1, 73, 127
1, 130066, Note_off_c, 1, 51, 0
1, 130066, Note_off_c, 1, 73, 0
1, 130068, Note_on_c, 1, 71, 127
1, 130068, Note_on_c, 1, 56, 127
1, 130236, Note_off_c, 1, 71, 0
1, 130236, Note_off_c, 1, 56, 0
1, 130238, Note_on_c, 1, 69, 127
1, 130238, Note_on_c, 1, 54, 127
1, 130406, Note_off_c, 1, 69, 0
1, 130406, Note_off_c, 1, 54, 0
1, 130408, Note_on_c, 1, 53, 127
1, 130408, Note_on_c, 1, 68, 127
1, 130576, Note_off_c, 1, 53, 0
1, 130578, Note_on_c, 1, 51, 127
1, 130746, Note_off_c, 1, 68, 0
1, 130746, Note_off_c, 1, 51, 0
1, 130748, Note_on_c, 1, 53, 127
1, 130748, Note_on_c, 1, 73, 127
1, 130916, Note_off_c, 1, 53, 0
1, 130918, Note_on_c, 1, 49, 127
1, 131086, Note_off_c, 1, 49, 0
1, 131088, Note_on_c, 1, 54, 127
1, 131425, Note_off_c, 1, 73, 0
1, 131425, Note_off_c, 1, 54, 0
1, 131427, Note_on_c, 1, 71, 127
1, 131427, Note_on_c, 1, 62, 127
1, 131595, Note_off_c, 1, 71, 0
1, 131597, Note_on_c, 1, 70, 127
1, 131765, Note_off_c, 1, 62, 0
1, 131765, Note_off_c, 1, 70, 0
1, 131767, Note_on_c, 1, 68, 127
1, 131767, Note_on_c, 1, 53, 127
1, 132104, Note_off_c, 1, 68, 0
1, 132104, Note_off_c, 1, 53, 0
1, 132106, Note_on_c, 1, 70, 127
1, 132106, Note_on_c, 1, 54, 127
1, 132217, Note_off_c, 1, 70, 0
1, 132219, Note_on_c, 1, 71, 127
1, 132330, Note_off_c, 1, 71, 0
1, 132332, Note_on_c, 1, 73, 127
1, 132443, Note_off_c, 1, 54, 0
1, 132443, Note_off_c, 1, 73, 0
1, 132445, Note_on_c, 1, 70, 127
1, 132445, Note_on_c, 1, 54, 127
1, 132556, Note_off_c, 1, 70, 0
1, 132558, Note_on_c, 1, 68, 127
1, 132614, Note_off_c, 1, 68, 0
1, 132950, Note_off_c, 1, 54, 0
1, 132952, Note_on_c, 1, 68, 127
1, 132952, Note_on_c, 1, 53, 127
1, 133120, Note_off_c, 1, 68, 0
1, 133120, Note_off_c, 1, 53, 0
1, 133122, Note_on_c, 1, 70, 127
1, 133122, Note_on_c, 1, 54, 127
1, 133290, Note_off_c, 1, 70, 0
1, 133292, Note_on_c, 1, 68, 127
1, 133460, Note_off_c, 1, 68, 0
1, 133462, Note_on_c, 1, 66, 127
1, 133630, Note_off_c, 1, 54, 0
1, 133632, Note_on_c, 1, 56, 127
1, 133800, Note_off_c, 1, 56, 0
1, 133802, Note_on_c, 1, 58, 127
1, 133970, Note_off_c, 1, 66, 0
1, 133970, Note_off_c, 1, 58, 0
1, 133972, Note_on_c, 1, 68, 127
1, 133972, Note_on_c, 1, 59, 127
1, 134140, Note_off_c, 1, 68, 0
1, 134140, Note_off_c, 1, 59, 0
1, 134142, Note_on_c, 1, 70, 127
1, 134142, Note_on_c, 1, 61, 127
1, 134310, Note_off_c, 1, 70, 0
1, 134310, Note_off_c, 1, 61, 0
1, 134312, Note_on_c, 1, 71, 127
1, 134312, Note_on_c, 1, 63, 127
1, 134480, Note_off_c, 1, 71, 0
1, 134480, Note_off_c, 1, 63, 0
1, 134482, Note_on_c, 1, 68, 127
1, 134482, Note_on_c, 1, 64, 127
1, 134650, Note_off_c, 1, 68, 0
1, 134650, Note_off_c, 1, 64, 0
1, 134652, Note_on_c, 1, 70, 127
1, 134652, Note_on_c, 1, 63, 127
1, 134820, Note_off_c, 1, 70, 0
1, 134820, Note_off_c, 1, 63, 0
1, 134822, Note_on_c, 1, 61, 127
1, 134822, Note_on_c, 1, 71, 127
1, 134990, Note_off_c, 1, 61, 0
1, 134992, Note_on_c, 1, 59, 127
1, 135160, Note_off_c, 1, 71, 0
1, 135160, Note_off_c, 1, 59, 0
1, 135162, Note_on_c, 1, 71, 127
1, 135162, Note_on_c, 1, 61, 127
1, 135245, Note_off_c, 1, 71, 0
1, 135259, Note_on_c, 1, 70, 127
1, 135342, Note_off_c, 1, 70, 0
1, 135499, Note_off_c, 1, 61, 0
1, 135501, Note_on_c, 1, 66, 127
1, 135838, Note_off_c, 1, 66, 0
1, 135840, Note_on_c, 1, 71, 127
1, 135840, Note_on_c, 1, 63, 127
1, 136008, Note_off_c, 1, 71, 0
1, 136010, Note_on_c, 1, 70, 127
1, 136178, Note_off_c, 1, 70, 0
1, 136348, Note_off_c, 1, 63, 0
1, 136350, Note_on_c, 1, 73, 127
1, 136350, Note_on_c, 1, 61, 127
1, 136518, Note_off_c, 1, 73, 0
1, 136518, Note_off_c, 1, 61, 0
1, 136520, Note_on_c, 1, 59, 127
1, 136520, Note_on_c, 1, 75, 127
1, 136688, Note_off_c, 1, 59, 0
1, 136690, Note_on_c, 1, 61, 127
1, 136858, Note_off_c, 1, 75, 0
1, 136858, Note_off_c, 1, 61, 0
1, 136860, Note_on_c, 1, 63, 127
1, 136860, Note_on_c, 1, 75, 127
1, 136860, Note_on_c, 1, 71, 127
1, 137028, Note_off_c, 1, 63, 0
1, 137030, Note_on_c, 1, 64, 127
1, 137198, Note_off_c, 1, 75, 0
1, 137198, Note_off_c, 1, 71, 0
1, 137198, Note_off_c, 1, 64, 0
1, 137200, Note_on_c, 1, 73, 127
1, 137200, Note_on_c, 1, 70, 127
1, 137200, Note_on_c, 1, 66, 127
1, 137368, Note_off_c, 1, 73, 0
1, 137370, Note_on_c, 1, 71, 127
1, 137536, Note_off_c, 1, 70, 0
1, 137538, Note_off_c, 1, 66, 0
1, 137538, Note_off_c, 1, 71, 0
1, 137540, Note_on_c, 1, 70, 127
1, 137540, Note_on_c, 1, 66, 127
1, 137708, Note_off_c, 1, 70, 0
1, 137710, Note_on_c, 1, 71, 127
1, 137878, Note_off_c, 1, 66, 0
1, 137878, Note_off_c, 1, 71, 0
1, 137880, Note_on_c, 1, 66, 127
1, 137880, Note_on_c, 1, 73, 127
1, 137880, Note_on_c, 1, 70, 127
1, 138048, Note_off_c, 1, 66, 0
1, 138050, Note_on_c, 1, 64, 127
1, 138218, Note_off_c, 1, 73, 0
1, 138218, Note_off_c, 1, 70, 0
1, 138218, Note_off_c, 1, 64, 0
1, 138220, Note_on_c, 1, 63, 127
1, 138220, Note_on_c, 1, 75, 127
1, 138220, Note_on_c, 1, 71, 127
1, 138388, Note_off_c, 1, 63, 0
1, 138390, Note_on_c, 1, 64, 127
1, 138558, Note_off_c, 1, 75, 0
1, 138558, Note_off_c, 1, 71, 0
1, 138558, Note_off_c, 1, 64, 0
1, 138560, Note_on_c, 1, 73, 127
1, 138560, Note_on_c, 1, 70, 127
1, 138560, Note_on_c, 1, 66, 127
1, 138728, Note_off_c, 1, 73, 0
1, 138730, Note_on_c, 1, 71, 127
1, 138896, Note_off_c, 1, 70, 0
1, 138898, Note_off_c, 1, 66, 0
1, 138898, Note_off_c, 1, 71, 0
1, 138900, Note_on_c, 1, 70, 127
1, 138900, Note_on_c, 1, 66, 127
1, 139068, Note_off_c, 1, 70, 0
1, 139070, Note_on_c, 1, 71, 127
1, 139238, Note_off_c, 1, 66, 0
1, 139238, Note_off_c, 1, 71, 0
1, 139240, Note_on_c, 1, 66, 127
1, 139240, Note_on_c, 1, 73, 127
1, 139240, Note_on_c, 1, 70, 127
1, 139408, Note_off_c, 1, 66, 0
1, 139410, Note_on_c, 1, 64, 127
1, 139578, Note_off_c, 1, 73, 0
1, 139578, Note_off_c, 1, 70, 0
1, 139578, Note_off_c, 1, 64, 0
1, 139580, Note_on_c, 1, 63, 127
1, 139580, Note_on_c, 1, 75, 127
1, 139580, Note_on_c, 1, 71, 127
1, 139748, Note_off_c, 1, 63, 0
1, 139750, Note_on_c, 1, 64, 127
1, 139918, Note_off_c, 1, 75, 0
1, 139918, Note_off_c, 1, 71, 0
1, 139918, Note_off_c, 1, 64, 0
1, 139920, Note_on_c, 1, 73, 127
1, 139920, Note_on_c, 1, 70, 127
1, 139920, Note_on_c, 1, 66, 127
1, 140088, Note_off_c, 1, 73, 0
1, 140090, Note_on_c, 1, 71, 127
1, 140256, Note_off_c, 1, 70, 0
1, 140258, Note_off_c, 1, 66, 0
1, 140258, Note_off_c, 1, 71, 0
1, 140260, Note_on_c, 1, 70, 127
1, 140260, Note_on_c, 1, 66, 127
1, 140428, Note_off_c, 1, 70, 0
1, 140430, Note_on_c, 1, 71, 127
1, 140598, Note_off_c, 1, 66, 0
1, 140598, Note_off_c, 1, 71, 0
1, 140600, Note_on_c, 1, 73, 127
1, 140600, Note_on_c, 1, 70, 127
1, 140600, Note_on_c, 1, 66, 127
1, 140768, Note_off_c, 1, 73, 0
1, 140770, Note_on_c, 1, 75, 127
1, 140938, Note_off_c, 1, 70, 0
1, 140938, Note_off_c, 1, 66, 0
1, 140938, Note_off_c, 1, 75, 0
1, 140940, Note_on_c, 1, 76, 127
1, 140940, Note_on_c, 1, 73, 127
1, 140940, Note_on_c, 1, 66, 127
1, 141108, Note_off_c, 1, 76, 0
1, 141110, Note_on_c, 1, 78, 127
1, 141278, Note_off_c, 1, 73, 0
1, 141278, Note_off_c, 1, 66, 0
1, 141278, Note_off_c, 1, 78, 0
1, 141280, Note_on_c, 1, 75, 127
1, 141280, Note_on_c, 1, 72, 127
1, 141280, Note_on_c, 1, 68, 127
1, 141448, Note_off_c, 1, 75, 0
1, 141450, Note_on_c, 1, 73, 127
1, 141616, Note_off_c, 1, 72, 0
1, 141618, Note_off_c, 1, 68, 0
1, 141618, Note_off_c, 1, 73, 0
1, 141620, Note_on_c, 1, 72, 127
1, 141620, Note_on_c, 1, 68, 127
1, 141788, Note_off_c, 1, 72, 0
1, 141790, Note_on_c, 1, 73, 127
1, 141958, Note_off_c, 1, 68, 0
1, 141958, Note_off_c, 1, 73, 0
1, 141960, Note_on_c, 1, 68, 127
1, 141960, Note_on_c, 1, 75, 127
1, 141960, Note_on_c, 1, 72, 127
1, 142128, Note_off_c, 1, 68, 0
1, 142130, Note_on_c, 1, 66, 127
1, 142298, Note_off_c, 1, 75, 0
1, 142298, Note_off_c, 1, 72, 0
1, 142298, Note_off_c, 1, 66, 0
1, 142300, Note_on_c, 1, 64, 127
1, 142300, Note_on_c, 1, 76, 127
1, 142300, Note_on_c, 1, 73, 127
1, 142468, Note_off_c, 1, 64, 0
1, 142470, Note_on_c, 1, 66, 127
1, 142638, Note_off_c, 1, 76, 0
1, 142638, Note_off_c, 1, 73, 0
1, 142638, Note_off_c, 1, 66, 0
1, 142640, Note_on_c, 1, 75, 127
1, 142640, Note_on_c, 1, 72, 127
1, 142640, Note_on_c, 1, 68, 127
1, 142808, Note_off_c, 1, 75, 0
1, 142810, Note_on_c, 1, 73, 127
1, 142976, Note_off_c, 1, 72, 0
1, 142978, Note_off_c, 1, 68, 0
1, 142978, Note_off_c, 1, 73, 0
1, 142980, Note_on_c, 1, 72, 127
1, 142980, Note_on_c, 1, 68, 127
1, 143148, Note_off_c, 1, 72, 0
1, 143150, Note_on_c, 1, 73, 127
1, 143318, Note_off_c, 1, 68, 0
1, 143318, Note_off_c, 1, 73, 0
1, 143320, Note_on_c, 1, 68, 127
1, 143320, Note_on_c, 1, 75, 127
1, 143320, Note_on_c, 1, 72, 127
1, 143488, Note_off_c, 1, 68, 0
1, 143490, Note_on_c, 1, 66, 127
1, 143658, Note_off_c, 1, 75, 0
1, 143658, Note_off_c, 1, 72, 0
1, 143658, Note_off_c, 1, 66, 0
1, 143660, Note_on_c, 1, 64, 127
1, 143660, Note_on_c, 1, 76, 127
1, 143660, Note_on_c, 1, 73, 127
1, 143828, Note_off_c, 1, 64, 0
1, 143830, Note_on_c, 1, 66, 127
1, 143998, Note_off_c, 1, 76, 0
1, 143998, Note_off_c, 1, 73, 0
1, 143998, Note_off_c, 1, 66, 0
1, 144000, Note_on_c, 1, 75, 127
1, 144000, Note_on_c, 1, 72, 127
1, 144000, Note_on_c, 1, 68, 127
1, 144168, Note_off_c, 1, 75, 0
1, 144170, Note_on_c, 1, 78, 127
1, 144336, Note_off_c, 1, 72, 0
1, 144338, Note_off_c, 1, 78, 0
1, 144340, Note_on_c, 1, 81, 127
1, 144495, Note_off_c, 1, 68, 0
1, 144507, Note_off_c, 1, 81, 0
1, 144509, Note_on_c, 1, 80, 127
1, 144677, Note_off_c, 1, 80, 0
1, 144679, Note_on_c, 1, 78, 127
1, 144848, Note_on_c, 1, 73, 127
1, 144848, Note_on_c, 1, 69, 127
1, 145016, Note_off_c, 1, 73, 0
1, 145016, Note_off_c, 1, 69, 0
1, 145018, Note_on_c, 1, 74, 127
1, 145018, Note_on_c, 1, 68, 127
1, 145186, Note_off_c, 1, 74, 0
1, 145186, Note_off_c, 1, 68, 0
1, 145188, Note_on_c, 1, 66, 127
1, 145356, Note_off_c, 1, 66, 0
1, 145358, Note_on_c, 1, 72, 127
1, 145526, Note_off_c, 1, 78, 0
1, 145528, Note_on_c, 1, 80, 127
1, 145696, Note_off_c, 1, 72, 0
1, 145696, Note_off_c, 1, 80, 0
1, 145698, Note_on_c, 1, 76, 127
1, 145698, Note_on_c, 1, 73, 127
1, 145698, Note_on_c, 1, 61, 127
1, 145866, Note_off_c, 1, 76, 0
1, 145868, Note_on_c, 1, 78, 127
1, 146036, Note_off_c, 1, 73, 0
1, 146036, Note_off_c, 1, 61, 0
1, 146036, Note_off_c, 1, 78, 0
1, 146038, Note_on_c, 1, 68, 127
1, 146038, Note_on_c, 1, 75, 127
1, 146038, Note_on_c, 1, 72, 127
1, 146375, Note_off_c, 1, 68, 0
1, 146377, Note_on_c, 1, 56, 127
1, 146545, Note_off_c, 1, 75, 0
1, 146547, Note_on_c, 1, 73, 127
1, 146713, Note_off_c, 1, 56, 0
1, 146715, Note_off_c, 1, 72, 0
1, 146715, Note_off_c, 1, 73, 0
1, 146717, Note_on_c, 1, 61, 127
1, 146717, Note_on_c, 1, 73, 127
1, 146886, Note_on_c, 1, 49, 127
1, 147054, Note_off_c, 1, 49, 0
1, 147056, Note_on_c, 1, 52, 127
1, 147224, Note_off_c, 1, 61, 0
1, 147224, Note_off_c, 1, 73, 0
1, 147224, Note_off_c, 1, 52, 0
1, 147226, Note_on_c, 1, 73, 127
1, 147226, Note_on_c, 1, 64, 127
1, 147226, Note_on_c, 1, 68, 127
1, 147226, Note_on_c, 1, 49, 127
1, 147394, Note_off_c, 1, 73, 0
1, 147394, Note_off_c, 1, 64, 0
1, 147394, Note_off_c, 1, 68, 0
1, 147394, Note_off_c, 1, 49, 0
1, 147396, Note_on_c, 1, 56, 127
1, 147396, Note_on_c, 1, 63, 127
1, 147396, Note_on_c, 1, 68, 127
1, 147396, Note_on_c, 1, 72, 127
1, 147564, Note_off_c, 1, 56, 0
1, 147566, Note_on_c, 1, 44, 127
1, 147734, Note_off_c, 1, 44, 0
1, 147736, Note_on_c, 1, 48, 127
1, 147891, Note_off_c, 1, 63, 0
1, 147891, Note_off_c, 1, 68, 0
1, 147903, Note_off_c, 1, 72, 0
1, 147903, Note_off_c, 1, 48, 0
1, 147905, Note_on_c, 1, 72, 127
1, 147905, Note_on_c, 1, 44, 127
1, 148073, Note_off_c, 1, 72, 0
1, 148073, Note_off_c, 1, 44, 0
1, 148075, Note_on_c, 1, 76, 127
1, 148075, Note_on_c, 1, 49, 127
1, 148243, Note_off_c, 1, 76, 0
1, 148245, Note_on_c, 1, 75, 127
1, 148413, Note_off_c, 1, 49, 0
1, 148413, Note_off_c, 1, 75, 0
1, 148415, Note_on_c, 1, 73, 127
1, 148415, Note_on_c, 1, 49, 127
1, 148583, Note_off_c, 1, 73, 0
1, 148585, Note_on_c, 1, 75, 127
1, 148753, Note_off_c, 1, 49, 0
1, 148753, Note_off_c, 1, 75, 0
1, 148755, Note_on_c, 1, 76, 127
1, 148755, Note_on_c, 1, 49, 127
1, 149092, Note_off_c, 1, 76, 0
1, 149092, Note_off_c, 1, 49, 0
1, 149094, Note_on_c, 1, 75, 127
1, 149094, Note_on_c, 1, 49, 127
1, 149262, Note_off_c, 1, 75, 0
1, 149264, Note_on_c, 1, 73, 127
1, 149432, Note_off_c, 1, 49, 0
1, 149432, Note_off_c, 1, 73, 0
1, 149434, Note_on_c, 1, 51, 127
1, 149434, Note_on_c, 1, 78, 127
1, 149771, Note_off_c, 1, 51, 0
1, 149773, Note_on_c, 1, 54, 127
1, 149773, Note_on_c, 1, 72, 127
1, 149941, Note_off_c, 1, 54, 0
1, 149943, Note_on_c, 1, 52, 127
1, 150111, Note_off_c, 1, 78, 0
1, 150111, Note_off_c, 1, 52, 0
1, 150268, Note_off_c, 1, 72, 0
1, 150452, Note_on_c, 1, 56, 127
1, 150620, Note_off_c, 1, 56, 0
1, 150792, Note_on_c, 1, 80, 127
1, 151131, Note_on_c, 1, 73, 127
1, 151469, Note_off_c, 1, 80, 0
1, 151626, Note_off_c, 1, 73, 0
1, 151810, Note_on_c, 1, 57, 127
1, 151810, Note_on_c, 1, 76, 127
1, 151810, Note_on_c, 1, 73, 127
1, 151978, Note_off_c, 1, 57, 0
1, 151980, Note_on_c, 1, 56, 127
1, 152148, Note_off_c, 1, 76, 0
1, 152148, Note_off_c, 1, 56, 0
1, 152150, Note_on_c, 1, 55, 127
1, 152150, Note_on_c, 1, 75, 127
1, 152318, Note_off_c, 1, 55, 0
1, 152320, Note_on_c, 1, 53, 127
1, 152488, Note_off_c, 1, 73, 0
1, 152488, Note_off_c, 1, 53, 0
1, 152660, Note_on_c, 1, 51, 127
1, 152828, Note_off_c, 1, 51, 0
1, 152830, Note_on_c, 1, 71, 127
1, 153165, Note_off_c, 1, 71, 0
1, 153167, Note_off_c, 1, 75, 0
1, 153169, Note_on_c, 1, 64, 127
1, 153839, Note_off_c, 1, 64, 0
1, 153846, Note_on_c, 1, 75, 127
1, 153846, Note_on_c, 1, 71, 127
1, 153846, Note_on_c, 1, 56, 127
1, 154014, Note_off_c, 1, 75, 0
1, 154016, Note_on_c, 1, 76, 127
1, 154182, Note_off_c, 1, 71, 0
1, 154184, Note_off_c, 1, 76, 0
1, 154186, Note_on_c, 1, 73, 127
1, 154186, Note_on_c, 1, 70, 127
1, 154354, Note_off_c, 1, 73, 0
1, 154524, Note_off_c, 1, 56, 0
1, 154526, Note_on_c, 1, 55, 127
1, 154858, Note_off_c, 1, 70, 0
1, 154863, Note_off_c, 1, 55, 0
1, 154865, Note_on_c, 1, 68, 127
1, 154865, Note_on_c, 1, 71, 127
1, 154865, Note_on_c, 1, 56, 127
1, 155033, Note_off_c, 1, 68, 0
1, 155033, Note_off_c, 1, 71, 0
1, 155537, Note_off_c, 1, 56, 0
1, 155544, Note_on_c, 1, 75, 127
1, 155712, Note_off_c, 1, 75, 0
1, 155714, Note_on_c, 1, 63, 127
1, 155882, Note_off_c, 1, 63, 0
1, 155884, Note_on_c, 1, 67, 127
1, 155884, Note_on_c, 1, 58, 127
1, 155884, Note_on_c, 1, 51, 127
1, 156053, Note_on_c, 1, 63, 127
1, 156221, Note_off_c, 1, 67, 0
1, 156221, Note_off_c, 1, 58, 0
1, 156221, Note_off_c, 1, 51, 0
1, 156223, Note_on_c, 1, 68, 127
1, 156223, Note_on_c, 1, 52, 127
1, 156223, Note_on_c, 1, 56, 127
1, 156560, Note_off_c, 1, 63, 0
1, 156560, Note_off_c, 1, 68, 0
1, 156562, Note_on_c, 1, 64, 127
1, 156730, Note_off_c, 1, 64, 0
1, 156900, Note_off_c, 1, 52, 0
1, 156902, Note_on_c, 1, 62, 127
1, 156902, Note_on_c, 1, 53, 127
1, 157071, Note_off_c, 1, 56, 0
1, 157071, Note_on_c, 1, 59, 127
1, 157239, Note_off_c, 1, 59, 0
1, 157579, Note_off_c, 1, 62, 0
1, 157579, Note_off_c, 1, 53, 0
1, 157581, Note_on_c, 1, 70, 127
1, 157581, Note_on_c, 1, 63, 127
1, 157581, Note_on_c, 1, 51, 127
1, 157581, Note_on_c, 1, 55, 127
1, 157918, Note_off_c, 1, 70, 0
1, 157920, Note_on_c, 1, 73, 127
1, 158088, Note_off_c, 1, 73, 0
1, 158090, Note_on_c, 1, 71, 127
1, 158258, Note_off_c, 1, 71, 0
1, 158429, Note_off_c, 1, 63, 0
1, 158429, Note_off_c, 1, 51, 0
1, 158429, Note_off_c, 1, 55, 0
1, 158599, Note_on_c, 1, 75, 127
1, 158599, Note_on_c, 1, 63, 127
1, 158599, Note_on_c, 1, 55, 127
1, 158599, Note_on_c, 1, 51, 127
1, 158767, Note_off_c, 1, 75, 0
1, 158769, Note_on_c, 1, 73, 127
1, 158937, Note_off_c, 1, 63, 0
1, 158937, Note_off_c, 1, 55, 0
1, 158937, Note_off_c, 1, 51, 0
1, 158937, Note_off_c, 1, 73, 0
1, 158939, Note_on_c, 1, 72, 127
1, 158939, Note_on_c, 1, 63, 127
1, 158939, Note_on_c, 1, 56, 127
1, 158939, Note_on_c, 1, 44, 127
1, 159276, Note_off_c, 1, 72, 0
1, 159278, Note_on_c, 1, 75, 127
1, 159446, Note_off_c, 1, 75, 0
1, 159448, Note_on_c, 1, 73, 127
1, 159616, Note_off_c, 1, 73, 0
1, 159787, Note_off_c, 1, 63, 0
1, 159787, Note_off_c, 1, 56, 0
1, 159787, Note_off_c, 1, 44, 0
1, 159957, Note_on_c, 1, 77, 127
1, 159957, Note_on_c, 1, 56, 127
1, 159957, Note_on_c, 1, 59, 127
1, 160125, Note_off_c, 1, 77, 0
1, 160127, Note_on_c, 1, 75, 127
1, 160295, Note_off_c, 1, 56, 0
1, 160295, Note_off_c, 1, 59, 0
1, 160295, Note_off_c, 1, 75, 0
1, 160297, Note_on_c, 1, 74, 127
1, 160297, Note_on_c, 1, 58, 127
1, 160465, Note_off_c, 1, 74, 0
1, 160467, Note_on_c, 1, 72, 127
1, 160635, Note_off_c, 1, 72, 0
1, 160637, Note_on_c, 1, 56, 127
1, 160807, Note_on_c, 1, 70, 127
1, 160975, Note_off_c, 1, 56, 0
1, 160975, Note_off_c, 1, 70, 0
1, 160977, Note_on_c, 1, 75, 127
1, 160977, Note_on_c, 1, 54, 127
1, 161314, Note_off_c, 1, 58, 0
1, 161314, Note_off_c, 1, 75, 0
1, 161316, Note_on_c, 1, 83, 127
1, 161653, Note_off_c, 1, 54, 0
1, 161653, Note_off_c, 1, 83, 0
1, 161655, Note_on_c, 1, 73, 127
1, 161655, Note_on_c, 1, 53, 127
1, 161992, Note_off_c, 1, 73, 0
1, 161992, Note_off_c, 1, 53, 0
1, 161994, Note_on_c, 1, 75, 127
1, 161994, Note_on_c, 1, 58, 127
1, 161994, Note_on_c, 1, 54, 127
1, 162162, Note_off_c, 1, 75, 0
1, 162164, Note_on_c, 1, 73, 127
1, 162332, Note_off_c, 1, 58, 0
1, 162332, Note_off_c, 1, 54, 0
1, 162332, Note_off_c, 1, 73, 0
1, 162334, Note_on_c, 1, 71, 127
1, 162334, Note_on_c, 1, 56, 127
1, 162334, Note_on_c, 1, 44, 127
1, 162502, Note_off_c, 1, 71, 0
1, 162504, Note_on_c, 1, 73, 127
1, 162672, Note_off_c, 1, 56, 0
1, 162672, Note_off_c, 1, 44, 0
1, 162672, Note_off_c, 1, 73, 0
1, 162674, Note_on_c, 1, 70, 127
1, 162674, Note_on_c, 1, 54, 127
1, 162674, Note_on_c, 1, 46, 127
1, 162842, Note_off_c, 1, 70, 0
1, 162844, Note_on_c, 1, 71, 127
1, 163012, Note_off_c, 1, 54, 0
1, 163012, Note_off_c, 1, 46, 0
1, 163012, Note_off_c, 1, 71, 0
1, 163014, Note_on_c, 1, 68, 127
1, 163014, Note_on_c, 1, 53, 127
1, 163014, Note_on_c, 1, 47, 127
1, 163182, Note_off_c, 1, 68, 0
1, 163184, Note_on_c, 1, 70, 127
1, 163352, Note_off_c, 1, 53, 0
1, 163352, Note_off_c, 1, 47, 0
1, 163352, Note_off_c, 1, 70, 0
1, 163354, Note_on_c, 1, 66, 127
1, 163354, Note_on_c, 1, 44, 127
1, 163354, Note_on_c, 1, 51, 127
1, 163522, Note_off_c, 1, 66, 0
1, 163524, Note_on_c, 1, 68, 127
1, 163692, Note_off_c, 1, 44, 0
1, 163692, Note_off_c, 1, 68, 0
1, 163694, Note_on_c, 1, 46, 127
1, 163751, Note_on_c, 1, 65, 127
1, 163806, Note_off_c, 1, 65, 0
1, 164033, Note_off_c, 1, 51, 0
1, 164035, Note_on_c, 1, 50, 127
1, 164204, Note_on_c, 1, 63, 127
1, 164372, Note_off_c, 1, 46, 0
1, 164372, Note_off_c, 1, 50, 0
1, 164372, Note_off_c, 1, 63, 0
1, 164374, Note_on_c, 1, 51, 127
1, 164374, Note_on_c, 1, 63, 127
1, 164374, Note_on_c, 1, 47, 127
1, 164711, Note_off_c, 1, 51, 0
1, 164713, Note_on_c, 1, 56, 127
1, 165050, Note_off_c, 1, 63, 0
1, 165050, Note_off_c, 1, 47, 0
1, 165052, Note_on_c, 1, 65, 127
1, 165052, Note_on_c, 1, 49, 127
1, 165389, Note_off_c, 1, 56, 0
1, 165391, Note_on_c, 1, 58, 127
1, 165728, Note_off_c, 1, 65, 0
1, 165728, Note_off_c, 1, 49, 0
1, 165730, Note_on_c, 1, 67, 127
1, 166067, Note_off_c, 1, 58, 0
1, 166067, Note_off_c, 1, 67, 0
1, 166069, Note_on_c, 1, 68, 127
1, 166069, Note_on_c, 1, 52, 127
1, 166069, Note_on_c, 1, 56, 127
1, 166237, Note_off_c, 1, 68, 0
1, 166239, Note_on_c, 1, 70, 127
1, 166407, Note_off_c, 1, 52, 0
1, 166407, Note_off_c, 1, 70, 0
1, 166409, Note_on_c, 1, 71, 127
1, 166409, Note_on_c, 1, 49, 127
1, 166522, Note_off_c, 1, 71, 0
1, 166748, Note_off_c, 1, 56, 0
1, 166748, Note_off_c, 1, 49, 0
1, 166750, Note_on_c, 1, 70, 127
1, 166750, Note_on_c, 1, 55, 127
1, 166750, Note_on_c, 1, 51, 127
1, 167004, Note_off_c, 1, 70, 0
1, 167004, Note_on_c, 1, 68, 127
1, 167087, Note_off_c, 1, 55, 0
1, 167087, Note_off_c, 1, 51, 0
1, 167087, Note_off_c, 1, 68, 0
1, 167089, Note_on_c, 1, 56, 127
1, 167089, Note_on_c, 1, 68, 127
1, 167089, Note_on_c, 1, 52, 127
1, 167426, Note_off_c, 1, 56, 0
1, 167428, Note_on_c, 1, 61, 127
1, 167765, Note_off_c, 1, 68, 0
1, 167765, Note_off_c, 1, 52, 0
1, 167767, Note_on_c, 1, 70, 127
1, 167767, Note_on_c, 1, 54, 127
1, 168104, Note_off_c, 1, 61, 0
1, 168106, Note_on_c, 1, 63, 127
1, 168443, Note_off_c, 1, 70, 0
1, 168443, Note_off_c, 1, 54, 0
1, 168445, Note_on_c, 1, 72, 127
1, 168782, Note_off_c, 1, 63, 0
1, 168782, Note_off_c, 1, 72, 0
1, 168784, Note_on_c, 1, 73, 127
1, 168784, Note_on_c, 1, 57, 127
1, 168784, Note_on_c, 1, 61, 127
1, 168952, Note_off_c, 1, 73, 0
1, 168954, Note_on_c, 1, 75, 127
1, 169122, Note_off_c, 1, 57, 0
1, 169122, Note_off_c, 1, 75, 0
1, 169124, Note_on_c, 1, 76, 127
1, 169124, Note_on_c, 1, 54, 127
1, 169180, Note_off_c, 1, 76, 0
1, 169463, Note_off_c, 1, 61, 0
1, 169463, Note_off_c, 1, 54, 0
1, 169465, Note_on_c, 1, 60, 127
1, 169465, Note_on_c, 1, 56, 127
1, 169801, Note_off_c, 1, 60, 0
1, 169801, Note_off_c, 1, 56, 0
1, 169803, Note_on_c, 1, 61, 127
1, 169803, Note_on_c, 1, 73, 127
1, 169803, Note_on_c, 1, 58, 127
1, 170140, Note_off_c, 1, 61, 0
1, 170142, Note_on_c, 1, 66, 127
1, 170479, Note_off_c, 1, 73, 0
1, 170479, Note_off_c, 1, 58, 0
1, 170481, Note_on_c, 1, 75, 127
1, 170481, Note_on_c, 1, 60, 127
1, 170818, Note_off_c, 1, 66, 0
1, 170820, Note_on_c, 1, 68, 127
1, 171157, Note_off_c, 1, 75, 0
1, 171157, Note_off_c, 1, 60, 0
1, 171159, Note_on_c, 1, 77, 127
1, 171496, Note_off_c, 1, 68, 0
1, 171496, Note_off_c, 1, 77, 0
1, 171498, Note_on_c, 1, 78, 127
1, 171666, Note_off_c, 1, 78, 0
1, 171668, Note_on_c, 1, 80, 127
1, 171836, Note_off_c, 1, 80, 0
1, 172178, Note_on_c, 1, 65, 127
1, 172178, Note_on_c, 1, 59, 127
1, 172516, Note_off_c, 1, 65, 0
1, 172516, Note_off_c, 1, 59, 0
1, 172518, Note_on_c, 1, 66, 127
1, 172518, Note_on_c, 1, 78, 127
1, 172518, Note_on_c, 1, 58, 127
1, 172687, Note_on_c, 1, 70, 127
1, 172853, Note_off_c, 1, 66, 0
1, 172855, Note_off_c, 1, 70, 0
1, 172857, Note_on_c, 1, 73, 127
1, 172857, Note_on_c, 1, 64, 127
1, 173025, Note_off_c, 1, 73, 0
1, 173193, Note_off_c, 1, 64, 0
1, 173195, Note_off_c, 1, 78, 0
1, 173195, Note_off_c, 1, 58, 0
1, 173197, Note_on_c, 1, 75, 127
1, 173197, Note_on_c, 1, 63, 127
1, 173197, Note_on_c, 1, 59, 127
1, 173197, Note_on_c, 1, 78, 127
1, 173365, Note_off_c, 1, 75, 0
1, 173365, Note_off_c, 1, 63, 0
1, 173536, Note_on_c, 1, 66, 127
1, 173704, Note_off_c, 1, 66, 0
1, 173874, Note_off_c, 1, 59, 0
1, 173876, Note_on_c, 1, 68, 127
1, 173876, Note_on_c, 1, 52, 127
1, 174213, Note_off_c, 1, 68, 0
1, 174215, Note_on_c, 1, 57, 127
1, 174383, Note_off_c, 1, 57, 0
1, 174385, Note_on_c, 1, 56, 127
1, 174547, Note_off_c, 1, 52, 0
1, 174552, Note_off_c, 1, 78, 0
1, 174552, Note_off_c, 1, 56, 0
1, 174554, Note_on_c, 1, 68, 127
1, 174554, Note_on_c, 1, 61, 127
1, 174554, Note_on_c, 1, 76, 127
1, 174891, Note_off_c, 1, 68, 0
1, 174893, Note_on_c, 1, 52, 127
1, 175230, Note_off_c, 1, 52, 0
1, 175232, Note_on_c, 1, 70, 127
1, 175232, Note_on_c, 1, 54, 127
1, 175569, Note_off_c, 1, 70, 0
1, 175571, Note_on_c, 1, 73, 127
1, 175739, Note_off_c, 1, 73, 0
1, 175741, Note_on_c, 1, 71, 127
1, 175909, Note_off_c, 1, 61, 0
1, 175909, Note_off_c, 1, 71, 0
1, 176080, Note_off_c, 1, 54, 0
1, 176248, Note_off_c, 1, 76, 0
1, 176250, Note_on_c, 1, 78, 127
1, 176418, Note_off_c, 1, 78, 0
1, 176589, Note_on_c, 1, 75, 127
1, 176589, Note_on_c, 1, 47, 127
1, 176589, Note_on_c, 1, 59, 127
1, 176928, Note_on_c, 1, 71, 127
1, 177096, Note_off_c, 1, 71, 0
1, 177098, Note_on_c, 1, 69, 127
1, 177260, Note_off_c, 1, 75, 0
1, 177265, Note_off_c, 1, 47, 0
1, 177265, Note_off_c, 1, 59, 0
1, 177265, Note_off_c, 1, 69, 0
1, 177267, Note_on_c, 1, 68, 127
1, 177267, Note_on_c, 1, 52, 127
1, 177606, Note_on_c, 1, 73, 127
1, 177606, Note_on_c, 1, 64, 127
1, 177774, Note_off_c, 1, 73, 0
1, 177774, Note_off_c, 1, 64, 0
1, 177776, Note_on_c, 1, 71, 127
1, 177776, Note_on_c, 1, 63, 127
1, 177938, Note_off_c, 1, 68, 0
1, 177943, Note_off_c, 1, 71, 0
1, 177943, Note_off_c, 1, 63, 0
1, 177945, Note_on_c, 1, 70, 127
1, 177945, Note_on_c, 1, 61, 127
1, 178114, Note_on_c, 1, 66, 127
1, 178282, Note_off_c, 1, 52, 0
1, 178282, Note_off_c, 1, 70, 0
1, 178282, Note_off_c, 1, 61, 0
1, 178284, Note_on_c, 1, 51, 127
1, 178284, Note_on_c, 1, 59, 127
1, 178452, Note_off_c, 1, 66, 0
1, 178622, Note_off_c, 1, 51, 0
1, 178794, Note_on_c, 1, 69, 127
1, 178962, Note_off_c, 1, 69, 0
1, 179302, Note_off_c, 1, 59, 0
1, 179304, Note_on_c, 1, 64, 127
1, 179304, Note_on_c, 1, 70, 127
1, 179304, Note_on_c, 1, 61, 127
1, 179304, Note_on_c, 1, 49, 127
1, 179472, Note_off_c, 1, 64, 0
1, 179474, Note_on_c, 1, 66, 127
1, 179642, Note_off_c, 1, 70, 0
1, 179642, Note_off_c, 1, 61, 0
1, 179642, Note_off_c, 1, 49, 0
1, 179642, Note_off_c, 1, 66, 0
1, 179644, Note_on_c, 1, 63, 127
1, 179644, Note_on_c, 1, 54, 127
1, 179644, Note_on_c, 1, 47, 127
1, 179644, Note_on_c, 1, 71, 127
1, 179812, Note_off_c, 1, 63, 0
1, 179814, Note_on_c, 1, 64, 127
1, 179982, Note_off_c, 1, 54, 0
1, 179982, Note_off_c, 1, 47, 0
1, 179982, Note_off_c, 1, 64, 0
1, 179984, Note_on_c, 1, 61, 127
1, 180321, Note_off_c, 1, 71, 0
1, 180323, Note_on_c, 1, 42, 127
1, 180323, Note_on_c, 1, 69, 127
1, 180491, Note_off_c, 1, 61, 0
1, 180660, Note_off_c, 1, 42, 0
1, 180662, Note_on_c, 1, 44, 127
1, 180662, Note_on_c, 1, 59, 127
1, 180997, Note_off_c, 1, 44, 0
1, 180999, Note_off_c, 1, 69, 0
1, 181001, Note_on_c, 1, 68, 127
1, 181169, Note_off_c, 1, 68, 0
1, 181333, Note_off_c, 1, 59, 0
1, 181340, Note_on_c, 1, 45, 127
1, 181340, Note_on_c, 1, 73, 127
1, 181677, Note_off_c, 1, 45, 0
1, 181679, Note_on_c, 1, 57, 127
1, 181847, Note_off_c, 1, 57, 0
1, 181849, Note_on_c, 1, 61, 127
1, 182017, Note_off_c, 1, 61, 0
1, 182019, Note_on_c, 1, 47, 127
1, 182019, Note_on_c, 1, 63, 127
1, 182354, Note_off_c, 1, 47, 0
1, 182356, Note_off_c, 1, 73, 0
1, 182358, Note_on_c, 1, 71, 127
1, 182526, Note_off_c, 1, 71, 0
1, 182528, Note_on_c, 1, 75, 127
1, 182690, Note_off_c, 1, 63, 0
1, 182695, Note_off_c, 1, 75, 0
1, 182697, Note_on_c, 1, 49, 127
1, 182697, Note_on_c, 1, 76, 127
1, 183032, Note_off_c, 1, 49, 0
1, 183036, Note_on_c, 1, 61, 127
1, 183204, Note_off_c, 1, 61, 0
1, 183206, Note_on_c, 1, 64, 127
1, 183374, Note_off_c, 1, 64, 0
1, 183376, Note_on_c, 1, 51, 127
1, 183376, Note_on_c, 1, 66, 127
1, 183711, Note_off_c, 1, 51, 0
1, 183713, Note_off_c, 1, 76, 0
1, 183715, Note_on_c, 1, 75, 127
1, 183883, Note_off_c, 1, 75, 0
1, 183885, Note_on_c, 1, 78, 127
1, 184047, Note_off_c, 1, 66, 0
1, 184052, Note_off_c, 1, 78, 0
1, 184054, Note_on_c, 1, 52, 127
1, 184054, Note_on_c, 1, 80, 127
1, 184389, Note_off_c, 1, 52, 0
1, 184393, Note_on_c, 1, 64, 127
1, 184561, Note_off_c, 1, 64, 0
1, 184563, Note_on_c, 1, 68, 127
1, 184731, Note_off_c, 1, 68, 0
1, 184733, Note_on_c, 1, 54, 127
1, 184733, Note_on_c, 1, 69, 127
1, 185068, Note_off_c, 1, 54, 0
1, 185070, Note_off_c, 1, 80, 0
1, 185072, Note_on_c, 1, 78, 127
1, 185240, Note_off_c, 1, 78, 0
1, 185242, Note_on_c, 1, 81, 127
1, 185404, Note_off_c, 1, 69, 0
1, 185409, Note_off_c, 1, 81, 0
1, 185411, Note_on_c, 1, 56, 127
1, 185411, Note_on_c, 1, 83, 127
1, 185746, Note_off_c, 1, 56, 0
1, 185750, Note_on_c, 1, 68, 127
1, 185918, Note_off_c, 1, 68, 0
1, 185920, Note_on_c, 1, 71, 127
1, 186088, Note_off_c, 1, 71, 0
1, 186090, Note_on_c, 1, 73, 127
1, 186090, Note_on_c, 1, 57, 127
1, 186427, Note_off_c, 1, 83, 0
1, 186429, Note_on_c, 1, 81, 127
1, 186597, Note_off_c, 1, 73, 0
1, 186597, Note_off_c, 1, 81, 0
1, 186599, Note_on_c, 1, 80, 127
1, 186761, Note_off_c, 1, 57, 0
1, 186766, Note_off_c, 1, 80, 0
1, 186768, Note_on_c, 1, 78, 127
1, 186768, Note_on_c, 1, 69, 127
1, 186936, Note_off_c, 1, 78, 0
1, 186936, Note_off_c, 1, 69, 0
1, 186938, Note_on_c, 1, 76, 127
1, 186938, Note_on_c, 1, 68, 127
1, 187106, Note_off_c, 1, 76, 0
1, 187106, Note_off_c, 1, 68, 0
1, 187108, Note_on_c, 1, 75, 127
1, 187108, Note_on_c, 1, 66, 127
1, 187108, Note_on_c, 1, 57, 127
1, 187276, Note_off_c, 1, 75, 0
1, 187276, Note_off_c, 1, 66, 0
1, 187278, Note_on_c, 1, 73, 127
1, 187278, Note_on_c, 1, 64, 127
1, 187446, Note_off_c, 1, 73, 0
1, 187446, Note_off_c, 1, 64, 0
1, 187448, Note_on_c, 1, 63, 127
1, 187448, Note_on_c, 1, 71, 127
1, 187616, Note_off_c, 1, 63, 0
1, 187618, Note_on_c, 1, 61, 127
1, 187786, Note_off_c, 1, 57, 0
1, 187786, Note_off_c, 1, 71, 0
1, 187786, Note_off_c, 1, 61, 0
1, 187788, Note_on_c, 1, 76, 127
1, 187788, Note_on_c, 1, 59, 127
1, 187788, Note_on_c, 1, 56, 127
1, 187956, Note_off_c, 1, 76, 0
1, 187958, Note_on_c, 1, 78, 127
1, 188126, Note_off_c, 1, 59, 0
1, 188126, Note_off_c, 1, 56, 0
1, 188126, Note_off_c, 1, 78, 0
1, 188128, Note_on_c, 1, 76, 127
1, 188128, Note_on_c, 1, 57, 127
1, 188128, Note_on_c, 1, 54, 127
1, 188239, Note_off_c, 1, 76, 0
1, 188241, Note_on_c, 1, 75, 127
1, 188297, Note_off_c, 1, 75, 0
1, 188462, Note_off_c, 1, 57, 0
1, 188464, Note_off_c, 1, 54, 0
1, 188466, Note_on_c, 1, 61, 127
1, 188466, Note_on_c, 1, 56, 127
1, 188466, Note_on_c, 1, 52, 127
1, 188800, Note_off_c, 1, 61, 0
1, 188802, Note_off_c, 1, 56, 0
1, 188802, Note_off_c, 1, 52, 0
1, 188804, Note_on_c, 1, 78, 127
1, 188804, Note_on_c, 1, 51, 127
1, 188804, Note_on_c, 1, 59, 127
1, 188972, Note_off_c, 1, 78, 0
1, 188974, Note_on_c, 1, 71, 127
1, 189142, Note_off_c, 1, 71, 0
1, 189144, Note_on_c, 1, 83, 127
1, 189144, Note_on_c, 1, 54, 127
1, 189312, Note_off_c, 1, 83, 0
1, 189314, Note_on_c, 1, 81, 127
1, 189476, Note_off_c, 1, 51, 0
1, 189481, Note_off_c, 1, 54, 0
1, 189481, Note_off_c, 1, 81, 0
1, 189483, Note_on_c, 1, 80, 127
1, 189483, Note_on_c, 1, 52, 127
1, 189820, Note_off_c, 1, 59, 0
1, 189820, Note_off_c, 1, 80, 0
1, 189822, Note_on_c, 1, 64, 127
1, 189992, Note_on_c, 1, 76, 127
1, 190160, Note_off_c, 1, 52, 0
1, 190160, Note_off_c, 1, 76, 0
1, 190162, Note_on_c, 1, 61, 127
1, 190499, Note_off_c, 1, 61, 0
1, 190501, Note_on_c, 1, 57, 127
1, 190839, Note_off_c, 1, 57, 0
1, 191178, Note_off_c, 1, 64, 0
1, 191180, Note_on_c, 1, 63, 127
1, 191515, Note_off_c, 1, 63, 0
1, 191519, Note_on_c, 1, 52, 127
1, 191519, Note_on_c, 1, 76, 127
1, 191688, Note_on_c, 1, 64, 127
1, 191856, Note_off_c, 1, 64, 0
1, 191858, Note_on_c, 1, 68, 127
1, 192026, Note_off_c, 1, 52, 0
1, 192026, Note_off_c, 1, 68, 0
1, 192028, Note_on_c, 1, 54, 127
1, 192190, Note_off_c, 1, 76, 0
1, 192195, Note_off_c, 1, 54, 0
1, 192197, Note_on_c, 1, 71, 127
1, 192197, Note_on_c, 1, 56, 127
1, 192366, Note_on_c, 1, 59, 127
1, 192534, Note_off_c, 1, 59, 0
1, 192536, Note_on_c, 1, 63, 127
1, 192691, Note_off_c, 1, 71, 0
1, 192703, Note_off_c, 1, 56, 0
1, 192703, Note_off_c, 1, 63, 0
1, 192705, Note_on_c, 1, 59, 127
1, 192705, Note_on_c, 1, 44, 127
1, 192873, Note_off_c, 1, 59, 0
1, 192873, Note_off_c, 1, 44, 0
1, 192875, Note_on_c, 1, 64, 127
1, 192875, Note_on_c, 1, 49, 127
1, 193212, Note_off_c, 1, 64, 0
1, 193382, Note_off_c, 1, 49, 0
1, 193384, Note_on_c, 1, 51, 127
1, 193552, Note_off_c, 1, 51, 0
1, 193554, Note_on_c, 1, 64, 127
1, 193554, Note_on_c, 1, 52, 127
1, 193891, Note_off_c, 1, 64, 0
1, 194061, Note_off_c, 1, 52, 0
1, 194063, Note_on_c, 1, 40, 127
1, 194231, Note_off_c, 1, 40, 0
1, 194233, Note_on_c, 1, 66, 127
1, 194233, Note_on_c, 1, 45, 127
1, 194233, Note_on_c, 1, 64, 127
1, 194570, Note_off_c, 1, 66, 0
1, 194572, Note_on_c, 1, 69, 127
1, 194740, Note_off_c, 1, 45, 0
1, 194740, Note_off_c, 1, 69, 0
1, 194742, Note_on_c, 1, 68, 127
1, 194742, Note_on_c, 1, 42, 127
1, 194910, Note_off_c, 1, 68, 0
1, 194910, Note_off_c, 1, 42, 0
1, 194912, Note_on_c, 1, 47, 127
1, 195249, Note_off_c, 1, 64, 0
1, 195251, Note_on_c, 1, 71, 127
1, 195251, Note_on_c, 1, 63, 127
1, 195419, Note_off_c, 1, 71, 0
1, 195589, Note_off_c, 1, 47, 0
1, 195589, Note_off_c, 1, 63, 0
1, 195591, Note_on_c, 1, 68, 127
1, 195591, Note_on_c, 1, 64, 127
1, 195591, Note_on_c, 1, 52, 127
1, 195928, Note_off_c, 1, 68, 0
1, 195930, Note_on_c, 1, 71, 127
1, 196098, Note_off_c, 1, 64, 0
1, 196098, Note_off_c, 1, 71, 0
1, 196100, Note_on_c, 1, 69, 127
1, 196100, Note_on_c, 1, 63, 127
1, 196268, Note_off_c, 1, 69, 0
1, 196268, Note_off_c, 1, 63, 0
1, 196439, Note_off_c, 1, 52, 0
1, 196609, Note_on_c, 1, 73, 127
1, 196777, Note_off_c, 1, 73, 0
1, 196779, Note_on_c, 1, 71, 127
1, 196779, Note_on_c, 1, 61, 127
1, 196947, Note_off_c, 1, 71, 0
1, 196947, Note_off_c, 1, 61, 0
1, 196949, Note_on_c, 1, 70, 127
1, 196949, Note_on_c, 1, 66, 127
1, 196949, Note_on_c, 1, 54, 127
1, 197117, Note_off_c, 1, 70, 0
1, 197119, Note_on_c, 1, 68, 127
1, 197287, Note_off_c, 1, 68, 0
1, 197457, Note_off_c, 1, 66, 0
1, 197459, Note_on_c, 1, 64, 127
1, 197627, Note_off_c, 1, 54, 0
1, 197627, Note_off_c, 1, 64, 0
1, 197629, Note_on_c, 1, 71, 127
1, 197629, Note_on_c, 1, 63, 127
1, 197629, Note_on_c, 1, 56, 127
1, 197966, Note_off_c, 1, 71, 0
1, 197968, Note_on_c, 1, 80, 127
1, 198136, Note_off_c, 1, 63, 0
1, 198138, Note_on_c, 1, 64, 127
1, 198306, Note_off_c, 1, 56, 0
1, 198306, Note_off_c, 1, 80, 0
1, 198306, Note_off_c, 1, 64, 0
1, 198308, Note_on_c, 1, 70, 127
1, 198308, Note_on_c, 1, 66, 127
1, 198308, Note_on_c, 1, 54, 127
1, 198645, Note_off_c, 1, 70, 0
1, 198647, Note_on_c, 1, 71, 127
1, 198815, Note_off_c, 1, 66, 0
1, 198817, Note_on_c, 1, 65, 127
1, 198985, Note_off_c, 1, 71, 0
1, 198985, Note_off_c, 1, 65, 0
1, 199157, Note_off_c, 1, 54, 0
1, 199157, Note_on_c, 1, 73, 127
1, 199325, Note_off_c, 1, 73, 0
1, 199327, Note_on_c, 1, 71, 127
1, 199327, Note_on_c, 1, 54, 127
1, 199495, Note_off_c, 1, 71, 0
1, 199497, Note_on_c, 1, 70, 127
1, 199665, Note_off_c, 1, 54, 0
1, 199665, Note_off_c, 1, 70, 0
1, 199667, Note_on_c, 1, 59, 127
1, 199667, Note_on_c, 1, 71, 127
1, 199835, Note_off_c, 1, 59, 0
1, 199837, Note_on_c, 1, 47, 127
1, 200005, Note_off_c, 1, 47, 0
1, 200007, Note_on_c, 1, 51, 127
1, 200175, Note_off_c, 1, 71, 0
1, 200175, Note_off_c, 1, 51, 0
1, 200177, Note_on_c, 1, 71, 127
1, 200177, Note_on_c, 1, 47, 127
1, 200345, Note_off_c, 1, 71, 0
1, 200345, Note_off_c, 1, 47, 0
1, 200347, Note_on_c, 1, 71, 127
1, 200347, Note_on_c, 1, 54, 127
1, 200515, Note_off_c, 1, 71, 0
1, 200515, Note_off_c, 1, 54, 0
1, 200517, Note_on_c, 1, 70, 127
1, 200517, Note_on_c, 1, 42, 127
1, 200685, Note_off_c, 1, 70, 0
1, 200685, Note_off_c, 1, 42, 0
1, 200687, Note_on_c, 1, 46, 127
1, 200687, Note_on_c, 1, 70, 127
1, 200855, Note_off_c, 1, 46, 0
1, 200857, Note_on_c, 1, 42, 127
1, 200942, Note_off_c, 1, 70, 0
1, 201025, Note_off_c, 1, 42, 0
1, 201027, Note_on_c, 1, 47, 127
1, 201196, Note_on_c, 1, 75, 127
1, 201364, Note_off_c, 1, 47, 0
1, 201364, Note_off_c, 1, 75, 0
1, 201366, Note_on_c, 1, 78, 127
1, 201366, Note_on_c, 1, 47, 127
1, 201534, Note_off_c, 1, 78, 0
1, 201536, Note_on_c, 1, 75, 127
1, 201704, Note_off_c, 1, 47, 0
1, 201704, Note_off_c, 1, 75, 0
1, 201706, Note_on_c, 1, 83, 127
1, 201706, Note_on_c, 1, 47, 127
1, 201875, Note_on_c, 1, 71, 127
1, 202041, Note_off_c, 1, 83, 0
1, 202043, Note_off_c, 1, 47, 0
1, 202043, Note_off_c, 1, 71, 0
1, 202045, Note_on_c, 1, 75, 127
1, 202045, Note_on_c, 1, 47, 127
1, 202213, Note_off_c, 1, 75, 0
1, 202215, Note_on_c, 1, 71, 127
1, 202383, Note_off_c, 1, 47, 0
1, 202383, Note_off_c, 1, 71, 0
1, 202385, Note_on_c, 1, 49, 127
1, 202385, Note_on_c, 1, 76, 127
1, 202722, Note_off_c, 1, 49, 0
1, 202724, Note_on_c, 1, 52, 127
1, 202809, Note_off_c, 1, 76, 0
1, 202892, Note_off_c, 1, 52, 0
1, 202894, Note_on_c, 1, 73, 127
1, 202894, Note_on_c, 1, 51, 127
1, 203062, Note_off_c, 1, 73, 0
1, 203062, Note_off_c, 1, 51, 0
1, 203064, Note_on_c, 1, 49, 127
1, 203064, Note_on_c, 1, 69, 127
1, 203401, Note_off_c, 1, 49, 0
1, 203403, Note_on_c, 1, 54, 127
1, 203488, Note_off_c, 1, 69, 0
1, 203571, Note_off_c, 1, 54, 0
1, 203573, Note_on_c, 1, 81, 127
1, 203573, Note_on_c, 1, 52, 127
1, 203741, Note_off_c, 1, 81, 0
1, 203741, Note_off_c, 1, 52, 0
1, 203743, Note_on_c, 1, 51, 127
1, 203743, Note_on_c, 1, 78, 127
1, 204080, Note_off_c, 1, 51, 0
1, 204082, Note_on_c, 1, 54, 127
1, 204167, Note_off_c, 1, 78, 0
1, 204250, Note_off_c, 1, 54, 0
1, 204252, Note_on_c, 1, 75, 127
1, 204252, Note_on_c, 1, 52, 127
1, 204420, Note_off_c, 1, 75, 0
1, 204420, Note_off_c, 1, 52, 0
1, 204422, Note_on_c, 1, 51, 127
1, 204422, Note_on_c, 1, 71, 127
1, 204759, Note_off_c, 1, 51, 0
1, 204761, Note_on_c, 1, 56, 127
1, 204846, Note_off_c, 1, 71, 0
1, 204929, Note_off_c, 1, 56, 0
1, 204931, Note_on_c, 1, 68, 127
1, 204931, Note_on_c, 1, 52, 127
1, 205099, Note_off_c, 1, 68, 0
1, 205099, Note_off_c, 1, 52, 0
1, 205101, Note_on_c, 1, 51, 127
1, 205101, Note_on_c, 1, 66, 127
1, 205269, Note_off_c, 1, 51, 0
1, 205271, Note_on_c, 1, 49, 127
1, 205439, Note_off_c, 1, 66, 0
1, 205439, Note_off_c, 1, 49, 0
1, 205441, Note_on_c, 1, 51, 127
1, 205441, Note_on_c, 1, 71, 127
1, 205609, Note_off_c, 1, 51, 0
1, 205611, Note_on_c, 1, 47, 127
1, 205779, Note_off_c, 1, 71, 0
1, 205779, Note_off_c, 1, 47, 0
1, 205781, Note_on_c, 1, 68, 127
1, 205781, Note_on_c, 1, 52, 127
1, 205949, Note_off_c, 1, 68, 0
1, 205951, Note_on_c, 1, 66, 127
1, 206119, Note_off_c, 1, 52, 0
1, 206119, Note_off_c, 1, 66, 0
1, 206121, Note_on_c, 1, 68, 127
1, 206121, Note_on_c, 1, 61, 127
1, 206289, Note_off_c, 1, 68, 0
1, 206291, Note_on_c, 1, 64, 127
1, 206459, Note_off_c, 1, 61, 0
1, 206459, Note_off_c, 1, 64, 0
1, 206461, Note_on_c, 1, 66, 127
1, 206461, Note_on_c, 1, 51, 127
1, 206629, Note_off_c, 1, 66, 0
1, 206631, Note_on_c, 1, 69, 127
1, 206799, Note_off_c, 1, 51, 0
1, 206799, Note_off_c, 1, 69, 0
1, 206801, Note_on_c, 1, 68, 127
1, 206801, Note_on_c, 1, 52, 127
1, 206969, Note_off_c, 1, 68, 0
1, 206971, Note_on_c, 1, 64, 127
1, 207139, Note_off_c, 1, 52, 0
1, 207139, Note_off_c, 1, 64, 0
1, 207141, Note_on_c, 1, 66, 127
1, 207141, Note_on_c, 1, 47, 127
1, 207309, Note_off_c, 1, 66, 0
1, 207311, Note_on_c, 1, 69, 127
1, 207479, Note_off_c, 1, 47, 0
1, 207479, Note_off_c, 1, 69, 0
1, 207481, Note_on_c, 1, 68, 127
1, 207481, Note_on_c, 1, 40, 127
1, 207649, Note_off_c, 1, 68, 0
1, 207651, Note_on_c, 1, 64, 127
1, 207819, Note_off_c, 1, 40, 0
1, 207819, Note_off_c, 1, 64, 0
1, 207821, Note_on_c, 1, 66, 127
1, 207821, Note_on_c, 1, 47, 127
1, 207989, Note_off_c, 1, 66, 0
1, 207991, Note_on_c, 1, 64, 127
1, 208159, Note_off_c, 1, 64, 0
1, 208161, Note_on_c, 1, 63, 127
1, 208329, Note_off_c, 1, 63, 0
1, 208331, Note_on_c, 1, 61, 127
1, 208499, Note_off_c, 1, 61, 0
1, 208501, Note_on_c, 1, 59, 127
1, 208529, Note_off_c, 1, 47, 0
1, 208668, Note_off_c, 1, 59, 0
1, 208670, Note_on_c, 1, 63, 127
1, 208670, Note_on_c, 1, 57, 127
1, 208838, Note_off_c, 1, 63, 0
1, 208838, Note_off_c, 1, 57, 0
1, 208840, Note_on_c, 1, 65, 127
1, 208840, Note_on_c, 1, 56, 127
1, 209008, Note_off_c, 1, 65, 0
1, 209008, Note_off_c, 1, 56, 0
1, 209010, Note_on_c, 1, 66, 127
1, 209010, Note_on_c, 1, 54, 127
1, 209178, Note_off_c, 1, 66, 0
1, 209178, Note_off_c, 1, 54, 0
1, 209180, Note_on_c, 1, 68, 127
1, 209180, Note_on_c, 1, 53, 127
1, 209348, Note_off_c, 1, 68, 0
1, 209350, Note_on_c, 1, 71, 127
1, 209518, Note_off_c, 1, 53, 0
1, 209518, Note_off_c, 1, 71, 0
1, 209520, Note_on_c, 1, 69, 127
1, 209520, Note_on_c, 1, 54, 127
1, 209688, Note_off_c, 1, 69, 0
1, 209690, Note_on_c, 1, 66, 127
1, 209858, Note_off_c, 1, 54, 0
1, 209858, Note_off_c, 1, 66, 0
1, 209860, Note_on_c, 1, 68, 127
1, 209860, Note_on_c, 1, 49, 127
1, 210028, Note_off_c, 1, 68, 0
1, 210030, Note_on_c, 1, 71, 127
1, 210198, Note_off_c, 1, 49, 0
1, 210198, Note_off_c, 1, 71, 0
1, 210200, Note_on_c, 1, 69, 127
1, 210200, Note_on_c, 1, 42, 127
1, 210368, Note_off_c, 1, 69, 0
1, 210370, Note_on_c, 1, 66, 127
1, 210538, Note_off_c, 1, 42, 0
1, 210538, Note_off_c, 1, 66, 0
1, 210540, Note_on_c, 1, 68, 127
1, 210540, Note_on_c, 1, 49, 127
1, 210708, Note_off_c, 1, 68, 0
1, 210710, Note_on_c, 1, 66, 127
1, 210878, Note_off_c, 1, 66, 0
1, 210880, Note_on_c, 1, 65, 127
1, 211048, Note_off_c, 1, 65, 0
1, 211050, Note_on_c, 1, 63, 127
1, 211218, Note_off_c, 1, 63, 0
1, 211220, Note_on_c, 1, 61, 127
1, 211248, Note_off_c, 1, 49, 0
1, 211387, Note_off_c, 1, 61, 0
1, 211389, Note_on_c, 1, 74, 127
1, 211389, Note_on_c, 1, 49, 127
1, 211557, Note_off_c, 1, 74, 0
1, 211557, Note_off_c, 1, 49, 0
1, 211559, Note_on_c, 1, 73, 127
1, 211559, Note_on_c, 1, 53, 127
1, 211727, Note_off_c, 1, 73, 0
1, 211727, Note_off_c, 1, 53, 0
1, 211729, Note_on_c, 1, 71, 127
1, 211729, Note_on_c, 1, 49, 127
1, 211897, Note_off_c, 1, 71, 0
1, 211897, Note_off_c, 1, 49, 0
1, 211899, Note_on_c, 1, 69, 127
1, 211899, Note_on_c, 1, 54, 127
1, 212067, Note_off_c, 1, 69, 0
1, 212067, Note_off_c, 1, 54, 0
1, 212069, Note_on_c, 1, 73, 127
1, 212069, Note_on_c, 1, 57, 127
1, 212237, Note_off_c, 1, 73, 0
1, 212237, Note_off_c, 1, 57, 0
1, 212239, Note_on_c, 1, 71, 127
1, 212239, Note_on_c, 1, 56, 127
1, 212407, Note_off_c, 1, 71, 0
1, 212407, Note_off_c, 1, 56, 0
1, 212409, Note_on_c, 1, 68, 127
1, 212409, Note_on_c, 1, 53, 127
1, 212577, Note_off_c, 1, 68, 0
1, 212577, Note_off_c, 1, 53, 0
1, 212579, Note_on_c, 1, 69, 127
1, 212579, Note_on_c, 1, 54, 127
1, 212747, Note_off_c, 1, 69, 0
1, 212747, Note_off_c, 1, 54, 0
1, 212749, Note_on_c, 1, 73, 127
1, 212749, Note_on_c, 1, 57, 127
1, 212917, Note_off_c, 1, 73, 0
1, 212917, Note_off_c, 1, 57, 0
1, 212919, Note_on_c, 1, 71, 127
1, 212919, Note_on_c, 1, 56, 127
1, 213087, Note_off_c, 1, 71, 0
1, 213087, Note_off_c, 1, 56, 0
1, 213089, Note_on_c, 1, 68, 127
1, 213089, Note_on_c, 1, 53, 127
1, 213257, Note_off_c, 1, 68, 0
1, 213257, Note_off_c, 1, 53, 0
1, 213259, Note_on_c, 1, 69, 127
1, 213259, Note_on_c, 1, 54, 127
1, 213427, Note_off_c, 1, 69, 0
1, 213429, Note_on_c, 1, 78, 127
1, 213597, Note_off_c, 1, 54, 0
1, 213597, Note_off_c, 1, 78, 0
1, 213599, Note_on_c, 1, 80, 127
1, 213599, Note_on_c, 1, 59, 127
1, 213767, Note_off_c, 1, 80, 0
1, 213769, Note_on_c, 1, 75, 127
1, 213937, Note_off_c, 1, 59, 0
1, 213937, Note_off_c, 1, 75, 0
1, 213939, Note_on_c, 1, 77, 127
1, 213939, Note_on_c, 1, 61, 127
1, 214107, Note_off_c, 1, 77, 0
1, 214109, Note_on_c, 1, 73, 127
1, 214277, Note_off_c, 1, 61, 0
1, 214277, Note_off_c, 1, 73, 0
1, 214279, Note_on_c, 1, 68, 127
1, 214279, Note_on_c, 1, 53, 127
1, 214447, Note_off_c, 1, 68, 0
1, 214449, Note_on_c, 1, 71, 127
1, 214617, Note_off_c, 1, 53, 0
1, 214617, Note_off_c, 1, 71, 0
1, 214619, Note_on_c, 1, 69, 127
1, 214619, Note_on_c, 1, 54, 127
1, 214787, Note_off_c, 1, 69, 0
1, 214787, Note_off_c, 1, 54, 0
1, 214789, Note_on_c, 1, 73, 127
1, 214789, Note_on_c, 1, 57, 127
1, 214957, Note_off_c, 1, 73, 0
1, 214957, Note_off_c, 1, 57, 0
1, 214959, Note_on_c, 1, 71, 127
1, 214959, Note_on_c, 1, 56, 127
1, 215127, Note_off_c, 1, 71, 0
1, 215127, Note_off_c, 1, 56, 0
1, 215129, Note_on_c, 1, 68, 127
1, 215129, Note_on_c, 1, 53, 127
1, 215297, Note_off_c, 1, 68, 0
1, 215297, Note_off_c, 1, 53, 0
1, 215299, Note_on_c, 1, 69, 127
1, 215299, Note_on_c, 1, 54, 127
1, 215467, Note_off_c, 1, 69, 0
1, 215467, Note_off_c, 1, 54, 0
1, 215469, Note_on_c, 1, 73, 127
1, 215469, Note_on_c, 1, 57, 127
1, 215637, Note_off_c, 1, 73, 0
1, 215637, Note_off_c, 1, 57, 0
1, 215639, Note_on_c, 1, 71, 127
1, 215639, Note_on_c, 1, 56, 127
1, 215807, Note_off_c, 1, 71, 0
1, 215807, Note_off_c, 1, 56, 0
1, 215809, Note_on_c, 1, 68, 127
1, 215809, Note_on_c, 1, 53, 127
1, 215977, Note_off_c, 1, 68, 0
1, 215977, Note_off_c, 1, 53, 0
1, 215979, Note_on_c, 1, 69, 127
1, 215979, Note_on_c, 1, 54, 127
1, 216147, Note_off_c, 1, 69, 0
1, 216149, Note_on_c, 1, 78, 127
1, 216317, Note_off_c, 1, 54, 0
1, 216317, Note_off_c, 1, 78, 0
1, 216319, Note_on_c, 1, 80, 127
1, 216319, Note_on_c, 1, 47, 127
1, 216487, Note_off_c, 1, 80, 0
1, 216489, Note_on_c, 1, 75, 127
1, 216657, Note_off_c, 1, 47, 0
1, 216657, Note_off_c, 1, 75, 0
1, 216659, Note_on_c, 1, 77, 127
1, 216659, Note_on_c, 1, 49, 127
1, 216827, Note_off_c, 1, 77, 0
1, 216829, Note_on_c, 1, 73, 127
1, 216997, Note_off_c, 1, 49, 0
1, 216997, Note_off_c, 1, 73, 0
1, 216999, Note_on_c, 1, 68, 127
1, 216999, Note_on_c, 1, 41, 127
1, 217167, Note_off_c, 1, 68, 0
1, 217169, Note_on_c, 1, 71, 127
1, 217337, Note_off_c, 1, 41, 0
1, 217337, Note_off_c, 1, 71, 0
1, 217339, Note_on_c, 1, 69, 127
1, 217339, Note_on_c, 1, 42, 127
1, 217507, Note_off_c, 1, 69, 0
1, 217509, Note_on_c, 1, 68, 127
1, 217677, Note_off_c, 1, 42, 0
1, 217677, Note_off_c, 1, 68, 0
1, 217679, Note_on_c, 1, 66, 127
1, 217679, Note_on_c, 1, 47, 127
1, 217847, Note_off_c, 1, 66, 0
1, 217849, Note_on_c, 1, 68, 127
1, 218017, Note_off_c, 1, 47, 0
1, 218017, Note_off_c, 1, 68, 0
1, 218019, Note_on_c, 1, 66, 127
1, 218019, Note_on_c, 1, 49, 127
1, 218187, Note_off_c, 1, 66, 0
1, 218189, Note_on_c, 1, 65, 127
1, 218259, Note_off_c, 1, 65, 0
1, 218695, Note_off_c, 1, 49, 0
1, 218697, Note_on_c, 1, 66, 127
1, 218697, Note_on_c, 1, 42, 127
1, 218865, Note_off_c, 1, 66, 0
1, 218867, Note_on_c, 1, 73, 127
1, 219035, Note_off_c, 1, 73, 0
1, 219037, Note_on_c, 1, 71, 127
1, 219205, Note_off_c, 1, 71, 0
1, 219207, Note_on_c, 1, 69, 127
1, 219375, Note_off_c, 1, 69, 0
1, 219377, Note_on_c, 1, 74, 127
1, 219405, Note_off_c, 1, 42, 0
1, 219546, Note_on_c, 1, 54, 127
1, 219714, Note_off_c, 1, 54, 0
1, 219716, Note_on_c, 1, 59, 127
1, 219884, Note_off_c, 1, 59, 0
1, 219886, Note_on_c, 1, 57, 127
1, 220048, Note_off_c, 1, 74, 0
1, 220053, Note_off_c, 1, 57, 0
1, 220055, Note_on_c, 1, 56, 127
1, 220224, Note_on_c, 1, 76, 127
1, 220392, Note_off_c, 1, 56, 0
1, 220392, Note_off_c, 1, 76, 0
1, 220394, Note_on_c, 1, 73, 127
1, 220394, Note_on_c, 1, 57, 127
1, 220562, Note_off_c, 1, 73, 0
1, 220564, Note_on_c, 1, 74, 127
1, 220732, Note_off_c, 1, 74, 0
1, 220734, Note_on_c, 1, 71, 127
1, 220817, Note_off_c, 1, 71, 0
1, 220819, Note_on_c, 1, 69, 127
1, 220902, Note_off_c, 1, 69, 0
1, 221072, Note_off_c, 1, 57, 0
1, 221074, Note_on_c, 1, 55, 127
1, 221499, Note_on_c, 1, 67, 127
1, 221582, Note_off_c, 1, 67, 0
1, 221752, Note_off_c, 1, 55, 0
1, 221754, Note_on_c, 1, 54, 127
1, 222179, Note_on_c, 1, 66, 127
1, 222262, Note_off_c, 1, 66, 0
1, 222432, Note_off_c, 1, 54, 0
1, 222434, Note_on_c, 1, 52, 127
1, 222859, Note_on_c, 1, 64, 127
1, 222942, Note_off_c, 1, 64, 0
1, 223112, Note_off_c, 1, 52, 0
1, 223114, Note_on_c, 1, 50, 127
1, 223539, Note_on_c, 1, 62, 127
1, 223622, Note_off_c, 1, 62, 0
1, 223792, Note_off_c, 1, 50, 0
1, 223794, Note_on_c, 1, 49, 127
1, 224132, Note_off_c, 1, 49, 0
1, 224134, Note_on_c, 1, 62, 127
1, 224134, Note_on_c, 1, 47, 127
1, 224303, Note_on_c, 1, 71, 127
1, 224469, Note_off_c, 1, 62, 0
1, 224469, Note_off_c, 1, 47, 0
1, 224471, Note_off_c, 1, 71, 0
1, 224473, Note_on_c, 1, 61, 127
1, 224641, Note_off_c, 1, 61, 0
1, 224643, Note_on_c, 1, 62, 127
1, 224811, Note_off_c, 1, 62, 0
1, 224813, Note_on_c, 1, 61, 127
1, 224982, Note_on_c, 1, 71, 127
1, 225148, Note_off_c, 1, 61, 0
1, 225150, Note_off_c, 1, 71, 0
1, 225152, Note_on_c, 1, 61, 127
1, 225152, Note_on_c, 1, 50, 127
1, 225152, Note_on_c, 1, 47, 127
1, 225152, Note_on_c, 1, 38, 127
1, 225152, Note_on_c, 1, 41, 127
1, 225320, Note_off_c, 1, 61, 0
1, 225322, Note_on_c, 1, 62, 127
1, 225490, Note_off_c, 1, 50, 0
1, 225490, Note_off_c, 1, 47, 0
1, 225490, Note_off_c, 1, 38, 0
1, 225490, Note_off_c, 1, 41, 0
1, 225490, Note_off_c, 1, 62, 0
1, 225492, Note_on_c, 1, 61, 127
1, 225492, Note_on_c, 1, 52, 127
1, 225492, Note_on_c, 1, 49, 127
1, 225492, Note_on_c, 1, 40, 127
1, 225492, Note_on_c, 1, 43, 127
1, 225661, Note_on_c, 1, 71, 127
1, 225827, Note_off_c, 1, 61, 0
1, 225829, Note_off_c, 1, 71, 0
1, 226001, Note_on_c, 1, 62, 127
1, 226169, Note_off_c, 1, 62, 0
1, 226340, Note_off_c, 1, 52, 0
1, 226340, Note_off_c, 1, 49, 0
1, 226340, Note_off_c, 1, 40, 0
1, 226340, Note_off_c, 1, 43, 0
1, 226510, Note_on_c, 1, 61, 127
1, 226510, Note_on_c, 1, 53, 127
1, 226510, Note_on_c, 1, 49, 127
1, 226510, Note_on_c, 1, 44, 127
1, 226510, Note_on_c, 1, 41, 127
1, 226678, Note_off_c, 1, 61, 0
1, 226680, Note_on_c, 1, 62, 127
1, 226848, Note_off_c, 1, 53, 0
1, 226848, Note_off_c, 1, 49, 0
1, 226848, Note_off_c, 1, 44, 0
1, 226848, Note_off_c, 1, 41, 0
1, 226848, Note_off_c, 1, 62, 0
1, 226850, Note_on_c, 1, 61, 127
1, 226850, Note_on_c, 1, 54, 127
1, 226850, Note_on_c, 1, 42, 127
1, 226850, Note_on_c, 1, 49, 127
1, 227019, Note_on_c, 1, 71, 127
1, 227185, Note_off_c, 1, 61, 0
1, 227187, Note_off_c, 1, 71, 0
1, 227189, Note_on_c, 1, 73, 127
1, 227357, Note_off_c, 1, 73, 0
1, 227529, Note_on_c, 1, 70, 127
1, 227698, Note_off_c, 1, 54, 0
1, 227698, Note_off_c, 1, 42, 0
1, 227698, Note_off_c, 1, 49, 0
1, 227864, Note_off_c, 1, 70, 0
1, 227868, Note_on_c, 1, 74, 127
1, 227868, Note_on_c, 1, 54, 127
1, 227868, Note_on_c, 1, 49, 127
1, 227868, Note_on_c, 1, 46, 127
1, 227868, Note_on_c, 1, 42, 127
1, 228036, Note_off_c, 1, 74, 0
1, 228038, Note_on_c, 1, 76, 127
1, 228206, Note_off_c, 1, 54, 0
1, 228206, Note_off_c, 1, 49, 0
1, 228206, Note_off_c, 1, 46, 0
1, 228206, Note_off_c, 1, 42, 0
1, 228206, Note_off_c, 1, 76, 0
1, 228208, Note_on_c, 1, 47, 127
1, 228208, Note_on_c, 1, 74, 127
1, 228376, Note_off_c, 1, 47, 0
1, 228378, Note_on_c, 1, 59, 127
1, 228546, Note_off_c, 1, 59, 0
1, 228548, Note_on_c, 1, 58, 127
1, 228716, Note_off_c, 1, 74, 0
1, 228716, Note_off_c, 1, 58, 0
1, 228718, Note_on_c, 1, 71, 127
1, 228718, Note_on_c, 1, 59, 127
1, 228886, Note_off_c, 1, 71, 0
1, 228888, Note_on_c, 1, 49, 127
1, 228888, Note_on_c, 1, 76, 127
1, 229054, Note_off_c, 1, 59, 0
1, 229056, Note_off_c, 1, 49, 0
1, 229228, Note_on_c, 1, 58, 127
1, 229396, Note_off_c, 1, 76, 0
1, 229396, Note_off_c, 1, 58, 0
1, 229398, Note_on_c, 1, 73, 127
1, 229398, Note_on_c, 1, 59, 127
1, 229566, Note_off_c, 1, 73, 0
1, 229568, Note_on_c, 1, 50, 127
1, 229568, Note_on_c, 1, 78, 127
1, 229734, Note_off_c, 1, 59, 0
1, 229736, Note_off_c, 1, 50, 0
1, 229908, Note_on_c, 1, 58, 127
1, 230076, Note_off_c, 1, 78, 0
1, 230076, Note_off_c, 1, 58, 0
1, 230078, Note_on_c, 1, 74, 127
1, 230078, Note_on_c, 1, 59, 127
1, 230246, Note_off_c, 1, 74, 0
1, 230248, Note_on_c, 1, 52, 127
1, 230248, Note_on_c, 1, 79, 127
1, 230414, Note_off_c, 1, 59, 0
1, 230416, Note_off_c, 1, 52, 0
1, 230588, Note_on_c, 1, 58, 127
1, 230756, Note_off_c, 1, 79, 0
1, 230756, Note_off_c, 1, 58, 0
1, 230758, Note_on_c, 1, 76, 127
1, 230758, Note_on_c, 1, 59, 127
1, 230926, Note_off_c, 1, 76, 0
1, 230926, Note_off_c, 1, 59, 0
1, 230928, Note_on_c, 1, 54, 127
1, 230928, Note_on_c, 1, 70, 127
1, 231096, Note_off_c, 1, 54, 0
1, 231098, Note_on_c, 1, 55, 127
1, 231266, Note_off_c, 1, 55, 0
1, 231438, Note_on_c, 1, 66, 127
1, 231438, Note_on_c, 1, 52, 127
1, 231600, Note_off_c, 1, 70, 0
1, 231605, Note_off_c, 1, 66, 0
1, 231605, Note_off_c, 1, 52, 0
1, 231607, Note_on_c, 1, 50, 127
1, 231607, Note_on_c, 1, 71, 127
1, 231776, Note_on_c, 1, 55, 127
1, 231942, Note_off_c, 1, 50, 0
1, 231944, Note_off_c, 1, 55, 0
1, 231946, Note_on_c, 1, 52, 127
1, 232101, Note_off_c, 1, 71, 0
1, 232113, Note_off_c, 1, 52, 0
1, 232115, Note_on_c, 1, 73, 127
1, 232115, Note_on_c, 1, 49, 127
1, 232283, Note_off_c, 1, 73, 0
1, 232283, Note_off_c, 1, 49, 0
1, 232285, Note_on_c, 1, 54, 127
1, 232285, Note_on_c, 1, 70, 127
1, 232453, Note_off_c, 1, 54, 0
1, 232455, Note_on_c, 1, 55, 127
1, 232623, Note_off_c, 1, 55, 0
1, 232793, Note_off_c, 1, 70, 0
1, 232795, Note_on_c, 1, 68, 127
1, 232795, Note_on_c, 1, 52, 127
1, 232947, Note_off_c, 1, 68, 0
1, 232963, Note_off_c, 1, 52, 0
1, 232965, Note_on_c, 1, 50, 127
1, 232965, Note_on_c, 1, 66, 127
1, 233133, Note_off_c, 1, 50, 0
1, 233135, Note_on_c, 1, 49, 127
1, 233303, Note_off_c, 1, 49, 0
1, 233390, Note_off_c, 1, 66, 0
1, 233475, Note_on_c, 1, 69, 127
1, 233475, Note_on_c, 1, 47, 127
1, 233643, Note_off_c, 1, 69, 0
1, 233643, Note_off_c, 1, 47, 0
1, 233645, Note_on_c, 1, 52, 127
1, 233645, Note_on_c, 1, 68, 127
1, 233813, Note_off_c, 1, 52, 0
1, 233815, Note_on_c, 1, 50, 127
1, 233983, Note_off_c, 1, 50, 0
1, 234070, Note_off_c, 1, 68, 0
1, 234155, Note_on_c, 1, 73, 127
1, 234155, Note_on_c, 1, 49, 127
1, 234323, Note_off_c, 1, 73, 0
1, 234323, Note_off_c, 1, 49, 0
1, 234325, Note_on_c, 1, 50, 127
1, 234325, Note_on_c, 1, 78, 127
1, 234493, Note_off_c, 1, 50, 0
1, 234495, Note_on_c, 1, 49, 127
1, 234663, Note_off_c, 1, 49, 0
1, 234750, Note_off_c, 1, 78, 0
1, 234835, Note_on_c, 1, 80, 127
1, 234835, Note_on_c, 1, 47, 127
1, 235003, Note_off_c, 1, 80, 0
1, 235003, Note_off_c, 1, 47, 0
1, 235005, Note_on_c, 1, 49, 127
1, 235005, Note_on_c, 1, 77, 127
1, 235173, Note_off_c, 1, 49, 0
1, 235175, Note_on_c, 1, 50, 127
1, 235343, Note_off_c, 1, 50, 0
1, 235479, Note_off_c, 1, 77, 0
1, 235515, Note_on_c, 1, 75, 127
1, 235515, Note_on_c, 1, 47, 127
1, 235683, Note_off_c, 1, 75, 0
1, 235683, Note_off_c, 1, 47, 0
1, 235685, Note_on_c, 1, 45, 127
1, 235685, Note_on_c, 1, 73, 127
1, 235853, Note_off_c, 1, 45, 0
1, 235855, Note_on_c, 1, 54, 127
1, 236023, Note_off_c, 1, 54, 0
1, 236025, Note_on_c, 1, 53, 127
1, 236193, Note_off_c, 1, 53, 0
1, 236195, Note_on_c, 1, 81, 127
1, 236357, Note_off_c, 1, 73, 0
1, 236362, Note_off_c, 1, 81, 0
1, 236364, Note_on_c, 1, 44, 127
1, 236364, Note_on_c, 1, 71, 127
1, 236532, Note_off_c, 1, 44, 0
1, 236534, Note_on_c, 1, 54, 127
1, 236702, Note_off_c, 1, 54, 0
1, 236704, Note_on_c, 1, 53, 127
1, 236872, Note_off_c, 1, 53, 0
1, 236874, Note_on_c, 1, 81, 127
1, 237036, Note_off_c, 1, 71, 0
1, 237041, Note_off_c, 1, 81, 0
1, 237043, Note_on_c, 1, 44, 127
1, 237043, Note_on_c, 1, 71, 127
1, 237211, Note_off_c, 1, 44, 0
1, 237213, Note_on_c, 1, 54, 127
1, 237381, Note_off_c, 1, 54, 0
1, 237383, Note_on_c, 1, 53, 127
1, 237551, Note_off_c, 1, 53, 0
1, 237553, Note_on_c, 1, 81, 127
1, 237715, Note_off_c, 1, 71, 0
1, 237720, Note_off_c, 1, 81, 0
1, 237722, Note_on_c, 1, 49, 127
1, 237722, Note_on_c, 1, 71, 127
1, 237890, Note_off_c, 1, 49, 0
1, 237892, Note_on_c, 1, 53, 127
1, 238060, Note_off_c, 1, 53, 0
1, 238062, Note_on_c, 1, 51, 127
1, 238230, Note_off_c, 1, 51, 0
1, 238232, Note_on_c, 1, 80, 127
1, 238394, Note_off_c, 1, 71, 0
1, 238399, Note_off_c, 1, 80, 0
1, 238401, Note_on_c, 1, 54, 127
1, 238401, Note_on_c, 1, 69, 127
1, 238569, Note_off_c, 1, 54, 0
1, 238571, Note_on_c, 1, 57, 127
1, 238739, Note_off_c, 1, 57, 0
1, 238741, Note_on_c, 1, 56, 127
1, 238909, Note_off_c, 1, 56, 0
1, 238911, Note_on_c, 1, 78, 127
1, 239073, Note_off_c, 1, 69, 0
1, 239078, Note_off_c, 1, 78, 0
1, 239080, Note_on_c, 1, 59, 127
1, 239080, Note_on_c, 1, 68, 127
1, 239248, Note_off_c, 1, 59, 0
1, 239250, Note_on_c, 1, 57, 127
1, 239418, Note_off_c, 1, 57, 0
1, 239590, Note_on_c, 1, 78, 127
1, 239590, Note_on_c, 1, 56, 127
1, 239752, Note_off_c, 1, 68, 0
1, 239757, Note_off_c, 1, 78, 0
1, 239757, Note_off_c, 1, 56, 0
1, 239759, Note_on_c, 1, 61, 127
1, 239759, Note_on_c, 1, 77, 127
1, 239927, Note_off_c, 1, 61, 0
1, 239929, Note_on_c, 1, 59, 127
1, 240097, Note_off_c, 1, 59, 0
1, 240267, Note_off_c, 1, 77, 0
1, 240269, Note_on_c, 1, 77, 127
1, 240269, Note_on_c, 1, 49, 127
1, 240437, Note_off_c, 1, 77, 0
1, 240437, Note_off_c, 1, 49, 0
1, 240439, Note_on_c, 1, 78, 127
1, 240439, Note_on_c, 1, 54, 127
1, 240608, Note_on_c, 1, 66, 127
1, 240776, Note_off_c, 1, 66, 0
1, 240778, Note_on_c, 1, 69, 127
1, 240946, Note_off_c, 1, 69, 0
1, 241110, Note_off_c, 1, 78, 0
1, 241110, Note_off_c, 1, 54, 0
1, 241117, Note_on_c, 1, 73, 127
1, 241286, Note_on_c, 1, 61, 127
1, 241452, Note_off_c, 1, 73, 0
1, 241454, Note_off_c, 1, 61, 0
1, 241456, Note_on_c, 1, 64, 127
1, 241456, Note_on_c, 1, 52, 127
1, 241456, Note_on_c, 1, 56, 127
1, 241624, Note_off_c, 1, 64, 0
1, 241626, Note_on_c, 1, 61, 127
1, 241794, Note_off_c, 1, 52, 0
1, 241794, Note_off_c, 1, 56, 0
1, 241794, Note_off_c, 1, 61, 0
1, 241796, Note_on_c, 1, 57, 127
1, 241796, Note_on_c, 1, 66, 127
1, 241796, Note_on_c, 1, 50, 127
1, 241964, Note_off_c, 1, 57, 0
1, 241966, Note_on_c, 1, 56, 127
1, 242134, Note_off_c, 1, 66, 0
1, 242134, Note_off_c, 1, 56, 0
1, 242306, Note_on_c, 1, 54, 127
1, 242474, Note_off_c, 1, 54, 0
1, 242476, Note_on_c, 1, 59, 127
1, 242644, Note_off_c, 1, 59, 0
1, 242646, Note_off_c, 1, 50, 0
1, 242816, Note_on_c, 1, 59, 127
1, 242816, Note_on_c, 1, 66, 127
1, 242816, Note_on_c, 1, 50, 127
1, 242984, Note_off_c, 1, 59, 0
1, 242986, Note_on_c, 1, 54, 127
1, 243154, Note_off_c, 1, 66, 0
1, 243154, Note_off_c, 1, 50, 0
1, 243156, Note_on_c, 1, 68, 127
1, 243156, Note_on_c, 1, 47, 127
1, 243493, Note_off_c, 1, 54, 0
1, 243493, Note_off_c, 1, 68, 0
1, 243495, Note_on_c, 1, 71, 127
1, 243495, Note_on_c, 1, 56, 127
1, 243663, Note_off_c, 1, 71, 0
1, 243663, Note_off_c, 1, 56, 0
1, 243665, Note_on_c, 1, 69, 127
1, 243833, Note_off_c, 1, 47, 0
1, 243833, Note_off_c, 1, 69, 0
1, 243835, Note_on_c, 1, 68, 127
1, 243835, Note_on_c, 1, 53, 127
1, 243835, Note_on_c, 1, 49, 127
1, 244172, Note_off_c, 1, 68, 0
1, 244174, Note_on_c, 1, 73, 127
1, 244342, Note_off_c, 1, 53, 0
1, 244342, Note_off_c, 1, 73, 0
1, 244344, Note_on_c, 1, 71, 127
1, 244512, Note_off_c, 1, 49, 0
1, 244512, Note_off_c, 1, 71, 0
1, 244514, Note_on_c, 1, 69, 127
1, 244514, Note_on_c, 1, 54, 127
1, 244514, Note_on_c, 1, 42, 127
1, 244851, Note_off_c, 1, 69, 0
1, 244853, Note_on_c, 1, 73, 127
1, 245021, Note_off_c, 1, 73, 0
1, 245023, Note_on_c, 1, 71, 127
1, 245191, Note_off_c, 1, 71, 0
1, 245362, Note_off_c, 1, 54, 0
1, 245362, Note_off_c, 1, 42, 0
1, 245532, Note_on_c, 1, 74, 127
1, 245532, Note_on_c, 1, 57, 127
1, 245532, Note_on_c, 1, 54, 127
1, 245700, Note_off_c, 1, 74, 0
1, 245702, Note_on_c, 1, 73, 127
1, 245870, Note_off_c, 1, 57, 0
1, 245870, Note_off_c, 1, 54, 0
1, 245870, Note_off_c, 1, 73, 0
1, 245872, Note_on_c, 1, 71, 127
1, 245872, Note_on_c, 1, 59, 127
1, 245872, Note_on_c, 1, 56, 127
1, 246040, Note_off_c, 1, 71, 0
1, 246042, Note_on_c, 1, 76, 127
1, 246210, Note_off_c, 1, 59, 0
1, 246210, Note_off_c, 1, 56, 0
1, 246210, Note_off_c, 1, 76, 0
1, 246212, Note_on_c, 1, 73, 127
1, 246212, Note_on_c, 1, 57, 127
1, 246380, Note_off_c, 1, 73, 0
1, 246382, Note_on_c, 1, 69, 127
1, 246550, Note_off_c, 1, 69, 0
1, 246552, Note_on_c, 1, 52, 127
1, 246637, Note_on_c, 1, 71, 127
1, 246720, Note_off_c, 1, 71, 0
1, 246890, Note_off_c, 1, 57, 0
1, 246892, Note_on_c, 1, 56, 127
1, 247229, Note_off_c, 1, 52, 0
1, 247229, Note_off_c, 1, 56, 0
1, 247231, Note_on_c, 1, 69, 127
1, 247231, Note_on_c, 1, 45, 127
1, 247231, Note_on_c, 1, 57, 127
1, 247400, Note_on_c, 1, 76, 127
1, 247566, Note_off_c, 1, 69, 0
1, 247568, Note_off_c, 1, 76, 0
1, 247570, Note_on_c, 1, 73, 127
1, 247738, Note_off_c, 1, 73, 0
1, 247832, Note_off_c, 1, 45, 0
1, 247903, Note_off_c, 1, 57, 0
1, 247910, Note_on_c, 1, 68, 127
1, 248079, Note_on_c, 1, 71, 127
1, 248247, Note_off_c, 1, 71, 0
1, 248249, Note_on_c, 1, 76, 127
1, 248249, Note_on_c, 1, 52, 127
1, 248249, Note_on_c, 1, 44, 127
1, 248249, Note_on_c, 1, 47, 127
1, 248404, Note_off_c, 1, 68, 0
1, 248416, Note_off_c, 1, 76, 0
1, 248418, Note_on_c, 1, 64, 127
1, 248586, Note_off_c, 1, 52, 0
1, 248586, Note_off_c, 1, 44, 0
1, 248586, Note_off_c, 1, 47, 0
1, 248586, Note_off_c, 1, 64, 0
1, 248588, Note_on_c, 1, 69, 127
1, 248588, Note_on_c, 1, 57, 127
1, 248588, Note_on_c, 1, 49, 127
1, 248588, Note_on_c, 1, 52, 127
1, 248588, Note_on_c, 1, 45, 127
1, 248756, Note_off_c, 1, 69, 0
1, 248758, Note_on_c, 1, 76, 127
1, 248926, Note_off_c, 1, 76, 0
1, 248928, Note_on_c, 1, 73, 127
1, 249083, Note_off_c, 1, 57, 0
1, 249083, Note_off_c, 1, 49, 0
1, 249083, Note_off_c, 1, 52, 0
1, 249083, Note_off_c, 1, 45, 0
1, 249095, Note_off_c, 1, 73, 0
1, 249097, Note_on_c, 1, 69, 127
1, 249265, Note_off_c, 1, 69, 0
1, 249267, Note_on_c, 1, 68, 127
1, 249267, Note_on_c, 1, 52, 127
1, 249267, Note_on_c, 1, 40, 127
1, 249267, Note_on_c, 1, 44, 127
1, 249267, Note_on_c, 1, 47, 127
1, 249435, Note_off_c, 1, 68, 0
1, 249437, Note_on_c, 1, 71, 127
1, 249605, Note_off_c, 1, 71, 0
1, 249607, Note_on_c, 1, 76, 127
1, 249762, Note_off_c, 1, 52, 0
1, 249762, Note_off_c, 1, 40, 0
1, 249762, Note_off_c, 1, 44, 0
1, 249762, Note_off_c, 1, 47, 0
1, 249774, Note_off_c, 1, 76, 0
1, 249776, Note_on_c, 1, 64, 127
1, 249944, Note_off_c, 1, 64, 0
1, 249946, Note_on_c, 1, 68, 127
1, 249946, Note_on_c, 1, 47, 127
1, 249946, Note_on_c, 1, 40, 127
1, 249946, Note_on_c, 1, 44, 127
1, 249946, Note_on_c, 1, 52, 127
1, 250114, Note_off_c, 1, 68, 0
1, 250116, Note_on_c, 1, 71, 127
1, 250284, Note_off_c, 1, 71, 0
1, 250456, Note_on_c, 1, 64, 127
1, 250548, Note_off_c, 1, 47, 0
1, 250548, Note_off_c, 1, 40, 0
1, 250548, Note_off_c, 1, 44, 0
1, 250548, Note_off_c, 1, 52, 0
1, 250624, Note_off_c, 1, 64, 0
1, 250626, Note_on_c, 1, 63, 127
1, 250795, Note_on_c, 1, 66, 127
1, 250963, Note_off_c, 1, 66, 0
1, 250965, Note_on_c, 1, 71, 127
1, 250965, Note_on_c, 1, 51, 127
1, 250965, Note_on_c, 1, 47, 127
1, 250965, Note_on_c, 1, 39, 127
1, 251120, Note_off_c, 1, 63, 0
1, 251132, Note_off_c, 1, 71, 0
1, 251134, Note_on_c, 1, 59, 127
1, 251302, Note_off_c, 1, 51, 0
1, 251302, Note_off_c, 1, 47, 0
1, 251302, Note_off_c, 1, 39, 0
1, 251302, Note_off_c, 1, 59, 0
1, 251304, Note_on_c, 1, 64, 127
1, 251304, Note_on_c, 1, 47, 127
1, 251304, Note_on_c, 1, 52, 127
1, 251304, Note_on_c, 1, 44, 127
1, 251304, Note_on_c, 1, 40, 127
1, 251472, Note_off_c, 1, 64, 0
1, 251474, Note_on_c, 1, 71, 127
1, 251642, Note_off_c, 1, 71, 0
1, 251644, Note_on_c, 1, 68, 127
1, 251799, Note_off_c, 1, 47, 0
1, 251799, Note_off_c, 1, 52, 0
1, 251799, Note_off_c, 1, 44, 0
1, 251799, Note_off_c, 1, 40, 0
1, 251811, Note_off_c, 1, 68, 0
1, 251813, Note_on_c, 1, 64, 127
1, 251981, Note_off_c, 1, 64, 0
1, 251983, Note_on_c, 1, 63, 127
1, 251983, Note_on_c, 1, 54, 127
1, 251983, Note_on_c, 1, 47, 127
1, 251983, Note_on_c, 1, 51, 127
1, 252151, Note_off_c, 1, 63, 0
1, 252153, Note_on_c, 1, 66, 127
1, 252321, Note_off_c, 1, 66, 0
1, 252323, Note_on_c, 1, 71, 127
1, 252478, Note_off_c, 1, 54, 0
1, 252478, Note_off_c, 1, 47, 0
1, 252478, Note_off_c, 1, 51, 0
1, 252490, Note_off_c, 1, 71, 0
1, 252492, Note_on_c, 1, 59, 127
1, 252661, Note_on_c, 1, 44, 127
1, 252829, Note_off_c, 1, 59, 0
1, 252831, Note_on_c, 1, 71, 127
1, 252999, Note_off_c, 1, 71, 0
1, 253001, Note_on_c, 1, 68, 127
1, 253001, Note_on_c, 1, 52, 127
1, 253169, Note_off_c, 1, 68, 0
1, 253171, Note_on_c, 1, 64, 127
1, 253339, Note_off_c, 1, 44, 0
1, 253339, Note_off_c, 1, 64, 0
1, 253341, Note_on_c, 1, 61, 127
1, 253341, Note_on_c, 1, 45, 127
1, 253509, Note_off_c, 1, 61, 0
1, 253511, Note_on_c, 1, 73, 127
1, 253679, Note_off_c, 1, 52, 0
1, 253679, Note_off_c, 1, 73, 0
1, 253681, Note_on_c, 1, 69, 127
1, 253681, Note_on_c, 1, 54, 127
1, 253849, Note_off_c, 1, 69, 0
1, 253851, Note_on_c, 1, 66, 127
1, 254019, Note_off_c, 1, 45, 0
1, 254019, Note_off_c, 1, 66, 0
1, 254021, Note_on_c, 1, 63, 127
1, 254021, Note_on_c, 1, 47, 127
1, 254190, Note_on_c, 1, 75, 127
1, 254215, Note_off_c, 1, 63, 0
1, 254358, Note_off_c, 1, 54, 0
1, 254358, Note_off_c, 1, 75, 0
1, 254360, Note_on_c, 1, 56, 127
1, 254698, Note_off_c, 1, 47, 0
1, 254700, Note_on_c, 1, 49, 127
1, 254869, Note_on_c, 1, 76, 127
1, 255037, Note_off_c, 1, 56, 0
1, 255037, Note_off_c, 1, 76, 0
1, 255039, Note_on_c, 1, 57, 127
1, 255377, Note_off_c, 1, 49, 0
1, 255379, Note_on_c, 1, 51, 127
1, 255548, Note_on_c, 1, 78, 127
1, 255715, Note_off_c, 1, 57, 0
1, 255715, Note_off_c, 1, 78, 0
1, 256055, Note_off_c, 1, 51, 0
1, 256226, Note_on_c, 1, 80, 127
1, 256393, Note_off_c, 1, 80, 0
1, 256904, Note_on_c, 1, 81, 127
1, 257072, Note_off_c, 1, 81, 0
1, 257582, Note_on_c, 1, 83, 127
1, 257750, Note_off_c, 1, 83, 0
1, 259110, Note_on_c, 1, 80, 127
1, 259110, Note_on_c, 1, 52, 127
1, 259110, Note_on_c, 1, 59, 127
1, 259278, Note_off_c, 1, 80, 0
1, 259278, Note_off_c, 1, 52, 0
1, 259280, Note_on_c, 1, 81, 127
1, 259280, Note_on_c, 1, 54, 127
1, 259448, Note_off_c, 1, 59, 0
1, 259448, Note_off_c, 1, 81, 0
1, 259448, Note_off_c, 1, 54, 0
1, 259450, Note_on_c, 1, 56, 127
1, 259450, Note_on_c, 1, 83, 127
1, 259450, Note_on_c, 1, 64, 127
1, 259619, Note_on_c, 1, 71, 127
1, 259787, Note_off_c, 1, 56, 0
1, 259787, Note_off_c, 1, 71, 0
1, 259789, Note_on_c, 1, 73, 127
1, 259789, Note_on_c, 1, 57, 127
1, 259944, Note_off_c, 1, 83, 0
1, 259958, Note_on_c, 1, 81, 127
1, 260124, Note_off_c, 1, 73, 0
1, 260126, Note_off_c, 1, 57, 0
1, 260128, Note_on_c, 1, 59, 127
1, 260294, Note_off_c, 1, 81, 0
1, 260298, Note_on_c, 1, 80, 127
1, 260466, Note_off_c, 1, 64, 0
1, 260468, Note_on_c, 1, 69, 127
1, 260468, Note_on_c, 1, 63, 127
1, 260634, Note_off_c, 1, 80, 0
1, 260638, Note_on_c, 1, 78, 127
1, 260800, Note_off_c, 1, 59, 0
1, 260804, Note_off_c, 1, 69, 0
1, 260804, Note_off_c, 1, 63, 0
1, 260806, Note_off_c, 1, 78, 0
1, 260808, Note_on_c, 1, 64, 127
1, 260808, Note_on_c, 1, 68, 127
1, 260808, Note_on_c, 1, 71, 127
1, 260808, Note_on_c, 1, 76, 127
1, 260977, Note_on_c, 1, 52, 127
1, 261145, Note_off_c, 1, 52, 0
1, 261147, Note_on_c, 1, 56, 127
1, 261315, Note_off_c, 1, 56, 0
1, 261409, Note_off_c, 1, 64, 0
1, 261409, Note_off_c, 1, 68, 0
1, 261409, Note_off_c, 1, 71, 0
1, 261409, Note_off_c, 1, 76, 0
1, 261487, Note_on_c, 1, 59, 127
1, 261655, Note_off_c, 1, 59, 0
1, 261657, Note_on_c, 1, 66, 127
1, 261657, Note_on_c, 1, 47, 127
1, 261825, Note_off_c, 1, 66, 0
1, 261825, Note_off_c, 1, 47, 0
1, 261827, Note_on_c, 1, 68, 127
1, 261827, Note_on_c, 1, 51, 127
1, 261995, Note_off_c, 1, 68, 0
1, 261995, Note_off_c, 1, 51, 0
1, 261997, Note_on_c, 1, 69, 127
1, 261997, Note_on_c, 1, 47, 127
1, 262165, Note_off_c, 1, 69, 0
1, 262165, Note_off_c, 1, 47, 0
1, 262167, Note_on_c, 1, 52, 127
1, 262167, Note_on_c, 1, 68, 127
1, 262504, Note_off_c, 1, 52, 0
1, 263013, Note_off_c, 1, 68, 0
1, 263185, Note_on_c, 1, 69, 127
1, 263185, Note_on_c, 1, 52, 127
1, 263353, Note_off_c, 1, 69, 0
1, 263355, Note_on_c, 1, 71, 127
1, 263523, Note_off_c, 1, 52, 0
1, 263523, Note_off_c, 1, 71, 0
1, 263525, Note_on_c, 1, 54, 127
1, 263525, Note_on_c, 1, 69, 127
1, 263862, Note_off_c, 1, 54, 0
1, 263864, Note_on_c, 1, 57, 127
1, 264032, Note_off_c, 1, 57, 0
1, 264034, Note_on_c, 1, 56, 127
1, 264202, Note_off_c, 1, 56, 0
1, 264372, Note_off_c, 1, 69, 0
1, 264544, Note_on_c, 1, 68, 127
1, 264544, Note_on_c, 1, 59, 127
1, 264712, Note_off_c, 1, 68, 0
1, 264712, Note_off_c, 1, 59, 0
1, 264714, Note_on_c, 1, 66, 127
1, 264714, Note_on_c, 1, 57, 127
1, 264882, Note_off_c, 1, 66, 0
1, 264882, Note_off_c, 1, 57, 0
1, 264884, Note_on_c, 1, 56, 127
1, 264884, Note_on_c, 1, 71, 127
1, 265221, Note_off_c, 1, 56, 0
1, 265223, Note_on_c, 1, 59, 127
1, 265391, Note_off_c, 1, 59, 0
1, 265393, Note_on_c, 1, 57, 127
1, 265561, Note_off_c, 1, 57, 0
1, 265731, Note_off_c, 1, 71, 0
1, 265903, Note_on_c, 1, 69, 127
1, 265903, Note_on_c, 1, 61, 127
1, 266071, Note_off_c, 1, 69, 0
1, 266071, Note_off_c, 1, 61, 0
1, 266073, Note_on_c, 1, 68, 127
1, 266073, Note_on_c, 1, 59, 127
1, 266241, Note_off_c, 1, 68, 0
1, 266241, Note_off_c, 1, 59, 0
1, 266243, Note_on_c, 1, 58, 127
1, 266243, Note_on_c, 1, 73, 127
1, 266411, Note_off_c, 1, 58, 0
1, 266413, Note_on_c, 1, 56, 127
1, 266581, Note_off_c, 1, 56, 0
1, 266751, Note_off_c, 1, 73, 0
1, 266753, Note_on_c, 1, 73, 127
1, 266753, Note_on_c, 1, 54, 127
1, 266921, Note_off_c, 1, 73, 0
1, 266921, Note_off_c, 1, 54, 0
1, 266923, Note_on_c, 1, 74, 127
1, 266923, Note_on_c, 1, 59, 127
1, 267091, Note_off_c, 1, 74, 0
1, 267093, Note_on_c, 1, 71, 127
1, 267261, Note_off_c, 1, 59, 0
1, 267261, Note_off_c, 1, 71, 0
1, 267263, Note_on_c, 1, 76, 127
1, 267263, Note_on_c, 1, 67, 127
1, 267431, Note_off_c, 1, 76, 0
1, 267433, Note_on_c, 1, 74, 127
1, 267601, Note_off_c, 1, 67, 0
1, 267601, Note_off_c, 1, 74, 0
1, 267603, Note_on_c, 1, 79, 127
1, 267603, Note_on_c, 1, 58, 127
1, 267771, Note_off_c, 1, 79, 0
1, 267773, Note_on_c, 1, 73, 127
1, 267941, Note_off_c, 1, 58, 0
1, 267941, Note_off_c, 1, 73, 0
1, 267943, Note_on_c, 1, 74, 127
1, 267943, Note_on_c, 1, 59, 127
1, 268111, Note_off_c, 1, 74, 0
1, 268113, Note_on_c, 1, 76, 127
1, 268281, Note_off_c, 1, 76, 0
1, 268340, Note_on_c, 1, 73, 127
1, 268422, Note_off_c, 1, 73, 0
1, 268620, Note_off_c, 1, 59, 0
1, 268622, Note_on_c, 1, 58, 127
1, 268792, Note_on_c, 1, 75, 127
1, 268960, Note_off_c, 1, 58, 0
1, 268960, Note_off_c, 1, 75, 0
1, 268962, Note_on_c, 1, 75, 127
1, 268962, Note_on_c, 1, 59, 127
1, 269130, Note_off_c, 1, 75, 0
1, 269132, Note_on_c, 1, 71, 127
1, 269300, Note_off_c, 1, 71, 0
1, 269642, Note_on_c, 1, 78, 127
1, 269670, Note_off_c, 1, 59, 0
1, 269809, Note_off_c, 1, 78, 0
1, 269811, Note_on_c, 1, 66, 127
1, 269811, Note_on_c, 1, 58, 127
1, 269979, Note_off_c, 1, 66, 0
1, 269979, Note_off_c, 1, 58, 0
1, 269981, Note_on_c, 1, 70, 127
1, 269981, Note_on_c, 1, 56, 127
1, 270149, Note_off_c, 1, 70, 0
1, 270149, Note_off_c, 1, 56, 0
1, 270151, Note_on_c, 1, 66, 127
1, 270151, Note_on_c, 1, 54, 127
1, 270319, Note_off_c, 1, 66, 0
1, 270319, Note_off_c, 1, 54, 0
1, 270321, Note_on_c, 1, 71, 127
1, 270321, Note_on_c, 1, 56, 127
1, 270658, Note_off_c, 1, 71, 0
1, 271027, Note_off_c, 1, 56, 0
1, 271168, Note_on_c, 1, 59, 127
1, 271336, Note_off_c, 1, 59, 0
1, 271338, Note_on_c, 1, 58, 127
1, 271338, Note_on_c, 1, 71, 127
1, 271506, Note_off_c, 1, 58, 0
1, 271508, Note_on_c, 1, 56, 127
1, 271676, Note_off_c, 1, 71, 0
1, 271676, Note_off_c, 1, 56, 0
1, 271678, Note_on_c, 1, 73, 127
1, 271678, Note_on_c, 1, 58, 127
1, 272015, Note_off_c, 1, 73, 0
1, 272017, Note_on_c, 1, 76, 127
1, 272185, Note_off_c, 1, 76, 0
1, 272187, Note_on_c, 1, 75, 127
1, 272355, Note_off_c, 1, 75, 0
1, 272385, Note_off_c, 1, 58, 0
1, 272526, Note_on_c, 1, 54, 127
1, 272694, Note_off_c, 1, 54, 0
1, 272696, Note_on_c, 1, 78, 127
1, 272696, Note_on_c, 1, 56, 127
1, 272864, Note_off_c, 1, 78, 0
1, 272864, Note_off_c, 1, 56, 0
1, 272866, Note_on_c, 1, 76, 127
1, 272866, Note_on_c, 1, 58, 127
1, 273034, Note_off_c, 1, 76, 0
1, 273034, Note_off_c, 1, 58, 0
1, 273036, Note_on_c, 1, 75, 127
1, 273036, Note_on_c, 1, 59, 127
1, 273373, Note_off_c, 1, 75, 0
1, 273375, Note_on_c, 1, 78, 127
1, 273543, Note_off_c, 1, 78, 0
1, 273545, Note_on_c, 1, 76, 127
1, 273713, Note_off_c, 1, 76, 0
1, 273743, Note_off_c, 1, 59, 0
1, 273884, Note_on_c, 1, 58, 127
1, 274052, Note_off_c, 1, 58, 0
1, 274054, Note_on_c, 1, 80, 127
1, 274054, Note_on_c, 1, 59, 127
1, 274222, Note_off_c, 1, 80, 0
1, 274222, Note_off_c, 1, 59, 0
1, 274224, Note_on_c, 1, 76, 127
1, 274224, Note_on_c, 1, 61, 127
1, 274392, Note_off_c, 1, 76, 0
1, 274392, Note_off_c, 1, 61, 0
1, 274394, Note_on_c, 1, 63, 127
1, 274394, Note_on_c, 1, 83, 127
1, 274562, Note_off_c, 1, 63, 0
1, 274564, Note_on_c, 1, 61, 127
1, 274732, Note_off_c, 1, 61, 0
1, 274902, Note_off_c, 1, 83, 0
1, 274904, Note_on_c, 1, 78, 127
1, 274904, Note_on_c, 1, 59, 127
1, 275072, Note_off_c, 1, 78, 0
1, 275072, Note_off_c, 1, 59, 0
1, 275074, Note_on_c, 1, 80, 127
1, 275074, Note_on_c, 1, 64, 127
1, 275242, Note_off_c, 1, 80, 0
1, 275244, Note_on_c, 1, 75, 127
1, 275412, Note_off_c, 1, 64, 0
1, 275412, Note_off_c, 1, 75, 0
1, 275414, Note_on_c, 1, 76, 127
1, 275414, Note_on_c, 1, 56, 127
1, 275582, Note_off_c, 1, 76, 0
1, 275584, Note_on_c, 1, 71, 127
1, 275752, Note_off_c, 1, 56, 0
1, 275752, Note_off_c, 1, 71, 0
1, 275754, Note_on_c, 1, 57, 127
1, 275754, Note_on_c, 1, 73, 127
1, 275922, Note_off_c, 1, 57, 0
1, 275924, Note_on_c, 1, 56, 127
1, 276092, Note_off_c, 1, 56, 0
1, 276262, Note_off_c, 1, 73, 0
1, 276264, Note_on_c, 1, 76, 127
1, 276264, Note_on_c, 1, 52, 127
1, 276432, Note_off_c, 1, 76, 0
1, 276432, Note_off_c, 1, 52, 0
1, 276434, Note_on_c, 1, 81, 127
1, 276434, Note_on_c, 1, 54, 127
1, 276602, Note_off_c, 1, 81, 0
1, 276604, Note_on_c, 1, 76, 127
1, 276772, Note_off_c, 1, 54, 0
1, 276772, Note_off_c, 1, 76, 0
1, 276774, Note_on_c, 1, 78, 127
1, 276774, Note_on_c, 1, 45, 127
1, 276942, Note_off_c, 1, 78, 0
1, 276944, Note_on_c, 1, 73, 127
1, 277112, Note_off_c, 1, 45, 0
1, 277112, Note_off_c, 1, 73, 0
1, 277114, Note_on_c, 1, 47, 127
1, 277114, Note_on_c, 1, 75, 127
1, 277282, Note_off_c, 1, 47, 0
1, 277284, Note_on_c, 1, 45, 127
1, 277452, Note_off_c, 1, 45, 0
1, 277622, Note_off_c, 1, 75, 0
1, 277624, Note_on_c, 1, 75, 127
1, 277624, Note_on_c, 1, 42, 127
1, 277792, Note_off_c, 1, 75, 0
1, 277792, Note_off_c, 1, 42, 0
1, 277794, Note_on_c, 1, 76, 127
1, 277794, Note_on_c, 1, 44, 127
1, 277962, Note_off_c, 1, 76, 0
1, 277962, Note_off_c, 1, 44, 0
1, 277964, Note_on_c, 1, 78, 127
1, 277964, Note_on_c, 1, 42, 127
1, 278132, Note_off_c, 1, 78, 0
1, 278132, Note_off_c, 1, 42, 0
1, 278134, Note_on_c, 1, 76, 127
1, 278134, Note_on_c, 1, 44, 127
1, 278302, Note_off_c, 1, 76, 0
1, 278302, Note_off_c, 1, 44, 0
1, 278304, Note_on_c, 1, 75, 127
1, 278304, Note_on_c, 1, 40, 127
1, 278472, Note_off_c, 1, 75, 0
1, 278472, Note_off_c, 1, 40, 0
1, 278474, Note_on_c, 1, 73, 127
1, 278474, Note_on_c, 1, 45, 127
1, 278642, Note_off_c, 1, 73, 0
1, 278644, Note_on_c, 1, 75, 127
1, 278812, Note_off_c, 1, 45, 0
1, 278812, Note_off_c, 1, 75, 0
1, 278814, Note_on_c, 1, 73, 127
1, 278814, Note_on_c, 1, 47, 127
1, 278982, Note_off_c, 1, 73, 0
1, 278984, Note_on_c, 1, 71, 127
1, 279152, Note_off_c, 1, 47, 0
1, 279152, Note_off_c, 1, 71, 0
1, 279154, Note_on_c, 1, 69, 127
1, 279154, Note_on_c, 1, 49, 127
1, 279322, Note_off_c, 1, 69, 0
1, 279324, Note_on_c, 1, 71, 127
1, 279407, Note_off_c, 1, 71, 0
1, 279492, Note_off_c, 1, 49, 0
1, 279494, Note_on_c, 1, 71, 127
1, 279494, Note_on_c, 1, 51, 127
1, 279577, Note_off_c, 1, 71, 0
1, 279579, Note_on_c, 1, 69, 127
1, 279662, Note_off_c, 1, 69, 0
1, 279664, Note_on_c, 1, 68, 127
1, 279832, Note_off_c, 1, 51, 0
1, 279832, Note_off_c, 1, 68, 0
1, 279834, Note_on_c, 1, 68, 127
1, 279834, Note_on_c, 1, 52, 127
1, 280505, Note_off_c, 1, 68, 0
1, 280544, Note_off_c, 1, 52, 0
1, 280701, Note_on_c, 1, 73, 127
1, 280701, Note_on_c, 1, 52, 127
1, 280888, Note_off_c, 1, 73, 0
1, 280888, Note_off_c, 1, 52, 0
1, 280890, Note_on_c, 1, 75, 127
1, 280890, Note_on_c, 1, 51, 127
1, 281077, Note_off_c, 1, 75, 0
1, 281077, Note_off_c, 1, 51, 0
1, 281079, Note_on_c, 1, 76, 127
1, 281079, Note_on_c, 1, 49, 127
1, 281266, Note_off_c, 1, 76, 0
1, 281266, Note_off_c, 1, 49, 0
1, 281268, Note_on_c, 1, 67, 127
1, 281268, Note_on_c, 1, 51, 127
1, 281441, Note_off_c, 1, 67, 0
1, 281443, Note_on_c, 1, 73, 127
1, 281616, Note_off_c, 1, 51, 0
1, 281618, Note_on_c, 1, 56, 127
1, 281791, Note_off_c, 1, 73, 0
1, 281793, Note_on_c, 1, 71, 127
1, 281966, Note_off_c, 1, 56, 0
1, 281968, Note_on_c, 1, 49, 127
1, 282048, Note_off_c, 1, 71, 0
1, 282316, Note_off_c, 1, 49, 0
1, 282318, Note_on_c, 1, 54, 127
1, 282493, Note_on_c, 1, 70, 127
1, 282666, Note_off_c, 1, 54, 0
1, 282668, Note_on_c, 1, 47, 127
1, 282748, Note_off_c, 1, 70, 0
1, 283016, Note_off_c, 1, 47, 0
1, 283018, Note_on_c, 1, 52, 127
1, 283193, Note_on_c, 1, 68, 127
1, 283366, Note_off_c, 1, 52, 0
1, 283448, Note_off_c, 1, 68, 0
1, 283718, Note_on_c, 1, 50, 127
1, 284066, Note_off_c, 1, 50, 0
1, 284068, Note_on_c, 1, 67, 127
1, 284068, Note_on_c, 1, 51, 127
1, 284243, Note_on_c, 1, 63, 127
1, 284414, Note_off_c, 1, 67, 0
1, 284416, Note_off_c, 1, 51, 0
1, 284416, Note_off_c, 1, 63, 0
1, 284418, Note_on_c, 1, 71, 127
1, 284418, Note_on_c, 1, 44, 127
1, 284591, Note_off_c, 1, 71, 0
1, 284593, Note_on_c, 1, 73, 127
1, 284766, Note_off_c, 1, 44, 0
1, 284766, Note_off_c, 1, 73, 0
1, 284768, Note_on_c, 1, 71, 127
1, 284768, Note_on_c, 1, 49, 127
1, 284853, Note_off_c, 1, 71, 0
1, 284855, Note_on_c, 1, 70, 127
1, 284940, Note_off_c, 1, 70, 0
1, 285114, Note_off_c, 1, 49, 0
1, 285116, Note_on_c, 1, 51, 127
1, 285464, Note_off_c, 1, 51, 0
1, 285466, Note_on_c, 1, 71, 127
1, 285466, Note_on_c, 1, 44, 127
1, 285639, Note_off_c, 1, 71, 0
1, 285639, Note_off_c, 1, 44, 0
1, 285644, Note_on_c, 1, 56, 127
1, 285644, Note_on_c, 1, 70, 127
1, 285817, Note_off_c, 1, 56, 0
1, 285817, Note_off_c, 1, 70, 0
1, 285821, Note_on_c, 1, 60, 127
1, 285821, Note_on_c, 1, 68, 127
1, 285994, Note_off_c, 1, 60, 0
1, 286007, Note_on_c, 1, 56, 127
1, 286169, Note_off_c, 1, 68, 0
1, 286180, Note_off_c, 1, 56, 0
1, 286182, Note_on_c, 1, 61, 127
1, 286182, Note_on_c, 1, 76, 127
1, 286350, Note_off_c, 1, 61, 0
1, 286352, Note_on_c, 1, 49, 127
1, 286520, Note_off_c, 1, 49, 0
1, 286522, Note_on_c, 1, 52, 127
1, 286522, Note_on_c, 1, 68, 127
1, 286690, Note_off_c, 1, 52, 0
1, 286860, Note_off_c, 1, 68, 0
1, 286862, Note_on_c, 1, 54, 127
1, 286862, Note_on_c, 1, 69, 127
1, 287199, Note_off_c, 1, 76, 0
1, 287199, Note_off_c, 1, 54, 0
1, 287201, Note_on_c, 1, 78, 127
1, 287369, Note_off_c, 1, 78, 0
1, 287541, Note_on_c, 1, 75, 127
1, 287709, Note_off_c, 1, 75, 0
1, 287881, Note_on_c, 1, 73, 127
1, 288049, Note_off_c, 1, 73, 0
1, 288219, Note_off_c, 1, 69, 0
1, 288221, Note_on_c, 1, 56, 127
1, 288221, Note_on_c, 1, 72, 127
1, 288221, Note_on_c, 1, 68, 127
1, 288389, Note_off_c, 1, 56, 0
1, 288391, Note_on_c, 1, 57, 127
1, 288559, Note_off_c, 1, 57, 0
1, 288561, Note_on_c, 1, 54, 127
1, 288729, Note_off_c, 1, 72, 0
1, 288729, Note_off_c, 1, 54, 0
1, 288901, Note_on_c, 1, 52, 127
1, 288901, Note_on_c, 1, 73, 127
1, 289069, Note_off_c, 1, 68, 0
1, 289239, Note_off_c, 1, 52, 0
1, 289239, Note_off_c, 1, 73, 0
1, 289241, Note_on_c, 1, 53, 127
1, 289241, Note_on_c, 1, 71, 127
1, 289579, Note_off_c, 1, 53, 0
1, 289579, Note_off_c, 1, 71, 0
1, 289581, Note_on_c, 1, 54, 127
1, 289581, Note_on_c, 1, 69, 127
1, 289581, Note_on_c, 1, 66, 127
1, 289749, Note_off_c, 1, 54, 0
1, 289751, Note_on_c, 1, 56, 127
1, 289919, Note_off_c, 1, 56, 0
1, 289921, Note_on_c, 1, 52, 127
1, 290089, Note_off_c, 1, 69, 0
1, 290089, Note_off_c, 1, 52, 0
1, 290261, Note_on_c, 1, 51, 127
1, 290261, Note_on_c, 1, 71, 127
1, 290429, Note_off_c, 1, 66, 0
1, 290599, Note_off_c, 1, 51, 0
1, 290599, Note_off_c, 1, 71, 0
1, 290941, Note_on_c, 1, 52, 127
1, 290941, Note_on_c, 1, 64, 127
1, 290941, Note_on_c, 1, 68, 127
1, 291109, Note_off_c, 1, 52, 0
1, 291111, Note_on_c, 1, 54, 127
1, 291279, Note_off_c, 1, 54, 0
1, 291281, Note_on_c, 1, 51, 127
1, 291449, Note_off_c, 1, 51, 0
1, 291613, Note_off_c, 1, 64, 0
1, 291618, Note_off_c, 1, 68, 0
1, 291620, Note_on_c, 1, 49, 127
1, 291620, Note_on_c, 1, 76, 127
1, 291788, Note_off_c, 1, 49, 0
1, 291788, Note_off_c, 1, 76, 0
1, 291790, Note_on_c, 1, 51, 127
1, 291790, Note_on_c, 1, 78, 127
1, 291958, Note_off_c, 1, 51, 0
1, 291958, Note_off_c, 1, 78, 0
1, 291960, Note_on_c, 1, 47, 127
1, 291960, Note_on_c, 1, 75, 127
1, 292128, Note_off_c, 1, 47, 0
1, 292128, Note_off_c, 1, 75, 0
1, 292130, Note_on_c, 1, 49, 127
1, 292130, Note_on_c, 1, 76, 127
1, 292298, Note_off_c, 1, 49, 0
1, 292298, Note_off_c, 1, 76, 0
1, 292300, Note_on_c, 1, 45, 127
1, 292300, Note_on_c, 1, 73, 127
1, 292468, Note_off_c, 1, 45, 0
1, 292468, Note_off_c, 1, 73, 0
1, 292470, Note_on_c, 1, 47, 127
1, 292470, Note_on_c, 1, 75, 127
1, 292638, Note_off_c, 1, 47, 0
1, 292638, Note_off_c, 1, 75, 0
1, 292640, Note_on_c, 1, 44, 127
1, 292640, Note_on_c, 1, 71, 127
1, 292808, Note_off_c, 1, 44, 0
1, 292808, Note_off_c, 1, 71, 0
1, 292810, Note_on_c, 1, 45, 127
1, 292810, Note_on_c, 1, 73, 127
1, 292978, Note_off_c, 1, 45, 0
1, 292978, Note_off_c, 1, 73, 0
1, 292980, Note_on_c, 1, 42, 127
1, 292980, Note_on_c, 1, 69, 127
1, 293148, Note_off_c, 1, 42, 0
1, 293148, Note_off_c, 1, 69, 0
1, 293150, Note_on_c, 1, 44, 127
1, 293150, Note_on_c, 1, 71, 127
1, 293318, Note_off_c, 1, 44, 0
1, 293318, Note_off_c, 1, 71, 0
1, 293320, Note_on_c, 1, 40, 127
1, 293320, Note_on_c, 1, 68, 127
1, 293488, Note_off_c, 1, 40, 0
1, 293488, Note_off_c, 1, 68, 0
1, 293490, Note_on_c, 1, 42, 127
1, 293490, Note_on_c, 1, 69, 127
1, 293658, Note_off_c, 1, 42, 0
1, 293658, Note_off_c, 1, 69, 0
1, 293660, Note_on_c, 1, 71, 127
1, 293660, Note_on_c, 1, 39, 127
1, 293828, Note_off_c, 1, 71, 0
1, 293830, Note_on_c, 1, 66, 127
1, 293998, Note_off_c, 1, 39, 0
1, 293998, Note_off_c, 1, 66, 0
1, 294000, Note_on_c, 1, 51, 127
1, 294000, Note_on_c, 1, 68, 127
1, 294168, Note_off_c, 1, 51, 0
1, 294168, Note_off_c, 1, 68, 0
1, 294170, Note_on_c, 1, 47, 127
1, 294170, Note_on_c, 1, 69, 127
1, 294338, Note_off_c, 1, 47, 0
1, 294338, Note_off_c, 1, 69, 0
1, 294340, Note_on_c, 1, 68, 127
1, 294340, Note_on_c, 1, 52, 127
1, 294508, Note_off_c, 1, 68, 0
1, 294510, Note_on_c, 1, 69, 127
1, 294678, Note_off_c, 1, 52, 0
1, 294678, Note_off_c, 1, 69, 0
1, 294680, Note_on_c, 1, 71, 127
1, 294680, Note_on_c, 1, 40, 127
1, 294848, Note_off_c, 1, 71, 0
1, 294850, Note_on_c, 1, 68, 127
1, 295018, Note_off_c, 1, 68, 0
1, 295020, Note_on_c, 1, 73, 127
1, 295175, Note_off_c, 1, 40, 0
1, 295187, Note_off_c, 1, 73, 0
1, 295189, Note_on_c, 1, 68, 127
1, 295357, Note_off_c, 1, 68, 0
1, 295359, Note_on_c, 1, 52, 127
1, 295359, Note_on_c, 1, 70, 127
1, 295527, Note_off_c, 1, 52, 0
1, 295527, Note_off_c, 1, 70, 0
1, 295529, Note_on_c, 1, 49, 127
1, 295529, Note_on_c, 1, 71, 127
1, 295697, Note_off_c, 1, 49, 0
1, 295697, Note_off_c, 1, 71, 0
1, 295699, Note_on_c, 1, 70, 127
1, 295699, Note_on_c, 1, 54, 127
1, 295867, Note_off_c, 1, 70, 0
1, 295869, Note_on_c, 1, 71, 127
1, 296037, Note_off_c, 1, 54, 0
1, 296037, Note_off_c, 1, 71, 0
1, 296039, Note_on_c, 1, 73, 127
1, 296039, Note_on_c, 1, 42, 127
1, 296207, Note_off_c, 1, 73, 0
1, 296209, Note_on_c, 1, 70, 127
1, 296377, Note_off_c, 1, 70, 0
1, 296379, Note_on_c, 1, 75, 127
1, 296534, Note_off_c, 1, 42, 0
1, 296546, Note_off_c, 1, 75, 0
1, 296548, Note_on_c, 1, 70, 127
1, 296716, Note_off_c, 1, 70, 0
1, 296718, Note_on_c, 1, 54, 127
1, 296718, Note_on_c, 1, 71, 127
1, 296886, Note_off_c, 1, 54, 0
1, 296886, Note_off_c, 1, 71, 0
1, 296888, Note_on_c, 1, 51, 127
1, 296888, Note_on_c, 1, 73, 127
1, 297056, Note_off_c, 1, 51, 0
1, 297056, Note_off_c, 1, 73, 0
1, 297058, Note_on_c, 1, 71, 127
1, 297058, Note_on_c, 1, 56, 127
1, 297226, Note_off_c, 1, 71, 0
1, 297228, Note_on_c, 1, 73, 127
1, 297396, Note_off_c, 1, 56, 0
1, 297396, Note_off_c, 1, 73, 0
1, 297398, Note_on_c, 1, 75, 127
1, 297398, Note_on_c, 1, 44, 127
1, 297566, Note_off_c, 1, 75, 0
1, 297568, Note_on_c, 1, 71, 127
1, 297736, Note_off_c, 1, 71, 0
1, 297738, Note_on_c, 1, 76, 127
1, 297893, Note_off_c, 1, 44, 0
1, 297905, Note_off_c, 1, 76, 0
1, 297907, Note_on_c, 1, 71, 127
1, 298075, Note_off_c, 1, 71, 0
1, 298077, Note_on_c, 1, 56, 127
1, 298077, Note_on_c, 1, 73, 127
1, 298245, Note_off_c, 1, 56, 0
1, 298245, Note_off_c, 1, 73, 0
1, 298247, Note_on_c, 1, 52, 127
1, 298247, Note_on_c, 1, 75, 127
1, 298415, Note_off_c, 1, 52, 0
1, 298415, Note_off_c, 1, 75, 0
1, 298417, Note_on_c, 1, 73, 127
1, 298417, Note_on_c, 1, 57, 127
1, 298585, Note_off_c, 1, 73, 0
1, 298587, Note_on_c, 1, 75, 127
1, 298755, Note_off_c, 1, 57, 0
1, 298755, Note_off_c, 1, 75, 0
1, 298757, Note_on_c, 1, 76, 127
1, 298757, Note_on_c, 1, 45, 127
1, 298925, Note_off_c, 1, 76, 0
1, 298927, Note_on_c, 1, 73, 127
1, 299095, Note_off_c, 1, 73, 0
1, 299097, Note_on_c, 1, 81, 127
1, 299265, Note_off_c, 1, 81, 0
1, 299267, Note_on_c, 1, 83, 127
1, 299435, Note_off_c, 1, 45, 0
1, 299435, Note_off_c, 1, 83, 0
1, 299437, Note_on_c, 1, 81, 127
1, 299437, Note_on_c, 1, 54, 127
1, 299605, Note_off_c, 1, 81, 0
1, 299607, Note_on_c, 1, 80, 127
1, 299775, Note_off_c, 1, 54, 0
1, 299775, Note_off_c, 1, 80, 0
1, 299777, Note_on_c, 1, 78, 127
1, 299777, Note_on_c, 1, 56, 127
1, 299945, Note_off_c, 1, 78, 0
1, 299947, Note_on_c, 1, 76, 127
1, 300115, Note_off_c, 1, 56, 0
1, 300115, Note_off_c, 1, 76, 0
1, 300117, Note_on_c, 1, 75, 127
1, 300117, Note_on_c, 1, 57, 127
1, 300285, Note_off_c, 1, 75, 0
1, 300287, Note_on_c, 1, 76, 127
1, 300455, Note_off_c, 1, 57, 0
1, 300455, Note_off_c, 1, 76, 0
1, 300457, Note_on_c, 1, 56, 127
1, 300457, Note_on_c, 1, 71, 127
1, 300794, Note_off_c, 1, 56, 0
1, 300796, Note_on_c, 1, 54, 127
1, 300796, Note_on_c, 1, 76, 127
1, 300881, Note_off_c, 1, 71, 0
1, 300964, Note_off_c, 1, 54, 0
1, 300964, Note_off_c, 1, 76, 0
1, 300966, Note_on_c, 1, 52, 127
1, 300966, Note_on_c, 1, 68, 127
1, 301134, Note_off_c, 1, 52, 0
1, 301134, Note_off_c, 1, 68, 0
1, 301136, Note_on_c, 1, 68, 127
1, 301136, Note_on_c, 1, 59, 127
1, 301304, Note_off_c, 1, 68, 0
1, 301391, Note_on_c, 1, 66, 127
1, 301474, Note_off_c, 1, 59, 0
1, 301474, Note_off_c, 1, 66, 0
1, 301476, Note_on_c, 1, 68, 127
1, 301476, Note_on_c, 1, 47, 127
1, 301559, Note_off_c, 1, 68, 0
1, 301561, Note_on_c, 1, 66, 127
1, 301644, Note_off_c, 1, 66, 0
1, 301646, Note_on_c, 1, 64, 127
1, 301812, Note_off_c, 1, 47, 0
1, 301814, Note_off_c, 1, 64, 0
1, 301816, Note_on_c, 1, 64, 127
1, 301985, Note_on_c, 1, 52, 127
1, 302153, Note_off_c, 1, 64, 0
1, 302153, Note_off_c, 1, 52, 0
1, 302155, Note_on_c, 1, 56, 127
1, 302155, Note_on_c, 1, 68, 127
1, 302155, Note_on_c, 1, 76, 127
1, 302155, Note_on_c, 1, 71, 127
1, 302323, Note_off_c, 1, 56, 0
1, 302325, Note_on_c, 1, 52, 127
1, 302493, Note_off_c, 1, 68, 0
1, 302493, Note_off_c, 1, 52, 0
1, 302495, Note_on_c, 1, 59, 127
1, 302495, Note_on_c, 1, 66, 127
1, 302663, Note_off_c, 1, 59, 0
1, 302665, Note_on_c, 1, 47, 127
1, 302833, Note_off_c, 1, 76, 0
1, 302833, Note_off_c, 1, 47, 0
1, 302835, Note_on_c, 1, 51, 127
1, 302835, Note_on_c, 1, 75, 127
1, 303003, Note_off_c, 1, 51, 0
1, 303173, Note_off_c, 1, 66, 0
1, 303851, Note_off_c, 1, 75, 0
1, 303853, Note_off_c, 1, 71, 0
1, 303853, Note_on_c, 1, 73, 127
1, 303853, Note_on_c, 1, 64, 127
1, 304529, Note_off_c, 1, 73, 0
1, 304531, Note_on_c, 1, 54, 127
1, 304531, Note_on_c, 1, 78, 127
1, 304531, Note_on_c, 1, 69, 127
1, 304868, Note_off_c, 1, 64, 0
1, 304868, Note_off_c, 1, 54, 0
1, 304870, Note_on_c, 1, 57, 127
1, 304870, Note_on_c, 1, 63, 127
1, 305038, Note_off_c, 1, 57, 0
1, 305208, Note_off_c, 1, 78, 0
1, 305208, Note_off_c, 1, 63, 0
1, 305547, Note_off_c, 1, 69, 0
1, 305888, Note_on_c, 1, 56, 127
1, 305888, Note_on_c, 1, 64, 127
1, 305888, Note_on_c, 1, 71, 127
1, 305888, Note_on_c, 1, 80, 127
1, 306225, Note_off_c, 1, 56, 0
1, 306227, Note_on_c, 1, 59, 127
1, 306395, Note_off_c, 1, 59, 0
1, 306397, Note_on_c, 1, 57, 127
1, 306565, Note_off_c, 1, 57, 0
1, 306736, Note_off_c, 1, 64, 0
1, 306736, Note_off_c, 1, 71, 0
1, 306904, Note_off_c, 1, 80, 0
1, 306906, Note_on_c, 1, 61, 127
1, 306906, Note_on_c, 1, 64, 127
1, 306906, Note_on_c, 1, 76, 127
1, 306906, Note_on_c, 1, 73, 127
1, 307074, Note_off_c, 1, 61, 0
1, 307076, Note_on_c, 1, 59, 127
1, 307244, Note_off_c, 1, 64, 0
1, 307244, Note_off_c, 1, 76, 0
1, 307244, Note_off_c, 1, 73, 0
1, 307244, Note_off_c, 1, 59, 0
1, 307246, Note_on_c, 1, 58, 127
1, 307246, Note_on_c, 1, 73, 127
1, 307246, Note_on_c, 1, 64, 127
1, 307246, Note_on_c, 1, 76, 127
1, 307414, Note_off_c, 1, 58, 0
1, 307416, Note_on_c, 1, 56, 127
1, 307584, Note_off_c, 1, 56, 0
1, 307756, Note_on_c, 1, 54, 127
1, 307924, Note_off_c, 1, 73, 0
1, 307924, Note_off_c, 1, 64, 0
1, 307924, Note_off_c, 1, 76, 0
1, 307924, Note_off_c, 1, 54, 0
1, 307926, Note_on_c, 1, 59, 127
1, 307926, Note_on_c, 1, 66, 127
1, 307926, Note_on_c, 1, 75, 127
1, 307926, Note_on_c, 1, 71, 127
1, 308263, Note_off_c, 1, 59, 0
1, 308263, Note_off_c, 1, 66, 0
1, 308265, Note_on_c, 1, 56, 127
1, 308265, Note_on_c, 1, 64, 127
1, 308602, Note_off_c, 1, 75, 0
1, 308602, Note_off_c, 1, 71, 0
1, 308602, Note_off_c, 1, 56, 0
1, 308604, Note_on_c, 1, 46, 127
1, 308604, Note_on_c, 1, 73, 127
1, 308941, Note_off_c, 1, 64, 0
1, 308941, Note_off_c, 1, 46, 0
1, 308941, Note_off_c, 1, 73, 0
1, 308943, Note_on_c, 1, 47, 127
1, 308943, Note_on_c, 1, 63, 127
1, 309280, Note_off_c, 1, 47, 0
1, 309280, Note_off_c, 1, 63, 0
1, 309282, Note_on_c, 1, 68, 127
1, 309282, Note_on_c, 1, 64, 127
1, 309282, Note_on_c, 1, 47, 127
1, 309282, Note_on_c, 1, 73, 127
1, 309619, Note_off_c, 1, 68, 0
1, 309619, Note_off_c, 1, 64, 0
1, 309621, Note_on_c, 1, 66, 127
1, 309789, Note_off_c, 1, 47, 0
1, 309791, Note_on_c, 1, 46, 127
1, 309953, Note_off_c, 1, 73, 0
1, 309958, Note_off_c, 1, 66, 0
1, 309958, Note_off_c, 1, 46, 0
1, 309960, Note_on_c, 1, 47, 127
1, 309960, Note_on_c, 1, 63, 127
1, 309960, Note_on_c, 1, 66, 127
1, 309960, Note_on_c, 1, 59, 127
1, 310128, Note_off_c, 1, 47, 0
1, 310130, Note_on_c, 1, 49, 127
1, 310298, Note_off_c, 1, 49, 0
1, 310470, Note_on_c, 1, 45, 127
1, 310632, Note_off_c, 1, 63, 0
1, 310632, Note_off_c, 1, 66, 0
1, 310637, Note_off_c, 1, 45, 0
1, 310639, Note_on_c, 1, 44, 127
1, 310807, Note_off_c, 1, 44, 0
1, 310809, Note_off_c, 1, 59, 0
1, 310809, Note_on_c, 1, 52, 127
1, 310978, Note_on_c, 1, 42, 127
1, 311109, Note_off_c, 1, 52, 0
1, 311146, Note_off_c, 1, 42, 0
1, 311148, Note_on_c, 1, 51, 127
1, 311293, Note_off_c, 1, 51, 0
1, 311318, Note_on_c, 1, 40, 127
1, 311487, Note_on_c, 1, 64, 127
1, 311655, Note_off_c, 1, 40, 0
1, 311655, Note_off_c, 1, 64, 0
1, 311657, Note_on_c, 1, 68, 127
1, 311657, Note_on_c, 1, 56, 127
1, 311657, Note_on_c, 1, 59, 127
1, 311657, Note_on_c, 1, 52, 127
1, 311825, Note_off_c, 1, 68, 0
1, 311827, Note_on_c, 1, 64, 127
1, 311995, Note_off_c, 1, 56, 0
1, 311995, Note_off_c, 1, 64, 0
1, 311997, Note_on_c, 1, 71, 127
1, 311997, Note_on_c, 1, 54, 127
1, 312152, Note_off_c, 1, 59, 0
1, 312164, Note_off_c, 1, 71, 0
1, 312334, Note_off_c, 1, 52, 0
1, 312336, Note_on_c, 1, 63, 127
1, 312336, Note_on_c, 1, 51, 127
1, 312504, Note_off_c, 1, 63, 0
1, 312674, Note_off_c, 1, 54, 0
1, 313352, Note_off_c, 1, 51, 0
1, 313354, Note_on_c, 1, 64, 127
1, 313354, Note_on_c, 1, 49, 127
1, 313354, Note_on_c, 1, 52, 127
1, 313691, Note_off_c, 1, 64, 0
1, 314030, Note_off_c, 1, 49, 0
1, 314032, Note_on_c, 1, 61, 127
1, 314032, Note_on_c, 1, 66, 127
1, 314032, Note_on_c, 1, 45, 127
1, 314369, Note_off_c, 1, 61, 0
1, 314369, Note_off_c, 1, 66, 0
1, 314371, Note_on_c, 1, 69, 127
1, 314371, Note_on_c, 1, 54, 127
1, 314539, Note_off_c, 1, 69, 0
1, 314541, Note_on_c, 1, 68, 127
1, 314709, Note_off_c, 1, 45, 0
1, 314709, Note_off_c, 1, 54, 0
1, 314709, Note_off_c, 1, 68, 0
1, 314711, Note_on_c, 1, 47, 127
1, 314711, Note_on_c, 1, 59, 127
1, 315050, Note_off_c, 1, 52, 0
1, 315050, Note_on_c, 1, 71, 127
1, 315050, Note_on_c, 1, 51, 127
1, 315218, Note_off_c, 1, 71, 0
1, 315388, Note_off_c, 1, 47, 0
1, 315388, Note_off_c, 1, 51, 0
1, 315390, Note_on_c, 1, 40, 127
1, 316067, Note_off_c, 1, 59, 0
1, 316238, Note_off_c, 1, 40, 0
1, 316408, Note_on_c, 1, 73, 127
1, 316408, Note_on_c, 1, 52, 127
1, 316408, Note_on_c, 1, 66, 127
1, 316408, Note_on_c, 1, 61, 127
1, 316576, Note_off_c, 1, 73, 0
1, 316578, Note_on_c, 1, 71, 127
1, 316746, Note_off_c, 1, 52, 0
1, 316746, Note_off_c, 1, 66, 0
1, 316746, Note_off_c, 1, 61, 0
1, 316746, Note_off_c, 1, 71, 0
1, 316748, Note_on_c, 1, 70, 127
1, 316748, Note_on_c, 1, 66, 127
1, 316748, Note_on_c, 1, 52, 127
1, 316748, Note_on_c, 1, 61, 127
1, 316916, Note_off_c, 1, 70, 0
1, 316918, Note_on_c, 1, 68, 127
1, 317086, Note_off_c, 1, 68, 0
1, 317243, Note_off_c, 1, 66, 0
1, 317425, Note_off_c, 1, 52, 0
1, 317425, Note_off_c, 1, 61, 0
1, 317427, Note_on_c, 1, 51, 127
1, 317427, Note_on_c, 1, 71, 127
1, 317427, Note_on_c, 1, 59, 127
1, 317764, Note_off_c, 1, 51, 0
1, 317764, Note_off_c, 1, 71, 0
1, 317766, Note_on_c, 1, 64, 127
1, 317766, Note_on_c, 1, 80, 127
1, 317766, Note_on_c, 1, 52, 127
1, 318098, Note_off_c, 1, 59, 0
1, 318103, Note_off_c, 1, 64, 0
1, 318103, Note_off_c, 1, 80, 0
1, 318105, Note_on_c, 1, 61, 127
1, 318105, Note_on_c, 1, 70, 127
1, 318105, Note_on_c, 1, 66, 127
1, 318442, Note_off_c, 1, 52, 0
1, 318442, Note_off_c, 1, 61, 0
1, 318442, Note_off_c, 1, 70, 0
1, 318776, Note_off_c, 1, 66, 0
1, 318783, Note_on_c, 1, 76, 127
1, 318783, Note_on_c, 1, 73, 127
1, 318783, Note_on_c, 1, 49, 127
1, 319122, Note_on_c, 1, 58, 127
1, 319290, Note_off_c, 1, 76, 0
1, 319290, Note_off_c, 1, 73, 0
1, 319292, Note_on_c, 1, 75, 127
1, 319460, Note_off_c, 1, 49, 0
1, 319460, Note_off_c, 1, 58, 0
1, 319460, Note_off_c, 1, 75, 0
1, 319462, Note_on_c, 1, 47, 127
1, 319462, Note_on_c, 1, 59, 127
1, 319462, Note_on_c, 1, 66, 127
1, 319462, Note_on_c, 1, 75, 127
1, 319630, Note_off_c, 1, 47, 0
1, 319632, Note_on_c, 1, 54, 127
1, 319800, Note_off_c, 1, 54, 0
1, 319802, Note_on_c, 1, 56, 127
1, 319970, Note_off_c, 1, 56, 0
1, 319972, Note_on_c, 1, 57, 127
1, 320064, Note_off_c, 1, 59, 0
1, 320135, Note_off_c, 1, 66, 0
1, 320140, Note_off_c, 1, 57, 0
1, 320310, Note_off_c, 1, 75, 0
1, 320482, Note_on_c, 1, 73, 127
1, 320650, Note_off_c, 1, 73, 0
1, 320652, Note_on_c, 1, 71, 127
1, 320819, Note_off_c, 1, 71, 0
1, 320821, Note_on_c, 1, 44, 127
1, 320821, Note_on_c, 1, 64, 127
1, 320821, Note_on_c, 1, 68, 127
1, 320821, Note_on_c, 1, 76, 127
1, 320821, Note_on_c, 1, 71, 127
1, 320989, Note_off_c, 1, 44, 0
1, 320991, Note_on_c, 1, 59, 127
1, 321159, Note_off_c, 1, 59, 0
1, 321161, Note_on_c, 1, 61, 127
1, 321316, Note_off_c, 1, 64, 0
1, 321328, Note_off_c, 1, 61, 0
1, 321330, Note_on_c, 1, 63, 127
1, 321498, Note_off_c, 1, 63, 0
1, 321837, Note_off_c, 1, 68, 0
1, 321837, Note_off_c, 1, 76, 0
1, 321837, Note_off_c, 1, 71, 0
1, 321855, Note_on_c, 1, 64, 127
1, 321855, Note_on_c, 1, 71, 127
1, 321855, Note_on_c, 1, 74, 127
1, 321855, Note_on_c, 1, 47, 127
1, 321855, Note_on_c, 1, 52, 127
1, 321855, Note_on_c, 1, 44, 127
1, 322213, Note_off_c, 1, 64, 0
1, 322213, Note_off_c, 1, 71, 0
1, 322213, Note_off_c, 1, 74, 0
1, 322213, Note_off_c, 1, 47, 0
1, 322213, Note_off_c, 1, 52, 0
1, 322213, Note_off_c, 1, 44, 0
1, 322231, Note_on_c, 1, 64, 127
1, 322231, Note_on_c, 1, 72, 127
1, 322231, Note_on_c, 1, 48, 127
1, 322231, Note_on_c, 1, 45, 127
1, 322231, Note_on_c, 1, 57, 127
1, 322231, Note_on_c, 1, 52, 127
1, 322949, Note_off_c, 1, 64, 0
1, 322949, Note_off_c, 1, 72, 0
1, 322951, Note_on_c, 1, 69, 127
1, 323309, Note_off_c, 1, 69, 0
1, 323311, Note_on_c, 1, 67, 127
1, 323489, Note_off_c, 1, 67, 0
1, 323491, Note_on_c, 1, 66, 127
1, 323669, Note_off_c, 1, 48, 0
1, 323669, Note_off_c, 1, 45, 0
1, 323669, Note_off_c, 1, 57, 0
1, 323669, Note_off_c, 1, 52, 0
1, 323669, Note_off_c, 1, 66, 0
1, 323671, Note_on_c, 1, 45, 127
1, 323671, Note_on_c, 1, 47, 127
1, 323671, Note_on_c, 1, 54, 127
1, 323671, Note_on_c, 1, 51, 127
1, 323671, Note_on_c, 1, 66, 127
1, 323671, Note_on_c, 1, 63, 127
1, 323671, Note_on_c, 1, 59, 127
1, 323671, Note_on_c, 1, 71, 127
1, 324749, Note_off_c, 1, 45, 0
1, 324749, Note_off_c, 1, 47, 0
1, 324749, Note_off_c, 1, 54, 0
1, 324749, Note_off_c, 1, 51, 0
1, 324749, Note_off_c, 1, 66, 0
1, 324749, Note_off_c, 1, 63, 0
1, 324749, Note_off_c, 1, 59, 0
1, 324749, Note_off_c, 1, 71, 0
1, 325151, Note_on_c, 1, 78, 127
1, 325310, Note_on_c, 1, 83, 127
1, 325338, Note_off_c, 1, 78, 0
1, 325437, Note_off_c, 1, 83, 0
1, 325438, Note_on_c, 1, 78, 127
1, 325565, Note_off_c, 1, 78, 0
1, 325566, Note_on_c, 1, 75, 127
1, 325693, Note_off_c, 1, 75, 0
1, 325694, Note_on_c, 1, 78, 127
1, 325821, Note_off_c, 1, 78, 0
1, 325822, Note_on_c, 1, 75, 127
1, 325949, Note_off_c, 1, 75, 0
1, 325950, Note_on_c, 1, 71, 127
1, 326077, Note_off_c, 1, 71, 0
1, 326078, Note_on_c, 1, 75, 127
1, 326205, Note_off_c, 1, 75, 0
1, 326206, Note_on_c, 1, 71, 127
1, 326333, Note_off_c, 1, 71, 0
1, 326334, Note_on_c, 1, 66, 127
1, 326461, Note_off_c, 1, 66, 0
1, 326462, Note_on_c, 1, 71, 127
1, 326589, Note_off_c, 1, 71, 0
1, 326590, Note_on_c, 1, 66, 127
1, 326717, Note_off_c, 1, 66, 0
1, 326718, Note_on_c, 1, 63, 127
1, 326845, Note_off_c, 1, 63, 0
1, 326846, Note_on_c, 1, 66, 127
1, 326973, Note_off_c, 1, 66, 0
1, 326974, Note_on_c, 1, 63, 127
1, 327101, Note_off_c, 1, 63, 0
1, 327102, Note_on_c, 1, 59, 127
1, 327229, Note_off_c, 1, 59, 0
1, 327230, Note_on_c, 1, 63, 127
1, 327357, Note_off_c, 1, 63, 0
1, 327358, Note_on_c, 1, 59, 127
1, 327485, Note_off_c, 1, 59, 0
1, 327486, Note_on_c, 1, 54, 127
1, 327613, Note_off_c, 1, 54, 0
1, 327614, Note_on_c, 1, 59, 127
1, 327741, Note_off_c, 1, 59, 0
1, 327742, Note_on_c, 1, 54, 127
1, 327869, Note_off_c, 1, 54, 0
1, 327870, Note_on_c, 1, 51, 127
1, 327997, Note_off_c, 1, 51, 0
1, 327998, Note_on_c, 1, 54, 127
1, 328125, Note_off_c, 1, 54, 0
1, 328142, Note_on_c, 1, 44, 127
1, 328142, Note_on_c, 1, 56, 127
1, 328142, Note_on_c, 1, 52, 127
1, 328142, Note_on_c, 1, 47, 127
1, 328142, Note_on_c, 1, 68, 127
1, 328142, Note_on_c, 1, 76, 127
1, 328142, Note_on_c, 1, 71, 127
1, 328142, Note_on_c, 1, 64, 127
1, 329050, Note_off_c, 1, 44, 0
1, 329050, Note_off_c, 1, 56, 0
1, 329050, Note_off_c, 1, 52, 0
1, 329050, Note_off_c, 1, 47, 0
1, 329050, Note_off_c, 1, 68, 0
1, 329050, Note_off_c, 1, 76, 0
1, 329050, Note_off_c, 1, 71, 0
1, 329050, Note_off_c, 1, 64, 0
1, 329506, Note_on_c, 1, 64, 127
1, 329656, Note_off_c, 1, 64, 0
1, 329658, Note_on_c, 1, 66, 127
1, 329808, Note_off_c, 1, 66, 0
1, 329810, Note_on_c, 1, 68, 127
1, 329960, Note_off_c, 1, 68, 0
1, 329962, Note_on_c, 1, 69, 127
1, 330112, Note_off_c, 1, 69, 0
1, 330114, Note_on_c, 1, 71, 127
1, 330264, Note_off_c, 1, 71, 0
1, 330266, Note_on_c, 1, 73, 127
1, 330416, Note_off_c, 1, 73, 0
1, 330418, Note_on_c, 1, 75, 127
1, 330568, Note_off_c, 1, 75, 0
1, 330570, Note_on_c, 1, 76, 127
1, 330570, Note_on_c, 1, 44, 127
1, 330720, Note_off_c, 1, 76, 0
1, 330722, Note_on_c, 1, 80, 127
1, 330872, Note_off_c, 1, 80, 0
1, 331026, Note_on_c, 1, 71, 127
1, 331171, Note_off_c, 1, 44, 0
1, 331176, Note_off_c, 1, 71, 0
1, 331178, Note_on_c, 1, 68, 127
1, 331328, Note_off_c, 1, 68, 0
1, 331330, Note_on_c, 1, 71, 127
1, 331480, Note_off_c, 1, 71, 0
1, 331482, Note_on_c, 1, 68, 127
1, 331632, Note_off_c, 1, 68, 0
1, 331634, Note_on_c, 1, 64, 127
1, 331784, Note_off_c, 1, 64, 0
1, 331786, Note_on_c, 1, 76, 127
1, 331786, Note_on_c, 1, 45, 127
1, 331938, Note_on_c, 1, 80, 127
1, 332086, Note_off_c, 1, 76, 0
1, 332088, Note_off_c, 1, 80, 0
1, 332242, Note_on_c, 1, 71, 127
1, 332387, Note_off_c, 1, 45, 0
1, 332392, Note_off_c, 1, 71, 0
1, 332394, Note_on_c, 1, 68, 127
1, 332544, Note_off_c, 1, 68, 0
1, 332546, Note_on_c, 1, 71, 127
1, 332696, Note_off_c, 1, 71, 0
1, 332698, Note_on_c, 1, 68, 127
1, 332848, Note_off_c, 1, 68, 0
1, 332850, Note_on_c, 1, 64, 127
1, 333000, Note_off_c, 1, 64, 0
1, 333002, Note_on_c, 1, 76, 127
1, 333002, Note_on_c, 1, 47, 127
1, 333154, Note_on_c, 1, 80, 127
1, 333302, Note_off_c, 1, 76, 0
1, 333304, Note_off_c, 1, 80, 0
1, 333458, Note_on_c, 1, 71, 127
1, 333603, Note_off_c, 1, 47, 0
1, 333608, Note_off_c, 1, 71, 0
1, 333610, Note_on_c, 1, 68, 127
1, 333760, Note_off_c, 1, 68, 0
1, 333762, Note_on_c, 1, 71, 127
1, 333912, Note_off_c, 1, 71, 0
1, 333914, Note_on_c, 1, 68, 127
1, 334064, Note_off_c, 1, 68, 0
1, 334066, Note_on_c, 1, 64, 127
1, 334216, Note_off_c, 1, 64, 0
1, 334218, Note_on_c, 1, 76, 127
1, 334218, Note_on_c, 1, 49, 127
1, 334370, Note_on_c, 1, 80, 127
1, 334518, Note_off_c, 1, 76, 0
1, 334520, Note_off_c, 1, 80, 0
1, 334674, Note_on_c, 1, 71, 127
1, 334819, Note_off_c, 1, 49, 0
1, 334824, Note_off_c, 1, 71, 0
1, 334826, Note_on_c, 1, 68, 127
1, 334978, Note_on_c, 1, 71, 127
1, 335054, Note_off_c, 1, 68, 0
1, 335128, Note_off_c, 1, 71, 0
1, 335130, Note_on_c, 1, 68, 127
1, 335280, Note_off_c, 1, 68, 0
1, 335282, Note_on_c, 1, 64, 127
1, 335432, Note_off_c, 1, 64, 0
1, 335434, Note_on_c, 1, 76, 127
1, 335434, Note_on_c, 1, 42, 127
1, 335586, Note_on_c, 1, 82, 127
1, 335734, Note_off_c, 1, 76, 0
1, 335736, Note_off_c, 1, 82, 0
1, 335890, Note_on_c, 1, 73, 127
1, 336035, Note_off_c, 1, 42, 0
1, 336040, Note_off_c, 1, 73, 0
1, 336042, Note_on_c, 1, 70, 127
1, 336194, Note_on_c, 1, 73, 127
1, 336342, Note_off_c, 1, 70, 0
1, 336493, Note_off_c, 1, 73, 0
1, 336497, Note_on_c, 1, 66, 127
1, 336647, Note_off_c, 1, 66, 0
1, 336649, Note_on_c, 1, 75, 127
1, 336649, Note_on_c, 1, 47, 127
1, 336801, Note_on_c, 1, 81, 127
1, 336949, Note_off_c, 1, 75, 0
1, 337100, Note_off_c, 1, 81, 0
1, 337104, Note_on_c, 1, 71, 127
1, 337249, Note_off_c, 1, 47, 0
1, 337255, Note_on_c, 1, 66, 127
1, 337403, Note_off_c, 1, 71, 0
1, 337554, Note_off_c, 1, 66, 0
1, 337558, Note_on_c, 1, 66, 127
1, 337708, Note_off_c, 1, 66, 0
1, 337710, Note_on_c, 1, 63, 127
1, 337860, Note_off_c, 1, 63, 0
1, 337862, Note_on_c, 1, 74, 127
1, 337862, Note_on_c, 1, 52, 127
1, 338014, Note_on_c, 1, 80, 127
1, 338162, Note_off_c, 1, 74, 0
1, 338164, Note_off_c, 1, 80, 0
1, 338318, Note_on_c, 1, 71, 127
1, 338463, Note_off_c, 1, 52, 0
1, 338468, Note_off_c, 1, 71, 0
1, 338470, Note_on_c, 1, 68, 127
1, 338622, Note_on_c, 1, 71, 127
1, 338770, Note_off_c, 1, 68, 0
1, 338772, Note_off_c, 1, 71, 0
1, 338774, Note_on_c, 1, 68, 127
1, 338924, Note_off_c, 1, 68, 0
1, 338926, Note_on_c, 1, 64, 127
1, 339076, Note_off_c, 1, 64, 0
1, 339078, Note_on_c, 1, 73, 127
1, 339078, Note_on_c, 1, 45, 127
1, 339230, Note_on_c, 1, 79, 127
1, 339378, Note_off_c, 1, 73, 0
1, 339380, Note_off_c, 1, 79, 0
1, 339534, Note_on_c, 1, 69, 127
1, 339679, Note_off_c, 1, 45, 0
1, 339684, Note_off_c, 1, 69, 0
1, 339686, Note_on_c, 1, 64, 127
1, 339838, Note_on_c, 1, 69, 127
1, 339986, Note_off_c, 1, 64, 0
1, 339988, Note_off_c, 1, 69, 0
1, 339990, Note_on_c, 1, 64, 127
1, 340140, Note_off_c, 1, 64, 0
1, 340142, Note_on_c, 1, 61, 127
1, 340292, Note_off_c, 1, 61, 0
1, 340294, Note_on_c, 1, 72, 127
1, 340294, Note_on_c, 1, 39, 127
1, 340444, Note_off_c, 1, 72, 0
1, 340446, Note_on_c, 1, 78, 127
1, 340596, Note_off_c, 1, 78, 0
1, 340750, Note_on_c, 1, 69, 127
1, 340895, Note_off_c, 1, 39, 0
1, 340900, Note_off_c, 1, 69, 0
1, 340902, Note_on_c, 1, 66, 127
1, 341052, Note_off_c, 1, 66, 0
1, 341054, Note_on_c, 1, 69, 127
1, 341204, Note_off_c, 1, 69, 0
1, 341206, Note_on_c, 1, 66, 127
1, 341356, Note_off_c, 1, 66, 0
1, 341358, Note_on_c, 1, 63, 127
1, 341508, Note_off_c, 1, 63, 0
1, 341510, Note_on_c, 1, 71, 127
1, 341510, Note_on_c, 1, 43, 127
1, 341662, Note_on_c, 1, 76, 127
1, 341810, Note_off_c, 1, 71, 0
1, 341812, Note_off_c, 1, 76, 0
1, 341966, Note_on_c, 1, 67, 127
1, 342111, Note_off_c, 1, 43, 0
1, 342116, Note_off_c, 1, 67, 0
1, 342118, Note_on_c, 1, 64, 127
1, 342270, Note_on_c, 1, 67, 127
1, 342418, Note_off_c, 1, 64, 0
1, 342420, Note_off_c, 1, 67, 0
1, 342422, Note_on_c, 1, 64, 127
1, 342572, Note_off_c, 1, 64, 0
1, 342574, Note_on_c, 1, 59, 127
1, 342724, Note_off_c, 1, 59, 0
1, 342726, Note_on_c, 1, 73, 127
1, 342726, Note_on_c, 1, 46, 127
1, 342878, Note_on_c, 1, 76, 127
1, 343026, Note_off_c, 1, 73, 0
1, 343028, Note_off_c, 1, 76, 0
1, 343182, Note_on_c, 1, 67, 127
1, 343334, Note_on_c, 1, 64, 127
1, 343482, Note_off_c, 1, 67, 0
1, 343633, Note_off_c, 1, 64, 0
1, 343789, Note_on_c, 1, 55, 127
1, 343939, Note_off_c, 1, 46, 0
1, 343939, Note_off_c, 1, 55, 0
1, 343941, Note_on_c, 1, 67, 127
1, 344093, Note_on_c, 1, 73, 127
1, 344241, Note_off_c, 1, 67, 0
1, 344243, Note_off_c, 1, 73, 0
1, 344245, Note_on_c, 1, 67, 127
1, 344395, Note_off_c, 1, 67, 0
1, 344397, Note_on_c, 1, 64, 127
1, 344549, Note_on_c, 1, 61, 127
1, 344697, Note_off_c, 1, 64, 0
1, 344848, Note_off_c, 1, 61, 0
1, 344852, Note_on_c, 1, 61, 127
1, 345002, Note_off_c, 1, 61, 0
1, 345004, Note_on_c, 1, 52, 127
1, 345154, Note_off_c, 1, 52, 0
1, 345156, Note_on_c, 1, 64, 127
1, 345319, Note_off_c, 1, 64, 0
1, 345321, Note_on_c, 1, 67, 127
1, 345484, Note_off_c, 1, 67, 0
1, 345486, Note_on_c, 1, 64, 127
1, 345649, Note_off_c, 1, 64, 0
1, 345651, Note_on_c, 1, 61, 127
1, 345814, Note_off_c, 1, 61, 0
1, 345816, Note_on_c, 1, 58, 127
1, 345979, Note_off_c, 1, 58, 0
1, 345981, Note_on_c, 1, 61, 127
1, 346144, Note_off_c, 1, 61, 0
1, 346146, Note_on_c, 1, 58, 127
1, 346309, Note_off_c, 1, 58, 0
1, 346311, Note_on_c, 1, 49, 127
1, 346474, Note_off_c, 1, 49, 0
1, 346492, Note_on_c, 1, 46, 127
1, 347149, Note_off_c, 1, 46, 0
1, 347151, Note_on_c, 1, 49, 127
1, 347151, Note_on_c, 1, 61, 127
1, 347151, Note_on_c, 1, 58, 127
1, 347151, Note_on_c, 1, 52, 127
1, 347151, Note_on_c, 1, 67, 127
1, 347151, Note_on_c, 1, 64, 127
1, 347808, Note_off_c, 1, 49, 0
1, 347808, Note_off_c, 1, 61, 0
1, 347808, Note_off_c, 1, 58, 0
1, 347808, Note_off_c, 1, 52, 0
1, 347808, Note_off_c, 1, 67, 0
1, 347810, Note_on_c, 1, 66, 127
1, 347810, Note_on_c, 1, 59, 127
1, 347810, Note_on_c, 1, 54, 127
1, 347810, Note_on_c, 1, 47, 127
1, 348517, Note_off_c, 1, 64, 0
1, 348517, Note_off_c, 1, 66, 0
1, 348519, Note_on_c, 1, 63, 127
1, 348519, Note_on_c, 1, 71, 127
1, 348872, Note_off_c, 1, 59, 0
1, 348872, Note_off_c, 1, 63, 0
1, 348872, Note_off_c, 1, 71, 0
1, 348874, Note_on_c, 1, 57, 127
1, 348874, Note_on_c, 1, 72, 127
1, 349227, Note_off_c, 1, 54, 0
1, 349227, Note_off_c, 1, 47, 0
1, 349227, Note_off_c, 1, 57, 0
1, 349227, Note_off_c, 1, 72, 0
1, 349229, Note_on_c, 1, 74, 127
1, 349229, Note_on_c, 1, 56, 127
1, 349229, Note_on_c, 1, 52, 127
1, 349229, Note_on_c, 1, 40, 127
1, 349582, Note_off_c, 1, 74, 0
1, 349584, Note_on_c, 1, 71, 127
1, 349937, Note_off_c, 1, 71, 0
1, 349939, Note_on_c, 1, 68, 127
1, 350292, Note_off_c, 1, 68, 0
1, 350294, Note_on_c, 1, 64, 127
1, 350647, Note_off_c, 1, 56, 0
1, 350647, Note_off_c, 1, 52, 0
1, 350647, Note_off_c, 1, 64, 0
1, 350649, Note_on_c, 1, 57, 127
1, 350649, Note_on_c, 1, 72, 127
1, 351003, Note_on_c, 1, 69, 127
1, 351358, Note_on_c, 1, 66, 127
1, 351358, Note_on_c, 1, 54, 127
1, 351358, Note_on_c, 1, 51, 127
1, 351712, Note_on_c, 1, 63, 127
1, 352059, Note_off_c, 1, 66, 0
1, 352065, Note_off_c, 1, 57, 0
1, 352065, Note_off_c, 1, 72, 0
1, 352065, Note_off_c, 1, 69, 0
1, 352065, Note_off_c, 1, 54, 0
1, 352065, Note_off_c, 1, 51, 0
1, 352065, Note_off_c, 1, 63, 0
1, 352083, Note_on_c, 1, 76, 127
1, 352083, Note_on_c, 1, 47, 127
1, 355584, Note_off_c, 1, 76, 0
1, 355584, Note_off_c, 1, 47, 0
1, 355586, Note_off_c, 1, 40, 0
1, 355586, End_track
0, 0, End_of_file