0, 0, Header, 1, 1, 480
1, 0, Start_track
1, 0, Title_t, "Test"
1, 0, Tempo, 500000
1, 0, Instrument_name_t, "Church Organ"
1, 0, Note_on_c, 1, 53, 127
1, 0, Note_on_c, 1, 48, 127
1, 0, Note_on_c, 1, 45, 127
1, 0, Note_on_c, 1, 41, 127
1, 192, Note_on_c, 1, 77, 127
1, 320, Note_off_c, 1, 77, 0
1, 380, Note_off_c, 1, 53, 0
1, 380, Note_off_c, 1, 48, 0
1, 380, Note_off_c, 1, 45, 0
1, 380, Note_off_c, 1, 41, 0
1, 384, Note_on_c, 1, 69, 127
1, 384, Note_on_c, 1, 65, 127
1, 512, Note_off_c, 1, 69, 0
1, 512, Note_off_c, 1, 65, 0
1, 576, Note_on_c, 1, 70, 127
1, 576, Note_on_c, 1, 67, 127
1, 704, Note_off_c, 1, 70, 0
1, 704, Note_off_c, 1, 67, 0
1, 768, Note_on_c, 1, 72, 127
1, 768, Note_on_c, 1, 69, 127
1, 960, Note_on_c, 1, 65, 127
1, 1088, Note_off_c, 1, 65, 0
1, 1148, Note_off_c, 1, 72, 0
1, 1148, Note_off_c, 1, 69, 0
1, 1152, Note_on_c, 1, 74, 127
1, 1152, Note_on_c, 1, 70, 127
1, 1152, Note_on_c, 1, 62, 127
1, 1280, Note_off_c, 1, 62, 0
1, 1344, Note_on_c, 1, 58, 127
1, 1408, Note_off_c, 1, 74, 0
1, 1408, Note_off_c, 1, 70, 0
1, 1472, Note_off_c, 1, 58, 0
1, 1536, Note_on_c, 1, 72, 127
1, 1536, Note_on_c, 1, 69, 127
1, 1536, Note_on_c, 1, 65, 127
1, 1664, Note_off_c, 1, 72, 0
1, 1728, Note_on_c, 1, 77, 127
1, 1728, Note_on_c, 1, 53, 127
1, 1792, Note_off_c, 1, 69, 0
1, 1856, Note_off_c, 1, 53, 0
1, 1920, Note_on_c, 1, 70, 127
1, 1920, Note_on_c, 1, 50, 127
1, 1984, Note_off_c, 1, 77, 0
1, 2048, Note_off_c, 1, 65, 0
1, 2048, Note_off_c, 1, 50, 0
1, 2112, Note_on_c, 1, 75, 127
1, 2112, Note_on_c, 1, 46, 127
1, 2176, Note_off_c, 1, 70, 0
1, 2176, Note_off_c, 1, 75, 0
1, 2208, Note_on_c, 1, 74, 127
1, 2240, Note_off_c, 1, 46, 0
1, 2272, Note_off_c, 1, 74, 0
1, 2304, Note_on_c, 1, 74, 127
1, 2304, Note_on_c, 1, 70, 127
1, 2304, Note_on_c, 1, 65, 127
1, 2304, Note_on_c, 1, 53, 127
1, 2492, Note_off_c, 1, 74, 0
1, 2492, Note_off_c, 1, 70, 0
1, 2496, Note_on_c, 1, 72, 127
1, 2496, Note_on_c, 1, 69, 127
1, 2496, Note_on_c, 1, 41, 127
1, 2624, Note_off_c, 1, 72, 0
1, 2624, Note_off_c, 1, 69, 0
1, 2624, Note_off_c, 1, 41, 0
1, 2684, Note_off_c, 1, 65, 0
1, 2684, Note_off_c, 1, 53, 0
1, 3072, Note_on_c, 1, 60, 127
1, 3072, Note_on_c, 1, 55, 127
1, 3072, Note_on_c, 1, 52, 127
1, 3072, Note_on_c, 1, 48, 127
1, 3264, Note_on_c, 1, 84, 127
1, 3392, Note_off_c, 1, 84, 0
1, 3452, Note_off_c, 1, 60, 0
1, 3452, Note_off_c, 1, 55, 0
1, 3452, Note_off_c, 1, 52, 0
1, 3452, Note_off_c, 1, 48, 0
1, 3456, Note_on_c, 1, 76, 127
1, 3456, Note_on_c, 1, 72, 127
1, 3584, Note_off_c, 1, 76, 0
1, 3584, Note_off_c, 1, 72, 0
1, 3648, Note_on_c, 1, 77, 127
1, 3648, Note_on_c, 1, 74, 127
1, 3776, Note_off_c, 1, 77, 0
1, 3776, Note_off_c, 1, 74, 0
1, 3840, Note_on_c, 1, 79, 127
1, 3840, Note_on_c, 1, 76, 127
1, 4032, Note_on_c, 1, 72, 127
1, 4096, Note_off_c, 1, 79, 0
1, 4096, Note_off_c, 1, 76, 0
1, 4160, Note_off_c, 1, 72, 0
1, 4224, Note_on_c, 1, 69, 127
1, 4224, Note_on_c, 1, 81, 127
1, 4224, Note_on_c, 1, 77, 127
1, 4352, Note_off_c, 1, 69, 0
1, 4416, Note_on_c, 1, 65, 127
1, 4480, Note_off_c, 1, 81, 0
1, 4480, Note_off_c, 1, 77, 0
1, 4544, Note_off_c, 1, 65, 0
1, 4608, Note_on_c, 1, 79, 127
1, 4608, Note_on_c, 1, 76, 127
1, 4608, Note_on_c, 1, 72, 127
1, 4796, Note_off_c, 1, 79, 0
1, 4800, Note_on_c, 1, 84, 127
1, 4800, Note_on_c, 1, 60, 127
1, 4988, Note_off_c, 1, 76, 0
1, 4988, Note_off_c, 1, 60, 0
1, 4992, Note_on_c, 1, 77, 127
1, 4992, Note_on_c, 1, 57, 127
1, 5180, Note_off_c, 1, 84, 0
1, 5180, Note_off_c, 1, 57, 0
1, 5184, Note_on_c, 1, 82, 127
1, 5184, Note_on_c, 1, 53, 127
1, 5276, Note_off_c, 1, 82, 0
1, 5280, Note_on_c, 1, 81, 127
1, 5372, Note_off_c, 1, 72, 0
1, 5372, Note_off_c, 1, 77, 0
1, 5372, Note_off_c, 1, 53, 0
1, 5372, Note_off_c, 1, 81, 0
1, 5376, Note_on_c, 1, 81, 127
1, 5376, Note_on_c, 1, 77, 127
1, 5376, Note_on_c, 1, 72, 127
1, 5376, Note_on_c, 1, 60, 127
1, 5564, Note_off_c, 1, 81, 0
1, 5564, Note_off_c, 1, 77, 0
1, 5568, Note_on_c, 1, 79, 127
1, 5568, Note_on_c, 1, 76, 127
1, 5568, Note_on_c, 1, 48, 127
1, 5696, Note_off_c, 1, 79, 0
1, 5696, Note_off_c, 1, 76, 0
1, 5696, Note_off_c, 1, 48, 0
1, 5756, Note_off_c, 1, 72, 0
1, 5756, Note_off_c, 1, 60, 0
1, 5856, Note_on_c, 1, 72, 127
1, 5920, Note_off_c, 1, 72, 0
1, 5952, Note_on_c, 1, 70, 127
1, 6016, Note_off_c, 1, 70, 0
1, 6048, Note_on_c, 1, 69, 127
1, 6112, Note_off_c, 1, 69, 0
1, 6144, Note_on_c, 1, 70, 127
1, 6144, Note_on_c, 1, 60, 127
1, 6144, Note_on_c, 1, 52, 127
1, 6144, Note_on_c, 1, 48, 127
1, 6272, Note_off_c, 1, 70, 0
1, 6336, Note_on_c, 1, 79, 127
1, 6524, Note_off_c, 1, 60, 0
1, 6524, Note_off_c, 1, 52, 0
1, 6524, Note_off_c, 1, 48, 0
1, 6528, Note_on_c, 1, 55, 127
1, 6592, Note_off_c, 1, 79, 0
1, 6720, Note_on_c, 1, 69, 127
1, 6784, Note_off_c, 1, 55, 0
1, 6784, Note_off_c, 1, 69, 0
1, 6816, Note_on_c, 1, 67, 127
1, 6880, Note_off_c, 1, 67, 0
1, 6912, Note_on_c, 1, 53, 127
1, 7104, Note_on_c, 1, 65, 127
1, 7104, Note_on_c, 1, 57, 127
1, 7168, Note_off_c, 1, 53, 0
1, 7168, Note_off_c, 1, 65, 0
1, 7232, Note_off_c, 1, 57, 0
1, 7296, Note_on_c, 1, 69, 127
1, 7296, Note_on_c, 1, 60, 127
1, 7360, Note_off_c, 1, 69, 0
1, 7392, Note_on_c, 1, 70, 127
1, 7424, Note_off_c, 1, 60, 0
1, 7456, Note_off_c, 1, 70, 0
1, 7488, Note_on_c, 1, 72, 127
1, 7488, Note_on_c, 1, 65, 127
1, 7552, Note_off_c, 1, 72, 0
1, 7584, Note_on_c, 1, 74, 127
1, 7616, Note_off_c, 1, 65, 0
1, 7648, Note_off_c, 1, 74, 0
1, 7680, Note_on_c, 1, 75, 127
1, 7680, Note_on_c, 1, 57, 127
1, 7680, Note_on_c, 1, 60, 127
1, 7680, Note_on_c, 1, 65, 127
1, 7808, Note_off_c, 1, 75, 0
1, 7872, Note_on_c, 1, 84, 127
1, 8060, Note_off_c, 1, 57, 0
1, 8060, Note_off_c, 1, 60, 0
1, 8060, Note_off_c, 1, 65, 0
1, 8064, Note_on_c, 1, 53, 127
1, 8128, Note_off_c, 1, 84, 0
1, 8256, Note_on_c, 1, 74, 127
1, 8320, Note_off_c, 1, 74, 0
1, 8352, Note_on_c, 1, 72, 127
1, 8416, Note_off_c, 1, 72, 0
1, 8444, Note_off_c, 1, 53, 0
1, 8448, Note_on_c, 1, 58, 127
1, 8640, Note_on_c, 1, 70, 127
1, 8640, Note_on_c, 1, 62, 127
1, 8704, Note_off_c, 1, 70, 0
1, 8768, Note_off_c, 1, 62, 0
1, 8828, Note_off_c, 1, 58, 0
1, 8832, Note_on_c, 1, 74, 127
1, 8832, Note_on_c, 1, 65, 127
1, 8896, Note_off_c, 1, 74, 0
1, 8928, Note_on_c, 1, 76, 127
1, 8960, Note_off_c, 1, 65, 0
1, 8992, Note_off_c, 1, 76, 0
1, 9024, Note_on_c, 1, 77, 127
1, 9024, Note_on_c, 1, 70, 127
1, 9088, Note_off_c, 1, 77, 0
1, 9120, Note_on_c, 1, 79, 127
1, 9152, Note_off_c, 1, 70, 0
1, 9184, Note_off_c, 1, 79, 0
1, 9216, Note_on_c, 1, 80, 127
1, 9216, Note_on_c, 1, 71, 127
1, 9216, Note_on_c, 1, 65, 127
1, 9216, Note_on_c, 1, 62, 127
1, 9280, Note_off_c, 1, 80, 0
1, 9312, Note_on_c, 1, 79, 127
1, 9356, Note_off_c, 1, 79, 0
1, 9360, Note_on_c, 1, 77, 127
1, 9404, Note_off_c, 1, 77, 0
1, 9596, Note_off_c, 1, 71, 0
1, 9596, Note_off_c, 1, 65, 0
1, 9596, Note_off_c, 1, 62, 0
1, 9600, Note_on_c, 1, 67, 127
1, 9600, Note_on_c, 1, 59, 127
1, 9744, Note_on_c, 1, 76, 127
1, 9788, Note_off_c, 1, 76, 0
1, 9980, Note_off_c, 1, 67, 0
1, 9980, Note_off_c, 1, 59, 0
1, 9984, Note_on_c, 1, 55, 127
1, 10128, Note_on_c, 1, 74, 127
1, 10176, Note_off_c, 1, 74, 0
1, 10364, Note_off_c, 1, 55, 0
1, 10368, Note_on_c, 1, 64, 127
1, 10368, Note_on_c, 1, 48, 127
1, 10624, Note_off_c, 1, 64, 0
1, 10624, Note_off_c, 1, 48, 0
1, 10656, Note_on_c, 1, 72, 127
1, 10748, Note_off_c, 1, 72, 0
1, 10752, Note_on_c, 1, 70, 127
1, 10816, Note_off_c, 1, 70, 0
1, 10848, Note_on_c, 1, 79, 127
1, 10940, Note_off_c, 1, 79, 0
1, 10944, Note_on_c, 1, 76, 127
1, 10944, Note_on_c, 1, 60, 127
1, 11036, Note_off_c, 1, 76, 0
1, 11036, Note_off_c, 1, 60, 0
1, 11040, Note_on_c, 1, 72, 127
1, 11040, Note_on_c, 1, 62, 127
1, 11132, Note_off_c, 1, 72, 0
1, 11132, Note_off_c, 1, 62, 0
1, 11136, Note_on_c, 1, 70, 127
1, 11136, Note_on_c, 1, 64, 127
1, 11200, Note_off_c, 1, 70, 0
1, 11232, Note_on_c, 1, 79, 127
1, 11264, Note_off_c, 1, 64, 0
1, 11324, Note_off_c, 1, 79, 0
1, 11328, Note_on_c, 1, 76, 127
1, 11328, Note_on_c, 1, 67, 127
1, 11420, Note_off_c, 1, 76, 0
1, 11424, Note_on_c, 1, 72, 127
1, 11456, Note_off_c, 1, 67, 0
1, 11516, Note_off_c, 1, 72, 0
1, 11520, Note_on_c, 1, 70, 127
1, 11520, Note_on_c, 1, 64, 127
1, 11584, Note_off_c, 1, 70, 0
1, 11616, Note_on_c, 1, 79, 127
1, 11648, Note_off_c, 1, 64, 0
1, 11708, Note_off_c, 1, 79, 0
1, 11712, Note_on_c, 1, 76, 127
1, 11712, Note_on_c, 1, 60, 127
1, 11804, Note_off_c, 1, 76, 0
1, 11808, Note_on_c, 1, 72, 127
1, 11840, Note_off_c, 1, 60, 0
1, 11900, Note_off_c, 1, 72, 0
1, 11904, Note_on_c, 1, 70, 127
1, 11904, Note_on_c, 1, 48, 127
1, 11968, Note_off_c, 1, 70, 0
1, 12000, Note_on_c, 1, 79, 127
1, 12092, Note_off_c, 1, 79, 0
1, 12096, Note_on_c, 1, 76, 127
1, 12188, Note_off_c, 1, 76, 0
1, 12192, Note_on_c, 1, 72, 127
1, 12284, Note_off_c, 1, 48, 0
1, 12284, Note_off_c, 1, 72, 0
1, 12288, Note_on_c, 1, 69, 127
1, 12352, Note_off_c, 1, 69, 0
1, 12384, Note_on_c, 1, 81, 127
1, 12384, Note_on_c, 1, 60, 127
1, 12448, Note_off_c, 1, 60, 0
1, 12476, Note_off_c, 1, 81, 0
1, 12480, Note_on_c, 1, 77, 127
1, 12480, Note_on_c, 1, 62, 127
1, 12544, Note_off_c, 1, 62, 0
1, 12572, Note_off_c, 1, 77, 0
1, 12576, Note_on_c, 1, 73, 127
1, 12576, Note_on_c, 1, 64, 127
1, 12640, Note_off_c, 1, 64, 0
1, 12668, Note_off_c, 1, 73, 0
1, 12672, Note_on_c, 1, 72, 127
1, 12672, Note_on_c, 1, 65, 127
1, 12736, Note_off_c, 1, 72, 0
1, 12768, Note_on_c, 1, 81, 127
1, 12860, Note_off_c, 1, 65, 0
1, 12860, Note_off_c, 1, 81, 0
1, 12864, Note_on_c, 1, 77, 127
1, 12864, Note_on_c, 1, 69, 127
1, 12956, Note_off_c, 1, 77, 0
1, 12960, Note_on_c, 1, 73, 127
1, 13052, Note_off_c, 1, 69, 0
1, 13052, Note_off_c, 1, 73, 0
1, 13056, Note_on_c, 1, 72, 127
1, 13056, Note_on_c, 1, 65, 127
1, 13120, Note_off_c, 1, 72, 0
1, 13152, Note_on_c, 1, 81, 127
1, 13244, Note_off_c, 1, 65, 0
1, 13244, Note_off_c, 1, 81, 0
1, 13248, Note_on_c, 1, 77, 127
1, 13248, Note_on_c, 1, 60, 127
1, 13340, Note_off_c, 1, 77, 0
1, 13344, Note_on_c, 1, 73, 127
1, 13436, Note_off_c, 1, 60, 0
1, 13436, Note_off_c, 1, 73, 0
1, 13440, Note_on_c, 1, 72, 127
1, 13440, Note_on_c, 1, 48, 127
1, 13504, Note_off_c, 1, 72, 0
1, 13536, Note_on_c, 1, 81, 127
1, 13628, Note_off_c, 1, 81, 0
1, 13632, Note_on_c, 1, 77, 127
1, 13724, Note_off_c, 1, 77, 0
1, 13728, Note_on_c, 1, 75, 127
1, 13820, Note_off_c, 1, 48, 0
1, 13820, Note_off_c, 1, 75, 0
1, 13824, Note_on_c, 1, 74, 127
1, 13888, Note_off_c, 1, 74, 0
1, 13920, Note_on_c, 1, 83, 127
1, 14012, Note_off_c, 1, 83, 0
1, 14016, Note_on_c, 1, 80, 127
1, 14016, Note_on_c, 1, 62, 127
1, 14080, Note_off_c, 1, 62, 0
1, 14108, Note_off_c, 1, 80, 0
1, 14112, Note_on_c, 1, 77, 127
1, 14112, Note_on_c, 1, 64, 127
1, 14176, Note_off_c, 1, 64, 0
1, 14204, Note_off_c, 1, 77, 0
1, 14208, Note_on_c, 1, 74, 127
1, 14208, Note_on_c, 1, 65, 127
1, 14272, Note_off_c, 1, 74, 0
1, 14304, Note_on_c, 1, 83, 127
1, 14336, Note_off_c, 1, 65, 0
1, 14396, Note_off_c, 1, 83, 0
1, 14400, Note_on_c, 1, 80, 127
1, 14400, Note_on_c, 1, 62, 127
1, 14492, Note_off_c, 1, 80, 0
1, 14492, Note_off_c, 1, 62, 0
1, 14496, Note_on_c, 1, 77, 127
1, 14496, Note_on_c, 1, 64, 127
1, 14588, Note_off_c, 1, 77, 0
1, 14588, Note_off_c, 1, 64, 0
1, 14592, Note_on_c, 1, 74, 127
1, 14592, Note_on_c, 1, 65, 127
1, 14656, Note_off_c, 1, 74, 0
1, 14688, Note_on_c, 1, 83, 127
1, 14780, Note_off_c, 1, 65, 0
1, 14780, Note_off_c, 1, 83, 0
1, 14784, Note_on_c, 1, 80, 127
1, 14784, Note_on_c, 1, 62, 127
1, 14876, Note_off_c, 1, 80, 0
1, 14880, Note_on_c, 1, 77, 127
1, 14972, Note_off_c, 1, 62, 0
1, 14972, Note_off_c, 1, 77, 0
1, 14976, Note_on_c, 1, 74, 127
1, 14976, Note_on_c, 1, 55, 127
1, 15040, Note_off_c, 1, 74, 0
1, 15072, Note_on_c, 1, 83, 127
1, 15164, Note_off_c, 1, 55, 0
1, 15164, Note_off_c, 1, 83, 0
1, 15168, Note_on_c, 1, 80, 127
1, 15168, Note_on_c, 1, 59, 127
1, 15260, Note_off_c, 1, 80, 0
1, 15264, Note_on_c, 1, 77, 127
1, 15356, Note_off_c, 1, 59, 0
1, 15356, Note_off_c, 1, 77, 0
1, 15360, Note_on_c, 1, 76, 127
1, 15360, Note_on_c, 1, 60, 127
1, 15452, Note_off_c, 1, 76, 0
1, 15456, Note_on_c, 1, 84, 127
1, 15488, Note_off_c, 1, 60, 0
1, 15548, Note_off_c, 1, 84, 0
1, 15552, Note_on_c, 1, 79, 127
1, 15552, Note_on_c, 1, 48, 127
1, 15644, Note_off_c, 1, 79, 0
1, 15644, Note_off_c, 1, 48, 0
1, 15648, Note_on_c, 1, 76, 127
1, 15648, Note_on_c, 1, 50, 127
1, 15740, Note_off_c, 1, 76, 0
1, 15740, Note_off_c, 1, 50, 0
1, 15744, Note_on_c, 1, 72, 127
1, 15744, Note_on_c, 1, 52, 127
1, 15808, Note_off_c, 1, 72, 0
1, 15840, Note_on_c, 1, 76, 127
1, 15904, Note_off_c, 1, 76, 0
1, 15932, Note_off_c, 1, 52, 0
1, 15936, Note_on_c, 1, 74, 127
1, 15936, Note_on_c, 1, 55, 127
1, 16000, Note_off_c, 1, 74, 0
1, 16032, Note_on_c, 1, 77, 127
1, 16096, Note_off_c, 1, 77, 0
1, 16124, Note_off_c, 1, 55, 0
1, 16128, Note_on_c, 1, 76, 127
1, 16128, Note_on_c, 1, 60, 127
1, 16220, Note_off_c, 1, 76, 0
1, 16224, Note_on_c, 1, 79, 127
1, 16256, Note_off_c, 1, 60, 0
1, 16316, Note_off_c, 1, 79, 0
1, 16320, Note_on_c, 1, 76, 127
1, 16320, Note_on_c, 1, 48, 127
1, 16412, Note_off_c, 1, 76, 0
1, 16412, Note_off_c, 1, 48, 0
1, 16416, Note_on_c, 1, 72, 127
1, 16416, Note_on_c, 1, 50, 127
1, 16508, Note_off_c, 1, 72, 0
1, 16508, Note_off_c, 1, 50, 0
1, 16512, Note_on_c, 1, 67, 127
1, 16512, Note_on_c, 1, 52, 127
1, 16576, Note_off_c, 1, 67, 0
1, 16608, Note_on_c, 1, 70, 127
1, 16672, Note_off_c, 1, 70, 0
1, 16700, Note_off_c, 1, 52, 0
1, 16704, Note_on_c, 1, 69, 127
1, 16704, Note_on_c, 1, 53, 127
1, 16768, Note_off_c, 1, 69, 0
1, 16800, Note_on_c, 1, 72, 127
1, 16864, Note_off_c, 1, 72, 0
1, 16892, Note_off_c, 1, 53, 0
1, 16896, Note_on_c, 1, 70, 127
1, 16896, Note_on_c, 1, 55, 127
1, 16988, Note_off_c, 1, 70, 0
1, 16992, Note_on_c, 1, 74, 127
1, 17024, Note_off_c, 1, 55, 0
1, 17084, Note_off_c, 1, 74, 0
1, 17088, Note_on_c, 1, 70, 127
1, 17088, Note_on_c, 1, 48, 127
1, 17180, Note_off_c, 1, 70, 0
1, 17180, Note_off_c, 1, 48, 0
1, 17184, Note_on_c, 1, 67, 127
1, 17184, Note_on_c, 1, 52, 127
1, 17276, Note_off_c, 1, 67, 0
1, 17276, Note_off_c, 1, 52, 0
1, 17280, Note_on_c, 1, 64, 127
1, 17280, Note_on_c, 1, 55, 127
1, 17344, Note_off_c, 1, 64, 0
1, 17376, Note_on_c, 1, 67, 127
1, 17440, Note_off_c, 1, 67, 0
1, 17468, Note_off_c, 1, 55, 0
1, 17472, Note_on_c, 1, 65, 127
1, 17472, Note_on_c, 1, 57, 127
1, 17536, Note_off_c, 1, 65, 0
1, 17568, Note_on_c, 1, 69, 127
1, 17632, Note_off_c, 1, 69, 0
1, 17660, Note_off_c, 1, 57, 0
1, 17664, Note_on_c, 1, 67, 127
1, 17664, Note_on_c, 1, 58, 127
1, 17756, Note_off_c, 1, 67, 0
1, 17760, Note_on_c, 1, 70, 127
1, 17792, Note_off_c, 1, 58, 0
1, 17852, Note_off_c, 1, 70, 0
1, 17856, Note_on_c, 1, 67, 127
1, 17856, Note_on_c, 1, 48, 127
1, 17948, Note_off_c, 1, 67, 0
1, 17948, Note_off_c, 1, 48, 0
1, 17952, Note_on_c, 1, 64, 127
1, 17952, Note_on_c, 1, 50, 127
1, 18044, Note_off_c, 1, 64, 0
1, 18044, Note_off_c, 1, 50, 0
1, 18048, Note_on_c, 1, 60, 127
1, 18048, Note_on_c, 1, 52, 127
1, 18112, Note_off_c, 1, 60, 0
1, 18144, Note_on_c, 1, 70, 127
1, 18236, Note_off_c, 1, 52, 0
1, 18236, Note_off_c, 1, 70, 0
1, 18240, Note_on_c, 1, 69, 127
1, 18240, Note_on_c, 1, 48, 127
1, 18332, Note_off_c, 1, 69, 0
1, 18336, Note_on_c, 1, 67, 127
1, 18428, Note_off_c, 1, 48, 0
1, 18428, Note_off_c, 1, 67, 0
1, 18432, Note_on_c, 1, 69, 127
1, 18432, Note_on_c, 1, 53, 127
1, 18524, Note_off_c, 1, 69, 0
1, 18524, Note_off_c, 1, 53, 0
1, 18528, Note_on_c, 1, 65, 127
1, 18528, Note_on_c, 1, 57, 127
1, 18620, Note_off_c, 1, 65, 0
1, 18620, Note_off_c, 1, 57, 0
1, 18624, Note_on_c, 1, 67, 127
1, 18624, Note_on_c, 1, 55, 127
1, 18716, Note_off_c, 1, 67, 0
1, 18716, Note_off_c, 1, 55, 0
1, 18720, Note_on_c, 1, 69, 127
1, 18720, Note_on_c, 1, 53, 127
1, 18812, Note_off_c, 1, 69, 0
1, 18812, Note_off_c, 1, 53, 0
1, 18816, Note_on_c, 1, 70, 127
1, 18816, Note_on_c, 1, 52, 127
1, 18908, Note_off_c, 1, 70, 0
1, 18908, Note_off_c, 1, 52, 0
1, 18912, Note_on_c, 1, 72, 127
1, 18912, Note_on_c, 1, 50, 127
1, 19004, Note_off_c, 1, 72, 0
1, 19004, Note_off_c, 1, 50, 0
1, 19008, Note_on_c, 1, 74, 127
1, 19008, Note_on_c, 1, 48, 127
1, 19100, Note_off_c, 1, 74, 0
1, 19100, Note_off_c, 1, 48, 0
1, 19104, Note_on_c, 1, 76, 127
1, 19104, Note_on_c, 1, 46, 127
1, 19196, Note_off_c, 1, 76, 0
1, 19196, Note_off_c, 1, 46, 0
1, 19200, Note_on_c, 1, 77, 127
1, 19200, Note_on_c, 1, 45, 127
1, 19292, Note_off_c, 1, 77, 0
1, 19292, Note_off_c, 1, 45, 0
1, 19296, Note_on_c, 1, 76, 127
1, 19296, Note_on_c, 1, 48, 127
1, 19388, Note_off_c, 1, 76, 0
1, 19388, Note_off_c, 1, 48, 0
1, 19392, Note_on_c, 1, 74, 127
1, 19392, Note_on_c, 1, 50, 127
1, 19484, Note_off_c, 1, 74, 0
1, 19484, Note_off_c, 1, 50, 0
1, 19488, Note_on_c, 1, 72, 127
1, 19488, Note_on_c, 1, 52, 127
1, 19580, Note_off_c, 1, 72, 0
1, 19580, Note_off_c, 1, 52, 0
1, 19584, Note_on_c, 1, 84, 127
1, 19584, Note_on_c, 1, 53, 127
1, 19676, Note_off_c, 1, 53, 0
1, 19680, Note_on_c, 1, 55, 127
1, 19712, Note_off_c, 1, 84, 0
1, 19772, Note_off_c, 1, 55, 0
1, 19776, Note_on_c, 1, 77, 127
1, 19776, Note_on_c, 1, 72, 127
1, 19776, Note_on_c, 1, 69, 127
1, 19776, Note_on_c, 1, 57, 127
1, 19868, Note_off_c, 1, 57, 0
1, 19872, Note_on_c, 1, 58, 127
1, 19904, Note_off_c, 1, 77, 0
1, 19904, Note_off_c, 1, 72, 0
1, 19904, Note_off_c, 1, 69, 0
1, 19964, Note_off_c, 1, 58, 0
1, 19968, Note_on_c, 1, 77, 127
1, 19968, Note_on_c, 1, 72, 127
1, 19968, Note_on_c, 1, 69, 127
1, 19968, Note_on_c, 1, 60, 127
1, 20348, Note_off_c, 1, 77, 0
1, 20348, Note_off_c, 1, 72, 0
1, 20348, Note_off_c, 1, 69, 0
1, 20348, Note_off_c, 1, 60, 0
1, 20352, Note_on_c, 1, 67, 127
1, 20352, Note_on_c, 1, 76, 127
1, 20352, Note_on_c, 1, 72, 127
1, 20352, Note_on_c, 1, 48, 127
1, 20608, Note_off_c, 1, 67, 0
1, 20608, Note_off_c, 1, 48, 0
1, 20736, Note_on_c, 1, 65, 127
1, 20736, Note_on_c, 1, 50, 127
1, 20800, Note_off_c, 1, 76, 0
1, 20832, Note_on_c, 1, 77, 127
1, 20864, Note_off_c, 1, 72, 0
1, 20928, Note_on_c, 1, 71, 127
1, 20992, Note_off_c, 1, 65, 0
1, 21024, Note_off_c, 1, 77, 0
1, 21116, Note_off_c, 1, 50, 0
1, 21184, Note_off_c, 1, 71, 0
1, 21216, Note_on_c, 1, 74, 127
1, 21280, Note_off_c, 1, 74, 0
1, 21312, Note_on_c, 1, 72, 127
1, 21312, Note_on_c, 1, 52, 127
1, 21376, Note_off_c, 1, 72, 0
1, 21408, Note_on_c, 1, 70, 127
1, 21440, Note_off_c, 1, 52, 0
1, 21472, Note_off_c, 1, 70, 0
1, 21504, Note_on_c, 1, 69, 127
1, 21504, Note_on_c, 1, 53, 127
1, 21600, Note_on_c, 1, 72, 127
1, 21692, Note_off_c, 1, 53, 0
1, 21692, Note_off_c, 1, 72, 0
1, 21696, Note_on_c, 1, 77, 127
1, 21696, Note_on_c, 1, 45, 127
1, 21788, Note_off_c, 1, 69, 0
1, 21884, Note_off_c, 1, 45, 0
1, 21888, Note_on_c, 1, 67, 127
1, 21888, Note_on_c, 1, 46, 127
1, 22076, Note_off_c, 1, 77, 0
1, 22076, Note_off_c, 1, 46, 0
1, 22080, Note_on_c, 1, 76, 127
1, 22080, Note_on_c, 1, 70, 127
1, 22080, Note_on_c, 1, 48, 127
1, 22268, Note_off_c, 1, 67, 0
1, 22268, Note_off_c, 1, 76, 0
1, 22268, Note_off_c, 1, 70, 0
1, 22268, Note_off_c, 1, 48, 0
1, 22272, Note_on_c, 1, 77, 127
1, 22272, Note_on_c, 1, 72, 127
1, 22272, Note_on_c, 1, 69, 127
1, 22272, Note_on_c, 1, 65, 127
1, 22272, Note_on_c, 1, 41, 127
1, 22400, Note_off_c, 1, 41, 0
1, 22528, Note_off_c, 1, 77, 0
1, 22528, Note_off_c, 1, 72, 0
1, 22592, Note_off_c, 1, 69, 0
1, 22592, Note_off_c, 1, 65, 0
1, 22656, Note_on_c, 1, 69, 127
1, 22656, Note_on_c, 1, 65, 127
1, 22784, Note_off_c, 1, 69, 0
1, 22784, Note_off_c, 1, 65, 0
1, 22848, Note_on_c, 1, 72, 127
1, 22848, Note_on_c, 1, 69, 127
1, 22848, Note_on_c, 1, 65, 127
1, 22976, Note_off_c, 1, 69, 0
1, 22976, Note_off_c, 1, 65, 0
1, 23036, Note_off_c, 1, 72, 0
1, 23040, Note_on_c, 1, 74, 127
1, 23040, Note_on_c, 1, 70, 127
1, 23040, Note_on_c, 1, 65, 127
1, 23104, Note_off_c, 1, 74, 0
1, 23136, Note_on_c, 1, 72, 127
1, 23168, Note_off_c, 1, 70, 0
1, 23168, Note_off_c, 1, 65, 0
1, 23200, Note_off_c, 1, 72, 0
1, 23232, Note_on_c, 1, 74, 127
1, 23232, Note_on_c, 1, 70, 127
1, 23232, Note_on_c, 1, 65, 127
1, 23360, Note_off_c, 1, 70, 0
1, 23360, Note_off_c, 1, 65, 0
1, 23516, Note_off_c, 1, 74, 0
1, 23520, Note_on_c, 1, 77, 127
1, 23612, Note_off_c, 1, 77, 0
1, 23616, Note_on_c, 1, 75, 127
1, 23616, Note_on_c, 1, 70, 127
1, 23616, Note_on_c, 1, 65, 127
1, 23708, Note_off_c, 1, 75, 0
1, 23712, Note_on_c, 1, 74, 127
1, 23744, Note_off_c, 1, 70, 0
1, 23744, Note_off_c, 1, 65, 0
1, 23804, Note_off_c, 1, 74, 0
1, 23808, Note_on_c, 1, 72, 127
1, 23808, Note_on_c, 1, 70, 127
1, 23808, Note_on_c, 1, 65, 127
1, 23872, Note_off_c, 1, 72, 0
1, 23904, Note_on_c, 1, 76, 127
1, 23936, Note_off_c, 1, 70, 0
1, 23936, Note_off_c, 1, 65, 0
1, 23968, Note_off_c, 1, 76, 0
1, 24000, Note_on_c, 1, 77, 127
1, 24000, Note_on_c, 1, 70, 127
1, 24000, Note_on_c, 1, 65, 127
1, 24128, Note_off_c, 1, 70, 0
1, 24128, Note_off_c, 1, 65, 0
1, 24192, Note_on_c, 1, 69, 127
1, 24284, Note_off_c, 1, 77, 0
1, 24288, Note_on_c, 1, 76, 127
1, 24320, Note_off_c, 1, 69, 0
1, 24380, Note_off_c, 1, 76, 0
1, 24384, Note_on_c, 1, 74, 127
1, 24384, Note_on_c, 1, 65, 127
1, 24384, Note_on_c, 1, 69, 127
1, 24476, Note_off_c, 1, 74, 0
1, 24480, Note_on_c, 1, 72, 127
1, 24512, Note_off_c, 1, 65, 0
1, 24512, Note_off_c, 1, 69, 0
1, 24572, Note_off_c, 1, 72, 0
1, 24576, Note_on_c, 1, 70, 127
1, 24576, Note_on_c, 1, 67, 127
1, 24576, Note_on_c, 1, 65, 127
1, 24668, Note_off_c, 1, 70, 0
1, 24672, Note_on_c, 1, 69, 127
1, 24704, Note_off_c, 1, 67, 0
1, 24704, Note_off_c, 1, 65, 0
1, 24764, Note_off_c, 1, 69, 0
1, 24768, Note_on_c, 1, 70, 127
1, 24768, Note_on_c, 1, 67, 127
1, 24768, Note_on_c, 1, 65, 127
1, 24860, Note_off_c, 1, 70, 0
1, 24864, Note_on_c, 1, 74, 127
1, 24896, Note_off_c, 1, 67, 0
1, 24896, Note_off_c, 1, 65, 0
1, 24956, Note_off_c, 1, 74, 0
1, 24960, Note_on_c, 1, 79, 127
1, 24960, Note_on_c, 1, 67, 127
1, 24960, Note_on_c, 1, 64, 127
1, 25088, Note_off_c, 1, 79, 0
1, 25088, Note_off_c, 1, 67, 0
1, 25088, Note_off_c, 1, 64, 0
1, 25152, Note_on_c, 1, 70, 127
1, 25152, Note_on_c, 1, 67, 127
1, 25152, Note_on_c, 1, 64, 127
1, 25280, Note_off_c, 1, 70, 0
1, 25280, Note_off_c, 1, 67, 0
1, 25280, Note_off_c, 1, 64, 0
1, 25344, Note_on_c, 1, 70, 127
1, 25344, Note_on_c, 1, 67, 127
1, 25344, Note_on_c, 1, 65, 127
1, 25392, Note_off_c, 1, 70, 0
1, 25392, Note_on_c, 1, 72, 127
1, 25440, Note_off_c, 1, 72, 0
1, 25472, Note_off_c, 1, 67, 0
1, 25472, Note_off_c, 1, 65, 0
1, 25536, Note_on_c, 1, 69, 127
1, 25536, Note_on_c, 1, 53, 127
1, 25628, Note_off_c, 1, 53, 0
1, 25632, Note_on_c, 1, 55, 127
1, 25664, Note_off_c, 1, 69, 0
1, 25724, Note_off_c, 1, 55, 0
1, 25728, Note_on_c, 1, 57, 127
1, 25856, Note_off_c, 1, 57, 0
1, 25920, Note_on_c, 1, 69, 127
1, 25920, Note_on_c, 1, 65, 127
1, 25920, Note_on_c, 1, 53, 127
1, 26048, Note_off_c, 1, 69, 0
1, 26048, Note_off_c, 1, 65, 0
1, 26048, Note_off_c, 1, 53, 0
1, 26112, Note_on_c, 1, 67, 127
1, 26112, Note_on_c, 1, 65, 127
1, 26112, Note_on_c, 1, 60, 127
1, 26204, Note_off_c, 1, 67, 0
1, 26208, Note_on_c, 1, 70, 127
1, 26240, Note_off_c, 1, 65, 0
1, 26240, Note_off_c, 1, 60, 0
1, 26272, Note_off_c, 1, 70, 0
1, 26304, Note_on_c, 1, 70, 127
1, 26304, Note_on_c, 1, 64, 127
1, 26304, Note_on_c, 1, 60, 127
1, 26396, Note_off_c, 1, 70, 0
1, 26400, Note_on_c, 1, 69, 127
1, 26432, Note_off_c, 1, 64, 0
1, 26432, Note_off_c, 1, 60, 0
1, 26464, Note_off_c, 1, 69, 0
1, 26496, Note_on_c, 1, 69, 127
1, 26496, Note_on_c, 1, 65, 127
1, 26496, Note_on_c, 1, 60, 127
1, 26588, Note_off_c, 1, 69, 0
1, 26592, Note_on_c, 1, 77, 127
1, 26624, Note_off_c, 1, 65, 0
1, 26624, Note_off_c, 1, 60, 0
1, 26656, Note_off_c, 1, 77, 0
1, 26688, Note_on_c, 1, 77, 127
1, 26688, Note_on_c, 1, 69, 127
1, 26688, Note_on_c, 1, 60, 127
1, 26780, Note_off_c, 1, 77, 0
1, 26784, Note_on_c, 1, 76, 127
1, 26816, Note_off_c, 1, 69, 0
1, 26816, Note_off_c, 1, 60, 0
1, 26848, Note_off_c, 1, 76, 0
1, 26880, Note_on_c, 1, 76, 127
1, 26880, Note_on_c, 1, 67, 127
1, 26880, Note_on_c, 1, 60, 127
1, 26972, Note_off_c, 1, 76, 0
1, 26976, Note_on_c, 1, 74, 127
1, 27008, Note_off_c, 1, 67, 0
1, 27008, Note_off_c, 1, 60, 0
1, 27040, Note_off_c, 1, 74, 0
1, 27072, Note_on_c, 1, 74, 127
1, 27072, Note_on_c, 1, 65, 127
1, 27072, Note_on_c, 1, 60, 127
1, 27164, Note_off_c, 1, 74, 0
1, 27168, Note_on_c, 1, 72, 127
1, 27200, Note_off_c, 1, 65, 0
1, 27200, Note_off_c, 1, 60, 0
1, 27232, Note_off_c, 1, 72, 0
1, 27264, Note_on_c, 1, 72, 127
1, 27264, Note_on_c, 1, 64, 127
1, 27264, Note_on_c, 1, 60, 127
1, 27356, Note_off_c, 1, 72, 0
1, 27360, Note_on_c, 1, 70, 127
1, 27392, Note_off_c, 1, 64, 0
1, 27392, Note_off_c, 1, 60, 0
1, 27424, Note_off_c, 1, 70, 0
1, 27456, Note_on_c, 1, 70, 127
1, 27456, Note_on_c, 1, 65, 127
1, 27456, Note_on_c, 1, 60, 127
1, 27548, Note_off_c, 1, 70, 0
1, 27552, Note_on_c, 1, 69, 127
1, 27584, Note_off_c, 1, 65, 0
1, 27584, Note_off_c, 1, 60, 0
1, 27616, Note_off_c, 1, 69, 0
1, 27648, Note_on_c, 1, 67, 127
1, 27648, Note_on_c, 1, 65, 127
1, 27648, Note_on_c, 1, 60, 127
1, 27712, Note_off_c, 1, 67, 0
1, 27744, Note_on_c, 1, 70, 127
1, 27776, Note_off_c, 1, 65, 0
1, 27776, Note_off_c, 1, 60, 0
1, 27808, Note_off_c, 1, 70, 0
1, 27840, Note_on_c, 1, 72, 127
1, 27840, Note_on_c, 1, 64, 127
1, 27840, Note_on_c, 1, 60, 127
1, 27884, Note_on_c, 1, 70, 127
1, 27904, Note_off_c, 1, 72, 0
1, 27936, Note_on_c, 1, 69, 127
1, 27948, Note_off_c, 1, 70, 0
1, 27968, Note_off_c, 1, 64, 0
1, 27968, Note_off_c, 1, 60, 0
1, 28000, Note_off_c, 1, 69, 0
1, 28032, Note_on_c, 1, 69, 127
1, 28032, Note_on_c, 1, 65, 127
1, 28032, Note_on_c, 1, 60, 127
1, 28124, Note_off_c, 1, 69, 0
1, 28128, Note_on_c, 1, 77, 127
1, 28160, Note_off_c, 1, 65, 0
1, 28160, Note_off_c, 1, 60, 0
1, 28192, Note_off_c, 1, 77, 0
1, 28224, Note_on_c, 1, 79, 127
1, 28224, Note_on_c, 1, 69, 127
1, 28224, Note_on_c, 1, 60, 127
1, 28268, Note_on_c, 1, 77, 127
1, 28288, Note_off_c, 1, 79, 0
1, 28320, Note_on_c, 1, 76, 127
1, 28332, Note_off_c, 1, 77, 0
1, 28352, Note_off_c, 1, 69, 0
1, 28352, Note_off_c, 1, 60, 0
1, 28384, Note_off_c, 1, 76, 0
1, 28416, Note_on_c, 1, 77, 127
1, 28416, Note_on_c, 1, 67, 127
1, 28416, Note_on_c, 1, 60, 127
1, 28464, Note_on_c, 1, 76, 127
1, 28480, Note_off_c, 1, 77, 0
1, 28512, Note_on_c, 1, 74, 127
1, 28528, Note_off_c, 1, 76, 0
1, 28544, Note_off_c, 1, 67, 0
1, 28544, Note_off_c, 1, 60, 0
1, 28576, Note_off_c, 1, 74, 0
1, 28608, Note_on_c, 1, 76, 127
1, 28608, Note_on_c, 1, 65, 127
1, 28608, Note_on_c, 1, 60, 127
1, 28652, Note_on_c, 1, 74, 127
1, 28672, Note_off_c, 1, 76, 0
1, 28704, Note_on_c, 1, 72, 127
1, 28716, Note_off_c, 1, 74, 0
1, 28736, Note_off_c, 1, 65, 0
1, 28736, Note_off_c, 1, 60, 0
1, 28768, Note_off_c, 1, 72, 0
1, 28800, Note_on_c, 1, 74, 127
1, 28800, Note_on_c, 1, 64, 127
1, 28800, Note_on_c, 1, 60, 127
1, 28848, Note_on_c, 1, 72, 127
1, 28864, Note_off_c, 1, 74, 0
1, 28896, Note_on_c, 1, 70, 127
1, 28912, Note_off_c, 1, 72, 0
1, 28928, Note_off_c, 1, 64, 0
1, 28928, Note_off_c, 1, 60, 0
1, 28960, Note_off_c, 1, 70, 0
1, 28992, Note_on_c, 1, 72, 127
1, 28992, Note_on_c, 1, 60, 127
1, 28992, Note_on_c, 1, 67, 127
1, 29036, Note_on_c, 1, 70, 127
1, 29056, Note_off_c, 1, 72, 0
1, 29088, Note_on_c, 1, 69, 127
1, 29100, Note_off_c, 1, 70, 0
1, 29120, Note_off_c, 1, 60, 0
1, 29120, Note_off_c, 1, 67, 0
1, 29152, Note_off_c, 1, 69, 0
1, 29184, Note_on_c, 1, 70, 127
1, 29184, Note_on_c, 1, 65, 127
1, 29184, Note_on_c, 1, 60, 127
1, 29232, Note_on_c, 1, 69, 127
1, 29248, Note_off_c, 1, 70, 0
1, 29280, Note_on_c, 1, 67, 127
1, 29296, Note_off_c, 1, 69, 0
1, 29312, Note_off_c, 1, 65, 0
1, 29312, Note_off_c, 1, 60, 0
1, 29344, Note_off_c, 1, 67, 0
1, 29376, Note_on_c, 1, 69, 127
1, 29376, Note_on_c, 1, 65, 127
1, 29376, Note_on_c, 1, 60, 127
1, 29504, Note_off_c, 1, 65, 0
1, 29504, Note_off_c, 1, 60, 0
1, 29632, Note_off_c, 1, 69, 0
1, 29664, Note_on_c, 1, 72, 127
1, 29728, Note_off_c, 1, 72, 0
1, 29760, Note_on_c, 1, 70, 127
1, 29760, Note_on_c, 1, 65, 127
1, 29760, Note_on_c, 1, 60, 127
1, 29824, Note_off_c, 1, 70, 0
1, 29856, Note_on_c, 1, 69, 127
1, 29888, Note_off_c, 1, 65, 0
1, 29888, Note_off_c, 1, 60, 0
1, 29920, Note_off_c, 1, 69, 0
1, 29952, Note_on_c, 1, 67, 127
1, 29952, Note_on_c, 1, 65, 127
1, 29952, Note_on_c, 1, 60, 127
1, 30044, Note_off_c, 1, 67, 0
1, 30048, Note_on_c, 1, 71, 127
1, 30080, Note_off_c, 1, 65, 0
1, 30080, Note_off_c, 1, 60, 0
1, 30140, Note_off_c, 1, 71, 0
1, 30144, Note_on_c, 1, 72, 127
1, 30144, Note_on_c, 1, 65, 127
1, 30144, Note_on_c, 1, 60, 127
1, 30272, Note_off_c, 1, 65, 0
1, 30272, Note_off_c, 1, 60, 0
1, 30336, Note_on_c, 1, 64, 127
1, 30428, Note_off_c, 1, 72, 0
1, 30432, Note_on_c, 1, 71, 127
1, 30464, Note_off_c, 1, 64, 0
1, 30524, Note_off_c, 1, 71, 0
1, 30528, Note_on_c, 1, 69, 127
1, 30528, Note_on_c, 1, 64, 127
1, 30528, Note_on_c, 1, 60, 127
1, 30620, Note_off_c, 1, 69, 0
1, 30624, Note_on_c, 1, 67, 127
1, 30656, Note_off_c, 1, 64, 0
1, 30656, Note_off_c, 1, 60, 0
1, 30716, Note_off_c, 1, 67, 0
1, 30720, Note_on_c, 1, 65, 127
1, 30720, Note_on_c, 1, 62, 127
1, 30720, Note_on_c, 1, 60, 127
1, 30812, Note_off_c, 1, 65, 0
1, 30816, Note_on_c, 1, 64, 127
1, 30848, Note_off_c, 1, 62, 0
1, 30848, Note_off_c, 1, 60, 0
1, 30908, Note_off_c, 1, 64, 0
1, 30912, Note_on_c, 1, 65, 127
1, 30912, Note_on_c, 1, 62, 127
1, 30912, Note_on_c, 1, 60, 127
1, 31004, Note_off_c, 1, 65, 0
1, 31008, Note_on_c, 1, 69, 127
1, 31040, Note_off_c, 1, 62, 0
1, 31040, Note_off_c, 1, 60, 0
1, 31100, Note_off_c, 1, 69, 0
1, 31104, Note_on_c, 1, 74, 127
1, 31104, Note_on_c, 1, 62, 127
1, 31104, Note_on_c, 1, 59, 127
1, 31232, Note_off_c, 1, 74, 0
1, 31232, Note_off_c, 1, 62, 0
1, 31232, Note_off_c, 1, 59, 0
1, 31296, Note_on_c, 1, 65, 127
1, 31296, Note_on_c, 1, 62, 127
1, 31296, Note_on_c, 1, 59, 127
1, 31424, Note_off_c, 1, 65, 0
1, 31424, Note_off_c, 1, 62, 0
1, 31424, Note_off_c, 1, 59, 0
1, 31460, Note_on_c, 1, 65, 127
1, 31488, Note_on_c, 1, 67, 127
1, 31488, Note_on_c, 1, 62, 127
1, 31488, Note_on_c, 1, 60, 127
1, 31496, Note_off_c, 1, 65, 0
1, 31552, Note_off_c, 1, 67, 0
1, 31584, Note_on_c, 1, 64, 127
1, 31616, Note_off_c, 1, 62, 0
1, 31616, Note_off_c, 1, 60, 0
1, 31648, Note_off_c, 1, 64, 0
1, 31680, Note_on_c, 1, 48, 127
1, 31772, Note_off_c, 1, 48, 0
1, 31776, Note_on_c, 1, 50, 127
1, 31868, Note_off_c, 1, 50, 0
1, 31872, Note_on_c, 1, 52, 127
1, 31968, Note_on_c, 1, 72, 127
1, 32000, Note_off_c, 1, 52, 0
1, 32032, Note_off_c, 1, 72, 0
1, 32064, Note_on_c, 1, 74, 127
1, 32064, Note_on_c, 1, 48, 127
1, 32128, Note_off_c, 1, 74, 0
1, 32160, Note_on_c, 1, 76, 127
1, 32192, Note_off_c, 1, 48, 0
1, 32224, Note_off_c, 1, 76, 0
1, 32256, Note_on_c, 1, 69, 127
1, 32256, Note_on_c, 1, 53, 127
1, 32348, Note_off_c, 1, 69, 0
1, 32352, Note_on_c, 1, 64, 127
1, 32352, Note_on_c, 1, 55, 127
1, 32444, Note_off_c, 1, 64, 0
1, 32444, Note_off_c, 1, 55, 0
1, 32448, Note_on_c, 1, 65, 127
1, 32448, Note_on_c, 1, 57, 127
1, 32540, Note_off_c, 1, 65, 0
1, 32540, Note_off_c, 1, 57, 0
1, 32544, Note_on_c, 1, 60, 127
1, 32636, Note_off_c, 1, 53, 0
1, 32636, Note_off_c, 1, 60, 0
1, 32640, Note_on_c, 1, 74, 127
1, 32640, Note_on_c, 1, 65, 127
1, 32704, Note_off_c, 1, 74, 0
1, 32768, Note_off_c, 1, 65, 0
1, 32832, Note_on_c, 1, 76, 127
1, 32832, Note_on_c, 1, 50, 127
1, 32896, Note_off_c, 1, 76, 0
1, 32928, Note_on_c, 1, 77, 127
1, 32960, Note_off_c, 1, 50, 0
1, 32992, Note_off_c, 1, 77, 0
1, 33024, Note_on_c, 1, 71, 127
1, 33024, Note_on_c, 1, 55, 127
1, 33116, Note_off_c, 1, 71, 0
1, 33120, Note_on_c, 1, 66, 127
1, 33120, Note_on_c, 1, 57, 127
1, 33212, Note_off_c, 1, 66, 0
1, 33212, Note_off_c, 1, 57, 0
1, 33216, Note_on_c, 1, 67, 127
1, 33216, Note_on_c, 1, 59, 127
1, 33308, Note_off_c, 1, 67, 0
1, 33308, Note_off_c, 1, 59, 0
1, 33312, Note_on_c, 1, 62, 127
1, 33404, Note_off_c, 1, 55, 0
1, 33404, Note_off_c, 1, 62, 0
1, 33408, Note_on_c, 1, 76, 127
1, 33408, Note_on_c, 1, 67, 127
1, 33472, Note_off_c, 1, 76, 0
1, 33536, Note_off_c, 1, 67, 0
1, 33600, Note_on_c, 1, 77, 127
1, 33600, Note_on_c, 1, 52, 127
1, 33664, Note_off_c, 1, 77, 0
1, 33696, Note_on_c, 1, 79, 127
1, 33728, Note_off_c, 1, 52, 0
1, 33760, Note_off_c, 1, 79, 0
1, 33792, Note_on_c, 1, 72, 127
1, 33792, Note_on_c, 1, 57, 127
1, 33884, Note_off_c, 1, 72, 0
1, 33888, Note_on_c, 1, 68, 127
1, 33888, Note_on_c, 1, 59, 127
1, 33980, Note_off_c, 1, 68, 0
1, 33980, Note_off_c, 1, 59, 0
1, 33984, Note_on_c, 1, 69, 127
1, 33984, Note_on_c, 1, 60, 127
1, 34076, Note_off_c, 1, 69, 0
1, 34076, Note_off_c, 1, 60, 0
1, 34080, Note_on_c, 1, 64, 127
1, 34172, Note_off_c, 1, 57, 0
1, 34172, Note_off_c, 1, 64, 0
1, 34176, Note_on_c, 1, 78, 127
1, 34176, Note_on_c, 1, 69, 127
1, 34240, Note_off_c, 1, 78, 0
1, 34304, Note_off_c, 1, 69, 0
1, 34368, Note_on_c, 1, 79, 127
1, 34368, Note_on_c, 1, 57, 127
1, 34368, Note_on_c, 1, 60, 127
1, 34460, Note_off_c, 1, 79, 0
1, 34464, Note_on_c, 1, 81, 127
1, 34528, Note_off_c, 1, 81, 0
1, 34556, Note_off_c, 1, 57, 0
1, 34556, Note_off_c, 1, 60, 0
1, 34560, Note_on_c, 1, 62, 127
1, 34560, Note_on_c, 1, 59, 127
1, 34656, Note_on_c, 1, 78, 127
1, 34720, Note_off_c, 1, 78, 0
1, 34748, Note_off_c, 1, 62, 0
1, 34748, Note_off_c, 1, 59, 0
1, 34752, Note_on_c, 1, 79, 127
1, 34752, Note_on_c, 1, 59, 127
1, 34752, Note_on_c, 1, 55, 127
1, 34940, Note_off_c, 1, 59, 0
1, 34940, Note_off_c, 1, 55, 0
1, 34944, Note_on_c, 1, 62, 127
1, 35008, Note_off_c, 1, 79, 0
1, 35040, Note_on_c, 1, 67, 127
1, 35132, Note_off_c, 1, 62, 0
1, 35132, Note_off_c, 1, 67, 0
1, 35136, Note_on_c, 1, 71, 127
1, 35136, Note_on_c, 1, 65, 127
1, 35136, Note_on_c, 1, 62, 127
1, 35228, Note_off_c, 1, 71, 0
1, 35232, Note_on_c, 1, 74, 127
1, 35300, Note_on_c, 1, 79, 127
1, 35324, Note_off_c, 1, 65, 0
1, 35324, Note_off_c, 1, 62, 0
1, 35324, Note_off_c, 1, 74, 0
1, 35328, Note_on_c, 1, 59, 127
1, 35336, Note_off_c, 1, 79, 0
1, 35380, Note_on_c, 1, 77, 127
1, 35424, Note_on_c, 1, 76, 127
1, 35436, Note_off_c, 1, 77, 0
1, 35516, Note_off_c, 1, 59, 0
1, 35516, Note_off_c, 1, 76, 0
1, 35520, Note_on_c, 1, 77, 127
1, 35520, Note_on_c, 1, 59, 127
1, 35520, Note_on_c, 1, 55, 127
1, 35708, Note_off_c, 1, 59, 0
1, 35708, Note_off_c, 1, 55, 0
1, 35712, Note_on_c, 1, 62, 127
1, 35804, Note_off_c, 1, 77, 0
1, 35808, Note_on_c, 1, 67, 127
1, 35900, Note_off_c, 1, 62, 0
1, 35900, Note_off_c, 1, 67, 0
1, 35904, Note_on_c, 1, 71, 127
1, 35904, Note_on_c, 1, 65, 127
1, 35904, Note_on_c, 1, 62, 127
1, 35996, Note_off_c, 1, 71, 0
1, 36000, Note_on_c, 1, 74, 127
1, 36068, Note_on_c, 1, 77, 127
1, 36092, Note_off_c, 1, 65, 0
1, 36092, Note_off_c, 1, 62, 0
1, 36092, Note_off_c, 1, 74, 0
1, 36096, Note_on_c, 1, 67, 127
1, 36104, Note_off_c, 1, 77, 0
1, 36148, Note_on_c, 1, 76, 127
1, 36188, Note_off_c, 1, 67, 0
1, 36204, Note_off_c, 1, 76, 0
1, 36288, Note_on_c, 1, 64, 127
1, 36288, Note_on_c, 1, 76, 127
1, 36380, Note_off_c, 1, 64, 0
1, 36384, Note_on_c, 1, 62, 127
1, 36476, Note_off_c, 1, 62, 0
1, 36480, Note_on_c, 1, 60, 127
1, 36572, Note_off_c, 1, 76, 0
1, 36576, Note_on_c, 1, 67, 127
1, 36576, Note_on_c, 1, 59, 127
1, 36668, Note_off_c, 1, 60, 0
1, 36668, Note_off_c, 1, 67, 0
1, 36668, Note_off_c, 1, 59, 0
1, 36672, Note_on_c, 1, 72, 127
1, 36672, Note_on_c, 1, 57, 127
1, 36764, Note_off_c, 1, 72, 0
1, 36764, Note_off_c, 1, 57, 0
1, 36768, Note_on_c, 1, 74, 127
1, 36768, Note_on_c, 1, 55, 127
1, 36860, Note_off_c, 1, 74, 0
1, 36860, Note_off_c, 1, 55, 0
1, 36864, Note_on_c, 1, 75, 127
1, 36864, Note_on_c, 1, 54, 127
1, 36928, Note_off_c, 1, 75, 0
1, 36956, Note_off_c, 1, 54, 0
1, 36960, Note_on_c, 1, 72, 127
1, 36960, Note_on_c, 1, 52, 127
1, 37052, Note_off_c, 1, 72, 0
1, 37052, Note_off_c, 1, 52, 0
1, 37056, Note_on_c, 1, 71, 127
1, 37056, Note_on_c, 1, 50, 127
1, 37148, Note_off_c, 1, 71, 0
1, 37148, Note_off_c, 1, 50, 0
1, 37152, Note_on_c, 1, 72, 127
1, 37152, Note_on_c, 1, 48, 127
1, 37244, Note_off_c, 1, 72, 0
1, 37244, Note_off_c, 1, 48, 0
1, 37248, Note_on_c, 1, 78, 127
1, 37248, Note_on_c, 1, 47, 127
1, 37340, Note_off_c, 1, 78, 0
1, 37340, Note_off_c, 1, 47, 0
1, 37344, Note_on_c, 1, 72, 127
1, 37344, Note_on_c, 1, 45, 127
1, 37436, Note_off_c, 1, 72, 0
1, 37436, Note_off_c, 1, 45, 0
1, 37440, Note_on_c, 1, 81, 127
1, 37440, Note_on_c, 1, 43, 127
1, 37532, Note_off_c, 1, 81, 0
1, 37532, Note_off_c, 1, 43, 0
1, 37536, Note_on_c, 1, 72, 127
1, 37536, Note_on_c, 1, 42, 127
1, 37600, Note_off_c, 1, 72, 0
1, 37628, Note_off_c, 1, 42, 0
1, 37632, Note_on_c, 1, 71, 127
1, 37632, Note_on_c, 1, 43, 127
1, 37696, Note_off_c, 1, 71, 0
1, 37728, Note_on_c, 1, 65, 127
1, 37820, Note_off_c, 1, 65, 0
1, 37824, Note_on_c, 1, 64, 127
1, 37824, Note_on_c, 1, 50, 127
1, 37916, Note_off_c, 1, 64, 0
1, 38012, Note_off_c, 1, 43, 0
1, 38012, Note_off_c, 1, 50, 0
1, 38016, Note_on_c, 1, 71, 127
1, 38016, Note_on_c, 1, 55, 127
1, 38108, Note_off_c, 1, 71, 0
1, 38112, Note_on_c, 1, 65, 127
1, 38204, Note_off_c, 1, 65, 0
1, 38208, Note_on_c, 1, 74, 127
1, 38208, Note_on_c, 1, 47, 127
1, 38300, Note_off_c, 1, 74, 0
1, 38396, Note_off_c, 1, 47, 0
1, 38400, Note_on_c, 1, 64, 127
1, 38400, Note_on_c, 1, 48, 127
1, 38492, Note_off_c, 1, 64, 0
1, 38496, Note_on_c, 1, 67, 127
1, 38588, Note_off_c, 1, 55, 0
1, 38588, Note_off_c, 1, 48, 0
1, 38588, Note_off_c, 1, 67, 0
1, 38592, Note_on_c, 1, 72, 127
1, 38592, Note_on_c, 1, 40, 127
1, 38592, Note_on_c, 1, 48, 127
1, 38684, Note_off_c, 1, 72, 0
1, 38688, Note_on_c, 1, 79, 127
1, 38780, Note_off_c, 1, 40, 0
1, 38780, Note_off_c, 1, 79, 0
1, 38784, Note_on_c, 1, 77, 127
1, 38784, Note_on_c, 1, 41, 127
1, 38876, Note_off_c, 1, 77, 0
1, 38880, Note_on_c, 1, 76, 127
1, 38972, Note_off_c, 1, 48, 0
1, 38972, Note_off_c, 1, 41, 0
1, 38972, Note_off_c, 1, 76, 0
1, 38976, Note_on_c, 1, 74, 127
1, 38976, Note_on_c, 1, 43, 127
1, 38976, Note_on_c, 1, 47, 127
1, 39068, Note_off_c, 1, 74, 0
1, 39072, Note_on_c, 1, 72, 127
1, 39164, Note_off_c, 1, 43, 0
1, 39164, Note_off_c, 1, 47, 0
1, 39164, Note_off_c, 1, 72, 0
1, 39168, Note_on_c, 1, 72, 127
1, 39168, Note_on_c, 1, 48, 127
1, 39232, Note_off_c, 1, 48, 0
1, 39264, Note_on_c, 1, 60, 127
1, 39356, Note_off_c, 1, 60, 0
1, 39360, Note_on_c, 1, 59, 127
1, 39452, Note_off_c, 1, 59, 0
1, 39456, Note_on_c, 1, 57, 127
1, 39548, Note_off_c, 1, 72, 0
1, 39548, Note_off_c, 1, 57, 0
1, 39552, Note_on_c, 1, 55, 127
1, 39644, Note_off_c, 1, 55, 0
1, 39648, Note_on_c, 1, 53, 127
1, 39740, Note_off_c, 1, 53, 0
1, 39744, Note_on_c, 1, 52, 127
1, 39836, Note_off_c, 1, 52, 0
1, 39840, Note_on_c, 1, 50, 127
1, 39932, Note_off_c, 1, 50, 0
1, 39936, Note_on_c, 1, 48, 127
1, 40000, Note_off_c, 1, 48, 0
1, 40032, Note_on_c, 1, 48, 127
1, 40124, Note_off_c, 1, 48, 0
1, 40128, Note_on_c, 1, 72, 127
1, 40128, Note_on_c, 1, 47, 127
1, 40220, Note_off_c, 1, 47, 0
1, 40224, Note_on_c, 1, 45, 127
1, 40316, Note_off_c, 1, 72, 0
1, 40316, Note_off_c, 1, 45, 0
1, 40320, Note_on_c, 1, 64, 127
1, 40320, Note_on_c, 1, 60, 127
1, 40320, Note_on_c, 1, 43, 127
1, 40412, Note_off_c, 1, 43, 0
1, 40416, Note_on_c, 1, 41, 127
1, 40508, Note_off_c, 1, 64, 0
1, 40508, Note_off_c, 1, 60, 0
1, 40508, Note_off_c, 1, 41, 0
1, 40512, Note_on_c, 1, 65, 127
1, 40512, Note_on_c, 1, 62, 127
1, 40512, Note_on_c, 1, 40, 127
1, 40604, Note_off_c, 1, 40, 0
1, 40608, Note_on_c, 1, 38, 127
1, 40700, Note_off_c, 1, 65, 0
1, 40700, Note_off_c, 1, 62, 0
1, 40700, Note_off_c, 1, 38, 0
1, 40704, Note_on_c, 1, 67, 127
1, 40704, Note_on_c, 1, 64, 127
1, 40704, Note_on_c, 1, 36, 127
1, 40892, Note_off_c, 1, 36, 0
1, 40896, Note_on_c, 1, 60, 127
1, 41084, Note_off_c, 1, 67, 0
1, 41084, Note_off_c, 1, 64, 0
1, 41084, Note_off_c, 1, 60, 0
1, 41088, Note_on_c, 1, 69, 127
1, 41088, Note_on_c, 1, 65, 127
1, 41088, Note_on_c, 1, 57, 127
1, 41276, Note_off_c, 1, 57, 0
1, 41280, Note_on_c, 1, 53, 127
1, 41468, Note_off_c, 1, 69, 0
1, 41468, Note_off_c, 1, 65, 0
1, 41468, Note_off_c, 1, 53, 0
1, 41472, Note_on_c, 1, 67, 127
1, 41472, Note_on_c, 1, 64, 127
1, 41472, Note_on_c, 1, 48, 127
1, 41564, Note_off_c, 1, 67, 0
1, 41568, Note_on_c, 1, 69, 127
1, 41660, Note_off_c, 1, 69, 0
1, 41664, Note_on_c, 1, 70, 127
1, 41664, Note_on_c, 1, 43, 127
1, 41852, Note_off_c, 1, 43, 0
1, 41856, Note_on_c, 1, 40, 127
1, 42044, Note_off_c, 1, 70, 0
1, 42044, Note_off_c, 1, 40, 0
1, 42048, Note_on_c, 1, 36, 127
1, 42236, Note_off_c, 1, 64, 0
1, 42236, Note_off_c, 1, 36, 0
1, 42240, Note_on_c, 1, 41, 127
1, 42336, Note_on_c, 1, 65, 127
1, 42428, Note_off_c, 1, 48, 0
1, 42428, Note_off_c, 1, 41, 0
1, 42428, Note_off_c, 1, 65, 0
1, 42528, Note_on_c, 1, 62, 127
1, 42620, Note_off_c, 1, 62, 0
1, 42624, Note_on_c, 1, 60, 127
1, 42716, Note_off_c, 1, 60, 0
1, 42720, Note_on_c, 1, 58, 127
1, 42812, Note_off_c, 1, 58, 0
1, 42816, Note_on_c, 1, 57, 127
1, 42908, Note_off_c, 1, 57, 0
1, 42912, Note_on_c, 1, 55, 127
1, 43004, Note_off_c, 1, 55, 0
1, 43008, Note_on_c, 1, 53, 127
1, 43072, Note_off_c, 1, 53, 0
1, 43104, Note_on_c, 1, 53, 127
1, 43196, Note_off_c, 1, 53, 0
1, 43200, Note_on_c, 1, 77, 127
1, 43200, Note_on_c, 1, 52, 127
1, 43292, Note_off_c, 1, 52, 0
1, 43296, Note_on_c, 1, 50, 127
1, 43388, Note_off_c, 1, 77, 0
1, 43388, Note_off_c, 1, 50, 0
1, 43392, Note_on_c, 1, 69, 127
1, 43392, Note_on_c, 1, 65, 127
1, 43392, Note_on_c, 1, 48, 127
1, 43484, Note_off_c, 1, 48, 0
1, 43488, Note_on_c, 1, 46, 127
1, 43580, Note_off_c, 1, 69, 0
1, 43580, Note_off_c, 1, 65, 0
1, 43580, Note_off_c, 1, 46, 0
1, 43584, Note_on_c, 1, 70, 127
1, 43584, Note_on_c, 1, 67, 127
1, 43584, Note_on_c, 1, 45, 127
1, 43676, Note_off_c, 1, 45, 0
1, 43680, Note_on_c, 1, 43, 127
1, 43772, Note_off_c, 1, 70, 0
1, 43772, Note_off_c, 1, 67, 0
1, 43772, Note_off_c, 1, 43, 0
1, 43776, Note_on_c, 1, 72, 127
1, 43776, Note_on_c, 1, 69, 127
1, 43776, Note_on_c, 1, 41, 127
1, 43964, Note_off_c, 1, 41, 0
1, 43968, Note_on_c, 1, 65, 127
1, 44156, Note_off_c, 1, 72, 0
1, 44156, Note_off_c, 1, 69, 0
1, 44156, Note_off_c, 1, 65, 0
1, 44160, Note_on_c, 1, 74, 127
1, 44160, Note_on_c, 1, 70, 127
1, 44160, Note_on_c, 1, 62, 127
1, 44348, Note_off_c, 1, 62, 0
1, 44352, Note_on_c, 1, 58, 127
1, 44540, Note_off_c, 1, 74, 0
1, 44540, Note_off_c, 1, 70, 0
1, 44540, Note_off_c, 1, 58, 0
1, 44544, Note_on_c, 1, 72, 127
1, 44544, Note_on_c, 1, 69, 127
1, 44544, Note_on_c, 1, 53, 127
1, 44636, Note_off_c, 1, 72, 0
1, 44640, Note_on_c, 1, 74, 127
1, 44732, Note_off_c, 1, 74, 0
1, 44736, Note_on_c, 1, 75, 127
1, 44736, Note_on_c, 1, 48, 127
1, 44924, Note_off_c, 1, 48, 0
1, 44928, Note_on_c, 1, 45, 127
1, 45116, Note_off_c, 1, 75, 0
1, 45116, Note_off_c, 1, 45, 0
1, 45120, Note_on_c, 1, 41, 127
1, 45308, Note_off_c, 1, 69, 0
1, 45308, Note_off_c, 1, 41, 0
1, 45312, Note_on_c, 1, 46, 127
1, 45408, Note_on_c, 1, 70, 127
1, 45440, Note_off_c, 1, 53, 0
1, 45500, Note_off_c, 1, 46, 0
1, 45500, Note_off_c, 1, 70, 0
1, 45600, Note_on_c, 1, 67, 127
1, 45692, Note_off_c, 1, 67, 0
1, 45696, Note_on_c, 1, 65, 127
1, 45788, Note_off_c, 1, 65, 0
1, 45792, Note_on_c, 1, 63, 127
1, 45884, Note_off_c, 1, 63, 0
1, 45888, Note_on_c, 1, 62, 127
1, 45980, Note_off_c, 1, 62, 0
1, 45984, Note_on_c, 1, 60, 127
1, 46076, Note_off_c, 1, 60, 0
1, 46080, Note_on_c, 1, 58, 127
1, 46176, Note_on_c, 1, 74, 127
1, 46208, Note_off_c, 1, 58, 0
1, 46268, Note_off_c, 1, 74, 0
1, 46272, Note_on_c, 1, 73, 127
1, 46272, Note_on_c, 1, 67, 127
1, 46364, Note_off_c, 1, 73, 0
1, 46368, Note_on_c, 1, 74, 127
1, 46460, Note_off_c, 1, 74, 0
1, 46464, Note_on_c, 1, 82, 127
1, 46556, Note_off_c, 1, 67, 0
1, 46560, Note_on_c, 1, 58, 127
1, 46592, Note_off_c, 1, 82, 0
1, 46652, Note_off_c, 1, 58, 0
1, 46656, Note_on_c, 1, 74, 127
1, 46656, Note_on_c, 1, 57, 127
1, 46748, Note_off_c, 1, 57, 0
1, 46752, Note_on_c, 1, 55, 127
1, 46844, Note_off_c, 1, 55, 0
1, 46912, Note_off_c, 1, 74, 0
1, 46944, Note_on_c, 1, 73, 127
1, 47036, Note_off_c, 1, 73, 0
1, 47040, Note_on_c, 1, 71, 127
1, 47040, Note_on_c, 1, 65, 127
1, 47132, Note_off_c, 1, 71, 0
1, 47136, Note_on_c, 1, 73, 127
1, 47228, Note_off_c, 1, 73, 0
1, 47232, Note_on_c, 1, 81, 127
1, 47324, Note_off_c, 1, 65, 0
1, 47328, Note_on_c, 1, 57, 127
1, 47360, Note_off_c, 1, 81, 0
1, 47392, Note_off_c, 1, 57, 0
1, 47424, Note_on_c, 1, 72, 127
1, 47424, Note_on_c, 1, 55, 127
1, 47488, Note_off_c, 1, 55, 0
1, 47520, Note_on_c, 1, 53, 127
1, 47584, Note_off_c, 1, 53, 0
1, 47680, Note_off_c, 1, 72, 0
1, 47712, Note_on_c, 1, 71, 127
1, 47804, Note_off_c, 1, 71, 0
1, 47808, Note_on_c, 1, 69, 127
1, 47808, Note_on_c, 1, 64, 127
1, 47900, Note_off_c, 1, 69, 0
1, 47904, Note_on_c, 1, 71, 127
1, 47996, Note_off_c, 1, 71, 0
1, 48000, Note_on_c, 1, 79, 127
1, 48092, Note_off_c, 1, 64, 0
1, 48096, Note_on_c, 1, 62, 127
1, 48128, Note_off_c, 1, 79, 0
1, 48188, Note_off_c, 1, 62, 0
1, 48192, Note_on_c, 1, 70, 127
1, 48192, Note_on_c, 1, 61, 127
1, 48284, Note_off_c, 1, 61, 0
1, 48288, Note_on_c, 1, 62, 127
1, 48320, Note_off_c, 1, 70, 0
1, 48380, Note_off_c, 1, 62, 0
1, 48384, Note_on_c, 1, 72, 127
1, 48384, Note_on_c, 1, 55, 127
1, 48444, Note_off_c, 1, 72, 0
1, 48448, Note_off_c, 1, 55, 0
1, 48576, Note_on_c, 1, 69, 127
1, 48672, Note_on_c, 1, 64, 127
1, 48764, Note_off_c, 1, 69, 0
1, 48764, Note_off_c, 1, 64, 0
1, 48768, Note_on_c, 1, 57, 127
1, 48832, Note_off_c, 1, 57, 0
1, 48864, Note_on_c, 1, 55, 127
1, 48928, Note_off_c, 1, 55, 0
1, 48960, Note_on_c, 1, 53, 127
1, 49024, Note_off_c, 1, 53, 0
1, 49056, Note_on_c, 1, 52, 127
1, 49120, Note_off_c, 1, 52, 0
1, 49152, Note_on_c, 1, 53, 127
1, 49248, Note_on_c, 1, 74, 127
1, 49340, Note_off_c, 1, 53, 0
1, 49340, Note_off_c, 1, 74, 0
1, 49344, Note_on_c, 1, 70, 127
1, 49344, Note_on_c, 1, 55, 127
1, 49436, Note_off_c, 1, 70, 0
1, 49440, Note_on_c, 1, 67, 127
1, 49532, Note_off_c, 1, 55, 0
1, 49532, Note_off_c, 1, 67, 0
1, 49536, Note_on_c, 1, 69, 127
1, 49536, Note_on_c, 1, 53, 127
1, 49628, Note_off_c, 1, 69, 0
1, 49632, Note_on_c, 1, 74, 127
1, 49724, Note_off_c, 1, 53, 0
1, 49724, Note_off_c, 1, 74, 0
1, 49728, Note_on_c, 1, 67, 127
1, 49728, Note_on_c, 1, 52, 127
1, 49820, Note_off_c, 1, 67, 0
1, 49824, Note_on_c, 1, 64, 127
1, 49916, Note_off_c, 1, 52, 0
1, 49916, Note_off_c, 1, 64, 0
1, 49920, Note_on_c, 1, 65, 127
1, 49920, Note_on_c, 1, 50, 127
1, 50012, Note_off_c, 1, 65, 0
1, 50016, Note_on_c, 1, 74, 127
1, 50108, Note_off_c, 1, 50, 0
1, 50108, Note_off_c, 1, 74, 0
1, 50112, Note_on_c, 1, 67, 127
1, 50112, Note_on_c, 1, 58, 127
1, 50204, Note_off_c, 1, 67, 0
1, 50208, Note_on_c, 1, 64, 127
1, 50300, Note_off_c, 1, 58, 0
1, 50300, Note_off_c, 1, 64, 0
1, 50304, Note_on_c, 1, 65, 127
1, 50304, Note_on_c, 1, 57, 127
1, 50396, Note_off_c, 1, 65, 0
1, 50400, Note_on_c, 1, 74, 127
1, 50492, Note_off_c, 1, 57, 0
1, 50492, Note_off_c, 1, 74, 0
1, 50496, Note_on_c, 1, 64, 127
1, 50496, Note_on_c, 1, 55, 127
1, 50588, Note_off_c, 1, 64, 0
1, 50592, Note_on_c, 1, 61, 127
1, 50684, Note_off_c, 1, 55, 0
1, 50684, Note_off_c, 1, 61, 0
1, 50688, Note_on_c, 1, 62, 127
1, 50688, Note_on_c, 1, 53, 127
1, 50780, Note_off_c, 1, 62, 0
1, 50784, Note_on_c, 1, 74, 127
1, 50876, Note_off_c, 1, 53, 0
1, 50876, Note_off_c, 1, 74, 0
1, 50880, Note_on_c, 1, 70, 127
1, 50880, Note_on_c, 1, 55, 127
1, 50924, Note_on_c, 1, 69, 127
1, 50972, Note_off_c, 1, 70, 0
1, 50976, Note_on_c, 1, 67, 127
1, 51016, Note_off_c, 1, 69, 0
1, 51068, Note_off_c, 1, 55, 0
1, 51068, Note_off_c, 1, 67, 0
1, 51072, Note_on_c, 1, 69, 127
1, 51072, Note_on_c, 1, 53, 127
1, 51164, Note_off_c, 1, 69, 0
1, 51168, Note_on_c, 1, 74, 127
1, 51260, Note_off_c, 1, 53, 0
1, 51260, Note_off_c, 1, 74, 0
1, 51264, Note_on_c, 1, 67, 127
1, 51264, Note_on_c, 1, 52, 127
1, 51308, Note_on_c, 1, 65, 127
1, 51356, Note_off_c, 1, 67, 0
1, 51360, Note_on_c, 1, 64, 127
1, 51400, Note_off_c, 1, 65, 0
1, 51452, Note_off_c, 1, 52, 0
1, 51452, Note_off_c, 1, 64, 0
1, 51456, Note_on_c, 1, 65, 127
1, 51456, Note_on_c, 1, 50, 127
1, 51548, Note_off_c, 1, 65, 0
1, 51552, Note_on_c, 1, 74, 127
1, 51644, Note_off_c, 1, 50, 0
1, 51644, Note_off_c, 1, 74, 0
1, 51648, Note_on_c, 1, 67, 127
1, 51648, Note_on_c, 1, 58, 127
1, 51692, Note_on_c, 1, 65, 127
1, 51740, Note_off_c, 1, 67, 0
1, 51744, Note_on_c, 1, 64, 127
1, 51784, Note_off_c, 1, 65, 0
1, 51836, Note_off_c, 1, 58, 0
1, 51836, Note_off_c, 1, 64, 0
1, 51840, Note_on_c, 1, 65, 127
1, 51840, Note_on_c, 1, 57, 127
1, 51932, Note_off_c, 1, 65, 0
1, 51936, Note_on_c, 1, 74, 127
1, 52028, Note_off_c, 1, 57, 0
1, 52028, Note_off_c, 1, 74, 0
1, 52032, Note_on_c, 1, 64, 127
1, 52032, Note_on_c, 1, 55, 127
1, 52076, Note_on_c, 1, 62, 127
1, 52124, Note_off_c, 1, 64, 0
1, 52128, Note_on_c, 1, 61, 127
1, 52168, Note_off_c, 1, 62, 0
1, 52220, Note_off_c, 1, 55, 0
1, 52220, Note_off_c, 1, 61, 0
1, 52224, Note_on_c, 1, 62, 127
1, 52224, Note_on_c, 1, 53, 127
1, 52288, Note_off_c, 1, 53, 0
1, 52316, Note_off_c, 1, 62, 0
1, 52320, Note_on_c, 1, 61, 127
1, 52412, Note_off_c, 1, 61, 0
1, 52416, Note_on_c, 1, 81, 127
1, 52416, Note_on_c, 1, 77, 127
1, 52416, Note_on_c, 1, 62, 127
1, 52508, Note_off_c, 1, 62, 0
1, 52512, Note_on_c, 1, 64, 127
1, 52604, Note_off_c, 1, 81, 0
1, 52604, Note_off_c, 1, 77, 0
1, 52604, Note_off_c, 1, 64, 0
1, 52608, Note_on_c, 1, 82, 127
1, 52608, Note_on_c, 1, 79, 127
1, 52608, Note_on_c, 1, 62, 127
1, 52700, Note_off_c, 1, 62, 0
1, 52704, Note_on_c, 1, 61, 127
1, 52796, Note_off_c, 1, 82, 0
1, 52796, Note_off_c, 1, 79, 0
1, 52796, Note_off_c, 1, 61, 0
1, 52800, Note_on_c, 1, 81, 127
1, 52800, Note_on_c, 1, 77, 127
1, 52800, Note_on_c, 1, 62, 127
1, 52864, Note_off_c, 1, 62, 0
1, 52896, Note_on_c, 1, 53, 127
1, 52960, Note_off_c, 1, 53, 0
1, 52988, Note_off_c, 1, 81, 0
1, 52988, Note_off_c, 1, 77, 0
1, 52992, Note_on_c, 1, 64, 127
1, 52992, Note_on_c, 1, 55, 127
1, 53056, Note_off_c, 1, 55, 0
1, 53088, Note_on_c, 1, 61, 127
1, 53120, Note_off_c, 1, 64, 0
1, 53180, Note_off_c, 1, 61, 0
1, 53184, Note_on_c, 1, 79, 127
1, 53184, Note_on_c, 1, 76, 127
1, 53184, Note_on_c, 1, 62, 127
1, 53276, Note_off_c, 1, 62, 0
1, 53280, Note_on_c, 1, 64, 127
1, 53372, Note_off_c, 1, 79, 0
1, 53372, Note_off_c, 1, 76, 0
1, 53372, Note_off_c, 1, 64, 0
1, 53376, Note_on_c, 1, 81, 127
1, 53376, Note_on_c, 1, 77, 127
1, 53376, Note_on_c, 1, 62, 127
1, 53468, Note_off_c, 1, 62, 0
1, 53472, Note_on_c, 1, 61, 127
1, 53564, Note_off_c, 1, 81, 0
1, 53564, Note_off_c, 1, 77, 0
1, 53564, Note_off_c, 1, 61, 0
1, 53568, Note_on_c, 1, 79, 127
1, 53568, Note_on_c, 1, 76, 127
1, 53568, Note_on_c, 1, 62, 127
1, 53632, Note_off_c, 1, 62, 0
1, 53664, Note_on_c, 1, 55, 127
1, 53728, Note_off_c, 1, 55, 0
1, 53756, Note_off_c, 1, 79, 0
1, 53756, Note_off_c, 1, 76, 0
1, 53760, Note_on_c, 1, 65, 127
1, 53760, Note_on_c, 1, 57, 127
1, 53824, Note_off_c, 1, 57, 0
1, 53856, Note_on_c, 1, 61, 127
1, 53888, Note_off_c, 1, 65, 0
1, 53948, Note_off_c, 1, 61, 0
1, 53952, Note_on_c, 1, 77, 127
1, 53952, Note_on_c, 1, 74, 127
1, 53952, Note_on_c, 1, 62, 127
1, 54044, Note_off_c, 1, 62, 0
1, 54048, Note_on_c, 1, 64, 127
1, 54140, Note_off_c, 1, 77, 0
1, 54140, Note_off_c, 1, 74, 0
1, 54140, Note_off_c, 1, 64, 0
1, 54144, Note_on_c, 1, 79, 127
1, 54144, Note_on_c, 1, 76, 127
1, 54144, Note_on_c, 1, 62, 127
1, 54236, Note_off_c, 1, 62, 0
1, 54240, Note_on_c, 1, 61, 127
1, 54332, Note_off_c, 1, 79, 0
1, 54332, Note_off_c, 1, 76, 0
1, 54332, Note_off_c, 1, 61, 0
1, 54336, Note_on_c, 1, 77, 127
1, 54336, Note_on_c, 1, 74, 127
1, 54336, Note_on_c, 1, 62, 127
1, 54400, Note_off_c, 1, 62, 0
1, 54432, Note_on_c, 1, 57, 127
1, 54496, Note_off_c, 1, 57, 0
1, 54524, Note_off_c, 1, 77, 0
1, 54524, Note_off_c, 1, 74, 0
1, 54528, Note_on_c, 1, 67, 127
1, 54528, Note_on_c, 1, 58, 127
1, 54592, Note_off_c, 1, 58, 0
1, 54624, Note_on_c, 1, 61, 127
1, 54656, Note_off_c, 1, 67, 0
1, 54716, Note_off_c, 1, 61, 0
1, 54720, Note_on_c, 1, 77, 127
1, 54720, Note_on_c, 1, 74, 127
1, 54720, Note_on_c, 1, 62, 127
1, 54812, Note_off_c, 1, 62, 0
1, 54816, Note_on_c, 1, 64, 127
1, 54908, Note_off_c, 1, 77, 0
1, 54908, Note_off_c, 1, 74, 0
1, 54908, Note_off_c, 1, 64, 0
1, 54912, Note_on_c, 1, 79, 127
1, 54912, Note_on_c, 1, 76, 127
1, 54912, Note_on_c, 1, 62, 127
1, 55004, Note_off_c, 1, 62, 0
1, 55008, Note_on_c, 1, 61, 127
1, 55100, Note_off_c, 1, 79, 0
1, 55100, Note_off_c, 1, 76, 0
1, 55100, Note_off_c, 1, 61, 0
1, 55104, Note_on_c, 1, 74, 127
1, 55104, Note_on_c, 1, 77, 127
1, 55104, Note_on_c, 1, 62, 127
1, 55168, Note_off_c, 1, 62, 0
1, 55200, Note_on_c, 1, 65, 127
1, 55264, Note_off_c, 1, 65, 0
1, 55292, Note_off_c, 1, 74, 0
1, 55296, Note_on_c, 1, 68, 127
1, 55296, Note_on_c, 1, 59, 127
1, 55388, Note_off_c, 1, 77, 0
1, 55392, Note_on_c, 1, 76, 127
1, 55484, Note_off_c, 1, 76, 0
1, 55552, Note_off_c, 1, 68, 0
1, 55552, Note_off_c, 1, 59, 0
1, 55680, Note_on_c, 1, 64, 127
1, 55680, Note_on_c, 1, 56, 127
1, 55824, Note_on_c, 1, 73, 127
1, 55916, Note_off_c, 1, 73, 0
1, 55936, Note_off_c, 1, 64, 0
1, 55936, Note_off_c, 1, 56, 0
1, 56064, Note_on_c, 1, 52, 127
1, 56208, Note_on_c, 1, 71, 127
1, 56272, Note_off_c, 1, 71, 0
1, 56320, Note_off_c, 1, 52, 0
1, 56448, Note_on_c, 1, 57, 127
1, 56448, Note_on_c, 1, 45, 127
1, 56704, Note_off_c, 1, 57, 0
1, 56704, Note_off_c, 1, 45, 0
1, 56736, Note_on_c, 1, 69, 127
1, 56800, Note_off_c, 1, 69, 0
1, 56832, Note_on_c, 1, 67, 127
1, 56896, Note_off_c, 1, 67, 0
1, 56928, Note_on_c, 1, 76, 127
1, 57020, Note_off_c, 1, 76, 0
1, 57024, Note_on_c, 1, 73, 127
1, 57024, Note_on_c, 1, 57, 127
1, 57116, Note_off_c, 1, 73, 0
1, 57116, Note_off_c, 1, 57, 0
1, 57120, Note_on_c, 1, 69, 127
1, 57120, Note_on_c, 1, 59, 127
1, 57184, Note_off_c, 1, 69, 0
1, 57212, Note_off_c, 1, 59, 0
1, 57216, Note_on_c, 1, 67, 127
1, 57216, Note_on_c, 1, 61, 127
1, 57280, Note_off_c, 1, 67, 0
1, 57312, Note_on_c, 1, 76, 127
1, 57404, Note_off_c, 1, 61, 0
1, 57404, Note_off_c, 1, 76, 0
1, 57408, Note_on_c, 1, 73, 127
1, 57408, Note_on_c, 1, 64, 127
1, 57500, Note_off_c, 1, 73, 0
1, 57504, Note_on_c, 1, 69, 127
1, 57568, Note_off_c, 1, 69, 0
1, 57596, Note_off_c, 1, 64, 0
1, 57600, Note_on_c, 1, 67, 127
1, 57600, Note_on_c, 1, 61, 127
1, 57664, Note_off_c, 1, 67, 0
1, 57696, Note_on_c, 1, 76, 127
1, 57788, Note_off_c, 1, 61, 0
1, 57788, Note_off_c, 1, 76, 0
1, 57792, Note_on_c, 1, 73, 127
1, 57792, Note_on_c, 1, 57, 127
1, 57884, Note_off_c, 1, 73, 0
1, 57888, Note_on_c, 1, 69, 127
1, 57952, Note_off_c, 1, 69, 0
1, 57980, Note_off_c, 1, 57, 0
1, 57984, Note_on_c, 1, 67, 127
1, 57984, Note_on_c, 1, 45, 127
1, 58048, Note_off_c, 1, 67, 0
1, 58080, Note_on_c, 1, 76, 127
1, 58172, Note_off_c, 1, 76, 0
1, 58176, Note_on_c, 1, 73, 127
1, 58268, Note_off_c, 1, 73, 0
1, 58272, Note_on_c, 1, 69, 127
1, 58336, Note_off_c, 1, 69, 0
1, 58364, Note_off_c, 1, 45, 0
1, 58368, Note_on_c, 1, 65, 127
1, 58432, Note_off_c, 1, 65, 0
1, 58464, Note_on_c, 1, 77, 127
1, 58464, Note_on_c, 1, 57, 127
1, 58556, Note_off_c, 1, 77, 0
1, 58556, Note_off_c, 1, 57, 0
1, 58560, Note_on_c, 1, 74, 127
1, 58560, Note_on_c, 1, 59, 127
1, 58652, Note_off_c, 1, 74, 0
1, 58652, Note_off_c, 1, 59, 0
1, 58656, Note_on_c, 1, 70, 127
1, 58656, Note_on_c, 1, 61, 127
1, 58720, Note_off_c, 1, 70, 0
1, 58748, Note_off_c, 1, 61, 0
1, 58752, Note_on_c, 1, 69, 127
1, 58752, Note_on_c, 1, 62, 127
1, 58816, Note_off_c, 1, 69, 0
1, 58848, Note_on_c, 1, 77, 127
1, 58940, Note_off_c, 1, 62, 0
1, 58940, Note_off_c, 1, 77, 0
1, 58944, Note_on_c, 1, 74, 127
1, 58944, Note_on_c, 1, 65, 127
1, 59036, Note_off_c, 1, 74, 0
1, 59040, Note_on_c, 1, 70, 127
1, 59104, Note_off_c, 1, 70, 0
1, 59132, Note_off_c, 1, 65, 0
1, 59136, Note_on_c, 1, 69, 127
1, 59136, Note_on_c, 1, 62, 127
1, 59200, Note_off_c, 1, 69, 0
1, 59232, Note_on_c, 1, 77, 127
1, 59324, Note_off_c, 1, 62, 0
1, 59324, Note_off_c, 1, 77, 0
1, 59328, Note_on_c, 1, 74, 127
1, 59328, Note_on_c, 1, 57, 127
1, 59420, Note_off_c, 1, 74, 0
1, 59424, Note_on_c, 1, 70, 127
1, 59488, Note_off_c, 1, 70, 0
1, 59516, Note_off_c, 1, 57, 0
1, 59520, Note_on_c, 1, 69, 127
1, 59520, Note_on_c, 1, 45, 127
1, 59584, Note_off_c, 1, 69, 0
1, 59616, Note_on_c, 1, 77, 127
1, 59708, Note_off_c, 1, 77, 0
1, 59712, Note_on_c, 1, 74, 127
1, 59804, Note_off_c, 1, 74, 0
1, 59808, Note_on_c, 1, 72, 127
1, 59872, Note_off_c, 1, 72, 0
1, 59900, Note_off_c, 1, 45, 0
1, 59904, Note_on_c, 1, 71, 127
1, 59968, Note_off_c, 1, 71, 0
1, 60000, Note_on_c, 1, 80, 127
1, 60092, Note_off_c, 1, 80, 0
1, 60096, Note_on_c, 1, 77, 127
1, 60096, Note_on_c, 1, 59, 127
1, 60188, Note_off_c, 1, 77, 0
1, 60188, Note_off_c, 1, 59, 0
1, 60192, Note_on_c, 1, 74, 127
1, 60192, Note_on_c, 1, 61, 127
1, 60256, Note_off_c, 1, 74, 0
1, 60284, Note_off_c, 1, 61, 0
1, 60288, Note_on_c, 1, 71, 127
1, 60288, Note_on_c, 1, 62, 127
1, 60352, Note_off_c, 1, 71, 0
1, 60384, Note_on_c, 1, 80, 127
1, 60476, Note_off_c, 1, 62, 0
1, 60476, Note_off_c, 1, 80, 0
1, 60480, Note_on_c, 1, 77, 127
1, 60480, Note_on_c, 1, 59, 127
1, 60572, Note_off_c, 1, 77, 0
1, 60572, Note_off_c, 1, 59, 0
1, 60576, Note_on_c, 1, 74, 127
1, 60576, Note_on_c, 1, 61, 127
1, 60640, Note_off_c, 1, 74, 0
1, 60668, Note_off_c, 1, 61, 0
1, 60672, Note_on_c, 1, 71, 127
1, 60672, Note_on_c, 1, 62, 127
1, 60736, Note_off_c, 1, 71, 0
1, 60768, Note_on_c, 1, 80, 127
1, 60860, Note_off_c, 1, 62, 0
1, 60860, Note_off_c, 1, 80, 0
1, 60864, Note_on_c, 1, 77, 127
1, 60864, Note_on_c, 1, 59, 127
1, 60956, Note_off_c, 1, 77, 0
1, 60960, Note_on_c, 1, 74, 127
1, 61024, Note_off_c, 1, 74, 0
1, 61052, Note_off_c, 1, 59, 0
1, 61056, Note_on_c, 1, 71, 127
1, 61056, Note_on_c, 1, 52, 127
1, 61120, Note_off_c, 1, 71, 0
1, 61152, Note_on_c, 1, 80, 127
1, 61244, Note_off_c, 1, 52, 0
1, 61244, Note_off_c, 1, 80, 0
1, 61248, Note_on_c, 1, 77, 127
1, 61248, Note_on_c, 1, 56, 127
1, 61340, Note_off_c, 1, 77, 0
1, 61344, Note_on_c, 1, 74, 127
1, 61408, Note_off_c, 1, 74, 0
1, 61436, Note_off_c, 1, 56, 0
1, 61440, Note_on_c, 1, 73, 127
1, 61440, Note_on_c, 1, 57, 127
1, 61532, Note_off_c, 1, 73, 0
1, 61536, Note_on_c, 1, 81, 127
1, 61568, Note_off_c, 1, 57, 0
1, 61628, Note_off_c, 1, 81, 0
1, 61632, Note_on_c, 1, 76, 127
1, 61632, Note_on_c, 1, 45, 127
1, 61724, Note_off_c, 1, 76, 0
1, 61724, Note_off_c, 1, 45, 0
1, 61728, Note_on_c, 1, 73, 127
1, 61728, Note_on_c, 1, 47, 127
1, 61820, Note_off_c, 1, 73, 0
1, 61820, Note_off_c, 1, 47, 0
1, 61824, Note_on_c, 1, 69, 127
1, 61824, Note_on_c, 1, 49, 127
1, 61888, Note_off_c, 1, 69, 0
1, 61920, Note_on_c, 1, 73, 127
1, 61984, Note_off_c, 1, 73, 0
1, 62012, Note_off_c, 1, 49, 0
1, 62016, Note_on_c, 1, 71, 127
1, 62016, Note_on_c, 1, 52, 127
1, 62080, Note_off_c, 1, 71, 0
1, 62112, Note_on_c, 1, 74, 127
1, 62176, Note_off_c, 1, 74, 0
1, 62204, Note_off_c, 1, 52, 0
1, 62208, Note_on_c, 1, 73, 127
1, 62208, Note_on_c, 1, 57, 127
1, 62300, Note_off_c, 1, 73, 0
1, 62304, Note_on_c, 1, 76, 127
1, 62336, Note_off_c, 1, 57, 0
1, 62396, Note_off_c, 1, 76, 0
1, 62400, Note_on_c, 1, 73, 127
1, 62400, Note_on_c, 1, 45, 127
1, 62492, Note_off_c, 1, 73, 0
1, 62492, Note_off_c, 1, 45, 0
1, 62496, Note_on_c, 1, 69, 127
1, 62496, Note_on_c, 1, 47, 127
1, 62588, Note_off_c, 1, 69, 0
1, 62588, Note_off_c, 1, 47, 0
1, 62592, Note_on_c, 1, 64, 127
1, 62592, Note_on_c, 1, 49, 127
1, 62656, Note_off_c, 1, 64, 0
1, 62688, Note_on_c, 1, 67, 127
1, 62752, Note_off_c, 1, 67, 0
1, 62780, Note_off_c, 1, 49, 0
1, 62784, Note_on_c, 1, 65, 127
1, 62784, Note_on_c, 1, 50, 127
1, 62848, Note_off_c, 1, 65, 0
1, 62880, Note_on_c, 1, 69, 127
1, 62944, Note_off_c, 1, 69, 0
1, 62972, Note_off_c, 1, 50, 0
1, 62976, Note_on_c, 1, 67, 127
1, 62976, Note_on_c, 1, 52, 127
1, 63068, Note_off_c, 1, 67, 0
1, 63072, Note_on_c, 1, 70, 127
1, 63104, Note_off_c, 1, 52, 0
1, 63164, Note_off_c, 1, 70, 0
1, 63168, Note_on_c, 1, 67, 127
1, 63168, Note_on_c, 1, 45, 127
1, 63260, Note_off_c, 1, 67, 0
1, 63260, Note_off_c, 1, 45, 0
1, 63264, Note_on_c, 1, 64, 127
1, 63264, Note_on_c, 1, 49, 127
1, 63356, Note_off_c, 1, 64, 0
1, 63356, Note_off_c, 1, 49, 0
1, 63360, Note_on_c, 1, 61, 127
1, 63360, Note_on_c, 1, 52, 127
1, 63424, Note_off_c, 1, 61, 0
1, 63456, Note_on_c, 1, 64, 127
1, 63520, Note_off_c, 1, 64, 0
1, 63548, Note_off_c, 1, 52, 0
1, 63552, Note_on_c, 1, 62, 127
1, 63552, Note_on_c, 1, 53, 127
1, 63616, Note_off_c, 1, 62, 0
1, 63648, Note_on_c, 1, 65, 127
1, 63712, Note_off_c, 1, 65, 0
1, 63740, Note_off_c, 1, 53, 0
1, 63744, Note_on_c, 1, 64, 127
1, 63744, Note_on_c, 1, 55, 127
1, 63836, Note_off_c, 1, 64, 0
1, 63840, Note_on_c, 1, 67, 127
1, 63932, Note_off_c, 1, 55, 0
1, 63932, Note_off_c, 1, 67, 0
1, 63936, Note_on_c, 1, 64, 127
1, 63936, Note_on_c, 1, 45, 127
1, 64028, Note_off_c, 1, 64, 0
1, 64028, Note_off_c, 1, 45, 0
1, 64032, Note_on_c, 1, 61, 127
1, 64032, Note_on_c, 1, 47, 127
1, 64124, Note_off_c, 1, 61, 0
1, 64124, Note_off_c, 1, 47, 0
1, 64128, Note_on_c, 1, 57, 127
1, 64128, Note_on_c, 1, 49, 127
1, 64220, Note_off_c, 1, 57, 0
1, 64224, Note_on_c, 1, 67, 127
1, 64316, Note_off_c, 1, 49, 0
1, 64316, Note_off_c, 1, 67, 0
1, 64320, Note_on_c, 1, 65, 127
1, 64320, Note_on_c, 1, 45, 127
1, 64412, Note_off_c, 1, 65, 0
1, 64416, Note_on_c, 1, 64, 127
1, 64508, Note_off_c, 1, 45, 0
1, 64508, Note_off_c, 1, 64, 0
1, 64512, Note_on_c, 1, 65, 127
1, 64512, Note_on_c, 1, 50, 127
1, 64604, Note_off_c, 1, 65, 0
1, 64604, Note_off_c, 1, 50, 0
1, 64608, Note_on_c, 1, 62, 127
1, 64608, Note_on_c, 1, 53, 127
1, 64700, Note_off_c, 1, 62, 0
1, 64700, Note_off_c, 1, 53, 0
1, 64704, Note_on_c, 1, 64, 127
1, 64704, Note_on_c, 1, 52, 127
1, 64796, Note_off_c, 1, 64, 0
1, 64796, Note_off_c, 1, 52, 0
1, 64800, Note_on_c, 1, 65, 127
1, 64800, Note_on_c, 1, 50, 127
1, 64892, Note_off_c, 1, 65, 0
1, 64892, Note_off_c, 1, 50, 0
1, 64896, Note_on_c, 1, 67, 127
1, 64896, Note_on_c, 1, 49, 127
1, 64988, Note_off_c, 1, 67, 0
1, 64988, Note_off_c, 1, 49, 0
1, 64992, Note_on_c, 1, 69, 127
1, 64992, Note_on_c, 1, 47, 127
1, 65084, Note_off_c, 1, 69, 0
1, 65084, Note_off_c, 1, 47, 0
1, 65088, Note_on_c, 1, 71, 127
1, 65088, Note_on_c, 1, 45, 127
1, 65180, Note_off_c, 1, 71, 0
1, 65180, Note_off_c, 1, 45, 0
1, 65184, Note_on_c, 1, 73, 127
1, 65184, Note_on_c, 1, 43, 127
1, 65276, Note_off_c, 1, 73, 0
1, 65276, Note_off_c, 1, 43, 0
1, 65280, Note_on_c, 1, 74, 127
1, 65280, Note_on_c, 1, 41, 127
1, 65372, Note_off_c, 1, 74, 0
1, 65372, Note_off_c, 1, 41, 0
1, 65376, Note_on_c, 1, 73, 127
1, 65376, Note_on_c, 1, 45, 127
1, 65468, Note_off_c, 1, 73, 0
1, 65468, Note_off_c, 1, 45, 0
1, 65472, Note_on_c, 1, 71, 127
1, 65472, Note_on_c, 1, 47, 127
1, 65564, Note_off_c, 1, 71, 0
1, 65564, Note_off_c, 1, 47, 0
1, 65568, Note_on_c, 1, 69, 127
1, 65568, Note_on_c, 1, 49, 127
1, 65660, Note_off_c, 1, 69, 0
1, 65660, Note_off_c, 1, 49, 0
1, 65664, Note_on_c, 1, 81, 127
1, 65664, Note_on_c, 1, 50, 127
1, 65756, Note_off_c, 1, 50, 0
1, 65760, Note_on_c, 1, 52, 127
1, 65792, Note_off_c, 1, 81, 0
1, 65852, Note_off_c, 1, 52, 0
1, 65856, Note_on_c, 1, 74, 127
1, 65856, Note_on_c, 1, 69, 127
1, 65856, Note_on_c, 1, 53, 127
1, 65948, Note_off_c, 1, 53, 0
1, 65952, Note_on_c, 1, 55, 127
1, 65984, Note_off_c, 1, 74, 0
1, 65984, Note_off_c, 1, 69, 0
1, 66044, Note_off_c, 1, 55, 0
1, 66048, Note_on_c, 1, 77, 127
1, 66048, Note_on_c, 1, 74, 127
1, 66048, Note_on_c, 1, 69, 127
1, 66048, Note_on_c, 1, 57, 127
1, 66428, Note_off_c, 1, 77, 0
1, 66428, Note_off_c, 1, 74, 0
1, 66428, Note_off_c, 1, 69, 0
1, 66428, Note_off_c, 1, 57, 0
1, 66432, Note_on_c, 1, 67, 127
1, 66432, Note_on_c, 1, 73, 127
1, 66432, Note_on_c, 1, 76, 127
1, 66432, Note_on_c, 1, 45, 127
1, 66812, Note_off_c, 1, 67, 0
1, 66812, Note_off_c, 1, 45, 0
1, 66816, Note_on_c, 1, 65, 127
1, 66816, Note_on_c, 1, 46, 127
1, 66880, Note_off_c, 1, 73, 0
1, 66880, Note_off_c, 1, 76, 0
1, 66912, Note_on_c, 1, 74, 127
1, 67004, Note_off_c, 1, 74, 0
1, 67008, Note_on_c, 1, 68, 127
1, 67196, Note_off_c, 1, 65, 0
1, 67196, Note_off_c, 1, 46, 0
1, 67292, Note_off_c, 1, 68, 0
1, 67296, Note_on_c, 1, 70, 127
1, 67388, Note_off_c, 1, 70, 0
1, 67392, Note_on_c, 1, 69, 127
1, 67392, Note_on_c, 1, 49, 127
1, 67484, Note_off_c, 1, 69, 0
1, 67488, Note_on_c, 1, 67, 127
1, 67580, Note_off_c, 1, 49, 0
1, 67580, Note_off_c, 1, 67, 0
1, 67584, Note_on_c, 1, 65, 127
1, 67584, Note_on_c, 1, 50, 127
1, 67680, Note_on_c, 1, 69, 127
1, 67772, Note_off_c, 1, 50, 0
1, 67772, Note_off_c, 1, 69, 0
1, 67776, Note_on_c, 1, 74, 127
1, 67776, Note_on_c, 1, 41, 127
1, 67868, Note_off_c, 1, 65, 0
1, 67964, Note_off_c, 1, 41, 0
1, 67968, Note_on_c, 1, 64, 127
1, 67968, Note_on_c, 1, 43, 127
1, 68156, Note_off_c, 1, 74, 0
1, 68156, Note_off_c, 1, 43, 0
1, 68160, Note_on_c, 1, 73, 127
1, 68160, Note_on_c, 1, 67, 127
1, 68160, Note_on_c, 1, 45, 127
1, 68348, Note_off_c, 1, 64, 0
1, 68348, Note_off_c, 1, 73, 0
1, 68348, Note_off_c, 1, 67, 0
1, 68348, Note_off_c, 1, 45, 0
1, 68352, Note_on_c, 1, 74, 127
1, 68352, Note_on_c, 1, 69, 127
1, 68352, Note_on_c, 1, 65, 127
1, 68352, Note_on_c, 1, 62, 127
1, 68352, Note_on_c, 1, 38, 127
1, 68480, Note_off_c, 1, 38, 0
1, 68544, Note_on_c, 1, 50, 127
1, 68608, Note_off_c, 1, 74, 0
1, 68608, Note_off_c, 1, 69, 0
1, 68608, Note_off_c, 1, 65, 0
1, 68608, Note_off_c, 1, 62, 0
1, 68636, Note_off_c, 1, 50, 0
1, 68640, Note_on_c, 1, 52, 127
1, 68732, Note_off_c, 1, 52, 0
1, 68736, Note_on_c, 1, 53, 127
1, 68828, Note_off_c, 1, 53, 0
1, 68832, Note_on_c, 1, 55, 127
1, 68924, Note_off_c, 1, 55, 0
1, 68928, Note_on_c, 1, 69, 127
1, 68928, Note_on_c, 1, 57, 127
1, 69020, Note_off_c, 1, 57, 0
1, 69024, Note_on_c, 1, 59, 127
1, 69056, Note_off_c, 1, 69, 0
1, 69116, Note_off_c, 1, 59, 0
1, 69120, Note_on_c, 1, 70, 127
1, 69120, Note_on_c, 1, 61, 127
1, 69120, Note_on_c, 1, 64, 127
1, 69180, Note_off_c, 1, 70, 0
1, 69248, Note_off_c, 1, 61, 0
1, 69248, Note_off_c, 1, 64, 0
1, 69264, Note_on_c, 1, 68, 127
1, 69324, Note_off_c, 1, 68, 0
1, 69476, Note_on_c, 1, 69, 127
1, 69504, Note_on_c, 1, 70, 127
1, 69504, Note_on_c, 1, 65, 127
1, 69504, Note_on_c, 1, 62, 127
1, 69512, Note_off_c, 1, 69, 0
1, 69564, Note_off_c, 1, 70, 0
1, 69632, Note_off_c, 1, 65, 0
1, 69632, Note_off_c, 1, 62, 0
1, 69648, Note_on_c, 1, 68, 127
1, 69696, Note_on_c, 1, 57, 127
1, 69708, Note_off_c, 1, 68, 0
1, 69824, Note_off_c, 1, 57, 0
1, 69888, Note_on_c, 1, 64, 127
1, 69888, Note_on_c, 1, 61, 127
1, 69984, Note_on_c, 1, 71, 127
1, 70016, Note_off_c, 1, 64, 0
1, 70016, Note_off_c, 1, 61, 0
1, 70076, Note_off_c, 1, 71, 0
1, 70080, Note_on_c, 1, 73, 127
1, 70080, Note_on_c, 1, 57, 127
1, 70172, Note_off_c, 1, 73, 0
1, 70172, Note_off_c, 1, 57, 0
1, 70176, Note_on_c, 1, 74, 127
1, 70176, Note_on_c, 1, 59, 127
1, 70268, Note_off_c, 1, 74, 0
1, 70268, Note_off_c, 1, 59, 0
1, 70272, Note_on_c, 1, 76, 127
1, 70272, Note_on_c, 1, 61, 127
1, 70364, Note_off_c, 1, 61, 0
1, 70368, Note_on_c, 1, 62, 127
1, 70400, Note_off_c, 1, 76, 0
1, 70460, Note_off_c, 1, 62, 0
1, 70464, Note_on_c, 1, 69, 127
1, 70464, Note_on_c, 1, 64, 127
1, 70556, Note_off_c, 1, 64, 0
1, 70560, Note_on_c, 1, 61, 127
1, 70592, Note_off_c, 1, 69, 0
1, 70652, Note_off_c, 1, 61, 0
1, 70656, Note_on_c, 1, 70, 127
1, 70656, Note_on_c, 1, 65, 127
1, 70656, Note_on_c, 1, 62, 127
1, 70716, Note_off_c, 1, 70, 0
1, 70784, Note_off_c, 1, 65, 0
1, 70784, Note_off_c, 1, 62, 0
1, 70800, Note_on_c, 1, 68, 127
1, 70848, Note_on_c, 1, 57, 127
1, 70860, Note_off_c, 1, 68, 0
1, 70976, Note_off_c, 1, 57, 0
1, 71012, Note_on_c, 1, 69, 127
1, 71040, Note_on_c, 1, 70, 127
1, 71040, Note_on_c, 1, 64, 127
1, 71040, Note_on_c, 1, 61, 127
1, 71048, Note_off_c, 1, 69, 0
1, 71100, Note_off_c, 1, 70, 0
1, 71168, Note_off_c, 1, 64, 0
1, 71168, Note_off_c, 1, 61, 0
1, 71184, Note_on_c, 1, 68, 127
1, 71232, Note_on_c, 1, 57, 127
1, 71244, Note_off_c, 1, 68, 0
1, 71360, Note_off_c, 1, 57, 0
1, 71424, Note_on_c, 1, 65, 127
1, 71424, Note_on_c, 1, 62, 127
1, 71516, Note_off_c, 1, 65, 0
1, 71520, Note_on_c, 1, 73, 127
1, 71520, Note_on_c, 1, 67, 127
1, 71612, Note_off_c, 1, 62, 0
1, 71612, Note_off_c, 1, 73, 0
1, 71612, Note_off_c, 1, 67, 0
1, 71616, Note_on_c, 1, 74, 127
1, 71616, Note_on_c, 1, 65, 127
1, 71708, Note_off_c, 1, 74, 0
1, 71708, Note_off_c, 1, 65, 0
1, 71712, Note_on_c, 1, 76, 127
1, 71712, Note_on_c, 1, 64, 127
1, 71804, Note_off_c, 1, 76, 0
1, 71804, Note_off_c, 1, 64, 0
1, 71808, Note_on_c, 1, 77, 127
1, 71808, Note_on_c, 1, 62, 127
1, 71900, Note_off_c, 1, 62, 0
1, 71904, Note_on_c, 1, 64, 127
1, 71936, Note_off_c, 1, 77, 0
1, 71996, Note_off_c, 1, 64, 0
1, 72000, Note_on_c, 1, 69, 127
1, 72000, Note_on_c, 1, 65, 127
1, 72092, Note_off_c, 1, 65, 0
1, 72096, Note_on_c, 1, 62, 127
1, 72128, Note_off_c, 1, 69, 0
1, 72188, Note_off_c, 1, 62, 0
1, 72192, Note_on_c, 1, 70, 127
1, 72192, Note_on_c, 1, 67, 127
1, 72192, Note_on_c, 1, 64, 127
1, 72252, Note_off_c, 1, 70, 0
1, 72320, Note_off_c, 1, 67, 0
1, 72320, Note_off_c, 1, 64, 0
1, 72336, Note_on_c, 1, 68, 127
1, 72384, Note_on_c, 1, 57, 127
1, 72396, Note_off_c, 1, 68, 0
1, 72512, Note_off_c, 1, 57, 0
1, 72548, Note_on_c, 1, 69, 127
1, 72576, Note_on_c, 1, 70, 127
1, 72576, Note_on_c, 1, 65, 127
1, 72576, Note_on_c, 1, 62, 127
1, 72584, Note_off_c, 1, 69, 0
1, 72636, Note_off_c, 1, 70, 0
1, 72704, Note_off_c, 1, 65, 0
1, 72704, Note_off_c, 1, 62, 0
1, 72720, Note_on_c, 1, 68, 127
1, 72768, Note_on_c, 1, 57, 127
1, 72780, Note_off_c, 1, 68, 0
1, 72896, Note_off_c, 1, 57, 0
1, 72960, Note_on_c, 1, 61, 127
1, 72960, Note_on_c, 1, 64, 127
1, 73052, Note_off_c, 1, 61, 0
1, 73052, Note_off_c, 1, 64, 0
1, 73056, Note_on_c, 1, 73, 127
1, 73056, Note_on_c, 1, 62, 127
1, 73148, Note_off_c, 1, 73, 0
1, 73148, Note_off_c, 1, 62, 0
1, 73152, Note_on_c, 1, 76, 127
1, 73152, Note_on_c, 1, 61, 127
1, 73244, Note_off_c, 1, 76, 0
1, 73244, Note_off_c, 1, 61, 0
1, 73248, Note_on_c, 1, 77, 127
1, 73248, Note_on_c, 1, 59, 127
1, 73340, Note_off_c, 1, 77, 0
1, 73340, Note_off_c, 1, 59, 0
1, 73344, Note_on_c, 1, 79, 127
1, 73344, Note_on_c, 1, 57, 127
1, 73436, Note_off_c, 1, 57, 0
1, 73440, Note_on_c, 1, 55, 127
1, 73532, Note_off_c, 1, 79, 0
1, 73532, Note_off_c, 1, 55, 0
1, 73536, Note_on_c, 1, 69, 127
1, 73536, Note_on_c, 1, 53, 127
1, 73628, Note_off_c, 1, 53, 0
1, 73632, Note_on_c, 1, 52, 127
1, 73724, Note_off_c, 1, 52, 0
1, 73728, Note_on_c, 1, 50, 127
1, 73820, Note_off_c, 1, 69, 0
1, 73820, Note_off_c, 1, 50, 0
1, 73824, Note_on_c, 1, 79, 127
1, 73824, Note_on_c, 1, 62, 127
1, 73916, Note_off_c, 1, 79, 0
1, 73916, Note_off_c, 1, 62, 0
1, 73920, Note_on_c, 1, 77, 127
1, 73920, Note_on_c, 1, 64, 127
1, 74012, Note_off_c, 1, 77, 0
1, 74012, Note_off_c, 1, 64, 0
1, 74016, Note_on_c, 1, 76, 127
1, 74016, Note_on_c, 1, 65, 127
1, 74064, Note_on_c, 1, 74, 127
1, 74108, Note_off_c, 1, 76, 0
1, 74108, Note_off_c, 1, 65, 0
1, 74112, Note_on_c, 1, 82, 127
1, 74112, Note_on_c, 1, 55, 127
1, 74140, Note_off_c, 1, 74, 0
1, 74204, Note_off_c, 1, 55, 0
1, 74240, Note_off_c, 1, 82, 0
1, 74304, Note_on_c, 1, 67, 127
1, 74304, Note_on_c, 1, 64, 127
1, 74396, Note_off_c, 1, 64, 0
1, 74400, Note_on_c, 1, 62, 127
1, 74492, Note_off_c, 1, 62, 0
1, 74496, Note_on_c, 1, 48, 127
1, 74588, Note_off_c, 1, 67, 0
1, 74588, Note_off_c, 1, 48, 0
1, 74592, Note_on_c, 1, 77, 127
1, 74592, Note_on_c, 1, 60, 127
1, 74684, Note_off_c, 1, 77, 0
1, 74684, Note_off_c, 1, 60, 0
1, 74688, Note_on_c, 1, 76, 127
1, 74688, Note_on_c, 1, 62, 127
1, 74780, Note_off_c, 1, 76, 0
1, 74780, Note_off_c, 1, 62, 0
1, 74784, Note_on_c, 1, 74, 127
1, 74784, Note_on_c, 1, 64, 127
1, 74832, Note_on_c, 1, 72, 127
1, 74876, Note_off_c, 1, 74, 0
1, 74876, Note_off_c, 1, 64, 0
1, 74880, Note_on_c, 1, 81, 127
1, 74880, Note_on_c, 1, 53, 127
1, 74912, Note_off_c, 1, 72, 0
1, 74972, Note_off_c, 1, 53, 0
1, 74976, Note_on_c, 1, 63, 127
1, 75008, Note_off_c, 1, 81, 0
1, 75068, Note_off_c, 1, 63, 0
1, 75072, Note_on_c, 1, 65, 127
1, 75072, Note_on_c, 1, 62, 127
1, 75164, Note_off_c, 1, 62, 0
1, 75168, Note_on_c, 1, 60, 127
1, 75260, Note_off_c, 1, 60, 0
1, 75264, Note_on_c, 1, 46, 127
1, 75356, Note_off_c, 1, 65, 0
1, 75356, Note_off_c, 1, 46, 0
1, 75360, Note_on_c, 1, 75, 127
1, 75360, Note_on_c, 1, 58, 127
1, 75452, Note_off_c, 1, 75, 0
1, 75452, Note_off_c, 1, 58, 0
1, 75456, Note_on_c, 1, 74, 127
1, 75456, Note_on_c, 1, 60, 127
1, 75548, Note_off_c, 1, 74, 0
1, 75548, Note_off_c, 1, 60, 0
1, 75552, Note_on_c, 1, 72, 127
1, 75552, Note_on_c, 1, 62, 127
1, 75600, Note_on_c, 1, 70, 127
1, 75644, Note_off_c, 1, 72, 0
1, 75644, Note_off_c, 1, 62, 0
1, 75648, Note_on_c, 1, 79, 127
1, 75648, Note_on_c, 1, 51, 127
1, 75680, Note_off_c, 1, 70, 0
1, 75712, Note_off_c, 1, 79, 0
1, 75744, Note_on_c, 1, 74, 127
1, 75836, Note_off_c, 1, 51, 0
1, 75836, Note_off_c, 1, 74, 0
1, 75840, Note_on_c, 1, 72, 127
1, 75840, Note_on_c, 1, 57, 127
1, 75932, Note_off_c, 1, 72, 0
1, 75936, Note_on_c, 1, 70, 127
1, 75984, Note_on_c, 1, 69, 127
1, 76028, Note_off_c, 1, 57, 0
1, 76028, Note_off_c, 1, 70, 0
1, 76032, Note_on_c, 1, 77, 127
1, 76032, Note_on_c, 1, 50, 127
1, 76064, Note_off_c, 1, 69, 0
1, 76124, Note_off_c, 1, 77, 0
1, 76220, Note_off_c, 1, 50, 0
1, 76224, Note_on_c, 1, 70, 127
1, 76224, Note_on_c, 1, 55, 127
1, 76316, Note_off_c, 1, 70, 0
1, 76320, Note_on_c, 1, 69, 127
1, 76368, Note_on_c, 1, 67, 127
1, 76412, Note_off_c, 1, 55, 0
1, 76412, Note_off_c, 1, 69, 0
1, 76416, Note_on_c, 1, 75, 127
1, 76416, Note_on_c, 1, 48, 127
1, 76448, Note_off_c, 1, 67, 0
1, 76508, Note_off_c, 1, 75, 0
1, 76604, Note_off_c, 1, 48, 0
1, 76608, Note_on_c, 1, 69, 127
1, 76608, Note_on_c, 1, 53, 127
1, 76700, Note_off_c, 1, 69, 0
1, 76704, Note_on_c, 1, 67, 127
1, 76752, Note_on_c, 1, 65, 127
1, 76796, Note_off_c, 1, 53, 0
1, 76796, Note_off_c, 1, 67, 0
1, 76800, Note_on_c, 1, 74, 127
1, 76800, Note_on_c, 1, 46, 127
1, 76832, Note_off_c, 1, 65, 0
1, 76892, Note_off_c, 1, 74, 0
1, 76988, Note_off_c, 1, 46, 0
1, 76992, Note_on_c, 1, 70, 127
1, 76992, Note_on_c, 1, 50, 127
1, 77084, Note_off_c, 1, 70, 0
1, 77088, Note_on_c, 1, 74, 127
1, 77180, Note_off_c, 1, 50, 0
1, 77180, Note_off_c, 1, 74, 0
1, 77184, Note_on_c, 1, 63, 127
1, 77184, Note_on_c, 1, 55, 127
1, 77276, Note_off_c, 1, 63, 0
1, 77280, Note_on_c, 1, 74, 127
1, 77372, Note_off_c, 1, 55, 0
1, 77372, Note_off_c, 1, 74, 0
1, 77376, Note_on_c, 1, 72, 127
1, 77376, Note_on_c, 1, 51, 127
1, 77468, Note_off_c, 1, 72, 0
1, 77472, Note_on_c, 1, 70, 127
1, 77564, Note_off_c, 1, 51, 0
1, 77564, Note_off_c, 1, 70, 0
1, 77568, Note_on_c, 1, 69, 127
1, 77568, Note_on_c, 1, 53, 127
1, 77660, Note_off_c, 1, 69, 0
1, 77664, Note_on_c, 1, 67, 127
1, 77756, Note_off_c, 1, 53, 0
1, 77756, Note_off_c, 1, 67, 0
1, 77760, Note_on_c, 1, 69, 127
1, 77760, Note_on_c, 1, 48, 127
1, 77852, Note_off_c, 1, 69, 0
1, 77856, Note_on_c, 1, 72, 127
1, 77948, Note_off_c, 1, 48, 0
1, 77948, Note_off_c, 1, 72, 0
1, 77952, Note_on_c, 1, 65, 127
1, 77952, Note_on_c, 1, 45, 127
1, 78044, Note_off_c, 1, 65, 0
1, 78048, Note_on_c, 1, 75, 127
1, 78140, Note_off_c, 1, 45, 0
1, 78140, Note_off_c, 1, 75, 0
1, 78144, Note_on_c, 1, 74, 127
1, 78144, Note_on_c, 1, 41, 127
1, 78236, Note_off_c, 1, 74, 0
1, 78240, Note_on_c, 1, 72, 127
1, 78332, Note_off_c, 1, 41, 0
1, 78332, Note_off_c, 1, 72, 0
1, 78336, Note_on_c, 1, 74, 127
1, 78336, Note_on_c, 1, 46, 127
1, 78464, Note_off_c, 1, 74, 0
1, 78524, Note_off_c, 1, 46, 0
1, 78528, Note_on_c, 1, 82, 127
1, 78528, Note_on_c, 1, 34, 127
1, 78656, Note_off_c, 1, 82, 0
1, 78716, Note_off_c, 1, 34, 0
1, 78720, Note_on_c, 1, 74, 127
1, 78720, Note_on_c, 1, 70, 127
1, 78848, Note_off_c, 1, 74, 0
1, 78848, Note_off_c, 1, 70, 0
1, 78912, Note_on_c, 1, 75, 127
1, 78912, Note_on_c, 1, 72, 127
1, 79040, Note_off_c, 1, 75, 0
1, 79040, Note_off_c, 1, 72, 0
1, 79104, Note_on_c, 1, 77, 127
1, 79104, Note_on_c, 1, 74, 127
1, 79296, Note_on_c, 1, 70, 127
1, 79484, Note_off_c, 1, 77, 0
1, 79484, Note_off_c, 1, 74, 0
1, 79484, Note_off_c, 1, 70, 0
1, 79488, Note_on_c, 1, 67, 127
1, 79488, Note_on_c, 1, 79, 127
1, 79488, Note_on_c, 1, 75, 127
1, 79676, Note_off_c, 1, 67, 0
1, 79680, Note_on_c, 1, 63, 127
1, 79868, Note_off_c, 1, 79, 0
1, 79868, Note_off_c, 1, 75, 0
1, 79868, Note_off_c, 1, 63, 0
1, 79872, Note_on_c, 1, 77, 127
1, 79872, Note_on_c, 1, 74, 127
1, 79872, Note_on_c, 1, 70, 127
1, 80060, Note_off_c, 1, 77, 0
1, 80064, Note_on_c, 1, 82, 127
1, 80064, Note_on_c, 1, 58, 127
1, 80252, Note_off_c, 1, 74, 0
1, 80252, Note_off_c, 1, 58, 0
1, 80256, Note_on_c, 1, 75, 127
1, 80256, Note_on_c, 1, 55, 127
1, 80444, Note_off_c, 1, 82, 0
1, 80444, Note_off_c, 1, 55, 0
1, 80448, Note_on_c, 1, 80, 127
1, 80448, Note_on_c, 1, 51, 127
1, 80540, Note_off_c, 1, 80, 0
1, 80544, Note_on_c, 1, 79, 127
1, 80636, Note_off_c, 1, 75, 0
1, 80636, Note_off_c, 1, 51, 0
1, 80636, Note_off_c, 1, 79, 0
1, 80736, Note_on_c, 1, 60, 127
1, 80828, Note_off_c, 1, 60, 0
1, 80832, Note_on_c, 1, 62, 127
1, 80924, Note_off_c, 1, 62, 0
1, 81020, Note_off_c, 1, 70, 0
1, 81024, Note_on_c, 1, 67, 127
1, 81024, Note_on_c, 1, 58, 127
1, 81116, Note_off_c, 1, 58, 0
1, 81120, Note_on_c, 1, 57, 127
1, 81212, Note_off_c, 1, 57, 0
1, 81216, Note_on_c, 1, 77, 127
1, 81216, Note_on_c, 1, 74, 127
1, 81312, Note_on_c, 1, 55, 127
1, 81344, Note_off_c, 1, 77, 0
1, 81344, Note_off_c, 1, 74, 0
1, 81404, Note_off_c, 1, 55, 0
1, 81408, Note_on_c, 1, 48, 127
1, 81500, Note_off_c, 1, 48, 0
1, 81600, Note_on_c, 1, 75, 127
1, 81600, Note_on_c, 1, 72, 127
1, 81600, Note_on_c, 1, 60, 127
1, 81692, Note_off_c, 1, 60, 0
1, 81788, Note_off_c, 1, 67, 0
1, 81788, Note_off_c, 1, 75, 0
1, 81788, Note_off_c, 1, 72, 0
1, 81792, Note_on_c, 1, 65, 127
1, 81792, Note_on_c, 1, 57, 127
1, 81884, Note_off_c, 1, 57, 0
1, 81888, Note_on_c, 1, 55, 127
1, 81980, Note_off_c, 1, 55, 0
1, 81984, Note_on_c, 1, 75, 127
1, 81984, Note_on_c, 1, 72, 127
1, 82080, Note_on_c, 1, 53, 127
1, 82112, Note_off_c, 1, 75, 0
1, 82112, Note_off_c, 1, 72, 0
1, 82172, Note_off_c, 1, 53, 0
1, 82176, Note_on_c, 1, 46, 127
1, 82268, Note_off_c, 1, 46, 0
1, 82368, Note_on_c, 1, 74, 127
1, 82368, Note_on_c, 1, 70, 127
1, 82368, Note_on_c, 1, 58, 127
1, 82460, Note_off_c, 1, 58, 0
1, 82556, Note_off_c, 1, 65, 0
1, 82556, Note_off_c, 1, 74, 0
1, 82556, Note_off_c, 1, 70, 0
1, 82560, Note_on_c, 1, 63, 127
1, 82560, Note_on_c, 1, 55, 127
1, 82652, Note_off_c, 1, 55, 0
1, 82656, Note_on_c, 1, 53, 127
1, 82748, Note_off_c, 1, 53, 0
1, 82752, Note_on_c, 1, 74, 127
1, 82752, Note_on_c, 1, 70, 127
1, 82848, Note_on_c, 1, 51, 127
1, 82880, Note_off_c, 1, 74, 0
1, 82880, Note_off_c, 1, 70, 0
1, 82940, Note_off_c, 1, 51, 0
1, 82944, Note_on_c, 1, 45, 127
1, 83036, Note_off_c, 1, 45, 0
1, 83136, Note_on_c, 1, 72, 127
1, 83136, Note_on_c, 1, 69, 127
1, 83136, Note_on_c, 1, 57, 127
1, 83228, Note_off_c, 1, 57, 0
1, 83324, Note_off_c, 1, 63, 0
1, 83324, Note_off_c, 1, 72, 0
1, 83324, Note_off_c, 1, 69, 0
1, 83328, Note_on_c, 1, 62, 127
1, 83328, Note_on_c, 1, 54, 127
1, 83420, Note_off_c, 1, 54, 0
1, 83424, Note_on_c, 1, 52, 127
1, 83516, Note_off_c, 1, 52, 0
1, 83520, Note_on_c, 1, 72, 127
1, 83520, Note_on_c, 1, 69, 127
1, 83616, Note_on_c, 1, 50, 127
1, 83648, Note_off_c, 1, 72, 0
1, 83648, Note_off_c, 1, 69, 0
1, 83708, Note_off_c, 1, 50, 0
1, 83712, Note_on_c, 1, 43, 127
1, 83804, Note_off_c, 1, 43, 0
1, 83904, Note_on_c, 1, 70, 127
1, 83904, Note_on_c, 1, 67, 127
1, 83904, Note_on_c, 1, 55, 127
1, 83996, Note_off_c, 1, 55, 0
1, 84000, Note_on_c, 1, 57, 127
1, 84092, Note_off_c, 1, 62, 0
1, 84092, Note_off_c, 1, 70, 0
1, 84092, Note_off_c, 1, 67, 0
1, 84092, Note_off_c, 1, 57, 0
1, 84096, Note_on_c, 1, 82, 127
1, 84096, Note_on_c, 1, 55, 127
1, 84188, Note_off_c, 1, 55, 0
1, 84192, Note_on_c, 1, 74, 127
1, 84192, Note_on_c, 1, 53, 127
1, 84284, Note_off_c, 1, 74, 0
1, 84284, Note_off_c, 1, 53, 0
1, 84288, Note_on_c, 1, 79, 127
1, 84288, Note_on_c, 1, 51, 127
1, 84380, Note_off_c, 1, 79, 0
1, 84380, Note_off_c, 1, 51, 0
1, 84384, Note_on_c, 1, 77, 127
1, 84384, Note_on_c, 1, 50, 127
1, 84476, Note_off_c, 1, 77, 0
1, 84476, Note_off_c, 1, 50, 0
1, 84480, Note_on_c, 1, 75, 127
1, 84480, Note_on_c, 1, 48, 127
1, 84572, Note_off_c, 1, 48, 0
1, 84668, Note_off_c, 1, 82, 0
1, 84672, Note_on_c, 1, 81, 127
1, 84672, Note_on_c, 1, 60, 127
1, 84764, Note_off_c, 1, 81, 0
1, 84764, Note_off_c, 1, 60, 0
1, 84768, Note_on_c, 1, 62, 127
1, 84860, Note_off_c, 1, 75, 0
1, 84860, Note_off_c, 1, 62, 0
1, 84864, Note_on_c, 1, 81, 127
1, 84864, Note_on_c, 1, 60, 127
1, 84956, Note_off_c, 1, 81, 0
1, 84956, Note_off_c, 1, 60, 0
1, 84960, Note_on_c, 1, 78, 127
1, 84960, Note_on_c, 1, 58, 127
1, 85052, Note_off_c, 1, 78, 0
1, 85052, Note_off_c, 1, 58, 0
1, 85056, Note_on_c, 1, 79, 127
1, 85056, Note_on_c, 1, 57, 127
1, 85148, Note_off_c, 1, 79, 0
1, 85148, Note_off_c, 1, 57, 0
1, 85152, Note_on_c, 1, 81, 127
1, 85152, Note_on_c, 1, 55, 127
1, 85220, Note_on_c, 1, 72, 127
1, 85244, Note_off_c, 1, 81, 0
1, 85244, Note_off_c, 1, 55, 0
1, 85248, Note_on_c, 1, 74, 127
1, 85248, Note_on_c, 1, 54, 127
1, 85264, Note_off_c, 1, 72, 0
1, 85292, Note_off_c, 1, 74, 0
1, 85292, Note_on_c, 1, 75, 127
1, 85336, Note_off_c, 1, 75, 0
1, 85340, Note_off_c, 1, 54, 0
1, 85344, Note_on_c, 1, 62, 127
1, 85436, Note_off_c, 1, 62, 0
1, 85440, Note_on_c, 1, 60, 127
1, 85532, Note_off_c, 1, 60, 0
1, 85632, Note_on_c, 1, 50, 127
1, 85724, Note_off_c, 1, 50, 0
1, 85824, Note_on_c, 1, 52, 127
1, 85916, Note_off_c, 1, 52, 0
1, 86112, Note_on_c, 1, 57, 127
1, 86204, Note_off_c, 1, 57, 0
1, 86496, Note_on_c, 1, 58, 127
1, 86588, Note_off_c, 1, 58, 0
1, 87744, Note_on_c, 1, 67, 127
1, 87744, Note_on_c, 1, 58, 127
1, 87836, Note_off_c, 1, 58, 0
1, 87840, Note_on_c, 1, 55, 127
1, 87872, Note_off_c, 1, 67, 0
1, 87932, Note_off_c, 1, 55, 0
1, 87936, Note_on_c, 1, 70, 127
1, 87936, Note_on_c, 1, 50, 127
1, 88028, Note_off_c, 1, 50, 0
1, 88032, Note_on_c, 1, 53, 127
1, 88064, Note_off_c, 1, 70, 0
1, 88124, Note_off_c, 1, 53, 0
1, 88128, Note_on_c, 1, 74, 127
1, 88128, Note_on_c, 1, 52, 127
1, 88220, Note_off_c, 1, 52, 0
1, 88224, Note_on_c, 1, 50, 127
1, 88256, Note_off_c, 1, 74, 0
1, 88268, Note_on_c, 1, 71, 127
1, 88316, Note_off_c, 1, 50, 0
1, 88320, Note_off_c, 1, 71, 0
1, 88320, Note_on_c, 1, 72, 127
1, 88364, Note_off_c, 1, 72, 0
1, 88416, Note_on_c, 1, 60, 127
1, 88508, Note_off_c, 1, 60, 0
1, 88512, Note_on_c, 1, 59, 127
1, 88604, Note_off_c, 1, 59, 0
1, 88704, Note_on_c, 1, 48, 127
1, 88796, Note_off_c, 1, 48, 0
1, 88992, Note_on_c, 1, 53, 127
1, 89084, Note_off_c, 1, 53, 0
1, 89184, Note_on_c, 1, 55, 127
1, 89276, Note_off_c, 1, 55, 0
1, 89568, Note_on_c, 1, 57, 127
1, 89660, Note_off_c, 1, 57, 0
1, 89952, Note_on_c, 1, 58, 127
1, 90044, Note_off_c, 1, 58, 0
1, 90816, Note_on_c, 1, 65, 127
1, 90816, Note_on_c, 1, 57, 127
1, 90908, Note_off_c, 1, 57, 0
1, 90912, Note_on_c, 1, 53, 127
1, 91004, Note_off_c, 1, 65, 0
1, 91004, Note_off_c, 1, 53, 0
1, 91008, Note_on_c, 1, 69, 127
1, 91008, Note_on_c, 1, 48, 127
1, 91100, Note_off_c, 1, 48, 0
1, 91104, Note_on_c, 1, 51, 127
1, 91196, Note_off_c, 1, 69, 0
1, 91196, Note_off_c, 1, 51, 0
1, 91200, Note_on_c, 1, 72, 127
1, 91200, Note_on_c, 1, 50, 127
1, 91292, Note_off_c, 1, 50, 0
1, 91296, Note_on_c, 1, 48, 127
1, 91388, Note_off_c, 1, 72, 0
1, 91388, Note_off_c, 1, 48, 0
1, 91392, Note_on_c, 1, 77, 127
1, 91392, Note_on_c, 1, 50, 127
1, 91484, Note_off_c, 1, 50, 0
1, 91488, Note_on_c, 1, 53, 127
1, 91580, Note_off_c, 1, 77, 0
1, 91580, Note_off_c, 1, 53, 0
1, 91584, Note_on_c, 1, 69, 127
1, 91584, Note_on_c, 1, 50, 127
1, 91676, Note_off_c, 1, 50, 0
1, 91680, Note_on_c, 1, 46, 127
1, 91772, Note_off_c, 1, 69, 0
1, 91772, Note_off_c, 1, 46, 0
1, 91776, Note_on_c, 1, 70, 127
1, 91776, Note_on_c, 1, 43, 127
1, 91868, Note_off_c, 1, 43, 0
1, 91872, Note_on_c, 1, 46, 127
1, 91964, Note_off_c, 1, 46, 0
1, 91968, Note_on_c, 1, 62, 127
1, 91968, Note_on_c, 1, 45, 127
1, 92060, Note_off_c, 1, 45, 0
1, 92156, Note_off_c, 1, 62, 0
1, 92160, Note_on_c, 1, 64, 127
1, 92160, Note_on_c, 1, 48, 127
1, 92252, Note_off_c, 1, 64, 0
1, 92252, Note_off_c, 1, 48, 0
1, 92256, Note_on_c, 1, 67, 127
1, 92256, Note_on_c, 1, 52, 127
1, 92348, Note_off_c, 1, 67, 0
1, 92348, Note_off_c, 1, 52, 0
1, 92448, Note_on_c, 1, 60, 127
1, 92540, Note_off_c, 1, 70, 0
1, 92540, Note_off_c, 1, 60, 0
1, 92544, Note_on_c, 1, 69, 127
1, 92544, Note_on_c, 1, 41, 127
1, 92636, Note_off_c, 1, 41, 0
1, 92640, Note_on_c, 1, 45, 127
1, 92732, Note_off_c, 1, 45, 0
1, 92736, Note_on_c, 1, 60, 127
1, 92736, Note_on_c, 1, 43, 127
1, 92828, Note_off_c, 1, 43, 0
1, 92924, Note_off_c, 1, 60, 0
1, 92928, Note_on_c, 1, 62, 127
1, 92928, Note_on_c, 1, 46, 127
1, 93020, Note_off_c, 1, 62, 0
1, 93024, Note_on_c, 1, 65, 127
1, 93116, Note_off_c, 1, 46, 0
1, 93116, Note_off_c, 1, 65, 0
1, 93120, Note_on_c, 1, 48, 127
1, 93308, Note_off_c, 1, 48, 0
1, 93312, Note_on_c, 1, 58, 127
1, 93312, Note_on_c, 1, 50, 127
1, 93404, Note_off_c, 1, 69, 0
1, 93500, Note_off_c, 1, 50, 0
1, 93504, Note_on_c, 1, 67, 127
1, 93596, Note_off_c, 1, 67, 0
1, 93696, Note_on_c, 1, 64, 127
1, 93788, Note_off_c, 1, 64, 0
1, 94080, Note_on_c, 1, 52, 127
1, 94172, Note_off_c, 1, 58, 0
1, 94268, Note_off_c, 1, 52, 0
1, 94272, Note_on_c, 1, 57, 127
1, 94364, Note_off_c, 1, 57, 0
1, 94368, Note_on_c, 1, 55, 127
1, 94460, Note_off_c, 1, 55, 0
1, 94464, Note_on_c, 1, 57, 127
1, 94464, Note_on_c, 1, 36, 127
1, 94556, Note_off_c, 1, 57, 0
1, 94560, Note_on_c, 1, 60, 127
1, 94652, Note_off_c, 1, 36, 0
1, 94652, Note_off_c, 1, 60, 0
1, 94656, Note_on_c, 1, 65, 127
1, 94656, Note_on_c, 1, 45, 127
1, 94748, Note_off_c, 1, 65, 0
1, 94752, Note_on_c, 1, 64, 127
1, 94844, Note_off_c, 1, 45, 0
1, 94844, Note_off_c, 1, 64, 0
1, 94848, Note_on_c, 1, 62, 127
1, 94848, Note_on_c, 1, 46, 127
1, 94940, Note_off_c, 1, 62, 0
1, 94944, Note_on_c, 1, 60, 127
1, 95036, Note_off_c, 1, 46, 0
1, 95036, Note_off_c, 1, 60, 0
1, 95040, Note_on_c, 1, 58, 127
1, 95040, Note_on_c, 1, 50, 127
1, 95132, Note_off_c, 1, 58, 0
1, 95136, Note_on_c, 1, 57, 127
1, 95228, Note_off_c, 1, 50, 0
1, 95228, Note_off_c, 1, 57, 0
1, 95232, Note_on_c, 1, 58, 127
1, 95232, Note_on_c, 1, 36, 127
1, 95324, Note_off_c, 1, 58, 0
1, 95328, Note_on_c, 1, 64, 127
1, 95420, Note_off_c, 1, 36, 0
1, 95420, Note_off_c, 1, 64, 0
1, 95424, Note_on_c, 1, 67, 127
1, 95424, Note_on_c, 1, 46, 127
1, 95516, Note_off_c, 1, 67, 0
1, 95520, Note_on_c, 1, 65, 127
1, 95612, Note_off_c, 1, 46, 0
1, 95612, Note_off_c, 1, 65, 0
1, 95616, Note_on_c, 1, 64, 127
1, 95616, Note_on_c, 1, 48, 127
1, 95708, Note_off_c, 1, 64, 0
1, 95712, Note_on_c, 1, 62, 127
1, 95804, Note_off_c, 1, 48, 0
1, 95804, Note_off_c, 1, 62, 0
1, 95808, Note_on_c, 1, 60, 127
1, 95808, Note_on_c, 1, 52, 127
1, 95900, Note_off_c, 1, 60, 0
1, 95904, Note_on_c, 1, 58, 127
1, 95996, Note_off_c, 1, 52, 0
1, 95996, Note_off_c, 1, 58, 0
1, 96000, Note_on_c, 1, 60, 127
1, 96000, Note_on_c, 1, 36, 127
1, 96092, Note_off_c, 1, 60, 0
1, 96096, Note_on_c, 1, 65, 127
1, 96188, Note_off_c, 1, 36, 0
1, 96188, Note_off_c, 1, 65, 0
1, 96192, Note_on_c, 1, 69, 127
1, 96192, Note_on_c, 1, 48, 127
1, 96284, Note_off_c, 1, 69, 0
1, 96288, Note_on_c, 1, 67, 127
1, 96380, Note_off_c, 1, 48, 0
1, 96380, Note_off_c, 1, 67, 0
1, 96384, Note_on_c, 1, 65, 127
1, 96384, Note_on_c, 1, 50, 127
1, 96476, Note_off_c, 1, 65, 0
1, 96480, Note_on_c, 1, 64, 127
1, 96572, Note_off_c, 1, 50, 0
1, 96572, Note_off_c, 1, 64, 0
1, 96576, Note_on_c, 1, 62, 127
1, 96576, Note_on_c, 1, 53, 127
1, 96668, Note_off_c, 1, 62, 0
1, 96672, Note_on_c, 1, 60, 127
1, 96764, Note_off_c, 1, 53, 0
1, 96764, Note_off_c, 1, 60, 0
1, 96768, Note_on_c, 1, 62, 127
1, 96768, Note_on_c, 1, 36, 127
1, 96860, Note_off_c, 1, 62, 0
1, 96864, Note_on_c, 1, 65, 127
1, 96956, Note_off_c, 1, 36, 0
1, 96956, Note_off_c, 1, 65, 0
1, 96960, Note_on_c, 1, 70, 127
1, 96960, Note_on_c, 1, 50, 127
1, 97052, Note_off_c, 1, 70, 0
1, 97056, Note_on_c, 1, 69, 127
1, 97148, Note_off_c, 1, 50, 0
1, 97148, Note_off_c, 1, 69, 0
1, 97152, Note_on_c, 1, 67, 127
1, 97152, Note_on_c, 1, 52, 127
1, 97244, Note_off_c, 1, 67, 0
1, 97248, Note_on_c, 1, 65, 127
1, 97340, Note_off_c, 1, 52, 0
1, 97340, Note_off_c, 1, 65, 0
1, 97344, Note_on_c, 1, 64, 127
1, 97344, Note_on_c, 1, 55, 127
1, 97436, Note_off_c, 1, 64, 0
1, 97440, Note_on_c, 1, 62, 127
1, 97532, Note_off_c, 1, 55, 0
1, 97532, Note_off_c, 1, 62, 0
1, 97536, Note_on_c, 1, 64, 127
1, 97536, Note_on_c, 1, 36, 127
1, 97628, Note_off_c, 1, 64, 0
1, 97632, Note_on_c, 1, 60, 127
1, 97724, Note_off_c, 1, 60, 0
1, 97824, Note_on_c, 1, 67, 127
1, 97916, Note_off_c, 1, 36, 0
1, 97916, Note_off_c, 1, 67, 0
1, 97920, Note_on_c, 1, 70, 127
1, 98012, Note_off_c, 1, 70, 0
1, 98016, Note_on_c, 1, 72, 127
1, 98108, Note_off_c, 1, 72, 0
1, 98112, Note_on_c, 1, 76, 127
1, 98204, Note_off_c, 1, 76, 0
1, 98208, Note_on_c, 1, 79, 127
1, 98300, Note_off_c, 1, 79, 0
1, 98304, Note_on_c, 1, 81, 127
1, 98432, Note_off_c, 1, 81, 0
1, 98496, Note_on_c, 1, 74, 127
1, 98496, Note_on_c, 1, 69, 127
1, 98496, Note_on_c, 1, 65, 127
1, 98624, Note_off_c, 1, 74, 0
1, 98624, Note_off_c, 1, 69, 0
1, 98624, Note_off_c, 1, 65, 0
1, 98688, Note_on_c, 1, 76, 127
1, 98688, Note_on_c, 1, 69, 127
1, 98688, Note_on_c, 1, 65, 127
1, 98780, Note_off_c, 1, 76, 0
1, 98784, Note_on_c, 1, 74, 127
1, 98816, Note_off_c, 1, 69, 0
1, 98816, Note_off_c, 1, 65, 0
1, 98876, Note_off_c, 1, 74, 0
1, 98880, Note_on_c, 1, 73, 127
1, 98880, Note_on_c, 1, 69, 127
1, 98880, Note_on_c, 1, 65, 127
1, 98972, Note_off_c, 1, 73, 0
1, 98976, Note_on_c, 1, 74, 127
1, 99008, Note_off_c, 1, 69, 0
1, 99008, Note_off_c, 1, 65, 0
1, 99072, Note_on_c, 1, 67, 127
1, 99072, Note_on_c, 1, 64, 127
1, 99164, Note_off_c, 1, 74, 0
1, 99168, Note_on_c, 1, 79, 127
1, 99200, Note_off_c, 1, 67, 0
1, 99200, Note_off_c, 1, 64, 0
1, 99260, Note_off_c, 1, 79, 0
1, 99264, Note_on_c, 1, 74, 127
1, 99264, Note_on_c, 1, 67, 127
1, 99264, Note_on_c, 1, 64, 127
1, 99356, Note_off_c, 1, 74, 0
1, 99360, Note_on_c, 1, 71, 127
1, 99392, Note_off_c, 1, 67, 0
1, 99392, Note_off_c, 1, 64, 0
1, 99452, Note_off_c, 1, 71, 0
1, 99456, Note_on_c, 1, 72, 127
1, 99456, Note_on_c, 1, 67, 127
1, 99456, Note_on_c, 1, 64, 127
1, 99548, Note_off_c, 1, 72, 0
1, 99552, Note_on_c, 1, 71, 127
1, 99584, Note_off_c, 1, 67, 0
1, 99584, Note_off_c, 1, 64, 0
1, 99644, Note_off_c, 1, 71, 0
1, 99648, Note_on_c, 1, 72, 127
1, 99648, Note_on_c, 1, 67, 127
1, 99648, Note_on_c, 1, 64, 127
1, 99740, Note_off_c, 1, 72, 0
1, 99744, Note_on_c, 1, 76, 127
1, 99776, Note_off_c, 1, 67, 0
1, 99776, Note_off_c, 1, 64, 0
1, 99836, Note_off_c, 1, 76, 0
1, 99840, Note_on_c, 1, 77, 127
1, 99968, Note_off_c, 1, 77, 0
1, 100032, Note_on_c, 1, 70, 127
1, 100032, Note_on_c, 1, 65, 127
1, 100032, Note_on_c, 1, 62, 127
1, 100160, Note_off_c, 1, 70, 0
1, 100160, Note_off_c, 1, 65, 0
1, 100160, Note_off_c, 1, 62, 0
1, 100224, Note_on_c, 1, 72, 127
1, 100224, Note_on_c, 1, 65, 127
1, 100224, Note_on_c, 1, 62, 127
1, 100316, Note_off_c, 1, 72, 0
1, 100320, Note_on_c, 1, 70, 127
1, 100352, Note_off_c, 1, 65, 0
1, 100352, Note_off_c, 1, 62, 0
1, 100412, Note_off_c, 1, 70, 0
1, 100416, Note_on_c, 1, 69, 127
1, 100416, Note_on_c, 1, 65, 127
1, 100416, Note_on_c, 1, 62, 127
1, 100508, Note_off_c, 1, 69, 0
1, 100512, Note_on_c, 1, 70, 127
1, 100544, Note_off_c, 1, 65, 0
1, 100544, Note_off_c, 1, 62, 0
1, 100608, Note_on_c, 1, 63, 127
1, 100608, Note_on_c, 1, 60, 127
1, 100672, Note_off_c, 1, 70, 0
1, 100704, Note_on_c, 1, 75, 127
1, 100736, Note_off_c, 1, 63, 0
1, 100736, Note_off_c, 1, 60, 0
1, 100796, Note_off_c, 1, 75, 0
1, 100800, Note_on_c, 1, 70, 127
1, 100800, Note_on_c, 1, 63, 127
1, 100800, Note_on_c, 1, 60, 127
1, 100892, Note_off_c, 1, 70, 0
1, 100896, Note_on_c, 1, 67, 127
1, 100928, Note_off_c, 1, 63, 0
1, 100928, Note_off_c, 1, 60, 0
1, 100988, Note_off_c, 1, 67, 0
1, 100992, Note_on_c, 1, 69, 127
1, 100992, Note_on_c, 1, 63, 127
1, 100992, Note_on_c, 1, 60, 127
1, 101084, Note_off_c, 1, 69, 0
1, 101088, Note_on_c, 1, 67, 127
1, 101120, Note_off_c, 1, 63, 0
1, 101120, Note_off_c, 1, 60, 0
1, 101180, Note_off_c, 1, 67, 0
1, 101184, Note_on_c, 1, 69, 127
1, 101184, Note_on_c, 1, 63, 127
1, 101184, Note_on_c, 1, 60, 127
1, 101276, Note_off_c, 1, 69, 0
1, 101280, Note_on_c, 1, 72, 127
1, 101312, Note_off_c, 1, 63, 0
1, 101312, Note_off_c, 1, 60, 0
1, 101372, Note_off_c, 1, 72, 0
1, 101376, Note_on_c, 1, 74, 127
1, 101504, Note_off_c, 1, 74, 0
1, 101568, Note_on_c, 1, 67, 127
1, 101568, Note_on_c, 1, 62, 127
1, 101568, Note_on_c, 1, 58, 127
1, 101696, Note_off_c, 1, 67, 0
1, 101696, Note_off_c, 1, 62, 0
1, 101696, Note_off_c, 1, 58, 0
1, 101760, Note_on_c, 1, 69, 127
1, 101760, Note_on_c, 1, 62, 127
1, 101760, Note_on_c, 1, 58, 127
1, 101852, Note_off_c, 1, 69, 0
1, 101856, Note_on_c, 1, 67, 127
1, 101888, Note_off_c, 1, 62, 0
1, 101888, Note_off_c, 1, 58, 0
1, 101948, Note_off_c, 1, 67, 0
1, 101952, Note_on_c, 1, 66, 127
1, 101952, Note_on_c, 1, 62, 127
1, 101952, Note_on_c, 1, 58, 127
1, 102044, Note_off_c, 1, 66, 0
1, 102048, Note_on_c, 1, 67, 127
1, 102080, Note_off_c, 1, 62, 0
1, 102080, Note_off_c, 1, 58, 0
1, 102144, Note_on_c, 1, 60, 127
1, 102144, Note_on_c, 1, 57, 127
1, 102208, Note_off_c, 1, 67, 0
1, 102240, Note_on_c, 1, 72, 127
1, 102272, Note_off_c, 1, 60, 0
1, 102272, Note_off_c, 1, 57, 0
1, 102332, Note_off_c, 1, 72, 0
1, 102336, Note_on_c, 1, 67, 127
1, 102336, Note_on_c, 1, 60, 127
1, 102336, Note_on_c, 1, 57, 127
1, 102428, Note_off_c, 1, 67, 0
1, 102432, Note_on_c, 1, 64, 127
1, 102464, Note_off_c, 1, 60, 0
1, 102464, Note_off_c, 1, 57, 0
1, 102524, Note_off_c, 1, 64, 0
1, 102528, Note_on_c, 1, 65, 127
1, 102528, Note_on_c, 1, 60, 127
1, 102528, Note_on_c, 1, 57, 127
1, 102620, Note_off_c, 1, 65, 0
1, 102624, Note_on_c, 1, 64, 127
1, 102656, Note_off_c, 1, 60, 0
1, 102656, Note_off_c, 1, 57, 0
1, 102716, Note_off_c, 1, 64, 0
1, 102720, Note_on_c, 1, 65, 127
1, 102720, Note_on_c, 1, 60, 127
1, 102720, Note_on_c, 1, 57, 127
1, 102812, Note_off_c, 1, 65, 0
1, 102816, Note_on_c, 1, 69, 127
1, 102848, Note_off_c, 1, 60, 0
1, 102848, Note_off_c, 1, 57, 0
1, 102872, Note_off_c, 1, 69, 0
1, 102884, Note_on_c, 1, 69, 127
1, 102912, Note_on_c, 1, 70, 127
1, 102920, Note_off_c, 1, 69, 0
1, 102956, Note_off_c, 1, 70, 0
1, 102956, Note_on_c, 1, 72, 127
1, 103000, Note_off_c, 1, 72, 0
1, 103008, Note_on_c, 1, 62, 127
1, 103100, Note_off_c, 1, 62, 0
1, 103104, Note_on_c, 1, 64, 127
1, 103196, Note_off_c, 1, 64, 0
1, 103200, Note_on_c, 1, 65, 127
1, 103292, Note_off_c, 1, 65, 0
1, 103296, Note_on_c, 1, 55, 127
1, 103388, Note_off_c, 1, 55, 0
1, 103488, Note_on_c, 1, 53, 127
1, 103580, Note_off_c, 1, 53, 0
1, 103680, Note_on_c, 1, 52, 127
1, 103772, Note_off_c, 1, 52, 0
1, 103776, Note_on_c, 1, 79, 127
1, 103776, Note_on_c, 1, 55, 127
1, 103868, Note_off_c, 1, 79, 0
1, 103868, Note_off_c, 1, 55, 0
1, 103872, Note_on_c, 1, 76, 127
1, 103872, Note_on_c, 1, 60, 127
1, 103964, Note_off_c, 1, 76, 0
1, 103968, Note_on_c, 1, 72, 127
1, 104060, Note_off_c, 1, 60, 0
1, 104060, Note_off_c, 1, 72, 0
1, 104064, Note_on_c, 1, 70, 127
1, 104156, Note_off_c, 1, 70, 0
1, 104160, Note_on_c, 1, 79, 127
1, 104252, Note_off_c, 1, 79, 0
1, 104256, Note_on_c, 1, 76, 127
1, 104348, Note_off_c, 1, 76, 0
1, 104352, Note_on_c, 1, 72, 127
1, 104412, Note_off_c, 1, 72, 0
1, 104420, Note_on_c, 1, 69, 127
1, 104448, Note_off_c, 1, 69, 0
1, 104448, Note_on_c, 1, 70, 127
1, 104492, Note_off_c, 1, 70, 0
1, 104492, Note_on_c, 1, 72, 127
1, 104536, Note_off_c, 1, 72, 0
1, 104544, Note_on_c, 1, 55, 127
1, 104636, Note_off_c, 1, 55, 0
1, 104640, Note_on_c, 1, 53, 127
1, 104732, Note_off_c, 1, 53, 0
1, 104736, Note_on_c, 1, 52, 127
1, 104828, Note_off_c, 1, 52, 0
1, 104832, Note_on_c, 1, 60, 127
1, 104924, Note_off_c, 1, 60, 0
1, 105024, Note_on_c, 1, 62, 127
1, 105116, Note_off_c, 1, 62, 0
1, 105120, Note_on_c, 1, 50, 127
1, 105212, Note_off_c, 1, 50, 0
1, 105216, Note_on_c, 1, 64, 127
1, 105312, Note_on_c, 1, 79, 127
1, 105404, Note_off_c, 1, 64, 0
1, 105404, Note_off_c, 1, 79, 0
1, 105408, Note_on_c, 1, 76, 127
1, 105408, Note_on_c, 1, 48, 127
1, 105500, Note_off_c, 1, 76, 0
1, 105504, Note_on_c, 1, 72, 127
1, 105596, Note_off_c, 1, 48, 0
1, 105596, Note_off_c, 1, 72, 0
1, 105600, Note_on_c, 1, 70, 127
1, 105692, Note_off_c, 1, 70, 0
1, 105696, Note_on_c, 1, 79, 127
1, 105788, Note_off_c, 1, 79, 0
1, 105792, Note_on_c, 1, 76, 127
1, 105884, Note_off_c, 1, 76, 0
1, 105888, Note_on_c, 1, 72, 127
1, 105980, Note_off_c, 1, 72, 0
1, 105984, Note_on_c, 1, 69, 127
1, 106080, Note_on_c, 1, 65, 127
1, 106112, Note_off_c, 1, 69, 0
1, 106172, Note_off_c, 1, 65, 0
1, 106176, Note_on_c, 1, 77, 127
1, 106176, Note_on_c, 1, 64, 127
1, 106268, Note_off_c, 1, 64, 0
1, 106272, Note_on_c, 1, 62, 127
1, 106364, Note_off_c, 1, 77, 0
1, 106364, Note_off_c, 1, 62, 0
1, 106368, Note_on_c, 1, 69, 127
1, 106368, Note_on_c, 1, 65, 127
1, 106368, Note_on_c, 1, 60, 127
1, 106460, Note_off_c, 1, 60, 0
1, 106464, Note_on_c, 1, 58, 127
1, 106556, Note_off_c, 1, 69, 0
1, 106556, Note_off_c, 1, 65, 0
1, 106556, Note_off_c, 1, 58, 0
1, 106560, Note_on_c, 1, 70, 127
1, 106560, Note_on_c, 1, 67, 127
1, 106560, Note_on_c, 1, 57, 127
1, 106652, Note_off_c, 1, 57, 0
1, 106656, Note_on_c, 1, 55, 127
1, 106748, Note_off_c, 1, 70, 0
1, 106748, Note_off_c, 1, 67, 0
1, 106748, Note_off_c, 1, 55, 0
1, 106752, Note_on_c, 1, 72, 127
1, 106752, Note_on_c, 1, 69, 127
1, 106752, Note_on_c, 1, 53, 127
1, 106816, Note_off_c, 1, 53, 0
1, 106944, Note_on_c, 1, 51, 127
1, 107036, Note_off_c, 1, 51, 0
1, 107040, Note_on_c, 1, 50, 127
1, 107132, Note_off_c, 1, 72, 0
1, 107132, Note_off_c, 1, 69, 0
1, 107132, Note_off_c, 1, 50, 0
1, 107136, Note_on_c, 1, 70, 127
1, 107136, Note_on_c, 1, 74, 127
1, 107136, Note_on_c, 1, 48, 127
1, 107228, Note_off_c, 1, 48, 0
1, 107232, Note_on_c, 1, 46, 127
1, 107324, Note_off_c, 1, 46, 0
1, 107328, Note_on_c, 1, 45, 127
1, 107420, Note_off_c, 1, 45, 0
1, 107424, Note_on_c, 1, 43, 127
1, 107516, Note_off_c, 1, 43, 0
1, 107520, Note_on_c, 1, 41, 127
1, 107612, Note_off_c, 1, 41, 0
1, 107616, Note_on_c, 1, 53, 127
1, 107708, Note_off_c, 1, 70, 0
1, 107708, Note_off_c, 1, 74, 0
1, 107708, Note_off_c, 1, 53, 0
1, 107712, Note_on_c, 1, 72, 127
1, 107712, Note_on_c, 1, 69, 127
1, 107712, Note_on_c, 1, 48, 127
1, 107804, Note_off_c, 1, 72, 0
1, 107804, Note_off_c, 1, 48, 0
1, 107808, Note_on_c, 1, 74, 127
1, 107808, Note_on_c, 1, 45, 127
1, 107900, Note_off_c, 1, 74, 0
1, 107900, Note_off_c, 1, 45, 0
1, 107904, Note_on_c, 1, 75, 127
1, 107904, Note_on_c, 1, 41, 127
1, 107996, Note_off_c, 1, 41, 0
1, 108000, Note_on_c, 1, 53, 127
1, 108092, Note_off_c, 1, 75, 0
1, 108092, Note_off_c, 1, 53, 0
1, 108096, Note_on_c, 1, 51, 127
1, 108188, Note_off_c, 1, 51, 0
1, 108284, Note_off_c, 1, 69, 0
1, 108288, Note_on_c, 1, 74, 127
1, 108288, Note_on_c, 1, 70, 127
1, 108288, Note_on_c, 1, 46, 127
1, 108380, Note_off_c, 1, 46, 0
1, 108384, Note_on_c, 1, 50, 127
1, 108476, Note_off_c, 1, 50, 0
1, 108480, Note_on_c, 1, 53, 127
1, 108572, Note_off_c, 1, 53, 0
1, 108576, Note_on_c, 1, 57, 127
1, 108668, Note_off_c, 1, 74, 0
1, 108668, Note_off_c, 1, 70, 0
1, 108668, Note_off_c, 1, 57, 0
1, 108672, Note_on_c, 1, 58, 127
1, 108764, Note_off_c, 1, 58, 0
1, 108768, Note_on_c, 1, 62, 127
1, 108860, Note_off_c, 1, 62, 0
1, 108864, Note_on_c, 1, 65, 127
1, 108956, Note_off_c, 1, 65, 0
1, 108960, Note_on_c, 1, 69, 127
1, 109052, Note_off_c, 1, 69, 0
1, 109056, Note_on_c, 1, 67, 127
1, 109120, Note_off_c, 1, 67, 0
1, 109152, Note_on_c, 1, 67, 127
1, 109244, Note_off_c, 1, 67, 0
1, 109248, Note_on_c, 1, 65, 127
1, 109248, Note_on_c, 1, 79, 127
1, 109340, Note_off_c, 1, 65, 0
1, 109344, Note_on_c, 1, 64, 127
1, 109436, Note_off_c, 1, 79, 0
1, 109436, Note_off_c, 1, 64, 0
1, 109440, Note_on_c, 1, 71, 127
1, 109440, Note_on_c, 1, 67, 127
1, 109440, Note_on_c, 1, 62, 127
1, 109532, Note_off_c, 1, 62, 0
1, 109536, Note_on_c, 1, 60, 127
1, 109628, Note_off_c, 1, 71, 0
1, 109628, Note_off_c, 1, 67, 0
1, 109628, Note_off_c, 1, 60, 0
1, 109632, Note_on_c, 1, 72, 127
1, 109632, Note_on_c, 1, 69, 127
1, 109632, Note_on_c, 1, 59, 127
1, 109724, Note_off_c, 1, 59, 0
1, 109728, Note_on_c, 1, 57, 127
1, 109820, Note_off_c, 1, 72, 0
1, 109820, Note_off_c, 1, 69, 0
1, 109820, Note_off_c, 1, 57, 0
1, 109824, Note_on_c, 1, 74, 127
1, 109824, Note_on_c, 1, 71, 127
1, 109824, Note_on_c, 1, 55, 127
1, 109888, Note_off_c, 1, 55, 0
1, 110016, Note_on_c, 1, 53, 127
1, 110108, Note_off_c, 1, 53, 0
1, 110112, Note_on_c, 1, 52, 127
1, 110204, Note_off_c, 1, 74, 0
1, 110204, Note_off_c, 1, 71, 0
1, 110204, Note_off_c, 1, 52, 0
1, 110208, Note_on_c, 1, 72, 127
1, 110208, Note_on_c, 1, 76, 127
1, 110208, Note_on_c, 1, 50, 127
1, 110300, Note_off_c, 1, 50, 0
1, 110304, Note_on_c, 1, 48, 127
1, 110396, Note_off_c, 1, 48, 0
1, 110400, Note_on_c, 1, 47, 127
1, 110492, Note_off_c, 1, 47, 0
1, 110496, Note_on_c, 1, 45, 127
1, 110588, Note_off_c, 1, 45, 0
1, 110592, Note_on_c, 1, 43, 127
1, 110684, Note_off_c, 1, 43, 0
1, 110688, Note_on_c, 1, 55, 127
1, 110780, Note_off_c, 1, 72, 0
1, 110780, Note_off_c, 1, 76, 0
1, 110780, Note_off_c, 1, 55, 0
1, 110784, Note_on_c, 1, 74, 127
1, 110784, Note_on_c, 1, 71, 127
1, 110784, Note_on_c, 1, 50, 127
1, 110876, Note_off_c, 1, 74, 0
1, 110876, Note_off_c, 1, 50, 0
1, 110880, Note_on_c, 1, 76, 127
1, 110880, Note_on_c, 1, 47, 127
1, 110972, Note_off_c, 1, 76, 0
1, 110972, Note_off_c, 1, 47, 0
1, 110976, Note_on_c, 1, 77, 127
1, 110976, Note_on_c, 1, 43, 127
1, 111068, Note_off_c, 1, 43, 0
1, 111072, Note_on_c, 1, 55, 127
1, 111164, Note_off_c, 1, 77, 0
1, 111164, Note_off_c, 1, 55, 0
1, 111168, Note_on_c, 1, 53, 127
1, 111260, Note_off_c, 1, 53, 0
1, 111356, Note_off_c, 1, 71, 0
1, 111360, Note_on_c, 1, 76, 127
1, 111360, Note_on_c, 1, 72, 127
1, 111360, Note_on_c, 1, 48, 127
1, 111452, Note_off_c, 1, 48, 0
1, 111456, Note_on_c, 1, 55, 127
1, 111548, Note_off_c, 1, 55, 0
1, 111552, Note_on_c, 1, 57, 127
1, 111644, Note_off_c, 1, 57, 0
1, 111648, Note_on_c, 1, 59, 127
1, 111740, Note_off_c, 1, 76, 0
1, 111740, Note_off_c, 1, 72, 0
1, 111740, Note_off_c, 1, 59, 0
1, 111744, Note_on_c, 1, 60, 127
1, 111836, Note_off_c, 1, 60, 0
1, 111840, Note_on_c, 1, 55, 127
1, 111932, Note_off_c, 1, 55, 0
1, 111936, Note_on_c, 1, 72, 127
1, 111936, Note_on_c, 1, 60, 127
1, 112028, Note_off_c, 1, 60, 0
1, 112032, Note_on_c, 1, 62, 127
1, 112064, Note_off_c, 1, 72, 0
1, 112124, Note_off_c, 1, 62, 0
1, 112128, Note_on_c, 1, 72, 127
1, 112128, Note_on_c, 1, 67, 127
1, 112128, Note_on_c, 1, 64, 127
1, 112176, Note_on_c, 1, 74, 127
1, 112188, Note_off_c, 1, 72, 0
1, 112236, Note_off_c, 1, 74, 0
1, 112256, Note_off_c, 1, 67, 0
1, 112256, Note_off_c, 1, 64, 0
1, 112272, Note_on_c, 1, 71, 127
1, 112320, Note_on_c, 1, 60, 127
1, 112332, Note_off_c, 1, 71, 0
1, 112448, Note_off_c, 1, 60, 0
1, 112512, Note_on_c, 1, 72, 127
1, 112512, Note_on_c, 1, 69, 127
1, 112512, Note_on_c, 1, 65, 127
1, 112560, Note_on_c, 1, 74, 127
1, 112572, Note_off_c, 1, 72, 0
1, 112620, Note_off_c, 1, 74, 0
1, 112640, Note_off_c, 1, 69, 0
1, 112640, Note_off_c, 1, 65, 0
1, 112656, Note_on_c, 1, 71, 127
1, 112704, Note_on_c, 1, 60, 127
1, 112716, Note_off_c, 1, 71, 0
1, 112832, Note_off_c, 1, 60, 0
1, 112896, Note_on_c, 1, 67, 127
1, 112896, Note_on_c, 1, 64, 127
1, 113024, Note_off_c, 1, 67, 0
1, 113024, Note_off_c, 1, 64, 0
1, 113088, Note_on_c, 1, 76, 127
1, 113088, Note_on_c, 1, 60, 127
1, 113180, Note_off_c, 1, 76, 0
1, 113180, Note_off_c, 1, 60, 0
1, 113184, Note_on_c, 1, 77, 127
1, 113184, Note_on_c, 1, 62, 127
1, 113276, Note_off_c, 1, 77, 0
1, 113276, Note_off_c, 1, 62, 0
1, 113280, Note_on_c, 1, 79, 127
1, 113280, Note_on_c, 1, 64, 127
1, 113372, Note_off_c, 1, 64, 0
1, 113376, Note_on_c, 1, 65, 127
1, 113408, Note_off_c, 1, 79, 0
1, 113468, Note_off_c, 1, 65, 0
1, 113472, Note_on_c, 1, 72, 127
1, 113472, Note_on_c, 1, 67, 127
1, 113564, Note_off_c, 1, 67, 0
1, 113568, Note_on_c, 1, 64, 127
1, 113600, Note_off_c, 1, 72, 0
1, 113660, Note_off_c, 1, 64, 0
1, 113664, Note_on_c, 1, 72, 127
1, 113664, Note_on_c, 1, 69, 127
1, 113664, Note_on_c, 1, 65, 127
1, 113712, Note_on_c, 1, 74, 127
1, 113724, Note_off_c, 1, 72, 0
1, 113772, Note_off_c, 1, 74, 0
1, 113792, Note_off_c, 1, 69, 0
1, 113792, Note_off_c, 1, 65, 0
1, 113808, Note_on_c, 1, 71, 127
1, 113856, Note_on_c, 1, 60, 127
1, 113868, Note_off_c, 1, 71, 0
1, 113984, Note_off_c, 1, 60, 0
1, 114048, Note_on_c, 1, 72, 127
1, 114048, Note_on_c, 1, 67, 127
1, 114048, Note_on_c, 1, 64, 127
1, 114096, Note_on_c, 1, 74, 127
1, 114108, Note_off_c, 1, 72, 0
1, 114156, Note_off_c, 1, 74, 0
1, 114176, Note_off_c, 1, 67, 0
1, 114176, Note_off_c, 1, 64, 0
1, 114192, Note_on_c, 1, 71, 127
1, 114240, Note_on_c, 1, 60, 127
1, 114252, Note_off_c, 1, 71, 0
1, 114368, Note_off_c, 1, 60, 0
1, 114432, Note_on_c, 1, 69, 127
1, 114432, Note_on_c, 1, 65, 127
1, 114524, Note_off_c, 1, 69, 0
1, 114528, Note_on_c, 1, 76, 127
1, 114528, Note_on_c, 1, 70, 127
1, 114560, Note_off_c, 1, 65, 0
1, 114620, Note_off_c, 1, 76, 0
1, 114620, Note_off_c, 1, 70, 0
1, 114624, Note_on_c, 1, 77, 127
1, 114624, Note_on_c, 1, 69, 127
1, 114716, Note_off_c, 1, 77, 0
1, 114716, Note_off_c, 1, 69, 0
1, 114720, Note_on_c, 1, 79, 127
1, 114720, Note_on_c, 1, 67, 127
1, 114812, Note_off_c, 1, 79, 0
1, 114812, Note_off_c, 1, 67, 0
1, 114816, Note_on_c, 1, 81, 127
1, 114816, Note_on_c, 1, 65, 127
1, 114908, Note_off_c, 1, 65, 0
1, 114912, Note_on_c, 1, 67, 127
1, 114944, Note_off_c, 1, 81, 0
1, 115004, Note_off_c, 1, 67, 0
1, 115008, Note_on_c, 1, 72, 127
1, 115008, Note_on_c, 1, 69, 127
1, 115100, Note_off_c, 1, 69, 0
1, 115104, Note_on_c, 1, 65, 127
1, 115136, Note_off_c, 1, 72, 0
1, 115196, Note_off_c, 1, 65, 0
1, 115200, Note_on_c, 1, 72, 127
1, 115200, Note_on_c, 1, 67, 127
1, 115200, Note_on_c, 1, 70, 127
1, 115248, Note_on_c, 1, 74, 127
1, 115260, Note_off_c, 1, 72, 0
1, 115308, Note_off_c, 1, 74, 0
1, 115328, Note_off_c, 1, 67, 0
1, 115328, Note_off_c, 1, 70, 0
1, 115344, Note_on_c, 1, 71, 127
1, 115392, Note_on_c, 1, 60, 127
1, 115404, Note_off_c, 1, 71, 0
1, 115520, Note_off_c, 1, 60, 0
1, 115584, Note_on_c, 1, 72, 127
1, 115584, Note_on_c, 1, 69, 127
1, 115584, Note_on_c, 1, 65, 127
1, 115632, Note_on_c, 1, 74, 127
1, 115644, Note_off_c, 1, 72, 0
1, 115692, Note_off_c, 1, 74, 0
1, 115712, Note_off_c, 1, 69, 0
1, 115712, Note_off_c, 1, 65, 0
1, 115728, Note_on_c, 1, 71, 127
1, 115776, Note_on_c, 1, 60, 127
1, 115788, Note_off_c, 1, 71, 0
1, 115904, Note_off_c, 1, 60, 0
1, 115968, Note_on_c, 1, 67, 127
1, 115968, Note_on_c, 1, 64, 127
1, 116060, Note_off_c, 1, 67, 0
1, 116064, Note_on_c, 1, 76, 127
1, 116156, Note_off_c, 1, 64, 0
1, 116156, Note_off_c, 1, 76, 0
1, 116160, Note_on_c, 1, 79, 127
1, 116160, Note_on_c, 1, 64, 127
1, 116252, Note_off_c, 1, 79, 0
1, 116252, Note_off_c, 1, 64, 0
1, 116256, Note_on_c, 1, 81, 127
1, 116256, Note_on_c, 1, 62, 127
1, 116348, Note_off_c, 1, 81, 0
1, 116348, Note_off_c, 1, 62, 0
1, 116352, Note_on_c, 1, 82, 127
1, 116352, Note_on_c, 1, 60, 127
1, 116444, Note_off_c, 1, 60, 0
1, 116448, Note_on_c, 1, 58, 127
1, 116540, Note_off_c, 1, 82, 0
1, 116540, Note_off_c, 1, 58, 0
1, 116544, Note_on_c, 1, 72, 127
1, 116544, Note_on_c, 1, 57, 127
1, 116636, Note_off_c, 1, 57, 0
1, 116640, Note_on_c, 1, 55, 127
1, 116732, Note_off_c, 1, 55, 0
1, 116736, Note_on_c, 1, 53, 127
1, 116828, Note_off_c, 1, 72, 0
1, 116828, Note_off_c, 1, 53, 0
1, 116832, Note_on_c, 1, 82, 127
1, 116832, Note_on_c, 1, 55, 127
1, 116924, Note_off_c, 1, 82, 0
1, 116924, Note_off_c, 1, 55, 0
1, 116928, Note_on_c, 1, 81, 127
1, 116928, Note_on_c, 1, 53, 127
1, 117020, Note_off_c, 1, 81, 0
1, 117020, Note_off_c, 1, 53, 0
1, 117024, Note_on_c, 1, 79, 127
1, 117024, Note_on_c, 1, 51, 127
1, 117072, Note_on_c, 1, 77, 127
1, 117116, Note_off_c, 1, 79, 0
1, 117116, Note_off_c, 1, 51, 0
1, 117120, Note_on_c, 1, 84, 127
1, 117120, Note_on_c, 1, 50, 127
1, 117164, Note_off_c, 1, 77, 0
1, 117212, Note_off_c, 1, 50, 0
1, 117216, Note_on_c, 1, 48, 127
1, 117248, Note_off_c, 1, 84, 0
1, 117308, Note_off_c, 1, 48, 0
1, 117312, Note_on_c, 1, 75, 127
1, 117312, Note_on_c, 1, 46, 127
1, 117404, Note_off_c, 1, 46, 0
1, 117408, Note_on_c, 1, 45, 127
1, 117500, Note_off_c, 1, 45, 0
1, 117596, Note_off_c, 1, 75, 0
1, 117600, Note_on_c, 1, 74, 127
1, 117600, Note_on_c, 1, 53, 127
1, 117648, Note_on_c, 1, 72, 127
1, 117664, Note_off_c, 1, 53, 0
1, 117692, Note_off_c, 1, 74, 0
1, 117696, Note_on_c, 1, 58, 127
1, 117740, Note_off_c, 1, 72, 0
1, 117840, Note_on_c, 1, 70, 127
1, 117888, Note_on_c, 1, 79, 127
1, 117932, Note_off_c, 1, 70, 0
1, 117952, Note_off_c, 1, 58, 0
1, 117984, Note_on_c, 1, 55, 127
1, 118016, Note_off_c, 1, 79, 0
1, 118048, Note_off_c, 1, 55, 0
1, 118080, Note_on_c, 1, 70, 127
1, 118080, Note_on_c, 1, 53, 127
1, 118144, Note_off_c, 1, 53, 0
1, 118176, Note_on_c, 1, 52, 127
1, 118240, Note_off_c, 1, 52, 0
1, 118364, Note_off_c, 1, 70, 0
1, 118368, Note_on_c, 1, 69, 127
1, 118368, Note_on_c, 1, 57, 127
1, 118416, Note_on_c, 1, 67, 127
1, 118460, Note_off_c, 1, 69, 0
1, 118460, Note_off_c, 1, 57, 0
1, 118464, Note_on_c, 1, 60, 127
1, 118508, Note_off_c, 1, 67, 0
1, 118608, Note_on_c, 1, 65, 127
1, 118656, Note_on_c, 1, 74, 127
1, 118700, Note_off_c, 1, 65, 0
1, 118748, Note_off_c, 1, 60, 0
1, 118752, Note_on_c, 1, 59, 127
1, 118784, Note_off_c, 1, 74, 0
1, 118844, Note_off_c, 1, 59, 0
1, 118848, Note_on_c, 1, 65, 127
1, 118848, Note_on_c, 1, 57, 127
1, 118940, Note_off_c, 1, 57, 0
1, 118944, Note_on_c, 1, 59, 127
1, 118976, Note_off_c, 1, 65, 0
1, 119036, Note_off_c, 1, 59, 0
1, 119040, Note_on_c, 1, 67, 127
1, 119040, Note_on_c, 1, 60, 127
1, 119104, Note_off_c, 1, 67, 0
1, 119132, Note_off_c, 1, 60, 0
1, 119136, Note_on_c, 1, 64, 127
1, 119136, Note_on_c, 1, 55, 127
1, 119200, Note_off_c, 1, 64, 0
1, 119228, Note_off_c, 1, 55, 0
1, 119328, Note_on_c, 1, 62, 127
1, 119420, Note_off_c, 1, 62, 0
1, 119424, Note_on_c, 1, 64, 127
1, 119516, Note_off_c, 1, 64, 0
1, 119520, Note_on_c, 1, 60, 127
1, 119612, Note_off_c, 1, 60, 0
1, 119616, Note_on_c, 1, 82, 127
1, 119616, Note_on_c, 1, 62, 127
1, 119708, Note_off_c, 1, 62, 0
1, 119712, Note_on_c, 1, 64, 127
1, 119744, Note_off_c, 1, 82, 0
1, 119804, Note_off_c, 1, 64, 0
1, 119808, Note_on_c, 1, 81, 127
1, 119808, Note_on_c, 1, 65, 127
1, 119900, Note_off_c, 1, 81, 0
1, 119904, Note_on_c, 1, 82, 127
1, 119996, Note_off_c, 1, 65, 0
1, 119996, Note_off_c, 1, 82, 0
1, 120000, Note_on_c, 1, 84, 127
1, 120000, Note_on_c, 1, 57, 127
1, 120092, Note_off_c, 1, 84, 0
1, 120096, Note_on_c, 1, 77, 127
1, 120188, Note_off_c, 1, 57, 0
1, 120188, Note_off_c, 1, 77, 0
1, 120192, Note_on_c, 1, 81, 127
1, 120192, Note_on_c, 1, 58, 127
1, 120284, Note_off_c, 1, 81, 0
1, 120288, Note_on_c, 1, 79, 127
1, 120380, Note_off_c, 1, 58, 0
1, 120380, Note_off_c, 1, 79, 0
1, 120384, Note_on_c, 1, 77, 127
1, 120384, Note_on_c, 1, 60, 127
1, 120476, Note_off_c, 1, 77, 0
1, 120480, Note_on_c, 1, 76, 127
1, 120572, Note_off_c, 1, 60, 0
1, 120572, Note_off_c, 1, 76, 0
1, 120576, Note_on_c, 1, 77, 127
1, 120576, Note_on_c, 1, 62, 127
1, 120668, Note_off_c, 1, 77, 0
1, 120672, Note_on_c, 1, 72, 127
1, 120764, Note_off_c, 1, 62, 0
1, 120764, Note_off_c, 1, 72, 0
1, 120768, Note_on_c, 1, 74, 127
1, 120768, Note_on_c, 1, 58, 127
1, 120860, Note_off_c, 1, 74, 0
1, 120864, Note_on_c, 1, 77, 127
1, 120956, Note_off_c, 1, 58, 0
1, 120956, Note_off_c, 1, 77, 0
1, 120960, Note_on_c, 1, 70, 127
1, 120960, Note_on_c, 1, 53, 127
1, 121052, Note_off_c, 1, 70, 0
1, 121056, Note_on_c, 1, 69, 127
1, 121148, Note_off_c, 1, 53, 0
1, 121148, Note_off_c, 1, 69, 0
1, 121152, Note_on_c, 1, 70, 127
1, 121152, Note_on_c, 1, 62, 127
1, 121244, Note_off_c, 1, 70, 0
1, 121248, Note_on_c, 1, 74, 127
1, 121340, Note_off_c, 1, 62, 0
1, 121340, Note_off_c, 1, 74, 0
1, 121344, Note_on_c, 1, 77, 127
1, 121344, Note_on_c, 1, 60, 127
1, 121436, Note_off_c, 1, 77, 0
1, 121440, Note_on_c, 1, 70, 127
1, 121532, Note_off_c, 1, 60, 0
1, 121532, Note_off_c, 1, 70, 0
1, 121536, Note_on_c, 1, 72, 127
1, 121536, Note_on_c, 1, 57, 127
1, 121628, Note_off_c, 1, 72, 0
1, 121632, Note_on_c, 1, 77, 127
1, 121724, Note_off_c, 1, 57, 0
1, 121724, Note_off_c, 1, 77, 0
1, 121728, Note_on_c, 1, 69, 127
1, 121728, Note_on_c, 1, 53, 127
1, 121820, Note_off_c, 1, 69, 0
1, 121824, Note_on_c, 1, 67, 127
1, 121916, Note_off_c, 1, 53, 0
1, 121916, Note_off_c, 1, 67, 0
1, 121920, Note_on_c, 1, 69, 127
1, 121920, Note_on_c, 1, 60, 127
1, 122012, Note_off_c, 1, 69, 0
1, 122016, Note_on_c, 1, 72, 127
1, 122108, Note_off_c, 1, 60, 0
1, 122108, Note_off_c, 1, 72, 0
1, 122112, Note_on_c, 1, 77, 127
1, 122112, Note_on_c, 1, 59, 127
1, 122204, Note_off_c, 1, 77, 0
1, 122208, Note_on_c, 1, 69, 127
1, 122300, Note_off_c, 1, 59, 0
1, 122300, Note_off_c, 1, 69, 0
1, 122304, Note_on_c, 1, 71, 127
1, 122304, Note_on_c, 1, 62, 127
1, 122396, Note_off_c, 1, 71, 0
1, 122400, Note_on_c, 1, 77, 127
1, 122492, Note_off_c, 1, 62, 0
1, 122492, Note_off_c, 1, 77, 0
1, 122496, Note_on_c, 1, 67, 127
1, 122496, Note_on_c, 1, 59, 127
1, 122588, Note_off_c, 1, 67, 0
1, 122592, Note_on_c, 1, 65, 127
1, 122684, Note_off_c, 1, 59, 0
1, 122684, Note_off_c, 1, 65, 0
1, 122688, Note_on_c, 1, 67, 127
1, 122688, Note_on_c, 1, 55, 127
1, 122780, Note_off_c, 1, 67, 0
1, 122784, Note_on_c, 1, 77, 127
1, 122876, Note_off_c, 1, 55, 0
1, 122876, Note_off_c, 1, 77, 0
1, 122880, Note_on_c, 1, 76, 127
1, 122880, Note_on_c, 1, 60, 127
1, 122972, Note_off_c, 1, 76, 0
1, 122976, Note_on_c, 1, 77, 127
1, 123068, Note_off_c, 1, 60, 0
1, 123068, Note_off_c, 1, 77, 0
1, 123072, Note_on_c, 1, 79, 127
1, 123072, Note_on_c, 1, 48, 127
1, 123164, Note_off_c, 1, 79, 0
1, 123168, Note_on_c, 1, 77, 127
1, 123260, Note_off_c, 1, 48, 0
1, 123260, Note_off_c, 1, 77, 0
1, 123264, Note_on_c, 1, 76, 127
1, 123264, Note_on_c, 1, 50, 127
1, 123356, Note_off_c, 1, 76, 0
1, 123360, Note_on_c, 1, 74, 127
1, 123452, Note_off_c, 1, 50, 0
1, 123452, Note_off_c, 1, 74, 0
1, 123456, Note_on_c, 1, 72, 127
1, 123456, Note_on_c, 1, 52, 127
1, 123548, Note_off_c, 1, 72, 0
1, 123552, Note_on_c, 1, 70, 127
1, 123644, Note_off_c, 1, 52, 0
1, 123644, Note_off_c, 1, 70, 0
1, 123648, Note_on_c, 1, 69, 127
1, 123648, Note_on_c, 1, 53, 127
1, 123740, Note_off_c, 1, 69, 0
1, 123744, Note_on_c, 1, 70, 127
1, 123836, Note_off_c, 1, 53, 0
1, 123836, Note_off_c, 1, 70, 0
1, 123840, Note_on_c, 1, 72, 127
1, 123840, Note_on_c, 1, 45, 127
1, 123932, Note_off_c, 1, 72, 0
1, 123936, Note_on_c, 1, 65, 127
1, 124028, Note_off_c, 1, 45, 0
1, 124028, Note_off_c, 1, 65, 0
1, 124032, Note_on_c, 1, 69, 127
1, 124032, Note_on_c, 1, 46, 127
1, 124124, Note_off_c, 1, 69, 0
1, 124128, Note_on_c, 1, 67, 127
1, 124220, Note_off_c, 1, 46, 0
1, 124220, Note_off_c, 1, 67, 0
1, 124224, Note_on_c, 1, 65, 127
1, 124224, Note_on_c, 1, 48, 127
1, 124316, Note_off_c, 1, 65, 0
1, 124320, Note_on_c, 1, 64, 127
1, 124412, Note_off_c, 1, 48, 0
1, 124412, Note_off_c, 1, 64, 0
1, 124416, Note_on_c, 1, 65, 127
1, 124416, Note_on_c, 1, 53, 127
1, 124416, Note_on_c, 1, 48, 127
1, 124416, Note_on_c, 1, 45, 127
1, 124416, Note_on_c, 1, 41, 127
1, 124544, Note_off_c, 1, 65, 0
1, 124608, Note_on_c, 1, 77, 127
1, 124736, Note_off_c, 1, 77, 0
1, 124796, Note_off_c, 1, 53, 0
1, 124796, Note_off_c, 1, 48, 0
1, 124796, Note_off_c, 1, 45, 0
1, 124796, Note_off_c, 1, 41, 0
1, 124800, Note_on_c, 1, 69, 127
1, 124800, Note_on_c, 1, 65, 127
1, 124928, Note_off_c, 1, 69, 0
1, 124928, Note_off_c, 1, 65, 0
1, 124992, Note_on_c, 1, 70, 127
1, 124992, Note_on_c, 1, 67, 127
1, 125120, Note_off_c, 1, 70, 0
1, 125120, Note_off_c, 1, 67, 0
1, 125184, Note_on_c, 1, 72, 127
1, 125184, Note_on_c, 1, 69, 127
1, 125376, Note_on_c, 1, 65, 127
1, 125504, Note_off_c, 1, 65, 0
1, 125564, Note_off_c, 1, 72, 0
1, 125564, Note_off_c, 1, 69, 0
1, 125568, Note_on_c, 1, 74, 127
1, 125568, Note_on_c, 1, 70, 127
1, 125568, Note_on_c, 1, 62, 127
1, 125696, Note_off_c, 1, 62, 0
1, 125760, Note_on_c, 1, 58, 127
1, 125824, Note_off_c, 1, 74, 0
1, 125824, Note_off_c, 1, 70, 0
1, 125888, Note_off_c, 1, 58, 0
1, 125952, Note_on_c, 1, 72, 127
1, 125952, Note_on_c, 1, 69, 127
1, 125952, Note_on_c, 1, 65, 127
1, 126080, Note_off_c, 1, 72, 0
1, 126144, Note_on_c, 1, 77, 127
1, 126144, Note_on_c, 1, 53, 127
1, 126208, Note_off_c, 1, 69, 0
1, 126272, Note_off_c, 1, 53, 0
1, 126336, Note_on_c, 1, 70, 127
1, 126336, Note_on_c, 1, 50, 127
1, 126400, Note_off_c, 1, 77, 0
1, 126464, Note_off_c, 1, 65, 0
1, 126464, Note_off_c, 1, 50, 0
1, 126528, Note_on_c, 1, 75, 127
1, 126528, Note_on_c, 1, 46, 127
1, 126592, Note_off_c, 1, 70, 0
1, 126592, Note_off_c, 1, 75, 0
1, 126624, Note_on_c, 1, 74, 127
1, 126656, Note_off_c, 1, 46, 0
1, 126688, Note_off_c, 1, 74, 0
1, 126720, Note_on_c, 1, 74, 127
1, 126720, Note_on_c, 1, 70, 127
1, 126720, Note_on_c, 1, 65, 127
1, 126720, Note_on_c, 1, 53, 127
1, 126908, Note_off_c, 1, 74, 0
1, 126908, Note_off_c, 1, 70, 0
1, 126912, Note_on_c, 1, 72, 127
1, 126912, Note_on_c, 1, 69, 127
1, 126912, Note_on_c, 1, 41, 127
1, 127040, Note_off_c, 1, 72, 0
1, 127040, Note_off_c, 1, 69, 0
1, 127040, Note_off_c, 1, 41, 0
1, 127100, Note_off_c, 1, 65, 0
1, 127100, Note_off_c, 1, 53, 0
1, 127488, Note_on_c, 1, 60, 127
1, 127488, Note_on_c, 1, 55, 127
1, 127488, Note_on_c, 1, 52, 127
1, 127488, Note_on_c, 1, 48, 127
1, 127680, Note_on_c, 1, 84, 127
1, 127808, Note_off_c, 1, 84, 0
1, 127868, Note_off_c, 1, 60, 0
1, 127868, Note_off_c, 1, 55, 0
1, 127868, Note_off_c, 1, 52, 0
1, 127868, Note_off_c, 1, 48, 0
1, 127872, Note_on_c, 1, 76, 127
1, 127872, Note_on_c, 1, 72, 127
1, 128000, Note_off_c, 1, 76, 0
1, 128000, Note_off_c, 1, 72, 0
1, 128064, Note_on_c, 1, 77, 127
1, 128064, Note_on_c, 1, 74, 127
1, 128192, Note_off_c, 1, 77, 0
1, 128192, Note_off_c, 1, 74, 0
1, 128256, Note_on_c, 1, 79, 127
1, 128256, Note_on_c, 1, 76, 127
1, 128448, Note_on_c, 1, 72, 127
1, 128512, Note_off_c, 1, 79, 0
1, 128512, Note_off_c, 1, 76, 0
1, 128576, Note_off_c, 1, 72, 0
1, 128640, Note_on_c, 1, 69, 127
1, 128640, Note_on_c, 1, 81, 127
1, 128640, Note_on_c, 1, 77, 127
1, 128768, Note_off_c, 1, 69, 0
1, 128832, Note_on_c, 1, 65, 127
1, 128896, Note_off_c, 1, 81, 0
1, 128896, Note_off_c, 1, 77, 0
1, 128960, Note_off_c, 1, 65, 0
1, 129024, Note_on_c, 1, 79, 127
1, 129024, Note_on_c, 1, 76, 127
1, 129024, Note_on_c, 1, 72, 127
1, 129212, Note_off_c, 1, 79, 0
1, 129216, Note_on_c, 1, 84, 127
1, 129216, Note_on_c, 1, 60, 127
1, 129404, Note_off_c, 1, 76, 0
1, 129404, Note_off_c, 1, 60, 0
1, 129408, Note_on_c, 1, 77, 127
1, 129408, Note_on_c, 1, 57, 127
1, 129596, Note_off_c, 1, 84, 0
1, 129596, Note_off_c, 1, 57, 0
1, 129600, Note_on_c, 1, 82, 127
1, 129600, Note_on_c, 1, 53, 127
1, 129692, Note_off_c, 1, 82, 0
1, 129696, Note_on_c, 1, 81, 127
1, 129788, Note_off_c, 1, 72, 0
1, 129788, Note_off_c, 1, 77, 0
1, 129788, Note_off_c, 1, 53, 0
1, 129788, Note_off_c, 1, 81, 0
1, 129792, Note_on_c, 1, 81, 127
1, 129792, Note_on_c, 1, 77, 127
1, 129792, Note_on_c, 1, 72, 127
1, 129792, Note_on_c, 1, 60, 127
1, 129980, Note_off_c, 1, 81, 0
1, 129980, Note_off_c, 1, 77, 0
1, 129984, Note_on_c, 1, 79, 127
1, 129984, Note_on_c, 1, 76, 127
1, 129984, Note_on_c, 1, 48, 127
1, 130112, Note_off_c, 1, 79, 0
1, 130112, Note_off_c, 1, 76, 0
1, 130112, Note_off_c, 1, 48, 0
1, 130172, Note_off_c, 1, 72, 0
1, 130172, Note_off_c, 1, 60, 0
1, 130272, Note_on_c, 1, 72, 127
1, 130336, Note_off_c, 1, 72, 0
1, 130368, Note_on_c, 1, 70, 127
1, 130432, Note_off_c, 1, 70, 0
1, 130464, Note_on_c, 1, 69, 127
1, 130528, Note_off_c, 1, 69, 0
1, 130560, Note_on_c, 1, 70, 127
1, 130560, Note_on_c, 1, 60, 127
1, 130560, Note_on_c, 1, 52, 127
1, 130560, Note_on_c, 1, 48, 127
1, 130688, Note_off_c, 1, 70, 0
1, 130752, Note_on_c, 1, 79, 127
1, 130940, Note_off_c, 1, 60, 0
1, 130940, Note_off_c, 1, 52, 0
1, 130940, Note_off_c, 1, 48, 0
1, 130944, Note_on_c, 1, 55, 127
1, 131008, Note_off_c, 1, 79, 0
1, 131136, Note_on_c, 1, 69, 127
1, 131200, Note_off_c, 1, 55, 0
1, 131200, Note_off_c, 1, 69, 0
1, 131232, Note_on_c, 1, 67, 127
1, 131296, Note_off_c, 1, 67, 0
1, 131328, Note_on_c, 1, 53, 127
1, 131520, Note_on_c, 1, 65, 127
1, 131520, Note_on_c, 1, 57, 127
1, 131584, Note_off_c, 1, 53, 0
1, 131584, Note_off_c, 1, 65, 0
1, 131648, Note_off_c, 1, 57, 0
1, 131712, Note_on_c, 1, 69, 127
1, 131712, Note_on_c, 1, 60, 127
1, 131776, Note_off_c, 1, 69, 0
1, 131808, Note_on_c, 1, 70, 127
1, 131840, Note_off_c, 1, 60, 0
1, 131872, Note_off_c, 1, 70, 0
1, 131904, Note_on_c, 1, 72, 127
1, 131904, Note_on_c, 1, 65, 127
1, 131968, Note_off_c, 1, 72, 0
1, 132000, Note_on_c, 1, 74, 127
1, 132032, Note_off_c, 1, 65, 0
1, 132064, Note_off_c, 1, 74, 0
1, 132096, Note_on_c, 1, 75, 127
1, 132096, Note_on_c, 1, 57, 127
1, 132096, Note_on_c, 1, 60, 127
1, 132096, Note_on_c, 1, 65, 127
1, 132224, Note_off_c, 1, 75, 0
1, 132288, Note_on_c, 1, 84, 127
1, 132476, Note_off_c, 1, 57, 0
1, 132476, Note_off_c, 1, 60, 0
1, 132476, Note_off_c, 1, 65, 0
1, 132480, Note_on_c, 1, 53, 127
1, 132544, Note_off_c, 1, 84, 0
1, 132672, Note_on_c, 1, 74, 127
1, 132736, Note_off_c, 1, 74, 0
1, 132768, Note_on_c, 1, 72, 127
1, 132832, Note_off_c, 1, 72, 0
1, 132860, Note_off_c, 1, 53, 0
1, 132864, Note_on_c, 1, 58, 127
1, 133056, Note_on_c, 1, 70, 127
1, 133056, Note_on_c, 1, 62, 127
1, 133120, Note_off_c, 1, 70, 0
1, 133184, Note_off_c, 1, 62, 0
1, 133244, Note_off_c, 1, 58, 0
1, 133248, Note_on_c, 1, 74, 127
1, 133248, Note_on_c, 1, 65, 127
1, 133312, Note_off_c, 1, 74, 0
1, 133344, Note_on_c, 1, 76, 127
1, 133376, Note_off_c, 1, 65, 0
1, 133408, Note_off_c, 1, 76, 0
1, 133440, Note_on_c, 1, 77, 127
1, 133440, Note_on_c, 1, 70, 127
1, 133504, Note_off_c, 1, 77, 0
1, 133536, Note_on_c, 1, 79, 127
1, 133568, Note_off_c, 1, 70, 0
1, 133600, Note_off_c, 1, 79, 0
1, 133632, Note_on_c, 1, 80, 127
1, 133632, Note_on_c, 1, 71, 127
1, 133632, Note_on_c, 1, 65, 127
1, 133632, Note_on_c, 1, 62, 127
1, 133696, Note_off_c, 1, 80, 0
1, 133728, Note_on_c, 1, 79, 127
1, 133772, Note_off_c, 1, 79, 0
1, 133776, Note_on_c, 1, 77, 127
1, 133820, Note_off_c, 1, 77, 0
1, 134012, Note_off_c, 1, 71, 0
1, 134012, Note_off_c, 1, 65, 0
1, 134012, Note_off_c, 1, 62, 0
1, 134016, Note_on_c, 1, 67, 127
1, 134016, Note_on_c, 1, 59, 127
1, 134160, Note_on_c, 1, 76, 127
1, 134204, Note_off_c, 1, 76, 0
1, 134396, Note_off_c, 1, 67, 0
1, 134396, Note_off_c, 1, 59, 0
1, 134400, Note_on_c, 1, 55, 127
1, 134544, Note_on_c, 1, 74, 127
1, 134592, Note_off_c, 1, 74, 0
1, 134780, Note_off_c, 1, 55, 0
1, 134784, Note_on_c, 1, 64, 127
1, 134784, Note_on_c, 1, 48, 127
1, 135040, Note_off_c, 1, 64, 0
1, 135040, Note_off_c, 1, 48, 0
1, 135072, Note_on_c, 1, 72, 127
1, 135164, Note_off_c, 1, 72, 0
1, 135168, Note_on_c, 1, 70, 127
1, 135232, Note_off_c, 1, 70, 0
1, 135264, Note_on_c, 1, 79, 127
1, 135356, Note_off_c, 1, 79, 0
1, 135360, Note_on_c, 1, 76, 127
1, 135360, Note_on_c, 1, 60, 127
1, 135452, Note_off_c, 1, 76, 0
1, 135452, Note_off_c, 1, 60, 0
1, 135456, Note_on_c, 1, 72, 127
1, 135456, Note_on_c, 1, 62, 127
1, 135548, Note_off_c, 1, 72, 0
1, 135548, Note_off_c, 1, 62, 0
1, 135552, Note_on_c, 1, 70, 127
1, 135552, Note_on_c, 1, 64, 127
1, 135616, Note_off_c, 1, 70, 0
1, 135648, Note_on_c, 1, 79, 127
1, 135680, Note_off_c, 1, 64, 0
1, 135740, Note_off_c, 1, 79, 0
1, 135744, Note_on_c, 1, 76, 127
1, 135744, Note_on_c, 1, 67, 127
1, 135836, Note_off_c, 1, 76, 0
1, 135840, Note_on_c, 1, 72, 127
1, 135872, Note_off_c, 1, 67, 0
1, 135932, Note_off_c, 1, 72, 0
1, 135936, Note_on_c, 1, 70, 127
1, 135936, Note_on_c, 1, 64, 127
1, 136000, Note_off_c, 1, 70, 0
1, 136032, Note_on_c, 1, 79, 127
1, 136064, Note_off_c, 1, 64, 0
1, 136124, Note_off_c, 1, 79, 0
1, 136128, Note_on_c, 1, 76, 127
1, 136128, Note_on_c, 1, 60, 127
1, 136220, Note_off_c, 1, 76, 0
1, 136224, Note_on_c, 1, 72, 127
1, 136256, Note_off_c, 1, 60, 0
1, 136316, Note_off_c, 1, 72, 0
1, 136320, Note_on_c, 1, 70, 127
1, 136320, Note_on_c, 1, 48, 127
1, 136384, Note_off_c, 1, 70, 0
1, 136416, Note_on_c, 1, 79, 127
1, 136508, Note_off_c, 1, 79, 0
1, 136512, Note_on_c, 1, 76, 127
1, 136604, Note_off_c, 1, 76, 0
1, 136608, Note_on_c, 1, 72, 127
1, 136700, Note_off_c, 1, 48, 0
1, 136700, Note_off_c, 1, 72, 0
1, 136704, Note_on_c, 1, 69, 127
1, 136768, Note_off_c, 1, 69, 0
1, 136800, Note_on_c, 1, 81, 127
1, 136800, Note_on_c, 1, 60, 127
1, 136864, Note_off_c, 1, 60, 0
1, 136892, Note_off_c, 1, 81, 0
1, 136896, Note_on_c, 1, 77, 127
1, 136896, Note_on_c, 1, 62, 127
1, 136960, Note_off_c, 1, 62, 0
1, 136988, Note_off_c, 1, 77, 0
1, 136992, Note_on_c, 1, 73, 127
1, 136992, Note_on_c, 1, 64, 127
1, 137056, Note_off_c, 1, 64, 0
1, 137084, Note_off_c, 1, 73, 0
1, 137088, Note_on_c, 1, 72, 127
1, 137088, Note_on_c, 1, 65, 127
1, 137152, Note_off_c, 1, 72, 0
1, 137184, Note_on_c, 1, 81, 127
1, 137276, Note_off_c, 1, 65, 0
1, 137276, Note_off_c, 1, 81, 0
1, 137280, Note_on_c, 1, 77, 127
1, 137280, Note_on_c, 1, 69, 127
1, 137372, Note_off_c, 1, 77, 0
1, 137376, Note_on_c, 1, 73, 127
1, 137468, Note_off_c, 1, 69, 0
1, 137468, Note_off_c, 1, 73, 0
1, 137472, Note_on_c, 1, 72, 127
1, 137472, Note_on_c, 1, 65, 127
1, 137536, Note_off_c, 1, 72, 0
1, 137568, Note_on_c, 1, 81, 127
1, 137660, Note_off_c, 1, 65, 0
1, 137660, Note_off_c, 1, 81, 0
1, 137664, Note_on_c, 1, 77, 127
1, 137664, Note_on_c, 1, 60, 127
1, 137756, Note_off_c, 1, 77, 0
1, 137760, Note_on_c, 1, 73, 127
1, 137852, Note_off_c, 1, 60, 0
1, 137852, Note_off_c, 1, 73, 0
1, 137856, Note_on_c, 1, 72, 127
1, 137856, Note_on_c, 1, 48, 127
1, 137920, Note_off_c, 1, 72, 0
1, 137952, Note_on_c, 1, 81, 127
1, 138044, Note_off_c, 1, 81, 0
1, 138048, Note_on_c, 1, 77, 127
1, 138140, Note_off_c, 1, 77, 0
1, 138144, Note_on_c, 1, 75, 127
1, 138236, Note_off_c, 1, 48, 0
1, 138236, Note_off_c, 1, 75, 0
1, 138240, Note_on_c, 1, 74, 127
1, 138304, Note_off_c, 1, 74, 0
1, 138336, Note_on_c, 1, 83, 127
1, 138428, Note_off_c, 1, 83, 0
1, 138432, Note_on_c, 1, 80, 127
1, 138432, Note_on_c, 1, 62, 127
1, 138496, Note_off_c, 1, 62, 0
1, 138524, Note_off_c, 1, 80, 0
1, 138528, Note_on_c, 1, 77, 127
1, 138528, Note_on_c, 1, 64, 127
1, 138592, Note_off_c, 1, 64, 0
1, 138620, Note_off_c, 1, 77, 0
1, 138624, Note_on_c, 1, 74, 127
1, 138624, Note_on_c, 1, 65, 127
1, 138688, Note_off_c, 1, 74, 0
1, 138720, Note_on_c, 1, 83, 127
1, 138752, Note_off_c, 1, 65, 0
1, 138812, Note_off_c, 1, 83, 0
1, 138816, Note_on_c, 1, 80, 127
1, 138816, Note_on_c, 1, 62, 127
1, 138908, Note_off_c, 1, 80, 0
1, 138908, Note_off_c, 1, 62, 0
1, 138912, Note_on_c, 1, 77, 127
1, 138912, Note_on_c, 1, 64, 127
1, 139004, Note_off_c, 1, 77, 0
1, 139004, Note_off_c, 1, 64, 0
1, 139008, Note_on_c, 1, 74, 127
1, 139008, Note_on_c, 1, 65, 127
1, 139072, Note_off_c, 1, 74, 0
1, 139104, Note_on_c, 1, 83, 127
1, 139196, Note_off_c, 1, 65, 0
1, 139196, Note_off_c, 1, 83, 0
1, 139200, Note_on_c, 1, 80, 127
1, 139200, Note_on_c, 1, 62, 127
1, 139292, Note_off_c, 1, 80, 0
1, 139296, Note_on_c, 1, 77, 127
1, 139388, Note_off_c, 1, 62, 0
1, 139388, Note_off_c, 1, 77, 0
1, 139392, Note_on_c, 1, 74, 127
1, 139392, Note_on_c, 1, 55, 127
1, 139456, Note_off_c, 1, 74, 0
1, 139488, Note_on_c, 1, 83, 127
1, 139580, Note_off_c, 1, 55, 0
1, 139580, Note_off_c, 1, 83, 0
1, 139584, Note_on_c, 1, 80, 127
1, 139584, Note_on_c, 1, 59, 127
1, 139676, Note_off_c, 1, 80, 0
1, 139680, Note_on_c, 1, 77, 127
1, 139772, Note_off_c, 1, 59, 0
1, 139772, Note_off_c, 1, 77, 0
1, 139776, Note_on_c, 1, 76, 127
1, 139776, Note_on_c, 1, 60, 127
1, 139868, Note_off_c, 1, 76, 0
1, 139872, Note_on_c, 1, 84, 127
1, 139904, Note_off_c, 1, 60, 0
1, 139964, Note_off_c, 1, 84, 0
1, 139968, Note_on_c, 1, 79, 127
1, 139968, Note_on_c, 1, 48, 127
1, 140060, Note_off_c, 1, 79, 0
1, 140060, Note_off_c, 1, 48, 0
1, 140064, Note_on_c, 1, 76, 127
1, 140064, Note_on_c, 1, 50, 127
1, 140156, Note_off_c, 1, 76, 0
1, 140156, Note_off_c, 1, 50, 0
1, 140160, Note_on_c, 1, 72, 127
1, 140160, Note_on_c, 1, 52, 127
1, 140224, Note_off_c, 1, 72, 0
1, 140256, Note_on_c, 1, 76, 127
1, 140320, Note_off_c, 1, 76, 0
1, 140348, Note_off_c, 1, 52, 0
1, 140352, Note_on_c, 1, 74, 127
1, 140352, Note_on_c, 1, 55, 127
1, 140416, Note_off_c, 1, 74, 0
1, 140448, Note_on_c, 1, 77, 127
1, 140512, Note_off_c, 1, 77, 0
1, 140540, Note_off_c, 1, 55, 0
1, 140544, Note_on_c, 1, 76, 127
1, 140544, Note_on_c, 1, 60, 127
1, 140636, Note_off_c, 1, 76, 0
1, 140640, Note_on_c, 1, 79, 127
1, 140672, Note_off_c, 1, 60, 0
1, 140732, Note_off_c, 1, 79, 0
1, 140736, Note_on_c, 1, 76, 127
1, 140736, Note_on_c, 1, 48, 127
1, 140828, Note_off_c, 1, 76, 0
1, 140828, Note_off_c, 1, 48, 0
1, 140832, Note_on_c, 1, 72, 127
1, 140832, Note_on_c, 1, 50, 127
1, 140924, Note_off_c, 1, 72, 0
1, 140924, Note_off_c, 1, 50, 0
1, 140928, Note_on_c, 1, 67, 127
1, 140928, Note_on_c, 1, 52, 127
1, 140992, Note_off_c, 1, 67, 0
1, 141024, Note_on_c, 1, 70, 127
1, 141088, Note_off_c, 1, 70, 0
1, 141116, Note_off_c, 1, 52, 0
1, 141120, Note_on_c, 1, 69, 127
1, 141120, Note_on_c, 1, 53, 127
1, 141184, Note_off_c, 1, 69, 0
1, 141216, Note_on_c, 1, 72, 127
1, 141280, Note_off_c, 1, 72, 0
1, 141308, Note_off_c, 1, 53, 0
1, 141312, Note_on_c, 1, 70, 127
1, 141312, Note_on_c, 1, 55, 127
1, 141404, Note_off_c, 1, 70, 0
1, 141408, Note_on_c, 1, 74, 127
1, 141440, Note_off_c, 1, 55, 0
1, 141500, Note_off_c, 1, 74, 0
1, 141504, Note_on_c, 1, 70, 127
1, 141504, Note_on_c, 1, 48, 127
1, 141596, Note_off_c, 1, 70, 0
1, 141596, Note_off_c, 1, 48, 0
1, 141600, Note_on_c, 1, 67, 127
1, 141600, Note_on_c, 1, 52, 127
1, 141692, Note_off_c, 1, 67, 0
1, 141692, Note_off_c, 1, 52, 0
1, 141696, Note_on_c, 1, 64, 127
1, 141696, Note_on_c, 1, 55, 127
1, 141760, Note_off_c, 1, 64, 0
1, 141792, Note_on_c, 1, 67, 127
1, 141856, Note_off_c, 1, 67, 0
1, 141884, Note_off_c, 1, 55, 0
1, 141888, Note_on_c, 1, 65, 127
1, 141888, Note_on_c, 1, 57, 127
1, 141952, Note_off_c, 1, 65, 0
1, 141984, Note_on_c, 1, 69, 127
1, 142048, Note_off_c, 1, 69, 0
1, 142076, Note_off_c, 1, 57, 0
1, 142080, Note_on_c, 1, 67, 127
1, 142080, Note_on_c, 1, 58, 127
1, 142172, Note_off_c, 1, 67, 0
1, 142176, Note_on_c, 1, 70, 127
1, 142208, Note_off_c, 1, 58, 0
1, 142268, Note_off_c, 1, 70, 0
1, 142272, Note_on_c, 1, 67, 127
1, 142272, Note_on_c, 1, 48, 127
1, 142364, Note_off_c, 1, 67, 0
1, 142364, Note_off_c, 1, 48, 0
1, 142368, Note_on_c, 1, 64, 127
1, 142368, Note_on_c, 1, 50, 127
1, 142460, Note_off_c, 1, 64, 0
1, 142460, Note_off_c, 1, 50, 0
1, 142464, Note_on_c, 1, 60, 127
1, 142464, Note_on_c, 1, 52, 127
1, 142528, Note_off_c, 1, 60, 0
1, 142560, Note_on_c, 1, 70, 127
1, 142652, Note_off_c, 1, 52, 0
1, 142652, Note_off_c, 1, 70, 0
1, 142656, Note_on_c, 1, 69, 127
1, 142656, Note_on_c, 1, 48, 127
1, 142748, Note_off_c, 1, 69, 0
1, 142752, Note_on_c, 1, 67, 127
1, 142844, Note_off_c, 1, 48, 0
1, 142844, Note_off_c, 1, 67, 0
1, 142848, Note_on_c, 1, 69, 127
1, 142848, Note_on_c, 1, 53, 127
1, 142940, Note_off_c, 1, 69, 0
1, 142940, Note_off_c, 1, 53, 0
1, 142944, Note_on_c, 1, 65, 127
1, 142944, Note_on_c, 1, 57, 127
1, 143036, Note_off_c, 1, 65, 0
1, 143036, Note_off_c, 1, 57, 0
1, 143040, Note_on_c, 1, 67, 127
1, 143040, Note_on_c, 1, 55, 127
1, 143132, Note_off_c, 1, 67, 0
1, 143132, Note_off_c, 1, 55, 0
1, 143136, Note_on_c, 1, 69, 127
1, 143136, Note_on_c, 1, 53, 127
1, 143228, Note_off_c, 1, 69, 0
1, 143228, Note_off_c, 1, 53, 0
1, 143232, Note_on_c, 1, 70, 127
1, 143232, Note_on_c, 1, 52, 127
1, 143324, Note_off_c, 1, 70, 0
1, 143324, Note_off_c, 1, 52, 0
1, 143328, Note_on_c, 1, 72, 127
1, 143328, Note_on_c, 1, 50, 127
1, 143420, Note_off_c, 1, 72, 0
1, 143420, Note_off_c, 1, 50, 0
1, 143424, Note_on_c, 1, 74, 127
1, 143424, Note_on_c, 1, 48, 127
1, 143516, Note_off_c, 1, 74, 0
1, 143516, Note_off_c, 1, 48, 0
1, 143520, Note_on_c, 1, 76, 127
1, 143520, Note_on_c, 1, 46, 127
1, 143612, Note_off_c, 1, 76, 0
1, 143612, Note_off_c, 1, 46, 0
1, 143616, Note_on_c, 1, 77, 127
1, 143616, Note_on_c, 1, 45, 127
1, 143708, Note_off_c, 1, 77, 0
1, 143708, Note_off_c, 1, 45, 0
1, 143712, Note_on_c, 1, 76, 127
1, 143712, Note_on_c, 1, 48, 127
1, 143804, Note_off_c, 1, 76, 0
1, 143804, Note_off_c, 1, 48, 0
1, 143808, Note_on_c, 1, 74, 127
1, 143808, Note_on_c, 1, 50, 127
1, 143900, Note_off_c, 1, 74, 0
1, 143900, Note_off_c, 1, 50, 0
1, 143904, Note_on_c, 1, 72, 127
1, 143904, Note_on_c, 1, 52, 127
1, 143996, Note_off_c, 1, 72, 0
1, 143996, Note_off_c, 1, 52, 0
1, 144000, Note_on_c, 1, 84, 127
1, 144000, Note_on_c, 1, 53, 127
1, 144092, Note_off_c, 1, 53, 0
1, 144096, Note_on_c, 1, 55, 127
1, 144128, Note_off_c, 1, 84, 0
1, 144188, Note_off_c, 1, 55, 0
1, 144192, Note_on_c, 1, 77, 127
1, 144192, Note_on_c, 1, 72, 127
1, 144192, Note_on_c, 1, 69, 127
1, 144192, Note_on_c, 1, 57, 127
1, 144284, Note_off_c, 1, 57, 0
1, 144288, Note_on_c, 1, 58, 127
1, 144320, Note_off_c, 1, 77, 0
1, 144320, Note_off_c, 1, 72, 0
1, 144320, Note_off_c, 1, 69, 0
1, 144380, Note_off_c, 1, 58, 0
1, 144384, Note_on_c, 1, 77, 127
1, 144384, Note_on_c, 1, 72, 127
1, 144384, Note_on_c, 1, 69, 127
1, 144384, Note_on_c, 1, 60, 127
1, 144764, Note_off_c, 1, 77, 0
1, 144764, Note_off_c, 1, 72, 0
1, 144764, Note_off_c, 1, 69, 0
1, 144764, Note_off_c, 1, 60, 0
1, 144768, Note_on_c, 1, 67, 127
1, 144768, Note_on_c, 1, 76, 127
1, 144768, Note_on_c, 1, 72, 127
1, 144768, Note_on_c, 1, 48, 127
1, 145024, Note_off_c, 1, 67, 0
1, 145024, Note_off_c, 1, 48, 0
1, 145152, Note_on_c, 1, 65, 127
1, 145152, Note_on_c, 1, 50, 127
1, 145216, Note_off_c, 1, 76, 0
1, 145248, Note_on_c, 1, 77, 127
1, 145280, Note_off_c, 1, 72, 0
1, 145344, Note_on_c, 1, 71, 127
1, 145408, Note_off_c, 1, 65, 0
1, 145440, Note_off_c, 1, 77, 0
1, 145532, Note_off_c, 1, 50, 0
1, 145600, Note_off_c, 1, 71, 0
1, 145632, Note_on_c, 1, 74, 127
1, 145696, Note_off_c, 1, 74, 0
1, 145728, Note_on_c, 1, 72, 127
1, 145728, Note_on_c, 1, 52, 127
1, 145792, Note_off_c, 1, 72, 0
1, 145824, Note_on_c, 1, 70, 127
1, 145856, Note_off_c, 1, 52, 0
1, 145888, Note_off_c, 1, 70, 0
1, 145920, Note_on_c, 1, 69, 127
1, 145920, Note_on_c, 1, 53, 127
1, 146016, Note_on_c, 1, 72, 127
1, 146108, Note_off_c, 1, 53, 0
1, 146108, Note_off_c, 1, 72, 0
1, 146112, Note_on_c, 1, 77, 127
1, 146112, Note_on_c, 1, 45, 127
1, 146204, Note_off_c, 1, 69, 0
1, 146300, Note_off_c, 1, 45, 0
1, 146304, Note_on_c, 1, 67, 127
1, 146304, Note_on_c, 1, 46, 127
1, 146492, Note_off_c, 1, 77, 0
1, 146492, Note_off_c, 1, 46, 0
1, 146496, Note_on_c, 1, 76, 127
1, 146496, Note_on_c, 1, 70, 127
1, 146496, Note_on_c, 1, 48, 127
1, 146684, Note_off_c, 1, 67, 0
1, 146684, Note_off_c, 1, 76, 0
1, 146684, Note_off_c, 1, 70, 0
1, 146684, Note_off_c, 1, 48, 0
1, 146688, Note_on_c, 1, 65, 127
1, 146688, Note_on_c, 1, 41, 127
1, 146724, Note_on_c, 1, 69, 127
1, 146748, Note_on_c, 1, 77, 127
1, 146772, Note_on_c, 1, 72, 127
1, 148028, Note_off_c, 1, 65, 0
1, 148028, Note_off_c, 1, 41, 0
1, 148028, Note_off_c, 1, 69, 0
1, 148028, Note_off_c, 1, 77, 0
1, 148028, Note_off_c, 1, 72, 0
1, 148028, End_track
0, 0, End_of_file