0, 0, Header, 1, 1, 480
1, 0, Start_track
1, 0, Title_t, "Test"
1, 0, Tempo, 500000
1, 0, Instrument_name_t, "Church Organ"
1, 96, Note_on_c, 1, 69, 127
1, 96, Note_on_c, 1, 60, 127
1, 96, Note_on_c, 1, 64, 127
1, 96, Note_on_c, 1, 57, 127
1, 162, Note_on_c, 1, 68, 127
1, 193, Note_off_c, 1, 69, 0
1, 228, Note_off_c, 1, 68, 0
1, 491, Note_off_c, 1, 60, 0
1, 493, Note_on_c, 1, 59, 127
1, 882, Note_off_c, 1, 64, 0
1, 882, Note_off_c, 1, 57, 0
1, 888, Note_off_c, 1, 59, 0
1, 890, Note_on_c, 1, 68, 127
1, 890, Note_on_c, 1, 60, 127
1, 890, Note_on_c, 1, 64, 127
1, 890, Note_on_c, 1, 45, 127
1, 1107, Note_off_c, 1, 68, 0
1, 1109, Note_on_c, 1, 69, 127
1, 1285, Note_off_c, 1, 60, 0
1, 1306, Note_off_c, 1, 69, 0
1, 1308, Note_on_c, 1, 71, 127
1, 1308, Note_on_c, 1, 62, 127
1, 1676, Note_off_c, 1, 64, 0
1, 1676, Note_off_c, 1, 45, 0
1, 1682, Note_off_c, 1, 71, 0
1, 1682, Note_off_c, 1, 62, 0
1, 1684, Note_on_c, 1, 69, 127
1, 1684, Note_on_c, 1, 64, 127
1, 1684, Note_on_c, 1, 59, 127
1, 1684, Note_on_c, 1, 52, 127
1, 1881, Note_off_c, 1, 69, 0
1, 1883, Note_on_c, 1, 68, 127
1, 1980, Note_off_c, 1, 68, 0
1, 2280, Note_on_c, 1, 66, 127
1, 2470, Note_off_c, 1, 64, 0
1, 2476, Note_off_c, 1, 59, 0
1, 2476, Note_off_c, 1, 66, 0
1, 2478, Note_on_c, 1, 56, 127
1, 2873, Note_off_c, 1, 52, 0
1, 2875, Note_on_c, 1, 50, 127
1, 3243, Note_off_c, 1, 56, 0
1, 3270, Note_off_c, 1, 50, 0
1, 3272, Note_on_c, 1, 64, 127
1, 3272, Note_on_c, 1, 69, 127
1, 3272, Note_on_c, 1, 57, 127
1, 3272, Note_on_c, 1, 48, 127
1, 4064, Note_off_c, 1, 64, 0
1, 4064, Note_off_c, 1, 69, 0
1, 4064, Note_off_c, 1, 57, 0
1, 4064, Note_off_c, 1, 48, 0
1, 4066, Note_on_c, 1, 69, 127
1, 4066, Note_on_c, 1, 62, 127
1, 4066, Note_on_c, 1, 52, 127
1, 4066, Note_on_c, 1, 44, 127
1, 4364, Note_off_c, 1, 69, 0
1, 4364, Note_on_c, 1, 71, 127
1, 4486, Note_off_c, 1, 71, 0
1, 4852, Note_off_c, 1, 62, 0
1, 4858, Note_off_c, 1, 52, 0
1, 4858, Note_off_c, 1, 44, 0
1, 4860, Note_on_c, 1, 74, 127
1, 4860, Note_on_c, 1, 60, 127
1, 4860, Note_on_c, 1, 57, 127
1, 4860, Note_on_c, 1, 45, 127
1, 5056, Note_off_c, 1, 74, 0
1, 5058, Note_on_c, 1, 72, 127
1, 5255, Note_off_c, 1, 72, 0
1, 5646, Note_off_c, 1, 60, 0
1, 5652, Note_off_c, 1, 57, 0
1, 5652, Note_off_c, 1, 45, 0
1, 5654, Note_on_c, 1, 57, 127
1, 5654, Note_on_c, 1, 69, 127
1, 5654, Note_on_c, 1, 64, 127
1, 5654, Note_on_c, 1, 60, 127
1, 6049, Note_off_c, 1, 57, 0
1, 6051, Note_on_c, 1, 59, 127
1, 6316, Note_off_c, 1, 69, 0
1, 6316, Note_off_c, 1, 64, 0
1, 6440, Note_off_c, 1, 60, 0
1, 6446, Note_off_c, 1, 59, 0
1, 6448, Note_on_c, 1, 78, 127
1, 6448, Note_on_c, 1, 63, 127
1, 6448, Note_on_c, 1, 60, 127
1, 6448, Note_on_c, 1, 69, 127
1, 6514, Note_on_c, 1, 76, 127
1, 6547, Note_off_c, 1, 78, 0
1, 6611, Note_off_c, 1, 76, 0
1, 7101, Note_on_c, 1, 79, 127
1, 7239, Note_off_c, 1, 63, 0
1, 7239, Note_off_c, 1, 79, 0
1, 7241, Note_on_c, 1, 64, 127
1, 7539, Note_on_c, 1, 81, 127
1, 7636, Note_off_c, 1, 60, 0
1, 7638, Note_on_c, 1, 59, 127
1, 7679, Note_off_c, 1, 81, 0
1, 7835, Note_off_c, 1, 59, 0
1, 7837, Note_on_c, 1, 57, 127
1, 8027, Note_off_c, 1, 64, 0
1, 8033, Note_off_c, 1, 69, 0
1, 8033, Note_off_c, 1, 57, 0
1, 8035, Note_on_c, 1, 66, 127
1, 8432, Note_on_c, 1, 75, 127
1, 8629, Note_off_c, 1, 75, 0
1, 8631, Note_on_c, 1, 71, 127
1, 8821, Note_off_c, 1, 66, 0
1, 8827, Note_off_c, 1, 71, 0
1, 8829, Note_on_c, 1, 55, 127
1, 9224, Note_off_c, 1, 55, 0
1, 9425, Note_on_c, 1, 67, 127
1, 9622, Note_off_c, 1, 67, 0
1, 10418, Note_on_c, 1, 54, 127
1, 10418, Note_on_c, 1, 47, 127
1, 10813, Note_off_c, 1, 54, 0
1, 10815, Note_on_c, 1, 56, 127
1, 11012, Note_off_c, 1, 56, 0
1, 11204, Note_off_c, 1, 47, 0
1, 11212, Note_on_c, 1, 52, 127
1, 11998, Note_off_c, 1, 52, 0
1, 12006, Note_on_c, 1, 40, 127
1, 12750, Note_off_c, 1, 40, 0
1, 12799, Note_on_c, 1, 71, 127
1, 12799, Note_on_c, 1, 64, 127
1, 12799, Note_on_c, 1, 55, 127
1, 12799, Note_on_c, 1, 48, 127
1, 12996, Note_off_c, 1, 71, 0
1, 12998, Note_on_c, 1, 72, 127
1, 13192, Note_off_c, 1, 64, 0
1, 13194, Note_off_c, 1, 72, 0
1, 13196, Note_on_c, 1, 62, 127
1, 13579, Note_off_c, 1, 55, 0
1, 13589, Note_off_c, 1, 62, 0
1, 13593, Note_on_c, 1, 36, 127
1, 13990, Note_on_c, 1, 65, 127
1, 14189, Note_on_c, 1, 74, 127
1, 14370, Note_off_c, 1, 48, 0
1, 14383, Note_off_c, 1, 65, 0
1, 14385, Note_off_c, 1, 36, 0
1, 14385, Note_off_c, 1, 74, 0
1, 14387, Note_on_c, 1, 72, 127
1, 14387, Note_on_c, 1, 55, 127
1, 14387, Note_on_c, 1, 62, 127
1, 14478, Note_on_c, 1, 71, 127
1, 14536, Note_off_c, 1, 72, 0
1, 14627, Note_off_c, 1, 71, 0
1, 14784, Note_on_c, 1, 69, 127
1, 14784, Note_on_c, 1, 57, 127
1, 14981, Note_off_c, 1, 69, 0
1, 14983, Note_on_c, 1, 67, 127
1, 15180, Note_off_c, 1, 57, 0
1, 15180, Note_off_c, 1, 67, 0
1, 15182, Note_on_c, 1, 59, 127
1, 15577, Note_off_c, 1, 55, 0
1, 15579, Note_on_c, 1, 54, 127
1, 15968, Note_off_c, 1, 59, 0
1, 15974, Note_off_c, 1, 62, 0
1, 15974, Note_off_c, 1, 54, 0
1, 15976, Note_on_c, 1, 75, 127
1, 15976, Note_on_c, 1, 67, 127
1, 15976, Note_on_c, 1, 59, 127
1, 15976, Note_on_c, 1, 52, 127
1, 16173, Note_off_c, 1, 75, 0
1, 16175, Note_on_c, 1, 76, 127
1, 16369, Note_off_c, 1, 67, 0
1, 16371, Note_off_c, 1, 76, 0
1, 16373, Note_on_c, 1, 66, 127
1, 16746, Note_off_c, 1, 59, 0
1, 16766, Note_off_c, 1, 66, 0
1, 16770, Note_on_c, 1, 40, 127
1, 17167, Note_on_c, 1, 69, 127
1, 17366, Note_on_c, 1, 78, 127
1, 17550, Note_off_c, 1, 52, 0
1, 17560, Note_off_c, 1, 69, 0
1, 17562, Note_off_c, 1, 40, 0
1, 17562, Note_off_c, 1, 78, 0
1, 17564, Note_on_c, 1, 76, 127
1, 17564, Note_on_c, 1, 59, 127
1, 17564, Note_on_c, 1, 66, 127
1, 17686, Note_off_c, 1, 76, 0
1, 17709, Note_on_c, 1, 75, 127
1, 17807, Note_off_c, 1, 75, 0
1, 17963, Note_on_c, 1, 73, 127
1, 17963, Note_on_c, 1, 61, 127
1, 18160, Note_off_c, 1, 73, 0
1, 18162, Note_on_c, 1, 71, 127
1, 18359, Note_off_c, 1, 61, 0
1, 18359, Note_off_c, 1, 71, 0
1, 18361, Note_on_c, 1, 63, 127
1, 18756, Note_off_c, 1, 59, 0
1, 18758, Note_on_c, 1, 57, 127
1, 19097, Note_off_c, 1, 66, 0
1, 19147, Note_off_c, 1, 63, 0
1, 19153, Note_off_c, 1, 57, 0
1, 19155, Note_on_c, 1, 74, 127
1, 19155, Note_on_c, 1, 56, 127
1, 19155, Note_on_c, 1, 64, 127
1, 19155, Note_on_c, 1, 59, 127
1, 19254, Note_on_c, 1, 73, 127
1, 19304, Note_off_c, 1, 74, 0
1, 19404, Note_off_c, 1, 73, 0
1, 19948, Note_off_c, 1, 56, 0
1, 19950, Note_on_c, 1, 68, 127
1, 19950, Note_on_c, 1, 52, 127
1, 20190, Note_on_c, 1, 76, 127
1, 20286, Note_off_c, 1, 76, 0
1, 20737, Note_off_c, 1, 68, 0
1, 20743, Note_off_c, 1, 64, 0
1, 20743, Note_off_c, 1, 59, 0
1, 20743, Note_off_c, 1, 52, 0
1, 20745, Note_on_c, 1, 57, 127
1, 20745, Note_on_c, 1, 73, 127
1, 20745, Note_on_c, 1, 64, 127
1, 20745, Note_on_c, 1, 69, 127
1, 21140, Note_off_c, 1, 57, 0
1, 21142, Note_on_c, 1, 55, 127
1, 21537, Note_off_c, 1, 73, 0
1, 21537, Note_off_c, 1, 64, 0
1, 21537, Note_off_c, 1, 69, 0
1, 21537, Note_off_c, 1, 55, 0
1, 21539, Note_on_c, 1, 74, 127
1, 21539, Note_on_c, 1, 53, 127
1, 21539, Note_on_c, 1, 62, 127
1, 21870, Note_off_c, 1, 74, 0
1, 21934, Note_off_c, 1, 53, 0
1, 21936, Note_on_c, 1, 65, 127
1, 21936, Note_on_c, 1, 50, 127
1, 22288, Note_off_c, 1, 65, 0
1, 22331, Note_off_c, 1, 50, 0
1, 22333, Note_on_c, 1, 43, 127
1, 22333, Note_on_c, 1, 58, 127
1, 22532, Note_on_c, 1, 64, 127
1, 22598, Note_off_c, 1, 64, 0
1, 22728, Note_off_c, 1, 43, 0
1, 22728, Note_off_c, 1, 58, 0
1, 22730, Note_on_c, 1, 57, 127
1, 22730, Note_on_c, 1, 46, 127
1, 22926, Note_off_c, 1, 57, 0
1, 22928, Note_on_c, 1, 55, 127
1, 23110, Note_off_c, 1, 62, 0
1, 23122, Note_off_c, 1, 46, 0
1, 23124, Note_off_c, 1, 55, 0
1, 23126, Note_on_c, 1, 45, 127
1, 23325, Note_on_c, 1, 61, 127
1, 23395, Note_off_c, 1, 61, 0
1, 23523, Note_on_c, 1, 52, 127
1, 23719, Note_off_c, 1, 52, 0
1, 23911, Note_off_c, 1, 45, 0
1, 24317, Note_on_c, 1, 54, 127
1, 24514, Note_off_c, 1, 54, 0
1, 24714, Note_on_c, 1, 38, 127
1, 25506, Note_off_c, 1, 38, 0
1, 25508, Note_on_c, 1, 77, 127
1, 25508, Note_on_c, 1, 62, 127
1, 25508, Note_on_c, 1, 50, 127
1, 25508, Note_on_c, 1, 69, 127
1, 25508, Note_on_c, 1, 57, 127
1, 25607, Note_on_c, 1, 76, 127
1, 25659, Note_off_c, 1, 77, 0
1, 25759, Note_off_c, 1, 76, 0
1, 25906, Note_on_c, 1, 79, 127
1, 26295, Note_off_c, 1, 62, 0
1, 26301, Note_off_c, 1, 50, 0
1, 26301, Note_off_c, 1, 79, 0
1, 26303, Note_on_c, 1, 48, 127
1, 26502, Note_on_c, 1, 81, 127
1, 26698, Note_off_c, 1, 69, 0
1, 26698, Note_off_c, 1, 57, 0
1, 26698, Note_off_c, 1, 48, 0
1, 26698, Note_off_c, 1, 81, 0
1, 26700, Note_on_c, 1, 74, 127
1, 26700, Note_on_c, 1, 67, 127
1, 26700, Note_on_c, 1, 62, 127
1, 26700, Note_on_c, 1, 46, 127
1, 27095, Note_off_c, 1, 74, 0
1, 27095, Note_off_c, 1, 67, 0
1, 27095, Note_off_c, 1, 62, 0
1, 27095, Note_off_c, 1, 46, 0
1, 27097, Note_on_c, 1, 74, 127
1, 27097, Note_on_c, 1, 64, 127
1, 27097, Note_on_c, 1, 69, 127
1, 27097, Note_on_c, 1, 45, 127
1, 27196, Note_on_c, 1, 73, 127
1, 27229, Note_off_c, 1, 74, 0
1, 27295, Note_off_c, 1, 73, 0
1, 27491, Note_off_c, 1, 64, 0
1, 27493, Note_on_c, 1, 71, 127
1, 27493, Note_on_c, 1, 62, 127
1, 27882, Note_off_c, 1, 69, 0
1, 27888, Note_off_c, 1, 71, 0
1, 27888, Note_off_c, 1, 62, 0
1, 27890, Note_on_c, 1, 61, 127
1, 28682, Note_off_c, 1, 45, 0
1, 28682, Note_off_c, 1, 61, 0
1, 28684, Note_on_c, 1, 72, 127
1, 28684, Note_on_c, 1, 69, 127
1, 28684, Note_on_c, 1, 57, 127
1, 28684, Note_on_c, 1, 64, 127
1, 28783, Note_on_c, 1, 71, 127
1, 28833, Note_off_c, 1, 72, 0
1, 28933, Note_off_c, 1, 71, 0
1, 29082, Note_on_c, 1, 74, 127
1, 29471, Note_off_c, 1, 69, 0
1, 29477, Note_off_c, 1, 57, 0
1, 29477, Note_off_c, 1, 74, 0
1, 29479, Note_on_c, 1, 59, 127
1, 29479, Note_on_c, 1, 55, 127
1, 29678, Note_on_c, 1, 76, 127
1, 29875, Note_off_c, 1, 64, 0
1, 29875, Note_off_c, 1, 59, 0
1, 29875, Note_off_c, 1, 55, 0
1, 29875, Note_off_c, 1, 76, 0
1, 29877, Note_on_c, 1, 69, 127
1, 29877, Note_on_c, 1, 62, 127
1, 29877, Note_on_c, 1, 53, 127
1, 30272, Note_off_c, 1, 69, 0
1, 30272, Note_off_c, 1, 62, 0
1, 30272, Note_off_c, 1, 53, 0
1, 30274, Note_on_c, 1, 69, 127
1, 30274, Note_on_c, 1, 59, 127
1, 30274, Note_on_c, 1, 64, 127
1, 30274, Note_on_c, 1, 52, 127
1, 30415, Note_off_c, 1, 69, 0
1, 30415, Note_on_c, 1, 68, 127
1, 30498, Note_off_c, 1, 68, 0
1, 30669, Note_off_c, 1, 59, 0
1, 30671, Note_on_c, 1, 66, 127
1, 30671, Note_on_c, 1, 57, 127
1, 31060, Note_off_c, 1, 64, 0
1, 31066, Note_off_c, 1, 66, 0
1, 31066, Note_off_c, 1, 57, 0
1, 31068, Note_on_c, 1, 56, 127
1, 31833, Note_off_c, 1, 56, 0
1, 31860, Note_off_c, 1, 52, 0
1, 31862, Note_on_c, 1, 74, 127
1, 31862, Note_on_c, 1, 62, 127
1, 31862, Note_on_c, 1, 50, 127
1, 31862, Note_on_c, 1, 59, 127
1, 32059, Note_off_c, 1, 74, 0
1, 32061, Note_on_c, 1, 76, 127
1, 32258, Note_off_c, 1, 76, 0
1, 32260, Note_on_c, 1, 77, 127
1, 32655, Note_off_c, 1, 77, 0
1, 33053, Note_on_c, 1, 71, 127
1, 33448, Note_off_c, 1, 62, 0
1, 33448, Note_off_c, 1, 71, 0
1, 33450, Note_on_c, 1, 69, 127
1, 33450, Note_on_c, 1, 64, 127
1, 33647, Note_off_c, 1, 69, 0
1, 33649, Note_on_c, 1, 68, 127
1, 33843, Note_off_c, 1, 64, 0
1, 34041, Note_off_c, 1, 68, 0
1, 34242, Note_off_c, 1, 50, 0
1, 34242, Note_off_c, 1, 59, 0
1, 34244, Note_on_c, 1, 68, 127
1, 34244, Note_on_c, 1, 51, 127
1, 34244, Note_on_c, 1, 54, 127
1, 34441, Note_off_c, 1, 68, 0
1, 34443, Note_on_c, 1, 69, 127
1, 34642, Note_on_c, 1, 60, 127
1, 35037, Note_off_c, 1, 51, 0
1, 35037, Note_off_c, 1, 54, 0
1, 35037, Note_off_c, 1, 60, 0
1, 35039, Note_on_c, 1, 52, 127
1, 35039, Note_on_c, 1, 59, 127
1, 35633, Note_off_c, 1, 69, 0
1, 35635, Note_on_c, 1, 71, 127
1, 35732, Note_off_c, 1, 71, 0
1, 35734, Note_on_c, 1, 72, 127
1, 35831, Note_off_c, 1, 52, 0
1, 35831, Note_off_c, 1, 72, 0
1, 35833, Note_on_c, 1, 40, 127
1, 35833, Note_on_c, 1, 62, 127
1, 36623, Note_off_c, 1, 59, 0
1, 36623, Note_off_c, 1, 40, 0
1, 36625, Note_on_c, 1, 64, 127
1, 36625, Note_on_c, 1, 45, 127
1, 37020, Note_off_c, 1, 62, 0
1, 37022, Note_on_c, 1, 61, 127
1, 37219, Note_off_c, 1, 61, 0
1, 38212, Note_off_c, 1, 64, 0
1, 38212, Note_off_c, 1, 45, 0
1, 38230, Note_on_c, 1, 69, 127
1, 38230, Note_on_c, 1, 57, 127
1, 38296, Note_on_c, 1, 68, 127
1, 38327, Note_off_c, 1, 69, 0
1, 38362, Note_off_c, 1, 68, 0
1, 38627, Note_on_c, 1, 72, 127
1, 38824, Note_off_c, 1, 72, 0
1, 38826, Note_on_c, 1, 76, 127
1, 39023, Note_off_c, 1, 57, 0
1, 39023, Note_off_c, 1, 76, 0
1, 39025, Note_on_c, 1, 74, 127
1, 39025, Note_on_c, 1, 45, 127
1, 39091, Note_off_c, 1, 74, 0
1, 39091, Note_on_c, 1, 72, 127
1, 39157, Note_off_c, 1, 72, 0
1, 39422, Note_on_c, 1, 69, 127
1, 39619, Note_off_c, 1, 69, 0
1, 39818, Note_off_c, 1, 45, 0
1, 39820, Note_on_c, 1, 69, 127
1, 39820, Note_on_c, 1, 52, 127
1, 39886, Note_off_c, 1, 69, 0
1, 39886, Note_on_c, 1, 68, 127
1, 39952, Note_off_c, 1, 68, 0
1, 40217, Note_on_c, 1, 71, 127
1, 40414, Note_off_c, 1, 71, 0
1, 40416, Note_on_c, 1, 76, 127
1, 40613, Note_off_c, 1, 52, 0
1, 40613, Note_off_c, 1, 76, 0
1, 40615, Note_on_c, 1, 69, 127
1, 40615, Note_on_c, 1, 40, 127
1, 40681, Note_off_c, 1, 69, 0
1, 40681, Note_on_c, 1, 68, 127
1, 40747, Note_off_c, 1, 68, 0
1, 41012, Note_on_c, 1, 64, 127
1, 41209, Note_off_c, 1, 64, 0
1, 41408, Note_off_c, 1, 40, 0
1, 41410, Note_on_c, 1, 69, 127
1, 41410, Note_on_c, 1, 57, 127
1, 41507, Note_off_c, 1, 69, 0
1, 41509, Note_on_c, 1, 68, 127
1, 41606, Note_off_c, 1, 68, 0
1, 41805, Note_off_c, 1, 57, 0
1, 41807, Note_on_c, 1, 60, 127
1, 42004, Note_off_c, 1, 60, 0
1, 42006, Note_on_c, 1, 64, 127
1, 42203, Note_off_c, 1, 64, 0
1, 42205, Note_on_c, 1, 72, 127
1, 42205, Note_on_c, 1, 56, 127
1, 42437, Note_off_c, 1, 72, 0
1, 42439, Note_on_c, 1, 71, 127
1, 42534, Note_off_c, 1, 71, 0
1, 42600, Note_off_c, 1, 56, 0
1, 42602, Note_on_c, 1, 52, 127
1, 42798, Note_off_c, 1, 52, 0
1, 42800, Note_on_c, 1, 69, 127
1, 42899, Note_off_c, 1, 69, 0
1, 42998, Note_on_c, 1, 72, 127
1, 42998, Note_on_c, 1, 57, 127
1, 43064, Note_on_c, 1, 71, 127
1, 43095, Note_off_c, 1, 72, 0
1, 43130, Note_off_c, 1, 71, 0
1, 43395, Note_on_c, 1, 76, 127
1, 43592, Note_off_c, 1, 76, 0
1, 43791, Note_off_c, 1, 57, 0
1, 43793, Note_on_c, 1, 69, 127
1, 43793, Note_on_c, 1, 45, 127
1, 44145, Note_off_c, 1, 69, 0
1, 44188, Note_off_c, 1, 45, 0
1, 44190, Note_on_c, 1, 84, 127
1, 44190, Note_on_c, 1, 57, 127
1, 44387, Note_off_c, 1, 84, 0
1, 44389, Note_on_c, 1, 81, 127
1, 44586, Note_off_c, 1, 57, 0
1, 44586, Note_off_c, 1, 81, 0
1, 44588, Note_on_c, 1, 79, 127
1, 44588, Note_on_c, 1, 60, 127
1, 44654, Note_off_c, 1, 79, 0
1, 44654, Note_on_c, 1, 78, 127
1, 44720, Note_off_c, 1, 78, 0
1, 44983, Note_off_c, 1, 60, 0
1, 44985, Note_on_c, 1, 57, 127
1, 45182, Note_off_c, 1, 57, 0
1, 45250, Note_on_c, 1, 76, 127
1, 45316, Note_off_c, 1, 76, 0
1, 45382, Note_on_c, 1, 54, 127
1, 45777, Note_off_c, 1, 54, 0
1, 45977, Note_on_c, 1, 81, 127
1, 45977, Note_on_c, 1, 54, 127
1, 46174, Note_off_c, 1, 81, 0
1, 46174, Note_off_c, 1, 54, 0
1, 46176, Note_on_c, 1, 76, 127
1, 46176, Note_on_c, 1, 59, 127
1, 46242, Note_off_c, 1, 76, 0
1, 46242, Note_on_c, 1, 75, 127
1, 46308, Note_off_c, 1, 75, 0
1, 46571, Note_off_c, 1, 59, 0
1, 46573, Note_on_c, 1, 78, 127
1, 46573, Note_on_c, 1, 57, 127
1, 46770, Note_off_c, 1, 78, 0
1, 46772, Note_on_c, 1, 71, 127
1, 46969, Note_off_c, 1, 57, 0
1, 46969, Note_off_c, 1, 71, 0
1, 46971, Note_on_c, 1, 76, 127
1, 46971, Note_on_c, 1, 55, 127
1, 47366, Note_off_c, 1, 76, 0
1, 47366, Note_off_c, 1, 55, 0
1, 47368, Note_on_c, 1, 64, 127
1, 47368, Note_on_c, 1, 60, 127
1, 47565, Note_off_c, 1, 64, 0
1, 47567, Note_on_c, 1, 67, 127
1, 47764, Note_off_c, 1, 60, 0
1, 47764, Note_off_c, 1, 67, 0
1, 47766, Note_on_c, 1, 69, 127
1, 47766, Note_on_c, 1, 57, 127
1, 47863, Note_off_c, 1, 69, 0
1, 47865, Note_on_c, 1, 71, 127
1, 47962, Note_off_c, 1, 71, 0
1, 47964, Note_on_c, 1, 72, 127
1, 48161, Note_off_c, 1, 57, 0
1, 48161, Note_off_c, 1, 72, 0
1, 48163, Note_on_c, 1, 69, 127
1, 48163, Note_on_c, 1, 54, 127
1, 48360, Note_off_c, 1, 69, 0
1, 48362, Note_on_c, 1, 66, 127
1, 48559, Note_off_c, 1, 54, 0
1, 48559, Note_off_c, 1, 66, 0
1, 48561, Note_on_c, 1, 64, 127
1, 48561, Note_on_c, 1, 59, 127
1, 48826, Note_off_c, 1, 64, 0
1, 48826, Note_on_c, 1, 63, 127
1, 48892, Note_off_c, 1, 63, 0
1, 48956, Note_off_c, 1, 59, 0
1, 48958, Note_on_c, 1, 47, 127
1, 49354, Note_off_c, 1, 47, 0
1, 49356, Note_on_c, 1, 64, 127
1, 49356, Note_on_c, 1, 52, 127
1, 49422, Note_on_c, 1, 63, 127
1, 49453, Note_off_c, 1, 64, 0
1, 49488, Note_off_c, 1, 63, 0
1, 49751, Note_off_c, 1, 52, 0
1, 49753, Note_on_c, 1, 56, 127
1, 49950, Note_off_c, 1, 56, 0
1, 49952, Note_on_c, 1, 59, 127
1, 50149, Note_off_c, 1, 59, 0
1, 50549, Note_on_c, 1, 40, 127
1, 50944, Note_off_c, 1, 40, 0
1, 50946, Note_on_c, 1, 72, 127
1, 50946, Note_on_c, 1, 48, 127
1, 51012, Note_off_c, 1, 72, 0
1, 51012, Note_on_c, 1, 71, 127
1, 51078, Note_off_c, 1, 71, 0
1, 51343, Note_on_c, 1, 76, 127
1, 51540, Note_off_c, 1, 76, 0
1, 51542, Note_on_c, 1, 79, 127
1, 51739, Note_off_c, 1, 48, 0
1, 51739, Note_off_c, 1, 79, 0
1, 51741, Note_on_c, 1, 77, 127
1, 51741, Note_on_c, 1, 36, 127
1, 51807, Note_off_c, 1, 77, 0
1, 51807, Note_on_c, 1, 76, 127
1, 51873, Note_off_c, 1, 76, 0
1, 52138, Note_on_c, 1, 72, 127
1, 52335, Note_off_c, 1, 72, 0
1, 52534, Note_off_c, 1, 36, 0
1, 52536, Note_on_c, 1, 71, 127
1, 52536, Note_on_c, 1, 43, 127
1, 52931, Note_off_c, 1, 71, 0
1, 52933, Note_on_c, 1, 74, 127
1, 53130, Note_off_c, 1, 74, 0
1, 53132, Note_on_c, 1, 79, 127
1, 53329, Note_off_c, 1, 43, 0
1, 53329, Note_off_c, 1, 79, 0
1, 53331, Note_on_c, 1, 67, 127
1, 53331, Note_on_c, 1, 55, 127
1, 53428, Note_off_c, 1, 67, 0
1, 53430, Note_on_c, 1, 66, 127
1, 53527, Note_off_c, 1, 66, 0
1, 53726, Note_off_c, 1, 55, 0
1, 53728, Note_on_c, 1, 59, 127
1, 53925, Note_off_c, 1, 59, 0
1, 54126, Note_on_c, 1, 76, 127
1, 54126, Note_on_c, 1, 52, 127
1, 54192, Note_off_c, 1, 76, 0
1, 54192, Note_on_c, 1, 75, 127
1, 54258, Note_off_c, 1, 75, 0
1, 54523, Note_on_c, 1, 79, 127
1, 54720, Note_off_c, 1, 79, 0
1, 54722, Note_on_c, 1, 83, 127
1, 54919, Note_off_c, 1, 52, 0
1, 54919, Note_off_c, 1, 83, 0
1, 54921, Note_on_c, 1, 81, 127
1, 54921, Note_on_c, 1, 40, 127
1, 54987, Note_off_c, 1, 81, 0
1, 54987, Note_on_c, 1, 79, 127
1, 55053, Note_off_c, 1, 79, 0
1, 55318, Note_on_c, 1, 76, 127
1, 55515, Note_off_c, 1, 76, 0
1, 55714, Note_off_c, 1, 40, 0
1, 55716, Note_on_c, 1, 75, 127
1, 55716, Note_on_c, 1, 47, 127
1, 56111, Note_off_c, 1, 75, 0
1, 56113, Note_on_c, 1, 78, 127
1, 56310, Note_off_c, 1, 78, 0
1, 56312, Note_on_c, 1, 83, 127
1, 56509, Note_off_c, 1, 47, 0
1, 56509, Note_off_c, 1, 83, 0
1, 56511, Note_on_c, 1, 71, 127
1, 56511, Note_on_c, 1, 59, 127
1, 56608, Note_off_c, 1, 71, 0
1, 56610, Note_on_c, 1, 69, 127
1, 56707, Note_off_c, 1, 69, 0
1, 56906, Note_off_c, 1, 59, 0
1, 56908, Note_on_c, 1, 63, 127
1, 57105, Note_off_c, 1, 63, 0
1, 57306, Note_on_c, 1, 76, 127
1, 57306, Note_on_c, 1, 56, 127
1, 57372, Note_off_c, 1, 76, 0
1, 57372, Note_on_c, 1, 74, 127
1, 57438, Note_off_c, 1, 74, 0
1, 57703, Note_on_c, 1, 77, 127
1, 57900, Note_off_c, 1, 77, 0
1, 58099, Note_off_c, 1, 56, 0
1, 58101, Note_on_c, 1, 74, 127
1, 58101, Note_on_c, 1, 57, 127
1, 58473, Note_off_c, 1, 74, 0
1, 58498, Note_on_c, 1, 77, 127
1, 58695, Note_off_c, 1, 77, 0
1, 58697, Note_on_c, 1, 76, 127
1, 58894, Note_off_c, 1, 57, 0
1, 58894, Note_off_c, 1, 76, 0
1, 58896, Note_on_c, 1, 74, 127
1, 58896, Note_on_c, 1, 58, 127
1, 59248, Note_off_c, 1, 74, 0
1, 59294, Note_on_c, 1, 77, 127
1, 59491, Note_off_c, 1, 77, 0
1, 59493, Note_on_c, 1, 76, 127
1, 59690, Note_off_c, 1, 58, 0
1, 59690, Note_off_c, 1, 76, 0
1, 59692, Note_on_c, 1, 74, 127
1, 59692, Note_on_c, 1, 53, 127
1, 60023, Note_off_c, 1, 74, 0
1, 60089, Note_on_c, 1, 77, 127
1, 60286, Note_off_c, 1, 77, 0
1, 60288, Note_on_c, 1, 75, 127
1, 60485, Note_off_c, 1, 53, 0
1, 60485, Note_off_c, 1, 75, 0
1, 60487, Note_on_c, 1, 75, 127
1, 60487, Note_on_c, 1, 55, 127
1, 60607, Note_on_c, 1, 74, 127
1, 60609, Note_off_c, 1, 75, 0
1, 60727, Note_on_c, 1, 73, 127
1, 60729, Note_off_c, 1, 74, 0
1, 60880, Note_off_c, 1, 73, 0
1, 60882, Note_off_c, 1, 55, 0
1, 60884, Note_on_c, 1, 74, 127
1, 60884, Note_on_c, 1, 56, 127
1, 61101, Note_off_c, 1, 74, 0
1, 61103, Note_on_c, 1, 65, 127
1, 61279, Note_off_c, 1, 56, 0
1, 61279, Note_off_c, 1, 65, 0
1, 61281, Note_on_c, 1, 65, 127
1, 61281, Note_on_c, 1, 57, 127
1, 61413, Note_off_c, 1, 65, 0
1, 61413, Note_on_c, 1, 64, 127
1, 61479, Note_off_c, 1, 64, 0
1, 61675, Note_off_c, 1, 57, 0
1, 61677, Note_on_c, 1, 45, 127
1, 61876, Note_on_c, 1, 62, 127
1, 62073, Note_off_c, 1, 45, 0
1, 62073, Note_off_c, 1, 62, 0
1, 62075, Note_on_c, 1, 62, 127
1, 62075, Note_on_c, 1, 50, 127
1, 62158, Note_on_c, 1, 61, 127
1, 62177, Note_off_c, 1, 62, 0
1, 62239, Note_off_c, 1, 61, 0
1, 62471, Note_off_c, 1, 50, 0
1, 62473, Note_on_c, 1, 53, 127
1, 62670, Note_off_c, 1, 53, 0
1, 62871, Note_on_c, 1, 38, 127
1, 63663, Note_off_c, 1, 38, 0
1, 63665, Note_on_c, 1, 50, 127
1, 64060, Note_off_c, 1, 50, 0
1, 64062, Note_on_c, 1, 77, 127
1, 64062, Note_on_c, 1, 52, 127
1, 64259, Note_off_c, 1, 77, 0
1, 64261, Note_on_c, 1, 79, 127
1, 64458, Note_off_c, 1, 52, 0
1, 64458, Note_off_c, 1, 79, 0
1, 64460, Note_on_c, 1, 81, 127
1, 64460, Note_on_c, 1, 53, 127
1, 64855, Note_off_c, 1, 81, 0
1, 64855, Note_off_c, 1, 53, 0
1, 64857, Note_on_c, 1, 77, 127
1, 64857, Note_on_c, 1, 55, 127
1, 65054, Note_off_c, 1, 77, 0
1, 65056, Note_on_c, 1, 74, 127
1, 65253, Note_off_c, 1, 55, 0
1, 65253, Note_off_c, 1, 74, 0
1, 65255, Note_on_c, 1, 74, 127
1, 65255, Note_on_c, 1, 57, 127
1, 65338, Note_on_c, 1, 73, 127
1, 65344, Note_off_c, 1, 74, 0
1, 65412, Note_off_c, 1, 73, 0
1, 65860, Note_on_c, 1, 76, 127
1, 66036, Note_off_c, 1, 76, 0
1, 66047, Note_off_c, 1, 57, 0
1, 66049, Note_on_c, 1, 45, 127
1, 66049, Note_on_c, 1, 69, 127
1, 66446, Note_on_c, 1, 52, 127
1, 66835, Note_off_c, 1, 45, 0
1, 66841, Note_off_c, 1, 52, 0
1, 66843, Note_on_c, 1, 57, 127
1, 67238, Note_off_c, 1, 57, 0
1, 67240, Note_on_c, 1, 72, 127
1, 67240, Note_on_c, 1, 59, 127
1, 67430, Note_off_c, 1, 69, 0
1, 67436, Note_off_c, 1, 72, 0
1, 67438, Note_on_c, 1, 74, 127
1, 67635, Note_off_c, 1, 59, 0
1, 67635, Note_off_c, 1, 74, 0
1, 67637, Note_on_c, 1, 74, 127
1, 67637, Note_on_c, 1, 60, 127
1, 67834, Note_off_c, 1, 74, 0
1, 67836, Note_on_c, 1, 76, 127
1, 68033, Note_off_c, 1, 60, 0
1, 68033, Note_off_c, 1, 76, 0
1, 68035, Note_on_c, 1, 72, 127
1, 68035, Note_on_c, 1, 62, 127
1, 68232, Note_off_c, 1, 72, 0
1, 68234, Note_on_c, 1, 69, 127
1, 68431, Note_off_c, 1, 62, 0
1, 68431, Note_off_c, 1, 69, 0
1, 68433, Note_on_c, 1, 69, 127
1, 68433, Note_on_c, 1, 64, 127
1, 68514, Note_off_c, 1, 69, 0
1, 68516, Note_on_c, 1, 68, 127
1, 68597, Note_off_c, 1, 68, 0
1, 69030, Note_on_c, 1, 71, 127
1, 69227, Note_off_c, 1, 64, 0
1, 69227, Note_off_c, 1, 71, 0
1, 69229, Note_on_c, 1, 52, 127
1, 69229, Note_on_c, 1, 64, 127
1, 69624, Note_off_c, 1, 52, 0
1, 69626, Note_on_c, 1, 53, 127
1, 69823, Note_off_c, 1, 53, 0
1, 69891, Note_off_c, 1, 64, 0
1, 70023, Note_on_c, 1, 77, 127
1, 70023, Note_on_c, 1, 50, 127
1, 70104, Note_off_c, 1, 77, 0
1, 70106, Note_on_c, 1, 76, 127
1, 70187, Note_off_c, 1, 76, 0
1, 70421, Note_on_c, 1, 74, 127
1, 70617, Note_off_c, 1, 74, 0
1, 70809, Note_off_c, 1, 50, 0
1, 70817, Note_on_c, 1, 72, 127
1, 70896, Note_on_c, 1, 71, 127
1, 70900, Note_off_c, 1, 72, 0
1, 70978, Note_off_c, 1, 71, 0
1, 71214, Note_on_c, 1, 74, 127
1, 71411, Note_off_c, 1, 74, 0
1, 71413, Note_on_c, 1, 71, 127
1, 71610, Note_off_c, 1, 71, 0
1, 71612, Note_on_c, 1, 69, 127
1, 71612, Note_on_c, 1, 50, 127
1, 71678, Note_off_c, 1, 69, 0
1, 71678, Note_on_c, 1, 68, 127
1, 71744, Note_off_c, 1, 68, 0
1, 72009, Note_on_c, 1, 71, 127
1, 72206, Note_off_c, 1, 71, 0
1, 72208, Note_on_c, 1, 64, 127
1, 72405, Note_off_c, 1, 50, 0
1, 72405, Note_off_c, 1, 64, 0
1, 72407, Note_on_c, 1, 69, 127
1, 72407, Note_on_c, 1, 51, 127
1, 72802, Note_off_c, 1, 69, 0
1, 72804, Note_on_c, 1, 60, 127
1, 72804, Note_on_c, 1, 54, 127
1, 73001, Note_off_c, 1, 60, 0
1, 73003, Note_on_c, 1, 57, 127
1, 73193, Note_off_c, 1, 51, 0
1, 73199, Note_off_c, 1, 54, 0
1, 73199, Note_off_c, 1, 57, 0
1, 73201, Note_on_c, 1, 59, 127
1, 73201, Note_on_c, 1, 52, 127
1, 73398, Note_off_c, 1, 59, 0
1, 73400, Note_on_c, 1, 71, 127
1, 73597, Note_off_c, 1, 52, 0
1, 73597, Note_off_c, 1, 71, 0
1, 73599, Note_on_c, 1, 72, 127
1, 73599, Note_on_c, 1, 50, 127
1, 73796, Note_off_c, 1, 72, 0
1, 73798, Note_on_c, 1, 74, 127
1, 73995, Note_off_c, 1, 50, 0
1, 73995, Note_off_c, 1, 74, 0
1, 73997, Note_on_c, 1, 69, 127
1, 73997, Note_on_c, 1, 52, 127
1, 74129, Note_off_c, 1, 69, 0
1, 74129, Note_on_c, 1, 68, 127
1, 74195, Note_off_c, 1, 68, 0
1, 74391, Note_off_c, 1, 52, 0
1, 74393, Note_on_c, 1, 40, 127
1, 74789, Note_off_c, 1, 40, 0
1, 74791, Note_on_c, 1, 45, 127
1, 74791, Note_on_c, 1, 69, 127
1, 75186, Note_off_c, 1, 45, 0
1, 75188, Note_on_c, 1, 49, 127
1, 75385, Note_off_c, 1, 49, 0
1, 75387, Note_on_c, 1, 52, 127
1, 75584, Note_off_c, 1, 52, 0
1, 75984, Note_on_c, 1, 33, 127
1, 76199, Note_off_c, 1, 69, 0
1, 76379, Note_off_c, 1, 33, 0
1, 76397, Note_on_c, 1, 45, 127
1, 76397, Note_on_c, 1, 69, 127
1, 76792, Note_off_c, 1, 45, 0
1, 76792, Note_off_c, 1, 69, 0
1, 76794, Note_on_c, 1, 72, 127
1, 76794, Note_on_c, 1, 47, 127
1, 76924, Note_off_c, 1, 72, 0
1, 76926, Note_on_c, 1, 74, 127
1, 77056, Note_off_c, 1, 74, 0
1, 77058, Note_on_c, 1, 76, 127
1, 77188, Note_off_c, 1, 47, 0
1, 77188, Note_off_c, 1, 76, 0
1, 77190, Note_on_c, 1, 72, 127
1, 77190, Note_on_c, 1, 48, 127
1, 77320, Note_off_c, 1, 72, 0
1, 77322, Note_on_c, 1, 74, 127
1, 77452, Note_off_c, 1, 74, 0
1, 77454, Note_on_c, 1, 76, 127
1, 77584, Note_off_c, 1, 48, 0
1, 77584, Note_off_c, 1, 76, 0
1, 77586, Note_on_c, 1, 72, 127
1, 77586, Note_on_c, 1, 50, 127
1, 77716, Note_off_c, 1, 72, 0
1, 77718, Note_on_c, 1, 74, 127
1, 77848, Note_off_c, 1, 74, 0
1, 77850, Note_on_c, 1, 76, 127
1, 77980, Note_off_c, 1, 50, 0
1, 77980, Note_off_c, 1, 76, 0
1, 77982, Note_on_c, 1, 52, 127
1, 77982, Note_on_c, 1, 68, 127
1, 78377, Note_off_c, 1, 52, 0
1, 78377, Note_off_c, 1, 68, 0
1, 78379, Note_on_c, 1, 71, 127
1, 78379, Note_on_c, 1, 54, 127
1, 78509, Note_off_c, 1, 71, 0
1, 78511, Note_on_c, 1, 72, 127
1, 78641, Note_off_c, 1, 72, 0
1, 78643, Note_on_c, 1, 74, 127
1, 78773, Note_off_c, 1, 54, 0
1, 78773, Note_off_c, 1, 74, 0
1, 78775, Note_on_c, 1, 71, 127
1, 78775, Note_on_c, 1, 56, 127
1, 78905, Note_off_c, 1, 71, 0
1, 78907, Note_on_c, 1, 72, 127
1, 79037, Note_off_c, 1, 72, 0
1, 79039, Note_on_c, 1, 74, 127
1, 79169, Note_off_c, 1, 56, 0
1, 79169, Note_off_c, 1, 74, 0
1, 79171, Note_on_c, 1, 71, 127
1, 79171, Note_on_c, 1, 52, 127
1, 79301, Note_off_c, 1, 71, 0
1, 79303, Note_on_c, 1, 72, 127
1, 79433, Note_off_c, 1, 72, 0
1, 79435, Note_on_c, 1, 74, 127
1, 79565, Note_off_c, 1, 52, 0
1, 79565, Note_off_c, 1, 74, 0
1, 79567, Note_on_c, 1, 57, 127
1, 79567, Note_on_c, 1, 72, 127
1, 79962, Note_off_c, 1, 57, 0
1, 79962, Note_off_c, 1, 72, 0
1, 79964, Note_on_c, 1, 71, 127
1, 79964, Note_on_c, 1, 50, 127
1, 80094, Note_off_c, 1, 71, 0
1, 80096, Note_on_c, 1, 72, 127
1, 80226, Note_off_c, 1, 72, 0
1, 80228, Note_on_c, 1, 74, 127
1, 80358, Note_off_c, 1, 50, 0
1, 80358, Note_off_c, 1, 74, 0
1, 80360, Note_on_c, 1, 74, 127
1, 80360, Note_on_c, 1, 52, 127
1, 80557, Note_off_c, 1, 74, 0
1, 80559, Note_on_c, 1, 72, 127
1, 80638, Note_off_c, 1, 72, 0
1, 80755, Note_off_c, 1, 52, 0
1, 80757, Note_on_c, 1, 40, 127
1, 80955, Note_on_c, 1, 71, 127
1, 81152, Note_off_c, 1, 40, 0
1, 81152, Note_off_c, 1, 71, 0
1, 81154, Note_on_c, 1, 72, 127
1, 81154, Note_on_c, 1, 57, 127
1, 81284, Note_off_c, 1, 72, 0
1, 81286, Note_on_c, 1, 74, 127
1, 81416, Note_off_c, 1, 74, 0
1, 81418, Note_on_c, 1, 76, 127
1, 81548, Note_off_c, 1, 57, 0
1, 81548, Note_off_c, 1, 76, 0
1, 81550, Note_on_c, 1, 72, 127
1, 81550, Note_on_c, 1, 56, 127
1, 81680, Note_off_c, 1, 72, 0
1, 81682, Note_on_c, 1, 74, 127
1, 81812, Note_off_c, 1, 74, 0
1, 81814, Note_on_c, 1, 76, 127
1, 81944, Note_off_c, 1, 56, 0
1, 81944, Note_off_c, 1, 76, 0
1, 81946, Note_on_c, 1, 57, 127
1, 81946, Note_on_c, 1, 69, 127
1, 82341, Note_off_c, 1, 57, 0
1, 82343, Note_on_c, 1, 59, 127
1, 82442, Note_off_c, 1, 69, 0
1, 82738, Note_off_c, 1, 59, 0
1, 82740, Note_on_c, 1, 60, 127
1, 82740, Note_on_c, 1, 78, 127
1, 83135, Note_off_c, 1, 60, 0
1, 83135, Note_off_c, 1, 78, 0
1, 83137, Note_on_c, 1, 81, 127
1, 83137, Note_on_c, 1, 59, 127
1, 83267, Note_off_c, 1, 81, 0
1, 83269, Note_on_c, 1, 79, 127
1, 83399, Note_off_c, 1, 79, 0
1, 83401, Note_on_c, 1, 78, 127
1, 83531, Note_off_c, 1, 59, 0
1, 83531, Note_off_c, 1, 78, 0
1, 83533, Note_on_c, 1, 81, 127
1, 83533, Note_on_c, 1, 57, 127
1, 83533, Note_on_c, 1, 60, 127
1, 83663, Note_off_c, 1, 81, 0
1, 83665, Note_on_c, 1, 79, 127
1, 83795, Note_off_c, 1, 79, 0
1, 83797, Note_on_c, 1, 78, 127
1, 83927, Note_off_c, 1, 57, 0
1, 83927, Note_off_c, 1, 60, 0
1, 83927, Note_off_c, 1, 78, 0
1, 83929, Note_on_c, 1, 81, 127
1, 83929, Note_on_c, 1, 54, 127
1, 83929, Note_on_c, 1, 57, 127
1, 84059, Note_off_c, 1, 81, 0
1, 84061, Note_on_c, 1, 79, 127
1, 84191, Note_off_c, 1, 79, 0
1, 84193, Note_on_c, 1, 78, 127
1, 84323, Note_off_c, 1, 54, 0
1, 84323, Note_off_c, 1, 57, 0
1, 84323, Note_off_c, 1, 78, 0
1, 84325, Note_on_c, 1, 75, 127
1, 84325, Note_on_c, 1, 59, 127
1, 84720, Note_off_c, 1, 75, 0
1, 84722, Note_on_c, 1, 78, 127
1, 84722, Note_on_c, 1, 57, 127
1, 84852, Note_off_c, 1, 78, 0
1, 84854, Note_on_c, 1, 76, 127
1, 84984, Note_off_c, 1, 76, 0
1, 85116, Note_off_c, 1, 57, 0
1, 85118, Note_on_c, 1, 55, 127
1, 85513, Note_off_c, 1, 59, 0
1, 85513, Note_off_c, 1, 55, 0
1, 85515, Note_on_c, 1, 67, 127
1, 85515, Note_on_c, 1, 52, 127
1, 85515, Note_on_c, 1, 59, 127
1, 85645, Note_off_c, 1, 67, 0
1, 85647, Note_on_c, 1, 66, 127
1, 85777, Note_off_c, 1, 66, 0
1, 85779, Note_on_c, 1, 64, 127
1, 85909, Note_off_c, 1, 52, 0
1, 85909, Note_off_c, 1, 59, 0
1, 85909, Note_off_c, 1, 64, 0
1, 85911, Note_on_c, 1, 57, 127
1, 85911, Note_on_c, 1, 66, 127
1, 86306, Note_off_c, 1, 57, 0
1, 86306, Note_off_c, 1, 66, 0
1, 86308, Note_on_c, 1, 69, 127
1, 86308, Note_on_c, 1, 54, 127
1, 86438, Note_off_c, 1, 69, 0
1, 86440, Note_on_c, 1, 67, 127
1, 86570, Note_off_c, 1, 67, 0
1, 86572, Note_on_c, 1, 66, 127
1, 86702, Note_off_c, 1, 54, 0
1, 86702, Note_off_c, 1, 66, 0
1, 86704, Note_on_c, 1, 67, 127
1, 86704, Note_on_c, 1, 59, 127
1, 86834, Note_off_c, 1, 67, 0
1, 86836, Note_on_c, 1, 66, 127
1, 86966, Note_off_c, 1, 66, 0
1, 87098, Note_off_c, 1, 59, 0
1, 87100, Note_on_c, 1, 66, 127
1, 87100, Note_on_c, 1, 47, 127
1, 87297, Note_off_c, 1, 66, 0
1, 87299, Note_on_c, 1, 64, 127
1, 87496, Note_off_c, 1, 47, 0
1, 87496, Note_off_c, 1, 64, 0
1, 87498, Note_on_c, 1, 52, 127
1, 87498, Note_on_c, 1, 64, 127
1, 87893, Note_off_c, 1, 52, 0
1, 87893, Note_off_c, 1, 64, 0
1, 87895, Note_on_c, 1, 68, 127
1, 87895, Note_on_c, 1, 47, 127
1, 88025, Note_off_c, 1, 68, 0
1, 88027, Note_on_c, 1, 66, 127
1, 88157, Note_off_c, 1, 66, 0
1, 88159, Note_on_c, 1, 64, 127
1, 88289, Note_off_c, 1, 47, 0
1, 88289, Note_off_c, 1, 64, 0
1, 88291, Note_on_c, 1, 64, 127
1, 88291, Note_on_c, 1, 40, 127
1, 88870, Note_off_c, 1, 64, 0
1, 89083, Note_off_c, 1, 40, 0
1, 89085, Note_on_c, 1, 48, 127
1, 89085, Note_on_c, 1, 72, 127
1, 89480, Note_off_c, 1, 48, 0
1, 89480, Note_off_c, 1, 72, 0
1, 89482, Note_on_c, 1, 76, 127
1, 89482, Note_on_c, 1, 50, 127
1, 89612, Note_off_c, 1, 76, 0
1, 89614, Note_on_c, 1, 77, 127
1, 89744, Note_off_c, 1, 77, 0
1, 89746, Note_on_c, 1, 79, 127
1, 89876, Note_off_c, 1, 50, 0
1, 89876, Note_off_c, 1, 79, 0
1, 89878, Note_on_c, 1, 76, 127
1, 89878, Note_on_c, 1, 52, 127
1, 90008, Note_off_c, 1, 76, 0
1, 90010, Note_on_c, 1, 77, 127
1, 90140, Note_off_c, 1, 77, 0
1, 90142, Note_on_c, 1, 79, 127
1, 90272, Note_off_c, 1, 52, 0
1, 90272, Note_off_c, 1, 79, 0
1, 90274, Note_on_c, 1, 76, 127
1, 90274, Note_on_c, 1, 48, 127
1, 90404, Note_off_c, 1, 76, 0
1, 90406, Note_on_c, 1, 77, 127
1, 90536, Note_off_c, 1, 77, 0
1, 90538, Note_on_c, 1, 79, 127
1, 90668, Note_off_c, 1, 48, 0
1, 90668, Note_off_c, 1, 79, 0
1, 90670, Note_on_c, 1, 55, 127
1, 90670, Note_on_c, 1, 71, 127
1, 91065, Note_off_c, 1, 55, 0
1, 91065, Note_off_c, 1, 71, 0
1, 91067, Note_on_c, 1, 79, 127
1, 91067, Note_on_c, 1, 50, 127
1, 91197, Note_off_c, 1, 79, 0
1, 91199, Note_on_c, 1, 81, 127
1, 91329, Note_off_c, 1, 81, 0
1, 91331, Note_on_c, 1, 83, 127
1, 91461, Note_off_c, 1, 50, 0
1, 91461, Note_off_c, 1, 83, 0
1, 91463, Note_on_c, 1, 79, 127
1, 91463, Note_on_c, 1, 43, 127
1, 91593, Note_off_c, 1, 79, 0
1, 91595, Note_on_c, 1, 81, 127
1, 91725, Note_off_c, 1, 81, 0
1, 91727, Note_on_c, 1, 83, 127
1, 91857, Note_off_c, 1, 43, 0
1, 91857, Note_off_c, 1, 83, 0
1, 91859, Note_on_c, 1, 79, 127
1, 91859, Note_on_c, 1, 54, 127
1, 91989, Note_off_c, 1, 79, 0
1, 91991, Note_on_c, 1, 81, 127
1, 92121, Note_off_c, 1, 81, 0
1, 92123, Note_on_c, 1, 83, 127
1, 92253, Note_off_c, 1, 54, 0
1, 92253, Note_off_c, 1, 83, 0
1, 92255, Note_on_c, 1, 52, 127
1, 92255, Note_on_c, 1, 71, 127
1, 92650, Note_off_c, 1, 52, 0
1, 92650, Note_off_c, 1, 71, 0
1, 92652, Note_on_c, 1, 67, 127
1, 92652, Note_on_c, 1, 54, 127
1, 92782, Note_off_c, 1, 67, 0
1, 92784, Note_on_c, 1, 66, 127
1, 92914, Note_off_c, 1, 66, 0
1, 92916, Note_on_c, 1, 64, 127
1, 93046, Note_off_c, 1, 54, 0
1, 93046, Note_off_c, 1, 64, 0
1, 93048, Note_on_c, 1, 67, 127
1, 93048, Note_on_c, 1, 55, 127
1, 93178, Note_off_c, 1, 67, 0
1, 93180, Note_on_c, 1, 66, 127
1, 93310, Note_off_c, 1, 66, 0
1, 93312, Note_on_c, 1, 64, 127
1, 93442, Note_off_c, 1, 55, 0
1, 93442, Note_off_c, 1, 64, 0
1, 93444, Note_on_c, 1, 67, 127
1, 93444, Note_on_c, 1, 52, 127
1, 93574, Note_off_c, 1, 67, 0
1, 93576, Note_on_c, 1, 66, 127
1, 93706, Note_off_c, 1, 66, 0
1, 93708, Note_on_c, 1, 64, 127
1, 93838, Note_off_c, 1, 52, 0
1, 93838, Note_off_c, 1, 64, 0
1, 93840, Note_on_c, 1, 59, 127
1, 93840, Note_on_c, 1, 63, 127
1, 94235, Note_off_c, 1, 59, 0
1, 94235, Note_off_c, 1, 63, 0
1, 94237, Note_on_c, 1, 66, 127
1, 94237, Note_on_c, 1, 54, 127
1, 94367, Note_off_c, 1, 66, 0
1, 94369, Note_on_c, 1, 67, 127
1, 94499, Note_off_c, 1, 67, 0
1, 94501, Note_on_c, 1, 69, 127
1, 94631, Note_off_c, 1, 54, 0
1, 94631, Note_off_c, 1, 69, 0
1, 94633, Note_on_c, 1, 63, 127
1, 94633, Note_on_c, 1, 47, 127
1, 94763, Note_off_c, 1, 63, 0
1, 94765, Note_on_c, 1, 64, 127
1, 94895, Note_off_c, 1, 64, 0
1, 94897, Note_on_c, 1, 66, 127
1, 95027, Note_off_c, 1, 47, 0
1, 95027, Note_off_c, 1, 66, 0
1, 95029, Note_on_c, 1, 59, 127
1, 95029, Note_on_c, 1, 57, 127
1, 95360, Note_off_c, 1, 59, 0
1, 95424, Note_off_c, 1, 57, 0
1, 95426, Note_on_c, 1, 74, 127
1, 95426, Note_on_c, 1, 56, 127
1, 95623, Note_off_c, 1, 74, 0
1, 95625, Note_on_c, 1, 65, 127
1, 95822, Note_off_c, 1, 65, 0
1, 96006, Note_off_c, 1, 56, 0
1, 96022, Note_on_c, 1, 74, 127
1, 96219, Note_off_c, 1, 74, 0
1, 96221, Note_on_c, 1, 74, 127
1, 96221, Note_on_c, 1, 57, 127
1, 96418, Note_off_c, 1, 74, 0
1, 96420, Note_on_c, 1, 65, 127
1, 96617, Note_off_c, 1, 65, 0
1, 96801, Note_off_c, 1, 57, 0
1, 96817, Note_on_c, 1, 74, 127
1, 97014, Note_off_c, 1, 74, 0
1, 97016, Note_on_c, 1, 74, 127
1, 97016, Note_on_c, 1, 58, 127
1, 97213, Note_off_c, 1, 74, 0
1, 97215, Note_on_c, 1, 65, 127
1, 97412, Note_off_c, 1, 65, 0
1, 97596, Note_off_c, 1, 58, 0
1, 97612, Note_on_c, 1, 74, 127
1, 97809, Note_off_c, 1, 74, 0
1, 97811, Note_on_c, 1, 74, 127
1, 97811, Note_on_c, 1, 57, 127
1, 98008, Note_off_c, 1, 74, 0
1, 98010, Note_on_c, 1, 65, 127
1, 98207, Note_off_c, 1, 65, 0
1, 98391, Note_off_c, 1, 57, 0
1, 98407, Note_on_c, 1, 74, 127
1, 98604, Note_off_c, 1, 74, 0
1, 98606, Note_on_c, 1, 74, 127
1, 98606, Note_on_c, 1, 56, 127
1, 98803, Note_off_c, 1, 74, 0
1, 98805, Note_on_c, 1, 65, 127
1, 99002, Note_off_c, 1, 65, 0
1, 99186, Note_off_c, 1, 56, 0
1, 99202, Note_on_c, 1, 64, 127
1, 99399, Note_off_c, 1, 64, 0
1, 99401, Note_on_c, 1, 65, 127
1, 99401, Note_on_c, 1, 57, 127
1, 99519, Note_off_c, 1, 65, 0
1, 99533, Note_on_c, 1, 64, 127
1, 99599, Note_off_c, 1, 64, 0
1, 99795, Note_off_c, 1, 57, 0
1, 99797, Note_on_c, 1, 45, 127
1, 99996, Note_on_c, 1, 62, 127
1, 100193, Note_off_c, 1, 45, 0
1, 100193, Note_off_c, 1, 62, 0
1, 100195, Note_on_c, 1, 50, 127
1, 100195, Note_on_c, 1, 62, 127
1, 100590, Note_off_c, 1, 50, 0
1, 100590, Note_off_c, 1, 62, 0
1, 100592, Note_on_c, 1, 65, 127
1, 100592, Note_on_c, 1, 49, 127
1, 100722, Note_off_c, 1, 65, 0
1, 100724, Note_on_c, 1, 67, 127
1, 100854, Note_off_c, 1, 67, 0
1, 100856, Note_on_c, 1, 69, 127
1, 100986, Note_off_c, 1, 49, 0
1, 100986, Note_off_c, 1, 69, 0
1, 100988, Note_on_c, 1, 50, 127
1, 100988, Note_on_c, 1, 62, 127
1, 101383, Note_off_c, 1, 50, 0
1, 101385, Note_on_c, 1, 52, 127
1, 101780, Note_off_c, 1, 62, 0
1, 101780, Note_off_c, 1, 52, 0
1, 101782, Note_on_c, 1, 81, 127
1, 101782, Note_on_c, 1, 53, 127
1, 101979, Note_off_c, 1, 81, 0
1, 101981, Note_on_c, 1, 77, 127
1, 102178, Note_off_c, 1, 53, 0
1, 102178, Note_off_c, 1, 77, 0
1, 102180, Note_on_c, 1, 77, 127
1, 102180, Note_on_c, 1, 52, 127
1, 102377, Note_off_c, 1, 77, 0
1, 102379, Note_on_c, 1, 81, 127
1, 102576, Note_off_c, 1, 52, 0
1, 102576, Note_off_c, 1, 81, 0
1, 102578, Note_on_c, 1, 81, 127
1, 102578, Note_on_c, 1, 53, 127
1, 102775, Note_off_c, 1, 81, 0
1, 102777, Note_on_c, 1, 74, 127
1, 102974, Note_off_c, 1, 53, 0
1, 102974, Note_off_c, 1, 74, 0
1, 102976, Note_on_c, 1, 74, 127
1, 102976, Note_on_c, 1, 55, 127
1, 103173, Note_off_c, 1, 74, 0
1, 103175, Note_on_c, 1, 81, 127
1, 103372, Note_off_c, 1, 55, 0
1, 103372, Note_off_c, 1, 81, 0
1, 103374, Note_on_c, 1, 81, 127
1, 103374, Note_on_c, 1, 57, 127
1, 103571, Note_off_c, 1, 81, 0
1, 103573, Note_on_c, 1, 73, 127
1, 103770, Note_off_c, 1, 57, 0
1, 103770, Note_off_c, 1, 73, 0
1, 103772, Note_on_c, 1, 73, 127
1, 103772, Note_on_c, 1, 56, 127
1, 103969, Note_off_c, 1, 73, 0
1, 103971, Note_on_c, 1, 76, 127
1, 104168, Note_off_c, 1, 56, 0
1, 104168, Note_off_c, 1, 76, 0
1, 104170, Note_on_c, 1, 57, 127
1, 104170, Note_on_c, 1, 69, 127
1, 104565, Note_off_c, 1, 57, 0
1, 104567, Note_on_c, 1, 59, 127
1, 104749, Note_off_c, 1, 69, 0
1, 104962, Note_off_c, 1, 59, 0
1, 104964, Note_on_c, 1, 76, 127
1, 104964, Note_on_c, 1, 60, 127
1, 105161, Note_off_c, 1, 76, 0
1, 105163, Note_on_c, 1, 72, 127
1, 105360, Note_off_c, 1, 60, 0
1, 105360, Note_off_c, 1, 72, 0
1, 105362, Note_on_c, 1, 72, 127
1, 105362, Note_on_c, 1, 59, 127
1, 105559, Note_off_c, 1, 72, 0
1, 105561, Note_on_c, 1, 76, 127
1, 105758, Note_off_c, 1, 59, 0
1, 105758, Note_off_c, 1, 76, 0
1, 105760, Note_on_c, 1, 76, 127
1, 105760, Note_on_c, 1, 60, 127
1, 105957, Note_off_c, 1, 76, 0
1, 105959, Note_on_c, 1, 69, 127
1, 106156, Note_off_c, 1, 60, 0
1, 106156, Note_off_c, 1, 69, 0
1, 106158, Note_on_c, 1, 69, 127
1, 106158, Note_on_c, 1, 62, 127
1, 106355, Note_off_c, 1, 69, 0
1, 106357, Note_on_c, 1, 76, 127
1, 106554, Note_off_c, 1, 62, 0
1, 106554, Note_off_c, 1, 76, 0
1, 106556, Note_on_c, 1, 76, 127
1, 106556, Note_on_c, 1, 64, 127
1, 106753, Note_off_c, 1, 76, 0
1, 106755, Note_on_c, 1, 68, 127
1, 106952, Note_off_c, 1, 64, 0
1, 106952, Note_off_c, 1, 68, 0
1, 106954, Note_on_c, 1, 68, 127
1, 106954, Note_on_c, 1, 63, 127
1, 107151, Note_off_c, 1, 68, 0
1, 107153, Note_on_c, 1, 71, 127
1, 107350, Note_off_c, 1, 63, 0
1, 107350, Note_off_c, 1, 71, 0
1, 107352, Note_on_c, 1, 64, 127
1, 107749, Note_on_c, 1, 52, 127
1, 107931, Note_off_c, 1, 64, 0
1, 108144, Note_off_c, 1, 52, 0
1, 108146, Note_on_c, 1, 77, 127
1, 108146, Note_on_c, 1, 50, 127
1, 108276, Note_off_c, 1, 77, 0
1, 108278, Note_on_c, 1, 76, 127
1, 108408, Note_off_c, 1, 76, 0
1, 108410, Note_on_c, 1, 74, 127
1, 108540, Note_off_c, 1, 74, 0
1, 108724, Note_off_c, 1, 50, 0
1, 108807, Note_on_c, 1, 74, 127
1, 108937, Note_off_c, 1, 74, 0
1, 108939, Note_on_c, 1, 74, 127
1, 108939, Note_on_c, 1, 50, 127
1, 109069, Note_off_c, 1, 74, 0
1, 109071, Note_on_c, 1, 72, 127
1, 109201, Note_off_c, 1, 72, 0
1, 109203, Note_on_c, 1, 71, 127
1, 109333, Note_off_c, 1, 71, 0
1, 109517, Note_off_c, 1, 50, 0
1, 109600, Note_on_c, 1, 71, 127
1, 109730, Note_off_c, 1, 71, 0
1, 109732, Note_on_c, 1, 71, 127
1, 109732, Note_on_c, 1, 50, 127
1, 109862, Note_off_c, 1, 71, 0
1, 109864, Note_on_c, 1, 69, 127
1, 109994, Note_off_c, 1, 69, 0
1, 109996, Note_on_c, 1, 68, 127
1, 110126, Note_off_c, 1, 68, 0
1, 110260, Note_on_c, 1, 66, 127
1, 110310, Note_off_c, 1, 50, 0
1, 110391, Note_off_c, 1, 66, 0
1, 110393, Note_on_c, 1, 64, 127
1, 110523, Note_off_c, 1, 64, 0
1, 110525, Note_on_c, 1, 69, 127
1, 110525, Note_on_c, 1, 51, 127
1, 110920, Note_off_c, 1, 69, 0
1, 110922, Note_on_c, 1, 72, 127
1, 111052, Note_off_c, 1, 72, 0
1, 111054, Note_on_c, 1, 71, 127
1, 111104, Note_off_c, 1, 51, 0
1, 111185, Note_off_c, 1, 71, 0
1, 111187, Note_on_c, 1, 69, 127
1, 111317, Note_off_c, 1, 69, 0
1, 111319, Note_on_c, 1, 69, 127
1, 111319, Note_on_c, 1, 52, 127
1, 111516, Note_off_c, 1, 69, 0
1, 111518, Note_on_c, 1, 68, 127
1, 111715, Note_off_c, 1, 52, 0
1, 111715, Note_off_c, 1, 68, 0
1, 111717, Note_on_c, 1, 69, 127
1, 111717, Note_on_c, 1, 50, 127
1, 111914, Note_off_c, 1, 69, 0
1, 111916, Note_on_c, 1, 60, 127
1, 112113, Note_off_c, 1, 50, 0
1, 112113, Note_off_c, 1, 60, 0
1, 112115, Note_on_c, 1, 60, 127
1, 112115, Note_on_c, 1, 52, 127
1, 112247, Note_off_c, 1, 60, 0
1, 112247, Note_on_c, 1, 59, 127
1, 112313, Note_off_c, 1, 59, 0
1, 112509, Note_off_c, 1, 52, 0
1, 112511, Note_on_c, 1, 40, 127
1, 112710, Note_on_c, 1, 57, 127
1, 112907, Note_off_c, 1, 40, 0
1, 112907, Note_off_c, 1, 57, 0
1, 112909, Note_on_c, 1, 45, 127
1, 112909, Note_on_c, 1, 57, 127
1, 113304, Note_off_c, 1, 45, 0
1, 113304, Note_off_c, 1, 57, 0
1, 113306, Note_on_c, 1, 61, 127
1, 113306, Note_on_c, 1, 40, 127
1, 113436, Note_off_c, 1, 61, 0
1, 113438, Note_on_c, 1, 59, 127
1, 113568, Note_off_c, 1, 59, 0
1, 113570, Note_on_c, 1, 57, 127
1, 113700, Note_off_c, 1, 40, 0
1, 113700, Note_off_c, 1, 57, 0
1, 113702, Note_on_c, 1, 57, 127
1, 113702, Note_on_c, 1, 33, 127
1, 114281, Note_off_c, 1, 57, 0
1, 114494, Note_off_c, 1, 33, 0
1, 114512, Note_on_c, 1, 57, 127
1, 114512, Note_on_c, 1, 72, 127
1, 114709, Note_off_c, 1, 57, 0
1, 114711, Note_on_c, 1, 56, 127
1, 114908, Note_off_c, 1, 72, 0
1, 114908, Note_off_c, 1, 56, 0
1, 114910, Note_on_c, 1, 57, 127
1, 114910, Note_on_c, 1, 74, 127
1, 115107, Note_off_c, 1, 57, 0
1, 115109, Note_on_c, 1, 59, 127
1, 115306, Note_off_c, 1, 74, 0
1, 115306, Note_off_c, 1, 59, 0
1, 115308, Note_on_c, 1, 60, 127
1, 115308, Note_on_c, 1, 76, 127
1, 115505, Note_off_c, 1, 60, 0
1, 115507, Note_on_c, 1, 59, 127
1, 115704, Note_off_c, 1, 76, 0
1, 115704, Note_off_c, 1, 59, 0
1, 115706, Note_on_c, 1, 60, 127
1, 115706, Note_on_c, 1, 69, 127
1, 115903, Note_off_c, 1, 60, 0
1, 115905, Note_on_c, 1, 62, 127
1, 116102, Note_off_c, 1, 69, 0
1, 116102, Note_off_c, 1, 62, 0
1, 116104, Note_on_c, 1, 68, 127
1, 116104, Note_on_c, 1, 64, 127
1, 116301, Note_off_c, 1, 68, 0
1, 116303, Note_on_c, 1, 69, 127
1, 116500, Note_off_c, 1, 64, 0
1, 116500, Note_off_c, 1, 69, 0
1, 116502, Note_on_c, 1, 68, 127
1, 116502, Note_on_c, 1, 59, 127
1, 116699, Note_off_c, 1, 68, 0
1, 116701, Note_on_c, 1, 69, 127
1, 116898, Note_off_c, 1, 59, 0
1, 116898, Note_off_c, 1, 69, 0
1, 116900, Note_on_c, 1, 71, 127
1, 116900, Note_on_c, 1, 52, 127
1, 117097, Note_off_c, 1, 71, 0
1, 117099, Note_on_c, 1, 64, 127
1, 117296, Note_off_c, 1, 52, 0
1, 117296, Note_off_c, 1, 64, 0
1, 117298, Note_on_c, 1, 66, 127
1, 117298, Note_on_c, 1, 62, 127
1, 117495, Note_off_c, 1, 66, 0
1, 117497, Note_on_c, 1, 68, 127
1, 117694, Note_off_c, 1, 62, 0
1, 117694, Note_off_c, 1, 68, 0
1, 117696, Note_on_c, 1, 69, 127
1, 117696, Note_on_c, 1, 60, 127
1, 117893, Note_off_c, 1, 69, 0
1, 117895, Note_on_c, 1, 71, 127
1, 118092, Note_off_c, 1, 60, 0
1, 118092, Note_off_c, 1, 71, 0
1, 118094, Note_on_c, 1, 68, 127
1, 118094, Note_on_c, 1, 59, 127
1, 118291, Note_off_c, 1, 68, 0
1, 118291, Note_off_c, 1, 59, 0
1, 118293, Note_on_c, 1, 69, 127
1, 118293, Note_on_c, 1, 57, 127
1, 118490, Note_off_c, 1, 69, 0
1, 118490, Note_off_c, 1, 57, 0
1, 118492, Note_on_c, 1, 71, 127
1, 118492, Note_on_c, 1, 56, 127
1, 118689, Note_off_c, 1, 71, 0
1, 118691, Note_on_c, 1, 72, 127
1, 118888, Note_off_c, 1, 56, 0
1, 118888, Note_off_c, 1, 72, 0
1, 118890, Note_on_c, 1, 69, 127
1, 118890, Note_on_c, 1, 52, 127
1, 119087, Note_off_c, 1, 69, 0
1, 119089, Note_on_c, 1, 71, 127
1, 119286, Note_off_c, 1, 52, 0
1, 119286, Note_off_c, 1, 71, 0
1, 119288, Note_on_c, 1, 72, 127
1, 119288, Note_on_c, 1, 57, 127
1, 119418, Note_off_c, 1, 72, 0
1, 119420, Note_on_c, 1, 74, 127
1, 119550, Note_off_c, 1, 74, 0
1, 119682, Note_off_c, 1, 57, 0
1, 119684, Note_on_c, 1, 71, 127
1, 119684, Note_on_c, 1, 52, 127
1, 119814, Note_off_c, 1, 71, 0
1, 119816, Note_on_c, 1, 72, 127
1, 119946, Note_off_c, 1, 72, 0
1, 120078, Note_off_c, 1, 52, 0
1, 120080, Note_on_c, 1, 45, 127
1, 120080, Note_on_c, 1, 69, 127
1, 120475, Note_off_c, 1, 45, 0
1, 120477, Note_on_c, 1, 57, 127
1, 120659, Note_off_c, 1, 69, 0
1, 120673, Note_off_c, 1, 57, 0
1, 120675, Note_on_c, 1, 59, 127
1, 120872, Note_off_c, 1, 59, 0
1, 120874, Note_on_c, 1, 78, 127
1, 120874, Note_on_c, 1, 60, 127
1, 121071, Note_off_c, 1, 78, 0
1, 121073, Note_on_c, 1, 79, 127
1, 121270, Note_off_c, 1, 60, 0
1, 121270, Note_off_c, 1, 79, 0
1, 121272, Note_on_c, 1, 81, 127
1, 121272, Note_on_c, 1, 59, 127
1, 121469, Note_off_c, 1, 81, 0
1, 121471, Note_on_c, 1, 79, 127
1, 121668, Note_off_c, 1, 59, 0
1, 121668, Note_off_c, 1, 79, 0
1, 121670, Note_on_c, 1, 78, 127
1, 121670, Note_on_c, 1, 60, 127
1, 121867, Note_off_c, 1, 78, 0
1, 121869, Note_on_c, 1, 76, 127
1, 122066, Note_off_c, 1, 60, 0
1, 122066, Note_off_c, 1, 76, 0
1, 122068, Note_on_c, 1, 78, 127
1, 122068, Note_on_c, 1, 57, 127
1, 122265, Note_off_c, 1, 78, 0
1, 122267, Note_on_c, 1, 76, 127
1, 122464, Note_off_c, 1, 57, 0
1, 122464, Note_off_c, 1, 76, 0
1, 122466, Note_on_c, 1, 75, 127
1, 122466, Note_on_c, 1, 59, 127
1, 122663, Note_off_c, 1, 75, 0
1, 122665, Note_on_c, 1, 76, 127
1, 122862, Note_off_c, 1, 59, 0
1, 122862, Note_off_c, 1, 76, 0
1, 122864, Note_on_c, 1, 73, 127
1, 122864, Note_on_c, 1, 57, 127
1, 123061, Note_off_c, 1, 73, 0
1, 123063, Note_on_c, 1, 75, 127
1, 123260, Note_off_c, 1, 57, 0
1, 123260, Note_off_c, 1, 75, 0
1, 123262, Note_on_c, 1, 76, 127
1, 123262, Note_on_c, 1, 55, 127
1, 123459, Note_off_c, 1, 76, 0
1, 123461, Note_on_c, 1, 74, 127
1, 123658, Note_off_c, 1, 55, 0
1, 123658, Note_off_c, 1, 74, 0
1, 123660, Note_on_c, 1, 72, 127
1, 123660, Note_on_c, 1, 52, 127
1, 123857, Note_off_c, 1, 72, 0
1, 123859, Note_on_c, 1, 71, 127
1, 124056, Note_off_c, 1, 52, 0
1, 124056, Note_off_c, 1, 71, 0
1, 124058, Note_on_c, 1, 69, 127
1, 124058, Note_on_c, 1, 60, 127
1, 124255, Note_off_c, 1, 69, 0
1, 124257, Note_on_c, 1, 67, 127
1, 124454, Note_off_c, 1, 60, 0
1, 124454, Note_off_c, 1, 67, 0
1, 124456, Note_on_c, 1, 66, 127
1, 124456, Note_on_c, 1, 57, 127
1, 124653, Note_off_c, 1, 66, 0
1, 124655, Note_on_c, 1, 67, 127
1, 124852, Note_off_c, 1, 57, 0
1, 124852, Note_off_c, 1, 67, 0
1, 124854, Note_on_c, 1, 67, 127
1, 124854, Note_on_c, 1, 59, 127
1, 124986, Note_off_c, 1, 67, 0
1, 124986, Note_on_c, 1, 66, 127
1, 125052, Note_off_c, 1, 66, 0
1, 125248, Note_off_c, 1, 59, 0
1, 125250, Note_on_c, 1, 47, 127
1, 125449, Note_on_c, 1, 64, 127
1, 125646, Note_off_c, 1, 47, 0
1, 125646, Note_off_c, 1, 64, 0
1, 125648, Note_on_c, 1, 52, 127
1, 125648, Note_on_c, 1, 64, 127
1, 125845, Note_off_c, 1, 52, 0
1, 125847, Note_on_c, 1, 51, 127
1, 126044, Note_off_c, 1, 51, 0
1, 126046, Note_on_c, 1, 49, 127
1, 126243, Note_off_c, 1, 49, 0
1, 126839, Note_off_c, 1, 64, 0
1, 126841, Note_on_c, 1, 40, 127
1, 127236, Note_off_c, 1, 40, 0
1, 127238, Note_on_c, 1, 48, 127
1, 127238, Note_on_c, 1, 76, 127
1, 127435, Note_off_c, 1, 48, 0
1, 127437, Note_on_c, 1, 47, 127
1, 127634, Note_off_c, 1, 76, 0
1, 127634, Note_off_c, 1, 47, 0
1, 127636, Note_on_c, 1, 48, 127
1, 127636, Note_on_c, 1, 77, 127
1, 127833, Note_off_c, 1, 48, 0
1, 127835, Note_on_c, 1, 50, 127
1, 128032, Note_off_c, 1, 77, 0
1, 128032, Note_off_c, 1, 50, 0
1, 128034, Note_on_c, 1, 52, 127
1, 128034, Note_on_c, 1, 79, 127
1, 128231, Note_off_c, 1, 52, 0
1, 128233, Note_on_c, 1, 50, 127
1, 128430, Note_off_c, 1, 79, 0
1, 128430, Note_off_c, 1, 50, 0
1, 128432, Note_on_c, 1, 52, 127
1, 128432, Note_on_c, 1, 72, 127
1, 128629, Note_off_c, 1, 52, 0
1, 128631, Note_on_c, 1, 53, 127
1, 128828, Note_off_c, 1, 72, 0
1, 128828, Note_off_c, 1, 53, 0
1, 128830, Note_on_c, 1, 71, 127
1, 128830, Note_on_c, 1, 55, 127
1, 129027, Note_off_c, 1, 71, 0
1, 129029, Note_on_c, 1, 69, 127
1, 129226, Note_off_c, 1, 55, 0
1, 129226, Note_off_c, 1, 69, 0
1, 129228, Note_on_c, 1, 71, 127
1, 129228, Note_on_c, 1, 50, 127
1, 129425, Note_off_c, 1, 71, 0
1, 129427, Note_on_c, 1, 69, 127
1, 129624, Note_off_c, 1, 50, 0
1, 129624, Note_off_c, 1, 69, 0
1, 129626, Note_on_c, 1, 67, 127
1, 129626, Note_on_c, 1, 43, 127
1, 129823, Note_off_c, 1, 67, 0
1, 129825, Note_on_c, 1, 74, 127
1, 130022, Note_off_c, 1, 43, 0
1, 130022, Note_off_c, 1, 74, 0
1, 130024, Note_on_c, 1, 76, 127
1, 130024, Note_on_c, 1, 54, 127
1, 130221, Note_off_c, 1, 76, 0
1, 130223, Note_on_c, 1, 78, 127
1, 130420, Note_off_c, 1, 54, 0
1, 130420, Note_off_c, 1, 78, 0
1, 130422, Note_on_c, 1, 52, 127
1, 130422, Note_on_c, 1, 79, 127
1, 130619, Note_off_c, 1, 52, 0
1, 130621, Note_on_c, 1, 51, 127
1, 130818, Note_off_c, 1, 79, 0
1, 130818, Note_off_c, 1, 51, 0
1, 130820, Note_on_c, 1, 52, 127
1, 130820, Note_on_c, 1, 81, 127
1, 131017, Note_off_c, 1, 52, 0
1, 131019, Note_on_c, 1, 54, 127
1, 131216, Note_off_c, 1, 81, 0
1, 131216, Note_off_c, 1, 54, 0
1, 131218, Note_on_c, 1, 55, 127
1, 131218, Note_on_c, 1, 83, 127
1, 131415, Note_off_c, 1, 55, 0
1, 131417, Note_on_c, 1, 54, 127
1, 131614, Note_off_c, 1, 83, 0
1, 131614, Note_off_c, 1, 54, 0
1, 131616, Note_on_c, 1, 55, 127
1, 131616, Note_on_c, 1, 76, 127
1, 131813, Note_off_c, 1, 55, 0
1, 131815, Note_on_c, 1, 57, 127
1, 132012, Note_off_c, 1, 76, 0
1, 132012, Note_off_c, 1, 57, 0
1, 132014, Note_on_c, 1, 75, 127
1, 132014, Note_on_c, 1, 59, 127
1, 132211, Note_off_c, 1, 75, 0
1, 132213, Note_on_c, 1, 73, 127
1, 132410, Note_off_c, 1, 59, 0
1, 132410, Note_off_c, 1, 73, 0
1, 132412, Note_on_c, 1, 75, 127
1, 132412, Note_on_c, 1, 54, 127
1, 132609, Note_off_c, 1, 75, 0
1, 132611, Note_on_c, 1, 73, 127
1, 132808, Note_off_c, 1, 54, 0
1, 132808, Note_off_c, 1, 73, 0
1, 132810, Note_on_c, 1, 47, 127
1, 132810, Note_on_c, 1, 71, 127
1, 133205, Note_off_c, 1, 47, 0
1, 133207, Note_on_c, 1, 57, 127
1, 133306, Note_off_c, 1, 71, 0
1, 133337, Note_off_c, 1, 57, 0
1, 133339, Note_on_c, 1, 59, 127
1, 133469, Note_off_c, 1, 59, 0
1, 133471, Note_on_c, 1, 57, 127
1, 133601, Note_off_c, 1, 57, 0
1, 133603, Note_on_c, 1, 74, 127
1, 133603, Note_on_c, 1, 56, 127
1, 133733, Note_off_c, 1, 74, 0
1, 133735, Note_on_c, 1, 73, 127
1, 133865, Note_off_c, 1, 73, 0
1, 133997, Note_off_c, 1, 56, 0
1, 133999, Note_on_c, 1, 74, 127
1, 133999, Note_on_c, 1, 44, 127
1, 134129, Note_off_c, 1, 74, 0
1, 134131, Note_on_c, 1, 73, 127
1, 134261, Note_off_c, 1, 73, 0
1, 134393, Note_off_c, 1, 44, 0
1, 134395, Note_on_c, 1, 74, 127
1, 134395, Note_on_c, 1, 57, 127
1, 134525, Note_off_c, 1, 74, 0
1, 134527, Note_on_c, 1, 73, 127
1, 134657, Note_off_c, 1, 73, 0
1, 134789, Note_off_c, 1, 57, 0
1, 134791, Note_on_c, 1, 74, 127
1, 134791, Note_on_c, 1, 45, 127
1, 134921, Note_off_c, 1, 74, 0
1, 134923, Note_on_c, 1, 73, 127
1, 135053, Note_off_c, 1, 73, 0
1, 135185, Note_off_c, 1, 45, 0
1, 135187, Note_on_c, 1, 74, 127
1, 135187, Note_on_c, 1, 58, 127
1, 135317, Note_off_c, 1, 74, 0
1, 135319, Note_on_c, 1, 73, 127
1, 135449, Note_off_c, 1, 73, 0
1, 135581, Note_off_c, 1, 58, 0
1, 135583, Note_on_c, 1, 74, 127
1, 135583, Note_on_c, 1, 46, 127
1, 135713, Note_off_c, 1, 74, 0
1, 135715, Note_on_c, 1, 73, 127
1, 135845, Note_off_c, 1, 73, 0
1, 135977, Note_off_c, 1, 46, 0
1, 135979, Note_on_c, 1, 74, 127
1, 135979, Note_on_c, 1, 53, 127
1, 136109, Note_off_c, 1, 74, 0
1, 136111, Note_on_c, 1, 73, 127
1, 136241, Note_off_c, 1, 73, 0
1, 136373, Note_off_c, 1, 53, 0
1, 136375, Note_on_c, 1, 74, 127
1, 136375, Note_on_c, 1, 41, 127
1, 136505, Note_off_c, 1, 74, 0
1, 136507, Note_on_c, 1, 73, 127
1, 136637, Note_off_c, 1, 73, 0
1, 136769, Note_off_c, 1, 41, 0
1, 136771, Note_on_c, 1, 74, 127
1, 136771, Note_on_c, 1, 55, 127
1, 136968, Note_off_c, 1, 74, 0
1, 136970, Note_on_c, 1, 73, 127
1, 137167, Note_off_c, 1, 55, 0
1, 137167, Note_off_c, 1, 73, 0
1, 137169, Note_on_c, 1, 74, 127
1, 137169, Note_on_c, 1, 56, 127
1, 137366, Note_off_c, 1, 74, 0
1, 137368, Note_on_c, 1, 76, 127
1, 137565, Note_off_c, 1, 56, 0
1, 137565, Note_off_c, 1, 76, 0
1, 137567, Note_on_c, 1, 74, 127
1, 137567, Note_on_c, 1, 57, 127
1, 137699, Note_off_c, 1, 74, 0
1, 137699, Note_on_c, 1, 73, 127
1, 137765, Note_off_c, 1, 73, 0
1, 137961, Note_off_c, 1, 57, 0
1, 137963, Note_on_c, 1, 45, 127
1, 138359, Note_off_c, 1, 45, 0
1, 138361, Note_on_c, 1, 50, 127
1, 138361, Note_on_c, 1, 74, 127
1, 138558, Note_off_c, 1, 50, 0
1, 138560, Note_on_c, 1, 49, 127
1, 138757, Note_off_c, 1, 49, 0
1, 138958, Note_on_c, 1, 52, 127
1, 139148, Note_off_c, 1, 74, 0
1, 139154, Note_off_c, 1, 52, 0
1, 139156, Note_on_c, 1, 53, 127
1, 139355, Note_on_c, 1, 73, 127
1, 139552, Note_off_c, 1, 53, 0
1, 139552, Note_off_c, 1, 73, 0
1, 139554, Note_on_c, 1, 74, 127
1, 139554, Note_on_c, 1, 52, 127
1, 139751, Note_off_c, 1, 74, 0
1, 139753, Note_on_c, 1, 76, 127
1, 139950, Note_off_c, 1, 52, 0
1, 139950, Note_off_c, 1, 76, 0
1, 139952, Note_on_c, 1, 50, 127
1, 139952, Note_on_c, 1, 77, 127
1, 140149, Note_off_c, 1, 50, 0
1, 140151, Note_on_c, 1, 49, 127
1, 140348, Note_off_c, 1, 77, 0
1, 140348, Note_off_c, 1, 49, 0
1, 140350, Note_on_c, 1, 50, 127
1, 140350, Note_on_c, 1, 79, 127
1, 140547, Note_off_c, 1, 50, 0
1, 140549, Note_on_c, 1, 52, 127
1, 140746, Note_off_c, 1, 79, 0
1, 140746, Note_off_c, 1, 52, 0
1, 140748, Note_on_c, 1, 53, 127
1, 140748, Note_on_c, 1, 81, 127
1, 140945, Note_off_c, 1, 53, 0
1, 140947, Note_on_c, 1, 52, 127
1, 141144, Note_off_c, 1, 81, 0
1, 141144, Note_off_c, 1, 52, 0
1, 141146, Note_on_c, 1, 53, 127
1, 141146, Note_on_c, 1, 74, 127
1, 141343, Note_off_c, 1, 53, 0
1, 141345, Note_on_c, 1, 55, 127
1, 141542, Note_off_c, 1, 74, 0
1, 141542, Note_off_c, 1, 55, 0
1, 141544, Note_on_c, 1, 73, 127
1, 141544, Note_on_c, 1, 57, 127
1, 141741, Note_off_c, 1, 73, 0
1, 141743, Note_on_c, 1, 71, 127
1, 141940, Note_off_c, 1, 57, 0
1, 141940, Note_off_c, 1, 71, 0
1, 141942, Note_on_c, 1, 73, 127
1, 141942, Note_on_c, 1, 52, 127
1, 142139, Note_off_c, 1, 73, 0
1, 142141, Note_on_c, 1, 71, 127
1, 142338, Note_off_c, 1, 52, 0
1, 142338, Note_off_c, 1, 71, 0
1, 142340, Note_on_c, 1, 45, 127
1, 142340, Note_on_c, 1, 69, 127
1, 142537, Note_off_c, 1, 45, 0
1, 142539, Note_on_c, 1, 52, 127
1, 142736, Note_off_c, 1, 69, 0
1, 142736, Note_off_c, 1, 52, 0
1, 142738, Note_on_c, 1, 54, 127
1, 142738, Note_on_c, 1, 71, 127
1, 142935, Note_off_c, 1, 54, 0
1, 142937, Note_on_c, 1, 56, 127
1, 143134, Note_off_c, 1, 71, 0
1, 143134, Note_off_c, 1, 56, 0
1, 143136, Note_on_c, 1, 57, 127
1, 143136, Note_on_c, 1, 72, 127
1, 143333, Note_off_c, 1, 57, 0
1, 143335, Note_on_c, 1, 56, 127
1, 143532, Note_off_c, 1, 72, 0
1, 143532, Note_off_c, 1, 56, 0
1, 143534, Note_on_c, 1, 57, 127
1, 143534, Note_on_c, 1, 74, 127
1, 143731, Note_off_c, 1, 57, 0
1, 143733, Note_on_c, 1, 59, 127
1, 143930, Note_off_c, 1, 74, 0
1, 143930, Note_off_c, 1, 59, 0
1, 143932, Note_on_c, 1, 60, 127
1, 143932, Note_on_c, 1, 76, 127
1, 144129, Note_off_c, 1, 60, 0
1, 144131, Note_on_c, 1, 59, 127
1, 144328, Note_off_c, 1, 76, 0
1, 144328, Note_off_c, 1, 59, 0
1, 144330, Note_on_c, 1, 60, 127
1, 144330, Note_on_c, 1, 69, 127
1, 144527, Note_off_c, 1, 60, 0
1, 144529, Note_on_c, 1, 62, 127
1, 144726, Note_off_c, 1, 69, 0
1, 144726, Note_off_c, 1, 62, 0
1, 144728, Note_on_c, 1, 68, 127
1, 144728, Note_on_c, 1, 64, 127
1, 144925, Note_off_c, 1, 68, 0
1, 144927, Note_on_c, 1, 66, 127
1, 145124, Note_off_c, 1, 64, 0
1, 145124, Note_off_c, 1, 66, 0
1, 145126, Note_on_c, 1, 68, 127
1, 145126, Note_on_c, 1, 59, 127
1, 145323, Note_off_c, 1, 68, 0
1, 145325, Note_on_c, 1, 66, 127
1, 145522, Note_off_c, 1, 59, 0
1, 145522, Note_off_c, 1, 66, 0
1, 145524, Note_on_c, 1, 52, 127
1, 145524, Note_on_c, 1, 64, 127
1, 145919, Note_off_c, 1, 52, 0
1, 146020, Note_off_c, 1, 64, 0
1, 146053, Note_on_c, 1, 53, 127
1, 146183, Note_off_c, 1, 53, 0
1, 146185, Note_on_c, 1, 52, 127
1, 146315, Note_off_c, 1, 52, 0
1, 146317, Note_on_c, 1, 77, 127
1, 146317, Note_on_c, 1, 50, 127
1, 146514, Note_off_c, 1, 77, 0
1, 146516, Note_on_c, 1, 76, 127
1, 146713, Note_off_c, 1, 76, 0
1, 146715, Note_on_c, 1, 74, 127
1, 146897, Note_off_c, 1, 50, 0
1, 146911, Note_off_c, 1, 74, 0
1, 146913, Note_on_c, 1, 72, 127
1, 147110, Note_off_c, 1, 72, 0
1, 147112, Note_on_c, 1, 74, 127
1, 147112, Note_on_c, 1, 50, 127
1, 147309, Note_off_c, 1, 74, 0
1, 147311, Note_on_c, 1, 72, 127
1, 147508, Note_off_c, 1, 72, 0
1, 147510, Note_on_c, 1, 71, 127
1, 147692, Note_off_c, 1, 50, 0
1, 147706, Note_off_c, 1, 71, 0
1, 147708, Note_on_c, 1, 69, 127
1, 147905, Note_off_c, 1, 69, 0
1, 147907, Note_on_c, 1, 68, 127
1, 147907, Note_on_c, 1, 50, 127
1, 148104, Note_off_c, 1, 68, 0
1, 148106, Note_on_c, 1, 66, 127
1, 148303, Note_off_c, 1, 66, 0
1, 148305, Note_on_c, 1, 64, 127
1, 148487, Note_off_c, 1, 50, 0
1, 148501, Note_off_c, 1, 64, 0
1, 148503, Note_on_c, 1, 62, 127
1, 148700, Note_off_c, 1, 62, 0
1, 148702, Note_on_c, 1, 51, 127
1, 148702, Note_on_c, 1, 60, 127
1, 148899, Note_off_c, 1, 51, 0
1, 148901, Note_on_c, 1, 52, 127
1, 149033, Note_off_c, 1, 60, 0
1, 149097, Note_off_c, 1, 52, 0
1, 149099, Note_on_c, 1, 49, 127
1, 149099, Note_on_c, 1, 69, 127
1, 149296, Note_off_c, 1, 49, 0
1, 149298, Note_on_c, 1, 51, 127
1, 149495, Note_off_c, 1, 51, 0
1, 149497, Note_on_c, 1, 52, 127
1, 149694, Note_off_c, 1, 69, 0
1, 149696, Note_on_c, 1, 68, 127
1, 149893, Note_off_c, 1, 52, 0
1, 149893, Note_off_c, 1, 68, 0
1, 149895, Note_on_c, 1, 69, 127
1, 149895, Note_on_c, 1, 51, 127
1, 150092, Note_off_c, 1, 69, 0
1, 150094, Note_on_c, 1, 71, 127
1, 150291, Note_off_c, 1, 51, 0
1, 150291, Note_off_c, 1, 71, 0
1, 150293, Note_on_c, 1, 69, 127
1, 150293, Note_on_c, 1, 52, 127
1, 150425, Note_off_c, 1, 69, 0
1, 150425, Note_on_c, 1, 68, 127
1, 150491, Note_off_c, 1, 68, 0
1, 150687, Note_off_c, 1, 52, 0
1, 150689, Note_on_c, 1, 40, 127
1, 151085, Note_off_c, 1, 40, 0
1, 151087, Note_on_c, 1, 45, 127
1, 151087, Note_on_c, 1, 69, 127
1, 151284, Note_off_c, 1, 45, 0
1, 151286, Note_on_c, 1, 52, 127
1, 151483, Note_off_c, 1, 52, 0
1, 151485, Note_on_c, 1, 49, 127
1, 151682, Note_off_c, 1, 49, 0
1, 151684, Note_on_c, 1, 44, 127
1, 151881, Note_off_c, 1, 44, 0
1, 152082, Note_on_c, 1, 40, 127
1, 152254, Note_off_c, 1, 40, 0
1, 152279, Note_off_c, 1, 69, 0
1, 152281, Note_on_c, 1, 33, 127
1, 152676, Note_off_c, 1, 33, 0
1, 152694, Note_on_c, 1, 57, 127
1, 152893, Note_on_c, 1, 69, 127
1, 153090, Note_off_c, 1, 57, 0
1, 153092, Note_on_c, 1, 59, 127
1, 153274, Note_off_c, 1, 69, 0
1, 153291, Note_on_c, 1, 68, 127
1, 153488, Note_off_c, 1, 59, 0
1, 153488, Note_off_c, 1, 68, 0
1, 153490, Note_on_c, 1, 69, 127
1, 153490, Note_on_c, 1, 60, 127
1, 153687, Note_off_c, 1, 69, 0
1, 153689, Note_on_c, 1, 71, 127
1, 153886, Note_off_c, 1, 60, 0
1, 153886, Note_off_c, 1, 71, 0
1, 153888, Note_on_c, 1, 72, 127
1, 153888, Note_on_c, 1, 57, 127
1, 154085, Note_off_c, 1, 72, 0
1, 154087, Note_on_c, 1, 74, 127
1, 154284, Note_off_c, 1, 74, 0
1, 154286, Note_on_c, 1, 71, 127
1, 154385, Note_off_c, 1, 57, 0
1, 154482, Note_off_c, 1, 71, 0
1, 154484, Note_on_c, 1, 56, 127
1, 154484, Note_on_c, 1, 76, 127
1, 154681, Note_off_c, 1, 56, 0
1, 154683, Note_on_c, 1, 54, 127
1, 154861, Note_off_c, 1, 76, 0
1, 154882, Note_on_c, 1, 75, 127
1, 155079, Note_off_c, 1, 54, 0
1, 155079, Note_off_c, 1, 75, 0
1, 155081, Note_on_c, 1, 76, 127
1, 155081, Note_on_c, 1, 56, 127
1, 155278, Note_off_c, 1, 76, 0
1, 155280, Note_on_c, 1, 77, 127
1, 155477, Note_off_c, 1, 56, 0
1, 155477, Note_off_c, 1, 77, 0
1, 155479, Note_on_c, 1, 76, 127
1, 155479, Note_on_c, 1, 52, 127
1, 155676, Note_off_c, 1, 76, 0
1, 155678, Note_on_c, 1, 74, 127
1, 155875, Note_off_c, 1, 52, 0
1, 155875, Note_off_c, 1, 74, 0
1, 155877, Note_on_c, 1, 72, 127
1, 155877, Note_on_c, 1, 57, 127
1, 156074, Note_off_c, 1, 72, 0
1, 156076, Note_on_c, 1, 81, 127
1, 156273, Note_off_c, 1, 57, 0
1, 156273, Note_off_c, 1, 81, 0
1, 156275, Note_on_c, 1, 72, 127
1, 156275, Note_on_c, 1, 53, 127
1, 156472, Note_off_c, 1, 72, 0
1, 156474, Note_on_c, 1, 81, 127
1, 156671, Note_off_c, 1, 53, 0
1, 156671, Note_off_c, 1, 81, 0
1, 156673, Note_on_c, 1, 71, 127
1, 156673, Note_on_c, 1, 50, 127
1, 156870, Note_off_c, 1, 71, 0
1, 156872, Note_on_c, 1, 81, 127
1, 157069, Note_off_c, 1, 50, 0
1, 157069, Note_off_c, 1, 81, 0
1, 157071, Note_on_c, 1, 80, 127
1, 157071, Note_on_c, 1, 52, 127
1, 157268, Note_off_c, 1, 80, 0
1, 157270, Note_on_c, 1, 74, 127
1, 157467, Note_off_c, 1, 52, 0
1, 157467, Note_off_c, 1, 74, 0
1, 157469, Note_on_c, 1, 72, 127
1, 157469, Note_on_c, 1, 45, 127
1, 157666, Note_off_c, 1, 72, 0
1, 157668, Note_on_c, 1, 76, 127
1, 157865, Note_off_c, 1, 76, 0
1, 157867, Note_on_c, 1, 68, 127
1, 158064, Note_off_c, 1, 68, 0
1, 158066, Note_on_c, 1, 71, 127
1, 158263, Note_off_c, 1, 71, 0
1, 158265, Note_on_c, 1, 69, 127
1, 158360, Note_off_c, 1, 45, 0
1, 158463, Note_on_c, 1, 56, 127
1, 158660, Note_off_c, 1, 56, 0
1, 158662, Note_on_c, 1, 57, 127
1, 158859, Note_off_c, 1, 57, 0
1, 158861, Note_on_c, 1, 59, 127
1, 159051, Note_off_c, 1, 69, 0
1, 159057, Note_off_c, 1, 59, 0
1, 159059, Note_on_c, 1, 60, 127
1, 159258, Note_on_c, 1, 76, 127
1, 159455, Note_off_c, 1, 60, 0
1, 159457, Note_on_c, 1, 59, 127
1, 159639, Note_off_c, 1, 76, 0
1, 159656, Note_on_c, 1, 75, 127
1, 159853, Note_off_c, 1, 59, 0
1, 159853, Note_off_c, 1, 75, 0
1, 159855, Note_on_c, 1, 76, 127
1, 159855, Note_on_c, 1, 60, 127
1, 160052, Note_off_c, 1, 76, 0
1, 160054, Note_on_c, 1, 69, 127
1, 160251, Note_off_c, 1, 60, 0
1, 160251, Note_off_c, 1, 69, 0
1, 160253, Note_on_c, 1, 71, 127
1, 160253, Note_on_c, 1, 57, 127
1, 160450, Note_off_c, 1, 71, 0
1, 160452, Note_on_c, 1, 72, 127
1, 160649, Note_off_c, 1, 57, 0
1, 160649, Note_off_c, 1, 72, 0
1, 160651, Note_on_c, 1, 71, 127
1, 160651, Note_on_c, 1, 51, 127
1, 160848, Note_off_c, 1, 71, 0
1, 160850, Note_on_c, 1, 83, 127
1, 161047, Note_off_c, 1, 51, 0
1, 161049, Note_on_c, 1, 61, 127
1, 161208, Note_off_c, 1, 83, 0
1, 161247, Note_on_c, 1, 81, 127
1, 161444, Note_off_c, 1, 61, 0
1, 161446, Note_on_c, 1, 63, 127
1, 161624, Note_off_c, 1, 81, 0
1, 161645, Note_on_c, 1, 78, 127
1, 161842, Note_off_c, 1, 63, 0
1, 161842, Note_off_c, 1, 78, 0
1, 161844, Note_on_c, 1, 83, 127
1, 161844, Note_on_c, 1, 59, 127
1, 162041, Note_off_c, 1, 83, 0
1, 162043, Note_on_c, 1, 81, 127
1, 162240, Note_off_c, 1, 59, 0
1, 162240, Note_off_c, 1, 81, 0
1, 162242, Note_on_c, 1, 79, 127
1, 162242, Note_on_c, 1, 64, 127
1, 162439, Note_off_c, 1, 79, 0
1, 162441, Note_on_c, 1, 71, 127
1, 162638, Note_off_c, 1, 64, 0
1, 162638, Note_off_c, 1, 71, 0
1, 162640, Note_on_c, 1, 76, 127
1, 162640, Note_on_c, 1, 60, 127
1, 162837, Note_off_c, 1, 76, 0
1, 162839, Note_on_c, 1, 79, 127
1, 163036, Note_off_c, 1, 60, 0
1, 163036, Note_off_c, 1, 79, 0
1, 163038, Note_on_c, 1, 78, 127
1, 163038, Note_on_c, 1, 57, 127
1, 163235, Note_off_c, 1, 78, 0
1, 163237, Note_on_c, 1, 76, 127
1, 163434, Note_off_c, 1, 57, 0
1, 163434, Note_off_c, 1, 76, 0
1, 163436, Note_on_c, 1, 75, 127
1, 163436, Note_on_c, 1, 59, 127
1, 163633, Note_off_c, 1, 75, 0
1, 163635, Note_on_c, 1, 69, 127
1, 163832, Note_off_c, 1, 59, 0
1, 163832, Note_off_c, 1, 69, 0
1, 163834, Note_on_c, 1, 68, 127
1, 163834, Note_on_c, 1, 52, 127
1, 164031, Note_off_c, 1, 68, 0
1, 164033, Note_on_c, 1, 71, 127
1, 164230, Note_off_c, 1, 71, 0
1, 164232, Note_on_c, 1, 47, 127
1, 164431, Note_on_c, 1, 63, 127
1, 164605, Note_off_c, 1, 47, 0
1, 164628, Note_off_c, 1, 63, 0
1, 164630, Note_on_c, 1, 64, 127
1, 164630, Note_on_c, 1, 40, 127
1, 164829, Note_off_c, 1, 52, 0
1, 165210, Note_off_c, 1, 64, 0
1, 165423, Note_off_c, 1, 40, 0
1, 165425, Note_on_c, 1, 48, 127
1, 165624, Note_on_c, 1, 72, 127
1, 165821, Note_off_c, 1, 48, 0
1, 165823, Note_on_c, 1, 50, 127
1, 166020, Note_off_c, 1, 72, 0
1, 166022, Note_on_c, 1, 71, 127
1, 166219, Note_off_c, 1, 50, 0
1, 166219, Note_off_c, 1, 71, 0
1, 166221, Note_on_c, 1, 52, 127
1, 166221, Note_on_c, 1, 72, 127
1, 166420, Note_on_c, 1, 79, 127
1, 166617, Note_off_c, 1, 52, 0
1, 166619, Note_on_c, 1, 45, 127
1, 166816, Note_off_c, 1, 79, 0
1, 166816, Note_off_c, 1, 45, 0
1, 166818, Note_on_c, 1, 50, 127
1, 166818, Note_on_c, 1, 78, 127
1, 167015, Note_off_c, 1, 50, 0
1, 167015, Note_off_c, 1, 78, 0
1, 167017, Note_on_c, 1, 43, 127
1, 167413, Note_off_c, 1, 72, 0
1, 167413, Note_off_c, 1, 43, 0
1, 167415, Note_on_c, 1, 71, 127
1, 167612, Note_off_c, 1, 71, 0
1, 167614, Note_on_c, 1, 69, 127
1, 167810, Note_off_c, 1, 69, 0
1, 167812, Note_on_c, 1, 71, 127
1, 167812, Note_on_c, 1, 55, 127
1, 168009, Note_off_c, 1, 71, 0
1, 168011, Note_on_c, 1, 74, 127
1, 168208, Note_off_c, 1, 55, 0
1, 168208, Note_off_c, 1, 74, 0
1, 168210, Note_on_c, 1, 76, 127
1, 168210, Note_on_c, 1, 54, 127
1, 168407, Note_off_c, 1, 76, 0
1, 168409, Note_on_c, 1, 78, 127
1, 168606, Note_off_c, 1, 54, 0
1, 168606, Note_off_c, 1, 78, 0
1, 168608, Note_on_c, 1, 79, 127
1, 168608, Note_on_c, 1, 52, 127
1, 168805, Note_off_c, 1, 79, 0
1, 168807, Note_on_c, 1, 76, 127
1, 169004, Note_off_c, 1, 52, 0
1, 169006, Note_on_c, 1, 54, 127
1, 169203, Note_off_c, 1, 76, 0
1, 169205, Note_on_c, 1, 75, 127
1, 169402, Note_off_c, 1, 54, 0
1, 169402, Note_off_c, 1, 75, 0
1, 169404, Note_on_c, 1, 55, 127
1, 169404, Note_on_c, 1, 76, 127
1, 169603, Note_on_c, 1, 71, 127
1, 169800, Note_off_c, 1, 55, 0
1, 169802, Note_on_c, 1, 49, 127
1, 169999, Note_off_c, 1, 71, 0
1, 169999, Note_off_c, 1, 49, 0
1, 170001, Note_on_c, 1, 54, 127
1, 170001, Note_on_c, 1, 70, 127
1, 170198, Note_off_c, 1, 54, 0
1, 170198, Note_off_c, 1, 70, 0
1, 170200, Note_on_c, 1, 47, 127
1, 170596, Note_off_c, 1, 76, 0
1, 170596, Note_off_c, 1, 47, 0
1, 170598, Note_on_c, 1, 75, 127
1, 170795, Note_off_c, 1, 75, 0
1, 170797, Note_on_c, 1, 73, 127
1, 170993, Note_off_c, 1, 73, 0
1, 170995, Note_on_c, 1, 75, 127
1, 170995, Note_on_c, 1, 59, 127
1, 171192, Note_off_c, 1, 75, 0
1, 171194, Note_on_c, 1, 78, 127
1, 171391, Note_off_c, 1, 59, 0
1, 171391, Note_off_c, 1, 78, 0
1, 171393, Note_on_c, 1, 80, 127
1, 171393, Note_on_c, 1, 57, 127
1, 171590, Note_off_c, 1, 80, 0
1, 171592, Note_on_c, 1, 81, 127
1, 171789, Note_off_c, 1, 57, 0
1, 171789, Note_off_c, 1, 81, 0
1, 171791, Note_on_c, 1, 56, 127
1, 171791, Note_on_c, 1, 83, 127
1, 171988, Note_off_c, 1, 56, 0
1, 171990, Note_on_c, 1, 64, 127
1, 171990, Note_on_c, 1, 74, 127
1, 172187, Note_off_c, 1, 64, 0
1, 172187, Note_off_c, 1, 74, 0
1, 172371, Note_off_c, 1, 83, 0
1, 172387, Note_on_c, 1, 56, 127
1, 172387, Note_on_c, 1, 83, 127
1, 172584, Note_off_c, 1, 56, 0
1, 172584, Note_off_c, 1, 83, 0
1, 172586, Note_on_c, 1, 57, 127
1, 172586, Note_on_c, 1, 81, 127
1, 172783, Note_off_c, 1, 57, 0
1, 172785, Note_on_c, 1, 65, 127
1, 172785, Note_on_c, 1, 72, 127
1, 172982, Note_off_c, 1, 65, 0
1, 172982, Note_off_c, 1, 72, 0
1, 173166, Note_off_c, 1, 81, 0
1, 173182, Note_on_c, 1, 57, 127
1, 173182, Note_on_c, 1, 81, 127
1, 173379, Note_off_c, 1, 57, 0
1, 173379, Note_off_c, 1, 81, 0
1, 173381, Note_on_c, 1, 58, 127
1, 173381, Note_on_c, 1, 79, 127
1, 173578, Note_off_c, 1, 58, 0
1, 173580, Note_on_c, 1, 67, 127
1, 173580, Note_on_c, 1, 70, 127
1, 173777, Note_off_c, 1, 67, 0
1, 173777, Note_off_c, 1, 70, 0
1, 173961, Note_off_c, 1, 79, 0
1, 173977, Note_on_c, 1, 58, 127
1, 173977, Note_on_c, 1, 79, 127
1, 174174, Note_off_c, 1, 58, 0
1, 174174, Note_off_c, 1, 79, 0
1, 174176, Note_on_c, 1, 53, 127
1, 174176, Note_on_c, 1, 77, 127
1, 174373, Note_off_c, 1, 53, 0
1, 174375, Note_on_c, 1, 62, 127
1, 174375, Note_on_c, 1, 69, 127
1, 174572, Note_off_c, 1, 62, 0
1, 174572, Note_off_c, 1, 69, 0
1, 174756, Note_off_c, 1, 77, 0
1, 174772, Note_on_c, 1, 53, 127
1, 174772, Note_on_c, 1, 77, 127
1, 174969, Note_off_c, 1, 53, 0
1, 174969, Note_off_c, 1, 77, 0
1, 174971, Note_on_c, 1, 55, 127
1, 174971, Note_on_c, 1, 76, 127
1, 175168, Note_off_c, 1, 55, 0
1, 175170, Note_on_c, 1, 58, 127
1, 175170, Note_on_c, 1, 67, 127
1, 175367, Note_off_c, 1, 58, 0
1, 175367, Note_off_c, 1, 67, 0
1, 175369, Note_on_c, 1, 62, 127
1, 175551, Note_off_c, 1, 76, 0
1, 175565, Note_off_c, 1, 62, 0
1, 175567, Note_on_c, 1, 55, 127
1, 175567, Note_on_c, 1, 76, 127
1, 175764, Note_off_c, 1, 55, 0
1, 175766, Note_on_c, 1, 65, 127
1, 175766, Note_on_c, 1, 57, 127
1, 175960, Note_off_c, 1, 76, 0
1, 175964, Note_on_c, 1, 74, 127
1, 176158, Note_off_c, 1, 65, 0
1, 176160, Note_off_c, 1, 57, 0
1, 176160, Note_off_c, 1, 74, 0
1, 176162, Note_on_c, 1, 64, 127
1, 176162, Note_on_c, 1, 45, 127
1, 176361, Note_on_c, 1, 73, 127
1, 176555, Note_off_c, 1, 64, 0
1, 176557, Note_off_c, 1, 45, 0
1, 176557, Note_off_c, 1, 73, 0
1, 176559, Note_on_c, 1, 74, 127
1, 176559, Note_on_c, 1, 50, 127
1, 176758, Note_on_c, 1, 69, 127
1, 176955, Note_off_c, 1, 69, 0
1, 176957, Note_on_c, 1, 65, 127
1, 177154, Note_off_c, 1, 65, 0
1, 177156, Note_on_c, 1, 62, 127
1, 177346, Note_off_c, 1, 74, 0
1, 177352, Note_off_c, 1, 50, 0
1, 177352, Note_off_c, 1, 62, 0
1, 177354, Note_on_c, 1, 57, 127
1, 177551, Note_off_c, 1, 57, 0
1, 177553, Note_on_c, 1, 53, 127
1, 177750, Note_off_c, 1, 53, 0
1, 177752, Note_on_c, 1, 50, 127
1, 177949, Note_off_c, 1, 50, 0
1, 177951, Note_on_c, 1, 45, 127
1, 178148, Note_off_c, 1, 45, 0
1, 178150, Note_on_c, 1, 38, 127
1, 178349, Note_on_c, 1, 74, 127
1, 178546, Note_off_c, 1, 38, 0
1, 178548, Note_on_c, 1, 40, 127
1, 178745, Note_off_c, 1, 74, 0
1, 178747, Note_on_c, 1, 73, 127
1, 178944, Note_off_c, 1, 40, 0
1, 178944, Note_off_c, 1, 73, 0
1, 178946, Note_on_c, 1, 41, 127
1, 178946, Note_on_c, 1, 74, 127
1, 179145, Note_on_c, 1, 81, 127
1, 179342, Note_off_c, 1, 41, 0
1, 179344, Note_on_c, 1, 71, 127
1, 179344, Note_on_c, 1, 40, 127
1, 179344, Note_on_c, 1, 52, 127
1, 179538, Note_off_c, 1, 81, 0
1, 179542, Note_on_c, 1, 80, 127
1, 179736, Note_off_c, 1, 71, 0
1, 179738, Note_off_c, 1, 40, 0
1, 179738, Note_off_c, 1, 80, 0
1, 179740, Note_on_c, 1, 45, 127
1, 180136, Note_off_c, 1, 74, 0
1, 180136, Note_off_c, 1, 45, 0
1, 180138, Note_on_c, 1, 72, 127
1, 180138, Note_on_c, 1, 47, 127
1, 180335, Note_off_c, 1, 72, 0
1, 180533, Note_off_c, 1, 52, 0
1, 180533, Note_off_c, 1, 47, 0
1, 180535, Note_on_c, 1, 48, 127
1, 180535, Note_on_c, 1, 76, 127
1, 180734, Note_on_c, 1, 71, 127
1, 180931, Note_off_c, 1, 48, 0
1, 180931, Note_off_c, 1, 71, 0
1, 180933, Note_on_c, 1, 72, 127
1, 180933, Note_on_c, 1, 52, 127
1, 181130, Note_off_c, 1, 72, 0
1, 181132, Note_on_c, 1, 74, 127
1, 181322, Note_off_c, 1, 76, 0
1, 181328, Note_off_c, 1, 52, 0
1, 181328, Note_off_c, 1, 74, 0
1, 181330, Note_on_c, 1, 72, 127
1, 181330, Note_on_c, 1, 45, 127
1, 181462, Note_off_c, 1, 72, 0
1, 181528, Note_on_c, 1, 69, 127
1, 181725, Note_off_c, 1, 45, 0
1, 181727, Note_on_c, 1, 47, 127
1, 181924, Note_off_c, 1, 69, 0
1, 181926, Note_on_c, 1, 68, 127
1, 182123, Note_off_c, 1, 47, 0
1, 182123, Note_off_c, 1, 68, 0
1, 182125, Note_on_c, 1, 48, 127
1, 182125, Note_on_c, 1, 69, 127
1, 182324, Note_on_c, 1, 64, 127
1, 182521, Note_off_c, 1, 48, 0
1, 182521, Note_off_c, 1, 64, 0
1, 182523, Note_on_c, 1, 66, 127
1, 182523, Note_on_c, 1, 47, 127
1, 182523, Note_on_c, 1, 59, 127
1, 182722, Note_on_c, 1, 63, 127
1, 182916, Note_off_c, 1, 66, 0
1, 182918, Note_off_c, 1, 47, 0
1, 182918, Note_off_c, 1, 63, 0
1, 182920, Note_on_c, 1, 52, 127
1, 183316, Note_off_c, 1, 69, 0
1, 183316, Note_off_c, 1, 52, 0
1, 183318, Note_on_c, 1, 68, 127
1, 183318, Note_on_c, 1, 54, 127
1, 183515, Note_off_c, 1, 68, 0
1, 183713, Note_off_c, 1, 59, 0
1, 183713, Note_off_c, 1, 54, 0
1, 183715, Note_on_c, 1, 56, 127
1, 183715, Note_on_c, 1, 71, 127
1, 183914, Note_on_c, 1, 64, 127
1, 184111, Note_off_c, 1, 56, 0
1, 184111, Note_off_c, 1, 64, 0
1, 184113, Note_on_c, 1, 66, 127
1, 184113, Note_on_c, 1, 52, 127
1, 184310, Note_off_c, 1, 66, 0
1, 184312, Note_on_c, 1, 68, 127
1, 184478, Note_off_c, 1, 68, 0
1, 184503, Note_off_c, 1, 71, 0
1, 184509, Note_off_c, 1, 52, 0
1, 184511, Note_on_c, 1, 53, 127
1, 184511, Note_on_c, 1, 74, 127
1, 184710, Note_on_c, 1, 69, 127
1, 184907, Note_off_c, 1, 53, 0
1, 184907, Note_off_c, 1, 69, 0
1, 184909, Note_on_c, 1, 71, 127
1, 184909, Note_on_c, 1, 52, 127
1, 185106, Note_off_c, 1, 71, 0
1, 185108, Note_on_c, 1, 72, 127
1, 185305, Note_off_c, 1, 52, 0
1, 185305, Note_off_c, 1, 72, 0
1, 185307, Note_on_c, 1, 50, 127
1, 185703, Note_off_c, 1, 50, 0
1, 185705, Note_on_c, 1, 66, 127
1, 185705, Note_on_c, 1, 47, 127
1, 185902, Note_off_c, 1, 66, 0
1, 186101, Note_off_c, 1, 47, 0
1, 186103, Note_on_c, 1, 68, 127
1, 186293, Note_off_c, 1, 74, 0
1, 186898, Note_on_c, 1, 48, 127
1, 186898, Note_on_c, 1, 76, 127
1, 187294, Note_off_c, 1, 68, 0
1, 187294, Note_off_c, 1, 48, 0
1, 187296, Note_on_c, 1, 56, 127
1, 187692, Note_off_c, 1, 56, 0
1, 187694, Note_on_c, 1, 45, 127
1, 187694, Note_on_c, 1, 57, 127
1, 187893, Note_off_c, 1, 76, 0
1, 187893, Note_on_c, 1, 77, 127
1, 188089, Note_off_c, 1, 45, 0
1, 188089, Note_off_c, 1, 77, 0
1, 188883, Note_off_c, 1, 57, 0
1, 189678, Note_on_c, 1, 52, 127
1, 189678, Note_on_c, 1, 73, 127
1, 189877, Note_on_c, 1, 68, 127
1, 190074, Note_off_c, 1, 52, 0
1, 190074, Note_off_c, 1, 68, 0
1, 190076, Note_on_c, 1, 45, 127
1, 190076, Note_on_c, 1, 69, 127
1, 190275, Note_on_c, 1, 64, 127
1, 190474, Note_on_c, 1, 57, 127
1, 190863, Note_off_c, 1, 45, 0
1, 190863, Note_off_c, 1, 69, 0
1, 190869, Note_off_c, 1, 73, 0
1, 190869, Note_off_c, 1, 64, 0
1, 190869, Note_off_c, 1, 57, 0
1, 190871, Note_on_c, 1, 69, 127
1, 190871, Note_on_c, 1, 45, 127
1, 191068, Note_off_c, 1, 69, 0
1, 191070, Note_on_c, 1, 71, 127
1, 191267, Note_off_c, 1, 45, 0
1, 191267, Note_off_c, 1, 71, 0
1, 191269, Note_on_c, 1, 72, 127
1, 191269, Note_on_c, 1, 57, 127
1, 191466, Note_off_c, 1, 72, 0
1, 191468, Note_on_c, 1, 74, 127
1, 191665, Note_off_c, 1, 57, 0
1, 191665, Note_off_c, 1, 74, 0
1, 191667, Note_on_c, 1, 76, 127
1, 191667, Note_on_c, 1, 56, 127
1, 191864, Note_off_c, 1, 76, 0
1, 191866, Note_on_c, 1, 78, 127
1, 192063, Note_off_c, 1, 56, 0
1, 192063, Note_off_c, 1, 78, 0
1, 192065, Note_on_c, 1, 80, 127
1, 192065, Note_on_c, 1, 54, 127
1, 192262, Note_off_c, 1, 80, 0
1, 192264, Note_on_c, 1, 81, 127
1, 192461, Note_off_c, 1, 54, 0
1, 192461, Note_off_c, 1, 81, 0
1, 192463, Note_on_c, 1, 80, 127
1, 192463, Note_on_c, 1, 52, 127
1, 192660, Note_off_c, 1, 80, 0
1, 192662, Note_on_c, 1, 81, 127
1, 192759, Note_off_c, 1, 81, 0
1, 192858, Note_off_c, 1, 52, 0
1, 192860, Note_on_c, 1, 81, 127
1, 192860, Note_on_c, 1, 54, 127
1, 192957, Note_off_c, 1, 81, 0
1, 192959, Note_on_c, 1, 80, 127
1, 193056, Note_off_c, 1, 80, 0
1, 193058, Note_on_c, 1, 78, 127
1, 193255, Note_off_c, 1, 54, 0
1, 193255, Note_off_c, 1, 78, 0
1, 193257, Note_on_c, 1, 76, 127
1, 193257, Note_on_c, 1, 56, 127
1, 193454, Note_off_c, 1, 76, 0
1, 193456, Note_on_c, 1, 77, 127
1, 193653, Note_off_c, 1, 56, 0
1, 193653, Note_off_c, 1, 77, 0
1, 193655, Note_on_c, 1, 76, 127
1, 193655, Note_on_c, 1, 52, 127
1, 193852, Note_off_c, 1, 76, 0
1, 193854, Note_on_c, 1, 74, 127
1, 194051, Note_off_c, 1, 52, 0
1, 194051, Note_off_c, 1, 74, 0
1, 194053, Note_on_c, 1, 72, 127
1, 194053, Note_on_c, 1, 57, 127
1, 194250, Note_off_c, 1, 72, 0
1, 194252, Note_on_c, 1, 76, 127
1, 194449, Note_off_c, 1, 57, 0
1, 194449, Note_off_c, 1, 76, 0
1, 194451, Note_on_c, 1, 77, 127
1, 194451, Note_on_c, 1, 48, 127
1, 194648, Note_off_c, 1, 77, 0
1, 194650, Note_on_c, 1, 76, 127
1, 194847, Note_off_c, 1, 48, 0
1, 194847, Note_off_c, 1, 76, 0
1, 194849, Note_on_c, 1, 74, 127
1, 194849, Note_on_c, 1, 50, 127
1, 195046, Note_off_c, 1, 74, 0
1, 195048, Note_on_c, 1, 72, 127
1, 195245, Note_off_c, 1, 50, 0
1, 195245, Note_off_c, 1, 72, 0
1, 195247, Note_on_c, 1, 71, 127
1, 195247, Note_on_c, 1, 52, 127
1, 195444, Note_off_c, 1, 71, 0
1, 195446, Note_on_c, 1, 74, 127
1, 195643, Note_off_c, 1, 52, 0
1, 195643, Note_off_c, 1, 74, 0
1, 195645, Note_on_c, 1, 72, 127
1, 195645, Note_on_c, 1, 45, 127
1, 195842, Note_off_c, 1, 72, 0
1, 195844, Note_on_c, 1, 74, 127
1, 195941, Note_off_c, 1, 74, 0
1, 196238, Note_off_c, 1, 45, 0
1, 196240, Note_on_c, 1, 52, 127
1, 196240, Note_on_c, 1, 71, 127
1, 196437, Note_off_c, 1, 52, 0
1, 196437, Note_off_c, 1, 71, 0
1, 196439, Note_on_c, 1, 57, 127
1, 196439, Note_on_c, 1, 69, 127
1, 196636, Note_off_c, 1, 57, 0
1, 196638, Note_on_c, 1, 59, 127
1, 196835, Note_off_c, 1, 59, 0
1, 196837, Note_on_c, 1, 60, 127
1, 197019, Note_off_c, 1, 69, 0
1, 197033, Note_off_c, 1, 60, 0
1, 197035, Note_on_c, 1, 59, 127
1, 197232, Note_off_c, 1, 59, 0
1, 197234, Note_on_c, 1, 78, 127
1, 197234, Note_on_c, 1, 57, 127
1, 197431, Note_off_c, 1, 78, 0
1, 197433, Note_on_c, 1, 79, 127
1, 197630, Note_off_c, 1, 57, 0
1, 197630, Note_off_c, 1, 79, 0
1, 197632, Note_on_c, 1, 81, 127
1, 197632, Note_on_c, 1, 45, 127
1, 197829, Note_off_c, 1, 81, 0
1, 197831, Note_on_c, 1, 79, 127
1, 198028, Note_off_c, 1, 45, 0
1, 198028, Note_off_c, 1, 79, 0
1, 198030, Note_on_c, 1, 78, 127
1, 198030, Note_on_c, 1, 59, 127
1, 198227, Note_off_c, 1, 78, 0
1, 198229, Note_on_c, 1, 79, 127
1, 198426, Note_off_c, 1, 59, 0
1, 198426, Note_off_c, 1, 79, 0
1, 198428, Note_on_c, 1, 81, 127
1, 198428, Note_on_c, 1, 47, 127
1, 198625, Note_off_c, 1, 81, 0
1, 198627, Note_on_c, 1, 79, 127
1, 198824, Note_off_c, 1, 47, 0
1, 198824, Note_off_c, 1, 79, 0
1, 198826, Note_on_c, 1, 78, 127
1, 198826, Note_on_c, 1, 60, 127
1, 199023, Note_off_c, 1, 78, 0
1, 199025, Note_on_c, 1, 79, 127
1, 199222, Note_off_c, 1, 60, 0
1, 199222, Note_off_c, 1, 79, 0
1, 199224, Note_on_c, 1, 81, 127
1, 199224, Note_on_c, 1, 48, 127
1, 199421, Note_off_c, 1, 81, 0
1, 199423, Note_on_c, 1, 75, 127
1, 199620, Note_off_c, 1, 48, 0
1, 199620, Note_off_c, 1, 75, 0
1, 199622, Note_on_c, 1, 76, 127
1, 199622, Note_on_c, 1, 55, 127
1, 199819, Note_off_c, 1, 76, 0
1, 199821, Note_on_c, 1, 78, 127
1, 200018, Note_off_c, 1, 55, 0
1, 200018, Note_off_c, 1, 78, 0
1, 200020, Note_on_c, 1, 79, 127
1, 200020, Note_on_c, 1, 43, 127
1, 200217, Note_off_c, 1, 79, 0
1, 200219, Note_on_c, 1, 71, 127
1, 200416, Note_off_c, 1, 43, 0
1, 200416, Note_off_c, 1, 71, 0
1, 200418, Note_on_c, 1, 72, 127
1, 200418, Note_on_c, 1, 57, 127
1, 200615, Note_off_c, 1, 72, 0
1, 200617, Note_on_c, 1, 76, 127
1, 200814, Note_off_c, 1, 57, 0
1, 200814, Note_off_c, 1, 76, 0
1, 200816, Note_on_c, 1, 78, 127
1, 200816, Note_on_c, 1, 45, 127
1, 201013, Note_off_c, 1, 78, 0
1, 201015, Note_on_c, 1, 76, 127
1, 201212, Note_off_c, 1, 45, 0
1, 201212, Note_off_c, 1, 76, 0
1, 201214, Note_on_c, 1, 59, 127
1, 201214, Note_on_c, 1, 75, 127
1, 201413, Note_on_c, 1, 69, 127
1, 201610, Note_off_c, 1, 59, 0
1, 201610, Note_off_c, 1, 69, 0
1, 201612, Note_on_c, 1, 71, 127
1, 201612, Note_on_c, 1, 47, 127
1, 201809, Note_off_c, 1, 71, 0
1, 202001, Note_off_c, 1, 75, 0
1, 202007, Note_off_c, 1, 47, 0
1, 202009, Note_on_c, 1, 68, 127
1, 202009, Note_on_c, 1, 52, 127
1, 202009, Note_on_c, 1, 76, 127
1, 202206, Note_off_c, 1, 68, 0
1, 202208, Note_on_c, 1, 71, 127
1, 202405, Note_off_c, 1, 71, 0
1, 202407, Note_on_c, 1, 69, 127
1, 202604, Note_off_c, 1, 69, 0
1, 202805, Note_on_c, 1, 64, 127
1, 203004, Note_on_c, 1, 47, 127
1, 203201, Note_off_c, 1, 52, 0
1, 203201, Note_off_c, 1, 47, 0
1, 203203, Note_on_c, 1, 40, 127
1, 203385, Note_off_c, 1, 64, 0
1, 203459, Note_off_c, 1, 76, 0
1, 203598, Note_off_c, 1, 40, 0
1, 203600, Note_on_c, 1, 72, 127
1, 203600, Note_on_c, 1, 48, 127
1, 203797, Note_off_c, 1, 72, 0
1, 203799, Note_on_c, 1, 74, 127
1, 203996, Note_off_c, 1, 48, 0
1, 203996, Note_off_c, 1, 74, 0
1, 203998, Note_on_c, 1, 76, 127
1, 203998, Note_on_c, 1, 50, 127
1, 204195, Note_off_c, 1, 76, 0
1, 204197, Note_on_c, 1, 77, 127
1, 204394, Note_off_c, 1, 50, 0
1, 204394, Note_off_c, 1, 77, 0
1, 204396, Note_on_c, 1, 79, 127
1, 204396, Note_on_c, 1, 52, 127
1, 204593, Note_off_c, 1, 79, 0
1, 204595, Note_on_c, 1, 81, 127
1, 204792, Note_off_c, 1, 52, 0
1, 204792, Note_off_c, 1, 81, 0
1, 204794, Note_on_c, 1, 83, 127
1, 204794, Note_on_c, 1, 48, 127
1, 204991, Note_off_c, 1, 83, 0
1, 204993, Note_on_c, 1, 84, 127
1, 205190, Note_off_c, 1, 48, 0
1, 205190, Note_off_c, 1, 84, 0
1, 205192, Note_on_c, 1, 83, 127
1, 205192, Note_on_c, 1, 55, 127
1, 205389, Note_off_c, 1, 83, 0
1, 205391, Note_on_c, 1, 84, 127
1, 205488, Note_off_c, 1, 84, 0
1, 205587, Note_off_c, 1, 55, 0
1, 205589, Note_on_c, 1, 84, 127
1, 205589, Note_on_c, 1, 54, 127
1, 205686, Note_off_c, 1, 84, 0
1, 205688, Note_on_c, 1, 83, 127
1, 205785, Note_off_c, 1, 83, 0
1, 205787, Note_on_c, 1, 81, 127
1, 205984, Note_off_c, 1, 54, 0
1, 205984, Note_off_c, 1, 81, 0
1, 205986, Note_on_c, 1, 79, 127
1, 205986, Note_on_c, 1, 55, 127
1, 206183, Note_off_c, 1, 79, 0
1, 206185, Note_on_c, 1, 81, 127
1, 206382, Note_off_c, 1, 55, 0
1, 206382, Note_off_c, 1, 81, 0
1, 206384, Note_on_c, 1, 79, 127
1, 206384, Note_on_c, 1, 43, 127
1, 206581, Note_off_c, 1, 79, 0
1, 206583, Note_on_c, 1, 78, 127
1, 206780, Note_off_c, 1, 43, 0
1, 206780, Note_off_c, 1, 78, 0
1, 206782, Note_on_c, 1, 76, 127
1, 206782, Note_on_c, 1, 52, 127
1, 206979, Note_off_c, 1, 76, 0
1, 206981, Note_on_c, 1, 72, 127
1, 207178, Note_off_c, 1, 52, 0
1, 207178, Note_off_c, 1, 72, 0
1, 207180, Note_on_c, 1, 71, 127
1, 207180, Note_on_c, 1, 54, 127
1, 207377, Note_off_c, 1, 71, 0
1, 207379, Note_on_c, 1, 69, 127
1, 207576, Note_off_c, 1, 54, 0
1, 207576, Note_off_c, 1, 69, 0
1, 207578, Note_on_c, 1, 67, 127
1, 207578, Note_on_c, 1, 55, 127
1, 207775, Note_off_c, 1, 67, 0
1, 207777, Note_on_c, 1, 66, 127
1, 207974, Note_off_c, 1, 55, 0
1, 207974, Note_off_c, 1, 66, 0
1, 207976, Note_on_c, 1, 64, 127
1, 207976, Note_on_c, 1, 57, 127
1, 208173, Note_off_c, 1, 64, 0
1, 208175, Note_on_c, 1, 66, 127
1, 208372, Note_off_c, 1, 57, 0
1, 208372, Note_off_c, 1, 66, 0
1, 208374, Note_on_c, 1, 64, 127
1, 208374, Note_on_c, 1, 59, 127
1, 208471, Note_off_c, 1, 64, 0
1, 208473, Note_on_c, 1, 63, 127
1, 208570, Note_off_c, 1, 63, 0
1, 208768, Note_off_c, 1, 59, 0
1, 208770, Note_on_c, 1, 64, 127
1, 208770, Note_on_c, 1, 49, 127
1, 208867, Note_off_c, 1, 64, 0
1, 208869, Note_on_c, 1, 63, 127
1, 208966, Note_off_c, 1, 63, 0
1, 208968, Note_on_c, 1, 61, 127
1, 209165, Note_off_c, 1, 49, 0
1, 209165, Note_off_c, 1, 61, 0
1, 209167, Note_on_c, 1, 51, 127
1, 209167, Note_on_c, 1, 59, 127
1, 209364, Note_off_c, 1, 51, 0
1, 209366, Note_on_c, 1, 49, 127
1, 209563, Note_off_c, 1, 49, 0
1, 209565, Note_on_c, 1, 47, 127
1, 209747, Note_off_c, 1, 59, 0
1, 209761, Note_off_c, 1, 47, 0
1, 209763, Note_on_c, 1, 51, 127
1, 209960, Note_off_c, 1, 51, 0
1, 209962, Note_on_c, 1, 74, 127
1, 209962, Note_on_c, 1, 44, 127
1, 210159, Note_off_c, 1, 74, 0
1, 210161, Note_on_c, 1, 73, 127
1, 210358, Note_off_c, 1, 73, 0
1, 210557, Note_off_c, 1, 44, 0
1, 210559, Note_on_c, 1, 52, 127
1, 210559, Note_on_c, 1, 62, 127
1, 210755, Note_off_c, 1, 52, 0
1, 210755, Note_off_c, 1, 62, 0
1, 210757, Note_on_c, 1, 74, 127
1, 210757, Note_on_c, 1, 45, 127
1, 210954, Note_off_c, 1, 74, 0
1, 210956, Note_on_c, 1, 73, 127
1, 211153, Note_off_c, 1, 73, 0
1, 211352, Note_off_c, 1, 45, 0
1, 211354, Note_on_c, 1, 53, 127
1, 211354, Note_on_c, 1, 62, 127
1, 211550, Note_off_c, 1, 53, 0
1, 211550, Note_off_c, 1, 62, 0
1, 211552, Note_on_c, 1, 74, 127
1, 211552, Note_on_c, 1, 46, 127
1, 211749, Note_off_c, 1, 74, 0
1, 211751, Note_on_c, 1, 73, 127
1, 211948, Note_off_c, 1, 73, 0
1, 212147, Note_off_c, 1, 46, 0
1, 212149, Note_on_c, 1, 55, 127
1, 212149, Note_on_c, 1, 62, 127
1, 212345, Note_off_c, 1, 55, 0
1, 212345, Note_off_c, 1, 62, 0
1, 212347, Note_on_c, 1, 74, 127
1, 212347, Note_on_c, 1, 41, 127
1, 212544, Note_off_c, 1, 74, 0
1, 212546, Note_on_c, 1, 73, 127
1, 212743, Note_off_c, 1, 73, 0
1, 212942, Note_off_c, 1, 41, 0
1, 212944, Note_on_c, 1, 50, 127
1, 212944, Note_on_c, 1, 62, 127
1, 213140, Note_off_c, 1, 50, 0
1, 213142, Note_on_c, 1, 43, 127
1, 213233, Note_off_c, 1, 62, 0
1, 213341, Note_on_c, 1, 70, 127
1, 213538, Note_off_c, 1, 43, 0
1, 213538, Note_off_c, 1, 70, 0
1, 213540, Note_on_c, 1, 69, 127
1, 213540, Note_on_c, 1, 55, 127
1, 213737, Note_off_c, 1, 69, 0
1, 213739, Note_on_c, 1, 67, 127
1, 213936, Note_off_c, 1, 55, 0
1, 213936, Note_off_c, 1, 67, 0
1, 213938, Note_on_c, 1, 65, 127
1, 213938, Note_on_c, 1, 57, 127
1, 214135, Note_off_c, 1, 65, 0
1, 214137, Note_on_c, 1, 64, 127
1, 214334, Note_off_c, 1, 57, 0
1, 214334, Note_off_c, 1, 64, 0
1, 214336, Note_on_c, 1, 62, 127
1, 214336, Note_on_c, 1, 45, 127
1, 214533, Note_off_c, 1, 62, 0
1, 214535, Note_on_c, 1, 64, 127
1, 214732, Note_off_c, 1, 45, 0
1, 214732, Note_off_c, 1, 64, 0
1, 214734, Note_on_c, 1, 65, 127
1, 214734, Note_on_c, 1, 50, 127
1, 214931, Note_off_c, 1, 65, 0
1, 214933, Note_on_c, 1, 62, 127
1, 215130, Note_off_c, 1, 50, 0
1, 215130, Note_off_c, 1, 62, 0
1, 215132, Note_on_c, 1, 65, 127
1, 215132, Note_on_c, 1, 52, 127
1, 215329, Note_off_c, 1, 65, 0
1, 215331, Note_on_c, 1, 69, 127
1, 215528, Note_off_c, 1, 52, 0
1, 215528, Note_off_c, 1, 69, 0
1, 215530, Note_on_c, 1, 53, 127
1, 215530, Note_on_c, 1, 74, 127
1, 215727, Note_off_c, 1, 53, 0
1, 215729, Note_on_c, 1, 55, 127
1, 215926, Note_off_c, 1, 55, 0
1, 216110, Note_off_c, 1, 74, 0
1, 216126, Note_on_c, 1, 52, 127
1, 216323, Note_off_c, 1, 52, 0
1, 216325, Note_on_c, 1, 77, 127
1, 216325, Note_on_c, 1, 50, 127
1, 216522, Note_off_c, 1, 77, 0
1, 216524, Note_on_c, 1, 79, 127
1, 216721, Note_off_c, 1, 50, 0
1, 216721, Note_off_c, 1, 79, 0
1, 216723, Note_on_c, 1, 81, 127
1, 216723, Note_on_c, 1, 52, 127
1, 216920, Note_off_c, 1, 81, 0
1, 216922, Note_on_c, 1, 79, 127
1, 217119, Note_off_c, 1, 52, 0
1, 217119, Note_off_c, 1, 79, 0
1, 217121, Note_on_c, 1, 77, 127
1, 217121, Note_on_c, 1, 53, 127
1, 217318, Note_off_c, 1, 77, 0
1, 217320, Note_on_c, 1, 76, 127
1, 217517, Note_off_c, 1, 53, 0
1, 217517, Note_off_c, 1, 76, 0
1, 217519, Note_on_c, 1, 74, 127
1, 217519, Note_on_c, 1, 55, 127
1, 217716, Note_off_c, 1, 74, 0
1, 217718, Note_on_c, 1, 76, 127
1, 217915, Note_off_c, 1, 55, 0
1, 217915, Note_off_c, 1, 76, 0
1, 217917, Note_on_c, 1, 73, 127
1, 217917, Note_on_c, 1, 57, 127
1, 218114, Note_off_c, 1, 73, 0
1, 218116, Note_on_c, 1, 74, 127
1, 218313, Note_off_c, 1, 57, 0
1, 218313, Note_off_c, 1, 74, 0
1, 218315, Note_on_c, 1, 73, 127
1, 218315, Note_on_c, 1, 52, 127
1, 218512, Note_off_c, 1, 73, 0
1, 218514, Note_on_c, 1, 71, 127
1, 218711, Note_off_c, 1, 52, 0
1, 218711, Note_off_c, 1, 71, 0
1, 218713, Note_on_c, 1, 45, 127
1, 218713, Note_on_c, 1, 69, 127
1, 218910, Note_off_c, 1, 45, 0
1, 218910, Note_off_c, 1, 69, 0
1, 218912, Note_on_c, 1, 59, 127
1, 219109, Note_off_c, 1, 59, 0
1, 219111, Note_on_c, 1, 57, 127
1, 219308, Note_off_c, 1, 57, 0
1, 219310, Note_on_c, 1, 56, 127
1, 219507, Note_off_c, 1, 56, 0
1, 219509, Note_on_c, 1, 72, 127
1, 219509, Note_on_c, 1, 57, 127
1, 219706, Note_off_c, 1, 72, 0
1, 219708, Note_on_c, 1, 74, 127
1, 219905, Note_off_c, 1, 57, 0
1, 219905, Note_off_c, 1, 74, 0
1, 219907, Note_on_c, 1, 76, 127
1, 219907, Note_on_c, 1, 59, 127
1, 220104, Note_off_c, 1, 76, 0
1, 220106, Note_on_c, 1, 74, 127
1, 220303, Note_off_c, 1, 59, 0
1, 220303, Note_off_c, 1, 74, 0
1, 220305, Note_on_c, 1, 72, 127
1, 220305, Note_on_c, 1, 60, 127
1, 220502, Note_off_c, 1, 72, 0
1, 220504, Note_on_c, 1, 71, 127
1, 220701, Note_off_c, 1, 60, 0
1, 220701, Note_off_c, 1, 71, 0
1, 220703, Note_on_c, 1, 69, 127
1, 220703, Note_on_c, 1, 62, 127
1, 220900, Note_off_c, 1, 69, 0
1, 220902, Note_on_c, 1, 71, 127
1, 221099, Note_off_c, 1, 62, 0
1, 221099, Note_off_c, 1, 71, 0
1, 221101, Note_on_c, 1, 68, 127
1, 221101, Note_on_c, 1, 64, 127
1, 221298, Note_off_c, 1, 68, 0
1, 221300, Note_on_c, 1, 69, 127
1, 221497, Note_off_c, 1, 64, 0
1, 221497, Note_off_c, 1, 69, 0
1, 221499, Note_on_c, 1, 68, 127
1, 221499, Note_on_c, 1, 59, 127
1, 221696, Note_off_c, 1, 68, 0
1, 221698, Note_on_c, 1, 66, 127
1, 221895, Note_off_c, 1, 59, 0
1, 221895, Note_off_c, 1, 66, 0
1, 221897, Note_on_c, 1, 52, 127
1, 221897, Note_on_c, 1, 64, 127
1, 222094, Note_off_c, 1, 52, 0
1, 222094, Note_off_c, 1, 64, 0
1, 222096, Note_on_c, 1, 55, 127
1, 222293, Note_off_c, 1, 55, 0
1, 222295, Note_on_c, 1, 53, 127
1, 222492, Note_off_c, 1, 53, 0
1, 222494, Note_on_c, 1, 52, 127
1, 222691, Note_off_c, 1, 52, 0
1, 222693, Note_on_c, 1, 77, 127
1, 222693, Note_on_c, 1, 50, 127
1, 222890, Note_off_c, 1, 77, 0
1, 222892, Note_on_c, 1, 74, 127
1, 223089, Note_off_c, 1, 50, 0
1, 223089, Note_off_c, 1, 74, 0
1, 223091, Note_on_c, 1, 74, 127
1, 223091, Note_on_c, 1, 52, 127
1, 223288, Note_off_c, 1, 74, 0
1, 223290, Note_on_c, 1, 71, 127
1, 223487, Note_off_c, 1, 52, 0
1, 223487, Note_off_c, 1, 71, 0
1, 223489, Note_on_c, 1, 71, 127
1, 223489, Note_on_c, 1, 53, 127
1, 223686, Note_off_c, 1, 71, 0
1, 223688, Note_on_c, 1, 68, 127
1, 223885, Note_off_c, 1, 53, 0
1, 223885, Note_off_c, 1, 68, 0
1, 223887, Note_on_c, 1, 68, 127
1, 223887, Note_on_c, 1, 50, 127
1, 224084, Note_off_c, 1, 68, 0
1, 224086, Note_on_c, 1, 64, 127
1, 224283, Note_off_c, 1, 50, 0
1, 224283, Note_off_c, 1, 64, 0
1, 224285, Note_on_c, 1, 64, 127
1, 224285, Note_on_c, 1, 50, 127
1, 224482, Note_off_c, 1, 64, 0
1, 224484, Note_on_c, 1, 59, 127
1, 224681, Note_off_c, 1, 50, 0
1, 224681, Note_off_c, 1, 59, 0
1, 224683, Note_on_c, 1, 59, 127
1, 224683, Note_on_c, 1, 52, 127
1, 224880, Note_off_c, 1, 59, 0
1, 224882, Note_on_c, 1, 56, 127
1, 225079, Note_off_c, 1, 52, 0
1, 225079, Note_off_c, 1, 56, 0
1, 225081, Note_on_c, 1, 57, 127
1, 225081, Note_on_c, 1, 54, 127
1, 225278, Note_off_c, 1, 57, 0
1, 225280, Note_on_c, 1, 69, 127
1, 225477, Note_off_c, 1, 54, 0
1, 225477, Note_off_c, 1, 69, 0
1, 225479, Note_on_c, 1, 68, 127
1, 225479, Note_on_c, 1, 51, 127
1, 225676, Note_off_c, 1, 68, 0
1, 225678, Note_on_c, 1, 69, 127
1, 225875, Note_off_c, 1, 51, 0
1, 225875, Note_off_c, 1, 69, 0
1, 225877, Note_on_c, 1, 60, 127
1, 225877, Note_on_c, 1, 52, 127
1, 226074, Note_off_c, 1, 60, 0
1, 226076, Note_on_c, 1, 69, 127
1, 226273, Note_off_c, 1, 52, 0
1, 226273, Note_off_c, 1, 69, 0
1, 226275, Note_on_c, 1, 68, 127
1, 226275, Note_on_c, 1, 51, 127
1, 226472, Note_off_c, 1, 68, 0
1, 226474, Note_on_c, 1, 69, 127
1, 226671, Note_off_c, 1, 51, 0
1, 226671, Note_off_c, 1, 69, 0
1, 226673, Note_on_c, 1, 64, 127
1, 226673, Note_on_c, 1, 52, 127
1, 226870, Note_off_c, 1, 64, 0
1, 226872, Note_on_c, 1, 68, 127
1, 227069, Note_off_c, 1, 52, 0
1, 227069, Note_off_c, 1, 68, 0
1, 227071, Note_on_c, 1, 66, 127
1, 227071, Note_on_c, 1, 40, 127
1, 227268, Note_off_c, 1, 66, 0
1, 227270, Note_on_c, 1, 68, 127
1, 227464, Note_off_c, 1, 40, 0
1, 227466, Note_off_c, 1, 68, 0
1, 227468, Note_on_c, 1, 69, 127
1, 227565, Note_off_c, 1, 69, 0
1, 227567, Note_on_c, 1, 68, 127
1, 227664, Note_off_c, 1, 68, 0
1, 227666, Note_on_c, 1, 69, 127
1, 227666, Note_on_c, 1, 45, 127
1, 227865, Note_on_c, 1, 49, 127
1, 228064, Note_on_c, 1, 52, 127
1, 228263, Note_on_c, 1, 57, 127
1, 228857, Note_off_c, 1, 69, 0
1, 228859, Note_off_c, 1, 49, 0
1, 228967, Note_off_c, 1, 57, 0
1, 229054, Note_off_c, 1, 45, 0
1, 229058, Note_off_c, 1, 52, 0
1, 229074, Note_on_c, 1, 57, 127
1, 229074, Note_on_c, 1, 69, 127
1, 229462, Note_off_c, 1, 57, 0
1, 229464, Note_on_c, 1, 59, 127
1, 229657, Note_off_c, 1, 69, 0
1, 229659, Note_on_c, 1, 68, 127
1, 229852, Note_off_c, 1, 59, 0
1, 229852, Note_off_c, 1, 68, 0
1, 229854, Note_on_c, 1, 69, 127
1, 229854, Note_on_c, 1, 60, 127
1, 230242, Note_off_c, 1, 69, 0
1, 230242, Note_off_c, 1, 60, 0
1, 230244, Note_on_c, 1, 71, 127
1, 230244, Note_on_c, 1, 62, 127
1, 230632, Note_off_c, 1, 71, 0
1, 230632, Note_off_c, 1, 62, 0
1, 230634, Note_on_c, 1, 52, 127
1, 230634, Note_on_c, 1, 68, 127
1, 231022, Note_off_c, 1, 52, 0
1, 231024, Note_on_c, 1, 54, 127
1, 231217, Note_off_c, 1, 68, 0
1, 231219, Note_on_c, 1, 69, 127
1, 231412, Note_off_c, 1, 54, 0
1, 231412, Note_off_c, 1, 69, 0
1, 231414, Note_on_c, 1, 71, 127
1, 231414, Note_on_c, 1, 56, 127
1, 231802, Note_off_c, 1, 71, 0
1, 231802, Note_off_c, 1, 56, 0
1, 231804, Note_on_c, 1, 64, 127
1, 231804, Note_on_c, 1, 57, 127
1, 232192, Note_off_c, 1, 64, 0
1, 232192, Note_off_c, 1, 57, 0
1, 232194, Note_on_c, 1, 76, 127
1, 232194, Note_on_c, 1, 48, 127
1, 232582, Note_off_c, 1, 76, 0
1, 232584, Note_on_c, 1, 77, 127
1, 232584, Note_on_c, 1, 57, 127
1, 232777, Note_off_c, 1, 77, 0
1, 232966, Note_off_c, 1, 48, 0
1, 232974, Note_on_c, 1, 74, 127
1, 232974, Note_on_c, 1, 47, 127
1, 233356, Note_off_c, 1, 57, 0
1, 233362, Note_off_c, 1, 74, 0
1, 233364, Note_on_c, 1, 72, 127
1, 233364, Note_on_c, 1, 56, 127
1, 233557, Note_off_c, 1, 72, 0
1, 233559, Note_on_c, 1, 71, 127
1, 233746, Note_off_c, 1, 47, 0
1, 233752, Note_off_c, 1, 56, 0
1, 233752, Note_off_c, 1, 71, 0
1, 233754, Note_on_c, 1, 72, 127
1, 233754, Note_on_c, 1, 57, 127
1, 233754, Note_on_c, 1, 45, 127
1, 234142, Note_off_c, 1, 72, 0
1, 234142, Note_off_c, 1, 57, 0
1, 234144, Note_on_c, 1, 71, 127
1, 234144, Note_on_c, 1, 52, 127
1, 234337, Note_off_c, 1, 71, 0
1, 234526, Note_off_c, 1, 45, 0
1, 234532, Note_off_c, 1, 52, 0
1, 234534, Note_on_c, 1, 57, 127
1, 234534, Note_on_c, 1, 69, 127
1, 234922, Note_off_c, 1, 57, 0
1, 234924, Note_on_c, 1, 59, 127
1, 235103, Note_off_c, 1, 69, 0
1, 235312, Note_off_c, 1, 59, 0
1, 235314, Note_on_c, 1, 60, 127
1, 235314, Note_on_c, 1, 78, 127
1, 235702, Note_off_c, 1, 60, 0
1, 235704, Note_on_c, 1, 59, 127
1, 235897, Note_off_c, 1, 78, 0
1, 235899, Note_on_c, 1, 79, 127
1, 236092, Note_off_c, 1, 59, 0
1, 236092, Note_off_c, 1, 79, 0
1, 236094, Note_on_c, 1, 81, 127
1, 236094, Note_on_c, 1, 60, 127
1, 236482, Note_off_c, 1, 81, 0
1, 236482, Note_off_c, 1, 60, 0
1, 236484, Note_on_c, 1, 78, 127
1, 236484, Note_on_c, 1, 57, 127
1, 236872, Note_off_c, 1, 78, 0
1, 236872, Note_off_c, 1, 57, 0
1, 236874, Note_on_c, 1, 59, 127
1, 236874, Note_on_c, 1, 75, 127
1, 237262, Note_off_c, 1, 59, 0
1, 237264, Note_on_c, 1, 61, 127
1, 237457, Note_off_c, 1, 75, 0
1, 237459, Note_on_c, 1, 76, 127
1, 237652, Note_off_c, 1, 61, 0
1, 237652, Note_off_c, 1, 76, 0
1, 237654, Note_on_c, 1, 78, 127
1, 237654, Note_on_c, 1, 63, 127
1, 238042, Note_off_c, 1, 78, 0
1, 238042, Note_off_c, 1, 63, 0
1, 238044, Note_on_c, 1, 71, 127
1, 238044, Note_on_c, 1, 64, 127
1, 238432, Note_off_c, 1, 71, 0
1, 238432, Note_off_c, 1, 64, 0
1, 238434, Note_on_c, 1, 76, 127
1, 238434, Note_on_c, 1, 55, 127
1, 238822, Note_off_c, 1, 76, 0
1, 238822, Note_off_c, 1, 55, 0
1, 238824, Note_on_c, 1, 75, 127
1, 238824, Note_on_c, 1, 57, 127
1, 239017, Note_off_c, 1, 75, 0
1, 239019, Note_on_c, 1, 76, 127
1, 239212, Note_off_c, 1, 57, 0
1, 239212, Note_off_c, 1, 76, 0
1, 239214, Note_on_c, 1, 71, 127
1, 239214, Note_on_c, 1, 59, 127
1, 239602, Note_off_c, 1, 71, 0
1, 239602, Note_off_c, 1, 59, 0
1, 239604, Note_on_c, 1, 69, 127
1, 239604, Note_on_c, 1, 47, 127
1, 239797, Note_off_c, 1, 69, 0
1, 239799, Note_on_c, 1, 71, 127
1, 239992, Note_off_c, 1, 47, 0
1, 239992, Note_off_c, 1, 71, 0
1, 239994, Note_on_c, 1, 68, 127
1, 239994, Note_on_c, 1, 52, 127
1, 240382, Note_off_c, 1, 68, 0
1, 240382, Note_off_c, 1, 52, 0
1, 240384, Note_on_c, 1, 66, 127
1, 240384, Note_on_c, 1, 47, 127
1, 240577, Note_off_c, 1, 66, 0
1, 240579, Note_on_c, 1, 68, 127
1, 240772, Note_off_c, 1, 47, 0
1, 240772, Note_off_c, 1, 68, 0
1, 240774, Note_on_c, 1, 64, 127
1, 240774, Note_on_c, 1, 40, 127
1, 241343, Note_off_c, 1, 64, 0
1, 241552, Note_off_c, 1, 40, 0
1, 241554, Note_on_c, 1, 48, 127
1, 241554, Note_on_c, 1, 72, 127
1, 241942, Note_off_c, 1, 48, 0
1, 241944, Note_on_c, 1, 50, 127
1, 242137, Note_off_c, 1, 72, 0
1, 242139, Note_on_c, 1, 71, 127
1, 242332, Note_off_c, 1, 50, 0
1, 242332, Note_off_c, 1, 71, 0
1, 242334, Note_on_c, 1, 52, 127
1, 242334, Note_on_c, 1, 72, 127
1, 242722, Note_off_c, 1, 52, 0
1, 242724, Note_on_c, 1, 53, 127
1, 242917, Note_off_c, 1, 72, 0
1, 242919, Note_on_c, 1, 74, 127
1, 243112, Note_off_c, 1, 53, 0
1, 243112, Note_off_c, 1, 74, 0
1, 243114, Note_on_c, 1, 55, 127
1, 243114, Note_on_c, 1, 71, 127
1, 243502, Note_off_c, 1, 55, 0
1, 243504, Note_on_c, 1, 57, 127
1, 243697, Note_off_c, 1, 71, 0
1, 243699, Note_on_c, 1, 72, 127
1, 243795, Note_off_c, 1, 72, 0
1, 243797, Note_on_c, 1, 74, 127
1, 243893, Note_off_c, 1, 57, 0
1, 243893, Note_off_c, 1, 74, 0
1, 243895, Note_on_c, 1, 67, 127
1, 243895, Note_on_c, 1, 59, 127
1, 244281, Note_off_c, 1, 67, 0
1, 244283, Note_off_c, 1, 59, 0
1, 244285, Note_on_c, 1, 55, 127
1, 244673, Note_off_c, 1, 55, 0
1, 244675, Note_on_c, 1, 52, 127
1, 244675, Note_on_c, 1, 76, 127
1, 245063, Note_off_c, 1, 52, 0
1, 245065, Note_on_c, 1, 54, 127
1, 245258, Note_off_c, 1, 76, 0
1, 245260, Note_on_c, 1, 75, 127
1, 245453, Note_off_c, 1, 54, 0
1, 245453, Note_off_c, 1, 75, 0
1, 245455, Note_on_c, 1, 55, 127
1, 245455, Note_on_c, 1, 76, 127
1, 245843, Note_off_c, 1, 55, 0
1, 245845, Note_on_c, 1, 57, 127
1, 246038, Note_off_c, 1, 76, 0
1, 246040, Note_on_c, 1, 78, 127
1, 246233, Note_off_c, 1, 57, 0
1, 246233, Note_off_c, 1, 78, 0
1, 246235, Note_on_c, 1, 59, 127
1, 246235, Note_on_c, 1, 75, 127
1, 246623, Note_off_c, 1, 59, 0
1, 246625, Note_on_c, 1, 61, 127
1, 246818, Note_off_c, 1, 75, 0
1, 246820, Note_on_c, 1, 76, 127
1, 246916, Note_off_c, 1, 76, 0
1, 246918, Note_on_c, 1, 78, 127
1, 247014, Note_off_c, 1, 61, 0
1, 247014, Note_off_c, 1, 78, 0
1, 247016, Note_on_c, 1, 71, 127
1, 247016, Note_on_c, 1, 63, 127
1, 247402, Note_off_c, 1, 71, 0
1, 247404, Note_off_c, 1, 63, 0
1, 247406, Note_on_c, 1, 59, 127
1, 247794, Note_off_c, 1, 59, 0
1, 247796, Note_on_c, 1, 74, 127
1, 247796, Note_on_c, 1, 56, 127
1, 247989, Note_off_c, 1, 74, 0
1, 247989, Note_off_c, 1, 56, 0
1, 247991, Note_on_c, 1, 76, 127
1, 247991, Note_on_c, 1, 64, 127
1, 248184, Note_off_c, 1, 76, 0
1, 248184, Note_off_c, 1, 64, 0
1, 248186, Note_on_c, 1, 77, 127
1, 248186, Note_on_c, 1, 56, 127
1, 248379, Note_off_c, 1, 77, 0
1, 248379, Note_off_c, 1, 56, 0
1, 248381, Note_on_c, 1, 73, 127
1, 248381, Note_on_c, 1, 64, 127
1, 248574, Note_off_c, 1, 73, 0
1, 248574, Note_off_c, 1, 64, 0
1, 248576, Note_on_c, 1, 74, 127
1, 248576, Note_on_c, 1, 57, 127
1, 248769, Note_off_c, 1, 74, 0
1, 248769, Note_off_c, 1, 57, 0
1, 248771, Note_on_c, 1, 76, 127
1, 248771, Note_on_c, 1, 65, 127
1, 248964, Note_off_c, 1, 76, 0
1, 248964, Note_off_c, 1, 65, 0
1, 248966, Note_on_c, 1, 77, 127
1, 248966, Note_on_c, 1, 57, 127
1, 249159, Note_off_c, 1, 77, 0
1, 249159, Note_off_c, 1, 57, 0
1, 249161, Note_on_c, 1, 73, 127
1, 249161, Note_on_c, 1, 65, 127
1, 249354, Note_off_c, 1, 73, 0
1, 249354, Note_off_c, 1, 65, 0
1, 249356, Note_on_c, 1, 74, 127
1, 249356, Note_on_c, 1, 58, 127
1, 249549, Note_off_c, 1, 74, 0
1, 249549, Note_off_c, 1, 58, 0
1, 249551, Note_on_c, 1, 76, 127
1, 249551, Note_on_c, 1, 67, 127
1, 249744, Note_off_c, 1, 76, 0
1, 249744, Note_off_c, 1, 67, 0
1, 249746, Note_on_c, 1, 77, 127
1, 249746, Note_on_c, 1, 58, 127
1, 249939, Note_off_c, 1, 77, 0
1, 249939, Note_off_c, 1, 58, 0
1, 249941, Note_on_c, 1, 73, 127
1, 249941, Note_on_c, 1, 67, 127
1, 250134, Note_off_c, 1, 73, 0
1, 250134, Note_off_c, 1, 67, 0
1, 250136, Note_on_c, 1, 74, 127
1, 250136, Note_on_c, 1, 53, 127
1, 250329, Note_off_c, 1, 74, 0
1, 250329, Note_off_c, 1, 53, 0
1, 250331, Note_on_c, 1, 76, 127
1, 250331, Note_on_c, 1, 62, 127
1, 250524, Note_off_c, 1, 76, 0
1, 250524, Note_off_c, 1, 62, 0
1, 250526, Note_on_c, 1, 77, 127
1, 250526, Note_on_c, 1, 53, 127
1, 250719, Note_off_c, 1, 77, 0
1, 250719, Note_off_c, 1, 53, 0
1, 250721, Note_on_c, 1, 73, 127
1, 250721, Note_on_c, 1, 62, 127
1, 250914, Note_off_c, 1, 73, 0
1, 250914, Note_off_c, 1, 62, 0
1, 250916, Note_on_c, 1, 74, 127
1, 250916, Note_on_c, 1, 55, 127
1, 251109, Note_off_c, 1, 74, 0
1, 251111, Note_on_c, 1, 72, 127
1, 251304, Note_off_c, 1, 72, 0
1, 251306, Note_on_c, 1, 70, 127
1, 251306, Note_on_c, 1, 58, 127
1, 251499, Note_off_c, 1, 70, 0
1, 251501, Note_on_c, 1, 69, 127
1, 251694, Note_off_c, 1, 58, 0
1, 251694, Note_off_c, 1, 69, 0
1, 251696, Note_on_c, 1, 67, 127
1, 251696, Note_on_c, 1, 62, 127
1, 251889, Note_off_c, 1, 67, 0
1, 251891, Note_on_c, 1, 65, 127
1, 252084, Note_off_c, 1, 55, 0
1, 252084, Note_off_c, 1, 62, 0
1, 252084, Note_off_c, 1, 65, 0
1, 252086, Note_on_c, 1, 64, 127
1, 252086, Note_on_c, 1, 57, 127
1, 252086, Note_on_c, 1, 61, 127
1, 252279, Note_off_c, 1, 64, 0
1, 252281, Note_on_c, 1, 65, 127
1, 252474, Note_off_c, 1, 57, 0
1, 252474, Note_off_c, 1, 61, 0
1, 252474, Note_off_c, 1, 65, 0
1, 252476, Note_on_c, 1, 62, 127
1, 252671, Note_on_c, 1, 60, 127
1, 252864, Note_off_c, 1, 60, 0
1, 252866, Note_on_c, 1, 58, 127
1, 253059, Note_off_c, 1, 58, 0
1, 253061, Note_on_c, 1, 57, 127
1, 253254, Note_off_c, 1, 57, 0
1, 253256, Note_on_c, 1, 55, 127
1, 253449, Note_off_c, 1, 55, 0
1, 253451, Note_on_c, 1, 53, 127
1, 253644, Note_off_c, 1, 53, 0
1, 253646, Note_on_c, 1, 52, 127
1, 253839, Note_off_c, 1, 52, 0
1, 254034, Note_off_c, 1, 62, 0
1, 254036, Note_on_c, 1, 50, 127
1, 254036, Note_on_c, 1, 77, 127
1, 254431, Note_off_c, 1, 50, 0
1, 254433, Note_on_c, 1, 52, 127
1, 254630, Note_off_c, 1, 77, 0
1, 254632, Note_on_c, 1, 79, 127
1, 254829, Note_off_c, 1, 52, 0
1, 254829, Note_off_c, 1, 79, 0
1, 254831, Note_on_c, 1, 53, 127
1, 254831, Note_on_c, 1, 81, 127
1, 255226, Note_off_c, 1, 53, 0
1, 255228, Note_on_c, 1, 55, 127
1, 255325, Note_off_c, 1, 81, 0
1, 255327, Note_on_c, 1, 77, 127
1, 255424, Note_off_c, 1, 77, 0
1, 255426, Note_on_c, 1, 76, 127
1, 255523, Note_off_c, 1, 76, 0
1, 255525, Note_on_c, 1, 74, 127
1, 255622, Note_off_c, 1, 55, 0
1, 255622, Note_off_c, 1, 74, 0
1, 255624, Note_on_c, 1, 57, 127
1, 255624, Note_on_c, 1, 73, 127
1, 256019, Note_off_c, 1, 57, 0
1, 256021, Note_on_c, 1, 59, 127
1, 256218, Note_off_c, 1, 73, 0
1, 256220, Note_on_c, 1, 74, 127
1, 256317, Note_off_c, 1, 74, 0
1, 256319, Note_on_c, 1, 76, 127
1, 256416, Note_off_c, 1, 59, 0
1, 256416, Note_off_c, 1, 76, 0
1, 256418, Note_on_c, 1, 61, 127
1, 256418, Note_on_c, 1, 69, 127
1, 256813, Note_off_c, 1, 61, 0
1, 256815, Note_on_c, 1, 57, 127
1, 256997, Note_off_c, 1, 69, 0
1, 257210, Note_off_c, 1, 57, 0
1, 257212, Note_on_c, 1, 45, 127
1, 257212, Note_on_c, 1, 72, 127
1, 257607, Note_off_c, 1, 45, 0
1, 257609, Note_on_c, 1, 47, 127
1, 257806, Note_off_c, 1, 72, 0
1, 257808, Note_on_c, 1, 74, 127
1, 258005, Note_off_c, 1, 47, 0
1, 258005, Note_off_c, 1, 74, 0
1, 258007, Note_on_c, 1, 48, 127
1, 258007, Note_on_c, 1, 76, 127
1, 258402, Note_off_c, 1, 48, 0
1, 258404, Note_on_c, 1, 50, 127
1, 258501, Note_off_c, 1, 76, 0
1, 258503, Note_on_c, 1, 72, 127
1, 258600, Note_off_c, 1, 72, 0
1, 258602, Note_on_c, 1, 71, 127
1, 258699, Note_off_c, 1, 71, 0
1, 258701, Note_on_c, 1, 69, 127
1, 258798, Note_off_c, 1, 50, 0
1, 258798, Note_off_c, 1, 69, 0
1, 258800, Note_on_c, 1, 52, 127
1, 258800, Note_on_c, 1, 68, 127
1, 259195, Note_off_c, 1, 52, 0
1, 259197, Note_on_c, 1, 54, 127
1, 259394, Note_off_c, 1, 68, 0
1, 259396, Note_on_c, 1, 69, 127
1, 259493, Note_off_c, 1, 69, 0
1, 259495, Note_on_c, 1, 71, 127
1, 259592, Note_off_c, 1, 54, 0
1, 259592, Note_off_c, 1, 71, 0
1, 259594, Note_on_c, 1, 56, 127
1, 259594, Note_on_c, 1, 64, 127
1, 259989, Note_off_c, 1, 56, 0
1, 259991, Note_on_c, 1, 52, 127
1, 260173, Note_off_c, 1, 64, 0
1, 260386, Note_off_c, 1, 52, 0
1, 260388, Note_on_c, 1, 77, 127
1, 260388, Note_on_c, 1, 50, 127
1, 260785, Note_on_c, 1, 38, 127
1, 260982, Note_off_c, 1, 77, 0
1, 260984, Note_on_c, 1, 76, 127
1, 261174, Note_off_c, 1, 50, 0
1, 261180, Note_off_c, 1, 76, 0
1, 261182, Note_on_c, 1, 74, 127
1, 261364, Note_off_c, 1, 38, 0
1, 261378, Note_off_c, 1, 74, 0
1, 261380, Note_on_c, 1, 72, 127
1, 261577, Note_off_c, 1, 72, 0
1, 261579, Note_on_c, 1, 74, 127
1, 261776, Note_off_c, 1, 74, 0
1, 261778, Note_on_c, 1, 72, 127
1, 261975, Note_off_c, 1, 72, 0
1, 261977, Note_on_c, 1, 71, 127
1, 261977, Note_on_c, 1, 50, 127
1, 262374, Note_on_c, 1, 38, 127
1, 262571, Note_off_c, 1, 71, 0
1, 262573, Note_on_c, 1, 69, 127
1, 262763, Note_off_c, 1, 50, 0
1, 262769, Note_off_c, 1, 69, 0
1, 262771, Note_on_c, 1, 68, 127
1, 262953, Note_off_c, 1, 38, 0
1, 262967, Note_off_c, 1, 68, 0
1, 262969, Note_on_c, 1, 66, 127
1, 263166, Note_off_c, 1, 66, 0
1, 263168, Note_on_c, 1, 68, 127
1, 263365, Note_off_c, 1, 68, 0
1, 263367, Note_on_c, 1, 64, 127
1, 263564, Note_off_c, 1, 64, 0
1, 263566, Note_on_c, 1, 48, 127
1, 263566, Note_on_c, 1, 69, 127
1, 263961, Note_off_c, 1, 48, 0
1, 263963, Note_on_c, 1, 50, 127
1, 264160, Note_off_c, 1, 69, 0
1, 264162, Note_on_c, 1, 71, 127
1, 264359, Note_off_c, 1, 50, 0
1, 264359, Note_off_c, 1, 71, 0
1, 264361, Note_on_c, 1, 69, 127
1, 264361, Note_on_c, 1, 52, 127
1, 264493, Note_off_c, 1, 69, 0
1, 264493, Note_on_c, 1, 68, 127
1, 264559, Note_off_c, 1, 68, 0
1, 264755, Note_off_c, 1, 52, 0
1, 264757, Note_on_c, 1, 40, 127
1, 265153, Note_off_c, 1, 40, 0
1, 265155, Note_on_c, 1, 45, 127
1, 265155, Note_on_c, 1, 69, 127
1, 265354, Note_on_c, 1, 64, 127
1, 265551, Note_off_c, 1, 64, 0
1, 265553, Note_on_c, 1, 65, 127
1, 265750, Note_off_c, 1, 65, 0
1, 265752, Note_on_c, 1, 62, 127
1, 265949, Note_off_c, 1, 62, 0
1, 265951, Note_on_c, 1, 52, 127
1, 266198, Note_on_c, 1, 59, 127
1, 266483, Note_off_c, 1, 59, 0
1, 266502, Note_on_c, 1, 61, 127
1, 266502, Note_on_c, 1, 57, 127
1, 266738, Note_off_c, 1, 52, 0
1, 266744, Note_off_c, 1, 45, 0
1, 267455, Note_off_c, 1, 69, 0
1, 268102, Note_off_c, 1, 61, 0
1, 268302, Note_off_c, 1, 57, 0
1, 268682, Note_on_c, 1, 76, 127
1, 268682, Note_on_c, 1, 45, 127
1, 269208, Note_off_c, 1, 76, 0
1, 269208, Note_off_c, 1, 45, 0
1, 269212, Note_on_c, 1, 74, 127
1, 269212, Note_on_c, 1, 47, 127
1, 269466, Note_off_c, 1, 74, 0
1, 269466, Note_off_c, 1, 47, 0
1, 269476, Note_on_c, 1, 72, 127
1, 269476, Note_on_c, 1, 48, 127
1, 269730, Note_off_c, 1, 72, 0
1, 269740, Note_on_c, 1, 71, 127
1, 269994, Note_off_c, 1, 71, 0
1, 270000, Note_off_c, 1, 48, 0
1, 270004, Note_on_c, 1, 69, 127
1, 270004, Note_on_c, 1, 50, 127
1, 270258, Note_off_c, 1, 69, 0
1, 270258, Note_off_c, 1, 50, 0
1, 270268, Note_on_c, 1, 68, 127
1, 270268, Note_on_c, 1, 52, 127
1, 270522, Note_off_c, 1, 68, 0
1, 270532, Note_on_c, 1, 69, 127
1, 270786, Note_off_c, 1, 69, 0
1, 270792, Note_off_c, 1, 52, 0
1, 270796, Note_on_c, 1, 71, 127
1, 270796, Note_on_c, 1, 54, 127
1, 271050, Note_off_c, 1, 71, 0
1, 271050, Note_off_c, 1, 54, 0
1, 271060, Note_on_c, 1, 56, 127
1, 271060, Note_on_c, 1, 64, 127
1, 271314, Note_off_c, 1, 56, 0
1, 271324, Note_on_c, 1, 54, 127
1, 271578, Note_off_c, 1, 54, 0
1, 271588, Note_on_c, 1, 52, 127
1, 271842, Note_off_c, 1, 52, 0
1, 271848, Note_off_c, 1, 64, 0
1, 271852, Note_on_c, 1, 69, 127
1, 271852, Note_on_c, 1, 48, 127
1, 272106, Note_off_c, 1, 69, 0
1, 272116, Note_on_c, 1, 71, 127
1, 272116, Note_on_c, 1, 52, 127
1, 272370, Note_off_c, 1, 71, 0
1, 272370, Note_off_c, 1, 52, 0
1, 272380, Note_on_c, 1, 72, 127
1, 272380, Note_on_c, 1, 57, 127
1, 272634, Note_off_c, 1, 48, 0
1, 272634, Note_off_c, 1, 72, 0
1, 272634, Note_off_c, 1, 57, 0
1, 272644, Note_on_c, 1, 74, 127
1, 272644, Note_on_c, 1, 47, 127
1, 272898, Note_off_c, 1, 74, 0
1, 272908, Note_on_c, 1, 72, 127
1, 272908, Note_on_c, 1, 57, 127
1, 273162, Note_off_c, 1, 72, 0
1, 273162, Note_off_c, 1, 57, 0
1, 273172, Note_on_c, 1, 71, 127
1, 273172, Note_on_c, 1, 56, 127
1, 273426, Note_off_c, 1, 47, 0
1, 273426, Note_off_c, 1, 71, 0
1, 273426, Note_off_c, 1, 56, 0
1, 273436, Note_on_c, 1, 72, 127
1, 273436, Note_on_c, 1, 57, 127
1, 273436, Note_on_c, 1, 45, 127
1, 273690, Note_off_c, 1, 72, 0
1, 273700, Note_on_c, 1, 71, 127
1, 273954, Note_off_c, 1, 71, 0
1, 273960, Note_off_c, 1, 57, 0
1, 273960, Note_off_c, 1, 45, 0
1, 273964, Note_on_c, 1, 72, 127
1, 273964, Note_on_c, 1, 59, 127
1, 274218, Note_off_c, 1, 72, 0
1, 274218, Note_off_c, 1, 59, 0
1, 274228, Note_on_c, 1, 60, 127
1, 274228, Note_on_c, 1, 69, 127
1, 274482, Note_off_c, 1, 60, 0
1, 274492, Note_on_c, 1, 62, 127
1, 274746, Note_off_c, 1, 62, 0
1, 274756, Note_on_c, 1, 59, 127
1, 274806, Note_off_c, 1, 69, 0
1, 275011, Note_off_c, 1, 59, 0
1, 275021, Note_on_c, 1, 78, 127
1, 275021, Note_on_c, 1, 57, 127
1, 275275, Note_off_c, 1, 78, 0
1, 275285, Note_on_c, 1, 84, 127
1, 275539, Note_off_c, 1, 84, 0
1, 275545, Note_off_c, 1, 57, 0
1, 275549, Note_on_c, 1, 83, 127
1, 275549, Note_on_c, 1, 55, 127
1, 275803, Note_off_c, 1, 83, 0
1, 275803, Note_off_c, 1, 55, 0
1, 275813, Note_on_c, 1, 81, 127
1, 275813, Note_on_c, 1, 54, 127
1, 276067, Note_off_c, 1, 81, 0
1, 276077, Note_on_c, 1, 83, 127
1, 276331, Note_off_c, 1, 83, 0
1, 276337, Note_off_c, 1, 54, 0
1, 276341, Note_on_c, 1, 79, 127
1, 276341, Note_on_c, 1, 52, 127
1, 276595, Note_off_c, 1, 79, 0
1, 276595, Note_off_c, 1, 52, 0
1, 276605, Note_on_c, 1, 75, 127
1, 276605, Note_on_c, 1, 54, 127
1, 276859, Note_off_c, 1, 75, 0
1, 276869, Note_on_c, 1, 81, 127
1, 277123, Note_off_c, 1, 81, 0
1, 277129, Note_off_c, 1, 54, 0
1, 277133, Note_on_c, 1, 79, 127
1, 277133, Note_on_c, 1, 52, 127
1, 277387, Note_off_c, 1, 79, 0
1, 277387, Note_off_c, 1, 52, 0
1, 277397, Note_on_c, 1, 78, 127
1, 277397, Note_on_c, 1, 51, 127
1, 277651, Note_off_c, 1, 78, 0
1, 277661, Note_on_c, 1, 79, 127
1, 277915, Note_off_c, 1, 79, 0
1, 277921, Note_off_c, 1, 51, 0
1, 277925, Note_on_c, 1, 76, 127
1, 277925, Note_on_c, 1, 52, 127
1, 278179, Note_off_c, 1, 76, 0
1, 278179, Note_off_c, 1, 52, 0
1, 278189, Note_on_c, 1, 83, 127
1, 278189, Note_on_c, 1, 43, 127
1, 278443, Note_off_c, 1, 83, 0
1, 278453, Note_on_c, 1, 81, 127
1, 278707, Note_off_c, 1, 81, 0
1, 278713, Note_off_c, 1, 43, 0
1, 278717, Note_on_c, 1, 79, 127
1, 278717, Note_on_c, 1, 45, 127
1, 278971, Note_off_c, 1, 79, 0
1, 278971, Note_off_c, 1, 45, 0
1, 278981, Note_on_c, 1, 78, 127
1, 278981, Note_on_c, 1, 47, 127
1, 279235, Note_off_c, 1, 78, 0
1, 279245, Note_on_c, 1, 76, 127
1, 279499, Note_off_c, 1, 76, 0
1, 279509, Note_on_c, 1, 75, 127
1, 279763, Note_off_c, 1, 75, 0
1, 279769, Note_off_c, 1, 47, 0
1, 279773, Note_on_c, 1, 52, 127
1, 279773, Note_on_c, 1, 76, 127
1, 280027, Note_off_c, 1, 52, 0
1, 280037, Note_on_c, 1, 56, 127
1, 280291, Note_off_c, 1, 56, 0
1, 280301, Note_on_c, 1, 59, 127
1, 280555, Note_off_c, 1, 59, 0
1, 280960, Note_off_c, 1, 76, 0
1, 281094, Note_on_c, 1, 52, 127
1, 281348, Note_off_c, 1, 52, 0
1, 281358, Note_on_c, 1, 79, 127
1, 281358, Note_on_c, 1, 48, 127
1, 281884, Note_off_c, 1, 79, 0
1, 281884, Note_off_c, 1, 48, 0
1, 281888, Note_on_c, 1, 77, 127
1, 281888, Note_on_c, 1, 50, 127
1, 282142, Note_off_c, 1, 77, 0
1, 282142, Note_off_c, 1, 50, 0
1, 282152, Note_on_c, 1, 76, 127
1, 282152, Note_on_c, 1, 52, 127
1, 282406, Note_off_c, 1, 76, 0
1, 282416, Note_on_c, 1, 74, 127
1, 282670, Note_off_c, 1, 74, 0
1, 282676, Note_off_c, 1, 52, 0
1, 282680, Note_on_c, 1, 72, 127
1, 282680, Note_on_c, 1, 53, 127
1, 282934, Note_off_c, 1, 72, 0
1, 282934, Note_off_c, 1, 53, 0
1, 282944, Note_on_c, 1, 71, 127
1, 282944, Note_on_c, 1, 55, 127
1, 283198, Note_off_c, 1, 71, 0
1, 283208, Note_on_c, 1, 72, 127
1, 283462, Note_off_c, 1, 72, 0
1, 283468, Note_off_c, 1, 55, 0
1, 283472, Note_on_c, 1, 74, 127
1, 283472, Note_on_c, 1, 57, 127
1, 283726, Note_off_c, 1, 74, 0
1, 283726, Note_off_c, 1, 57, 0
1, 283736, Note_on_c, 1, 59, 127
1, 283736, Note_on_c, 1, 67, 127
1, 283990, Note_off_c, 1, 59, 0
1, 284000, Note_on_c, 1, 57, 127
1, 284254, Note_off_c, 1, 57, 0
1, 284264, Note_on_c, 1, 55, 127
1, 284314, Note_off_c, 1, 67, 0
1, 284519, Note_off_c, 1, 55, 0
1, 284529, Note_on_c, 1, 83, 127
1, 284529, Note_on_c, 1, 52, 127
1, 285055, Note_off_c, 1, 83, 0
1, 285055, Note_off_c, 1, 52, 0
1, 285059, Note_on_c, 1, 81, 127
1, 285059, Note_on_c, 1, 54, 127
1, 285313, Note_off_c, 1, 81, 0
1, 285313, Note_off_c, 1, 54, 0
1, 285323, Note_on_c, 1, 79, 127
1, 285323, Note_on_c, 1, 55, 127
1, 285577, Note_off_c, 1, 79, 0
1, 285587, Note_on_c, 1, 78, 127
1, 285841, Note_off_c, 1, 78, 0
1, 285847, Note_off_c, 1, 55, 0
1, 285851, Note_on_c, 1, 76, 127
1, 285851, Note_on_c, 1, 57, 127
1, 286105, Note_off_c, 1, 76, 0
1, 286105, Note_off_c, 1, 57, 0
1, 286115, Note_on_c, 1, 75, 127
1, 286115, Note_on_c, 1, 59, 127
1, 286369, Note_off_c, 1, 75, 0
1, 286379, Note_on_c, 1, 76, 127
1, 286633, Note_off_c, 1, 76, 0
1, 286639, Note_off_c, 1, 59, 0
1, 286643, Note_on_c, 1, 78, 127
1, 286643, Note_on_c, 1, 61, 127
1, 286897, Note_off_c, 1, 78, 0
1, 286897, Note_off_c, 1, 61, 0
1, 286907, Note_on_c, 1, 63, 127
1, 286907, Note_on_c, 1, 71, 127
1, 287161, Note_off_c, 1, 63, 0
1, 287171, Note_on_c, 1, 61, 127
1, 287425, Note_off_c, 1, 61, 0
1, 287435, Note_on_c, 1, 59, 127
1, 287689, Note_off_c, 1, 59, 0
1, 287695, Note_off_c, 1, 71, 0
1, 287699, Note_on_c, 1, 74, 127
1, 287699, Note_on_c, 1, 56, 127
1, 287953, Note_off_c, 1, 74, 0
1, 287963, Note_on_c, 1, 65, 127
1, 288217, Note_off_c, 1, 65, 0
1, 288275, Note_off_c, 1, 56, 0
1, 288492, Note_on_c, 1, 74, 127
1, 288492, Note_on_c, 1, 57, 127
1, 288746, Note_off_c, 1, 74, 0
1, 288756, Note_on_c, 1, 65, 127
1, 289010, Note_off_c, 1, 65, 0
1, 289068, Note_off_c, 1, 57, 0
1, 289285, Note_on_c, 1, 74, 127
1, 289285, Note_on_c, 1, 58, 127
1, 289539, Note_off_c, 1, 74, 0
1, 289549, Note_on_c, 1, 65, 127
1, 289803, Note_off_c, 1, 65, 0
1, 289861, Note_off_c, 1, 58, 0
1, 290078, Note_on_c, 1, 74, 127
1, 290078, Note_on_c, 1, 57, 127
1, 290332, Note_off_c, 1, 74, 0
1, 290342, Note_on_c, 1, 65, 127
1, 290596, Note_off_c, 1, 65, 0
1, 290654, Note_off_c, 1, 57, 0
1, 290871, Note_on_c, 1, 74, 127
1, 290871, Note_on_c, 1, 56, 127
1, 291125, Note_off_c, 1, 74, 0
1, 291135, Note_on_c, 1, 65, 127
1, 291389, Note_off_c, 1, 65, 0
1, 291447, Note_off_c, 1, 56, 0
1, 291664, Note_on_c, 1, 64, 127
1, 291664, Note_on_c, 1, 57, 127
1, 291918, Note_off_c, 1, 64, 0
1, 291928, Note_on_c, 1, 74, 127
1, 292182, Note_off_c, 1, 74, 0
1, 292188, Note_off_c, 1, 57, 0
1, 292192, Note_on_c, 1, 73, 127
1, 292192, Note_on_c, 1, 45, 127
1, 292446, Note_off_c, 1, 73, 0
1, 292446, Note_off_c, 1, 45, 0
1, 292456, Note_on_c, 1, 74, 127
1, 292456, Note_on_c, 1, 50, 127
1, 292710, Note_off_c, 1, 74, 0
1, 292720, Note_on_c, 1, 69, 127
1, 292974, Note_off_c, 1, 69, 0
1, 292984, Note_on_c, 1, 65, 127
1, 293238, Note_off_c, 1, 65, 0
1, 293248, Note_on_c, 1, 62, 127
1, 293509, Note_off_c, 1, 50, 0
1, 293513, Note_on_c, 1, 53, 127
1, 293767, Note_off_c, 1, 53, 0
1, 293777, Note_on_c, 1, 57, 127
1, 294031, Note_off_c, 1, 62, 0
1, 294031, Note_off_c, 1, 57, 0
1, 294041, Note_on_c, 1, 62, 127
1, 294306, Note_on_c, 1, 81, 127
1, 294560, Note_off_c, 1, 81, 0
1, 294566, Note_off_c, 1, 62, 0
1, 294570, Note_on_c, 1, 79, 127
1, 294570, Note_on_c, 1, 64, 127
1, 294824, Note_off_c, 1, 79, 0
1, 294824, Note_off_c, 1, 64, 0
1, 294834, Note_on_c, 1, 77, 127
1, 294834, Note_on_c, 1, 65, 127
1, 295088, Note_off_c, 1, 77, 0
1, 295098, Note_on_c, 1, 76, 127
1, 295352, Note_off_c, 1, 76, 0
1, 295358, Note_off_c, 1, 65, 0
1, 295362, Note_on_c, 1, 74, 127
1, 295362, Note_on_c, 1, 55, 127
1, 295616, Note_off_c, 1, 74, 0
1, 295616, Note_off_c, 1, 55, 0
1, 295626, Note_on_c, 1, 73, 127
1, 295626, Note_on_c, 1, 57, 127
1, 295880, Note_off_c, 1, 73, 0
1, 295890, Note_on_c, 1, 74, 127
1, 296144, Note_off_c, 1, 74, 0
1, 296150, Note_off_c, 1, 57, 0
1, 296154, Note_on_c, 1, 76, 127
1, 296154, Note_on_c, 1, 59, 127
1, 296408, Note_off_c, 1, 76, 0
1, 296408, Note_off_c, 1, 59, 0
1, 296418, Note_on_c, 1, 61, 127
1, 296418, Note_on_c, 1, 69, 127
1, 296672, Note_off_c, 1, 61, 0
1, 296682, Note_on_c, 1, 59, 127
1, 296936, Note_off_c, 1, 59, 0
1, 296946, Note_on_c, 1, 57, 127
1, 297200, Note_off_c, 1, 69, 0
1, 297200, Note_off_c, 1, 57, 0
1, 297210, Note_on_c, 1, 45, 127
1, 297475, Note_on_c, 1, 76, 127
1, 297729, Note_off_c, 1, 76, 0
1, 297735, Note_off_c, 1, 45, 0
1, 297739, Note_on_c, 1, 74, 127
1, 297739, Note_on_c, 1, 47, 127
1, 297993, Note_off_c, 1, 74, 0
1, 297993, Note_off_c, 1, 47, 0
1, 298003, Note_on_c, 1, 72, 127
1, 298003, Note_on_c, 1, 48, 127
1, 298257, Note_off_c, 1, 72, 0
1, 298267, Note_on_c, 1, 71, 127
1, 298521, Note_off_c, 1, 71, 0
1, 298527, Note_off_c, 1, 48, 0
1, 298531, Note_on_c, 1, 69, 127
1, 298531, Note_on_c, 1, 38, 127
1, 298785, Note_off_c, 1, 69, 0
1, 298785, Note_off_c, 1, 38, 0
1, 298795, Note_on_c, 1, 68, 127
1, 298795, Note_on_c, 1, 40, 127
1, 299049, Note_off_c, 1, 68, 0
1, 299059, Note_on_c, 1, 69, 127
1, 299313, Note_off_c, 1, 69, 0
1, 299319, Note_off_c, 1, 40, 0
1, 299323, Note_on_c, 1, 71, 127
1, 299323, Note_on_c, 1, 42, 127
1, 299577, Note_off_c, 1, 71, 0
1, 299577, Note_off_c, 1, 42, 0
1, 299587, Note_on_c, 1, 44, 127
1, 299587, Note_on_c, 1, 64, 127
1, 299841, Note_off_c, 1, 44, 0
1, 299851, Note_on_c, 1, 42, 127
1, 300105, Note_off_c, 1, 42, 0
1, 300115, Note_on_c, 1, 40, 127
1, 300165, Note_off_c, 1, 64, 0
1, 300370, Note_off_c, 1, 40, 0
1, 300380, Note_on_c, 1, 77, 127
1, 300380, Note_on_c, 1, 38, 127
1, 300634, Note_off_c, 1, 77, 0
1, 300644, Note_on_c, 1, 76, 127
1, 300898, Note_off_c, 1, 76, 0
1, 300908, Note_on_c, 1, 74, 127
1, 300956, Note_off_c, 1, 38, 0
1, 301138, Note_off_c, 1, 74, 0
1, 301173, Note_on_c, 1, 78, 127
1, 301173, Note_on_c, 1, 50, 127
1, 301427, Note_off_c, 1, 78, 0
1, 301437, Note_on_c, 1, 83, 127
1, 301691, Note_off_c, 1, 83, 0
1, 301701, Note_on_c, 1, 81, 127
1, 301749, Note_off_c, 1, 50, 0
1, 301956, Note_off_c, 1, 81, 0
1, 301966, Note_on_c, 1, 79, 127
1, 301966, Note_on_c, 1, 40, 127
1, 302196, Note_off_c, 1, 79, 0
1, 302230, Note_on_c, 1, 78, 127
1, 302484, Note_off_c, 1, 78, 0
1, 302494, Note_on_c, 1, 76, 127
1, 302542, Note_off_c, 1, 40, 0
1, 302749, Note_off_c, 1, 76, 0
1, 302759, Note_on_c, 1, 80, 127
1, 302759, Note_on_c, 1, 52, 127
1, 303013, Note_off_c, 1, 80, 0
1, 303023, Note_on_c, 1, 84, 127
1, 303277, Note_off_c, 1, 84, 0
1, 303287, Note_on_c, 1, 83, 127
1, 303335, Note_off_c, 1, 52, 0
1, 303542, Note_off_c, 1, 83, 0
1, 303552, Note_on_c, 1, 81, 127
1, 303552, Note_on_c, 1, 53, 127
1, 303806, Note_off_c, 1, 81, 0
1, 303816, Note_on_c, 1, 80, 127
1, 304070, Note_off_c, 1, 80, 0
1, 304076, Note_off_c, 1, 53, 0
1, 304080, Note_on_c, 1, 81, 127
1, 304080, Note_on_c, 1, 51, 127
1, 304334, Note_off_c, 1, 81, 0
1, 304334, Note_off_c, 1, 51, 0
1, 304344, Note_on_c, 1, 72, 127
1, 304344, Note_on_c, 1, 52, 127
1, 304598, Note_off_c, 1, 72, 0
1, 304608, Note_on_c, 1, 74, 127
1, 304862, Note_off_c, 1, 74, 0
1, 304868, Note_off_c, 1, 52, 0
1, 304872, Note_on_c, 1, 71, 127
1, 304872, Note_on_c, 1, 40, 127
1, 305126, Note_off_c, 1, 71, 0
1, 305126, Note_off_c, 1, 40, 0
1, 305136, Note_on_c, 1, 69, 127
1, 305136, Note_on_c, 1, 45, 127
1, 305390, Note_off_c, 1, 69, 0
1, 305400, Note_on_c, 1, 73, 127
1, 305654, Note_off_c, 1, 73, 0
1, 305664, Note_on_c, 1, 76, 127
1, 305918, Note_off_c, 1, 76, 0
1, 305928, Note_on_c, 1, 81, 127
1, 306421, Note_on_c, 1, 52, 127
1, 306711, Note_off_c, 1, 81, 0
1, 306717, Note_off_c, 1, 45, 0
1, 306769, Note_on_c, 1, 57, 127
1, 306771, Note_off_c, 1, 52, 0
1, 306982, Note_on_c, 1, 72, 127
1, 307404, Note_off_c, 1, 72, 0
1, 307832, Note_off_c, 1, 57, 0
1, 308047, Note_on_c, 1, 60, 127
1, 308258, Note_off_c, 1, 60, 0
1, 308473, Note_on_c, 1, 56, 127
1, 308686, Note_on_c, 1, 71, 127
1, 308899, Note_on_c, 1, 76, 127
1, 309108, Note_off_c, 1, 71, 0
1, 309325, Note_on_c, 1, 64, 127
1, 309536, Note_off_c, 1, 56, 0
1, 309538, Note_on_c, 1, 52, 127
1, 309742, Note_off_c, 1, 76, 0
1, 309749, Note_off_c, 1, 52, 0
1, 310177, Note_on_c, 1, 57, 127
1, 310388, Note_off_c, 1, 64, 0
1, 310390, Note_on_c, 1, 69, 127
1, 310601, Note_off_c, 1, 57, 0
1, 310601, Note_off_c, 1, 69, 0
1, 310603, Note_on_c, 1, 72, 127
1, 310603, Note_on_c, 1, 52, 127
1, 310814, Note_off_c, 1, 72, 0
1, 310816, Note_on_c, 1, 76, 127
1, 311027, Note_off_c, 1, 52, 0
1, 311027, Note_off_c, 1, 76, 0
1, 311029, Note_on_c, 1, 74, 127
1, 311029, Note_on_c, 1, 54, 127
1, 311240, Note_off_c, 1, 74, 0
1, 311242, Note_on_c, 1, 72, 127
1, 311453, Note_off_c, 1, 54, 0
1, 311453, Note_off_c, 1, 72, 0
1, 311455, Note_on_c, 1, 71, 127
1, 311455, Note_on_c, 1, 56, 127
1, 311666, Note_off_c, 1, 71, 0
1, 311668, Note_on_c, 1, 74, 127
1, 311879, Note_off_c, 1, 56, 0
1, 311879, Note_off_c, 1, 74, 0
1, 311881, Note_on_c, 1, 72, 127
1, 311881, Note_on_c, 1, 57, 127
1, 312094, Note_on_c, 1, 76, 127
1, 312305, Note_off_c, 1, 76, 0
1, 312307, Note_on_c, 1, 81, 127
1, 312503, Note_off_c, 1, 72, 0
1, 312519, Note_off_c, 1, 81, 0
1, 312734, Note_on_c, 1, 69, 127
1, 312945, Note_off_c, 1, 57, 0
1, 313160, Note_on_c, 1, 60, 127
1, 313371, Note_off_c, 1, 60, 0
1, 313577, Note_off_c, 1, 69, 0
1, 313586, Note_on_c, 1, 54, 127
1, 313799, Note_on_c, 1, 81, 127
1, 314010, Note_off_c, 1, 81, 0
1, 314012, Note_on_c, 1, 84, 127
1, 314223, Note_off_c, 1, 84, 0
1, 314438, Note_on_c, 1, 78, 127
1, 314649, Note_off_c, 1, 54, 0
1, 314860, Note_off_c, 1, 78, 0
1, 314864, Note_on_c, 1, 57, 127
1, 314864, Note_on_c, 1, 78, 127
1, 315075, Note_off_c, 1, 57, 0
1, 315077, Note_on_c, 1, 81, 127
1, 315077, Note_on_c, 1, 54, 127
1, 315286, Note_off_c, 1, 78, 0
1, 315288, Note_off_c, 1, 81, 0
1, 315288, Note_off_c, 1, 54, 0
1, 315290, Note_on_c, 1, 75, 127
1, 315290, Note_on_c, 1, 59, 127
1, 315394, Note_off_c, 1, 75, 0
1, 315396, Note_on_c, 1, 73, 127
1, 315500, Note_off_c, 1, 59, 0
1, 315500, Note_off_c, 1, 73, 0
1, 315502, Note_on_c, 1, 63, 127
1, 315502, Note_on_c, 1, 75, 127
1, 315713, Note_off_c, 1, 63, 0
1, 315715, Note_on_c, 1, 66, 127
1, 315926, Note_off_c, 1, 75, 0
1, 315926, Note_off_c, 1, 66, 0
1, 315928, Note_on_c, 1, 75, 127
1, 315928, Note_on_c, 1, 63, 127
1, 316139, Note_off_c, 1, 75, 0
1, 316139, Note_off_c, 1, 63, 0
1, 316141, Note_on_c, 1, 76, 127
1, 316141, Note_on_c, 1, 59, 127
1, 316283, Note_off_c, 1, 76, 0
1, 316283, Note_on_c, 1, 75, 127
1, 316352, Note_off_c, 1, 59, 0
1, 316354, Note_off_c, 1, 75, 0
1, 316354, Note_on_c, 1, 63, 127
1, 316565, Note_off_c, 1, 63, 0
1, 316567, Note_on_c, 1, 54, 127
1, 316778, Note_off_c, 1, 54, 0
1, 316780, Note_on_c, 1, 75, 127
1, 316780, Note_on_c, 1, 57, 127
1, 316978, Note_off_c, 1, 75, 0
1, 316991, Note_off_c, 1, 57, 0
1, 316993, Note_on_c, 1, 76, 127
1, 316993, Note_on_c, 1, 55, 127
1, 317204, Note_off_c, 1, 76, 0
1, 317206, Note_on_c, 1, 78, 127
1, 317417, Note_off_c, 1, 78, 0
1, 317419, Note_on_c, 1, 79, 127
1, 317526, Note_off_c, 1, 55, 0
1, 317630, Note_off_c, 1, 79, 0
1, 317632, Note_on_c, 1, 76, 127
1, 317632, Note_on_c, 1, 60, 127
1, 317843, Note_off_c, 1, 76, 0
1, 317843, Note_off_c, 1, 60, 0
1, 317845, Note_on_c, 1, 78, 127
1, 317845, Note_on_c, 1, 57, 127
1, 318056, Note_off_c, 1, 78, 0
1, 318056, Note_off_c, 1, 57, 0
1, 318058, Note_on_c, 1, 76, 127
1, 318058, Note_on_c, 1, 54, 127
1, 318269, Note_off_c, 1, 76, 0
1, 318269, Note_off_c, 1, 54, 0
1, 318271, Note_on_c, 1, 75, 127
1, 318271, Note_on_c, 1, 59, 127
1, 318482, Note_off_c, 1, 75, 0
1, 318484, Note_on_c, 1, 78, 127
1, 318695, Note_off_c, 1, 59, 0
1, 318695, Note_off_c, 1, 78, 0
1, 318697, Note_on_c, 1, 76, 127
1, 318697, Note_on_c, 1, 52, 127
1, 318910, Note_on_c, 1, 80, 127
1, 319121, Note_off_c, 1, 80, 0
1, 319123, Note_on_c, 1, 83, 127
1, 319319, Note_off_c, 1, 76, 0
1, 319335, Note_off_c, 1, 83, 0
1, 319717, Note_off_c, 1, 52, 0
1, 319764, Note_on_c, 1, 53, 127
1, 319975, Note_off_c, 1, 53, 0
1, 320190, Note_on_c, 1, 50, 127
1, 320401, Note_off_c, 1, 50, 0
1, 320403, Note_on_c, 1, 48, 127
1, 320616, Note_on_c, 1, 76, 127
1, 320829, Note_on_c, 1, 79, 127
1, 321029, Note_off_c, 1, 79, 0
1, 321038, Note_off_c, 1, 76, 0
1, 321246, Note_off_c, 1, 48, 0
1, 321255, Note_on_c, 1, 72, 127
1, 321468, Note_on_c, 1, 60, 127
1, 321679, Note_off_c, 1, 60, 0
1, 321681, Note_on_c, 1, 64, 127
1, 321892, Note_off_c, 1, 64, 0
1, 322098, Note_off_c, 1, 72, 0
1, 322107, Note_on_c, 1, 67, 127
1, 322320, Note_on_c, 1, 71, 127
1, 322533, Note_on_c, 1, 74, 127
1, 322742, Note_off_c, 1, 71, 0
1, 322744, Note_off_c, 1, 74, 0
1, 322950, Note_off_c, 1, 67, 0
1, 322959, Note_on_c, 1, 67, 127
1, 323172, Note_on_c, 1, 55, 127
1, 323383, Note_off_c, 1, 55, 0
1, 323385, Note_on_c, 1, 59, 127
1, 323596, Note_off_c, 1, 59, 0
1, 323802, Note_off_c, 1, 67, 0
1, 323811, Note_on_c, 1, 52, 127
1, 324024, Note_on_c, 1, 79, 127
1, 324237, Note_on_c, 1, 83, 127
1, 324446, Note_off_c, 1, 79, 0
1, 324448, Note_off_c, 1, 83, 0
1, 324663, Note_on_c, 1, 76, 127
1, 324876, Note_on_c, 1, 40, 127
1, 325087, Note_off_c, 1, 52, 0
1, 325087, Note_off_c, 1, 40, 0
1, 325089, Note_on_c, 1, 43, 127
1, 325300, Note_off_c, 1, 43, 0
1, 325506, Note_off_c, 1, 76, 0
1, 325515, Note_on_c, 1, 47, 127
1, 325728, Note_on_c, 1, 75, 127
1, 325941, Note_on_c, 1, 78, 127
1, 326150, Note_off_c, 1, 75, 0
1, 326152, Note_off_c, 1, 78, 0
1, 326367, Note_on_c, 1, 71, 127
1, 326578, Note_off_c, 1, 47, 0
1, 326580, Note_on_c, 1, 59, 127
1, 326791, Note_off_c, 1, 59, 0
1, 326793, Note_on_c, 1, 63, 127
1, 327004, Note_off_c, 1, 63, 0
1, 327217, Note_off_c, 1, 71, 0
1, 327219, Note_on_c, 1, 74, 127
1, 327219, Note_on_c, 1, 56, 127
1, 327432, Note_on_c, 1, 77, 127
1, 327641, Note_off_c, 1, 74, 0
1, 327643, Note_off_c, 1, 77, 0
1, 327856, Note_off_c, 1, 56, 0
1, 327858, Note_on_c, 1, 65, 127
1, 327858, Note_on_c, 1, 44, 127
1, 328069, Note_off_c, 1, 65, 0
1, 328069, Note_off_c, 1, 44, 0
1, 328071, Note_on_c, 1, 74, 127
1, 328071, Note_on_c, 1, 45, 127
1, 328284, Note_on_c, 1, 77, 127
1, 328493, Note_off_c, 1, 74, 0
1, 328495, Note_off_c, 1, 77, 0
1, 328708, Note_off_c, 1, 45, 0
1, 328710, Note_on_c, 1, 65, 127
1, 328710, Note_on_c, 1, 57, 127
1, 328921, Note_off_c, 1, 65, 0
1, 328921, Note_off_c, 1, 57, 0
1, 328923, Note_on_c, 1, 74, 127
1, 328923, Note_on_c, 1, 58, 127
1, 329136, Note_on_c, 1, 77, 127
1, 329345, Note_off_c, 1, 74, 0
1, 329347, Note_off_c, 1, 77, 0
1, 329560, Note_off_c, 1, 58, 0
1, 329562, Note_on_c, 1, 65, 127
1, 329562, Note_on_c, 1, 46, 127
1, 329773, Note_off_c, 1, 65, 0
1, 329773, Note_off_c, 1, 46, 0
1, 329775, Note_on_c, 1, 74, 127
1, 329775, Note_on_c, 1, 45, 127
1, 329988, Note_on_c, 1, 77, 127
1, 330197, Note_off_c, 1, 74, 0
1, 330199, Note_off_c, 1, 77, 0
1, 330412, Note_off_c, 1, 45, 0
1, 330414, Note_on_c, 1, 57, 127
1, 330414, Note_on_c, 1, 65, 127
1, 330625, Note_off_c, 1, 57, 0
1, 330627, Note_on_c, 1, 62, 127
1, 330838, Note_off_c, 1, 65, 0
1, 330840, Note_on_c, 1, 69, 127
1, 331051, Note_off_c, 1, 62, 0
1, 331051, Note_off_c, 1, 69, 0
1, 331053, Note_on_c, 1, 74, 127
1, 331053, Note_on_c, 1, 53, 127
1, 331264, Note_off_c, 1, 74, 0
1, 331264, Note_off_c, 1, 53, 0
1, 331266, Note_on_c, 1, 76, 127
1, 331266, Note_on_c, 1, 55, 127
1, 331477, Note_off_c, 1, 76, 0
1, 331477, Note_off_c, 1, 55, 0
1, 331479, Note_on_c, 1, 74, 127
1, 331479, Note_on_c, 1, 57, 127
1, 331621, Note_off_c, 1, 74, 0
1, 331621, Note_on_c, 1, 73, 127
1, 331690, Note_off_c, 1, 57, 0
1, 331692, Note_off_c, 1, 73, 0
1, 331692, Note_on_c, 1, 52, 127
1, 331903, Note_off_c, 1, 52, 0
1, 332118, Note_on_c, 1, 45, 127
1, 332329, Note_off_c, 1, 45, 0
1, 332331, Note_on_c, 1, 74, 127
1, 332331, Note_on_c, 1, 50, 127
1, 332544, Note_on_c, 1, 77, 127
1, 332755, Note_off_c, 1, 77, 0
1, 332757, Note_on_c, 1, 81, 127
1, 332953, Note_off_c, 1, 74, 0
1, 332969, Note_off_c, 1, 81, 0
1, 333395, Note_off_c, 1, 50, 0
1, 333397, Note_on_c, 1, 53, 127
1, 333608, Note_off_c, 1, 53, 0
1, 333610, Note_on_c, 1, 57, 127
1, 333821, Note_off_c, 1, 57, 0
1, 334888, Note_on_c, 1, 74, 127
1, 334888, Note_on_c, 1, 53, 127
1, 335101, Note_on_c, 1, 77, 127
1, 335310, Note_off_c, 1, 74, 0
1, 335312, Note_off_c, 1, 53, 0
1, 335312, Note_off_c, 1, 77, 0
1, 335314, Note_on_c, 1, 69, 127
1, 335314, Note_on_c, 1, 50, 127
1, 335527, Note_on_c, 1, 74, 127
1, 335736, Note_off_c, 1, 69, 0
1, 335738, Note_off_c, 1, 50, 0
1, 335738, Note_off_c, 1, 74, 0
1, 335740, Note_on_c, 1, 73, 127
1, 335740, Note_on_c, 1, 57, 127
1, 335953, Note_on_c, 1, 76, 127
1, 336164, Note_off_c, 1, 76, 0
1, 336166, Note_on_c, 1, 81, 127
1, 336377, Note_off_c, 1, 81, 0
1, 336583, Note_off_c, 1, 73, 0
1, 336592, Note_on_c, 1, 69, 127
1, 336803, Note_off_c, 1, 57, 0
1, 336805, Note_on_c, 1, 52, 127
1, 337016, Note_off_c, 1, 52, 0
1, 337435, Note_off_c, 1, 69, 0
1, 337444, Note_on_c, 1, 45, 127
1, 337657, Note_on_c, 1, 72, 127
1, 337868, Note_off_c, 1, 72, 0
1, 337870, Note_on_c, 1, 76, 127
1, 338292, Note_off_c, 1, 76, 0
1, 338294, Note_off_c, 1, 45, 0
1, 338296, Note_on_c, 1, 69, 127
1, 338296, Note_on_c, 1, 48, 127
1, 338509, Note_on_c, 1, 72, 127
1, 338718, Note_off_c, 1, 69, 0
1, 338720, Note_off_c, 1, 48, 0
1, 338720, Note_off_c, 1, 72, 0
1, 338722, Note_on_c, 1, 64, 127
1, 338722, Note_on_c, 1, 45, 127
1, 338935, Note_on_c, 1, 69, 127
1, 339144, Note_off_c, 1, 64, 0
1, 339146, Note_off_c, 1, 45, 0
1, 339146, Note_off_c, 1, 69, 0
1, 339148, Note_on_c, 1, 68, 127
1, 339148, Note_on_c, 1, 52, 127
1, 339361, Note_on_c, 1, 71, 127
1, 339572, Note_off_c, 1, 71, 0
1, 339574, Note_on_c, 1, 76, 127
1, 339785, Note_off_c, 1, 76, 0
1, 339991, Note_off_c, 1, 68, 0
1, 340000, Note_on_c, 1, 64, 127
1, 340211, Note_off_c, 1, 52, 0
1, 340426, Note_on_c, 1, 53, 127
1, 340622, Note_off_c, 1, 64, 0
1, 340638, Note_off_c, 1, 53, 0
1, 340640, Note_on_c, 1, 52, 127
1, 340851, Note_off_c, 1, 52, 0
1, 340853, Note_on_c, 1, 77, 127
1, 340853, Note_on_c, 1, 50, 127
1, 341064, Note_off_c, 1, 77, 0
1, 341066, Note_on_c, 1, 81, 127
1, 341170, Note_off_c, 1, 81, 0
1, 341278, Note_on_c, 1, 74, 127
1, 341489, Note_off_c, 1, 74, 0
1, 341703, Note_on_c, 1, 71, 127
1, 341914, Note_off_c, 1, 71, 0
1, 342126, Note_off_c, 1, 50, 0
1, 342128, Note_on_c, 1, 68, 127
1, 342128, Note_on_c, 1, 50, 127
1, 342339, Note_off_c, 1, 68, 0
1, 342341, Note_on_c, 1, 71, 127
1, 342445, Note_off_c, 1, 71, 0
1, 342551, Note_off_c, 1, 50, 0
1, 342553, Note_on_c, 1, 69, 127
1, 342553, Note_on_c, 1, 48, 127
1, 342764, Note_off_c, 1, 69, 0
1, 342766, Note_on_c, 1, 76, 127
1, 342870, Note_off_c, 1, 76, 0
1, 342872, Note_on_c, 1, 72, 127
1, 342976, Note_off_c, 1, 72, 0
1, 343403, Note_on_c, 1, 64, 127
1, 343614, Note_off_c, 1, 64, 0
1, 343826, Note_off_c, 1, 48, 0
1, 343828, Note_on_c, 1, 60, 127
1, 343828, Note_on_c, 1, 45, 127
1, 344039, Note_off_c, 1, 60, 0
1, 344041, Note_on_c, 1, 64, 127
1, 344145, Note_off_c, 1, 64, 0
1, 344251, Note_off_c, 1, 45, 0
1, 344253, Note_on_c, 1, 53, 127
1, 344253, Note_on_c, 1, 57, 127
1, 344464, Note_off_c, 1, 53, 0
1, 344466, Note_on_c, 1, 52, 127
1, 344677, Note_off_c, 1, 52, 0
1, 344679, Note_on_c, 1, 50, 127
1, 344890, Note_off_c, 1, 57, 0
1, 344890, Note_off_c, 1, 50, 0
1, 344892, Note_on_c, 1, 69, 127
1, 344892, Note_on_c, 1, 53, 127
1, 345103, Note_off_c, 1, 69, 0
1, 345103, Note_off_c, 1, 53, 0
1, 345105, Note_on_c, 1, 68, 127
1, 345105, Note_on_c, 1, 52, 127
1, 345316, Note_off_c, 1, 68, 0
1, 345318, Note_on_c, 1, 71, 127
1, 345529, Note_off_c, 1, 52, 0
1, 345529, Note_off_c, 1, 71, 0
1, 345531, Note_on_c, 1, 76, 127
1, 345531, Note_on_c, 1, 40, 127
1, 345742, Note_off_c, 1, 76, 0
1, 345744, Note_on_c, 1, 71, 127
1, 345955, Note_off_c, 1, 40, 0
1, 345955, Note_off_c, 1, 71, 0
1, 345957, Note_on_c, 1, 73, 127
1, 345957, Note_on_c, 1, 45, 127
1, 345957, Note_on_c, 1, 57, 127
1, 346168, Note_off_c, 1, 73, 0
1, 346170, Note_on_c, 1, 76, 127
1, 346381, Note_off_c, 1, 76, 0
1, 346383, Note_on_c, 1, 81, 127
1, 346809, Note_on_c, 1, 69, 127
1, 347005, Note_off_c, 1, 81, 0
1, 347021, Note_off_c, 1, 45, 0
1, 347022, Note_on_c, 1, 52, 127
1, 347233, Note_off_c, 1, 52, 0
1, 347357, Note_off_c, 1, 57, 0
1, 347423, Note_off_c, 1, 69, 0
1, 347614, Note_on_c, 1, 56, 127
1, 347614, Note_on_c, 1, 71, 127
1, 347787, Note_off_c, 1, 56, 0
1, 347787, Note_off_c, 1, 71, 0
1, 347789, Note_on_c, 1, 57, 127
1, 347789, Note_on_c, 1, 72, 127
1, 347962, Note_off_c, 1, 57, 0
1, 347962, Note_off_c, 1, 72, 0
1, 347964, Note_on_c, 1, 60, 127
1, 347964, Note_on_c, 1, 76, 127
1, 348137, Note_off_c, 1, 60, 0
1, 348137, Note_off_c, 1, 76, 0
1, 348139, Note_on_c, 1, 59, 127
1, 348139, Note_on_c, 1, 68, 127
1, 348312, Note_off_c, 1, 59, 0
1, 348312, Note_off_c, 1, 68, 0
1, 348314, Note_on_c, 1, 62, 127
1, 348314, Note_on_c, 1, 71, 127
1, 348487, Note_off_c, 1, 62, 0
1, 348487, Note_off_c, 1, 71, 0
1, 348489, Note_on_c, 1, 60, 127
1, 348489, Note_on_c, 1, 69, 127
1, 348662, Note_off_c, 1, 60, 0
1, 348662, Note_off_c, 1, 69, 0
1, 348664, Note_on_c, 1, 64, 127
1, 348664, Note_on_c, 1, 72, 127
1, 348837, Note_off_c, 1, 64, 0
1, 348837, Note_off_c, 1, 72, 0
1, 348839, Note_on_c, 1, 56, 127
1, 348839, Note_on_c, 1, 71, 127
1, 349012, Note_off_c, 1, 56, 0
1, 349012, Note_off_c, 1, 71, 0
1, 349014, Note_on_c, 1, 59, 127
1, 349014, Note_on_c, 1, 66, 127
1, 349187, Note_off_c, 1, 59, 0
1, 349187, Note_off_c, 1, 66, 0
1, 349189, Note_on_c, 1, 52, 127
1, 349189, Note_on_c, 1, 68, 127
1, 349362, Note_off_c, 1, 52, 0
1, 349362, Note_off_c, 1, 68, 0
1, 349364, Note_on_c, 1, 56, 127
1, 349364, Note_on_c, 1, 71, 127
1, 349537, Note_off_c, 1, 56, 0
1, 349537, Note_off_c, 1, 71, 0
1, 349539, Note_on_c, 1, 54, 127
1, 349539, Note_on_c, 1, 63, 127
1, 349712, Note_off_c, 1, 54, 0
1, 349712, Note_off_c, 1, 63, 0
1, 349714, Note_on_c, 1, 57, 127
1, 349714, Note_on_c, 1, 66, 127
1, 349887, Note_off_c, 1, 57, 0
1, 349887, Note_off_c, 1, 66, 0
1, 349889, Note_on_c, 1, 56, 127
1, 349889, Note_on_c, 1, 64, 127
1, 350062, Note_off_c, 1, 56, 0
1, 350062, Note_off_c, 1, 64, 0
1, 350064, Note_on_c, 1, 59, 127
1, 350064, Note_on_c, 1, 68, 127
1, 350237, Note_off_c, 1, 59, 0
1, 350237, Note_off_c, 1, 68, 0
1, 350239, Note_on_c, 1, 48, 127
1, 350239, Note_on_c, 1, 69, 127
1, 350412, Note_off_c, 1, 48, 0
1, 350412, Note_off_c, 1, 69, 0
1, 350414, Note_on_c, 1, 57, 127
1, 350414, Note_on_c, 1, 64, 127
1, 350587, Note_off_c, 1, 57, 0
1, 350587, Note_off_c, 1, 64, 0
1, 350589, Note_on_c, 1, 52, 127
1, 350589, Note_on_c, 1, 69, 127
1, 350762, Note_off_c, 1, 52, 0
1, 350762, Note_off_c, 1, 69, 0
1, 350764, Note_on_c, 1, 45, 127
1, 350764, Note_on_c, 1, 72, 127
1, 350937, Note_off_c, 1, 45, 0
1, 350937, Note_off_c, 1, 72, 0
1, 350939, Note_on_c, 1, 56, 127
1, 350939, Note_on_c, 1, 71, 127
1, 351112, Note_off_c, 1, 56, 0
1, 351112, Note_off_c, 1, 71, 0
1, 351114, Note_on_c, 1, 54, 127
1, 351114, Note_on_c, 1, 64, 127
1, 351287, Note_off_c, 1, 54, 0
1, 351287, Note_off_c, 1, 64, 0
1, 351289, Note_on_c, 1, 56, 127
1, 351289, Note_on_c, 1, 71, 127
1, 351462, Note_off_c, 1, 56, 0
1, 351462, Note_off_c, 1, 71, 0
1, 351464, Note_on_c, 1, 52, 127
1, 351464, Note_on_c, 1, 74, 127
1, 351637, Note_off_c, 1, 52, 0
1, 351637, Note_off_c, 1, 74, 0
1, 351639, Note_on_c, 1, 57, 127
1, 351639, Note_on_c, 1, 72, 127
1, 351812, Note_off_c, 1, 57, 0
1, 351812, Note_off_c, 1, 72, 0
1, 351814, Note_on_c, 1, 59, 127
1, 351814, Note_on_c, 1, 77, 127
1, 351987, Note_off_c, 1, 59, 0
1, 351987, Note_off_c, 1, 77, 0
1, 351989, Note_on_c, 1, 60, 127
1, 351989, Note_on_c, 1, 76, 127
1, 352162, Note_off_c, 1, 60, 0
1, 352162, Note_off_c, 1, 76, 0
1, 352164, Note_on_c, 1, 62, 127
1, 352164, Note_on_c, 1, 71, 127
1, 352337, Note_off_c, 1, 62, 0
1, 352337, Note_off_c, 1, 71, 0
1, 352339, Note_on_c, 1, 64, 127
1, 352339, Note_on_c, 1, 72, 127
1, 352512, Note_off_c, 1, 64, 0
1, 352512, Note_off_c, 1, 72, 0
1, 352514, Note_on_c, 1, 62, 127
1, 352514, Note_on_c, 1, 76, 127
1, 352687, Note_off_c, 1, 62, 0
1, 352687, Note_off_c, 1, 76, 0
1, 352689, Note_on_c, 1, 60, 127
1, 352689, Note_on_c, 1, 69, 127
1, 352862, Note_off_c, 1, 60, 0
1, 352864, Note_on_c, 1, 59, 127
1, 352889, Note_off_c, 1, 69, 0
1, 353036, Note_off_c, 1, 59, 0
1, 353038, Note_on_c, 1, 84, 127
1, 353038, Note_on_c, 1, 57, 127
1, 353211, Note_off_c, 1, 84, 0
1, 353213, Note_on_c, 1, 83, 127
1, 353386, Note_off_c, 1, 57, 0
1, 353386, Note_off_c, 1, 83, 0
1, 353388, Note_on_c, 1, 60, 127
1, 353388, Note_on_c, 1, 81, 127
1, 353561, Note_off_c, 1, 60, 0
1, 353561, Note_off_c, 1, 81, 0
1, 353563, Note_on_c, 1, 59, 127
1, 353563, Note_on_c, 1, 79, 127
1, 353736, Note_off_c, 1, 59, 0
1, 353736, Note_off_c, 1, 79, 0
1, 353738, Note_on_c, 1, 57, 127
1, 353738, Note_on_c, 1, 78, 127
1, 353911, Note_off_c, 1, 57, 0
1, 353911, Note_off_c, 1, 78, 0
1, 353913, Note_on_c, 1, 55, 127
1, 353913, Note_on_c, 1, 83, 127
1, 354086, Note_off_c, 1, 55, 0
1, 354086, Note_off_c, 1, 83, 0
1, 354088, Note_on_c, 1, 54, 127
1, 354088, Note_on_c, 1, 81, 127
1, 354261, Note_off_c, 1, 54, 0
1, 354261, Note_off_c, 1, 81, 0
1, 354263, Note_on_c, 1, 59, 127
1, 354263, Note_on_c, 1, 79, 127
1, 354436, Note_off_c, 1, 59, 0
1, 354436, Note_off_c, 1, 79, 0
1, 354438, Note_on_c, 1, 57, 127
1, 354438, Note_on_c, 1, 78, 127
1, 354611, Note_off_c, 1, 57, 0
1, 354611, Note_off_c, 1, 78, 0
1, 354613, Note_on_c, 1, 55, 127
1, 354613, Note_on_c, 1, 76, 127
1, 354786, Note_off_c, 1, 55, 0
1, 354786, Note_off_c, 1, 76, 0
1, 354788, Note_on_c, 1, 54, 127
1, 354788, Note_on_c, 1, 75, 127
1, 354961, Note_off_c, 1, 54, 0
1, 354961, Note_off_c, 1, 75, 0
1, 354963, Note_on_c, 1, 52, 127
1, 354963, Note_on_c, 1, 79, 127
1, 355136, Note_off_c, 1, 52, 0
1, 355136, Note_off_c, 1, 79, 0
1, 355138, Note_on_c, 1, 51, 127
1, 355138, Note_on_c, 1, 78, 127
1, 355311, Note_off_c, 1, 51, 0
1, 355311, Note_off_c, 1, 78, 0
1, 355313, Note_on_c, 1, 55, 127
1, 355313, Note_on_c, 1, 76, 127
1, 355486, Note_off_c, 1, 55, 0
1, 355486, Note_off_c, 1, 76, 0
1, 355488, Note_on_c, 1, 54, 127
1, 355488, Note_on_c, 1, 75, 127
1, 355661, Note_off_c, 1, 54, 0
1, 355661, Note_off_c, 1, 75, 0
1, 355663, Note_on_c, 1, 52, 127
1, 355663, Note_on_c, 1, 73, 127
1, 355836, Note_off_c, 1, 52, 0
1, 355836, Note_off_c, 1, 73, 0
1, 355838, Note_on_c, 1, 51, 127
1, 355838, Note_on_c, 1, 71, 127
1, 356011, Note_off_c, 1, 51, 0
1, 356011, Note_off_c, 1, 71, 0
1, 356013, Note_on_c, 1, 49, 127
1, 356013, Note_on_c, 1, 76, 127
1, 356186, Note_off_c, 1, 49, 0
1, 356186, Note_off_c, 1, 76, 0
1, 356188, Note_on_c, 1, 47, 127
1, 356188, Note_on_c, 1, 75, 127
1, 356361, Note_off_c, 1, 47, 0
1, 356361, Note_off_c, 1, 75, 0
1, 356363, Note_on_c, 1, 45, 127
1, 356363, Note_on_c, 1, 73, 127
1, 356536, Note_off_c, 1, 45, 0
1, 356536, Note_off_c, 1, 73, 0
1, 356538, Note_on_c, 1, 44, 127
1, 356538, Note_on_c, 1, 71, 127
1, 356711, Note_off_c, 1, 44, 0
1, 356711, Note_off_c, 1, 71, 0
1, 356713, Note_on_c, 1, 45, 127
1, 356713, Note_on_c, 1, 69, 127
1, 356886, Note_off_c, 1, 45, 0
1, 356886, Note_off_c, 1, 69, 0
1, 356888, Note_on_c, 1, 68, 127
1, 356888, Note_on_c, 1, 47, 127
1, 357061, Note_off_c, 1, 68, 0
1, 357063, Note_on_c, 1, 66, 127
1, 357236, Note_off_c, 1, 47, 0
1, 357236, Note_off_c, 1, 66, 0
1, 357238, Note_on_c, 1, 52, 127
1, 357238, Note_on_c, 1, 68, 127
1, 357411, Note_off_c, 1, 52, 0
1, 357411, Note_off_c, 1, 68, 0
1, 357413, Note_on_c, 1, 47, 127
1, 357413, Note_on_c, 1, 72, 127
1, 357586, Note_off_c, 1, 47, 0
1, 357586, Note_off_c, 1, 72, 0
1, 357588, Note_on_c, 1, 44, 127
1, 357588, Note_on_c, 1, 71, 127
1, 357761, Note_off_c, 1, 44, 0
1, 357761, Note_off_c, 1, 71, 0
1, 357763, Note_on_c, 1, 42, 127
1, 357763, Note_on_c, 1, 69, 127
1, 357936, Note_off_c, 1, 42, 0
1, 357936, Note_off_c, 1, 69, 0
1, 357938, Note_on_c, 1, 68, 127
1, 357938, Note_on_c, 1, 40, 127
1, 358111, Note_off_c, 1, 68, 0
1, 358113, Note_on_c, 1, 47, 127
1, 358113, Note_on_c, 1, 66, 127
1, 358284, Note_off_c, 1, 40, 0
1, 358286, Note_off_c, 1, 47, 0
1, 358286, Note_off_c, 1, 66, 0
1, 358288, Note_on_c, 1, 52, 127
1, 358288, Note_on_c, 1, 64, 127
1, 358635, Note_off_c, 1, 52, 0
1, 358635, Note_off_c, 1, 64, 0
1, 358637, Note_on_c, 1, 60, 127
1, 358637, Note_on_c, 1, 36, 127
1, 358810, Note_off_c, 1, 60, 0
1, 358812, Note_on_c, 1, 62, 127
1, 358985, Note_off_c, 1, 36, 0
1, 358985, Note_off_c, 1, 62, 0
1, 358987, Note_on_c, 1, 48, 127
1, 358987, Note_on_c, 1, 64, 127
1, 359160, Note_off_c, 1, 48, 0
1, 359160, Note_off_c, 1, 64, 0
1, 359162, Note_on_c, 1, 50, 127
1, 359162, Note_on_c, 1, 65, 127
1, 359335, Note_off_c, 1, 50, 0
1, 359335, Note_off_c, 1, 65, 0
1, 359337, Note_on_c, 1, 52, 127
1, 359337, Note_on_c, 1, 67, 127
1, 359510, Note_off_c, 1, 52, 0
1, 359510, Note_off_c, 1, 67, 0
1, 359512, Note_on_c, 1, 53, 127
1, 359512, Note_on_c, 1, 57, 127
1, 359685, Note_off_c, 1, 53, 0
1, 359685, Note_off_c, 1, 57, 0
1, 359687, Note_on_c, 1, 55, 127
1, 359687, Note_on_c, 1, 59, 127
1, 359860, Note_off_c, 1, 55, 0
1, 359860, Note_off_c, 1, 59, 0
1, 359862, Note_on_c, 1, 45, 127
1, 359862, Note_on_c, 1, 60, 127
1, 360035, Note_off_c, 1, 45, 0
1, 360035, Note_off_c, 1, 60, 0
1, 360037, Note_on_c, 1, 47, 127
1, 360037, Note_on_c, 1, 62, 127
1, 360210, Note_off_c, 1, 47, 0
1, 360210, Note_off_c, 1, 62, 0
1, 360212, Note_on_c, 1, 50, 127
1, 360212, Note_on_c, 1, 66, 127
1, 360385, Note_off_c, 1, 50, 0
1, 360385, Note_off_c, 1, 66, 0
1, 360387, Note_on_c, 1, 52, 127
1, 360387, Note_on_c, 1, 67, 127
1, 360560, Note_off_c, 1, 52, 0
1, 360560, Note_off_c, 1, 67, 0
1, 360562, Note_on_c, 1, 54, 127
1, 360562, Note_on_c, 1, 69, 127
1, 360735, Note_off_c, 1, 54, 0
1, 360735, Note_off_c, 1, 69, 0
1, 360737, Note_on_c, 1, 55, 127
1, 360737, Note_on_c, 1, 71, 127
1, 360910, Note_off_c, 1, 55, 0
1, 360910, Note_off_c, 1, 71, 0
1, 360912, Note_on_c, 1, 57, 127
1, 360912, Note_on_c, 1, 59, 127
1, 361085, Note_off_c, 1, 57, 0
1, 361085, Note_off_c, 1, 59, 0
1, 361087, Note_on_c, 1, 55, 127
1, 361087, Note_on_c, 1, 61, 127
1, 361260, Note_off_c, 1, 55, 0
1, 361260, Note_off_c, 1, 61, 0
1, 361262, Note_on_c, 1, 54, 127
1, 361262, Note_on_c, 1, 63, 127
1, 361435, Note_off_c, 1, 54, 0
1, 361435, Note_off_c, 1, 63, 0
1, 361437, Note_on_c, 1, 64, 127
1, 361437, Note_on_c, 1, 52, 127
1, 361610, Note_off_c, 1, 64, 0
1, 361612, Note_on_c, 1, 66, 127
1, 361785, Note_off_c, 1, 52, 0
1, 361785, Note_off_c, 1, 66, 0
1, 361787, Note_on_c, 1, 52, 127
1, 361787, Note_on_c, 1, 67, 127
1, 361960, Note_off_c, 1, 52, 0
1, 361960, Note_off_c, 1, 67, 0
1, 361962, Note_on_c, 1, 54, 127
1, 361962, Note_on_c, 1, 69, 127
1, 362135, Note_off_c, 1, 54, 0
1, 362135, Note_off_c, 1, 69, 0
1, 362137, Note_on_c, 1, 55, 127
1, 362137, Note_on_c, 1, 71, 127
1, 362310, Note_off_c, 1, 55, 0
1, 362310, Note_off_c, 1, 71, 0
1, 362312, Note_on_c, 1, 57, 127
1, 362312, Note_on_c, 1, 61, 127
1, 362485, Note_off_c, 1, 57, 0
1, 362485, Note_off_c, 1, 61, 0
1, 362487, Note_on_c, 1, 59, 127
1, 362487, Note_on_c, 1, 63, 127
1, 362660, Note_off_c, 1, 59, 0
1, 362660, Note_off_c, 1, 63, 0
1, 362662, Note_on_c, 1, 49, 127
1, 362662, Note_on_c, 1, 64, 127
1, 362835, Note_off_c, 1, 49, 0
1, 362835, Note_off_c, 1, 64, 0
1, 362837, Note_on_c, 1, 51, 127
1, 362837, Note_on_c, 1, 66, 127
1, 363010, Note_off_c, 1, 51, 0
1, 363010, Note_off_c, 1, 66, 0
1, 363012, Note_on_c, 1, 52, 127
1, 363012, Note_on_c, 1, 67, 127
1, 363185, Note_off_c, 1, 52, 0
1, 363185, Note_off_c, 1, 67, 0
1, 363187, Note_on_c, 1, 51, 127
1, 363187, Note_on_c, 1, 66, 127
1, 363360, Note_off_c, 1, 51, 0
1, 363360, Note_off_c, 1, 66, 0
1, 363362, Note_on_c, 1, 49, 127
1, 363362, Note_on_c, 1, 64, 127
1, 363535, Note_off_c, 1, 49, 0
1, 363535, Note_off_c, 1, 64, 0
1, 363537, Note_on_c, 1, 63, 127
1, 363537, Note_on_c, 1, 47, 127
1, 363710, Note_off_c, 1, 63, 0
1, 363712, Note_on_c, 1, 61, 127
1, 363885, Note_off_c, 1, 47, 0
1, 363885, Note_off_c, 1, 61, 0
1, 363887, Note_on_c, 1, 59, 127
1, 364062, Note_on_c, 1, 57, 127
1, 364235, Note_off_c, 1, 59, 0
1, 364235, Note_off_c, 1, 57, 0
1, 364237, Note_on_c, 1, 77, 127
1, 364237, Note_on_c, 1, 56, 127
1, 364410, Note_off_c, 1, 77, 0
1, 364412, Note_on_c, 1, 76, 127
1, 364585, Note_off_c, 1, 56, 0
1, 364585, Note_off_c, 1, 76, 0
1, 364587, Note_on_c, 1, 65, 127
1, 364587, Note_on_c, 1, 74, 127
1, 364760, Note_off_c, 1, 65, 0
1, 364760, Note_off_c, 1, 74, 0
1, 364762, Note_on_c, 1, 64, 127
1, 364762, Note_on_c, 1, 73, 127
1, 364935, Note_off_c, 1, 64, 0
1, 364935, Note_off_c, 1, 73, 0
1, 364937, Note_on_c, 1, 62, 127
1, 364937, Note_on_c, 1, 74, 127
1, 365110, Note_off_c, 1, 62, 0
1, 365110, Note_off_c, 1, 74, 0
1, 365112, Note_on_c, 1, 61, 127
1, 365112, Note_on_c, 1, 76, 127
1, 365285, Note_off_c, 1, 61, 0
1, 365285, Note_off_c, 1, 76, 0
1, 365287, Note_on_c, 1, 62, 127
1, 365287, Note_on_c, 1, 77, 127
1, 365460, Note_off_c, 1, 62, 0
1, 365460, Note_off_c, 1, 77, 0
1, 365462, Note_on_c, 1, 64, 127
1, 365462, Note_on_c, 1, 76, 127
1, 365635, Note_off_c, 1, 64, 0
1, 365635, Note_off_c, 1, 76, 0
1, 365637, Note_on_c, 1, 65, 127
1, 365637, Note_on_c, 1, 74, 127
1, 365810, Note_off_c, 1, 65, 0
1, 365810, Note_off_c, 1, 74, 0
1, 365812, Note_on_c, 1, 64, 127
1, 365812, Note_on_c, 1, 73, 127
1, 365985, Note_off_c, 1, 64, 0
1, 365985, Note_off_c, 1, 73, 0
1, 365987, Note_on_c, 1, 62, 127
1, 365987, Note_on_c, 1, 74, 127
1, 366160, Note_off_c, 1, 62, 0
1, 366160, Note_off_c, 1, 74, 0
1, 366162, Note_on_c, 1, 61, 127
1, 366162, Note_on_c, 1, 76, 127
1, 366335, Note_off_c, 1, 61, 0
1, 366335, Note_off_c, 1, 76, 0
1, 366337, Note_on_c, 1, 62, 127
1, 366337, Note_on_c, 1, 77, 127
1, 366510, Note_off_c, 1, 62, 0
1, 366510, Note_off_c, 1, 77, 0
1, 366512, Note_on_c, 1, 64, 127
1, 366512, Note_on_c, 1, 76, 127
1, 366685, Note_off_c, 1, 64, 0
1, 366685, Note_off_c, 1, 76, 0
1, 366687, Note_on_c, 1, 65, 127
1, 366687, Note_on_c, 1, 74, 127
1, 366860, Note_off_c, 1, 65, 0
1, 366860, Note_off_c, 1, 74, 0
1, 366862, Note_on_c, 1, 64, 127
1, 366862, Note_on_c, 1, 73, 127
1, 367035, Note_off_c, 1, 64, 0
1, 367035, Note_off_c, 1, 73, 0
1, 367037, Note_on_c, 1, 62, 127
1, 367037, Note_on_c, 1, 74, 127
1, 367210, Note_off_c, 1, 62, 0
1, 367210, Note_off_c, 1, 74, 0
1, 367212, Note_on_c, 1, 61, 127
1, 367212, Note_on_c, 1, 76, 127
1, 367385, Note_off_c, 1, 61, 0
1, 367385, Note_off_c, 1, 76, 0
1, 367387, Note_on_c, 1, 62, 127
1, 367387, Note_on_c, 1, 77, 127
1, 367560, Note_off_c, 1, 62, 0
1, 367560, Note_off_c, 1, 77, 0
1, 367562, Note_on_c, 1, 64, 127
1, 367562, Note_on_c, 1, 79, 127
1, 367735, Note_off_c, 1, 64, 0
1, 367735, Note_off_c, 1, 79, 0
1, 367737, Note_on_c, 1, 65, 127
1, 367737, Note_on_c, 1, 81, 127
1, 367910, Note_off_c, 1, 65, 0
1, 367910, Note_off_c, 1, 81, 0
1, 367912, Note_on_c, 1, 67, 127
1, 367912, Note_on_c, 1, 69, 127
1, 368085, Note_off_c, 1, 67, 0
1, 368085, Note_off_c, 1, 69, 0
1, 368087, Note_on_c, 1, 65, 127
1, 368087, Note_on_c, 1, 71, 127
1, 368260, Note_off_c, 1, 65, 0
1, 368260, Note_off_c, 1, 71, 0
1, 368262, Note_on_c, 1, 64, 127
1, 368262, Note_on_c, 1, 73, 127
1, 368435, Note_off_c, 1, 64, 0
1, 368435, Note_off_c, 1, 73, 0
1, 368437, Note_on_c, 1, 74, 127
1, 368437, Note_on_c, 1, 62, 127
1, 368610, Note_off_c, 1, 74, 0
1, 368612, Note_on_c, 1, 65, 127
1, 368785, Note_off_c, 1, 65, 0
1, 368787, Note_on_c, 1, 67, 127
1, 368960, Note_off_c, 1, 67, 0
1, 368962, Note_on_c, 1, 69, 127
1, 369129, Note_off_c, 1, 62, 0
1, 369134, Note_off_c, 1, 69, 0
1, 369136, Note_on_c, 1, 62, 127
1, 369311, Note_on_c, 1, 53, 127
1, 369484, Note_off_c, 1, 53, 0
1, 369486, Note_on_c, 1, 55, 127
1, 369659, Note_off_c, 1, 55, 0
1, 369661, Note_on_c, 1, 57, 127
1, 369828, Note_off_c, 1, 62, 0
1, 369833, Note_off_c, 1, 57, 0
1, 369835, Note_on_c, 1, 50, 127
1, 370007, Note_on_c, 1, 82, 127
1, 370177, Note_off_c, 1, 82, 0
1, 370179, Note_on_c, 1, 81, 127
1, 370349, Note_off_c, 1, 81, 0
1, 370516, Note_off_c, 1, 50, 0
1, 370523, Note_on_c, 1, 81, 127
1, 370693, Note_off_c, 1, 81, 0
1, 370695, Note_on_c, 1, 70, 127
1, 370695, Note_on_c, 1, 79, 127
1, 370865, Note_off_c, 1, 70, 0
1, 370865, Note_off_c, 1, 79, 0
1, 370867, Note_on_c, 1, 69, 127
1, 370867, Note_on_c, 1, 77, 127
1, 371037, Note_off_c, 1, 69, 0
1, 371037, Note_off_c, 1, 77, 0
1, 371039, Note_on_c, 1, 70, 127
1, 371039, Note_on_c, 1, 79, 127
1, 371209, Note_off_c, 1, 70, 0
1, 371209, Note_off_c, 1, 79, 0
1, 371211, Note_on_c, 1, 69, 127
1, 371211, Note_on_c, 1, 77, 127
1, 371381, Note_off_c, 1, 69, 0
1, 371381, Note_off_c, 1, 77, 0
1, 371383, Note_on_c, 1, 67, 127
1, 371383, Note_on_c, 1, 76, 127
1, 371553, Note_off_c, 1, 67, 0
1, 371553, Note_off_c, 1, 76, 0
1, 371555, Note_on_c, 1, 65, 127
1, 371555, Note_on_c, 1, 74, 127
1, 371725, Note_off_c, 1, 65, 0
1, 371725, Note_off_c, 1, 74, 0
1, 371727, Note_on_c, 1, 67, 127
1, 371727, Note_on_c, 1, 76, 127
1, 371897, Note_off_c, 1, 67, 0
1, 371897, Note_off_c, 1, 76, 0
1, 371899, Note_on_c, 1, 64, 127
1, 371899, Note_on_c, 1, 73, 127
1, 372069, Note_off_c, 1, 64, 0
1, 372069, Note_off_c, 1, 73, 0
1, 372071, Note_on_c, 1, 65, 127
1, 372071, Note_on_c, 1, 74, 127
1, 372241, Note_off_c, 1, 65, 0
1, 372241, Note_off_c, 1, 74, 0
1, 372243, Note_on_c, 1, 64, 127
1, 372243, Note_on_c, 1, 73, 127
1, 372413, Note_off_c, 1, 64, 0
1, 372413, Note_off_c, 1, 73, 0
1, 372415, Note_on_c, 1, 62, 127
1, 372415, Note_on_c, 1, 71, 127
1, 372585, Note_off_c, 1, 62, 0
1, 372585, Note_off_c, 1, 71, 0
1, 372587, Note_on_c, 1, 61, 127
1, 372587, Note_on_c, 1, 69, 127
1, 372757, Note_off_c, 1, 61, 0
1, 372757, Note_off_c, 1, 69, 0
1, 372759, Note_on_c, 1, 59, 127
1, 372759, Note_on_c, 1, 77, 127
1, 372929, Note_off_c, 1, 59, 0
1, 372929, Note_off_c, 1, 77, 0
1, 372931, Note_on_c, 1, 76, 127
1, 372931, Note_on_c, 1, 57, 127
1, 373101, Note_off_c, 1, 76, 0
1, 373103, Note_on_c, 1, 77, 127
1, 373271, Note_off_c, 1, 57, 0
1, 373273, Note_off_c, 1, 77, 0
1, 373275, Note_on_c, 1, 76, 127
1, 373445, Note_off_c, 1, 76, 0
1, 373447, Note_on_c, 1, 65, 127
1, 373447, Note_on_c, 1, 74, 127
1, 373617, Note_off_c, 1, 65, 0
1, 373617, Note_off_c, 1, 74, 0
1, 373619, Note_on_c, 1, 64, 127
1, 373619, Note_on_c, 1, 72, 127
1, 373789, Note_off_c, 1, 64, 0
1, 373789, Note_off_c, 1, 72, 0
1, 373791, Note_on_c, 1, 65, 127
1, 373791, Note_on_c, 1, 74, 127
1, 373961, Note_off_c, 1, 65, 0
1, 373961, Note_off_c, 1, 74, 0
1, 373963, Note_on_c, 1, 64, 127
1, 373963, Note_on_c, 1, 72, 127
1, 374133, Note_off_c, 1, 64, 0
1, 374133, Note_off_c, 1, 72, 0
1, 374135, Note_on_c, 1, 62, 127
1, 374135, Note_on_c, 1, 71, 127
1, 374305, Note_off_c, 1, 62, 0
1, 374305, Note_off_c, 1, 71, 0
1, 374307, Note_on_c, 1, 60, 127
1, 374307, Note_on_c, 1, 69, 127
1, 374477, Note_off_c, 1, 60, 0
1, 374477, Note_off_c, 1, 69, 0
1, 374479, Note_on_c, 1, 62, 127
1, 374479, Note_on_c, 1, 71, 127
1, 374649, Note_off_c, 1, 62, 0
1, 374649, Note_off_c, 1, 71, 0
1, 374651, Note_on_c, 1, 59, 127
1, 374651, Note_on_c, 1, 68, 127
1, 374821, Note_off_c, 1, 59, 0
1, 374821, Note_off_c, 1, 68, 0
1, 374823, Note_on_c, 1, 57, 127
1, 374823, Note_on_c, 1, 66, 127
1, 374993, Note_off_c, 1, 57, 0
1, 374993, Note_off_c, 1, 66, 0
1, 374995, Note_on_c, 1, 56, 127
1, 374995, Note_on_c, 1, 64, 127
1, 375165, Note_off_c, 1, 56, 0
1, 375167, Note_on_c, 1, 57, 127
1, 375337, Note_off_c, 1, 64, 0
1, 375337, Note_off_c, 1, 57, 0
1, 375339, Note_on_c, 1, 74, 127
1, 375339, Note_on_c, 1, 50, 127
1, 375339, Note_on_c, 1, 59, 127
1, 375509, Note_off_c, 1, 74, 0
1, 375511, Note_on_c, 1, 76, 127
1, 375681, Note_off_c, 1, 76, 0
1, 375683, Note_on_c, 1, 77, 127
1, 375841, Note_off_c, 1, 50, 0
1, 375841, Note_off_c, 1, 59, 0
1, 375854, Note_off_c, 1, 77, 0
1, 375856, Note_on_c, 1, 76, 127
1, 376026, Note_off_c, 1, 76, 0
1, 376028, Note_on_c, 1, 74, 127
1, 376198, Note_off_c, 1, 74, 0
1, 376200, Note_on_c, 1, 76, 127
1, 376370, Note_off_c, 1, 76, 0
1, 376372, Note_on_c, 1, 72, 127
1, 376372, Note_on_c, 1, 60, 127
1, 376542, Note_off_c, 1, 72, 0
1, 376544, Note_on_c, 1, 74, 127
1, 376714, Note_off_c, 1, 60, 0
1, 376714, Note_off_c, 1, 74, 0
1, 376716, Note_on_c, 1, 62, 127
1, 376716, Note_on_c, 1, 71, 127
1, 376886, Note_off_c, 1, 62, 0
1, 376886, Note_off_c, 1, 71, 0
1, 376888, Note_on_c, 1, 64, 127
1, 376888, Note_on_c, 1, 72, 127
1, 377058, Note_off_c, 1, 64, 0
1, 377058, Note_off_c, 1, 72, 0
1, 377060, Note_on_c, 1, 65, 127
1, 377060, Note_on_c, 1, 74, 127
1, 377230, Note_off_c, 1, 65, 0
1, 377230, Note_off_c, 1, 74, 0
1, 377232, Note_on_c, 1, 64, 127
1, 377232, Note_on_c, 1, 72, 127
1, 377402, Note_off_c, 1, 64, 0
1, 377402, Note_off_c, 1, 72, 0
1, 377404, Note_on_c, 1, 62, 127
1, 377404, Note_on_c, 1, 71, 127
1, 377574, Note_off_c, 1, 62, 0
1, 377574, Note_off_c, 1, 71, 0
1, 377576, Note_on_c, 1, 64, 127
1, 377576, Note_on_c, 1, 72, 127
1, 377746, Note_off_c, 1, 64, 0
1, 377746, Note_off_c, 1, 72, 0
1, 377748, Note_on_c, 1, 60, 127
1, 377748, Note_on_c, 1, 69, 127
1, 377918, Note_off_c, 1, 60, 0
1, 377918, Note_off_c, 1, 69, 0
1, 377920, Note_on_c, 1, 62, 127
1, 377920, Note_on_c, 1, 71, 127
1, 378090, Note_off_c, 1, 62, 0
1, 378090, Note_off_c, 1, 71, 0
1, 378092, Note_on_c, 1, 59, 127
1, 378092, Note_on_c, 1, 68, 127
1, 378262, Note_off_c, 1, 59, 0
1, 378262, Note_off_c, 1, 68, 0
1, 378264, Note_on_c, 1, 68, 127
1, 378264, Note_on_c, 1, 76, 127
1, 378434, Note_off_c, 1, 68, 0
1, 378434, Note_off_c, 1, 76, 0
1, 378436, Note_on_c, 1, 60, 127
1, 378436, Note_on_c, 1, 69, 127
1, 378606, Note_off_c, 1, 60, 0
1, 378606, Note_off_c, 1, 69, 0
1, 378608, Note_on_c, 1, 69, 127
1, 378608, Note_on_c, 1, 72, 127
1, 378778, Note_off_c, 1, 69, 0
1, 378778, Note_off_c, 1, 72, 0
1, 378780, Note_on_c, 1, 62, 127
1, 378780, Note_on_c, 1, 71, 127
1, 378950, Note_off_c, 1, 62, 0
1, 378950, Note_off_c, 1, 71, 0
1, 378952, Note_on_c, 1, 66, 127
1, 378952, Note_on_c, 1, 69, 127
1, 379122, Note_off_c, 1, 66, 0
1, 379122, Note_off_c, 1, 69, 0
1, 379124, Note_on_c, 1, 64, 127
1, 379124, Note_on_c, 1, 68, 127
1, 379294, Note_off_c, 1, 64, 0
1, 379294, Note_off_c, 1, 68, 0
1, 379296, Note_on_c, 1, 68, 127
1, 379296, Note_on_c, 1, 71, 127
1, 379466, Note_off_c, 1, 68, 0
1, 379466, Note_off_c, 1, 71, 0
1, 379468, Note_on_c, 1, 69, 127
1, 379468, Note_on_c, 1, 73, 127
1, 379638, Note_off_c, 1, 69, 0
1, 379638, Note_off_c, 1, 73, 0
1, 379640, Note_on_c, 1, 61, 127
1, 379640, Note_on_c, 1, 76, 127
1, 379810, Note_off_c, 1, 61, 0
1, 379810, Note_off_c, 1, 76, 0
1, 379812, Note_on_c, 1, 62, 127
1, 379812, Note_on_c, 1, 77, 127
1, 379982, Note_off_c, 1, 62, 0
1, 379982, Note_off_c, 1, 77, 0
1, 379984, Note_on_c, 1, 59, 127
1, 379984, Note_on_c, 1, 74, 127
1, 380154, Note_off_c, 1, 59, 0
1, 380154, Note_off_c, 1, 74, 0
1, 380156, Note_on_c, 1, 61, 127
1, 380156, Note_on_c, 1, 76, 127
1, 380326, Note_off_c, 1, 61, 0
1, 380326, Note_off_c, 1, 76, 0
1, 380328, Note_on_c, 1, 56, 127
1, 380328, Note_on_c, 1, 71, 127
1, 380498, Note_off_c, 1, 56, 0
1, 380498, Note_off_c, 1, 71, 0
1, 380500, Note_on_c, 1, 57, 127
1, 380500, Note_on_c, 1, 73, 127
1, 380686, Note_off_c, 1, 57, 0
1, 380688, Note_off_c, 1, 73, 0
1, 380690, Note_on_c, 1, 68, 127
1, 380690, Note_on_c, 1, 52, 127
1, 380860, Note_off_c, 1, 68, 0
1, 380880, Note_on_c, 1, 69, 127
1, 381030, Note_off_c, 1, 52, 0
1, 381188, Note_on_c, 1, 45, 127
1, 381532, Note_on_c, 1, 49, 127
1, 382220, Note_on_c, 1, 57, 127
1, 383620, Note_off_c, 1, 57, 0
1, 383682, Note_off_c, 1, 49, 0
1, 383688, Note_off_c, 1, 45, 0
1, 383880, Note_off_c, 1, 69, 0
1, 384364, Note_on_c, 1, 69, 127
1, 384364, Note_on_c, 1, 64, 127
1, 384364, Note_on_c, 1, 57, 127
1, 384364, Note_on_c, 1, 60, 127
1, 384706, Note_off_c, 1, 69, 0
1, 384708, Note_on_c, 1, 71, 127
1, 385045, Note_off_c, 1, 64, 0
1, 385050, Note_off_c, 1, 57, 0
1, 385050, Note_off_c, 1, 60, 0
1, 385050, Note_off_c, 1, 71, 0
1, 385052, Note_on_c, 1, 72, 127
1, 385052, Note_on_c, 1, 53, 127
1, 385052, Note_on_c, 1, 57, 127
1, 385052, Note_on_c, 1, 69, 127
1, 385394, Note_off_c, 1, 72, 0
1, 385396, Note_on_c, 1, 74, 127
1, 385738, Note_off_c, 1, 53, 0
1, 385738, Note_off_c, 1, 57, 0
1, 385738, Note_off_c, 1, 74, 0
1, 385740, Note_on_c, 1, 52, 127
1, 385740, Note_on_c, 1, 59, 127
1, 385740, Note_on_c, 1, 76, 127
1, 386082, Note_off_c, 1, 69, 0
1, 386428, Note_on_c, 1, 68, 127
1, 386770, Note_off_c, 1, 52, 0
1, 386772, Note_on_c, 1, 50, 127
1, 387114, Note_off_c, 1, 59, 0
1, 387114, Note_off_c, 1, 68, 0
1, 387114, Note_off_c, 1, 50, 0
1, 387116, Note_on_c, 1, 60, 127
1, 387116, Note_on_c, 1, 48, 127
1, 387458, Note_off_c, 1, 60, 0
1, 387460, Note_off_c, 1, 76, 0
1, 387460, Note_on_c, 1, 62, 127
1, 387460, Note_on_c, 1, 77, 127
1, 387797, Note_off_c, 1, 48, 0
1, 387802, Note_off_c, 1, 62, 0
1, 387802, Note_off_c, 1, 77, 0
1, 388492, Note_on_c, 1, 57, 127
1, 388492, Note_on_c, 1, 72, 127
1, 388492, Note_on_c, 1, 69, 127
1, 388492, Note_on_c, 1, 45, 127
1, 388834, Note_off_c, 1, 57, 0
1, 388834, Note_off_c, 1, 72, 0
1, 388836, Note_on_c, 1, 59, 127
1, 388836, Note_on_c, 1, 71, 127
1, 389173, Note_off_c, 1, 69, 0
1, 389178, Note_off_c, 1, 59, 0
1, 389178, Note_off_c, 1, 71, 0
1, 389180, Note_on_c, 1, 60, 127
1, 389180, Note_on_c, 1, 64, 127
1, 389522, Note_off_c, 1, 60, 0
1, 389682, Note_off_c, 1, 64, 0
1, 389867, Note_off_c, 1, 45, 0
1, 389869, Note_on_c, 1, 48, 127
1, 389869, Note_on_c, 1, 78, 127
1, 389869, Note_on_c, 1, 69, 127
1, 389869, Note_on_c, 1, 57, 127
1, 390211, Note_off_c, 1, 48, 0
1, 390211, Note_off_c, 1, 78, 0
1, 390213, Note_on_c, 1, 47, 127
1, 390213, Note_on_c, 1, 79, 127
1, 390555, Note_off_c, 1, 47, 0
1, 390555, Note_off_c, 1, 79, 0
1, 390557, Note_on_c, 1, 81, 127
1, 390899, Note_off_c, 1, 69, 0
1, 390899, Note_off_c, 1, 81, 0
1, 390901, Note_on_c, 1, 45, 127
1, 390901, Note_on_c, 1, 72, 127
1, 391243, Note_off_c, 1, 57, 0
1, 391243, Note_off_c, 1, 45, 0
1, 391243, Note_off_c, 1, 72, 0
1, 391245, Note_on_c, 1, 75, 127
1, 391245, Note_on_c, 1, 54, 127
1, 391245, Note_on_c, 1, 47, 127
1, 391245, Note_on_c, 1, 71, 127
1, 391587, Note_off_c, 1, 75, 0
1, 391589, Note_on_c, 1, 76, 127
1, 391931, Note_off_c, 1, 54, 0
1, 391931, Note_off_c, 1, 47, 0
1, 391931, Note_off_c, 1, 76, 0
1, 391933, Note_on_c, 1, 78, 127
1, 391933, Note_on_c, 1, 63, 127
1, 391933, Note_on_c, 1, 57, 127
1, 392275, Note_off_c, 1, 71, 0
1, 392275, Note_off_c, 1, 78, 0
1, 392619, Note_off_c, 1, 63, 0
1, 392619, Note_off_c, 1, 57, 0
1, 392621, Note_on_c, 1, 55, 127
1, 392621, Note_on_c, 1, 64, 127
1, 392963, Note_off_c, 1, 55, 0
1, 392965, Note_on_c, 1, 72, 127
1, 393302, Note_off_c, 1, 64, 0
1, 393307, Note_off_c, 1, 72, 0
1, 393309, Note_on_c, 1, 79, 127
1, 393309, Note_on_c, 1, 71, 127
1, 393309, Note_on_c, 1, 63, 127
1, 393309, Note_on_c, 1, 59, 127
1, 393395, Note_off_c, 1, 79, 0
1, 393395, Note_on_c, 1, 78, 127
1, 393481, Note_off_c, 1, 78, 0
1, 393651, Note_off_c, 1, 71, 0
1, 393653, Note_on_c, 1, 69, 127
1, 393876, Note_on_c, 1, 76, 127
1, 393996, Note_off_c, 1, 63, 0
1, 393996, Note_off_c, 1, 59, 0
1, 393998, Note_on_c, 1, 64, 127
1, 393998, Note_on_c, 1, 52, 127
1, 394335, Note_off_c, 1, 69, 0
1, 394684, Note_off_c, 1, 64, 0
1, 394686, Note_on_c, 1, 68, 127
1, 394686, Note_on_c, 1, 40, 127
1, 395259, Note_off_c, 1, 68, 0
1, 395372, Note_off_c, 1, 76, 0
1, 395372, Note_off_c, 1, 40, 0
1, 395374, Note_on_c, 1, 72, 127
1, 395374, Note_on_c, 1, 60, 127
1, 395374, Note_on_c, 1, 67, 127
1, 395376, Note_off_c, 1, 52, 0
1, 395716, Note_off_c, 1, 72, 0
1, 395718, Note_on_c, 1, 74, 127
1, 396060, Note_off_c, 1, 60, 0
1, 396060, Note_off_c, 1, 74, 0
1, 396062, Note_on_c, 1, 48, 127
1, 396404, Note_off_c, 1, 48, 0
1, 396406, Note_on_c, 1, 50, 127
1, 396406, Note_on_c, 1, 77, 127
1, 396748, Note_off_c, 1, 50, 0
1, 396748, Note_off_c, 1, 77, 0
1, 397094, Note_on_c, 1, 53, 127
1, 397436, Note_off_c, 1, 53, 0
1, 397438, Note_on_c, 1, 62, 127
1, 397438, Note_on_c, 1, 55, 127
1, 398115, Note_off_c, 1, 67, 0
1, 398124, Note_off_c, 1, 62, 0
1, 398124, Note_off_c, 1, 55, 0
1, 398126, Note_on_c, 1, 76, 127
1, 398126, Note_on_c, 1, 64, 127
1, 398126, Note_on_c, 1, 67, 127
1, 398126, Note_on_c, 1, 71, 127
1, 398468, Note_off_c, 1, 76, 0
1, 398470, Note_on_c, 1, 78, 127
1, 398812, Note_off_c, 1, 64, 0
1, 398812, Note_off_c, 1, 78, 0
1, 398814, Note_on_c, 1, 52, 127
1, 398814, Note_on_c, 1, 79, 127
1, 399156, Note_off_c, 1, 52, 0
1, 399156, Note_off_c, 1, 79, 0
1, 399158, Note_on_c, 1, 54, 127
1, 399158, Note_on_c, 1, 81, 127
1, 399500, Note_off_c, 1, 54, 0
1, 399500, Note_off_c, 1, 81, 0
1, 399502, Note_on_c, 1, 55, 127
1, 399502, Note_on_c, 1, 83, 127
1, 399844, Note_off_c, 1, 55, 0
1, 399846, Note_on_c, 1, 57, 127
1, 400111, Note_off_c, 1, 83, 0
1, 400186, Note_off_c, 1, 67, 0
1, 400188, Note_off_c, 1, 57, 0
1, 400190, Note_on_c, 1, 66, 127
1, 400190, Note_on_c, 1, 59, 127
1, 400190, Note_on_c, 1, 75, 127
1, 400867, Note_off_c, 1, 71, 0
1, 400876, Note_off_c, 1, 66, 0
1, 400876, Note_off_c, 1, 59, 0
1, 400876, Note_off_c, 1, 75, 0
1, 400878, Note_on_c, 1, 74, 127
1, 400878, Note_on_c, 1, 67, 127
1, 400878, Note_on_c, 1, 71, 127
1, 400878, Note_on_c, 1, 55, 127
1, 401220, Note_off_c, 1, 74, 0
1, 401222, Note_on_c, 1, 73, 127
1, 401564, Note_off_c, 1, 67, 0
1, 401564, Note_off_c, 1, 73, 0
1, 401566, Note_on_c, 1, 65, 127
1, 401910, Note_on_c, 1, 76, 127
1, 402252, Note_off_c, 1, 71, 0
1, 402252, Note_off_c, 1, 65, 0
1, 402252, Note_off_c, 1, 76, 0
1, 402254, Note_on_c, 1, 69, 127
1, 402254, Note_on_c, 1, 64, 127
1, 402596, Note_off_c, 1, 69, 0
1, 402938, Note_off_c, 1, 55, 0
1, 402940, Note_off_c, 1, 64, 0
1, 402942, Note_on_c, 1, 65, 127
1, 402942, Note_on_c, 1, 56, 127
1, 402942, Note_on_c, 1, 74, 127
1, 402942, Note_on_c, 1, 71, 127
1, 403284, Note_off_c, 1, 65, 0
1, 403286, Note_on_c, 1, 64, 127
1, 403623, Note_off_c, 1, 56, 0
1, 403628, Note_off_c, 1, 74, 0
1, 403628, Note_off_c, 1, 71, 0
1, 403628, Note_off_c, 1, 64, 0
1, 403630, Note_on_c, 1, 65, 127
1, 403630, Note_on_c, 1, 69, 127
1, 403630, Note_on_c, 1, 57, 127
1, 403802, Note_on_c, 1, 73, 127
1, 403972, Note_off_c, 1, 65, 0
1, 403972, Note_off_c, 1, 73, 0
1, 403974, Note_on_c, 1, 74, 127
1, 403974, Note_on_c, 1, 62, 127
1, 404144, Note_off_c, 1, 74, 0
1, 404146, Note_on_c, 1, 76, 127
1, 404316, Note_off_c, 1, 62, 0
1, 404316, Note_off_c, 1, 76, 0
1, 404318, Note_on_c, 1, 77, 127
1, 404318, Note_on_c, 1, 61, 127
1, 404404, Note_off_c, 1, 77, 0
1, 404660, Note_off_c, 1, 69, 0
1, 404662, Note_on_c, 1, 67, 127
1, 405004, Note_off_c, 1, 57, 0
1, 405004, Note_off_c, 1, 61, 0
1, 405006, Note_on_c, 1, 50, 127
1, 405343, Note_off_c, 1, 67, 0
1, 405694, Note_on_c, 1, 66, 127
1, 405694, Note_on_c, 1, 38, 127
1, 406333, Note_off_c, 1, 50, 0
1, 406375, Note_off_c, 1, 66, 0
1, 406380, Note_off_c, 1, 38, 0
1, 406382, Note_on_c, 1, 50, 127
1, 406382, Note_on_c, 1, 77, 127
1, 406382, Note_on_c, 1, 62, 127
1, 406382, Note_on_c, 1, 69, 127
1, 406724, Note_off_c, 1, 50, 0
1, 406724, Note_off_c, 1, 77, 0
1, 406726, Note_on_c, 1, 52, 127
1, 406726, Note_on_c, 1, 79, 127
1, 407063, Note_off_c, 1, 62, 0
1, 407068, Note_off_c, 1, 52, 0
1, 407068, Note_off_c, 1, 79, 0
1, 407070, Note_on_c, 1, 54, 127
1, 407070, Note_on_c, 1, 60, 127
1, 407070, Note_on_c, 1, 81, 127
1, 407412, Note_off_c, 1, 69, 0
1, 407412, Note_off_c, 1, 54, 0
1, 407412, Note_off_c, 1, 60, 0
1, 407412, Note_off_c, 1, 81, 0
1, 407414, Note_on_c, 1, 58, 127
1, 407414, Note_on_c, 1, 55, 127
1, 407414, Note_on_c, 1, 67, 127
1, 407414, Note_on_c, 1, 74, 127
1, 407756, Note_off_c, 1, 58, 0
1, 407756, Note_off_c, 1, 55, 0
1, 407756, Note_off_c, 1, 67, 0
1, 407756, Note_off_c, 1, 74, 0
1, 407758, Note_on_c, 1, 57, 127
1, 407758, Note_on_c, 1, 73, 127
1, 407758, Note_on_c, 1, 64, 127
1, 408100, Note_off_c, 1, 57, 0
1, 408102, Note_on_c, 1, 59, 127
1, 408272, Note_off_c, 1, 73, 0
1, 408274, Note_on_c, 1, 71, 127
1, 408444, Note_off_c, 1, 59, 0
1, 408444, Note_off_c, 1, 71, 0
1, 408446, Note_on_c, 1, 61, 127
1, 408446, Note_on_c, 1, 45, 127
1, 408446, Note_on_c, 1, 69, 127
1, 409132, Note_off_c, 1, 64, 0
1, 409132, Note_off_c, 1, 61, 0
1, 409132, Note_off_c, 1, 45, 0
1, 409132, Note_off_c, 1, 69, 0
1, 409134, Note_on_c, 1, 45, 127
1, 409134, Note_on_c, 1, 72, 127
1, 409134, Note_on_c, 1, 57, 127
1, 409134, Note_on_c, 1, 64, 127
1, 409476, Note_off_c, 1, 45, 0
1, 409476, Note_off_c, 1, 72, 0
1, 409478, Note_on_c, 1, 47, 127
1, 409478, Note_on_c, 1, 74, 127
1, 409815, Note_off_c, 1, 57, 0
1, 409820, Note_off_c, 1, 47, 0
1, 409820, Note_off_c, 1, 74, 0
1, 409822, Note_on_c, 1, 55, 127
1, 409822, Note_on_c, 1, 49, 127
1, 409822, Note_on_c, 1, 76, 127
1, 410164, Note_off_c, 1, 64, 0
1, 410164, Note_off_c, 1, 55, 0
1, 410164, Note_off_c, 1, 49, 0
1, 410164, Note_off_c, 1, 76, 0
1, 410166, Note_on_c, 1, 50, 127
1, 410166, Note_on_c, 1, 53, 127
1, 410166, Note_on_c, 1, 69, 127
1, 410508, Note_off_c, 1, 50, 0
1, 410508, Note_off_c, 1, 53, 0
1, 410508, Note_off_c, 1, 69, 0
1, 410510, Note_on_c, 1, 52, 127
1, 410510, Note_on_c, 1, 68, 127
1, 410510, Note_on_c, 1, 59, 127
1, 410852, Note_off_c, 1, 52, 0
1, 410854, Note_on_c, 1, 54, 127
1, 411024, Note_off_c, 1, 68, 0
1, 411026, Note_on_c, 1, 66, 127
1, 411196, Note_off_c, 1, 54, 0
1, 411196, Note_off_c, 1, 66, 0
1, 411198, Note_on_c, 1, 56, 127
1, 411198, Note_on_c, 1, 40, 127
1, 411198, Note_on_c, 1, 64, 127
1, 411771, Note_off_c, 1, 56, 0
1, 411884, Note_off_c, 1, 59, 0
1, 411884, Note_off_c, 1, 40, 0
1, 411884, Note_off_c, 1, 64, 0
1, 411886, Note_on_c, 1, 70, 127
1, 411886, Note_on_c, 1, 53, 127
1, 411886, Note_on_c, 1, 65, 127
1, 411886, Note_on_c, 1, 50, 127
1, 412239, Note_off_c, 1, 70, 0
1, 412241, Note_on_c, 1, 72, 127
1, 412594, Note_off_c, 1, 53, 0
1, 412594, Note_off_c, 1, 72, 0
1, 412596, Note_on_c, 1, 74, 127
1, 412596, Note_on_c, 1, 58, 127
1, 412949, Note_off_c, 1, 74, 0
1, 413304, Note_off_c, 1, 65, 0
1, 413304, Note_off_c, 1, 58, 0
1, 413306, Note_on_c, 1, 64, 127
1, 413306, Note_on_c, 1, 68, 127
1, 413306, Note_on_c, 1, 59, 127
1, 413670, Note_off_c, 1, 64, 0
1, 414030, Note_off_c, 1, 68, 0
1, 414034, Note_off_c, 1, 50, 0
1, 414036, Note_off_c, 1, 59, 0
1, 414038, Note_on_c, 1, 60, 127
1, 414038, Note_on_c, 1, 51, 127
1, 414038, Note_on_c, 1, 66, 127
1, 414038, Note_on_c, 1, 69, 127
1, 414402, Note_off_c, 1, 60, 0
1, 414404, Note_on_c, 1, 59, 127
1, 414762, Note_off_c, 1, 51, 0
1, 414768, Note_off_c, 1, 66, 0
1, 414768, Note_off_c, 1, 59, 0
1, 414770, Note_on_c, 1, 52, 127
1, 414770, Note_on_c, 1, 64, 127
1, 414962, Note_off_c, 1, 69, 0
1, 414962, Note_on_c, 1, 71, 127
1, 415152, Note_off_c, 1, 71, 0
1, 415154, Note_on_c, 1, 72, 127
1, 415154, Note_on_c, 1, 57, 127
1, 415280, Note_off_c, 1, 72, 0
1, 415530, Note_off_c, 1, 52, 0
1, 415536, Note_off_c, 1, 57, 0
1, 415538, Note_on_c, 1, 40, 127
1, 415730, Note_on_c, 1, 68, 127
1, 415826, Note_off_c, 1, 68, 0
1, 415922, Note_on_c, 1, 61, 127
1, 416112, Note_off_c, 1, 61, 0
1, 416146, Note_on_c, 1, 62, 127
1, 416336, Note_off_c, 1, 62, 0
1, 416378, Note_off_c, 1, 40, 0
1, 416386, Note_on_c, 1, 45, 127
1, 417830, Note_off_c, 1, 64, 0
1, 417842, Note_off_c, 1, 45, 0
1, 417938, Note_on_c, 1, 69, 127
1, 417938, Note_on_c, 1, 60, 127
1, 417938, Note_on_c, 1, 64, 127
1, 417938, Note_on_c, 1, 57, 127
1, 418338, Note_off_c, 1, 69, 0
1, 418340, Note_off_c, 1, 60, 0
1, 418342, Note_on_c, 1, 68, 127
1, 418342, Note_on_c, 1, 59, 127
1, 418738, Note_off_c, 1, 64, 0
1, 418738, Note_off_c, 1, 57, 0
1, 418744, Note_off_c, 1, 68, 0
1, 418744, Note_off_c, 1, 59, 0
1, 418746, Note_on_c, 1, 69, 127
1, 418746, Note_on_c, 1, 60, 127
1, 418746, Note_on_c, 1, 64, 127
1, 418746, Note_on_c, 1, 45, 127
1, 419146, Note_off_c, 1, 69, 0
1, 419148, Note_off_c, 1, 60, 0
1, 419150, Note_on_c, 1, 71, 127
1, 419150, Note_on_c, 1, 62, 127
1, 419546, Note_off_c, 1, 64, 0
1, 419546, Note_off_c, 1, 45, 0
1, 419550, Note_off_c, 1, 71, 0
1, 419550, Note_off_c, 1, 62, 0
1, 419554, Note_on_c, 1, 69, 127
1, 419554, Note_on_c, 1, 64, 127
1, 419554, Note_on_c, 1, 59, 127
1, 419554, Note_on_c, 1, 52, 127
1, 419954, Note_off_c, 1, 69, 0
1, 419958, Note_on_c, 1, 68, 127
1, 420158, Note_off_c, 1, 68, 0
1, 420160, Note_on_c, 1, 66, 127
1, 420354, Note_off_c, 1, 64, 0
1, 420360, Note_off_c, 1, 59, 0
1, 420360, Note_off_c, 1, 66, 0
1, 420362, Note_on_c, 1, 56, 127
1, 420764, Note_off_c, 1, 52, 0
1, 420766, Note_on_c, 1, 50, 127
1, 421140, Note_off_c, 1, 56, 0
1, 421167, Note_off_c, 1, 50, 0
1, 421169, Note_on_c, 1, 64, 127
1, 421169, Note_on_c, 1, 69, 127
1, 421169, Note_on_c, 1, 57, 127
1, 421169, Note_on_c, 1, 48, 127
1, 421975, Note_off_c, 1, 64, 0
1, 421975, Note_off_c, 1, 69, 0
1, 421975, Note_off_c, 1, 57, 0
1, 421975, Note_off_c, 1, 48, 0
1, 421977, Note_on_c, 1, 69, 127
1, 421977, Note_on_c, 1, 62, 127
1, 421977, Note_on_c, 1, 52, 127
1, 421977, Note_on_c, 1, 44, 127
1, 422377, Note_off_c, 1, 69, 0
1, 422381, Note_on_c, 1, 71, 127
1, 422777, Note_off_c, 1, 62, 0
1, 422781, Note_off_c, 1, 71, 0
1, 422783, Note_off_c, 1, 52, 0
1, 422783, Note_off_c, 1, 44, 0
1, 422785, Note_on_c, 1, 74, 127
1, 422785, Note_on_c, 1, 60, 127
1, 422785, Note_on_c, 1, 52, 127
1, 422785, Note_on_c, 1, 57, 127
1, 422785, Note_on_c, 1, 45, 127
1, 422985, Note_off_c, 1, 74, 0
1, 422987, Note_on_c, 1, 72, 127
1, 423187, Note_off_c, 1, 72, 0
1, 423189, Note_on_c, 1, 71, 127
1, 423458, Note_off_c, 1, 71, 0
1, 423458, Note_on_c, 1, 69, 127
1, 423584, Note_off_c, 1, 60, 0
1, 423588, Note_off_c, 1, 69, 0
1, 423590, Note_off_c, 1, 52, 0
1, 423590, Note_off_c, 1, 57, 0
1, 423590, Note_off_c, 1, 45, 0
1, 423592, Note_on_c, 1, 57, 127
1, 423592, Note_on_c, 1, 69, 127
1, 423592, Note_on_c, 1, 64, 127
1, 423592, Note_on_c, 1, 60, 127
1, 423994, Note_off_c, 1, 57, 0
1, 423996, Note_on_c, 1, 59, 127
1, 424265, Note_off_c, 1, 69, 0
1, 424265, Note_off_c, 1, 64, 0
1, 424391, Note_off_c, 1, 60, 0
1, 424397, Note_off_c, 1, 59, 0
1, 424399, Note_on_c, 1, 78, 127
1, 424399, Note_on_c, 1, 63, 127
1, 424399, Note_on_c, 1, 60, 127
1, 424399, Note_on_c, 1, 69, 127
1, 424988, Note_off_c, 1, 78, 0
1, 425005, Note_on_c, 1, 79, 127
1, 425205, Note_off_c, 1, 63, 0
1, 425205, Note_off_c, 1, 79, 0
1, 425207, Note_on_c, 1, 64, 127
1, 425609, Note_off_c, 1, 60, 0
1, 425611, Note_on_c, 1, 59, 127
1, 425811, Note_off_c, 1, 59, 0
1, 425813, Note_on_c, 1, 81, 127
1, 425813, Note_on_c, 1, 57, 127
1, 426007, Note_off_c, 1, 64, 0
1, 426013, Note_off_c, 1, 69, 0
1, 426013, Note_off_c, 1, 81, 0
1, 426013, Note_off_c, 1, 57, 0
1, 426015, Note_on_c, 1, 78, 127
1, 426015, Note_on_c, 1, 66, 127
1, 426015, Note_on_c, 1, 59, 127
1, 426236, Note_off_c, 1, 78, 0
1, 426238, Note_on_c, 1, 76, 127
1, 426417, Note_off_c, 1, 76, 0
1, 426419, Note_on_c, 1, 75, 127
1, 426419, Note_on_c, 1, 57, 127
1, 426619, Note_off_c, 1, 75, 0
1, 426621, Note_on_c, 1, 71, 127
1, 426815, Note_off_c, 1, 66, 0
1, 426821, Note_off_c, 1, 57, 0
1, 426821, Note_off_c, 1, 71, 0
1, 426823, Note_on_c, 1, 55, 127
1, 426823, Note_on_c, 1, 64, 127
1, 427225, Note_off_c, 1, 55, 0
1, 427429, Note_on_c, 1, 67, 127
1, 427629, Note_off_c, 1, 59, 0
1, 427629, Note_off_c, 1, 67, 0
1, 428437, Note_off_c, 1, 64, 0
1, 428439, Note_on_c, 1, 63, 127
1, 428439, Note_on_c, 1, 54, 127
1, 428439, Note_on_c, 1, 47, 127
1, 428841, Note_off_c, 1, 63, 0
1, 428841, Note_off_c, 1, 54, 0
1, 428843, Note_on_c, 1, 56, 127
1, 429043, Note_off_c, 1, 56, 0
1, 429239, Note_off_c, 1, 47, 0
1, 429247, Note_on_c, 1, 52, 127
1, 430047, Note_off_c, 1, 52, 0
1, 430055, Note_on_c, 1, 59, 127
1, 430055, Note_on_c, 1, 56, 127
1, 430055, Note_on_c, 1, 40, 127
1, 430771, Note_off_c, 1, 59, 0
1, 430813, Note_off_c, 1, 56, 0
1, 430813, Note_off_c, 1, 40, 0
1, 430864, Note_on_c, 1, 71, 127
1, 430864, Note_on_c, 1, 64, 127
1, 430864, Note_on_c, 1, 55, 127
1, 430864, Note_on_c, 1, 48, 127
1, 431064, Note_off_c, 1, 71, 0
1, 431066, Note_on_c, 1, 72, 127
1, 431264, Note_off_c, 1, 64, 0
1, 431266, Note_off_c, 1, 72, 0
1, 431268, Note_on_c, 1, 62, 127
1, 431564, Note_off_c, 1, 55, 0
1, 431668, Note_off_c, 1, 62, 0
1, 431672, Note_on_c, 1, 36, 127
1, 432076, Note_on_c, 1, 65, 127
1, 432278, Note_on_c, 1, 74, 127
1, 432464, Note_off_c, 1, 48, 0
1, 432476, Note_off_c, 1, 65, 0
1, 432478, Note_off_c, 1, 36, 0
1, 432478, Note_off_c, 1, 74, 0
1, 432480, Note_on_c, 1, 72, 127
1, 432480, Note_on_c, 1, 55, 127
1, 432480, Note_on_c, 1, 62, 127
1, 432680, Note_off_c, 1, 72, 0
1, 432682, Note_on_c, 1, 71, 127
1, 432884, Note_on_c, 1, 57, 127
1, 433082, Note_off_c, 1, 71, 0
1, 433086, Note_on_c, 1, 69, 127
1, 433286, Note_off_c, 1, 57, 0
1, 433286, Note_off_c, 1, 69, 0
1, 433288, Note_on_c, 1, 59, 127
1, 433288, Note_on_c, 1, 67, 127
1, 433690, Note_off_c, 1, 55, 0
1, 433692, Note_on_c, 1, 54, 127
1, 434088, Note_off_c, 1, 59, 0
1, 434094, Note_off_c, 1, 62, 0
1, 434094, Note_off_c, 1, 67, 0
1, 434094, Note_off_c, 1, 54, 0
1, 434096, Note_on_c, 1, 75, 127
1, 434096, Note_on_c, 1, 67, 127
1, 434096, Note_on_c, 1, 59, 127
1, 434096, Note_on_c, 1, 52, 127
1, 434296, Note_off_c, 1, 75, 0
1, 434298, Note_on_c, 1, 76, 127
1, 434496, Note_off_c, 1, 67, 0
1, 434498, Note_off_c, 1, 76, 0
1, 434500, Note_on_c, 1, 66, 127
1, 434796, Note_off_c, 1, 59, 0
1, 434900, Note_off_c, 1, 66, 0
1, 434904, Note_on_c, 1, 40, 127
1, 435308, Note_on_c, 1, 69, 127
1, 435510, Note_on_c, 1, 78, 127
1, 435696, Note_off_c, 1, 52, 0
1, 435708, Note_off_c, 1, 69, 0
1, 435710, Note_off_c, 1, 40, 0
1, 435710, Note_off_c, 1, 78, 0
1, 435712, Note_on_c, 1, 76, 127
1, 435712, Note_on_c, 1, 59, 127
1, 435712, Note_on_c, 1, 66, 127
1, 435914, Note_off_c, 1, 76, 0
1, 435914, Note_on_c, 1, 75, 127
1, 436116, Note_on_c, 1, 61, 127
1, 436314, Note_off_c, 1, 75, 0
1, 436318, Note_on_c, 1, 73, 127
1, 436518, Note_off_c, 1, 61, 0
1, 436518, Note_off_c, 1, 73, 0
1, 436520, Note_on_c, 1, 71, 127
1, 436520, Note_on_c, 1, 63, 127
1, 436922, Note_off_c, 1, 59, 0
1, 436924, Note_on_c, 1, 57, 127
1, 437193, Note_off_c, 1, 71, 0
1, 437269, Note_off_c, 1, 66, 0
1, 437320, Note_off_c, 1, 63, 0
1, 437326, Note_off_c, 1, 57, 0
1, 437328, Note_on_c, 1, 74, 127
1, 437328, Note_on_c, 1, 56, 127
1, 437328, Note_on_c, 1, 64, 127
1, 437328, Note_on_c, 1, 59, 127
1, 437728, Note_off_c, 1, 74, 0
1, 437732, Note_on_c, 1, 73, 127
1, 438134, Note_off_c, 1, 56, 0
1, 438134, Note_off_c, 1, 73, 0
1, 438136, Note_on_c, 1, 68, 127
1, 438136, Note_on_c, 1, 52, 127
1, 438540, Note_on_c, 1, 76, 127
1, 438936, Note_off_c, 1, 68, 0
1, 438942, Note_off_c, 1, 64, 0
1, 438942, Note_off_c, 1, 59, 0
1, 438942, Note_off_c, 1, 52, 0
1, 438942, Note_off_c, 1, 76, 0
1, 438944, Note_on_c, 1, 57, 127
1, 438944, Note_on_c, 1, 73, 127
1, 438944, Note_on_c, 1, 64, 127
1, 438944, Note_on_c, 1, 69, 127
1, 439346, Note_off_c, 1, 57, 0
1, 439348, Note_on_c, 1, 55, 127
1, 439750, Note_off_c, 1, 73, 0
1, 439750, Note_off_c, 1, 64, 0
1, 439750, Note_off_c, 1, 69, 0
1, 439750, Note_off_c, 1, 55, 0
1, 439752, Note_on_c, 1, 53, 127
1, 439752, Note_on_c, 1, 74, 127
1, 439752, Note_on_c, 1, 62, 127
1, 440154, Note_off_c, 1, 53, 0
1, 440156, Note_on_c, 1, 50, 127
1, 440341, Note_off_c, 1, 74, 0
1, 440358, Note_on_c, 1, 65, 127
1, 440558, Note_off_c, 1, 50, 0
1, 440558, Note_off_c, 1, 65, 0
1, 440560, Note_on_c, 1, 43, 127
1, 440560, Note_on_c, 1, 58, 127
1, 440762, Note_on_c, 1, 64, 127
1, 440829, Note_off_c, 1, 64, 0
1, 440961, Note_off_c, 1, 43, 0
1, 440961, Note_off_c, 1, 58, 0
1, 440963, Note_on_c, 1, 57, 127
1, 440963, Note_on_c, 1, 46, 127
1, 441163, Note_off_c, 1, 57, 0
1, 441165, Note_on_c, 1, 55, 127
1, 441350, Note_off_c, 1, 62, 0
1, 441363, Note_off_c, 1, 46, 0
1, 441365, Note_off_c, 1, 55, 0
1, 441367, Note_on_c, 1, 61, 127
1, 441367, Note_on_c, 1, 45, 127
1, 441771, Note_on_c, 1, 52, 127
1, 441971, Note_off_c, 1, 52, 0
1, 442166, Note_off_c, 1, 61, 0
1, 442166, Note_off_c, 1, 45, 0
1, 442578, Note_on_c, 1, 54, 127
1, 442778, Note_off_c, 1, 54, 0
1, 442982, Note_on_c, 1, 38, 127
1, 443788, Note_off_c, 1, 38, 0
1, 443806, Note_on_c, 1, 77, 127
1, 443806, Note_on_c, 1, 62, 127
1, 443806, Note_on_c, 1, 50, 127
1, 443806, Note_on_c, 1, 57, 127
1, 443806, Note_on_c, 1, 69, 127
1, 444206, Note_off_c, 1, 77, 0
1, 444210, Note_on_c, 1, 79, 127
1, 444606, Note_off_c, 1, 62, 0
1, 444612, Note_off_c, 1, 50, 0
1, 444612, Note_off_c, 1, 79, 0
1, 444614, Note_on_c, 1, 81, 127
1, 444614, Note_on_c, 1, 48, 127
1, 445014, Note_off_c, 1, 81, 0
1, 445016, Note_off_c, 1, 57, 0
1, 445016, Note_off_c, 1, 69, 0
1, 445016, Note_off_c, 1, 48, 0
1, 445018, Note_on_c, 1, 46, 127
1, 445018, Note_on_c, 1, 62, 127
1, 445018, Note_on_c, 1, 67, 127
1, 445018, Note_on_c, 1, 74, 127
1, 445420, Note_off_c, 1, 46, 0
1, 445420, Note_off_c, 1, 62, 0
1, 445420, Note_off_c, 1, 67, 0
1, 445420, Note_off_c, 1, 74, 0
1, 445422, Note_on_c, 1, 64, 127
1, 445422, Note_on_c, 1, 73, 127
1, 445422, Note_on_c, 1, 69, 127
1, 445422, Note_on_c, 1, 45, 127
1, 445824, Note_off_c, 1, 64, 0
1, 445826, Note_on_c, 1, 62, 127
1, 446011, Note_off_c, 1, 73, 0
1, 446028, Note_on_c, 1, 71, 127
1, 446222, Note_off_c, 1, 69, 0
1, 446228, Note_off_c, 1, 62, 0
1, 446228, Note_off_c, 1, 71, 0
1, 446230, Note_on_c, 1, 61, 127
1, 447036, Note_off_c, 1, 45, 0
1, 447036, Note_off_c, 1, 61, 0
1, 447038, Note_on_c, 1, 72, 127
1, 447038, Note_on_c, 1, 69, 127
1, 447038, Note_on_c, 1, 57, 127
1, 447038, Note_on_c, 1, 64, 127
1, 447438, Note_off_c, 1, 72, 0
1, 447442, Note_on_c, 1, 74, 127
1, 447838, Note_off_c, 1, 69, 0
1, 447844, Note_off_c, 1, 57, 0
1, 447844, Note_off_c, 1, 74, 0
1, 447846, Note_on_c, 1, 76, 127
1, 447846, Note_on_c, 1, 55, 127
1, 447846, Note_on_c, 1, 59, 127
1, 448246, Note_off_c, 1, 76, 0
1, 448248, Note_off_c, 1, 64, 0
1, 448248, Note_off_c, 1, 55, 0
1, 448248, Note_off_c, 1, 59, 0
1, 448250, Note_on_c, 1, 53, 127
1, 448250, Note_on_c, 1, 62, 127
1, 448250, Note_on_c, 1, 69, 127
1, 448652, Note_off_c, 1, 53, 0
1, 448652, Note_off_c, 1, 62, 0
1, 448652, Note_off_c, 1, 69, 0
1, 448654, Note_on_c, 1, 59, 127
1, 448654, Note_on_c, 1, 68, 127
1, 448654, Note_on_c, 1, 64, 127
1, 448654, Note_on_c, 1, 52, 127
1, 449056, Note_off_c, 1, 59, 0
1, 449058, Note_on_c, 1, 57, 127
1, 449243, Note_off_c, 1, 68, 0
1, 449260, Note_on_c, 1, 66, 127
1, 449454, Note_off_c, 1, 64, 0
1, 449460, Note_off_c, 1, 57, 0
1, 449460, Note_off_c, 1, 66, 0
1, 449462, Note_on_c, 1, 56, 127
1, 450240, Note_off_c, 1, 56, 0
1, 450267, Note_off_c, 1, 52, 0
1, 450269, Note_on_c, 1, 74, 127
1, 450269, Note_on_c, 1, 62, 127
1, 450269, Note_on_c, 1, 59, 127
1, 450269, Note_on_c, 1, 50, 127
1, 450473, Note_off_c, 1, 74, 0
1, 450475, Note_on_c, 1, 76, 127
1, 450679, Note_off_c, 1, 76, 0
1, 450681, Note_on_c, 1, 77, 127
1, 451090, Note_off_c, 1, 77, 0
1, 451504, Note_on_c, 1, 71, 127
1, 451913, Note_off_c, 1, 62, 0
1, 451913, Note_off_c, 1, 71, 0
1, 451915, Note_on_c, 1, 69, 127
1, 451915, Note_on_c, 1, 64, 127
1, 452122, Note_off_c, 1, 69, 0
1, 452124, Note_on_c, 1, 68, 127
1, 452329, Note_off_c, 1, 64, 0
1, 452538, Note_off_c, 1, 68, 0
1, 452750, Note_off_c, 1, 59, 0
1, 452750, Note_off_c, 1, 50, 0
1, 452752, Note_on_c, 1, 68, 127
1, 452752, Note_on_c, 1, 54, 127
1, 452752, Note_on_c, 1, 51, 127
1, 452959, Note_off_c, 1, 68, 0
1, 452961, Note_on_c, 1, 69, 127
1, 453170, Note_on_c, 1, 60, 127
1, 453587, Note_off_c, 1, 54, 0
1, 453587, Note_off_c, 1, 51, 0
1, 453587, Note_off_c, 1, 60, 0
1, 453589, Note_on_c, 1, 52, 127
1, 453589, Note_on_c, 1, 59, 127
1, 454227, Note_off_c, 1, 69, 0
1, 454229, Note_on_c, 1, 71, 127
1, 454333, Note_off_c, 1, 71, 0
1, 454335, Note_on_c, 1, 72, 127
1, 454439, Note_off_c, 1, 52, 0
1, 454439, Note_off_c, 1, 72, 0
1, 454441, Note_on_c, 1, 40, 127
1, 454441, Note_on_c, 1, 62, 127
1, 455295, Note_off_c, 1, 59, 0
1, 455295, Note_off_c, 1, 40, 0
1, 455297, Note_on_c, 1, 45, 127
1, 455297, Note_on_c, 1, 64, 127
1, 456446, Note_off_c, 1, 62, 0
1, 456449, Note_on_c, 1, 61, 127
1, 458089, Note_off_c, 1, 61, 0
1, 458098, Note_off_c, 1, 45, 0
1, 458098, Note_off_c, 1, 64, 0
1, 458098, End_track
0, 0, End_of_file