0, 0, Header, 1, 1, 480
1, 0, Start_track
1, 0, Title_t, "Test"
1, 0, Tempo, 500000
1, 0, Instrument_name_t, "Church Organ"
1, 0, Note_on_c, 1, 84, 127
1, 0, Note_on_c, 1, 36, 127
1, 64, Note_on_c, 1, 79, 127
1, 92, Note_off_c, 1, 84, 0
1, 128, Note_on_c, 1, 75, 127
1, 156, Note_off_c, 1, 79, 0
1, 188, Note_off_c, 1, 36, 0
1, 192, Note_on_c, 1, 72, 127
1, 192, Note_on_c, 1, 48, 127
1, 220, Note_off_c, 1, 75, 0
1, 252, Note_on_c, 1, 67, 127
1, 284, Note_off_c, 1, 72, 0
1, 316, Note_on_c, 1, 63, 127
1, 344, Note_off_c, 1, 67, 0
1, 380, Note_off_c, 1, 48, 0
1, 384, Note_on_c, 1, 60, 127
1, 408, Note_off_c, 1, 63, 0
1, 448, Note_on_c, 1, 55, 127
1, 512, Note_off_c, 1, 60, 0
1, 512, Note_off_c, 1, 55, 0
1, 512, Note_on_c, 1, 53, 127
1, 576, Note_off_c, 1, 53, 0
1, 576, Note_on_c, 1, 51, 127
1, 636, Note_on_c, 1, 50, 127
1, 640, Note_off_c, 1, 51, 0
1, 700, Note_off_c, 1, 50, 0
1, 768, Note_on_c, 1, 84, 127
1, 768, Note_on_c, 1, 75, 127
1, 768, Note_on_c, 1, 79, 127
1, 768, Note_on_c, 1, 55, 127
1, 804, Note_on_c, 1, 54, 127
1, 816, Note_off_c, 1, 55, 0
1, 852, Note_off_c, 1, 54, 0
1, 956, Note_off_c, 1, 84, 0
1, 956, Note_off_c, 1, 75, 0
1, 960, Note_on_c, 1, 74, 127
1, 960, Note_on_c, 1, 83, 127
1, 960, Note_on_c, 1, 43, 127
1, 1088, Note_off_c, 1, 74, 0
1, 1088, Note_off_c, 1, 83, 0
1, 1088, Note_off_c, 1, 43, 0
1, 1128, Note_off_c, 1, 79, 0
1, 1136, Note_on_c, 1, 79, 127
1, 1188, Note_on_c, 1, 77, 127
1, 1208, Note_off_c, 1, 79, 0
1, 1224, Note_off_c, 1, 77, 0
1, 1420, Note_on_c, 1, 76, 127
1, 1468, Note_off_c, 1, 76, 0
1, 1536, Note_on_c, 1, 82, 127
1, 1536, Note_on_c, 1, 40, 127
1, 1600, Note_on_c, 1, 79, 127
1, 1628, Note_off_c, 1, 82, 0
1, 1664, Note_on_c, 1, 76, 127
1, 1692, Note_off_c, 1, 79, 0
1, 1724, Note_off_c, 1, 40, 0
1, 1728, Note_on_c, 1, 72, 127
1, 1728, Note_on_c, 1, 52, 127
1, 1756, Note_off_c, 1, 76, 0
1, 1788, Note_on_c, 1, 67, 127
1, 1820, Note_off_c, 1, 72, 0
1, 1852, Note_on_c, 1, 64, 127
1, 1880, Note_off_c, 1, 67, 0
1, 1916, Note_off_c, 1, 52, 0
1, 1920, Note_on_c, 1, 60, 127
1, 1944, Note_off_c, 1, 64, 0
1, 1984, Note_on_c, 1, 55, 127
1, 2048, Note_off_c, 1, 60, 0
1, 2048, Note_off_c, 1, 55, 0
1, 2048, Note_on_c, 1, 53, 127
1, 2112, Note_off_c, 1, 53, 0
1, 2172, Note_on_c, 1, 50, 127
1, 2236, Note_off_c, 1, 50, 0
1, 2236, Note_on_c, 1, 48, 127
1, 2300, Note_off_c, 1, 48, 0
1, 2304, Note_on_c, 1, 79, 127
1, 2304, Note_on_c, 1, 82, 127
1, 2304, Note_on_c, 1, 72, 127
1, 2304, Note_on_c, 1, 53, 127
1, 2340, Note_on_c, 1, 52, 127
1, 2352, Note_off_c, 1, 53, 0
1, 2388, Note_off_c, 1, 52, 0
1, 2492, Note_off_c, 1, 79, 0
1, 2492, Note_off_c, 1, 82, 0
1, 2496, Note_on_c, 1, 77, 127
1, 2496, Note_on_c, 1, 81, 127
1, 2496, Note_on_c, 1, 41, 127
1, 2624, Note_off_c, 1, 77, 0
1, 2624, Note_off_c, 1, 81, 0
1, 2624, Note_off_c, 1, 41, 0
1, 2664, Note_off_c, 1, 72, 0
1, 2672, Note_on_c, 1, 74, 127
1, 2724, Note_on_c, 1, 72, 127
1, 2744, Note_off_c, 1, 74, 0
1, 2760, Note_off_c, 1, 72, 0
1, 2956, Note_on_c, 1, 71, 127
1, 3004, Note_off_c, 1, 71, 0
1, 3072, Note_on_c, 1, 80, 127
1, 3072, Note_on_c, 1, 38, 127
1, 3136, Note_on_c, 1, 77, 127
1, 3152, Note_off_c, 1, 80, 0
1, 3200, Note_on_c, 1, 74, 127
1, 3216, Note_off_c, 1, 77, 0
1, 3260, Note_off_c, 1, 38, 0
1, 3264, Note_on_c, 1, 71, 127
1, 3264, Note_on_c, 1, 50, 127
1, 3280, Note_off_c, 1, 74, 0
1, 3324, Note_on_c, 1, 65, 127
1, 3344, Note_off_c, 1, 71, 0
1, 3388, Note_on_c, 1, 62, 127
1, 3404, Note_off_c, 1, 65, 0
1, 3452, Note_off_c, 1, 50, 0
1, 3456, Note_on_c, 1, 59, 127
1, 3468, Note_off_c, 1, 62, 0
1, 3520, Note_on_c, 1, 53, 127
1, 3584, Note_off_c, 1, 59, 0
1, 3584, Note_on_c, 1, 51, 127
1, 3600, Note_off_c, 1, 53, 0
1, 3664, Note_off_c, 1, 51, 0
1, 3708, Note_on_c, 1, 48, 127
1, 3772, Note_on_c, 1, 47, 127
1, 3788, Note_off_c, 1, 48, 0
1, 3852, Note_off_c, 1, 47, 0
1, 3904, Note_on_c, 1, 43, 127
1, 3968, Note_on_c, 1, 45, 127
1, 3984, Note_off_c, 1, 43, 0
1, 4032, Note_on_c, 1, 72, 127
1, 4032, Note_on_c, 1, 79, 127
1, 4032, Note_on_c, 1, 75, 127
1, 4048, Note_off_c, 1, 45, 0
1, 4176, Note_off_c, 1, 72, 0
1, 4176, Note_off_c, 1, 79, 0
1, 4176, Note_off_c, 1, 75, 0
1, 4540, Note_on_c, 1, 55, 127
1, 4608, Note_on_c, 1, 56, 127
1, 4620, Note_off_c, 1, 55, 0
1, 4796, Note_off_c, 1, 56, 0
1, 5184, Note_on_c, 1, 54, 127
1, 5372, Note_off_c, 1, 54, 0
1, 5628, Note_on_c, 1, 69, 127
1, 5692, Note_on_c, 1, 67, 127
1, 5708, Note_off_c, 1, 69, 0
1, 5772, Note_off_c, 1, 67, 0
1, 5824, Note_on_c, 1, 68, 127
1, 5904, Note_off_c, 1, 68, 0
1, 6012, Note_on_c, 1, 63, 127
1, 6092, Note_off_c, 1, 63, 0
1, 6144, Note_on_c, 1, 36, 127
1, 6208, Note_on_c, 1, 39, 127
1, 6224, Note_off_c, 1, 36, 0
1, 6288, Note_off_c, 1, 39, 0
1, 6336, Note_on_c, 1, 60, 127
1, 6464, Note_off_c, 1, 60, 0
1, 6720, Note_on_c, 1, 76, 127
1, 6800, Note_off_c, 1, 76, 0
1, 6844, Note_on_c, 1, 78, 127
1, 6924, Note_off_c, 1, 78, 0
1, 7040, Note_on_c, 1, 81, 127
1, 7092, Note_off_c, 1, 81, 0
1, 7296, Note_on_c, 1, 72, 127
1, 7360, Note_on_c, 1, 71, 127
1, 7388, Note_off_c, 1, 72, 0
1, 7424, Note_on_c, 1, 74, 127
1, 7440, Note_off_c, 1, 71, 0
1, 7476, Note_off_c, 1, 74, 0
1, 7488, Note_on_c, 1, 68, 127
1, 7548, Note_on_c, 1, 67, 127
1, 7580, Note_off_c, 1, 68, 0
1, 7612, Note_on_c, 1, 77, 127
1, 7628, Note_off_c, 1, 67, 0
1, 7664, Note_off_c, 1, 77, 0
1, 7680, Note_on_c, 1, 76, 127
1, 7680, Note_on_c, 1, 36, 127
1, 7744, Note_on_c, 1, 73, 127
1, 7744, Note_on_c, 1, 40, 127
1, 7756, Note_off_c, 1, 76, 0
1, 7760, Note_off_c, 1, 36, 0
1, 7808, Note_on_c, 1, 70, 127
1, 7808, Note_on_c, 1, 43, 127
1, 7820, Note_off_c, 1, 73, 0
1, 7824, Note_off_c, 1, 40, 0
1, 7872, Note_on_c, 1, 67, 127
1, 7872, Note_on_c, 1, 48, 127
1, 7884, Note_off_c, 1, 70, 0
1, 7888, Note_off_c, 1, 43, 0
1, 7932, Note_on_c, 1, 52, 127
1, 7952, Note_off_c, 1, 48, 0
1, 7996, Note_on_c, 1, 55, 127
1, 8012, Note_off_c, 1, 52, 0
1, 8048, Note_off_c, 1, 67, 0
1, 8064, Note_on_c, 1, 58, 127
1, 8076, Note_off_c, 1, 55, 0
1, 8128, Note_on_c, 1, 72, 127
1, 8208, Note_off_c, 1, 72, 0
1, 8252, Note_off_c, 1, 58, 0
1, 8256, Note_on_c, 1, 74, 127
1, 8256, Note_on_c, 1, 46, 127
1, 8316, Note_on_c, 1, 75, 127
1, 8336, Note_off_c, 1, 74, 0
1, 8384, Note_off_c, 1, 46, 0
1, 8396, Note_off_c, 1, 75, 0
1, 8448, Note_on_c, 1, 77, 127
1, 8540, Note_off_c, 1, 77, 0
1, 8576, Note_on_c, 1, 79, 127
1, 8628, Note_off_c, 1, 79, 0
1, 8640, Note_on_c, 1, 45, 127
1, 8768, Note_off_c, 1, 45, 0
1, 8832, Note_on_c, 1, 70, 127
1, 8896, Note_on_c, 1, 69, 127
1, 8924, Note_off_c, 1, 70, 0
1, 8960, Note_on_c, 1, 72, 127
1, 8976, Note_off_c, 1, 69, 0
1, 9012, Note_off_c, 1, 72, 0
1, 9024, Note_on_c, 1, 66, 127
1, 9084, Note_on_c, 1, 65, 127
1, 9116, Note_off_c, 1, 66, 0
1, 9148, Note_on_c, 1, 75, 127
1, 9164, Note_off_c, 1, 65, 0
1, 9200, Note_off_c, 1, 75, 0
1, 9216, Note_on_c, 1, 74, 127
1, 9216, Note_on_c, 1, 44, 127
1, 9280, Note_on_c, 1, 71, 127
1, 9280, Note_on_c, 1, 47, 127
1, 9308, Note_off_c, 1, 74, 0
1, 9308, Note_off_c, 1, 44, 0
1, 9344, Note_on_c, 1, 68, 127
1, 9344, Note_on_c, 1, 50, 127
1, 9372, Note_off_c, 1, 71, 0
1, 9372, Note_off_c, 1, 47, 0
1, 9408, Note_on_c, 1, 65, 127
1, 9408, Note_on_c, 1, 53, 127
1, 9436, Note_off_c, 1, 68, 0
1, 9436, Note_off_c, 1, 50, 0
1, 9468, Note_on_c, 1, 56, 127
1, 9500, Note_off_c, 1, 53, 0
1, 9532, Note_on_c, 1, 59, 127
1, 9560, Note_off_c, 1, 56, 0
1, 9596, Note_off_c, 1, 65, 0
1, 9600, Note_on_c, 1, 62, 127
1, 9624, Note_off_c, 1, 59, 0
1, 9664, Note_on_c, 1, 77, 127
1, 9728, Note_off_c, 1, 62, 0
1, 9728, Note_on_c, 1, 75, 127
1, 9756, Note_off_c, 1, 77, 0
1, 9820, Note_off_c, 1, 75, 0
1, 9852, Note_on_c, 1, 72, 127
1, 9944, Note_off_c, 1, 72, 0
1, 9984, Note_on_c, 1, 71, 127
1, 9984, Note_on_c, 1, 43, 127
1, 10048, Note_on_c, 1, 72, 127
1, 10048, Note_on_c, 1, 48, 127
1, 10076, Note_off_c, 1, 71, 0
1, 10076, Note_off_c, 1, 43, 0
1, 10112, Note_on_c, 1, 67, 127
1, 10112, Note_on_c, 1, 51, 127
1, 10140, Note_off_c, 1, 72, 0
1, 10140, Note_off_c, 1, 48, 0
1, 10176, Note_on_c, 1, 63, 127
1, 10176, Note_on_c, 1, 55, 127
1, 10204, Note_off_c, 1, 67, 0
1, 10204, Note_off_c, 1, 51, 0
1, 10236, Note_on_c, 1, 59, 127
1, 10268, Note_off_c, 1, 55, 0
1, 10300, Note_on_c, 1, 60, 127
1, 10328, Note_off_c, 1, 59, 0
1, 10364, Note_off_c, 1, 63, 0
1, 10392, Note_off_c, 1, 60, 0
1, 10432, Note_on_c, 1, 75, 127
1, 10496, Note_on_c, 1, 74, 127
1, 10524, Note_off_c, 1, 75, 0
1, 10588, Note_off_c, 1, 74, 0
1, 10752, Note_on_c, 1, 65, 127
1, 10752, Note_on_c, 1, 42, 127
1, 10816, Note_off_c, 1, 65, 0
1, 10844, Note_off_c, 1, 42, 0
1, 10848, Note_on_c, 1, 54, 127
1, 10940, Note_off_c, 1, 54, 0
1, 11424, Note_on_c, 1, 62, 127
1, 11460, Note_off_c, 1, 62, 0
1, 11520, Note_on_c, 1, 60, 127
1, 11520, Note_on_c, 1, 63, 127
1, 11520, Note_on_c, 1, 55, 127
1, 11708, Note_off_c, 1, 60, 0
1, 11708, Note_off_c, 1, 63, 0
1, 11712, Note_on_c, 1, 62, 127
1, 11712, Note_on_c, 1, 59, 127
1, 11752, Note_off_c, 1, 55, 0
1, 11836, Note_on_c, 1, 54, 127
1, 11900, Note_off_c, 1, 62, 0
1, 11900, Note_off_c, 1, 59, 0
1, 11908, Note_off_c, 1, 54, 0
1, 11968, Note_on_c, 1, 50, 127
1, 12032, Note_on_c, 1, 47, 127
1, 12040, Note_off_c, 1, 50, 0
1, 12096, Note_on_c, 1, 43, 127
1, 12104, Note_off_c, 1, 47, 0
1, 12168, Note_off_c, 1, 43, 0
1, 12220, Note_on_c, 1, 53, 127
1, 12288, Note_on_c, 1, 52, 127
1, 12292, Note_off_c, 1, 53, 0
1, 12352, Note_on_c, 1, 70, 127
1, 12416, Note_off_c, 1, 52, 0
1, 12416, Note_on_c, 1, 67, 127
1, 12432, Note_off_c, 1, 70, 0
1, 12480, Note_on_c, 1, 61, 127
1, 12480, Note_on_c, 1, 76, 127
1, 12480, Note_on_c, 1, 79, 127
1, 12480, Note_on_c, 1, 82, 127
1, 12496, Note_off_c, 1, 67, 0
1, 12560, Note_off_c, 1, 61, 0
1, 12668, Note_off_c, 1, 76, 0
1, 12668, Note_off_c, 1, 79, 0
1, 12668, Note_off_c, 1, 82, 0
1, 13120, Note_on_c, 1, 68, 127
1, 13184, Note_on_c, 1, 65, 127
1, 13200, Note_off_c, 1, 68, 0
1, 13248, Note_on_c, 1, 80, 127
1, 13248, Note_on_c, 1, 77, 127
1, 13264, Note_off_c, 1, 65, 0
1, 13436, Note_off_c, 1, 80, 0
1, 13436, Note_off_c, 1, 77, 0
1, 14016, Note_on_c, 1, 74, 127
1, 14204, Note_off_c, 1, 74, 0
1, 14592, Note_on_c, 1, 58, 127
1, 14592, Note_on_c, 1, 51, 127
1, 14672, Note_off_c, 1, 58, 0
1, 14720, Note_off_c, 1, 51, 0
1, 14784, Note_on_c, 1, 75, 127
1, 14972, Note_off_c, 1, 75, 0
1, 15360, Note_on_c, 1, 44, 127
1, 15548, Note_off_c, 1, 44, 0
1, 15552, Note_on_c, 1, 72, 127
1, 15740, Note_off_c, 1, 72, 0
1, 15936, Note_on_c, 1, 46, 127
1, 16124, Note_off_c, 1, 46, 0
1, 16128, Note_on_c, 1, 48, 127
1, 16316, Note_off_c, 1, 48, 0
1, 17088, Note_on_c, 1, 56, 127
1, 17216, Note_off_c, 1, 56, 0
1, 19776, Note_on_c, 1, 62, 127
1, 19776, Note_on_c, 1, 46, 127
1, 19796, Note_on_c, 1, 63, 127
1, 19816, Note_off_c, 1, 62, 0
1, 19836, Note_off_c, 1, 63, 0
1, 19904, Note_off_c, 1, 46, 0
1, 19968, Note_on_c, 1, 63, 127
1, 19968, Note_on_c, 1, 51, 127
1, 20032, Note_on_c, 1, 53, 127
1, 20048, Note_off_c, 1, 51, 0
1, 20096, Note_off_c, 1, 63, 0
1, 20096, Note_on_c, 1, 55, 127
1, 20112, Note_off_c, 1, 53, 0
1, 20160, Note_on_c, 1, 75, 127
1, 20160, Note_on_c, 1, 57, 127
1, 20176, Note_off_c, 1, 55, 0
1, 20220, Note_on_c, 1, 58, 127
1, 20240, Note_off_c, 1, 57, 0
1, 20284, Note_on_c, 1, 59, 127
1, 20300, Note_off_c, 1, 58, 0
1, 20352, Note_on_c, 1, 60, 127
1, 20364, Note_off_c, 1, 59, 0
1, 20372, Note_off_c, 1, 75, 0
1, 20416, Note_on_c, 1, 70, 127
1, 20480, Note_off_c, 1, 60, 0
1, 20480, Note_on_c, 1, 69, 127
1, 20496, Note_off_c, 1, 70, 0
1, 20544, Note_on_c, 1, 68, 127
1, 20544, Note_on_c, 1, 48, 127
1, 20560, Note_off_c, 1, 69, 0
1, 20604, Note_on_c, 1, 67, 127
1, 20624, Note_off_c, 1, 68, 0
1, 20668, Note_on_c, 1, 66, 127
1, 20672, Note_off_c, 1, 48, 0
1, 20684, Note_off_c, 1, 67, 0
1, 20736, Note_on_c, 1, 50, 127
1, 20748, Note_off_c, 1, 66, 0
1, 20800, Note_on_c, 1, 52, 127
1, 20816, Note_off_c, 1, 50, 0
1, 20864, Note_on_c, 1, 54, 127
1, 20880, Note_off_c, 1, 52, 0
1, 20928, Note_on_c, 1, 74, 127
1, 20944, Note_off_c, 1, 54, 0
1, 20988, Note_on_c, 1, 56, 127
1, 21068, Note_off_c, 1, 56, 0
1, 21128, Note_off_c, 1, 74, 0
1, 21248, Note_on_c, 1, 76, 127
1, 21312, Note_on_c, 1, 77, 127
1, 21312, Note_on_c, 1, 46, 127
1, 21328, Note_off_c, 1, 76, 0
1, 21372, Note_on_c, 1, 78, 127
1, 21392, Note_off_c, 1, 77, 0
1, 21436, Note_on_c, 1, 79, 127
1, 21440, Note_off_c, 1, 46, 0
1, 21452, Note_off_c, 1, 78, 0
1, 21504, Note_on_c, 1, 72, 127
1, 21504, Note_on_c, 1, 49, 127
1, 21516, Note_off_c, 1, 79, 0
1, 21568, Note_off_c, 1, 72, 0
1, 21584, Note_off_c, 1, 49, 0
1, 22204, Note_on_c, 1, 64, 127
1, 22284, Note_off_c, 1, 64, 0
1, 22336, Note_on_c, 1, 62, 127
1, 22416, Note_off_c, 1, 62, 0
1, 22588, Note_on_c, 1, 45, 127
1, 22656, Note_on_c, 1, 81, 127
1, 22656, Note_on_c, 1, 42, 127
1, 22668, Note_off_c, 1, 45, 0
1, 22736, Note_off_c, 1, 81, 0
1, 22784, Note_off_c, 1, 42, 0
1, 22848, Note_on_c, 1, 38, 127
1, 22976, Note_off_c, 1, 38, 0
1, 23040, Note_on_c, 1, 43, 127
1, 23168, Note_off_c, 1, 43, 0
1, 24060, Note_on_c, 1, 47, 127
1, 24164, Note_off_c, 1, 47, 0
1, 24576, Note_on_c, 1, 84, 127
1, 24576, Note_on_c, 1, 36, 127
1, 24640, Note_on_c, 1, 79, 127
1, 24668, Note_off_c, 1, 84, 0
1, 24704, Note_on_c, 1, 75, 127
1, 24732, Note_off_c, 1, 79, 0
1, 24764, Note_off_c, 1, 36, 0
1, 24768, Note_on_c, 1, 72, 127
1, 24768, Note_on_c, 1, 48, 127
1, 24796, Note_off_c, 1, 75, 0
1, 24828, Note_on_c, 1, 67, 127
1, 24860, Note_off_c, 1, 72, 0
1, 24892, Note_on_c, 1, 63, 127
1, 24920, Note_off_c, 1, 67, 0
1, 24956, Note_off_c, 1, 48, 0
1, 24960, Note_on_c, 1, 60, 127
1, 24984, Note_off_c, 1, 63, 0
1, 25024, Note_on_c, 1, 55, 127
1, 25088, Note_off_c, 1, 60, 0
1, 25088, Note_off_c, 1, 55, 0
1, 25088, Note_on_c, 1, 53, 127
1, 25152, Note_off_c, 1, 53, 0
1, 25152, Note_on_c, 1, 51, 127
1, 25212, Note_on_c, 1, 50, 127
1, 25216, Note_off_c, 1, 51, 0
1, 25276, Note_off_c, 1, 50, 0
1, 25344, Note_on_c, 1, 84, 127
1, 25344, Note_on_c, 1, 79, 127
1, 25344, Note_on_c, 1, 75, 127
1, 25344, Note_on_c, 1, 55, 127
1, 25380, Note_on_c, 1, 54, 127
1, 25392, Note_off_c, 1, 55, 0
1, 25428, Note_off_c, 1, 54, 0
1, 25532, Note_off_c, 1, 84, 0
1, 25532, Note_off_c, 1, 79, 0
1, 25532, Note_off_c, 1, 75, 0
1, 25536, Note_on_c, 1, 74, 127
1, 25536, Note_on_c, 1, 83, 127
1, 25536, Note_on_c, 1, 43, 127
1, 25664, Note_off_c, 1, 74, 0
1, 25664, Note_off_c, 1, 83, 0
1, 25664, Note_off_c, 1, 43, 0
1, 25764, Note_on_c, 1, 77, 127
1, 25800, Note_off_c, 1, 77, 0
1, 25800, Note_on_c, 1, 79, 127
1, 25836, Note_off_c, 1, 79, 0
1, 25996, Note_on_c, 1, 76, 127
1, 26044, Note_off_c, 1, 76, 0
1, 26112, Note_on_c, 1, 82, 127
1, 26112, Note_on_c, 1, 40, 127
1, 26176, Note_on_c, 1, 79, 127
1, 26204, Note_off_c, 1, 82, 0
1, 26240, Note_on_c, 1, 76, 127
1, 26268, Note_off_c, 1, 79, 0
1, 26300, Note_off_c, 1, 40, 0
1, 26304, Note_on_c, 1, 72, 127
1, 26304, Note_on_c, 1, 52, 127
1, 26332, Note_off_c, 1, 76, 0
1, 26364, Note_on_c, 1, 67, 127
1, 26396, Note_off_c, 1, 72, 0
1, 26428, Note_on_c, 1, 64, 127
1, 26456, Note_off_c, 1, 67, 0
1, 26492, Note_off_c, 1, 52, 0
1, 26496, Note_on_c, 1, 60, 127
1, 26520, Note_off_c, 1, 64, 0
1, 26560, Note_on_c, 1, 55, 127
1, 26624, Note_off_c, 1, 60, 0
1, 26624, Note_off_c, 1, 55, 0
1, 26624, Note_on_c, 1, 53, 127
1, 26688, Note_off_c, 1, 53, 0
1, 26748, Note_on_c, 1, 50, 127
1, 26812, Note_off_c, 1, 50, 0
1, 26812, Note_on_c, 1, 48, 127
1, 26876, Note_off_c, 1, 48, 0
1, 26880, Note_on_c, 1, 79, 127
1, 26880, Note_on_c, 1, 72, 127
1, 26880, Note_on_c, 1, 82, 127
1, 26880, Note_on_c, 1, 53, 127
1, 26916, Note_on_c, 1, 52, 127
1, 26928, Note_off_c, 1, 53, 0
1, 26964, Note_off_c, 1, 52, 0
1, 27068, Note_off_c, 1, 79, 0
1, 27068, Note_off_c, 1, 72, 0
1, 27068, Note_off_c, 1, 82, 0
1, 27072, Note_on_c, 1, 77, 127
1, 27072, Note_on_c, 1, 81, 127
1, 27072, Note_on_c, 1, 41, 127
1, 27200, Note_off_c, 1, 77, 0
1, 27200, Note_off_c, 1, 81, 0
1, 27200, Note_off_c, 1, 41, 0
1, 27248, Note_on_c, 1, 74, 127
1, 27300, Note_on_c, 1, 72, 127
1, 27320, Note_off_c, 1, 74, 0
1, 27336, Note_off_c, 1, 72, 0
1, 27532, Note_on_c, 1, 71, 127
1, 27580, Note_off_c, 1, 71, 0
1, 27648, Note_on_c, 1, 80, 127
1, 27648, Note_on_c, 1, 38, 127
1, 27712, Note_on_c, 1, 77, 127
1, 27728, Note_off_c, 1, 80, 0
1, 27776, Note_on_c, 1, 74, 127
1, 27792, Note_off_c, 1, 77, 0
1, 27836, Note_off_c, 1, 38, 0
1, 27840, Note_on_c, 1, 71, 127
1, 27840, Note_on_c, 1, 50, 127
1, 27856, Note_off_c, 1, 74, 0
1, 27900, Note_on_c, 1, 65, 127
1, 27920, Note_off_c, 1, 71, 0
1, 27964, Note_on_c, 1, 62, 127
1, 27980, Note_off_c, 1, 65, 0
1, 28028, Note_off_c, 1, 50, 0
1, 28032, Note_on_c, 1, 59, 127
1, 28044, Note_off_c, 1, 62, 0
1, 28096, Note_on_c, 1, 53, 127
1, 28160, Note_off_c, 1, 59, 0
1, 28160, Note_on_c, 1, 51, 127
1, 28176, Note_off_c, 1, 53, 0
1, 28240, Note_off_c, 1, 51, 0
1, 28284, Note_on_c, 1, 48, 127
1, 28348, Note_on_c, 1, 47, 127
1, 28364, Note_off_c, 1, 48, 0
1, 28428, Note_off_c, 1, 47, 0
1, 28480, Note_on_c, 1, 43, 127
1, 28544, Note_on_c, 1, 45, 127
1, 28560, Note_off_c, 1, 43, 0
1, 28608, Note_on_c, 1, 72, 127
1, 28608, Note_on_c, 1, 79, 127
1, 28608, Note_on_c, 1, 75, 127
1, 28624, Note_off_c, 1, 45, 0
1, 28752, Note_off_c, 1, 72, 0
1, 28752, Note_off_c, 1, 79, 0
1, 28752, Note_off_c, 1, 75, 0
1, 29116, Note_on_c, 1, 55, 127
1, 29184, Note_on_c, 1, 56, 127
1, 29196, Note_off_c, 1, 55, 0
1, 29372, Note_off_c, 1, 56, 0
1, 29760, Note_on_c, 1, 54, 127
1, 29948, Note_off_c, 1, 54, 0
1, 30204, Note_on_c, 1, 69, 127
1, 30268, Note_on_c, 1, 67, 127
1, 30284, Note_off_c, 1, 69, 0
1, 30348, Note_off_c, 1, 67, 0
1, 30400, Note_on_c, 1, 68, 127
1, 30480, Note_off_c, 1, 68, 0
1, 30588, Note_on_c, 1, 63, 127
1, 30668, Note_off_c, 1, 63, 0
1, 30720, Note_on_c, 1, 36, 127
1, 30784, Note_on_c, 1, 39, 127
1, 30800, Note_off_c, 1, 36, 0
1, 30864, Note_off_c, 1, 39, 0
1, 30912, Note_on_c, 1, 60, 127
1, 31040, Note_off_c, 1, 60, 0
1, 31296, Note_on_c, 1, 76, 127
1, 31376, Note_off_c, 1, 76, 0
1, 31420, Note_on_c, 1, 78, 127
1, 31500, Note_off_c, 1, 78, 0
1, 31616, Note_on_c, 1, 81, 127
1, 31668, Note_off_c, 1, 81, 0
1, 31872, Note_on_c, 1, 72, 127
1, 31936, Note_on_c, 1, 71, 127
1, 31964, Note_off_c, 1, 72, 0
1, 32000, Note_on_c, 1, 74, 127
1, 32016, Note_off_c, 1, 71, 0
1, 32052, Note_off_c, 1, 74, 0
1, 32064, Note_on_c, 1, 68, 127
1, 32124, Note_on_c, 1, 67, 127
1, 32156, Note_off_c, 1, 68, 0
1, 32188, Note_on_c, 1, 77, 127
1, 32204, Note_off_c, 1, 67, 0
1, 32240, Note_off_c, 1, 77, 0
1, 32256, Note_on_c, 1, 76, 127
1, 32256, Note_on_c, 1, 36, 127
1, 32320, Note_on_c, 1, 73, 127
1, 32320, Note_on_c, 1, 40, 127
1, 32332, Note_off_c, 1, 76, 0
1, 32336, Note_off_c, 1, 36, 0
1, 32384, Note_on_c, 1, 70, 127
1, 32384, Note_on_c, 1, 43, 127
1, 32396, Note_off_c, 1, 73, 0
1, 32400, Note_off_c, 1, 40, 0
1, 32448, Note_on_c, 1, 67, 127
1, 32448, Note_on_c, 1, 48, 127
1, 32460, Note_off_c, 1, 70, 0
1, 32464, Note_off_c, 1, 43, 0
1, 32508, Note_on_c, 1, 52, 127
1, 32528, Note_off_c, 1, 48, 0
1, 32572, Note_on_c, 1, 55, 127
1, 32588, Note_off_c, 1, 52, 0
1, 32624, Note_off_c, 1, 67, 0
1, 32640, Note_on_c, 1, 58, 127
1, 32652, Note_off_c, 1, 55, 0
1, 32704, Note_on_c, 1, 72, 127
1, 32784, Note_off_c, 1, 72, 0
1, 32828, Note_off_c, 1, 58, 0
1, 32832, Note_on_c, 1, 74, 127
1, 32832, Note_on_c, 1, 46, 127
1, 32892, Note_on_c, 1, 75, 127
1, 32912, Note_off_c, 1, 74, 0
1, 32960, Note_off_c, 1, 46, 0
1, 32972, Note_off_c, 1, 75, 0
1, 33024, Note_on_c, 1, 77, 127
1, 33116, Note_off_c, 1, 77, 0
1, 33152, Note_on_c, 1, 79, 127
1, 33204, Note_off_c, 1, 79, 0
1, 33216, Note_on_c, 1, 45, 127
1, 33344, Note_off_c, 1, 45, 0
1, 33408, Note_on_c, 1, 70, 127
1, 33472, Note_on_c, 1, 69, 127
1, 33500, Note_off_c, 1, 70, 0
1, 33536, Note_on_c, 1, 72, 127
1, 33552, Note_off_c, 1, 69, 0
1, 33588, Note_off_c, 1, 72, 0
1, 33600, Note_on_c, 1, 66, 127
1, 33660, Note_on_c, 1, 65, 127
1, 33692, Note_off_c, 1, 66, 0
1, 33724, Note_on_c, 1, 75, 127
1, 33740, Note_off_c, 1, 65, 0
1, 33776, Note_off_c, 1, 75, 0
1, 33792, Note_on_c, 1, 74, 127
1, 33792, Note_on_c, 1, 44, 127
1, 33856, Note_on_c, 1, 71, 127
1, 33856, Note_on_c, 1, 47, 127
1, 33884, Note_off_c, 1, 74, 0
1, 33884, Note_off_c, 1, 44, 0
1, 33920, Note_on_c, 1, 68, 127
1, 33920, Note_on_c, 1, 50, 127
1, 33948, Note_off_c, 1, 71, 0
1, 33948, Note_off_c, 1, 47, 0
1, 33984, Note_on_c, 1, 65, 127
1, 33984, Note_on_c, 1, 53, 127
1, 34012, Note_off_c, 1, 68, 0
1, 34012, Note_off_c, 1, 50, 0
1, 34044, Note_on_c, 1, 56, 127
1, 34076, Note_off_c, 1, 65, 0
1, 34076, Note_off_c, 1, 53, 0
1, 34108, Note_on_c, 1, 59, 127
1, 34136, Note_off_c, 1, 56, 0
1, 34176, Note_on_c, 1, 62, 127
1, 34200, Note_off_c, 1, 59, 0
1, 34240, Note_on_c, 1, 77, 127
1, 34304, Note_off_c, 1, 62, 0
1, 34304, Note_on_c, 1, 75, 127
1, 34332, Note_off_c, 1, 77, 0
1, 34396, Note_off_c, 1, 75, 0
1, 34428, Note_on_c, 1, 72, 127
1, 34520, Note_off_c, 1, 72, 0
1, 34560, Note_on_c, 1, 71, 127
1, 34560, Note_on_c, 1, 43, 127
1, 34624, Note_on_c, 1, 72, 127
1, 34624, Note_on_c, 1, 48, 127
1, 34652, Note_off_c, 1, 71, 0
1, 34652, Note_off_c, 1, 43, 0
1, 34688, Note_on_c, 1, 67, 127
1, 34688, Note_on_c, 1, 51, 127
1, 34716, Note_off_c, 1, 72, 0
1, 34716, Note_off_c, 1, 48, 0
1, 34752, Note_on_c, 1, 63, 127
1, 34752, Note_on_c, 1, 55, 127
1, 34780, Note_off_c, 1, 67, 0
1, 34780, Note_off_c, 1, 51, 0
1, 34812, Note_on_c, 1, 59, 127
1, 34844, Note_off_c, 1, 55, 0
1, 34876, Note_on_c, 1, 60, 127
1, 34904, Note_off_c, 1, 59, 0
1, 34940, Note_off_c, 1, 63, 0
1, 34968, Note_off_c, 1, 60, 0
1, 35008, Note_on_c, 1, 75, 127
1, 35072, Note_on_c, 1, 74, 127
1, 35100, Note_off_c, 1, 75, 0
1, 35164, Note_off_c, 1, 74, 0
1, 35328, Note_on_c, 1, 42, 127
1, 35416, Note_on_c, 1, 65, 127
1, 35420, Note_off_c, 1, 42, 0
1, 35424, Note_on_c, 1, 54, 127
1, 35452, Note_off_c, 1, 65, 0
1, 35516, Note_off_c, 1, 54, 0
1, 36000, Note_on_c, 1, 62, 127
1, 36036, Note_off_c, 1, 62, 0
1, 36096, Note_on_c, 1, 60, 127
1, 36096, Note_on_c, 1, 63, 127
1, 36096, Note_on_c, 1, 55, 127
1, 36284, Note_off_c, 1, 60, 0
1, 36284, Note_off_c, 1, 63, 0
1, 36288, Note_on_c, 1, 62, 127
1, 36288, Note_on_c, 1, 59, 127
1, 36328, Note_off_c, 1, 55, 0
1, 36412, Note_on_c, 1, 54, 127
1, 36476, Note_off_c, 1, 62, 0
1, 36476, Note_off_c, 1, 59, 0
1, 36484, Note_off_c, 1, 54, 0
1, 36544, Note_on_c, 1, 50, 127
1, 36608, Note_on_c, 1, 47, 127
1, 36616, Note_off_c, 1, 50, 0
1, 36672, Note_on_c, 1, 43, 127
1, 36680, Note_off_c, 1, 47, 0
1, 36744, Note_off_c, 1, 43, 0
1, 36796, Note_on_c, 1, 53, 127
1, 36864, Note_on_c, 1, 52, 127
1, 36868, Note_off_c, 1, 53, 0
1, 36928, Note_on_c, 1, 70, 127
1, 36992, Note_off_c, 1, 52, 0
1, 36992, Note_on_c, 1, 67, 127
1, 37008, Note_off_c, 1, 70, 0
1, 37056, Note_on_c, 1, 61, 127
1, 37056, Note_on_c, 1, 76, 127
1, 37056, Note_on_c, 1, 79, 127
1, 37056, Note_on_c, 1, 82, 127
1, 37072, Note_off_c, 1, 67, 0
1, 37136, Note_off_c, 1, 61, 0
1, 37244, Note_off_c, 1, 76, 0
1, 37244, Note_off_c, 1, 79, 0
1, 37244, Note_off_c, 1, 82, 0
1, 37696, Note_on_c, 1, 68, 127
1, 37776, Note_off_c, 1, 68, 0
1, 37824, Note_on_c, 1, 60, 127
1, 37824, Note_on_c, 1, 80, 127
1, 37824, Note_on_c, 1, 77, 127
1, 37884, Note_on_c, 1, 68, 127
1, 37904, Note_off_c, 1, 60, 0
1, 37948, Note_on_c, 1, 65, 127
1, 37964, Note_off_c, 1, 68, 0
1, 38012, Note_off_c, 1, 80, 0
1, 38012, Note_off_c, 1, 77, 0
1, 38028, Note_off_c, 1, 65, 0
1, 38208, Note_on_c, 1, 53, 127
1, 38336, Note_off_c, 1, 53, 0
1, 38400, Note_on_c, 1, 59, 127
1, 38400, Note_on_c, 1, 50, 127
1, 38480, Note_off_c, 1, 59, 0
1, 38528, Note_off_c, 1, 50, 0
1, 38592, Note_on_c, 1, 74, 127
1, 38780, Note_off_c, 1, 74, 0
1, 39168, Note_on_c, 1, 58, 127
1, 39168, Note_on_c, 1, 51, 127
1, 39232, Note_on_c, 1, 67, 127
1, 39248, Note_off_c, 1, 58, 0
1, 39296, Note_off_c, 1, 51, 0
1, 39296, Note_on_c, 1, 63, 127
1, 39312, Note_off_c, 1, 67, 0
1, 39360, Note_on_c, 1, 75, 127
1, 39376, Note_off_c, 1, 63, 0
1, 39548, Note_off_c, 1, 75, 0
1, 39552, Note_on_c, 1, 79, 127
1, 39740, Note_off_c, 1, 79, 0
1, 39936, Note_on_c, 1, 44, 127
1, 40000, Note_on_c, 1, 62, 127
1, 40080, Note_off_c, 1, 62, 0
1, 40124, Note_off_c, 1, 44, 0
1, 40128, Note_on_c, 1, 72, 127
1, 40316, Note_off_c, 1, 72, 0
1, 40512, Note_on_c, 1, 46, 127
1, 40700, Note_off_c, 1, 46, 0
1, 40704, Note_on_c, 1, 48, 127
1, 40892, Note_off_c, 1, 48, 0
1, 40956, Note_on_c, 1, 70, 127
1, 41036, Note_off_c, 1, 70, 0
1, 41664, Note_on_c, 1, 56, 127
1, 41792, Note_off_c, 1, 56, 0
1, 43776, Note_on_c, 1, 55, 127
1, 43856, Note_off_c, 1, 55, 0
1, 44352, Note_on_c, 1, 62, 127
1, 44352, Note_on_c, 1, 46, 127
1, 44372, Note_on_c, 1, 63, 127
1, 44392, Note_off_c, 1, 62, 0
1, 44412, Note_off_c, 1, 63, 0
1, 44480, Note_off_c, 1, 46, 0
1, 44544, Note_on_c, 1, 63, 127
1, 44544, Note_on_c, 1, 51, 127
1, 44608, Note_on_c, 1, 53, 127
1, 44624, Note_off_c, 1, 51, 0
1, 44672, Note_off_c, 1, 63, 0
1, 44672, Note_on_c, 1, 55, 127
1, 44688, Note_off_c, 1, 53, 0
1, 44736, Note_on_c, 1, 75, 127
1, 44736, Note_on_c, 1, 57, 127
1, 44752, Note_off_c, 1, 55, 0
1, 44796, Note_on_c, 1, 58, 127
1, 44816, Note_off_c, 1, 57, 0
1, 44860, Note_on_c, 1, 59, 127
1, 44876, Note_off_c, 1, 58, 0
1, 44928, Note_on_c, 1, 60, 127
1, 44940, Note_off_c, 1, 59, 0
1, 44948, Note_off_c, 1, 75, 0
1, 44992, Note_on_c, 1, 70, 127
1, 45056, Note_off_c, 1, 60, 0
1, 45056, Note_on_c, 1, 69, 127
1, 45072, Note_off_c, 1, 70, 0
1, 45120, Note_on_c, 1, 68, 127
1, 45120, Note_on_c, 1, 48, 127
1, 45136, Note_off_c, 1, 69, 0
1, 45180, Note_on_c, 1, 67, 127
1, 45200, Note_off_c, 1, 68, 0
1, 45244, Note_on_c, 1, 66, 127
1, 45248, Note_off_c, 1, 48, 0
1, 45260, Note_off_c, 1, 67, 0
1, 45312, Note_on_c, 1, 50, 127
1, 45324, Note_off_c, 1, 66, 0
1, 45376, Note_on_c, 1, 52, 127
1, 45392, Note_off_c, 1, 50, 0
1, 45440, Note_on_c, 1, 54, 127
1, 45456, Note_off_c, 1, 52, 0
1, 45504, Note_on_c, 1, 74, 127
1, 45520, Note_off_c, 1, 54, 0
1, 45564, Note_on_c, 1, 56, 127
1, 45644, Note_off_c, 1, 56, 0
1, 45704, Note_off_c, 1, 74, 0
1, 45824, Note_on_c, 1, 76, 127
1, 45888, Note_on_c, 1, 77, 127
1, 45888, Note_on_c, 1, 46, 127
1, 45904, Note_off_c, 1, 76, 0
1, 45948, Note_on_c, 1, 78, 127
1, 45968, Note_off_c, 1, 77, 0
1, 46012, Note_on_c, 1, 79, 127
1, 46016, Note_off_c, 1, 46, 0
1, 46028, Note_off_c, 1, 78, 0
1, 46080, Note_on_c, 1, 72, 127
1, 46080, Note_on_c, 1, 49, 127
1, 46092, Note_off_c, 1, 79, 0
1, 46144, Note_off_c, 1, 72, 0
1, 46160, Note_off_c, 1, 49, 0
1, 46780, Note_on_c, 1, 64, 127
1, 46860, Note_off_c, 1, 64, 0
1, 46912, Note_on_c, 1, 62, 127
1, 46992, Note_off_c, 1, 62, 0
1, 47164, Note_on_c, 1, 45, 127
1, 47232, Note_on_c, 1, 81, 127
1, 47232, Note_on_c, 1, 42, 127
1, 47244, Note_off_c, 1, 45, 0
1, 47312, Note_off_c, 1, 81, 0
1, 47360, Note_off_c, 1, 42, 0
1, 47424, Note_on_c, 1, 38, 127
1, 47552, Note_off_c, 1, 38, 0
1, 47616, Note_on_c, 1, 43, 127
1, 47744, Note_off_c, 1, 43, 0
1, 48636, Note_on_c, 1, 47, 127
1, 48740, Note_off_c, 1, 47, 0
1, 49152, Note_on_c, 1, 79, 127
1, 49152, Note_on_c, 1, 43, 127
1, 49216, Note_on_c, 1, 74, 127
1, 49244, Note_off_c, 1, 79, 0
1, 49280, Note_on_c, 1, 70, 127
1, 49308, Note_off_c, 1, 74, 0
1, 49340, Note_off_c, 1, 43, 0
1, 49344, Note_on_c, 1, 67, 127
1, 49344, Note_on_c, 1, 55, 127
1, 49372, Note_off_c, 1, 70, 0
1, 49404, Note_on_c, 1, 62, 127
1, 49436, Note_off_c, 1, 67, 0
1, 49468, Note_on_c, 1, 58, 127
1, 49496, Note_off_c, 1, 62, 0
1, 49532, Note_off_c, 1, 55, 0
1, 49560, Note_off_c, 1, 58, 0
1, 49600, Note_on_c, 1, 50, 127
1, 49664, Note_off_c, 1, 50, 0
1, 49664, Note_on_c, 1, 48, 127
1, 49728, Note_off_c, 1, 48, 0
1, 49728, Note_on_c, 1, 82, 127
1, 49728, Note_on_c, 1, 46, 127
1, 49788, Note_on_c, 1, 45, 127
1, 49792, Note_off_c, 1, 46, 0
1, 49852, Note_off_c, 1, 45, 0
1, 49916, Note_off_c, 1, 82, 0
1, 49920, Note_on_c, 1, 82, 127
1, 49920, Note_on_c, 1, 79, 127
1, 49920, Note_on_c, 1, 74, 127
1, 49920, Note_on_c, 1, 50, 127
1, 50108, Note_off_c, 1, 82, 0
1, 50108, Note_off_c, 1, 79, 0
1, 50108, Note_off_c, 1, 74, 0
1, 50108, Note_off_c, 1, 50, 0
1, 50112, Note_on_c, 1, 81, 127
1, 50112, Note_on_c, 1, 78, 127
1, 50112, Note_on_c, 1, 38, 127
1, 50240, Note_off_c, 1, 81, 0
1, 50240, Note_off_c, 1, 78, 0
1, 50240, Note_off_c, 1, 38, 0
1, 50288, Note_on_c, 1, 75, 127
1, 50340, Note_on_c, 1, 74, 127
1, 50360, Note_off_c, 1, 75, 0
1, 50376, Note_off_c, 1, 74, 0
1, 50572, Note_on_c, 1, 73, 127
1, 50620, Note_off_c, 1, 73, 0
1, 50688, Note_on_c, 1, 84, 127
1, 50688, Note_on_c, 1, 42, 127
1, 50752, Note_on_c, 1, 81, 127
1, 50780, Note_off_c, 1, 84, 0
1, 50816, Note_on_c, 1, 78, 127
1, 50844, Note_off_c, 1, 81, 0
1, 50876, Note_off_c, 1, 42, 0
1, 50880, Note_on_c, 1, 74, 127
1, 50880, Note_on_c, 1, 54, 127
1, 50908, Note_off_c, 1, 78, 0
1, 50940, Note_on_c, 1, 69, 127
1, 50972, Note_off_c, 1, 74, 0
1, 51004, Note_on_c, 1, 66, 127
1, 51032, Note_off_c, 1, 69, 0
1, 51068, Note_off_c, 1, 54, 0
1, 51072, Note_on_c, 1, 62, 127
1, 51096, Note_off_c, 1, 66, 0
1, 51136, Note_on_c, 1, 57, 127
1, 51200, Note_off_c, 1, 62, 0
1, 51200, Note_off_c, 1, 57, 0
1, 51200, Note_on_c, 1, 55, 127
1, 51264, Note_off_c, 1, 55, 0
1, 51324, Note_on_c, 1, 52, 127
1, 51388, Note_off_c, 1, 52, 0
1, 51388, Note_on_c, 1, 50, 127
1, 51452, Note_off_c, 1, 50, 0
1, 51456, Note_on_c, 1, 78, 127
1, 51456, Note_on_c, 1, 84, 127
1, 51456, Note_on_c, 1, 74, 127
1, 51456, Note_on_c, 1, 81, 127
1, 51456, Note_on_c, 1, 55, 127
1, 51644, Note_off_c, 1, 78, 0
1, 51644, Note_off_c, 1, 84, 0
1, 51644, Note_off_c, 1, 74, 0
1, 51644, Note_off_c, 1, 81, 0
1, 51644, Note_off_c, 1, 55, 0
1, 51648, Note_on_c, 1, 79, 127
1, 51648, Note_on_c, 1, 82, 127
1, 51648, Note_on_c, 1, 43, 127
1, 51776, Note_off_c, 1, 79, 0
1, 51776, Note_off_c, 1, 82, 0
1, 51776, Note_off_c, 1, 43, 0
1, 51824, Note_on_c, 1, 75, 127
1, 51876, Note_on_c, 1, 74, 127
1, 51896, Note_off_c, 1, 75, 0
1, 51912, Note_off_c, 1, 74, 0
1, 52108, Note_on_c, 1, 73, 127
1, 52156, Note_off_c, 1, 73, 0
1, 52224, Note_on_c, 1, 77, 127
1, 52224, Note_on_c, 1, 59, 127
1, 52288, Note_on_c, 1, 74, 127
1, 52316, Note_off_c, 1, 77, 0
1, 52352, Note_on_c, 1, 71, 127
1, 52380, Note_off_c, 1, 74, 0
1, 52412, Note_off_c, 1, 59, 0
1, 52416, Note_on_c, 1, 68, 127
1, 52444, Note_off_c, 1, 71, 0
1, 52476, Note_on_c, 1, 65, 127
1, 52508, Note_off_c, 1, 68, 0
1, 52540, Note_on_c, 1, 62, 127
1, 52568, Note_off_c, 1, 65, 0
1, 52608, Note_on_c, 1, 55, 127
1, 52608, Note_on_c, 1, 43, 127
1, 52632, Note_off_c, 1, 62, 0
1, 52672, Note_on_c, 1, 47, 127
1, 52700, Note_off_c, 1, 55, 0
1, 52700, Note_off_c, 1, 43, 0
1, 52736, Note_on_c, 1, 50, 127
1, 52764, Note_off_c, 1, 47, 0
1, 52828, Note_off_c, 1, 50, 0
1, 52992, Note_on_c, 1, 60, 127
1, 53056, Note_on_c, 1, 79, 127
1, 53120, Note_off_c, 1, 60, 0
1, 53120, Note_on_c, 1, 75, 127
1, 53132, Note_off_c, 1, 79, 0
1, 53184, Note_on_c, 1, 72, 127
1, 53184, Note_on_c, 1, 48, 127
1, 53196, Note_off_c, 1, 75, 0
1, 53244, Note_on_c, 1, 67, 127
1, 53260, Note_off_c, 1, 72, 0
1, 53308, Note_on_c, 1, 63, 127
1, 53320, Note_off_c, 1, 67, 0
1, 53384, Note_off_c, 1, 63, 0
1, 53424, Note_off_c, 1, 48, 0
1, 53440, Note_on_c, 1, 51, 127
1, 53532, Note_off_c, 1, 51, 0
1, 53760, Note_on_c, 1, 57, 127
1, 53888, Note_on_c, 1, 69, 127
1, 53948, Note_off_c, 1, 57, 0
1, 53952, Note_on_c, 1, 66, 127
1, 53980, Note_off_c, 1, 69, 0
1, 54044, Note_off_c, 1, 66, 0
1, 54144, Note_on_c, 1, 41, 127
1, 54208, Note_on_c, 1, 45, 127
1, 54236, Note_off_c, 1, 41, 0
1, 54300, Note_off_c, 1, 45, 0
1, 54336, Note_on_c, 1, 53, 127
1, 54428, Note_off_c, 1, 53, 0
1, 54528, Note_on_c, 1, 58, 127
1, 54656, Note_off_c, 1, 58, 0
1, 54720, Note_on_c, 1, 70, 127
1, 54720, Note_on_c, 1, 46, 127
1, 54796, Note_off_c, 1, 70, 0
1, 54960, Note_off_c, 1, 46, 0
1, 55872, Note_on_c, 1, 52, 127
1, 55944, Note_off_c, 1, 52, 0
1, 55996, Note_on_c, 1, 54, 127
1, 56068, Note_off_c, 1, 54, 0
1, 56512, Note_on_c, 1, 56, 127
1, 56584, Note_off_c, 1, 56, 0
1, 56964, Note_on_c, 1, 73, 127
1, 57024, Note_on_c, 1, 44, 127
1, 57036, Note_off_c, 1, 73, 0
1, 57148, Note_on_c, 1, 76, 127
1, 57220, Note_off_c, 1, 76, 0
1, 57320, Note_off_c, 1, 44, 0
1, 58048, Note_on_c, 1, 49, 127
1, 58120, Note_off_c, 1, 49, 0
1, 58176, Note_on_c, 1, 84, 127
1, 58440, Note_off_c, 1, 84, 0
1, 58500, Note_on_c, 1, 78, 127
1, 58560, Note_on_c, 1, 61, 127
1, 58572, Note_off_c, 1, 78, 0
1, 58620, Note_on_c, 1, 80, 127
1, 58684, Note_on_c, 1, 81, 127
1, 58692, Note_off_c, 1, 80, 0
1, 58752, Note_on_c, 1, 82, 127
1, 58756, Note_off_c, 1, 81, 0
1, 58788, Note_off_c, 1, 82, 0
1, 58856, Note_off_c, 1, 61, 0
1, 59068, Note_on_c, 1, 64, 127
1, 59140, Note_off_c, 1, 64, 0
1, 75132, Note_on_c, 1, 39, 127
1, 75196, Note_on_c, 1, 38, 127
1, 75208, Note_off_c, 1, 39, 0
1, 75264, Note_on_c, 1, 36, 127
1, 75272, Note_off_c, 1, 38, 0
1, 75452, Note_off_c, 1, 36, 0
1, 76032, Note_on_c, 1, 84, 127
1, 76032, Note_on_c, 1, 79, 127
1, 76032, Note_on_c, 1, 75, 127
1, 76032, Note_on_c, 1, 55, 127
1, 76068, Note_on_c, 1, 54, 127
1, 76080, Note_off_c, 1, 55, 0
1, 76116, Note_off_c, 1, 54, 0
1, 76220, Note_off_c, 1, 84, 0
1, 76220, Note_off_c, 1, 79, 0
1, 76220, Note_off_c, 1, 75, 0
1, 76224, Note_on_c, 1, 74, 127
1, 76224, Note_on_c, 1, 83, 127
1, 76224, Note_on_c, 1, 43, 127
1, 76352, Note_off_c, 1, 74, 0
1, 76352, Note_off_c, 1, 83, 0
1, 76352, Note_off_c, 1, 43, 0
1, 76452, Note_on_c, 1, 77, 127
1, 76488, Note_off_c, 1, 77, 0
1, 76488, Note_on_c, 1, 79, 127
1, 76524, Note_off_c, 1, 79, 0
1, 76684, Note_on_c, 1, 76, 127
1, 76732, Note_off_c, 1, 76, 0
1, 76800, Note_on_c, 1, 82, 127
1, 76800, Note_on_c, 1, 40, 127
1, 76864, Note_on_c, 1, 79, 127
1, 76892, Note_off_c, 1, 82, 0
1, 76928, Note_on_c, 1, 76, 127
1, 76956, Note_off_c, 1, 79, 0
1, 76988, Note_off_c, 1, 40, 0
1, 76992, Note_on_c, 1, 72, 127
1, 76992, Note_on_c, 1, 52, 127
1, 77020, Note_off_c, 1, 76, 0
1, 77052, Note_on_c, 1, 67, 127
1, 77084, Note_off_c, 1, 72, 0
1, 77116, Note_on_c, 1, 64, 127
1, 77144, Note_off_c, 1, 67, 0
1, 77180, Note_off_c, 1, 52, 0
1, 77184, Note_on_c, 1, 60, 127
1, 77208, Note_off_c, 1, 64, 0
1, 77248, Note_on_c, 1, 55, 127
1, 77312, Note_off_c, 1, 60, 0
1, 77312, Note_off_c, 1, 55, 0
1, 77312, Note_on_c, 1, 53, 127
1, 77376, Note_off_c, 1, 53, 0
1, 77436, Note_on_c, 1, 50, 127
1, 77500, Note_off_c, 1, 50, 0
1, 77500, Note_on_c, 1, 48, 127
1, 77564, Note_off_c, 1, 48, 0
1, 77568, Note_on_c, 1, 79, 127
1, 77568, Note_on_c, 1, 72, 127
1, 77568, Note_on_c, 1, 82, 127
1, 77568, Note_on_c, 1, 53, 127
1, 77604, Note_on_c, 1, 52, 127
1, 77616, Note_off_c, 1, 53, 0
1, 77652, Note_off_c, 1, 52, 0
1, 77756, Note_off_c, 1, 79, 0
1, 77756, Note_off_c, 1, 72, 0
1, 77756, Note_off_c, 1, 82, 0
1, 77760, Note_on_c, 1, 77, 127
1, 77760, Note_on_c, 1, 81, 127
1, 77760, Note_on_c, 1, 41, 127
1, 77888, Note_off_c, 1, 77, 0
1, 77888, Note_off_c, 1, 81, 0
1, 77888, Note_off_c, 1, 41, 0
1, 77936, Note_on_c, 1, 74, 127
1, 77988, Note_on_c, 1, 72, 127
1, 78008, Note_off_c, 1, 74, 0
1, 78024, Note_off_c, 1, 72, 0
1, 78220, Note_on_c, 1, 71, 127
1, 78268, Note_off_c, 1, 71, 0
1, 78336, Note_on_c, 1, 80, 127
1, 78336, Note_on_c, 1, 38, 127
1, 78400, Note_on_c, 1, 77, 127
1, 78412, Note_off_c, 1, 80, 0
1, 78468, Note_on_c, 1, 74, 127
1, 78476, Note_off_c, 1, 77, 0
1, 78524, Note_off_c, 1, 38, 0
1, 78528, Note_on_c, 1, 71, 127
1, 78528, Note_on_c, 1, 50, 127
1, 78544, Note_off_c, 1, 74, 0
1, 78588, Note_on_c, 1, 65, 127
1, 78604, Note_off_c, 1, 71, 0
1, 78652, Note_on_c, 1, 62, 127
1, 78664, Note_off_c, 1, 65, 0
1, 78676, Note_off_c, 1, 50, 0
1, 78720, Note_on_c, 1, 59, 127
1, 78728, Note_off_c, 1, 62, 0
1, 78796, Note_off_c, 1, 59, 0
1, 78912, Note_on_c, 1, 68, 127
1, 78912, Note_on_c, 1, 48, 127
1, 78988, Note_off_c, 1, 68, 0
1, 79100, Note_off_c, 1, 48, 0
1, 79104, Note_on_c, 1, 47, 127
1, 79292, Note_off_c, 1, 47, 0
1, 79296, Note_on_c, 1, 67, 127
1, 79372, Note_off_c, 1, 67, 0
1, 79488, Note_on_c, 1, 55, 127
1, 79488, Note_on_c, 1, 53, 127
1, 79552, Note_on_c, 1, 43, 127
1, 79556, Note_off_c, 1, 53, 0
1, 79616, Note_off_c, 1, 55, 0
1, 79620, Note_on_c, 1, 45, 127
1, 79628, Note_off_c, 1, 43, 0
1, 79680, Note_on_c, 1, 79, 127
1, 79696, Note_off_c, 1, 45, 0
1, 79808, Note_off_c, 1, 79, 0
1, 79872, Note_on_c, 1, 72, 127
1, 79872, Note_on_c, 1, 51, 127
1, 79904, Note_off_c, 1, 72, 0
1, 79948, Note_off_c, 1, 51, 0
1, 80004, Note_on_c, 1, 46, 127
1, 80064, Note_on_c, 1, 44, 127
1, 80080, Note_off_c, 1, 46, 0
1, 80140, Note_off_c, 1, 44, 0
1, 80188, Note_on_c, 1, 41, 127
1, 80256, Note_on_c, 1, 75, 127
1, 80264, Note_off_c, 1, 41, 0
1, 80296, Note_off_c, 1, 75, 0
1, 80640, Note_on_c, 1, 56, 127
1, 80800, Note_off_c, 1, 56, 0
1, 80956, Note_on_c, 1, 70, 127
1, 81024, Note_on_c, 1, 58, 127
1, 81028, Note_off_c, 1, 70, 0
1, 81088, Note_on_c, 1, 64, 127
1, 81160, Note_off_c, 1, 64, 0
1, 81184, Note_off_c, 1, 58, 0
1, 81216, Note_on_c, 1, 61, 127
1, 81216, Note_on_c, 1, 52, 127
1, 81276, Note_on_c, 1, 60, 127
1, 81308, Note_off_c, 1, 61, 0
1, 81348, Note_off_c, 1, 60, 0
1, 81376, Note_off_c, 1, 52, 0
1, 81408, Note_on_c, 1, 70, 127
1, 81408, Note_on_c, 1, 53, 127
1, 81472, Note_on_c, 1, 69, 127
1, 81500, Note_off_c, 1, 70, 0
1, 81540, Note_on_c, 1, 72, 127
1, 81544, Note_off_c, 1, 69, 0
1, 81596, Note_off_c, 1, 53, 0
1, 81600, Note_on_c, 1, 66, 127
1, 81600, Note_on_c, 1, 51, 127
1, 81600, Note_on_c, 1, 60, 127
1, 81612, Note_off_c, 1, 72, 0
1, 81660, Note_on_c, 1, 65, 127
1, 81692, Note_off_c, 1, 66, 0
1, 81724, Note_on_c, 1, 68, 127
1, 81732, Note_off_c, 1, 65, 0
1, 81788, Note_off_c, 1, 51, 0
1, 81788, Note_off_c, 1, 60, 0
1, 81792, Note_on_c, 1, 63, 127
1, 81792, Note_on_c, 1, 56, 127
1, 81796, Note_off_c, 1, 68, 0
1, 81856, Note_on_c, 1, 62, 127
1, 81884, Note_off_c, 1, 63, 0
1, 81928, Note_off_c, 1, 62, 0
1, 81980, Note_off_c, 1, 56, 0
1, 81984, Note_on_c, 1, 59, 127
1, 81984, Note_on_c, 1, 50, 127
1, 82044, Note_on_c, 1, 58, 127
1, 82076, Note_off_c, 1, 59, 0
1, 82116, Note_off_c, 1, 58, 0
1, 82172, Note_off_c, 1, 50, 0
1, 82176, Note_on_c, 1, 68, 127
1, 82176, Note_on_c, 1, 51, 127
1, 82240, Note_on_c, 1, 67, 127
1, 82268, Note_off_c, 1, 68, 0
1, 82308, Note_on_c, 1, 70, 127
1, 82312, Note_off_c, 1, 67, 0
1, 82364, Note_off_c, 1, 51, 0
1, 82368, Note_on_c, 1, 64, 127
1, 82368, Note_on_c, 1, 58, 127
1, 82368, Note_on_c, 1, 49, 127
1, 82380, Note_off_c, 1, 70, 0
1, 82428, Note_on_c, 1, 63, 127
1, 82460, Note_off_c, 1, 64, 0
1, 82500, Note_off_c, 1, 63, 0
1, 82556, Note_off_c, 1, 58, 0
1, 82556, Note_off_c, 1, 49, 0
1, 82560, Note_on_c, 1, 61, 127
1, 82560, Note_on_c, 1, 55, 127
1, 82624, Note_on_c, 1, 60, 127
1, 82652, Note_off_c, 1, 61, 0
1, 82696, Note_off_c, 1, 60, 0
1, 82748, Note_off_c, 1, 55, 0
1, 82752, Note_on_c, 1, 48, 127
1, 82812, Note_on_c, 1, 57, 127
1, 82876, Note_on_c, 1, 66, 127
1, 82884, Note_off_c, 1, 57, 0
1, 82936, Note_off_c, 1, 66, 0
1, 82940, Note_off_c, 1, 48, 0
1, 82944, Note_on_c, 1, 66, 127
1, 82944, Note_on_c, 1, 48, 127
1, 83008, Note_on_c, 1, 47, 127
1, 83020, Note_off_c, 1, 48, 0
1, 83076, Note_on_c, 1, 45, 127
1, 83084, Note_off_c, 1, 47, 0
1, 83132, Note_off_c, 1, 66, 0
1, 83136, Note_on_c, 1, 67, 127
1, 83152, Note_off_c, 1, 45, 0
1, 83260, Note_on_c, 1, 50, 127
1, 83328, Note_on_c, 1, 51, 127
1, 83336, Note_off_c, 1, 50, 0
1, 83392, Note_on_c, 1, 69, 127
1, 83396, Note_off_c, 1, 67, 0
1, 83404, Note_off_c, 1, 51, 0
1, 83460, Note_on_c, 1, 71, 127
1, 83468, Note_off_c, 1, 69, 0
1, 83520, Note_on_c, 1, 72, 127
1, 83536, Note_off_c, 1, 71, 0
1, 83580, Note_on_c, 1, 74, 127
1, 83580, Note_on_c, 1, 53, 127
1, 83596, Note_off_c, 1, 72, 0
1, 83644, Note_on_c, 1, 75, 127
1, 83644, Note_on_c, 1, 55, 127
1, 83656, Note_off_c, 1, 74, 0
1, 83656, Note_off_c, 1, 53, 0
1, 83712, Note_on_c, 1, 65, 127
1, 83712, Note_on_c, 1, 56, 127
1, 83720, Note_off_c, 1, 75, 0
1, 83720, Note_off_c, 1, 55, 0
1, 83776, Note_on_c, 1, 60, 127
1, 83788, Note_off_c, 1, 65, 0
1, 83788, Note_off_c, 1, 56, 0
1, 83844, Note_on_c, 1, 58, 127
1, 83852, Note_off_c, 1, 60, 0
1, 83904, Note_on_c, 1, 77, 127
1, 83920, Note_off_c, 1, 58, 0
1, 83980, Note_off_c, 1, 77, 0
1, 84864, Note_on_c, 1, 63, 127
1, 84940, Note_off_c, 1, 63, 0
1, 85056, Note_on_c, 1, 62, 127
1, 85056, Note_on_c, 1, 43, 127
1, 85132, Note_off_c, 1, 62, 0
1, 85244, Note_off_c, 1, 43, 0
1, 85248, Note_on_c, 1, 36, 127
1, 85500, Note_on_c, 1, 39, 127
1, 85508, Note_off_c, 1, 36, 0
1, 85592, Note_off_c, 1, 39, 0
1, 86016, Note_on_c, 1, 79, 127
1, 86016, Note_on_c, 1, 43, 127
1, 86080, Note_on_c, 1, 74, 127
1, 86108, Note_off_c, 1, 79, 0
1, 86144, Note_on_c, 1, 70, 127
1, 86172, Note_off_c, 1, 74, 0
1, 86204, Note_off_c, 1, 43, 0
1, 86208, Note_on_c, 1, 67, 127
1, 86208, Note_on_c, 1, 55, 127
1, 86236, Note_off_c, 1, 70, 0
1, 86268, Note_on_c, 1, 62, 127
1, 86300, Note_off_c, 1, 67, 0
1, 86332, Note_on_c, 1, 58, 127
1, 86360, Note_off_c, 1, 62, 0
1, 86396, Note_off_c, 1, 55, 0
1, 86424, Note_off_c, 1, 58, 0
1, 86464, Note_on_c, 1, 50, 127
1, 86528, Note_off_c, 1, 50, 0
1, 86528, Note_on_c, 1, 48, 127
1, 86592, Note_off_c, 1, 48, 0
1, 86592, Note_on_c, 1, 82, 127
1, 86592, Note_on_c, 1, 46, 127
1, 86652, Note_on_c, 1, 45, 127
1, 86656, Note_off_c, 1, 46, 0
1, 86716, Note_off_c, 1, 45, 0
1, 86780, Note_off_c, 1, 82, 0
1, 86784, Note_on_c, 1, 82, 127
1, 86784, Note_on_c, 1, 79, 127
1, 86784, Note_on_c, 1, 74, 127
1, 86784, Note_on_c, 1, 50, 127
1, 86972, Note_off_c, 1, 82, 0
1, 86972, Note_off_c, 1, 79, 0
1, 86972, Note_off_c, 1, 74, 0
1, 86972, Note_off_c, 1, 50, 0
1, 86976, Note_on_c, 1, 81, 127
1, 86976, Note_on_c, 1, 78, 127
1, 86976, Note_on_c, 1, 38, 127
1, 87104, Note_off_c, 1, 81, 0
1, 87104, Note_off_c, 1, 78, 0
1, 87104, Note_off_c, 1, 38, 0
1, 87152, Note_on_c, 1, 75, 127
1, 87204, Note_on_c, 1, 74, 127
1, 87224, Note_off_c, 1, 75, 0
1, 87240, Note_off_c, 1, 74, 0
1, 87436, Note_on_c, 1, 73, 127
1, 87484, Note_off_c, 1, 73, 0
1, 87552, Note_on_c, 1, 84, 127
1, 87552, Note_on_c, 1, 42, 127
1, 87616, Note_on_c, 1, 81, 127
1, 87644, Note_off_c, 1, 84, 0
1, 87680, Note_on_c, 1, 78, 127
1, 87708, Note_off_c, 1, 81, 0
1, 87740, Note_off_c, 1, 42, 0
1, 87744, Note_on_c, 1, 74, 127
1, 87744, Note_on_c, 1, 54, 127
1, 87772, Note_off_c, 1, 78, 0
1, 87804, Note_on_c, 1, 69, 127
1, 87836, Note_off_c, 1, 74, 0
1, 87868, Note_on_c, 1, 66, 127
1, 87896, Note_off_c, 1, 69, 0
1, 87932, Note_off_c, 1, 54, 0
1, 87936, Note_on_c, 1, 62, 127
1, 87960, Note_off_c, 1, 66, 0
1, 88000, Note_on_c, 1, 57, 127
1, 88064, Note_off_c, 1, 62, 0
1, 88064, Note_off_c, 1, 57, 0
1, 88064, Note_on_c, 1, 55, 127
1, 88128, Note_off_c, 1, 55, 0
1, 88188, Note_on_c, 1, 52, 127
1, 88252, Note_off_c, 1, 52, 0
1, 88252, Note_on_c, 1, 50, 127
1, 88316, Note_off_c, 1, 50, 0
1, 88320, Note_on_c, 1, 78, 127
1, 88320, Note_on_c, 1, 84, 127
1, 88320, Note_on_c, 1, 74, 127
1, 88320, Note_on_c, 1, 81, 127
1, 88320, Note_on_c, 1, 55, 127
1, 88508, Note_off_c, 1, 78, 0
1, 88508, Note_off_c, 1, 84, 0
1, 88508, Note_off_c, 1, 74, 0
1, 88508, Note_off_c, 1, 81, 0
1, 88508, Note_off_c, 1, 55, 0
1, 88512, Note_on_c, 1, 79, 127
1, 88512, Note_on_c, 1, 82, 127
1, 88512, Note_on_c, 1, 43, 127
1, 88640, Note_off_c, 1, 79, 0
1, 88640, Note_off_c, 1, 82, 0
1, 88640, Note_off_c, 1, 43, 0
1, 88688, Note_on_c, 1, 75, 127
1, 88740, Note_on_c, 1, 74, 127
1, 88760, Note_off_c, 1, 75, 0
1, 88776, Note_off_c, 1, 74, 0
1, 88972, Note_on_c, 1, 73, 127
1, 89020, Note_off_c, 1, 73, 0
1, 89088, Note_on_c, 1, 77, 127
1, 89088, Note_on_c, 1, 59, 127
1, 89152, Note_on_c, 1, 74, 127
1, 89180, Note_off_c, 1, 77, 0
1, 89216, Note_on_c, 1, 71, 127
1, 89244, Note_off_c, 1, 74, 0
1, 89276, Note_off_c, 1, 59, 0
1, 89280, Note_on_c, 1, 68, 127
1, 89308, Note_off_c, 1, 71, 0
1, 89340, Note_on_c, 1, 65, 127
1, 89372, Note_off_c, 1, 68, 0
1, 89404, Note_on_c, 1, 62, 127
1, 89432, Note_off_c, 1, 65, 0
1, 89472, Note_on_c, 1, 55, 127
1, 89472, Note_on_c, 1, 43, 127
1, 89496, Note_off_c, 1, 62, 0
1, 89536, Note_on_c, 1, 47, 127
1, 89564, Note_off_c, 1, 43, 0
1, 89600, Note_off_c, 1, 55, 0
1, 89600, Note_on_c, 1, 50, 127
1, 89628, Note_off_c, 1, 47, 0
1, 89692, Note_off_c, 1, 50, 0
1, 89856, Note_on_c, 1, 60, 127
1, 89920, Note_on_c, 1, 79, 127
1, 89984, Note_off_c, 1, 60, 0
1, 89984, Note_on_c, 1, 75, 127
1, 89996, Note_off_c, 1, 79, 0
1, 90048, Note_on_c, 1, 72, 127
1, 90048, Note_on_c, 1, 48, 127
1, 90060, Note_off_c, 1, 75, 0
1, 90108, Note_on_c, 1, 67, 127
1, 90124, Note_off_c, 1, 72, 0
1, 90172, Note_on_c, 1, 63, 127
1, 90184, Note_off_c, 1, 67, 0
1, 90248, Note_off_c, 1, 63, 0
1, 90288, Note_off_c, 1, 48, 0
1, 90304, Note_on_c, 1, 51, 127
1, 90396, Note_off_c, 1, 51, 0
1, 90624, Note_on_c, 1, 57, 127
1, 90752, Note_on_c, 1, 69, 127
1, 90812, Note_off_c, 1, 57, 0
1, 90816, Note_on_c, 1, 66, 127
1, 90844, Note_off_c, 1, 69, 0
1, 90908, Note_off_c, 1, 66, 0
1, 91008, Note_on_c, 1, 41, 127
1, 91072, Note_on_c, 1, 45, 127
1, 91100, Note_off_c, 1, 41, 0
1, 91164, Note_off_c, 1, 45, 0
1, 91200, Note_on_c, 1, 53, 127
1, 91292, Note_off_c, 1, 53, 0
1, 91392, Note_on_c, 1, 58, 127
1, 91520, Note_off_c, 1, 58, 0
1, 91584, Note_on_c, 1, 70, 127
1, 91584, Note_on_c, 1, 46, 127
1, 91660, Note_off_c, 1, 70, 0
1, 91824, Note_off_c, 1, 46, 0
1, 92736, Note_on_c, 1, 52, 127
1, 92808, Note_off_c, 1, 52, 0
1, 92860, Note_on_c, 1, 54, 127
1, 92932, Note_off_c, 1, 54, 0
1, 93376, Note_on_c, 1, 56, 127
1, 93448, Note_off_c, 1, 56, 0
1, 93828, Note_on_c, 1, 73, 127
1, 93888, Note_on_c, 1, 44, 127
1, 93900, Note_off_c, 1, 73, 0
1, 94012, Note_on_c, 1, 76, 127
1, 94084, Note_off_c, 1, 76, 0
1, 94184, Note_off_c, 1, 44, 0
1, 94912, Note_on_c, 1, 49, 127
1, 94984, Note_off_c, 1, 49, 0
1, 95040, Note_on_c, 1, 84, 127
1, 95304, Note_off_c, 1, 84, 0
1, 95364, Note_on_c, 1, 78, 127
1, 95424, Note_on_c, 1, 61, 127
1, 95436, Note_off_c, 1, 78, 0
1, 95484, Note_on_c, 1, 80, 127
1, 95548, Note_on_c, 1, 81, 127
1, 95556, Note_off_c, 1, 80, 0
1, 95616, Note_on_c, 1, 82, 127
1, 95620, Note_off_c, 1, 81, 0
1, 95652, Note_off_c, 1, 82, 0
1, 95720, Note_off_c, 1, 61, 0
1, 95932, Note_on_c, 1, 64, 127
1, 96004, Note_off_c, 1, 64, 0
1, 111996, Note_on_c, 1, 39, 127
1, 112060, Note_on_c, 1, 38, 127
1, 112072, Note_off_c, 1, 39, 0
1, 112128, Note_on_c, 1, 36, 127
1, 112136, Note_off_c, 1, 38, 0
1, 112316, Note_off_c, 1, 36, 0
1, 112896, Note_on_c, 1, 84, 127
1, 112896, Note_on_c, 1, 79, 127
1, 112896, Note_on_c, 1, 75, 127
1, 112896, Note_on_c, 1, 55, 127
1, 112932, Note_on_c, 1, 54, 127
1, 112944, Note_off_c, 1, 55, 0
1, 112980, Note_off_c, 1, 54, 0
1, 113084, Note_off_c, 1, 84, 0
1, 113084, Note_off_c, 1, 79, 0
1, 113084, Note_off_c, 1, 75, 0
1, 113088, Note_on_c, 1, 74, 127
1, 113088, Note_on_c, 1, 83, 127
1, 113088, Note_on_c, 1, 43, 127
1, 113216, Note_off_c, 1, 74, 0
1, 113216, Note_off_c, 1, 83, 0
1, 113216, Note_off_c, 1, 43, 0
1, 113316, Note_on_c, 1, 77, 127
1, 113352, Note_off_c, 1, 77, 0
1, 113352, Note_on_c, 1, 79, 127
1, 113388, Note_off_c, 1, 79, 0
1, 113548, Note_on_c, 1, 76, 127
1, 113596, Note_off_c, 1, 76, 0
1, 113664, Note_on_c, 1, 82, 127
1, 113664, Note_on_c, 1, 40, 127
1, 113728, Note_on_c, 1, 79, 127
1, 113756, Note_off_c, 1, 82, 0
1, 113792, Note_on_c, 1, 76, 127
1, 113820, Note_off_c, 1, 79, 0
1, 113852, Note_off_c, 1, 40, 0
1, 113856, Note_on_c, 1, 72, 127
1, 113856, Note_on_c, 1, 52, 127
1, 113884, Note_off_c, 1, 76, 0
1, 113916, Note_on_c, 1, 67, 127
1, 113948, Note_off_c, 1, 72, 0
1, 113980, Note_on_c, 1, 64, 127
1, 114008, Note_off_c, 1, 67, 0
1, 114044, Note_off_c, 1, 52, 0
1, 114048, Note_on_c, 1, 60, 127
1, 114072, Note_off_c, 1, 64, 0
1, 114112, Note_on_c, 1, 55, 127
1, 114176, Note_off_c, 1, 60, 0
1, 114176, Note_off_c, 1, 55, 0
1, 114176, Note_on_c, 1, 53, 127
1, 114240, Note_off_c, 1, 53, 0
1, 114300, Note_on_c, 1, 50, 127
1, 114364, Note_off_c, 1, 50, 0
1, 114364, Note_on_c, 1, 48, 127
1, 114428, Note_off_c, 1, 48, 0
1, 114432, Note_on_c, 1, 79, 127
1, 114432, Note_on_c, 1, 72, 127
1, 114432, Note_on_c, 1, 82, 127
1, 114432, Note_on_c, 1, 53, 127
1, 114468, Note_on_c, 1, 52, 127
1, 114480, Note_off_c, 1, 53, 0
1, 114516, Note_off_c, 1, 52, 0
1, 114620, Note_off_c, 1, 79, 0
1, 114620, Note_off_c, 1, 72, 0
1, 114620, Note_off_c, 1, 82, 0
1, 114624, Note_on_c, 1, 77, 127
1, 114624, Note_on_c, 1, 81, 127
1, 114624, Note_on_c, 1, 41, 127
1, 114752, Note_off_c, 1, 77, 0
1, 114752, Note_off_c, 1, 81, 0
1, 114752, Note_off_c, 1, 41, 0
1, 114800, Note_on_c, 1, 74, 127
1, 114852, Note_on_c, 1, 72, 127
1, 114872, Note_off_c, 1, 74, 0
1, 114888, Note_off_c, 1, 72, 0
1, 115084, Note_on_c, 1, 71, 127
1, 115132, Note_off_c, 1, 71, 0
1, 115200, Note_on_c, 1, 80, 127
1, 115200, Note_on_c, 1, 38, 127
1, 115264, Note_on_c, 1, 77, 127
1, 115276, Note_off_c, 1, 80, 0
1, 115332, Note_on_c, 1, 74, 127
1, 115340, Note_off_c, 1, 77, 0
1, 115388, Note_off_c, 1, 38, 0
1, 115392, Note_on_c, 1, 71, 127
1, 115392, Note_on_c, 1, 50, 127
1, 115408, Note_off_c, 1, 74, 0
1, 115452, Note_on_c, 1, 65, 127
1, 115468, Note_off_c, 1, 71, 0
1, 115516, Note_on_c, 1, 62, 127
1, 115528, Note_off_c, 1, 65, 0
1, 115540, Note_off_c, 1, 50, 0
1, 115584, Note_on_c, 1, 59, 127
1, 115592, Note_off_c, 1, 62, 0
1, 115660, Note_off_c, 1, 59, 0
1, 115776, Note_on_c, 1, 68, 127
1, 115776, Note_on_c, 1, 48, 127
1, 115852, Note_off_c, 1, 68, 0
1, 115964, Note_off_c, 1, 48, 0
1, 115968, Note_on_c, 1, 47, 127
1, 116156, Note_off_c, 1, 47, 0
1, 116160, Note_on_c, 1, 67, 127
1, 116236, Note_off_c, 1, 67, 0
1, 116352, Note_on_c, 1, 55, 127
1, 116352, Note_on_c, 1, 53, 127
1, 116416, Note_on_c, 1, 43, 127
1, 116420, Note_off_c, 1, 53, 0
1, 116480, Note_off_c, 1, 55, 0
1, 116484, Note_on_c, 1, 45, 127
1, 116492, Note_off_c, 1, 43, 0
1, 116544, Note_on_c, 1, 79, 127
1, 116560, Note_off_c, 1, 45, 0
1, 116736, Note_off_c, 1, 79, 0
1, 116736, Note_on_c, 1, 72, 127
1, 116736, Note_on_c, 1, 51, 127
1, 116768, Note_off_c, 1, 72, 0
1, 116812, Note_off_c, 1, 51, 0
1, 116868, Note_on_c, 1, 46, 127
1, 116928, Note_on_c, 1, 44, 127
1, 116944, Note_off_c, 1, 46, 0
1, 117004, Note_off_c, 1, 44, 0
1, 117052, Note_on_c, 1, 41, 127
1, 117120, Note_on_c, 1, 75, 127
1, 117128, Note_off_c, 1, 41, 0
1, 117160, Note_off_c, 1, 75, 0
1, 117504, Note_on_c, 1, 56, 127
1, 117664, Note_off_c, 1, 56, 0
1, 117820, Note_on_c, 1, 70, 127
1, 117888, Note_on_c, 1, 58, 127
1, 117892, Note_off_c, 1, 70, 0
1, 117952, Note_on_c, 1, 64, 127
1, 118024, Note_off_c, 1, 64, 0
1, 118048, Note_off_c, 1, 58, 0
1, 118080, Note_on_c, 1, 61, 127
1, 118080, Note_on_c, 1, 52, 127
1, 118140, Note_on_c, 1, 60, 127
1, 118172, Note_off_c, 1, 61, 0
1, 118212, Note_off_c, 1, 60, 0
1, 118240, Note_off_c, 1, 52, 0
1, 118272, Note_on_c, 1, 70, 127
1, 118272, Note_on_c, 1, 53, 127
1, 118336, Note_on_c, 1, 69, 127
1, 118364, Note_off_c, 1, 70, 0
1, 118404, Note_on_c, 1, 72, 127
1, 118408, Note_off_c, 1, 69, 0
1, 118460, Note_off_c, 1, 53, 0
1, 118464, Note_on_c, 1, 66, 127
1, 118464, Note_on_c, 1, 51, 127
1, 118464, Note_on_c, 1, 60, 127
1, 118476, Note_off_c, 1, 72, 0
1, 118524, Note_on_c, 1, 65, 127
1, 118556, Note_off_c, 1, 66, 0
1, 118588, Note_on_c, 1, 68, 127
1, 118596, Note_off_c, 1, 65, 0
1, 118652, Note_off_c, 1, 51, 0
1, 118652, Note_off_c, 1, 60, 0
1, 118656, Note_on_c, 1, 63, 127
1, 118656, Note_on_c, 1, 56, 127
1, 118660, Note_off_c, 1, 68, 0
1, 118720, Note_on_c, 1, 62, 127
1, 118748, Note_off_c, 1, 63, 0
1, 118792, Note_off_c, 1, 62, 0
1, 118844, Note_off_c, 1, 56, 0
1, 118848, Note_on_c, 1, 59, 127
1, 118848, Note_on_c, 1, 50, 127
1, 118908, Note_on_c, 1, 58, 127
1, 118940, Note_off_c, 1, 59, 0
1, 118980, Note_off_c, 1, 58, 0
1, 119036, Note_off_c, 1, 50, 0
1, 119040, Note_on_c, 1, 68, 127
1, 119040, Note_on_c, 1, 51, 127
1, 119104, Note_on_c, 1, 67, 127
1, 119132, Note_off_c, 1, 68, 0
1, 119172, Note_on_c, 1, 70, 127
1, 119176, Note_off_c, 1, 67, 0
1, 119228, Note_off_c, 1, 51, 0
1, 119232, Note_on_c, 1, 64, 127
1, 119232, Note_on_c, 1, 58, 127
1, 119232, Note_on_c, 1, 49, 127
1, 119244, Note_off_c, 1, 70, 0
1, 119292, Note_on_c, 1, 63, 127
1, 119324, Note_off_c, 1, 64, 0
1, 119364, Note_off_c, 1, 63, 0
1, 119420, Note_off_c, 1, 58, 0
1, 119420, Note_off_c, 1, 49, 0
1, 119424, Note_on_c, 1, 61, 127
1, 119424, Note_on_c, 1, 55, 127
1, 119488, Note_on_c, 1, 60, 127
1, 119516, Note_off_c, 1, 61, 0
1, 119560, Note_off_c, 1, 60, 0
1, 119612, Note_off_c, 1, 55, 0
1, 119616, Note_on_c, 1, 48, 127
1, 119676, Note_on_c, 1, 57, 127
1, 119740, Note_on_c, 1, 66, 127
1, 119748, Note_off_c, 1, 57, 0
1, 119800, Note_off_c, 1, 66, 0
1, 119804, Note_off_c, 1, 48, 0
1, 119808, Note_on_c, 1, 66, 127
1, 119808, Note_on_c, 1, 48, 127
1, 119872, Note_on_c, 1, 47, 127
1, 119884, Note_off_c, 1, 48, 0
1, 119940, Note_on_c, 1, 45, 127
1, 119948, Note_off_c, 1, 47, 0
1, 119996, Note_off_c, 1, 66, 0
1, 120000, Note_on_c, 1, 67, 127
1, 120016, Note_off_c, 1, 45, 0
1, 120124, Note_on_c, 1, 50, 127
1, 120192, Note_on_c, 1, 51, 127
1, 120200, Note_off_c, 1, 50, 0
1, 120256, Note_on_c, 1, 69, 127
1, 120260, Note_off_c, 1, 67, 0
1, 120268, Note_off_c, 1, 51, 0
1, 120324, Note_on_c, 1, 71, 127
1, 120332, Note_off_c, 1, 69, 0
1, 120384, Note_on_c, 1, 72, 127
1, 120400, Note_off_c, 1, 71, 0
1, 120444, Note_on_c, 1, 74, 127
1, 120444, Note_on_c, 1, 53, 127
1, 120460, Note_off_c, 1, 72, 0
1, 120508, Note_on_c, 1, 75, 127
1, 120508, Note_on_c, 1, 55, 127
1, 120520, Note_off_c, 1, 74, 0
1, 120520, Note_off_c, 1, 53, 0
1, 120576, Note_on_c, 1, 65, 127
1, 120576, Note_on_c, 1, 56, 127
1, 120584, Note_off_c, 1, 75, 0
1, 120584, Note_off_c, 1, 55, 0
1, 120640, Note_on_c, 1, 60, 127
1, 120652, Note_off_c, 1, 65, 0
1, 120652, Note_off_c, 1, 56, 0
1, 120708, Note_on_c, 1, 58, 127
1, 120716, Note_off_c, 1, 60, 0
1, 120768, Note_on_c, 1, 77, 127
1, 120784, Note_off_c, 1, 58, 0
1, 120844, Note_off_c, 1, 77, 0
1, 121728, Note_on_c, 1, 63, 127
1, 121804, Note_off_c, 1, 63, 0
1, 121920, Note_on_c, 1, 62, 127
1, 121920, Note_on_c, 1, 43, 127
1, 121996, Note_off_c, 1, 62, 0
1, 122108, Note_off_c, 1, 43, 0
1, 122112, Note_on_c, 1, 36, 127
1, 122364, Note_on_c, 1, 39, 127
1, 123260, Note_off_c, 1, 36, 0
1, 123260, Note_off_c, 1, 39, 0
1, 123260, End_track
0, 0, End_of_file