0, 0, Header, 1, 1, 480
1, 0, Start_track
1, 0, Title_t, "Test"
1, 0, Tempo, 500000
1, 0, Instrument_name_t, "Church Organ"
1, 96, Note_on_c, 1, 69, 127
1, 96, Note_on_c, 1, 81, 127
1, 96, Note_on_c, 1, 76, 127
1, 96, Note_on_c, 1, 72, 127
1, 96, Note_on_c, 1, 60, 127
1, 96, Note_on_c, 1, 64, 127
1, 96, Note_on_c, 1, 57, 127
1, 967, Note_off_c, 1, 69, 0
1, 967, Note_off_c, 1, 81, 0
1, 967, Note_off_c, 1, 76, 0
1, 967, Note_off_c, 1, 72, 0
1, 967, Note_off_c, 1, 60, 0
1, 996, Note_off_c, 1, 64, 0
1, 996, Note_off_c, 1, 57, 0
1, 1143, Note_on_c, 1, 81, 127
1, 1143, Note_on_c, 1, 76, 127
1, 1143, Note_on_c, 1, 72, 127
1, 1143, Note_on_c, 1, 64, 127
1, 1143, Note_on_c, 1, 57, 127
1, 1488, Note_off_c, 1, 81, 0
1, 1488, Note_off_c, 1, 76, 0
1, 1488, Note_off_c, 1, 72, 0
1, 1488, Note_off_c, 1, 64, 0
1, 1488, Note_off_c, 1, 57, 0
1, 1492, Note_on_c, 1, 79, 127
1, 1492, Note_on_c, 1, 64, 127
1, 1492, Note_on_c, 1, 71, 127
1, 1492, Note_on_c, 1, 67, 127
1, 1837, Note_off_c, 1, 79, 0
1, 1837, Note_off_c, 1, 64, 0
1, 1841, Note_on_c, 1, 77, 127
1, 1841, Note_on_c, 1, 62, 127
1, 2181, Note_off_c, 1, 71, 0
1, 2181, Note_off_c, 1, 67, 0
1, 2186, Note_off_c, 1, 77, 0
1, 2186, Note_off_c, 1, 62, 0
1, 2190, Note_on_c, 1, 76, 127
1, 2190, Note_on_c, 1, 69, 127
1, 2190, Note_on_c, 1, 72, 127
1, 2190, Note_on_c, 1, 60, 127
1, 2535, Note_off_c, 1, 76, 0
1, 2535, Note_off_c, 1, 69, 0
1, 2535, Note_off_c, 1, 72, 0
1, 2535, Note_off_c, 1, 60, 0
1, 2539, Note_on_c, 1, 74, 127
1, 2539, Note_on_c, 1, 68, 127
1, 2539, Note_on_c, 1, 62, 127
1, 2539, Note_on_c, 1, 59, 127
1, 2884, Note_off_c, 1, 74, 0
1, 2884, Note_off_c, 1, 68, 0
1, 2884, Note_off_c, 1, 62, 0
1, 2884, Note_off_c, 1, 59, 0
1, 2888, Note_on_c, 1, 74, 127
1, 2888, Note_on_c, 1, 69, 127
1, 2888, Note_on_c, 1, 64, 127
1, 2888, Note_on_c, 1, 57, 127
1, 3233, Note_off_c, 1, 74, 0
1, 3237, Note_on_c, 1, 72, 127
1, 3582, Note_off_c, 1, 72, 0
1, 3759, Note_off_c, 1, 69, 0
1, 3759, Note_off_c, 1, 64, 0
1, 3759, Note_off_c, 1, 57, 0
1, 3936, Note_on_c, 1, 76, 127
1, 3936, Note_on_c, 1, 67, 127
1, 3936, Note_on_c, 1, 71, 127
1, 3936, Note_on_c, 1, 64, 127
1, 3936, Note_on_c, 1, 55, 127
1, 3936, Note_on_c, 1, 59, 127
1, 4281, Note_off_c, 1, 76, 0
1, 4281, Note_off_c, 1, 67, 0
1, 4281, Note_off_c, 1, 71, 0
1, 4281, Note_off_c, 1, 64, 0
1, 4281, Note_off_c, 1, 55, 0
1, 4281, Note_off_c, 1, 59, 0
1, 4285, Note_on_c, 1, 74, 127
1, 4285, Note_on_c, 1, 65, 127
1, 4285, Note_on_c, 1, 69, 127
1, 4285, Note_on_c, 1, 62, 127
1, 4285, Note_on_c, 1, 53, 127
1, 4285, Note_on_c, 1, 57, 127
1, 4630, Note_off_c, 1, 74, 0
1, 4630, Note_off_c, 1, 65, 0
1, 4630, Note_off_c, 1, 69, 0
1, 4630, Note_off_c, 1, 62, 0
1, 4630, Note_off_c, 1, 53, 0
1, 4630, Note_off_c, 1, 57, 0
1, 4634, Note_on_c, 1, 67, 127
1, 4634, Note_on_c, 1, 72, 127
1, 4634, Note_on_c, 1, 64, 127
1, 4634, Note_on_c, 1, 52, 127
1, 4634, Note_on_c, 1, 60, 127
1, 4634, Note_on_c, 1, 55, 127
1, 4979, Note_off_c, 1, 67, 0
1, 4979, Note_off_c, 1, 72, 0
1, 4979, Note_off_c, 1, 64, 0
1, 4979, Note_off_c, 1, 52, 0
1, 4979, Note_off_c, 1, 60, 0
1, 4979, Note_off_c, 1, 55, 0
1, 4983, Note_on_c, 1, 71, 127
1, 4983, Note_on_c, 1, 62, 127
1, 4983, Note_on_c, 1, 65, 127
1, 4983, Note_on_c, 1, 59, 127
1, 4983, Note_on_c, 1, 50, 127
1, 4983, Note_on_c, 1, 53, 127
1, 5328, Note_off_c, 1, 71, 0
1, 5328, Note_off_c, 1, 62, 0
1, 5328, Note_off_c, 1, 65, 0
1, 5328, Note_off_c, 1, 59, 0
1, 5328, Note_off_c, 1, 50, 0
1, 5328, Note_off_c, 1, 53, 0
1, 5332, Note_on_c, 1, 60, 127
1, 5332, Note_on_c, 1, 64, 127
1, 5332, Note_on_c, 1, 69, 127
1, 5332, Note_on_c, 1, 48, 127
1, 5332, Note_on_c, 1, 57, 127
1, 5332, Note_on_c, 1, 52, 127
1, 5677, Note_off_c, 1, 60, 0
1, 5677, Note_off_c, 1, 64, 0
1, 5677, Note_off_c, 1, 69, 0
1, 5677, Note_off_c, 1, 48, 0
1, 5677, Note_off_c, 1, 57, 0
1, 5677, Note_off_c, 1, 52, 0
1, 5681, Note_on_c, 1, 69, 127
1, 5681, Note_on_c, 1, 65, 127
1, 5681, Note_on_c, 1, 62, 127
1, 5681, Note_on_c, 1, 47, 127
1, 5681, Note_on_c, 1, 59, 127
1, 5681, Note_on_c, 1, 50, 127
1, 6026, Note_off_c, 1, 69, 0
1, 6030, Note_on_c, 1, 68, 127
1, 6375, Note_off_c, 1, 68, 0
1, 6552, Note_off_c, 1, 65, 0
1, 6552, Note_off_c, 1, 62, 0
1, 6552, Note_off_c, 1, 47, 0
1, 6552, Note_off_c, 1, 59, 0
1, 6552, Note_off_c, 1, 50, 0
1, 6729, Note_on_c, 1, 69, 127
1, 6729, Note_on_c, 1, 60, 127
1, 6729, Note_on_c, 1, 64, 127
1, 6729, Note_on_c, 1, 57, 127
1, 6729, Note_on_c, 1, 48, 127
1, 6729, Note_on_c, 1, 52, 127
1, 7074, Note_off_c, 1, 69, 0
1, 7074, Note_off_c, 1, 60, 0
1, 7074, Note_off_c, 1, 64, 0
1, 7074, Note_off_c, 1, 57, 0
1, 7074, Note_off_c, 1, 48, 0
1, 7074, Note_off_c, 1, 52, 0
1, 7078, Note_on_c, 1, 69, 127
1, 7078, Note_on_c, 1, 62, 127
1, 7078, Note_on_c, 1, 47, 127
1, 7078, Note_on_c, 1, 50, 127
1, 7078, Note_on_c, 1, 59, 127
1, 7423, Note_off_c, 1, 69, 0
1, 7427, Note_on_c, 1, 68, 127
1, 7772, Note_off_c, 1, 68, 0
1, 7949, Note_off_c, 1, 62, 0
1, 7949, Note_off_c, 1, 47, 0
1, 7949, Note_off_c, 1, 50, 0
1, 7949, Note_off_c, 1, 59, 0
1, 8126, Note_on_c, 1, 69, 127
1, 8126, Note_on_c, 1, 64, 127
1, 8126, Note_on_c, 1, 60, 127
1, 8126, Note_on_c, 1, 48, 127
1, 8126, Note_on_c, 1, 52, 127
1, 8126, Note_on_c, 1, 57, 127
1, 8471, Note_off_c, 1, 69, 0
1, 8471, Note_off_c, 1, 64, 0
1, 8471, Note_off_c, 1, 60, 0
1, 8471, Note_off_c, 1, 48, 0
1, 8471, Note_off_c, 1, 52, 0
1, 8471, Note_off_c, 1, 57, 0
1, 8475, Note_on_c, 1, 69, 127
1, 8475, Note_on_c, 1, 62, 127
1, 8475, Note_on_c, 1, 65, 127
1, 8475, Note_on_c, 1, 59, 127
1, 8475, Note_on_c, 1, 50, 127
1, 8475, Note_on_c, 1, 53, 127
1, 8820, Note_off_c, 1, 69, 0
1, 8824, Note_on_c, 1, 71, 127
1, 9164, Note_off_c, 1, 62, 0
1, 9164, Note_off_c, 1, 65, 0
1, 9169, Note_off_c, 1, 59, 0
1, 9169, Note_off_c, 1, 50, 0
1, 9169, Note_off_c, 1, 53, 0
1, 9169, Note_off_c, 1, 71, 0
1, 9173, Note_on_c, 1, 71, 127
1, 9173, Note_on_c, 1, 62, 127
1, 9173, Note_on_c, 1, 68, 127
1, 9173, Note_on_c, 1, 56, 127
1, 9173, Note_on_c, 1, 47, 127
1, 9173, Note_on_c, 1, 50, 127
1, 9518, Note_off_c, 1, 71, 0
1, 9522, Note_on_c, 1, 72, 127
1, 9862, Note_off_c, 1, 62, 0
1, 9862, Note_off_c, 1, 68, 0
1, 9867, Note_off_c, 1, 56, 0
1, 9867, Note_off_c, 1, 47, 0
1, 9867, Note_off_c, 1, 50, 0
1, 9867, Note_off_c, 1, 72, 0
1, 9871, Note_on_c, 1, 72, 127
1, 9871, Note_on_c, 1, 69, 127
1, 9871, Note_on_c, 1, 64, 127
1, 9871, Note_on_c, 1, 48, 127
1, 9871, Note_on_c, 1, 45, 127
1, 9871, Note_on_c, 1, 52, 127
1, 9871, Note_on_c, 1, 57, 127
1, 10216, Note_off_c, 1, 72, 0
1, 10216, Note_off_c, 1, 69, 0
1, 10220, Note_on_c, 1, 71, 127
1, 10560, Note_off_c, 1, 64, 0
1, 10565, Note_off_c, 1, 48, 0
1, 10565, Note_off_c, 1, 45, 0
1, 10565, Note_off_c, 1, 52, 0
1, 10565, Note_off_c, 1, 57, 0
1, 10565, Note_off_c, 1, 71, 0
1, 10569, Note_on_c, 1, 71, 127
1, 10569, Note_on_c, 1, 64, 127
1, 10569, Note_on_c, 1, 56, 127
1, 10569, Note_on_c, 1, 59, 127
1, 10914, Note_off_c, 1, 71, 0
1, 10918, Note_on_c, 1, 72, 127
1, 11258, Note_off_c, 1, 64, 0
1, 11263, Note_off_c, 1, 56, 0
1, 11263, Note_off_c, 1, 59, 0
1, 11263, Note_off_c, 1, 72, 0
1, 11267, Note_on_c, 1, 72, 127
1, 11267, Note_on_c, 1, 64, 127
1, 11267, Note_on_c, 1, 69, 127
1, 11267, Note_on_c, 1, 60, 127
1, 11267, Note_on_c, 1, 57, 127
1, 11612, Note_off_c, 1, 72, 0
1, 11616, Note_on_c, 1, 74, 127
1, 11956, Note_off_c, 1, 64, 0
1, 11956, Note_off_c, 1, 69, 0
1, 11961, Note_off_c, 1, 60, 0
1, 11961, Note_off_c, 1, 57, 0
1, 11961, Note_off_c, 1, 74, 0
1, 11965, Note_on_c, 1, 74, 127
1, 11965, Note_on_c, 1, 66, 127
1, 11965, Note_on_c, 1, 57, 127
1, 11965, Note_on_c, 1, 54, 127
1, 11965, Note_on_c, 1, 69, 127
1, 12310, Note_off_c, 1, 74, 0
1, 12310, Note_off_c, 1, 66, 0
1, 12310, Note_off_c, 1, 57, 0
1, 12310, Note_off_c, 1, 54, 0
1, 12314, Note_on_c, 1, 75, 127
1, 12314, Note_on_c, 1, 71, 127
1, 12314, Note_on_c, 1, 59, 127
1, 12654, Note_off_c, 1, 69, 0
1, 12659, Note_off_c, 1, 75, 0
1, 12659, Note_off_c, 1, 71, 0
1, 12659, Note_off_c, 1, 59, 0
1, 12663, Note_on_c, 1, 71, 127
1, 12663, Note_on_c, 1, 76, 127
1, 12663, Note_on_c, 1, 64, 127
1, 12663, Note_on_c, 1, 68, 127
1, 12663, Note_on_c, 1, 59, 127
1, 12663, Note_on_c, 1, 52, 127
1, 14056, Note_off_c, 1, 71, 0
1, 14056, Note_off_c, 1, 76, 0
1, 14056, Note_off_c, 1, 64, 0
1, 14056, Note_off_c, 1, 68, 0
1, 14056, Note_off_c, 1, 59, 0
1, 14056, Note_off_c, 1, 52, 0
1, 14108, Note_on_c, 1, 56, 127
1, 14108, Note_on_c, 1, 52, 127
1, 14108, Note_on_c, 1, 64, 127
1, 14108, Note_on_c, 1, 59, 127
1, 14108, Note_on_c, 1, 71, 127
1, 14108, Note_on_c, 1, 80, 127
1, 14108, Note_on_c, 1, 76, 127
1, 14108, Note_on_c, 1, 83, 127
1, 14979, Note_off_c, 1, 56, 0
1, 14979, Note_off_c, 1, 52, 0
1, 14979, Note_off_c, 1, 64, 0
1, 14979, Note_off_c, 1, 59, 0
1, 14979, Note_off_c, 1, 71, 0
1, 14979, Note_off_c, 1, 80, 0
1, 14979, Note_off_c, 1, 76, 0
1, 14979, Note_off_c, 1, 83, 0
1, 15155, Note_on_c, 1, 56, 127
1, 15155, Note_on_c, 1, 62, 127
1, 15155, Note_on_c, 1, 83, 127
1, 15500, Note_off_c, 1, 56, 0
1, 15500, Note_off_c, 1, 62, 0
1, 15500, Note_off_c, 1, 83, 0
1, 15504, Note_on_c, 1, 84, 127
1, 15504, Note_on_c, 1, 60, 127
1, 15504, Note_on_c, 1, 57, 127
1, 15849, Note_off_c, 1, 84, 0
1, 15853, Note_on_c, 1, 77, 127
1, 16198, Note_off_c, 1, 77, 0
1, 16375, Note_off_c, 1, 60, 0
1, 16375, Note_off_c, 1, 57, 0
1, 16552, Note_on_c, 1, 60, 127
1, 16552, Note_on_c, 1, 57, 127
1, 16552, Note_on_c, 1, 84, 127
1, 16897, Note_off_c, 1, 60, 0
1, 16897, Note_off_c, 1, 57, 0
1, 16897, Note_off_c, 1, 84, 0
1, 16901, Note_on_c, 1, 83, 127
1, 16901, Note_on_c, 1, 56, 127
1, 16901, Note_on_c, 1, 62, 127
1, 17246, Note_off_c, 1, 83, 0
1, 17250, Note_on_c, 1, 76, 127
1, 17595, Note_off_c, 1, 76, 0
1, 17772, Note_off_c, 1, 56, 0
1, 17772, Note_off_c, 1, 62, 0
1, 17949, Note_on_c, 1, 62, 127
1, 17949, Note_on_c, 1, 56, 127
1, 17949, Note_on_c, 1, 83, 127
1, 18294, Note_off_c, 1, 62, 0
1, 18294, Note_off_c, 1, 56, 0
1, 18294, Note_off_c, 1, 83, 0
1, 18298, Note_on_c, 1, 84, 127
1, 18298, Note_on_c, 1, 60, 127
1, 18298, Note_on_c, 1, 57, 127
1, 18643, Note_off_c, 1, 84, 0
1, 18647, Note_on_c, 1, 77, 127
1, 18992, Note_off_c, 1, 77, 0
1, 19169, Note_off_c, 1, 60, 0
1, 19169, Note_off_c, 1, 57, 0
1, 19346, Note_on_c, 1, 57, 127
1, 19346, Note_on_c, 1, 60, 127
1, 19346, Note_on_c, 1, 84, 127
1, 19691, Note_off_c, 1, 57, 0
1, 19691, Note_off_c, 1, 60, 0
1, 19691, Note_off_c, 1, 84, 0
1, 19695, Note_on_c, 1, 83, 127
1, 19695, Note_on_c, 1, 62, 127
1, 19695, Note_on_c, 1, 56, 127
1, 20040, Note_off_c, 1, 83, 0
1, 20044, Note_on_c, 1, 76, 127
1, 20389, Note_off_c, 1, 76, 0
1, 20566, Note_off_c, 1, 62, 0
1, 20566, Note_off_c, 1, 56, 0
1, 20743, Note_on_c, 1, 57, 127
1, 20743, Note_on_c, 1, 60, 127
1, 20743, Note_on_c, 1, 69, 127
1, 20743, Note_on_c, 1, 81, 127
1, 21088, Note_off_c, 1, 57, 0
1, 21088, Note_off_c, 1, 60, 0
1, 21088, Note_off_c, 1, 69, 0
1, 21088, Note_off_c, 1, 81, 0
1, 21092, Note_on_c, 1, 57, 127
1, 21092, Note_on_c, 1, 60, 127
1, 21092, Note_on_c, 1, 69, 127
1, 21092, Note_on_c, 1, 77, 127
1, 21437, Note_off_c, 1, 57, 0
1, 21437, Note_off_c, 1, 60, 0
1, 21437, Note_off_c, 1, 69, 0
1, 21437, Note_off_c, 1, 77, 0
1, 21441, Note_on_c, 1, 62, 127
1, 21441, Note_on_c, 1, 59, 127
1, 21441, Note_on_c, 1, 76, 127
1, 21441, Note_on_c, 1, 68, 127
1, 21786, Note_off_c, 1, 62, 0
1, 21786, Note_off_c, 1, 59, 0
1, 21786, Note_off_c, 1, 76, 0
1, 21786, Note_off_c, 1, 68, 0
1, 21790, Note_on_c, 1, 76, 127
1, 21790, Note_on_c, 1, 69, 127
1, 21790, Note_on_c, 1, 64, 127
1, 21790, Note_on_c, 1, 60, 127
1, 22135, Note_off_c, 1, 76, 0
1, 22139, Note_on_c, 1, 74, 127
1, 22479, Note_off_c, 1, 69, 0
1, 22484, Note_off_c, 1, 64, 0
1, 22484, Note_off_c, 1, 60, 0
1, 22484, Note_off_c, 1, 74, 0
1, 22488, Note_on_c, 1, 74, 127
1, 22488, Note_on_c, 1, 68, 127
1, 22488, Note_on_c, 1, 64, 127
1, 22488, Note_on_c, 1, 59, 127
1, 22833, Note_off_c, 1, 74, 0
1, 22837, Note_on_c, 1, 72, 127
1, 23177, Note_off_c, 1, 68, 0
1, 23177, Note_off_c, 1, 64, 0
1, 23182, Note_off_c, 1, 59, 0
1, 23182, Note_off_c, 1, 72, 0
1, 23186, Note_on_c, 1, 72, 127
1, 23186, Note_on_c, 1, 64, 127
1, 23186, Note_on_c, 1, 69, 127
1, 23186, Note_on_c, 1, 57, 127
1, 23531, Note_off_c, 1, 72, 0
1, 23535, Note_on_c, 1, 77, 127
1, 23875, Note_off_c, 1, 64, 0
1, 23875, Note_off_c, 1, 69, 0
1, 23880, Note_off_c, 1, 57, 0
1, 23880, Note_off_c, 1, 77, 0
1, 23884, Note_on_c, 1, 76, 127
1, 23884, Note_on_c, 1, 64, 127
1, 23884, Note_on_c, 1, 69, 127
1, 23884, Note_on_c, 1, 60, 127
1, 24229, Note_off_c, 1, 76, 0
1, 24233, Note_on_c, 1, 74, 127
1, 24573, Note_off_c, 1, 64, 0
1, 24573, Note_off_c, 1, 69, 0
1, 24578, Note_off_c, 1, 60, 0
1, 24578, Note_off_c, 1, 74, 0
1, 24582, Note_on_c, 1, 74, 127
1, 24582, Note_on_c, 1, 64, 127
1, 24582, Note_on_c, 1, 68, 127
1, 24582, Note_on_c, 1, 59, 127
1, 24927, Note_off_c, 1, 74, 0
1, 24931, Note_on_c, 1, 72, 127
1, 25271, Note_off_c, 1, 64, 0
1, 25271, Note_off_c, 1, 68, 0
1, 25276, Note_off_c, 1, 59, 0
1, 25276, Note_off_c, 1, 72, 0
1, 25280, Note_on_c, 1, 69, 127
1, 25280, Note_on_c, 1, 72, 127
1, 25280, Note_on_c, 1, 57, 127
1, 25280, Note_on_c, 1, 64, 127
1, 25625, Note_off_c, 1, 69, 0
1, 25625, Note_off_c, 1, 72, 0
1, 25629, Note_on_c, 1, 71, 127
1, 25974, Note_off_c, 1, 57, 0
1, 25974, Note_off_c, 1, 64, 0
1, 25974, Note_off_c, 1, 71, 0
1, 25978, Note_on_c, 1, 71, 127
1, 25978, Note_on_c, 1, 64, 127
1, 25978, Note_on_c, 1, 55, 127
1, 25978, Note_on_c, 1, 59, 127
1, 26323, Note_off_c, 1, 71, 0
1, 26327, Note_on_c, 1, 76, 127
1, 26667, Note_off_c, 1, 64, 0
1, 26672, Note_off_c, 1, 55, 0
1, 26672, Note_off_c, 1, 59, 0
1, 26672, Note_off_c, 1, 76, 0
1, 26676, Note_on_c, 1, 74, 127
1, 26676, Note_on_c, 1, 69, 127
1, 26676, Note_on_c, 1, 53, 127
1, 26676, Note_on_c, 1, 62, 127
1, 27021, Note_off_c, 1, 74, 0
1, 27025, Note_on_c, 1, 72, 127
1, 27365, Note_off_c, 1, 69, 0
1, 27370, Note_off_c, 1, 53, 0
1, 27370, Note_off_c, 1, 62, 0
1, 27370, Note_off_c, 1, 72, 0
1, 27374, Note_on_c, 1, 72, 127
1, 27374, Note_on_c, 1, 67, 127
1, 27374, Note_on_c, 1, 55, 127
1, 27374, Note_on_c, 1, 52, 127
1, 27719, Note_off_c, 1, 72, 0
1, 27723, Note_on_c, 1, 71, 127
1, 28063, Note_off_c, 1, 67, 0
1, 28068, Note_off_c, 1, 55, 0
1, 28068, Note_off_c, 1, 52, 0
1, 28068, Note_off_c, 1, 71, 0
1, 28072, Note_on_c, 1, 71, 127
1, 28072, Note_on_c, 1, 65, 127
1, 28072, Note_on_c, 1, 50, 127
1, 28072, Note_on_c, 1, 62, 127
1, 28417, Note_off_c, 1, 71, 0
1, 28421, Note_on_c, 1, 69, 127
1, 28761, Note_off_c, 1, 65, 0
1, 28766, Note_off_c, 1, 50, 0
1, 28766, Note_off_c, 1, 62, 0
1, 28766, Note_off_c, 1, 69, 0
1, 28770, Note_on_c, 1, 64, 127
1, 28770, Note_on_c, 1, 48, 127
1, 28770, Note_on_c, 1, 69, 127
1, 29115, Note_off_c, 1, 64, 0
1, 29115, Note_off_c, 1, 48, 0
1, 29119, Note_on_c, 1, 47, 127
1, 29119, Note_on_c, 1, 74, 127
1, 29119, Note_on_c, 1, 62, 127
1, 29119, Note_on_c, 1, 65, 127
1, 29459, Note_off_c, 1, 69, 0
1, 29464, Note_off_c, 1, 47, 0
1, 29464, Note_off_c, 1, 74, 0
1, 29464, Note_off_c, 1, 62, 0
1, 29464, Note_off_c, 1, 65, 0
1, 29468, Note_on_c, 1, 72, 127
1, 29468, Note_on_c, 1, 69, 127
1, 29468, Note_on_c, 1, 64, 127
1, 29468, Note_on_c, 1, 45, 127
1, 29813, Note_off_c, 1, 72, 0
1, 29813, Note_off_c, 1, 69, 0
1, 29817, Note_on_c, 1, 71, 127
1, 30157, Note_off_c, 1, 64, 0
1, 30162, Note_off_c, 1, 45, 0
1, 30162, Note_off_c, 1, 71, 0
1, 30166, Note_on_c, 1, 68, 127
1, 30166, Note_on_c, 1, 71, 127
1, 30166, Note_on_c, 1, 62, 127
1, 30166, Note_on_c, 1, 52, 127
1, 30511, Note_off_c, 1, 68, 0
1, 30511, Note_off_c, 1, 71, 0
1, 30515, Note_on_c, 1, 69, 127
1, 30855, Note_off_c, 1, 62, 0
1, 30860, Note_off_c, 1, 52, 0
1, 30860, Note_off_c, 1, 69, 0
1, 30864, Note_on_c, 1, 45, 127
1, 30864, Note_on_c, 1, 57, 127
1, 30864, Note_on_c, 1, 69, 127
1, 30864, Note_on_c, 1, 64, 127
1, 30864, Note_on_c, 1, 60, 127
1, 31735, Note_off_c, 1, 45, 0
1, 31735, Note_off_c, 1, 57, 0
1, 31735, Note_off_c, 1, 69, 0
1, 31735, Note_off_c, 1, 64, 0
1, 31735, Note_off_c, 1, 60, 0
1, 31911, Note_on_c, 1, 55, 127
1, 31911, Note_on_c, 1, 76, 127
1, 31911, Note_on_c, 1, 71, 127
1, 32256, Note_off_c, 1, 55, 0
1, 32256, Note_off_c, 1, 76, 0
1, 32256, Note_off_c, 1, 71, 0
1, 32260, Note_on_c, 1, 74, 127
1, 32260, Note_on_c, 1, 69, 127
1, 32260, Note_on_c, 1, 53, 127
1, 32605, Note_off_c, 1, 74, 0
1, 32609, Note_on_c, 1, 72, 127
1, 32949, Note_off_c, 1, 69, 0
1, 32954, Note_off_c, 1, 53, 0
1, 32954, Note_off_c, 1, 72, 0
1, 32958, Note_on_c, 1, 72, 127
1, 32958, Note_on_c, 1, 67, 127
1, 32958, Note_on_c, 1, 52, 127
1, 33303, Note_off_c, 1, 72, 0
1, 33307, Note_on_c, 1, 71, 127
1, 33647, Note_off_c, 1, 67, 0
1, 33652, Note_off_c, 1, 52, 0
1, 33652, Note_off_c, 1, 71, 0
1, 33656, Note_on_c, 1, 71, 127
1, 33656, Note_on_c, 1, 65, 127
1, 33656, Note_on_c, 1, 50, 127
1, 34001, Note_off_c, 1, 71, 0
1, 34005, Note_on_c, 1, 69, 127
1, 34345, Note_off_c, 1, 65, 0
1, 34350, Note_off_c, 1, 50, 0
1, 34350, Note_off_c, 1, 69, 0
1, 34354, Note_on_c, 1, 48, 127
1, 34354, Note_on_c, 1, 69, 127
1, 34354, Note_on_c, 1, 64, 127
1, 34699, Note_off_c, 1, 48, 0
1, 34699, Note_off_c, 1, 69, 0
1, 34699, Note_off_c, 1, 64, 0
1, 34703, Note_on_c, 1, 53, 127
1, 34703, Note_on_c, 1, 62, 127
1, 34703, Note_on_c, 1, 74, 127
1, 35048, Note_off_c, 1, 53, 0
1, 35048, Note_off_c, 1, 62, 0
1, 35048, Note_off_c, 1, 74, 0
1, 35052, Note_on_c, 1, 72, 127
1, 35052, Note_on_c, 1, 57, 127
1, 35052, Note_on_c, 1, 65, 127
1, 35052, Note_on_c, 1, 50, 127
1, 35397, Note_off_c, 1, 72, 0
1, 35401, Note_on_c, 1, 71, 127
1, 35741, Note_off_c, 1, 57, 0
1, 35741, Note_off_c, 1, 65, 0
1, 35746, Note_off_c, 1, 50, 0
1, 35746, Note_off_c, 1, 71, 0
1, 35750, Note_on_c, 1, 71, 127
1, 35750, Note_on_c, 1, 56, 127
1, 35750, Note_on_c, 1, 62, 127
1, 35750, Note_on_c, 1, 52, 127
1, 36095, Note_off_c, 1, 71, 0
1, 36099, Note_on_c, 1, 69, 127
1, 36439, Note_off_c, 1, 56, 0
1, 36439, Note_off_c, 1, 62, 0
1, 36444, Note_off_c, 1, 52, 0
1, 36444, Note_off_c, 1, 69, 0
1, 36448, Note_on_c, 1, 57, 127
1, 36448, Note_on_c, 1, 45, 127
1, 36448, Note_on_c, 1, 60, 127
1, 36448, Note_on_c, 1, 69, 127
1, 36448, Note_on_c, 1, 64, 127
1, 37319, Note_off_c, 1, 57, 0
1, 37319, Note_off_c, 1, 45, 0
1, 37319, Note_off_c, 1, 60, 0
1, 37319, Note_off_c, 1, 69, 0
1, 37319, Note_off_c, 1, 64, 0
1, 37495, Note_on_c, 1, 69, 127
1, 37495, Note_on_c, 1, 77, 127
1, 37495, Note_on_c, 1, 72, 127
1, 37840, Note_off_c, 1, 69, 0
1, 37840, Note_off_c, 1, 77, 0
1, 37840, Note_off_c, 1, 72, 0
1, 37844, Note_on_c, 1, 72, 127
1, 37844, Note_on_c, 1, 69, 127
1, 37844, Note_on_c, 1, 77, 127
1, 38013, Note_off_c, 1, 72, 0
1, 38187, Note_off_c, 1, 69, 0
1, 38189, Note_off_c, 1, 77, 0
1, 38193, Note_on_c, 1, 71, 127
1, 38193, Note_on_c, 1, 76, 127
1, 38364, Note_off_c, 1, 71, 0
1, 38368, Note_on_c, 1, 69, 127
1, 38539, Note_off_c, 1, 76, 0
1, 38539, Note_off_c, 1, 69, 0
1, 38543, Note_on_c, 1, 71, 127
1, 38543, Note_on_c, 1, 68, 127
1, 38543, Note_on_c, 1, 76, 127
1, 38712, Note_off_c, 1, 71, 0
1, 38886, Note_off_c, 1, 68, 0
1, 38888, Note_off_c, 1, 76, 0
1, 38892, Note_on_c, 1, 69, 127
1, 38892, Note_on_c, 1, 77, 127
1, 39063, Note_off_c, 1, 69, 0
1, 39067, Note_on_c, 1, 68, 127
1, 39238, Note_off_c, 1, 77, 0
1, 39238, Note_off_c, 1, 68, 0
1, 39242, Note_on_c, 1, 72, 127
1, 39242, Note_on_c, 1, 69, 127
1, 39242, Note_on_c, 1, 77, 127
1, 39411, Note_off_c, 1, 72, 0
1, 39585, Note_off_c, 1, 69, 0
1, 39587, Note_off_c, 1, 77, 0
1, 39591, Note_on_c, 1, 71, 127
1, 39591, Note_on_c, 1, 76, 127
1, 39762, Note_off_c, 1, 71, 0
1, 39766, Note_on_c, 1, 69, 127
1, 39937, Note_off_c, 1, 76, 0
1, 39937, Note_off_c, 1, 69, 0
1, 39941, Note_on_c, 1, 71, 127
1, 39941, Note_on_c, 1, 68, 127
1, 39941, Note_on_c, 1, 76, 127
1, 40110, Note_off_c, 1, 71, 0
1, 40284, Note_off_c, 1, 68, 0
1, 40286, Note_off_c, 1, 76, 0
1, 40290, Note_on_c, 1, 69, 127
1, 40290, Note_on_c, 1, 83, 127
1, 40461, Note_off_c, 1, 69, 0
1, 40465, Note_on_c, 1, 68, 127
1, 40636, Note_off_c, 1, 83, 0
1, 40636, Note_off_c, 1, 68, 0
1, 40640, Note_on_c, 1, 69, 127
1, 40640, Note_on_c, 1, 76, 127
1, 40640, Note_on_c, 1, 84, 127
1, 40811, Note_off_c, 1, 69, 0
1, 40815, Note_on_c, 1, 72, 127
1, 40986, Note_off_c, 1, 76, 0
1, 40986, Note_off_c, 1, 72, 0
1, 40990, Note_on_c, 1, 66, 127
1, 40990, Note_on_c, 1, 81, 127
1, 41161, Note_off_c, 1, 66, 0
1, 41330, Note_off_c, 1, 84, 0
1, 41339, Note_on_c, 1, 67, 127
1, 41339, Note_on_c, 1, 83, 127
1, 41510, Note_off_c, 1, 67, 0
1, 41514, Note_on_c, 1, 71, 127
1, 41679, Note_off_c, 1, 81, 0
1, 41684, Note_off_c, 1, 71, 0
1, 41688, Note_on_c, 1, 64, 127
1, 41688, Note_on_c, 1, 79, 127
1, 41859, Note_off_c, 1, 64, 0
1, 42028, Note_off_c, 1, 83, 0
1, 42377, Note_off_c, 1, 79, 0
1, 42386, Note_on_c, 1, 63, 127
1, 42386, Note_on_c, 1, 78, 127
1, 42557, Note_off_c, 1, 63, 0
1, 42731, Note_off_c, 1, 78, 0
1, 42735, Note_on_c, 1, 64, 127
1, 42735, Note_on_c, 1, 76, 127
1, 42735, Note_on_c, 1, 79, 127
1, 43080, Note_off_c, 1, 64, 0
1, 43080, Note_off_c, 1, 76, 0
1, 43080, Note_off_c, 1, 79, 0
1, 43084, Note_on_c, 1, 71, 127
1, 43084, Note_on_c, 1, 80, 127
1, 43084, Note_on_c, 1, 74, 127
1, 43429, Note_off_c, 1, 71, 0
1, 43429, Note_off_c, 1, 80, 0
1, 43429, Note_off_c, 1, 74, 0
1, 43433, Note_on_c, 1, 76, 127
1, 43433, Note_on_c, 1, 81, 127
1, 43433, Note_on_c, 1, 72, 127
1, 43602, Note_off_c, 1, 76, 0
1, 43778, Note_off_c, 1, 81, 0
1, 43782, Note_on_c, 1, 74, 127
1, 43782, Note_on_c, 1, 79, 127
1, 43831, Note_off_c, 1, 72, 0
1, 43953, Note_off_c, 1, 74, 0
1, 44128, Note_off_c, 1, 79, 0
1, 44132, Note_on_c, 1, 74, 127
1, 44132, Note_on_c, 1, 79, 127
1, 44132, Note_on_c, 1, 71, 127
1, 44301, Note_off_c, 1, 74, 0
1, 44477, Note_off_c, 1, 79, 0
1, 44481, Note_on_c, 1, 72, 127
1, 44481, Note_on_c, 1, 78, 127
1, 44530, Note_off_c, 1, 71, 0
1, 44652, Note_off_c, 1, 72, 0
1, 44827, Note_off_c, 1, 78, 0
1, 44831, Note_on_c, 1, 72, 127
1, 44831, Note_on_c, 1, 78, 127
1, 44831, Note_on_c, 1, 69, 127
1, 45000, Note_off_c, 1, 72, 0
1, 45176, Note_off_c, 1, 78, 0
1, 45180, Note_on_c, 1, 71, 127
1, 45180, Note_on_c, 1, 76, 127
1, 45229, Note_off_c, 1, 69, 0
1, 45351, Note_off_c, 1, 71, 0
1, 45526, Note_off_c, 1, 76, 0
1, 45530, Note_on_c, 1, 71, 127
1, 45530, Note_on_c, 1, 76, 127
1, 45530, Note_on_c, 1, 67, 127
1, 45699, Note_off_c, 1, 71, 0
1, 45875, Note_off_c, 1, 76, 0
1, 45879, Note_on_c, 1, 69, 127
1, 45879, Note_on_c, 1, 75, 127
1, 45928, Note_off_c, 1, 67, 0
1, 46050, Note_off_c, 1, 69, 0
1, 46225, Note_off_c, 1, 75, 0
1, 46229, Note_on_c, 1, 66, 127
1, 46229, Note_on_c, 1, 75, 127
1, 46229, Note_on_c, 1, 69, 127
1, 46574, Note_off_c, 1, 66, 0
1, 46574, Note_off_c, 1, 75, 0
1, 46574, Note_off_c, 1, 69, 0
1, 46578, Note_on_c, 1, 76, 127
1, 46578, Note_on_c, 1, 67, 127
1, 46578, Note_on_c, 1, 64, 127
1, 46578, Note_on_c, 1, 71, 127
1, 46749, Note_off_c, 1, 76, 0
1, 46753, Note_on_c, 1, 78, 127
1, 46922, Note_off_c, 1, 67, 0
1, 46924, Note_off_c, 1, 78, 0
1, 46928, Note_on_c, 1, 59, 127
1, 47268, Note_off_c, 1, 64, 0
1, 47277, Note_on_c, 1, 63, 127
1, 47617, Note_off_c, 1, 59, 0
1, 47622, Note_off_c, 1, 71, 0
1, 47622, Note_off_c, 1, 63, 0
1, 47626, Note_on_c, 1, 52, 127
1, 47626, Note_on_c, 1, 64, 127
1, 47626, Note_on_c, 1, 76, 127
1, 47626, Note_on_c, 1, 68, 127
1, 48495, Note_off_c, 1, 52, 0
1, 48495, Note_off_c, 1, 64, 0
1, 48497, Note_off_c, 1, 76, 0
1, 48497, Note_off_c, 1, 68, 0
1, 48499, Note_on_c, 1, 71, 127
1, 48670, Note_off_c, 1, 71, 0
1, 48674, Note_on_c, 1, 69, 127
1, 48674, Note_on_c, 1, 83, 127
1, 48674, Note_on_c, 1, 76, 127
1, 48845, Note_off_c, 1, 69, 0
1, 48849, Note_on_c, 1, 68, 127
1, 49020, Note_off_c, 1, 83, 0
1, 49020, Note_off_c, 1, 76, 0
1, 49020, Note_off_c, 1, 68, 0
1, 49024, Note_on_c, 1, 69, 127
1, 49024, Note_on_c, 1, 76, 127
1, 49024, Note_on_c, 1, 84, 127
1, 49195, Note_off_c, 1, 69, 0
1, 49199, Note_on_c, 1, 72, 127
1, 49370, Note_off_c, 1, 76, 0
1, 49370, Note_off_c, 1, 72, 0
1, 49374, Note_on_c, 1, 66, 127
1, 49374, Note_on_c, 1, 81, 127
1, 49545, Note_off_c, 1, 66, 0
1, 49714, Note_off_c, 1, 84, 0
1, 49723, Note_on_c, 1, 67, 127
1, 49723, Note_on_c, 1, 83, 127
1, 49894, Note_off_c, 1, 67, 0
1, 49898, Note_on_c, 1, 71, 127
1, 50063, Note_off_c, 1, 81, 0
1, 50068, Note_off_c, 1, 71, 0
1, 50072, Note_on_c, 1, 64, 127
1, 50072, Note_on_c, 1, 79, 127
1, 50243, Note_off_c, 1, 64, 0
1, 50412, Note_off_c, 1, 83, 0
1, 50761, Note_off_c, 1, 79, 0
1, 50770, Note_on_c, 1, 63, 127
1, 50770, Note_on_c, 1, 78, 127
1, 50941, Note_off_c, 1, 63, 0
1, 51115, Note_off_c, 1, 78, 0
1, 51119, Note_on_c, 1, 64, 127
1, 51119, Note_on_c, 1, 79, 127
1, 51119, Note_on_c, 1, 76, 127
1, 51464, Note_off_c, 1, 64, 0
1, 51464, Note_off_c, 1, 79, 0
1, 51464, Note_off_c, 1, 76, 0
1, 51468, Note_on_c, 1, 71, 127
1, 51468, Note_on_c, 1, 80, 127
1, 51468, Note_on_c, 1, 74, 127
1, 51813, Note_off_c, 1, 71, 0
1, 51813, Note_off_c, 1, 80, 0
1, 51813, Note_off_c, 1, 74, 0
1, 51817, Note_on_c, 1, 76, 127
1, 51817, Note_on_c, 1, 72, 127
1, 51817, Note_on_c, 1, 81, 127
1, 51986, Note_off_c, 1, 76, 0
1, 52076, Note_off_c, 1, 72, 0
1, 52161, Note_off_c, 1, 81, 0
1, 52165, Note_on_c, 1, 74, 127
1, 52165, Note_on_c, 1, 79, 127
1, 52336, Note_off_c, 1, 74, 0
1, 52340, Note_on_c, 1, 72, 127
1, 52511, Note_off_c, 1, 79, 0
1, 52511, Note_off_c, 1, 72, 0
1, 52515, Note_on_c, 1, 74, 127
1, 52515, Note_on_c, 1, 71, 127
1, 52515, Note_on_c, 1, 79, 127
1, 52684, Note_off_c, 1, 74, 0
1, 52774, Note_off_c, 1, 71, 0
1, 52859, Note_off_c, 1, 79, 0
1, 52863, Note_on_c, 1, 72, 127
1, 52863, Note_on_c, 1, 78, 127
1, 53034, Note_off_c, 1, 72, 0
1, 53038, Note_on_c, 1, 71, 127
1, 53209, Note_off_c, 1, 78, 0
1, 53209, Note_off_c, 1, 71, 0
1, 53213, Note_on_c, 1, 72, 127
1, 53213, Note_on_c, 1, 69, 127
1, 53213, Note_on_c, 1, 78, 127
1, 53382, Note_off_c, 1, 72, 0
1, 53472, Note_off_c, 1, 69, 0
1, 53557, Note_off_c, 1, 78, 0
1, 53561, Note_on_c, 1, 71, 127
1, 53561, Note_on_c, 1, 76, 127
1, 53732, Note_off_c, 1, 71, 0
1, 53736, Note_on_c, 1, 69, 127
1, 53907, Note_off_c, 1, 76, 0
1, 53907, Note_off_c, 1, 69, 0
1, 53911, Note_on_c, 1, 71, 127
1, 53911, Note_on_c, 1, 67, 127
1, 53911, Note_on_c, 1, 76, 127
1, 54080, Note_off_c, 1, 71, 0
1, 54170, Note_off_c, 1, 67, 0
1, 54255, Note_off_c, 1, 76, 0
1, 54259, Note_on_c, 1, 69, 127
1, 54259, Note_on_c, 1, 75, 127
1, 54430, Note_off_c, 1, 69, 0
1, 54434, Note_on_c, 1, 67, 127
1, 54605, Note_off_c, 1, 75, 0
1, 54605, Note_off_c, 1, 67, 0
1, 54609, Note_on_c, 1, 66, 127
1, 54609, Note_on_c, 1, 69, 127
1, 54609, Note_on_c, 1, 75, 127
1, 54954, Note_off_c, 1, 66, 0
1, 54954, Note_off_c, 1, 69, 0
1, 54954, Note_off_c, 1, 75, 0
1, 54958, Note_on_c, 1, 76, 127
1, 54958, Note_on_c, 1, 67, 127
1, 54958, Note_on_c, 1, 64, 127
1, 54958, Note_on_c, 1, 71, 127
1, 55129, Note_off_c, 1, 76, 0
1, 55133, Note_on_c, 1, 78, 127
1, 55302, Note_off_c, 1, 67, 0
1, 55304, Note_off_c, 1, 78, 0
1, 55308, Note_on_c, 1, 59, 127
1, 55648, Note_off_c, 1, 64, 0
1, 55657, Note_on_c, 1, 63, 127
1, 55997, Note_off_c, 1, 59, 0
1, 56002, Note_off_c, 1, 71, 0
1, 56002, Note_off_c, 1, 63, 0
1, 56006, Note_on_c, 1, 52, 127
1, 56006, Note_on_c, 1, 64, 127
1, 56006, Note_on_c, 1, 68, 127
1, 56006, Note_on_c, 1, 71, 127
1, 56006, Note_on_c, 1, 76, 127
1, 56877, Note_off_c, 1, 52, 0
1, 56877, Note_off_c, 1, 64, 0
1, 56877, Note_off_c, 1, 68, 0
1, 56877, Note_off_c, 1, 71, 0
1, 56877, Note_off_c, 1, 76, 0
1, 57053, Note_on_c, 1, 51, 127
1, 57053, Note_on_c, 1, 66, 127
1, 57053, Note_on_c, 1, 71, 127
1, 57398, Note_off_c, 1, 51, 0
1, 57398, Note_off_c, 1, 66, 0
1, 57398, Note_off_c, 1, 71, 0
1, 57402, Note_on_c, 1, 52, 127
1, 57402, Note_on_c, 1, 72, 127
1, 57402, Note_on_c, 1, 67, 127
1, 57573, Note_off_c, 1, 52, 0
1, 57577, Note_on_c, 1, 55, 127
1, 57748, Note_off_c, 1, 72, 0
1, 57748, Note_off_c, 1, 55, 0
1, 57752, Note_on_c, 1, 54, 127
1, 57752, Note_on_c, 1, 71, 127
1, 57923, Note_off_c, 1, 54, 0
1, 58092, Note_off_c, 1, 67, 0
1, 58097, Note_off_c, 1, 71, 0
1, 58101, Note_on_c, 1, 51, 127
1, 58101, Note_on_c, 1, 71, 127
1, 58101, Note_on_c, 1, 66, 127
1, 58272, Note_off_c, 1, 51, 0
1, 58276, Note_on_c, 1, 54, 127
1, 58447, Note_off_c, 1, 71, 0
1, 58447, Note_off_c, 1, 54, 0
1, 58451, Note_on_c, 1, 52, 127
1, 58451, Note_on_c, 1, 72, 127
1, 58622, Note_off_c, 1, 52, 0
1, 58791, Note_off_c, 1, 66, 0
1, 58796, Note_off_c, 1, 72, 0
1, 58800, Note_on_c, 1, 52, 127
1, 58800, Note_on_c, 1, 72, 127
1, 58800, Note_on_c, 1, 67, 127
1, 58971, Note_off_c, 1, 52, 0
1, 58975, Note_on_c, 1, 55, 127
1, 59146, Note_off_c, 1, 72, 0
1, 59146, Note_off_c, 1, 55, 0
1, 59150, Note_on_c, 1, 54, 127
1, 59150, Note_on_c, 1, 71, 127
1, 59321, Note_off_c, 1, 54, 0
1, 59490, Note_off_c, 1, 67, 0
1, 59495, Note_off_c, 1, 71, 0
1, 59499, Note_on_c, 1, 50, 127
1, 59499, Note_on_c, 1, 71, 127
1, 59499, Note_on_c, 1, 66, 127
1, 59670, Note_off_c, 1, 50, 0
1, 59674, Note_on_c, 1, 54, 127
1, 59845, Note_off_c, 1, 71, 0
1, 59845, Note_off_c, 1, 54, 0
1, 59849, Note_on_c, 1, 52, 127
1, 59849, Note_on_c, 1, 69, 127
1, 60020, Note_off_c, 1, 52, 0
1, 60189, Note_off_c, 1, 66, 0
1, 60194, Note_off_c, 1, 69, 0
1, 60198, Note_on_c, 1, 48, 127
1, 60198, Note_on_c, 1, 69, 127
1, 60198, Note_on_c, 1, 64, 127
1, 60369, Note_off_c, 1, 48, 0
1, 60373, Note_on_c, 1, 52, 127
1, 60544, Note_off_c, 1, 69, 0
1, 60544, Note_off_c, 1, 52, 0
1, 60548, Note_on_c, 1, 50, 127
1, 60548, Note_on_c, 1, 67, 127
1, 60719, Note_off_c, 1, 50, 0
1, 60888, Note_off_c, 1, 64, 0
1, 60893, Note_off_c, 1, 67, 0
1, 60897, Note_on_c, 1, 47, 127
1, 60897, Note_on_c, 1, 67, 127
1, 60897, Note_on_c, 1, 62, 127
1, 61068, Note_off_c, 1, 47, 0
1, 61072, Note_on_c, 1, 50, 127
1, 61243, Note_off_c, 1, 67, 0
1, 61243, Note_off_c, 1, 62, 0
1, 61243, Note_off_c, 1, 50, 0
1, 61247, Note_on_c, 1, 48, 127
1, 61247, Note_on_c, 1, 69, 127
1, 61418, Note_off_c, 1, 48, 0
1, 61422, Note_on_c, 1, 47, 127
1, 61593, Note_off_c, 1, 69, 0
1, 61593, Note_off_c, 1, 47, 0
1, 61597, Note_on_c, 1, 48, 127
1, 61597, Note_on_c, 1, 69, 127
1, 61597, Note_on_c, 1, 64, 127
1, 61768, Note_off_c, 1, 48, 0
1, 61772, Note_on_c, 1, 52, 127
1, 61943, Note_off_c, 1, 69, 0
1, 61943, Note_off_c, 1, 52, 0
1, 61947, Note_on_c, 1, 50, 127
1, 61947, Note_on_c, 1, 67, 127
1, 62118, Note_off_c, 1, 50, 0
1, 62287, Note_off_c, 1, 64, 0
1, 62292, Note_off_c, 1, 67, 0
1, 62296, Note_on_c, 1, 47, 127
1, 62296, Note_on_c, 1, 67, 127
1, 62296, Note_on_c, 1, 62, 127
1, 62467, Note_off_c, 1, 47, 0
1, 62471, Note_on_c, 1, 50, 127
1, 62642, Note_off_c, 1, 67, 0
1, 62642, Note_off_c, 1, 50, 0
1, 62646, Note_on_c, 1, 48, 127
1, 62646, Note_on_c, 1, 66, 127
1, 62817, Note_off_c, 1, 48, 0
1, 62986, Note_off_c, 1, 62, 0
1, 62991, Note_off_c, 1, 66, 0
1, 62995, Note_on_c, 1, 45, 127
1, 62995, Note_on_c, 1, 66, 127
1, 62995, Note_on_c, 1, 60, 127
1, 63166, Note_off_c, 1, 45, 0
1, 63170, Note_on_c, 1, 48, 127
1, 63341, Note_off_c, 1, 66, 0
1, 63341, Note_off_c, 1, 48, 0
1, 63345, Note_on_c, 1, 47, 127
1, 63345, Note_on_c, 1, 64, 127
1, 63516, Note_off_c, 1, 47, 0
1, 63685, Note_off_c, 1, 60, 0
1, 63690, Note_off_c, 1, 64, 0
1, 63694, Note_on_c, 1, 43, 127
1, 63694, Note_on_c, 1, 64, 127
1, 63694, Note_on_c, 1, 59, 127
1, 63865, Note_off_c, 1, 43, 0
1, 63869, Note_on_c, 1, 55, 127
1, 64040, Note_off_c, 1, 64, 0
1, 64040, Note_off_c, 1, 59, 0
1, 64040, Note_off_c, 1, 55, 0
1, 64044, Note_on_c, 1, 54, 127
1, 64044, Note_on_c, 1, 69, 127
1, 64215, Note_off_c, 1, 54, 0
1, 64219, Note_on_c, 1, 52, 127
1, 64390, Note_off_c, 1, 69, 0
1, 64390, Note_off_c, 1, 52, 0
1, 64394, Note_on_c, 1, 51, 127
1, 64394, Note_on_c, 1, 59, 127
1, 64394, Note_on_c, 1, 66, 127
1, 64394, Note_on_c, 1, 69, 127
1, 64739, Note_off_c, 1, 51, 0
1, 64739, Note_off_c, 1, 59, 0
1, 64739, Note_off_c, 1, 66, 0
1, 64739, Note_off_c, 1, 69, 0
1, 64743, Note_on_c, 1, 52, 127
1, 64743, Note_on_c, 1, 59, 127
1, 64743, Note_on_c, 1, 64, 127
1, 64743, Note_on_c, 1, 67, 127
1, 65088, Note_off_c, 1, 52, 0
1, 65088, Note_off_c, 1, 59, 0
1, 65088, Note_off_c, 1, 64, 0
1, 65088, Note_off_c, 1, 67, 0
1, 65092, Note_on_c, 1, 45, 127
1, 65092, Note_on_c, 1, 60, 127
1, 65092, Note_on_c, 1, 64, 127
1, 65092, Note_on_c, 1, 67, 127
1, 65437, Note_off_c, 1, 45, 0
1, 65437, Note_off_c, 1, 60, 0
1, 65437, Note_off_c, 1, 64, 0
1, 65437, Note_off_c, 1, 67, 0
1, 65441, Note_on_c, 1, 63, 127
1, 65441, Note_on_c, 1, 66, 127
1, 65441, Note_on_c, 1, 59, 127
1, 65441, Note_on_c, 1, 47, 127
1, 65612, Note_off_c, 1, 63, 0
1, 65612, Note_off_c, 1, 66, 0
1, 65616, Note_on_c, 1, 64, 127
1, 65787, Note_off_c, 1, 59, 0
1, 65787, Note_off_c, 1, 47, 0
1, 65787, Note_off_c, 1, 64, 0
1, 65791, Note_on_c, 1, 40, 127
1, 65791, Note_on_c, 1, 52, 127
1, 65791, Note_on_c, 1, 56, 127
1, 65791, Note_on_c, 1, 64, 127
1, 66662, Note_off_c, 1, 40, 0
1, 66662, Note_off_c, 1, 52, 0
1, 66662, Note_off_c, 1, 56, 0
1, 66662, Note_off_c, 1, 64, 0
1, 66838, Note_on_c, 1, 56, 127
1, 66838, Note_on_c, 1, 64, 127
1, 66838, Note_on_c, 1, 71, 127
1, 67183, Note_off_c, 1, 56, 0
1, 67183, Note_off_c, 1, 64, 0
1, 67183, Note_off_c, 1, 71, 0
1, 67187, Note_on_c, 1, 72, 127
1, 67187, Note_on_c, 1, 64, 127
1, 67187, Note_on_c, 1, 57, 127
1, 67358, Note_off_c, 1, 72, 0
1, 67362, Note_on_c, 1, 71, 127
1, 67533, Note_off_c, 1, 71, 0
1, 67537, Note_on_c, 1, 69, 127
1, 67695, Note_off_c, 1, 64, 0
1, 67708, Note_off_c, 1, 69, 0
1, 68062, Note_on_c, 1, 74, 127
1, 68233, Note_off_c, 1, 57, 0
1, 68233, Note_off_c, 1, 74, 0
1, 68237, Note_on_c, 1, 71, 127
1, 68237, Note_on_c, 1, 64, 127
1, 68237, Note_on_c, 1, 55, 127
1, 68408, Note_off_c, 1, 71, 0
1, 68412, Note_on_c, 1, 73, 127
1, 68581, Note_off_c, 1, 64, 0
1, 68583, Note_off_c, 1, 55, 0
1, 68583, Note_off_c, 1, 73, 0
1, 68587, Note_on_c, 1, 74, 127
1, 68587, Note_on_c, 1, 62, 127
1, 68587, Note_on_c, 1, 54, 127
1, 68587, Note_on_c, 1, 57, 127
1, 68758, Note_off_c, 1, 74, 0
1, 68762, Note_on_c, 1, 73, 127
1, 68931, Note_off_c, 1, 62, 0
1, 68933, Note_off_c, 1, 54, 0
1, 68933, Note_off_c, 1, 57, 0
1, 68933, Note_off_c, 1, 73, 0
1, 68937, Note_on_c, 1, 71, 127
1, 68937, Note_on_c, 1, 62, 127
1, 68937, Note_on_c, 1, 59, 127
1, 69108, Note_off_c, 1, 71, 0
1, 69112, Note_on_c, 1, 73, 127
1, 69281, Note_off_c, 1, 62, 0
1, 69283, Note_off_c, 1, 73, 0
1, 69287, Note_on_c, 1, 75, 127
1, 69445, Note_off_c, 1, 59, 0
1, 69458, Note_off_c, 1, 75, 0
1, 69462, Note_on_c, 1, 76, 127
1, 69633, Note_off_c, 1, 76, 0
1, 69637, Note_on_c, 1, 73, 127
1, 69637, Note_on_c, 1, 66, 127
1, 69637, Note_on_c, 1, 59, 127
1, 69637, Note_on_c, 1, 57, 127
1, 69808, Note_off_c, 1, 73, 0
1, 69812, Note_on_c, 1, 75, 127
1, 69981, Note_off_c, 1, 66, 0
1, 69981, Note_off_c, 1, 59, 0
1, 69983, Note_off_c, 1, 57, 0
1, 69983, Note_off_c, 1, 75, 0
1, 69987, Note_on_c, 1, 55, 127
1, 69987, Note_on_c, 1, 76, 127
1, 69987, Note_on_c, 1, 71, 127
1, 69987, Note_on_c, 1, 67, 127
1, 70158, Note_off_c, 1, 55, 0
1, 70162, Note_on_c, 1, 54, 127
1, 70333, Note_off_c, 1, 54, 0
1, 70337, Note_on_c, 1, 52, 127
1, 70508, Note_off_c, 1, 52, 0
1, 70787, Note_off_c, 1, 76, 0
1, 70787, Note_off_c, 1, 71, 0
1, 70787, Note_off_c, 1, 67, 0
1, 70862, Note_on_c, 1, 57, 127
1, 71033, Note_off_c, 1, 57, 0
1, 71037, Note_on_c, 1, 54, 127
1, 71037, Note_on_c, 1, 71, 127
1, 71037, Note_on_c, 1, 76, 127
1, 71208, Note_off_c, 1, 54, 0
1, 71212, Note_on_c, 1, 55, 127
1, 71383, Note_off_c, 1, 71, 0
1, 71383, Note_off_c, 1, 76, 0
1, 71383, Note_off_c, 1, 55, 0
1, 71387, Note_on_c, 1, 57, 127
1, 71387, Note_on_c, 1, 78, 127
1, 71387, Note_on_c, 1, 72, 127
1, 71387, Note_on_c, 1, 69, 127
1, 71558, Note_off_c, 1, 57, 0
1, 71562, Note_on_c, 1, 55, 127
1, 71733, Note_off_c, 1, 55, 0
1, 71737, Note_on_c, 1, 54, 127
1, 71908, Note_off_c, 1, 54, 0
1, 72260, Note_off_c, 1, 78, 0
1, 72260, Note_off_c, 1, 72, 0
1, 72260, Note_off_c, 1, 69, 0
1, 72262, Note_on_c, 1, 59, 127
1, 72433, Note_off_c, 1, 59, 0
1, 72437, Note_on_c, 1, 55, 127
1, 72437, Note_on_c, 1, 76, 127
1, 72437, Note_on_c, 1, 73, 127
1, 72437, Note_on_c, 1, 78, 127
1, 72608, Note_off_c, 1, 55, 0
1, 72612, Note_on_c, 1, 57, 127
1, 72783, Note_off_c, 1, 76, 0
1, 72783, Note_off_c, 1, 73, 0
1, 72783, Note_off_c, 1, 57, 0
1, 72787, Note_on_c, 1, 75, 127
1, 72787, Note_on_c, 1, 71, 127
1, 72787, Note_on_c, 1, 59, 127
1, 72958, Note_off_c, 1, 75, 0
1, 73127, Note_off_c, 1, 78, 0
1, 73294, Note_off_c, 1, 71, 0
1, 73659, Note_off_c, 1, 59, 0
1, 73661, Note_on_c, 1, 79, 127
1, 73832, Note_off_c, 1, 79, 0
1, 73836, Note_on_c, 1, 76, 127
1, 73836, Note_on_c, 1, 63, 127
1, 74007, Note_off_c, 1, 76, 0
1, 74011, Note_on_c, 1, 78, 127
1, 74180, Note_off_c, 1, 63, 0
1, 74182, Note_off_c, 1, 78, 0
1, 74186, Note_on_c, 1, 64, 127
1, 74186, Note_on_c, 1, 79, 127
1, 74357, Note_off_c, 1, 64, 0
1, 74357, Note_off_c, 1, 79, 0
1, 74361, Note_on_c, 1, 66, 127
1, 74361, Note_on_c, 1, 81, 127
1, 74532, Note_off_c, 1, 66, 0
1, 74532, Note_off_c, 1, 81, 0
1, 74536, Note_on_c, 1, 67, 127
1, 74536, Note_on_c, 1, 83, 127
1, 74707, Note_off_c, 1, 67, 0
1, 74707, Note_off_c, 1, 83, 0
1, 74711, Note_on_c, 1, 66, 127
1, 74711, Note_on_c, 1, 81, 127
1, 74882, Note_off_c, 1, 66, 0
1, 74882, Note_off_c, 1, 81, 0
1, 74886, Note_on_c, 1, 79, 127
1, 74886, Note_on_c, 1, 64, 127
1, 75057, Note_off_c, 1, 79, 0
1, 75057, Note_off_c, 1, 64, 0
1, 75061, Note_on_c, 1, 62, 127
1, 75061, Note_on_c, 1, 78, 127
1, 75232, Note_off_c, 1, 62, 0
1, 75232, Note_off_c, 1, 78, 0
1, 75236, Note_on_c, 1, 60, 127
1, 75236, Note_on_c, 1, 76, 127
1, 75407, Note_off_c, 1, 60, 0
1, 75407, Note_off_c, 1, 76, 0
1, 75411, Note_on_c, 1, 59, 127
1, 75411, Note_on_c, 1, 74, 127
1, 75582, Note_off_c, 1, 59, 0
1, 75582, Note_off_c, 1, 74, 0
1, 75586, Note_on_c, 1, 72, 127
1, 75586, Note_on_c, 1, 69, 127
1, 75586, Note_on_c, 1, 57, 127
1, 75757, Note_off_c, 1, 72, 0
1, 75761, Note_on_c, 1, 75, 127
1, 75930, Note_off_c, 1, 69, 0
1, 75932, Note_off_c, 1, 75, 0
1, 75936, Note_on_c, 1, 76, 127
1, 75936, Note_on_c, 1, 67, 127
1, 76107, Note_off_c, 1, 76, 0
1, 76111, Note_on_c, 1, 78, 127
1, 76280, Note_off_c, 1, 67, 0
1, 76282, Note_off_c, 1, 57, 0
1, 76282, Note_off_c, 1, 78, 0
1, 76286, Note_on_c, 1, 76, 127
1, 76286, Note_on_c, 1, 59, 127
1, 76286, Note_on_c, 1, 66, 127
1, 76370, Note_off_c, 1, 76, 0
1, 76374, Note_on_c, 1, 75, 127
1, 76458, Note_off_c, 1, 75, 0
1, 76637, Note_on_c, 1, 47, 127
1, 76977, Note_off_c, 1, 59, 0
1, 76977, Note_off_c, 1, 66, 0
1, 76982, Note_off_c, 1, 47, 0
1, 76986, Note_on_c, 1, 52, 127
1, 76986, Note_on_c, 1, 76, 127
1, 76986, Note_on_c, 1, 67, 127
1, 77157, Note_off_c, 1, 52, 0
1, 77161, Note_on_c, 1, 50, 127
1, 77332, Note_off_c, 1, 50, 0
1, 77511, Note_on_c, 1, 54, 127
1, 77682, Note_off_c, 1, 54, 0
1, 77686, Note_on_c, 1, 55, 127
1, 77857, Note_off_c, 1, 55, 0
1, 77859, Note_off_c, 1, 76, 0
1, 77859, Note_off_c, 1, 67, 0
1, 77861, Note_on_c, 1, 57, 127
1, 78032, Note_off_c, 1, 57, 0
1, 78036, Note_on_c, 1, 59, 127
1, 78036, Note_on_c, 1, 67, 127
1, 78036, Note_on_c, 1, 71, 127
1, 78207, Note_off_c, 1, 59, 0
1, 78211, Note_on_c, 1, 60, 127
1, 78382, Note_off_c, 1, 67, 0
1, 78382, Note_off_c, 1, 71, 0
1, 78382, Note_off_c, 1, 60, 0
1, 78386, Note_on_c, 1, 69, 127
1, 78386, Note_on_c, 1, 62, 127
1, 78386, Note_on_c, 1, 66, 127
1, 78557, Note_off_c, 1, 69, 0
1, 78561, Note_on_c, 1, 67, 127
1, 78732, Note_off_c, 1, 67, 0
1, 78911, Note_on_c, 1, 71, 127
1, 79082, Note_off_c, 1, 71, 0
1, 79259, Note_off_c, 1, 62, 0
1, 79259, Note_off_c, 1, 66, 0
1, 79261, Note_on_c, 1, 72, 127
1, 79432, Note_off_c, 1, 72, 0
1, 79436, Note_on_c, 1, 66, 127
1, 79436, Note_on_c, 1, 71, 127
1, 79436, Note_on_c, 1, 47, 127
1, 79607, Note_off_c, 1, 66, 0
1, 79607, Note_off_c, 1, 71, 0
1, 79611, Note_on_c, 1, 69, 127
1, 79782, Note_off_c, 1, 47, 0
1, 79782, Note_off_c, 1, 69, 0
1, 79786, Note_on_c, 1, 48, 127
1, 79786, Note_on_c, 1, 67, 127
1, 79786, Note_on_c, 1, 64, 127
1, 79957, Note_off_c, 1, 48, 0
1, 79961, Note_on_c, 1, 47, 127
1, 80132, Note_off_c, 1, 47, 0
1, 80311, Note_on_c, 1, 50, 127
1, 80482, Note_off_c, 1, 50, 0
1, 80486, Note_on_c, 1, 52, 127
1, 80657, Note_off_c, 1, 52, 0
1, 80659, Note_off_c, 1, 67, 0
1, 80659, Note_off_c, 1, 64, 0
1, 80661, Note_on_c, 1, 53, 127
1, 80832, Note_off_c, 1, 53, 0
1, 80836, Note_on_c, 1, 55, 127
1, 80836, Note_on_c, 1, 67, 127
1, 80836, Note_on_c, 1, 64, 127
1, 81007, Note_off_c, 1, 55, 0
1, 81011, Note_on_c, 1, 57, 127
1, 81182, Note_off_c, 1, 67, 0
1, 81182, Note_off_c, 1, 64, 0
1, 81182, Note_off_c, 1, 57, 0
1, 81186, Note_on_c, 1, 65, 127
1, 81186, Note_on_c, 1, 59, 127
1, 81186, Note_on_c, 1, 62, 127
1, 81357, Note_off_c, 1, 65, 0
1, 81361, Note_on_c, 1, 64, 127
1, 81532, Note_off_c, 1, 64, 0
1, 81711, Note_on_c, 1, 67, 127
1, 81882, Note_off_c, 1, 67, 0
1, 82059, Note_off_c, 1, 59, 0
1, 82059, Note_off_c, 1, 62, 0
1, 82061, Note_on_c, 1, 69, 127
1, 82232, Note_off_c, 1, 69, 0
1, 82236, Note_on_c, 1, 67, 127
1, 82236, Note_on_c, 1, 62, 127
1, 82236, Note_on_c, 1, 43, 127
1, 82407, Note_off_c, 1, 67, 0
1, 82407, Note_off_c, 1, 62, 0
1, 82411, Note_on_c, 1, 65, 127
1, 82582, Note_off_c, 1, 43, 0
1, 82582, Note_off_c, 1, 65, 0
1, 82586, Note_on_c, 1, 45, 127
1, 82586, Note_on_c, 1, 60, 127
1, 82586, Note_on_c, 1, 64, 127
1, 82757, Note_off_c, 1, 45, 0
1, 82761, Note_on_c, 1, 43, 127
1, 82932, Note_off_c, 1, 43, 0
1, 83111, Note_on_c, 1, 47, 127
1, 83282, Note_off_c, 1, 47, 0
1, 83286, Note_on_c, 1, 48, 127
1, 83457, Note_off_c, 1, 48, 0
1, 83459, Note_off_c, 1, 60, 0
1, 83459, Note_off_c, 1, 64, 0
1, 83461, Note_on_c, 1, 50, 127
1, 83632, Note_off_c, 1, 50, 0
1, 83636, Note_on_c, 1, 52, 127
1, 83636, Note_on_c, 1, 64, 127
1, 83636, Note_on_c, 1, 72, 127
1, 83807, Note_off_c, 1, 52, 0
1, 83811, Note_on_c, 1, 54, 127
1, 83982, Note_off_c, 1, 64, 0
1, 83982, Note_off_c, 1, 72, 0
1, 83982, Note_off_c, 1, 54, 0
1, 83986, Note_on_c, 1, 71, 127
1, 83986, Note_on_c, 1, 56, 127
1, 83986, Note_on_c, 1, 62, 127
1, 84157, Note_off_c, 1, 71, 0
1, 84161, Note_on_c, 1, 69, 127
1, 84332, Note_off_c, 1, 69, 0
1, 84511, Note_on_c, 1, 72, 127
1, 84682, Note_off_c, 1, 72, 0
1, 84686, Note_on_c, 1, 74, 127
1, 84857, Note_off_c, 1, 74, 0
1, 84859, Note_off_c, 1, 56, 0
1, 84859, Note_off_c, 1, 62, 0
1, 84861, Note_on_c, 1, 76, 127
1, 85032, Note_off_c, 1, 76, 0
1, 85036, Note_on_c, 1, 77, 127
1, 85036, Note_on_c, 1, 57, 127
1, 85036, Note_on_c, 1, 60, 127
1, 85207, Note_off_c, 1, 77, 0
1, 85211, Note_on_c, 1, 76, 127
1, 85382, Note_off_c, 1, 57, 0
1, 85382, Note_off_c, 1, 60, 0
1, 85382, Note_off_c, 1, 76, 0
1, 85386, Note_on_c, 1, 74, 127
1, 85386, Note_on_c, 1, 62, 127
1, 85386, Note_on_c, 1, 59, 127
1, 85557, Note_off_c, 1, 74, 0
1, 85561, Note_on_c, 1, 76, 127
1, 85732, Note_off_c, 1, 62, 0
1, 85732, Note_off_c, 1, 59, 0
1, 85732, Note_off_c, 1, 76, 0
1, 85736, Note_on_c, 1, 72, 127
1, 85736, Note_on_c, 1, 60, 127
1, 85736, Note_on_c, 1, 69, 127
1, 85907, Note_off_c, 1, 72, 0
1, 85911, Note_on_c, 1, 74, 127
1, 86082, Note_off_c, 1, 60, 0
1, 86082, Note_off_c, 1, 74, 0
1, 86086, Note_on_c, 1, 62, 127
1, 86183, Note_on_c, 1, 71, 127
1, 86276, Note_off_c, 1, 71, 0
1, 86428, Note_off_c, 1, 69, 0
1, 86433, Note_off_c, 1, 62, 0
1, 86437, Note_on_c, 1, 68, 127
1, 86437, Note_on_c, 1, 64, 127
1, 86608, Note_off_c, 1, 68, 0
1, 86783, Note_off_c, 1, 64, 0
1, 86787, Note_on_c, 1, 57, 127
1, 86787, Note_on_c, 1, 69, 127
1, 86958, Note_off_c, 1, 57, 0
1, 86962, Note_on_c, 1, 60, 127
1, 87133, Note_off_c, 1, 60, 0
1, 87137, Note_on_c, 1, 59, 127
1, 87308, Note_off_c, 1, 59, 0
1, 87477, Note_off_c, 1, 69, 0
1, 87486, Note_on_c, 1, 56, 127
1, 87657, Note_off_c, 1, 56, 0
1, 87661, Note_on_c, 1, 59, 127
1, 87832, Note_off_c, 1, 59, 0
1, 87836, Note_on_c, 1, 57, 127
1, 87836, Note_on_c, 1, 76, 127
1, 87836, Note_on_c, 1, 71, 127
1, 88007, Note_off_c, 1, 57, 0
1, 88011, Note_on_c, 1, 56, 127
1, 88182, Note_off_c, 1, 76, 0
1, 88182, Note_off_c, 1, 71, 0
1, 88182, Note_off_c, 1, 56, 0
1, 88186, Note_on_c, 1, 57, 127
1, 88186, Note_on_c, 1, 77, 127
1, 88186, Note_on_c, 1, 72, 127
1, 88357, Note_off_c, 1, 57, 0
1, 88361, Note_on_c, 1, 60, 127
1, 88532, Note_off_c, 1, 77, 0
1, 88532, Note_off_c, 1, 60, 0
1, 88536, Note_on_c, 1, 59, 127
1, 88536, Note_on_c, 1, 76, 127
1, 88707, Note_off_c, 1, 59, 0
1, 88876, Note_off_c, 1, 72, 0
1, 88881, Note_off_c, 1, 76, 0
1, 88885, Note_on_c, 1, 56, 127
1, 88885, Note_on_c, 1, 76, 127
1, 88885, Note_on_c, 1, 71, 127
1, 89056, Note_off_c, 1, 56, 0
1, 89060, Note_on_c, 1, 59, 127
1, 89231, Note_off_c, 1, 76, 0
1, 89231, Note_off_c, 1, 59, 0
1, 89235, Note_on_c, 1, 57, 127
1, 89235, Note_on_c, 1, 77, 127
1, 89406, Note_off_c, 1, 57, 0
1, 89575, Note_off_c, 1, 71, 0
1, 89580, Note_off_c, 1, 77, 0
1, 89584, Note_on_c, 1, 57, 127
1, 89584, Note_on_c, 1, 77, 127
1, 89584, Note_on_c, 1, 72, 127
1, 89755, Note_off_c, 1, 57, 0
1, 89759, Note_on_c, 1, 60, 127
1, 89930, Note_off_c, 1, 77, 0
1, 89930, Note_off_c, 1, 60, 0
1, 89934, Note_on_c, 1, 59, 127
1, 89934, Note_on_c, 1, 76, 127
1, 90105, Note_off_c, 1, 59, 0
1, 90274, Note_off_c, 1, 72, 0
1, 90279, Note_off_c, 1, 76, 0
1, 90283, Note_on_c, 1, 56, 127
1, 90283, Note_on_c, 1, 76, 127
1, 90283, Note_on_c, 1, 71, 127
1, 90628, Note_off_c, 1, 56, 0
1, 90628, Note_off_c, 1, 76, 0
1, 90628, Note_off_c, 1, 71, 0
1, 90632, Note_on_c, 1, 44, 127
1, 90632, Note_on_c, 1, 64, 127
1, 90632, Note_on_c, 1, 71, 127
1, 90977, Note_off_c, 1, 44, 0
1, 90977, Note_off_c, 1, 64, 0
1, 90977, Note_off_c, 1, 71, 0
1, 90981, Note_on_c, 1, 45, 127
1, 90981, Note_on_c, 1, 65, 127
1, 90981, Note_on_c, 1, 69, 127
1, 91152, Note_off_c, 1, 45, 0
1, 91156, Note_on_c, 1, 48, 127
1, 91327, Note_off_c, 1, 65, 0
1, 91327, Note_off_c, 1, 48, 0
1, 91331, Note_on_c, 1, 47, 127
1, 91331, Note_on_c, 1, 64, 127
1, 91502, Note_off_c, 1, 47, 0
1, 91671, Note_off_c, 1, 69, 0
1, 91676, Note_off_c, 1, 64, 0
1, 91680, Note_on_c, 1, 44, 127
1, 91680, Note_on_c, 1, 64, 127
1, 91680, Note_on_c, 1, 71, 127
1, 91851, Note_off_c, 1, 44, 0
1, 91855, Note_on_c, 1, 47, 127
1, 92026, Note_off_c, 1, 64, 0
1, 92026, Note_off_c, 1, 47, 0
1, 92030, Note_on_c, 1, 45, 127
1, 92030, Note_on_c, 1, 65, 127
1, 92201, Note_off_c, 1, 45, 0
1, 92370, Note_off_c, 1, 71, 0
1, 92375, Note_off_c, 1, 65, 0
1, 92379, Note_on_c, 1, 45, 127
1, 92379, Note_on_c, 1, 65, 127
1, 92379, Note_on_c, 1, 69, 127
1, 92550, Note_off_c, 1, 45, 0
1, 92554, Note_on_c, 1, 48, 127
1, 92725, Note_off_c, 1, 65, 0
1, 92725, Note_off_c, 1, 48, 0
1, 92729, Note_on_c, 1, 47, 127
1, 92729, Note_on_c, 1, 64, 127
1, 92900, Note_off_c, 1, 47, 0
1, 93069, Note_off_c, 1, 69, 0
1, 93074, Note_off_c, 1, 64, 0
1, 93078, Note_on_c, 1, 44, 127
1, 93078, Note_on_c, 1, 64, 127
1, 93078, Note_on_c, 1, 71, 127
1, 93249, Note_off_c, 1, 44, 0
1, 93253, Note_on_c, 1, 47, 127
1, 93424, Note_off_c, 1, 64, 0
1, 93424, Note_off_c, 1, 47, 0
1, 93428, Note_on_c, 1, 45, 127
1, 93428, Note_on_c, 1, 65, 127
1, 93599, Note_off_c, 1, 45, 0
1, 93768, Note_off_c, 1, 71, 0
1, 93773, Note_off_c, 1, 65, 0
1, 93777, Note_on_c, 1, 45, 127
1, 93777, Note_on_c, 1, 65, 127
1, 93777, Note_on_c, 1, 69, 127
1, 93948, Note_off_c, 1, 45, 0
1, 93952, Note_on_c, 1, 48, 127
1, 94123, Note_off_c, 1, 65, 0
1, 94123, Note_off_c, 1, 48, 0
1, 94127, Note_on_c, 1, 47, 127
1, 94127, Note_on_c, 1, 64, 127
1, 94298, Note_off_c, 1, 47, 0
1, 94467, Note_off_c, 1, 69, 0
1, 94472, Note_off_c, 1, 64, 0
1, 94476, Note_on_c, 1, 43, 127
1, 94476, Note_on_c, 1, 64, 127
1, 94476, Note_on_c, 1, 71, 127
1, 94647, Note_off_c, 1, 43, 0
1, 94651, Note_on_c, 1, 47, 127
1, 94822, Note_off_c, 1, 64, 0
1, 94822, Note_off_c, 1, 47, 0
1, 94826, Note_on_c, 1, 45, 127
1, 94826, Note_on_c, 1, 62, 127
1, 94997, Note_off_c, 1, 45, 0
1, 95166, Note_off_c, 1, 71, 0
1, 95171, Note_off_c, 1, 62, 0
1, 95175, Note_on_c, 1, 41, 127
1, 95175, Note_on_c, 1, 62, 127
1, 95175, Note_on_c, 1, 69, 127
1, 95346, Note_off_c, 1, 41, 0
1, 95350, Note_on_c, 1, 45, 127
1, 95521, Note_off_c, 1, 62, 0
1, 95521, Note_off_c, 1, 45, 0
1, 95525, Note_on_c, 1, 43, 127
1, 95525, Note_on_c, 1, 60, 127
1, 95696, Note_off_c, 1, 43, 0
1, 95865, Note_off_c, 1, 69, 0
1, 95870, Note_off_c, 1, 60, 0
1, 95874, Note_on_c, 1, 40, 127
1, 96045, Note_off_c, 1, 40, 0
1, 96224, Note_on_c, 1, 59, 127
1, 96569, Note_off_c, 1, 59, 0
1, 96573, Note_on_c, 1, 38, 127
1, 96573, Note_on_c, 1, 59, 127
1, 96573, Note_on_c, 1, 69, 127
1, 96744, Note_off_c, 1, 38, 0
1, 96748, Note_on_c, 1, 47, 127
1, 96919, Note_off_c, 1, 59, 0
1, 96919, Note_off_c, 1, 47, 0
1, 96923, Note_on_c, 1, 48, 127
1, 96923, Note_on_c, 1, 62, 127
1, 97094, Note_off_c, 1, 48, 0
1, 97098, Note_on_c, 1, 50, 127
1, 97269, Note_off_c, 1, 62, 0
1, 97269, Note_off_c, 1, 50, 0
1, 97273, Note_on_c, 1, 52, 127
1, 97273, Note_on_c, 1, 60, 127
1, 97273, Note_on_c, 1, 64, 127
1, 97444, Note_off_c, 1, 52, 0
1, 97448, Note_on_c, 1, 53, 127
1, 97619, Note_off_c, 1, 69, 0
1, 97619, Note_off_c, 1, 60, 0
1, 97619, Note_off_c, 1, 64, 0
1, 97619, Note_off_c, 1, 53, 0
1, 97623, Note_on_c, 1, 52, 127
1, 97623, Note_on_c, 1, 68, 127
1, 97623, Note_on_c, 1, 64, 127
1, 97623, Note_on_c, 1, 59, 127
1, 97794, Note_off_c, 1, 52, 0
1, 97798, Note_on_c, 1, 50, 127
1, 97969, Note_off_c, 1, 68, 0
1, 97969, Note_off_c, 1, 64, 0
1, 97969, Note_off_c, 1, 59, 0
1, 97969, Note_off_c, 1, 50, 0
1, 97973, Note_on_c, 1, 48, 127
1, 97973, Note_on_c, 1, 57, 127
1, 97973, Note_on_c, 1, 64, 127
1, 97973, Note_on_c, 1, 60, 127
1, 97973, Note_on_c, 1, 69, 127
1, 98144, Note_off_c, 1, 48, 0
1, 98148, Note_on_c, 1, 50, 127
1, 98319, Note_off_c, 1, 50, 0
1, 98498, Note_on_c, 1, 47, 127
1, 98669, Note_off_c, 1, 47, 0
1, 98673, Note_on_c, 1, 45, 127
1, 98846, Note_off_c, 1, 57, 0
1, 98846, Note_off_c, 1, 64, 0
1, 98846, Note_off_c, 1, 60, 0
1, 98846, Note_off_c, 1, 69, 0
1, 99019, Note_off_c, 1, 45, 0
1, 99023, Note_on_c, 1, 56, 127
1, 99023, Note_on_c, 1, 59, 127
1, 99023, Note_on_c, 1, 76, 127
1, 99368, Note_off_c, 1, 56, 0
1, 99368, Note_off_c, 1, 59, 0
1, 99368, Note_off_c, 1, 76, 0
1, 99372, Note_on_c, 1, 60, 127
1, 99372, Note_on_c, 1, 57, 127
1, 99372, Note_on_c, 1, 77, 127
1, 99721, Note_on_c, 1, 84, 127
1, 100066, Note_off_c, 1, 84, 0
1, 100243, Note_off_c, 1, 60, 0
1, 100243, Note_off_c, 1, 57, 0
1, 100243, Note_off_c, 1, 77, 0
1, 100420, Note_on_c, 1, 57, 127
1, 100420, Note_on_c, 1, 60, 127
1, 100420, Note_on_c, 1, 77, 127
1, 100765, Note_off_c, 1, 57, 0
1, 100765, Note_off_c, 1, 60, 0
1, 100765, Note_off_c, 1, 77, 0
1, 100769, Note_on_c, 1, 59, 127
1, 100769, Note_on_c, 1, 56, 127
1, 100769, Note_on_c, 1, 76, 127
1, 101118, Note_on_c, 1, 83, 127
1, 101463, Note_off_c, 1, 83, 0
1, 101640, Note_off_c, 1, 59, 0
1, 101640, Note_off_c, 1, 56, 0
1, 101640, Note_off_c, 1, 76, 0
1, 101817, Note_on_c, 1, 56, 127
1, 101817, Note_on_c, 1, 59, 127
1, 101817, Note_on_c, 1, 76, 127
1, 102162, Note_off_c, 1, 56, 0
1, 102162, Note_off_c, 1, 59, 0
1, 102162, Note_off_c, 1, 76, 0
1, 102166, Note_on_c, 1, 77, 127
1, 102166, Note_on_c, 1, 57, 127
1, 102166, Note_on_c, 1, 60, 127
1, 102515, Note_on_c, 1, 84, 127
1, 102855, Note_off_c, 1, 77, 0
1, 102860, Note_off_c, 1, 84, 0
1, 103037, Note_off_c, 1, 57, 0
1, 103037, Note_off_c, 1, 60, 0
1, 103214, Note_on_c, 1, 57, 127
1, 103214, Note_on_c, 1, 77, 127
1, 103214, Note_on_c, 1, 72, 127
1, 103559, Note_off_c, 1, 57, 0
1, 103559, Note_off_c, 1, 77, 0
1, 103559, Note_off_c, 1, 72, 0
1, 103563, Note_on_c, 1, 56, 127
1, 103563, Note_on_c, 1, 71, 127
1, 103563, Note_on_c, 1, 76, 127
1, 103908, Note_off_c, 1, 56, 0
1, 103912, Note_on_c, 1, 64, 127
1, 104257, Note_off_c, 1, 64, 0
1, 104434, Note_off_c, 1, 71, 0
1, 104434, Note_off_c, 1, 76, 0
1, 104611, Note_on_c, 1, 56, 127
1, 104611, Note_on_c, 1, 71, 127
1, 104611, Note_on_c, 1, 76, 127
1, 104956, Note_off_c, 1, 56, 0
1, 104956, Note_off_c, 1, 71, 0
1, 104956, Note_off_c, 1, 76, 0
1, 104960, Note_on_c, 1, 57, 127
1, 104960, Note_on_c, 1, 72, 127
1, 104960, Note_on_c, 1, 77, 127
1, 105305, Note_off_c, 1, 57, 0
1, 105309, Note_on_c, 1, 65, 127
1, 105654, Note_off_c, 1, 65, 0
1, 105831, Note_off_c, 1, 72, 0
1, 105831, Note_off_c, 1, 77, 0
1, 106008, Note_on_c, 1, 57, 127
1, 106008, Note_on_c, 1, 77, 127
1, 106008, Note_on_c, 1, 72, 127
1, 106353, Note_off_c, 1, 57, 0
1, 106353, Note_off_c, 1, 77, 0
1, 106353, Note_off_c, 1, 72, 0
1, 106357, Note_on_c, 1, 56, 127
1, 106357, Note_on_c, 1, 71, 127
1, 106357, Note_on_c, 1, 76, 127
1, 106702, Note_off_c, 1, 56, 0
1, 106706, Note_on_c, 1, 64, 127
1, 107051, Note_off_c, 1, 64, 0
1, 107228, Note_off_c, 1, 71, 0
1, 107392, Note_off_c, 1, 76, 0
1, 107405, Note_on_c, 1, 56, 127
1, 107405, Note_on_c, 1, 71, 127
1, 107405, Note_on_c, 1, 76, 127
1, 107750, Note_off_c, 1, 56, 0
1, 107750, Note_off_c, 1, 71, 0
1, 107750, Note_off_c, 1, 76, 0
1, 107754, Note_on_c, 1, 57, 127
1, 107754, Note_on_c, 1, 72, 127
1, 107754, Note_on_c, 1, 77, 127
1, 107925, Note_off_c, 1, 57, 0
1, 107929, Note_on_c, 1, 60, 127
1, 108100, Note_off_c, 1, 60, 0
1, 108104, Note_on_c, 1, 65, 127
1, 108275, Note_off_c, 1, 65, 0
1, 108627, Note_off_c, 1, 72, 0
1, 108791, Note_off_c, 1, 77, 0
1, 108804, Note_on_c, 1, 65, 127
1, 108804, Note_on_c, 1, 77, 127
1, 108804, Note_on_c, 1, 72, 127
1, 109149, Note_off_c, 1, 65, 0
1, 109149, Note_off_c, 1, 77, 0
1, 109149, Note_off_c, 1, 72, 0
1, 109153, Note_on_c, 1, 56, 127
1, 109153, Note_on_c, 1, 71, 127
1, 109153, Note_on_c, 1, 76, 127
1, 109498, Note_off_c, 1, 56, 0
1, 109502, Note_on_c, 1, 64, 127
1, 109847, Note_off_c, 1, 64, 0
1, 110024, Note_off_c, 1, 71, 0
1, 110188, Note_off_c, 1, 76, 0
1, 110201, Note_on_c, 1, 56, 127
1, 110201, Note_on_c, 1, 71, 127
1, 110201, Note_on_c, 1, 74, 127
1, 110546, Note_off_c, 1, 56, 0
1, 110546, Note_off_c, 1, 71, 0
1, 110546, Note_off_c, 1, 74, 0
1, 110550, Note_on_c, 1, 57, 127
1, 110550, Note_on_c, 1, 72, 127
1, 110550, Note_on_c, 1, 69, 127
1, 110721, Note_off_c, 1, 57, 0
1, 110725, Note_on_c, 1, 55, 127
1, 110896, Note_off_c, 1, 72, 0
1, 110896, Note_off_c, 1, 55, 0
1, 110900, Note_on_c, 1, 54, 127
1, 111071, Note_off_c, 1, 54, 0
1, 111075, Note_on_c, 1, 52, 127
1, 111240, Note_off_c, 1, 69, 0
1, 111245, Note_off_c, 1, 52, 0
1, 111249, Note_on_c, 1, 74, 127
1, 111249, Note_on_c, 1, 69, 127
1, 111249, Note_on_c, 1, 51, 127
1, 111389, Note_off_c, 1, 74, 0
1, 111391, Note_on_c, 1, 72, 127
1, 111462, Note_off_c, 1, 72, 0
1, 111756, Note_off_c, 1, 69, 0
1, 111769, Note_off_c, 1, 51, 0
1, 111773, Note_on_c, 1, 52, 127
1, 111773, Note_on_c, 1, 68, 127
1, 111773, Note_on_c, 1, 71, 127
1, 111944, Note_off_c, 1, 52, 0
1, 111944, Note_off_c, 1, 68, 0
1, 111944, Note_off_c, 1, 71, 0
1, 111948, Note_on_c, 1, 52, 127
1, 111948, Note_on_c, 1, 68, 127
1, 111948, Note_on_c, 1, 71, 127
1, 112297, Note_on_c, 1, 40, 127
1, 112637, Note_off_c, 1, 52, 0
1, 112642, Note_off_c, 1, 68, 0
1, 112642, Note_off_c, 1, 71, 0
1, 112804, Note_off_c, 1, 40, 0
1, 112845, Note_on_c, 1, 69, 127
1, 113016, Note_off_c, 1, 69, 0
1, 113020, Note_on_c, 1, 66, 127
1, 113020, Note_on_c, 1, 59, 127
1, 113020, Note_on_c, 1, 50, 127
1, 113020, Note_on_c, 1, 52, 127
1, 113191, Note_off_c, 1, 66, 0
1, 113195, Note_on_c, 1, 68, 127
1, 113366, Note_off_c, 1, 59, 0
1, 113366, Note_off_c, 1, 50, 0
1, 113366, Note_off_c, 1, 52, 0
1, 113366, Note_off_c, 1, 68, 0
1, 113370, Note_on_c, 1, 69, 127
1, 113370, Note_on_c, 1, 48, 127
1, 113370, Note_on_c, 1, 52, 127
1, 113370, Note_on_c, 1, 57, 127
1, 113541, Note_off_c, 1, 69, 0
1, 113545, Note_on_c, 1, 71, 127
1, 113716, Note_off_c, 1, 71, 0
1, 113720, Note_on_c, 1, 68, 127
1, 113878, Note_off_c, 1, 48, 0
1, 113878, Note_off_c, 1, 52, 0
1, 113878, Note_off_c, 1, 57, 0
1, 113891, Note_off_c, 1, 68, 0
1, 113895, Note_on_c, 1, 69, 127
1, 114066, Note_off_c, 1, 69, 0
1, 114070, Note_on_c, 1, 71, 127
1, 114070, Note_on_c, 1, 50, 127
1, 114070, Note_on_c, 1, 56, 127
1, 114070, Note_on_c, 1, 47, 127
1, 114241, Note_off_c, 1, 71, 0
1, 114245, Note_on_c, 1, 72, 127
1, 114416, Note_off_c, 1, 72, 0
1, 114420, Note_on_c, 1, 69, 127
1, 114578, Note_off_c, 1, 50, 0
1, 114578, Note_off_c, 1, 56, 0
1, 114578, Note_off_c, 1, 47, 0
1, 114591, Note_off_c, 1, 69, 0
1, 114595, Note_on_c, 1, 71, 127
1, 114766, Note_off_c, 1, 71, 0
1, 114770, Note_on_c, 1, 72, 127
1, 114770, Note_on_c, 1, 57, 127
1, 114770, Note_on_c, 1, 45, 127
1, 114770, Note_on_c, 1, 52, 127
1, 115115, Note_off_c, 1, 72, 0
1, 115119, Note_on_c, 1, 69, 127
1, 115464, Note_off_c, 1, 57, 0
1, 115464, Note_off_c, 1, 45, 0
1, 115464, Note_off_c, 1, 52, 0
1, 115464, Note_off_c, 1, 69, 0
1, 115468, Note_on_c, 1, 56, 127
1, 115468, Note_on_c, 1, 71, 127
1, 115468, Note_on_c, 1, 64, 127
1, 115639, Note_off_c, 1, 56, 0
1, 115643, Note_on_c, 1, 57, 127
1, 115814, Note_off_c, 1, 57, 0
1, 115818, Note_on_c, 1, 54, 127
1, 115976, Note_off_c, 1, 71, 0
1, 115976, Note_off_c, 1, 64, 0
1, 115989, Note_off_c, 1, 54, 0
1, 115993, Note_on_c, 1, 56, 127
1, 116164, Note_off_c, 1, 56, 0
1, 116168, Note_on_c, 1, 57, 127
1, 116168, Note_on_c, 1, 64, 127
1, 116168, Note_on_c, 1, 72, 127
1, 116168, Note_on_c, 1, 69, 127
1, 116339, Note_off_c, 1, 57, 0
1, 116343, Note_on_c, 1, 59, 127
1, 116514, Note_off_c, 1, 59, 0
1, 116518, Note_on_c, 1, 56, 127
1, 116676, Note_off_c, 1, 64, 0
1, 116676, Note_off_c, 1, 72, 0
1, 116676, Note_off_c, 1, 69, 0
1, 116689, Note_off_c, 1, 56, 0
1, 116693, Note_on_c, 1, 57, 127
1, 116864, Note_off_c, 1, 57, 0
1, 116868, Note_on_c, 1, 59, 127
1, 116868, Note_on_c, 1, 74, 127
1, 116868, Note_on_c, 1, 67, 127
1, 116868, Note_on_c, 1, 71, 127
1, 117039, Note_off_c, 1, 59, 0
1, 117043, Note_on_c, 1, 60, 127
1, 117214, Note_off_c, 1, 60, 0
1, 117218, Note_on_c, 1, 57, 127
1, 117376, Note_off_c, 1, 74, 0
1, 117376, Note_off_c, 1, 67, 0
1, 117376, Note_off_c, 1, 71, 0
1, 117389, Note_off_c, 1, 57, 0
1, 117393, Note_on_c, 1, 59, 127
1, 117564, Note_off_c, 1, 59, 0
1, 117568, Note_on_c, 1, 60, 127
1, 117743, Note_on_c, 1, 76, 127
1, 117914, Note_off_c, 1, 76, 0
1, 117918, Note_on_c, 1, 79, 127
1, 117918, Note_on_c, 1, 48, 127
1, 118089, Note_off_c, 1, 79, 0
1, 118093, Note_on_c, 1, 77, 127
1, 118258, Note_off_c, 1, 60, 0
1, 118263, Note_off_c, 1, 77, 0
1, 118425, Note_off_c, 1, 48, 0
1, 118442, Note_on_c, 1, 74, 127
1, 118613, Note_off_c, 1, 74, 0
1, 118617, Note_on_c, 1, 72, 127
1, 118617, Note_on_c, 1, 52, 127
1, 118617, Note_on_c, 1, 55, 127
1, 118617, Note_on_c, 1, 60, 127
1, 118788, Note_off_c, 1, 72, 0
1, 118792, Note_on_c, 1, 71, 127
1, 118963, Note_off_c, 1, 52, 0
1, 118963, Note_off_c, 1, 55, 0
1, 118963, Note_off_c, 1, 60, 0
1, 118963, Note_off_c, 1, 71, 0
1, 118967, Note_on_c, 1, 69, 127
1, 118967, Note_on_c, 1, 53, 127
1, 118967, Note_on_c, 1, 60, 127
1, 118967, Note_on_c, 1, 57, 127
1, 119138, Note_off_c, 1, 69, 0
1, 119142, Note_on_c, 1, 77, 127
1, 119313, Note_off_c, 1, 77, 0
1, 119317, Note_on_c, 1, 81, 127
1, 119488, Note_off_c, 1, 81, 0
1, 119492, Note_on_c, 1, 79, 127
1, 119663, Note_off_c, 1, 79, 0
1, 119840, Note_off_c, 1, 53, 0
1, 119840, Note_off_c, 1, 60, 0
1, 119840, Note_off_c, 1, 57, 0
1, 119842, Note_on_c, 1, 76, 127
1, 120013, Note_off_c, 1, 76, 0
1, 120017, Note_on_c, 1, 74, 127
1, 120017, Note_on_c, 1, 53, 127
1, 120017, Note_on_c, 1, 62, 127
1, 120017, Note_on_c, 1, 57, 127
1, 120188, Note_off_c, 1, 74, 0
1, 120192, Note_on_c, 1, 72, 127
1, 120363, Note_off_c, 1, 53, 0
1, 120363, Note_off_c, 1, 62, 0
1, 120363, Note_off_c, 1, 57, 0
1, 120363, Note_off_c, 1, 72, 0
1, 120367, Note_on_c, 1, 71, 127
1, 120367, Note_on_c, 1, 62, 127
1, 120367, Note_on_c, 1, 55, 127
1, 120538, Note_off_c, 1, 71, 0
1, 120542, Note_on_c, 1, 67, 127
1, 120713, Note_off_c, 1, 67, 0
1, 120717, Note_on_c, 1, 72, 127
1, 120875, Note_off_c, 1, 62, 0
1, 120891, Note_on_c, 1, 64, 127
1, 121062, Note_off_c, 1, 64, 0
1, 121224, Note_off_c, 1, 72, 0
1, 121590, Note_on_c, 1, 74, 127
1, 121760, Note_off_c, 1, 55, 0
1, 121760, Note_off_c, 1, 74, 0
1, 121764, Note_on_c, 1, 64, 127
1, 121764, Note_on_c, 1, 67, 127
1, 121764, Note_on_c, 1, 72, 127
1, 121939, Note_on_c, 1, 60, 127
1, 122108, Note_off_c, 1, 64, 0
1, 122110, Note_off_c, 1, 60, 0
1, 122289, Note_on_c, 1, 62, 127
1, 122460, Note_off_c, 1, 62, 0
1, 122637, Note_off_c, 1, 67, 0
1, 122637, Note_off_c, 1, 72, 0
1, 122639, Note_on_c, 1, 59, 127
1, 122810, Note_off_c, 1, 59, 0
1, 122814, Note_on_c, 1, 57, 127
1, 122814, Note_on_c, 1, 76, 127
1, 122814, Note_on_c, 1, 67, 127
1, 122814, Note_on_c, 1, 72, 127
1, 122985, Note_off_c, 1, 57, 0
1, 122989, Note_on_c, 1, 55, 127
1, 123160, Note_off_c, 1, 76, 0
1, 123160, Note_off_c, 1, 67, 0
1, 123160, Note_off_c, 1, 72, 0
1, 123160, Note_off_c, 1, 55, 0
1, 123164, Note_on_c, 1, 53, 127
1, 123164, Note_on_c, 1, 77, 127
1, 123164, Note_on_c, 1, 69, 127
1, 123164, Note_on_c, 1, 72, 127
1, 123335, Note_off_c, 1, 53, 0
1, 123339, Note_on_c, 1, 57, 127
1, 123510, Note_off_c, 1, 57, 0
1, 123514, Note_on_c, 1, 55, 127
1, 123685, Note_off_c, 1, 55, 0
1, 124037, Note_off_c, 1, 77, 0
1, 124037, Note_off_c, 1, 69, 0
1, 124037, Note_off_c, 1, 72, 0
1, 124039, Note_on_c, 1, 52, 127
1, 124210, Note_off_c, 1, 52, 0
1, 124214, Note_on_c, 1, 50, 127
1, 124214, Note_on_c, 1, 69, 127
1, 124214, Note_on_c, 1, 74, 127
1, 124214, Note_on_c, 1, 77, 127
1, 124385, Note_off_c, 1, 50, 0
1, 124389, Note_on_c, 1, 48, 127
1, 124560, Note_off_c, 1, 69, 0
1, 124560, Note_off_c, 1, 74, 0
1, 124560, Note_off_c, 1, 77, 0
1, 124560, Note_off_c, 1, 48, 0
1, 124564, Note_on_c, 1, 47, 127
1, 124564, Note_on_c, 1, 77, 127
1, 124564, Note_on_c, 1, 74, 127
1, 124564, Note_on_c, 1, 67, 127
1, 124735, Note_off_c, 1, 47, 0
1, 124739, Note_on_c, 1, 43, 127
1, 124910, Note_off_c, 1, 77, 0
1, 124910, Note_off_c, 1, 74, 0
1, 124910, Note_off_c, 1, 43, 0
1, 124914, Note_on_c, 1, 48, 127
1, 124914, Note_on_c, 1, 76, 127
1, 124914, Note_on_c, 1, 72, 127
1, 125085, Note_off_c, 1, 48, 0
1, 125089, Note_on_c, 1, 41, 127
1, 125254, Note_off_c, 1, 67, 0
1, 125259, Note_off_c, 1, 76, 0
1, 125259, Note_off_c, 1, 41, 0
1, 125421, Note_off_c, 1, 72, 0
1, 125437, Note_on_c, 1, 69, 127
1, 125608, Note_off_c, 1, 69, 0
1, 125612, Note_on_c, 1, 71, 127
1, 125783, Note_off_c, 1, 71, 0
1, 125787, Note_on_c, 1, 65, 127
1, 125957, Note_off_c, 1, 65, 0
1, 125961, Note_on_c, 1, 48, 127
1, 125961, Note_on_c, 1, 67, 127
1, 125961, Note_on_c, 1, 72, 127
1, 125961, Note_on_c, 1, 64, 127
1, 126306, Note_off_c, 1, 48, 0
1, 126310, Note_on_c, 1, 58, 127
1, 126655, Note_off_c, 1, 58, 0
1, 126832, Note_off_c, 1, 67, 0
1, 126832, Note_off_c, 1, 72, 0
1, 126832, Note_off_c, 1, 64, 0
1, 127009, Note_on_c, 1, 72, 127
1, 127009, Note_on_c, 1, 76, 127
1, 127009, Note_on_c, 1, 67, 127
1, 127009, Note_on_c, 1, 48, 127
1, 127354, Note_off_c, 1, 72, 0
1, 127354, Note_off_c, 1, 76, 0
1, 127354, Note_off_c, 1, 67, 0
1, 127354, Note_off_c, 1, 48, 0
1, 127358, Note_on_c, 1, 53, 127
1, 127358, Note_on_c, 1, 72, 127
1, 127358, Note_on_c, 1, 77, 127
1, 127358, Note_on_c, 1, 69, 127
1, 127703, Note_off_c, 1, 53, 0
1, 127707, Note_on_c, 1, 60, 127
1, 128052, Note_off_c, 1, 60, 0
1, 128229, Note_off_c, 1, 72, 0
1, 128229, Note_off_c, 1, 77, 0
1, 128229, Note_off_c, 1, 69, 0
1, 128406, Note_on_c, 1, 69, 127
1, 128406, Note_on_c, 1, 74, 127
1, 128406, Note_on_c, 1, 77, 127
1, 128406, Note_on_c, 1, 53, 127
1, 128751, Note_off_c, 1, 69, 0
1, 128751, Note_off_c, 1, 74, 0
1, 128751, Note_off_c, 1, 77, 0
1, 128751, Note_off_c, 1, 53, 0
1, 128755, Note_on_c, 1, 48, 127
1, 128755, Note_on_c, 1, 79, 127
1, 128755, Note_on_c, 1, 72, 127
1, 128755, Note_on_c, 1, 76, 127
1, 129100, Note_off_c, 1, 48, 0
1, 129104, Note_on_c, 1, 58, 127
1, 129449, Note_off_c, 1, 58, 0
1, 129626, Note_off_c, 1, 79, 0
1, 129626, Note_off_c, 1, 72, 0
1, 129626, Note_off_c, 1, 76, 0
1, 129803, Note_on_c, 1, 79, 127
1, 129803, Note_on_c, 1, 72, 127
1, 129803, Note_on_c, 1, 76, 127
1, 129803, Note_on_c, 1, 48, 127
1, 130148, Note_off_c, 1, 79, 0
1, 130148, Note_off_c, 1, 72, 0
1, 130148, Note_off_c, 1, 76, 0
1, 130148, Note_off_c, 1, 48, 0
1, 130152, Note_on_c, 1, 81, 127
1, 130152, Note_on_c, 1, 53, 127
1, 130323, Note_off_c, 1, 81, 0
1, 130327, Note_on_c, 1, 77, 127
1, 130498, Note_off_c, 1, 53, 0
1, 130498, Note_off_c, 1, 77, 0
1, 130502, Note_on_c, 1, 72, 127
1, 130502, Note_on_c, 1, 57, 127
1, 130673, Note_off_c, 1, 72, 0
1, 130673, Note_off_c, 1, 57, 0
1, 130677, Note_on_c, 1, 77, 127
1, 130677, Note_on_c, 1, 58, 127
1, 130848, Note_off_c, 1, 77, 0
1, 130848, Note_off_c, 1, 58, 0
1, 130852, Note_on_c, 1, 76, 127
1, 130852, Note_on_c, 1, 60, 127
1, 131023, Note_off_c, 1, 76, 0
1, 131027, Note_on_c, 1, 79, 127
1, 131198, Note_off_c, 1, 60, 0
1, 131198, Note_off_c, 1, 79, 0
1, 131202, Note_on_c, 1, 72, 127
1, 131202, Note_on_c, 1, 48, 127
1, 131373, Note_off_c, 1, 72, 0
1, 131377, Note_on_c, 1, 76, 127
1, 131548, Note_off_c, 1, 48, 0
1, 131548, Note_off_c, 1, 76, 0
1, 131552, Note_on_c, 1, 53, 127
1, 131552, Note_on_c, 1, 77, 127
1, 131723, Note_off_c, 1, 53, 0
1, 131727, Note_on_c, 1, 55, 127
1, 131898, Note_off_c, 1, 55, 0
1, 131902, Note_on_c, 1, 57, 127
1, 131902, Note_on_c, 1, 65, 127
1, 132073, Note_off_c, 1, 57, 0
1, 132252, Note_on_c, 1, 60, 127
1, 132410, Note_off_c, 1, 65, 0
1, 132423, Note_off_c, 1, 60, 0
1, 132425, Note_off_c, 1, 77, 0
1, 132427, Note_on_c, 1, 62, 127
1, 132598, Note_off_c, 1, 62, 0
1, 132602, Note_on_c, 1, 64, 127
1, 132602, Note_on_c, 1, 79, 127
1, 132773, Note_off_c, 1, 64, 0
1, 132777, Note_on_c, 1, 60, 127
1, 132948, Note_off_c, 1, 79, 0
1, 132948, Note_off_c, 1, 60, 0
1, 132952, Note_on_c, 1, 81, 127
1, 132952, Note_on_c, 1, 65, 127
1, 133123, Note_off_c, 1, 81, 0
1, 133127, Note_on_c, 1, 77, 127
1, 133298, Note_off_c, 1, 65, 0
1, 133298, Note_off_c, 1, 77, 0
1, 133302, Note_on_c, 1, 74, 127
1, 133302, Note_on_c, 1, 53, 127
1, 133473, Note_off_c, 1, 74, 0
1, 133473, Note_off_c, 1, 53, 0
1, 133477, Note_on_c, 1, 77, 127
1, 133477, Note_on_c, 1, 55, 127
1, 133648, Note_off_c, 1, 77, 0
1, 133648, Note_off_c, 1, 55, 0
1, 133652, Note_on_c, 1, 76, 127
1, 133652, Note_on_c, 1, 57, 127
1, 133823, Note_off_c, 1, 76, 0
1, 133827, Note_on_c, 1, 73, 127
1, 133998, Note_off_c, 1, 57, 0
1, 133998, Note_off_c, 1, 73, 0
1, 134002, Note_on_c, 1, 69, 127
1, 134002, Note_on_c, 1, 45, 127
1, 134173, Note_off_c, 1, 69, 0
1, 134177, Note_on_c, 1, 73, 127
1, 134348, Note_off_c, 1, 45, 0
1, 134348, Note_off_c, 1, 73, 0
1, 134352, Note_on_c, 1, 50, 127
1, 134352, Note_on_c, 1, 74, 127
1, 134523, Note_off_c, 1, 50, 0
1, 134527, Note_on_c, 1, 52, 127
1, 134698, Note_off_c, 1, 52, 0
1, 134702, Note_on_c, 1, 53, 127
1, 134702, Note_on_c, 1, 62, 127
1, 134873, Note_off_c, 1, 53, 0
1, 135052, Note_on_c, 1, 55, 127
1, 135210, Note_off_c, 1, 62, 0
1, 135223, Note_off_c, 1, 55, 0
1, 135225, Note_off_c, 1, 74, 0
1, 135227, Note_on_c, 1, 57, 127
1, 135398, Note_off_c, 1, 57, 0
1, 135402, Note_on_c, 1, 59, 127
1, 135402, Note_on_c, 1, 79, 127
1, 135573, Note_off_c, 1, 59, 0
1, 135577, Note_on_c, 1, 55, 127
1, 135748, Note_off_c, 1, 79, 0
1, 135748, Note_off_c, 1, 55, 0
1, 135752, Note_on_c, 1, 76, 127
1, 135752, Note_on_c, 1, 60, 127
1, 135923, Note_off_c, 1, 76, 0
1, 135927, Note_on_c, 1, 72, 127
1, 136098, Note_off_c, 1, 60, 0
1, 136098, Note_off_c, 1, 72, 0
1, 136102, Note_on_c, 1, 67, 127
1, 136102, Note_on_c, 1, 52, 127
1, 136273, Note_off_c, 1, 67, 0
1, 136273, Note_off_c, 1, 52, 0
1, 136277, Note_on_c, 1, 72, 127
1, 136277, Note_on_c, 1, 53, 127
1, 136448, Note_off_c, 1, 72, 0
1, 136448, Note_off_c, 1, 53, 0
1, 136452, Note_on_c, 1, 71, 127
1, 136452, Note_on_c, 1, 55, 127
1, 136623, Note_off_c, 1, 71, 0
1, 136627, Note_on_c, 1, 74, 127
1, 136798, Note_off_c, 1, 55, 0
1, 136798, Note_off_c, 1, 74, 0
1, 136802, Note_on_c, 1, 67, 127
1, 136802, Note_on_c, 1, 43, 127
1, 136973, Note_off_c, 1, 67, 0
1, 136977, Note_on_c, 1, 71, 127
1, 137148, Note_off_c, 1, 43, 0
1, 137148, Note_off_c, 1, 71, 0
1, 137152, Note_on_c, 1, 48, 127
1, 137152, Note_on_c, 1, 72, 127
1, 137323, Note_off_c, 1, 48, 0
1, 137327, Note_on_c, 1, 50, 127
1, 137498, Note_off_c, 1, 72, 0
1, 137498, Note_off_c, 1, 50, 0
1, 137502, Note_on_c, 1, 52, 127
1, 137502, Note_on_c, 1, 60, 127
1, 137673, Note_off_c, 1, 52, 0
1, 137677, Note_on_c, 1, 53, 127
1, 137848, Note_off_c, 1, 60, 0
1, 137848, Note_off_c, 1, 53, 0
1, 137852, Note_on_c, 1, 55, 127
1, 137852, Note_on_c, 1, 71, 127
1, 138027, Note_on_c, 1, 65, 127
1, 138198, Note_off_c, 1, 55, 0
1, 138198, Note_off_c, 1, 65, 0
1, 138202, Note_on_c, 1, 67, 127
1, 138202, Note_on_c, 1, 43, 127
1, 138373, Note_off_c, 1, 67, 0
1, 138542, Note_off_c, 1, 71, 0
1, 138547, Note_off_c, 1, 43, 0
1, 138551, Note_on_c, 1, 48, 127
1, 138551, Note_on_c, 1, 64, 127
1, 138726, Note_on_c, 1, 67, 127
1, 138897, Note_off_c, 1, 48, 0
1, 138897, Note_off_c, 1, 67, 0
1, 138901, Note_on_c, 1, 52, 127
1, 138901, Note_on_c, 1, 72, 127
1, 139059, Note_off_c, 1, 64, 0
1, 139072, Note_off_c, 1, 52, 0
1, 139076, Note_on_c, 1, 53, 127
1, 139247, Note_off_c, 1, 53, 0
1, 139251, Note_on_c, 1, 55, 127
1, 139251, Note_on_c, 1, 62, 127
1, 139409, Note_off_c, 1, 72, 0
1, 139596, Note_off_c, 1, 55, 0
1, 139600, Note_on_c, 1, 71, 127
1, 139600, Note_on_c, 1, 43, 127
1, 139758, Note_off_c, 1, 62, 0
1, 139771, Note_off_c, 1, 71, 0
1, 139775, Note_on_c, 1, 74, 127
1, 139946, Note_off_c, 1, 43, 0
1, 139946, Note_off_c, 1, 74, 0
1, 139950, Note_on_c, 1, 48, 127
1, 139950, Note_on_c, 1, 72, 127
1, 140121, Note_off_c, 1, 48, 0
1, 140125, Note_on_c, 1, 47, 127
1, 140296, Note_off_c, 1, 47, 0
1, 140475, Note_on_c, 1, 50, 127
1, 140646, Note_off_c, 1, 50, 0
1, 140823, Note_off_c, 1, 72, 0
1, 140825, Note_on_c, 1, 47, 127
1, 140996, Note_off_c, 1, 47, 0
1, 141000, Note_on_c, 1, 45, 127
1, 141000, Note_on_c, 1, 72, 127
1, 141171, Note_off_c, 1, 45, 0
1, 141175, Note_on_c, 1, 43, 127
1, 141346, Note_off_c, 1, 72, 0
1, 141346, Note_off_c, 1, 43, 0
1, 141350, Note_on_c, 1, 74, 127
1, 141350, Note_on_c, 1, 41, 127
1, 141521, Note_off_c, 1, 74, 0
1, 141525, Note_on_c, 1, 72, 127
1, 141696, Note_off_c, 1, 41, 0
1, 141696, Note_off_c, 1, 72, 0
1, 141700, Note_on_c, 1, 71, 127
1, 141700, Note_on_c, 1, 38, 127
1, 141871, Note_off_c, 1, 71, 0
1, 141875, Note_on_c, 1, 69, 127
1, 142046, Note_off_c, 1, 38, 0
1, 142046, Note_off_c, 1, 69, 0
1, 142050, Note_on_c, 1, 68, 127
1, 142050, Note_on_c, 1, 40, 127
1, 142221, Note_off_c, 1, 68, 0
1, 142225, Note_on_c, 1, 71, 127
1, 142396, Note_off_c, 1, 71, 0
1, 142400, Note_on_c, 1, 76, 127
1, 142571, Note_off_c, 1, 76, 0
1, 142740, Note_off_c, 1, 40, 0
1, 142749, Note_on_c, 1, 69, 127
1, 142833, Note_off_c, 1, 69, 0
1, 142837, Note_on_c, 1, 68, 127
1, 142921, Note_off_c, 1, 68, 0
1, 142925, Note_on_c, 1, 57, 127
1, 142925, Note_on_c, 1, 69, 127
1, 143096, Note_off_c, 1, 57, 0
1, 143100, Note_on_c, 1, 55, 127
1, 143271, Note_off_c, 1, 69, 0
1, 143271, Note_off_c, 1, 55, 0
1, 143275, Note_on_c, 1, 71, 127
1, 143275, Note_on_c, 1, 53, 127
1, 143446, Note_off_c, 1, 71, 0
1, 143446, Note_off_c, 1, 53, 0
1, 143450, Note_on_c, 1, 72, 127
1, 143450, Note_on_c, 1, 52, 127
1, 143621, Note_off_c, 1, 72, 0
1, 143621, Note_off_c, 1, 52, 0
1, 143625, Note_on_c, 1, 74, 127
1, 143625, Note_on_c, 1, 50, 127
1, 143796, Note_off_c, 1, 74, 0
1, 143796, Note_off_c, 1, 50, 0
1, 143800, Note_on_c, 1, 76, 127
1, 143800, Note_on_c, 1, 48, 127
1, 143971, Note_off_c, 1, 76, 0
1, 143971, Note_off_c, 1, 48, 0
1, 143975, Note_on_c, 1, 77, 127
1, 143975, Note_on_c, 1, 47, 127
1, 144146, Note_off_c, 1, 77, 0
1, 144146, Note_off_c, 1, 47, 0
1, 144150, Note_on_c, 1, 76, 127
1, 144150, Note_on_c, 1, 48, 127
1, 144321, Note_off_c, 1, 76, 0
1, 144325, Note_on_c, 1, 80, 127
1, 144496, Note_off_c, 1, 80, 0
1, 144500, Note_on_c, 1, 81, 127
1, 144671, Note_off_c, 1, 48, 0
1, 144675, Note_on_c, 1, 72, 127
1, 144675, Note_on_c, 1, 50, 127
1, 144846, Note_off_c, 1, 72, 0
1, 144846, Note_off_c, 1, 50, 0
1, 144850, Note_on_c, 1, 71, 127
1, 144850, Note_on_c, 1, 52, 127
1, 145008, Note_off_c, 1, 81, 0
1, 145193, Note_off_c, 1, 71, 0
1, 145195, Note_off_c, 1, 52, 0
1, 145199, Note_on_c, 1, 80, 127
1, 145199, Note_on_c, 1, 40, 127
1, 145370, Note_off_c, 1, 80, 0
1, 145374, Note_on_c, 1, 83, 127
1, 145545, Note_off_c, 1, 40, 0
1, 145545, Note_off_c, 1, 83, 0
1, 145549, Note_on_c, 1, 45, 127
1, 145549, Note_on_c, 1, 81, 127
1, 145894, Note_off_c, 1, 45, 0
1, 145898, Note_on_c, 1, 57, 127
1, 145898, Note_on_c, 1, 69, 127
1, 146069, Note_off_c, 1, 57, 0
1, 146073, Note_on_c, 1, 59, 127
1, 146238, Note_off_c, 1, 81, 0
1, 146243, Note_off_c, 1, 59, 0
1, 146247, Note_on_c, 1, 60, 127
1, 146405, Note_off_c, 1, 69, 0
1, 146596, Note_on_c, 1, 76, 127
1, 146941, Note_off_c, 1, 60, 0
1, 146941, Note_off_c, 1, 76, 0
1, 146945, Note_on_c, 1, 77, 127
1, 146945, Note_on_c, 1, 71, 127
1, 146945, Note_on_c, 1, 62, 127
1, 147290, Note_off_c, 1, 77, 0
1, 147294, Note_on_c, 1, 76, 127
1, 147634, Note_off_c, 1, 71, 0
1, 147639, Note_off_c, 1, 62, 0
1, 147639, Note_off_c, 1, 76, 0
1, 147643, Note_on_c, 1, 72, 127
1, 147643, Note_on_c, 1, 76, 127
1, 147643, Note_on_c, 1, 60, 127
1, 147988, Note_off_c, 1, 72, 0
1, 147988, Note_off_c, 1, 76, 0
1, 147992, Note_on_c, 1, 74, 127
1, 148337, Note_off_c, 1, 60, 0
1, 148337, Note_off_c, 1, 74, 0
1, 148341, Note_on_c, 1, 74, 127
1, 148341, Note_on_c, 1, 55, 127
1, 148341, Note_on_c, 1, 71, 127
1, 148686, Note_off_c, 1, 74, 0
1, 148690, Note_on_c, 1, 67, 127
1, 149035, Note_off_c, 1, 67, 0
1, 149212, Note_off_c, 1, 55, 0
1, 149385, Note_off_c, 1, 71, 0
1, 149389, Note_on_c, 1, 74, 127
1, 149389, Note_on_c, 1, 77, 127
1, 149389, Note_on_c, 1, 53, 127
1, 149734, Note_off_c, 1, 74, 0
1, 149734, Note_off_c, 1, 77, 0
1, 149734, Note_off_c, 1, 53, 0
1, 149738, Note_on_c, 1, 79, 127
1, 149738, Note_on_c, 1, 73, 127
1, 149738, Note_on_c, 1, 52, 127
1, 150083, Note_off_c, 1, 79, 0
1, 150087, Note_on_c, 1, 77, 127
1, 150427, Note_off_c, 1, 73, 0
1, 150432, Note_off_c, 1, 52, 0
1, 150432, Note_off_c, 1, 77, 0
1, 150436, Note_on_c, 1, 74, 127
1, 150436, Note_on_c, 1, 77, 127
1, 150436, Note_on_c, 1, 50, 127
1, 150781, Note_off_c, 1, 74, 0
1, 150781, Note_off_c, 1, 77, 0
1, 150785, Note_on_c, 1, 76, 127
1, 151130, Note_off_c, 1, 50, 0
1, 151130, Note_off_c, 1, 76, 0
1, 151134, Note_on_c, 1, 73, 127
1, 151134, Note_on_c, 1, 57, 127
1, 151134, Note_on_c, 1, 76, 127
1, 151479, Note_off_c, 1, 73, 0
1, 151483, Note_on_c, 1, 69, 127
1, 151828, Note_off_c, 1, 69, 0
1, 152005, Note_off_c, 1, 57, 0
1, 152178, Note_off_c, 1, 76, 0
1, 152182, Note_on_c, 1, 79, 127
1, 152182, Note_on_c, 1, 73, 127
1, 152182, Note_on_c, 1, 52, 127
1, 152527, Note_off_c, 1, 79, 0
1, 152527, Note_off_c, 1, 73, 0
1, 152527, Note_off_c, 1, 52, 0
1, 152531, Note_on_c, 1, 69, 127
1, 152531, Note_on_c, 1, 81, 127
1, 152531, Note_on_c, 1, 53, 127
1, 152876, Note_off_c, 1, 69, 0
1, 152876, Note_off_c, 1, 81, 0
1, 152876, Note_off_c, 1, 53, 0
1, 152880, Note_on_c, 1, 71, 127
1, 152880, Note_on_c, 1, 79, 127
1, 152880, Note_on_c, 1, 55, 127
1, 153225, Note_off_c, 1, 71, 0
1, 153225, Note_off_c, 1, 79, 0
1, 153225, Note_off_c, 1, 55, 0
1, 153229, Note_on_c, 1, 79, 127
1, 153229, Note_on_c, 1, 73, 127
1, 153229, Note_on_c, 1, 57, 127
1, 153574, Note_off_c, 1, 79, 0
1, 153578, Note_on_c, 1, 77, 127
1, 153918, Note_off_c, 1, 73, 0
1, 153923, Note_off_c, 1, 57, 0
1, 153923, Note_off_c, 1, 77, 0
1, 153927, Note_on_c, 1, 77, 127
1, 153927, Note_on_c, 1, 58, 127
1, 153927, Note_on_c, 1, 74, 127
1, 154272, Note_off_c, 1, 77, 0
1, 154272, Note_off_c, 1, 58, 0
1, 154276, Note_on_c, 1, 82, 127
1, 154276, Note_on_c, 1, 55, 127
1, 154621, Note_off_c, 1, 82, 0
1, 154621, Note_off_c, 1, 55, 0
1, 154625, Note_on_c, 1, 81, 127
1, 154625, Note_on_c, 1, 53, 127
1, 154970, Note_off_c, 1, 74, 0
1, 154970, Note_off_c, 1, 81, 0
1, 154970, Note_off_c, 1, 53, 0
1, 154974, Note_on_c, 1, 79, 127
1, 154974, Note_on_c, 1, 73, 127
1, 154974, Note_on_c, 1, 52, 127
1, 155319, Note_off_c, 1, 79, 0
1, 155319, Note_off_c, 1, 73, 0
1, 155319, Note_off_c, 1, 52, 0
1, 155323, Note_on_c, 1, 50, 127
1, 155323, Note_on_c, 1, 77, 127
1, 155323, Note_on_c, 1, 74, 127
1, 155668, Note_off_c, 1, 50, 0
1, 155672, Note_on_c, 1, 55, 127
1, 155843, Note_off_c, 1, 77, 0
1, 155847, Note_on_c, 1, 76, 127
1, 156018, Note_off_c, 1, 55, 0
1, 156018, Note_off_c, 1, 76, 0
1, 156022, Note_on_c, 1, 57, 127
1, 156368, Note_off_c, 1, 74, 0
1, 156368, Note_off_c, 1, 57, 0
1, 156372, Note_on_c, 1, 73, 127
1, 156372, Note_on_c, 1, 45, 127
1, 156543, Note_off_c, 1, 73, 0
1, 156718, Note_off_c, 1, 45, 0
1, 156722, Note_on_c, 1, 74, 127
1, 156722, Note_on_c, 1, 65, 127
1, 156722, Note_on_c, 1, 69, 127
1, 156722, Note_on_c, 1, 50, 127
1, 156893, Note_off_c, 1, 74, 0
1, 156897, Note_on_c, 1, 77, 127
1, 157066, Note_off_c, 1, 65, 0
1, 157066, Note_off_c, 1, 69, 0
1, 157068, Note_off_c, 1, 77, 0
1, 157072, Note_on_c, 1, 38, 127
1, 157247, Note_on_c, 1, 72, 127
1, 157412, Note_off_c, 1, 50, 0
1, 157418, Note_off_c, 1, 72, 0
1, 157422, Note_on_c, 1, 70, 127
1, 157580, Note_off_c, 1, 38, 0
1, 157593, Note_off_c, 1, 70, 0
1, 157597, Note_on_c, 1, 79, 127
1, 157768, Note_off_c, 1, 79, 0
1, 157772, Note_on_c, 1, 74, 127
1, 157772, Note_on_c, 1, 59, 127
1, 157772, Note_on_c, 1, 55, 127
1, 157943, Note_off_c, 1, 74, 0
1, 157947, Note_on_c, 1, 77, 127
1, 158118, Note_off_c, 1, 59, 0
1, 158118, Note_off_c, 1, 55, 0
1, 158118, Note_off_c, 1, 77, 0
1, 158122, Note_on_c, 1, 76, 127
1, 158122, Note_on_c, 1, 60, 127
1, 158293, Note_off_c, 1, 76, 0
1, 158297, Note_on_c, 1, 72, 127
1, 158468, Note_off_c, 1, 72, 0
1, 158472, Note_on_c, 1, 67, 127
1, 158472, Note_on_c, 1, 48, 127
1, 158643, Note_off_c, 1, 67, 0
1, 158647, Note_on_c, 1, 70, 127
1, 158812, Note_off_c, 1, 60, 0
1, 158817, Note_off_c, 1, 70, 0
1, 158821, Note_on_c, 1, 69, 127
1, 158979, Note_off_c, 1, 48, 0
1, 158992, Note_off_c, 1, 69, 0
1, 158996, Note_on_c, 1, 77, 127
1, 159167, Note_off_c, 1, 77, 0
1, 159171, Note_on_c, 1, 72, 127
1, 159171, Note_on_c, 1, 57, 127
1, 159171, Note_on_c, 1, 53, 127
1, 159342, Note_off_c, 1, 72, 0
1, 159346, Note_on_c, 1, 75, 127
1, 159517, Note_off_c, 1, 57, 0
1, 159517, Note_off_c, 1, 53, 0
1, 159517, Note_off_c, 1, 75, 0
1, 159521, Note_on_c, 1, 74, 127
1, 159521, Note_on_c, 1, 58, 127
1, 159692, Note_off_c, 1, 74, 0
1, 159696, Note_on_c, 1, 70, 127
1, 159867, Note_off_c, 1, 70, 0
1, 159871, Note_on_c, 1, 65, 127
1, 159871, Note_on_c, 1, 46, 127
1, 160042, Note_off_c, 1, 65, 0
1, 160046, Note_on_c, 1, 69, 127
1, 160211, Note_off_c, 1, 58, 0
1, 160216, Note_off_c, 1, 69, 0
1, 160220, Note_on_c, 1, 67, 127
1, 160378, Note_off_c, 1, 46, 0
1, 160391, Note_off_c, 1, 67, 0
1, 160395, Note_on_c, 1, 76, 127
1, 160566, Note_off_c, 1, 76, 0
1, 160570, Note_on_c, 1, 70, 127
1, 160570, Note_on_c, 1, 55, 127
1, 160570, Note_on_c, 1, 52, 127
1, 160741, Note_off_c, 1, 70, 0
1, 160745, Note_on_c, 1, 74, 127
1, 160916, Note_off_c, 1, 55, 0
1, 160916, Note_off_c, 1, 52, 0
1, 160916, Note_off_c, 1, 74, 0
1, 160920, Note_on_c, 1, 57, 127
1, 160920, Note_on_c, 1, 73, 127
1, 161091, Note_off_c, 1, 57, 0
1, 161095, Note_on_c, 1, 58, 127
1, 161266, Note_off_c, 1, 73, 0
1, 161266, Note_off_c, 1, 58, 0
1, 161270, Note_on_c, 1, 57, 127
1, 161270, Note_on_c, 1, 69, 127
1, 161441, Note_off_c, 1, 57, 0
1, 161445, Note_on_c, 1, 55, 127
1, 161616, Note_off_c, 1, 55, 0
1, 161620, Note_on_c, 1, 53, 127
1, 161778, Note_off_c, 1, 69, 0
1, 161791, Note_off_c, 1, 53, 0
1, 161795, Note_on_c, 1, 52, 127
1, 161966, Note_off_c, 1, 52, 0
1, 161970, Note_on_c, 1, 53, 127
1, 161970, Note_on_c, 1, 81, 127
1, 162141, Note_off_c, 1, 53, 0
1, 162145, Note_on_c, 1, 50, 127
1, 162316, Note_off_c, 1, 81, 0
1, 162316, Note_off_c, 1, 50, 0
1, 162320, Note_on_c, 1, 82, 127
1, 162320, Note_on_c, 1, 62, 127
1, 162320, Note_on_c, 1, 55, 127
1, 162665, Note_off_c, 1, 82, 0
1, 162669, Note_on_c, 1, 73, 127
1, 163014, Note_off_c, 1, 73, 0
1, 163018, Note_on_c, 1, 74, 127
1, 163191, Note_off_c, 1, 62, 0
1, 163191, Note_off_c, 1, 55, 0
1, 163364, Note_off_c, 1, 74, 0
1, 163368, Note_on_c, 1, 81, 127
1, 163368, Note_on_c, 1, 62, 127
1, 163368, Note_on_c, 1, 54, 127
1, 163713, Note_off_c, 1, 81, 0
1, 163713, Note_off_c, 1, 62, 0
1, 163713, Note_off_c, 1, 54, 0
1, 163717, Note_on_c, 1, 82, 127
1, 163717, Note_on_c, 1, 62, 127
1, 163717, Note_on_c, 1, 55, 127
1, 164062, Note_off_c, 1, 82, 0
1, 164066, Note_on_c, 1, 73, 127
1, 164411, Note_off_c, 1, 73, 0
1, 164415, Note_on_c, 1, 74, 127
1, 164588, Note_off_c, 1, 62, 0
1, 164588, Note_off_c, 1, 55, 0
1, 164761, Note_off_c, 1, 74, 0
1, 164765, Note_on_c, 1, 82, 127
1, 164765, Note_on_c, 1, 55, 127
1, 164765, Note_on_c, 1, 52, 127
1, 165110, Note_off_c, 1, 82, 0
1, 165110, Note_off_c, 1, 55, 0
1, 165110, Note_off_c, 1, 52, 0
1, 165114, Note_on_c, 1, 81, 127
1, 165114, Note_on_c, 1, 49, 127
1, 165114, Note_on_c, 1, 57, 127
1, 165459, Note_off_c, 1, 81, 0
1, 165459, Note_off_c, 1, 49, 0
1, 165463, Note_on_c, 1, 79, 127
1, 165463, Note_on_c, 1, 50, 127
1, 165634, Note_off_c, 1, 79, 0
1, 165638, Note_on_c, 1, 77, 127
1, 165803, Note_off_c, 1, 57, 0
1, 165808, Note_off_c, 1, 50, 0
1, 165808, Note_off_c, 1, 77, 0
1, 165812, Note_on_c, 1, 77, 127
1, 165812, Note_on_c, 1, 55, 127
1, 165983, Note_off_c, 1, 77, 0
1, 165987, Note_on_c, 1, 76, 127
1, 166158, Note_off_c, 1, 55, 0
1, 166158, Note_off_c, 1, 76, 0
1, 166162, Note_on_c, 1, 77, 127
1, 166162, Note_on_c, 1, 61, 127
1, 166162, Note_on_c, 1, 57, 127
1, 166333, Note_off_c, 1, 77, 0
1, 166337, Note_on_c, 1, 79, 127
1, 166508, Note_off_c, 1, 61, 0
1, 166508, Note_off_c, 1, 57, 0
1, 166508, Note_off_c, 1, 79, 0
1, 166512, Note_on_c, 1, 77, 127
1, 166512, Note_on_c, 1, 50, 127
1, 166512, Note_on_c, 1, 62, 127
1, 166683, Note_off_c, 1, 77, 0
1, 166687, Note_on_c, 1, 76, 127
1, 166858, Note_off_c, 1, 76, 0
1, 166862, Note_on_c, 1, 74, 127
1, 167033, Note_off_c, 1, 50, 0
1, 167037, Note_on_c, 1, 52, 127
1, 167208, Note_off_c, 1, 52, 0
1, 167212, Note_on_c, 1, 53, 127
1, 167297, Note_off_c, 1, 74, 0
1, 167384, Note_off_c, 1, 62, 0
1, 167557, Note_off_c, 1, 53, 0
1, 167561, Note_on_c, 1, 76, 127
1, 167561, Note_on_c, 1, 50, 127
1, 167561, Note_on_c, 1, 57, 127
1, 167732, Note_off_c, 1, 76, 0
1, 167736, Note_on_c, 1, 77, 127
1, 167907, Note_off_c, 1, 50, 0
1, 167907, Note_off_c, 1, 57, 0
1, 167907, Note_off_c, 1, 77, 0
1, 167911, Note_on_c, 1, 71, 127
1, 167911, Note_on_c, 1, 55, 127
1, 167911, Note_on_c, 1, 59, 127
1, 168082, Note_off_c, 1, 71, 0
1, 168086, Note_on_c, 1, 74, 127
1, 168257, Note_off_c, 1, 74, 0
1, 168261, Note_on_c, 1, 76, 127
1, 168419, Note_off_c, 1, 55, 0
1, 168419, Note_off_c, 1, 59, 0
1, 168432, Note_off_c, 1, 76, 0
1, 168436, Note_on_c, 1, 77, 127
1, 168607, Note_off_c, 1, 77, 0
1, 168611, Note_on_c, 1, 76, 127
1, 168611, Note_on_c, 1, 60, 127
1, 168611, Note_on_c, 1, 55, 127
1, 168611, Note_on_c, 1, 48, 127
1, 168782, Note_off_c, 1, 76, 0
1, 168786, Note_on_c, 1, 79, 127
1, 168957, Note_off_c, 1, 79, 0
1, 168961, Note_on_c, 1, 81, 127
1, 169119, Note_off_c, 1, 60, 0
1, 169119, Note_off_c, 1, 55, 0
1, 169119, Note_off_c, 1, 48, 0
1, 169132, Note_off_c, 1, 81, 0
1, 169136, Note_on_c, 1, 82, 127
1, 169307, Note_off_c, 1, 82, 0
1, 169311, Note_on_c, 1, 81, 127
1, 169311, Note_on_c, 1, 60, 127
1, 169311, Note_on_c, 1, 57, 127
1, 169311, Note_on_c, 1, 53, 127
1, 169482, Note_off_c, 1, 81, 0
1, 169486, Note_on_c, 1, 72, 127
1, 169657, Note_off_c, 1, 72, 0
1, 169661, Note_on_c, 1, 74, 127
1, 169819, Note_off_c, 1, 60, 0
1, 169819, Note_off_c, 1, 57, 0
1, 169819, Note_off_c, 1, 53, 0
1, 169832, Note_off_c, 1, 74, 0
1, 169836, Note_on_c, 1, 76, 127
1, 170007, Note_off_c, 1, 76, 0
1, 170011, Note_on_c, 1, 77, 127
1, 170011, Note_on_c, 1, 62, 127
1, 170011, Note_on_c, 1, 53, 127
1, 170011, Note_on_c, 1, 57, 127
1, 170011, Note_on_c, 1, 50, 127
1, 170182, Note_off_c, 1, 77, 0
1, 170186, Note_on_c, 1, 81, 127
1, 170357, Note_off_c, 1, 81, 0
1, 170361, Note_on_c, 1, 83, 127
1, 170519, Note_off_c, 1, 62, 0
1, 170519, Note_off_c, 1, 53, 0
1, 170519, Note_off_c, 1, 57, 0
1, 170519, Note_off_c, 1, 50, 0
1, 170532, Note_off_c, 1, 83, 0
1, 170536, Note_on_c, 1, 84, 127
1, 170707, Note_off_c, 1, 84, 0
1, 170711, Note_on_c, 1, 83, 127
1, 170711, Note_on_c, 1, 67, 127
1, 170882, Note_off_c, 1, 83, 0
1, 170882, Note_off_c, 1, 67, 0
1, 170886, Note_on_c, 1, 84, 127
1, 170886, Note_on_c, 1, 69, 127
1, 171057, Note_off_c, 1, 84, 0
1, 171057, Note_off_c, 1, 69, 0
1, 171061, Note_on_c, 1, 83, 127
1, 171061, Note_on_c, 1, 67, 127
1, 171232, Note_off_c, 1, 83, 0
1, 171232, Note_off_c, 1, 67, 0
1, 171236, Note_on_c, 1, 81, 127
1, 171236, Note_on_c, 1, 65, 127
1, 171407, Note_off_c, 1, 81, 0
1, 171407, Note_off_c, 1, 65, 0
1, 171411, Note_on_c, 1, 83, 127
1, 171411, Note_on_c, 1, 64, 127
1, 171582, Note_off_c, 1, 83, 0
1, 171582, Note_off_c, 1, 64, 0
1, 171586, Note_on_c, 1, 79, 127
1, 171586, Note_on_c, 1, 62, 127
1, 171757, Note_off_c, 1, 79, 0
1, 171757, Note_off_c, 1, 62, 0
1, 171761, Note_on_c, 1, 74, 127
1, 171761, Note_on_c, 1, 60, 127
1, 171932, Note_off_c, 1, 74, 0
1, 171932, Note_off_c, 1, 60, 0
1, 171936, Note_on_c, 1, 77, 127
1, 171936, Note_on_c, 1, 59, 127
1, 172107, Note_off_c, 1, 77, 0
1, 172107, Note_off_c, 1, 59, 0
1, 172111, Note_on_c, 1, 60, 127
1, 172111, Note_on_c, 1, 76, 127
1, 172282, Note_off_c, 1, 60, 0
1, 172286, Note_on_c, 1, 62, 127
1, 172457, Note_off_c, 1, 76, 0
1, 172457, Note_off_c, 1, 62, 0
1, 172461, Note_on_c, 1, 60, 127
1, 172461, Note_on_c, 1, 72, 127
1, 172632, Note_off_c, 1, 60, 0
1, 172636, Note_on_c, 1, 59, 127
1, 172807, Note_off_c, 1, 59, 0
1, 172811, Note_on_c, 1, 57, 127
1, 172896, Note_off_c, 1, 72, 0
1, 172981, Note_off_c, 1, 57, 0
1, 172985, Note_on_c, 1, 69, 127
1, 172985, Note_on_c, 1, 55, 127
1, 173156, Note_off_c, 1, 69, 0
1, 173156, Note_off_c, 1, 55, 0
1, 173160, Note_on_c, 1, 71, 127
1, 173160, Note_on_c, 1, 53, 127
1, 173331, Note_off_c, 1, 71, 0
1, 173331, Note_off_c, 1, 53, 0
1, 173335, Note_on_c, 1, 72, 127
1, 173335, Note_on_c, 1, 52, 127
1, 173506, Note_off_c, 1, 72, 0
1, 173506, Note_off_c, 1, 52, 0
1, 173510, Note_on_c, 1, 71, 127
1, 173510, Note_on_c, 1, 50, 127
1, 173681, Note_off_c, 1, 71, 0
1, 173685, Note_on_c, 1, 72, 127
1, 173856, Note_off_c, 1, 72, 0
1, 174035, Note_on_c, 1, 69, 127
1, 174206, Note_off_c, 1, 69, 0
1, 174210, Note_on_c, 1, 74, 127
1, 174381, Note_off_c, 1, 74, 0
1, 174383, Note_off_c, 1, 50, 0
1, 174385, Note_on_c, 1, 72, 127
1, 174556, Note_off_c, 1, 72, 0
1, 174560, Note_on_c, 1, 71, 127
1, 174560, Note_on_c, 1, 50, 127
1, 174560, Note_on_c, 1, 53, 127
1, 174731, Note_off_c, 1, 71, 0
1, 174735, Note_on_c, 1, 69, 127
1, 174906, Note_off_c, 1, 50, 0
1, 174906, Note_off_c, 1, 53, 0
1, 174906, Note_off_c, 1, 69, 0
1, 174910, Note_on_c, 1, 68, 127
1, 174910, Note_on_c, 1, 52, 127
1, 175081, Note_off_c, 1, 68, 0
1, 175085, Note_on_c, 1, 69, 127
1, 175256, Note_off_c, 1, 52, 0
1, 175256, Note_off_c, 1, 69, 0
1, 175260, Note_on_c, 1, 71, 127
1, 175260, Note_on_c, 1, 54, 127
1, 175431, Note_off_c, 1, 71, 0
1, 175435, Note_on_c, 1, 72, 127
1, 175606, Note_off_c, 1, 54, 0
1, 175606, Note_off_c, 1, 72, 0
1, 175610, Note_on_c, 1, 71, 127
1, 175610, Note_on_c, 1, 56, 127
1, 175781, Note_off_c, 1, 71, 0
1, 175785, Note_on_c, 1, 68, 127
1, 175956, Note_off_c, 1, 56, 0
1, 175956, Note_off_c, 1, 68, 0
1, 175960, Note_on_c, 1, 69, 127
1, 175960, Note_on_c, 1, 52, 127
1, 176131, Note_off_c, 1, 69, 0
1, 176135, Note_on_c, 1, 71, 127
1, 176306, Note_off_c, 1, 52, 0
1, 176306, Note_off_c, 1, 71, 0
1, 176310, Note_on_c, 1, 72, 127
1, 176310, Note_on_c, 1, 57, 127
1, 176481, Note_off_c, 1, 72, 0
1, 176485, Note_on_c, 1, 74, 127
1, 176656, Note_off_c, 1, 57, 0
1, 176656, Note_off_c, 1, 74, 0
1, 176660, Note_on_c, 1, 76, 127
1, 176660, Note_on_c, 1, 59, 127
1, 176831, Note_off_c, 1, 76, 0
1, 176835, Note_on_c, 1, 77, 127
1, 177006, Note_off_c, 1, 59, 0
1, 177006, Note_off_c, 1, 77, 0
1, 177010, Note_on_c, 1, 76, 127
1, 177010, Note_on_c, 1, 60, 127
1, 177181, Note_off_c, 1, 76, 0
1, 177185, Note_on_c, 1, 72, 127
1, 177356, Note_off_c, 1, 60, 0
1, 177356, Note_off_c, 1, 72, 0
1, 177360, Note_on_c, 1, 74, 127
1, 177360, Note_on_c, 1, 57, 127
1, 177531, Note_off_c, 1, 74, 0
1, 177535, Note_on_c, 1, 76, 127
1, 177706, Note_off_c, 1, 57, 0
1, 177706, Note_off_c, 1, 76, 0
1, 177710, Note_on_c, 1, 77, 127
1, 177710, Note_on_c, 1, 62, 127
1, 177881, Note_off_c, 1, 77, 0
1, 177885, Note_on_c, 1, 79, 127
1, 178056, Note_off_c, 1, 62, 0
1, 178056, Note_off_c, 1, 79, 0
1, 178060, Note_on_c, 1, 81, 127
1, 178060, Note_on_c, 1, 64, 127
1, 178231, Note_off_c, 1, 81, 0
1, 178235, Note_on_c, 1, 82, 127
1, 178406, Note_off_c, 1, 64, 0
1, 178406, Note_off_c, 1, 82, 0
1, 178410, Note_on_c, 1, 81, 127
1, 178410, Note_on_c, 1, 65, 127
1, 178581, Note_off_c, 1, 81, 0
1, 178585, Note_on_c, 1, 80, 127
1, 178756, Note_off_c, 1, 65, 0
1, 178756, Note_off_c, 1, 80, 0
1, 178760, Note_on_c, 1, 81, 127
1, 178760, Note_on_c, 1, 62, 127
1, 178931, Note_off_c, 1, 81, 0
1, 178935, Note_on_c, 1, 83, 127
1, 179106, Note_off_c, 1, 62, 0
1, 179106, Note_off_c, 1, 83, 0
1, 179110, Note_on_c, 1, 80, 127
1, 179110, Note_on_c, 1, 64, 127
1, 179281, Note_off_c, 1, 80, 0
1, 179281, Note_off_c, 1, 64, 0
1, 179285, Note_on_c, 1, 81, 127
1, 179285, Note_on_c, 1, 65, 127
1, 179456, Note_off_c, 1, 81, 0
1, 179456, Note_off_c, 1, 65, 0
1, 179460, Note_on_c, 1, 79, 127
1, 179460, Note_on_c, 1, 64, 127
1, 179631, Note_off_c, 1, 79, 0
1, 179631, Note_off_c, 1, 64, 0
1, 179635, Note_on_c, 1, 77, 127
1, 179635, Note_on_c, 1, 62, 127
1, 179806, Note_off_c, 1, 77, 0
1, 179806, Note_off_c, 1, 62, 0
1, 179810, Note_on_c, 1, 76, 127
1, 179810, Note_on_c, 1, 60, 127
1, 179981, Note_off_c, 1, 76, 0
1, 179981, Note_off_c, 1, 60, 0
1, 179985, Note_on_c, 1, 77, 127
1, 179985, Note_on_c, 1, 59, 127
1, 180156, Note_off_c, 1, 77, 0
1, 180156, Note_off_c, 1, 59, 0
1, 180160, Note_on_c, 1, 76, 127
1, 180160, Note_on_c, 1, 57, 127
1, 180331, Note_off_c, 1, 76, 0
1, 180331, Note_off_c, 1, 57, 0
1, 180335, Note_on_c, 1, 74, 127
1, 180335, Note_on_c, 1, 56, 127
1, 180506, Note_off_c, 1, 74, 0
1, 180506, Note_off_c, 1, 56, 0
1, 180510, Note_on_c, 1, 72, 127
1, 180510, Note_on_c, 1, 57, 127
1, 180859, Note_on_c, 1, 50, 127
1, 181030, Note_off_c, 1, 72, 0
1, 181034, Note_on_c, 1, 71, 127
1, 181205, Note_off_c, 1, 50, 0
1, 181205, Note_off_c, 1, 71, 0
1, 181209, Note_on_c, 1, 52, 127
1, 181556, Note_off_c, 1, 57, 0
1, 181556, Note_off_c, 1, 52, 0
1, 181560, Note_on_c, 1, 68, 127
1, 181560, Note_on_c, 1, 40, 127
1, 181731, Note_off_c, 1, 68, 0
1, 181735, Note_on_c, 1, 69, 127
1, 181906, Note_off_c, 1, 40, 0
1, 181906, Note_off_c, 1, 69, 0
1, 181910, Note_on_c, 1, 45, 127
1, 181910, Note_on_c, 1, 69, 127
1, 182259, Note_on_c, 1, 53, 127
1, 182599, Note_off_c, 1, 45, 0
1, 182604, Note_off_c, 1, 53, 0
1, 182953, Note_off_c, 1, 69, 0
1, 182957, Note_on_c, 1, 77, 127
1, 182957, Note_on_c, 1, 72, 127
1, 183302, Note_off_c, 1, 77, 0
1, 183302, Note_off_c, 1, 72, 0
1, 183306, Note_on_c, 1, 77, 127
1, 183306, Note_on_c, 1, 44, 127
1, 183306, Note_on_c, 1, 71, 127
1, 183651, Note_off_c, 1, 77, 0
1, 183651, Note_off_c, 1, 44, 0
1, 183655, Note_on_c, 1, 76, 127
1, 183655, Note_on_c, 1, 52, 127
1, 184000, Note_off_c, 1, 76, 0
1, 184000, Note_off_c, 1, 52, 0
1, 184349, Note_off_c, 1, 71, 0
1, 184353, Note_on_c, 1, 74, 127
1, 184698, Note_off_c, 1, 74, 0
1, 184702, Note_on_c, 1, 74, 127
1, 184702, Note_on_c, 1, 69, 127
1, 184702, Note_on_c, 1, 45, 127
1, 185047, Note_off_c, 1, 74, 0
1, 185047, Note_off_c, 1, 69, 0
1, 185047, Note_off_c, 1, 45, 0
1, 185051, Note_on_c, 1, 53, 127
1, 185051, Note_on_c, 1, 72, 127
1, 185396, Note_off_c, 1, 53, 0
1, 185558, Note_off_c, 1, 72, 0
1, 185749, Note_on_c, 1, 77, 127
1, 185749, Note_on_c, 1, 45, 127
1, 186094, Note_off_c, 1, 77, 0
1, 186094, Note_off_c, 1, 45, 0
1, 186098, Note_on_c, 1, 77, 127
1, 186098, Note_on_c, 1, 44, 127
1, 186098, Note_on_c, 1, 71, 127
1, 186443, Note_off_c, 1, 77, 0
1, 186447, Note_on_c, 1, 76, 127
1, 186792, Note_off_c, 1, 76, 0
1, 186969, Note_off_c, 1, 44, 0
1, 187142, Note_off_c, 1, 71, 0
1, 187146, Note_on_c, 1, 71, 127
1, 187146, Note_on_c, 1, 74, 127
1, 187146, Note_on_c, 1, 44, 127
1, 187491, Note_off_c, 1, 71, 0
1, 187491, Note_off_c, 1, 74, 0
1, 187491, Note_off_c, 1, 44, 0
1, 187495, Note_on_c, 1, 45, 127
1, 187495, Note_on_c, 1, 74, 127
1, 187495, Note_on_c, 1, 69, 127
1, 187666, Note_off_c, 1, 45, 0
1, 187670, Note_on_c, 1, 48, 127
1, 187841, Note_off_c, 1, 74, 0
1, 187841, Note_off_c, 1, 48, 0
1, 187845, Note_on_c, 1, 53, 127
1, 187845, Note_on_c, 1, 72, 127
1, 188016, Note_off_c, 1, 53, 0
1, 188185, Note_off_c, 1, 69, 0
1, 188534, Note_off_c, 1, 72, 0
1, 188543, Note_on_c, 1, 53, 127
1, 188718, Note_on_c, 1, 74, 127
1, 188889, Note_off_c, 1, 53, 0
1, 188889, Note_off_c, 1, 74, 0
1, 188893, Note_on_c, 1, 76, 127
1, 188893, Note_on_c, 1, 44, 127
1, 189064, Note_off_c, 1, 76, 0
1, 189068, Note_on_c, 1, 80, 127
1, 189239, Note_off_c, 1, 80, 0
1, 189418, Note_on_c, 1, 71, 127
1, 189589, Note_off_c, 1, 71, 0
1, 189766, Note_off_c, 1, 44, 0
1, 189768, Note_on_c, 1, 80, 127
1, 189939, Note_off_c, 1, 80, 0
1, 189943, Note_on_c, 1, 76, 127
1, 189943, Note_on_c, 1, 44, 127
1, 190114, Note_off_c, 1, 76, 0
1, 190118, Note_on_c, 1, 71, 127
1, 190289, Note_off_c, 1, 44, 0
1, 190289, Note_off_c, 1, 71, 0
1, 190293, Note_on_c, 1, 45, 127
1, 190293, Note_on_c, 1, 72, 127
1, 190464, Note_off_c, 1, 45, 0
1, 190468, Note_on_c, 1, 48, 127
1, 190639, Note_off_c, 1, 72, 0
1, 190639, Note_off_c, 1, 48, 0
1, 190643, Note_on_c, 1, 53, 127
1, 190643, Note_on_c, 1, 69, 127
1, 190814, Note_off_c, 1, 53, 0
1, 190818, Note_on_c, 1, 48, 127
1, 190987, Note_off_c, 1, 69, 0
1, 190989, Note_off_c, 1, 48, 0
1, 190993, Note_on_c, 1, 45, 127
1, 191164, Note_off_c, 1, 45, 0
1, 191168, Note_on_c, 1, 48, 127
1, 191339, Note_off_c, 1, 48, 0
1, 191343, Note_on_c, 1, 53, 127
1, 191343, Note_on_c, 1, 72, 127
1, 191343, Note_on_c, 1, 77, 127
1, 191514, Note_off_c, 1, 53, 0
1, 191518, Note_on_c, 1, 45, 127
1, 191689, Note_off_c, 1, 72, 0
1, 191689, Note_off_c, 1, 77, 0
1, 191689, Note_off_c, 1, 45, 0
1, 191693, Note_on_c, 1, 43, 127
1, 191693, Note_on_c, 1, 77, 127
1, 191693, Note_on_c, 1, 71, 127
1, 191864, Note_off_c, 1, 43, 0
1, 191868, Note_on_c, 1, 47, 127
1, 192039, Note_off_c, 1, 77, 0
1, 192039, Note_off_c, 1, 47, 0
1, 192043, Note_on_c, 1, 52, 127
1, 192043, Note_on_c, 1, 76, 127
1, 192214, Note_off_c, 1, 52, 0
1, 192383, Note_off_c, 1, 71, 0
1, 192392, Note_on_c, 1, 41, 127
1, 192392, Note_on_c, 1, 69, 127
1, 192563, Note_off_c, 1, 41, 0
1, 192567, Note_on_c, 1, 45, 127
1, 192732, Note_off_c, 1, 76, 0
1, 192737, Note_off_c, 1, 45, 0
1, 192741, Note_on_c, 1, 50, 127
1, 192741, Note_on_c, 1, 74, 127
1, 192912, Note_off_c, 1, 50, 0
1, 193081, Note_off_c, 1, 69, 0
1, 193090, Note_on_c, 1, 40, 127
1, 193090, Note_on_c, 1, 68, 127
1, 193261, Note_off_c, 1, 40, 0
1, 193430, Note_off_c, 1, 74, 0
1, 193435, Note_off_c, 1, 68, 0
1, 193439, Note_on_c, 1, 72, 127
1, 193439, Note_on_c, 1, 52, 127
1, 193439, Note_on_c, 1, 64, 127
1, 193610, Note_off_c, 1, 72, 0
1, 193610, Note_off_c, 1, 52, 0
1, 193614, Note_on_c, 1, 71, 127
1, 193614, Note_on_c, 1, 44, 127
1, 193783, Note_off_c, 1, 64, 0
1, 193785, Note_off_c, 1, 71, 0
1, 193785, Note_off_c, 1, 44, 0
1, 193789, Note_on_c, 1, 45, 127
1, 193789, Note_on_c, 1, 72, 127
1, 193960, Note_off_c, 1, 45, 0
1, 193964, Note_on_c, 1, 52, 127
1, 194135, Note_off_c, 1, 72, 0
1, 194135, Note_off_c, 1, 52, 0
1, 194139, Note_on_c, 1, 81, 127
1, 194139, Note_on_c, 1, 57, 127
1, 194310, Note_off_c, 1, 81, 0
1, 194310, Note_off_c, 1, 57, 0
1, 194314, Note_on_c, 1, 79, 127
1, 194314, Note_on_c, 1, 48, 127
1, 194485, Note_off_c, 1, 79, 0
1, 194485, Note_off_c, 1, 48, 0
1, 194489, Note_on_c, 1, 77, 127
1, 194489, Note_on_c, 1, 50, 127
1, 194660, Note_off_c, 1, 77, 0
1, 194660, Note_off_c, 1, 50, 0
1, 194664, Note_on_c, 1, 76, 127
1, 194664, Note_on_c, 1, 52, 127
1, 194835, Note_off_c, 1, 76, 0
1, 194835, Note_off_c, 1, 52, 0
1, 194839, Note_on_c, 1, 74, 127
1, 194839, Note_on_c, 1, 53, 127
1, 195010, Note_off_c, 1, 74, 0
1, 195010, Note_off_c, 1, 53, 0
1, 195014, Note_on_c, 1, 72, 127
1, 195014, Note_on_c, 1, 50, 127
1, 195185, Note_off_c, 1, 72, 0
1, 195185, Note_off_c, 1, 50, 0
1, 195189, Note_on_c, 1, 72, 127
1, 195189, Note_on_c, 1, 52, 127
1, 195329, Note_on_c, 1, 71, 127
1, 195331, Note_off_c, 1, 72, 0
1, 195400, Note_off_c, 1, 71, 0
1, 195538, Note_on_c, 1, 40, 127
1, 195713, Note_on_c, 1, 69, 127
1, 195878, Note_off_c, 1, 52, 0
1, 195883, Note_off_c, 1, 40, 0
1, 195883, Note_off_c, 1, 69, 0
1, 195887, Note_on_c, 1, 45, 127
1, 195887, Note_on_c, 1, 69, 127
1, 196058, Note_off_c, 1, 45, 0
1, 196062, Note_on_c, 1, 52, 127
1, 196233, Note_off_c, 1, 52, 0
1, 196237, Note_on_c, 1, 54, 127
1, 196408, Note_off_c, 1, 54, 0
1, 196412, Note_on_c, 1, 56, 127
1, 196583, Note_off_c, 1, 56, 0
1, 196587, Note_on_c, 1, 57, 127
1, 196758, Note_off_c, 1, 57, 0
1, 196760, Note_off_c, 1, 69, 0
1, 196762, Note_on_c, 1, 52, 127
1, 196933, Note_off_c, 1, 52, 0
1, 196937, Note_on_c, 1, 48, 127
1, 196937, Note_on_c, 1, 81, 127
1, 197108, Note_off_c, 1, 48, 0
1, 197112, Note_on_c, 1, 45, 127
1, 197283, Note_off_c, 1, 81, 0
1, 197283, Note_off_c, 1, 45, 0
1, 197287, Note_on_c, 1, 52, 127
1, 197287, Note_on_c, 1, 80, 127
1, 197458, Note_off_c, 1, 52, 0
1, 197462, Note_on_c, 1, 53, 127
1, 197633, Note_off_c, 1, 80, 0
1, 197633, Note_off_c, 1, 53, 0
1, 197637, Note_on_c, 1, 52, 127
1, 197637, Note_on_c, 1, 77, 127
1, 197808, Note_off_c, 1, 52, 0
1, 197812, Note_on_c, 1, 50, 127
1, 197983, Note_off_c, 1, 77, 0
1, 197983, Note_off_c, 1, 50, 0
1, 197987, Note_on_c, 1, 48, 127
1, 197987, Note_on_c, 1, 76, 127
1, 198158, Note_off_c, 1, 48, 0
1, 198162, Note_on_c, 1, 50, 127
1, 198333, Note_off_c, 1, 76, 0
1, 198333, Note_off_c, 1, 50, 0
1, 198337, Note_on_c, 1, 48, 127
1, 198337, Note_on_c, 1, 74, 127
1, 198508, Note_off_c, 1, 48, 0
1, 198512, Note_on_c, 1, 47, 127
1, 198683, Note_off_c, 1, 74, 0
1, 198683, Note_off_c, 1, 47, 0
1, 198687, Note_on_c, 1, 45, 127
1, 198687, Note_on_c, 1, 72, 127
1, 198858, Note_off_c, 1, 45, 0
1, 198862, Note_on_c, 1, 52, 127
1, 199033, Note_off_c, 1, 72, 0
1, 199033, Note_off_c, 1, 52, 0
1, 199037, Note_on_c, 1, 54, 127
1, 199037, Note_on_c, 1, 71, 127
1, 199208, Note_off_c, 1, 54, 0
1, 199212, Note_on_c, 1, 56, 127
1, 199383, Note_off_c, 1, 71, 0
1, 199383, Note_off_c, 1, 56, 0
1, 199387, Note_on_c, 1, 69, 127
1, 199387, Note_on_c, 1, 57, 127
1, 199558, Note_off_c, 1, 69, 0
1, 199562, Note_on_c, 1, 71, 127
1, 199733, Note_off_c, 1, 71, 0
1, 199737, Note_on_c, 1, 72, 127
1, 199737, Note_on_c, 1, 45, 127
1, 199908, Note_off_c, 1, 72, 0
1, 199912, Note_on_c, 1, 74, 127
1, 200077, Note_off_c, 1, 57, 0
1, 200082, Note_off_c, 1, 45, 0
1, 200082, Note_off_c, 1, 74, 0
1, 200086, Note_on_c, 1, 76, 127
1, 200086, Note_on_c, 1, 55, 127
1, 200257, Note_off_c, 1, 76, 0
1, 200261, Note_on_c, 1, 77, 127
1, 200432, Note_off_c, 1, 55, 0
1, 200432, Note_off_c, 1, 77, 0
1, 200436, Note_on_c, 1, 76, 127
1, 200436, Note_on_c, 1, 53, 127
1, 200607, Note_off_c, 1, 76, 0
1, 200611, Note_on_c, 1, 74, 127
1, 200782, Note_off_c, 1, 53, 0
1, 200782, Note_off_c, 1, 74, 0
1, 200786, Note_on_c, 1, 72, 127
1, 200786, Note_on_c, 1, 52, 127
1, 200957, Note_off_c, 1, 72, 0
1, 200961, Note_on_c, 1, 74, 127
1, 201132, Note_off_c, 1, 52, 0
1, 201132, Note_off_c, 1, 74, 0
1, 201136, Note_on_c, 1, 72, 127
1, 201136, Note_on_c, 1, 50, 127
1, 201307, Note_off_c, 1, 72, 0
1, 201311, Note_on_c, 1, 71, 127
1, 201482, Note_off_c, 1, 50, 0
1, 201482, Note_off_c, 1, 71, 0
1, 201486, Note_on_c, 1, 69, 127
1, 201486, Note_on_c, 1, 48, 127
1, 201657, Note_off_c, 1, 69, 0
1, 201661, Note_on_c, 1, 76, 127
1, 201832, Note_off_c, 1, 48, 0
1, 201832, Note_off_c, 1, 76, 0
1, 201836, Note_on_c, 1, 78, 127
1, 201836, Note_on_c, 1, 47, 127
1, 202007, Note_off_c, 1, 78, 0
1, 202011, Note_on_c, 1, 80, 127
1, 202182, Note_off_c, 1, 47, 0
1, 202182, Note_off_c, 1, 80, 0
1, 202186, Note_on_c, 1, 45, 127
1, 202186, Note_on_c, 1, 81, 127
1, 202357, Note_off_c, 1, 45, 0
1, 202361, Note_on_c, 1, 57, 127
1, 202361, Note_on_c, 1, 76, 127
1, 202532, Note_off_c, 1, 57, 0
1, 202536, Note_on_c, 1, 52, 127
1, 202536, Note_on_c, 1, 72, 127
1, 202707, Note_off_c, 1, 52, 0
1, 202711, Note_on_c, 1, 69, 127
1, 202711, Note_on_c, 1, 48, 127
1, 202876, Note_off_c, 1, 81, 0
1, 202881, Note_off_c, 1, 69, 0
1, 202881, Note_off_c, 1, 48, 0
1, 203056, Note_off_c, 1, 76, 0
1, 203237, Note_off_c, 1, 72, 0
1, 203608, Note_on_c, 1, 45, 127
1, 203608, Note_on_c, 1, 78, 127
1, 203796, Note_off_c, 1, 45, 0
1, 203800, Note_on_c, 1, 57, 127
1, 203800, Note_on_c, 1, 75, 127
1, 203992, Note_on_c, 1, 54, 127
1, 203992, Note_on_c, 1, 69, 127
1, 204180, Note_off_c, 1, 54, 0
1, 204184, Note_on_c, 1, 51, 127
1, 204184, Note_on_c, 1, 66, 127
1, 204358, Note_off_c, 1, 57, 0
1, 204458, Note_off_c, 1, 78, 0
1, 204458, Note_off_c, 1, 75, 0
1, 204464, Note_off_c, 1, 51, 0
1, 204470, Note_off_c, 1, 69, 0
1, 204472, Note_off_c, 1, 66, 0
1, 204496, Note_on_c, 1, 52, 127
1, 204496, Note_on_c, 1, 56, 127
1, 204496, Note_on_c, 1, 59, 127
1, 204496, Note_on_c, 1, 68, 127
1, 204496, Note_on_c, 1, 64, 127
1, 204496, Note_on_c, 1, 76, 127
1, 204496, Note_on_c, 1, 71, 127
1, 205896, Note_off_c, 1, 52, 0
1, 205896, Note_off_c, 1, 56, 0
1, 205896, Note_off_c, 1, 59, 0
1, 205896, Note_off_c, 1, 68, 0
1, 205896, Note_off_c, 1, 64, 0
1, 205896, Note_off_c, 1, 76, 0
1, 205896, Note_off_c, 1, 71, 0
1, 206159, Note_on_c, 1, 71, 127
1, 206279, Note_off_c, 1, 71, 0
1, 206295, Note_on_c, 1, 72, 127
1, 206362, Note_off_c, 1, 72, 0
1, 206365, Note_on_c, 1, 74, 127
1, 206432, Note_off_c, 1, 74, 0
1, 206435, Note_on_c, 1, 76, 127
1, 206502, Note_off_c, 1, 76, 0
1, 206505, Note_on_c, 1, 74, 127
1, 206572, Note_off_c, 1, 74, 0
1, 206575, Note_on_c, 1, 72, 127
1, 206642, Note_off_c, 1, 72, 0
1, 206645, Note_on_c, 1, 71, 127
1, 206712, Note_off_c, 1, 71, 0
1, 206715, Note_on_c, 1, 69, 127
1, 206795, Note_off_c, 1, 69, 0
1, 206801, Note_on_c, 1, 71, 127
1, 206868, Note_off_c, 1, 71, 0
1, 206871, Note_on_c, 1, 72, 127
1, 206938, Note_off_c, 1, 72, 0
1, 206941, Note_on_c, 1, 74, 127
1, 207008, Note_off_c, 1, 74, 0
1, 207011, Note_on_c, 1, 72, 127
1, 207078, Note_off_c, 1, 72, 0
1, 207081, Note_on_c, 1, 71, 127
1, 207148, Note_off_c, 1, 71, 0
1, 207151, Note_on_c, 1, 69, 127
1, 207218, Note_off_c, 1, 69, 0
1, 207221, Note_on_c, 1, 67, 127
1, 207301, Note_off_c, 1, 67, 0
1, 207307, Note_on_c, 1, 69, 127
1, 207374, Note_off_c, 1, 69, 0
1, 207377, Note_on_c, 1, 71, 127
1, 207444, Note_off_c, 1, 71, 0
1, 207447, Note_on_c, 1, 72, 127
1, 207514, Note_off_c, 1, 72, 0
1, 207517, Note_on_c, 1, 71, 127
1, 207584, Note_off_c, 1, 71, 0
1, 207587, Note_on_c, 1, 69, 127
1, 207654, Note_off_c, 1, 69, 0
1, 207657, Note_on_c, 1, 67, 127
1, 207724, Note_off_c, 1, 67, 0
1, 207727, Note_on_c, 1, 65, 127
1, 207807, Note_off_c, 1, 65, 0
1, 207813, Note_on_c, 1, 67, 127
1, 207880, Note_off_c, 1, 67, 0
1, 207883, Note_on_c, 1, 69, 127
1, 207950, Note_off_c, 1, 69, 0
1, 207953, Note_on_c, 1, 71, 127
1, 208020, Note_off_c, 1, 71, 0
1, 208023, Note_on_c, 1, 69, 127
1, 208090, Note_off_c, 1, 69, 0
1, 208093, Note_on_c, 1, 67, 127
1, 208160, Note_off_c, 1, 67, 0
1, 208163, Note_on_c, 1, 65, 127
1, 208230, Note_off_c, 1, 65, 0
1, 208233, Note_on_c, 1, 64, 127
1, 208313, Note_off_c, 1, 64, 0
1, 208319, Note_on_c, 1, 65, 127
1, 208386, Note_off_c, 1, 65, 0
1, 208389, Note_on_c, 1, 67, 127
1, 208456, Note_off_c, 1, 67, 0
1, 208459, Note_on_c, 1, 69, 127
1, 208526, Note_off_c, 1, 69, 0
1, 208529, Note_on_c, 1, 67, 127
1, 208596, Note_off_c, 1, 67, 0
1, 208599, Note_on_c, 1, 65, 127
1, 208666, Note_off_c, 1, 65, 0
1, 208669, Note_on_c, 1, 64, 127
1, 208736, Note_off_c, 1, 64, 0
1, 208739, Note_on_c, 1, 62, 127
1, 208819, Note_off_c, 1, 62, 0
1, 208825, Note_on_c, 1, 64, 127
1, 208892, Note_off_c, 1, 64, 0
1, 208895, Note_on_c, 1, 65, 127
1, 208962, Note_off_c, 1, 65, 0
1, 208965, Note_on_c, 1, 67, 127
1, 209032, Note_off_c, 1, 67, 0
1, 209035, Note_on_c, 1, 65, 127
1, 209102, Note_off_c, 1, 65, 0
1, 209105, Note_on_c, 1, 64, 127
1, 209172, Note_off_c, 1, 64, 0
1, 209175, Note_on_c, 1, 62, 127
1, 209242, Note_off_c, 1, 62, 0
1, 209245, Note_on_c, 1, 60, 127
1, 209312, Note_off_c, 1, 60, 0
1, 209315, Note_on_c, 1, 62, 127
1, 209382, Note_off_c, 1, 62, 0
1, 209385, Note_on_c, 1, 64, 127
1, 209452, Note_off_c, 1, 64, 0
1, 209455, Note_on_c, 1, 65, 127
1, 209522, Note_off_c, 1, 65, 0
1, 209525, Note_on_c, 1, 64, 127
1, 209592, Note_off_c, 1, 64, 0
1, 209595, Note_on_c, 1, 62, 127
1, 209662, Note_off_c, 1, 62, 0
1, 209665, Note_on_c, 1, 60, 127
1, 209732, Note_off_c, 1, 60, 0
1, 209735, Note_on_c, 1, 59, 127
1, 209802, Note_off_c, 1, 59, 0
1, 209805, Note_on_c, 1, 57, 127
1, 210210, Note_on_c, 1, 55, 127
1, 210214, Note_off_c, 1, 57, 0
1, 210278, Note_on_c, 1, 53, 127
1, 210290, Note_off_c, 1, 55, 0
1, 210330, Note_on_c, 1, 52, 127
1, 210358, Note_off_c, 1, 53, 0
1, 210382, Note_on_c, 1, 50, 127
1, 210410, Note_off_c, 1, 52, 0
1, 210434, Note_on_c, 1, 48, 127
1, 210462, Note_off_c, 1, 50, 0
1, 210486, Note_on_c, 1, 47, 127
1, 210514, Note_off_c, 1, 48, 0
1, 210538, Note_on_c, 1, 45, 127
1, 210556, Note_off_c, 1, 47, 0
1, 211018, Note_on_c, 1, 69, 127
1, 211018, Note_on_c, 1, 60, 127
1, 211018, Note_on_c, 1, 64, 127
1, 211338, Note_off_c, 1, 45, 0
1, 211590, Note_off_c, 1, 69, 0
1, 211590, Note_off_c, 1, 60, 0
1, 211594, Note_on_c, 1, 71, 127
1, 211594, Note_on_c, 1, 62, 127
1, 211782, Note_off_c, 1, 71, 0
1, 211782, Note_off_c, 1, 62, 0
1, 211786, Note_on_c, 1, 59, 127
1, 211786, Note_on_c, 1, 68, 127
1, 212170, Note_on_c, 1, 40, 127
1, 212344, Note_off_c, 1, 59, 0
1, 212358, Note_off_c, 1, 68, 0
1, 212548, Note_off_c, 1, 40, 0
1, 212550, Note_off_c, 1, 64, 0
1, 213015, Note_on_c, 1, 61, 127
1, 213445, Note_off_c, 1, 61, 0
1, 213476, Note_on_c, 1, 65, 127
1, 214162, Note_off_c, 1, 65, 0
1, 214162, End_track
0, 0, End_of_file