0, 0, Header, 1, 1, 480
1, 0, Start_track
1, 0, Title_t, "Test"
1, 0, Tempo, 500000
1, 0, Instrument_name_t, "Church Organ"
1, 0, Note_on_c, 1, 58, 127
1, 188, Note_off_c, 1, 58, 0
1, 192, Note_on_c, 1, 70, 127
1, 284, Note_off_c, 1, 70, 0
1, 288, Note_on_c, 1, 72, 127
1, 380, Note_off_c, 1, 72, 0
1, 384, Note_on_c, 1, 74, 127
1, 572, Note_off_c, 1, 74, 0
1, 576, Note_on_c, 1, 77, 127
1, 576, Note_on_c, 1, 74, 127
1, 576, Note_on_c, 1, 70, 127
1, 576, Note_on_c, 1, 46, 127
1, 668, Note_off_c, 1, 46, 0
1, 672, Note_on_c, 1, 48, 127
1, 764, Note_off_c, 1, 77, 0
1, 764, Note_off_c, 1, 74, 0
1, 764, Note_off_c, 1, 70, 0
1, 764, Note_off_c, 1, 48, 0
1, 768, Note_on_c, 1, 74, 127
1, 768, Note_on_c, 1, 70, 127
1, 768, Note_on_c, 1, 65, 127
1, 768, Note_on_c, 1, 50, 127
1, 956, Note_off_c, 1, 74, 0
1, 956, Note_off_c, 1, 70, 0
1, 956, Note_off_c, 1, 65, 0
1, 956, Note_off_c, 1, 50, 0
1, 960, Note_on_c, 1, 70, 127
1, 960, Note_on_c, 1, 65, 127
1, 960, Note_on_c, 1, 62, 127
1, 960, Note_on_c, 1, 53, 127
1, 1148, Note_off_c, 1, 70, 0
1, 1148, Note_off_c, 1, 65, 0
1, 1148, Note_off_c, 1, 62, 0
1, 1148, Note_off_c, 1, 53, 0
1, 1152, Note_on_c, 1, 58, 127
1, 1344, Note_on_c, 1, 70, 127
1, 1436, Note_off_c, 1, 70, 0
1, 1440, Note_on_c, 1, 72, 127
1, 1532, Note_off_c, 1, 58, 0
1, 1532, Note_off_c, 1, 72, 0
1, 1536, Note_on_c, 1, 74, 127
1, 1536, Note_on_c, 1, 46, 127
1, 1724, Note_off_c, 1, 74, 0
1, 1728, Note_on_c, 1, 77, 127
1, 1916, Note_off_c, 1, 46, 0
1, 1916, Note_off_c, 1, 77, 0
1, 1920, Note_on_c, 1, 74, 127
1, 2108, Note_off_c, 1, 74, 0
1, 2112, Note_on_c, 1, 70, 127
1, 2300, Note_off_c, 1, 70, 0
1, 2304, Note_on_c, 1, 60, 127
1, 2492, Note_off_c, 1, 60, 0
1, 2496, Note_on_c, 1, 72, 127
1, 2588, Note_off_c, 1, 72, 0
1, 2592, Note_on_c, 1, 74, 127
1, 2684, Note_off_c, 1, 74, 0
1, 2688, Note_on_c, 1, 75, 127
1, 2876, Note_off_c, 1, 75, 0
1, 2880, Note_on_c, 1, 79, 127
1, 2880, Note_on_c, 1, 75, 127
1, 2880, Note_on_c, 1, 72, 127
1, 2880, Note_on_c, 1, 48, 127
1, 2972, Note_off_c, 1, 48, 0
1, 2976, Note_on_c, 1, 50, 127
1, 3068, Note_off_c, 1, 79, 0
1, 3068, Note_off_c, 1, 75, 0
1, 3068, Note_off_c, 1, 72, 0
1, 3068, Note_off_c, 1, 50, 0
1, 3072, Note_on_c, 1, 72, 127
1, 3072, Note_on_c, 1, 75, 127
1, 3072, Note_on_c, 1, 67, 127
1, 3072, Note_on_c, 1, 51, 127
1, 3260, Note_off_c, 1, 72, 0
1, 3260, Note_off_c, 1, 75, 0
1, 3260, Note_off_c, 1, 67, 0
1, 3260, Note_off_c, 1, 51, 0
1, 3264, Note_on_c, 1, 72, 127
1, 3264, Note_on_c, 1, 67, 127
1, 3264, Note_on_c, 1, 63, 127
1, 3264, Note_on_c, 1, 55, 127
1, 3452, Note_off_c, 1, 72, 0
1, 3452, Note_off_c, 1, 67, 0
1, 3452, Note_off_c, 1, 63, 0
1, 3452, Note_off_c, 1, 55, 0
1, 3456, Note_on_c, 1, 60, 127
1, 3648, Note_on_c, 1, 72, 127
1, 3740, Note_off_c, 1, 72, 0
1, 3744, Note_on_c, 1, 74, 127
1, 3836, Note_off_c, 1, 60, 0
1, 3836, Note_off_c, 1, 74, 0
1, 3840, Note_on_c, 1, 75, 127
1, 3840, Note_on_c, 1, 48, 127
1, 4028, Note_off_c, 1, 75, 0
1, 4032, Note_on_c, 1, 79, 127
1, 4220, Note_off_c, 1, 48, 0
1, 4220, Note_off_c, 1, 79, 0
1, 4224, Note_on_c, 1, 75, 127
1, 4412, Note_off_c, 1, 75, 0
1, 4416, Note_on_c, 1, 72, 127
1, 4604, Note_off_c, 1, 72, 0
1, 4608, Note_on_c, 1, 62, 127
1, 4796, Note_off_c, 1, 62, 0
1, 4800, Note_on_c, 1, 74, 127
1, 4892, Note_off_c, 1, 74, 0
1, 4896, Note_on_c, 1, 75, 127
1, 4988, Note_off_c, 1, 75, 0
1, 4992, Note_on_c, 1, 77, 127
1, 5180, Note_off_c, 1, 77, 0
1, 5184, Note_on_c, 1, 82, 127
1, 5184, Note_on_c, 1, 77, 127
1, 5184, Note_on_c, 1, 74, 127
1, 5184, Note_on_c, 1, 50, 127
1, 5276, Note_off_c, 1, 50, 0
1, 5280, Note_on_c, 1, 51, 127
1, 5372, Note_off_c, 1, 82, 0
1, 5372, Note_off_c, 1, 77, 0
1, 5372, Note_off_c, 1, 74, 0
1, 5372, Note_off_c, 1, 51, 0
1, 5376, Note_on_c, 1, 77, 127
1, 5376, Note_on_c, 1, 74, 127
1, 5376, Note_on_c, 1, 70, 127
1, 5376, Note_on_c, 1, 53, 127
1, 5564, Note_off_c, 1, 77, 0
1, 5564, Note_off_c, 1, 74, 0
1, 5564, Note_off_c, 1, 70, 0
1, 5564, Note_off_c, 1, 53, 0
1, 5568, Note_on_c, 1, 74, 127
1, 5568, Note_on_c, 1, 70, 127
1, 5568, Note_on_c, 1, 65, 127
1, 5568, Note_on_c, 1, 58, 127
1, 5756, Note_off_c, 1, 74, 0
1, 5756, Note_off_c, 1, 70, 0
1, 5756, Note_off_c, 1, 65, 0
1, 5756, Note_off_c, 1, 58, 0
1, 5760, Note_on_c, 1, 62, 127
1, 5952, Note_on_c, 1, 74, 127
1, 6044, Note_off_c, 1, 74, 0
1, 6048, Note_on_c, 1, 75, 127
1, 6140, Note_off_c, 1, 62, 0
1, 6140, Note_off_c, 1, 75, 0
1, 6144, Note_on_c, 1, 77, 127
1, 6144, Note_on_c, 1, 50, 127
1, 6332, Note_off_c, 1, 77, 0
1, 6336, Note_on_c, 1, 82, 127
1, 6524, Note_off_c, 1, 50, 0
1, 6524, Note_off_c, 1, 82, 0
1, 6528, Note_on_c, 1, 77, 127
1, 6716, Note_off_c, 1, 77, 0
1, 6720, Note_on_c, 1, 74, 127
1, 6720, Note_on_c, 1, 58, 127
1, 6908, Note_off_c, 1, 74, 0
1, 6908, Note_off_c, 1, 58, 0
1, 6912, Note_on_c, 1, 79, 127
1, 6912, Note_on_c, 1, 63, 127
1, 7004, Note_off_c, 1, 79, 0
1, 7008, Note_on_c, 1, 77, 127
1, 7100, Note_off_c, 1, 63, 0
1, 7100, Note_off_c, 1, 77, 0
1, 7104, Note_on_c, 1, 75, 127
1, 7104, Note_on_c, 1, 67, 127
1, 7196, Note_off_c, 1, 75, 0
1, 7200, Note_on_c, 1, 74, 127
1, 7292, Note_off_c, 1, 67, 0
1, 7292, Note_off_c, 1, 74, 0
1, 7296, Note_on_c, 1, 75, 127
1, 7296, Note_on_c, 1, 60, 127
1, 7388, Note_off_c, 1, 75, 0
1, 7392, Note_on_c, 1, 74, 127
1, 7484, Note_off_c, 1, 60, 0
1, 7484, Note_off_c, 1, 74, 0
1, 7488, Note_on_c, 1, 72, 127
1, 7488, Note_on_c, 1, 63, 127
1, 7580, Note_off_c, 1, 72, 0
1, 7584, Note_on_c, 1, 70, 127
1, 7676, Note_off_c, 1, 63, 0
1, 7676, Note_off_c, 1, 70, 0
1, 7680, Note_on_c, 1, 72, 127
1, 7680, Note_on_c, 1, 57, 127
1, 7772, Note_off_c, 1, 72, 0
1, 7776, Note_on_c, 1, 70, 127
1, 7868, Note_off_c, 1, 57, 0
1, 7868, Note_off_c, 1, 70, 0
1, 7872, Note_on_c, 1, 69, 127
1, 7872, Note_on_c, 1, 60, 127
1, 7964, Note_off_c, 1, 69, 0
1, 7968, Note_on_c, 1, 67, 127
1, 8060, Note_off_c, 1, 60, 0
1, 8060, Note_off_c, 1, 67, 0
1, 8064, Note_on_c, 1, 65, 127
1, 8064, Note_on_c, 1, 51, 127
1, 8156, Note_off_c, 1, 51, 0
1, 8160, Note_on_c, 1, 50, 127
1, 8252, Note_off_c, 1, 65, 0
1, 8252, Note_off_c, 1, 50, 0
1, 8256, Note_on_c, 1, 70, 127
1, 8256, Note_on_c, 1, 65, 127
1, 8256, Note_on_c, 1, 62, 127
1, 8256, Note_on_c, 1, 48, 127
1, 8348, Note_off_c, 1, 48, 0
1, 8352, Note_on_c, 1, 46, 127
1, 8444, Note_off_c, 1, 70, 0
1, 8444, Note_off_c, 1, 65, 0
1, 8444, Note_off_c, 1, 62, 0
1, 8444, Note_off_c, 1, 46, 0
1, 8448, Note_on_c, 1, 70, 127
1, 8448, Note_on_c, 1, 65, 127
1, 8448, Note_on_c, 1, 60, 127
1, 8448, Note_on_c, 1, 53, 127
1, 8496, Note_on_c, 1, 69, 127
1, 8540, Note_off_c, 1, 70, 0
1, 8588, Note_off_c, 1, 69, 0
1, 8828, Note_off_c, 1, 53, 0
1, 8832, Note_on_c, 1, 41, 127
1, 9212, Note_off_c, 1, 65, 0
1, 9212, Note_off_c, 1, 60, 0
1, 9212, Note_off_c, 1, 41, 0
1, 9216, Note_on_c, 1, 70, 127
1, 9216, Note_on_c, 1, 65, 127
1, 9216, Note_on_c, 1, 62, 127
1, 9404, Note_off_c, 1, 70, 0
1, 9404, Note_off_c, 1, 65, 0
1, 9404, Note_off_c, 1, 62, 0
1, 9408, Note_on_c, 1, 65, 127
1, 9408, Note_on_c, 1, 46, 127
1, 9500, Note_off_c, 1, 46, 0
1, 9504, Note_on_c, 1, 48, 127
1, 9596, Note_off_c, 1, 65, 0
1, 9596, Note_off_c, 1, 48, 0
1, 9600, Note_on_c, 1, 70, 127
1, 9600, Note_on_c, 1, 50, 127
1, 9788, Note_off_c, 1, 70, 0
1, 9788, Note_off_c, 1, 50, 0
1, 9792, Note_on_c, 1, 74, 127
1, 9792, Note_on_c, 1, 70, 127
1, 9792, Note_on_c, 1, 65, 127
1, 9792, Note_on_c, 1, 53, 127
1, 9980, Note_off_c, 1, 74, 0
1, 9980, Note_off_c, 1, 70, 0
1, 9980, Note_off_c, 1, 65, 0
1, 9980, Note_off_c, 1, 53, 0
1, 9984, Note_on_c, 1, 77, 127
1, 9984, Note_on_c, 1, 74, 127
1, 9984, Note_on_c, 1, 70, 127
1, 9984, Note_on_c, 1, 50, 127
1, 10172, Note_off_c, 1, 77, 0
1, 10172, Note_off_c, 1, 74, 0
1, 10172, Note_off_c, 1, 70, 0
1, 10172, Note_off_c, 1, 50, 0
1, 10176, Note_on_c, 1, 82, 127
1, 10176, Note_on_c, 1, 77, 127
1, 10176, Note_on_c, 1, 74, 127
1, 10176, Note_on_c, 1, 46, 127
1, 10364, Note_off_c, 1, 82, 0
1, 10364, Note_off_c, 1, 77, 0
1, 10364, Note_off_c, 1, 74, 0
1, 10364, Note_off_c, 1, 46, 0
1, 10368, Note_on_c, 1, 81, 127
1, 10368, Note_on_c, 1, 41, 127
1, 10460, Note_off_c, 1, 81, 0
1, 10464, Note_on_c, 1, 79, 127
1, 10556, Note_off_c, 1, 79, 0
1, 10560, Note_on_c, 1, 77, 127
1, 10652, Note_off_c, 1, 77, 0
1, 10656, Note_on_c, 1, 75, 127
1, 10748, Note_off_c, 1, 41, 0
1, 10748, Note_off_c, 1, 75, 0
1, 10752, Note_on_c, 1, 77, 127
1, 10844, Note_off_c, 1, 77, 0
1, 10848, Note_on_c, 1, 75, 127
1, 10940, Note_off_c, 1, 75, 0
1, 10944, Note_on_c, 1, 74, 127
1, 10944, Note_on_c, 1, 41, 127
1, 11036, Note_off_c, 1, 74, 0
1, 11040, Note_on_c, 1, 72, 127
1, 11132, Note_off_c, 1, 41, 0
1, 11132, Note_off_c, 1, 72, 0
1, 11136, Note_on_c, 1, 74, 127
1, 11136, Note_on_c, 1, 46, 127
1, 11228, Note_off_c, 1, 74, 0
1, 11232, Note_on_c, 1, 72, 127
1, 11324, Note_off_c, 1, 46, 0
1, 11324, Note_off_c, 1, 72, 0
1, 11328, Note_on_c, 1, 70, 127
1, 11328, Note_on_c, 1, 50, 127
1, 11420, Note_off_c, 1, 70, 0
1, 11424, Note_on_c, 1, 69, 127
1, 11516, Note_off_c, 1, 50, 0
1, 11516, Note_off_c, 1, 69, 0
1, 11520, Note_on_c, 1, 67, 127
1, 11520, Note_on_c, 1, 39, 127
1, 11612, Note_off_c, 1, 67, 0
1, 11616, Note_on_c, 1, 70, 127
1, 11708, Note_off_c, 1, 39, 0
1, 11708, Note_off_c, 1, 70, 0
1, 11712, Note_on_c, 1, 79, 127
1, 11712, Note_on_c, 1, 51, 127
1, 11804, Note_off_c, 1, 79, 0
1, 11804, Note_off_c, 1, 51, 0
1, 11808, Note_on_c, 1, 81, 127
1, 11808, Note_on_c, 1, 53, 127
1, 11900, Note_off_c, 1, 81, 0
1, 11900, Note_off_c, 1, 53, 0
1, 11904, Note_on_c, 1, 79, 127
1, 11904, Note_on_c, 1, 55, 127
1, 11996, Note_off_c, 1, 79, 0
1, 12000, Note_on_c, 1, 77, 127
1, 12092, Note_off_c, 1, 55, 0
1, 12092, Note_off_c, 1, 77, 0
1, 12096, Note_on_c, 1, 75, 127
1, 12096, Note_on_c, 1, 58, 127
1, 12188, Note_off_c, 1, 75, 0
1, 12192, Note_on_c, 1, 74, 127
1, 12284, Note_off_c, 1, 58, 0
1, 12284, Note_off_c, 1, 74, 0
1, 12288, Note_on_c, 1, 75, 127
1, 12288, Note_on_c, 1, 55, 127
1, 12380, Note_off_c, 1, 75, 0
1, 12384, Note_on_c, 1, 74, 127
1, 12476, Note_off_c, 1, 55, 0
1, 12476, Note_off_c, 1, 74, 0
1, 12480, Note_on_c, 1, 72, 127
1, 12480, Note_on_c, 1, 51, 127
1, 12572, Note_off_c, 1, 72, 0
1, 12576, Note_on_c, 1, 70, 127
1, 12668, Note_off_c, 1, 51, 0
1, 12668, Note_off_c, 1, 70, 0
1, 12672, Note_on_c, 1, 69, 127
1, 12672, Note_on_c, 1, 41, 127
1, 12764, Note_off_c, 1, 69, 0
1, 12768, Note_on_c, 1, 72, 127
1, 12860, Note_off_c, 1, 41, 0
1, 12860, Note_off_c, 1, 72, 0
1, 12864, Note_on_c, 1, 81, 127
1, 12864, Note_on_c, 1, 53, 127
1, 12956, Note_off_c, 1, 81, 0
1, 12956, Note_off_c, 1, 53, 0
1, 12960, Note_on_c, 1, 82, 127
1, 12960, Note_on_c, 1, 55, 127
1, 13052, Note_off_c, 1, 82, 0
1, 13052, Note_off_c, 1, 55, 0
1, 13056, Note_on_c, 1, 81, 127
1, 13056, Note_on_c, 1, 57, 127
1, 13148, Note_off_c, 1, 81, 0
1, 13152, Note_on_c, 1, 79, 127
1, 13244, Note_off_c, 1, 57, 0
1, 13244, Note_off_c, 1, 79, 0
1, 13248, Note_on_c, 1, 77, 127
1, 13248, Note_on_c, 1, 60, 127
1, 13340, Note_off_c, 1, 77, 0
1, 13344, Note_on_c, 1, 75, 127
1, 13436, Note_off_c, 1, 60, 0
1, 13436, Note_off_c, 1, 75, 0
1, 13440, Note_on_c, 1, 77, 127
1, 13440, Note_on_c, 1, 57, 127
1, 13532, Note_off_c, 1, 77, 0
1, 13536, Note_on_c, 1, 75, 127
1, 13628, Note_off_c, 1, 57, 0
1, 13628, Note_off_c, 1, 75, 0
1, 13632, Note_on_c, 1, 74, 127
1, 13632, Note_on_c, 1, 53, 127
1, 13724, Note_off_c, 1, 74, 0
1, 13728, Note_on_c, 1, 72, 127
1, 13820, Note_off_c, 1, 53, 0
1, 13820, Note_off_c, 1, 72, 0
1, 13824, Note_on_c, 1, 70, 127
1, 13824, Note_on_c, 1, 43, 127
1, 13916, Note_off_c, 1, 70, 0
1, 13920, Note_on_c, 1, 74, 127
1, 14012, Note_off_c, 1, 43, 0
1, 14012, Note_off_c, 1, 74, 0
1, 14016, Note_on_c, 1, 82, 127
1, 14016, Note_on_c, 1, 55, 127
1, 14108, Note_off_c, 1, 82, 0
1, 14108, Note_off_c, 1, 55, 0
1, 14112, Note_on_c, 1, 84, 127
1, 14112, Note_on_c, 1, 57, 127
1, 14204, Note_off_c, 1, 84, 0
1, 14204, Note_off_c, 1, 57, 0
1, 14208, Note_on_c, 1, 82, 127
1, 14208, Note_on_c, 1, 58, 127
1, 14300, Note_off_c, 1, 82, 0
1, 14304, Note_on_c, 1, 81, 127
1, 14396, Note_off_c, 1, 58, 0
1, 14396, Note_off_c, 1, 81, 0
1, 14400, Note_on_c, 1, 79, 127
1, 14400, Note_on_c, 1, 62, 127
1, 14492, Note_off_c, 1, 79, 0
1, 14496, Note_on_c, 1, 77, 127
1, 14588, Note_off_c, 1, 62, 0
1, 14588, Note_off_c, 1, 77, 0
1, 14592, Note_on_c, 1, 79, 127
1, 14592, Note_on_c, 1, 58, 127
1, 14684, Note_off_c, 1, 79, 0
1, 14688, Note_on_c, 1, 77, 127
1, 14780, Note_off_c, 1, 58, 0
1, 14780, Note_off_c, 1, 77, 0
1, 14784, Note_on_c, 1, 75, 127
1, 14784, Note_on_c, 1, 55, 127
1, 14876, Note_off_c, 1, 75, 0
1, 14880, Note_on_c, 1, 74, 127
1, 14972, Note_off_c, 1, 55, 0
1, 14972, Note_off_c, 1, 74, 0
1, 14976, Note_on_c, 1, 72, 127
1, 14976, Note_on_c, 1, 45, 127
1, 15068, Note_off_c, 1, 72, 0
1, 15072, Note_on_c, 1, 75, 127
1, 15164, Note_off_c, 1, 45, 0
1, 15164, Note_off_c, 1, 75, 0
1, 15168, Note_on_c, 1, 77, 127
1, 15168, Note_on_c, 1, 57, 127
1, 15260, Note_off_c, 1, 77, 0
1, 15260, Note_off_c, 1, 57, 0
1, 15264, Note_on_c, 1, 79, 127
1, 15264, Note_on_c, 1, 58, 127
1, 15356, Note_off_c, 1, 79, 0
1, 15356, Note_off_c, 1, 58, 0
1, 15360, Note_on_c, 1, 81, 127
1, 15360, Note_on_c, 1, 60, 127
1, 15452, Note_off_c, 1, 81, 0
1, 15456, Note_on_c, 1, 82, 127
1, 15548, Note_off_c, 1, 60, 0
1, 15548, Note_off_c, 1, 82, 0
1, 15552, Note_on_c, 1, 84, 127
1, 15552, Note_on_c, 1, 63, 127
1, 15644, Note_off_c, 1, 84, 0
1, 15648, Note_on_c, 1, 82, 127
1, 15740, Note_off_c, 1, 63, 0
1, 15740, Note_off_c, 1, 82, 0
1, 15744, Note_on_c, 1, 81, 127
1, 15744, Note_on_c, 1, 60, 127
1, 15836, Note_off_c, 1, 81, 0
1, 15840, Note_on_c, 1, 79, 127
1, 15932, Note_off_c, 1, 60, 0
1, 15932, Note_off_c, 1, 79, 0
1, 15936, Note_on_c, 1, 77, 127
1, 15936, Note_on_c, 1, 57, 127
1, 16028, Note_off_c, 1, 77, 0
1, 16032, Note_on_c, 1, 75, 127
1, 16124, Note_off_c, 1, 57, 0
1, 16124, Note_off_c, 1, 75, 0
1, 16128, Note_on_c, 1, 74, 127
1, 16128, Note_on_c, 1, 58, 127
1, 16220, Note_off_c, 1, 74, 0
1, 16220, Note_off_c, 1, 58, 0
1, 16224, Note_on_c, 1, 70, 127
1, 16224, Note_on_c, 1, 60, 127
1, 16316, Note_off_c, 1, 70, 0
1, 16316, Note_off_c, 1, 60, 0
1, 16320, Note_on_c, 1, 72, 127
1, 16320, Note_on_c, 1, 58, 127
1, 16412, Note_off_c, 1, 72, 0
1, 16412, Note_off_c, 1, 58, 0
1, 16416, Note_on_c, 1, 74, 127
1, 16416, Note_on_c, 1, 56, 127
1, 16508, Note_off_c, 1, 74, 0
1, 16508, Note_off_c, 1, 56, 0
1, 16512, Note_on_c, 1, 75, 127
1, 16512, Note_on_c, 1, 55, 127
1, 16604, Note_off_c, 1, 75, 0
1, 16604, Note_off_c, 1, 55, 0
1, 16608, Note_on_c, 1, 77, 127
1, 16608, Note_on_c, 1, 53, 127
1, 16700, Note_off_c, 1, 77, 0
1, 16700, Note_off_c, 1, 53, 0
1, 16704, Note_on_c, 1, 79, 127
1, 16704, Note_on_c, 1, 51, 127
1, 16796, Note_off_c, 1, 79, 0
1, 16796, Note_off_c, 1, 51, 0
1, 16800, Note_on_c, 1, 77, 127
1, 16800, Note_on_c, 1, 53, 127
1, 16892, Note_off_c, 1, 77, 0
1, 16892, Note_off_c, 1, 53, 0
1, 16896, Note_on_c, 1, 75, 127
1, 16896, Note_on_c, 1, 55, 127
1, 16988, Note_off_c, 1, 75, 0
1, 16988, Note_off_c, 1, 55, 0
1, 16992, Note_on_c, 1, 74, 127
1, 16992, Note_on_c, 1, 53, 127
1, 17084, Note_off_c, 1, 74, 0
1, 17084, Note_off_c, 1, 53, 0
1, 17088, Note_on_c, 1, 72, 127
1, 17088, Note_on_c, 1, 55, 127
1, 17180, Note_off_c, 1, 72, 0
1, 17180, Note_off_c, 1, 55, 0
1, 17184, Note_on_c, 1, 70, 127
1, 17184, Note_on_c, 1, 51, 127
1, 17276, Note_off_c, 1, 70, 0
1, 17276, Note_off_c, 1, 51, 0
1, 17280, Note_on_c, 1, 69, 127
1, 17280, Note_on_c, 1, 53, 127
1, 17372, Note_off_c, 1, 69, 0
1, 17376, Note_on_c, 1, 72, 127
1, 17468, Note_off_c, 1, 53, 0
1, 17468, Note_off_c, 1, 72, 0
1, 17472, Note_on_c, 1, 77, 127
1, 17472, Note_on_c, 1, 41, 127
1, 17564, Note_off_c, 1, 77, 0
1, 17568, Note_on_c, 1, 72, 127
1, 17568, Note_on_c, 1, 69, 127
1, 17660, Note_off_c, 1, 41, 0
1, 17660, Note_off_c, 1, 72, 0
1, 17660, Note_off_c, 1, 69, 0
1, 17664, Note_on_c, 1, 77, 127
1, 17664, Note_on_c, 1, 72, 127
1, 17664, Note_on_c, 1, 69, 127
1, 17756, Note_off_c, 1, 77, 0
1, 17756, Note_off_c, 1, 72, 0
1, 17756, Note_off_c, 1, 69, 0
1, 17760, Note_on_c, 1, 77, 127
1, 17760, Note_on_c, 1, 72, 127
1, 17760, Note_on_c, 1, 69, 127
1, 17852, Note_off_c, 1, 77, 0
1, 17852, Note_off_c, 1, 72, 0
1, 17852, Note_off_c, 1, 69, 0
1, 17856, Note_on_c, 1, 77, 127
1, 17856, Note_on_c, 1, 72, 127
1, 17856, Note_on_c, 1, 69, 127
1, 17856, Note_on_c, 1, 53, 127
1, 17948, Note_off_c, 1, 77, 0
1, 17948, Note_off_c, 1, 72, 0
1, 17948, Note_off_c, 1, 69, 0
1, 18044, Note_off_c, 1, 53, 0
1, 18048, Note_on_c, 1, 69, 127
1, 18048, Note_on_c, 1, 48, 127
1, 18140, Note_off_c, 1, 69, 0
1, 18144, Note_on_c, 1, 77, 127
1, 18236, Note_off_c, 1, 48, 0
1, 18236, Note_off_c, 1, 77, 0
1, 18240, Note_on_c, 1, 69, 127
1, 18240, Note_on_c, 1, 53, 127
1, 18332, Note_off_c, 1, 69, 0
1, 18336, Note_on_c, 1, 77, 127
1, 18428, Note_off_c, 1, 53, 0
1, 18428, Note_off_c, 1, 77, 0
1, 18432, Note_on_c, 1, 70, 127
1, 18432, Note_on_c, 1, 50, 127
1, 18524, Note_off_c, 1, 70, 0
1, 18528, Note_on_c, 1, 74, 127
1, 18620, Note_off_c, 1, 50, 0
1, 18620, Note_off_c, 1, 74, 0
1, 18624, Note_on_c, 1, 77, 127
1, 18624, Note_on_c, 1, 46, 127
1, 18716, Note_off_c, 1, 77, 0
1, 18720, Note_on_c, 1, 74, 127
1, 18720, Note_on_c, 1, 70, 127
1, 18812, Note_off_c, 1, 46, 0
1, 18812, Note_off_c, 1, 74, 0
1, 18812, Note_off_c, 1, 70, 0
1, 18816, Note_on_c, 1, 77, 127
1, 18816, Note_on_c, 1, 74, 127
1, 18816, Note_on_c, 1, 70, 127
1, 18908, Note_off_c, 1, 77, 0
1, 18908, Note_off_c, 1, 74, 0
1, 18908, Note_off_c, 1, 70, 0
1, 18912, Note_on_c, 1, 77, 127
1, 18912, Note_on_c, 1, 74, 127
1, 18912, Note_on_c, 1, 70, 127
1, 19004, Note_off_c, 1, 77, 0
1, 19004, Note_off_c, 1, 74, 0
1, 19004, Note_off_c, 1, 70, 0
1, 19008, Note_on_c, 1, 77, 127
1, 19008, Note_on_c, 1, 74, 127
1, 19008, Note_on_c, 1, 70, 127
1, 19008, Note_on_c, 1, 50, 127
1, 19100, Note_off_c, 1, 77, 0
1, 19100, Note_off_c, 1, 74, 0
1, 19100, Note_off_c, 1, 70, 0
1, 19196, Note_off_c, 1, 50, 0
1, 19200, Note_on_c, 1, 74, 127
1, 19200, Note_on_c, 1, 46, 127
1, 19292, Note_off_c, 1, 74, 0
1, 19296, Note_on_c, 1, 77, 127
1, 19388, Note_off_c, 1, 46, 0
1, 19388, Note_off_c, 1, 77, 0
1, 19392, Note_on_c, 1, 74, 127
1, 19392, Note_on_c, 1, 50, 127
1, 19484, Note_off_c, 1, 74, 0
1, 19488, Note_on_c, 1, 77, 127
1, 19580, Note_off_c, 1, 50, 0
1, 19580, Note_off_c, 1, 77, 0
1, 19584, Note_on_c, 1, 69, 127
1, 19584, Note_on_c, 1, 53, 127
1, 19676, Note_off_c, 1, 69, 0
1, 19680, Note_on_c, 1, 72, 127
1, 19772, Note_off_c, 1, 53, 0
1, 19772, Note_off_c, 1, 72, 0
1, 19776, Note_on_c, 1, 77, 127
1, 19776, Note_on_c, 1, 41, 127
1, 19868, Note_off_c, 1, 77, 0
1, 19872, Note_on_c, 1, 72, 127
1, 19872, Note_on_c, 1, 69, 127
1, 19964, Note_off_c, 1, 41, 0
1, 19964, Note_off_c, 1, 72, 0
1, 19964, Note_off_c, 1, 69, 0
1, 19968, Note_on_c, 1, 77, 127
1, 19968, Note_on_c, 1, 72, 127
1, 19968, Note_on_c, 1, 69, 127
1, 20060, Note_off_c, 1, 77, 0
1, 20060, Note_off_c, 1, 72, 0
1, 20060, Note_off_c, 1, 69, 0
1, 20064, Note_on_c, 1, 77, 127
1, 20064, Note_on_c, 1, 72, 127
1, 20064, Note_on_c, 1, 69, 127
1, 20156, Note_off_c, 1, 77, 0
1, 20156, Note_off_c, 1, 72, 0
1, 20156, Note_off_c, 1, 69, 0
1, 20160, Note_on_c, 1, 77, 127
1, 20160, Note_on_c, 1, 72, 127
1, 20160, Note_on_c, 1, 69, 127
1, 20160, Note_on_c, 1, 53, 127
1, 20252, Note_off_c, 1, 77, 0
1, 20252, Note_off_c, 1, 72, 0
1, 20252, Note_off_c, 1, 69, 0
1, 20348, Note_off_c, 1, 53, 0
1, 20352, Note_on_c, 1, 69, 127
1, 20352, Note_on_c, 1, 50, 127
1, 20444, Note_off_c, 1, 69, 0
1, 20448, Note_on_c, 1, 77, 127
1, 20540, Note_off_c, 1, 50, 0
1, 20540, Note_off_c, 1, 77, 0
1, 20544, Note_on_c, 1, 69, 127
1, 20544, Note_on_c, 1, 53, 127
1, 20636, Note_off_c, 1, 69, 0
1, 20640, Note_on_c, 1, 77, 127
1, 20732, Note_off_c, 1, 53, 0
1, 20732, Note_off_c, 1, 77, 0
1, 20736, Note_on_c, 1, 71, 127
1, 20736, Note_on_c, 1, 55, 127
1, 20828, Note_off_c, 1, 71, 0
1, 20832, Note_on_c, 1, 74, 127
1, 20924, Note_off_c, 1, 55, 0
1, 20924, Note_off_c, 1, 74, 0
1, 20928, Note_on_c, 1, 79, 127
1, 20928, Note_on_c, 1, 43, 127
1, 21020, Note_off_c, 1, 79, 0
1, 21024, Note_on_c, 1, 74, 127
1, 21024, Note_on_c, 1, 71, 127
1, 21116, Note_off_c, 1, 43, 0
1, 21116, Note_off_c, 1, 74, 0
1, 21116, Note_off_c, 1, 71, 0
1, 21120, Note_on_c, 1, 79, 127
1, 21120, Note_on_c, 1, 74, 127
1, 21120, Note_on_c, 1, 71, 127
1, 21212, Note_off_c, 1, 79, 0
1, 21212, Note_off_c, 1, 74, 0
1, 21212, Note_off_c, 1, 71, 0
1, 21216, Note_on_c, 1, 79, 127
1, 21216, Note_on_c, 1, 74, 127
1, 21216, Note_on_c, 1, 71, 127
1, 21308, Note_off_c, 1, 79, 0
1, 21308, Note_off_c, 1, 74, 0
1, 21308, Note_off_c, 1, 71, 0
1, 21312, Note_on_c, 1, 79, 127
1, 21312, Note_on_c, 1, 74, 127
1, 21312, Note_on_c, 1, 71, 127
1, 21312, Note_on_c, 1, 55, 127
1, 21404, Note_off_c, 1, 79, 0
1, 21404, Note_off_c, 1, 74, 0
1, 21404, Note_off_c, 1, 71, 0
1, 21500, Note_off_c, 1, 55, 0
1, 21504, Note_on_c, 1, 71, 127
1, 21504, Note_on_c, 1, 50, 127
1, 21596, Note_off_c, 1, 71, 0
1, 21600, Note_on_c, 1, 79, 127
1, 21692, Note_off_c, 1, 50, 0
1, 21692, Note_off_c, 1, 79, 0
1, 21696, Note_on_c, 1, 71, 127
1, 21696, Note_on_c, 1, 55, 127
1, 21788, Note_off_c, 1, 71, 0
1, 21792, Note_on_c, 1, 79, 127
1, 21884, Note_off_c, 1, 55, 0
1, 21884, Note_off_c, 1, 79, 0
1, 21888, Note_on_c, 1, 72, 127
1, 21888, Note_on_c, 1, 51, 127
1, 21980, Note_off_c, 1, 72, 0
1, 21984, Note_on_c, 1, 75, 127
1, 22076, Note_off_c, 1, 51, 0
1, 22076, Note_off_c, 1, 75, 0
1, 22080, Note_on_c, 1, 79, 127
1, 22080, Note_on_c, 1, 48, 127
1, 22172, Note_off_c, 1, 79, 0
1, 22176, Note_on_c, 1, 72, 127
1, 22176, Note_on_c, 1, 75, 127
1, 22268, Note_off_c, 1, 48, 0
1, 22268, Note_off_c, 1, 72, 0
1, 22268, Note_off_c, 1, 75, 0
1, 22272, Note_on_c, 1, 72, 127
1, 22272, Note_on_c, 1, 79, 127
1, 22272, Note_on_c, 1, 75, 127
1, 22364, Note_off_c, 1, 72, 0
1, 22364, Note_off_c, 1, 79, 0
1, 22364, Note_off_c, 1, 75, 0
1, 22368, Note_on_c, 1, 72, 127
1, 22368, Note_on_c, 1, 79, 127
1, 22368, Note_on_c, 1, 75, 127
1, 22460, Note_off_c, 1, 72, 0
1, 22460, Note_off_c, 1, 79, 0
1, 22460, Note_off_c, 1, 75, 0
1, 22464, Note_on_c, 1, 79, 127
1, 22464, Note_on_c, 1, 75, 127
1, 22464, Note_on_c, 1, 72, 127
1, 22464, Note_on_c, 1, 51, 127
1, 22556, Note_off_c, 1, 79, 0
1, 22556, Note_off_c, 1, 75, 0
1, 22556, Note_off_c, 1, 72, 0
1, 22652, Note_off_c, 1, 51, 0
1, 22656, Note_on_c, 1, 75, 127
1, 22656, Note_on_c, 1, 48, 127
1, 22748, Note_off_c, 1, 75, 0
1, 22752, Note_on_c, 1, 79, 127
1, 22844, Note_off_c, 1, 48, 0
1, 22844, Note_off_c, 1, 79, 0
1, 22848, Note_on_c, 1, 75, 127
1, 22848, Note_on_c, 1, 51, 127
1, 22940, Note_off_c, 1, 75, 0
1, 22944, Note_on_c, 1, 79, 127
1, 23036, Note_off_c, 1, 51, 0
1, 23036, Note_off_c, 1, 79, 0
1, 23040, Note_on_c, 1, 73, 127
1, 23040, Note_on_c, 1, 57, 127
1, 23132, Note_off_c, 1, 73, 0
1, 23136, Note_on_c, 1, 76, 127
1, 23228, Note_off_c, 1, 57, 0
1, 23228, Note_off_c, 1, 76, 0
1, 23232, Note_on_c, 1, 81, 127
1, 23232, Note_on_c, 1, 45, 127
1, 23324, Note_off_c, 1, 81, 0
1, 23328, Note_on_c, 1, 76, 127
1, 23328, Note_on_c, 1, 73, 127
1, 23420, Note_off_c, 1, 45, 0
1, 23420, Note_off_c, 1, 76, 0
1, 23420, Note_off_c, 1, 73, 0
1, 23424, Note_on_c, 1, 81, 127
1, 23424, Note_on_c, 1, 76, 127
1, 23424, Note_on_c, 1, 73, 127
1, 23516, Note_off_c, 1, 81, 0
1, 23516, Note_off_c, 1, 76, 0
1, 23516, Note_off_c, 1, 73, 0
1, 23520, Note_on_c, 1, 81, 127
1, 23520, Note_on_c, 1, 76, 127
1, 23520, Note_on_c, 1, 73, 127
1, 23612, Note_off_c, 1, 81, 0
1, 23612, Note_off_c, 1, 76, 0
1, 23612, Note_off_c, 1, 73, 0
1, 23616, Note_on_c, 1, 81, 127
1, 23616, Note_on_c, 1, 76, 127
1, 23616, Note_on_c, 1, 73, 127
1, 23616, Note_on_c, 1, 57, 127
1, 23708, Note_off_c, 1, 81, 0
1, 23708, Note_off_c, 1, 76, 0
1, 23708, Note_off_c, 1, 73, 0
1, 23804, Note_off_c, 1, 57, 0
1, 23808, Note_on_c, 1, 73, 127
1, 23808, Note_on_c, 1, 52, 127
1, 23900, Note_off_c, 1, 73, 0
1, 23904, Note_on_c, 1, 81, 127
1, 23996, Note_off_c, 1, 52, 0
1, 23996, Note_off_c, 1, 81, 0
1, 24000, Note_on_c, 1, 73, 127
1, 24000, Note_on_c, 1, 57, 127
1, 24092, Note_off_c, 1, 73, 0
1, 24096, Note_on_c, 1, 81, 127
1, 24188, Note_off_c, 1, 57, 0
1, 24188, Note_off_c, 1, 81, 0
1, 24192, Note_on_c, 1, 72, 127
1, 24192, Note_on_c, 1, 54, 127
1, 24284, Note_off_c, 1, 72, 0
1, 24288, Note_on_c, 1, 74, 127
1, 24380, Note_off_c, 1, 54, 0
1, 24380, Note_off_c, 1, 74, 0
1, 24384, Note_on_c, 1, 81, 127
1, 24384, Note_on_c, 1, 50, 127
1, 24476, Note_off_c, 1, 81, 0
1, 24480, Note_on_c, 1, 74, 127
1, 24480, Note_on_c, 1, 72, 127
1, 24572, Note_off_c, 1, 50, 0
1, 24572, Note_off_c, 1, 74, 0
1, 24572, Note_off_c, 1, 72, 0
1, 24576, Note_on_c, 1, 81, 127
1, 24576, Note_on_c, 1, 74, 127
1, 24576, Note_on_c, 1, 72, 127
1, 24668, Note_off_c, 1, 81, 0
1, 24668, Note_off_c, 1, 74, 0
1, 24668, Note_off_c, 1, 72, 0
1, 24672, Note_on_c, 1, 81, 127
1, 24672, Note_on_c, 1, 74, 127
1, 24672, Note_on_c, 1, 72, 127
1, 24764, Note_off_c, 1, 81, 0
1, 24764, Note_off_c, 1, 74, 0
1, 24764, Note_off_c, 1, 72, 0
1, 24768, Note_on_c, 1, 81, 127
1, 24768, Note_on_c, 1, 74, 127
1, 24768, Note_on_c, 1, 72, 127
1, 24768, Note_on_c, 1, 54, 127
1, 24860, Note_off_c, 1, 81, 0
1, 24860, Note_off_c, 1, 74, 0
1, 24860, Note_off_c, 1, 72, 0
1, 24956, Note_off_c, 1, 54, 0
1, 24960, Note_on_c, 1, 72, 127
1, 24960, Note_on_c, 1, 50, 127
1, 25052, Note_off_c, 1, 72, 0
1, 25056, Note_on_c, 1, 81, 127
1, 25148, Note_off_c, 1, 50, 0
1, 25148, Note_off_c, 1, 81, 0
1, 25152, Note_on_c, 1, 72, 127
1, 25152, Note_on_c, 1, 54, 127
1, 25244, Note_off_c, 1, 72, 0
1, 25248, Note_on_c, 1, 81, 127
1, 25340, Note_off_c, 1, 54, 0
1, 25340, Note_off_c, 1, 81, 0
1, 25344, Note_on_c, 1, 70, 127
1, 25344, Note_on_c, 1, 55, 127
1, 25436, Note_off_c, 1, 70, 0
1, 25440, Note_on_c, 1, 74, 127
1, 25532, Note_off_c, 1, 55, 0
1, 25532, Note_off_c, 1, 74, 0
1, 25536, Note_on_c, 1, 79, 127
1, 25536, Note_on_c, 1, 43, 127
1, 25628, Note_off_c, 1, 79, 0
1, 25632, Note_on_c, 1, 74, 127
1, 25632, Note_on_c, 1, 70, 127
1, 25724, Note_off_c, 1, 43, 0
1, 25724, Note_off_c, 1, 74, 0
1, 25724, Note_off_c, 1, 70, 0
1, 25728, Note_on_c, 1, 79, 127
1, 25728, Note_on_c, 1, 74, 127
1, 25728, Note_on_c, 1, 70, 127
1, 25820, Note_off_c, 1, 79, 0
1, 25820, Note_off_c, 1, 74, 0
1, 25820, Note_off_c, 1, 70, 0
1, 25824, Note_on_c, 1, 79, 127
1, 25824, Note_on_c, 1, 74, 127
1, 25824, Note_on_c, 1, 70, 127
1, 25916, Note_off_c, 1, 79, 0
1, 25916, Note_off_c, 1, 74, 0
1, 25916, Note_off_c, 1, 70, 0
1, 25920, Note_on_c, 1, 79, 127
1, 25920, Note_on_c, 1, 74, 127
1, 25920, Note_on_c, 1, 70, 127
1, 25920, Note_on_c, 1, 46, 127
1, 26012, Note_off_c, 1, 79, 0
1, 26012, Note_off_c, 1, 74, 0
1, 26012, Note_off_c, 1, 70, 0
1, 26108, Note_off_c, 1, 46, 0
1, 26112, Note_on_c, 1, 70, 127
1, 26112, Note_on_c, 1, 43, 127
1, 26204, Note_off_c, 1, 70, 0
1, 26208, Note_on_c, 1, 79, 127
1, 26300, Note_off_c, 1, 43, 0
1, 26300, Note_off_c, 1, 79, 0
1, 26304, Note_on_c, 1, 70, 127
1, 26304, Note_on_c, 1, 46, 127
1, 26396, Note_off_c, 1, 70, 0
1, 26400, Note_on_c, 1, 79, 127
1, 26492, Note_off_c, 1, 46, 0
1, 26492, Note_off_c, 1, 79, 0
1, 26496, Note_on_c, 1, 69, 127
1, 26496, Note_on_c, 1, 48, 127
1, 26588, Note_off_c, 1, 69, 0
1, 26592, Note_on_c, 1, 72, 127
1, 26684, Note_off_c, 1, 72, 0
1, 26688, Note_on_c, 1, 79, 127
1, 26780, Note_off_c, 1, 79, 0
1, 26876, Note_off_c, 1, 48, 0
1, 26880, Note_on_c, 1, 69, 127
1, 26880, Note_on_c, 1, 72, 127
1, 26880, Note_on_c, 1, 79, 127
1, 26972, Note_off_c, 1, 69, 0
1, 26972, Note_off_c, 1, 72, 0
1, 26972, Note_off_c, 1, 79, 0
1, 26976, Note_on_c, 1, 72, 127
1, 26976, Note_on_c, 1, 69, 127
1, 26976, Note_on_c, 1, 79, 127
1, 27068, Note_off_c, 1, 72, 0
1, 27068, Note_off_c, 1, 69, 0
1, 27068, Note_off_c, 1, 79, 0
1, 27072, Note_on_c, 1, 72, 127
1, 27072, Note_on_c, 1, 69, 127
1, 27072, Note_on_c, 1, 79, 127
1, 27072, Note_on_c, 1, 48, 127
1, 27164, Note_off_c, 1, 72, 0
1, 27164, Note_off_c, 1, 69, 0
1, 27164, Note_off_c, 1, 79, 0
1, 27260, Note_off_c, 1, 48, 0
1, 27264, Note_on_c, 1, 69, 127
1, 27264, Note_on_c, 1, 45, 127
1, 27356, Note_off_c, 1, 69, 0
1, 27360, Note_on_c, 1, 79, 127
1, 27452, Note_off_c, 1, 45, 0
1, 27452, Note_off_c, 1, 79, 0
1, 27456, Note_on_c, 1, 69, 127
1, 27456, Note_on_c, 1, 48, 127
1, 27548, Note_off_c, 1, 69, 0
1, 27552, Note_on_c, 1, 79, 127
1, 27644, Note_off_c, 1, 48, 0
1, 27644, Note_off_c, 1, 79, 0
1, 27648, Note_on_c, 1, 69, 127
1, 27648, Note_on_c, 1, 50, 127
1, 27740, Note_off_c, 1, 69, 0
1, 27744, Note_on_c, 1, 72, 127
1, 27836, Note_off_c, 1, 72, 0
1, 27840, Note_on_c, 1, 78, 127
1, 27932, Note_off_c, 1, 78, 0
1, 28028, Note_off_c, 1, 50, 0
1, 28032, Note_on_c, 1, 78, 127
1, 28032, Note_on_c, 1, 72, 127
1, 28032, Note_on_c, 1, 69, 127
1, 28124, Note_off_c, 1, 78, 0
1, 28124, Note_off_c, 1, 72, 0
1, 28124, Note_off_c, 1, 69, 0
1, 28128, Note_on_c, 1, 78, 127
1, 28128, Note_on_c, 1, 72, 127
1, 28128, Note_on_c, 1, 69, 127
1, 28220, Note_off_c, 1, 78, 0
1, 28220, Note_off_c, 1, 72, 0
1, 28220, Note_off_c, 1, 69, 0
1, 28224, Note_on_c, 1, 78, 127
1, 28224, Note_on_c, 1, 72, 127
1, 28224, Note_on_c, 1, 69, 127
1, 28224, Note_on_c, 1, 50, 127
1, 28316, Note_off_c, 1, 78, 0
1, 28316, Note_off_c, 1, 72, 0
1, 28316, Note_off_c, 1, 69, 0
1, 28412, Note_off_c, 1, 50, 0
1, 28416, Note_on_c, 1, 69, 127
1, 28416, Note_on_c, 1, 38, 127
1, 28508, Note_off_c, 1, 69, 0
1, 28512, Note_on_c, 1, 78, 127
1, 28604, Note_off_c, 1, 38, 0
1, 28604, Note_off_c, 1, 78, 0
1, 28608, Note_on_c, 1, 69, 127
1, 28608, Note_on_c, 1, 50, 127
1, 28700, Note_off_c, 1, 69, 0
1, 28704, Note_on_c, 1, 78, 127
1, 28796, Note_off_c, 1, 50, 0
1, 28796, Note_off_c, 1, 78, 0
1, 28800, Note_on_c, 1, 79, 127
1, 28800, Note_on_c, 1, 43, 127
1, 28892, Note_off_c, 1, 79, 0
1, 28896, Note_on_c, 1, 74, 127
1, 28988, Note_off_c, 1, 74, 0
1, 28992, Note_on_c, 1, 70, 127
1, 29084, Note_off_c, 1, 70, 0
1, 29088, Note_on_c, 1, 67, 127
1, 29180, Note_off_c, 1, 43, 0
1, 29180, Note_off_c, 1, 67, 0
1, 29184, Note_on_c, 1, 74, 127
1, 29276, Note_off_c, 1, 74, 0
1, 29280, Note_on_c, 1, 70, 127
1, 29372, Note_off_c, 1, 70, 0
1, 29376, Note_on_c, 1, 67, 127
1, 29468, Note_off_c, 1, 67, 0
1, 29472, Note_on_c, 1, 62, 127
1, 29564, Note_off_c, 1, 62, 0
1, 29568, Note_on_c, 1, 70, 127
1, 29660, Note_off_c, 1, 70, 0
1, 29664, Note_on_c, 1, 67, 127
1, 29756, Note_off_c, 1, 67, 0
1, 29760, Note_on_c, 1, 62, 127
1, 29852, Note_off_c, 1, 62, 0
1, 29856, Note_on_c, 1, 58, 127
1, 29948, Note_off_c, 1, 58, 0
1, 29952, Note_on_c, 1, 43, 127
1, 29952, Note_on_c, 1, 55, 127
1, 30140, Note_off_c, 1, 55, 0
1, 30144, Note_on_c, 1, 67, 127
1, 30236, Note_off_c, 1, 67, 0
1, 30240, Note_on_c, 1, 69, 127
1, 30332, Note_off_c, 1, 43, 0
1, 30332, Note_off_c, 1, 69, 0
1, 30336, Note_on_c, 1, 70, 127
1, 30524, Note_off_c, 1, 70, 0
1, 30528, Note_on_c, 1, 74, 127
1, 30528, Note_on_c, 1, 70, 127
1, 30528, Note_on_c, 1, 67, 127
1, 30716, Note_off_c, 1, 74, 0
1, 30716, Note_off_c, 1, 70, 0
1, 30716, Note_off_c, 1, 67, 0
1, 30720, Note_on_c, 1, 70, 127
1, 30720, Note_on_c, 1, 67, 127
1, 30720, Note_on_c, 1, 62, 127
1, 30908, Note_off_c, 1, 70, 0
1, 30908, Note_off_c, 1, 67, 0
1, 30908, Note_off_c, 1, 62, 0
1, 30912, Note_on_c, 1, 67, 127
1, 30912, Note_on_c, 1, 62, 127
1, 30912, Note_on_c, 1, 58, 127
1, 31100, Note_off_c, 1, 67, 0
1, 31100, Note_off_c, 1, 62, 0
1, 31100, Note_off_c, 1, 58, 0
1, 31104, Note_on_c, 1, 55, 127
1, 31296, Note_on_c, 1, 67, 127
1, 31388, Note_off_c, 1, 67, 0
1, 31392, Note_on_c, 1, 69, 127
1, 31484, Note_off_c, 1, 55, 0
1, 31484, Note_off_c, 1, 69, 0
1, 31488, Note_on_c, 1, 70, 127
1, 31676, Note_off_c, 1, 70, 0
1, 31680, Note_on_c, 1, 74, 127
1, 31680, Note_on_c, 1, 70, 127
1, 31680, Note_on_c, 1, 67, 127
1, 31868, Note_off_c, 1, 74, 0
1, 31868, Note_off_c, 1, 70, 0
1, 31868, Note_off_c, 1, 67, 0
1, 31872, Note_on_c, 1, 70, 127
1, 31872, Note_on_c, 1, 67, 127
1, 31872, Note_on_c, 1, 62, 127
1, 32060, Note_off_c, 1, 70, 0
1, 32060, Note_off_c, 1, 67, 0
1, 32060, Note_off_c, 1, 62, 0
1, 32064, Note_on_c, 1, 67, 127
1, 32064, Note_on_c, 1, 62, 127
1, 32064, Note_on_c, 1, 58, 127
1, 32252, Note_off_c, 1, 67, 0
1, 32252, Note_off_c, 1, 62, 0
1, 32252, Note_off_c, 1, 58, 0
1, 32256, Note_on_c, 1, 59, 127
1, 32256, Note_on_c, 1, 53, 127
1, 32444, Note_off_c, 1, 59, 0
1, 32448, Note_on_c, 1, 67, 127
1, 32540, Note_off_c, 1, 67, 0
1, 32544, Note_on_c, 1, 69, 127
1, 32636, Note_off_c, 1, 53, 0
1, 32636, Note_off_c, 1, 69, 0
1, 32640, Note_on_c, 1, 71, 127
1, 32828, Note_off_c, 1, 71, 0
1, 32832, Note_on_c, 1, 74, 127
1, 32832, Note_on_c, 1, 71, 127
1, 32832, Note_on_c, 1, 67, 127
1, 33020, Note_off_c, 1, 74, 0
1, 33020, Note_off_c, 1, 71, 0
1, 33020, Note_off_c, 1, 67, 0
1, 33024, Note_on_c, 1, 71, 127
1, 33024, Note_on_c, 1, 67, 127
1, 33024, Note_on_c, 1, 62, 127
1, 33212, Note_off_c, 1, 71, 0
1, 33212, Note_off_c, 1, 67, 0
1, 33212, Note_off_c, 1, 62, 0
1, 33216, Note_on_c, 1, 67, 127
1, 33216, Note_on_c, 1, 62, 127
1, 33216, Note_on_c, 1, 59, 127
1, 33404, Note_off_c, 1, 67, 0
1, 33404, Note_off_c, 1, 62, 0
1, 33404, Note_off_c, 1, 59, 0
1, 33408, Note_on_c, 1, 59, 127
1, 33408, Note_on_c, 1, 53, 127
1, 33596, Note_off_c, 1, 59, 0
1, 33600, Note_on_c, 1, 67, 127
1, 33692, Note_off_c, 1, 67, 0
1, 33696, Note_on_c, 1, 69, 127
1, 33788, Note_off_c, 1, 53, 0
1, 33788, Note_off_c, 1, 69, 0
1, 33792, Note_on_c, 1, 71, 127
1, 33980, Note_off_c, 1, 71, 0
1, 33984, Note_on_c, 1, 74, 127
1, 33984, Note_on_c, 1, 71, 127
1, 33984, Note_on_c, 1, 67, 127
1, 34172, Note_off_c, 1, 74, 0
1, 34172, Note_off_c, 1, 71, 0
1, 34172, Note_off_c, 1, 67, 0
1, 34176, Note_on_c, 1, 71, 127
1, 34176, Note_on_c, 1, 67, 127
1, 34176, Note_on_c, 1, 62, 127
1, 34364, Note_off_c, 1, 71, 0
1, 34364, Note_off_c, 1, 67, 0
1, 34364, Note_off_c, 1, 62, 0
1, 34368, Note_on_c, 1, 67, 127
1, 34368, Note_on_c, 1, 62, 127
1, 34368, Note_on_c, 1, 59, 127
1, 34556, Note_off_c, 1, 67, 0
1, 34556, Note_off_c, 1, 62, 0
1, 34556, Note_off_c, 1, 59, 0
1, 34560, Note_on_c, 1, 60, 127
1, 34560, Note_on_c, 1, 51, 127
1, 34748, Note_off_c, 1, 60, 0
1, 34752, Note_on_c, 1, 72, 127
1, 34844, Note_off_c, 1, 72, 0
1, 34848, Note_on_c, 1, 74, 127
1, 34940, Note_off_c, 1, 51, 0
1, 34940, Note_off_c, 1, 74, 0
1, 34944, Note_on_c, 1, 75, 127
1, 35132, Note_off_c, 1, 75, 0
1, 35136, Note_on_c, 1, 79, 127
1, 35136, Note_on_c, 1, 75, 127
1, 35136, Note_on_c, 1, 72, 127
1, 35324, Note_off_c, 1, 79, 0
1, 35324, Note_off_c, 1, 75, 0
1, 35324, Note_off_c, 1, 72, 0
1, 35328, Note_on_c, 1, 75, 127
1, 35328, Note_on_c, 1, 72, 127
1, 35328, Note_on_c, 1, 67, 127
1, 35516, Note_off_c, 1, 75, 0
1, 35516, Note_off_c, 1, 72, 0
1, 35516, Note_off_c, 1, 67, 0
1, 35520, Note_on_c, 1, 72, 127
1, 35520, Note_on_c, 1, 67, 127
1, 35520, Note_on_c, 1, 63, 127
1, 35708, Note_off_c, 1, 72, 0
1, 35708, Note_off_c, 1, 67, 0
1, 35708, Note_off_c, 1, 63, 0
1, 35712, Note_on_c, 1, 60, 127
1, 35712, Note_on_c, 1, 51, 127
1, 35900, Note_off_c, 1, 60, 0
1, 35904, Note_on_c, 1, 72, 127
1, 35996, Note_off_c, 1, 72, 0
1, 36000, Note_on_c, 1, 74, 127
1, 36092, Note_off_c, 1, 51, 0
1, 36092, Note_off_c, 1, 74, 0
1, 36096, Note_on_c, 1, 75, 127
1, 36284, Note_off_c, 1, 75, 0
1, 36288, Note_on_c, 1, 79, 127
1, 36288, Note_on_c, 1, 75, 127
1, 36288, Note_on_c, 1, 72, 127
1, 36476, Note_off_c, 1, 79, 0
1, 36476, Note_off_c, 1, 75, 0
1, 36476, Note_off_c, 1, 72, 0
1, 36480, Note_on_c, 1, 75, 127
1, 36480, Note_on_c, 1, 72, 127
1, 36480, Note_on_c, 1, 67, 127
1, 36668, Note_off_c, 1, 75, 0
1, 36668, Note_off_c, 1, 72, 0
1, 36668, Note_off_c, 1, 67, 0
1, 36672, Note_on_c, 1, 72, 127
1, 36672, Note_on_c, 1, 67, 127
1, 36672, Note_on_c, 1, 63, 127
1, 36860, Note_off_c, 1, 72, 0
1, 36860, Note_off_c, 1, 67, 0
1, 36860, Note_off_c, 1, 63, 0
1, 36864, Note_on_c, 1, 62, 127
1, 36864, Note_on_c, 1, 53, 127
1, 37052, Note_off_c, 1, 62, 0
1, 37056, Note_on_c, 1, 74, 127
1, 37148, Note_off_c, 1, 74, 0
1, 37152, Note_on_c, 1, 75, 127
1, 37244, Note_off_c, 1, 53, 0
1, 37244, Note_off_c, 1, 75, 0
1, 37248, Note_on_c, 1, 77, 127
1, 37436, Note_off_c, 1, 77, 0
1, 37440, Note_on_c, 1, 80, 127
1, 37440, Note_on_c, 1, 77, 127
1, 37440, Note_on_c, 1, 74, 127
1, 37628, Note_off_c, 1, 80, 0
1, 37628, Note_off_c, 1, 77, 0
1, 37628, Note_off_c, 1, 74, 0
1, 37632, Note_on_c, 1, 77, 127
1, 37632, Note_on_c, 1, 74, 127
1, 37632, Note_on_c, 1, 68, 127
1, 37820, Note_off_c, 1, 77, 0
1, 37820, Note_off_c, 1, 74, 0
1, 37820, Note_off_c, 1, 68, 0
1, 37824, Note_on_c, 1, 74, 127
1, 37824, Note_on_c, 1, 68, 127
1, 37824, Note_on_c, 1, 65, 127
1, 38012, Note_off_c, 1, 74, 0
1, 38012, Note_off_c, 1, 68, 0
1, 38012, Note_off_c, 1, 65, 0
1, 38016, Note_on_c, 1, 62, 127
1, 38016, Note_on_c, 1, 53, 127
1, 38204, Note_off_c, 1, 62, 0
1, 38208, Note_on_c, 1, 74, 127
1, 38300, Note_off_c, 1, 74, 0
1, 38304, Note_on_c, 1, 75, 127
1, 38396, Note_off_c, 1, 53, 0
1, 38396, Note_off_c, 1, 75, 0
1, 38400, Note_on_c, 1, 77, 127
1, 38588, Note_off_c, 1, 77, 0
1, 38592, Note_on_c, 1, 80, 127
1, 38592, Note_on_c, 1, 77, 127
1, 38592, Note_on_c, 1, 74, 127
1, 38780, Note_off_c, 1, 80, 0
1, 38780, Note_off_c, 1, 77, 0
1, 38780, Note_off_c, 1, 74, 0
1, 38784, Note_on_c, 1, 77, 127
1, 38784, Note_on_c, 1, 74, 127
1, 38784, Note_on_c, 1, 68, 127
1, 38972, Note_off_c, 1, 77, 0
1, 38972, Note_off_c, 1, 74, 0
1, 38972, Note_off_c, 1, 68, 0
1, 38976, Note_on_c, 1, 74, 127
1, 38976, Note_on_c, 1, 68, 127
1, 38976, Note_on_c, 1, 65, 127
1, 39164, Note_off_c, 1, 74, 0
1, 39164, Note_off_c, 1, 68, 0
1, 39164, Note_off_c, 1, 65, 0
1, 39168, Note_on_c, 1, 75, 127
1, 39168, Note_on_c, 1, 60, 127
1, 39168, Note_on_c, 1, 55, 127
1, 39260, Note_off_c, 1, 75, 0
1, 39264, Note_on_c, 1, 72, 127
1, 39356, Note_off_c, 1, 72, 0
1, 39360, Note_on_c, 1, 67, 127
1, 39452, Note_off_c, 1, 67, 0
1, 39456, Note_on_c, 1, 71, 127
1, 39548, Note_off_c, 1, 60, 0
1, 39548, Note_off_c, 1, 55, 0
1, 39548, Note_off_c, 1, 71, 0
1, 39552, Note_on_c, 1, 72, 127
1, 39644, Note_off_c, 1, 72, 0
1, 39648, Note_on_c, 1, 67, 127
1, 39740, Note_off_c, 1, 67, 0
1, 39744, Note_on_c, 1, 63, 127
1, 39836, Note_off_c, 1, 63, 0
1, 39840, Note_on_c, 1, 60, 127
1, 39932, Note_off_c, 1, 60, 0
1, 39936, Note_on_c, 1, 62, 127
1, 39936, Note_on_c, 1, 55, 127
1, 39936, Note_on_c, 1, 50, 127
1, 39936, Note_on_c, 1, 43, 127
1, 40028, Note_off_c, 1, 62, 0
1, 40032, Note_on_c, 1, 65, 127
1, 40124, Note_off_c, 1, 65, 0
1, 40128, Note_on_c, 1, 72, 127
1, 40220, Note_off_c, 1, 72, 0
1, 40224, Note_on_c, 1, 71, 127
1, 40316, Note_off_c, 1, 55, 0
1, 40316, Note_off_c, 1, 50, 0
1, 40316, Note_off_c, 1, 43, 0
1, 40316, Note_off_c, 1, 71, 0
1, 40320, Note_on_c, 1, 55, 127
1, 40320, Note_on_c, 1, 48, 127
1, 40320, Note_on_c, 1, 72, 127
1, 40320, Note_on_c, 1, 60, 127
1, 40412, Note_off_c, 1, 72, 0
1, 40416, Note_on_c, 1, 75, 127
1, 40508, Note_off_c, 1, 55, 0
1, 40508, Note_off_c, 1, 48, 0
1, 40508, Note_off_c, 1, 60, 0
1, 40508, Note_off_c, 1, 75, 0
1, 40512, Note_on_c, 1, 72, 127
1, 40512, Note_on_c, 1, 60, 127
1, 40604, Note_off_c, 1, 72, 0
1, 40604, Note_off_c, 1, 60, 0
1, 40608, Note_on_c, 1, 75, 127
1, 40608, Note_on_c, 1, 62, 127
1, 40700, Note_off_c, 1, 75, 0
1, 40700, Note_off_c, 1, 62, 0
1, 40704, Note_on_c, 1, 67, 127
1, 40704, Note_on_c, 1, 63, 127
1, 40796, Note_off_c, 1, 67, 0
1, 40800, Note_on_c, 1, 75, 127
1, 40892, Note_off_c, 1, 63, 0
1, 40892, Note_off_c, 1, 75, 0
1, 40896, Note_on_c, 1, 72, 127
1, 40896, Note_on_c, 1, 67, 127
1, 40988, Note_off_c, 1, 72, 0
1, 40992, Note_on_c, 1, 75, 127
1, 41084, Note_off_c, 1, 67, 0
1, 41084, Note_off_c, 1, 75, 0
1, 41088, Note_on_c, 1, 67, 127
1, 41088, Note_on_c, 1, 63, 127
1, 41180, Note_off_c, 1, 67, 0
1, 41184, Note_on_c, 1, 75, 127
1, 41276, Note_off_c, 1, 63, 0
1, 41276, Note_off_c, 1, 75, 0
1, 41280, Note_on_c, 1, 67, 127
1, 41280, Note_on_c, 1, 60, 127
1, 41372, Note_off_c, 1, 67, 0
1, 41376, Note_on_c, 1, 75, 127
1, 41468, Note_off_c, 1, 60, 0
1, 41468, Note_off_c, 1, 75, 0
1, 41472, Note_on_c, 1, 67, 127
1, 41472, Note_on_c, 1, 59, 127
1, 41564, Note_off_c, 1, 67, 0
1, 41568, Note_on_c, 1, 74, 127
1, 41660, Note_off_c, 1, 59, 0
1, 41660, Note_off_c, 1, 74, 0
1, 41664, Note_on_c, 1, 71, 127
1, 41664, Note_on_c, 1, 55, 127
1, 41756, Note_off_c, 1, 71, 0
1, 41756, Note_off_c, 1, 55, 0
1, 41760, Note_on_c, 1, 74, 127
1, 41760, Note_on_c, 1, 57, 127
1, 41852, Note_off_c, 1, 74, 0
1, 41852, Note_off_c, 1, 57, 0
1, 41856, Note_on_c, 1, 67, 127
1, 41856, Note_on_c, 1, 59, 127
1, 41948, Note_off_c, 1, 67, 0
1, 41952, Note_on_c, 1, 74, 127
1, 42044, Note_off_c, 1, 59, 0
1, 42044, Note_off_c, 1, 74, 0
1, 42048, Note_on_c, 1, 71, 127
1, 42048, Note_on_c, 1, 62, 127
1, 42140, Note_off_c, 1, 71, 0
1, 42144, Note_on_c, 1, 74, 127
1, 42236, Note_off_c, 1, 62, 0
1, 42236, Note_off_c, 1, 74, 0
1, 42240, Note_on_c, 1, 67, 127
1, 42240, Note_on_c, 1, 59, 127
1, 42332, Note_off_c, 1, 67, 0
1, 42336, Note_on_c, 1, 74, 127
1, 42428, Note_off_c, 1, 59, 0
1, 42428, Note_off_c, 1, 74, 0
1, 42432, Note_on_c, 1, 67, 127
1, 42432, Note_on_c, 1, 55, 127
1, 42524, Note_off_c, 1, 67, 0
1, 42528, Note_on_c, 1, 74, 127
1, 42620, Note_off_c, 1, 55, 0
1, 42620, Note_off_c, 1, 74, 0
1, 42624, Note_on_c, 1, 67, 127
1, 42624, Note_on_c, 1, 48, 127
1, 42716, Note_off_c, 1, 67, 0
1, 42720, Note_on_c, 1, 75, 127
1, 42812, Note_off_c, 1, 48, 0
1, 42812, Note_off_c, 1, 75, 0
1, 42816, Note_on_c, 1, 72, 127
1, 42816, Note_on_c, 1, 60, 127
1, 42908, Note_off_c, 1, 72, 0
1, 42908, Note_off_c, 1, 60, 0
1, 42912, Note_on_c, 1, 75, 127
1, 42912, Note_on_c, 1, 62, 127
1, 43004, Note_off_c, 1, 75, 0
1, 43004, Note_off_c, 1, 62, 0
1, 43008, Note_on_c, 1, 67, 127
1, 43008, Note_on_c, 1, 63, 127
1, 43100, Note_off_c, 1, 67, 0
1, 43104, Note_on_c, 1, 75, 127
1, 43196, Note_off_c, 1, 63, 0
1, 43196, Note_off_c, 1, 75, 0
1, 43200, Note_on_c, 1, 72, 127
1, 43200, Note_on_c, 1, 67, 127
1, 43292, Note_off_c, 1, 72, 0
1, 43296, Note_on_c, 1, 75, 127
1, 43388, Note_off_c, 1, 67, 0
1, 43388, Note_off_c, 1, 75, 0
1, 43392, Note_on_c, 1, 67, 127
1, 43392, Note_on_c, 1, 63, 127
1, 43484, Note_off_c, 1, 67, 0
1, 43488, Note_on_c, 1, 75, 127
1, 43580, Note_off_c, 1, 63, 0
1, 43580, Note_off_c, 1, 75, 0
1, 43584, Note_on_c, 1, 67, 127
1, 43584, Note_on_c, 1, 60, 127
1, 43676, Note_off_c, 1, 67, 0
1, 43680, Note_on_c, 1, 75, 127
1, 43772, Note_off_c, 1, 60, 0
1, 43772, Note_off_c, 1, 75, 0
1, 43776, Note_on_c, 1, 65, 127
1, 43776, Note_on_c, 1, 57, 127
1, 43868, Note_off_c, 1, 65, 0
1, 43872, Note_on_c, 1, 75, 127
1, 43964, Note_off_c, 1, 57, 0
1, 43964, Note_off_c, 1, 75, 0
1, 43968, Note_on_c, 1, 72, 127
1, 43968, Note_on_c, 1, 53, 127
1, 44060, Note_off_c, 1, 72, 0
1, 44060, Note_off_c, 1, 53, 0
1, 44064, Note_on_c, 1, 75, 127
1, 44064, Note_on_c, 1, 55, 127
1, 44156, Note_off_c, 1, 75, 0
1, 44156, Note_off_c, 1, 55, 0
1, 44160, Note_on_c, 1, 65, 127
1, 44160, Note_on_c, 1, 57, 127
1, 44252, Note_off_c, 1, 65, 0
1, 44256, Note_on_c, 1, 75, 127
1, 44348, Note_off_c, 1, 57, 0
1, 44348, Note_off_c, 1, 75, 0
1, 44352, Note_on_c, 1, 72, 127
1, 44352, Note_on_c, 1, 60, 127
1, 44444, Note_off_c, 1, 72, 0
1, 44448, Note_on_c, 1, 75, 127
1, 44540, Note_off_c, 1, 60, 0
1, 44540, Note_off_c, 1, 75, 0
1, 44544, Note_on_c, 1, 65, 127
1, 44544, Note_on_c, 1, 57, 127
1, 44636, Note_off_c, 1, 65, 0
1, 44640, Note_on_c, 1, 75, 127
1, 44732, Note_off_c, 1, 57, 0
1, 44732, Note_off_c, 1, 75, 0
1, 44736, Note_on_c, 1, 65, 127
1, 44736, Note_on_c, 1, 53, 127
1, 44828, Note_off_c, 1, 65, 0
1, 44832, Note_on_c, 1, 75, 127
1, 44924, Note_off_c, 1, 53, 0
1, 44924, Note_off_c, 1, 75, 0
1, 44928, Note_on_c, 1, 65, 127
1, 44928, Note_on_c, 1, 46, 127
1, 45020, Note_off_c, 1, 65, 0
1, 45024, Note_on_c, 1, 73, 127
1, 45116, Note_off_c, 1, 46, 0
1, 45116, Note_off_c, 1, 73, 0
1, 45120, Note_on_c, 1, 70, 127
1, 45120, Note_on_c, 1, 58, 127
1, 45212, Note_off_c, 1, 70, 0
1, 45212, Note_off_c, 1, 58, 0
1, 45216, Note_on_c, 1, 73, 127
1, 45216, Note_on_c, 1, 60, 127
1, 45308, Note_off_c, 1, 73, 0
1, 45308, Note_off_c, 1, 60, 0
1, 45312, Note_on_c, 1, 65, 127
1, 45312, Note_on_c, 1, 61, 127
1, 45404, Note_off_c, 1, 65, 0
1, 45408, Note_on_c, 1, 73, 127
1, 45500, Note_off_c, 1, 61, 0
1, 45500, Note_off_c, 1, 73, 0
1, 45504, Note_on_c, 1, 70, 127
1, 45504, Note_on_c, 1, 65, 127
1, 45596, Note_off_c, 1, 70, 0
1, 45600, Note_on_c, 1, 73, 127
1, 45692, Note_off_c, 1, 65, 0
1, 45692, Note_off_c, 1, 73, 0
1, 45696, Note_on_c, 1, 65, 127
1, 45696, Note_on_c, 1, 61, 127
1, 45788, Note_off_c, 1, 65, 0
1, 45792, Note_on_c, 1, 73, 127
1, 45884, Note_off_c, 1, 61, 0
1, 45884, Note_off_c, 1, 73, 0
1, 45888, Note_on_c, 1, 65, 127
1, 45888, Note_on_c, 1, 58, 127
1, 45980, Note_off_c, 1, 65, 0
1, 45984, Note_on_c, 1, 73, 127
1, 46076, Note_off_c, 1, 58, 0
1, 46076, Note_off_c, 1, 73, 0
1, 46080, Note_on_c, 1, 65, 127
1, 46080, Note_on_c, 1, 55, 127
1, 46172, Note_off_c, 1, 65, 0
1, 46176, Note_on_c, 1, 73, 127
1, 46268, Note_off_c, 1, 55, 0
1, 46268, Note_off_c, 1, 73, 0
1, 46272, Note_on_c, 1, 70, 127
1, 46272, Note_on_c, 1, 51, 127
1, 46364, Note_off_c, 1, 70, 0
1, 46364, Note_off_c, 1, 51, 0
1, 46368, Note_on_c, 1, 73, 127
1, 46368, Note_on_c, 1, 53, 127
1, 46460, Note_off_c, 1, 73, 0
1, 46460, Note_off_c, 1, 53, 0
1, 46464, Note_on_c, 1, 65, 127
1, 46464, Note_on_c, 1, 55, 127
1, 46556, Note_off_c, 1, 65, 0
1, 46560, Note_on_c, 1, 73, 127
1, 46652, Note_off_c, 1, 55, 0
1, 46652, Note_off_c, 1, 73, 0
1, 46656, Note_on_c, 1, 70, 127
1, 46656, Note_on_c, 1, 58, 127
1, 46748, Note_off_c, 1, 70, 0
1, 46752, Note_on_c, 1, 73, 127
1, 46844, Note_off_c, 1, 58, 0
1, 46844, Note_off_c, 1, 73, 0
1, 46848, Note_on_c, 1, 65, 127
1, 46848, Note_on_c, 1, 55, 127
1, 46940, Note_off_c, 1, 65, 0
1, 46944, Note_on_c, 1, 73, 127
1, 47036, Note_off_c, 1, 55, 0
1, 47036, Note_off_c, 1, 73, 0
1, 47040, Note_on_c, 1, 65, 127
1, 47040, Note_on_c, 1, 51, 127
1, 47132, Note_off_c, 1, 65, 0
1, 47136, Note_on_c, 1, 73, 127
1, 47228, Note_off_c, 1, 51, 0
1, 47228, Note_off_c, 1, 73, 0
1, 47232, Note_on_c, 1, 63, 127
1, 47232, Note_on_c, 1, 44, 127
1, 47324, Note_off_c, 1, 63, 0
1, 47328, Note_on_c, 1, 72, 127
1, 47420, Note_off_c, 1, 44, 0
1, 47420, Note_off_c, 1, 72, 0
1, 47424, Note_on_c, 1, 68, 127
1, 47424, Note_on_c, 1, 56, 127
1, 47516, Note_off_c, 1, 68, 0
1, 47516, Note_off_c, 1, 56, 0
1, 47520, Note_on_c, 1, 72, 127
1, 47520, Note_on_c, 1, 58, 127
1, 47612, Note_off_c, 1, 72, 0
1, 47612, Note_off_c, 1, 58, 0
1, 47616, Note_on_c, 1, 63, 127
1, 47616, Note_on_c, 1, 60, 127
1, 47708, Note_off_c, 1, 63, 0
1, 47712, Note_on_c, 1, 72, 127
1, 47804, Note_off_c, 1, 60, 0
1, 47804, Note_off_c, 1, 72, 0
1, 47808, Note_on_c, 1, 68, 127
1, 47808, Note_on_c, 1, 63, 127
1, 47900, Note_off_c, 1, 68, 0
1, 47904, Note_on_c, 1, 72, 127
1, 47996, Note_off_c, 1, 63, 0
1, 47996, Note_off_c, 1, 72, 0
1, 48000, Note_on_c, 1, 63, 127
1, 48000, Note_on_c, 1, 60, 127
1, 48092, Note_off_c, 1, 63, 0
1, 48096, Note_on_c, 1, 72, 127
1, 48188, Note_off_c, 1, 60, 0
1, 48188, Note_off_c, 1, 72, 0
1, 48192, Note_on_c, 1, 63, 127
1, 48192, Note_on_c, 1, 56, 127
1, 48284, Note_off_c, 1, 63, 0
1, 48288, Note_on_c, 1, 72, 127
1, 48380, Note_off_c, 1, 56, 0
1, 48380, Note_off_c, 1, 72, 0
1, 48384, Note_on_c, 1, 62, 127
1, 48384, Note_on_c, 1, 54, 127
1, 48476, Note_off_c, 1, 62, 0
1, 48480, Note_on_c, 1, 72, 127
1, 48572, Note_off_c, 1, 54, 0
1, 48572, Note_off_c, 1, 72, 0
1, 48576, Note_on_c, 1, 69, 127
1, 48576, Note_on_c, 1, 50, 127
1, 48668, Note_off_c, 1, 69, 0
1, 48668, Note_off_c, 1, 50, 0
1, 48672, Note_on_c, 1, 72, 127
1, 48672, Note_on_c, 1, 52, 127
1, 48764, Note_off_c, 1, 72, 0
1, 48764, Note_off_c, 1, 52, 0
1, 48768, Note_on_c, 1, 62, 127
1, 48768, Note_on_c, 1, 54, 127
1, 48860, Note_off_c, 1, 62, 0
1, 48864, Note_on_c, 1, 72, 127
1, 48956, Note_off_c, 1, 54, 0
1, 48956, Note_off_c, 1, 72, 0
1, 48960, Note_on_c, 1, 69, 127
1, 48960, Note_on_c, 1, 57, 127
1, 49052, Note_off_c, 1, 69, 0
1, 49056, Note_on_c, 1, 72, 127
1, 49148, Note_off_c, 1, 57, 0
1, 49148, Note_off_c, 1, 72, 0
1, 49152, Note_on_c, 1, 62, 127
1, 49152, Note_on_c, 1, 54, 127
1, 49244, Note_off_c, 1, 62, 0
1, 49248, Note_on_c, 1, 72, 127
1, 49340, Note_off_c, 1, 54, 0
1, 49340, Note_off_c, 1, 72, 0
1, 49344, Note_on_c, 1, 62, 127
1, 49344, Note_on_c, 1, 50, 127
1, 49436, Note_off_c, 1, 62, 0
1, 49440, Note_on_c, 1, 72, 127
1, 49532, Note_off_c, 1, 50, 0
1, 49532, Note_off_c, 1, 72, 0
1, 49536, Note_on_c, 1, 63, 127
1, 49536, Note_on_c, 1, 43, 127
1, 49628, Note_off_c, 1, 63, 0
1, 49632, Note_on_c, 1, 72, 127
1, 49724, Note_off_c, 1, 43, 0
1, 49724, Note_off_c, 1, 72, 0
1, 49728, Note_on_c, 1, 67, 127
1, 49728, Note_on_c, 1, 51, 127
1, 49820, Note_off_c, 1, 67, 0
1, 49820, Note_off_c, 1, 51, 0
1, 49824, Note_on_c, 1, 72, 127
1, 49824, Note_on_c, 1, 53, 127
1, 49916, Note_off_c, 1, 72, 0
1, 49916, Note_off_c, 1, 53, 0
1, 49920, Note_on_c, 1, 63, 127
1, 49920, Note_on_c, 1, 55, 127
1, 50012, Note_off_c, 1, 63, 0
1, 50016, Note_on_c, 1, 72, 127
1, 50108, Note_off_c, 1, 55, 0
1, 50108, Note_off_c, 1, 72, 0
1, 50112, Note_on_c, 1, 67, 127
1, 50112, Note_on_c, 1, 60, 127
1, 50204, Note_off_c, 1, 67, 0
1, 50208, Note_on_c, 1, 72, 127
1, 50300, Note_off_c, 1, 60, 0
1, 50300, Note_off_c, 1, 72, 0
1, 50304, Note_on_c, 1, 63, 127
1, 50304, Note_on_c, 1, 55, 127
1, 50396, Note_off_c, 1, 63, 0
1, 50400, Note_on_c, 1, 72, 127
1, 50492, Note_off_c, 1, 55, 0
1, 50492, Note_off_c, 1, 72, 0
1, 50496, Note_on_c, 1, 63, 127
1, 50496, Note_on_c, 1, 51, 127
1, 50588, Note_off_c, 1, 63, 0
1, 50592, Note_on_c, 1, 72, 127
1, 50684, Note_off_c, 1, 51, 0
1, 50684, Note_off_c, 1, 72, 0
1, 50688, Note_on_c, 1, 62, 127
1, 50688, Note_on_c, 1, 43, 127
1, 50780, Note_off_c, 1, 62, 0
1, 50784, Note_on_c, 1, 70, 127
1, 50876, Note_off_c, 1, 43, 0
1, 50876, Note_off_c, 1, 70, 0
1, 50880, Note_on_c, 1, 67, 127
1, 50880, Note_on_c, 1, 55, 127
1, 50972, Note_off_c, 1, 67, 0
1, 50972, Note_off_c, 1, 55, 0
1, 50976, Note_on_c, 1, 70, 127
1, 50976, Note_on_c, 1, 57, 127
1, 51068, Note_off_c, 1, 70, 0
1, 51068, Note_off_c, 1, 57, 0
1, 51072, Note_on_c, 1, 62, 127
1, 51072, Note_on_c, 1, 58, 127
1, 51164, Note_off_c, 1, 62, 0
1, 51168, Note_on_c, 1, 70, 127
1, 51260, Note_off_c, 1, 58, 0
1, 51260, Note_off_c, 1, 70, 0
1, 51264, Note_on_c, 1, 67, 127
1, 51264, Note_on_c, 1, 62, 127
1, 51356, Note_off_c, 1, 67, 0
1, 51360, Note_on_c, 1, 70, 127
1, 51452, Note_off_c, 1, 62, 0
1, 51452, Note_off_c, 1, 70, 0
1, 51456, Note_on_c, 1, 62, 127
1, 51456, Note_on_c, 1, 58, 127
1, 51548, Note_off_c, 1, 62, 0
1, 51552, Note_on_c, 1, 70, 127
1, 51644, Note_off_c, 1, 58, 0
1, 51644, Note_off_c, 1, 70, 0
1, 51648, Note_on_c, 1, 62, 127
1, 51648, Note_on_c, 1, 55, 127
1, 51740, Note_off_c, 1, 62, 0
1, 51744, Note_on_c, 1, 70, 127
1, 51836, Note_off_c, 1, 55, 0
1, 51836, Note_off_c, 1, 70, 0
1, 51840, Note_on_c, 1, 67, 127
1, 51840, Note_on_c, 1, 52, 127
1, 51932, Note_off_c, 1, 67, 0
1, 51936, Note_on_c, 1, 76, 127
1, 52028, Note_off_c, 1, 52, 0
1, 52028, Note_off_c, 1, 76, 0
1, 52032, Note_on_c, 1, 70, 127
1, 52032, Note_on_c, 1, 61, 127
1, 52124, Note_off_c, 1, 70, 0
1, 52124, Note_off_c, 1, 61, 0
1, 52128, Note_on_c, 1, 76, 127
1, 52128, Note_on_c, 1, 62, 127
1, 52220, Note_off_c, 1, 76, 0
1, 52220, Note_off_c, 1, 62, 0
1, 52224, Note_on_c, 1, 67, 127
1, 52224, Note_on_c, 1, 64, 127
1, 52316, Note_off_c, 1, 67, 0
1, 52320, Note_on_c, 1, 76, 127
1, 52412, Note_off_c, 1, 64, 0
1, 52412, Note_off_c, 1, 76, 0
1, 52416, Note_on_c, 1, 70, 127
1, 52416, Note_on_c, 1, 67, 127
1, 52508, Note_off_c, 1, 70, 0
1, 52512, Note_on_c, 1, 76, 127
1, 52604, Note_off_c, 1, 67, 0
1, 52604, Note_off_c, 1, 76, 0
1, 52608, Note_on_c, 1, 67, 127
1, 52608, Note_on_c, 1, 64, 127
1, 52700, Note_off_c, 1, 67, 0
1, 52704, Note_on_c, 1, 76, 127
1, 52796, Note_off_c, 1, 64, 0
1, 52796, Note_off_c, 1, 76, 0
1, 52800, Note_on_c, 1, 67, 127
1, 52800, Note_on_c, 1, 61, 127
1, 52892, Note_off_c, 1, 67, 0
1, 52896, Note_on_c, 1, 76, 127
1, 52988, Note_off_c, 1, 61, 0
1, 52988, Note_off_c, 1, 76, 0
1, 52992, Note_on_c, 1, 67, 127
1, 52992, Note_on_c, 1, 57, 127
1, 53084, Note_off_c, 1, 67, 0
1, 53088, Note_on_c, 1, 76, 127
1, 53180, Note_off_c, 1, 57, 0
1, 53180, Note_off_c, 1, 76, 0
1, 53184, Note_on_c, 1, 69, 127
1, 53184, Note_on_c, 1, 49, 127
1, 53276, Note_off_c, 1, 69, 0
1, 53276, Note_off_c, 1, 49, 0
1, 53280, Note_on_c, 1, 76, 127
1, 53280, Note_on_c, 1, 50, 127
1, 53372, Note_off_c, 1, 76, 0
1, 53372, Note_off_c, 1, 50, 0
1, 53376, Note_on_c, 1, 67, 127
1, 53376, Note_on_c, 1, 52, 127
1, 53468, Note_off_c, 1, 67, 0
1, 53472, Note_on_c, 1, 76, 127
1, 53564, Note_off_c, 1, 52, 0
1, 53564, Note_off_c, 1, 76, 0
1, 53568, Note_on_c, 1, 69, 127
1, 53568, Note_on_c, 1, 55, 127
1, 53660, Note_off_c, 1, 69, 0
1, 53664, Note_on_c, 1, 76, 127
1, 53756, Note_off_c, 1, 55, 0
1, 53756, Note_off_c, 1, 76, 0
1, 53760, Note_on_c, 1, 67, 127
1, 53760, Note_on_c, 1, 52, 127
1, 53852, Note_off_c, 1, 67, 0
1, 53856, Note_on_c, 1, 76, 127
1, 53948, Note_off_c, 1, 52, 0
1, 53948, Note_off_c, 1, 76, 0
1, 53952, Note_on_c, 1, 67, 127
1, 53952, Note_on_c, 1, 49, 127
1, 54044, Note_off_c, 1, 67, 0
1, 54048, Note_on_c, 1, 76, 127
1, 54140, Note_off_c, 1, 49, 0
1, 54140, Note_off_c, 1, 76, 0
1, 54144, Note_on_c, 1, 65, 127
1, 54144, Note_on_c, 1, 38, 127
1, 54236, Note_off_c, 1, 65, 0
1, 54240, Note_on_c, 1, 77, 127
1, 54332, Note_off_c, 1, 38, 0
1, 54332, Note_off_c, 1, 77, 0
1, 54336, Note_on_c, 1, 74, 127
1, 54336, Note_on_c, 1, 50, 127
1, 54428, Note_off_c, 1, 74, 0
1, 54428, Note_off_c, 1, 50, 0
1, 54432, Note_on_c, 1, 77, 127
1, 54432, Note_on_c, 1, 52, 127
1, 54524, Note_off_c, 1, 77, 0
1, 54524, Note_off_c, 1, 52, 0
1, 54528, Note_on_c, 1, 69, 127
1, 54528, Note_on_c, 1, 53, 127
1, 54620, Note_off_c, 1, 69, 0
1, 54624, Note_on_c, 1, 77, 127
1, 54716, Note_off_c, 1, 53, 0
1, 54716, Note_off_c, 1, 77, 0
1, 54720, Note_on_c, 1, 74, 127
1, 54720, Note_on_c, 1, 57, 127
1, 54812, Note_off_c, 1, 74, 0
1, 54816, Note_on_c, 1, 77, 127
1, 54908, Note_off_c, 1, 57, 0
1, 54908, Note_off_c, 1, 77, 0
1, 54912, Note_on_c, 1, 74, 127
1, 54912, Note_on_c, 1, 53, 127
1, 55004, Note_off_c, 1, 74, 0
1, 55008, Note_on_c, 1, 77, 127
1, 55100, Note_off_c, 1, 53, 0
1, 55100, Note_off_c, 1, 77, 0
1, 55104, Note_on_c, 1, 76, 127
1, 55104, Note_on_c, 1, 50, 127
1, 55196, Note_off_c, 1, 76, 0
1, 55200, Note_on_c, 1, 77, 127
1, 55292, Note_off_c, 1, 50, 0
1, 55292, Note_off_c, 1, 77, 0
1, 55296, Note_on_c, 1, 74, 127
1, 55296, Note_on_c, 1, 51, 127
1, 55388, Note_off_c, 1, 74, 0
1, 55392, Note_on_c, 1, 79, 127
1, 55484, Note_off_c, 1, 51, 0
1, 55484, Note_off_c, 1, 79, 0
1, 55488, Note_on_c, 1, 75, 127
1, 55488, Note_on_c, 1, 63, 127
1, 55580, Note_off_c, 1, 75, 0
1, 55580, Note_off_c, 1, 63, 0
1, 55584, Note_on_c, 1, 79, 127
1, 55584, Note_on_c, 1, 65, 127
1, 55676, Note_off_c, 1, 79, 0
1, 55676, Note_off_c, 1, 65, 0
1, 55680, Note_on_c, 1, 74, 127
1, 55680, Note_on_c, 1, 67, 127
1, 55772, Note_off_c, 1, 74, 0
1, 55776, Note_on_c, 1, 79, 127
1, 55868, Note_off_c, 1, 67, 0
1, 55868, Note_off_c, 1, 79, 0
1, 55872, Note_on_c, 1, 75, 127
1, 55872, Note_on_c, 1, 70, 127
1, 55964, Note_off_c, 1, 75, 0
1, 55968, Note_on_c, 1, 79, 127
1, 56060, Note_off_c, 1, 70, 0
1, 56060, Note_off_c, 1, 79, 0
1, 56064, Note_on_c, 1, 74, 127
1, 56064, Note_on_c, 1, 67, 127
1, 56156, Note_off_c, 1, 74, 0
1, 56160, Note_on_c, 1, 79, 127
1, 56252, Note_off_c, 1, 67, 0
1, 56252, Note_off_c, 1, 79, 0
1, 56256, Note_on_c, 1, 74, 127
1, 56256, Note_on_c, 1, 63, 127
1, 56348, Note_off_c, 1, 74, 0
1, 56352, Note_on_c, 1, 79, 127
1, 56444, Note_off_c, 1, 63, 0
1, 56444, Note_off_c, 1, 79, 0
1, 56448, Note_on_c, 1, 72, 127
1, 56448, Note_on_c, 1, 57, 127
1, 56540, Note_off_c, 1, 72, 0
1, 56544, Note_on_c, 1, 79, 127
1, 56636, Note_off_c, 1, 57, 0
1, 56636, Note_off_c, 1, 79, 0
1, 56640, Note_on_c, 1, 75, 127
1, 56640, Note_on_c, 1, 45, 127
1, 56732, Note_off_c, 1, 75, 0
1, 56732, Note_off_c, 1, 45, 0
1, 56736, Note_on_c, 1, 79, 127
1, 56736, Note_on_c, 1, 46, 127
1, 56828, Note_off_c, 1, 79, 0
1, 56828, Note_off_c, 1, 46, 0
1, 56832, Note_on_c, 1, 72, 127
1, 56832, Note_on_c, 1, 48, 127
1, 56924, Note_off_c, 1, 72, 0
1, 56928, Note_on_c, 1, 79, 127
1, 57020, Note_off_c, 1, 48, 0
1, 57020, Note_off_c, 1, 79, 0
1, 57024, Note_on_c, 1, 75, 127
1, 57024, Note_on_c, 1, 51, 127
1, 57116, Note_off_c, 1, 75, 0
1, 57120, Note_on_c, 1, 79, 127
1, 57212, Note_off_c, 1, 51, 0
1, 57212, Note_off_c, 1, 79, 0
1, 57216, Note_on_c, 1, 72, 127
1, 57216, Note_on_c, 1, 48, 127
1, 57308, Note_off_c, 1, 72, 0
1, 57312, Note_on_c, 1, 79, 127
1, 57404, Note_off_c, 1, 48, 0
1, 57404, Note_off_c, 1, 79, 0
1, 57408, Note_on_c, 1, 72, 127
1, 57408, Note_on_c, 1, 45, 127
1, 57500, Note_off_c, 1, 72, 0
1, 57504, Note_on_c, 1, 79, 127
1, 57596, Note_off_c, 1, 45, 0
1, 57596, Note_off_c, 1, 79, 0
1, 57600, Note_on_c, 1, 72, 127
1, 57600, Note_on_c, 1, 50, 127
1, 57692, Note_off_c, 1, 72, 0
1, 57696, Note_on_c, 1, 78, 127
1, 57788, Note_off_c, 1, 50, 0
1, 57788, Note_off_c, 1, 78, 0
1, 57792, Note_on_c, 1, 74, 127
1, 57792, Note_on_c, 1, 62, 127
1, 57884, Note_off_c, 1, 74, 0
1, 57884, Note_off_c, 1, 62, 0
1, 57888, Note_on_c, 1, 78, 127
1, 57888, Note_on_c, 1, 63, 127
1, 57980, Note_off_c, 1, 78, 0
1, 57980, Note_off_c, 1, 63, 0
1, 57984, Note_on_c, 1, 72, 127
1, 57984, Note_on_c, 1, 66, 127
1, 58076, Note_off_c, 1, 72, 0
1, 58080, Note_on_c, 1, 78, 127
1, 58172, Note_off_c, 1, 66, 0
1, 58172, Note_off_c, 1, 78, 0
1, 58176, Note_on_c, 1, 74, 127
1, 58176, Note_on_c, 1, 69, 127
1, 58268, Note_off_c, 1, 74, 0
1, 58272, Note_on_c, 1, 78, 127
1, 58364, Note_off_c, 1, 69, 0
1, 58364, Note_off_c, 1, 78, 0
1, 58368, Note_on_c, 1, 72, 127
1, 58368, Note_on_c, 1, 66, 127
1, 58460, Note_off_c, 1, 72, 0
1, 58464, Note_on_c, 1, 78, 127
1, 58556, Note_off_c, 1, 66, 0
1, 58556, Note_off_c, 1, 78, 0
1, 58560, Note_on_c, 1, 72, 127
1, 58560, Note_on_c, 1, 62, 127
1, 58652, Note_off_c, 1, 72, 0
1, 58656, Note_on_c, 1, 78, 127
1, 58748, Note_off_c, 1, 62, 0
1, 58748, Note_off_c, 1, 78, 0
1, 58752, Note_on_c, 1, 70, 127
1, 58752, Note_on_c, 1, 55, 127
1, 58844, Note_off_c, 1, 70, 0
1, 58848, Note_on_c, 1, 79, 127
1, 58940, Note_off_c, 1, 55, 0
1, 58940, Note_off_c, 1, 79, 0
1, 58944, Note_on_c, 1, 74, 127
1, 58944, Note_on_c, 1, 43, 127
1, 59036, Note_off_c, 1, 74, 0
1, 59036, Note_off_c, 1, 43, 0
1, 59040, Note_on_c, 1, 79, 127
1, 59040, Note_on_c, 1, 45, 127
1, 59132, Note_off_c, 1, 79, 0
1, 59132, Note_off_c, 1, 45, 0
1, 59136, Note_on_c, 1, 70, 127
1, 59136, Note_on_c, 1, 46, 127
1, 59228, Note_off_c, 1, 70, 0
1, 59232, Note_on_c, 1, 79, 127
1, 59324, Note_off_c, 1, 46, 0
1, 59324, Note_off_c, 1, 79, 0
1, 59328, Note_on_c, 1, 74, 127
1, 59328, Note_on_c, 1, 50, 127
1, 59420, Note_off_c, 1, 74, 0
1, 59424, Note_on_c, 1, 79, 127
1, 59516, Note_off_c, 1, 50, 0
1, 59516, Note_off_c, 1, 79, 0
1, 59520, Note_on_c, 1, 70, 127
1, 59520, Note_on_c, 1, 46, 127
1, 59612, Note_off_c, 1, 70, 0
1, 59616, Note_on_c, 1, 79, 127
1, 59708, Note_off_c, 1, 46, 0
1, 59708, Note_off_c, 1, 79, 0
1, 59712, Note_on_c, 1, 70, 127
1, 59712, Note_on_c, 1, 43, 127
1, 59804, Note_off_c, 1, 70, 0
1, 59808, Note_on_c, 1, 79, 127
1, 59900, Note_off_c, 1, 43, 0
1, 59900, Note_off_c, 1, 79, 0
1, 59904, Note_on_c, 1, 69, 127
1, 59904, Note_on_c, 1, 48, 127
1, 59996, Note_off_c, 1, 69, 0
1, 60000, Note_on_c, 1, 79, 127
1, 60092, Note_off_c, 1, 48, 0
1, 60092, Note_off_c, 1, 79, 0
1, 60096, Note_on_c, 1, 72, 127
1, 60096, Note_on_c, 1, 57, 127
1, 60188, Note_off_c, 1, 72, 0
1, 60188, Note_off_c, 1, 57, 0
1, 60192, Note_on_c, 1, 79, 127
1, 60192, Note_on_c, 1, 58, 127
1, 60284, Note_off_c, 1, 79, 0
1, 60284, Note_off_c, 1, 58, 0
1, 60288, Note_on_c, 1, 69, 127
1, 60288, Note_on_c, 1, 60, 127
1, 60380, Note_off_c, 1, 69, 0
1, 60384, Note_on_c, 1, 79, 127
1, 60476, Note_off_c, 1, 60, 0
1, 60476, Note_off_c, 1, 79, 0
1, 60480, Note_on_c, 1, 72, 127
1, 60480, Note_on_c, 1, 63, 127
1, 60572, Note_off_c, 1, 72, 0
1, 60576, Note_on_c, 1, 79, 127
1, 60668, Note_off_c, 1, 63, 0
1, 60668, Note_off_c, 1, 79, 0
1, 60672, Note_on_c, 1, 69, 127
1, 60672, Note_on_c, 1, 60, 127
1, 60764, Note_off_c, 1, 69, 0
1, 60768, Note_on_c, 1, 79, 127
1, 60860, Note_off_c, 1, 60, 0
1, 60860, Note_off_c, 1, 79, 0
1, 60864, Note_on_c, 1, 69, 127
1, 60864, Note_on_c, 1, 57, 127
1, 60956, Note_off_c, 1, 69, 0
1, 60960, Note_on_c, 1, 79, 127
1, 61052, Note_off_c, 1, 57, 0
1, 61052, Note_off_c, 1, 79, 0
1, 61056, Note_on_c, 1, 69, 127
1, 61056, Note_on_c, 1, 50, 127
1, 61148, Note_off_c, 1, 69, 0
1, 61152, Note_on_c, 1, 78, 127
1, 61244, Note_off_c, 1, 50, 0
1, 61244, Note_off_c, 1, 78, 0
1, 61248, Note_on_c, 1, 72, 127
1, 61248, Note_on_c, 1, 38, 127
1, 61340, Note_off_c, 1, 72, 0
1, 61340, Note_off_c, 1, 38, 0
1, 61344, Note_on_c, 1, 78, 127
1, 61344, Note_on_c, 1, 40, 127
1, 61436, Note_off_c, 1, 78, 0
1, 61436, Note_off_c, 1, 40, 0
1, 61440, Note_on_c, 1, 69, 127
1, 61440, Note_on_c, 1, 42, 127
1, 61532, Note_off_c, 1, 69, 0
1, 61536, Note_on_c, 1, 78, 127
1, 61628, Note_off_c, 1, 42, 0
1, 61628, Note_off_c, 1, 78, 0
1, 61632, Note_on_c, 1, 72, 127
1, 61632, Note_on_c, 1, 45, 127
1, 61724, Note_off_c, 1, 72, 0
1, 61728, Note_on_c, 1, 78, 127
1, 61820, Note_off_c, 1, 45, 0
1, 61820, Note_off_c, 1, 78, 0
1, 61824, Note_on_c, 1, 69, 127
1, 61824, Note_on_c, 1, 42, 127
1, 61916, Note_off_c, 1, 69, 0
1, 61920, Note_on_c, 1, 78, 127
1, 62012, Note_off_c, 1, 42, 0
1, 62012, Note_off_c, 1, 78, 0
1, 62016, Note_on_c, 1, 69, 127
1, 62016, Note_on_c, 1, 38, 127
1, 62108, Note_off_c, 1, 69, 0
1, 62112, Note_on_c, 1, 78, 127
1, 62204, Note_off_c, 1, 38, 0
1, 62204, Note_off_c, 1, 78, 0
1, 62208, Note_on_c, 1, 55, 127
1, 62208, Note_on_c, 1, 43, 127
1, 62396, Note_off_c, 1, 55, 0
1, 62400, Note_on_c, 1, 67, 127
1, 62492, Note_off_c, 1, 67, 0
1, 62496, Note_on_c, 1, 69, 127
1, 62588, Note_off_c, 1, 43, 0
1, 62588, Note_off_c, 1, 69, 0
1, 62592, Note_on_c, 1, 70, 127
1, 62780, Note_off_c, 1, 70, 0
1, 62784, Note_on_c, 1, 74, 127
1, 62784, Note_on_c, 1, 70, 127
1, 62784, Note_on_c, 1, 67, 127
1, 62784, Note_on_c, 1, 43, 127
1, 62876, Note_off_c, 1, 43, 0
1, 62880, Note_on_c, 1, 45, 127
1, 62972, Note_off_c, 1, 74, 0
1, 62972, Note_off_c, 1, 70, 0
1, 62972, Note_off_c, 1, 67, 0
1, 62972, Note_off_c, 1, 45, 0
1, 62976, Note_on_c, 1, 70, 127
1, 62976, Note_on_c, 1, 67, 127
1, 62976, Note_on_c, 1, 62, 127
1, 62976, Note_on_c, 1, 46, 127
1, 63164, Note_off_c, 1, 70, 0
1, 63164, Note_off_c, 1, 67, 0
1, 63164, Note_off_c, 1, 62, 0
1, 63164, Note_off_c, 1, 46, 0
1, 63168, Note_on_c, 1, 67, 127
1, 63168, Note_on_c, 1, 62, 127
1, 63168, Note_on_c, 1, 58, 127
1, 63168, Note_on_c, 1, 50, 127
1, 63356, Note_off_c, 1, 67, 0
1, 63356, Note_off_c, 1, 62, 0
1, 63356, Note_off_c, 1, 58, 0
1, 63356, Note_off_c, 1, 50, 0
1, 63360, Note_on_c, 1, 55, 127
1, 63552, Note_on_c, 1, 67, 127
1, 63644, Note_off_c, 1, 67, 0
1, 63648, Note_on_c, 1, 69, 127
1, 63740, Note_off_c, 1, 55, 0
1, 63740, Note_off_c, 1, 69, 0
1, 63744, Note_on_c, 1, 70, 127
1, 63744, Note_on_c, 1, 43, 127
1, 63932, Note_off_c, 1, 70, 0
1, 63936, Note_on_c, 1, 74, 127
1, 64124, Note_off_c, 1, 43, 0
1, 64124, Note_off_c, 1, 74, 0
1, 64128, Note_on_c, 1, 70, 127
1, 64316, Note_off_c, 1, 70, 0
1, 64320, Note_on_c, 1, 67, 127
1, 64508, Note_off_c, 1, 67, 0
1, 64512, Note_on_c, 1, 57, 127
1, 64700, Note_off_c, 1, 57, 0
1, 64704, Note_on_c, 1, 69, 127
1, 64796, Note_off_c, 1, 69, 0
1, 64800, Note_on_c, 1, 70, 127
1, 64892, Note_off_c, 1, 70, 0
1, 64896, Note_on_c, 1, 72, 127
1, 65084, Note_off_c, 1, 72, 0
1, 65088, Note_on_c, 1, 77, 127
1, 65088, Note_on_c, 1, 72, 127
1, 65088, Note_on_c, 1, 69, 127
1, 65088, Note_on_c, 1, 45, 127
1, 65180, Note_off_c, 1, 45, 0
1, 65184, Note_on_c, 1, 46, 127
1, 65276, Note_off_c, 1, 77, 0
1, 65276, Note_off_c, 1, 72, 0
1, 65276, Note_off_c, 1, 69, 0
1, 65276, Note_off_c, 1, 46, 0
1, 65280, Note_on_c, 1, 72, 127
1, 65280, Note_on_c, 1, 69, 127
1, 65280, Note_on_c, 1, 65, 127
1, 65280, Note_on_c, 1, 48, 127
1, 65468, Note_off_c, 1, 72, 0
1, 65468, Note_off_c, 1, 69, 0
1, 65468, Note_off_c, 1, 65, 0
1, 65468, Note_off_c, 1, 48, 0
1, 65472, Note_on_c, 1, 69, 127
1, 65472, Note_on_c, 1, 65, 127
1, 65472, Note_on_c, 1, 60, 127
1, 65472, Note_on_c, 1, 53, 127
1, 65660, Note_off_c, 1, 69, 0
1, 65660, Note_off_c, 1, 65, 0
1, 65660, Note_off_c, 1, 60, 0
1, 65660, Note_off_c, 1, 53, 0
1, 65664, Note_on_c, 1, 57, 127
1, 65856, Note_on_c, 1, 69, 127
1, 65948, Note_off_c, 1, 69, 0
1, 65952, Note_on_c, 1, 70, 127
1, 66044, Note_off_c, 1, 57, 0
1, 66044, Note_off_c, 1, 70, 0
1, 66048, Note_on_c, 1, 72, 127
1, 66048, Note_on_c, 1, 45, 127
1, 66236, Note_off_c, 1, 72, 0
1, 66240, Note_on_c, 1, 77, 127
1, 66428, Note_off_c, 1, 45, 0
1, 66428, Note_off_c, 1, 77, 0
1, 66432, Note_on_c, 1, 72, 127
1, 66620, Note_off_c, 1, 72, 0
1, 66624, Note_on_c, 1, 69, 127
1, 66812, Note_off_c, 1, 69, 0
1, 66816, Note_on_c, 1, 58, 127
1, 67004, Note_off_c, 1, 58, 0
1, 67008, Note_on_c, 1, 74, 127
1, 67100, Note_off_c, 1, 74, 0
1, 67104, Note_on_c, 1, 75, 127
1, 67196, Note_off_c, 1, 75, 0
1, 67200, Note_on_c, 1, 77, 127
1, 67388, Note_off_c, 1, 77, 0
1, 67392, Note_on_c, 1, 82, 127
1, 67392, Note_on_c, 1, 77, 127
1, 67392, Note_on_c, 1, 74, 127
1, 67392, Note_on_c, 1, 46, 127
1, 67484, Note_off_c, 1, 46, 0
1, 67488, Note_on_c, 1, 48, 127
1, 67580, Note_off_c, 1, 82, 0
1, 67580, Note_off_c, 1, 77, 0
1, 67580, Note_off_c, 1, 74, 0
1, 67580, Note_off_c, 1, 48, 0
1, 67584, Note_on_c, 1, 77, 127
1, 67584, Note_on_c, 1, 74, 127
1, 67584, Note_on_c, 1, 70, 127
1, 67584, Note_on_c, 1, 50, 127
1, 67772, Note_off_c, 1, 77, 0
1, 67772, Note_off_c, 1, 74, 0
1, 67772, Note_off_c, 1, 70, 0
1, 67772, Note_off_c, 1, 50, 0
1, 67776, Note_on_c, 1, 74, 127
1, 67776, Note_on_c, 1, 70, 127
1, 67776, Note_on_c, 1, 65, 127
1, 67776, Note_on_c, 1, 53, 127
1, 67964, Note_off_c, 1, 74, 0
1, 67964, Note_off_c, 1, 70, 0
1, 67964, Note_off_c, 1, 65, 0
1, 67964, Note_off_c, 1, 53, 0
1, 67968, Note_on_c, 1, 58, 127
1, 68160, Note_on_c, 1, 74, 127
1, 68252, Note_off_c, 1, 74, 0
1, 68256, Note_on_c, 1, 75, 127
1, 68348, Note_off_c, 1, 58, 0
1, 68348, Note_off_c, 1, 75, 0
1, 68352, Note_on_c, 1, 77, 127
1, 68352, Note_on_c, 1, 46, 127
1, 68540, Note_off_c, 1, 77, 0
1, 68544, Note_on_c, 1, 82, 127
1, 68732, Note_off_c, 1, 46, 0
1, 68732, Note_off_c, 1, 82, 0
1, 68736, Note_on_c, 1, 77, 127
1, 68832, Note_on_c, 1, 50, 127
1, 68924, Note_off_c, 1, 77, 0
1, 68924, Note_off_c, 1, 50, 0
1, 68928, Note_on_c, 1, 74, 127
1, 68928, Note_on_c, 1, 51, 127
1, 69020, Note_off_c, 1, 51, 0
1, 69024, Note_on_c, 1, 53, 127
1, 69116, Note_off_c, 1, 74, 0
1, 69116, Note_off_c, 1, 53, 0
1, 69120, Note_on_c, 1, 55, 127
1, 69120, Note_on_c, 1, 75, 127
1, 69212, Note_off_c, 1, 75, 0
1, 69216, Note_on_c, 1, 77, 127
1, 69308, Note_off_c, 1, 55, 0
1, 69308, Note_off_c, 1, 77, 0
1, 69312, Note_on_c, 1, 79, 127
1, 69312, Note_on_c, 1, 51, 127
1, 69404, Note_off_c, 1, 79, 0
1, 69404, Note_off_c, 1, 51, 0
1, 69408, Note_on_c, 1, 77, 127
1, 69408, Note_on_c, 1, 53, 127
1, 69500, Note_off_c, 1, 77, 0
1, 69500, Note_off_c, 1, 53, 0
1, 69504, Note_on_c, 1, 75, 127
1, 69504, Note_on_c, 1, 55, 127
1, 69596, Note_off_c, 1, 75, 0
1, 69600, Note_on_c, 1, 74, 127
1, 69692, Note_off_c, 1, 55, 0
1, 69692, Note_off_c, 1, 74, 0
1, 69696, Note_on_c, 1, 72, 127
1, 69696, Note_on_c, 1, 58, 127
1, 69788, Note_off_c, 1, 72, 0
1, 69792, Note_on_c, 1, 70, 127
1, 69884, Note_off_c, 1, 58, 0
1, 69884, Note_off_c, 1, 70, 0
1, 69888, Note_on_c, 1, 75, 127
1, 69888, Note_on_c, 1, 55, 127
1, 69980, Note_off_c, 1, 75, 0
1, 69984, Note_on_c, 1, 74, 127
1, 70076, Note_off_c, 1, 55, 0
1, 70076, Note_off_c, 1, 74, 0
1, 70080, Note_on_c, 1, 72, 127
1, 70080, Note_on_c, 1, 51, 127
1, 70172, Note_off_c, 1, 72, 0
1, 70176, Note_on_c, 1, 70, 127
1, 70268, Note_off_c, 1, 51, 0
1, 70268, Note_off_c, 1, 70, 0
1, 70272, Note_on_c, 1, 72, 127
1, 70364, Note_off_c, 1, 72, 0
1, 70368, Note_on_c, 1, 74, 127
1, 70460, Note_off_c, 1, 74, 0
1, 70464, Note_on_c, 1, 75, 127
1, 70464, Note_on_c, 1, 48, 127
1, 70556, Note_off_c, 1, 75, 0
1, 70556, Note_off_c, 1, 48, 0
1, 70560, Note_on_c, 1, 74, 127
1, 70560, Note_on_c, 1, 50, 127
1, 70652, Note_off_c, 1, 74, 0
1, 70652, Note_off_c, 1, 50, 0
1, 70656, Note_on_c, 1, 72, 127
1, 70656, Note_on_c, 1, 51, 127
1, 70748, Note_off_c, 1, 72, 0
1, 70752, Note_on_c, 1, 70, 127
1, 70844, Note_off_c, 1, 51, 0
1, 70844, Note_off_c, 1, 70, 0
1, 70848, Note_on_c, 1, 69, 127
1, 70848, Note_on_c, 1, 55, 127
1, 70940, Note_off_c, 1, 69, 0
1, 70944, Note_on_c, 1, 67, 127
1, 71036, Note_off_c, 1, 55, 0
1, 71036, Note_off_c, 1, 67, 0
1, 71040, Note_on_c, 1, 72, 127
1, 71040, Note_on_c, 1, 51, 127
1, 71132, Note_off_c, 1, 72, 0
1, 71136, Note_on_c, 1, 70, 127
1, 71228, Note_off_c, 1, 51, 0
1, 71228, Note_off_c, 1, 70, 0
1, 71232, Note_on_c, 1, 69, 127
1, 71232, Note_on_c, 1, 48, 127
1, 71324, Note_off_c, 1, 69, 0
1, 71328, Note_on_c, 1, 67, 127
1, 71420, Note_off_c, 1, 48, 0
1, 71420, Note_off_c, 1, 67, 0
1, 71424, Note_on_c, 1, 69, 127
1, 71516, Note_off_c, 1, 69, 0
1, 71520, Note_on_c, 1, 70, 127
1, 71612, Note_off_c, 1, 70, 0
1, 71616, Note_on_c, 1, 72, 127
1, 71616, Note_on_c, 1, 53, 127
1, 71708, Note_off_c, 1, 72, 0
1, 71708, Note_off_c, 1, 53, 0
1, 71712, Note_on_c, 1, 70, 127
1, 71712, Note_on_c, 1, 55, 127
1, 71804, Note_off_c, 1, 70, 0
1, 71804, Note_off_c, 1, 55, 0
1, 71808, Note_on_c, 1, 69, 127
1, 71808, Note_on_c, 1, 57, 127
1, 71900, Note_off_c, 1, 69, 0
1, 71904, Note_on_c, 1, 67, 127
1, 71996, Note_off_c, 1, 57, 0
1, 71996, Note_off_c, 1, 67, 0
1, 72000, Note_on_c, 1, 65, 127
1, 72000, Note_on_c, 1, 60, 127
1, 72092, Note_off_c, 1, 65, 0
1, 72096, Note_on_c, 1, 63, 127
1, 72188, Note_off_c, 1, 60, 0
1, 72188, Note_off_c, 1, 63, 0
1, 72192, Note_on_c, 1, 69, 127
1, 72192, Note_on_c, 1, 53, 127
1, 72284, Note_off_c, 1, 69, 0
1, 72288, Note_on_c, 1, 67, 127
1, 72380, Note_off_c, 1, 53, 0
1, 72380, Note_off_c, 1, 67, 0
1, 72384, Note_on_c, 1, 65, 127
1, 72384, Note_on_c, 1, 57, 127
1, 72476, Note_off_c, 1, 65, 0
1, 72480, Note_on_c, 1, 63, 127
1, 72572, Note_off_c, 1, 57, 0
1, 72572, Note_off_c, 1, 63, 0
1, 72576, Note_on_c, 1, 62, 127
1, 72576, Note_on_c, 1, 58, 127
1, 72668, Note_off_c, 1, 62, 0
1, 72672, Note_on_c, 1, 65, 127
1, 72764, Note_off_c, 1, 58, 0
1, 72764, Note_off_c, 1, 65, 0
1, 72768, Note_on_c, 1, 70, 127
1, 72768, Note_on_c, 1, 46, 127
1, 72860, Note_off_c, 1, 70, 0
1, 72864, Note_on_c, 1, 65, 127
1, 72864, Note_on_c, 1, 62, 127
1, 72956, Note_off_c, 1, 46, 0
1, 72956, Note_off_c, 1, 65, 0
1, 72956, Note_off_c, 1, 62, 0
1, 72960, Note_on_c, 1, 70, 127
1, 72960, Note_on_c, 1, 65, 127
1, 72960, Note_on_c, 1, 62, 127
1, 73052, Note_off_c, 1, 70, 0
1, 73052, Note_off_c, 1, 65, 0
1, 73052, Note_off_c, 1, 62, 0
1, 73056, Note_on_c, 1, 70, 127
1, 73056, Note_on_c, 1, 65, 127
1, 73056, Note_on_c, 1, 62, 127
1, 73148, Note_off_c, 1, 70, 0
1, 73148, Note_off_c, 1, 65, 0
1, 73148, Note_off_c, 1, 62, 0
1, 73152, Note_on_c, 1, 70, 127
1, 73152, Note_on_c, 1, 65, 127
1, 73152, Note_on_c, 1, 62, 127
1, 73152, Note_on_c, 1, 58, 127
1, 73244, Note_off_c, 1, 70, 0
1, 73244, Note_off_c, 1, 65, 0
1, 73244, Note_off_c, 1, 62, 0
1, 73340, Note_off_c, 1, 58, 0
1, 73344, Note_on_c, 1, 62, 127
1, 73344, Note_on_c, 1, 53, 127
1, 73436, Note_off_c, 1, 62, 0
1, 73440, Note_on_c, 1, 70, 127
1, 73532, Note_off_c, 1, 53, 0
1, 73532, Note_off_c, 1, 70, 0
1, 73536, Note_on_c, 1, 62, 127
1, 73536, Note_on_c, 1, 58, 127
1, 73628, Note_off_c, 1, 62, 0
1, 73632, Note_on_c, 1, 70, 127
1, 73724, Note_off_c, 1, 58, 0
1, 73724, Note_off_c, 1, 70, 0
1, 73728, Note_on_c, 1, 63, 127
1, 73728, Note_on_c, 1, 55, 127
1, 73820, Note_off_c, 1, 63, 0
1, 73824, Note_on_c, 1, 67, 127
1, 73916, Note_off_c, 1, 55, 0
1, 73916, Note_off_c, 1, 67, 0
1, 73920, Note_on_c, 1, 70, 127
1, 73920, Note_on_c, 1, 51, 127
1, 74012, Note_off_c, 1, 70, 0
1, 74016, Note_on_c, 1, 67, 127
1, 74016, Note_on_c, 1, 63, 127
1, 74108, Note_off_c, 1, 51, 0
1, 74108, Note_off_c, 1, 67, 0
1, 74108, Note_off_c, 1, 63, 0
1, 74112, Note_on_c, 1, 70, 127
1, 74112, Note_on_c, 1, 67, 127
1, 74112, Note_on_c, 1, 63, 127
1, 74204, Note_off_c, 1, 70, 0
1, 74204, Note_off_c, 1, 67, 0
1, 74204, Note_off_c, 1, 63, 0
1, 74208, Note_on_c, 1, 70, 127
1, 74208, Note_on_c, 1, 67, 127
1, 74208, Note_on_c, 1, 63, 127
1, 74300, Note_off_c, 1, 70, 0
1, 74300, Note_off_c, 1, 67, 0
1, 74300, Note_off_c, 1, 63, 0
1, 74304, Note_on_c, 1, 70, 127
1, 74304, Note_on_c, 1, 67, 127
1, 74304, Note_on_c, 1, 63, 127
1, 74304, Note_on_c, 1, 55, 127
1, 74396, Note_off_c, 1, 70, 0
1, 74396, Note_off_c, 1, 67, 0
1, 74396, Note_off_c, 1, 63, 0
1, 74492, Note_off_c, 1, 55, 0
1, 74496, Note_on_c, 1, 67, 127
1, 74496, Note_on_c, 1, 51, 127
1, 74588, Note_off_c, 1, 67, 0
1, 74592, Note_on_c, 1, 70, 127
1, 74684, Note_off_c, 1, 51, 0
1, 74684, Note_off_c, 1, 70, 0
1, 74688, Note_on_c, 1, 67, 127
1, 74688, Note_on_c, 1, 55, 127
1, 74780, Note_off_c, 1, 67, 0
1, 74784, Note_on_c, 1, 70, 127
1, 74876, Note_off_c, 1, 55, 0
1, 74876, Note_off_c, 1, 70, 0
1, 74880, Note_on_c, 1, 62, 127
1, 74880, Note_on_c, 1, 58, 127
1, 74972, Note_off_c, 1, 62, 0
1, 74976, Note_on_c, 1, 65, 127
1, 75068, Note_off_c, 1, 58, 0
1, 75068, Note_off_c, 1, 65, 0
1, 75072, Note_on_c, 1, 70, 127
1, 75072, Note_on_c, 1, 46, 127
1, 75164, Note_off_c, 1, 70, 0
1, 75168, Note_on_c, 1, 65, 127
1, 75168, Note_on_c, 1, 62, 127
1, 75260, Note_off_c, 1, 46, 0
1, 75260, Note_off_c, 1, 65, 0
1, 75260, Note_off_c, 1, 62, 0
1, 75264, Note_on_c, 1, 70, 127
1, 75264, Note_on_c, 1, 65, 127
1, 75264, Note_on_c, 1, 62, 127
1, 75356, Note_off_c, 1, 70, 0
1, 75356, Note_off_c, 1, 65, 0
1, 75356, Note_off_c, 1, 62, 0
1, 75360, Note_on_c, 1, 70, 127
1, 75360, Note_on_c, 1, 65, 127
1, 75360, Note_on_c, 1, 62, 127
1, 75452, Note_off_c, 1, 70, 0
1, 75452, Note_off_c, 1, 65, 0
1, 75452, Note_off_c, 1, 62, 0
1, 75456, Note_on_c, 1, 70, 127
1, 75456, Note_on_c, 1, 65, 127
1, 75456, Note_on_c, 1, 62, 127
1, 75456, Note_on_c, 1, 50, 127
1, 75548, Note_off_c, 1, 70, 0
1, 75548, Note_off_c, 1, 65, 0
1, 75548, Note_off_c, 1, 62, 0
1, 75644, Note_off_c, 1, 50, 0
1, 75648, Note_on_c, 1, 62, 127
1, 75648, Note_on_c, 1, 46, 127
1, 75740, Note_off_c, 1, 62, 0
1, 75744, Note_on_c, 1, 70, 127
1, 75836, Note_off_c, 1, 46, 0
1, 75836, Note_off_c, 1, 70, 0
1, 75840, Note_on_c, 1, 62, 127
1, 75840, Note_on_c, 1, 50, 127
1, 75932, Note_off_c, 1, 62, 0
1, 75936, Note_on_c, 1, 70, 127
1, 76028, Note_off_c, 1, 50, 0
1, 76028, Note_off_c, 1, 70, 0
1, 76032, Note_on_c, 1, 60, 127
1, 76032, Note_on_c, 1, 51, 127
1, 76124, Note_off_c, 1, 60, 0
1, 76128, Note_on_c, 1, 63, 127
1, 76220, Note_off_c, 1, 51, 0
1, 76220, Note_off_c, 1, 63, 0
1, 76224, Note_on_c, 1, 70, 127
1, 76224, Note_on_c, 1, 39, 127
1, 76316, Note_off_c, 1, 70, 0
1, 76320, Note_on_c, 1, 63, 127
1, 76320, Note_on_c, 1, 60, 127
1, 76412, Note_off_c, 1, 39, 0
1, 76412, Note_off_c, 1, 63, 0
1, 76412, Note_off_c, 1, 60, 0
1, 76416, Note_on_c, 1, 70, 127
1, 76416, Note_on_c, 1, 63, 127
1, 76416, Note_on_c, 1, 60, 127
1, 76508, Note_off_c, 1, 70, 0
1, 76508, Note_off_c, 1, 63, 0
1, 76508, Note_off_c, 1, 60, 0
1, 76512, Note_on_c, 1, 70, 127
1, 76512, Note_on_c, 1, 63, 127
1, 76512, Note_on_c, 1, 60, 127
1, 76604, Note_off_c, 1, 70, 0
1, 76604, Note_off_c, 1, 63, 0
1, 76604, Note_off_c, 1, 60, 0
1, 76608, Note_on_c, 1, 70, 127
1, 76608, Note_on_c, 1, 63, 127
1, 76608, Note_on_c, 1, 60, 127
1, 76608, Note_on_c, 1, 51, 127
1, 76700, Note_off_c, 1, 70, 0
1, 76700, Note_off_c, 1, 63, 0
1, 76700, Note_off_c, 1, 60, 0
1, 76796, Note_off_c, 1, 51, 0
1, 76800, Note_on_c, 1, 63, 127
1, 76800, Note_on_c, 1, 48, 127
1, 76892, Note_off_c, 1, 63, 0
1, 76896, Note_on_c, 1, 70, 127
1, 76988, Note_off_c, 1, 48, 0
1, 76988, Note_off_c, 1, 70, 0
1, 76992, Note_on_c, 1, 63, 127
1, 76992, Note_on_c, 1, 51, 127
1, 77084, Note_off_c, 1, 63, 0
1, 77088, Note_on_c, 1, 70, 127
1, 77180, Note_off_c, 1, 51, 0
1, 77180, Note_off_c, 1, 70, 0
1, 77184, Note_on_c, 1, 60, 127
1, 77184, Note_on_c, 1, 53, 127
1, 77276, Note_off_c, 1, 60, 0
1, 77280, Note_on_c, 1, 63, 127
1, 77372, Note_off_c, 1, 53, 0
1, 77372, Note_off_c, 1, 63, 0
1, 77376, Note_on_c, 1, 69, 127
1, 77376, Note_on_c, 1, 41, 127
1, 77468, Note_off_c, 1, 69, 0
1, 77472, Note_on_c, 1, 63, 127
1, 77472, Note_on_c, 1, 60, 127
1, 77564, Note_off_c, 1, 41, 0
1, 77564, Note_off_c, 1, 63, 0
1, 77564, Note_off_c, 1, 60, 0
1, 77568, Note_on_c, 1, 69, 127
1, 77568, Note_on_c, 1, 63, 127
1, 77568, Note_on_c, 1, 60, 127
1, 77660, Note_off_c, 1, 69, 0
1, 77660, Note_off_c, 1, 63, 0
1, 77660, Note_off_c, 1, 60, 0
1, 77664, Note_on_c, 1, 69, 127
1, 77664, Note_on_c, 1, 63, 127
1, 77664, Note_on_c, 1, 60, 127
1, 77756, Note_off_c, 1, 69, 0
1, 77756, Note_off_c, 1, 63, 0
1, 77756, Note_off_c, 1, 60, 0
1, 77760, Note_on_c, 1, 69, 127
1, 77760, Note_on_c, 1, 63, 127
1, 77760, Note_on_c, 1, 60, 127
1, 77760, Note_on_c, 1, 53, 127
1, 77852, Note_off_c, 1, 69, 0
1, 77852, Note_off_c, 1, 63, 0
1, 77852, Note_off_c, 1, 60, 0
1, 77948, Note_off_c, 1, 53, 0
1, 77952, Note_on_c, 1, 63, 127
1, 77952, Note_on_c, 1, 41, 127
1, 78044, Note_off_c, 1, 63, 0
1, 78048, Note_on_c, 1, 69, 127
1, 78140, Note_off_c, 1, 41, 0
1, 78140, Note_off_c, 1, 69, 0
1, 78144, Note_on_c, 1, 63, 127
1, 78144, Note_on_c, 1, 53, 127
1, 78236, Note_off_c, 1, 63, 0
1, 78240, Note_on_c, 1, 69, 127
1, 78332, Note_off_c, 1, 53, 0
1, 78332, Note_off_c, 1, 69, 0
1, 78336, Note_on_c, 1, 58, 127
1, 78336, Note_on_c, 1, 46, 127
1, 78524, Note_off_c, 1, 58, 0
1, 78528, Note_on_c, 1, 70, 127
1, 78620, Note_off_c, 1, 70, 0
1, 78624, Note_on_c, 1, 72, 127
1, 78716, Note_off_c, 1, 46, 0
1, 78716, Note_off_c, 1, 72, 0
1, 78720, Note_on_c, 1, 74, 127
1, 78908, Note_off_c, 1, 74, 0
1, 78912, Note_on_c, 1, 77, 127
1, 78912, Note_on_c, 1, 74, 127
1, 78912, Note_on_c, 1, 70, 127
1, 78912, Note_on_c, 1, 46, 127
1, 79004, Note_off_c, 1, 46, 0
1, 79008, Note_on_c, 1, 48, 127
1, 79100, Note_off_c, 1, 77, 0
1, 79100, Note_off_c, 1, 74, 0
1, 79100, Note_off_c, 1, 70, 0
1, 79100, Note_off_c, 1, 48, 0
1, 79104, Note_on_c, 1, 74, 127
1, 79104, Note_on_c, 1, 70, 127
1, 79104, Note_on_c, 1, 65, 127
1, 79104, Note_on_c, 1, 50, 127
1, 79292, Note_off_c, 1, 74, 0
1, 79292, Note_off_c, 1, 70, 0
1, 79292, Note_off_c, 1, 65, 0
1, 79292, Note_off_c, 1, 50, 0
1, 79296, Note_on_c, 1, 70, 127
1, 79296, Note_on_c, 1, 65, 127
1, 79296, Note_on_c, 1, 62, 127
1, 79296, Note_on_c, 1, 53, 127
1, 79484, Note_off_c, 1, 70, 0
1, 79484, Note_off_c, 1, 65, 0
1, 79484, Note_off_c, 1, 62, 0
1, 79484, Note_off_c, 1, 53, 0
1, 79488, Note_on_c, 1, 58, 127
1, 79680, Note_on_c, 1, 70, 127
1, 79772, Note_off_c, 1, 70, 0
1, 79776, Note_on_c, 1, 72, 127
1, 79868, Note_off_c, 1, 58, 0
1, 79868, Note_off_c, 1, 72, 0
1, 79872, Note_on_c, 1, 74, 127
1, 79872, Note_on_c, 1, 46, 127
1, 80060, Note_off_c, 1, 74, 0
1, 80064, Note_on_c, 1, 77, 127
1, 80252, Note_off_c, 1, 46, 0
1, 80252, Note_off_c, 1, 77, 0
1, 80256, Note_on_c, 1, 74, 127
1, 80444, Note_off_c, 1, 74, 0
1, 80448, Note_on_c, 1, 70, 127
1, 80636, Note_off_c, 1, 70, 0
1, 80640, Note_on_c, 1, 60, 127
1, 80828, Note_off_c, 1, 60, 0
1, 80832, Note_on_c, 1, 72, 127
1, 80924, Note_off_c, 1, 72, 0
1, 80928, Note_on_c, 1, 74, 127
1, 81020, Note_off_c, 1, 74, 0
1, 81024, Note_on_c, 1, 75, 127
1, 81212, Note_off_c, 1, 75, 0
1, 81216, Note_on_c, 1, 79, 127
1, 81216, Note_on_c, 1, 75, 127
1, 81216, Note_on_c, 1, 72, 127
1, 81216, Note_on_c, 1, 48, 127
1, 81308, Note_off_c, 1, 48, 0
1, 81312, Note_on_c, 1, 50, 127
1, 81404, Note_off_c, 1, 79, 0
1, 81404, Note_off_c, 1, 75, 0
1, 81404, Note_off_c, 1, 72, 0
1, 81404, Note_off_c, 1, 50, 0
1, 81408, Note_on_c, 1, 72, 127
1, 81408, Note_on_c, 1, 75, 127
1, 81408, Note_on_c, 1, 67, 127
1, 81408, Note_on_c, 1, 51, 127
1, 81596, Note_off_c, 1, 72, 0
1, 81596, Note_off_c, 1, 75, 0
1, 81596, Note_off_c, 1, 67, 0
1, 81596, Note_off_c, 1, 51, 0
1, 81600, Note_on_c, 1, 72, 127
1, 81600, Note_on_c, 1, 67, 127
1, 81600, Note_on_c, 1, 63, 127
1, 81600, Note_on_c, 1, 55, 127
1, 81788, Note_off_c, 1, 72, 0
1, 81788, Note_off_c, 1, 67, 0
1, 81788, Note_off_c, 1, 63, 0
1, 81788, Note_off_c, 1, 55, 0
1, 81792, Note_on_c, 1, 60, 127
1, 81984, Note_on_c, 1, 72, 127
1, 82076, Note_off_c, 1, 72, 0
1, 82080, Note_on_c, 1, 74, 127
1, 82172, Note_off_c, 1, 60, 0
1, 82172, Note_off_c, 1, 74, 0
1, 82176, Note_on_c, 1, 75, 127
1, 82176, Note_on_c, 1, 48, 127
1, 82364, Note_off_c, 1, 75, 0
1, 82368, Note_on_c, 1, 79, 127
1, 82556, Note_off_c, 1, 48, 0
1, 82556, Note_off_c, 1, 79, 0
1, 82560, Note_on_c, 1, 75, 127
1, 82748, Note_off_c, 1, 75, 0
1, 82752, Note_on_c, 1, 72, 127
1, 82940, Note_off_c, 1, 72, 0
1, 82944, Note_on_c, 1, 62, 127
1, 83132, Note_off_c, 1, 62, 0
1, 83136, Note_on_c, 1, 74, 127
1, 83228, Note_off_c, 1, 74, 0
1, 83232, Note_on_c, 1, 75, 127
1, 83324, Note_off_c, 1, 75, 0
1, 83328, Note_on_c, 1, 77, 127
1, 83516, Note_off_c, 1, 77, 0
1, 83520, Note_on_c, 1, 82, 127
1, 83520, Note_on_c, 1, 77, 127
1, 83520, Note_on_c, 1, 74, 127
1, 83520, Note_on_c, 1, 50, 127
1, 83612, Note_off_c, 1, 50, 0
1, 83616, Note_on_c, 1, 51, 127
1, 83708, Note_off_c, 1, 82, 0
1, 83708, Note_off_c, 1, 77, 0
1, 83708, Note_off_c, 1, 74, 0
1, 83708, Note_off_c, 1, 51, 0
1, 83712, Note_on_c, 1, 77, 127
1, 83712, Note_on_c, 1, 74, 127
1, 83712, Note_on_c, 1, 70, 127
1, 83712, Note_on_c, 1, 53, 127
1, 83900, Note_off_c, 1, 77, 0
1, 83900, Note_off_c, 1, 74, 0
1, 83900, Note_off_c, 1, 70, 0
1, 83900, Note_off_c, 1, 53, 0
1, 83904, Note_on_c, 1, 74, 127
1, 83904, Note_on_c, 1, 70, 127
1, 83904, Note_on_c, 1, 65, 127
1, 83904, Note_on_c, 1, 58, 127
1, 84092, Note_off_c, 1, 74, 0
1, 84092, Note_off_c, 1, 70, 0
1, 84092, Note_off_c, 1, 65, 0
1, 84092, Note_off_c, 1, 58, 0
1, 84096, Note_on_c, 1, 62, 127
1, 84288, Note_on_c, 1, 74, 127
1, 84380, Note_off_c, 1, 74, 0
1, 84384, Note_on_c, 1, 75, 127
1, 84476, Note_off_c, 1, 62, 0
1, 84476, Note_off_c, 1, 75, 0
1, 84480, Note_on_c, 1, 77, 127
1, 84480, Note_on_c, 1, 50, 127
1, 84668, Note_off_c, 1, 77, 0
1, 84672, Note_on_c, 1, 82, 127
1, 84860, Note_off_c, 1, 50, 0
1, 84860, Note_off_c, 1, 82, 0
1, 84864, Note_on_c, 1, 77, 127
1, 84960, Note_on_c, 1, 58, 127
1, 85052, Note_off_c, 1, 77, 0
1, 85052, Note_off_c, 1, 58, 0
1, 85056, Note_on_c, 1, 74, 127
1, 85056, Note_on_c, 1, 60, 127
1, 85148, Note_off_c, 1, 60, 0
1, 85152, Note_on_c, 1, 62, 127
1, 85244, Note_off_c, 1, 74, 0
1, 85244, Note_off_c, 1, 62, 0
1, 85248, Note_on_c, 1, 79, 127
1, 85248, Note_on_c, 1, 63, 127
1, 85340, Note_off_c, 1, 79, 0
1, 85344, Note_on_c, 1, 77, 127
1, 85436, Note_off_c, 1, 63, 0
1, 85436, Note_off_c, 1, 77, 0
1, 85440, Note_on_c, 1, 75, 127
1, 85440, Note_on_c, 1, 67, 127
1, 85532, Note_off_c, 1, 75, 0
1, 85536, Note_on_c, 1, 74, 127
1, 85628, Note_off_c, 1, 67, 0
1, 85628, Note_off_c, 1, 74, 0
1, 85632, Note_on_c, 1, 75, 127
1, 85632, Note_on_c, 1, 60, 127
1, 85724, Note_off_c, 1, 75, 0
1, 85728, Note_on_c, 1, 74, 127
1, 85820, Note_off_c, 1, 60, 0
1, 85820, Note_off_c, 1, 74, 0
1, 85824, Note_on_c, 1, 72, 127
1, 85824, Note_on_c, 1, 63, 127
1, 85916, Note_off_c, 1, 72, 0
1, 85920, Note_on_c, 1, 70, 127
1, 86012, Note_off_c, 1, 63, 0
1, 86012, Note_off_c, 1, 70, 0
1, 86016, Note_on_c, 1, 72, 127
1, 86016, Note_on_c, 1, 57, 127
1, 86108, Note_off_c, 1, 72, 0
1, 86112, Note_on_c, 1, 70, 127
1, 86204, Note_off_c, 1, 57, 0
1, 86204, Note_off_c, 1, 70, 0
1, 86208, Note_on_c, 1, 69, 127
1, 86208, Note_on_c, 1, 60, 127
1, 86300, Note_off_c, 1, 69, 0
1, 86304, Note_on_c, 1, 67, 127
1, 86396, Note_off_c, 1, 60, 0
1, 86396, Note_off_c, 1, 67, 0
1, 86400, Note_on_c, 1, 69, 127
1, 86400, Note_on_c, 1, 53, 127
1, 86492, Note_off_c, 1, 69, 0
1, 86496, Note_on_c, 1, 65, 127
1, 86588, Note_off_c, 1, 53, 0
1, 86588, Note_off_c, 1, 65, 0
1, 86592, Note_on_c, 1, 50, 127
1, 86592, Note_on_c, 1, 38, 127
1, 86688, Note_on_c, 1, 62, 127
1, 86780, Note_off_c, 1, 50, 0
1, 86780, Note_off_c, 1, 38, 0
1, 86780, Note_off_c, 1, 62, 0
1, 86784, Note_on_c, 1, 51, 127
1, 86784, Note_on_c, 1, 39, 127
1, 86880, Note_on_c, 1, 63, 127
1, 86972, Note_off_c, 1, 51, 0
1, 86972, Note_off_c, 1, 39, 0
1, 86972, Note_off_c, 1, 63, 0
1, 86976, Note_on_c, 1, 53, 127
1, 86976, Note_on_c, 1, 41, 127
1, 87072, Note_on_c, 1, 65, 127
1, 87164, Note_off_c, 1, 53, 0
1, 87164, Note_off_c, 1, 41, 0
1, 87164, Note_off_c, 1, 65, 0
1, 87168, Note_on_c, 1, 55, 127
1, 87168, Note_on_c, 1, 43, 127
1, 87264, Note_on_c, 1, 67, 127
1, 87356, Note_off_c, 1, 55, 0
1, 87356, Note_off_c, 1, 43, 0
1, 87356, Note_off_c, 1, 67, 0
1, 87360, Note_on_c, 1, 57, 127
1, 87360, Note_on_c, 1, 45, 127
1, 87456, Note_on_c, 1, 69, 127
1, 87548, Note_off_c, 1, 57, 0
1, 87548, Note_off_c, 1, 45, 0
1, 87548, Note_off_c, 1, 69, 0
1, 87552, Note_on_c, 1, 46, 127
1, 87552, Note_on_c, 1, 58, 127
1, 87648, Note_on_c, 1, 70, 127
1, 87740, Note_off_c, 1, 46, 0
1, 87740, Note_off_c, 1, 58, 0
1, 87740, Note_off_c, 1, 70, 0
1, 87744, Note_on_c, 1, 50, 127
1, 87744, Note_on_c, 1, 62, 127
1, 87840, Note_on_c, 1, 74, 127
1, 87932, Note_off_c, 1, 50, 0
1, 87932, Note_off_c, 1, 62, 0
1, 87932, Note_off_c, 1, 74, 0
1, 87936, Note_on_c, 1, 51, 127
1, 87936, Note_on_c, 1, 63, 127
1, 88032, Note_on_c, 1, 75, 127
1, 88124, Note_off_c, 1, 51, 0
1, 88124, Note_off_c, 1, 63, 0
1, 88124, Note_off_c, 1, 75, 0
1, 88128, Note_on_c, 1, 53, 127
1, 88128, Note_on_c, 1, 65, 127
1, 88224, Note_on_c, 1, 77, 127
1, 88316, Note_off_c, 1, 53, 0
1, 88316, Note_off_c, 1, 65, 0
1, 88316, Note_off_c, 1, 77, 0
1, 88320, Note_on_c, 1, 55, 127
1, 88320, Note_on_c, 1, 67, 127
1, 88416, Note_on_c, 1, 79, 127
1, 88508, Note_off_c, 1, 55, 0
1, 88508, Note_off_c, 1, 67, 0
1, 88508, Note_off_c, 1, 79, 0
1, 88512, Note_on_c, 1, 57, 127
1, 88512, Note_on_c, 1, 69, 127
1, 88608, Note_on_c, 1, 81, 127
1, 88700, Note_off_c, 1, 57, 0
1, 88700, Note_off_c, 1, 69, 0
1, 88700, Note_off_c, 1, 81, 0
1, 88704, Note_on_c, 1, 70, 127
1, 88704, Note_on_c, 1, 82, 127
1, 88704, Note_on_c, 1, 58, 127
1, 89084, Note_off_c, 1, 70, 0
1, 89084, Note_off_c, 1, 82, 0
1, 89084, Note_off_c, 1, 58, 0
1, 89088, Note_on_c, 1, 62, 127
1, 89088, Note_on_c, 1, 50, 127
1, 89088, Note_on_c, 1, 38, 127
1, 89468, Note_off_c, 1, 62, 0
1, 89468, Note_off_c, 1, 50, 0
1, 89468, Note_off_c, 1, 38, 0
1, 89472, Note_on_c, 1, 65, 127
1, 89472, Note_on_c, 1, 53, 127
1, 89472, Note_on_c, 1, 41, 127
1, 89852, Note_off_c, 1, 65, 0
1, 89852, Note_off_c, 1, 53, 0
1, 89852, Note_off_c, 1, 41, 0
1, 89856, Note_on_c, 1, 58, 127
1, 89856, Note_on_c, 1, 46, 127
1, 89856, Note_on_c, 1, 34, 127
1, 90620, Note_off_c, 1, 58, 0
1, 90620, Note_off_c, 1, 46, 0
1, 90620, Note_off_c, 1, 34, 0
1, 92160, Note_on_c, 1, 70, 127
1, 92160, Note_on_c, 1, 43, 127
1, 92252, Note_off_c, 1, 70, 0
1, 92256, Note_on_c, 1, 67, 127
1, 92348, Note_off_c, 1, 43, 0
1, 92348, Note_off_c, 1, 67, 0
1, 92352, Note_on_c, 1, 75, 127
1, 92352, Note_on_c, 1, 55, 127
1, 92448, Note_on_c, 1, 70, 127
1, 92540, Note_off_c, 1, 75, 0
1, 92540, Note_off_c, 1, 55, 0
1, 92540, Note_off_c, 1, 70, 0
1, 92544, Note_on_c, 1, 68, 127
1, 92544, Note_on_c, 1, 53, 127
1, 92636, Note_off_c, 1, 53, 0
1, 92640, Note_on_c, 1, 75, 127
1, 92640, Note_on_c, 1, 60, 127
1, 92732, Note_off_c, 1, 75, 0
1, 92732, Note_off_c, 1, 60, 0
1, 92736, Note_on_c, 1, 74, 127
1, 92736, Note_on_c, 1, 65, 127
1, 92828, Note_off_c, 1, 74, 0
1, 92828, Note_off_c, 1, 65, 0
1, 92832, Note_on_c, 1, 72, 127
1, 92832, Note_on_c, 1, 63, 127
1, 92924, Note_off_c, 1, 68, 0
1, 92924, Note_off_c, 1, 72, 0
1, 92924, Note_off_c, 1, 63, 0
1, 92928, Note_on_c, 1, 71, 127
1, 92928, Note_on_c, 1, 62, 127
1, 92928, Note_on_c, 1, 53, 127
1, 93020, Note_off_c, 1, 62, 0
1, 93020, Note_off_c, 1, 53, 0
1, 93024, Note_on_c, 1, 68, 127
1, 93116, Note_off_c, 1, 68, 0
1, 93120, Note_on_c, 1, 67, 127
1, 93212, Note_off_c, 1, 67, 0
1, 93216, Note_on_c, 1, 65, 127
1, 93308, Note_off_c, 1, 71, 0
1, 93308, Note_off_c, 1, 65, 0
1, 93312, Note_on_c, 1, 67, 127
1, 93312, Note_on_c, 1, 55, 127
1, 93312, Note_on_c, 1, 53, 127
1, 93404, Note_off_c, 1, 67, 0
1, 93404, Note_off_c, 1, 55, 0
1, 93404, Note_off_c, 1, 53, 0
1, 93408, Note_on_c, 1, 65, 127
1, 93408, Note_on_c, 1, 74, 127
1, 93500, Note_off_c, 1, 65, 0
1, 93500, Note_off_c, 1, 74, 0
1, 93504, Note_on_c, 1, 63, 127
1, 93504, Note_on_c, 1, 72, 127
1, 93504, Note_on_c, 1, 55, 127
1, 93504, Note_on_c, 1, 53, 127
1, 93596, Note_off_c, 1, 63, 0
1, 93596, Note_off_c, 1, 72, 0
1, 93596, Note_off_c, 1, 55, 0
1, 93596, Note_off_c, 1, 53, 0
1, 93600, Note_on_c, 1, 62, 127
1, 93600, Note_on_c, 1, 71, 127
1, 93692, Note_off_c, 1, 62, 0
1, 93692, Note_off_c, 1, 71, 0
1, 93696, Note_on_c, 1, 72, 127
1, 93696, Note_on_c, 1, 60, 127
1, 93696, Note_on_c, 1, 51, 127
1, 93696, Note_on_c, 1, 55, 127
1, 93788, Note_off_c, 1, 72, 0
1, 93792, Note_on_c, 1, 67, 127
1, 93884, Note_off_c, 1, 51, 0
1, 93884, Note_off_c, 1, 55, 0
1, 93884, Note_off_c, 1, 67, 0
1, 93888, Note_on_c, 1, 65, 127
1, 93888, Note_on_c, 1, 53, 127
1, 93980, Note_off_c, 1, 65, 0
1, 93984, Note_on_c, 1, 63, 127
1, 94076, Note_off_c, 1, 53, 0
1, 94076, Note_off_c, 1, 63, 0
1, 94080, Note_on_c, 1, 62, 127
1, 94172, Note_off_c, 1, 62, 0
1, 94268, Note_off_c, 1, 60, 0
1, 94272, Note_on_c, 1, 59, 127
1, 94272, Note_on_c, 1, 43, 127
1, 94460, Note_off_c, 1, 59, 0
1, 94460, Note_off_c, 1, 43, 0
1, 94464, Note_on_c, 1, 48, 127
1, 94604, Note_off_c, 1, 48, 0
1, 94656, Note_on_c, 1, 57, 127
1, 94748, Note_off_c, 1, 57, 0
1, 94752, Note_on_c, 1, 75, 127
1, 94752, Note_on_c, 1, 58, 127
1, 94844, Note_off_c, 1, 75, 0
1, 94844, Note_off_c, 1, 58, 0
1, 94848, Note_on_c, 1, 67, 127
1, 94848, Note_on_c, 1, 48, 127
1, 94848, Note_on_c, 1, 57, 127
1, 94940, Note_off_c, 1, 67, 0
1, 94944, Note_on_c, 1, 66, 127
1, 94988, Note_off_c, 1, 48, 0
1, 95036, Note_off_c, 1, 57, 0
1, 95036, Note_off_c, 1, 66, 0
1, 95040, Note_on_c, 1, 63, 127
1, 95040, Note_on_c, 1, 55, 127
1, 95040, Note_on_c, 1, 48, 127
1, 95132, Note_off_c, 1, 63, 0
1, 95132, Note_off_c, 1, 55, 0
1, 95136, Note_on_c, 1, 62, 127
1, 95136, Note_on_c, 1, 54, 127
1, 95180, Note_off_c, 1, 48, 0
1, 95228, Note_off_c, 1, 54, 0
1, 95232, Note_on_c, 1, 67, 127
1, 95232, Note_on_c, 1, 46, 127
1, 95420, Note_off_c, 1, 62, 0
1, 95420, Note_off_c, 1, 46, 0
1, 95516, Note_off_c, 1, 67, 0
1, 95520, Note_on_c, 1, 69, 127
1, 95612, Note_off_c, 1, 69, 0
1, 95616, Note_on_c, 1, 66, 127
1, 95616, Note_on_c, 1, 60, 127
1, 95616, Note_on_c, 1, 50, 127
1, 95628, Note_on_c, 1, 70, 127
1, 95700, Note_on_c, 1, 69, 127
1, 95712, Note_off_c, 1, 70, 0
1, 95740, Note_off_c, 1, 69, 0
1, 95808, Note_on_c, 1, 38, 127
1, 95920, Note_on_c, 1, 67, 127
1, 95976, Note_off_c, 1, 67, 0
1, 95996, Note_off_c, 1, 66, 0
1, 95996, Note_off_c, 1, 60, 0
1, 95996, Note_off_c, 1, 50, 0
1, 95996, Note_off_c, 1, 38, 0
1, 96000, Note_on_c, 1, 58, 127
1, 96000, Note_on_c, 1, 62, 127
1, 96000, Note_on_c, 1, 43, 127
1, 96012, Note_on_c, 1, 67, 127
1, 96188, Note_off_c, 1, 58, 0
1, 96188, Note_off_c, 1, 62, 0
1, 96192, Note_on_c, 1, 50, 127
1, 96200, Note_off_c, 1, 67, 0
1, 96380, Note_off_c, 1, 50, 0
1, 96384, Note_on_c, 1, 55, 127
1, 96576, Note_on_c, 1, 74, 127
1, 96704, Note_off_c, 1, 74, 0
1, 96764, Note_off_c, 1, 43, 0
1, 96764, Note_off_c, 1, 55, 0
1, 96768, Note_on_c, 1, 79, 127
1, 96896, Note_off_c, 1, 79, 0
1, 96960, Note_on_c, 1, 79, 127
1, 97088, Note_off_c, 1, 79, 0
1, 97152, Note_on_c, 1, 79, 127
1, 97340, Note_off_c, 1, 79, 0
1, 97344, Note_on_c, 1, 81, 127
1, 97344, Note_on_c, 1, 43, 127
1, 97344, Note_on_c, 1, 55, 127
1, 97372, Note_off_c, 1, 81, 0
1, 97376, Note_on_c, 1, 79, 127
1, 97404, Note_off_c, 1, 79, 0
1, 97484, Note_on_c, 1, 82, 127
1, 97532, Note_off_c, 1, 43, 0
1, 97532, Note_off_c, 1, 55, 0
1, 97536, Note_on_c, 1, 78, 127
1, 97536, Note_on_c, 1, 57, 127
1, 97536, Note_on_c, 1, 50, 127
1, 97552, Note_off_c, 1, 82, 0
1, 97628, Note_off_c, 1, 78, 0
1, 97628, Note_off_c, 1, 57, 0
1, 97632, Note_on_c, 1, 76, 127
1, 97676, Note_off_c, 1, 50, 0
1, 97724, Note_off_c, 1, 76, 0
1, 97728, Note_on_c, 1, 74, 127
1, 97728, Note_on_c, 1, 54, 127
1, 97728, Note_on_c, 1, 50, 127
1, 97820, Note_off_c, 1, 54, 0
1, 97824, Note_on_c, 1, 52, 127
1, 97868, Note_off_c, 1, 50, 0
1, 97916, Note_off_c, 1, 74, 0
1, 97916, Note_off_c, 1, 52, 0
1, 97920, Note_on_c, 1, 50, 127
1, 97920, Note_on_c, 1, 54, 127
1, 98108, Note_off_c, 1, 50, 0
1, 98112, Note_on_c, 1, 81, 127
1, 98112, Note_on_c, 1, 48, 127
1, 98204, Note_off_c, 1, 54, 0
1, 98204, Note_off_c, 1, 81, 0
1, 98204, Note_off_c, 1, 48, 0
1, 98208, Note_on_c, 1, 84, 127
1, 98208, Note_on_c, 1, 55, 127
1, 98208, Note_on_c, 1, 46, 127
1, 98252, Note_off_c, 1, 84, 0
1, 98256, Note_on_c, 1, 82, 127
1, 98300, Note_off_c, 1, 55, 0
1, 98300, Note_off_c, 1, 46, 0
1, 98300, Note_off_c, 1, 82, 0
1, 98304, Note_on_c, 1, 84, 127
1, 98304, Note_on_c, 1, 57, 127
1, 98304, Note_on_c, 1, 45, 127
1, 98432, Note_off_c, 1, 57, 0
1, 98492, Note_off_c, 1, 84, 0
1, 98492, Note_off_c, 1, 45, 0
1, 98496, Note_on_c, 1, 57, 127
1, 98544, Note_on_c, 1, 82, 127
1, 98588, Note_off_c, 1, 82, 0
1, 98592, Note_on_c, 1, 81, 127
1, 98592, Note_on_c, 1, 55, 127
1, 98624, Note_off_c, 1, 57, 0
1, 98636, Note_off_c, 1, 81, 0
1, 98656, Note_off_c, 1, 55, 0
1, 98664, Note_on_c, 1, 84, 127
1, 98684, Note_off_c, 1, 84, 0
1, 98688, Note_on_c, 1, 74, 127
1, 98688, Note_on_c, 1, 57, 127
1, 98688, Note_on_c, 1, 54, 127
1, 98732, Note_off_c, 1, 74, 0
1, 98736, Note_on_c, 1, 78, 127
1, 98780, Note_off_c, 1, 78, 0
1, 98784, Note_on_c, 1, 81, 127
1, 98828, Note_off_c, 1, 81, 0
1, 98832, Note_on_c, 1, 84, 127
1, 98876, Note_off_c, 1, 57, 0
1, 98876, Note_off_c, 1, 54, 0
1, 98876, Note_off_c, 1, 84, 0
1, 98880, Note_on_c, 1, 82, 127
1, 98880, Note_on_c, 1, 54, 127
1, 98880, Note_on_c, 1, 50, 127
1, 98972, Note_off_c, 1, 82, 0
1, 98976, Note_on_c, 1, 84, 127
1, 99020, Note_off_c, 1, 84, 0
1, 99024, Note_on_c, 1, 81, 127
1, 99068, Note_off_c, 1, 54, 0
1, 99068, Note_off_c, 1, 50, 0
1, 99068, Note_off_c, 1, 81, 0
1, 99072, Note_on_c, 1, 82, 127
1, 99072, Note_on_c, 1, 55, 127
1, 99164, Note_off_c, 1, 82, 0
1, 99168, Note_on_c, 1, 81, 127
1, 99200, Note_off_c, 1, 55, 0
1, 99260, Note_off_c, 1, 81, 0
1, 99264, Note_on_c, 1, 79, 127
1, 99264, Note_on_c, 1, 55, 127
1, 99360, Note_on_c, 1, 57, 127
1, 99392, Note_off_c, 1, 55, 0
1, 99452, Note_off_c, 1, 79, 0
1, 99452, Note_off_c, 1, 57, 0
1, 99456, Note_on_c, 1, 58, 127
1, 99456, Note_on_c, 1, 55, 127
1, 99548, Note_off_c, 1, 58, 0
1, 99552, Note_on_c, 1, 62, 127
1, 99584, Note_off_c, 1, 55, 0
1, 99644, Note_off_c, 1, 62, 0
1, 99648, Note_on_c, 1, 74, 127
1, 99648, Note_on_c, 1, 57, 127
1, 99648, Note_on_c, 1, 67, 127
1, 99676, Note_off_c, 1, 74, 0
1, 99680, Note_on_c, 1, 75, 127
1, 99704, Note_off_c, 1, 75, 0
1, 99712, Note_off_c, 1, 57, 0
1, 99744, Note_on_c, 1, 72, 127
1, 99744, Note_on_c, 1, 58, 127
1, 99788, Note_off_c, 1, 72, 0
1, 99808, Note_off_c, 1, 58, 0
1, 99836, Note_off_c, 1, 67, 0
1, 99840, Note_on_c, 1, 75, 127
1, 99840, Note_on_c, 1, 67, 127
1, 99840, Note_on_c, 1, 60, 127
1, 99932, Note_off_c, 1, 75, 0
1, 99936, Note_on_c, 1, 72, 127
1, 99968, Note_off_c, 1, 60, 0
1, 100028, Note_off_c, 1, 67, 0
1, 100028, Note_off_c, 1, 72, 0
1, 100032, Note_on_c, 1, 69, 127
1, 100032, Note_on_c, 1, 60, 127
1, 100128, Note_on_c, 1, 66, 127
1, 100160, Note_off_c, 1, 60, 0
1, 100220, Note_off_c, 1, 69, 0
1, 100220, Note_off_c, 1, 66, 0
1, 100224, Note_on_c, 1, 75, 127
1, 100224, Note_on_c, 1, 70, 127
1, 100224, Note_on_c, 1, 60, 127
1, 100316, Note_off_c, 1, 75, 0
1, 100320, Note_on_c, 1, 72, 127
1, 100352, Note_off_c, 1, 60, 0
1, 100412, Note_off_c, 1, 70, 0
1, 100412, Note_off_c, 1, 72, 0
1, 100416, Note_on_c, 1, 69, 127
1, 100416, Note_on_c, 1, 72, 127
1, 100416, Note_on_c, 1, 60, 127
1, 100508, Note_off_c, 1, 69, 0
1, 100512, Note_on_c, 1, 66, 127
1, 100544, Note_off_c, 1, 60, 0
1, 100604, Note_off_c, 1, 72, 0
1, 100604, Note_off_c, 1, 66, 0
1, 100608, Note_on_c, 1, 60, 127
1, 100608, Note_on_c, 1, 62, 127
1, 100612, Note_on_c, 1, 79, 127
1, 100696, Note_on_c, 1, 78, 127
1, 100708, Note_off_c, 1, 79, 0
1, 100728, Note_off_c, 1, 78, 0
1, 100796, Note_off_c, 1, 60, 0
1, 100800, Note_on_c, 1, 58, 127
1, 100892, Note_off_c, 1, 58, 0
1, 100896, Note_on_c, 1, 57, 127
1, 100988, Note_off_c, 1, 57, 0
1, 101088, Note_on_c, 1, 74, 127
1, 101180, Note_off_c, 1, 62, 0
1, 101180, Note_off_c, 1, 74, 0
1, 101184, Note_on_c, 1, 76, 127
1, 101184, Note_on_c, 1, 57, 127
1, 101184, Note_on_c, 1, 60, 127
1, 101276, Note_off_c, 1, 76, 0
1, 101280, Note_on_c, 1, 79, 127
1, 101324, Note_off_c, 1, 79, 0
1, 101328, Note_on_c, 1, 78, 127
1, 101372, Note_off_c, 1, 57, 0
1, 101372, Note_off_c, 1, 60, 0
1, 101372, Note_off_c, 1, 78, 0
1, 101376, Note_on_c, 1, 79, 127
1, 101376, Note_on_c, 1, 58, 127
1, 101376, Note_on_c, 1, 55, 127
1, 101440, Note_off_c, 1, 79, 0
1, 101472, Note_on_c, 1, 70, 127
1, 101536, Note_off_c, 1, 70, 0
1, 101564, Note_off_c, 1, 58, 0
1, 101564, Note_off_c, 1, 55, 0
1, 101568, Note_on_c, 1, 72, 127
1, 101568, Note_on_c, 1, 51, 127
1, 101568, Note_on_c, 1, 55, 127
1, 101632, Note_off_c, 1, 72, 0
1, 101664, Note_on_c, 1, 74, 127
1, 101728, Note_off_c, 1, 74, 0
1, 101756, Note_off_c, 1, 51, 0
1, 101760, Note_on_c, 1, 48, 127
1, 101772, Note_on_c, 1, 70, 127
1, 101844, Note_on_c, 1, 69, 127
1, 101856, Note_off_c, 1, 70, 0
1, 101884, Note_off_c, 1, 69, 0
1, 101948, Note_off_c, 1, 55, 0
1, 101948, Note_off_c, 1, 48, 0
1, 101952, Note_on_c, 1, 54, 127
1, 101952, Note_on_c, 1, 50, 127
1, 102064, Note_on_c, 1, 67, 127
1, 102136, Note_off_c, 1, 67, 0
1, 102140, Note_off_c, 1, 54, 0
1, 102140, Note_off_c, 1, 50, 0
1, 102144, Note_on_c, 1, 67, 127
1, 102144, Note_on_c, 1, 55, 127
1, 102240, Note_on_c, 1, 46, 127
1, 102332, Note_off_c, 1, 46, 0
1, 102336, Note_on_c, 1, 48, 127
1, 102428, Note_off_c, 1, 48, 0
1, 102432, Note_on_c, 1, 50, 127
1, 102524, Note_off_c, 1, 67, 0
1, 102524, Note_off_c, 1, 55, 0
1, 102524, Note_off_c, 1, 50, 0
1, 102528, Note_on_c, 1, 43, 127
1, 102716, Note_off_c, 1, 43, 0
1, 102720, Note_on_c, 1, 74, 127
1, 102812, Note_off_c, 1, 74, 0
1, 102816, Note_on_c, 1, 77, 127
1, 102836, Note_off_c, 1, 77, 0
1, 102840, Note_on_c, 1, 75, 127
1, 102860, Note_off_c, 1, 75, 0
1, 102864, Note_on_c, 1, 74, 127
1, 102884, Note_off_c, 1, 74, 0
1, 102888, Note_on_c, 1, 75, 127
1, 102908, Note_off_c, 1, 75, 0
1, 102912, Note_on_c, 1, 77, 127
1, 103004, Note_off_c, 1, 77, 0
1, 103008, Note_on_c, 1, 74, 127
1, 103100, Note_off_c, 1, 74, 0
1, 103104, Note_on_c, 1, 71, 127
1, 103196, Note_off_c, 1, 71, 0
1, 103200, Note_on_c, 1, 67, 127
1, 103268, Note_off_c, 1, 67, 0
1, 103296, Note_on_c, 1, 77, 127
1, 103388, Note_off_c, 1, 77, 0
1, 103392, Note_on_c, 1, 74, 127
1, 103484, Note_off_c, 1, 74, 0
1, 103488, Note_on_c, 1, 71, 127
1, 103488, Note_on_c, 1, 50, 127
1, 103580, Note_off_c, 1, 71, 0
1, 103584, Note_on_c, 1, 67, 127
1, 103584, Note_on_c, 1, 48, 127
1, 103652, Note_off_c, 1, 67, 0
1, 103676, Note_off_c, 1, 50, 0
1, 103676, Note_off_c, 1, 48, 0
1, 103680, Note_on_c, 1, 77, 127
1, 103680, Note_on_c, 1, 47, 127
1, 103680, Note_on_c, 1, 55, 127
1, 103772, Note_off_c, 1, 47, 0
1, 103776, Note_on_c, 1, 48, 127
1, 103808, Note_off_c, 1, 55, 0
1, 103868, Note_off_c, 1, 48, 0
1, 103968, Note_on_c, 1, 45, 127
1, 104060, Note_off_c, 1, 77, 0
1, 104060, Note_off_c, 1, 45, 0
1, 104064, Note_on_c, 1, 55, 127
1, 104064, Note_on_c, 1, 43, 127
1, 104160, Note_on_c, 1, 80, 127
1, 104192, Note_off_c, 1, 55, 0
1, 104252, Note_off_c, 1, 43, 0
1, 104252, Note_off_c, 1, 80, 0
1, 104256, Note_on_c, 1, 79, 127
1, 104256, Note_on_c, 1, 57, 127
1, 104320, Note_off_c, 1, 57, 0
1, 104348, Note_off_c, 1, 79, 0
1, 104352, Note_on_c, 1, 77, 127
1, 104352, Note_on_c, 1, 59, 127
1, 104416, Note_off_c, 1, 59, 0
1, 104444, Note_off_c, 1, 77, 0
1, 104448, Note_on_c, 1, 75, 127
1, 104448, Note_on_c, 1, 60, 127
1, 104540, Note_off_c, 1, 75, 0
1, 104544, Note_on_c, 1, 71, 127
1, 104636, Note_off_c, 1, 60, 0
1, 104636, Note_off_c, 1, 71, 0
1, 104640, Note_on_c, 1, 72, 127
1, 104640, Note_on_c, 1, 51, 127
1, 104732, Note_off_c, 1, 72, 0
1, 104736, Note_on_c, 1, 67, 127
1, 104828, Note_off_c, 1, 51, 0
1, 104828, Note_off_c, 1, 67, 0
1, 104832, Note_on_c, 1, 68, 127
1, 104832, Note_on_c, 1, 53, 127
1, 104876, Note_off_c, 1, 68, 0
1, 104880, Note_on_c, 1, 72, 127
1, 104924, Note_off_c, 1, 72, 0
1, 104976, Note_on_c, 1, 65, 127
1, 105020, Note_off_c, 1, 53, 0
1, 105020, Note_off_c, 1, 65, 0
1, 105024, Note_on_c, 1, 62, 127
1, 105024, Note_on_c, 1, 55, 127
1, 105068, Note_off_c, 1, 62, 0
1, 105072, Note_on_c, 1, 65, 127
1, 105116, Note_off_c, 1, 65, 0
1, 105120, Note_on_c, 1, 72, 127
1, 105164, Note_off_c, 1, 72, 0
1, 105168, Note_on_c, 1, 71, 127
1, 105212, Note_off_c, 1, 55, 0
1, 105212, Note_off_c, 1, 71, 0
1, 105216, Note_on_c, 1, 72, 127
1, 105216, Note_on_c, 1, 51, 127
1, 105216, Note_on_c, 1, 48, 127
1, 105308, Note_off_c, 1, 51, 0
1, 105308, Note_off_c, 1, 48, 0
1, 105312, Note_on_c, 1, 50, 127
1, 105404, Note_off_c, 1, 50, 0
1, 105504, Note_on_c, 1, 46, 127
1, 105596, Note_off_c, 1, 72, 0
1, 105596, Note_off_c, 1, 46, 0
1, 105600, Note_on_c, 1, 53, 127
1, 105600, Note_on_c, 1, 45, 127
1, 105696, Note_on_c, 1, 75, 127
1, 105716, Note_on_c, 1, 77, 127
1, 105736, Note_off_c, 1, 77, 0
1, 105740, Note_off_c, 1, 75, 0
1, 105748, Note_on_c, 1, 79, 127
1, 105768, Note_off_c, 1, 79, 0
1, 105788, Note_off_c, 1, 53, 0
1, 105788, Note_off_c, 1, 45, 0
1, 105792, Note_on_c, 1, 77, 127
1, 105792, Note_on_c, 1, 55, 127
1, 105884, Note_off_c, 1, 77, 0
1, 105884, Note_off_c, 1, 55, 0
1, 105888, Note_on_c, 1, 75, 127
1, 105888, Note_on_c, 1, 57, 127
1, 105980, Note_off_c, 1, 75, 0
1, 105980, Note_off_c, 1, 57, 0
1, 105984, Note_on_c, 1, 74, 127
1, 105984, Note_on_c, 1, 58, 127
1, 106028, Note_off_c, 1, 74, 0
1, 106032, Note_on_c, 1, 72, 127
1, 106076, Note_off_c, 1, 72, 0
1, 106080, Note_on_c, 1, 70, 127
1, 106124, Note_off_c, 1, 70, 0
1, 106128, Note_on_c, 1, 69, 127
1, 106172, Note_off_c, 1, 58, 0
1, 106172, Note_off_c, 1, 69, 0
1, 106176, Note_on_c, 1, 70, 127
1, 106176, Note_on_c, 1, 50, 127
1, 106268, Note_off_c, 1, 70, 0
1, 106272, Note_on_c, 1, 65, 127
1, 106364, Note_off_c, 1, 50, 0
1, 106364, Note_off_c, 1, 65, 0
1, 106368, Note_on_c, 1, 67, 127
1, 106368, Note_on_c, 1, 51, 127
1, 106460, Note_off_c, 1, 67, 0
1, 106464, Note_on_c, 1, 69, 127
1, 106508, Note_off_c, 1, 69, 0
1, 106512, Note_on_c, 1, 70, 127
1, 106556, Note_off_c, 1, 51, 0
1, 106556, Note_off_c, 1, 70, 0
1, 106560, Note_on_c, 1, 60, 127
1, 106560, Note_on_c, 1, 41, 127
1, 106560, Note_on_c, 1, 53, 127
1, 106652, Note_off_c, 1, 60, 0
1, 106656, Note_on_c, 1, 70, 127
1, 106700, Note_off_c, 1, 70, 0
1, 106704, Note_on_c, 1, 69, 127
1, 106748, Note_off_c, 1, 41, 0
1, 106748, Note_off_c, 1, 53, 0
1, 106748, Note_off_c, 1, 69, 0
1, 106752, Note_on_c, 1, 70, 127
1, 106752, Note_on_c, 1, 46, 127
1, 106940, Note_off_c, 1, 46, 0
1, 106944, Note_on_c, 1, 58, 127
1, 107036, Note_off_c, 1, 58, 0
1, 107040, Note_on_c, 1, 57, 127
1, 107132, Note_off_c, 1, 70, 0
1, 107132, Note_off_c, 1, 57, 0
1, 107136, Note_on_c, 1, 55, 127
1, 107324, Note_off_c, 1, 55, 0
1, 107328, Note_on_c, 1, 74, 127
1, 107328, Note_on_c, 1, 53, 127
1, 107420, Note_off_c, 1, 53, 0
1, 107424, Note_on_c, 1, 51, 127
1, 107516, Note_off_c, 1, 74, 0
1, 107516, Note_off_c, 1, 51, 0
1, 107520, Note_on_c, 1, 77, 127
1, 107520, Note_on_c, 1, 50, 127
1, 107616, Note_on_c, 1, 53, 127
1, 107648, Note_off_c, 1, 77, 0
1, 107708, Note_off_c, 1, 53, 0
1, 107712, Note_on_c, 1, 56, 127
1, 107804, Note_off_c, 1, 50, 0
1, 107808, Note_on_c, 1, 48, 127
1, 107900, Note_off_c, 1, 56, 0
1, 107900, Note_off_c, 1, 48, 0
1, 107904, Note_on_c, 1, 77, 127
1, 107904, Note_on_c, 1, 47, 127
1, 108000, Note_on_c, 1, 50, 127
1, 108092, Note_off_c, 1, 77, 0
1, 108092, Note_off_c, 1, 50, 0
1, 108096, Note_on_c, 1, 79, 127
1, 108096, Note_on_c, 1, 55, 127
1, 108188, Note_off_c, 1, 47, 0
1, 108188, Note_off_c, 1, 79, 0
1, 108192, Note_on_c, 1, 43, 127
1, 108284, Note_off_c, 1, 55, 0
1, 108284, Note_off_c, 1, 43, 0
1, 108288, Note_on_c, 1, 76, 127
1, 108288, Note_on_c, 1, 48, 127
1, 108380, Note_off_c, 1, 76, 0
1, 108384, Note_on_c, 1, 74, 127
1, 108476, Note_off_c, 1, 48, 0
1, 108476, Note_off_c, 1, 74, 0
1, 108480, Note_on_c, 1, 72, 127
1, 108480, Note_on_c, 1, 60, 127
1, 108572, Note_off_c, 1, 60, 0
1, 108576, Note_on_c, 1, 58, 127
1, 108668, Note_off_c, 1, 72, 0
1, 108668, Note_off_c, 1, 58, 0
1, 108672, Note_on_c, 1, 57, 127
1, 108860, Note_off_c, 1, 57, 0
1, 108864, Note_on_c, 1, 76, 127
1, 108864, Note_on_c, 1, 55, 127
1, 108956, Note_off_c, 1, 76, 0
1, 108956, Note_off_c, 1, 55, 0
1, 108960, Note_on_c, 1, 77, 127
1, 108960, Note_on_c, 1, 53, 127
1, 109052, Note_off_c, 1, 77, 0
1, 109052, Note_off_c, 1, 53, 0
1, 109056, Note_on_c, 1, 79, 127
1, 109056, Note_on_c, 1, 52, 127
1, 109148, Note_off_c, 1, 79, 0
1, 109152, Note_on_c, 1, 55, 127
1, 109244, Note_off_c, 1, 55, 0
1, 109248, Note_on_c, 1, 58, 127
1, 109340, Note_off_c, 1, 52, 0
1, 109344, Note_on_c, 1, 50, 127
1, 109436, Note_off_c, 1, 58, 0
1, 109436, Note_off_c, 1, 50, 0
1, 109440, Note_on_c, 1, 79, 127
1, 109440, Note_on_c, 1, 49, 127
1, 109484, Note_off_c, 1, 79, 0
1, 109488, Note_on_c, 1, 77, 127
1, 109532, Note_off_c, 1, 77, 0
1, 109536, Note_on_c, 1, 76, 127
1, 109536, Note_on_c, 1, 52, 127
1, 109580, Note_off_c, 1, 76, 0
1, 109628, Note_off_c, 1, 52, 0
1, 109632, Note_on_c, 1, 57, 127
1, 109680, Note_on_c, 1, 81, 127
1, 109700, Note_off_c, 1, 81, 0
1, 109704, Note_on_c, 1, 82, 127
1, 109724, Note_off_c, 1, 49, 0
1, 109724, Note_off_c, 1, 82, 0
1, 109728, Note_on_c, 1, 45, 127
1, 109820, Note_off_c, 1, 57, 0
1, 109820, Note_off_c, 1, 45, 0
1, 109824, Note_on_c, 1, 77, 127
1, 109824, Note_on_c, 1, 50, 127
1, 109916, Note_off_c, 1, 77, 0
1, 109916, Note_off_c, 1, 50, 0
1, 109920, Note_on_c, 1, 76, 127
1, 109920, Note_on_c, 1, 45, 127
1, 110012, Note_off_c, 1, 76, 0
1, 110012, Note_off_c, 1, 45, 0
1, 110016, Note_on_c, 1, 74, 127
1, 110016, Note_on_c, 1, 41, 127
1, 110108, Note_off_c, 1, 41, 0
1, 110112, Note_on_c, 1, 38, 127
1, 110204, Note_off_c, 1, 74, 0
1, 110204, Note_off_c, 1, 38, 0
1, 110208, Note_on_c, 1, 50, 127
1, 110300, Note_off_c, 1, 50, 0
1, 110304, Note_on_c, 1, 77, 127
1, 110304, Note_on_c, 1, 45, 127
1, 110396, Note_off_c, 1, 77, 0
1, 110396, Note_off_c, 1, 45, 0
1, 110400, Note_on_c, 1, 79, 127
1, 110400, Note_on_c, 1, 41, 127
1, 110492, Note_off_c, 1, 79, 0
1, 110492, Note_off_c, 1, 41, 0
1, 110496, Note_on_c, 1, 81, 127
1, 110496, Note_on_c, 1, 38, 127
1, 110588, Note_off_c, 1, 81, 0
1, 110588, Note_off_c, 1, 38, 0
1, 110592, Note_on_c, 1, 82, 127
1, 110592, Note_on_c, 1, 50, 127
1, 110684, Note_off_c, 1, 82, 0
1, 110688, Note_on_c, 1, 77, 127
1, 110720, Note_off_c, 1, 50, 0
1, 110780, Note_off_c, 1, 77, 0
1, 110784, Note_on_c, 1, 74, 127
1, 110784, Note_on_c, 1, 50, 127
1, 110784, Note_on_c, 1, 53, 127
1, 110876, Note_off_c, 1, 74, 0
1, 110880, Note_on_c, 1, 70, 127
1, 110912, Note_off_c, 1, 50, 0
1, 110924, Note_off_c, 1, 70, 0
1, 110972, Note_off_c, 1, 53, 0
1, 110976, Note_on_c, 1, 82, 127
1, 110976, Note_on_c, 1, 58, 127
1, 110976, Note_on_c, 1, 50, 127
1, 111068, Note_off_c, 1, 82, 0
1, 111072, Note_on_c, 1, 77, 127
1, 111104, Note_off_c, 1, 58, 0
1, 111104, Note_off_c, 1, 50, 0
1, 111164, Note_off_c, 1, 77, 0
1, 111168, Note_on_c, 1, 74, 127
1, 111168, Note_on_c, 1, 50, 127
1, 111168, Note_on_c, 1, 58, 127
1, 111260, Note_off_c, 1, 74, 0
1, 111264, Note_on_c, 1, 70, 127
1, 111296, Note_off_c, 1, 50, 0
1, 111308, Note_off_c, 1, 70, 0
1, 111312, Note_on_c, 1, 80, 127
1, 111356, Note_off_c, 1, 80, 0
1, 111360, Note_on_c, 1, 79, 127
1, 111360, Note_on_c, 1, 51, 127
1, 111424, Note_off_c, 1, 58, 0
1, 111424, Note_off_c, 1, 79, 0
1, 111456, Note_on_c, 1, 69, 127
1, 111456, Note_on_c, 1, 60, 127
1, 111488, Note_off_c, 1, 51, 0
1, 111520, Note_off_c, 1, 69, 0
1, 111520, Note_off_c, 1, 60, 0
1, 111552, Note_on_c, 1, 70, 127
1, 111552, Note_on_c, 1, 50, 127
1, 111552, Note_on_c, 1, 62, 127
1, 111616, Note_off_c, 1, 70, 0
1, 111616, Note_off_c, 1, 50, 0
1, 111648, Note_on_c, 1, 72, 127
1, 111648, Note_on_c, 1, 51, 127
1, 111680, Note_off_c, 1, 62, 0
1, 111712, Note_off_c, 1, 72, 0
1, 111712, Note_off_c, 1, 51, 0
1, 111744, Note_on_c, 1, 60, 127
1, 111744, Note_on_c, 1, 53, 127
1, 111756, Note_on_c, 1, 70, 127
1, 111828, Note_on_c, 1, 69, 127
1, 111840, Note_off_c, 1, 70, 0
1, 111868, Note_off_c, 1, 69, 0
1, 111932, Note_off_c, 1, 60, 0
1, 111932, Note_off_c, 1, 53, 0
1, 111936, Note_on_c, 1, 41, 127
1, 112124, Note_off_c, 1, 41, 0
1, 112128, Note_on_c, 1, 70, 127
1, 112128, Note_on_c, 1, 46, 127
1, 112220, Note_off_c, 1, 70, 0
1, 112220, Note_off_c, 1, 46, 0
1, 112320, Note_on_c, 1, 82, 127
1, 112320, Note_on_c, 1, 58, 127
1, 112384, Note_off_c, 1, 82, 0
1, 112416, Note_on_c, 1, 81, 127
1, 112448, Note_off_c, 1, 58, 0
1, 112480, Note_off_c, 1, 81, 0
1, 112512, Note_on_c, 1, 79, 127
1, 112512, Note_on_c, 1, 58, 127
1, 112604, Note_off_c, 1, 79, 0
1, 112608, Note_on_c, 1, 77, 127
1, 112640, Note_off_c, 1, 58, 0
1, 112700, Note_off_c, 1, 77, 0
1, 112704, Note_on_c, 1, 75, 127
1, 112704, Note_on_c, 1, 58, 127
1, 112796, Note_off_c, 1, 75, 0
1, 112800, Note_on_c, 1, 74, 127
1, 112832, Note_off_c, 1, 58, 0
1, 112864, Note_off_c, 1, 74, 0
1, 112896, Note_on_c, 1, 75, 127
1, 112896, Note_on_c, 1, 55, 127
1, 112896, Note_on_c, 1, 58, 127
1, 112988, Note_off_c, 1, 75, 0
1, 112992, Note_on_c, 1, 77, 127
1, 113024, Note_off_c, 1, 55, 0
1, 113024, Note_off_c, 1, 58, 0
1, 113084, Note_off_c, 1, 77, 0
1, 113088, Note_on_c, 1, 79, 127
1, 113088, Note_on_c, 1, 55, 127
1, 113088, Note_on_c, 1, 58, 127
1, 113180, Note_off_c, 1, 79, 0
1, 113184, Note_on_c, 1, 74, 127
1, 113216, Note_off_c, 1, 55, 0
1, 113216, Note_off_c, 1, 58, 0
1, 113248, Note_off_c, 1, 74, 0
1, 113280, Note_on_c, 1, 74, 127
1, 113280, Note_on_c, 1, 57, 127
1, 113280, Note_on_c, 1, 55, 127
1, 113372, Note_off_c, 1, 74, 0
1, 113376, Note_on_c, 1, 73, 127
1, 113408, Note_off_c, 1, 57, 0
1, 113408, Note_off_c, 1, 55, 0
1, 113468, Note_off_c, 1, 73, 0
1, 113472, Note_on_c, 1, 70, 127
1, 113472, Note_on_c, 1, 57, 127
1, 113472, Note_on_c, 1, 55, 127
1, 113564, Note_off_c, 1, 70, 0
1, 113568, Note_on_c, 1, 69, 127
1, 113600, Note_off_c, 1, 57, 0
1, 113600, Note_off_c, 1, 55, 0
1, 113632, Note_off_c, 1, 69, 0
1, 113664, Note_on_c, 1, 74, 127
1, 113664, Note_on_c, 1, 57, 127
1, 113664, Note_on_c, 1, 53, 127
1, 113760, Note_on_c, 1, 82, 127
1, 113852, Note_off_c, 1, 57, 0
1, 113852, Note_off_c, 1, 53, 0
1, 113852, Note_off_c, 1, 82, 0
1, 113856, Note_on_c, 1, 81, 127
1, 113856, Note_on_c, 1, 55, 127
1, 113856, Note_on_c, 1, 58, 127
1, 113948, Note_off_c, 1, 81, 0
1, 113952, Note_on_c, 1, 79, 127
1, 114044, Note_off_c, 1, 55, 0
1, 114044, Note_off_c, 1, 58, 0
1, 114044, Note_off_c, 1, 79, 0
1, 114048, Note_on_c, 1, 77, 127
1, 114088, Note_off_c, 1, 77, 0
1, 114236, Note_off_c, 1, 74, 0
1, 114240, Note_on_c, 1, 76, 127
1, 114240, Note_on_c, 1, 73, 127
1, 114240, Note_on_c, 1, 45, 127
1, 114332, Note_off_c, 1, 76, 0
1, 114428, Note_off_c, 1, 73, 0
1, 114428, Note_off_c, 1, 45, 0
1, 114432, Note_on_c, 1, 74, 127
1, 114432, Note_on_c, 1, 50, 127
1, 114432, Note_on_c, 1, 53, 127
1, 114524, Note_off_c, 1, 74, 0
1, 114528, Note_on_c, 1, 69, 127
1, 114620, Note_off_c, 1, 50, 0
1, 114620, Note_off_c, 1, 53, 0
1, 114620, Note_off_c, 1, 69, 0
1, 114624, Note_on_c, 1, 70, 127
1, 114624, Note_on_c, 1, 50, 127
1, 114624, Note_on_c, 1, 55, 127
1, 114716, Note_off_c, 1, 70, 0
1, 114720, Note_on_c, 1, 72, 127
1, 114812, Note_off_c, 1, 50, 0
1, 114812, Note_off_c, 1, 55, 0
1, 114812, Note_off_c, 1, 72, 0
1, 114816, Note_on_c, 1, 67, 127
1, 114816, Note_on_c, 1, 57, 127
1, 114816, Note_on_c, 1, 48, 127
1, 114908, Note_off_c, 1, 67, 0
1, 114912, Note_on_c, 1, 66, 127
1, 115004, Note_off_c, 1, 57, 0
1, 115004, Note_off_c, 1, 48, 0
1, 115004, Note_off_c, 1, 66, 0
1, 115008, Note_on_c, 1, 63, 127
1, 115008, Note_on_c, 1, 57, 127
1, 115008, Note_on_c, 1, 48, 127
1, 115100, Note_off_c, 1, 63, 0
1, 115104, Note_on_c, 1, 62, 127
1, 115196, Note_off_c, 1, 57, 0
1, 115196, Note_off_c, 1, 48, 0
1, 115196, Note_off_c, 1, 62, 0
1, 115200, Note_on_c, 1, 67, 127
1, 115200, Note_on_c, 1, 46, 127
1, 115200, Note_on_c, 1, 55, 127
1, 115296, Note_on_c, 1, 75, 127
1, 115388, Note_off_c, 1, 46, 0
1, 115388, Note_off_c, 1, 75, 0
1, 115392, Note_on_c, 1, 74, 127
1, 115392, Note_on_c, 1, 48, 127
1, 115484, Note_off_c, 1, 74, 0
1, 115488, Note_on_c, 1, 72, 127
1, 115580, Note_off_c, 1, 55, 0
1, 115580, Note_off_c, 1, 48, 0
1, 115580, Note_off_c, 1, 72, 0
1, 115584, Note_on_c, 1, 70, 127
1, 115584, Note_on_c, 1, 50, 127
1, 115624, Note_off_c, 1, 70, 0
1, 115772, Note_off_c, 1, 67, 0
1, 115776, Note_on_c, 1, 69, 127
1, 115776, Note_on_c, 1, 66, 127
1, 115776, Note_on_c, 1, 38, 127
1, 115868, Note_off_c, 1, 69, 0
1, 115964, Note_off_c, 1, 50, 0
1, 115964, Note_off_c, 1, 66, 0
1, 115964, Note_off_c, 1, 38, 0
1, 115968, Note_on_c, 1, 67, 127
1, 115968, Note_on_c, 1, 43, 127
1, 116096, Note_off_c, 1, 67, 0
1, 116224, Note_off_c, 1, 43, 0
1, 116352, Note_on_c, 1, 67, 127
1, 116480, Note_off_c, 1, 67, 0
1, 116544, Note_on_c, 1, 69, 127
1, 116672, Note_off_c, 1, 69, 0
1, 116736, Note_on_c, 1, 70, 127
1, 116864, Note_off_c, 1, 70, 0
1, 116928, Note_on_c, 1, 67, 127
1, 117056, Note_off_c, 1, 67, 0
1, 117120, Note_on_c, 1, 70, 127
1, 117248, Note_off_c, 1, 70, 0
1, 117312, Note_on_c, 1, 72, 127
1, 117440, Note_off_c, 1, 72, 0
1, 117504, Note_on_c, 1, 74, 127
1, 117632, Note_off_c, 1, 74, 0
1, 117696, Note_on_c, 1, 74, 127
1, 117696, Note_on_c, 1, 62, 127
1, 117788, Note_off_c, 1, 74, 0
1, 117792, Note_on_c, 1, 75, 127
1, 117824, Note_off_c, 1, 62, 0
1, 117884, Note_off_c, 1, 75, 0
1, 117888, Note_on_c, 1, 74, 127
1, 117888, Note_on_c, 1, 62, 127
1, 117980, Note_off_c, 1, 74, 0
1, 117984, Note_on_c, 1, 72, 127
1, 118016, Note_off_c, 1, 62, 0
1, 118076, Note_off_c, 1, 72, 0
1, 118080, Note_on_c, 1, 70, 127
1, 118080, Note_on_c, 1, 62, 127
1, 118172, Note_off_c, 1, 70, 0
1, 118176, Note_on_c, 1, 69, 127
1, 118208, Note_off_c, 1, 62, 0
1, 118268, Note_off_c, 1, 69, 0
1, 118272, Note_on_c, 1, 67, 127
1, 118272, Note_on_c, 1, 64, 127
1, 118460, Note_off_c, 1, 67, 0
1, 118460, Note_off_c, 1, 64, 0
1, 118464, Note_on_c, 1, 69, 127
1, 118464, Note_on_c, 1, 62, 127
1, 118556, Note_off_c, 1, 69, 0
1, 118560, Note_on_c, 1, 70, 127
1, 118652, Note_off_c, 1, 62, 0
1, 118652, Note_off_c, 1, 70, 0
1, 118656, Note_on_c, 1, 72, 127
1, 118656, Note_on_c, 1, 64, 127
1, 118784, Note_off_c, 1, 72, 0
1, 118844, Note_off_c, 1, 64, 0
1, 118848, Note_on_c, 1, 72, 127
1, 118848, Note_on_c, 1, 66, 127
1, 118976, Note_off_c, 1, 72, 0
1, 119036, Note_off_c, 1, 66, 0
1, 119040, Note_on_c, 1, 67, 127
1, 119136, Note_on_c, 1, 72, 127
1, 119228, Note_off_c, 1, 67, 0
1, 119228, Note_off_c, 1, 72, 0
1, 119232, Note_on_c, 1, 70, 127
1, 119232, Note_on_c, 1, 62, 127
1, 119232, Note_on_c, 1, 55, 127
1, 119324, Note_off_c, 1, 70, 0
1, 119324, Note_off_c, 1, 55, 0
1, 119328, Note_on_c, 1, 69, 127
1, 119328, Note_on_c, 1, 53, 127
1, 119420, Note_off_c, 1, 62, 0
1, 119420, Note_off_c, 1, 69, 0
1, 119420, Note_off_c, 1, 53, 0
1, 119424, Note_on_c, 1, 67, 127
1, 119424, Note_on_c, 1, 70, 127
1, 119424, Note_on_c, 1, 51, 127
1, 119516, Note_off_c, 1, 51, 0
1, 119520, Note_on_c, 1, 50, 127
1, 119552, Note_off_c, 1, 67, 0
1, 119552, Note_off_c, 1, 70, 0
1, 119612, Note_off_c, 1, 50, 0
1, 119616, Note_on_c, 1, 70, 127
1, 119616, Note_on_c, 1, 67, 127
1, 119616, Note_on_c, 1, 48, 127
1, 119708, Note_off_c, 1, 48, 0
1, 119712, Note_on_c, 1, 46, 127
1, 119744, Note_off_c, 1, 70, 0
1, 119804, Note_off_c, 1, 67, 0
1, 119804, Note_off_c, 1, 46, 0
1, 119808, Note_on_c, 1, 69, 127
1, 119808, Note_on_c, 1, 48, 127
1, 119904, Note_on_c, 1, 67, 127
1, 119996, Note_off_c, 1, 48, 0
1, 119996, Note_off_c, 1, 67, 0
1, 120000, Note_on_c, 1, 66, 127
1, 120000, Note_on_c, 1, 45, 127
1, 120092, Note_off_c, 1, 66, 0
1, 120096, Note_on_c, 1, 64, 127
1, 120188, Note_off_c, 1, 69, 0
1, 120188, Note_off_c, 1, 45, 0
1, 120188, Note_off_c, 1, 64, 0
1, 120192, Note_on_c, 1, 66, 127
1, 120192, Note_on_c, 1, 50, 127
1, 120288, Note_on_c, 1, 75, 127
1, 120380, Note_off_c, 1, 50, 0
1, 120380, Note_off_c, 1, 75, 0
1, 120384, Note_on_c, 1, 74, 127
1, 120384, Note_on_c, 1, 38, 127
1, 120476, Note_off_c, 1, 74, 0
1, 120480, Note_on_c, 1, 72, 127
1, 120572, Note_off_c, 1, 66, 0
1, 120572, Note_off_c, 1, 38, 0
1, 120572, Note_off_c, 1, 72, 0
1, 120576, Note_on_c, 1, 70, 127
1, 120576, Note_on_c, 1, 67, 127
1, 120576, Note_on_c, 1, 43, 127
1, 120640, Note_off_c, 1, 70, 0
1, 120672, Note_on_c, 1, 74, 127
1, 120704, Note_off_c, 1, 67, 0
1, 120764, Note_off_c, 1, 43, 0
1, 120764, Note_off_c, 1, 74, 0
1, 120768, Note_on_c, 1, 79, 127
1, 120768, Note_on_c, 1, 46, 127
1, 120860, Note_off_c, 1, 79, 0
1, 120864, Note_on_c, 1, 77, 127
1, 120956, Note_off_c, 1, 46, 0
1, 120956, Note_off_c, 1, 77, 0
1, 120960, Note_on_c, 1, 75, 127
1, 120960, Note_on_c, 1, 48, 127
1, 121052, Note_off_c, 1, 75, 0
1, 121056, Note_on_c, 1, 74, 127
1, 121148, Note_off_c, 1, 48, 0
1, 121148, Note_off_c, 1, 74, 0
1, 121152, Note_on_c, 1, 72, 127
1, 121152, Note_on_c, 1, 51, 127
1, 121244, Note_off_c, 1, 72, 0
1, 121248, Note_on_c, 1, 70, 127
1, 121340, Note_off_c, 1, 51, 0
1, 121340, Note_off_c, 1, 70, 0
1, 121344, Note_on_c, 1, 69, 127
1, 121344, Note_on_c, 1, 53, 127
1, 121436, Note_off_c, 1, 69, 0
1, 121440, Note_on_c, 1, 72, 127
1, 121532, Note_off_c, 1, 53, 0
1, 121532, Note_off_c, 1, 72, 0
1, 121536, Note_on_c, 1, 77, 127
1, 121536, Note_on_c, 1, 45, 127
1, 121628, Note_off_c, 1, 77, 0
1, 121632, Note_on_c, 1, 75, 127
1, 121724, Note_off_c, 1, 45, 0
1, 121724, Note_off_c, 1, 75, 0
1, 121728, Note_on_c, 1, 74, 127
1, 121728, Note_on_c, 1, 46, 127
1, 121820, Note_off_c, 1, 74, 0
1, 121824, Note_on_c, 1, 72, 127
1, 121916, Note_off_c, 1, 46, 0
1, 121916, Note_off_c, 1, 72, 0
1, 121920, Note_on_c, 1, 70, 127
1, 121920, Note_on_c, 1, 50, 127
1, 122012, Note_off_c, 1, 70, 0
1, 122016, Note_on_c, 1, 69, 127
1, 122108, Note_off_c, 1, 50, 0
1, 122108, Note_off_c, 1, 69, 0
1, 122112, Note_on_c, 1, 67, 127
1, 122112, Note_on_c, 1, 51, 127
1, 122204, Note_off_c, 1, 67, 0
1, 122208, Note_on_c, 1, 70, 127
1, 122300, Note_off_c, 1, 51, 0
1, 122300, Note_off_c, 1, 70, 0
1, 122304, Note_on_c, 1, 75, 127
1, 122304, Note_on_c, 1, 43, 127
1, 122396, Note_off_c, 1, 75, 0
1, 122400, Note_on_c, 1, 74, 127
1, 122492, Note_off_c, 1, 43, 0
1, 122492, Note_off_c, 1, 74, 0
1, 122496, Note_on_c, 1, 72, 127
1, 122496, Note_on_c, 1, 45, 127
1, 122588, Note_off_c, 1, 72, 0
1, 122592, Note_on_c, 1, 70, 127
1, 122684, Note_off_c, 1, 45, 0
1, 122684, Note_off_c, 1, 70, 0
1, 122688, Note_on_c, 1, 69, 127
1, 122688, Note_on_c, 1, 48, 127
1, 122780, Note_off_c, 1, 69, 0
1, 122784, Note_on_c, 1, 67, 127
1, 122876, Note_off_c, 1, 48, 0
1, 122876, Note_off_c, 1, 67, 0
1, 122880, Note_on_c, 1, 65, 127
1, 122880, Note_on_c, 1, 50, 127
1, 122972, Note_off_c, 1, 65, 0
1, 122976, Note_on_c, 1, 69, 127
1, 123068, Note_off_c, 1, 50, 0
1, 123068, Note_off_c, 1, 69, 0
1, 123072, Note_on_c, 1, 74, 127
1, 123072, Note_on_c, 1, 41, 127
1, 123164, Note_off_c, 1, 74, 0
1, 123168, Note_on_c, 1, 72, 127
1, 123260, Note_off_c, 1, 41, 0
1, 123260, Note_off_c, 1, 72, 0
1, 123264, Note_on_c, 1, 70, 127
1, 123264, Note_on_c, 1, 43, 127
1, 123356, Note_off_c, 1, 70, 0
1, 123360, Note_on_c, 1, 69, 127
1, 123452, Note_off_c, 1, 43, 0
1, 123452, Note_off_c, 1, 69, 0
1, 123456, Note_on_c, 1, 67, 127
1, 123456, Note_on_c, 1, 46, 127
1, 123548, Note_off_c, 1, 67, 0
1, 123552, Note_on_c, 1, 65, 127
1, 123644, Note_off_c, 1, 46, 0
1, 123644, Note_off_c, 1, 65, 0
1, 123648, Note_on_c, 1, 63, 127
1, 123648, Note_on_c, 1, 48, 127
1, 123740, Note_off_c, 1, 63, 0
1, 123744, Note_on_c, 1, 67, 127
1, 123836, Note_off_c, 1, 48, 0
1, 123836, Note_off_c, 1, 67, 0
1, 123840, Note_on_c, 1, 72, 127
1, 123840, Note_on_c, 1, 39, 127
1, 123932, Note_off_c, 1, 72, 0
1, 123936, Note_on_c, 1, 70, 127
1, 124028, Note_off_c, 1, 39, 0
1, 124028, Note_off_c, 1, 70, 0
1, 124032, Note_on_c, 1, 69, 127
1, 124032, Note_on_c, 1, 41, 127
1, 124124, Note_off_c, 1, 69, 0
1, 124128, Note_on_c, 1, 67, 127
1, 124220, Note_off_c, 1, 41, 0
1, 124220, Note_off_c, 1, 67, 0
1, 124224, Note_on_c, 1, 65, 127
1, 124224, Note_on_c, 1, 45, 127
1, 124316, Note_off_c, 1, 65, 0
1, 124320, Note_on_c, 1, 63, 127
1, 124412, Note_off_c, 1, 45, 0
1, 124412, Note_off_c, 1, 63, 0
1, 124416, Note_on_c, 1, 62, 127
1, 124416, Note_on_c, 1, 46, 127
1, 124508, Note_off_c, 1, 62, 0
1, 124508, Note_off_c, 1, 46, 0
1, 124512, Note_on_c, 1, 65, 127
1, 124604, Note_off_c, 1, 65, 0
1, 124608, Note_on_c, 1, 67, 127
1, 124608, Note_on_c, 1, 58, 127
1, 124700, Note_off_c, 1, 67, 0
1, 124700, Note_off_c, 1, 58, 0
1, 124704, Note_on_c, 1, 69, 127
1, 124704, Note_on_c, 1, 57, 127
1, 124796, Note_off_c, 1, 69, 0
1, 124796, Note_off_c, 1, 57, 0
1, 124800, Note_on_c, 1, 70, 127
1, 124800, Note_on_c, 1, 55, 127
1, 124892, Note_off_c, 1, 70, 0
1, 124892, Note_off_c, 1, 55, 0
1, 124896, Note_on_c, 1, 53, 127
1, 124988, Note_off_c, 1, 53, 0
1, 124992, Note_on_c, 1, 70, 127
1, 124992, Note_on_c, 1, 51, 127
1, 125084, Note_off_c, 1, 70, 0
1, 125084, Note_off_c, 1, 51, 0
1, 125088, Note_on_c, 1, 50, 127
1, 125180, Note_off_c, 1, 50, 0
1, 125184, Note_on_c, 1, 60, 127
1, 125184, Note_on_c, 1, 48, 127
1, 125276, Note_off_c, 1, 60, 0
1, 125280, Note_on_c, 1, 70, 127
1, 125372, Note_off_c, 1, 48, 0
1, 125372, Note_off_c, 1, 70, 0
1, 125376, Note_on_c, 1, 58, 127
1, 125376, Note_on_c, 1, 51, 127
1, 125468, Note_off_c, 1, 58, 0
1, 125468, Note_off_c, 1, 51, 0
1, 125472, Note_on_c, 1, 70, 127
1, 125472, Note_on_c, 1, 50, 127
1, 125564, Note_off_c, 1, 70, 0
1, 125564, Note_off_c, 1, 50, 0
1, 125568, Note_on_c, 1, 60, 127
1, 125568, Note_on_c, 1, 48, 127
1, 125660, Note_off_c, 1, 60, 0
1, 125660, Note_off_c, 1, 48, 0
1, 125664, Note_on_c, 1, 70, 127
1, 125664, Note_on_c, 1, 46, 127
1, 125756, Note_off_c, 1, 70, 0
1, 125756, Note_off_c, 1, 46, 0
1, 125760, Note_on_c, 1, 62, 127
1, 125760, Note_on_c, 1, 45, 127
1, 125852, Note_off_c, 1, 62, 0
1, 125852, Note_off_c, 1, 45, 0
1, 125856, Note_on_c, 1, 70, 127
1, 125856, Note_on_c, 1, 43, 127
1, 125948, Note_off_c, 1, 70, 0
1, 125948, Note_off_c, 1, 43, 0
1, 125952, Note_on_c, 1, 63, 127
1, 125952, Note_on_c, 1, 41, 127
1, 126044, Note_off_c, 1, 63, 0
1, 126044, Note_off_c, 1, 41, 0
1, 126048, Note_on_c, 1, 69, 127
1, 126140, Note_off_c, 1, 69, 0
1, 126144, Note_on_c, 1, 62, 127
1, 126144, Note_on_c, 1, 53, 127
1, 126236, Note_off_c, 1, 62, 0
1, 126236, Note_off_c, 1, 53, 0
1, 126240, Note_on_c, 1, 69, 127
1, 126240, Note_on_c, 1, 55, 127
1, 126332, Note_off_c, 1, 69, 0
1, 126332, Note_off_c, 1, 55, 0
1, 126336, Note_on_c, 1, 63, 127
1, 126336, Note_on_c, 1, 53, 127
1, 126428, Note_off_c, 1, 63, 0
1, 126428, Note_off_c, 1, 53, 0
1, 126432, Note_on_c, 1, 69, 127
1, 126432, Note_on_c, 1, 51, 127
1, 126524, Note_off_c, 1, 69, 0
1, 126524, Note_off_c, 1, 51, 0
1, 126528, Note_on_c, 1, 65, 127
1, 126528, Note_on_c, 1, 50, 127
1, 126620, Note_off_c, 1, 65, 0
1, 126620, Note_off_c, 1, 50, 0
1, 126624, Note_on_c, 1, 69, 127
1, 126624, Note_on_c, 1, 48, 127
1, 126716, Note_off_c, 1, 69, 0
1, 126716, Note_off_c, 1, 48, 0
1, 126720, Note_on_c, 1, 58, 127
1, 126720, Note_on_c, 1, 46, 127
1, 126908, Note_off_c, 1, 58, 0
1, 126908, Note_off_c, 1, 46, 0
1, 126912, Note_on_c, 1, 77, 127
1, 127040, Note_off_c, 1, 77, 0
1, 127104, Note_on_c, 1, 77, 127
1, 127232, Note_off_c, 1, 77, 0
1, 127296, Note_on_c, 1, 79, 127
1, 127424, Note_off_c, 1, 79, 0
1, 127488, Note_on_c, 1, 81, 127
1, 127616, Note_off_c, 1, 81, 0
1, 127680, Note_on_c, 1, 77, 127
1, 127680, Note_on_c, 1, 46, 127
1, 127808, Note_off_c, 1, 77, 0
1, 127808, Note_off_c, 1, 46, 0
1, 127872, Note_on_c, 1, 79, 127
1, 127872, Note_on_c, 1, 46, 127
1, 128000, Note_off_c, 1, 79, 0
1, 128000, Note_off_c, 1, 46, 0
1, 128064, Note_on_c, 1, 81, 127
1, 128064, Note_on_c, 1, 48, 127
1, 128192, Note_off_c, 1, 81, 0
1, 128192, Note_off_c, 1, 48, 0
1, 128256, Note_on_c, 1, 82, 127
1, 128256, Note_on_c, 1, 50, 127
1, 128348, Note_off_c, 1, 82, 0
1, 128352, Note_on_c, 1, 77, 127
1, 128444, Note_off_c, 1, 50, 0
1, 128444, Note_off_c, 1, 77, 0
1, 128448, Note_on_c, 1, 79, 127
1, 128448, Note_on_c, 1, 46, 127
1, 128540, Note_off_c, 1, 79, 0
1, 128544, Note_on_c, 1, 81, 127
1, 128636, Note_off_c, 1, 46, 0
1, 128636, Note_off_c, 1, 81, 0
1, 128640, Note_on_c, 1, 82, 127
1, 128640, Note_on_c, 1, 50, 127
1, 128732, Note_off_c, 1, 82, 0
1, 128736, Note_on_c, 1, 77, 127
1, 128828, Note_off_c, 1, 50, 0
1, 128828, Note_off_c, 1, 77, 0
1, 128832, Note_on_c, 1, 75, 127
1, 128832, Note_on_c, 1, 51, 127
1, 128924, Note_off_c, 1, 75, 0
1, 128928, Note_on_c, 1, 74, 127
1, 129020, Note_off_c, 1, 51, 0
1, 129020, Note_off_c, 1, 74, 0
1, 129024, Note_on_c, 1, 72, 127
1, 129024, Note_on_c, 1, 53, 127
1, 129088, Note_off_c, 1, 72, 0
1, 129120, Note_on_c, 1, 82, 127
1, 129212, Note_off_c, 1, 82, 0
1, 129216, Note_on_c, 1, 81, 127
1, 129308, Note_off_c, 1, 81, 0
1, 129312, Note_on_c, 1, 79, 127
1, 129404, Note_off_c, 1, 53, 0
1, 129404, Note_off_c, 1, 79, 0
1, 129408, Note_on_c, 1, 81, 127
1, 129472, Note_off_c, 1, 81, 0
1, 129504, Note_on_c, 1, 72, 127
1, 129504, Note_on_c, 1, 54, 127
1, 129568, Note_off_c, 1, 72, 0
1, 129596, Note_off_c, 1, 54, 0
1, 129600, Note_on_c, 1, 81, 127
1, 129600, Note_on_c, 1, 52, 127
1, 129664, Note_off_c, 1, 81, 0
1, 129692, Note_off_c, 1, 52, 0
1, 129696, Note_on_c, 1, 72, 127
1, 129696, Note_on_c, 1, 50, 127
1, 129760, Note_off_c, 1, 72, 0
1, 129788, Note_off_c, 1, 50, 0
1, 129792, Note_on_c, 1, 70, 127
1, 129792, Note_on_c, 1, 55, 127
1, 129856, Note_off_c, 1, 70, 0
1, 129888, Note_on_c, 1, 81, 127
1, 129980, Note_off_c, 1, 81, 0
1, 129984, Note_on_c, 1, 79, 127
1, 130048, Note_off_c, 1, 55, 0
1, 130076, Note_off_c, 1, 79, 0
1, 130080, Note_on_c, 1, 78, 127
1, 130172, Note_off_c, 1, 78, 0
1, 130176, Note_on_c, 1, 79, 127
1, 130240, Note_off_c, 1, 79, 0
1, 130272, Note_on_c, 1, 70, 127
1, 130272, Note_on_c, 1, 46, 127
1, 130336, Note_off_c, 1, 70, 0
1, 130364, Note_off_c, 1, 46, 0
1, 130368, Note_on_c, 1, 79, 127
1, 130368, Note_on_c, 1, 45, 127
1, 130432, Note_off_c, 1, 79, 0
1, 130460, Note_off_c, 1, 45, 0
1, 130464, Note_on_c, 1, 70, 127
1, 130464, Note_on_c, 1, 43, 127
1, 130528, Note_off_c, 1, 70, 0
1, 130556, Note_off_c, 1, 43, 0
1, 130560, Note_on_c, 1, 69, 127
1, 130560, Note_on_c, 1, 50, 127
1, 130624, Note_off_c, 1, 69, 0
1, 130656, Note_on_c, 1, 79, 127
1, 130748, Note_off_c, 1, 79, 0
1, 130752, Note_on_c, 1, 77, 127
1, 130816, Note_off_c, 1, 50, 0
1, 130844, Note_off_c, 1, 77, 0
1, 130848, Note_on_c, 1, 76, 127
1, 130940, Note_off_c, 1, 76, 0
1, 130944, Note_on_c, 1, 77, 127
1, 131036, Note_off_c, 1, 77, 0
1, 131040, Note_on_c, 1, 69, 127
1, 131040, Note_on_c, 1, 51, 127
1, 131132, Note_off_c, 1, 69, 0
1, 131132, Note_off_c, 1, 51, 0
1, 131136, Note_on_c, 1, 70, 127
1, 131136, Note_on_c, 1, 50, 127
1, 131228, Note_off_c, 1, 70, 0
1, 131228, Note_off_c, 1, 50, 0
1, 131232, Note_on_c, 1, 72, 127
1, 131232, Note_on_c, 1, 48, 127
1, 131324, Note_off_c, 1, 72, 0
1, 131324, Note_off_c, 1, 48, 0
1, 131328, Note_on_c, 1, 74, 127
1, 131328, Note_on_c, 1, 46, 127
1, 131392, Note_off_c, 1, 74, 0
1, 131420, Note_off_c, 1, 46, 0
1, 131424, Note_on_c, 1, 82, 127
1, 131424, Note_on_c, 1, 45, 127
1, 131488, Note_off_c, 1, 82, 0
1, 131516, Note_off_c, 1, 45, 0
1, 131520, Note_on_c, 1, 72, 127
1, 131520, Note_on_c, 1, 46, 127
1, 131584, Note_off_c, 1, 72, 0
1, 131612, Note_off_c, 1, 46, 0
1, 131616, Note_on_c, 1, 81, 127
1, 131616, Note_on_c, 1, 48, 127
1, 131680, Note_off_c, 1, 81, 0
1, 131708, Note_off_c, 1, 48, 0
1, 131712, Note_on_c, 1, 70, 127
1, 131712, Note_on_c, 1, 50, 127
1, 131776, Note_off_c, 1, 70, 0
1, 131804, Note_off_c, 1, 50, 0
1, 131808, Note_on_c, 1, 79, 127
1, 131808, Note_on_c, 1, 48, 127
1, 131872, Note_off_c, 1, 79, 0
1, 131900, Note_off_c, 1, 48, 0
1, 131904, Note_on_c, 1, 69, 127
1, 131904, Note_on_c, 1, 50, 127
1, 131968, Note_off_c, 1, 69, 0
1, 131996, Note_off_c, 1, 50, 0
1, 132000, Note_on_c, 1, 77, 127
1, 132000, Note_on_c, 1, 46, 127
1, 132064, Note_off_c, 1, 77, 0
1, 132092, Note_off_c, 1, 46, 0
1, 132096, Note_on_c, 1, 67, 127
1, 132096, Note_on_c, 1, 48, 127
1, 132188, Note_off_c, 1, 67, 0
1, 132188, Note_off_c, 1, 48, 0
1, 132192, Note_on_c, 1, 70, 127
1, 132192, Note_on_c, 1, 46, 127
1, 132284, Note_off_c, 1, 70, 0
1, 132284, Note_off_c, 1, 46, 0
1, 132288, Note_on_c, 1, 77, 127
1, 132288, Note_on_c, 1, 45, 127
1, 132380, Note_off_c, 1, 77, 0
1, 132380, Note_off_c, 1, 45, 0
1, 132384, Note_on_c, 1, 70, 127
1, 132384, Note_on_c, 1, 46, 127
1, 132448, Note_off_c, 1, 70, 0
1, 132476, Note_off_c, 1, 46, 0
1, 132480, Note_on_c, 1, 67, 127
1, 132480, Note_on_c, 1, 48, 127
1, 132572, Note_off_c, 1, 67, 0
1, 132572, Note_off_c, 1, 48, 0
1, 132576, Note_on_c, 1, 70, 127
1, 132576, Note_on_c, 1, 46, 127
1, 132668, Note_off_c, 1, 70, 0
1, 132668, Note_off_c, 1, 46, 0
1, 132672, Note_on_c, 1, 76, 127
1, 132672, Note_on_c, 1, 48, 127
1, 132764, Note_off_c, 1, 76, 0
1, 132764, Note_off_c, 1, 48, 0
1, 132768, Note_on_c, 1, 70, 127
1, 132768, Note_on_c, 1, 36, 127
1, 132832, Note_off_c, 1, 70, 0
1, 132860, Note_off_c, 1, 36, 0
1, 132864, Note_on_c, 1, 41, 127
1, 132864, Note_on_c, 1, 77, 127
1, 132956, Note_off_c, 1, 77, 0
1, 132960, Note_on_c, 1, 72, 127
1, 133052, Note_off_c, 1, 41, 0
1, 133052, Note_off_c, 1, 72, 0
1, 133056, Note_on_c, 1, 69, 127
1, 133148, Note_off_c, 1, 69, 0
1, 133152, Note_on_c, 1, 65, 127
1, 133244, Note_off_c, 1, 65, 0
1, 133248, Note_on_c, 1, 69, 127
1, 133248, Note_on_c, 1, 53, 127
1, 133312, Note_off_c, 1, 69, 0
1, 133344, Note_on_c, 1, 77, 127
1, 133408, Note_off_c, 1, 77, 0
1, 133436, Note_off_c, 1, 53, 0
1, 133440, Note_on_c, 1, 69, 127
1, 133504, Note_off_c, 1, 69, 0
1, 133536, Note_on_c, 1, 77, 127
1, 133600, Note_off_c, 1, 77, 0
1, 133632, Note_on_c, 1, 70, 127
1, 133632, Note_on_c, 1, 55, 127
1, 133696, Note_off_c, 1, 70, 0
1, 133728, Note_on_c, 1, 77, 127
1, 133792, Note_off_c, 1, 77, 0
1, 133820, Note_off_c, 1, 55, 0
1, 133824, Note_on_c, 1, 70, 127
1, 133888, Note_off_c, 1, 70, 0
1, 133920, Note_on_c, 1, 77, 127
1, 133984, Note_off_c, 1, 77, 0
1, 134016, Note_on_c, 1, 70, 127
1, 134016, Note_on_c, 1, 43, 127
1, 134080, Note_off_c, 1, 70, 0
1, 134112, Note_on_c, 1, 77, 127
1, 134176, Note_off_c, 1, 77, 0
1, 134204, Note_off_c, 1, 43, 0
1, 134208, Note_on_c, 1, 70, 127
1, 134272, Note_off_c, 1, 70, 0
1, 134304, Note_on_c, 1, 77, 127
1, 134368, Note_off_c, 1, 77, 0
1, 134400, Note_on_c, 1, 72, 127
1, 134400, Note_on_c, 1, 45, 127
1, 134464, Note_off_c, 1, 72, 0
1, 134496, Note_on_c, 1, 77, 127
1, 134528, Note_off_c, 1, 45, 0
1, 134560, Note_off_c, 1, 77, 0
1, 134592, Note_on_c, 1, 72, 127
1, 134656, Note_off_c, 1, 72, 0
1, 134688, Note_on_c, 1, 77, 127
1, 134752, Note_off_c, 1, 77, 0
1, 134784, Note_on_c, 1, 72, 127
1, 134784, Note_on_c, 1, 57, 127
1, 134848, Note_off_c, 1, 72, 0
1, 134880, Note_on_c, 1, 77, 127
1, 134912, Note_off_c, 1, 57, 0
1, 134944, Note_off_c, 1, 77, 0
1, 134976, Note_on_c, 1, 72, 127
1, 135040, Note_off_c, 1, 72, 0
1, 135072, Note_on_c, 1, 77, 127
1, 135136, Note_off_c, 1, 77, 0
1, 135168, Note_on_c, 1, 74, 127
1, 135168, Note_on_c, 1, 58, 127
1, 135232, Note_off_c, 1, 74, 0
1, 135264, Note_on_c, 1, 77, 127
1, 135296, Note_off_c, 1, 58, 0
1, 135328, Note_off_c, 1, 77, 0
1, 135360, Note_on_c, 1, 74, 127
1, 135424, Note_off_c, 1, 74, 0
1, 135456, Note_on_c, 1, 77, 127
1, 135520, Note_off_c, 1, 77, 0
1, 135552, Note_on_c, 1, 74, 127
1, 135552, Note_on_c, 1, 46, 127
1, 135616, Note_off_c, 1, 74, 0
1, 135648, Note_on_c, 1, 77, 127
1, 135680, Note_off_c, 1, 46, 0
1, 135712, Note_off_c, 1, 77, 0
1, 135744, Note_on_c, 1, 74, 127
1, 135808, Note_off_c, 1, 74, 0
1, 135840, Note_on_c, 1, 77, 127
1, 135904, Note_off_c, 1, 77, 0
1, 135936, Note_on_c, 1, 74, 127
1, 135936, Note_on_c, 1, 59, 127
1, 136028, Note_off_c, 1, 74, 0
1, 136032, Note_on_c, 1, 79, 127
1, 136124, Note_off_c, 1, 59, 0
1, 136124, Note_off_c, 1, 79, 0
1, 136128, Note_on_c, 1, 74, 127
1, 136220, Note_off_c, 1, 74, 0
1, 136224, Note_on_c, 1, 79, 127
1, 136316, Note_off_c, 1, 79, 0
1, 136320, Note_on_c, 1, 74, 127
1, 136320, Note_on_c, 1, 47, 127
1, 136412, Note_off_c, 1, 74, 0
1, 136416, Note_on_c, 1, 79, 127
1, 136508, Note_off_c, 1, 47, 0
1, 136508, Note_off_c, 1, 79, 0
1, 136512, Note_on_c, 1, 74, 127
1, 136604, Note_off_c, 1, 74, 0
1, 136608, Note_on_c, 1, 79, 127
1, 136700, Note_off_c, 1, 79, 0
1, 136704, Note_on_c, 1, 76, 127
1, 136704, Note_on_c, 1, 60, 127
1, 136796, Note_off_c, 1, 76, 0
1, 136800, Note_on_c, 1, 79, 127
1, 136892, Note_off_c, 1, 60, 0
1, 136892, Note_off_c, 1, 79, 0
1, 136896, Note_on_c, 1, 76, 127
1, 136988, Note_off_c, 1, 76, 0
1, 136992, Note_on_c, 1, 79, 127
1, 137084, Note_off_c, 1, 79, 0
1, 137088, Note_on_c, 1, 76, 127
1, 137088, Note_on_c, 1, 48, 127
1, 137180, Note_off_c, 1, 76, 0
1, 137184, Note_on_c, 1, 79, 127
1, 137276, Note_off_c, 1, 48, 0
1, 137276, Note_off_c, 1, 79, 0
1, 137280, Note_on_c, 1, 76, 127
1, 137372, Note_off_c, 1, 76, 0
1, 137376, Note_on_c, 1, 79, 127
1, 137468, Note_off_c, 1, 79, 0
1, 137472, Note_on_c, 1, 72, 127
1, 137472, Note_on_c, 1, 57, 127
1, 137564, Note_off_c, 1, 72, 0
1, 137568, Note_on_c, 1, 77, 127
1, 137660, Note_off_c, 1, 57, 0
1, 137660, Note_off_c, 1, 77, 0
1, 137664, Note_on_c, 1, 72, 127
1, 137756, Note_off_c, 1, 72, 0
1, 137760, Note_on_c, 1, 77, 127
1, 137852, Note_off_c, 1, 77, 0
1, 137856, Note_on_c, 1, 72, 127
1, 137856, Note_on_c, 1, 45, 127
1, 137948, Note_off_c, 1, 72, 0
1, 137952, Note_on_c, 1, 77, 127
1, 138044, Note_off_c, 1, 45, 0
1, 138044, Note_off_c, 1, 77, 0
1, 138048, Note_on_c, 1, 72, 127
1, 138140, Note_off_c, 1, 72, 0
1, 138144, Note_on_c, 1, 77, 127
1, 138236, Note_off_c, 1, 77, 0
1, 138240, Note_on_c, 1, 74, 127
1, 138240, Note_on_c, 1, 58, 127
1, 138332, Note_off_c, 1, 74, 0
1, 138336, Note_on_c, 1, 77, 127
1, 138428, Note_off_c, 1, 58, 0
1, 138428, Note_off_c, 1, 77, 0
1, 138432, Note_on_c, 1, 72, 127
1, 138524, Note_off_c, 1, 72, 0
1, 138528, Note_on_c, 1, 77, 127
1, 138620, Note_off_c, 1, 77, 0
1, 138624, Note_on_c, 1, 70, 127
1, 138624, Note_on_c, 1, 46, 127
1, 138716, Note_off_c, 1, 70, 0
1, 138720, Note_on_c, 1, 77, 127
1, 138812, Note_off_c, 1, 46, 0
1, 138812, Note_off_c, 1, 77, 0
1, 138816, Note_on_c, 1, 69, 127
1, 138908, Note_off_c, 1, 69, 0
1, 138912, Note_on_c, 1, 77, 127
1, 139004, Note_off_c, 1, 77, 0
1, 139008, Note_on_c, 1, 67, 127
1, 139008, Note_on_c, 1, 60, 127
1, 139100, Note_off_c, 1, 67, 0
1, 139104, Note_on_c, 1, 77, 127
1, 139196, Note_off_c, 1, 60, 0
1, 139196, Note_off_c, 1, 77, 0
1, 139200, Note_on_c, 1, 69, 127
1, 139292, Note_off_c, 1, 69, 0
1, 139296, Note_on_c, 1, 77, 127
1, 139388, Note_off_c, 1, 77, 0
1, 139392, Note_on_c, 1, 70, 127
1, 139392, Note_on_c, 1, 48, 127
1, 139456, Note_off_c, 1, 70, 0
1, 139488, Note_on_c, 1, 76, 127
1, 139552, Note_off_c, 1, 76, 0
1, 139580, Note_off_c, 1, 48, 0
1, 139584, Note_on_c, 1, 72, 127
1, 139648, Note_off_c, 1, 72, 0
1, 139680, Note_on_c, 1, 76, 127
1, 139744, Note_off_c, 1, 76, 0
1, 139776, Note_on_c, 1, 65, 127
1, 139776, Note_on_c, 1, 53, 127
1, 139904, Note_off_c, 1, 65, 0
1, 139968, Note_on_c, 1, 77, 127
1, 140032, Note_off_c, 1, 53, 0
1, 140096, Note_off_c, 1, 77, 0
1, 140160, Note_on_c, 1, 77, 127
1, 140288, Note_off_c, 1, 77, 0
1, 140352, Note_on_c, 1, 79, 127
1, 140480, Note_off_c, 1, 79, 0
1, 140544, Note_on_c, 1, 81, 127
1, 140672, Note_off_c, 1, 81, 0
1, 140736, Note_on_c, 1, 77, 127
1, 140736, Note_on_c, 1, 53, 127
1, 140864, Note_off_c, 1, 77, 0
1, 140864, Note_off_c, 1, 53, 0
1, 140928, Note_on_c, 1, 81, 127
1, 140928, Note_on_c, 1, 53, 127
1, 141056, Note_off_c, 1, 81, 0
1, 141056, Note_off_c, 1, 53, 0
1, 141120, Note_on_c, 1, 82, 127
1, 141120, Note_on_c, 1, 55, 127
1, 141248, Note_off_c, 1, 82, 0
1, 141248, Note_off_c, 1, 55, 0
1, 141312, Note_on_c, 1, 84, 127
1, 141312, Note_on_c, 1, 57, 127
1, 141404, Note_off_c, 1, 84, 0
1, 141408, Note_on_c, 1, 82, 127
1, 141500, Note_off_c, 1, 57, 0
1, 141500, Note_off_c, 1, 82, 0
1, 141504, Note_on_c, 1, 81, 127
1, 141504, Note_on_c, 1, 53, 127
1, 141596, Note_off_c, 1, 81, 0
1, 141600, Note_on_c, 1, 82, 127
1, 141692, Note_off_c, 1, 53, 0
1, 141692, Note_off_c, 1, 82, 0
1, 141696, Note_on_c, 1, 84, 127
1, 141696, Note_on_c, 1, 55, 127
1, 141760, Note_off_c, 1, 84, 0
1, 141792, Note_on_c, 1, 79, 127
1, 141884, Note_off_c, 1, 55, 0
1, 141884, Note_off_c, 1, 79, 0
1, 141888, Note_on_c, 1, 77, 127
1, 141888, Note_on_c, 1, 57, 127
1, 141980, Note_off_c, 1, 77, 0
1, 141984, Note_on_c, 1, 75, 127
1, 142076, Note_off_c, 1, 57, 0
1, 142076, Note_off_c, 1, 75, 0
1, 142080, Note_on_c, 1, 74, 127
1, 142080, Note_on_c, 1, 58, 127
1, 142144, Note_off_c, 1, 74, 0
1, 142176, Note_on_c, 1, 84, 127
1, 142268, Note_off_c, 1, 84, 0
1, 142272, Note_on_c, 1, 82, 127
1, 142364, Note_off_c, 1, 82, 0
1, 142368, Note_on_c, 1, 81, 127
1, 142460, Note_off_c, 1, 58, 0
1, 142460, Note_off_c, 1, 81, 0
1, 142464, Note_on_c, 1, 82, 127
1, 142528, Note_off_c, 1, 82, 0
1, 142560, Note_on_c, 1, 74, 127
1, 142560, Note_on_c, 1, 50, 127
1, 142624, Note_off_c, 1, 74, 0
1, 142652, Note_off_c, 1, 50, 0
1, 142656, Note_on_c, 1, 82, 127
1, 142656, Note_on_c, 1, 48, 127
1, 142720, Note_off_c, 1, 82, 0
1, 142748, Note_off_c, 1, 48, 0
1, 142752, Note_on_c, 1, 74, 127
1, 142752, Note_on_c, 1, 46, 127
1, 142816, Note_off_c, 1, 74, 0
1, 142844, Note_off_c, 1, 46, 0
1, 142848, Note_on_c, 1, 72, 127
1, 142848, Note_on_c, 1, 53, 127
1, 142912, Note_off_c, 1, 72, 0
1, 142944, Note_on_c, 1, 82, 127
1, 143036, Note_off_c, 1, 82, 0
1, 143040, Note_on_c, 1, 81, 127
1, 143132, Note_off_c, 1, 81, 0
1, 143136, Note_on_c, 1, 79, 127
1, 143228, Note_off_c, 1, 53, 0
1, 143228, Note_off_c, 1, 79, 0
1, 143232, Note_on_c, 1, 81, 127
1, 143296, Note_off_c, 1, 81, 0
1, 143328, Note_on_c, 1, 72, 127
1, 143328, Note_on_c, 1, 50, 127
1, 143392, Note_off_c, 1, 72, 0
1, 143420, Note_off_c, 1, 50, 0
1, 143424, Note_on_c, 1, 81, 127
1, 143424, Note_on_c, 1, 52, 127
1, 143488, Note_off_c, 1, 81, 0
1, 143516, Note_off_c, 1, 52, 0
1, 143520, Note_on_c, 1, 72, 127
1, 143520, Note_on_c, 1, 53, 127
1, 143584, Note_off_c, 1, 72, 0
1, 143612, Note_off_c, 1, 53, 0
1, 143616, Note_on_c, 1, 70, 127
1, 143616, Note_on_c, 1, 55, 127
1, 143680, Note_off_c, 1, 70, 0
1, 143712, Note_on_c, 1, 81, 127
1, 143804, Note_off_c, 1, 81, 0
1, 143808, Note_on_c, 1, 79, 127
1, 143900, Note_off_c, 1, 79, 0
1, 143904, Note_on_c, 1, 77, 127
1, 143996, Note_off_c, 1, 55, 0
1, 143996, Note_off_c, 1, 77, 0
1, 144000, Note_on_c, 1, 79, 127
1, 144064, Note_off_c, 1, 79, 0
1, 144096, Note_on_c, 1, 70, 127
1, 144096, Note_on_c, 1, 52, 127
1, 144160, Note_off_c, 1, 70, 0
1, 144188, Note_off_c, 1, 52, 0
1, 144192, Note_on_c, 1, 79, 127
1, 144192, Note_on_c, 1, 50, 127
1, 144256, Note_off_c, 1, 79, 0
1, 144284, Note_off_c, 1, 50, 0
1, 144288, Note_on_c, 1, 70, 127
1, 144288, Note_on_c, 1, 48, 127
1, 144352, Note_off_c, 1, 70, 0
1, 144380, Note_off_c, 1, 48, 0
1, 144384, Note_on_c, 1, 69, 127
1, 144384, Note_on_c, 1, 53, 127
1, 144476, Note_off_c, 1, 69, 0
1, 144480, Note_on_c, 1, 79, 127
1, 144572, Note_off_c, 1, 79, 0
1, 144576, Note_on_c, 1, 77, 127
1, 144668, Note_off_c, 1, 77, 0
1, 144672, Note_on_c, 1, 76, 127
1, 144764, Note_off_c, 1, 53, 0
1, 144764, Note_off_c, 1, 76, 0
1, 144768, Note_on_c, 1, 77, 127
1, 144860, Note_off_c, 1, 77, 0
1, 144864, Note_on_c, 1, 69, 127
1, 144864, Note_on_c, 1, 45, 127
1, 144956, Note_off_c, 1, 69, 0
1, 144956, Note_off_c, 1, 45, 0
1, 144960, Note_on_c, 1, 77, 127
1, 144960, Note_on_c, 1, 43, 127
1, 145052, Note_off_c, 1, 77, 0
1, 145052, Note_off_c, 1, 43, 0
1, 145056, Note_on_c, 1, 69, 127
1, 145056, Note_on_c, 1, 41, 127
1, 145148, Note_off_c, 1, 69, 0
1, 145148, Note_off_c, 1, 41, 0
1, 145152, Note_on_c, 1, 67, 127
1, 145152, Note_on_c, 1, 46, 127
1, 145244, Note_off_c, 1, 67, 0
1, 145244, Note_off_c, 1, 46, 0
1, 145248, Note_on_c, 1, 70, 127
1, 145248, Note_on_c, 1, 43, 127
1, 145340, Note_off_c, 1, 70, 0
1, 145340, Note_off_c, 1, 43, 0
1, 145344, Note_on_c, 1, 77, 127
1, 145344, Note_on_c, 1, 45, 127
1, 145436, Note_off_c, 1, 77, 0
1, 145436, Note_off_c, 1, 45, 0
1, 145440, Note_on_c, 1, 70, 127
1, 145440, Note_on_c, 1, 46, 127
1, 145504, Note_off_c, 1, 70, 0
1, 145532, Note_off_c, 1, 46, 0
1, 145536, Note_on_c, 1, 67, 127
1, 145536, Note_on_c, 1, 48, 127
1, 145628, Note_off_c, 1, 67, 0
1, 145628, Note_off_c, 1, 48, 0
1, 145632, Note_on_c, 1, 70, 127
1, 145632, Note_on_c, 1, 46, 127
1, 145724, Note_off_c, 1, 70, 0
1, 145724, Note_off_c, 1, 46, 0
1, 145728, Note_on_c, 1, 76, 127
1, 145728, Note_on_c, 1, 48, 127
1, 145820, Note_off_c, 1, 76, 0
1, 145820, Note_off_c, 1, 48, 0
1, 145824, Note_on_c, 1, 70, 127
1, 145824, Note_on_c, 1, 36, 127
1, 145888, Note_off_c, 1, 70, 0
1, 145916, Note_off_c, 1, 36, 0
1, 145920, Note_on_c, 1, 41, 127
1, 145920, Note_on_c, 1, 69, 127
1, 145976, Note_on_c, 1, 72, 127
1, 145996, Note_off_c, 1, 69, 0
1, 146036, Note_on_c, 1, 74, 127
1, 146052, Note_off_c, 1, 72, 0
1, 146096, Note_on_c, 1, 76, 127
1, 146112, Note_off_c, 1, 74, 0
1, 146156, Note_on_c, 1, 77, 127
1, 146160, Note_off_c, 1, 76, 0
1, 146280, Note_off_c, 1, 77, 0
1, 146300, Note_off_c, 1, 41, 0
1, 146304, Note_on_c, 1, 69, 127
1, 146304, Note_on_c, 1, 53, 127
1, 146392, Note_off_c, 1, 69, 0
1, 146420, Note_on_c, 1, 72, 127
1, 146508, Note_off_c, 1, 72, 0
1, 146540, Note_on_c, 1, 77, 127
1, 146560, Note_off_c, 1, 53, 0
1, 146668, Note_off_c, 1, 77, 0
1, 146688, Note_on_c, 1, 74, 127
1, 146688, Note_on_c, 1, 46, 127
1, 146744, Note_on_c, 1, 77, 127
1, 146764, Note_off_c, 1, 74, 0
1, 146804, Note_on_c, 1, 79, 127
1, 146820, Note_off_c, 1, 77, 0
1, 146864, Note_on_c, 1, 81, 127
1, 146880, Note_off_c, 1, 79, 0
1, 146924, Note_on_c, 1, 82, 127
1, 146928, Note_off_c, 1, 81, 0
1, 146944, Note_off_c, 1, 46, 0
1, 147048, Note_off_c, 1, 82, 0
1, 147072, Note_on_c, 1, 74, 127
1, 147160, Note_off_c, 1, 74, 0
1, 147188, Note_on_c, 1, 77, 127
1, 147276, Note_off_c, 1, 77, 0
1, 147308, Note_on_c, 1, 82, 127
1, 147440, Note_off_c, 1, 82, 0
1, 147456, Note_on_c, 1, 74, 127
1, 147456, Note_on_c, 1, 43, 127
1, 147512, Note_on_c, 1, 76, 127
1, 147532, Note_off_c, 1, 74, 0
1, 147572, Note_on_c, 1, 79, 127
1, 147588, Note_off_c, 1, 76, 0
1, 147632, Note_on_c, 1, 81, 127
1, 147648, Note_off_c, 1, 79, 0
1, 147692, Note_on_c, 1, 82, 127
1, 147696, Note_off_c, 1, 81, 0
1, 147712, Note_off_c, 1, 43, 0
1, 147816, Note_off_c, 1, 82, 0
1, 147840, Note_on_c, 1, 74, 127
1, 147928, Note_off_c, 1, 74, 0
1, 147956, Note_on_c, 1, 76, 127
1, 148044, Note_off_c, 1, 76, 0
1, 148076, Note_on_c, 1, 82, 127
1, 148188, Note_off_c, 1, 82, 0
1, 148224, Note_on_c, 1, 45, 127
1, 148256, Note_on_c, 1, 72, 127
1, 148312, Note_on_c, 1, 76, 127
1, 148332, Note_off_c, 1, 72, 0
1, 148372, Note_on_c, 1, 77, 127
1, 148388, Note_off_c, 1, 76, 0
1, 148432, Note_on_c, 1, 79, 127
1, 148448, Note_off_c, 1, 77, 0
1, 148480, Note_off_c, 1, 45, 0
1, 148492, Note_on_c, 1, 81, 127
1, 148496, Note_off_c, 1, 79, 0
1, 148616, Note_off_c, 1, 81, 0
1, 148640, Note_on_c, 1, 72, 127
1, 148728, Note_off_c, 1, 72, 0
1, 148756, Note_on_c, 1, 76, 127
1, 148844, Note_off_c, 1, 76, 0
1, 148876, Note_on_c, 1, 81, 127
1, 148992, Note_on_c, 1, 72, 127
1, 148992, Note_on_c, 1, 50, 127
1, 149004, Note_off_c, 1, 81, 0
1, 149048, Note_on_c, 1, 74, 127
1, 149068, Note_off_c, 1, 72, 0
1, 149108, Note_on_c, 1, 78, 127
1, 149124, Note_off_c, 1, 74, 0
1, 149168, Note_on_c, 1, 79, 127
1, 149184, Note_off_c, 1, 78, 0
1, 149232, Note_off_c, 1, 79, 0
1, 149248, Note_off_c, 1, 50, 0
1, 149376, Note_on_c, 1, 72, 127
1, 149464, Note_off_c, 1, 72, 0
1, 149492, Note_on_c, 1, 78, 127
1, 149580, Note_off_c, 1, 78, 0
1, 149612, Note_on_c, 1, 81, 127
1, 149716, Note_off_c, 1, 81, 0
1, 149760, Note_on_c, 1, 70, 127
1, 149760, Note_on_c, 1, 43, 127
1, 149816, Note_on_c, 1, 74, 127
1, 149836, Note_off_c, 1, 70, 0
1, 149876, Note_on_c, 1, 76, 127
1, 149892, Note_off_c, 1, 74, 0
1, 149936, Note_on_c, 1, 78, 127
1, 149952, Note_off_c, 1, 76, 0
1, 149996, Note_on_c, 1, 79, 127
1, 150000, Note_off_c, 1, 78, 0
1, 150016, Note_off_c, 1, 43, 0
1, 150120, Note_off_c, 1, 79, 0
1, 150144, Note_on_c, 1, 70, 127
1, 150232, Note_off_c, 1, 70, 0
1, 150260, Note_on_c, 1, 74, 127
1, 150348, Note_off_c, 1, 74, 0
1, 150380, Note_on_c, 1, 79, 127
1, 150480, Note_off_c, 1, 79, 0
1, 150528, Note_on_c, 1, 73, 127
1, 150528, Note_on_c, 1, 45, 127
1, 150584, Note_on_c, 1, 74, 127
1, 150604, Note_off_c, 1, 73, 0
1, 150644, Note_on_c, 1, 76, 127
1, 150660, Note_off_c, 1, 74, 0
1, 150704, Note_on_c, 1, 77, 127
1, 150720, Note_off_c, 1, 76, 0
1, 150764, Note_on_c, 1, 79, 127
1, 150768, Note_off_c, 1, 77, 0
1, 150784, Note_off_c, 1, 45, 0
1, 150888, Note_off_c, 1, 79, 0
1, 150912, Note_on_c, 1, 73, 127
1, 151000, Note_off_c, 1, 73, 0
1, 151028, Note_on_c, 1, 76, 127
1, 151116, Note_off_c, 1, 76, 0
1, 151148, Note_on_c, 1, 79, 127
1, 151248, Note_off_c, 1, 79, 0
1, 151296, Note_on_c, 1, 77, 127
1, 151296, Note_on_c, 1, 50, 127
1, 151352, Note_on_c, 1, 76, 127
1, 151372, Note_off_c, 1, 77, 0
1, 151412, Note_on_c, 1, 74, 127
1, 151428, Note_off_c, 1, 76, 0
1, 151472, Note_on_c, 1, 73, 127
1, 151488, Note_off_c, 1, 74, 0
1, 151536, Note_off_c, 1, 73, 0
1, 151552, Note_off_c, 1, 50, 0
1, 151680, Note_on_c, 1, 69, 127
1, 151768, Note_off_c, 1, 69, 0
1, 151796, Note_on_c, 1, 74, 127
1, 151884, Note_off_c, 1, 74, 0
1, 151916, Note_on_c, 1, 77, 127
1, 152016, Note_off_c, 1, 77, 0
1, 152064, Note_on_c, 1, 82, 127
1, 152064, Note_on_c, 1, 55, 127
1, 152120, Note_on_c, 1, 81, 127
1, 152140, Note_off_c, 1, 82, 0
1, 152180, Note_on_c, 1, 79, 127
1, 152196, Note_off_c, 1, 81, 0
1, 152240, Note_on_c, 1, 78, 127
1, 152256, Note_off_c, 1, 79, 0
1, 152304, Note_off_c, 1, 78, 0
1, 152320, Note_off_c, 1, 55, 0
1, 152448, Note_on_c, 1, 74, 127
1, 152536, Note_off_c, 1, 74, 0
1, 152564, Note_on_c, 1, 79, 127
1, 152652, Note_off_c, 1, 79, 0
1, 152684, Note_on_c, 1, 82, 127
1, 152784, Note_off_c, 1, 82, 0
1, 152832, Note_on_c, 1, 81, 127
1, 152832, Note_on_c, 1, 53, 127
1, 152888, Note_on_c, 1, 79, 127
1, 152908, Note_off_c, 1, 81, 0
1, 152948, Note_on_c, 1, 77, 127
1, 152964, Note_off_c, 1, 79, 0
1, 153008, Note_on_c, 1, 76, 127
1, 153024, Note_off_c, 1, 77, 0
1, 153072, Note_off_c, 1, 76, 0
1, 153088, Note_off_c, 1, 53, 0
1, 153216, Note_on_c, 1, 74, 127
1, 153304, Note_off_c, 1, 74, 0
1, 153332, Note_on_c, 1, 77, 127
1, 153420, Note_off_c, 1, 77, 0
1, 153452, Note_on_c, 1, 81, 127
1, 153552, Note_off_c, 1, 81, 0
1, 153600, Note_on_c, 1, 80, 127
1, 153600, Note_on_c, 1, 52, 127
1, 153656, Note_on_c, 1, 78, 127
1, 153676, Note_off_c, 1, 80, 0
1, 153716, Note_on_c, 1, 76, 127
1, 153732, Note_off_c, 1, 78, 0
1, 153776, Note_on_c, 1, 74, 127
1, 153792, Note_off_c, 1, 76, 0
1, 153840, Note_off_c, 1, 74, 0
1, 153856, Note_off_c, 1, 52, 0
1, 153984, Note_on_c, 1, 74, 127
1, 154072, Note_off_c, 1, 74, 0
1, 154100, Note_on_c, 1, 76, 127
1, 154188, Note_off_c, 1, 76, 0
1, 154220, Note_on_c, 1, 80, 127
1, 154336, Note_off_c, 1, 80, 0
1, 154368, Note_on_c, 1, 72, 127
1, 154368, Note_on_c, 1, 53, 127
1, 154424, Note_on_c, 1, 76, 127
1, 154444, Note_off_c, 1, 72, 0
1, 154484, Note_on_c, 1, 77, 127
1, 154500, Note_off_c, 1, 76, 0
1, 154544, Note_on_c, 1, 79, 127
1, 154560, Note_off_c, 1, 77, 0
1, 154604, Note_on_c, 1, 81, 127
1, 154608, Note_off_c, 1, 79, 0
1, 154624, Note_off_c, 1, 53, 0
1, 154728, Note_off_c, 1, 81, 0
1, 154752, Note_on_c, 1, 72, 127
1, 154840, Note_off_c, 1, 72, 0
1, 154868, Note_on_c, 1, 77, 127
1, 154956, Note_off_c, 1, 77, 0
1, 154988, Note_on_c, 1, 81, 127
1, 155088, Note_off_c, 1, 81, 0
1, 155136, Note_on_c, 1, 81, 127
1, 155136, Note_on_c, 1, 50, 127
1, 155192, Note_on_c, 1, 79, 127
1, 155212, Note_off_c, 1, 81, 0
1, 155252, Note_on_c, 1, 77, 127
1, 155268, Note_off_c, 1, 79, 0
1, 155312, Note_on_c, 1, 76, 127
1, 155328, Note_off_c, 1, 77, 0
1, 155376, Note_off_c, 1, 76, 0
1, 155392, Note_off_c, 1, 50, 0
1, 155520, Note_on_c, 1, 71, 127
1, 155608, Note_off_c, 1, 71, 0
1, 155636, Note_on_c, 1, 77, 127
1, 155724, Note_off_c, 1, 77, 0
1, 155756, Note_on_c, 1, 81, 127
1, 155856, Note_off_c, 1, 81, 0
1, 155904, Note_on_c, 1, 71, 127
1, 155904, Note_on_c, 1, 52, 127
1, 155960, Note_on_c, 1, 74, 127
1, 155980, Note_off_c, 1, 71, 0
1, 156020, Note_on_c, 1, 76, 127
1, 156036, Note_off_c, 1, 74, 0
1, 156080, Note_on_c, 1, 78, 127
1, 156096, Note_off_c, 1, 76, 0
1, 156140, Note_on_c, 1, 80, 127
1, 156144, Note_off_c, 1, 78, 0
1, 156160, Note_off_c, 1, 52, 0
1, 156264, Note_off_c, 1, 80, 0
1, 156288, Note_on_c, 1, 71, 127
1, 156376, Note_off_c, 1, 71, 0
1, 156404, Note_on_c, 1, 74, 127
1, 156492, Note_off_c, 1, 74, 0
1, 156524, Note_on_c, 1, 80, 127
1, 156624, Note_off_c, 1, 80, 0
1, 156672, Note_on_c, 1, 81, 127
1, 156672, Note_on_c, 1, 45, 127
1, 156800, Note_off_c, 1, 81, 0
1, 156864, Note_on_c, 1, 69, 127
1, 156928, Note_off_c, 1, 45, 0
1, 156992, Note_off_c, 1, 69, 0
1, 157056, Note_on_c, 1, 69, 127
1, 157184, Note_off_c, 1, 69, 0
1, 157248, Note_on_c, 1, 71, 127
1, 157376, Note_off_c, 1, 71, 0
1, 157440, Note_on_c, 1, 72, 127
1, 157568, Note_off_c, 1, 72, 0
1, 157632, Note_on_c, 1, 69, 127
1, 157632, Note_on_c, 1, 45, 127
1, 157760, Note_off_c, 1, 45, 0
1, 157820, Note_off_c, 1, 69, 0
1, 157824, Note_on_c, 1, 72, 127
1, 157824, Note_on_c, 1, 45, 127
1, 158012, Note_off_c, 1, 72, 0
1, 158012, Note_off_c, 1, 45, 0
1, 158016, Note_on_c, 1, 74, 127
1, 158016, Note_on_c, 1, 47, 127
1, 158204, Note_off_c, 1, 74, 0
1, 158204, Note_off_c, 1, 47, 0
1, 158208, Note_on_c, 1, 48, 127
1, 158208, Note_on_c, 1, 76, 127
1, 158396, Note_off_c, 1, 48, 0
1, 158400, Note_off_c, 1, 76, 0
1, 158400, Note_on_c, 1, 45, 127
1, 158400, Note_on_c, 1, 64, 127
1, 158528, Note_off_c, 1, 64, 0
1, 158588, Note_off_c, 1, 45, 0
1, 158592, Note_on_c, 1, 48, 127
1, 158592, Note_on_c, 1, 64, 127
1, 158688, Note_on_c, 1, 76, 127
1, 158780, Note_off_c, 1, 48, 0
1, 158780, Note_off_c, 1, 64, 0
1, 158784, Note_on_c, 1, 50, 127
1, 158784, Note_on_c, 1, 65, 127
1, 158816, Note_off_c, 1, 76, 0
1, 158972, Note_off_c, 1, 50, 0
1, 158972, Note_off_c, 1, 65, 0
1, 158976, Note_on_c, 1, 52, 127
1, 158976, Note_on_c, 1, 67, 127
1, 159072, Note_on_c, 1, 76, 127
1, 159164, Note_off_c, 1, 52, 0
1, 159164, Note_off_c, 1, 67, 0
1, 159168, Note_on_c, 1, 55, 127
1, 159168, Note_on_c, 1, 64, 127
1, 159260, Note_off_c, 1, 76, 0
1, 159260, Note_off_c, 1, 55, 0
1, 159264, Note_on_c, 1, 53, 127
1, 159356, Note_off_c, 1, 64, 0
1, 159356, Note_off_c, 1, 53, 0
1, 159360, Note_on_c, 1, 65, 127
1, 159456, Note_on_c, 1, 50, 127
1, 159548, Note_off_c, 1, 65, 0
1, 159548, Note_off_c, 1, 50, 0
1, 159552, Note_on_c, 1, 48, 127
1, 159644, Note_off_c, 1, 48, 0
1, 159648, Note_on_c, 1, 47, 127
1, 159740, Note_off_c, 1, 47, 0
1, 159744, Note_on_c, 1, 45, 127
1, 159744, Note_on_c, 1, 65, 127
1, 159840, Note_on_c, 1, 76, 127
1, 159932, Note_off_c, 1, 45, 0
1, 159932, Note_off_c, 1, 76, 0
1, 159936, Note_on_c, 1, 74, 127
1, 159936, Note_on_c, 1, 57, 127
1, 160028, Note_off_c, 1, 74, 0
1, 160032, Note_on_c, 1, 73, 127
1, 160124, Note_off_c, 1, 65, 0
1, 160124, Note_off_c, 1, 57, 0
1, 160124, Note_off_c, 1, 73, 0
1, 160128, Note_on_c, 1, 74, 127
1, 160128, Note_on_c, 1, 58, 127
1, 160220, Note_off_c, 1, 74, 0
1, 160224, Note_on_c, 1, 65, 127
1, 160316, Note_off_c, 1, 58, 0
1, 160316, Note_off_c, 1, 65, 0
1, 160320, Note_on_c, 1, 74, 127
1, 160320, Note_on_c, 1, 57, 127
1, 160412, Note_off_c, 1, 74, 0
1, 160416, Note_on_c, 1, 65, 127
1, 160508, Note_off_c, 1, 57, 0
1, 160508, Note_off_c, 1, 65, 0
1, 160512, Note_on_c, 1, 64, 127
1, 160512, Note_on_c, 1, 55, 127
1, 160604, Note_off_c, 1, 64, 0
1, 160608, Note_on_c, 1, 74, 127
1, 160700, Note_off_c, 1, 55, 0
1, 160700, Note_off_c, 1, 74, 0
1, 160704, Note_on_c, 1, 72, 127
1, 160704, Note_on_c, 1, 52, 127
1, 160796, Note_off_c, 1, 72, 0
1, 160800, Note_on_c, 1, 70, 127
1, 160892, Note_off_c, 1, 52, 0
1, 160892, Note_off_c, 1, 70, 0
1, 160896, Note_on_c, 1, 72, 127
1, 160896, Note_on_c, 1, 57, 127
1, 160988, Note_off_c, 1, 72, 0
1, 160992, Note_on_c, 1, 63, 127
1, 161084, Note_off_c, 1, 57, 0
1, 161084, Note_off_c, 1, 63, 0
1, 161088, Note_on_c, 1, 72, 127
1, 161088, Note_on_c, 1, 55, 127
1, 161180, Note_off_c, 1, 72, 0
1, 161184, Note_on_c, 1, 63, 127
1, 161276, Note_off_c, 1, 55, 0
1, 161276, Note_off_c, 1, 63, 0
1, 161280, Note_on_c, 1, 62, 127
1, 161280, Note_on_c, 1, 54, 127
1, 161344, Note_off_c, 1, 62, 0
1, 161376, Note_on_c, 1, 72, 127
1, 161468, Note_off_c, 1, 54, 0
1, 161468, Note_off_c, 1, 72, 0
1, 161472, Note_on_c, 1, 78, 127
1, 161472, Note_on_c, 1, 50, 127
1, 161564, Note_off_c, 1, 78, 0
1, 161568, Note_on_c, 1, 72, 127
1, 161660, Note_off_c, 1, 50, 0
1, 161660, Note_off_c, 1, 72, 0
1, 161664, Note_on_c, 1, 70, 127
1, 161664, Note_on_c, 1, 55, 127
1, 161756, Note_off_c, 1, 70, 0
1, 161760, Note_on_c, 1, 74, 127
1, 161852, Note_off_c, 1, 55, 0
1, 161852, Note_off_c, 1, 74, 0
1, 161856, Note_on_c, 1, 79, 127
1, 161856, Note_on_c, 1, 46, 127
1, 161948, Note_off_c, 1, 79, 0
1, 161952, Note_on_c, 1, 74, 127
1, 162044, Note_off_c, 1, 46, 0
1, 162044, Note_off_c, 1, 74, 0
1, 162048, Note_on_c, 1, 69, 127
1, 162048, Note_on_c, 1, 48, 127
1, 162140, Note_off_c, 1, 69, 0
1, 162144, Note_on_c, 1, 72, 127
1, 162236, Note_off_c, 1, 48, 0
1, 162236, Note_off_c, 1, 72, 0
1, 162240, Note_on_c, 1, 79, 127
1, 162240, Note_on_c, 1, 45, 127
1, 162332, Note_off_c, 1, 79, 0
1, 162336, Note_on_c, 1, 72, 127
1, 162428, Note_off_c, 1, 45, 0
1, 162428, Note_off_c, 1, 72, 0
1, 162432, Note_on_c, 1, 69, 127
1, 162432, Note_on_c, 1, 50, 127
1, 162524, Note_off_c, 1, 69, 0
1, 162528, Note_on_c, 1, 72, 127
1, 162620, Note_off_c, 1, 50, 0
1, 162620, Note_off_c, 1, 72, 0
1, 162624, Note_on_c, 1, 78, 127
1, 162624, Note_on_c, 1, 38, 127
1, 162716, Note_off_c, 1, 78, 0
1, 162720, Note_on_c, 1, 72, 127
1, 162812, Note_off_c, 1, 38, 0
1, 162812, Note_off_c, 1, 72, 0
1, 162816, Note_on_c, 1, 67, 127
1, 162816, Note_on_c, 1, 70, 127
1, 162816, Note_on_c, 1, 43, 127
1, 162944, Note_off_c, 1, 67, 0
1, 162944, Note_off_c, 1, 70, 0
1, 163008, Note_on_c, 1, 82, 127
1, 163072, Note_off_c, 1, 43, 0
1, 163100, Note_off_c, 1, 82, 0
1, 163104, Note_on_c, 1, 81, 127
1, 163196, Note_off_c, 1, 81, 0
1, 163200, Note_on_c, 1, 79, 127
1, 163200, Note_on_c, 1, 51, 127
1, 163292, Note_off_c, 1, 79, 0
1, 163296, Note_on_c, 1, 77, 127
1, 163388, Note_off_c, 1, 77, 0
1, 163392, Note_on_c, 1, 75, 127
1, 163484, Note_off_c, 1, 75, 0
1, 163488, Note_on_c, 1, 74, 127
1, 163580, Note_off_c, 1, 51, 0
1, 163580, Note_off_c, 1, 74, 0
1, 163584, Note_on_c, 1, 72, 127
1, 163584, Note_on_c, 1, 69, 127
1, 163584, Note_on_c, 1, 53, 127
1, 163676, Note_off_c, 1, 72, 0
1, 163680, Note_on_c, 1, 77, 127
1, 163772, Note_off_c, 1, 69, 0
1, 163772, Note_off_c, 1, 77, 0
1, 163776, Note_on_c, 1, 81, 127
1, 163868, Note_off_c, 1, 81, 0
1, 163872, Note_on_c, 1, 79, 127
1, 163964, Note_off_c, 1, 53, 0
1, 163964, Note_off_c, 1, 79, 0
1, 163968, Note_on_c, 1, 77, 127
1, 163968, Note_on_c, 1, 50, 127
1, 164060, Note_off_c, 1, 77, 0
1, 164064, Note_on_c, 1, 75, 127
1, 164156, Note_off_c, 1, 75, 0
1, 164160, Note_on_c, 1, 74, 127
1, 164252, Note_off_c, 1, 74, 0
1, 164256, Note_on_c, 1, 72, 127
1, 164348, Note_off_c, 1, 50, 0
1, 164348, Note_off_c, 1, 72, 0
1, 164352, Note_on_c, 1, 70, 127
1, 164352, Note_on_c, 1, 67, 127
1, 164352, Note_on_c, 1, 51, 127
1, 164444, Note_off_c, 1, 70, 0
1, 164448, Note_on_c, 1, 75, 127
1, 164540, Note_off_c, 1, 67, 0
1, 164540, Note_off_c, 1, 75, 0
1, 164544, Note_on_c, 1, 79, 127
1, 164636, Note_off_c, 1, 79, 0
1, 164640, Note_on_c, 1, 77, 127
1, 164732, Note_off_c, 1, 51, 0
1, 164732, Note_off_c, 1, 77, 0
1, 164736, Note_on_c, 1, 75, 127
1, 164736, Note_on_c, 1, 48, 127
1, 164828, Note_off_c, 1, 75, 0
1, 164832, Note_on_c, 1, 74, 127
1, 164924, Note_off_c, 1, 74, 0
1, 164928, Note_on_c, 1, 72, 127
1, 165020, Note_off_c, 1, 72, 0
1, 165024, Note_on_c, 1, 70, 127
1, 165116, Note_off_c, 1, 48, 0
1, 165116, Note_off_c, 1, 70, 0
1, 165120, Note_on_c, 1, 69, 127
1, 165120, Note_on_c, 1, 65, 127
1, 165120, Note_on_c, 1, 50, 127
1, 165212, Note_off_c, 1, 69, 0
1, 165216, Note_on_c, 1, 74, 127
1, 165308, Note_off_c, 1, 65, 0
1, 165308, Note_off_c, 1, 74, 0
1, 165312, Note_on_c, 1, 77, 127
1, 165404, Note_off_c, 1, 77, 0
1, 165408, Note_on_c, 1, 75, 127
1, 165500, Note_off_c, 1, 50, 0
1, 165500, Note_off_c, 1, 75, 0
1, 165504, Note_on_c, 1, 74, 127
1, 165504, Note_on_c, 1, 46, 127
1, 165596, Note_off_c, 1, 74, 0
1, 165600, Note_on_c, 1, 72, 127
1, 165692, Note_off_c, 1, 72, 0
1, 165696, Note_on_c, 1, 70, 127
1, 165788, Note_off_c, 1, 70, 0
1, 165792, Note_on_c, 1, 69, 127
1, 165884, Note_off_c, 1, 46, 0
1, 165884, Note_off_c, 1, 69, 0
1, 165888, Note_on_c, 1, 67, 127
1, 165888, Note_on_c, 1, 63, 127
1, 165888, Note_on_c, 1, 48, 127
1, 165980, Note_off_c, 1, 67, 0
1, 165984, Note_on_c, 1, 72, 127
1, 166076, Note_off_c, 1, 63, 0
1, 166076, Note_off_c, 1, 72, 0
1, 166080, Note_on_c, 1, 75, 127
1, 166172, Note_off_c, 1, 75, 0
1, 166176, Note_on_c, 1, 74, 127
1, 166268, Note_off_c, 1, 48, 0
1, 166268, Note_off_c, 1, 74, 0
1, 166272, Note_on_c, 1, 72, 127
1, 166272, Note_on_c, 1, 45, 127
1, 166364, Note_off_c, 1, 72, 0
1, 166368, Note_on_c, 1, 70, 127
1, 166460, Note_off_c, 1, 70, 0
1, 166464, Note_on_c, 1, 69, 127
1, 166556, Note_off_c, 1, 69, 0
1, 166560, Note_on_c, 1, 67, 127
1, 166652, Note_off_c, 1, 45, 0
1, 166652, Note_off_c, 1, 67, 0
1, 166656, Note_on_c, 1, 62, 127
1, 166656, Note_on_c, 1, 66, 127
1, 166656, Note_on_c, 1, 50, 127
1, 166784, Note_off_c, 1, 62, 0
1, 166784, Note_off_c, 1, 66, 0
1, 166784, Note_off_c, 1, 50, 0
1, 166848, Note_on_c, 1, 67, 127
1, 166976, Note_off_c, 1, 67, 0
1, 167040, Note_on_c, 1, 67, 127
1, 167168, Note_off_c, 1, 67, 0
1, 167232, Note_on_c, 1, 69, 127
1, 167360, Note_off_c, 1, 69, 0
1, 167424, Note_on_c, 1, 70, 127
1, 167552, Note_off_c, 1, 70, 0
1, 167616, Note_on_c, 1, 67, 127
1, 167804, Note_off_c, 1, 67, 0
1, 167808, Note_on_c, 1, 70, 127
1, 167996, Note_off_c, 1, 70, 0
1, 168000, Note_on_c, 1, 72, 127
1, 168188, Note_off_c, 1, 72, 0
1, 168192, Note_on_c, 1, 74, 127
1, 168236, Note_off_c, 1, 74, 0
1, 168240, Note_on_c, 1, 72, 127
1, 168284, Note_off_c, 1, 72, 0
1, 168288, Note_on_c, 1, 74, 127
1, 168384, Note_on_c, 1, 62, 127
1, 168428, Note_off_c, 1, 74, 0
1, 168480, Note_on_c, 1, 75, 127
1, 168512, Note_off_c, 1, 62, 0
1, 168572, Note_off_c, 1, 75, 0
1, 168576, Note_on_c, 1, 74, 127
1, 168576, Note_on_c, 1, 62, 127
1, 168668, Note_off_c, 1, 74, 0
1, 168672, Note_on_c, 1, 72, 127
1, 168704, Note_off_c, 1, 62, 0
1, 168764, Note_off_c, 1, 72, 0
1, 168768, Note_on_c, 1, 70, 127
1, 168768, Note_on_c, 1, 62, 127
1, 168860, Note_off_c, 1, 70, 0
1, 168864, Note_on_c, 1, 69, 127
1, 168896, Note_off_c, 1, 62, 0
1, 168956, Note_off_c, 1, 69, 0
1, 168960, Note_on_c, 1, 67, 127
1, 168960, Note_on_c, 1, 64, 127
1, 169148, Note_off_c, 1, 67, 0
1, 169148, Note_off_c, 1, 64, 0
1, 169152, Note_on_c, 1, 69, 127
1, 169152, Note_on_c, 1, 62, 127
1, 169244, Note_off_c, 1, 69, 0
1, 169248, Note_on_c, 1, 70, 127
1, 169340, Note_off_c, 1, 62, 0
1, 169340, Note_off_c, 1, 70, 0
1, 169344, Note_on_c, 1, 64, 127
1, 169344, Note_on_c, 1, 72, 127
1, 169472, Note_off_c, 1, 64, 0
1, 169472, Note_off_c, 1, 72, 0
1, 169536, Note_on_c, 1, 66, 127
1, 169536, Note_on_c, 1, 72, 127
1, 169664, Note_off_c, 1, 66, 0
1, 169664, Note_off_c, 1, 72, 0
1, 169728, Note_on_c, 1, 67, 127
1, 169824, Note_on_c, 1, 72, 127
1, 169856, Note_off_c, 1, 67, 0
1, 169888, Note_off_c, 1, 72, 0
1, 169920, Note_on_c, 1, 70, 127
1, 169920, Note_on_c, 1, 62, 127
1, 169920, Note_on_c, 1, 55, 127
1, 169984, Note_off_c, 1, 70, 0
1, 169984, Note_off_c, 1, 55, 0
1, 170016, Note_on_c, 1, 69, 127
1, 170016, Note_on_c, 1, 53, 127
1, 170048, Note_off_c, 1, 62, 0
1, 170080, Note_off_c, 1, 69, 0
1, 170080, Note_off_c, 1, 53, 0
1, 170112, Note_on_c, 1, 67, 127
1, 170112, Note_on_c, 1, 70, 127
1, 170112, Note_on_c, 1, 51, 127
1, 170176, Note_off_c, 1, 51, 0
1, 170208, Note_on_c, 1, 50, 127
1, 170240, Note_off_c, 1, 67, 0
1, 170240, Note_off_c, 1, 70, 0
1, 170272, Note_off_c, 1, 50, 0
1, 170304, Note_on_c, 1, 67, 127
1, 170304, Note_on_c, 1, 70, 127
1, 170304, Note_on_c, 1, 48, 127
1, 170368, Note_off_c, 1, 48, 0
1, 170400, Note_on_c, 1, 46, 127
1, 170432, Note_off_c, 1, 67, 0
1, 170432, Note_off_c, 1, 70, 0
1, 170464, Note_off_c, 1, 46, 0
1, 170496, Note_on_c, 1, 69, 127
1, 170496, Note_on_c, 1, 48, 127
1, 170592, Note_on_c, 1, 67, 127
1, 170684, Note_off_c, 1, 48, 0
1, 170684, Note_off_c, 1, 67, 0
1, 170688, Note_on_c, 1, 66, 127
1, 170688, Note_on_c, 1, 45, 127
1, 170780, Note_off_c, 1, 66, 0
1, 170784, Note_on_c, 1, 64, 127
1, 170876, Note_off_c, 1, 69, 0
1, 170876, Note_off_c, 1, 45, 0
1, 170876, Note_off_c, 1, 64, 0
1, 170880, Note_on_c, 1, 66, 127
1, 170880, Note_on_c, 1, 50, 127
1, 170976, Note_on_c, 1, 75, 127
1, 171068, Note_off_c, 1, 50, 0
1, 171068, Note_off_c, 1, 75, 0
1, 171072, Note_on_c, 1, 74, 127
1, 171072, Note_on_c, 1, 38, 127
1, 171164, Note_off_c, 1, 74, 0
1, 171168, Note_on_c, 1, 72, 127
1, 171232, Note_off_c, 1, 72, 0
1, 171260, Note_off_c, 1, 66, 0
1, 171260, Note_off_c, 1, 38, 0
1, 171264, Note_on_c, 1, 43, 127
1, 171264, Note_on_c, 1, 70, 127
1, 171264, Note_on_c, 1, 67, 127
1, 171356, Note_off_c, 1, 70, 0
1, 171360, Note_on_c, 1, 79, 127
1, 171392, Note_off_c, 1, 43, 0
1, 171452, Note_off_c, 1, 67, 0
1, 171452, Note_off_c, 1, 79, 0
1, 171456, Note_on_c, 1, 77, 127
1, 171456, Note_on_c, 1, 43, 127
1, 171548, Note_off_c, 1, 77, 0
1, 171552, Note_on_c, 1, 75, 127
1, 171584, Note_off_c, 1, 43, 0
1, 171644, Note_off_c, 1, 75, 0
1, 171648, Note_on_c, 1, 74, 127
1, 171648, Note_on_c, 1, 43, 127
1, 171740, Note_off_c, 1, 74, 0
1, 171744, Note_on_c, 1, 72, 127
1, 171776, Note_off_c, 1, 43, 0
1, 171836, Note_off_c, 1, 72, 0
1, 171840, Note_on_c, 1, 70, 127
1, 171840, Note_on_c, 1, 45, 127
1, 171932, Note_off_c, 1, 70, 0
1, 171936, Note_on_c, 1, 69, 127
1, 171968, Note_off_c, 1, 45, 0
1, 172028, Note_off_c, 1, 69, 0
1, 172032, Note_on_c, 1, 67, 127
1, 172032, Note_on_c, 1, 46, 127
1, 172076, Note_off_c, 1, 67, 0
1, 172080, Note_on_c, 1, 74, 127
1, 172124, Note_off_c, 1, 74, 0
1, 172128, Note_on_c, 1, 79, 127
1, 172172, Note_off_c, 1, 79, 0
1, 172220, Note_off_c, 1, 46, 0
1, 172224, Note_on_c, 1, 70, 127
1, 172224, Note_on_c, 1, 43, 127
1, 172268, Note_off_c, 1, 70, 0
1, 172272, Note_on_c, 1, 74, 127
1, 172316, Note_off_c, 1, 74, 0
1, 172320, Note_on_c, 1, 79, 127
1, 172364, Note_off_c, 1, 79, 0
1, 172412, Note_off_c, 1, 43, 0
1, 172416, Note_on_c, 1, 70, 127
1, 172416, Note_on_c, 1, 46, 127
1, 172460, Note_off_c, 1, 70, 0
1, 172464, Note_on_c, 1, 74, 127
1, 172508, Note_off_c, 1, 74, 0
1, 172512, Note_on_c, 1, 79, 127
1, 172556, Note_off_c, 1, 79, 0
1, 172604, Note_off_c, 1, 46, 0
1, 172608, Note_on_c, 1, 70, 127
1, 172608, Note_on_c, 1, 48, 127
1, 172652, Note_off_c, 1, 70, 0
1, 172656, Note_on_c, 1, 74, 127
1, 172700, Note_off_c, 1, 74, 0
1, 172704, Note_on_c, 1, 79, 127
1, 172748, Note_off_c, 1, 79, 0
1, 172796, Note_off_c, 1, 48, 0
1, 172800, Note_on_c, 1, 70, 127
1, 172800, Note_on_c, 1, 50, 127
1, 172844, Note_off_c, 1, 70, 0
1, 172848, Note_on_c, 1, 74, 127
1, 172892, Note_off_c, 1, 74, 0
1, 172896, Note_on_c, 1, 79, 127
1, 172940, Note_off_c, 1, 79, 0
1, 172988, Note_off_c, 1, 50, 0
1, 172992, Note_on_c, 1, 70, 127
1, 172992, Note_on_c, 1, 52, 127
1, 173036, Note_off_c, 1, 70, 0
1, 173040, Note_on_c, 1, 74, 127
1, 173084, Note_off_c, 1, 52, 0
1, 173084, Note_off_c, 1, 74, 0
1, 173088, Note_on_c, 1, 79, 127
1, 173088, Note_on_c, 1, 54, 127
1, 173132, Note_off_c, 1, 79, 0
1, 173136, Note_on_c, 1, 74, 127
1, 173180, Note_off_c, 1, 54, 0
1, 173180, Note_off_c, 1, 74, 0
1, 173184, Note_on_c, 1, 70, 127
1, 173184, Note_on_c, 1, 55, 127
1, 173228, Note_off_c, 1, 70, 0
1, 173232, Note_on_c, 1, 74, 127
1, 173276, Note_off_c, 1, 55, 0
1, 173276, Note_off_c, 1, 74, 0
1, 173280, Note_on_c, 1, 79, 127
1, 173280, Note_on_c, 1, 57, 127
1, 173324, Note_off_c, 1, 79, 0
1, 173328, Note_on_c, 1, 74, 127
1, 173372, Note_off_c, 1, 57, 0
1, 173372, Note_off_c, 1, 74, 0
1, 173376, Note_on_c, 1, 70, 127
1, 173376, Note_on_c, 1, 58, 127
1, 173420, Note_off_c, 1, 70, 0
1, 173424, Note_on_c, 1, 74, 127
1, 173468, Note_off_c, 1, 58, 0
1, 173468, Note_off_c, 1, 74, 0
1, 173472, Note_on_c, 1, 79, 127
1, 173472, Note_on_c, 1, 60, 127
1, 173516, Note_off_c, 1, 79, 0
1, 173520, Note_on_c, 1, 74, 127
1, 173564, Note_off_c, 1, 60, 0
1, 173564, Note_off_c, 1, 74, 0
1, 173568, Note_on_c, 1, 69, 127
1, 173568, Note_on_c, 1, 62, 127
1, 173612, Note_off_c, 1, 69, 0
1, 173616, Note_on_c, 1, 72, 127
1, 173660, Note_off_c, 1, 72, 0
1, 173664, Note_on_c, 1, 79, 127
1, 173708, Note_off_c, 1, 79, 0
1, 173756, Note_off_c, 1, 62, 0
1, 173760, Note_on_c, 1, 69, 127
1, 173760, Note_on_c, 1, 60, 127
1, 173804, Note_off_c, 1, 69, 0
1, 173808, Note_on_c, 1, 72, 127
1, 173852, Note_off_c, 1, 72, 0
1, 173856, Note_on_c, 1, 79, 127
1, 173900, Note_off_c, 1, 79, 0
1, 173948, Note_off_c, 1, 60, 0
1, 173952, Note_on_c, 1, 69, 127
1, 173952, Note_on_c, 1, 62, 127
1, 173996, Note_off_c, 1, 69, 0
1, 174000, Note_on_c, 1, 72, 127
1, 174044, Note_off_c, 1, 72, 0
1, 174048, Note_on_c, 1, 78, 127
1, 174092, Note_off_c, 1, 78, 0
1, 174140, Note_off_c, 1, 62, 0
1, 174144, Note_on_c, 1, 69, 127
1, 174144, Note_on_c, 1, 50, 127
1, 174188, Note_off_c, 1, 69, 0
1, 174192, Note_on_c, 1, 72, 127
1, 174236, Note_off_c, 1, 72, 0
1, 174240, Note_on_c, 1, 78, 127
1, 174284, Note_off_c, 1, 78, 0
1, 174332, Note_off_c, 1, 50, 0
1, 174336, Note_on_c, 1, 67, 127
1, 174336, Note_on_c, 1, 70, 127
1, 174336, Note_on_c, 1, 74, 127
1, 174336, Note_on_c, 1, 79, 127
1, 174336, Note_on_c, 1, 43, 127
1, 175484, Note_off_c, 1, 67, 0
1, 175484, Note_off_c, 1, 70, 0
1, 175484, Note_off_c, 1, 74, 0
1, 175484, Note_off_c, 1, 79, 0
1, 175484, Note_off_c, 1, 43, 0
1, 177600, Note_on_c, 1, 77, 127
1, 177600, Note_on_c, 1, 58, 127
1, 177728, Note_off_c, 1, 77, 0
1, 177728, Note_off_c, 1, 58, 0
1, 177792, Note_on_c, 1, 77, 127
1, 177792, Note_on_c, 1, 50, 127
1, 177980, Note_off_c, 1, 77, 0
1, 177980, Note_off_c, 1, 50, 0
1, 177984, Note_on_c, 1, 82, 127
1, 177984, Note_on_c, 1, 53, 127
1, 178172, Note_off_c, 1, 82, 0
1, 178172, Note_off_c, 1, 53, 0
1, 178176, Note_on_c, 1, 74, 127
1, 178176, Note_on_c, 1, 58, 127
1, 178304, Note_off_c, 1, 74, 0
1, 178364, Note_off_c, 1, 58, 0
1, 178368, Note_on_c, 1, 75, 127
1, 178368, Note_on_c, 1, 48, 127
1, 178556, Note_off_c, 1, 75, 0
1, 178556, Note_off_c, 1, 48, 0
1, 178560, Note_on_c, 1, 79, 127
1, 178560, Note_on_c, 1, 51, 127
1, 178748, Note_off_c, 1, 79, 0
1, 178748, Note_off_c, 1, 51, 0
1, 178752, Note_on_c, 1, 72, 127
1, 178752, Note_on_c, 1, 57, 127
1, 178880, Note_off_c, 1, 72, 0
1, 178940, Note_off_c, 1, 57, 0
1, 178944, Note_on_c, 1, 74, 127
1, 178944, Note_on_c, 1, 46, 127
1, 179132, Note_off_c, 1, 74, 0
1, 179132, Note_off_c, 1, 46, 0
1, 179136, Note_on_c, 1, 77, 127
1, 179136, Note_on_c, 1, 58, 127
1, 179324, Note_off_c, 1, 77, 0
1, 179324, Note_off_c, 1, 58, 0
1, 179328, Note_on_c, 1, 69, 127
1, 179328, Note_on_c, 1, 48, 127
1, 179516, Note_off_c, 1, 69, 0
1, 179516, Note_off_c, 1, 48, 0
1, 179520, Note_on_c, 1, 70, 127
1, 179520, Note_on_c, 1, 50, 127
1, 179708, Note_off_c, 1, 50, 0
1, 179712, Note_on_c, 1, 53, 127
1, 179776, Note_off_c, 1, 70, 0
1, 179900, Note_off_c, 1, 53, 0
1, 179904, Note_on_c, 1, 72, 127
1, 179904, Note_on_c, 1, 45, 127
1, 180032, Note_off_c, 1, 72, 0
1, 180092, Note_off_c, 1, 45, 0
1, 180096, Note_on_c, 1, 74, 127
1, 180096, Note_on_c, 1, 46, 127
1, 180096, Note_on_c, 1, 53, 127
1, 180284, Note_off_c, 1, 74, 0
1, 180288, Note_on_c, 1, 75, 127
1, 180476, Note_off_c, 1, 46, 0
1, 180476, Note_off_c, 1, 53, 0
1, 180476, Note_off_c, 1, 75, 0
1, 180480, Note_on_c, 1, 77, 127
1, 180668, Note_off_c, 1, 77, 0
1, 180672, Note_on_c, 1, 75, 127
1, 180672, Note_on_c, 1, 58, 127
1, 180672, Note_on_c, 1, 48, 127
1, 180860, Note_off_c, 1, 75, 0
1, 180864, Note_on_c, 1, 77, 127
1, 181052, Note_off_c, 1, 58, 0
1, 181052, Note_off_c, 1, 48, 0
1, 181052, Note_off_c, 1, 77, 0
1, 181056, Note_on_c, 1, 79, 127
1, 181244, Note_off_c, 1, 79, 0
1, 181248, Note_on_c, 1, 77, 127
1, 181248, Note_on_c, 1, 50, 127
1, 181248, Note_on_c, 1, 57, 127
1, 181436, Note_off_c, 1, 77, 0
1, 181440, Note_on_c, 1, 79, 127
1, 181628, Note_off_c, 1, 50, 0
1, 181628, Note_off_c, 1, 57, 0
1, 181628, Note_off_c, 1, 79, 0
1, 181632, Note_on_c, 1, 81, 127
1, 181820, Note_off_c, 1, 81, 0
1, 181824, Note_on_c, 1, 79, 127
1, 181824, Note_on_c, 1, 52, 127
1, 181824, Note_on_c, 1, 60, 127
1, 182012, Note_off_c, 1, 79, 0
1, 182016, Note_on_c, 1, 81, 127
1, 182204, Note_off_c, 1, 52, 0
1, 182204, Note_off_c, 1, 60, 0
1, 182204, Note_off_c, 1, 81, 0
1, 182208, Note_on_c, 1, 82, 127
1, 182396, Note_off_c, 1, 82, 0
1, 182400, Note_on_c, 1, 81, 127
1, 182400, Note_on_c, 1, 53, 127
1, 182588, Note_off_c, 1, 81, 0
1, 182592, Note_on_c, 1, 79, 127
1, 182592, Note_on_c, 1, 55, 127
1, 182780, Note_off_c, 1, 53, 0
1, 182780, Note_off_c, 1, 79, 0
1, 182780, Note_off_c, 1, 55, 0
1, 182784, Note_on_c, 1, 77, 127
1, 182784, Note_on_c, 1, 57, 127
1, 182784, Note_on_c, 1, 50, 127
1, 182912, Note_off_c, 1, 77, 0
1, 182972, Note_off_c, 1, 57, 0
1, 182972, Note_off_c, 1, 50, 0
1, 182976, Note_on_c, 1, 77, 127
1, 182976, Note_on_c, 1, 55, 127
1, 182976, Note_on_c, 1, 46, 127
1, 183164, Note_off_c, 1, 77, 0
1, 183168, Note_on_c, 1, 79, 127
1, 183356, Note_off_c, 1, 55, 0
1, 183356, Note_off_c, 1, 46, 0
1, 183356, Note_off_c, 1, 79, 0
1, 183360, Note_on_c, 1, 76, 127
1, 183360, Note_on_c, 1, 55, 127
1, 183360, Note_on_c, 1, 48, 127
1, 183548, Note_off_c, 1, 76, 0
1, 183548, Note_off_c, 1, 55, 0
1, 183548, Note_off_c, 1, 48, 0
1, 183552, Note_on_c, 1, 77, 127
1, 183552, Note_on_c, 1, 53, 127
1, 183552, Note_on_c, 1, 57, 127
1, 183680, Note_off_c, 1, 77, 0
1, 183744, Note_on_c, 1, 81, 127
1, 183808, Note_off_c, 1, 53, 0
1, 183808, Note_off_c, 1, 57, 0
1, 183808, Note_off_c, 1, 81, 0
1, 183840, Note_on_c, 1, 79, 127
1, 183904, Note_off_c, 1, 79, 0
1, 183936, Note_on_c, 1, 77, 127
1, 184064, Note_off_c, 1, 77, 0
1, 184128, Note_on_c, 1, 77, 127
1, 184128, Note_on_c, 1, 50, 127
1, 184128, Note_on_c, 1, 53, 127
1, 184256, Note_off_c, 1, 77, 0
1, 184320, Note_on_c, 1, 81, 127
1, 184384, Note_off_c, 1, 50, 0
1, 184384, Note_off_c, 1, 53, 0
1, 184384, Note_off_c, 1, 81, 0
1, 184416, Note_on_c, 1, 79, 127
1, 184480, Note_off_c, 1, 79, 0
1, 184512, Note_on_c, 1, 77, 127
1, 184640, Note_off_c, 1, 77, 0
1, 184704, Note_on_c, 1, 79, 127
1, 184704, Note_on_c, 1, 46, 127
1, 184704, Note_on_c, 1, 53, 127
1, 184832, Note_off_c, 1, 79, 0
1, 184896, Note_on_c, 1, 82, 127
1, 184960, Note_off_c, 1, 46, 0
1, 184960, Note_off_c, 1, 53, 0
1, 184960, Note_off_c, 1, 82, 0
1, 184992, Note_on_c, 1, 81, 127
1, 185056, Note_off_c, 1, 81, 0
1, 185088, Note_on_c, 1, 79, 127
1, 185216, Note_off_c, 1, 79, 0
1, 185280, Note_on_c, 1, 79, 127
1, 185280, Note_on_c, 1, 48, 127
1, 185280, Note_on_c, 1, 52, 127
1, 185408, Note_off_c, 1, 79, 0
1, 185472, Note_on_c, 1, 82, 127
1, 185536, Note_off_c, 1, 48, 0
1, 185536, Note_off_c, 1, 52, 0
1, 185536, Note_off_c, 1, 82, 0
1, 185568, Note_on_c, 1, 81, 127
1, 185632, Note_off_c, 1, 81, 0
1, 185664, Note_on_c, 1, 79, 127
1, 185792, Note_off_c, 1, 79, 0
1, 185856, Note_on_c, 1, 81, 127
1, 185856, Note_on_c, 1, 53, 127
1, 186044, Note_off_c, 1, 81, 0
1, 186044, Note_off_c, 1, 53, 0
1, 186048, Note_on_c, 1, 77, 127
1, 186048, Note_on_c, 1, 57, 127
1, 186140, Note_off_c, 1, 77, 0
1, 186144, Note_on_c, 1, 79, 127
1, 186236, Note_off_c, 1, 57, 0
1, 186236, Note_off_c, 1, 79, 0
1, 186240, Note_on_c, 1, 81, 127
1, 186240, Note_on_c, 1, 60, 127
1, 186368, Note_off_c, 1, 81, 0
1, 186368, Note_off_c, 1, 60, 0
1, 186432, Note_on_c, 1, 79, 127
1, 186432, Note_on_c, 1, 52, 127
1, 186620, Note_off_c, 1, 79, 0
1, 186620, Note_off_c, 1, 52, 0
1, 186624, Note_on_c, 1, 76, 127
1, 186624, Note_on_c, 1, 55, 127
1, 186716, Note_off_c, 1, 76, 0
1, 186720, Note_on_c, 1, 77, 127
1, 186812, Note_off_c, 1, 55, 0
1, 186812, Note_off_c, 1, 77, 0
1, 186816, Note_on_c, 1, 79, 127
1, 186816, Note_on_c, 1, 60, 127
1, 186944, Note_off_c, 1, 79, 0
1, 186944, Note_off_c, 1, 60, 0
1, 187008, Note_on_c, 1, 77, 127
1, 187008, Note_on_c, 1, 50, 127
1, 187196, Note_off_c, 1, 77, 0
1, 187196, Note_off_c, 1, 50, 0
1, 187200, Note_on_c, 1, 74, 127
1, 187200, Note_on_c, 1, 53, 127
1, 187292, Note_off_c, 1, 74, 0
1, 187296, Note_on_c, 1, 76, 127
1, 187388, Note_off_c, 1, 53, 0
1, 187388, Note_off_c, 1, 76, 0
1, 187392, Note_on_c, 1, 77, 127
1, 187392, Note_on_c, 1, 59, 127
1, 187520, Note_off_c, 1, 77, 0
1, 187520, Note_off_c, 1, 59, 0
1, 187584, Note_on_c, 1, 76, 127
1, 187584, Note_on_c, 1, 48, 127
1, 187772, Note_off_c, 1, 76, 0
1, 187772, Note_off_c, 1, 48, 0
1, 187776, Note_on_c, 1, 72, 127
1, 187776, Note_on_c, 1, 52, 127
1, 187868, Note_off_c, 1, 72, 0
1, 187872, Note_on_c, 1, 74, 127
1, 187964, Note_off_c, 1, 52, 0
1, 187964, Note_off_c, 1, 74, 0
1, 187968, Note_on_c, 1, 76, 127
1, 187968, Note_on_c, 1, 57, 127
1, 188096, Note_off_c, 1, 76, 0
1, 188096, Note_off_c, 1, 57, 0
1, 188160, Note_on_c, 1, 74, 127
1, 188160, Note_on_c, 1, 46, 127
1, 188348, Note_off_c, 1, 74, 0
1, 188348, Note_off_c, 1, 46, 0
1, 188352, Note_on_c, 1, 70, 127
1, 188352, Note_on_c, 1, 50, 127
1, 188444, Note_off_c, 1, 70, 0
1, 188448, Note_on_c, 1, 72, 127
1, 188540, Note_off_c, 1, 50, 0
1, 188540, Note_off_c, 1, 72, 0
1, 188544, Note_on_c, 1, 74, 127
1, 188544, Note_on_c, 1, 55, 127
1, 188672, Note_off_c, 1, 74, 0
1, 188672, Note_off_c, 1, 55, 0
1, 188736, Note_on_c, 1, 72, 127
1, 188736, Note_on_c, 1, 45, 127
1, 188924, Note_off_c, 1, 72, 0
1, 188924, Note_off_c, 1, 45, 0
1, 188928, Note_on_c, 1, 69, 127
1, 188928, Note_on_c, 1, 48, 127
1, 189020, Note_off_c, 1, 69, 0
1, 189024, Note_on_c, 1, 70, 127
1, 189116, Note_off_c, 1, 48, 0
1, 189116, Note_off_c, 1, 70, 0
1, 189120, Note_on_c, 1, 72, 127
1, 189120, Note_on_c, 1, 53, 127
1, 189248, Note_off_c, 1, 72, 0
1, 189248, Note_off_c, 1, 53, 0
1, 189312, Note_on_c, 1, 70, 127
1, 189312, Note_on_c, 1, 43, 127
1, 189500, Note_off_c, 1, 70, 0
1, 189500, Note_off_c, 1, 43, 0
1, 189504, Note_on_c, 1, 74, 127
1, 189504, Note_on_c, 1, 46, 127
1, 189596, Note_off_c, 1, 74, 0
1, 189600, Note_on_c, 1, 72, 127
1, 189692, Note_off_c, 1, 46, 0
1, 189692, Note_off_c, 1, 72, 0
1, 189696, Note_on_c, 1, 70, 127
1, 189696, Note_on_c, 1, 50, 127
1, 189788, Note_off_c, 1, 70, 0
1, 189792, Note_on_c, 1, 69, 127
1, 189884, Note_off_c, 1, 50, 0
1, 189884, Note_off_c, 1, 69, 0
1, 189888, Note_on_c, 1, 70, 127
1, 189888, Note_on_c, 1, 55, 127
1, 190076, Note_off_c, 1, 70, 0
1, 190076, Note_off_c, 1, 55, 0
1, 190080, Note_on_c, 1, 74, 127
1, 190080, Note_on_c, 1, 50, 127
1, 190172, Note_off_c, 1, 74, 0
1, 190176, Note_on_c, 1, 72, 127
1, 190268, Note_off_c, 1, 50, 0
1, 190268, Note_off_c, 1, 72, 0
1, 190272, Note_on_c, 1, 70, 127
1, 190272, Note_on_c, 1, 43, 127
1, 190364, Note_off_c, 1, 70, 0
1, 190368, Note_on_c, 1, 69, 127
1, 190460, Note_off_c, 1, 43, 0
1, 190460, Note_off_c, 1, 69, 0
1, 190464, Note_on_c, 1, 70, 127
1, 190464, Note_on_c, 1, 76, 127
1, 190464, Note_on_c, 1, 48, 127
1, 190652, Note_off_c, 1, 70, 0
1, 190652, Note_off_c, 1, 48, 0
1, 190656, Note_on_c, 1, 67, 127
1, 190656, Note_on_c, 1, 52, 127
1, 190748, Note_off_c, 1, 67, 0
1, 190748, Note_off_c, 1, 52, 0
1, 190752, Note_on_c, 1, 69, 127
1, 190752, Note_on_c, 1, 50, 127
1, 190844, Note_off_c, 1, 69, 0
1, 190844, Note_off_c, 1, 50, 0
1, 191616, Note_on_c, 1, 60, 127
1, 191744, Note_off_c, 1, 76, 0
1, 191808, Note_on_c, 1, 79, 127
1, 191900, Note_off_c, 1, 79, 0
1, 191904, Note_on_c, 1, 77, 127
1, 191996, Note_off_c, 1, 77, 0
1, 192096, Note_on_c, 1, 74, 127
1, 192188, Note_off_c, 1, 74, 0
1, 192764, Note_off_c, 1, 60, 0
1, 192768, Note_on_c, 1, 76, 127
1, 192768, Note_on_c, 1, 82, 127
1, 192768, Note_on_c, 1, 48, 127
1, 192956, Note_off_c, 1, 76, 0
1, 192956, Note_off_c, 1, 48, 0
1, 192960, Note_on_c, 1, 72, 127
1, 192960, Note_on_c, 1, 52, 127
1, 193052, Note_off_c, 1, 72, 0
1, 193052, Note_off_c, 1, 52, 0
1, 193056, Note_on_c, 1, 74, 127
1, 193056, Note_on_c, 1, 50, 127
1, 193148, Note_off_c, 1, 74, 0
1, 193148, Note_off_c, 1, 50, 0
1, 193916, Note_off_c, 1, 82, 0
1, 193920, Note_on_c, 1, 81, 127
1, 193920, Note_on_c, 1, 77, 127
1, 193920, Note_on_c, 1, 53, 127
1, 194048, Note_off_c, 1, 81, 0
1, 194112, Note_on_c, 1, 79, 127
1, 194176, Note_off_c, 1, 77, 0
1, 194176, Note_off_c, 1, 53, 0
1, 194240, Note_off_c, 1, 79, 0
1, 194304, Note_on_c, 1, 77, 127
1, 194304, Note_on_c, 1, 57, 127
1, 194432, Note_off_c, 1, 77, 0
1, 194432, Note_off_c, 1, 57, 0
1, 194496, Note_on_c, 1, 72, 127
1, 194496, Note_on_c, 1, 60, 127
1, 194624, Note_off_c, 1, 72, 0
1, 194688, Note_on_c, 1, 77, 127
1, 194752, Note_off_c, 1, 60, 0
1, 194816, Note_off_c, 1, 77, 0
1, 194880, Note_on_c, 1, 76, 127
1, 194880, Note_on_c, 1, 48, 127
1, 195008, Note_off_c, 1, 76, 0
1, 195008, Note_off_c, 1, 48, 0
1, 195072, Note_on_c, 1, 77, 127
1, 195072, Note_on_c, 1, 53, 127
1, 195260, Note_off_c, 1, 77, 0
1, 195264, Note_on_c, 1, 81, 127
1, 195452, Note_off_c, 1, 53, 0
1, 195452, Note_off_c, 1, 81, 0
1, 195456, Note_on_c, 1, 72, 127
1, 195456, Note_on_c, 1, 41, 127
1, 195584, Note_off_c, 1, 72, 0
1, 195644, Note_off_c, 1, 41, 0
1, 195648, Note_on_c, 1, 74, 127
1, 195648, Note_on_c, 1, 46, 127
1, 195836, Note_off_c, 1, 74, 0
1, 195836, Note_off_c, 1, 46, 0
1, 195840, Note_on_c, 1, 77, 127
1, 195840, Note_on_c, 1, 45, 127
1, 196028, Note_off_c, 1, 77, 0
1, 196028, Note_off_c, 1, 45, 0
1, 196032, Note_on_c, 1, 70, 127
1, 196032, Note_on_c, 1, 43, 127
1, 196160, Note_off_c, 1, 70, 0
1, 196220, Note_off_c, 1, 43, 0
1, 196224, Note_on_c, 1, 72, 127
1, 196224, Note_on_c, 1, 45, 127
1, 196412, Note_off_c, 1, 72, 0
1, 196412, Note_off_c, 1, 45, 0
1, 196416, Note_on_c, 1, 77, 127
1, 196416, Note_on_c, 1, 43, 127
1, 196604, Note_off_c, 1, 77, 0
1, 196604, Note_off_c, 1, 43, 0
1, 196608, Note_on_c, 1, 69, 127
1, 196608, Note_on_c, 1, 41, 127
1, 196736, Note_off_c, 1, 69, 0
1, 196796, Note_off_c, 1, 41, 0
1, 196800, Note_on_c, 1, 60, 127
1, 196800, Note_on_c, 1, 48, 127
1, 196928, Note_off_c, 1, 60, 0
1, 196928, Note_off_c, 1, 48, 0
1, 196992, Note_on_c, 1, 65, 127
1, 196992, Note_on_c, 1, 46, 127
1, 197180, Note_off_c, 1, 65, 0
1, 197180, Note_off_c, 1, 46, 0
1, 197184, Note_on_c, 1, 64, 127
1, 197184, Note_on_c, 1, 48, 127
1, 197312, Note_off_c, 1, 64, 0
1, 197312, Note_off_c, 1, 48, 0
1, 197376, Note_on_c, 1, 41, 127
1, 197376, Note_on_c, 1, 65, 127
1, 197504, Note_off_c, 1, 65, 0
1, 197568, Note_on_c, 1, 69, 127
1, 197660, Note_off_c, 1, 69, 0
1, 197664, Note_on_c, 1, 67, 127
1, 197756, Note_off_c, 1, 41, 0
1, 197756, Note_off_c, 1, 67, 0
1, 197760, Note_on_c, 1, 65, 127
1, 197852, Note_off_c, 1, 65, 0
1, 197856, Note_on_c, 1, 64, 127
1, 197920, Note_off_c, 1, 64, 0
1, 197952, Note_on_c, 1, 65, 127
1, 197952, Note_on_c, 1, 50, 127
1, 198080, Note_off_c, 1, 65, 0
1, 198144, Note_on_c, 1, 69, 127
1, 198208, Note_off_c, 1, 50, 0
1, 198236, Note_off_c, 1, 69, 0
1, 198240, Note_on_c, 1, 67, 127
1, 198332, Note_off_c, 1, 67, 0
1, 198336, Note_on_c, 1, 65, 127
1, 198428, Note_off_c, 1, 65, 0
1, 198432, Note_on_c, 1, 64, 127
1, 198496, Note_off_c, 1, 64, 0
1, 198528, Note_on_c, 1, 65, 127
1, 198528, Note_on_c, 1, 46, 127
1, 198716, Note_off_c, 1, 65, 0
1, 198720, Note_on_c, 1, 69, 127
1, 198812, Note_off_c, 1, 69, 0
1, 198816, Note_on_c, 1, 67, 127
1, 198908, Note_off_c, 1, 46, 0
1, 198908, Note_off_c, 1, 67, 0
1, 198912, Note_on_c, 1, 65, 127
1, 198912, Note_on_c, 1, 48, 127
1, 199004, Note_off_c, 1, 65, 0
1, 199008, Note_on_c, 1, 64, 127
1, 199072, Note_off_c, 1, 64, 0
1, 199100, Note_off_c, 1, 48, 0
1, 199104, Note_on_c, 1, 65, 127
1, 199104, Note_on_c, 1, 41, 127
1, 199292, Note_off_c, 1, 65, 0
1, 199296, Note_on_c, 1, 69, 127
1, 199388, Note_off_c, 1, 69, 0
1, 199392, Note_on_c, 1, 67, 127
1, 199484, Note_off_c, 1, 41, 0
1, 199484, Note_off_c, 1, 67, 0
1, 199488, Note_on_c, 1, 65, 127
1, 199580, Note_off_c, 1, 65, 0
1, 199584, Note_on_c, 1, 64, 127
1, 199648, Note_off_c, 1, 64, 0
1, 199680, Note_on_c, 1, 67, 127
1, 199680, Note_on_c, 1, 62, 127
1, 199680, Note_on_c, 1, 46, 127
1, 199868, Note_off_c, 1, 67, 0
1, 199872, Note_on_c, 1, 70, 127
1, 199964, Note_off_c, 1, 70, 0
1, 199968, Note_on_c, 1, 69, 127
1, 200060, Note_off_c, 1, 62, 0
1, 200060, Note_off_c, 1, 46, 0
1, 200060, Note_off_c, 1, 69, 0
1, 200064, Note_on_c, 1, 67, 127
1, 200156, Note_off_c, 1, 67, 0
1, 200160, Note_on_c, 1, 66, 127
1, 200252, Note_off_c, 1, 66, 0
1, 200256, Note_on_c, 1, 67, 127
1, 200256, Note_on_c, 1, 51, 127
1, 200444, Note_off_c, 1, 67, 0
1, 200448, Note_on_c, 1, 70, 127
1, 200540, Note_off_c, 1, 70, 0
1, 200544, Note_on_c, 1, 69, 127
1, 200636, Note_off_c, 1, 51, 0
1, 200636, Note_off_c, 1, 69, 0
1, 200640, Note_on_c, 1, 67, 127
1, 200732, Note_off_c, 1, 67, 0
1, 200736, Note_on_c, 1, 66, 127
1, 200828, Note_off_c, 1, 66, 0
1, 200832, Note_on_c, 1, 67, 127
1, 200832, Note_on_c, 1, 48, 127
1, 201020, Note_off_c, 1, 67, 0
1, 201024, Note_on_c, 1, 70, 127
1, 201116, Note_off_c, 1, 70, 0
1, 201120, Note_on_c, 1, 69, 127
1, 201212, Note_off_c, 1, 48, 0
1, 201212, Note_off_c, 1, 69, 0
1, 201216, Note_on_c, 1, 67, 127
1, 201216, Note_on_c, 1, 50, 127
1, 201308, Note_off_c, 1, 67, 0
1, 201312, Note_on_c, 1, 66, 127
1, 201404, Note_off_c, 1, 50, 0
1, 201404, Note_off_c, 1, 66, 0
1, 201408, Note_on_c, 1, 67, 127
1, 201408, Note_on_c, 1, 43, 127
1, 201596, Note_off_c, 1, 67, 0
1, 201600, Note_on_c, 1, 70, 127
1, 201692, Note_off_c, 1, 70, 0
1, 201696, Note_on_c, 1, 69, 127
1, 201788, Note_off_c, 1, 43, 0
1, 201788, Note_off_c, 1, 69, 0
1, 201792, Note_on_c, 1, 67, 127
1, 201920, Note_off_c, 1, 67, 0
1, 201984, Note_on_c, 1, 69, 127
1, 201984, Note_on_c, 1, 53, 127
1, 202172, Note_off_c, 1, 69, 0
1, 202176, Note_on_c, 1, 72, 127
1, 202240, Note_off_c, 1, 53, 0
1, 202268, Note_off_c, 1, 72, 0
1, 202272, Note_on_c, 1, 70, 127
1, 202364, Note_off_c, 1, 70, 0
1, 202368, Note_on_c, 1, 69, 127
1, 202460, Note_off_c, 1, 69, 0
1, 202464, Note_on_c, 1, 67, 127
1, 202556, Note_off_c, 1, 67, 0
1, 202560, Note_on_c, 1, 69, 127
1, 202560, Note_on_c, 1, 50, 127
1, 202748, Note_off_c, 1, 69, 0
1, 202752, Note_on_c, 1, 72, 127
1, 202816, Note_off_c, 1, 50, 0
1, 202844, Note_off_c, 1, 72, 0
1, 202848, Note_on_c, 1, 70, 127
1, 202940, Note_off_c, 1, 70, 0
1, 202944, Note_on_c, 1, 69, 127
1, 203036, Note_off_c, 1, 69, 0
1, 203040, Note_on_c, 1, 67, 127
1, 203132, Note_off_c, 1, 67, 0
1, 203136, Note_on_c, 1, 69, 127
1, 203136, Note_on_c, 1, 46, 127
1, 203324, Note_off_c, 1, 69, 0
1, 203328, Note_on_c, 1, 72, 127
1, 203420, Note_off_c, 1, 72, 0
1, 203424, Note_on_c, 1, 70, 127
1, 203516, Note_off_c, 1, 46, 0
1, 203516, Note_off_c, 1, 70, 0
1, 203520, Note_on_c, 1, 69, 127
1, 203520, Note_on_c, 1, 48, 127
1, 203612, Note_off_c, 1, 69, 0
1, 203616, Note_on_c, 1, 67, 127
1, 203708, Note_off_c, 1, 48, 0
1, 203708, Note_off_c, 1, 67, 0
1, 203712, Note_on_c, 1, 69, 127
1, 203712, Note_on_c, 1, 41, 127
1, 203900, Note_off_c, 1, 69, 0
1, 203904, Note_on_c, 1, 72, 127
1, 203996, Note_off_c, 1, 72, 0
1, 204000, Note_on_c, 1, 70, 127
1, 204092, Note_off_c, 1, 41, 0
1, 204092, Note_off_c, 1, 70, 0
1, 204096, Note_on_c, 1, 69, 127
1, 204188, Note_off_c, 1, 69, 0
1, 204192, Note_on_c, 1, 67, 127
1, 204284, Note_off_c, 1, 67, 0
1, 204288, Note_on_c, 1, 70, 127
1, 204288, Note_on_c, 1, 65, 127
1, 204288, Note_on_c, 1, 50, 127
1, 204476, Note_off_c, 1, 70, 0
1, 204480, Note_on_c, 1, 74, 127
1, 204572, Note_off_c, 1, 74, 0
1, 204576, Note_on_c, 1, 72, 127
1, 204668, Note_off_c, 1, 65, 0
1, 204668, Note_off_c, 1, 50, 0
1, 204668, Note_off_c, 1, 72, 0
1, 204672, Note_on_c, 1, 70, 127
1, 204764, Note_off_c, 1, 70, 0
1, 204768, Note_on_c, 1, 69, 127
1, 204860, Note_off_c, 1, 69, 0
1, 204864, Note_on_c, 1, 70, 127
1, 204864, Note_on_c, 1, 55, 127
1, 205052, Note_off_c, 1, 70, 0
1, 205056, Note_on_c, 1, 74, 127
1, 205148, Note_off_c, 1, 74, 0
1, 205152, Note_on_c, 1, 72, 127
1, 205244, Note_off_c, 1, 55, 0
1, 205244, Note_off_c, 1, 72, 0
1, 205248, Note_on_c, 1, 70, 127
1, 205340, Note_off_c, 1, 70, 0
1, 205344, Note_on_c, 1, 69, 127
1, 205436, Note_off_c, 1, 69, 0
1, 205440, Note_on_c, 1, 70, 127
1, 205440, Note_on_c, 1, 51, 127
1, 205628, Note_off_c, 1, 70, 0
1, 205632, Note_on_c, 1, 74, 127
1, 205724, Note_off_c, 1, 74, 0
1, 205728, Note_on_c, 1, 72, 127
1, 205820, Note_off_c, 1, 51, 0
1, 205820, Note_off_c, 1, 72, 0
1, 205824, Note_on_c, 1, 70, 127
1, 205824, Note_on_c, 1, 53, 127
1, 205916, Note_off_c, 1, 70, 0
1, 205920, Note_on_c, 1, 69, 127
1, 206012, Note_off_c, 1, 53, 0
1, 206012, Note_off_c, 1, 69, 0
1, 206016, Note_on_c, 1, 70, 127
1, 206016, Note_on_c, 1, 46, 127
1, 206204, Note_off_c, 1, 70, 0
1, 206208, Note_on_c, 1, 74, 127
1, 206300, Note_off_c, 1, 74, 0
1, 206304, Note_on_c, 1, 72, 127
1, 206396, Note_off_c, 1, 46, 0
1, 206396, Note_off_c, 1, 72, 0
1, 206400, Note_on_c, 1, 70, 127
1, 206492, Note_off_c, 1, 70, 0
1, 206496, Note_on_c, 1, 69, 127
1, 206588, Note_off_c, 1, 69, 0
1, 206592, Note_on_c, 1, 76, 127
1, 206592, Note_on_c, 1, 67, 127
1, 206592, Note_on_c, 1, 48, 127
1, 206720, Note_off_c, 1, 76, 0
1, 206784, Note_on_c, 1, 70, 127
1, 206848, Note_off_c, 1, 67, 0
1, 206912, Note_off_c, 1, 70, 0
1, 206972, Note_off_c, 1, 48, 0
1, 206976, Note_on_c, 1, 69, 127
1, 206976, Note_on_c, 1, 50, 127
1, 207104, Note_off_c, 1, 69, 0
1, 207164, Note_off_c, 1, 50, 0
1, 207168, Note_on_c, 1, 67, 127
1, 207168, Note_on_c, 1, 52, 127
1, 207260, Note_off_c, 1, 67, 0
1, 207264, Note_on_c, 1, 69, 127
1, 207356, Note_off_c, 1, 69, 0
1, 207360, Note_on_c, 1, 70, 127
1, 207452, Note_off_c, 1, 70, 0
1, 207548, Note_off_c, 1, 52, 0
1, 207552, Note_on_c, 1, 67, 127
1, 207552, Note_on_c, 1, 53, 127
1, 207740, Note_off_c, 1, 67, 0
1, 207740, Note_off_c, 1, 53, 0
1, 207744, Note_on_c, 1, 76, 127
1, 207744, Note_on_c, 1, 55, 127
1, 207872, Note_off_c, 1, 76, 0
1, 207936, Note_on_c, 1, 70, 127
1, 208064, Note_off_c, 1, 70, 0
1, 208124, Note_off_c, 1, 55, 0
1, 208128, Note_on_c, 1, 69, 127
1, 208128, Note_on_c, 1, 57, 127
1, 208256, Note_off_c, 1, 69, 0
1, 208316, Note_off_c, 1, 57, 0
1, 208320, Note_on_c, 1, 67, 127
1, 208320, Note_on_c, 1, 58, 127
1, 208412, Note_off_c, 1, 67, 0
1, 208416, Note_on_c, 1, 69, 127
1, 208508, Note_off_c, 1, 58, 0
1, 208508, Note_off_c, 1, 69, 0
1, 208512, Note_on_c, 1, 70, 127
1, 208512, Note_on_c, 1, 60, 127
1, 208604, Note_off_c, 1, 70, 0
1, 208608, Note_on_c, 1, 69, 127
1, 208700, Note_off_c, 1, 60, 0
1, 208700, Note_off_c, 1, 69, 0
1, 208704, Note_on_c, 1, 67, 127
1, 208704, Note_on_c, 1, 58, 127
1, 208892, Note_off_c, 1, 67, 0
1, 208892, Note_off_c, 1, 58, 0
1, 208896, Note_on_c, 1, 77, 127
1, 208896, Note_on_c, 1, 57, 127
1, 209024, Note_off_c, 1, 77, 0
1, 209088, Note_on_c, 1, 72, 127
1, 209216, Note_off_c, 1, 72, 0
1, 209276, Note_off_c, 1, 57, 0
1, 209280, Note_on_c, 1, 70, 127
1, 209280, Note_on_c, 1, 55, 127
1, 209408, Note_off_c, 1, 70, 0
1, 209468, Note_off_c, 1, 55, 0
1, 209472, Note_on_c, 1, 69, 127
1, 209472, Note_on_c, 1, 53, 127
1, 209564, Note_off_c, 1, 69, 0
1, 209568, Note_on_c, 1, 70, 127
1, 209660, Note_off_c, 1, 53, 0
1, 209660, Note_off_c, 1, 70, 0
1, 209664, Note_on_c, 1, 72, 127
1, 209664, Note_on_c, 1, 55, 127
1, 209756, Note_off_c, 1, 72, 0
1, 209760, Note_on_c, 1, 70, 127
1, 209852, Note_off_c, 1, 55, 0
1, 209852, Note_off_c, 1, 70, 0
1, 209856, Note_on_c, 1, 69, 127
1, 209856, Note_on_c, 1, 57, 127
1, 210044, Note_off_c, 1, 69, 0
1, 210044, Note_off_c, 1, 57, 0
1, 210048, Note_on_c, 1, 77, 127
1, 210048, Note_on_c, 1, 58, 127
1, 210176, Note_off_c, 1, 77, 0
1, 210236, Note_off_c, 1, 58, 0
1, 210240, Note_on_c, 1, 72, 127
1, 210240, Note_on_c, 1, 57, 127
1, 210368, Note_off_c, 1, 72, 0
1, 210428, Note_off_c, 1, 57, 0
1, 210432, Note_on_c, 1, 70, 127
1, 210432, Note_on_c, 1, 55, 127
1, 210560, Note_off_c, 1, 70, 0
1, 210620, Note_off_c, 1, 55, 0
1, 210624, Note_on_c, 1, 69, 127
1, 210624, Note_on_c, 1, 57, 127
1, 210716, Note_off_c, 1, 69, 0
1, 210720, Note_on_c, 1, 70, 127
1, 210812, Note_off_c, 1, 57, 0
1, 210812, Note_off_c, 1, 70, 0
1, 210816, Note_on_c, 1, 72, 127
1, 210816, Note_on_c, 1, 55, 127
1, 210908, Note_off_c, 1, 72, 0
1, 210912, Note_on_c, 1, 70, 127
1, 211004, Note_off_c, 1, 55, 0
1, 211004, Note_off_c, 1, 70, 0
1, 211008, Note_on_c, 1, 69, 127
1, 211008, Note_on_c, 1, 53, 127
1, 211196, Note_off_c, 1, 69, 0
1, 211196, Note_off_c, 1, 53, 0
1, 211200, Note_on_c, 1, 79, 127
1, 211200, Note_on_c, 1, 58, 127
1, 211388, Note_off_c, 1, 79, 0
1, 211388, Note_off_c, 1, 58, 0
1, 211392, Note_on_c, 1, 76, 127
1, 211392, Note_on_c, 1, 57, 127
1, 211580, Note_off_c, 1, 76, 0
1, 211580, Note_off_c, 1, 57, 0
1, 211584, Note_on_c, 1, 72, 127
1, 211584, Note_on_c, 1, 55, 127
1, 211712, Note_off_c, 1, 72, 0
1, 211712, Note_off_c, 1, 55, 0
1, 211776, Note_on_c, 1, 77, 127
1, 211776, Note_on_c, 1, 57, 127
1, 211964, Note_off_c, 1, 77, 0
1, 211964, Note_off_c, 1, 57, 0
1, 211968, Note_on_c, 1, 79, 127
1, 211968, Note_on_c, 1, 58, 127
1, 212156, Note_off_c, 1, 79, 0
1, 212156, Note_off_c, 1, 58, 0
1, 212160, Note_on_c, 1, 76, 127
1, 212160, Note_on_c, 1, 60, 127
1, 212288, Note_off_c, 1, 76, 0
1, 212348, Note_off_c, 1, 60, 0
1, 212352, Note_on_c, 1, 77, 127
1, 212352, Note_on_c, 1, 53, 127
1, 212540, Note_off_c, 1, 77, 0
1, 212540, Note_off_c, 1, 53, 0
1, 212544, Note_on_c, 1, 81, 127
1, 212544, Note_on_c, 1, 55, 127
1, 212732, Note_off_c, 1, 81, 0
1, 212732, Note_off_c, 1, 55, 0
1, 212736, Note_on_c, 1, 72, 127
1, 212736, Note_on_c, 1, 57, 127
1, 212864, Note_off_c, 1, 72, 0
1, 212924, Note_off_c, 1, 57, 0
1, 212928, Note_on_c, 1, 74, 127
1, 212928, Note_on_c, 1, 58, 127
1, 213116, Note_off_c, 1, 74, 0
1, 213116, Note_off_c, 1, 58, 0
1, 213120, Note_on_c, 1, 77, 127
1, 213120, Note_on_c, 1, 57, 127
1, 213308, Note_off_c, 1, 77, 0
1, 213308, Note_off_c, 1, 57, 0
1, 213312, Note_on_c, 1, 70, 127
1, 213312, Note_on_c, 1, 55, 127
1, 213440, Note_off_c, 1, 70, 0
1, 213500, Note_off_c, 1, 55, 0
1, 213504, Note_on_c, 1, 72, 127
1, 213504, Note_on_c, 1, 57, 127
1, 213692, Note_off_c, 1, 72, 0
1, 213696, Note_on_c, 1, 69, 127
1, 213760, Note_off_c, 1, 57, 0
1, 213788, Note_off_c, 1, 69, 0
1, 213792, Note_on_c, 1, 70, 127
1, 213884, Note_off_c, 1, 70, 0
1, 213888, Note_on_c, 1, 72, 127
1, 214016, Note_off_c, 1, 72, 0
1, 214080, Note_on_c, 1, 72, 127
1, 214080, Note_on_c, 1, 53, 127
1, 214080, Note_on_c, 1, 57, 127
1, 214268, Note_off_c, 1, 72, 0
1, 214272, Note_on_c, 1, 69, 127
1, 214336, Note_off_c, 1, 53, 0
1, 214336, Note_off_c, 1, 57, 0
1, 214364, Note_off_c, 1, 69, 0
1, 214368, Note_on_c, 1, 70, 127
1, 214460, Note_off_c, 1, 70, 0
1, 214464, Note_on_c, 1, 72, 127
1, 214592, Note_off_c, 1, 72, 0
1, 214656, Note_on_c, 1, 74, 127
1, 214656, Note_on_c, 1, 46, 127
1, 214656, Note_on_c, 1, 58, 127
1, 214844, Note_off_c, 1, 74, 0
1, 214848, Note_on_c, 1, 70, 127
1, 214912, Note_off_c, 1, 46, 0
1, 214912, Note_off_c, 1, 58, 0
1, 214940, Note_off_c, 1, 70, 0
1, 214944, Note_on_c, 1, 72, 127
1, 215036, Note_off_c, 1, 72, 0
1, 215040, Note_on_c, 1, 74, 127
1, 215168, Note_off_c, 1, 74, 0
1, 215232, Note_on_c, 1, 74, 127
1, 215232, Note_on_c, 1, 55, 127
1, 215232, Note_on_c, 1, 58, 127
1, 215420, Note_off_c, 1, 74, 0
1, 215424, Note_on_c, 1, 70, 127
1, 215488, Note_off_c, 1, 55, 0
1, 215488, Note_off_c, 1, 58, 0
1, 215516, Note_off_c, 1, 70, 0
1, 215520, Note_on_c, 1, 72, 127
1, 215612, Note_off_c, 1, 72, 0
1, 215616, Note_on_c, 1, 74, 127
1, 215744, Note_off_c, 1, 74, 0
1, 215808, Note_on_c, 1, 76, 127
1, 215808, Note_on_c, 1, 48, 127
1, 215808, Note_on_c, 1, 55, 127
1, 215996, Note_off_c, 1, 76, 0
1, 216000, Note_on_c, 1, 72, 127
1, 216064, Note_off_c, 1, 48, 0
1, 216064, Note_off_c, 1, 55, 0
1, 216092, Note_off_c, 1, 72, 0
1, 216096, Note_on_c, 1, 74, 127
1, 216188, Note_off_c, 1, 74, 0
1, 216192, Note_on_c, 1, 76, 127
1, 216320, Note_off_c, 1, 76, 0
1, 216384, Note_on_c, 1, 76, 127
1, 216384, Note_on_c, 1, 60, 127
1, 216384, Note_on_c, 1, 57, 127
1, 216572, Note_off_c, 1, 76, 0
1, 216576, Note_on_c, 1, 72, 127
1, 216640, Note_off_c, 1, 60, 0
1, 216640, Note_off_c, 1, 57, 0
1, 216668, Note_off_c, 1, 72, 0
1, 216672, Note_on_c, 1, 74, 127
1, 216764, Note_off_c, 1, 74, 0
1, 216768, Note_on_c, 1, 76, 127
1, 216896, Note_off_c, 1, 76, 0
1, 216960, Note_on_c, 1, 77, 127
1, 216960, Note_on_c, 1, 50, 127
1, 216960, Note_on_c, 1, 57, 127
1, 217148, Note_off_c, 1, 77, 0
1, 217152, Note_on_c, 1, 74, 127
1, 217216, Note_off_c, 1, 50, 0
1, 217216, Note_off_c, 1, 57, 0
1, 217244, Note_off_c, 1, 74, 0
1, 217248, Note_on_c, 1, 76, 127
1, 217340, Note_off_c, 1, 76, 0
1, 217344, Note_on_c, 1, 77, 127
1, 217472, Note_off_c, 1, 77, 0
1, 217536, Note_on_c, 1, 77, 127
1, 217536, Note_on_c, 1, 58, 127
1, 217536, Note_on_c, 1, 62, 127
1, 217724, Note_off_c, 1, 77, 0
1, 217728, Note_on_c, 1, 74, 127
1, 217792, Note_off_c, 1, 58, 0
1, 217792, Note_off_c, 1, 62, 0
1, 217820, Note_off_c, 1, 74, 0
1, 217824, Note_on_c, 1, 76, 127
1, 217916, Note_off_c, 1, 76, 0
1, 217920, Note_on_c, 1, 77, 127
1, 218048, Note_off_c, 1, 77, 0
1, 218112, Note_on_c, 1, 79, 127
1, 218112, Note_on_c, 1, 52, 127
1, 218112, Note_on_c, 1, 60, 127
1, 218300, Note_off_c, 1, 79, 0
1, 218304, Note_on_c, 1, 76, 127
1, 218368, Note_off_c, 1, 52, 0
1, 218368, Note_off_c, 1, 60, 0
1, 218396, Note_off_c, 1, 76, 0
1, 218400, Note_on_c, 1, 77, 127
1, 218492, Note_off_c, 1, 77, 0
1, 218496, Note_on_c, 1, 79, 127
1, 218624, Note_off_c, 1, 79, 0
1, 218688, Note_on_c, 1, 79, 127
1, 218688, Note_on_c, 1, 60, 127
1, 218688, Note_on_c, 1, 64, 127
1, 218876, Note_off_c, 1, 79, 0
1, 218880, Note_on_c, 1, 76, 127
1, 218944, Note_off_c, 1, 60, 0
1, 218944, Note_off_c, 1, 64, 0
1, 218972, Note_off_c, 1, 76, 0
1, 218976, Note_on_c, 1, 77, 127
1, 219068, Note_off_c, 1, 77, 0
1, 219072, Note_on_c, 1, 79, 127
1, 219200, Note_off_c, 1, 79, 0
1, 219264, Note_on_c, 1, 81, 127
1, 219264, Note_on_c, 1, 65, 127
1, 219264, Note_on_c, 1, 60, 127
1, 219264, Note_on_c, 1, 53, 127
1, 219392, Note_off_c, 1, 81, 0
1, 219456, Note_on_c, 1, 82, 127
1, 219520, Note_off_c, 1, 65, 0
1, 219520, Note_off_c, 1, 60, 0
1, 219520, Note_off_c, 1, 53, 0
1, 219548, Note_off_c, 1, 82, 0
1, 219552, Note_on_c, 1, 81, 127
1, 219644, Note_off_c, 1, 81, 0
1, 219648, Note_on_c, 1, 79, 127
1, 219740, Note_off_c, 1, 79, 0
1, 219744, Note_on_c, 1, 77, 127
1, 219808, Note_off_c, 1, 77, 0
1, 219840, Note_on_c, 1, 81, 127
1, 219840, Note_on_c, 1, 60, 127
1, 219840, Note_on_c, 1, 53, 127
1, 219840, Note_on_c, 1, 51, 127
1, 219968, Note_off_c, 1, 81, 0
1, 220032, Note_on_c, 1, 82, 127
1, 220096, Note_off_c, 1, 60, 0
1, 220096, Note_off_c, 1, 53, 0
1, 220096, Note_off_c, 1, 51, 0
1, 220124, Note_off_c, 1, 82, 0
1, 220128, Note_on_c, 1, 81, 127
1, 220220, Note_off_c, 1, 81, 0
1, 220224, Note_on_c, 1, 79, 127
1, 220316, Note_off_c, 1, 79, 0
1, 220320, Note_on_c, 1, 77, 127
1, 220384, Note_off_c, 1, 77, 0
1, 220416, Note_on_c, 1, 82, 127
1, 220416, Note_on_c, 1, 50, 127
1, 220604, Note_off_c, 1, 50, 0
1, 220608, Note_on_c, 1, 53, 127
1, 220796, Note_off_c, 1, 82, 0
1, 220796, Note_off_c, 1, 53, 0
1, 220800, Note_on_c, 1, 77, 127
1, 220800, Note_on_c, 1, 58, 127
1, 220988, Note_off_c, 1, 77, 0
1, 220988, Note_off_c, 1, 58, 0
1, 220992, Note_on_c, 1, 79, 127
1, 220992, Note_on_c, 1, 51, 127
1, 221180, Note_off_c, 1, 79, 0
1, 221180, Note_off_c, 1, 51, 0
1, 221184, Note_on_c, 1, 81, 127
1, 221184, Note_on_c, 1, 55, 127
1, 221276, Note_off_c, 1, 81, 0
1, 221280, Note_on_c, 1, 79, 127
1, 221372, Note_off_c, 1, 55, 0
1, 221372, Note_off_c, 1, 79, 0
1, 221376, Note_on_c, 1, 77, 127
1, 221376, Note_on_c, 1, 60, 127
1, 221468, Note_off_c, 1, 77, 0
1, 221472, Note_on_c, 1, 75, 127
1, 221564, Note_off_c, 1, 60, 0
1, 221564, Note_off_c, 1, 75, 0
1, 221568, Note_on_c, 1, 77, 127
1, 221568, Note_on_c, 1, 50, 127
1, 221756, Note_off_c, 1, 77, 0
1, 221756, Note_off_c, 1, 50, 0
1, 221760, Note_on_c, 1, 82, 127
1, 221760, Note_on_c, 1, 53, 127
1, 221948, Note_off_c, 1, 82, 0
1, 221948, Note_off_c, 1, 53, 0
1, 221952, Note_on_c, 1, 74, 127
1, 221952, Note_on_c, 1, 58, 127
1, 222080, Note_off_c, 1, 74, 0
1, 222140, Note_off_c, 1, 58, 0
1, 222144, Note_on_c, 1, 75, 127
1, 222144, Note_on_c, 1, 48, 127
1, 222332, Note_off_c, 1, 75, 0
1, 222332, Note_off_c, 1, 48, 0
1, 222336, Note_on_c, 1, 79, 127
1, 222336, Note_on_c, 1, 51, 127
1, 222524, Note_off_c, 1, 79, 0
1, 222524, Note_off_c, 1, 51, 0
1, 222528, Note_on_c, 1, 72, 127
1, 222528, Note_on_c, 1, 57, 127
1, 222656, Note_off_c, 1, 72, 0
1, 222716, Note_off_c, 1, 57, 0
1, 222720, Note_on_c, 1, 74, 127
1, 222720, Note_on_c, 1, 46, 127
1, 222908, Note_off_c, 1, 74, 0
1, 222908, Note_off_c, 1, 46, 0
1, 222912, Note_on_c, 1, 77, 127
1, 222912, Note_on_c, 1, 50, 127
1, 223100, Note_off_c, 1, 77, 0
1, 223100, Note_off_c, 1, 50, 0
1, 223104, Note_on_c, 1, 70, 127
1, 223104, Note_on_c, 1, 51, 127
1, 223292, Note_off_c, 1, 70, 0
1, 223292, Note_off_c, 1, 51, 0
1, 223296, Note_on_c, 1, 69, 127
1, 223296, Note_on_c, 1, 53, 127
1, 223340, Note_off_c, 1, 69, 0
1, 223344, Note_on_c, 1, 70, 127
1, 223388, Note_off_c, 1, 70, 0
1, 223484, Note_off_c, 1, 53, 0
1, 223488, Note_on_c, 1, 69, 127
1, 223488, Note_on_c, 1, 51, 127
1, 223676, Note_off_c, 1, 69, 0
1, 223676, Note_off_c, 1, 51, 0
1, 223680, Note_on_c, 1, 70, 127
1, 223680, Note_on_c, 1, 53, 127
1, 223808, Note_off_c, 1, 70, 0
1, 223868, Note_off_c, 1, 53, 0
1, 223872, Note_on_c, 1, 46, 127
1, 223872, Note_on_c, 1, 70, 127
1, 224060, Note_off_c, 1, 46, 0
1, 224060, Note_off_c, 1, 70, 0
1, 224064, Note_on_c, 1, 74, 127
1, 224252, Note_off_c, 1, 74, 0
1, 224256, Note_on_c, 1, 58, 127
1, 224256, Note_on_c, 1, 77, 127
1, 224384, Note_off_c, 1, 77, 0
1, 224444, Note_off_c, 1, 58, 0
1, 224448, Note_on_c, 1, 62, 127
1, 224448, Note_on_c, 1, 77, 127
1, 224636, Note_off_c, 1, 62, 0
1, 224636, Note_off_c, 1, 77, 0
1, 224640, Note_on_c, 1, 65, 127
1, 224640, Note_on_c, 1, 74, 127
1, 224828, Note_off_c, 1, 65, 0
1, 224828, Note_off_c, 1, 74, 0
1, 224832, Note_on_c, 1, 58, 127
1, 224832, Note_on_c, 1, 70, 127
1, 224960, Note_off_c, 1, 70, 0
1, 225020, Note_off_c, 1, 58, 0
1, 225024, Note_on_c, 1, 60, 127
1, 225024, Note_on_c, 1, 69, 127
1, 225212, Note_off_c, 1, 60, 0
1, 225212, Note_off_c, 1, 69, 0
1, 225216, Note_on_c, 1, 65, 127
1, 225216, Note_on_c, 1, 72, 127
1, 225404, Note_off_c, 1, 65, 0
1, 225404, Note_off_c, 1, 72, 0
1, 225408, Note_on_c, 1, 57, 127
1, 225408, Note_on_c, 1, 77, 127
1, 225536, Note_off_c, 1, 57, 0
1, 225536, Note_off_c, 1, 77, 0
1, 225600, Note_on_c, 1, 60, 127
1, 225600, Note_on_c, 1, 77, 127
1, 225788, Note_off_c, 1, 60, 0
1, 225788, Note_off_c, 1, 77, 0
1, 225792, Note_on_c, 1, 65, 127
1, 225792, Note_on_c, 1, 72, 127
1, 225980, Note_off_c, 1, 65, 0
1, 225980, Note_off_c, 1, 72, 0
1, 225984, Note_on_c, 1, 57, 127
1, 225984, Note_on_c, 1, 69, 127
1, 226112, Note_off_c, 1, 57, 0
1, 226112, Note_off_c, 1, 69, 0
1, 226176, Note_on_c, 1, 62, 127
1, 226176, Note_on_c, 1, 70, 127
1, 226364, Note_off_c, 1, 62, 0
1, 226364, Note_off_c, 1, 70, 0
1, 226368, Note_on_c, 1, 65, 127
1, 226368, Note_on_c, 1, 74, 127
1, 226556, Note_off_c, 1, 65, 0
1, 226556, Note_off_c, 1, 74, 0
1, 226560, Note_on_c, 1, 58, 127
1, 226560, Note_on_c, 1, 77, 127
1, 226688, Note_off_c, 1, 77, 0
1, 226748, Note_off_c, 1, 58, 0
1, 226752, Note_on_c, 1, 62, 127
1, 226752, Note_on_c, 1, 77, 127
1, 226940, Note_off_c, 1, 62, 0
1, 226940, Note_off_c, 1, 77, 0
1, 226944, Note_on_c, 1, 65, 127
1, 226944, Note_on_c, 1, 74, 127
1, 227132, Note_off_c, 1, 65, 0
1, 227132, Note_off_c, 1, 74, 0
1, 227136, Note_on_c, 1, 58, 127
1, 227136, Note_on_c, 1, 70, 127
1, 227264, Note_off_c, 1, 70, 0
1, 227324, Note_off_c, 1, 58, 0
1, 227328, Note_on_c, 1, 62, 127
1, 227328, Note_on_c, 1, 71, 127
1, 227516, Note_off_c, 1, 62, 0
1, 227516, Note_off_c, 1, 71, 0
1, 227520, Note_on_c, 1, 67, 127
1, 227520, Note_on_c, 1, 74, 127
1, 227708, Note_off_c, 1, 67, 0
1, 227708, Note_off_c, 1, 74, 0
1, 227712, Note_on_c, 1, 59, 127
1, 227712, Note_on_c, 1, 79, 127
1, 227840, Note_off_c, 1, 79, 0
1, 227900, Note_off_c, 1, 59, 0
1, 227904, Note_on_c, 1, 62, 127
1, 227904, Note_on_c, 1, 79, 127
1, 228092, Note_off_c, 1, 62, 0
1, 228092, Note_off_c, 1, 79, 0
1, 228096, Note_on_c, 1, 67, 127
1, 228096, Note_on_c, 1, 74, 127
1, 228284, Note_off_c, 1, 67, 0
1, 228284, Note_off_c, 1, 74, 0
1, 228288, Note_on_c, 1, 59, 127
1, 228288, Note_on_c, 1, 71, 127
1, 228416, Note_off_c, 1, 71, 0
1, 228476, Note_off_c, 1, 59, 0
1, 228480, Note_on_c, 1, 63, 127
1, 228480, Note_on_c, 1, 72, 127
1, 228668, Note_off_c, 1, 63, 0
1, 228668, Note_off_c, 1, 72, 0
1, 228672, Note_on_c, 1, 67, 127
1, 228672, Note_on_c, 1, 75, 127
1, 228860, Note_off_c, 1, 67, 0
1, 228860, Note_off_c, 1, 75, 0
1, 228864, Note_on_c, 1, 60, 127
1, 228864, Note_on_c, 1, 79, 127
1, 228992, Note_off_c, 1, 79, 0
1, 229052, Note_off_c, 1, 60, 0
1, 229056, Note_on_c, 1, 63, 127
1, 229056, Note_on_c, 1, 79, 127
1, 229244, Note_off_c, 1, 63, 0
1, 229244, Note_off_c, 1, 79, 0
1, 229248, Note_on_c, 1, 67, 127
1, 229248, Note_on_c, 1, 75, 127
1, 229436, Note_off_c, 1, 67, 0
1, 229436, Note_off_c, 1, 75, 0
1, 229440, Note_on_c, 1, 60, 127
1, 229440, Note_on_c, 1, 72, 127
1, 229568, Note_off_c, 1, 72, 0
1, 229628, Note_off_c, 1, 60, 0
1, 229632, Note_on_c, 1, 62, 127
1, 229632, Note_on_c, 1, 71, 127
1, 229820, Note_off_c, 1, 62, 0
1, 229820, Note_off_c, 1, 71, 0
1, 229824, Note_on_c, 1, 67, 127
1, 229824, Note_on_c, 1, 74, 127
1, 230012, Note_off_c, 1, 67, 0
1, 230012, Note_off_c, 1, 74, 0
1, 230016, Note_on_c, 1, 59, 127
1, 230016, Note_on_c, 1, 79, 127
1, 230144, Note_off_c, 1, 79, 0
1, 230204, Note_off_c, 1, 59, 0
1, 230208, Note_on_c, 1, 62, 127
1, 230208, Note_on_c, 1, 79, 127
1, 230396, Note_off_c, 1, 62, 0
1, 230396, Note_off_c, 1, 79, 0
1, 230400, Note_on_c, 1, 67, 127
1, 230400, Note_on_c, 1, 74, 127
1, 230588, Note_off_c, 1, 67, 0
1, 230588, Note_off_c, 1, 74, 0
1, 230592, Note_on_c, 1, 59, 127
1, 230592, Note_on_c, 1, 71, 127
1, 230720, Note_off_c, 1, 71, 0
1, 230780, Note_off_c, 1, 59, 0
1, 230784, Note_on_c, 1, 64, 127
1, 230784, Note_on_c, 1, 73, 127
1, 230972, Note_off_c, 1, 64, 0
1, 230972, Note_off_c, 1, 73, 0
1, 230976, Note_on_c, 1, 69, 127
1, 230976, Note_on_c, 1, 76, 127
1, 231164, Note_off_c, 1, 69, 0
1, 231164, Note_off_c, 1, 76, 0
1, 231168, Note_on_c, 1, 61, 127
1, 231168, Note_on_c, 1, 81, 127
1, 231296, Note_off_c, 1, 81, 0
1, 231356, Note_off_c, 1, 61, 0
1, 231360, Note_on_c, 1, 64, 127
1, 231360, Note_on_c, 1, 81, 127
1, 231548, Note_off_c, 1, 64, 0
1, 231548, Note_off_c, 1, 81, 0
1, 231552, Note_on_c, 1, 69, 127
1, 231552, Note_on_c, 1, 76, 127
1, 231740, Note_off_c, 1, 69, 0
1, 231740, Note_off_c, 1, 76, 0
1, 231744, Note_on_c, 1, 61, 127
1, 231744, Note_on_c, 1, 73, 127
1, 231872, Note_off_c, 1, 73, 0
1, 231932, Note_off_c, 1, 61, 0
1, 231936, Note_on_c, 1, 65, 127
1, 231936, Note_on_c, 1, 74, 127
1, 232124, Note_off_c, 1, 65, 0
1, 232124, Note_off_c, 1, 74, 0
1, 232128, Note_on_c, 1, 69, 127
1, 232128, Note_on_c, 1, 77, 127
1, 232316, Note_off_c, 1, 69, 0
1, 232316, Note_off_c, 1, 77, 0
1, 232320, Note_on_c, 1, 62, 127
1, 232320, Note_on_c, 1, 81, 127
1, 232448, Note_off_c, 1, 81, 0
1, 232508, Note_off_c, 1, 62, 0
1, 232512, Note_on_c, 1, 65, 127
1, 232512, Note_on_c, 1, 81, 127
1, 232700, Note_off_c, 1, 65, 0
1, 232700, Note_off_c, 1, 81, 0
1, 232704, Note_on_c, 1, 69, 127
1, 232704, Note_on_c, 1, 77, 127
1, 232892, Note_off_c, 1, 69, 0
1, 232892, Note_off_c, 1, 77, 0
1, 232896, Note_on_c, 1, 62, 127
1, 232896, Note_on_c, 1, 74, 127
1, 233084, Note_off_c, 1, 62, 0
1, 233084, Note_off_c, 1, 74, 0
1, 233088, Note_on_c, 1, 64, 127
1, 233088, Note_on_c, 1, 73, 127
1, 233276, Note_off_c, 1, 64, 0
1, 233276, Note_off_c, 1, 73, 0
1, 233280, Note_on_c, 1, 69, 127
1, 233280, Note_on_c, 1, 76, 127
1, 233468, Note_off_c, 1, 69, 0
1, 233468, Note_off_c, 1, 76, 0
1, 233472, Note_on_c, 1, 61, 127
1, 233472, Note_on_c, 1, 81, 127
1, 233600, Note_off_c, 1, 81, 0
1, 233660, Note_off_c, 1, 61, 0
1, 233664, Note_on_c, 1, 64, 127
1, 233664, Note_on_c, 1, 81, 127
1, 233852, Note_off_c, 1, 64, 0
1, 233852, Note_off_c, 1, 81, 0
1, 233856, Note_on_c, 1, 69, 127
1, 233856, Note_on_c, 1, 76, 127
1, 234044, Note_off_c, 1, 69, 0
1, 234044, Note_off_c, 1, 76, 0
1, 234048, Note_on_c, 1, 61, 127
1, 234048, Note_on_c, 1, 73, 127
1, 234176, Note_off_c, 1, 73, 0
1, 234236, Note_off_c, 1, 61, 0
1, 234240, Note_on_c, 1, 65, 127
1, 234240, Note_on_c, 1, 74, 127
1, 234428, Note_off_c, 1, 65, 0
1, 234428, Note_off_c, 1, 74, 0
1, 234432, Note_on_c, 1, 70, 127
1, 234432, Note_on_c, 1, 77, 127
1, 234620, Note_off_c, 1, 70, 0
1, 234620, Note_off_c, 1, 77, 0
1, 234624, Note_on_c, 1, 62, 127
1, 234624, Note_on_c, 1, 82, 127
1, 234752, Note_off_c, 1, 82, 0
1, 234812, Note_off_c, 1, 62, 0
1, 234816, Note_on_c, 1, 65, 127
1, 234816, Note_on_c, 1, 82, 127
1, 235004, Note_off_c, 1, 65, 0
1, 235004, Note_off_c, 1, 82, 0
1, 235008, Note_on_c, 1, 70, 127
1, 235008, Note_on_c, 1, 77, 127
1, 235196, Note_off_c, 1, 70, 0
1, 235196, Note_off_c, 1, 77, 0
1, 235200, Note_on_c, 1, 62, 127
1, 235200, Note_on_c, 1, 74, 127
1, 235388, Note_off_c, 1, 62, 0
1, 235388, Note_off_c, 1, 74, 0
1, 235392, Note_on_c, 1, 67, 127
1, 235392, Note_on_c, 1, 73, 127
1, 235580, Note_off_c, 1, 67, 0
1, 235580, Note_off_c, 1, 73, 0
1, 235584, Note_on_c, 1, 70, 127
1, 235584, Note_on_c, 1, 76, 127
1, 235772, Note_off_c, 1, 70, 0
1, 235772, Note_off_c, 1, 76, 0
1, 235776, Note_on_c, 1, 64, 127
1, 235776, Note_on_c, 1, 82, 127
1, 235904, Note_off_c, 1, 82, 0
1, 235964, Note_off_c, 1, 64, 0
1, 235968, Note_on_c, 1, 67, 127
1, 235968, Note_on_c, 1, 82, 127
1, 236156, Note_off_c, 1, 67, 0
1, 236156, Note_off_c, 1, 82, 0
1, 236160, Note_on_c, 1, 70, 127
1, 236160, Note_on_c, 1, 76, 127
1, 236348, Note_off_c, 1, 70, 0
1, 236348, Note_off_c, 1, 76, 0
1, 236352, Note_on_c, 1, 64, 127
1, 236352, Note_on_c, 1, 73, 127
1, 236480, Note_off_c, 1, 73, 0
1, 236540, Note_off_c, 1, 64, 0
1, 236544, Note_on_c, 1, 67, 127
1, 236544, Note_on_c, 1, 72, 127
1, 236732, Note_off_c, 1, 67, 0
1, 236732, Note_off_c, 1, 72, 0
1, 236736, Note_on_c, 1, 70, 127
1, 236736, Note_on_c, 1, 76, 127
1, 236924, Note_off_c, 1, 70, 0
1, 236924, Note_off_c, 1, 76, 0
1, 236928, Note_on_c, 1, 64, 127
1, 236928, Note_on_c, 1, 82, 127
1, 237056, Note_off_c, 1, 82, 0
1, 237116, Note_off_c, 1, 64, 0
1, 237120, Note_on_c, 1, 67, 127
1, 237120, Note_on_c, 1, 82, 127
1, 237308, Note_off_c, 1, 67, 0
1, 237308, Note_off_c, 1, 82, 0
1, 237312, Note_on_c, 1, 70, 127
1, 237312, Note_on_c, 1, 76, 127
1, 237500, Note_off_c, 1, 70, 0
1, 237500, Note_off_c, 1, 76, 0
1, 237504, Note_on_c, 1, 64, 127
1, 237504, Note_on_c, 1, 72, 127
1, 237632, Note_off_c, 1, 72, 0
1, 237692, Note_off_c, 1, 64, 0
1, 237696, Note_on_c, 1, 69, 127
1, 237696, Note_on_c, 1, 72, 127
1, 237884, Note_off_c, 1, 69, 0
1, 237884, Note_off_c, 1, 72, 0
1, 237888, Note_on_c, 1, 72, 127
1, 237888, Note_on_c, 1, 77, 127
1, 238076, Note_off_c, 1, 72, 0
1, 238076, Note_off_c, 1, 77, 0
1, 238080, Note_on_c, 1, 65, 127
1, 238080, Note_on_c, 1, 81, 127
1, 238208, Note_off_c, 1, 81, 0
1, 238268, Note_off_c, 1, 65, 0
1, 238272, Note_on_c, 1, 69, 127
1, 238272, Note_on_c, 1, 81, 127
1, 238460, Note_off_c, 1, 69, 0
1, 238460, Note_off_c, 1, 81, 0
1, 238464, Note_on_c, 1, 72, 127
1, 238464, Note_on_c, 1, 77, 127
1, 238652, Note_off_c, 1, 72, 0
1, 238652, Note_off_c, 1, 77, 0
1, 238656, Note_on_c, 1, 65, 127
1, 238656, Note_on_c, 1, 72, 127
1, 238784, Note_off_c, 1, 72, 0
1, 238844, Note_off_c, 1, 65, 0
1, 238848, Note_on_c, 1, 67, 127
1, 238848, Note_on_c, 1, 71, 127
1, 239036, Note_off_c, 1, 67, 0
1, 239036, Note_off_c, 1, 71, 0
1, 239040, Note_on_c, 1, 71, 127
1, 239040, Note_on_c, 1, 74, 127
1, 239228, Note_off_c, 1, 71, 0
1, 239228, Note_off_c, 1, 74, 0
1, 239232, Note_on_c, 1, 65, 127
1, 239232, Note_on_c, 1, 79, 127
1, 239360, Note_off_c, 1, 79, 0
1, 239420, Note_off_c, 1, 65, 0
1, 239424, Note_on_c, 1, 67, 127
1, 239424, Note_on_c, 1, 79, 127
1, 239612, Note_off_c, 1, 67, 0
1, 239612, Note_off_c, 1, 79, 0
1, 239616, Note_on_c, 1, 71, 127
1, 239616, Note_on_c, 1, 74, 127
1, 239804, Note_off_c, 1, 71, 0
1, 239804, Note_off_c, 1, 74, 0
1, 239808, Note_on_c, 1, 65, 127
1, 239808, Note_on_c, 1, 71, 127
1, 239936, Note_off_c, 1, 71, 0
1, 239996, Note_off_c, 1, 65, 0
1, 240000, Note_on_c, 1, 63, 127
1, 240000, Note_on_c, 1, 72, 127
1, 240188, Note_off_c, 1, 63, 0
1, 240188, Note_off_c, 1, 72, 0
1, 240192, Note_on_c, 1, 67, 127
1, 240192, Note_on_c, 1, 75, 127
1, 240380, Note_off_c, 1, 67, 0
1, 240380, Note_off_c, 1, 75, 0
1, 240384, Note_on_c, 1, 60, 127
1, 240384, Note_on_c, 1, 79, 127
1, 240512, Note_off_c, 1, 79, 0
1, 240572, Note_off_c, 1, 60, 0
1, 240576, Note_on_c, 1, 63, 127
1, 240576, Note_on_c, 1, 79, 127
1, 240764, Note_off_c, 1, 63, 0
1, 240764, Note_off_c, 1, 79, 0
1, 240768, Note_on_c, 1, 67, 127
1, 240768, Note_on_c, 1, 75, 127
1, 240956, Note_off_c, 1, 67, 0
1, 240956, Note_off_c, 1, 75, 0
1, 240960, Note_on_c, 1, 60, 127
1, 240960, Note_on_c, 1, 72, 127
1, 241148, Note_off_c, 1, 60, 0
1, 241148, Note_off_c, 1, 72, 0
1, 241152, Note_on_c, 1, 63, 127
1, 241152, Note_on_c, 1, 69, 127
1, 241340, Note_off_c, 1, 63, 0
1, 241340, Note_off_c, 1, 69, 0
1, 241344, Note_on_c, 1, 67, 127
1, 241344, Note_on_c, 1, 72, 127
1, 241532, Note_off_c, 1, 67, 0
1, 241532, Note_off_c, 1, 72, 0
1, 241536, Note_on_c, 1, 60, 127
1, 241536, Note_on_c, 1, 79, 127
1, 241664, Note_off_c, 1, 79, 0
1, 241724, Note_off_c, 1, 60, 0
1, 241728, Note_on_c, 1, 63, 127
1, 241728, Note_on_c, 1, 79, 127
1, 241916, Note_off_c, 1, 63, 0
1, 241916, Note_off_c, 1, 79, 0
1, 241920, Note_on_c, 1, 67, 127
1, 241920, Note_on_c, 1, 72, 127
1, 242108, Note_off_c, 1, 67, 0
1, 242108, Note_off_c, 1, 72, 0
1, 242112, Note_on_c, 1, 60, 127
1, 242112, Note_on_c, 1, 69, 127
1, 242300, Note_off_c, 1, 60, 0
1, 242300, Note_off_c, 1, 69, 0
1, 242304, Note_on_c, 1, 62, 127
1, 242304, Note_on_c, 1, 69, 127
1, 242492, Note_off_c, 1, 62, 0
1, 242492, Note_off_c, 1, 69, 0
1, 242496, Note_on_c, 1, 66, 127
1, 242496, Note_on_c, 1, 72, 127
1, 242684, Note_off_c, 1, 66, 0
1, 242684, Note_off_c, 1, 72, 0
1, 242688, Note_on_c, 1, 60, 127
1, 242688, Note_on_c, 1, 78, 127
1, 242816, Note_off_c, 1, 78, 0
1, 242876, Note_off_c, 1, 60, 0
1, 242880, Note_on_c, 1, 62, 127
1, 242880, Note_on_c, 1, 78, 127
1, 243068, Note_off_c, 1, 62, 0
1, 243068, Note_off_c, 1, 78, 0
1, 243072, Note_on_c, 1, 66, 127
1, 243072, Note_on_c, 1, 72, 127
1, 243260, Note_off_c, 1, 66, 0
1, 243260, Note_off_c, 1, 72, 0
1, 243264, Note_on_c, 1, 60, 127
1, 243264, Note_on_c, 1, 69, 127
1, 243452, Note_off_c, 1, 60, 0
1, 243452, Note_off_c, 1, 69, 0
1, 243456, Note_on_c, 1, 58, 127
1, 243456, Note_on_c, 1, 79, 127
1, 243644, Note_off_c, 1, 58, 0
1, 243644, Note_off_c, 1, 79, 0
1, 243648, Note_on_c, 1, 67, 127
1, 243648, Note_on_c, 1, 74, 127
1, 243836, Note_off_c, 1, 67, 0
1, 243836, Note_off_c, 1, 74, 0
1, 243840, Note_on_c, 1, 60, 127
1, 243840, Note_on_c, 1, 70, 127
1, 244028, Note_off_c, 1, 60, 0
1, 244028, Note_off_c, 1, 70, 0
1, 244032, Note_on_c, 1, 62, 127
1, 244032, Note_on_c, 1, 74, 127
1, 244220, Note_off_c, 1, 62, 0
1, 244220, Note_off_c, 1, 74, 0
1, 244224, Note_on_c, 1, 60, 127
1, 244224, Note_on_c, 1, 70, 127
1, 244412, Note_off_c, 1, 60, 0
1, 244412, Note_off_c, 1, 70, 0
1, 244416, Note_on_c, 1, 62, 127
1, 244416, Note_on_c, 1, 66, 127
1, 244604, Note_off_c, 1, 62, 0
1, 244604, Note_off_c, 1, 66, 0
1, 244608, Note_on_c, 1, 67, 127
1, 244608, Note_on_c, 1, 58, 127
1, 244736, Note_off_c, 1, 67, 0
1, 244736, Note_off_c, 1, 58, 0
1, 244800, Note_on_c, 1, 69, 127
1, 244800, Note_on_c, 1, 57, 127
1, 244928, Note_off_c, 1, 69, 0
1, 244928, Note_off_c, 1, 57, 0
1, 244992, Note_on_c, 1, 70, 127
1, 244992, Note_on_c, 1, 55, 127
1, 245120, Note_off_c, 1, 70, 0
1, 245120, Note_off_c, 1, 55, 0
1, 245184, Note_on_c, 1, 67, 127
1, 245184, Note_on_c, 1, 58, 127
1, 245312, Note_off_c, 1, 67, 0
1, 245312, Note_off_c, 1, 58, 0
1, 245376, Note_on_c, 1, 69, 127
1, 245376, Note_on_c, 1, 57, 127
1, 245504, Note_off_c, 1, 69, 0
1, 245504, Note_off_c, 1, 57, 0
1, 245568, Note_on_c, 1, 70, 127
1, 245568, Note_on_c, 1, 55, 127
1, 245696, Note_off_c, 1, 70, 0
1, 245696, Note_off_c, 1, 55, 0
1, 245760, Note_on_c, 1, 69, 127
1, 245760, Note_on_c, 1, 54, 127
1, 245888, Note_off_c, 1, 69, 0
1, 245888, Note_off_c, 1, 54, 0
1, 245952, Note_on_c, 1, 70, 127
1, 245952, Note_on_c, 1, 52, 127
1, 246080, Note_off_c, 1, 70, 0
1, 246080, Note_off_c, 1, 52, 0
1, 246144, Note_on_c, 1, 72, 127
1, 246144, Note_on_c, 1, 50, 127
1, 246272, Note_off_c, 1, 72, 0
1, 246272, Note_off_c, 1, 50, 0
1, 246336, Note_on_c, 1, 69, 127
1, 246336, Note_on_c, 1, 54, 127
1, 246464, Note_off_c, 1, 69, 0
1, 246464, Note_off_c, 1, 54, 0
1, 246528, Note_on_c, 1, 70, 127
1, 246528, Note_on_c, 1, 52, 127
1, 246656, Note_off_c, 1, 70, 0
1, 246656, Note_off_c, 1, 52, 0
1, 246720, Note_on_c, 1, 72, 127
1, 246720, Note_on_c, 1, 50, 127
1, 246848, Note_off_c, 1, 72, 0
1, 246848, Note_off_c, 1, 50, 0
1, 246912, Note_on_c, 1, 70, 127
1, 246912, Note_on_c, 1, 55, 127
1, 247100, Note_off_c, 1, 70, 0
1, 247100, Note_off_c, 1, 55, 0
1, 247104, Note_on_c, 1, 72, 127
1, 247104, Note_on_c, 1, 57, 127
1, 247232, Note_off_c, 1, 72, 0
1, 247232, Note_off_c, 1, 57, 0
1, 247296, Note_on_c, 1, 74, 127
1, 247296, Note_on_c, 1, 58, 127
1, 247424, Note_off_c, 1, 74, 0
1, 247424, Note_off_c, 1, 58, 0
1, 247488, Note_on_c, 1, 70, 127
1, 247488, Note_on_c, 1, 55, 127
1, 247676, Note_off_c, 1, 70, 0
1, 247676, Note_off_c, 1, 55, 0
1, 247680, Note_on_c, 1, 72, 127
1, 247680, Note_on_c, 1, 57, 127
1, 247808, Note_off_c, 1, 72, 0
1, 247808, Note_off_c, 1, 57, 0
1, 247872, Note_on_c, 1, 74, 127
1, 247872, Note_on_c, 1, 58, 127
1, 248000, Note_off_c, 1, 74, 0
1, 248000, Note_off_c, 1, 58, 0
1, 248064, Note_on_c, 1, 72, 127
1, 248064, Note_on_c, 1, 57, 127
1, 248252, Note_off_c, 1, 72, 0
1, 248252, Note_off_c, 1, 57, 0
1, 248256, Note_on_c, 1, 74, 127
1, 248256, Note_on_c, 1, 58, 127
1, 248444, Note_off_c, 1, 74, 0
1, 248444, Note_off_c, 1, 58, 0
1, 248448, Note_on_c, 1, 75, 127
1, 248448, Note_on_c, 1, 60, 127
1, 248576, Note_off_c, 1, 75, 0
1, 248576, Note_off_c, 1, 60, 0
1, 248640, Note_on_c, 1, 72, 127
1, 248640, Note_on_c, 1, 57, 127
1, 248828, Note_off_c, 1, 72, 0
1, 248828, Note_off_c, 1, 57, 0
1, 248832, Note_on_c, 1, 74, 127
1, 248832, Note_on_c, 1, 58, 127
1, 249020, Note_off_c, 1, 74, 0
1, 249020, Note_off_c, 1, 58, 0
1, 249024, Note_on_c, 1, 75, 127
1, 249024, Note_on_c, 1, 60, 127
1, 249152, Note_off_c, 1, 75, 0
1, 249152, Note_off_c, 1, 60, 0
1, 249216, Note_on_c, 1, 74, 127
1, 249216, Note_on_c, 1, 48, 127
1, 249216, Note_on_c, 1, 54, 127
1, 249404, Note_off_c, 1, 74, 0
1, 249408, Note_on_c, 1, 76, 127
1, 249596, Note_off_c, 1, 76, 0
1, 249600, Note_on_c, 1, 78, 127
1, 249788, Note_off_c, 1, 48, 0
1, 249788, Note_off_c, 1, 54, 0
1, 249788, Note_off_c, 1, 78, 0
1, 249792, Note_on_c, 1, 74, 127
1, 249980, Note_off_c, 1, 74, 0
1, 249984, Note_on_c, 1, 76, 127
1, 250172, Note_off_c, 1, 76, 0
1, 250176, Note_on_c, 1, 78, 127
1, 250364, Note_off_c, 1, 78, 0
1, 250368, Note_on_c, 1, 79, 127
1, 250368, Note_on_c, 1, 46, 127
1, 250556, Note_off_c, 1, 79, 0
1, 250560, Note_on_c, 1, 74, 127
1, 250688, Note_off_c, 1, 74, 0
1, 250748, Note_off_c, 1, 46, 0
1, 250752, Note_on_c, 1, 79, 127
1, 250752, Note_on_c, 1, 48, 127
1, 250880, Note_off_c, 1, 79, 0
1, 250940, Note_off_c, 1, 48, 0
1, 250944, Note_on_c, 1, 79, 127
1, 250944, Note_on_c, 1, 50, 127
1, 251072, Note_off_c, 1, 79, 0
1, 251132, Note_off_c, 1, 50, 0
1, 251136, Note_on_c, 1, 82, 127
1, 251136, Note_on_c, 1, 48, 127
1, 251228, Note_off_c, 1, 82, 0
1, 251232, Note_on_c, 1, 81, 127
1, 251324, Note_off_c, 1, 48, 0
1, 251324, Note_off_c, 1, 81, 0
1, 251328, Note_on_c, 1, 79, 127
1, 251328, Note_on_c, 1, 50, 127
1, 251420, Note_off_c, 1, 79, 0
1, 251424, Note_on_c, 1, 78, 127
1, 251516, Note_off_c, 1, 50, 0
1, 251516, Note_off_c, 1, 78, 0
1, 251520, Note_on_c, 1, 79, 127
1, 251520, Note_on_c, 1, 51, 127
1, 251708, Note_off_c, 1, 79, 0
1, 251708, Note_off_c, 1, 51, 0
1, 251712, Note_on_c, 1, 74, 127
1, 251712, Note_on_c, 1, 50, 127
1, 251840, Note_off_c, 1, 74, 0
1, 251900, Note_off_c, 1, 50, 0
1, 251904, Note_on_c, 1, 79, 127
1, 251904, Note_on_c, 1, 48, 127
1, 252032, Note_off_c, 1, 79, 0
1, 252092, Note_off_c, 1, 48, 0
1, 252096, Note_on_c, 1, 79, 127
1, 252096, Note_on_c, 1, 50, 127
1, 252224, Note_off_c, 1, 79, 0
1, 252284, Note_off_c, 1, 50, 0
1, 252288, Note_on_c, 1, 82, 127
1, 252288, Note_on_c, 1, 48, 127
1, 252380, Note_off_c, 1, 82, 0
1, 252384, Note_on_c, 1, 81, 127
1, 252476, Note_off_c, 1, 48, 0
1, 252476, Note_off_c, 1, 81, 0
1, 252480, Note_on_c, 1, 79, 127
1, 252480, Note_on_c, 1, 50, 127
1, 252572, Note_off_c, 1, 79, 0
1, 252576, Note_on_c, 1, 78, 127
1, 252668, Note_off_c, 1, 50, 0
1, 252668, Note_off_c, 1, 78, 0
1, 252672, Note_on_c, 1, 79, 127
1, 252672, Note_on_c, 1, 43, 127
1, 252860, Note_off_c, 1, 79, 0
1, 252860, Note_off_c, 1, 43, 0
1, 252864, Note_on_c, 1, 82, 127
1, 252864, Note_on_c, 1, 50, 127
1, 253052, Note_off_c, 1, 82, 0
1, 253052, Note_off_c, 1, 50, 0
1, 253056, Note_on_c, 1, 74, 127
1, 253056, Note_on_c, 1, 55, 127
1, 253184, Note_off_c, 1, 74, 0
1, 253244, Note_off_c, 1, 55, 0
1, 253248, Note_on_c, 1, 75, 127
1, 253248, Note_on_c, 1, 48, 127
1, 253436, Note_off_c, 1, 75, 0
1, 253436, Note_off_c, 1, 48, 0
1, 253440, Note_on_c, 1, 79, 127
1, 253440, Note_on_c, 1, 51, 127
1, 253628, Note_off_c, 1, 79, 0
1, 253628, Note_off_c, 1, 51, 0
1, 253632, Note_on_c, 1, 72, 127
1, 253632, Note_on_c, 1, 55, 127
1, 253760, Note_off_c, 1, 72, 0
1, 253820, Note_off_c, 1, 55, 0
1, 253824, Note_on_c, 1, 74, 127
1, 253824, Note_on_c, 1, 46, 127
1, 254012, Note_off_c, 1, 74, 0
1, 254012, Note_off_c, 1, 46, 0
1, 254016, Note_on_c, 1, 79, 127
1, 254016, Note_on_c, 1, 50, 127
1, 254204, Note_off_c, 1, 79, 0
1, 254204, Note_off_c, 1, 50, 0
1, 254208, Note_on_c, 1, 70, 127
1, 254208, Note_on_c, 1, 55, 127
1, 254396, Note_off_c, 1, 70, 0
1, 254396, Note_off_c, 1, 55, 0
1, 254400, Note_on_c, 1, 69, 127
1, 254400, Note_on_c, 1, 48, 127
1, 254444, Note_off_c, 1, 69, 0
1, 254448, Note_on_c, 1, 70, 127
1, 254492, Note_off_c, 1, 70, 0
1, 254592, Note_on_c, 1, 55, 127
1, 254780, Note_off_c, 1, 48, 0
1, 254780, Note_off_c, 1, 55, 0
1, 254784, Note_on_c, 1, 67, 127
1, 254784, Note_on_c, 1, 54, 127
1, 254784, Note_on_c, 1, 50, 127
1, 254912, Note_off_c, 1, 67, 0
1, 254972, Note_off_c, 1, 54, 0
1, 254972, Note_off_c, 1, 50, 0
1, 254976, Note_on_c, 1, 67, 127
1, 254976, Note_on_c, 1, 43, 127
1, 255104, Note_off_c, 1, 43, 0
1, 255168, Note_on_c, 1, 57, 127
1, 255296, Note_off_c, 1, 57, 0
1, 255360, Note_off_c, 1, 67, 0
1, 255360, Note_on_c, 1, 55, 127
1, 255488, Note_off_c, 1, 55, 0
1, 255552, Note_on_c, 1, 54, 127
1, 255680, Note_off_c, 1, 54, 0
1, 255744, Note_on_c, 1, 74, 127
1, 255744, Note_on_c, 1, 52, 127
1, 255872, Note_off_c, 1, 74, 0
1, 255872, Note_off_c, 1, 52, 0
1, 255936, Note_on_c, 1, 72, 127
1, 255936, Note_on_c, 1, 50, 127
1, 256064, Note_off_c, 1, 72, 0
1, 256064, Note_off_c, 1, 50, 0
1, 256128, Note_on_c, 1, 71, 127
1, 256128, Note_on_c, 1, 55, 127
1, 256316, Note_off_c, 1, 71, 0
1, 256320, Note_on_c, 1, 69, 127
1, 256508, Note_off_c, 1, 55, 0
1, 256508, Note_off_c, 1, 69, 0
1, 256512, Note_on_c, 1, 67, 127
1, 256512, Note_on_c, 1, 43, 127
1, 256700, Note_off_c, 1, 67, 0
1, 256700, Note_off_c, 1, 43, 0
1, 256704, Note_on_c, 1, 72, 127
1, 256748, Note_off_c, 1, 72, 0
1, 256752, Note_on_c, 1, 71, 127
1, 256796, Note_off_c, 1, 71, 0
1, 256800, Note_on_c, 1, 72, 127
1, 256844, Note_off_c, 1, 72, 0
1, 256848, Note_on_c, 1, 71, 127
1, 256892, Note_off_c, 1, 71, 0
1, 256896, Note_on_c, 1, 72, 127
1, 256896, Note_on_c, 1, 55, 127
1, 256940, Note_off_c, 1, 72, 0
1, 256944, Note_on_c, 1, 71, 127
1, 257036, Note_off_c, 1, 71, 0
1, 257084, Note_off_c, 1, 55, 0
1, 257088, Note_on_c, 1, 72, 127
1, 257088, Note_on_c, 1, 53, 127
1, 257276, Note_off_c, 1, 72, 0
1, 257276, Note_off_c, 1, 53, 0
1, 257280, Note_on_c, 1, 72, 127
1, 257280, Note_on_c, 1, 51, 127
1, 257468, Note_off_c, 1, 51, 0
1, 257472, Note_on_c, 1, 50, 127
1, 257660, Note_off_c, 1, 50, 0
1, 257664, Note_on_c, 1, 48, 127
1, 257852, Note_off_c, 1, 72, 0
1, 257852, Note_off_c, 1, 48, 0
1, 257856, Note_on_c, 1, 60, 127
1, 258044, Note_off_c, 1, 60, 0
1, 258048, Note_on_c, 1, 75, 127
1, 258048, Note_on_c, 1, 55, 127
1, 258236, Note_off_c, 1, 75, 0
1, 258236, Note_off_c, 1, 55, 0
1, 258240, Note_on_c, 1, 74, 127
1, 258240, Note_on_c, 1, 58, 127
1, 258428, Note_off_c, 1, 74, 0
1, 258428, Note_off_c, 1, 58, 0
1, 258432, Note_on_c, 1, 73, 127
1, 258432, Note_on_c, 1, 57, 127
1, 258620, Note_off_c, 1, 73, 0
1, 258624, Note_on_c, 1, 71, 127
1, 258812, Note_off_c, 1, 57, 0
1, 258812, Note_off_c, 1, 71, 0
1, 258816, Note_on_c, 1, 69, 127
1, 258816, Note_on_c, 1, 45, 127
1, 259004, Note_off_c, 1, 69, 0
1, 259004, Note_off_c, 1, 45, 0
1, 259008, Note_on_c, 1, 74, 127
1, 259052, Note_off_c, 1, 74, 0
1, 259056, Note_on_c, 1, 73, 127
1, 259100, Note_off_c, 1, 73, 0
1, 259104, Note_on_c, 1, 74, 127
1, 259148, Note_off_c, 1, 74, 0
1, 259152, Note_on_c, 1, 73, 127
1, 259196, Note_off_c, 1, 73, 0
1, 259200, Note_on_c, 1, 74, 127
1, 259200, Note_on_c, 1, 57, 127
1, 259244, Note_off_c, 1, 74, 0
1, 259248, Note_on_c, 1, 73, 127
1, 259340, Note_off_c, 1, 73, 0
1, 259388, Note_off_c, 1, 57, 0
1, 259392, Note_on_c, 1, 74, 127
1, 259392, Note_on_c, 1, 55, 127
1, 259580, Note_off_c, 1, 74, 0
1, 259580, Note_off_c, 1, 55, 0
1, 259584, Note_on_c, 1, 74, 127
1, 259584, Note_on_c, 1, 53, 127
1, 259772, Note_off_c, 1, 53, 0
1, 259776, Note_on_c, 1, 52, 127
1, 259964, Note_off_c, 1, 52, 0
1, 259968, Note_on_c, 1, 50, 127
1, 260156, Note_off_c, 1, 74, 0
1, 260156, Note_off_c, 1, 50, 0
1, 260160, Note_on_c, 1, 62, 127
1, 260348, Note_off_c, 1, 62, 0
1, 260352, Note_on_c, 1, 77, 127
1, 260352, Note_on_c, 1, 57, 127
1, 260540, Note_off_c, 1, 77, 0
1, 260540, Note_off_c, 1, 57, 0
1, 260544, Note_on_c, 1, 75, 127
1, 260544, Note_on_c, 1, 60, 127
1, 260732, Note_off_c, 1, 75, 0
1, 260732, Note_off_c, 1, 60, 0
1, 260736, Note_on_c, 1, 74, 127
1, 260736, Note_on_c, 1, 58, 127
1, 260924, Note_off_c, 1, 74, 0
1, 260924, Note_off_c, 1, 58, 0
1, 260928, Note_on_c, 1, 72, 127
1, 260928, Note_on_c, 1, 50, 127
1, 261116, Note_off_c, 1, 72, 0
1, 261116, Note_off_c, 1, 50, 0
1, 261120, Note_on_c, 1, 70, 127
1, 261120, Note_on_c, 1, 51, 127
1, 261308, Note_off_c, 1, 70, 0
1, 261308, Note_off_c, 1, 51, 0
1, 261312, Note_on_c, 1, 70, 127
1, 261312, Note_on_c, 1, 53, 127
1, 261356, Note_off_c, 1, 70, 0
1, 261360, Note_on_c, 1, 69, 127
1, 261404, Note_off_c, 1, 69, 0
1, 261500, Note_off_c, 1, 53, 0
1, 261504, Note_on_c, 1, 70, 127
1, 261504, Note_on_c, 1, 51, 127
1, 261548, Note_off_c, 1, 70, 0
1, 261552, Note_on_c, 1, 69, 127
1, 261644, Note_off_c, 1, 69, 0
1, 261692, Note_off_c, 1, 51, 0
1, 261696, Note_on_c, 1, 70, 127
1, 261696, Note_on_c, 1, 53, 127
1, 261884, Note_off_c, 1, 70, 0
1, 261884, Note_off_c, 1, 53, 0
1, 261888, Note_on_c, 1, 70, 127
1, 261888, Note_on_c, 1, 46, 127
1, 262076, Note_off_c, 1, 70, 0
1, 262080, Note_on_c, 1, 82, 127
1, 262268, Note_off_c, 1, 46, 0
1, 262268, Note_off_c, 1, 82, 0
1, 262272, Note_on_c, 1, 74, 127
1, 262272, Note_on_c, 1, 58, 127
1, 262400, Note_off_c, 1, 74, 0
1, 262460, Note_off_c, 1, 58, 0
1, 262464, Note_on_c, 1, 75, 127
1, 262464, Note_on_c, 1, 51, 127
1, 262652, Note_off_c, 1, 75, 0
1, 262652, Note_off_c, 1, 51, 0
1, 262656, Note_on_c, 1, 79, 127
1, 262656, Note_on_c, 1, 55, 127
1, 262844, Note_off_c, 1, 79, 0
1, 262844, Note_off_c, 1, 55, 0
1, 262848, Note_on_c, 1, 72, 127
1, 262848, Note_on_c, 1, 60, 127
1, 262976, Note_off_c, 1, 72, 0
1, 263036, Note_off_c, 1, 60, 0
1, 263040, Note_on_c, 1, 74, 127
1, 263040, Note_on_c, 1, 50, 127
1, 263228, Note_off_c, 1, 74, 0
1, 263228, Note_off_c, 1, 50, 0
1, 263232, Note_on_c, 1, 77, 127
1, 263232, Note_on_c, 1, 53, 127
1, 263420, Note_off_c, 1, 77, 0
1, 263420, Note_off_c, 1, 53, 0
1, 263424, Note_on_c, 1, 70, 127
1, 263424, Note_on_c, 1, 58, 127
1, 263552, Note_off_c, 1, 70, 0
1, 263612, Note_off_c, 1, 58, 0
1, 263616, Note_on_c, 1, 72, 127
1, 263616, Note_on_c, 1, 51, 127
1, 263804, Note_off_c, 1, 72, 0
1, 263808, Note_on_c, 1, 75, 127
1, 263808, Note_on_c, 1, 60, 127
1, 263996, Note_off_c, 1, 51, 0
1, 263996, Note_off_c, 1, 75, 0
1, 264000, Note_on_c, 1, 69, 127
1, 264000, Note_on_c, 1, 53, 127
1, 264128, Note_off_c, 1, 69, 0
1, 264188, Note_off_c, 1, 60, 0
1, 264188, Note_off_c, 1, 53, 0
1, 264192, Note_on_c, 1, 70, 127
1, 264192, Note_on_c, 1, 58, 127
1, 264192, Note_on_c, 1, 62, 127
1, 264380, Note_off_c, 1, 70, 0
1, 264384, Note_on_c, 1, 74, 127
1, 264476, Note_off_c, 1, 74, 0
1, 264480, Note_on_c, 1, 72, 127
1, 264572, Note_off_c, 1, 72, 0
1, 264576, Note_off_c, 1, 58, 0
1, 264576, Note_off_c, 1, 62, 0
1, 264672, Note_on_c, 1, 69, 127
1, 264764, Note_off_c, 1, 69, 0
1, 264768, Note_on_c, 1, 70, 127
1, 264956, Note_off_c, 1, 70, 0
1, 264960, Note_on_c, 1, 74, 127
1, 265052, Note_off_c, 1, 74, 0
1, 265056, Note_on_c, 1, 72, 127
1, 265148, Note_off_c, 1, 72, 0
1, 265152, Note_on_c, 1, 70, 127
1, 265244, Note_off_c, 1, 70, 0
1, 265248, Note_on_c, 1, 69, 127
1, 265340, Note_off_c, 1, 69, 0
1, 265344, Note_on_c, 1, 70, 127
1, 265344, Note_on_c, 1, 46, 127
1, 265344, Note_on_c, 1, 50, 127
1, 265344, Note_on_c, 1, 53, 127
1, 265344, Note_on_c, 1, 58, 127
1, 265532, Note_off_c, 1, 70, 0
1, 265536, Note_on_c, 1, 74, 127
1, 265628, Note_off_c, 1, 74, 0
1, 265632, Note_on_c, 1, 72, 127
1, 265724, Note_off_c, 1, 72, 0
1, 265824, Note_on_c, 1, 69, 127
1, 265916, Note_off_c, 1, 46, 0
1, 265916, Note_off_c, 1, 50, 0
1, 265916, Note_off_c, 1, 53, 0
1, 265916, Note_off_c, 1, 58, 0
1, 265916, Note_off_c, 1, 69, 0
1, 265920, Note_on_c, 1, 70, 127
1, 266108, Note_off_c, 1, 70, 0
1, 266112, Note_on_c, 1, 74, 127
1, 266204, Note_off_c, 1, 74, 0
1, 266208, Note_on_c, 1, 72, 127
1, 266300, Note_off_c, 1, 72, 0
1, 266304, Note_on_c, 1, 70, 127
1, 266396, Note_off_c, 1, 70, 0
1, 266400, Note_on_c, 1, 69, 127
1, 266492, Note_off_c, 1, 69, 0
1, 266496, Note_on_c, 1, 70, 127
1, 266496, Note_on_c, 1, 58, 127
1, 266624, Note_off_c, 1, 70, 0
1, 266624, Note_off_c, 1, 58, 0
1, 266688, Note_on_c, 1, 62, 127
1, 266688, Note_on_c, 1, 50, 127
1, 266780, Note_off_c, 1, 62, 0
1, 266780, Note_off_c, 1, 50, 0
1, 266784, Note_on_c, 1, 63, 127
1, 266784, Note_on_c, 1, 51, 127
1, 266876, Note_off_c, 1, 63, 0
1, 266876, Note_off_c, 1, 51, 0
1, 266880, Note_on_c, 1, 65, 127
1, 266880, Note_on_c, 1, 53, 127
1, 267008, Note_off_c, 1, 65, 0
1, 267008, Note_off_c, 1, 53, 0
1, 267072, Note_on_c, 1, 65, 127
1, 267072, Note_on_c, 1, 53, 127
1, 267260, Note_off_c, 1, 65, 0
1, 267260, Note_off_c, 1, 53, 0
1, 267264, Note_on_c, 1, 62, 127
1, 267264, Note_on_c, 1, 50, 127
1, 267356, Note_off_c, 1, 62, 0
1, 267356, Note_off_c, 1, 50, 0
1, 267360, Note_on_c, 1, 63, 127
1, 267360, Note_on_c, 1, 51, 127
1, 267452, Note_off_c, 1, 63, 0
1, 267452, Note_off_c, 1, 51, 0
1, 267456, Note_on_c, 1, 65, 127
1, 267456, Note_on_c, 1, 53, 127
1, 267584, Note_off_c, 1, 65, 0
1, 267584, Note_off_c, 1, 53, 0
1, 267648, Note_on_c, 1, 65, 127
1, 267648, Note_on_c, 1, 53, 127
1, 267836, Note_off_c, 1, 65, 0
1, 267836, Note_off_c, 1, 53, 0
1, 267840, Note_on_c, 1, 62, 127
1, 267840, Note_on_c, 1, 50, 127
1, 267932, Note_off_c, 1, 62, 0
1, 267932, Note_off_c, 1, 50, 0
1, 267936, Note_on_c, 1, 63, 127
1, 267936, Note_on_c, 1, 51, 127
1, 268028, Note_off_c, 1, 63, 0
1, 268028, Note_off_c, 1, 51, 0
1, 268032, Note_on_c, 1, 65, 127
1, 268032, Note_on_c, 1, 53, 127
1, 268160, Note_off_c, 1, 65, 0
1, 268160, Note_off_c, 1, 53, 0
1, 268224, Note_on_c, 1, 65, 127
1, 268224, Note_on_c, 1, 53, 127
1, 268412, Note_off_c, 1, 65, 0
1, 268412, Note_off_c, 1, 53, 0
1, 268416, Note_on_c, 1, 62, 127
1, 268416, Note_on_c, 1, 50, 127
1, 268508, Note_off_c, 1, 62, 0
1, 268508, Note_off_c, 1, 50, 0
1, 268512, Note_on_c, 1, 63, 127
1, 268512, Note_on_c, 1, 51, 127
1, 268604, Note_off_c, 1, 63, 0
1, 268604, Note_off_c, 1, 51, 0
1, 268608, Note_on_c, 1, 65, 127
1, 268608, Note_on_c, 1, 53, 127
1, 268736, Note_off_c, 1, 65, 0
1, 268736, Note_off_c, 1, 53, 0
1, 268800, Note_on_c, 1, 58, 127
1, 268800, Note_on_c, 1, 46, 127
1, 270524, Note_off_c, 1, 58, 0
1, 270524, Note_off_c, 1, 46, 0
1, 270524, End_track
0, 0, End_of_file