0, 0, Header, 1, 1, 480
1, 0, Start_track
1, 0, Title_t, "Test"
1, 0, Tempo, 500000
1, 0, Instrument_name_t, "Church Organ"
1, 96, Note_on_c, 1, 57, 127
1, 198, Note_on_c, 1, 60, 127
1, 300, Note_on_c, 1, 69, 127
1, 463, Note_on_c, 1, 76, 127
1, 1178, Note_on_c, 1, 74, 127
1, 1318, Note_off_c, 1, 74, 0
1, 1321, Note_on_c, 1, 72, 127
1, 1441, Note_off_c, 1, 72, 0
1, 1444, Note_on_c, 1, 71, 127
1, 1526, Note_off_c, 1, 76, 0
1, 1564, Note_off_c, 1, 71, 0
1, 1769, Note_off_c, 1, 69, 0
1, 2010, Note_off_c, 1, 60, 0
1, 2056, Note_off_c, 1, 57, 0
1, 2059, Note_on_c, 1, 81, 127
1, 2059, Note_on_c, 1, 57, 127
1, 2059, Note_on_c, 1, 60, 127
1, 2059, Note_on_c, 1, 64, 127
1, 2123, Note_on_c, 1, 80, 127
1, 2161, Note_off_c, 1, 81, 0
1, 2200, Note_off_c, 1, 80, 0
1, 2428, Note_on_c, 1, 76, 127
1, 2548, Note_off_c, 1, 76, 0
1, 2551, Note_on_c, 1, 78, 127
1, 2671, Note_off_c, 1, 78, 0
1, 2920, Note_on_c, 1, 83, 127
1, 3040, Note_off_c, 1, 57, 0
1, 3040, Note_off_c, 1, 60, 0
1, 3040, Note_off_c, 1, 64, 0
1, 3040, Note_off_c, 1, 83, 0
1, 3043, Note_on_c, 1, 83, 127
1, 3043, Note_on_c, 1, 64, 127
1, 3043, Note_on_c, 1, 69, 127
1, 3043, Note_on_c, 1, 57, 127
1, 3303, Note_off_c, 1, 83, 0
1, 3303, Note_on_c, 1, 84, 127
1, 3528, Note_off_c, 1, 84, 0
1, 3701, Note_on_c, 1, 81, 127
1, 3803, Note_off_c, 1, 81, 0
1, 3808, Note_on_c, 1, 80, 127
1, 3910, Note_off_c, 1, 80, 0
1, 4020, Note_off_c, 1, 64, 0
1, 4020, Note_off_c, 1, 69, 0
1, 4020, Note_off_c, 1, 57, 0
1, 4023, Note_on_c, 1, 81, 127
1, 4023, Note_on_c, 1, 59, 127
1, 4268, Note_on_c, 1, 62, 127
1, 4511, Note_off_c, 1, 62, 0
1, 4514, Note_on_c, 1, 65, 127
1, 4739, Note_off_c, 1, 81, 0
1, 4757, Note_off_c, 1, 65, 0
1, 4760, Note_on_c, 1, 64, 127
1, 4760, Note_on_c, 1, 80, 127
1, 5003, Note_off_c, 1, 64, 0
1, 5498, Note_on_c, 1, 60, 127
1, 5741, Note_off_c, 1, 60, 0
1, 5987, Note_off_c, 1, 59, 0
1, 5990, Note_off_c, 1, 80, 0
1, 6235, Note_on_c, 1, 76, 127
1, 6478, Note_off_c, 1, 76, 0
1, 6481, Note_on_c, 1, 84, 127
1, 6724, Note_off_c, 1, 84, 0
1, 6727, Note_on_c, 1, 83, 127
1, 6970, Note_off_c, 1, 83, 0
1, 6973, Note_on_c, 1, 52, 127
1, 7952, Note_off_c, 1, 52, 0
1, 7955, Note_on_c, 1, 57, 127
1, 8938, Note_on_c, 1, 77, 127
1, 9055, Note_off_c, 1, 57, 0
1, 9424, Note_off_c, 1, 77, 0
1, 9430, Note_on_c, 1, 60, 127
1, 9430, Note_on_c, 1, 76, 127
1, 9550, Note_off_c, 1, 60, 0
1, 9553, Note_on_c, 1, 62, 127
1, 9673, Note_off_c, 1, 62, 0
1, 9676, Note_on_c, 1, 64, 127
1, 9788, Note_off_c, 1, 76, 0
1, 9796, Note_off_c, 1, 64, 0
1, 9799, Note_on_c, 1, 76, 127
1, 9799, Note_on_c, 1, 65, 127
1, 9901, Note_off_c, 1, 76, 0
1, 9919, Note_off_c, 1, 65, 0
1, 9922, Note_on_c, 1, 76, 127
1, 9922, Note_on_c, 1, 56, 127
1, 9922, Note_on_c, 1, 59, 127
1, 10219, Note_on_c, 1, 71, 127
1, 10249, Note_off_c, 1, 76, 0
1, 10351, Note_on_c, 1, 72, 127
1, 10362, Note_off_c, 1, 71, 0
1, 10443, Note_on_c, 1, 74, 127
1, 10471, Note_off_c, 1, 72, 0
1, 10563, Note_off_c, 1, 74, 0
1, 10627, Note_on_c, 1, 78, 127
1, 10719, Note_on_c, 1, 80, 127
1, 10747, Note_off_c, 1, 78, 0
1, 10811, Note_on_c, 1, 81, 127
1, 10839, Note_off_c, 1, 80, 0
1, 10900, Note_off_c, 1, 56, 0
1, 10903, Note_on_c, 1, 83, 127
1, 10903, Note_on_c, 1, 55, 127
1, 10931, Note_off_c, 1, 81, 0
1, 11145, Note_off_c, 1, 83, 0
1, 11148, Note_on_c, 1, 79, 127
1, 11391, Note_off_c, 1, 59, 0
1, 11391, Note_off_c, 1, 79, 0
1, 11394, Note_on_c, 1, 77, 127
1, 11394, Note_on_c, 1, 58, 127
1, 11718, Note_off_c, 1, 77, 0
1, 11874, Note_off_c, 1, 55, 0
1, 11882, Note_off_c, 1, 58, 0
1, 11885, Note_on_c, 1, 76, 127
1, 11885, Note_on_c, 1, 53, 127
1, 11885, Note_on_c, 1, 57, 127
1, 12005, Note_off_c, 1, 76, 0
1, 12008, Note_on_c, 1, 74, 127
1, 12128, Note_off_c, 1, 74, 0
1, 12131, Note_on_c, 1, 72, 127
1, 12251, Note_off_c, 1, 72, 0
1, 12254, Note_on_c, 1, 71, 127
1, 12374, Note_off_c, 1, 71, 0
1, 12377, Note_on_c, 1, 69, 127
1, 12497, Note_off_c, 1, 69, 0
1, 12500, Note_on_c, 1, 68, 127
1, 12620, Note_off_c, 1, 68, 0
1, 13114, Note_on_c, 1, 62, 127
1, 13423, Note_on_c, 1, 73, 127
1, 13485, Note_off_c, 1, 73, 0
1, 13830, Note_off_c, 1, 62, 0
1, 13848, Note_off_c, 1, 53, 0
1, 13848, Note_off_c, 1, 57, 0
1, 13851, Note_on_c, 1, 74, 127
1, 13851, Note_on_c, 1, 57, 127
1, 13851, Note_on_c, 1, 53, 127
1, 14094, Note_off_c, 1, 74, 0
1, 14097, Note_on_c, 1, 69, 127
1, 14340, Note_off_c, 1, 69, 0
1, 14343, Note_on_c, 1, 81, 127
1, 14586, Note_off_c, 1, 81, 0
1, 14589, Note_on_c, 1, 79, 127
1, 14709, Note_off_c, 1, 79, 0
1, 14712, Note_on_c, 1, 77, 127
1, 14832, Note_off_c, 1, 77, 0
1, 15081, Note_on_c, 1, 76, 127
1, 15201, Note_off_c, 1, 76, 0
1, 15816, Note_off_c, 1, 57, 0
1, 15816, Note_off_c, 1, 53, 0
1, 15819, Note_on_c, 1, 76, 127
1, 15819, Note_on_c, 1, 54, 127
1, 15819, Note_on_c, 1, 57, 127
1, 16307, Note_off_c, 1, 76, 0
1, 16310, Note_on_c, 1, 75, 127
1, 16798, Note_off_c, 1, 75, 0
1, 16921, Note_off_c, 1, 54, 0
1, 16921, Note_off_c, 1, 57, 0
1, 16924, Note_on_c, 1, 55, 127
1, 17044, Note_off_c, 1, 55, 0
1, 17416, Note_on_c, 1, 59, 127
1, 17536, Note_off_c, 1, 59, 0
1, 17539, Note_on_c, 1, 60, 127
1, 17782, Note_off_c, 1, 60, 0
1, 18891, Note_on_c, 1, 73, 127
1, 19011, Note_off_c, 1, 73, 0
1, 19014, Note_on_c, 1, 71, 127
1, 19134, Note_off_c, 1, 71, 0
1, 19260, Note_on_c, 1, 75, 127
1, 19260, Note_on_c, 1, 57, 127
1, 19260, Note_on_c, 1, 47, 127
1, 19380, Note_off_c, 1, 75, 0
1, 19383, Note_on_c, 1, 76, 127
1, 19503, Note_off_c, 1, 76, 0
1, 19506, Note_on_c, 1, 78, 127
1, 19749, Note_off_c, 1, 57, 0
1, 19749, Note_off_c, 1, 47, 0
1, 19749, Note_off_c, 1, 78, 0
1, 19752, Note_on_c, 1, 78, 127
1, 19752, Note_on_c, 1, 52, 127
1, 19752, Note_on_c, 1, 56, 127
1, 20240, Note_off_c, 1, 78, 0
1, 20243, Note_on_c, 1, 76, 127
1, 20731, Note_off_c, 1, 76, 0
1, 20854, Note_off_c, 1, 52, 0
1, 20854, Note_off_c, 1, 56, 0
1, 20857, Note_on_c, 1, 59, 127
1, 20977, Note_off_c, 1, 59, 0
1, 20980, Note_on_c, 1, 60, 127
1, 21100, Note_off_c, 1, 60, 0
1, 21103, Note_on_c, 1, 62, 127
1, 21223, Note_off_c, 1, 62, 0
1, 21226, Note_on_c, 1, 64, 127
1, 21346, Note_off_c, 1, 64, 0
1, 21349, Note_on_c, 1, 66, 127
1, 21469, Note_off_c, 1, 66, 0
1, 21472, Note_on_c, 1, 68, 127
1, 21592, Note_off_c, 1, 68, 0
1, 21595, Note_on_c, 1, 69, 127
1, 21715, Note_off_c, 1, 69, 0
1, 21718, Note_on_c, 1, 68, 127
1, 21871, Note_off_c, 1, 68, 0
1, 21876, Note_on_c, 1, 64, 127
1, 21993, Note_on_c, 1, 66, 127
1, 21996, Note_off_c, 1, 64, 0
1, 22111, Note_on_c, 1, 68, 127
1, 22114, Note_off_c, 1, 66, 0
1, 22229, Note_on_c, 1, 69, 127
1, 22232, Note_off_c, 1, 68, 0
1, 22347, Note_on_c, 1, 71, 127
1, 22350, Note_off_c, 1, 69, 0
1, 22465, Note_on_c, 1, 72, 127
1, 22468, Note_off_c, 1, 71, 0
1, 22583, Note_on_c, 1, 74, 127
1, 22586, Note_off_c, 1, 72, 0
1, 22701, Note_on_c, 1, 76, 127
1, 22704, Note_off_c, 1, 74, 0
1, 22822, Note_off_c, 1, 76, 0
1, 23679, Note_on_c, 1, 71, 127
1, 23679, Note_on_c, 1, 56, 127
1, 23816, Note_on_c, 1, 83, 127
1, 23950, Note_off_c, 1, 71, 0
1, 23950, Note_off_c, 1, 83, 0
1, 23953, Note_on_c, 1, 80, 127
1, 23953, Note_on_c, 1, 64, 127
1, 24087, Note_off_c, 1, 80, 0
1, 24090, Note_on_c, 1, 81, 127
1, 24224, Note_off_c, 1, 81, 0
1, 24775, Note_on_c, 1, 76, 127
1, 24912, Note_on_c, 1, 77, 127
1, 25032, Note_off_c, 1, 76, 0
1, 25046, Note_off_c, 1, 77, 0
1, 25049, Note_on_c, 1, 74, 127
1, 25183, Note_off_c, 1, 74, 0
1, 26282, Note_on_c, 1, 72, 127
1, 26416, Note_off_c, 1, 72, 0
1, 26556, Note_on_c, 1, 68, 127
1, 26690, Note_off_c, 1, 68, 0
1, 26693, Note_on_c, 1, 69, 127
1, 26827, Note_off_c, 1, 69, 0
1, 26950, Note_off_c, 1, 64, 0
1, 28064, Note_off_c, 1, 56, 0
1, 28067, Note_on_c, 1, 57, 127
1, 28067, Note_on_c, 1, 72, 127
1, 28215, Note_off_c, 1, 57, 0
1, 28218, Note_on_c, 1, 53, 127
1, 28366, Note_off_c, 1, 53, 0
1, 28369, Note_on_c, 1, 52, 127
1, 28517, Note_off_c, 1, 52, 0
1, 28520, Note_on_c, 1, 50, 127
1, 28668, Note_off_c, 1, 50, 0
1, 28671, Note_on_c, 1, 48, 127
1, 28819, Note_off_c, 1, 48, 0
1, 28822, Note_on_c, 1, 47, 127
1, 28970, Note_off_c, 1, 47, 0
1, 29525, Note_on_c, 1, 69, 127
1, 29773, Note_off_c, 1, 69, 0
1, 29776, Note_on_c, 1, 68, 127
1, 30024, Note_off_c, 1, 68, 0
1, 30027, Note_on_c, 1, 71, 127
1, 30150, Note_off_c, 1, 71, 0
1, 30518, Note_off_c, 1, 72, 0
1, 31030, Note_on_c, 1, 74, 127
1, 31153, Note_off_c, 1, 74, 0
1, 36304, Note_on_c, 1, 45, 127
1, 36677, Note_off_c, 1, 45, 0
1, 37058, Note_on_c, 1, 44, 127
1, 37181, Note_off_c, 1, 44, 0
1, 37310, Note_on_c, 1, 36, 127
1, 37310, Note_on_c, 1, 64, 127
1, 37788, Note_off_c, 1, 36, 0
1, 38260, Note_off_c, 1, 64, 0
1, 38270, Note_on_c, 1, 38, 127
1, 38270, Note_on_c, 1, 65, 127
1, 38270, Note_on_c, 1, 72, 127
1, 38270, Note_on_c, 1, 69, 127
1, 38628, Note_off_c, 1, 38, 0
1, 38630, Note_on_c, 1, 48, 127
1, 38748, Note_off_c, 1, 48, 0
1, 38750, Note_on_c, 1, 47, 127
1, 38868, Note_off_c, 1, 47, 0
1, 38870, Note_on_c, 1, 45, 127
1, 38988, Note_off_c, 1, 45, 0
1, 38990, Note_on_c, 1, 44, 127
1, 39108, Note_off_c, 1, 44, 0
1, 39228, Note_off_c, 1, 65, 0
1, 39230, Note_on_c, 1, 40, 127
1, 39230, Note_on_c, 1, 64, 127
1, 39450, Note_off_c, 1, 72, 0
1, 39450, Note_off_c, 1, 69, 0
1, 39708, Note_off_c, 1, 40, 0
1, 39710, Note_on_c, 1, 71, 127
1, 39710, Note_on_c, 1, 74, 127
1, 39710, Note_on_c, 1, 52, 127
1, 39948, Note_off_c, 1, 71, 0
1, 39948, Note_off_c, 1, 74, 0
1, 40180, Note_off_c, 1, 64, 0
1, 40188, Note_off_c, 1, 52, 0
1, 40190, Note_on_c, 1, 41, 127
1, 40190, Note_on_c, 1, 62, 127
1, 40190, Note_on_c, 1, 72, 127
1, 40190, Note_on_c, 1, 69, 127
1, 40548, Note_off_c, 1, 41, 0
1, 40550, Note_on_c, 1, 48, 127
1, 40668, Note_off_c, 1, 48, 0
1, 40670, Note_on_c, 1, 47, 127
1, 40788, Note_off_c, 1, 47, 0
1, 40790, Note_on_c, 1, 45, 127
1, 40908, Note_off_c, 1, 45, 0
1, 40910, Note_on_c, 1, 44, 127
1, 41028, Note_off_c, 1, 44, 0
1, 41148, Note_off_c, 1, 62, 0
1, 41150, Note_on_c, 1, 36, 127
1, 41150, Note_on_c, 1, 64, 127
1, 41370, Note_off_c, 1, 72, 0
1, 41370, Note_off_c, 1, 69, 0
1, 41628, Note_off_c, 1, 36, 0
1, 41630, Note_on_c, 1, 71, 127
1, 41630, Note_on_c, 1, 74, 127
1, 41868, Note_off_c, 1, 71, 0
1, 41868, Note_off_c, 1, 74, 0
1, 42100, Note_off_c, 1, 64, 0
1, 42110, Note_on_c, 1, 38, 127
1, 42110, Note_on_c, 1, 65, 127
1, 42110, Note_on_c, 1, 69, 127
1, 42110, Note_on_c, 1, 72, 127
1, 42468, Note_off_c, 1, 38, 0
1, 42470, Note_on_c, 1, 48, 127
1, 42588, Note_off_c, 1, 48, 0
1, 42590, Note_on_c, 1, 47, 127
1, 42708, Note_off_c, 1, 47, 0
1, 42710, Note_on_c, 1, 45, 127
1, 42828, Note_off_c, 1, 45, 0
1, 42830, Note_on_c, 1, 44, 127
1, 42948, Note_off_c, 1, 44, 0
1, 43068, Note_off_c, 1, 65, 0
1, 43070, Note_on_c, 1, 40, 127
1, 43070, Note_on_c, 1, 64, 127
1, 43290, Note_off_c, 1, 69, 0
1, 43290, Note_off_c, 1, 72, 0
1, 43548, Note_off_c, 1, 40, 0
1, 43550, Note_on_c, 1, 74, 127
1, 43550, Note_on_c, 1, 71, 127
1, 43550, Note_on_c, 1, 52, 127
1, 43850, Note_off_c, 1, 74, 0
1, 43850, Note_off_c, 1, 71, 0
1, 44020, Note_off_c, 1, 64, 0
1, 44027, Note_off_c, 1, 52, 0
1, 44045, Note_on_c, 1, 72, 127
1, 44045, Note_on_c, 1, 69, 127
1, 44045, Note_on_c, 1, 64, 127
1, 44045, Note_on_c, 1, 45, 127
1, 44668, Note_off_c, 1, 72, 0
1, 44668, Note_off_c, 1, 69, 0
1, 44668, Note_off_c, 1, 64, 0
1, 44797, Note_on_c, 1, 66, 127
1, 44920, Note_off_c, 1, 66, 0
1, 44923, Note_on_c, 1, 68, 127
1, 45038, Note_off_c, 1, 45, 0
1, 45046, Note_off_c, 1, 68, 0
1, 45049, Note_on_c, 1, 69, 127
1, 45172, Note_off_c, 1, 69, 0
1, 45175, Note_on_c, 1, 68, 127
1, 45298, Note_off_c, 1, 68, 0
1, 45301, Note_on_c, 1, 69, 127
1, 45424, Note_off_c, 1, 69, 0
1, 45427, Note_on_c, 1, 71, 127
1, 45550, Note_off_c, 1, 71, 0
1, 45553, Note_on_c, 1, 72, 127
1, 45676, Note_off_c, 1, 72, 0
1, 45679, Note_on_c, 1, 71, 127
1, 45802, Note_off_c, 1, 71, 0
1, 45805, Note_on_c, 1, 72, 127
1, 45928, Note_off_c, 1, 72, 0
1, 45931, Note_on_c, 1, 74, 127
1, 46054, Note_off_c, 1, 74, 0
1, 46057, Note_on_c, 1, 76, 127
1, 46057, Note_on_c, 1, 48, 127
1, 46057, Note_on_c, 1, 57, 127
1, 46253, Note_on_c, 1, 72, 127
1, 46261, Note_off_c, 1, 76, 0
1, 46475, Note_off_c, 1, 72, 0
1, 46478, Note_on_c, 1, 71, 127
1, 46745, Note_off_c, 1, 71, 0
1, 46748, Note_on_c, 1, 69, 127
1, 47063, Note_off_c, 1, 48, 0
1, 47063, Note_off_c, 1, 57, 0
1, 47095, Note_off_c, 1, 69, 0
1, 47202, Note_on_c, 1, 69, 127
1, 47327, Note_off_c, 1, 69, 0
1, 47330, Note_on_c, 1, 71, 127
1, 47455, Note_off_c, 1, 71, 0
1, 47458, Note_on_c, 1, 72, 127
1, 47583, Note_off_c, 1, 72, 0
1, 47586, Note_on_c, 1, 74, 127
1, 47669, Note_off_c, 1, 74, 0
1, 47672, Note_on_c, 1, 76, 127
1, 47755, Note_off_c, 1, 76, 0
1, 47758, Note_on_c, 1, 77, 127
1, 47841, Note_off_c, 1, 77, 0
1, 47844, Note_on_c, 1, 79, 127
1, 47927, Note_off_c, 1, 79, 0
1, 47930, Note_on_c, 1, 76, 127
1, 48013, Note_off_c, 1, 76, 0
1, 48016, Note_on_c, 1, 77, 127
1, 48099, Note_off_c, 1, 77, 0
1, 48102, Note_on_c, 1, 79, 127
1, 48102, Note_on_c, 1, 49, 127
1, 48102, Note_on_c, 1, 57, 127
1, 48227, Note_off_c, 1, 79, 0
1, 48230, Note_on_c, 1, 76, 127
1, 48355, Note_off_c, 1, 76, 0
1, 48358, Note_on_c, 1, 73, 127
1, 48483, Note_off_c, 1, 73, 0
1, 49115, Note_off_c, 1, 49, 0
1, 49115, Note_off_c, 1, 57, 0
1, 49126, Note_on_c, 1, 67, 127
1, 49318, Note_off_c, 1, 67, 0
1, 49318, Note_on_c, 1, 70, 127
1, 49510, Note_off_c, 1, 70, 0
1, 49510, Note_on_c, 1, 64, 127
1, 49763, Note_off_c, 1, 64, 0
1, 49894, Note_on_c, 1, 61, 127
1, 50147, Note_off_c, 1, 61, 0
1, 50278, Note_on_c, 1, 55, 127
1, 50470, Note_on_c, 1, 58, 127
1, 50531, Note_off_c, 1, 55, 0
1, 50723, Note_off_c, 1, 58, 0
1, 50739, Note_on_c, 1, 49, 127
1, 51174, Note_on_c, 1, 76, 127
1, 51299, Note_off_c, 1, 76, 0
1, 51302, Note_on_c, 1, 77, 127
1, 51427, Note_off_c, 1, 77, 0
1, 51430, Note_on_c, 1, 79, 127
1, 51555, Note_off_c, 1, 79, 0
1, 51558, Note_on_c, 1, 57, 127
1, 52198, Note_off_c, 1, 49, 0
1, 52198, Note_on_c, 1, 50, 127
1, 53092, Note_off_c, 1, 57, 0
1, 53348, Note_off_c, 1, 50, 0
1, 53479, Note_on_c, 1, 52, 127
1, 53604, Note_off_c, 1, 52, 0
1, 53607, Note_on_c, 1, 53, 127
1, 53732, Note_off_c, 1, 53, 0
1, 53735, Note_on_c, 1, 55, 127
1, 53860, Note_off_c, 1, 55, 0
1, 53991, Note_on_c, 1, 59, 127
1, 54116, Note_off_c, 1, 59, 0
1, 54119, Note_on_c, 1, 60, 127
1, 54247, Note_on_c, 1, 51, 127
1, 54375, Note_on_c, 1, 81, 127
1, 54500, Note_off_c, 1, 81, 0
1, 54503, Note_on_c, 1, 84, 127
1, 54628, Note_off_c, 1, 84, 0
1, 54631, Note_on_c, 1, 83, 127
1, 54756, Note_off_c, 1, 83, 0
1, 54973, Note_on_c, 1, 78, 127
1, 55080, Note_off_c, 1, 78, 0
1, 55133, Note_off_c, 1, 60, 0
1, 55181, Note_on_c, 1, 80, 127
1, 55272, Note_off_c, 1, 80, 0
1, 56293, Note_off_c, 1, 51, 0
1, 60648, Note_on_c, 1, 71, 127
1, 60901, Note_off_c, 1, 71, 0
1, 61674, Note_on_c, 1, 56, 127
1, 61927, Note_off_c, 1, 56, 0
1, 61930, Note_on_c, 1, 54, 127
1, 61930, Note_on_c, 1, 75, 127
1, 62184, Note_off_c, 1, 54, 0
1, 62438, Note_off_c, 1, 75, 0
1, 62956, Note_on_c, 1, 64, 127
1, 63464, Note_off_c, 1, 64, 0
1, 63470, Note_on_c, 1, 74, 127
1, 63726, Note_on_c, 1, 69, 127
1, 63979, Note_off_c, 1, 69, 0
1, 64217, Note_off_c, 1, 74, 0
1, 64239, Note_on_c, 1, 65, 127
1, 64492, Note_off_c, 1, 65, 0
1, 64495, Note_on_c, 1, 72, 127
1, 65261, Note_off_c, 1, 72, 0
1, 65520, Note_on_c, 1, 62, 127
1, 66285, Note_off_c, 1, 62, 0
1, 66544, Note_on_c, 1, 57, 127
1, 66544, Note_on_c, 1, 69, 127
1, 66544, Note_on_c, 1, 60, 127
1, 66797, Note_off_c, 1, 57, 0
1, 66800, Note_on_c, 1, 48, 127
1, 67053, Note_off_c, 1, 48, 0
1, 67056, Note_on_c, 1, 50, 127
1, 67309, Note_off_c, 1, 69, 0
1, 67309, Note_off_c, 1, 60, 0
1, 67309, Note_off_c, 1, 50, 0
1, 67312, Note_on_c, 1, 52, 127
1, 67312, Note_on_c, 1, 68, 127
1, 67312, Note_on_c, 1, 59, 127
1, 67565, Note_off_c, 1, 52, 0
1, 67565, Note_off_c, 1, 68, 0
1, 67565, Note_off_c, 1, 59, 0
1, 67568, Note_on_c, 1, 45, 127
1, 67568, Note_on_c, 1, 60, 127
1, 67568, Note_on_c, 1, 69, 127
1, 67821, Note_off_c, 1, 45, 0
1, 67824, Note_on_c, 1, 48, 127
1, 68077, Note_off_c, 1, 48, 0
1, 68336, Note_on_c, 1, 38, 127
1, 68589, Note_off_c, 1, 38, 0
1, 68592, Note_on_c, 1, 40, 127
1, 68845, Note_off_c, 1, 60, 0
1, 68848, Note_on_c, 1, 64, 127
1, 69101, Note_off_c, 1, 64, 0
1, 69357, Note_off_c, 1, 40, 0
1, 69360, Note_on_c, 1, 56, 127
1, 69613, Note_off_c, 1, 56, 0
1, 69616, Note_on_c, 1, 57, 127
1, 69872, Note_on_c, 1, 52, 127
1, 70125, Note_off_c, 1, 52, 0
1, 70629, Note_off_c, 1, 57, 0
1, 70656, Note_on_c, 1, 59, 127
1, 70893, Note_on_c, 1, 68, 127
1, 70912, Note_off_c, 1, 69, 0
1, 71019, Note_off_c, 1, 68, 0
1, 71120, Note_on_c, 1, 71, 127
1, 71245, Note_off_c, 1, 71, 0
1, 71423, Note_on_c, 1, 72, 127
1, 71668, Note_off_c, 1, 59, 0
1, 71676, Note_off_c, 1, 72, 0
1, 71679, Note_on_c, 1, 62, 127
1, 72694, Note_off_c, 1, 62, 0
1, 77093, Note_on_c, 1, 76, 127
1, 77387, Note_off_c, 1, 76, 0
1, 77389, Note_on_c, 1, 76, 127
1, 77683, Note_off_c, 1, 76, 0
1, 77685, Note_on_c, 1, 76, 127
1, 77979, Note_off_c, 1, 76, 0
1, 77981, Note_on_c, 1, 76, 127
1, 78127, Note_off_c, 1, 76, 0
1, 78129, Note_on_c, 1, 77, 127
1, 78275, Note_off_c, 1, 77, 0
1, 78277, Note_on_c, 1, 76, 127
1, 78423, Note_off_c, 1, 76, 0
1, 78425, Note_on_c, 1, 74, 127
1, 78571, Note_off_c, 1, 74, 0
1, 78573, Note_on_c, 1, 72, 127
1, 78719, Note_off_c, 1, 72, 0
1, 78721, Note_on_c, 1, 74, 127
1, 78867, Note_off_c, 1, 74, 0
1, 78869, Note_on_c, 1, 72, 127
1, 79015, Note_off_c, 1, 72, 0
1, 79017, Note_on_c, 1, 71, 127
1, 79163, Note_off_c, 1, 71, 0
1, 79165, Note_on_c, 1, 69, 127
1, 79459, Note_off_c, 1, 69, 0
1, 79461, Note_on_c, 1, 77, 127
1, 79755, Note_off_c, 1, 77, 0
1, 79757, Note_on_c, 1, 77, 127
1, 79903, Note_off_c, 1, 77, 0
1, 79905, Note_on_c, 1, 79, 127
1, 80051, Note_off_c, 1, 79, 0
1, 80053, Note_on_c, 1, 77, 127
1, 80199, Note_off_c, 1, 77, 0
1, 80201, Note_on_c, 1, 79, 127
1, 80347, Note_off_c, 1, 79, 0
1, 80349, Note_on_c, 1, 76, 127
1, 80643, Note_off_c, 1, 76, 0
1, 80645, Note_on_c, 1, 81, 127
1, 80939, Note_off_c, 1, 81, 0
1, 80941, Note_on_c, 1, 81, 127
1, 81087, Note_off_c, 1, 81, 0
1, 81089, Note_on_c, 1, 83, 127
1, 81235, Note_off_c, 1, 83, 0
1, 81237, Note_on_c, 1, 81, 127
1, 81383, Note_off_c, 1, 81, 0
1, 81385, Note_on_c, 1, 83, 127
1, 81531, Note_off_c, 1, 83, 0
1, 81533, Note_on_c, 1, 79, 127
1, 81679, Note_off_c, 1, 79, 0
1, 81681, Note_on_c, 1, 81, 127
1, 81827, Note_off_c, 1, 81, 0
1, 81829, Note_on_c, 1, 79, 127
1, 81975, Note_off_c, 1, 79, 0
1, 81977, Note_on_c, 1, 81, 127
1, 82123, Note_off_c, 1, 81, 0
1, 82125, Note_on_c, 1, 77, 127
1, 82271, Note_off_c, 1, 77, 0
1, 82273, Note_on_c, 1, 79, 127
1, 82419, Note_off_c, 1, 79, 0
1, 82421, Note_on_c, 1, 77, 127
1, 82567, Note_off_c, 1, 77, 0
1, 82569, Note_on_c, 1, 79, 127
1, 82715, Note_off_c, 1, 79, 0
1, 82717, Note_on_c, 1, 76, 127
1, 82863, Note_off_c, 1, 76, 0
1, 82865, Note_on_c, 1, 77, 127
1, 83011, Note_off_c, 1, 77, 0
1, 83013, Note_on_c, 1, 76, 127
1, 83159, Note_off_c, 1, 76, 0
1, 83161, Note_on_c, 1, 77, 127
1, 83307, Note_off_c, 1, 77, 0
1, 83309, Note_on_c, 1, 74, 127
1, 83455, Note_off_c, 1, 74, 0
1, 83457, Note_on_c, 1, 76, 127
1, 83603, Note_off_c, 1, 76, 0
1, 83605, Note_on_c, 1, 74, 127
1, 83751, Note_off_c, 1, 74, 0
1, 83753, Note_on_c, 1, 76, 127
1, 83899, Note_off_c, 1, 76, 0
1, 83901, Note_on_c, 1, 72, 127
1, 84047, Note_off_c, 1, 72, 0
1, 84049, Note_on_c, 1, 74, 127
1, 84195, Note_off_c, 1, 74, 0
1, 84197, Note_on_c, 1, 72, 127
1, 84343, Note_off_c, 1, 72, 0
1, 84345, Note_on_c, 1, 74, 127
1, 84491, Note_off_c, 1, 74, 0
1, 84493, Note_on_c, 1, 71, 127
1, 84639, Note_off_c, 1, 71, 0
1, 84641, Note_on_c, 1, 72, 127
1, 84787, Note_off_c, 1, 72, 0
1, 84789, Note_on_c, 1, 71, 127
1, 84935, Note_off_c, 1, 71, 0
1, 84937, Note_on_c, 1, 72, 127
1, 85083, Note_off_c, 1, 72, 0
1, 85085, Note_on_c, 1, 69, 127
1, 85231, Note_off_c, 1, 69, 0
1, 85233, Note_on_c, 1, 72, 127
1, 85379, Note_off_c, 1, 72, 0
1, 85381, Note_on_c, 1, 71, 127
1, 85527, Note_off_c, 1, 71, 0
1, 85529, Note_on_c, 1, 74, 127
1, 85675, Note_off_c, 1, 74, 0
1, 85677, Note_on_c, 1, 72, 127
1, 85823, Note_off_c, 1, 72, 0
1, 85825, Note_on_c, 1, 76, 127
1, 85971, Note_off_c, 1, 76, 0
1, 85973, Note_on_c, 1, 74, 127
1, 86119, Note_off_c, 1, 74, 0
1, 86121, Note_on_c, 1, 77, 127
1, 86267, Note_off_c, 1, 77, 0
1, 86269, Note_on_c, 1, 76, 127
1, 86415, Note_off_c, 1, 76, 0
1, 86417, Note_on_c, 1, 77, 127
1, 86563, Note_off_c, 1, 77, 0
1, 86565, Note_on_c, 1, 76, 127
1, 86565, Note_on_c, 1, 69, 127
1, 86711, Note_off_c, 1, 76, 0
1, 86713, Note_on_c, 1, 74, 127
1, 86859, Note_off_c, 1, 69, 0
1, 86859, Note_off_c, 1, 74, 0
1, 86861, Note_on_c, 1, 72, 127
1, 86861, Note_on_c, 1, 69, 127
1, 87007, Note_off_c, 1, 72, 0
1, 87009, Note_on_c, 1, 74, 127
1, 87155, Note_off_c, 1, 69, 0
1, 87155, Note_off_c, 1, 74, 0
1, 87157, Note_on_c, 1, 72, 127
1, 87157, Note_on_c, 1, 69, 127
1, 87303, Note_off_c, 1, 72, 0
1, 87305, Note_on_c, 1, 71, 127
1, 87451, Note_off_c, 1, 69, 0
1, 87451, Note_off_c, 1, 71, 0
1, 87453, Note_on_c, 1, 72, 127
1, 87453, Note_on_c, 1, 69, 127
1, 87599, Note_off_c, 1, 72, 0
1, 87599, Note_off_c, 1, 69, 0
1, 87601, Note_on_c, 1, 72, 127
1, 87747, Note_off_c, 1, 72, 0
1, 87749, Note_on_c, 1, 71, 127
1, 87749, Note_on_c, 1, 74, 127
1, 87895, Note_off_c, 1, 71, 0
1, 87897, Note_on_c, 1, 69, 127
1, 88043, Note_off_c, 1, 74, 0
1, 88043, Note_off_c, 1, 69, 0
1, 88045, Note_on_c, 1, 76, 127
1, 88045, Note_on_c, 1, 67, 127
1, 88191, Note_off_c, 1, 76, 0
1, 88191, Note_off_c, 1, 67, 0
1, 88193, Note_on_c, 1, 75, 127
1, 88193, Note_on_c, 1, 69, 127
1, 88339, Note_off_c, 1, 75, 0
1, 88339, Note_off_c, 1, 69, 0
1, 88341, Note_on_c, 1, 76, 127
1, 88341, Note_on_c, 1, 67, 127
1, 88487, Note_off_c, 1, 76, 0
1, 88487, Note_off_c, 1, 67, 0
1, 88489, Note_on_c, 1, 78, 127
1, 88489, Note_on_c, 1, 66, 127
1, 88635, Note_off_c, 1, 78, 0
1, 88635, Note_off_c, 1, 66, 0
1, 88637, Note_on_c, 1, 79, 127
1, 88637, Note_on_c, 1, 64, 127
1, 88783, Note_off_c, 1, 79, 0
1, 88785, Note_on_c, 1, 78, 127
1, 88931, Note_off_c, 1, 64, 0
1, 88931, Note_off_c, 1, 78, 0
1, 88933, Note_on_c, 1, 76, 127
1, 88933, Note_on_c, 1, 72, 127
1, 89079, Note_off_c, 1, 76, 0
1, 89081, Note_on_c, 1, 75, 127
1, 89227, Note_off_c, 1, 72, 0
1, 89227, Note_off_c, 1, 75, 0
1, 89229, Note_on_c, 1, 72, 127
1, 89229, Note_on_c, 1, 76, 127
1, 89375, Note_off_c, 1, 72, 0
1, 89377, Note_on_c, 1, 74, 127
1, 89523, Note_off_c, 1, 76, 0
1, 89523, Note_off_c, 1, 74, 0
1, 89525, Note_on_c, 1, 72, 127
1, 89525, Note_on_c, 1, 81, 127
1, 89671, Note_off_c, 1, 72, 0
1, 89673, Note_on_c, 1, 74, 127
1, 89819, Note_off_c, 1, 74, 0
1, 89821, Note_on_c, 1, 71, 127
1, 89967, Note_off_c, 1, 81, 0
1, 90115, Note_off_c, 1, 71, 0
1, 90117, Note_on_c, 1, 79, 127
1, 90117, Note_on_c, 1, 76, 127
1, 90263, Note_off_c, 1, 79, 0
1, 90265, Note_on_c, 1, 78, 127
1, 90411, Note_off_c, 1, 76, 0
1, 90411, Note_off_c, 1, 78, 0
1, 90413, Note_on_c, 1, 76, 127
1, 90413, Note_on_c, 1, 79, 127
1, 90559, Note_off_c, 1, 76, 0
1, 90561, Note_on_c, 1, 78, 127
1, 90707, Note_off_c, 1, 79, 0
1, 90707, Note_off_c, 1, 78, 0
1, 90709, Note_on_c, 1, 76, 127
1, 90709, Note_on_c, 1, 84, 127
1, 90855, Note_off_c, 1, 76, 0
1, 90857, Note_on_c, 1, 78, 127
1, 91003, Note_off_c, 1, 78, 0
1, 91005, Note_on_c, 1, 74, 127
1, 91151, Note_off_c, 1, 74, 0
1, 91299, Note_off_c, 1, 84, 0
1, 91301, Note_on_c, 1, 74, 127
1, 91301, Note_on_c, 1, 83, 127
1, 91447, Note_off_c, 1, 74, 0
1, 91449, Note_on_c, 1, 76, 127
1, 91595, Note_off_c, 1, 76, 0
1, 91597, Note_on_c, 1, 72, 127
1, 91743, Note_off_c, 1, 72, 0
1, 91891, Note_off_c, 1, 83, 0
1, 91893, Note_on_c, 1, 72, 127
1, 91893, Note_on_c, 1, 81, 127
1, 92039, Note_off_c, 1, 72, 0
1, 92041, Note_on_c, 1, 74, 127
1, 92187, Note_off_c, 1, 81, 0
1, 92187, Note_off_c, 1, 74, 0
1, 92189, Note_on_c, 1, 71, 127
1, 92189, Note_on_c, 1, 74, 127
1, 92335, Note_off_c, 1, 71, 0
1, 92337, Note_on_c, 1, 72, 127
1, 92483, Note_off_c, 1, 74, 0
1, 92483, Note_off_c, 1, 72, 0
1, 92485, Note_on_c, 1, 71, 127
1, 92485, Note_on_c, 1, 79, 127
1, 92631, Note_off_c, 1, 71, 0
1, 92633, Note_on_c, 1, 72, 127
1, 92779, Note_off_c, 1, 72, 0
1, 92781, Note_on_c, 1, 69, 127
1, 92927, Note_off_c, 1, 69, 0
1, 93075, Note_off_c, 1, 79, 0
1, 93077, Note_on_c, 1, 69, 127
1, 93077, Note_on_c, 1, 78, 127
1, 93223, Note_off_c, 1, 69, 0
1, 93225, Note_on_c, 1, 71, 127
1, 93371, Note_off_c, 1, 78, 0
1, 93371, Note_off_c, 1, 71, 0
1, 93373, Note_on_c, 1, 67, 127
1, 93373, Note_on_c, 1, 71, 127
1, 93519, Note_off_c, 1, 67, 0
1, 93521, Note_on_c, 1, 69, 127
1, 93667, Note_off_c, 1, 71, 0
1, 93667, Note_off_c, 1, 69, 0
1, 93669, Note_on_c, 1, 67, 127
1, 93669, Note_on_c, 1, 76, 127
1, 93815, Note_off_c, 1, 67, 0
1, 93817, Note_on_c, 1, 69, 127
1, 93963, Note_off_c, 1, 69, 0
1, 93965, Note_on_c, 1, 66, 127
1, 94111, Note_off_c, 1, 66, 0
1, 94259, Note_off_c, 1, 76, 0
1, 94261, Note_on_c, 1, 66, 127
1, 94261, Note_on_c, 1, 75, 127
1, 94407, Note_off_c, 1, 66, 0
1, 94409, Note_on_c, 1, 67, 127
1, 94555, Note_off_c, 1, 75, 0
1, 94555, Note_off_c, 1, 67, 0
1, 94557, Note_on_c, 1, 64, 127
1, 94557, Note_on_c, 1, 76, 127
1, 94703, Note_off_c, 1, 64, 0
1, 94705, Note_on_c, 1, 67, 127
1, 94851, Note_off_c, 1, 67, 0
1, 94853, Note_on_c, 1, 66, 127
1, 94988, Note_off_c, 1, 76, 0
1, 94999, Note_off_c, 1, 66, 0
1, 95001, Note_on_c, 1, 69, 127
1, 95147, Note_off_c, 1, 69, 0
1, 95149, Note_on_c, 1, 76, 127
1, 95149, Note_on_c, 1, 68, 127
1, 95295, Note_off_c, 1, 76, 0
1, 95295, Note_off_c, 1, 68, 0
1, 95297, Note_on_c, 1, 80, 127
1, 95297, Note_on_c, 1, 71, 127
1, 95443, Note_off_c, 1, 80, 0
1, 95443, Note_off_c, 1, 71, 0
1, 95445, Note_on_c, 1, 78, 127
1, 95445, Note_on_c, 1, 69, 127
1, 95591, Note_off_c, 1, 78, 0
1, 95591, Note_off_c, 1, 69, 0
1, 95593, Note_on_c, 1, 81, 127
1, 95593, Note_on_c, 1, 72, 127
1, 95739, Note_off_c, 1, 81, 0
1, 95739, Note_off_c, 1, 72, 0
1, 95741, Note_on_c, 1, 80, 127
1, 95741, Note_on_c, 1, 71, 127
1, 95887, Note_off_c, 1, 80, 0
1, 95889, Note_on_c, 1, 83, 127
1, 96035, Note_off_c, 1, 71, 0
1, 96035, Note_off_c, 1, 83, 0
1, 96037, Note_on_c, 1, 81, 127
1, 96037, Note_on_c, 1, 72, 127
1, 96183, Note_off_c, 1, 81, 0
1, 96185, Note_on_c, 1, 84, 127
1, 96331, Note_off_c, 1, 72, 0
1, 96331, Note_off_c, 1, 84, 0
1, 96333, Note_on_c, 1, 74, 127
1, 96333, Note_on_c, 1, 64, 127
1, 96333, Note_on_c, 1, 83, 127
1, 96479, Note_off_c, 1, 74, 0
1, 96481, Note_on_c, 1, 68, 127
1, 96627, Note_off_c, 1, 64, 0
1, 96627, Note_off_c, 1, 68, 0
1, 96629, Note_on_c, 1, 72, 127
1, 96775, Note_off_c, 1, 83, 0
1, 96777, Note_on_c, 1, 81, 127
1, 96923, Note_off_c, 1, 72, 0
1, 96925, Note_on_c, 1, 71, 127
1, 97073, Note_on_c, 1, 65, 127
1, 97219, Note_off_c, 1, 81, 0
1, 97219, Note_off_c, 1, 65, 0
1, 97221, Note_on_c, 1, 80, 127
1, 97369, Note_on_c, 1, 62, 127
1, 97515, Note_off_c, 1, 71, 0
1, 97515, Note_off_c, 1, 80, 0
1, 97515, Note_off_c, 1, 62, 0
1, 97517, Note_on_c, 1, 81, 127
1, 97517, Note_on_c, 1, 60, 127
1, 97517, Note_on_c, 1, 76, 127
1, 97663, Note_off_c, 1, 81, 0
1, 97663, Note_off_c, 1, 60, 0
1, 97665, Note_on_c, 1, 80, 127
1, 97665, Note_on_c, 1, 62, 127
1, 97811, Note_off_c, 1, 80, 0
1, 97811, Note_off_c, 1, 62, 0
1, 97961, Note_on_c, 1, 83, 127
1, 97961, Note_on_c, 1, 59, 127
1, 98107, Note_off_c, 1, 83, 0
1, 98107, Note_off_c, 1, 59, 0
1, 98109, Note_on_c, 1, 84, 127
1, 98109, Note_on_c, 1, 57, 127
1, 98255, Note_off_c, 1, 84, 0
1, 98403, Note_off_c, 1, 57, 0
1, 98405, Note_on_c, 1, 65, 127
1, 98699, Note_off_c, 1, 65, 0
1, 98849, Note_on_c, 1, 67, 127
1, 98995, Note_off_c, 1, 76, 0
1, 98995, Note_off_c, 1, 67, 0
1, 98997, Note_on_c, 1, 74, 127
1, 99293, Note_on_c, 1, 64, 127
1, 99293, Note_on_c, 1, 79, 127
1, 99439, Note_off_c, 1, 74, 0
1, 99587, Note_off_c, 1, 64, 0
1, 99589, Note_on_c, 1, 72, 127
1, 99589, Note_on_c, 1, 69, 127
1, 99735, Note_off_c, 1, 72, 0
1, 99737, Note_on_c, 1, 71, 127
1, 99883, Note_off_c, 1, 69, 0
1, 99883, Note_off_c, 1, 71, 0
1, 100179, Note_off_c, 1, 79, 0
1, 100181, Note_on_c, 1, 77, 127
1, 100771, Note_off_c, 1, 77, 0
1, 101661, Note_on_c, 1, 64, 127
1, 101661, Note_on_c, 1, 79, 127
1, 101661, Note_on_c, 1, 67, 127
1, 101807, Note_off_c, 1, 64, 0
1, 101809, Note_on_c, 1, 65, 127
1, 101955, Note_off_c, 1, 79, 0
1, 101955, Note_off_c, 1, 65, 0
1, 101957, Note_on_c, 1, 72, 127
1, 102251, Note_off_c, 1, 67, 0
1, 102253, Note_on_c, 1, 62, 127
1, 102399, Note_off_c, 1, 62, 0
1, 102547, Note_off_c, 1, 72, 0
1, 102549, Note_on_c, 1, 71, 127
1, 102843, Note_off_c, 1, 71, 0
1, 102845, Note_on_c, 1, 60, 127
1, 102845, Note_on_c, 1, 76, 127
1, 102845, Note_on_c, 1, 64, 127
1, 102991, Note_off_c, 1, 60, 0
1, 102993, Note_on_c, 1, 62, 127
1, 103139, Note_off_c, 1, 76, 0
1, 103139, Note_off_c, 1, 62, 0
1, 103141, Note_on_c, 1, 69, 127
1, 103435, Note_off_c, 1, 64, 0
1, 103437, Note_on_c, 1, 59, 127
1, 103583, Note_off_c, 1, 59, 0
1, 103731, Note_off_c, 1, 69, 0
1, 103733, Note_on_c, 1, 68, 127
1, 104027, Note_off_c, 1, 68, 0
1, 104029, Note_on_c, 1, 60, 127
1, 104029, Note_on_c, 1, 57, 127
1, 104029, Note_on_c, 1, 69, 127
1, 104175, Note_off_c, 1, 60, 0
1, 104175, Note_off_c, 1, 57, 0
1, 104177, Note_on_c, 1, 64, 127
1, 104323, Note_off_c, 1, 64, 0
1, 104325, Note_on_c, 1, 62, 127
1, 104325, Note_on_c, 1, 59, 127
1, 104460, Note_off_c, 1, 69, 0
1, 104471, Note_off_c, 1, 62, 0
1, 104471, Note_off_c, 1, 59, 0
1, 104473, Note_on_c, 1, 65, 127
1, 104473, Note_on_c, 1, 62, 127
1, 104619, Note_off_c, 1, 65, 0
1, 104619, Note_off_c, 1, 62, 0
1, 104621, Note_on_c, 1, 69, 127
1, 104621, Note_on_c, 1, 64, 127
1, 104621, Note_on_c, 1, 60, 127
1, 104767, Note_off_c, 1, 69, 0
1, 104767, Note_off_c, 1, 64, 0
1, 104767, Note_off_c, 1, 60, 0
1, 104769, Note_on_c, 1, 72, 127
1, 104769, Note_on_c, 1, 64, 127
1, 104915, Note_off_c, 1, 72, 0
1, 104915, Note_off_c, 1, 64, 0
1, 104917, Note_on_c, 1, 71, 127
1, 104917, Note_on_c, 1, 62, 127
1, 104917, Note_on_c, 1, 68, 127
1, 105063, Note_off_c, 1, 71, 0
1, 105063, Note_off_c, 1, 62, 0
1, 105065, Note_on_c, 1, 74, 127
1, 105065, Note_on_c, 1, 65, 127
1, 105211, Note_off_c, 1, 68, 0
1, 105211, Note_off_c, 1, 74, 0
1, 105211, Note_off_c, 1, 65, 0
1, 105213, Note_on_c, 1, 72, 127
1, 105213, Note_on_c, 1, 64, 127
1, 105213, Note_on_c, 1, 69, 127
1, 105359, Note_off_c, 1, 72, 0
1, 105361, Note_on_c, 1, 74, 127
1, 105507, Note_off_c, 1, 74, 0
1, 105509, Note_on_c, 1, 57, 127
1, 105644, Note_off_c, 1, 64, 0
1, 105657, Note_on_c, 1, 71, 127
1, 105657, Note_on_c, 1, 62, 127
1, 105799, Note_off_c, 1, 69, 0
1, 105804, Note_off_c, 1, 57, 0
1, 105804, Note_off_c, 1, 71, 0
1, 105804, Note_off_c, 1, 62, 0
1, 105806, Note_on_c, 1, 69, 127
1, 105806, Note_on_c, 1, 57, 127
1, 105806, Note_on_c, 1, 60, 127
1, 105952, Note_off_c, 1, 69, 0
1, 105954, Note_on_c, 1, 67, 127
1, 106100, Note_off_c, 1, 57, 0
1, 106100, Note_off_c, 1, 67, 0
1, 106102, Note_on_c, 1, 66, 127
1, 106248, Note_off_c, 1, 66, 0
1, 106250, Note_on_c, 1, 64, 127
1, 106392, Note_off_c, 1, 60, 0
1, 106397, Note_off_c, 1, 64, 0
1, 106399, Note_on_c, 1, 57, 127
1, 106399, Note_on_c, 1, 71, 127
1, 106545, Note_off_c, 1, 57, 0
1, 106547, Note_on_c, 1, 60, 127
1, 106693, Note_off_c, 1, 60, 0
1, 106695, Note_on_c, 1, 59, 127
1, 106695, Note_on_c, 1, 63, 127
1, 106841, Note_off_c, 1, 59, 0
1, 106989, Note_off_c, 1, 63, 0
1, 106991, Note_on_c, 1, 64, 127
1, 106991, Note_on_c, 1, 55, 127
1, 107137, Note_off_c, 1, 64, 0
1, 107137, Note_off_c, 1, 55, 0
1, 107435, Note_on_c, 1, 66, 127
1, 107435, Note_on_c, 1, 54, 127
1, 107581, Note_off_c, 1, 66, 0
1, 107581, Note_off_c, 1, 54, 0
1, 107583, Note_on_c, 1, 52, 127
1, 107583, Note_on_c, 1, 67, 127
1, 107729, Note_off_c, 1, 71, 0
1, 107877, Note_off_c, 1, 52, 0
1, 107879, Note_on_c, 1, 76, 127
1, 108025, Note_off_c, 1, 76, 0
1, 108027, Note_on_c, 1, 75, 127
1, 108173, Note_off_c, 1, 75, 0
1, 108323, Note_on_c, 1, 62, 127
1, 108469, Note_off_c, 1, 67, 0
1, 108469, Note_off_c, 1, 62, 0
1, 108471, Note_on_c, 1, 69, 127
1, 108765, Note_off_c, 1, 69, 0
1, 109063, Note_on_c, 1, 79, 127
1, 109209, Note_off_c, 1, 79, 0
1, 109211, Note_on_c, 1, 78, 127
1, 109357, Note_off_c, 1, 78, 0
1, 109655, Note_on_c, 1, 72, 127
1, 110245, Note_off_c, 1, 72, 0
1, 111135, Note_on_c, 1, 59, 127
1, 111135, Note_on_c, 1, 62, 127
1, 111135, Note_on_c, 1, 74, 127
1, 111281, Note_off_c, 1, 59, 0
1, 111283, Note_on_c, 1, 60, 127
1, 111429, Note_off_c, 1, 62, 0
1, 111429, Note_off_c, 1, 60, 0
1, 111431, Note_on_c, 1, 67, 127
1, 111725, Note_off_c, 1, 74, 0
1, 111727, Note_on_c, 1, 57, 127
1, 111727, Note_on_c, 1, 72, 127
1, 111873, Note_off_c, 1, 57, 0
1, 112021, Note_off_c, 1, 67, 0
1, 112023, Note_on_c, 1, 66, 127
1, 112317, Note_off_c, 1, 72, 0
1, 112317, Note_off_c, 1, 66, 0
1, 112319, Note_on_c, 1, 55, 127
1, 112319, Note_on_c, 1, 59, 127
1, 112319, Note_on_c, 1, 71, 127
1, 112465, Note_off_c, 1, 55, 0
1, 112467, Note_on_c, 1, 57, 127
1, 112613, Note_off_c, 1, 59, 0
1, 112613, Note_off_c, 1, 57, 0
1, 112615, Note_on_c, 1, 64, 127
1, 112909, Note_off_c, 1, 71, 0
1, 112911, Note_on_c, 1, 54, 127
1, 112911, Note_on_c, 1, 69, 127
1, 113057, Note_off_c, 1, 54, 0
1, 113205, Note_off_c, 1, 64, 0
1, 113207, Note_on_c, 1, 63, 127
1, 113501, Note_off_c, 1, 69, 0
1, 113501, Note_off_c, 1, 63, 0
1, 113503, Note_on_c, 1, 67, 127
1, 113503, Note_on_c, 1, 52, 127
1, 113503, Note_on_c, 1, 64, 127
1, 113649, Note_off_c, 1, 67, 0
1, 113649, Note_off_c, 1, 52, 0
1, 113651, Note_on_c, 1, 71, 127
1, 113651, Note_on_c, 1, 55, 127
1, 113797, Note_off_c, 1, 71, 0
1, 113797, Note_off_c, 1, 55, 0
1, 113799, Note_on_c, 1, 69, 127
1, 113799, Note_on_c, 1, 54, 127
1, 113945, Note_off_c, 1, 69, 0
1, 113945, Note_off_c, 1, 54, 0
1, 113947, Note_on_c, 1, 72, 127
1, 113947, Note_on_c, 1, 57, 127
1, 114093, Note_off_c, 1, 72, 0
1, 114093, Note_off_c, 1, 57, 0
1, 114241, Note_off_c, 1, 64, 0
1, 114243, Note_on_c, 1, 59, 127
1, 114389, Note_off_c, 1, 59, 0
1, 114391, Note_on_c, 1, 66, 127
1, 114537, Note_off_c, 1, 66, 0
1, 114539, Note_on_c, 1, 60, 127
1, 114685, Note_off_c, 1, 60, 0
1, 114835, Note_on_c, 1, 76, 127
1, 114981, Note_off_c, 1, 76, 0
1, 114983, Note_on_c, 1, 75, 127
1, 115129, Note_off_c, 1, 75, 0
1, 115131, Note_on_c, 1, 78, 127
1, 115277, Note_off_c, 1, 78, 0
1, 115427, Note_on_c, 1, 79, 127
1, 115573, Note_off_c, 1, 79, 0
1, 115723, Note_on_c, 1, 81, 127
1, 115723, Note_on_c, 1, 63, 127
1, 115869, Note_off_c, 1, 81, 0
1, 115869, Note_off_c, 1, 63, 0
1, 116167, Note_on_c, 1, 73, 127
1, 116313, Note_off_c, 1, 73, 0
1, 116463, Note_on_c, 1, 70, 127
1, 116463, Note_on_c, 1, 61, 127
1, 117049, Note_off_c, 1, 70, 0
1, 117054, Note_off_c, 1, 61, 0
1, 117648, Note_on_c, 1, 74, 127
1, 117794, Note_off_c, 1, 74, 0
1, 117944, Note_on_c, 1, 65, 127
1, 118090, Note_off_c, 1, 65, 0
1, 118240, Note_on_c, 1, 77, 127
1, 118240, Note_on_c, 1, 62, 127
1, 118386, Note_off_c, 1, 77, 0
1, 118832, Note_on_c, 1, 68, 127
1, 119422, Note_off_c, 1, 62, 0
1, 119422, Note_off_c, 1, 68, 0
1, 121200, Note_on_c, 1, 56, 127
1, 121791, Note_off_c, 1, 56, 0
1, 121793, Note_on_c, 1, 72, 127
1, 121793, Note_on_c, 1, 57, 127
1, 121939, Note_off_c, 1, 72, 0
1, 121941, Note_on_c, 1, 69, 127
1, 122087, Note_off_c, 1, 69, 0
1, 122089, Note_on_c, 1, 64, 127
1, 122089, Note_on_c, 1, 55, 127
1, 122235, Note_off_c, 1, 64, 0
1, 122383, Note_off_c, 1, 55, 0
1, 122385, Note_on_c, 1, 53, 127
1, 122385, Note_on_c, 1, 62, 127
1, 122681, Note_on_c, 1, 71, 127
1, 122827, Note_off_c, 1, 71, 0
1, 122975, Note_off_c, 1, 57, 0
1, 122975, Note_off_c, 1, 53, 0
1, 122977, Note_on_c, 1, 68, 127
1, 122977, Note_on_c, 1, 52, 127
1, 123123, Note_off_c, 1, 68, 0
1, 123273, Note_on_c, 1, 76, 127
1, 123419, Note_off_c, 1, 62, 0
1, 123421, Note_on_c, 1, 60, 127
1, 123567, Note_off_c, 1, 76, 0
1, 123567, Note_off_c, 1, 60, 0
1, 123569, Note_on_c, 1, 59, 127
1, 123715, Note_off_c, 1, 59, 0
1, 124012, Note_off_c, 1, 52, 0
1, 124014, Note_on_c, 1, 50, 127
1, 124160, Note_off_c, 1, 50, 0
1, 124162, Note_on_c, 1, 76, 127
1, 124162, Note_on_c, 1, 69, 127
1, 124162, Note_on_c, 1, 48, 127
1, 124162, Note_on_c, 1, 52, 127
1, 124308, Note_off_c, 1, 76, 0
1, 124310, Note_on_c, 1, 77, 127
1, 124455, Note_off_c, 1, 69, 0
1, 124457, Note_off_c, 1, 48, 0
1, 124457, Note_off_c, 1, 77, 0
1, 124459, Note_on_c, 1, 71, 127
1, 124459, Note_on_c, 1, 44, 127
1, 124607, Note_on_c, 1, 74, 127
1, 124752, Note_off_c, 1, 71, 0
1, 124754, Note_off_c, 1, 44, 0
1, 124754, Note_off_c, 1, 74, 0
1, 124756, Note_on_c, 1, 72, 127
1, 124756, Note_on_c, 1, 45, 127
1, 124902, Note_off_c, 1, 72, 0
1, 124902, Note_off_c, 1, 45, 0
1, 125200, Note_on_c, 1, 47, 127
1, 125347, Note_off_c, 1, 52, 0
1, 125347, Note_off_c, 1, 47, 0
1, 125349, Note_on_c, 1, 48, 127
1, 125349, Note_on_c, 1, 69, 127
1, 125495, Note_off_c, 1, 48, 0
1, 125497, Note_on_c, 1, 47, 127
1, 125643, Note_off_c, 1, 47, 0
1, 125645, Note_on_c, 1, 45, 127
1, 125645, Note_on_c, 1, 77, 127
1, 125791, Note_off_c, 1, 69, 0
1, 125791, Note_off_c, 1, 45, 0
1, 125793, Note_on_c, 1, 71, 127
1, 125793, Note_on_c, 1, 44, 127
1, 125939, Note_off_c, 1, 77, 0
1, 125939, Note_off_c, 1, 71, 0
1, 125939, Note_off_c, 1, 44, 0
1, 125941, Note_on_c, 1, 77, 127
1, 125941, Note_on_c, 1, 72, 127
1, 125941, Note_on_c, 1, 45, 127
1, 126087, Note_off_c, 1, 77, 0
1, 126089, Note_on_c, 1, 79, 127
1, 126235, Note_off_c, 1, 72, 0
1, 126235, Note_off_c, 1, 45, 0
1, 126235, Note_off_c, 1, 79, 0
1, 126237, Note_on_c, 1, 77, 127
1, 126237, Note_on_c, 1, 74, 127
1, 126237, Note_on_c, 1, 50, 127
1, 126383, Note_off_c, 1, 77, 0
1, 126385, Note_on_c, 1, 79, 127
1, 126531, Note_off_c, 1, 74, 0
1, 126531, Note_off_c, 1, 79, 0
1, 126533, Note_on_c, 1, 76, 127
1, 126533, Note_on_c, 1, 68, 127
1, 126679, Note_off_c, 1, 50, 0
1, 126827, Note_off_c, 1, 76, 0
1, 126827, Note_off_c, 1, 68, 0
1, 126829, Note_on_c, 1, 48, 127
1, 126829, Note_on_c, 1, 81, 127
1, 126829, Note_on_c, 1, 76, 127
1, 126975, Note_off_c, 1, 48, 0
1, 126977, Note_on_c, 1, 47, 127
1, 127123, Note_off_c, 1, 81, 0
1, 127123, Note_off_c, 1, 47, 0
1, 127273, Note_on_c, 1, 83, 127
1, 127419, Note_off_c, 1, 76, 0
1, 127419, Note_off_c, 1, 83, 0
1, 127421, Note_on_c, 1, 81, 127
1, 127421, Note_on_c, 1, 72, 127
1, 127421, Note_on_c, 1, 53, 127
1, 127567, Note_off_c, 1, 81, 0
1, 127569, Note_on_c, 1, 83, 127
1, 127715, Note_off_c, 1, 72, 0
1, 127715, Note_off_c, 1, 83, 0
1, 127717, Note_on_c, 1, 79, 127
1, 127717, Note_on_c, 1, 74, 127
1, 127863, Note_off_c, 1, 79, 0
1, 127994, Note_off_c, 1, 53, 0
1, 128011, Note_off_c, 1, 74, 0
1, 128013, Note_on_c, 1, 79, 127
1, 128013, Note_on_c, 1, 76, 127
1, 128013, Note_on_c, 1, 52, 127
1, 128159, Note_off_c, 1, 79, 0
1, 128161, Note_on_c, 1, 81, 127
1, 128307, Note_off_c, 1, 76, 0
1, 128307, Note_off_c, 1, 81, 0
1, 128309, Note_on_c, 1, 77, 127
1, 128309, Note_on_c, 1, 69, 127
1, 128455, Note_off_c, 1, 77, 0
1, 128588, Note_off_c, 1, 52, 0
1, 128605, Note_on_c, 1, 50, 127
1, 128899, Note_off_c, 1, 69, 0
1, 128899, Note_off_c, 1, 50, 0
1, 128901, Note_on_c, 1, 76, 127
1, 128901, Note_on_c, 1, 43, 127
1, 128901, Note_on_c, 1, 71, 127
1, 129047, Note_off_c, 1, 76, 0
1, 129049, Note_on_c, 1, 77, 127
1, 129163, Note_off_c, 1, 43, 0
1, 129195, Note_off_c, 1, 71, 0
1, 129195, Note_off_c, 1, 77, 0
1, 129197, Note_on_c, 1, 76, 127
1, 129197, Note_on_c, 1, 72, 127
1, 129197, Note_on_c, 1, 48, 127
1, 129343, Note_off_c, 1, 76, 0
1, 129345, Note_on_c, 1, 77, 127
1, 129491, Note_off_c, 1, 72, 0
1, 129491, Note_off_c, 1, 77, 0
1, 129493, Note_on_c, 1, 74, 127
1, 129493, Note_on_c, 1, 66, 127
1, 129639, Note_off_c, 1, 74, 0
1, 129787, Note_off_c, 1, 48, 0
1, 129787, Note_off_c, 1, 66, 0
1, 129789, Note_on_c, 1, 74, 127
1, 129789, Note_on_c, 1, 47, 127
1, 129789, Note_on_c, 1, 68, 127
1, 129935, Note_off_c, 1, 74, 0
1, 129937, Note_on_c, 1, 76, 127
1, 130083, Note_off_c, 1, 47, 0
1, 130083, Note_off_c, 1, 76, 0
1, 130085, Note_on_c, 1, 72, 127
1, 130085, Note_on_c, 1, 40, 127
1, 130231, Note_off_c, 1, 72, 0
1, 130350, Note_off_c, 1, 40, 0
1, 130379, Note_off_c, 1, 68, 0
1, 130381, Note_on_c, 1, 72, 127
1, 130381, Note_on_c, 1, 69, 127
1, 130381, Note_on_c, 1, 45, 127
1, 130527, Note_off_c, 1, 72, 0
1, 130529, Note_on_c, 1, 74, 127
1, 130675, Note_off_c, 1, 69, 0
1, 130675, Note_off_c, 1, 74, 0
1, 130677, Note_on_c, 1, 71, 127
1, 130677, Note_on_c, 1, 62, 127
1, 130823, Note_off_c, 1, 71, 0
1, 130971, Note_off_c, 1, 45, 0
1, 130973, Note_on_c, 1, 44, 127
1, 131267, Note_off_c, 1, 62, 0
1, 131267, Note_off_c, 1, 44, 0
1, 131269, Note_on_c, 1, 69, 127
1, 131269, Note_on_c, 1, 60, 127
1, 131269, Note_on_c, 1, 45, 127
1, 131415, Note_off_c, 1, 69, 0
1, 131417, Note_on_c, 1, 72, 127
1, 131562, Note_off_c, 1, 60, 0
1, 131564, Note_off_c, 1, 72, 0
1, 131566, Note_on_c, 1, 71, 127
1, 131701, Note_off_c, 1, 45, 0
1, 131712, Note_off_c, 1, 71, 0
1, 131714, Note_on_c, 1, 74, 127
1, 131860, Note_off_c, 1, 74, 0
1, 131862, Note_on_c, 1, 72, 127
1, 131862, Note_on_c, 1, 45, 127
1, 132008, Note_off_c, 1, 72, 0
1, 132008, Note_off_c, 1, 45, 0
1, 132010, Note_on_c, 1, 76, 127
1, 132010, Note_on_c, 1, 48, 127
1, 132156, Note_off_c, 1, 76, 0
1, 132156, Note_off_c, 1, 48, 0
1, 132158, Note_on_c, 1, 74, 127
1, 132158, Note_on_c, 1, 47, 127
1, 132304, Note_off_c, 1, 74, 0
1, 132304, Note_off_c, 1, 47, 0
1, 132306, Note_on_c, 1, 77, 127
1, 132306, Note_on_c, 1, 50, 127
1, 132452, Note_off_c, 1, 77, 0
1, 132452, Note_off_c, 1, 50, 0
1, 132454, Note_on_c, 1, 64, 127
1, 132454, Note_on_c, 1, 48, 127
1, 132454, Note_on_c, 1, 76, 127
1, 132600, Note_off_c, 1, 64, 0
1, 132600, Note_off_c, 1, 48, 0
1, 132602, Note_on_c, 1, 68, 127
1, 132602, Note_on_c, 1, 52, 127
1, 132748, Note_off_c, 1, 68, 0
1, 132748, Note_off_c, 1, 52, 0
1, 132750, Note_on_c, 1, 66, 127
1, 132750, Note_on_c, 1, 50, 127
1, 132896, Note_off_c, 1, 66, 0
1, 132896, Note_off_c, 1, 50, 0
1, 132898, Note_on_c, 1, 69, 127
1, 132898, Note_on_c, 1, 54, 127
1, 133044, Note_off_c, 1, 69, 0
1, 133044, Note_off_c, 1, 54, 0
1, 133194, Note_on_c, 1, 71, 127
1, 133194, Note_on_c, 1, 56, 127
1, 133340, Note_off_c, 1, 71, 0
1, 133340, Note_off_c, 1, 56, 0
1, 133490, Note_on_c, 1, 72, 127
1, 133490, Note_on_c, 1, 57, 127
1, 133636, Note_off_c, 1, 72, 0
1, 133636, Note_off_c, 1, 57, 0
1, 133786, Note_on_c, 1, 74, 127
1, 133786, Note_on_c, 1, 59, 127
1, 133932, Note_off_c, 1, 74, 0
1, 133932, Note_off_c, 1, 59, 0
1, 134968, Note_off_c, 1, 76, 0
1, 134970, Note_on_c, 1, 81, 127
1, 135116, Note_off_c, 1, 81, 0
1, 135266, Note_on_c, 1, 77, 127
1, 135413, Note_off_c, 1, 77, 0
1, 135415, Note_on_c, 1, 76, 127
1, 135415, Note_on_c, 1, 72, 127
1, 135561, Note_off_c, 1, 76, 0
1, 135563, Note_on_c, 1, 79, 127
1, 135709, Note_off_c, 1, 72, 0
1, 135709, Note_off_c, 1, 79, 0
1, 135711, Note_on_c, 1, 77, 127
1, 135711, Note_on_c, 1, 74, 127
1, 135857, Note_off_c, 1, 77, 0
1, 135859, Note_on_c, 1, 81, 127
1, 136005, Note_off_c, 1, 74, 0
1, 136005, Note_off_c, 1, 81, 0
1, 136007, Note_on_c, 1, 52, 127
1, 136007, Note_on_c, 1, 76, 127
1, 136007, Note_on_c, 1, 79, 127
1, 136153, Note_off_c, 1, 52, 0
1, 136155, Note_on_c, 1, 55, 127
1, 136301, Note_off_c, 1, 76, 0
1, 136301, Note_off_c, 1, 55, 0
1, 136303, Note_on_c, 1, 74, 127
1, 136303, Note_on_c, 1, 53, 127
1, 136449, Note_off_c, 1, 74, 0
1, 136449, Note_off_c, 1, 53, 0
1, 136451, Note_on_c, 1, 72, 127
1, 136451, Note_on_c, 1, 57, 127
1, 136597, Note_off_c, 1, 72, 0
1, 136597, Note_off_c, 1, 57, 0
1, 136599, Note_on_c, 1, 71, 127
1, 136745, Note_off_c, 1, 71, 0
1, 136747, Note_on_c, 1, 59, 127
1, 136893, Note_off_c, 1, 59, 0
1, 137043, Note_on_c, 1, 60, 127
1, 137189, Note_off_c, 1, 60, 0
1, 137339, Note_on_c, 1, 77, 127
1, 137339, Note_on_c, 1, 62, 127
1, 137485, Note_off_c, 1, 77, 0
1, 137485, Note_off_c, 1, 62, 0
1, 138523, Note_off_c, 1, 79, 0
1, 138525, Note_on_c, 1, 84, 127
1, 138823, Note_off_c, 1, 84, 0
1, 138825, Note_on_c, 1, 48, 127
1, 138973, Note_off_c, 1, 48, 0
1, 138975, Note_on_c, 1, 81, 127
1, 139423, Note_off_c, 1, 81, 0
1, 139425, Note_on_c, 1, 50, 127
1, 139573, Note_off_c, 1, 50, 0
1, 139725, Note_on_c, 1, 67, 127
1, 139873, Note_off_c, 1, 67, 0
1, 140475, Note_on_c, 1, 74, 127
1, 140475, Note_on_c, 1, 55, 127
1, 140475, Note_on_c, 1, 71, 127
1, 140623, Note_off_c, 1, 74, 0
1, 140623, Note_off_c, 1, 55, 0
1, 140625, Note_on_c, 1, 77, 127
1, 140625, Note_on_c, 1, 43, 127
1, 140771, Note_off_c, 1, 71, 0
1, 140773, Note_off_c, 1, 77, 0
1, 140773, Note_off_c, 1, 43, 0
1, 140775, Note_on_c, 1, 48, 127
1, 140775, Note_on_c, 1, 76, 127
1, 140923, Note_off_c, 1, 48, 0
1, 140925, Note_on_c, 1, 71, 127
1, 140925, Note_on_c, 1, 50, 127
1, 141073, Note_off_c, 1, 71, 0
1, 141073, Note_off_c, 1, 50, 0
1, 141075, Note_on_c, 1, 72, 127
1, 141075, Note_on_c, 1, 52, 127
1, 141223, Note_off_c, 1, 72, 0
1, 141223, Note_off_c, 1, 52, 0
1, 141225, Note_on_c, 1, 67, 127
1, 141373, Note_off_c, 1, 67, 0
1, 141375, Note_on_c, 1, 53, 127
1, 141375, Note_on_c, 1, 69, 127
1, 141523, Note_off_c, 1, 76, 0
1, 141523, Note_off_c, 1, 53, 0
1, 141525, Note_on_c, 1, 57, 127
1, 141673, Note_off_c, 1, 57, 0
1, 141675, Note_on_c, 1, 47, 127
1, 141675, Note_on_c, 1, 74, 127
1, 141823, Note_off_c, 1, 69, 0
1, 141823, Note_off_c, 1, 47, 0
1, 141825, Note_on_c, 1, 65, 127
1, 141973, Note_off_c, 1, 65, 0
1, 142123, Note_off_c, 1, 74, 0
1, 142125, Note_on_c, 1, 55, 127
1, 142273, Note_off_c, 1, 55, 0
1, 142275, Note_on_c, 1, 45, 127
1, 142423, Note_off_c, 1, 45, 0
1, 142425, Note_on_c, 1, 64, 127
1, 142573, Note_off_c, 1, 64, 0
1, 142725, Note_on_c, 1, 69, 127
1, 142725, Note_on_c, 1, 53, 127
1, 142873, Note_off_c, 1, 69, 0
1, 142873, Note_off_c, 1, 53, 0
1, 142875, Note_on_c, 1, 62, 127
1, 142875, Note_on_c, 1, 43, 127
1, 142875, Note_on_c, 1, 71, 127
1, 143023, Note_off_c, 1, 62, 0
1, 143023, Note_off_c, 1, 43, 0
1, 143025, Note_on_c, 1, 65, 127
1, 143025, Note_on_c, 1, 55, 127
1, 143173, Note_off_c, 1, 71, 0
1, 143173, Note_off_c, 1, 65, 0
1, 143173, Note_off_c, 1, 55, 0
1, 143175, Note_on_c, 1, 48, 127
1, 143175, Note_on_c, 1, 64, 127
1, 143175, Note_on_c, 1, 72, 127
1, 143323, Note_off_c, 1, 48, 0
1, 143325, Note_on_c, 1, 52, 127
1, 143473, Note_off_c, 1, 52, 0
1, 143612, Note_off_c, 1, 64, 0
1, 143623, Note_off_c, 1, 72, 0
1, 143625, Note_on_c, 1, 76, 127
1, 143625, Note_on_c, 1, 45, 127
1, 143773, Note_off_c, 1, 76, 0
1, 143773, Note_off_c, 1, 45, 0
1, 143775, Note_on_c, 1, 50, 127
1, 143775, Note_on_c, 1, 77, 127
1, 143923, Note_off_c, 1, 50, 0
1, 143925, Note_on_c, 1, 69, 127
1, 143925, Note_on_c, 1, 53, 127
1, 144073, Note_off_c, 1, 69, 0
1, 144073, Note_off_c, 1, 53, 0
1, 144075, Note_on_c, 1, 55, 127
1, 144075, Note_on_c, 1, 71, 127
1, 144223, Note_off_c, 1, 77, 0
1, 144223, Note_off_c, 1, 55, 0
1, 144225, Note_on_c, 1, 74, 127
1, 144225, Note_on_c, 1, 47, 127
1, 144373, Note_off_c, 1, 74, 0
1, 144373, Note_off_c, 1, 47, 0
1, 144375, Note_on_c, 1, 48, 127
1, 144375, Note_on_c, 1, 76, 127
1, 144523, Note_off_c, 1, 71, 0
1, 144523, Note_off_c, 1, 48, 0
1, 144525, Note_on_c, 1, 64, 127
1, 144525, Note_on_c, 1, 52, 127
1, 144673, Note_off_c, 1, 64, 0
1, 144673, Note_off_c, 1, 52, 0
1, 144823, Note_off_c, 1, 76, 0
1, 144825, Note_on_c, 1, 72, 127
1, 144825, Note_on_c, 1, 45, 127
1, 144973, Note_off_c, 1, 72, 0
1, 144973, Note_off_c, 1, 45, 0
1, 145275, Note_on_c, 1, 71, 127
1, 145275, Note_on_c, 1, 52, 127
1, 145275, Note_on_c, 1, 68, 127
1, 145423, Note_off_c, 1, 71, 0
1, 145423, Note_off_c, 1, 52, 0
1, 145425, Note_on_c, 1, 74, 127
1, 145425, Note_on_c, 1, 40, 127
1, 145571, Note_off_c, 1, 68, 0
1, 145573, Note_off_c, 1, 74, 0
1, 145573, Note_off_c, 1, 40, 0
1, 145575, Note_on_c, 1, 45, 127
1, 145575, Note_on_c, 1, 72, 127
1, 145723, Note_off_c, 1, 45, 0
1, 145725, Note_on_c, 1, 68, 127
1, 145725, Note_on_c, 1, 47, 127
1, 145873, Note_off_c, 1, 68, 0
1, 145873, Note_off_c, 1, 47, 0
1, 145875, Note_on_c, 1, 69, 127
1, 145875, Note_on_c, 1, 48, 127
1, 146023, Note_off_c, 1, 69, 0
1, 146023, Note_off_c, 1, 48, 0
1, 146025, Note_on_c, 1, 64, 127
1, 146173, Note_off_c, 1, 64, 0
1, 146175, Note_on_c, 1, 50, 127
1, 146175, Note_on_c, 1, 65, 127
1, 146323, Note_off_c, 1, 72, 0
1, 146323, Note_off_c, 1, 50, 0
1, 146325, Note_on_c, 1, 53, 127
1, 146473, Note_off_c, 1, 53, 0
1, 146475, Note_on_c, 1, 43, 127
1, 146475, Note_on_c, 1, 71, 127
1, 146623, Note_off_c, 1, 65, 0
1, 146623, Note_off_c, 1, 43, 0
1, 146625, Note_on_c, 1, 62, 127
1, 146773, Note_off_c, 1, 62, 0
1, 146923, Note_off_c, 1, 71, 0
1, 146925, Note_on_c, 1, 52, 127
1, 147073, Note_off_c, 1, 52, 0
1, 147075, Note_on_c, 1, 41, 127
1, 147223, Note_off_c, 1, 41, 0
1, 147225, Note_on_c, 1, 60, 127
1, 147373, Note_off_c, 1, 60, 0
1, 147675, Note_on_c, 1, 59, 127
1, 147675, Note_on_c, 1, 40, 127
1, 147675, Note_on_c, 1, 68, 127
1, 147823, Note_off_c, 1, 59, 0
1, 147823, Note_off_c, 1, 40, 0
1, 147825, Note_on_c, 1, 62, 127
1, 147825, Note_on_c, 1, 52, 127
1, 147973, Note_off_c, 1, 68, 0
1, 147973, Note_off_c, 1, 62, 0
1, 147973, Note_off_c, 1, 52, 0
1, 147975, Note_on_c, 1, 45, 127
1, 147975, Note_on_c, 1, 69, 127
1, 147975, Note_on_c, 1, 60, 127
1, 148269, Note_off_c, 1, 45, 0
1, 148271, Note_on_c, 1, 48, 127
1, 148271, Note_on_c, 1, 57, 127
1, 148417, Note_off_c, 1, 48, 0
1, 148419, Note_on_c, 1, 47, 127
1, 148561, Note_off_c, 1, 69, 0
1, 148561, Note_off_c, 1, 60, 0
1, 148566, Note_off_c, 1, 57, 0
1, 148566, Note_off_c, 1, 47, 0
1, 148568, Note_on_c, 1, 45, 127
1, 148568, Note_on_c, 1, 57, 127
1, 148714, Note_off_c, 1, 45, 0
1, 148716, Note_on_c, 1, 44, 127
1, 148862, Note_off_c, 1, 57, 0
1, 148862, Note_off_c, 1, 44, 0
1, 148864, Note_on_c, 1, 42, 127
1, 148864, Note_on_c, 1, 57, 127
1, 149010, Note_off_c, 1, 42, 0
1, 149012, Note_on_c, 1, 40, 127
1, 149158, Note_off_c, 1, 57, 0
1, 149158, Note_off_c, 1, 40, 0
1, 149160, Note_on_c, 1, 57, 127
1, 149160, Note_on_c, 1, 47, 127
1, 149306, Note_off_c, 1, 57, 0
1, 149308, Note_on_c, 1, 60, 127
1, 149454, Note_off_c, 1, 47, 0
1, 149454, Note_off_c, 1, 60, 0
1, 149456, Note_on_c, 1, 59, 127
1, 149456, Note_on_c, 1, 39, 127
1, 149602, Note_off_c, 1, 59, 0
1, 149604, Note_on_c, 1, 57, 127
1, 149750, Note_off_c, 1, 39, 0
1, 149750, Note_off_c, 1, 57, 0
1, 149752, Note_on_c, 1, 55, 127
1, 149752, Note_on_c, 1, 40, 127
1, 149898, Note_off_c, 1, 55, 0
1, 149898, Note_off_c, 1, 40, 0
1, 149900, Note_on_c, 1, 57, 127
1, 149900, Note_on_c, 1, 39, 127
1, 150046, Note_off_c, 1, 57, 0
1, 150046, Note_off_c, 1, 39, 0
1, 150048, Note_on_c, 1, 55, 127
1, 150048, Note_on_c, 1, 40, 127
1, 150194, Note_off_c, 1, 55, 0
1, 150194, Note_off_c, 1, 40, 0
1, 150196, Note_on_c, 1, 54, 127
1, 150196, Note_on_c, 1, 42, 127
1, 150342, Note_off_c, 1, 54, 0
1, 150342, Note_off_c, 1, 42, 0
1, 150344, Note_on_c, 1, 40, 127
1, 150344, Note_on_c, 1, 52, 127
1, 150490, Note_off_c, 1, 40, 0
1, 150492, Note_on_c, 1, 54, 127
1, 150638, Note_off_c, 1, 52, 0
1, 150638, Note_off_c, 1, 54, 0
1, 150640, Note_on_c, 1, 52, 127
1, 150640, Note_on_c, 1, 60, 127
1, 150786, Note_off_c, 1, 52, 0
1, 150788, Note_on_c, 1, 51, 127
1, 150934, Note_off_c, 1, 60, 0
1, 150934, Note_off_c, 1, 51, 0
1, 150936, Note_on_c, 1, 60, 127
1, 150936, Note_on_c, 1, 52, 127
1, 151082, Note_off_c, 1, 60, 0
1, 151084, Note_on_c, 1, 62, 127
1, 151230, Note_off_c, 1, 52, 0
1, 151230, Note_off_c, 1, 62, 0
1, 151232, Note_on_c, 1, 60, 127
1, 151232, Note_on_c, 1, 57, 127
1, 151378, Note_off_c, 1, 60, 0
1, 151380, Note_on_c, 1, 62, 127
1, 151526, Note_off_c, 1, 62, 0
1, 151528, Note_on_c, 1, 59, 127
1, 151674, Note_off_c, 1, 57, 0
1, 151822, Note_off_c, 1, 59, 0
1, 151824, Note_on_c, 1, 55, 127
1, 151824, Note_on_c, 1, 64, 127
1, 151970, Note_off_c, 1, 55, 0
1, 151972, Note_on_c, 1, 54, 127
1, 152118, Note_off_c, 1, 64, 0
1, 152118, Note_off_c, 1, 54, 0
1, 152120, Note_on_c, 1, 64, 127
1, 152120, Note_on_c, 1, 55, 127
1, 152266, Note_off_c, 1, 64, 0
1, 152268, Note_on_c, 1, 65, 127
1, 152414, Note_off_c, 1, 55, 0
1, 152414, Note_off_c, 1, 65, 0
1, 152416, Note_on_c, 1, 64, 127
1, 152416, Note_on_c, 1, 60, 127
1, 152562, Note_off_c, 1, 64, 0
1, 152564, Note_on_c, 1, 65, 127
1, 152710, Note_off_c, 1, 60, 0
1, 152710, Note_off_c, 1, 65, 0
1, 152712, Note_on_c, 1, 62, 127
1, 152712, Note_on_c, 1, 54, 127
1, 152858, Note_off_c, 1, 62, 0
1, 152860, Note_on_c, 1, 64, 127
1, 153006, Note_off_c, 1, 54, 0
1, 153006, Note_off_c, 1, 64, 0
1, 153008, Note_on_c, 1, 62, 127
1, 153008, Note_on_c, 1, 59, 127
1, 153154, Note_off_c, 1, 62, 0
1, 153156, Note_on_c, 1, 64, 127
1, 153302, Note_off_c, 1, 64, 0
1, 153304, Note_on_c, 1, 60, 127
1, 153450, Note_off_c, 1, 60, 0
1, 153598, Note_off_c, 1, 59, 0
1, 153600, Note_on_c, 1, 60, 127
1, 153600, Note_on_c, 1, 57, 127
1, 153746, Note_off_c, 1, 60, 0
1, 153748, Note_on_c, 1, 62, 127
1, 153894, Note_off_c, 1, 57, 0
1, 153894, Note_off_c, 1, 62, 0
1, 153896, Note_on_c, 1, 59, 127
1, 153896, Note_on_c, 1, 50, 127
1, 154042, Note_off_c, 1, 59, 0
1, 154044, Note_on_c, 1, 60, 127
1, 154173, Note_off_c, 1, 50, 0
1, 154190, Note_off_c, 1, 60, 0
1, 154192, Note_on_c, 1, 59, 127
1, 154192, Note_on_c, 1, 55, 127
1, 154338, Note_off_c, 1, 59, 0
1, 154340, Note_on_c, 1, 60, 127
1, 154486, Note_off_c, 1, 60, 0
1, 154488, Note_on_c, 1, 57, 127
1, 154634, Note_off_c, 1, 57, 0
1, 154782, Note_off_c, 1, 55, 0
1, 154784, Note_on_c, 1, 57, 127
1, 154784, Note_on_c, 1, 54, 127
1, 154930, Note_off_c, 1, 57, 0
1, 154932, Note_on_c, 1, 59, 127
1, 155078, Note_off_c, 1, 54, 0
1, 155078, Note_off_c, 1, 59, 0
1, 155080, Note_on_c, 1, 55, 127
1, 155080, Note_on_c, 1, 47, 127
1, 155226, Note_off_c, 1, 55, 0
1, 155228, Note_on_c, 1, 57, 127
1, 155357, Note_off_c, 1, 47, 0
1, 155374, Note_off_c, 1, 57, 0
1, 155376, Note_on_c, 1, 55, 127
1, 155376, Note_on_c, 1, 52, 127
1, 155522, Note_off_c, 1, 55, 0
1, 155524, Note_on_c, 1, 57, 127
1, 155670, Note_off_c, 1, 57, 0
1, 155672, Note_on_c, 1, 54, 127
1, 155818, Note_off_c, 1, 54, 0
1, 155966, Note_off_c, 1, 52, 0
1, 155968, Note_on_c, 1, 54, 127
1, 155968, Note_on_c, 1, 51, 127
1, 156114, Note_off_c, 1, 54, 0
1, 156116, Note_on_c, 1, 55, 127
1, 156262, Note_off_c, 1, 51, 0
1, 156262, Note_off_c, 1, 55, 0
1, 156264, Note_on_c, 1, 52, 127
1, 156412, Note_on_c, 1, 55, 127
1, 156557, Note_off_c, 1, 52, 0
1, 156559, Note_off_c, 1, 55, 0
1, 156561, Note_on_c, 1, 54, 127
1, 156707, Note_off_c, 1, 54, 0
1, 156709, Note_on_c, 1, 57, 127
1, 156855, Note_off_c, 1, 57, 0
1, 156857, Note_on_c, 1, 55, 127
1, 156857, Note_on_c, 1, 40, 127
1, 157003, Note_off_c, 1, 55, 0
1, 157003, Note_off_c, 1, 40, 0
1, 157005, Note_on_c, 1, 59, 127
1, 157005, Note_on_c, 1, 43, 127
1, 157151, Note_off_c, 1, 59, 0
1, 157151, Note_off_c, 1, 43, 0
1, 157153, Note_on_c, 1, 57, 127
1, 157153, Note_on_c, 1, 42, 127
1, 157299, Note_off_c, 1, 57, 0
1, 157299, Note_off_c, 1, 42, 0
1, 157301, Note_on_c, 1, 60, 127
1, 157301, Note_on_c, 1, 45, 127
1, 157447, Note_off_c, 1, 60, 0
1, 157447, Note_off_c, 1, 45, 0
1, 157449, Note_on_c, 1, 59, 127
1, 157449, Note_on_c, 1, 43, 127
1, 157595, Note_off_c, 1, 59, 0
1, 157595, Note_off_c, 1, 43, 0
1, 157597, Note_on_c, 1, 55, 127
1, 157597, Note_on_c, 1, 47, 127
1, 157743, Note_off_c, 1, 55, 0
1, 157743, Note_off_c, 1, 47, 0
1, 157745, Note_on_c, 1, 54, 127
1, 157745, Note_on_c, 1, 45, 127
1, 157891, Note_off_c, 1, 54, 0
1, 157891, Note_off_c, 1, 45, 0
1, 157893, Note_on_c, 1, 57, 127
1, 157893, Note_on_c, 1, 48, 127
1, 158039, Note_off_c, 1, 57, 0
1, 158039, Note_off_c, 1, 48, 0
1, 158041, Note_on_c, 1, 55, 127
1, 158041, Note_on_c, 1, 47, 127
1, 158187, Note_off_c, 1, 55, 0
1, 158187, Note_off_c, 1, 47, 0
1, 158189, Note_on_c, 1, 59, 127
1, 158189, Note_on_c, 1, 43, 127
1, 158335, Note_off_c, 1, 59, 0
1, 158335, Note_off_c, 1, 43, 0
1, 158337, Note_on_c, 1, 57, 127
1, 158337, Note_on_c, 1, 42, 127
1, 158483, Note_off_c, 1, 57, 0
1, 158483, Note_off_c, 1, 42, 0
1, 158485, Note_on_c, 1, 60, 127
1, 158485, Note_on_c, 1, 45, 127
1, 158631, Note_off_c, 1, 60, 0
1, 158631, Note_off_c, 1, 45, 0
1, 158633, Note_on_c, 1, 59, 127
1, 158633, Note_on_c, 1, 43, 127
1, 158779, Note_off_c, 1, 59, 0
1, 158779, Note_off_c, 1, 43, 0
1, 158781, Note_on_c, 1, 62, 127
1, 158781, Note_on_c, 1, 47, 127
1, 158927, Note_off_c, 1, 62, 0
1, 158927, Note_off_c, 1, 47, 0
1, 158929, Note_on_c, 1, 60, 127
1, 158929, Note_on_c, 1, 45, 127
1, 159075, Note_off_c, 1, 60, 0
1, 159075, Note_off_c, 1, 45, 0
1, 159077, Note_on_c, 1, 64, 127
1, 159077, Note_on_c, 1, 48, 127
1, 159223, Note_off_c, 1, 64, 0
1, 159223, Note_off_c, 1, 48, 0
1, 159225, Note_on_c, 1, 62, 127
1, 159225, Note_on_c, 1, 47, 127
1, 159371, Note_off_c, 1, 62, 0
1, 159371, Note_off_c, 1, 47, 0
1, 159373, Note_on_c, 1, 59, 127
1, 159373, Note_on_c, 1, 50, 127
1, 159519, Note_off_c, 1, 59, 0
1, 159519, Note_off_c, 1, 50, 0
1, 159521, Note_on_c, 1, 57, 127
1, 159521, Note_on_c, 1, 48, 127
1, 159667, Note_off_c, 1, 57, 0
1, 159667, Note_off_c, 1, 48, 0
1, 159669, Note_on_c, 1, 60, 127
1, 159669, Note_on_c, 1, 52, 127
1, 159815, Note_off_c, 1, 60, 0
1, 159815, Note_off_c, 1, 52, 0
1, 159817, Note_on_c, 1, 59, 127
1, 159817, Note_on_c, 1, 50, 127
1, 159963, Note_off_c, 1, 59, 0
1, 159963, Note_off_c, 1, 50, 0
1, 159965, Note_on_c, 1, 62, 127
1, 159965, Note_on_c, 1, 47, 127
1, 160111, Note_off_c, 1, 62, 0
1, 160111, Note_off_c, 1, 47, 0
1, 160113, Note_on_c, 1, 60, 127
1, 160113, Note_on_c, 1, 45, 127
1, 160259, Note_off_c, 1, 60, 0
1, 160259, Note_off_c, 1, 45, 0
1, 160261, Note_on_c, 1, 64, 127
1, 160261, Note_on_c, 1, 48, 127
1, 160407, Note_off_c, 1, 64, 0
1, 160407, Note_off_c, 1, 48, 0
1, 160409, Note_on_c, 1, 62, 127
1, 160409, Note_on_c, 1, 47, 127
1, 160555, Note_off_c, 1, 62, 0
1, 160555, Note_off_c, 1, 47, 0
1, 160557, Note_on_c, 1, 65, 127
1, 160557, Note_on_c, 1, 50, 127
1, 160703, Note_off_c, 1, 65, 0
1, 160703, Note_off_c, 1, 50, 0
1, 160705, Note_on_c, 1, 64, 127
1, 160705, Note_on_c, 1, 49, 127
1, 160851, Note_off_c, 1, 64, 0
1, 160851, Note_off_c, 1, 49, 0
1, 160853, Note_on_c, 1, 67, 127
1, 160853, Note_on_c, 1, 52, 127
1, 160999, Note_off_c, 1, 67, 0
1, 160999, Note_off_c, 1, 52, 0
1, 161001, Note_on_c, 1, 65, 127
1, 161001, Note_on_c, 1, 50, 127
1, 161147, Note_off_c, 1, 65, 0
1, 161147, Note_off_c, 1, 50, 0
1, 161149, Note_on_c, 1, 62, 127
1, 161149, Note_on_c, 1, 53, 127
1, 161295, Note_off_c, 1, 62, 0
1, 161295, Note_off_c, 1, 53, 0
1, 161297, Note_on_c, 1, 61, 127
1, 161297, Note_on_c, 1, 52, 127
1, 161443, Note_off_c, 1, 61, 0
1, 161443, Note_off_c, 1, 52, 0
1, 161445, Note_on_c, 1, 64, 127
1, 161445, Note_on_c, 1, 55, 127
1, 161591, Note_off_c, 1, 64, 0
1, 161591, Note_off_c, 1, 55, 0
1, 161593, Note_on_c, 1, 62, 127
1, 161593, Note_on_c, 1, 53, 127
1, 161739, Note_off_c, 1, 62, 0
1, 161739, Note_off_c, 1, 53, 0
1, 161741, Note_on_c, 1, 65, 127
1, 161741, Note_on_c, 1, 50, 127
1, 161887, Note_off_c, 1, 65, 0
1, 161887, Note_off_c, 1, 50, 0
1, 161889, Note_on_c, 1, 64, 127
1, 161889, Note_on_c, 1, 49, 127
1, 162035, Note_off_c, 1, 64, 0
1, 162035, Note_off_c, 1, 49, 0
1, 162037, Note_on_c, 1, 67, 127
1, 162037, Note_on_c, 1, 52, 127
1, 162183, Note_off_c, 1, 67, 0
1, 162183, Note_off_c, 1, 52, 0
1, 162185, Note_on_c, 1, 66, 127
1, 162185, Note_on_c, 1, 50, 127
1, 162331, Note_off_c, 1, 66, 0
1, 162331, Note_off_c, 1, 50, 0
1, 162333, Note_on_c, 1, 69, 127
1, 162333, Note_on_c, 1, 54, 127
1, 162479, Note_off_c, 1, 69, 0
1, 162479, Note_off_c, 1, 54, 0
1, 162481, Note_on_c, 1, 68, 127
1, 162481, Note_on_c, 1, 52, 127
1, 162627, Note_off_c, 1, 68, 0
1, 162627, Note_off_c, 1, 52, 0
1, 162629, Note_on_c, 1, 71, 127
1, 162629, Note_on_c, 1, 56, 127
1, 162775, Note_off_c, 1, 71, 0
1, 162775, Note_off_c, 1, 56, 0
1, 162777, Note_on_c, 1, 69, 127
1, 162777, Note_on_c, 1, 54, 127
1, 162923, Note_off_c, 1, 69, 0
1, 162923, Note_off_c, 1, 54, 0
1, 162925, Note_on_c, 1, 72, 127
1, 162925, Note_on_c, 1, 57, 127
1, 163071, Note_off_c, 1, 72, 0
1, 163071, Note_off_c, 1, 57, 0
1, 163073, Note_on_c, 1, 71, 127
1, 163073, Note_on_c, 1, 56, 127
1, 163219, Note_off_c, 1, 71, 0
1, 163219, Note_off_c, 1, 56, 0
1, 163221, Note_on_c, 1, 74, 127
1, 163221, Note_on_c, 1, 59, 127
1, 163367, Note_off_c, 1, 74, 0
1, 163367, Note_off_c, 1, 59, 0
1, 163369, Note_on_c, 1, 72, 127
1, 163369, Note_on_c, 1, 57, 127
1, 163515, Note_off_c, 1, 72, 0
1, 163515, Note_off_c, 1, 57, 0
1, 163517, Note_on_c, 1, 69, 127
1, 163517, Note_on_c, 1, 60, 127
1, 163663, Note_off_c, 1, 69, 0
1, 163663, Note_off_c, 1, 60, 0
1, 163665, Note_on_c, 1, 68, 127
1, 163665, Note_on_c, 1, 59, 127
1, 163811, Note_off_c, 1, 68, 0
1, 163811, Note_off_c, 1, 59, 0
1, 163813, Note_on_c, 1, 71, 127
1, 163813, Note_on_c, 1, 62, 127
1, 163959, Note_off_c, 1, 71, 0
1, 163959, Note_off_c, 1, 62, 0
1, 163961, Note_on_c, 1, 69, 127
1, 163961, Note_on_c, 1, 60, 127
1, 164107, Note_off_c, 1, 69, 0
1, 164107, Note_off_c, 1, 60, 0
1, 164109, Note_on_c, 1, 65, 127
1, 164109, Note_on_c, 1, 57, 127
1, 164255, Note_off_c, 1, 65, 0
1, 164255, Note_off_c, 1, 57, 0
1, 164257, Note_on_c, 1, 64, 127
1, 164257, Note_on_c, 1, 56, 127
1, 164403, Note_off_c, 1, 64, 0
1, 164403, Note_off_c, 1, 56, 0
1, 164405, Note_on_c, 1, 62, 127
1, 164405, Note_on_c, 1, 59, 127
1, 164551, Note_off_c, 1, 62, 0
1, 164551, Note_off_c, 1, 59, 0
1, 164553, Note_on_c, 1, 60, 127
1, 164553, Note_on_c, 1, 57, 127
1, 164699, Note_off_c, 1, 60, 0
1, 164701, Note_on_c, 1, 59, 127
1, 164847, Note_off_c, 1, 57, 0
1, 164847, Note_off_c, 1, 59, 0
1, 164849, Note_on_c, 1, 60, 127
1, 164849, Note_on_c, 1, 52, 127
1, 164995, Note_off_c, 1, 60, 0
1, 164997, Note_on_c, 1, 62, 127
1, 165143, Note_off_c, 1, 52, 0
1, 165143, Note_off_c, 1, 62, 0
1, 165145, Note_on_c, 1, 64, 127
1, 165145, Note_on_c, 1, 52, 127
1, 165291, Note_off_c, 1, 64, 0
1, 165293, Note_on_c, 1, 60, 127
1, 165439, Note_off_c, 1, 52, 0
1, 165439, Note_off_c, 1, 60, 0
1, 165441, Note_on_c, 1, 59, 127
1, 165441, Note_on_c, 1, 52, 127
1, 165587, Note_off_c, 1, 59, 0
1, 165589, Note_on_c, 1, 57, 127
1, 165735, Note_off_c, 1, 52, 0
1, 165735, Note_off_c, 1, 57, 0
1, 165737, Note_on_c, 1, 56, 127
1, 165737, Note_on_c, 1, 52, 127
1, 165883, Note_off_c, 1, 56, 0
1, 165883, Note_off_c, 1, 52, 0
1, 165885, Note_on_c, 1, 57, 127
1, 165885, Note_on_c, 1, 53, 127
1, 166031, Note_off_c, 1, 57, 0
1, 166031, Note_off_c, 1, 53, 0
1, 166033, Note_on_c, 1, 56, 127
1, 166033, Note_on_c, 1, 52, 127
1, 166179, Note_off_c, 1, 56, 0
1, 166179, Note_off_c, 1, 52, 0
1, 166181, Note_on_c, 1, 57, 127
1, 166181, Note_on_c, 1, 50, 127
1, 166327, Note_off_c, 1, 57, 0
1, 166327, Note_off_c, 1, 50, 0
1, 166329, Note_on_c, 1, 59, 127
1, 166329, Note_on_c, 1, 48, 127
1, 166475, Note_off_c, 1, 59, 0
1, 166475, Note_off_c, 1, 48, 0
1, 166477, Note_on_c, 1, 56, 127
1, 166477, Note_on_c, 1, 50, 127
1, 166623, Note_off_c, 1, 56, 0
1, 166623, Note_off_c, 1, 50, 0
1, 166625, Note_on_c, 1, 57, 127
1, 166625, Note_on_c, 1, 48, 127
1, 166771, Note_off_c, 1, 57, 0
1, 166771, Note_off_c, 1, 48, 0
1, 166773, Note_on_c, 1, 59, 127
1, 166773, Note_on_c, 1, 47, 127
1, 166919, Note_off_c, 1, 59, 0
1, 166919, Note_off_c, 1, 47, 0
1, 166921, Note_on_c, 1, 60, 127
1, 166921, Note_on_c, 1, 45, 127
1, 167067, Note_off_c, 1, 60, 0
1, 167069, Note_on_c, 1, 59, 127
1, 167215, Note_off_c, 1, 45, 0
1, 167215, Note_off_c, 1, 59, 0
1, 167217, Note_on_c, 1, 57, 127
1, 167217, Note_on_c, 1, 53, 127
1, 167363, Note_off_c, 1, 57, 0
1, 167365, Note_on_c, 1, 56, 127
1, 167511, Note_off_c, 1, 53, 0
1, 167511, Note_off_c, 1, 56, 0
1, 167513, Note_on_c, 1, 53, 127
1, 167513, Note_on_c, 1, 57, 127
1, 167659, Note_off_c, 1, 53, 0
1, 167661, Note_on_c, 1, 55, 127
1, 167807, Note_off_c, 1, 57, 0
1, 167807, Note_off_c, 1, 55, 0
1, 167809, Note_on_c, 1, 53, 127
1, 167809, Note_on_c, 1, 62, 127
1, 167955, Note_off_c, 1, 53, 0
1, 167957, Note_on_c, 1, 55, 127
1, 168103, Note_off_c, 1, 55, 0
1, 168105, Note_on_c, 1, 52, 127
1, 168251, Note_off_c, 1, 62, 0
1, 168399, Note_off_c, 1, 52, 0
1, 168401, Note_on_c, 1, 60, 127
1, 168401, Note_on_c, 1, 57, 127
1, 168547, Note_off_c, 1, 60, 0
1, 168549, Note_on_c, 1, 59, 127
1, 168695, Note_off_c, 1, 57, 0
1, 168695, Note_off_c, 1, 59, 0
1, 168697, Note_on_c, 1, 57, 127
1, 168697, Note_on_c, 1, 60, 127
1, 168843, Note_off_c, 1, 57, 0
1, 168845, Note_on_c, 1, 59, 127
1, 168991, Note_off_c, 1, 60, 0
1, 168991, Note_off_c, 1, 59, 0
1, 168993, Note_on_c, 1, 57, 127
1, 168993, Note_on_c, 1, 65, 127
1, 169139, Note_off_c, 1, 57, 0
1, 169141, Note_on_c, 1, 59, 127
1, 169287, Note_off_c, 1, 65, 0
1, 169287, Note_off_c, 1, 59, 0
1, 169289, Note_on_c, 1, 55, 127
1, 169289, Note_on_c, 1, 59, 127
1, 169435, Note_off_c, 1, 55, 0
1, 169437, Note_on_c, 1, 57, 127
1, 169566, Note_off_c, 1, 59, 0
1, 169583, Note_off_c, 1, 57, 0
1, 169585, Note_on_c, 1, 55, 127
1, 169585, Note_on_c, 1, 64, 127
1, 169731, Note_off_c, 1, 55, 0
1, 169733, Note_on_c, 1, 57, 127
1, 169879, Note_off_c, 1, 57, 0
1, 169881, Note_on_c, 1, 53, 127
1, 170027, Note_off_c, 1, 53, 0
1, 170175, Note_off_c, 1, 64, 0
1, 170177, Note_on_c, 1, 53, 127
1, 170177, Note_on_c, 1, 62, 127
1, 170323, Note_off_c, 1, 53, 0
1, 170325, Note_on_c, 1, 55, 127
1, 170471, Note_off_c, 1, 62, 0
1, 170471, Note_off_c, 1, 55, 0
1, 170473, Note_on_c, 1, 52, 127
1, 170473, Note_on_c, 1, 55, 127
1, 170619, Note_off_c, 1, 52, 0
1, 170621, Note_on_c, 1, 53, 127
1, 170750, Note_off_c, 1, 55, 0
1, 170767, Note_off_c, 1, 53, 0
1, 170769, Note_on_c, 1, 52, 127
1, 170769, Note_on_c, 1, 60, 127
1, 170915, Note_off_c, 1, 52, 0
1, 170917, Note_on_c, 1, 53, 127
1, 171063, Note_off_c, 1, 53, 0
1, 171065, Note_on_c, 1, 50, 127
1, 171211, Note_off_c, 1, 50, 0
1, 171359, Note_off_c, 1, 60, 0
1, 171361, Note_on_c, 1, 50, 127
1, 171361, Note_on_c, 1, 59, 127
1, 171507, Note_off_c, 1, 50, 0
1, 171509, Note_on_c, 1, 52, 127
1, 171655, Note_off_c, 1, 59, 0
1, 171655, Note_off_c, 1, 52, 0
1, 171657, Note_on_c, 1, 48, 127
1, 171657, Note_on_c, 1, 52, 127
1, 171803, Note_off_c, 1, 48, 0
1, 171805, Note_on_c, 1, 50, 127
1, 171934, Note_off_c, 1, 52, 0
1, 171951, Note_off_c, 1, 50, 0
1, 171953, Note_on_c, 1, 48, 127
1, 171953, Note_on_c, 1, 57, 127
1, 172099, Note_off_c, 1, 48, 0
1, 172101, Note_on_c, 1, 50, 127
1, 172247, Note_off_c, 1, 50, 0
1, 172249, Note_on_c, 1, 47, 127
1, 172395, Note_off_c, 1, 47, 0
1, 172543, Note_off_c, 1, 57, 0
1, 172545, Note_on_c, 1, 47, 127
1, 172545, Note_on_c, 1, 56, 127
1, 172691, Note_off_c, 1, 47, 0
1, 172693, Note_on_c, 1, 48, 127
1, 172839, Note_off_c, 1, 56, 0
1, 172839, Note_off_c, 1, 48, 0
1, 172841, Note_on_c, 1, 45, 127
1, 172841, Note_on_c, 1, 57, 127
1, 172987, Note_off_c, 1, 45, 0
1, 172989, Note_on_c, 1, 48, 127
1, 173135, Note_off_c, 1, 48, 0
1, 173137, Note_on_c, 1, 47, 127
1, 173272, Note_off_c, 1, 57, 0
1, 173283, Note_off_c, 1, 47, 0
1, 173285, Note_on_c, 1, 50, 127
1, 173431, Note_off_c, 1, 50, 0
1, 173433, Note_on_c, 1, 57, 127
1, 173433, Note_on_c, 1, 48, 127
1, 173579, Note_off_c, 1, 57, 0
1, 173579, Note_off_c, 1, 48, 0
1, 173581, Note_on_c, 1, 60, 127
1, 173581, Note_on_c, 1, 52, 127
1, 173727, Note_off_c, 1, 60, 0
1, 173727, Note_off_c, 1, 52, 0
1, 173729, Note_on_c, 1, 59, 127
1, 173729, Note_on_c, 1, 50, 127
1, 173875, Note_off_c, 1, 59, 0
1, 173875, Note_off_c, 1, 50, 0
1, 173877, Note_on_c, 1, 62, 127
1, 173877, Note_on_c, 1, 53, 127
1, 174023, Note_off_c, 1, 62, 0
1, 174023, Note_off_c, 1, 53, 0
1, 174025, Note_on_c, 1, 60, 127
1, 174025, Note_on_c, 1, 52, 127
1, 174171, Note_off_c, 1, 60, 0
1, 174171, Note_off_c, 1, 52, 0
1, 174173, Note_on_c, 1, 64, 127
1, 174173, Note_on_c, 1, 48, 127
1, 174319, Note_off_c, 1, 64, 0
1, 174319, Note_off_c, 1, 48, 0
1, 174321, Note_on_c, 1, 62, 127
1, 174321, Note_on_c, 1, 50, 127
1, 174467, Note_off_c, 1, 62, 0
1, 174467, Note_off_c, 1, 50, 0
1, 174469, Note_on_c, 1, 65, 127
1, 174469, Note_on_c, 1, 47, 127
1, 174615, Note_off_c, 1, 65, 0
1, 174615, Note_off_c, 1, 47, 0
1, 174617, Note_on_c, 1, 64, 127
1, 174617, Note_on_c, 1, 48, 127
1, 174763, Note_off_c, 1, 64, 0
1, 174763, Note_off_c, 1, 48, 0
1, 174765, Note_on_c, 1, 60, 127
1, 174765, Note_on_c, 1, 45, 127
1, 174911, Note_off_c, 1, 60, 0
1, 174911, Note_off_c, 1, 45, 0
1, 174913, Note_on_c, 1, 62, 127
1, 174913, Note_on_c, 1, 47, 127
1, 175059, Note_off_c, 1, 62, 0
1, 175059, Note_off_c, 1, 47, 0
1, 175061, Note_on_c, 1, 59, 127
1, 175061, Note_on_c, 1, 44, 127
1, 175207, Note_off_c, 1, 59, 0
1, 175207, Note_off_c, 1, 44, 0
1, 175209, Note_on_c, 1, 45, 127
1, 175209, Note_on_c, 1, 60, 127
1, 175355, Note_off_c, 1, 45, 0
1, 175357, Note_on_c, 1, 47, 127
1, 175503, Note_off_c, 1, 60, 0
1, 175503, Note_off_c, 1, 47, 0
1, 175505, Note_on_c, 1, 48, 127
1, 175505, Note_on_c, 1, 69, 127
1, 175505, Note_on_c, 1, 64, 127
1, 175651, Note_off_c, 1, 48, 0
1, 175653, Note_on_c, 1, 47, 127
1, 175799, Note_off_c, 1, 69, 0
1, 175799, Note_off_c, 1, 64, 0
1, 175799, Note_off_c, 1, 47, 0
1, 175801, Note_on_c, 1, 45, 127
1, 175801, Note_on_c, 1, 69, 127
1, 175801, Note_on_c, 1, 66, 127
1, 175947, Note_off_c, 1, 45, 0
1, 175949, Note_on_c, 1, 43, 127
1, 176095, Note_off_c, 1, 69, 0
1, 176095, Note_off_c, 1, 66, 0
1, 176095, Note_off_c, 1, 43, 0
1, 176097, Note_on_c, 1, 42, 127
1, 176097, Note_on_c, 1, 69, 127
1, 176097, Note_on_c, 1, 67, 127
1, 176243, Note_off_c, 1, 42, 0
1, 176245, Note_on_c, 1, 40, 127
1, 176391, Note_off_c, 1, 69, 0
1, 176391, Note_off_c, 1, 67, 0
1, 176391, Note_off_c, 1, 40, 0
1, 176393, Note_on_c, 1, 69, 127
1, 176393, Note_on_c, 1, 63, 127
1, 176393, Note_on_c, 1, 47, 127
1, 176539, Note_off_c, 1, 69, 0
1, 176541, Note_on_c, 1, 72, 127
1, 176687, Note_off_c, 1, 63, 0
1, 176687, Note_off_c, 1, 72, 0
1, 176689, Note_on_c, 1, 71, 127
1, 176689, Note_on_c, 1, 51, 127
1, 176835, Note_off_c, 1, 71, 0
1, 176983, Note_off_c, 1, 51, 0
1, 176985, Note_on_c, 1, 67, 127
1, 176985, Note_on_c, 1, 52, 127
1, 177131, Note_off_c, 1, 67, 0
1, 177131, Note_off_c, 1, 52, 0
1, 177429, Note_on_c, 1, 66, 127
1, 177429, Note_on_c, 1, 54, 127
1, 177575, Note_off_c, 1, 66, 0
1, 177575, Note_off_c, 1, 54, 0
1, 177577, Note_on_c, 1, 55, 127
1, 177577, Note_on_c, 1, 64, 127
1, 177723, Note_off_c, 1, 55, 0
1, 177871, Note_off_c, 1, 64, 0
1, 178167, Note_off_c, 1, 47, 0
1, 178169, Note_on_c, 1, 72, 127
1, 178169, Note_on_c, 1, 52, 127
1, 178169, Note_on_c, 1, 45, 127
1, 178315, Note_off_c, 1, 72, 0
1, 178317, Note_on_c, 1, 74, 127
1, 178463, Note_off_c, 1, 52, 0
1, 178463, Note_off_c, 1, 74, 0
1, 178465, Note_on_c, 1, 57, 127
1, 178759, Note_off_c, 1, 45, 0
1, 178761, Note_on_c, 1, 71, 127
1, 178907, Note_off_c, 1, 57, 0
1, 179055, Note_off_c, 1, 71, 0
1, 179057, Note_on_c, 1, 55, 127
1, 179057, Note_on_c, 1, 76, 127
1, 179203, Note_off_c, 1, 55, 0
1, 179205, Note_on_c, 1, 54, 127
1, 179351, Note_off_c, 1, 76, 0
1, 179351, Note_off_c, 1, 54, 0
1, 179501, Note_on_c, 1, 78, 127
1, 179647, Note_off_c, 1, 78, 0
1, 179649, Note_on_c, 1, 76, 127
1, 179649, Note_on_c, 1, 57, 127
1, 179649, Note_on_c, 1, 60, 127
1, 179795, Note_off_c, 1, 76, 0
1, 179797, Note_on_c, 1, 78, 127
1, 179943, Note_off_c, 1, 57, 0
1, 179943, Note_off_c, 1, 78, 0
1, 179945, Note_on_c, 1, 74, 127
1, 179945, Note_on_c, 1, 54, 127
1, 180091, Note_off_c, 1, 74, 0
1, 180239, Note_off_c, 1, 60, 0
1, 180239, Note_off_c, 1, 54, 0
1, 180241, Note_on_c, 1, 74, 127
1, 180241, Note_on_c, 1, 55, 127
1, 180241, Note_on_c, 1, 59, 127
1, 180387, Note_off_c, 1, 74, 0
1, 180389, Note_on_c, 1, 76, 127
1, 180535, Note_off_c, 1, 55, 0
1, 180535, Note_off_c, 1, 76, 0
1, 180537, Note_on_c, 1, 72, 127
1, 180537, Note_on_c, 1, 52, 127
1, 180683, Note_off_c, 1, 72, 0
1, 180831, Note_off_c, 1, 59, 0
1, 180831, Note_off_c, 1, 52, 0
1, 180833, Note_on_c, 1, 72, 127
1, 180833, Note_on_c, 1, 54, 127
1, 180833, Note_on_c, 1, 57, 127
1, 180979, Note_off_c, 1, 72, 0
1, 180981, Note_on_c, 1, 74, 127
1, 181127, Note_off_c, 1, 54, 0
1, 181127, Note_off_c, 1, 74, 0
1, 181129, Note_on_c, 1, 71, 127
1, 181129, Note_on_c, 1, 51, 127
1, 181275, Note_off_c, 1, 71, 0
1, 181423, Note_off_c, 1, 57, 0
1, 181423, Note_off_c, 1, 51, 0
1, 181425, Note_on_c, 1, 71, 127
1, 181425, Note_on_c, 1, 52, 127
1, 181425, Note_on_c, 1, 55, 127
1, 181571, Note_off_c, 1, 71, 0
1, 181573, Note_on_c, 1, 72, 127
1, 181719, Note_off_c, 1, 52, 0
1, 181719, Note_off_c, 1, 72, 0
1, 181721, Note_on_c, 1, 69, 127
1, 181721, Note_on_c, 1, 49, 127
1, 181867, Note_off_c, 1, 69, 0
1, 182015, Note_off_c, 1, 55, 0
1, 182015, Note_off_c, 1, 49, 0
1, 182017, Note_on_c, 1, 69, 127
1, 182017, Note_on_c, 1, 51, 127
1, 182017, Note_on_c, 1, 54, 127
1, 182163, Note_off_c, 1, 69, 0
1, 182165, Note_on_c, 1, 71, 127
1, 182311, Note_off_c, 1, 51, 0
1, 182311, Note_off_c, 1, 71, 0
1, 182313, Note_on_c, 1, 67, 127
1, 182313, Note_on_c, 1, 52, 127
1, 182459, Note_off_c, 1, 67, 0
1, 182607, Note_off_c, 1, 54, 0
1, 182607, Note_off_c, 1, 52, 0
1, 182609, Note_on_c, 1, 67, 127
1, 182609, Note_on_c, 1, 48, 127
1, 182609, Note_on_c, 1, 52, 127
1, 182755, Note_off_c, 1, 67, 0
1, 182757, Note_on_c, 1, 69, 127
1, 182903, Note_off_c, 1, 48, 0
1, 182903, Note_off_c, 1, 69, 0
1, 182905, Note_on_c, 1, 66, 127
1, 182905, Note_on_c, 1, 45, 127
1, 183051, Note_off_c, 1, 66, 0
1, 183199, Note_off_c, 1, 52, 0
1, 183199, Note_off_c, 1, 45, 0
1, 183201, Note_on_c, 1, 66, 127
1, 183201, Note_on_c, 1, 51, 127
1, 183201, Note_on_c, 1, 47, 127
1, 183347, Note_off_c, 1, 66, 0
1, 183349, Note_on_c, 1, 67, 127
1, 183495, Note_off_c, 1, 51, 0
1, 183495, Note_off_c, 1, 47, 0
1, 183495, Note_off_c, 1, 67, 0
1, 183497, Note_on_c, 1, 64, 127
1, 183497, Note_on_c, 1, 40, 127
1, 183497, Note_on_c, 1, 52, 127
1, 183643, Note_off_c, 1, 64, 0
1, 183645, Note_on_c, 1, 67, 127
1, 183791, Note_off_c, 1, 67, 0
1, 183793, Note_on_c, 1, 66, 127
1, 183939, Note_off_c, 1, 66, 0
1, 183941, Note_on_c, 1, 69, 127
1, 184083, Note_off_c, 1, 40, 0
1, 184088, Note_off_c, 1, 69, 0
1, 184236, Note_off_c, 1, 52, 0
1, 184238, Note_on_c, 1, 71, 127
1, 184238, Note_on_c, 1, 55, 127
1, 184384, Note_off_c, 1, 71, 0
1, 184384, Note_off_c, 1, 55, 0
1, 184386, Note_on_c, 1, 69, 127
1, 184386, Note_on_c, 1, 54, 127
1, 184532, Note_off_c, 1, 69, 0
1, 184532, Note_off_c, 1, 54, 0
1, 184534, Note_on_c, 1, 72, 127
1, 184534, Note_on_c, 1, 57, 127
1, 184680, Note_off_c, 1, 72, 0
1, 184680, Note_off_c, 1, 57, 0
1, 184682, Note_on_c, 1, 55, 127
1, 184682, Note_on_c, 1, 52, 127
1, 184682, Note_on_c, 1, 71, 127
1, 184828, Note_off_c, 1, 55, 0
1, 184830, Note_on_c, 1, 59, 127
1, 184976, Note_off_c, 1, 52, 0
1, 184976, Note_off_c, 1, 59, 0
1, 184978, Note_on_c, 1, 57, 127
1, 184978, Note_on_c, 1, 54, 127
1, 185124, Note_off_c, 1, 57, 0
1, 185126, Note_on_c, 1, 60, 127
1, 185272, Note_off_c, 1, 54, 0
1, 185272, Note_off_c, 1, 60, 0
1, 185422, Note_on_c, 1, 64, 127
1, 185568, Note_off_c, 1, 64, 0
1, 185570, Note_on_c, 1, 63, 127
1, 185716, Note_off_c, 1, 63, 0
1, 185718, Note_on_c, 1, 66, 127
1, 185864, Note_off_c, 1, 66, 0
1, 186012, Note_off_c, 1, 71, 0
1, 186014, Note_on_c, 1, 76, 127
1, 186160, Note_off_c, 1, 76, 0
1, 186162, Note_on_c, 1, 75, 127
1, 186162, Note_on_c, 1, 60, 127
1, 186162, Note_on_c, 1, 57, 127
1, 186308, Note_off_c, 1, 75, 0
1, 186310, Note_on_c, 1, 78, 127
1, 186456, Note_off_c, 1, 60, 0
1, 186456, Note_off_c, 1, 57, 0
1, 186456, Note_off_c, 1, 78, 0
1, 186458, Note_on_c, 1, 76, 127
1, 186458, Note_on_c, 1, 59, 127
1, 186458, Note_on_c, 1, 55, 127
1, 186604, Note_off_c, 1, 76, 0
1, 186606, Note_on_c, 1, 79, 127
1, 186752, Note_off_c, 1, 59, 0
1, 186752, Note_off_c, 1, 55, 0
1, 186752, Note_off_c, 1, 79, 0
1, 186754, Note_on_c, 1, 78, 127
1, 186754, Note_on_c, 1, 64, 127
1, 186754, Note_on_c, 1, 57, 127
1, 186900, Note_off_c, 1, 78, 0
1, 186902, Note_on_c, 1, 81, 127
1, 187048, Note_off_c, 1, 64, 0
1, 187048, Note_off_c, 1, 57, 0
1, 187048, Note_off_c, 1, 81, 0
1, 187050, Note_on_c, 1, 63, 127
1, 187050, Note_on_c, 1, 59, 127
1, 187050, Note_on_c, 1, 79, 127
1, 187196, Note_off_c, 1, 63, 0
1, 187198, Note_on_c, 1, 66, 127
1, 187344, Note_off_c, 1, 59, 0
1, 187344, Note_off_c, 1, 66, 0
1, 187346, Note_on_c, 1, 60, 127
1, 187346, Note_on_c, 1, 64, 127
1, 187492, Note_off_c, 1, 79, 0
1, 187494, Note_on_c, 1, 81, 127
1, 187640, Note_off_c, 1, 60, 0
1, 187640, Note_off_c, 1, 81, 0
1, 187642, Note_on_c, 1, 57, 127
1, 187642, Note_on_c, 1, 78, 127
1, 187788, Note_off_c, 1, 64, 0
1, 187936, Note_off_c, 1, 57, 0
1, 188084, Note_off_c, 1, 78, 0
1, 188234, Note_on_c, 1, 76, 127
1, 188234, Note_on_c, 1, 64, 127
1, 188234, Note_on_c, 1, 52, 127
1, 188380, Note_off_c, 1, 76, 0
1, 188382, Note_on_c, 1, 71, 127
1, 188528, Note_off_c, 1, 64, 0
1, 188528, Note_off_c, 1, 52, 0
1, 188528, Note_off_c, 1, 71, 0
1, 188530, Note_on_c, 1, 64, 127
1, 188530, Note_on_c, 1, 67, 127
1, 188678, Note_on_c, 1, 71, 127
1, 188824, Note_off_c, 1, 64, 0
1, 188824, Note_off_c, 1, 71, 0
1, 188826, Note_on_c, 1, 57, 127
1, 188826, Note_on_c, 1, 72, 127
1, 188972, Note_off_c, 1, 67, 0
1, 189120, Note_off_c, 1, 57, 0
1, 189122, Note_on_c, 1, 62, 127
1, 189122, Note_on_c, 1, 66, 127
1, 189268, Note_off_c, 1, 72, 0
1, 189270, Note_on_c, 1, 69, 127
1, 189416, Note_off_c, 1, 62, 0
1, 189416, Note_off_c, 1, 69, 0
1, 189418, Note_on_c, 1, 55, 127
1, 189564, Note_off_c, 1, 66, 0
1, 189566, Note_on_c, 1, 59, 127
1, 189712, Note_off_c, 1, 55, 0
1, 189712, Note_off_c, 1, 59, 0
1, 189714, Note_on_c, 1, 60, 127
1, 190008, Note_off_c, 1, 60, 0
1, 190010, Note_on_c, 1, 54, 127
1, 190304, Note_off_c, 1, 54, 0
1, 190306, Note_on_c, 1, 66, 127
1, 190306, Note_on_c, 1, 63, 127
1, 190306, Note_on_c, 1, 59, 127
1, 190452, Note_off_c, 1, 66, 0
1, 190454, Note_on_c, 1, 69, 127
1, 190599, Note_off_c, 1, 63, 0
1, 190601, Note_off_c, 1, 59, 0
1, 190601, Note_off_c, 1, 69, 0
1, 190603, Note_on_c, 1, 67, 127
1, 190603, Note_on_c, 1, 52, 127
1, 190751, Note_on_c, 1, 63, 127
1, 190897, Note_off_c, 1, 67, 0
1, 190897, Note_off_c, 1, 52, 0
1, 190897, Note_off_c, 1, 63, 0
1, 190899, Note_on_c, 1, 64, 127
1, 190899, Note_on_c, 1, 52, 127
1, 190899, Note_on_c, 1, 79, 127
1, 191045, Note_off_c, 1, 64, 0
1, 191047, Note_on_c, 1, 59, 127
1, 191193, Note_off_c, 1, 52, 0
1, 191193, Note_off_c, 1, 59, 0
1, 191195, Note_on_c, 1, 57, 127
1, 191195, Note_on_c, 1, 60, 127
1, 191341, Note_off_c, 1, 79, 0
1, 191343, Note_on_c, 1, 81, 127
1, 191489, Note_off_c, 1, 57, 0
1, 191489, Note_off_c, 1, 81, 0
1, 191491, Note_on_c, 1, 50, 127
1, 191491, Note_on_c, 1, 78, 127
1, 191637, Note_off_c, 1, 60, 0
1, 191639, Note_on_c, 1, 62, 127
1, 191785, Note_off_c, 1, 50, 0
1, 191785, Note_off_c, 1, 62, 0
1, 191787, Note_on_c, 1, 55, 127
1, 191933, Note_off_c, 1, 78, 0
1, 191935, Note_on_c, 1, 71, 127
1, 192081, Note_off_c, 1, 55, 0
1, 192081, Note_off_c, 1, 71, 0
1, 192083, Note_on_c, 1, 48, 127
1, 192083, Note_on_c, 1, 76, 127
1, 192377, Note_off_c, 1, 48, 0
1, 192379, Note_on_c, 1, 54, 127
1, 192673, Note_off_c, 1, 76, 0
1, 192673, Note_off_c, 1, 54, 0
1, 192675, Note_on_c, 1, 54, 127
1, 192675, Note_on_c, 1, 75, 127
1, 192675, Note_on_c, 1, 47, 127
1, 192821, Note_off_c, 1, 54, 0
1, 192823, Note_on_c, 1, 57, 127
1, 192969, Note_off_c, 1, 75, 0
1, 192969, Note_off_c, 1, 47, 0
1, 192969, Note_off_c, 1, 57, 0
1, 192971, Note_on_c, 1, 76, 127
1, 192971, Note_on_c, 1, 55, 127
1, 192971, Note_on_c, 1, 52, 127
1, 193117, Note_off_c, 1, 76, 0
1, 193119, Note_on_c, 1, 79, 127
1, 193265, Note_off_c, 1, 55, 0
1, 193265, Note_off_c, 1, 79, 0
1, 193267, Note_on_c, 1, 78, 127
1, 193267, Note_on_c, 1, 57, 127
1, 193413, Note_off_c, 1, 78, 0
1, 193415, Note_on_c, 1, 81, 127
1, 193557, Note_off_c, 1, 52, 0
1, 193562, Note_off_c, 1, 57, 0
1, 193562, Note_off_c, 1, 81, 0
1, 193564, Note_on_c, 1, 59, 127
1, 193564, Note_on_c, 1, 79, 127
1, 193710, Note_off_c, 1, 59, 0
1, 193712, Note_on_c, 1, 55, 127
1, 193858, Note_off_c, 1, 55, 0
1, 193860, Note_on_c, 1, 52, 127
1, 194006, Note_off_c, 1, 52, 0
1, 194156, Note_on_c, 1, 57, 127
1, 194302, Note_off_c, 1, 79, 0
1, 194304, Note_on_c, 1, 76, 127
1, 194450, Note_off_c, 1, 76, 0
1, 194452, Note_on_c, 1, 73, 127
1, 194598, Note_off_c, 1, 73, 0
1, 194748, Note_on_c, 1, 49, 127
1, 194748, Note_on_c, 1, 69, 127
1, 195042, Note_off_c, 1, 49, 0
1, 195044, Note_on_c, 1, 77, 127
1, 195044, Note_on_c, 1, 45, 127
1, 195190, Note_off_c, 1, 77, 0
1, 195334, Note_off_c, 1, 69, 0
1, 195339, Note_off_c, 1, 45, 0
1, 195341, Note_on_c, 1, 50, 127
1, 195487, Note_off_c, 1, 57, 0
1, 195637, Note_on_c, 1, 74, 127
1, 195637, Note_on_c, 1, 53, 127
1, 195783, Note_off_c, 1, 74, 0
1, 195783, Note_off_c, 1, 53, 0
1, 195927, Note_off_c, 1, 50, 0
1, 195934, Note_on_c, 1, 57, 127
1, 195934, Note_on_c, 1, 77, 127
1, 196080, Note_off_c, 1, 57, 0
1, 196082, Note_on_c, 1, 53, 127
1, 196228, Note_off_c, 1, 53, 0
1, 196230, Note_on_c, 1, 50, 127
1, 196376, Note_off_c, 1, 50, 0
1, 196526, Note_on_c, 1, 55, 127
1, 196672, Note_off_c, 1, 77, 0
1, 196674, Note_on_c, 1, 74, 127
1, 196820, Note_off_c, 1, 74, 0
1, 196822, Note_on_c, 1, 71, 127
1, 196968, Note_off_c, 1, 71, 0
1, 197118, Note_on_c, 1, 47, 127
1, 197118, Note_on_c, 1, 67, 127
1, 197412, Note_off_c, 1, 47, 0
1, 197414, Note_on_c, 1, 76, 127
1, 197414, Note_on_c, 1, 43, 127
1, 197560, Note_off_c, 1, 76, 0
1, 197704, Note_off_c, 1, 67, 0
1, 197709, Note_off_c, 1, 43, 0
1, 197711, Note_on_c, 1, 48, 127
1, 197859, Note_on_c, 1, 72, 127
1, 198005, Note_off_c, 1, 55, 0
1, 198005, Note_off_c, 1, 72, 0
1, 198007, Note_on_c, 1, 69, 127
1, 198007, Note_on_c, 1, 60, 127
1, 198153, Note_off_c, 1, 69, 0
1, 198301, Note_off_c, 1, 60, 0
1, 198303, Note_on_c, 1, 66, 127
1, 198449, Note_off_c, 1, 66, 0
1, 198451, Note_off_c, 1, 48, 0
1, 198599, Note_on_c, 1, 54, 127
1, 198893, Note_off_c, 1, 54, 0
1, 199191, Note_on_c, 1, 68, 127
1, 199191, Note_on_c, 1, 59, 127
1, 199337, Note_off_c, 1, 68, 0
1, 199485, Note_off_c, 1, 59, 0
1, 199487, Note_on_c, 1, 64, 127
1, 199487, Note_on_c, 1, 56, 127
1, 199633, Note_off_c, 1, 64, 0
1, 199783, Note_on_c, 1, 52, 127
1, 200073, Note_off_c, 1, 56, 0
1, 200078, Note_off_c, 1, 52, 0
1, 200080, Note_on_c, 1, 72, 127
1, 200080, Note_on_c, 1, 45, 127
1, 200226, Note_off_c, 1, 72, 0
1, 200228, Note_on_c, 1, 69, 127
1, 200374, Note_off_c, 1, 69, 0
1, 200376, Note_on_c, 1, 66, 127
1, 200376, Note_on_c, 1, 57, 127
1, 200522, Note_off_c, 1, 66, 0
1, 200670, Note_off_c, 1, 57, 0
1, 200672, Note_on_c, 1, 63, 127
1, 200672, Note_on_c, 1, 54, 127
1, 200820, Note_off_c, 1, 45, 0
1, 200965, Note_off_c, 1, 63, 0
1, 200969, Note_on_c, 1, 71, 127
1, 200969, Note_on_c, 1, 47, 127
1, 201115, Note_off_c, 1, 71, 0
1, 201115, Note_off_c, 1, 47, 0
1, 201117, Note_on_c, 1, 48, 127
1, 201259, Note_off_c, 1, 54, 0
1, 201264, Note_off_c, 1, 48, 0
1, 201266, Note_on_c, 1, 50, 127
1, 201266, Note_on_c, 1, 68, 127
1, 201412, Note_off_c, 1, 50, 0
1, 201414, Note_on_c, 1, 53, 127
1, 201560, Note_off_c, 1, 53, 0
1, 201562, Note_on_c, 1, 52, 127
1, 201562, Note_on_c, 1, 64, 127
1, 201708, Note_off_c, 1, 68, 0
1, 201708, Note_off_c, 1, 52, 0
1, 201856, Note_off_c, 1, 64, 0
1, 201858, Note_on_c, 1, 69, 127
1, 201858, Note_on_c, 1, 48, 127
1, 201858, Note_on_c, 1, 64, 127
1, 202004, Note_off_c, 1, 69, 0
1, 202004, Note_off_c, 1, 48, 0
1, 202006, Note_on_c, 1, 68, 127
1, 202006, Note_on_c, 1, 50, 127
1, 202152, Note_off_c, 1, 64, 0
1, 202152, Note_off_c, 1, 68, 0
1, 202152, Note_off_c, 1, 50, 0
1, 202154, Note_on_c, 1, 69, 127
1, 202154, Note_on_c, 1, 48, 127
1, 202154, Note_on_c, 1, 64, 127
1, 202300, Note_off_c, 1, 69, 0
1, 202300, Note_off_c, 1, 48, 0
1, 202302, Note_on_c, 1, 71, 127
1, 202302, Note_on_c, 1, 47, 127
1, 202448, Note_off_c, 1, 64, 0
1, 202448, Note_off_c, 1, 71, 0
1, 202448, Note_off_c, 1, 47, 0
1, 202450, Note_on_c, 1, 64, 127
1, 202450, Note_on_c, 1, 45, 127
1, 202450, Note_on_c, 1, 72, 127
1, 202596, Note_off_c, 1, 64, 0
1, 202598, Note_on_c, 1, 65, 127
1, 202744, Note_off_c, 1, 45, 0
1, 202744, Note_off_c, 1, 65, 0
1, 202746, Note_on_c, 1, 57, 127
1, 202881, Note_off_c, 1, 72, 0
1, 202894, Note_on_c, 1, 62, 127
1, 203040, Note_off_c, 1, 62, 0
1, 203042, Note_on_c, 1, 60, 127
1, 203188, Note_off_c, 1, 57, 0
1, 203188, Note_off_c, 1, 60, 0
1, 203190, Note_on_c, 1, 62, 127
1, 203190, Note_on_c, 1, 56, 127
1, 203336, Note_off_c, 1, 62, 0
1, 203336, Note_off_c, 1, 56, 0
1, 203338, Note_on_c, 1, 60, 127
1, 203338, Note_on_c, 1, 57, 127
1, 203484, Note_off_c, 1, 60, 0
1, 203484, Note_off_c, 1, 57, 0
1, 203486, Note_on_c, 1, 59, 127
1, 203632, Note_off_c, 1, 59, 0
1, 203634, Note_on_c, 1, 60, 127
1, 203634, Note_on_c, 1, 57, 127
1, 203780, Note_off_c, 1, 60, 0
1, 203782, Note_on_c, 1, 59, 127
1, 203928, Note_off_c, 1, 57, 0
1, 203928, Note_off_c, 1, 59, 0
1, 203930, Note_on_c, 1, 69, 127
1, 203930, Note_on_c, 1, 57, 127
1, 203930, Note_on_c, 1, 65, 127
1, 204076, Note_off_c, 1, 69, 0
1, 204076, Note_off_c, 1, 57, 0
1, 204078, Note_on_c, 1, 71, 127
1, 204078, Note_on_c, 1, 56, 127
1, 204224, Note_off_c, 1, 65, 0
1, 204224, Note_off_c, 1, 71, 0
1, 204224, Note_off_c, 1, 56, 0
1, 204226, Note_on_c, 1, 65, 127
1, 204226, Note_on_c, 1, 72, 127
1, 204226, Note_on_c, 1, 57, 127
1, 204372, Note_off_c, 1, 65, 0
1, 204374, Note_on_c, 1, 67, 127
1, 204520, Note_off_c, 1, 72, 0
1, 204520, Note_off_c, 1, 57, 0
1, 204520, Note_off_c, 1, 67, 0
1, 204522, Note_on_c, 1, 65, 127
1, 204522, Note_on_c, 1, 74, 127
1, 204522, Note_on_c, 1, 62, 127
1, 204668, Note_off_c, 1, 65, 0
1, 204670, Note_on_c, 1, 67, 127
1, 204816, Note_off_c, 1, 74, 0
1, 204816, Note_off_c, 1, 67, 0
1, 204818, Note_on_c, 1, 68, 127
1, 204818, Note_on_c, 1, 64, 127
1, 204964, Note_off_c, 1, 62, 0
1, 205112, Note_off_c, 1, 68, 0
1, 205112, Note_off_c, 1, 64, 0
1, 205114, Note_on_c, 1, 72, 127
1, 205114, Note_on_c, 1, 60, 127
1, 205114, Note_on_c, 1, 69, 127
1, 205260, Note_off_c, 1, 72, 0
1, 205260, Note_off_c, 1, 60, 0
1, 205262, Note_on_c, 1, 74, 127
1, 205262, Note_on_c, 1, 59, 127
1, 205408, Note_off_c, 1, 69, 0
1, 205408, Note_off_c, 1, 74, 0
1, 205408, Note_off_c, 1, 59, 0
1, 205410, Note_on_c, 1, 69, 127
1, 205410, Note_on_c, 1, 76, 127
1, 205410, Note_on_c, 1, 60, 127
1, 205556, Note_off_c, 1, 69, 0
1, 205558, Note_on_c, 1, 71, 127
1, 205704, Note_off_c, 1, 76, 0
1, 205704, Note_off_c, 1, 60, 0
1, 205704, Note_off_c, 1, 71, 0
1, 205706, Note_on_c, 1, 69, 127
1, 205706, Note_on_c, 1, 65, 127
1, 205706, Note_on_c, 1, 74, 127
1, 205852, Note_off_c, 1, 69, 0
1, 205854, Note_on_c, 1, 71, 127
1, 206000, Note_off_c, 1, 65, 0
1, 206000, Note_off_c, 1, 71, 0
1, 206002, Note_on_c, 1, 67, 127
1, 206002, Note_on_c, 1, 59, 127
1, 206148, Note_off_c, 1, 67, 0
1, 206296, Note_off_c, 1, 74, 0
1, 206296, Note_off_c, 1, 59, 0
1, 206298, Note_on_c, 1, 67, 127
1, 206298, Note_on_c, 1, 71, 127
1, 206298, Note_on_c, 1, 64, 127
1, 206444, Note_off_c, 1, 67, 0
1, 206446, Note_on_c, 1, 69, 127
1, 206592, Note_off_c, 1, 71, 0
1, 206592, Note_off_c, 1, 69, 0
1, 206594, Note_on_c, 1, 65, 127
1, 206740, Note_off_c, 1, 65, 0
1, 206888, Note_off_c, 1, 64, 0
1, 206890, Note_on_c, 1, 62, 127
1, 207184, Note_off_c, 1, 62, 0
1, 207186, Note_on_c, 1, 64, 127
1, 207186, Note_on_c, 1, 71, 127
1, 207186, Note_on_c, 1, 55, 127
1, 207332, Note_off_c, 1, 64, 0
1, 207334, Note_on_c, 1, 65, 127
1, 207480, Note_off_c, 1, 71, 0
1, 207480, Note_off_c, 1, 55, 0
1, 207480, Note_off_c, 1, 65, 0
1, 207482, Note_on_c, 1, 64, 127
1, 207482, Note_on_c, 1, 67, 127
1, 207482, Note_on_c, 1, 60, 127
1, 207628, Note_off_c, 1, 64, 0
1, 207630, Note_on_c, 1, 65, 127
1, 207776, Note_off_c, 1, 67, 0
1, 207776, Note_off_c, 1, 65, 0
1, 207778, Note_on_c, 1, 62, 127
1, 207778, Note_on_c, 1, 66, 127
1, 207924, Note_off_c, 1, 62, 0
1, 208072, Note_off_c, 1, 60, 0
1, 208074, Note_on_c, 1, 59, 127
1, 208368, Note_off_c, 1, 66, 0
1, 208368, Note_off_c, 1, 59, 0
1, 208370, Note_on_c, 1, 60, 127
1, 208370, Note_on_c, 1, 68, 127
1, 208370, Note_on_c, 1, 52, 127
1, 208516, Note_off_c, 1, 60, 0
1, 208518, Note_on_c, 1, 62, 127
1, 208664, Note_off_c, 1, 68, 0
1, 208664, Note_off_c, 1, 52, 0
1, 208664, Note_off_c, 1, 62, 0
1, 208666, Note_on_c, 1, 60, 127
1, 208666, Note_on_c, 1, 69, 127
1, 208666, Note_on_c, 1, 57, 127
1, 208812, Note_off_c, 1, 60, 0
1, 208814, Note_on_c, 1, 62, 127
1, 208960, Note_off_c, 1, 69, 0
1, 208960, Note_off_c, 1, 62, 0
1, 208962, Note_on_c, 1, 74, 127
1, 208962, Note_on_c, 1, 59, 127
1, 209108, Note_off_c, 1, 74, 0
1, 209108, Note_off_c, 1, 59, 0
1, 209110, Note_on_c, 1, 76, 127
1, 209256, Note_off_c, 1, 57, 0
1, 209256, Note_off_c, 1, 76, 0
1, 209258, Note_on_c, 1, 74, 127
1, 209258, Note_on_c, 1, 59, 127
1, 209258, Note_on_c, 1, 56, 127
1, 209404, Note_off_c, 1, 74, 0
1, 209404, Note_off_c, 1, 59, 0
1, 209406, Note_on_c, 1, 76, 127
1, 209406, Note_on_c, 1, 60, 127
1, 209552, Note_off_c, 1, 56, 0
1, 209552, Note_off_c, 1, 76, 0
1, 209552, Note_off_c, 1, 60, 0
1, 209554, Note_on_c, 1, 72, 127
1, 209554, Note_on_c, 1, 57, 127
1, 209700, Note_off_c, 1, 72, 0
1, 209702, Note_on_c, 1, 81, 127
1, 209702, Note_on_c, 1, 60, 127
1, 209848, Note_off_c, 1, 81, 0
1, 209848, Note_off_c, 1, 60, 0
1, 209850, Note_on_c, 1, 80, 127
1, 209850, Note_on_c, 1, 59, 127
1, 209996, Note_off_c, 1, 80, 0
1, 209996, Note_off_c, 1, 59, 0
1, 209998, Note_on_c, 1, 83, 127
1, 209998, Note_on_c, 1, 62, 127
1, 210144, Note_off_c, 1, 83, 0
1, 210144, Note_off_c, 1, 62, 0
1, 210442, Note_on_c, 1, 76, 127
1, 210442, Note_on_c, 1, 61, 127
1, 210588, Note_off_c, 1, 76, 0
1, 210588, Note_off_c, 1, 61, 0
1, 210590, Note_on_c, 1, 79, 127
1, 210590, Note_on_c, 1, 64, 127
1, 210736, Note_off_c, 1, 79, 0
1, 210736, Note_off_c, 1, 64, 0
1, 210738, Note_on_c, 1, 77, 127
1, 210884, Note_off_c, 1, 77, 0
1, 210886, Note_on_c, 1, 65, 127
1, 211032, Note_off_c, 1, 65, 0
1, 211034, Note_on_c, 1, 73, 127
1, 211180, Note_off_c, 1, 73, 0
1, 211182, Note_on_c, 1, 67, 127
1, 211327, Note_off_c, 1, 57, 0
1, 211329, Note_off_c, 1, 67, 0
1, 211331, Note_on_c, 1, 74, 127
1, 211331, Note_on_c, 1, 66, 127
1, 211477, Note_off_c, 1, 74, 0
1, 211477, Note_off_c, 1, 66, 0
1, 211479, Note_on_c, 1, 77, 127
1, 211479, Note_on_c, 1, 69, 127
1, 211625, Note_off_c, 1, 77, 0
1, 211625, Note_off_c, 1, 69, 0
1, 211627, Note_on_c, 1, 76, 127
1, 211627, Note_on_c, 1, 68, 127
1, 211773, Note_off_c, 1, 76, 0
1, 211773, Note_off_c, 1, 68, 0
1, 211775, Note_on_c, 1, 74, 127
1, 211775, Note_on_c, 1, 71, 127
1, 211921, Note_off_c, 1, 74, 0
1, 211921, Note_off_c, 1, 71, 0
1, 211923, Note_on_c, 1, 72, 127
1, 211923, Note_on_c, 1, 69, 127
1, 212069, Note_on_c, 1, 64, 127
1, 212214, Note_off_c, 1, 64, 0
1, 212216, Note_on_c, 1, 60, 127
1, 212361, Note_off_c, 1, 60, 0
1, 212510, Note_on_c, 1, 57, 127
1, 212655, Note_off_c, 1, 72, 0
1, 212657, Note_on_c, 1, 76, 127
1, 212802, Note_off_c, 1, 69, 0
1, 212802, Note_off_c, 1, 76, 0
1, 212804, Note_on_c, 1, 74, 127
1, 212804, Note_on_c, 1, 71, 127
1, 212949, Note_off_c, 1, 74, 0
1, 212951, Note_on_c, 1, 77, 127
1, 213096, Note_off_c, 1, 57, 0
1, 213096, Note_off_c, 1, 71, 0
1, 213096, Note_off_c, 1, 77, 0
1, 213098, Note_on_c, 1, 69, 127
1, 213098, Note_on_c, 1, 73, 127
1, 213098, Note_on_c, 1, 76, 127
1, 213243, Note_off_c, 1, 69, 0
1, 213245, Note_on_c, 1, 64, 127
1, 213390, Note_off_c, 1, 64, 0
1, 213392, Note_on_c, 1, 61, 127
1, 213537, Note_off_c, 1, 61, 0
1, 213679, Note_off_c, 1, 73, 0
1, 213686, Note_on_c, 1, 55, 127
1, 213831, Note_off_c, 1, 76, 0
1, 213978, Note_off_c, 1, 55, 0
1, 213980, Note_on_c, 1, 74, 127
1, 213980, Note_on_c, 1, 67, 127
1, 214125, Note_off_c, 1, 74, 0
1, 214127, Note_on_c, 1, 76, 127
1, 214272, Note_off_c, 1, 76, 0
1, 214274, Note_on_c, 1, 69, 127
1, 214419, Note_off_c, 1, 67, 0
1, 214421, Note_on_c, 1, 64, 127
1, 214566, Note_off_c, 1, 64, 0
1, 214568, Note_on_c, 1, 65, 127
1, 214713, Note_off_c, 1, 69, 0
1, 214713, Note_off_c, 1, 65, 0
1, 214715, Note_on_c, 1, 67, 127
1, 214715, Note_on_c, 1, 69, 127
1, 214860, Note_off_c, 1, 67, 0
1, 214862, Note_on_c, 1, 74, 127
1, 214862, Note_on_c, 1, 65, 127
1, 215007, Note_off_c, 1, 74, 0
1, 215007, Note_off_c, 1, 65, 0
1, 215009, Note_on_c, 1, 77, 127
1, 215009, Note_on_c, 1, 62, 127
1, 215154, Note_off_c, 1, 77, 0
1, 215154, Note_off_c, 1, 62, 0
1, 215156, Note_on_c, 1, 76, 127
1, 215156, Note_on_c, 1, 61, 127
1, 215301, Note_off_c, 1, 76, 0
1, 215301, Note_off_c, 1, 61, 0
1, 215303, Note_on_c, 1, 79, 127
1, 215303, Note_on_c, 1, 57, 127
1, 215448, Note_off_c, 1, 79, 0
1, 215448, Note_off_c, 1, 57, 0
1, 215744, Note_on_c, 1, 53, 127
1, 215889, Note_off_c, 1, 69, 0
1, 215889, Note_off_c, 1, 53, 0
1, 216038, Note_on_c, 1, 50, 127
1, 216183, Note_off_c, 1, 50, 0
1, 216185, Note_on_c, 1, 76, 127
1, 216185, Note_on_c, 1, 53, 127
1, 216330, Note_off_c, 1, 76, 0
1, 216330, Note_off_c, 1, 53, 0
1, 216332, Note_on_c, 1, 75, 127
1, 216332, Note_on_c, 1, 57, 127
1, 216332, Note_on_c, 1, 72, 127
1, 216477, Note_off_c, 1, 75, 0
1, 216477, Note_off_c, 1, 57, 0
1, 216479, Note_on_c, 1, 76, 127
1, 216479, Note_on_c, 1, 60, 127
1, 216624, Note_off_c, 1, 72, 0
1, 216624, Note_off_c, 1, 76, 0
1, 216624, Note_off_c, 1, 60, 0
1, 216626, Note_on_c, 1, 75, 127
1, 216626, Note_on_c, 1, 71, 127
1, 216772, Note_on_c, 1, 66, 127
1, 216917, Note_off_c, 1, 66, 0
1, 216919, Note_on_c, 1, 63, 127
1, 217064, Note_off_c, 1, 63, 0
1, 217213, Note_on_c, 1, 59, 127
1, 217358, Note_off_c, 1, 75, 0
1, 217360, Note_on_c, 1, 78, 127
1, 217505, Note_off_c, 1, 71, 0
1, 217505, Note_off_c, 1, 78, 0
1, 217507, Note_on_c, 1, 76, 127
1, 217507, Note_on_c, 1, 73, 127
1, 217652, Note_off_c, 1, 76, 0
1, 217654, Note_on_c, 1, 79, 127
1, 217799, Note_off_c, 1, 59, 0
1, 217799, Note_off_c, 1, 73, 0
1, 217799, Note_off_c, 1, 79, 0
1, 217801, Note_on_c, 1, 71, 127
1, 217801, Note_on_c, 1, 75, 127
1, 217801, Note_on_c, 1, 78, 127
1, 217946, Note_off_c, 1, 71, 0
1, 217948, Note_on_c, 1, 66, 127
1, 218093, Note_off_c, 1, 66, 0
1, 218095, Note_on_c, 1, 63, 127
1, 218240, Note_off_c, 1, 63, 0
1, 218382, Note_off_c, 1, 75, 0
1, 218389, Note_on_c, 1, 57, 127
1, 218534, Note_off_c, 1, 78, 0
1, 218681, Note_off_c, 1, 57, 0
1, 218683, Note_on_c, 1, 76, 127
1, 218683, Note_on_c, 1, 69, 127
1, 218828, Note_off_c, 1, 76, 0
1, 218830, Note_on_c, 1, 78, 127
1, 218975, Note_off_c, 1, 78, 0
1, 218977, Note_on_c, 1, 71, 127
1, 219122, Note_off_c, 1, 69, 0
1, 219124, Note_on_c, 1, 66, 127
1, 219269, Note_off_c, 1, 66, 0
1, 219271, Note_on_c, 1, 67, 127
1, 219416, Note_off_c, 1, 71, 0
1, 219416, Note_off_c, 1, 67, 0
1, 219418, Note_on_c, 1, 69, 127
1, 219418, Note_on_c, 1, 71, 127
1, 219563, Note_off_c, 1, 69, 0
1, 219565, Note_on_c, 1, 76, 127
1, 219565, Note_on_c, 1, 67, 127
1, 219710, Note_off_c, 1, 76, 0
1, 219710, Note_off_c, 1, 67, 0
1, 219712, Note_on_c, 1, 79, 127
1, 219712, Note_on_c, 1, 64, 127
1, 219857, Note_off_c, 1, 79, 0
1, 219857, Note_off_c, 1, 64, 0
1, 219859, Note_on_c, 1, 78, 127
1, 219859, Note_on_c, 1, 63, 127
1, 220004, Note_off_c, 1, 78, 0
1, 220004, Note_off_c, 1, 63, 0
1, 220006, Note_on_c, 1, 81, 127
1, 220006, Note_on_c, 1, 59, 127
1, 220151, Note_off_c, 1, 81, 0
1, 220151, Note_off_c, 1, 59, 0
1, 220447, Note_on_c, 1, 55, 127
1, 220592, Note_off_c, 1, 71, 0
1, 220592, Note_off_c, 1, 55, 0
1, 220741, Note_on_c, 1, 52, 127
1, 220886, Note_off_c, 1, 52, 0
1, 220888, Note_on_c, 1, 78, 127
1, 220888, Note_on_c, 1, 59, 127
1, 221033, Note_off_c, 1, 78, 0
1, 221033, Note_off_c, 1, 59, 0
1, 221035, Note_on_c, 1, 76, 127
1, 221035, Note_on_c, 1, 55, 127
1, 221180, Note_off_c, 1, 76, 0
1, 221180, Note_off_c, 1, 55, 0
1, 221182, Note_on_c, 1, 78, 127
1, 221182, Note_on_c, 1, 59, 127
1, 221327, Note_off_c, 1, 78, 0
1, 221327, Note_off_c, 1, 59, 0
1, 221329, Note_on_c, 1, 64, 127
1, 221329, Note_on_c, 1, 79, 127
1, 221329, Note_on_c, 1, 76, 127
1, 221474, Note_off_c, 1, 64, 0
1, 221476, Note_on_c, 1, 59, 127
1, 221621, Note_off_c, 1, 59, 0
1, 221623, Note_on_c, 1, 55, 127
1, 221768, Note_off_c, 1, 55, 0
1, 221917, Note_on_c, 1, 52, 127
1, 222062, Note_off_c, 1, 79, 0
1, 222064, Note_on_c, 1, 83, 127
1, 222209, Note_off_c, 1, 76, 0
1, 222209, Note_off_c, 1, 83, 0
1, 222211, Note_on_c, 1, 81, 127
1, 222211, Note_on_c, 1, 78, 127
1, 222356, Note_off_c, 1, 81, 0
1, 222358, Note_on_c, 1, 84, 127
1, 222503, Note_off_c, 1, 52, 0
1, 222503, Note_off_c, 1, 78, 0
1, 222503, Note_off_c, 1, 84, 0
1, 222505, Note_on_c, 1, 64, 127
1, 222505, Note_on_c, 1, 80, 127
1, 222505, Note_on_c, 1, 83, 127
1, 222650, Note_off_c, 1, 64, 0
1, 222652, Note_on_c, 1, 59, 127
1, 222797, Note_off_c, 1, 59, 0
1, 222799, Note_on_c, 1, 56, 127
1, 222944, Note_off_c, 1, 56, 0
1, 223086, Note_off_c, 1, 80, 0
1, 223093, Note_on_c, 1, 50, 127
1, 223238, Note_off_c, 1, 83, 0
1, 223385, Note_off_c, 1, 50, 0
1, 223387, Note_on_c, 1, 81, 127
1, 223387, Note_on_c, 1, 62, 127
1, 223532, Note_off_c, 1, 81, 0
1, 223534, Note_on_c, 1, 83, 127
1, 223679, Note_off_c, 1, 83, 0
1, 223681, Note_on_c, 1, 76, 127
1, 223826, Note_off_c, 1, 62, 0
1, 223828, Note_on_c, 1, 59, 127
1, 223973, Note_off_c, 1, 59, 0
1, 223975, Note_on_c, 1, 60, 127
1, 224120, Note_off_c, 1, 76, 0
1, 224120, Note_off_c, 1, 60, 0
1, 224122, Note_on_c, 1, 62, 127
1, 224122, Note_on_c, 1, 76, 127
1, 224267, Note_off_c, 1, 62, 0
1, 224269, Note_on_c, 1, 81, 127
1, 224269, Note_on_c, 1, 60, 127
1, 224414, Note_off_c, 1, 81, 0
1, 224414, Note_off_c, 1, 60, 0
1, 224416, Note_on_c, 1, 84, 127
1, 224416, Note_on_c, 1, 69, 127
1, 224561, Note_off_c, 1, 84, 0
1, 224561, Note_off_c, 1, 69, 0
1, 224563, Note_on_c, 1, 83, 127
1, 224563, Note_on_c, 1, 68, 127
1, 224661, Note_off_c, 1, 83, 0
1, 224708, Note_off_c, 1, 68, 0
1, 224710, Note_on_c, 1, 64, 127
1, 224855, Note_off_c, 1, 64, 0
1, 225146, Note_off_c, 1, 76, 0
1, 225444, Note_on_c, 1, 72, 127
1, 226025, Note_off_c, 1, 72, 0
1, 226032, Note_on_c, 1, 57, 127
1, 226610, Note_off_c, 1, 57, 0
1, 226617, Note_on_c, 1, 84, 127
1, 226763, Note_on_c, 1, 76, 127
1, 226907, Note_off_c, 1, 84, 0
1, 226907, Note_off_c, 1, 76, 0
1, 226909, Note_on_c, 1, 72, 127
1, 226909, Note_on_c, 1, 84, 127
1, 227053, Note_off_c, 1, 72, 0
1, 227055, Note_on_c, 1, 69, 127
1, 227199, Note_off_c, 1, 84, 0
1, 227199, Note_off_c, 1, 69, 0
1, 227201, Note_on_c, 1, 84, 127
1, 227201, Note_on_c, 1, 66, 127
1, 227347, Note_on_c, 1, 69, 127
1, 227491, Note_off_c, 1, 84, 0
1, 227491, Note_off_c, 1, 69, 0
1, 227493, Note_on_c, 1, 74, 127
1, 227639, Note_on_c, 1, 76, 127
1, 227783, Note_off_c, 1, 76, 0
1, 227785, Note_on_c, 1, 78, 127
1, 227931, Note_off_c, 1, 66, 0
1, 228071, Note_off_c, 1, 74, 0
1, 228076, Note_off_c, 1, 78, 0
1, 228078, Note_on_c, 1, 66, 127
1, 228078, Note_on_c, 1, 81, 127
1, 228078, Note_on_c, 1, 74, 127
1, 228078, Note_on_c, 1, 84, 127
1, 228222, Note_off_c, 1, 66, 0
1, 228224, Note_on_c, 1, 62, 127
1, 228367, Note_off_c, 1, 81, 0
1, 228367, Note_off_c, 1, 74, 0
1, 228369, Note_off_c, 1, 62, 0
1, 228371, Note_on_c, 1, 59, 127
1, 228515, Note_off_c, 1, 84, 0
1, 228663, Note_on_c, 1, 78, 127
1, 229089, Note_off_c, 1, 78, 0
1, 229101, Note_off_c, 1, 59, 0
1, 229540, Note_on_c, 1, 83, 127
1, 229540, Note_on_c, 1, 55, 127
1, 229686, Note_on_c, 1, 79, 127
1, 229830, Note_off_c, 1, 79, 0
1, 229832, Note_on_c, 1, 74, 127
1, 229976, Note_off_c, 1, 74, 0
1, 229978, Note_on_c, 1, 71, 127
1, 230118, Note_off_c, 1, 83, 0
1, 230118, Note_off_c, 1, 55, 0
1, 230123, Note_off_c, 1, 71, 0
1, 230125, Note_on_c, 1, 67, 127
1, 230271, Note_on_c, 1, 62, 127
1, 230415, Note_off_c, 1, 62, 0
1, 230417, Note_on_c, 1, 59, 127
1, 230561, Note_off_c, 1, 59, 0
1, 230563, Note_on_c, 1, 55, 127
1, 230703, Note_off_c, 1, 67, 0
1, 230708, Note_off_c, 1, 55, 0
1, 230710, Note_on_c, 1, 65, 127
1, 230856, Note_on_c, 1, 74, 127
1, 231002, Note_on_c, 1, 79, 127
1, 231146, Note_off_c, 1, 79, 0
1, 231148, Note_on_c, 1, 81, 127
1, 231292, Note_off_c, 1, 81, 0
1, 231294, Note_on_c, 1, 82, 127
1, 231434, Note_off_c, 1, 74, 0
1, 231440, Note_off_c, 1, 65, 0
1, 231584, Note_off_c, 1, 82, 0
1, 231586, Note_on_c, 1, 70, 127
1, 231586, Note_on_c, 1, 82, 127
1, 231730, Note_off_c, 1, 70, 0
1, 231732, Note_on_c, 1, 67, 127
1, 231876, Note_off_c, 1, 82, 0
1, 231876, Note_off_c, 1, 67, 0
1, 231878, Note_on_c, 1, 82, 127
1, 231878, Note_on_c, 1, 64, 127
1, 232024, Note_on_c, 1, 67, 127
1, 232168, Note_off_c, 1, 82, 0
1, 232168, Note_off_c, 1, 67, 0
1, 232170, Note_on_c, 1, 72, 127
1, 232314, Note_off_c, 1, 72, 0
1, 232316, Note_on_c, 1, 74, 127
1, 232460, Note_off_c, 1, 74, 0
1, 232462, Note_on_c, 1, 76, 127
1, 232608, Note_off_c, 1, 64, 0
1, 232752, Note_off_c, 1, 76, 0
1, 232754, Note_on_c, 1, 64, 127
1, 232754, Note_on_c, 1, 82, 127
1, 232754, Note_on_c, 1, 79, 127
1, 232754, Note_on_c, 1, 72, 127
1, 232898, Note_off_c, 1, 64, 0
1, 232900, Note_on_c, 1, 60, 127
1, 233043, Note_off_c, 1, 82, 0
1, 233043, Note_off_c, 1, 79, 0
1, 233045, Note_off_c, 1, 60, 0
1, 233047, Note_on_c, 1, 57, 127
1, 233181, Note_off_c, 1, 72, 0
1, 233339, Note_on_c, 1, 76, 127
1, 233483, Note_off_c, 1, 76, 0
1, 233625, Note_off_c, 1, 57, 0
1, 234217, Note_on_c, 1, 81, 127
1, 234217, Note_on_c, 1, 53, 127
1, 234363, Note_on_c, 1, 77, 127
1, 234507, Note_off_c, 1, 77, 0
1, 234509, Note_on_c, 1, 72, 127
1, 234653, Note_off_c, 1, 72, 0
1, 234655, Note_on_c, 1, 69, 127
1, 234795, Note_off_c, 1, 81, 0
1, 234795, Note_off_c, 1, 53, 0
1, 234800, Note_off_c, 1, 69, 0
1, 234802, Note_on_c, 1, 65, 127
1, 234948, Note_on_c, 1, 60, 127
1, 235092, Note_off_c, 1, 60, 0
1, 235094, Note_on_c, 1, 57, 127
1, 235238, Note_off_c, 1, 57, 0
1, 235240, Note_on_c, 1, 53, 127
1, 235380, Note_off_c, 1, 65, 0
1, 235385, Note_off_c, 1, 53, 0
1, 235387, Note_on_c, 1, 63, 127
1, 235533, Note_on_c, 1, 72, 127
1, 235679, Note_on_c, 1, 77, 127
1, 235823, Note_off_c, 1, 77, 0
1, 235825, Note_on_c, 1, 79, 127
1, 235965, Note_off_c, 1, 63, 0
1, 235970, Note_off_c, 1, 79, 0
1, 235972, Note_on_c, 1, 81, 127
1, 236112, Note_off_c, 1, 72, 0
1, 236118, Note_on_c, 1, 60, 127
1, 236262, Note_off_c, 1, 81, 0
1, 236262, Note_off_c, 1, 60, 0
1, 236264, Note_on_c, 1, 57, 127
1, 236264, Note_on_c, 1, 81, 127
1, 236408, Note_off_c, 1, 57, 0
1, 236410, Note_on_c, 1, 53, 127
1, 236554, Note_off_c, 1, 81, 0
1, 236554, Note_off_c, 1, 53, 0
1, 236556, Note_on_c, 1, 62, 127
1, 236556, Note_on_c, 1, 81, 127
1, 236702, Note_on_c, 1, 77, 127
1, 236848, Note_on_c, 1, 74, 127
1, 236994, Note_on_c, 1, 70, 127
1, 237128, Note_off_c, 1, 77, 0
1, 237134, Note_off_c, 1, 62, 0
1, 237139, Note_off_c, 1, 81, 0
1, 237141, Note_on_c, 1, 79, 127
1, 237287, Note_on_c, 1, 58, 127
1, 237427, Note_off_c, 1, 74, 0
1, 237432, Note_off_c, 1, 70, 0
1, 237432, Note_off_c, 1, 79, 0
1, 237432, Note_off_c, 1, 58, 0
1, 237434, Note_on_c, 1, 55, 127
1, 237434, Note_on_c, 1, 79, 127
1, 237434, Note_on_c, 1, 74, 127
1, 237434, Note_on_c, 1, 70, 127
1, 237578, Note_off_c, 1, 55, 0
1, 237580, Note_on_c, 1, 52, 127
1, 237723, Note_off_c, 1, 79, 0
1, 237723, Note_off_c, 1, 74, 0
1, 237723, Note_off_c, 1, 70, 0
1, 237725, Note_off_c, 1, 52, 0
1, 237727, Note_on_c, 1, 61, 127
1, 237873, Note_on_c, 1, 69, 127
1, 238019, Note_on_c, 1, 76, 127
1, 238163, Note_off_c, 1, 76, 0
1, 238165, Note_on_c, 1, 77, 127
1, 238305, Note_off_c, 1, 61, 0
1, 238310, Note_off_c, 1, 77, 0
1, 238312, Note_on_c, 1, 79, 127
1, 238452, Note_off_c, 1, 69, 0
1, 238458, Note_on_c, 1, 64, 127
1, 238602, Note_off_c, 1, 79, 0
1, 238602, Note_off_c, 1, 64, 0
1, 238604, Note_on_c, 1, 61, 127
1, 238604, Note_on_c, 1, 79, 127
1, 238748, Note_off_c, 1, 61, 0
1, 238750, Note_on_c, 1, 57, 127
1, 238894, Note_off_c, 1, 79, 0
1, 238894, Note_off_c, 1, 57, 0
1, 238896, Note_on_c, 1, 62, 127
1, 238896, Note_on_c, 1, 53, 127
1, 238896, Note_on_c, 1, 79, 127
1, 239042, Note_on_c, 1, 76, 127
1, 239186, Note_off_c, 1, 76, 0
1, 239188, Note_on_c, 1, 73, 127
1, 239332, Note_off_c, 1, 73, 0
1, 239334, Note_on_c, 1, 69, 127
1, 239474, Note_off_c, 1, 62, 0
1, 239474, Note_off_c, 1, 53, 0
1, 239479, Note_off_c, 1, 79, 0
1, 239481, Note_on_c, 1, 74, 127
1, 239481, Note_on_c, 1, 77, 127
1, 239627, Note_on_c, 1, 57, 127
1, 239771, Note_off_c, 1, 69, 0
1, 239771, Note_off_c, 1, 74, 0
1, 239771, Note_off_c, 1, 77, 0
1, 239771, Note_off_c, 1, 57, 0
1, 239773, Note_on_c, 1, 53, 127
1, 239773, Note_on_c, 1, 74, 127
1, 239773, Note_on_c, 1, 77, 127
1, 239773, Note_on_c, 1, 69, 127
1, 239917, Note_off_c, 1, 53, 0
1, 239919, Note_on_c, 1, 50, 127
1, 240062, Note_off_c, 1, 74, 0
1, 240062, Note_off_c, 1, 77, 0
1, 240062, Note_off_c, 1, 69, 0
1, 240064, Note_off_c, 1, 50, 0
1, 240066, Note_on_c, 1, 59, 127
1, 240212, Note_on_c, 1, 68, 127
1, 240358, Note_on_c, 1, 74, 127
1, 240502, Note_off_c, 1, 74, 0
1, 240504, Note_on_c, 1, 76, 127
1, 240644, Note_off_c, 1, 59, 0
1, 240649, Note_off_c, 1, 76, 0
1, 240651, Note_on_c, 1, 77, 127
1, 240791, Note_off_c, 1, 68, 0
1, 240797, Note_on_c, 1, 65, 127
1, 240941, Note_off_c, 1, 77, 0
1, 240941, Note_off_c, 1, 65, 0
1, 240943, Note_on_c, 1, 62, 127
1, 240943, Note_on_c, 1, 77, 127
1, 241087, Note_off_c, 1, 62, 0
1, 241089, Note_on_c, 1, 59, 127
1, 241233, Note_off_c, 1, 77, 0
1, 241233, Note_off_c, 1, 59, 0
1, 241235, Note_on_c, 1, 56, 127
1, 241235, Note_on_c, 1, 77, 127
1, 241381, Note_on_c, 1, 74, 127
1, 241525, Note_off_c, 1, 74, 0
1, 241527, Note_on_c, 1, 71, 127
1, 241671, Note_off_c, 1, 71, 0
1, 241673, Note_on_c, 1, 68, 127
1, 241813, Note_off_c, 1, 56, 0
1, 241818, Note_off_c, 1, 77, 0
1, 241820, Note_on_c, 1, 76, 127
1, 241966, Note_on_c, 1, 64, 127
1, 242110, Note_off_c, 1, 68, 0
1, 242110, Note_off_c, 1, 76, 0
1, 242110, Note_off_c, 1, 64, 0
1, 242112, Note_on_c, 1, 61, 127
1, 242112, Note_on_c, 1, 69, 127
1, 242112, Note_on_c, 1, 76, 127
1, 242112, Note_on_c, 1, 67, 127
1, 242256, Note_off_c, 1, 61, 0
1, 242258, Note_on_c, 1, 57, 127
1, 242401, Note_off_c, 1, 69, 0
1, 242401, Note_off_c, 1, 76, 0
1, 242401, Note_off_c, 1, 67, 0
1, 242403, Note_off_c, 1, 57, 0
1, 242405, Note_on_c, 1, 54, 127
1, 242551, Note_on_c, 1, 76, 127
1, 242695, Note_off_c, 1, 76, 0
1, 242697, Note_on_c, 1, 73, 127
1, 242697, Note_on_c, 1, 45, 127
1, 242841, Note_off_c, 1, 73, 0
1, 242843, Note_on_c, 1, 69, 127
1, 242983, Note_off_c, 1, 54, 0
1, 242988, Note_off_c, 1, 45, 0
1, 242988, Note_off_c, 1, 69, 0
1, 242990, Note_on_c, 1, 74, 127
1, 242990, Note_on_c, 1, 45, 127
1, 242990, Note_on_c, 1, 53, 127
1, 243136, Note_on_c, 1, 69, 127
1, 243280, Note_off_c, 1, 74, 0
1, 243280, Note_off_c, 1, 45, 0
1, 243280, Note_off_c, 1, 69, 0
1, 243282, Note_on_c, 1, 65, 127
1, 243426, Note_off_c, 1, 65, 0
1, 243428, Note_on_c, 1, 62, 127
1, 243568, Note_off_c, 1, 53, 0
1, 243573, Note_off_c, 1, 62, 0
1, 243575, Note_on_c, 1, 52, 127
1, 243721, Note_on_c, 1, 46, 127
1, 243865, Note_off_c, 1, 46, 0
1, 243867, Note_on_c, 1, 73, 127
1, 244013, Note_on_c, 1, 43, 127
1, 244153, Note_off_c, 1, 52, 0
1, 244158, Note_off_c, 1, 73, 0
1, 244158, Note_off_c, 1, 43, 0
1, 244160, Note_on_c, 1, 41, 127
1, 244304, Note_off_c, 1, 41, 0
1, 244598, Note_on_c, 1, 76, 127
1, 244598, Note_on_c, 1, 40, 127
1, 244742, Note_off_c, 1, 76, 0
1, 244742, Note_off_c, 1, 40, 0
1, 244744, Note_on_c, 1, 77, 127
1, 244744, Note_on_c, 1, 38, 127
1, 244890, Note_off_c, 1, 77, 0
1, 245038, Note_off_c, 1, 38, 0
1, 245484, Note_on_c, 1, 48, 127
1, 245630, Note_off_c, 1, 48, 0
1, 245632, Note_on_c, 1, 67, 127
1, 245928, Note_on_c, 1, 72, 127
1, 246074, Note_off_c, 1, 67, 0
1, 246224, Note_on_c, 1, 50, 127
1, 246372, Note_on_c, 1, 64, 127
1, 246514, Note_off_c, 1, 72, 0
1, 246519, Note_off_c, 1, 50, 0
1, 246519, Note_off_c, 1, 64, 0
1, 246521, Note_on_c, 1, 50, 127
1, 246521, Note_on_c, 1, 65, 127
1, 246667, Note_off_c, 1, 50, 0
1, 246669, Note_on_c, 1, 52, 127
1, 246815, Note_off_c, 1, 65, 0
1, 246815, Note_off_c, 1, 52, 0
1, 246817, Note_on_c, 1, 50, 127
1, 246817, Note_on_c, 1, 70, 127
1, 246963, Note_off_c, 1, 50, 0
1, 246965, Note_on_c, 1, 52, 127
1, 247110, Note_off_c, 1, 70, 0
1, 247112, Note_off_c, 1, 52, 0
1, 247114, Note_on_c, 1, 48, 127
1, 247114, Note_on_c, 1, 64, 127
1, 247260, Note_off_c, 1, 48, 0
1, 247262, Note_on_c, 1, 50, 127
1, 247408, Note_off_c, 1, 64, 0
1, 247408, Note_off_c, 1, 50, 0
1, 247410, Note_on_c, 1, 48, 127
1, 247410, Note_on_c, 1, 69, 127
1, 247556, Note_off_c, 1, 48, 0
1, 247558, Note_on_c, 1, 50, 127
1, 247704, Note_off_c, 1, 50, 0
1, 247706, Note_on_c, 1, 62, 127
1, 247706, Note_on_c, 1, 46, 127
1, 247852, Note_off_c, 1, 62, 0
1, 247852, Note_off_c, 1, 46, 0
1, 247854, Note_on_c, 1, 64, 127
1, 248000, Note_off_c, 1, 69, 0
1, 248000, Note_off_c, 1, 64, 0
1, 248002, Note_on_c, 1, 62, 127
1, 248002, Note_on_c, 1, 46, 127
1, 248002, Note_on_c, 1, 67, 127
1, 248148, Note_off_c, 1, 62, 0
1, 248148, Note_off_c, 1, 46, 0
1, 248150, Note_on_c, 1, 64, 127
1, 248150, Note_on_c, 1, 48, 127
1, 248296, Note_off_c, 1, 64, 0
1, 248296, Note_off_c, 1, 48, 0
1, 248298, Note_on_c, 1, 60, 127
1, 248298, Note_on_c, 1, 45, 127
1, 248444, Note_off_c, 1, 60, 0
1, 248444, Note_off_c, 1, 45, 0
1, 248592, Note_off_c, 1, 67, 0
1, 248594, Note_on_c, 1, 60, 127
1, 248594, Note_on_c, 1, 45, 127
1, 248594, Note_on_c, 1, 65, 127
1, 248740, Note_off_c, 1, 60, 0
1, 248740, Note_off_c, 1, 45, 0
1, 248742, Note_on_c, 1, 62, 127
1, 248742, Note_on_c, 1, 46, 127
1, 248888, Note_off_c, 1, 62, 0
1, 248888, Note_off_c, 1, 46, 0
1, 248890, Note_on_c, 1, 58, 127
1, 248890, Note_on_c, 1, 43, 127
1, 249036, Note_off_c, 1, 58, 0
1, 249036, Note_off_c, 1, 43, 0
1, 249184, Note_off_c, 1, 65, 0
1, 249186, Note_on_c, 1, 58, 127
1, 249186, Note_on_c, 1, 43, 127
1, 249186, Note_on_c, 1, 64, 127
1, 249332, Note_off_c, 1, 58, 0
1, 249332, Note_off_c, 1, 43, 0
1, 249334, Note_on_c, 1, 60, 127
1, 249334, Note_on_c, 1, 45, 127
1, 249480, Note_off_c, 1, 60, 0
1, 249480, Note_off_c, 1, 45, 0
1, 249482, Note_on_c, 1, 57, 127
1, 249482, Note_on_c, 1, 41, 127
1, 249628, Note_off_c, 1, 57, 0
1, 249628, Note_off_c, 1, 41, 0
1, 249776, Note_off_c, 1, 64, 0
1, 249778, Note_on_c, 1, 57, 127
1, 249778, Note_on_c, 1, 41, 127
1, 249778, Note_on_c, 1, 62, 127
1, 249924, Note_off_c, 1, 57, 0
1, 249924, Note_off_c, 1, 41, 0
1, 249926, Note_on_c, 1, 58, 127
1, 249926, Note_on_c, 1, 43, 127
1, 250072, Note_off_c, 1, 58, 0
1, 250072, Note_off_c, 1, 43, 0
1, 250074, Note_on_c, 1, 55, 127
1, 250074, Note_on_c, 1, 40, 127
1, 250220, Note_off_c, 1, 55, 0
1, 250220, Note_off_c, 1, 40, 0
1, 250368, Note_off_c, 1, 62, 0
1, 250370, Note_on_c, 1, 55, 127
1, 250370, Note_on_c, 1, 40, 127
1, 250370, Note_on_c, 1, 61, 127
1, 250516, Note_off_c, 1, 55, 0
1, 250516, Note_off_c, 1, 40, 0
1, 250518, Note_on_c, 1, 57, 127
1, 250518, Note_on_c, 1, 41, 127
1, 250664, Note_off_c, 1, 61, 0
1, 250664, Note_off_c, 1, 57, 0
1, 250664, Note_off_c, 1, 41, 0
1, 250666, Note_on_c, 1, 62, 127
1, 250666, Note_on_c, 1, 53, 127
1, 250666, Note_on_c, 1, 38, 127
1, 250812, Note_off_c, 1, 62, 0
1, 250814, Note_on_c, 1, 65, 127
1, 250960, Note_off_c, 1, 53, 0
1, 250960, Note_off_c, 1, 65, 0
1, 250962, Note_on_c, 1, 64, 127
1, 250962, Note_on_c, 1, 55, 127
1, 251108, Note_off_c, 1, 64, 0
1, 251110, Note_on_c, 1, 67, 127
1, 251256, Note_off_c, 1, 38, 0
1, 251256, Note_off_c, 1, 55, 0
1, 251256, Note_off_c, 1, 67, 0
1, 251258, Note_on_c, 1, 57, 127
1, 251258, Note_on_c, 1, 65, 127
1, 251258, Note_on_c, 1, 50, 127
1, 251404, Note_off_c, 1, 57, 0
1, 251406, Note_on_c, 1, 59, 127
1, 251552, Note_off_c, 1, 59, 0
1, 251554, Note_on_c, 1, 60, 127
1, 251700, Note_off_c, 1, 60, 0
1, 251848, Note_off_c, 1, 65, 0
1, 251850, Note_on_c, 1, 56, 127
1, 251850, Note_on_c, 1, 64, 127
1, 251996, Note_off_c, 1, 56, 0
1, 252144, Note_off_c, 1, 64, 0
1, 252146, Note_on_c, 1, 52, 127
1, 252146, Note_on_c, 1, 68, 127
1, 252146, Note_on_c, 1, 76, 127
1, 252292, Note_off_c, 1, 52, 0
1, 252440, Note_off_c, 1, 68, 0
1, 252440, Note_off_c, 1, 76, 0
1, 252442, Note_on_c, 1, 54, 127
1, 252442, Note_on_c, 1, 69, 127
1, 252588, Note_off_c, 1, 54, 0
1, 252736, Note_off_c, 1, 69, 0
1, 252738, Note_on_c, 1, 71, 127
1, 253032, Note_off_c, 1, 50, 0
1, 253032, Note_off_c, 1, 71, 0
1, 253034, Note_on_c, 1, 72, 127
1, 253034, Note_on_c, 1, 76, 127
1, 253034, Note_on_c, 1, 57, 127
1, 253034, Note_on_c, 1, 48, 127
1, 253180, Note_off_c, 1, 72, 0
1, 253180, Note_off_c, 1, 76, 0
1, 253180, Note_off_c, 1, 57, 0
1, 253182, Note_on_c, 1, 74, 127
1, 253182, Note_on_c, 1, 77, 127
1, 253182, Note_on_c, 1, 52, 127
1, 253328, Note_off_c, 1, 74, 0
1, 253328, Note_off_c, 1, 77, 0
1, 253328, Note_off_c, 1, 52, 0
1, 253476, Note_off_c, 1, 48, 0
1, 253478, Note_on_c, 1, 71, 127
1, 253478, Note_on_c, 1, 50, 127
1, 253624, Note_off_c, 1, 71, 0
1, 253624, Note_off_c, 1, 50, 0
1, 253626, Note_on_c, 1, 69, 127
1, 253772, Note_off_c, 1, 69, 0
1, 253774, Note_on_c, 1, 56, 127
1, 253920, Note_off_c, 1, 56, 0
1, 254070, Note_on_c, 1, 68, 127
1, 254070, Note_on_c, 1, 59, 127
1, 254216, Note_off_c, 1, 68, 0
1, 254216, Note_off_c, 1, 59, 0
1, 254218, Note_on_c, 1, 60, 127
1, 254511, Note_off_c, 1, 60, 0
1, 254663, Note_on_c, 1, 49, 127
1, 254810, Note_off_c, 1, 49, 0
1, 254812, Note_on_c, 1, 77, 127
1, 254812, Note_on_c, 1, 71, 127
1, 254812, Note_on_c, 1, 50, 127
1, 254958, Note_off_c, 1, 77, 0
1, 254960, Note_on_c, 1, 79, 127
1, 255105, Note_off_c, 1, 71, 0
1, 255107, Note_off_c, 1, 79, 0
1, 255109, Note_on_c, 1, 69, 127
1, 255109, Note_on_c, 1, 60, 127
1, 255402, Note_off_c, 1, 69, 0
1, 255404, Note_off_c, 1, 60, 0
1, 255406, Note_on_c, 1, 59, 127
1, 255406, Note_on_c, 1, 68, 127
1, 255406, Note_on_c, 1, 76, 127
1, 255552, Note_off_c, 1, 50, 0
1, 255699, Note_off_c, 1, 59, 0
1, 255701, Note_off_c, 1, 68, 0
1, 255701, Note_off_c, 1, 76, 0
1, 255703, Note_on_c, 1, 48, 127
1, 255703, Note_on_c, 1, 76, 127
1, 255703, Note_on_c, 1, 81, 127
1, 255849, Note_off_c, 1, 48, 0
1, 255851, Note_on_c, 1, 47, 127
1, 255997, Note_off_c, 1, 76, 0
1, 255997, Note_off_c, 1, 81, 0
1, 255997, Note_off_c, 1, 47, 0
1, 255999, Note_on_c, 1, 81, 127
1, 255999, Note_on_c, 1, 76, 127
1, 255999, Note_on_c, 1, 48, 127
1, 256145, Note_off_c, 1, 81, 0
1, 256147, Note_on_c, 1, 83, 127
1, 256292, Note_off_c, 1, 76, 0
1, 256294, Note_off_c, 1, 48, 0
1, 256294, Note_off_c, 1, 83, 0
1, 256296, Note_on_c, 1, 81, 127
1, 256296, Note_on_c, 1, 72, 127
1, 256296, Note_on_c, 1, 57, 127
1, 256296, Note_on_c, 1, 53, 127
1, 256442, Note_off_c, 1, 81, 0
1, 256444, Note_on_c, 1, 83, 127
1, 256589, Note_off_c, 1, 72, 0
1, 256589, Note_off_c, 1, 57, 0
1, 256591, Note_off_c, 1, 53, 0
1, 256591, Note_off_c, 1, 83, 0
1, 256593, Note_on_c, 1, 79, 127
1, 256593, Note_on_c, 1, 50, 127
1, 256593, Note_on_c, 1, 47, 127
1, 256593, Note_on_c, 1, 74, 127
1, 256739, Note_off_c, 1, 79, 0
1, 256741, Note_on_c, 1, 81, 127
1, 256870, Note_off_c, 1, 50, 0
1, 256870, Note_off_c, 1, 47, 0
1, 256885, Note_off_c, 1, 74, 0
1, 256887, Note_off_c, 1, 81, 0
1, 256889, Note_on_c, 1, 79, 127
1, 256889, Note_on_c, 1, 71, 127
1, 256889, Note_on_c, 1, 55, 127
1, 256889, Note_on_c, 1, 52, 127
1, 257035, Note_off_c, 1, 79, 0
1, 257037, Note_on_c, 1, 81, 127
1, 257183, Note_off_c, 1, 71, 0
1, 257183, Note_off_c, 1, 55, 0
1, 257183, Note_off_c, 1, 81, 0
1, 257185, Note_on_c, 1, 77, 127
1, 257185, Note_on_c, 1, 72, 127
1, 257185, Note_on_c, 1, 57, 127
1, 257331, Note_off_c, 1, 77, 0
1, 257475, Note_off_c, 1, 52, 0
1, 257480, Note_off_c, 1, 72, 0
1, 257480, Note_off_c, 1, 57, 0
1, 257482, Note_on_c, 1, 77, 127
1, 257482, Note_on_c, 1, 50, 127
1, 257482, Note_on_c, 1, 59, 127
1, 257482, Note_on_c, 1, 74, 127
1, 257628, Note_off_c, 1, 77, 0
1, 257630, Note_on_c, 1, 79, 127
1, 257776, Note_off_c, 1, 50, 0
1, 257776, Note_off_c, 1, 59, 0
1, 257776, Note_off_c, 1, 79, 0
1, 257778, Note_on_c, 1, 76, 127
1, 257778, Note_on_c, 1, 44, 127
1, 257924, Note_off_c, 1, 76, 0
1, 258049, Note_off_c, 1, 44, 0
1, 258072, Note_off_c, 1, 74, 0
1, 258074, Note_on_c, 1, 76, 127
1, 258074, Note_on_c, 1, 72, 127
1, 258074, Note_on_c, 1, 57, 127
1, 258074, Note_on_c, 1, 48, 127
1, 258220, Note_off_c, 1, 76, 0
1, 258222, Note_on_c, 1, 77, 127
1, 258368, Note_off_c, 1, 72, 0
1, 258368, Note_off_c, 1, 57, 0
1, 258368, Note_off_c, 1, 77, 0
1, 258370, Note_on_c, 1, 74, 127
1, 258370, Note_on_c, 1, 69, 127
1, 258370, Note_on_c, 1, 54, 127
1, 258516, Note_off_c, 1, 74, 0
1, 258660, Note_off_c, 1, 48, 0
1, 258665, Note_off_c, 1, 69, 0
1, 258665, Note_off_c, 1, 54, 0
1, 258667, Note_on_c, 1, 74, 127
1, 258667, Note_on_c, 1, 71, 127
1, 258667, Note_on_c, 1, 47, 127
1, 258667, Note_on_c, 1, 56, 127
1, 258813, Note_off_c, 1, 74, 0
1, 258815, Note_on_c, 1, 76, 127
1, 258961, Note_off_c, 1, 71, 0
1, 258961, Note_off_c, 1, 47, 0
1, 258961, Note_off_c, 1, 56, 0
1, 258961, Note_off_c, 1, 76, 0
1, 258963, Note_on_c, 1, 72, 127
1, 258963, Note_on_c, 1, 48, 127
1, 258963, Note_on_c, 1, 57, 127
1, 258963, Note_on_c, 1, 64, 127
1, 259109, Note_off_c, 1, 72, 0
1, 259111, Note_on_c, 1, 74, 127
1, 259257, Note_off_c, 1, 48, 0
1, 259257, Note_off_c, 1, 74, 0
1, 259259, Note_on_c, 1, 45, 127
1, 259553, Note_off_c, 1, 57, 0
1, 259553, Note_off_c, 1, 45, 0
1, 259555, Note_on_c, 1, 71, 127
1, 259555, Note_on_c, 1, 52, 127
1, 259555, Note_on_c, 1, 56, 127
1, 259701, Note_off_c, 1, 71, 0
1, 259849, Note_off_c, 1, 52, 0
1, 259851, Note_on_c, 1, 50, 127
1, 260145, Note_off_c, 1, 56, 0
1, 260145, Note_off_c, 1, 50, 0
1, 260147, Note_on_c, 1, 55, 127
1, 260147, Note_on_c, 1, 49, 127
1, 260147, Note_on_c, 1, 69, 127
1, 260289, Note_off_c, 1, 64, 0
1, 260294, Note_off_c, 1, 55, 0
1, 260296, Note_on_c, 1, 65, 127
1, 260442, Note_off_c, 1, 65, 0
1, 260738, Note_off_c, 1, 49, 0
1, 260740, Note_on_c, 1, 53, 127
1, 260740, Note_on_c, 1, 62, 127
1, 260886, Note_off_c, 1, 53, 0
1, 260886, Note_off_c, 1, 62, 0
1, 261332, Note_on_c, 1, 60, 127
1, 261626, Note_off_c, 1, 60, 0
1, 261628, Note_on_c, 1, 47, 127
1, 261774, Note_off_c, 1, 47, 0
1, 262218, Note_off_c, 1, 69, 0
1, 262220, Note_on_c, 1, 50, 127
1, 262220, Note_on_c, 1, 71, 127
1, 262220, Note_on_c, 1, 66, 127
1, 262366, Note_off_c, 1, 50, 0
1, 262368, Note_on_c, 1, 54, 127
1, 262514, Note_off_c, 1, 71, 0
1, 262514, Note_off_c, 1, 66, 0
1, 262514, Note_off_c, 1, 54, 0
1, 262516, Note_on_c, 1, 52, 127
1, 262516, Note_on_c, 1, 72, 127
1, 262516, Note_on_c, 1, 68, 127
1, 262662, Note_off_c, 1, 52, 0
1, 262664, Note_on_c, 1, 56, 127
1, 262810, Note_off_c, 1, 72, 0
1, 262810, Note_off_c, 1, 68, 0
1, 262810, Note_off_c, 1, 56, 0
1, 262812, Note_on_c, 1, 54, 127
1, 262812, Note_on_c, 1, 74, 127
1, 262812, Note_on_c, 1, 69, 127
1, 262958, Note_off_c, 1, 54, 0
1, 262960, Note_on_c, 1, 57, 127
1, 263106, Note_off_c, 1, 74, 0
1, 263106, Note_off_c, 1, 69, 0
1, 263106, Note_off_c, 1, 57, 0
1, 263108, Note_on_c, 1, 56, 127
1, 263108, Note_on_c, 1, 76, 127
1, 263108, Note_on_c, 1, 71, 127
1, 263254, Note_off_c, 1, 56, 0
1, 263256, Note_on_c, 1, 59, 127
1, 263402, Note_off_c, 1, 76, 0
1, 263402, Note_off_c, 1, 71, 0
1, 263402, Note_off_c, 1, 59, 0
1, 263404, Note_on_c, 1, 57, 127
1, 263404, Note_on_c, 1, 77, 127
1, 263404, Note_on_c, 1, 72, 127
1, 263550, Note_off_c, 1, 57, 0
1, 263552, Note_on_c, 1, 60, 127
1, 263698, Note_off_c, 1, 77, 0
1, 263698, Note_off_c, 1, 72, 0
1, 263698, Note_off_c, 1, 60, 0
1, 263700, Note_on_c, 1, 68, 127
1, 263700, Note_on_c, 1, 62, 127
1, 263700, Note_on_c, 1, 59, 127
1, 263846, Note_off_c, 1, 68, 0
1, 263848, Note_on_c, 1, 71, 127
1, 263994, Note_off_c, 1, 62, 0
1, 263994, Note_off_c, 1, 59, 0
1, 263994, Note_off_c, 1, 71, 0
1, 263996, Note_on_c, 1, 69, 127
1, 263996, Note_on_c, 1, 64, 127
1, 263996, Note_on_c, 1, 60, 127
1, 264142, Note_off_c, 1, 69, 0
1, 264144, Note_on_c, 1, 72, 127
1, 264290, Note_off_c, 1, 64, 0
1, 264290, Note_off_c, 1, 60, 0
1, 264290, Note_off_c, 1, 72, 0
1, 264292, Note_on_c, 1, 71, 127
1, 264292, Note_on_c, 1, 65, 127
1, 264292, Note_on_c, 1, 56, 127
1, 264438, Note_off_c, 1, 71, 0
1, 264440, Note_on_c, 1, 74, 127
1, 264586, Note_off_c, 1, 65, 0
1, 264586, Note_off_c, 1, 56, 0
1, 264586, Note_off_c, 1, 74, 0
1, 264588, Note_on_c, 1, 72, 127
1, 264588, Note_on_c, 1, 64, 127
1, 264588, Note_on_c, 1, 57, 127
1, 264734, Note_off_c, 1, 72, 0
1, 264736, Note_on_c, 1, 76, 127
1, 264882, Note_off_c, 1, 64, 0
1, 264882, Note_off_c, 1, 57, 0
1, 264882, Note_off_c, 1, 76, 0
1, 264884, Note_on_c, 1, 74, 127
1, 264884, Note_on_c, 1, 53, 127
1, 264884, Note_on_c, 1, 69, 127
1, 265032, Note_off_c, 1, 74, 0
1, 265182, Note_off_c, 1, 53, 0
1, 265184, Note_on_c, 1, 72, 127
1, 265184, Note_on_c, 1, 50, 127
1, 265332, Note_off_c, 1, 72, 0
1, 265334, Note_on_c, 1, 71, 127
1, 265482, Note_off_c, 1, 50, 0
1, 265482, Note_off_c, 1, 71, 0
1, 265484, Note_on_c, 1, 52, 127
1, 265783, Note_off_c, 1, 69, 0
1, 265783, Note_off_c, 1, 52, 0
1, 265785, Note_on_c, 1, 68, 127
1, 265785, Note_on_c, 1, 40, 127
1, 266082, Note_off_c, 1, 68, 0
1, 266082, Note_off_c, 1, 40, 0
1, 266084, Note_on_c, 1, 69, 127
1, 266084, Note_on_c, 1, 45, 127
1, 266234, Note_on_c, 1, 73, 127
1, 266382, Note_off_c, 1, 73, 0
1, 266384, Note_on_c, 1, 71, 127
1, 266532, Note_off_c, 1, 71, 0
1, 266534, Note_on_c, 1, 74, 127
1, 266677, Note_off_c, 1, 69, 0
1, 266682, Note_off_c, 1, 45, 0
1, 266682, Note_off_c, 1, 74, 0
1, 266684, Note_on_c, 1, 73, 127
1, 266684, Note_on_c, 1, 57, 127
1, 266832, Note_off_c, 1, 73, 0
1, 266832, Note_off_c, 1, 57, 0
1, 266834, Note_on_c, 1, 76, 127
1, 266834, Note_on_c, 1, 61, 127
1, 266982, Note_off_c, 1, 76, 0
1, 266982, Note_off_c, 1, 61, 0
1, 266984, Note_on_c, 1, 74, 127
1, 266984, Note_on_c, 1, 59, 127
1, 267132, Note_off_c, 1, 74, 0
1, 267132, Note_off_c, 1, 59, 0
1, 267134, Note_on_c, 1, 77, 127
1, 267134, Note_on_c, 1, 62, 127
1, 267282, Note_off_c, 1, 77, 0
1, 267282, Note_off_c, 1, 62, 0
1, 267284, Note_on_c, 1, 69, 127
1, 267284, Note_on_c, 1, 61, 127
1, 267284, Note_on_c, 1, 79, 127
1, 267432, Note_off_c, 1, 69, 0
1, 267432, Note_off_c, 1, 61, 0
1, 267434, Note_on_c, 1, 73, 127
1, 267434, Note_on_c, 1, 64, 127
1, 267582, Note_off_c, 1, 73, 0
1, 267582, Note_off_c, 1, 64, 0
1, 267584, Note_on_c, 1, 71, 127
1, 267584, Note_on_c, 1, 62, 127
1, 267732, Note_off_c, 1, 71, 0
1, 267732, Note_off_c, 1, 62, 0
1, 267734, Note_on_c, 1, 74, 127
1, 267734, Note_on_c, 1, 65, 127
1, 267882, Note_off_c, 1, 74, 0
1, 267882, Note_off_c, 1, 65, 0
1, 268034, Note_on_c, 1, 76, 127
1, 268182, Note_off_c, 1, 76, 0
1, 268184, Note_on_c, 1, 59, 127
1, 268332, Note_off_c, 1, 59, 0
1, 268334, Note_on_c, 1, 77, 127
1, 268482, Note_off_c, 1, 77, 0
1, 268636, Note_off_c, 1, 79, 0
1, 268638, Note_on_c, 1, 82, 127
1, 268790, Note_off_c, 1, 82, 0
1, 269100, Note_on_c, 1, 78, 127
1, 269100, Note_on_c, 1, 60, 127
1, 269254, Note_on_c, 1, 76, 127
1, 269406, Note_off_c, 1, 76, 0
1, 269408, Note_on_c, 1, 74, 127
1, 269560, Note_off_c, 1, 78, 0
1, 269712, Note_off_c, 1, 74, 0
1, 269714, Note_off_c, 1, 60, 0
1, 269716, Note_on_c, 1, 80, 127
1, 269716, Note_on_c, 1, 59, 127
1, 269870, Note_on_c, 1, 74, 127
1, 270020, Note_off_c, 1, 80, 0
1, 270022, Note_off_c, 1, 59, 0
1, 270022, Note_off_c, 1, 74, 0
1, 270024, Note_on_c, 1, 72, 127
1, 270024, Note_on_c, 1, 57, 127
1, 270178, Note_on_c, 1, 81, 127
1, 270330, Note_off_c, 1, 72, 0
1, 270330, Note_off_c, 1, 57, 0
1, 270332, Note_on_c, 1, 71, 127
1, 270332, Note_on_c, 1, 64, 127
1, 270484, Note_off_c, 1, 81, 0
1, 270640, Note_on_c, 1, 80, 127
1, 270640, Note_on_c, 1, 52, 127
1, 270792, Note_off_c, 1, 71, 0
1, 270794, Note_on_c, 1, 74, 127
1, 270946, Note_off_c, 1, 80, 0
1, 270946, Note_off_c, 1, 52, 0
1, 271100, Note_off_c, 1, 74, 0
1, 271102, Note_on_c, 1, 73, 127
1, 271254, Note_off_c, 1, 73, 0
1, 271256, Note_on_c, 1, 55, 127
1, 271410, Note_on_c, 1, 76, 127
1, 271562, Note_off_c, 1, 55, 0
1, 271562, Note_off_c, 1, 76, 0
1, 271564, Note_on_c, 1, 69, 127
1, 271564, Note_on_c, 1, 53, 127
1, 271718, Note_on_c, 1, 61, 127
1, 271868, Note_off_c, 1, 69, 0
1, 271870, Note_off_c, 1, 61, 0
1, 271872, Note_off_c, 1, 64, 0
1, 271872, Note_on_c, 1, 62, 127
1, 272024, Note_off_c, 1, 62, 0
1, 272332, Note_off_c, 1, 53, 0
1, 272642, Note_on_c, 1, 77, 127
1, 272794, Note_off_c, 1, 77, 0
1, 272796, Note_on_c, 1, 51, 127
1, 272796, Note_on_c, 1, 54, 127
1, 273258, Note_on_c, 1, 83, 127
1, 273410, Note_off_c, 1, 51, 0
1, 273410, Note_off_c, 1, 54, 0
1, 273410, Note_off_c, 1, 83, 0
1, 273412, Note_on_c, 1, 50, 127
1, 273412, Note_on_c, 1, 76, 127
1, 273566, Note_on_c, 1, 68, 127
1, 273718, Note_off_c, 1, 68, 0
1, 273720, Note_on_c, 1, 69, 127
1, 273872, Note_off_c, 1, 69, 0
1, 273874, Note_on_c, 1, 71, 127
1, 274026, Note_off_c, 1, 50, 0
1, 274026, Note_off_c, 1, 71, 0
1, 274028, Note_on_c, 1, 64, 127
1, 274028, Note_on_c, 1, 48, 127
1, 274182, Note_on_c, 1, 57, 127
1, 274334, Note_off_c, 1, 57, 0
1, 274336, Note_on_c, 1, 59, 127
1, 274488, Note_off_c, 1, 59, 0
1, 274490, Note_on_c, 1, 60, 127
1, 274637, Note_off_c, 1, 64, 0
1, 274642, Note_off_c, 1, 76, 0
1, 274642, Note_off_c, 1, 60, 0
1, 274644, Note_on_c, 1, 54, 127
1, 275106, Note_on_c, 1, 72, 127
1, 275258, Note_off_c, 1, 48, 0
1, 275258, Note_off_c, 1, 54, 0
1, 275258, Note_off_c, 1, 72, 0
1, 275260, Note_on_c, 1, 47, 127
1, 275260, Note_on_c, 1, 74, 127
1, 275414, Note_on_c, 1, 56, 127
1, 275566, Note_off_c, 1, 56, 0
1, 275568, Note_on_c, 1, 57, 127
1, 275720, Note_off_c, 1, 57, 0
1, 275722, Note_on_c, 1, 59, 127
1, 275869, Note_off_c, 1, 47, 0
1, 275874, Note_off_c, 1, 59, 0
1, 275876, Note_on_c, 1, 52, 127
1, 275876, Note_on_c, 1, 48, 127
1, 276053, Note_on_c, 1, 68, 127
1, 276228, Note_off_c, 1, 74, 0
1, 276228, Note_off_c, 1, 52, 0
1, 276228, Note_off_c, 1, 68, 0
1, 276230, Note_on_c, 1, 72, 127
1, 276230, Note_on_c, 1, 69, 127
1, 276392, Note_off_c, 1, 48, 0
1, 276405, Note_off_c, 1, 72, 0
1, 276407, Note_on_c, 1, 71, 127
1, 276407, Note_on_c, 1, 50, 127
1, 276582, Note_off_c, 1, 69, 0
1, 276582, Note_off_c, 1, 71, 0
1, 276582, Note_off_c, 1, 50, 0
1, 276584, Note_on_c, 1, 62, 127
1, 277313, Note_off_c, 1, 62, 0
1, 277425, Note_on_c, 1, 45, 127
1, 277425, Note_on_c, 1, 57, 127
1, 277425, Note_on_c, 1, 60, 127
1, 277425, Note_on_c, 1, 69, 127
1, 277425, Note_on_c, 1, 64, 127
1, 279625, Note_off_c, 1, 45, 0
1, 279625, Note_off_c, 1, 57, 0
1, 279625, Note_off_c, 1, 60, 0
1, 279625, Note_off_c, 1, 69, 0
1, 279625, Note_off_c, 1, 64, 0
1, 281545, Note_on_c, 1, 64, 127
1, 281545, Note_on_c, 1, 57, 127
1, 281545, Note_on_c, 1, 60, 127
1, 282254, Note_on_c, 1, 69, 127
1, 282784, Note_off_c, 1, 69, 0
1, 282849, Note_on_c, 1, 72, 127
1, 282903, Note_on_c, 1, 71, 127
1, 282936, Note_off_c, 1, 72, 0
1, 282990, Note_off_c, 1, 71, 0
1, 283551, Note_on_c, 1, 76, 127
1, 283608, Note_on_c, 1, 74, 127
1, 283638, Note_off_c, 1, 76, 0
1, 283695, Note_off_c, 1, 74, 0
1, 284205, Note_on_c, 1, 81, 127
1, 284292, Note_off_c, 1, 81, 0
1, 284294, Note_on_c, 1, 80, 127
1, 284381, Note_off_c, 1, 80, 0
1, 287263, Note_on_c, 1, 67, 127
1, 287439, Note_off_c, 1, 64, 0
1, 287453, Note_off_c, 1, 67, 0
1, 287455, Note_on_c, 1, 65, 127
1, 287735, Note_off_c, 1, 65, 0
1, 288989, Note_off_c, 1, 57, 0
1, 288989, Note_off_c, 1, 60, 0
1, 288991, Note_on_c, 1, 64, 127
1, 288991, Note_on_c, 1, 59, 127
1, 288991, Note_on_c, 1, 55, 127
1, 289202, Note_off_c, 1, 64, 0
1, 289204, Note_on_c, 1, 72, 127
1, 289415, Note_off_c, 1, 72, 0
1, 289417, Note_on_c, 1, 71, 127
1, 289628, Note_off_c, 1, 71, 0
1, 289630, Note_on_c, 1, 74, 127
1, 289734, Note_off_c, 1, 74, 0
1, 289840, Note_off_c, 1, 59, 0
1, 290268, Note_on_c, 1, 69, 127
1, 290372, Note_off_c, 1, 69, 0
1, 290374, Note_on_c, 1, 68, 127
1, 290478, Note_off_c, 1, 68, 0
1, 290690, Note_off_c, 1, 55, 0
1, 290692, Note_on_c, 1, 69, 127
1, 290692, Note_on_c, 1, 53, 127
1, 291172, Note_on_c, 1, 61, 127
1, 291290, Note_off_c, 1, 69, 0
1, 291412, Note_on_c, 1, 71, 127
1, 291530, Note_off_c, 1, 71, 0
1, 291532, Note_on_c, 1, 73, 127
1, 291650, Note_off_c, 1, 61, 0
1, 291650, Note_off_c, 1, 73, 0
1, 291652, Note_on_c, 1, 74, 127
1, 291652, Note_on_c, 1, 57, 127
1, 291770, Note_off_c, 1, 74, 0
1, 292012, Note_on_c, 1, 76, 127
1, 292130, Note_off_c, 1, 57, 0
1, 292130, Note_off_c, 1, 76, 0
1, 292132, Note_on_c, 1, 77, 127
1, 292250, Note_off_c, 1, 77, 0
1, 292612, Note_on_c, 1, 62, 127
1, 293192, Note_on_c, 1, 79, 127
1, 293332, Note_off_c, 1, 79, 0
1, 293332, Note_on_c, 1, 81, 127
1, 293450, Note_off_c, 1, 81, 0
1, 293932, Note_on_c, 1, 72, 127
1, 294050, Note_off_c, 1, 72, 0
1, 294517, Note_off_c, 1, 53, 0
1, 294532, Note_on_c, 1, 68, 127
1, 294532, Note_on_c, 1, 52, 127
1, 294650, Note_off_c, 1, 68, 0
1, 295487, Note_off_c, 1, 62, 0
1, 295491, Note_on_c, 1, 60, 127
1, 295967, Note_off_c, 1, 60, 0
1, 295969, Note_on_c, 1, 59, 127
1, 296208, Note_off_c, 1, 59, 0
1, 298354, Note_off_c, 1, 52, 0
1, 298368, Note_on_c, 1, 71, 127
1, 298368, Note_on_c, 1, 56, 127
1, 298368, Note_on_c, 1, 52, 127
1, 298514, Note_off_c, 1, 71, 0
1, 298516, Note_on_c, 1, 72, 127
1, 298662, Note_off_c, 1, 72, 0
1, 298812, Note_on_c, 1, 69, 127
1, 298958, Note_off_c, 1, 69, 0
1, 298960, Note_on_c, 1, 68, 127
1, 299106, Note_off_c, 1, 68, 0
1, 299254, Note_off_c, 1, 56, 0
1, 299254, Note_off_c, 1, 52, 0
1, 299256, Note_on_c, 1, 68, 127
1, 299256, Note_on_c, 1, 54, 127
1, 299256, Note_on_c, 1, 57, 127
1, 299402, Note_off_c, 1, 68, 0
1, 299404, Note_on_c, 1, 66, 127
1, 299550, Note_off_c, 1, 54, 0
1, 299550, Note_off_c, 1, 57, 0
1, 299550, Note_off_c, 1, 66, 0
1, 299552, Note_on_c, 1, 64, 127
1, 299552, Note_on_c, 1, 56, 127
1, 299552, Note_on_c, 1, 59, 127
1, 299698, Note_off_c, 1, 64, 0
1, 299700, Note_on_c, 1, 71, 127
1, 299846, Note_off_c, 1, 71, 0
1, 299848, Note_on_c, 1, 72, 127
1, 299994, Note_off_c, 1, 72, 0
1, 299996, Note_on_c, 1, 74, 127
1, 300142, Note_off_c, 1, 74, 0
1, 300144, Note_on_c, 1, 76, 127
1, 300290, Note_off_c, 1, 56, 0
1, 300292, Note_on_c, 1, 52, 127
1, 300438, Note_off_c, 1, 52, 0
1, 300440, Note_on_c, 1, 54, 127
1, 300586, Note_off_c, 1, 54, 0
1, 300734, Note_off_c, 1, 59, 0
1, 300736, Note_on_c, 1, 60, 127
1, 300736, Note_on_c, 1, 57, 127
1, 300882, Note_off_c, 1, 76, 0
1, 301030, Note_off_c, 1, 60, 0
1, 301032, Note_on_c, 1, 62, 127
1, 301326, Note_off_c, 1, 62, 0
1, 301920, Note_on_c, 1, 69, 127
1, 302066, Note_off_c, 1, 69, 0
1, 302512, Note_on_c, 1, 77, 127
1, 302658, Note_off_c, 1, 77, 0
1, 302802, Note_off_c, 1, 57, 0
1, 302809, Note_on_c, 1, 79, 127
1, 302809, Note_on_c, 1, 59, 127
1, 302809, Note_on_c, 1, 62, 127
1, 302955, Note_off_c, 1, 79, 0
1, 302957, Note_on_c, 1, 77, 127
1, 303103, Note_off_c, 1, 59, 0
1, 303103, Note_off_c, 1, 62, 0
1, 303103, Note_off_c, 1, 77, 0
1, 303105, Note_on_c, 1, 76, 127
1, 303105, Note_on_c, 1, 60, 127
1, 303251, Note_off_c, 1, 76, 0
1, 303253, Note_on_c, 1, 64, 127
1, 303253, Note_on_c, 1, 79, 127
1, 303399, Note_off_c, 1, 64, 0
1, 303399, Note_off_c, 1, 79, 0
1, 303401, Note_on_c, 1, 65, 127
1, 303401, Note_on_c, 1, 81, 127
1, 303547, Note_off_c, 1, 65, 0
1, 303547, Note_off_c, 1, 81, 0
1, 303549, Note_on_c, 1, 62, 127
1, 303549, Note_on_c, 1, 83, 127
1, 303695, Note_off_c, 1, 62, 0
1, 303695, Note_off_c, 1, 83, 0
1, 303697, Note_on_c, 1, 84, 127
1, 303843, Note_off_c, 1, 84, 0
1, 304287, Note_off_c, 1, 60, 0
1, 304289, Note_on_c, 1, 77, 127
1, 304289, Note_on_c, 1, 62, 127
1, 304435, Note_off_c, 1, 77, 0
1, 304437, Note_on_c, 1, 74, 127
1, 304583, Note_off_c, 1, 74, 0
1, 304585, Note_on_c, 1, 76, 127
1, 304731, Note_off_c, 1, 76, 0
1, 304881, Note_on_c, 1, 79, 127
1, 304881, Note_on_c, 1, 59, 127
1, 305027, Note_off_c, 1, 79, 0
1, 305471, Note_off_c, 1, 62, 0
1, 305471, Note_off_c, 1, 59, 0
1, 305473, Note_on_c, 1, 76, 127
1, 305473, Note_on_c, 1, 60, 127
1, 305619, Note_off_c, 1, 76, 0
1, 305621, Note_on_c, 1, 77, 127
1, 305767, Note_off_c, 1, 77, 0
1, 305917, Note_on_c, 1, 74, 127
1, 306063, Note_off_c, 1, 60, 0
1, 306063, Note_off_c, 1, 74, 0
1, 306065, Note_on_c, 1, 76, 127
1, 306065, Note_on_c, 1, 59, 127
1, 306065, Note_on_c, 1, 55, 127
1, 306211, Note_off_c, 1, 76, 0
1, 306213, Note_on_c, 1, 71, 127
1, 306359, Note_off_c, 1, 71, 0
1, 306361, Note_on_c, 1, 72, 127
1, 306507, Note_off_c, 1, 72, 0
1, 306509, Note_on_c, 1, 74, 127
1, 306655, Note_off_c, 1, 59, 0
1, 306655, Note_off_c, 1, 55, 0
1, 306655, Note_off_c, 1, 74, 0
1, 306657, Note_on_c, 1, 72, 127
1, 306657, Note_on_c, 1, 57, 127
1, 306803, Note_off_c, 1, 72, 0
1, 306805, Note_on_c, 1, 74, 127
1, 306951, Note_off_c, 1, 74, 0
1, 307101, Note_on_c, 1, 71, 127
1, 307247, Note_off_c, 1, 57, 0
1, 307247, Note_off_c, 1, 71, 0
1, 307249, Note_on_c, 1, 72, 127
1, 307249, Note_on_c, 1, 55, 127
1, 307249, Note_on_c, 1, 52, 127
1, 307395, Note_off_c, 1, 72, 0
1, 307397, Note_on_c, 1, 67, 127
1, 307543, Note_off_c, 1, 67, 0
1, 307545, Note_on_c, 1, 69, 127
1, 307691, Note_off_c, 1, 69, 0
1, 307693, Note_on_c, 1, 70, 127
1, 307839, Note_off_c, 1, 55, 0
1, 307839, Note_off_c, 1, 52, 0
1, 307839, Note_off_c, 1, 70, 0
1, 307841, Note_on_c, 1, 69, 127
1, 307841, Note_on_c, 1, 53, 127
1, 307987, Note_off_c, 1, 69, 0
1, 307989, Note_on_c, 1, 70, 127
1, 308135, Note_off_c, 1, 70, 0
1, 308285, Note_on_c, 1, 67, 127
1, 308431, Note_off_c, 1, 53, 0
1, 308431, Note_off_c, 1, 67, 0
1, 308433, Note_on_c, 1, 69, 127
1, 308433, Note_on_c, 1, 49, 127
1, 308433, Note_on_c, 1, 52, 127
1, 308579, Note_off_c, 1, 69, 0
1, 308581, Note_on_c, 1, 64, 127
1, 308727, Note_off_c, 1, 64, 0
1, 308729, Note_on_c, 1, 65, 127
1, 308875, Note_off_c, 1, 65, 0
1, 308877, Note_on_c, 1, 67, 127
1, 309023, Note_off_c, 1, 49, 0
1, 309023, Note_off_c, 1, 52, 0
1, 309023, Note_off_c, 1, 67, 0
1, 309025, Note_on_c, 1, 65, 127
1, 309025, Note_on_c, 1, 50, 127
1, 309171, Note_off_c, 1, 65, 0
1, 309173, Note_on_c, 1, 67, 127
1, 309319, Note_off_c, 1, 67, 0
1, 309469, Note_on_c, 1, 64, 127
1, 309615, Note_off_c, 1, 50, 0
1, 309615, Note_off_c, 1, 64, 0
1, 309617, Note_on_c, 1, 65, 127
1, 309617, Note_on_c, 1, 50, 127
1, 309617, Note_on_c, 1, 47, 127
1, 309617, Note_on_c, 1, 44, 127
1, 309763, Note_off_c, 1, 65, 0
1, 309765, Note_on_c, 1, 59, 127
1, 309911, Note_off_c, 1, 50, 0
1, 309911, Note_off_c, 1, 59, 0
1, 309913, Note_on_c, 1, 60, 127
1, 309913, Note_on_c, 1, 52, 127
1, 310059, Note_off_c, 1, 60, 0
1, 310061, Note_on_c, 1, 62, 127
1, 310203, Note_off_c, 1, 47, 0
1, 310203, Note_off_c, 1, 44, 0
1, 310208, Note_off_c, 1, 62, 0
1, 310210, Note_on_c, 1, 45, 127
1, 310500, Note_off_c, 1, 52, 0
1, 310803, Note_on_c, 1, 57, 127
1, 310951, Note_on_c, 1, 64, 127
1, 311097, Note_off_c, 1, 45, 0
1, 311097, Note_off_c, 1, 64, 0
1, 311395, Note_on_c, 1, 48, 127
1, 311689, Note_off_c, 1, 48, 0
1, 312135, Note_on_c, 1, 67, 127
1, 312281, Note_off_c, 1, 67, 0
1, 312283, Note_on_c, 1, 66, 127
1, 312429, Note_off_c, 1, 66, 0
1, 312431, Note_on_c, 1, 69, 127
1, 312576, Note_off_c, 1, 57, 0
1, 312578, Note_off_c, 1, 69, 0
1, 312580, Note_on_c, 1, 68, 127
1, 312580, Note_on_c, 1, 52, 127
1, 312580, Note_on_c, 1, 59, 127
1, 312726, Note_off_c, 1, 68, 0
1, 312728, Note_on_c, 1, 69, 127
1, 312874, Note_off_c, 1, 52, 0
1, 312874, Note_off_c, 1, 69, 0
1, 312876, Note_on_c, 1, 66, 127
1, 312876, Note_on_c, 1, 51, 127
1, 313022, Note_off_c, 1, 66, 0
1, 313170, Note_off_c, 1, 51, 0
1, 313320, Note_on_c, 1, 71, 127
1, 313466, Note_off_c, 1, 71, 0
1, 313468, Note_on_c, 1, 54, 127
1, 313616, Note_on_c, 1, 72, 127
1, 313762, Note_off_c, 1, 59, 0
1, 313762, Note_off_c, 1, 54, 0
1, 313762, Note_off_c, 1, 72, 0
1, 313764, Note_on_c, 1, 71, 127
1, 313764, Note_on_c, 1, 56, 127
1, 313764, Note_on_c, 1, 64, 127
1, 313910, Note_off_c, 1, 71, 0
1, 313912, Note_on_c, 1, 72, 127
1, 314058, Note_off_c, 1, 56, 0
1, 314058, Note_off_c, 1, 72, 0
1, 314060, Note_on_c, 1, 69, 127
1, 314060, Note_on_c, 1, 54, 127
1, 314206, Note_off_c, 1, 69, 0
1, 314354, Note_off_c, 1, 54, 0
1, 314504, Note_on_c, 1, 74, 127
1, 314650, Note_off_c, 1, 74, 0
1, 314652, Note_on_c, 1, 52, 127
1, 314946, Note_off_c, 1, 64, 0
1, 314946, Note_off_c, 1, 52, 0
1, 314948, Note_on_c, 1, 72, 127
1, 314948, Note_on_c, 1, 57, 127
1, 314948, Note_on_c, 1, 64, 127
1, 315094, Note_off_c, 1, 72, 0
1, 315096, Note_on_c, 1, 74, 127
1, 315242, Note_off_c, 1, 57, 0
1, 315242, Note_off_c, 1, 74, 0
1, 315244, Note_on_c, 1, 71, 127
1, 315244, Note_on_c, 1, 56, 127
1, 315390, Note_off_c, 1, 71, 0
1, 315538, Note_off_c, 1, 56, 0
1, 315688, Note_on_c, 1, 76, 127
1, 315834, Note_off_c, 1, 76, 0
1, 315836, Note_on_c, 1, 59, 127
1, 315984, Note_on_c, 1, 77, 127
1, 316130, Note_off_c, 1, 64, 0
1, 316130, Note_off_c, 1, 59, 0
1, 316130, Note_off_c, 1, 77, 0
1, 316132, Note_on_c, 1, 76, 127
1, 316132, Note_on_c, 1, 60, 127
1, 316132, Note_on_c, 1, 69, 127
1, 316278, Note_off_c, 1, 76, 0
1, 316280, Note_on_c, 1, 77, 127
1, 316426, Note_off_c, 1, 60, 0
1, 316426, Note_off_c, 1, 77, 0
1, 316428, Note_on_c, 1, 74, 127
1, 316428, Note_on_c, 1, 59, 127
1, 316574, Note_off_c, 1, 74, 0
1, 316722, Note_off_c, 1, 59, 0
1, 316872, Note_on_c, 1, 79, 127
1, 317018, Note_off_c, 1, 79, 0
1, 317020, Note_on_c, 1, 78, 127
1, 317020, Note_on_c, 1, 57, 127
1, 317166, Note_off_c, 1, 78, 0
1, 317168, Note_on_c, 1, 81, 127
1, 317314, Note_off_c, 1, 69, 0
1, 317314, Note_off_c, 1, 57, 0
1, 317314, Note_off_c, 1, 81, 0
1, 317316, Note_on_c, 1, 80, 127
1, 317316, Note_on_c, 1, 64, 127
1, 317316, Note_on_c, 1, 71, 127
1, 317462, Note_off_c, 1, 80, 0
1, 317464, Note_on_c, 1, 81, 127
1, 317610, Note_off_c, 1, 64, 0
1, 317610, Note_off_c, 1, 81, 0
1, 317612, Note_on_c, 1, 78, 127
1, 317612, Note_on_c, 1, 63, 127
1, 317758, Note_off_c, 1, 78, 0
1, 317906, Note_off_c, 1, 63, 0
1, 318056, Note_on_c, 1, 83, 127
1, 318202, Note_off_c, 1, 83, 0
1, 318204, Note_on_c, 1, 66, 127
1, 318352, Note_on_c, 1, 84, 127
1, 318498, Note_off_c, 1, 71, 0
1, 318498, Note_off_c, 1, 66, 0
1, 318498, Note_off_c, 1, 84, 0
1, 318500, Note_on_c, 1, 83, 127
1, 318500, Note_on_c, 1, 68, 127
1, 318500, Note_on_c, 1, 71, 127
1, 318646, Note_off_c, 1, 83, 0
1, 318648, Note_on_c, 1, 81, 127
1, 318794, Note_off_c, 1, 81, 0
1, 318796, Note_on_c, 1, 80, 127
1, 318942, Note_off_c, 1, 80, 0
1, 318944, Note_on_c, 1, 78, 127
1, 319090, Note_off_c, 1, 78, 0
1, 319092, Note_on_c, 1, 76, 127
1, 319238, Note_off_c, 1, 76, 0
1, 319240, Note_on_c, 1, 74, 127
1, 319386, Note_off_c, 1, 68, 0
1, 319386, Note_off_c, 1, 71, 0
1, 319386, Note_off_c, 1, 74, 0
1, 319388, Note_on_c, 1, 72, 127
1, 319388, Note_on_c, 1, 64, 127
1, 319534, Note_off_c, 1, 72, 0
1, 319536, Note_on_c, 1, 71, 127
1, 319682, Note_off_c, 1, 64, 0
1, 319682, Note_off_c, 1, 71, 0
1, 319684, Note_on_c, 1, 69, 127
1, 319684, Note_on_c, 1, 72, 127
1, 319830, Note_off_c, 1, 69, 0
1, 319832, Note_on_c, 1, 67, 127
1, 319978, Note_off_c, 1, 67, 0
1, 319980, Note_on_c, 1, 65, 127
1, 320126, Note_off_c, 1, 65, 0
1, 320128, Note_on_c, 1, 64, 127
1, 320270, Note_off_c, 1, 72, 0
1, 320275, Note_off_c, 1, 64, 0
1, 320277, Note_on_c, 1, 62, 127
1, 320423, Note_off_c, 1, 62, 0
1, 320425, Note_on_c, 1, 60, 127
1, 320425, Note_on_c, 1, 72, 127
1, 320571, Note_off_c, 1, 60, 0
1, 320571, Note_off_c, 1, 72, 0
1, 320573, Note_on_c, 1, 59, 127
1, 320573, Note_on_c, 1, 74, 127
1, 320719, Note_off_c, 1, 59, 0
1, 320719, Note_off_c, 1, 74, 0
1, 320721, Note_on_c, 1, 57, 127
1, 320721, Note_on_c, 1, 76, 127
1, 320867, Note_off_c, 1, 57, 0
1, 320867, Note_off_c, 1, 76, 0
1, 320869, Note_on_c, 1, 77, 127
1, 320869, Note_on_c, 1, 62, 127
1, 321015, Note_off_c, 1, 77, 0
1, 321017, Note_on_c, 1, 76, 127
1, 321163, Note_off_c, 1, 76, 0
1, 321165, Note_on_c, 1, 74, 127
1, 321165, Note_on_c, 1, 64, 127
1, 321311, Note_off_c, 1, 74, 0
1, 321313, Note_on_c, 1, 72, 127
1, 321459, Note_off_c, 1, 64, 0
1, 321459, Note_off_c, 1, 72, 0
1, 321461, Note_on_c, 1, 71, 127
1, 321461, Note_on_c, 1, 65, 127
1, 321607, Note_off_c, 1, 71, 0
1, 321609, Note_on_c, 1, 69, 127
1, 321755, Note_off_c, 1, 62, 0
1, 321755, Note_off_c, 1, 65, 0
1, 321755, Note_off_c, 1, 69, 0
1, 321757, Note_on_c, 1, 64, 127
1, 321757, Note_on_c, 1, 68, 127
1, 321903, Note_off_c, 1, 64, 0
1, 321903, Note_off_c, 1, 68, 0
1, 321905, Note_on_c, 1, 62, 127
1, 321905, Note_on_c, 1, 66, 127
1, 322051, Note_off_c, 1, 62, 0
1, 322051, Note_off_c, 1, 66, 0
1, 322053, Note_on_c, 1, 68, 127
1, 322053, Note_on_c, 1, 64, 127
1, 322199, Note_off_c, 1, 68, 0
1, 322201, Note_on_c, 1, 71, 127
1, 322347, Note_off_c, 1, 71, 0
1, 322349, Note_on_c, 1, 72, 127
1, 322495, Note_off_c, 1, 72, 0
1, 322497, Note_on_c, 1, 74, 127
1, 322643, Note_off_c, 1, 74, 0
1, 322645, Note_on_c, 1, 76, 127
1, 322791, Note_off_c, 1, 76, 0
1, 323235, Note_off_c, 1, 64, 0
1, 323237, Note_on_c, 1, 69, 127
1, 323237, Note_on_c, 1, 64, 127
1, 323237, Note_on_c, 1, 60, 127
1, 323383, Note_off_c, 1, 69, 0
1, 323385, Note_on_c, 1, 76, 127
1, 323531, Note_off_c, 1, 76, 0
1, 323533, Note_on_c, 1, 77, 127
1, 323679, Note_off_c, 1, 77, 0
1, 323681, Note_on_c, 1, 79, 127
1, 323827, Note_off_c, 1, 79, 0
1, 323829, Note_on_c, 1, 81, 127
1, 323975, Note_off_c, 1, 81, 0
1, 324123, Note_off_c, 1, 64, 0
1, 324273, Note_on_c, 1, 72, 127
1, 324419, Note_off_c, 1, 60, 0
1, 324419, Note_off_c, 1, 72, 0
1, 324421, Note_on_c, 1, 74, 127
1, 324421, Note_on_c, 1, 69, 127
1, 324421, Note_on_c, 1, 59, 127
1, 324567, Note_off_c, 1, 74, 0
1, 324569, Note_on_c, 1, 78, 127
1, 324715, Note_off_c, 1, 78, 0
1, 324717, Note_on_c, 1, 80, 127
1, 324863, Note_off_c, 1, 80, 0
1, 324865, Note_on_c, 1, 81, 127
1, 325011, Note_off_c, 1, 81, 0
1, 325013, Note_on_c, 1, 83, 127
1, 325159, Note_off_c, 1, 83, 0
1, 325309, Note_on_c, 1, 77, 127
1, 325455, Note_off_c, 1, 77, 0
1, 325457, Note_on_c, 1, 73, 127
1, 325603, Note_off_c, 1, 69, 0
1, 325603, Note_off_c, 1, 73, 0
1, 325605, Note_on_c, 1, 68, 127
1, 325753, Note_on_c, 1, 76, 127
1, 325899, Note_off_c, 1, 76, 0
1, 326194, Note_off_c, 1, 59, 0
1, 326196, Note_off_c, 1, 68, 0
1, 326198, Note_on_c, 1, 77, 127
1, 326198, Note_on_c, 1, 59, 127
1, 326198, Note_on_c, 1, 56, 127
1, 326344, Note_off_c, 1, 77, 0
1, 326346, Note_on_c, 1, 74, 127
1, 326492, Note_off_c, 1, 74, 0
1, 326494, Note_on_c, 1, 76, 127
1, 326640, Note_off_c, 1, 76, 0
1, 326642, Note_on_c, 1, 71, 127
1, 326788, Note_off_c, 1, 59, 0
1, 326788, Note_off_c, 1, 56, 0
1, 326788, Note_off_c, 1, 71, 0
1, 326790, Note_on_c, 1, 72, 127
1, 326790, Note_on_c, 1, 57, 127
1, 326936, Note_off_c, 1, 72, 0
1, 326938, Note_on_c, 1, 74, 127
1, 327084, Note_off_c, 1, 74, 0
1, 327086, Note_on_c, 1, 76, 127
1, 327234, Note_on_c, 1, 71, 127
1, 327379, Note_off_c, 1, 76, 0
1, 327381, Note_off_c, 1, 71, 0
1, 327531, Note_on_c, 1, 68, 127
1, 327677, Note_off_c, 1, 68, 0
1, 327679, Note_on_c, 1, 69, 127
1, 327825, Note_off_c, 1, 57, 0
1, 327827, Note_on_c, 1, 51, 127
1, 327972, Note_off_c, 1, 69, 0
1, 327974, Note_off_c, 1, 51, 0
1, 327976, Note_on_c, 1, 52, 127
1, 328124, Note_on_c, 1, 72, 127
1, 328270, Note_off_c, 1, 72, 0
1, 328272, Note_on_c, 1, 76, 127
1, 328420, Note_on_c, 1, 71, 127
1, 328565, Note_off_c, 1, 76, 0
1, 328567, Note_off_c, 1, 71, 0
1, 328717, Note_on_c, 1, 68, 127
1, 328863, Note_off_c, 1, 68, 0
1, 328865, Note_on_c, 1, 69, 127
1, 329011, Note_off_c, 1, 52, 0
1, 329013, Note_on_c, 1, 47, 127
1, 329158, Note_off_c, 1, 69, 0
1, 329160, Note_off_c, 1, 47, 0
1, 329162, Note_on_c, 1, 48, 127
1, 329310, Note_on_c, 1, 72, 127
1, 329456, Note_off_c, 1, 72, 0
1, 329458, Note_on_c, 1, 76, 127
1, 329606, Note_on_c, 1, 71, 127
1, 329751, Note_off_c, 1, 76, 0
1, 329753, Note_off_c, 1, 71, 0
1, 329903, Note_on_c, 1, 68, 127
1, 330049, Note_off_c, 1, 68, 0
1, 330051, Note_on_c, 1, 69, 127
1, 330197, Note_off_c, 1, 48, 0
1, 330199, Note_on_c, 1, 44, 127
1, 330344, Note_off_c, 1, 69, 0
1, 330346, Note_off_c, 1, 44, 0
1, 330348, Note_on_c, 1, 45, 127
1, 330496, Note_on_c, 1, 72, 127
1, 330642, Note_off_c, 1, 72, 0
1, 330644, Note_on_c, 1, 76, 127
1, 330792, Note_on_c, 1, 71, 127
1, 330937, Note_off_c, 1, 76, 0
1, 330939, Note_off_c, 1, 71, 0
1, 331089, Note_on_c, 1, 68, 127
1, 331235, Note_off_c, 1, 68, 0
1, 331237, Note_on_c, 1, 69, 127
1, 331383, Note_off_c, 1, 45, 0
1, 331385, Note_on_c, 1, 36, 127
1, 331530, Note_off_c, 1, 69, 0
1, 331532, Note_off_c, 1, 36, 0
1, 331534, Note_on_c, 1, 38, 127
1, 331682, Note_on_c, 1, 72, 127
1, 331828, Note_off_c, 1, 72, 0
1, 331830, Note_on_c, 1, 76, 127
1, 331978, Note_on_c, 1, 71, 127
1, 332123, Note_off_c, 1, 76, 0
1, 332125, Note_off_c, 1, 71, 0
1, 332275, Note_on_c, 1, 68, 127
1, 332421, Note_off_c, 1, 68, 0
1, 332423, Note_on_c, 1, 69, 127
1, 332569, Note_off_c, 1, 38, 0
1, 332716, Note_off_c, 1, 69, 0
1, 332720, Note_on_c, 1, 40, 127
1, 332868, Note_on_c, 1, 72, 127
1, 333014, Note_off_c, 1, 72, 0
1, 333016, Note_on_c, 1, 76, 127
1, 333164, Note_on_c, 1, 71, 127
1, 333309, Note_off_c, 1, 76, 0
1, 333311, Note_off_c, 1, 71, 0
1, 333461, Note_on_c, 1, 68, 127
1, 333607, Note_off_c, 1, 68, 0
1, 333609, Note_on_c, 1, 69, 127
1, 333755, Note_off_c, 1, 40, 0
1, 333902, Note_off_c, 1, 69, 0
1, 333922, Note_on_c, 1, 45, 127
1, 334070, Note_on_c, 1, 72, 127
1, 334216, Note_off_c, 1, 72, 0
1, 334218, Note_on_c, 1, 76, 127
1, 334364, Note_off_c, 1, 76, 0
1, 334366, Note_on_c, 1, 71, 127
1, 334512, Note_off_c, 1, 71, 0
1, 334662, Note_on_c, 1, 68, 127
1, 334662, Note_on_c, 1, 47, 127
1, 334808, Note_off_c, 1, 68, 0
1, 334808, Note_off_c, 1, 47, 0
1, 334810, Note_on_c, 1, 69, 127
1, 334810, Note_on_c, 1, 48, 127
1, 334956, Note_off_c, 1, 69, 0
1, 334956, Note_off_c, 1, 48, 0
1, 334958, Note_on_c, 1, 50, 127
1, 335104, Note_off_c, 1, 50, 0
1, 335106, Note_on_c, 1, 52, 127
1, 335254, Note_on_c, 1, 64, 127
1, 335400, Note_off_c, 1, 64, 0
1, 335550, Note_on_c, 1, 60, 127
1, 335696, Note_off_c, 1, 60, 0
1, 335846, Note_on_c, 1, 57, 127
1, 336286, Note_off_c, 1, 52, 0
1, 336422, Note_off_c, 1, 45, 0
1, 338346, Note_off_c, 1, 57, 0
1, 340326, Note_on_c, 1, 64, 127
1, 340455, Note_on_c, 1, 69, 127
1, 340455, Note_on_c, 1, 72, 127
1, 340455, Note_on_c, 1, 76, 127
1, 340455, Note_on_c, 1, 57, 127
1, 340455, Note_on_c, 1, 45, 127
1, 340703, Note_off_c, 1, 64, 0
1, 340712, Note_off_c, 1, 69, 0
1, 340712, Note_off_c, 1, 72, 0
1, 340712, Note_off_c, 1, 76, 0
1, 340712, Note_off_c, 1, 57, 0
1, 340712, Note_off_c, 1, 45, 0
1, 340719, Note_on_c, 1, 72, 127
1, 340719, Note_on_c, 1, 45, 127
1, 340719, Note_on_c, 1, 57, 127
1, 340719, Note_on_c, 1, 64, 127
1, 340719, Note_on_c, 1, 69, 127
1, 340719, Note_on_c, 1, 76, 127
1, 340827, Note_off_c, 1, 72, 0
1, 340827, Note_off_c, 1, 45, 0
1, 340827, Note_off_c, 1, 57, 0
1, 340827, Note_off_c, 1, 64, 0
1, 340827, Note_off_c, 1, 69, 0
1, 340827, Note_off_c, 1, 76, 0
1, 340843, Note_on_c, 1, 45, 127
1, 340843, Note_on_c, 1, 64, 127
1, 340843, Note_on_c, 1, 69, 127
1, 340843, Note_on_c, 1, 72, 127
1, 340843, Note_on_c, 1, 76, 127
1, 340971, Note_off_c, 1, 45, 0
1, 340972, Note_on_c, 1, 57, 127
1, 341100, Note_off_c, 1, 57, 0
1, 341101, Note_on_c, 1, 55, 127
1, 341229, Note_off_c, 1, 55, 0
1, 341230, Note_on_c, 1, 53, 127
1, 341358, Note_off_c, 1, 53, 0
1, 341359, Note_on_c, 1, 52, 127
1, 341487, Note_off_c, 1, 52, 0
1, 341488, Note_on_c, 1, 50, 127
1, 341616, Note_off_c, 1, 50, 0
1, 341617, Note_on_c, 1, 48, 127
1, 341745, Note_off_c, 1, 48, 0
1, 341746, Note_on_c, 1, 47, 127
1, 341874, Note_off_c, 1, 64, 0
1, 341874, Note_off_c, 1, 69, 0
1, 341874, Note_off_c, 1, 72, 0
1, 341874, Note_off_c, 1, 47, 0
1, 342003, Note_off_c, 1, 76, 0
1, 342004, Note_on_c, 1, 81, 127
1, 342132, Note_off_c, 1, 81, 0
1, 342133, Note_on_c, 1, 79, 127
1, 342261, Note_off_c, 1, 79, 0
1, 342649, Note_on_c, 1, 77, 127
1, 342777, Note_off_c, 1, 77, 0
1, 342907, Note_on_c, 1, 77, 127
1, 342907, Note_on_c, 1, 50, 127
1, 343036, Note_on_c, 1, 74, 127
1, 343164, Note_off_c, 1, 74, 0
1, 343165, Note_on_c, 1, 72, 127
1, 343165, Note_on_c, 1, 53, 127
1, 343293, Note_off_c, 1, 72, 0
1, 343422, Note_off_c, 1, 53, 0
1, 343423, Note_on_c, 1, 69, 127
1, 343423, Note_on_c, 1, 57, 127
1, 343551, Note_off_c, 1, 69, 0
1, 343680, Note_off_c, 1, 57, 0
1, 343681, Note_on_c, 1, 71, 127
1, 343681, Note_on_c, 1, 62, 127
1, 343809, Note_off_c, 1, 71, 0
1, 343938, Note_off_c, 1, 77, 0
1, 343938, Note_off_c, 1, 50, 0
1, 343938, Note_off_c, 1, 62, 0
1, 343939, Note_on_c, 1, 68, 127
1, 343939, Note_on_c, 1, 59, 127
1, 343939, Note_on_c, 1, 52, 127
1, 344068, Note_on_c, 1, 76, 127
1, 344195, Note_off_c, 1, 68, 0
1, 344196, Note_off_c, 1, 76, 0
1, 344197, Note_on_c, 1, 74, 127
1, 344325, Note_off_c, 1, 59, 0
1, 344325, Note_off_c, 1, 74, 0
1, 344326, Note_on_c, 1, 57, 127
1, 344454, Note_off_c, 1, 57, 0
1, 344455, Note_on_c, 1, 71, 127
1, 344455, Note_on_c, 1, 56, 127
1, 344583, Note_off_c, 1, 71, 0
1, 344583, Note_off_c, 1, 56, 0
1, 344713, Note_on_c, 1, 72, 127
1, 344841, Note_off_c, 1, 72, 0
1, 344970, Note_off_c, 1, 52, 0
1, 344971, Note_on_c, 1, 57, 127
1, 344971, Note_on_c, 1, 45, 127
1, 344971, Note_on_c, 1, 72, 127
1, 345100, Note_on_c, 1, 71, 127
1, 345228, Note_off_c, 1, 71, 0
1, 345229, Note_on_c, 1, 69, 127
1, 345357, Note_off_c, 1, 57, 0
1, 345357, Note_off_c, 1, 45, 0
1, 345357, Note_off_c, 1, 69, 0
1, 345358, Note_on_c, 1, 68, 127
1, 345358, Note_on_c, 1, 47, 127
1, 345486, Note_off_c, 1, 68, 0
1, 345486, Note_off_c, 1, 47, 0
1, 345487, Note_on_c, 1, 48, 127
1, 345744, Note_off_c, 1, 72, 0
1, 345745, Note_on_c, 1, 74, 127
1, 345873, Note_off_c, 1, 48, 0
1, 345873, Note_off_c, 1, 74, 0
1, 346003, Note_on_c, 1, 50, 127
1, 346389, Note_off_c, 1, 50, 0
1, 346519, Note_on_c, 1, 52, 127
1, 346905, Note_off_c, 1, 52, 0
1, 347035, Note_on_c, 1, 53, 127
1, 347421, Note_off_c, 1, 53, 0
1, 348841, Note_on_c, 1, 40, 127
1, 349098, Note_off_c, 1, 40, 0
1, 349486, Note_on_c, 1, 67, 127
1, 349614, Note_off_c, 1, 67, 0
1, 349744, Note_on_c, 1, 65, 127
1, 349872, Note_off_c, 1, 65, 0
1, 350002, Note_on_c, 1, 64, 127
1, 350130, Note_off_c, 1, 64, 0
1, 350389, Note_on_c, 1, 55, 127
1, 350517, Note_off_c, 1, 55, 0
1, 350776, Note_on_c, 1, 77, 127
1, 350904, Note_off_c, 1, 77, 0
1, 350905, Note_on_c, 1, 76, 127
1, 351033, Note_off_c, 1, 76, 0
1, 351163, Note_on_c, 1, 74, 127
1, 351163, Note_on_c, 1, 47, 127
1, 351292, Note_on_c, 1, 67, 127
1, 351420, Note_off_c, 1, 67, 0
1, 351421, Note_on_c, 1, 66, 127
1, 351421, Note_on_c, 1, 50, 127
1, 351549, Note_off_c, 1, 66, 0
1, 351678, Note_off_c, 1, 50, 0
1, 351679, Note_on_c, 1, 62, 127
1, 351679, Note_on_c, 1, 55, 127
1, 351807, Note_off_c, 1, 62, 0
1, 351808, Note_on_c, 1, 71, 127
1, 351936, Note_off_c, 1, 71, 0
1, 351937, Note_on_c, 1, 69, 127
1, 352065, Note_off_c, 1, 69, 0
1, 352194, Note_off_c, 1, 74, 0
1, 352194, Note_off_c, 1, 47, 0
1, 352323, Note_off_c, 1, 55, 0
1, 352324, Note_on_c, 1, 59, 127
1, 352452, Note_off_c, 1, 59, 0
1, 352453, Note_on_c, 1, 72, 127
1, 352453, Note_on_c, 1, 57, 127
1, 352581, Note_off_c, 1, 72, 0
1, 352581, Note_off_c, 1, 57, 0
1, 352840, Note_on_c, 1, 79, 127
1, 352968, Note_off_c, 1, 79, 0
1, 352969, Note_on_c, 1, 77, 127
1, 353097, Note_off_c, 1, 77, 0
1, 353227, Note_on_c, 1, 76, 127
1, 353227, Note_on_c, 1, 48, 127
1, 353356, Note_on_c, 1, 67, 127
1, 353484, Note_off_c, 1, 67, 0
1, 353485, Note_on_c, 1, 65, 127
1, 353613, Note_off_c, 1, 65, 0
1, 353743, Note_on_c, 1, 64, 127
1, 353871, Note_off_c, 1, 64, 0
1, 354001, Note_on_c, 1, 69, 127
1, 354129, Note_off_c, 1, 69, 0
1, 354130, Note_on_c, 1, 71, 127
1, 354258, Note_off_c, 1, 76, 0
1, 354258, Note_off_c, 1, 48, 0
1, 354258, Note_off_c, 1, 71, 0
1, 354259, Note_on_c, 1, 72, 127
1, 354388, Note_on_c, 1, 79, 127
1, 354388, Note_on_c, 1, 52, 127
1, 354516, Note_off_c, 1, 79, 0
1, 354516, Note_off_c, 1, 52, 0
1, 354517, Note_on_c, 1, 77, 127
1, 354517, Note_on_c, 1, 50, 127
1, 354645, Note_off_c, 1, 77, 0
1, 354645, Note_off_c, 1, 50, 0
1, 354775, Note_on_c, 1, 48, 127
1, 354775, Note_on_c, 1, 76, 127
1, 354903, Note_off_c, 1, 48, 0
1, 354904, Note_on_c, 1, 55, 127
1, 355032, Note_off_c, 1, 55, 0
1, 355033, Note_on_c, 1, 81, 127
1, 355033, Note_on_c, 1, 53, 127
1, 355039, Note_off_c, 1, 76, 0
1, 355161, Note_off_c, 1, 81, 0
1, 355161, Note_off_c, 1, 53, 0
1, 355162, Note_on_c, 1, 83, 127
1, 355290, Note_off_c, 1, 83, 0
1, 355291, Note_on_c, 1, 84, 127
1, 355291, Note_on_c, 1, 40, 127
1, 355802, Note_off_c, 1, 84, 0
1, 355856, Note_off_c, 1, 40, 0
1, 355926, Note_off_c, 1, 72, 0
1, 355936, Note_on_c, 1, 52, 127
1, 355936, Note_on_c, 1, 72, 127
1, 356064, Note_off_c, 1, 52, 0
1, 356065, Note_on_c, 1, 81, 127
1, 356065, Note_on_c, 1, 48, 127
1, 356193, Note_off_c, 1, 81, 0
1, 356193, Note_off_c, 1, 48, 0
1, 356194, Note_on_c, 1, 76, 127
1, 356194, Note_on_c, 1, 45, 127
1, 356313, Note_off_c, 1, 72, 0
1, 356322, Note_off_c, 1, 76, 0
1, 356322, Note_off_c, 1, 45, 0
1, 356323, Note_on_c, 1, 38, 127
1, 356323, Note_on_c, 1, 77, 127
1, 356452, Note_on_c, 1, 74, 127
1, 356580, Note_off_c, 1, 74, 0
1, 356581, Note_on_c, 1, 72, 127
1, 356709, Note_off_c, 1, 72, 0
1, 356839, Note_on_c, 1, 71, 127
1, 356888, Note_off_c, 1, 38, 0
1, 356968, Note_off_c, 1, 71, 0
1, 356969, Note_on_c, 1, 57, 127
1, 357097, Note_off_c, 1, 57, 0
1, 357098, Note_on_c, 1, 69, 127
1, 357098, Note_on_c, 1, 53, 127
1, 357226, Note_off_c, 1, 69, 0
1, 357226, Note_off_c, 1, 53, 0
1, 357227, Note_on_c, 1, 50, 127
1, 357355, Note_off_c, 1, 77, 0
1, 357355, Note_off_c, 1, 50, 0
1, 357356, Note_on_c, 1, 43, 127
1, 357356, Note_on_c, 1, 71, 127
1, 357485, Note_on_c, 1, 79, 127
1, 357613, Note_off_c, 1, 79, 0
1, 357614, Note_on_c, 1, 77, 127
1, 357742, Note_off_c, 1, 77, 0
1, 357872, Note_on_c, 1, 76, 127
1, 357921, Note_off_c, 1, 43, 0
1, 358001, Note_off_c, 1, 76, 0
1, 358002, Note_on_c, 1, 50, 127
1, 358130, Note_off_c, 1, 50, 0
1, 358131, Note_on_c, 1, 74, 127
1, 358131, Note_on_c, 1, 47, 127
1, 358259, Note_off_c, 1, 74, 0
1, 358259, Note_off_c, 1, 47, 0
1, 358388, Note_off_c, 1, 71, 0
1, 358389, Note_on_c, 1, 36, 127
1, 358389, Note_on_c, 1, 76, 127
1, 358518, Note_on_c, 1, 74, 127
1, 358646, Note_off_c, 1, 74, 0
1, 358647, Note_on_c, 1, 72, 127
1, 358775, Note_off_c, 1, 72, 0
1, 358776, Note_on_c, 1, 71, 127
1, 358900, Note_off_c, 1, 36, 0
1, 358904, Note_off_c, 1, 71, 0
1, 359034, Note_on_c, 1, 69, 127
1, 359034, Note_on_c, 1, 60, 127
1, 359162, Note_off_c, 1, 69, 0
1, 359162, Note_off_c, 1, 60, 0
1, 359163, Note_on_c, 1, 62, 127
1, 359291, Note_off_c, 1, 62, 0
1, 359292, Note_on_c, 1, 68, 127
1, 359292, Note_on_c, 1, 59, 127
1, 359420, Note_off_c, 1, 68, 0
1, 359420, Note_off_c, 1, 59, 0
1, 359545, Note_off_c, 1, 76, 0
1, 359550, Note_on_c, 1, 77, 127
1, 359678, Note_off_c, 1, 77, 0
1, 359679, Note_on_c, 1, 48, 127
1, 359936, Note_off_c, 1, 48, 0
1, 359937, Note_on_c, 1, 47, 127
1, 360194, Note_off_c, 1, 47, 0
1, 360195, Note_on_c, 1, 45, 127
1, 360452, Note_off_c, 1, 45, 0
1, 360582, Note_on_c, 1, 50, 127
1, 360710, Note_off_c, 1, 50, 0
1, 360969, Note_on_c, 1, 52, 127
1, 361226, Note_off_c, 1, 52, 0
1, 361227, Note_on_c, 1, 40, 127
1, 361484, Note_off_c, 1, 40, 0
1, 361485, Note_on_c, 1, 45, 127
1, 361485, Note_on_c, 1, 72, 127
1, 361614, Note_on_c, 1, 69, 127
1, 361742, Note_off_c, 1, 69, 0
1, 361743, Note_on_c, 1, 67, 127
1, 361871, Note_off_c, 1, 67, 0
1, 361872, Note_on_c, 1, 65, 127
1, 361996, Note_off_c, 1, 45, 0
1, 362000, Note_off_c, 1, 65, 0
1, 362001, Note_on_c, 1, 64, 127
1, 362129, Note_off_c, 1, 64, 0
1, 362388, Note_on_c, 1, 62, 127
1, 362516, Note_off_c, 1, 72, 0
1, 362516, Note_off_c, 1, 62, 0
1, 362517, Note_on_c, 1, 60, 127
1, 362645, Note_off_c, 1, 60, 0
1, 362646, Note_on_c, 1, 68, 127
1, 362646, Note_on_c, 1, 62, 127
1, 362774, Note_off_c, 1, 68, 0
1, 362774, Note_off_c, 1, 62, 0
1, 362775, Note_on_c, 1, 69, 127
1, 362775, Note_on_c, 1, 60, 127
1, 362903, Note_off_c, 1, 69, 0
1, 362903, Note_off_c, 1, 60, 0
1, 362904, Note_on_c, 1, 71, 127
1, 362904, Note_on_c, 1, 59, 127
1, 363032, Note_off_c, 1, 71, 0
1, 363032, Note_off_c, 1, 59, 0
1, 363033, Note_on_c, 1, 72, 127
1, 363033, Note_on_c, 1, 57, 127
1, 363161, Note_off_c, 1, 72, 0
1, 363161, Note_off_c, 1, 57, 0
1, 363162, Note_on_c, 1, 74, 127
1, 363162, Note_on_c, 1, 60, 127
1, 363290, Note_off_c, 1, 74, 0
1, 363290, Note_off_c, 1, 60, 0
1, 363291, Note_on_c, 1, 76, 127
1, 363291, Note_on_c, 1, 59, 127
1, 363419, Note_off_c, 1, 76, 0
1, 363419, Note_off_c, 1, 59, 0
1, 363420, Note_on_c, 1, 77, 127
1, 363420, Note_on_c, 1, 57, 127
1, 363548, Note_off_c, 1, 77, 0
1, 363548, Note_off_c, 1, 57, 0
1, 363549, Note_on_c, 1, 71, 127
1, 363549, Note_on_c, 1, 55, 127
1, 363678, Note_on_c, 1, 65, 127
1, 363806, Note_off_c, 1, 65, 0
1, 363807, Note_on_c, 1, 67, 127
1, 363935, Note_off_c, 1, 67, 0
1, 363936, Note_on_c, 1, 62, 127
1, 364060, Note_off_c, 1, 71, 0
1, 364064, Note_off_c, 1, 55, 0
1, 364064, Note_off_c, 1, 62, 0
1, 364065, Note_on_c, 1, 60, 127
1, 364065, Note_on_c, 1, 64, 127
1, 364194, Note_on_c, 1, 72, 127
1, 364322, Note_off_c, 1, 72, 0
1, 364323, Note_on_c, 1, 76, 127
1, 364451, Note_off_c, 1, 76, 0
1, 364452, Note_on_c, 1, 68, 127
1, 364580, Note_off_c, 1, 60, 0
1, 364580, Note_off_c, 1, 68, 0
1, 364581, Note_on_c, 1, 69, 127
1, 364581, Note_on_c, 1, 53, 127
1, 364874, Note_off_c, 1, 69, 0
1, 364876, Note_off_c, 1, 64, 0
1, 364878, Note_on_c, 1, 74, 127
1, 364878, Note_on_c, 1, 62, 127
1, 364950, Note_off_c, 1, 74, 0
1, 365026, Note_on_c, 1, 77, 127
1, 365098, Note_off_c, 1, 77, 0
1, 365174, Note_on_c, 1, 57, 127
1, 365468, Note_off_c, 1, 53, 0
1, 365470, Note_on_c, 1, 71, 127
1, 365616, Note_off_c, 1, 71, 0
1, 365760, Note_off_c, 1, 57, 0
1, 365765, Note_off_c, 1, 62, 0
1, 365767, Note_on_c, 1, 68, 127
1, 365767, Note_on_c, 1, 64, 127
1, 365767, Note_on_c, 1, 59, 127
1, 365767, Note_on_c, 1, 52, 127
1, 366031, Note_off_c, 1, 68, 0
1, 366033, Note_on_c, 1, 71, 127
1, 366120, Note_off_c, 1, 71, 0
1, 366122, Note_on_c, 1, 69, 127
1, 366297, Note_off_c, 1, 69, 0
1, 366469, Note_off_c, 1, 64, 0
1, 366469, Note_off_c, 1, 59, 0
1, 366477, Note_on_c, 1, 66, 127
1, 366743, Note_on_c, 1, 72, 127
1, 366830, Note_off_c, 1, 72, 0
1, 367179, Note_off_c, 1, 66, 0
1, 367185, Note_off_c, 1, 52, 0
1, 367187, Note_on_c, 1, 71, 127
1, 367187, Note_on_c, 1, 68, 127
1, 367187, Note_on_c, 1, 64, 127
1, 367362, Note_off_c, 1, 71, 0
1, 367364, Note_on_c, 1, 76, 127
1, 367539, Note_off_c, 1, 76, 0
1, 367541, Note_on_c, 1, 75, 127
1, 367716, Note_off_c, 1, 75, 0
1, 367807, Note_on_c, 1, 73, 127
1, 367888, Note_off_c, 1, 68, 0
1, 367894, Note_off_c, 1, 73, 0
1, 367896, Note_on_c, 1, 66, 127
1, 367896, Note_on_c, 1, 69, 127
1, 368162, Note_on_c, 1, 78, 127
1, 368249, Note_off_c, 1, 78, 0
1, 368598, Note_off_c, 1, 66, 0
1, 368598, Note_off_c, 1, 69, 0
1, 368604, Note_off_c, 1, 64, 0
1, 368606, Note_on_c, 1, 76, 127
1, 368606, Note_on_c, 1, 71, 127
1, 368606, Note_on_c, 1, 68, 127
1, 368783, Note_on_c, 1, 64, 127
1, 368958, Note_off_c, 1, 64, 0
1, 368960, Note_on_c, 1, 59, 127
1, 369135, Note_off_c, 1, 59, 0
1, 369137, Note_on_c, 1, 56, 127
1, 369312, Note_off_c, 1, 56, 0
1, 369314, Note_on_c, 1, 52, 127
1, 369489, Note_off_c, 1, 76, 0
1, 369489, Note_off_c, 1, 71, 0
1, 369489, Note_off_c, 1, 68, 0
1, 369668, Note_on_c, 1, 78, 127
1, 369668, Note_on_c, 1, 57, 127
1, 369843, Note_off_c, 1, 78, 0
1, 369843, Note_off_c, 1, 57, 0
1, 369845, Note_on_c, 1, 75, 127
1, 369845, Note_on_c, 1, 54, 127
1, 370020, Note_off_c, 1, 75, 0
1, 370020, Note_off_c, 1, 54, 0
1, 370348, Note_on_c, 1, 69, 127
1, 370348, Note_on_c, 1, 60, 127
1, 370509, Note_off_c, 1, 69, 0
1, 370509, Note_off_c, 1, 60, 0
1, 370511, Note_on_c, 1, 66, 127
1, 370671, Note_off_c, 1, 66, 0
1, 370998, Note_on_c, 1, 74, 127
1, 370998, Note_on_c, 1, 40, 127
1, 371159, Note_off_c, 1, 74, 0
1, 371161, Note_on_c, 1, 72, 127
1, 371320, Note_off_c, 1, 52, 0
1, 371322, Note_off_c, 1, 40, 0
1, 371322, Note_off_c, 1, 72, 0
1, 371324, Note_on_c, 1, 71, 127
1, 371324, Note_on_c, 1, 52, 127
1, 371480, Note_on_c, 1, 69, 127
1, 371480, Note_on_c, 1, 60, 127
1, 371634, Note_off_c, 1, 69, 0
1, 371634, Note_off_c, 1, 60, 0
1, 371636, Note_on_c, 1, 68, 127
1, 371636, Note_on_c, 1, 59, 127
1, 371790, Note_off_c, 1, 68, 0
1, 371790, Note_off_c, 1, 59, 0
1, 371792, Note_on_c, 1, 66, 127
1, 371792, Note_on_c, 1, 57, 127
1, 371941, Note_off_c, 1, 71, 0
1, 371946, Note_off_c, 1, 66, 0
1, 371946, Note_off_c, 1, 57, 0
1, 371948, Note_on_c, 1, 56, 127
1, 371948, Note_on_c, 1, 64, 127
1, 372104, Note_on_c, 1, 83, 127
1, 372258, Note_off_c, 1, 56, 0
1, 372258, Note_off_c, 1, 83, 0
1, 372260, Note_on_c, 1, 81, 127
1, 372414, Note_off_c, 1, 81, 0
1, 372565, Note_off_c, 1, 64, 0
1, 372572, Note_on_c, 1, 80, 127
1, 372726, Note_off_c, 1, 80, 0
1, 373040, Note_on_c, 1, 77, 127
1, 373040, Note_on_c, 1, 62, 127
1, 373194, Note_off_c, 1, 77, 0
1, 373194, Note_off_c, 1, 62, 0
1, 373196, Note_on_c, 1, 76, 127
1, 373196, Note_on_c, 1, 61, 127
1, 373350, Note_off_c, 1, 76, 0
1, 373350, Note_off_c, 1, 61, 0
1, 373508, Note_on_c, 1, 74, 127
1, 373662, Note_off_c, 1, 74, 0
1, 373810, Note_off_c, 1, 52, 0
1, 373820, Note_on_c, 1, 57, 127
1, 373820, Note_on_c, 1, 60, 127
1, 373820, Note_on_c, 1, 81, 127
1, 373974, Note_off_c, 1, 57, 0
1, 373974, Note_off_c, 1, 60, 0
1, 373976, Note_on_c, 1, 74, 127
1, 373976, Note_on_c, 1, 59, 127
1, 374130, Note_off_c, 1, 74, 0
1, 374130, Note_off_c, 1, 59, 0
1, 374132, Note_on_c, 1, 72, 127
1, 374286, Note_off_c, 1, 72, 0
1, 374288, Note_on_c, 1, 71, 127
1, 374288, Note_on_c, 1, 56, 127
1, 374442, Note_off_c, 1, 71, 0
1, 374442, Note_off_c, 1, 56, 0
1, 374600, Note_off_c, 1, 81, 0
1, 374600, Note_on_c, 1, 79, 127
1, 374754, Note_off_c, 1, 79, 0
1, 374756, Note_on_c, 1, 77, 127
1, 374756, Note_on_c, 1, 45, 127
1, 374910, Note_off_c, 1, 77, 0
1, 374912, Note_on_c, 1, 76, 127
1, 375066, Note_off_c, 1, 45, 0
1, 375066, Note_off_c, 1, 76, 0
1, 375068, Note_on_c, 1, 47, 127
1, 375380, Note_on_c, 1, 55, 127
1, 375534, Note_off_c, 1, 55, 0
1, 375536, Note_on_c, 1, 69, 127
1, 375536, Note_on_c, 1, 54, 127
1, 375690, Note_off_c, 1, 69, 0
1, 375690, Note_off_c, 1, 54, 0
1, 375692, Note_on_c, 1, 67, 127
1, 375815, Note_off_c, 1, 47, 0
1, 376315, Note_on_c, 1, 48, 127
1, 376625, Note_off_c, 1, 67, 0
1, 376627, Note_on_c, 1, 65, 127
1, 376781, Note_off_c, 1, 65, 0
1, 377062, Note_off_c, 1, 48, 0
1, 377562, Note_on_c, 1, 50, 127
1, 378186, Note_on_c, 1, 62, 127
1, 378309, Note_off_c, 1, 50, 0
1, 378341, Note_on_c, 1, 78, 127
1, 378493, Note_off_c, 1, 62, 0
1, 378495, Note_off_c, 1, 78, 0
1, 378809, Note_on_c, 1, 52, 127
1, 379433, Note_on_c, 1, 64, 127
1, 379556, Note_off_c, 1, 52, 0
1, 379740, Note_off_c, 1, 64, 0
1, 380056, Note_on_c, 1, 53, 127
1, 380803, Note_off_c, 1, 53, 0
1, 381303, Note_on_c, 1, 83, 127
1, 381771, Note_on_c, 1, 66, 127
1, 381925, Note_off_c, 1, 66, 0
1, 382050, Note_off_c, 1, 83, 0
1, 382550, Note_on_c, 1, 84, 127
1, 382704, Note_off_c, 1, 84, 0
1, 383486, Note_on_c, 1, 75, 127
1, 383640, Note_off_c, 1, 75, 0
1, 384422, Note_on_c, 1, 64, 127
1, 384422, Note_on_c, 1, 55, 127
1, 384422, Note_on_c, 1, 76, 127
1, 384422, Note_on_c, 1, 71, 127
1, 384576, Note_off_c, 1, 64, 0
1, 384578, Note_on_c, 1, 62, 127
1, 384732, Note_off_c, 1, 62, 0
1, 384734, Note_on_c, 1, 60, 127
1, 384888, Note_off_c, 1, 60, 0
1, 384890, Note_on_c, 1, 59, 127
1, 385039, Note_off_c, 1, 55, 0
1, 385044, Note_off_c, 1, 76, 0
1, 385044, Note_off_c, 1, 71, 0
1, 385044, Note_off_c, 1, 59, 0
1, 385046, Note_on_c, 1, 81, 127
1, 385046, Note_on_c, 1, 72, 127
1, 385046, Note_on_c, 1, 57, 127
1, 385046, Note_on_c, 1, 54, 127
1, 385200, Note_off_c, 1, 81, 0
1, 385202, Note_on_c, 1, 79, 127
1, 385356, Note_off_c, 1, 79, 0
1, 385358, Note_on_c, 1, 78, 127
1, 385512, Note_off_c, 1, 78, 0
1, 385514, Note_on_c, 1, 76, 127
1, 385663, Note_off_c, 1, 72, 0
1, 385668, Note_off_c, 1, 76, 0
1, 385670, Note_on_c, 1, 75, 127
1, 385824, Note_off_c, 1, 57, 0
1, 385824, Note_off_c, 1, 75, 0
1, 385826, Note_on_c, 1, 60, 127
1, 385980, Note_off_c, 1, 60, 0
1, 385982, Note_on_c, 1, 73, 127
1, 385982, Note_on_c, 1, 59, 127
1, 386136, Note_off_c, 1, 73, 0
1, 386136, Note_off_c, 1, 59, 0
1, 386292, Note_off_c, 1, 54, 0
1, 386294, Note_on_c, 1, 52, 127
1, 386294, Note_on_c, 1, 76, 127
1, 386450, Note_on_c, 1, 68, 127
1, 386450, Note_on_c, 1, 59, 127
1, 386604, Note_off_c, 1, 68, 0
1, 386604, Note_off_c, 1, 59, 0
1, 386606, Note_on_c, 1, 69, 127
1, 386606, Note_on_c, 1, 57, 127
1, 386760, Note_off_c, 1, 69, 0
1, 386760, Note_off_c, 1, 57, 0
1, 386762, Note_on_c, 1, 66, 127
1, 386916, Note_off_c, 1, 66, 0
1, 386918, Note_on_c, 1, 56, 127
1, 386918, Note_on_c, 1, 64, 127
1, 387072, Note_off_c, 1, 56, 0
1, 387228, Note_off_c, 1, 52, 0
1, 387230, Note_on_c, 1, 54, 127
1, 387230, Note_on_c, 1, 50, 127
1, 387384, Note_off_c, 1, 54, 0
1, 387535, Note_off_c, 1, 64, 0
1, 387538, Note_off_c, 1, 50, 0
1, 387542, Note_on_c, 1, 49, 127
1, 387691, Note_off_c, 1, 76, 0
1, 387697, Note_on_c, 1, 81, 127
1, 387851, Note_off_c, 1, 81, 0
1, 387853, Note_on_c, 1, 79, 127
1, 388007, Note_off_c, 1, 79, 0
1, 388319, Note_off_c, 1, 49, 0
1, 388321, Note_on_c, 1, 45, 127
1, 388475, Note_off_c, 1, 45, 0
1, 388477, Note_on_c, 1, 77, 127
1, 388477, Note_on_c, 1, 47, 127
1, 388631, Note_off_c, 1, 77, 0
1, 388631, Note_off_c, 1, 47, 0
1, 388945, Note_on_c, 1, 58, 127
1, 389099, Note_off_c, 1, 58, 0
1, 389257, Note_on_c, 1, 55, 127
1, 389411, Note_off_c, 1, 55, 0
1, 389413, Note_on_c, 1, 74, 127
1, 389413, Note_on_c, 1, 53, 127
1, 389567, Note_off_c, 1, 74, 0
1, 389567, Note_off_c, 1, 53, 0
1, 389881, Note_on_c, 1, 73, 127
1, 390035, Note_off_c, 1, 73, 0
1, 390505, Note_on_c, 1, 72, 127
1, 390659, Note_off_c, 1, 72, 0
1, 390661, Note_on_c, 1, 71, 127
1, 390661, Note_on_c, 1, 62, 127
1, 390815, Note_off_c, 1, 71, 0
1, 390971, Note_off_c, 1, 62, 0
1, 390973, Note_on_c, 1, 60, 127
1, 391283, Note_off_c, 1, 60, 0
1, 391909, Note_on_c, 1, 48, 127
1, 392531, Note_off_c, 1, 48, 0
1, 393001, Note_on_c, 1, 61, 127
1, 393155, Note_off_c, 1, 61, 0
1, 393781, Note_on_c, 1, 69, 127
1, 393781, Note_on_c, 1, 45, 127
1, 393781, Note_on_c, 1, 60, 127
1, 393781, Note_on_c, 1, 57, 127
1, 393935, Note_off_c, 1, 69, 0
1, 393937, Note_on_c, 1, 71, 127
1, 394091, Note_off_c, 1, 71, 0
1, 394249, Note_on_c, 1, 68, 127
1, 394403, Note_off_c, 1, 68, 0
1, 394561, Note_on_c, 1, 64, 127
1, 394715, Note_off_c, 1, 45, 0
1, 394715, Note_off_c, 1, 64, 0
1, 394717, Note_on_c, 1, 65, 127
1, 394871, Note_off_c, 1, 65, 0
1, 395027, Note_off_c, 1, 60, 0
1, 395027, Note_off_c, 1, 57, 0
1, 395029, Note_on_c, 1, 62, 127
1, 395029, Note_on_c, 1, 47, 127
1, 395183, Note_off_c, 1, 62, 0
1, 395183, Note_off_c, 1, 47, 0
1, 395185, Note_on_c, 1, 65, 127
1, 395185, Note_on_c, 1, 50, 127
1, 395339, Note_off_c, 1, 65, 0
1, 395339, Note_off_c, 1, 50, 0
1, 395341, Note_on_c, 1, 67, 127
1, 395341, Note_on_c, 1, 47, 127
1, 395495, Note_off_c, 1, 67, 0
1, 395495, Note_off_c, 1, 47, 0
1, 395497, Note_on_c, 1, 65, 127
1, 395497, Note_on_c, 1, 43, 127
1, 395651, Note_off_c, 1, 65, 0
1, 395651, Note_off_c, 1, 43, 0
1, 395653, Note_on_c, 1, 64, 127
1, 395653, Note_on_c, 1, 48, 127
1, 395807, Note_off_c, 1, 64, 0
1, 395807, Note_off_c, 1, 48, 0
1, 395809, Note_on_c, 1, 67, 127
1, 395809, Note_on_c, 1, 52, 127
1, 395963, Note_off_c, 1, 67, 0
1, 395963, Note_off_c, 1, 52, 0
1, 395965, Note_on_c, 1, 69, 127
1, 395965, Note_on_c, 1, 49, 127
1, 396119, Note_off_c, 1, 69, 0
1, 396119, Note_off_c, 1, 49, 0
1, 396121, Note_on_c, 1, 67, 127
1, 396121, Note_on_c, 1, 45, 127
1, 396275, Note_off_c, 1, 67, 0
1, 396275, Note_off_c, 1, 45, 0
1, 396277, Note_on_c, 1, 66, 127
1, 396277, Note_on_c, 1, 50, 127
1, 396431, Note_off_c, 1, 66, 0
1, 396431, Note_off_c, 1, 50, 0
1, 396433, Note_on_c, 1, 69, 127
1, 396433, Note_on_c, 1, 54, 127
1, 396587, Note_off_c, 1, 69, 0
1, 396587, Note_off_c, 1, 54, 0
1, 396589, Note_on_c, 1, 71, 127
1, 396589, Note_on_c, 1, 51, 127
1, 396743, Note_off_c, 1, 71, 0
1, 396743, Note_off_c, 1, 51, 0
1, 396745, Note_on_c, 1, 69, 127
1, 396745, Note_on_c, 1, 47, 127
1, 396899, Note_off_c, 1, 69, 0
1, 396899, Note_off_c, 1, 47, 0
1, 396901, Note_on_c, 1, 68, 127
1, 396901, Note_on_c, 1, 52, 127
1, 397055, Note_off_c, 1, 68, 0
1, 397055, Note_off_c, 1, 52, 0
1, 397057, Note_on_c, 1, 71, 127
1, 397057, Note_on_c, 1, 56, 127
1, 397211, Note_off_c, 1, 71, 0
1, 397211, Note_off_c, 1, 56, 0
1, 397213, Note_on_c, 1, 72, 127
1, 397213, Note_on_c, 1, 52, 127
1, 397367, Note_off_c, 1, 72, 0
1, 397367, Note_off_c, 1, 52, 0
1, 397369, Note_on_c, 1, 71, 127
1, 397369, Note_on_c, 1, 48, 127
1, 397523, Note_off_c, 1, 71, 0
1, 397523, Note_off_c, 1, 48, 0
1, 397525, Note_on_c, 1, 69, 127
1, 397525, Note_on_c, 1, 53, 127
1, 397679, Note_off_c, 1, 69, 0
1, 397679, Note_off_c, 1, 53, 0
1, 397681, Note_on_c, 1, 72, 127
1, 397681, Note_on_c, 1, 57, 127
1, 397835, Note_off_c, 1, 72, 0
1, 397835, Note_off_c, 1, 57, 0
1, 397837, Note_on_c, 1, 74, 127
1, 397837, Note_on_c, 1, 54, 127
1, 397991, Note_off_c, 1, 74, 0
1, 397991, Note_off_c, 1, 54, 0
1, 397993, Note_on_c, 1, 72, 127
1, 397993, Note_on_c, 1, 50, 127
1, 398147, Note_off_c, 1, 72, 0
1, 398147, Note_off_c, 1, 50, 0
1, 398149, Note_on_c, 1, 71, 127
1, 398149, Note_on_c, 1, 55, 127
1, 398303, Note_off_c, 1, 71, 0
1, 398303, Note_off_c, 1, 55, 0
1, 398305, Note_on_c, 1, 74, 127
1, 398305, Note_on_c, 1, 59, 127
1, 398459, Note_off_c, 1, 74, 0
1, 398459, Note_off_c, 1, 59, 0
1, 398461, Note_on_c, 1, 76, 127
1, 398461, Note_on_c, 1, 56, 127
1, 398615, Note_off_c, 1, 76, 0
1, 398615, Note_off_c, 1, 56, 0
1, 398617, Note_on_c, 1, 74, 127
1, 398617, Note_on_c, 1, 52, 127
1, 398771, Note_off_c, 1, 74, 0
1, 398771, Note_off_c, 1, 52, 0
1, 398773, Note_on_c, 1, 72, 127
1, 398773, Note_on_c, 1, 57, 127
1, 398927, Note_off_c, 1, 72, 0
1, 398927, Note_off_c, 1, 57, 0
1, 398929, Note_on_c, 1, 76, 127
1, 398929, Note_on_c, 1, 60, 127
1, 399083, Note_off_c, 1, 76, 0
1, 399083, Note_off_c, 1, 60, 0
1, 399085, Note_on_c, 1, 77, 127
1, 399085, Note_on_c, 1, 57, 127
1, 399239, Note_off_c, 1, 77, 0
1, 399239, Note_off_c, 1, 57, 0
1, 399241, Note_on_c, 1, 76, 127
1, 399241, Note_on_c, 1, 53, 127
1, 399395, Note_off_c, 1, 76, 0
1, 399395, Note_off_c, 1, 53, 0
1, 399397, Note_on_c, 1, 74, 127
1, 399397, Note_on_c, 1, 59, 127
1, 399551, Note_off_c, 1, 74, 0
1, 399551, Note_off_c, 1, 59, 0
1, 399553, Note_on_c, 1, 77, 127
1, 399553, Note_on_c, 1, 62, 127
1, 399707, Note_off_c, 1, 77, 0
1, 399707, Note_off_c, 1, 62, 0
1, 399709, Note_on_c, 1, 79, 127
1, 399709, Note_on_c, 1, 59, 127
1, 399863, Note_off_c, 1, 79, 0
1, 399863, Note_off_c, 1, 59, 0
1, 399865, Note_on_c, 1, 77, 127
1, 399865, Note_on_c, 1, 55, 127
1, 400019, Note_off_c, 1, 77, 0
1, 400019, Note_off_c, 1, 55, 0
1, 400021, Note_on_c, 1, 76, 127
1, 400021, Note_on_c, 1, 60, 127
1, 400175, Note_off_c, 1, 76, 0
1, 400175, Note_off_c, 1, 60, 0
1, 400177, Note_on_c, 1, 79, 127
1, 400177, Note_on_c, 1, 64, 127
1, 400331, Note_off_c, 1, 79, 0
1, 400331, Note_off_c, 1, 64, 0
1, 400333, Note_on_c, 1, 81, 127
1, 400333, Note_on_c, 1, 61, 127
1, 400487, Note_off_c, 1, 81, 0
1, 400487, Note_off_c, 1, 61, 0
1, 400489, Note_on_c, 1, 79, 127
1, 400489, Note_on_c, 1, 57, 127
1, 400643, Note_off_c, 1, 79, 0
1, 400643, Note_off_c, 1, 57, 0
1, 400645, Note_on_c, 1, 78, 127
1, 400645, Note_on_c, 1, 62, 127
1, 400799, Note_off_c, 1, 78, 0
1, 400799, Note_off_c, 1, 62, 0
1, 400801, Note_on_c, 1, 81, 127
1, 400801, Note_on_c, 1, 66, 127
1, 400955, Note_off_c, 1, 81, 0
1, 400955, Note_off_c, 1, 66, 0
1, 400957, Note_on_c, 1, 83, 127
1, 400957, Note_on_c, 1, 63, 127
1, 401111, Note_off_c, 1, 83, 0
1, 401111, Note_off_c, 1, 63, 0
1, 401113, Note_on_c, 1, 81, 127
1, 401113, Note_on_c, 1, 59, 127
1, 401267, Note_off_c, 1, 81, 0
1, 401267, Note_off_c, 1, 59, 0
1, 401269, Note_on_c, 1, 80, 127
1, 401269, Note_on_c, 1, 64, 127
1, 401434, Note_off_c, 1, 80, 0
1, 401434, Note_on_c, 1, 81, 127
1, 401597, Note_off_c, 1, 81, 0
1, 401599, Note_on_c, 1, 83, 127
1, 401764, Note_on_c, 1, 74, 127
1, 401927, Note_off_c, 1, 74, 0
1, 401929, Note_on_c, 1, 72, 127
1, 402094, Note_on_c, 1, 76, 127
1, 402252, Note_off_c, 1, 83, 0
1, 402257, Note_off_c, 1, 76, 0
1, 402410, Note_off_c, 1, 72, 0
1, 402589, Note_on_c, 1, 71, 127
1, 402752, Note_off_c, 1, 71, 0
1, 402919, Note_on_c, 1, 78, 127
1, 402919, Note_on_c, 1, 69, 127
1, 403082, Note_off_c, 1, 78, 0
1, 403082, Note_off_c, 1, 69, 0
1, 403249, Note_on_c, 1, 68, 127
1, 403412, Note_off_c, 1, 68, 0
1, 403414, Note_on_c, 1, 77, 127
1, 403577, Note_off_c, 1, 77, 0
1, 403579, Note_on_c, 1, 66, 127
1, 403742, Note_off_c, 1, 66, 0
1, 403907, Note_off_c, 1, 64, 0
1, 403909, Note_on_c, 1, 72, 127
1, 403909, Note_on_c, 1, 57, 127
1, 403909, Note_on_c, 1, 69, 127
1, 404072, Note_off_c, 1, 72, 0
1, 404072, Note_off_c, 1, 57, 0
1, 404074, Note_on_c, 1, 74, 127
1, 404074, Note_on_c, 1, 53, 127
1, 404237, Note_off_c, 1, 74, 0
1, 404237, Note_off_c, 1, 53, 0
1, 404239, Note_on_c, 1, 52, 127
1, 404402, Note_off_c, 1, 52, 0
1, 404404, Note_on_c, 1, 71, 127
1, 404404, Note_on_c, 1, 50, 127
1, 404567, Note_off_c, 1, 71, 0
1, 404567, Note_off_c, 1, 50, 0
1, 404569, Note_on_c, 1, 48, 127
1, 404732, Note_off_c, 1, 48, 0
1, 404734, Note_on_c, 1, 47, 127
1, 404897, Note_off_c, 1, 47, 0
1, 404899, Note_on_c, 1, 45, 127
1, 405062, Note_off_c, 1, 45, 0
1, 405064, Note_on_c, 1, 44, 127
1, 405227, Note_off_c, 1, 44, 0
1, 405559, Note_on_c, 1, 38, 127
1, 405887, Note_off_c, 1, 38, 0
1, 405889, Note_on_c, 1, 40, 127
1, 406538, Note_off_c, 1, 69, 0
1, 406547, Note_off_c, 1, 40, 0
1, 406549, Note_on_c, 1, 72, 127
1, 406549, Note_on_c, 1, 45, 127
1, 406710, Note_off_c, 1, 72, 0
1, 406712, Note_on_c, 1, 74, 127
1, 406873, Note_off_c, 1, 45, 0
1, 406873, Note_off_c, 1, 74, 0
1, 406875, Note_on_c, 1, 71, 127
1, 406875, Note_on_c, 1, 52, 127
1, 407036, Note_off_c, 1, 71, 0
1, 407038, Note_on_c, 1, 74, 127
1, 407199, Note_off_c, 1, 52, 0
1, 407199, Note_off_c, 1, 74, 0
1, 407201, Note_on_c, 1, 72, 127
1, 407201, Note_on_c, 1, 57, 127
1, 407362, Note_off_c, 1, 72, 0
1, 407362, Note_off_c, 1, 57, 0
1, 407364, Note_on_c, 1, 76, 127
1, 407364, Note_on_c, 1, 60, 127
1, 407525, Note_off_c, 1, 76, 0
1, 407525, Note_off_c, 1, 60, 0
1, 407527, Note_on_c, 1, 74, 127
1, 407527, Note_on_c, 1, 59, 127
1, 407688, Note_off_c, 1, 74, 0
1, 407688, Note_off_c, 1, 59, 0
1, 407690, Note_on_c, 1, 77, 127
1, 407690, Note_on_c, 1, 62, 127
1, 407851, Note_off_c, 1, 77, 0
1, 407851, Note_off_c, 1, 62, 0
1, 407853, Note_on_c, 1, 76, 127
1, 407853, Note_on_c, 1, 60, 127
1, 408011, Note_off_c, 1, 76, 0
1, 408011, Note_off_c, 1, 60, 0
1, 408013, Note_on_c, 1, 80, 127
1, 408013, Note_on_c, 1, 64, 127
1, 408171, Note_off_c, 1, 80, 0
1, 408171, Note_off_c, 1, 64, 0
1, 408173, Note_on_c, 1, 78, 127
1, 408173, Note_on_c, 1, 62, 127
1, 408331, Note_off_c, 1, 78, 0
1, 408331, Note_off_c, 1, 62, 0
1, 408333, Note_on_c, 1, 81, 127
1, 408333, Note_on_c, 1, 65, 127
1, 408491, Note_off_c, 1, 81, 0
1, 408491, Note_off_c, 1, 65, 0
1, 408493, Note_on_c, 1, 80, 127
1, 408493, Note_on_c, 1, 64, 127
1, 408651, Note_off_c, 1, 80, 0
1, 408653, Note_on_c, 1, 81, 127
1, 408811, Note_off_c, 1, 81, 0
1, 408813, Note_on_c, 1, 83, 127
1, 408813, Note_on_c, 1, 74, 127
1, 408971, Note_off_c, 1, 83, 0
1, 409284, Note_off_c, 1, 74, 0
1, 409296, Note_off_c, 1, 64, 0
1, 409298, Note_on_c, 1, 57, 127
1, 409463, Note_on_c, 1, 72, 127
1, 409463, Note_on_c, 1, 60, 127
1, 409626, Note_off_c, 1, 72, 0
1, 409626, Note_off_c, 1, 60, 0
1, 409628, Note_on_c, 1, 71, 127
1, 409791, Note_off_c, 1, 71, 0
1, 409793, Note_on_c, 1, 69, 127
1, 410144, Note_off_c, 1, 69, 0
1, 410503, Note_on_c, 1, 76, 127
1, 410710, Note_off_c, 1, 57, 0
1, 410921, Note_on_c, 1, 52, 127
1, 411128, Note_off_c, 1, 52, 0
1, 411145, Note_on_c, 1, 48, 127
1, 411352, Note_off_c, 1, 48, 0
1, 411393, Note_on_c, 1, 45, 127
1, 413503, Note_off_c, 1, 76, 0
1, 413793, Note_off_c, 1, 45, 0
1, 415112, Note_on_c, 1, 76, 127
1, 415112, Note_on_c, 1, 45, 127
1, 415306, Note_off_c, 1, 76, 0
1, 415306, Note_off_c, 1, 45, 0
1, 415307, Note_on_c, 1, 45, 127
1, 415307, Note_on_c, 1, 69, 127
1, 415307, Note_on_c, 1, 64, 127
1, 415307, Note_on_c, 1, 72, 127
1, 415307, Note_on_c, 1, 76, 127
1, 415501, Note_off_c, 1, 45, 0
1, 415502, Note_on_c, 1, 57, 127
1, 415696, Note_off_c, 1, 57, 0
1, 415697, Note_on_c, 1, 55, 127
1, 415891, Note_off_c, 1, 55, 0
1, 415892, Note_on_c, 1, 53, 127
1, 416086, Note_off_c, 1, 53, 0
1, 416087, Note_on_c, 1, 52, 127
1, 416281, Note_off_c, 1, 52, 0
1, 416282, Note_on_c, 1, 50, 127
1, 416475, Note_off_c, 1, 69, 0
1, 416475, Note_off_c, 1, 64, 0
1, 416476, Note_off_c, 1, 50, 0
1, 416477, Note_on_c, 1, 48, 127
1, 416671, Note_off_c, 1, 48, 0
1, 416672, Note_on_c, 1, 47, 127
1, 416866, Note_off_c, 1, 47, 0
1, 417061, Note_off_c, 1, 72, 0
1, 417061, Note_off_c, 1, 76, 0
1, 417062, Note_on_c, 1, 81, 127
1, 417256, Note_off_c, 1, 81, 0
1, 417257, Note_on_c, 1, 76, 127
1, 417257, Note_on_c, 1, 57, 127
1, 417451, Note_off_c, 1, 76, 0
1, 417451, Note_off_c, 1, 57, 0
1, 417452, Note_on_c, 1, 45, 127
1, 417452, Note_on_c, 1, 79, 127
1, 417645, Note_off_c, 1, 45, 0
1, 417646, Note_off_c, 1, 79, 0
1, 417647, Note_on_c, 1, 77, 127
1, 417842, Note_on_c, 1, 74, 127
1, 417842, Note_on_c, 1, 50, 127
1, 418036, Note_off_c, 1, 74, 0
1, 418036, Note_off_c, 1, 50, 0
1, 418037, Note_on_c, 1, 69, 127
1, 418037, Note_on_c, 1, 53, 127
1, 418231, Note_off_c, 1, 69, 0
1, 418231, Note_off_c, 1, 53, 0
1, 418232, Note_on_c, 1, 72, 127
1, 418232, Note_on_c, 1, 57, 127
1, 418426, Note_off_c, 1, 72, 0
1, 418426, Note_off_c, 1, 57, 0
1, 418427, Note_on_c, 1, 71, 127
1, 418427, Note_on_c, 1, 62, 127
1, 418621, Note_off_c, 1, 71, 0
1, 418621, Note_off_c, 1, 62, 0
1, 418815, Note_off_c, 1, 77, 0
1, 418817, Note_on_c, 1, 68, 127
1, 419012, Note_on_c, 1, 76, 127
1, 419012, Note_on_c, 1, 52, 127
1, 419206, Note_off_c, 1, 76, 0
1, 419206, Note_off_c, 1, 52, 0
1, 419207, Note_on_c, 1, 71, 127
1, 419207, Note_on_c, 1, 56, 127
1, 419401, Note_off_c, 1, 71, 0
1, 419401, Note_off_c, 1, 56, 0
1, 419402, Note_on_c, 1, 74, 127
1, 419402, Note_on_c, 1, 59, 127
1, 419596, Note_off_c, 1, 74, 0
1, 419596, Note_off_c, 1, 59, 0
1, 419597, Note_on_c, 1, 72, 127
1, 419597, Note_on_c, 1, 64, 127
1, 419791, Note_off_c, 1, 72, 0
1, 419791, Note_off_c, 1, 64, 0
1, 419985, Note_off_c, 1, 68, 0
1, 419987, Note_on_c, 1, 57, 127
1, 419987, Note_on_c, 1, 72, 127
1, 420182, Note_on_c, 1, 71, 127
1, 420373, Note_off_c, 1, 57, 0
1, 420376, Note_off_c, 1, 71, 0
1, 420377, Note_on_c, 1, 69, 127
1, 420475, Note_on_c, 1, 44, 127
1, 420572, Note_off_c, 1, 69, 0
1, 420572, Note_off_c, 1, 44, 0
1, 420573, Note_on_c, 1, 45, 127
1, 420573, Note_on_c, 1, 68, 127
1, 420670, Note_off_c, 1, 45, 0
1, 420671, Note_on_c, 1, 47, 127
1, 420768, Note_off_c, 1, 68, 0
1, 420768, Note_off_c, 1, 47, 0
1, 420769, Note_on_c, 1, 48, 127
1, 420866, Note_off_c, 1, 48, 0
1, 420867, Note_on_c, 1, 50, 127
1, 420964, Note_off_c, 1, 50, 0
1, 420965, Note_off_c, 1, 72, 0
1, 420965, Note_on_c, 1, 74, 127
1, 421160, Note_off_c, 1, 74, 0
1, 421943, Note_on_c, 1, 52, 127
1, 422040, Note_off_c, 1, 52, 0
1, 422041, Note_on_c, 1, 53, 127
1, 422138, Note_off_c, 1, 53, 0
1, 425268, Note_on_c, 1, 67, 127
1, 425462, Note_off_c, 1, 67, 0
1, 425463, Note_on_c, 1, 65, 127
1, 425657, Note_off_c, 1, 65, 0
1, 425658, Note_on_c, 1, 64, 127
1, 425658, Note_on_c, 1, 81, 127
1, 425852, Note_off_c, 1, 64, 0
1, 425852, Note_off_c, 1, 81, 0
1, 425853, Note_on_c, 1, 62, 127
1, 425853, Note_on_c, 1, 79, 127
1, 425853, Note_on_c, 1, 59, 127
1, 426047, Note_off_c, 1, 62, 0
1, 426048, Note_on_c, 1, 67, 127
1, 426242, Note_off_c, 1, 67, 0
1, 426243, Note_on_c, 1, 74, 127
1, 426437, Note_off_c, 1, 79, 0
1, 426438, Note_on_c, 1, 81, 127
1, 426632, Note_off_c, 1, 59, 0
1, 426632, Note_off_c, 1, 81, 0
1, 426633, Note_on_c, 1, 47, 127
1, 426828, Note_on_c, 1, 77, 127
1, 427022, Note_off_c, 1, 47, 0
1, 427022, Note_off_c, 1, 77, 0
1, 427023, Note_on_c, 1, 76, 127
1, 427023, Note_on_c, 1, 48, 127
1, 427218, Note_off_c, 1, 74, 0
1, 427413, Note_on_c, 1, 72, 127
1, 427607, Note_off_c, 1, 76, 0
1, 427607, Note_off_c, 1, 48, 0
1, 427608, Note_on_c, 1, 50, 127
1, 427802, Note_off_c, 1, 50, 0
1, 427803, Note_on_c, 1, 52, 127
1, 427997, Note_off_c, 1, 72, 0
1, 427997, Note_off_c, 1, 52, 0
1, 428583, Note_on_c, 1, 84, 127
1, 428777, Note_off_c, 1, 84, 0
1, 428778, Note_on_c, 1, 74, 127
1, 428778, Note_on_c, 1, 78, 127
1, 428778, Note_on_c, 1, 50, 127
1, 428972, Note_off_c, 1, 74, 0
1, 428972, Note_off_c, 1, 78, 0
1, 428972, Note_off_c, 1, 50, 0
1, 428973, Note_on_c, 1, 72, 127
1, 428973, Note_on_c, 1, 79, 127
1, 428973, Note_on_c, 1, 52, 127
1, 429167, Note_off_c, 1, 72, 0
1, 429168, Note_on_c, 1, 71, 127
1, 429359, Note_off_c, 1, 79, 0
1, 429362, Note_off_c, 1, 52, 0
1, 429362, Note_off_c, 1, 71, 0
1, 429363, Note_on_c, 1, 77, 127
1, 429363, Note_on_c, 1, 69, 127
1, 429363, Note_on_c, 1, 53, 127
1, 429460, Note_off_c, 1, 77, 0
1, 429461, Note_on_c, 1, 79, 127
1, 429557, Note_off_c, 1, 69, 0
1, 429558, Note_off_c, 1, 79, 0
1, 429559, Note_on_c, 1, 62, 127
1, 429559, Note_on_c, 1, 81, 127
1, 429753, Note_off_c, 1, 62, 0
1, 429754, Note_on_c, 1, 74, 127
1, 429945, Note_off_c, 1, 81, 0
1, 429948, Note_off_c, 1, 53, 0
1, 429949, Note_on_c, 1, 52, 127
1, 430143, Note_off_c, 1, 52, 0
1, 430144, Note_on_c, 1, 50, 127
1, 430338, Note_off_c, 1, 74, 0
1, 430339, Note_on_c, 1, 76, 127
1, 430339, Note_on_c, 1, 72, 127
1, 430533, Note_off_c, 1, 50, 0
1, 430533, Note_off_c, 1, 76, 0
1, 430533, Note_off_c, 1, 72, 0
1, 430534, Note_on_c, 1, 71, 127
1, 430534, Note_on_c, 1, 74, 127
1, 430534, Note_on_c, 1, 55, 127
1, 430728, Note_off_c, 1, 71, 0
1, 430729, Note_on_c, 1, 66, 127
1, 430923, Note_off_c, 1, 66, 0
1, 430924, Note_on_c, 1, 67, 127
1, 431118, Note_off_c, 1, 74, 0
1, 431119, Note_on_c, 1, 72, 127
1, 431313, Note_off_c, 1, 55, 0
1, 431313, Note_off_c, 1, 72, 0
1, 431314, Note_on_c, 1, 43, 127
1, 431508, Note_off_c, 1, 67, 0
1, 431509, Note_on_c, 1, 65, 127
1, 431703, Note_off_c, 1, 43, 0
1, 431703, Note_off_c, 1, 65, 0
1, 431704, Note_on_c, 1, 64, 127
1, 431704, Note_on_c, 1, 72, 127
1, 431704, Note_on_c, 1, 48, 127
1, 431897, Note_off_c, 1, 64, 0
1, 431899, Note_on_c, 1, 52, 127
1, 432093, Note_off_c, 1, 52, 0
1, 432094, Note_on_c, 1, 57, 127
1, 432288, Note_off_c, 1, 72, 0
1, 432289, Note_on_c, 1, 76, 127
1, 432483, Note_off_c, 1, 48, 0
1, 432483, Note_off_c, 1, 76, 0
1, 432484, Note_on_c, 1, 74, 127
1, 432484, Note_on_c, 1, 45, 127
1, 432678, Note_off_c, 1, 74, 0
1, 432873, Note_off_c, 1, 45, 0
1, 432874, Note_on_c, 1, 47, 127
1, 433263, Note_off_c, 1, 57, 0
1, 433264, Note_on_c, 1, 56, 127
1, 433653, Note_off_c, 1, 47, 0
1, 433849, Note_on_c, 1, 71, 127
1, 434043, Note_off_c, 1, 56, 0
1, 434043, Note_off_c, 1, 71, 0
1, 434044, Note_on_c, 1, 57, 127
1, 434044, Note_on_c, 1, 72, 127
1, 434044, Note_on_c, 1, 45, 127
1, 434237, Note_off_c, 1, 57, 0
1, 434239, Note_on_c, 1, 64, 127
1, 434433, Note_off_c, 1, 64, 0
1, 434434, Note_on_c, 1, 65, 127
1, 434628, Note_off_c, 1, 72, 0
1, 434629, Note_on_c, 1, 71, 127
1, 434823, Note_off_c, 1, 45, 0
1, 434823, Note_off_c, 1, 71, 0
1, 434824, Note_on_c, 1, 69, 127
1, 435018, Note_off_c, 1, 69, 0
1, 435214, Note_on_c, 1, 55, 127
1, 435603, Note_off_c, 1, 65, 0
1, 435604, Note_on_c, 1, 67, 127
1, 435798, Note_off_c, 1, 67, 0
1, 435799, Note_on_c, 1, 62, 127
1, 435993, Note_off_c, 1, 55, 0
1, 435993, Note_off_c, 1, 62, 0
1, 435994, Note_on_c, 1, 72, 127
1, 435994, Note_on_c, 1, 60, 127
1, 435994, Note_on_c, 1, 64, 127
1, 436188, Note_off_c, 1, 72, 0
1, 436189, Note_on_c, 1, 74, 127
1, 436286, Note_off_c, 1, 74, 0
1, 436287, Note_on_c, 1, 76, 127
1, 436384, Note_off_c, 1, 60, 0
1, 436384, Note_off_c, 1, 76, 0
1, 436385, Note_on_c, 1, 69, 127
1, 436385, Note_on_c, 1, 53, 127
1, 436579, Note_off_c, 1, 69, 0
1, 436775, Note_on_c, 1, 81, 127
1, 437164, Note_off_c, 1, 64, 0
1, 437165, Note_on_c, 1, 62, 127
1, 437359, Note_off_c, 1, 62, 0
1, 437360, Note_on_c, 1, 61, 127
1, 437554, Note_off_c, 1, 61, 0
1, 437750, Note_off_c, 1, 81, 0
1, 437945, Note_on_c, 1, 77, 127
1, 438139, Note_off_c, 1, 77, 0
1, 438334, Note_off_c, 1, 53, 0
1, 438335, Note_on_c, 1, 71, 127
1, 438335, Note_on_c, 1, 54, 127
1, 438529, Note_off_c, 1, 71, 0
1, 438530, Note_on_c, 1, 63, 127
1, 438724, Note_off_c, 1, 54, 0
1, 438724, Note_off_c, 1, 63, 0
1, 438725, Note_on_c, 1, 68, 127
1, 438725, Note_on_c, 1, 64, 127
1, 438725, Note_on_c, 1, 52, 127
1, 438919, Note_off_c, 1, 68, 0
1, 438920, Note_on_c, 1, 71, 127
1, 439114, Note_off_c, 1, 71, 0
1, 439115, Note_on_c, 1, 76, 127
1, 439309, Note_off_c, 1, 76, 0
1, 439504, Note_off_c, 1, 64, 0
1, 439505, Note_on_c, 1, 69, 127
1, 439505, Note_on_c, 1, 66, 127
1, 439699, Note_off_c, 1, 69, 0
1, 439700, Note_on_c, 1, 75, 127
1, 439891, Note_off_c, 1, 66, 0
1, 439894, Note_off_c, 1, 75, 0
1, 440480, Note_off_c, 1, 52, 0
1, 440497, Note_on_c, 1, 60, 127
1, 440497, Note_on_c, 1, 76, 127
1, 440691, Note_off_c, 1, 60, 0
1, 440691, Note_off_c, 1, 76, 0
1, 440692, Note_on_c, 1, 59, 127
1, 440692, Note_on_c, 1, 74, 127
1, 440886, Note_off_c, 1, 59, 0
1, 440886, Note_off_c, 1, 74, 0
1, 440887, Note_on_c, 1, 57, 127
1, 440887, Note_on_c, 1, 72, 127
1, 441081, Note_off_c, 1, 57, 0
1, 441081, Note_off_c, 1, 72, 0
1, 441082, Note_on_c, 1, 71, 127
1, 441082, Note_on_c, 1, 56, 127
1, 441082, Note_on_c, 1, 52, 127
1, 441276, Note_off_c, 1, 71, 0
1, 441277, Note_on_c, 1, 83, 127
1, 441471, Note_off_c, 1, 83, 0
1, 441472, Note_on_c, 1, 81, 127
1, 441666, Note_off_c, 1, 56, 0
1, 441666, Note_off_c, 1, 81, 0
1, 441667, Note_on_c, 1, 57, 127
1, 441861, Note_off_c, 1, 52, 0
1, 441861, Note_off_c, 1, 57, 0
1, 441862, Note_on_c, 1, 59, 127
1, 441862, Note_on_c, 1, 80, 127
1, 442056, Note_off_c, 1, 59, 0
1, 442057, Note_on_c, 1, 62, 127
1, 442251, Note_off_c, 1, 80, 0
1, 442251, Note_off_c, 1, 62, 0
1, 442252, Note_on_c, 1, 61, 127
1, 442252, Note_on_c, 1, 81, 127
1, 442252, Note_on_c, 1, 57, 127
1, 442446, Note_off_c, 1, 61, 0
1, 442447, Note_on_c, 1, 59, 127
1, 442641, Note_off_c, 1, 59, 0
1, 442642, Note_on_c, 1, 60, 127
1, 442836, Note_off_c, 1, 81, 0
1, 442837, Note_on_c, 1, 79, 127
1, 443031, Note_off_c, 1, 57, 0
1, 443031, Note_off_c, 1, 79, 0
1, 443032, Note_on_c, 1, 77, 127
1, 443226, Note_off_c, 1, 77, 0
1, 443227, Note_on_c, 1, 76, 127
1, 443421, Note_off_c, 1, 60, 0
1, 443421, Note_off_c, 1, 76, 0
1, 443422, Note_on_c, 1, 74, 127
1, 443422, Note_on_c, 1, 59, 127
1, 443617, Note_on_c, 1, 69, 127
1, 443811, Note_off_c, 1, 69, 0
1, 443812, Note_on_c, 1, 67, 127
1, 444006, Note_off_c, 1, 74, 0
1, 444007, Note_on_c, 1, 76, 127
1, 444201, Note_off_c, 1, 59, 0
1, 444201, Note_off_c, 1, 76, 0
1, 444202, Note_on_c, 1, 77, 127
1, 444202, Note_on_c, 1, 47, 127
1, 444396, Note_off_c, 1, 77, 0
1, 444397, Note_on_c, 1, 79, 127
1, 444591, Note_off_c, 1, 47, 0
1, 444591, Note_off_c, 1, 79, 0
1, 444592, Note_on_c, 1, 48, 127
1, 444981, Note_off_c, 1, 67, 0
1, 445177, Note_on_c, 1, 52, 127
1, 445371, Note_off_c, 1, 52, 0
1, 445372, Note_on_c, 1, 57, 127
1, 445567, Note_off_c, 1, 48, 0
1, 445567, Note_on_c, 1, 45, 127
1, 445761, Note_off_c, 1, 45, 0
1, 445762, Note_on_c, 1, 50, 127
1, 445956, Note_off_c, 1, 57, 0
1, 446152, Note_on_c, 1, 55, 127
1, 446152, Note_on_c, 1, 71, 127
1, 446346, Note_off_c, 1, 55, 0
1, 446346, Note_off_c, 1, 71, 0
1, 446347, Note_on_c, 1, 72, 127
1, 446541, Note_off_c, 1, 72, 0
1, 446737, Note_off_c, 1, 50, 0
1, 446737, Note_on_c, 1, 78, 127
1, 446931, Note_off_c, 1, 78, 0
1, 446932, Note_on_c, 1, 79, 127
1, 446932, Note_on_c, 1, 52, 127
1, 447127, Note_on_c, 1, 71, 127
1, 447321, Note_off_c, 1, 71, 0
1, 447322, Note_on_c, 1, 72, 127
1, 447516, Note_off_c, 1, 79, 0
1, 447517, Note_on_c, 1, 55, 127
1, 447711, Note_off_c, 1, 55, 0
1, 447712, Note_on_c, 1, 77, 127
1, 447712, Note_on_c, 1, 60, 127
1, 447906, Note_off_c, 1, 77, 0
1, 447907, Note_off_c, 1, 52, 0
1, 447907, Note_on_c, 1, 48, 127
1, 448101, Note_off_c, 1, 48, 0
1, 448102, Note_on_c, 1, 53, 127
1, 448102, Note_on_c, 1, 81, 127
1, 448296, Note_off_c, 1, 60, 0
1, 448491, Note_off_c, 1, 72, 0
1, 448492, Note_on_c, 1, 59, 127
1, 448492, Note_on_c, 1, 74, 127
1, 448686, Note_off_c, 1, 59, 0
1, 448686, Note_off_c, 1, 74, 0
1, 448687, Note_on_c, 1, 61, 127
1, 448687, Note_on_c, 1, 76, 127
1, 448881, Note_off_c, 1, 61, 0
1, 448881, Note_off_c, 1, 76, 0
1, 448882, Note_on_c, 1, 62, 127
1, 449077, Note_off_c, 1, 53, 0
1, 449077, Note_on_c, 1, 50, 127
1, 449268, Note_off_c, 1, 62, 0
1, 449271, Note_off_c, 1, 81, 0
1, 449271, Note_off_c, 1, 50, 0
1, 449272, Note_on_c, 1, 83, 127
1, 449272, Note_on_c, 1, 55, 127
1, 449467, Note_on_c, 1, 74, 127
1, 449661, Note_off_c, 1, 74, 0
1, 449662, Note_on_c, 1, 76, 127
1, 449856, Note_off_c, 1, 83, 0
1, 449857, Note_on_c, 1, 59, 127
1, 450051, Note_off_c, 1, 59, 0
1, 450052, Note_on_c, 1, 81, 127
1, 450052, Note_on_c, 1, 64, 127
1, 450246, Note_off_c, 1, 81, 0
1, 450247, Note_off_c, 1, 55, 0
1, 450247, Note_on_c, 1, 52, 127
1, 450441, Note_off_c, 1, 76, 0
1, 450441, Note_off_c, 1, 52, 0
1, 450442, Note_on_c, 1, 84, 127
1, 450442, Note_on_c, 1, 57, 127
1, 450636, Note_off_c, 1, 64, 0
1, 450636, Note_off_c, 1, 84, 0
1, 450637, Note_on_c, 1, 62, 127
1, 450831, Note_off_c, 1, 62, 0
1, 450832, Note_on_c, 1, 60, 127
1, 451026, Note_off_c, 1, 60, 0
1, 451027, Note_on_c, 1, 79, 127
1, 451221, Note_off_c, 1, 79, 0
1, 451222, Note_on_c, 1, 69, 127
1, 451222, Note_on_c, 1, 78, 127
1, 451222, Note_on_c, 1, 72, 127
1, 451416, Note_off_c, 1, 69, 0
1, 451416, Note_off_c, 1, 78, 0
1, 451417, Note_on_c, 1, 67, 127
1, 451608, Note_off_c, 1, 72, 0
1, 451611, Note_off_c, 1, 67, 0
1, 451612, Note_on_c, 1, 66, 127
1, 451612, Note_on_c, 1, 75, 127
1, 451612, Note_on_c, 1, 71, 127
1, 451806, Note_off_c, 1, 66, 0
1, 452391, Note_off_c, 1, 75, 0
1, 452391, Note_off_c, 1, 71, 0
1, 452392, Note_off_c, 1, 57, 0
1, 452782, Note_on_c, 1, 54, 127
1, 453172, Note_on_c, 1, 63, 127
1, 453366, Note_off_c, 1, 63, 0
1, 453367, Note_on_c, 1, 61, 127
1, 453561, Note_off_c, 1, 54, 0
1, 453561, Note_off_c, 1, 61, 0
1, 453562, Note_on_c, 1, 75, 127
1, 453562, Note_on_c, 1, 59, 127
1, 453757, Note_on_c, 1, 47, 127
1, 453757, Note_on_c, 1, 69, 127
1, 453948, Note_off_c, 1, 75, 0
1, 453951, Note_off_c, 1, 47, 0
1, 453952, Note_on_c, 1, 52, 127
1, 453952, Note_on_c, 1, 76, 127
1, 454143, Note_off_c, 1, 69, 0
1, 454146, Note_off_c, 1, 59, 0
1, 454147, Note_on_c, 1, 67, 127
1, 454341, Note_off_c, 1, 67, 0
1, 454342, Note_on_c, 1, 57, 127
1, 454342, Note_on_c, 1, 66, 127
1, 454536, Note_off_c, 1, 57, 0
1, 454536, Note_off_c, 1, 66, 0
1, 454731, Note_off_c, 1, 52, 0
1, 454731, Note_off_c, 1, 76, 0
1, 454732, Note_on_c, 1, 56, 127
1, 454732, Note_on_c, 1, 50, 127
1, 454732, Note_on_c, 1, 64, 127
1, 454926, Note_off_c, 1, 56, 0
1, 454927, Note_on_c, 1, 59, 127
1, 455118, Note_off_c, 1, 50, 0
1, 455118, Note_off_c, 1, 64, 0
1, 455121, Note_off_c, 1, 59, 0
1, 455122, Note_on_c, 1, 52, 127
1, 455122, Note_on_c, 1, 49, 127
1, 455317, Note_on_c, 1, 81, 127
1, 455511, Note_off_c, 1, 81, 0
1, 455512, Note_on_c, 1, 79, 127
1, 455706, Note_off_c, 1, 79, 0
1, 455901, Note_off_c, 1, 52, 0
1, 455902, Note_on_c, 1, 76, 127
1, 455902, Note_on_c, 1, 57, 127
1, 456096, Note_off_c, 1, 76, 0
1, 456290, Note_off_c, 1, 49, 0
1, 456292, Note_on_c, 1, 77, 127
1, 456292, Note_on_c, 1, 50, 127
1, 456486, Note_off_c, 1, 57, 0
1, 456486, Note_off_c, 1, 77, 0
1, 456487, Note_on_c, 1, 58, 127
1, 456681, Note_off_c, 1, 58, 0
1, 456877, Note_on_c, 1, 55, 127
1, 457071, Note_off_c, 1, 55, 0
1, 457072, Note_on_c, 1, 53, 127
1, 457072, Note_on_c, 1, 74, 127
1, 457266, Note_off_c, 1, 53, 0
1, 457266, Note_off_c, 1, 74, 0
1, 457267, Note_on_c, 1, 73, 127
1, 457460, Note_off_c, 1, 50, 0
1, 457461, Note_off_c, 1, 73, 0
1, 457462, Note_on_c, 1, 74, 127
1, 457462, Note_on_c, 1, 53, 127
1, 457462, Note_on_c, 1, 50, 127
1, 457656, Note_off_c, 1, 74, 0
1, 457657, Note_on_c, 1, 76, 127
1, 457851, Note_off_c, 1, 76, 0
1, 458046, Note_off_c, 1, 53, 0
1, 458047, Note_on_c, 1, 57, 127
1, 458047, Note_on_c, 1, 72, 127
1, 458241, Note_off_c, 1, 57, 0
1, 458241, Note_off_c, 1, 72, 0
1, 458242, Note_on_c, 1, 62, 127
1, 458242, Note_on_c, 1, 71, 127
1, 458436, Note_off_c, 1, 62, 0
1, 458436, Note_off_c, 1, 71, 0
1, 458437, Note_on_c, 1, 60, 127
1, 458437, Note_on_c, 1, 69, 127
1, 458630, Note_off_c, 1, 50, 0
1, 458631, Note_off_c, 1, 60, 0
1, 458631, Note_off_c, 1, 69, 0
1, 458632, Note_on_c, 1, 59, 127
1, 458632, Note_on_c, 1, 50, 127
1, 458632, Note_on_c, 1, 68, 127
1, 458827, Note_on_c, 1, 65, 127
1, 459021, Note_off_c, 1, 65, 0
1, 459022, Note_on_c, 1, 64, 127
1, 459216, Note_off_c, 1, 64, 0
1, 459217, Note_on_c, 1, 62, 127
1, 459411, Note_off_c, 1, 59, 0
1, 459411, Note_off_c, 1, 50, 0
1, 459411, Note_off_c, 1, 68, 0
1, 459411, Note_off_c, 1, 62, 0
1, 459412, Note_on_c, 1, 64, 127
1, 459412, Note_on_c, 1, 48, 127
1, 459412, Note_on_c, 1, 57, 127
1, 459607, Note_on_c, 1, 69, 127
1, 459798, Note_off_c, 1, 64, 0
1, 459801, Note_off_c, 1, 48, 0
1, 459801, Note_off_c, 1, 57, 0
1, 459802, Note_on_c, 1, 62, 127
1, 459802, Note_on_c, 1, 47, 127
1, 459802, Note_on_c, 1, 59, 127
1, 459996, Note_off_c, 1, 62, 0
1, 459997, Note_on_c, 1, 61, 127
1, 460191, Note_off_c, 1, 61, 0
1, 460386, Note_off_c, 1, 69, 0
1, 460387, Note_on_c, 1, 71, 127
1, 460581, Note_off_c, 1, 71, 0
1, 460777, Note_on_c, 1, 68, 127
1, 460971, Note_off_c, 1, 47, 0
1, 460971, Note_off_c, 1, 59, 0
1, 460971, Note_off_c, 1, 68, 0
1, 460972, Note_on_c, 1, 69, 127
1, 460972, Note_on_c, 1, 52, 127
1, 460972, Note_on_c, 1, 45, 127
1, 460972, Note_on_c, 1, 60, 127
1, 461166, Note_off_c, 1, 69, 0
1, 461167, Note_on_c, 1, 64, 127
1, 461361, Note_off_c, 1, 52, 0
1, 461361, Note_off_c, 1, 64, 0
1, 461362, Note_on_c, 1, 65, 127
1, 461362, Note_on_c, 1, 57, 127
1, 461556, Note_off_c, 1, 65, 0
1, 461557, Note_on_c, 1, 67, 127
1, 461751, Note_off_c, 1, 45, 0
1, 461751, Note_off_c, 1, 67, 0
1, 462140, Note_off_c, 1, 60, 0
1, 462142, Note_on_c, 1, 47, 127
1, 462142, Note_on_c, 1, 62, 127
1, 462337, Note_on_c, 1, 66, 127
1, 462531, Note_off_c, 1, 57, 0
1, 462531, Note_off_c, 1, 66, 0
1, 462532, Note_on_c, 1, 55, 127
1, 462726, Note_off_c, 1, 55, 0
1, 462922, Note_on_c, 1, 59, 127
1, 463308, Note_off_c, 1, 59, 0
1, 463311, Note_off_c, 1, 47, 0
1, 463311, Note_off_c, 1, 62, 0
1, 463312, Note_on_c, 1, 55, 127
1, 463312, Note_on_c, 1, 64, 127
1, 463312, Note_on_c, 1, 48, 127
1, 463507, Note_on_c, 1, 67, 127
1, 463701, Note_off_c, 1, 67, 0
1, 463702, Note_on_c, 1, 69, 127
1, 463896, Note_off_c, 1, 55, 0
1, 463896, Note_off_c, 1, 64, 0
1, 464092, Note_on_c, 1, 53, 127
1, 464092, Note_on_c, 1, 62, 127
1, 464286, Note_off_c, 1, 53, 0
1, 464286, Note_off_c, 1, 62, 0
1, 464287, Note_off_c, 1, 48, 0
1, 464287, Note_on_c, 1, 52, 127
1, 464287, Note_on_c, 1, 49, 127
1, 464481, Note_off_c, 1, 52, 0
1, 464481, Note_off_c, 1, 49, 0
1, 464482, Note_on_c, 1, 50, 127
1, 464482, Note_on_c, 1, 66, 127
1, 464871, Note_off_c, 1, 69, 0
1, 464872, Note_on_c, 1, 71, 127
1, 465066, Note_off_c, 1, 50, 0
1, 465066, Note_off_c, 1, 66, 0
1, 465067, Note_on_c, 1, 51, 127
1, 465261, Note_off_c, 1, 51, 0
1, 465456, Note_off_c, 1, 71, 0
1, 465457, Note_on_c, 1, 72, 127
1, 465843, Note_off_c, 1, 72, 0
1, 466042, Note_on_c, 1, 74, 127
1, 466237, Note_on_c, 1, 54, 127
1, 466431, Note_off_c, 1, 54, 0
1, 466626, Note_off_c, 1, 74, 0
1, 466627, Note_on_c, 1, 56, 127
1, 466627, Note_on_c, 1, 76, 127
1, 466821, Note_off_c, 1, 56, 0
1, 466822, Note_on_c, 1, 57, 127
1, 467013, Note_off_c, 1, 76, 0
1, 467212, Note_on_c, 1, 77, 127
1, 467406, Note_off_c, 1, 57, 0
1, 467602, Note_on_c, 1, 59, 127
1, 467796, Note_off_c, 1, 77, 0
1, 467796, Note_off_c, 1, 59, 0
1, 467797, Note_on_c, 1, 79, 127
1, 467992, Note_on_c, 1, 60, 127
1, 468183, Note_off_c, 1, 79, 0
1, 468187, Note_on_c, 1, 80, 127
1, 468381, Note_off_c, 1, 80, 0
1, 468382, Note_on_c, 1, 81, 127
1, 468576, Note_off_c, 1, 60, 0
1, 468577, Note_on_c, 1, 61, 127
1, 468771, Note_off_c, 1, 61, 0
1, 468772, Note_on_c, 1, 78, 127
1, 468966, Note_off_c, 1, 81, 0
1, 468967, Note_on_c, 1, 63, 127
1, 468967, Note_on_c, 1, 83, 127
1, 469158, Note_off_c, 1, 78, 0
1, 469161, Note_off_c, 1, 63, 0
1, 469161, Note_off_c, 1, 83, 0
1, 469162, Note_on_c, 1, 80, 127
1, 469162, Note_on_c, 1, 76, 127
1, 469162, Note_on_c, 1, 64, 127
1, 469356, Note_off_c, 1, 80, 0
1, 469357, Note_on_c, 1, 66, 127
1, 469357, Note_on_c, 1, 81, 127
1, 469551, Note_off_c, 1, 66, 0
1, 469551, Note_off_c, 1, 81, 0
1, 469552, Note_on_c, 1, 68, 127
1, 469552, Note_on_c, 1, 83, 127
1, 469746, Note_off_c, 1, 76, 0
1, 469747, Note_on_c, 1, 74, 127
1, 469938, Note_off_c, 1, 68, 0
1, 469941, Note_off_c, 1, 74, 0
1, 469942, Note_on_c, 1, 72, 127
1, 470136, Note_off_c, 1, 83, 0
1, 470136, Note_off_c, 1, 72, 0
1, 470137, Note_on_c, 1, 69, 127
1, 470331, Note_off_c, 1, 69, 0
1, 470332, Note_on_c, 1, 71, 127
1, 470526, Note_off_c, 1, 71, 0
1, 470917, Note_on_c, 1, 78, 127
1, 471111, Note_off_c, 1, 78, 0
1, 471501, Note_off_c, 1, 64, 0
1, 471502, Note_on_c, 1, 57, 127
1, 471502, Note_on_c, 1, 72, 127
1, 471502, Note_on_c, 1, 69, 127
1, 471696, Note_off_c, 1, 57, 0
1, 471696, Note_off_c, 1, 72, 0
1, 471697, Note_on_c, 1, 53, 127
1, 471697, Note_on_c, 1, 74, 127
1, 471891, Note_off_c, 1, 53, 0
1, 471891, Note_off_c, 1, 74, 0
1, 471892, Note_on_c, 1, 52, 127
1, 472086, Note_off_c, 1, 52, 0
1, 472087, Note_on_c, 1, 50, 127
1, 472087, Note_on_c, 1, 71, 127
1, 472281, Note_off_c, 1, 50, 0
1, 472281, Note_off_c, 1, 71, 0
1, 472282, Note_on_c, 1, 48, 127
1, 472476, Note_off_c, 1, 48, 0
1, 472477, Note_on_c, 1, 47, 127
1, 472671, Note_off_c, 1, 47, 0
1, 472672, Note_on_c, 1, 45, 127
1, 472866, Note_off_c, 1, 45, 0
1, 472867, Note_on_c, 1, 44, 127
1, 473061, Note_off_c, 1, 44, 0
1, 473647, Note_on_c, 1, 40, 127
1, 473838, Note_off_c, 1, 69, 0
1, 473841, Note_off_c, 1, 40, 0
1, 473842, Note_on_c, 1, 72, 127
1, 473842, Note_on_c, 1, 45, 127
1, 474036, Note_off_c, 1, 72, 0
1, 474037, Note_on_c, 1, 74, 127
1, 474228, Note_off_c, 1, 45, 0
1, 474231, Note_off_c, 1, 74, 0
1, 474232, Note_on_c, 1, 71, 127
1, 474426, Note_off_c, 1, 71, 0
1, 474427, Note_on_c, 1, 52, 127
1, 474427, Note_on_c, 1, 74, 127
1, 474621, Note_off_c, 1, 52, 0
1, 474621, Note_off_c, 1, 74, 0
1, 474622, Note_on_c, 1, 57, 127
1, 474622, Note_on_c, 1, 72, 127
1, 474816, Note_off_c, 1, 57, 0
1, 474816, Note_off_c, 1, 72, 0
1, 474817, Note_on_c, 1, 59, 127
1, 474817, Note_on_c, 1, 74, 127
1, 475011, Note_off_c, 1, 59, 0
1, 475011, Note_off_c, 1, 74, 0
1, 475012, Note_on_c, 1, 60, 127
1, 475012, Note_on_c, 1, 76, 127
1, 475206, Note_off_c, 1, 60, 0
1, 475206, Note_off_c, 1, 76, 0
1, 475207, Note_on_c, 1, 57, 127
1, 475207, Note_on_c, 1, 79, 127
1, 475401, Note_off_c, 1, 57, 0
1, 475401, Note_off_c, 1, 79, 0
1, 475402, Note_on_c, 1, 62, 127
1, 475402, Note_on_c, 1, 78, 127
1, 475596, Note_off_c, 1, 62, 0
1, 475596, Note_off_c, 1, 78, 0
1, 475597, Note_on_c, 1, 59, 127
1, 475597, Note_on_c, 1, 81, 127
1, 475791, Note_off_c, 1, 59, 0
1, 475791, Note_off_c, 1, 81, 0
1, 475792, Note_on_c, 1, 64, 127
1, 475792, Note_on_c, 1, 80, 127
1, 475986, Note_off_c, 1, 64, 0
1, 475986, Note_off_c, 1, 80, 0
1, 475987, Note_on_c, 1, 52, 127
1, 475987, Note_on_c, 1, 83, 127
1, 475987, Note_on_c, 1, 62, 127
1, 476181, Note_off_c, 1, 52, 0
1, 476181, Note_off_c, 1, 83, 0
1, 476182, Note_on_c, 1, 81, 127
1, 476182, Note_on_c, 1, 57, 127
1, 476373, Note_off_c, 1, 62, 0
1, 476377, Note_on_c, 1, 77, 127
1, 476571, Note_off_c, 1, 77, 0
1, 476572, Note_on_c, 1, 60, 127
1, 476572, Note_on_c, 1, 76, 127
1, 476766, Note_off_c, 1, 81, 0
1, 476766, Note_off_c, 1, 60, 0
1, 476766, Note_off_c, 1, 76, 0
1, 476767, Note_on_c, 1, 65, 127
1, 476767, Note_on_c, 1, 74, 127
1, 476961, Note_off_c, 1, 65, 0
1, 476961, Note_off_c, 1, 74, 0
1, 476962, Note_on_c, 1, 64, 127
1, 476962, Note_on_c, 1, 72, 127
1, 477156, Note_off_c, 1, 64, 0
1, 477156, Note_off_c, 1, 72, 0
1, 477157, Note_on_c, 1, 71, 127
1, 477157, Note_on_c, 1, 80, 127
1, 477351, Note_off_c, 1, 71, 0
1, 477351, Note_off_c, 1, 80, 0
1, 477543, Note_off_c, 1, 57, 0
1, 478132, Note_on_c, 1, 69, 127
1, 478521, Note_off_c, 1, 69, 0
1, 478546, Note_on_c, 1, 81, 127
1, 478546, Note_on_c, 1, 45, 127
1, 478546, Note_on_c, 1, 72, 127
1, 478740, Note_off_c, 1, 81, 0
1, 478741, Note_on_c, 1, 76, 127
1, 478935, Note_off_c, 1, 76, 0
1, 478936, Note_on_c, 1, 77, 127
1, 479130, Note_off_c, 1, 45, 0
1, 479131, Note_on_c, 1, 57, 127
1, 479325, Note_off_c, 1, 57, 0
1, 479520, Note_off_c, 1, 77, 0
1, 479716, Note_on_c, 1, 59, 127
1, 479716, Note_on_c, 1, 74, 127
1, 479907, Note_off_c, 1, 72, 0
1, 479910, Note_off_c, 1, 59, 0
1, 480102, Note_off_c, 1, 74, 0
1, 480106, Note_on_c, 1, 71, 127
1, 480106, Note_on_c, 1, 56, 127
1, 480106, Note_on_c, 1, 76, 127
1, 480300, Note_off_c, 1, 71, 0
1, 480300, Note_off_c, 1, 56, 0
1, 480301, Note_on_c, 1, 69, 127
1, 480301, Note_on_c, 1, 54, 127
1, 480495, Note_off_c, 1, 69, 0
1, 480495, Note_off_c, 1, 54, 0
1, 480496, Note_on_c, 1, 68, 127
1, 480496, Note_on_c, 1, 52, 127
1, 480690, Note_off_c, 1, 76, 0
1, 480690, Note_off_c, 1, 68, 0
1, 480691, Note_on_c, 1, 66, 127
1, 480691, Note_on_c, 1, 74, 127
1, 480885, Note_off_c, 1, 52, 0
1, 480885, Note_off_c, 1, 66, 0
1, 480885, Note_off_c, 1, 74, 0
1, 480886, Note_on_c, 1, 64, 127
1, 480886, Note_on_c, 1, 72, 127
1, 480886, Note_on_c, 1, 57, 127
1, 481080, Note_off_c, 1, 64, 0
1, 481080, Note_off_c, 1, 72, 0
1, 481081, Note_on_c, 1, 62, 127
1, 481081, Note_on_c, 1, 71, 127
1, 481275, Note_off_c, 1, 62, 0
1, 481275, Note_off_c, 1, 71, 0
1, 481276, Note_on_c, 1, 60, 127
1, 481276, Note_on_c, 1, 69, 127
1, 481470, Note_off_c, 1, 57, 0
1, 481470, Note_off_c, 1, 60, 0
1, 481471, Note_on_c, 1, 55, 127
1, 481471, Note_on_c, 1, 59, 127
1, 481665, Note_off_c, 1, 55, 0
1, 481665, Note_off_c, 1, 59, 0
1, 481666, Note_on_c, 1, 53, 127
1, 481666, Note_on_c, 1, 74, 127
1, 481860, Note_off_c, 1, 69, 0
1, 481860, Note_off_c, 1, 53, 0
1, 481861, Note_on_c, 1, 50, 127
1, 482055, Note_off_c, 1, 50, 0
1, 482056, Note_on_c, 1, 68, 127
1, 482056, Note_on_c, 1, 52, 127
1, 482250, Note_off_c, 1, 74, 0
1, 482250, Note_off_c, 1, 68, 0
1, 482446, Note_on_c, 1, 40, 127
1, 482835, Note_off_c, 1, 52, 0
1, 483225, Note_off_c, 1, 40, 0
1, 483226, Note_on_c, 1, 45, 127
1, 483226, Note_on_c, 1, 69, 127
1, 483420, Note_off_c, 1, 45, 0
1, 483421, Note_on_c, 1, 52, 127
1, 483421, Note_on_c, 1, 64, 127
1, 483615, Note_off_c, 1, 52, 0
1, 483616, Note_on_c, 1, 60, 127
1, 483616, Note_on_c, 1, 57, 127
1, 483810, Note_off_c, 1, 69, 0
1, 483810, Note_off_c, 1, 64, 0
1, 483810, Note_off_c, 1, 60, 0
1, 483811, Note_on_c, 1, 68, 127
1, 483811, Note_on_c, 1, 71, 127
1, 483811, Note_on_c, 1, 62, 127
1, 484005, Note_off_c, 1, 68, 0
1, 484005, Note_off_c, 1, 71, 0
1, 484005, Note_off_c, 1, 62, 0
1, 484006, Note_on_c, 1, 72, 127
1, 484200, Note_off_c, 1, 57, 0
1, 484201, Note_on_c, 1, 55, 127
1, 484395, Note_off_c, 1, 72, 0
1, 484395, Note_off_c, 1, 55, 0
1, 484396, Note_on_c, 1, 53, 127
1, 484396, Note_on_c, 1, 62, 127
1, 484396, Note_on_c, 1, 74, 127
1, 484396, Note_on_c, 1, 69, 127
1, 484590, Note_off_c, 1, 53, 0
1, 484590, Note_off_c, 1, 62, 0
1, 484591, Note_on_c, 1, 52, 127
1, 484591, Note_on_c, 1, 64, 127
1, 484785, Note_off_c, 1, 52, 0
1, 484785, Note_off_c, 1, 64, 0
1, 484786, Note_on_c, 1, 65, 127
1, 484786, Note_on_c, 1, 50, 127
1, 484980, Note_off_c, 1, 74, 0
1, 484980, Note_off_c, 1, 69, 0
1, 484980, Note_off_c, 1, 65, 0
1, 484981, Note_on_c, 1, 67, 127
1, 484981, Note_on_c, 1, 76, 127
1, 484981, Note_on_c, 1, 73, 127
1, 485174, Note_off_c, 1, 67, 0
1, 485175, Note_off_c, 1, 76, 0
1, 485175, Note_off_c, 1, 73, 0
1, 485176, Note_on_c, 1, 77, 127
1, 485370, Note_off_c, 1, 50, 0
1, 485371, Note_on_c, 1, 48, 127
1, 485565, Note_off_c, 1, 48, 0
1, 485566, Note_on_c, 1, 47, 127
1, 485760, Note_off_c, 1, 77, 0
1, 485956, Note_on_c, 1, 79, 127
1, 486150, Note_off_c, 1, 47, 0
1, 486150, Note_off_c, 1, 79, 0
1, 486151, Note_on_c, 1, 59, 127
1, 486345, Note_off_c, 1, 59, 0
1, 486346, Note_on_c, 1, 60, 127
1, 486540, Note_off_c, 1, 60, 0
1, 486541, Note_on_c, 1, 54, 127
1, 486541, Note_on_c, 1, 72, 127
1, 486735, Note_off_c, 1, 54, 0
1, 486736, Note_on_c, 1, 55, 127
1, 486927, Note_off_c, 1, 72, 0
1, 487125, Note_off_c, 1, 55, 0
1, 487126, Note_on_c, 1, 71, 127
1, 487126, Note_on_c, 1, 43, 127
1, 487512, Note_off_c, 1, 71, 0
1, 487515, Note_off_c, 1, 43, 0
1, 487516, Note_on_c, 1, 72, 127
1, 487516, Note_on_c, 1, 48, 127
1, 487710, Note_off_c, 1, 72, 0
1, 487711, Note_on_c, 1, 76, 127
1, 487905, Note_off_c, 1, 48, 0
1, 487905, Note_off_c, 1, 76, 0
1, 487906, Note_on_c, 1, 76, 127
1, 487906, Note_on_c, 1, 48, 127
1, 488101, Note_on_c, 1, 67, 127
1, 488295, Note_off_c, 1, 67, 0
1, 488296, Note_on_c, 1, 72, 127
1, 488490, Note_off_c, 1, 76, 0
1, 488491, Note_on_c, 1, 74, 127
1, 488685, Note_off_c, 1, 48, 0
1, 488685, Note_off_c, 1, 74, 0
1, 488686, Note_on_c, 1, 60, 127
1, 488881, Note_on_c, 1, 78, 127
1, 489075, Note_off_c, 1, 72, 0
1, 489075, Note_off_c, 1, 60, 0
1, 489075, Note_off_c, 1, 78, 0
1, 489076, Note_on_c, 1, 59, 127
1, 489076, Note_on_c, 1, 79, 127
1, 489270, Note_off_c, 1, 59, 0
1, 489271, Note_on_c, 1, 77, 127
1, 489271, Note_on_c, 1, 62, 127
1, 489462, Note_off_c, 1, 79, 0
1, 489465, Note_off_c, 1, 77, 0
1, 489465, Note_off_c, 1, 62, 0
1, 489466, Note_on_c, 1, 76, 127
1, 489466, Note_on_c, 1, 60, 127
1, 489466, Note_on_c, 1, 80, 127
1, 489660, Note_off_c, 1, 76, 0
1, 489660, Note_off_c, 1, 60, 0
1, 489661, Note_on_c, 1, 74, 127
1, 489661, Note_on_c, 1, 59, 127
1, 489855, Note_off_c, 1, 74, 0
1, 489855, Note_off_c, 1, 59, 0
1, 489856, Note_on_c, 1, 72, 127
1, 489856, Note_on_c, 1, 57, 127
1, 490050, Note_off_c, 1, 80, 0
1, 490051, Note_on_c, 1, 81, 127
1, 490242, Note_off_c, 1, 72, 0
1, 490245, Note_off_c, 1, 57, 0
1, 490245, Note_off_c, 1, 81, 0
1, 490246, Note_on_c, 1, 83, 127
1, 490246, Note_on_c, 1, 56, 127
1, 490246, Note_on_c, 1, 71, 127
1, 490441, Note_on_c, 1, 65, 127
1, 490635, Note_off_c, 1, 65, 0
1, 490636, Note_on_c, 1, 64, 127
1, 490830, Note_off_c, 1, 83, 0
1, 490830, Note_off_c, 1, 56, 0
1, 490830, Note_off_c, 1, 64, 0
1, 490831, Note_on_c, 1, 62, 127
1, 491025, Note_off_c, 1, 71, 0
1, 491025, Note_off_c, 1, 62, 0
1, 491026, Note_on_c, 1, 76, 127
1, 491026, Note_on_c, 1, 69, 127
1, 491026, Note_on_c, 1, 57, 127
1, 491026, Note_on_c, 1, 60, 127
1, 491220, Note_off_c, 1, 76, 0
1, 491220, Note_off_c, 1, 69, 0
1, 491220, Note_off_c, 1, 57, 0
1, 491220, Note_off_c, 1, 60, 0
1, 491221, Note_on_c, 1, 78, 127
1, 491221, Note_on_c, 1, 73, 127
1, 491221, Note_on_c, 1, 58, 127
1, 491221, Note_on_c, 1, 64, 127
1, 491415, Note_off_c, 1, 78, 0
1, 491415, Note_off_c, 1, 73, 0
1, 491415, Note_off_c, 1, 58, 0
1, 491416, Note_on_c, 1, 79, 127
1, 491416, Note_on_c, 1, 71, 127
1, 491416, Note_on_c, 1, 59, 127
1, 491480, Note_off_c, 1, 79, 0
1, 491607, Note_off_c, 1, 64, 0
1, 491806, Note_on_c, 1, 63, 127
1, 492000, Note_off_c, 1, 71, 0
1, 492001, Note_on_c, 1, 69, 127
1, 492195, Note_off_c, 1, 59, 0
1, 492195, Note_off_c, 1, 63, 0
1, 492195, Note_off_c, 1, 69, 0
1, 492196, Note_on_c, 1, 52, 127
1, 492196, Note_on_c, 1, 64, 127
1, 492196, Note_on_c, 1, 68, 127
1, 492196, Note_on_c, 1, 76, 127
1, 492390, Note_off_c, 1, 52, 0
1, 492391, Note_on_c, 1, 50, 127
1, 492582, Note_off_c, 1, 64, 0
1, 492585, Note_off_c, 1, 68, 0
1, 492585, Note_off_c, 1, 50, 0
1, 492586, Note_on_c, 1, 49, 127
1, 492586, Note_on_c, 1, 69, 127
1, 492780, Note_off_c, 1, 76, 0
1, 492976, Note_on_c, 1, 81, 127
1, 493366, Note_on_c, 1, 57, 127
1, 493560, Note_off_c, 1, 81, 0
1, 493561, Note_on_c, 1, 79, 127
1, 493755, Note_off_c, 1, 49, 0
1, 493755, Note_off_c, 1, 79, 0
1, 493756, Note_on_c, 1, 77, 127
1, 493950, Note_off_c, 1, 57, 0
1, 494146, Note_on_c, 1, 62, 127
1, 494340, Note_off_c, 1, 77, 0
1, 494340, Note_off_c, 1, 62, 0
1, 494341, Note_on_c, 1, 60, 127
1, 494535, Note_off_c, 1, 60, 0
1, 494536, Note_off_c, 1, 69, 0
1, 494536, Note_on_c, 1, 59, 127
1, 494536, Note_on_c, 1, 74, 127
1, 494730, Note_off_c, 1, 59, 0
1, 494731, Note_on_c, 1, 72, 127
1, 494922, Note_off_c, 1, 74, 0
1, 494925, Note_off_c, 1, 72, 0
1, 494926, Note_on_c, 1, 71, 127
1, 494926, Note_on_c, 1, 56, 127
1, 494926, Note_on_c, 1, 76, 127
1, 495120, Note_off_c, 1, 71, 0
1, 495120, Note_off_c, 1, 56, 0
1, 495121, Note_on_c, 1, 69, 127
1, 495121, Note_on_c, 1, 54, 127
1, 495315, Note_off_c, 1, 69, 0
1, 495315, Note_off_c, 1, 54, 0
1, 495316, Note_on_c, 1, 68, 127
1, 495316, Note_on_c, 1, 52, 127
1, 495510, Note_off_c, 1, 76, 0
1, 495511, Note_on_c, 1, 74, 127
1, 495702, Note_off_c, 1, 68, 0
1, 495705, Note_off_c, 1, 52, 0
1, 495705, Note_off_c, 1, 74, 0
1, 495706, Note_on_c, 1, 72, 127
1, 495706, Note_on_c, 1, 51, 127
1, 495706, Note_on_c, 1, 69, 127
1, 495900, Note_off_c, 1, 72, 0
1, 495901, Note_on_c, 1, 71, 127
1, 496095, Note_off_c, 1, 51, 0
1, 496095, Note_off_c, 1, 71, 0
1, 496096, Note_on_c, 1, 52, 127
1, 496273, Note_off_c, 1, 69, 0
1, 496485, Note_off_c, 1, 52, 0
1, 496486, Note_on_c, 1, 68, 127
1, 496486, Note_on_c, 1, 40, 127
1, 496706, Note_on_c, 1, 72, 127
1, 496873, Note_off_c, 1, 68, 0
1, 496951, Note_off_c, 1, 72, 0
1, 496956, Note_off_c, 1, 40, 0
1, 496967, Note_on_c, 1, 45, 127
1, 496968, Note_on_c, 1, 69, 127
1, 498767, Note_off_c, 1, 45, 0
1, 498768, Note_off_c, 1, 69, 0
1, 499974, Note_on_c, 1, 69, 127
1, 500172, Note_off_c, 1, 69, 0
1, 500174, Note_on_c, 1, 76, 127
1, 500370, Note_off_c, 1, 76, 0
1, 500373, Note_on_c, 1, 74, 127
1, 500555, Note_off_c, 1, 74, 0
1, 500572, Note_on_c, 1, 72, 127
1, 500770, Note_off_c, 1, 72, 0
1, 500772, Note_on_c, 1, 71, 127
1, 500968, Note_off_c, 1, 71, 0
1, 500971, Note_on_c, 1, 69, 127
1, 501153, Note_off_c, 1, 69, 0
1, 501170, Note_on_c, 1, 77, 127
1, 501368, Note_off_c, 1, 77, 0
1, 501370, Note_on_c, 1, 76, 127
1, 501566, Note_off_c, 1, 76, 0
1, 501569, Note_on_c, 1, 74, 127
1, 501751, Note_off_c, 1, 74, 0
1, 501768, Note_on_c, 1, 76, 127
1, 501966, Note_off_c, 1, 76, 0
1, 501968, Note_on_c, 1, 69, 127
1, 502164, Note_off_c, 1, 69, 0
1, 502167, Note_on_c, 1, 81, 127
1, 502349, Note_off_c, 1, 81, 0
1, 502366, Note_on_c, 1, 81, 127
1, 502564, Note_off_c, 1, 81, 0
1, 502566, Note_on_c, 1, 79, 127
1, 502762, Note_off_c, 1, 79, 0
1, 502765, Note_on_c, 1, 77, 127
1, 502947, Note_off_c, 1, 77, 0
1, 502964, Note_on_c, 1, 79, 127
1, 503162, Note_off_c, 1, 79, 0
1, 503164, Note_on_c, 1, 77, 127
1, 503360, Note_off_c, 1, 77, 0
1, 503363, Note_on_c, 1, 76, 127
1, 503545, Note_off_c, 1, 76, 0
1, 503562, Note_on_c, 1, 77, 127
1, 503760, Note_off_c, 1, 77, 0
1, 503762, Note_on_c, 1, 76, 127
1, 503958, Note_off_c, 1, 76, 0
1, 503961, Note_on_c, 1, 74, 127
1, 504143, Note_off_c, 1, 74, 0
1, 504160, Note_on_c, 1, 76, 127
1, 504358, Note_off_c, 1, 76, 0
1, 504360, Note_on_c, 1, 74, 127
1, 504556, Note_off_c, 1, 74, 0
1, 504559, Note_on_c, 1, 72, 127
1, 504741, Note_off_c, 1, 72, 0
1, 504758, Note_on_c, 1, 74, 127
1, 504956, Note_off_c, 1, 74, 0
1, 504958, Note_on_c, 1, 72, 127
1, 505154, Note_off_c, 1, 72, 0
1, 505157, Note_on_c, 1, 71, 127
1, 505339, Note_off_c, 1, 71, 0
1, 505356, Note_on_c, 1, 72, 127
1, 505554, Note_off_c, 1, 72, 0
1, 505556, Note_on_c, 1, 71, 127
1, 505752, Note_off_c, 1, 71, 0
1, 505755, Note_on_c, 1, 69, 127
1, 505937, Note_off_c, 1, 69, 0
1, 505954, Note_on_c, 1, 71, 127
1, 506152, Note_off_c, 1, 71, 0
1, 506154, Note_on_c, 1, 69, 127
1, 506350, Note_off_c, 1, 69, 0
1, 506353, Note_on_c, 1, 68, 127
1, 506535, Note_off_c, 1, 68, 0
1, 506552, Note_on_c, 1, 69, 127
1, 506750, Note_off_c, 1, 69, 0
1, 506752, Note_on_c, 1, 72, 127
1, 506948, Note_off_c, 1, 72, 0
1, 506951, Note_on_c, 1, 74, 127
1, 507133, Note_off_c, 1, 74, 0
1, 507150, Note_on_c, 1, 64, 127
1, 507150, Note_on_c, 1, 76, 127
1, 507348, Note_off_c, 1, 64, 0
1, 507348, Note_off_c, 1, 76, 0
1, 507350, Note_on_c, 1, 71, 127
1, 507350, Note_on_c, 1, 75, 127
1, 507546, Note_off_c, 1, 71, 0
1, 507546, Note_off_c, 1, 75, 0
1, 507549, Note_on_c, 1, 69, 127
1, 507549, Note_on_c, 1, 78, 127
1, 507731, Note_off_c, 1, 69, 0
1, 507731, Note_off_c, 1, 78, 0
1, 507748, Note_on_c, 1, 67, 127
1, 507748, Note_on_c, 1, 71, 127
1, 507946, Note_off_c, 1, 67, 0
1, 507948, Note_on_c, 1, 66, 127
1, 508144, Note_off_c, 1, 66, 0
1, 508146, Note_off_c, 1, 71, 0
1, 508148, Note_on_c, 1, 64, 127
1, 508148, Note_on_c, 1, 79, 127
1, 508330, Note_off_c, 1, 64, 0
1, 508330, Note_off_c, 1, 79, 0
1, 508347, Note_on_c, 1, 72, 127
1, 508347, Note_on_c, 1, 76, 127
1, 508545, Note_off_c, 1, 72, 0
1, 508547, Note_on_c, 1, 71, 127
1, 508743, Note_off_c, 1, 71, 0
1, 508745, Note_off_c, 1, 76, 0
1, 508747, Note_on_c, 1, 69, 127
1, 508747, Note_on_c, 1, 81, 127
1, 508929, Note_off_c, 1, 69, 0
1, 508929, Note_off_c, 1, 81, 0
1, 508946, Note_on_c, 1, 71, 127
1, 508946, Note_on_c, 1, 79, 127
1, 509144, Note_off_c, 1, 71, 0
1, 509146, Note_on_c, 1, 64, 127
1, 509244, Note_off_c, 1, 79, 0
1, 509246, Note_on_c, 1, 81, 127
1, 509343, Note_off_c, 1, 64, 0
1, 509345, Note_off_c, 1, 81, 0
1, 509347, Note_on_c, 1, 79, 127
1, 509347, Note_on_c, 1, 76, 127
1, 509442, Note_off_c, 1, 79, 0
1, 509447, Note_on_c, 1, 78, 127
1, 509530, Note_off_c, 1, 76, 0
1, 509546, Note_off_c, 1, 78, 0
1, 509548, Note_on_c, 1, 76, 127
1, 509548, Note_on_c, 1, 79, 127
1, 509746, Note_off_c, 1, 76, 0
1, 509748, Note_on_c, 1, 74, 127
1, 509944, Note_off_c, 1, 74, 0
1, 509946, Note_off_c, 1, 79, 0
1, 509948, Note_on_c, 1, 72, 127
1, 509948, Note_on_c, 1, 81, 127
1, 510130, Note_off_c, 1, 72, 0
1, 510130, Note_off_c, 1, 81, 0
1, 510147, Note_on_c, 1, 74, 127
1, 510147, Note_on_c, 1, 78, 127
1, 510345, Note_off_c, 1, 74, 0
1, 510347, Note_on_c, 1, 72, 127
1, 510543, Note_off_c, 1, 72, 0
1, 510545, Note_off_c, 1, 78, 0
1, 510547, Note_on_c, 1, 71, 127
1, 510547, Note_on_c, 1, 83, 127
1, 510729, Note_off_c, 1, 71, 0
1, 510729, Note_off_c, 1, 83, 0
1, 510746, Note_on_c, 1, 72, 127
1, 510746, Note_on_c, 1, 76, 127
1, 510944, Note_off_c, 1, 72, 0
1, 510946, Note_on_c, 1, 71, 127
1, 511142, Note_off_c, 1, 71, 0
1, 511144, Note_off_c, 1, 76, 0
1, 511146, Note_on_c, 1, 69, 127
1, 511146, Note_on_c, 1, 77, 127
1, 511328, Note_off_c, 1, 69, 0
1, 511328, Note_off_c, 1, 77, 0
1, 511345, Note_on_c, 1, 71, 127
1, 511345, Note_on_c, 1, 74, 127
1, 511543, Note_off_c, 1, 71, 0
1, 511545, Note_on_c, 1, 69, 127
1, 511741, Note_off_c, 1, 69, 0
1, 511743, Note_off_c, 1, 74, 0
1, 511745, Note_on_c, 1, 67, 127
1, 511745, Note_on_c, 1, 79, 127
1, 511927, Note_off_c, 1, 67, 0
1, 511927, Note_off_c, 1, 79, 0
1, 511944, Note_on_c, 1, 69, 127
1, 511944, Note_on_c, 1, 72, 127
1, 512142, Note_off_c, 1, 69, 0
1, 512144, Note_on_c, 1, 67, 127
1, 512340, Note_off_c, 1, 67, 0
1, 512342, Note_off_c, 1, 72, 0
1, 512344, Note_on_c, 1, 66, 127
1, 512344, Note_on_c, 1, 74, 127
1, 512526, Note_off_c, 1, 66, 0
1, 512526, Note_off_c, 1, 74, 0
1, 512543, Note_on_c, 1, 67, 127
1, 512543, Note_on_c, 1, 71, 127
1, 512741, Note_off_c, 1, 67, 0
1, 512743, Note_on_c, 1, 66, 127
1, 512939, Note_off_c, 1, 66, 0
1, 512941, Note_off_c, 1, 71, 0
1, 512943, Note_on_c, 1, 64, 127
1, 512943, Note_on_c, 1, 76, 127
1, 513125, Note_off_c, 1, 64, 0
1, 513125, Note_off_c, 1, 76, 0
1, 513142, Note_on_c, 1, 66, 127
1, 513142, Note_on_c, 1, 81, 127
1, 513340, Note_off_c, 1, 66, 0
1, 513340, Note_off_c, 1, 81, 0
1, 513342, Note_on_c, 1, 64, 127
1, 513342, Note_on_c, 1, 79, 127
1, 513538, Note_off_c, 1, 64, 0
1, 513538, Note_off_c, 1, 79, 0
1, 513541, Note_on_c, 1, 63, 127
1, 513541, Note_on_c, 1, 78, 127
1, 513723, Note_off_c, 1, 63, 0
1, 513723, Note_off_c, 1, 78, 0
1, 513740, Note_on_c, 1, 64, 127
1, 513740, Note_on_c, 1, 79, 127
1, 513938, Note_off_c, 1, 64, 0
1, 513940, Note_on_c, 1, 71, 127
1, 514136, Note_off_c, 1, 71, 0
1, 514139, Note_on_c, 1, 76, 127
1, 514337, Note_off_c, 1, 79, 0
1, 514339, Note_on_c, 1, 77, 127
1, 514534, Note_off_c, 1, 76, 0
1, 514539, Note_on_c, 1, 74, 127
1, 514636, Note_off_c, 1, 74, 0
1, 514639, Note_on_c, 1, 72, 127
1, 514737, Note_off_c, 1, 72, 0
1, 514937, Note_off_c, 1, 77, 0
1, 515139, Note_on_c, 1, 67, 127
1, 515335, Note_off_c, 1, 67, 0
1, 515838, Note_on_c, 1, 69, 127
1, 515936, Note_off_c, 1, 69, 0
1, 516737, Note_on_c, 1, 57, 127
1, 516935, Note_off_c, 1, 57, 0
1, 517138, Note_on_c, 1, 62, 127
1, 517138, Note_on_c, 1, 68, 127
1, 517138, Note_on_c, 1, 71, 127
1, 517320, Note_off_c, 1, 62, 0
1, 517320, Note_off_c, 1, 68, 0
1, 517320, Note_off_c, 1, 71, 0
1, 517337, Note_on_c, 1, 60, 127
1, 517337, Note_on_c, 1, 69, 127
1, 517337, Note_on_c, 1, 72, 127
1, 517535, Note_off_c, 1, 60, 0
1, 517537, Note_on_c, 1, 59, 127
1, 517733, Note_off_c, 1, 59, 0
1, 517736, Note_on_c, 1, 57, 127
1, 517918, Note_off_c, 1, 57, 0
1, 517935, Note_on_c, 1, 65, 127
1, 518133, Note_off_c, 1, 65, 0
1, 518135, Note_on_c, 1, 64, 127
1, 518331, Note_off_c, 1, 64, 0
1, 518333, Note_off_c, 1, 69, 0
1, 518333, Note_off_c, 1, 72, 0
1, 518335, Note_on_c, 1, 62, 127
1, 518335, Note_on_c, 1, 71, 127
1, 518335, Note_on_c, 1, 77, 127
1, 518517, Note_off_c, 1, 62, 0
1, 518517, Note_off_c, 1, 71, 0
1, 518517, Note_off_c, 1, 77, 0
1, 518534, Note_on_c, 1, 64, 127
1, 518534, Note_on_c, 1, 72, 127
1, 518534, Note_on_c, 1, 76, 127
1, 518732, Note_off_c, 1, 64, 0
1, 518734, Note_on_c, 1, 57, 127
1, 518832, Note_off_c, 1, 72, 0
1, 518834, Note_on_c, 1, 74, 127
1, 518931, Note_off_c, 1, 57, 0
1, 518933, Note_off_c, 1, 74, 0
1, 518935, Note_on_c, 1, 69, 127
1, 519035, Note_on_c, 1, 71, 127
1, 519118, Note_off_c, 1, 69, 0
1, 519134, Note_off_c, 1, 71, 0
1, 519336, Note_on_c, 1, 67, 127
1, 519532, Note_off_c, 1, 67, 0
1, 519534, Note_off_c, 1, 76, 0
1, 519536, Note_on_c, 1, 65, 127
1, 519536, Note_on_c, 1, 72, 127
1, 519536, Note_on_c, 1, 77, 127
1, 519536, Note_on_c, 1, 81, 127
1, 519718, Note_off_c, 1, 65, 0
1, 519718, Note_off_c, 1, 72, 0
1, 519718, Note_off_c, 1, 77, 0
1, 519718, Note_off_c, 1, 81, 0
1, 519735, Note_on_c, 1, 67, 127
1, 519735, Note_on_c, 1, 71, 127
1, 519735, Note_on_c, 1, 74, 127
1, 519933, Note_off_c, 1, 67, 0
1, 519935, Note_on_c, 1, 65, 127
1, 520131, Note_off_c, 1, 65, 0
1, 520133, Note_off_c, 1, 71, 0
1, 520133, Note_off_c, 1, 74, 0
1, 520135, Note_on_c, 1, 64, 127
1, 520135, Note_on_c, 1, 70, 127
1, 520135, Note_on_c, 1, 76, 127
1, 520135, Note_on_c, 1, 79, 127
1, 520317, Note_off_c, 1, 64, 0
1, 520317, Note_off_c, 1, 70, 0
1, 520317, Note_off_c, 1, 76, 0
1, 520317, Note_off_c, 1, 79, 0
1, 520334, Note_on_c, 1, 65, 127
1, 520334, Note_on_c, 1, 69, 127
1, 520334, Note_on_c, 1, 72, 127
1, 520532, Note_off_c, 1, 65, 0
1, 520534, Note_on_c, 1, 64, 127
1, 520730, Note_off_c, 1, 64, 0
1, 520732, Note_off_c, 1, 69, 0
1, 520732, Note_off_c, 1, 72, 0
1, 520734, Note_on_c, 1, 62, 127
1, 520734, Note_on_c, 1, 71, 127
1, 520734, Note_on_c, 1, 74, 127
1, 520916, Note_off_c, 1, 62, 0
1, 520916, Note_off_c, 1, 71, 0
1, 520916, Note_off_c, 1, 74, 0
1, 520933, Note_on_c, 1, 64, 127
1, 520933, Note_on_c, 1, 68, 127
1, 520933, Note_on_c, 1, 71, 127
1, 521131, Note_off_c, 1, 64, 0
1, 521133, Note_on_c, 1, 62, 127
1, 521329, Note_off_c, 1, 62, 0
1, 521331, Note_off_c, 1, 68, 0
1, 521331, Note_off_c, 1, 71, 0
1, 521333, Note_on_c, 1, 60, 127
1, 521333, Note_on_c, 1, 67, 127
1, 521333, Note_on_c, 1, 72, 127
1, 521333, Note_on_c, 1, 76, 127
1, 521515, Note_off_c, 1, 60, 0
1, 521515, Note_off_c, 1, 67, 0
1, 521515, Note_off_c, 1, 72, 0
1, 521515, Note_off_c, 1, 76, 0
1, 521532, Note_on_c, 1, 62, 127
1, 521532, Note_on_c, 1, 66, 127
1, 521532, Note_on_c, 1, 69, 127
1, 521730, Note_off_c, 1, 62, 0
1, 521732, Note_on_c, 1, 60, 127
1, 521928, Note_off_c, 1, 60, 0
1, 521930, Note_off_c, 1, 66, 0
1, 521930, Note_off_c, 1, 69, 0
1, 521932, Note_on_c, 1, 59, 127
1, 521932, Note_on_c, 1, 65, 127
1, 521932, Note_on_c, 1, 74, 127
1, 522114, Note_off_c, 1, 59, 0
1, 522114, Note_off_c, 1, 65, 0
1, 522131, Note_on_c, 1, 60, 127
1, 522131, Note_on_c, 1, 64, 127
1, 522329, Note_off_c, 1, 60, 0
1, 522526, Note_off_c, 1, 74, 0
1, 522530, Note_off_c, 1, 64, 0
1, 522532, Note_on_c, 1, 57, 127
1, 522532, Note_on_c, 1, 69, 127
1, 522532, Note_on_c, 1, 72, 127
1, 522714, Note_off_c, 1, 57, 0
1, 522714, Note_off_c, 1, 69, 0
1, 522714, Note_off_c, 1, 72, 0
1, 522731, Note_on_c, 1, 59, 127
1, 522731, Note_on_c, 1, 74, 127
1, 522731, Note_on_c, 1, 77, 127
1, 522929, Note_off_c, 1, 59, 0
1, 522929, Note_off_c, 1, 74, 0
1, 522931, Note_on_c, 1, 57, 127
1, 522931, Note_on_c, 1, 72, 127
1, 523127, Note_off_c, 1, 57, 0
1, 523127, Note_off_c, 1, 72, 0
1, 523130, Note_on_c, 1, 56, 127
1, 523130, Note_on_c, 1, 71, 127
1, 523312, Note_off_c, 1, 56, 0
1, 523312, Note_off_c, 1, 71, 0
1, 523328, Note_off_c, 1, 77, 0
1, 523330, Note_on_c, 1, 57, 127
1, 523330, Note_on_c, 1, 76, 127
1, 523330, Note_on_c, 1, 72, 127
1, 523528, Note_off_c, 1, 57, 0
1, 523528, Note_off_c, 1, 76, 0
1, 523530, Note_on_c, 1, 60, 127
1, 523530, Note_on_c, 1, 81, 127
1, 523726, Note_off_c, 1, 60, 0
1, 523729, Note_on_c, 1, 62, 127
1, 523911, Note_off_c, 1, 62, 0
1, 523925, Note_off_c, 1, 81, 0
1, 523927, Note_off_c, 1, 72, 0
1, 523929, Note_on_c, 1, 52, 127
1, 523929, Note_on_c, 1, 64, 127
1, 523929, Note_on_c, 1, 71, 127
1, 523929, Note_on_c, 1, 79, 127
1, 524127, Note_off_c, 1, 52, 0
1, 524127, Note_off_c, 1, 64, 0
1, 524127, Note_off_c, 1, 71, 0
1, 524127, Note_off_c, 1, 79, 0
1, 524129, Note_on_c, 1, 59, 127
1, 524129, Note_on_c, 1, 66, 127
1, 524129, Note_on_c, 1, 71, 127
1, 524129, Note_on_c, 1, 75, 127
1, 524325, Note_off_c, 1, 59, 0
1, 524328, Note_on_c, 1, 57, 127
1, 524510, Note_off_c, 1, 57, 0
1, 524524, Note_off_c, 1, 66, 0
1, 524524, Note_off_c, 1, 71, 0
1, 524524, Note_off_c, 1, 75, 0
1, 524527, Note_on_c, 1, 55, 127
1, 524527, Note_on_c, 1, 71, 127
1, 524527, Note_on_c, 1, 76, 127
1, 524527, Note_on_c, 1, 64, 127
1, 524725, Note_off_c, 1, 55, 0
1, 524727, Note_on_c, 1, 54, 127
1, 524923, Note_off_c, 1, 54, 0
1, 524926, Note_on_c, 1, 52, 127
1, 525108, Note_off_c, 1, 52, 0
1, 525124, Note_off_c, 1, 71, 0
1, 525126, Note_on_c, 1, 60, 127
1, 525126, Note_on_c, 1, 69, 127
1, 525324, Note_off_c, 1, 60, 0
1, 525326, Note_on_c, 1, 59, 127
1, 525522, Note_off_c, 1, 59, 0
1, 525524, Note_off_c, 1, 76, 0
1, 525524, Note_off_c, 1, 69, 0
1, 525526, Note_off_c, 1, 64, 0
1, 525526, Note_on_c, 1, 57, 127
1, 525526, Note_on_c, 1, 72, 127
1, 525526, Note_on_c, 1, 81, 127
1, 525526, Note_on_c, 1, 78, 127
1, 525708, Note_off_c, 1, 57, 0
1, 525708, Note_off_c, 1, 72, 0
1, 525708, Note_off_c, 1, 81, 0
1, 525725, Note_on_c, 1, 79, 127
1, 526020, Note_off_c, 1, 78, 0
1, 526226, Note_on_c, 1, 75, 127
1, 526325, Note_off_c, 1, 79, 0
1, 526325, Note_off_c, 1, 75, 0
1, 526327, Note_on_c, 1, 64, 127
1, 526327, Note_on_c, 1, 76, 127
1, 526327, Note_on_c, 1, 79, 127
1, 526327, Note_on_c, 1, 71, 127
1, 526525, Note_off_c, 1, 64, 0
1, 526527, Note_on_c, 1, 62, 127
1, 526723, Note_off_c, 1, 62, 0
1, 526725, Note_off_c, 1, 76, 0
1, 526725, Note_off_c, 1, 79, 0
1, 526727, Note_on_c, 1, 60, 127
1, 526727, Note_on_c, 1, 81, 127
1, 526909, Note_off_c, 1, 60, 0
1, 526909, Note_off_c, 1, 81, 0
1, 526925, Note_off_c, 1, 71, 0
1, 526927, Note_on_c, 1, 62, 127
1, 526927, Note_on_c, 1, 69, 127
1, 526927, Note_on_c, 1, 74, 127
1, 526927, Note_on_c, 1, 78, 127
1, 527125, Note_off_c, 1, 62, 0
1, 527127, Note_on_c, 1, 60, 127
1, 527323, Note_off_c, 1, 60, 0
1, 527325, Note_off_c, 1, 69, 0
1, 527325, Note_off_c, 1, 74, 0
1, 527325, Note_off_c, 1, 78, 0
1, 527327, Note_on_c, 1, 59, 127
1, 527327, Note_on_c, 1, 67, 127
1, 527327, Note_on_c, 1, 74, 127
1, 527327, Note_on_c, 1, 77, 127
1, 527509, Note_off_c, 1, 59, 0
1, 527509, Note_off_c, 1, 67, 0
1, 527509, Note_off_c, 1, 74, 0
1, 527509, Note_off_c, 1, 77, 0
1, 527526, Note_on_c, 1, 60, 127
1, 527526, Note_on_c, 1, 67, 127
1, 527526, Note_on_c, 1, 72, 127
1, 527526, Note_on_c, 1, 76, 127
1, 527724, Note_off_c, 1, 60, 0
1, 527726, Note_on_c, 1, 59, 127
1, 527922, Note_off_c, 1, 59, 0
1, 527924, Note_off_c, 1, 67, 0
1, 527924, Note_off_c, 1, 72, 0
1, 527924, Note_off_c, 1, 76, 0
1, 527926, Note_on_c, 1, 57, 127
1, 527926, Note_on_c, 1, 69, 127
1, 527926, Note_on_c, 1, 72, 127
1, 527926, Note_on_c, 1, 78, 127
1, 528108, Note_off_c, 1, 57, 0
1, 528108, Note_off_c, 1, 69, 0
1, 528108, Note_off_c, 1, 72, 0
1, 528108, Note_off_c, 1, 78, 0
1, 528125, Note_on_c, 1, 59, 127
1, 528125, Note_on_c, 1, 66, 127
1, 528125, Note_on_c, 1, 71, 127
1, 528125, Note_on_c, 1, 75, 127
1, 528323, Note_off_c, 1, 59, 0
1, 528325, Note_on_c, 1, 57, 127
1, 528521, Note_off_c, 1, 57, 0
1, 528523, Note_off_c, 1, 66, 0
1, 528523, Note_off_c, 1, 71, 0
1, 528523, Note_off_c, 1, 75, 0
1, 528525, Note_on_c, 1, 55, 127
1, 528525, Note_on_c, 1, 64, 127
1, 528525, Note_on_c, 1, 71, 127
1, 528525, Note_on_c, 1, 74, 127
1, 528707, Note_off_c, 1, 55, 0
1, 528707, Note_off_c, 1, 64, 0
1, 528707, Note_off_c, 1, 71, 0
1, 528707, Note_off_c, 1, 74, 0
1, 528724, Note_on_c, 1, 57, 127
1, 528724, Note_on_c, 1, 64, 127
1, 528724, Note_on_c, 1, 69, 127
1, 528724, Note_on_c, 1, 73, 127
1, 528922, Note_off_c, 1, 57, 0
1, 528924, Note_on_c, 1, 55, 127
1, 529120, Note_off_c, 1, 55, 0
1, 529122, Note_off_c, 1, 64, 0
1, 529122, Note_off_c, 1, 69, 0
1, 529122, Note_off_c, 1, 73, 0
1, 529124, Note_on_c, 1, 54, 127
1, 529124, Note_on_c, 1, 62, 127
1, 529124, Note_on_c, 1, 69, 127
1, 529124, Note_on_c, 1, 72, 127
1, 529306, Note_off_c, 1, 54, 0
1, 529306, Note_off_c, 1, 62, 0
1, 529306, Note_off_c, 1, 69, 0
1, 529306, Note_off_c, 1, 72, 0
1, 529323, Note_on_c, 1, 55, 127
1, 529323, Note_on_c, 1, 62, 127
1, 529323, Note_on_c, 1, 67, 127
1, 529323, Note_on_c, 1, 71, 127
1, 529521, Note_off_c, 1, 55, 0
1, 529523, Note_on_c, 1, 54, 127
1, 529719, Note_off_c, 1, 54, 0
1, 529721, Note_off_c, 1, 62, 0
1, 529721, Note_off_c, 1, 67, 0
1, 529721, Note_off_c, 1, 71, 0
1, 529723, Note_on_c, 1, 52, 127
1, 529723, Note_on_c, 1, 67, 127
1, 529723, Note_on_c, 1, 71, 127
1, 529723, Note_on_c, 1, 76, 127
1, 529905, Note_off_c, 1, 52, 0
1, 529905, Note_off_c, 1, 67, 0
1, 529905, Note_off_c, 1, 71, 0
1, 529905, Note_off_c, 1, 76, 0
1, 529922, Note_on_c, 1, 54, 127
1, 529922, Note_on_c, 1, 75, 127
1, 529922, Note_on_c, 1, 69, 127
1, 530120, Note_off_c, 1, 54, 0
1, 530120, Note_off_c, 1, 75, 0
1, 530122, Note_on_c, 1, 52, 127
1, 530122, Note_on_c, 1, 76, 127
1, 530318, Note_off_c, 1, 52, 0
1, 530318, Note_off_c, 1, 76, 0
1, 530321, Note_on_c, 1, 51, 127
1, 530321, Note_on_c, 1, 78, 127
1, 530503, Note_off_c, 1, 51, 0
1, 530503, Note_off_c, 1, 78, 0
1, 530520, Note_on_c, 1, 71, 127
1, 530718, Note_off_c, 1, 69, 0
1, 530718, Note_off_c, 1, 71, 0
1, 530720, Note_on_c, 1, 55, 127
1, 530720, Note_on_c, 1, 67, 127
1, 530720, Note_on_c, 1, 76, 127
1, 530916, Note_off_c, 1, 55, 0
1, 530919, Note_on_c, 1, 57, 127
1, 531101, Note_off_c, 1, 57, 0
1, 531118, Note_on_c, 1, 59, 127
1, 531314, Note_off_c, 1, 67, 0
1, 531317, Note_on_c, 1, 66, 127
1, 531513, Note_off_c, 1, 76, 0
1, 531513, Note_off_c, 1, 66, 0
1, 531516, Note_on_c, 1, 74, 127
1, 531516, Note_on_c, 1, 71, 127
1, 531698, Note_off_c, 1, 74, 0
1, 531714, Note_off_c, 1, 59, 0
1, 531716, Note_on_c, 1, 52, 127
1, 531716, Note_on_c, 1, 72, 127
1, 531911, Note_off_c, 1, 71, 0
1, 531916, Note_on_c, 1, 69, 127
1, 532013, Note_off_c, 1, 69, 0
1, 532114, Note_off_c, 1, 52, 0
1, 532116, Note_on_c, 1, 54, 127
1, 532298, Note_off_c, 1, 54, 0
1, 532314, Note_off_c, 1, 72, 0
1, 532516, Note_on_c, 1, 62, 127
1, 532712, Note_off_c, 1, 62, 0
1, 532915, Note_on_c, 1, 49, 127
1, 533215, Note_on_c, 1, 64, 127
1, 533313, Note_off_c, 1, 49, 0
1, 533313, Note_off_c, 1, 64, 0
1, 533315, Note_on_c, 1, 51, 127
1, 533497, Note_off_c, 1, 51, 0
1, 533515, Note_on_c, 1, 68, 127
1, 534112, Note_off_c, 1, 68, 0
1, 534114, Note_on_c, 1, 45, 127
1, 534314, Note_on_c, 1, 63, 127
1, 534411, Note_off_c, 1, 63, 0
1, 534414, Note_on_c, 1, 61, 127
1, 534512, Note_off_c, 1, 45, 0
1, 534512, Note_off_c, 1, 61, 0
1, 534514, Note_on_c, 1, 47, 127
1, 534696, Note_off_c, 1, 47, 0
1, 534714, Note_on_c, 1, 40, 127
1, 534714, Note_on_c, 1, 64, 127
1, 534912, Note_off_c, 1, 40, 0
1, 534914, Note_on_c, 1, 47, 127
1, 535110, Note_off_c, 1, 47, 0
1, 535112, Note_off_c, 1, 64, 0
1, 535114, Note_on_c, 1, 64, 127
1, 535114, Note_on_c, 1, 52, 127
1, 535296, Note_off_c, 1, 64, 0
1, 535313, Note_on_c, 1, 66, 127
1, 535508, Note_off_c, 1, 52, 0
1, 535513, Note_on_c, 1, 50, 127
1, 535610, Note_off_c, 1, 50, 0
1, 535613, Note_on_c, 1, 48, 127
1, 535711, Note_off_c, 1, 66, 0
1, 535711, Note_off_c, 1, 48, 0
1, 535713, Note_on_c, 1, 50, 127
1, 535713, Note_on_c, 1, 68, 127
1, 535895, Note_off_c, 1, 50, 0
1, 535895, Note_off_c, 1, 68, 0
1, 535912, Note_on_c, 1, 57, 127
1, 535912, Note_on_c, 1, 48, 127
1, 535912, Note_on_c, 1, 72, 127
1, 536110, Note_off_c, 1, 57, 0
1, 536112, Note_on_c, 1, 64, 127
1, 536308, Note_off_c, 1, 64, 0
1, 536310, Note_off_c, 1, 48, 0
1, 536310, Note_off_c, 1, 72, 0
1, 536312, Note_on_c, 1, 44, 127
1, 536312, Note_on_c, 1, 62, 127
1, 536312, Note_on_c, 1, 74, 127
1, 536494, Note_off_c, 1, 44, 0
1, 536494, Note_off_c, 1, 62, 0
1, 536494, Note_off_c, 1, 74, 0
1, 536511, Note_on_c, 1, 60, 127
1, 536511, Note_on_c, 1, 64, 127
1, 536511, Note_on_c, 1, 45, 127
1, 536709, Note_off_c, 1, 60, 0
1, 536711, Note_on_c, 1, 59, 127
1, 536907, Note_off_c, 1, 59, 0
1, 536909, Note_off_c, 1, 64, 0
1, 536911, Note_on_c, 1, 57, 127
1, 536911, Note_on_c, 1, 72, 127
1, 537093, Note_off_c, 1, 57, 0
1, 537093, Note_off_c, 1, 72, 0
1, 537109, Note_off_c, 1, 45, 0
1, 537111, Note_on_c, 1, 65, 127
1, 537111, Note_on_c, 1, 72, 127
1, 537111, Note_on_c, 1, 50, 127
1, 537309, Note_off_c, 1, 65, 0
1, 537311, Note_on_c, 1, 64, 127
1, 537507, Note_off_c, 1, 64, 0
1, 537509, Note_off_c, 1, 72, 0
1, 537511, Note_on_c, 1, 62, 127
1, 537511, Note_on_c, 1, 71, 127
1, 537693, Note_off_c, 1, 62, 0
1, 537693, Note_off_c, 1, 71, 0
1, 537709, Note_off_c, 1, 50, 0
1, 537711, Note_on_c, 1, 64, 127
1, 537711, Note_on_c, 1, 72, 127
1, 537711, Note_on_c, 1, 45, 127
1, 537909, Note_off_c, 1, 64, 0
1, 537911, Note_on_c, 1, 57, 127
1, 538009, Note_off_c, 1, 72, 0
1, 538011, Note_on_c, 1, 74, 127
1, 538108, Note_off_c, 1, 57, 0
1, 538110, Note_off_c, 1, 74, 0
1, 538112, Note_on_c, 1, 69, 127
1, 538212, Note_on_c, 1, 71, 127
1, 538295, Note_off_c, 1, 69, 0
1, 538311, Note_off_c, 1, 45, 0
1, 538311, Note_off_c, 1, 71, 0
1, 538313, Note_on_c, 1, 69, 127
1, 538313, Note_on_c, 1, 57, 127
1, 538313, Note_on_c, 1, 72, 127
1, 538511, Note_off_c, 1, 69, 0
1, 538513, Note_on_c, 1, 67, 127
1, 538709, Note_off_c, 1, 67, 0
1, 538712, Note_on_c, 1, 65, 127
1, 538894, Note_off_c, 1, 65, 0
1, 539061, Note_off_c, 1, 57, 0
1, 539061, Note_off_c, 1, 72, 0
1, 539111, Note_on_c, 1, 65, 127
1, 539307, Note_off_c, 1, 65, 0
1, 539310, Note_on_c, 1, 45, 127
1, 539310, Note_on_c, 1, 64, 127
1, 539310, Note_on_c, 1, 73, 127
1, 539492, Note_off_c, 1, 45, 0
1, 539492, Note_off_c, 1, 64, 0
1, 539492, Note_off_c, 1, 73, 0
1, 539509, Note_on_c, 1, 65, 127
1, 539509, Note_on_c, 1, 74, 127
1, 539509, Note_on_c, 1, 50, 127
1, 539707, Note_off_c, 1, 65, 0
1, 539707, Note_off_c, 1, 74, 0
1, 539709, Note_on_c, 1, 64, 127
1, 539709, Note_on_c, 1, 72, 127
1, 539905, Note_off_c, 1, 64, 0
1, 539905, Note_off_c, 1, 72, 0
1, 539907, Note_off_c, 1, 50, 0
1, 539909, Note_on_c, 1, 55, 127
1, 539909, Note_on_c, 1, 62, 127
1, 539909, Note_on_c, 1, 71, 127
1, 540091, Note_off_c, 1, 55, 0
1, 540091, Note_off_c, 1, 62, 0
1, 540091, Note_off_c, 1, 71, 0
1, 540108, Note_on_c, 1, 64, 127
1, 540108, Note_on_c, 1, 72, 127
1, 540108, Note_on_c, 1, 48, 127
1, 540306, Note_off_c, 1, 64, 0
1, 540306, Note_off_c, 1, 72, 0
1, 540308, Note_on_c, 1, 62, 127
1, 540308, Note_on_c, 1, 71, 127
1, 540504, Note_off_c, 1, 62, 0
1, 540504, Note_off_c, 1, 71, 0
1, 540506, Note_off_c, 1, 48, 0
1, 540508, Note_on_c, 1, 53, 127
1, 540508, Note_on_c, 1, 60, 127
1, 540508, Note_on_c, 1, 69, 127
1, 540690, Note_off_c, 1, 53, 0
1, 540690, Note_off_c, 1, 60, 0
1, 540690, Note_off_c, 1, 69, 0
1, 540707, Note_on_c, 1, 62, 127
1, 540707, Note_on_c, 1, 71, 127
1, 540707, Note_on_c, 1, 47, 127
1, 540905, Note_off_c, 1, 62, 0
1, 540905, Note_off_c, 1, 71, 0
1, 540907, Note_on_c, 1, 60, 127
1, 540907, Note_on_c, 1, 69, 127
1, 541103, Note_off_c, 1, 60, 0
1, 541103, Note_off_c, 1, 69, 0
1, 541105, Note_off_c, 1, 47, 0
1, 541107, Note_on_c, 1, 52, 127
1, 541107, Note_on_c, 1, 59, 127
1, 541107, Note_on_c, 1, 68, 127
1, 541289, Note_off_c, 1, 52, 0
1, 541289, Note_off_c, 1, 59, 0
1, 541289, Note_off_c, 1, 68, 0
1, 541306, Note_on_c, 1, 60, 127
1, 541306, Note_on_c, 1, 45, 127
1, 541306, Note_on_c, 1, 69, 127
1, 541504, Note_off_c, 1, 60, 0
1, 541506, Note_on_c, 1, 59, 127
1, 541702, Note_off_c, 1, 59, 0
1, 541704, Note_off_c, 1, 45, 0
1, 541706, Note_on_c, 1, 48, 127
1, 541706, Note_on_c, 1, 57, 127
1, 541888, Note_off_c, 1, 48, 0
1, 541888, Note_off_c, 1, 57, 0
1, 541899, Note_off_c, 1, 69, 0
1, 541905, Note_on_c, 1, 59, 127
1, 541905, Note_on_c, 1, 50, 127
1, 542103, Note_off_c, 1, 59, 0
1, 542105, Note_on_c, 1, 57, 127
1, 542301, Note_off_c, 1, 57, 0
1, 542303, Note_off_c, 1, 50, 0
1, 542305, Note_on_c, 1, 52, 127
1, 542305, Note_on_c, 1, 56, 127
1, 542487, Note_off_c, 1, 52, 0
1, 542487, Note_off_c, 1, 56, 0
1, 542504, Note_on_c, 1, 57, 127
1, 542504, Note_on_c, 1, 53, 127
1, 542702, Note_off_c, 1, 57, 0
1, 542704, Note_on_c, 1, 50, 127
1, 542900, Note_off_c, 1, 50, 0
1, 542903, Note_on_c, 1, 62, 127
1, 543101, Note_off_c, 1, 53, 0
1, 543103, Note_on_c, 1, 52, 127
1, 543298, Note_off_c, 1, 62, 0
1, 543303, Note_on_c, 1, 60, 127
1, 543400, Note_off_c, 1, 60, 0
1, 543403, Note_on_c, 1, 59, 127
1, 543501, Note_off_c, 1, 59, 0
1, 543701, Note_off_c, 1, 52, 0
1, 543903, Note_on_c, 1, 54, 127
1, 544099, Note_off_c, 1, 54, 0
1, 544302, Note_on_c, 1, 48, 127
1, 544602, Note_on_c, 1, 56, 127
1, 544700, Note_off_c, 1, 56, 0
1, 544900, Note_off_c, 1, 48, 0
1, 544902, Note_on_c, 1, 47, 127
1, 545499, Note_off_c, 1, 47, 0
1, 545501, Note_on_c, 1, 45, 127
1, 545699, Note_off_c, 1, 45, 0
1, 545701, Note_on_c, 1, 60, 127
1, 545701, Note_on_c, 1, 52, 127
1, 545798, Note_off_c, 1, 60, 0
1, 545801, Note_on_c, 1, 59, 127
1, 545898, Note_off_c, 1, 52, 0
1, 545900, Note_off_c, 1, 59, 0
1, 545902, Note_on_c, 1, 60, 127
1, 545902, Note_on_c, 1, 57, 127
1, 546084, Note_off_c, 1, 60, 0
1, 546101, Note_on_c, 1, 59, 127
1, 546296, Note_off_c, 1, 57, 0
1, 546301, Note_on_c, 1, 55, 127
1, 546398, Note_off_c, 1, 55, 0
1, 546401, Note_on_c, 1, 54, 127
1, 546499, Note_off_c, 1, 59, 0
1, 546499, Note_off_c, 1, 54, 0
1, 546501, Note_on_c, 1, 55, 127
1, 546501, Note_on_c, 1, 64, 127
1, 546596, Note_off_c, 1, 55, 0
1, 546601, Note_on_c, 1, 57, 127
1, 546699, Note_off_c, 1, 57, 0
1, 546701, Note_on_c, 1, 66, 127
1, 546701, Note_on_c, 1, 59, 127
1, 546896, Note_off_c, 1, 64, 0
1, 546899, Note_off_c, 1, 66, 0
1, 546901, Note_on_c, 1, 63, 127
1, 546901, Note_on_c, 1, 71, 127
1, 546998, Note_off_c, 1, 63, 0
1, 547001, Note_on_c, 1, 61, 127
1, 547098, Note_off_c, 1, 71, 0
1, 547100, Note_off_c, 1, 61, 0
1, 547102, Note_on_c, 1, 69, 127
1, 547284, Note_off_c, 1, 69, 0
1, 547300, Note_off_c, 1, 59, 0
1, 547302, Note_on_c, 1, 67, 127
1, 547302, Note_on_c, 1, 64, 127
1, 547302, Note_on_c, 1, 52, 127
1, 547500, Note_off_c, 1, 67, 0
1, 547502, Note_on_c, 1, 66, 127
1, 547698, Note_off_c, 1, 66, 0
1, 547700, Note_off_c, 1, 64, 0
1, 547900, Note_off_c, 1, 52, 0
1, 547902, Note_on_c, 1, 72, 127
1, 547902, Note_on_c, 1, 45, 127
1, 548100, Note_off_c, 1, 72, 0
1, 548102, Note_on_c, 1, 71, 127
1, 548298, Note_off_c, 1, 71, 0
1, 548301, Note_on_c, 1, 69, 127
1, 548483, Note_off_c, 1, 69, 0
1, 548499, Note_off_c, 1, 45, 0
1, 548501, Note_on_c, 1, 71, 127
1, 548501, Note_on_c, 1, 52, 127
1, 548501, Note_on_c, 1, 67, 127
1, 548699, Note_off_c, 1, 71, 0
1, 548701, Note_on_c, 1, 64, 127
1, 548799, Note_off_c, 1, 52, 0
1, 548801, Note_on_c, 1, 51, 127
1, 548898, Note_off_c, 1, 64, 0
1, 548900, Note_off_c, 1, 51, 0
1, 548902, Note_on_c, 1, 76, 127
1, 549002, Note_on_c, 1, 54, 127
1, 549085, Note_off_c, 1, 76, 0
1, 549101, Note_off_c, 1, 67, 0
1, 549101, Note_off_c, 1, 54, 0
1, 549103, Note_on_c, 1, 55, 127
1, 549103, Note_on_c, 1, 76, 127
1, 549103, Note_on_c, 1, 71, 127
1, 549301, Note_off_c, 1, 55, 0
1, 549301, Note_off_c, 1, 76, 0
1, 549303, Note_on_c, 1, 52, 127
1, 549303, Note_on_c, 1, 74, 127
1, 549499, Note_off_c, 1, 52, 0
1, 549499, Note_off_c, 1, 74, 0
1, 549502, Note_on_c, 1, 57, 127
1, 549502, Note_on_c, 1, 72, 127
1, 549684, Note_off_c, 1, 57, 0
1, 549684, Note_off_c, 1, 72, 0
1, 549700, Note_off_c, 1, 71, 0
1, 549702, Note_on_c, 1, 54, 127
1, 549702, Note_on_c, 1, 74, 127
1, 549702, Note_on_c, 1, 69, 127
1, 549900, Note_off_c, 1, 54, 0
1, 549900, Note_off_c, 1, 74, 0
1, 549902, Note_on_c, 1, 50, 127
1, 549902, Note_on_c, 1, 72, 127
1, 550098, Note_off_c, 1, 50, 0
1, 550098, Note_off_c, 1, 72, 0
1, 550101, Note_on_c, 1, 55, 127
1, 550101, Note_on_c, 1, 71, 127
1, 550283, Note_off_c, 1, 55, 0
1, 550283, Note_off_c, 1, 71, 0
1, 550299, Note_off_c, 1, 69, 0
1, 550301, Note_on_c, 1, 52, 127
1, 550301, Note_on_c, 1, 72, 127
1, 550301, Note_on_c, 1, 67, 127
1, 550499, Note_off_c, 1, 52, 0
1, 550499, Note_off_c, 1, 72, 0
1, 550501, Note_on_c, 1, 49, 127
1, 550501, Note_on_c, 1, 71, 127
1, 550697, Note_off_c, 1, 49, 0
1, 550697, Note_off_c, 1, 71, 0
1, 550700, Note_on_c, 1, 54, 127
1, 550700, Note_on_c, 1, 69, 127
1, 550882, Note_off_c, 1, 54, 0
1, 550882, Note_off_c, 1, 69, 0
1, 550898, Note_off_c, 1, 67, 0
1, 550900, Note_on_c, 1, 51, 127
1, 550900, Note_on_c, 1, 71, 127
1, 550900, Note_on_c, 1, 66, 127
1, 551098, Note_off_c, 1, 51, 0
1, 551098, Note_off_c, 1, 71, 0
1, 551100, Note_on_c, 1, 47, 127
1, 551100, Note_on_c, 1, 69, 127
1, 551296, Note_off_c, 1, 47, 0
1, 551296, Note_off_c, 1, 69, 0
1, 551299, Note_on_c, 1, 52, 127
1, 551299, Note_on_c, 1, 67, 127
1, 551481, Note_off_c, 1, 52, 0
1, 551481, Note_off_c, 1, 67, 0
1, 551497, Note_off_c, 1, 66, 0
1, 551499, Note_on_c, 1, 69, 127
1, 551499, Note_on_c, 1, 49, 127
1, 551499, Note_on_c, 1, 64, 127
1, 551697, Note_off_c, 1, 69, 0
1, 551699, Note_on_c, 1, 67, 127
1, 551895, Note_off_c, 1, 67, 0
1, 551897, Note_off_c, 1, 49, 0
1, 551897, Note_off_c, 1, 64, 0
1, 551899, Note_on_c, 1, 51, 127
1, 551899, Note_on_c, 1, 66, 127
1, 552081, Note_off_c, 1, 51, 0
1, 552081, Note_off_c, 1, 66, 0
1, 552098, Note_on_c, 1, 52, 127
1, 552098, Note_on_c, 1, 67, 127
1, 552098, Note_on_c, 1, 59, 127
1, 552296, Note_off_c, 1, 52, 0
1, 552296, Note_off_c, 1, 67, 0
1, 552298, Note_on_c, 1, 54, 127
1, 552298, Note_on_c, 1, 66, 127
1, 552494, Note_off_c, 1, 54, 0
1, 552494, Note_off_c, 1, 66, 0
1, 552496, Note_off_c, 1, 59, 0
1, 552498, Note_on_c, 1, 55, 127
1, 552498, Note_on_c, 1, 59, 127
1, 552498, Note_on_c, 1, 64, 127
1, 552680, Note_off_c, 1, 55, 0
1, 552680, Note_off_c, 1, 59, 0
1, 552680, Note_off_c, 1, 64, 0
1, 552697, Note_on_c, 1, 57, 127
1, 552697, Note_on_c, 1, 66, 127
1, 552697, Note_on_c, 1, 45, 127
1, 552895, Note_off_c, 1, 57, 0
1, 552895, Note_off_c, 1, 66, 0
1, 552897, Note_on_c, 1, 55, 127
1, 552897, Note_on_c, 1, 64, 127
1, 553093, Note_off_c, 1, 55, 0
1, 553093, Note_off_c, 1, 64, 0
1, 553095, Note_off_c, 1, 45, 0
1, 553097, Note_on_c, 1, 47, 127
1, 553097, Note_on_c, 1, 54, 127
1, 553097, Note_on_c, 1, 63, 127
1, 553279, Note_off_c, 1, 47, 0
1, 553279, Note_off_c, 1, 54, 0
1, 553279, Note_off_c, 1, 63, 0
1, 553296, Note_on_c, 1, 55, 127
1, 553296, Note_on_c, 1, 64, 127
1, 553296, Note_on_c, 1, 40, 127
1, 553494, Note_off_c, 1, 55, 0
1, 553494, Note_off_c, 1, 64, 0
1, 553496, Note_on_c, 1, 57, 127
1, 553496, Note_on_c, 1, 66, 127
1, 553692, Note_off_c, 1, 57, 0
1, 553692, Note_off_c, 1, 66, 0
1, 553694, Note_off_c, 1, 40, 0
1, 553696, Note_on_c, 1, 59, 127
1, 553696, Note_on_c, 1, 67, 127
1, 553696, Note_on_c, 1, 52, 127
1, 553878, Note_off_c, 1, 59, 0
1, 553878, Note_off_c, 1, 67, 0
1, 553895, Note_on_c, 1, 57, 127
1, 553895, Note_on_c, 1, 66, 127
1, 554090, Note_off_c, 1, 52, 0
1, 554095, Note_on_c, 1, 50, 127
1, 554192, Note_off_c, 1, 50, 0
1, 554195, Note_on_c, 1, 48, 127
1, 554293, Note_off_c, 1, 57, 0
1, 554293, Note_off_c, 1, 66, 0
1, 554293, Note_off_c, 1, 48, 0
1, 554295, Note_on_c, 1, 59, 127
1, 554295, Note_on_c, 1, 68, 127
1, 554295, Note_on_c, 1, 50, 127
1, 554477, Note_off_c, 1, 59, 0
1, 554477, Note_off_c, 1, 68, 0
1, 554494, Note_on_c, 1, 52, 127
1, 554494, Note_on_c, 1, 69, 127
1, 554689, Note_off_c, 1, 50, 0
1, 554692, Note_off_c, 1, 52, 0
1, 554694, Note_on_c, 1, 48, 127
1, 554694, Note_on_c, 1, 57, 127
1, 554791, Note_off_c, 1, 48, 0
1, 554794, Note_on_c, 1, 47, 127
1, 554891, Note_off_c, 1, 57, 0
1, 554893, Note_off_c, 1, 47, 0
1, 554895, Note_on_c, 1, 64, 127
1, 555093, Note_off_c, 1, 69, 0
1, 555095, Note_on_c, 1, 71, 127
1, 555295, Note_on_c, 1, 62, 127
1, 555392, Note_off_c, 1, 62, 0
1, 555395, Note_on_c, 1, 60, 127
1, 555494, Note_off_c, 1, 60, 0
1, 555496, Note_on_c, 1, 56, 127
1, 555678, Note_off_c, 1, 56, 0
1, 555689, Note_off_c, 1, 71, 0
1, 555691, Note_off_c, 1, 64, 0
1, 556496, Note_on_c, 1, 76, 127
1, 556692, Note_off_c, 1, 76, 0
1, 556695, Note_on_c, 1, 74, 127
1, 556877, Note_off_c, 1, 74, 0
1, 556895, Note_on_c, 1, 57, 127
1, 556895, Note_on_c, 1, 72, 127
1, 556895, Note_on_c, 1, 69, 127
1, 556895, Note_on_c, 1, 53, 127
1, 557093, Note_off_c, 1, 57, 0
1, 557093, Note_off_c, 1, 72, 0
1, 557095, Note_on_c, 1, 59, 127
1, 557095, Note_on_c, 1, 71, 127
1, 557291, Note_off_c, 1, 59, 0
1, 557291, Note_off_c, 1, 71, 0
1, 557293, Note_off_c, 1, 69, 0
1, 557295, Note_on_c, 1, 61, 127
1, 557477, Note_off_c, 1, 61, 0
1, 557494, Note_on_c, 1, 62, 127
1, 557494, Note_on_c, 1, 77, 127
1, 557692, Note_off_c, 1, 62, 0
1, 557692, Note_off_c, 1, 77, 0
1, 557694, Note_on_c, 1, 76, 127
1, 557890, Note_off_c, 1, 76, 0
1, 557893, Note_on_c, 1, 74, 127
1, 558075, Note_off_c, 1, 74, 0
1, 558091, Note_off_c, 1, 53, 0
1, 558093, Note_on_c, 1, 49, 127
1, 558491, Note_on_c, 1, 55, 127
1, 558491, Note_on_c, 1, 81, 127
1, 558673, Note_off_c, 1, 55, 0
1, 558673, Note_off_c, 1, 81, 0
1, 558689, Note_off_c, 1, 49, 0
1, 558691, Note_on_c, 1, 50, 127
1, 558891, Note_on_c, 1, 79, 127
1, 559087, Note_off_c, 1, 79, 0
1, 559289, Note_off_c, 1, 50, 0
1, 559291, Note_on_c, 1, 76, 127
1, 559291, Note_on_c, 1, 79, 127
1, 559291, Note_on_c, 1, 55, 127
1, 559291, Note_on_c, 1, 58, 127
1, 559489, Note_off_c, 1, 76, 0
1, 559489, Note_off_c, 1, 79, 0
1, 559491, Note_on_c, 1, 74, 127
1, 559491, Note_on_c, 1, 77, 127
1, 559687, Note_off_c, 1, 74, 0
1, 559687, Note_off_c, 1, 77, 0
1, 559689, Note_off_c, 1, 55, 0
1, 559689, Note_off_c, 1, 58, 0
1, 559691, Note_on_c, 1, 57, 127
1, 559691, Note_on_c, 1, 73, 127
1, 559691, Note_on_c, 1, 76, 127
1, 559873, Note_off_c, 1, 57, 0
1, 559873, Note_off_c, 1, 73, 0
1, 559873, Note_off_c, 1, 76, 0
1, 559890, Note_on_c, 1, 77, 127
1, 559890, Note_on_c, 1, 74, 127
1, 559890, Note_on_c, 1, 50, 127
1, 560088, Note_off_c, 1, 77, 0
1, 560090, Note_on_c, 1, 76, 127
1, 560286, Note_off_c, 1, 76, 0
1, 560288, Note_off_c, 1, 74, 0
1, 560290, Note_on_c, 1, 62, 127
1, 560290, Note_on_c, 1, 69, 127
1, 560472, Note_off_c, 1, 62, 0
1, 560472, Note_off_c, 1, 69, 0
1, 560488, Note_off_c, 1, 50, 0
1, 560490, Note_on_c, 1, 76, 127
1, 560490, Note_on_c, 1, 56, 127
1, 560490, Note_on_c, 1, 71, 127
1, 560688, Note_off_c, 1, 76, 0
1, 560690, Note_on_c, 1, 74, 127
1, 560886, Note_off_c, 1, 74, 0
1, 560888, Note_off_c, 1, 56, 0
1, 560890, Note_on_c, 1, 57, 127
1, 560890, Note_on_c, 1, 72, 127
1, 561072, Note_off_c, 1, 57, 0
1, 561072, Note_off_c, 1, 72, 0
1, 561088, Note_off_c, 1, 71, 0
1, 561090, Note_on_c, 1, 74, 127
1, 561090, Note_on_c, 1, 54, 127
1, 561090, Note_on_c, 1, 69, 127
1, 561288, Note_off_c, 1, 74, 0
1, 561290, Note_on_c, 1, 72, 127
1, 561486, Note_off_c, 1, 72, 0
1, 561488, Note_off_c, 1, 54, 0
1, 561490, Note_on_c, 1, 56, 127
1, 561490, Note_on_c, 1, 71, 127
1, 561672, Note_off_c, 1, 56, 0
1, 561672, Note_off_c, 1, 71, 0
1, 561688, Note_off_c, 1, 69, 0
1, 561690, Note_on_c, 1, 57, 127
1, 561690, Note_on_c, 1, 72, 127
1, 561690, Note_on_c, 1, 64, 127
1, 561888, Note_off_c, 1, 57, 0
1, 561888, Note_off_c, 1, 72, 0
1, 561890, Note_on_c, 1, 59, 127
1, 561890, Note_on_c, 1, 71, 127
1, 562086, Note_off_c, 1, 59, 0
1, 562086, Note_off_c, 1, 71, 0
1, 562089, Note_on_c, 1, 60, 127
1, 562089, Note_on_c, 1, 69, 127
1, 562271, Note_off_c, 1, 60, 0
1, 562271, Note_off_c, 1, 69, 0
1, 562287, Note_off_c, 1, 64, 0
1, 562289, Note_on_c, 1, 71, 127
1, 562289, Note_on_c, 1, 65, 127
1, 562289, Note_on_c, 1, 62, 127
1, 562487, Note_off_c, 1, 71, 0
1, 562489, Note_on_c, 1, 69, 127
1, 562685, Note_off_c, 1, 69, 0
1, 562687, Note_off_c, 1, 65, 0
1, 562689, Note_on_c, 1, 64, 127
1, 562689, Note_on_c, 1, 68, 127
1, 562871, Note_off_c, 1, 64, 0
1, 562871, Note_off_c, 1, 68, 0
1, 562887, Note_off_c, 1, 62, 0
1, 562889, Note_on_c, 1, 60, 127
1, 562889, Note_on_c, 1, 69, 127
1, 562889, Note_on_c, 1, 64, 127
1, 563087, Note_off_c, 1, 60, 0
1, 563087, Note_off_c, 1, 69, 0
1, 563089, Note_on_c, 1, 59, 127
1, 563089, Note_on_c, 1, 71, 127
1, 563285, Note_off_c, 1, 59, 0
1, 563285, Note_off_c, 1, 71, 0
1, 563288, Note_on_c, 1, 72, 127
1, 563288, Note_on_c, 1, 57, 127
1, 563470, Note_off_c, 1, 72, 0
1, 563486, Note_off_c, 1, 64, 0
1, 563488, Note_on_c, 1, 62, 127
1, 563488, Note_on_c, 1, 66, 127
1, 563683, Note_off_c, 1, 57, 0
1, 563688, Note_on_c, 1, 55, 127
1, 563785, Note_off_c, 1, 55, 0
1, 563788, Note_on_c, 1, 54, 127
1, 563886, Note_off_c, 1, 62, 0
1, 563886, Note_off_c, 1, 66, 0
1, 563886, Note_off_c, 1, 54, 0
1, 563888, Note_on_c, 1, 62, 127
1, 563888, Note_on_c, 1, 71, 127
1, 563888, Note_on_c, 1, 55, 127
1, 564070, Note_off_c, 1, 62, 0
1, 564070, Note_off_c, 1, 71, 0
1, 564087, Note_on_c, 1, 64, 127
1, 564087, Note_on_c, 1, 61, 127
1, 564282, Note_off_c, 1, 55, 0
1, 564285, Note_off_c, 1, 64, 0
1, 564287, Note_on_c, 1, 54, 127
1, 564287, Note_on_c, 1, 69, 127
1, 564384, Note_off_c, 1, 54, 0
1, 564387, Note_on_c, 1, 52, 127
1, 564485, Note_off_c, 1, 61, 0
1, 564485, Note_off_c, 1, 52, 0
1, 564487, Note_on_c, 1, 63, 127
1, 564587, Note_on_c, 1, 51, 127
1, 564670, Note_off_c, 1, 63, 0
1, 564684, Note_off_c, 1, 69, 0
1, 564686, Note_off_c, 1, 51, 0
1, 564688, Note_on_c, 1, 67, 127
1, 564688, Note_on_c, 1, 40, 127
1, 564688, Note_on_c, 1, 52, 127
1, 564688, Note_on_c, 1, 59, 127
1, 564786, Note_off_c, 1, 67, 0
1, 564788, Note_on_c, 1, 66, 127
1, 564886, Note_off_c, 1, 40, 0
1, 564886, Note_off_c, 1, 52, 0
1, 564886, Note_off_c, 1, 66, 0
1, 564888, Note_on_c, 1, 47, 127
1, 564888, Note_on_c, 1, 51, 127
1, 565085, Note_off_c, 1, 47, 0
1, 565089, Note_on_c, 1, 64, 127
1, 565089, Note_on_c, 1, 45, 127
1, 565184, Note_off_c, 1, 64, 0
1, 565272, Note_off_c, 1, 45, 0
1, 565286, Note_off_c, 1, 51, 0
1, 565288, Note_off_c, 1, 59, 0
1, 565290, Note_on_c, 1, 43, 127
1, 565290, Note_on_c, 1, 52, 127
1, 565290, Note_on_c, 1, 59, 127
1, 565290, Note_on_c, 1, 64, 127
1, 565488, Note_off_c, 1, 43, 0
1, 565488, Note_off_c, 1, 52, 0
1, 565490, Note_on_c, 1, 42, 127
1, 565490, Note_on_c, 1, 54, 127
1, 565686, Note_off_c, 1, 42, 0
1, 565686, Note_off_c, 1, 54, 0
1, 565689, Note_on_c, 1, 40, 127
1, 565689, Note_on_c, 1, 55, 127
1, 565871, Note_off_c, 1, 40, 0
1, 565871, Note_off_c, 1, 55, 0
1, 565887, Note_off_c, 1, 59, 0
1, 565887, Note_off_c, 1, 64, 0
1, 565889, Note_on_c, 1, 48, 127
1, 565889, Note_on_c, 1, 57, 127
1, 565889, Note_on_c, 1, 60, 127
1, 565889, Note_on_c, 1, 64, 127
1, 566087, Note_off_c, 1, 48, 0
1, 566087, Note_off_c, 1, 57, 0
1, 566087, Note_off_c, 1, 60, 0
1, 566089, Note_on_c, 1, 47, 127
1, 566089, Note_on_c, 1, 59, 127
1, 566089, Note_on_c, 1, 62, 127
1, 566285, Note_off_c, 1, 47, 0
1, 566285, Note_off_c, 1, 59, 0
1, 566285, Note_off_c, 1, 62, 0
1, 566287, Note_off_c, 1, 64, 0
1, 566289, Note_on_c, 1, 45, 127
1, 566289, Note_on_c, 1, 60, 127
1, 566289, Note_on_c, 1, 64, 127
1, 566289, Note_on_c, 1, 69, 127
1, 566471, Note_off_c, 1, 45, 0
1, 566471, Note_off_c, 1, 60, 0
1, 566471, Note_off_c, 1, 64, 0
1, 566488, Note_on_c, 1, 47, 127
1, 566488, Note_on_c, 1, 63, 127
1, 566488, Note_on_c, 1, 59, 127
1, 566686, Note_off_c, 1, 47, 0
1, 566688, Note_on_c, 1, 40, 127
1, 566786, Note_off_c, 1, 63, 0
1, 566788, Note_on_c, 1, 66, 127
1, 566885, Note_off_c, 1, 40, 0
1, 566887, Note_off_c, 1, 66, 0
1, 566889, Note_on_c, 1, 52, 127
1, 567072, Note_off_c, 1, 52, 0
1, 567084, Note_off_c, 1, 69, 0
1, 567087, Note_off_c, 1, 59, 0
1, 567089, Note_on_c, 1, 52, 127
1, 567089, Note_on_c, 1, 59, 127
1, 567089, Note_on_c, 1, 64, 127
1, 567089, Note_on_c, 1, 67, 127
1, 567287, Note_off_c, 1, 52, 0
1, 567289, Note_on_c, 1, 50, 127
1, 567485, Note_off_c, 1, 50, 0
1, 567487, Note_off_c, 1, 59, 0
1, 567487, Note_off_c, 1, 64, 0
1, 567487, Note_off_c, 1, 67, 0
1, 567489, Note_on_c, 1, 48, 127
1, 567489, Note_on_c, 1, 60, 127
1, 567489, Note_on_c, 1, 69, 127
1, 567489, Note_on_c, 1, 64, 127
1, 567671, Note_off_c, 1, 48, 0
1, 567671, Note_off_c, 1, 60, 0
1, 567671, Note_off_c, 1, 69, 0
1, 567688, Note_on_c, 1, 50, 127
1, 567688, Note_on_c, 1, 57, 127
1, 567688, Note_on_c, 1, 66, 127
1, 567883, Note_off_c, 1, 64, 0
1, 567886, Note_off_c, 1, 50, 0
1, 567888, Note_on_c, 1, 62, 127
1, 567985, Note_off_c, 1, 62, 0
1, 568087, Note_off_c, 1, 57, 0
1, 568087, Note_off_c, 1, 66, 0
1, 568089, Note_on_c, 1, 47, 127
1, 568089, Note_on_c, 1, 55, 127
1, 568089, Note_on_c, 1, 65, 127
1, 568089, Note_on_c, 1, 62, 127
1, 568271, Note_off_c, 1, 47, 0
1, 568271, Note_off_c, 1, 55, 0
1, 568271, Note_off_c, 1, 65, 0
1, 568288, Note_on_c, 1, 48, 127
1, 568288, Note_on_c, 1, 64, 127
1, 568483, Note_off_c, 1, 62, 0
1, 568486, Note_off_c, 1, 48, 0
1, 568488, Note_on_c, 1, 60, 127
1, 568585, Note_off_c, 1, 60, 0
1, 568588, Note_on_c, 1, 59, 127
1, 568687, Note_off_c, 1, 64, 0
1, 568687, Note_off_c, 1, 59, 0
1, 568689, Note_on_c, 1, 45, 127
1, 568689, Note_on_c, 1, 57, 127
1, 568689, Note_on_c, 1, 66, 127
1, 568689, Note_on_c, 1, 60, 127
1, 568871, Note_off_c, 1, 45, 0
1, 568871, Note_off_c, 1, 57, 0
1, 568871, Note_off_c, 1, 66, 0
1, 568888, Note_on_c, 1, 47, 127
1, 568888, Note_on_c, 1, 54, 127
1, 568888, Note_on_c, 1, 63, 127
1, 569083, Note_off_c, 1, 60, 0
1, 569086, Note_off_c, 1, 47, 0
1, 569088, Note_on_c, 1, 59, 127
1, 569284, Note_off_c, 1, 59, 0
1, 569286, Note_off_c, 1, 54, 0
1, 569286, Note_off_c, 1, 63, 0
1, 569288, Note_on_c, 1, 43, 127
1, 569288, Note_on_c, 1, 52, 127
1, 569288, Note_on_c, 1, 62, 127
1, 569288, Note_on_c, 1, 71, 127
1, 569470, Note_off_c, 1, 43, 0
1, 569470, Note_off_c, 1, 52, 0
1, 569470, Note_off_c, 1, 62, 0
1, 569470, Note_off_c, 1, 71, 0
1, 569487, Note_on_c, 1, 45, 127
1, 569487, Note_on_c, 1, 52, 127
1, 569487, Note_on_c, 1, 61, 127
1, 569487, Note_on_c, 1, 64, 127
1, 569685, Note_off_c, 1, 45, 0
1, 569687, Note_on_c, 1, 43, 127
1, 569883, Note_off_c, 1, 43, 0
1, 569885, Note_off_c, 1, 52, 0
1, 569885, Note_off_c, 1, 61, 0
1, 569885, Note_off_c, 1, 64, 0
1, 569887, Note_on_c, 1, 42, 127
1, 569887, Note_on_c, 1, 52, 127
1, 569887, Note_on_c, 1, 60, 127
1, 569887, Note_on_c, 1, 69, 127
1, 570069, Note_off_c, 1, 42, 0
1, 570069, Note_off_c, 1, 52, 0
1, 570069, Note_off_c, 1, 60, 0
1, 570086, Note_on_c, 1, 43, 127
1, 570086, Note_on_c, 1, 51, 127
1, 570086, Note_on_c, 1, 59, 127
1, 570284, Note_off_c, 1, 43, 0
1, 570481, Note_off_c, 1, 69, 0
1, 570485, Note_off_c, 1, 51, 0
1, 570485, Note_off_c, 1, 59, 0
1, 570487, Note_on_c, 1, 40, 127
1, 570487, Note_on_c, 1, 59, 127
1, 570487, Note_on_c, 1, 67, 127
1, 570487, Note_on_c, 1, 64, 127
1, 570669, Note_off_c, 1, 40, 0
1, 570669, Note_off_c, 1, 59, 0
1, 570669, Note_off_c, 1, 67, 0
1, 570686, Note_on_c, 1, 47, 127
1, 570686, Note_on_c, 1, 66, 127
1, 570884, Note_off_c, 1, 47, 0
1, 570884, Note_off_c, 1, 66, 0
1, 570886, Note_on_c, 1, 45, 127
1, 571081, Note_off_c, 1, 64, 0
1, 571083, Note_off_c, 1, 45, 0
1, 571087, Note_on_c, 1, 47, 127
1, 571087, Note_on_c, 1, 59, 127
1, 571087, Note_on_c, 1, 63, 127
1, 571087, Note_on_c, 1, 69, 127
1, 571269, Note_off_c, 1, 47, 0
1, 571269, Note_off_c, 1, 59, 0
1, 571269, Note_off_c, 1, 63, 0
1, 571269, Note_off_c, 1, 69, 0
1, 571302, Note_on_c, 1, 68, 127
1, 571302, Note_on_c, 1, 64, 127
1, 571302, Note_on_c, 1, 59, 127
1, 571302, Note_on_c, 1, 40, 127
1, 571894, Note_off_c, 1, 68, 0
1, 571894, Note_off_c, 1, 64, 0
1, 571894, Note_off_c, 1, 59, 0
1, 571899, Note_off_c, 1, 40, 0
1, 571917, Note_on_c, 1, 52, 127
1, 572115, Note_off_c, 1, 52, 0
1, 572117, Note_on_c, 1, 45, 127
1, 572313, Note_off_c, 1, 45, 0
1, 572316, Note_on_c, 1, 47, 127
1, 572498, Note_off_c, 1, 47, 0
1, 572515, Note_on_c, 1, 48, 127
1, 572713, Note_off_c, 1, 48, 0
1, 572715, Note_on_c, 1, 50, 127
1, 572911, Note_off_c, 1, 50, 0
1, 572914, Note_on_c, 1, 52, 127
1, 573096, Note_off_c, 1, 52, 0
1, 573113, Note_on_c, 1, 44, 127
1, 573311, Note_off_c, 1, 44, 0
1, 573313, Note_on_c, 1, 45, 127
1, 573509, Note_off_c, 1, 45, 0
1, 573512, Note_on_c, 1, 47, 127
1, 573694, Note_off_c, 1, 47, 0
1, 573711, Note_on_c, 1, 45, 127
1, 573909, Note_off_c, 1, 45, 0
1, 573911, Note_on_c, 1, 52, 127
1, 574107, Note_off_c, 1, 52, 0
1, 574110, Note_on_c, 1, 40, 127
1, 574292, Note_off_c, 1, 40, 0
1, 574309, Note_on_c, 1, 40, 127
1, 574507, Note_off_c, 1, 40, 0
1, 574509, Note_on_c, 1, 42, 127
1, 574705, Note_off_c, 1, 42, 0
1, 574708, Note_on_c, 1, 43, 127
1, 574890, Note_off_c, 1, 43, 0
1, 574907, Note_on_c, 1, 42, 127
1, 575105, Note_off_c, 1, 42, 0
1, 575107, Note_on_c, 1, 44, 127
1, 575303, Note_off_c, 1, 44, 0
1, 575306, Note_on_c, 1, 45, 127
1, 575488, Note_off_c, 1, 45, 0
1, 575505, Note_on_c, 1, 44, 127
1, 575703, Note_off_c, 1, 44, 0
1, 575705, Note_on_c, 1, 45, 127
1, 575901, Note_off_c, 1, 45, 0
1, 575904, Note_on_c, 1, 47, 127
1, 576086, Note_off_c, 1, 47, 0
1, 576103, Note_on_c, 1, 45, 127
1, 576301, Note_off_c, 1, 45, 0
1, 576303, Note_on_c, 1, 47, 127
1, 576499, Note_off_c, 1, 47, 0
1, 576502, Note_on_c, 1, 48, 127
1, 576684, Note_off_c, 1, 48, 0
1, 576701, Note_on_c, 1, 47, 127
1, 576899, Note_off_c, 1, 47, 0
1, 576901, Note_on_c, 1, 48, 127
1, 577097, Note_off_c, 1, 48, 0
1, 577100, Note_on_c, 1, 50, 127
1, 577282, Note_off_c, 1, 50, 0
1, 577299, Note_on_c, 1, 48, 127
1, 577497, Note_off_c, 1, 48, 0
1, 577499, Note_on_c, 1, 50, 127
1, 577695, Note_off_c, 1, 50, 0
1, 577698, Note_on_c, 1, 52, 127
1, 577880, Note_off_c, 1, 52, 0
1, 577897, Note_on_c, 1, 50, 127
1, 578095, Note_off_c, 1, 50, 0
1, 578097, Note_on_c, 1, 52, 127
1, 578293, Note_off_c, 1, 52, 0
1, 578296, Note_on_c, 1, 53, 127
1, 578478, Note_off_c, 1, 53, 0
1, 578495, Note_on_c, 1, 52, 127
1, 578693, Note_off_c, 1, 52, 0
1, 578695, Note_on_c, 1, 50, 127
1, 578792, Note_off_c, 1, 50, 0
1, 578795, Note_on_c, 1, 48, 127
1, 578893, Note_off_c, 1, 48, 0
1, 578895, Note_on_c, 1, 50, 127
1, 578990, Note_off_c, 1, 50, 0
1, 578995, Note_on_c, 1, 47, 127
1, 579093, Note_off_c, 1, 47, 0
1, 579095, Note_on_c, 1, 48, 127
1, 579095, Note_on_c, 1, 57, 127
1, 579293, Note_off_c, 1, 48, 0
1, 579293, Note_off_c, 1, 57, 0
1, 579295, Note_on_c, 1, 47, 127
1, 579295, Note_on_c, 1, 52, 127
1, 579491, Note_off_c, 1, 47, 0
1, 579491, Note_off_c, 1, 52, 0
1, 579494, Note_on_c, 1, 45, 127
1, 579494, Note_on_c, 1, 54, 127
1, 579676, Note_off_c, 1, 45, 0
1, 579676, Note_off_c, 1, 54, 0
1, 579693, Note_on_c, 1, 47, 127
1, 579693, Note_on_c, 1, 55, 127
1, 579891, Note_off_c, 1, 47, 0
1, 579891, Note_off_c, 1, 55, 0
1, 579893, Note_on_c, 1, 45, 127
1, 579893, Note_on_c, 1, 57, 127
1, 580089, Note_off_c, 1, 45, 0
1, 580089, Note_off_c, 1, 57, 0
1, 580092, Note_on_c, 1, 43, 127
1, 580092, Note_on_c, 1, 59, 127
1, 580274, Note_off_c, 1, 43, 0
1, 580274, Note_off_c, 1, 59, 0
1, 580291, Note_on_c, 1, 45, 127
1, 580291, Note_on_c, 1, 51, 127
1, 580489, Note_off_c, 1, 45, 0
1, 580489, Note_off_c, 1, 51, 0
1, 580491, Note_on_c, 1, 43, 127
1, 580491, Note_on_c, 1, 52, 127
1, 580687, Note_off_c, 1, 43, 0
1, 580687, Note_off_c, 1, 52, 0
1, 580690, Note_on_c, 1, 42, 127
1, 580690, Note_on_c, 1, 54, 127
1, 580872, Note_off_c, 1, 42, 0
1, 580872, Note_off_c, 1, 54, 0
1, 580889, Note_on_c, 1, 52, 127
1, 580889, Note_on_c, 1, 43, 127
1, 581087, Note_off_c, 1, 52, 0
1, 581089, Note_on_c, 1, 59, 127
1, 581187, Note_off_c, 1, 43, 0
1, 581189, Note_on_c, 1, 45, 127
1, 581286, Note_off_c, 1, 59, 0
1, 581288, Note_off_c, 1, 45, 0
1, 581290, Note_on_c, 1, 43, 127
1, 581290, Note_on_c, 1, 47, 127
1, 581385, Note_off_c, 1, 43, 0
1, 581390, Note_on_c, 1, 42, 127
1, 581473, Note_off_c, 1, 47, 0
1, 581489, Note_off_c, 1, 42, 0
1, 581491, Note_on_c, 1, 47, 127
1, 581491, Note_on_c, 1, 43, 127
1, 581689, Note_off_c, 1, 47, 0
1, 581691, Note_on_c, 1, 49, 127
1, 581887, Note_off_c, 1, 49, 0
1, 581889, Note_off_c, 1, 43, 0
1, 581891, Note_on_c, 1, 44, 127
1, 581891, Note_on_c, 1, 50, 127
1, 582073, Note_off_c, 1, 44, 0
1, 582073, Note_off_c, 1, 50, 0
1, 582090, Note_on_c, 1, 49, 127
1, 582090, Note_on_c, 1, 45, 127
1, 582288, Note_off_c, 1, 49, 0
1, 582290, Note_on_c, 1, 51, 127
1, 582486, Note_off_c, 1, 51, 0
1, 582488, Note_off_c, 1, 45, 0
1, 582490, Note_on_c, 1, 46, 127
1, 582490, Note_on_c, 1, 52, 127
1, 582672, Note_off_c, 1, 46, 0
1, 582672, Note_off_c, 1, 52, 0
1, 582689, Note_on_c, 1, 51, 127
1, 582689, Note_on_c, 1, 47, 127
1, 582887, Note_off_c, 1, 51, 0
1, 582889, Note_on_c, 1, 52, 127
1, 583085, Note_off_c, 1, 52, 0
1, 583087, Note_off_c, 1, 47, 0
1, 583089, Note_on_c, 1, 45, 127
1, 583089, Note_on_c, 1, 54, 127
1, 583184, Note_off_c, 1, 45, 0
1, 583189, Note_on_c, 1, 47, 127
1, 583272, Note_off_c, 1, 54, 0
1, 583288, Note_off_c, 1, 47, 0
1, 583290, Note_on_c, 1, 52, 127
1, 583290, Note_on_c, 1, 48, 127
1, 583488, Note_off_c, 1, 52, 0
1, 583490, Note_on_c, 1, 54, 127
1, 583686, Note_off_c, 1, 54, 0
1, 583688, Note_off_c, 1, 48, 0
1, 583690, Note_on_c, 1, 49, 127
1, 583690, Note_on_c, 1, 55, 127
1, 583872, Note_off_c, 1, 49, 0
1, 583872, Note_off_c, 1, 55, 0
1, 583889, Note_on_c, 1, 54, 127
1, 583889, Note_on_c, 1, 50, 127
1, 584087, Note_off_c, 1, 54, 0
1, 584089, Note_on_c, 1, 55, 127
1, 584285, Note_off_c, 1, 55, 0
1, 584287, Note_off_c, 1, 50, 0
1, 584289, Note_on_c, 1, 51, 127
1, 584289, Note_on_c, 1, 57, 127
1, 584471, Note_off_c, 1, 51, 0
1, 584471, Note_off_c, 1, 57, 0
1, 584488, Note_on_c, 1, 55, 127
1, 584488, Note_on_c, 1, 52, 127
1, 584686, Note_off_c, 1, 55, 0
1, 584688, Note_on_c, 1, 57, 127
1, 584884, Note_off_c, 1, 57, 0
1, 584886, Note_off_c, 1, 52, 0
1, 584888, Note_on_c, 1, 50, 127
1, 584888, Note_on_c, 1, 59, 127
1, 584983, Note_off_c, 1, 50, 0
1, 584988, Note_on_c, 1, 52, 127
1, 585071, Note_off_c, 1, 59, 0
1, 585087, Note_off_c, 1, 52, 0
1, 585089, Note_on_c, 1, 57, 127
1, 585089, Note_on_c, 1, 54, 127
1, 585287, Note_off_c, 1, 57, 0
1, 585289, Note_on_c, 1, 59, 127
1, 585485, Note_off_c, 1, 59, 0
1, 585487, Note_off_c, 1, 54, 0
1, 585489, Note_on_c, 1, 52, 127
1, 585489, Note_on_c, 1, 60, 127
1, 585671, Note_off_c, 1, 52, 0
1, 585671, Note_off_c, 1, 60, 0
1, 585688, Note_on_c, 1, 51, 127
1, 585688, Note_on_c, 1, 59, 127
1, 585886, Note_off_c, 1, 51, 0
1, 585886, Note_off_c, 1, 59, 0
1, 585888, Note_on_c, 1, 57, 127
1, 585888, Note_on_c, 1, 49, 127
1, 585985, Note_off_c, 1, 57, 0
1, 585988, Note_on_c, 1, 55, 127
1, 586085, Note_off_c, 1, 49, 0
1, 586087, Note_off_c, 1, 55, 0
1, 586089, Note_on_c, 1, 57, 127
1, 586089, Note_on_c, 1, 47, 127
1, 586184, Note_off_c, 1, 57, 0
1, 586189, Note_on_c, 1, 54, 127
1, 586272, Note_off_c, 1, 47, 0
1, 586288, Note_off_c, 1, 54, 0
1, 586290, Note_on_c, 1, 55, 127
1, 586290, Note_on_c, 1, 52, 127
1, 586488, Note_off_c, 1, 55, 0
1, 586490, Note_on_c, 1, 57, 127
1, 586587, Note_off_c, 1, 57, 0
1, 586590, Note_on_c, 1, 59, 127
1, 586688, Note_off_c, 1, 59, 0
1, 586690, Note_on_c, 1, 60, 127
1, 586888, Note_off_c, 1, 52, 0
1, 586890, Note_on_c, 1, 50, 127
1, 587088, Note_off_c, 1, 50, 0
1, 587190, Note_on_c, 1, 53, 127
1, 587285, Note_off_c, 1, 60, 0
1, 587288, Note_off_c, 1, 53, 0
1, 587290, Note_on_c, 1, 59, 127
1, 587290, Note_on_c, 1, 55, 127
1, 587472, Note_off_c, 1, 59, 0
1, 587489, Note_on_c, 1, 57, 127
1, 587687, Note_off_c, 1, 57, 0
1, 587789, Note_on_c, 1, 60, 127
1, 587884, Note_off_c, 1, 55, 0
1, 587887, Note_off_c, 1, 60, 0
1, 587889, Note_on_c, 1, 53, 127
1, 587889, Note_on_c, 1, 62, 127
1, 588071, Note_off_c, 1, 53, 0
1, 588088, Note_on_c, 1, 52, 127
1, 588286, Note_off_c, 1, 52, 0
1, 588388, Note_on_c, 1, 55, 127
1, 588483, Note_off_c, 1, 62, 0
1, 588486, Note_off_c, 1, 55, 0
1, 588488, Note_on_c, 1, 60, 127
1, 588488, Note_on_c, 1, 57, 127
1, 588583, Note_off_c, 1, 60, 0
1, 588588, Note_on_c, 1, 62, 127
1, 588688, Note_on_c, 1, 64, 127
1, 588883, Note_off_c, 1, 57, 0
1, 588886, Note_off_c, 1, 64, 0
1, 588888, Note_on_c, 1, 48, 127
1, 589084, Note_off_c, 1, 48, 0
1, 589086, Note_off_c, 1, 62, 0
1, 589088, Note_on_c, 1, 52, 127
1, 589088, Note_on_c, 1, 56, 127
1, 589088, Note_on_c, 1, 59, 127
1, 589270, Note_off_c, 1, 52, 0
1, 589270, Note_off_c, 1, 56, 0
1, 589270, Note_off_c, 1, 59, 0
1, 589287, Note_on_c, 1, 45, 127
1, 589287, Note_on_c, 1, 60, 127
1, 589287, Note_on_c, 1, 57, 127
1, 589485, Note_off_c, 1, 45, 0
1, 589485, Note_off_c, 1, 60, 0
1, 589487, Note_on_c, 1, 47, 127
1, 589487, Note_on_c, 1, 62, 127
1, 589683, Note_off_c, 1, 47, 0
1, 589683, Note_off_c, 1, 62, 0
1, 589686, Note_on_c, 1, 48, 127
1, 589686, Note_on_c, 1, 64, 127
1, 589868, Note_off_c, 1, 48, 0
1, 589868, Note_off_c, 1, 64, 0
1, 589884, Note_off_c, 1, 57, 0
1, 589886, Note_on_c, 1, 47, 127
1, 589886, Note_on_c, 1, 56, 127
1, 589886, Note_on_c, 1, 50, 127
1, 590084, Note_off_c, 1, 47, 0
1, 590084, Note_off_c, 1, 56, 0
1, 590086, Note_on_c, 1, 45, 127
1, 590086, Note_on_c, 1, 57, 127
1, 590282, Note_off_c, 1, 45, 0
1, 590282, Note_off_c, 1, 57, 0
1, 590285, Note_on_c, 1, 44, 127
1, 590285, Note_on_c, 1, 59, 127
1, 590467, Note_off_c, 1, 44, 0
1, 590467, Note_off_c, 1, 59, 0
1, 590684, Note_on_c, 1, 64, 127
1, 590782, Note_off_c, 1, 50, 0
1, 590881, Note_off_c, 1, 64, 0
1, 590885, Note_on_c, 1, 48, 127
1, 590885, Note_on_c, 1, 52, 127
1, 590980, Note_off_c, 1, 48, 0
1, 591068, Note_off_c, 1, 52, 0
1, 591286, Note_on_c, 1, 54, 127
1, 591482, Note_off_c, 1, 54, 0
1, 591486, Note_on_c, 1, 45, 127
1, 591486, Note_on_c, 1, 49, 127
1, 591486, Note_on_c, 1, 55, 127
1, 591668, Note_off_c, 1, 45, 0
1, 591668, Note_off_c, 1, 49, 0
1, 591668, Note_off_c, 1, 55, 0
1, 591685, Note_on_c, 1, 54, 127
1, 591685, Note_on_c, 1, 38, 127
1, 591685, Note_on_c, 1, 50, 127
1, 591883, Note_off_c, 1, 54, 0
1, 591885, Note_on_c, 1, 56, 127
1, 592081, Note_off_c, 1, 56, 0
1, 592083, Note_off_c, 1, 38, 0
1, 592083, Note_off_c, 1, 50, 0
1, 592085, Note_on_c, 1, 47, 127
1, 592085, Note_on_c, 1, 51, 127
1, 592085, Note_on_c, 1, 57, 127
1, 592267, Note_off_c, 1, 47, 0
1, 592267, Note_off_c, 1, 51, 0
1, 592267, Note_off_c, 1, 57, 0
1, 592284, Note_on_c, 1, 52, 127
1, 592284, Note_on_c, 1, 56, 127
1, 592284, Note_on_c, 1, 40, 127
1, 592482, Note_off_c, 1, 52, 0
1, 592482, Note_off_c, 1, 56, 0
1, 592484, Note_on_c, 1, 54, 127
1, 592484, Note_on_c, 1, 57, 127
1, 592680, Note_off_c, 1, 54, 0
1, 592680, Note_off_c, 1, 57, 0
1, 592682, Note_off_c, 1, 40, 0
1, 592684, Note_on_c, 1, 40, 127
1, 592684, Note_on_c, 1, 59, 127
1, 592684, Note_on_c, 1, 55, 127
1, 592866, Note_off_c, 1, 40, 0
1, 592866, Note_off_c, 1, 59, 0
1, 592883, Note_on_c, 1, 42, 127
1, 592883, Note_on_c, 1, 57, 127
1, 593081, Note_off_c, 1, 42, 0
1, 593081, Note_off_c, 1, 57, 0
1, 593278, Note_off_c, 1, 55, 0
1, 593283, Note_on_c, 1, 38, 127
1, 593283, Note_on_c, 1, 54, 127
1, 593283, Note_on_c, 1, 60, 127
1, 593465, Note_off_c, 1, 38, 0
1, 593465, Note_off_c, 1, 54, 0
1, 593465, Note_off_c, 1, 60, 0
1, 593482, Note_on_c, 1, 43, 127
1, 593482, Note_on_c, 1, 59, 127
1, 593482, Note_on_c, 1, 55, 127
1, 593680, Note_off_c, 1, 43, 0
1, 593680, Note_off_c, 1, 59, 0
1, 593682, Note_on_c, 1, 41, 127
1, 593682, Note_on_c, 1, 60, 127
1, 593878, Note_off_c, 1, 41, 0
1, 593878, Note_off_c, 1, 60, 0
1, 593880, Note_off_c, 1, 55, 0
1, 593882, Note_on_c, 1, 40, 127
1, 593882, Note_on_c, 1, 56, 127
1, 593882, Note_on_c, 1, 62, 127
1, 594064, Note_off_c, 1, 40, 0
1, 594064, Note_off_c, 1, 56, 0
1, 594064, Note_off_c, 1, 62, 0
1, 594081, Note_on_c, 1, 45, 127
1, 594081, Note_on_c, 1, 60, 127
1, 594081, Note_on_c, 1, 57, 127
1, 594279, Note_off_c, 1, 45, 0
1, 594279, Note_off_c, 1, 60, 0
1, 594281, Note_on_c, 1, 47, 127
1, 594281, Note_on_c, 1, 62, 127
1, 594477, Note_off_c, 1, 47, 0
1, 594477, Note_off_c, 1, 62, 0
1, 594480, Note_on_c, 1, 48, 127
1, 594480, Note_on_c, 1, 64, 127
1, 594662, Note_off_c, 1, 48, 0
1, 594662, Note_off_c, 1, 64, 0
1, 595078, Note_on_c, 1, 50, 127
1, 595078, Note_on_c, 1, 65, 127
1, 595260, Note_off_c, 1, 50, 0
1, 595260, Note_off_c, 1, 65, 0
1, 595676, Note_off_c, 1, 57, 0
1, 595678, Note_on_c, 1, 62, 127
1, 595678, Note_on_c, 1, 52, 127
1, 595678, Note_on_c, 1, 56, 127
1, 595773, Note_off_c, 1, 62, 0
1, 595778, Note_on_c, 1, 59, 127
1, 595861, Note_off_c, 1, 52, 0
1, 595861, Note_off_c, 1, 56, 0
1, 595877, Note_off_c, 1, 59, 0
1, 595879, Note_on_c, 1, 69, 127
1, 595879, Note_on_c, 1, 45, 127
1, 595879, Note_on_c, 1, 57, 127
1, 595879, Note_on_c, 1, 60, 127
1, 596077, Note_off_c, 1, 69, 0
1, 596079, Note_on_c, 1, 64, 127
1, 596275, Note_off_c, 1, 64, 0
1, 596278, Note_on_c, 1, 66, 127
1, 596460, Note_off_c, 1, 66, 0
1, 596476, Note_off_c, 1, 45, 0
1, 596476, Note_off_c, 1, 57, 0
1, 596476, Note_off_c, 1, 60, 0
1, 596478, Note_on_c, 1, 55, 127
1, 596478, Note_on_c, 1, 59, 127
1, 596478, Note_on_c, 1, 67, 127
1, 596478, Note_on_c, 1, 52, 127
1, 596676, Note_off_c, 1, 55, 0
1, 596676, Note_off_c, 1, 59, 0
1, 596676, Note_off_c, 1, 67, 0
1, 596678, Note_on_c, 1, 54, 127
1, 596678, Note_on_c, 1, 57, 127
1, 596678, Note_on_c, 1, 69, 127
1, 596874, Note_off_c, 1, 54, 0
1, 596874, Note_off_c, 1, 57, 0
1, 596874, Note_off_c, 1, 69, 0
1, 596876, Note_off_c, 1, 52, 0
1, 596878, Note_on_c, 1, 52, 127
1, 596878, Note_on_c, 1, 55, 127
1, 596878, Note_on_c, 1, 71, 127
1, 597060, Note_off_c, 1, 52, 0
1, 597060, Note_off_c, 1, 55, 0
1, 597060, Note_off_c, 1, 71, 0
1, 597077, Note_on_c, 1, 54, 127
1, 597077, Note_on_c, 1, 57, 127
1, 597077, Note_on_c, 1, 63, 127
1, 597077, Note_on_c, 1, 47, 127
1, 597275, Note_off_c, 1, 54, 0
1, 597275, Note_off_c, 1, 57, 0
1, 597275, Note_off_c, 1, 63, 0
1, 597277, Note_on_c, 1, 52, 127
1, 597277, Note_on_c, 1, 55, 127
1, 597277, Note_on_c, 1, 64, 127
1, 597473, Note_off_c, 1, 52, 0
1, 597473, Note_off_c, 1, 55, 0
1, 597473, Note_off_c, 1, 64, 0
1, 597475, Note_off_c, 1, 47, 0
1, 597477, Note_on_c, 1, 45, 127
1, 597477, Note_on_c, 1, 51, 127
1, 597477, Note_on_c, 1, 54, 127
1, 597477, Note_on_c, 1, 66, 127
1, 597659, Note_off_c, 1, 45, 0
1, 597659, Note_off_c, 1, 51, 0
1, 597659, Note_off_c, 1, 54, 0
1, 597659, Note_off_c, 1, 66, 0
1, 597676, Note_on_c, 1, 55, 127
1, 597676, Note_on_c, 1, 64, 127
1, 597676, Note_on_c, 1, 43, 127
1, 597676, Note_on_c, 1, 52, 127
1, 597874, Note_off_c, 1, 55, 0
1, 597874, Note_off_c, 1, 64, 0
1, 597876, Note_on_c, 1, 71, 127
1, 597974, Note_off_c, 1, 43, 0
1, 597976, Note_on_c, 1, 45, 127
1, 598073, Note_off_c, 1, 71, 0
1, 598075, Note_off_c, 1, 45, 0
1, 598077, Note_on_c, 1, 59, 127
1, 598177, Note_on_c, 1, 42, 127
1, 598260, Note_off_c, 1, 59, 0
1, 598271, Note_off_c, 1, 52, 0
1, 598276, Note_off_c, 1, 42, 0
1, 598278, Note_on_c, 1, 59, 127
1, 598278, Note_on_c, 1, 40, 127
1, 598476, Note_off_c, 1, 59, 0
1, 598478, Note_on_c, 1, 61, 127
1, 598674, Note_off_c, 1, 61, 0
1, 598676, Note_off_c, 1, 40, 0
1, 598678, Note_on_c, 1, 52, 127
1, 598678, Note_on_c, 1, 56, 127
1, 598678, Note_on_c, 1, 62, 127
1, 598860, Note_off_c, 1, 52, 0
1, 598860, Note_off_c, 1, 56, 0
1, 598860, Note_off_c, 1, 62, 0
1, 598877, Note_on_c, 1, 61, 127
1, 598877, Note_on_c, 1, 57, 127
1, 599075, Note_off_c, 1, 61, 0
1, 599077, Note_on_c, 1, 55, 127
1, 599077, Note_on_c, 1, 62, 127
1, 599273, Note_off_c, 1, 55, 0
1, 599273, Note_off_c, 1, 62, 0
1, 599275, Note_off_c, 1, 57, 0
1, 599277, Note_on_c, 1, 54, 127
1, 599277, Note_on_c, 1, 58, 127
1, 599277, Note_on_c, 1, 64, 127
1, 599459, Note_off_c, 1, 54, 0
1, 599459, Note_off_c, 1, 58, 0
1, 599459, Note_off_c, 1, 64, 0
1, 599476, Note_on_c, 1, 63, 127
1, 599476, Note_on_c, 1, 59, 127
1, 599674, Note_off_c, 1, 63, 0
1, 599676, Note_on_c, 1, 64, 127
1, 599872, Note_off_c, 1, 64, 0
1, 599874, Note_off_c, 1, 59, 0
1, 599876, Note_on_c, 1, 47, 127
1, 599876, Note_on_c, 1, 57, 127
1, 599876, Note_on_c, 1, 66, 127
1, 600058, Note_off_c, 1, 47, 0
1, 600058, Note_off_c, 1, 57, 0
1, 600058, Note_off_c, 1, 66, 0
1, 600075, Note_on_c, 1, 55, 127
1, 600075, Note_on_c, 1, 64, 127
1, 600075, Note_on_c, 1, 48, 127
1, 600273, Note_off_c, 1, 55, 0
1, 600273, Note_off_c, 1, 64, 0
1, 600275, Note_on_c, 1, 54, 127
1, 600275, Note_on_c, 1, 66, 127
1, 600471, Note_off_c, 1, 54, 0
1, 600471, Note_off_c, 1, 66, 0
1, 600473, Note_off_c, 1, 48, 0
1, 600475, Note_on_c, 1, 49, 127
1, 600475, Note_on_c, 1, 52, 127
1, 600475, Note_on_c, 1, 67, 127
1, 600657, Note_off_c, 1, 49, 0
1, 600657, Note_off_c, 1, 52, 0
1, 600657, Note_off_c, 1, 67, 0
1, 600674, Note_on_c, 1, 57, 127
1, 600674, Note_on_c, 1, 66, 127
1, 600674, Note_on_c, 1, 50, 127
1, 600872, Note_off_c, 1, 57, 0
1, 600872, Note_off_c, 1, 66, 0
1, 600874, Note_on_c, 1, 55, 127
1, 600874, Note_on_c, 1, 67, 127
1, 601070, Note_off_c, 1, 55, 0
1, 601070, Note_off_c, 1, 67, 0
1, 601072, Note_off_c, 1, 50, 0
1, 601074, Note_on_c, 1, 51, 127
1, 601074, Note_on_c, 1, 54, 127
1, 601074, Note_on_c, 1, 69, 127
1, 601256, Note_off_c, 1, 51, 0
1, 601256, Note_off_c, 1, 54, 0
1, 601256, Note_off_c, 1, 69, 0
1, 601273, Note_on_c, 1, 59, 127
1, 601273, Note_on_c, 1, 67, 127
1, 601273, Note_on_c, 1, 52, 127
1, 601471, Note_off_c, 1, 59, 0
1, 601471, Note_off_c, 1, 67, 0
1, 601473, Note_on_c, 1, 57, 127
1, 601473, Note_on_c, 1, 69, 127
1, 601669, Note_off_c, 1, 57, 0
1, 601669, Note_off_c, 1, 69, 0
1, 601672, Note_on_c, 1, 55, 127
1, 601672, Note_on_c, 1, 71, 127
1, 601854, Note_off_c, 1, 55, 0
1, 601854, Note_off_c, 1, 71, 0
1, 601871, Note_on_c, 1, 54, 127
1, 602270, Note_on_c, 1, 72, 127
1, 602452, Note_off_c, 1, 72, 0
1, 602468, Note_off_c, 1, 52, 0
1, 602470, Note_on_c, 1, 51, 127
1, 602668, Note_off_c, 1, 54, 0
1, 602971, Note_on_c, 1, 66, 127
1, 603070, Note_off_c, 1, 51, 0
1, 603070, Note_off_c, 1, 66, 0
1, 603072, Note_on_c, 1, 64, 127
1, 603072, Note_on_c, 1, 67, 127
1, 603072, Note_on_c, 1, 52, 127
1, 603270, Note_off_c, 1, 64, 0
1, 603272, Note_on_c, 1, 62, 127
1, 603369, Note_off_c, 1, 62, 0
1, 603372, Note_on_c, 1, 60, 127
1, 603470, Note_off_c, 1, 67, 0
1, 603470, Note_off_c, 1, 60, 0
1, 603472, Note_on_c, 1, 68, 127
1, 603572, Note_on_c, 1, 59, 127
1, 603655, Note_off_c, 1, 68, 0
1, 603671, Note_off_c, 1, 52, 0
1, 603671, Note_off_c, 1, 59, 0
1, 603673, Note_on_c, 1, 57, 127
1, 603673, Note_on_c, 1, 60, 127
1, 603673, Note_on_c, 1, 69, 127
1, 603871, Note_off_c, 1, 57, 0
1, 603873, Note_on_c, 1, 55, 127
1, 603970, Note_off_c, 1, 55, 0
1, 603973, Note_on_c, 1, 53, 127
1, 604071, Note_off_c, 1, 60, 0
1, 604071, Note_off_c, 1, 53, 0
1, 604073, Note_on_c, 1, 61, 127
1, 604173, Note_on_c, 1, 52, 127
1, 604256, Note_off_c, 1, 61, 0
1, 604272, Note_off_c, 1, 52, 0
1, 604274, Note_on_c, 1, 62, 127
1, 604472, Note_off_c, 1, 69, 0
1, 604474, Note_on_c, 1, 67, 127
1, 604571, Note_off_c, 1, 67, 0
1, 604574, Note_on_c, 1, 50, 127
1, 604574, Note_on_c, 1, 65, 127
1, 604672, Note_off_c, 1, 62, 0
1, 604672, Note_off_c, 1, 50, 0
1, 604672, Note_off_c, 1, 65, 0
1, 604674, Note_on_c, 1, 52, 127
1, 604674, Note_on_c, 1, 67, 127
1, 604769, Note_off_c, 1, 52, 0
1, 604769, Note_off_c, 1, 67, 0
1, 604774, Note_on_c, 1, 49, 127
1, 604774, Note_on_c, 1, 64, 127
1, 604872, Note_off_c, 1, 49, 0
1, 604872, Note_off_c, 1, 64, 0
1, 604874, Note_on_c, 1, 50, 127
1, 604874, Note_on_c, 1, 62, 127
1, 604874, Note_on_c, 1, 65, 127
1, 605072, Note_off_c, 1, 50, 0
1, 605072, Note_off_c, 1, 62, 0
1, 605074, Note_on_c, 1, 60, 127
1, 605074, Note_on_c, 1, 52, 127
1, 605171, Note_off_c, 1, 60, 0
1, 605174, Note_on_c, 1, 59, 127
1, 605271, Note_off_c, 1, 52, 0
1, 605273, Note_off_c, 1, 65, 0
1, 605273, Note_off_c, 1, 59, 0
1, 605275, Note_on_c, 1, 60, 127
1, 605275, Note_on_c, 1, 54, 127
1, 605370, Note_off_c, 1, 60, 0
1, 605375, Note_on_c, 1, 57, 127
1, 605458, Note_off_c, 1, 54, 0
1, 605474, Note_off_c, 1, 57, 0
1, 605476, Note_on_c, 1, 59, 127
1, 605476, Note_on_c, 1, 71, 127
1, 605476, Note_on_c, 1, 55, 127
1, 605674, Note_off_c, 1, 59, 0
1, 605674, Note_off_c, 1, 71, 0
1, 605676, Note_on_c, 1, 69, 127
1, 605676, Note_on_c, 1, 61, 127
1, 605773, Note_off_c, 1, 69, 0
1, 605776, Note_on_c, 1, 67, 127
1, 605873, Note_off_c, 1, 61, 0
1, 605875, Note_off_c, 1, 55, 0
1, 605875, Note_off_c, 1, 67, 0
1, 605877, Note_on_c, 1, 69, 127
1, 605877, Note_on_c, 1, 54, 127
1, 605877, Note_on_c, 1, 63, 127
1, 605972, Note_off_c, 1, 69, 0
1, 605977, Note_on_c, 1, 66, 127
1, 606060, Note_off_c, 1, 54, 0
1, 606060, Note_off_c, 1, 63, 0
1, 606076, Note_off_c, 1, 66, 0
1, 606078, Note_on_c, 1, 52, 127
1, 606078, Note_on_c, 1, 67, 127
1, 606078, Note_on_c, 1, 64, 127
1, 606276, Note_off_c, 1, 52, 0
1, 606276, Note_off_c, 1, 67, 0
1, 606278, Note_on_c, 1, 72, 127
1, 606378, Note_on_c, 1, 50, 127
1, 606475, Note_off_c, 1, 72, 0
1, 606477, Note_off_c, 1, 64, 0
1, 606477, Note_off_c, 1, 50, 0
1, 606479, Note_on_c, 1, 52, 127
1, 606479, Note_on_c, 1, 71, 127
1, 606574, Note_off_c, 1, 52, 0
1, 606579, Note_on_c, 1, 48, 127
1, 606662, Note_off_c, 1, 71, 0
1, 606678, Note_off_c, 1, 48, 0
1, 606680, Note_on_c, 1, 53, 127
1, 606680, Note_on_c, 1, 69, 127
1, 606878, Note_off_c, 1, 53, 0
1, 606878, Note_off_c, 1, 69, 0
1, 606880, Note_on_c, 1, 54, 127
1, 606880, Note_on_c, 1, 74, 127
1, 606977, Note_off_c, 1, 54, 0
1, 606980, Note_on_c, 1, 52, 127
1, 607077, Note_off_c, 1, 74, 0
1, 607079, Note_off_c, 1, 52, 0
1, 607081, Note_on_c, 1, 54, 127
1, 607081, Note_on_c, 1, 72, 127
1, 607176, Note_off_c, 1, 54, 0
1, 607181, Note_on_c, 1, 50, 127
1, 607264, Note_off_c, 1, 72, 0
1, 607280, Note_off_c, 1, 50, 0
1, 607282, Note_on_c, 1, 55, 127
1, 607282, Note_on_c, 1, 71, 127
1, 607480, Note_off_c, 1, 55, 0
1, 607480, Note_off_c, 1, 71, 0
1, 607482, Note_on_c, 1, 56, 127
1, 607482, Note_on_c, 1, 76, 127
1, 607579, Note_off_c, 1, 56, 0
1, 607582, Note_on_c, 1, 54, 127
1, 607679, Note_off_c, 1, 76, 0
1, 607681, Note_off_c, 1, 54, 0
1, 607683, Note_on_c, 1, 56, 127
1, 607683, Note_on_c, 1, 74, 127
1, 607778, Note_off_c, 1, 56, 0
1, 607783, Note_on_c, 1, 52, 127
1, 607866, Note_off_c, 1, 74, 0
1, 607882, Note_off_c, 1, 52, 0
1, 607884, Note_on_c, 1, 57, 127
1, 607884, Note_on_c, 1, 64, 127
1, 607884, Note_on_c, 1, 72, 127
1, 608082, Note_off_c, 1, 57, 0
1, 608082, Note_off_c, 1, 64, 0
1, 608282, Note_off_c, 1, 72, 0
1, 608284, Note_on_c, 1, 55, 127
1, 608284, Note_on_c, 1, 59, 127
1, 608284, Note_on_c, 1, 71, 127
1, 608466, Note_off_c, 1, 55, 0
1, 608466, Note_off_c, 1, 59, 0
1, 608466, Note_off_c, 1, 71, 0
1, 608483, Note_on_c, 1, 53, 127
1, 608483, Note_on_c, 1, 60, 127
1, 608483, Note_on_c, 1, 69, 127
1, 608681, Note_off_c, 1, 53, 0
1, 608681, Note_off_c, 1, 60, 0
1, 608681, Note_off_c, 1, 69, 0
1, 608683, Note_on_c, 1, 52, 127
1, 608683, Note_on_c, 1, 62, 127
1, 608683, Note_on_c, 1, 71, 127
1, 608780, Note_off_c, 1, 52, 0
1, 608783, Note_on_c, 1, 50, 127
1, 608880, Note_off_c, 1, 62, 0
1, 608880, Note_off_c, 1, 71, 0
1, 608882, Note_off_c, 1, 50, 0
1, 608884, Note_on_c, 1, 48, 127
1, 608884, Note_on_c, 1, 64, 127
1, 608884, Note_on_c, 1, 72, 127
1, 608979, Note_off_c, 1, 48, 0
1, 608984, Note_on_c, 1, 50, 127
1, 609067, Note_off_c, 1, 64, 0
1, 609067, Note_off_c, 1, 72, 0
1, 609083, Note_off_c, 1, 50, 0
1, 609085, Note_on_c, 1, 56, 127
1, 609085, Note_on_c, 1, 71, 127
1, 609085, Note_on_c, 1, 52, 127
1, 609283, Note_off_c, 1, 56, 0
1, 609283, Note_off_c, 1, 71, 0
1, 609285, Note_on_c, 1, 57, 127
1, 609285, Note_on_c, 1, 72, 127
1, 609481, Note_off_c, 1, 57, 0
1, 609481, Note_off_c, 1, 72, 0
1, 609484, Note_on_c, 1, 59, 127
1, 609484, Note_on_c, 1, 74, 127
1, 609666, Note_off_c, 1, 59, 0
1, 609666, Note_off_c, 1, 74, 0
1, 609682, Note_off_c, 1, 52, 0
1, 609684, Note_on_c, 1, 57, 127
1, 609684, Note_on_c, 1, 72, 127
1, 609684, Note_on_c, 1, 45, 127
1, 609882, Note_off_c, 1, 57, 0
1, 609884, Note_on_c, 1, 64, 127
1, 609982, Note_off_c, 1, 72, 0
1, 609984, Note_on_c, 1, 74, 127
1, 610081, Note_off_c, 1, 64, 0
1, 610083, Note_off_c, 1, 74, 0
1, 610085, Note_on_c, 1, 52, 127
1, 610185, Note_on_c, 1, 71, 127
1, 610268, Note_off_c, 1, 52, 0
1, 610284, Note_off_c, 1, 45, 0
1, 610284, Note_off_c, 1, 71, 0
1, 610286, Note_on_c, 1, 52, 127
1, 610286, Note_on_c, 1, 48, 127
1, 610286, Note_on_c, 1, 69, 127
1, 610484, Note_off_c, 1, 52, 0
1, 610486, Note_on_c, 1, 54, 127
1, 610682, Note_off_c, 1, 54, 0
1, 610684, Note_off_c, 1, 48, 0
1, 610686, Note_on_c, 1, 49, 127
1, 610686, Note_on_c, 1, 55, 127
1, 610868, Note_off_c, 1, 49, 0
1, 610868, Note_off_c, 1, 55, 0
1, 610885, Note_on_c, 1, 50, 127
1, 611083, Note_off_c, 1, 69, 0
1, 611085, Note_on_c, 1, 56, 127
1, 611085, Note_on_c, 1, 71, 127
1, 611281, Note_off_c, 1, 56, 0
1, 611281, Note_off_c, 1, 71, 0
1, 611283, Note_off_c, 1, 50, 0
1, 611285, Note_on_c, 1, 51, 127
1, 611285, Note_on_c, 1, 57, 127
1, 611285, Note_on_c, 1, 72, 127
1, 611467, Note_off_c, 1, 51, 0
1, 611467, Note_off_c, 1, 57, 0
1, 611467, Note_off_c, 1, 72, 0
1, 611484, Note_on_c, 1, 56, 127
1, 611484, Note_on_c, 1, 71, 127
1, 611484, Note_on_c, 1, 52, 127
1, 611682, Note_off_c, 1, 56, 0
1, 611682, Note_off_c, 1, 71, 0
1, 611684, Note_on_c, 1, 57, 127
1, 611684, Note_on_c, 1, 72, 127
1, 611880, Note_off_c, 1, 57, 0
1, 611880, Note_off_c, 1, 72, 0
1, 611883, Note_on_c, 1, 59, 127
1, 611883, Note_on_c, 1, 74, 127
1, 612065, Note_off_c, 1, 59, 0
1, 612065, Note_off_c, 1, 74, 0
1, 612081, Note_off_c, 1, 52, 0
1, 612083, Note_on_c, 1, 57, 127
1, 612083, Note_on_c, 1, 53, 127
1, 612083, Note_on_c, 1, 72, 127
1, 612281, Note_off_c, 1, 57, 0
1, 612283, Note_on_c, 1, 59, 127
1, 612479, Note_off_c, 1, 59, 0
1, 612481, Note_off_c, 1, 53, 0
1, 612481, Note_off_c, 1, 72, 0
1, 612483, Note_on_c, 1, 54, 127
1, 612483, Note_on_c, 1, 60, 127
1, 612483, Note_on_c, 1, 74, 127
1, 612665, Note_off_c, 1, 54, 0
1, 612665, Note_off_c, 1, 60, 0
1, 612682, Note_on_c, 1, 59, 127
1, 612682, Note_on_c, 1, 55, 127
1, 612877, Note_off_c, 1, 74, 0
1, 612880, Note_off_c, 1, 59, 0
1, 612882, Note_on_c, 1, 72, 127
1, 613078, Note_off_c, 1, 72, 0
1, 613080, Note_off_c, 1, 55, 0
1, 613082, Note_on_c, 1, 56, 127
1, 613082, Note_on_c, 1, 62, 127
1, 613082, Note_on_c, 1, 71, 127
1, 613264, Note_off_c, 1, 56, 0
1, 613264, Note_off_c, 1, 62, 0
1, 613264, Note_off_c, 1, 71, 0
1, 613281, Note_on_c, 1, 57, 127
1, 613281, Note_on_c, 1, 60, 127
1, 613281, Note_on_c, 1, 76, 127
1, 613479, Note_off_c, 1, 57, 0
1, 613479, Note_off_c, 1, 60, 0
1, 613479, Note_off_c, 1, 76, 0
1, 613481, Note_on_c, 1, 74, 127
1, 613481, Note_on_c, 1, 59, 127
1, 613481, Note_on_c, 1, 62, 127
1, 613578, Note_off_c, 1, 74, 0
1, 613581, Note_on_c, 1, 72, 127
1, 613678, Note_off_c, 1, 59, 0
1, 613678, Note_off_c, 1, 62, 0
1, 613680, Note_off_c, 1, 72, 0
1, 613682, Note_on_c, 1, 71, 127
1, 613682, Note_on_c, 1, 60, 127
1, 613682, Note_on_c, 1, 64, 127
1, 613777, Note_off_c, 1, 71, 0
1, 613782, Note_on_c, 1, 69, 127
1, 613865, Note_off_c, 1, 60, 0
1, 613865, Note_off_c, 1, 64, 0
1, 613881, Note_off_c, 1, 69, 0
1, 613883, Note_on_c, 1, 62, 127
1, 613883, Note_on_c, 1, 59, 127
1, 613883, Note_on_c, 1, 68, 127
1, 614081, Note_off_c, 1, 62, 0
1, 614083, Note_on_c, 1, 64, 127
1, 614279, Note_off_c, 1, 64, 0
1, 614281, Note_off_c, 1, 59, 0
1, 614281, Note_off_c, 1, 68, 0
1, 614283, Note_on_c, 1, 57, 127
1, 614283, Note_on_c, 1, 65, 127
1, 614283, Note_on_c, 1, 69, 127
1, 614465, Note_off_c, 1, 57, 0
1, 614465, Note_off_c, 1, 65, 0
1, 614465, Note_off_c, 1, 69, 0
1, 614482, Note_on_c, 1, 64, 127
1, 614482, Note_on_c, 1, 56, 127
1, 614482, Note_on_c, 1, 71, 127
1, 614680, Note_off_c, 1, 64, 0
1, 614682, Note_on_c, 1, 62, 127
1, 614779, Note_off_c, 1, 62, 0
1, 614782, Note_on_c, 1, 60, 127
1, 614880, Note_off_c, 1, 60, 0
1, 614982, Note_on_c, 1, 59, 127
1, 615080, Note_off_c, 1, 56, 0
1, 615080, Note_off_c, 1, 59, 0
1, 615280, Note_off_c, 1, 71, 0
1, 615282, Note_on_c, 1, 60, 127
1, 615282, Note_on_c, 1, 69, 127
1, 615379, Note_off_c, 1, 60, 0
1, 615382, Note_on_c, 1, 59, 127
1, 615479, Note_off_c, 1, 69, 0
1, 615481, Note_off_c, 1, 59, 0
1, 615483, Note_on_c, 1, 60, 127
1, 615483, Note_on_c, 1, 67, 127
1, 615578, Note_off_c, 1, 60, 0
1, 615583, Note_on_c, 1, 57, 127
1, 615666, Note_off_c, 1, 67, 0
1, 615682, Note_off_c, 1, 57, 0
1, 615684, Note_on_c, 1, 62, 127
1, 615684, Note_on_c, 1, 66, 127
1, 615882, Note_off_c, 1, 62, 0
1, 615882, Note_off_c, 1, 66, 0
1, 615884, Note_on_c, 1, 66, 127
1, 615884, Note_on_c, 1, 62, 127
1, 615981, Note_off_c, 1, 66, 0
1, 615984, Note_on_c, 1, 64, 127
1, 616081, Note_off_c, 1, 62, 0
1, 616083, Note_off_c, 1, 64, 0
1, 616085, Note_on_c, 1, 66, 127
1, 616085, Note_on_c, 1, 60, 127
1, 616180, Note_off_c, 1, 66, 0
1, 616185, Note_on_c, 1, 62, 127
1, 616268, Note_off_c, 1, 60, 0
1, 616284, Note_off_c, 1, 62, 0
1, 616286, Note_on_c, 1, 59, 127
1, 616286, Note_on_c, 1, 67, 127
1, 616484, Note_off_c, 1, 59, 0
1, 616484, Note_off_c, 1, 67, 0
1, 616486, Note_on_c, 1, 68, 127
1, 616486, Note_on_c, 1, 64, 127
1, 616583, Note_off_c, 1, 68, 0
1, 616586, Note_on_c, 1, 66, 127
1, 616683, Note_off_c, 1, 64, 0
1, 616685, Note_off_c, 1, 66, 0
1, 616687, Note_on_c, 1, 68, 127
1, 616687, Note_on_c, 1, 62, 127
1, 616782, Note_off_c, 1, 68, 0
1, 616787, Note_on_c, 1, 64, 127
1, 616870, Note_off_c, 1, 62, 0
1, 616886, Note_off_c, 1, 64, 0
1, 616888, Note_on_c, 1, 69, 127
1, 616888, Note_on_c, 1, 60, 127
1, 617086, Note_off_c, 1, 69, 0
1, 617088, Note_on_c, 1, 76, 127
1, 617185, Note_off_c, 1, 76, 0
1, 617188, Note_on_c, 1, 74, 127
1, 617286, Note_off_c, 1, 60, 0
1, 617286, Note_off_c, 1, 74, 0
1, 617288, Note_on_c, 1, 76, 127
1, 617288, Note_on_c, 1, 56, 127
1, 617383, Note_off_c, 1, 76, 0
1, 617388, Note_on_c, 1, 71, 127
1, 617471, Note_off_c, 1, 56, 0
1, 617487, Note_off_c, 1, 71, 0
1, 617489, Note_on_c, 1, 57, 127
1, 617489, Note_on_c, 1, 73, 127
1, 617687, Note_off_c, 1, 57, 0
1, 617687, Note_off_c, 1, 73, 0
1, 617689, Note_on_c, 1, 69, 127
1, 617689, Note_on_c, 1, 77, 127
1, 617786, Note_off_c, 1, 69, 0
1, 617789, Note_on_c, 1, 67, 127
1, 617886, Note_off_c, 1, 77, 0
1, 617888, Note_off_c, 1, 67, 0
1, 617890, Note_on_c, 1, 69, 127
1, 617890, Note_on_c, 1, 76, 127
1, 617985, Note_off_c, 1, 69, 0
1, 617990, Note_on_c, 1, 67, 127
1, 618073, Note_off_c, 1, 76, 0
1, 618089, Note_off_c, 1, 67, 0
1, 618091, Note_on_c, 1, 66, 127
1, 618091, Note_on_c, 1, 75, 127
1, 618289, Note_off_c, 1, 66, 0
1, 618289, Note_off_c, 1, 75, 0
1, 618291, Note_on_c, 1, 71, 127
1, 618291, Note_on_c, 1, 79, 127
1, 618388, Note_off_c, 1, 71, 0
1, 618391, Note_on_c, 1, 69, 127
1, 618488, Note_off_c, 1, 79, 0
1, 618490, Note_off_c, 1, 69, 0
1, 618492, Note_on_c, 1, 71, 127
1, 618492, Note_on_c, 1, 78, 127
1, 618587, Note_off_c, 1, 71, 0
1, 618592, Note_on_c, 1, 69, 127
1, 618690, Note_off_c, 1, 69, 0
1, 618692, Note_on_c, 1, 59, 127
1, 618692, Note_on_c, 1, 67, 127
1, 618887, Note_off_c, 1, 78, 0
1, 618890, Note_off_c, 1, 59, 0
1, 618892, Note_on_c, 1, 52, 127
1, 618892, Note_on_c, 1, 76, 127
1, 619088, Note_off_c, 1, 52, 0
1, 619088, Note_off_c, 1, 76, 0
1, 619090, Note_off_c, 1, 67, 0
1, 619092, Note_on_c, 1, 54, 127
1, 619092, Note_on_c, 1, 69, 127
1, 619092, Note_on_c, 1, 75, 127
1, 619274, Note_off_c, 1, 54, 0
1, 619274, Note_off_c, 1, 69, 0
1, 619274, Note_off_c, 1, 75, 0
1, 619291, Note_on_c, 1, 55, 127
1, 619291, Note_on_c, 1, 76, 127
1, 619291, Note_on_c, 1, 71, 127
1, 619489, Note_off_c, 1, 55, 0
1, 619489, Note_off_c, 1, 76, 0
1, 619491, Note_on_c, 1, 57, 127
1, 619491, Note_on_c, 1, 78, 127
1, 619687, Note_off_c, 1, 57, 0
1, 619687, Note_off_c, 1, 78, 0
1, 619690, Note_on_c, 1, 59, 127
1, 619690, Note_on_c, 1, 79, 127
1, 619872, Note_off_c, 1, 59, 0
1, 619872, Note_off_c, 1, 79, 0
1, 619889, Note_on_c, 1, 51, 127
1, 619889, Note_on_c, 1, 81, 127
1, 620087, Note_off_c, 1, 71, 0
1, 620087, Note_off_c, 1, 51, 0
1, 620089, Note_on_c, 1, 52, 127
1, 620089, Note_on_c, 1, 73, 127
1, 620285, Note_off_c, 1, 52, 0
1, 620285, Note_off_c, 1, 73, 0
1, 620288, Note_on_c, 1, 54, 127
1, 620288, Note_on_c, 1, 75, 127
1, 620470, Note_off_c, 1, 54, 0
1, 620470, Note_off_c, 1, 75, 0
1, 620685, Note_off_c, 1, 81, 0
1, 620888, Note_on_c, 1, 47, 127
1, 621071, Note_off_c, 1, 47, 0
1, 621089, Note_on_c, 1, 47, 127
1, 621089, Note_on_c, 1, 75, 127
1, 621089, Note_on_c, 1, 78, 127
1, 621287, Note_off_c, 1, 47, 0
1, 621287, Note_off_c, 1, 75, 0
1, 621289, Note_on_c, 1, 49, 127
1, 621289, Note_on_c, 1, 76, 127
1, 621485, Note_off_c, 1, 49, 0
1, 621485, Note_off_c, 1, 76, 0
1, 621487, Note_off_c, 1, 78, 0
1, 621489, Note_on_c, 1, 51, 127
1, 621489, Note_on_c, 1, 78, 127
1, 621489, Note_on_c, 1, 83, 127
1, 621671, Note_off_c, 1, 51, 0
1, 621671, Note_off_c, 1, 78, 0
1, 621671, Note_off_c, 1, 83, 0
1, 621688, Note_on_c, 1, 49, 127
1, 621688, Note_on_c, 1, 76, 127
1, 621688, Note_on_c, 1, 82, 127
1, 621886, Note_off_c, 1, 49, 0
1, 621886, Note_off_c, 1, 76, 0
1, 621888, Note_on_c, 1, 51, 127
1, 621888, Note_on_c, 1, 78, 127
1, 622084, Note_off_c, 1, 51, 0
1, 622084, Note_off_c, 1, 78, 0
1, 622087, Note_on_c, 1, 52, 127
1, 622087, Note_on_c, 1, 79, 127
1, 622269, Note_off_c, 1, 52, 0
1, 622269, Note_off_c, 1, 79, 0
1, 622285, Note_off_c, 1, 82, 0
1, 622287, Note_on_c, 1, 51, 127
1, 622287, Note_on_c, 1, 78, 127
1, 622287, Note_on_c, 1, 81, 127
1, 622485, Note_off_c, 1, 51, 0
1, 622485, Note_off_c, 1, 78, 0
1, 622487, Note_on_c, 1, 52, 127
1, 622487, Note_on_c, 1, 76, 127
1, 622683, Note_off_c, 1, 52, 0
1, 622683, Note_off_c, 1, 76, 0
1, 622686, Note_on_c, 1, 54, 127
1, 622686, Note_on_c, 1, 75, 127
1, 622868, Note_off_c, 1, 54, 0
1, 622868, Note_off_c, 1, 75, 0
1, 622884, Note_off_c, 1, 81, 0
1, 622886, Note_on_c, 1, 52, 127
1, 622886, Note_on_c, 1, 76, 127
1, 622886, Note_on_c, 1, 79, 127
1, 623084, Note_off_c, 1, 52, 0
1, 623084, Note_off_c, 1, 76, 0
1, 623084, Note_off_c, 1, 79, 0
1, 623086, Note_on_c, 1, 54, 127
1, 623086, Note_on_c, 1, 74, 127
1, 623086, Note_on_c, 1, 78, 127
1, 623282, Note_off_c, 1, 54, 0
1, 623282, Note_off_c, 1, 74, 0
1, 623282, Note_off_c, 1, 78, 0
1, 623285, Note_on_c, 1, 55, 127
1, 623285, Note_on_c, 1, 73, 127
1, 623285, Note_on_c, 1, 76, 127
1, 623467, Note_off_c, 1, 55, 0
1, 623467, Note_off_c, 1, 73, 0
1, 623467, Note_off_c, 1, 76, 0
1, 623484, Note_on_c, 1, 54, 127
1, 623484, Note_on_c, 1, 81, 127
1, 623484, Note_on_c, 1, 74, 127
1, 623682, Note_off_c, 1, 54, 0
1, 623682, Note_off_c, 1, 81, 0
1, 623684, Note_on_c, 1, 55, 127
1, 623684, Note_on_c, 1, 79, 127
1, 623880, Note_off_c, 1, 55, 0
1, 623880, Note_off_c, 1, 79, 0
1, 623882, Note_off_c, 1, 74, 0
1, 623884, Note_on_c, 1, 57, 127
1, 623884, Note_on_c, 1, 75, 127
1, 623884, Note_on_c, 1, 78, 127
1, 624066, Note_off_c, 1, 57, 0
1, 624066, Note_off_c, 1, 75, 0
1, 624066, Note_off_c, 1, 78, 0
1, 624083, Note_on_c, 1, 55, 127
1, 624083, Note_on_c, 1, 83, 127
1, 624083, Note_on_c, 1, 76, 127
1, 624281, Note_off_c, 1, 55, 0
1, 624281, Note_off_c, 1, 83, 0
1, 624283, Note_on_c, 1, 57, 127
1, 624283, Note_on_c, 1, 81, 127
1, 624479, Note_off_c, 1, 57, 0
1, 624479, Note_off_c, 1, 81, 0
1, 624482, Note_on_c, 1, 59, 127
1, 624482, Note_on_c, 1, 79, 127
1, 624664, Note_off_c, 1, 59, 0
1, 624664, Note_off_c, 1, 79, 0
1, 624681, Note_on_c, 1, 84, 127
1, 624879, Note_off_c, 1, 84, 0
1, 625080, Note_on_c, 1, 60, 127
1, 625262, Note_off_c, 1, 60, 0
1, 625479, Note_on_c, 1, 78, 127
1, 625677, Note_off_c, 1, 76, 0
1, 625679, Note_on_c, 1, 75, 127
1, 625779, Note_on_c, 1, 54, 127
1, 625862, Note_off_c, 1, 75, 0
1, 625878, Note_off_c, 1, 54, 0
1, 626076, Note_off_c, 1, 78, 0
1, 626080, Note_on_c, 1, 57, 127
1, 626080, Note_on_c, 1, 76, 127
1, 626177, Note_off_c, 1, 57, 0
1, 626180, Note_on_c, 1, 59, 127
1, 626279, Note_off_c, 1, 76, 0
1, 626279, Note_off_c, 1, 59, 0
1, 626281, Note_on_c, 1, 64, 127
1, 626281, Note_on_c, 1, 76, 127
1, 626281, Note_on_c, 1, 60, 127
1, 626463, Note_off_c, 1, 64, 0
1, 626463, Note_off_c, 1, 76, 0
1, 626480, Note_on_c, 1, 69, 127
1, 626480, Note_on_c, 1, 66, 127
1, 626678, Note_off_c, 1, 69, 0
1, 626680, Note_on_c, 1, 71, 127
1, 626777, Note_off_c, 1, 71, 0
1, 626780, Note_on_c, 1, 72, 127
1, 626875, Note_off_c, 1, 60, 0
1, 626878, Note_off_c, 1, 66, 0
1, 626878, Note_off_c, 1, 72, 0
1, 626880, Note_on_c, 1, 59, 127
1, 626880, Note_on_c, 1, 68, 127
1, 626880, Note_on_c, 1, 74, 127
1, 627062, Note_off_c, 1, 59, 0
1, 627062, Note_off_c, 1, 68, 0
1, 627062, Note_off_c, 1, 74, 0
1, 627079, Note_on_c, 1, 57, 127
1, 627079, Note_on_c, 1, 72, 127
1, 627079, Note_on_c, 1, 69, 127
1, 627277, Note_off_c, 1, 57, 0
1, 627277, Note_off_c, 1, 72, 0
1, 627279, Note_on_c, 1, 59, 127
1, 627279, Note_on_c, 1, 74, 127
1, 627376, Note_off_c, 1, 59, 0
1, 627376, Note_off_c, 1, 74, 0
1, 627379, Note_on_c, 1, 60, 127
1, 627379, Note_on_c, 1, 76, 127
1, 627477, Note_off_c, 1, 60, 0
1, 627477, Note_off_c, 1, 76, 0
1, 627479, Note_on_c, 1, 77, 127
1, 627479, Note_on_c, 1, 62, 127
1, 627661, Note_off_c, 1, 77, 0
1, 627677, Note_off_c, 1, 69, 0
1, 627679, Note_on_c, 1, 68, 127
1, 627879, Note_on_c, 1, 78, 127
1, 627976, Note_off_c, 1, 78, 0
1, 627979, Note_on_c, 1, 80, 127
1, 628074, Note_off_c, 1, 62, 0
1, 628077, Note_off_c, 1, 68, 0
1, 628077, Note_off_c, 1, 80, 0
1, 628079, Note_on_c, 1, 60, 127
1, 628079, Note_on_c, 1, 76, 127
1, 628079, Note_on_c, 1, 81, 127
1, 628261, Note_off_c, 1, 60, 0
1, 628261, Note_off_c, 1, 76, 0
1, 628261, Note_off_c, 1, 81, 0
1, 628278, Note_on_c, 1, 52, 127
1, 628278, Note_on_c, 1, 59, 127
1, 628278, Note_on_c, 1, 79, 127
1, 628278, Note_on_c, 1, 76, 127
1, 628476, Note_off_c, 1, 52, 0
1, 628476, Note_off_c, 1, 59, 0
1, 628476, Note_off_c, 1, 79, 0
1, 628478, Note_on_c, 1, 45, 127
1, 628478, Note_on_c, 1, 60, 127
1, 628478, Note_on_c, 1, 77, 127
1, 628674, Note_off_c, 1, 45, 0
1, 628674, Note_off_c, 1, 60, 0
1, 628676, Note_off_c, 1, 76, 0
1, 628678, Note_on_c, 1, 47, 127
1, 628678, Note_on_c, 1, 62, 127
1, 628678, Note_on_c, 1, 74, 127
1, 628860, Note_off_c, 1, 47, 0
1, 628860, Note_off_c, 1, 62, 0
1, 628874, Note_off_c, 1, 77, 0
1, 628877, Note_on_c, 1, 48, 127
1, 628877, Note_on_c, 1, 55, 127
1, 629072, Note_off_c, 1, 74, 0
1, 629075, Note_off_c, 1, 48, 0
1, 629077, Note_on_c, 1, 72, 127
1, 629077, Note_on_c, 1, 50, 127
1, 629174, Note_off_c, 1, 72, 0
1, 629177, Note_on_c, 1, 71, 127
1, 629274, Note_off_c, 1, 50, 0
1, 629276, Note_off_c, 1, 55, 0
1, 629276, Note_off_c, 1, 71, 0
1, 629477, Note_on_c, 1, 44, 127
1, 629675, Note_off_c, 1, 44, 0
1, 629878, Note_on_c, 1, 68, 127
1, 630060, Note_off_c, 1, 68, 0
1, 630077, Note_on_c, 1, 69, 127
1, 630477, Note_on_c, 1, 40, 127
1, 630659, Note_off_c, 1, 40, 0
1, 630675, Note_off_c, 1, 69, 0
1, 630677, Note_on_c, 1, 40, 127
1, 630677, Note_on_c, 1, 52, 127
1, 630677, Note_on_c, 1, 68, 127
1, 630677, Note_on_c, 1, 71, 127
1, 630875, Note_off_c, 1, 40, 0
1, 630877, Note_on_c, 1, 42, 127
1, 631073, Note_off_c, 1, 42, 0
1, 631075, Note_off_c, 1, 52, 0
1, 631077, Note_on_c, 1, 43, 127
1, 631077, Note_on_c, 1, 64, 127
1, 631259, Note_off_c, 1, 43, 0
1, 631259, Note_off_c, 1, 64, 0
1, 631270, Note_off_c, 1, 68, 0
1, 631270, Note_off_c, 1, 71, 0
1, 631276, Note_on_c, 1, 42, 127
1, 631276, Note_on_c, 1, 63, 127
1, 631474, Note_off_c, 1, 42, 0
1, 631476, Note_on_c, 1, 43, 127
1, 631672, Note_off_c, 1, 43, 0
1, 631675, Note_on_c, 1, 45, 127
1, 631857, Note_off_c, 1, 45, 0
1, 631873, Note_off_c, 1, 63, 0
1, 631875, Note_on_c, 1, 44, 127
1, 631875, Note_on_c, 1, 62, 127
1, 632073, Note_off_c, 1, 44, 0
1, 632075, Note_on_c, 1, 45, 127
1, 632271, Note_off_c, 1, 45, 0
1, 632274, Note_on_c, 1, 47, 127
1, 632274, Note_on_c, 1, 64, 127
1, 632456, Note_off_c, 1, 47, 0
1, 632456, Note_off_c, 1, 64, 0
1, 632472, Note_off_c, 1, 62, 0
1, 632474, Note_on_c, 1, 45, 127
1, 632474, Note_on_c, 1, 60, 127
1, 632474, Note_on_c, 1, 65, 127
1, 632672, Note_off_c, 1, 45, 0
1, 632672, Note_off_c, 1, 60, 0
1, 632674, Note_on_c, 1, 47, 127
1, 632674, Note_on_c, 1, 59, 127
1, 632870, Note_off_c, 1, 47, 0
1, 632870, Note_off_c, 1, 59, 0
1, 632872, Note_off_c, 1, 65, 0
1, 632874, Note_on_c, 1, 48, 127
1, 632874, Note_on_c, 1, 57, 127
1, 632874, Note_on_c, 1, 66, 127
1, 633056, Note_off_c, 1, 48, 0
1, 633056, Note_off_c, 1, 57, 0
1, 633056, Note_off_c, 1, 66, 0
1, 633073, Note_on_c, 1, 47, 127
1, 633073, Note_on_c, 1, 62, 127
1, 633073, Note_on_c, 1, 67, 127
1, 633271, Note_off_c, 1, 47, 0
1, 633271, Note_off_c, 1, 62, 0
1, 633273, Note_on_c, 1, 48, 127
1, 633273, Note_on_c, 1, 60, 127
1, 633469, Note_off_c, 1, 48, 0
1, 633469, Note_off_c, 1, 60, 0
1, 633471, Note_off_c, 1, 67, 0
1, 633473, Note_on_c, 1, 50, 127
1, 633473, Note_on_c, 1, 59, 127
1, 633473, Note_on_c, 1, 68, 127
1, 633655, Note_off_c, 1, 50, 0
1, 633655, Note_off_c, 1, 59, 0
1, 633655, Note_off_c, 1, 68, 0
1, 633672, Note_on_c, 1, 48, 127
1, 633672, Note_on_c, 1, 64, 127
1, 633672, Note_on_c, 1, 69, 127
1, 633870, Note_off_c, 1, 48, 0
1, 633870, Note_off_c, 1, 64, 0
1, 633872, Note_on_c, 1, 50, 127
1, 633872, Note_on_c, 1, 62, 127
1, 634068, Note_off_c, 1, 50, 0
1, 634068, Note_off_c, 1, 62, 0
1, 634071, Note_on_c, 1, 52, 127
1, 634071, Note_on_c, 1, 60, 127
1, 634253, Note_off_c, 1, 52, 0
1, 634253, Note_off_c, 1, 60, 0
1, 634270, Note_on_c, 1, 65, 127
1, 634468, Note_off_c, 1, 65, 0
1, 634669, Note_on_c, 1, 53, 127
1, 634851, Note_off_c, 1, 53, 0
1, 635068, Note_on_c, 1, 59, 127
1, 635266, Note_off_c, 1, 69, 0
1, 635268, Note_on_c, 1, 68, 127
1, 635368, Note_on_c, 1, 47, 127
1, 635451, Note_off_c, 1, 68, 0
1, 635467, Note_off_c, 1, 47, 0
1, 635665, Note_off_c, 1, 59, 0
1, 635669, Note_on_c, 1, 64, 127
1, 635669, Note_on_c, 1, 60, 127
1, 635669, Note_on_c, 1, 72, 127
1, 635766, Note_off_c, 1, 64, 0
1, 635769, Note_on_c, 1, 62, 127
1, 635866, Note_off_c, 1, 60, 0
1, 635868, Note_off_c, 1, 62, 0
1, 635870, Note_on_c, 1, 54, 127
1, 636053, Note_off_c, 1, 54, 0
1, 636071, Note_on_c, 1, 59, 127
1, 636267, Note_off_c, 1, 72, 0
1, 636270, Note_on_c, 1, 71, 127
1, 636367, Note_off_c, 1, 71, 0
1, 636370, Note_on_c, 1, 69, 127
1, 636468, Note_off_c, 1, 59, 0
1, 636468, Note_off_c, 1, 69, 0
1, 636470, Note_on_c, 1, 52, 127
1, 636570, Note_on_c, 1, 68, 127
1, 636653, Note_off_c, 1, 52, 0
1, 636669, Note_off_c, 1, 68, 0
1, 636671, Note_on_c, 1, 76, 127
1, 636671, Note_on_c, 1, 57, 127
1, 636869, Note_off_c, 1, 76, 0
1, 637168, Note_off_c, 1, 57, 0
1, 637170, Note_on_c, 1, 56, 127
1, 637269, Note_off_c, 1, 56, 0
1, 637271, Note_on_c, 1, 72, 127
1, 637271, Note_on_c, 1, 57, 127
1, 637271, Note_on_c, 1, 64, 127
1, 637469, Note_off_c, 1, 72, 0
1, 637471, Note_on_c, 1, 74, 127
1, 637667, Note_off_c, 1, 74, 0
1, 637670, Note_on_c, 1, 48, 127
1, 637670, Note_on_c, 1, 76, 127
1, 637852, Note_off_c, 1, 48, 0
1, 637852, Note_off_c, 1, 76, 0
1, 637868, Note_off_c, 1, 57, 0
1, 637868, Note_off_c, 1, 64, 0
1, 637870, Note_on_c, 1, 59, 127
1, 637870, Note_on_c, 1, 68, 127
1, 637870, Note_on_c, 1, 52, 127
1, 637870, Note_on_c, 1, 64, 127
1, 638068, Note_off_c, 1, 59, 0
1, 638068, Note_off_c, 1, 68, 0
1, 638070, Note_on_c, 1, 57, 127
1, 638070, Note_on_c, 1, 69, 127
1, 638266, Note_off_c, 1, 57, 0
1, 638266, Note_off_c, 1, 69, 0
1, 638268, Note_off_c, 1, 52, 0
1, 638270, Note_on_c, 1, 50, 127
1, 638270, Note_on_c, 1, 56, 127
1, 638270, Note_on_c, 1, 71, 127
1, 638452, Note_off_c, 1, 50, 0
1, 638452, Note_off_c, 1, 56, 0
1, 638452, Note_off_c, 1, 71, 0
1, 638468, Note_off_c, 1, 64, 0
1, 638470, Note_on_c, 1, 69, 127
1, 638470, Note_on_c, 1, 48, 127
1, 638470, Note_on_c, 1, 64, 127
1, 638470, Note_on_c, 1, 57, 127
1, 638668, Note_off_c, 1, 69, 0
1, 638670, Note_on_c, 1, 76, 127
1, 638768, Note_off_c, 1, 48, 0
1, 638770, Note_on_c, 1, 50, 127
1, 638867, Note_off_c, 1, 76, 0
1, 638869, Note_off_c, 1, 64, 0
1, 638869, Note_off_c, 1, 50, 0
1, 638971, Note_on_c, 1, 47, 127
1, 639070, Note_off_c, 1, 57, 0
1, 639070, Note_off_c, 1, 47, 0
1, 639072, Note_on_c, 1, 64, 127
1, 639072, Note_on_c, 1, 48, 127
1, 639072, Note_on_c, 1, 57, 127
1, 639072, Note_on_c, 1, 60, 127
1, 639273, Note_off_c, 1, 64, 0
1, 639275, Note_on_c, 1, 66, 127
1, 639474, Note_off_c, 1, 66, 0
1, 639476, Note_off_c, 1, 48, 0
1, 639476, Note_off_c, 1, 57, 0
1, 639476, Note_off_c, 1, 60, 0
1, 639478, Note_on_c, 1, 49, 127
1, 639478, Note_on_c, 1, 57, 127
1, 639478, Note_on_c, 1, 64, 127
1, 639478, Note_on_c, 1, 67, 127
1, 639663, Note_off_c, 1, 49, 0
1, 639663, Note_off_c, 1, 57, 0
1, 639663, Note_off_c, 1, 64, 0
1, 639663, Note_off_c, 1, 67, 0
1, 639680, Note_on_c, 1, 57, 127
1, 639680, Note_on_c, 1, 62, 127
1, 639680, Note_on_c, 1, 66, 127
1, 639680, Note_on_c, 1, 50, 127
1, 639881, Note_off_c, 1, 57, 0
1, 639881, Note_off_c, 1, 62, 0
1, 639881, Note_off_c, 1, 66, 0
1, 639883, Note_on_c, 1, 55, 127
1, 639883, Note_on_c, 1, 64, 127
1, 639883, Note_on_c, 1, 67, 127
1, 640082, Note_off_c, 1, 55, 0
1, 640082, Note_off_c, 1, 64, 0
1, 640082, Note_off_c, 1, 67, 0
1, 640084, Note_off_c, 1, 50, 0
1, 640086, Note_on_c, 1, 51, 127
1, 640086, Note_on_c, 1, 54, 127
1, 640086, Note_on_c, 1, 66, 127
1, 640086, Note_on_c, 1, 69, 127
1, 640271, Note_off_c, 1, 51, 0
1, 640271, Note_off_c, 1, 54, 0
1, 640271, Note_off_c, 1, 66, 0
1, 640271, Note_off_c, 1, 69, 0
1, 640288, Note_on_c, 1, 59, 127
1, 640288, Note_on_c, 1, 64, 127
1, 640288, Note_on_c, 1, 68, 127
1, 640288, Note_on_c, 1, 52, 127
1, 640489, Note_off_c, 1, 59, 0
1, 640489, Note_off_c, 1, 64, 0
1, 640489, Note_off_c, 1, 68, 0
1, 640491, Note_on_c, 1, 60, 127
1, 640491, Note_on_c, 1, 66, 127
1, 640491, Note_on_c, 1, 69, 127
1, 640690, Note_off_c, 1, 60, 0
1, 640690, Note_off_c, 1, 66, 0
1, 640690, Note_off_c, 1, 69, 0
1, 640692, Note_off_c, 1, 52, 0
1, 640694, Note_on_c, 1, 52, 127
1, 640694, Note_on_c, 1, 62, 127
1, 640694, Note_on_c, 1, 68, 127
1, 640694, Note_on_c, 1, 71, 127
1, 640879, Note_off_c, 1, 52, 0
1, 640879, Note_off_c, 1, 62, 0
1, 640879, Note_off_c, 1, 68, 0
1, 640879, Note_off_c, 1, 71, 0
1, 640896, Note_on_c, 1, 60, 127
1, 640896, Note_on_c, 1, 69, 127
1, 640896, Note_on_c, 1, 53, 127
1, 641097, Note_off_c, 1, 60, 0
1, 641097, Note_off_c, 1, 69, 0
1, 641099, Note_on_c, 1, 59, 127
1, 641099, Note_on_c, 1, 68, 127
1, 641099, Note_on_c, 1, 71, 127
1, 641298, Note_off_c, 1, 59, 0
1, 641298, Note_off_c, 1, 68, 0
1, 641298, Note_off_c, 1, 71, 0
1, 641300, Note_off_c, 1, 53, 0
1, 641302, Note_on_c, 1, 54, 127
1, 641302, Note_on_c, 1, 57, 127
1, 641302, Note_on_c, 1, 69, 127
1, 641302, Note_on_c, 1, 72, 127
1, 641487, Note_off_c, 1, 54, 0
1, 641487, Note_off_c, 1, 57, 0
1, 641487, Note_off_c, 1, 69, 0
1, 641487, Note_off_c, 1, 72, 0
1, 641504, Note_on_c, 1, 62, 127
1, 641504, Note_on_c, 1, 67, 127
1, 641504, Note_on_c, 1, 71, 127
1, 641504, Note_on_c, 1, 55, 127
1, 641707, Note_off_c, 1, 62, 0
1, 641707, Note_off_c, 1, 67, 0
1, 641707, Note_off_c, 1, 71, 0
1, 641709, Note_on_c, 1, 60, 127
1, 641709, Note_on_c, 1, 69, 127
1, 641709, Note_on_c, 1, 72, 127
1, 641911, Note_off_c, 1, 60, 0
1, 641911, Note_off_c, 1, 69, 0
1, 641911, Note_off_c, 1, 72, 0
1, 641913, Note_off_c, 1, 55, 0
1, 641915, Note_on_c, 1, 56, 127
1, 641915, Note_on_c, 1, 59, 127
1, 641915, Note_on_c, 1, 71, 127
1, 641915, Note_on_c, 1, 74, 127
1, 642102, Note_off_c, 1, 56, 0
1, 642102, Note_off_c, 1, 59, 0
1, 642102, Note_off_c, 1, 71, 0
1, 642102, Note_off_c, 1, 74, 0
1, 642120, Note_on_c, 1, 57, 127
1, 642120, Note_on_c, 1, 64, 127
1, 642120, Note_on_c, 1, 69, 127
1, 642120, Note_on_c, 1, 72, 127
1, 642338, Note_off_c, 1, 57, 0
1, 642338, Note_off_c, 1, 64, 0
1, 642338, Note_off_c, 1, 69, 0
1, 642338, Note_off_c, 1, 72, 0
1, 642340, Note_on_c, 1, 71, 127
1, 642340, Note_on_c, 1, 50, 127
1, 642340, Note_on_c, 1, 65, 127
1, 642446, Note_off_c, 1, 71, 0
1, 642449, Note_on_c, 1, 69, 127
1, 642555, Note_off_c, 1, 50, 0
1, 642557, Note_off_c, 1, 69, 0
1, 642559, Note_on_c, 1, 52, 127
1, 642669, Note_on_c, 1, 68, 127
1, 642760, Note_off_c, 1, 52, 0
1, 642775, Note_off_c, 1, 65, 0
1, 642777, Note_off_c, 1, 68, 0
1, 642779, Note_on_c, 1, 53, 127
1, 642779, Note_on_c, 1, 60, 127
1, 642779, Note_on_c, 1, 69, 127
1, 642779, Note_on_c, 1, 65, 127
1, 643041, Note_off_c, 1, 53, 0
1, 643041, Note_off_c, 1, 60, 0
1, 643041, Note_off_c, 1, 69, 0
1, 643058, Note_on_c, 1, 50, 127
1, 643058, Note_on_c, 1, 62, 127
1, 643058, Note_on_c, 1, 71, 127
1, 643320, Note_off_c, 1, 50, 0
1, 643320, Note_off_c, 1, 62, 0
1, 643320, Note_off_c, 1, 71, 0
1, 643331, Note_off_c, 1, 65, 0
1, 643375, Note_on_c, 1, 68, 127
1, 643375, Note_on_c, 1, 64, 127
1, 643375, Note_on_c, 1, 59, 127
1, 643375, Note_on_c, 1, 52, 127
1, 643695, Note_off_c, 1, 68, 0
1, 643695, Note_off_c, 1, 64, 0
1, 643695, Note_off_c, 1, 59, 0
1, 643695, Note_off_c, 1, 52, 0
1, 643766, Note_on_c, 1, 69, 127
1, 643766, Note_on_c, 1, 64, 127
1, 643766, Note_on_c, 1, 61, 127
1, 643766, Note_on_c, 1, 45, 127
1, 645766, Note_off_c, 1, 69, 0
1, 645766, Note_off_c, 1, 64, 0
1, 645766, Note_off_c, 1, 61, 0
1, 645766, Note_off_c, 1, 45, 0
1, 645766, End_track
0, 0, End_of_file