0, 0, Header, 1, 1, 480
1, 0, Start_track
1, 0, Title_t, "Test"
1, 0, Tempo, 500000
1, 0, Instrument_name_t, "Church Organ"
1, 0, Note_on_c, 1, 67, 127
1, 0, Note_on_c, 1, 60, 127
1, 0, Note_on_c, 1, 48, 127
1, 0, Note_on_c, 1, 63, 127
1, 0, Note_on_c, 1, 51, 127
1, 0, Note_on_c, 1, 55, 127
1, 60, Note_on_c, 1, 72, 127
1, 120, Note_off_c, 1, 60, 0
1, 120, Note_off_c, 1, 48, 0
1, 120, Note_off_c, 1, 63, 0
1, 120, Note_off_c, 1, 51, 0
1, 120, Note_off_c, 1, 55, 0
1, 120, Note_off_c, 1, 72, 0
1, 120, Note_on_c, 1, 75, 127
1, 180, Note_off_c, 1, 67, 0
1, 180, Note_off_c, 1, 75, 0
1, 180, Note_on_c, 1, 74, 127
1, 180, Note_on_c, 1, 65, 127
1, 240, Note_off_c, 1, 74, 0
1, 240, Note_off_c, 1, 65, 0
1, 270, Note_on_c, 1, 62, 127
1, 300, Note_off_c, 1, 62, 0
1, 600, Note_on_c, 1, 77, 127
1, 600, Note_on_c, 1, 56, 127
1, 630, Note_off_c, 1, 77, 0
1, 630, Note_on_c, 1, 79, 127
1, 660, Note_off_c, 1, 56, 0
1, 660, Note_off_c, 1, 79, 0
1, 660, Note_on_c, 1, 80, 127
1, 660, Note_on_c, 1, 68, 127
1, 660, Note_on_c, 1, 53, 127
1, 720, Note_off_c, 1, 53, 0
1, 720, Note_on_c, 1, 46, 127
1, 780, Note_off_c, 1, 80, 0
1, 780, Note_off_c, 1, 68, 0
1, 780, Note_off_c, 1, 46, 0
1, 780, Note_on_c, 1, 58, 127
1, 840, Note_off_c, 1, 58, 0
1, 960, Note_on_c, 1, 50, 127
1, 1020, Note_on_c, 1, 70, 127
1, 1080, Note_off_c, 1, 50, 0
1, 1080, Note_off_c, 1, 70, 0
1, 1680, Note_on_c, 1, 44, 127
1, 1740, Note_off_c, 1, 44, 0
1, 1920, Note_on_c, 1, 84, 127
1, 1950, Note_off_c, 1, 84, 0
1, 1950, Note_on_c, 1, 82, 127
1, 1980, Note_off_c, 1, 82, 0
1, 2340, Note_on_c, 1, 43, 127
1, 2400, Note_off_c, 1, 43, 0
1, 2400, Note_on_c, 1, 61, 127
1, 2400, Note_on_c, 1, 41, 127
1, 2460, Note_off_c, 1, 41, 0
1, 2520, Note_off_c, 1, 61, 0
1, 2520, Note_on_c, 1, 73, 127
1, 2760, Note_on_c, 1, 49, 127
1, 2790, Note_off_c, 1, 73, 0
1, 2820, Note_off_c, 1, 49, 0
1, 2940, Note_on_c, 1, 47, 127
1, 2970, Note_off_c, 1, 47, 0
1, 3060, Note_on_c, 1, 59, 127
1, 3090, Note_off_c, 1, 59, 0
1, 3120, Note_on_c, 1, 71, 127
1, 3180, Note_off_c, 1, 71, 0
1, 3510, Note_on_c, 1, 69, 127
1, 3540, Note_off_c, 1, 69, 0
1, 3600, Note_on_c, 1, 36, 127
1, 3720, Note_off_c, 1, 36, 0
1, 3720, Note_on_c, 1, 39, 127
1, 3780, Note_off_c, 1, 39, 0
1, 4770, Note_on_c, 1, 45, 127
1, 4800, Note_off_c, 1, 45, 0
1, 4860, Note_on_c, 1, 54, 127
1, 4890, Note_off_c, 1, 54, 0
1, 5460, Note_on_c, 1, 78, 127
1, 5490, Note_off_c, 1, 78, 0
1, 5490, Note_on_c, 1, 81, 127
1, 5490, Note_on_c, 1, 66, 127
1, 5520, Note_off_c, 1, 81, 0
1, 5520, Note_off_c, 1, 66, 0
1, 5580, Note_on_c, 1, 83, 127
1, 5610, Note_off_c, 1, 83, 0
1, 5610, Note_on_c, 1, 86, 127
1, 5640, Note_off_c, 1, 86, 0
1, 15090, Note_on_c, 1, 57, 127
1, 15120, Note_off_c, 1, 57, 0
1, 16080, Note_on_c, 1, 38, 127
1, 16139, Note_off_c, 1, 38, 0
1, 18720, Note_on_c, 1, 42, 127
1, 18780, Note_off_c, 1, 42, 0
1, 21450, Note_on_c, 1, 64, 127
1, 21479, Note_off_c, 1, 64, 0
1, 25950, Note_on_c, 1, 52, 127
1, 25980, Note_off_c, 1, 52, 0
1, 29700, Note_on_c, 1, 72, 127
1, 29700, Note_on_c, 1, 63, 127
1, 29700, Note_on_c, 1, 45, 127
1, 29700, Note_on_c, 1, 60, 127
1, 29700, Note_on_c, 1, 79, 127
1, 29700, Note_on_c, 1, 55, 127
1, 29729, Note_off_c, 1, 45, 0
1, 29729, Note_off_c, 1, 60, 0
1, 29730, Note_off_c, 1, 72, 0
1, 29730, Note_off_c, 1, 63, 0
1, 29730, Note_on_c, 1, 43, 127
1, 29730, Note_on_c, 1, 58, 127
1, 29759, Note_off_c, 1, 79, 0
1, 29759, Note_off_c, 1, 55, 0
1, 29759, Note_off_c, 1, 43, 0
1, 29759, Note_off_c, 1, 58, 0
1, 29760, Note_on_c, 1, 69, 127
1, 29760, Note_on_c, 1, 72, 127
1, 29760, Note_on_c, 1, 63, 127
1, 29760, Note_on_c, 1, 45, 127
1, 29760, Note_on_c, 1, 60, 127
1, 29760, Note_on_c, 1, 79, 127
1, 29790, Note_off_c, 1, 72, 0
1, 29790, Note_off_c, 1, 63, 0
1, 29790, Note_off_c, 1, 45, 0
1, 29819, Note_off_c, 1, 60, 0
1, 29819, Note_off_c, 1, 79, 0
1, 29820, Note_on_c, 1, 70, 127
1, 29820, Note_on_c, 1, 57, 127
1, 29820, Note_on_c, 1, 62, 127
1, 29849, Note_off_c, 1, 62, 0
1, 29850, Note_off_c, 1, 70, 0
1, 29879, Note_off_c, 1, 69, 0
1, 29879, Note_off_c, 1, 57, 0
1, 29880, Note_on_c, 1, 74, 127
1, 29880, Note_on_c, 1, 53, 127
1, 29910, Note_off_c, 1, 74, 0
1, 29910, Note_on_c, 1, 75, 127
1, 29939, Note_off_c, 1, 53, 0
1, 29940, Note_off_c, 1, 75, 0
1, 29940, Note_on_c, 1, 77, 127
1, 29940, Note_on_c, 1, 50, 127
1, 29999, Note_off_c, 1, 50, 0
1, 30000, Note_on_c, 1, 46, 127
1, 30059, Note_off_c, 1, 46, 0
1, 30060, Note_off_c, 1, 77, 0
1, 30060, Note_on_c, 1, 67, 127
1, 30060, Note_on_c, 1, 65, 127
1, 30060, Note_on_c, 1, 58, 127
1, 30090, Note_off_c, 1, 65, 0
1, 30090, Note_on_c, 1, 48, 127
1, 30119, Note_off_c, 1, 58, 0
1, 30119, Note_off_c, 1, 48, 0
1, 30120, Note_off_c, 1, 67, 0
1, 30180, Note_on_c, 1, 70, 127
1, 30180, Note_on_c, 1, 62, 127
1, 30180, Note_on_c, 1, 43, 127
1, 30180, Note_on_c, 1, 58, 127
1, 30180, Note_on_c, 1, 77, 127
1, 30180, Note_on_c, 1, 53, 127
1, 30209, Note_off_c, 1, 43, 0
1, 30209, Note_off_c, 1, 58, 0
1, 30210, Note_off_c, 1, 70, 0
1, 30210, Note_off_c, 1, 62, 0
1, 30210, Note_on_c, 1, 41, 127
1, 30210, Note_on_c, 1, 57, 127
1, 30239, Note_off_c, 1, 77, 0
1, 30239, Note_off_c, 1, 53, 0
1, 30239, Note_off_c, 1, 41, 0
1, 30239, Note_off_c, 1, 57, 0
1, 30240, Note_on_c, 1, 67, 127
1, 30240, Note_on_c, 1, 70, 127
1, 30240, Note_on_c, 1, 62, 127
1, 30240, Note_on_c, 1, 43, 127
1, 30240, Note_on_c, 1, 58, 127
1, 30240, Note_on_c, 1, 77, 127
1, 30270, Note_off_c, 1, 70, 0
1, 30270, Note_off_c, 1, 62, 0
1, 30270, Note_off_c, 1, 43, 0
1, 30299, Note_off_c, 1, 58, 0
1, 30299, Note_off_c, 1, 77, 0
1, 30300, Note_on_c, 1, 69, 127
1, 30300, Note_on_c, 1, 55, 127
1, 30300, Note_on_c, 1, 60, 127
1, 30329, Note_off_c, 1, 60, 0
1, 30330, Note_off_c, 1, 69, 0
1, 30359, Note_off_c, 1, 67, 0
1, 30359, Note_off_c, 1, 55, 0
1, 30360, Note_on_c, 1, 72, 127
1, 30360, Note_on_c, 1, 51, 127
1, 30390, Note_off_c, 1, 72, 0
1, 30390, Note_on_c, 1, 74, 127
1, 30419, Note_off_c, 1, 51, 0
1, 30420, Note_off_c, 1, 74, 0
1, 30420, Note_on_c, 1, 75, 127
1, 30420, Note_on_c, 1, 48, 127
1, 30479, Note_off_c, 1, 48, 0
1, 30480, Note_on_c, 1, 45, 127
1, 30539, Note_off_c, 1, 45, 0
1, 30540, Note_on_c, 1, 65, 127
1, 30540, Note_on_c, 1, 53, 127
1, 30540, Note_on_c, 1, 57, 127
1, 30570, Note_off_c, 1, 75, 0
1, 30570, Note_off_c, 1, 53, 0
1, 30570, Note_on_c, 1, 46, 127
1, 30599, Note_off_c, 1, 57, 0
1, 30599, Note_off_c, 1, 46, 0
1, 30600, Note_off_c, 1, 65, 0
1, 30660, Note_on_c, 1, 41, 127
1, 30689, Note_off_c, 1, 41, 0
1, 30690, Note_on_c, 1, 39, 127
1, 30719, Note_off_c, 1, 39, 0
1, 30720, Note_on_c, 1, 38, 127
1, 30720, Note_on_c, 1, 50, 127
1, 30839, Note_off_c, 1, 38, 0
1, 30839, Note_off_c, 1, 50, 0
1, 30840, Note_on_c, 1, 82, 127
1, 30899, Note_off_c, 1, 82, 0
1, 30900, Note_on_c, 1, 77, 127
1, 30900, Note_on_c, 1, 74, 127
1, 30900, Note_on_c, 1, 70, 127
1, 30900, Note_on_c, 1, 58, 127
1, 30930, Note_on_c, 1, 72, 127
1, 30959, Note_off_c, 1, 77, 0
1, 30959, Note_off_c, 1, 74, 0
1, 30959, Note_off_c, 1, 70, 0
1, 30959, Note_off_c, 1, 58, 0
1, 30959, Note_off_c, 1, 72, 0
1, 30960, Note_on_c, 1, 67, 127
1, 30960, Note_on_c, 1, 70, 127
1, 30960, Note_on_c, 1, 39, 127
1, 30960, Note_on_c, 1, 51, 127
1, 30990, Note_off_c, 1, 70, 0
1, 31019, Note_off_c, 1, 67, 0
1, 31020, Note_on_c, 1, 75, 127
1, 31020, Note_on_c, 1, 65, 127
1, 31020, Note_on_c, 1, 55, 127
1, 31049, Note_off_c, 1, 55, 0
1, 31050, Note_off_c, 1, 75, 0
1, 31050, Note_off_c, 1, 65, 0
1, 31050, Note_on_c, 1, 72, 127
1, 31050, Note_on_c, 1, 57, 127
1, 31079, Note_off_c, 1, 39, 0
1, 31079, Note_off_c, 1, 51, 0
1, 31079, Note_off_c, 1, 72, 0
1, 31079, Note_off_c, 1, 57, 0
1, 31080, Note_on_c, 1, 63, 127
1, 31080, Note_on_c, 1, 77, 127
1, 31080, Note_on_c, 1, 74, 127
1, 31080, Note_on_c, 1, 82, 127
1, 31080, Note_on_c, 1, 58, 127
1, 31109, Note_off_c, 1, 58, 0
1, 31110, Note_on_c, 1, 72, 127
1, 31110, Note_on_c, 1, 57, 127
1, 31139, Note_off_c, 1, 77, 0
1, 31139, Note_off_c, 1, 74, 0
1, 31139, Note_off_c, 1, 82, 0
1, 31139, Note_off_c, 1, 72, 0
1, 31139, Note_off_c, 1, 57, 0
1, 31140, Note_on_c, 1, 70, 127
1, 31199, Note_off_c, 1, 70, 0
1, 31200, Note_off_c, 1, 63, 0
1, 31200, Note_on_c, 1, 65, 127
1, 31200, Note_on_c, 1, 41, 127
1, 31200, Note_on_c, 1, 53, 127
1, 31259, Note_off_c, 1, 65, 0
1, 31260, Note_on_c, 1, 55, 127
1, 31289, Note_off_c, 1, 55, 0
1, 31319, Note_off_c, 1, 41, 0
1, 31319, Note_off_c, 1, 53, 0
1, 31320, Note_on_c, 1, 65, 127
1, 31320, Note_on_c, 1, 77, 127
1, 31320, Note_on_c, 1, 82, 127
1, 31320, Note_on_c, 1, 74, 127
1, 31320, Note_on_c, 1, 58, 127
1, 31349, Note_off_c, 1, 58, 0
1, 31350, Note_on_c, 1, 72, 127
1, 31350, Note_on_c, 1, 57, 127
1, 31379, Note_off_c, 1, 77, 0
1, 31379, Note_off_c, 1, 82, 0
1, 31379, Note_off_c, 1, 74, 0
1, 31379, Note_off_c, 1, 72, 0
1, 31379, Note_off_c, 1, 57, 0
1, 31380, Note_on_c, 1, 70, 127
1, 31439, Note_off_c, 1, 70, 0
1, 31440, Note_off_c, 1, 65, 0
1, 31440, Note_on_c, 1, 63, 127
1, 31440, Note_on_c, 1, 43, 127
1, 31470, Note_off_c, 1, 63, 0
1, 31470, Note_on_c, 1, 68, 127
1, 31499, Note_off_c, 1, 43, 0
1, 31499, Note_off_c, 1, 68, 0
1, 31500, Note_on_c, 1, 70, 127
1, 31500, Note_on_c, 1, 62, 127
1, 31500, Note_on_c, 1, 46, 127
1, 31500, Note_on_c, 1, 67, 127
1, 31500, Note_on_c, 1, 51, 127
1, 31529, Note_off_c, 1, 46, 0
1, 31529, Note_off_c, 1, 67, 0
1, 31529, Note_off_c, 1, 51, 0
1, 31530, Note_off_c, 1, 70, 0
1, 31530, Note_off_c, 1, 62, 0
1, 31530, Note_on_c, 1, 44, 127
1, 31530, Note_on_c, 1, 65, 127
1, 31530, Note_on_c, 1, 53, 127
1, 31559, Note_off_c, 1, 44, 0
1, 31559, Note_off_c, 1, 65, 0
1, 31559, Note_off_c, 1, 53, 0
1, 31560, Note_on_c, 1, 82, 127
1, 31560, Note_on_c, 1, 43, 127
1, 31560, Note_on_c, 1, 55, 127
1, 31560, Note_on_c, 1, 63, 127
1, 31589, Note_off_c, 1, 55, 0
1, 31590, Note_off_c, 1, 82, 0
1, 31590, Note_on_c, 1, 80, 127
1, 31590, Note_on_c, 1, 56, 127
1, 31590, Note_on_c, 1, 53, 127
1, 31619, Note_off_c, 1, 43, 0
1, 31619, Note_off_c, 1, 63, 0
1, 31619, Note_off_c, 1, 56, 0
1, 31619, Note_off_c, 1, 53, 0
1, 31620, Note_off_c, 1, 80, 0
1, 31620, Note_on_c, 1, 79, 127
1, 31620, Note_on_c, 1, 46, 127
1, 31620, Note_on_c, 1, 58, 127
1, 31620, Note_on_c, 1, 51, 127
1, 31649, Note_off_c, 1, 46, 0
1, 31649, Note_off_c, 1, 58, 0
1, 31649, Note_off_c, 1, 51, 0
1, 31650, Note_off_c, 1, 79, 0
1, 31650, Note_on_c, 1, 77, 127
1, 31650, Note_on_c, 1, 44, 127
1, 31679, Note_off_c, 1, 44, 0
1, 31680, Note_off_c, 1, 77, 0
1, 31680, Note_on_c, 1, 75, 127
1, 31680, Note_on_c, 1, 70, 127
1, 31710, Note_off_c, 1, 70, 0
1, 31710, Note_on_c, 1, 68, 127
1, 31740, Note_off_c, 1, 68, 0
1, 31740, Note_on_c, 1, 67, 127
1, 31770, Note_off_c, 1, 67, 0
1, 31770, Note_on_c, 1, 65, 127
1, 31800, Note_off_c, 1, 65, 0
1, 31830, Note_on_c, 1, 62, 127
1, 31859, Note_off_c, 1, 62, 0
1, 31860, Note_on_c, 1, 48, 127
1, 31860, Note_on_c, 1, 57, 127
1, 31889, Note_off_c, 1, 48, 0
1, 31889, Note_off_c, 1, 57, 0
1, 31920, Note_on_c, 1, 72, 127
1, 31920, Note_on_c, 1, 45, 127
1, 31950, Note_off_c, 1, 75, 0
1, 31950, Note_off_c, 1, 72, 0
1, 31950, Note_on_c, 1, 50, 127
1, 31979, Note_off_c, 1, 45, 0
1, 31979, Note_off_c, 1, 50, 0
1, 31980, Note_on_c, 1, 69, 127
1, 32009, Note_off_c, 1, 69, 0
1, 32040, Note_on_c, 1, 60, 127
1, 32070, Note_off_c, 1, 60, 0
1, 32340, Note_on_c, 1, 41, 127
1, 32399, Note_off_c, 1, 41, 0
1, 32400, Note_on_c, 1, 74, 127
1, 32429, Note_off_c, 1, 74, 0
1, 32460, Note_on_c, 1, 43, 127
1, 32460, Note_on_c, 1, 75, 127
1, 32460, Note_on_c, 1, 55, 127
1, 32489, Note_off_c, 1, 75, 0
1, 32489, Note_off_c, 1, 55, 0
1, 32490, Note_off_c, 1, 43, 0
1, 32490, Note_on_c, 1, 74, 127
1, 32490, Note_on_c, 1, 53, 127
1, 32519, Note_off_c, 1, 74, 0
1, 32519, Note_off_c, 1, 53, 0
1, 32520, Note_on_c, 1, 39, 127
1, 32520, Note_on_c, 1, 79, 127
1, 32520, Note_on_c, 1, 51, 127
1, 32549, Note_off_c, 1, 79, 0
1, 32549, Note_off_c, 1, 51, 0
1, 32550, Note_off_c, 1, 39, 0
1, 32550, Note_on_c, 1, 77, 127
1, 32550, Note_on_c, 1, 50, 127
1, 32579, Note_off_c, 1, 77, 0
1, 32579, Note_off_c, 1, 50, 0
1, 32580, Note_on_c, 1, 48, 127
1, 32580, Note_on_c, 1, 75, 127
1, 32609, Note_off_c, 1, 75, 0
1, 32610, Note_off_c, 1, 48, 0
1, 32610, Note_on_c, 1, 74, 127
1, 32610, Note_on_c, 1, 46, 127
1, 32639, Note_off_c, 1, 74, 0
1, 32639, Note_off_c, 1, 46, 0
1, 32640, Note_on_c, 1, 45, 127
1, 32640, Note_on_c, 1, 72, 127
1, 32669, Note_off_c, 1, 72, 0
1, 32670, Note_off_c, 1, 45, 0
1, 32670, Note_on_c, 1, 70, 127
1, 32670, Note_on_c, 1, 43, 127
1, 32699, Note_off_c, 1, 70, 0
1, 32699, Note_off_c, 1, 43, 0
1, 32700, Note_on_c, 1, 41, 127
1, 32700, Note_on_c, 1, 69, 127
1, 32729, Note_off_c, 1, 69, 0
1, 32730, Note_off_c, 1, 41, 0
1, 32730, Note_on_c, 1, 67, 127
1, 32730, Note_on_c, 1, 39, 127
1, 32759, Note_off_c, 1, 67, 0
1, 32759, Note_off_c, 1, 39, 0
1, 32760, Note_on_c, 1, 50, 127
1, 32760, Note_on_c, 1, 65, 127
1, 32760, Note_on_c, 1, 38, 127
1, 32789, Note_off_c, 1, 65, 0
1, 32789, Note_off_c, 1, 38, 0
1, 32790, Note_off_c, 1, 50, 0
1, 32790, Note_on_c, 1, 63, 127
1, 32790, Note_on_c, 1, 41, 127
1, 32819, Note_off_c, 1, 63, 0
1, 32819, Note_off_c, 1, 41, 0
1, 32820, Note_on_c, 1, 46, 127
1, 32820, Note_on_c, 1, 62, 127
1, 32820, Note_on_c, 1, 43, 127
1, 32849, Note_off_c, 1, 62, 0
1, 32849, Note_off_c, 1, 43, 0
1, 32850, Note_off_c, 1, 46, 0
1, 32850, Note_on_c, 1, 60, 127
1, 32850, Note_on_c, 1, 45, 127
1, 32879, Note_off_c, 1, 60, 0
1, 32879, Note_off_c, 1, 45, 0
1, 32880, Note_on_c, 1, 43, 127
1, 32880, Note_on_c, 1, 62, 127
1, 32880, Note_on_c, 1, 46, 127
1, 32909, Note_off_c, 1, 46, 0
1, 32910, Note_on_c, 1, 48, 127
1, 32939, Note_off_c, 1, 43, 0
1, 32939, Note_off_c, 1, 62, 0
1, 32939, Note_off_c, 1, 48, 0
1, 32940, Note_on_c, 1, 55, 127
1, 32940, Note_on_c, 1, 70, 127
1, 32940, Note_on_c, 1, 50, 127
1, 32969, Note_off_c, 1, 55, 0
1, 32969, Note_off_c, 1, 50, 0
1, 32970, Note_on_c, 1, 53, 127
1, 32970, Note_on_c, 1, 46, 127
1, 32999, Note_off_c, 1, 70, 0
1, 32999, Note_off_c, 1, 53, 0
1, 32999, Note_off_c, 1, 46, 0
1, 33000, Note_on_c, 1, 51, 127
1, 33000, Note_on_c, 1, 60, 127
1, 33029, Note_off_c, 1, 51, 0
1, 33030, Note_on_c, 1, 50, 127
1, 33030, Note_on_c, 1, 53, 127
1, 33059, Note_off_c, 1, 60, 0
1, 33059, Note_off_c, 1, 50, 0
1, 33059, Note_off_c, 1, 53, 0
1, 33060, Note_on_c, 1, 48, 127
1, 33060, Note_on_c, 1, 69, 127
1, 33060, Note_on_c, 1, 51, 127
1, 33089, Note_off_c, 1, 48, 0
1, 33089, Note_off_c, 1, 51, 0
1, 33119, Note_off_c, 1, 69, 0
1, 33120, Note_on_c, 1, 50, 127
1, 33120, Note_on_c, 1, 70, 127
1, 33149, Note_off_c, 1, 50, 0
1, 33149, Note_off_c, 1, 70, 0
1, 33150, Note_on_c, 1, 48, 127
1, 33150, Note_on_c, 1, 69, 127
1, 33150, Note_on_c, 1, 53, 127
1, 33179, Note_off_c, 1, 48, 0
1, 33179, Note_off_c, 1, 69, 0
1, 33179, Note_off_c, 1, 53, 0
1, 33180, Note_on_c, 1, 46, 127
1, 33180, Note_on_c, 1, 67, 127
1, 33180, Note_on_c, 1, 55, 127
1, 33209, Note_off_c, 1, 46, 0
1, 33209, Note_off_c, 1, 67, 0
1, 33209, Note_off_c, 1, 55, 0
1, 33210, Note_on_c, 1, 45, 127
1, 33210, Note_on_c, 1, 65, 127
1, 33210, Note_on_c, 1, 57, 127
1, 33239, Note_off_c, 1, 45, 0
1, 33239, Note_off_c, 1, 65, 0
1, 33239, Note_off_c, 1, 57, 0
1, 33240, Note_on_c, 1, 43, 127
1, 33240, Note_on_c, 1, 64, 127
1, 33240, Note_on_c, 1, 58, 127
1, 33269, Note_off_c, 1, 43, 0
1, 33269, Note_off_c, 1, 58, 0
1, 33270, Note_on_c, 1, 41, 127
1, 33270, Note_on_c, 1, 57, 127
1, 33299, Note_off_c, 1, 64, 0
1, 33299, Note_off_c, 1, 41, 0
1, 33299, Note_off_c, 1, 57, 0
1, 33300, Note_on_c, 1, 40, 127
1, 33300, Note_on_c, 1, 73, 127
1, 33300, Note_on_c, 1, 58, 127
1, 33329, Note_off_c, 1, 40, 0
1, 33330, Note_on_c, 1, 43, 127
1, 33330, Note_on_c, 1, 52, 127
1, 33359, Note_off_c, 1, 43, 0
1, 33359, Note_off_c, 1, 52, 0
1, 33360, Note_on_c, 1, 41, 127
1, 33360, Note_on_c, 1, 53, 127
1, 33419, Note_off_c, 1, 73, 0
1, 33419, Note_off_c, 1, 41, 0
1, 33419, Note_off_c, 1, 53, 0
1, 33420, Note_off_c, 1, 58, 0
1, 33420, Note_on_c, 1, 72, 127
1, 33420, Note_on_c, 1, 51, 127
1, 33420, Note_on_c, 1, 55, 127
1, 33449, Note_off_c, 1, 72, 0
1, 33450, Note_on_c, 1, 70, 127
1, 33479, Note_off_c, 1, 51, 0
1, 33479, Note_off_c, 1, 55, 0
1, 33479, Note_off_c, 1, 70, 0
1, 33480, Note_on_c, 1, 53, 127
1, 33480, Note_on_c, 1, 69, 127
1, 33495, Note_off_c, 1, 69, 0
1, 33495, Note_on_c, 1, 70, 127
1, 33510, Note_off_c, 1, 70, 0
1, 33539, Note_off_c, 1, 53, 0
1, 33540, Note_on_c, 1, 41, 127
1, 33540, Note_on_c, 1, 51, 127
1, 33599, Note_off_c, 1, 41, 0
1, 33599, Note_off_c, 1, 51, 0
1, 33600, Note_on_c, 1, 65, 127
1, 33600, Note_on_c, 1, 62, 127
1, 33600, Note_on_c, 1, 58, 127
1, 33600, Note_on_c, 1, 46, 127
1, 33600, Note_on_c, 1, 53, 127
1, 33600, Note_on_c, 1, 50, 127
1, 33600, Note_on_c, 1, 70, 127
1, 33719, Note_off_c, 1, 58, 0
1, 33719, Note_off_c, 1, 46, 0
1, 33719, Note_off_c, 1, 53, 0
1, 33719, Note_off_c, 1, 50, 0
1, 33720, Note_off_c, 1, 62, 0
1, 33720, Note_on_c, 1, 74, 127
1, 33780, Note_off_c, 1, 65, 0
1, 33780, Note_off_c, 1, 70, 0
1, 33780, Note_off_c, 1, 74, 0
1, 33780, Note_on_c, 1, 72, 127
1, 33780, Note_on_c, 1, 69, 127
1, 33780, Note_on_c, 1, 63, 127
1, 33840, Note_off_c, 1, 72, 0
1, 33840, Note_off_c, 1, 69, 0
1, 33840, Note_off_c, 1, 63, 0
1, 33870, Note_on_c, 1, 60, 127
1, 33899, Note_off_c, 1, 60, 0
1, 34140, Note_on_c, 1, 67, 127
1, 34200, Note_on_c, 1, 75, 127
1, 34200, Note_on_c, 1, 55, 127
1, 34230, Note_off_c, 1, 67, 0
1, 34230, Note_off_c, 1, 75, 0
1, 34230, Note_on_c, 1, 77, 127
1, 34259, Note_off_c, 1, 55, 0
1, 34260, Note_off_c, 1, 77, 0
1, 34260, Note_on_c, 1, 79, 127
1, 34260, Note_on_c, 1, 51, 127
1, 34319, Note_off_c, 1, 51, 0
1, 34320, Note_on_c, 1, 45, 127
1, 34320, Note_on_c, 1, 57, 127
1, 34379, Note_off_c, 1, 45, 0
1, 34379, Note_off_c, 1, 57, 0
1, 34380, Note_off_c, 1, 79, 0
1, 34500, Note_on_c, 1, 63, 127
1, 34500, Note_on_c, 1, 72, 127
1, 34500, Note_on_c, 1, 45, 127
1, 34559, Note_off_c, 1, 63, 0
1, 34559, Note_off_c, 1, 72, 0
1, 34559, Note_off_c, 1, 45, 0
1, 34560, Note_on_c, 1, 63, 127
1, 34560, Note_on_c, 1, 69, 127
1, 34560, Note_on_c, 1, 72, 127
1, 34560, Note_on_c, 1, 53, 127
1, 34560, Note_on_c, 1, 57, 127
1, 34560, Note_on_c, 1, 60, 127
1, 34620, Note_off_c, 1, 63, 0
1, 34620, Note_off_c, 1, 72, 0
1, 34620, Note_on_c, 1, 65, 127
1, 34679, Note_off_c, 1, 53, 0
1, 34679, Note_off_c, 1, 57, 0
1, 34680, Note_off_c, 1, 60, 0
1, 34740, Note_off_c, 1, 69, 0
1, 34740, Note_on_c, 1, 70, 127
1, 34740, Note_on_c, 1, 62, 127
1, 34799, Note_off_c, 1, 62, 0
1, 34800, Note_off_c, 1, 65, 0
1, 34800, Note_off_c, 1, 70, 0
1, 34800, Note_on_c, 1, 41, 127
1, 34830, Note_on_c, 1, 58, 127
1, 34859, Note_off_c, 1, 58, 0
1, 34890, Note_on_c, 1, 67, 127
1, 34919, Note_off_c, 1, 41, 0
1, 34920, Note_off_c, 1, 67, 0
1, 35100, Note_on_c, 1, 75, 127
1, 35100, Note_on_c, 1, 55, 127
1, 35159, Note_off_c, 1, 55, 0
1, 35160, Note_off_c, 1, 75, 0
1, 35160, Note_on_c, 1, 74, 127
1, 35220, Note_off_c, 1, 74, 0
1, 35220, Note_on_c, 1, 77, 127
1, 35220, Note_on_c, 1, 51, 127
1, 35279, Note_off_c, 1, 51, 0
1, 35280, Note_on_c, 1, 50, 127
1, 35310, Note_on_c, 1, 48, 127
1, 35339, Note_off_c, 1, 50, 0
1, 35339, Note_off_c, 1, 48, 0
1, 35340, Note_off_c, 1, 77, 0
1, 35340, Note_on_c, 1, 38, 127
1, 35399, Note_off_c, 1, 38, 0
1, 35460, Note_on_c, 1, 56, 127
1, 35460, Note_on_c, 1, 70, 127
1, 35460, Note_on_c, 1, 50, 127
1, 35519, Note_off_c, 1, 56, 0
1, 35519, Note_off_c, 1, 70, 0
1, 35519, Note_off_c, 1, 50, 0
1, 35520, Note_on_c, 1, 43, 127
1, 35520, Note_on_c, 1, 55, 127
1, 35520, Note_on_c, 1, 76, 127
1, 35579, Note_off_c, 1, 55, 0
1, 35579, Note_off_c, 1, 76, 0
1, 35580, Note_on_c, 1, 79, 127
1, 35580, Note_on_c, 1, 70, 127
1, 35580, Note_on_c, 1, 58, 127
1, 35609, Note_off_c, 1, 79, 0
1, 35609, Note_off_c, 1, 70, 0
1, 35609, Note_off_c, 1, 58, 0
1, 35610, Note_on_c, 1, 80, 127
1, 35610, Note_on_c, 1, 72, 127
1, 35610, Note_on_c, 1, 56, 127
1, 35639, Note_off_c, 1, 43, 0
1, 35639, Note_off_c, 1, 80, 0
1, 35639, Note_off_c, 1, 72, 0
1, 35639, Note_off_c, 1, 56, 0
1, 35640, Note_on_c, 1, 55, 127
1, 35640, Note_on_c, 1, 76, 127
1, 35640, Note_on_c, 1, 67, 127
1, 35640, Note_on_c, 1, 82, 127
1, 35640, Note_on_c, 1, 73, 127
1, 35669, Note_off_c, 1, 82, 0
1, 35670, Note_on_c, 1, 80, 127
1, 35699, Note_off_c, 1, 73, 0
1, 35699, Note_off_c, 1, 80, 0
1, 35700, Note_on_c, 1, 43, 127
1, 35730, Note_on_c, 1, 79, 127
1, 35759, Note_off_c, 1, 43, 0
1, 35759, Note_off_c, 1, 79, 0
1, 35760, Note_off_c, 1, 55, 0
1, 35760, Note_off_c, 1, 76, 0
1, 35760, Note_off_c, 1, 67, 0
1, 35760, Note_on_c, 1, 44, 127
1, 35760, Note_on_c, 1, 72, 127
1, 35760, Note_on_c, 1, 56, 127
1, 35760, Note_on_c, 1, 77, 127
1, 35789, Note_off_c, 1, 72, 0
1, 35819, Note_off_c, 1, 56, 0
1, 35819, Note_off_c, 1, 77, 0
1, 35820, Note_on_c, 1, 68, 127
1, 35820, Note_on_c, 1, 60, 127
1, 35849, Note_off_c, 1, 68, 0
1, 35849, Note_off_c, 1, 60, 0
1, 35850, Note_on_c, 1, 70, 127
1, 35850, Note_on_c, 1, 58, 127
1, 35879, Note_off_c, 1, 44, 0
1, 35879, Note_off_c, 1, 70, 0
1, 35879, Note_off_c, 1, 58, 0
1, 35880, Note_on_c, 1, 56, 127
1, 35880, Note_on_c, 1, 77, 127
1, 35880, Note_on_c, 1, 65, 127
1, 35880, Note_on_c, 1, 80, 127
1, 35880, Note_on_c, 1, 72, 127
1, 35909, Note_off_c, 1, 80, 0
1, 35910, Note_on_c, 1, 79, 127
1, 35939, Note_off_c, 1, 72, 0
1, 35939, Note_off_c, 1, 79, 0
1, 35940, Note_on_c, 1, 44, 127
1, 35999, Note_off_c, 1, 44, 0
1, 36000, Note_off_c, 1, 56, 0
1, 36000, Note_off_c, 1, 77, 0
1, 36000, Note_off_c, 1, 65, 0
1, 36000, Note_on_c, 1, 46, 127
1, 36000, Note_on_c, 1, 58, 127
1, 36030, Note_on_c, 1, 74, 127
1, 36059, Note_off_c, 1, 58, 0
1, 36059, Note_off_c, 1, 74, 0
1, 36060, Note_on_c, 1, 76, 127
1, 36060, Note_on_c, 1, 67, 127
1, 36060, Note_on_c, 1, 61, 127
1, 36089, Note_off_c, 1, 76, 0
1, 36089, Note_off_c, 1, 67, 0
1, 36089, Note_off_c, 1, 61, 0
1, 36090, Note_on_c, 1, 68, 127
1, 36090, Note_on_c, 1, 60, 127
1, 36119, Note_off_c, 1, 46, 0
1, 36119, Note_off_c, 1, 68, 0
1, 36119, Note_off_c, 1, 60, 0
1, 36120, Note_on_c, 1, 58, 127
1, 36120, Note_on_c, 1, 73, 127
1, 36120, Note_on_c, 1, 64, 127
1, 36120, Note_on_c, 1, 79, 127
1, 36120, Note_on_c, 1, 70, 127
1, 36149, Note_off_c, 1, 79, 0
1, 36150, Note_on_c, 1, 77, 127
1, 36179, Note_off_c, 1, 70, 0
1, 36179, Note_off_c, 1, 77, 0
1, 36180, Note_on_c, 1, 46, 127
1, 36210, Note_on_c, 1, 76, 127
1, 36239, Note_off_c, 1, 46, 0
1, 36239, Note_off_c, 1, 76, 0
1, 36240, Note_off_c, 1, 58, 0
1, 36240, Note_off_c, 1, 73, 0
1, 36240, Note_off_c, 1, 64, 0
1, 36240, Note_on_c, 1, 48, 127
1, 36240, Note_on_c, 1, 56, 127
1, 36240, Note_on_c, 1, 80, 127
1, 36269, Note_off_c, 1, 56, 0
1, 36299, Note_off_c, 1, 80, 0
1, 36300, Note_on_c, 1, 60, 127
1, 36300, Note_on_c, 1, 65, 127
1, 36329, Note_off_c, 1, 60, 0
1, 36329, Note_off_c, 1, 65, 0
1, 36330, Note_on_c, 1, 67, 127
1, 36330, Note_on_c, 1, 55, 127
1, 36359, Note_off_c, 1, 48, 0
1, 36359, Note_off_c, 1, 67, 0
1, 36359, Note_off_c, 1, 55, 0
1, 36360, Note_on_c, 1, 72, 127
1, 36360, Note_on_c, 1, 68, 127
1, 36360, Note_on_c, 1, 53, 127
1, 36389, Note_off_c, 1, 53, 0
1, 36390, Note_on_c, 1, 51, 127
1, 36419, Note_off_c, 1, 68, 0
1, 36419, Note_off_c, 1, 51, 0
1, 36420, Note_on_c, 1, 50, 127
1, 36449, Note_off_c, 1, 50, 0
1, 36480, Note_off_c, 1, 72, 0
1, 36540, Note_on_c, 1, 62, 127
1, 36569, Note_off_c, 1, 62, 0
1, 36600, Note_on_c, 1, 62, 127
1, 36600, Note_on_c, 1, 70, 127
1, 36600, Note_on_c, 1, 65, 127
1, 36600, Note_on_c, 1, 80, 127
1, 36600, Note_on_c, 1, 72, 127
1, 36600, Note_on_c, 1, 53, 127
1, 36614, Note_off_c, 1, 72, 0
1, 36629, Note_off_c, 1, 80, 0
1, 36629, Note_off_c, 1, 53, 0
1, 36630, Note_on_c, 1, 79, 127
1, 36630, Note_on_c, 1, 51, 127
1, 36659, Note_off_c, 1, 79, 0
1, 36659, Note_off_c, 1, 51, 0
1, 36660, Note_on_c, 1, 50, 127
1, 36689, Note_off_c, 1, 50, 0
1, 36690, Note_on_c, 1, 77, 127
1, 36719, Note_off_c, 1, 77, 0
1, 36720, Note_off_c, 1, 62, 0
1, 36720, Note_off_c, 1, 70, 0
1, 36720, Note_off_c, 1, 65, 0
1, 36720, Note_on_c, 1, 52, 127
1, 36720, Note_on_c, 1, 60, 127
1, 36779, Note_off_c, 1, 60, 0
1, 36780, Note_on_c, 1, 76, 127
1, 36780, Note_on_c, 1, 55, 127
1, 36780, Note_on_c, 1, 48, 127
1, 36809, Note_off_c, 1, 76, 0
1, 36809, Note_off_c, 1, 55, 0
1, 36809, Note_off_c, 1, 48, 0
1, 36810, Note_on_c, 1, 74, 127
1, 36839, Note_off_c, 1, 52, 0
1, 36839, Note_off_c, 1, 74, 0
1, 36840, Note_on_c, 1, 64, 127
1, 36840, Note_on_c, 1, 79, 127
1, 36840, Note_on_c, 1, 72, 127
1, 36840, Note_on_c, 1, 52, 127
1, 36855, Note_on_c, 1, 70, 127
1, 36869, Note_off_c, 1, 70, 0
1, 36870, Note_on_c, 1, 53, 127
1, 36899, Note_off_c, 1, 72, 0
1, 36899, Note_off_c, 1, 52, 0
1, 36899, Note_off_c, 1, 53, 0
1, 36900, Note_on_c, 1, 48, 127
1, 36900, Note_on_c, 1, 55, 127
1, 36929, Note_off_c, 1, 55, 0
1, 36959, Note_off_c, 1, 48, 0
1, 36960, Note_off_c, 1, 64, 0
1, 36960, Note_off_c, 1, 79, 0
1, 36990, Note_on_c, 1, 67, 127
1, 37019, Note_off_c, 1, 67, 0
1, 37020, Note_on_c, 1, 84, 127
1, 37020, Note_on_c, 1, 68, 127
1, 37020, Note_on_c, 1, 60, 127
1, 37020, Note_on_c, 1, 51, 127
1, 37020, Note_on_c, 1, 53, 127
1, 37049, Note_off_c, 1, 53, 0
1, 37050, Note_on_c, 1, 56, 127
1, 37050, Note_on_c, 1, 72, 127
1, 37079, Note_off_c, 1, 51, 0
1, 37079, Note_off_c, 1, 56, 0
1, 37079, Note_off_c, 1, 72, 0
1, 37080, Note_off_c, 1, 68, 0
1, 37080, Note_off_c, 1, 60, 0
1, 37080, Note_on_c, 1, 70, 127
1, 37080, Note_on_c, 1, 61, 127
1, 37080, Note_on_c, 1, 49, 127
1, 37080, Note_on_c, 1, 77, 127
1, 37109, Note_off_c, 1, 77, 0
1, 37110, Note_on_c, 1, 80, 127
1, 37139, Note_off_c, 1, 49, 0
1, 37139, Note_off_c, 1, 80, 0
1, 37140, Note_off_c, 1, 84, 0
1, 37140, Note_off_c, 1, 70, 0
1, 37140, Note_on_c, 1, 82, 127
1, 37140, Note_on_c, 1, 64, 127
1, 37140, Note_on_c, 1, 55, 127
1, 37140, Note_on_c, 1, 79, 127
1, 37169, Note_off_c, 1, 79, 0
1, 37170, Note_on_c, 1, 58, 127
1, 37199, Note_off_c, 1, 61, 0
1, 37199, Note_off_c, 1, 58, 0
1, 37200, Note_off_c, 1, 64, 0
1, 37230, Note_off_c, 1, 82, 0
1, 37259, Note_off_c, 1, 55, 0
1, 37260, Note_on_c, 1, 76, 127
1, 37289, Note_off_c, 1, 76, 0
1, 37290, Note_on_c, 1, 62, 127
1, 37290, Note_on_c, 1, 74, 127
1, 37319, Note_off_c, 1, 62, 0
1, 37319, Note_off_c, 1, 74, 0
1, 37350, Note_on_c, 1, 73, 127
1, 37379, Note_off_c, 1, 73, 0
1, 37380, Note_on_c, 1, 52, 127
1, 37439, Note_off_c, 1, 52, 0
1, 37470, Note_on_c, 1, 65, 127
1, 37499, Note_off_c, 1, 65, 0
1, 37560, Note_on_c, 1, 65, 127
1, 37560, Note_on_c, 1, 68, 127
1, 37560, Note_on_c, 1, 41, 127
1, 37560, Note_on_c, 1, 72, 127
1, 37589, Note_off_c, 1, 68, 0
1, 37590, Note_on_c, 1, 53, 127
1, 37619, Note_off_c, 1, 41, 0
1, 37619, Note_off_c, 1, 72, 0
1, 37619, Note_off_c, 1, 53, 0
1, 37620, Note_on_c, 1, 67, 127
1, 37620, Note_on_c, 1, 70, 127
1, 37620, Note_on_c, 1, 52, 127
1, 37649, Note_off_c, 1, 67, 0
1, 37649, Note_off_c, 1, 52, 0
1, 37679, Note_off_c, 1, 70, 0
1, 37680, Note_off_c, 1, 65, 0
1, 37740, Note_on_c, 1, 73, 127
1, 37769, Note_off_c, 1, 73, 0
1, 37800, Note_on_c, 1, 65, 127
1, 37800, Note_on_c, 1, 72, 127
1, 37800, Note_on_c, 1, 41, 127
1, 37800, Note_on_c, 1, 68, 127
1, 37829, Note_off_c, 1, 72, 0
1, 37830, Note_on_c, 1, 53, 127
1, 37859, Note_off_c, 1, 41, 0
1, 37859, Note_off_c, 1, 68, 0
1, 37859, Note_off_c, 1, 53, 0
1, 37860, Note_on_c, 1, 70, 127
1, 37860, Note_on_c, 1, 67, 127
1, 37860, Note_on_c, 1, 52, 127
1, 37889, Note_off_c, 1, 70, 0
1, 37889, Note_off_c, 1, 52, 0
1, 37919, Note_off_c, 1, 67, 0
1, 37920, Note_off_c, 1, 65, 0
1, 37980, Note_on_c, 1, 73, 127
1, 38039, Note_off_c, 1, 73, 0
1, 38040, Note_on_c, 1, 65, 127
1, 38040, Note_on_c, 1, 68, 127
1, 38040, Note_on_c, 1, 41, 127
1, 38040, Note_on_c, 1, 72, 127
1, 38069, Note_off_c, 1, 68, 0
1, 38070, Note_on_c, 1, 53, 127
1, 38099, Note_off_c, 1, 41, 0
1, 38099, Note_off_c, 1, 72, 0
1, 38099, Note_off_c, 1, 53, 0
1, 38100, Note_on_c, 1, 67, 127
1, 38100, Note_on_c, 1, 70, 127
1, 38100, Note_on_c, 1, 52, 127
1, 38129, Note_off_c, 1, 67, 0
1, 38129, Note_off_c, 1, 52, 0
1, 38159, Note_off_c, 1, 70, 0
1, 38160, Note_off_c, 1, 65, 0
1, 38220, Note_on_c, 1, 72, 127
1, 38220, Note_on_c, 1, 68, 127
1, 38220, Note_on_c, 1, 41, 127
1, 38220, Note_on_c, 1, 65, 127
1, 38220, Note_on_c, 1, 53, 127
1, 38249, Note_off_c, 1, 41, 0
1, 38249, Note_off_c, 1, 65, 0
1, 38249, Note_off_c, 1, 53, 0
1, 38250, Note_off_c, 1, 72, 0
1, 38250, Note_off_c, 1, 68, 0
1, 38250, Note_on_c, 1, 40, 127
1, 38250, Note_on_c, 1, 67, 127
1, 38250, Note_on_c, 1, 52, 127
1, 38279, Note_off_c, 1, 40, 0
1, 38279, Note_off_c, 1, 67, 0
1, 38279, Note_off_c, 1, 52, 0
1, 38280, Note_on_c, 1, 68, 127
1, 38280, Note_on_c, 1, 77, 127
1, 38280, Note_on_c, 1, 72, 127
1, 38280, Note_on_c, 1, 41, 127
1, 38280, Note_on_c, 1, 53, 127
1, 38280, Note_on_c, 1, 65, 127
1, 38309, Note_off_c, 1, 41, 0
1, 38309, Note_off_c, 1, 53, 0
1, 38310, Note_off_c, 1, 68, 0
1, 38310, Note_off_c, 1, 77, 0
1, 38310, Note_off_c, 1, 72, 0
1, 38310, Note_on_c, 1, 43, 127
1, 38310, Note_on_c, 1, 70, 127
1, 38310, Note_on_c, 1, 55, 127
1, 38339, Note_off_c, 1, 65, 0
1, 38339, Note_off_c, 1, 43, 0
1, 38339, Note_off_c, 1, 70, 0
1, 38339, Note_off_c, 1, 55, 0
1, 38340, Note_on_c, 1, 44, 127
1, 38340, Note_on_c, 1, 72, 127
1, 38340, Note_on_c, 1, 56, 127
1, 38340, Note_on_c, 1, 51, 127
1, 38369, Note_off_c, 1, 44, 0
1, 38369, Note_off_c, 1, 72, 0
1, 38369, Note_off_c, 1, 56, 0
1, 38369, Note_off_c, 1, 51, 0
1, 38370, Note_on_c, 1, 46, 127
1, 38370, Note_on_c, 1, 73, 127
1, 38370, Note_on_c, 1, 58, 127
1, 38370, Note_on_c, 1, 49, 127
1, 38399, Note_off_c, 1, 46, 0
1, 38399, Note_off_c, 1, 73, 0
1, 38399, Note_off_c, 1, 58, 0
1, 38399, Note_off_c, 1, 49, 0
1, 38400, Note_on_c, 1, 48, 127
1, 38400, Note_on_c, 1, 64, 127
1, 38400, Note_on_c, 1, 60, 127
1, 38400, Note_on_c, 1, 67, 127
1, 38429, Note_off_c, 1, 64, 0
1, 38430, Note_on_c, 1, 72, 127
1, 38459, Note_off_c, 1, 60, 0
1, 38459, Note_off_c, 1, 67, 0
1, 38459, Note_off_c, 1, 72, 0
1, 38460, Note_on_c, 1, 65, 127
1, 38460, Note_on_c, 1, 68, 127
1, 38460, Note_on_c, 1, 59, 127
1, 38489, Note_off_c, 1, 65, 0
1, 38489, Note_off_c, 1, 59, 0
1, 38519, Note_off_c, 1, 48, 0
1, 38519, Note_off_c, 1, 68, 0
1, 38520, Note_on_c, 1, 60, 127
1, 38520, Note_on_c, 1, 67, 127
1, 38520, Note_on_c, 1, 70, 127
1, 38520, Note_on_c, 1, 52, 127
1, 38549, Note_off_c, 1, 67, 0
1, 38550, Note_on_c, 1, 72, 127
1, 38579, Note_off_c, 1, 70, 0
1, 38579, Note_off_c, 1, 52, 0
1, 38579, Note_off_c, 1, 72, 0
1, 38580, Note_on_c, 1, 65, 127
1, 38580, Note_on_c, 1, 59, 127
1, 38580, Note_on_c, 1, 68, 127
1, 38609, Note_off_c, 1, 65, 0
1, 38609, Note_off_c, 1, 59, 0
1, 38639, Note_off_c, 1, 68, 0
1, 38640, Note_off_c, 1, 60, 0
1, 38640, Note_on_c, 1, 48, 127
1, 38640, Note_on_c, 1, 64, 127
1, 38669, Note_off_c, 1, 64, 0
1, 38700, Note_on_c, 1, 58, 127
1, 38700, Note_on_c, 1, 73, 127
1, 38700, Note_on_c, 1, 55, 127
1, 38729, Note_off_c, 1, 58, 0
1, 38729, Note_off_c, 1, 55, 0
1, 38759, Note_off_c, 1, 48, 0
1, 38759, Note_off_c, 1, 73, 0
1, 38760, Note_on_c, 1, 60, 127
1, 38760, Note_on_c, 1, 56, 127
1, 38760, Note_on_c, 1, 72, 127
1, 38790, Note_on_c, 1, 48, 127
1, 38819, Note_off_c, 1, 56, 0
1, 38819, Note_off_c, 1, 72, 0
1, 38819, Note_off_c, 1, 48, 0
1, 38820, Note_on_c, 1, 65, 127
1, 38820, Note_on_c, 1, 47, 127
1, 38820, Note_on_c, 1, 68, 127
1, 38849, Note_off_c, 1, 65, 0
1, 38849, Note_off_c, 1, 47, 0
1, 38879, Note_off_c, 1, 68, 0
1, 38880, Note_off_c, 1, 60, 0
1, 38880, Note_on_c, 1, 73, 127
1, 38880, Note_on_c, 1, 55, 127
1, 38880, Note_on_c, 1, 64, 127
1, 38909, Note_off_c, 1, 73, 0
1, 38910, Note_on_c, 1, 70, 127
1, 38939, Note_off_c, 1, 55, 0
1, 38939, Note_off_c, 1, 64, 0
1, 38939, Note_off_c, 1, 70, 0
1, 38940, Note_on_c, 1, 67, 127
1, 38940, Note_on_c, 1, 52, 127
1, 38969, Note_off_c, 1, 67, 0
1, 38969, Note_off_c, 1, 52, 0
1, 39000, Note_on_c, 1, 60, 127
1, 39000, Note_on_c, 1, 65, 127
1, 39000, Note_on_c, 1, 68, 127
1, 39000, Note_on_c, 1, 53, 127
1, 39029, Note_off_c, 1, 65, 0
1, 39029, Note_off_c, 1, 53, 0
1, 39030, Note_on_c, 1, 48, 127
1, 39059, Note_off_c, 1, 68, 0
1, 39059, Note_off_c, 1, 48, 0
1, 39060, Note_on_c, 1, 71, 127
1, 39060, Note_on_c, 1, 56, 127
1, 39060, Note_on_c, 1, 44, 127
1, 39089, Note_off_c, 1, 71, 0
1, 39089, Note_off_c, 1, 56, 0
1, 39089, Note_off_c, 1, 44, 0
1, 39090, Note_on_c, 1, 74, 127
1, 39090, Note_on_c, 1, 59, 127
1, 39090, Note_on_c, 1, 41, 127
1, 39119, Note_off_c, 1, 74, 0
1, 39119, Note_off_c, 1, 59, 0
1, 39119, Note_off_c, 1, 41, 0
1, 39120, Note_on_c, 1, 77, 127
1, 39149, Note_off_c, 1, 77, 0
1, 39150, Note_on_c, 1, 36, 127
1, 39179, Note_off_c, 1, 60, 0
1, 39179, Note_off_c, 1, 36, 0
1, 39180, Note_on_c, 1, 76, 127
1, 39180, Note_on_c, 1, 60, 127
1, 39180, Note_on_c, 1, 55, 127
1, 39180, Note_on_c, 1, 48, 127
1, 39180, Note_on_c, 1, 67, 127
1, 39210, Note_off_c, 1, 76, 0
1, 39210, Note_off_c, 1, 60, 0
1, 39210, Note_off_c, 1, 55, 0
1, 39210, Note_on_c, 1, 58, 127
1, 39210, Note_on_c, 1, 79, 127
1, 39210, Note_on_c, 1, 46, 127
1, 39239, Note_off_c, 1, 48, 0
1, 39239, Note_off_c, 1, 67, 0
1, 39239, Note_off_c, 1, 58, 0
1, 39239, Note_off_c, 1, 79, 0
1, 39239, Note_off_c, 1, 46, 0
1, 39240, Note_on_c, 1, 77, 127
1, 39240, Note_on_c, 1, 65, 127
1, 39240, Note_on_c, 1, 56, 127
1, 39240, Note_on_c, 1, 72, 127
1, 39240, Note_on_c, 1, 45, 127
1, 39269, Note_off_c, 1, 72, 0
1, 39269, Note_off_c, 1, 45, 0
1, 39270, Note_off_c, 1, 77, 0
1, 39270, Note_off_c, 1, 65, 0
1, 39270, Note_off_c, 1, 56, 0
1, 39270, Note_on_c, 1, 55, 127
1, 39270, Note_on_c, 1, 70, 127
1, 39270, Note_on_c, 1, 48, 127
1, 39270, Note_on_c, 1, 43, 127
1, 39299, Note_off_c, 1, 55, 0
1, 39299, Note_off_c, 1, 70, 0
1, 39299, Note_off_c, 1, 48, 0
1, 39299, Note_off_c, 1, 43, 0
1, 39300, Note_on_c, 1, 79, 127
1, 39300, Note_on_c, 1, 60, 127
1, 39300, Note_on_c, 1, 53, 127
1, 39300, Note_on_c, 1, 68, 127
1, 39300, Note_on_c, 1, 50, 127
1, 39300, Note_on_c, 1, 41, 127
1, 39329, Note_off_c, 1, 53, 0
1, 39329, Note_off_c, 1, 68, 0
1, 39329, Note_off_c, 1, 50, 0
1, 39329, Note_off_c, 1, 41, 0
1, 39330, Note_off_c, 1, 79, 0
1, 39330, Note_off_c, 1, 60, 0
1, 39330, Note_on_c, 1, 52, 127
1, 39330, Note_on_c, 1, 67, 127
1, 39330, Note_on_c, 1, 40, 127
1, 39359, Note_off_c, 1, 52, 0
1, 39359, Note_off_c, 1, 67, 0
1, 39359, Note_off_c, 1, 40, 0
1, 39360, Note_on_c, 1, 68, 127
1, 39360, Note_on_c, 1, 65, 127
1, 39360, Note_on_c, 1, 60, 127
1, 39360, Note_on_c, 1, 53, 127
1, 39360, Note_on_c, 1, 41, 127
1, 39419, Note_off_c, 1, 41, 0
1, 39450, Note_on_c, 1, 56, 127
1, 39479, Note_off_c, 1, 53, 0
1, 39479, Note_off_c, 1, 56, 0
1, 39480, Note_off_c, 1, 68, 0
1, 39480, Note_on_c, 1, 80, 127
1, 39509, Note_off_c, 1, 60, 0
1, 39539, Note_off_c, 1, 80, 0
1, 39540, Note_on_c, 1, 77, 127
1, 39570, Note_on_c, 1, 67, 127
1, 39599, Note_off_c, 1, 77, 0
1, 39599, Note_off_c, 1, 67, 0
1, 39600, Note_off_c, 1, 65, 0
1, 39600, Note_on_c, 1, 51, 127
1, 39660, Note_on_c, 1, 39, 127
1, 39719, Note_off_c, 1, 51, 0
1, 39719, Note_off_c, 1, 39, 0
1, 39720, Note_on_c, 1, 63, 127
1, 39720, Note_on_c, 1, 60, 127
1, 39720, Note_on_c, 1, 80, 127
1, 39750, Note_on_c, 1, 65, 127
1, 39779, Note_off_c, 1, 60, 0
1, 39779, Note_off_c, 1, 80, 0
1, 39779, Note_off_c, 1, 65, 0
1, 39780, Note_on_c, 1, 68, 127
1, 39780, Note_on_c, 1, 75, 127
1, 39810, Note_on_c, 1, 67, 127
1, 39839, Note_off_c, 1, 68, 0
1, 39839, Note_off_c, 1, 75, 0
1, 39839, Note_off_c, 1, 67, 0
1, 39840, Note_off_c, 1, 63, 0
1, 39840, Note_on_c, 1, 50, 127
1, 39899, Note_off_c, 1, 50, 0
1, 39900, Note_on_c, 1, 65, 127
1, 39900, Note_on_c, 1, 74, 127
1, 39900, Note_on_c, 1, 68, 127
1, 39900, Note_on_c, 1, 53, 127
1, 39900, Note_on_c, 1, 62, 127
1, 39929, Note_off_c, 1, 62, 0
1, 39930, Note_off_c, 1, 65, 0
1, 39930, Note_off_c, 1, 74, 0
1, 39930, Note_off_c, 1, 68, 0
1, 39930, Note_on_c, 1, 58, 127
1, 39959, Note_off_c, 1, 53, 0
1, 39959, Note_off_c, 1, 58, 0
1, 39960, Note_on_c, 1, 62, 127
1, 39960, Note_on_c, 1, 77, 127
1, 39960, Note_on_c, 1, 65, 127
1, 39960, Note_on_c, 1, 58, 127
1, 39960, Note_on_c, 1, 80, 127
1, 39960, Note_on_c, 1, 53, 127
1, 39990, Note_off_c, 1, 62, 0
1, 39990, Note_off_c, 1, 77, 0
1, 40019, Note_off_c, 1, 65, 0
1, 40019, Note_off_c, 1, 58, 0
1, 40019, Note_off_c, 1, 80, 0
1, 40019, Note_off_c, 1, 53, 0
1, 40020, Note_on_c, 1, 65, 127
1, 40020, Note_on_c, 1, 74, 127
1, 40020, Note_on_c, 1, 70, 127
1, 40020, Note_on_c, 1, 46, 127
1, 40020, Note_on_c, 1, 68, 127
1, 40020, Note_on_c, 1, 58, 127
1, 40049, Note_off_c, 1, 68, 0
1, 40050, Note_off_c, 1, 70, 0
1, 40079, Note_off_c, 1, 65, 0
1, 40079, Note_off_c, 1, 74, 0
1, 40079, Note_off_c, 1, 46, 0
1, 40079, Note_off_c, 1, 58, 0
1, 40080, Note_on_c, 1, 67, 127
1, 40080, Note_on_c, 1, 75, 127
1, 40080, Note_on_c, 1, 70, 127
1, 40080, Note_on_c, 1, 51, 127
1, 40110, Note_on_c, 1, 63, 127
1, 40139, Note_off_c, 1, 63, 0
1, 40140, Note_on_c, 1, 58, 127
1, 40140, Note_on_c, 1, 39, 127
1, 40169, Note_off_c, 1, 58, 0
1, 40170, Note_on_c, 1, 55, 127
1, 40199, Note_off_c, 1, 51, 0
1, 40199, Note_off_c, 1, 39, 0
1, 40199, Note_off_c, 1, 55, 0
1, 40200, Note_off_c, 1, 67, 0
1, 40200, Note_off_c, 1, 75, 0
1, 40200, Note_off_c, 1, 70, 0
1, 40200, Note_on_c, 1, 79, 127
1, 40259, Note_off_c, 1, 79, 0
1, 40320, Note_on_c, 1, 50, 127
1, 40320, Note_on_c, 1, 65, 127
1, 40349, Note_off_c, 1, 65, 0
1, 40350, Note_on_c, 1, 62, 127
1, 40379, Note_off_c, 1, 62, 0
1, 40380, Note_on_c, 1, 59, 127
1, 40380, Note_on_c, 1, 38, 127
1, 40409, Note_off_c, 1, 59, 0
1, 40439, Note_off_c, 1, 50, 0
1, 40439, Note_off_c, 1, 38, 0
1, 40440, Note_on_c, 1, 62, 127
1, 40440, Note_on_c, 1, 59, 127
1, 40440, Note_on_c, 1, 77, 127
1, 40440, Note_on_c, 1, 50, 127
1, 40469, Note_off_c, 1, 59, 0
1, 40499, Note_off_c, 1, 77, 0
1, 40499, Note_off_c, 1, 50, 0
1, 40500, Note_on_c, 1, 65, 127
1, 40500, Note_on_c, 1, 74, 127
1, 40529, Note_off_c, 1, 65, 0
1, 40530, Note_on_c, 1, 63, 127
1, 40559, Note_off_c, 1, 74, 0
1, 40559, Note_off_c, 1, 63, 0
1, 40560, Note_off_c, 1, 62, 0
1, 40560, Note_on_c, 1, 48, 127
1, 40590, Note_on_c, 1, 60, 127
1, 40619, Note_off_c, 1, 60, 0
1, 40620, Note_on_c, 1, 56, 127
1, 40620, Note_on_c, 1, 36, 127
1, 40649, Note_off_c, 1, 56, 0
1, 40650, Note_on_c, 1, 55, 127
1, 40679, Note_off_c, 1, 48, 0
1, 40679, Note_off_c, 1, 36, 0
1, 40679, Note_off_c, 1, 55, 0
1, 40680, Note_on_c, 1, 60, 127
1, 40680, Note_on_c, 1, 56, 127
1, 40680, Note_on_c, 1, 77, 127
1, 40739, Note_off_c, 1, 56, 0
1, 40739, Note_off_c, 1, 77, 0
1, 40740, Note_on_c, 1, 65, 127
1, 40740, Note_on_c, 1, 72, 127
1, 40770, Note_on_c, 1, 63, 127
1, 40799, Note_off_c, 1, 65, 0
1, 40799, Note_off_c, 1, 72, 0
1, 40799, Note_off_c, 1, 63, 0
1, 40800, Note_off_c, 1, 60, 0
1, 40800, Note_on_c, 1, 47, 127
1, 40830, Note_on_c, 1, 62, 127
1, 40859, Note_off_c, 1, 47, 0
1, 40859, Note_off_c, 1, 62, 0
1, 40860, Note_on_c, 1, 62, 127
1, 40860, Note_on_c, 1, 77, 127
1, 40860, Note_on_c, 1, 50, 127
1, 40860, Note_on_c, 1, 59, 127
1, 40889, Note_off_c, 1, 59, 0
1, 40890, Note_off_c, 1, 62, 0
1, 40890, Note_off_c, 1, 77, 0
1, 40890, Note_on_c, 1, 55, 127
1, 40919, Note_off_c, 1, 50, 0
1, 40919, Note_off_c, 1, 55, 0
1, 40920, Note_on_c, 1, 59, 127
1, 40920, Note_on_c, 1, 74, 127
1, 40920, Note_on_c, 1, 62, 127
1, 40920, Note_on_c, 1, 55, 127
1, 40920, Note_on_c, 1, 77, 127
1, 40950, Note_off_c, 1, 74, 0
1, 40979, Note_off_c, 1, 59, 0
1, 40979, Note_off_c, 1, 62, 0
1, 40979, Note_off_c, 1, 55, 0
1, 40979, Note_off_c, 1, 77, 0
1, 40980, Note_on_c, 1, 62, 127
1, 40980, Note_on_c, 1, 71, 127
1, 40980, Note_on_c, 1, 67, 127
1, 40980, Note_on_c, 1, 43, 127
1, 40980, Note_on_c, 1, 65, 127
1, 41009, Note_off_c, 1, 65, 0
1, 41039, Note_off_c, 1, 62, 0
1, 41039, Note_off_c, 1, 71, 0
1, 41039, Note_off_c, 1, 67, 0
1, 41039, Note_off_c, 1, 43, 0
1, 41040, Note_on_c, 1, 63, 127
1, 41040, Note_on_c, 1, 72, 127
1, 41040, Note_on_c, 1, 67, 127
1, 41040, Note_on_c, 1, 48, 127
1, 41070, Note_on_c, 1, 60, 127
1, 41099, Note_off_c, 1, 48, 0
1, 41099, Note_off_c, 1, 60, 0
1, 41100, Note_on_c, 1, 51, 127
1, 41100, Note_on_c, 1, 55, 127
1, 41100, Note_on_c, 1, 36, 127
1, 41129, Note_off_c, 1, 55, 0
1, 41159, Note_off_c, 1, 51, 0
1, 41159, Note_off_c, 1, 36, 0
1, 41160, Note_off_c, 1, 67, 0
1, 41160, Note_on_c, 1, 56, 127
1, 41160, Note_on_c, 1, 44, 127
1, 41189, Note_off_c, 1, 63, 0
1, 41219, Note_off_c, 1, 72, 0
1, 41219, Note_off_c, 1, 56, 0
1, 41219, Note_off_c, 1, 44, 0
1, 41220, Note_on_c, 1, 44, 127
1, 41220, Note_on_c, 1, 68, 127
1, 41220, Note_on_c, 1, 65, 127
1, 41220, Note_on_c, 1, 56, 127
1, 41249, Note_off_c, 1, 68, 0
1, 41250, Note_on_c, 1, 67, 127
1, 41279, Note_off_c, 1, 44, 0
1, 41279, Note_off_c, 1, 65, 0
1, 41279, Note_off_c, 1, 56, 0
1, 41279, Note_off_c, 1, 67, 0
1, 41280, Note_on_c, 1, 50, 127
1, 41280, Note_on_c, 1, 65, 127
1, 41309, Note_off_c, 1, 65, 0
1, 41310, Note_on_c, 1, 62, 127
1, 41339, Note_off_c, 1, 50, 0
1, 41339, Note_off_c, 1, 62, 0
1, 41340, Note_on_c, 1, 53, 127
1, 41340, Note_on_c, 1, 58, 127
1, 41340, Note_on_c, 1, 38, 127
1, 41369, Note_off_c, 1, 58, 0
1, 41370, Note_on_c, 1, 62, 127
1, 41399, Note_off_c, 1, 53, 0
1, 41399, Note_off_c, 1, 38, 0
1, 41399, Note_off_c, 1, 62, 0
1, 41400, Note_on_c, 1, 58, 127
1, 41400, Note_on_c, 1, 65, 127
1, 41400, Note_on_c, 1, 74, 127
1, 41400, Note_on_c, 1, 46, 127
1, 41429, Note_off_c, 1, 65, 0
1, 41430, Note_on_c, 1, 68, 127
1, 41459, Note_off_c, 1, 58, 0
1, 41459, Note_off_c, 1, 74, 0
1, 41459, Note_off_c, 1, 46, 0
1, 41459, Note_off_c, 1, 68, 0
1, 41460, Note_on_c, 1, 46, 127
1, 41460, Note_on_c, 1, 70, 127
1, 41460, Note_on_c, 1, 65, 127
1, 41460, Note_on_c, 1, 58, 127
1, 41489, Note_off_c, 1, 70, 0
1, 41490, Note_on_c, 1, 68, 127
1, 41519, Note_off_c, 1, 46, 0
1, 41519, Note_off_c, 1, 65, 0
1, 41519, Note_off_c, 1, 58, 0
1, 41519, Note_off_c, 1, 68, 0
1, 41520, Note_on_c, 1, 51, 127
1, 41520, Note_on_c, 1, 67, 127
1, 41549, Note_off_c, 1, 67, 0
1, 41550, Note_on_c, 1, 63, 127
1, 41579, Note_off_c, 1, 51, 0
1, 41579, Note_off_c, 1, 63, 0
1, 41580, Note_on_c, 1, 55, 127
1, 41580, Note_on_c, 1, 60, 127
1, 41580, Note_on_c, 1, 39, 127
1, 41609, Note_off_c, 1, 60, 0
1, 41610, Note_on_c, 1, 63, 127
1, 41639, Note_off_c, 1, 55, 0
1, 41639, Note_off_c, 1, 39, 0
1, 41639, Note_off_c, 1, 63, 0
1, 41640, Note_on_c, 1, 60, 127
1, 41640, Note_on_c, 1, 65, 127
1, 41640, Note_on_c, 1, 75, 127
1, 41640, Note_on_c, 1, 48, 127
1, 41669, Note_off_c, 1, 65, 0
1, 41670, Note_on_c, 1, 70, 127
1, 41699, Note_off_c, 1, 60, 0
1, 41699, Note_off_c, 1, 75, 0
1, 41699, Note_off_c, 1, 48, 0
1, 41699, Note_off_c, 1, 70, 0
1, 41700, Note_on_c, 1, 48, 127
1, 41700, Note_on_c, 1, 72, 127
1, 41700, Note_on_c, 1, 68, 127
1, 41700, Note_on_c, 1, 60, 127
1, 41729, Note_off_c, 1, 72, 0
1, 41730, Note_on_c, 1, 70, 127
1, 41759, Note_off_c, 1, 48, 0
1, 41759, Note_off_c, 1, 68, 0
1, 41759, Note_off_c, 1, 60, 0
1, 41759, Note_off_c, 1, 70, 0
1, 41760, Note_on_c, 1, 53, 127
1, 41760, Note_on_c, 1, 68, 127
1, 41789, Note_off_c, 1, 68, 0
1, 41790, Note_on_c, 1, 65, 127
1, 41819, Note_off_c, 1, 53, 0
1, 41819, Note_off_c, 1, 65, 0
1, 41820, Note_on_c, 1, 56, 127
1, 41820, Note_on_c, 1, 60, 127
1, 41820, Note_on_c, 1, 41, 127
1, 41849, Note_off_c, 1, 60, 0
1, 41850, Note_on_c, 1, 65, 127
1, 41879, Note_off_c, 1, 56, 0
1, 41879, Note_off_c, 1, 41, 0
1, 41879, Note_off_c, 1, 65, 0
1, 41880, Note_on_c, 1, 50, 127
1, 41880, Note_on_c, 1, 68, 127
1, 41880, Note_on_c, 1, 77, 127
1, 41909, Note_off_c, 1, 68, 0
1, 41910, Note_on_c, 1, 72, 127
1, 41939, Note_off_c, 1, 50, 0
1, 41939, Note_off_c, 1, 77, 0
1, 41939, Note_off_c, 1, 72, 0
1, 41940, Note_on_c, 1, 53, 127
1, 41940, Note_on_c, 1, 74, 127
1, 41940, Note_on_c, 1, 68, 127
1, 41940, Note_on_c, 1, 62, 127
1, 41969, Note_off_c, 1, 74, 0
1, 41970, Note_on_c, 1, 72, 127
1, 41999, Note_off_c, 1, 53, 0
1, 41999, Note_off_c, 1, 68, 0
1, 41999, Note_off_c, 1, 62, 0
1, 41999, Note_off_c, 1, 72, 0
1, 42000, Note_on_c, 1, 55, 127
1, 42000, Note_on_c, 1, 71, 127
1, 42000, Note_on_c, 1, 43, 127
1, 42029, Note_off_c, 1, 71, 0
1, 42030, Note_on_c, 1, 65, 127
1, 42059, Note_off_c, 1, 55, 0
1, 42059, Note_off_c, 1, 43, 0
1, 42059, Note_off_c, 1, 65, 0
1, 42060, Note_on_c, 1, 56, 127
1, 42060, Note_on_c, 1, 62, 127
1, 42060, Note_on_c, 1, 47, 127
1, 42089, Note_off_c, 1, 62, 0
1, 42089, Note_off_c, 1, 47, 0
1, 42090, Note_on_c, 1, 65, 127
1, 42090, Note_on_c, 1, 50, 127
1, 42119, Note_off_c, 1, 56, 0
1, 42119, Note_off_c, 1, 65, 0
1, 42119, Note_off_c, 1, 50, 0
1, 42120, Note_on_c, 1, 55, 127
1, 42120, Note_on_c, 1, 71, 127
1, 42120, Note_on_c, 1, 77, 127
1, 42149, Note_off_c, 1, 71, 0
1, 42150, Note_on_c, 1, 74, 127
1, 42150, Note_on_c, 1, 56, 127
1, 42179, Note_off_c, 1, 55, 0
1, 42179, Note_off_c, 1, 77, 0
1, 42179, Note_off_c, 1, 74, 0
1, 42179, Note_off_c, 1, 56, 0
1, 42180, Note_on_c, 1, 53, 127
1, 42180, Note_on_c, 1, 75, 127
1, 42180, Note_on_c, 1, 71, 127
1, 42180, Note_on_c, 1, 55, 127
1, 42209, Note_off_c, 1, 75, 0
1, 42209, Note_off_c, 1, 55, 0
1, 42210, Note_on_c, 1, 74, 127
1, 42239, Note_off_c, 1, 53, 0
1, 42239, Note_off_c, 1, 71, 0
1, 42239, Note_off_c, 1, 74, 0
1, 42240, Note_on_c, 1, 67, 127
1, 42240, Note_on_c, 1, 79, 127
1, 42240, Note_on_c, 1, 51, 127
1, 42240, Note_on_c, 1, 72, 127
1, 42240, Note_on_c, 1, 55, 127
1, 42240, Note_on_c, 1, 60, 127
1, 42269, Note_off_c, 1, 72, 0
1, 42299, Note_off_c, 1, 51, 0
1, 42299, Note_off_c, 1, 55, 0
1, 42299, Note_off_c, 1, 60, 0
1, 42300, Note_off_c, 1, 67, 0
1, 42300, Note_on_c, 1, 48, 127
1, 42300, Note_on_c, 1, 63, 127
1, 42329, Note_off_c, 1, 63, 0
1, 42330, Note_on_c, 1, 65, 127
1, 42359, Note_off_c, 1, 48, 0
1, 42359, Note_off_c, 1, 65, 0
1, 42360, Note_on_c, 1, 75, 127
1, 42420, Note_off_c, 1, 75, 0
1, 42420, Note_on_c, 1, 74, 127
1, 42420, Note_on_c, 1, 53, 127
1, 42420, Note_on_c, 1, 50, 127
1, 42420, Note_on_c, 1, 71, 127
1, 42479, Note_off_c, 1, 53, 0
1, 42479, Note_off_c, 1, 50, 0
1, 42479, Note_off_c, 1, 71, 0
1, 42480, Note_off_c, 1, 74, 0
1, 42570, Note_on_c, 1, 59, 127
1, 42599, Note_off_c, 1, 59, 0
1, 42750, Note_off_c, 1, 79, 0
1, 42840, Note_on_c, 1, 77, 127
1, 42840, Note_on_c, 1, 58, 127
1, 42840, Note_on_c, 1, 56, 127
1, 42840, Note_on_c, 1, 44, 127
1, 42870, Note_off_c, 1, 77, 0
1, 42870, Note_off_c, 1, 58, 0
1, 42899, Note_off_c, 1, 56, 0
1, 42899, Note_off_c, 1, 44, 0
1, 42900, Note_on_c, 1, 80, 127
1, 42900, Note_on_c, 1, 41, 127
1, 42959, Note_off_c, 1, 41, 0
1, 42960, Note_on_c, 1, 62, 127
1, 42960, Note_on_c, 1, 46, 127
1, 43019, Note_off_c, 1, 46, 0
1, 43020, Note_off_c, 1, 80, 0
1, 43020, Note_off_c, 1, 62, 0
1, 43020, Note_on_c, 1, 70, 127
1, 43049, Note_off_c, 1, 70, 0
1, 43200, Note_on_c, 1, 68, 127
1, 43229, Note_off_c, 1, 68, 0
1, 43530, Note_on_c, 1, 69, 127
1, 43559, Note_off_c, 1, 69, 0
1, 43800, Note_on_c, 1, 43, 127
1, 43859, Note_off_c, 1, 43, 0
1, 43860, Note_on_c, 1, 39, 127
1, 43919, Note_off_c, 1, 39, 0
1, 44160, Note_on_c, 1, 84, 127
1, 44190, Note_off_c, 1, 84, 0
1, 44190, Note_on_c, 1, 82, 127
1, 44220, Note_off_c, 1, 82, 0
1, 44370, Note_on_c, 1, 76, 127
1, 44399, Note_off_c, 1, 76, 0
1, 44430, Note_on_c, 1, 73, 127
1, 44459, Note_off_c, 1, 73, 0
1, 44610, Note_on_c, 1, 64, 127
1, 44639, Note_off_c, 1, 64, 0
1, 44700, Note_on_c, 1, 61, 127
1, 44759, Note_off_c, 1, 61, 0
1, 44790, Note_on_c, 1, 66, 127
1, 44820, Note_off_c, 1, 66, 0
1, 44910, Note_on_c, 1, 54, 127
1, 44940, Note_off_c, 1, 54, 0
1, 44940, Note_on_c, 1, 49, 127
1, 44970, Note_off_c, 1, 49, 0
1, 45120, Note_on_c, 1, 61, 127
1, 45120, Note_on_c, 1, 77, 127
1, 45120, Note_on_c, 1, 49, 127
1, 45149, Note_off_c, 1, 61, 0
1, 45149, Note_off_c, 1, 77, 0
1, 45150, Note_on_c, 1, 63, 127
1, 45150, Note_on_c, 1, 79, 127
1, 45179, Note_off_c, 1, 49, 0
1, 45179, Note_off_c, 1, 63, 0
1, 45179, Note_off_c, 1, 79, 0
1, 45180, Note_on_c, 1, 65, 127
1, 45180, Note_on_c, 1, 48, 127
1, 45180, Note_on_c, 1, 80, 127
1, 45209, Note_off_c, 1, 65, 0
1, 45209, Note_off_c, 1, 80, 0
1, 45210, Note_on_c, 1, 67, 127
1, 45210, Note_on_c, 1, 79, 127
1, 45239, Note_off_c, 1, 48, 0
1, 45239, Note_off_c, 1, 67, 0
1, 45239, Note_off_c, 1, 79, 0
1, 45240, Note_on_c, 1, 68, 127
1, 45240, Note_on_c, 1, 53, 127
1, 45240, Note_on_c, 1, 77, 127
1, 45240, Note_on_c, 1, 47, 127
1, 45269, Note_off_c, 1, 77, 0
1, 45270, Note_on_c, 1, 67, 127
1, 45270, Note_on_c, 1, 75, 127
1, 45299, Note_off_c, 1, 68, 0
1, 45299, Note_off_c, 1, 53, 0
1, 45299, Note_off_c, 1, 47, 0
1, 45299, Note_off_c, 1, 75, 0
1, 45300, Note_off_c, 1, 67, 0
1, 45300, Note_on_c, 1, 65, 127
1, 45300, Note_on_c, 1, 56, 127
1, 45300, Note_on_c, 1, 74, 127
1, 45300, Note_on_c, 1, 48, 127
1, 45329, Note_off_c, 1, 74, 0
1, 45330, Note_off_c, 1, 65, 0
1, 45330, Note_on_c, 1, 63, 127
1, 45330, Note_on_c, 1, 72, 127
1, 45359, Note_off_c, 1, 56, 0
1, 45359, Note_off_c, 1, 48, 0
1, 45359, Note_off_c, 1, 72, 0
1, 45360, Note_off_c, 1, 63, 0
1, 45360, Note_on_c, 1, 62, 127
1, 45360, Note_on_c, 1, 38, 127
1, 45360, Note_on_c, 1, 50, 127
1, 45360, Note_on_c, 1, 71, 127
1, 45390, Note_off_c, 1, 62, 0
1, 45390, Note_on_c, 1, 60, 127
1, 45390, Note_on_c, 1, 80, 127
1, 45419, Note_off_c, 1, 38, 0
1, 45419, Note_off_c, 1, 50, 0
1, 45419, Note_off_c, 1, 71, 0
1, 45419, Note_off_c, 1, 80, 0
1, 45420, Note_off_c, 1, 60, 0
1, 45420, Note_on_c, 1, 79, 127
1, 45420, Note_on_c, 1, 59, 127
1, 45450, Note_on_c, 1, 57, 127
1, 45479, Note_off_c, 1, 59, 0
1, 45480, Note_off_c, 1, 79, 0
1, 45480, Note_off_c, 1, 57, 0
1, 45480, Note_on_c, 1, 55, 127
1, 45540, Note_off_c, 1, 55, 0
1, 45600, Note_on_c, 1, 51, 127
1, 45660, Note_off_c, 1, 51, 0
1, 45780, Note_on_c, 1, 43, 127
1, 45839, Note_off_c, 1, 43, 0
1, 45840, Note_on_c, 1, 66, 127
1, 45930, Note_on_c, 1, 64, 127
1, 45960, Note_off_c, 1, 64, 0
1, 45960, Note_on_c, 1, 69, 127
1, 45960, Note_on_c, 1, 54, 127
1, 45989, Note_off_c, 1, 69, 0
1, 45990, Note_off_c, 1, 66, 0
1, 45990, Note_on_c, 1, 70, 127
1, 46019, Note_off_c, 1, 54, 0
1, 46019, Note_off_c, 1, 70, 0
1, 46080, Note_on_c, 1, 45, 127
1, 46139, Note_off_c, 1, 45, 0
1, 46470, Note_on_c, 1, 58, 127
1, 46499, Note_off_c, 1, 58, 0
1, 46800, Note_on_c, 1, 42, 127
1, 46859, Note_off_c, 1, 42, 0
1, 46860, Note_on_c, 1, 69, 127
1, 46860, Note_on_c, 1, 72, 127
1, 46860, Note_on_c, 1, 57, 127
1, 46860, Note_on_c, 1, 66, 127
1, 46860, Note_on_c, 1, 45, 127
1, 46889, Note_off_c, 1, 66, 0
1, 46890, Note_off_c, 1, 69, 0
1, 46890, Note_off_c, 1, 72, 0
1, 46890, Note_on_c, 1, 67, 127
1, 46890, Note_on_c, 1, 75, 127
1, 46919, Note_off_c, 1, 57, 0
1, 46919, Note_off_c, 1, 45, 0
1, 46919, Note_off_c, 1, 67, 0
1, 46919, Note_off_c, 1, 75, 0
1, 46920, Note_on_c, 1, 66, 127
1, 46920, Note_on_c, 1, 69, 127
1, 46920, Note_on_c, 1, 50, 127
1, 46920, Note_on_c, 1, 74, 127
1, 46920, Note_on_c, 1, 38, 127
1, 46949, Note_off_c, 1, 74, 0
1, 46950, Note_off_c, 1, 66, 0
1, 46950, Note_on_c, 1, 72, 127
1, 46979, Note_off_c, 1, 69, 0
1, 46979, Note_off_c, 1, 50, 0
1, 46979, Note_off_c, 1, 38, 0
1, 46979, Note_off_c, 1, 72, 0
1, 46980, Note_on_c, 1, 74, 127
1, 46980, Note_on_c, 1, 62, 127
1, 46980, Note_on_c, 1, 54, 127
1, 46980, Note_on_c, 1, 70, 127
1, 46980, Note_on_c, 1, 42, 127
1, 47009, Note_off_c, 1, 70, 0
1, 47010, Note_off_c, 1, 74, 0
1, 47010, Note_on_c, 1, 69, 127
1, 47039, Note_off_c, 1, 62, 0
1, 47039, Note_off_c, 1, 54, 0
1, 47039, Note_off_c, 1, 42, 0
1, 47039, Note_off_c, 1, 69, 0
1, 47040, Note_on_c, 1, 67, 127
1, 47040, Note_on_c, 1, 71, 127
1, 47040, Note_on_c, 1, 62, 127
1, 47040, Note_on_c, 1, 55, 127
1, 47040, Note_on_c, 1, 43, 127
1, 47099, Note_off_c, 1, 55, 0
1, 47099, Note_off_c, 1, 43, 0
1, 47100, Note_off_c, 1, 62, 0
1, 47100, Note_on_c, 1, 74, 127
1, 47100, Note_on_c, 1, 65, 127
1, 47100, Note_on_c, 1, 50, 127
1, 47100, Note_on_c, 1, 53, 127
1, 47129, Note_off_c, 1, 53, 0
1, 47130, Note_on_c, 1, 51, 127
1, 47159, Note_off_c, 1, 67, 0
1, 47159, Note_off_c, 1, 50, 0
1, 47159, Note_off_c, 1, 51, 0
1, 47160, Note_off_c, 1, 71, 0
1, 47160, Note_off_c, 1, 65, 0
1, 47160, Note_on_c, 1, 77, 127
1, 47160, Note_on_c, 1, 68, 127
1, 47160, Note_on_c, 1, 47, 127
1, 47190, Note_on_c, 1, 59, 127
1, 47219, Note_off_c, 1, 47, 0
1, 47219, Note_off_c, 1, 59, 0
1, 47220, Note_off_c, 1, 74, 0
1, 47220, Note_off_c, 1, 77, 0
1, 47220, Note_off_c, 1, 68, 0
1, 47220, Note_on_c, 1, 75, 127
1, 47220, Note_on_c, 1, 72, 127
1, 47220, Note_on_c, 1, 48, 127
1, 47250, Note_on_c, 1, 60, 127
1, 47279, Note_off_c, 1, 48, 0
1, 47279, Note_off_c, 1, 60, 0
1, 47280, Note_off_c, 1, 75, 0
1, 47280, Note_off_c, 1, 72, 0
1, 47550, Note_on_c, 1, 69, 127
1, 47550, Note_on_c, 1, 63, 127
1, 47580, Note_off_c, 1, 69, 0
1, 47580, Note_off_c, 1, 63, 0
1, 47670, Note_on_c, 1, 79, 127
1, 47700, Note_off_c, 1, 79, 0
1, 47700, Note_on_c, 1, 80, 127
1, 47760, Note_off_c, 1, 80, 0
1, 47850, Note_on_c, 1, 57, 127
1, 47879, Note_off_c, 1, 57, 0
1, 48780, Note_on_c, 1, 74, 127
1, 48780, Note_on_c, 1, 65, 127
1, 48780, Note_on_c, 1, 50, 127
1, 48780, Note_on_c, 1, 71, 127
1, 48809, Note_off_c, 1, 71, 0
1, 48810, Note_off_c, 1, 74, 0
1, 48810, Note_off_c, 1, 65, 0
1, 48810, Note_on_c, 1, 72, 127
1, 48810, Note_on_c, 1, 68, 127
1, 48839, Note_off_c, 1, 50, 0
1, 48839, Note_off_c, 1, 72, 0
1, 48839, Note_off_c, 1, 68, 0
1, 48840, Note_on_c, 1, 71, 127
1, 48840, Note_on_c, 1, 62, 127
1, 48840, Note_on_c, 1, 43, 127
1, 48840, Note_on_c, 1, 74, 127
1, 48840, Note_on_c, 1, 67, 127
1, 48869, Note_off_c, 1, 74, 0
1, 48869, Note_off_c, 1, 67, 0
1, 48870, Note_off_c, 1, 71, 0
1, 48870, Note_off_c, 1, 62, 0
1, 48870, Note_on_c, 1, 68, 127
1, 48870, Note_on_c, 1, 65, 127
1, 48899, Note_off_c, 1, 43, 0
1, 48899, Note_off_c, 1, 68, 0
1, 48899, Note_off_c, 1, 65, 0
1, 48900, Note_on_c, 1, 74, 127
1, 48900, Note_on_c, 1, 55, 127
1, 48900, Note_on_c, 1, 47, 127
1, 48900, Note_on_c, 1, 67, 127
1, 48900, Note_on_c, 1, 63, 127
1, 48929, Note_off_c, 1, 67, 0
1, 48929, Note_off_c, 1, 63, 0
1, 48930, Note_off_c, 1, 74, 0
1, 48930, Note_off_c, 1, 55, 0
1, 48930, Note_on_c, 1, 65, 127
1, 48930, Note_on_c, 1, 62, 127
1, 48959, Note_off_c, 1, 47, 0
1, 48959, Note_off_c, 1, 65, 0
1, 48959, Note_off_c, 1, 62, 0
1, 48960, Note_on_c, 1, 67, 127
1, 48960, Note_on_c, 1, 72, 127
1, 48960, Note_on_c, 1, 55, 127
1, 48960, Note_on_c, 1, 36, 127
1, 48960, Note_on_c, 1, 63, 127
1, 48960, Note_on_c, 1, 51, 127
1, 48960, Note_on_c, 1, 48, 127
1, 49019, Note_off_c, 1, 63, 0
1, 49020, Note_on_c, 1, 60, 127
1, 49079, Note_off_c, 1, 55, 0
1, 49079, Note_off_c, 1, 36, 0
1, 49079, Note_off_c, 1, 51, 0
1, 49079, Note_off_c, 1, 48, 0
1, 49079, Note_off_c, 1, 60, 0
1, 49080, Note_on_c, 1, 75, 127
1, 49140, Note_off_c, 1, 67, 0
1, 49140, Note_off_c, 1, 72, 0
1, 49140, Note_off_c, 1, 75, 0
1, 49140, Note_on_c, 1, 74, 127
1, 49140, Note_on_c, 1, 65, 127
1, 49140, Note_on_c, 1, 71, 127
1, 49200, Note_off_c, 1, 74, 0
1, 49200, Note_off_c, 1, 65, 0
1, 49200, Note_off_c, 1, 71, 0
1, 49200, Note_on_c, 1, 80, 127
1, 49219, Note_off_c, 1, 80, 0
1, 49220, Note_on_c, 1, 79, 127
1, 49230, Note_on_c, 1, 62, 127
1, 49239, Note_off_c, 1, 79, 0
1, 49259, Note_off_c, 1, 62, 0
1, 49560, Note_on_c, 1, 77, 127
1, 49560, Note_on_c, 1, 68, 127
1, 49560, Note_on_c, 1, 56, 127
1, 49590, Note_off_c, 1, 77, 0
1, 49590, Note_off_c, 1, 68, 0
1, 49590, Note_on_c, 1, 70, 127
1, 49619, Note_off_c, 1, 56, 0
1, 49620, Note_off_c, 1, 70, 0
1, 49620, Note_on_c, 1, 53, 127
1, 49679, Note_off_c, 1, 53, 0
1, 49680, Note_on_c, 1, 46, 127
1, 49680, Note_on_c, 1, 58, 127
1, 49739, Note_off_c, 1, 46, 0
1, 49739, Note_off_c, 1, 58, 0
1, 49860, Note_on_c, 1, 74, 127
1, 49860, Note_on_c, 1, 65, 127
1, 49889, Note_off_c, 1, 65, 0
1, 49890, Note_on_c, 1, 62, 127
1, 49919, Note_off_c, 1, 74, 0
1, 49919, Note_off_c, 1, 62, 0
1, 49920, Note_on_c, 1, 65, 127
1, 49920, Note_on_c, 1, 58, 127
1, 49920, Note_on_c, 1, 62, 127
1, 49920, Note_on_c, 1, 46, 127
1, 49920, Note_on_c, 1, 53, 127
1, 49920, Note_on_c, 1, 50, 127
1, 49920, Note_on_c, 1, 70, 127
1, 49979, Note_off_c, 1, 70, 0
1, 50039, Note_off_c, 1, 58, 0
1, 50039, Note_off_c, 1, 46, 0
1, 50039, Note_off_c, 1, 53, 0
1, 50039, Note_off_c, 1, 50, 0
1, 50040, Note_off_c, 1, 62, 0
1, 50040, Note_on_c, 1, 74, 127
1, 50100, Note_off_c, 1, 65, 0
1, 50100, Note_off_c, 1, 74, 0
1, 50100, Note_on_c, 1, 72, 127
1, 50100, Note_on_c, 1, 63, 127
1, 50100, Note_on_c, 1, 69, 127
1, 50160, Note_off_c, 1, 72, 0
1, 50160, Note_off_c, 1, 63, 0
1, 50160, Note_off_c, 1, 69, 0
1, 50160, Note_on_c, 1, 77, 127
1, 50179, Note_off_c, 1, 77, 0
1, 50180, Note_on_c, 1, 79, 127
1, 50190, Note_on_c, 1, 60, 127
1, 50199, Note_off_c, 1, 79, 0
1, 50219, Note_off_c, 1, 60, 0
1, 50520, Note_on_c, 1, 75, 127
1, 50520, Note_on_c, 1, 67, 127
1, 50520, Note_on_c, 1, 55, 127
1, 50550, Note_off_c, 1, 75, 0
1, 50550, Note_off_c, 1, 67, 0
1, 50550, Note_on_c, 1, 68, 127
1, 50579, Note_off_c, 1, 55, 0
1, 50580, Note_off_c, 1, 68, 0
1, 50580, Note_on_c, 1, 51, 127
1, 50639, Note_off_c, 1, 51, 0
1, 50640, Note_on_c, 1, 44, 127
1, 50640, Note_on_c, 1, 56, 127
1, 50669, Note_off_c, 1, 56, 0
1, 50670, Note_on_c, 1, 71, 127
1, 50699, Note_off_c, 1, 44, 0
1, 50699, Note_off_c, 1, 71, 0
1, 50820, Note_on_c, 1, 72, 127
1, 50820, Note_on_c, 1, 63, 127
1, 50849, Note_off_c, 1, 63, 0
1, 50850, Note_on_c, 1, 60, 127
1, 50879, Note_off_c, 1, 72, 0
1, 50879, Note_off_c, 1, 60, 0
1, 50880, Note_on_c, 1, 84, 127
1, 50880, Note_on_c, 1, 65, 127
1, 50880, Note_on_c, 1, 56, 127
1, 50910, Note_off_c, 1, 84, 0
1, 50910, Note_on_c, 1, 82, 127
1, 50910, Note_on_c, 1, 55, 127
1, 50939, Note_off_c, 1, 56, 0
1, 50939, Note_off_c, 1, 55, 0
1, 50940, Note_off_c, 1, 82, 0
1, 50940, Note_on_c, 1, 80, 127
1, 50940, Note_on_c, 1, 60, 127
1, 50940, Note_on_c, 1, 53, 127
1, 50969, Note_off_c, 1, 60, 0
1, 50969, Note_off_c, 1, 53, 0
1, 50970, Note_off_c, 1, 80, 0
1, 50970, Note_on_c, 1, 79, 127
1, 50970, Note_on_c, 1, 58, 127
1, 50999, Note_off_c, 1, 58, 0
1, 51000, Note_off_c, 1, 65, 0
1, 51000, Note_off_c, 1, 79, 0
1, 51000, Note_on_c, 1, 77, 127
1, 51000, Note_on_c, 1, 72, 127
1, 51030, Note_off_c, 1, 72, 0
1, 51030, Note_on_c, 1, 70, 127
1, 51060, Note_off_c, 1, 70, 0
1, 51060, Note_on_c, 1, 68, 127
1, 51090, Note_off_c, 1, 68, 0
1, 51090, Note_on_c, 1, 67, 127
1, 51120, Note_off_c, 1, 67, 0
1, 51270, Note_off_c, 1, 77, 0
1, 51330, Note_on_c, 1, 52, 127
1, 51359, Note_off_c, 1, 52, 0
1, 51360, Note_on_c, 1, 61, 127
1, 51390, Note_on_c, 1, 51, 127
1, 51419, Note_off_c, 1, 51, 0
1, 51420, Note_on_c, 1, 49, 127
1, 51449, Note_off_c, 1, 49, 0
1, 51450, Note_on_c, 1, 75, 127
1, 51480, Note_off_c, 1, 61, 0
1, 51480, Note_off_c, 1, 75, 0
1, 51480, Note_on_c, 1, 73, 127
1, 51570, Note_on_c, 1, 63, 127
1, 51600, Note_off_c, 1, 63, 0
1, 51750, Note_off_c, 1, 73, 0
1, 51810, Note_on_c, 1, 48, 127
1, 51839, Note_off_c, 1, 48, 0
1, 51900, Note_on_c, 1, 62, 127
1, 51900, Note_on_c, 1, 47, 127
1, 51929, Note_off_c, 1, 47, 0
1, 51930, Note_off_c, 1, 62, 0
1, 51960, Note_on_c, 1, 50, 127
1, 51960, Note_on_c, 1, 44, 127
1, 51989, Note_off_c, 1, 50, 0
1, 52019, Note_off_c, 1, 44, 0
1, 52020, Note_on_c, 1, 74, 127
1, 52020, Note_on_c, 1, 59, 127
1, 52050, Note_off_c, 1, 74, 0
1, 52050, Note_off_c, 1, 59, 0
1, 52080, Note_on_c, 1, 71, 127
1, 52140, Note_off_c, 1, 71, 0
1, 52500, Note_on_c, 1, 43, 127
1, 52559, Note_off_c, 1, 43, 0
1, 52560, Note_on_c, 1, 36, 127
1, 52799, Note_off_c, 1, 36, 0
1, 52860, Note_on_c, 1, 70, 127
1, 52860, Note_on_c, 1, 51, 127
1, 52860, Note_on_c, 1, 39, 127
1, 52860, Note_on_c, 1, 27, 127
1, 52890, Note_off_c, 1, 51, 0
1, 52890, Note_on_c, 1, 50, 127
1, 52920, Note_off_c, 1, 50, 0
1, 52920, Note_on_c, 1, 75, 127
1, 52920, Note_on_c, 1, 67, 127
1, 52950, Note_on_c, 1, 46, 127
1, 52979, Note_off_c, 1, 75, 0
1, 52979, Note_off_c, 1, 67, 0
1, 52980, Note_off_c, 1, 39, 0
1, 52980, Note_off_c, 1, 27, 0
1, 52980, Note_off_c, 1, 46, 0
1, 52980, Note_on_c, 1, 53, 127
1, 52980, Note_on_c, 1, 74, 127
1, 52980, Note_on_c, 1, 68, 127
1, 52980, Note_on_c, 1, 65, 127
1, 52980, Note_on_c, 1, 41, 127
1, 52980, Note_on_c, 1, 29, 127
1, 53010, Note_off_c, 1, 53, 0
1, 53039, Note_off_c, 1, 74, 0
1, 53039, Note_off_c, 1, 68, 0
1, 53039, Note_off_c, 1, 65, 0
1, 53040, Note_off_c, 1, 41, 0
1, 53040, Note_off_c, 1, 29, 0
1, 53040, Note_on_c, 1, 55, 127
1, 53040, Note_on_c, 1, 43, 127
1, 53040, Note_on_c, 1, 31, 127
1, 53070, Note_off_c, 1, 70, 0
1, 53070, Note_on_c, 1, 72, 127
1, 53100, Note_off_c, 1, 55, 0
1, 53100, Note_off_c, 1, 72, 0
1, 53100, Note_on_c, 1, 63, 127
1, 53159, Note_off_c, 1, 63, 0
1, 53160, Note_off_c, 1, 43, 0
1, 53160, Note_off_c, 1, 31, 0
1, 53160, Note_on_c, 1, 44, 127
1, 53160, Note_on_c, 1, 32, 127
1, 53220, Note_off_c, 1, 44, 0
1, 53220, Note_off_c, 1, 32, 0
1, 53220, Note_on_c, 1, 62, 127
1, 53220, Note_on_c, 1, 34, 127
1, 53280, Note_on_c, 1, 58, 127
1, 53340, Note_off_c, 1, 34, 0
1, 53340, Note_on_c, 1, 56, 127
1, 53370, Note_off_c, 1, 56, 0
1, 53400, Note_off_c, 1, 58, 0
1, 53430, Note_off_c, 1, 62, 0
1, 53430, Note_on_c, 1, 60, 127
1, 53460, Note_off_c, 1, 60, 0
1, 53700, Note_on_c, 1, 77, 127
1, 53760, Note_on_c, 1, 38, 127
1, 53790, Note_off_c, 1, 77, 0
1, 53820, Note_off_c, 1, 38, 0
1, 54060, Note_on_c, 1, 79, 127
1, 54120, Note_on_c, 1, 48, 127
1, 54120, Note_on_c, 1, 36, 127
1, 54150, Note_off_c, 1, 79, 0
1, 54150, Note_on_c, 1, 82, 127
1, 54180, Note_off_c, 1, 48, 0
1, 54180, Note_off_c, 1, 36, 0
1, 54180, Note_off_c, 1, 82, 0
1, 54180, Note_on_c, 1, 81, 127
1, 54210, Note_off_c, 1, 81, 0
1, 54240, Note_on_c, 1, 69, 127
1, 54299, Note_off_c, 1, 69, 0
1, 54330, Note_on_c, 1, 57, 127
1, 54360, Note_off_c, 1, 57, 0
1, 55140, Note_on_c, 1, 84, 127
1, 55200, Note_on_c, 1, 45, 127
1, 55200, Note_on_c, 1, 33, 127
1, 55230, Note_off_c, 1, 84, 0
1, 55260, Note_off_c, 1, 45, 0
1, 55260, Note_off_c, 1, 33, 0
1, 55470, Note_on_c, 1, 80, 127
1, 55500, Note_off_c, 1, 80, 0
1, 55560, Note_on_c, 1, 64, 127
1, 55590, Note_on_c, 1, 85, 127
1, 55620, Note_off_c, 1, 85, 0
1, 55620, Note_on_c, 1, 52, 127
1, 55620, Note_on_c, 1, 40, 127
1, 55680, Note_off_c, 1, 64, 0
1, 55680, Note_off_c, 1, 52, 0
1, 55680, Note_off_c, 1, 40, 0
1, 55680, Note_on_c, 1, 76, 127
1, 55740, Note_off_c, 1, 76, 0
1, 55980, Note_on_c, 1, 59, 127
1, 55980, Note_on_c, 1, 47, 127
1, 55980, Note_on_c, 1, 35, 127
1, 56040, Note_off_c, 1, 59, 0
1, 56040, Note_off_c, 1, 47, 0
1, 56040, Note_off_c, 1, 35, 0
1, 56040, Note_on_c, 1, 71, 127
1, 56100, Note_off_c, 1, 71, 0
1, 57000, Note_on_c, 1, 86, 127
1, 57060, Note_off_c, 1, 86, 0
1, 57420, Note_on_c, 1, 83, 127
1, 57450, Note_off_c, 1, 83, 0
1, 58200, Note_on_c, 1, 74, 127
1, 58200, Note_on_c, 1, 51, 127
1, 58200, Note_on_c, 1, 59, 127
1, 58200, Note_on_c, 1, 79, 127
1, 58200, Note_on_c, 1, 60, 127
1, 58200, Note_on_c, 1, 55, 127
1, 58200, Note_on_c, 1, 39, 127
1, 58229, Note_off_c, 1, 74, 0
1, 58229, Note_off_c, 1, 59, 0
1, 58230, Note_on_c, 1, 75, 127
1, 58259, Note_off_c, 1, 51, 0
1, 58259, Note_off_c, 1, 79, 0
1, 58259, Note_off_c, 1, 60, 0
1, 58259, Note_off_c, 1, 55, 0
1, 58259, Note_off_c, 1, 39, 0
1, 58259, Note_off_c, 1, 75, 0
1, 58260, Note_on_c, 1, 77, 127
1, 58260, Note_on_c, 1, 50, 127
1, 58260, Note_on_c, 1, 62, 127
1, 58260, Note_on_c, 1, 38, 127
1, 58289, Note_off_c, 1, 77, 0
1, 58290, Note_on_c, 1, 80, 127
1, 58319, Note_off_c, 1, 62, 0
1, 58319, Note_off_c, 1, 80, 0
1, 58320, Note_on_c, 1, 79, 127
1, 58320, Note_on_c, 1, 65, 127
1, 58349, Note_off_c, 1, 79, 0
1, 58379, Note_off_c, 1, 50, 0
1, 58379, Note_off_c, 1, 38, 0
1, 58379, Note_off_c, 1, 65, 0
1, 58380, Note_on_c, 1, 86, 127
1, 58380, Note_on_c, 1, 60, 127
1, 58380, Note_on_c, 1, 65, 127
1, 58380, Note_on_c, 1, 77, 127
1, 58380, Note_on_c, 1, 68, 127
1, 58380, Note_on_c, 1, 62, 127
1, 58380, Note_on_c, 1, 48, 127
1, 58380, Note_on_c, 1, 36, 127
1, 58439, Note_off_c, 1, 60, 0
1, 58439, Note_off_c, 1, 65, 0
1, 58439, Note_off_c, 1, 77, 0
1, 58439, Note_off_c, 1, 68, 0
1, 58439, Note_off_c, 1, 62, 0
1, 58439, Note_off_c, 1, 48, 0
1, 58439, Note_off_c, 1, 36, 0
1, 58440, Note_on_c, 1, 59, 127
1, 58440, Note_on_c, 1, 47, 127
1, 58440, Note_on_c, 1, 35, 127
1, 58469, Note_off_c, 1, 86, 0
1, 58470, Note_on_c, 1, 84, 127
1, 58499, Note_off_c, 1, 59, 0
1, 58499, Note_off_c, 1, 47, 0
1, 58499, Note_off_c, 1, 35, 0
1, 58499, Note_off_c, 1, 84, 0
1, 58500, Note_on_c, 1, 83, 127
1, 58500, Note_on_c, 1, 55, 127
1, 58500, Note_on_c, 1, 75, 127
1, 58500, Note_on_c, 1, 43, 127
1, 58500, Note_on_c, 1, 74, 127
1, 58500, Note_on_c, 1, 67, 127
1, 58500, Note_on_c, 1, 62, 127
1, 58500, Note_on_c, 1, 31, 127
1, 58529, Note_off_c, 1, 83, 0
1, 58529, Note_off_c, 1, 75, 0
1, 58530, Note_on_c, 1, 81, 127
1, 58530, Note_on_c, 1, 45, 127
1, 58559, Note_off_c, 1, 55, 0
1, 58559, Note_off_c, 1, 43, 0
1, 58559, Note_off_c, 1, 67, 0
1, 58559, Note_off_c, 1, 62, 0
1, 58559, Note_off_c, 1, 31, 0
1, 58559, Note_off_c, 1, 81, 0
1, 58559, Note_off_c, 1, 45, 0
1, 58560, Note_on_c, 1, 79, 127
1, 58560, Note_on_c, 1, 59, 127
1, 58560, Note_on_c, 1, 47, 127
1, 58560, Note_on_c, 1, 35, 127
1, 58590, Note_on_c, 1, 77, 127
1, 58619, Note_off_c, 1, 79, 0
1, 58619, Note_off_c, 1, 59, 0
1, 58619, Note_off_c, 1, 47, 0
1, 58619, Note_off_c, 1, 35, 0
1, 58619, Note_off_c, 1, 77, 0
1, 58620, Note_on_c, 1, 60, 127
1, 58620, Note_on_c, 1, 48, 127
1, 58620, Note_on_c, 1, 36, 127
1, 58649, Note_off_c, 1, 74, 0
1, 58679, Note_off_c, 1, 60, 0
1, 58710, Note_on_c, 1, 72, 127
1, 58739, Note_off_c, 1, 48, 0
1, 58739, Note_off_c, 1, 36, 0
1, 58739, Note_off_c, 1, 72, 0
1, 58740, Note_on_c, 1, 46, 127
1, 58740, Note_on_c, 1, 58, 127
1, 58740, Note_on_c, 1, 34, 127
1, 58799, Note_off_c, 1, 46, 0
1, 58799, Note_off_c, 1, 58, 0
1, 58799, Note_off_c, 1, 34, 0
1, 58800, Note_on_c, 1, 44, 127
1, 58800, Note_on_c, 1, 56, 127
1, 58800, Note_on_c, 1, 32, 127
1, 58859, Note_off_c, 1, 56, 0
1, 58919, Note_off_c, 1, 44, 0
1, 58919, Note_off_c, 1, 32, 0
1, 58920, Note_on_c, 1, 70, 127
1, 58979, Note_off_c, 1, 70, 0
1, 58980, Note_on_c, 1, 53, 127
1, 58980, Note_on_c, 1, 41, 127
1, 58980, Note_on_c, 1, 29, 127
1, 59039, Note_off_c, 1, 53, 0
1, 59040, Note_on_c, 1, 80, 127
1, 59040, Note_on_c, 1, 68, 127
1, 59070, Note_on_c, 1, 71, 127
1, 59099, Note_off_c, 1, 41, 0
1, 59099, Note_off_c, 1, 29, 0
1, 59099, Note_off_c, 1, 80, 0
1, 59099, Note_off_c, 1, 68, 0
1, 59099, Note_off_c, 1, 71, 0
1, 59100, Note_on_c, 1, 65, 127
1, 59159, Note_off_c, 1, 65, 0
1, 59220, Note_on_c, 1, 63, 127
1, 59279, Note_off_c, 1, 63, 0
1, 59460, Note_on_c, 1, 79, 127
1, 59460, Note_on_c, 1, 56, 127
1, 59460, Note_on_c, 1, 75, 127
1, 59460, Note_on_c, 1, 44, 127
1, 59460, Note_on_c, 1, 72, 127
1, 59460, Note_on_c, 1, 60, 127
1, 59460, Note_on_c, 1, 65, 127
1, 59489, Note_off_c, 1, 79, 0
1, 59489, Note_off_c, 1, 75, 0
1, 59490, Note_on_c, 1, 80, 127
1, 59490, Note_on_c, 1, 77, 127
1, 59519, Note_off_c, 1, 56, 0
1, 59519, Note_off_c, 1, 44, 0
1, 59519, Note_off_c, 1, 72, 0
1, 59519, Note_off_c, 1, 60, 0
1, 59519, Note_off_c, 1, 65, 0
1, 59519, Note_off_c, 1, 80, 0
1, 59519, Note_off_c, 1, 77, 0
1, 59520, Note_on_c, 1, 72, 127
1, 59520, Note_on_c, 1, 55, 127
1, 59520, Note_on_c, 1, 79, 127
1, 59520, Note_on_c, 1, 43, 127
1, 59549, Note_off_c, 1, 79, 0
1, 59550, Note_on_c, 1, 80, 127
1, 59579, Note_off_c, 1, 80, 0
1, 59580, Note_on_c, 1, 75, 127
1, 59580, Note_on_c, 1, 67, 127
1, 59610, Note_on_c, 1, 77, 127
1, 59639, Note_off_c, 1, 55, 0
1, 59639, Note_off_c, 1, 43, 0
1, 59639, Note_off_c, 1, 75, 0
1, 59639, Note_off_c, 1, 67, 0
1, 59639, Note_off_c, 1, 77, 0
1, 59640, Note_on_c, 1, 41, 127
1, 59640, Note_on_c, 1, 53, 127
1, 59640, Note_on_c, 1, 74, 127
1, 59640, Note_on_c, 1, 62, 127
1, 59640, Note_on_c, 1, 68, 127
1, 59699, Note_off_c, 1, 41, 0
1, 59699, Note_off_c, 1, 53, 0
1, 59699, Note_off_c, 1, 74, 0
1, 59699, Note_off_c, 1, 62, 0
1, 59699, Note_off_c, 1, 68, 0
1, 59729, Note_off_c, 1, 72, 0
1, 59790, Note_on_c, 1, 71, 127
1, 59819, Note_off_c, 1, 71, 0
1, 59880, Note_on_c, 1, 71, 127
1, 59880, Note_on_c, 1, 55, 127
1, 59880, Note_on_c, 1, 74, 127
1, 59880, Note_on_c, 1, 43, 127
1, 59940, Note_on_c, 1, 79, 127
1, 59940, Note_on_c, 1, 62, 127
1, 59999, Note_off_c, 1, 71, 0
1, 59999, Note_off_c, 1, 55, 0
1, 59999, Note_off_c, 1, 74, 0
1, 59999, Note_off_c, 1, 43, 0
1, 59999, Note_off_c, 1, 79, 0
1, 59999, Note_off_c, 1, 62, 0
1, 60000, Note_on_c, 1, 72, 127
1, 60000, Note_on_c, 1, 55, 127
1, 60000, Note_on_c, 1, 43, 127
1, 60000, Note_on_c, 1, 77, 127
1, 60000, Note_on_c, 1, 74, 127
1, 60000, Note_on_c, 1, 67, 127
1, 60000, Note_on_c, 1, 31, 127
1, 60059, Note_off_c, 1, 72, 0
1, 60059, Note_off_c, 1, 55, 0
1, 60059, Note_off_c, 1, 43, 0
1, 60059, Note_off_c, 1, 77, 0
1, 60059, Note_off_c, 1, 74, 0
1, 60059, Note_off_c, 1, 67, 0
1, 60059, Note_off_c, 1, 31, 0
1, 60060, Note_on_c, 1, 72, 127
1, 60060, Note_on_c, 1, 48, 127
1, 60060, Note_on_c, 1, 36, 127
1, 60090, Note_on_c, 1, 67, 127
1, 60119, Note_off_c, 1, 67, 0
1, 60120, Note_on_c, 1, 60, 127
1, 60120, Note_on_c, 1, 69, 127
1, 60120, Note_on_c, 1, 75, 127
1, 60149, Note_off_c, 1, 69, 0
1, 60150, Note_on_c, 1, 71, 127
1, 60179, Note_off_c, 1, 48, 0
1, 60179, Note_off_c, 1, 36, 0
1, 60179, Note_off_c, 1, 75, 0
1, 60179, Note_off_c, 1, 71, 0
1, 60180, Note_on_c, 1, 58, 127
1, 60180, Note_on_c, 1, 79, 127
1, 60180, Note_on_c, 1, 63, 127
1, 60180, Note_on_c, 1, 46, 127
1, 60180, Note_on_c, 1, 34, 127
1, 60210, Note_on_c, 1, 74, 127
1, 60239, Note_off_c, 1, 72, 0
1, 60239, Note_off_c, 1, 58, 0
1, 60239, Note_off_c, 1, 79, 0
1, 60239, Note_off_c, 1, 63, 0
1, 60239, Note_off_c, 1, 46, 0
1, 60239, Note_off_c, 1, 34, 0
1, 60239, Note_off_c, 1, 74, 0
1, 60240, Note_on_c, 1, 57, 127
1, 60240, Note_on_c, 1, 45, 127
1, 60240, Note_on_c, 1, 33, 127
1, 60269, Note_off_c, 1, 60, 0
1, 60270, Note_on_c, 1, 77, 127
1, 60270, Note_on_c, 1, 62, 127
1, 60299, Note_off_c, 1, 57, 0
1, 60299, Note_off_c, 1, 77, 0
1, 60299, Note_off_c, 1, 62, 0
1, 60300, Note_on_c, 1, 65, 127
1, 60359, Note_off_c, 1, 45, 0
1, 60359, Note_off_c, 1, 33, 0
1, 60359, Note_off_c, 1, 65, 0
1, 60360, Note_on_c, 1, 75, 127
1, 60360, Note_on_c, 1, 43, 127
1, 60360, Note_on_c, 1, 60, 127
1, 60360, Note_on_c, 1, 67, 127
1, 60360, Note_on_c, 1, 58, 127
1, 60360, Note_on_c, 1, 31, 127
1, 60389, Note_off_c, 1, 60, 0
1, 60390, Note_on_c, 1, 72, 127
1, 60390, Note_on_c, 1, 63, 127
1, 60419, Note_off_c, 1, 43, 0
1, 60419, Note_off_c, 1, 67, 0
1, 60419, Note_off_c, 1, 58, 0
1, 60419, Note_off_c, 1, 31, 0
1, 60419, Note_off_c, 1, 72, 0
1, 60419, Note_off_c, 1, 63, 0
1, 60420, Note_on_c, 1, 41, 127
1, 60420, Note_on_c, 1, 69, 127
1, 60420, Note_on_c, 1, 65, 127
1, 60420, Note_on_c, 1, 29, 127
1, 60449, Note_off_c, 1, 75, 0
1, 60479, Note_off_c, 1, 69, 0
1, 60479, Note_off_c, 1, 65, 0
1, 60480, Note_on_c, 1, 77, 127
1, 60480, Note_on_c, 1, 57, 127
1, 60480, Note_on_c, 1, 53, 127
1, 60509, Note_off_c, 1, 77, 0
1, 60510, Note_on_c, 1, 79, 127
1, 60539, Note_off_c, 1, 41, 0
1, 60539, Note_off_c, 1, 29, 0
1, 60539, Note_off_c, 1, 53, 0
1, 60539, Note_off_c, 1, 79, 0
1, 60540, Note_on_c, 1, 81, 127
1, 60540, Note_on_c, 1, 51, 127
1, 60540, Note_on_c, 1, 39, 127
1, 60569, Note_off_c, 1, 81, 0
1, 60570, Note_on_c, 1, 82, 127
1, 60599, Note_off_c, 1, 51, 0
1, 60599, Note_off_c, 1, 39, 0
1, 60599, Note_off_c, 1, 82, 0
1, 60600, Note_on_c, 1, 84, 127
1, 60600, Note_on_c, 1, 50, 127
1, 60600, Note_on_c, 1, 38, 127
1, 60629, Note_off_c, 1, 57, 0
1, 60629, Note_off_c, 1, 84, 0
1, 60630, Note_on_c, 1, 86, 127
1, 60659, Note_off_c, 1, 86, 0
1, 60660, Note_on_c, 1, 62, 127
1, 60690, Note_on_c, 1, 55, 127
1, 60719, Note_off_c, 1, 50, 0
1, 60719, Note_off_c, 1, 38, 0
1, 60719, Note_off_c, 1, 62, 0
1, 60719, Note_off_c, 1, 55, 0
1, 60720, Note_on_c, 1, 48, 127
1, 60720, Note_on_c, 1, 36, 127
1, 60779, Note_off_c, 1, 48, 0
1, 60779, Note_off_c, 1, 36, 0
1, 60780, Note_on_c, 1, 46, 127
1, 60780, Note_on_c, 1, 34, 127
1, 60840, Note_on_c, 1, 70, 127
1, 60840, Note_on_c, 1, 74, 127
1, 60899, Note_off_c, 1, 46, 0
1, 60899, Note_off_c, 1, 34, 0
1, 60899, Note_off_c, 1, 70, 0
1, 60899, Note_off_c, 1, 74, 0
1, 60900, Note_on_c, 1, 56, 127
1, 60900, Note_on_c, 1, 44, 127
1, 60900, Note_on_c, 1, 32, 127
1, 60959, Note_off_c, 1, 56, 0
1, 60959, Note_off_c, 1, 44, 0
1, 60959, Note_off_c, 1, 32, 0
1, 61080, Note_on_c, 1, 80, 127
1, 61080, Note_on_c, 1, 68, 127
1, 61139, Note_off_c, 1, 80, 0
1, 61139, Note_off_c, 1, 68, 0
1, 61140, Note_on_c, 1, 27, 127
1, 61259, Note_off_c, 1, 27, 0
1, 61500, Note_on_c, 1, 45, 127
1, 61500, Note_on_c, 1, 33, 127
1, 61559, Note_off_c, 1, 45, 0
1, 61559, Note_off_c, 1, 33, 0
1, 61560, Note_on_c, 1, 75, 127
1, 61560, Note_on_c, 1, 48, 127
1, 61560, Note_on_c, 1, 69, 127
1, 61560, Note_on_c, 1, 60, 127
1, 61560, Note_on_c, 1, 65, 127
1, 61560, Note_on_c, 1, 36, 127
1, 61589, Note_off_c, 1, 75, 0
1, 61590, Note_on_c, 1, 74, 127
1, 61590, Note_on_c, 1, 58, 127
1, 61619, Note_off_c, 1, 48, 0
1, 61619, Note_off_c, 1, 69, 0
1, 61619, Note_off_c, 1, 60, 0
1, 61619, Note_off_c, 1, 65, 0
1, 61619, Note_off_c, 1, 36, 0
1, 61619, Note_off_c, 1, 74, 0
1, 61619, Note_off_c, 1, 58, 0
1, 61620, Note_on_c, 1, 75, 127
1, 61620, Note_on_c, 1, 45, 127
1, 61620, Note_on_c, 1, 72, 127
1, 61620, Note_on_c, 1, 60, 127
1, 61620, Note_on_c, 1, 77, 127
1, 61620, Note_on_c, 1, 69, 127
1, 61620, Note_on_c, 1, 65, 127
1, 61620, Note_on_c, 1, 33, 127
1, 61649, Note_off_c, 1, 75, 0
1, 61649, Note_off_c, 1, 60, 0
1, 61650, Note_on_c, 1, 57, 127
1, 61679, Note_off_c, 1, 45, 0
1, 61679, Note_off_c, 1, 72, 0
1, 61679, Note_off_c, 1, 77, 0
1, 61679, Note_off_c, 1, 69, 0
1, 61679, Note_off_c, 1, 65, 0
1, 61679, Note_off_c, 1, 33, 0
1, 61679, Note_off_c, 1, 57, 0
1, 61680, Note_on_c, 1, 69, 127
1, 61680, Note_on_c, 1, 41, 127
1, 61680, Note_on_c, 1, 77, 127
1, 61680, Note_on_c, 1, 53, 127
1, 61680, Note_on_c, 1, 29, 127
1, 61709, Note_off_c, 1, 69, 0
1, 61710, Note_on_c, 1, 72, 127
1, 61739, Note_off_c, 1, 41, 0
1, 61739, Note_off_c, 1, 77, 0
1, 61739, Note_off_c, 1, 53, 0
1, 61739, Note_off_c, 1, 29, 0
1, 61739, Note_off_c, 1, 72, 0
1, 61740, Note_on_c, 1, 70, 127
1, 61740, Note_on_c, 1, 43, 127
1, 61740, Note_on_c, 1, 75, 127
1, 61740, Note_on_c, 1, 55, 127
1, 61740, Note_on_c, 1, 58, 127
1, 61740, Note_on_c, 1, 31, 127
1, 61770, Note_on_c, 1, 69, 127
1, 61799, Note_off_c, 1, 70, 0
1, 61799, Note_off_c, 1, 43, 0
1, 61799, Note_off_c, 1, 55, 0
1, 61799, Note_off_c, 1, 58, 0
1, 61799, Note_off_c, 1, 31, 0
1, 61799, Note_off_c, 1, 69, 0
1, 61800, Note_on_c, 1, 67, 127
1, 61800, Note_on_c, 1, 45, 127
1, 61800, Note_on_c, 1, 57, 127
1, 61800, Note_on_c, 1, 72, 127
1, 61800, Note_on_c, 1, 65, 127
1, 61800, Note_on_c, 1, 33, 127
1, 61829, Note_off_c, 1, 67, 0
1, 61859, Note_off_c, 1, 45, 0
1, 61859, Note_off_c, 1, 57, 0
1, 61859, Note_off_c, 1, 72, 0
1, 61859, Note_off_c, 1, 65, 0
1, 61859, Note_off_c, 1, 33, 0
1, 61860, Note_on_c, 1, 77, 127
1, 61860, Note_on_c, 1, 46, 127
1, 61860, Note_on_c, 1, 34, 127
1, 61889, Note_off_c, 1, 75, 0
1, 61920, Note_on_c, 1, 74, 127
1, 61979, Note_off_c, 1, 46, 0
1, 61979, Note_off_c, 1, 34, 0
1, 61979, Note_off_c, 1, 74, 0
1, 61980, Note_on_c, 1, 62, 127
1, 62039, Note_off_c, 1, 62, 0
1, 62070, Note_on_c, 1, 53, 127
1, 62070, Note_on_c, 1, 76, 127
1, 62099, Note_off_c, 1, 77, 0
1, 62099, Note_off_c, 1, 53, 0
1, 62099, Note_off_c, 1, 76, 0
1, 62160, Note_on_c, 1, 48, 127
1, 62160, Note_on_c, 1, 79, 127
1, 62160, Note_on_c, 1, 64, 127
1, 62160, Note_on_c, 1, 36, 127
1, 62219, Note_off_c, 1, 48, 0
1, 62219, Note_off_c, 1, 79, 0
1, 62219, Note_off_c, 1, 64, 0
1, 62219, Note_off_c, 1, 36, 0
1, 62220, Note_on_c, 1, 69, 127
1, 62220, Note_on_c, 1, 53, 127
1, 62220, Note_on_c, 1, 77, 127
1, 62220, Note_on_c, 1, 41, 127
1, 62220, Note_on_c, 1, 29, 127
1, 62250, Note_on_c, 1, 57, 127
1, 62279, Note_off_c, 1, 69, 0
1, 62279, Note_off_c, 1, 53, 0
1, 62279, Note_off_c, 1, 57, 0
1, 62280, Note_on_c, 1, 60, 127
1, 62280, Note_on_c, 1, 72, 127
1, 62309, Note_off_c, 1, 60, 0
1, 62310, Note_on_c, 1, 65, 127
1, 62339, Note_off_c, 1, 41, 0
1, 62339, Note_off_c, 1, 29, 0
1, 62339, Note_off_c, 1, 72, 0
1, 62339, Note_off_c, 1, 65, 0
1, 62340, Note_on_c, 1, 63, 127
1, 62340, Note_on_c, 1, 39, 127
1, 62340, Note_on_c, 1, 27, 127
1, 62369, Note_off_c, 1, 63, 0
1, 62370, Note_on_c, 1, 62, 127
1, 62399, Note_off_c, 1, 39, 0
1, 62399, Note_off_c, 1, 27, 0
1, 62399, Note_off_c, 1, 62, 0
1, 62400, Note_on_c, 1, 38, 127
1, 62400, Note_on_c, 1, 26, 127
1, 62429, Note_off_c, 1, 77, 0
1, 62430, Note_on_c, 1, 79, 127
1, 62459, Note_off_c, 1, 79, 0
1, 62460, Note_on_c, 1, 50, 127
1, 62460, Note_on_c, 1, 70, 127
1, 62460, Note_on_c, 1, 58, 127
1, 62490, Note_on_c, 1, 75, 127
1, 62519, Note_off_c, 1, 38, 0
1, 62519, Note_off_c, 1, 26, 0
1, 62519, Note_off_c, 1, 50, 0
1, 62519, Note_off_c, 1, 70, 0
1, 62519, Note_off_c, 1, 58, 0
1, 62519, Note_off_c, 1, 75, 0
1, 62520, Note_on_c, 1, 77, 127
1, 62520, Note_on_c, 1, 51, 127
1, 62520, Note_on_c, 1, 67, 127
1, 62520, Note_on_c, 1, 63, 127
1, 62520, Note_on_c, 1, 58, 127
1, 62520, Note_on_c, 1, 39, 127
1, 62520, Note_on_c, 1, 27, 127
1, 62549, Note_off_c, 1, 77, 0
1, 62550, Note_on_c, 1, 79, 127
1, 62579, Note_off_c, 1, 51, 0
1, 62579, Note_off_c, 1, 67, 0
1, 62579, Note_off_c, 1, 63, 0
1, 62579, Note_off_c, 1, 58, 0
1, 62579, Note_off_c, 1, 39, 0
1, 62579, Note_off_c, 1, 27, 0
1, 62579, Note_off_c, 1, 79, 0
1, 62580, Note_on_c, 1, 69, 127
1, 62580, Note_on_c, 1, 53, 127
1, 62580, Note_on_c, 1, 41, 127
1, 62580, Note_on_c, 1, 29, 127
1, 62609, Note_off_c, 1, 53, 0
1, 62610, Note_on_c, 1, 57, 127
1, 62639, Note_off_c, 1, 57, 0
1, 62640, Note_on_c, 1, 60, 127
1, 62640, Note_on_c, 1, 63, 127
1, 62640, Note_on_c, 1, 65, 127
1, 62699, Note_off_c, 1, 41, 0
1, 62699, Note_off_c, 1, 29, 0
1, 62699, Note_off_c, 1, 60, 0
1, 62699, Note_off_c, 1, 63, 0
1, 62699, Note_off_c, 1, 65, 0
1, 62730, Note_on_c, 1, 62, 127
1, 62759, Note_off_c, 1, 62, 0
1, 62760, Note_on_c, 1, 51, 127
1, 62760, Note_on_c, 1, 39, 127
1, 62789, Note_off_c, 1, 69, 0
1, 62790, Note_on_c, 1, 67, 127
1, 62819, Note_off_c, 1, 67, 0
1, 62850, Note_on_c, 1, 70, 127
1, 62879, Note_off_c, 1, 51, 0
1, 62879, Note_off_c, 1, 39, 0
1, 62879, Note_off_c, 1, 70, 0
1, 62880, Note_on_c, 1, 72, 127
1, 62880, Note_on_c, 1, 50, 127
1, 62880, Note_on_c, 1, 70, 127
1, 62880, Note_on_c, 1, 65, 127
1, 62880, Note_on_c, 1, 38, 127
1, 62909, Note_off_c, 1, 72, 0
1, 62910, Note_on_c, 1, 74, 127
1, 62939, Note_off_c, 1, 50, 0
1, 62939, Note_off_c, 1, 70, 0
1, 62939, Note_off_c, 1, 65, 0
1, 62939, Note_off_c, 1, 38, 0
1, 62939, Note_off_c, 1, 74, 0
1, 62940, Note_on_c, 1, 75, 127
1, 62940, Note_on_c, 1, 48, 127
1, 62940, Note_on_c, 1, 36, 127
1, 62969, Note_off_c, 1, 75, 0
1, 62970, Note_on_c, 1, 79, 127
1, 62999, Note_off_c, 1, 79, 0
1, 63000, Note_on_c, 1, 77, 127
1, 63000, Note_on_c, 1, 60, 127
1, 63000, Note_on_c, 1, 69, 127
1, 63000, Note_on_c, 1, 63, 127
1, 63029, Note_off_c, 1, 77, 0
1, 63059, Note_off_c, 1, 48, 0
1, 63059, Note_off_c, 1, 36, 0
1, 63059, Note_off_c, 1, 60, 0
1, 63059, Note_off_c, 1, 69, 0
1, 63059, Note_off_c, 1, 63, 0
1, 63060, Note_on_c, 1, 84, 127
1, 63060, Note_on_c, 1, 58, 127
1, 63060, Note_on_c, 1, 67, 127
1, 63060, Note_on_c, 1, 63, 127
1, 63060, Note_on_c, 1, 46, 127
1, 63060, Note_on_c, 1, 34, 127
1, 63119, Note_off_c, 1, 58, 0
1, 63119, Note_off_c, 1, 67, 0
1, 63119, Note_off_c, 1, 63, 0
1, 63119, Note_off_c, 1, 46, 0
1, 63119, Note_off_c, 1, 34, 0
1, 63120, Note_on_c, 1, 57, 127
1, 63120, Note_on_c, 1, 45, 127
1, 63120, Note_on_c, 1, 33, 127
1, 63149, Note_off_c, 1, 84, 0
1, 63150, Note_on_c, 1, 82, 127
1, 63179, Note_off_c, 1, 57, 0
1, 63179, Note_off_c, 1, 45, 0
1, 63179, Note_off_c, 1, 33, 0
1, 63179, Note_off_c, 1, 82, 0
1, 63180, Note_on_c, 1, 81, 127
1, 63180, Note_on_c, 1, 53, 127
1, 63180, Note_on_c, 1, 65, 127
1, 63180, Note_on_c, 1, 69, 127
1, 63180, Note_on_c, 1, 41, 127
1, 63180, Note_on_c, 1, 29, 127
1, 63209, Note_off_c, 1, 81, 0
1, 63210, Note_on_c, 1, 79, 127
1, 63239, Note_off_c, 1, 53, 0
1, 63239, Note_off_c, 1, 65, 0
1, 63239, Note_off_c, 1, 69, 0
1, 63239, Note_off_c, 1, 41, 0
1, 63239, Note_off_c, 1, 29, 0
1, 63239, Note_off_c, 1, 79, 0
1, 63240, Note_on_c, 1, 77, 127
1, 63240, Note_on_c, 1, 57, 127
1, 63240, Note_on_c, 1, 63, 127
1, 63240, Note_on_c, 1, 60, 127
1, 63240, Note_on_c, 1, 72, 127
1, 63240, Note_on_c, 1, 45, 127
1, 63240, Note_on_c, 1, 33, 127
1, 63269, Note_off_c, 1, 77, 0
1, 63270, Note_on_c, 1, 75, 127
1, 63299, Note_off_c, 1, 57, 0
1, 63299, Note_off_c, 1, 63, 0
1, 63299, Note_off_c, 1, 60, 0
1, 63299, Note_off_c, 1, 72, 0
1, 63299, Note_off_c, 1, 45, 0
1, 63299, Note_off_c, 1, 33, 0
1, 63299, Note_off_c, 1, 75, 0
1, 63300, Note_on_c, 1, 74, 127
1, 63300, Note_on_c, 1, 58, 127
1, 63300, Note_on_c, 1, 46, 127
1, 63300, Note_on_c, 1, 34, 127
1, 63329, Note_off_c, 1, 74, 0
1, 63329, Note_off_c, 1, 58, 0
1, 63330, Note_on_c, 1, 72, 127
1, 63330, Note_on_c, 1, 60, 127
1, 63359, Note_off_c, 1, 46, 0
1, 63359, Note_off_c, 1, 34, 0
1, 63359, Note_off_c, 1, 72, 0
1, 63359, Note_off_c, 1, 60, 0
1, 63360, Note_on_c, 1, 70, 127
1, 63360, Note_on_c, 1, 62, 127
1, 63360, Note_on_c, 1, 65, 127
1, 63360, Note_on_c, 1, 50, 127
1, 63360, Note_on_c, 1, 38, 127
1, 63390, Note_on_c, 1, 72, 127
1, 63390, Note_on_c, 1, 64, 127
1, 63419, Note_off_c, 1, 70, 0
1, 63419, Note_off_c, 1, 62, 0
1, 63419, Note_off_c, 1, 65, 0
1, 63419, Note_off_c, 1, 50, 0
1, 63419, Note_off_c, 1, 38, 0
1, 63419, Note_off_c, 1, 72, 0
1, 63419, Note_off_c, 1, 64, 0
1, 63420, Note_on_c, 1, 73, 127
1, 63420, Note_on_c, 1, 65, 127
1, 63420, Note_on_c, 1, 58, 127
1, 63420, Note_on_c, 1, 70, 127
1, 63420, Note_on_c, 1, 53, 127
1, 63420, Note_on_c, 1, 41, 127
1, 63450, Note_on_c, 1, 67, 127
1, 63479, Note_off_c, 1, 65, 0
1, 63479, Note_off_c, 1, 58, 0
1, 63479, Note_off_c, 1, 70, 0
1, 63479, Note_off_c, 1, 53, 0
1, 63479, Note_off_c, 1, 41, 0
1, 63479, Note_off_c, 1, 67, 0
1, 63480, Note_on_c, 1, 64, 127
1, 63480, Note_on_c, 1, 52, 127
1, 63480, Note_on_c, 1, 40, 127
1, 63509, Note_off_c, 1, 73, 0
1, 63510, Note_on_c, 1, 77, 127
1, 63539, Note_off_c, 1, 64, 0
1, 63539, Note_off_c, 1, 52, 0
1, 63539, Note_off_c, 1, 40, 0
1, 63539, Note_off_c, 1, 77, 0
1, 63540, Note_on_c, 1, 76, 127
1, 63540, Note_on_c, 1, 60, 127
1, 63540, Note_on_c, 1, 70, 127
1, 63540, Note_on_c, 1, 67, 127
1, 63540, Note_on_c, 1, 64, 127
1, 63540, Note_on_c, 1, 48, 127
1, 63540, Note_on_c, 1, 36, 127
1, 63569, Note_off_c, 1, 76, 0
1, 63570, Note_on_c, 1, 79, 127
1, 63599, Note_off_c, 1, 60, 0
1, 63599, Note_off_c, 1, 70, 0
1, 63599, Note_off_c, 1, 67, 0
1, 63599, Note_off_c, 1, 64, 0
1, 63599, Note_off_c, 1, 48, 0
1, 63599, Note_off_c, 1, 36, 0
1, 63599, Note_off_c, 1, 79, 0
1, 63600, Note_on_c, 1, 72, 127
1, 63600, Note_on_c, 1, 64, 127
1, 63600, Note_on_c, 1, 67, 127
1, 63600, Note_on_c, 1, 52, 127
1, 63600, Note_on_c, 1, 40, 127
1, 63629, Note_off_c, 1, 72, 0
1, 63630, Note_on_c, 1, 70, 127
1, 63659, Note_off_c, 1, 64, 0
1, 63659, Note_off_c, 1, 67, 0
1, 63659, Note_off_c, 1, 52, 0
1, 63659, Note_off_c, 1, 40, 0
1, 63659, Note_off_c, 1, 70, 0
1, 63660, Note_on_c, 1, 72, 127
1, 63660, Note_on_c, 1, 53, 127
1, 63660, Note_on_c, 1, 68, 127
1, 63660, Note_on_c, 1, 65, 127
1, 63660, Note_on_c, 1, 41, 127
1, 63660, Note_on_c, 1, 29, 127
1, 63689, Note_off_c, 1, 53, 0
1, 63689, Note_off_c, 1, 68, 0
1, 63690, Note_on_c, 1, 52, 127
1, 63719, Note_off_c, 1, 65, 0
1, 63719, Note_off_c, 1, 52, 0
1, 63720, Note_on_c, 1, 70, 127
1, 63720, Note_on_c, 1, 60, 127
1, 63720, Note_on_c, 1, 56, 127
1, 63749, Note_off_c, 1, 70, 0
1, 63750, Note_on_c, 1, 48, 127
1, 63779, Note_off_c, 1, 41, 0
1, 63779, Note_off_c, 1, 29, 0
1, 63779, Note_off_c, 1, 60, 0
1, 63779, Note_off_c, 1, 56, 0
1, 63779, Note_off_c, 1, 48, 0
1, 63780, Note_on_c, 1, 55, 127
1, 63780, Note_on_c, 1, 67, 127
1, 63780, Note_on_c, 1, 64, 127
1, 63780, Note_on_c, 1, 58, 127
1, 63780, Note_on_c, 1, 43, 127
1, 63780, Note_on_c, 1, 31, 127
1, 63809, Note_off_c, 1, 55, 0
1, 63809, Note_off_c, 1, 67, 0
1, 63839, Note_off_c, 1, 64, 0
1, 63839, Note_off_c, 1, 58, 0
1, 63839, Note_off_c, 1, 43, 0
1, 63839, Note_off_c, 1, 31, 0
1, 63840, Note_on_c, 1, 77, 127
1, 63840, Note_on_c, 1, 44, 127
1, 63840, Note_on_c, 1, 32, 127
1, 63869, Note_off_c, 1, 72, 0
1, 63870, Note_on_c, 1, 73, 127
1, 63899, Note_off_c, 1, 77, 0
1, 63899, Note_off_c, 1, 73, 0
1, 63959, Note_off_c, 1, 44, 0
1, 63959, Note_off_c, 1, 32, 0
1, 63960, Note_on_c, 1, 72, 127
1, 63960, Note_on_c, 1, 46, 127
1, 63960, Note_on_c, 1, 56, 127
1, 63960, Note_on_c, 1, 61, 127
1, 63960, Note_on_c, 1, 65, 127
1, 63960, Note_on_c, 1, 58, 127
1, 63960, Note_on_c, 1, 34, 127
1, 63989, Note_off_c, 1, 72, 0
1, 63989, Note_off_c, 1, 56, 0
1, 63990, Note_on_c, 1, 73, 127
1, 63990, Note_on_c, 1, 53, 127
1, 64019, Note_off_c, 1, 46, 0
1, 64019, Note_off_c, 1, 61, 0
1, 64019, Note_off_c, 1, 65, 0
1, 64019, Note_off_c, 1, 58, 0
1, 64019, Note_off_c, 1, 34, 0
1, 64019, Note_off_c, 1, 73, 0
1, 64019, Note_off_c, 1, 53, 0
1, 64020, Note_on_c, 1, 64, 127
1, 64020, Note_on_c, 1, 48, 127
1, 64020, Note_on_c, 1, 60, 127
1, 64020, Note_on_c, 1, 36, 127
1, 64050, Note_on_c, 1, 52, 127
1, 64050, Note_on_c, 1, 79, 127
1, 64079, Note_off_c, 1, 52, 0
1, 64079, Note_off_c, 1, 79, 0
1, 64080, Note_on_c, 1, 55, 127
1, 64080, Note_on_c, 1, 77, 127
1, 64109, Note_off_c, 1, 77, 0
1, 64110, Note_on_c, 1, 76, 127
1, 64139, Note_off_c, 1, 48, 0
1, 64139, Note_off_c, 1, 60, 0
1, 64139, Note_off_c, 1, 36, 0
1, 64139, Note_off_c, 1, 55, 0
1, 64139, Note_off_c, 1, 76, 0
1, 64140, Note_on_c, 1, 58, 127
1, 64140, Note_on_c, 1, 74, 127
1, 64140, Note_on_c, 1, 67, 127
1, 64169, Note_off_c, 1, 58, 0
1, 64169, Note_off_c, 1, 74, 0
1, 64170, Note_on_c, 1, 56, 127
1, 64170, Note_on_c, 1, 72, 127
1, 64199, Note_off_c, 1, 67, 0
1, 64199, Note_off_c, 1, 56, 0
1, 64199, Note_off_c, 1, 72, 0
1, 64200, Note_on_c, 1, 84, 127
1, 64200, Note_on_c, 1, 46, 127
1, 64229, Note_off_c, 1, 64, 0
1, 64230, Note_on_c, 1, 62, 127
1, 64259, Note_off_c, 1, 84, 0
1, 64259, Note_off_c, 1, 62, 0
1, 64260, Note_on_c, 1, 63, 127
1, 64290, Note_on_c, 1, 65, 127
1, 64319, Note_off_c, 1, 46, 0
1, 64319, Note_off_c, 1, 63, 0
1, 64319, Note_off_c, 1, 65, 0
1, 64320, Note_on_c, 1, 44, 127
1, 64350, Note_on_c, 1, 68, 127
1, 64379, Note_off_c, 1, 44, 0
1, 64379, Note_off_c, 1, 68, 0
1, 64380, Note_on_c, 1, 70, 127
1, 64380, Note_on_c, 1, 43, 127
1, 64409, Note_off_c, 1, 70, 0
1, 64410, Note_on_c, 1, 73, 127
1, 64439, Note_off_c, 1, 73, 0
1, 64499, Note_off_c, 1, 43, 0
1, 64500, Note_on_c, 1, 79, 127
1, 64500, Note_on_c, 1, 53, 127
1, 64500, Note_on_c, 1, 70, 127
1, 64500, Note_on_c, 1, 73, 127
1, 64500, Note_on_c, 1, 67, 127
1, 64500, Note_on_c, 1, 41, 127
1, 64559, Note_off_c, 1, 53, 0
1, 64559, Note_off_c, 1, 70, 0
1, 64559, Note_off_c, 1, 73, 0
1, 64559, Note_off_c, 1, 67, 0
1, 64559, Note_off_c, 1, 41, 0
1, 64560, Note_on_c, 1, 52, 127
1, 64560, Note_on_c, 1, 40, 127
1, 64589, Note_off_c, 1, 79, 0
1, 64590, Note_on_c, 1, 77, 127
1, 64619, Note_off_c, 1, 52, 0
1, 64619, Note_off_c, 1, 40, 0
1, 64619, Note_off_c, 1, 77, 0
1, 64620, Note_on_c, 1, 76, 127
1, 64620, Note_on_c, 1, 48, 127
1, 64620, Note_on_c, 1, 60, 127
1, 64620, Note_on_c, 1, 67, 127
1, 64620, Note_on_c, 1, 72, 127
1, 64620, Note_on_c, 1, 36, 127
1, 64649, Note_off_c, 1, 76, 0
1, 64649, Note_off_c, 1, 60, 0
1, 64650, Note_on_c, 1, 79, 127
1, 64650, Note_on_c, 1, 62, 127
1, 64679, Note_off_c, 1, 48, 0
1, 64679, Note_off_c, 1, 67, 0
1, 64679, Note_off_c, 1, 72, 0
1, 64679, Note_off_c, 1, 36, 0
1, 64679, Note_off_c, 1, 79, 0
1, 64679, Note_off_c, 1, 62, 0
1, 64680, Note_on_c, 1, 72, 127
1, 64680, Note_on_c, 1, 52, 127
1, 64680, Note_on_c, 1, 64, 127
1, 64680, Note_on_c, 1, 67, 127
1, 64680, Note_on_c, 1, 40, 127
1, 64710, Note_on_c, 1, 70, 127
1, 64710, Note_on_c, 1, 60, 127
1, 64739, Note_off_c, 1, 72, 0
1, 64739, Note_off_c, 1, 52, 0
1, 64739, Note_off_c, 1, 64, 0
1, 64739, Note_off_c, 1, 67, 0
1, 64739, Note_off_c, 1, 40, 0
1, 64739, Note_off_c, 1, 70, 0
1, 64739, Note_off_c, 1, 60, 0
1, 64740, Note_on_c, 1, 68, 127
1, 64740, Note_on_c, 1, 53, 127
1, 64740, Note_on_c, 1, 65, 127
1, 64740, Note_on_c, 1, 41, 127
1, 64740, Note_on_c, 1, 29, 127
1, 64770, Note_on_c, 1, 72, 127
1, 64799, Note_off_c, 1, 65, 0
1, 64799, Note_off_c, 1, 41, 0
1, 64799, Note_off_c, 1, 29, 0
1, 64799, Note_off_c, 1, 72, 0
1, 64800, Note_on_c, 1, 74, 127
1, 64800, Note_on_c, 1, 60, 127
1, 64829, Note_off_c, 1, 74, 0
1, 64830, Note_on_c, 1, 75, 127
1, 64859, Note_off_c, 1, 68, 0
1, 64859, Note_off_c, 1, 53, 0
1, 64859, Note_off_c, 1, 60, 0
1, 64859, Note_off_c, 1, 75, 0
1, 64860, Note_on_c, 1, 77, 127
1, 64860, Note_on_c, 1, 51, 127
1, 64860, Note_on_c, 1, 65, 127
1, 64860, Note_on_c, 1, 68, 127
1, 64860, Note_on_c, 1, 56, 127
1, 64860, Note_on_c, 1, 39, 127
1, 64919, Note_off_c, 1, 51, 0
1, 64919, Note_off_c, 1, 65, 0
1, 64919, Note_off_c, 1, 68, 0
1, 64919, Note_off_c, 1, 56, 0
1, 64919, Note_off_c, 1, 39, 0
1, 64920, Note_on_c, 1, 50, 127
1, 64920, Note_on_c, 1, 38, 127
1, 64949, Note_off_c, 1, 77, 0
1, 64950, Note_on_c, 1, 80, 127
1, 64979, Note_off_c, 1, 50, 0
1, 64979, Note_off_c, 1, 38, 0
1, 64979, Note_off_c, 1, 80, 0
1, 64980, Note_on_c, 1, 79, 127
1, 64980, Note_on_c, 1, 59, 127
1, 64980, Note_on_c, 1, 67, 127
1, 64980, Note_on_c, 1, 62, 127
1, 64980, Note_on_c, 1, 47, 127
1, 64980, Note_on_c, 1, 35, 127
1, 65009, Note_off_c, 1, 79, 0
1, 65010, Note_on_c, 1, 77, 127
1, 65039, Note_off_c, 1, 59, 0
1, 65039, Note_off_c, 1, 67, 0
1, 65039, Note_off_c, 1, 62, 0
1, 65039, Note_off_c, 1, 47, 0
1, 65039, Note_off_c, 1, 35, 0
1, 65039, Note_off_c, 1, 77, 0
1, 65040, Note_on_c, 1, 75, 127
1, 65040, Note_on_c, 1, 55, 127
1, 65040, Note_on_c, 1, 71, 127
1, 65040, Note_on_c, 1, 67, 127
1, 65040, Note_on_c, 1, 62, 127
1, 65040, Note_on_c, 1, 43, 127
1, 65040, Note_on_c, 1, 31, 127
1, 65069, Note_off_c, 1, 75, 0
1, 65070, Note_on_c, 1, 74, 127
1, 65099, Note_off_c, 1, 55, 0
1, 65099, Note_off_c, 1, 71, 0
1, 65099, Note_off_c, 1, 67, 0
1, 65099, Note_off_c, 1, 62, 0
1, 65099, Note_off_c, 1, 43, 0
1, 65099, Note_off_c, 1, 31, 0
1, 65099, Note_off_c, 1, 74, 0
1, 65100, Note_on_c, 1, 75, 127
1, 65100, Note_on_c, 1, 60, 127
1, 65100, Note_on_c, 1, 48, 127
1, 65100, Note_on_c, 1, 36, 127
1, 65130, Note_on_c, 1, 67, 127
1, 65159, Note_off_c, 1, 48, 0
1, 65159, Note_off_c, 1, 36, 0
1, 65159, Note_off_c, 1, 67, 0
1, 65160, Note_on_c, 1, 69, 127
1, 65160, Note_on_c, 1, 72, 127
1, 65160, Note_on_c, 1, 63, 127
1, 65189, Note_off_c, 1, 69, 0
1, 65190, Note_on_c, 1, 70, 127
1, 65219, Note_off_c, 1, 75, 0
1, 65219, Note_off_c, 1, 60, 0
1, 65219, Note_off_c, 1, 72, 0
1, 65219, Note_off_c, 1, 63, 0
1, 65219, Note_off_c, 1, 70, 0
1, 65220, Note_on_c, 1, 72, 127
1, 65220, Note_on_c, 1, 46, 127
1, 65220, Note_on_c, 1, 75, 127
1, 65220, Note_on_c, 1, 60, 127
1, 65220, Note_on_c, 1, 55, 127
1, 65220, Note_on_c, 1, 58, 127
1, 65279, Note_off_c, 1, 46, 0
1, 65279, Note_off_c, 1, 75, 0
1, 65279, Note_off_c, 1, 60, 0
1, 65279, Note_off_c, 1, 55, 0
1, 65279, Note_off_c, 1, 58, 0
1, 65280, Note_on_c, 1, 45, 127
1, 65280, Note_on_c, 1, 57, 127
1, 65309, Note_off_c, 1, 72, 0
1, 65339, Note_off_c, 1, 45, 0
1, 65339, Note_off_c, 1, 57, 0
1, 65340, Note_on_c, 1, 74, 127
1, 65340, Note_on_c, 1, 54, 127
1, 65340, Note_on_c, 1, 69, 127
1, 65340, Note_on_c, 1, 62, 127
1, 65340, Note_on_c, 1, 42, 127
1, 65369, Note_off_c, 1, 74, 0
1, 65370, Note_on_c, 1, 72, 127
1, 65399, Note_off_c, 1, 54, 0
1, 65399, Note_off_c, 1, 69, 0
1, 65399, Note_off_c, 1, 62, 0
1, 65399, Note_off_c, 1, 42, 0
1, 65399, Note_off_c, 1, 72, 0
1, 65400, Note_on_c, 1, 70, 127
1, 65400, Note_on_c, 1, 50, 127
1, 65400, Note_on_c, 1, 74, 127
1, 65400, Note_on_c, 1, 66, 127
1, 65400, Note_on_c, 1, 57, 127
1, 65400, Note_on_c, 1, 38, 127
1, 65429, Note_off_c, 1, 70, 0
1, 65430, Note_on_c, 1, 69, 127
1, 65459, Note_off_c, 1, 50, 0
1, 65459, Note_off_c, 1, 74, 0
1, 65459, Note_off_c, 1, 66, 0
1, 65459, Note_off_c, 1, 57, 0
1, 65459, Note_off_c, 1, 38, 0
1, 65459, Note_off_c, 1, 69, 0
1, 65460, Note_on_c, 1, 70, 127
1, 65460, Note_on_c, 1, 55, 127
1, 65460, Note_on_c, 1, 43, 127
1, 65460, Note_on_c, 1, 31, 127
1, 65490, Note_on_c, 1, 62, 127
1, 65519, Note_off_c, 1, 62, 0
1, 65520, Note_on_c, 1, 67, 127
1, 65520, Note_on_c, 1, 50, 127
1, 65550, Note_on_c, 1, 69, 127
1, 65579, Note_off_c, 1, 70, 0
1, 65579, Note_off_c, 1, 55, 0
1, 65579, Note_off_c, 1, 43, 0
1, 65579, Note_off_c, 1, 31, 0
1, 65579, Note_off_c, 1, 67, 0
1, 65579, Note_off_c, 1, 50, 0
1, 65579, Note_off_c, 1, 69, 0
1, 65580, Note_on_c, 1, 70, 127
1, 65580, Note_on_c, 1, 53, 127
1, 65580, Note_on_c, 1, 67, 127
1, 65580, Note_on_c, 1, 62, 127
1, 65580, Note_on_c, 1, 55, 127
1, 65580, Note_on_c, 1, 41, 127
1, 65580, Note_on_c, 1, 29, 127
1, 65639, Note_off_c, 1, 53, 0
1, 65639, Note_off_c, 1, 67, 0
1, 65639, Note_off_c, 1, 62, 0
1, 65639, Note_off_c, 1, 55, 0
1, 65639, Note_off_c, 1, 41, 0
1, 65639, Note_off_c, 1, 29, 0
1, 65640, Note_on_c, 1, 51, 127
1, 65640, Note_on_c, 1, 39, 127
1, 65640, Note_on_c, 1, 27, 127
1, 65669, Note_off_c, 1, 70, 0
1, 65670, Note_on_c, 1, 74, 127
1, 65699, Note_off_c, 1, 51, 0
1, 65699, Note_off_c, 1, 39, 0
1, 65699, Note_off_c, 1, 27, 0
1, 65699, Note_off_c, 1, 74, 0
1, 65700, Note_on_c, 1, 72, 127
1, 65700, Note_on_c, 1, 63, 127
1, 65700, Note_on_c, 1, 67, 127
1, 65700, Note_on_c, 1, 55, 127
1, 65700, Note_on_c, 1, 51, 127
1, 65700, Note_on_c, 1, 39, 127
1, 65730, Note_on_c, 1, 70, 127
1, 65759, Note_off_c, 1, 72, 0
1, 65759, Note_off_c, 1, 63, 0
1, 65759, Note_off_c, 1, 67, 0
1, 65759, Note_off_c, 1, 55, 0
1, 65759, Note_off_c, 1, 51, 0
1, 65759, Note_off_c, 1, 39, 0
1, 65759, Note_off_c, 1, 70, 0
1, 65760, Note_on_c, 1, 69, 127
1, 65760, Note_on_c, 1, 60, 127
1, 65760, Note_on_c, 1, 75, 127
1, 65760, Note_on_c, 1, 72, 127
1, 65760, Note_on_c, 1, 59, 127
1, 65760, Note_on_c, 1, 48, 127
1, 65760, Note_on_c, 1, 36, 127
1, 65789, Note_off_c, 1, 69, 0
1, 65790, Note_on_c, 1, 67, 127
1, 65819, Note_off_c, 1, 60, 0
1, 65819, Note_off_c, 1, 75, 0
1, 65819, Note_off_c, 1, 72, 0
1, 65819, Note_off_c, 1, 59, 0
1, 65819, Note_off_c, 1, 48, 0
1, 65819, Note_off_c, 1, 36, 0
1, 65819, Note_off_c, 1, 67, 0
1, 65820, Note_on_c, 1, 74, 127
1, 65820, Note_on_c, 1, 50, 127
1, 65820, Note_on_c, 1, 66, 127
1, 65820, Note_on_c, 1, 62, 127
1, 65820, Note_on_c, 1, 38, 127
1, 65849, Note_off_c, 1, 66, 0
1, 65850, Note_on_c, 1, 54, 127
1, 65850, Note_on_c, 1, 69, 127
1, 65879, Note_off_c, 1, 54, 0
1, 65879, Note_off_c, 1, 69, 0
1, 65880, Note_on_c, 1, 57, 127
1, 65880, Note_on_c, 1, 67, 127
1, 65909, Note_off_c, 1, 67, 0
1, 65939, Note_off_c, 1, 50, 0
1, 65939, Note_off_c, 1, 62, 0
1, 65939, Note_off_c, 1, 38, 0
1, 65939, Note_off_c, 1, 57, 0
1, 65940, Note_on_c, 1, 60, 127
1, 65940, Note_on_c, 1, 64, 127
1, 65940, Note_on_c, 1, 48, 127
1, 65940, Note_on_c, 1, 36, 127
1, 65969, Note_off_c, 1, 60, 0
1, 65969, Note_off_c, 1, 64, 0
1, 65999, Note_off_c, 1, 48, 0
1, 65999, Note_off_c, 1, 36, 0
1, 66000, Note_on_c, 1, 58, 127
1, 66000, Note_on_c, 1, 46, 127
1, 66000, Note_on_c, 1, 34, 127
1, 66030, Note_on_c, 1, 75, 127
1, 66059, Note_off_c, 1, 74, 0
1, 66059, Note_off_c, 1, 58, 0
1, 66059, Note_off_c, 1, 75, 0
1, 66090, Note_on_c, 1, 72, 127
1, 66119, Note_off_c, 1, 46, 0
1, 66119, Note_off_c, 1, 34, 0
1, 66119, Note_off_c, 1, 72, 0
1, 66120, Note_on_c, 1, 74, 127
1, 66120, Note_on_c, 1, 43, 127
1, 66120, Note_on_c, 1, 58, 127
1, 66120, Note_on_c, 1, 70, 127
1, 66120, Note_on_c, 1, 67, 127
1, 66120, Note_on_c, 1, 62, 127
1, 66120, Note_on_c, 1, 31, 127
1, 66149, Note_off_c, 1, 74, 0
1, 66149, Note_off_c, 1, 58, 0
1, 66150, Note_on_c, 1, 75, 127
1, 66150, Note_on_c, 1, 55, 127
1, 66179, Note_off_c, 1, 43, 0
1, 66179, Note_off_c, 1, 70, 0
1, 66179, Note_off_c, 1, 67, 0
1, 66179, Note_off_c, 1, 62, 0
1, 66179, Note_off_c, 1, 31, 0
1, 66179, Note_off_c, 1, 75, 0
1, 66179, Note_off_c, 1, 55, 0
1, 66180, Note_on_c, 1, 66, 127
1, 66180, Note_on_c, 1, 50, 127
1, 66180, Note_on_c, 1, 62, 127
1, 66180, Note_on_c, 1, 38, 127
1, 66180, Note_on_c, 1, 26, 127
1, 66209, Note_off_c, 1, 50, 0
1, 66210, Note_on_c, 1, 57, 127
1, 66210, Note_on_c, 1, 75, 127
1, 66239, Note_off_c, 1, 62, 0
1, 66239, Note_off_c, 1, 57, 0
1, 66239, Note_off_c, 1, 75, 0
1, 66240, Note_on_c, 1, 60, 127
1, 66240, Note_on_c, 1, 74, 127
1, 66240, Note_on_c, 1, 69, 127
1, 66269, Note_off_c, 1, 60, 0
1, 66269, Note_off_c, 1, 74, 0
1, 66270, Note_on_c, 1, 63, 127
1, 66270, Note_on_c, 1, 72, 127
1, 66299, Note_off_c, 1, 38, 0
1, 66299, Note_off_c, 1, 26, 0
1, 66299, Note_off_c, 1, 69, 0
1, 66299, Note_off_c, 1, 63, 0
1, 66299, Note_off_c, 1, 72, 0
1, 66300, Note_on_c, 1, 70, 127
1, 66329, Note_off_c, 1, 70, 0
1, 66360, Note_on_c, 1, 81, 127
1, 66360, Note_on_c, 1, 48, 127
1, 66360, Note_on_c, 1, 36, 127
1, 66389, Note_off_c, 1, 66, 0
1, 66390, Note_on_c, 1, 64, 127
1, 66390, Note_on_c, 1, 58, 127
1, 66419, Note_off_c, 1, 81, 0
1, 66419, Note_off_c, 1, 64, 0
1, 66419, Note_off_c, 1, 58, 0
1, 66420, Note_on_c, 1, 56, 127
1, 66450, Note_on_c, 1, 67, 127
1, 66450, Note_on_c, 1, 55, 127
1, 66479, Note_off_c, 1, 48, 0
1, 66479, Note_off_c, 1, 36, 0
1, 66479, Note_off_c, 1, 56, 0
1, 66479, Note_off_c, 1, 67, 0
1, 66479, Note_off_c, 1, 55, 0
1, 66480, Note_on_c, 1, 69, 127
1, 66480, Note_on_c, 1, 58, 127
1, 66480, Note_on_c, 1, 54, 127
1, 66480, Note_on_c, 1, 67, 127
1, 66480, Note_on_c, 1, 62, 127
1, 66480, Note_on_c, 1, 55, 127
1, 66480, Note_on_c, 1, 46, 127
1, 66480, Note_on_c, 1, 34, 127
1, 66509, Note_off_c, 1, 69, 0
1, 66509, Note_off_c, 1, 54, 0
1, 66510, Note_on_c, 1, 70, 127
1, 66539, Note_off_c, 1, 58, 0
1, 66539, Note_off_c, 1, 67, 0
1, 66539, Note_off_c, 1, 62, 0
1, 66539, Note_off_c, 1, 55, 0
1, 66539, Note_off_c, 1, 46, 0
1, 66539, Note_off_c, 1, 34, 0
1, 66539, Note_off_c, 1, 70, 0
1, 66540, Note_on_c, 1, 72, 127
1, 66540, Note_on_c, 1, 57, 127
1, 66540, Note_on_c, 1, 51, 127
1, 66540, Note_on_c, 1, 45, 127
1, 66540, Note_on_c, 1, 33, 127
1, 66569, Note_off_c, 1, 72, 0
1, 66570, Note_on_c, 1, 75, 127
1, 66599, Note_off_c, 1, 57, 0
1, 66599, Note_off_c, 1, 51, 0
1, 66599, Note_off_c, 1, 75, 0
1, 66600, Note_on_c, 1, 74, 127
1, 66600, Note_on_c, 1, 63, 127
1, 66600, Note_on_c, 1, 66, 127
1, 66600, Note_on_c, 1, 60, 127
1, 66629, Note_off_c, 1, 74, 0
1, 66659, Note_off_c, 1, 45, 0
1, 66659, Note_off_c, 1, 33, 0
1, 66659, Note_off_c, 1, 63, 0
1, 66659, Note_off_c, 1, 66, 0
1, 66659, Note_off_c, 1, 60, 0
1, 66660, Note_on_c, 1, 81, 127
1, 66660, Note_on_c, 1, 43, 127
1, 66660, Note_on_c, 1, 72, 127
1, 66660, Note_on_c, 1, 63, 127
1, 66660, Note_on_c, 1, 60, 127
1, 66660, Note_on_c, 1, 31, 127
1, 66719, Note_off_c, 1, 43, 0
1, 66719, Note_off_c, 1, 72, 0
1, 66719, Note_off_c, 1, 63, 0
1, 66719, Note_off_c, 1, 60, 0
1, 66719, Note_off_c, 1, 31, 0
1, 66720, Note_on_c, 1, 42, 127
1, 66720, Note_on_c, 1, 30, 127
1, 66749, Note_off_c, 1, 81, 0
1, 66750, Note_on_c, 1, 79, 127
1, 66779, Note_off_c, 1, 42, 0
1, 66779, Note_off_c, 1, 30, 0
1, 66779, Note_off_c, 1, 79, 0
1, 66780, Note_on_c, 1, 78, 127
1, 66780, Note_on_c, 1, 38, 127
1, 66780, Note_on_c, 1, 50, 127
1, 66780, Note_on_c, 1, 74, 127
1, 66780, Note_on_c, 1, 57, 127
1, 66780, Note_on_c, 1, 26, 127
1, 66809, Note_off_c, 1, 78, 0
1, 66809, Note_off_c, 1, 50, 0
1, 66810, Note_on_c, 1, 81, 127
1, 66810, Note_on_c, 1, 52, 127
1, 66839, Note_off_c, 1, 38, 0
1, 66839, Note_off_c, 1, 74, 0
1, 66839, Note_off_c, 1, 57, 0
1, 66839, Note_off_c, 1, 26, 0
1, 66839, Note_off_c, 1, 81, 0
1, 66839, Note_off_c, 1, 52, 0
1, 66840, Note_on_c, 1, 74, 127
1, 66840, Note_on_c, 1, 42, 127
1, 66840, Note_on_c, 1, 54, 127
1, 66840, Note_on_c, 1, 69, 127
1, 66840, Note_on_c, 1, 62, 127
1, 66840, Note_on_c, 1, 30, 127
1, 66869, Note_off_c, 1, 74, 0
1, 66870, Note_on_c, 1, 72, 127
1, 66870, Note_on_c, 1, 50, 127
1, 66899, Note_off_c, 1, 42, 0
1, 66899, Note_off_c, 1, 54, 0
1, 66899, Note_off_c, 1, 69, 0
1, 66899, Note_off_c, 1, 62, 0
1, 66899, Note_off_c, 1, 30, 0
1, 66899, Note_off_c, 1, 72, 0
1, 66899, Note_off_c, 1, 50, 0
1, 66900, Note_on_c, 1, 70, 127
1, 66900, Note_on_c, 1, 43, 127
1, 66900, Note_on_c, 1, 74, 127
1, 66900, Note_on_c, 1, 55, 127
1, 66900, Note_on_c, 1, 31, 127
1, 66929, Note_off_c, 1, 70, 0
1, 66929, Note_off_c, 1, 55, 0
1, 66930, Note_on_c, 1, 75, 127
1, 66930, Note_on_c, 1, 54, 127
1, 66959, Note_off_c, 1, 75, 0
1, 66959, Note_off_c, 1, 54, 0
1, 66960, Note_on_c, 1, 62, 127
1, 66960, Note_on_c, 1, 50, 127
1, 66990, Note_on_c, 1, 72, 127
1, 67019, Note_off_c, 1, 43, 0
1, 67019, Note_off_c, 1, 31, 0
1, 67019, Note_off_c, 1, 62, 0
1, 67019, Note_off_c, 1, 50, 0
1, 67019, Note_off_c, 1, 72, 0
1, 67020, Note_on_c, 1, 45, 127
1, 67020, Note_on_c, 1, 57, 127
1, 67020, Note_on_c, 1, 66, 127
1, 67020, Note_on_c, 1, 60, 127
1, 67020, Note_on_c, 1, 33, 127
1, 67050, Note_on_c, 1, 69, 127
1, 67079, Note_off_c, 1, 45, 0
1, 67079, Note_off_c, 1, 57, 0
1, 67079, Note_off_c, 1, 66, 0
1, 67079, Note_off_c, 1, 60, 0
1, 67079, Note_off_c, 1, 33, 0
1, 67079, Note_off_c, 1, 69, 0
1, 67080, Note_on_c, 1, 79, 127
1, 67080, Note_on_c, 1, 46, 127
1, 67080, Note_on_c, 1, 58, 127
1, 67080, Note_on_c, 1, 34, 127
1, 67109, Note_off_c, 1, 74, 0
1, 67139, Note_off_c, 1, 79, 0
1, 67139, Note_off_c, 1, 58, 0
1, 67140, Note_on_c, 1, 67, 127
1, 67199, Note_off_c, 1, 46, 0
1, 67199, Note_off_c, 1, 34, 0
1, 67199, Note_off_c, 1, 67, 0
1, 67200, Note_on_c, 1, 48, 127
1, 67200, Note_on_c, 1, 74, 127
1, 67200, Note_on_c, 1, 63, 127
1, 67200, Note_on_c, 1, 60, 127
1, 67200, Note_on_c, 1, 55, 127
1, 67200, Note_on_c, 1, 36, 127
1, 67229, Note_off_c, 1, 74, 0
1, 67230, Note_on_c, 1, 75, 127
1, 67259, Note_off_c, 1, 48, 0
1, 67259, Note_off_c, 1, 63, 0
1, 67259, Note_off_c, 1, 60, 0
1, 67259, Note_off_c, 1, 55, 0
1, 67259, Note_off_c, 1, 36, 0
1, 67259, Note_off_c, 1, 75, 0
1, 67260, Note_on_c, 1, 50, 127
1, 67260, Note_on_c, 1, 66, 127
1, 67260, Note_on_c, 1, 38, 127
1, 67290, Note_on_c, 1, 81, 127
1, 67290, Note_on_c, 1, 54, 127
1, 67319, Note_off_c, 1, 81, 0
1, 67319, Note_off_c, 1, 54, 0
1, 67320, Note_on_c, 1, 79, 127
1, 67320, Note_on_c, 1, 57, 127
1, 67320, Note_on_c, 1, 62, 127
1, 67349, Note_off_c, 1, 79, 0
1, 67350, Note_on_c, 1, 78, 127
1, 67379, Note_off_c, 1, 50, 0
1, 67379, Note_off_c, 1, 38, 0
1, 67379, Note_off_c, 1, 57, 0
1, 67379, Note_off_c, 1, 62, 0
1, 67379, Note_off_c, 1, 78, 0
1, 67380, Note_on_c, 1, 76, 127
1, 67380, Note_on_c, 1, 60, 127
1, 67409, Note_off_c, 1, 76, 0
1, 67410, Note_on_c, 1, 74, 127
1, 67410, Note_on_c, 1, 58, 127
1, 67439, Note_off_c, 1, 60, 0
1, 67439, Note_off_c, 1, 74, 0
1, 67439, Note_off_c, 1, 58, 0
1, 67440, Note_on_c, 1, 86, 127
1, 67440, Note_on_c, 1, 48, 127
1, 67469, Note_off_c, 1, 66, 0
1, 67470, Note_on_c, 1, 64, 127
1, 67499, Note_off_c, 1, 86, 0
1, 67499, Note_off_c, 1, 64, 0
1, 67500, Note_on_c, 1, 69, 127
1, 67530, Note_on_c, 1, 67, 127
1, 67559, Note_off_c, 1, 48, 0
1, 67559, Note_off_c, 1, 69, 0
1, 67559, Note_off_c, 1, 67, 0
1, 67560, Note_on_c, 1, 66, 127
1, 67560, Note_on_c, 1, 69, 127
1, 67560, Note_on_c, 1, 46, 127
1, 67560, Note_on_c, 1, 74, 127
1, 67560, Note_on_c, 1, 55, 127
1, 67560, Note_on_c, 1, 50, 127
1, 67560, Note_on_c, 1, 58, 127
1, 67589, Note_off_c, 1, 66, 0
1, 67589, Note_off_c, 1, 69, 0
1, 67590, Note_on_c, 1, 67, 127
1, 67590, Note_on_c, 1, 70, 127
1, 67619, Note_off_c, 1, 46, 0
1, 67619, Note_off_c, 1, 74, 0
1, 67619, Note_off_c, 1, 55, 0
1, 67619, Note_off_c, 1, 50, 0
1, 67619, Note_off_c, 1, 58, 0
1, 67619, Note_off_c, 1, 67, 0
1, 67619, Note_off_c, 1, 70, 0
1, 67620, Note_on_c, 1, 69, 127
1, 67620, Note_on_c, 1, 72, 127
1, 67620, Note_on_c, 1, 45, 127
1, 67620, Note_on_c, 1, 57, 127
1, 67649, Note_off_c, 1, 72, 0
1, 67650, Note_on_c, 1, 75, 127
1, 67679, Note_off_c, 1, 69, 0
1, 67679, Note_off_c, 1, 75, 0
1, 67680, Note_on_c, 1, 74, 127
1, 67680, Note_on_c, 1, 60, 127
1, 67709, Note_off_c, 1, 74, 0
1, 67739, Note_off_c, 1, 45, 0
1, 67739, Note_off_c, 1, 57, 0
1, 67739, Note_off_c, 1, 60, 0
1, 67740, Note_on_c, 1, 72, 127
1, 67740, Note_on_c, 1, 81, 127
1, 67740, Note_on_c, 1, 55, 127
1, 67740, Note_on_c, 1, 63, 127
1, 67740, Note_on_c, 1, 57, 127
1, 67740, Note_on_c, 1, 43, 127
1, 67799, Note_off_c, 1, 72, 0
1, 67799, Note_off_c, 1, 55, 0
1, 67799, Note_off_c, 1, 63, 0
1, 67799, Note_off_c, 1, 57, 0
1, 67799, Note_off_c, 1, 43, 0
1, 67800, Note_on_c, 1, 75, 127
1, 67800, Note_on_c, 1, 54, 127
1, 67800, Note_on_c, 1, 42, 127
1, 67829, Note_off_c, 1, 81, 0
1, 67830, Note_on_c, 1, 79, 127
1, 67859, Note_off_c, 1, 75, 0
1, 67859, Note_off_c, 1, 54, 0
1, 67859, Note_off_c, 1, 42, 0
1, 67859, Note_off_c, 1, 79, 0
1, 67860, Note_on_c, 1, 82, 127
1, 67860, Note_on_c, 1, 50, 127
1, 67860, Note_on_c, 1, 78, 127
1, 67860, Note_on_c, 1, 69, 127
1, 67860, Note_on_c, 1, 62, 127
1, 67860, Note_on_c, 1, 57, 127
1, 67860, Note_on_c, 1, 38, 127
1, 67889, Note_off_c, 1, 82, 0
1, 67889, Note_off_c, 1, 78, 0
1, 67890, Note_on_c, 1, 81, 127
1, 67890, Note_on_c, 1, 52, 127
1, 67919, Note_off_c, 1, 50, 0
1, 67919, Note_off_c, 1, 69, 0
1, 67919, Note_off_c, 1, 62, 0
1, 67919, Note_off_c, 1, 57, 0
1, 67919, Note_off_c, 1, 38, 0
1, 67919, Note_off_c, 1, 52, 0
1, 67920, Note_on_c, 1, 54, 127
1, 67920, Note_on_c, 1, 74, 127
1, 67920, Note_on_c, 1, 42, 127
1, 67950, Note_on_c, 1, 72, 127
1, 67979, Note_off_c, 1, 54, 0
1, 67979, Note_off_c, 1, 74, 0
1, 67979, Note_off_c, 1, 42, 0
1, 67979, Note_off_c, 1, 72, 0
1, 67980, Note_on_c, 1, 55, 127
1, 67980, Note_on_c, 1, 70, 127
1, 67980, Note_on_c, 1, 43, 127
1, 68009, Note_off_c, 1, 81, 0
1, 68040, Note_on_c, 1, 67, 127
1, 68070, Note_on_c, 1, 79, 127
1, 68099, Note_off_c, 1, 55, 0
1, 68099, Note_off_c, 1, 43, 0
1, 68099, Note_off_c, 1, 67, 0
1, 68099, Note_off_c, 1, 79, 0
1, 68100, Note_on_c, 1, 65, 127
1, 68100, Note_on_c, 1, 41, 127
1, 68100, Note_on_c, 1, 53, 127
1, 68159, Note_off_c, 1, 65, 0
1, 68159, Note_off_c, 1, 41, 0
1, 68159, Note_off_c, 1, 53, 0
1, 68160, Note_on_c, 1, 63, 127
1, 68160, Note_on_c, 1, 39, 127
1, 68160, Note_on_c, 1, 51, 127
1, 68189, Note_off_c, 1, 70, 0
1, 68219, Note_off_c, 1, 63, 0
1, 68279, Note_off_c, 1, 39, 0
1, 68279, Note_off_c, 1, 51, 0
1, 68340, Note_on_c, 1, 48, 127
1, 68340, Note_on_c, 1, 36, 127
1, 68400, Note_on_c, 1, 60, 127
1, 68400, Note_on_c, 1, 75, 127
1, 68459, Note_off_c, 1, 48, 0
1, 68459, Note_off_c, 1, 36, 0
1, 68459, Note_off_c, 1, 60, 0
1, 68459, Note_off_c, 1, 75, 0
1, 68460, Note_on_c, 1, 24, 127
1, 68519, Note_off_c, 1, 24, 0
1, 68520, Note_on_c, 1, 26, 127
1, 68580, Note_on_c, 1, 66, 127
1, 68580, Note_on_c, 1, 58, 127
1, 68639, Note_off_c, 1, 26, 0
1, 68639, Note_off_c, 1, 66, 0
1, 68639, Note_off_c, 1, 58, 0
1, 68820, Note_on_c, 1, 27, 127
1, 68879, Note_off_c, 1, 27, 0
1, 68880, Note_on_c, 1, 74, 127
1, 68880, Note_on_c, 1, 50, 127
1, 68880, Note_on_c, 1, 67, 127
1, 68880, Note_on_c, 1, 38, 127
1, 68880, Note_on_c, 1, 26, 127
1, 68909, Note_off_c, 1, 74, 0
1, 68910, Note_on_c, 1, 75, 127
1, 68939, Note_off_c, 1, 50, 0
1, 68939, Note_off_c, 1, 75, 0
1, 68940, Note_on_c, 1, 62, 127
1, 68940, Note_on_c, 1, 70, 127
1, 68970, Note_on_c, 1, 72, 127
1, 68999, Note_off_c, 1, 62, 0
1, 68999, Note_off_c, 1, 70, 0
1, 68999, Note_off_c, 1, 72, 0
1, 69000, Note_off_c, 1, 38, 0
1, 69000, Note_off_c, 1, 26, 0
1, 69000, Note_on_c, 1, 60, 127
1, 69000, Note_on_c, 1, 36, 127
1, 69000, Note_on_c, 1, 69, 127
1, 69000, Note_on_c, 1, 57, 127
1, 69000, Note_on_c, 1, 63, 127
1, 69000, Note_on_c, 1, 24, 127
1, 69059, Note_off_c, 1, 60, 0
1, 69059, Note_off_c, 1, 36, 0
1, 69059, Note_off_c, 1, 69, 0
1, 69059, Note_off_c, 1, 57, 0
1, 69059, Note_off_c, 1, 63, 0
1, 69059, Note_off_c, 1, 24, 0
1, 69089, Note_off_c, 1, 67, 0
1, 69150, Note_on_c, 1, 66, 127
1, 69179, Note_off_c, 1, 66, 0
1, 69180, Note_on_c, 1, 48, 127
1, 69239, Note_off_c, 1, 48, 0
1, 69240, Note_on_c, 1, 69, 127
1, 69240, Note_on_c, 1, 50, 127
1, 69240, Note_on_c, 1, 66, 127
1, 69240, Note_on_c, 1, 38, 127
1, 69300, Note_on_c, 1, 62, 127
1, 69300, Note_on_c, 1, 74, 127
1, 69300, Note_on_c, 1, 57, 127
1, 69359, Note_off_c, 1, 69, 0
1, 69359, Note_off_c, 1, 66, 0
1, 69359, Note_off_c, 1, 62, 0
1, 69359, Note_off_c, 1, 74, 0
1, 69359, Note_off_c, 1, 57, 0
1, 69360, Note_on_c, 1, 67, 127
1, 69360, Note_on_c, 1, 72, 127
1, 69360, Note_on_c, 1, 26, 127
1, 69419, Note_off_c, 1, 50, 0
1, 69419, Note_off_c, 1, 38, 0
1, 69419, Note_off_c, 1, 67, 0
1, 69419, Note_off_c, 1, 72, 0
1, 69419, Note_off_c, 1, 26, 0
1, 69420, Note_on_c, 1, 67, 127
1, 69420, Note_on_c, 1, 55, 127
1, 69420, Note_on_c, 1, 43, 127
1, 69420, Note_on_c, 1, 74, 127
1, 69420, Note_on_c, 1, 62, 127
1, 69420, Note_on_c, 1, 31, 127
1, 69539, Note_off_c, 1, 55, 0
1, 69539, Note_off_c, 1, 43, 0
1, 69539, Note_off_c, 1, 31, 0
1, 69540, Note_on_c, 1, 57, 127
1, 69540, Note_on_c, 1, 45, 127
1, 69540, Note_on_c, 1, 33, 127
1, 69599, Note_off_c, 1, 57, 0
1, 69599, Note_off_c, 1, 45, 0
1, 69599, Note_off_c, 1, 33, 0
1, 69600, Note_on_c, 1, 58, 127
1, 69600, Note_on_c, 1, 46, 127
1, 69600, Note_on_c, 1, 34, 127
1, 69659, Note_off_c, 1, 58, 0
1, 69659, Note_off_c, 1, 46, 0
1, 69659, Note_off_c, 1, 34, 0
1, 69720, Note_on_c, 1, 65, 127
1, 69779, Note_off_c, 1, 65, 0
1, 69780, Note_off_c, 1, 62, 0
1, 69780, Note_on_c, 1, 64, 127
1, 69780, Note_on_c, 1, 60, 127
1, 69780, Note_on_c, 1, 48, 127
1, 69780, Note_on_c, 1, 36, 127
1, 69839, Note_off_c, 1, 60, 0
1, 69899, Note_off_c, 1, 48, 0
1, 69899, Note_off_c, 1, 36, 0
1, 69900, Note_on_c, 1, 50, 127
1, 69900, Note_on_c, 1, 38, 127
1, 69959, Note_off_c, 1, 50, 0
1, 69959, Note_off_c, 1, 38, 0
1, 69960, Note_on_c, 1, 52, 127
1, 69960, Note_on_c, 1, 40, 127
1, 69990, Note_on_c, 1, 68, 127
1, 69990, Note_on_c, 1, 53, 127
1, 70019, Note_off_c, 1, 68, 0
1, 70019, Note_off_c, 1, 53, 0
1, 70079, Note_off_c, 1, 52, 0
1, 70079, Note_off_c, 1, 40, 0
1, 70080, Note_on_c, 1, 41, 127
1, 70139, Note_off_c, 1, 41, 0
1, 70140, Note_on_c, 1, 70, 127
1, 70169, Note_off_c, 1, 70, 0
1, 70170, Note_on_c, 1, 72, 127
1, 70170, Note_on_c, 1, 56, 127
1, 70199, Note_off_c, 1, 72, 0
1, 70199, Note_off_c, 1, 56, 0
1, 70200, Note_on_c, 1, 61, 127
1, 70259, Note_off_c, 1, 61, 0
1, 70320, Note_on_c, 1, 73, 127
1, 70349, Note_off_c, 1, 73, 0
1, 70500, Note_off_c, 1, 74, 0
1, 70500, Note_off_c, 1, 64, 0
1, 70500, Note_on_c, 1, 69, 127
1, 70500, Note_on_c, 1, 63, 127
1, 70500, Note_on_c, 1, 29, 127
1, 70529, Note_off_c, 1, 67, 0
1, 70619, Note_off_c, 1, 29, 0
1, 70620, Note_on_c, 1, 75, 127
1, 70679, Note_off_c, 1, 75, 0
1, 70890, Note_on_c, 1, 77, 127
1, 70919, Note_off_c, 1, 77, 0
1, 70980, Note_off_c, 1, 63, 0
1, 71040, Note_on_c, 1, 79, 127
1, 71069, Note_off_c, 1, 79, 0
1, 71220, Note_off_c, 1, 69, 0
1, 71340, Note_on_c, 1, 80, 127
1, 71399, Note_off_c, 1, 80, 0
1, 71430, Note_on_c, 1, 51, 127
1, 71459, Note_off_c, 1, 51, 0
1, 71520, Note_on_c, 1, 39, 127
1, 71579, Note_off_c, 1, 39, 0
1, 71940, Note_on_c, 1, 27, 127
1, 72059, Note_off_c, 1, 27, 0
1, 72240, Note_on_c, 1, 44, 127
1, 72240, Note_on_c, 1, 32, 127
1, 72299, Note_off_c, 1, 44, 0
1, 72299, Note_off_c, 1, 32, 0
1, 72600, Note_on_c, 1, 82, 127
1, 72689, Note_off_c, 1, 82, 0
1, 72690, Note_on_c, 1, 84, 127
1, 72719, Note_off_c, 1, 84, 0
1, 72780, Note_on_c, 1, 76, 127
1, 72839, Note_off_c, 1, 76, 0
1, 74700, Note_on_c, 1, 74, 127
1, 74700, Note_on_c, 1, 46, 127
1, 74700, Note_on_c, 1, 70, 127
1, 74700, Note_on_c, 1, 65, 127
1, 74700, Note_on_c, 1, 34, 127
1, 74729, Note_off_c, 1, 74, 0
1, 74730, Note_on_c, 1, 72, 127
1, 74730, Note_on_c, 1, 48, 127
1, 74759, Note_off_c, 1, 46, 0
1, 74759, Note_off_c, 1, 70, 0
1, 74759, Note_off_c, 1, 34, 0
1, 74759, Note_off_c, 1, 72, 0
1, 74759, Note_off_c, 1, 48, 0
1, 74760, Note_on_c, 1, 50, 127
1, 74760, Note_on_c, 1, 77, 127
1, 74760, Note_on_c, 1, 62, 127
1, 74760, Note_on_c, 1, 38, 127
1, 74790, Note_on_c, 1, 68, 127
1, 74819, Note_off_c, 1, 65, 0
1, 74819, Note_off_c, 1, 50, 0
1, 74819, Note_off_c, 1, 77, 0
1, 74819, Note_off_c, 1, 38, 0
1, 74819, Note_off_c, 1, 68, 0
1, 74820, Note_off_c, 1, 62, 0
1, 74820, Note_on_c, 1, 67, 127
1, 74820, Note_on_c, 1, 51, 127
1, 74820, Note_on_c, 1, 39, 127
1, 74849, Note_off_c, 1, 67, 0
1, 74880, Note_on_c, 1, 75, 127
1, 74880, Note_on_c, 1, 58, 127
1, 74939, Note_off_c, 1, 51, 0
1, 74939, Note_off_c, 1, 39, 0
1, 74939, Note_off_c, 1, 75, 0
1, 74940, Note_off_c, 1, 58, 0
1, 74940, Note_on_c, 1, 53, 127
1, 74940, Note_on_c, 1, 41, 127
1, 74970, Note_on_c, 1, 63, 127
1, 74999, Note_off_c, 1, 53, 0
1, 74999, Note_off_c, 1, 41, 0
1, 74999, Note_off_c, 1, 63, 0
1, 75000, Note_on_c, 1, 55, 127
1, 75000, Note_on_c, 1, 43, 127
1, 75030, Note_on_c, 1, 56, 127
1, 75059, Note_off_c, 1, 56, 0
1, 75119, Note_off_c, 1, 55, 0
1, 75119, Note_off_c, 1, 43, 0
1, 75120, Note_on_c, 1, 44, 127
1, 75179, Note_off_c, 1, 44, 0
1, 75360, Note_on_c, 1, 82, 127
1, 75390, Note_on_c, 1, 60, 127
1, 75419, Note_off_c, 1, 82, 0
1, 75419, Note_off_c, 1, 60, 0
1, 75780, Note_on_c, 1, 77, 127
1, 75780, Note_on_c, 1, 46, 127
1, 75780, Note_on_c, 1, 74, 127
1, 75780, Note_on_c, 1, 65, 127
1, 75780, Note_on_c, 1, 70, 127
1, 75780, Note_on_c, 1, 34, 127
1, 75809, Note_off_c, 1, 74, 0
1, 75810, Note_on_c, 1, 48, 127
1, 75810, Note_on_c, 1, 72, 127
1, 75839, Note_off_c, 1, 46, 0
1, 75839, Note_off_c, 1, 70, 0
1, 75839, Note_off_c, 1, 34, 0
1, 75839, Note_off_c, 1, 48, 0
1, 75839, Note_off_c, 1, 72, 0
1, 75840, Note_off_c, 1, 65, 0
1, 75840, Note_on_c, 1, 50, 127
1, 75840, Note_on_c, 1, 62, 127
1, 75840, Note_on_c, 1, 38, 127
1, 75870, Note_on_c, 1, 68, 127
1, 75899, Note_off_c, 1, 50, 0
1, 75899, Note_off_c, 1, 38, 0
1, 75899, Note_off_c, 1, 68, 0
1, 75900, Note_off_c, 1, 62, 0
1, 75900, Note_on_c, 1, 51, 127
1, 75900, Note_on_c, 1, 67, 127
1, 75900, Note_on_c, 1, 39, 127
1, 75929, Note_off_c, 1, 77, 0
1, 75930, Note_on_c, 1, 79, 127
1, 75959, Note_off_c, 1, 79, 0
1, 75960, Note_on_c, 1, 63, 127
1, 75960, Note_on_c, 1, 58, 127
1, 75990, Note_on_c, 1, 75, 127
1, 76019, Note_off_c, 1, 51, 0
1, 76019, Note_off_c, 1, 39, 0
1, 76019, Note_off_c, 1, 63, 0
1, 76019, Note_off_c, 1, 75, 0
1, 76079, Note_off_c, 1, 58, 0
1, 76080, Note_on_c, 1, 60, 127
1, 76080, Note_on_c, 1, 36, 127
1, 76109, Note_off_c, 1, 67, 0
1, 76139, Note_off_c, 1, 60, 0
1, 76199, Note_off_c, 1, 36, 0
1, 76260, Note_on_c, 1, 44, 127
1, 76260, Note_on_c, 1, 56, 127
1, 76260, Note_on_c, 1, 32, 127
1, 76319, Note_off_c, 1, 56, 0
1, 76379, Note_off_c, 1, 44, 0
1, 76379, Note_off_c, 1, 32, 0
1, 77220, Note_on_c, 1, 53, 127
1, 77280, Note_off_c, 1, 53, 0
1, 77460, Note_on_c, 1, 55, 127
1, 77460, Note_on_c, 1, 27, 127
1, 77519, Note_off_c, 1, 27, 0
1, 77520, Note_off_c, 1, 55, 0
1, 77520, Note_on_c, 1, 41, 127
1, 77520, Note_on_c, 1, 29, 127
1, 77639, Note_off_c, 1, 41, 0
1, 77639, Note_off_c, 1, 29, 0
1, 77640, Note_on_c, 1, 43, 127
1, 77640, Note_on_c, 1, 31, 127
1, 77699, Note_off_c, 1, 43, 0
1, 77699, Note_off_c, 1, 31, 0
1, 77940, Note_on_c, 1, 80, 127
1, 77970, Note_on_c, 1, 71, 127
1, 77999, Note_off_c, 1, 80, 0
1, 77999, Note_off_c, 1, 71, 0
1, 78090, Note_on_c, 1, 49, 127
1, 78119, Note_off_c, 1, 49, 0
1, 78270, Note_on_c, 1, 61, 127
1, 78299, Note_off_c, 1, 61, 0
1, 78330, Note_on_c, 1, 59, 127
1, 78359, Note_off_c, 1, 59, 0
1, 78420, Note_on_c, 1, 66, 127
1, 78420, Note_on_c, 1, 69, 127
1, 78570, Note_on_c, 1, 64, 127
1, 78599, Note_off_c, 1, 69, 0
1, 78599, Note_off_c, 1, 64, 0
1, 78629, Note_off_c, 1, 66, 0
1, 78630, Note_on_c, 1, 67, 127
1, 78630, Note_on_c, 1, 55, 127
1, 78659, Note_off_c, 1, 67, 0
1, 78659, Note_off_c, 1, 55, 0
1, 78660, Note_on_c, 1, 66, 127
1, 78660, Note_on_c, 1, 57, 127
1, 78689, Note_off_c, 1, 66, 0
1, 78689, Note_off_c, 1, 57, 0
1, 78690, Note_on_c, 1, 64, 127
1, 78690, Note_on_c, 1, 58, 127
1, 78719, Note_off_c, 1, 64, 0
1, 78719, Note_off_c, 1, 58, 0
1, 78720, Note_on_c, 1, 66, 127
1, 78720, Note_on_c, 1, 57, 127
1, 78749, Note_off_c, 1, 66, 0
1, 78749, Note_off_c, 1, 57, 0
1, 78750, Note_on_c, 1, 67, 127
1, 78750, Note_on_c, 1, 55, 127
1, 78779, Note_off_c, 1, 67, 0
1, 78779, Note_off_c, 1, 55, 0
1, 78780, Note_on_c, 1, 69, 127
1, 78780, Note_on_c, 1, 54, 127
1, 78809, Note_off_c, 1, 69, 0
1, 78809, Note_off_c, 1, 54, 0
1, 78810, Note_on_c, 1, 70, 127
1, 78810, Note_on_c, 1, 52, 127
1, 78839, Note_off_c, 1, 70, 0
1, 78839, Note_off_c, 1, 52, 0
1, 78840, Note_on_c, 1, 69, 127
1, 78840, Note_on_c, 1, 54, 127
1, 78869, Note_off_c, 1, 69, 0
1, 78869, Note_off_c, 1, 54, 0
1, 78870, Note_on_c, 1, 67, 127
1, 78870, Note_on_c, 1, 55, 127
1, 78899, Note_off_c, 1, 67, 0
1, 78899, Note_off_c, 1, 55, 0
1, 78900, Note_on_c, 1, 69, 127
1, 78900, Note_on_c, 1, 54, 127
1, 78929, Note_off_c, 1, 69, 0
1, 78929, Note_off_c, 1, 54, 0
1, 78930, Note_on_c, 1, 71, 127
1, 78930, Note_on_c, 1, 52, 127
1, 78959, Note_off_c, 1, 71, 0
1, 78959, Note_off_c, 1, 52, 0
1, 78960, Note_on_c, 1, 72, 127
1, 78960, Note_on_c, 1, 78, 127
1, 78960, Note_on_c, 1, 69, 127
1, 78960, Note_on_c, 1, 62, 127
1, 78960, Note_on_c, 1, 50, 127
1, 78960, Note_on_c, 1, 57, 127
1, 78960, Note_on_c, 1, 54, 127
1, 78960, Note_on_c, 1, 74, 127
1, 78960, Note_on_c, 1, 38, 127
1, 78960, Note_on_c, 1, 26, 127
1, 79050, Note_on_c, 1, 71, 127
1, 79079, Note_off_c, 1, 71, 0
1, 79139, Note_off_c, 1, 50, 0
1, 79139, Note_off_c, 1, 57, 0
1, 79139, Note_off_c, 1, 54, 0
1, 79139, Note_off_c, 1, 74, 0
1, 79140, Note_off_c, 1, 72, 0
1, 79140, Note_off_c, 1, 78, 0
1, 79140, Note_off_c, 1, 69, 0
1, 79140, Note_off_c, 1, 38, 0
1, 79140, Note_off_c, 1, 26, 0
1, 79140, Note_on_c, 1, 79, 127
1, 79140, Note_on_c, 1, 67, 127
1, 79140, Note_on_c, 1, 55, 127
1, 79140, Note_on_c, 1, 43, 127
1, 79140, Note_on_c, 1, 31, 127
1, 79500, Note_off_c, 1, 62, 0
1, 79500, Note_off_c, 1, 79, 0
1, 79500, Note_off_c, 1, 67, 0
1, 79500, Note_off_c, 1, 55, 0
1, 79500, Note_off_c, 1, 43, 0
1, 79500, Note_off_c, 1, 31, 0
1, 80400, Note_on_c, 1, 72, 127
1, 80459, Note_off_c, 1, 72, 0
1, 80460, Note_on_c, 1, 67, 127
1, 80519, Note_off_c, 1, 67, 0
1, 80520, Note_on_c, 1, 72, 127
1, 80579, Note_off_c, 1, 72, 0
1, 80580, Note_on_c, 1, 65, 127
1, 80639, Note_off_c, 1, 65, 0
1, 80640, Note_on_c, 1, 72, 127
1, 80699, Note_off_c, 1, 72, 0
1, 80700, Note_on_c, 1, 63, 127
1, 80729, Note_off_c, 1, 63, 0
1, 80730, Note_on_c, 1, 62, 127
1, 80759, Note_off_c, 1, 62, 0
1, 80760, Note_on_c, 1, 63, 127
1, 80789, Note_off_c, 1, 63, 0
1, 80790, Note_on_c, 1, 62, 127
1, 80819, Note_off_c, 1, 62, 0
1, 80820, Note_on_c, 1, 60, 127
1, 80879, Note_off_c, 1, 60, 0
1, 80880, Note_on_c, 1, 75, 127
1, 80880, Note_on_c, 1, 72, 127
1, 80880, Note_on_c, 1, 67, 127
1, 80880, Note_on_c, 1, 60, 127
1, 80939, Note_off_c, 1, 75, 0
1, 80939, Note_off_c, 1, 72, 0
1, 80939, Note_off_c, 1, 67, 0
1, 80939, Note_off_c, 1, 60, 0
1, 80940, Note_on_c, 1, 74, 127
1, 80940, Note_on_c, 1, 55, 127
1, 80940, Note_on_c, 1, 58, 127
1, 80969, Note_off_c, 1, 58, 0
1, 80970, Note_on_c, 1, 60, 127
1, 80999, Note_off_c, 1, 74, 0
1, 80999, Note_off_c, 1, 55, 0
1, 80999, Note_off_c, 1, 60, 0
1, 81000, Note_on_c, 1, 79, 127
1, 81000, Note_on_c, 1, 62, 127
1, 81000, Note_on_c, 1, 55, 127
1, 81000, Note_on_c, 1, 58, 127
1, 81029, Note_off_c, 1, 58, 0
1, 81030, Note_on_c, 1, 60, 127
1, 81059, Note_off_c, 1, 62, 0
1, 81059, Note_off_c, 1, 55, 0
1, 81059, Note_off_c, 1, 60, 0
1, 81060, Note_on_c, 1, 63, 127
1, 81060, Note_on_c, 1, 56, 127
1, 81089, Note_off_c, 1, 56, 0
1, 81119, Note_off_c, 1, 79, 0
1, 81119, Note_off_c, 1, 63, 0
1, 81120, Note_on_c, 1, 72, 127
1, 81120, Note_on_c, 1, 65, 127
1, 81120, Note_on_c, 1, 60, 127
1, 81120, Note_on_c, 1, 56, 127
1, 81149, Note_off_c, 1, 56, 0
1, 81150, Note_on_c, 1, 58, 127
1, 81179, Note_off_c, 1, 72, 0
1, 81179, Note_off_c, 1, 65, 0
1, 81179, Note_off_c, 1, 60, 0
1, 81179, Note_off_c, 1, 58, 0
1, 81180, Note_on_c, 1, 71, 127
1, 81180, Note_on_c, 1, 67, 127
1, 81180, Note_on_c, 1, 62, 127
1, 81180, Note_on_c, 1, 55, 127
1, 81209, Note_off_c, 1, 71, 0
1, 81209, Note_off_c, 1, 67, 0
1, 81210, Note_on_c, 1, 69, 127
1, 81239, Note_off_c, 1, 62, 0
1, 81239, Note_off_c, 1, 55, 0
1, 81239, Note_off_c, 1, 69, 0
1, 81240, Note_on_c, 1, 71, 127
1, 81240, Note_on_c, 1, 67, 127
1, 81240, Note_on_c, 1, 62, 127
1, 81240, Note_on_c, 1, 50, 127
1, 81269, Note_off_c, 1, 71, 0
1, 81269, Note_off_c, 1, 67, 0
1, 81270, Note_on_c, 1, 69, 127
1, 81299, Note_off_c, 1, 62, 0
1, 81299, Note_off_c, 1, 50, 0
1, 81299, Note_off_c, 1, 69, 0
1, 81300, Note_on_c, 1, 67, 127
1, 81300, Note_on_c, 1, 71, 127
1, 81300, Note_on_c, 1, 62, 127
1, 81300, Note_on_c, 1, 43, 127
1, 81329, Note_off_c, 1, 67, 0
1, 81329, Note_off_c, 1, 71, 0
1, 81330, Note_on_c, 1, 69, 127
1, 81330, Note_on_c, 1, 72, 127
1, 81359, Note_off_c, 1, 62, 0
1, 81359, Note_off_c, 1, 43, 0
1, 81359, Note_off_c, 1, 69, 0
1, 81359, Note_off_c, 1, 72, 0
1, 81360, Note_on_c, 1, 71, 127
1, 81360, Note_on_c, 1, 74, 127
1, 81360, Note_on_c, 1, 62, 127
1, 81360, Note_on_c, 1, 53, 127
1, 81389, Note_off_c, 1, 71, 0
1, 81389, Note_off_c, 1, 74, 0
1, 81390, Note_on_c, 1, 67, 127
1, 81419, Note_off_c, 1, 62, 0
1, 81419, Note_off_c, 1, 53, 0
1, 81419, Note_off_c, 1, 67, 0
1, 81420, Note_on_c, 1, 72, 127
1, 81420, Note_on_c, 1, 67, 127
1, 81420, Note_on_c, 1, 63, 127
1, 81420, Note_on_c, 1, 51, 127
1, 81449, Note_off_c, 1, 51, 0
1, 81450, Note_on_c, 1, 53, 127
1, 81479, Note_off_c, 1, 72, 0
1, 81479, Note_off_c, 1, 67, 0
1, 81479, Note_off_c, 1, 63, 0
1, 81479, Note_off_c, 1, 53, 0
1, 81480, Note_on_c, 1, 67, 127
1, 81480, Note_on_c, 1, 72, 127
1, 81480, Note_on_c, 1, 63, 127
1, 81480, Note_on_c, 1, 51, 127
1, 81509, Note_off_c, 1, 51, 0
1, 81510, Note_on_c, 1, 53, 127
1, 81539, Note_off_c, 1, 67, 0
1, 81539, Note_off_c, 1, 63, 0
1, 81539, Note_off_c, 1, 53, 0
1, 81540, Note_on_c, 1, 74, 127
1, 81540, Note_on_c, 1, 65, 127
1, 81540, Note_on_c, 1, 50, 127
1, 81569, Note_off_c, 1, 50, 0
1, 81599, Note_off_c, 1, 72, 0
1, 81599, Note_off_c, 1, 74, 0
1, 81599, Note_off_c, 1, 65, 0
1, 81600, Note_on_c, 1, 67, 127
1, 81600, Note_on_c, 1, 71, 127
1, 81600, Note_on_c, 1, 65, 127
1, 81600, Note_on_c, 1, 50, 127
1, 81629, Note_off_c, 1, 50, 0
1, 81630, Note_on_c, 1, 51, 127
1, 81659, Note_off_c, 1, 67, 0
1, 81659, Note_off_c, 1, 71, 0
1, 81659, Note_off_c, 1, 65, 0
1, 81659, Note_off_c, 1, 51, 0
1, 81660, Note_on_c, 1, 77, 127
1, 81660, Note_on_c, 1, 72, 127
1, 81660, Note_on_c, 1, 67, 127
1, 81660, Note_on_c, 1, 48, 127
1, 81689, Note_off_c, 1, 48, 0
1, 81690, Note_on_c, 1, 50, 127
1, 81719, Note_off_c, 1, 77, 0
1, 81719, Note_off_c, 1, 50, 0
1, 81720, Note_on_c, 1, 75, 127
1, 81780, Note_on_c, 1, 46, 127
1, 81809, Note_off_c, 1, 75, 0
1, 81809, Note_off_c, 1, 46, 0
1, 81839, Note_off_c, 1, 72, 0
1, 81839, Note_off_c, 1, 67, 0
1, 81840, Note_on_c, 1, 74, 127
1, 81840, Note_on_c, 1, 67, 127
1, 81840, Note_on_c, 1, 46, 127
1, 81869, Note_off_c, 1, 74, 0
1, 81869, Note_off_c, 1, 46, 0
1, 81870, Note_on_c, 1, 76, 127
1, 81870, Note_on_c, 1, 48, 127
1, 81899, Note_off_c, 1, 67, 0
1, 81899, Note_off_c, 1, 76, 0
1, 81899, Note_off_c, 1, 48, 0
1, 81900, Note_on_c, 1, 77, 127
1, 81900, Note_on_c, 1, 72, 127
1, 81900, Note_on_c, 1, 68, 127
1, 81900, Note_on_c, 1, 44, 127
1, 81929, Note_off_c, 1, 44, 0
1, 81930, Note_on_c, 1, 46, 127
1, 81959, Note_off_c, 1, 77, 0
1, 81959, Note_off_c, 1, 72, 0
1, 81959, Note_off_c, 1, 68, 0
1, 81959, Note_off_c, 1, 46, 0
1, 81960, Note_on_c, 1, 72, 127
1, 81960, Note_on_c, 1, 77, 127
1, 81960, Note_on_c, 1, 68, 127
1, 81960, Note_on_c, 1, 44, 127
1, 81989, Note_off_c, 1, 44, 0
1, 81990, Note_on_c, 1, 46, 127
1, 82019, Note_off_c, 1, 72, 0
1, 82019, Note_off_c, 1, 68, 0
1, 82019, Note_off_c, 1, 46, 0
1, 82020, Note_on_c, 1, 79, 127
1, 82020, Note_on_c, 1, 70, 127
1, 82020, Note_on_c, 1, 43, 127
1, 82049, Note_off_c, 1, 43, 0
1, 82079, Note_off_c, 1, 77, 0
1, 82079, Note_off_c, 1, 79, 0
1, 82079, Note_off_c, 1, 70, 0
1, 82080, Note_on_c, 1, 72, 127
1, 82080, Note_on_c, 1, 76, 127
1, 82080, Note_on_c, 1, 70, 127
1, 82080, Note_on_c, 1, 43, 127
1, 82109, Note_off_c, 1, 43, 0
1, 82110, Note_on_c, 1, 44, 127
1, 82139, Note_off_c, 1, 72, 0
1, 82139, Note_off_c, 1, 76, 0
1, 82139, Note_off_c, 1, 70, 0
1, 82139, Note_off_c, 1, 44, 0
1, 82140, Note_on_c, 1, 82, 127
1, 82140, Note_on_c, 1, 77, 127
1, 82140, Note_on_c, 1, 72, 127
1, 82140, Note_on_c, 1, 41, 127
1, 82169, Note_off_c, 1, 41, 0
1, 82170, Note_on_c, 1, 40, 127
1, 82199, Note_off_c, 1, 82, 0
1, 82199, Note_off_c, 1, 40, 0
1, 82200, Note_on_c, 1, 80, 127
1, 82230, Note_on_c, 1, 43, 127
1, 82259, Note_off_c, 1, 43, 0
1, 82260, Note_on_c, 1, 44, 127
1, 82289, Note_off_c, 1, 80, 0
1, 82289, Note_off_c, 1, 44, 0
1, 82290, Note_on_c, 1, 79, 127
1, 82290, Note_on_c, 1, 46, 127
1, 82319, Note_off_c, 1, 77, 0
1, 82319, Note_off_c, 1, 72, 0
1, 82319, Note_off_c, 1, 79, 0
1, 82319, Note_off_c, 1, 46, 0
1, 82320, Note_on_c, 1, 80, 127
1, 82320, Note_on_c, 1, 72, 127
1, 82320, Note_on_c, 1, 65, 127
1, 82320, Note_on_c, 1, 48, 127
1, 82349, Note_off_c, 1, 80, 0
1, 82349, Note_off_c, 1, 48, 0
1, 82350, Note_on_c, 1, 77, 127
1, 82350, Note_on_c, 1, 50, 127
1, 82379, Note_off_c, 1, 72, 0
1, 82379, Note_off_c, 1, 65, 0
1, 82379, Note_off_c, 1, 77, 0
1, 82379, Note_off_c, 1, 50, 0
1, 82380, Note_on_c, 1, 72, 127
1, 82380, Note_on_c, 1, 79, 127
1, 82380, Note_on_c, 1, 67, 127
1, 82380, Note_on_c, 1, 52, 127
1, 82409, Note_off_c, 1, 72, 0
1, 82410, Note_on_c, 1, 71, 127
1, 82439, Note_off_c, 1, 79, 0
1, 82439, Note_off_c, 1, 67, 0
1, 82439, Note_off_c, 1, 52, 0
1, 82439, Note_off_c, 1, 71, 0
1, 82440, Note_on_c, 1, 72, 127
1, 82440, Note_on_c, 1, 67, 127
1, 82440, Note_on_c, 1, 55, 127
1, 82470, Note_on_c, 1, 74, 127
1, 82499, Note_off_c, 1, 72, 0
1, 82499, Note_off_c, 1, 67, 0
1, 82499, Note_off_c, 1, 55, 0
1, 82499, Note_off_c, 1, 74, 0
1, 82500, Note_on_c, 1, 76, 127
1, 82500, Note_on_c, 1, 79, 127
1, 82500, Note_on_c, 1, 72, 127
1, 82500, Note_on_c, 1, 48, 127
1, 82529, Note_off_c, 1, 76, 0
1, 82530, Note_on_c, 1, 77, 127
1, 82559, Note_off_c, 1, 79, 0
1, 82559, Note_off_c, 1, 72, 0
1, 82559, Note_off_c, 1, 48, 0
1, 82559, Note_off_c, 1, 77, 0
1, 82560, Note_on_c, 1, 79, 127
1, 82560, Note_on_c, 1, 72, 127
1, 82560, Note_on_c, 1, 52, 127
1, 82589, Note_off_c, 1, 79, 0
1, 82590, Note_on_c, 1, 80, 127
1, 82619, Note_off_c, 1, 72, 0
1, 82619, Note_off_c, 1, 52, 0
1, 82619, Note_off_c, 1, 80, 0
1, 82620, Note_on_c, 1, 82, 127
1, 82620, Note_on_c, 1, 77, 127
1, 82620, Note_on_c, 1, 72, 127
1, 82620, Note_on_c, 1, 53, 127
1, 82649, Note_off_c, 1, 82, 0
1, 82650, Note_on_c, 1, 79, 127
1, 82679, Note_off_c, 1, 77, 0
1, 82679, Note_off_c, 1, 72, 0
1, 82679, Note_off_c, 1, 53, 0
1, 82679, Note_off_c, 1, 79, 0
1, 82680, Note_on_c, 1, 80, 127
1, 82680, Note_on_c, 1, 72, 127
1, 82680, Note_on_c, 1, 68, 127
1, 82680, Note_on_c, 1, 41, 127
1, 82709, Note_off_c, 1, 80, 0
1, 82710, Note_on_c, 1, 77, 127
1, 82739, Note_off_c, 1, 72, 0
1, 82739, Note_off_c, 1, 68, 0
1, 82739, Note_off_c, 1, 41, 0
1, 82739, Note_off_c, 1, 77, 0
1, 82740, Note_on_c, 1, 72, 127
1, 82740, Note_on_c, 1, 77, 127
1, 82740, Note_on_c, 1, 65, 127
1, 82740, Note_on_c, 1, 44, 127
1, 82769, Note_off_c, 1, 72, 0
1, 82799, Note_off_c, 1, 77, 0
1, 82799, Note_off_c, 1, 65, 0
1, 82799, Note_off_c, 1, 44, 0
1, 82800, Note_on_c, 1, 80, 127
1, 82800, Note_on_c, 1, 72, 127
1, 82800, Note_on_c, 1, 65, 127
1, 82800, Note_on_c, 1, 48, 127
1, 82829, Note_off_c, 1, 80, 0
1, 82830, Note_on_c, 1, 77, 127
1, 82859, Note_off_c, 1, 72, 0
1, 82859, Note_off_c, 1, 65, 0
1, 82859, Note_off_c, 1, 48, 0
1, 82859, Note_off_c, 1, 77, 0
1, 82860, Note_on_c, 1, 72, 127
1, 82860, Note_on_c, 1, 79, 127
1, 82860, Note_on_c, 1, 67, 127
1, 82860, Note_on_c, 1, 52, 127
1, 82889, Note_off_c, 1, 72, 0
1, 82890, Note_on_c, 1, 71, 127
1, 82919, Note_off_c, 1, 79, 0
1, 82919, Note_off_c, 1, 67, 0
1, 82919, Note_off_c, 1, 52, 0
1, 82919, Note_off_c, 1, 71, 0
1, 82920, Note_on_c, 1, 72, 127
1, 82920, Note_on_c, 1, 67, 127
1, 82920, Note_on_c, 1, 55, 127
1, 82950, Note_on_c, 1, 74, 127
1, 82979, Note_off_c, 1, 72, 0
1, 82979, Note_off_c, 1, 67, 0
1, 82979, Note_off_c, 1, 55, 0
1, 82979, Note_off_c, 1, 74, 0
1, 82980, Note_on_c, 1, 76, 127
1, 82980, Note_on_c, 1, 79, 127
1, 82980, Note_on_c, 1, 72, 127
1, 82980, Note_on_c, 1, 48, 127
1, 83009, Note_off_c, 1, 76, 0
1, 83010, Note_on_c, 1, 77, 127
1, 83039, Note_off_c, 1, 79, 0
1, 83039, Note_off_c, 1, 72, 0
1, 83039, Note_off_c, 1, 48, 0
1, 83039, Note_off_c, 1, 77, 0
1, 83040, Note_on_c, 1, 79, 127
1, 83040, Note_on_c, 1, 72, 127
1, 83040, Note_on_c, 1, 52, 127
1, 83069, Note_off_c, 1, 79, 0
1, 83070, Note_on_c, 1, 80, 127
1, 83099, Note_off_c, 1, 72, 0
1, 83099, Note_off_c, 1, 52, 0
1, 83099, Note_off_c, 1, 80, 0
1, 83100, Note_on_c, 1, 82, 127
1, 83100, Note_on_c, 1, 77, 127
1, 83100, Note_on_c, 1, 72, 127
1, 83100, Note_on_c, 1, 53, 127
1, 83129, Note_off_c, 1, 82, 0
1, 83130, Note_on_c, 1, 79, 127
1, 83159, Note_off_c, 1, 77, 0
1, 83159, Note_off_c, 1, 72, 0
1, 83159, Note_off_c, 1, 53, 0
1, 83159, Note_off_c, 1, 79, 0
1, 83160, Note_on_c, 1, 80, 127
1, 83160, Note_on_c, 1, 72, 127
1, 83160, Note_on_c, 1, 68, 127
1, 83160, Note_on_c, 1, 41, 127
1, 83189, Note_off_c, 1, 80, 0
1, 83190, Note_on_c, 1, 77, 127
1, 83219, Note_off_c, 1, 72, 0
1, 83219, Note_off_c, 1, 68, 0
1, 83219, Note_off_c, 1, 41, 0
1, 83219, Note_off_c, 1, 77, 0
1, 83220, Note_on_c, 1, 72, 127
1, 83220, Note_on_c, 1, 77, 127
1, 83220, Note_on_c, 1, 65, 127
1, 83220, Note_on_c, 1, 44, 127
1, 83249, Note_off_c, 1, 72, 0
1, 83279, Note_off_c, 1, 77, 0
1, 83279, Note_off_c, 1, 65, 0
1, 83279, Note_off_c, 1, 44, 0
1, 83280, Note_on_c, 1, 80, 127
1, 83280, Note_on_c, 1, 72, 127
1, 83280, Note_on_c, 1, 65, 127
1, 83280, Note_on_c, 1, 48, 127
1, 83309, Note_off_c, 1, 80, 0
1, 83310, Note_on_c, 1, 77, 127
1, 83339, Note_off_c, 1, 72, 0
1, 83339, Note_off_c, 1, 65, 0
1, 83339, Note_off_c, 1, 48, 0
1, 83339, Note_off_c, 1, 77, 0
1, 83340, Note_on_c, 1, 70, 127
1, 83340, Note_on_c, 1, 77, 127
1, 83340, Note_on_c, 1, 65, 127
1, 83340, Note_on_c, 1, 50, 127
1, 83369, Note_off_c, 1, 70, 0
1, 83370, Note_on_c, 1, 69, 127
1, 83399, Note_off_c, 1, 77, 0
1, 83399, Note_off_c, 1, 65, 0
1, 83399, Note_off_c, 1, 50, 0
1, 83399, Note_off_c, 1, 69, 0
1, 83400, Note_on_c, 1, 70, 127
1, 83400, Note_on_c, 1, 65, 127
1, 83400, Note_on_c, 1, 53, 127
1, 83430, Note_on_c, 1, 72, 127
1, 83459, Note_off_c, 1, 70, 0
1, 83459, Note_off_c, 1, 65, 0
1, 83459, Note_off_c, 1, 53, 0
1, 83459, Note_off_c, 1, 72, 0
1, 83460, Note_on_c, 1, 74, 127
1, 83460, Note_on_c, 1, 77, 127
1, 83460, Note_on_c, 1, 70, 127
1, 83460, Note_on_c, 1, 46, 127
1, 83489, Note_off_c, 1, 74, 0
1, 83490, Note_on_c, 1, 75, 127
1, 83519, Note_off_c, 1, 77, 0
1, 83519, Note_off_c, 1, 70, 0
1, 83519, Note_off_c, 1, 46, 0
1, 83519, Note_off_c, 1, 75, 0
1, 83520, Note_on_c, 1, 77, 127
1, 83520, Note_on_c, 1, 70, 127
1, 83520, Note_on_c, 1, 50, 127
1, 83549, Note_off_c, 1, 77, 0
1, 83550, Note_on_c, 1, 79, 127
1, 83579, Note_off_c, 1, 70, 0
1, 83579, Note_off_c, 1, 50, 0
1, 83579, Note_off_c, 1, 79, 0
1, 83580, Note_on_c, 1, 80, 127
1, 83580, Note_on_c, 1, 75, 127
1, 83580, Note_on_c, 1, 70, 127
1, 83580, Note_on_c, 1, 51, 127
1, 83609, Note_off_c, 1, 80, 0
1, 83610, Note_on_c, 1, 77, 127
1, 83639, Note_off_c, 1, 75, 0
1, 83639, Note_off_c, 1, 70, 0
1, 83639, Note_off_c, 1, 51, 0
1, 83639, Note_off_c, 1, 77, 0
1, 83640, Note_on_c, 1, 79, 127
1, 83640, Note_on_c, 1, 70, 127
1, 83640, Note_on_c, 1, 65, 127
1, 83640, Note_on_c, 1, 39, 127
1, 83669, Note_off_c, 1, 79, 0
1, 83670, Note_on_c, 1, 75, 127
1, 83699, Note_off_c, 1, 70, 0
1, 83699, Note_off_c, 1, 65, 0
1, 83699, Note_off_c, 1, 39, 0
1, 83699, Note_off_c, 1, 75, 0
1, 83700, Note_on_c, 1, 70, 127
1, 83700, Note_on_c, 1, 75, 127
1, 83700, Note_on_c, 1, 63, 127
1, 83700, Note_on_c, 1, 43, 127
1, 83729, Note_off_c, 1, 70, 0
1, 83759, Note_off_c, 1, 75, 0
1, 83759, Note_off_c, 1, 63, 0
1, 83759, Note_off_c, 1, 43, 0
1, 83760, Note_on_c, 1, 79, 127
1, 83760, Note_on_c, 1, 70, 127
1, 83760, Note_on_c, 1, 63, 127
1, 83760, Note_on_c, 1, 46, 127
1, 83789, Note_off_c, 1, 79, 0
1, 83790, Note_on_c, 1, 75, 127
1, 83819, Note_off_c, 1, 70, 0
1, 83819, Note_off_c, 1, 63, 0
1, 83819, Note_off_c, 1, 46, 0
1, 83819, Note_off_c, 1, 75, 0
1, 83820, Note_on_c, 1, 70, 127
1, 83820, Note_on_c, 1, 77, 127
1, 83820, Note_on_c, 1, 65, 127
1, 83820, Note_on_c, 1, 50, 127
1, 83849, Note_off_c, 1, 70, 0
1, 83850, Note_on_c, 1, 69, 127
1, 83879, Note_off_c, 1, 77, 0
1, 83879, Note_off_c, 1, 65, 0
1, 83879, Note_off_c, 1, 50, 0
1, 83879, Note_off_c, 1, 69, 0
1, 83880, Note_on_c, 1, 70, 127
1, 83880, Note_on_c, 1, 65, 127
1, 83880, Note_on_c, 1, 53, 127
1, 83910, Note_on_c, 1, 72, 127
1, 83939, Note_off_c, 1, 70, 0
1, 83939, Note_off_c, 1, 65, 0
1, 83939, Note_off_c, 1, 53, 0
1, 83939, Note_off_c, 1, 72, 0
1, 83940, Note_on_c, 1, 74, 127
1, 83940, Note_on_c, 1, 77, 127
1, 83940, Note_on_c, 1, 70, 127
1, 83940, Note_on_c, 1, 46, 127
1, 83969, Note_off_c, 1, 74, 0
1, 83970, Note_on_c, 1, 75, 127
1, 83999, Note_off_c, 1, 77, 0
1, 83999, Note_off_c, 1, 70, 0
1, 83999, Note_off_c, 1, 46, 0
1, 83999, Note_off_c, 1, 75, 0
1, 84000, Note_on_c, 1, 77, 127
1, 84000, Note_on_c, 1, 70, 127
1, 84000, Note_on_c, 1, 50, 127
1, 84029, Note_off_c, 1, 77, 0
1, 84030, Note_on_c, 1, 79, 127
1, 84059, Note_off_c, 1, 70, 0
1, 84059, Note_off_c, 1, 50, 0
1, 84059, Note_off_c, 1, 79, 0
1, 84060, Note_on_c, 1, 80, 127
1, 84060, Note_on_c, 1, 75, 127
1, 84060, Note_on_c, 1, 70, 127
1, 84060, Note_on_c, 1, 39, 127
1, 84089, Note_off_c, 1, 80, 0
1, 84090, Note_on_c, 1, 77, 127
1, 84119, Note_off_c, 1, 75, 0
1, 84119, Note_off_c, 1, 70, 0
1, 84119, Note_off_c, 1, 39, 0
1, 84119, Note_off_c, 1, 77, 0
1, 84120, Note_on_c, 1, 79, 127
1, 84120, Note_on_c, 1, 70, 127
1, 84120, Note_on_c, 1, 67, 127
1, 84120, Note_on_c, 1, 51, 127
1, 84149, Note_off_c, 1, 79, 0
1, 84150, Note_on_c, 1, 75, 127
1, 84179, Note_off_c, 1, 70, 0
1, 84179, Note_off_c, 1, 67, 0
1, 84179, Note_off_c, 1, 51, 0
1, 84179, Note_off_c, 1, 75, 0
1, 84180, Note_on_c, 1, 70, 127
1, 84180, Note_on_c, 1, 75, 127
1, 84180, Note_on_c, 1, 63, 127
1, 84180, Note_on_c, 1, 55, 127
1, 84209, Note_off_c, 1, 70, 0
1, 84239, Note_off_c, 1, 75, 0
1, 84239, Note_off_c, 1, 63, 0
1, 84239, Note_off_c, 1, 55, 0
1, 84240, Note_on_c, 1, 79, 127
1, 84240, Note_on_c, 1, 70, 127
1, 84240, Note_on_c, 1, 63, 127
1, 84240, Note_on_c, 1, 51, 127
1, 84269, Note_off_c, 1, 79, 0
1, 84270, Note_on_c, 1, 75, 127
1, 84299, Note_off_c, 1, 70, 0
1, 84299, Note_off_c, 1, 63, 0
1, 84299, Note_off_c, 1, 51, 0
1, 84299, Note_off_c, 1, 75, 0
1, 84300, Note_on_c, 1, 77, 127
1, 84300, Note_on_c, 1, 71, 127
1, 84300, Note_on_c, 1, 68, 127
1, 84300, Note_on_c, 1, 50, 127
1, 84329, Note_off_c, 1, 68, 0
1, 84330, Note_on_c, 1, 70, 127
1, 84359, Note_off_c, 1, 77, 0
1, 84359, Note_off_c, 1, 71, 0
1, 84359, Note_off_c, 1, 50, 0
1, 84359, Note_off_c, 1, 70, 0
1, 84360, Note_on_c, 1, 72, 127
1, 84360, Note_on_c, 1, 68, 127
1, 84360, Note_on_c, 1, 56, 127
1, 84389, Note_off_c, 1, 68, 0
1, 84390, Note_on_c, 1, 70, 127
1, 84419, Note_off_c, 1, 56, 0
1, 84419, Note_off_c, 1, 70, 0
1, 84420, Note_on_c, 1, 77, 127
1, 84420, Note_on_c, 1, 48, 127
1, 84479, Note_off_c, 1, 72, 0
1, 84479, Note_off_c, 1, 77, 0
1, 84479, Note_off_c, 1, 48, 0
1, 84480, Note_on_c, 1, 74, 127
1, 84480, Note_on_c, 1, 68, 127
1, 84480, Note_on_c, 1, 56, 127
1, 84509, Note_off_c, 1, 68, 0
1, 84510, Note_on_c, 1, 70, 127
1, 84539, Note_off_c, 1, 74, 0
1, 84539, Note_off_c, 1, 56, 0
1, 84539, Note_off_c, 1, 70, 0
1, 84540, Note_on_c, 1, 77, 127
1, 84540, Note_on_c, 1, 74, 127
1, 84540, Note_on_c, 1, 67, 127
1, 84540, Note_on_c, 1, 47, 127
1, 84569, Note_off_c, 1, 67, 0
1, 84569, Note_off_c, 1, 47, 0
1, 84570, Note_on_c, 1, 65, 127
1, 84570, Note_on_c, 1, 45, 127
1, 84599, Note_off_c, 1, 65, 0
1, 84599, Note_off_c, 1, 45, 0
1, 84659, Note_off_c, 1, 77, 0
1, 84659, Note_off_c, 1, 74, 0
1, 84660, Note_on_c, 1, 67, 127
1, 84660, Note_on_c, 1, 43, 127
1, 84689, Note_off_c, 1, 43, 0
1, 84690, Note_on_c, 1, 75, 127
1, 84690, Note_on_c, 1, 72, 127
1, 84690, Note_on_c, 1, 45, 127
1, 84719, Note_off_c, 1, 75, 0
1, 84719, Note_off_c, 1, 72, 0
1, 84719, Note_off_c, 1, 45, 0
1, 84720, Note_on_c, 1, 74, 127
1, 84720, Note_on_c, 1, 47, 127
1, 84749, Note_off_c, 1, 74, 0
1, 84749, Note_off_c, 1, 47, 0
1, 84750, Note_on_c, 1, 77, 127
1, 84750, Note_on_c, 1, 71, 127
1, 84779, Note_off_c, 1, 67, 0
1, 84779, Note_off_c, 1, 77, 0
1, 84779, Note_off_c, 1, 71, 0
1, 84780, Note_on_c, 1, 75, 127
1, 84780, Note_on_c, 1, 72, 127
1, 84780, Note_on_c, 1, 48, 127
1, 84809, Note_off_c, 1, 75, 0
1, 84810, Note_on_c, 1, 74, 127
1, 84810, Note_on_c, 1, 68, 127
1, 84839, Note_off_c, 1, 72, 0
1, 84839, Note_off_c, 1, 48, 0
1, 84839, Note_off_c, 1, 74, 0
1, 84839, Note_off_c, 1, 68, 0
1, 84840, Note_on_c, 1, 75, 127
1, 84840, Note_on_c, 1, 67, 127
1, 84840, Note_on_c, 1, 55, 127
1, 84869, Note_off_c, 1, 67, 0
1, 84870, Note_on_c, 1, 68, 127
1, 84899, Note_off_c, 1, 55, 0
1, 84899, Note_off_c, 1, 68, 0
1, 84900, Note_on_c, 1, 72, 127
1, 84900, Note_on_c, 1, 46, 127
1, 84929, Note_off_c, 1, 75, 0
1, 84930, Note_on_c, 1, 74, 127
1, 84959, Note_off_c, 1, 72, 0
1, 84959, Note_off_c, 1, 46, 0
1, 84959, Note_off_c, 1, 74, 0
1, 84960, Note_on_c, 1, 75, 127
1, 84960, Note_on_c, 1, 67, 127
1, 84960, Note_on_c, 1, 55, 127
1, 84989, Note_off_c, 1, 67, 0
1, 84990, Note_on_c, 1, 68, 127
1, 85019, Note_off_c, 1, 55, 0
1, 85019, Note_off_c, 1, 68, 0
1, 85020, Note_on_c, 1, 72, 127
1, 85020, Note_on_c, 1, 66, 127
1, 85020, Note_on_c, 1, 45, 127
1, 85049, Note_off_c, 1, 75, 0
1, 85049, Note_off_c, 1, 66, 0
1, 85049, Note_off_c, 1, 45, 0
1, 85050, Note_on_c, 1, 43, 127
1, 85079, Note_off_c, 1, 43, 0
1, 85140, Note_on_c, 1, 69, 127
1, 85140, Note_on_c, 1, 42, 127
1, 85169, Note_off_c, 1, 42, 0
1, 85199, Note_off_c, 1, 72, 0
1, 85199, Note_off_c, 1, 69, 0
1, 85200, Note_on_c, 1, 74, 127
1, 85200, Note_on_c, 1, 62, 127
1, 85200, Note_on_c, 1, 66, 127
1, 85200, Note_on_c, 1, 45, 127
1, 85229, Note_off_c, 1, 74, 0
1, 85229, Note_off_c, 1, 45, 0
1, 85230, Note_on_c, 1, 72, 127
1, 85230, Note_on_c, 1, 42, 127
1, 85259, Note_off_c, 1, 62, 0
1, 85259, Note_off_c, 1, 66, 0
1, 85259, Note_off_c, 1, 72, 0
1, 85259, Note_off_c, 1, 42, 0
1, 85260, Note_on_c, 1, 71, 127
1, 85260, Note_on_c, 1, 67, 127
1, 85260, Note_on_c, 1, 62, 127
1, 85260, Note_on_c, 1, 43, 127
1, 85289, Note_off_c, 1, 43, 0
1, 85290, Note_on_c, 1, 44, 127
1, 85319, Note_off_c, 1, 71, 0
1, 85319, Note_off_c, 1, 67, 0
1, 85319, Note_off_c, 1, 62, 0
1, 85319, Note_off_c, 1, 44, 0
1, 85320, Note_on_c, 1, 74, 127
1, 85320, Note_on_c, 1, 71, 127
1, 85320, Note_on_c, 1, 67, 127
1, 85320, Note_on_c, 1, 43, 127
1, 85349, Note_off_c, 1, 43, 0
1, 85350, Note_on_c, 1, 44, 127
1, 85379, Note_off_c, 1, 74, 0
1, 85379, Note_off_c, 1, 71, 0
1, 85379, Note_off_c, 1, 67, 0
1, 85379, Note_off_c, 1, 44, 0
1, 85380, Note_on_c, 1, 65, 127
1, 85380, Note_on_c, 1, 74, 127
1, 85380, Note_on_c, 1, 71, 127
1, 85380, Note_on_c, 1, 43, 127
1, 85409, Note_off_c, 1, 43, 0
1, 85410, Note_on_c, 1, 44, 127
1, 85439, Note_off_c, 1, 65, 0
1, 85439, Note_off_c, 1, 71, 0
1, 85439, Note_off_c, 1, 44, 0
1, 85440, Note_on_c, 1, 59, 127
1, 85440, Note_on_c, 1, 41, 127
1, 85469, Note_off_c, 1, 41, 0
1, 85499, Note_off_c, 1, 59, 0
1, 85500, Note_on_c, 1, 63, 127
1, 85500, Note_on_c, 1, 60, 127
1, 85529, Note_off_c, 1, 63, 0
1, 85530, Note_on_c, 1, 62, 127
1, 85530, Note_on_c, 1, 56, 127
1, 85559, Note_off_c, 1, 74, 0
1, 85559, Note_off_c, 1, 62, 0
1, 85559, Note_off_c, 1, 56, 0
1, 85560, Note_on_c, 1, 72, 127
1, 85560, Note_on_c, 1, 55, 127
1, 85589, Note_off_c, 1, 72, 0
1, 85589, Note_off_c, 1, 55, 0
1, 85590, Note_on_c, 1, 53, 127
1, 85619, Note_off_c, 1, 60, 0
1, 85619, Note_off_c, 1, 53, 0
1, 85620, Note_on_c, 1, 60, 127
1, 85620, Note_on_c, 1, 72, 127
1, 85620, Note_on_c, 1, 51, 127
1, 85649, Note_off_c, 1, 51, 0
1, 85650, Note_on_c, 1, 65, 127
1, 85650, Note_on_c, 1, 56, 127
1, 85679, Note_off_c, 1, 60, 0
1, 85679, Note_off_c, 1, 72, 0
1, 85679, Note_off_c, 1, 65, 0
1, 85679, Note_off_c, 1, 56, 0
1, 85680, Note_on_c, 1, 75, 127
1, 85680, Note_on_c, 1, 60, 127
1, 85680, Note_on_c, 1, 63, 127
1, 85680, Note_on_c, 1, 55, 127
1, 85709, Note_off_c, 1, 75, 0
1, 85709, Note_off_c, 1, 60, 0
1, 85709, Note_off_c, 1, 63, 0
1, 85709, Note_off_c, 1, 55, 0
1, 85710, Note_on_c, 1, 77, 127
1, 85710, Note_on_c, 1, 62, 127
1, 85710, Note_on_c, 1, 53, 127
1, 85739, Note_off_c, 1, 77, 0
1, 85739, Note_off_c, 1, 62, 0
1, 85739, Note_off_c, 1, 53, 0
1, 85740, Note_on_c, 1, 79, 127
1, 85740, Note_on_c, 1, 63, 127
1, 85740, Note_on_c, 1, 60, 127
1, 85740, Note_on_c, 1, 51, 127
1, 85769, Note_off_c, 1, 51, 0
1, 85770, Note_on_c, 1, 56, 127
1, 85799, Note_off_c, 1, 79, 0
1, 85799, Note_off_c, 1, 63, 0
1, 85799, Note_off_c, 1, 60, 0
1, 85799, Note_off_c, 1, 56, 0
1, 85800, Note_on_c, 1, 72, 127
1, 85800, Note_on_c, 1, 68, 127
1, 85800, Note_on_c, 1, 62, 127
1, 85800, Note_on_c, 1, 55, 127
1, 85829, Note_off_c, 1, 55, 0
1, 85830, Note_on_c, 1, 53, 127
1, 85859, Note_off_c, 1, 72, 0
1, 85859, Note_off_c, 1, 68, 0
1, 85859, Note_off_c, 1, 62, 0
1, 85859, Note_off_c, 1, 53, 0
1, 85860, Note_on_c, 1, 67, 127
1, 85860, Note_on_c, 1, 63, 127
1, 85860, Note_on_c, 1, 55, 127
1, 85919, Note_off_c, 1, 67, 0
1, 85919, Note_off_c, 1, 63, 0
1, 85919, Note_off_c, 1, 55, 0
1, 85920, Note_on_c, 1, 71, 127
1, 85920, Note_on_c, 1, 67, 127
1, 85920, Note_on_c, 1, 62, 127
1, 85920, Note_on_c, 1, 43, 127
1, 85979, Note_off_c, 1, 71, 0
1, 85979, Note_off_c, 1, 67, 0
1, 85979, Note_off_c, 1, 62, 0
1, 85979, Note_off_c, 1, 43, 0
1, 85980, Note_on_c, 1, 72, 127
1, 85980, Note_on_c, 1, 67, 127
1, 85980, Note_on_c, 1, 63, 127
1, 85980, Note_on_c, 1, 48, 127
1, 86039, Note_off_c, 1, 48, 0
1, 86040, Note_on_c, 1, 43, 127
1, 86099, Note_off_c, 1, 72, 0
1, 86099, Note_off_c, 1, 67, 0
1, 86099, Note_off_c, 1, 63, 0
1, 86099, Note_off_c, 1, 43, 0
1, 86100, Note_on_c, 1, 36, 127
1, 86159, Note_off_c, 1, 36, 0
1, 86160, Note_on_c, 1, 60, 127
1, 86160, Note_on_c, 1, 72, 127
1, 86189, Note_off_c, 1, 60, 0
1, 86190, Note_on_c, 1, 62, 127
1, 86219, Note_off_c, 1, 72, 0
1, 86219, Note_off_c, 1, 62, 0
1, 86220, Note_on_c, 1, 63, 127
1, 86220, Note_on_c, 1, 67, 127
1, 86249, Note_off_c, 1, 63, 0
1, 86250, Note_on_c, 1, 65, 127
1, 86279, Note_off_c, 1, 67, 0
1, 86279, Note_off_c, 1, 65, 0
1, 86280, Note_on_c, 1, 63, 127
1, 86280, Note_on_c, 1, 72, 127
1, 86309, Note_off_c, 1, 63, 0
1, 86310, Note_on_c, 1, 65, 127
1, 86339, Note_off_c, 1, 72, 0
1, 86339, Note_off_c, 1, 65, 0
1, 86340, Note_on_c, 1, 62, 127
1, 86340, Note_on_c, 1, 65, 127
1, 86369, Note_off_c, 1, 62, 0
1, 86370, Note_on_c, 1, 63, 127
1, 86399, Note_off_c, 1, 65, 0
1, 86399, Note_off_c, 1, 63, 0
1, 86400, Note_on_c, 1, 62, 127
1, 86400, Note_on_c, 1, 72, 127
1, 86429, Note_off_c, 1, 62, 0
1, 86430, Note_on_c, 1, 63, 127
1, 86459, Note_off_c, 1, 72, 0
1, 86459, Note_off_c, 1, 63, 0
1, 86460, Note_on_c, 1, 60, 127
1, 86460, Note_on_c, 1, 63, 127
1, 86489, Note_off_c, 1, 63, 0
1, 86490, Note_on_c, 1, 62, 127
1, 86519, Note_off_c, 1, 60, 0
1, 86519, Note_off_c, 1, 62, 0
1, 86520, Note_on_c, 1, 67, 127
1, 86520, Note_on_c, 1, 63, 127
1, 86549, Note_off_c, 1, 63, 0
1, 86550, Note_on_c, 1, 62, 127
1, 86579, Note_off_c, 1, 67, 0
1, 86579, Note_off_c, 1, 62, 0
1, 86580, Note_on_c, 1, 75, 127
1, 86580, Note_on_c, 1, 60, 127
1, 86639, Note_off_c, 1, 75, 0
1, 86640, Note_on_c, 1, 72, 127
1, 86640, Note_on_c, 1, 67, 127
1, 86640, Note_on_c, 1, 63, 127
1, 86640, Note_on_c, 1, 48, 127
1, 86669, Note_off_c, 1, 67, 0
1, 86669, Note_off_c, 1, 63, 0
1, 86669, Note_off_c, 1, 48, 0
1, 86670, Note_on_c, 1, 65, 127
1, 86670, Note_on_c, 1, 50, 127
1, 86699, Note_off_c, 1, 72, 0
1, 86699, Note_off_c, 1, 65, 0
1, 86699, Note_off_c, 1, 50, 0
1, 86700, Note_on_c, 1, 51, 127
1, 86730, Note_on_c, 1, 68, 127
1, 86759, Note_off_c, 1, 60, 0
1, 86759, Note_off_c, 1, 51, 0
1, 86759, Note_off_c, 1, 68, 0
1, 86760, Note_on_c, 1, 72, 127
1, 86760, Note_on_c, 1, 67, 127
1, 86760, Note_on_c, 1, 63, 127
1, 86760, Note_on_c, 1, 48, 127
1, 86760, Note_on_c, 1, 51, 127
1, 86789, Note_off_c, 1, 67, 0
1, 86789, Note_off_c, 1, 63, 0
1, 86789, Note_off_c, 1, 51, 0
1, 86790, Note_on_c, 1, 68, 127
1, 86790, Note_on_c, 1, 65, 127
1, 86819, Note_off_c, 1, 48, 0
1, 86819, Note_off_c, 1, 68, 0
1, 86819, Note_off_c, 1, 65, 0
1, 86820, Note_on_c, 1, 62, 127
1, 86820, Note_on_c, 1, 55, 127
1, 86849, Note_off_c, 1, 62, 0
1, 86850, Note_on_c, 1, 53, 127
1, 86879, Note_off_c, 1, 72, 0
1, 86879, Note_off_c, 1, 55, 0
1, 86879, Note_off_c, 1, 53, 0
1, 86880, Note_on_c, 1, 74, 127
1, 86880, Note_on_c, 1, 65, 127
1, 86880, Note_on_c, 1, 62, 127
1, 86880, Note_on_c, 1, 43, 127
1, 86880, Note_on_c, 1, 55, 127
1, 86880, Note_on_c, 1, 71, 127
1, 86909, Note_off_c, 1, 65, 0
1, 86909, Note_off_c, 1, 62, 0
1, 86909, Note_off_c, 1, 55, 0
1, 86910, Note_on_c, 1, 67, 127
1, 86910, Note_on_c, 1, 63, 127
1, 86939, Note_off_c, 1, 74, 0
1, 86939, Note_off_c, 1, 43, 0
1, 86939, Note_off_c, 1, 71, 0
1, 86939, Note_off_c, 1, 67, 0
1, 86939, Note_off_c, 1, 63, 0
1, 86940, Note_on_c, 1, 63, 127
1, 86940, Note_on_c, 1, 60, 127
1, 86940, Note_on_c, 1, 48, 127
1, 86940, Note_on_c, 1, 72, 127
1, 86969, Note_off_c, 1, 63, 0
1, 86969, Note_off_c, 1, 60, 0
1, 86969, Note_off_c, 1, 72, 0
1, 86970, Note_on_c, 1, 62, 127
1, 86970, Note_on_c, 1, 65, 127
1, 86970, Note_on_c, 1, 59, 127
1, 86970, Note_on_c, 1, 74, 127
1, 86999, Note_off_c, 1, 48, 0
1, 86999, Note_off_c, 1, 62, 0
1, 86999, Note_off_c, 1, 65, 0
1, 86999, Note_off_c, 1, 59, 0
1, 86999, Note_off_c, 1, 74, 0
1, 87000, Note_on_c, 1, 63, 127
1, 87000, Note_on_c, 1, 60, 127
1, 87000, Note_on_c, 1, 43, 127
1, 87000, Note_on_c, 1, 72, 127
1, 87029, Note_off_c, 1, 63, 0
1, 87029, Note_off_c, 1, 60, 0
1, 87029, Note_off_c, 1, 72, 0
1, 87030, Note_on_c, 1, 62, 127
1, 87030, Note_on_c, 1, 65, 127
1, 87030, Note_on_c, 1, 59, 127
1, 87030, Note_on_c, 1, 74, 127
1, 87059, Note_off_c, 1, 43, 0
1, 87059, Note_off_c, 1, 62, 0
1, 87059, Note_off_c, 1, 65, 0
1, 87059, Note_off_c, 1, 59, 0
1, 87059, Note_off_c, 1, 74, 0
1, 87060, Note_on_c, 1, 60, 127
1, 87060, Note_on_c, 1, 67, 127
1, 87060, Note_on_c, 1, 36, 127
1, 87060, Note_on_c, 1, 75, 127
1, 87090, Note_on_c, 1, 62, 127
1, 87119, Note_off_c, 1, 60, 0
1, 87119, Note_off_c, 1, 67, 0
1, 87119, Note_off_c, 1, 36, 0
1, 87119, Note_off_c, 1, 75, 0
1, 87119, Note_off_c, 1, 62, 0
1, 87120, Note_on_c, 1, 63, 127
1, 87120, Note_on_c, 1, 74, 127
1, 87149, Note_off_c, 1, 63, 0
1, 87149, Note_off_c, 1, 74, 0
1, 87150, Note_on_c, 1, 65, 127
1, 87150, Note_on_c, 1, 72, 127
1, 87179, Note_off_c, 1, 65, 0
1, 87179, Note_off_c, 1, 72, 0
1, 87180, Note_on_c, 1, 67, 127
1, 87180, Note_on_c, 1, 70, 127
1, 87209, Note_off_c, 1, 67, 0
1, 87210, Note_on_c, 1, 68, 127
1, 87239, Note_off_c, 1, 70, 0
1, 87239, Note_off_c, 1, 68, 0
1, 87240, Note_on_c, 1, 67, 127
1, 87240, Note_on_c, 1, 75, 127
1, 87269, Note_off_c, 1, 67, 0
1, 87270, Note_on_c, 1, 68, 127
1, 87299, Note_off_c, 1, 75, 0
1, 87299, Note_off_c, 1, 68, 0
1, 87300, Note_on_c, 1, 65, 127
1, 87300, Note_on_c, 1, 68, 127
1, 87329, Note_off_c, 1, 65, 0
1, 87330, Note_on_c, 1, 67, 127
1, 87359, Note_off_c, 1, 68, 0
1, 87359, Note_off_c, 1, 67, 0
1, 87360, Note_on_c, 1, 65, 127
1, 87360, Note_on_c, 1, 75, 127
1, 87389, Note_off_c, 1, 65, 0
1, 87390, Note_on_c, 1, 67, 127
1, 87419, Note_off_c, 1, 75, 0
1, 87419, Note_off_c, 1, 67, 0
1, 87420, Note_on_c, 1, 63, 127
1, 87420, Note_on_c, 1, 67, 127
1, 87449, Note_off_c, 1, 67, 0
1, 87450, Note_on_c, 1, 65, 127
1, 87479, Note_off_c, 1, 63, 0
1, 87479, Note_off_c, 1, 65, 0
1, 87480, Note_on_c, 1, 70, 127
1, 87480, Note_on_c, 1, 67, 127
1, 87509, Note_off_c, 1, 67, 0
1, 87510, Note_on_c, 1, 65, 127
1, 87539, Note_off_c, 1, 70, 0
1, 87539, Note_off_c, 1, 65, 0
1, 87540, Note_on_c, 1, 79, 127
1, 87540, Note_on_c, 1, 63, 127
1, 87599, Note_off_c, 1, 79, 0
1, 87600, Note_on_c, 1, 75, 127
1, 87600, Note_on_c, 1, 70, 127
1, 87600, Note_on_c, 1, 67, 127
1, 87600, Note_on_c, 1, 51, 127
1, 87629, Note_off_c, 1, 70, 0
1, 87629, Note_off_c, 1, 67, 0
1, 87629, Note_off_c, 1, 51, 0
1, 87630, Note_on_c, 1, 68, 127
1, 87630, Note_on_c, 1, 53, 127
1, 87659, Note_off_c, 1, 75, 0
1, 87659, Note_off_c, 1, 68, 0
1, 87659, Note_off_c, 1, 53, 0
1, 87660, Note_on_c, 1, 55, 127
1, 87690, Note_on_c, 1, 72, 127
1, 87719, Note_off_c, 1, 63, 0
1, 87719, Note_off_c, 1, 55, 0
1, 87719, Note_off_c, 1, 72, 0
1, 87720, Note_on_c, 1, 75, 127
1, 87720, Note_on_c, 1, 70, 127
1, 87720, Note_on_c, 1, 67, 127
1, 87720, Note_on_c, 1, 51, 127
1, 87720, Note_on_c, 1, 55, 127
1, 87749, Note_off_c, 1, 70, 0
1, 87749, Note_off_c, 1, 67, 0
1, 87749, Note_off_c, 1, 55, 0
1, 87750, Note_on_c, 1, 72, 127
1, 87750, Note_on_c, 1, 68, 127
1, 87779, Note_off_c, 1, 51, 0
1, 87779, Note_off_c, 1, 72, 0
1, 87779, Note_off_c, 1, 68, 0
1, 87780, Note_on_c, 1, 65, 127
1, 87780, Note_on_c, 1, 58, 127
1, 87809, Note_off_c, 1, 65, 0
1, 87810, Note_on_c, 1, 56, 127
1, 87839, Note_off_c, 1, 75, 0
1, 87839, Note_off_c, 1, 58, 0
1, 87839, Note_off_c, 1, 56, 0
1, 87840, Note_on_c, 1, 77, 127
1, 87840, Note_on_c, 1, 68, 127
1, 87840, Note_on_c, 1, 65, 127
1, 87840, Note_on_c, 1, 46, 127
1, 87840, Note_on_c, 1, 58, 127
1, 87840, Note_on_c, 1, 74, 127
1, 87869, Note_off_c, 1, 68, 0
1, 87869, Note_off_c, 1, 65, 0
1, 87869, Note_off_c, 1, 58, 0
1, 87870, Note_on_c, 1, 70, 127
1, 87870, Note_on_c, 1, 67, 127
1, 87899, Note_off_c, 1, 77, 0
1, 87899, Note_off_c, 1, 46, 0
1, 87899, Note_off_c, 1, 74, 0
1, 87899, Note_off_c, 1, 70, 0
1, 87899, Note_off_c, 1, 67, 0
1, 87900, Note_on_c, 1, 67, 127
1, 87900, Note_on_c, 1, 63, 127
1, 87900, Note_on_c, 1, 51, 127
1, 87900, Note_on_c, 1, 75, 127
1, 87929, Note_off_c, 1, 67, 0
1, 87929, Note_off_c, 1, 63, 0
1, 87929, Note_off_c, 1, 75, 0
1, 87930, Note_on_c, 1, 65, 127
1, 87930, Note_on_c, 1, 68, 127
1, 87930, Note_on_c, 1, 62, 127
1, 87930, Note_on_c, 1, 77, 127
1, 87959, Note_off_c, 1, 51, 0
1, 87959, Note_off_c, 1, 65, 0
1, 87959, Note_off_c, 1, 68, 0
1, 87959, Note_off_c, 1, 62, 0
1, 87959, Note_off_c, 1, 77, 0
1, 87960, Note_on_c, 1, 67, 127
1, 87960, Note_on_c, 1, 63, 127
1, 87960, Note_on_c, 1, 46, 127
1, 87960, Note_on_c, 1, 75, 127
1, 87989, Note_off_c, 1, 67, 0
1, 87989, Note_off_c, 1, 63, 0
1, 87989, Note_off_c, 1, 75, 0
1, 87990, Note_on_c, 1, 65, 127
1, 87990, Note_on_c, 1, 68, 127
1, 87990, Note_on_c, 1, 62, 127
1, 87990, Note_on_c, 1, 77, 127
1, 88019, Note_off_c, 1, 46, 0
1, 88019, Note_off_c, 1, 65, 0
1, 88019, Note_off_c, 1, 68, 0
1, 88019, Note_off_c, 1, 62, 0
1, 88019, Note_off_c, 1, 77, 0
1, 88020, Note_on_c, 1, 63, 127
1, 88020, Note_on_c, 1, 70, 127
1, 88020, Note_on_c, 1, 39, 127
1, 88020, Note_on_c, 1, 79, 127
1, 88050, Note_on_c, 1, 67, 127
1, 88050, Note_on_c, 1, 51, 127
1, 88079, Note_off_c, 1, 63, 0
1, 88079, Note_off_c, 1, 70, 0
1, 88079, Note_off_c, 1, 39, 0
1, 88079, Note_off_c, 1, 67, 0
1, 88079, Note_off_c, 1, 51, 0
1, 88080, Note_on_c, 1, 55, 127
1, 88109, Note_off_c, 1, 55, 0
1, 88110, Note_on_c, 1, 73, 127
1, 88139, Note_off_c, 1, 73, 0
1, 88140, Note_on_c, 1, 68, 127
1, 88140, Note_on_c, 1, 56, 127
1, 88140, Note_on_c, 1, 72, 127
1, 88169, Note_off_c, 1, 72, 0
1, 88170, Note_on_c, 1, 75, 127
1, 88170, Note_on_c, 1, 60, 127
1, 88199, Note_off_c, 1, 79, 0
1, 88199, Note_off_c, 1, 56, 0
1, 88199, Note_off_c, 1, 75, 0
1, 88199, Note_off_c, 1, 60, 0
1, 88200, Note_on_c, 1, 53, 127
1, 88200, Note_on_c, 1, 77, 127
1, 88200, Note_on_c, 1, 80, 127
1, 88229, Note_off_c, 1, 77, 0
1, 88229, Note_off_c, 1, 80, 0
1, 88259, Note_off_c, 1, 53, 0
1, 88260, Note_on_c, 1, 50, 127
1, 88290, Note_on_c, 1, 58, 127
1, 88319, Note_off_c, 1, 50, 0
1, 88319, Note_off_c, 1, 58, 0
1, 88320, Note_on_c, 1, 46, 127
1, 88320, Note_on_c, 1, 74, 127
1, 88349, Note_off_c, 1, 74, 0
1, 88379, Note_off_c, 1, 68, 0
1, 88379, Note_off_c, 1, 46, 0
1, 88380, Note_on_c, 1, 67, 127
1, 88380, Note_on_c, 1, 70, 127
1, 88380, Note_on_c, 1, 63, 127
1, 88380, Note_on_c, 1, 77, 127
1, 88380, Note_on_c, 1, 51, 127
1, 88394, Note_off_c, 1, 77, 0
1, 88395, Note_on_c, 1, 79, 127
1, 88409, Note_off_c, 1, 70, 0
1, 88409, Note_off_c, 1, 63, 0
1, 88409, Note_off_c, 1, 79, 0
1, 88410, Note_on_c, 1, 74, 127
1, 88410, Note_on_c, 1, 58, 127
1, 88439, Note_off_c, 1, 51, 0
1, 88439, Note_off_c, 1, 74, 0
1, 88439, Note_off_c, 1, 58, 0
1, 88440, Note_on_c, 1, 75, 127
1, 88440, Note_on_c, 1, 55, 127
1, 88470, Note_on_c, 1, 50, 127
1, 88499, Note_off_c, 1, 75, 0
1, 88499, Note_off_c, 1, 55, 0
1, 88499, Note_off_c, 1, 50, 0
1, 88500, Note_on_c, 1, 48, 127
1, 88530, Note_on_c, 1, 60, 127
1, 88559, Note_off_c, 1, 48, 0
1, 88559, Note_off_c, 1, 60, 0
1, 88560, Note_on_c, 1, 44, 127
1, 88560, Note_on_c, 1, 56, 127
1, 88560, Note_on_c, 1, 59, 127
1, 88589, Note_off_c, 1, 59, 0
1, 88590, Note_off_c, 1, 44, 0
1, 88590, Note_on_c, 1, 72, 127
1, 88619, Note_off_c, 1, 67, 0
1, 88619, Note_off_c, 1, 56, 0
1, 88619, Note_off_c, 1, 72, 0
1, 88620, Note_on_c, 1, 65, 127
1, 88620, Note_on_c, 1, 71, 127
1, 88649, Note_off_c, 1, 71, 0
1, 88680, Note_on_c, 1, 53, 127
1, 88709, Note_off_c, 1, 53, 0
1, 88740, Note_on_c, 1, 47, 127
1, 88799, Note_off_c, 1, 47, 0
1, 88800, Note_on_c, 1, 43, 127
1, 88830, Note_on_c, 1, 69, 127
1, 88859, Note_off_c, 1, 65, 0
1, 88859, Note_off_c, 1, 43, 0
1, 88859, Note_off_c, 1, 69, 0
1, 88860, Note_on_c, 1, 63, 127
1, 88860, Note_on_c, 1, 67, 127
1, 88860, Note_on_c, 1, 60, 127
1, 88860, Note_on_c, 1, 74, 127
1, 88860, Note_on_c, 1, 48, 127
1, 88874, Note_off_c, 1, 74, 0
1, 88875, Note_on_c, 1, 75, 127
1, 88889, Note_off_c, 1, 67, 0
1, 88889, Note_off_c, 1, 60, 0
1, 88889, Note_off_c, 1, 75, 0
1, 88890, Note_on_c, 1, 71, 127
1, 88890, Note_on_c, 1, 55, 127
1, 88919, Note_off_c, 1, 48, 0
1, 88919, Note_off_c, 1, 71, 0
1, 88919, Note_off_c, 1, 55, 0
1, 88920, Note_on_c, 1, 72, 127
1, 88920, Note_on_c, 1, 51, 127
1, 88950, Note_on_c, 1, 46, 127
1, 88979, Note_off_c, 1, 72, 0
1, 88979, Note_off_c, 1, 51, 0
1, 88979, Note_off_c, 1, 46, 0
1, 88980, Note_on_c, 1, 45, 127
1, 89039, Note_off_c, 1, 45, 0
1, 89040, Note_on_c, 1, 43, 127
1, 89040, Note_on_c, 1, 69, 127
1, 89069, Note_off_c, 1, 69, 0
1, 89070, Note_on_c, 1, 70, 127
1, 89099, Note_off_c, 1, 63, 0
1, 89099, Note_off_c, 1, 43, 0
1, 89099, Note_off_c, 1, 70, 0
1, 89100, Note_on_c, 1, 42, 127
1, 89100, Note_on_c, 1, 72, 127
1, 89100, Note_on_c, 1, 54, 127
1, 89100, Note_on_c, 1, 69, 127
1, 89129, Note_off_c, 1, 72, 0
1, 89130, Note_on_c, 1, 74, 127
1, 89159, Note_off_c, 1, 42, 0
1, 89159, Note_off_c, 1, 54, 0
1, 89159, Note_off_c, 1, 69, 0
1, 89159, Note_off_c, 1, 74, 0
1, 89160, Note_on_c, 1, 62, 127
1, 89160, Note_on_c, 1, 54, 127
1, 89160, Note_on_c, 1, 72, 127
1, 89160, Note_on_c, 1, 50, 127
1, 89160, Note_on_c, 1, 74, 127
1, 89160, Note_on_c, 1, 57, 127
1, 89189, Note_off_c, 1, 72, 0
1, 89189, Note_off_c, 1, 57, 0
1, 89219, Note_off_c, 1, 62, 0
1, 89219, Note_off_c, 1, 54, 0
1, 89219, Note_off_c, 1, 50, 0
1, 89219, Note_off_c, 1, 74, 0
1, 89220, Note_on_c, 1, 62, 127
1, 89220, Note_on_c, 1, 55, 127
1, 89220, Note_on_c, 1, 70, 127
1, 89220, Note_on_c, 1, 67, 127
1, 89249, Note_off_c, 1, 70, 0
1, 89250, Note_on_c, 1, 72, 127
1, 89250, Note_on_c, 1, 54, 127
1, 89279, Note_off_c, 1, 62, 0
1, 89279, Note_off_c, 1, 55, 0
1, 89279, Note_off_c, 1, 67, 0
1, 89279, Note_off_c, 1, 72, 0
1, 89279, Note_off_c, 1, 54, 0
1, 89280, Note_on_c, 1, 67, 127
1, 89280, Note_on_c, 1, 51, 127
1, 89280, Note_on_c, 1, 70, 127
1, 89280, Note_on_c, 1, 55, 127
1, 89280, Note_on_c, 1, 75, 127
1, 89280, Note_on_c, 1, 48, 127
1, 89309, Note_off_c, 1, 70, 0
1, 89309, Note_off_c, 1, 55, 0
1, 89310, Note_on_c, 1, 72, 127
1, 89339, Note_off_c, 1, 67, 0
1, 89339, Note_off_c, 1, 51, 0
1, 89339, Note_off_c, 1, 75, 0
1, 89339, Note_off_c, 1, 48, 0
1, 89339, Note_off_c, 1, 72, 0
1, 89340, Note_on_c, 1, 62, 127
1, 89340, Note_on_c, 1, 50, 127
1, 89340, Note_on_c, 1, 69, 127
1, 89340, Note_on_c, 1, 66, 127
1, 89369, Note_off_c, 1, 69, 0
1, 89369, Note_off_c, 1, 66, 0
1, 89370, Note_on_c, 1, 70, 127
1, 89370, Note_on_c, 1, 64, 127
1, 89399, Note_off_c, 1, 70, 0
1, 89399, Note_off_c, 1, 64, 0
1, 89459, Note_off_c, 1, 62, 0
1, 89460, Note_on_c, 1, 72, 127
1, 89460, Note_on_c, 1, 54, 127
1, 89489, Note_off_c, 1, 72, 0
1, 89490, Note_on_c, 1, 74, 127
1, 89519, Note_off_c, 1, 54, 0
1, 89519, Note_off_c, 1, 74, 0
1, 89520, Note_on_c, 1, 55, 127
1, 89520, Note_on_c, 1, 79, 127
1, 89579, Note_off_c, 1, 55, 0
1, 89579, Note_off_c, 1, 79, 0
1, 89580, Note_on_c, 1, 60, 127
1, 89580, Note_on_c, 1, 78, 127
1, 89609, Note_off_c, 1, 78, 0
1, 89639, Note_off_c, 1, 60, 0
1, 89700, Note_on_c, 1, 58, 127
1, 89700, Note_on_c, 1, 67, 127
1, 89700, Note_on_c, 1, 76, 127
1, 89729, Note_off_c, 1, 67, 0
1, 89729, Note_off_c, 1, 76, 0
1, 89759, Note_off_c, 1, 58, 0
1, 89820, Note_on_c, 1, 57, 127
1, 89879, Note_off_c, 1, 57, 0
1, 89970, Note_off_c, 1, 50, 0
1, 89970, Note_on_c, 1, 51, 127
1, 89999, Note_off_c, 1, 51, 0
1, 90000, Note_on_c, 1, 79, 127
1, 90000, Note_on_c, 1, 48, 127
1, 90029, Note_off_c, 1, 48, 0
1, 90030, Note_on_c, 1, 50, 127
1, 90059, Note_off_c, 1, 79, 0
1, 90059, Note_off_c, 1, 50, 0
1, 90060, Note_on_c, 1, 74, 127
1, 90060, Note_on_c, 1, 46, 127
1, 90089, Note_off_c, 1, 46, 0
1, 90090, Note_on_c, 1, 48, 127
1, 90119, Note_off_c, 1, 74, 0
1, 90119, Note_off_c, 1, 48, 0
1, 90120, Note_on_c, 1, 79, 127
1, 90120, Note_on_c, 1, 46, 127
1, 90149, Note_off_c, 1, 46, 0
1, 90150, Note_on_c, 1, 48, 127
1, 90179, Note_off_c, 1, 79, 0
1, 90179, Note_off_c, 1, 48, 0
1, 90180, Note_on_c, 1, 72, 127
1, 90180, Note_on_c, 1, 45, 127
1, 90209, Note_off_c, 1, 45, 0
1, 90210, Note_on_c, 1, 46, 127
1, 90239, Note_off_c, 1, 72, 0
1, 90239, Note_off_c, 1, 46, 0
1, 90240, Note_on_c, 1, 79, 127
1, 90240, Note_on_c, 1, 45, 127
1, 90269, Note_off_c, 1, 45, 0
1, 90270, Note_on_c, 1, 46, 127
1, 90299, Note_off_c, 1, 79, 0
1, 90299, Note_off_c, 1, 46, 0
1, 90300, Note_on_c, 1, 70, 127
1, 90300, Note_on_c, 1, 43, 127
1, 90329, Note_off_c, 1, 70, 0
1, 90330, Note_on_c, 1, 69, 127
1, 90359, Note_off_c, 1, 43, 0
1, 90359, Note_off_c, 1, 69, 0
1, 90360, Note_on_c, 1, 70, 127
1, 90360, Note_on_c, 1, 62, 127
1, 90389, Note_off_c, 1, 70, 0
1, 90390, Note_on_c, 1, 69, 127
1, 90390, Note_on_c, 1, 60, 127
1, 90419, Note_off_c, 1, 62, 0
1, 90419, Note_off_c, 1, 69, 0
1, 90419, Note_off_c, 1, 60, 0
1, 90420, Note_on_c, 1, 67, 127
1, 90420, Note_on_c, 1, 58, 127
1, 90450, Note_on_c, 1, 57, 127
1, 90479, Note_off_c, 1, 67, 0
1, 90479, Note_off_c, 1, 58, 0
1, 90479, Note_off_c, 1, 57, 0
1, 90480, Note_on_c, 1, 82, 127
1, 90480, Note_on_c, 1, 79, 127
1, 90480, Note_on_c, 1, 74, 127
1, 90480, Note_on_c, 1, 55, 127
1, 90510, Note_on_c, 1, 57, 127
1, 90539, Note_off_c, 1, 82, 0
1, 90539, Note_off_c, 1, 79, 0
1, 90539, Note_off_c, 1, 74, 0
1, 90539, Note_off_c, 1, 55, 0
1, 90539, Note_off_c, 1, 57, 0
1, 90540, Note_on_c, 1, 81, 127
1, 90540, Note_on_c, 1, 62, 127
1, 90540, Note_on_c, 1, 53, 127
1, 90569, Note_off_c, 1, 53, 0
1, 90570, Note_on_c, 1, 55, 127
1, 90599, Note_off_c, 1, 81, 0
1, 90599, Note_off_c, 1, 62, 0
1, 90599, Note_off_c, 1, 55, 0
1, 90600, Note_on_c, 1, 86, 127
1, 90600, Note_on_c, 1, 69, 127
1, 90600, Note_on_c, 1, 62, 127
1, 90600, Note_on_c, 1, 53, 127
1, 90629, Note_off_c, 1, 53, 0
1, 90630, Note_on_c, 1, 55, 127
1, 90659, Note_off_c, 1, 69, 0
1, 90659, Note_off_c, 1, 62, 0
1, 90659, Note_off_c, 1, 55, 0
1, 90660, Note_on_c, 1, 70, 127
1, 90660, Note_on_c, 1, 67, 127
1, 90660, Note_on_c, 1, 51, 127
1, 90689, Note_off_c, 1, 51, 0
1, 90719, Note_off_c, 1, 86, 0
1, 90719, Note_off_c, 1, 70, 0
1, 90719, Note_off_c, 1, 67, 0
1, 90720, Note_on_c, 1, 79, 127
1, 90720, Note_on_c, 1, 72, 127
1, 90720, Note_on_c, 1, 67, 127
1, 90720, Note_on_c, 1, 51, 127
1, 90749, Note_off_c, 1, 51, 0
1, 90750, Note_on_c, 1, 53, 127
1, 90779, Note_off_c, 1, 79, 0
1, 90779, Note_off_c, 1, 72, 0
1, 90779, Note_off_c, 1, 67, 0
1, 90779, Note_off_c, 1, 53, 0
1, 90780, Note_on_c, 1, 78, 127
1, 90780, Note_on_c, 1, 74, 127
1, 90780, Note_on_c, 1, 69, 127
1, 90780, Note_on_c, 1, 50, 127
1, 90809, Note_off_c, 1, 78, 0
1, 90809, Note_off_c, 1, 74, 0
1, 90809, Note_off_c, 1, 69, 0
1, 90810, Note_on_c, 1, 76, 127
1, 90810, Note_on_c, 1, 67, 127
1, 90839, Note_off_c, 1, 50, 0
1, 90839, Note_off_c, 1, 76, 0
1, 90839, Note_off_c, 1, 67, 0
1, 90840, Note_on_c, 1, 78, 127
1, 90840, Note_on_c, 1, 74, 127
1, 90840, Note_on_c, 1, 69, 127
1, 90840, Note_on_c, 1, 45, 127
1, 90869, Note_off_c, 1, 78, 0
1, 90869, Note_off_c, 1, 74, 0
1, 90869, Note_off_c, 1, 69, 0
1, 90870, Note_on_c, 1, 76, 127
1, 90870, Note_on_c, 1, 67, 127
1, 90899, Note_off_c, 1, 45, 0
1, 90899, Note_off_c, 1, 76, 0
1, 90899, Note_off_c, 1, 67, 0
1, 90900, Note_on_c, 1, 74, 127
1, 90900, Note_on_c, 1, 78, 127
1, 90900, Note_on_c, 1, 69, 127
1, 90900, Note_on_c, 1, 38, 127
1, 90930, Note_on_c, 1, 72, 127
1, 90959, Note_off_c, 1, 74, 0
1, 90959, Note_off_c, 1, 78, 0
1, 90959, Note_off_c, 1, 69, 0
1, 90959, Note_off_c, 1, 38, 0
1, 90959, Note_off_c, 1, 72, 0
1, 90960, Note_on_c, 1, 70, 127
1, 90960, Note_on_c, 1, 62, 127
1, 90989, Note_off_c, 1, 70, 0
1, 90990, Note_on_c, 1, 69, 127
1, 91019, Note_off_c, 1, 62, 0
1, 91019, Note_off_c, 1, 69, 0
1, 91020, Note_on_c, 1, 70, 127
1, 91020, Note_on_c, 1, 67, 127
1, 91049, Note_off_c, 1, 70, 0
1, 91050, Note_on_c, 1, 74, 127
1, 91079, Note_off_c, 1, 67, 0
1, 91079, Note_off_c, 1, 74, 0
1, 91080, Note_on_c, 1, 70, 127
1, 91080, Note_on_c, 1, 62, 127
1, 91109, Note_off_c, 1, 70, 0
1, 91110, Note_on_c, 1, 67, 127
1, 91139, Note_off_c, 1, 62, 0
1, 91139, Note_off_c, 1, 67, 0
1, 91140, Note_on_c, 1, 66, 127
1, 91140, Note_on_c, 1, 69, 127
1, 91169, Note_off_c, 1, 66, 0
1, 91199, Note_off_c, 1, 69, 0
1, 91200, Note_on_c, 1, 66, 127
1, 91200, Note_on_c, 1, 62, 127
1, 91229, Note_off_c, 1, 66, 0
1, 91259, Note_off_c, 1, 62, 0
1, 91260, Note_on_c, 1, 67, 127
1, 91260, Note_on_c, 1, 70, 127
1, 91289, Note_off_c, 1, 67, 0
1, 91319, Note_off_c, 1, 70, 0
1, 91320, Note_on_c, 1, 67, 127
1, 91320, Note_on_c, 1, 62, 127
1, 91349, Note_off_c, 1, 67, 0
1, 91379, Note_off_c, 1, 62, 0
1, 91380, Note_on_c, 1, 69, 127
1, 91380, Note_on_c, 1, 72, 127
1, 91409, Note_off_c, 1, 69, 0
1, 91439, Note_off_c, 1, 72, 0
1, 91440, Note_on_c, 1, 66, 127
1, 91440, Note_on_c, 1, 50, 127
1, 91440, Note_on_c, 1, 69, 127
1, 91440, Note_on_c, 1, 62, 127
1, 91469, Note_off_c, 1, 69, 0
1, 91499, Note_off_c, 1, 66, 0
1, 91499, Note_off_c, 1, 50, 0
1, 91499, Note_off_c, 1, 62, 0
1, 91500, Note_on_c, 1, 67, 127
1, 91500, Note_on_c, 1, 55, 127
1, 91500, Note_on_c, 1, 62, 127
1, 91500, Note_on_c, 1, 70, 127
1, 91529, Note_off_c, 1, 70, 0
1, 91530, Note_on_c, 1, 69, 127
1, 91559, Note_off_c, 1, 67, 0
1, 91559, Note_off_c, 1, 55, 0
1, 91559, Note_off_c, 1, 62, 0
1, 91559, Note_off_c, 1, 69, 0
1, 91560, Note_on_c, 1, 62, 127
1, 91560, Note_on_c, 1, 46, 127
1, 91560, Note_on_c, 1, 67, 127
1, 91590, Note_on_c, 1, 70, 127
1, 91619, Note_off_c, 1, 62, 0
1, 91619, Note_off_c, 1, 46, 0
1, 91619, Note_off_c, 1, 67, 0
1, 91619, Note_off_c, 1, 70, 0
1, 91620, Note_on_c, 1, 69, 127
1, 91620, Note_on_c, 1, 48, 127
1, 91650, Note_on_c, 1, 70, 127
1, 91650, Note_on_c, 1, 67, 127
1, 91679, Note_off_c, 1, 69, 0
1, 91679, Note_off_c, 1, 48, 0
1, 91679, Note_off_c, 1, 70, 0
1, 91679, Note_off_c, 1, 67, 0
1, 91680, Note_on_c, 1, 62, 127
1, 91680, Note_on_c, 1, 50, 127
1, 91680, Note_on_c, 1, 72, 127
1, 91680, Note_on_c, 1, 66, 127
1, 91709, Note_off_c, 1, 72, 0
1, 91709, Note_off_c, 1, 66, 0
1, 91710, Note_on_c, 1, 69, 127
1, 91739, Note_off_c, 1, 62, 0
1, 91739, Note_off_c, 1, 50, 0
1, 91739, Note_off_c, 1, 69, 0
1, 91740, Note_on_c, 1, 70, 127
1, 91740, Note_on_c, 1, 43, 127
1, 91740, Note_on_c, 1, 67, 127
1, 91769, Note_off_c, 1, 70, 0
1, 91769, Note_off_c, 1, 67, 0
1, 91770, Note_on_c, 1, 69, 127
1, 91770, Note_on_c, 1, 66, 127
1, 91799, Note_off_c, 1, 43, 0
1, 91799, Note_off_c, 1, 69, 0
1, 91799, Note_off_c, 1, 66, 0
1, 91800, Note_on_c, 1, 70, 127
1, 91800, Note_on_c, 1, 50, 127
1, 91800, Note_on_c, 1, 67, 127
1, 91829, Note_off_c, 1, 70, 0
1, 91829, Note_off_c, 1, 67, 0
1, 91830, Note_on_c, 1, 69, 127
1, 91830, Note_on_c, 1, 66, 127
1, 91859, Note_off_c, 1, 50, 0
1, 91859, Note_off_c, 1, 69, 0
1, 91859, Note_off_c, 1, 66, 0
1, 91860, Note_on_c, 1, 67, 127
1, 91860, Note_on_c, 1, 55, 127
1, 91890, Note_on_c, 1, 65, 127
1, 91919, Note_off_c, 1, 67, 0
1, 91919, Note_off_c, 1, 55, 0
1, 91919, Note_off_c, 1, 65, 0
1, 91920, Note_on_c, 1, 63, 127
1, 91920, Note_on_c, 1, 67, 127
1, 91949, Note_off_c, 1, 63, 0
1, 91950, Note_on_c, 1, 62, 127
1, 91979, Note_off_c, 1, 67, 0
1, 91979, Note_off_c, 1, 62, 0
1, 91980, Note_on_c, 1, 63, 127
1, 91980, Note_on_c, 1, 72, 127
1, 92009, Note_off_c, 1, 63, 0
1, 92010, Note_on_c, 1, 67, 127
1, 92039, Note_off_c, 1, 72, 0
1, 92039, Note_off_c, 1, 67, 0
1, 92040, Note_on_c, 1, 63, 127
1, 92040, Note_on_c, 1, 67, 127
1, 92069, Note_off_c, 1, 63, 0
1, 92070, Note_on_c, 1, 60, 127
1, 92099, Note_off_c, 1, 67, 0
1, 92099, Note_off_c, 1, 60, 0
1, 92100, Note_on_c, 1, 59, 127
1, 92100, Note_on_c, 1, 74, 127
1, 92129, Note_off_c, 1, 59, 0
1, 92130, Note_on_c, 1, 62, 127
1, 92159, Note_off_c, 1, 74, 0
1, 92159, Note_off_c, 1, 62, 0
1, 92160, Note_on_c, 1, 59, 127
1, 92160, Note_on_c, 1, 67, 127
1, 92189, Note_off_c, 1, 59, 0
1, 92190, Note_on_c, 1, 55, 127
1, 92219, Note_off_c, 1, 67, 0
1, 92219, Note_off_c, 1, 55, 0
1, 92220, Note_on_c, 1, 60, 127
1, 92220, Note_on_c, 1, 75, 127
1, 92249, Note_off_c, 1, 60, 0
1, 92250, Note_on_c, 1, 63, 127
1, 92279, Note_off_c, 1, 75, 0
1, 92279, Note_off_c, 1, 63, 0
1, 92280, Note_on_c, 1, 60, 127
1, 92280, Note_on_c, 1, 67, 127
1, 92309, Note_off_c, 1, 60, 0
1, 92310, Note_on_c, 1, 55, 127
1, 92339, Note_off_c, 1, 67, 0
1, 92339, Note_off_c, 1, 55, 0
1, 92340, Note_on_c, 1, 62, 127
1, 92340, Note_on_c, 1, 77, 127
1, 92369, Note_off_c, 1, 62, 0
1, 92370, Note_on_c, 1, 65, 127
1, 92399, Note_off_c, 1, 77, 0
1, 92399, Note_off_c, 1, 65, 0
1, 92400, Note_on_c, 1, 71, 127
1, 92400, Note_on_c, 1, 55, 127
1, 92400, Note_on_c, 1, 62, 127
1, 92400, Note_on_c, 1, 43, 127
1, 92400, Note_on_c, 1, 67, 127
1, 92429, Note_off_c, 1, 62, 0
1, 92459, Note_off_c, 1, 71, 0
1, 92459, Note_off_c, 1, 55, 0
1, 92459, Note_off_c, 1, 43, 0
1, 92459, Note_off_c, 1, 67, 0
1, 92460, Note_on_c, 1, 72, 127
1, 92460, Note_on_c, 1, 60, 127
1, 92460, Note_on_c, 1, 67, 127
1, 92460, Note_on_c, 1, 48, 127
1, 92460, Note_on_c, 1, 75, 127
1, 92489, Note_off_c, 1, 75, 0
1, 92490, Note_on_c, 1, 74, 127
1, 92519, Note_off_c, 1, 72, 0
1, 92519, Note_off_c, 1, 60, 0
1, 92519, Note_off_c, 1, 67, 0
1, 92519, Note_off_c, 1, 48, 0
1, 92519, Note_off_c, 1, 74, 0
1, 92520, Note_on_c, 1, 67, 127
1, 92520, Note_on_c, 1, 51, 127
1, 92520, Note_on_c, 1, 72, 127
1, 92550, Note_on_c, 1, 75, 127
1, 92579, Note_off_c, 1, 67, 0
1, 92579, Note_off_c, 1, 51, 0
1, 92579, Note_off_c, 1, 72, 0
1, 92579, Note_off_c, 1, 75, 0
1, 92580, Note_on_c, 1, 74, 127
1, 92580, Note_on_c, 1, 53, 127
1, 92610, Note_on_c, 1, 75, 127
1, 92610, Note_on_c, 1, 72, 127
1, 92639, Note_off_c, 1, 74, 0
1, 92639, Note_off_c, 1, 53, 0
1, 92639, Note_off_c, 1, 75, 0
1, 92639, Note_off_c, 1, 72, 0
1, 92640, Note_on_c, 1, 67, 127
1, 92640, Note_on_c, 1, 55, 127
1, 92640, Note_on_c, 1, 77, 127
1, 92640, Note_on_c, 1, 71, 127
1, 92669, Note_off_c, 1, 77, 0
1, 92669, Note_off_c, 1, 71, 0
1, 92670, Note_on_c, 1, 74, 127
1, 92699, Note_off_c, 1, 67, 0
1, 92699, Note_off_c, 1, 55, 0
1, 92699, Note_off_c, 1, 74, 0
1, 92700, Note_on_c, 1, 75, 127
1, 92700, Note_on_c, 1, 48, 127
1, 92700, Note_on_c, 1, 72, 127
1, 92729, Note_off_c, 1, 72, 0
1, 92730, Note_off_c, 1, 75, 0
1, 92730, Note_on_c, 1, 74, 127
1, 92730, Note_on_c, 1, 71, 127
1, 92759, Note_off_c, 1, 48, 0
1, 92759, Note_off_c, 1, 71, 0
1, 92760, Note_off_c, 1, 74, 0
1, 92760, Note_on_c, 1, 43, 127
1, 92760, Note_on_c, 1, 55, 127
1, 92819, Note_off_c, 1, 43, 0
1, 92819, Note_off_c, 1, 55, 0
1, 92820, Note_on_c, 1, 36, 127
1, 92820, Note_on_c, 1, 60, 127
1, 92879, Note_off_c, 1, 36, 0
1, 92879, Note_off_c, 1, 60, 0
1, 92880, Note_on_c, 1, 60, 127
1, 92880, Note_on_c, 1, 75, 127
1, 92880, Note_on_c, 1, 48, 127
1, 92880, Note_on_c, 1, 67, 127
1, 92910, Note_on_c, 1, 72, 127
1, 92939, Note_off_c, 1, 60, 0
1, 92939, Note_off_c, 1, 75, 0
1, 92939, Note_off_c, 1, 48, 0
1, 92939, Note_off_c, 1, 72, 0
1, 92940, Note_on_c, 1, 59, 127
1, 92940, Note_on_c, 1, 47, 127
1, 92940, Note_on_c, 1, 74, 127
1, 92970, Note_on_c, 1, 66, 127
1, 92999, Note_off_c, 1, 67, 0
1, 92999, Note_off_c, 1, 59, 0
1, 92999, Note_off_c, 1, 47, 0
1, 92999, Note_off_c, 1, 74, 0
1, 92999, Note_off_c, 1, 66, 0
1, 93000, Note_on_c, 1, 62, 127
1, 93000, Note_on_c, 1, 67, 127
1, 93000, Note_on_c, 1, 50, 127
1, 93000, Note_on_c, 1, 71, 127
1, 93000, Note_on_c, 1, 65, 127
1, 93029, Note_off_c, 1, 67, 0
1, 93029, Note_off_c, 1, 71, 0
1, 93029, Note_off_c, 1, 65, 0
1, 93030, Note_on_c, 1, 69, 127
1, 93030, Note_on_c, 1, 72, 127
1, 93030, Note_on_c, 1, 63, 127
1, 93059, Note_off_c, 1, 62, 0
1, 93059, Note_off_c, 1, 50, 0
1, 93059, Note_off_c, 1, 69, 0
1, 93059, Note_off_c, 1, 72, 0
1, 93059, Note_off_c, 1, 63, 0
1, 93060, Note_on_c, 1, 55, 127
1, 93060, Note_on_c, 1, 71, 127
1, 93060, Note_on_c, 1, 43, 127
1, 93060, Note_on_c, 1, 74, 127
1, 93060, Note_on_c, 1, 62, 127
1, 93089, Note_off_c, 1, 71, 0
1, 93089, Note_off_c, 1, 62, 0
1, 93090, Note_on_c, 1, 72, 127
1, 93090, Note_on_c, 1, 60, 127
1, 93119, Note_off_c, 1, 55, 0
1, 93119, Note_off_c, 1, 43, 0
1, 93119, Note_off_c, 1, 74, 0
1, 93119, Note_off_c, 1, 72, 0
1, 93119, Note_off_c, 1, 60, 0
1, 93120, Note_on_c, 1, 59, 127
1, 93120, Note_on_c, 1, 74, 127
1, 93120, Note_on_c, 1, 47, 127
1, 93120, Note_on_c, 1, 79, 127
1, 93149, Note_off_c, 1, 74, 0
1, 93150, Note_on_c, 1, 75, 127
1, 93150, Note_on_c, 1, 57, 127
1, 93179, Note_off_c, 1, 59, 0
1, 93179, Note_off_c, 1, 47, 0
1, 93179, Note_off_c, 1, 75, 0
1, 93179, Note_off_c, 1, 57, 0
1, 93180, Note_on_c, 1, 60, 127
1, 93180, Note_on_c, 1, 77, 127
1, 93180, Note_on_c, 1, 48, 127
1, 93180, Note_on_c, 1, 55, 127
1, 93209, Note_off_c, 1, 77, 0
1, 93209, Note_off_c, 1, 55, 0
1, 93239, Note_off_c, 1, 79, 0
1, 93239, Note_off_c, 1, 60, 0
1, 93239, Note_off_c, 1, 48, 0
1, 93240, Note_on_c, 1, 48, 127
1, 93240, Note_on_c, 1, 75, 127
1, 93240, Note_on_c, 1, 55, 127
1, 93240, Note_on_c, 1, 72, 127
1, 93240, Note_on_c, 1, 60, 127
1, 93269, Note_off_c, 1, 75, 0
1, 93269, Note_off_c, 1, 60, 0
1, 93299, Note_off_c, 1, 48, 0
1, 93299, Note_off_c, 1, 55, 0
1, 93299, Note_off_c, 1, 72, 0
1, 93300, Note_on_c, 1, 60, 127
1, 93300, Note_on_c, 1, 67, 127
1, 93300, Note_on_c, 1, 75, 127
1, 93300, Note_on_c, 1, 51, 127
1, 93329, Note_off_c, 1, 67, 0
1, 93329, Note_off_c, 1, 51, 0
1, 93330, Note_on_c, 1, 72, 127
1, 93330, Note_on_c, 1, 55, 127
1, 93359, Note_off_c, 1, 60, 0
1, 93359, Note_off_c, 1, 75, 0
1, 93359, Note_off_c, 1, 72, 0
1, 93359, Note_off_c, 1, 55, 0
1, 93360, Note_on_c, 1, 72, 127
1, 93360, Note_on_c, 1, 75, 127
1, 93360, Note_on_c, 1, 67, 127
1, 93360, Note_on_c, 1, 79, 127
1, 93360, Note_on_c, 1, 48, 127
1, 93389, Note_off_c, 1, 75, 0
1, 93389, Note_off_c, 1, 48, 0
1, 93390, Note_on_c, 1, 51, 127
1, 93419, Note_off_c, 1, 72, 0
1, 93419, Note_off_c, 1, 79, 0
1, 93419, Note_off_c, 1, 51, 0
1, 93420, Note_on_c, 1, 71, 127
1, 93420, Note_on_c, 1, 74, 127
1, 93420, Note_on_c, 1, 47, 127
1, 93450, Note_on_c, 1, 66, 127
1, 93479, Note_off_c, 1, 67, 0
1, 93479, Note_off_c, 1, 71, 0
1, 93479, Note_off_c, 1, 74, 0
1, 93479, Note_off_c, 1, 47, 0
1, 93479, Note_off_c, 1, 66, 0
1, 93480, Note_on_c, 1, 74, 127
1, 93480, Note_on_c, 1, 71, 127
1, 93480, Note_on_c, 1, 65, 127
1, 93480, Note_on_c, 1, 67, 127
1, 93480, Note_on_c, 1, 50, 127
1, 93509, Note_off_c, 1, 71, 0
1, 93509, Note_off_c, 1, 65, 0
1, 93509, Note_off_c, 1, 67, 0
1, 93510, Note_on_c, 1, 72, 127
1, 93510, Note_on_c, 1, 63, 127
1, 93510, Note_on_c, 1, 69, 127
1, 93539, Note_off_c, 1, 74, 0
1, 93539, Note_off_c, 1, 50, 0
1, 93539, Note_off_c, 1, 72, 0
1, 93539, Note_off_c, 1, 63, 0
1, 93539, Note_off_c, 1, 69, 0
1, 93540, Note_on_c, 1, 67, 127
1, 93540, Note_on_c, 1, 74, 127
1, 93540, Note_on_c, 1, 62, 127
1, 93540, Note_on_c, 1, 71, 127
1, 93540, Note_on_c, 1, 43, 127
1, 93569, Note_off_c, 1, 62, 0
1, 93569, Note_off_c, 1, 71, 0
1, 93570, Note_on_c, 1, 60, 127
1, 93570, Note_on_c, 1, 72, 127
1, 93599, Note_off_c, 1, 67, 0
1, 93599, Note_off_c, 1, 74, 0
1, 93599, Note_off_c, 1, 43, 0
1, 93599, Note_off_c, 1, 60, 0
1, 93599, Note_off_c, 1, 72, 0
1, 93600, Note_on_c, 1, 71, 127
1, 93600, Note_on_c, 1, 55, 127
1, 93600, Note_on_c, 1, 79, 127
1, 93600, Note_on_c, 1, 59, 127
1, 93600, Note_on_c, 1, 74, 127
1, 93600, Note_on_c, 1, 47, 127
1, 93629, Note_off_c, 1, 59, 0
1, 93629, Note_off_c, 1, 74, 0
1, 93630, Note_on_c, 1, 57, 127
1, 93630, Note_on_c, 1, 75, 127
1, 93659, Note_off_c, 1, 71, 0
1, 93659, Note_off_c, 1, 55, 0
1, 93659, Note_off_c, 1, 47, 0
1, 93659, Note_off_c, 1, 57, 0
1, 93659, Note_off_c, 1, 75, 0
1, 93660, Note_on_c, 1, 72, 127
1, 93660, Note_on_c, 1, 60, 127
1, 93660, Note_on_c, 1, 77, 127
1, 93660, Note_on_c, 1, 48, 127
1, 93689, Note_off_c, 1, 77, 0
1, 93719, Note_off_c, 1, 79, 0
1, 93719, Note_off_c, 1, 72, 0
1, 93719, Note_off_c, 1, 60, 0
1, 93719, Note_off_c, 1, 48, 0
1, 93720, Note_on_c, 1, 67, 127
1, 93720, Note_on_c, 1, 48, 127
1, 93720, Note_on_c, 1, 72, 127
1, 93720, Note_on_c, 1, 60, 127
1, 93720, Note_on_c, 1, 75, 127
1, 93720, Note_on_c, 1, 55, 127
1, 93749, Note_off_c, 1, 60, 0
1, 93749, Note_off_c, 1, 75, 0
1, 93779, Note_off_c, 1, 67, 0
1, 93779, Note_off_c, 1, 48, 0
1, 93779, Note_off_c, 1, 72, 0
1, 93779, Note_off_c, 1, 55, 0
1, 93780, Note_on_c, 1, 60, 127
1, 93780, Note_on_c, 1, 75, 127
1, 93780, Note_on_c, 1, 51, 127
1, 93780, Note_on_c, 1, 67, 127
1, 93809, Note_off_c, 1, 51, 0
1, 93809, Note_off_c, 1, 67, 0
1, 93810, Note_on_c, 1, 55, 127
1, 93810, Note_on_c, 1, 72, 127
1, 93839, Note_off_c, 1, 60, 0
1, 93839, Note_off_c, 1, 75, 0
1, 93839, Note_off_c, 1, 55, 0
1, 93839, Note_off_c, 1, 72, 0
1, 93840, Note_on_c, 1, 58, 127
1, 93840, Note_on_c, 1, 79, 127
1, 93840, Note_on_c, 1, 48, 127
1, 93840, Note_on_c, 1, 75, 127
1, 93840, Note_on_c, 1, 67, 127
1, 93869, Note_off_c, 1, 48, 0
1, 93869, Note_off_c, 1, 75, 0
1, 93870, Note_on_c, 1, 51, 127
1, 93870, Note_on_c, 1, 74, 127
1, 93899, Note_off_c, 1, 58, 0
1, 93899, Note_off_c, 1, 79, 0
1, 93899, Note_off_c, 1, 67, 0
1, 93899, Note_off_c, 1, 51, 0
1, 93899, Note_off_c, 1, 74, 0
1, 93900, Note_on_c, 1, 57, 127
1, 93900, Note_on_c, 1, 65, 127
1, 93900, Note_on_c, 1, 45, 127
1, 93900, Note_on_c, 1, 75, 127
1, 93930, Note_on_c, 1, 64, 127
1, 93959, Note_off_c, 1, 57, 0
1, 93959, Note_off_c, 1, 65, 0
1, 93959, Note_off_c, 1, 45, 0
1, 93959, Note_off_c, 1, 75, 0
1, 93959, Note_off_c, 1, 64, 0
1, 93960, Note_on_c, 1, 60, 127
1, 93960, Note_on_c, 1, 65, 127
1, 93960, Note_on_c, 1, 48, 127
1, 93960, Note_on_c, 1, 69, 127
1, 93960, Note_on_c, 1, 63, 127
1, 93989, Note_off_c, 1, 65, 0
1, 93989, Note_off_c, 1, 69, 0
1, 93989, Note_off_c, 1, 63, 0
1, 93990, Note_on_c, 1, 67, 127
1, 93990, Note_on_c, 1, 70, 127
1, 93990, Note_on_c, 1, 62, 127
1, 94019, Note_off_c, 1, 60, 0
1, 94019, Note_off_c, 1, 48, 0
1, 94019, Note_off_c, 1, 67, 0
1, 94019, Note_off_c, 1, 70, 0
1, 94019, Note_off_c, 1, 62, 0
1, 94020, Note_on_c, 1, 53, 127
1, 94020, Note_on_c, 1, 69, 127
1, 94020, Note_on_c, 1, 41, 127
1, 94020, Note_on_c, 1, 72, 127
1, 94020, Note_on_c, 1, 60, 127
1, 94049, Note_off_c, 1, 69, 0
1, 94049, Note_off_c, 1, 60, 0
1, 94050, Note_on_c, 1, 70, 127
1, 94050, Note_on_c, 1, 58, 127
1, 94079, Note_off_c, 1, 53, 0
1, 94079, Note_off_c, 1, 41, 0
1, 94079, Note_off_c, 1, 72, 0
1, 94079, Note_off_c, 1, 70, 0
1, 94079, Note_off_c, 1, 58, 0
1, 94080, Note_on_c, 1, 57, 127
1, 94080, Note_on_c, 1, 72, 127
1, 94080, Note_on_c, 1, 45, 127
1, 94080, Note_on_c, 1, 77, 127
1, 94109, Note_off_c, 1, 72, 0
1, 94110, Note_on_c, 1, 74, 127
1, 94110, Note_on_c, 1, 55, 127
1, 94139, Note_off_c, 1, 57, 0
1, 94139, Note_off_c, 1, 45, 0
1, 94139, Note_off_c, 1, 74, 0
1, 94139, Note_off_c, 1, 55, 0
1, 94140, Note_on_c, 1, 58, 127
1, 94140, Note_on_c, 1, 75, 127
1, 94140, Note_on_c, 1, 46, 127
1, 94140, Note_on_c, 1, 53, 127
1, 94169, Note_off_c, 1, 75, 0
1, 94169, Note_off_c, 1, 53, 0
1, 94199, Note_off_c, 1, 77, 0
1, 94199, Note_off_c, 1, 58, 0
1, 94199, Note_off_c, 1, 46, 0
1, 94200, Note_on_c, 1, 46, 127
1, 94200, Note_on_c, 1, 74, 127
1, 94200, Note_on_c, 1, 53, 127
1, 94200, Note_on_c, 1, 70, 127
1, 94200, Note_on_c, 1, 58, 127
1, 94229, Note_off_c, 1, 74, 0
1, 94229, Note_off_c, 1, 58, 0
1, 94259, Note_off_c, 1, 46, 0
1, 94259, Note_off_c, 1, 53, 0
1, 94259, Note_off_c, 1, 70, 0
1, 94260, Note_on_c, 1, 58, 127
1, 94260, Note_on_c, 1, 65, 127
1, 94260, Note_on_c, 1, 74, 127
1, 94260, Note_on_c, 1, 50, 127
1, 94289, Note_off_c, 1, 65, 0
1, 94289, Note_off_c, 1, 50, 0
1, 94290, Note_on_c, 1, 70, 127
1, 94290, Note_on_c, 1, 53, 127
1, 94319, Note_off_c, 1, 58, 0
1, 94319, Note_off_c, 1, 74, 0
1, 94319, Note_off_c, 1, 70, 0
1, 94319, Note_off_c, 1, 53, 0
1, 94320, Note_on_c, 1, 70, 127
1, 94320, Note_on_c, 1, 74, 127
1, 94320, Note_on_c, 1, 65, 127
1, 94320, Note_on_c, 1, 77, 127
1, 94320, Note_on_c, 1, 46, 127
1, 94349, Note_off_c, 1, 74, 0
1, 94349, Note_off_c, 1, 46, 0
1, 94350, Note_on_c, 1, 50, 127
1, 94379, Note_off_c, 1, 70, 0
1, 94379, Note_off_c, 1, 77, 0
1, 94379, Note_off_c, 1, 50, 0
1, 94380, Note_on_c, 1, 69, 127
1, 94380, Note_on_c, 1, 72, 127
1, 94380, Note_on_c, 1, 45, 127
1, 94410, Note_on_c, 1, 64, 127
1, 94439, Note_off_c, 1, 65, 0
1, 94439, Note_off_c, 1, 69, 0
1, 94439, Note_off_c, 1, 72, 0
1, 94439, Note_off_c, 1, 45, 0
1, 94439, Note_off_c, 1, 64, 0
1, 94440, Note_on_c, 1, 72, 127
1, 94440, Note_on_c, 1, 69, 127
1, 94440, Note_on_c, 1, 63, 127
1, 94440, Note_on_c, 1, 65, 127
1, 94440, Note_on_c, 1, 48, 127
1, 94469, Note_off_c, 1, 69, 0
1, 94469, Note_off_c, 1, 63, 0
1, 94469, Note_off_c, 1, 65, 0
1, 94470, Note_on_c, 1, 70, 127
1, 94470, Note_on_c, 1, 62, 127
1, 94470, Note_on_c, 1, 67, 127
1, 94499, Note_off_c, 1, 72, 0
1, 94499, Note_off_c, 1, 48, 0
1, 94499, Note_off_c, 1, 70, 0
1, 94499, Note_off_c, 1, 62, 0
1, 94499, Note_off_c, 1, 67, 0
1, 94500, Note_on_c, 1, 65, 127
1, 94500, Note_on_c, 1, 72, 127
1, 94500, Note_on_c, 1, 60, 127
1, 94500, Note_on_c, 1, 69, 127
1, 94500, Note_on_c, 1, 41, 127
1, 94529, Note_off_c, 1, 60, 0
1, 94529, Note_off_c, 1, 69, 0
1, 94530, Note_on_c, 1, 58, 127
1, 94530, Note_on_c, 1, 70, 127
1, 94559, Note_off_c, 1, 65, 0
1, 94559, Note_off_c, 1, 72, 0
1, 94559, Note_off_c, 1, 41, 0
1, 94559, Note_off_c, 1, 58, 0
1, 94559, Note_off_c, 1, 70, 0
1, 94560, Note_on_c, 1, 69, 127
1, 94560, Note_on_c, 1, 53, 127
1, 94560, Note_on_c, 1, 77, 127
1, 94560, Note_on_c, 1, 57, 127
1, 94560, Note_on_c, 1, 72, 127
1, 94560, Note_on_c, 1, 45, 127
1, 94589, Note_off_c, 1, 57, 0
1, 94589, Note_off_c, 1, 72, 0
1, 94590, Note_on_c, 1, 55, 127
1, 94590, Note_on_c, 1, 74, 127
1, 94619, Note_off_c, 1, 69, 0
1, 94619, Note_off_c, 1, 53, 0
1, 94619, Note_off_c, 1, 45, 0
1, 94619, Note_off_c, 1, 55, 0
1, 94619, Note_off_c, 1, 74, 0
1, 94620, Note_on_c, 1, 70, 127
1, 94620, Note_on_c, 1, 58, 127
1, 94620, Note_on_c, 1, 75, 127
1, 94620, Note_on_c, 1, 46, 127
1, 94649, Note_off_c, 1, 75, 0
1, 94679, Note_off_c, 1, 77, 0
1, 94679, Note_off_c, 1, 70, 0
1, 94679, Note_off_c, 1, 58, 0
1, 94679, Note_off_c, 1, 46, 0
1, 94680, Note_on_c, 1, 65, 127
1, 94680, Note_on_c, 1, 46, 127
1, 94680, Note_on_c, 1, 70, 127
1, 94680, Note_on_c, 1, 58, 127
1, 94680, Note_on_c, 1, 74, 127
1, 94680, Note_on_c, 1, 53, 127
1, 94709, Note_off_c, 1, 58, 0
1, 94709, Note_off_c, 1, 74, 0
1, 94739, Note_off_c, 1, 65, 0
1, 94739, Note_off_c, 1, 46, 0
1, 94739, Note_off_c, 1, 70, 0
1, 94739, Note_off_c, 1, 53, 0
1, 94740, Note_on_c, 1, 58, 127
1, 94740, Note_on_c, 1, 74, 127
1, 94740, Note_on_c, 1, 50, 127
1, 94740, Note_on_c, 1, 65, 127
1, 94769, Note_off_c, 1, 50, 0
1, 94769, Note_off_c, 1, 65, 0
1, 94770, Note_on_c, 1, 53, 127
1, 94770, Note_on_c, 1, 70, 127
1, 94799, Note_off_c, 1, 58, 0
1, 94799, Note_off_c, 1, 74, 0
1, 94799, Note_off_c, 1, 53, 0
1, 94799, Note_off_c, 1, 70, 0
1, 94800, Note_on_c, 1, 67, 127
1, 94800, Note_on_c, 1, 58, 127
1, 94800, Note_on_c, 1, 63, 127
1, 94800, Note_on_c, 1, 51, 127
1, 94800, Note_on_c, 1, 74, 127
1, 94829, Note_off_c, 1, 74, 0
1, 94830, Note_on_c, 1, 55, 127
1, 94830, Note_on_c, 1, 70, 127
1, 94859, Note_off_c, 1, 67, 0
1, 94859, Note_off_c, 1, 58, 0
1, 94859, Note_off_c, 1, 63, 0
1, 94859, Note_off_c, 1, 51, 0
1, 94859, Note_off_c, 1, 55, 0
1, 94859, Note_off_c, 1, 70, 0
1, 94860, Note_on_c, 1, 72, 127
1, 94860, Note_on_c, 1, 66, 127
1, 94860, Note_on_c, 1, 57, 127
1, 94860, Note_on_c, 1, 45, 127
1, 94890, Note_off_c, 1, 57, 0
1, 94890, Note_on_c, 1, 58, 127
1, 94919, Note_off_c, 1, 66, 0
1, 94919, Note_off_c, 1, 45, 0
1, 94919, Note_off_c, 1, 58, 0
1, 94920, Note_on_c, 1, 67, 127
1, 94920, Note_on_c, 1, 60, 127
1, 94920, Note_on_c, 1, 63, 127
1, 94949, Note_off_c, 1, 60, 0
1, 94950, Note_on_c, 1, 62, 127
1, 94979, Note_off_c, 1, 72, 0
1, 94979, Note_off_c, 1, 63, 0
1, 94979, Note_off_c, 1, 62, 0
1, 94980, Note_on_c, 1, 55, 127
1, 95010, Note_on_c, 1, 65, 127
1, 95039, Note_off_c, 1, 67, 0
1, 95039, Note_off_c, 1, 55, 0
1, 95039, Note_off_c, 1, 65, 0
1, 95040, Note_on_c, 1, 69, 127
1, 95099, Note_off_c, 1, 69, 0
1, 95100, Note_on_c, 1, 72, 127
1, 95100, Note_on_c, 1, 69, 127
1, 95100, Note_on_c, 1, 62, 127
1, 95100, Note_on_c, 1, 54, 127
1, 95129, Note_off_c, 1, 62, 0
1, 95129, Note_off_c, 1, 54, 0
1, 95130, Note_on_c, 1, 60, 127
1, 95130, Note_on_c, 1, 52, 127
1, 95159, Note_off_c, 1, 60, 0
1, 95159, Note_off_c, 1, 52, 0
1, 95219, Note_off_c, 1, 72, 0
1, 95219, Note_off_c, 1, 69, 0
1, 95220, Note_on_c, 1, 62, 127
1, 95220, Note_on_c, 1, 50, 127
1, 95249, Note_off_c, 1, 50, 0
1, 95250, Note_on_c, 1, 70, 127
1, 95250, Note_on_c, 1, 67, 127
1, 95250, Note_on_c, 1, 52, 127
1, 95279, Note_off_c, 1, 70, 0
1, 95279, Note_off_c, 1, 67, 0
1, 95279, Note_off_c, 1, 52, 0
1, 95280, Note_on_c, 1, 69, 127
1, 95280, Note_on_c, 1, 54, 127
1, 95309, Note_off_c, 1, 69, 0
1, 95309, Note_off_c, 1, 54, 0
1, 95310, Note_on_c, 1, 72, 127
1, 95310, Note_on_c, 1, 66, 127
1, 95339, Note_off_c, 1, 62, 0
1, 95339, Note_off_c, 1, 72, 0
1, 95339, Note_off_c, 1, 66, 0
1, 95340, Note_on_c, 1, 70, 127
1, 95340, Note_on_c, 1, 67, 127
1, 95340, Note_on_c, 1, 55, 127
1, 95340, Note_on_c, 1, 43, 127
1, 95369, Note_off_c, 1, 70, 0
1, 95370, Note_off_c, 1, 55, 0
1, 95370, Note_on_c, 1, 69, 127
1, 95370, Note_on_c, 1, 63, 127
1, 95399, Note_off_c, 1, 67, 0
1, 95399, Note_off_c, 1, 43, 0
1, 95399, Note_off_c, 1, 69, 0
1, 95399, Note_off_c, 1, 63, 0
1, 95400, Note_on_c, 1, 70, 127
1, 95400, Note_on_c, 1, 62, 127
1, 95430, Note_on_c, 1, 63, 127
1, 95459, Note_off_c, 1, 62, 0
1, 95459, Note_off_c, 1, 63, 0
1, 95460, Note_on_c, 1, 67, 127
1, 95460, Note_on_c, 1, 53, 127
1, 95489, Note_off_c, 1, 70, 0
1, 95490, Note_on_c, 1, 69, 127
1, 95519, Note_off_c, 1, 67, 0
1, 95519, Note_off_c, 1, 53, 0
1, 95519, Note_off_c, 1, 69, 0
1, 95520, Note_on_c, 1, 70, 127
1, 95520, Note_on_c, 1, 62, 127
1, 95550, Note_on_c, 1, 63, 127
1, 95579, Note_off_c, 1, 62, 0
1, 95579, Note_off_c, 1, 63, 0
1, 95580, Note_on_c, 1, 67, 127
1, 95580, Note_on_c, 1, 61, 127
1, 95580, Note_on_c, 1, 52, 127
1, 95609, Note_off_c, 1, 70, 0
1, 95609, Note_off_c, 1, 61, 0
1, 95609, Note_off_c, 1, 52, 0
1, 95610, Note_on_c, 1, 50, 127
1, 95639, Note_off_c, 1, 50, 0
1, 95700, Note_on_c, 1, 64, 127
1, 95700, Note_on_c, 1, 49, 127
1, 95729, Note_off_c, 1, 49, 0
1, 95759, Note_off_c, 1, 67, 0
1, 95759, Note_off_c, 1, 64, 0
1, 95760, Note_on_c, 1, 69, 127
1, 95760, Note_on_c, 1, 57, 127
1, 95760, Note_on_c, 1, 61, 127
1, 95760, Note_on_c, 1, 52, 127
1, 95789, Note_off_c, 1, 69, 0
1, 95789, Note_off_c, 1, 52, 0
1, 95790, Note_on_c, 1, 67, 127
1, 95790, Note_on_c, 1, 49, 127
1, 95819, Note_off_c, 1, 57, 0
1, 95819, Note_off_c, 1, 61, 0
1, 95819, Note_off_c, 1, 67, 0
1, 95819, Note_off_c, 1, 49, 0
1, 95820, Note_on_c, 1, 66, 127
1, 95820, Note_on_c, 1, 62, 127
1, 95820, Note_on_c, 1, 57, 127
1, 95820, Note_on_c, 1, 50, 127
1, 95849, Note_off_c, 1, 50, 0
1, 95850, Note_on_c, 1, 51, 127
1, 95879, Note_off_c, 1, 66, 0
1, 95879, Note_off_c, 1, 62, 0
1, 95879, Note_off_c, 1, 57, 0
1, 95879, Note_off_c, 1, 51, 0
1, 95880, Note_on_c, 1, 69, 127
1, 95880, Note_on_c, 1, 66, 127
1, 95880, Note_on_c, 1, 62, 127
1, 95880, Note_on_c, 1, 50, 127
1, 95909, Note_off_c, 1, 50, 0
1, 95910, Note_on_c, 1, 51, 127
1, 95939, Note_off_c, 1, 69, 0
1, 95939, Note_off_c, 1, 66, 0
1, 95939, Note_off_c, 1, 62, 0
1, 95939, Note_off_c, 1, 51, 0
1, 95940, Note_on_c, 1, 72, 127
1, 95940, Note_on_c, 1, 69, 127
1, 95940, Note_on_c, 1, 66, 127
1, 95940, Note_on_c, 1, 50, 127
1, 95969, Note_off_c, 1, 50, 0
1, 95970, Note_on_c, 1, 51, 127
1, 95999, Note_off_c, 1, 72, 0
1, 95999, Note_off_c, 1, 66, 0
1, 95999, Note_off_c, 1, 51, 0
1, 96000, Note_on_c, 1, 81, 127
1, 96000, Note_on_c, 1, 54, 127
1, 96000, Note_on_c, 1, 48, 127
1, 96029, Note_off_c, 1, 48, 0
1, 96059, Note_off_c, 1, 81, 0
1, 96059, Note_off_c, 1, 54, 0
1, 96060, Note_on_c, 1, 70, 127
1, 96060, Note_on_c, 1, 55, 127
1, 96089, Note_off_c, 1, 70, 0
1, 96119, Note_off_c, 1, 69, 0
1, 96120, Note_on_c, 1, 67, 127
1, 96149, Note_off_c, 1, 67, 0
1, 96179, Note_off_c, 1, 55, 0
1, 96180, Note_on_c, 1, 67, 127
1, 96180, Note_on_c, 1, 46, 127
1, 96209, Note_off_c, 1, 46, 0
1, 96210, Note_on_c, 1, 69, 127
1, 96210, Note_on_c, 1, 60, 127
1, 96210, Note_on_c, 1, 51, 127
1, 96239, Note_off_c, 1, 67, 0
1, 96239, Note_off_c, 1, 69, 0
1, 96239, Note_off_c, 1, 60, 0
1, 96239, Note_off_c, 1, 51, 0
1, 96240, Note_on_c, 1, 70, 127
1, 96240, Note_on_c, 1, 55, 127
1, 96240, Note_on_c, 1, 58, 127
1, 96240, Note_on_c, 1, 50, 127
1, 96269, Note_off_c, 1, 70, 0
1, 96269, Note_off_c, 1, 55, 0
1, 96269, Note_off_c, 1, 58, 0
1, 96269, Note_off_c, 1, 50, 0
1, 96270, Note_on_c, 1, 72, 127
1, 96270, Note_on_c, 1, 57, 127
1, 96270, Note_on_c, 1, 48, 127
1, 96299, Note_off_c, 1, 72, 0
1, 96299, Note_off_c, 1, 57, 0
1, 96299, Note_off_c, 1, 48, 0
1, 96300, Note_on_c, 1, 74, 127
1, 96300, Note_on_c, 1, 58, 127
1, 96300, Note_on_c, 1, 55, 127
1, 96300, Note_on_c, 1, 46, 127
1, 96329, Note_off_c, 1, 46, 0
1, 96330, Note_on_c, 1, 51, 127
1, 96359, Note_off_c, 1, 74, 0
1, 96359, Note_off_c, 1, 58, 0
1, 96359, Note_off_c, 1, 55, 0
1, 96359, Note_off_c, 1, 51, 0
1, 96360, Note_on_c, 1, 67, 127
1, 96360, Note_on_c, 1, 63, 127
1, 96360, Note_on_c, 1, 57, 127
1, 96360, Note_on_c, 1, 50, 127
1, 96389, Note_off_c, 1, 50, 0
1, 96390, Note_on_c, 1, 48, 127
1, 96419, Note_off_c, 1, 67, 0
1, 96419, Note_off_c, 1, 63, 0
1, 96419, Note_off_c, 1, 57, 0
1, 96419, Note_off_c, 1, 48, 0
1, 96420, Note_on_c, 1, 62, 127
1, 96420, Note_on_c, 1, 58, 127
1, 96420, Note_on_c, 1, 50, 127
1, 96479, Note_off_c, 1, 62, 0
1, 96479, Note_off_c, 1, 58, 0
1, 96479, Note_off_c, 1, 50, 0
1, 96480, Note_on_c, 1, 66, 127
1, 96480, Note_on_c, 1, 62, 127
1, 96480, Note_on_c, 1, 57, 127
1, 96480, Note_on_c, 1, 38, 127
1, 96539, Note_off_c, 1, 66, 0
1, 96539, Note_off_c, 1, 62, 0
1, 96539, Note_off_c, 1, 57, 0
1, 96539, Note_off_c, 1, 38, 0
1, 96540, Note_on_c, 1, 67, 127
1, 96540, Note_on_c, 1, 62, 127
1, 96540, Note_on_c, 1, 58, 127
1, 96540, Note_on_c, 1, 43, 127
1, 96600, Note_on_c, 1, 64, 127
1, 96629, Note_off_c, 1, 64, 0
1, 96630, Note_on_c, 1, 66, 127
1, 96630, Note_on_c, 1, 50, 127
1, 96659, Note_off_c, 1, 67, 0
1, 96659, Note_off_c, 1, 62, 0
1, 96659, Note_off_c, 1, 58, 0
1, 96659, Note_off_c, 1, 43, 0
1, 96659, Note_off_c, 1, 66, 0
1, 96659, Note_off_c, 1, 50, 0
1, 96660, Note_on_c, 1, 67, 127
1, 96660, Note_on_c, 1, 52, 127
1, 96689, Note_off_c, 1, 67, 0
1, 96689, Note_off_c, 1, 52, 0
1, 96690, Note_on_c, 1, 69, 127
1, 96690, Note_on_c, 1, 54, 127
1, 96719, Note_off_c, 1, 69, 0
1, 96719, Note_off_c, 1, 54, 0
1, 96720, Note_on_c, 1, 70, 127
1, 96720, Note_on_c, 1, 55, 127
1, 96720, Note_on_c, 1, 74, 127
1, 96720, Note_on_c, 1, 43, 127
1, 96749, Note_off_c, 1, 70, 0
1, 96749, Note_off_c, 1, 55, 0
1, 96750, Note_on_c, 1, 72, 127
1, 96750, Note_on_c, 1, 57, 127
1, 96779, Note_off_c, 1, 74, 0
1, 96779, Note_off_c, 1, 43, 0
1, 96779, Note_off_c, 1, 72, 0
1, 96779, Note_off_c, 1, 57, 0
1, 96780, Note_on_c, 1, 74, 127
1, 96780, Note_on_c, 1, 67, 127
1, 96780, Note_on_c, 1, 62, 127
1, 96780, Note_on_c, 1, 55, 127
1, 96780, Note_on_c, 1, 58, 127
1, 96780, Note_on_c, 1, 70, 127
1, 96800, Note_on_c, 1, 79, 127
1, 96820, Note_off_c, 1, 79, 0
1, 96820, Note_on_c, 1, 81, 127
1, 96839, Note_off_c, 1, 58, 0
1, 96839, Note_off_c, 1, 70, 0
1, 96840, Note_off_c, 1, 81, 0
1, 96840, Note_on_c, 1, 82, 127
1, 96860, Note_off_c, 1, 82, 0
1, 96899, Note_off_c, 1, 55, 0
1, 97019, Note_off_c, 1, 67, 0
1, 97020, Note_on_c, 1, 69, 127
1, 97020, Note_on_c, 1, 66, 127
1, 97040, Note_on_c, 1, 78, 127
1, 97049, Note_off_c, 1, 66, 0
1, 97050, Note_on_c, 1, 64, 127
1, 97060, Note_off_c, 1, 78, 0
1, 97079, Note_off_c, 1, 64, 0
1, 97200, Note_on_c, 1, 60, 127
1, 97259, Note_off_c, 1, 69, 0
1, 97259, Note_off_c, 1, 60, 0
1, 97500, Note_on_c, 1, 54, 127
1, 97530, Note_off_c, 1, 54, 0
1, 97530, Note_on_c, 1, 52, 127
1, 97560, Note_off_c, 1, 52, 0
1, 97620, Note_off_c, 1, 62, 0
1, 97620, Note_on_c, 1, 50, 127
1, 97679, Note_off_c, 1, 50, 0
1, 97680, Note_on_c, 1, 72, 127
1, 97739, Note_off_c, 1, 72, 0
1, 97800, Note_on_c, 1, 43, 127
1, 97859, Note_off_c, 1, 43, 0
1, 97860, Note_off_c, 1, 74, 0
1, 97860, Note_on_c, 1, 75, 127
1, 97920, Note_on_c, 1, 51, 127
1, 97979, Note_off_c, 1, 51, 0
1, 97980, Note_on_c, 1, 77, 127
1, 97980, Note_on_c, 1, 65, 127
1, 97980, Note_on_c, 1, 45, 127
1, 97980, Note_on_c, 1, 57, 127
1, 98009, Note_off_c, 1, 75, 0
1, 98040, Note_on_c, 1, 84, 127
1, 98060, Note_off_c, 1, 84, 0
1, 98099, Note_off_c, 1, 45, 0
1, 98099, Note_off_c, 1, 57, 0
1, 98160, Note_on_c, 1, 53, 127
1, 98219, Note_off_c, 1, 65, 0
1, 98219, Note_off_c, 1, 53, 0
1, 98280, Note_on_c, 1, 86, 127
1, 98300, Note_off_c, 1, 86, 0
1, 98340, Note_on_c, 1, 46, 127
1, 98399, Note_off_c, 1, 46, 0
1, 98580, Note_on_c, 1, 41, 127
1, 98639, Note_off_c, 1, 41, 0
1, 98640, Note_on_c, 1, 63, 127
1, 98699, Note_off_c, 1, 63, 0
1, 98700, Note_on_c, 1, 38, 127
1, 98819, Note_off_c, 1, 38, 0
1, 98820, Note_on_c, 1, 68, 127
1, 98939, Note_off_c, 1, 68, 0
1, 98940, Note_on_c, 1, 71, 127
1, 98969, Note_off_c, 1, 71, 0
1, 99120, Note_on_c, 1, 47, 127
1, 99179, Note_off_c, 1, 47, 0
1, 99180, Note_off_c, 1, 77, 0
1, 99180, Note_on_c, 1, 36, 127
1, 99240, Note_on_c, 1, 48, 127
1, 99270, Note_off_c, 1, 48, 0
1, 99299, Note_off_c, 1, 36, 0
1, 99720, Note_on_c, 1, 55, 127
1, 99720, Note_on_c, 1, 86, 127
1, 99720, Note_on_c, 1, 46, 127
1, 99739, Note_off_c, 1, 86, 0
1, 99740, Note_on_c, 1, 84, 127
1, 99759, Note_off_c, 1, 84, 0
1, 99760, Note_on_c, 1, 82, 127
1, 99779, Note_off_c, 1, 55, 0
1, 99779, Note_off_c, 1, 46, 0
1, 99779, Note_off_c, 1, 82, 0
1, 99780, Note_on_c, 1, 62, 127
1, 99780, Note_on_c, 1, 77, 127
1, 99780, Note_on_c, 1, 50, 127
1, 99810, Note_off_c, 1, 77, 0
1, 99810, Note_on_c, 1, 82, 127
1, 99839, Note_off_c, 1, 62, 0
1, 99839, Note_off_c, 1, 50, 0
1, 99839, Note_off_c, 1, 82, 0
1, 99840, Note_on_c, 1, 53, 127
1, 99840, Note_on_c, 1, 74, 127
1, 99840, Note_on_c, 1, 46, 127
1, 99869, Note_off_c, 1, 74, 0
1, 99870, Note_on_c, 1, 82, 127
1, 99899, Note_off_c, 1, 53, 0
1, 99899, Note_off_c, 1, 46, 0
1, 99899, Note_off_c, 1, 82, 0
1, 99900, Note_on_c, 1, 55, 127
1, 99900, Note_on_c, 1, 76, 127
1, 99919, Note_off_c, 1, 76, 0
1, 99920, Note_on_c, 1, 82, 127
1, 99939, Note_off_c, 1, 82, 0
1, 99940, Note_on_c, 1, 84, 127
1, 99959, Note_off_c, 1, 55, 0
1, 99959, Note_off_c, 1, 84, 0
1, 99960, Note_on_c, 1, 58, 127
1, 99960, Note_on_c, 1, 85, 127
1, 99960, Note_on_c, 1, 43, 127
1, 99979, Note_off_c, 1, 85, 0
1, 99980, Note_on_c, 1, 84, 127
1, 99999, Note_off_c, 1, 84, 0
1, 100000, Note_on_c, 1, 82, 127
1, 100019, Note_off_c, 1, 58, 0
1, 100019, Note_off_c, 1, 43, 0
1, 100019, Note_off_c, 1, 82, 0
1, 100020, Note_on_c, 1, 55, 127
1, 100020, Note_on_c, 1, 76, 127
1, 100020, Note_on_c, 1, 48, 127
1, 100049, Note_off_c, 1, 76, 0
1, 100050, Note_on_c, 1, 85, 127
1, 100079, Note_off_c, 1, 55, 0
1, 100079, Note_off_c, 1, 48, 0
1, 100079, Note_off_c, 1, 85, 0
1, 100080, Note_on_c, 1, 52, 127
1, 100080, Note_on_c, 1, 84, 127
1, 100080, Note_on_c, 1, 36, 127
1, 100109, Note_off_c, 1, 84, 0
1, 100110, Note_on_c, 1, 82, 127
1, 100139, Note_off_c, 1, 52, 0
1, 100139, Note_off_c, 1, 36, 0
1, 100139, Note_off_c, 1, 82, 0
1, 100140, Note_on_c, 1, 53, 127
1, 100140, Note_on_c, 1, 80, 127
1, 100159, Note_off_c, 1, 80, 0
1, 100160, Note_on_c, 1, 77, 127
1, 100179, Note_off_c, 1, 77, 0
1, 100180, Note_on_c, 1, 79, 127
1, 100199, Note_off_c, 1, 53, 0
1, 100199, Note_off_c, 1, 79, 0
1, 100200, Note_on_c, 1, 49, 127
1, 100200, Note_on_c, 1, 80, 127
1, 100200, Note_on_c, 1, 41, 127
1, 100219, Note_off_c, 1, 80, 0
1, 100220, Note_on_c, 1, 79, 127
1, 100239, Note_off_c, 1, 79, 0
1, 100240, Note_on_c, 1, 77, 127
1, 100259, Note_off_c, 1, 49, 0
1, 100259, Note_off_c, 1, 41, 0
1, 100259, Note_off_c, 1, 77, 0
1, 100260, Note_on_c, 1, 46, 127
1, 100260, Note_on_c, 1, 85, 127
1, 100289, Note_off_c, 1, 85, 0
1, 100290, Note_on_c, 1, 76, 127
1, 100319, Note_off_c, 1, 46, 0
1, 100319, Note_off_c, 1, 76, 0
1, 100320, Note_on_c, 1, 43, 127
1, 100320, Note_on_c, 1, 79, 127
1, 100320, Note_on_c, 1, 49, 127
1, 100349, Note_off_c, 1, 79, 0
1, 100350, Note_on_c, 1, 71, 127
1, 100379, Note_off_c, 1, 43, 0
1, 100379, Note_off_c, 1, 49, 0
1, 100379, Note_off_c, 1, 71, 0
1, 100380, Note_on_c, 1, 48, 127
1, 100380, Note_on_c, 1, 72, 127
1, 100409, Note_off_c, 1, 72, 0
1, 100410, Note_on_c, 1, 76, 127
1, 100439, Note_off_c, 1, 48, 0
1, 100439, Note_off_c, 1, 76, 0
1, 100440, Note_on_c, 1, 43, 127
1, 100440, Note_on_c, 1, 79, 127
1, 100440, Note_on_c, 1, 52, 127
1, 100469, Note_off_c, 1, 79, 0
1, 100469, Note_off_c, 1, 52, 0
1, 100470, Note_on_c, 1, 82, 127
1, 100470, Note_on_c, 1, 55, 127
1, 100499, Note_off_c, 1, 43, 0
1, 100499, Note_off_c, 1, 82, 0
1, 100499, Note_off_c, 1, 55, 0
1, 100500, Note_on_c, 1, 36, 127
1, 100500, Note_on_c, 1, 80, 127
1, 100500, Note_on_c, 1, 60, 127
1, 100529, Note_off_c, 1, 60, 0
1, 100530, Note_on_c, 1, 48, 127
1, 100559, Note_off_c, 1, 36, 0
1, 100559, Note_off_c, 1, 48, 0
1, 100560, Note_on_c, 1, 77, 127
1, 100560, Note_on_c, 1, 50, 127
1, 100589, Note_off_c, 1, 80, 0
1, 100589, Note_off_c, 1, 50, 0
1, 100590, Note_on_c, 1, 79, 127
1, 100590, Note_on_c, 1, 52, 127
1, 100619, Note_off_c, 1, 77, 0
1, 100619, Note_off_c, 1, 79, 0
1, 100619, Note_off_c, 1, 52, 0
1, 100620, Note_on_c, 1, 72, 127
1, 100620, Note_on_c, 1, 80, 127
1, 100620, Note_on_c, 1, 53, 127
1, 100649, Note_off_c, 1, 80, 0
1, 100650, Note_on_c, 1, 82, 127
1, 100679, Note_off_c, 1, 72, 0
1, 100679, Note_off_c, 1, 53, 0
1, 100679, Note_off_c, 1, 82, 0
1, 100680, Note_on_c, 1, 77, 127
1, 100680, Note_on_c, 1, 80, 127
1, 100680, Note_on_c, 1, 65, 127
1, 100709, Note_off_c, 1, 80, 0
1, 100710, Note_on_c, 1, 82, 127
1, 100739, Note_off_c, 1, 77, 0
1, 100739, Note_off_c, 1, 82, 0
1, 100740, Note_on_c, 1, 70, 127
1, 100740, Note_on_c, 1, 79, 127
1, 100769, Note_off_c, 1, 79, 0
1, 100799, Note_off_c, 1, 65, 0
1, 100799, Note_off_c, 1, 70, 0
1, 100800, Note_on_c, 1, 77, 127
1, 100800, Note_on_c, 1, 79, 127
1, 100800, Note_on_c, 1, 64, 127
1, 100830, Note_on_c, 1, 80, 127
1, 100859, Note_off_c, 1, 77, 0
1, 100859, Note_off_c, 1, 79, 0
1, 100859, Note_off_c, 1, 64, 0
1, 100859, Note_off_c, 1, 80, 0
1, 100860, Note_on_c, 1, 68, 127
1, 100860, Note_on_c, 1, 77, 127
1, 100860, Note_on_c, 1, 65, 127
1, 100889, Note_off_c, 1, 68, 0
1, 100889, Note_off_c, 1, 65, 0
1, 100890, Note_on_c, 1, 67, 127
1, 100890, Note_on_c, 1, 64, 127
1, 100919, Note_off_c, 1, 77, 0
1, 100919, Note_off_c, 1, 67, 0
1, 100919, Note_off_c, 1, 64, 0
1, 100920, Note_on_c, 1, 68, 127
1, 100920, Note_on_c, 1, 72, 127
1, 100920, Note_on_c, 1, 65, 127
1, 100949, Note_off_c, 1, 68, 0
1, 100949, Note_off_c, 1, 65, 0
1, 100950, Note_on_c, 1, 67, 127
1, 100950, Note_on_c, 1, 60, 127
1, 100979, Note_off_c, 1, 72, 0
1, 100979, Note_off_c, 1, 67, 0
1, 100979, Note_off_c, 1, 60, 0
1, 100980, Note_on_c, 1, 65, 127
1, 100980, Note_on_c, 1, 53, 127
1, 101009, Note_off_c, 1, 53, 0
1, 101010, Note_on_c, 1, 55, 127
1, 101039, Note_off_c, 1, 65, 0
1, 101039, Note_off_c, 1, 55, 0
1, 101040, Note_on_c, 1, 80, 127
1, 101040, Note_on_c, 1, 77, 127
1, 101040, Note_on_c, 1, 72, 127
1, 101040, Note_on_c, 1, 53, 127
1, 101070, Note_on_c, 1, 55, 127
1, 101099, Note_off_c, 1, 80, 0
1, 101099, Note_off_c, 1, 77, 0
1, 101099, Note_off_c, 1, 72, 0
1, 101099, Note_off_c, 1, 53, 0
1, 101099, Note_off_c, 1, 55, 0
1, 101100, Note_on_c, 1, 79, 127
1, 101100, Note_on_c, 1, 60, 127
1, 101100, Note_on_c, 1, 51, 127
1, 101129, Note_off_c, 1, 51, 0
1, 101130, Note_on_c, 1, 53, 127
1, 101159, Note_off_c, 1, 79, 0
1, 101159, Note_off_c, 1, 60, 0
1, 101159, Note_off_c, 1, 53, 0
1, 101160, Note_on_c, 1, 84, 127
1, 101160, Note_on_c, 1, 67, 127
1, 101160, Note_on_c, 1, 60, 127
1, 101160, Note_on_c, 1, 51, 127
1, 101189, Note_off_c, 1, 51, 0
1, 101190, Note_on_c, 1, 53, 127
1, 101219, Note_off_c, 1, 67, 0
1, 101219, Note_off_c, 1, 60, 0
1, 101219, Note_off_c, 1, 53, 0
1, 101220, Note_on_c, 1, 68, 127
1, 101220, Note_on_c, 1, 65, 127
1, 101220, Note_on_c, 1, 49, 127
1, 101249, Note_off_c, 1, 49, 0
1, 101279, Note_off_c, 1, 84, 0
1, 101279, Note_off_c, 1, 68, 0
1, 101279, Note_off_c, 1, 65, 0
1, 101280, Note_on_c, 1, 77, 127
1, 101280, Note_on_c, 1, 70, 127
1, 101280, Note_on_c, 1, 65, 127
1, 101280, Note_on_c, 1, 49, 127
1, 101309, Note_off_c, 1, 49, 0
1, 101310, Note_on_c, 1, 51, 127
1, 101339, Note_off_c, 1, 77, 0
1, 101339, Note_off_c, 1, 70, 0
1, 101339, Note_off_c, 1, 65, 0
1, 101339, Note_off_c, 1, 51, 0
1, 101340, Note_on_c, 1, 76, 127
1, 101340, Note_on_c, 1, 72, 127
1, 101340, Note_on_c, 1, 67, 127
1, 101340, Note_on_c, 1, 48, 127
1, 101369, Note_off_c, 1, 76, 0
1, 101369, Note_off_c, 1, 72, 0
1, 101370, Note_on_c, 1, 74, 127
1, 101399, Note_off_c, 1, 67, 0
1, 101399, Note_off_c, 1, 48, 0
1, 101399, Note_off_c, 1, 74, 0
1, 101400, Note_on_c, 1, 76, 127
1, 101400, Note_on_c, 1, 72, 127
1, 101400, Note_on_c, 1, 67, 127
1, 101400, Note_on_c, 1, 43, 127
1, 101429, Note_off_c, 1, 76, 0
1, 101429, Note_off_c, 1, 72, 0
1, 101430, Note_on_c, 1, 74, 127
1, 101459, Note_off_c, 1, 67, 0
1, 101459, Note_off_c, 1, 43, 0
1, 101459, Note_off_c, 1, 74, 0
1, 101460, Note_on_c, 1, 72, 127
1, 101460, Note_on_c, 1, 76, 127
1, 101460, Note_on_c, 1, 67, 127
1, 101460, Note_on_c, 1, 36, 127
1, 101490, Note_on_c, 1, 48, 127
1, 101519, Note_off_c, 1, 72, 0
1, 101519, Note_off_c, 1, 76, 0
1, 101519, Note_off_c, 1, 67, 0
1, 101519, Note_off_c, 1, 36, 0
1, 101519, Note_off_c, 1, 48, 0
1, 101520, Note_on_c, 1, 79, 127
1, 101520, Note_on_c, 1, 72, 127
1, 101520, Note_on_c, 1, 67, 127
1, 101520, Note_on_c, 1, 52, 127
1, 101550, Note_on_c, 1, 48, 127
1, 101579, Note_off_c, 1, 79, 0
1, 101579, Note_off_c, 1, 72, 0
1, 101579, Note_off_c, 1, 67, 0
1, 101579, Note_off_c, 1, 52, 0
1, 101579, Note_off_c, 1, 48, 0
1, 101580, Note_on_c, 1, 80, 127
1, 101580, Note_on_c, 1, 72, 127
1, 101580, Note_on_c, 1, 65, 127
1, 101580, Note_on_c, 1, 53, 127
1, 101609, Note_off_c, 1, 53, 0
1, 101610, Note_on_c, 1, 55, 127
1, 101610, Note_on_c, 1, 82, 127
1, 101639, Note_off_c, 1, 72, 0
1, 101639, Note_off_c, 1, 65, 0
1, 101639, Note_off_c, 1, 55, 0
1, 101639, Note_off_c, 1, 82, 0
1, 101640, Note_on_c, 1, 77, 127
1, 101699, Note_off_c, 1, 77, 0
1, 101700, Note_on_c, 1, 75, 127
1, 101700, Note_on_c, 1, 51, 127
1, 101700, Note_on_c, 1, 79, 127
1, 101729, Note_off_c, 1, 51, 0
1, 101729, Note_off_c, 1, 79, 0
1, 101759, Note_off_c, 1, 75, 0
1, 101820, Note_on_c, 1, 50, 127
1, 101849, Note_off_c, 1, 50, 0
1, 101940, Note_on_c, 1, 68, 127
1, 101940, Note_on_c, 1, 48, 127
1, 101969, Note_off_c, 1, 48, 0
1, 101999, Note_off_c, 1, 68, 0
1, 102000, Note_on_c, 1, 63, 127
1, 102059, Note_off_c, 1, 63, 0
1, 102060, Note_on_c, 1, 70, 127
1, 102060, Note_on_c, 1, 58, 127
1, 102060, Note_on_c, 1, 74, 127
1, 102060, Note_on_c, 1, 46, 127
1, 102089, Note_off_c, 1, 70, 0
1, 102089, Note_off_c, 1, 58, 0
1, 102089, Note_off_c, 1, 74, 0
1, 102090, Note_on_c, 1, 60, 127
1, 102119, Note_off_c, 1, 46, 0
1, 102119, Note_off_c, 1, 60, 0
1, 102180, Note_on_c, 1, 56, 127
1, 102180, Note_on_c, 1, 44, 127
1, 102209, Note_off_c, 1, 56, 0
1, 102239, Note_off_c, 1, 44, 0
1, 102300, Note_on_c, 1, 67, 127
1, 102300, Note_on_c, 1, 43, 127
1, 102329, Note_off_c, 1, 67, 0
1, 102359, Note_off_c, 1, 43, 0
1, 102420, Note_on_c, 1, 41, 127
1, 102479, Note_off_c, 1, 41, 0
1, 102540, Note_off_c, 1, 80, 0
1, 102960, Note_on_c, 1, 62, 127
1, 103019, Note_off_c, 1, 62, 0
1, 103380, Note_on_c, 1, 39, 127
1, 103439, Note_off_c, 1, 39, 0
1, 103740, Note_on_c, 1, 47, 127
1, 103769, Note_off_c, 1, 47, 0
1, 103860, Note_on_c, 1, 45, 127
1, 103889, Note_off_c, 1, 45, 0
1, 103980, Note_on_c, 1, 71, 127
1, 104009, Note_off_c, 1, 71, 0
1, 104250, Note_on_c, 1, 69, 127
1, 104279, Note_off_c, 1, 69, 0
1, 104340, Note_on_c, 1, 38, 127
1, 104399, Note_off_c, 1, 38, 0
1, 104460, Note_on_c, 1, 36, 127
1, 104519, Note_off_c, 1, 36, 0
1, 104520, Note_on_c, 1, 72, 127
1, 104520, Note_on_c, 1, 75, 127
1, 104520, Note_on_c, 1, 60, 127
1, 104549, Note_off_c, 1, 75, 0
1, 104550, Note_on_c, 1, 77, 127
1, 104579, Note_off_c, 1, 72, 0
1, 104579, Note_off_c, 1, 77, 0
1, 104580, Note_on_c, 1, 65, 127
1, 104580, Note_on_c, 1, 74, 127
1, 104609, Note_off_c, 1, 74, 0
1, 104639, Note_off_c, 1, 60, 0
1, 104639, Note_off_c, 1, 65, 0
1, 104640, Note_on_c, 1, 74, 127
1, 104640, Note_on_c, 1, 59, 127
1, 104670, Note_on_c, 1, 75, 127
1, 104699, Note_off_c, 1, 74, 0
1, 104699, Note_off_c, 1, 59, 0
1, 104699, Note_off_c, 1, 75, 0
1, 104700, Note_on_c, 1, 63, 127
1, 104700, Note_on_c, 1, 72, 127
1, 104700, Note_on_c, 1, 60, 127
1, 104729, Note_off_c, 1, 63, 0
1, 104729, Note_off_c, 1, 60, 0
1, 104730, Note_on_c, 1, 62, 127
1, 104730, Note_on_c, 1, 55, 127
1, 104759, Note_off_c, 1, 72, 0
1, 104759, Note_off_c, 1, 62, 0
1, 104759, Note_off_c, 1, 55, 0
1, 104760, Note_on_c, 1, 63, 127
1, 104760, Note_on_c, 1, 48, 127
1, 104760, Note_on_c, 1, 67, 127
1, 104760, Note_on_c, 1, 51, 127
1, 104789, Note_off_c, 1, 63, 0
1, 104789, Note_off_c, 1, 48, 0
1, 104789, Note_off_c, 1, 51, 0
1, 104790, Note_on_c, 1, 62, 127
1, 104790, Note_on_c, 1, 47, 127
1, 104790, Note_on_c, 1, 55, 127
1, 104819, Note_off_c, 1, 67, 0
1, 104819, Note_off_c, 1, 62, 0
1, 104819, Note_off_c, 1, 47, 0
1, 104819, Note_off_c, 1, 55, 0
1, 104820, Note_on_c, 1, 60, 127
1, 104820, Note_on_c, 1, 48, 127
1, 104820, Note_on_c, 1, 63, 127
1, 104849, Note_off_c, 1, 48, 0
1, 104850, Note_on_c, 1, 50, 127
1, 104879, Note_off_c, 1, 63, 0
1, 104879, Note_off_c, 1, 50, 0
1, 104880, Note_on_c, 1, 72, 127
1, 104880, Note_on_c, 1, 67, 127
1, 104909, Note_off_c, 1, 67, 0
1, 104910, Note_on_c, 1, 65, 127
1, 104939, Note_off_c, 1, 72, 0
1, 104939, Note_off_c, 1, 65, 0
1, 104940, Note_on_c, 1, 51, 127
1, 104970, Note_on_c, 1, 68, 127
1, 104999, Note_off_c, 1, 60, 0
1, 104999, Note_off_c, 1, 51, 0
1, 104999, Note_off_c, 1, 68, 0
1, 105000, Note_on_c, 1, 72, 127
1, 105000, Note_on_c, 1, 67, 127
1, 105000, Note_on_c, 1, 63, 127
1, 105000, Note_on_c, 1, 48, 127
1, 105000, Note_on_c, 1, 51, 127
1, 105029, Note_off_c, 1, 67, 0
1, 105029, Note_off_c, 1, 63, 0
1, 105029, Note_off_c, 1, 51, 0
1, 105030, Note_on_c, 1, 68, 127
1, 105030, Note_on_c, 1, 65, 127
1, 105059, Note_off_c, 1, 48, 0
1, 105059, Note_off_c, 1, 68, 0
1, 105059, Note_off_c, 1, 65, 0
1, 105060, Note_on_c, 1, 62, 127
1, 105060, Note_on_c, 1, 55, 127
1, 105089, Note_off_c, 1, 62, 0
1, 105090, Note_on_c, 1, 53, 127
1, 105119, Note_off_c, 1, 72, 0
1, 105119, Note_off_c, 1, 55, 0
1, 105119, Note_off_c, 1, 53, 0
1, 105120, Note_on_c, 1, 74, 127
1, 105120, Note_on_c, 1, 65, 127
1, 105120, Note_on_c, 1, 62, 127
1, 105120, Note_on_c, 1, 43, 127
1, 105120, Note_on_c, 1, 71, 127
1, 105120, Note_on_c, 1, 55, 127
1, 105149, Note_off_c, 1, 65, 0
1, 105149, Note_off_c, 1, 62, 0
1, 105149, Note_off_c, 1, 55, 0
1, 105150, Note_on_c, 1, 67, 127
1, 105150, Note_on_c, 1, 63, 127
1, 105179, Note_off_c, 1, 74, 0
1, 105179, Note_off_c, 1, 43, 0
1, 105179, Note_off_c, 1, 71, 0
1, 105179, Note_off_c, 1, 67, 0
1, 105179, Note_off_c, 1, 63, 0
1, 105180, Note_on_c, 1, 63, 127
1, 105180, Note_on_c, 1, 60, 127
1, 105180, Note_on_c, 1, 48, 127
1, 105180, Note_on_c, 1, 72, 127
1, 105209, Note_off_c, 1, 63, 0
1, 105209, Note_off_c, 1, 60, 0
1, 105209, Note_off_c, 1, 72, 0
1, 105210, Note_on_c, 1, 62, 127
1, 105210, Note_on_c, 1, 65, 127
1, 105210, Note_on_c, 1, 59, 127
1, 105210, Note_on_c, 1, 74, 127
1, 105239, Note_off_c, 1, 48, 0
1, 105239, Note_off_c, 1, 62, 0
1, 105239, Note_off_c, 1, 65, 0
1, 105239, Note_off_c, 1, 59, 0
1, 105239, Note_off_c, 1, 74, 0
1, 105240, Note_on_c, 1, 63, 127
1, 105240, Note_on_c, 1, 60, 127
1, 105240, Note_on_c, 1, 43, 127
1, 105240, Note_on_c, 1, 72, 127
1, 105269, Note_off_c, 1, 63, 0
1, 105269, Note_off_c, 1, 60, 0
1, 105269, Note_off_c, 1, 72, 0
1, 105270, Note_on_c, 1, 62, 127
1, 105270, Note_on_c, 1, 65, 127
1, 105270, Note_on_c, 1, 59, 127
1, 105270, Note_on_c, 1, 74, 127
1, 105299, Note_off_c, 1, 43, 0
1, 105299, Note_off_c, 1, 62, 0
1, 105299, Note_off_c, 1, 65, 0
1, 105299, Note_off_c, 1, 59, 0
1, 105299, Note_off_c, 1, 74, 0
1, 105300, Note_on_c, 1, 60, 127
1, 105300, Note_on_c, 1, 67, 127
1, 105300, Note_on_c, 1, 36, 127
1, 105300, Note_on_c, 1, 75, 127
1, 105330, Note_on_c, 1, 62, 127
1, 105359, Note_off_c, 1, 60, 0
1, 105359, Note_off_c, 1, 67, 0
1, 105359, Note_off_c, 1, 36, 0
1, 105359, Note_off_c, 1, 75, 0
1, 105359, Note_off_c, 1, 62, 0
1, 105360, Note_on_c, 1, 74, 127
1, 105360, Note_on_c, 1, 63, 127
1, 105360, Note_on_c, 1, 48, 127
1, 105389, Note_off_c, 1, 74, 0
1, 105389, Note_off_c, 1, 63, 0
1, 105389, Note_off_c, 1, 48, 0
1, 105390, Note_on_c, 1, 72, 127
1, 105390, Note_on_c, 1, 65, 127
1, 105390, Note_on_c, 1, 50, 127
1, 105419, Note_off_c, 1, 72, 0
1, 105419, Note_off_c, 1, 65, 0
1, 105419, Note_off_c, 1, 50, 0
1, 105420, Note_on_c, 1, 70, 127
1, 105420, Note_on_c, 1, 67, 127
1, 105420, Note_on_c, 1, 51, 127
1, 105449, Note_off_c, 1, 67, 0
1, 105449, Note_off_c, 1, 51, 0
1, 105450, Note_on_c, 1, 68, 127
1, 105450, Note_on_c, 1, 50, 127
1, 105479, Note_off_c, 1, 70, 0
1, 105479, Note_off_c, 1, 68, 0
1, 105479, Note_off_c, 1, 50, 0
1, 105480, Note_on_c, 1, 75, 127
1, 105480, Note_on_c, 1, 67, 127
1, 105480, Note_on_c, 1, 51, 127
1, 105509, Note_off_c, 1, 67, 0
1, 105510, Note_on_c, 1, 68, 127
1, 105539, Note_off_c, 1, 75, 0
1, 105539, Note_off_c, 1, 68, 0
1, 105540, Note_on_c, 1, 65, 127
1, 105569, Note_off_c, 1, 65, 0
1, 105599, Note_off_c, 1, 51, 0
1, 105600, Note_on_c, 1, 77, 127
1, 105600, Note_on_c, 1, 65, 127
1, 105600, Note_on_c, 1, 50, 127
1, 105629, Note_off_c, 1, 65, 0
1, 105630, Note_on_c, 1, 67, 127
1, 105659, Note_off_c, 1, 77, 0
1, 105659, Note_off_c, 1, 50, 0
1, 105659, Note_off_c, 1, 67, 0
1, 105660, Note_on_c, 1, 67, 127
1, 105660, Note_on_c, 1, 63, 127
1, 105660, Note_on_c, 1, 51, 127
1, 105689, Note_off_c, 1, 67, 0
1, 105689, Note_off_c, 1, 51, 0
1, 105690, Note_on_c, 1, 65, 127
1, 105690, Note_on_c, 1, 46, 127
1, 105719, Note_off_c, 1, 63, 0
1, 105719, Note_off_c, 1, 65, 0
1, 105719, Note_off_c, 1, 46, 0
1, 105720, Note_on_c, 1, 67, 127
1, 105720, Note_on_c, 1, 51, 127
1, 105720, Note_on_c, 1, 70, 127
1, 105720, Note_on_c, 1, 43, 127
1, 105749, Note_off_c, 1, 67, 0
1, 105749, Note_off_c, 1, 51, 0
1, 105749, Note_off_c, 1, 43, 0
1, 105750, Note_on_c, 1, 65, 127
1, 105750, Note_on_c, 1, 50, 127
1, 105750, Note_on_c, 1, 46, 127
1, 105779, Note_off_c, 1, 70, 0
1, 105779, Note_off_c, 1, 65, 0
1, 105779, Note_off_c, 1, 50, 0
1, 105779, Note_off_c, 1, 46, 0
1, 105780, Note_on_c, 1, 63, 127
1, 105780, Note_on_c, 1, 51, 127
1, 105780, Note_on_c, 1, 79, 127
1, 105780, Note_on_c, 1, 39, 127
1, 105809, Note_off_c, 1, 51, 0
1, 105809, Note_off_c, 1, 39, 0
1, 105810, Note_on_c, 1, 53, 127
1, 105810, Note_on_c, 1, 46, 127
1, 105839, Note_off_c, 1, 79, 0
1, 105839, Note_off_c, 1, 53, 0
1, 105839, Note_off_c, 1, 46, 0
1, 105840, Note_on_c, 1, 75, 127
1, 105840, Note_on_c, 1, 70, 127
1, 105840, Note_on_c, 1, 67, 127
1, 105869, Note_off_c, 1, 70, 0
1, 105869, Note_off_c, 1, 67, 0
1, 105870, Note_on_c, 1, 69, 127
1, 105870, Note_on_c, 1, 68, 127
1, 105899, Note_off_c, 1, 75, 0
1, 105899, Note_off_c, 1, 69, 0
1, 105899, Note_off_c, 1, 68, 0
1, 105900, Note_on_c, 1, 55, 127
1, 105930, Note_on_c, 1, 72, 127
1, 105959, Note_off_c, 1, 63, 0
1, 105959, Note_off_c, 1, 55, 0
1, 105959, Note_off_c, 1, 72, 0
1, 105960, Note_on_c, 1, 75, 127
1, 105960, Note_on_c, 1, 70, 127
1, 105960, Note_on_c, 1, 67, 127
1, 105960, Note_on_c, 1, 51, 127
1, 105960, Note_on_c, 1, 55, 127
1, 105989, Note_off_c, 1, 70, 0
1, 105989, Note_off_c, 1, 67, 0
1, 105989, Note_off_c, 1, 55, 0
1, 105990, Note_on_c, 1, 72, 127
1, 105990, Note_on_c, 1, 68, 127
1, 106019, Note_off_c, 1, 51, 0
1, 106019, Note_off_c, 1, 72, 0
1, 106019, Note_off_c, 1, 68, 0
1, 106020, Note_on_c, 1, 65, 127
1, 106020, Note_on_c, 1, 58, 127
1, 106049, Note_off_c, 1, 65, 0
1, 106050, Note_on_c, 1, 56, 127
1, 106079, Note_off_c, 1, 75, 0
1, 106079, Note_off_c, 1, 58, 0
1, 106079, Note_off_c, 1, 56, 0
1, 106080, Note_on_c, 1, 77, 127
1, 106080, Note_on_c, 1, 68, 127
1, 106080, Note_on_c, 1, 65, 127
1, 106080, Note_on_c, 1, 46, 127
1, 106080, Note_on_c, 1, 74, 127
1, 106080, Note_on_c, 1, 58, 127
1, 106109, Note_off_c, 1, 68, 0
1, 106109, Note_off_c, 1, 65, 0
1, 106109, Note_off_c, 1, 58, 0
1, 106110, Note_on_c, 1, 70, 127
1, 106110, Note_on_c, 1, 67, 127
1, 106139, Note_off_c, 1, 77, 0
1, 106139, Note_off_c, 1, 46, 0
1, 106139, Note_off_c, 1, 74, 0
1, 106139, Note_off_c, 1, 70, 0
1, 106139, Note_off_c, 1, 67, 0
1, 106140, Note_on_c, 1, 67, 127
1, 106140, Note_on_c, 1, 63, 127
1, 106140, Note_on_c, 1, 51, 127
1, 106140, Note_on_c, 1, 75, 127
1, 106140, Note_on_c, 1, 70, 127
1, 106169, Note_off_c, 1, 67, 0
1, 106169, Note_off_c, 1, 63, 0
1, 106169, Note_off_c, 1, 70, 0
1, 106170, Note_on_c, 1, 65, 127
1, 106170, Note_on_c, 1, 68, 127
1, 106170, Note_on_c, 1, 62, 127
1, 106199, Note_off_c, 1, 51, 0
1, 106199, Note_off_c, 1, 65, 0
1, 106199, Note_off_c, 1, 68, 0
1, 106199, Note_off_c, 1, 62, 0
1, 106200, Note_on_c, 1, 46, 127
1, 106259, Note_off_c, 1, 75, 0
1, 106259, Note_off_c, 1, 46, 0
1, 106260, Note_on_c, 1, 63, 127
1, 106260, Note_on_c, 1, 70, 127
1, 106260, Note_on_c, 1, 39, 127
1, 106260, Note_on_c, 1, 51, 127
1, 106290, Note_on_c, 1, 38, 127
1, 106319, Note_off_c, 1, 63, 0
1, 106319, Note_off_c, 1, 70, 0
1, 106319, Note_off_c, 1, 39, 0
1, 106319, Note_off_c, 1, 51, 0
1, 106319, Note_off_c, 1, 38, 0
1, 106320, Note_on_c, 1, 51, 127
1, 106320, Note_on_c, 1, 75, 127
1, 106320, Note_on_c, 1, 39, 127
1, 106320, Note_on_c, 1, 70, 127
1, 106320, Note_on_c, 1, 55, 127
1, 106349, Note_off_c, 1, 51, 0
1, 106349, Note_off_c, 1, 39, 0
1, 106349, Note_off_c, 1, 55, 0
1, 106350, Note_on_c, 1, 53, 127
1, 106350, Note_on_c, 1, 41, 127
1, 106350, Note_on_c, 1, 58, 127
1, 106379, Note_off_c, 1, 75, 0
1, 106379, Note_off_c, 1, 53, 0
1, 106379, Note_off_c, 1, 41, 0
1, 106379, Note_off_c, 1, 58, 0
1, 106380, Note_on_c, 1, 63, 127
1, 106380, Note_on_c, 1, 43, 127
1, 106410, Note_on_c, 1, 62, 127
1, 106439, Note_off_c, 1, 70, 0
1, 106439, Note_off_c, 1, 63, 0
1, 106439, Note_off_c, 1, 43, 0
1, 106439, Note_off_c, 1, 62, 0
1, 106440, Note_on_c, 1, 58, 127
1, 106440, Note_on_c, 1, 63, 127
1, 106440, Note_on_c, 1, 46, 127
1, 106440, Note_on_c, 1, 67, 127
1, 106440, Note_on_c, 1, 61, 127
1, 106469, Note_off_c, 1, 63, 0
1, 106469, Note_off_c, 1, 67, 0
1, 106469, Note_off_c, 1, 61, 0
1, 106470, Note_on_c, 1, 65, 127
1, 106470, Note_on_c, 1, 68, 127
1, 106470, Note_on_c, 1, 60, 127
1, 106499, Note_off_c, 1, 58, 0
1, 106499, Note_off_c, 1, 46, 0
1, 106499, Note_off_c, 1, 65, 0
1, 106499, Note_off_c, 1, 68, 0
1, 106499, Note_off_c, 1, 60, 0
1, 106500, Note_on_c, 1, 51, 127
1, 106500, Note_on_c, 1, 67, 127
1, 106500, Note_on_c, 1, 39, 127
1, 106500, Note_on_c, 1, 70, 127
1, 106500, Note_on_c, 1, 58, 127
1, 106529, Note_off_c, 1, 67, 0
1, 106529, Note_off_c, 1, 58, 0
1, 106530, Note_on_c, 1, 68, 127
1, 106530, Note_on_c, 1, 56, 127
1, 106559, Note_off_c, 1, 51, 0
1, 106559, Note_off_c, 1, 39, 0
1, 106559, Note_off_c, 1, 70, 0
1, 106559, Note_off_c, 1, 68, 0
1, 106559, Note_off_c, 1, 56, 0
1, 106560, Note_on_c, 1, 55, 127
1, 106560, Note_on_c, 1, 70, 127
1, 106560, Note_on_c, 1, 43, 127
1, 106560, Note_on_c, 1, 75, 127
1, 106589, Note_off_c, 1, 70, 0
1, 106590, Note_on_c, 1, 72, 127
1, 106590, Note_on_c, 1, 53, 127
1, 106619, Note_off_c, 1, 55, 0
1, 106619, Note_off_c, 1, 43, 0
1, 106619, Note_off_c, 1, 72, 0
1, 106619, Note_off_c, 1, 53, 0
1, 106620, Note_on_c, 1, 56, 127
1, 106620, Note_on_c, 1, 73, 127
1, 106620, Note_on_c, 1, 44, 127
1, 106620, Note_on_c, 1, 51, 127
1, 106649, Note_off_c, 1, 73, 0
1, 106649, Note_off_c, 1, 51, 0
1, 106679, Note_off_c, 1, 75, 0
1, 106679, Note_off_c, 1, 56, 0
1, 106679, Note_off_c, 1, 44, 0
1, 106680, Note_on_c, 1, 44, 127
1, 106680, Note_on_c, 1, 72, 127
1, 106680, Note_on_c, 1, 51, 127
1, 106680, Note_on_c, 1, 68, 127
1, 106680, Note_on_c, 1, 56, 127
1, 106709, Note_off_c, 1, 72, 0
1, 106709, Note_off_c, 1, 56, 0
1, 106739, Note_off_c, 1, 44, 0
1, 106739, Note_off_c, 1, 51, 0
1, 106739, Note_off_c, 1, 68, 0
1, 106740, Note_on_c, 1, 56, 127
1, 106740, Note_on_c, 1, 63, 127
1, 106740, Note_on_c, 1, 72, 127
1, 106740, Note_on_c, 1, 48, 127
1, 106769, Note_off_c, 1, 63, 0
1, 106769, Note_off_c, 1, 48, 0
1, 106770, Note_on_c, 1, 68, 127
1, 106770, Note_on_c, 1, 51, 127
1, 106799, Note_off_c, 1, 56, 0
1, 106799, Note_off_c, 1, 72, 0
1, 106799, Note_off_c, 1, 68, 0
1, 106799, Note_off_c, 1, 51, 0
1, 106800, Note_on_c, 1, 68, 127
1, 106800, Note_on_c, 1, 72, 127
1, 106800, Note_on_c, 1, 63, 127
1, 106800, Note_on_c, 1, 75, 127
1, 106800, Note_on_c, 1, 44, 127
1, 106829, Note_off_c, 1, 72, 0
1, 106829, Note_off_c, 1, 44, 0
1, 106830, Note_on_c, 1, 48, 127
1, 106859, Note_off_c, 1, 68, 0
1, 106859, Note_off_c, 1, 75, 0
1, 106859, Note_off_c, 1, 48, 0
1, 106860, Note_on_c, 1, 67, 127
1, 106860, Note_on_c, 1, 70, 127
1, 106860, Note_on_c, 1, 43, 127
1, 106890, Note_on_c, 1, 62, 127
1, 106919, Note_off_c, 1, 63, 0
1, 106919, Note_off_c, 1, 67, 0
1, 106919, Note_off_c, 1, 70, 0
1, 106919, Note_off_c, 1, 43, 0
1, 106919, Note_off_c, 1, 62, 0
1, 106920, Note_on_c, 1, 70, 127
1, 106920, Note_on_c, 1, 67, 127
1, 106920, Note_on_c, 1, 61, 127
1, 106920, Note_on_c, 1, 63, 127
1, 106920, Note_on_c, 1, 46, 127
1, 106949, Note_off_c, 1, 67, 0
1, 106949, Note_off_c, 1, 61, 0
1, 106949, Note_off_c, 1, 63, 0
1, 106950, Note_on_c, 1, 68, 127
1, 106950, Note_on_c, 1, 60, 127
1, 106950, Note_on_c, 1, 65, 127
1, 106979, Note_off_c, 1, 70, 0
1, 106979, Note_off_c, 1, 46, 0
1, 106979, Note_off_c, 1, 68, 0
1, 106979, Note_off_c, 1, 60, 0
1, 106979, Note_off_c, 1, 65, 0
1, 106980, Note_on_c, 1, 63, 127
1, 106980, Note_on_c, 1, 70, 127
1, 106980, Note_on_c, 1, 58, 127
1, 106980, Note_on_c, 1, 67, 127
1, 106980, Note_on_c, 1, 39, 127
1, 107009, Note_off_c, 1, 58, 0
1, 107009, Note_off_c, 1, 67, 0
1, 107010, Note_on_c, 1, 56, 127
1, 107010, Note_on_c, 1, 68, 127
1, 107039, Note_off_c, 1, 63, 0
1, 107039, Note_off_c, 1, 70, 0
1, 107039, Note_off_c, 1, 39, 0
1, 107039, Note_off_c, 1, 56, 0
1, 107039, Note_off_c, 1, 68, 0
1, 107040, Note_on_c, 1, 67, 127
1, 107040, Note_on_c, 1, 51, 127
1, 107040, Note_on_c, 1, 75, 127
1, 107040, Note_on_c, 1, 55, 127
1, 107040, Note_on_c, 1, 70, 127
1, 107040, Note_on_c, 1, 43, 127
1, 107069, Note_off_c, 1, 55, 0
1, 107069, Note_off_c, 1, 70, 0
1, 107070, Note_on_c, 1, 53, 127
1, 107070, Note_on_c, 1, 72, 127
1, 107099, Note_off_c, 1, 67, 0
1, 107099, Note_off_c, 1, 51, 0
1, 107099, Note_off_c, 1, 43, 0
1, 107099, Note_off_c, 1, 53, 0
1, 107099, Note_off_c, 1, 72, 0
1, 107100, Note_on_c, 1, 68, 127
1, 107100, Note_on_c, 1, 56, 127
1, 107100, Note_on_c, 1, 73, 127
1, 107100, Note_on_c, 1, 44, 127
1, 107129, Note_off_c, 1, 73, 0
1, 107159, Note_off_c, 1, 75, 0
1, 107159, Note_off_c, 1, 68, 0
1, 107159, Note_off_c, 1, 56, 0
1, 107159, Note_off_c, 1, 44, 0
1, 107160, Note_on_c, 1, 63, 127
1, 107160, Note_on_c, 1, 44, 127
1, 107160, Note_on_c, 1, 68, 127
1, 107160, Note_on_c, 1, 56, 127
1, 107160, Note_on_c, 1, 72, 127
1, 107160, Note_on_c, 1, 51, 127
1, 107189, Note_off_c, 1, 56, 0
1, 107189, Note_off_c, 1, 72, 0
1, 107219, Note_off_c, 1, 63, 0
1, 107219, Note_off_c, 1, 44, 0
1, 107219, Note_off_c, 1, 68, 0
1, 107219, Note_off_c, 1, 51, 0
1, 107220, Note_on_c, 1, 56, 127
1, 107220, Note_on_c, 1, 72, 127
1, 107220, Note_on_c, 1, 48, 127
1, 107220, Note_on_c, 1, 63, 127
1, 107249, Note_off_c, 1, 48, 0
1, 107249, Note_off_c, 1, 63, 0
1, 107250, Note_on_c, 1, 51, 127
1, 107250, Note_on_c, 1, 68, 127
1, 107279, Note_off_c, 1, 56, 0
1, 107279, Note_off_c, 1, 72, 0
1, 107279, Note_off_c, 1, 51, 0
1, 107279, Note_off_c, 1, 68, 0
1, 107280, Note_on_c, 1, 53, 127
1, 107280, Note_on_c, 1, 75, 127
1, 107280, Note_on_c, 1, 44, 127
1, 107280, Note_on_c, 1, 72, 127
1, 107280, Note_on_c, 1, 56, 127
1, 107309, Note_off_c, 1, 53, 0
1, 107309, Note_off_c, 1, 44, 0
1, 107309, Note_off_c, 1, 56, 0
1, 107310, Note_on_c, 1, 55, 127
1, 107310, Note_on_c, 1, 43, 127
1, 107310, Note_on_c, 1, 60, 127
1, 107339, Note_off_c, 1, 75, 0
1, 107339, Note_off_c, 1, 55, 0
1, 107339, Note_off_c, 1, 43, 0
1, 107339, Note_off_c, 1, 60, 0
1, 107340, Note_on_c, 1, 57, 127
1, 107340, Note_on_c, 1, 65, 127
1, 107340, Note_on_c, 1, 45, 127
1, 107370, Note_on_c, 1, 64, 127
1, 107399, Note_off_c, 1, 72, 0
1, 107399, Note_off_c, 1, 57, 0
1, 107399, Note_off_c, 1, 65, 0
1, 107399, Note_off_c, 1, 45, 0
1, 107399, Note_off_c, 1, 64, 0
1, 107400, Note_on_c, 1, 60, 127
1, 107400, Note_on_c, 1, 65, 127
1, 107400, Note_on_c, 1, 48, 127
1, 107400, Note_on_c, 1, 69, 127
1, 107400, Note_on_c, 1, 63, 127
1, 107429, Note_off_c, 1, 65, 0
1, 107429, Note_off_c, 1, 69, 0
1, 107429, Note_off_c, 1, 63, 0
1, 107430, Note_on_c, 1, 67, 127
1, 107430, Note_on_c, 1, 70, 127
1, 107430, Note_on_c, 1, 62, 127
1, 107459, Note_off_c, 1, 60, 0
1, 107459, Note_off_c, 1, 48, 0
1, 107459, Note_off_c, 1, 67, 0
1, 107459, Note_off_c, 1, 70, 0
1, 107459, Note_off_c, 1, 62, 0
1, 107460, Note_on_c, 1, 53, 127
1, 107460, Note_on_c, 1, 69, 127
1, 107460, Note_on_c, 1, 41, 127
1, 107460, Note_on_c, 1, 72, 127
1, 107460, Note_on_c, 1, 60, 127
1, 107489, Note_off_c, 1, 69, 0
1, 107489, Note_off_c, 1, 60, 0
1, 107490, Note_on_c, 1, 70, 127
1, 107490, Note_on_c, 1, 58, 127
1, 107519, Note_off_c, 1, 53, 0
1, 107519, Note_off_c, 1, 41, 0
1, 107519, Note_off_c, 1, 72, 0
1, 107519, Note_off_c, 1, 70, 0
1, 107519, Note_off_c, 1, 58, 0
1, 107520, Note_on_c, 1, 57, 127
1, 107520, Note_on_c, 1, 72, 127
1, 107520, Note_on_c, 1, 45, 127
1, 107520, Note_on_c, 1, 77, 127
1, 107549, Note_off_c, 1, 72, 0
1, 107550, Note_on_c, 1, 74, 127
1, 107550, Note_on_c, 1, 55, 127
1, 107579, Note_off_c, 1, 57, 0
1, 107579, Note_off_c, 1, 45, 0
1, 107579, Note_off_c, 1, 74, 0
1, 107579, Note_off_c, 1, 55, 0
1, 107580, Note_on_c, 1, 58, 127
1, 107580, Note_on_c, 1, 75, 127
1, 107580, Note_on_c, 1, 46, 127
1, 107580, Note_on_c, 1, 53, 127
1, 107609, Note_off_c, 1, 75, 0
1, 107609, Note_off_c, 1, 53, 0
1, 107639, Note_off_c, 1, 77, 0
1, 107639, Note_off_c, 1, 58, 0
1, 107639, Note_off_c, 1, 46, 0
1, 107640, Note_on_c, 1, 46, 127
1, 107640, Note_on_c, 1, 74, 127
1, 107640, Note_on_c, 1, 53, 127
1, 107640, Note_on_c, 1, 70, 127
1, 107640, Note_on_c, 1, 58, 127
1, 107669, Note_off_c, 1, 74, 0
1, 107669, Note_off_c, 1, 58, 0
1, 107699, Note_off_c, 1, 46, 0
1, 107699, Note_off_c, 1, 53, 0
1, 107699, Note_off_c, 1, 70, 0
1, 107700, Note_on_c, 1, 58, 127
1, 107700, Note_on_c, 1, 65, 127
1, 107700, Note_on_c, 1, 74, 127
1, 107700, Note_on_c, 1, 50, 127
1, 107729, Note_off_c, 1, 65, 0
1, 107729, Note_off_c, 1, 50, 0
1, 107730, Note_on_c, 1, 70, 127
1, 107730, Note_on_c, 1, 53, 127
1, 107759, Note_off_c, 1, 58, 0
1, 107759, Note_off_c, 1, 74, 0
1, 107759, Note_off_c, 1, 70, 0
1, 107759, Note_off_c, 1, 53, 0
1, 107760, Note_on_c, 1, 70, 127
1, 107760, Note_on_c, 1, 74, 127
1, 107760, Note_on_c, 1, 65, 127
1, 107760, Note_on_c, 1, 77, 127
1, 107760, Note_on_c, 1, 46, 127
1, 107789, Note_off_c, 1, 74, 0
1, 107789, Note_off_c, 1, 46, 0
1, 107790, Note_on_c, 1, 50, 127
1, 107819, Note_off_c, 1, 70, 0
1, 107819, Note_off_c, 1, 77, 0
1, 107819, Note_off_c, 1, 50, 0
1, 107820, Note_on_c, 1, 69, 127
1, 107820, Note_on_c, 1, 72, 127
1, 107820, Note_on_c, 1, 45, 127
1, 107850, Note_on_c, 1, 64, 127
1, 107879, Note_off_c, 1, 65, 0
1, 107879, Note_off_c, 1, 69, 0
1, 107879, Note_off_c, 1, 72, 0
1, 107879, Note_off_c, 1, 45, 0
1, 107879, Note_off_c, 1, 64, 0
1, 107880, Note_on_c, 1, 72, 127
1, 107880, Note_on_c, 1, 69, 127
1, 107880, Note_on_c, 1, 63, 127
1, 107880, Note_on_c, 1, 65, 127
1, 107880, Note_on_c, 1, 48, 127
1, 107909, Note_off_c, 1, 69, 0
1, 107909, Note_off_c, 1, 63, 0
1, 107909, Note_off_c, 1, 65, 0
1, 107910, Note_on_c, 1, 70, 127
1, 107910, Note_on_c, 1, 62, 127
1, 107910, Note_on_c, 1, 67, 127
1, 107939, Note_off_c, 1, 72, 0
1, 107939, Note_off_c, 1, 48, 0
1, 107939, Note_off_c, 1, 70, 0
1, 107939, Note_off_c, 1, 62, 0
1, 107939, Note_off_c, 1, 67, 0
1, 107940, Note_on_c, 1, 65, 127
1, 107940, Note_on_c, 1, 72, 127
1, 107940, Note_on_c, 1, 60, 127
1, 107940, Note_on_c, 1, 69, 127
1, 107940, Note_on_c, 1, 41, 127
1, 107969, Note_off_c, 1, 60, 0
1, 107969, Note_off_c, 1, 69, 0
1, 107970, Note_on_c, 1, 58, 127
1, 107970, Note_on_c, 1, 70, 127
1, 107999, Note_off_c, 1, 65, 0
1, 107999, Note_off_c, 1, 72, 0
1, 107999, Note_off_c, 1, 41, 0
1, 107999, Note_off_c, 1, 58, 0
1, 107999, Note_off_c, 1, 70, 0
1, 108000, Note_on_c, 1, 69, 127
1, 108000, Note_on_c, 1, 53, 127
1, 108000, Note_on_c, 1, 77, 127
1, 108000, Note_on_c, 1, 57, 127
1, 108000, Note_on_c, 1, 72, 127
1, 108000, Note_on_c, 1, 45, 127
1, 108029, Note_off_c, 1, 57, 0
1, 108029, Note_off_c, 1, 72, 0
1, 108030, Note_on_c, 1, 55, 127
1, 108030, Note_on_c, 1, 74, 127
1, 108059, Note_off_c, 1, 69, 0
1, 108059, Note_off_c, 1, 53, 0
1, 108059, Note_off_c, 1, 45, 0
1, 108059, Note_off_c, 1, 55, 0
1, 108059, Note_off_c, 1, 74, 0
1, 108060, Note_on_c, 1, 70, 127
1, 108060, Note_on_c, 1, 58, 127
1, 108060, Note_on_c, 1, 75, 127
1, 108060, Note_on_c, 1, 46, 127
1, 108089, Note_off_c, 1, 75, 0
1, 108119, Note_off_c, 1, 77, 0
1, 108119, Note_off_c, 1, 70, 0
1, 108119, Note_off_c, 1, 58, 0
1, 108119, Note_off_c, 1, 46, 0
1, 108120, Note_on_c, 1, 65, 127
1, 108120, Note_on_c, 1, 46, 127
1, 108120, Note_on_c, 1, 70, 127
1, 108120, Note_on_c, 1, 58, 127
1, 108120, Note_on_c, 1, 74, 127
1, 108120, Note_on_c, 1, 53, 127
1, 108149, Note_off_c, 1, 58, 0
1, 108149, Note_off_c, 1, 74, 0
1, 108179, Note_off_c, 1, 65, 0
1, 108179, Note_off_c, 1, 46, 0
1, 108179, Note_off_c, 1, 70, 0
1, 108179, Note_off_c, 1, 53, 0
1, 108180, Note_on_c, 1, 58, 127
1, 108180, Note_on_c, 1, 74, 127
1, 108180, Note_on_c, 1, 50, 127
1, 108180, Note_on_c, 1, 65, 127
1, 108209, Note_off_c, 1, 50, 0
1, 108209, Note_off_c, 1, 65, 0
1, 108210, Note_on_c, 1, 53, 127
1, 108210, Note_on_c, 1, 70, 127
1, 108239, Note_off_c, 1, 58, 0
1, 108239, Note_off_c, 1, 74, 0
1, 108239, Note_off_c, 1, 53, 0
1, 108239, Note_off_c, 1, 70, 0
1, 108240, Note_on_c, 1, 55, 127
1, 108240, Note_on_c, 1, 77, 127
1, 108240, Note_on_c, 1, 46, 127
1, 108240, Note_on_c, 1, 74, 127
1, 108240, Note_on_c, 1, 58, 127
1, 108269, Note_off_c, 1, 55, 0
1, 108269, Note_off_c, 1, 46, 0
1, 108269, Note_off_c, 1, 58, 0
1, 108270, Note_on_c, 1, 57, 127
1, 108270, Note_on_c, 1, 45, 127
1, 108270, Note_on_c, 1, 62, 127
1, 108299, Note_off_c, 1, 77, 0
1, 108299, Note_off_c, 1, 57, 0
1, 108299, Note_off_c, 1, 45, 0
1, 108299, Note_off_c, 1, 62, 0
1, 108300, Note_on_c, 1, 67, 127
1, 108300, Note_on_c, 1, 47, 127
1, 108330, Note_on_c, 1, 66, 127
1, 108359, Note_off_c, 1, 74, 0
1, 108359, Note_off_c, 1, 67, 0
1, 108359, Note_off_c, 1, 47, 0
1, 108359, Note_off_c, 1, 66, 0
1, 108360, Note_on_c, 1, 62, 127
1, 108360, Note_on_c, 1, 67, 127
1, 108360, Note_on_c, 1, 50, 127
1, 108360, Note_on_c, 1, 71, 127
1, 108360, Note_on_c, 1, 65, 127
1, 108389, Note_off_c, 1, 67, 0
1, 108389, Note_off_c, 1, 71, 0
1, 108389, Note_off_c, 1, 65, 0
1, 108390, Note_on_c, 1, 69, 127
1, 108390, Note_on_c, 1, 72, 127
1, 108390, Note_on_c, 1, 63, 127
1, 108419, Note_off_c, 1, 62, 0
1, 108419, Note_off_c, 1, 50, 0
1, 108419, Note_off_c, 1, 69, 0
1, 108419, Note_off_c, 1, 72, 0
1, 108419, Note_off_c, 1, 63, 0
1, 108420, Note_on_c, 1, 55, 127
1, 108420, Note_on_c, 1, 71, 127
1, 108420, Note_on_c, 1, 43, 127
1, 108420, Note_on_c, 1, 74, 127
1, 108420, Note_on_c, 1, 62, 127
1, 108449, Note_off_c, 1, 71, 0
1, 108449, Note_off_c, 1, 62, 0
1, 108450, Note_on_c, 1, 72, 127
1, 108450, Note_on_c, 1, 60, 127
1, 108479, Note_off_c, 1, 55, 0
1, 108479, Note_off_c, 1, 43, 0
1, 108479, Note_off_c, 1, 74, 0
1, 108479, Note_off_c, 1, 72, 0
1, 108479, Note_off_c, 1, 60, 0
1, 108480, Note_on_c, 1, 58, 127
1, 108480, Note_on_c, 1, 74, 127
1, 108480, Note_on_c, 1, 47, 127
1, 108480, Note_on_c, 1, 79, 127
1, 108480, Note_on_c, 1, 59, 127
1, 108509, Note_off_c, 1, 74, 0
1, 108509, Note_off_c, 1, 59, 0
1, 108510, Note_on_c, 1, 75, 127
1, 108510, Note_on_c, 1, 57, 127
1, 108539, Note_off_c, 1, 58, 0
1, 108539, Note_off_c, 1, 47, 0
1, 108539, Note_off_c, 1, 75, 0
1, 108539, Note_off_c, 1, 57, 0
1, 108540, Note_on_c, 1, 60, 127
1, 108540, Note_on_c, 1, 77, 127
1, 108540, Note_on_c, 1, 48, 127
1, 108540, Note_on_c, 1, 55, 127
1, 108569, Note_off_c, 1, 77, 0
1, 108569, Note_off_c, 1, 55, 0
1, 108599, Note_off_c, 1, 79, 0
1, 108599, Note_off_c, 1, 60, 0
1, 108599, Note_off_c, 1, 48, 0
1, 108600, Note_on_c, 1, 48, 127
1, 108600, Note_on_c, 1, 75, 127
1, 108600, Note_on_c, 1, 55, 127
1, 108600, Note_on_c, 1, 72, 127
1, 108600, Note_on_c, 1, 60, 127
1, 108629, Note_off_c, 1, 75, 0
1, 108629, Note_off_c, 1, 60, 0
1, 108659, Note_off_c, 1, 48, 0
1, 108659, Note_off_c, 1, 55, 0
1, 108659, Note_off_c, 1, 72, 0
1, 108660, Note_on_c, 1, 60, 127
1, 108660, Note_on_c, 1, 67, 127
1, 108660, Note_on_c, 1, 75, 127
1, 108660, Note_on_c, 1, 51, 127
1, 108689, Note_off_c, 1, 67, 0
1, 108689, Note_off_c, 1, 51, 0
1, 108690, Note_on_c, 1, 72, 127
1, 108690, Note_on_c, 1, 55, 127
1, 108719, Note_off_c, 1, 60, 0
1, 108719, Note_off_c, 1, 75, 0
1, 108719, Note_off_c, 1, 72, 0
1, 108719, Note_off_c, 1, 55, 0
1, 108720, Note_on_c, 1, 72, 127
1, 108720, Note_on_c, 1, 75, 127
1, 108720, Note_on_c, 1, 67, 127
1, 108720, Note_on_c, 1, 79, 127
1, 108720, Note_on_c, 1, 48, 127
1, 108749, Note_off_c, 1, 75, 0
1, 108749, Note_off_c, 1, 48, 0
1, 108750, Note_on_c, 1, 51, 127
1, 108779, Note_off_c, 1, 72, 0
1, 108779, Note_off_c, 1, 79, 0
1, 108779, Note_off_c, 1, 51, 0
1, 108780, Note_on_c, 1, 71, 127
1, 108780, Note_on_c, 1, 74, 127
1, 108780, Note_on_c, 1, 47, 127
1, 108810, Note_on_c, 1, 66, 127
1, 108839, Note_off_c, 1, 67, 0
1, 108839, Note_off_c, 1, 71, 0
1, 108839, Note_off_c, 1, 74, 0
1, 108839, Note_off_c, 1, 47, 0
1, 108839, Note_off_c, 1, 66, 0
1, 108840, Note_on_c, 1, 74, 127
1, 108840, Note_on_c, 1, 71, 127
1, 108840, Note_on_c, 1, 65, 127
1, 108840, Note_on_c, 1, 67, 127
1, 108840, Note_on_c, 1, 50, 127
1, 108869, Note_off_c, 1, 71, 0
1, 108869, Note_off_c, 1, 65, 0
1, 108869, Note_off_c, 1, 67, 0
1, 108870, Note_on_c, 1, 72, 127
1, 108870, Note_on_c, 1, 63, 127
1, 108870, Note_on_c, 1, 69, 127
1, 108899, Note_off_c, 1, 74, 0
1, 108899, Note_off_c, 1, 50, 0
1, 108899, Note_off_c, 1, 72, 0
1, 108899, Note_off_c, 1, 63, 0
1, 108899, Note_off_c, 1, 69, 0
1, 108900, Note_on_c, 1, 67, 127
1, 108900, Note_on_c, 1, 74, 127
1, 108900, Note_on_c, 1, 62, 127
1, 108900, Note_on_c, 1, 71, 127
1, 108900, Note_on_c, 1, 43, 127
1, 108929, Note_off_c, 1, 62, 0
1, 108929, Note_off_c, 1, 71, 0
1, 108930, Note_on_c, 1, 60, 127
1, 108930, Note_on_c, 1, 72, 127
1, 108959, Note_off_c, 1, 67, 0
1, 108959, Note_off_c, 1, 74, 0
1, 108959, Note_off_c, 1, 43, 0
1, 108959, Note_off_c, 1, 60, 0
1, 108959, Note_off_c, 1, 72, 0
1, 108960, Note_on_c, 1, 71, 127
1, 108960, Note_on_c, 1, 55, 127
1, 108960, Note_on_c, 1, 79, 127
1, 108960, Note_on_c, 1, 59, 127
1, 108960, Note_on_c, 1, 74, 127
1, 108960, Note_on_c, 1, 47, 127
1, 108989, Note_off_c, 1, 59, 0
1, 108989, Note_off_c, 1, 74, 0
1, 108990, Note_on_c, 1, 57, 127
1, 108990, Note_on_c, 1, 75, 127
1, 109019, Note_off_c, 1, 71, 0
1, 109019, Note_off_c, 1, 55, 0
1, 109019, Note_off_c, 1, 47, 0
1, 109019, Note_off_c, 1, 57, 0
1, 109019, Note_off_c, 1, 75, 0
1, 109020, Note_on_c, 1, 72, 127
1, 109020, Note_on_c, 1, 60, 127
1, 109020, Note_on_c, 1, 77, 127
1, 109020, Note_on_c, 1, 48, 127
1, 109049, Note_off_c, 1, 77, 0
1, 109079, Note_off_c, 1, 79, 0
1, 109079, Note_off_c, 1, 72, 0
1, 109079, Note_off_c, 1, 60, 0
1, 109079, Note_off_c, 1, 48, 0
1, 109080, Note_on_c, 1, 67, 127
1, 109080, Note_on_c, 1, 48, 127
1, 109080, Note_on_c, 1, 72, 127
1, 109080, Note_on_c, 1, 60, 127
1, 109080, Note_on_c, 1, 75, 127
1, 109080, Note_on_c, 1, 55, 127
1, 109109, Note_off_c, 1, 60, 0
1, 109109, Note_off_c, 1, 75, 0
1, 109139, Note_off_c, 1, 67, 0
1, 109139, Note_off_c, 1, 48, 0
1, 109139, Note_off_c, 1, 72, 0
1, 109139, Note_off_c, 1, 55, 0
1, 109140, Note_on_c, 1, 60, 127
1, 109140, Note_on_c, 1, 75, 127
1, 109140, Note_on_c, 1, 51, 127
1, 109140, Note_on_c, 1, 67, 127
1, 109169, Note_off_c, 1, 51, 0
1, 109169, Note_off_c, 1, 67, 0
1, 109170, Note_on_c, 1, 55, 127
1, 109170, Note_on_c, 1, 72, 127
1, 109199, Note_off_c, 1, 60, 0
1, 109199, Note_off_c, 1, 75, 0
1, 109199, Note_off_c, 1, 55, 0
1, 109199, Note_off_c, 1, 72, 0
1, 109200, Note_on_c, 1, 72, 127
1, 109200, Note_on_c, 1, 67, 127
1, 109200, Note_on_c, 1, 51, 127
1, 109200, Note_on_c, 1, 79, 127
1, 109200, Note_on_c, 1, 48, 127
1, 109200, Note_on_c, 1, 75, 127
1, 109229, Note_off_c, 1, 48, 0
1, 109229, Note_off_c, 1, 75, 0
1, 109259, Note_off_c, 1, 72, 0
1, 109259, Note_off_c, 1, 67, 0
1, 109259, Note_off_c, 1, 51, 0
1, 109259, Note_off_c, 1, 79, 0
1, 109260, Note_on_c, 1, 77, 127
1, 109260, Note_on_c, 1, 71, 127
1, 109260, Note_on_c, 1, 68, 127
1, 109260, Note_on_c, 1, 50, 127
1, 109289, Note_off_c, 1, 68, 0
1, 109290, Note_on_c, 1, 70, 127
1, 109319, Note_off_c, 1, 71, 0
1, 109319, Note_off_c, 1, 50, 0
1, 109319, Note_off_c, 1, 70, 0
1, 109320, Note_on_c, 1, 72, 127
1, 109320, Note_on_c, 1, 56, 127
1, 109379, Note_off_c, 1, 77, 0
1, 109379, Note_off_c, 1, 56, 0
1, 109380, Note_on_c, 1, 48, 127
1, 109439, Note_off_c, 1, 72, 0
1, 109439, Note_off_c, 1, 48, 0
1, 109440, Note_on_c, 1, 74, 127
1, 109499, Note_off_c, 1, 74, 0
1, 109500, Note_on_c, 1, 77, 127
1, 109500, Note_on_c, 1, 74, 127
1, 109500, Note_on_c, 1, 67, 127
1, 109500, Note_on_c, 1, 47, 127
1, 109529, Note_off_c, 1, 67, 0
1, 109529, Note_off_c, 1, 47, 0
1, 109530, Note_on_c, 1, 65, 127
1, 109530, Note_on_c, 1, 45, 127
1, 109559, Note_off_c, 1, 65, 0
1, 109559, Note_off_c, 1, 45, 0
1, 109619, Note_off_c, 1, 77, 0
1, 109619, Note_off_c, 1, 74, 0
1, 109620, Note_on_c, 1, 67, 127
1, 109620, Note_on_c, 1, 43, 127
1, 109649, Note_off_c, 1, 43, 0
1, 109650, Note_on_c, 1, 75, 127
1, 109650, Note_on_c, 1, 72, 127
1, 109650, Note_on_c, 1, 45, 127
1, 109679, Note_off_c, 1, 75, 0
1, 109679, Note_off_c, 1, 72, 0
1, 109679, Note_off_c, 1, 45, 0
1, 109680, Note_on_c, 1, 74, 127
1, 109680, Note_on_c, 1, 47, 127
1, 109709, Note_off_c, 1, 74, 0
1, 109709, Note_off_c, 1, 47, 0
1, 109710, Note_on_c, 1, 77, 127
1, 109710, Note_on_c, 1, 71, 127
1, 109739, Note_off_c, 1, 67, 0
1, 109739, Note_off_c, 1, 77, 0
1, 109739, Note_off_c, 1, 71, 0
1, 109740, Note_on_c, 1, 75, 127
1, 109740, Note_on_c, 1, 72, 127
1, 109740, Note_on_c, 1, 48, 127
1, 109769, Note_off_c, 1, 75, 0
1, 109770, Note_on_c, 1, 74, 127
1, 109770, Note_on_c, 1, 68, 127
1, 109799, Note_off_c, 1, 72, 0
1, 109799, Note_off_c, 1, 48, 0
1, 109799, Note_off_c, 1, 74, 0
1, 109799, Note_off_c, 1, 68, 0
1, 109800, Note_on_c, 1, 75, 127
1, 109800, Note_on_c, 1, 67, 127
1, 109800, Note_on_c, 1, 55, 127
1, 109829, Note_off_c, 1, 67, 0
1, 109830, Note_on_c, 1, 68, 127
1, 109859, Note_off_c, 1, 55, 0
1, 109859, Note_off_c, 1, 68, 0
1, 109860, Note_on_c, 1, 72, 127
1, 109860, Note_on_c, 1, 46, 127
1, 109889, Note_off_c, 1, 75, 0
1, 109890, Note_on_c, 1, 74, 127
1, 109919, Note_off_c, 1, 72, 0
1, 109919, Note_off_c, 1, 46, 0
1, 109919, Note_off_c, 1, 74, 0
1, 109920, Note_on_c, 1, 75, 127
1, 109920, Note_on_c, 1, 67, 127
1, 109920, Note_on_c, 1, 55, 127
1, 109949, Note_off_c, 1, 67, 0
1, 109950, Note_on_c, 1, 68, 127
1, 109979, Note_off_c, 1, 55, 0
1, 109979, Note_off_c, 1, 68, 0
1, 109980, Note_on_c, 1, 72, 127
1, 109980, Note_on_c, 1, 45, 127
1, 110009, Note_off_c, 1, 75, 0
1, 110009, Note_off_c, 1, 45, 0
1, 110010, Note_on_c, 1, 66, 127
1, 110010, Note_on_c, 1, 43, 127
1, 110039, Note_off_c, 1, 66, 0
1, 110039, Note_off_c, 1, 43, 0
1, 110100, Note_on_c, 1, 69, 127
1, 110100, Note_on_c, 1, 42, 127
1, 110129, Note_off_c, 1, 42, 0
1, 110159, Note_off_c, 1, 72, 0
1, 110159, Note_off_c, 1, 69, 0
1, 110160, Note_on_c, 1, 74, 127
1, 110160, Note_on_c, 1, 62, 127
1, 110160, Note_on_c, 1, 66, 127
1, 110160, Note_on_c, 1, 45, 127
1, 110189, Note_off_c, 1, 74, 0
1, 110189, Note_off_c, 1, 45, 0
1, 110190, Note_on_c, 1, 72, 127
1, 110190, Note_on_c, 1, 42, 127
1, 110219, Note_off_c, 1, 62, 0
1, 110219, Note_off_c, 1, 66, 0
1, 110219, Note_off_c, 1, 72, 0
1, 110219, Note_off_c, 1, 42, 0
1, 110220, Note_on_c, 1, 71, 127
1, 110220, Note_on_c, 1, 67, 127
1, 110220, Note_on_c, 1, 62, 127
1, 110220, Note_on_c, 1, 43, 127
1, 110260, Note_on_c, 1, 63, 127
1, 110279, Note_off_c, 1, 63, 0
1, 110280, Note_on_c, 1, 65, 127
1, 110280, Note_on_c, 1, 74, 127
1, 110280, Note_on_c, 1, 55, 127
1, 110299, Note_off_c, 1, 65, 0
1, 110339, Note_off_c, 1, 74, 0
1, 110339, Note_off_c, 1, 55, 0
1, 110340, Note_on_c, 1, 59, 127
1, 110399, Note_off_c, 1, 59, 0
1, 110699, Note_off_c, 1, 71, 0
1, 110699, Note_off_c, 1, 62, 0
1, 110700, Note_on_c, 1, 72, 127
1, 110760, Note_on_c, 1, 51, 127
1, 110819, Note_off_c, 1, 51, 0
1, 110820, Note_on_c, 1, 60, 127
1, 110879, Note_off_c, 1, 60, 0
1, 111000, Note_on_c, 1, 48, 127
1, 111059, Note_off_c, 1, 48, 0
1, 111120, Note_on_c, 1, 75, 127
1, 111179, Note_off_c, 1, 72, 0
1, 111179, Note_off_c, 1, 75, 0
1, 111180, Note_off_c, 1, 67, 0
1, 111240, Note_on_c, 1, 68, 127
1, 111240, Note_on_c, 1, 77, 127
1, 111259, Note_off_c, 1, 68, 0
1, 111329, Note_off_c, 1, 77, 0
1, 112200, Note_on_c, 1, 50, 127
1, 112259, Note_off_c, 1, 50, 0
1, 112620, Note_off_c, 1, 43, 0
1, 112620, Note_on_c, 1, 36, 127
1, 112739, Note_off_c, 1, 36, 0
1, 112740, Note_on_c, 1, 65, 127
1, 112740, Note_on_c, 1, 62, 127
1, 112769, Note_off_c, 1, 62, 0
1, 112770, Note_on_c, 1, 63, 127
1, 112799, Note_off_c, 1, 65, 0
1, 112799, Note_off_c, 1, 63, 0
1, 112800, Note_on_c, 1, 72, 127
1, 112800, Note_on_c, 1, 62, 127
1, 112829, Note_off_c, 1, 62, 0
1, 112830, Note_on_c, 1, 63, 127
1, 112859, Note_off_c, 1, 72, 0
1, 112859, Note_off_c, 1, 63, 0
1, 112860, Note_on_c, 1, 63, 127
1, 112860, Note_on_c, 1, 60, 127
1, 112889, Note_off_c, 1, 63, 0
1, 112890, Note_on_c, 1, 62, 127
1, 112919, Note_off_c, 1, 60, 0
1, 112919, Note_off_c, 1, 62, 0
1, 112920, Note_on_c, 1, 63, 127
1, 112920, Note_on_c, 1, 60, 127
1, 112950, Note_on_c, 1, 62, 127
1, 112979, Note_off_c, 1, 63, 0
1, 112979, Note_off_c, 1, 60, 0
1, 112979, Note_off_c, 1, 62, 0
1, 112980, Note_on_c, 1, 60, 127
1, 112980, Note_on_c, 1, 67, 127
1, 112980, Note_on_c, 1, 63, 127
1, 113039, Note_off_c, 1, 60, 0
1, 113039, Note_off_c, 1, 67, 0
1, 113039, Note_off_c, 1, 63, 0
1, 113040, Note_on_c, 1, 75, 127
1, 113040, Note_on_c, 1, 72, 127
1, 113040, Note_on_c, 1, 67, 127
1, 113040, Note_on_c, 1, 60, 127
1, 113099, Note_off_c, 1, 75, 0
1, 113099, Note_off_c, 1, 72, 0
1, 113099, Note_off_c, 1, 67, 0
1, 113099, Note_off_c, 1, 60, 0
1, 113100, Note_on_c, 1, 74, 127
1, 113100, Note_on_c, 1, 55, 127
1, 113100, Note_on_c, 1, 58, 127
1, 113129, Note_off_c, 1, 58, 0
1, 113130, Note_on_c, 1, 60, 127
1, 113159, Note_off_c, 1, 74, 0
1, 113159, Note_off_c, 1, 55, 0
1, 113159, Note_off_c, 1, 60, 0
1, 113160, Note_on_c, 1, 79, 127
1, 113160, Note_on_c, 1, 62, 127
1, 113160, Note_on_c, 1, 55, 127
1, 113160, Note_on_c, 1, 58, 127
1, 113189, Note_off_c, 1, 58, 0
1, 113190, Note_on_c, 1, 60, 127
1, 113219, Note_off_c, 1, 62, 0
1, 113219, Note_off_c, 1, 55, 0
1, 113219, Note_off_c, 1, 60, 0
1, 113220, Note_on_c, 1, 63, 127
1, 113220, Note_on_c, 1, 56, 127
1, 113249, Note_off_c, 1, 56, 0
1, 113279, Note_off_c, 1, 79, 0
1, 113279, Note_off_c, 1, 63, 0
1, 113280, Note_on_c, 1, 72, 127
1, 113280, Note_on_c, 1, 65, 127
1, 113280, Note_on_c, 1, 60, 127
1, 113280, Note_on_c, 1, 56, 127
1, 113309, Note_off_c, 1, 56, 0
1, 113310, Note_on_c, 1, 58, 127
1, 113339, Note_off_c, 1, 72, 0
1, 113339, Note_off_c, 1, 65, 0
1, 113339, Note_off_c, 1, 60, 0
1, 113339, Note_off_c, 1, 58, 0
1, 113340, Note_on_c, 1, 71, 127
1, 113340, Note_on_c, 1, 67, 127
1, 113340, Note_on_c, 1, 62, 127
1, 113340, Note_on_c, 1, 55, 127
1, 113369, Note_off_c, 1, 71, 0
1, 113369, Note_off_c, 1, 67, 0
1, 113369, Note_off_c, 1, 62, 0
1, 113370, Note_on_c, 1, 69, 127
1, 113370, Note_on_c, 1, 60, 127
1, 113399, Note_off_c, 1, 55, 0
1, 113399, Note_off_c, 1, 69, 0
1, 113399, Note_off_c, 1, 60, 0
1, 113400, Note_on_c, 1, 71, 127
1, 113400, Note_on_c, 1, 67, 127
1, 113400, Note_on_c, 1, 62, 127
1, 113400, Note_on_c, 1, 50, 127
1, 113429, Note_off_c, 1, 71, 0
1, 113429, Note_off_c, 1, 67, 0
1, 113429, Note_off_c, 1, 62, 0
1, 113430, Note_on_c, 1, 69, 127
1, 113430, Note_on_c, 1, 60, 127
1, 113459, Note_off_c, 1, 50, 0
1, 113459, Note_off_c, 1, 69, 0
1, 113459, Note_off_c, 1, 60, 0
1, 113460, Note_on_c, 1, 67, 127
1, 113460, Note_on_c, 1, 71, 127
1, 113460, Note_on_c, 1, 62, 127
1, 113460, Note_on_c, 1, 43, 127
1, 113490, Note_on_c, 1, 65, 127
1, 113519, Note_off_c, 1, 67, 0
1, 113519, Note_off_c, 1, 71, 0
1, 113519, Note_off_c, 1, 62, 0
1, 113519, Note_off_c, 1, 43, 0
1, 113519, Note_off_c, 1, 65, 0
1, 113520, Note_on_c, 1, 63, 127
1, 113520, Note_on_c, 1, 67, 127
1, 113549, Note_off_c, 1, 63, 0
1, 113550, Note_on_c, 1, 62, 127
1, 113579, Note_off_c, 1, 67, 0
1, 113579, Note_off_c, 1, 62, 0
1, 113580, Note_on_c, 1, 63, 127
1, 113580, Note_on_c, 1, 72, 127
1, 113609, Note_off_c, 1, 63, 0
1, 113610, Note_on_c, 1, 67, 127
1, 113639, Note_off_c, 1, 72, 0
1, 113639, Note_off_c, 1, 67, 0
1, 113640, Note_on_c, 1, 63, 127
1, 113640, Note_on_c, 1, 67, 127
1, 113669, Note_off_c, 1, 63, 0
1, 113670, Note_on_c, 1, 60, 127
1, 113699, Note_off_c, 1, 67, 0
1, 113699, Note_off_c, 1, 60, 0
1, 113700, Note_on_c, 1, 59, 127
1, 113700, Note_on_c, 1, 74, 127
1, 113729, Note_off_c, 1, 59, 0
1, 113730, Note_on_c, 1, 62, 127
1, 113759, Note_off_c, 1, 74, 0
1, 113759, Note_off_c, 1, 62, 0
1, 113760, Note_on_c, 1, 59, 127
1, 113760, Note_on_c, 1, 67, 127
1, 113789, Note_off_c, 1, 59, 0
1, 113790, Note_on_c, 1, 55, 127
1, 113819, Note_off_c, 1, 67, 0
1, 113819, Note_off_c, 1, 55, 0
1, 113820, Note_on_c, 1, 60, 127
1, 113820, Note_on_c, 1, 75, 127
1, 113849, Note_off_c, 1, 60, 0
1, 113850, Note_on_c, 1, 63, 127
1, 113879, Note_off_c, 1, 75, 0
1, 113879, Note_off_c, 1, 63, 0
1, 113880, Note_on_c, 1, 60, 127
1, 113880, Note_on_c, 1, 67, 127
1, 113909, Note_off_c, 1, 60, 0
1, 113910, Note_on_c, 1, 55, 127
1, 113939, Note_off_c, 1, 67, 0
1, 113939, Note_off_c, 1, 55, 0
1, 113940, Note_on_c, 1, 62, 127
1, 113940, Note_on_c, 1, 77, 127
1, 113969, Note_off_c, 1, 62, 0
1, 113970, Note_on_c, 1, 65, 127
1, 113999, Note_off_c, 1, 77, 0
1, 113999, Note_off_c, 1, 65, 0
1, 114000, Note_on_c, 1, 59, 127
1, 114000, Note_on_c, 1, 43, 127
1, 114000, Note_on_c, 1, 62, 127
1, 114000, Note_on_c, 1, 67, 127
1, 114029, Note_off_c, 1, 62, 0
1, 114030, Note_on_c, 1, 55, 127
1, 114059, Note_off_c, 1, 59, 0
1, 114059, Note_off_c, 1, 43, 0
1, 114059, Note_off_c, 1, 67, 0
1, 114059, Note_off_c, 1, 55, 0
1, 114060, Note_on_c, 1, 60, 127
1, 114060, Note_on_c, 1, 48, 127
1, 114060, Note_on_c, 1, 67, 127
1, 114060, Note_on_c, 1, 75, 127
1, 114089, Note_off_c, 1, 67, 0
1, 114089, Note_off_c, 1, 75, 0
1, 114090, Note_on_c, 1, 74, 127
1, 114119, Note_off_c, 1, 60, 0
1, 114119, Note_off_c, 1, 48, 0
1, 114119, Note_off_c, 1, 74, 0
1, 114120, Note_on_c, 1, 55, 127
1, 114120, Note_on_c, 1, 39, 127
1, 114120, Note_on_c, 1, 75, 127
1, 114120, Note_on_c, 1, 72, 127
1, 114149, Note_off_c, 1, 75, 0
1, 114149, Note_off_c, 1, 72, 0
1, 114179, Note_off_c, 1, 55, 0
1, 114179, Note_off_c, 1, 39, 0
1, 114180, Note_on_c, 1, 62, 127
1, 114180, Note_on_c, 1, 41, 127
1, 114180, Note_on_c, 1, 74, 127
1, 114209, Note_off_c, 1, 74, 0
1, 114210, Note_on_c, 1, 75, 127
1, 114210, Note_on_c, 1, 72, 127
1, 114239, Note_off_c, 1, 62, 0
1, 114239, Note_off_c, 1, 41, 0
1, 114239, Note_off_c, 1, 75, 0
1, 114239, Note_off_c, 1, 72, 0
1, 114240, Note_on_c, 1, 55, 127
1, 114240, Note_on_c, 1, 43, 127
1, 114240, Note_on_c, 1, 77, 127
1, 114240, Note_on_c, 1, 71, 127
1, 114269, Note_off_c, 1, 77, 0
1, 114269, Note_off_c, 1, 71, 0
1, 114270, Note_on_c, 1, 74, 127
1, 114299, Note_off_c, 1, 55, 0
1, 114299, Note_off_c, 1, 43, 0
1, 114299, Note_off_c, 1, 74, 0
1, 114300, Note_on_c, 1, 63, 127
1, 114300, Note_on_c, 1, 36, 127
1, 114300, Note_on_c, 1, 72, 127
1, 114329, Note_off_c, 1, 63, 0
1, 114330, Note_on_c, 1, 62, 127
1, 114330, Note_on_c, 1, 71, 127
1, 114359, Note_off_c, 1, 36, 0
1, 114359, Note_off_c, 1, 62, 0
1, 114359, Note_off_c, 1, 71, 0
1, 114360, Note_on_c, 1, 43, 127
1, 114419, Note_off_c, 1, 72, 0
1, 114419, Note_off_c, 1, 43, 0
1, 114420, Note_on_c, 1, 60, 127
1, 114420, Note_on_c, 1, 48, 127
1, 114420, Note_on_c, 1, 72, 127
1, 114449, Note_off_c, 1, 72, 0
1, 114450, Note_on_c, 1, 74, 127
1, 114479, Note_off_c, 1, 60, 0
1, 114479, Note_off_c, 1, 48, 0
1, 114479, Note_off_c, 1, 74, 0
1, 114480, Note_on_c, 1, 70, 127
1, 114480, Note_on_c, 1, 75, 127
1, 114509, Note_off_c, 1, 70, 0
1, 114509, Note_off_c, 1, 75, 0
1, 114510, Note_on_c, 1, 72, 127
1, 114539, Note_off_c, 1, 72, 0
1, 114540, Note_on_c, 1, 68, 127
1, 114540, Note_on_c, 1, 77, 127
1, 114569, Note_off_c, 1, 68, 0
1, 114570, Note_on_c, 1, 72, 127
1, 114599, Note_off_c, 1, 77, 0
1, 114599, Note_off_c, 1, 72, 0
1, 114600, Note_on_c, 1, 68, 127
1, 114600, Note_on_c, 1, 72, 127
1, 114629, Note_off_c, 1, 68, 0
1, 114630, Note_on_c, 1, 65, 127
1, 114659, Note_off_c, 1, 72, 0
1, 114659, Note_off_c, 1, 65, 0
1, 114660, Note_on_c, 1, 64, 127
1, 114660, Note_on_c, 1, 79, 127
1, 114689, Note_off_c, 1, 64, 0
1, 114690, Note_on_c, 1, 67, 127
1, 114719, Note_off_c, 1, 79, 0
1, 114719, Note_off_c, 1, 67, 0
1, 114720, Note_on_c, 1, 64, 127
1, 114720, Note_on_c, 1, 72, 127
1, 114749, Note_off_c, 1, 64, 0
1, 114750, Note_on_c, 1, 60, 127
1, 114779, Note_off_c, 1, 72, 0
1, 114779, Note_off_c, 1, 60, 0
1, 114780, Note_on_c, 1, 65, 127
1, 114780, Note_on_c, 1, 80, 127
1, 114809, Note_off_c, 1, 65, 0
1, 114810, Note_on_c, 1, 68, 127
1, 114839, Note_off_c, 1, 80, 0
1, 114839, Note_off_c, 1, 68, 0
1, 114840, Note_on_c, 1, 65, 127
1, 114840, Note_on_c, 1, 72, 127
1, 114869, Note_off_c, 1, 65, 0
1, 114870, Note_on_c, 1, 60, 127
1, 114899, Note_off_c, 1, 72, 0
1, 114899, Note_off_c, 1, 60, 0
1, 114900, Note_on_c, 1, 67, 127
1, 114900, Note_on_c, 1, 82, 127
1, 114929, Note_off_c, 1, 67, 0
1, 114930, Note_on_c, 1, 70, 127
1, 114959, Note_off_c, 1, 82, 0
1, 114959, Note_off_c, 1, 70, 0
1, 114960, Note_on_c, 1, 64, 127
1, 114960, Note_on_c, 1, 48, 127
1, 114960, Note_on_c, 1, 67, 127
1, 114960, Note_on_c, 1, 72, 127
1, 114989, Note_off_c, 1, 67, 0
1, 114990, Note_on_c, 1, 60, 127
1, 115019, Note_off_c, 1, 64, 0
1, 115019, Note_off_c, 1, 48, 0
1, 115019, Note_off_c, 1, 72, 0
1, 115019, Note_off_c, 1, 60, 0
1, 115020, Note_on_c, 1, 65, 127
1, 115020, Note_on_c, 1, 53, 127
1, 115020, Note_on_c, 1, 72, 127
1, 115020, Note_on_c, 1, 80, 127
1, 115049, Note_off_c, 1, 72, 0
1, 115049, Note_off_c, 1, 80, 0
1, 115050, Note_on_c, 1, 79, 127
1, 115079, Note_off_c, 1, 65, 0
1, 115079, Note_off_c, 1, 53, 0
1, 115079, Note_off_c, 1, 79, 0
1, 115080, Note_on_c, 1, 60, 127
1, 115080, Note_on_c, 1, 44, 127
1, 115080, Note_on_c, 1, 80, 127
1, 115080, Note_on_c, 1, 77, 127
1, 115109, Note_off_c, 1, 80, 0
1, 115109, Note_off_c, 1, 77, 0
1, 115139, Note_off_c, 1, 60, 0
1, 115139, Note_off_c, 1, 44, 0
1, 115140, Note_on_c, 1, 67, 127
1, 115140, Note_on_c, 1, 46, 127
1, 115140, Note_on_c, 1, 79, 127
1, 115169, Note_off_c, 1, 79, 0
1, 115170, Note_on_c, 1, 80, 127
1, 115170, Note_on_c, 1, 77, 127
1, 115199, Note_off_c, 1, 67, 0
1, 115199, Note_off_c, 1, 46, 0
1, 115199, Note_off_c, 1, 80, 0
1, 115199, Note_off_c, 1, 77, 0
1, 115200, Note_on_c, 1, 60, 127
1, 115200, Note_on_c, 1, 48, 127
1, 115200, Note_on_c, 1, 82, 127
1, 115200, Note_on_c, 1, 76, 127
1, 115229, Note_off_c, 1, 82, 0
1, 115229, Note_off_c, 1, 76, 0
1, 115230, Note_on_c, 1, 79, 127
1, 115259, Note_off_c, 1, 60, 0
1, 115259, Note_off_c, 1, 48, 0
1, 115259, Note_off_c, 1, 79, 0
1, 115260, Note_on_c, 1, 68, 127
1, 115260, Note_on_c, 1, 41, 127
1, 115260, Note_on_c, 1, 77, 127
1, 115289, Note_off_c, 1, 68, 0
1, 115290, Note_on_c, 1, 67, 127
1, 115290, Note_on_c, 1, 79, 127
1, 115319, Note_off_c, 1, 41, 0
1, 115319, Note_off_c, 1, 77, 0
1, 115319, Note_off_c, 1, 67, 0
1, 115319, Note_off_c, 1, 79, 0
1, 115320, Note_on_c, 1, 68, 127
1, 115320, Note_on_c, 1, 48, 127
1, 115320, Note_on_c, 1, 80, 127
1, 115320, Note_on_c, 1, 65, 127
1, 115349, Note_off_c, 1, 68, 0
1, 115349, Note_off_c, 1, 80, 0
1, 115350, Note_on_c, 1, 67, 127
1, 115350, Note_on_c, 1, 82, 127
1, 115379, Note_off_c, 1, 48, 0
1, 115379, Note_off_c, 1, 65, 0
1, 115379, Note_off_c, 1, 67, 0
1, 115379, Note_off_c, 1, 82, 0
1, 115380, Note_on_c, 1, 65, 127
1, 115380, Note_on_c, 1, 53, 127
1, 115380, Note_on_c, 1, 80, 127
1, 115380, Note_on_c, 1, 72, 127
1, 115409, Note_off_c, 1, 80, 0
1, 115410, Note_on_c, 1, 79, 127
1, 115410, Note_on_c, 1, 55, 127
1, 115439, Note_off_c, 1, 65, 0
1, 115439, Note_off_c, 1, 53, 0
1, 115439, Note_off_c, 1, 79, 0
1, 115439, Note_off_c, 1, 55, 0
1, 115440, Note_on_c, 1, 56, 127
1, 115440, Note_on_c, 1, 77, 127
1, 115440, Note_on_c, 1, 41, 127
1, 115469, Note_off_c, 1, 77, 0
1, 115470, Note_on_c, 1, 75, 127
1, 115499, Note_off_c, 1, 56, 0
1, 115499, Note_off_c, 1, 41, 0
1, 115499, Note_off_c, 1, 75, 0
1, 115500, Note_on_c, 1, 73, 127
1, 115500, Note_on_c, 1, 58, 127
1, 115500, Note_on_c, 1, 46, 127
1, 115529, Note_off_c, 1, 46, 0
1, 115530, Note_on_c, 1, 49, 127
1, 115559, Note_off_c, 1, 72, 0
1, 115559, Note_off_c, 1, 58, 0
1, 115559, Note_off_c, 1, 49, 0
1, 115560, Note_on_c, 1, 82, 127
1, 115589, Note_off_c, 1, 82, 0
1, 115590, Note_on_c, 1, 84, 127
1, 115619, Note_off_c, 1, 84, 0
1, 115620, Note_on_c, 1, 85, 127
1, 115620, Note_on_c, 1, 70, 127
1, 115649, Note_off_c, 1, 85, 0
1, 115650, Note_on_c, 1, 63, 127
1, 115679, Note_off_c, 1, 70, 0
1, 115679, Note_off_c, 1, 63, 0
1, 115680, Note_on_c, 1, 51, 127
1, 115680, Note_on_c, 1, 61, 127
1, 115709, Note_off_c, 1, 61, 0
1, 115739, Note_off_c, 1, 73, 0
1, 115739, Note_off_c, 1, 51, 0
1, 115740, Note_on_c, 1, 72, 127
1, 115740, Note_on_c, 1, 75, 127
1, 115740, Note_on_c, 1, 68, 127
1, 115740, Note_on_c, 1, 70, 127
1, 115740, Note_on_c, 1, 56, 127
1, 115754, Note_off_c, 1, 70, 0
1, 115769, Note_off_c, 1, 75, 0
1, 115769, Note_off_c, 1, 68, 0
1, 115770, Note_on_c, 1, 79, 127
1, 115770, Note_on_c, 1, 63, 127
1, 115799, Note_off_c, 1, 56, 0
1, 115799, Note_off_c, 1, 79, 0
1, 115799, Note_off_c, 1, 63, 0
1, 115800, Note_on_c, 1, 80, 127
1, 115800, Note_on_c, 1, 60, 127
1, 115829, Note_off_c, 1, 80, 0
1, 115830, Note_on_c, 1, 55, 127
1, 115830, Note_on_c, 1, 82, 127
1, 115859, Note_off_c, 1, 60, 0
1, 115859, Note_off_c, 1, 55, 0
1, 115859, Note_off_c, 1, 82, 0
1, 115860, Note_on_c, 1, 53, 127
1, 115860, Note_on_c, 1, 84, 127
1, 115889, Note_off_c, 1, 84, 0
1, 115890, Note_on_c, 1, 65, 127
1, 115919, Note_off_c, 1, 53, 0
1, 115919, Note_off_c, 1, 65, 0
1, 115920, Note_on_c, 1, 49, 127
1, 115920, Note_on_c, 1, 61, 127
1, 115920, Note_on_c, 1, 64, 127
1, 115949, Note_off_c, 1, 49, 0
1, 115949, Note_off_c, 1, 64, 0
1, 115950, Note_on_c, 1, 77, 127
1, 115979, Note_off_c, 1, 72, 0
1, 115979, Note_off_c, 1, 61, 0
1, 115979, Note_off_c, 1, 77, 0
1, 115980, Note_on_c, 1, 76, 127
1, 116009, Note_off_c, 1, 76, 0
1, 116040, Note_on_c, 1, 58, 127
1, 116069, Note_off_c, 1, 58, 0
1, 116100, Note_on_c, 1, 52, 127
1, 116100, Note_on_c, 1, 67, 127
1, 116159, Note_off_c, 1, 52, 0
1, 116159, Note_off_c, 1, 67, 0
1, 116160, Note_on_c, 1, 48, 127
1, 116190, Note_on_c, 1, 74, 127
1, 116219, Note_off_c, 1, 48, 0
1, 116219, Note_off_c, 1, 74, 0
1, 116220, Note_on_c, 1, 68, 127
1, 116220, Note_on_c, 1, 72, 127
1, 116220, Note_on_c, 1, 65, 127
1, 116220, Note_on_c, 1, 67, 127
1, 116220, Note_on_c, 1, 53, 127
1, 116234, Note_off_c, 1, 67, 0
1, 116249, Note_off_c, 1, 72, 0
1, 116249, Note_off_c, 1, 65, 0
1, 116250, Note_on_c, 1, 76, 127
1, 116250, Note_on_c, 1, 60, 127
1, 116279, Note_off_c, 1, 53, 0
1, 116279, Note_off_c, 1, 76, 0
1, 116279, Note_off_c, 1, 60, 0
1, 116280, Note_on_c, 1, 77, 127
1, 116280, Note_on_c, 1, 56, 127
1, 116309, Note_off_c, 1, 77, 0
1, 116310, Note_on_c, 1, 51, 127
1, 116310, Note_on_c, 1, 79, 127
1, 116339, Note_off_c, 1, 56, 0
1, 116339, Note_off_c, 1, 51, 0
1, 116339, Note_off_c, 1, 79, 0
1, 116340, Note_on_c, 1, 50, 127
1, 116340, Note_on_c, 1, 80, 127
1, 116369, Note_off_c, 1, 80, 0
1, 116399, Note_off_c, 1, 50, 0
1, 116400, Note_on_c, 1, 48, 127
1, 116400, Note_on_c, 1, 74, 127
1, 116429, Note_off_c, 1, 48, 0
1, 116429, Note_off_c, 1, 74, 0
1, 116430, Note_on_c, 1, 75, 127
1, 116459, Note_off_c, 1, 68, 0
1, 116459, Note_off_c, 1, 75, 0
1, 116460, Note_on_c, 1, 47, 127
1, 116460, Note_on_c, 1, 77, 127
1, 116460, Note_on_c, 1, 59, 127
1, 116460, Note_on_c, 1, 74, 127
1, 116489, Note_off_c, 1, 77, 0
1, 116490, Note_on_c, 1, 79, 127
1, 116519, Note_off_c, 1, 47, 0
1, 116519, Note_off_c, 1, 59, 0
1, 116519, Note_off_c, 1, 74, 0
1, 116519, Note_off_c, 1, 79, 0
1, 116520, Note_on_c, 1, 67, 127
1, 116520, Note_on_c, 1, 59, 127
1, 116520, Note_on_c, 1, 77, 127
1, 116520, Note_on_c, 1, 55, 127
1, 116520, Note_on_c, 1, 79, 127
1, 116520, Note_on_c, 1, 62, 127
1, 116549, Note_off_c, 1, 77, 0
1, 116549, Note_off_c, 1, 62, 0
1, 116579, Note_off_c, 1, 67, 0
1, 116579, Note_off_c, 1, 59, 0
1, 116579, Note_off_c, 1, 55, 0
1, 116579, Note_off_c, 1, 79, 0
1, 116580, Note_on_c, 1, 67, 127
1, 116580, Note_on_c, 1, 60, 127
1, 116580, Note_on_c, 1, 75, 127
1, 116580, Note_on_c, 1, 72, 127
1, 116609, Note_off_c, 1, 75, 0
1, 116610, Note_on_c, 1, 77, 127
1, 116610, Note_on_c, 1, 59, 127
1, 116639, Note_off_c, 1, 67, 0
1, 116639, Note_off_c, 1, 60, 0
1, 116639, Note_off_c, 1, 72, 0
1, 116639, Note_off_c, 1, 77, 0
1, 116639, Note_off_c, 1, 59, 0
1, 116640, Note_on_c, 1, 72, 127
1, 116640, Note_on_c, 1, 53, 127
1, 116640, Note_on_c, 1, 75, 127
1, 116640, Note_on_c, 1, 60, 127
1, 116640, Note_on_c, 1, 80, 127
1, 116669, Note_off_c, 1, 75, 0
1, 116669, Note_off_c, 1, 60, 0
1, 116670, Note_on_c, 1, 77, 127
1, 116699, Note_off_c, 1, 72, 0
1, 116699, Note_off_c, 1, 53, 0
1, 116699, Note_off_c, 1, 80, 0
1, 116699, Note_off_c, 1, 77, 0
1, 116700, Note_on_c, 1, 67, 127
1, 116700, Note_on_c, 1, 55, 127
1, 116700, Note_on_c, 1, 74, 127
1, 116700, Note_on_c, 1, 71, 127
1, 116729, Note_off_c, 1, 74, 0
1, 116729, Note_off_c, 1, 71, 0
1, 116730, Note_on_c, 1, 75, 127
1, 116730, Note_on_c, 1, 69, 127
1, 116759, Note_off_c, 1, 75, 0
1, 116759, Note_off_c, 1, 69, 0
1, 116819, Note_off_c, 1, 67, 0
1, 116820, Note_on_c, 1, 77, 127
1, 116820, Note_on_c, 1, 59, 127
1, 116849, Note_off_c, 1, 77, 0
1, 116850, Note_on_c, 1, 79, 127
1, 116879, Note_off_c, 1, 59, 0
1, 116879, Note_off_c, 1, 79, 0
1, 116880, Note_on_c, 1, 60, 127
1, 116880, Note_on_c, 1, 84, 127
1, 116939, Note_off_c, 1, 60, 0
1, 116939, Note_off_c, 1, 84, 0
1, 116940, Note_on_c, 1, 65, 127
1, 116940, Note_on_c, 1, 83, 127
1, 116969, Note_off_c, 1, 83, 0
1, 116999, Note_off_c, 1, 65, 0
1, 117060, Note_on_c, 1, 63, 127
1, 117060, Note_on_c, 1, 72, 127
1, 117060, Note_on_c, 1, 81, 127
1, 117089, Note_off_c, 1, 72, 0
1, 117089, Note_off_c, 1, 81, 0
1, 117119, Note_off_c, 1, 63, 0
1, 117180, Note_on_c, 1, 62, 127
1, 117239, Note_off_c, 1, 62, 0
1, 117330, Note_off_c, 1, 55, 0
1, 117330, Note_on_c, 1, 56, 127
1, 117359, Note_off_c, 1, 56, 0
1, 117360, Note_on_c, 1, 72, 127
1, 117360, Note_on_c, 1, 53, 127
1, 117389, Note_off_c, 1, 53, 0
1, 117390, Note_on_c, 1, 55, 127
1, 117419, Note_off_c, 1, 72, 0
1, 117419, Note_off_c, 1, 55, 0
1, 117420, Note_on_c, 1, 67, 127
1, 117420, Note_on_c, 1, 51, 127
1, 117449, Note_off_c, 1, 51, 0
1, 117450, Note_on_c, 1, 53, 127
1, 117479, Note_off_c, 1, 67, 0
1, 117479, Note_off_c, 1, 53, 0
1, 117480, Note_on_c, 1, 72, 127
1, 117480, Note_on_c, 1, 51, 127
1, 117509, Note_off_c, 1, 51, 0
1, 117510, Note_on_c, 1, 53, 127
1, 117539, Note_off_c, 1, 72, 0
1, 117539, Note_off_c, 1, 53, 0
1, 117540, Note_on_c, 1, 65, 127
1, 117540, Note_on_c, 1, 50, 127
1, 117569, Note_off_c, 1, 50, 0
1, 117570, Note_on_c, 1, 51, 127
1, 117599, Note_off_c, 1, 65, 0
1, 117599, Note_off_c, 1, 51, 0
1, 117600, Note_on_c, 1, 72, 127
1, 117600, Note_on_c, 1, 50, 127
1, 117629, Note_off_c, 1, 50, 0
1, 117630, Note_on_c, 1, 51, 127
1, 117659, Note_off_c, 1, 72, 0
1, 117659, Note_off_c, 1, 51, 0
1, 117660, Note_on_c, 1, 63, 127
1, 117660, Note_on_c, 1, 48, 127
1, 117689, Note_off_c, 1, 63, 0
1, 117690, Note_on_c, 1, 62, 127
1, 117690, Note_on_c, 1, 55, 127
1, 117719, Note_off_c, 1, 48, 0
1, 117719, Note_off_c, 1, 62, 0
1, 117719, Note_off_c, 1, 55, 0
1, 117720, Note_on_c, 1, 63, 127
1, 117720, Note_on_c, 1, 55, 127
1, 117720, Note_on_c, 1, 60, 127
1, 117720, Note_on_c, 1, 43, 127
1, 117749, Note_off_c, 1, 63, 0
1, 117749, Note_off_c, 1, 60, 0
1, 117750, Note_on_c, 1, 62, 127
1, 117779, Note_off_c, 1, 55, 0
1, 117779, Note_off_c, 1, 43, 0
1, 117779, Note_off_c, 1, 62, 0
1, 117780, Note_on_c, 1, 60, 127
1, 117780, Note_on_c, 1, 51, 127
1, 117780, Note_on_c, 1, 63, 127
1, 117780, Note_on_c, 1, 36, 127
1, 117809, Note_off_c, 1, 63, 0
1, 117810, Note_on_c, 1, 67, 127
1, 117839, Note_off_c, 1, 60, 0
1, 117839, Note_off_c, 1, 51, 0
1, 117839, Note_off_c, 1, 36, 0
1, 117839, Note_off_c, 1, 67, 0
1, 117840, Note_on_c, 1, 75, 127
1, 117840, Note_on_c, 1, 72, 127
1, 117840, Note_on_c, 1, 67, 127
1, 117840, Note_on_c, 1, 48, 127
1, 117899, Note_off_c, 1, 75, 0
1, 117899, Note_off_c, 1, 72, 0
1, 117899, Note_off_c, 1, 67, 0
1, 117899, Note_off_c, 1, 48, 0
1, 117900, Note_on_c, 1, 74, 127
1, 117900, Note_on_c, 1, 55, 127
1, 117900, Note_on_c, 1, 46, 127
1, 117929, Note_off_c, 1, 46, 0
1, 117930, Note_on_c, 1, 48, 127
1, 117959, Note_off_c, 1, 74, 0
1, 117959, Note_off_c, 1, 55, 0
1, 117959, Note_off_c, 1, 48, 0
1, 117960, Note_on_c, 1, 79, 127
1, 117960, Note_on_c, 1, 62, 127
1, 117960, Note_on_c, 1, 55, 127
1, 117960, Note_on_c, 1, 46, 127
1, 117989, Note_off_c, 1, 46, 0
1, 117990, Note_on_c, 1, 48, 127
1, 118019, Note_off_c, 1, 62, 0
1, 118019, Note_off_c, 1, 55, 0
1, 118019, Note_off_c, 1, 48, 0
1, 118020, Note_on_c, 1, 63, 127
1, 118020, Note_on_c, 1, 60, 127
1, 118020, Note_on_c, 1, 44, 127
1, 118049, Note_off_c, 1, 44, 0
1, 118079, Note_off_c, 1, 79, 0
1, 118079, Note_off_c, 1, 63, 0
1, 118079, Note_off_c, 1, 60, 0
1, 118080, Note_on_c, 1, 72, 127
1, 118080, Note_on_c, 1, 65, 127
1, 118080, Note_on_c, 1, 60, 127
1, 118080, Note_on_c, 1, 44, 127
1, 118109, Note_off_c, 1, 44, 0
1, 118110, Note_on_c, 1, 46, 127
1, 118139, Note_off_c, 1, 72, 0
1, 118139, Note_off_c, 1, 65, 0
1, 118139, Note_off_c, 1, 60, 0
1, 118139, Note_off_c, 1, 46, 0
1, 118140, Note_on_c, 1, 71, 127
1, 118140, Note_on_c, 1, 67, 127
1, 118140, Note_on_c, 1, 62, 127
1, 118140, Note_on_c, 1, 43, 127
1, 118169, Note_off_c, 1, 71, 0
1, 118169, Note_off_c, 1, 67, 0
1, 118170, Note_on_c, 1, 69, 127
1, 118199, Note_off_c, 1, 62, 0
1, 118199, Note_off_c, 1, 43, 0
1, 118199, Note_off_c, 1, 69, 0
1, 118200, Note_on_c, 1, 71, 127
1, 118200, Note_on_c, 1, 67, 127
1, 118200, Note_on_c, 1, 62, 127
1, 118200, Note_on_c, 1, 50, 127
1, 118229, Note_off_c, 1, 71, 0
1, 118229, Note_off_c, 1, 67, 0
1, 118230, Note_on_c, 1, 69, 127
1, 118259, Note_off_c, 1, 62, 0
1, 118259, Note_off_c, 1, 50, 0
1, 118259, Note_off_c, 1, 69, 0
1, 118260, Note_on_c, 1, 67, 127
1, 118260, Note_on_c, 1, 71, 127
1, 118260, Note_on_c, 1, 62, 127
1, 118260, Note_on_c, 1, 55, 127
1, 118289, Note_off_c, 1, 67, 0
1, 118289, Note_off_c, 1, 71, 0
1, 118290, Note_on_c, 1, 69, 127
1, 118290, Note_on_c, 1, 72, 127
1, 118319, Note_off_c, 1, 62, 0
1, 118319, Note_off_c, 1, 55, 0
1, 118319, Note_off_c, 1, 69, 0
1, 118319, Note_off_c, 1, 72, 0
1, 118320, Note_on_c, 1, 71, 127
1, 118320, Note_on_c, 1, 74, 127
1, 118320, Note_on_c, 1, 62, 127
1, 118320, Note_on_c, 1, 53, 127
1, 118349, Note_off_c, 1, 71, 0
1, 118349, Note_off_c, 1, 74, 0
1, 118350, Note_on_c, 1, 67, 127
1, 118379, Note_off_c, 1, 62, 0
1, 118379, Note_off_c, 1, 53, 0
1, 118379, Note_off_c, 1, 67, 0
1, 118380, Note_on_c, 1, 72, 127
1, 118380, Note_on_c, 1, 67, 127
1, 118380, Note_on_c, 1, 63, 127
1, 118380, Note_on_c, 1, 51, 127
1, 118409, Note_off_c, 1, 51, 0
1, 118410, Note_on_c, 1, 53, 127
1, 118439, Note_off_c, 1, 72, 0
1, 118439, Note_off_c, 1, 67, 0
1, 118439, Note_off_c, 1, 63, 0
1, 118439, Note_off_c, 1, 53, 0
1, 118440, Note_on_c, 1, 67, 127
1, 118440, Note_on_c, 1, 72, 127
1, 118440, Note_on_c, 1, 63, 127
1, 118440, Note_on_c, 1, 51, 127
1, 118469, Note_off_c, 1, 51, 0
1, 118470, Note_on_c, 1, 53, 127
1, 118499, Note_off_c, 1, 67, 0
1, 118499, Note_off_c, 1, 63, 0
1, 118499, Note_off_c, 1, 53, 0
1, 118500, Note_on_c, 1, 74, 127
1, 118500, Note_on_c, 1, 65, 127
1, 118500, Note_on_c, 1, 50, 127
1, 118529, Note_off_c, 1, 50, 0
1, 118559, Note_off_c, 1, 72, 0
1, 118559, Note_off_c, 1, 74, 0
1, 118559, Note_off_c, 1, 65, 0
1, 118560, Note_on_c, 1, 67, 127
1, 118560, Note_on_c, 1, 71, 127
1, 118560, Note_on_c, 1, 65, 127
1, 118560, Note_on_c, 1, 50, 127
1, 118589, Note_off_c, 1, 50, 0
1, 118590, Note_on_c, 1, 51, 127
1, 118619, Note_off_c, 1, 67, 0
1, 118619, Note_off_c, 1, 71, 0
1, 118619, Note_off_c, 1, 65, 0
1, 118619, Note_off_c, 1, 51, 0
1, 118620, Note_on_c, 1, 77, 127
1, 118620, Note_on_c, 1, 72, 127
1, 118620, Note_on_c, 1, 67, 127
1, 118620, Note_on_c, 1, 48, 127
1, 118649, Note_off_c, 1, 48, 0
1, 118650, Note_on_c, 1, 50, 127
1, 118679, Note_off_c, 1, 77, 0
1, 118679, Note_off_c, 1, 50, 0
1, 118680, Note_on_c, 1, 75, 127
1, 118740, Note_on_c, 1, 46, 127
1, 118769, Note_off_c, 1, 75, 0
1, 118769, Note_off_c, 1, 46, 0
1, 118799, Note_off_c, 1, 72, 0
1, 118799, Note_off_c, 1, 67, 0
1, 118800, Note_on_c, 1, 74, 127
1, 118800, Note_on_c, 1, 67, 127
1, 118800, Note_on_c, 1, 46, 127
1, 118829, Note_off_c, 1, 74, 0
1, 118829, Note_off_c, 1, 46, 0
1, 118830, Note_on_c, 1, 76, 127
1, 118830, Note_on_c, 1, 48, 127
1, 118859, Note_off_c, 1, 67, 0
1, 118859, Note_off_c, 1, 76, 0
1, 118859, Note_off_c, 1, 48, 0
1, 118860, Note_on_c, 1, 77, 127
1, 118860, Note_on_c, 1, 72, 127
1, 118860, Note_on_c, 1, 68, 127
1, 118860, Note_on_c, 1, 44, 127
1, 118889, Note_off_c, 1, 44, 0
1, 118890, Note_on_c, 1, 46, 127
1, 118919, Note_off_c, 1, 77, 0
1, 118919, Note_off_c, 1, 72, 0
1, 118919, Note_off_c, 1, 68, 0
1, 118919, Note_off_c, 1, 46, 0
1, 118920, Note_on_c, 1, 72, 127
1, 118920, Note_on_c, 1, 77, 127
1, 118920, Note_on_c, 1, 68, 127
1, 118920, Note_on_c, 1, 44, 127
1, 118949, Note_off_c, 1, 44, 0
1, 118950, Note_on_c, 1, 46, 127
1, 118979, Note_off_c, 1, 72, 0
1, 118979, Note_off_c, 1, 68, 0
1, 118979, Note_off_c, 1, 46, 0
1, 118980, Note_on_c, 1, 79, 127
1, 118980, Note_on_c, 1, 70, 127
1, 118980, Note_on_c, 1, 43, 127
1, 119009, Note_off_c, 1, 43, 0
1, 119039, Note_off_c, 1, 77, 0
1, 119039, Note_off_c, 1, 79, 0
1, 119039, Note_off_c, 1, 70, 0
1, 119040, Note_on_c, 1, 72, 127
1, 119040, Note_on_c, 1, 76, 127
1, 119040, Note_on_c, 1, 70, 127
1, 119040, Note_on_c, 1, 43, 127
1, 119069, Note_off_c, 1, 43, 0
1, 119070, Note_on_c, 1, 44, 127
1, 119099, Note_off_c, 1, 72, 0
1, 119099, Note_off_c, 1, 76, 0
1, 119099, Note_off_c, 1, 70, 0
1, 119099, Note_off_c, 1, 44, 0
1, 119100, Note_on_c, 1, 82, 127
1, 119100, Note_on_c, 1, 77, 127
1, 119100, Note_on_c, 1, 72, 127
1, 119100, Note_on_c, 1, 41, 127
1, 119129, Note_off_c, 1, 41, 0
1, 119130, Note_on_c, 1, 40, 127
1, 119159, Note_off_c, 1, 82, 0
1, 119159, Note_off_c, 1, 40, 0
1, 119160, Note_on_c, 1, 80, 127
1, 119190, Note_on_c, 1, 43, 127
1, 119219, Note_off_c, 1, 43, 0
1, 119220, Note_on_c, 1, 44, 127
1, 119249, Note_off_c, 1, 44, 0
1, 119250, Note_off_c, 1, 80, 0
1, 119250, Note_on_c, 1, 79, 127
1, 119250, Note_on_c, 1, 46, 127
1, 119279, Note_off_c, 1, 77, 0
1, 119279, Note_off_c, 1, 72, 0
1, 119279, Note_off_c, 1, 79, 0
1, 119279, Note_off_c, 1, 46, 0
1, 119280, Note_on_c, 1, 80, 127
1, 119280, Note_on_c, 1, 72, 127
1, 119280, Note_on_c, 1, 65, 127
1, 119280, Note_on_c, 1, 48, 127
1, 119309, Note_off_c, 1, 80, 0
1, 119309, Note_off_c, 1, 48, 0
1, 119310, Note_on_c, 1, 77, 127
1, 119310, Note_on_c, 1, 50, 127
1, 119339, Note_off_c, 1, 72, 0
1, 119339, Note_off_c, 1, 65, 0
1, 119339, Note_off_c, 1, 77, 0
1, 119339, Note_off_c, 1, 50, 0
1, 119340, Note_on_c, 1, 72, 127
1, 119340, Note_on_c, 1, 79, 127
1, 119340, Note_on_c, 1, 67, 127
1, 119340, Note_on_c, 1, 52, 127
1, 119369, Note_off_c, 1, 72, 0
1, 119370, Note_on_c, 1, 71, 127
1, 119399, Note_off_c, 1, 79, 0
1, 119399, Note_off_c, 1, 67, 0
1, 119399, Note_off_c, 1, 52, 0
1, 119399, Note_off_c, 1, 71, 0
1, 119400, Note_on_c, 1, 72, 127
1, 119400, Note_on_c, 1, 67, 127
1, 119400, Note_on_c, 1, 55, 127
1, 119430, Note_on_c, 1, 74, 127
1, 119459, Note_off_c, 1, 72, 0
1, 119459, Note_off_c, 1, 67, 0
1, 119459, Note_off_c, 1, 55, 0
1, 119459, Note_off_c, 1, 74, 0
1, 119460, Note_on_c, 1, 76, 127
1, 119460, Note_on_c, 1, 79, 127
1, 119460, Note_on_c, 1, 72, 127
1, 119460, Note_on_c, 1, 48, 127
1, 119489, Note_off_c, 1, 76, 0
1, 119490, Note_on_c, 1, 77, 127
1, 119519, Note_off_c, 1, 79, 0
1, 119519, Note_off_c, 1, 72, 0
1, 119519, Note_off_c, 1, 48, 0
1, 119519, Note_off_c, 1, 77, 0
1, 119520, Note_on_c, 1, 79, 127
1, 119520, Note_on_c, 1, 72, 127
1, 119520, Note_on_c, 1, 52, 127
1, 119549, Note_off_c, 1, 79, 0
1, 119550, Note_on_c, 1, 80, 127
1, 119579, Note_off_c, 1, 72, 0
1, 119579, Note_off_c, 1, 52, 0
1, 119579, Note_off_c, 1, 80, 0
1, 119580, Note_on_c, 1, 82, 127
1, 119580, Note_on_c, 1, 77, 127
1, 119580, Note_on_c, 1, 72, 127
1, 119580, Note_on_c, 1, 53, 127
1, 119609, Note_off_c, 1, 82, 0
1, 119610, Note_on_c, 1, 79, 127
1, 119639, Note_off_c, 1, 77, 0
1, 119639, Note_off_c, 1, 72, 0
1, 119639, Note_off_c, 1, 53, 0
1, 119639, Note_off_c, 1, 79, 0
1, 119640, Note_on_c, 1, 80, 127
1, 119640, Note_on_c, 1, 72, 127
1, 119640, Note_on_c, 1, 68, 127
1, 119640, Note_on_c, 1, 41, 127
1, 119669, Note_off_c, 1, 80, 0
1, 119670, Note_on_c, 1, 77, 127
1, 119699, Note_off_c, 1, 72, 0
1, 119699, Note_off_c, 1, 68, 0
1, 119699, Note_off_c, 1, 41, 0
1, 119699, Note_off_c, 1, 77, 0
1, 119700, Note_on_c, 1, 72, 127
1, 119700, Note_on_c, 1, 77, 127
1, 119700, Note_on_c, 1, 65, 127
1, 119700, Note_on_c, 1, 44, 127
1, 119729, Note_off_c, 1, 72, 0
1, 119759, Note_off_c, 1, 77, 0
1, 119759, Note_off_c, 1, 65, 0
1, 119759, Note_off_c, 1, 44, 0
1, 119760, Note_on_c, 1, 80, 127
1, 119760, Note_on_c, 1, 72, 127
1, 119760, Note_on_c, 1, 65, 127
1, 119760, Note_on_c, 1, 48, 127
1, 119789, Note_off_c, 1, 80, 0
1, 119790, Note_on_c, 1, 77, 127
1, 119819, Note_off_c, 1, 72, 0
1, 119819, Note_off_c, 1, 65, 0
1, 119819, Note_off_c, 1, 48, 0
1, 119819, Note_off_c, 1, 77, 0
1, 119820, Note_on_c, 1, 72, 127
1, 119820, Note_on_c, 1, 79, 127
1, 119820, Note_on_c, 1, 67, 127
1, 119820, Note_on_c, 1, 52, 127
1, 119849, Note_off_c, 1, 72, 0
1, 119850, Note_on_c, 1, 71, 127
1, 119879, Note_off_c, 1, 79, 0
1, 119879, Note_off_c, 1, 67, 0
1, 119879, Note_off_c, 1, 52, 0
1, 119879, Note_off_c, 1, 71, 0
1, 119880, Note_on_c, 1, 72, 127
1, 119880, Note_on_c, 1, 67, 127
1, 119880, Note_on_c, 1, 55, 127
1, 119910, Note_on_c, 1, 74, 127
1, 119939, Note_off_c, 1, 72, 0
1, 119939, Note_off_c, 1, 67, 0
1, 119939, Note_off_c, 1, 55, 0
1, 119939, Note_off_c, 1, 74, 0
1, 119940, Note_on_c, 1, 76, 127
1, 119940, Note_on_c, 1, 79, 127
1, 119940, Note_on_c, 1, 72, 127
1, 119940, Note_on_c, 1, 48, 127
1, 119969, Note_off_c, 1, 76, 0
1, 119970, Note_on_c, 1, 77, 127
1, 119999, Note_off_c, 1, 79, 0
1, 119999, Note_off_c, 1, 72, 0
1, 119999, Note_off_c, 1, 48, 0
1, 119999, Note_off_c, 1, 77, 0
1, 120000, Note_on_c, 1, 79, 127
1, 120000, Note_on_c, 1, 72, 127
1, 120000, Note_on_c, 1, 52, 127
1, 120029, Note_off_c, 1, 79, 0
1, 120030, Note_on_c, 1, 80, 127
1, 120059, Note_off_c, 1, 72, 0
1, 120059, Note_off_c, 1, 52, 0
1, 120059, Note_off_c, 1, 80, 0
1, 120060, Note_on_c, 1, 82, 127
1, 120060, Note_on_c, 1, 77, 127
1, 120060, Note_on_c, 1, 72, 127
1, 120060, Note_on_c, 1, 53, 127
1, 120089, Note_off_c, 1, 82, 0
1, 120090, Note_on_c, 1, 79, 127
1, 120119, Note_off_c, 1, 77, 0
1, 120119, Note_off_c, 1, 72, 0
1, 120119, Note_off_c, 1, 53, 0
1, 120119, Note_off_c, 1, 79, 0
1, 120120, Note_on_c, 1, 80, 127
1, 120120, Note_on_c, 1, 72, 127
1, 120120, Note_on_c, 1, 68, 127
1, 120120, Note_on_c, 1, 41, 127
1, 120149, Note_off_c, 1, 80, 0
1, 120150, Note_on_c, 1, 77, 127
1, 120179, Note_off_c, 1, 72, 0
1, 120179, Note_off_c, 1, 68, 0
1, 120179, Note_off_c, 1, 41, 0
1, 120179, Note_off_c, 1, 77, 0
1, 120180, Note_on_c, 1, 72, 127
1, 120180, Note_on_c, 1, 77, 127
1, 120180, Note_on_c, 1, 65, 127
1, 120180, Note_on_c, 1, 44, 127
1, 120209, Note_off_c, 1, 72, 0
1, 120239, Note_off_c, 1, 77, 0
1, 120239, Note_off_c, 1, 65, 0
1, 120239, Note_off_c, 1, 44, 0
1, 120240, Note_on_c, 1, 80, 127
1, 120240, Note_on_c, 1, 72, 127
1, 120240, Note_on_c, 1, 65, 127
1, 120240, Note_on_c, 1, 48, 127
1, 120269, Note_off_c, 1, 80, 0
1, 120270, Note_on_c, 1, 77, 127
1, 120299, Note_off_c, 1, 72, 0
1, 120299, Note_off_c, 1, 65, 0
1, 120299, Note_off_c, 1, 48, 0
1, 120299, Note_off_c, 1, 77, 0
1, 120300, Note_on_c, 1, 70, 127
1, 120300, Note_on_c, 1, 77, 127
1, 120300, Note_on_c, 1, 65, 127
1, 120300, Note_on_c, 1, 50, 127
1, 120329, Note_off_c, 1, 70, 0
1, 120330, Note_on_c, 1, 69, 127
1, 120359, Note_off_c, 1, 77, 0
1, 120359, Note_off_c, 1, 65, 0
1, 120359, Note_off_c, 1, 50, 0
1, 120359, Note_off_c, 1, 69, 0
1, 120360, Note_on_c, 1, 70, 127
1, 120360, Note_on_c, 1, 65, 127
1, 120360, Note_on_c, 1, 53, 127
1, 120390, Note_on_c, 1, 72, 127
1, 120419, Note_off_c, 1, 70, 0
1, 120419, Note_off_c, 1, 65, 0
1, 120419, Note_off_c, 1, 53, 0
1, 120419, Note_off_c, 1, 72, 0
1, 120420, Note_on_c, 1, 74, 127
1, 120420, Note_on_c, 1, 77, 127
1, 120420, Note_on_c, 1, 70, 127
1, 120420, Note_on_c, 1, 46, 127
1, 120449, Note_off_c, 1, 74, 0
1, 120450, Note_on_c, 1, 75, 127
1, 120479, Note_off_c, 1, 77, 0
1, 120479, Note_off_c, 1, 70, 0
1, 120479, Note_off_c, 1, 46, 0
1, 120479, Note_off_c, 1, 75, 0
1, 120480, Note_on_c, 1, 77, 127
1, 120480, Note_on_c, 1, 70, 127
1, 120480, Note_on_c, 1, 50, 127
1, 120509, Note_off_c, 1, 77, 0
1, 120510, Note_on_c, 1, 79, 127
1, 120539, Note_off_c, 1, 70, 0
1, 120539, Note_off_c, 1, 50, 0
1, 120539, Note_off_c, 1, 79, 0
1, 120540, Note_on_c, 1, 80, 127
1, 120540, Note_on_c, 1, 75, 127
1, 120540, Note_on_c, 1, 70, 127
1, 120540, Note_on_c, 1, 51, 127
1, 120569, Note_off_c, 1, 80, 0
1, 120570, Note_on_c, 1, 77, 127
1, 120599, Note_off_c, 1, 75, 0
1, 120599, Note_off_c, 1, 70, 0
1, 120599, Note_off_c, 1, 51, 0
1, 120599, Note_off_c, 1, 77, 0
1, 120600, Note_on_c, 1, 79, 127
1, 120600, Note_on_c, 1, 70, 127
1, 120600, Note_on_c, 1, 67, 127
1, 120600, Note_on_c, 1, 39, 127
1, 120629, Note_off_c, 1, 79, 0
1, 120630, Note_on_c, 1, 75, 127
1, 120659, Note_off_c, 1, 70, 0
1, 120659, Note_off_c, 1, 67, 0
1, 120659, Note_off_c, 1, 39, 0
1, 120659, Note_off_c, 1, 75, 0
1, 120660, Note_on_c, 1, 70, 127
1, 120660, Note_on_c, 1, 75, 127
1, 120660, Note_on_c, 1, 63, 127
1, 120660, Note_on_c, 1, 43, 127
1, 120689, Note_off_c, 1, 70, 0
1, 120719, Note_off_c, 1, 75, 0
1, 120719, Note_off_c, 1, 63, 0
1, 120719, Note_off_c, 1, 43, 0
1, 120720, Note_on_c, 1, 79, 127
1, 120720, Note_on_c, 1, 70, 127
1, 120720, Note_on_c, 1, 63, 127
1, 120720, Note_on_c, 1, 46, 127
1, 120749, Note_off_c, 1, 79, 0
1, 120750, Note_on_c, 1, 75, 127
1, 120779, Note_off_c, 1, 70, 0
1, 120779, Note_off_c, 1, 63, 0
1, 120779, Note_off_c, 1, 46, 0
1, 120779, Note_off_c, 1, 75, 0
1, 120780, Note_on_c, 1, 70, 127
1, 120780, Note_on_c, 1, 77, 127
1, 120780, Note_on_c, 1, 65, 127
1, 120780, Note_on_c, 1, 50, 127
1, 120809, Note_off_c, 1, 70, 0
1, 120810, Note_on_c, 1, 69, 127
1, 120839, Note_off_c, 1, 77, 0
1, 120839, Note_off_c, 1, 65, 0
1, 120839, Note_off_c, 1, 50, 0
1, 120839, Note_off_c, 1, 69, 0
1, 120840, Note_on_c, 1, 70, 127
1, 120840, Note_on_c, 1, 65, 127
1, 120840, Note_on_c, 1, 53, 127
1, 120870, Note_on_c, 1, 72, 127
1, 120899, Note_off_c, 1, 70, 0
1, 120899, Note_off_c, 1, 65, 0
1, 120899, Note_off_c, 1, 53, 0
1, 120899, Note_off_c, 1, 72, 0
1, 120900, Note_on_c, 1, 74, 127
1, 120900, Note_on_c, 1, 77, 127
1, 120900, Note_on_c, 1, 70, 127
1, 120900, Note_on_c, 1, 46, 127
1, 120929, Note_off_c, 1, 74, 0
1, 120930, Note_on_c, 1, 75, 127
1, 120959, Note_off_c, 1, 77, 0
1, 120959, Note_off_c, 1, 70, 0
1, 120959, Note_off_c, 1, 46, 0
1, 120959, Note_off_c, 1, 75, 0
1, 120960, Note_on_c, 1, 77, 127
1, 120960, Note_on_c, 1, 70, 127
1, 120960, Note_on_c, 1, 50, 127
1, 120989, Note_off_c, 1, 77, 0
1, 120990, Note_on_c, 1, 79, 127
1, 121019, Note_off_c, 1, 70, 0
1, 121019, Note_off_c, 1, 50, 0
1, 121019, Note_off_c, 1, 79, 0
1, 121020, Note_on_c, 1, 80, 127
1, 121020, Note_on_c, 1, 75, 127
1, 121020, Note_on_c, 1, 70, 127
1, 121020, Note_on_c, 1, 39, 127
1, 121049, Note_off_c, 1, 80, 0
1, 121050, Note_on_c, 1, 77, 127
1, 121079, Note_off_c, 1, 75, 0
1, 121079, Note_off_c, 1, 70, 0
1, 121079, Note_off_c, 1, 39, 0
1, 121079, Note_off_c, 1, 77, 0
1, 121080, Note_on_c, 1, 79, 127
1, 121080, Note_on_c, 1, 70, 127
1, 121080, Note_on_c, 1, 67, 127
1, 121080, Note_on_c, 1, 51, 127
1, 121109, Note_off_c, 1, 79, 0
1, 121110, Note_on_c, 1, 75, 127
1, 121139, Note_off_c, 1, 70, 0
1, 121139, Note_off_c, 1, 67, 0
1, 121139, Note_off_c, 1, 51, 0
1, 121139, Note_off_c, 1, 75, 0
1, 121140, Note_on_c, 1, 70, 127
1, 121140, Note_on_c, 1, 75, 127
1, 121140, Note_on_c, 1, 63, 127
1, 121140, Note_on_c, 1, 55, 127
1, 121169, Note_off_c, 1, 70, 0
1, 121199, Note_off_c, 1, 75, 0
1, 121199, Note_off_c, 1, 63, 0
1, 121199, Note_off_c, 1, 55, 0
1, 121200, Note_on_c, 1, 79, 127
1, 121200, Note_on_c, 1, 70, 127
1, 121200, Note_on_c, 1, 63, 127
1, 121200, Note_on_c, 1, 51, 127
1, 121229, Note_off_c, 1, 79, 0
1, 121230, Note_on_c, 1, 75, 127
1, 121259, Note_off_c, 1, 70, 0
1, 121259, Note_off_c, 1, 63, 0
1, 121259, Note_off_c, 1, 51, 0
1, 121259, Note_off_c, 1, 75, 0
1, 121260, Note_on_c, 1, 77, 127
1, 121260, Note_on_c, 1, 71, 127
1, 121260, Note_on_c, 1, 68, 127
1, 121260, Note_on_c, 1, 50, 127
1, 121289, Note_off_c, 1, 68, 0
1, 121290, Note_on_c, 1, 70, 127
1, 121319, Note_off_c, 1, 77, 0
1, 121319, Note_off_c, 1, 71, 0
1, 121319, Note_off_c, 1, 50, 0
1, 121319, Note_off_c, 1, 70, 0
1, 121320, Note_on_c, 1, 72, 127
1, 121320, Note_on_c, 1, 68, 127
1, 121320, Note_on_c, 1, 56, 127
1, 121349, Note_off_c, 1, 68, 0
1, 121350, Note_on_c, 1, 70, 127
1, 121379, Note_off_c, 1, 56, 0
1, 121379, Note_off_c, 1, 70, 0
1, 121380, Note_on_c, 1, 77, 127
1, 121380, Note_on_c, 1, 48, 127
1, 121439, Note_off_c, 1, 72, 0
1, 121439, Note_off_c, 1, 77, 0
1, 121439, Note_off_c, 1, 48, 0
1, 121440, Note_on_c, 1, 74, 127
1, 121440, Note_on_c, 1, 68, 127
1, 121440, Note_on_c, 1, 56, 127
1, 121469, Note_off_c, 1, 68, 0
1, 121470, Note_on_c, 1, 70, 127
1, 121499, Note_off_c, 1, 74, 0
1, 121499, Note_off_c, 1, 56, 0
1, 121499, Note_off_c, 1, 70, 0
1, 121500, Note_on_c, 1, 77, 127
1, 121500, Note_on_c, 1, 74, 127
1, 121500, Note_on_c, 1, 67, 127
1, 121500, Note_on_c, 1, 47, 127
1, 121529, Note_off_c, 1, 67, 0
1, 121529, Note_off_c, 1, 47, 0
1, 121530, Note_on_c, 1, 65, 127
1, 121530, Note_on_c, 1, 45, 127
1, 121559, Note_off_c, 1, 65, 0
1, 121559, Note_off_c, 1, 45, 0
1, 121619, Note_off_c, 1, 77, 0
1, 121619, Note_off_c, 1, 74, 0
1, 121620, Note_on_c, 1, 67, 127
1, 121620, Note_on_c, 1, 43, 127
1, 121649, Note_off_c, 1, 43, 0
1, 121650, Note_on_c, 1, 75, 127
1, 121650, Note_on_c, 1, 72, 127
1, 121650, Note_on_c, 1, 45, 127
1, 121679, Note_off_c, 1, 75, 0
1, 121679, Note_off_c, 1, 72, 0
1, 121679, Note_off_c, 1, 45, 0
1, 121680, Note_on_c, 1, 74, 127
1, 121680, Note_on_c, 1, 47, 127
1, 121709, Note_off_c, 1, 74, 0
1, 121709, Note_off_c, 1, 47, 0
1, 121710, Note_on_c, 1, 77, 127
1, 121710, Note_on_c, 1, 71, 127
1, 121739, Note_off_c, 1, 67, 0
1, 121739, Note_off_c, 1, 77, 0
1, 121739, Note_off_c, 1, 71, 0
1, 121740, Note_on_c, 1, 75, 127
1, 121740, Note_on_c, 1, 72, 127
1, 121740, Note_on_c, 1, 48, 127
1, 121769, Note_off_c, 1, 75, 0
1, 121770, Note_on_c, 1, 74, 127
1, 121770, Note_on_c, 1, 68, 127
1, 121799, Note_off_c, 1, 72, 0
1, 121799, Note_off_c, 1, 48, 0
1, 121799, Note_off_c, 1, 74, 0
1, 121799, Note_off_c, 1, 68, 0
1, 121800, Note_on_c, 1, 75, 127
1, 121800, Note_on_c, 1, 67, 127
1, 121800, Note_on_c, 1, 55, 127
1, 121829, Note_off_c, 1, 67, 0
1, 121830, Note_on_c, 1, 68, 127
1, 121859, Note_off_c, 1, 55, 0
1, 121859, Note_off_c, 1, 68, 0
1, 121860, Note_on_c, 1, 72, 127
1, 121860, Note_on_c, 1, 46, 127
1, 121889, Note_off_c, 1, 75, 0
1, 121890, Note_on_c, 1, 74, 127
1, 121919, Note_off_c, 1, 72, 0
1, 121919, Note_off_c, 1, 46, 0
1, 121919, Note_off_c, 1, 74, 0
1, 121920, Note_on_c, 1, 75, 127
1, 121920, Note_on_c, 1, 67, 127
1, 121920, Note_on_c, 1, 55, 127
1, 121949, Note_off_c, 1, 67, 0
1, 121950, Note_on_c, 1, 68, 127
1, 121979, Note_off_c, 1, 55, 0
1, 121979, Note_off_c, 1, 68, 0
1, 121980, Note_on_c, 1, 72, 127
1, 121980, Note_on_c, 1, 66, 127
1, 121980, Note_on_c, 1, 45, 127
1, 122009, Note_off_c, 1, 75, 0
1, 122009, Note_off_c, 1, 66, 0
1, 122009, Note_off_c, 1, 45, 0
1, 122010, Note_on_c, 1, 43, 127
1, 122039, Note_off_c, 1, 43, 0
1, 122100, Note_on_c, 1, 69, 127
1, 122100, Note_on_c, 1, 42, 127
1, 122129, Note_off_c, 1, 42, 0
1, 122159, Note_off_c, 1, 72, 0
1, 122159, Note_off_c, 1, 69, 0
1, 122160, Note_on_c, 1, 74, 127
1, 122160, Note_on_c, 1, 62, 127
1, 122160, Note_on_c, 1, 66, 127
1, 122160, Note_on_c, 1, 45, 127
1, 122189, Note_off_c, 1, 74, 0
1, 122189, Note_off_c, 1, 45, 0
1, 122190, Note_on_c, 1, 72, 127
1, 122190, Note_on_c, 1, 42, 127
1, 122219, Note_off_c, 1, 62, 0
1, 122219, Note_off_c, 1, 66, 0
1, 122219, Note_off_c, 1, 72, 0
1, 122219, Note_off_c, 1, 42, 0
1, 122220, Note_on_c, 1, 71, 127
1, 122220, Note_on_c, 1, 67, 127
1, 122220, Note_on_c, 1, 62, 127
1, 122220, Note_on_c, 1, 43, 127
1, 122249, Note_off_c, 1, 43, 0
1, 122250, Note_on_c, 1, 44, 127
1, 122279, Note_off_c, 1, 71, 0
1, 122279, Note_off_c, 1, 67, 0
1, 122279, Note_off_c, 1, 62, 0
1, 122279, Note_off_c, 1, 44, 0
1, 122280, Note_on_c, 1, 74, 127
1, 122280, Note_on_c, 1, 71, 127
1, 122280, Note_on_c, 1, 67, 127
1, 122280, Note_on_c, 1, 43, 127
1, 122309, Note_off_c, 1, 43, 0
1, 122310, Note_on_c, 1, 44, 127
1, 122339, Note_off_c, 1, 74, 0
1, 122339, Note_off_c, 1, 71, 0
1, 122339, Note_off_c, 1, 67, 0
1, 122339, Note_off_c, 1, 44, 0
1, 122340, Note_on_c, 1, 65, 127
1, 122340, Note_on_c, 1, 74, 127
1, 122340, Note_on_c, 1, 71, 127
1, 122340, Note_on_c, 1, 43, 127
1, 122369, Note_off_c, 1, 43, 0
1, 122370, Note_on_c, 1, 44, 127
1, 122399, Note_off_c, 1, 65, 0
1, 122399, Note_off_c, 1, 71, 0
1, 122399, Note_off_c, 1, 44, 0
1, 122400, Note_on_c, 1, 59, 127
1, 122400, Note_on_c, 1, 41, 127
1, 122429, Note_off_c, 1, 41, 0
1, 122459, Note_off_c, 1, 59, 0
1, 122460, Note_on_c, 1, 63, 127
1, 122460, Note_on_c, 1, 60, 127
1, 122489, Note_off_c, 1, 63, 0
1, 122490, Note_on_c, 1, 62, 127
1, 122490, Note_on_c, 1, 56, 127
1, 122519, Note_off_c, 1, 74, 0
1, 122519, Note_off_c, 1, 62, 0
1, 122519, Note_off_c, 1, 56, 0
1, 122520, Note_on_c, 1, 72, 127
1, 122520, Note_on_c, 1, 55, 127
1, 122549, Note_off_c, 1, 72, 0
1, 122549, Note_off_c, 1, 55, 0
1, 122550, Note_on_c, 1, 53, 127
1, 122579, Note_off_c, 1, 60, 0
1, 122579, Note_off_c, 1, 53, 0
1, 122580, Note_on_c, 1, 60, 127
1, 122580, Note_on_c, 1, 72, 127
1, 122580, Note_on_c, 1, 51, 127
1, 122609, Note_off_c, 1, 51, 0
1, 122610, Note_on_c, 1, 65, 127
1, 122610, Note_on_c, 1, 56, 127
1, 122639, Note_off_c, 1, 60, 0
1, 122639, Note_off_c, 1, 72, 0
1, 122639, Note_off_c, 1, 65, 0
1, 122639, Note_off_c, 1, 56, 0
1, 122640, Note_on_c, 1, 75, 127
1, 122640, Note_on_c, 1, 60, 127
1, 122640, Note_on_c, 1, 63, 127
1, 122640, Note_on_c, 1, 55, 127
1, 122669, Note_off_c, 1, 75, 0
1, 122669, Note_off_c, 1, 60, 0
1, 122669, Note_off_c, 1, 63, 0
1, 122669, Note_off_c, 1, 55, 0
1, 122670, Note_on_c, 1, 77, 127
1, 122670, Note_on_c, 1, 62, 127
1, 122670, Note_on_c, 1, 53, 127
1, 122699, Note_off_c, 1, 77, 0
1, 122699, Note_off_c, 1, 62, 0
1, 122699, Note_off_c, 1, 53, 0
1, 122700, Note_on_c, 1, 79, 127
1, 122700, Note_on_c, 1, 63, 127
1, 122700, Note_on_c, 1, 60, 127
1, 122700, Note_on_c, 1, 51, 127
1, 122729, Note_off_c, 1, 51, 0
1, 122730, Note_on_c, 1, 56, 127
1, 122759, Note_off_c, 1, 79, 0
1, 122759, Note_off_c, 1, 63, 0
1, 122759, Note_off_c, 1, 60, 0
1, 122759, Note_off_c, 1, 56, 0
1, 122760, Note_on_c, 1, 72, 127
1, 122760, Note_on_c, 1, 68, 127
1, 122760, Note_on_c, 1, 62, 127
1, 122760, Note_on_c, 1, 55, 127
1, 122789, Note_off_c, 1, 55, 0
1, 122790, Note_on_c, 1, 53, 127
1, 122819, Note_off_c, 1, 72, 0
1, 122819, Note_off_c, 1, 68, 0
1, 122819, Note_off_c, 1, 62, 0
1, 122819, Note_off_c, 1, 53, 0
1, 122820, Note_on_c, 1, 67, 127
1, 122820, Note_on_c, 1, 63, 127
1, 122820, Note_on_c, 1, 55, 127
1, 122879, Note_off_c, 1, 67, 0
1, 122879, Note_off_c, 1, 63, 0
1, 122879, Note_off_c, 1, 55, 0
1, 122880, Note_on_c, 1, 71, 127
1, 122880, Note_on_c, 1, 67, 127
1, 122880, Note_on_c, 1, 62, 127
1, 122880, Note_on_c, 1, 43, 127
1, 122880, Note_on_c, 1, 65, 127
1, 122939, Note_off_c, 1, 71, 0
1, 122939, Note_off_c, 1, 67, 0
1, 122939, Note_off_c, 1, 62, 0
1, 122939, Note_off_c, 1, 43, 0
1, 122939, Note_off_c, 1, 65, 0
1, 122940, Note_on_c, 1, 72, 127
1, 122940, Note_on_c, 1, 67, 127
1, 122940, Note_on_c, 1, 63, 127
1, 122940, Note_on_c, 1, 36, 127
1, 122940, Note_on_c, 1, 60, 127
1, 122940, Note_on_c, 1, 48, 127
1, 123059, Note_off_c, 1, 72, 0
1, 123059, Note_off_c, 1, 36, 0
1, 123060, Note_off_c, 1, 67, 0
1, 123060, Note_off_c, 1, 63, 0
1, 123060, Note_off_c, 1, 60, 0
1, 123060, Note_off_c, 1, 48, 0
1, 123060, End_track
0, 0, End_of_file