0, 0, Header, 1, 1, 480
1, 0, Start_track
1, 0, Title_t, "Test"
1, 0, Tempo, 500000
1, 0, Instrument_name_t, "Church Organ"
1, 1296, Note_on_c, 1, 48, 127
1, 1298, Note_on_c, 1, 72, 127
1, 1300, Note_on_c, 1, 64, 127
1, 1303, Note_on_c, 1, 67, 127
1, 1350, Note_off_c, 1, 64, 0
1, 1353, Note_off_c, 1, 72, 0
1, 1355, Note_off_c, 1, 48, 0
1, 1364, Note_off_c, 1, 67, 0
1, 1422, Note_on_c, 1, 72, 127
1, 1427, Note_on_c, 1, 48, 127
1, 1429, Note_on_c, 1, 64, 127
1, 1431, Note_on_c, 1, 67, 127
1, 1537, Note_on_c, 1, 62, 127
1, 1541, Note_on_c, 1, 71, 127
1, 1564, Note_off_c, 1, 64, 0
1, 1572, Note_off_c, 1, 72, 0
1, 1672, Note_off_c, 1, 62, 0
1, 1688, Note_off_c, 1, 71, 0
1, 1770, Note_on_c, 1, 65, 127
1, 1770, Note_on_c, 1, 74, 127
1, 1805, Note_off_c, 1, 67, 0
1, 1885, Note_off_c, 1, 65, 0
1, 1900, Note_on_c, 1, 76, 127
1, 1904, Note_off_c, 1, 74, 0
1, 1956, Note_off_c, 1, 48, 0
1, 2104, Note_off_c, 1, 76, 0
1, 2137, Note_on_c, 1, 60, 127
1, 2241, Note_on_c, 1, 69, 127
1, 2245, Note_off_c, 1, 60, 0
1, 2253, Note_on_c, 1, 77, 127
1, 2305, Note_off_c, 1, 69, 0
1, 2325, Note_off_c, 1, 77, 0
1, 2374, Note_on_c, 1, 72, 127
1, 2374, Note_on_c, 1, 55, 127
1, 2380, Note_on_c, 1, 67, 127
1, 2381, Note_on_c, 1, 76, 127
1, 2425, Note_on_c, 1, 71, 127
1, 2429, Note_on_c, 1, 65, 127
1, 2431, Note_off_c, 1, 72, 0
1, 2437, Note_on_c, 1, 74, 127
1, 2442, Note_off_c, 1, 67, 0
1, 2460, Note_off_c, 1, 76, 0
1, 2473, Note_off_c, 1, 55, 0
1, 2478, Note_off_c, 1, 65, 0
1, 2480, Note_off_c, 1, 71, 0
1, 2502, Note_off_c, 1, 74, 0
1, 2611, Note_on_c, 1, 57, 127
1, 2692, Note_off_c, 1, 57, 0
1, 2726, Note_on_c, 1, 72, 127
1, 2728, Note_on_c, 1, 64, 127
1, 2797, Note_off_c, 1, 64, 0
1, 2823, Note_off_c, 1, 72, 0
1, 2859, Note_on_c, 1, 64, 127
1, 2859, Note_on_c, 1, 52, 127
1, 2861, Note_on_c, 1, 72, 127
1, 2870, Note_on_c, 1, 79, 127
1, 2972, Note_on_c, 1, 53, 127
1, 2974, Note_on_c, 1, 62, 127
1, 2980, Note_on_c, 1, 71, 127
1, 2982, Note_off_c, 1, 72, 0
1, 2989, Note_off_c, 1, 52, 0
1, 3008, Note_off_c, 1, 64, 0
1, 3091, Note_off_c, 1, 53, 0
1, 3109, Note_off_c, 1, 71, 0
1, 3118, Note_off_c, 1, 62, 0
1, 3199, Note_on_c, 1, 65, 127
1, 3206, Note_on_c, 1, 74, 127
1, 3206, Note_on_c, 1, 50, 127
1, 3306, Note_off_c, 1, 74, 0
1, 3312, Note_off_c, 1, 50, 0
1, 3321, Note_on_c, 1, 76, 127
1, 3335, Note_on_c, 1, 67, 127
1, 3337, Note_on_c, 1, 48, 127
1, 3346, Note_off_c, 1, 65, 0
1, 3465, Note_off_c, 1, 67, 0
1, 3469, Note_off_c, 1, 48, 0
1, 3523, Note_off_c, 1, 79, 0
1, 3534, Note_off_c, 1, 76, 0
1, 3576, Note_on_c, 1, 67, 127
1, 3580, Note_on_c, 1, 74, 127
1, 3583, Note_on_c, 1, 58, 127
1, 3583, Note_on_c, 1, 77, 127
1, 3669, Note_off_c, 1, 74, 0
1, 3681, Note_off_c, 1, 77, 0
1, 3681, Note_on_c, 1, 72, 127
1, 3684, Note_off_c, 1, 67, 0
1, 3684, Note_off_c, 1, 58, 0
1, 3684, Note_on_c, 1, 76, 127
1, 3757, Note_off_c, 1, 72, 0
1, 3782, Note_off_c, 1, 76, 0
1, 3817, Note_on_c, 1, 69, 127
1, 3822, Note_on_c, 1, 74, 127
1, 3822, Note_on_c, 1, 57, 127
1, 3823, Note_on_c, 1, 77, 127
1, 3904, Note_off_c, 1, 69, 0
1, 3926, Note_off_c, 1, 57, 0
1, 4055, Note_on_c, 1, 70, 127
1, 4066, Note_on_c, 1, 55, 127
1, 4074, Note_off_c, 1, 74, 0
1, 4078, Note_off_c, 1, 77, 0
1, 4132, Note_off_c, 1, 70, 0
1, 4170, Note_off_c, 1, 55, 0
1, 4171, Note_on_c, 1, 76, 127
1, 4173, Note_on_c, 1, 79, 127
1, 4244, Note_off_c, 1, 79, 0
1, 4246, Note_off_c, 1, 76, 0
1, 4289, Note_on_c, 1, 72, 127
1, 4303, Note_on_c, 1, 53, 127
1, 4306, Note_on_c, 1, 77, 127
1, 4306, Note_on_c, 1, 81, 127
1, 4408, Note_off_c, 1, 53, 0
1, 4416, Note_off_c, 1, 72, 0
1, 4497, Note_off_c, 1, 77, 0
1, 4534, Note_on_c, 1, 52, 127
1, 4537, Note_on_c, 1, 60, 127
1, 4541, Note_on_c, 1, 69, 127
1, 4592, Note_off_c, 1, 81, 0
1, 4641, Note_on_c, 1, 79, 127
1, 4647, Note_off_c, 1, 60, 0
1, 4647, Note_off_c, 1, 69, 0
1, 4652, Note_off_c, 1, 52, 0
1, 4716, Note_off_c, 1, 79, 0
1, 4769, Note_on_c, 1, 50, 127
1, 4772, Note_on_c, 1, 71, 127
1, 4778, Note_on_c, 1, 77, 127
1, 4782, Note_on_c, 1, 62, 127
1, 4864, Note_off_c, 1, 71, 0
1, 4880, Note_off_c, 1, 62, 0
1, 4886, Note_off_c, 1, 50, 0
1, 5009, Note_on_c, 1, 47, 127
1, 5012, Note_off_c, 1, 77, 0
1, 5012, Note_on_c, 1, 74, 127
1, 5015, Note_on_c, 1, 55, 127
1, 5022, Note_on_c, 1, 76, 127
1, 5096, Note_off_c, 1, 74, 0
1, 5114, Note_off_c, 1, 55, 0
1, 5117, Note_off_c, 1, 76, 0
1, 5125, Note_off_c, 1, 47, 0
1, 5128, Note_on_c, 1, 74, 127
1, 5220, Note_off_c, 1, 74, 0
1, 5249, Note_on_c, 1, 48, 127
1, 5251, Note_on_c, 1, 67, 127
1, 5263, Note_on_c, 1, 76, 127
1, 5265, Note_on_c, 1, 60, 127
1, 5338, Note_off_c, 1, 67, 0
1, 5355, Note_off_c, 1, 60, 0
1, 5360, Note_off_c, 1, 48, 0
1, 5484, Note_on_c, 1, 41, 127
1, 5495, Note_on_c, 1, 69, 127
1, 5521, Note_off_c, 1, 76, 0
1, 5573, Note_off_c, 1, 69, 0
1, 5595, Note_off_c, 1, 41, 0
1, 5611, Note_on_c, 1, 77, 127
1, 5677, Note_off_c, 1, 77, 0
1, 5730, Note_on_c, 1, 43, 127
1, 5743, Note_on_c, 1, 62, 127
1, 5754, Note_on_c, 1, 67, 127
1, 5756, Note_on_c, 1, 72, 127
1, 5863, Note_on_c, 1, 71, 127
1, 5873, Note_off_c, 1, 43, 0
1, 5898, Note_off_c, 1, 72, 0
1, 5969, Note_on_c, 1, 55, 127
1, 5987, Note_on_c, 1, 69, 127
1, 5998, Note_off_c, 1, 71, 0
1, 6093, Note_off_c, 1, 55, 0
1, 6125, Note_off_c, 1, 69, 0
1, 6197, Note_on_c, 1, 53, 127
1, 6307, Note_off_c, 1, 62, 0
1, 6338, Note_off_c, 1, 53, 0
1, 6350, Note_off_c, 1, 67, 0
1, 6433, Note_on_c, 1, 52, 127
1, 6464, Note_on_c, 1, 60, 127
1, 6564, Note_off_c, 1, 60, 0
1, 6573, Note_on_c, 1, 74, 127
1, 6588, Note_off_c, 1, 52, 0
1, 6638, Note_off_c, 1, 74, 0
1, 6679, Note_on_c, 1, 53, 127
1, 6697, Note_on_c, 1, 60, 127
1, 6697, Note_on_c, 1, 76, 127
1, 6715, Note_on_c, 1, 69, 127
1, 6786, Note_on_c, 1, 74, 127
1, 6799, Note_off_c, 1, 76, 0
1, 6810, Note_off_c, 1, 53, 0
1, 6819, Note_off_c, 1, 60, 0
1, 6821, Note_off_c, 1, 69, 0
1, 6848, Note_off_c, 1, 74, 0
1, 6914, Note_on_c, 1, 55, 127
1, 6936, Note_on_c, 1, 59, 127
1, 6938, Note_on_c, 1, 67, 127
1, 7025, Note_on_c, 1, 72, 127
1, 7033, Note_off_c, 1, 67, 0
1, 7038, Note_off_c, 1, 55, 0
1, 7038, Note_off_c, 1, 59, 0
1, 7140, Note_off_c, 1, 72, 0
1, 7162, Note_on_c, 1, 48, 127
1, 7279, Note_off_c, 1, 48, 0
1, 7407, Note_on_c, 1, 52, 127
1, 7410, Note_on_c, 1, 68, 127
1, 7504, Note_off_c, 1, 52, 0
1, 7520, Note_off_c, 1, 68, 0
1, 7529, Note_on_c, 1, 74, 127
1, 7597, Note_off_c, 1, 74, 0
1, 7644, Note_on_c, 1, 45, 127
1, 7651, Note_on_c, 1, 69, 127
1, 7664, Note_on_c, 1, 72, 127
1, 7669, Note_on_c, 1, 57, 127
1, 7757, Note_off_c, 1, 69, 0
1, 7760, Note_off_c, 1, 57, 0
1, 7780, Note_off_c, 1, 45, 0
1, 7897, Note_off_c, 1, 72, 0
1, 7897, Note_on_c, 1, 66, 127
1, 7899, Note_on_c, 1, 50, 127
1, 7908, Note_on_c, 1, 71, 127
1, 7988, Note_off_c, 1, 66, 0
1, 7996, Note_on_c, 1, 52, 127
1, 7997, Note_off_c, 1, 71, 0
1, 8027, Note_off_c, 1, 50, 0
1, 8112, Note_off_c, 1, 52, 0
1, 8129, Note_on_c, 1, 50, 127
1, 8132, Note_on_c, 1, 67, 127
1, 8145, Note_on_c, 1, 62, 127
1, 8147, Note_on_c, 1, 71, 127
1, 8243, Note_on_c, 1, 48, 127
1, 8255, Note_off_c, 1, 50, 0
1, 8364, Note_on_c, 1, 47, 127
1, 8377, Note_off_c, 1, 48, 0
1, 8401, Note_off_c, 1, 67, 0
1, 8433, Note_off_c, 1, 62, 0
1, 8437, Note_off_c, 1, 71, 0
1, 8470, Note_off_c, 1, 47, 0
1, 8488, Note_on_c, 1, 45, 127
1, 8499, Note_on_c, 1, 60, 127
1, 8502, Note_on_c, 1, 72, 127
1, 8510, Note_on_c, 1, 69, 127
1, 8550, Note_off_c, 1, 72, 0
1, 8576, Note_off_c, 1, 69, 0
1, 8585, Note_off_c, 1, 60, 0
1, 8588, Note_off_c, 1, 45, 0
1, 8618, Note_on_c, 1, 47, 127
1, 8627, Note_on_c, 1, 62, 127
1, 8634, Note_on_c, 1, 67, 127
1, 8635, Note_on_c, 1, 74, 127
1, 8725, Note_off_c, 1, 67, 0
1, 8764, Note_off_c, 1, 47, 0
1, 8769, Note_off_c, 1, 62, 0
1, 8858, Note_on_c, 1, 48, 127
1, 8882, Note_on_c, 1, 60, 127
1, 8946, Note_off_c, 1, 74, 0
1, 8977, Note_on_c, 1, 76, 127
1, 8986, Note_off_c, 1, 48, 0
1, 9070, Note_off_c, 1, 76, 0
1, 9101, Note_on_c, 1, 78, 127
1, 9103, Note_on_c, 1, 45, 127
1, 9109, Note_on_c, 1, 69, 127
1, 9196, Note_off_c, 1, 78, 0
1, 9240, Note_off_c, 1, 69, 0
1, 9254, Note_off_c, 1, 45, 0
1, 9282, Note_off_c, 1, 60, 0
1, 9335, Note_on_c, 1, 43, 127
1, 9339, Note_on_c, 1, 71, 127
1, 9345, Note_on_c, 1, 79, 127
1, 9353, Note_on_c, 1, 62, 127
1, 9422, Note_off_c, 1, 79, 0
1, 9424, Note_off_c, 1, 62, 0
1, 9435, Note_off_c, 1, 71, 0
1, 9460, Note_off_c, 1, 43, 0
1, 9572, Note_on_c, 1, 42, 127
1, 9584, Note_on_c, 1, 69, 127
1, 9592, Note_on_c, 1, 62, 127
1, 9709, Note_off_c, 1, 42, 0
1, 9743, Note_off_c, 1, 62, 0
1, 9805, Note_on_c, 1, 43, 127
1, 9816, Note_on_c, 1, 67, 127
1, 9887, Note_off_c, 1, 69, 0
1, 9913, Note_on_c, 1, 71, 127
1, 9938, Note_off_c, 1, 43, 0
1, 9951, Note_off_c, 1, 67, 0
1, 10007, Note_off_c, 1, 71, 0
1, 10042, Note_on_c, 1, 40, 127
1, 10048, Note_on_c, 1, 67, 127
1, 10050, Note_on_c, 1, 72, 127
1, 10057, Note_on_c, 1, 64, 127
1, 10163, Note_off_c, 1, 64, 0
1, 10181, Note_off_c, 1, 40, 0
1, 10181, Note_off_c, 1, 67, 0
1, 10289, Note_on_c, 1, 69, 127
1, 10296, Note_on_c, 1, 42, 127
1, 10299, Note_on_c, 1, 62, 127
1, 10321, Note_off_c, 1, 72, 0
1, 10393, Note_off_c, 1, 62, 0
1, 10394, Note_off_c, 1, 69, 0
1, 10396, Note_on_c, 1, 74, 127
1, 10402, Note_off_c, 1, 42, 0
1, 10486, Note_off_c, 1, 74, 0
1, 10522, Note_on_c, 1, 67, 127
1, 10535, Note_on_c, 1, 72, 127
1, 10542, Note_on_c, 1, 43, 127
1, 10551, Note_on_c, 1, 62, 127
1, 10657, Note_off_c, 1, 67, 0
1, 10659, Note_on_c, 1, 71, 127
1, 10686, Note_off_c, 1, 43, 0
1, 10703, Note_off_c, 1, 72, 0
1, 10732, Note_off_c, 1, 62, 0
1, 10761, Note_on_c, 1, 64, 127
1, 10777, Note_on_c, 1, 69, 127
1, 10777, Note_on_c, 1, 60, 127
1, 10779, Note_on_c, 1, 48, 127
1, 10790, Note_off_c, 1, 71, 0
1, 10841, Note_off_c, 1, 60, 0
1, 10870, Note_off_c, 1, 64, 0
1, 10883, Note_on_c, 1, 59, 127
1, 10892, Note_off_c, 1, 48, 0
1, 10909, Note_off_c, 1, 69, 0
1, 10959, Note_off_c, 1, 59, 0
1, 11009, Note_on_c, 1, 67, 127
1, 11009, Note_on_c, 1, 50, 127
1, 11018, Note_on_c, 1, 62, 127
1, 11029, Note_on_c, 1, 57, 127
1, 11117, Note_on_c, 1, 66, 127
1, 11126, Note_off_c, 1, 50, 0
1, 11139, Note_off_c, 1, 67, 0
1, 11187, Note_off_c, 1, 66, 0
1, 11248, Note_on_c, 1, 38, 127
1, 11346, Note_off_c, 1, 38, 0
1, 11377, Note_off_c, 1, 62, 0
1, 11432, Note_off_c, 1, 57, 0
1, 11501, Note_on_c, 1, 43, 127
1, 11505, Note_on_c, 1, 62, 127
1, 11507, Note_on_c, 1, 67, 127
1, 11514, Note_on_c, 1, 59, 127
1, 12494, Note_off_c, 1, 59, 0
1, 12524, Note_off_c, 1, 67, 0
1, 12528, Note_off_c, 1, 43, 0
1, 12530, Note_off_c, 1, 62, 0
1, 12807, Note_on_c, 1, 72, 127
1, 12822, Note_on_c, 1, 67, 127
1, 12827, Note_on_c, 1, 48, 127
1, 12829, Note_on_c, 1, 64, 127
1, 12879, Note_off_c, 1, 72, 0
1, 12889, Note_off_c, 1, 67, 0
1, 12893, Note_off_c, 1, 48, 0
1, 12893, Note_off_c, 1, 64, 0
1, 12941, Note_on_c, 1, 67, 127
1, 12941, Note_on_c, 1, 72, 127
1, 12953, Note_on_c, 1, 64, 127
1, 12953, Note_on_c, 1, 48, 127
1, 13054, Note_on_c, 1, 71, 127
1, 13065, Note_on_c, 1, 62, 127
1, 13088, Note_off_c, 1, 72, 0
1, 13098, Note_off_c, 1, 64, 0
1, 13203, Note_off_c, 1, 62, 0
1, 13205, Note_off_c, 1, 71, 0
1, 13262, Note_off_c, 1, 67, 0
1, 13278, Note_on_c, 1, 65, 127
1, 13287, Note_on_c, 1, 74, 127
1, 13409, Note_off_c, 1, 65, 0
1, 13414, Note_on_c, 1, 76, 127
1, 13421, Note_off_c, 1, 74, 0
1, 13535, Note_off_c, 1, 48, 0
1, 13614, Note_off_c, 1, 76, 0
1, 13656, Note_on_c, 1, 60, 127
1, 13743, Note_on_c, 1, 69, 127
1, 13758, Note_on_c, 1, 77, 127
1, 13780, Note_off_c, 1, 60, 0
1, 13816, Note_off_c, 1, 69, 0
1, 13850, Note_off_c, 1, 77, 0
1, 13881, Note_on_c, 1, 67, 127
1, 13885, Note_on_c, 1, 72, 127
1, 13889, Note_on_c, 1, 55, 127
1, 13893, Note_on_c, 1, 76, 127
1, 13933, Note_on_c, 1, 65, 127
1, 13938, Note_on_c, 1, 71, 127
1, 13940, Note_off_c, 1, 67, 0
1, 13947, Note_off_c, 1, 72, 0
1, 13949, Note_on_c, 1, 74, 127
1, 13985, Note_off_c, 1, 76, 0
1, 13988, Note_off_c, 1, 65, 0
1, 13997, Note_off_c, 1, 71, 0
1, 14015, Note_off_c, 1, 55, 0
1, 14031, Note_off_c, 1, 74, 0
1, 14130, Note_on_c, 1, 57, 127
1, 14216, Note_off_c, 1, 57, 0
1, 14247, Note_on_c, 1, 72, 127
1, 14252, Note_on_c, 1, 64, 127
1, 14312, Note_off_c, 1, 64, 0
1, 14337, Note_off_c, 1, 72, 0
1, 14376, Note_on_c, 1, 79, 127
1, 14378, Note_on_c, 1, 72, 127
1, 14380, Note_on_c, 1, 52, 127
1, 14382, Note_on_c, 1, 64, 127
1, 14487, Note_on_c, 1, 53, 127
1, 14493, Note_on_c, 1, 71, 127
1, 14498, Note_off_c, 1, 72, 0
1, 14506, Note_on_c, 1, 62, 127
1, 14507, Note_off_c, 1, 52, 0
1, 14527, Note_off_c, 1, 64, 0
1, 14586, Note_off_c, 1, 53, 0
1, 14617, Note_off_c, 1, 71, 0
1, 14637, Note_off_c, 1, 62, 0
1, 14717, Note_on_c, 1, 65, 127
1, 14717, Note_on_c, 1, 50, 127
1, 14719, Note_on_c, 1, 74, 127
1, 14812, Note_off_c, 1, 50, 0
1, 14817, Note_off_c, 1, 74, 0
1, 14842, Note_on_c, 1, 76, 127
1, 14848, Note_on_c, 1, 48, 127
1, 14850, Note_on_c, 1, 67, 127
1, 14856, Note_off_c, 1, 65, 0
1, 14985, Note_off_c, 1, 48, 0
1, 15000, Note_off_c, 1, 67, 0
1, 15053, Note_off_c, 1, 79, 0
1, 15064, Note_off_c, 1, 76, 0
1, 15093, Note_on_c, 1, 74, 127
1, 15093, Note_on_c, 1, 58, 127
1, 15095, Note_on_c, 1, 67, 127
1, 15103, Note_on_c, 1, 77, 127
1, 15164, Note_off_c, 1, 74, 0
1, 15195, Note_on_c, 1, 72, 127
1, 15200, Note_off_c, 1, 67, 0
1, 15200, Note_on_c, 1, 76, 127
1, 15217, Note_off_c, 1, 58, 0
1, 15224, Note_off_c, 1, 77, 0
1, 15270, Note_off_c, 1, 72, 0
1, 15315, Note_off_c, 1, 76, 0
1, 15323, Note_on_c, 1, 69, 127
1, 15325, Note_on_c, 1, 57, 127
1, 15342, Note_on_c, 1, 74, 127
1, 15348, Note_on_c, 1, 77, 127
1, 15434, Note_off_c, 1, 69, 0
1, 15450, Note_off_c, 1, 57, 0
1, 15563, Note_on_c, 1, 70, 127
1, 15569, Note_on_c, 1, 55, 127
1, 15580, Note_off_c, 1, 74, 0
1, 15616, Note_off_c, 1, 77, 0
1, 15666, Note_off_c, 1, 70, 0
1, 15673, Note_off_c, 1, 55, 0
1, 15688, Note_on_c, 1, 76, 127
1, 15700, Note_on_c, 1, 79, 127
1, 15760, Note_off_c, 1, 76, 0
1, 15785, Note_off_c, 1, 79, 0
1, 15804, Note_on_c, 1, 53, 127
1, 15812, Note_on_c, 1, 72, 127
1, 15815, Note_on_c, 1, 77, 127
1, 15837, Note_on_c, 1, 81, 127
1, 15932, Note_off_c, 1, 72, 0
1, 15936, Note_off_c, 1, 53, 0
1, 15957, Note_off_c, 1, 77, 0
1, 16049, Note_on_c, 1, 52, 127
1, 16050, Note_on_c, 1, 69, 127
1, 16067, Note_on_c, 1, 60, 127
1, 16126, Note_off_c, 1, 81, 0
1, 16169, Note_off_c, 1, 69, 0
1, 16169, Note_off_c, 1, 60, 0
1, 16169, Note_on_c, 1, 79, 127
1, 16193, Note_off_c, 1, 52, 0
1, 16254, Note_off_c, 1, 79, 0
1, 16282, Note_on_c, 1, 50, 127
1, 16291, Note_on_c, 1, 71, 127
1, 16293, Note_on_c, 1, 62, 127
1, 16304, Note_on_c, 1, 77, 127
1, 16389, Note_off_c, 1, 50, 0
1, 16390, Note_off_c, 1, 62, 0
1, 16397, Note_off_c, 1, 71, 0
1, 16521, Note_off_c, 1, 77, 0
1, 16521, Note_on_c, 1, 55, 127
1, 16530, Note_on_c, 1, 47, 127
1, 16534, Note_on_c, 1, 74, 127
1, 16552, Note_on_c, 1, 76, 127
1, 16631, Note_off_c, 1, 55, 0
1, 16638, Note_off_c, 1, 74, 0
1, 16643, Note_off_c, 1, 47, 0
1, 16651, Note_off_c, 1, 76, 0
1, 16655, Note_on_c, 1, 74, 127
1, 16747, Note_off_c, 1, 74, 0
1, 16764, Note_on_c, 1, 67, 127
1, 16771, Note_on_c, 1, 48, 127
1, 16782, Note_on_c, 1, 60, 127
1, 16791, Note_on_c, 1, 76, 127
1, 16864, Note_off_c, 1, 48, 0
1, 16868, Note_off_c, 1, 67, 0
1, 16877, Note_off_c, 1, 60, 0
1, 17012, Note_on_c, 1, 41, 127
1, 17021, Note_on_c, 1, 69, 127
1, 17048, Note_off_c, 1, 76, 0
1, 17099, Note_off_c, 1, 69, 0
1, 17114, Note_off_c, 1, 41, 0
1, 17140, Note_on_c, 1, 77, 127
1, 17223, Note_off_c, 1, 77, 0
1, 17251, Note_on_c, 1, 43, 127
1, 17260, Note_on_c, 1, 62, 127
1, 17265, Note_on_c, 1, 67, 127
1, 17287, Note_on_c, 1, 72, 127
1, 17387, Note_on_c, 1, 71, 127
1, 17413, Note_off_c, 1, 43, 0
1, 17431, Note_off_c, 1, 72, 0
1, 17495, Note_on_c, 1, 55, 127
1, 17502, Note_on_c, 1, 69, 127
1, 17531, Note_off_c, 1, 71, 0
1, 17630, Note_off_c, 1, 55, 0
1, 17653, Note_off_c, 1, 69, 0
1, 17736, Note_on_c, 1, 53, 127
1, 17873, Note_off_c, 1, 53, 0
1, 17880, Note_off_c, 1, 62, 0
1, 17887, Note_off_c, 1, 67, 0
1, 17959, Note_on_c, 1, 52, 127
1, 17984, Note_on_c, 1, 60, 127
1, 18079, Note_off_c, 1, 60, 0
1, 18092, Note_on_c, 1, 74, 127
1, 18094, Note_off_c, 1, 52, 0
1, 18166, Note_off_c, 1, 74, 0
1, 18201, Note_on_c, 1, 69, 127
1, 18211, Note_on_c, 1, 76, 127
1, 18212, Note_on_c, 1, 60, 127
1, 18217, Note_on_c, 1, 53, 127
1, 18304, Note_on_c, 1, 74, 127
1, 18327, Note_off_c, 1, 53, 0
1, 18330, Note_off_c, 1, 76, 0
1, 18330, Note_off_c, 1, 60, 0
1, 18334, Note_off_c, 1, 69, 0
1, 18374, Note_off_c, 1, 74, 0
1, 18436, Note_on_c, 1, 55, 127
1, 18444, Note_on_c, 1, 67, 127
1, 18455, Note_on_c, 1, 59, 127
1, 18535, Note_off_c, 1, 55, 0
1, 18544, Note_on_c, 1, 72, 127
1, 18560, Note_off_c, 1, 59, 0
1, 18562, Note_off_c, 1, 67, 0
1, 18668, Note_off_c, 1, 72, 0
1, 18690, Note_on_c, 1, 48, 127
1, 18805, Note_off_c, 1, 48, 0
1, 18927, Note_on_c, 1, 68, 127
1, 18940, Note_on_c, 1, 52, 127
1, 19036, Note_off_c, 1, 52, 0
1, 19044, Note_off_c, 1, 68, 0
1, 19058, Note_on_c, 1, 74, 127
1, 19120, Note_off_c, 1, 74, 0
1, 19168, Note_on_c, 1, 57, 127
1, 19173, Note_on_c, 1, 69, 127
1, 19177, Note_on_c, 1, 45, 127
1, 19188, Note_on_c, 1, 72, 127
1, 19279, Note_off_c, 1, 69, 0
1, 19286, Note_off_c, 1, 57, 0
1, 19304, Note_off_c, 1, 45, 0
1, 19422, Note_off_c, 1, 72, 0
1, 19423, Note_on_c, 1, 71, 127
1, 19423, Note_on_c, 1, 50, 127
1, 19425, Note_on_c, 1, 66, 127
1, 19511, Note_off_c, 1, 66, 0
1, 19514, Note_off_c, 1, 71, 0
1, 19525, Note_on_c, 1, 52, 127
1, 19556, Note_off_c, 1, 50, 0
1, 19609, Note_off_c, 1, 52, 0
1, 19649, Note_on_c, 1, 50, 127
1, 19655, Note_on_c, 1, 62, 127
1, 19660, Note_on_c, 1, 67, 127
1, 19667, Note_on_c, 1, 71, 127
1, 19755, Note_off_c, 1, 50, 0
1, 19770, Note_on_c, 1, 48, 127
1, 19883, Note_on_c, 1, 47, 127
1, 19888, Note_off_c, 1, 48, 0
1, 19932, Note_off_c, 1, 67, 0
1, 19941, Note_off_c, 1, 62, 0
1, 19959, Note_off_c, 1, 71, 0
1, 19985, Note_off_c, 1, 47, 0
1, 20003, Note_on_c, 1, 45, 127
1, 20016, Note_on_c, 1, 60, 127
1, 20021, Note_on_c, 1, 72, 127
1, 20021, Note_on_c, 1, 69, 127
1, 20083, Note_off_c, 1, 72, 0
1, 20096, Note_off_c, 1, 69, 0
1, 20102, Note_off_c, 1, 45, 0
1, 20109, Note_off_c, 1, 60, 0
1, 20139, Note_on_c, 1, 47, 127
1, 20140, Note_on_c, 1, 62, 127
1, 20147, Note_on_c, 1, 74, 127
1, 20149, Note_on_c, 1, 67, 127
1, 20248, Note_off_c, 1, 67, 0
1, 20280, Note_off_c, 1, 62, 0
1, 20295, Note_off_c, 1, 47, 0
1, 20377, Note_on_c, 1, 48, 127
1, 20392, Note_on_c, 1, 60, 127
1, 20463, Note_off_c, 1, 74, 0
1, 20493, Note_on_c, 1, 76, 127
1, 20494, Note_off_c, 1, 48, 0
1, 20603, Note_off_c, 1, 76, 0
1, 20607, Note_on_c, 1, 69, 127
1, 20610, Note_on_c, 1, 45, 127
1, 20623, Note_on_c, 1, 78, 127
1, 20738, Note_off_c, 1, 78, 0
1, 20751, Note_off_c, 1, 69, 0
1, 20758, Note_off_c, 1, 45, 0
1, 20766, Note_off_c, 1, 60, 0
1, 20851, Note_on_c, 1, 43, 127
1, 20860, Note_on_c, 1, 71, 127
1, 20871, Note_on_c, 1, 79, 127
1, 20879, Note_on_c, 1, 62, 127
1, 20948, Note_off_c, 1, 71, 0
1, 20948, Note_off_c, 1, 79, 0
1, 20952, Note_off_c, 1, 62, 0
1, 20983, Note_off_c, 1, 43, 0
1, 21094, Note_on_c, 1, 69, 127
1, 21103, Note_on_c, 1, 42, 127
1, 21108, Note_on_c, 1, 62, 127
1, 21232, Note_off_c, 1, 42, 0
1, 21243, Note_off_c, 1, 62, 0
1, 21322, Note_on_c, 1, 43, 127
1, 21333, Note_on_c, 1, 67, 127
1, 21419, Note_off_c, 1, 69, 0
1, 21448, Note_off_c, 1, 43, 0
1, 21448, Note_off_c, 1, 67, 0
1, 21460, Note_on_c, 1, 71, 127
1, 21542, Note_off_c, 1, 71, 0
1, 21566, Note_on_c, 1, 40, 127
1, 21574, Note_on_c, 1, 67, 127
1, 21583, Note_on_c, 1, 64, 127
1, 21595, Note_on_c, 1, 72, 127
1, 21687, Note_off_c, 1, 64, 0
1, 21701, Note_off_c, 1, 40, 0
1, 21726, Note_off_c, 1, 67, 0
1, 21811, Note_on_c, 1, 69, 127
1, 21811, Note_on_c, 1, 42, 127
1, 21831, Note_on_c, 1, 62, 127
1, 21839, Note_off_c, 1, 72, 0
1, 21915, Note_off_c, 1, 62, 0
1, 21918, Note_off_c, 1, 42, 0
1, 21918, Note_on_c, 1, 74, 127
1, 21933, Note_off_c, 1, 69, 0
1, 21995, Note_off_c, 1, 74, 0
1, 22055, Note_on_c, 1, 67, 127
1, 22056, Note_on_c, 1, 43, 127
1, 22060, Note_on_c, 1, 72, 127
1, 22064, Note_on_c, 1, 62, 127
1, 22180, Note_on_c, 1, 71, 127
1, 22183, Note_off_c, 1, 67, 0
1, 22192, Note_off_c, 1, 43, 0
1, 22227, Note_off_c, 1, 72, 0
1, 22248, Note_off_c, 1, 62, 0
1, 22283, Note_on_c, 1, 64, 127
1, 22300, Note_on_c, 1, 69, 127
1, 22305, Note_on_c, 1, 60, 127
1, 22307, Note_on_c, 1, 48, 127
1, 22321, Note_off_c, 1, 71, 0
1, 22376, Note_off_c, 1, 64, 0
1, 22389, Note_off_c, 1, 60, 0
1, 22420, Note_off_c, 1, 48, 0
1, 22420, Note_on_c, 1, 59, 127
1, 22427, Note_off_c, 1, 69, 0
1, 22482, Note_off_c, 1, 59, 0
1, 22531, Note_on_c, 1, 50, 127
1, 22533, Note_on_c, 1, 67, 127
1, 22535, Note_on_c, 1, 62, 127
1, 22549, Note_on_c, 1, 59, 127
1, 22630, Note_on_c, 1, 66, 127
1, 22639, Note_off_c, 1, 59, 0
1, 22639, Note_on_c, 1, 57, 127
1, 22657, Note_off_c, 1, 50, 0
1, 22658, Note_off_c, 1, 67, 0
1, 22686, Note_off_c, 1, 57, 0
1, 22704, Note_off_c, 1, 66, 0
1, 22778, Note_on_c, 1, 38, 127
1, 22874, Note_off_c, 1, 38, 0
1, 22894, Note_off_c, 1, 62, 0
1, 23022, Note_on_c, 1, 43, 127
1, 23033, Note_on_c, 1, 62, 127
1, 23038, Note_on_c, 1, 59, 127
1, 23038, Note_on_c, 1, 67, 127
1, 24039, Note_off_c, 1, 67, 0
1, 24040, Note_off_c, 1, 62, 0
1, 24041, Note_off_c, 1, 59, 0
1, 24089, Note_off_c, 1, 43, 0
1, 24321, Note_on_c, 1, 55, 127
1, 24328, Note_on_c, 1, 67, 127
1, 24328, Note_on_c, 1, 74, 127
1, 24355, Note_on_c, 1, 71, 127
1, 24381, Note_off_c, 1, 67, 0
1, 24399, Note_off_c, 1, 55, 0
1, 24401, Note_off_c, 1, 71, 0
1, 24403, Note_off_c, 1, 74, 0
1, 24457, Note_on_c, 1, 67, 127
1, 24460, Note_on_c, 1, 74, 127
1, 24465, Note_on_c, 1, 55, 127
1, 24478, Note_on_c, 1, 71, 127
1, 24574, Note_on_c, 1, 72, 127
1, 24594, Note_on_c, 1, 69, 127
1, 24609, Note_off_c, 1, 71, 0
1, 24613, Note_off_c, 1, 74, 0
1, 24684, Note_off_c, 1, 55, 0
1, 24700, Note_on_c, 1, 53, 127
1, 24708, Note_off_c, 1, 69, 0
1, 24720, Note_off_c, 1, 72, 0
1, 24780, Note_off_c, 1, 53, 0
1, 24793, Note_on_c, 1, 52, 127
1, 24813, Note_on_c, 1, 76, 127
1, 24819, Note_on_c, 1, 73, 127
1, 24841, Note_off_c, 1, 67, 0
1, 24897, Note_off_c, 1, 52, 0
1, 24936, Note_on_c, 1, 50, 127
1, 24937, Note_off_c, 1, 76, 0
1, 24937, Note_off_c, 1, 73, 0
1, 24941, Note_on_c, 1, 77, 127
1, 25148, Note_off_c, 1, 77, 0
1, 25287, Note_on_c, 1, 79, 127
1, 25302, Note_on_c, 1, 70, 127
1, 25357, Note_off_c, 1, 70, 0
1, 25360, Note_off_c, 1, 79, 0
1, 25453, Note_off_c, 1, 50, 0
1, 25520, Note_on_c, 1, 49, 127
1, 25618, Note_off_c, 1, 49, 0
1, 25762, Note_on_c, 1, 52, 127
1, 25767, Note_on_c, 1, 74, 127
1, 25855, Note_off_c, 1, 52, 0
1, 25873, Note_off_c, 1, 74, 0
1, 25897, Note_on_c, 1, 81, 127
1, 25897, Note_on_c, 1, 53, 127
1, 25904, Note_on_c, 1, 74, 127
1, 25908, Note_on_c, 1, 69, 127
1, 26008, Note_on_c, 1, 55, 127
1, 26012, Note_off_c, 1, 53, 0
1, 26079, Note_off_c, 1, 69, 0
1, 26097, Note_off_c, 1, 74, 0
1, 26157, Note_off_c, 1, 55, 0
1, 26234, Note_on_c, 1, 67, 127
1, 26238, Note_on_c, 1, 52, 127
1, 26250, Note_on_c, 1, 73, 127
1, 26323, Note_off_c, 1, 73, 0
1, 26344, Note_off_c, 1, 67, 0
1, 26360, Note_off_c, 1, 52, 0
1, 26371, Note_on_c, 1, 65, 127
1, 26373, Note_on_c, 1, 50, 127
1, 26482, Note_off_c, 1, 65, 0
1, 26509, Note_off_c, 1, 50, 0
1, 26511, Note_off_c, 1, 81, 0
1, 26615, Note_on_c, 1, 60, 127
1, 26624, Note_on_c, 1, 79, 127
1, 26714, Note_off_c, 1, 60, 0
1, 26717, Note_on_c, 1, 77, 127
1, 26738, Note_off_c, 1, 79, 0
1, 26824, Note_off_c, 1, 77, 0
1, 26847, Note_on_c, 1, 62, 127
1, 26860, Note_on_c, 1, 58, 127
1, 26927, Note_off_c, 1, 62, 0
1, 26980, Note_off_c, 1, 58, 0
1, 27097, Note_on_c, 1, 66, 127
1, 27100, Note_on_c, 1, 57, 127
1, 27179, Note_off_c, 1, 66, 0
1, 27197, Note_off_c, 1, 57, 0
1, 27342, Note_on_c, 1, 82, 127
1, 27611, Note_off_c, 1, 82, 0
1, 28054, Note_on_c, 1, 69, 127
1, 28056, Note_on_c, 1, 77, 127
1, 28060, Note_on_c, 1, 49, 127
1, 28140, Note_off_c, 1, 77, 0
1, 28160, Note_on_c, 1, 76, 127
1, 28173, Note_off_c, 1, 69, 0
1, 28189, Note_off_c, 1, 49, 0
1, 28249, Note_off_c, 1, 76, 0
1, 28286, Note_on_c, 1, 77, 127
1, 28286, Note_on_c, 1, 50, 127
1, 28299, Note_on_c, 1, 62, 127
1, 28304, Note_on_c, 1, 69, 127
1, 28388, Note_off_c, 1, 62, 0
1, 28405, Note_off_c, 1, 50, 0
1, 28417, Note_off_c, 1, 69, 0
1, 28540, Note_on_c, 1, 43, 127
1, 28543, Note_on_c, 1, 58, 127
1, 28558, Note_on_c, 1, 67, 127
1, 28572, Note_off_c, 1, 77, 0
1, 28631, Note_off_c, 1, 58, 0
1, 28644, Note_off_c, 1, 67, 0
1, 28647, Note_on_c, 1, 79, 127
1, 28651, Note_off_c, 1, 43, 0
1, 28730, Note_off_c, 1, 79, 0
1, 28780, Note_on_c, 1, 74, 127
1, 28786, Note_on_c, 1, 57, 127
1, 28786, Note_on_c, 1, 45, 127
1, 28789, Note_on_c, 1, 64, 127
1, 28890, Note_on_c, 1, 73, 127
1, 28901, Note_off_c, 1, 45, 0
1, 28922, Note_off_c, 1, 74, 0
1, 28997, Note_on_c, 1, 71, 127
1, 29047, Note_off_c, 1, 73, 0
1, 29116, Note_on_c, 1, 69, 127
1, 29152, Note_off_c, 1, 71, 0
1, 29249, Note_on_c, 1, 55, 127
1, 29276, Note_off_c, 1, 57, 0
1, 29287, Note_off_c, 1, 69, 0
1, 29364, Note_off_c, 1, 55, 0
1, 29422, Note_off_c, 1, 64, 0
1, 29475, Note_on_c, 1, 53, 127
1, 29594, Note_on_c, 1, 76, 127
1, 29618, Note_off_c, 1, 53, 0
1, 29684, Note_off_c, 1, 76, 0
1, 29722, Note_on_c, 1, 77, 127
1, 29731, Note_on_c, 1, 55, 127
1, 29732, Note_on_c, 1, 74, 127
1, 29734, Note_on_c, 1, 70, 127
1, 29798, Note_on_c, 1, 76, 127
1, 29838, Note_off_c, 1, 77, 0
1, 29844, Note_off_c, 1, 70, 0
1, 29861, Note_off_c, 1, 55, 0
1, 29862, Note_off_c, 1, 74, 0
1, 29889, Note_off_c, 1, 76, 0
1, 29966, Note_on_c, 1, 57, 127
1, 29968, Note_on_c, 1, 69, 127
1, 29977, Note_on_c, 1, 73, 127
1, 30041, Note_off_c, 1, 69, 0
1, 30071, Note_off_c, 1, 57, 0
1, 30079, Note_off_c, 1, 73, 0
1, 30207, Note_on_c, 1, 50, 127
1, 30313, Note_off_c, 1, 50, 0
1, 30448, Note_on_c, 1, 53, 127
1, 30470, Note_on_c, 1, 62, 127
1, 30551, Note_off_c, 1, 53, 0
1, 30685, Note_on_c, 1, 47, 127
1, 30767, Note_off_c, 1, 62, 0
1, 30820, Note_off_c, 1, 47, 0
1, 30925, Note_on_c, 1, 68, 127
1, 30929, Note_on_c, 1, 72, 127
1, 30931, Note_on_c, 1, 52, 127
1, 30951, Note_on_c, 1, 64, 127
1, 31024, Note_off_c, 1, 68, 0
1, 31026, Note_on_c, 1, 71, 127
1, 31042, Note_on_c, 1, 53, 127
1, 31046, Note_off_c, 1, 52, 0
1, 31059, Note_off_c, 1, 72, 0
1, 31075, Note_off_c, 1, 64, 0
1, 31117, Note_off_c, 1, 71, 0
1, 31137, Note_off_c, 1, 53, 0
1, 31163, Note_on_c, 1, 52, 127
1, 31166, Note_on_c, 1, 72, 127
1, 31168, Note_on_c, 1, 69, 127
1, 31190, Note_on_c, 1, 65, 127
1, 31234, Note_on_c, 1, 64, 127
1, 31241, Note_off_c, 1, 65, 0
1, 31276, Note_on_c, 1, 50, 127
1, 31285, Note_off_c, 1, 64, 0
1, 31294, Note_off_c, 1, 52, 0
1, 31401, Note_on_c, 1, 48, 127
1, 31409, Note_off_c, 1, 50, 0
1, 31416, Note_off_c, 1, 69, 0
1, 31456, Note_off_c, 1, 72, 0
1, 31518, Note_on_c, 1, 74, 127
1, 31520, Note_on_c, 1, 47, 127
1, 31522, Note_off_c, 1, 48, 0
1, 31525, Note_on_c, 1, 71, 127
1, 31540, Note_on_c, 1, 62, 127
1, 31586, Note_off_c, 1, 74, 0
1, 31598, Note_off_c, 1, 71, 0
1, 31615, Note_off_c, 1, 62, 0
1, 31620, Note_off_c, 1, 47, 0
1, 31642, Note_on_c, 1, 76, 127
1, 31650, Note_on_c, 1, 64, 127
1, 31655, Note_on_c, 1, 48, 127
1, 31662, Note_on_c, 1, 69, 127
1, 31759, Note_off_c, 1, 64, 0
1, 31766, Note_off_c, 1, 48, 0
1, 31801, Note_off_c, 1, 69, 0
1, 31901, Note_on_c, 1, 50, 127
1, 31909, Note_on_c, 1, 62, 127
1, 31928, Note_off_c, 1, 76, 0
1, 31992, Note_on_c, 1, 78, 127
1, 32009, Note_off_c, 1, 50, 0
1, 32087, Note_off_c, 1, 78, 0
1, 32120, Note_on_c, 1, 80, 127
1, 32137, Note_on_c, 1, 47, 127
1, 32140, Note_on_c, 1, 71, 127
1, 32206, Note_off_c, 1, 62, 0
1, 32217, Note_off_c, 1, 80, 0
1, 32246, Note_off_c, 1, 71, 0
1, 32250, Note_off_c, 1, 47, 0
1, 32363, Note_on_c, 1, 45, 127
1, 32366, Note_on_c, 1, 81, 127
1, 32366, Note_on_c, 1, 72, 127
1, 32383, Note_on_c, 1, 64, 127
1, 32452, Note_off_c, 1, 81, 0
1, 32470, Note_off_c, 1, 72, 0
1, 32472, Note_off_c, 1, 64, 0
1, 32500, Note_off_c, 1, 45, 0
1, 32603, Note_on_c, 1, 71, 127
1, 32609, Note_on_c, 1, 44, 127
1, 32625, Note_on_c, 1, 64, 127
1, 32717, Note_off_c, 1, 64, 0
1, 32722, Note_off_c, 1, 44, 0
1, 32855, Note_on_c, 1, 45, 127
1, 32863, Note_on_c, 1, 69, 127
1, 32895, Note_off_c, 1, 71, 0
1, 32943, Note_off_c, 1, 69, 0
1, 32963, Note_on_c, 1, 72, 127
1, 32974, Note_off_c, 1, 45, 0
1, 33046, Note_off_c, 1, 72, 0
1, 33087, Note_on_c, 1, 74, 127
1, 33092, Note_on_c, 1, 42, 127
1, 33100, Note_on_c, 1, 57, 127
1, 33101, Note_on_c, 1, 69, 127
1, 33169, Note_off_c, 1, 69, 0
1, 33202, Note_off_c, 1, 57, 0
1, 33204, Note_off_c, 1, 42, 0
1, 33324, Note_on_c, 1, 44, 127
1, 33337, Note_on_c, 1, 64, 127
1, 33339, Note_on_c, 1, 71, 127
1, 33358, Note_off_c, 1, 74, 0
1, 33433, Note_on_c, 1, 76, 127
1, 33437, Note_off_c, 1, 64, 0
1, 33448, Note_off_c, 1, 44, 0
1, 33525, Note_off_c, 1, 76, 0
1, 33559, Note_on_c, 1, 72, 127
1, 33567, Note_on_c, 1, 45, 127
1, 33694, Note_off_c, 1, 45, 0
1, 33703, Note_off_c, 1, 71, 0
1, 33809, Note_on_c, 1, 65, 127
1, 33816, Note_on_c, 1, 50, 127
1, 33858, Note_off_c, 1, 72, 0
1, 33922, Note_off_c, 1, 50, 0
1, 33942, Note_off_c, 1, 65, 0
1, 34039, Note_on_c, 1, 69, 127
1, 34050, Note_on_c, 1, 52, 127
1, 34055, Note_on_c, 1, 72, 127
1, 34064, Note_on_c, 1, 64, 127
1, 34103, Note_on_c, 1, 71, 127
1, 34141, Note_on_c, 1, 68, 127
1, 34143, Note_off_c, 1, 64, 0
1, 34147, Note_off_c, 1, 69, 0
1, 34148, Note_off_c, 1, 52, 0
1, 34183, Note_off_c, 1, 68, 0
1, 34282, Note_on_c, 1, 40, 127
1, 34283, Note_off_c, 1, 72, 0
1, 34294, Note_on_c, 1, 62, 127
1, 34360, Note_off_c, 1, 62, 0
1, 34384, Note_off_c, 1, 71, 0
1, 34384, Note_off_c, 1, 40, 0
1, 34386, Note_on_c, 1, 69, 127
1, 34386, Note_on_c, 1, 64, 127
1, 34448, Note_off_c, 1, 64, 0
1, 34469, Note_off_c, 1, 69, 0
1, 34526, Note_on_c, 1, 69, 127
1, 34530, Note_on_c, 1, 45, 127
1, 34539, Note_on_c, 1, 64, 127
1, 34561, Note_on_c, 1, 60, 127
1, 34641, Note_on_c, 1, 44, 127
1, 34655, Note_off_c, 1, 45, 0
1, 34759, Note_off_c, 1, 44, 0
1, 34882, Note_on_c, 1, 47, 127
1, 35020, Note_on_c, 1, 48, 127
1, 35026, Note_off_c, 1, 47, 0
1, 35093, Note_off_c, 1, 64, 0
1, 35106, Note_off_c, 1, 60, 0
1, 35108, Note_off_c, 1, 48, 0
1, 35124, Note_on_c, 1, 71, 127
1, 35126, Note_off_c, 1, 69, 0
1, 35132, Note_on_c, 1, 62, 127
1, 35236, Note_on_c, 1, 72, 127
1, 35241, Note_off_c, 1, 62, 0
1, 35257, Note_off_c, 1, 71, 0
1, 35263, Note_on_c, 1, 52, 127
1, 35339, Note_on_c, 1, 59, 127
1, 35352, Note_off_c, 1, 52, 0
1, 35352, Note_on_c, 1, 74, 127
1, 35391, Note_off_c, 1, 72, 0
1, 35423, Note_off_c, 1, 59, 0
1, 35473, Note_on_c, 1, 76, 127
1, 35473, Note_on_c, 1, 57, 127
1, 35485, Note_off_c, 1, 74, 0
1, 35585, Note_on_c, 1, 77, 127
1, 35611, Note_off_c, 1, 76, 0
1, 35690, Note_off_c, 1, 77, 0
1, 35690, Note_on_c, 1, 79, 127
1, 35697, Note_off_c, 1, 57, 0
1, 35732, Note_on_c, 1, 55, 127
1, 35768, Note_off_c, 1, 79, 0
1, 35826, Note_off_c, 1, 55, 0
1, 35841, Note_on_c, 1, 53, 127
1, 35921, Note_off_c, 1, 53, 0
1, 35974, Note_on_c, 1, 67, 127
1, 36065, Note_on_c, 1, 50, 127
1, 36116, Note_off_c, 1, 67, 0
1, 36186, Note_off_c, 1, 50, 0
1, 36437, Note_on_c, 1, 76, 127
1, 36441, Note_on_c, 1, 55, 127
1, 36448, Note_on_c, 1, 67, 127
1, 36459, Note_on_c, 1, 58, 127
1, 36541, Note_off_c, 1, 58, 0
1, 36554, Note_off_c, 1, 67, 0
1, 36565, Note_off_c, 1, 55, 0
1, 36678, Note_off_c, 1, 76, 0
1, 36689, Note_on_c, 1, 48, 127
1, 36690, Note_on_c, 1, 74, 127
1, 36691, Note_on_c, 1, 64, 127
1, 36702, Note_on_c, 1, 55, 127
1, 36788, Note_on_c, 1, 72, 127
1, 36802, Note_off_c, 1, 64, 0
1, 36810, Note_off_c, 1, 48, 0
1, 36811, Note_off_c, 1, 55, 0
1, 36827, Note_off_c, 1, 74, 0
1, 36910, Note_off_c, 1, 72, 0
1, 36930, Note_on_c, 1, 70, 127
1, 36930, Note_on_c, 1, 65, 127
1, 36939, Note_on_c, 1, 50, 127
1, 36951, Note_on_c, 1, 62, 127
1, 37027, Note_off_c, 1, 65, 0
1, 37034, Note_on_c, 1, 69, 127
1, 37039, Note_off_c, 1, 62, 0
1, 37056, Note_off_c, 1, 70, 0
1, 37061, Note_off_c, 1, 50, 0
1, 37180, Note_on_c, 1, 52, 127
1, 37182, Note_on_c, 1, 67, 127
1, 37182, Note_on_c, 1, 60, 127
1, 37183, Note_off_c, 1, 69, 0
1, 37255, Note_off_c, 1, 52, 0
1, 37264, Note_off_c, 1, 67, 0
1, 37271, Note_off_c, 1, 60, 0
1, 37412, Note_on_c, 1, 69, 127
1, 37422, Note_on_c, 1, 65, 127
1, 37428, Note_on_c, 1, 53, 127
1, 37435, Note_on_c, 1, 60, 127
1, 37538, Note_on_c, 1, 52, 127
1, 37559, Note_off_c, 1, 53, 0
1, 37660, Note_off_c, 1, 52, 0
1, 37725, Note_off_c, 1, 69, 0
1, 37764, Note_on_c, 1, 67, 127
1, 37775, Note_on_c, 1, 55, 127
1, 37858, Note_off_c, 1, 67, 0
1, 37889, Note_on_c, 1, 57, 127
1, 37899, Note_off_c, 1, 55, 0
1, 37977, Note_off_c, 1, 60, 0
1, 38002, Note_off_c, 1, 65, 0
1, 38010, Note_on_c, 1, 58, 127
1, 38035, Note_off_c, 1, 57, 0
1, 38132, Note_on_c, 1, 61, 127
1, 38137, Note_on_c, 1, 64, 127
1, 38148, Note_off_c, 1, 58, 0
1, 38229, Note_off_c, 1, 61, 0
1, 38229, Note_off_c, 1, 64, 0
1, 38380, Note_on_c, 1, 74, 127
1, 38389, Note_on_c, 1, 62, 127
1, 38473, Note_off_c, 1, 62, 0
1, 38597, Note_on_c, 1, 50, 127
1, 38659, Note_off_c, 1, 74, 0
1, 38721, Note_on_c, 1, 76, 127
1, 38725, Note_on_c, 1, 49, 127
1, 38730, Note_off_c, 1, 50, 0
1, 38807, Note_off_c, 1, 76, 0
1, 38834, Note_off_c, 1, 49, 0
1, 38848, Note_on_c, 1, 77, 127
1, 38854, Note_on_c, 1, 50, 127
1, 38858, Note_on_c, 1, 69, 127
1, 38880, Note_on_c, 1, 62, 127
1, 38960, Note_off_c, 1, 50, 0
1, 39098, Note_on_c, 1, 52, 127
1, 39118, Note_off_c, 1, 77, 0
1, 39205, Note_off_c, 1, 52, 0
1, 39205, Note_on_c, 1, 79, 127
1, 39295, Note_off_c, 1, 79, 0
1, 39336, Note_on_c, 1, 81, 127
1, 39341, Note_on_c, 1, 53, 127
1, 39350, Note_off_c, 1, 69, 0
1, 39369, Note_off_c, 1, 62, 0
1, 39451, Note_off_c, 1, 53, 0
1, 39499, Note_off_c, 1, 81, 0
1, 39694, Note_on_c, 1, 76, 127
1, 39803, Note_on_c, 1, 74, 127
1, 39819, Note_on_c, 1, 64, 127
1, 39823, Note_on_c, 1, 55, 127
1, 39833, Note_off_c, 1, 76, 0
1, 39905, Note_on_c, 1, 72, 127
1, 39910, Note_off_c, 1, 64, 0
1, 39920, Note_off_c, 1, 55, 0
1, 39944, Note_off_c, 1, 74, 0
1, 40042, Note_on_c, 1, 71, 127
1, 40072, Note_off_c, 1, 72, 0
1, 40075, Note_on_c, 1, 57, 127
1, 40166, Note_off_c, 1, 57, 0
1, 40185, Note_off_c, 1, 71, 0
1, 40264, Note_on_c, 1, 72, 127
1, 40301, Note_on_c, 1, 55, 127
1, 40303, Note_on_c, 1, 62, 127
1, 40328, Note_on_c, 1, 71, 127
1, 40369, Note_off_c, 1, 72, 0
1, 40412, Note_on_c, 1, 54, 127
1, 40416, Note_off_c, 1, 55, 0
1, 40520, Note_off_c, 1, 54, 0
1, 40527, Note_on_c, 1, 43, 127
1, 40636, Note_off_c, 1, 71, 0
1, 40636, Note_on_c, 1, 57, 127
1, 40644, Note_off_c, 1, 43, 0
1, 40687, Note_off_c, 1, 62, 0
1, 40735, Note_off_c, 1, 57, 0
1, 40748, Note_on_c, 1, 74, 127
1, 40768, Note_on_c, 1, 59, 127
1, 40771, Note_on_c, 1, 55, 127
1, 40782, Note_on_c, 1, 67, 127
1, 40864, Note_off_c, 1, 59, 0
1, 40883, Note_off_c, 1, 55, 0
1, 40975, Note_off_c, 1, 74, 0
1, 41005, Note_on_c, 1, 60, 127
1, 41007, Note_on_c, 1, 57, 127
1, 41012, Note_on_c, 1, 72, 127
1, 41081, Note_off_c, 1, 60, 0
1, 41116, Note_on_c, 1, 71, 127
1, 41123, Note_off_c, 1, 57, 0
1, 41132, Note_off_c, 1, 67, 0
1, 41140, Note_off_c, 1, 72, 0
1, 41222, Note_off_c, 1, 71, 0
1, 41244, Note_on_c, 1, 55, 127
1, 41246, Note_on_c, 1, 62, 127
1, 41252, Note_on_c, 1, 69, 127
1, 41264, Note_on_c, 1, 59, 127
1, 41351, Note_on_c, 1, 67, 127
1, 41366, Note_off_c, 1, 55, 0
1, 41379, Note_off_c, 1, 69, 0
1, 41485, Note_on_c, 1, 53, 127
1, 41496, Note_off_c, 1, 67, 0
1, 41548, Note_off_c, 1, 62, 0
1, 41572, Note_off_c, 1, 59, 0
1, 41574, Note_off_c, 1, 53, 0
1, 41592, Note_on_c, 1, 71, 127
1, 41687, Note_off_c, 1, 71, 0
1, 41723, Note_on_c, 1, 52, 127
1, 41733, Note_on_c, 1, 72, 127
1, 41738, Note_on_c, 1, 64, 127
1, 41740, Note_on_c, 1, 71, 127
1, 41745, Note_on_c, 1, 67, 127
1, 41758, Note_off_c, 1, 71, 0
1, 41844, Note_on_c, 1, 62, 127
1, 41846, Note_off_c, 1, 52, 0
1, 41848, Note_off_c, 1, 72, 0
1, 41860, Note_off_c, 1, 64, 0
1, 41966, Note_off_c, 1, 62, 0
1, 41975, Note_on_c, 1, 50, 127
1, 42076, Note_on_c, 1, 65, 127
1, 42078, Note_on_c, 1, 74, 127
1, 42099, Note_off_c, 1, 50, 0
1, 42110, Note_off_c, 1, 67, 0
1, 42181, Note_off_c, 1, 74, 0
1, 42190, Note_off_c, 1, 65, 0
1, 42203, Note_on_c, 1, 76, 127
1, 42203, Note_on_c, 1, 67, 127
1, 42209, Note_on_c, 1, 48, 127
1, 42220, Note_on_c, 1, 72, 127
1, 42359, Note_off_c, 1, 48, 0
1, 42400, Note_off_c, 1, 67, 0
1, 42420, Note_off_c, 1, 76, 0
1, 42437, Note_on_c, 1, 60, 127
1, 42517, Note_off_c, 1, 72, 0
1, 42544, Note_on_c, 1, 69, 127
1, 42548, Note_off_c, 1, 60, 0
1, 42550, Note_on_c, 1, 77, 127
1, 42623, Note_off_c, 1, 69, 0
1, 42625, Note_off_c, 1, 77, 0
1, 42677, Note_on_c, 1, 67, 127
1, 42682, Note_on_c, 1, 72, 127
1, 42685, Note_on_c, 1, 55, 127
1, 42687, Note_on_c, 1, 76, 127
1, 42728, Note_on_c, 1, 71, 127
1, 42730, Note_off_c, 1, 72, 0
1, 42734, Note_on_c, 1, 74, 127
1, 42738, Note_on_c, 1, 65, 127
1, 42750, Note_off_c, 1, 67, 0
1, 42752, Note_off_c, 1, 76, 0
1, 42776, Note_off_c, 1, 65, 0
1, 42791, Note_off_c, 1, 71, 0
1, 42794, Note_off_c, 1, 55, 0
1, 42935, Note_on_c, 1, 57, 127
1, 42947, Note_off_c, 1, 74, 0
1, 43006, Note_off_c, 1, 57, 0
1, 43031, Note_on_c, 1, 72, 127
1, 43053, Note_on_c, 1, 64, 127
1, 43117, Note_off_c, 1, 64, 0
1, 43146, Note_off_c, 1, 72, 0
1, 43166, Note_on_c, 1, 52, 127
1, 43170, Note_on_c, 1, 64, 127
1, 43172, Note_on_c, 1, 72, 127
1, 43181, Note_on_c, 1, 79, 127
1, 43270, Note_off_c, 1, 72, 0
1, 43278, Note_on_c, 1, 71, 127
1, 43283, Note_on_c, 1, 50, 127
1, 43285, Note_on_c, 1, 65, 127
1, 43292, Note_off_c, 1, 64, 0
1, 43318, Note_off_c, 1, 52, 0
1, 43398, Note_off_c, 1, 71, 0
1, 43402, Note_off_c, 1, 50, 0
1, 43422, Note_off_c, 1, 65, 0
1, 43502, Note_on_c, 1, 74, 127
1, 43518, Note_on_c, 1, 53, 127
1, 43522, Note_on_c, 1, 62, 127
1, 43591, Note_off_c, 1, 62, 0
1, 43600, Note_off_c, 1, 74, 0
1, 43624, Note_off_c, 1, 53, 0
1, 43633, Note_on_c, 1, 76, 127
1, 43644, Note_on_c, 1, 55, 127
1, 43659, Note_on_c, 1, 60, 127
1, 43761, Note_on_c, 1, 57, 127
1, 43768, Note_off_c, 1, 55, 0
1, 43772, Note_off_c, 1, 60, 0
1, 43817, Note_off_c, 1, 79, 0
1, 43862, Note_off_c, 1, 76, 0
1, 43872, Note_off_c, 1, 57, 0
1, 43883, Note_on_c, 1, 58, 127
1, 43892, Note_on_c, 1, 67, 127
1, 43896, Note_on_c, 1, 77, 127
1, 43898, Note_on_c, 1, 74, 127
1, 43956, Note_off_c, 1, 74, 0
1, 43993, Note_on_c, 1, 76, 127
1, 43998, Note_on_c, 1, 72, 127
1, 44000, Note_off_c, 1, 67, 0
1, 44009, Note_off_c, 1, 58, 0
1, 44017, Note_off_c, 1, 77, 0
1, 44100, Note_off_c, 1, 72, 0
1, 44110, Note_off_c, 1, 76, 0
1, 44120, Note_on_c, 1, 69, 127
1, 44126, Note_on_c, 1, 77, 127
1, 44129, Note_on_c, 1, 57, 127
1, 44140, Note_on_c, 1, 74, 127
1, 44244, Note_off_c, 1, 69, 0
1, 44262, Note_off_c, 1, 57, 0
1, 44374, Note_on_c, 1, 70, 127
1, 44380, Note_off_c, 1, 77, 0
1, 44383, Note_on_c, 1, 55, 127
1, 44394, Note_off_c, 1, 74, 0
1, 44469, Note_off_c, 1, 70, 0
1, 44476, Note_on_c, 1, 79, 127
1, 44485, Note_on_c, 1, 76, 127
1, 44500, Note_off_c, 1, 55, 0
1, 44565, Note_off_c, 1, 79, 0
1, 44584, Note_off_c, 1, 76, 0
1, 44605, Note_on_c, 1, 81, 127
1, 44611, Note_on_c, 1, 72, 127
1, 44622, Note_on_c, 1, 77, 127
1, 44624, Note_on_c, 1, 53, 127
1, 44708, Note_off_c, 1, 72, 0
1, 44709, Note_off_c, 1, 77, 0
1, 44746, Note_off_c, 1, 53, 0
1, 44850, Note_on_c, 1, 60, 127
1, 44855, Note_on_c, 1, 69, 127
1, 44855, Note_on_c, 1, 52, 127
1, 44895, Note_off_c, 1, 81, 0
1, 44943, Note_off_c, 1, 60, 0
1, 44952, Note_on_c, 1, 79, 127
1, 44967, Note_off_c, 1, 52, 0
1, 45045, Note_off_c, 1, 79, 0
1, 45089, Note_on_c, 1, 62, 127
1, 45103, Note_on_c, 1, 50, 127
1, 45218, Note_off_c, 1, 50, 0
1, 45242, Note_off_c, 1, 69, 0
1, 45339, Note_on_c, 1, 76, 127
1, 45340, Note_on_c, 1, 71, 127
1, 45350, Note_on_c, 1, 55, 127
1, 45423, Note_off_c, 1, 62, 0
1, 45426, Note_off_c, 1, 71, 0
1, 45437, Note_on_c, 1, 74, 127
1, 45440, Note_off_c, 1, 76, 0
1, 45454, Note_on_c, 1, 57, 127
1, 45475, Note_off_c, 1, 55, 0
1, 45537, Note_off_c, 1, 74, 0
1, 45567, Note_on_c, 1, 67, 127
1, 45593, Note_off_c, 1, 57, 0
1, 45669, Note_off_c, 1, 67, 0
1, 45820, Note_on_c, 1, 65, 127
1, 45939, Note_off_c, 1, 65, 0
1, 46030, Note_on_c, 1, 52, 127
1, 46039, Note_on_c, 1, 79, 127
1, 46041, Note_on_c, 1, 64, 127
1, 46070, Note_on_c, 1, 72, 127
1, 46138, Note_on_c, 1, 71, 127
1, 46143, Note_off_c, 1, 72, 0
1, 46150, Note_off_c, 1, 64, 0
1, 46161, Note_off_c, 1, 52, 0
1, 46196, Note_off_c, 1, 71, 0
1, 46280, Note_on_c, 1, 62, 127
1, 46280, Note_on_c, 1, 55, 127
1, 46328, Note_off_c, 1, 79, 0
1, 46380, Note_off_c, 1, 62, 0
1, 46382, Note_off_c, 1, 55, 0
1, 46398, Note_on_c, 1, 77, 127
1, 46473, Note_off_c, 1, 77, 0
1, 46506, Note_on_c, 1, 72, 127
1, 46515, Note_on_c, 1, 60, 127
1, 46529, Note_on_c, 1, 76, 127
1, 46637, Note_on_c, 1, 74, 127
1, 46641, Note_on_c, 1, 59, 127
1, 46656, Note_off_c, 1, 76, 0
1, 46672, Note_off_c, 1, 72, 0
1, 46694, Note_off_c, 1, 60, 0
1, 46752, Note_off_c, 1, 74, 0
1, 46756, Note_on_c, 1, 57, 127
1, 46760, Note_on_c, 1, 64, 127
1, 46792, Note_off_c, 1, 59, 0
1, 46847, Note_off_c, 1, 64, 0
1, 46873, Note_on_c, 1, 55, 127
1, 46929, Note_off_c, 1, 57, 0
1, 46993, Note_on_c, 1, 53, 127
1, 47008, Note_off_c, 1, 55, 0
1, 47010, Note_on_c, 1, 71, 127
1, 47013, Note_on_c, 1, 65, 127
1, 47079, Note_on_c, 1, 69, 127
1, 47086, Note_off_c, 1, 71, 0
1, 47093, Note_on_c, 1, 52, 127
1, 47121, Note_off_c, 1, 53, 0
1, 47133, Note_off_c, 1, 69, 0
1, 47223, Note_on_c, 1, 50, 127
1, 47237, Note_off_c, 1, 52, 0
1, 47267, Note_off_c, 1, 65, 0
1, 47344, Note_on_c, 1, 48, 127
1, 47352, Note_off_c, 1, 50, 0
1, 47465, Note_off_c, 1, 48, 0
1, 47489, Note_on_c, 1, 77, 127
1, 47491, Note_on_c, 1, 69, 127
1, 47491, Note_on_c, 1, 50, 127
1, 47502, Note_on_c, 1, 62, 127
1, 47615, Note_off_c, 1, 50, 0
1, 47619, Note_on_c, 1, 67, 127
1, 47646, Note_off_c, 1, 69, 0
1, 47659, Note_off_c, 1, 62, 0
1, 47719, Note_off_c, 1, 67, 0
1, 47737, Note_on_c, 1, 60, 127
1, 47739, Note_on_c, 1, 65, 127
1, 47750, Note_on_c, 1, 57, 127
1, 47774, Note_off_c, 1, 77, 0
1, 47814, Note_off_c, 1, 60, 0
1, 47838, Note_on_c, 1, 59, 127
1, 47845, Note_on_c, 1, 76, 127
1, 47863, Note_on_c, 1, 55, 127
1, 47890, Note_off_c, 1, 57, 0
1, 47907, Note_off_c, 1, 65, 0
1, 47916, Note_off_c, 1, 59, 0
1, 47923, Note_off_c, 1, 76, 0
1, 47972, Note_on_c, 1, 53, 127
1, 47974, Note_on_c, 1, 74, 127
1, 48011, Note_off_c, 1, 55, 0
1, 48089, Note_on_c, 1, 72, 127
1, 48090, Note_on_c, 1, 52, 127
1, 48128, Note_off_c, 1, 74, 0
1, 48138, Note_off_c, 1, 53, 0
1, 48197, Note_on_c, 1, 71, 127
1, 48211, Note_off_c, 1, 72, 0
1, 48233, Note_off_c, 1, 52, 0
1, 48310, Note_on_c, 1, 48, 127
1, 48315, Note_on_c, 1, 64, 127
1, 48349, Note_off_c, 1, 71, 0
1, 48430, Note_on_c, 1, 47, 127
1, 48432, Note_off_c, 1, 64, 0
1, 48483, Note_off_c, 1, 48, 0
1, 48545, Note_on_c, 1, 45, 127
1, 48589, Note_off_c, 1, 47, 0
1, 48662, Note_on_c, 1, 43, 127
1, 48708, Note_off_c, 1, 45, 0
1, 48788, Note_on_c, 1, 41, 127
1, 48846, Note_off_c, 1, 43, 0
1, 48864, Note_off_c, 1, 41, 0
1, 48919, Note_on_c, 1, 53, 127
1, 48921, Note_on_c, 1, 67, 127
1, 48959, Note_on_c, 1, 59, 127
1, 48972, Note_on_c, 1, 62, 127
1, 49253, Note_off_c, 1, 67, 0
1, 49299, Note_on_c, 1, 69, 127
1, 49406, Note_on_c, 1, 71, 127
1, 49435, Note_off_c, 1, 69, 0
1, 49454, Note_off_c, 1, 59, 0
1, 49475, Note_off_c, 1, 62, 0
1, 49521, Note_off_c, 1, 53, 0
1, 49531, Note_on_c, 1, 72, 127
1, 49534, Note_off_c, 1, 71, 0
1, 49655, Note_on_c, 1, 74, 127
1, 49662, Note_on_c, 1, 55, 127
1, 49662, Note_on_c, 1, 47, 127
1, 49672, Note_off_c, 1, 72, 0
1, 49758, Note_off_c, 1, 55, 0
1, 49762, Note_off_c, 1, 47, 0
1, 49773, Note_on_c, 1, 76, 127
1, 49776, Note_off_c, 1, 74, 0
1, 49862, Note_off_c, 1, 76, 0
1, 49890, Note_on_c, 1, 77, 127
1, 49891, Note_on_c, 1, 71, 127
1, 49904, Note_on_c, 1, 43, 127
1, 49906, Note_on_c, 1, 62, 127
1, 49988, Note_off_c, 1, 71, 0
1, 49992, Note_off_c, 1, 62, 0
1, 49999, Note_on_c, 1, 74, 127
1, 50004, Note_off_c, 1, 77, 0
1, 50014, Note_off_c, 1, 43, 0
1, 50099, Note_off_c, 1, 74, 0
1, 50125, Note_on_c, 1, 79, 127
1, 50125, Note_on_c, 1, 74, 127
1, 50132, Note_on_c, 1, 59, 127
1, 50145, Note_on_c, 1, 47, 127
1, 50216, Note_off_c, 1, 59, 0
1, 50221, Note_off_c, 1, 74, 0
1, 50260, Note_off_c, 1, 47, 0
1, 50261, Note_off_c, 1, 79, 0
1, 50364, Note_on_c, 1, 55, 127
1, 50366, Note_on_c, 1, 76, 127
1, 50366, Note_on_c, 1, 48, 127
1, 50367, Note_on_c, 1, 72, 127
1, 50488, Note_off_c, 1, 48, 0
1, 50532, Note_off_c, 1, 55, 0
1, 50615, Note_on_c, 1, 67, 127
1, 50619, Note_on_c, 1, 43, 127
1, 50625, Note_off_c, 1, 72, 0
1, 50662, Note_off_c, 1, 76, 0
1, 50714, Note_on_c, 1, 71, 127
1, 50719, Note_on_c, 1, 65, 127
1, 50721, Note_on_c, 1, 74, 127
1, 50727, Note_off_c, 1, 67, 0
1, 50732, Note_off_c, 1, 43, 0
1, 50815, Note_off_c, 1, 71, 0
1, 50816, Note_off_c, 1, 74, 0
1, 50817, Note_off_c, 1, 65, 0
1, 50847, Note_on_c, 1, 72, 127
1, 50864, Note_on_c, 1, 45, 127
1, 50865, Note_on_c, 1, 64, 127
1, 50964, Note_on_c, 1, 71, 127
1, 50968, Note_off_c, 1, 45, 0
1, 50975, Note_off_c, 1, 72, 0
1, 50984, Note_off_c, 1, 64, 0
1, 51064, Note_off_c, 1, 71, 0
1, 51084, Note_on_c, 1, 72, 127
1, 51093, Note_on_c, 1, 69, 127
1, 51104, Note_on_c, 1, 41, 127
1, 51123, Note_on_c, 1, 62, 127
1, 51192, Note_off_c, 1, 69, 0
1, 51194, Note_off_c, 1, 41, 0
1, 51215, Note_off_c, 1, 72, 0
1, 51223, Note_off_c, 1, 62, 0
1, 51316, Note_on_c, 1, 69, 127
1, 51321, Note_on_c, 1, 72, 127
1, 51345, Note_on_c, 1, 64, 127
1, 51345, Note_on_c, 1, 43, 127
1, 51409, Note_on_c, 1, 67, 127
1, 51409, Note_on_c, 1, 62, 127
1, 51411, Note_off_c, 1, 64, 0
1, 51416, Note_off_c, 1, 69, 0
1, 51424, Note_on_c, 1, 71, 127
1, 51450, Note_off_c, 1, 72, 0
1, 51462, Note_off_c, 1, 67, 0
1, 51467, Note_off_c, 1, 62, 0
1, 51493, Note_off_c, 1, 71, 0
1, 51692, Note_off_c, 1, 43, 0
1, 51824, Note_on_c, 1, 72, 127
1, 51833, Note_on_c, 1, 67, 127
1, 51838, Note_on_c, 1, 36, 127
1, 51847, Note_on_c, 1, 64, 127
1, 52773, Note_off_c, 1, 64, 0
1, 52820, Note_off_c, 1, 72, 0
1, 52823, Note_off_c, 1, 67, 0
1, 52823, Note_off_c, 1, 36, 0
1, 53121, Note_on_c, 1, 55, 127
1, 53128, Note_on_c, 1, 67, 127
1, 53128, Note_on_c, 1, 74, 127
1, 53155, Note_on_c, 1, 71, 127
1, 53181, Note_off_c, 1, 67, 0
1, 53199, Note_off_c, 1, 55, 0
1, 53201, Note_off_c, 1, 71, 0
1, 53203, Note_off_c, 1, 74, 0
1, 53257, Note_on_c, 1, 67, 127
1, 53260, Note_on_c, 1, 74, 127
1, 53265, Note_on_c, 1, 55, 127
1, 53278, Note_on_c, 1, 71, 127
1, 53374, Note_on_c, 1, 72, 127
1, 53394, Note_on_c, 1, 69, 127
1, 53409, Note_off_c, 1, 71, 0
1, 53413, Note_off_c, 1, 74, 0
1, 53484, Note_off_c, 1, 55, 0
1, 53500, Note_on_c, 1, 53, 127
1, 53508, Note_off_c, 1, 69, 0
1, 53520, Note_off_c, 1, 72, 0
1, 53580, Note_off_c, 1, 53, 0
1, 53593, Note_on_c, 1, 52, 127
1, 53613, Note_on_c, 1, 76, 127
1, 53619, Note_on_c, 1, 73, 127
1, 53641, Note_off_c, 1, 67, 0
1, 53697, Note_off_c, 1, 52, 0
1, 53736, Note_on_c, 1, 50, 127
1, 53737, Note_off_c, 1, 76, 0
1, 53737, Note_off_c, 1, 73, 0
1, 53741, Note_on_c, 1, 77, 127
1, 53948, Note_off_c, 1, 77, 0
1, 54087, Note_on_c, 1, 79, 127
1, 54102, Note_on_c, 1, 70, 127
1, 54157, Note_off_c, 1, 70, 0
1, 54160, Note_off_c, 1, 79, 0
1, 54253, Note_off_c, 1, 50, 0
1, 54320, Note_on_c, 1, 49, 127
1, 54418, Note_off_c, 1, 49, 0
1, 54562, Note_on_c, 1, 52, 127
1, 54567, Note_on_c, 1, 74, 127
1, 54655, Note_off_c, 1, 52, 0
1, 54673, Note_off_c, 1, 74, 0
1, 54697, Note_on_c, 1, 81, 127
1, 54697, Note_on_c, 1, 53, 127
1, 54704, Note_on_c, 1, 74, 127
1, 54708, Note_on_c, 1, 69, 127
1, 54808, Note_on_c, 1, 55, 127
1, 54812, Note_off_c, 1, 53, 0
1, 54879, Note_off_c, 1, 69, 0
1, 54897, Note_off_c, 1, 74, 0
1, 54957, Note_off_c, 1, 55, 0
1, 55034, Note_on_c, 1, 67, 127
1, 55038, Note_on_c, 1, 52, 127
1, 55050, Note_on_c, 1, 73, 127
1, 55123, Note_off_c, 1, 73, 0
1, 55144, Note_off_c, 1, 67, 0
1, 55160, Note_off_c, 1, 52, 0
1, 55171, Note_on_c, 1, 65, 127
1, 55173, Note_on_c, 1, 50, 127
1, 55282, Note_off_c, 1, 65, 0
1, 55309, Note_off_c, 1, 50, 0
1, 55311, Note_off_c, 1, 81, 0
1, 55415, Note_on_c, 1, 60, 127
1, 55424, Note_on_c, 1, 79, 127
1, 55514, Note_off_c, 1, 60, 0
1, 55517, Note_on_c, 1, 77, 127
1, 55538, Note_off_c, 1, 79, 0
1, 55624, Note_off_c, 1, 77, 0
1, 55647, Note_on_c, 1, 62, 127
1, 55660, Note_on_c, 1, 58, 127
1, 55727, Note_off_c, 1, 62, 0
1, 55780, Note_off_c, 1, 58, 0
1, 55897, Note_on_c, 1, 66, 127
1, 55900, Note_on_c, 1, 57, 127
1, 55979, Note_off_c, 1, 66, 0
1, 55997, Note_off_c, 1, 57, 0
1, 56142, Note_on_c, 1, 82, 127
1, 56411, Note_off_c, 1, 82, 0
1, 56854, Note_on_c, 1, 69, 127
1, 56856, Note_on_c, 1, 77, 127
1, 56860, Note_on_c, 1, 49, 127
1, 56940, Note_off_c, 1, 77, 0
1, 56960, Note_on_c, 1, 76, 127
1, 56973, Note_off_c, 1, 69, 0
1, 56989, Note_off_c, 1, 49, 0
1, 57049, Note_off_c, 1, 76, 0
1, 57086, Note_on_c, 1, 77, 127
1, 57086, Note_on_c, 1, 50, 127
1, 57099, Note_on_c, 1, 62, 127
1, 57104, Note_on_c, 1, 69, 127
1, 57188, Note_off_c, 1, 62, 0
1, 57205, Note_off_c, 1, 50, 0
1, 57217, Note_off_c, 1, 69, 0
1, 57340, Note_on_c, 1, 43, 127
1, 57343, Note_on_c, 1, 58, 127
1, 57358, Note_on_c, 1, 67, 127
1, 57372, Note_off_c, 1, 77, 0
1, 57431, Note_off_c, 1, 58, 0
1, 57444, Note_off_c, 1, 67, 0
1, 57447, Note_on_c, 1, 79, 127
1, 57451, Note_off_c, 1, 43, 0
1, 57530, Note_off_c, 1, 79, 0
1, 57580, Note_on_c, 1, 74, 127
1, 57586, Note_on_c, 1, 57, 127
1, 57586, Note_on_c, 1, 45, 127
1, 57589, Note_on_c, 1, 64, 127
1, 57690, Note_on_c, 1, 73, 127
1, 57701, Note_off_c, 1, 45, 0
1, 57722, Note_off_c, 1, 74, 0
1, 57797, Note_on_c, 1, 71, 127
1, 57847, Note_off_c, 1, 73, 0
1, 57916, Note_on_c, 1, 69, 127
1, 57952, Note_off_c, 1, 71, 0
1, 58049, Note_on_c, 1, 55, 127
1, 58076, Note_off_c, 1, 57, 0
1, 58087, Note_off_c, 1, 69, 0
1, 58164, Note_off_c, 1, 55, 0
1, 58222, Note_off_c, 1, 64, 0
1, 58275, Note_on_c, 1, 53, 127
1, 58394, Note_on_c, 1, 76, 127
1, 58418, Note_off_c, 1, 53, 0
1, 58484, Note_off_c, 1, 76, 0
1, 58522, Note_on_c, 1, 77, 127
1, 58531, Note_on_c, 1, 55, 127
1, 58532, Note_on_c, 1, 74, 127
1, 58534, Note_on_c, 1, 70, 127
1, 58598, Note_on_c, 1, 76, 127
1, 58638, Note_off_c, 1, 77, 0
1, 58644, Note_off_c, 1, 70, 0
1, 58661, Note_off_c, 1, 55, 0
1, 58662, Note_off_c, 1, 74, 0
1, 58689, Note_off_c, 1, 76, 0
1, 58766, Note_on_c, 1, 57, 127
1, 58768, Note_on_c, 1, 69, 127
1, 58777, Note_on_c, 1, 73, 127
1, 58841, Note_off_c, 1, 69, 0
1, 58871, Note_off_c, 1, 57, 0
1, 58879, Note_off_c, 1, 73, 0
1, 59007, Note_on_c, 1, 50, 127
1, 59113, Note_off_c, 1, 50, 0
1, 59248, Note_on_c, 1, 53, 127
1, 59270, Note_on_c, 1, 62, 127
1, 59351, Note_off_c, 1, 53, 0
1, 59485, Note_on_c, 1, 47, 127
1, 59567, Note_off_c, 1, 62, 0
1, 59620, Note_off_c, 1, 47, 0
1, 59725, Note_on_c, 1, 68, 127
1, 59729, Note_on_c, 1, 72, 127
1, 59731, Note_on_c, 1, 52, 127
1, 59751, Note_on_c, 1, 64, 127
1, 59824, Note_off_c, 1, 68, 0
1, 59826, Note_on_c, 1, 71, 127
1, 59842, Note_on_c, 1, 53, 127
1, 59846, Note_off_c, 1, 52, 0
1, 59859, Note_off_c, 1, 72, 0
1, 59875, Note_off_c, 1, 64, 0
1, 59917, Note_off_c, 1, 71, 0
1, 59937, Note_off_c, 1, 53, 0
1, 59963, Note_on_c, 1, 52, 127
1, 59966, Note_on_c, 1, 72, 127
1, 59968, Note_on_c, 1, 69, 127
1, 59990, Note_on_c, 1, 65, 127
1, 60034, Note_on_c, 1, 64, 127
1, 60041, Note_off_c, 1, 65, 0
1, 60076, Note_on_c, 1, 50, 127
1, 60085, Note_off_c, 1, 64, 0
1, 60094, Note_off_c, 1, 52, 0
1, 60201, Note_on_c, 1, 48, 127
1, 60209, Note_off_c, 1, 50, 0
1, 60216, Note_off_c, 1, 69, 0
1, 60256, Note_off_c, 1, 72, 0
1, 60318, Note_on_c, 1, 74, 127
1, 60320, Note_on_c, 1, 47, 127
1, 60322, Note_off_c, 1, 48, 0
1, 60325, Note_on_c, 1, 71, 127
1, 60340, Note_on_c, 1, 62, 127
1, 60386, Note_off_c, 1, 74, 0
1, 60398, Note_off_c, 1, 71, 0
1, 60415, Note_off_c, 1, 62, 0
1, 60420, Note_off_c, 1, 47, 0
1, 60442, Note_on_c, 1, 76, 127
1, 60450, Note_on_c, 1, 64, 127
1, 60455, Note_on_c, 1, 48, 127
1, 60462, Note_on_c, 1, 69, 127
1, 60559, Note_off_c, 1, 64, 0
1, 60566, Note_off_c, 1, 48, 0
1, 60601, Note_off_c, 1, 69, 0
1, 60701, Note_on_c, 1, 50, 127
1, 60709, Note_on_c, 1, 62, 127
1, 60728, Note_off_c, 1, 76, 0
1, 60792, Note_on_c, 1, 78, 127
1, 60809, Note_off_c, 1, 50, 0
1, 60887, Note_off_c, 1, 78, 0
1, 60920, Note_on_c, 1, 80, 127
1, 60937, Note_on_c, 1, 47, 127
1, 60940, Note_on_c, 1, 71, 127
1, 61006, Note_off_c, 1, 62, 0
1, 61017, Note_off_c, 1, 80, 0
1, 61046, Note_off_c, 1, 71, 0
1, 61050, Note_off_c, 1, 47, 0
1, 61163, Note_on_c, 1, 45, 127
1, 61166, Note_on_c, 1, 81, 127
1, 61166, Note_on_c, 1, 72, 127
1, 61183, Note_on_c, 1, 64, 127
1, 61252, Note_off_c, 1, 81, 0
1, 61270, Note_off_c, 1, 72, 0
1, 61272, Note_off_c, 1, 64, 0
1, 61300, Note_off_c, 1, 45, 0
1, 61403, Note_on_c, 1, 71, 127
1, 61409, Note_on_c, 1, 44, 127
1, 61425, Note_on_c, 1, 64, 127
1, 61517, Note_off_c, 1, 64, 0
1, 61522, Note_off_c, 1, 44, 0
1, 61655, Note_on_c, 1, 45, 127
1, 61663, Note_on_c, 1, 69, 127
1, 61695, Note_off_c, 1, 71, 0
1, 61743, Note_off_c, 1, 69, 0
1, 61763, Note_on_c, 1, 72, 127
1, 61774, Note_off_c, 1, 45, 0
1, 61846, Note_off_c, 1, 72, 0
1, 61887, Note_on_c, 1, 74, 127
1, 61892, Note_on_c, 1, 42, 127
1, 61900, Note_on_c, 1, 57, 127
1, 61901, Note_on_c, 1, 69, 127
1, 61969, Note_off_c, 1, 69, 0
1, 62002, Note_off_c, 1, 57, 0
1, 62004, Note_off_c, 1, 42, 0
1, 62124, Note_on_c, 1, 44, 127
1, 62137, Note_on_c, 1, 64, 127
1, 62139, Note_on_c, 1, 71, 127
1, 62158, Note_off_c, 1, 74, 0
1, 62233, Note_on_c, 1, 76, 127
1, 62237, Note_off_c, 1, 64, 0
1, 62248, Note_off_c, 1, 44, 0
1, 62325, Note_off_c, 1, 76, 0
1, 62359, Note_on_c, 1, 72, 127
1, 62367, Note_on_c, 1, 45, 127
1, 62494, Note_off_c, 1, 45, 0
1, 62503, Note_off_c, 1, 71, 0
1, 62609, Note_on_c, 1, 65, 127
1, 62616, Note_on_c, 1, 50, 127
1, 62658, Note_off_c, 1, 72, 0
1, 62722, Note_off_c, 1, 50, 0
1, 62742, Note_off_c, 1, 65, 0
1, 62839, Note_on_c, 1, 69, 127
1, 62850, Note_on_c, 1, 52, 127
1, 62855, Note_on_c, 1, 72, 127
1, 62864, Note_on_c, 1, 64, 127
1, 62903, Note_on_c, 1, 71, 127
1, 62941, Note_on_c, 1, 68, 127
1, 62943, Note_off_c, 1, 64, 0
1, 62947, Note_off_c, 1, 69, 0
1, 62948, Note_off_c, 1, 52, 0
1, 62983, Note_off_c, 1, 68, 0
1, 63082, Note_on_c, 1, 40, 127
1, 63083, Note_off_c, 1, 72, 0
1, 63094, Note_on_c, 1, 62, 127
1, 63160, Note_off_c, 1, 62, 0
1, 63184, Note_off_c, 1, 71, 0
1, 63184, Note_off_c, 1, 40, 0
1, 63186, Note_on_c, 1, 69, 127
1, 63186, Note_on_c, 1, 64, 127
1, 63248, Note_off_c, 1, 64, 0
1, 63269, Note_off_c, 1, 69, 0
1, 63326, Note_on_c, 1, 69, 127
1, 63330, Note_on_c, 1, 45, 127
1, 63339, Note_on_c, 1, 64, 127
1, 63361, Note_on_c, 1, 60, 127
1, 63441, Note_on_c, 1, 44, 127
1, 63455, Note_off_c, 1, 45, 0
1, 63559, Note_off_c, 1, 44, 0
1, 63682, Note_on_c, 1, 47, 127
1, 63820, Note_on_c, 1, 48, 127
1, 63826, Note_off_c, 1, 47, 0
1, 63893, Note_off_c, 1, 64, 0
1, 63906, Note_off_c, 1, 60, 0
1, 63908, Note_off_c, 1, 48, 0
1, 63924, Note_on_c, 1, 71, 127
1, 63926, Note_off_c, 1, 69, 0
1, 63932, Note_on_c, 1, 62, 127
1, 64036, Note_on_c, 1, 72, 127
1, 64041, Note_off_c, 1, 62, 0
1, 64057, Note_off_c, 1, 71, 0
1, 64063, Note_on_c, 1, 52, 127
1, 64139, Note_on_c, 1, 59, 127
1, 64152, Note_off_c, 1, 52, 0
1, 64152, Note_on_c, 1, 74, 127
1, 64191, Note_off_c, 1, 72, 0
1, 64223, Note_off_c, 1, 59, 0
1, 64273, Note_on_c, 1, 76, 127
1, 64273, Note_on_c, 1, 57, 127
1, 64285, Note_off_c, 1, 74, 0
1, 64385, Note_on_c, 1, 77, 127
1, 64411, Note_off_c, 1, 76, 0
1, 64490, Note_off_c, 1, 77, 0
1, 64490, Note_on_c, 1, 79, 127
1, 64497, Note_off_c, 1, 57, 0
1, 64532, Note_on_c, 1, 55, 127
1, 64568, Note_off_c, 1, 79, 0
1, 64626, Note_off_c, 1, 55, 0
1, 64641, Note_on_c, 1, 53, 127
1, 64721, Note_off_c, 1, 53, 0
1, 64774, Note_on_c, 1, 67, 127
1, 64865, Note_on_c, 1, 50, 127
1, 64916, Note_off_c, 1, 67, 0
1, 64986, Note_off_c, 1, 50, 0
1, 65237, Note_on_c, 1, 76, 127
1, 65241, Note_on_c, 1, 55, 127
1, 65248, Note_on_c, 1, 67, 127
1, 65259, Note_on_c, 1, 58, 127
1, 65341, Note_off_c, 1, 58, 0
1, 65354, Note_off_c, 1, 67, 0
1, 65365, Note_off_c, 1, 55, 0
1, 65478, Note_off_c, 1, 76, 0
1, 65489, Note_on_c, 1, 48, 127
1, 65490, Note_on_c, 1, 74, 127
1, 65491, Note_on_c, 1, 64, 127
1, 65502, Note_on_c, 1, 55, 127
1, 65588, Note_on_c, 1, 72, 127
1, 65602, Note_off_c, 1, 64, 0
1, 65610, Note_off_c, 1, 48, 0
1, 65611, Note_off_c, 1, 55, 0
1, 65627, Note_off_c, 1, 74, 0
1, 65710, Note_off_c, 1, 72, 0
1, 65730, Note_on_c, 1, 70, 127
1, 65730, Note_on_c, 1, 65, 127
1, 65739, Note_on_c, 1, 50, 127
1, 65751, Note_on_c, 1, 62, 127
1, 65827, Note_off_c, 1, 65, 0
1, 65834, Note_on_c, 1, 69, 127
1, 65839, Note_off_c, 1, 62, 0
1, 65856, Note_off_c, 1, 70, 0
1, 65861, Note_off_c, 1, 50, 0
1, 65980, Note_on_c, 1, 52, 127
1, 65982, Note_on_c, 1, 67, 127
1, 65982, Note_on_c, 1, 60, 127
1, 65983, Note_off_c, 1, 69, 0
1, 66055, Note_off_c, 1, 52, 0
1, 66064, Note_off_c, 1, 67, 0
1, 66071, Note_off_c, 1, 60, 0
1, 66212, Note_on_c, 1, 69, 127
1, 66222, Note_on_c, 1, 65, 127
1, 66228, Note_on_c, 1, 53, 127
1, 66235, Note_on_c, 1, 60, 127
1, 66338, Note_on_c, 1, 52, 127
1, 66359, Note_off_c, 1, 53, 0
1, 66460, Note_off_c, 1, 52, 0
1, 66525, Note_off_c, 1, 69, 0
1, 66564, Note_on_c, 1, 67, 127
1, 66575, Note_on_c, 1, 55, 127
1, 66658, Note_off_c, 1, 67, 0
1, 66689, Note_on_c, 1, 57, 127
1, 66699, Note_off_c, 1, 55, 0
1, 66777, Note_off_c, 1, 60, 0
1, 66802, Note_off_c, 1, 65, 0
1, 66810, Note_on_c, 1, 58, 127
1, 66835, Note_off_c, 1, 57, 0
1, 66932, Note_on_c, 1, 61, 127
1, 66937, Note_on_c, 1, 64, 127
1, 66948, Note_off_c, 1, 58, 0
1, 67029, Note_off_c, 1, 61, 0
1, 67029, Note_off_c, 1, 64, 0
1, 67180, Note_on_c, 1, 74, 127
1, 67189, Note_on_c, 1, 62, 127
1, 67273, Note_off_c, 1, 62, 0
1, 67397, Note_on_c, 1, 50, 127
1, 67459, Note_off_c, 1, 74, 0
1, 67521, Note_on_c, 1, 76, 127
1, 67525, Note_on_c, 1, 49, 127
1, 67530, Note_off_c, 1, 50, 0
1, 67607, Note_off_c, 1, 76, 0
1, 67634, Note_off_c, 1, 49, 0
1, 67648, Note_on_c, 1, 77, 127
1, 67654, Note_on_c, 1, 50, 127
1, 67658, Note_on_c, 1, 69, 127
1, 67680, Note_on_c, 1, 62, 127
1, 67760, Note_off_c, 1, 50, 0
1, 67898, Note_on_c, 1, 52, 127
1, 67918, Note_off_c, 1, 77, 0
1, 68005, Note_off_c, 1, 52, 0
1, 68005, Note_on_c, 1, 79, 127
1, 68095, Note_off_c, 1, 79, 0
1, 68136, Note_on_c, 1, 81, 127
1, 68141, Note_on_c, 1, 53, 127
1, 68150, Note_off_c, 1, 69, 0
1, 68169, Note_off_c, 1, 62, 0
1, 68251, Note_off_c, 1, 53, 0
1, 68299, Note_off_c, 1, 81, 0
1, 68494, Note_on_c, 1, 76, 127
1, 68603, Note_on_c, 1, 74, 127
1, 68619, Note_on_c, 1, 64, 127
1, 68623, Note_on_c, 1, 55, 127
1, 68633, Note_off_c, 1, 76, 0
1, 68705, Note_on_c, 1, 72, 127
1, 68710, Note_off_c, 1, 64, 0
1, 68720, Note_off_c, 1, 55, 0
1, 68744, Note_off_c, 1, 74, 0
1, 68842, Note_on_c, 1, 71, 127
1, 68872, Note_off_c, 1, 72, 0
1, 68875, Note_on_c, 1, 57, 127
1, 68966, Note_off_c, 1, 57, 0
1, 68985, Note_off_c, 1, 71, 0
1, 69064, Note_on_c, 1, 72, 127
1, 69101, Note_on_c, 1, 55, 127
1, 69103, Note_on_c, 1, 62, 127
1, 69128, Note_on_c, 1, 71, 127
1, 69169, Note_off_c, 1, 72, 0
1, 69212, Note_on_c, 1, 54, 127
1, 69216, Note_off_c, 1, 55, 0
1, 69320, Note_off_c, 1, 54, 0
1, 69327, Note_on_c, 1, 43, 127
1, 69436, Note_off_c, 1, 71, 0
1, 69436, Note_on_c, 1, 57, 127
1, 69444, Note_off_c, 1, 43, 0
1, 69487, Note_off_c, 1, 62, 0
1, 69535, Note_off_c, 1, 57, 0
1, 69548, Note_on_c, 1, 74, 127
1, 69568, Note_on_c, 1, 59, 127
1, 69571, Note_on_c, 1, 55, 127
1, 69582, Note_on_c, 1, 67, 127
1, 69664, Note_off_c, 1, 59, 0
1, 69683, Note_off_c, 1, 55, 0
1, 69775, Note_off_c, 1, 74, 0
1, 69805, Note_on_c, 1, 60, 127
1, 69807, Note_on_c, 1, 57, 127
1, 69812, Note_on_c, 1, 72, 127
1, 69881, Note_off_c, 1, 60, 0
1, 69916, Note_on_c, 1, 71, 127
1, 69923, Note_off_c, 1, 57, 0
1, 69932, Note_off_c, 1, 67, 0
1, 69940, Note_off_c, 1, 72, 0
1, 70022, Note_off_c, 1, 71, 0
1, 70044, Note_on_c, 1, 55, 127
1, 70046, Note_on_c, 1, 62, 127
1, 70052, Note_on_c, 1, 69, 127
1, 70064, Note_on_c, 1, 59, 127
1, 70151, Note_on_c, 1, 67, 127
1, 70166, Note_off_c, 1, 55, 0
1, 70179, Note_off_c, 1, 69, 0
1, 70285, Note_on_c, 1, 53, 127
1, 70296, Note_off_c, 1, 67, 0
1, 70348, Note_off_c, 1, 62, 0
1, 70372, Note_off_c, 1, 59, 0
1, 70374, Note_off_c, 1, 53, 0
1, 70392, Note_on_c, 1, 71, 127
1, 70487, Note_off_c, 1, 71, 0
1, 70523, Note_on_c, 1, 52, 127
1, 70533, Note_on_c, 1, 72, 127
1, 70538, Note_on_c, 1, 64, 127
1, 70540, Note_on_c, 1, 71, 127
1, 70545, Note_on_c, 1, 67, 127
1, 70558, Note_off_c, 1, 71, 0
1, 70644, Note_on_c, 1, 62, 127
1, 70646, Note_off_c, 1, 52, 0
1, 70648, Note_off_c, 1, 72, 0
1, 70660, Note_off_c, 1, 64, 0
1, 70766, Note_off_c, 1, 62, 0
1, 70775, Note_on_c, 1, 50, 127
1, 70876, Note_on_c, 1, 65, 127
1, 70878, Note_on_c, 1, 74, 127
1, 70899, Note_off_c, 1, 50, 0
1, 70910, Note_off_c, 1, 67, 0
1, 70981, Note_off_c, 1, 74, 0
1, 70990, Note_off_c, 1, 65, 0
1, 71003, Note_on_c, 1, 76, 127
1, 71003, Note_on_c, 1, 67, 127
1, 71009, Note_on_c, 1, 48, 127
1, 71020, Note_on_c, 1, 72, 127
1, 71159, Note_off_c, 1, 48, 0
1, 71200, Note_off_c, 1, 67, 0
1, 71220, Note_off_c, 1, 76, 0
1, 71237, Note_on_c, 1, 60, 127
1, 71317, Note_off_c, 1, 72, 0
1, 71344, Note_on_c, 1, 69, 127
1, 71348, Note_off_c, 1, 60, 0
1, 71350, Note_on_c, 1, 77, 127
1, 71423, Note_off_c, 1, 69, 0
1, 71425, Note_off_c, 1, 77, 0
1, 71477, Note_on_c, 1, 67, 127
1, 71482, Note_on_c, 1, 72, 127
1, 71485, Note_on_c, 1, 55, 127
1, 71487, Note_on_c, 1, 76, 127
1, 71528, Note_on_c, 1, 71, 127
1, 71530, Note_off_c, 1, 72, 0
1, 71534, Note_on_c, 1, 74, 127
1, 71538, Note_on_c, 1, 65, 127
1, 71550, Note_off_c, 1, 67, 0
1, 71552, Note_off_c, 1, 76, 0
1, 71576, Note_off_c, 1, 65, 0
1, 71591, Note_off_c, 1, 71, 0
1, 71594, Note_off_c, 1, 55, 0
1, 71735, Note_on_c, 1, 57, 127
1, 71747, Note_off_c, 1, 74, 0
1, 71806, Note_off_c, 1, 57, 0
1, 71831, Note_on_c, 1, 72, 127
1, 71853, Note_on_c, 1, 64, 127
1, 71917, Note_off_c, 1, 64, 0
1, 71946, Note_off_c, 1, 72, 0
1, 71966, Note_on_c, 1, 52, 127
1, 71970, Note_on_c, 1, 64, 127
1, 71972, Note_on_c, 1, 72, 127
1, 71981, Note_on_c, 1, 79, 127
1, 72070, Note_off_c, 1, 72, 0
1, 72078, Note_on_c, 1, 71, 127
1, 72083, Note_on_c, 1, 50, 127
1, 72085, Note_on_c, 1, 65, 127
1, 72092, Note_off_c, 1, 64, 0
1, 72118, Note_off_c, 1, 52, 0
1, 72198, Note_off_c, 1, 71, 0
1, 72202, Note_off_c, 1, 50, 0
1, 72222, Note_off_c, 1, 65, 0
1, 72302, Note_on_c, 1, 74, 127
1, 72318, Note_on_c, 1, 53, 127
1, 72322, Note_on_c, 1, 62, 127
1, 72391, Note_off_c, 1, 62, 0
1, 72400, Note_off_c, 1, 74, 0
1, 72424, Note_off_c, 1, 53, 0
1, 72433, Note_on_c, 1, 76, 127
1, 72444, Note_on_c, 1, 55, 127
1, 72459, Note_on_c, 1, 60, 127
1, 72561, Note_on_c, 1, 57, 127
1, 72568, Note_off_c, 1, 55, 0
1, 72572, Note_off_c, 1, 60, 0
1, 72617, Note_off_c, 1, 79, 0
1, 72662, Note_off_c, 1, 76, 0
1, 72672, Note_off_c, 1, 57, 0
1, 72683, Note_on_c, 1, 58, 127
1, 72692, Note_on_c, 1, 67, 127
1, 72696, Note_on_c, 1, 77, 127
1, 72698, Note_on_c, 1, 74, 127
1, 72756, Note_off_c, 1, 74, 0
1, 72793, Note_on_c, 1, 76, 127
1, 72798, Note_on_c, 1, 72, 127
1, 72800, Note_off_c, 1, 67, 0
1, 72809, Note_off_c, 1, 58, 0
1, 72817, Note_off_c, 1, 77, 0
1, 72900, Note_off_c, 1, 72, 0
1, 72910, Note_off_c, 1, 76, 0
1, 72920, Note_on_c, 1, 69, 127
1, 72926, Note_on_c, 1, 77, 127
1, 72929, Note_on_c, 1, 57, 127
1, 72940, Note_on_c, 1, 74, 127
1, 73044, Note_off_c, 1, 69, 0
1, 73062, Note_off_c, 1, 57, 0
1, 73174, Note_on_c, 1, 70, 127
1, 73180, Note_off_c, 1, 77, 0
1, 73183, Note_on_c, 1, 55, 127
1, 73194, Note_off_c, 1, 74, 0
1, 73269, Note_off_c, 1, 70, 0
1, 73276, Note_on_c, 1, 79, 127
1, 73285, Note_on_c, 1, 76, 127
1, 73300, Note_off_c, 1, 55, 0
1, 73365, Note_off_c, 1, 79, 0
1, 73384, Note_off_c, 1, 76, 0
1, 73405, Note_on_c, 1, 81, 127
1, 73411, Note_on_c, 1, 72, 127
1, 73422, Note_on_c, 1, 77, 127
1, 73424, Note_on_c, 1, 53, 127
1, 73508, Note_off_c, 1, 72, 0
1, 73509, Note_off_c, 1, 77, 0
1, 73546, Note_off_c, 1, 53, 0
1, 73650, Note_on_c, 1, 60, 127
1, 73655, Note_on_c, 1, 69, 127
1, 73655, Note_on_c, 1, 52, 127
1, 73695, Note_off_c, 1, 81, 0
1, 73743, Note_off_c, 1, 60, 0
1, 73752, Note_on_c, 1, 79, 127
1, 73767, Note_off_c, 1, 52, 0
1, 73845, Note_off_c, 1, 79, 0
1, 73889, Note_on_c, 1, 62, 127
1, 73903, Note_on_c, 1, 50, 127
1, 74018, Note_off_c, 1, 50, 0
1, 74042, Note_off_c, 1, 69, 0
1, 74139, Note_on_c, 1, 76, 127
1, 74140, Note_on_c, 1, 71, 127
1, 74150, Note_on_c, 1, 55, 127
1, 74223, Note_off_c, 1, 62, 0
1, 74226, Note_off_c, 1, 71, 0
1, 74237, Note_on_c, 1, 74, 127
1, 74240, Note_off_c, 1, 76, 0
1, 74254, Note_on_c, 1, 57, 127
1, 74275, Note_off_c, 1, 55, 0
1, 74337, Note_off_c, 1, 74, 0
1, 74367, Note_on_c, 1, 67, 127
1, 74393, Note_off_c, 1, 57, 0
1, 74469, Note_off_c, 1, 67, 0
1, 74620, Note_on_c, 1, 65, 127
1, 74739, Note_off_c, 1, 65, 0
1, 74830, Note_on_c, 1, 52, 127
1, 74839, Note_on_c, 1, 79, 127
1, 74841, Note_on_c, 1, 64, 127
1, 74870, Note_on_c, 1, 72, 127
1, 74938, Note_on_c, 1, 71, 127
1, 74943, Note_off_c, 1, 72, 0
1, 74950, Note_off_c, 1, 64, 0
1, 74961, Note_off_c, 1, 52, 0
1, 74996, Note_off_c, 1, 71, 0
1, 75080, Note_on_c, 1, 62, 127
1, 75080, Note_on_c, 1, 55, 127
1, 75128, Note_off_c, 1, 79, 0
1, 75180, Note_off_c, 1, 62, 0
1, 75182, Note_off_c, 1, 55, 0
1, 75198, Note_on_c, 1, 77, 127
1, 75273, Note_off_c, 1, 77, 0
1, 75306, Note_on_c, 1, 72, 127
1, 75315, Note_on_c, 1, 60, 127
1, 75329, Note_on_c, 1, 76, 127
1, 75437, Note_on_c, 1, 74, 127
1, 75441, Note_on_c, 1, 59, 127
1, 75456, Note_off_c, 1, 76, 0
1, 75472, Note_off_c, 1, 72, 0
1, 75494, Note_off_c, 1, 60, 0
1, 75552, Note_off_c, 1, 74, 0
1, 75556, Note_on_c, 1, 57, 127
1, 75560, Note_on_c, 1, 64, 127
1, 75592, Note_off_c, 1, 59, 0
1, 75647, Note_off_c, 1, 64, 0
1, 75673, Note_on_c, 1, 55, 127
1, 75729, Note_off_c, 1, 57, 0
1, 75793, Note_on_c, 1, 53, 127
1, 75808, Note_off_c, 1, 55, 0
1, 75810, Note_on_c, 1, 71, 127
1, 75813, Note_on_c, 1, 65, 127
1, 75879, Note_on_c, 1, 69, 127
1, 75886, Note_off_c, 1, 71, 0
1, 75893, Note_on_c, 1, 52, 127
1, 75921, Note_off_c, 1, 53, 0
1, 75933, Note_off_c, 1, 69, 0
1, 76023, Note_on_c, 1, 50, 127
1, 76037, Note_off_c, 1, 52, 0
1, 76067, Note_off_c, 1, 65, 0
1, 76144, Note_on_c, 1, 48, 127
1, 76152, Note_off_c, 1, 50, 0
1, 76265, Note_off_c, 1, 48, 0
1, 76289, Note_on_c, 1, 77, 127
1, 76291, Note_on_c, 1, 69, 127
1, 76291, Note_on_c, 1, 50, 127
1, 76302, Note_on_c, 1, 62, 127
1, 76415, Note_off_c, 1, 50, 0
1, 76419, Note_on_c, 1, 67, 127
1, 76446, Note_off_c, 1, 69, 0
1, 76459, Note_off_c, 1, 62, 0
1, 76519, Note_off_c, 1, 67, 0
1, 76537, Note_on_c, 1, 60, 127
1, 76539, Note_on_c, 1, 65, 127
1, 76550, Note_on_c, 1, 57, 127
1, 76574, Note_off_c, 1, 77, 0
1, 76614, Note_off_c, 1, 60, 0
1, 76638, Note_on_c, 1, 59, 127
1, 76645, Note_on_c, 1, 76, 127
1, 76663, Note_on_c, 1, 55, 127
1, 76690, Note_off_c, 1, 57, 0
1, 76707, Note_off_c, 1, 65, 0
1, 76716, Note_off_c, 1, 59, 0
1, 76723, Note_off_c, 1, 76, 0
1, 76772, Note_on_c, 1, 53, 127
1, 76774, Note_on_c, 1, 74, 127
1, 76811, Note_off_c, 1, 55, 0
1, 76889, Note_on_c, 1, 72, 127
1, 76890, Note_on_c, 1, 52, 127
1, 76928, Note_off_c, 1, 74, 0
1, 76938, Note_off_c, 1, 53, 0
1, 76997, Note_on_c, 1, 71, 127
1, 77011, Note_off_c, 1, 72, 0
1, 77033, Note_off_c, 1, 52, 0
1, 77110, Note_on_c, 1, 48, 127
1, 77115, Note_on_c, 1, 64, 127
1, 77149, Note_off_c, 1, 71, 0
1, 77230, Note_on_c, 1, 47, 127
1, 77232, Note_off_c, 1, 64, 0
1, 77283, Note_off_c, 1, 48, 0
1, 77345, Note_on_c, 1, 45, 127
1, 77389, Note_off_c, 1, 47, 0
1, 77462, Note_on_c, 1, 43, 127
1, 77508, Note_off_c, 1, 45, 0
1, 77588, Note_on_c, 1, 41, 127
1, 77646, Note_off_c, 1, 43, 0
1, 77664, Note_off_c, 1, 41, 0
1, 77719, Note_on_c, 1, 53, 127
1, 77721, Note_on_c, 1, 67, 127
1, 77759, Note_on_c, 1, 59, 127
1, 77772, Note_on_c, 1, 62, 127
1, 78053, Note_off_c, 1, 67, 0
1, 78099, Note_on_c, 1, 69, 127
1, 78206, Note_on_c, 1, 71, 127
1, 78235, Note_off_c, 1, 69, 0
1, 78254, Note_off_c, 1, 59, 0
1, 78275, Note_off_c, 1, 62, 0
1, 78321, Note_off_c, 1, 53, 0
1, 78331, Note_on_c, 1, 72, 127
1, 78334, Note_off_c, 1, 71, 0
1, 78455, Note_on_c, 1, 74, 127
1, 78462, Note_on_c, 1, 55, 127
1, 78462, Note_on_c, 1, 47, 127
1, 78472, Note_off_c, 1, 72, 0
1, 78558, Note_off_c, 1, 55, 0
1, 78562, Note_off_c, 1, 47, 0
1, 78573, Note_on_c, 1, 76, 127
1, 78576, Note_off_c, 1, 74, 0
1, 78662, Note_off_c, 1, 76, 0
1, 78690, Note_on_c, 1, 77, 127
1, 78691, Note_on_c, 1, 71, 127
1, 78704, Note_on_c, 1, 43, 127
1, 78706, Note_on_c, 1, 62, 127
1, 78788, Note_off_c, 1, 71, 0
1, 78792, Note_off_c, 1, 62, 0
1, 78799, Note_on_c, 1, 74, 127
1, 78804, Note_off_c, 1, 77, 0
1, 78814, Note_off_c, 1, 43, 0
1, 78899, Note_off_c, 1, 74, 0
1, 78925, Note_on_c, 1, 79, 127
1, 78925, Note_on_c, 1, 74, 127
1, 78932, Note_on_c, 1, 59, 127
1, 78945, Note_on_c, 1, 47, 127
1, 79016, Note_off_c, 1, 59, 0
1, 79021, Note_off_c, 1, 74, 0
1, 79060, Note_off_c, 1, 47, 0
1, 79061, Note_off_c, 1, 79, 0
1, 79164, Note_on_c, 1, 55, 127
1, 79166, Note_on_c, 1, 76, 127
1, 79166, Note_on_c, 1, 48, 127
1, 79167, Note_on_c, 1, 72, 127
1, 79288, Note_off_c, 1, 48, 0
1, 79332, Note_off_c, 1, 55, 0
1, 79415, Note_on_c, 1, 67, 127
1, 79419, Note_on_c, 1, 43, 127
1, 79425, Note_off_c, 1, 72, 0
1, 79462, Note_off_c, 1, 76, 0
1, 79514, Note_on_c, 1, 71, 127
1, 79519, Note_on_c, 1, 65, 127
1, 79521, Note_on_c, 1, 74, 127
1, 79527, Note_off_c, 1, 67, 0
1, 79532, Note_off_c, 1, 43, 0
1, 79615, Note_off_c, 1, 71, 0
1, 79616, Note_off_c, 1, 74, 0
1, 79617, Note_off_c, 1, 65, 0
1, 79647, Note_on_c, 1, 72, 127
1, 79664, Note_on_c, 1, 45, 127
1, 79665, Note_on_c, 1, 64, 127
1, 79764, Note_on_c, 1, 71, 127
1, 79768, Note_off_c, 1, 45, 0
1, 79775, Note_off_c, 1, 72, 0
1, 79784, Note_off_c, 1, 64, 0
1, 79864, Note_off_c, 1, 71, 0
1, 79884, Note_on_c, 1, 72, 127
1, 79893, Note_on_c, 1, 69, 127
1, 79904, Note_on_c, 1, 41, 127
1, 79923, Note_on_c, 1, 62, 127
1, 79992, Note_off_c, 1, 69, 0
1, 79994, Note_off_c, 1, 41, 0
1, 80015, Note_off_c, 1, 72, 0
1, 80023, Note_off_c, 1, 62, 0
1, 80116, Note_on_c, 1, 69, 127
1, 80121, Note_on_c, 1, 72, 127
1, 80145, Note_on_c, 1, 64, 127
1, 80145, Note_on_c, 1, 43, 127
1, 80209, Note_on_c, 1, 67, 127
1, 80209, Note_on_c, 1, 62, 127
1, 80211, Note_off_c, 1, 64, 0
1, 80216, Note_off_c, 1, 69, 0
1, 80224, Note_on_c, 1, 71, 127
1, 80250, Note_off_c, 1, 72, 0
1, 80262, Note_off_c, 1, 67, 0
1, 80267, Note_off_c, 1, 62, 0
1, 80293, Note_off_c, 1, 71, 0
1, 80492, Note_off_c, 1, 43, 0
1, 80624, Note_on_c, 1, 72, 127
1, 80633, Note_on_c, 1, 67, 127
1, 80638, Note_on_c, 1, 36, 127
1, 80647, Note_on_c, 1, 64, 127
1, 81573, Note_off_c, 1, 64, 0
1, 81620, Note_off_c, 1, 72, 0
1, 81623, Note_off_c, 1, 67, 0
1, 81623, Note_off_c, 1, 36, 0
1, 81623, End_track
0, 0, End_of_file