0, 0, Header, 1, 1, 480
1, 0, Start_track
1, 0, Title_t, "Test"
1, 0, Tempo, 500000
1, 0, Instrument_name_t, "Church Organ"
1, 0, Note_on_c, 1, 60, 127
1, 240, Note_off_c, 1, 60, 0
1, 240, Note_on_c, 1, 59, 127
1, 360, Note_off_c, 1, 59, 0
1, 360, Note_on_c, 1, 57, 127
1, 480, Note_off_c, 1, 57, 0
1, 480, Note_on_c, 1, 55, 127
1, 600, Note_off_c, 1, 55, 0
1, 600, Note_on_c, 1, 53, 127
1, 720, Note_off_c, 1, 53, 0
1, 720, Note_on_c, 1, 52, 127
1, 840, Note_off_c, 1, 52, 0
1, 840, Note_on_c, 1, 50, 127
1, 960, Note_off_c, 1, 50, 0
1, 960, Note_on_c, 1, 48, 127
1, 1080, Note_off_c, 1, 48, 0
1, 1080, Note_on_c, 1, 43, 127
1, 1200, Note_off_c, 1, 43, 0
1, 1200, Note_on_c, 1, 40, 127
1, 1320, Note_off_c, 1, 40, 0
1, 1440, Note_on_c, 1, 36, 127
1, 2040, Note_off_c, 1, 36, 0
1, 2040, Note_on_c, 1, 38, 127
1, 2160, Note_off_c, 1, 38, 0
1, 2280, Note_on_c, 1, 41, 127
1, 2400, Note_off_c, 1, 41, 0
1, 2520, Note_on_c, 1, 45, 127
1, 2640, Note_off_c, 1, 45, 0
1, 2640, Note_on_c, 1, 47, 127
1, 2760, Note_off_c, 1, 47, 0
1, 5760, Note_on_c, 1, 62, 127
1, 5880, Note_off_c, 1, 62, 0
1, 6840, Note_on_c, 1, 64, 127
1, 6960, Note_off_c, 1, 64, 0
1, 6960, Note_on_c, 1, 65, 127
1, 7080, Note_off_c, 1, 65, 0
1, 10080, Note_on_c, 1, 54, 127
1, 10200, Note_off_c, 1, 54, 0
1, 20520, Note_on_c, 1, 49, 127
1, 20640, Note_off_c, 1, 49, 0
1, 23400, Note_on_c, 1, 56, 127
1, 23520, Note_off_c, 1, 56, 0
1, 28920, Note_on_c, 1, 51, 127
1, 29040, Note_off_c, 1, 51, 0
1, 44160, Note_on_c, 1, 58, 127
1, 44280, Note_off_c, 1, 58, 0
1, 68400, Note_on_c, 1, 67, 127
1, 68520, Note_off_c, 1, 67, 0
1, 82800, Note_on_c, 1, 63, 127
1, 82920, Note_off_c, 1, 63, 0
1, 93720, Note_on_c, 1, 42, 127
1, 93840, Note_off_c, 1, 42, 0
1, 96480, Note_on_c, 1, 46, 127
1, 96600, Note_off_c, 1, 46, 0
1, 110880, Note_on_c, 1, 40, 127
1, 111000, Note_off_c, 1, 40, 0
1, 111000, Note_on_c, 1, 60, 127
1, 111120, Note_off_c, 1, 60, 0
1, 111120, Note_on_c, 1, 59, 127
1, 111240, Note_off_c, 1, 59, 0
1, 111240, Note_on_c, 1, 57, 127
1, 111360, Note_off_c, 1, 57, 0
1, 111360, Note_on_c, 1, 55, 127
1, 111480, Note_off_c, 1, 55, 0
1, 111480, Note_on_c, 1, 53, 127
1, 111600, Note_off_c, 1, 53, 0
1, 111600, Note_on_c, 1, 52, 127
1, 111720, Note_off_c, 1, 52, 0
1, 111720, Note_on_c, 1, 50, 127
1, 111840, Note_off_c, 1, 50, 0
1, 111840, Note_on_c, 1, 48, 127
1, 111960, Note_off_c, 1, 48, 0
1, 111960, Note_on_c, 1, 43, 127
1, 112080, Note_off_c, 1, 43, 0
1, 112320, Note_on_c, 1, 39, 127
1, 112800, Note_off_c, 1, 39, 0
1, 113760, Note_on_c, 1, 38, 127
1, 113760, Note_on_c, 1, 59, 127
1, 113760, Note_on_c, 1, 53, 127
1, 113760, Note_on_c, 1, 43, 127
1, 114240, Note_off_c, 1, 38, 0
1, 114240, Note_off_c, 1, 59, 0
1, 114240, Note_off_c, 1, 53, 0
1, 114240, Note_off_c, 1, 43, 0
1, 115200, Note_on_c, 1, 36, 127
1, 115200, Note_on_c, 1, 60, 127
1, 115200, Note_on_c, 1, 52, 127
1, 115200, Note_on_c, 1, 43, 127
1, 115680, Note_off_c, 1, 36, 0
1, 115680, Note_off_c, 1, 52, 0
1, 115680, Note_on_c, 1, 50, 127
1, 116160, Note_off_c, 1, 60, 0
1, 116160, Note_on_c, 1, 59, 127
1, 116640, Note_off_c, 1, 50, 0
1, 116640, Note_off_c, 1, 59, 0
1, 117120, Note_off_c, 1, 43, 0
1, 117480, Note_on_c, 1, 62, 127
1, 117600, Note_off_c, 1, 62, 0
1, 118080, Note_on_c, 1, 58, 127
1, 118680, Note_off_c, 1, 58, 0
1, 119520, Note_on_c, 1, 57, 127
1, 119520, Note_on_c, 1, 53, 127
1, 119520, Note_on_c, 1, 45, 127
1, 120000, Note_off_c, 1, 53, 0
1, 120000, Note_off_c, 1, 45, 0
1, 120120, Note_off_c, 1, 57, 0
1, 120960, Note_on_c, 1, 44, 127
1, 121440, Note_off_c, 1, 44, 0
1, 124320, Note_on_c, 1, 55, 127
1, 124440, Note_off_c, 1, 55, 0
1, 124800, Note_on_c, 1, 48, 127
1, 124920, Note_off_c, 1, 48, 0
1, 125040, Note_on_c, 1, 40, 127
1, 125160, Note_off_c, 1, 40, 0
1, 125160, End_track
0, 0, End_of_file