0, 0, Header, 1, 1, 480
1, 0, Start_track
1, 0, Title_t, "Test"
1, 0, Tempo, 500000
1, 0, Instrument_name_t, "Church Organ"
1, 480, Note_on_c, 1, 55, 127
1, 720, Note_off_c, 1, 55, 0
1, 720, Note_on_c, 1, 60, 127
1, 960, Note_off_c, 1, 60, 0
1, 960, Note_on_c, 1, 48, 127
1, 1080, Note_off_c, 1, 48, 0
1, 1080, Note_on_c, 1, 50, 127
1, 1200, Note_off_c, 1, 50, 0
1, 1200, Note_on_c, 1, 52, 127
1, 1320, Note_off_c, 1, 52, 0
1, 1320, Note_on_c, 1, 53, 127
1, 1440, Note_off_c, 1, 53, 0
1, 1680, Note_on_c, 1, 57, 127
1, 1920, Note_off_c, 1, 57, 0
1, 1920, Note_on_c, 1, 59, 127
1, 2160, Note_off_c, 1, 59, 0
1, 2640, Note_on_c, 1, 64, 127
1, 2880, Note_off_c, 1, 64, 0
1, 3600, Note_on_c, 1, 62, 127
1, 3720, Note_off_c, 1, 62, 0
1, 4080, Note_on_c, 1, 65, 127
1, 4320, Note_off_c, 1, 65, 0
1, 5040, Note_on_c, 1, 43, 127
1, 5280, Note_off_c, 1, 43, 0
1, 6720, Note_on_c, 1, 54, 127
1, 6960, Note_off_c, 1, 54, 0
1, 8160, Note_on_c, 1, 45, 127
1, 8280, Note_off_c, 1, 45, 0
1, 8280, Note_on_c, 1, 47, 127
1, 8400, Note_off_c, 1, 47, 0
1, 24000, Note_on_c, 1, 63, 127
1, 24240, Note_off_c, 1, 63, 0
1, 24720, Note_on_c, 1, 58, 127
1, 24960, Note_off_c, 1, 58, 0
1, 25200, Note_on_c, 1, 66, 127
1, 25440, Note_off_c, 1, 66, 0
1, 25440, Note_on_c, 1, 67, 127
1, 25680, Note_off_c, 1, 67, 0
1, 28080, Note_on_c, 1, 61, 127
1, 28320, Note_off_c, 1, 61, 0
1, 72240, Note_on_c, 1, 36, 127
1, 72480, Note_off_c, 1, 36, 0
1, 73680, Note_on_c, 1, 56, 127
1, 73800, Note_off_c, 1, 56, 0
1, 80160, Note_on_c, 1, 41, 127
1, 80280, Note_off_c, 1, 41, 0
1, 80520, Note_on_c, 1, 46, 127
1, 80640, Note_off_c, 1, 46, 0
1, 81600, Note_on_c, 1, 49, 127
1, 81840, Note_off_c, 1, 49, 0
1, 87840, Note_on_c, 1, 38, 127
1, 87960, Note_off_c, 1, 38, 0
1, 102480, Note_on_c, 1, 51, 127
1, 102720, Note_off_c, 1, 51, 0
1, 110880, Note_on_c, 1, 40, 127
1, 111000, Note_off_c, 1, 40, 0
1, 111000, End_track
0, 0, End_of_file