0, 0, Header, 1, 1, 480
1, 0, Start_track
1, 0, Title_t, "Test"
1, 0, Tempo, 500000
1, 0, Instrument_name_t, "Church Organ"
1, 0, Note_on_c, 1, 50, 127
1, 1200, Note_off_c, 1, 50, 0
1, 1200, Note_on_c, 1, 54, 127
1, 1440, Note_off_c, 1, 54, 0
1, 1920, Note_on_c, 1, 57, 127
1, 2160, Note_off_c, 1, 57, 0
1, 2640, Note_on_c, 1, 62, 127
1, 2880, Note_off_c, 1, 62, 0
1, 5760, Note_on_c, 1, 59, 127
1, 6000, Note_off_c, 1, 59, 0
1, 6240, Note_on_c, 1, 55, 127
1, 6480, Note_off_c, 1, 55, 0
1, 6720, Note_on_c, 1, 61, 127
1, 6960, Note_off_c, 1, 61, 0
1, 11760, Note_on_c, 1, 52, 127
1, 12000, Note_off_c, 1, 52, 0
1, 13200, Note_on_c, 1, 49, 127
1, 13440, Note_off_c, 1, 49, 0
1, 13920, Note_on_c, 1, 45, 127
1, 14160, Note_off_c, 1, 45, 0
1, 16080, Note_on_c, 1, 47, 127
1, 16320, Note_off_c, 1, 47, 0
1, 17520, Note_on_c, 1, 44, 127
1, 17760, Note_off_c, 1, 44, 0
1, 21360, Note_on_c, 1, 56, 127
1, 21600, Note_off_c, 1, 56, 0
1, 24480, Note_on_c, 1, 64, 127
1, 24720, Note_off_c, 1, 64, 0
1, 25440, Note_on_c, 1, 66, 127
1, 25680, Note_off_c, 1, 66, 0
1, 25680, Note_on_c, 1, 68, 127
1, 25920, Note_off_c, 1, 68, 0
1, 25920, Note_on_c, 1, 69, 127
1, 26160, Note_off_c, 1, 69, 0
1, 48960, Note_on_c, 1, 60, 127
1, 49200, Note_off_c, 1, 60, 0
1, 49200, Note_on_c, 1, 51, 127
1, 49440, Note_off_c, 1, 51, 0
1, 53040, Note_on_c, 1, 63, 127
1, 53280, Note_off_c, 1, 63, 0
1, 54720, Note_on_c, 1, 67, 127
1, 54960, Note_off_c, 1, 67, 0
1, 56160, Note_on_c, 1, 71, 127
1, 56400, Note_off_c, 1, 71, 0
1, 57120, Note_on_c, 1, 73, 127
1, 57360, Note_off_c, 1, 73, 0
1, 57360, Note_on_c, 1, 75, 127
1, 57600, Note_off_c, 1, 75, 0
1, 57600, Note_on_c, 1, 76, 127
1, 57840, Note_off_c, 1, 76, 0
1, 89280, Note_on_c, 1, 58, 127
1, 89520, Note_off_c, 1, 58, 0
1, 96240, Note_on_c, 1, 70, 127
1, 96480, Note_off_c, 1, 70, 0
1, 97200, Note_on_c, 1, 74, 127
1, 97440, Note_off_c, 1, 74, 0
1, 103680, Note_on_c, 1, 65, 127
1, 103920, Note_off_c, 1, 65, 0
1, 112320, Note_on_c, 1, 46, 127
1, 112560, Note_off_c, 1, 46, 0
1, 115200, Note_on_c, 1, 41, 127
1, 115440, Note_off_c, 1, 41, 0
1, 118080, Note_on_c, 1, 42, 127
1, 118320, Note_off_c, 1, 42, 0
1, 120960, Note_on_c, 1, 43, 127
1, 121200, Note_off_c, 1, 43, 0
1, 158880, Note_on_c, 1, 48, 127
1, 159120, Note_off_c, 1, 48, 0
1, 167040, Note_on_c, 1, 38, 127
1, 167280, Note_off_c, 1, 38, 0
1, 204960, Note_on_c, 1, 78, 127
1, 205200, Note_off_c, 1, 78, 0
1, 207840, Note_on_c, 1, 79, 127
1, 208080, Note_off_c, 1, 79, 0
1, 234720, Note_on_c, 1, 40, 127
1, 234960, Note_off_c, 1, 40, 0
1, 253440, Note_on_c, 1, 53, 127
1, 253560, Note_off_c, 1, 53, 0
1, 281520, Note_on_c, 1, 62, 127
1, 281520, Note_on_c, 1, 55, 127
1, 281520, Note_on_c, 1, 46, 127
1, 281760, Note_off_c, 1, 62, 0
1, 281760, Note_off_c, 1, 55, 0
1, 281760, Note_off_c, 1, 46, 0
1, 282240, Note_on_c, 1, 62, 127
1, 282240, Note_on_c, 1, 54, 127
1, 282240, Note_on_c, 1, 45, 127
1, 282480, Note_off_c, 1, 62, 0
1, 282480, Note_off_c, 1, 54, 0
1, 282480, Note_off_c, 1, 45, 0
1, 282960, Note_on_c, 1, 62, 127
1, 282960, Note_on_c, 1, 53, 127
1, 282960, Note_on_c, 1, 44, 127
1, 283200, Note_off_c, 1, 62, 0
1, 283200, Note_off_c, 1, 53, 0
1, 283200, Note_off_c, 1, 44, 0
1, 283680, Note_on_c, 1, 62, 127
1, 283680, Note_on_c, 1, 52, 127
1, 283680, Note_on_c, 1, 45, 127
1, 283920, Note_off_c, 1, 62, 0
1, 283920, Note_off_c, 1, 52, 0
1, 283920, Note_off_c, 1, 45, 0
1, 284400, Note_on_c, 1, 61, 127
1, 284400, Note_on_c, 1, 52, 127
1, 284400, Note_on_c, 1, 45, 127
1, 284640, Note_off_c, 1, 61, 0
1, 284640, Note_off_c, 1, 52, 0
1, 284640, Note_off_c, 1, 45, 0
1, 285120, Note_on_c, 1, 50, 127
1, 285360, Note_off_c, 1, 50, 0
1, 285360, Note_on_c, 1, 54, 127
1, 285600, Note_off_c, 1, 54, 0
1, 285600, Note_on_c, 1, 57, 127
1, 285840, Note_off_c, 1, 57, 0
1, 285840, Note_on_c, 1, 62, 127
1, 286080, Note_off_c, 1, 62, 0
1, 287280, Note_on_c, 1, 60, 127
1, 287520, Note_off_c, 1, 60, 0
1, 288240, Note_on_c, 1, 55, 127
1, 288480, Note_off_c, 1, 55, 0
1, 288480, Note_on_c, 1, 59, 127
1, 288720, Note_off_c, 1, 59, 0
1, 289440, Note_on_c, 1, 67, 127
1, 289680, Note_off_c, 1, 67, 0
1, 290160, Note_on_c, 1, 71, 127
1, 290400, Note_off_c, 1, 71, 0
1, 290640, Note_on_c, 1, 64, 127
1, 290880, Note_off_c, 1, 64, 0
1, 290880, Note_on_c, 1, 61, 127
1, 291120, Note_off_c, 1, 61, 0
1, 292080, Note_on_c, 1, 66, 127
1, 292320, Note_off_c, 1, 66, 0
1, 292800, Note_on_c, 1, 69, 127
1, 293040, Note_off_c, 1, 69, 0
1, 293280, Note_on_c, 1, 74, 127
1, 293520, Note_off_c, 1, 74, 0
1, 293520, Note_on_c, 1, 73, 127
1, 293760, Note_off_c, 1, 73, 0
1, 297840, Note_on_c, 1, 45, 127
1, 298080, Note_off_c, 1, 45, 0
1, 298080, Note_on_c, 1, 38, 127
1, 298320, Note_off_c, 1, 38, 0
1, 298320, End_track
0, 0, End_of_file