0, 0, Header, 1, 1, 480
1, 0, Start_track
1, 0, Title_t, "Test"
1, 0, Tempo, 500000
1, 0, Instrument_name_t, "Church Organ"
1, 1185, Note_on_c, 1, 72, 127
1, 1190, Note_on_c, 1, 67, 127
1, 1195, Note_on_c, 1, 64, 127
1, 1292, Note_off_c, 1, 72, 0
1, 1292, Note_off_c, 1, 64, 0
1, 1295, Note_on_c, 1, 65, 127
1, 1330, Note_off_c, 1, 67, 0
1, 1368, Note_off_c, 1, 65, 0
1, 1425, Note_on_c, 1, 64, 127
1, 1434, Note_on_c, 1, 72, 127
1, 1435, Note_on_c, 1, 79, 127
1, 1536, Note_off_c, 1, 72, 0
1, 1536, Note_on_c, 1, 71, 127
1, 1537, Note_off_c, 1, 64, 0
1, 1537, Note_on_c, 1, 62, 127
1, 1610, Note_off_c, 1, 62, 0
1, 1620, Note_off_c, 1, 71, 0
1, 1767, Note_on_c, 1, 74, 127
1, 1771, Note_off_c, 1, 79, 0
1, 1771, Note_on_c, 1, 65, 127
1, 1830, Note_off_c, 1, 74, 0
1, 1843, Note_off_c, 1, 65, 0
1, 1890, Note_on_c, 1, 76, 127
1, 1890, Note_on_c, 1, 67, 127
1, 1898, Note_on_c, 1, 79, 127
1, 1898, Note_on_c, 1, 48, 127
1, 1983, Note_off_c, 1, 76, 0
1, 1997, Note_on_c, 1, 74, 127
1, 1999, Note_off_c, 1, 67, 0
1, 1999, Note_off_c, 1, 79, 0
1, 2004, Note_on_c, 1, 65, 127
1, 2029, Note_off_c, 1, 48, 0
1, 2056, Note_off_c, 1, 74, 0
1, 2071, Note_off_c, 1, 65, 0
1, 2127, Note_on_c, 1, 72, 127
1, 2128, Note_on_c, 1, 64, 127
1, 2147, Note_on_c, 1, 79, 127
1, 2160, Note_on_c, 1, 60, 127
1, 2230, Note_off_c, 1, 72, 0
1, 2232, Note_off_c, 1, 64, 0
1, 2239, Note_on_c, 1, 71, 127
1, 2246, Note_on_c, 1, 62, 127
1, 2313, Note_off_c, 1, 71, 0
1, 2324, Note_off_c, 1, 62, 0
1, 2455, Note_off_c, 1, 79, 0
1, 2477, Note_on_c, 1, 77, 127
1, 2479, Note_on_c, 1, 65, 127
1, 2497, Note_off_c, 1, 60, 0
1, 2500, Note_on_c, 1, 81, 127
1, 2557, Note_off_c, 1, 77, 0
1, 2559, Note_off_c, 1, 65, 0
1, 2572, Note_off_c, 1, 81, 0
1, 2602, Note_on_c, 1, 76, 127
1, 2604, Note_on_c, 1, 67, 127
1, 2613, Note_on_c, 1, 82, 127
1, 2697, Note_off_c, 1, 76, 0
1, 2707, Note_off_c, 1, 67, 0
1, 2716, Note_on_c, 1, 64, 127
1, 2721, Note_on_c, 1, 74, 127
1, 2726, Note_off_c, 1, 82, 0
1, 2785, Note_off_c, 1, 64, 0
1, 2785, Note_off_c, 1, 74, 0
1, 2844, Note_on_c, 1, 72, 127
1, 2847, Note_on_c, 1, 65, 127
1, 2867, Note_on_c, 1, 81, 127
1, 2949, Note_on_c, 1, 70, 127
1, 2954, Note_on_c, 1, 64, 127
1, 2958, Note_off_c, 1, 65, 0
1, 2965, Note_off_c, 1, 72, 0
1, 3016, Note_off_c, 1, 70, 0
1, 3032, Note_off_c, 1, 64, 0
1, 3084, Note_on_c, 1, 69, 127
1, 3190, Note_on_c, 1, 67, 127
1, 3194, Note_off_c, 1, 69, 0
1, 3208, Note_off_c, 1, 81, 0
1, 3279, Note_off_c, 1, 67, 0
1, 3321, Note_on_c, 1, 69, 127
1, 3322, Note_on_c, 1, 74, 127
1, 3327, Note_on_c, 1, 65, 127
1, 3346, Note_on_c, 1, 48, 127
1, 3435, Note_on_c, 1, 67, 127
1, 3445, Note_off_c, 1, 74, 0
1, 3450, Note_off_c, 1, 69, 0
1, 3450, Note_off_c, 1, 65, 0
1, 3465, Note_off_c, 1, 48, 0
1, 3512, Note_off_c, 1, 67, 0
1, 3564, Note_on_c, 1, 65, 127
1, 3573, Note_on_c, 1, 69, 127
1, 3585, Note_on_c, 1, 74, 127
1, 3595, Note_on_c, 1, 60, 127
1, 3668, Note_off_c, 1, 65, 0
1, 3675, Note_off_c, 1, 69, 0
1, 3680, Note_on_c, 1, 64, 127
1, 3690, Note_on_c, 1, 67, 127
1, 3763, Note_off_c, 1, 64, 0
1, 3773, Note_off_c, 1, 67, 0
1, 3905, Note_off_c, 1, 74, 0
1, 3921, Note_off_c, 1, 60, 0
1, 3934, Note_on_c, 1, 71, 127
1, 3950, Note_on_c, 1, 76, 127
1, 4000, Note_off_c, 1, 71, 0
1, 4024, Note_off_c, 1, 76, 0
1, 4050, Note_on_c, 1, 69, 127
1, 4057, Note_on_c, 1, 72, 127
1, 4067, Note_on_c, 1, 77, 127
1, 4164, Note_off_c, 1, 72, 0
1, 4167, Note_off_c, 1, 77, 0
1, 4171, Note_on_c, 1, 65, 127
1, 4229, Note_off_c, 1, 65, 0
1, 4231, Note_off_c, 1, 69, 0
1, 4295, Note_on_c, 1, 62, 127
1, 4299, Note_on_c, 1, 71, 127
1, 4302, Note_on_c, 1, 65, 127
1, 4371, Note_off_c, 1, 62, 0
1, 4401, Note_off_c, 1, 65, 0
1, 4409, Note_on_c, 1, 60, 127
1, 4411, Note_on_c, 1, 64, 127
1, 4487, Note_off_c, 1, 64, 0
1, 4492, Note_off_c, 1, 60, 0
1, 4594, Note_off_c, 1, 71, 0
1, 4651, Note_on_c, 1, 67, 127
1, 4653, Note_on_c, 1, 72, 127
1, 4722, Note_off_c, 1, 67, 0
1, 4750, Note_off_c, 1, 72, 0
1, 4761, Note_on_c, 1, 48, 127
1, 4769, Note_on_c, 1, 74, 127
1, 4769, Note_on_c, 1, 65, 127
1, 4777, Note_on_c, 1, 69, 127
1, 4877, Note_off_c, 1, 74, 0
1, 4883, Note_on_c, 1, 62, 127
1, 4884, Note_off_c, 1, 69, 0
1, 4891, Note_off_c, 1, 48, 0
1, 4941, Note_off_c, 1, 62, 0
1, 4945, Note_off_c, 1, 65, 0
1, 5004, Note_on_c, 1, 62, 127
1, 5011, Note_on_c, 1, 67, 127
1, 5019, Note_on_c, 1, 59, 127
1, 5024, Note_on_c, 1, 60, 127
1, 5118, Note_on_c, 1, 65, 127
1, 5130, Note_off_c, 1, 62, 0
1, 5130, Note_on_c, 1, 57, 127
1, 5133, Note_off_c, 1, 59, 0
1, 5190, Note_off_c, 1, 65, 0
1, 5201, Note_off_c, 1, 57, 0
1, 5360, Note_on_c, 1, 69, 127
1, 5379, Note_off_c, 1, 67, 0
1, 5386, Note_on_c, 1, 79, 127
1, 5415, Note_off_c, 1, 69, 0
1, 5434, Note_off_c, 1, 60, 0
1, 5484, Note_on_c, 1, 71, 127
1, 5486, Note_off_c, 1, 79, 0
1, 5506, Note_on_c, 1, 77, 127
1, 5591, Note_off_c, 1, 71, 0
1, 5607, Note_on_c, 1, 74, 127
1, 5617, Note_off_c, 1, 77, 0
1, 5660, Note_off_c, 1, 74, 0
1, 5731, Note_on_c, 1, 67, 127
1, 5733, Note_on_c, 1, 60, 127
1, 5738, Note_on_c, 1, 76, 127
1, 5839, Note_off_c, 1, 60, 0
1, 5847, Note_on_c, 1, 77, 127
1, 5849, Note_off_c, 1, 67, 0
1, 5852, Note_on_c, 1, 59, 127
1, 5925, Note_off_c, 1, 77, 0
1, 5927, Note_off_c, 1, 59, 0
1, 6077, Note_off_c, 1, 76, 0
1, 6085, Note_on_c, 1, 74, 127
1, 6092, Note_on_c, 1, 62, 127
1, 6154, Note_off_c, 1, 74, 0
1, 6165, Note_off_c, 1, 62, 0
1, 6199, Note_on_c, 1, 79, 127
1, 6213, Note_on_c, 1, 64, 127
1, 6217, Note_on_c, 1, 72, 127
1, 6221, Note_on_c, 1, 48, 127
1, 6310, Note_off_c, 1, 72, 0
1, 6322, Note_off_c, 1, 64, 0
1, 6324, Note_off_c, 1, 79, 0
1, 6331, Note_on_c, 1, 71, 127
1, 6331, Note_on_c, 1, 62, 127
1, 6332, Note_off_c, 1, 48, 0
1, 6400, Note_off_c, 1, 62, 0
1, 6403, Note_off_c, 1, 71, 0
1, 6450, Note_on_c, 1, 72, 127
1, 6460, Note_on_c, 1, 64, 127
1, 6469, Note_on_c, 1, 60, 127
1, 6559, Note_on_c, 1, 69, 127
1, 6566, Note_on_c, 1, 65, 127
1, 6576, Note_off_c, 1, 64, 0
1, 6621, Note_off_c, 1, 69, 0
1, 6645, Note_off_c, 1, 65, 0
1, 6680, Note_on_c, 1, 67, 127
1, 6782, Note_off_c, 1, 72, 0
1, 6802, Note_off_c, 1, 67, 0
1, 6804, Note_off_c, 1, 60, 0
1, 6804, Note_on_c, 1, 62, 127
1, 6811, Note_on_c, 1, 74, 127
1, 6873, Note_off_c, 1, 62, 0
1, 6906, Note_off_c, 1, 74, 0
1, 6922, Note_on_c, 1, 64, 127
1, 6927, Note_on_c, 1, 76, 127
1, 6929, Note_on_c, 1, 60, 127
1, 7013, Note_off_c, 1, 76, 0
1, 7032, Note_off_c, 1, 60, 0
1, 7032, Note_on_c, 1, 62, 127
1, 7044, Note_on_c, 1, 77, 127
1, 7069, Note_off_c, 1, 64, 0
1, 7117, Note_off_c, 1, 62, 0
1, 7119, Note_off_c, 1, 77, 0
1, 7167, Note_on_c, 1, 64, 127
1, 7169, Note_on_c, 1, 79, 127
1, 7172, Note_on_c, 1, 60, 127
1, 7274, Note_off_c, 1, 64, 0
1, 7285, Note_on_c, 1, 62, 127
1, 7288, Note_on_c, 1, 67, 127
1, 7305, Note_off_c, 1, 60, 0
1, 7350, Note_off_c, 1, 67, 0
1, 7361, Note_off_c, 1, 62, 0
1, 7412, Note_on_c, 1, 72, 127
1, 7508, Note_off_c, 1, 72, 0
1, 7523, Note_off_c, 1, 79, 0
1, 7527, Note_on_c, 1, 74, 127
1, 7527, Note_on_c, 1, 65, 127
1, 7596, Note_off_c, 1, 74, 0
1, 7603, Note_off_c, 1, 65, 0
1, 7647, Note_on_c, 1, 76, 127
1, 7647, Note_on_c, 1, 67, 127
1, 7657, Note_on_c, 1, 79, 127
1, 7675, Note_on_c, 1, 48, 127
1, 7749, Note_off_c, 1, 76, 0
1, 7760, Note_off_c, 1, 67, 0
1, 7760, Note_off_c, 1, 79, 0
1, 7765, Note_on_c, 1, 74, 127
1, 7765, Note_on_c, 1, 65, 127
1, 7786, Note_off_c, 1, 48, 0
1, 7829, Note_off_c, 1, 74, 0
1, 7832, Note_off_c, 1, 65, 0
1, 7888, Note_on_c, 1, 72, 127
1, 7893, Note_on_c, 1, 64, 127
1, 7906, Note_on_c, 1, 60, 127
1, 7908, Note_on_c, 1, 79, 127
1, 7997, Note_off_c, 1, 72, 0
1, 8000, Note_off_c, 1, 64, 0
1, 8002, Note_on_c, 1, 71, 127
1, 8010, Note_on_c, 1, 65, 127
1, 8077, Note_off_c, 1, 71, 0
1, 8081, Note_off_c, 1, 65, 0
1, 8213, Note_off_c, 1, 79, 0
1, 8238, Note_off_c, 1, 60, 0
1, 8244, Note_on_c, 1, 74, 127
1, 8247, Note_on_c, 1, 62, 127
1, 8278, Note_on_c, 1, 84, 127
1, 8313, Note_off_c, 1, 62, 0
1, 8318, Note_off_c, 1, 74, 0
1, 8368, Note_off_c, 1, 84, 0
1, 8368, Note_on_c, 1, 76, 127
1, 8372, Note_on_c, 1, 60, 127
1, 8401, Note_on_c, 1, 81, 127
1, 8477, Note_off_c, 1, 76, 0
1, 8486, Note_off_c, 1, 60, 0
1, 8490, Note_on_c, 1, 64, 127
1, 8491, Note_on_c, 1, 72, 127
1, 8508, Note_off_c, 1, 81, 0
1, 8541, Note_off_c, 1, 64, 0
1, 8552, Note_off_c, 1, 72, 0
1, 8608, Note_on_c, 1, 62, 127
1, 8634, Note_on_c, 1, 69, 127
1, 8636, Note_on_c, 1, 78, 127
1, 8715, Note_off_c, 1, 62, 0
1, 8726, Note_on_c, 1, 74, 127
1, 8738, Note_off_c, 1, 69, 0
1, 8740, Note_on_c, 1, 67, 127
1, 8798, Note_off_c, 1, 74, 0
1, 8823, Note_off_c, 1, 67, 0
1, 8847, Note_on_c, 1, 72, 127
1, 8938, Note_off_c, 1, 78, 0
1, 8950, Note_off_c, 1, 72, 0
1, 8962, Note_on_c, 1, 71, 127
1, 8971, Note_on_c, 1, 79, 127
1, 9052, Note_off_c, 1, 79, 0
1, 9054, Note_off_c, 1, 71, 0
1, 9087, Note_on_c, 1, 81, 127
1, 9092, Note_on_c, 1, 72, 127
1, 9092, Note_on_c, 1, 69, 127
1, 9104, Note_on_c, 1, 48, 127
1, 9192, Note_off_c, 1, 72, 0
1, 9206, Note_on_c, 1, 67, 127
1, 9210, Note_off_c, 1, 81, 0
1, 9226, Note_off_c, 1, 48, 0
1, 9268, Note_off_c, 1, 69, 0
1, 9282, Note_off_c, 1, 67, 0
1, 9334, Note_on_c, 1, 66, 127
1, 9334, Note_on_c, 1, 69, 127
1, 9343, Note_on_c, 1, 74, 127
1, 9354, Note_on_c, 1, 60, 127
1, 9441, Note_off_c, 1, 69, 0
1, 9445, Note_on_c, 1, 67, 127
1, 9446, Note_off_c, 1, 66, 0
1, 9446, Note_on_c, 1, 64, 127
1, 9512, Note_off_c, 1, 64, 0
1, 9526, Note_off_c, 1, 67, 0
1, 9636, Note_off_c, 1, 74, 0
1, 9677, Note_off_c, 1, 60, 0
1, 9690, Note_on_c, 1, 71, 127
1, 9690, Note_on_c, 1, 76, 127
1, 9773, Note_off_c, 1, 71, 0
1, 9776, Note_off_c, 1, 76, 0
1, 9801, Note_on_c, 1, 69, 127
1, 9809, Note_on_c, 1, 78, 127
1, 9811, Note_on_c, 1, 72, 127
1, 9884, Note_off_c, 1, 69, 0
1, 9916, Note_on_c, 1, 62, 127
1, 9932, Note_off_c, 1, 78, 0
1, 9932, Note_off_c, 1, 72, 0
1, 10000, Note_off_c, 1, 62, 0
1, 10032, Note_on_c, 1, 74, 127
1, 10056, Note_on_c, 1, 71, 127
1, 10065, Note_on_c, 1, 79, 127
1, 10148, Note_off_c, 1, 74, 0
1, 10170, Note_on_c, 1, 72, 127
1, 10176, Note_on_c, 1, 69, 127
1, 10181, Note_off_c, 1, 71, 0
1, 10227, Note_off_c, 1, 72, 0
1, 10239, Note_off_c, 1, 69, 0
1, 10294, Note_on_c, 1, 67, 127
1, 10335, Note_off_c, 1, 79, 0
1, 10400, Note_on_c, 1, 59, 127
1, 10411, Note_off_c, 1, 67, 0
1, 10411, Note_on_c, 1, 66, 127
1, 10487, Note_off_c, 1, 66, 0
1, 10493, Note_off_c, 1, 59, 0
1, 10514, Note_on_c, 1, 60, 127
1, 10525, Note_on_c, 1, 76, 127
1, 10530, Note_on_c, 1, 64, 127
1, 10532, Note_on_c, 1, 67, 127
1, 10609, Note_off_c, 1, 60, 0
1, 10639, Note_off_c, 1, 64, 0
1, 10642, Note_on_c, 1, 71, 127
1, 10651, Note_off_c, 1, 76, 0
1, 10689, Note_off_c, 1, 71, 0
1, 10715, Note_off_c, 1, 67, 0
1, 10760, Note_on_c, 1, 69, 127
1, 10767, Note_on_c, 1, 66, 127
1, 10773, Note_on_c, 1, 62, 127
1, 10870, Note_on_c, 1, 67, 127
1, 10874, Note_off_c, 1, 66, 0
1, 10967, Note_off_c, 1, 67, 0
1, 11083, Note_off_c, 1, 62, 0
1, 11111, Note_on_c, 1, 64, 127
1, 11122, Note_off_c, 1, 69, 0
1, 11135, Note_on_c, 1, 71, 127
1, 11173, Note_off_c, 1, 64, 0
1, 11218, Note_off_c, 1, 71, 0
1, 11237, Note_on_c, 1, 62, 127
1, 11250, Note_on_c, 1, 50, 127
1, 11254, Note_on_c, 1, 66, 127
1, 11256, Note_on_c, 1, 72, 127
1, 11357, Note_on_c, 1, 69, 127
1, 11364, Note_off_c, 1, 62, 0
1, 11368, Note_off_c, 1, 66, 0
1, 11368, Note_on_c, 1, 64, 127
1, 11370, Note_off_c, 1, 50, 0
1, 11370, Note_off_c, 1, 72, 0
1, 11430, Note_off_c, 1, 69, 0
1, 11434, Note_off_c, 1, 64, 0
1, 11487, Note_on_c, 1, 62, 127
1, 11492, Note_on_c, 1, 71, 127
1, 11509, Note_on_c, 1, 55, 127
1, 11580, Note_off_c, 1, 62, 0
1, 11605, Note_on_c, 1, 64, 127
1, 11610, Note_on_c, 1, 67, 127
1, 11672, Note_off_c, 1, 67, 0
1, 11689, Note_off_c, 1, 64, 0
1, 11726, Note_on_c, 1, 66, 127
1, 11810, Note_off_c, 1, 55, 0
1, 11836, Note_off_c, 1, 66, 0
1, 11845, Note_on_c, 1, 60, 127
1, 11874, Note_off_c, 1, 71, 0
1, 11912, Note_off_c, 1, 60, 0
1, 11961, Note_on_c, 1, 67, 127
1, 11968, Note_on_c, 1, 59, 127
1, 11971, Note_on_c, 1, 62, 127
1, 11980, Note_on_c, 1, 43, 127
1, 12076, Note_on_c, 1, 60, 127
1, 12080, Note_off_c, 1, 59, 0
1, 12087, Note_on_c, 1, 57, 127
1, 12092, Note_off_c, 1, 67, 0
1, 12092, Note_off_c, 1, 62, 0
1, 12092, Note_off_c, 1, 43, 0
1, 12149, Note_off_c, 1, 60, 0
1, 12163, Note_off_c, 1, 57, 0
1, 12224, Note_on_c, 1, 62, 127
1, 12228, Note_on_c, 1, 59, 127
1, 12230, Note_on_c, 1, 55, 127
1, 12234, Note_on_c, 1, 67, 127
1, 12512, Note_off_c, 1, 62, 0
1, 12529, Note_off_c, 1, 59, 0
1, 12538, Note_off_c, 1, 67, 0
1, 12577, Note_off_c, 1, 55, 0
1, 12690, Note_on_c, 1, 72, 127
1, 12714, Note_on_c, 1, 67, 127
1, 12719, Note_on_c, 1, 64, 127
1, 12797, Note_off_c, 1, 72, 0
1, 12823, Note_off_c, 1, 67, 0
1, 12823, Note_on_c, 1, 65, 127
1, 12825, Note_off_c, 1, 64, 0
1, 12890, Note_off_c, 1, 65, 0
1, 12937, Note_on_c, 1, 79, 127
1, 12944, Note_on_c, 1, 72, 127
1, 12949, Note_on_c, 1, 64, 127
1, 13060, Note_on_c, 1, 71, 127
1, 13061, Note_off_c, 1, 72, 0
1, 13070, Note_on_c, 1, 62, 127
1, 13089, Note_off_c, 1, 64, 0
1, 13141, Note_off_c, 1, 71, 0
1, 13145, Note_off_c, 1, 62, 0
1, 13274, Note_off_c, 1, 79, 0
1, 13293, Note_on_c, 1, 74, 127
1, 13301, Note_on_c, 1, 65, 127
1, 13365, Note_off_c, 1, 74, 0
1, 13379, Note_off_c, 1, 65, 0
1, 13412, Note_on_c, 1, 79, 127
1, 13421, Note_on_c, 1, 67, 127
1, 13422, Note_on_c, 1, 76, 127
1, 13440, Note_on_c, 1, 48, 127
1, 13514, Note_off_c, 1, 79, 0
1, 13533, Note_on_c, 1, 74, 127
1, 13533, Note_on_c, 1, 65, 127
1, 13540, Note_off_c, 1, 67, 0
1, 13540, Note_off_c, 1, 48, 0
1, 13545, Note_off_c, 1, 76, 0
1, 13595, Note_off_c, 1, 74, 0
1, 13599, Note_off_c, 1, 65, 0
1, 13657, Note_on_c, 1, 72, 127
1, 13661, Note_on_c, 1, 64, 127
1, 13668, Note_on_c, 1, 79, 127
1, 13686, Note_on_c, 1, 60, 127
1, 13752, Note_off_c, 1, 72, 0
1, 13768, Note_on_c, 1, 71, 127
1, 13782, Note_off_c, 1, 64, 0
1, 13784, Note_on_c, 1, 62, 127
1, 13835, Note_off_c, 1, 71, 0
1, 13858, Note_off_c, 1, 62, 0
1, 13981, Note_off_c, 1, 79, 0
1, 14005, Note_on_c, 1, 77, 127
1, 14024, Note_off_c, 1, 60, 0
1, 14026, Note_on_c, 1, 81, 127
1, 14027, Note_on_c, 1, 65, 127
1, 14083, Note_off_c, 1, 77, 0
1, 14100, Note_off_c, 1, 65, 0
1, 14102, Note_off_c, 1, 81, 0
1, 14124, Note_on_c, 1, 76, 127
1, 14140, Note_on_c, 1, 82, 127
1, 14145, Note_on_c, 1, 67, 127
1, 14223, Note_off_c, 1, 76, 0
1, 14243, Note_on_c, 1, 74, 127
1, 14248, Note_off_c, 1, 82, 0
1, 14250, Note_on_c, 1, 64, 127
1, 14255, Note_off_c, 1, 67, 0
1, 14318, Note_off_c, 1, 74, 0
1, 14321, Note_off_c, 1, 64, 0
1, 14369, Note_on_c, 1, 72, 127
1, 14380, Note_on_c, 1, 65, 127
1, 14394, Note_on_c, 1, 81, 127
1, 14473, Note_on_c, 1, 70, 127
1, 14485, Note_off_c, 1, 65, 0
1, 14485, Note_on_c, 1, 64, 127
1, 14492, Note_off_c, 1, 72, 0
1, 14556, Note_off_c, 1, 70, 0
1, 14573, Note_off_c, 1, 64, 0
1, 14616, Note_on_c, 1, 69, 127
1, 14724, Note_on_c, 1, 67, 127
1, 14725, Note_off_c, 1, 81, 0
1, 14725, Note_off_c, 1, 69, 0
1, 14794, Note_off_c, 1, 67, 0
1, 14843, Note_on_c, 1, 69, 127
1, 14850, Note_on_c, 1, 74, 127
1, 14850, Note_on_c, 1, 65, 127
1, 14855, Note_on_c, 1, 48, 127
1, 14955, Note_off_c, 1, 74, 0
1, 14959, Note_off_c, 1, 69, 0
1, 14959, Note_on_c, 1, 67, 127
1, 14967, Note_off_c, 1, 65, 0
1, 14983, Note_off_c, 1, 48, 0
1, 15036, Note_off_c, 1, 67, 0
1, 15093, Note_on_c, 1, 65, 127
1, 15097, Note_on_c, 1, 69, 127
1, 15107, Note_on_c, 1, 74, 127
1, 15120, Note_on_c, 1, 60, 127
1, 15207, Note_on_c, 1, 67, 127
1, 15207, Note_on_c, 1, 64, 127
1, 15208, Note_off_c, 1, 65, 0
1, 15211, Note_off_c, 1, 69, 0
1, 15284, Note_off_c, 1, 64, 0
1, 15285, Note_off_c, 1, 67, 0
1, 15422, Note_off_c, 1, 74, 0
1, 15453, Note_on_c, 1, 71, 127
1, 15461, Note_on_c, 1, 76, 127
1, 15479, Note_off_c, 1, 60, 0
1, 15527, Note_off_c, 1, 71, 0
1, 15544, Note_off_c, 1, 76, 0
1, 15562, Note_on_c, 1, 69, 127
1, 15577, Note_on_c, 1, 72, 127
1, 15581, Note_on_c, 1, 77, 127
1, 15679, Note_on_c, 1, 65, 127
1, 15684, Note_off_c, 1, 69, 0
1, 15702, Note_off_c, 1, 77, 0
1, 15707, Note_off_c, 1, 72, 0
1, 15745, Note_off_c, 1, 65, 0
1, 15811, Note_on_c, 1, 62, 127
1, 15826, Note_on_c, 1, 71, 127
1, 15826, Note_on_c, 1, 65, 127
1, 15929, Note_off_c, 1, 65, 0
1, 15933, Note_on_c, 1, 60, 127
1, 15937, Note_on_c, 1, 64, 127
1, 15944, Note_off_c, 1, 62, 0
1, 16016, Note_off_c, 1, 60, 0
1, 16018, Note_off_c, 1, 64, 0
1, 16130, Note_off_c, 1, 71, 0
1, 16162, Note_on_c, 1, 72, 127
1, 16177, Note_on_c, 1, 67, 127
1, 16246, Note_off_c, 1, 67, 0
1, 16262, Note_off_c, 1, 72, 0
1, 16281, Note_on_c, 1, 74, 127
1, 16285, Note_on_c, 1, 48, 127
1, 16291, Note_on_c, 1, 65, 127
1, 16296, Note_on_c, 1, 69, 127
1, 16396, Note_off_c, 1, 69, 0
1, 16400, Note_off_c, 1, 74, 0
1, 16407, Note_on_c, 1, 62, 127
1, 16441, Note_off_c, 1, 48, 0
1, 16459, Note_off_c, 1, 62, 0
1, 16479, Note_off_c, 1, 65, 0
1, 16524, Note_on_c, 1, 67, 127
1, 16535, Note_on_c, 1, 59, 127
1, 16536, Note_on_c, 1, 62, 127
1, 16556, Note_on_c, 1, 60, 127
1, 16638, Note_off_c, 1, 59, 0
1, 16641, Note_on_c, 1, 57, 127
1, 16645, Note_on_c, 1, 65, 127
1, 16652, Note_off_c, 1, 62, 0
1, 16713, Note_off_c, 1, 65, 0
1, 16721, Note_off_c, 1, 57, 0
1, 16884, Note_on_c, 1, 69, 127
1, 16901, Note_off_c, 1, 67, 0
1, 16906, Note_on_c, 1, 79, 127
1, 16946, Note_off_c, 1, 69, 0
1, 16967, Note_off_c, 1, 60, 0
1, 16980, Note_off_c, 1, 79, 0
1, 17002, Note_on_c, 1, 62, 127
1, 17012, Note_on_c, 1, 71, 127
1, 17022, Note_on_c, 1, 77, 127
1, 17093, Note_off_c, 1, 62, 0
1, 17113, Note_on_c, 1, 59, 127
1, 17120, Note_off_c, 1, 71, 0
1, 17126, Note_on_c, 1, 74, 127
1, 17148, Note_off_c, 1, 77, 0
1, 17187, Note_off_c, 1, 74, 0
1, 17198, Note_off_c, 1, 59, 0
1, 17255, Note_on_c, 1, 60, 127
1, 17259, Note_on_c, 1, 67, 127
1, 17264, Note_on_c, 1, 76, 127
1, 17362, Note_off_c, 1, 67, 0
1, 17364, Note_on_c, 1, 59, 127
1, 17369, Note_on_c, 1, 77, 127
1, 17374, Note_off_c, 1, 60, 0
1, 17444, Note_off_c, 1, 59, 0
1, 17447, Note_off_c, 1, 77, 0
1, 17599, Note_off_c, 1, 76, 0
1, 17608, Note_on_c, 1, 62, 127
1, 17609, Note_on_c, 1, 74, 127
1, 17679, Note_off_c, 1, 74, 0
1, 17684, Note_off_c, 1, 62, 0
1, 17730, Note_on_c, 1, 72, 127
1, 17730, Note_on_c, 1, 48, 127
1, 17732, Note_on_c, 1, 79, 127
1, 17736, Note_on_c, 1, 64, 127
1, 17831, Note_off_c, 1, 72, 0
1, 17834, Note_off_c, 1, 64, 0
1, 17837, Note_on_c, 1, 71, 127
1, 17841, Note_off_c, 1, 79, 0
1, 17848, Note_on_c, 1, 62, 127
1, 17860, Note_off_c, 1, 48, 0
1, 17912, Note_off_c, 1, 71, 0
1, 17924, Note_off_c, 1, 62, 0
1, 17964, Note_on_c, 1, 72, 127
1, 17974, Note_on_c, 1, 64, 127
1, 17991, Note_on_c, 1, 60, 127
1, 18081, Note_on_c, 1, 69, 127
1, 18086, Note_off_c, 1, 64, 0
1, 18088, Note_on_c, 1, 65, 127
1, 18160, Note_off_c, 1, 69, 0
1, 18168, Note_off_c, 1, 65, 0
1, 18212, Note_on_c, 1, 67, 127
1, 18282, Note_off_c, 1, 72, 0
1, 18321, Note_on_c, 1, 62, 127
1, 18330, Note_off_c, 1, 60, 0
1, 18335, Note_on_c, 1, 74, 127
1, 18344, Note_off_c, 1, 67, 0
1, 18401, Note_off_c, 1, 62, 0
1, 18411, Note_off_c, 1, 74, 0
1, 18442, Note_on_c, 1, 64, 127
1, 18442, Note_on_c, 1, 76, 127
1, 18444, Note_on_c, 1, 60, 127
1, 18515, Note_off_c, 1, 76, 0
1, 18536, Note_off_c, 1, 60, 0
1, 18556, Note_off_c, 1, 64, 0
1, 18558, Note_on_c, 1, 77, 127
1, 18562, Note_on_c, 1, 62, 127
1, 18638, Note_off_c, 1, 77, 0
1, 18643, Note_off_c, 1, 62, 0
1, 18686, Note_on_c, 1, 79, 127
1, 18691, Note_on_c, 1, 64, 127
1, 18703, Note_on_c, 1, 60, 127
1, 18791, Note_off_c, 1, 64, 0
1, 18803, Note_on_c, 1, 62, 127
1, 18814, Note_on_c, 1, 67, 127
1, 18828, Note_off_c, 1, 60, 0
1, 18881, Note_off_c, 1, 62, 0
1, 18881, Note_off_c, 1, 67, 0
1, 18942, Note_on_c, 1, 72, 127
1, 19028, Note_off_c, 1, 79, 0
1, 19047, Note_off_c, 1, 72, 0
1, 19047, Note_on_c, 1, 65, 127
1, 19059, Note_on_c, 1, 74, 127
1, 19122, Note_off_c, 1, 65, 0
1, 19132, Note_off_c, 1, 74, 0
1, 19165, Note_on_c, 1, 67, 127
1, 19178, Note_on_c, 1, 79, 127
1, 19180, Note_on_c, 1, 76, 127
1, 19180, Note_on_c, 1, 48, 127
1, 19275, Note_off_c, 1, 67, 0
1, 19275, Note_off_c, 1, 79, 0
1, 19280, Note_on_c, 1, 65, 127
1, 19294, Note_on_c, 1, 74, 127
1, 19301, Note_off_c, 1, 76, 0
1, 19311, Note_off_c, 1, 48, 0
1, 19348, Note_off_c, 1, 65, 0
1, 19356, Note_off_c, 1, 74, 0
1, 19408, Note_on_c, 1, 64, 127
1, 19419, Note_on_c, 1, 72, 127
1, 19428, Note_on_c, 1, 79, 127
1, 19439, Note_on_c, 1, 60, 127
1, 19500, Note_off_c, 1, 64, 0
1, 19519, Note_on_c, 1, 65, 127
1, 19522, Note_off_c, 1, 72, 0
1, 19529, Note_on_c, 1, 71, 127
1, 19590, Note_off_c, 1, 65, 0
1, 19609, Note_off_c, 1, 71, 0
1, 19752, Note_off_c, 1, 79, 0
1, 19764, Note_on_c, 1, 62, 127
1, 19778, Note_on_c, 1, 74, 127
1, 19780, Note_off_c, 1, 60, 0
1, 19800, Note_on_c, 1, 84, 127
1, 19823, Note_off_c, 1, 62, 0
1, 19845, Note_off_c, 1, 74, 0
1, 19883, Note_off_c, 1, 84, 0
1, 19899, Note_on_c, 1, 76, 127
1, 19920, Note_on_c, 1, 81, 127
1, 20010, Note_off_c, 1, 81, 0
1, 20013, Note_off_c, 1, 76, 0
1, 20135, Note_on_c, 1, 62, 127
1, 20148, Note_on_c, 1, 78, 127
1, 20156, Note_on_c, 1, 69, 127
1, 20241, Note_off_c, 1, 62, 0
1, 20253, Note_on_c, 1, 74, 127
1, 20260, Note_off_c, 1, 69, 0
1, 20264, Note_on_c, 1, 67, 127
1, 20336, Note_off_c, 1, 74, 0
1, 20347, Note_off_c, 1, 67, 0
1, 20371, Note_on_c, 1, 72, 127
1, 20469, Note_off_c, 1, 78, 0
1, 20471, Note_off_c, 1, 72, 0
1, 20492, Note_on_c, 1, 71, 127
1, 20504, Note_on_c, 1, 79, 127
1, 20566, Note_off_c, 1, 71, 0
1, 20576, Note_off_c, 1, 79, 0
1, 20613, Note_on_c, 1, 72, 127
1, 20614, Note_on_c, 1, 81, 127
1, 20616, Note_on_c, 1, 69, 127
1, 20623, Note_on_c, 1, 48, 127
1, 20718, Note_off_c, 1, 72, 0
1, 20718, Note_off_c, 1, 69, 0
1, 20730, Note_on_c, 1, 67, 127
1, 20744, Note_off_c, 1, 48, 0
1, 20746, Note_off_c, 1, 81, 0
1, 20815, Note_off_c, 1, 67, 0
1, 20858, Note_on_c, 1, 74, 127
1, 20858, Note_on_c, 1, 69, 127
1, 20860, Note_on_c, 1, 66, 127
1, 20880, Note_on_c, 1, 60, 127
1, 20970, Note_off_c, 1, 66, 0
1, 20970, Note_on_c, 1, 67, 127
1, 20974, Note_on_c, 1, 64, 127
1, 20976, Note_off_c, 1, 69, 0
1, 21045, Note_off_c, 1, 64, 0
1, 21062, Note_off_c, 1, 67, 0
1, 21159, Note_off_c, 1, 74, 0
1, 21206, Note_on_c, 1, 71, 127
1, 21216, Note_on_c, 1, 76, 127
1, 21245, Note_off_c, 1, 60, 0
1, 21280, Note_off_c, 1, 71, 0
1, 21306, Note_off_c, 1, 76, 0
1, 21323, Note_on_c, 1, 69, 127
1, 21328, Note_on_c, 1, 72, 127
1, 21338, Note_on_c, 1, 78, 127
1, 21428, Note_off_c, 1, 69, 0
1, 21433, Note_off_c, 1, 72, 0
1, 21435, Note_on_c, 1, 62, 127
1, 21444, Note_off_c, 1, 78, 0
1, 21520, Note_off_c, 1, 62, 0
1, 21561, Note_on_c, 1, 74, 127
1, 21561, Note_on_c, 1, 71, 127
1, 21579, Note_on_c, 1, 79, 127
1, 21677, Note_off_c, 1, 71, 0
1, 21679, Note_on_c, 1, 69, 127
1, 21682, Note_on_c, 1, 72, 127
1, 21687, Note_off_c, 1, 74, 0
1, 21749, Note_off_c, 1, 69, 0
1, 21750, Note_off_c, 1, 72, 0
1, 21805, Note_on_c, 1, 67, 127
1, 21859, Note_off_c, 1, 79, 0
1, 21917, Note_on_c, 1, 66, 127
1, 21926, Note_off_c, 1, 67, 0
1, 21928, Note_on_c, 1, 59, 127
1, 21985, Note_off_c, 1, 66, 0
1, 22009, Note_off_c, 1, 59, 0
1, 22038, Note_on_c, 1, 60, 127
1, 22042, Note_on_c, 1, 64, 127
1, 22050, Note_on_c, 1, 67, 127
1, 22052, Note_on_c, 1, 76, 127
1, 22145, Note_off_c, 1, 60, 0
1, 22154, Note_off_c, 1, 64, 0
1, 22163, Note_on_c, 1, 71, 127
1, 22178, Note_off_c, 1, 76, 0
1, 22225, Note_off_c, 1, 67, 0
1, 22227, Note_off_c, 1, 71, 0
1, 22284, Note_on_c, 1, 66, 127
1, 22294, Note_on_c, 1, 69, 127
1, 22299, Note_on_c, 1, 62, 127
1, 22392, Note_on_c, 1, 67, 127
1, 22399, Note_off_c, 1, 66, 0
1, 22467, Note_off_c, 1, 67, 0
1, 22608, Note_off_c, 1, 62, 0
1, 22641, Note_on_c, 1, 64, 127
1, 22653, Note_off_c, 1, 69, 0
1, 22664, Note_on_c, 1, 71, 127
1, 22714, Note_off_c, 1, 64, 0
1, 22744, Note_off_c, 1, 71, 0
1, 22764, Note_on_c, 1, 62, 127
1, 22769, Note_on_c, 1, 66, 127
1, 22774, Note_on_c, 1, 50, 127
1, 22783, Note_on_c, 1, 72, 127
1, 22860, Note_off_c, 1, 62, 0
1, 22873, Note_off_c, 1, 50, 0
1, 22875, Note_on_c, 1, 69, 127
1, 22889, Note_off_c, 1, 72, 0
1, 22892, Note_off_c, 1, 66, 0
1, 22892, Note_on_c, 1, 64, 127
1, 22958, Note_off_c, 1, 64, 0
1, 22959, Note_off_c, 1, 69, 0
1, 23009, Note_on_c, 1, 71, 127
1, 23010, Note_on_c, 1, 62, 127
1, 23032, Note_on_c, 1, 55, 127
1, 23104, Note_off_c, 1, 62, 0
1, 23125, Note_on_c, 1, 67, 127
1, 23134, Note_on_c, 1, 64, 127
1, 23199, Note_off_c, 1, 64, 0
1, 23201, Note_off_c, 1, 67, 0
1, 23250, Note_on_c, 1, 66, 127
1, 23350, Note_off_c, 1, 55, 0
1, 23350, Note_off_c, 1, 66, 0
1, 23364, Note_off_c, 1, 71, 0
1, 23367, Note_on_c, 1, 60, 127
1, 23428, Note_off_c, 1, 60, 0
1, 23483, Note_on_c, 1, 62, 127
1, 23486, Note_on_c, 1, 67, 127
1, 23489, Note_on_c, 1, 59, 127
1, 23500, Note_on_c, 1, 43, 127
1, 23580, Note_off_c, 1, 62, 0
1, 23587, Note_off_c, 1, 59, 0
1, 23593, Note_off_c, 1, 67, 0
1, 23595, Note_on_c, 1, 60, 127
1, 23604, Note_on_c, 1, 57, 127
1, 23621, Note_off_c, 1, 43, 0
1, 23678, Note_off_c, 1, 60, 0
1, 23685, Note_off_c, 1, 57, 0
1, 23740, Note_on_c, 1, 62, 127
1, 23743, Note_on_c, 1, 55, 127
1, 23744, Note_on_c, 1, 67, 127
1, 23749, Note_on_c, 1, 59, 127
1, 24019, Note_off_c, 1, 62, 0
1, 24019, Note_off_c, 1, 59, 0
1, 24053, Note_off_c, 1, 67, 0
1, 24062, Note_off_c, 1, 55, 0
1, 24228, Note_on_c, 1, 74, 127
1, 24236, Note_on_c, 1, 67, 127
1, 24245, Note_on_c, 1, 59, 127
1, 24326, Note_off_c, 1, 74, 0
1, 24338, Note_off_c, 1, 67, 0
1, 24338, Note_on_c, 1, 69, 127
1, 24345, Note_on_c, 1, 60, 127
1, 24362, Note_off_c, 1, 59, 0
1, 24418, Note_off_c, 1, 60, 0
1, 24423, Note_off_c, 1, 69, 0
1, 24461, Note_on_c, 1, 62, 127
1, 24470, Note_on_c, 1, 71, 127
1, 24572, Note_off_c, 1, 62, 0
1, 24572, Note_on_c, 1, 60, 127
1, 24582, Note_on_c, 1, 69, 127
1, 24644, Note_off_c, 1, 69, 0
1, 24667, Note_off_c, 1, 60, 0
1, 24807, Note_on_c, 1, 72, 127
1, 24808, Note_off_c, 1, 71, 0
1, 24817, Note_on_c, 1, 64, 127
1, 24874, Note_off_c, 1, 72, 0
1, 24891, Note_off_c, 1, 64, 0
1, 24926, Note_on_c, 1, 74, 127
1, 24926, Note_on_c, 1, 71, 127
1, 24936, Note_on_c, 1, 65, 127
1, 24946, Note_on_c, 1, 43, 127
1, 25038, Note_on_c, 1, 72, 127
1, 25040, Note_on_c, 1, 64, 127
1, 25052, Note_off_c, 1, 43, 0
1, 25055, Note_off_c, 1, 74, 0
1, 25061, Note_off_c, 1, 71, 0
1, 25073, Note_off_c, 1, 65, 0
1, 25095, Note_off_c, 1, 72, 0
1, 25116, Note_off_c, 1, 64, 0
1, 25164, Note_on_c, 1, 62, 127
1, 25166, Note_on_c, 1, 71, 127
1, 25199, Note_on_c, 1, 55, 127
1, 25271, Note_on_c, 1, 60, 127
1, 25282, Note_off_c, 1, 62, 0
1, 25283, Note_on_c, 1, 69, 127
1, 25358, Note_off_c, 1, 60, 0
1, 25370, Note_off_c, 1, 69, 0
1, 25522, Note_on_c, 1, 72, 127
1, 25524, Note_off_c, 1, 71, 0
1, 25524, Note_on_c, 1, 64, 127
1, 25579, Note_off_c, 1, 55, 0
1, 25589, Note_off_c, 1, 72, 0
1, 25610, Note_off_c, 1, 64, 0
1, 25646, Note_on_c, 1, 65, 127
1, 25648, Note_on_c, 1, 74, 127
1, 25653, Note_on_c, 1, 67, 127
1, 25764, Note_on_c, 1, 72, 127
1, 25764, Note_on_c, 1, 64, 127
1, 25776, Note_off_c, 1, 74, 0
1, 25781, Note_off_c, 1, 67, 0
1, 25791, Note_off_c, 1, 65, 0
1, 25819, Note_off_c, 1, 72, 0
1, 25850, Note_off_c, 1, 64, 0
1, 25885, Note_on_c, 1, 71, 127
1, 25892, Note_on_c, 1, 77, 127
1, 25897, Note_on_c, 1, 62, 127
1, 25992, Note_off_c, 1, 71, 0
1, 26004, Note_on_c, 1, 69, 127
1, 26010, Note_on_c, 1, 60, 127
1, 26030, Note_off_c, 1, 62, 0
1, 26077, Note_off_c, 1, 69, 0
1, 26087, Note_off_c, 1, 60, 0
1, 26215, Note_off_c, 1, 77, 0
1, 26241, Note_on_c, 1, 72, 127
1, 26246, Note_on_c, 1, 64, 127
1, 26253, Note_on_c, 1, 76, 127
1, 26303, Note_off_c, 1, 72, 0
1, 26341, Note_off_c, 1, 64, 0
1, 26355, Note_off_c, 1, 76, 0
1, 26363, Note_on_c, 1, 65, 127
1, 26363, Note_on_c, 1, 74, 127
1, 26382, Note_on_c, 1, 44, 127
1, 26477, Note_on_c, 1, 64, 127
1, 26481, Note_on_c, 1, 72, 127
1, 26497, Note_off_c, 1, 74, 0
1, 26509, Note_off_c, 1, 65, 0
1, 26522, Note_off_c, 1, 44, 0
1, 26545, Note_off_c, 1, 72, 0
1, 26554, Note_off_c, 1, 64, 0
1, 26609, Note_on_c, 1, 62, 127
1, 26611, Note_on_c, 1, 71, 127
1, 26617, Note_on_c, 1, 83, 127
1, 26635, Note_on_c, 1, 56, 127
1, 26718, Note_on_c, 1, 60, 127
1, 26721, Note_on_c, 1, 69, 127
1, 26726, Note_off_c, 1, 71, 0
1, 26737, Note_off_c, 1, 62, 0
1, 26792, Note_off_c, 1, 69, 0
1, 26804, Note_off_c, 1, 60, 0
1, 26928, Note_off_c, 1, 83, 0
1, 26953, Note_on_c, 1, 72, 127
1, 26953, Note_on_c, 1, 64, 127
1, 26961, Note_on_c, 1, 74, 127
1, 27008, Note_off_c, 1, 56, 0
1, 27018, Note_off_c, 1, 72, 0
1, 27053, Note_off_c, 1, 64, 0
1, 27053, Note_off_c, 1, 74, 0
1, 27079, Note_on_c, 1, 71, 127
1, 27081, Note_on_c, 1, 62, 127
1, 27093, Note_on_c, 1, 77, 127
1, 27184, Note_on_c, 1, 60, 127
1, 27195, Note_on_c, 1, 69, 127
1, 27200, Note_off_c, 1, 62, 0
1, 27203, Note_off_c, 1, 71, 0
1, 27212, Note_off_c, 1, 77, 0
1, 27253, Note_off_c, 1, 69, 0
1, 27267, Note_off_c, 1, 60, 0
1, 27314, Note_on_c, 1, 68, 127
1, 27319, Note_on_c, 1, 59, 127
1, 27341, Note_on_c, 1, 76, 127
1, 27425, Note_off_c, 1, 59, 0
1, 27428, Note_on_c, 1, 64, 127
1, 27440, Note_off_c, 1, 68, 0
1, 27445, Note_on_c, 1, 56, 127
1, 27497, Note_off_c, 1, 64, 0
1, 27532, Note_off_c, 1, 56, 0
1, 27557, Note_on_c, 1, 66, 127
1, 27573, Note_on_c, 1, 57, 127
1, 27646, Note_off_c, 1, 76, 0
1, 27677, Note_on_c, 1, 74, 127
1, 27680, Note_off_c, 1, 66, 0
1, 27701, Note_off_c, 1, 57, 0
1, 27777, Note_off_c, 1, 74, 0
1, 27794, Note_on_c, 1, 69, 127
1, 27798, Note_on_c, 1, 72, 127
1, 27798, Note_on_c, 1, 40, 127
1, 27812, Note_on_c, 1, 60, 127
1, 27894, Note_off_c, 1, 69, 0
1, 27901, Note_off_c, 1, 60, 0
1, 27910, Note_on_c, 1, 66, 127
1, 27927, Note_on_c, 1, 62, 127
1, 27931, Note_off_c, 1, 72, 0
1, 27936, Note_off_c, 1, 40, 0
1, 27981, Note_off_c, 1, 66, 0
1, 28005, Note_off_c, 1, 62, 0
1, 28045, Note_on_c, 1, 68, 127
1, 28048, Note_on_c, 1, 64, 127
1, 28055, Note_on_c, 1, 71, 127
1, 28070, Note_on_c, 1, 52, 127
1, 28157, Note_on_c, 1, 66, 127
1, 28163, Note_off_c, 1, 64, 0
1, 28163, Note_on_c, 1, 62, 127
1, 28181, Note_off_c, 1, 68, 0
1, 28240, Note_off_c, 1, 66, 0
1, 28252, Note_off_c, 1, 62, 0
1, 28359, Note_off_c, 1, 71, 0
1, 28402, Note_on_c, 1, 69, 127
1, 28416, Note_on_c, 1, 76, 127
1, 28444, Note_off_c, 1, 52, 0
1, 28475, Note_off_c, 1, 69, 0
1, 28499, Note_off_c, 1, 76, 0
1, 28523, Note_on_c, 1, 74, 127
1, 28525, Note_on_c, 1, 68, 127
1, 28541, Note_on_c, 1, 71, 127
1, 28632, Note_on_c, 1, 64, 127
1, 28650, Note_off_c, 1, 68, 0
1, 28656, Note_off_c, 1, 74, 0
1, 28663, Note_off_c, 1, 71, 0
1, 28696, Note_off_c, 1, 64, 0
1, 28764, Note_on_c, 1, 57, 127
1, 28773, Note_on_c, 1, 69, 127
1, 28781, Note_on_c, 1, 72, 127
1, 28872, Note_off_c, 1, 57, 0
1, 28885, Note_on_c, 1, 65, 127
1, 28947, Note_off_c, 1, 65, 0
1, 28959, Note_off_c, 1, 69, 0
1, 29002, Note_on_c, 1, 67, 127
1, 29012, Note_on_c, 1, 64, 127
1, 29116, Note_on_c, 1, 62, 127
1, 29122, Note_off_c, 1, 64, 0
1, 29128, Note_off_c, 1, 72, 0
1, 29137, Note_off_c, 1, 67, 0
1, 29178, Note_off_c, 1, 62, 0
1, 29246, Note_on_c, 1, 60, 127
1, 29246, Note_on_c, 1, 64, 127
1, 29247, Note_on_c, 1, 69, 127
1, 29265, Note_on_c, 1, 45, 127
1, 29356, Note_off_c, 1, 64, 0
1, 29356, Note_on_c, 1, 62, 127
1, 29365, Note_off_c, 1, 69, 0
1, 29365, Note_on_c, 1, 59, 127
1, 29377, Note_off_c, 1, 60, 0
1, 29401, Note_off_c, 1, 45, 0
1, 29438, Note_off_c, 1, 62, 0
1, 29441, Note_off_c, 1, 59, 0
1, 29486, Note_on_c, 1, 64, 127
1, 29495, Note_on_c, 1, 60, 127
1, 29509, Note_on_c, 1, 69, 127
1, 29520, Note_on_c, 1, 57, 127
1, 29583, Note_off_c, 1, 60, 0
1, 29597, Note_on_c, 1, 62, 127
1, 29603, Note_on_c, 1, 59, 127
1, 29609, Note_off_c, 1, 64, 0
1, 29679, Note_off_c, 1, 62, 0
1, 29693, Note_off_c, 1, 59, 0
1, 29823, Note_off_c, 1, 69, 0
1, 29849, Note_on_c, 1, 65, 127
1, 29854, Note_on_c, 1, 71, 127
1, 29899, Note_off_c, 1, 57, 0
1, 29923, Note_off_c, 1, 65, 0
1, 29946, Note_off_c, 1, 71, 0
1, 29961, Note_on_c, 1, 67, 127
1, 29966, Note_on_c, 1, 72, 127
1, 29980, Note_on_c, 1, 64, 127
1, 30056, Note_off_c, 1, 72, 0
1, 30070, Note_on_c, 1, 69, 127
1, 30077, Note_off_c, 1, 67, 0
1, 30079, Note_on_c, 1, 74, 127
1, 30098, Note_on_c, 1, 65, 127
1, 30113, Note_off_c, 1, 64, 0
1, 30158, Note_off_c, 1, 65, 0
1, 30160, Note_off_c, 1, 74, 0
1, 30168, Note_off_c, 1, 69, 0
1, 30205, Note_on_c, 1, 70, 127
1, 30208, Note_on_c, 1, 76, 127
1, 30217, Note_on_c, 1, 67, 127
1, 30319, Note_on_c, 1, 72, 127
1, 30322, Note_on_c, 1, 65, 127
1, 30334, Note_off_c, 1, 67, 0
1, 30336, Note_off_c, 1, 70, 0
1, 30402, Note_off_c, 1, 72, 0
1, 30402, Note_off_c, 1, 65, 0
1, 30543, Note_off_c, 1, 76, 0
1, 30556, Note_on_c, 1, 69, 127
1, 30635, Note_off_c, 1, 69, 0
1, 30683, Note_on_c, 1, 43, 127
1, 30687, Note_on_c, 1, 67, 127
1, 30689, Note_on_c, 1, 70, 127
1, 30697, Note_on_c, 1, 76, 127
1, 30797, Note_on_c, 1, 69, 127
1, 30804, Note_off_c, 1, 76, 0
1, 30808, Note_off_c, 1, 70, 0
1, 30823, Note_off_c, 1, 43, 0
1, 30830, Note_off_c, 1, 67, 0
1, 30898, Note_off_c, 1, 69, 0
1, 30926, Note_on_c, 1, 67, 127
1, 30946, Note_on_c, 1, 76, 127
1, 30947, Note_on_c, 1, 70, 127
1, 30955, Note_on_c, 1, 55, 127
1, 31032, Note_off_c, 1, 67, 0
1, 31039, Note_on_c, 1, 65, 127
1, 31057, Note_on_c, 1, 69, 127
1, 31077, Note_off_c, 1, 70, 0
1, 31110, Note_off_c, 1, 65, 0
1, 31155, Note_off_c, 1, 69, 0
1, 31236, Note_off_c, 1, 76, 0
1, 31292, Note_on_c, 1, 72, 127
1, 31307, Note_on_c, 1, 82, 127
1, 31345, Note_off_c, 1, 55, 0
1, 31376, Note_off_c, 1, 72, 0
1, 31392, Note_off_c, 1, 82, 0
1, 31406, Note_on_c, 1, 70, 127
1, 31411, Note_on_c, 1, 74, 127
1, 31416, Note_on_c, 1, 79, 127
1, 31518, Note_on_c, 1, 69, 127
1, 31520, Note_on_c, 1, 72, 127
1, 31530, Note_off_c, 1, 79, 0
1, 31535, Note_off_c, 1, 74, 0
1, 31537, Note_off_c, 1, 70, 0
1, 31587, Note_off_c, 1, 69, 0
1, 31606, Note_off_c, 1, 72, 0
1, 31656, Note_on_c, 1, 67, 127
1, 31656, Note_on_c, 1, 70, 127
1, 31658, Note_on_c, 1, 76, 127
1, 31763, Note_on_c, 1, 72, 127
1, 31770, Note_on_c, 1, 65, 127
1, 31779, Note_off_c, 1, 67, 0
1, 31795, Note_off_c, 1, 70, 0
1, 31841, Note_off_c, 1, 65, 0
1, 31846, Note_off_c, 1, 72, 0
1, 31955, Note_off_c, 1, 76, 0
1, 31997, Note_on_c, 1, 69, 127
1, 32014, Note_on_c, 1, 79, 127
1, 32107, Note_off_c, 1, 79, 0
1, 32119, Note_off_c, 1, 69, 0
1, 32126, Note_on_c, 1, 70, 127
1, 32126, Note_on_c, 1, 43, 127
1, 32132, Note_on_c, 1, 67, 127
1, 32132, Note_on_c, 1, 76, 127
1, 32239, Note_off_c, 1, 43, 0
1, 32240, Note_off_c, 1, 76, 0
1, 32242, Note_on_c, 1, 65, 127
1, 32244, Note_off_c, 1, 70, 0
1, 32304, Note_off_c, 1, 67, 0
1, 32315, Note_off_c, 1, 65, 0
1, 32371, Note_on_c, 1, 64, 127
1, 32375, Note_on_c, 1, 69, 127
1, 32380, Note_on_c, 1, 73, 127
1, 32394, Note_on_c, 1, 55, 127
1, 32477, Note_off_c, 1, 69, 0
1, 32487, Note_on_c, 1, 62, 127
1, 32489, Note_on_c, 1, 67, 127
1, 32494, Note_off_c, 1, 64, 0
1, 32557, Note_off_c, 1, 62, 0
1, 32564, Note_off_c, 1, 67, 0
1, 32598, Note_on_c, 1, 61, 127
1, 32664, Note_off_c, 1, 73, 0
1, 32695, Note_off_c, 1, 61, 0
1, 32724, Note_on_c, 1, 71, 127
1, 32726, Note_on_c, 1, 58, 127
1, 32735, Note_on_c, 1, 76, 127
1, 32782, Note_off_c, 1, 55, 0
1, 32792, Note_off_c, 1, 71, 0
1, 32805, Note_off_c, 1, 58, 0
1, 32819, Note_off_c, 1, 76, 0
1, 32837, Note_on_c, 1, 57, 127
1, 32849, Note_on_c, 1, 73, 127
1, 32964, Note_on_c, 1, 69, 127
1, 32973, Note_on_c, 1, 64, 127
1, 32982, Note_off_c, 1, 73, 0
1, 33003, Note_off_c, 1, 57, 0
1, 33025, Note_off_c, 1, 69, 0
1, 33042, Note_off_c, 1, 64, 0
1, 33092, Note_on_c, 1, 65, 127
1, 33094, Note_on_c, 1, 74, 127
1, 33099, Note_on_c, 1, 69, 127
1, 33193, Note_off_c, 1, 65, 0
1, 33210, Note_on_c, 1, 61, 127
1, 33223, Note_off_c, 1, 74, 0
1, 33294, Note_off_c, 1, 61, 0
1, 33329, Note_on_c, 1, 71, 127
1, 33336, Note_on_c, 1, 62, 127
1, 33388, Note_off_c, 1, 69, 0
1, 33436, Note_off_c, 1, 62, 0
1, 33441, Note_on_c, 1, 53, 127
1, 33445, Note_on_c, 1, 64, 127
1, 33450, Note_on_c, 1, 73, 127
1, 33452, Note_on_c, 1, 81, 127
1, 33464, Note_off_c, 1, 71, 0
1, 33514, Note_off_c, 1, 73, 0
1, 33524, Note_off_c, 1, 64, 0
1, 33533, Note_off_c, 1, 53, 0
1, 33536, Note_off_c, 1, 81, 0
1, 33550, Note_on_c, 1, 50, 127
1, 33566, Note_on_c, 1, 74, 127
1, 33570, Note_on_c, 1, 77, 127
1, 33576, Note_on_c, 1, 65, 127
1, 33664, Note_off_c, 1, 65, 0
1, 33667, Note_off_c, 1, 50, 0
1, 33676, Note_on_c, 1, 69, 127
1, 33687, Note_off_c, 1, 77, 0
1, 33687, Note_on_c, 1, 67, 127
1, 33701, Note_off_c, 1, 74, 0
1, 33742, Note_off_c, 1, 69, 0
1, 33773, Note_off_c, 1, 67, 0
1, 33807, Note_on_c, 1, 65, 127
1, 33811, Note_on_c, 1, 69, 127
1, 33818, Note_on_c, 1, 74, 127
1, 33823, Note_on_c, 1, 57, 127
1, 33910, Note_off_c, 1, 65, 0
1, 33918, Note_off_c, 1, 69, 0
1, 33918, Note_on_c, 1, 64, 127
1, 33929, Note_on_c, 1, 70, 127
1, 33983, Note_off_c, 1, 64, 0
1, 34006, Note_off_c, 1, 70, 0
1, 34089, Note_off_c, 1, 74, 0
1, 34155, Note_off_c, 1, 57, 0
1, 34160, Note_on_c, 1, 67, 127
1, 34172, Note_on_c, 1, 76, 127
1, 34234, Note_off_c, 1, 67, 0
1, 34247, Note_off_c, 1, 76, 0
1, 34285, Note_on_c, 1, 65, 127
1, 34293, Note_on_c, 1, 69, 127
1, 34295, Note_on_c, 1, 45, 127
1, 34298, Note_on_c, 1, 73, 127
1, 34390, Note_off_c, 1, 45, 0
1, 34399, Note_on_c, 1, 64, 127
1, 34404, Note_on_c, 1, 67, 127
1, 34418, Note_off_c, 1, 69, 0
1, 34418, Note_off_c, 1, 73, 0
1, 34428, Note_off_c, 1, 65, 0
1, 34471, Note_off_c, 1, 67, 0
1, 34476, Note_off_c, 1, 64, 0
1, 34533, Note_on_c, 1, 62, 127
1, 34535, Note_on_c, 1, 65, 127
1, 34540, Note_on_c, 1, 50, 127
1, 34540, Note_on_c, 1, 74, 127
1, 34637, Note_off_c, 1, 65, 0
1, 34647, Note_on_c, 1, 64, 127
1, 34653, Note_on_c, 1, 61, 127
1, 34660, Note_off_c, 1, 62, 0
1, 34710, Note_off_c, 1, 64, 0
1, 34736, Note_off_c, 1, 61, 0
1, 34860, Note_off_c, 1, 74, 0
1, 34871, Note_on_c, 1, 67, 127
1, 34872, Note_off_c, 1, 50, 0
1, 34945, Note_off_c, 1, 67, 0
1, 35000, Note_on_c, 1, 69, 127
1, 35000, Note_on_c, 1, 38, 127
1, 35009, Note_on_c, 1, 74, 127
1, 35014, Note_on_c, 1, 65, 127
1, 35109, Note_on_c, 1, 67, 127
1, 35114, Note_off_c, 1, 38, 0
1, 35114, Note_off_c, 1, 65, 0
1, 35121, Note_on_c, 1, 64, 127
1, 35123, Note_off_c, 1, 74, 0
1, 35126, Note_off_c, 1, 69, 0
1, 35185, Note_off_c, 1, 67, 0
1, 35206, Note_off_c, 1, 64, 0
1, 35249, Note_on_c, 1, 65, 127
1, 35257, Note_on_c, 1, 62, 127
1, 35257, Note_on_c, 1, 50, 127
1, 35264, Note_on_c, 1, 74, 127
1, 35354, Note_off_c, 1, 65, 0
1, 35359, Note_on_c, 1, 64, 127
1, 35368, Note_off_c, 1, 62, 0
1, 35368, Note_on_c, 1, 61, 127
1, 35425, Note_off_c, 1, 64, 0
1, 35454, Note_off_c, 1, 61, 0
1, 35520, Note_off_c, 1, 74, 0
1, 35605, Note_off_c, 1, 50, 0
1, 35605, Note_on_c, 1, 67, 127
1, 35683, Note_off_c, 1, 67, 0
1, 35731, Note_on_c, 1, 69, 127
1, 35736, Note_on_c, 1, 62, 127
1, 35737, Note_on_c, 1, 77, 127
1, 35823, Note_off_c, 1, 69, 0
1, 35843, Note_on_c, 1, 60, 127
1, 35845, Note_off_c, 1, 77, 0
1, 35915, Note_off_c, 1, 62, 0
1, 35916, Note_off_c, 1, 60, 0
1, 35966, Note_on_c, 1, 59, 127
1, 35978, Note_on_c, 1, 67, 127
1, 35981, Note_on_c, 1, 77, 127
1, 36075, Note_on_c, 1, 57, 127
1, 36083, Note_off_c, 1, 59, 0
1, 36089, Note_on_c, 1, 69, 127
1, 36101, Note_off_c, 1, 67, 0
1, 36153, Note_off_c, 1, 69, 0
1, 36156, Note_off_c, 1, 57, 0
1, 36204, Note_on_c, 1, 55, 127
1, 36230, Note_on_c, 1, 71, 127
1, 36298, Note_off_c, 1, 55, 0
1, 36332, Note_on_c, 1, 72, 127
1, 36332, Note_on_c, 1, 62, 127
1, 36346, Note_off_c, 1, 71, 0
1, 36386, Note_off_c, 1, 72, 0
1, 36427, Note_off_c, 1, 62, 0
1, 36443, Note_on_c, 1, 60, 127
1, 36452, Note_on_c, 1, 74, 127
1, 36550, Note_on_c, 1, 76, 127
1, 36571, Note_off_c, 1, 74, 0
1, 36619, Note_off_c, 1, 76, 0
1, 36640, Note_off_c, 1, 60, 0
1, 36788, Note_on_c, 1, 64, 127
1, 36890, Note_off_c, 1, 64, 0
1, 36918, Note_on_c, 1, 65, 127
1, 36973, Note_off_c, 1, 77, 0
1, 37055, Note_off_c, 1, 65, 0
1, 37153, Note_on_c, 1, 71, 127
1, 37160, Note_on_c, 1, 57, 127
1, 37162, Note_on_c, 1, 76, 127
1, 37170, Note_on_c, 1, 62, 127
1, 37255, Note_off_c, 1, 76, 0
1, 37262, Note_off_c, 1, 57, 0
1, 37267, Note_on_c, 1, 69, 127
1, 37272, Note_off_c, 1, 71, 0
1, 37279, Note_off_c, 1, 62, 0
1, 37290, Note_on_c, 1, 60, 127
1, 37343, Note_off_c, 1, 69, 0
1, 37364, Note_off_c, 1, 60, 0
1, 37398, Note_on_c, 1, 71, 127
1, 37404, Note_on_c, 1, 62, 127
1, 37409, Note_on_c, 1, 55, 127
1, 37419, Note_on_c, 1, 77, 127
1, 37509, Note_on_c, 1, 72, 127
1, 37518, Note_off_c, 1, 71, 0
1, 37526, Note_off_c, 1, 62, 0
1, 37526, Note_on_c, 1, 64, 127
1, 37582, Note_off_c, 1, 72, 0
1, 37611, Note_off_c, 1, 64, 0
1, 37639, Note_on_c, 1, 74, 127
1, 37647, Note_on_c, 1, 65, 127
1, 37746, Note_off_c, 1, 55, 0
1, 37761, Note_on_c, 1, 57, 127
1, 37772, Note_off_c, 1, 77, 0
1, 37772, Note_off_c, 1, 74, 0
1, 37773, Note_off_c, 1, 65, 0
1, 37830, Note_off_c, 1, 57, 0
1, 37875, Note_on_c, 1, 71, 127
1, 37881, Note_on_c, 1, 62, 127
1, 37886, Note_on_c, 1, 67, 127
1, 37900, Note_on_c, 1, 53, 127
1, 37984, Note_on_c, 1, 69, 127
1, 37995, Note_off_c, 1, 67, 0
1, 37995, Note_on_c, 1, 60, 127
1, 37998, Note_off_c, 1, 62, 0
1, 38003, Note_off_c, 1, 71, 0
1, 38003, Note_off_c, 1, 53, 0
1, 38052, Note_off_c, 1, 69, 0
1, 38071, Note_off_c, 1, 60, 0
1, 38116, Note_on_c, 1, 67, 127
1, 38116, Note_on_c, 1, 62, 127
1, 38138, Note_on_c, 1, 52, 127
1, 38230, Note_off_c, 1, 62, 0
1, 38231, Note_on_c, 1, 69, 127
1, 38233, Note_on_c, 1, 65, 127
1, 38294, Note_off_c, 1, 65, 0
1, 38311, Note_off_c, 1, 69, 0
1, 38354, Note_on_c, 1, 64, 127
1, 38437, Note_off_c, 1, 52, 0
1, 38466, Note_off_c, 1, 67, 0
1, 38478, Note_off_c, 1, 64, 0
1, 38486, Note_on_c, 1, 53, 127
1, 38497, Note_on_c, 1, 70, 127
1, 38554, Note_off_c, 1, 53, 0
1, 38596, Note_off_c, 1, 70, 0
1, 38603, Note_on_c, 1, 50, 127
1, 38705, Note_off_c, 1, 50, 0
1, 38843, Note_on_c, 1, 64, 127
1, 38847, Note_on_c, 1, 67, 127
1, 38857, Note_on_c, 1, 48, 127
1, 38867, Note_on_c, 1, 70, 127
1, 38952, Note_on_c, 1, 69, 127
1, 38959, Note_on_c, 1, 65, 127
1, 38961, Note_off_c, 1, 67, 0
1, 38966, Note_off_c, 1, 64, 0
1, 39033, Note_off_c, 1, 69, 0
1, 39037, Note_off_c, 1, 65, 0
1, 39175, Note_off_c, 1, 48, 0
1, 39190, Note_on_c, 1, 50, 127
1, 39206, Note_on_c, 1, 62, 127
1, 39279, Note_off_c, 1, 50, 0
1, 39291, Note_off_c, 1, 62, 0
1, 39325, Note_on_c, 1, 46, 127
1, 39332, Note_on_c, 1, 60, 127
1, 39413, Note_off_c, 1, 60, 0
1, 39450, Note_off_c, 1, 46, 0
1, 39562, Note_on_c, 1, 45, 127
1, 39849, Note_off_c, 1, 70, 0
1, 39869, Note_off_c, 1, 45, 0
1, 39930, Note_on_c, 1, 74, 127
1, 40013, Note_off_c, 1, 74, 0
1, 40016, Note_on_c, 1, 43, 127
1, 40037, Note_on_c, 1, 67, 127
1, 40039, Note_on_c, 1, 64, 127
1, 40049, Note_on_c, 1, 72, 127
1, 40129, Note_off_c, 1, 64, 0
1, 40139, Note_off_c, 1, 67, 0
1, 40156, Note_off_c, 1, 72, 0
1, 40174, Note_off_c, 1, 43, 0
1, 40282, Note_on_c, 1, 69, 127
1, 40288, Note_on_c, 1, 60, 127
1, 40301, Note_on_c, 1, 67, 127
1, 40303, Note_on_c, 1, 41, 127
1, 40580, Note_off_c, 1, 41, 0
1, 40594, Note_off_c, 1, 69, 0
1, 40640, Note_on_c, 1, 52, 127
1, 40659, Note_on_c, 1, 72, 127
1, 40682, Note_off_c, 1, 60, 0
1, 40716, Note_off_c, 1, 67, 0
1, 40732, Note_off_c, 1, 52, 0
1, 40752, Note_off_c, 1, 72, 0
1, 40759, Note_on_c, 1, 65, 127
1, 40759, Note_on_c, 1, 50, 127
1, 40770, Note_on_c, 1, 71, 127
1, 40796, Note_on_c, 1, 62, 127
1, 40896, Note_off_c, 1, 65, 0
1, 40898, Note_off_c, 1, 62, 0
1, 40901, Note_off_c, 1, 71, 0
1, 40915, Note_off_c, 1, 50, 0
1, 41017, Note_on_c, 1, 52, 127
1, 41030, Note_on_c, 1, 72, 127
1, 41038, Note_on_c, 1, 55, 127
1, 41302, Note_off_c, 1, 52, 0
1, 41311, Note_off_c, 1, 72, 0
1, 41364, Note_off_c, 1, 55, 0
1, 41369, Note_on_c, 1, 55, 127
1, 41388, Note_on_c, 1, 76, 127
1, 41461, Note_off_c, 1, 76, 0
1, 41467, Note_off_c, 1, 55, 0
1, 41483, Note_on_c, 1, 54, 127
1, 41497, Note_on_c, 1, 74, 127
1, 41505, Note_on_c, 1, 69, 127
1, 41518, Note_on_c, 1, 62, 127
1, 41591, Note_off_c, 1, 69, 0
1, 41606, Note_off_c, 1, 62, 0
1, 41622, Note_off_c, 1, 74, 0
1, 41648, Note_off_c, 1, 54, 0
1, 41736, Note_on_c, 1, 55, 127
1, 41743, Note_on_c, 1, 71, 127
1, 41760, Note_on_c, 1, 69, 127
1, 41781, Note_on_c, 1, 62, 127
1, 42034, Note_off_c, 1, 55, 0
1, 42061, Note_off_c, 1, 71, 0
1, 42088, Note_on_c, 1, 53, 127
1, 42101, Note_on_c, 1, 74, 127
1, 42142, Note_off_c, 1, 62, 0
1, 42168, Note_off_c, 1, 53, 0
1, 42175, Note_off_c, 1, 69, 0
1, 42182, Note_on_c, 1, 67, 127
1, 42195, Note_off_c, 1, 74, 0
1, 42199, Note_on_c, 1, 52, 127
1, 42215, Note_on_c, 1, 72, 127
1, 42228, Note_on_c, 1, 64, 127
1, 42325, Note_off_c, 1, 67, 0
1, 42340, Note_off_c, 1, 52, 0
1, 42344, Note_off_c, 1, 72, 0
1, 42353, Note_off_c, 1, 64, 0
1, 42449, Note_on_c, 1, 54, 127
1, 42467, Note_on_c, 1, 74, 127
1, 42482, Note_on_c, 1, 57, 127
1, 42738, Note_off_c, 1, 54, 0
1, 42748, Note_off_c, 1, 74, 0
1, 42785, Note_off_c, 1, 57, 0
1, 42804, Note_on_c, 1, 57, 127
1, 42814, Note_on_c, 1, 77, 127
1, 42885, Note_off_c, 1, 57, 0
1, 42912, Note_off_c, 1, 77, 0
1, 42916, Note_on_c, 1, 56, 127
1, 42930, Note_on_c, 1, 76, 127
1, 42944, Note_on_c, 1, 71, 127
1, 42963, Note_on_c, 1, 64, 127
1, 43037, Note_off_c, 1, 71, 0
1, 43044, Note_off_c, 1, 56, 0
1, 43058, Note_off_c, 1, 76, 0
1, 43077, Note_off_c, 1, 64, 0
1, 43179, Note_on_c, 1, 57, 127
1, 43184, Note_on_c, 1, 72, 127
1, 43194, Note_on_c, 1, 71, 127
1, 43211, Note_on_c, 1, 64, 127
1, 43488, Note_off_c, 1, 71, 0
1, 43493, Note_off_c, 1, 72, 0
1, 43502, Note_off_c, 1, 64, 0
1, 43526, Note_on_c, 1, 69, 127
1, 43530, Note_on_c, 1, 77, 127
1, 43541, Note_on_c, 1, 60, 127
1, 43543, Note_off_c, 1, 57, 0
1, 43605, Note_off_c, 1, 69, 0
1, 43612, Note_off_c, 1, 60, 0
1, 43619, Note_off_c, 1, 77, 0
1, 43635, Note_on_c, 1, 53, 127
1, 43638, Note_on_c, 1, 72, 127
1, 43649, Note_on_c, 1, 81, 127
1, 43660, Note_on_c, 1, 65, 127
1, 43737, Note_off_c, 1, 72, 0
1, 43750, Note_off_c, 1, 53, 0
1, 43901, Note_on_c, 1, 74, 127
1, 43901, Note_on_c, 1, 47, 127
1, 44193, Note_off_c, 1, 74, 0
1, 44202, Note_off_c, 1, 65, 0
1, 44231, Note_off_c, 1, 81, 0
1, 44247, Note_off_c, 1, 47, 0
1, 44252, Note_on_c, 1, 79, 127
1, 44257, Note_on_c, 1, 71, 127
1, 44266, Note_on_c, 1, 62, 127
1, 44328, Note_off_c, 1, 71, 0
1, 44347, Note_off_c, 1, 79, 0
1, 44355, Note_off_c, 1, 62, 0
1, 44361, Note_on_c, 1, 77, 127
1, 44367, Note_on_c, 1, 55, 127
1, 44370, Note_on_c, 1, 59, 127
1, 44373, Note_on_c, 1, 74, 127
1, 44461, Note_off_c, 1, 55, 0
1, 44471, Note_off_c, 1, 59, 0
1, 44488, Note_off_c, 1, 74, 0
1, 44504, Note_off_c, 1, 77, 0
1, 44608, Note_on_c, 1, 72, 127
1, 44609, Note_on_c, 1, 55, 127
1, 44613, Note_on_c, 1, 76, 127
1, 44621, Note_on_c, 1, 48, 127
1, 44710, Note_on_c, 1, 69, 127
1, 44717, Note_off_c, 1, 55, 0
1, 44789, Note_off_c, 1, 69, 0
1, 44817, Note_off_c, 1, 72, 0
1, 44844, Note_on_c, 1, 67, 127
1, 44844, Note_on_c, 1, 71, 127
1, 44919, Note_off_c, 1, 48, 0
1, 44926, Note_off_c, 1, 76, 0
1, 44929, Note_off_c, 1, 71, 0
1, 44952, Note_on_c, 1, 65, 127
1, 44953, Note_on_c, 1, 77, 127
1, 44960, Note_on_c, 1, 50, 127
1, 44972, Note_off_c, 1, 67, 0
1, 45029, Note_off_c, 1, 77, 0
1, 45034, Note_off_c, 1, 65, 0
1, 45045, Note_off_c, 1, 50, 0
1, 45071, Note_on_c, 1, 64, 127
1, 45071, Note_on_c, 1, 52, 127
1, 45076, Note_on_c, 1, 79, 127
1, 45083, Note_on_c, 1, 67, 127
1, 45153, Note_off_c, 1, 52, 0
1, 45181, Note_on_c, 1, 62, 127
1, 45187, Note_on_c, 1, 65, 127
1, 45188, Note_on_c, 1, 53, 127
1, 45200, Note_off_c, 1, 79, 0
1, 45205, Note_off_c, 1, 67, 0
1, 45207, Note_off_c, 1, 64, 0
1, 45266, Note_off_c, 1, 65, 0
1, 45269, Note_off_c, 1, 62, 0
1, 45271, Note_off_c, 1, 53, 0
1, 45320, Note_on_c, 1, 55, 127
1, 45321, Note_on_c, 1, 64, 127
1, 45332, Note_on_c, 1, 60, 127
1, 45339, Note_on_c, 1, 67, 127
1, 45437, Note_off_c, 1, 60, 0
1, 45442, Note_on_c, 1, 62, 127
1, 45444, Note_off_c, 1, 64, 0
1, 45453, Note_on_c, 1, 76, 127
1, 45524, Note_off_c, 1, 62, 0
1, 45529, Note_off_c, 1, 76, 0
1, 45579, Note_on_c, 1, 74, 127
1, 45651, Note_off_c, 1, 67, 0
1, 45662, Note_off_c, 1, 55, 0
1, 45674, Note_on_c, 1, 65, 127
1, 45689, Note_on_c, 1, 72, 127
1, 45693, Note_off_c, 1, 74, 0
1, 45704, Note_on_c, 1, 69, 127
1, 45753, Note_off_c, 1, 72, 0
1, 45771, Note_off_c, 1, 65, 0
1, 45786, Note_off_c, 1, 69, 0
1, 45795, Note_on_c, 1, 67, 127
1, 45809, Note_on_c, 1, 71, 127
1, 45814, Note_on_c, 1, 43, 127
1, 45902, Note_on_c, 1, 65, 127
1, 45914, Note_on_c, 1, 69, 127
1, 45923, Note_off_c, 1, 43, 0
1, 45926, Note_off_c, 1, 71, 0
1, 45931, Note_off_c, 1, 67, 0
1, 45978, Note_off_c, 1, 69, 0
1, 45994, Note_off_c, 1, 65, 0
1, 46037, Note_on_c, 1, 64, 127
1, 46044, Note_on_c, 1, 67, 127
1, 46059, Note_on_c, 1, 72, 127
1, 46068, Note_on_c, 1, 48, 127
1, 46132, Note_off_c, 1, 64, 0
1, 46159, Note_on_c, 1, 60, 127
1, 46161, Note_on_c, 1, 69, 127
1, 46177, Note_off_c, 1, 67, 0
1, 46203, Note_off_c, 1, 60, 0
1, 46232, Note_off_c, 1, 69, 0
1, 46277, Note_on_c, 1, 59, 127
1, 46381, Note_off_c, 1, 48, 0
1, 46389, Note_off_c, 1, 59, 0
1, 46394, Note_off_c, 1, 72, 0
1, 46400, Note_on_c, 1, 65, 127
1, 46403, Note_on_c, 1, 57, 127
1, 46458, Note_off_c, 1, 65, 0
1, 46481, Note_off_c, 1, 57, 0
1, 46518, Note_on_c, 1, 72, 127
1, 46519, Note_on_c, 1, 55, 127
1, 46526, Note_on_c, 1, 64, 127
1, 46536, Note_on_c, 1, 36, 127
1, 46624, Note_off_c, 1, 72, 0
1, 46629, Note_off_c, 1, 55, 0
1, 46633, Note_off_c, 1, 64, 0
1, 46638, Note_on_c, 1, 53, 127
1, 46642, Note_on_c, 1, 62, 127
1, 46652, Note_off_c, 1, 36, 0
1, 46718, Note_off_c, 1, 53, 0
1, 46719, Note_off_c, 1, 62, 0
1, 46766, Note_on_c, 1, 55, 127
1, 46775, Note_on_c, 1, 72, 127
1, 46785, Note_on_c, 1, 64, 127
1, 46788, Note_on_c, 1, 48, 127
1, 47098, Note_off_c, 1, 72, 0
1, 47103, Note_off_c, 1, 48, 0
1, 47129, Note_off_c, 1, 64, 0
1, 47165, Note_off_c, 1, 55, 0
1, 47268, Note_on_c, 1, 74, 127
1, 47276, Note_on_c, 1, 67, 127
1, 47285, Note_on_c, 1, 59, 127
1, 47366, Note_off_c, 1, 74, 0
1, 47378, Note_off_c, 1, 67, 0
1, 47378, Note_on_c, 1, 69, 127
1, 47385, Note_on_c, 1, 60, 127
1, 47402, Note_off_c, 1, 59, 0
1, 47458, Note_off_c, 1, 60, 0
1, 47463, Note_off_c, 1, 69, 0
1, 47501, Note_on_c, 1, 62, 127
1, 47510, Note_on_c, 1, 71, 127
1, 47612, Note_off_c, 1, 62, 0
1, 47612, Note_on_c, 1, 60, 127
1, 47622, Note_on_c, 1, 69, 127
1, 47684, Note_off_c, 1, 69, 0
1, 47707, Note_off_c, 1, 60, 0
1, 47847, Note_on_c, 1, 72, 127
1, 47848, Note_off_c, 1, 71, 0
1, 47857, Note_on_c, 1, 64, 127
1, 47914, Note_off_c, 1, 72, 0
1, 47931, Note_off_c, 1, 64, 0
1, 47966, Note_on_c, 1, 74, 127
1, 47966, Note_on_c, 1, 71, 127
1, 47976, Note_on_c, 1, 65, 127
1, 47986, Note_on_c, 1, 43, 127
1, 48078, Note_on_c, 1, 72, 127
1, 48080, Note_on_c, 1, 64, 127
1, 48092, Note_off_c, 1, 43, 0
1, 48095, Note_off_c, 1, 74, 0
1, 48101, Note_off_c, 1, 71, 0
1, 48113, Note_off_c, 1, 65, 0
1, 48135, Note_off_c, 1, 72, 0
1, 48156, Note_off_c, 1, 64, 0
1, 48204, Note_on_c, 1, 62, 127
1, 48206, Note_on_c, 1, 71, 127
1, 48239, Note_on_c, 1, 55, 127
1, 48311, Note_on_c, 1, 60, 127
1, 48322, Note_off_c, 1, 62, 0
1, 48323, Note_on_c, 1, 69, 127
1, 48398, Note_off_c, 1, 60, 0
1, 48410, Note_off_c, 1, 69, 0
1, 48562, Note_on_c, 1, 72, 127
1, 48564, Note_off_c, 1, 71, 0
1, 48564, Note_on_c, 1, 64, 127
1, 48619, Note_off_c, 1, 55, 0
1, 48629, Note_off_c, 1, 72, 0
1, 48650, Note_off_c, 1, 64, 0
1, 48686, Note_on_c, 1, 65, 127
1, 48688, Note_on_c, 1, 74, 127
1, 48693, Note_on_c, 1, 67, 127
1, 48804, Note_on_c, 1, 72, 127
1, 48804, Note_on_c, 1, 64, 127
1, 48816, Note_off_c, 1, 74, 0
1, 48821, Note_off_c, 1, 67, 0
1, 48831, Note_off_c, 1, 65, 0
1, 48859, Note_off_c, 1, 72, 0
1, 48890, Note_off_c, 1, 64, 0
1, 48925, Note_on_c, 1, 71, 127
1, 48932, Note_on_c, 1, 77, 127
1, 48937, Note_on_c, 1, 62, 127
1, 49032, Note_off_c, 1, 71, 0
1, 49044, Note_on_c, 1, 69, 127
1, 49050, Note_on_c, 1, 60, 127
1, 49070, Note_off_c, 1, 62, 0
1, 49117, Note_off_c, 1, 69, 0
1, 49127, Note_off_c, 1, 60, 0
1, 49255, Note_off_c, 1, 77, 0
1, 49281, Note_on_c, 1, 72, 127
1, 49286, Note_on_c, 1, 64, 127
1, 49293, Note_on_c, 1, 76, 127
1, 49343, Note_off_c, 1, 72, 0
1, 49381, Note_off_c, 1, 64, 0
1, 49395, Note_off_c, 1, 76, 0
1, 49403, Note_on_c, 1, 65, 127
1, 49403, Note_on_c, 1, 74, 127
1, 49422, Note_on_c, 1, 44, 127
1, 49517, Note_on_c, 1, 64, 127
1, 49521, Note_on_c, 1, 72, 127
1, 49537, Note_off_c, 1, 74, 0
1, 49549, Note_off_c, 1, 65, 0
1, 49562, Note_off_c, 1, 44, 0
1, 49585, Note_off_c, 1, 72, 0
1, 49594, Note_off_c, 1, 64, 0
1, 49649, Note_on_c, 1, 62, 127
1, 49651, Note_on_c, 1, 71, 127
1, 49657, Note_on_c, 1, 83, 127
1, 49675, Note_on_c, 1, 56, 127
1, 49758, Note_on_c, 1, 60, 127
1, 49761, Note_on_c, 1, 69, 127
1, 49766, Note_off_c, 1, 71, 0
1, 49777, Note_off_c, 1, 62, 0
1, 49832, Note_off_c, 1, 69, 0
1, 49844, Note_off_c, 1, 60, 0
1, 49968, Note_off_c, 1, 83, 0
1, 49993, Note_on_c, 1, 72, 127
1, 49993, Note_on_c, 1, 64, 127
1, 50001, Note_on_c, 1, 74, 127
1, 50048, Note_off_c, 1, 56, 0
1, 50058, Note_off_c, 1, 72, 0
1, 50093, Note_off_c, 1, 64, 0
1, 50093, Note_off_c, 1, 74, 0
1, 50119, Note_on_c, 1, 71, 127
1, 50121, Note_on_c, 1, 62, 127
1, 50133, Note_on_c, 1, 77, 127
1, 50224, Note_on_c, 1, 60, 127
1, 50235, Note_on_c, 1, 69, 127
1, 50240, Note_off_c, 1, 62, 0
1, 50243, Note_off_c, 1, 71, 0
1, 50252, Note_off_c, 1, 77, 0
1, 50293, Note_off_c, 1, 69, 0
1, 50307, Note_off_c, 1, 60, 0
1, 50354, Note_on_c, 1, 68, 127
1, 50359, Note_on_c, 1, 59, 127
1, 50381, Note_on_c, 1, 76, 127
1, 50465, Note_off_c, 1, 59, 0
1, 50468, Note_on_c, 1, 64, 127
1, 50480, Note_off_c, 1, 68, 0
1, 50485, Note_on_c, 1, 56, 127
1, 50537, Note_off_c, 1, 64, 0
1, 50572, Note_off_c, 1, 56, 0
1, 50597, Note_on_c, 1, 66, 127
1, 50613, Note_on_c, 1, 57, 127
1, 50686, Note_off_c, 1, 76, 0
1, 50717, Note_on_c, 1, 74, 127
1, 50720, Note_off_c, 1, 66, 0
1, 50741, Note_off_c, 1, 57, 0
1, 50817, Note_off_c, 1, 74, 0
1, 50834, Note_on_c, 1, 69, 127
1, 50838, Note_on_c, 1, 72, 127
1, 50838, Note_on_c, 1, 40, 127
1, 50852, Note_on_c, 1, 60, 127
1, 50934, Note_off_c, 1, 69, 0
1, 50941, Note_off_c, 1, 60, 0
1, 50950, Note_on_c, 1, 66, 127
1, 50967, Note_on_c, 1, 62, 127
1, 50971, Note_off_c, 1, 72, 0
1, 50976, Note_off_c, 1, 40, 0
1, 51021, Note_off_c, 1, 66, 0
1, 51045, Note_off_c, 1, 62, 0
1, 51085, Note_on_c, 1, 68, 127
1, 51088, Note_on_c, 1, 64, 127
1, 51095, Note_on_c, 1, 71, 127
1, 51110, Note_on_c, 1, 52, 127
1, 51197, Note_on_c, 1, 66, 127
1, 51203, Note_off_c, 1, 64, 0
1, 51203, Note_on_c, 1, 62, 127
1, 51221, Note_off_c, 1, 68, 0
1, 51280, Note_off_c, 1, 66, 0
1, 51292, Note_off_c, 1, 62, 0
1, 51399, Note_off_c, 1, 71, 0
1, 51442, Note_on_c, 1, 69, 127
1, 51456, Note_on_c, 1, 76, 127
1, 51484, Note_off_c, 1, 52, 0
1, 51515, Note_off_c, 1, 69, 0
1, 51539, Note_off_c, 1, 76, 0
1, 51563, Note_on_c, 1, 74, 127
1, 51565, Note_on_c, 1, 68, 127
1, 51581, Note_on_c, 1, 71, 127
1, 51672, Note_on_c, 1, 64, 127
1, 51690, Note_off_c, 1, 68, 0
1, 51696, Note_off_c, 1, 74, 0
1, 51703, Note_off_c, 1, 71, 0
1, 51736, Note_off_c, 1, 64, 0
1, 51804, Note_on_c, 1, 57, 127
1, 51813, Note_on_c, 1, 69, 127
1, 51821, Note_on_c, 1, 72, 127
1, 51912, Note_off_c, 1, 57, 0
1, 51925, Note_on_c, 1, 65, 127
1, 51987, Note_off_c, 1, 65, 0
1, 51999, Note_off_c, 1, 69, 0
1, 52042, Note_on_c, 1, 67, 127
1, 52052, Note_on_c, 1, 64, 127
1, 52156, Note_on_c, 1, 62, 127
1, 52162, Note_off_c, 1, 64, 0
1, 52168, Note_off_c, 1, 72, 0
1, 52177, Note_off_c, 1, 67, 0
1, 52218, Note_off_c, 1, 62, 0
1, 52286, Note_on_c, 1, 60, 127
1, 52286, Note_on_c, 1, 64, 127
1, 52287, Note_on_c, 1, 69, 127
1, 52305, Note_on_c, 1, 45, 127
1, 52396, Note_off_c, 1, 64, 0
1, 52396, Note_on_c, 1, 62, 127
1, 52405, Note_off_c, 1, 69, 0
1, 52405, Note_on_c, 1, 59, 127
1, 52417, Note_off_c, 1, 60, 0
1, 52441, Note_off_c, 1, 45, 0
1, 52478, Note_off_c, 1, 62, 0
1, 52481, Note_off_c, 1, 59, 0
1, 52526, Note_on_c, 1, 64, 127
1, 52535, Note_on_c, 1, 60, 127
1, 52549, Note_on_c, 1, 69, 127
1, 52560, Note_on_c, 1, 57, 127
1, 52623, Note_off_c, 1, 60, 0
1, 52637, Note_on_c, 1, 62, 127
1, 52643, Note_on_c, 1, 59, 127
1, 52649, Note_off_c, 1, 64, 0
1, 52719, Note_off_c, 1, 62, 0
1, 52733, Note_off_c, 1, 59, 0
1, 52863, Note_off_c, 1, 69, 0
1, 52889, Note_on_c, 1, 65, 127
1, 52894, Note_on_c, 1, 71, 127
1, 52939, Note_off_c, 1, 57, 0
1, 52963, Note_off_c, 1, 65, 0
1, 52986, Note_off_c, 1, 71, 0
1, 53001, Note_on_c, 1, 67, 127
1, 53006, Note_on_c, 1, 72, 127
1, 53020, Note_on_c, 1, 64, 127
1, 53096, Note_off_c, 1, 72, 0
1, 53110, Note_on_c, 1, 69, 127
1, 53117, Note_off_c, 1, 67, 0
1, 53119, Note_on_c, 1, 74, 127
1, 53138, Note_on_c, 1, 65, 127
1, 53153, Note_off_c, 1, 64, 0
1, 53198, Note_off_c, 1, 65, 0
1, 53200, Note_off_c, 1, 74, 0
1, 53208, Note_off_c, 1, 69, 0
1, 53245, Note_on_c, 1, 70, 127
1, 53248, Note_on_c, 1, 76, 127
1, 53257, Note_on_c, 1, 67, 127
1, 53359, Note_on_c, 1, 72, 127
1, 53362, Note_on_c, 1, 65, 127
1, 53374, Note_off_c, 1, 67, 0
1, 53376, Note_off_c, 1, 70, 0
1, 53442, Note_off_c, 1, 72, 0
1, 53442, Note_off_c, 1, 65, 0
1, 53583, Note_off_c, 1, 76, 0
1, 53596, Note_on_c, 1, 69, 127
1, 53675, Note_off_c, 1, 69, 0
1, 53723, Note_on_c, 1, 43, 127
1, 53727, Note_on_c, 1, 67, 127
1, 53729, Note_on_c, 1, 70, 127
1, 53737, Note_on_c, 1, 76, 127
1, 53837, Note_on_c, 1, 69, 127
1, 53844, Note_off_c, 1, 76, 0
1, 53848, Note_off_c, 1, 70, 0
1, 53863, Note_off_c, 1, 43, 0
1, 53870, Note_off_c, 1, 67, 0
1, 53938, Note_off_c, 1, 69, 0
1, 53966, Note_on_c, 1, 67, 127
1, 53986, Note_on_c, 1, 76, 127
1, 53987, Note_on_c, 1, 70, 127
1, 53995, Note_on_c, 1, 55, 127
1, 54072, Note_off_c, 1, 67, 0
1, 54079, Note_on_c, 1, 65, 127
1, 54097, Note_on_c, 1, 69, 127
1, 54117, Note_off_c, 1, 70, 0
1, 54150, Note_off_c, 1, 65, 0
1, 54195, Note_off_c, 1, 69, 0
1, 54276, Note_off_c, 1, 76, 0
1, 54332, Note_on_c, 1, 72, 127
1, 54347, Note_on_c, 1, 82, 127
1, 54385, Note_off_c, 1, 55, 0
1, 54416, Note_off_c, 1, 72, 0
1, 54432, Note_off_c, 1, 82, 0
1, 54446, Note_on_c, 1, 70, 127
1, 54451, Note_on_c, 1, 74, 127
1, 54456, Note_on_c, 1, 79, 127
1, 54558, Note_on_c, 1, 69, 127
1, 54560, Note_on_c, 1, 72, 127
1, 54570, Note_off_c, 1, 79, 0
1, 54575, Note_off_c, 1, 74, 0
1, 54577, Note_off_c, 1, 70, 0
1, 54627, Note_off_c, 1, 69, 0
1, 54646, Note_off_c, 1, 72, 0
1, 54696, Note_on_c, 1, 67, 127
1, 54696, Note_on_c, 1, 70, 127
1, 54698, Note_on_c, 1, 76, 127
1, 54803, Note_on_c, 1, 72, 127
1, 54810, Note_on_c, 1, 65, 127
1, 54819, Note_off_c, 1, 67, 0
1, 54835, Note_off_c, 1, 70, 0
1, 54881, Note_off_c, 1, 65, 0
1, 54886, Note_off_c, 1, 72, 0
1, 54995, Note_off_c, 1, 76, 0
1, 55037, Note_on_c, 1, 69, 127
1, 55054, Note_on_c, 1, 79, 127
1, 55147, Note_off_c, 1, 79, 0
1, 55159, Note_off_c, 1, 69, 0
1, 55166, Note_on_c, 1, 70, 127
1, 55166, Note_on_c, 1, 43, 127
1, 55172, Note_on_c, 1, 67, 127
1, 55172, Note_on_c, 1, 76, 127
1, 55279, Note_off_c, 1, 43, 0
1, 55280, Note_off_c, 1, 76, 0
1, 55282, Note_on_c, 1, 65, 127
1, 55284, Note_off_c, 1, 70, 0
1, 55344, Note_off_c, 1, 67, 0
1, 55355, Note_off_c, 1, 65, 0
1, 55411, Note_on_c, 1, 64, 127
1, 55415, Note_on_c, 1, 69, 127
1, 55420, Note_on_c, 1, 73, 127
1, 55434, Note_on_c, 1, 55, 127
1, 55517, Note_off_c, 1, 69, 0
1, 55527, Note_on_c, 1, 62, 127
1, 55529, Note_on_c, 1, 67, 127
1, 55534, Note_off_c, 1, 64, 0
1, 55597, Note_off_c, 1, 62, 0
1, 55604, Note_off_c, 1, 67, 0
1, 55638, Note_on_c, 1, 61, 127
1, 55704, Note_off_c, 1, 73, 0
1, 55735, Note_off_c, 1, 61, 0
1, 55764, Note_on_c, 1, 71, 127
1, 55766, Note_on_c, 1, 58, 127
1, 55775, Note_on_c, 1, 76, 127
1, 55822, Note_off_c, 1, 55, 0
1, 55832, Note_off_c, 1, 71, 0
1, 55845, Note_off_c, 1, 58, 0
1, 55859, Note_off_c, 1, 76, 0
1, 55877, Note_on_c, 1, 57, 127
1, 55889, Note_on_c, 1, 73, 127
1, 56004, Note_on_c, 1, 69, 127
1, 56013, Note_on_c, 1, 64, 127
1, 56022, Note_off_c, 1, 73, 0
1, 56043, Note_off_c, 1, 57, 0
1, 56065, Note_off_c, 1, 69, 0
1, 56082, Note_off_c, 1, 64, 0
1, 56132, Note_on_c, 1, 65, 127
1, 56134, Note_on_c, 1, 74, 127
1, 56139, Note_on_c, 1, 69, 127
1, 56233, Note_off_c, 1, 65, 0
1, 56250, Note_on_c, 1, 61, 127
1, 56263, Note_off_c, 1, 74, 0
1, 56334, Note_off_c, 1, 61, 0
1, 56369, Note_on_c, 1, 71, 127
1, 56376, Note_on_c, 1, 62, 127
1, 56428, Note_off_c, 1, 69, 0
1, 56476, Note_off_c, 1, 62, 0
1, 56481, Note_on_c, 1, 53, 127
1, 56485, Note_on_c, 1, 64, 127
1, 56490, Note_on_c, 1, 73, 127
1, 56492, Note_on_c, 1, 81, 127
1, 56504, Note_off_c, 1, 71, 0
1, 56554, Note_off_c, 1, 73, 0
1, 56564, Note_off_c, 1, 64, 0
1, 56573, Note_off_c, 1, 53, 0
1, 56576, Note_off_c, 1, 81, 0
1, 56590, Note_on_c, 1, 50, 127
1, 56606, Note_on_c, 1, 74, 127
1, 56610, Note_on_c, 1, 77, 127
1, 56616, Note_on_c, 1, 65, 127
1, 56704, Note_off_c, 1, 65, 0
1, 56707, Note_off_c, 1, 50, 0
1, 56716, Note_on_c, 1, 69, 127
1, 56727, Note_off_c, 1, 77, 0
1, 56727, Note_on_c, 1, 67, 127
1, 56741, Note_off_c, 1, 74, 0
1, 56782, Note_off_c, 1, 69, 0
1, 56813, Note_off_c, 1, 67, 0
1, 56847, Note_on_c, 1, 65, 127
1, 56851, Note_on_c, 1, 69, 127
1, 56858, Note_on_c, 1, 74, 127
1, 56863, Note_on_c, 1, 57, 127
1, 56950, Note_off_c, 1, 65, 0
1, 56958, Note_off_c, 1, 69, 0
1, 56958, Note_on_c, 1, 64, 127
1, 56969, Note_on_c, 1, 70, 127
1, 57023, Note_off_c, 1, 64, 0
1, 57046, Note_off_c, 1, 70, 0
1, 57129, Note_off_c, 1, 74, 0
1, 57195, Note_off_c, 1, 57, 0
1, 57200, Note_on_c, 1, 67, 127
1, 57212, Note_on_c, 1, 76, 127
1, 57274, Note_off_c, 1, 67, 0
1, 57287, Note_off_c, 1, 76, 0
1, 57325, Note_on_c, 1, 65, 127
1, 57333, Note_on_c, 1, 69, 127
1, 57335, Note_on_c, 1, 45, 127
1, 57338, Note_on_c, 1, 73, 127
1, 57430, Note_off_c, 1, 45, 0
1, 57439, Note_on_c, 1, 64, 127
1, 57444, Note_on_c, 1, 67, 127
1, 57458, Note_off_c, 1, 69, 0
1, 57458, Note_off_c, 1, 73, 0
1, 57468, Note_off_c, 1, 65, 0
1, 57511, Note_off_c, 1, 67, 0
1, 57516, Note_off_c, 1, 64, 0
1, 57573, Note_on_c, 1, 62, 127
1, 57575, Note_on_c, 1, 65, 127
1, 57580, Note_on_c, 1, 50, 127
1, 57580, Note_on_c, 1, 74, 127
1, 57677, Note_off_c, 1, 65, 0
1, 57687, Note_on_c, 1, 64, 127
1, 57693, Note_on_c, 1, 61, 127
1, 57700, Note_off_c, 1, 62, 0
1, 57750, Note_off_c, 1, 64, 0
1, 57776, Note_off_c, 1, 61, 0
1, 57900, Note_off_c, 1, 74, 0
1, 57911, Note_on_c, 1, 67, 127
1, 57912, Note_off_c, 1, 50, 0
1, 57985, Note_off_c, 1, 67, 0
1, 58040, Note_on_c, 1, 69, 127
1, 58040, Note_on_c, 1, 38, 127
1, 58049, Note_on_c, 1, 74, 127
1, 58054, Note_on_c, 1, 65, 127
1, 58149, Note_on_c, 1, 67, 127
1, 58154, Note_off_c, 1, 38, 0
1, 58154, Note_off_c, 1, 65, 0
1, 58161, Note_on_c, 1, 64, 127
1, 58163, Note_off_c, 1, 74, 0
1, 58166, Note_off_c, 1, 69, 0
1, 58225, Note_off_c, 1, 67, 0
1, 58246, Note_off_c, 1, 64, 0
1, 58289, Note_on_c, 1, 65, 127
1, 58297, Note_on_c, 1, 62, 127
1, 58297, Note_on_c, 1, 50, 127
1, 58304, Note_on_c, 1, 74, 127
1, 58394, Note_off_c, 1, 65, 0
1, 58399, Note_on_c, 1, 64, 127
1, 58408, Note_off_c, 1, 62, 0
1, 58408, Note_on_c, 1, 61, 127
1, 58465, Note_off_c, 1, 64, 0
1, 58494, Note_off_c, 1, 61, 0
1, 58560, Note_off_c, 1, 74, 0
1, 58645, Note_off_c, 1, 50, 0
1, 58645, Note_on_c, 1, 67, 127
1, 58723, Note_off_c, 1, 67, 0
1, 58771, Note_on_c, 1, 69, 127
1, 58776, Note_on_c, 1, 62, 127
1, 58777, Note_on_c, 1, 77, 127
1, 58863, Note_off_c, 1, 69, 0
1, 58883, Note_on_c, 1, 60, 127
1, 58885, Note_off_c, 1, 77, 0
1, 58955, Note_off_c, 1, 62, 0
1, 58956, Note_off_c, 1, 60, 0
1, 59006, Note_on_c, 1, 59, 127
1, 59018, Note_on_c, 1, 67, 127
1, 59021, Note_on_c, 1, 77, 127
1, 59115, Note_on_c, 1, 57, 127
1, 59123, Note_off_c, 1, 59, 0
1, 59129, Note_on_c, 1, 69, 127
1, 59141, Note_off_c, 1, 67, 0
1, 59193, Note_off_c, 1, 69, 0
1, 59196, Note_off_c, 1, 57, 0
1, 59244, Note_on_c, 1, 55, 127
1, 59270, Note_on_c, 1, 71, 127
1, 59338, Note_off_c, 1, 55, 0
1, 59372, Note_on_c, 1, 72, 127
1, 59372, Note_on_c, 1, 62, 127
1, 59386, Note_off_c, 1, 71, 0
1, 59426, Note_off_c, 1, 72, 0
1, 59467, Note_off_c, 1, 62, 0
1, 59483, Note_on_c, 1, 60, 127
1, 59492, Note_on_c, 1, 74, 127
1, 59590, Note_on_c, 1, 76, 127
1, 59611, Note_off_c, 1, 74, 0
1, 59659, Note_off_c, 1, 76, 0
1, 59680, Note_off_c, 1, 60, 0
1, 59828, Note_on_c, 1, 64, 127
1, 59930, Note_off_c, 1, 64, 0
1, 59958, Note_on_c, 1, 65, 127
1, 60013, Note_off_c, 1, 77, 0
1, 60095, Note_off_c, 1, 65, 0
1, 60193, Note_on_c, 1, 71, 127
1, 60200, Note_on_c, 1, 57, 127
1, 60202, Note_on_c, 1, 76, 127
1, 60210, Note_on_c, 1, 62, 127
1, 60295, Note_off_c, 1, 76, 0
1, 60302, Note_off_c, 1, 57, 0
1, 60307, Note_on_c, 1, 69, 127
1, 60312, Note_off_c, 1, 71, 0
1, 60319, Note_off_c, 1, 62, 0
1, 60330, Note_on_c, 1, 60, 127
1, 60383, Note_off_c, 1, 69, 0
1, 60404, Note_off_c, 1, 60, 0
1, 60438, Note_on_c, 1, 71, 127
1, 60444, Note_on_c, 1, 62, 127
1, 60449, Note_on_c, 1, 55, 127
1, 60459, Note_on_c, 1, 77, 127
1, 60549, Note_on_c, 1, 72, 127
1, 60558, Note_off_c, 1, 71, 0
1, 60566, Note_off_c, 1, 62, 0
1, 60566, Note_on_c, 1, 64, 127
1, 60622, Note_off_c, 1, 72, 0
1, 60651, Note_off_c, 1, 64, 0
1, 60679, Note_on_c, 1, 74, 127
1, 60687, Note_on_c, 1, 65, 127
1, 60786, Note_off_c, 1, 55, 0
1, 60801, Note_on_c, 1, 57, 127
1, 60812, Note_off_c, 1, 77, 0
1, 60812, Note_off_c, 1, 74, 0
1, 60813, Note_off_c, 1, 65, 0
1, 60870, Note_off_c, 1, 57, 0
1, 60915, Note_on_c, 1, 71, 127
1, 60921, Note_on_c, 1, 62, 127
1, 60926, Note_on_c, 1, 67, 127
1, 60940, Note_on_c, 1, 53, 127
1, 61024, Note_on_c, 1, 69, 127
1, 61035, Note_off_c, 1, 67, 0
1, 61035, Note_on_c, 1, 60, 127
1, 61038, Note_off_c, 1, 62, 0
1, 61043, Note_off_c, 1, 71, 0
1, 61043, Note_off_c, 1, 53, 0
1, 61092, Note_off_c, 1, 69, 0
1, 61111, Note_off_c, 1, 60, 0
1, 61156, Note_on_c, 1, 67, 127
1, 61156, Note_on_c, 1, 62, 127
1, 61178, Note_on_c, 1, 52, 127
1, 61270, Note_off_c, 1, 62, 0
1, 61271, Note_on_c, 1, 69, 127
1, 61273, Note_on_c, 1, 65, 127
1, 61334, Note_off_c, 1, 65, 0
1, 61351, Note_off_c, 1, 69, 0
1, 61394, Note_on_c, 1, 64, 127
1, 61477, Note_off_c, 1, 52, 0
1, 61506, Note_off_c, 1, 67, 0
1, 61518, Note_off_c, 1, 64, 0
1, 61526, Note_on_c, 1, 53, 127
1, 61537, Note_on_c, 1, 70, 127
1, 61594, Note_off_c, 1, 53, 0
1, 61636, Note_off_c, 1, 70, 0
1, 61643, Note_on_c, 1, 50, 127
1, 61745, Note_off_c, 1, 50, 0
1, 61883, Note_on_c, 1, 64, 127
1, 61887, Note_on_c, 1, 67, 127
1, 61897, Note_on_c, 1, 48, 127
1, 61907, Note_on_c, 1, 70, 127
1, 61992, Note_on_c, 1, 69, 127
1, 61999, Note_on_c, 1, 65, 127
1, 62001, Note_off_c, 1, 67, 0
1, 62006, Note_off_c, 1, 64, 0
1, 62073, Note_off_c, 1, 69, 0
1, 62077, Note_off_c, 1, 65, 0
1, 62215, Note_off_c, 1, 48, 0
1, 62230, Note_on_c, 1, 50, 127
1, 62246, Note_on_c, 1, 62, 127
1, 62319, Note_off_c, 1, 50, 0
1, 62331, Note_off_c, 1, 62, 0
1, 62365, Note_on_c, 1, 46, 127
1, 62372, Note_on_c, 1, 60, 127
1, 62453, Note_off_c, 1, 60, 0
1, 62490, Note_off_c, 1, 46, 0
1, 62602, Note_on_c, 1, 45, 127
1, 62889, Note_off_c, 1, 70, 0
1, 62909, Note_off_c, 1, 45, 0
1, 62970, Note_on_c, 1, 74, 127
1, 63053, Note_off_c, 1, 74, 0
1, 63056, Note_on_c, 1, 43, 127
1, 63077, Note_on_c, 1, 67, 127
1, 63079, Note_on_c, 1, 64, 127
1, 63089, Note_on_c, 1, 72, 127
1, 63169, Note_off_c, 1, 64, 0
1, 63179, Note_off_c, 1, 67, 0
1, 63196, Note_off_c, 1, 72, 0
1, 63214, Note_off_c, 1, 43, 0
1, 63322, Note_on_c, 1, 69, 127
1, 63328, Note_on_c, 1, 60, 127
1, 63341, Note_on_c, 1, 67, 127
1, 63343, Note_on_c, 1, 41, 127
1, 63620, Note_off_c, 1, 41, 0
1, 63634, Note_off_c, 1, 69, 0
1, 63680, Note_on_c, 1, 52, 127
1, 63699, Note_on_c, 1, 72, 127
1, 63722, Note_off_c, 1, 60, 0
1, 63756, Note_off_c, 1, 67, 0
1, 63772, Note_off_c, 1, 52, 0
1, 63792, Note_off_c, 1, 72, 0
1, 63799, Note_on_c, 1, 65, 127
1, 63799, Note_on_c, 1, 50, 127
1, 63810, Note_on_c, 1, 71, 127
1, 63836, Note_on_c, 1, 62, 127
1, 63936, Note_off_c, 1, 65, 0
1, 63938, Note_off_c, 1, 62, 0
1, 63941, Note_off_c, 1, 71, 0
1, 63955, Note_off_c, 1, 50, 0
1, 64057, Note_on_c, 1, 52, 127
1, 64070, Note_on_c, 1, 72, 127
1, 64078, Note_on_c, 1, 55, 127
1, 64342, Note_off_c, 1, 52, 0
1, 64351, Note_off_c, 1, 72, 0
1, 64404, Note_off_c, 1, 55, 0
1, 64409, Note_on_c, 1, 55, 127
1, 64428, Note_on_c, 1, 76, 127
1, 64501, Note_off_c, 1, 76, 0
1, 64507, Note_off_c, 1, 55, 0
1, 64523, Note_on_c, 1, 54, 127
1, 64537, Note_on_c, 1, 74, 127
1, 64545, Note_on_c, 1, 69, 127
1, 64558, Note_on_c, 1, 62, 127
1, 64631, Note_off_c, 1, 69, 0
1, 64646, Note_off_c, 1, 62, 0
1, 64662, Note_off_c, 1, 74, 0
1, 64688, Note_off_c, 1, 54, 0
1, 64776, Note_on_c, 1, 55, 127
1, 64783, Note_on_c, 1, 71, 127
1, 64800, Note_on_c, 1, 69, 127
1, 64821, Note_on_c, 1, 62, 127
1, 65074, Note_off_c, 1, 55, 0
1, 65101, Note_off_c, 1, 71, 0
1, 65128, Note_on_c, 1, 53, 127
1, 65141, Note_on_c, 1, 74, 127
1, 65182, Note_off_c, 1, 62, 0
1, 65208, Note_off_c, 1, 53, 0
1, 65215, Note_off_c, 1, 69, 0
1, 65222, Note_on_c, 1, 67, 127
1, 65235, Note_off_c, 1, 74, 0
1, 65239, Note_on_c, 1, 52, 127
1, 65255, Note_on_c, 1, 72, 127
1, 65268, Note_on_c, 1, 64, 127
1, 65365, Note_off_c, 1, 67, 0
1, 65380, Note_off_c, 1, 52, 0
1, 65384, Note_off_c, 1, 72, 0
1, 65393, Note_off_c, 1, 64, 0
1, 65489, Note_on_c, 1, 54, 127
1, 65507, Note_on_c, 1, 74, 127
1, 65522, Note_on_c, 1, 57, 127
1, 65778, Note_off_c, 1, 54, 0
1, 65788, Note_off_c, 1, 74, 0
1, 65825, Note_off_c, 1, 57, 0
1, 65844, Note_on_c, 1, 57, 127
1, 65854, Note_on_c, 1, 77, 127
1, 65925, Note_off_c, 1, 57, 0
1, 65952, Note_off_c, 1, 77, 0
1, 65956, Note_on_c, 1, 56, 127
1, 65970, Note_on_c, 1, 76, 127
1, 65984, Note_on_c, 1, 71, 127
1, 66003, Note_on_c, 1, 64, 127
1, 66077, Note_off_c, 1, 71, 0
1, 66084, Note_off_c, 1, 56, 0
1, 66098, Note_off_c, 1, 76, 0
1, 66117, Note_off_c, 1, 64, 0
1, 66219, Note_on_c, 1, 57, 127
1, 66224, Note_on_c, 1, 72, 127
1, 66234, Note_on_c, 1, 71, 127
1, 66251, Note_on_c, 1, 64, 127
1, 66528, Note_off_c, 1, 71, 0
1, 66533, Note_off_c, 1, 72, 0
1, 66542, Note_off_c, 1, 64, 0
1, 66566, Note_on_c, 1, 69, 127
1, 66570, Note_on_c, 1, 77, 127
1, 66581, Note_on_c, 1, 60, 127
1, 66583, Note_off_c, 1, 57, 0
1, 66645, Note_off_c, 1, 69, 0
1, 66652, Note_off_c, 1, 60, 0
1, 66659, Note_off_c, 1, 77, 0
1, 66675, Note_on_c, 1, 53, 127
1, 66678, Note_on_c, 1, 72, 127
1, 66689, Note_on_c, 1, 81, 127
1, 66700, Note_on_c, 1, 65, 127
1, 66777, Note_off_c, 1, 72, 0
1, 66790, Note_off_c, 1, 53, 0
1, 66941, Note_on_c, 1, 74, 127
1, 66941, Note_on_c, 1, 47, 127
1, 67233, Note_off_c, 1, 74, 0
1, 67242, Note_off_c, 1, 65, 0
1, 67271, Note_off_c, 1, 81, 0
1, 67287, Note_off_c, 1, 47, 0
1, 67292, Note_on_c, 1, 79, 127
1, 67297, Note_on_c, 1, 71, 127
1, 67306, Note_on_c, 1, 62, 127
1, 67368, Note_off_c, 1, 71, 0
1, 67387, Note_off_c, 1, 79, 0
1, 67395, Note_off_c, 1, 62, 0
1, 67401, Note_on_c, 1, 77, 127
1, 67407, Note_on_c, 1, 55, 127
1, 67410, Note_on_c, 1, 59, 127
1, 67413, Note_on_c, 1, 74, 127
1, 67501, Note_off_c, 1, 55, 0
1, 67511, Note_off_c, 1, 59, 0
1, 67528, Note_off_c, 1, 74, 0
1, 67544, Note_off_c, 1, 77, 0
1, 67648, Note_on_c, 1, 72, 127
1, 67649, Note_on_c, 1, 55, 127
1, 67653, Note_on_c, 1, 76, 127
1, 67661, Note_on_c, 1, 48, 127
1, 67750, Note_on_c, 1, 69, 127
1, 67757, Note_off_c, 1, 55, 0
1, 67829, Note_off_c, 1, 69, 0
1, 67857, Note_off_c, 1, 72, 0
1, 67884, Note_on_c, 1, 67, 127
1, 67884, Note_on_c, 1, 71, 127
1, 67959, Note_off_c, 1, 48, 0
1, 67966, Note_off_c, 1, 76, 0
1, 67969, Note_off_c, 1, 71, 0
1, 67992, Note_on_c, 1, 65, 127
1, 67993, Note_on_c, 1, 77, 127
1, 68000, Note_on_c, 1, 50, 127
1, 68012, Note_off_c, 1, 67, 0
1, 68069, Note_off_c, 1, 77, 0
1, 68074, Note_off_c, 1, 65, 0
1, 68085, Note_off_c, 1, 50, 0
1, 68111, Note_on_c, 1, 64, 127
1, 68111, Note_on_c, 1, 52, 127
1, 68116, Note_on_c, 1, 79, 127
1, 68123, Note_on_c, 1, 67, 127
1, 68193, Note_off_c, 1, 52, 0
1, 68221, Note_on_c, 1, 62, 127
1, 68227, Note_on_c, 1, 65, 127
1, 68228, Note_on_c, 1, 53, 127
1, 68240, Note_off_c, 1, 79, 0
1, 68245, Note_off_c, 1, 67, 0
1, 68247, Note_off_c, 1, 64, 0
1, 68306, Note_off_c, 1, 65, 0
1, 68309, Note_off_c, 1, 62, 0
1, 68311, Note_off_c, 1, 53, 0
1, 68360, Note_on_c, 1, 55, 127
1, 68361, Note_on_c, 1, 64, 127
1, 68372, Note_on_c, 1, 60, 127
1, 68379, Note_on_c, 1, 67, 127
1, 68477, Note_off_c, 1, 60, 0
1, 68482, Note_on_c, 1, 62, 127
1, 68484, Note_off_c, 1, 64, 0
1, 68493, Note_on_c, 1, 76, 127
1, 68564, Note_off_c, 1, 62, 0
1, 68569, Note_off_c, 1, 76, 0
1, 68619, Note_on_c, 1, 74, 127
1, 68691, Note_off_c, 1, 67, 0
1, 68702, Note_off_c, 1, 55, 0
1, 68714, Note_on_c, 1, 65, 127
1, 68729, Note_on_c, 1, 72, 127
1, 68733, Note_off_c, 1, 74, 0
1, 68744, Note_on_c, 1, 69, 127
1, 68793, Note_off_c, 1, 72, 0
1, 68811, Note_off_c, 1, 65, 0
1, 68826, Note_off_c, 1, 69, 0
1, 68835, Note_on_c, 1, 67, 127
1, 68849, Note_on_c, 1, 71, 127
1, 68854, Note_on_c, 1, 43, 127
1, 68942, Note_on_c, 1, 65, 127
1, 68954, Note_on_c, 1, 69, 127
1, 68963, Note_off_c, 1, 43, 0
1, 68966, Note_off_c, 1, 71, 0
1, 68971, Note_off_c, 1, 67, 0
1, 69018, Note_off_c, 1, 69, 0
1, 69034, Note_off_c, 1, 65, 0
1, 69077, Note_on_c, 1, 64, 127
1, 69084, Note_on_c, 1, 67, 127
1, 69099, Note_on_c, 1, 72, 127
1, 69108, Note_on_c, 1, 48, 127
1, 69172, Note_off_c, 1, 64, 0
1, 69199, Note_on_c, 1, 60, 127
1, 69201, Note_on_c, 1, 69, 127
1, 69217, Note_off_c, 1, 67, 0
1, 69243, Note_off_c, 1, 60, 0
1, 69272, Note_off_c, 1, 69, 0
1, 69317, Note_on_c, 1, 59, 127
1, 69421, Note_off_c, 1, 48, 0
1, 69429, Note_off_c, 1, 59, 0
1, 69434, Note_off_c, 1, 72, 0
1, 69440, Note_on_c, 1, 65, 127
1, 69443, Note_on_c, 1, 57, 127
1, 69498, Note_off_c, 1, 65, 0
1, 69521, Note_off_c, 1, 57, 0
1, 69558, Note_on_c, 1, 72, 127
1, 69559, Note_on_c, 1, 55, 127
1, 69566, Note_on_c, 1, 64, 127
1, 69576, Note_on_c, 1, 36, 127
1, 69664, Note_off_c, 1, 72, 0
1, 69669, Note_off_c, 1, 55, 0
1, 69673, Note_off_c, 1, 64, 0
1, 69678, Note_on_c, 1, 53, 127
1, 69682, Note_on_c, 1, 62, 127
1, 69692, Note_off_c, 1, 36, 0
1, 69758, Note_off_c, 1, 53, 0
1, 69759, Note_off_c, 1, 62, 0
1, 69806, Note_on_c, 1, 55, 127
1, 69815, Note_on_c, 1, 72, 127
1, 69825, Note_on_c, 1, 64, 127
1, 69828, Note_on_c, 1, 48, 127
1, 70138, Note_off_c, 1, 72, 0
1, 70143, Note_off_c, 1, 48, 0
1, 70169, Note_off_c, 1, 64, 0
1, 70205, Note_off_c, 1, 55, 0
1, 70205, End_track
0, 0, End_of_file