0, 0, Header, 1, 1, 480
1, 0, Start_track
1, 0, Title_t, "Test"
1, 0, Tempo, 500000
1, 0, Instrument_name_t, "Church Organ"
1, 30, Note_on_c, 1, 76, 127
1, 60, Note_off_c, 1, 76, 0
1, 60, Note_on_c, 1, 81, 127
1, 90, Note_off_c, 1, 81, 0
1, 90, Note_on_c, 1, 80, 127
1, 120, Note_off_c, 1, 80, 0
1, 150, Note_on_c, 1, 84, 127
1, 180, Note_off_c, 1, 84, 0
1, 240, Note_on_c, 1, 69, 127
1, 269, Note_off_c, 1, 69, 0
1, 270, Note_on_c, 1, 76, 127
1, 299, Note_off_c, 1, 76, 0
1, 300, Note_on_c, 1, 81, 127
1, 329, Note_off_c, 1, 81, 0
1, 330, Note_on_c, 1, 80, 127
1, 359, Note_off_c, 1, 80, 0
1, 360, Note_on_c, 1, 81, 127
1, 389, Note_off_c, 1, 81, 0
1, 390, Note_on_c, 1, 84, 127
1, 419, Note_off_c, 1, 84, 0
1, 420, Note_on_c, 1, 81, 127
1, 449, Note_off_c, 1, 81, 0
1, 450, Note_on_c, 1, 76, 127
1, 479, Note_off_c, 1, 76, 0
1, 480, Note_on_c, 1, 69, 127
1, 509, Note_off_c, 1, 69, 0
1, 510, Note_on_c, 1, 72, 127
1, 539, Note_off_c, 1, 72, 0
1, 540, Note_on_c, 1, 76, 127
1, 569, Note_off_c, 1, 76, 0
1, 570, Note_on_c, 1, 77, 127
1, 599, Note_off_c, 1, 77, 0
1, 600, Note_on_c, 1, 68, 127
1, 629, Note_off_c, 1, 68, 0
1, 630, Note_on_c, 1, 77, 127
1, 659, Note_off_c, 1, 77, 0
1, 660, Note_on_c, 1, 76, 127
1, 689, Note_off_c, 1, 76, 0
1, 690, Note_on_c, 1, 74, 127
1, 719, Note_off_c, 1, 74, 0
1, 720, Note_on_c, 1, 72, 127
1, 749, Note_off_c, 1, 72, 0
1, 750, Note_on_c, 1, 76, 127
1, 779, Note_off_c, 1, 76, 0
1, 780, Note_on_c, 1, 80, 127
1, 809, Note_off_c, 1, 80, 0
1, 810, Note_on_c, 1, 81, 127
1, 839, Note_off_c, 1, 81, 0
1, 840, Note_on_c, 1, 64, 127
1, 869, Note_off_c, 1, 64, 0
1, 870, Note_on_c, 1, 74, 127
1, 899, Note_off_c, 1, 74, 0
1, 900, Note_on_c, 1, 72, 127
1, 929, Note_off_c, 1, 72, 0
1, 930, Note_on_c, 1, 71, 127
1, 959, Note_off_c, 1, 71, 0
1, 960, Note_on_c, 1, 69, 127
1, 989, Note_off_c, 1, 69, 0
1, 990, Note_on_c, 1, 72, 127
1, 1019, Note_off_c, 1, 72, 0
1, 1020, Note_on_c, 1, 76, 127
1, 1049, Note_off_c, 1, 76, 0
1, 1050, Note_on_c, 1, 77, 127
1, 1079, Note_off_c, 1, 77, 0
1, 1080, Note_on_c, 1, 68, 127
1, 1109, Note_off_c, 1, 68, 0
1, 1110, Note_on_c, 1, 77, 127
1, 1139, Note_off_c, 1, 77, 0
1, 1140, Note_on_c, 1, 76, 127
1, 1169, Note_off_c, 1, 76, 0
1, 1170, Note_on_c, 1, 74, 127
1, 1199, Note_off_c, 1, 74, 0
1, 1200, Note_on_c, 1, 72, 127
1, 1229, Note_off_c, 1, 72, 0
1, 1230, Note_on_c, 1, 76, 127
1, 1259, Note_off_c, 1, 76, 0
1, 1260, Note_on_c, 1, 80, 127
1, 1289, Note_off_c, 1, 80, 0
1, 1290, Note_on_c, 1, 81, 127
1, 1319, Note_off_c, 1, 81, 0
1, 1320, Note_on_c, 1, 64, 127
1, 1349, Note_off_c, 1, 64, 0
1, 1350, Note_on_c, 1, 74, 127
1, 1379, Note_off_c, 1, 74, 0
1, 1380, Note_on_c, 1, 72, 127
1, 1409, Note_off_c, 1, 72, 0
1, 1410, Note_on_c, 1, 71, 127
1, 1439, Note_off_c, 1, 71, 0
1, 1440, Note_on_c, 1, 69, 127
1, 1469, Note_off_c, 1, 69, 0
1, 1470, Note_on_c, 1, 72, 127
1, 1499, Note_off_c, 1, 72, 0
1, 1500, Note_on_c, 1, 68, 127
1, 1529, Note_off_c, 1, 68, 0
1, 1530, Note_on_c, 1, 69, 127
1, 1559, Note_off_c, 1, 69, 0
1, 1560, Note_on_c, 1, 65, 127
1, 1589, Note_off_c, 1, 65, 0
1, 1590, Note_on_c, 1, 74, 127
1, 1619, Note_off_c, 1, 74, 0
1, 1620, Note_on_c, 1, 68, 127
1, 1649, Note_off_c, 1, 68, 0
1, 1650, Note_on_c, 1, 69, 127
1, 1679, Note_off_c, 1, 69, 0
1, 1680, Note_on_c, 1, 64, 127
1, 1709, Note_off_c, 1, 64, 0
1, 1710, Note_on_c, 1, 72, 127
1, 1739, Note_off_c, 1, 72, 0
1, 1740, Note_on_c, 1, 68, 127
1, 1769, Note_off_c, 1, 68, 0
1, 1770, Note_on_c, 1, 69, 127
1, 1799, Note_off_c, 1, 69, 0
1, 1800, Note_on_c, 1, 62, 127
1, 1829, Note_off_c, 1, 62, 0
1, 1830, Note_on_c, 1, 72, 127
1, 1859, Note_off_c, 1, 72, 0
1, 1860, Note_on_c, 1, 71, 127
1, 1889, Note_off_c, 1, 71, 0
1, 1890, Note_on_c, 1, 69, 127
1, 1919, Note_off_c, 1, 69, 0
1, 1920, Note_on_c, 1, 68, 127
1, 1949, Note_off_c, 1, 68, 0
1, 1950, Note_on_c, 1, 64, 127
1, 1979, Note_off_c, 1, 64, 0
1, 1980, Note_on_c, 1, 68, 127
1, 2009, Note_off_c, 1, 68, 0
1, 2010, Note_on_c, 1, 71, 127
1, 2039, Note_off_c, 1, 71, 0
1, 2040, Note_on_c, 1, 76, 127
1, 2069, Note_off_c, 1, 76, 0
1, 2070, Note_on_c, 1, 80, 127
1, 2099, Note_off_c, 1, 80, 0
1, 2100, Note_on_c, 1, 83, 127
1, 2129, Note_off_c, 1, 83, 0
1, 2130, Note_on_c, 1, 86, 127
1, 2159, Note_off_c, 1, 86, 0
1, 2160, Note_on_c, 1, 89, 127
1, 2189, Note_off_c, 1, 89, 0
1, 2190, Note_on_c, 1, 86, 127
1, 2219, Note_off_c, 1, 86, 0
1, 2220, Note_on_c, 1, 83, 127
1, 2249, Note_off_c, 1, 83, 0
1, 2250, Note_on_c, 1, 80, 127
1, 2279, Note_off_c, 1, 80, 0
1, 2280, Note_on_c, 1, 76, 127
1, 2309, Note_off_c, 1, 76, 0
1, 2310, Note_on_c, 1, 74, 127
1, 2339, Note_off_c, 1, 74, 0
1, 2340, Note_on_c, 1, 72, 127
1, 2369, Note_off_c, 1, 72, 0
1, 2370, Note_on_c, 1, 71, 127
1, 2399, Note_off_c, 1, 71, 0
1, 2400, Note_on_c, 1, 72, 127
1, 2429, Note_off_c, 1, 72, 0
1, 2430, Note_on_c, 1, 69, 127
1, 2459, Note_off_c, 1, 69, 0
1, 2460, Note_on_c, 1, 72, 127
1, 2489, Note_off_c, 1, 72, 0
1, 2490, Note_on_c, 1, 76, 127
1, 2519, Note_off_c, 1, 76, 0
1, 2520, Note_on_c, 1, 81, 127
1, 2549, Note_off_c, 1, 81, 0
1, 2550, Note_on_c, 1, 84, 127
1, 2579, Note_off_c, 1, 84, 0
1, 2580, Note_on_c, 1, 88, 127
1, 2609, Note_off_c, 1, 88, 0
1, 2610, Note_on_c, 1, 77, 127
1, 2639, Note_off_c, 1, 77, 0
1, 2640, Note_on_c, 1, 79, 127
1, 2669, Note_off_c, 1, 79, 0
1, 2670, Note_on_c, 1, 82, 127
1, 2699, Note_off_c, 1, 82, 0
1, 2700, Note_on_c, 1, 79, 127
1, 2729, Note_off_c, 1, 79, 0
1, 2730, Note_on_c, 1, 76, 127
1, 2759, Note_off_c, 1, 76, 0
1, 2760, Note_on_c, 1, 72, 127
1, 2789, Note_off_c, 1, 72, 0
1, 2790, Note_on_c, 1, 70, 127
1, 2819, Note_off_c, 1, 70, 0
1, 2820, Note_on_c, 1, 69, 127
1, 2849, Note_off_c, 1, 69, 0
1, 2850, Note_on_c, 1, 67, 127
1, 2879, Note_off_c, 1, 67, 0
1, 2880, Note_on_c, 1, 69, 127
1, 2909, Note_off_c, 1, 69, 0
1, 2910, Note_on_c, 1, 65, 127
1, 2939, Note_off_c, 1, 65, 0
1, 2940, Note_on_c, 1, 69, 127
1, 2969, Note_off_c, 1, 69, 0
1, 2970, Note_on_c, 1, 72, 127
1, 2999, Note_off_c, 1, 72, 0
1, 3000, Note_on_c, 1, 74, 127
1, 3029, Note_off_c, 1, 74, 0
1, 3030, Note_on_c, 1, 77, 127
1, 3059, Note_off_c, 1, 77, 0
1, 3060, Note_on_c, 1, 81, 127
1, 3089, Note_off_c, 1, 81, 0
1, 3090, Note_on_c, 1, 72, 127
1, 3119, Note_off_c, 1, 72, 0
1, 3120, Note_on_c, 1, 71, 127
1, 3149, Note_off_c, 1, 71, 0
1, 3150, Note_on_c, 1, 67, 127
1, 3179, Note_off_c, 1, 67, 0
1, 3180, Note_on_c, 1, 71, 127
1, 3209, Note_off_c, 1, 71, 0
1, 3210, Note_on_c, 1, 74, 127
1, 3239, Note_off_c, 1, 74, 0
1, 3240, Note_on_c, 1, 76, 127
1, 3269, Note_off_c, 1, 76, 0
1, 3270, Note_on_c, 1, 79, 127
1, 3299, Note_off_c, 1, 79, 0
1, 3300, Note_on_c, 1, 83, 127
1, 3329, Note_off_c, 1, 83, 0
1, 3330, Note_on_c, 1, 74, 127
1, 3359, Note_off_c, 1, 74, 0
1, 3360, Note_on_c, 1, 72, 127
1, 3389, Note_off_c, 1, 72, 0
1, 3390, Note_on_c, 1, 69, 127
1, 3419, Note_off_c, 1, 69, 0
1, 3420, Note_on_c, 1, 72, 127
1, 3449, Note_off_c, 1, 72, 0
1, 3450, Note_on_c, 1, 76, 127
1, 3479, Note_off_c, 1, 76, 0
1, 3480, Note_on_c, 1, 77, 127
1, 3509, Note_off_c, 1, 77, 0
1, 3510, Note_on_c, 1, 81, 127
1, 3539, Note_off_c, 1, 81, 0
1, 3540, Note_on_c, 1, 84, 127
1, 3569, Note_off_c, 1, 84, 0
1, 3570, Note_on_c, 1, 76, 127
1, 3599, Note_off_c, 1, 76, 0
1, 3600, Note_on_c, 1, 74, 127
1, 3629, Note_off_c, 1, 74, 0
1, 3630, Note_on_c, 1, 71, 127
1, 3659, Note_off_c, 1, 71, 0
1, 3660, Note_on_c, 1, 74, 127
1, 3689, Note_off_c, 1, 74, 0
1, 3690, Note_on_c, 1, 78, 127
1, 3719, Note_off_c, 1, 78, 0
1, 3720, Note_on_c, 1, 79, 127
1, 3749, Note_off_c, 1, 79, 0
1, 3750, Note_on_c, 1, 83, 127
1, 3779, Note_off_c, 1, 83, 0
1, 3780, Note_on_c, 1, 86, 127
1, 3809, Note_off_c, 1, 86, 0
1, 3810, Note_on_c, 1, 77, 127
1, 3839, Note_off_c, 1, 77, 0
1, 3840, Note_on_c, 1, 76, 127
1, 3869, Note_off_c, 1, 76, 0
1, 3870, Note_on_c, 1, 79, 127
1, 3899, Note_off_c, 1, 79, 0
1, 3900, Note_on_c, 1, 84, 127
1, 3929, Note_off_c, 1, 84, 0
1, 3930, Note_on_c, 1, 83, 127
1, 3959, Note_off_c, 1, 83, 0
1, 3960, Note_on_c, 1, 84, 127
1, 3989, Note_off_c, 1, 84, 0
1, 3990, Note_on_c, 1, 88, 127
1, 4019, Note_off_c, 1, 88, 0
1, 4020, Note_on_c, 1, 84, 127
1, 4049, Note_off_c, 1, 84, 0
1, 4050, Note_on_c, 1, 79, 127
1, 4079, Note_off_c, 1, 79, 0
1, 4080, Note_on_c, 1, 72, 127
1, 4109, Note_off_c, 1, 72, 0
1, 4110, Note_on_c, 1, 79, 127
1, 4139, Note_off_c, 1, 79, 0
1, 4140, Note_on_c, 1, 84, 127
1, 4169, Note_off_c, 1, 84, 0
1, 4170, Note_on_c, 1, 83, 127
1, 4199, Note_off_c, 1, 83, 0
1, 4200, Note_on_c, 1, 84, 127
1, 4229, Note_off_c, 1, 84, 0
1, 4230, Note_on_c, 1, 88, 127
1, 4259, Note_off_c, 1, 88, 0
1, 4260, Note_on_c, 1, 84, 127
1, 4289, Note_off_c, 1, 84, 0
1, 4290, Note_on_c, 1, 79, 127
1, 4319, Note_off_c, 1, 79, 0
1, 4320, Note_on_c, 1, 72, 127
1, 4349, Note_off_c, 1, 72, 0
1, 4350, Note_on_c, 1, 79, 127
1, 4379, Note_off_c, 1, 79, 0
1, 4380, Note_on_c, 1, 82, 127
1, 4409, Note_off_c, 1, 82, 0
1, 4410, Note_on_c, 1, 81, 127
1, 4439, Note_off_c, 1, 81, 0
1, 4440, Note_on_c, 1, 82, 127
1, 4469, Note_off_c, 1, 82, 0
1, 4470, Note_on_c, 1, 88, 127
1, 4499, Note_off_c, 1, 88, 0
1, 4500, Note_on_c, 1, 82, 127
1, 4529, Note_off_c, 1, 82, 0
1, 4530, Note_on_c, 1, 79, 127
1, 4559, Note_off_c, 1, 79, 0
1, 4560, Note_on_c, 1, 72, 127
1, 4589, Note_off_c, 1, 72, 0
1, 4590, Note_on_c, 1, 79, 127
1, 4619, Note_off_c, 1, 79, 0
1, 4620, Note_on_c, 1, 82, 127
1, 4649, Note_off_c, 1, 82, 0
1, 4650, Note_on_c, 1, 81, 127
1, 4679, Note_off_c, 1, 81, 0
1, 4680, Note_on_c, 1, 82, 127
1, 4709, Note_off_c, 1, 82, 0
1, 4710, Note_on_c, 1, 88, 127
1, 4739, Note_off_c, 1, 88, 0
1, 4740, Note_on_c, 1, 82, 127
1, 4769, Note_off_c, 1, 82, 0
1, 4770, Note_on_c, 1, 79, 127
1, 4799, Note_off_c, 1, 79, 0
1, 4800, Note_on_c, 1, 73, 127
1, 4829, Note_off_c, 1, 73, 0
1, 4830, Note_on_c, 1, 79, 127
1, 4859, Note_off_c, 1, 79, 0
1, 4860, Note_on_c, 1, 82, 127
1, 4889, Note_off_c, 1, 82, 0
1, 4890, Note_on_c, 1, 81, 127
1, 4919, Note_off_c, 1, 81, 0
1, 4920, Note_on_c, 1, 82, 127
1, 4949, Note_off_c, 1, 82, 0
1, 4950, Note_on_c, 1, 88, 127
1, 4979, Note_off_c, 1, 88, 0
1, 4980, Note_on_c, 1, 82, 127
1, 5009, Note_off_c, 1, 82, 0
1, 5010, Note_on_c, 1, 79, 127
1, 5039, Note_off_c, 1, 79, 0
1, 5040, Note_on_c, 1, 73, 127
1, 5069, Note_off_c, 1, 73, 0
1, 5070, Note_on_c, 1, 79, 127
1, 5099, Note_off_c, 1, 79, 0
1, 5100, Note_on_c, 1, 76, 127
1, 5129, Note_off_c, 1, 76, 0
1, 5130, Note_on_c, 1, 73, 127
1, 5159, Note_off_c, 1, 73, 0
1, 5160, Note_on_c, 1, 69, 127
1, 5189, Note_off_c, 1, 69, 0
1, 5190, Note_on_c, 1, 67, 127
1, 5219, Note_off_c, 1, 67, 0
1, 5220, Note_on_c, 1, 65, 127
1, 5249, Note_off_c, 1, 65, 0
1, 5250, Note_on_c, 1, 64, 127
1, 5279, Note_off_c, 1, 64, 0
1, 5280, Note_on_c, 1, 62, 127
1, 5309, Note_off_c, 1, 62, 0
1, 5310, Note_on_c, 1, 79, 127
1, 5339, Note_off_c, 1, 79, 0
1, 5340, Note_on_c, 1, 77, 127
1, 5369, Note_off_c, 1, 77, 0
1, 5370, Note_on_c, 1, 76, 127
1, 5399, Note_off_c, 1, 76, 0
1, 5400, Note_on_c, 1, 77, 127
1, 5429, Note_off_c, 1, 77, 0
1, 5430, Note_on_c, 1, 81, 127
1, 5459, Note_off_c, 1, 81, 0
1, 5460, Note_on_c, 1, 77, 127
1, 5489, Note_off_c, 1, 77, 0
1, 5490, Note_on_c, 1, 74, 127
1, 5519, Note_off_c, 1, 74, 0
1, 5520, Note_on_c, 1, 71, 127
1, 5549, Note_off_c, 1, 71, 0
1, 5550, Note_on_c, 1, 68, 127
1, 5579, Note_off_c, 1, 68, 0
1, 5580, Note_on_c, 1, 71, 127
1, 5609, Note_off_c, 1, 71, 0
1, 5610, Note_on_c, 1, 74, 127
1, 5639, Note_off_c, 1, 74, 0
1, 5640, Note_on_c, 1, 76, 127
1, 5669, Note_off_c, 1, 76, 0
1, 5670, Note_on_c, 1, 74, 127
1, 5699, Note_off_c, 1, 74, 0
1, 5700, Note_on_c, 1, 72, 127
1, 5729, Note_off_c, 1, 72, 0
1, 5730, Note_on_c, 1, 71, 127
1, 5759, Note_off_c, 1, 71, 0
1, 5760, Note_on_c, 1, 72, 127
1, 5789, Note_off_c, 1, 72, 0
1, 5790, Note_on_c, 1, 76, 127
1, 5819, Note_off_c, 1, 76, 0
1, 5820, Note_on_c, 1, 81, 127
1, 5849, Note_off_c, 1, 81, 0
1, 5850, Note_on_c, 1, 80, 127
1, 5879, Note_off_c, 1, 80, 0
1, 5880, Note_on_c, 1, 81, 127
1, 5909, Note_off_c, 1, 81, 0
1, 5910, Note_on_c, 1, 84, 127
1, 5939, Note_off_c, 1, 84, 0
1, 5940, Note_on_c, 1, 81, 127
1, 5969, Note_off_c, 1, 81, 0
1, 5970, Note_on_c, 1, 78, 127
1, 5999, Note_off_c, 1, 78, 0
1, 6000, Note_on_c, 1, 75, 127
1, 6029, Note_off_c, 1, 75, 0
1, 6030, Note_on_c, 1, 71, 127
1, 6059, Note_off_c, 1, 71, 0
1, 6060, Note_on_c, 1, 75, 127
1, 6089, Note_off_c, 1, 75, 0
1, 6090, Note_on_c, 1, 78, 127
1, 6119, Note_off_c, 1, 78, 0
1, 6120, Note_on_c, 1, 83, 127
1, 6149, Note_off_c, 1, 83, 0
1, 6150, Note_on_c, 1, 81, 127
1, 6179, Note_off_c, 1, 81, 0
1, 6180, Note_on_c, 1, 79, 127
1, 6209, Note_off_c, 1, 79, 0
1, 6210, Note_on_c, 1, 78, 127
1, 6239, Note_off_c, 1, 78, 0
1, 6240, Note_on_c, 1, 79, 127
1, 6269, Note_off_c, 1, 79, 0
1, 6270, Note_on_c, 1, 78, 127
1, 6299, Note_off_c, 1, 78, 0
1, 6300, Note_on_c, 1, 76, 127
1, 6329, Note_off_c, 1, 76, 0
1, 6330, Note_on_c, 1, 79, 127
1, 6359, Note_off_c, 1, 79, 0
1, 6360, Note_on_c, 1, 69, 127
1, 6389, Note_off_c, 1, 69, 0
1, 6390, Note_on_c, 1, 76, 127
1, 6419, Note_off_c, 1, 76, 0
1, 6420, Note_on_c, 1, 79, 127
1, 6449, Note_off_c, 1, 79, 0
1, 6450, Note_on_c, 1, 84, 127
1, 6479, Note_off_c, 1, 84, 0
1, 6480, Note_on_c, 1, 78, 127
1, 6509, Note_off_c, 1, 78, 0
1, 6510, Note_on_c, 1, 76, 127
1, 6539, Note_off_c, 1, 76, 0
1, 6540, Note_on_c, 1, 74, 127
1, 6569, Note_off_c, 1, 74, 0
1, 6570, Note_on_c, 1, 78, 127
1, 6599, Note_off_c, 1, 78, 0
1, 6600, Note_on_c, 1, 67, 127
1, 6629, Note_off_c, 1, 67, 0
1, 6630, Note_on_c, 1, 74, 127
1, 6659, Note_off_c, 1, 74, 0
1, 6660, Note_on_c, 1, 78, 127
1, 6689, Note_off_c, 1, 78, 0
1, 6690, Note_on_c, 1, 83, 127
1, 6719, Note_off_c, 1, 83, 0
1, 6720, Note_on_c, 1, 76, 127
1, 6749, Note_off_c, 1, 76, 0
1, 6750, Note_on_c, 1, 74, 127
1, 6779, Note_off_c, 1, 74, 0
1, 6780, Note_on_c, 1, 72, 127
1, 6809, Note_off_c, 1, 72, 0
1, 6810, Note_on_c, 1, 76, 127
1, 6839, Note_off_c, 1, 76, 0
1, 6840, Note_on_c, 1, 66, 127
1, 6869, Note_off_c, 1, 66, 0
1, 6870, Note_on_c, 1, 76, 127
1, 6899, Note_off_c, 1, 76, 0
1, 6900, Note_on_c, 1, 78, 127
1, 6929, Note_off_c, 1, 78, 0
1, 6930, Note_on_c, 1, 81, 127
1, 6959, Note_off_c, 1, 81, 0
1, 6960, Note_on_c, 1, 75, 127
1, 6989, Note_off_c, 1, 75, 0
1, 6990, Note_on_c, 1, 71, 127
1, 7019, Note_off_c, 1, 71, 0
1, 7020, Note_on_c, 1, 72, 127
1, 7049, Note_off_c, 1, 72, 0
1, 7050, Note_on_c, 1, 69, 127
1, 7079, Note_off_c, 1, 69, 0
1, 7080, Note_on_c, 1, 63, 127
1, 7109, Note_off_c, 1, 63, 0
1, 7110, Note_on_c, 1, 72, 127
1, 7139, Note_off_c, 1, 72, 0
1, 7140, Note_on_c, 1, 71, 127
1, 7169, Note_off_c, 1, 71, 0
1, 7170, Note_on_c, 1, 69, 127
1, 7199, Note_off_c, 1, 69, 0
1, 7200, Note_on_c, 1, 67, 127
1, 7229, Note_off_c, 1, 67, 0
1, 7230, Note_on_c, 1, 76, 127
1, 7259, Note_off_c, 1, 76, 0
1, 7260, Note_on_c, 1, 77, 127
1, 7289, Note_off_c, 1, 77, 0
1, 7290, Note_on_c, 1, 74, 127
1, 7319, Note_off_c, 1, 74, 0
1, 7320, Note_on_c, 1, 68, 127
1, 7349, Note_off_c, 1, 68, 0
1, 7350, Note_on_c, 1, 77, 127
1, 7379, Note_off_c, 1, 77, 0
1, 7380, Note_on_c, 1, 76, 127
1, 7409, Note_off_c, 1, 76, 0
1, 7410, Note_on_c, 1, 74, 127
1, 7439, Note_off_c, 1, 74, 0
1, 7440, Note_on_c, 1, 69, 127
1, 7469, Note_off_c, 1, 69, 0
1, 7470, Note_on_c, 1, 78, 127
1, 7499, Note_off_c, 1, 78, 0
1, 7500, Note_on_c, 1, 79, 127
1, 7529, Note_off_c, 1, 79, 0
1, 7530, Note_on_c, 1, 76, 127
1, 7559, Note_off_c, 1, 76, 0
1, 7560, Note_on_c, 1, 70, 127
1, 7589, Note_off_c, 1, 70, 0
1, 7590, Note_on_c, 1, 79, 127
1, 7619, Note_off_c, 1, 79, 0
1, 7620, Note_on_c, 1, 78, 127
1, 7649, Note_off_c, 1, 78, 0
1, 7650, Note_on_c, 1, 76, 127
1, 7679, Note_off_c, 1, 76, 0
1, 7680, Note_on_c, 1, 75, 127
1, 7709, Note_off_c, 1, 75, 0
1, 7710, Note_on_c, 1, 83, 127
1, 7739, Note_off_c, 1, 83, 0
1, 7740, Note_on_c, 1, 80, 127
1, 7769, Note_off_c, 1, 80, 0
1, 7770, Note_on_c, 1, 74, 127
1, 7799, Note_off_c, 1, 74, 0
1, 7800, Note_on_c, 1, 73, 127
1, 7829, Note_off_c, 1, 73, 0
1, 7830, Note_on_c, 1, 81, 127
1, 7859, Note_off_c, 1, 81, 0
1, 7860, Note_on_c, 1, 78, 127
1, 7889, Note_off_c, 1, 78, 0
1, 7890, Note_on_c, 1, 72, 127
1, 7919, Note_off_c, 1, 72, 0
1, 7920, Note_on_c, 1, 71, 127
1, 7949, Note_off_c, 1, 71, 0
1, 7950, Note_on_c, 1, 79, 127
1, 7979, Note_off_c, 1, 79, 0
1, 7980, Note_on_c, 1, 76, 127
1, 8009, Note_off_c, 1, 76, 0
1, 8010, Note_on_c, 1, 70, 127
1, 8039, Note_off_c, 1, 70, 0
1, 8040, Note_on_c, 1, 69, 127
1, 8069, Note_off_c, 1, 69, 0
1, 8070, Note_on_c, 1, 78, 127
1, 8099, Note_off_c, 1, 78, 0
1, 8100, Note_on_c, 1, 75, 127
1, 8129, Note_off_c, 1, 75, 0
1, 8130, Note_on_c, 1, 69, 127
1, 8159, Note_off_c, 1, 69, 0
1, 8160, Note_on_c, 1, 67, 127
1, 8189, Note_off_c, 1, 67, 0
1, 8190, Note_on_c, 1, 76, 127
1, 8219, Note_off_c, 1, 76, 0
1, 8220, Note_on_c, 1, 72, 127
1, 8249, Note_off_c, 1, 72, 0
1, 8250, Note_on_c, 1, 69, 127
1, 8279, Note_off_c, 1, 69, 0
1, 8280, Note_on_c, 1, 66, 127
1, 8309, Note_off_c, 1, 66, 0
1, 8310, Note_on_c, 1, 72, 127
1, 8339, Note_off_c, 1, 72, 0
1, 8340, Note_on_c, 1, 69, 127
1, 8369, Note_off_c, 1, 69, 0
1, 8370, Note_on_c, 1, 66, 127
1, 8399, Note_off_c, 1, 66, 0
1, 8400, Note_on_c, 1, 63, 127
1, 8429, Note_off_c, 1, 63, 0
1, 8430, Note_on_c, 1, 66, 127
1, 8459, Note_off_c, 1, 66, 0
1, 8460, Note_on_c, 1, 69, 127
1, 8489, Note_off_c, 1, 69, 0
1, 8490, Note_on_c, 1, 72, 127
1, 8519, Note_off_c, 1, 72, 0
1, 8520, Note_on_c, 1, 71, 127
1, 8549, Note_off_c, 1, 71, 0
1, 8550, Note_on_c, 1, 81, 127
1, 8579, Note_off_c, 1, 81, 0
1, 8580, Note_on_c, 1, 79, 127
1, 8609, Note_off_c, 1, 79, 0
1, 8610, Note_on_c, 1, 78, 127
1, 8639, Note_off_c, 1, 78, 0
1, 8640, Note_on_c, 1, 79, 127
1, 8670, Note_off_c, 1, 79, 0
1, 8670, Note_on_c, 1, 78, 127
1, 8685, Note_off_c, 1, 78, 0
1, 8685, Note_on_c, 1, 76, 127
1, 8700, Note_off_c, 1, 76, 0
1, 8700, Note_on_c, 1, 83, 127
1, 8730, Note_off_c, 1, 83, 0
1, 8730, Note_on_c, 1, 84, 127
1, 8760, Note_off_c, 1, 84, 0
1, 9150, Note_on_c, 1, 76, 127
1, 9180, Note_off_c, 1, 76, 0
1, 9180, Note_on_c, 1, 81, 127
1, 9210, Note_off_c, 1, 81, 0
1, 9210, Note_on_c, 1, 80, 127
1, 9240, Note_off_c, 1, 80, 0
1, 9270, Note_on_c, 1, 84, 127
1, 9300, Note_off_c, 1, 84, 0
1, 9360, Note_on_c, 1, 69, 127
1, 9389, Note_off_c, 1, 69, 0
1, 9390, Note_on_c, 1, 76, 127
1, 9419, Note_off_c, 1, 76, 0
1, 9420, Note_on_c, 1, 81, 127
1, 9449, Note_off_c, 1, 81, 0
1, 9450, Note_on_c, 1, 80, 127
1, 9479, Note_off_c, 1, 80, 0
1, 9480, Note_on_c, 1, 81, 127
1, 9509, Note_off_c, 1, 81, 0
1, 9510, Note_on_c, 1, 84, 127
1, 9539, Note_off_c, 1, 84, 0
1, 9540, Note_on_c, 1, 81, 127
1, 9569, Note_off_c, 1, 81, 0
1, 9570, Note_on_c, 1, 76, 127
1, 9599, Note_off_c, 1, 76, 0
1, 9600, Note_on_c, 1, 69, 127
1, 9629, Note_off_c, 1, 69, 0
1, 9630, Note_on_c, 1, 72, 127
1, 9659, Note_off_c, 1, 72, 0
1, 9660, Note_on_c, 1, 76, 127
1, 9689, Note_off_c, 1, 76, 0
1, 9690, Note_on_c, 1, 77, 127
1, 9719, Note_off_c, 1, 77, 0
1, 9720, Note_on_c, 1, 68, 127
1, 9749, Note_off_c, 1, 68, 0
1, 9750, Note_on_c, 1, 77, 127
1, 9779, Note_off_c, 1, 77, 0
1, 9780, Note_on_c, 1, 76, 127
1, 9809, Note_off_c, 1, 76, 0
1, 9810, Note_on_c, 1, 74, 127
1, 9839, Note_off_c, 1, 74, 0
1, 9840, Note_on_c, 1, 72, 127
1, 9869, Note_off_c, 1, 72, 0
1, 9870, Note_on_c, 1, 76, 127
1, 9899, Note_off_c, 1, 76, 0
1, 9900, Note_on_c, 1, 80, 127
1, 9929, Note_off_c, 1, 80, 0
1, 9930, Note_on_c, 1, 81, 127
1, 9959, Note_off_c, 1, 81, 0
1, 9960, Note_on_c, 1, 64, 127
1, 9989, Note_off_c, 1, 64, 0
1, 9990, Note_on_c, 1, 74, 127
1, 10019, Note_off_c, 1, 74, 0
1, 10020, Note_on_c, 1, 72, 127
1, 10049, Note_off_c, 1, 72, 0
1, 10050, Note_on_c, 1, 71, 127
1, 10079, Note_off_c, 1, 71, 0
1, 10080, Note_on_c, 1, 69, 127
1, 10109, Note_off_c, 1, 69, 0
1, 10110, Note_on_c, 1, 72, 127
1, 10139, Note_off_c, 1, 72, 0
1, 10140, Note_on_c, 1, 76, 127
1, 10169, Note_off_c, 1, 76, 0
1, 10170, Note_on_c, 1, 77, 127
1, 10199, Note_off_c, 1, 77, 0
1, 10200, Note_on_c, 1, 68, 127
1, 10229, Note_off_c, 1, 68, 0
1, 10230, Note_on_c, 1, 77, 127
1, 10259, Note_off_c, 1, 77, 0
1, 10260, Note_on_c, 1, 76, 127
1, 10289, Note_off_c, 1, 76, 0
1, 10290, Note_on_c, 1, 74, 127
1, 10319, Note_off_c, 1, 74, 0
1, 10320, Note_on_c, 1, 72, 127
1, 10349, Note_off_c, 1, 72, 0
1, 10350, Note_on_c, 1, 76, 127
1, 10379, Note_off_c, 1, 76, 0
1, 10380, Note_on_c, 1, 80, 127
1, 10409, Note_off_c, 1, 80, 0
1, 10410, Note_on_c, 1, 81, 127
1, 10439, Note_off_c, 1, 81, 0
1, 10440, Note_on_c, 1, 64, 127
1, 10469, Note_off_c, 1, 64, 0
1, 10470, Note_on_c, 1, 74, 127
1, 10499, Note_off_c, 1, 74, 0
1, 10500, Note_on_c, 1, 72, 127
1, 10529, Note_off_c, 1, 72, 0
1, 10530, Note_on_c, 1, 71, 127
1, 10559, Note_off_c, 1, 71, 0
1, 10560, Note_on_c, 1, 69, 127
1, 10589, Note_off_c, 1, 69, 0
1, 10590, Note_on_c, 1, 72, 127
1, 10619, Note_off_c, 1, 72, 0
1, 10620, Note_on_c, 1, 68, 127
1, 10649, Note_off_c, 1, 68, 0
1, 10650, Note_on_c, 1, 69, 127
1, 10679, Note_off_c, 1, 69, 0
1, 10680, Note_on_c, 1, 65, 127
1, 10709, Note_off_c, 1, 65, 0
1, 10710, Note_on_c, 1, 74, 127
1, 10739, Note_off_c, 1, 74, 0
1, 10740, Note_on_c, 1, 68, 127
1, 10769, Note_off_c, 1, 68, 0
1, 10770, Note_on_c, 1, 69, 127
1, 10799, Note_off_c, 1, 69, 0
1, 10800, Note_on_c, 1, 64, 127
1, 10829, Note_off_c, 1, 64, 0
1, 10830, Note_on_c, 1, 72, 127
1, 10859, Note_off_c, 1, 72, 0
1, 10860, Note_on_c, 1, 68, 127
1, 10889, Note_off_c, 1, 68, 0
1, 10890, Note_on_c, 1, 69, 127
1, 10919, Note_off_c, 1, 69, 0
1, 10920, Note_on_c, 1, 62, 127
1, 10949, Note_off_c, 1, 62, 0
1, 10950, Note_on_c, 1, 72, 127
1, 10979, Note_off_c, 1, 72, 0
1, 10980, Note_on_c, 1, 71, 127
1, 11009, Note_off_c, 1, 71, 0
1, 11010, Note_on_c, 1, 69, 127
1, 11039, Note_off_c, 1, 69, 0
1, 11040, Note_on_c, 1, 68, 127
1, 11069, Note_off_c, 1, 68, 0
1, 11070, Note_on_c, 1, 64, 127
1, 11099, Note_off_c, 1, 64, 0
1, 11100, Note_on_c, 1, 68, 127
1, 11129, Note_off_c, 1, 68, 0
1, 11130, Note_on_c, 1, 71, 127
1, 11159, Note_off_c, 1, 71, 0
1, 11160, Note_on_c, 1, 76, 127
1, 11189, Note_off_c, 1, 76, 0
1, 11190, Note_on_c, 1, 80, 127
1, 11219, Note_off_c, 1, 80, 0
1, 11220, Note_on_c, 1, 83, 127
1, 11249, Note_off_c, 1, 83, 0
1, 11250, Note_on_c, 1, 86, 127
1, 11279, Note_off_c, 1, 86, 0
1, 11280, Note_on_c, 1, 89, 127
1, 11309, Note_off_c, 1, 89, 0
1, 11310, Note_on_c, 1, 86, 127
1, 11339, Note_off_c, 1, 86, 0
1, 11340, Note_on_c, 1, 83, 127
1, 11369, Note_off_c, 1, 83, 0
1, 11370, Note_on_c, 1, 80, 127
1, 11399, Note_off_c, 1, 80, 0
1, 11400, Note_on_c, 1, 76, 127
1, 11429, Note_off_c, 1, 76, 0
1, 11430, Note_on_c, 1, 74, 127
1, 11459, Note_off_c, 1, 74, 0
1, 11460, Note_on_c, 1, 72, 127
1, 11489, Note_off_c, 1, 72, 0
1, 11490, Note_on_c, 1, 71, 127
1, 11519, Note_off_c, 1, 71, 0
1, 11520, Note_on_c, 1, 72, 127
1, 11549, Note_off_c, 1, 72, 0
1, 11550, Note_on_c, 1, 69, 127
1, 11579, Note_off_c, 1, 69, 0
1, 11580, Note_on_c, 1, 72, 127
1, 11609, Note_off_c, 1, 72, 0
1, 11610, Note_on_c, 1, 76, 127
1, 11639, Note_off_c, 1, 76, 0
1, 11640, Note_on_c, 1, 81, 127
1, 11669, Note_off_c, 1, 81, 0
1, 11670, Note_on_c, 1, 84, 127
1, 11699, Note_off_c, 1, 84, 0
1, 11700, Note_on_c, 1, 88, 127
1, 11729, Note_off_c, 1, 88, 0
1, 11730, Note_on_c, 1, 77, 127
1, 11759, Note_off_c, 1, 77, 0
1, 11760, Note_on_c, 1, 79, 127
1, 11789, Note_off_c, 1, 79, 0
1, 11790, Note_on_c, 1, 82, 127
1, 11819, Note_off_c, 1, 82, 0
1, 11820, Note_on_c, 1, 79, 127
1, 11849, Note_off_c, 1, 79, 0
1, 11850, Note_on_c, 1, 76, 127
1, 11879, Note_off_c, 1, 76, 0
1, 11880, Note_on_c, 1, 72, 127
1, 11909, Note_off_c, 1, 72, 0
1, 11910, Note_on_c, 1, 70, 127
1, 11939, Note_off_c, 1, 70, 0
1, 11940, Note_on_c, 1, 69, 127
1, 11969, Note_off_c, 1, 69, 0
1, 11970, Note_on_c, 1, 67, 127
1, 11999, Note_off_c, 1, 67, 0
1, 12000, Note_on_c, 1, 69, 127
1, 12029, Note_off_c, 1, 69, 0
1, 12030, Note_on_c, 1, 65, 127
1, 12059, Note_off_c, 1, 65, 0
1, 12060, Note_on_c, 1, 69, 127
1, 12089, Note_off_c, 1, 69, 0
1, 12090, Note_on_c, 1, 72, 127
1, 12119, Note_off_c, 1, 72, 0
1, 12120, Note_on_c, 1, 74, 127
1, 12149, Note_off_c, 1, 74, 0
1, 12150, Note_on_c, 1, 77, 127
1, 12179, Note_off_c, 1, 77, 0
1, 12180, Note_on_c, 1, 81, 127
1, 12209, Note_off_c, 1, 81, 0
1, 12210, Note_on_c, 1, 72, 127
1, 12239, Note_off_c, 1, 72, 0
1, 12240, Note_on_c, 1, 71, 127
1, 12269, Note_off_c, 1, 71, 0
1, 12270, Note_on_c, 1, 67, 127
1, 12299, Note_off_c, 1, 67, 0
1, 12300, Note_on_c, 1, 71, 127
1, 12329, Note_off_c, 1, 71, 0
1, 12330, Note_on_c, 1, 74, 127
1, 12359, Note_off_c, 1, 74, 0
1, 12360, Note_on_c, 1, 76, 127
1, 12389, Note_off_c, 1, 76, 0
1, 12390, Note_on_c, 1, 79, 127
1, 12419, Note_off_c, 1, 79, 0
1, 12420, Note_on_c, 1, 83, 127
1, 12449, Note_off_c, 1, 83, 0
1, 12450, Note_on_c, 1, 74, 127
1, 12479, Note_off_c, 1, 74, 0
1, 12480, Note_on_c, 1, 72, 127
1, 12509, Note_off_c, 1, 72, 0
1, 12510, Note_on_c, 1, 69, 127
1, 12539, Note_off_c, 1, 69, 0
1, 12540, Note_on_c, 1, 72, 127
1, 12569, Note_off_c, 1, 72, 0
1, 12570, Note_on_c, 1, 76, 127
1, 12599, Note_off_c, 1, 76, 0
1, 12600, Note_on_c, 1, 77, 127
1, 12629, Note_off_c, 1, 77, 0
1, 12630, Note_on_c, 1, 81, 127
1, 12659, Note_off_c, 1, 81, 0
1, 12660, Note_on_c, 1, 84, 127
1, 12689, Note_off_c, 1, 84, 0
1, 12690, Note_on_c, 1, 76, 127
1, 12719, Note_off_c, 1, 76, 0
1, 12720, Note_on_c, 1, 74, 127
1, 12749, Note_off_c, 1, 74, 0
1, 12750, Note_on_c, 1, 71, 127
1, 12779, Note_off_c, 1, 71, 0
1, 12780, Note_on_c, 1, 74, 127
1, 12809, Note_off_c, 1, 74, 0
1, 12810, Note_on_c, 1, 78, 127
1, 12839, Note_off_c, 1, 78, 0
1, 12840, Note_on_c, 1, 79, 127
1, 12869, Note_off_c, 1, 79, 0
1, 12870, Note_on_c, 1, 83, 127
1, 12899, Note_off_c, 1, 83, 0
1, 12900, Note_on_c, 1, 86, 127
1, 12929, Note_off_c, 1, 86, 0
1, 12930, Note_on_c, 1, 77, 127
1, 12959, Note_off_c, 1, 77, 0
1, 12960, Note_on_c, 1, 76, 127
1, 12989, Note_off_c, 1, 76, 0
1, 12990, Note_on_c, 1, 79, 127
1, 13019, Note_off_c, 1, 79, 0
1, 13020, Note_on_c, 1, 84, 127
1, 13049, Note_off_c, 1, 84, 0
1, 13050, Note_on_c, 1, 83, 127
1, 13079, Note_off_c, 1, 83, 0
1, 13080, Note_on_c, 1, 84, 127
1, 13109, Note_off_c, 1, 84, 0
1, 13110, Note_on_c, 1, 88, 127
1, 13139, Note_off_c, 1, 88, 0
1, 13140, Note_on_c, 1, 84, 127
1, 13169, Note_off_c, 1, 84, 0
1, 13170, Note_on_c, 1, 79, 127
1, 13199, Note_off_c, 1, 79, 0
1, 13200, Note_on_c, 1, 72, 127
1, 13229, Note_off_c, 1, 72, 0
1, 13230, Note_on_c, 1, 79, 127
1, 13259, Note_off_c, 1, 79, 0
1, 13260, Note_on_c, 1, 84, 127
1, 13289, Note_off_c, 1, 84, 0
1, 13290, Note_on_c, 1, 83, 127
1, 13319, Note_off_c, 1, 83, 0
1, 13320, Note_on_c, 1, 84, 127
1, 13349, Note_off_c, 1, 84, 0
1, 13350, Note_on_c, 1, 88, 127
1, 13379, Note_off_c, 1, 88, 0
1, 13380, Note_on_c, 1, 84, 127
1, 13409, Note_off_c, 1, 84, 0
1, 13410, Note_on_c, 1, 79, 127
1, 13439, Note_off_c, 1, 79, 0
1, 13440, Note_on_c, 1, 72, 127
1, 13469, Note_off_c, 1, 72, 0
1, 13470, Note_on_c, 1, 79, 127
1, 13499, Note_off_c, 1, 79, 0
1, 13500, Note_on_c, 1, 82, 127
1, 13529, Note_off_c, 1, 82, 0
1, 13530, Note_on_c, 1, 81, 127
1, 13559, Note_off_c, 1, 81, 0
1, 13560, Note_on_c, 1, 82, 127
1, 13589, Note_off_c, 1, 82, 0
1, 13590, Note_on_c, 1, 88, 127
1, 13619, Note_off_c, 1, 88, 0
1, 13620, Note_on_c, 1, 82, 127
1, 13649, Note_off_c, 1, 82, 0
1, 13650, Note_on_c, 1, 79, 127
1, 13679, Note_off_c, 1, 79, 0
1, 13680, Note_on_c, 1, 72, 127
1, 13709, Note_off_c, 1, 72, 0
1, 13710, Note_on_c, 1, 79, 127
1, 13739, Note_off_c, 1, 79, 0
1, 13740, Note_on_c, 1, 82, 127
1, 13769, Note_off_c, 1, 82, 0
1, 13770, Note_on_c, 1, 81, 127
1, 13799, Note_off_c, 1, 81, 0
1, 13800, Note_on_c, 1, 82, 127
1, 13829, Note_off_c, 1, 82, 0
1, 13830, Note_on_c, 1, 88, 127
1, 13859, Note_off_c, 1, 88, 0
1, 13860, Note_on_c, 1, 82, 127
1, 13889, Note_off_c, 1, 82, 0
1, 13890, Note_on_c, 1, 79, 127
1, 13919, Note_off_c, 1, 79, 0
1, 13920, Note_on_c, 1, 73, 127
1, 13949, Note_off_c, 1, 73, 0
1, 13950, Note_on_c, 1, 79, 127
1, 13979, Note_off_c, 1, 79, 0
1, 13980, Note_on_c, 1, 82, 127
1, 14009, Note_off_c, 1, 82, 0
1, 14010, Note_on_c, 1, 81, 127
1, 14039, Note_off_c, 1, 81, 0
1, 14040, Note_on_c, 1, 82, 127
1, 14069, Note_off_c, 1, 82, 0
1, 14070, Note_on_c, 1, 88, 127
1, 14099, Note_off_c, 1, 88, 0
1, 14100, Note_on_c, 1, 82, 127
1, 14129, Note_off_c, 1, 82, 0
1, 14130, Note_on_c, 1, 79, 127
1, 14159, Note_off_c, 1, 79, 0
1, 14160, Note_on_c, 1, 73, 127
1, 14189, Note_off_c, 1, 73, 0
1, 14190, Note_on_c, 1, 79, 127
1, 14219, Note_off_c, 1, 79, 0
1, 14220, Note_on_c, 1, 76, 127
1, 14249, Note_off_c, 1, 76, 0
1, 14250, Note_on_c, 1, 73, 127
1, 14279, Note_off_c, 1, 73, 0
1, 14280, Note_on_c, 1, 69, 127
1, 14309, Note_off_c, 1, 69, 0
1, 14310, Note_on_c, 1, 67, 127
1, 14339, Note_off_c, 1, 67, 0
1, 14340, Note_on_c, 1, 65, 127
1, 14369, Note_off_c, 1, 65, 0
1, 14370, Note_on_c, 1, 64, 127
1, 14399, Note_off_c, 1, 64, 0
1, 14400, Note_on_c, 1, 62, 127
1, 14429, Note_off_c, 1, 62, 0
1, 14430, Note_on_c, 1, 79, 127
1, 14459, Note_off_c, 1, 79, 0
1, 14460, Note_on_c, 1, 77, 127
1, 14489, Note_off_c, 1, 77, 0
1, 14490, Note_on_c, 1, 76, 127
1, 14519, Note_off_c, 1, 76, 0
1, 14520, Note_on_c, 1, 77, 127
1, 14549, Note_off_c, 1, 77, 0
1, 14550, Note_on_c, 1, 81, 127
1, 14579, Note_off_c, 1, 81, 0
1, 14580, Note_on_c, 1, 77, 127
1, 14609, Note_off_c, 1, 77, 0
1, 14610, Note_on_c, 1, 74, 127
1, 14639, Note_off_c, 1, 74, 0
1, 14640, Note_on_c, 1, 71, 127
1, 14669, Note_off_c, 1, 71, 0
1, 14670, Note_on_c, 1, 68, 127
1, 14699, Note_off_c, 1, 68, 0
1, 14700, Note_on_c, 1, 71, 127
1, 14729, Note_off_c, 1, 71, 0
1, 14730, Note_on_c, 1, 74, 127
1, 14759, Note_off_c, 1, 74, 0
1, 14760, Note_on_c, 1, 76, 127
1, 14789, Note_off_c, 1, 76, 0
1, 14790, Note_on_c, 1, 74, 127
1, 14819, Note_off_c, 1, 74, 0
1, 14820, Note_on_c, 1, 72, 127
1, 14849, Note_off_c, 1, 72, 0
1, 14850, Note_on_c, 1, 71, 127
1, 14879, Note_off_c, 1, 71, 0
1, 14880, Note_on_c, 1, 72, 127
1, 14909, Note_off_c, 1, 72, 0
1, 14910, Note_on_c, 1, 76, 127
1, 14939, Note_off_c, 1, 76, 0
1, 14940, Note_on_c, 1, 81, 127
1, 14969, Note_off_c, 1, 81, 0
1, 14970, Note_on_c, 1, 80, 127
1, 14999, Note_off_c, 1, 80, 0
1, 15000, Note_on_c, 1, 81, 127
1, 15029, Note_off_c, 1, 81, 0
1, 15030, Note_on_c, 1, 84, 127
1, 15059, Note_off_c, 1, 84, 0
1, 15060, Note_on_c, 1, 81, 127
1, 15089, Note_off_c, 1, 81, 0
1, 15090, Note_on_c, 1, 78, 127
1, 15119, Note_off_c, 1, 78, 0
1, 15120, Note_on_c, 1, 75, 127
1, 15149, Note_off_c, 1, 75, 0
1, 15150, Note_on_c, 1, 71, 127
1, 15179, Note_off_c, 1, 71, 0
1, 15180, Note_on_c, 1, 75, 127
1, 15209, Note_off_c, 1, 75, 0
1, 15210, Note_on_c, 1, 78, 127
1, 15239, Note_off_c, 1, 78, 0
1, 15240, Note_on_c, 1, 83, 127
1, 15269, Note_off_c, 1, 83, 0
1, 15270, Note_on_c, 1, 81, 127
1, 15299, Note_off_c, 1, 81, 0
1, 15300, Note_on_c, 1, 79, 127
1, 15329, Note_off_c, 1, 79, 0
1, 15330, Note_on_c, 1, 78, 127
1, 15359, Note_off_c, 1, 78, 0
1, 15360, Note_on_c, 1, 79, 127
1, 15389, Note_off_c, 1, 79, 0
1, 15390, Note_on_c, 1, 78, 127
1, 15419, Note_off_c, 1, 78, 0
1, 15420, Note_on_c, 1, 76, 127
1, 15449, Note_off_c, 1, 76, 0
1, 15450, Note_on_c, 1, 79, 127
1, 15479, Note_off_c, 1, 79, 0
1, 15480, Note_on_c, 1, 69, 127
1, 15509, Note_off_c, 1, 69, 0
1, 15510, Note_on_c, 1, 76, 127
1, 15539, Note_off_c, 1, 76, 0
1, 15540, Note_on_c, 1, 79, 127
1, 15569, Note_off_c, 1, 79, 0
1, 15570, Note_on_c, 1, 84, 127
1, 15599, Note_off_c, 1, 84, 0
1, 15600, Note_on_c, 1, 78, 127
1, 15629, Note_off_c, 1, 78, 0
1, 15630, Note_on_c, 1, 76, 127
1, 15659, Note_off_c, 1, 76, 0
1, 15660, Note_on_c, 1, 74, 127
1, 15689, Note_off_c, 1, 74, 0
1, 15690, Note_on_c, 1, 78, 127
1, 15719, Note_off_c, 1, 78, 0
1, 15720, Note_on_c, 1, 67, 127
1, 15749, Note_off_c, 1, 67, 0
1, 15750, Note_on_c, 1, 74, 127
1, 15779, Note_off_c, 1, 74, 0
1, 15780, Note_on_c, 1, 78, 127
1, 15809, Note_off_c, 1, 78, 0
1, 15810, Note_on_c, 1, 83, 127
1, 15839, Note_off_c, 1, 83, 0
1, 15840, Note_on_c, 1, 76, 127
1, 15869, Note_off_c, 1, 76, 0
1, 15870, Note_on_c, 1, 74, 127
1, 15899, Note_off_c, 1, 74, 0
1, 15900, Note_on_c, 1, 72, 127
1, 15929, Note_off_c, 1, 72, 0
1, 15930, Note_on_c, 1, 76, 127
1, 15959, Note_off_c, 1, 76, 0
1, 15960, Note_on_c, 1, 66, 127
1, 15989, Note_off_c, 1, 66, 0
1, 15990, Note_on_c, 1, 76, 127
1, 16019, Note_off_c, 1, 76, 0
1, 16020, Note_on_c, 1, 78, 127
1, 16049, Note_off_c, 1, 78, 0
1, 16050, Note_on_c, 1, 81, 127
1, 16079, Note_off_c, 1, 81, 0
1, 16080, Note_on_c, 1, 75, 127
1, 16109, Note_off_c, 1, 75, 0
1, 16110, Note_on_c, 1, 71, 127
1, 16139, Note_off_c, 1, 71, 0
1, 16140, Note_on_c, 1, 72, 127
1, 16169, Note_off_c, 1, 72, 0
1, 16170, Note_on_c, 1, 69, 127
1, 16199, Note_off_c, 1, 69, 0
1, 16200, Note_on_c, 1, 63, 127
1, 16229, Note_off_c, 1, 63, 0
1, 16230, Note_on_c, 1, 72, 127
1, 16259, Note_off_c, 1, 72, 0
1, 16260, Note_on_c, 1, 71, 127
1, 16289, Note_off_c, 1, 71, 0
1, 16290, Note_on_c, 1, 69, 127
1, 16319, Note_off_c, 1, 69, 0
1, 16320, Note_on_c, 1, 67, 127
1, 16349, Note_off_c, 1, 67, 0
1, 16350, Note_on_c, 1, 76, 127
1, 16379, Note_off_c, 1, 76, 0
1, 16380, Note_on_c, 1, 77, 127
1, 16409, Note_off_c, 1, 77, 0
1, 16410, Note_on_c, 1, 74, 127
1, 16439, Note_off_c, 1, 74, 0
1, 16440, Note_on_c, 1, 68, 127
1, 16469, Note_off_c, 1, 68, 0
1, 16470, Note_on_c, 1, 77, 127
1, 16499, Note_off_c, 1, 77, 0
1, 16500, Note_on_c, 1, 76, 127
1, 16529, Note_off_c, 1, 76, 0
1, 16530, Note_on_c, 1, 74, 127
1, 16559, Note_off_c, 1, 74, 0
1, 16560, Note_on_c, 1, 69, 127
1, 16589, Note_off_c, 1, 69, 0
1, 16590, Note_on_c, 1, 78, 127
1, 16619, Note_off_c, 1, 78, 0
1, 16620, Note_on_c, 1, 79, 127
1, 16649, Note_off_c, 1, 79, 0
1, 16650, Note_on_c, 1, 76, 127
1, 16679, Note_off_c, 1, 76, 0
1, 16680, Note_on_c, 1, 70, 127
1, 16709, Note_off_c, 1, 70, 0
1, 16710, Note_on_c, 1, 79, 127
1, 16739, Note_off_c, 1, 79, 0
1, 16740, Note_on_c, 1, 78, 127
1, 16769, Note_off_c, 1, 78, 0
1, 16770, Note_on_c, 1, 76, 127
1, 16799, Note_off_c, 1, 76, 0
1, 16800, Note_on_c, 1, 75, 127
1, 16829, Note_off_c, 1, 75, 0
1, 16830, Note_on_c, 1, 83, 127
1, 16859, Note_off_c, 1, 83, 0
1, 16860, Note_on_c, 1, 80, 127
1, 16889, Note_off_c, 1, 80, 0
1, 16890, Note_on_c, 1, 74, 127
1, 16919, Note_off_c, 1, 74, 0
1, 16920, Note_on_c, 1, 73, 127
1, 16949, Note_off_c, 1, 73, 0
1, 16950, Note_on_c, 1, 81, 127
1, 16979, Note_off_c, 1, 81, 0
1, 16980, Note_on_c, 1, 78, 127
1, 17009, Note_off_c, 1, 78, 0
1, 17010, Note_on_c, 1, 72, 127
1, 17039, Note_off_c, 1, 72, 0
1, 17040, Note_on_c, 1, 71, 127
1, 17069, Note_off_c, 1, 71, 0
1, 17070, Note_on_c, 1, 79, 127
1, 17099, Note_off_c, 1, 79, 0
1, 17100, Note_on_c, 1, 76, 127
1, 17129, Note_off_c, 1, 76, 0
1, 17130, Note_on_c, 1, 70, 127
1, 17159, Note_off_c, 1, 70, 0
1, 17160, Note_on_c, 1, 69, 127
1, 17189, Note_off_c, 1, 69, 0
1, 17190, Note_on_c, 1, 78, 127
1, 17219, Note_off_c, 1, 78, 0
1, 17220, Note_on_c, 1, 75, 127
1, 17249, Note_off_c, 1, 75, 0
1, 17250, Note_on_c, 1, 69, 127
1, 17279, Note_off_c, 1, 69, 0
1, 17280, Note_on_c, 1, 67, 127
1, 17309, Note_off_c, 1, 67, 0
1, 17310, Note_on_c, 1, 76, 127
1, 17339, Note_off_c, 1, 76, 0
1, 17340, Note_on_c, 1, 72, 127
1, 17369, Note_off_c, 1, 72, 0
1, 17370, Note_on_c, 1, 69, 127
1, 17399, Note_off_c, 1, 69, 0
1, 17400, Note_on_c, 1, 66, 127
1, 17429, Note_off_c, 1, 66, 0
1, 17430, Note_on_c, 1, 72, 127
1, 17459, Note_off_c, 1, 72, 0
1, 17460, Note_on_c, 1, 69, 127
1, 17489, Note_off_c, 1, 69, 0
1, 17490, Note_on_c, 1, 66, 127
1, 17519, Note_off_c, 1, 66, 0
1, 17520, Note_on_c, 1, 63, 127
1, 17549, Note_off_c, 1, 63, 0
1, 17550, Note_on_c, 1, 66, 127
1, 17579, Note_off_c, 1, 66, 0
1, 17580, Note_on_c, 1, 69, 127
1, 17609, Note_off_c, 1, 69, 0
1, 17610, Note_on_c, 1, 72, 127
1, 17639, Note_off_c, 1, 72, 0
1, 17640, Note_on_c, 1, 71, 127
1, 17669, Note_off_c, 1, 71, 0
1, 17670, Note_on_c, 1, 81, 127
1, 17699, Note_off_c, 1, 81, 0
1, 17700, Note_on_c, 1, 79, 127
1, 17729, Note_off_c, 1, 79, 0
1, 17730, Note_on_c, 1, 78, 127
1, 17759, Note_off_c, 1, 78, 0
1, 17760, Note_on_c, 1, 79, 127
1, 17789, Note_off_c, 1, 79, 0
1, 17790, Note_on_c, 1, 78, 127
1, 17804, Note_off_c, 1, 78, 0
1, 17805, Note_on_c, 1, 76, 127
1, 17819, Note_off_c, 1, 76, 0
1, 17820, Note_on_c, 1, 83, 127
1, 17849, Note_off_c, 1, 83, 0
1, 17850, Note_on_c, 1, 84, 127
1, 17879, Note_off_c, 1, 84, 0
1, 17880, Note_on_c, 1, 78, 127
1, 17969, Note_off_c, 1, 78, 0
1, 17970, Note_on_c, 1, 76, 127
1, 17999, Note_off_c, 1, 76, 0
1, 18000, Note_on_c, 1, 76, 127
1, 18029, Note_off_c, 1, 76, 0
1, 18030, Note_on_c, 1, 71, 127
1, 18059, Note_off_c, 1, 71, 0
1, 18060, Note_on_c, 1, 72, 127
1, 18089, Note_off_c, 1, 72, 0
1, 18090, Note_on_c, 1, 69, 127
1, 18119, Note_off_c, 1, 69, 0
1, 18120, Note_on_c, 1, 71, 127
1, 18149, Note_off_c, 1, 71, 0
1, 18150, Note_on_c, 1, 67, 127
1, 18179, Note_off_c, 1, 67, 0
1, 18180, Note_on_c, 1, 69, 127
1, 18209, Note_off_c, 1, 69, 0
1, 18210, Note_on_c, 1, 71, 127
1, 18239, Note_off_c, 1, 71, 0
1, 18240, Note_on_c, 1, 64, 127
1, 18269, Note_off_c, 1, 64, 0
1, 18270, Note_on_c, 1, 71, 127
1, 18299, Note_off_c, 1, 71, 0
1, 18300, Note_on_c, 1, 76, 127
1, 18329, Note_off_c, 1, 76, 0
1, 18330, Note_on_c, 1, 75, 127
1, 18359, Note_off_c, 1, 75, 0
1, 18360, Note_on_c, 1, 76, 127
1, 18389, Note_off_c, 1, 76, 0
1, 18390, Note_on_c, 1, 79, 127
1, 18419, Note_off_c, 1, 79, 0
1, 18420, Note_on_c, 1, 76, 127
1, 18449, Note_off_c, 1, 76, 0
1, 18450, Note_on_c, 1, 71, 127
1, 18479, Note_off_c, 1, 71, 0
1, 18480, Note_on_c, 1, 66, 127
1, 18509, Note_off_c, 1, 66, 0
1, 18510, Note_on_c, 1, 71, 127
1, 18539, Note_off_c, 1, 71, 0
1, 18540, Note_on_c, 1, 76, 127
1, 18569, Note_off_c, 1, 76, 0
1, 18570, Note_on_c, 1, 75, 127
1, 18599, Note_off_c, 1, 75, 0
1, 18600, Note_on_c, 1, 76, 127
1, 18629, Note_off_c, 1, 76, 0
1, 18630, Note_on_c, 1, 79, 127
1, 18659, Note_off_c, 1, 79, 0
1, 18660, Note_on_c, 1, 76, 127
1, 18689, Note_off_c, 1, 76, 0
1, 18690, Note_on_c, 1, 71, 127
1, 18719, Note_off_c, 1, 71, 0
1, 18720, Note_on_c, 1, 64, 127
1, 18749, Note_off_c, 1, 64, 0
1, 18750, Note_on_c, 1, 67, 127
1, 18779, Note_off_c, 1, 67, 0
1, 18780, Note_on_c, 1, 71, 127
1, 18809, Note_off_c, 1, 71, 0
1, 18810, Note_on_c, 1, 72, 127
1, 18839, Note_off_c, 1, 72, 0
1, 18840, Note_on_c, 1, 63, 127
1, 18869, Note_off_c, 1, 63, 0
1, 18870, Note_on_c, 1, 72, 127
1, 18899, Note_off_c, 1, 72, 0
1, 18900, Note_on_c, 1, 71, 127
1, 18929, Note_off_c, 1, 71, 0
1, 18930, Note_on_c, 1, 69, 127
1, 18959, Note_off_c, 1, 69, 0
1, 18960, Note_on_c, 1, 67, 127
1, 18989, Note_off_c, 1, 67, 0
1, 18990, Note_on_c, 1, 71, 127
1, 19019, Note_off_c, 1, 71, 0
1, 19020, Note_on_c, 1, 75, 127
1, 19049, Note_off_c, 1, 75, 0
1, 19050, Note_on_c, 1, 76, 127
1, 19079, Note_off_c, 1, 76, 0
1, 19080, Note_on_c, 1, 71, 127
1, 19109, Note_off_c, 1, 71, 0
1, 19110, Note_on_c, 1, 69, 127
1, 19139, Note_off_c, 1, 69, 0
1, 19140, Note_on_c, 1, 67, 127
1, 19169, Note_off_c, 1, 67, 0
1, 19170, Note_on_c, 1, 66, 127
1, 19199, Note_off_c, 1, 66, 0
1, 19200, Note_on_c, 1, 64, 127
1, 19229, Note_off_c, 1, 64, 0
1, 19230, Note_on_c, 1, 67, 127
1, 19259, Note_off_c, 1, 67, 0
1, 19260, Note_on_c, 1, 71, 127
1, 19289, Note_off_c, 1, 71, 0
1, 19290, Note_on_c, 1, 72, 127
1, 19319, Note_off_c, 1, 72, 0
1, 19320, Note_on_c, 1, 63, 127
1, 19349, Note_off_c, 1, 63, 0
1, 19350, Note_on_c, 1, 72, 127
1, 19379, Note_off_c, 1, 72, 0
1, 19380, Note_on_c, 1, 71, 127
1, 19409, Note_off_c, 1, 71, 0
1, 19410, Note_on_c, 1, 69, 127
1, 19439, Note_off_c, 1, 69, 0
1, 19440, Note_on_c, 1, 67, 127
1, 19469, Note_off_c, 1, 67, 0
1, 19470, Note_on_c, 1, 71, 127
1, 19499, Note_off_c, 1, 71, 0
1, 19500, Note_on_c, 1, 75, 127
1, 19529, Note_off_c, 1, 75, 0
1, 19530, Note_on_c, 1, 76, 127
1, 19559, Note_off_c, 1, 76, 0
1, 19560, Note_on_c, 1, 71, 127
1, 19589, Note_off_c, 1, 71, 0
1, 19590, Note_on_c, 1, 81, 127
1, 19619, Note_off_c, 1, 81, 0
1, 19620, Note_on_c, 1, 79, 127
1, 19649, Note_off_c, 1, 79, 0
1, 19650, Note_on_c, 1, 78, 127
1, 19679, Note_off_c, 1, 78, 0
1, 19680, Note_on_c, 1, 76, 127
1, 19709, Note_off_c, 1, 76, 0
1, 19710, Note_on_c, 1, 79, 127
1, 19739, Note_off_c, 1, 79, 0
1, 19740, Note_on_c, 1, 75, 127
1, 19769, Note_off_c, 1, 75, 0
1, 19770, Note_on_c, 1, 76, 127
1, 19799, Note_off_c, 1, 76, 0
1, 19800, Note_on_c, 1, 83, 127
1, 19829, Note_off_c, 1, 83, 0
1, 19830, Note_on_c, 1, 80, 127
1, 19859, Note_off_c, 1, 80, 0
1, 19860, Note_on_c, 1, 74, 127
1, 19889, Note_off_c, 1, 74, 0
1, 19890, Note_on_c, 1, 76, 127
1, 19919, Note_off_c, 1, 76, 0
1, 19920, Note_on_c, 1, 72, 127
1, 19949, Note_off_c, 1, 72, 0
1, 19950, Note_on_c, 1, 81, 127
1, 19979, Note_off_c, 1, 81, 0
1, 19980, Note_on_c, 1, 75, 127
1, 20009, Note_off_c, 1, 75, 0
1, 20010, Note_on_c, 1, 76, 127
1, 20039, Note_off_c, 1, 76, 0
1, 20040, Note_on_c, 1, 68, 127
1, 20069, Note_off_c, 1, 68, 0
1, 20070, Note_on_c, 1, 77, 127
1, 20099, Note_off_c, 1, 77, 0
1, 20100, Note_on_c, 1, 76, 127
1, 20129, Note_off_c, 1, 76, 0
1, 20130, Note_on_c, 1, 74, 127
1, 20159, Note_off_c, 1, 74, 0
1, 20160, Note_on_c, 1, 69, 127
1, 20189, Note_off_c, 1, 69, 0
1, 20190, Note_on_c, 1, 72, 127
1, 20219, Note_off_c, 1, 72, 0
1, 20220, Note_on_c, 1, 68, 127
1, 20249, Note_off_c, 1, 68, 0
1, 20250, Note_on_c, 1, 69, 127
1, 20279, Note_off_c, 1, 69, 0
1, 20280, Note_on_c, 1, 76, 127
1, 20309, Note_off_c, 1, 76, 0
1, 20310, Note_on_c, 1, 73, 127
1, 20339, Note_off_c, 1, 73, 0
1, 20340, Note_on_c, 1, 67, 127
1, 20369, Note_off_c, 1, 67, 0
1, 20370, Note_on_c, 1, 69, 127
1, 20399, Note_off_c, 1, 69, 0
1, 20400, Note_on_c, 1, 65, 127
1, 20429, Note_off_c, 1, 65, 0
1, 20430, Note_on_c, 1, 74, 127
1, 20459, Note_off_c, 1, 74, 0
1, 20460, Note_on_c, 1, 68, 127
1, 20489, Note_off_c, 1, 68, 0
1, 20490, Note_on_c, 1, 69, 127
1, 20519, Note_off_c, 1, 69, 0
1, 20520, Note_on_c, 1, 73, 127
1, 20549, Note_off_c, 1, 73, 0
1, 20550, Note_on_c, 1, 82, 127
1, 20579, Note_off_c, 1, 82, 0
1, 20580, Note_on_c, 1, 81, 127
1, 20609, Note_off_c, 1, 81, 0
1, 20610, Note_on_c, 1, 79, 127
1, 20639, Note_off_c, 1, 79, 0
1, 20640, Note_on_c, 1, 77, 127
1, 20669, Note_off_c, 1, 77, 0
1, 20670, Note_on_c, 1, 69, 127
1, 20699, Note_off_c, 1, 69, 0
1, 20700, Note_on_c, 1, 74, 127
1, 20729, Note_off_c, 1, 74, 0
1, 20730, Note_on_c, 1, 73, 127
1, 20759, Note_off_c, 1, 73, 0
1, 20760, Note_on_c, 1, 74, 127
1, 20789, Note_off_c, 1, 74, 0
1, 20790, Note_on_c, 1, 77, 127
1, 20819, Note_off_c, 1, 77, 0
1, 20820, Note_on_c, 1, 74, 127
1, 20849, Note_off_c, 1, 74, 0
1, 20850, Note_on_c, 1, 69, 127
1, 20879, Note_off_c, 1, 69, 0
1, 20880, Note_on_c, 1, 62, 127
1, 20909, Note_off_c, 1, 62, 0
1, 20910, Note_on_c, 1, 69, 127
1, 20939, Note_off_c, 1, 69, 0
1, 20940, Note_on_c, 1, 74, 127
1, 20969, Note_off_c, 1, 74, 0
1, 20970, Note_on_c, 1, 73, 127
1, 20999, Note_off_c, 1, 73, 0
1, 21000, Note_on_c, 1, 74, 127
1, 21029, Note_off_c, 1, 74, 0
1, 21030, Note_on_c, 1, 77, 127
1, 21059, Note_off_c, 1, 77, 0
1, 21060, Note_on_c, 1, 74, 127
1, 21089, Note_off_c, 1, 74, 0
1, 21090, Note_on_c, 1, 69, 127
1, 21119, Note_off_c, 1, 69, 0
1, 21120, Note_on_c, 1, 62, 127
1, 21149, Note_off_c, 1, 62, 0
1, 21150, Note_on_c, 1, 69, 127
1, 21179, Note_off_c, 1, 69, 0
1, 21180, Note_on_c, 1, 72, 127
1, 21209, Note_off_c, 1, 72, 0
1, 21210, Note_on_c, 1, 71, 127
1, 21239, Note_off_c, 1, 71, 0
1, 21240, Note_on_c, 1, 72, 127
1, 21269, Note_off_c, 1, 72, 0
1, 21270, Note_on_c, 1, 78, 127
1, 21299, Note_off_c, 1, 78, 0
1, 21300, Note_on_c, 1, 72, 127
1, 21329, Note_off_c, 1, 72, 0
1, 21330, Note_on_c, 1, 69, 127
1, 21359, Note_off_c, 1, 69, 0
1, 21360, Note_on_c, 1, 62, 127
1, 21389, Note_off_c, 1, 62, 0
1, 21390, Note_on_c, 1, 69, 127
1, 21419, Note_off_c, 1, 69, 0
1, 21420, Note_on_c, 1, 72, 127
1, 21449, Note_off_c, 1, 72, 0
1, 21450, Note_on_c, 1, 71, 127
1, 21479, Note_off_c, 1, 71, 0
1, 21480, Note_on_c, 1, 72, 127
1, 21509, Note_off_c, 1, 72, 0
1, 21510, Note_on_c, 1, 78, 127
1, 21539, Note_off_c, 1, 78, 0
1, 21540, Note_on_c, 1, 72, 127
1, 21569, Note_off_c, 1, 72, 0
1, 21570, Note_on_c, 1, 69, 127
1, 21599, Note_off_c, 1, 69, 0
1, 21600, Note_on_c, 1, 62, 127
1, 21629, Note_off_c, 1, 62, 0
1, 21630, Note_on_c, 1, 72, 127
1, 21659, Note_off_c, 1, 72, 0
1, 21660, Note_on_c, 1, 78, 127
1, 21689, Note_off_c, 1, 78, 0
1, 21690, Note_on_c, 1, 76, 127
1, 21719, Note_off_c, 1, 76, 0
1, 21720, Note_on_c, 1, 74, 127
1, 21749, Note_off_c, 1, 74, 0
1, 21750, Note_on_c, 1, 72, 127
1, 21779, Note_off_c, 1, 72, 0
1, 21780, Note_on_c, 1, 71, 127
1, 21809, Note_off_c, 1, 71, 0
1, 21810, Note_on_c, 1, 69, 127
1, 21839, Note_off_c, 1, 69, 0
1, 21840, Note_on_c, 1, 64, 127
1, 21869, Note_off_c, 1, 64, 0
1, 21870, Note_on_c, 1, 74, 127
1, 21899, Note_off_c, 1, 74, 0
1, 21900, Note_on_c, 1, 72, 127
1, 21929, Note_off_c, 1, 72, 0
1, 21930, Note_on_c, 1, 71, 127
1, 21959, Note_off_c, 1, 71, 0
1, 21960, Note_on_c, 1, 66, 127
1, 21989, Note_off_c, 1, 66, 0
1, 21990, Note_on_c, 1, 76, 127
1, 22019, Note_off_c, 1, 76, 0
1, 22020, Note_on_c, 1, 74, 127
1, 22049, Note_off_c, 1, 74, 0
1, 22050, Note_on_c, 1, 72, 127
1, 22079, Note_off_c, 1, 72, 0
1, 22080, Note_on_c, 1, 71, 127
1, 22109, Note_off_c, 1, 71, 0
1, 22110, Note_on_c, 1, 74, 127
1, 22139, Note_off_c, 1, 74, 0
1, 22140, Note_on_c, 1, 79, 127
1, 22169, Note_off_c, 1, 79, 0
1, 22170, Note_on_c, 1, 78, 127
1, 22199, Note_off_c, 1, 78, 0
1, 22200, Note_on_c, 1, 79, 127
1, 22229, Note_off_c, 1, 79, 0
1, 22230, Note_on_c, 1, 83, 127
1, 22259, Note_off_c, 1, 83, 0
1, 22260, Note_on_c, 1, 79, 127
1, 22289, Note_off_c, 1, 79, 0
1, 22290, Note_on_c, 1, 74, 127
1, 22319, Note_off_c, 1, 74, 0
1, 22320, Note_on_c, 1, 67, 127
1, 22349, Note_off_c, 1, 67, 0
1, 22350, Note_on_c, 1, 74, 127
1, 22379, Note_off_c, 1, 74, 0
1, 22380, Note_on_c, 1, 79, 127
1, 22409, Note_off_c, 1, 79, 0
1, 22410, Note_on_c, 1, 78, 127
1, 22439, Note_off_c, 1, 78, 0
1, 22440, Note_on_c, 1, 79, 127
1, 22469, Note_off_c, 1, 79, 0
1, 22470, Note_on_c, 1, 83, 127
1, 22499, Note_off_c, 1, 83, 0
1, 22500, Note_on_c, 1, 79, 127
1, 22529, Note_off_c, 1, 79, 0
1, 22530, Note_on_c, 1, 74, 127
1, 22559, Note_off_c, 1, 74, 0
1, 22560, Note_on_c, 1, 67, 127
1, 22589, Note_off_c, 1, 67, 0
1, 22590, Note_on_c, 1, 74, 127
1, 22619, Note_off_c, 1, 74, 0
1, 22620, Note_on_c, 1, 77, 127
1, 22649, Note_off_c, 1, 77, 0
1, 22650, Note_on_c, 1, 76, 127
1, 22679, Note_off_c, 1, 76, 0
1, 22680, Note_on_c, 1, 77, 127
1, 22709, Note_off_c, 1, 77, 0
1, 22710, Note_on_c, 1, 83, 127
1, 22739, Note_off_c, 1, 83, 0
1, 22740, Note_on_c, 1, 77, 127
1, 22769, Note_off_c, 1, 77, 0
1, 22770, Note_on_c, 1, 74, 127
1, 22799, Note_off_c, 1, 74, 0
1, 22800, Note_on_c, 1, 67, 127
1, 22829, Note_off_c, 1, 67, 0
1, 22830, Note_on_c, 1, 74, 127
1, 22859, Note_off_c, 1, 74, 0
1, 22860, Note_on_c, 1, 77, 127
1, 22889, Note_off_c, 1, 77, 0
1, 22890, Note_on_c, 1, 76, 127
1, 22919, Note_off_c, 1, 76, 0
1, 22920, Note_on_c, 1, 77, 127
1, 22949, Note_off_c, 1, 77, 0
1, 22950, Note_on_c, 1, 83, 127
1, 22979, Note_off_c, 1, 83, 0
1, 22980, Note_on_c, 1, 77, 127
1, 23009, Note_off_c, 1, 77, 0
1, 23010, Note_on_c, 1, 74, 127
1, 23039, Note_off_c, 1, 74, 0
1, 23040, Note_on_c, 1, 67, 127
1, 23069, Note_off_c, 1, 67, 0
1, 23070, Note_on_c, 1, 77, 127
1, 23099, Note_off_c, 1, 77, 0
1, 23100, Note_on_c, 1, 83, 127
1, 23129, Note_off_c, 1, 83, 0
1, 23130, Note_on_c, 1, 81, 127
1, 23159, Note_off_c, 1, 81, 0
1, 23160, Note_on_c, 1, 79, 127
1, 23189, Note_off_c, 1, 79, 0
1, 23190, Note_on_c, 1, 77, 127
1, 23219, Note_off_c, 1, 77, 0
1, 23220, Note_on_c, 1, 76, 127
1, 23249, Note_off_c, 1, 76, 0
1, 23250, Note_on_c, 1, 74, 127
1, 23279, Note_off_c, 1, 74, 0
1, 23280, Note_on_c, 1, 69, 127
1, 23309, Note_off_c, 1, 69, 0
1, 23310, Note_on_c, 1, 79, 127
1, 23339, Note_off_c, 1, 79, 0
1, 23340, Note_on_c, 1, 77, 127
1, 23369, Note_off_c, 1, 77, 0
1, 23370, Note_on_c, 1, 76, 127
1, 23399, Note_off_c, 1, 76, 0
1, 23400, Note_on_c, 1, 71, 127
1, 23429, Note_off_c, 1, 71, 0
1, 23430, Note_on_c, 1, 81, 127
1, 23459, Note_off_c, 1, 81, 0
1, 23460, Note_on_c, 1, 79, 127
1, 23489, Note_off_c, 1, 79, 0
1, 23490, Note_on_c, 1, 77, 127
1, 23519, Note_off_c, 1, 77, 0
1, 23520, Note_on_c, 1, 76, 127
1, 23549, Note_off_c, 1, 76, 0
1, 23550, Note_on_c, 1, 79, 127
1, 23579, Note_off_c, 1, 79, 0
1, 23580, Note_on_c, 1, 76, 127
1, 23609, Note_off_c, 1, 76, 0
1, 23610, Note_on_c, 1, 72, 127
1, 23639, Note_off_c, 1, 72, 0
1, 23640, Note_on_c, 1, 70, 127
1, 23669, Note_off_c, 1, 70, 0
1, 23670, Note_on_c, 1, 69, 127
1, 23699, Note_off_c, 1, 69, 0
1, 23700, Note_on_c, 1, 70, 127
1, 23729, Note_off_c, 1, 70, 0
1, 23730, Note_on_c, 1, 67, 127
1, 23759, Note_off_c, 1, 67, 0
1, 23760, Note_on_c, 1, 69, 127
1, 23789, Note_off_c, 1, 69, 0
1, 23790, Note_on_c, 1, 71, 127
1, 23819, Note_off_c, 1, 71, 0
1, 23820, Note_on_c, 1, 73, 127
1, 23849, Note_off_c, 1, 73, 0
1, 23850, Note_on_c, 1, 74, 127
1, 23879, Note_off_c, 1, 74, 0
1, 23880, Note_on_c, 1, 76, 127
1, 23909, Note_off_c, 1, 76, 0
1, 23910, Note_on_c, 1, 77, 127
1, 23939, Note_off_c, 1, 77, 0
1, 23940, Note_on_c, 1, 79, 127
1, 23969, Note_off_c, 1, 79, 0
1, 23970, Note_on_c, 1, 76, 127
1, 23999, Note_off_c, 1, 76, 0
1, 24000, Note_on_c, 1, 77, 127
1, 24029, Note_off_c, 1, 77, 0
1, 24030, Note_on_c, 1, 81, 127
1, 24059, Note_off_c, 1, 81, 0
1, 24060, Note_on_c, 1, 77, 127
1, 24089, Note_off_c, 1, 77, 0
1, 24090, Note_on_c, 1, 74, 127
1, 24119, Note_off_c, 1, 74, 0
1, 24120, Note_on_c, 1, 72, 127
1, 24149, Note_off_c, 1, 72, 0
1, 24150, Note_on_c, 1, 71, 127
1, 24179, Note_off_c, 1, 71, 0
1, 24180, Note_on_c, 1, 72, 127
1, 24209, Note_off_c, 1, 72, 0
1, 24210, Note_on_c, 1, 69, 127
1, 24239, Note_off_c, 1, 69, 0
1, 24240, Note_on_c, 1, 71, 127
1, 24269, Note_off_c, 1, 71, 0
1, 24270, Note_on_c, 1, 73, 127
1, 24299, Note_off_c, 1, 73, 0
1, 24300, Note_on_c, 1, 75, 127
1, 24329, Note_off_c, 1, 75, 0
1, 24330, Note_on_c, 1, 76, 127
1, 24359, Note_off_c, 1, 76, 0
1, 24360, Note_on_c, 1, 78, 127
1, 24389, Note_off_c, 1, 78, 0
1, 24390, Note_on_c, 1, 80, 127
1, 24419, Note_off_c, 1, 80, 0
1, 24420, Note_on_c, 1, 81, 127
1, 24449, Note_off_c, 1, 81, 0
1, 24450, Note_on_c, 1, 78, 127
1, 24479, Note_off_c, 1, 78, 0
1, 24480, Note_on_c, 1, 80, 127
1, 24509, Note_off_c, 1, 80, 0
1, 24510, Note_on_c, 1, 83, 127
1, 24539, Note_off_c, 1, 83, 0
1, 24540, Note_on_c, 1, 80, 127
1, 24569, Note_off_c, 1, 80, 0
1, 24570, Note_on_c, 1, 76, 127
1, 24599, Note_off_c, 1, 76, 0
1, 24600, Note_on_c, 1, 74, 127
1, 24629, Note_off_c, 1, 74, 0
1, 24630, Note_on_c, 1, 72, 127
1, 24659, Note_off_c, 1, 72, 0
1, 24660, Note_on_c, 1, 74, 127
1, 24689, Note_off_c, 1, 74, 0
1, 24690, Note_on_c, 1, 71, 127
1, 24719, Note_off_c, 1, 71, 0
1, 24720, Note_on_c, 1, 72, 127
1, 24749, Note_off_c, 1, 72, 0
1, 24750, Note_on_c, 1, 76, 127
1, 24779, Note_off_c, 1, 76, 0
1, 24780, Note_on_c, 1, 80, 127
1, 24809, Note_off_c, 1, 80, 0
1, 24810, Note_on_c, 1, 81, 127
1, 24839, Note_off_c, 1, 81, 0
1, 24840, Note_on_c, 1, 68, 127
1, 24869, Note_off_c, 1, 68, 0
1, 24870, Note_on_c, 1, 77, 127
1, 24899, Note_off_c, 1, 77, 0
1, 24900, Note_on_c, 1, 76, 127
1, 24929, Note_off_c, 1, 76, 0
1, 24930, Note_on_c, 1, 74, 127
1, 24959, Note_off_c, 1, 74, 0
1, 24960, Note_on_c, 1, 69, 127
1, 24989, Note_off_c, 1, 69, 0
1, 24990, Note_on_c, 1, 72, 127
1, 25019, Note_off_c, 1, 72, 0
1, 25020, Note_on_c, 1, 76, 127
1, 25049, Note_off_c, 1, 76, 0
1, 25050, Note_on_c, 1, 77, 127
1, 25079, Note_off_c, 1, 77, 0
1, 25080, Note_on_c, 1, 64, 127
1, 25109, Note_off_c, 1, 64, 0
1, 25110, Note_on_c, 1, 74, 127
1, 25139, Note_off_c, 1, 74, 0
1, 25140, Note_on_c, 1, 72, 127
1, 25169, Note_off_c, 1, 72, 0
1, 25170, Note_on_c, 1, 70, 127
1, 25199, Note_off_c, 1, 70, 0
1, 25200, Note_on_c, 1, 65, 127
1, 25229, Note_off_c, 1, 65, 0
1, 25230, Note_on_c, 1, 69, 127
1, 25259, Note_off_c, 1, 69, 0
1, 25260, Note_on_c, 1, 73, 127
1, 25289, Note_off_c, 1, 73, 0
1, 25290, Note_on_c, 1, 74, 127
1, 25319, Note_off_c, 1, 74, 0
1, 25320, Note_on_c, 1, 69, 127
1, 25349, Note_off_c, 1, 69, 0
1, 25350, Note_on_c, 1, 79, 127
1, 25379, Note_off_c, 1, 79, 0
1, 25380, Note_on_c, 1, 77, 127
1, 25409, Note_off_c, 1, 77, 0
1, 25410, Note_on_c, 1, 76, 127
1, 25439, Note_off_c, 1, 76, 0
1, 25440, Note_on_c, 1, 74, 127
1, 25469, Note_off_c, 1, 74, 0
1, 25470, Note_on_c, 1, 77, 127
1, 25499, Note_off_c, 1, 77, 0
1, 25500, Note_on_c, 1, 73, 127
1, 25529, Note_off_c, 1, 73, 0
1, 25530, Note_on_c, 1, 74, 127
1, 25559, Note_off_c, 1, 74, 0
1, 25560, Note_on_c, 1, 81, 127
1, 25589, Note_off_c, 1, 81, 0
1, 25590, Note_on_c, 1, 78, 127
1, 25619, Note_off_c, 1, 78, 0
1, 25620, Note_on_c, 1, 72, 127
1, 25649, Note_off_c, 1, 72, 0
1, 25650, Note_on_c, 1, 74, 127
1, 25679, Note_off_c, 1, 74, 0
1, 25680, Note_on_c, 1, 71, 127
1, 25709, Note_off_c, 1, 71, 0
1, 25710, Note_on_c, 1, 80, 127
1, 25739, Note_off_c, 1, 80, 0
1, 25740, Note_on_c, 1, 76, 127
1, 25769, Note_off_c, 1, 76, 0
1, 25770, Note_on_c, 1, 77, 127
1, 25799, Note_off_c, 1, 77, 0
1, 25800, Note_on_c, 1, 81, 127
1, 25829, Note_off_c, 1, 81, 0
1, 25830, Note_on_c, 1, 77, 127
1, 25859, Note_off_c, 1, 77, 0
1, 25860, Note_on_c, 1, 73, 127
1, 25889, Note_off_c, 1, 73, 0
1, 25890, Note_on_c, 1, 74, 127
1, 25919, Note_off_c, 1, 74, 0
1, 25920, Note_on_c, 1, 68, 127
1, 25949, Note_off_c, 1, 68, 0
1, 25950, Note_on_c, 1, 77, 127
1, 25979, Note_off_c, 1, 77, 0
1, 25980, Note_on_c, 1, 73, 127
1, 26009, Note_off_c, 1, 73, 0
1, 26010, Note_on_c, 1, 74, 127
1, 26039, Note_off_c, 1, 74, 0
1, 26040, Note_on_c, 1, 83, 127
1, 26069, Note_off_c, 1, 83, 0
1, 26070, Note_on_c, 1, 81, 127
1, 26099, Note_off_c, 1, 81, 0
1, 26100, Note_on_c, 1, 80, 127
1, 26129, Note_off_c, 1, 80, 0
1, 26130, Note_on_c, 1, 78, 127
1, 26159, Note_off_c, 1, 78, 0
1, 26160, Note_on_c, 1, 76, 127
1, 26189, Note_off_c, 1, 76, 0
1, 26190, Note_on_c, 1, 74, 127
1, 26219, Note_off_c, 1, 74, 0
1, 26220, Note_on_c, 1, 72, 127
1, 26249, Note_off_c, 1, 72, 0
1, 26250, Note_on_c, 1, 71, 127
1, 26279, Note_off_c, 1, 71, 0
1, 26280, Note_on_c, 1, 69, 127
1, 26309, Note_off_c, 1, 69, 0
1, 26310, Note_on_c, 1, 68, 127
1, 26339, Note_off_c, 1, 68, 0
1, 26340, Note_on_c, 1, 66, 127
1, 26369, Note_off_c, 1, 66, 0
1, 26370, Note_on_c, 1, 64, 127
1, 26399, Note_off_c, 1, 64, 0
1, 26400, Note_on_c, 1, 74, 127
1, 26429, Note_off_c, 1, 74, 0
1, 26430, Note_on_c, 1, 71, 127
1, 26459, Note_off_c, 1, 71, 0
1, 26460, Note_on_c, 1, 72, 127
1, 26489, Note_off_c, 1, 72, 0
1, 26490, Note_on_c, 1, 76, 127
1, 26519, Note_off_c, 1, 76, 0
1, 26520, Note_on_c, 1, 69, 127
1, 26549, Note_off_c, 1, 69, 0
1, 26550, Note_on_c, 1, 71, 127
1, 26579, Note_off_c, 1, 71, 0
1, 26580, Note_on_c, 1, 72, 127
1, 26609, Note_off_c, 1, 72, 0
1, 26610, Note_on_c, 1, 74, 127
1, 26639, Note_off_c, 1, 74, 0
1, 26640, Note_on_c, 1, 76, 127
1, 26669, Note_off_c, 1, 76, 0
1, 26670, Note_on_c, 1, 78, 127
1, 26699, Note_off_c, 1, 78, 0
1, 26700, Note_on_c, 1, 80, 127
1, 26729, Note_off_c, 1, 80, 0
1, 26730, Note_on_c, 1, 81, 127
1, 26759, Note_off_c, 1, 81, 0
1, 26760, Note_on_c, 1, 83, 127
1, 26789, Note_off_c, 1, 83, 0
1, 26790, Note_on_c, 1, 80, 127
1, 26819, Note_off_c, 1, 80, 0
1, 26820, Note_on_c, 1, 81, 127
1, 26849, Note_off_c, 1, 81, 0
1, 26850, Note_on_c, 1, 84, 127
1, 26879, Note_off_c, 1, 84, 0
1, 26880, Note_on_c, 1, 75, 127
1, 26909, Note_off_c, 1, 75, 0
1, 26910, Note_on_c, 1, 78, 127
1, 26939, Note_off_c, 1, 78, 0
1, 26940, Note_on_c, 1, 84, 127
1, 26969, Note_off_c, 1, 84, 0
1, 26970, Note_on_c, 1, 83, 127
1, 26999, Note_off_c, 1, 83, 0
1, 27000, Note_on_c, 1, 76, 127
1, 27029, Note_off_c, 1, 76, 0
1, 27030, Note_on_c, 1, 80, 127
1, 27059, Note_off_c, 1, 80, 0
1, 27060, Note_on_c, 1, 84, 127
1, 27089, Note_off_c, 1, 84, 0
1, 27090, Note_on_c, 1, 83, 127
1, 27119, Note_off_c, 1, 83, 0
1, 27120, Note_on_c, 1, 78, 127
1, 27149, Note_off_c, 1, 78, 0
1, 27150, Note_on_c, 1, 81, 127
1, 27179, Note_off_c, 1, 81, 0
1, 27180, Note_on_c, 1, 84, 127
1, 27209, Note_off_c, 1, 84, 0
1, 27210, Note_on_c, 1, 83, 127
1, 27239, Note_off_c, 1, 83, 0
1, 27240, Note_on_c, 1, 71, 127
1, 27269, Note_off_c, 1, 71, 0
1, 27270, Note_on_c, 1, 84, 127
1, 27299, Note_off_c, 1, 84, 0
1, 27300, Note_on_c, 1, 83, 127
1, 27329, Note_off_c, 1, 83, 0
1, 27330, Note_on_c, 1, 81, 127
1, 27359, Note_off_c, 1, 81, 0
1, 27360, Note_on_c, 1, 80, 127
1, 27389, Note_off_c, 1, 80, 0
1, 27390, Note_on_c, 1, 76, 127
1, 27419, Note_off_c, 1, 76, 0
1, 27420, Note_on_c, 1, 77, 127
1, 27449, Note_off_c, 1, 77, 0
1, 27450, Note_on_c, 1, 76, 127
1, 27479, Note_off_c, 1, 76, 0
1, 27480, Note_on_c, 1, 81, 127
1, 27509, Note_off_c, 1, 81, 0
1, 27510, Note_on_c, 1, 76, 127
1, 27539, Note_off_c, 1, 76, 0
1, 27540, Note_on_c, 1, 77, 127
1, 27569, Note_off_c, 1, 77, 0
1, 27570, Note_on_c, 1, 76, 127
1, 27599, Note_off_c, 1, 76, 0
1, 27600, Note_on_c, 1, 83, 127
1, 27629, Note_off_c, 1, 83, 0
1, 27630, Note_on_c, 1, 76, 127
1, 27659, Note_off_c, 1, 76, 0
1, 27660, Note_on_c, 1, 77, 127
1, 27689, Note_off_c, 1, 77, 0
1, 27690, Note_on_c, 1, 76, 127
1, 27719, Note_off_c, 1, 76, 0
1, 27720, Note_on_c, 1, 74, 127
1, 27749, Note_off_c, 1, 74, 0
1, 27750, Note_on_c, 1, 77, 127
1, 27779, Note_off_c, 1, 77, 0
1, 27780, Note_on_c, 1, 76, 127
1, 27809, Note_off_c, 1, 76, 0
1, 27810, Note_on_c, 1, 74, 127
1, 27839, Note_off_c, 1, 74, 0
1, 27840, Note_on_c, 1, 72, 127
1, 27869, Note_off_c, 1, 72, 0
1, 27870, Note_on_c, 1, 69, 127
1, 27899, Note_off_c, 1, 69, 0
1, 27900, Note_on_c, 1, 72, 127
1, 27929, Note_off_c, 1, 72, 0
1, 27930, Note_on_c, 1, 76, 127
1, 27959, Note_off_c, 1, 76, 0
1, 27960, Note_on_c, 1, 81, 127
1, 27989, Note_off_c, 1, 81, 0
1, 27990, Note_on_c, 1, 79, 127
1, 28019, Note_off_c, 1, 79, 0
1, 28020, Note_on_c, 1, 77, 127
1, 28049, Note_off_c, 1, 77, 0
1, 28050, Note_on_c, 1, 76, 127
1, 28079, Note_off_c, 1, 76, 0
1, 28080, Note_on_c, 1, 77, 127
1, 28109, Note_off_c, 1, 77, 0
1, 28110, Note_on_c, 1, 81, 127
1, 28139, Note_off_c, 1, 81, 0
1, 28140, Note_on_c, 1, 77, 127
1, 28169, Note_off_c, 1, 77, 0
1, 28170, Note_on_c, 1, 74, 127
1, 28199, Note_off_c, 1, 74, 0
1, 28200, Note_on_c, 1, 86, 127
1, 28229, Note_off_c, 1, 86, 0
1, 28230, Note_on_c, 1, 84, 127
1, 28259, Note_off_c, 1, 84, 0
1, 28260, Note_on_c, 1, 83, 127
1, 28289, Note_off_c, 1, 83, 0
1, 28290, Note_on_c, 1, 81, 127
1, 28319, Note_off_c, 1, 81, 0
1, 28320, Note_on_c, 1, 80, 127
1, 28349, Note_off_c, 1, 80, 0
1, 28350, Note_on_c, 1, 88, 127
1, 28379, Note_off_c, 1, 88, 0
1, 28380, Note_on_c, 1, 85, 127
1, 28409, Note_off_c, 1, 85, 0
1, 28410, Note_on_c, 1, 79, 127
1, 28439, Note_off_c, 1, 79, 0
1, 28440, Note_on_c, 1, 78, 127
1, 28469, Note_off_c, 1, 78, 0
1, 28470, Note_on_c, 1, 86, 127
1, 28499, Note_off_c, 1, 86, 0
1, 28500, Note_on_c, 1, 83, 127
1, 28529, Note_off_c, 1, 83, 0
1, 28530, Note_on_c, 1, 78, 127
1, 28559, Note_off_c, 1, 78, 0
1, 28560, Note_on_c, 1, 76, 127
1, 28589, Note_off_c, 1, 76, 0
1, 28590, Note_on_c, 1, 84, 127
1, 28619, Note_off_c, 1, 84, 0
1, 28620, Note_on_c, 1, 81, 127
1, 28649, Note_off_c, 1, 81, 0
1, 28650, Note_on_c, 1, 75, 127
1, 28679, Note_off_c, 1, 75, 0
1, 28680, Note_on_c, 1, 74, 127
1, 28709, Note_off_c, 1, 74, 0
1, 28710, Note_on_c, 1, 82, 127
1, 28739, Note_off_c, 1, 82, 0
1, 28740, Note_on_c, 1, 80, 127
1, 28769, Note_off_c, 1, 80, 0
1, 28770, Note_on_c, 1, 74, 127
1, 28799, Note_off_c, 1, 74, 0
1, 28800, Note_on_c, 1, 72, 127
1, 28829, Note_off_c, 1, 72, 0
1, 28830, Note_on_c, 1, 81, 127
1, 28859, Note_off_c, 1, 81, 0
1, 28860, Note_on_c, 1, 77, 127
1, 28889, Note_off_c, 1, 77, 0
1, 28890, Note_on_c, 1, 74, 127
1, 28919, Note_off_c, 1, 74, 0
1, 28920, Note_on_c, 1, 71, 127
1, 28949, Note_off_c, 1, 71, 0
1, 28950, Note_on_c, 1, 77, 127
1, 28979, Note_off_c, 1, 77, 0
1, 28980, Note_on_c, 1, 74, 127
1, 29009, Note_off_c, 1, 74, 0
1, 29010, Note_on_c, 1, 71, 127
1, 29039, Note_off_c, 1, 71, 0
1, 29040, Note_on_c, 1, 68, 127
1, 29069, Note_off_c, 1, 68, 0
1, 29070, Note_on_c, 1, 71, 127
1, 29099, Note_off_c, 1, 71, 0
1, 29100, Note_on_c, 1, 74, 127
1, 29129, Note_off_c, 1, 74, 0
1, 29130, Note_on_c, 1, 77, 127
1, 29159, Note_off_c, 1, 77, 0
1, 29160, Note_on_c, 1, 76, 127
1, 29189, Note_off_c, 1, 76, 0
1, 29190, Note_on_c, 1, 74, 127
1, 29219, Note_off_c, 1, 74, 0
1, 29220, Note_on_c, 1, 72, 127
1, 29249, Note_off_c, 1, 72, 0
1, 29250, Note_on_c, 1, 71, 127
1, 29279, Note_off_c, 1, 71, 0
1, 29280, Note_on_c, 1, 72, 127
1, 29309, Note_off_c, 1, 72, 0
1, 29310, Note_on_c, 1, 76, 127
1, 29339, Note_off_c, 1, 76, 0
1, 29340, Note_on_c, 1, 81, 127
1, 29369, Note_off_c, 1, 81, 0
1, 29370, Note_on_c, 1, 84, 127
1, 29399, Note_off_c, 1, 84, 0
1, 29400, Note_on_c, 1, 83, 127
1, 29429, Note_off_c, 1, 83, 0
1, 29430, Note_on_c, 1, 81, 127
1, 29459, Note_off_c, 1, 81, 0
1, 29460, Note_on_c, 1, 76, 127
1, 29489, Note_off_c, 1, 76, 0
1, 29490, Note_on_c, 1, 80, 127
1, 29519, Note_off_c, 1, 80, 0
1, 29520, Note_on_c, 1, 81, 127
1, 29549, Note_off_c, 1, 81, 0
1, 29550, Note_on_c, 1, 69, 127
1, 29579, Note_off_c, 1, 69, 0
1, 29580, Note_on_c, 1, 67, 127
1, 29609, Note_off_c, 1, 67, 0
1, 29610, Note_on_c, 1, 64, 127
1, 29639, Note_off_c, 1, 64, 0
1, 29640, Note_on_c, 1, 65, 127
1, 29669, Note_off_c, 1, 65, 0
1, 29670, Note_on_c, 1, 81, 127
1, 29699, Note_off_c, 1, 81, 0
1, 29700, Note_on_c, 1, 64, 127
1, 29729, Note_off_c, 1, 64, 0
1, 29730, Note_on_c, 1, 79, 127
1, 29759, Note_off_c, 1, 79, 0
1, 29760, Note_on_c, 1, 62, 127
1, 29789, Note_off_c, 1, 62, 0
1, 29790, Note_on_c, 1, 77, 127
1, 29819, Note_off_c, 1, 77, 0
1, 29820, Note_on_c, 1, 76, 127
1, 29849, Note_off_c, 1, 76, 0
1, 29850, Note_on_c, 1, 73, 127
1, 29879, Note_off_c, 1, 73, 0
1, 29880, Note_on_c, 1, 74, 127
1, 29909, Note_off_c, 1, 74, 0
1, 29910, Note_on_c, 1, 82, 127
1, 29939, Note_off_c, 1, 82, 0
1, 29940, Note_on_c, 1, 72, 127
1, 29969, Note_off_c, 1, 72, 0
1, 29970, Note_on_c, 1, 81, 127
1, 29999, Note_off_c, 1, 81, 0
1, 30000, Note_on_c, 1, 80, 127
1, 30029, Note_off_c, 1, 80, 0
1, 30030, Note_on_c, 1, 76, 127
1, 30059, Note_off_c, 1, 76, 0
1, 30060, Note_on_c, 1, 74, 127
1, 30089, Note_off_c, 1, 74, 0
1, 30090, Note_on_c, 1, 71, 127
1, 30119, Note_off_c, 1, 71, 0
1, 30120, Note_on_c, 1, 72, 127
1, 30149, Note_off_c, 1, 72, 0
1, 30150, Note_on_c, 1, 88, 127
1, 30179, Note_off_c, 1, 88, 0
1, 30180, Note_on_c, 1, 71, 127
1, 30209, Note_off_c, 1, 71, 0
1, 30210, Note_on_c, 1, 86, 127
1, 30239, Note_off_c, 1, 86, 0
1, 30240, Note_on_c, 1, 69, 127
1, 30269, Note_off_c, 1, 69, 0
1, 30270, Note_on_c, 1, 84, 127
1, 30299, Note_off_c, 1, 84, 0
1, 30300, Note_on_c, 1, 74, 127
1, 30329, Note_off_c, 1, 74, 0
1, 30330, Note_on_c, 1, 83, 127
1, 30359, Note_off_c, 1, 83, 0
1, 30360, Note_on_c, 1, 76, 127
1, 30389, Note_off_c, 1, 76, 0
1, 30390, Note_on_c, 1, 81, 127
1, 30419, Note_off_c, 1, 81, 0
1, 30420, Note_on_c, 1, 83, 127
1, 30449, Note_off_c, 1, 83, 0
1, 30450, Note_on_c, 1, 80, 127
1, 30479, Note_off_c, 1, 80, 0
1, 30480, Note_on_c, 1, 81, 127
1, 30509, Note_off_c, 1, 81, 0
1, 30510, Note_on_c, 1, 64, 127
1, 30539, Note_off_c, 1, 64, 0
1, 30540, Note_on_c, 1, 69, 127
1, 30569, Note_off_c, 1, 69, 0
1, 30570, Note_on_c, 1, 72, 127
1, 30599, Note_off_c, 1, 72, 0
1, 30600, Note_on_c, 1, 76, 127
1, 30629, Note_off_c, 1, 76, 0
1, 30630, Note_on_c, 1, 69, 127
1, 30659, Note_off_c, 1, 69, 0
1, 30660, Note_on_c, 1, 72, 127
1, 30689, Note_off_c, 1, 72, 0
1, 30690, Note_on_c, 1, 76, 127
1, 30719, Note_off_c, 1, 76, 0
1, 30720, Note_on_c, 1, 81, 127
1, 30749, Note_off_c, 1, 81, 0
1, 30750, Note_on_c, 1, 76, 127
1, 30779, Note_off_c, 1, 76, 0
1, 30780, Note_on_c, 1, 81, 127
1, 30809, Note_off_c, 1, 81, 0
1, 30810, Note_on_c, 1, 84, 127
1, 30839, Note_off_c, 1, 84, 0
1, 30840, Note_on_c, 1, 88, 127
1, 30869, Note_off_c, 1, 88, 0
1, 30870, Note_on_c, 1, 81, 127
1, 30899, Note_off_c, 1, 81, 0
1, 30900, Note_on_c, 1, 84, 127
1, 30929, Note_off_c, 1, 84, 0
1, 30930, Note_on_c, 1, 88, 127
1, 30959, Note_off_c, 1, 88, 0
1, 30960, Note_on_c, 1, 93, 127
1, 31199, Note_off_c, 1, 93, 0
1, 31199, End_track
0, 0, End_of_file