0, 0, Header, 1, 1, 480
1, 0, Start_track
1, 0, Title_t, "Test"
1, 0, Tempo, 500000
1, 0, Instrument_name_t, "Church Organ"
1, 180, Note_on_c, 1, 76, 127
1, 240, Note_off_c, 1, 76, 0
1, 240, Note_on_c, 1, 69, 127
1, 269, Note_off_c, 1, 69, 0
1, 270, Note_on_c, 1, 71, 127
1, 299, Note_off_c, 1, 71, 0
1, 300, Note_on_c, 1, 72, 127
1, 359, Note_off_c, 1, 72, 0
1, 360, Note_on_c, 1, 71, 127
1, 389, Note_off_c, 1, 71, 0
1, 390, Note_on_c, 1, 69, 127
1, 419, Note_off_c, 1, 69, 0
1, 420, Note_on_c, 1, 68, 127
1, 479, Note_off_c, 1, 68, 0
1, 480, Note_on_c, 1, 69, 127
1, 539, Note_off_c, 1, 69, 0
1, 540, Note_on_c, 1, 76, 127
1, 599, Note_off_c, 1, 76, 0
1, 600, Note_on_c, 1, 76, 127
1, 719, Note_off_c, 1, 76, 0
1, 720, Note_on_c, 1, 64, 127
1, 749, Note_off_c, 1, 64, 0
1, 750, Note_on_c, 1, 65, 127
1, 779, Note_off_c, 1, 65, 0
1, 780, Note_on_c, 1, 64, 127
1, 809, Note_off_c, 1, 64, 0
1, 810, Note_on_c, 1, 76, 127
1, 839, Note_off_c, 1, 76, 0
1, 840, Note_on_c, 1, 64, 127
1, 869, Note_off_c, 1, 64, 0
1, 870, Note_on_c, 1, 65, 127
1, 899, Note_off_c, 1, 65, 0
1, 900, Note_on_c, 1, 64, 127
1, 929, Note_off_c, 1, 64, 0
1, 930, Note_on_c, 1, 74, 127
1, 959, Note_off_c, 1, 74, 0
1, 960, Note_on_c, 1, 64, 127
1, 989, Note_off_c, 1, 64, 0
1, 990, Note_on_c, 1, 65, 127
1, 1019, Note_off_c, 1, 65, 0
1, 1020, Note_on_c, 1, 64, 127
1, 1049, Note_off_c, 1, 64, 0
1, 1050, Note_on_c, 1, 72, 127
1, 1079, Note_off_c, 1, 72, 0
1, 1080, Note_on_c, 1, 71, 127
1, 1109, Note_off_c, 1, 71, 0
1, 1110, Note_on_c, 1, 68, 127
1, 1139, Note_off_c, 1, 68, 0
1, 1140, Note_on_c, 1, 76, 127
1, 1200, Note_off_c, 1, 76, 0
1, 1200, Note_on_c, 1, 72, 127
1, 1229, Note_off_c, 1, 72, 0
1, 1230, Note_on_c, 1, 69, 127
1, 1259, Note_off_c, 1, 69, 0
1, 1260, Note_on_c, 1, 77, 127
1, 1319, Note_off_c, 1, 77, 0
1, 1320, Note_on_c, 1, 74, 127
1, 1349, Note_off_c, 1, 74, 0
1, 1350, Note_on_c, 1, 71, 127
1, 1379, Note_off_c, 1, 71, 0
1, 1380, Note_on_c, 1, 79, 127
1, 1439, Note_off_c, 1, 79, 0
1, 1440, Note_on_c, 1, 76, 127
1, 1469, Note_off_c, 1, 76, 0
1, 1470, Note_on_c, 1, 72, 127
1, 1499, Note_off_c, 1, 72, 0
1, 1500, Note_on_c, 1, 79, 127
1, 1559, Note_off_c, 1, 79, 0
1, 1560, Note_on_c, 1, 79, 127
1, 1680, Note_off_c, 1, 79, 0
1, 1680, Note_on_c, 1, 76, 127
1, 1709, Note_off_c, 1, 76, 0
1, 1710, Note_on_c, 1, 79, 127
1, 1739, Note_off_c, 1, 79, 0
1, 1740, Note_on_c, 1, 76, 127
1, 1769, Note_off_c, 1, 76, 0
1, 1770, Note_on_c, 1, 72, 127
1, 1799, Note_off_c, 1, 72, 0
1, 1800, Note_on_c, 1, 67, 127
1, 1829, Note_off_c, 1, 67, 0
1, 1830, Note_on_c, 1, 72, 127
1, 1859, Note_off_c, 1, 72, 0
1, 1860, Note_on_c, 1, 76, 127
1, 1889, Note_off_c, 1, 76, 0
1, 1890, Note_on_c, 1, 79, 127
1, 1919, Note_off_c, 1, 79, 0
1, 1920, Note_on_c, 1, 74, 127
1, 1949, Note_off_c, 1, 74, 0
1, 1950, Note_on_c, 1, 79, 127
1, 1979, Note_off_c, 1, 79, 0
1, 1980, Note_on_c, 1, 74, 127
1, 2009, Note_off_c, 1, 74, 0
1, 2010, Note_on_c, 1, 71, 127
1, 2039, Note_off_c, 1, 71, 0
1, 2040, Note_on_c, 1, 67, 127
1, 2069, Note_off_c, 1, 67, 0
1, 2070, Note_on_c, 1, 71, 127
1, 2099, Note_off_c, 1, 71, 0
1, 2100, Note_on_c, 1, 74, 127
1, 2129, Note_off_c, 1, 74, 0
1, 2130, Note_on_c, 1, 77, 127
1, 2159, Note_off_c, 1, 77, 0
1, 2160, Note_on_c, 1, 76, 127
1, 2189, Note_off_c, 1, 76, 0
1, 2190, Note_on_c, 1, 79, 127
1, 2219, Note_off_c, 1, 79, 0
1, 2220, Note_on_c, 1, 76, 127
1, 2249, Note_off_c, 1, 76, 0
1, 2250, Note_on_c, 1, 72, 127
1, 2279, Note_off_c, 1, 72, 0
1, 2280, Note_on_c, 1, 67, 127
1, 2309, Note_off_c, 1, 67, 0
1, 2310, Note_on_c, 1, 72, 127
1, 2339, Note_off_c, 1, 72, 0
1, 2340, Note_on_c, 1, 76, 127
1, 2369, Note_off_c, 1, 76, 0
1, 2370, Note_on_c, 1, 79, 127
1, 2399, Note_off_c, 1, 79, 0
1, 2400, Note_on_c, 1, 74, 127
1, 2429, Note_off_c, 1, 74, 0
1, 2430, Note_on_c, 1, 79, 127
1, 2459, Note_off_c, 1, 79, 0
1, 2460, Note_on_c, 1, 74, 127
1, 2489, Note_off_c, 1, 74, 0
1, 2490, Note_on_c, 1, 71, 127
1, 2519, Note_off_c, 1, 71, 0
1, 2520, Note_on_c, 1, 67, 127
1, 2549, Note_off_c, 1, 67, 0
1, 2550, Note_on_c, 1, 71, 127
1, 2579, Note_off_c, 1, 71, 0
1, 2580, Note_on_c, 1, 74, 127
1, 2609, Note_off_c, 1, 74, 0
1, 2610, Note_on_c, 1, 77, 127
1, 2639, Note_off_c, 1, 77, 0
1, 2640, Note_on_c, 1, 64, 127
1, 2669, Note_off_c, 1, 64, 0
1, 2670, Note_on_c, 1, 65, 127
1, 2699, Note_off_c, 1, 65, 0
1, 2700, Note_on_c, 1, 67, 127
1, 2759, Note_off_c, 1, 67, 0
1, 2760, Note_on_c, 1, 67, 127
1, 2789, Note_off_c, 1, 67, 0
1, 2790, Note_on_c, 1, 69, 127
1, 2819, Note_off_c, 1, 69, 0
1, 2820, Note_on_c, 1, 71, 127
1, 2879, Note_off_c, 1, 71, 0
1, 2880, Note_on_c, 1, 72, 127
1, 2909, Note_off_c, 1, 72, 0
1, 2910, Note_on_c, 1, 71, 127
1, 2939, Note_off_c, 1, 71, 0
1, 2940, Note_on_c, 1, 72, 127
1, 2999, Note_off_c, 1, 72, 0
1, 3000, Note_on_c, 1, 82, 127
1, 3119, Note_off_c, 1, 82, 0
1, 3120, Note_on_c, 1, 65, 127
1, 3149, Note_off_c, 1, 65, 0
1, 3150, Note_on_c, 1, 72, 127
1, 3179, Note_off_c, 1, 72, 0
1, 3180, Note_on_c, 1, 77, 127
1, 3239, Note_off_c, 1, 77, 0
1, 3240, Note_on_c, 1, 81, 127
1, 3269, Note_off_c, 1, 81, 0
1, 3270, Note_on_c, 1, 79, 127
1, 3299, Note_off_c, 1, 79, 0
1, 3300, Note_on_c, 1, 81, 127
1, 3359, Note_off_c, 1, 81, 0
1, 3360, Note_on_c, 1, 66, 127
1, 3389, Note_off_c, 1, 66, 0
1, 3390, Note_on_c, 1, 69, 127
1, 3419, Note_off_c, 1, 69, 0
1, 3420, Note_on_c, 1, 74, 127
1, 3479, Note_off_c, 1, 74, 0
1, 3480, Note_on_c, 1, 84, 127
1, 3599, Note_off_c, 1, 84, 0
1, 3600, Note_on_c, 1, 83, 127
1, 3659, Note_off_c, 1, 83, 0
1, 3660, Note_on_c, 1, 81, 127
1, 3689, Note_off_c, 1, 81, 0
1, 3690, Note_on_c, 1, 79, 127
1, 3719, Note_off_c, 1, 79, 0
1, 3720, Note_on_c, 1, 86, 127
1, 3779, Note_off_c, 1, 86, 0
1, 3780, Note_on_c, 1, 77, 127
1, 3839, Note_off_c, 1, 77, 0
1, 3840, Note_on_c, 1, 76, 127
1, 3869, Note_off_c, 1, 76, 0
1, 3870, Note_on_c, 1, 74, 127
1, 3899, Note_off_c, 1, 74, 0
1, 3900, Note_on_c, 1, 76, 127
1, 3959, Note_off_c, 1, 76, 0
1, 3960, Note_on_c, 1, 84, 127
1, 4019, Note_off_c, 1, 84, 0
1, 4020, Note_on_c, 1, 76, 127
1, 4079, Note_off_c, 1, 76, 0
1, 4080, Note_on_c, 1, 77, 127
1, 4109, Note_off_c, 1, 77, 0
1, 4110, Note_on_c, 1, 81, 127
1, 4139, Note_off_c, 1, 81, 0
1, 4140, Note_on_c, 1, 77, 127
1, 4169, Note_off_c, 1, 77, 0
1, 4170, Note_on_c, 1, 74, 127
1, 4199, Note_off_c, 1, 74, 0
1, 4200, Note_on_c, 1, 74, 127
1, 4229, Note_off_c, 1, 74, 0
1, 4230, Note_on_c, 1, 77, 127
1, 4259, Note_off_c, 1, 77, 0
1, 4260, Note_on_c, 1, 74, 127
1, 4289, Note_off_c, 1, 74, 0
1, 4290, Note_on_c, 1, 71, 127
1, 4319, Note_off_c, 1, 71, 0
1, 4320, Note_on_c, 1, 71, 127
1, 4349, Note_off_c, 1, 71, 0
1, 4350, Note_on_c, 1, 74, 127
1, 4379, Note_off_c, 1, 74, 0
1, 4380, Note_on_c, 1, 71, 127
1, 4409, Note_off_c, 1, 71, 0
1, 4410, Note_on_c, 1, 67, 127
1, 4439, Note_off_c, 1, 67, 0
1, 4440, Note_on_c, 1, 79, 127
1, 4499, Note_off_c, 1, 79, 0
1, 4500, Note_on_c, 1, 77, 127
1, 4559, Note_off_c, 1, 77, 0
1, 4560, Note_on_c, 1, 76, 127
1, 4619, Note_off_c, 1, 76, 0
1, 4620, Note_on_c, 1, 74, 127
1, 4649, Note_off_c, 1, 74, 0
1, 4650, Note_on_c, 1, 72, 127
1, 4679, Note_off_c, 1, 72, 0
1, 4680, Note_on_c, 1, 74, 127
1, 4739, Note_off_c, 1, 74, 0
1, 4740, Note_on_c, 1, 71, 127
1, 4799, Note_off_c, 1, 71, 0
1, 4800, Note_on_c, 1, 72, 127
1, 4979, Note_off_c, 1, 72, 0
1, 4980, Note_on_c, 1, 76, 127
1, 5040, Note_off_c, 1, 76, 0
1, 5040, Note_on_c, 1, 69, 127
1, 5069, Note_off_c, 1, 69, 0
1, 5070, Note_on_c, 1, 71, 127
1, 5099, Note_off_c, 1, 71, 0
1, 5100, Note_on_c, 1, 72, 127
1, 5159, Note_off_c, 1, 72, 0
1, 5160, Note_on_c, 1, 71, 127
1, 5189, Note_off_c, 1, 71, 0
1, 5190, Note_on_c, 1, 69, 127
1, 5219, Note_off_c, 1, 69, 0
1, 5220, Note_on_c, 1, 68, 127
1, 5279, Note_off_c, 1, 68, 0
1, 5280, Note_on_c, 1, 69, 127
1, 5339, Note_off_c, 1, 69, 0
1, 5340, Note_on_c, 1, 76, 127
1, 5399, Note_off_c, 1, 76, 0
1, 5400, Note_on_c, 1, 76, 127
1, 5519, Note_off_c, 1, 76, 0
1, 5520, Note_on_c, 1, 64, 127
1, 5549, Note_off_c, 1, 64, 0
1, 5550, Note_on_c, 1, 65, 127
1, 5579, Note_off_c, 1, 65, 0
1, 5580, Note_on_c, 1, 64, 127
1, 5609, Note_off_c, 1, 64, 0
1, 5610, Note_on_c, 1, 76, 127
1, 5639, Note_off_c, 1, 76, 0
1, 5640, Note_on_c, 1, 64, 127
1, 5669, Note_off_c, 1, 64, 0
1, 5670, Note_on_c, 1, 65, 127
1, 5699, Note_off_c, 1, 65, 0
1, 5700, Note_on_c, 1, 64, 127
1, 5729, Note_off_c, 1, 64, 0
1, 5730, Note_on_c, 1, 74, 127
1, 5759, Note_off_c, 1, 74, 0
1, 5760, Note_on_c, 1, 64, 127
1, 5789, Note_off_c, 1, 64, 0
1, 5790, Note_on_c, 1, 65, 127
1, 5819, Note_off_c, 1, 65, 0
1, 5820, Note_on_c, 1, 64, 127
1, 5849, Note_off_c, 1, 64, 0
1, 5850, Note_on_c, 1, 72, 127
1, 5879, Note_off_c, 1, 72, 0
1, 5880, Note_on_c, 1, 71, 127
1, 5909, Note_off_c, 1, 71, 0
1, 5910, Note_on_c, 1, 68, 127
1, 5939, Note_off_c, 1, 68, 0
1, 5940, Note_on_c, 1, 76, 127
1, 6000, Note_off_c, 1, 76, 0
1, 6000, Note_on_c, 1, 72, 127
1, 6029, Note_off_c, 1, 72, 0
1, 6030, Note_on_c, 1, 69, 127
1, 6059, Note_off_c, 1, 69, 0
1, 6060, Note_on_c, 1, 77, 127
1, 6119, Note_off_c, 1, 77, 0
1, 6120, Note_on_c, 1, 74, 127
1, 6149, Note_off_c, 1, 74, 0
1, 6150, Note_on_c, 1, 71, 127
1, 6179, Note_off_c, 1, 71, 0
1, 6180, Note_on_c, 1, 79, 127
1, 6239, Note_off_c, 1, 79, 0
1, 6240, Note_on_c, 1, 76, 127
1, 6269, Note_off_c, 1, 76, 0
1, 6270, Note_on_c, 1, 72, 127
1, 6299, Note_off_c, 1, 72, 0
1, 6300, Note_on_c, 1, 79, 127
1, 6359, Note_off_c, 1, 79, 0
1, 6360, Note_on_c, 1, 79, 127
1, 6480, Note_off_c, 1, 79, 0
1, 6480, Note_on_c, 1, 76, 127
1, 6509, Note_off_c, 1, 76, 0
1, 6510, Note_on_c, 1, 79, 127
1, 6539, Note_off_c, 1, 79, 0
1, 6540, Note_on_c, 1, 76, 127
1, 6569, Note_off_c, 1, 76, 0
1, 6570, Note_on_c, 1, 72, 127
1, 6599, Note_off_c, 1, 72, 0
1, 6600, Note_on_c, 1, 67, 127
1, 6629, Note_off_c, 1, 67, 0
1, 6630, Note_on_c, 1, 72, 127
1, 6659, Note_off_c, 1, 72, 0
1, 6660, Note_on_c, 1, 76, 127
1, 6689, Note_off_c, 1, 76, 0
1, 6690, Note_on_c, 1, 79, 127
1, 6719, Note_off_c, 1, 79, 0
1, 6720, Note_on_c, 1, 74, 127
1, 6749, Note_off_c, 1, 74, 0
1, 6750, Note_on_c, 1, 79, 127
1, 6779, Note_off_c, 1, 79, 0
1, 6780, Note_on_c, 1, 74, 127
1, 6809, Note_off_c, 1, 74, 0
1, 6810, Note_on_c, 1, 71, 127
1, 6839, Note_off_c, 1, 71, 0
1, 6840, Note_on_c, 1, 67, 127
1, 6869, Note_off_c, 1, 67, 0
1, 6870, Note_on_c, 1, 71, 127
1, 6899, Note_off_c, 1, 71, 0
1, 6900, Note_on_c, 1, 74, 127
1, 6929, Note_off_c, 1, 74, 0
1, 6930, Note_on_c, 1, 77, 127
1, 6959, Note_off_c, 1, 77, 0
1, 6960, Note_on_c, 1, 76, 127
1, 6989, Note_off_c, 1, 76, 0
1, 6990, Note_on_c, 1, 79, 127
1, 7019, Note_off_c, 1, 79, 0
1, 7020, Note_on_c, 1, 76, 127
1, 7049, Note_off_c, 1, 76, 0
1, 7050, Note_on_c, 1, 72, 127
1, 7079, Note_off_c, 1, 72, 0
1, 7080, Note_on_c, 1, 67, 127
1, 7109, Note_off_c, 1, 67, 0
1, 7110, Note_on_c, 1, 72, 127
1, 7139, Note_off_c, 1, 72, 0
1, 7140, Note_on_c, 1, 76, 127
1, 7169, Note_off_c, 1, 76, 0
1, 7170, Note_on_c, 1, 79, 127
1, 7199, Note_off_c, 1, 79, 0
1, 7200, Note_on_c, 1, 74, 127
1, 7229, Note_off_c, 1, 74, 0
1, 7230, Note_on_c, 1, 79, 127
1, 7259, Note_off_c, 1, 79, 0
1, 7260, Note_on_c, 1, 74, 127
1, 7289, Note_off_c, 1, 74, 0
1, 7290, Note_on_c, 1, 71, 127
1, 7319, Note_off_c, 1, 71, 0
1, 7320, Note_on_c, 1, 67, 127
1, 7349, Note_off_c, 1, 67, 0
1, 7350, Note_on_c, 1, 71, 127
1, 7379, Note_off_c, 1, 71, 0
1, 7380, Note_on_c, 1, 74, 127
1, 7409, Note_off_c, 1, 74, 0
1, 7410, Note_on_c, 1, 77, 127
1, 7439, Note_off_c, 1, 77, 0
1, 7440, Note_on_c, 1, 64, 127
1, 7469, Note_off_c, 1, 64, 0
1, 7470, Note_on_c, 1, 65, 127
1, 7499, Note_off_c, 1, 65, 0
1, 7500, Note_on_c, 1, 67, 127
1, 7559, Note_off_c, 1, 67, 0
1, 7560, Note_on_c, 1, 67, 127
1, 7589, Note_off_c, 1, 67, 0
1, 7590, Note_on_c, 1, 69, 127
1, 7619, Note_off_c, 1, 69, 0
1, 7620, Note_on_c, 1, 71, 127
1, 7679, Note_off_c, 1, 71, 0
1, 7680, Note_on_c, 1, 72, 127
1, 7709, Note_off_c, 1, 72, 0
1, 7710, Note_on_c, 1, 71, 127
1, 7739, Note_off_c, 1, 71, 0
1, 7740, Note_on_c, 1, 72, 127
1, 7799, Note_off_c, 1, 72, 0
1, 7800, Note_on_c, 1, 82, 127
1, 7919, Note_off_c, 1, 82, 0
1, 7920, Note_on_c, 1, 65, 127
1, 7949, Note_off_c, 1, 65, 0
1, 7950, Note_on_c, 1, 72, 127
1, 7979, Note_off_c, 1, 72, 0
1, 7980, Note_on_c, 1, 77, 127
1, 8039, Note_off_c, 1, 77, 0
1, 8040, Note_on_c, 1, 81, 127
1, 8069, Note_off_c, 1, 81, 0
1, 8070, Note_on_c, 1, 79, 127
1, 8099, Note_off_c, 1, 79, 0
1, 8100, Note_on_c, 1, 81, 127
1, 8159, Note_off_c, 1, 81, 0
1, 8160, Note_on_c, 1, 66, 127
1, 8189, Note_off_c, 1, 66, 0
1, 8190, Note_on_c, 1, 69, 127
1, 8219, Note_off_c, 1, 69, 0
1, 8220, Note_on_c, 1, 74, 127
1, 8279, Note_off_c, 1, 74, 0
1, 8280, Note_on_c, 1, 84, 127
1, 8399, Note_off_c, 1, 84, 0
1, 8400, Note_on_c, 1, 83, 127
1, 8459, Note_off_c, 1, 83, 0
1, 8460, Note_on_c, 1, 81, 127
1, 8489, Note_off_c, 1, 81, 0
1, 8490, Note_on_c, 1, 79, 127
1, 8519, Note_off_c, 1, 79, 0
1, 8520, Note_on_c, 1, 86, 127
1, 8579, Note_off_c, 1, 86, 0
1, 8580, Note_on_c, 1, 77, 127
1, 8639, Note_off_c, 1, 77, 0
1, 8640, Note_on_c, 1, 76, 127
1, 8669, Note_off_c, 1, 76, 0
1, 8670, Note_on_c, 1, 74, 127
1, 8699, Note_off_c, 1, 74, 0
1, 8700, Note_on_c, 1, 76, 127
1, 8759, Note_off_c, 1, 76, 0
1, 8760, Note_on_c, 1, 84, 127
1, 8819, Note_off_c, 1, 84, 0
1, 8820, Note_on_c, 1, 76, 127
1, 8879, Note_off_c, 1, 76, 0
1, 8880, Note_on_c, 1, 77, 127
1, 8909, Note_off_c, 1, 77, 0
1, 8910, Note_on_c, 1, 81, 127
1, 8939, Note_off_c, 1, 81, 0
1, 8940, Note_on_c, 1, 77, 127
1, 8969, Note_off_c, 1, 77, 0
1, 8970, Note_on_c, 1, 74, 127
1, 8999, Note_off_c, 1, 74, 0
1, 9000, Note_on_c, 1, 74, 127
1, 9029, Note_off_c, 1, 74, 0
1, 9030, Note_on_c, 1, 77, 127
1, 9059, Note_off_c, 1, 77, 0
1, 9060, Note_on_c, 1, 74, 127
1, 9089, Note_off_c, 1, 74, 0
1, 9090, Note_on_c, 1, 71, 127
1, 9119, Note_off_c, 1, 71, 0
1, 9120, Note_on_c, 1, 71, 127
1, 9149, Note_off_c, 1, 71, 0
1, 9150, Note_on_c, 1, 74, 127
1, 9179, Note_off_c, 1, 74, 0
1, 9180, Note_on_c, 1, 71, 127
1, 9209, Note_off_c, 1, 71, 0
1, 9210, Note_on_c, 1, 67, 127
1, 9239, Note_off_c, 1, 67, 0
1, 9240, Note_on_c, 1, 79, 127
1, 9299, Note_off_c, 1, 79, 0
1, 9300, Note_on_c, 1, 77, 127
1, 9359, Note_off_c, 1, 77, 0
1, 9360, Note_on_c, 1, 76, 127
1, 9419, Note_off_c, 1, 76, 0
1, 9420, Note_on_c, 1, 74, 127
1, 9449, Note_off_c, 1, 74, 0
1, 9450, Note_on_c, 1, 72, 127
1, 9479, Note_off_c, 1, 72, 0
1, 9480, Note_on_c, 1, 74, 127
1, 9539, Note_off_c, 1, 74, 0
1, 9540, Note_on_c, 1, 71, 127
1, 9599, Note_off_c, 1, 71, 0
1, 9600, Note_on_c, 1, 72, 127
1, 9779, Note_off_c, 1, 72, 0
1, 9780, Note_on_c, 1, 79, 127
1, 9839, Note_off_c, 1, 79, 0
1, 9840, Note_on_c, 1, 76, 127
1, 9869, Note_off_c, 1, 76, 0
1, 9870, Note_on_c, 1, 74, 127
1, 9899, Note_off_c, 1, 74, 0
1, 9900, Note_on_c, 1, 72, 127
1, 9959, Note_off_c, 1, 72, 0
1, 9960, Note_on_c, 1, 72, 127
1, 9989, Note_off_c, 1, 72, 0
1, 9990, Note_on_c, 1, 74, 127
1, 10019, Note_off_c, 1, 74, 0
1, 10020, Note_on_c, 1, 76, 127
1, 10079, Note_off_c, 1, 76, 0
1, 10080, Note_on_c, 1, 74, 127
1, 10109, Note_off_c, 1, 74, 0
1, 10110, Note_on_c, 1, 72, 127
1, 10139, Note_off_c, 1, 72, 0
1, 10140, Note_on_c, 1, 74, 127
1, 10199, Note_off_c, 1, 74, 0
1, 10200, Note_on_c, 1, 83, 127
1, 10319, Note_off_c, 1, 83, 0
1, 10320, Note_on_c, 1, 68, 127
1, 10349, Note_off_c, 1, 68, 0
1, 10350, Note_on_c, 1, 71, 127
1, 10379, Note_off_c, 1, 71, 0
1, 10380, Note_on_c, 1, 74, 127
1, 10439, Note_off_c, 1, 74, 0
1, 10440, Note_on_c, 1, 77, 127
1, 10499, Note_off_c, 1, 77, 0
1, 10500, Note_on_c, 1, 76, 127
1, 10559, Note_off_c, 1, 76, 0
1, 10560, Note_on_c, 1, 74, 127
1, 10589, Note_off_c, 1, 74, 0
1, 10590, Note_on_c, 1, 72, 127
1, 10619, Note_off_c, 1, 72, 0
1, 10620, Note_on_c, 1, 71, 127
1, 10649, Note_off_c, 1, 71, 0
1, 10650, Note_on_c, 1, 72, 127
1, 10679, Note_off_c, 1, 72, 0
1, 10680, Note_on_c, 1, 69, 127
1, 10739, Note_off_c, 1, 69, 0
1, 10740, Note_on_c, 1, 73, 127
1, 10799, Note_off_c, 1, 73, 0
1, 10800, Note_on_c, 1, 74, 127
1, 10829, Note_off_c, 1, 74, 0
1, 10830, Note_on_c, 1, 76, 127
1, 10859, Note_off_c, 1, 76, 0
1, 10860, Note_on_c, 1, 77, 127
1, 10919, Note_off_c, 1, 77, 0
1, 10920, Note_on_c, 1, 76, 127
1, 10949, Note_off_c, 1, 76, 0
1, 10950, Note_on_c, 1, 74, 127
1, 10979, Note_off_c, 1, 74, 0
1, 10980, Note_on_c, 1, 73, 127
1, 11039, Note_off_c, 1, 73, 0
1, 11040, Note_on_c, 1, 74, 127
1, 11069, Note_off_c, 1, 74, 0
1, 11070, Note_on_c, 1, 69, 127
1, 11099, Note_off_c, 1, 69, 0
1, 11100, Note_on_c, 1, 81, 127
1, 11159, Note_off_c, 1, 81, 0
1, 11160, Note_on_c, 1, 81, 127
1, 11279, Note_off_c, 1, 81, 0
1, 11280, Note_on_c, 1, 73, 127
1, 11309, Note_off_c, 1, 73, 0
1, 11310, Note_on_c, 1, 74, 127
1, 11339, Note_off_c, 1, 74, 0
1, 11340, Note_on_c, 1, 76, 127
1, 11399, Note_off_c, 1, 76, 0
1, 11400, Note_on_c, 1, 74, 127
1, 11429, Note_off_c, 1, 74, 0
1, 11430, Note_on_c, 1, 73, 127
1, 11459, Note_off_c, 1, 73, 0
1, 11460, Note_on_c, 1, 71, 127
1, 11519, Note_off_c, 1, 71, 0
1, 11520, Note_on_c, 1, 73, 127
1, 11549, Note_off_c, 1, 73, 0
1, 11550, Note_on_c, 1, 69, 127
1, 11579, Note_off_c, 1, 69, 0
1, 11580, Note_on_c, 1, 79, 127
1, 11639, Note_off_c, 1, 79, 0
1, 11640, Note_on_c, 1, 79, 127
1, 11759, Note_off_c, 1, 79, 0
1, 11760, Note_on_c, 1, 77, 127
1, 11789, Note_off_c, 1, 77, 0
1, 11790, Note_on_c, 1, 81, 127
1, 11819, Note_off_c, 1, 81, 0
1, 11820, Note_on_c, 1, 77, 127
1, 11849, Note_off_c, 1, 77, 0
1, 11850, Note_on_c, 1, 74, 127
1, 11879, Note_off_c, 1, 74, 0
1, 11880, Note_on_c, 1, 69, 127
1, 11909, Note_off_c, 1, 69, 0
1, 11910, Note_on_c, 1, 74, 127
1, 11939, Note_off_c, 1, 74, 0
1, 11940, Note_on_c, 1, 77, 127
1, 11969, Note_off_c, 1, 77, 0
1, 11970, Note_on_c, 1, 81, 127
1, 11999, Note_off_c, 1, 81, 0
1, 12000, Note_on_c, 1, 76, 127
1, 12029, Note_off_c, 1, 76, 0
1, 12030, Note_on_c, 1, 81, 127
1, 12059, Note_off_c, 1, 81, 0
1, 12060, Note_on_c, 1, 76, 127
1, 12089, Note_off_c, 1, 76, 0
1, 12090, Note_on_c, 1, 73, 127
1, 12119, Note_off_c, 1, 73, 0
1, 12120, Note_on_c, 1, 69, 127
1, 12149, Note_off_c, 1, 69, 0
1, 12150, Note_on_c, 1, 73, 127
1, 12179, Note_off_c, 1, 73, 0
1, 12180, Note_on_c, 1, 76, 127
1, 12209, Note_off_c, 1, 76, 0
1, 12210, Note_on_c, 1, 79, 127
1, 12239, Note_off_c, 1, 79, 0
1, 12240, Note_on_c, 1, 77, 127
1, 12269, Note_off_c, 1, 77, 0
1, 12270, Note_on_c, 1, 81, 127
1, 12299, Note_off_c, 1, 81, 0
1, 12300, Note_on_c, 1, 77, 127
1, 12329, Note_off_c, 1, 77, 0
1, 12330, Note_on_c, 1, 74, 127
1, 12359, Note_off_c, 1, 74, 0
1, 12360, Note_on_c, 1, 69, 127
1, 12389, Note_off_c, 1, 69, 0
1, 12390, Note_on_c, 1, 74, 127
1, 12419, Note_off_c, 1, 74, 0
1, 12420, Note_on_c, 1, 77, 127
1, 12449, Note_off_c, 1, 77, 0
1, 12450, Note_on_c, 1, 81, 127
1, 12479, Note_off_c, 1, 81, 0
1, 12480, Note_on_c, 1, 76, 127
1, 12509, Note_off_c, 1, 76, 0
1, 12510, Note_on_c, 1, 81, 127
1, 12539, Note_off_c, 1, 81, 0
1, 12540, Note_on_c, 1, 76, 127
1, 12569, Note_off_c, 1, 76, 0
1, 12570, Note_on_c, 1, 73, 127
1, 12599, Note_off_c, 1, 73, 0
1, 12600, Note_on_c, 1, 69, 127
1, 12629, Note_off_c, 1, 69, 0
1, 12630, Note_on_c, 1, 73, 127
1, 12659, Note_off_c, 1, 73, 0
1, 12660, Note_on_c, 1, 76, 127
1, 12689, Note_off_c, 1, 76, 0
1, 12690, Note_on_c, 1, 79, 127
1, 12719, Note_off_c, 1, 79, 0
1, 12720, Note_on_c, 1, 77, 127
1, 12749, Note_off_c, 1, 77, 0
1, 12750, Note_on_c, 1, 79, 127
1, 12779, Note_off_c, 1, 79, 0
1, 12780, Note_on_c, 1, 81, 127
1, 12839, Note_off_c, 1, 81, 0
1, 12840, Note_on_c, 1, 69, 127
1, 12899, Note_off_c, 1, 69, 0
1, 12900, Note_on_c, 1, 74, 127
1, 12929, Note_off_c, 1, 74, 0
1, 12930, Note_on_c, 1, 73, 127
1, 12959, Note_off_c, 1, 73, 0
1, 12960, Note_on_c, 1, 74, 127
1, 13019, Note_off_c, 1, 74, 0
1, 13020, Note_on_c, 1, 69, 127
1, 13079, Note_off_c, 1, 69, 0
1, 13080, Note_on_c, 1, 62, 127
1, 13169, Note_off_c, 1, 62, 0
1, 13170, Note_on_c, 1, 77, 127
1, 13199, Note_off_c, 1, 77, 0
1, 13200, Note_on_c, 1, 67, 127
1, 13229, Note_off_c, 1, 67, 0
1, 13230, Note_on_c, 1, 69, 127
1, 13259, Note_off_c, 1, 69, 0
1, 13260, Note_on_c, 1, 71, 127
1, 13319, Note_off_c, 1, 71, 0
1, 13320, Note_on_c, 1, 71, 127
1, 13349, Note_off_c, 1, 71, 0
1, 13350, Note_on_c, 1, 72, 127
1, 13379, Note_off_c, 1, 72, 0
1, 13380, Note_on_c, 1, 74, 127
1, 13439, Note_off_c, 1, 74, 0
1, 13440, Note_on_c, 1, 74, 127
1, 13469, Note_off_c, 1, 74, 0
1, 13470, Note_on_c, 1, 76, 127
1, 13499, Note_off_c, 1, 76, 0
1, 13500, Note_on_c, 1, 77, 127
1, 13559, Note_off_c, 1, 77, 0
1, 13560, Note_on_c, 1, 77, 127
1, 13679, Note_off_c, 1, 77, 0
1, 13680, Note_on_c, 1, 68, 127
1, 13709, Note_off_c, 1, 68, 0
1, 13710, Note_on_c, 1, 69, 127
1, 13739, Note_off_c, 1, 69, 0
1, 13740, Note_on_c, 1, 71, 127
1, 13799, Note_off_c, 1, 71, 0
1, 13800, Note_on_c, 1, 71, 127
1, 13829, Note_off_c, 1, 71, 0
1, 13830, Note_on_c, 1, 72, 127
1, 13859, Note_off_c, 1, 72, 0
1, 13860, Note_on_c, 1, 74, 127
1, 13919, Note_off_c, 1, 74, 0
1, 13920, Note_on_c, 1, 74, 127
1, 13949, Note_off_c, 1, 74, 0
1, 13950, Note_on_c, 1, 76, 127
1, 13979, Note_off_c, 1, 76, 0
1, 13980, Note_on_c, 1, 77, 127
1, 14039, Note_off_c, 1, 77, 0
1, 14040, Note_on_c, 1, 83, 127
1, 14099, Note_off_c, 1, 83, 0
1, 14100, Note_on_c, 1, 76, 127
1, 14159, Note_off_c, 1, 76, 0
1, 14160, Note_on_c, 1, 84, 127
1, 14189, Note_off_c, 1, 84, 0
1, 14190, Note_on_c, 1, 83, 127
1, 14219, Note_off_c, 1, 83, 0
1, 14220, Note_on_c, 1, 81, 127
1, 14249, Note_off_c, 1, 81, 0
1, 14250, Note_on_c, 1, 79, 127
1, 14279, Note_off_c, 1, 79, 0
1, 14280, Note_on_c, 1, 78, 127
1, 14309, Note_off_c, 1, 78, 0
1, 14310, Note_on_c, 1, 76, 127
1, 14339, Note_off_c, 1, 76, 0
1, 14340, Note_on_c, 1, 75, 127
1, 14369, Note_off_c, 1, 75, 0
1, 14370, Note_on_c, 1, 76, 127
1, 14399, Note_off_c, 1, 76, 0
1, 14400, Note_on_c, 1, 67, 127
1, 14429, Note_off_c, 1, 67, 0
1, 14430, Note_on_c, 1, 83, 127
1, 14459, Note_off_c, 1, 83, 0
1, 14460, Note_on_c, 1, 81, 127
1, 14489, Note_off_c, 1, 81, 0
1, 14490, Note_on_c, 1, 79, 127
1, 14519, Note_off_c, 1, 79, 0
1, 14520, Note_on_c, 1, 78, 127
1, 14549, Note_off_c, 1, 78, 0
1, 14550, Note_on_c, 1, 76, 127
1, 14579, Note_off_c, 1, 76, 0
1, 14580, Note_on_c, 1, 75, 127
1, 14609, Note_off_c, 1, 75, 0
1, 14610, Note_on_c, 1, 76, 127
1, 14639, Note_off_c, 1, 76, 0
1, 14640, Note_on_c, 1, 69, 127
1, 14669, Note_off_c, 1, 69, 0
1, 14670, Note_on_c, 1, 84, 127
1, 14699, Note_off_c, 1, 84, 0
1, 14700, Note_on_c, 1, 83, 127
1, 14729, Note_off_c, 1, 83, 0
1, 14730, Note_on_c, 1, 81, 127
1, 14759, Note_off_c, 1, 81, 0
1, 14760, Note_on_c, 1, 79, 127
1, 14789, Note_off_c, 1, 79, 0
1, 14790, Note_on_c, 1, 78, 127
1, 14819, Note_off_c, 1, 78, 0
1, 14820, Note_on_c, 1, 76, 127
1, 14849, Note_off_c, 1, 76, 0
1, 14850, Note_on_c, 1, 75, 127
1, 14879, Note_off_c, 1, 75, 0
1, 14880, Note_on_c, 1, 67, 127
1, 14909, Note_off_c, 1, 67, 0
1, 14910, Note_on_c, 1, 83, 127
1, 14939, Note_off_c, 1, 83, 0
1, 14940, Note_on_c, 1, 81, 127
1, 14969, Note_off_c, 1, 81, 0
1, 14970, Note_on_c, 1, 79, 127
1, 14999, Note_off_c, 1, 79, 0
1, 15000, Note_on_c, 1, 78, 127
1, 15029, Note_off_c, 1, 78, 0
1, 15030, Note_on_c, 1, 76, 127
1, 15059, Note_off_c, 1, 76, 0
1, 15060, Note_on_c, 1, 75, 127
1, 15089, Note_off_c, 1, 75, 0
1, 15090, Note_on_c, 1, 76, 127
1, 15119, Note_off_c, 1, 76, 0
1, 15120, Note_on_c, 1, 72, 127
1, 15149, Note_off_c, 1, 72, 0
1, 15150, Note_on_c, 1, 71, 127
1, 15179, Note_off_c, 1, 71, 0
1, 15180, Note_on_c, 1, 72, 127
1, 15239, Note_off_c, 1, 72, 0
1, 15240, Note_on_c, 1, 81, 127
1, 15299, Note_off_c, 1, 81, 0
1, 15300, Note_on_c, 1, 78, 127
1, 15359, Note_off_c, 1, 78, 0
1, 15360, Note_on_c, 1, 75, 127
1, 15389, Note_off_c, 1, 75, 0
1, 15390, Note_on_c, 1, 78, 127
1, 15419, Note_off_c, 1, 78, 0
1, 15420, Note_on_c, 1, 71, 127
1, 15479, Note_off_c, 1, 71, 0
1, 15480, Note_on_c, 1, 79, 127
1, 15540, Note_off_c, 1, 79, 0
1, 15540, Note_on_c, 1, 64, 127
1, 15600, Note_off_c, 1, 64, 0
1, 15600, Note_on_c, 1, 69, 127
1, 15629, Note_off_c, 1, 69, 0
1, 15630, Note_on_c, 1, 79, 127
1, 15659, Note_off_c, 1, 79, 0
1, 15660, Note_on_c, 1, 78, 127
1, 15719, Note_off_c, 1, 78, 0
1, 15720, Note_on_c, 1, 71, 127
1, 15749, Note_off_c, 1, 71, 0
1, 15750, Note_on_c, 1, 76, 127
1, 15779, Note_off_c, 1, 76, 0
1, 15780, Note_on_c, 1, 75, 127
1, 15839, Note_off_c, 1, 75, 0
1, 15840, Note_on_c, 1, 76, 127
1, 15899, Note_off_c, 1, 76, 0
1, 15900, Note_on_c, 1, 71, 127
1, 15959, Note_off_c, 1, 71, 0
1, 15960, Note_on_c, 1, 64, 127
1, 16019, Note_off_c, 1, 64, 0
1, 16020, Note_on_c, 1, 76, 127
1, 16049, Note_off_c, 1, 76, 0
1, 16050, Note_on_c, 1, 77, 127
1, 16079, Note_off_c, 1, 77, 0
1, 16080, Note_on_c, 1, 79, 127
1, 16109, Note_off_c, 1, 79, 0
1, 16110, Note_on_c, 1, 77, 127
1, 16139, Note_off_c, 1, 77, 0
1, 16140, Note_on_c, 1, 79, 127
1, 16199, Note_off_c, 1, 79, 0
1, 16200, Note_on_c, 1, 69, 127
1, 16229, Note_off_c, 1, 69, 0
1, 16230, Note_on_c, 1, 73, 127
1, 16259, Note_off_c, 1, 73, 0
1, 16260, Note_on_c, 1, 76, 127
1, 16319, Note_off_c, 1, 76, 0
1, 16320, Note_on_c, 1, 79, 127
1, 16349, Note_off_c, 1, 79, 0
1, 16350, Note_on_c, 1, 76, 127
1, 16379, Note_off_c, 1, 76, 0
1, 16380, Note_on_c, 1, 77, 127
1, 16439, Note_off_c, 1, 77, 0
1, 16440, Note_on_c, 1, 62, 127
1, 16499, Note_off_c, 1, 62, 0
1, 16500, Note_on_c, 1, 74, 127
1, 16529, Note_off_c, 1, 74, 0
1, 16530, Note_on_c, 1, 76, 127
1, 16559, Note_off_c, 1, 76, 0
1, 16560, Note_on_c, 1, 77, 127
1, 16589, Note_off_c, 1, 77, 0
1, 16590, Note_on_c, 1, 76, 127
1, 16619, Note_off_c, 1, 76, 0
1, 16620, Note_on_c, 1, 77, 127
1, 16679, Note_off_c, 1, 77, 0
1, 16680, Note_on_c, 1, 67, 127
1, 16709, Note_off_c, 1, 67, 0
1, 16710, Note_on_c, 1, 71, 127
1, 16739, Note_off_c, 1, 71, 0
1, 16740, Note_on_c, 1, 74, 127
1, 16799, Note_off_c, 1, 74, 0
1, 16800, Note_on_c, 1, 77, 127
1, 16829, Note_off_c, 1, 77, 0
1, 16830, Note_on_c, 1, 74, 127
1, 16859, Note_off_c, 1, 74, 0
1, 16860, Note_on_c, 1, 76, 127
1, 16919, Note_off_c, 1, 76, 0
1, 16920, Note_on_c, 1, 60, 127
1, 16979, Note_off_c, 1, 60, 0
1, 16980, Note_on_c, 1, 81, 127
1, 17039, Note_off_c, 1, 81, 0
1, 17040, Note_on_c, 1, 80, 127
1, 17069, Note_off_c, 1, 80, 0
1, 17070, Note_on_c, 1, 79, 127
1, 17099, Note_off_c, 1, 79, 0
1, 17100, Note_on_c, 1, 73, 127
1, 17129, Note_off_c, 1, 73, 0
1, 17130, Note_on_c, 1, 79, 127
1, 17159, Note_off_c, 1, 79, 0
1, 17160, Note_on_c, 1, 78, 127
1, 17189, Note_off_c, 1, 78, 0
1, 17190, Note_on_c, 1, 77, 127
1, 17219, Note_off_c, 1, 77, 0
1, 17220, Note_on_c, 1, 71, 127
1, 17249, Note_off_c, 1, 71, 0
1, 17250, Note_on_c, 1, 77, 127
1, 17279, Note_off_c, 1, 77, 0
1, 17280, Note_on_c, 1, 76, 127
1, 17340, Note_off_c, 1, 76, 0
1, 17340, Note_on_c, 1, 77, 127
1, 17369, Note_off_c, 1, 77, 0
1, 17370, Note_on_c, 1, 76, 127
1, 17399, Note_off_c, 1, 76, 0
1, 17400, Note_on_c, 1, 74, 127
1, 17429, Note_off_c, 1, 74, 0
1, 17430, Note_on_c, 1, 72, 127
1, 17459, Note_off_c, 1, 72, 0
1, 17460, Note_on_c, 1, 71, 127
1, 17489, Note_off_c, 1, 71, 0
1, 17490, Note_on_c, 1, 69, 127
1, 17519, Note_off_c, 1, 69, 0
1, 17520, Note_on_c, 1, 68, 127
1, 17579, Note_off_c, 1, 68, 0
1, 17580, Note_on_c, 1, 66, 127
1, 17609, Note_off_c, 1, 66, 0
1, 17610, Note_on_c, 1, 68, 127
1, 17639, Note_off_c, 1, 68, 0
1, 17640, Note_on_c, 1, 64, 127
1, 17700, Note_off_c, 1, 64, 0
1, 17700, Note_on_c, 1, 76, 127
1, 17760, Note_off_c, 1, 76, 0
1, 17760, Note_on_c, 1, 69, 127
1, 17789, Note_off_c, 1, 69, 0
1, 17790, Note_on_c, 1, 71, 127
1, 17819, Note_off_c, 1, 71, 0
1, 17820, Note_on_c, 1, 72, 127
1, 17879, Note_off_c, 1, 72, 0
1, 17880, Note_on_c, 1, 71, 127
1, 17909, Note_off_c, 1, 71, 0
1, 17910, Note_on_c, 1, 69, 127
1, 17939, Note_off_c, 1, 69, 0
1, 17940, Note_on_c, 1, 68, 127
1, 17999, Note_off_c, 1, 68, 0
1, 18000, Note_on_c, 1, 69, 127
1, 18059, Note_off_c, 1, 69, 0
1, 18060, Note_on_c, 1, 76, 127
1, 18119, Note_off_c, 1, 76, 0
1, 18120, Note_on_c, 1, 76, 127
1, 18239, Note_off_c, 1, 76, 0
1, 18240, Note_on_c, 1, 64, 127
1, 18269, Note_off_c, 1, 64, 0
1, 18270, Note_on_c, 1, 65, 127
1, 18299, Note_off_c, 1, 65, 0
1, 18300, Note_on_c, 1, 64, 127
1, 18329, Note_off_c, 1, 64, 0
1, 18330, Note_on_c, 1, 76, 127
1, 18359, Note_off_c, 1, 76, 0
1, 18360, Note_on_c, 1, 64, 127
1, 18389, Note_off_c, 1, 64, 0
1, 18390, Note_on_c, 1, 65, 127
1, 18419, Note_off_c, 1, 65, 0
1, 18420, Note_on_c, 1, 64, 127
1, 18449, Note_off_c, 1, 64, 0
1, 18450, Note_on_c, 1, 74, 127
1, 18479, Note_off_c, 1, 74, 0
1, 18480, Note_on_c, 1, 64, 127
1, 18509, Note_off_c, 1, 64, 0
1, 18510, Note_on_c, 1, 65, 127
1, 18539, Note_off_c, 1, 65, 0
1, 18540, Note_on_c, 1, 64, 127
1, 18569, Note_off_c, 1, 64, 0
1, 18570, Note_on_c, 1, 72, 127
1, 18599, Note_off_c, 1, 72, 0
1, 18600, Note_on_c, 1, 71, 127
1, 18629, Note_off_c, 1, 71, 0
1, 18630, Note_on_c, 1, 68, 127
1, 18659, Note_off_c, 1, 68, 0
1, 18660, Note_on_c, 1, 76, 127
1, 18719, Note_off_c, 1, 76, 0
1, 18720, Note_on_c, 1, 72, 127
1, 18749, Note_off_c, 1, 72, 0
1, 18750, Note_on_c, 1, 69, 127
1, 18779, Note_off_c, 1, 69, 0
1, 18780, Note_on_c, 1, 78, 127
1, 18839, Note_off_c, 1, 78, 0
1, 18840, Note_on_c, 1, 74, 127
1, 18869, Note_off_c, 1, 74, 0
1, 18870, Note_on_c, 1, 71, 127
1, 18899, Note_off_c, 1, 71, 0
1, 18900, Note_on_c, 1, 80, 127
1, 18959, Note_off_c, 1, 80, 0
1, 18960, Note_on_c, 1, 76, 127
1, 18989, Note_off_c, 1, 76, 0
1, 18990, Note_on_c, 1, 72, 127
1, 19019, Note_off_c, 1, 72, 0
1, 19020, Note_on_c, 1, 81, 127
1, 19169, Note_off_c, 1, 81, 0
1, 19170, Note_on_c, 1, 76, 127
1, 19199, Note_off_c, 1, 76, 0
1, 19200, Note_on_c, 1, 74, 127
1, 19229, Note_off_c, 1, 74, 0
1, 19230, Note_on_c, 1, 72, 127
1, 19259, Note_off_c, 1, 72, 0
1, 19260, Note_on_c, 1, 71, 127
1, 19289, Note_off_c, 1, 71, 0
1, 19290, Note_on_c, 1, 69, 127
1, 19319, Note_off_c, 1, 69, 0
1, 19320, Note_on_c, 1, 64, 127
1, 19379, Note_off_c, 1, 64, 0
1, 19380, Note_on_c, 1, 69, 127
1, 19409, Note_off_c, 1, 69, 0
1, 19410, Note_on_c, 1, 68, 127
1, 19439, Note_off_c, 1, 68, 0
1, 19440, Note_on_c, 1, 69, 127
1, 19469, Note_off_c, 1, 69, 0
1, 19470, Note_on_c, 1, 72, 127
1, 19499, Note_off_c, 1, 72, 0
1, 19500, Note_on_c, 1, 76, 127
1, 19559, Note_off_c, 1, 76, 0
1, 19560, Note_on_c, 1, 76, 127
1, 19589, Note_off_c, 1, 76, 0
1, 19590, Note_on_c, 1, 75, 127
1, 19619, Note_off_c, 1, 75, 0
1, 19620, Note_on_c, 1, 76, 127
1, 19679, Note_off_c, 1, 76, 0
1, 19680, Note_on_c, 1, 81, 127
1, 19739, Note_off_c, 1, 81, 0
1, 19740, Note_on_c, 1, 74, 127
1, 19799, Note_off_c, 1, 74, 0
1, 19800, Note_on_c, 1, 73, 127
1, 19859, Note_off_c, 1, 73, 0
1, 19860, Note_on_c, 1, 79, 127
1, 19919, Note_off_c, 1, 79, 0
1, 19920, Note_on_c, 1, 78, 127
1, 19979, Note_off_c, 1, 78, 0
1, 19980, Note_on_c, 1, 72, 127
1, 20039, Note_off_c, 1, 72, 0
1, 20040, Note_on_c, 1, 71, 127
1, 20099, Note_off_c, 1, 71, 0
1, 20100, Note_on_c, 1, 77, 127
1, 20159, Note_off_c, 1, 77, 0
1, 20160, Note_on_c, 1, 76, 127
1, 20219, Note_off_c, 1, 76, 0
1, 20220, Note_on_c, 1, 77, 127
1, 20249, Note_off_c, 1, 77, 0
1, 20250, Note_on_c, 1, 76, 127
1, 20279, Note_off_c, 1, 76, 0
1, 20280, Note_on_c, 1, 74, 127
1, 20309, Note_off_c, 1, 74, 0
1, 20310, Note_on_c, 1, 72, 127
1, 20339, Note_off_c, 1, 72, 0
1, 20340, Note_on_c, 1, 71, 127
1, 20369, Note_off_c, 1, 71, 0
1, 20370, Note_on_c, 1, 69, 127
1, 20399, Note_off_c, 1, 69, 0
1, 20400, Note_on_c, 1, 68, 127
1, 20429, Note_off_c, 1, 68, 0
1, 20430, Note_on_c, 1, 69, 127
1, 20459, Note_off_c, 1, 69, 0
1, 20460, Note_on_c, 1, 71, 127
1, 20489, Note_off_c, 1, 71, 0
1, 20490, Note_on_c, 1, 68, 127
1, 20519, Note_off_c, 1, 68, 0
1, 20520, Note_on_c, 1, 64, 127
1, 20549, Note_off_c, 1, 64, 0
1, 20550, Note_on_c, 1, 66, 127
1, 20579, Note_off_c, 1, 66, 0
1, 20580, Note_on_c, 1, 68, 127
1, 20610, Note_off_c, 1, 68, 0
1, 20610, Note_on_c, 1, 69, 127
1, 20640, Note_off_c, 1, 69, 0
1, 20640, Note_on_c, 1, 71, 127
1, 20669, Note_off_c, 1, 71, 0
1, 20670, Note_on_c, 1, 68, 127
1, 20699, Note_off_c, 1, 68, 0
1, 20700, Note_on_c, 1, 71, 127
1, 20729, Note_off_c, 1, 71, 0
1, 20730, Note_on_c, 1, 74, 127
1, 20759, Note_off_c, 1, 74, 0
1, 20760, Note_on_c, 1, 74, 127
1, 20789, Note_off_c, 1, 74, 0
1, 20790, Note_on_c, 1, 71, 127
1, 20819, Note_off_c, 1, 71, 0
1, 20820, Note_on_c, 1, 74, 127
1, 20849, Note_off_c, 1, 74, 0
1, 20850, Note_on_c, 1, 77, 127
1, 20879, Note_off_c, 1, 77, 0
1, 20880, Note_on_c, 1, 77, 127
1, 20909, Note_off_c, 1, 77, 0
1, 20910, Note_on_c, 1, 74, 127
1, 20939, Note_off_c, 1, 74, 0
1, 20940, Note_on_c, 1, 77, 127
1, 20969, Note_off_c, 1, 77, 0
1, 20970, Note_on_c, 1, 80, 127
1, 20999, Note_off_c, 1, 80, 0
1, 21000, Note_on_c, 1, 80, 127
1, 21029, Note_off_c, 1, 80, 0
1, 21030, Note_on_c, 1, 83, 127
1, 21059, Note_off_c, 1, 83, 0
1, 21060, Note_on_c, 1, 76, 127
1, 21120, Note_off_c, 1, 76, 0
1, 21120, Note_on_c, 1, 84, 127
1, 21180, Note_off_c, 1, 84, 0
1, 21180, Note_on_c, 1, 83, 127
1, 21210, Note_off_c, 1, 83, 0
1, 21210, Note_on_c, 1, 81, 127
1, 21240, Note_off_c, 1, 81, 0
1, 21330, Note_on_c, 1, 80, 127
1, 21360, Note_off_c, 1, 80, 0
1, 21360, End_track
0, 0, End_of_file