0, 0, Header, 1, 1, 480
1, 0, Start_track
1, 0, Title_t, "Test"
1, 0, Tempo, 500000
1, 0, Instrument_name_t, "Church Organ"
1, 465, Note_on_c, 1, 60, 127
1, 467, Note_on_c, 1, 76, 127
1, 469, Note_on_c, 1, 67, 127
1, 478, Note_on_c, 1, 72, 127
1, 544, Note_off_c, 1, 72, 0
1, 552, Note_off_c, 1, 76, 0
1, 553, Note_off_c, 1, 67, 0
1, 569, Note_off_c, 1, 60, 0
1, 700, Note_on_c, 1, 77, 127
1, 700, Note_on_c, 1, 69, 127
1, 700, Note_on_c, 1, 57, 127
1, 710, Note_on_c, 1, 72, 127
1, 779, Note_off_c, 1, 72, 0
1, 789, Note_off_c, 1, 57, 0
1, 791, Note_off_c, 1, 77, 0
1, 801, Note_off_c, 1, 69, 0
1, 935, Note_on_c, 1, 67, 127
1, 946, Note_on_c, 1, 79, 127
1, 953, Note_on_c, 1, 72, 127
1, 955, Note_on_c, 1, 52, 127
1, 1116, Note_off_c, 1, 67, 0
1, 1139, Note_off_c, 1, 72, 0
1, 1141, Note_off_c, 1, 52, 0
1, 1146, Note_off_c, 1, 79, 0
1, 1169, Note_on_c, 1, 71, 127
1, 1180, Note_on_c, 1, 81, 127
1, 1185, Note_on_c, 1, 65, 127
1, 1195, Note_on_c, 1, 50, 127
1, 1262, Note_off_c, 1, 81, 0
1, 1264, Note_off_c, 1, 71, 0
1, 1272, Note_off_c, 1, 65, 0
1, 1284, Note_on_c, 1, 77, 127
1, 1292, Note_off_c, 1, 50, 0
1, 1375, Note_off_c, 1, 77, 0
1, 1417, Note_on_c, 1, 72, 127
1, 1418, Note_on_c, 1, 64, 127
1, 1426, Note_on_c, 1, 79, 127
1, 1426, Note_on_c, 1, 52, 127
1, 1495, Note_off_c, 1, 72, 0
1, 1498, Note_off_c, 1, 64, 0
1, 1513, Note_off_c, 1, 79, 0
1, 1522, Note_off_c, 1, 52, 0
1, 1663, Note_on_c, 1, 64, 127
1, 1665, Note_on_c, 1, 72, 127
1, 1672, Note_on_c, 1, 57, 127
1, 1732, Note_off_c, 1, 64, 0
1, 1744, Note_off_c, 1, 57, 0
1, 1750, Note_off_c, 1, 72, 0
1, 1777, Note_on_c, 1, 55, 127
1, 1839, Note_off_c, 1, 55, 0
1, 1908, Note_on_c, 1, 65, 127
1, 1911, Note_on_c, 1, 81, 127
1, 1912, Note_on_c, 1, 53, 127
1, 1922, Note_on_c, 1, 72, 127
1, 2100, Note_off_c, 1, 53, 0
1, 2112, Note_off_c, 1, 81, 0
1, 2115, Note_off_c, 1, 65, 0
1, 2129, Note_off_c, 1, 72, 0
1, 2134, Note_on_c, 1, 50, 127
1, 2137, Note_on_c, 1, 69, 127
1, 2146, Note_on_c, 1, 74, 127
1, 2150, Note_on_c, 1, 77, 127
1, 2235, Note_off_c, 1, 69, 0
1, 2238, Note_off_c, 1, 50, 0
1, 2248, Note_off_c, 1, 74, 0
1, 2250, Note_off_c, 1, 77, 0
1, 2379, Note_on_c, 1, 71, 127
1, 2383, Note_on_c, 1, 74, 127
1, 2386, Note_on_c, 1, 67, 127
1, 2386, Note_on_c, 1, 55, 127
1, 2457, Note_off_c, 1, 71, 0
1, 2458, Note_off_c, 1, 67, 0
1, 2473, Note_off_c, 1, 74, 0
1, 2559, Note_off_c, 1, 55, 0
1, 2624, Note_on_c, 1, 72, 127
1, 2624, Note_on_c, 1, 53, 127
1, 2628, Note_on_c, 1, 76, 127
1, 2628, Note_on_c, 1, 67, 127
1, 2699, Note_off_c, 1, 72, 0
1, 2707, Note_off_c, 1, 53, 0
1, 2713, Note_off_c, 1, 67, 0
1, 2730, Note_off_c, 1, 76, 0
1, 2736, Note_on_c, 1, 52, 127
1, 2822, Note_off_c, 1, 52, 0
1, 2864, Note_on_c, 1, 74, 127
1, 2864, Note_on_c, 1, 50, 127
1, 2866, Note_on_c, 1, 69, 127
1, 2868, Note_on_c, 1, 77, 127
1, 2961, Note_off_c, 1, 69, 0
1, 2966, Note_off_c, 1, 50, 0
1, 3072, Note_off_c, 1, 74, 0
1, 3076, Note_off_c, 1, 77, 0
1, 3105, Note_on_c, 1, 79, 127
1, 3105, Note_on_c, 1, 48, 127
1, 3109, Note_on_c, 1, 69, 127
1, 3116, Note_on_c, 1, 76, 127
1, 3194, Note_off_c, 1, 79, 0
1, 3194, Note_off_c, 1, 76, 0
1, 3204, Note_off_c, 1, 48, 0
1, 3208, Note_off_c, 1, 69, 0
1, 3214, Note_on_c, 1, 76, 127
1, 3226, Note_on_c, 1, 72, 127
1, 3290, Note_off_c, 1, 72, 0
1, 3302, Note_off_c, 1, 76, 0
1, 3332, Note_on_c, 1, 77, 127
1, 3342, Note_on_c, 1, 74, 127
1, 3347, Note_on_c, 1, 47, 127
1, 3352, Note_on_c, 1, 67, 127
1, 3432, Note_off_c, 1, 77, 0
1, 3434, Note_off_c, 1, 74, 0
1, 3443, Note_off_c, 1, 47, 0
1, 3443, Note_off_c, 1, 67, 0
1, 3578, Note_on_c, 1, 79, 127
1, 3579, Note_on_c, 1, 43, 127
1, 3583, Note_on_c, 1, 71, 127
1, 3595, Note_on_c, 1, 67, 127
1, 3660, Note_off_c, 1, 71, 0
1, 3675, Note_off_c, 1, 67, 0
1, 3684, Note_off_c, 1, 43, 0
1, 3692, Note_off_c, 1, 79, 0
1, 3813, Note_on_c, 1, 77, 127
1, 3823, Note_on_c, 1, 72, 127
1, 3826, Note_on_c, 1, 48, 127
1, 3840, Note_on_c, 1, 67, 127
1, 3862, Note_on_c, 1, 76, 127
1, 3884, Note_off_c, 1, 77, 0
1, 3927, Note_off_c, 1, 76, 0
1, 3941, Note_off_c, 1, 48, 0
1, 4055, Note_on_c, 1, 74, 127
1, 4069, Note_on_c, 1, 55, 127
1, 4162, Note_off_c, 1, 72, 0
1, 4163, Note_off_c, 1, 55, 0
1, 4182, Note_off_c, 1, 74, 0
1, 4190, Note_off_c, 1, 67, 0
1, 4296, Note_on_c, 1, 77, 127
1, 4297, Note_on_c, 1, 67, 127
1, 4303, Note_on_c, 1, 60, 127
1, 4385, Note_off_c, 1, 67, 0
1, 4398, Note_off_c, 1, 60, 0
1, 4415, Note_on_c, 1, 76, 127
1, 4429, Note_off_c, 1, 77, 0
1, 4537, Note_on_c, 1, 69, 127
1, 4537, Note_on_c, 1, 74, 127
1, 4537, Note_on_c, 1, 57, 127
1, 4540, Note_on_c, 1, 64, 127
1, 4546, Note_off_c, 1, 76, 0
1, 4628, Note_off_c, 1, 69, 0
1, 4637, Note_off_c, 1, 64, 0
1, 4645, Note_off_c, 1, 57, 0
1, 4653, Note_on_c, 1, 72, 127
1, 4664, Note_off_c, 1, 74, 0
1, 4745, Note_off_c, 1, 72, 0
1, 4780, Note_on_c, 1, 68, 127
1, 4785, Note_on_c, 1, 74, 127
1, 4788, Note_on_c, 1, 62, 127
1, 4788, Note_on_c, 1, 59, 127
1, 4893, Note_off_c, 1, 62, 0
1, 4908, Note_off_c, 1, 59, 0
1, 4938, Note_off_c, 1, 68, 0
1, 5004, Note_off_c, 1, 74, 0
1, 5024, Note_on_c, 1, 69, 127
1, 5026, Note_on_c, 1, 76, 127
1, 5030, Note_on_c, 1, 57, 127
1, 5037, Note_on_c, 1, 60, 127
1, 5103, Note_off_c, 1, 76, 0
1, 5121, Note_off_c, 1, 69, 0
1, 5125, Note_off_c, 1, 60, 0
1, 5129, Note_off_c, 1, 57, 0
1, 5131, Note_on_c, 1, 72, 127
1, 5217, Note_off_c, 1, 72, 0
1, 5249, Note_on_c, 1, 74, 127
1, 5259, Note_on_c, 1, 64, 127
1, 5265, Note_on_c, 1, 56, 127
1, 5278, Note_on_c, 1, 59, 127
1, 5345, Note_off_c, 1, 64, 0
1, 5352, Note_off_c, 1, 74, 0
1, 5357, Note_off_c, 1, 56, 0
1, 5357, Note_on_c, 1, 71, 127
1, 5367, Note_off_c, 1, 59, 0
1, 5450, Note_off_c, 1, 71, 0
1, 5492, Note_on_c, 1, 76, 127
1, 5492, Note_on_c, 1, 68, 127
1, 5505, Note_on_c, 1, 52, 127
1, 5512, Note_on_c, 1, 59, 127
1, 5600, Note_off_c, 1, 52, 0
1, 5600, Note_off_c, 1, 59, 0
1, 5604, Note_off_c, 1, 68, 0
1, 5625, Note_off_c, 1, 76, 0
1, 5733, Note_on_c, 1, 74, 127
1, 5738, Note_on_c, 1, 69, 127
1, 5743, Note_on_c, 1, 57, 127
1, 5783, Note_on_c, 1, 72, 127
1, 5812, Note_off_c, 1, 74, 0
1, 5851, Note_off_c, 1, 72, 0
1, 5855, Note_off_c, 1, 57, 0
1, 5894, Note_off_c, 1, 69, 0
1, 5972, Note_on_c, 1, 64, 127
1, 5972, Note_on_c, 1, 60, 127
1, 5973, Note_on_c, 1, 55, 127
1, 5975, Note_on_c, 1, 71, 127
1, 6067, Note_off_c, 1, 64, 0
1, 6072, Note_off_c, 1, 60, 0
1, 6081, Note_off_c, 1, 71, 0
1, 6083, Note_off_c, 1, 55, 0
1, 6090, Note_on_c, 1, 69, 127
1, 6170, Note_off_c, 1, 69, 0
1, 6205, Note_on_c, 1, 69, 127
1, 6215, Note_on_c, 1, 54, 127
1, 6216, Note_on_c, 1, 74, 127
1, 6222, Note_on_c, 1, 57, 127
1, 6319, Note_off_c, 1, 54, 0
1, 6320, Note_off_c, 1, 57, 0
1, 6326, Note_off_c, 1, 69, 0
1, 6326, Note_on_c, 1, 72, 127
1, 6370, Note_off_c, 1, 74, 0
1, 6455, Note_on_c, 1, 71, 127
1, 6456, Note_on_c, 1, 66, 127
1, 6457, Note_on_c, 1, 50, 127
1, 6461, Note_on_c, 1, 62, 127
1, 6466, Note_off_c, 1, 72, 0
1, 6546, Note_off_c, 1, 50, 0
1, 6549, Note_off_c, 1, 62, 0
1, 6574, Note_off_c, 1, 66, 0
1, 6591, Note_off_c, 1, 71, 0
1, 6698, Note_on_c, 1, 74, 127
1, 6703, Note_on_c, 1, 62, 127
1, 6703, Note_on_c, 1, 48, 127
1, 6708, Note_on_c, 1, 67, 127
1, 6785, Note_off_c, 1, 74, 0
1, 6807, Note_off_c, 1, 62, 0
1, 6813, Note_off_c, 1, 67, 0
1, 6817, Note_on_c, 1, 47, 127
1, 6847, Note_off_c, 1, 48, 0
1, 6935, Note_on_c, 1, 45, 127
1, 6945, Note_on_c, 1, 79, 127
1, 6947, Note_on_c, 1, 71, 127
1, 6949, Note_off_c, 1, 47, 0
1, 7037, Note_off_c, 1, 79, 0
1, 7049, Note_off_c, 1, 45, 0
1, 7049, Note_on_c, 1, 43, 127
1, 7057, Note_off_c, 1, 71, 0
1, 7145, Note_off_c, 1, 43, 0
1, 7176, Note_on_c, 1, 50, 127
1, 7183, Note_on_c, 1, 72, 127
1, 7184, Note_on_c, 1, 62, 127
1, 7188, Note_on_c, 1, 67, 127
1, 7227, Note_on_c, 1, 71, 127
1, 7249, Note_off_c, 1, 72, 0
1, 7275, Note_off_c, 1, 50, 0
1, 7283, Note_off_c, 1, 62, 0
1, 7289, Note_off_c, 1, 67, 0
1, 7295, Note_off_c, 1, 71, 0
1, 7422, Note_on_c, 1, 69, 127
1, 7426, Note_on_c, 1, 66, 127
1, 7430, Note_on_c, 1, 38, 127
1, 7433, Note_on_c, 1, 60, 127
1, 7517, Note_off_c, 1, 66, 0
1, 7524, Note_off_c, 1, 69, 0
1, 7524, Note_off_c, 1, 60, 0
1, 7527, Note_off_c, 1, 38, 0
1, 7533, Note_on_c, 1, 67, 127
1, 7606, Note_off_c, 1, 67, 0
1, 7672, Note_on_c, 1, 59, 127
1, 7672, Note_on_c, 1, 67, 127
1, 7680, Note_on_c, 1, 62, 127
1, 7690, Note_on_c, 1, 43, 127
1, 7970, Note_off_c, 1, 62, 0
1, 7984, Note_off_c, 1, 67, 0
1, 7988, Note_off_c, 1, 59, 0
1, 8004, Note_off_c, 1, 43, 0
1, 8145, Note_on_c, 1, 60, 127
1, 8148, Note_on_c, 1, 67, 127
1, 8150, Note_on_c, 1, 76, 127
1, 8165, Note_on_c, 1, 72, 127
1, 8234, Note_off_c, 1, 67, 0
1, 8235, Note_off_c, 1, 76, 0
1, 8241, Note_off_c, 1, 60, 0
1, 8241, Note_off_c, 1, 72, 0
1, 8387, Note_on_c, 1, 77, 127
1, 8388, Note_on_c, 1, 57, 127
1, 8391, Note_on_c, 1, 69, 127
1, 8405, Note_on_c, 1, 72, 127
1, 8477, Note_off_c, 1, 57, 0
1, 8483, Note_off_c, 1, 69, 0
1, 8487, Note_off_c, 1, 77, 0
1, 8492, Note_off_c, 1, 72, 0
1, 8626, Note_on_c, 1, 67, 127
1, 8628, Note_on_c, 1, 79, 127
1, 8636, Note_on_c, 1, 52, 127
1, 8637, Note_on_c, 1, 72, 127
1, 8824, Note_off_c, 1, 67, 0
1, 8829, Note_off_c, 1, 72, 0
1, 8844, Note_off_c, 1, 52, 0
1, 8852, Note_off_c, 1, 79, 0
1, 8865, Note_on_c, 1, 81, 127
1, 8866, Note_on_c, 1, 71, 127
1, 8869, Note_on_c, 1, 65, 127
1, 8870, Note_on_c, 1, 50, 127
1, 8948, Note_off_c, 1, 81, 0
1, 8958, Note_off_c, 1, 71, 0
1, 8964, Note_off_c, 1, 65, 0
1, 8973, Note_off_c, 1, 50, 0
1, 8977, Note_on_c, 1, 77, 127
1, 9050, Note_off_c, 1, 77, 0
1, 9098, Note_on_c, 1, 64, 127
1, 9108, Note_on_c, 1, 52, 127
1, 9109, Note_on_c, 1, 79, 127
1, 9115, Note_on_c, 1, 72, 127
1, 9186, Note_off_c, 1, 64, 0
1, 9202, Note_off_c, 1, 79, 0
1, 9202, Note_off_c, 1, 72, 0
1, 9217, Note_off_c, 1, 52, 0
1, 9347, Note_on_c, 1, 72, 127
1, 9351, Note_on_c, 1, 64, 127
1, 9354, Note_on_c, 1, 57, 127
1, 9436, Note_off_c, 1, 64, 0
1, 9436, Note_off_c, 1, 57, 0
1, 9444, Note_off_c, 1, 72, 0
1, 9464, Note_on_c, 1, 55, 127
1, 9543, Note_off_c, 1, 55, 0
1, 9585, Note_on_c, 1, 81, 127
1, 9586, Note_on_c, 1, 53, 127
1, 9590, Note_on_c, 1, 65, 127
1, 9602, Note_on_c, 1, 72, 127
1, 9789, Note_off_c, 1, 81, 0
1, 9789, Note_off_c, 1, 53, 0
1, 9792, Note_off_c, 1, 72, 0
1, 9799, Note_on_c, 1, 50, 127
1, 9808, Note_off_c, 1, 65, 0
1, 9816, Note_on_c, 1, 69, 127
1, 9822, Note_on_c, 1, 77, 127
1, 9824, Note_on_c, 1, 74, 127
1, 9907, Note_off_c, 1, 50, 0
1, 9919, Note_off_c, 1, 77, 0
1, 9923, Note_off_c, 1, 74, 0
1, 9927, Note_off_c, 1, 69, 0
1, 10056, Note_on_c, 1, 55, 127
1, 10058, Note_on_c, 1, 71, 127
1, 10058, Note_on_c, 1, 67, 127
1, 10066, Note_on_c, 1, 74, 127
1, 10139, Note_off_c, 1, 71, 0
1, 10143, Note_off_c, 1, 67, 0
1, 10165, Note_off_c, 1, 74, 0
1, 10175, Note_off_c, 1, 55, 0
1, 10300, Note_on_c, 1, 76, 127
1, 10302, Note_on_c, 1, 53, 127
1, 10305, Note_on_c, 1, 72, 127
1, 10312, Note_on_c, 1, 67, 127
1, 10378, Note_off_c, 1, 53, 0
1, 10385, Note_off_c, 1, 72, 0
1, 10410, Note_off_c, 1, 76, 0
1, 10411, Note_off_c, 1, 67, 0
1, 10411, Note_on_c, 1, 52, 127
1, 10490, Note_off_c, 1, 52, 0
1, 10532, Note_on_c, 1, 50, 127
1, 10547, Note_on_c, 1, 77, 127
1, 10547, Note_on_c, 1, 69, 127
1, 10549, Note_on_c, 1, 74, 127
1, 10653, Note_off_c, 1, 50, 0
1, 10728, Note_off_c, 1, 69, 0
1, 10742, Note_off_c, 1, 74, 0
1, 10760, Note_off_c, 1, 77, 0
1, 10776, Note_on_c, 1, 48, 127
1, 10780, Note_on_c, 1, 69, 127
1, 10784, Note_on_c, 1, 79, 127
1, 10788, Note_on_c, 1, 76, 127
1, 10860, Note_off_c, 1, 76, 0
1, 10876, Note_off_c, 1, 79, 0
1, 10885, Note_off_c, 1, 48, 0
1, 10888, Note_off_c, 1, 69, 0
1, 10891, Note_on_c, 1, 76, 127
1, 10899, Note_on_c, 1, 72, 127
1, 10960, Note_off_c, 1, 72, 0
1, 10973, Note_off_c, 1, 76, 0
1, 11013, Note_on_c, 1, 77, 127
1, 11015, Note_on_c, 1, 47, 127
1, 11023, Note_on_c, 1, 67, 127
1, 11025, Note_on_c, 1, 74, 127
1, 11103, Note_off_c, 1, 77, 0
1, 11120, Note_off_c, 1, 67, 0
1, 11120, Note_off_c, 1, 74, 0
1, 11127, Note_off_c, 1, 47, 0
1, 11251, Note_on_c, 1, 43, 127
1, 11255, Note_on_c, 1, 71, 127
1, 11256, Note_on_c, 1, 79, 127
1, 11269, Note_on_c, 1, 67, 127
1, 11341, Note_off_c, 1, 71, 0
1, 11356, Note_off_c, 1, 43, 0
1, 11356, Note_off_c, 1, 67, 0
1, 11364, Note_off_c, 1, 79, 0
1, 11503, Note_on_c, 1, 77, 127
1, 11503, Note_on_c, 1, 48, 127
1, 11504, Note_on_c, 1, 67, 127
1, 11514, Note_on_c, 1, 72, 127
1, 11549, Note_on_c, 1, 76, 127
1, 11561, Note_off_c, 1, 77, 0
1, 11606, Note_off_c, 1, 76, 0
1, 11640, Note_off_c, 1, 48, 0
1, 11737, Note_on_c, 1, 74, 127
1, 11745, Note_on_c, 1, 55, 127
1, 11847, Note_off_c, 1, 55, 0
1, 11854, Note_off_c, 1, 74, 0
1, 11863, Note_off_c, 1, 67, 0
1, 11948, Note_off_c, 1, 72, 0
1, 11978, Note_on_c, 1, 77, 127
1, 11979, Note_on_c, 1, 67, 127
1, 11981, Note_on_c, 1, 60, 127
1, 12061, Note_off_c, 1, 67, 0
1, 12089, Note_off_c, 1, 60, 0
1, 12092, Note_on_c, 1, 76, 127
1, 12106, Note_off_c, 1, 77, 0
1, 12217, Note_on_c, 1, 74, 127
1, 12220, Note_off_c, 1, 76, 0
1, 12223, Note_on_c, 1, 64, 127
1, 12226, Note_on_c, 1, 57, 127
1, 12228, Note_on_c, 1, 69, 127
1, 12318, Note_off_c, 1, 69, 0
1, 12325, Note_on_c, 1, 72, 127
1, 12328, Note_off_c, 1, 64, 0
1, 12328, Note_off_c, 1, 57, 0
1, 12334, Note_off_c, 1, 74, 0
1, 12414, Note_off_c, 1, 72, 0
1, 12457, Note_on_c, 1, 59, 127
1, 12460, Note_on_c, 1, 68, 127
1, 12464, Note_on_c, 1, 74, 127
1, 12465, Note_on_c, 1, 62, 127
1, 12574, Note_off_c, 1, 68, 0
1, 12576, Note_off_c, 1, 59, 0
1, 12626, Note_off_c, 1, 62, 0
1, 12669, Note_off_c, 1, 74, 0
1, 12698, Note_on_c, 1, 76, 127
1, 12702, Note_on_c, 1, 60, 127
1, 12703, Note_on_c, 1, 57, 127
1, 12711, Note_on_c, 1, 69, 127
1, 12790, Note_off_c, 1, 76, 0
1, 12792, Note_off_c, 1, 69, 0
1, 12807, Note_off_c, 1, 60, 0
1, 12813, Note_off_c, 1, 57, 0
1, 12813, Note_on_c, 1, 72, 127
1, 12888, Note_off_c, 1, 72, 0
1, 12931, Note_on_c, 1, 74, 127
1, 12932, Note_on_c, 1, 59, 127
1, 12938, Note_on_c, 1, 56, 127
1, 12957, Note_on_c, 1, 64, 127
1, 13032, Note_off_c, 1, 56, 0
1, 13033, Note_off_c, 1, 59, 0
1, 13038, Note_off_c, 1, 74, 0
1, 13040, Note_off_c, 1, 64, 0
1, 13046, Note_on_c, 1, 71, 127
1, 13136, Note_off_c, 1, 71, 0
1, 13180, Note_on_c, 1, 59, 127
1, 13180, Note_on_c, 1, 76, 127
1, 13182, Note_on_c, 1, 52, 127
1, 13188, Note_on_c, 1, 68, 127
1, 13278, Note_off_c, 1, 52, 0
1, 13280, Note_off_c, 1, 68, 0
1, 13284, Note_off_c, 1, 76, 0
1, 13296, Note_off_c, 1, 59, 0
1, 13420, Note_on_c, 1, 74, 127
1, 13421, Note_on_c, 1, 57, 127
1, 13430, Note_on_c, 1, 69, 127
1, 13463, Note_on_c, 1, 72, 127
1, 13487, Note_off_c, 1, 74, 0
1, 13520, Note_off_c, 1, 72, 0
1, 13559, Note_off_c, 1, 57, 0
1, 13605, Note_off_c, 1, 69, 0
1, 13654, Note_on_c, 1, 71, 127
1, 13661, Note_on_c, 1, 55, 127
1, 13666, Note_on_c, 1, 60, 127
1, 13668, Note_on_c, 1, 64, 127
1, 13752, Note_off_c, 1, 64, 0
1, 13762, Note_off_c, 1, 71, 0
1, 13769, Note_off_c, 1, 55, 0
1, 13774, Note_off_c, 1, 60, 0
1, 13897, Note_on_c, 1, 74, 127
1, 13902, Note_on_c, 1, 69, 127
1, 13903, Note_on_c, 1, 57, 127
1, 13903, Note_on_c, 1, 54, 127
1, 13990, Note_off_c, 1, 69, 0
1, 14004, Note_off_c, 1, 54, 0
1, 14005, Note_off_c, 1, 57, 0
1, 14008, Note_on_c, 1, 72, 127
1, 14047, Note_off_c, 1, 74, 0
1, 14136, Note_on_c, 1, 62, 127
1, 14136, Note_on_c, 1, 71, 127
1, 14136, Note_on_c, 1, 50, 127
1, 14139, Note_on_c, 1, 66, 127
1, 14145, Note_off_c, 1, 72, 0
1, 14242, Note_off_c, 1, 62, 0
1, 14247, Note_off_c, 1, 50, 0
1, 14250, Note_off_c, 1, 66, 0
1, 14265, Note_off_c, 1, 71, 0
1, 14376, Note_on_c, 1, 48, 127
1, 14383, Note_on_c, 1, 74, 127
1, 14387, Note_on_c, 1, 62, 127
1, 14388, Note_on_c, 1, 67, 127
1, 14472, Note_off_c, 1, 74, 0
1, 14486, Note_off_c, 1, 67, 0
1, 14496, Note_on_c, 1, 47, 127
1, 14502, Note_off_c, 1, 62, 0
1, 14531, Note_off_c, 1, 48, 0
1, 14616, Note_on_c, 1, 45, 127
1, 14625, Note_on_c, 1, 79, 127
1, 14628, Note_on_c, 1, 71, 127
1, 14632, Note_off_c, 1, 47, 0
1, 14723, Note_off_c, 1, 45, 0
1, 14725, Note_off_c, 1, 79, 0
1, 14730, Note_on_c, 1, 43, 127
1, 14731, Note_off_c, 1, 71, 0
1, 14826, Note_off_c, 1, 43, 0
1, 14867, Note_on_c, 1, 67, 127
1, 14867, Note_on_c, 1, 50, 127
1, 14868, Note_on_c, 1, 72, 127
1, 14883, Note_on_c, 1, 62, 127
1, 14914, Note_on_c, 1, 71, 127
1, 14935, Note_off_c, 1, 72, 0
1, 14963, Note_off_c, 1, 67, 0
1, 14964, Note_off_c, 1, 50, 0
1, 14974, Note_off_c, 1, 71, 0
1, 14990, Note_off_c, 1, 62, 0
1, 15094, Note_on_c, 1, 69, 127
1, 15111, Note_on_c, 1, 66, 127
1, 15113, Note_on_c, 1, 60, 127
1, 15116, Note_on_c, 1, 38, 127
1, 15189, Note_off_c, 1, 66, 0
1, 15202, Note_off_c, 1, 69, 0
1, 15205, Note_off_c, 1, 60, 0
1, 15221, Note_off_c, 1, 38, 0
1, 15348, Note_on_c, 1, 67, 127
1, 15352, Note_on_c, 1, 62, 127
1, 15358, Note_on_c, 1, 43, 127
1, 15359, Note_on_c, 1, 59, 127
1, 15664, Note_off_c, 1, 59, 0
1, 15674, Note_off_c, 1, 62, 0
1, 15680, Note_off_c, 1, 43, 0
1, 15681, Note_off_c, 1, 67, 0
1, 15828, Note_on_c, 1, 71, 127
1, 15829, Note_on_c, 1, 62, 127
1, 15842, Note_on_c, 1, 55, 127
1, 15845, Note_on_c, 1, 67, 127
1, 15922, Note_off_c, 1, 71, 0
1, 15922, Note_off_c, 1, 62, 0
1, 15922, Note_off_c, 1, 67, 0
1, 15923, Note_off_c, 1, 55, 0
1, 16064, Note_on_c, 1, 48, 127
1, 16064, Note_on_c, 1, 72, 127
1, 16066, Note_on_c, 1, 64, 127
1, 16076, Note_on_c, 1, 67, 127
1, 16146, Note_off_c, 1, 48, 0
1, 16153, Note_off_c, 1, 72, 0
1, 16161, Note_off_c, 1, 67, 0
1, 16164, Note_off_c, 1, 64, 0
1, 16297, Note_on_c, 1, 67, 127
1, 16302, Note_on_c, 1, 43, 127
1, 16303, Note_on_c, 1, 74, 127
1, 16306, Note_on_c, 1, 71, 127
1, 16462, Note_off_c, 1, 43, 0
1, 16508, Note_off_c, 1, 67, 0
1, 16521, Note_off_c, 1, 71, 0
1, 16529, Note_off_c, 1, 74, 0
1, 16532, Note_on_c, 1, 76, 127
1, 16541, Note_on_c, 1, 67, 127
1, 16542, Note_on_c, 1, 55, 127
1, 16548, Note_on_c, 1, 72, 127
1, 16621, Note_off_c, 1, 76, 0
1, 16623, Note_off_c, 1, 72, 0
1, 16632, Note_off_c, 1, 55, 0
1, 16636, Note_off_c, 1, 67, 0
1, 16650, Note_on_c, 1, 69, 127
1, 16712, Note_off_c, 1, 69, 0
1, 16755, Note_on_c, 1, 74, 127
1, 16780, Note_on_c, 1, 53, 127
1, 16783, Note_on_c, 1, 71, 127
1, 16787, Note_on_c, 1, 67, 127
1, 16866, Note_off_c, 1, 67, 0
1, 16869, Note_off_c, 1, 74, 0
1, 16871, Note_off_c, 1, 53, 0
1, 16875, Note_off_c, 1, 71, 0
1, 17009, Note_on_c, 1, 82, 127
1, 17013, Note_on_c, 1, 67, 127
1, 17019, Note_on_c, 1, 52, 127
1, 17102, Note_off_c, 1, 52, 0
1, 17110, Note_off_c, 1, 82, 0
1, 17114, Note_off_c, 1, 67, 0
1, 17251, Note_on_c, 1, 69, 127
1, 17262, Note_on_c, 1, 57, 127
1, 17268, Note_on_c, 1, 64, 127
1, 17273, Note_on_c, 1, 74, 127
1, 17320, Note_on_c, 1, 73, 127
1, 17343, Note_off_c, 1, 74, 0
1, 17372, Note_off_c, 1, 73, 0
1, 17379, Note_off_c, 1, 57, 0
1, 17496, Note_on_c, 1, 55, 127
1, 17497, Note_on_c, 1, 71, 127
1, 17599, Note_off_c, 1, 71, 0
1, 17604, Note_off_c, 1, 55, 0
1, 17644, Note_off_c, 1, 64, 0
1, 17704, Note_off_c, 1, 69, 0
1, 17724, Note_on_c, 1, 71, 127
1, 17742, Note_on_c, 1, 53, 127
1, 17750, Note_on_c, 1, 62, 127
1, 17838, Note_off_c, 1, 53, 0
1, 17840, Note_off_c, 1, 62, 0
1, 17841, Note_on_c, 1, 73, 127
1, 17847, Note_off_c, 1, 71, 0
1, 17953, Note_off_c, 1, 73, 0
1, 17959, Note_on_c, 1, 74, 127
1, 17972, Note_on_c, 1, 69, 127
1, 17972, Note_on_c, 1, 61, 127
1, 17981, Note_on_c, 1, 52, 127
1, 18058, Note_off_c, 1, 61, 0
1, 18061, Note_off_c, 1, 69, 0
1, 18073, Note_off_c, 1, 52, 0
1, 18075, Note_on_c, 1, 76, 127
1, 18079, Note_off_c, 1, 74, 0
1, 18191, Note_off_c, 1, 76, 0
1, 18200, Note_on_c, 1, 77, 127
1, 18213, Note_on_c, 1, 69, 127
1, 18213, Note_on_c, 1, 50, 127
1, 18217, Note_on_c, 1, 62, 127
1, 18322, Note_off_c, 1, 50, 0
1, 18344, Note_off_c, 1, 62, 0
1, 18396, Note_off_c, 1, 69, 0
1, 18416, Note_off_c, 1, 77, 0
1, 18437, Note_on_c, 1, 58, 127
1, 18444, Note_on_c, 1, 67, 127
1, 18457, Note_on_c, 1, 76, 127
1, 18544, Note_off_c, 1, 58, 0
1, 18555, Note_off_c, 1, 76, 0
1, 18560, Note_off_c, 1, 67, 0
1, 18561, Note_on_c, 1, 74, 127
1, 18652, Note_off_c, 1, 74, 0
1, 18691, Note_on_c, 1, 57, 127
1, 18692, Note_on_c, 1, 76, 127
1, 18699, Note_on_c, 1, 64, 127
1, 18704, Note_on_c, 1, 73, 127
1, 18766, Note_off_c, 1, 76, 0
1, 18793, Note_off_c, 1, 64, 0
1, 18794, Note_off_c, 1, 57, 0
1, 18796, Note_off_c, 1, 73, 0
1, 18807, Note_on_c, 1, 73, 127
1, 18910, Note_off_c, 1, 73, 0
1, 18934, Note_on_c, 1, 81, 127
1, 18936, Note_on_c, 1, 45, 127
1, 18951, Note_on_c, 1, 73, 127
1, 18953, Note_on_c, 1, 64, 127
1, 19022, Note_off_c, 1, 45, 0
1, 19038, Note_off_c, 1, 64, 0
1, 19045, Note_off_c, 1, 81, 0
1, 19046, Note_off_c, 1, 73, 0
1, 19179, Note_on_c, 1, 79, 127
1, 19186, Note_on_c, 1, 50, 127
1, 19196, Note_on_c, 1, 62, 127
1, 19198, Note_on_c, 1, 74, 127
1, 19218, Note_on_c, 1, 77, 127
1, 19261, Note_off_c, 1, 79, 0
1, 19293, Note_off_c, 1, 50, 0
1, 19294, Note_off_c, 1, 77, 0
1, 19399, Note_on_c, 1, 76, 127
1, 19421, Note_on_c, 1, 48, 127
1, 19517, Note_off_c, 1, 48, 0
1, 19543, Note_off_c, 1, 62, 0
1, 19546, Note_off_c, 1, 76, 0
1, 19630, Note_off_c, 1, 74, 0
1, 19644, Note_on_c, 1, 79, 127
1, 19664, Note_on_c, 1, 47, 127
1, 19666, Note_on_c, 1, 74, 127
1, 19671, Note_on_c, 1, 62, 127
1, 19743, Note_off_c, 1, 62, 0
1, 19756, Note_off_c, 1, 74, 0
1, 19756, Note_on_c, 1, 77, 127
1, 19765, Note_off_c, 1, 47, 0
1, 19794, Note_off_c, 1, 79, 0
1, 19874, Note_on_c, 1, 76, 127
1, 19895, Note_on_c, 1, 71, 127
1, 19895, Note_on_c, 1, 43, 127
1, 19908, Note_off_c, 1, 77, 0
1, 19908, Note_on_c, 1, 67, 127
1, 19980, Note_off_c, 1, 71, 0
1, 19991, Note_off_c, 1, 76, 0
1, 19991, Note_off_c, 1, 67, 0
1, 19995, Note_off_c, 1, 43, 0
1, 20122, Note_on_c, 1, 76, 127
1, 20139, Note_on_c, 1, 72, 127
1, 20142, Note_on_c, 1, 48, 127
1, 20154, Note_on_c, 1, 67, 127
1, 20243, Note_off_c, 1, 48, 0
1, 20345, Note_off_c, 1, 76, 0
1, 20367, Note_on_c, 1, 47, 127
1, 20371, Note_on_c, 1, 77, 127
1, 20468, Note_off_c, 1, 77, 0
1, 20470, Note_off_c, 1, 72, 0
1, 20475, Note_off_c, 1, 47, 0
1, 20479, Note_on_c, 1, 74, 127
1, 20489, Note_off_c, 1, 67, 0
1, 20566, Note_off_c, 1, 74, 0
1, 20609, Note_on_c, 1, 45, 127
1, 20610, Note_on_c, 1, 76, 127
1, 20625, Note_on_c, 1, 72, 127
1, 20627, Note_on_c, 1, 60, 127
1, 20692, Note_off_c, 1, 60, 0
1, 20702, Note_off_c, 1, 72, 0
1, 20705, Note_off_c, 1, 76, 0
1, 20714, Note_off_c, 1, 45, 0
1, 20721, Note_on_c, 1, 72, 127
1, 20818, Note_off_c, 1, 72, 0
1, 20848, Note_on_c, 1, 77, 127
1, 20852, Note_on_c, 1, 57, 127
1, 20864, Note_on_c, 1, 69, 127
1, 20868, Note_on_c, 1, 60, 127
1, 20945, Note_off_c, 1, 69, 0
1, 20946, Note_off_c, 1, 60, 0
1, 20952, Note_off_c, 1, 57, 0
1, 20979, Note_off_c, 1, 77, 0
1, 21097, Note_on_c, 1, 76, 127
1, 21097, Note_on_c, 1, 62, 127
1, 21104, Note_on_c, 1, 59, 127
1, 21111, Note_on_c, 1, 68, 127
1, 21143, Note_on_c, 1, 74, 127
1, 21179, Note_off_c, 1, 76, 0
1, 21205, Note_off_c, 1, 59, 0
1, 21219, Note_off_c, 1, 74, 0
1, 21330, Note_on_c, 1, 57, 127
1, 21336, Note_on_c, 1, 72, 127
1, 21435, Note_off_c, 1, 57, 0
1, 21440, Note_off_c, 1, 68, 0
1, 21441, Note_off_c, 1, 62, 0
1, 21451, Note_on_c, 1, 71, 127
1, 21456, Note_off_c, 1, 72, 0
1, 21536, Note_off_c, 1, 71, 0
1, 21576, Note_on_c, 1, 59, 127
1, 21576, Note_on_c, 1, 56, 127
1, 21581, Note_on_c, 1, 76, 127
1, 21587, Note_on_c, 1, 64, 127
1, 21660, Note_off_c, 1, 59, 0
1, 21674, Note_off_c, 1, 64, 0
1, 21676, Note_off_c, 1, 56, 0
1, 21687, Note_on_c, 1, 74, 127
1, 21712, Note_off_c, 1, 76, 0
1, 21803, Note_on_c, 1, 72, 127
1, 21805, Note_off_c, 1, 74, 0
1, 21817, Note_on_c, 1, 52, 127
1, 21823, Note_on_c, 1, 68, 127
1, 21901, Note_off_c, 1, 52, 0
1, 21916, Note_off_c, 1, 68, 0
1, 21918, Note_on_c, 1, 71, 127
1, 21924, Note_off_c, 1, 72, 0
1, 22014, Note_off_c, 1, 71, 0
1, 22034, Note_on_c, 1, 74, 127
1, 22053, Note_on_c, 1, 64, 127
1, 22055, Note_on_c, 1, 57, 127
1, 22062, Note_on_c, 1, 69, 127
1, 22144, Note_on_c, 1, 72, 127
1, 22155, Note_off_c, 1, 57, 0
1, 22164, Note_off_c, 1, 69, 0
1, 22183, Note_off_c, 1, 64, 0
1, 22197, Note_off_c, 1, 74, 0
1, 22291, Note_on_c, 1, 53, 127
1, 22291, Note_on_c, 1, 71, 127
1, 22292, Note_on_c, 1, 65, 127
1, 22296, Note_on_c, 1, 60, 127
1, 22308, Note_off_c, 1, 72, 0
1, 22377, Note_off_c, 1, 53, 0
1, 22381, Note_off_c, 1, 65, 0
1, 22387, Note_off_c, 1, 60, 0
1, 22406, Note_off_c, 1, 71, 0
1, 22528, Note_on_c, 1, 50, 127
1, 22530, Note_on_c, 1, 71, 127
1, 22538, Note_on_c, 1, 65, 127
1, 22616, Note_off_c, 1, 71, 0
1, 22626, Note_off_c, 1, 50, 0
1, 22635, Note_off_c, 1, 65, 0
1, 22773, Note_on_c, 1, 68, 127
1, 22779, Note_on_c, 1, 52, 127
1, 22780, Note_on_c, 1, 59, 127
1, 22786, Note_on_c, 1, 64, 127
1, 22858, Note_off_c, 1, 52, 0
1, 22860, Note_off_c, 1, 64, 0
1, 22866, Note_off_c, 1, 59, 0
1, 22875, Note_off_c, 1, 68, 0
1, 23025, Note_on_c, 1, 45, 127
1, 23028, Note_on_c, 1, 60, 127
1, 23032, Note_on_c, 1, 69, 127
1, 23037, Note_on_c, 1, 64, 127
1, 23150, Note_off_c, 1, 45, 0
1, 23270, Note_on_c, 1, 52, 127
1, 23353, Note_off_c, 1, 69, 0
1, 23362, Note_off_c, 1, 60, 0
1, 23362, Note_off_c, 1, 64, 0
1, 23366, Note_off_c, 1, 52, 0
1, 23495, Note_on_c, 1, 72, 127
1, 23496, Note_on_c, 1, 57, 127
1, 23513, Note_on_c, 1, 64, 127
1, 23600, Note_off_c, 1, 72, 0
1, 23600, Note_off_c, 1, 64, 0
1, 23613, Note_off_c, 1, 57, 0
1, 23736, Note_on_c, 1, 76, 127
1, 23741, Note_on_c, 1, 59, 127
1, 23742, Note_on_c, 1, 55, 127
1, 23749, Note_on_c, 1, 67, 127
1, 23824, Note_off_c, 1, 59, 0
1, 23834, Note_off_c, 1, 76, 0
1, 23834, Note_off_c, 1, 67, 0
1, 23836, Note_off_c, 1, 55, 0
1, 23980, Note_on_c, 1, 60, 127
1, 23984, Note_on_c, 1, 69, 127
1, 23987, Note_on_c, 1, 53, 127
1, 24118, Note_off_c, 1, 53, 0
1, 24184, Note_off_c, 1, 60, 0
1, 24208, Note_off_c, 1, 69, 0
1, 24225, Note_on_c, 1, 52, 127
1, 24226, Note_on_c, 1, 62, 127
1, 24228, Note_on_c, 1, 67, 127
1, 24233, Note_on_c, 1, 71, 127
1, 24321, Note_off_c, 1, 52, 0
1, 24324, Note_off_c, 1, 62, 0
1, 24325, Note_off_c, 1, 71, 0
1, 24328, Note_off_c, 1, 67, 0
1, 24331, Note_on_c, 1, 64, 127
1, 24331, Note_on_c, 1, 72, 127
1, 24405, Note_off_c, 1, 64, 0
1, 24422, Note_off_c, 1, 72, 0
1, 24454, Note_on_c, 1, 74, 127
1, 24456, Note_on_c, 1, 57, 127
1, 24459, Note_on_c, 1, 53, 127
1, 24465, Note_on_c, 1, 69, 127
1, 24540, Note_off_c, 1, 69, 0
1, 24549, Note_off_c, 1, 57, 0
1, 24554, Note_off_c, 1, 53, 0
1, 24563, Note_off_c, 1, 74, 0
1, 24567, Note_on_c, 1, 76, 127
1, 24664, Note_off_c, 1, 76, 0
1, 24687, Note_on_c, 1, 50, 127
1, 24688, Note_on_c, 1, 62, 127
1, 24697, Note_on_c, 1, 77, 127
1, 24706, Note_on_c, 1, 69, 127
1, 24768, Note_off_c, 1, 62, 0
1, 24775, Note_off_c, 1, 50, 0
1, 24785, Note_off_c, 1, 69, 0
1, 24935, Note_on_c, 1, 55, 127
1, 24945, Note_on_c, 1, 71, 127
1, 25080, Note_off_c, 1, 77, 0
1, 25106, Note_off_c, 1, 55, 0
1, 25182, Note_on_c, 1, 57, 127
1, 25300, Note_on_c, 1, 53, 127
1, 25302, Note_off_c, 1, 57, 0
1, 25319, Note_off_c, 1, 71, 0
1, 25387, Note_off_c, 1, 53, 0
1, 25424, Note_on_c, 1, 57, 127
1, 25426, Note_on_c, 1, 71, 127
1, 25427, Note_on_c, 1, 59, 127
1, 25427, Note_on_c, 1, 76, 127
1, 25498, Note_off_c, 1, 59, 0
1, 25512, Note_off_c, 1, 76, 0
1, 25515, Note_off_c, 1, 71, 0
1, 25538, Note_on_c, 1, 55, 127
1, 25567, Note_off_c, 1, 57, 0
1, 25653, Note_on_c, 1, 53, 127
1, 25657, Note_on_c, 1, 79, 127
1, 25669, Note_off_c, 1, 55, 0
1, 25669, Note_on_c, 1, 64, 127
1, 25753, Note_off_c, 1, 79, 0
1, 25764, Note_off_c, 1, 64, 0
1, 25768, Note_on_c, 1, 52, 127
1, 25774, Note_off_c, 1, 53, 0
1, 25855, Note_off_c, 1, 52, 0
1, 25895, Note_on_c, 1, 72, 127
1, 25896, Note_on_c, 1, 57, 127
1, 25899, Note_on_c, 1, 69, 127
1, 25908, Note_on_c, 1, 64, 127
1, 26003, Note_off_c, 1, 57, 0
1, 26075, Note_off_c, 1, 69, 0
1, 26114, Note_off_c, 1, 64, 0
1, 26128, Note_off_c, 1, 72, 0
1, 26143, Note_on_c, 1, 74, 127
1, 26143, Note_on_c, 1, 71, 127
1, 26143, Note_on_c, 1, 55, 127
1, 26148, Note_on_c, 1, 65, 127
1, 26222, Note_off_c, 1, 65, 0
1, 26242, Note_off_c, 1, 55, 0
1, 26246, Note_on_c, 1, 76, 127
1, 26249, Note_on_c, 1, 67, 127
1, 26253, Note_off_c, 1, 74, 0
1, 26255, Note_off_c, 1, 71, 0
1, 26323, Note_off_c, 1, 67, 0
1, 26350, Note_off_c, 1, 76, 0
1, 26360, Note_on_c, 1, 77, 127
1, 26374, Note_on_c, 1, 60, 127
1, 26382, Note_on_c, 1, 57, 127
1, 26388, Note_on_c, 1, 72, 127
1, 26461, Note_off_c, 1, 60, 0
1, 26468, Note_on_c, 1, 79, 127
1, 26487, Note_off_c, 1, 57, 0
1, 26488, Note_off_c, 1, 72, 0
1, 26496, Note_off_c, 1, 77, 0
1, 26586, Note_off_c, 1, 79, 0
1, 26598, Note_on_c, 1, 81, 127
1, 26614, Note_on_c, 1, 65, 127
1, 26615, Note_on_c, 1, 53, 127
1, 26629, Note_on_c, 1, 72, 127
1, 26696, Note_off_c, 1, 53, 0
1, 26699, Note_off_c, 1, 65, 0
1, 26714, Note_off_c, 1, 72, 0
1, 26848, Note_on_c, 1, 59, 127
1, 26873, Note_on_c, 1, 74, 127
1, 26997, Note_off_c, 1, 59, 0
1, 27060, Note_off_c, 1, 81, 0
1, 27100, Note_on_c, 1, 60, 127
1, 27102, Note_on_c, 1, 79, 127
1, 27207, Note_off_c, 1, 79, 0
1, 27208, Note_on_c, 1, 77, 127
1, 27210, Note_on_c, 1, 57, 127
1, 27214, Note_off_c, 1, 74, 0
1, 27216, Note_off_c, 1, 60, 0
1, 27315, Note_off_c, 1, 77, 0
1, 27324, Note_off_c, 1, 57, 0
1, 27325, Note_on_c, 1, 76, 127
1, 27339, Note_on_c, 1, 65, 127
1, 27344, Note_on_c, 1, 60, 127
1, 27347, Note_on_c, 1, 69, 127
1, 27422, Note_off_c, 1, 76, 0
1, 27427, Note_off_c, 1, 65, 0
1, 27432, Note_off_c, 1, 69, 0
1, 27434, Note_on_c, 1, 74, 127
1, 27449, Note_on_c, 1, 59, 127
1, 27476, Note_off_c, 1, 60, 0
1, 27537, Note_off_c, 1, 74, 0
1, 27560, Note_on_c, 1, 57, 127
1, 27568, Note_on_c, 1, 62, 127
1, 27570, Note_off_c, 1, 59, 0
1, 27571, Note_on_c, 1, 71, 127
1, 27576, Note_on_c, 1, 79, 127
1, 27655, Note_off_c, 1, 62, 0
1, 27660, Note_off_c, 1, 71, 0
1, 27672, Note_on_c, 1, 55, 127
1, 27675, Note_off_c, 1, 57, 0
1, 27676, Note_off_c, 1, 79, 0
1, 27761, Note_off_c, 1, 55, 0
1, 27805, Note_on_c, 1, 60, 127
1, 27807, Note_on_c, 1, 70, 127
1, 27816, Note_on_c, 1, 64, 127
1, 27820, Note_on_c, 1, 67, 127
1, 27911, Note_off_c, 1, 60, 0
1, 27997, Note_off_c, 1, 67, 0
1, 28002, Note_off_c, 1, 64, 0
1, 28013, Note_off_c, 1, 70, 0
1, 28044, Note_on_c, 1, 55, 127
1, 28049, Note_on_c, 1, 72, 127
1, 28062, Note_on_c, 1, 67, 127
1, 28064, Note_on_c, 1, 64, 127
1, 28130, Note_off_c, 1, 72, 0
1, 28146, Note_off_c, 1, 67, 0
1, 28152, Note_off_c, 1, 55, 0
1, 28152, Note_off_c, 1, 64, 0
1, 28159, Note_on_c, 1, 69, 127
1, 28264, Note_off_c, 1, 69, 0
1, 28287, Note_on_c, 1, 70, 127
1, 28288, Note_on_c, 1, 67, 127
1, 28288, Note_on_c, 1, 52, 127
1, 28297, Note_on_c, 1, 64, 127
1, 28386, Note_off_c, 1, 64, 0
1, 28391, Note_off_c, 1, 70, 0
1, 28392, Note_off_c, 1, 52, 0
1, 28393, Note_off_c, 1, 67, 0
1, 28532, Note_on_c, 1, 48, 127
1, 28533, Note_on_c, 1, 67, 127
1, 28537, Note_on_c, 1, 64, 127
1, 28539, Note_on_c, 1, 79, 127
1, 28630, Note_off_c, 1, 64, 0
1, 28638, Note_off_c, 1, 48, 0
1, 28638, Note_off_c, 1, 79, 0
1, 28640, Note_off_c, 1, 67, 0
1, 28779, Note_on_c, 1, 70, 127
1, 28779, Note_on_c, 1, 65, 127
1, 28781, Note_on_c, 1, 53, 127
1, 28783, Note_on_c, 1, 60, 127
1, 28882, Note_on_c, 1, 69, 127
1, 28895, Note_off_c, 1, 53, 0
1, 28923, Note_off_c, 1, 70, 0
1, 29009, Note_on_c, 1, 67, 127
1, 29014, Note_on_c, 1, 52, 127
1, 29026, Note_off_c, 1, 69, 0
1, 29134, Note_off_c, 1, 52, 0
1, 29135, Note_off_c, 1, 60, 0
1, 29136, Note_off_c, 1, 67, 0
1, 29216, Note_off_c, 1, 65, 0
1, 29249, Note_on_c, 1, 50, 127
1, 29255, Note_on_c, 1, 62, 127
1, 29257, Note_on_c, 1, 72, 127
1, 29257, Note_on_c, 1, 69, 127
1, 29335, Note_off_c, 1, 62, 0
1, 29370, Note_off_c, 1, 50, 0
1, 29376, Note_on_c, 1, 71, 127
1, 29378, Note_off_c, 1, 69, 0
1, 29413, Note_off_c, 1, 72, 0
1, 29481, Note_on_c, 1, 53, 127
1, 29593, Note_on_c, 1, 67, 127
1, 29604, Note_off_c, 1, 53, 0
1, 29617, Note_off_c, 1, 71, 0
1, 29724, Note_off_c, 1, 67, 0
1, 29725, Note_on_c, 1, 79, 127
1, 29725, Note_on_c, 1, 72, 127
1, 29734, Note_on_c, 1, 52, 127
1, 29743, Note_on_c, 1, 64, 127
1, 29832, Note_off_c, 1, 79, 0
1, 29848, Note_off_c, 1, 64, 0
1, 29854, Note_off_c, 1, 52, 0
1, 29862, Note_off_c, 1, 72, 0
1, 29972, Note_on_c, 1, 60, 127
1, 29973, Note_on_c, 1, 81, 127
1, 29973, Note_on_c, 1, 72, 127
1, 29977, Note_on_c, 1, 53, 127
1, 30078, Note_off_c, 1, 72, 0
1, 30078, Note_off_c, 1, 53, 0
1, 30087, Note_off_c, 1, 81, 0
1, 30091, Note_off_c, 1, 60, 0
1, 30216, Note_on_c, 1, 77, 127
1, 30216, Note_on_c, 1, 72, 127
1, 30216, Note_on_c, 1, 67, 127
1, 30216, Note_on_c, 1, 55, 127
1, 30263, Note_on_c, 1, 76, 127
1, 30291, Note_off_c, 1, 77, 0
1, 30307, Note_off_c, 1, 67, 0
1, 30317, Note_off_c, 1, 55, 0
1, 30322, Note_off_c, 1, 72, 0
1, 30336, Note_off_c, 1, 76, 0
1, 30450, Note_on_c, 1, 71, 127
1, 30451, Note_on_c, 1, 74, 127
1, 30458, Note_on_c, 1, 43, 127
1, 30464, Note_on_c, 1, 65, 127
1, 30549, Note_off_c, 1, 71, 0
1, 30558, Note_off_c, 1, 74, 0
1, 30558, Note_off_c, 1, 43, 0
1, 30561, Note_off_c, 1, 65, 0
1, 30703, Note_on_c, 1, 72, 127
1, 30705, Note_on_c, 1, 67, 127
1, 30709, Note_on_c, 1, 36, 127
1, 30720, Note_on_c, 1, 64, 127
1, 31055, Note_off_c, 1, 64, 0
1, 31059, Note_off_c, 1, 36, 0
1, 31073, Note_off_c, 1, 67, 0
1, 31078, Note_off_c, 1, 72, 0
1, 31188, Note_on_c, 1, 71, 127
1, 31189, Note_on_c, 1, 62, 127
1, 31202, Note_on_c, 1, 55, 127
1, 31205, Note_on_c, 1, 67, 127
1, 31282, Note_off_c, 1, 71, 0
1, 31282, Note_off_c, 1, 62, 0
1, 31282, Note_off_c, 1, 67, 0
1, 31283, Note_off_c, 1, 55, 0
1, 31424, Note_on_c, 1, 48, 127
1, 31424, Note_on_c, 1, 72, 127
1, 31426, Note_on_c, 1, 64, 127
1, 31436, Note_on_c, 1, 67, 127
1, 31506, Note_off_c, 1, 48, 0
1, 31513, Note_off_c, 1, 72, 0
1, 31521, Note_off_c, 1, 67, 0
1, 31524, Note_off_c, 1, 64, 0
1, 31657, Note_on_c, 1, 67, 127
1, 31662, Note_on_c, 1, 43, 127
1, 31663, Note_on_c, 1, 74, 127
1, 31666, Note_on_c, 1, 71, 127
1, 31822, Note_off_c, 1, 43, 0
1, 31868, Note_off_c, 1, 67, 0
1, 31881, Note_off_c, 1, 71, 0
1, 31889, Note_off_c, 1, 74, 0
1, 31892, Note_on_c, 1, 76, 127
1, 31901, Note_on_c, 1, 67, 127
1, 31902, Note_on_c, 1, 55, 127
1, 31908, Note_on_c, 1, 72, 127
1, 31981, Note_off_c, 1, 76, 0
1, 31983, Note_off_c, 1, 72, 0
1, 31992, Note_off_c, 1, 55, 0
1, 31996, Note_off_c, 1, 67, 0
1, 32010, Note_on_c, 1, 69, 127
1, 32072, Note_off_c, 1, 69, 0
1, 32115, Note_on_c, 1, 74, 127
1, 32140, Note_on_c, 1, 53, 127
1, 32143, Note_on_c, 1, 71, 127
1, 32147, Note_on_c, 1, 67, 127
1, 32226, Note_off_c, 1, 67, 0
1, 32229, Note_off_c, 1, 74, 0
1, 32231, Note_off_c, 1, 53, 0
1, 32235, Note_off_c, 1, 71, 0
1, 32369, Note_on_c, 1, 82, 127
1, 32373, Note_on_c, 1, 67, 127
1, 32379, Note_on_c, 1, 52, 127
1, 32462, Note_off_c, 1, 52, 0
1, 32470, Note_off_c, 1, 82, 0
1, 32474, Note_off_c, 1, 67, 0
1, 32611, Note_on_c, 1, 69, 127
1, 32622, Note_on_c, 1, 57, 127
1, 32628, Note_on_c, 1, 64, 127
1, 32633, Note_on_c, 1, 74, 127
1, 32680, Note_on_c, 1, 73, 127
1, 32703, Note_off_c, 1, 74, 0
1, 32732, Note_off_c, 1, 73, 0
1, 32739, Note_off_c, 1, 57, 0
1, 32856, Note_on_c, 1, 55, 127
1, 32857, Note_on_c, 1, 71, 127
1, 32959, Note_off_c, 1, 71, 0
1, 32964, Note_off_c, 1, 55, 0
1, 33004, Note_off_c, 1, 64, 0
1, 33064, Note_off_c, 1, 69, 0
1, 33084, Note_on_c, 1, 71, 127
1, 33102, Note_on_c, 1, 53, 127
1, 33110, Note_on_c, 1, 62, 127
1, 33198, Note_off_c, 1, 53, 0
1, 33200, Note_off_c, 1, 62, 0
1, 33201, Note_on_c, 1, 73, 127
1, 33207, Note_off_c, 1, 71, 0
1, 33313, Note_off_c, 1, 73, 0
1, 33319, Note_on_c, 1, 74, 127
1, 33332, Note_on_c, 1, 69, 127
1, 33332, Note_on_c, 1, 61, 127
1, 33341, Note_on_c, 1, 52, 127
1, 33418, Note_off_c, 1, 61, 0
1, 33421, Note_off_c, 1, 69, 0
1, 33433, Note_off_c, 1, 52, 0
1, 33435, Note_on_c, 1, 76, 127
1, 33439, Note_off_c, 1, 74, 0
1, 33551, Note_off_c, 1, 76, 0
1, 33560, Note_on_c, 1, 77, 127
1, 33573, Note_on_c, 1, 69, 127
1, 33573, Note_on_c, 1, 50, 127
1, 33577, Note_on_c, 1, 62, 127
1, 33682, Note_off_c, 1, 50, 0
1, 33704, Note_off_c, 1, 62, 0
1, 33756, Note_off_c, 1, 69, 0
1, 33776, Note_off_c, 1, 77, 0
1, 33797, Note_on_c, 1, 58, 127
1, 33804, Note_on_c, 1, 67, 127
1, 33817, Note_on_c, 1, 76, 127
1, 33904, Note_off_c, 1, 58, 0
1, 33915, Note_off_c, 1, 76, 0
1, 33920, Note_off_c, 1, 67, 0
1, 33921, Note_on_c, 1, 74, 127
1, 34012, Note_off_c, 1, 74, 0
1, 34051, Note_on_c, 1, 57, 127
1, 34052, Note_on_c, 1, 76, 127
1, 34059, Note_on_c, 1, 64, 127
1, 34064, Note_on_c, 1, 73, 127
1, 34126, Note_off_c, 1, 76, 0
1, 34153, Note_off_c, 1, 64, 0
1, 34154, Note_off_c, 1, 57, 0
1, 34156, Note_off_c, 1, 73, 0
1, 34167, Note_on_c, 1, 73, 127
1, 34270, Note_off_c, 1, 73, 0
1, 34294, Note_on_c, 1, 81, 127
1, 34296, Note_on_c, 1, 45, 127
1, 34311, Note_on_c, 1, 73, 127
1, 34313, Note_on_c, 1, 64, 127
1, 34382, Note_off_c, 1, 45, 0
1, 34398, Note_off_c, 1, 64, 0
1, 34405, Note_off_c, 1, 81, 0
1, 34406, Note_off_c, 1, 73, 0
1, 34539, Note_on_c, 1, 79, 127
1, 34546, Note_on_c, 1, 50, 127
1, 34556, Note_on_c, 1, 62, 127
1, 34558, Note_on_c, 1, 74, 127
1, 34578, Note_on_c, 1, 77, 127
1, 34621, Note_off_c, 1, 79, 0
1, 34653, Note_off_c, 1, 50, 0
1, 34654, Note_off_c, 1, 77, 0
1, 34759, Note_on_c, 1, 76, 127
1, 34781, Note_on_c, 1, 48, 127
1, 34877, Note_off_c, 1, 48, 0
1, 34903, Note_off_c, 1, 62, 0
1, 34906, Note_off_c, 1, 76, 0
1, 34990, Note_off_c, 1, 74, 0
1, 35004, Note_on_c, 1, 79, 127
1, 35024, Note_on_c, 1, 47, 127
1, 35026, Note_on_c, 1, 74, 127
1, 35031, Note_on_c, 1, 62, 127
1, 35103, Note_off_c, 1, 62, 0
1, 35116, Note_off_c, 1, 74, 0
1, 35116, Note_on_c, 1, 77, 127
1, 35125, Note_off_c, 1, 47, 0
1, 35154, Note_off_c, 1, 79, 0
1, 35234, Note_on_c, 1, 76, 127
1, 35255, Note_on_c, 1, 71, 127
1, 35255, Note_on_c, 1, 43, 127
1, 35268, Note_off_c, 1, 77, 0
1, 35268, Note_on_c, 1, 67, 127
1, 35340, Note_off_c, 1, 71, 0
1, 35351, Note_off_c, 1, 76, 0
1, 35351, Note_off_c, 1, 67, 0
1, 35355, Note_off_c, 1, 43, 0
1, 35482, Note_on_c, 1, 76, 127
1, 35499, Note_on_c, 1, 72, 127
1, 35502, Note_on_c, 1, 48, 127
1, 35514, Note_on_c, 1, 67, 127
1, 35603, Note_off_c, 1, 48, 0
1, 35705, Note_off_c, 1, 76, 0
1, 35727, Note_on_c, 1, 47, 127
1, 35731, Note_on_c, 1, 77, 127
1, 35828, Note_off_c, 1, 77, 0
1, 35830, Note_off_c, 1, 72, 0
1, 35835, Note_off_c, 1, 47, 0
1, 35839, Note_on_c, 1, 74, 127
1, 35849, Note_off_c, 1, 67, 0
1, 35926, Note_off_c, 1, 74, 0
1, 35969, Note_on_c, 1, 45, 127
1, 35970, Note_on_c, 1, 76, 127
1, 35985, Note_on_c, 1, 72, 127
1, 35987, Note_on_c, 1, 60, 127
1, 36052, Note_off_c, 1, 60, 0
1, 36062, Note_off_c, 1, 72, 0
1, 36065, Note_off_c, 1, 76, 0
1, 36074, Note_off_c, 1, 45, 0
1, 36081, Note_on_c, 1, 72, 127
1, 36178, Note_off_c, 1, 72, 0
1, 36208, Note_on_c, 1, 77, 127
1, 36212, Note_on_c, 1, 57, 127
1, 36224, Note_on_c, 1, 69, 127
1, 36228, Note_on_c, 1, 60, 127
1, 36305, Note_off_c, 1, 69, 0
1, 36306, Note_off_c, 1, 60, 0
1, 36312, Note_off_c, 1, 57, 0
1, 36339, Note_off_c, 1, 77, 0
1, 36457, Note_on_c, 1, 76, 127
1, 36457, Note_on_c, 1, 62, 127
1, 36464, Note_on_c, 1, 59, 127
1, 36471, Note_on_c, 1, 68, 127
1, 36503, Note_on_c, 1, 74, 127
1, 36539, Note_off_c, 1, 76, 0
1, 36565, Note_off_c, 1, 59, 0
1, 36579, Note_off_c, 1, 74, 0
1, 36690, Note_on_c, 1, 57, 127
1, 36696, Note_on_c, 1, 72, 127
1, 36795, Note_off_c, 1, 57, 0
1, 36800, Note_off_c, 1, 68, 0
1, 36801, Note_off_c, 1, 62, 0
1, 36811, Note_on_c, 1, 71, 127
1, 36816, Note_off_c, 1, 72, 0
1, 36896, Note_off_c, 1, 71, 0
1, 36936, Note_on_c, 1, 59, 127
1, 36936, Note_on_c, 1, 56, 127
1, 36941, Note_on_c, 1, 76, 127
1, 36947, Note_on_c, 1, 64, 127
1, 37020, Note_off_c, 1, 59, 0
1, 37034, Note_off_c, 1, 64, 0
1, 37036, Note_off_c, 1, 56, 0
1, 37047, Note_on_c, 1, 74, 127
1, 37072, Note_off_c, 1, 76, 0
1, 37163, Note_on_c, 1, 72, 127
1, 37165, Note_off_c, 1, 74, 0
1, 37177, Note_on_c, 1, 52, 127
1, 37183, Note_on_c, 1, 68, 127
1, 37261, Note_off_c, 1, 52, 0
1, 37276, Note_off_c, 1, 68, 0
1, 37278, Note_on_c, 1, 71, 127
1, 37284, Note_off_c, 1, 72, 0
1, 37374, Note_off_c, 1, 71, 0
1, 37394, Note_on_c, 1, 74, 127
1, 37413, Note_on_c, 1, 64, 127
1, 37415, Note_on_c, 1, 57, 127
1, 37422, Note_on_c, 1, 69, 127
1, 37504, Note_on_c, 1, 72, 127
1, 37515, Note_off_c, 1, 57, 0
1, 37524, Note_off_c, 1, 69, 0
1, 37543, Note_off_c, 1, 64, 0
1, 37557, Note_off_c, 1, 74, 0
1, 37651, Note_on_c, 1, 53, 127
1, 37651, Note_on_c, 1, 71, 127
1, 37652, Note_on_c, 1, 65, 127
1, 37656, Note_on_c, 1, 60, 127
1, 37668, Note_off_c, 1, 72, 0
1, 37737, Note_off_c, 1, 53, 0
1, 37741, Note_off_c, 1, 65, 0
1, 37747, Note_off_c, 1, 60, 0
1, 37766, Note_off_c, 1, 71, 0
1, 37888, Note_on_c, 1, 50, 127
1, 37890, Note_on_c, 1, 71, 127
1, 37898, Note_on_c, 1, 65, 127
1, 37976, Note_off_c, 1, 71, 0
1, 37986, Note_off_c, 1, 50, 0
1, 37995, Note_off_c, 1, 65, 0
1, 38133, Note_on_c, 1, 68, 127
1, 38139, Note_on_c, 1, 52, 127
1, 38140, Note_on_c, 1, 59, 127
1, 38146, Note_on_c, 1, 64, 127
1, 38218, Note_off_c, 1, 52, 0
1, 38220, Note_off_c, 1, 64, 0
1, 38226, Note_off_c, 1, 59, 0
1, 38235, Note_off_c, 1, 68, 0
1, 38385, Note_on_c, 1, 45, 127
1, 38388, Note_on_c, 1, 60, 127
1, 38392, Note_on_c, 1, 69, 127
1, 38397, Note_on_c, 1, 64, 127
1, 38510, Note_off_c, 1, 45, 0
1, 38630, Note_on_c, 1, 52, 127
1, 38713, Note_off_c, 1, 69, 0
1, 38722, Note_off_c, 1, 60, 0
1, 38722, Note_off_c, 1, 64, 0
1, 38726, Note_off_c, 1, 52, 0
1, 38855, Note_on_c, 1, 72, 127
1, 38856, Note_on_c, 1, 57, 127
1, 38873, Note_on_c, 1, 64, 127
1, 38960, Note_off_c, 1, 72, 0
1, 38960, Note_off_c, 1, 64, 0
1, 38973, Note_off_c, 1, 57, 0
1, 39096, Note_on_c, 1, 76, 127
1, 39101, Note_on_c, 1, 59, 127
1, 39102, Note_on_c, 1, 55, 127
1, 39109, Note_on_c, 1, 67, 127
1, 39184, Note_off_c, 1, 59, 0
1, 39194, Note_off_c, 1, 76, 0
1, 39194, Note_off_c, 1, 67, 0
1, 39196, Note_off_c, 1, 55, 0
1, 39340, Note_on_c, 1, 60, 127
1, 39344, Note_on_c, 1, 69, 127
1, 39347, Note_on_c, 1, 53, 127
1, 39478, Note_off_c, 1, 53, 0
1, 39544, Note_off_c, 1, 60, 0
1, 39568, Note_off_c, 1, 69, 0
1, 39585, Note_on_c, 1, 52, 127
1, 39586, Note_on_c, 1, 62, 127
1, 39588, Note_on_c, 1, 67, 127
1, 39593, Note_on_c, 1, 71, 127
1, 39681, Note_off_c, 1, 52, 0
1, 39684, Note_off_c, 1, 62, 0
1, 39685, Note_off_c, 1, 71, 0
1, 39688, Note_off_c, 1, 67, 0
1, 39691, Note_on_c, 1, 64, 127
1, 39691, Note_on_c, 1, 72, 127
1, 39765, Note_off_c, 1, 64, 0
1, 39782, Note_off_c, 1, 72, 0
1, 39814, Note_on_c, 1, 74, 127
1, 39816, Note_on_c, 1, 57, 127
1, 39819, Note_on_c, 1, 53, 127
1, 39825, Note_on_c, 1, 69, 127
1, 39900, Note_off_c, 1, 69, 0
1, 39909, Note_off_c, 1, 57, 0
1, 39914, Note_off_c, 1, 53, 0
1, 39923, Note_off_c, 1, 74, 0
1, 39927, Note_on_c, 1, 76, 127
1, 40024, Note_off_c, 1, 76, 0
1, 40047, Note_on_c, 1, 50, 127
1, 40048, Note_on_c, 1, 62, 127
1, 40057, Note_on_c, 1, 77, 127
1, 40066, Note_on_c, 1, 69, 127
1, 40128, Note_off_c, 1, 62, 0
1, 40135, Note_off_c, 1, 50, 0
1, 40145, Note_off_c, 1, 69, 0
1, 40295, Note_on_c, 1, 55, 127
1, 40305, Note_on_c, 1, 71, 127
1, 40440, Note_off_c, 1, 77, 0
1, 40466, Note_off_c, 1, 55, 0
1, 40542, Note_on_c, 1, 57, 127
1, 40660, Note_on_c, 1, 53, 127
1, 40662, Note_off_c, 1, 57, 0
1, 40679, Note_off_c, 1, 71, 0
1, 40747, Note_off_c, 1, 53, 0
1, 40784, Note_on_c, 1, 57, 127
1, 40786, Note_on_c, 1, 71, 127
1, 40787, Note_on_c, 1, 59, 127
1, 40787, Note_on_c, 1, 76, 127
1, 40858, Note_off_c, 1, 59, 0
1, 40872, Note_off_c, 1, 76, 0
1, 40875, Note_off_c, 1, 71, 0
1, 40898, Note_on_c, 1, 55, 127
1, 40927, Note_off_c, 1, 57, 0
1, 41013, Note_on_c, 1, 53, 127
1, 41017, Note_on_c, 1, 79, 127
1, 41029, Note_off_c, 1, 55, 0
1, 41029, Note_on_c, 1, 64, 127
1, 41113, Note_off_c, 1, 79, 0
1, 41124, Note_off_c, 1, 64, 0
1, 41128, Note_on_c, 1, 52, 127
1, 41134, Note_off_c, 1, 53, 0
1, 41215, Note_off_c, 1, 52, 0
1, 41255, Note_on_c, 1, 72, 127
1, 41256, Note_on_c, 1, 57, 127
1, 41259, Note_on_c, 1, 69, 127
1, 41268, Note_on_c, 1, 64, 127
1, 41363, Note_off_c, 1, 57, 0
1, 41435, Note_off_c, 1, 69, 0
1, 41474, Note_off_c, 1, 64, 0
1, 41488, Note_off_c, 1, 72, 0
1, 41503, Note_on_c, 1, 74, 127
1, 41503, Note_on_c, 1, 71, 127
1, 41503, Note_on_c, 1, 55, 127
1, 41508, Note_on_c, 1, 65, 127
1, 41582, Note_off_c, 1, 65, 0
1, 41602, Note_off_c, 1, 55, 0
1, 41606, Note_on_c, 1, 76, 127
1, 41609, Note_on_c, 1, 67, 127
1, 41613, Note_off_c, 1, 74, 0
1, 41615, Note_off_c, 1, 71, 0
1, 41683, Note_off_c, 1, 67, 0
1, 41710, Note_off_c, 1, 76, 0
1, 41720, Note_on_c, 1, 77, 127
1, 41734, Note_on_c, 1, 60, 127
1, 41742, Note_on_c, 1, 57, 127
1, 41748, Note_on_c, 1, 72, 127
1, 41821, Note_off_c, 1, 60, 0
1, 41828, Note_on_c, 1, 79, 127
1, 41847, Note_off_c, 1, 57, 0
1, 41848, Note_off_c, 1, 72, 0
1, 41856, Note_off_c, 1, 77, 0
1, 41946, Note_off_c, 1, 79, 0
1, 41958, Note_on_c, 1, 81, 127
1, 41974, Note_on_c, 1, 65, 127
1, 41975, Note_on_c, 1, 53, 127
1, 41989, Note_on_c, 1, 72, 127
1, 42056, Note_off_c, 1, 53, 0
1, 42059, Note_off_c, 1, 65, 0
1, 42074, Note_off_c, 1, 72, 0
1, 42208, Note_on_c, 1, 59, 127
1, 42233, Note_on_c, 1, 74, 127
1, 42357, Note_off_c, 1, 59, 0
1, 42420, Note_off_c, 1, 81, 0
1, 42460, Note_on_c, 1, 60, 127
1, 42462, Note_on_c, 1, 79, 127
1, 42567, Note_off_c, 1, 79, 0
1, 42568, Note_on_c, 1, 77, 127
1, 42570, Note_on_c, 1, 57, 127
1, 42574, Note_off_c, 1, 74, 0
1, 42576, Note_off_c, 1, 60, 0
1, 42675, Note_off_c, 1, 77, 0
1, 42684, Note_off_c, 1, 57, 0
1, 42685, Note_on_c, 1, 76, 127
1, 42699, Note_on_c, 1, 65, 127
1, 42704, Note_on_c, 1, 60, 127
1, 42707, Note_on_c, 1, 69, 127
1, 42782, Note_off_c, 1, 76, 0
1, 42787, Note_off_c, 1, 65, 0
1, 42792, Note_off_c, 1, 69, 0
1, 42794, Note_on_c, 1, 74, 127
1, 42809, Note_on_c, 1, 59, 127
1, 42836, Note_off_c, 1, 60, 0
1, 42897, Note_off_c, 1, 74, 0
1, 42920, Note_on_c, 1, 57, 127
1, 42928, Note_on_c, 1, 62, 127
1, 42930, Note_off_c, 1, 59, 0
1, 42931, Note_on_c, 1, 71, 127
1, 42936, Note_on_c, 1, 79, 127
1, 43015, Note_off_c, 1, 62, 0
1, 43020, Note_off_c, 1, 71, 0
1, 43032, Note_on_c, 1, 55, 127
1, 43035, Note_off_c, 1, 57, 0
1, 43036, Note_off_c, 1, 79, 0
1, 43121, Note_off_c, 1, 55, 0
1, 43165, Note_on_c, 1, 60, 127
1, 43167, Note_on_c, 1, 70, 127
1, 43176, Note_on_c, 1, 64, 127
1, 43180, Note_on_c, 1, 67, 127
1, 43271, Note_off_c, 1, 60, 0
1, 43357, Note_off_c, 1, 67, 0
1, 43362, Note_off_c, 1, 64, 0
1, 43373, Note_off_c, 1, 70, 0
1, 43404, Note_on_c, 1, 55, 127
1, 43409, Note_on_c, 1, 72, 127
1, 43422, Note_on_c, 1, 67, 127
1, 43424, Note_on_c, 1, 64, 127
1, 43490, Note_off_c, 1, 72, 0
1, 43506, Note_off_c, 1, 67, 0
1, 43512, Note_off_c, 1, 55, 0
1, 43512, Note_off_c, 1, 64, 0
1, 43519, Note_on_c, 1, 69, 127
1, 43624, Note_off_c, 1, 69, 0
1, 43647, Note_on_c, 1, 70, 127
1, 43648, Note_on_c, 1, 67, 127
1, 43648, Note_on_c, 1, 52, 127
1, 43657, Note_on_c, 1, 64, 127
1, 43746, Note_off_c, 1, 64, 0
1, 43751, Note_off_c, 1, 70, 0
1, 43752, Note_off_c, 1, 52, 0
1, 43753, Note_off_c, 1, 67, 0
1, 43892, Note_on_c, 1, 48, 127
1, 43893, Note_on_c, 1, 67, 127
1, 43897, Note_on_c, 1, 64, 127
1, 43899, Note_on_c, 1, 79, 127
1, 43990, Note_off_c, 1, 64, 0
1, 43998, Note_off_c, 1, 48, 0
1, 43998, Note_off_c, 1, 79, 0
1, 44000, Note_off_c, 1, 67, 0
1, 44139, Note_on_c, 1, 70, 127
1, 44139, Note_on_c, 1, 65, 127
1, 44141, Note_on_c, 1, 53, 127
1, 44143, Note_on_c, 1, 60, 127
1, 44242, Note_on_c, 1, 69, 127
1, 44255, Note_off_c, 1, 53, 0
1, 44283, Note_off_c, 1, 70, 0
1, 44369, Note_on_c, 1, 67, 127
1, 44374, Note_on_c, 1, 52, 127
1, 44386, Note_off_c, 1, 69, 0
1, 44494, Note_off_c, 1, 52, 0
1, 44495, Note_off_c, 1, 60, 0
1, 44496, Note_off_c, 1, 67, 0
1, 44576, Note_off_c, 1, 65, 0
1, 44609, Note_on_c, 1, 50, 127
1, 44615, Note_on_c, 1, 62, 127
1, 44617, Note_on_c, 1, 72, 127
1, 44617, Note_on_c, 1, 69, 127
1, 44695, Note_off_c, 1, 62, 0
1, 44730, Note_off_c, 1, 50, 0
1, 44736, Note_on_c, 1, 71, 127
1, 44738, Note_off_c, 1, 69, 0
1, 44773, Note_off_c, 1, 72, 0
1, 44841, Note_on_c, 1, 53, 127
1, 44953, Note_on_c, 1, 67, 127
1, 44964, Note_off_c, 1, 53, 0
1, 44977, Note_off_c, 1, 71, 0
1, 45084, Note_off_c, 1, 67, 0
1, 45085, Note_on_c, 1, 79, 127
1, 45085, Note_on_c, 1, 72, 127
1, 45094, Note_on_c, 1, 52, 127
1, 45103, Note_on_c, 1, 64, 127
1, 45192, Note_off_c, 1, 79, 0
1, 45208, Note_off_c, 1, 64, 0
1, 45214, Note_off_c, 1, 52, 0
1, 45222, Note_off_c, 1, 72, 0
1, 45332, Note_on_c, 1, 60, 127
1, 45333, Note_on_c, 1, 81, 127
1, 45333, Note_on_c, 1, 72, 127
1, 45337, Note_on_c, 1, 53, 127
1, 45438, Note_off_c, 1, 72, 0
1, 45438, Note_off_c, 1, 53, 0
1, 45447, Note_off_c, 1, 81, 0
1, 45451, Note_off_c, 1, 60, 0
1, 45576, Note_on_c, 1, 77, 127
1, 45576, Note_on_c, 1, 72, 127
1, 45576, Note_on_c, 1, 67, 127
1, 45576, Note_on_c, 1, 55, 127
1, 45623, Note_on_c, 1, 76, 127
1, 45651, Note_off_c, 1, 77, 0
1, 45667, Note_off_c, 1, 67, 0
1, 45677, Note_off_c, 1, 55, 0
1, 45682, Note_off_c, 1, 72, 0
1, 45696, Note_off_c, 1, 76, 0
1, 45810, Note_on_c, 1, 71, 127
1, 45811, Note_on_c, 1, 74, 127
1, 45818, Note_on_c, 1, 43, 127
1, 45824, Note_on_c, 1, 65, 127
1, 45909, Note_off_c, 1, 71, 0
1, 45918, Note_off_c, 1, 74, 0
1, 45918, Note_off_c, 1, 43, 0
1, 45921, Note_off_c, 1, 65, 0
1, 46063, Note_on_c, 1, 72, 127
1, 46065, Note_on_c, 1, 67, 127
1, 46069, Note_on_c, 1, 36, 127
1, 46080, Note_on_c, 1, 64, 127
1, 46415, Note_off_c, 1, 64, 0
1, 46419, Note_off_c, 1, 36, 0
1, 46433, Note_off_c, 1, 67, 0
1, 46438, Note_off_c, 1, 72, 0
1, 46544, Note_on_c, 1, 67, 127
1, 46560, Note_on_c, 1, 60, 127
1, 46567, Note_on_c, 1, 64, 127
1, 46686, Note_off_c, 1, 64, 0
1, 46691, Note_off_c, 1, 67, 0
1, 46763, Note_off_c, 1, 60, 0
1, 46786, Note_on_c, 1, 60, 127
1, 46791, Note_on_c, 1, 69, 127
1, 46797, Note_on_c, 1, 65, 127
1, 46876, Note_off_c, 1, 69, 0
1, 46894, Note_off_c, 1, 65, 0
1, 46899, Note_on_c, 1, 71, 127
1, 46904, Note_on_c, 1, 62, 127
1, 46980, Note_off_c, 1, 60, 0
1, 46986, Note_off_c, 1, 62, 0
1, 46987, Note_off_c, 1, 71, 0
1, 47022, Note_on_c, 1, 72, 127
1, 47026, Note_on_c, 1, 64, 127
1, 47030, Note_on_c, 1, 60, 127
1, 47114, Note_off_c, 1, 72, 0
1, 47120, Note_off_c, 1, 64, 0
1, 47133, Note_on_c, 1, 74, 127
1, 47137, Note_on_c, 1, 65, 127
1, 47190, Note_off_c, 1, 65, 0
1, 47197, Note_off_c, 1, 74, 0
1, 47246, Note_on_c, 1, 76, 127
1, 47264, Note_on_c, 1, 67, 127
1, 47480, Note_off_c, 1, 60, 0
1, 47504, Note_on_c, 1, 55, 127
1, 47664, Note_off_c, 1, 76, 0
1, 47676, Note_off_c, 1, 67, 0
1, 47712, Note_off_c, 1, 55, 0
1, 47740, Note_on_c, 1, 67, 127
1, 47745, Note_on_c, 1, 55, 127
1, 47749, Note_on_c, 1, 74, 127
1, 47755, Note_on_c, 1, 65, 127
1, 47913, Note_off_c, 1, 65, 0
1, 47920, Note_off_c, 1, 74, 0
1, 47943, Note_off_c, 1, 55, 0
1, 47949, Note_off_c, 1, 67, 0
1, 47969, Note_on_c, 1, 72, 127
1, 47989, Note_on_c, 1, 57, 127
1, 47989, Note_on_c, 1, 67, 127
1, 48000, Note_on_c, 1, 76, 127
1, 48025, Note_on_c, 1, 65, 127
1, 48033, Note_off_c, 1, 67, 0
1, 48048, Note_on_c, 1, 74, 127
1, 48050, Note_off_c, 1, 76, 0
1, 48077, Note_off_c, 1, 65, 0
1, 48100, Note_off_c, 1, 74, 0
1, 48201, Note_off_c, 1, 72, 0
1, 48224, Note_on_c, 1, 64, 127
1, 48322, Note_on_c, 1, 71, 127
1, 48324, Note_off_c, 1, 64, 0
1, 48336, Note_on_c, 1, 62, 127
1, 48404, Note_off_c, 1, 62, 0
1, 48406, Note_off_c, 1, 57, 0
1, 48410, Note_off_c, 1, 71, 0
1, 48450, Note_on_c, 1, 72, 127
1, 48453, Note_on_c, 1, 64, 127
1, 48459, Note_on_c, 1, 57, 127
1, 48568, Note_on_c, 1, 74, 127
1, 48573, Note_on_c, 1, 67, 127
1, 48583, Note_off_c, 1, 72, 0
1, 48633, Note_off_c, 1, 67, 0
1, 48653, Note_off_c, 1, 74, 0
1, 48662, Note_off_c, 1, 64, 0
1, 48672, Note_off_c, 1, 57, 0
1, 48686, Note_on_c, 1, 60, 127
1, 48692, Note_on_c, 1, 57, 127
1, 48704, Note_on_c, 1, 76, 127
1, 48715, Note_on_c, 1, 72, 127
1, 48807, Note_off_c, 1, 72, 0
1, 48817, Note_on_c, 1, 74, 127
1, 48819, Note_off_c, 1, 76, 0
1, 48826, Note_on_c, 1, 71, 127
1, 48887, Note_off_c, 1, 71, 0
1, 48897, Note_off_c, 1, 74, 0
1, 48898, Note_off_c, 1, 57, 0
1, 48911, Note_off_c, 1, 60, 0
1, 48927, Note_on_c, 1, 67, 127
1, 48938, Note_on_c, 1, 77, 127
1, 48941, Note_on_c, 1, 59, 127
1, 48946, Note_on_c, 1, 74, 127
1, 49054, Note_on_c, 1, 76, 127
1, 49058, Note_off_c, 1, 74, 0
1, 49058, Note_on_c, 1, 72, 127
1, 49061, Note_off_c, 1, 77, 0
1, 49123, Note_off_c, 1, 72, 0
1, 49133, Note_off_c, 1, 67, 0
1, 49136, Note_off_c, 1, 76, 0
1, 49186, Note_on_c, 1, 81, 127
1, 49300, Note_on_c, 1, 79, 127
1, 49324, Note_off_c, 1, 81, 0
1, 49379, Note_off_c, 1, 59, 0
1, 49386, Note_off_c, 1, 79, 0
1, 49390, Note_on_c, 1, 67, 127
1, 49421, Note_on_c, 1, 77, 127
1, 49425, Note_on_c, 1, 60, 127
1, 49428, Note_on_c, 1, 74, 127
1, 49535, Note_on_c, 1, 76, 127
1, 49536, Note_off_c, 1, 74, 0
1, 49539, Note_on_c, 1, 72, 127
1, 49556, Note_off_c, 1, 77, 0
1, 49589, Note_off_c, 1, 67, 0
1, 49607, Note_off_c, 1, 76, 0
1, 49609, Note_off_c, 1, 72, 0
1, 49624, Note_off_c, 1, 60, 0
1, 49638, Note_on_c, 1, 67, 127
1, 49656, Note_on_c, 1, 60, 127
1, 49666, Note_on_c, 1, 74, 127
1, 49668, Note_on_c, 1, 71, 127
1, 49769, Note_on_c, 1, 69, 127
1, 49771, Note_off_c, 1, 71, 0
1, 49779, Note_on_c, 1, 72, 127
1, 49789, Note_off_c, 1, 74, 0
1, 49823, Note_off_c, 1, 67, 0
1, 49835, Note_off_c, 1, 69, 0
1, 49853, Note_off_c, 1, 72, 0
1, 49856, Note_off_c, 1, 60, 0
1, 49899, Note_on_c, 1, 67, 127
1, 49903, Note_on_c, 1, 55, 127
1, 49908, Note_on_c, 1, 71, 127
1, 49909, Note_on_c, 1, 74, 127
1, 50021, Note_on_c, 1, 76, 127
1, 50040, Note_off_c, 1, 74, 0
1, 50113, Note_off_c, 1, 76, 0
1, 50115, Note_off_c, 1, 55, 0
1, 50142, Note_on_c, 1, 53, 127
1, 50148, Note_on_c, 1, 77, 127
1, 50273, Note_off_c, 1, 77, 0
1, 50286, Note_off_c, 1, 71, 0
1, 50322, Note_off_c, 1, 53, 0
1, 50373, Note_on_c, 1, 52, 127
1, 50383, Note_on_c, 1, 79, 127
1, 50505, Note_off_c, 1, 79, 0
1, 50566, Note_off_c, 1, 52, 0
1, 50632, Note_on_c, 1, 69, 127
1, 50707, Note_off_c, 1, 69, 0
1, 50851, Note_on_c, 1, 72, 127
1, 50861, Note_on_c, 1, 48, 127
1, 50966, Note_off_c, 1, 72, 0
1, 51291, Note_off_c, 1, 48, 0
1, 51333, Note_on_c, 1, 60, 127
1, 51349, Note_on_c, 1, 81, 127
1, 51402, Note_off_c, 1, 67, 0
1, 51486, Note_off_c, 1, 81, 0
1, 51552, Note_off_c, 1, 60, 0
1, 51572, Note_on_c, 1, 60, 127
1, 51587, Note_on_c, 1, 77, 127
1, 51591, Note_on_c, 1, 74, 127
1, 51702, Note_off_c, 1, 77, 0
1, 51702, Note_on_c, 1, 76, 127
1, 51752, Note_off_c, 1, 74, 0
1, 51764, Note_off_c, 1, 60, 0
1, 51782, Note_off_c, 1, 76, 0
1, 51814, Note_on_c, 1, 60, 127
1, 51823, Note_on_c, 1, 79, 127
1, 51823, Note_on_c, 1, 76, 127
1, 51863, Note_on_c, 1, 74, 127
1, 51867, Note_off_c, 1, 76, 0
1, 51912, Note_off_c, 1, 74, 0
1, 51929, Note_on_c, 1, 78, 127
1, 51934, Note_off_c, 1, 79, 0
1, 52000, Note_off_c, 1, 78, 0
1, 52032, Note_off_c, 1, 60, 0
1, 52050, Note_on_c, 1, 59, 127
1, 52052, Note_on_c, 1, 76, 127
1, 52063, Note_on_c, 1, 72, 127
1, 52164, Note_on_c, 1, 71, 127
1, 52165, Note_off_c, 1, 72, 0
1, 52170, Note_off_c, 1, 76, 0
1, 52173, Note_on_c, 1, 74, 127
1, 52243, Note_off_c, 1, 71, 0
1, 52250, Note_off_c, 1, 74, 0
1, 52269, Note_off_c, 1, 59, 0
1, 52286, Note_on_c, 1, 57, 127
1, 52296, Note_on_c, 1, 76, 127
1, 52304, Note_on_c, 1, 72, 127
1, 52402, Note_off_c, 1, 76, 0
1, 52406, Note_on_c, 1, 74, 127
1, 52419, Note_off_c, 1, 72, 0
1, 52474, Note_off_c, 1, 57, 0
1, 52521, Note_off_c, 1, 74, 0
1, 52525, Note_on_c, 1, 55, 127
1, 52534, Note_on_c, 1, 72, 127
1, 52546, Note_on_c, 1, 76, 127
1, 52631, Note_off_c, 1, 76, 0
1, 52649, Note_on_c, 1, 74, 127
1, 52650, Note_on_c, 1, 71, 127
1, 52654, Note_off_c, 1, 72, 0
1, 52717, Note_off_c, 1, 71, 0
1, 52734, Note_off_c, 1, 55, 0
1, 52739, Note_off_c, 1, 74, 0
1, 52770, Note_on_c, 1, 78, 127
1, 52775, Note_on_c, 1, 60, 127
1, 52777, Note_on_c, 1, 69, 127
1, 52857, Note_off_c, 1, 69, 0
1, 52877, Note_off_c, 1, 60, 0
1, 52884, Note_on_c, 1, 76, 127
1, 52891, Note_off_c, 1, 78, 0
1, 52897, Note_on_c, 1, 57, 127
1, 52900, Note_on_c, 1, 67, 127
1, 52955, Note_off_c, 1, 76, 0
1, 52969, Note_off_c, 1, 67, 0
1, 52988, Note_off_c, 1, 57, 0
1, 53012, Note_on_c, 1, 59, 127
1, 53024, Note_on_c, 1, 79, 127
1, 53031, Note_on_c, 1, 83, 127
1, 53107, Note_off_c, 1, 59, 0
1, 53114, Note_off_c, 1, 83, 0
1, 53132, Note_off_c, 1, 79, 0
1, 53132, Note_on_c, 1, 60, 127
1, 53208, Note_off_c, 1, 60, 0
1, 53243, Note_on_c, 1, 62, 127
1, 53266, Note_on_c, 1, 79, 127
1, 53270, Note_on_c, 1, 71, 127
1, 53365, Note_off_c, 1, 79, 0
1, 53387, Note_off_c, 1, 71, 0
1, 53407, Note_off_c, 1, 62, 0
1, 53503, Note_on_c, 1, 50, 127
1, 53509, Note_on_c, 1, 81, 127
1, 53520, Note_on_c, 1, 72, 127
1, 53574, Note_off_c, 1, 81, 0
1, 53607, Note_off_c, 1, 72, 0
1, 53616, Note_on_c, 1, 78, 127
1, 53625, Note_on_c, 1, 69, 127
1, 53652, Note_off_c, 1, 50, 0
1, 53686, Note_off_c, 1, 78, 0
1, 53692, Note_off_c, 1, 69, 0
1, 53748, Note_on_c, 1, 79, 127
1, 53749, Note_on_c, 1, 43, 127
1, 53760, Note_on_c, 1, 71, 127
1, 54066, Note_off_c, 1, 79, 0
1, 54081, Note_off_c, 1, 71, 0
1, 54112, Note_off_c, 1, 43, 0
1, 54207, Note_on_c, 1, 60, 127
1, 54216, Note_on_c, 1, 67, 127
1, 54234, Note_on_c, 1, 64, 127
1, 54377, Note_off_c, 1, 67, 0
1, 54425, Note_off_c, 1, 64, 0
1, 54435, Note_off_c, 1, 60, 0
1, 54452, Note_on_c, 1, 60, 127
1, 54471, Note_on_c, 1, 69, 127
1, 54478, Note_on_c, 1, 65, 127
1, 54553, Note_off_c, 1, 69, 0
1, 54560, Note_off_c, 1, 65, 0
1, 54579, Note_on_c, 1, 71, 127
1, 54590, Note_on_c, 1, 62, 127
1, 54642, Note_off_c, 1, 60, 0
1, 54654, Note_off_c, 1, 71, 0
1, 54661, Note_off_c, 1, 62, 0
1, 54704, Note_on_c, 1, 72, 127
1, 54710, Note_on_c, 1, 60, 127
1, 54712, Note_on_c, 1, 64, 127
1, 54788, Note_off_c, 1, 72, 0
1, 54809, Note_off_c, 1, 64, 0
1, 54814, Note_on_c, 1, 74, 127
1, 54815, Note_on_c, 1, 65, 127
1, 54886, Note_off_c, 1, 74, 0
1, 54896, Note_off_c, 1, 65, 0
1, 54942, Note_on_c, 1, 67, 127
1, 54945, Note_on_c, 1, 76, 127
1, 55158, Note_off_c, 1, 60, 0
1, 55176, Note_on_c, 1, 55, 127
1, 55356, Note_off_c, 1, 76, 0
1, 55382, Note_off_c, 1, 67, 0
1, 55387, Note_off_c, 1, 55, 0
1, 55414, Note_on_c, 1, 67, 127
1, 55421, Note_on_c, 1, 74, 127
1, 55424, Note_on_c, 1, 55, 127
1, 55430, Note_on_c, 1, 65, 127
1, 55610, Note_off_c, 1, 74, 0
1, 55613, Note_off_c, 1, 55, 0
1, 55613, Note_off_c, 1, 65, 0
1, 55623, Note_off_c, 1, 67, 0
1, 55648, Note_on_c, 1, 72, 127
1, 55669, Note_on_c, 1, 57, 127
1, 55672, Note_on_c, 1, 67, 127
1, 55673, Note_on_c, 1, 76, 127
1, 55705, Note_on_c, 1, 65, 127
1, 55712, Note_on_c, 1, 74, 127
1, 55716, Note_off_c, 1, 67, 0
1, 55722, Note_off_c, 1, 76, 0
1, 55763, Note_off_c, 1, 65, 0
1, 55765, Note_off_c, 1, 74, 0
1, 55879, Note_off_c, 1, 72, 0
1, 55907, Note_on_c, 1, 64, 127
1, 56009, Note_on_c, 1, 62, 127
1, 56013, Note_off_c, 1, 64, 0
1, 56029, Note_on_c, 1, 71, 127
1, 56081, Note_off_c, 1, 57, 0
1, 56082, Note_off_c, 1, 62, 0
1, 56094, Note_off_c, 1, 71, 0
1, 56136, Note_on_c, 1, 64, 127
1, 56140, Note_on_c, 1, 72, 127
1, 56143, Note_on_c, 1, 57, 127
1, 56251, Note_on_c, 1, 74, 127
1, 56255, Note_on_c, 1, 67, 127
1, 56267, Note_off_c, 1, 72, 0
1, 56320, Note_off_c, 1, 67, 0
1, 56346, Note_off_c, 1, 57, 0
1, 56349, Note_off_c, 1, 64, 0
1, 56349, Note_off_c, 1, 74, 0
1, 56370, Note_on_c, 1, 60, 127
1, 56375, Note_on_c, 1, 57, 127
1, 56385, Note_on_c, 1, 72, 127
1, 56386, Note_on_c, 1, 76, 127
1, 56480, Note_off_c, 1, 72, 0
1, 56488, Note_off_c, 1, 76, 0
1, 56494, Note_on_c, 1, 74, 127
1, 56498, Note_on_c, 1, 71, 127
1, 56565, Note_off_c, 1, 57, 0
1, 56568, Note_off_c, 1, 71, 0
1, 56572, Note_off_c, 1, 74, 0
1, 56576, Note_off_c, 1, 60, 0
1, 56599, Note_on_c, 1, 67, 127
1, 56611, Note_on_c, 1, 74, 127
1, 56618, Note_on_c, 1, 77, 127
1, 56627, Note_on_c, 1, 59, 127
1, 56726, Note_off_c, 1, 77, 0
1, 56727, Note_off_c, 1, 74, 0
1, 56729, Note_on_c, 1, 72, 127
1, 56732, Note_on_c, 1, 76, 127
1, 56801, Note_off_c, 1, 72, 0
1, 56811, Note_off_c, 1, 67, 0
1, 56811, Note_off_c, 1, 76, 0
1, 56863, Note_on_c, 1, 81, 127
1, 56975, Note_on_c, 1, 79, 127
1, 56998, Note_off_c, 1, 81, 0
1, 57034, Note_off_c, 1, 59, 0
1, 57047, Note_off_c, 1, 79, 0
1, 57082, Note_on_c, 1, 67, 127
1, 57089, Note_on_c, 1, 60, 127
1, 57096, Note_on_c, 1, 74, 127
1, 57097, Note_on_c, 1, 77, 127
1, 57207, Note_off_c, 1, 74, 0
1, 57213, Note_on_c, 1, 72, 127
1, 57214, Note_off_c, 1, 77, 0
1, 57217, Note_on_c, 1, 76, 127
1, 57269, Note_off_c, 1, 67, 0
1, 57285, Note_off_c, 1, 72, 0
1, 57293, Note_off_c, 1, 76, 0
1, 57313, Note_off_c, 1, 60, 0
1, 57316, Note_on_c, 1, 67, 127
1, 57338, Note_on_c, 1, 71, 127
1, 57342, Note_on_c, 1, 60, 127
1, 57349, Note_on_c, 1, 74, 127
1, 57434, Note_off_c, 1, 71, 0
1, 57453, Note_on_c, 1, 69, 127
1, 57462, Note_on_c, 1, 72, 127
1, 57466, Note_off_c, 1, 74, 0
1, 57499, Note_off_c, 1, 67, 0
1, 57521, Note_off_c, 1, 69, 0
1, 57538, Note_off_c, 1, 60, 0
1, 57540, Note_off_c, 1, 72, 0
1, 57573, Note_on_c, 1, 67, 127
1, 57580, Note_on_c, 1, 71, 127
1, 57584, Note_on_c, 1, 55, 127
1, 57586, Note_on_c, 1, 74, 127
1, 57699, Note_on_c, 1, 76, 127
1, 57711, Note_off_c, 1, 74, 0
1, 57773, Note_off_c, 1, 76, 0
1, 57799, Note_off_c, 1, 55, 0
1, 57819, Note_on_c, 1, 53, 127
1, 57826, Note_on_c, 1, 77, 127
1, 57928, Note_off_c, 1, 77, 0
1, 57972, Note_off_c, 1, 71, 0
1, 58003, Note_off_c, 1, 53, 0
1, 58051, Note_on_c, 1, 52, 127
1, 58064, Note_on_c, 1, 79, 127
1, 58185, Note_off_c, 1, 79, 0
1, 58249, Note_off_c, 1, 52, 0
1, 58296, Note_on_c, 1, 69, 127
1, 58372, Note_off_c, 1, 69, 0
1, 58532, Note_on_c, 1, 48, 127
1, 58542, Note_on_c, 1, 72, 127
1, 58630, Note_off_c, 1, 72, 0
1, 58956, Note_off_c, 1, 48, 0
1, 59018, Note_on_c, 1, 81, 127
1, 59020, Note_on_c, 1, 60, 127
1, 59047, Note_off_c, 1, 67, 0
1, 59131, Note_off_c, 1, 81, 0
1, 59221, Note_off_c, 1, 60, 0
1, 59250, Note_on_c, 1, 60, 127
1, 59257, Note_on_c, 1, 77, 127
1, 59274, Note_on_c, 1, 74, 127
1, 59367, Note_off_c, 1, 77, 0
1, 59371, Note_on_c, 1, 76, 127
1, 59423, Note_off_c, 1, 60, 0
1, 59445, Note_off_c, 1, 76, 0
1, 59448, Note_off_c, 1, 74, 0
1, 59492, Note_on_c, 1, 60, 127
1, 59492, Note_on_c, 1, 79, 127
1, 59509, Note_on_c, 1, 76, 127
1, 59538, Note_on_c, 1, 74, 127
1, 59550, Note_off_c, 1, 76, 0
1, 59600, Note_off_c, 1, 79, 0
1, 59600, Note_off_c, 1, 74, 0
1, 59603, Note_on_c, 1, 78, 127
1, 59676, Note_off_c, 1, 78, 0
1, 59708, Note_off_c, 1, 60, 0
1, 59731, Note_on_c, 1, 59, 127
1, 59738, Note_on_c, 1, 76, 127
1, 59757, Note_on_c, 1, 72, 127
1, 59845, Note_off_c, 1, 76, 0
1, 59851, Note_off_c, 1, 72, 0
1, 59855, Note_on_c, 1, 74, 127
1, 59867, Note_on_c, 1, 71, 127
1, 59930, Note_off_c, 1, 74, 0
1, 59936, Note_off_c, 1, 71, 0
1, 59944, Note_off_c, 1, 59, 0
1, 59976, Note_on_c, 1, 76, 127
1, 59982, Note_on_c, 1, 72, 127
1, 59986, Note_on_c, 1, 57, 127
1, 60087, Note_on_c, 1, 74, 127
1, 60088, Note_off_c, 1, 76, 0
1, 60094, Note_off_c, 1, 72, 0
1, 60160, Note_off_c, 1, 57, 0
1, 60200, Note_off_c, 1, 74, 0
1, 60218, Note_on_c, 1, 55, 127
1, 60218, Note_on_c, 1, 72, 127
1, 60227, Note_on_c, 1, 76, 127
1, 60320, Note_off_c, 1, 72, 0
1, 60326, Note_on_c, 1, 71, 127
1, 60330, Note_off_c, 1, 76, 0
1, 60336, Note_on_c, 1, 74, 127
1, 60402, Note_off_c, 1, 55, 0
1, 60402, Note_off_c, 1, 71, 0
1, 60432, Note_off_c, 1, 74, 0
1, 60461, Note_on_c, 1, 69, 127
1, 60461, Note_on_c, 1, 78, 127
1, 60463, Note_on_c, 1, 60, 127
1, 60528, Note_off_c, 1, 69, 0
1, 60552, Note_off_c, 1, 60, 0
1, 60574, Note_on_c, 1, 76, 127
1, 60576, Note_on_c, 1, 67, 127
1, 60579, Note_off_c, 1, 78, 0
1, 60582, Note_on_c, 1, 57, 127
1, 60633, Note_off_c, 1, 67, 0
1, 60650, Note_off_c, 1, 76, 0
1, 60661, Note_off_c, 1, 57, 0
1, 60695, Note_on_c, 1, 59, 127
1, 60702, Note_on_c, 1, 83, 127
1, 60705, Note_on_c, 1, 79, 127
1, 60782, Note_off_c, 1, 59, 0
1, 60782, Note_off_c, 1, 83, 0
1, 60803, Note_on_c, 1, 60, 127
1, 60816, Note_off_c, 1, 79, 0
1, 60879, Note_off_c, 1, 60, 0
1, 60913, Note_on_c, 1, 62, 127
1, 60944, Note_on_c, 1, 79, 127
1, 60945, Note_on_c, 1, 71, 127
1, 61052, Note_off_c, 1, 71, 0
1, 61055, Note_off_c, 1, 79, 0
1, 61079, Note_off_c, 1, 62, 0
1, 61183, Note_on_c, 1, 50, 127
1, 61184, Note_on_c, 1, 72, 127
1, 61188, Note_on_c, 1, 81, 127
1, 61259, Note_off_c, 1, 72, 0
1, 61272, Note_off_c, 1, 81, 0
1, 61292, Note_on_c, 1, 78, 127
1, 61297, Note_on_c, 1, 69, 127
1, 61321, Note_off_c, 1, 50, 0
1, 61351, Note_off_c, 1, 78, 0
1, 61377, Note_off_c, 1, 69, 0
1, 61425, Note_on_c, 1, 79, 127
1, 61429, Note_on_c, 1, 43, 127
1, 61443, Note_on_c, 1, 71, 127
1, 61708, Note_off_c, 1, 79, 0
1, 61726, Note_off_c, 1, 71, 0
1, 61821, Note_off_c, 1, 43, 0
1, 61907, Note_on_c, 1, 55, 127
1, 61912, Note_on_c, 1, 74, 127
1, 61939, Note_on_c, 1, 71, 127
1, 62101, Note_off_c, 1, 74, 0
1, 62109, Note_off_c, 1, 71, 0
1, 62115, Note_off_c, 1, 55, 0
1, 62139, Note_on_c, 1, 67, 127
1, 62140, Note_on_c, 1, 71, 127
1, 62143, Note_on_c, 1, 55, 127
1, 62250, Note_off_c, 1, 67, 0
1, 62256, Note_on_c, 1, 72, 127
1, 62262, Note_off_c, 1, 71, 0
1, 62262, Note_on_c, 1, 69, 127
1, 62331, Note_off_c, 1, 55, 0
1, 62335, Note_off_c, 1, 69, 0
1, 62339, Note_off_c, 1, 72, 0
1, 62377, Note_on_c, 1, 71, 127
1, 62380, Note_on_c, 1, 74, 127
1, 62388, Note_on_c, 1, 53, 127
1, 62482, Note_off_c, 1, 71, 0
1, 62484, Note_off_c, 1, 74, 0
1, 62496, Note_on_c, 1, 73, 127
1, 62497, Note_on_c, 1, 76, 127
1, 62563, Note_off_c, 1, 73, 0
1, 62576, Note_off_c, 1, 76, 0
1, 62608, Note_on_c, 1, 62, 127
1, 62616, Note_on_c, 1, 77, 127
1, 62781, Note_off_c, 1, 62, 0
1, 62791, Note_off_c, 1, 53, 0
1, 62850, Note_on_c, 1, 65, 127
1, 62861, Note_on_c, 1, 57, 127
1, 62997, Note_off_c, 1, 65, 0
1, 63066, Note_off_c, 1, 77, 0
1, 63076, Note_off_c, 1, 57, 0
1, 63087, Note_on_c, 1, 69, 127
1, 63095, Note_on_c, 1, 57, 127
1, 63116, Note_on_c, 1, 73, 127
1, 63119, Note_on_c, 1, 76, 127
1, 63239, Note_off_c, 1, 69, 0
1, 63277, Note_off_c, 1, 76, 0
1, 63286, Note_off_c, 1, 73, 0
1, 63322, Note_off_c, 1, 57, 0
1, 63336, Note_on_c, 1, 74, 127
1, 63347, Note_on_c, 1, 50, 127
1, 63362, Note_on_c, 1, 77, 127
1, 63470, Note_on_c, 1, 79, 127
1, 63471, Note_on_c, 1, 76, 127
1, 63495, Note_off_c, 1, 77, 0
1, 63512, Note_off_c, 1, 74, 0
1, 63545, Note_off_c, 1, 79, 0
1, 63553, Note_off_c, 1, 76, 0
1, 63570, Note_on_c, 1, 69, 127
1, 63584, Note_on_c, 1, 81, 127
1, 63708, Note_off_c, 1, 81, 0
1, 63730, Note_off_c, 1, 69, 0
1, 63746, Note_off_c, 1, 50, 0
1, 63806, Note_on_c, 1, 65, 127
1, 63819, Note_on_c, 1, 62, 127
1, 63826, Note_on_c, 1, 82, 127
1, 63944, Note_off_c, 1, 82, 0
1, 63963, Note_off_c, 1, 65, 0
1, 64039, Note_off_c, 1, 62, 0
1, 64053, Note_on_c, 1, 76, 127
1, 64054, Note_on_c, 1, 62, 127
1, 64067, Note_on_c, 1, 79, 127
1, 64140, Note_off_c, 1, 76, 0
1, 64171, Note_on_c, 1, 74, 127
1, 64183, Note_on_c, 1, 77, 127
1, 64189, Note_off_c, 1, 79, 0
1, 64249, Note_off_c, 1, 74, 0
1, 64257, Note_off_c, 1, 62, 0
1, 64268, Note_off_c, 1, 77, 0
1, 64290, Note_on_c, 1, 69, 127
1, 64294, Note_on_c, 1, 76, 127
1, 64303, Note_on_c, 1, 61, 127
1, 64304, Note_on_c, 1, 79, 127
1, 64412, Note_on_c, 1, 74, 127
1, 64424, Note_on_c, 1, 77, 127
1, 64430, Note_off_c, 1, 76, 0
1, 64440, Note_off_c, 1, 79, 0
1, 64480, Note_off_c, 1, 69, 0
1, 64510, Note_off_c, 1, 77, 0
1, 64546, Note_on_c, 1, 73, 127
1, 64553, Note_off_c, 1, 74, 0
1, 64667, Note_off_c, 1, 73, 0
1, 64732, Note_off_c, 1, 61, 0
1, 64771, Note_on_c, 1, 69, 127
1, 64782, Note_on_c, 1, 57, 127
1, 64786, Note_on_c, 1, 76, 127
1, 64797, Note_on_c, 1, 79, 127
1, 64896, Note_on_c, 1, 74, 127
1, 64909, Note_on_c, 1, 77, 127
1, 64911, Note_off_c, 1, 76, 0
1, 64935, Note_off_c, 1, 79, 0
1, 64945, Note_off_c, 1, 69, 0
1, 64981, Note_off_c, 1, 57, 0
1, 64998, Note_off_c, 1, 77, 0
1, 65032, Note_off_c, 1, 74, 0
1, 65145, Note_on_c, 1, 73, 127
1, 65220, Note_off_c, 1, 73, 0
1, 65256, Note_on_c, 1, 69, 127
1, 65262, Note_on_c, 1, 79, 127
1, 65267, Note_on_c, 1, 62, 127
1, 65268, Note_on_c, 1, 74, 127
1, 65380, Note_on_c, 1, 77, 127
1, 65414, Note_off_c, 1, 79, 0
1, 65421, Note_off_c, 1, 74, 0
1, 65453, Note_off_c, 1, 62, 0
1, 65512, Note_on_c, 1, 60, 127
1, 65515, Note_on_c, 1, 76, 127
1, 65537, Note_off_c, 1, 77, 0
1, 65635, Note_off_c, 1, 76, 0
1, 65658, Note_off_c, 1, 60, 0
1, 65738, Note_on_c, 1, 59, 127
1, 65872, Note_on_c, 1, 72, 127
1, 65882, Note_off_c, 1, 59, 0
1, 65995, Note_on_c, 1, 57, 127
1, 65999, Note_on_c, 1, 71, 127
1, 66004, Note_off_c, 1, 72, 0
1, 66098, Note_off_c, 1, 71, 0
1, 66137, Note_off_c, 1, 57, 0
1, 66227, Note_on_c, 1, 55, 127
1, 66284, Note_off_c, 1, 69, 0
1, 66366, Note_off_c, 1, 55, 0
1, 66451, Note_on_c, 1, 53, 127
1, 66576, Note_on_c, 1, 67, 127
1, 66598, Note_off_c, 1, 53, 0
1, 66687, Note_off_c, 1, 67, 0
1, 66697, Note_on_c, 1, 52, 127
1, 66827, Note_off_c, 1, 52, 0
1, 66932, Note_on_c, 1, 50, 127
1, 67079, Note_off_c, 1, 50, 0
1, 67178, Note_on_c, 1, 48, 127
1, 67320, Note_off_c, 1, 48, 0
1, 67412, Note_on_c, 1, 45, 127
1, 67553, Note_off_c, 1, 45, 0
1, 67649, Note_on_c, 1, 64, 127
1, 67658, Note_on_c, 1, 43, 127
1, 67788, Note_off_c, 1, 64, 0
1, 67799, Note_off_c, 1, 43, 0
1, 67894, Note_on_c, 1, 81, 127
1, 67894, Note_on_c, 1, 41, 127
1, 68008, Note_off_c, 1, 81, 0
1, 68028, Note_off_c, 1, 41, 0
1, 68117, Note_on_c, 1, 72, 127
1, 68135, Note_on_c, 1, 40, 127
1, 68137, Note_on_c, 1, 82, 127
1, 68243, Note_on_c, 1, 81, 127
1, 68258, Note_off_c, 1, 82, 0
1, 68273, Note_off_c, 1, 40, 0
1, 68329, Note_off_c, 1, 81, 0
1, 68369, Note_on_c, 1, 67, 127
1, 68369, Note_on_c, 1, 79, 127
1, 68369, Note_on_c, 1, 38, 127
1, 68486, Note_off_c, 1, 79, 0
1, 68492, Note_off_c, 1, 38, 0
1, 68512, Note_off_c, 1, 67, 0
1, 68618, Note_on_c, 1, 64, 127
1, 68688, Note_off_c, 1, 72, 0
1, 68719, Note_on_c, 1, 76, 127
1, 68742, Note_off_c, 1, 64, 0
1, 68840, Note_on_c, 1, 74, 127
1, 68842, Note_on_c, 1, 41, 127
1, 68849, Note_on_c, 1, 60, 127
1, 68854, Note_off_c, 1, 76, 0
1, 68854, Note_on_c, 1, 77, 127
1, 68977, Note_off_c, 1, 41, 0
1, 68978, Note_off_c, 1, 74, 0
1, 68980, Note_off_c, 1, 77, 0
1, 68987, Note_off_c, 1, 60, 0
1, 69075, Note_on_c, 1, 67, 127
1, 69095, Note_on_c, 1, 43, 127
1, 69096, Note_on_c, 1, 74, 127
1, 69096, Note_on_c, 1, 71, 127
1, 69211, Note_on_c, 1, 69, 127
1, 69216, Note_on_c, 1, 72, 127
1, 69218, Note_off_c, 1, 71, 0
1, 69224, Note_off_c, 1, 74, 0
1, 69278, Note_off_c, 1, 67, 0
1, 69291, Note_off_c, 1, 72, 0
1, 69305, Note_off_c, 1, 69, 0
1, 69452, Note_on_c, 1, 65, 127
1, 69461, Note_off_c, 1, 43, 0
1, 69521, Note_off_c, 1, 65, 0
1, 69570, Note_on_c, 1, 67, 127
1, 69576, Note_on_c, 1, 60, 127
1, 69576, Note_on_c, 1, 64, 127
1, 69691, Note_on_c, 1, 62, 127
1, 69696, Note_off_c, 1, 64, 0
1, 69776, Note_off_c, 1, 62, 0
1, 69788, Note_off_c, 1, 60, 0
1, 69789, Note_off_c, 1, 67, 0
1, 69822, Note_on_c, 1, 60, 127
1, 69824, Note_on_c, 1, 67, 127
1, 69838, Note_on_c, 1, 69, 127
1, 69910, Note_off_c, 1, 69, 0
1, 69946, Note_on_c, 1, 71, 127
1, 69948, Note_on_c, 1, 62, 127
1, 69973, Note_off_c, 1, 67, 0
1, 69998, Note_off_c, 1, 60, 0
1, 70025, Note_off_c, 1, 62, 0
1, 70028, Note_off_c, 1, 71, 0
1, 70066, Note_on_c, 1, 67, 127
1, 70071, Note_on_c, 1, 60, 127
1, 70073, Note_on_c, 1, 72, 127
1, 70084, Note_on_c, 1, 64, 127
1, 70149, Note_off_c, 1, 64, 0
1, 70151, Note_off_c, 1, 72, 0
1, 70186, Note_on_c, 1, 65, 127
1, 70187, Note_on_c, 1, 74, 127
1, 70250, Note_off_c, 1, 74, 0
1, 70254, Note_off_c, 1, 65, 0
1, 70318, Note_on_c, 1, 76, 127
1, 70483, Note_off_c, 1, 60, 0
1, 70549, Note_on_c, 1, 55, 127
1, 70740, Note_off_c, 1, 67, 0
1, 70742, Note_off_c, 1, 55, 0
1, 70745, Note_off_c, 1, 76, 0
1, 70760, Note_on_c, 1, 67, 127
1, 70791, Note_on_c, 1, 74, 127
1, 70792, Note_on_c, 1, 65, 127
1, 70797, Note_on_c, 1, 55, 127
1, 70836, Note_on_c, 1, 64, 127
1, 70856, Note_off_c, 1, 67, 0
1, 70928, Note_off_c, 1, 64, 0
1, 70948, Note_off_c, 1, 55, 0
1, 70964, Note_off_c, 1, 65, 0
1, 70976, Note_off_c, 1, 74, 0
1, 71025, Note_on_c, 1, 72, 127
1, 71026, Note_on_c, 1, 57, 127
1, 71033, Note_on_c, 1, 76, 127
1, 71034, Note_on_c, 1, 67, 127
1, 71077, Note_on_c, 1, 65, 127
1, 71078, Note_on_c, 1, 74, 127
1, 71086, Note_off_c, 1, 67, 0
1, 71095, Note_off_c, 1, 76, 0
1, 71131, Note_off_c, 1, 65, 0
1, 71134, Note_off_c, 1, 74, 0
1, 71155, Note_off_c, 1, 72, 0
1, 71276, Note_on_c, 1, 64, 127
1, 71378, Note_on_c, 1, 62, 127
1, 71386, Note_on_c, 1, 71, 127
1, 71394, Note_off_c, 1, 64, 0
1, 71422, Note_off_c, 1, 57, 0
1, 71448, Note_off_c, 1, 62, 0
1, 71471, Note_off_c, 1, 71, 0
1, 71497, Note_on_c, 1, 64, 127
1, 71501, Note_on_c, 1, 57, 127
1, 71520, Note_on_c, 1, 72, 127
1, 71624, Note_on_c, 1, 74, 127
1, 71628, Note_off_c, 1, 72, 0
1, 71628, Note_on_c, 1, 67, 127
1, 71632, Note_off_c, 1, 64, 0
1, 71689, Note_off_c, 1, 67, 0
1, 71706, Note_off_c, 1, 74, 0
1, 71715, Note_off_c, 1, 57, 0
1, 71737, Note_on_c, 1, 60, 127
1, 71745, Note_on_c, 1, 76, 127
1, 71746, Note_on_c, 1, 57, 127
1, 71754, Note_on_c, 1, 72, 127
1, 71851, Note_off_c, 1, 72, 0
1, 71858, Note_off_c, 1, 76, 0
1, 71859, Note_on_c, 1, 74, 127
1, 71862, Note_on_c, 1, 71, 127
1, 71876, Note_off_c, 1, 60, 0
1, 71933, Note_off_c, 1, 57, 0
1, 71938, Note_off_c, 1, 74, 0
1, 71941, Note_off_c, 1, 71, 0
1, 71966, Note_on_c, 1, 67, 127
1, 71976, Note_on_c, 1, 59, 127
1, 71979, Note_on_c, 1, 77, 127
1, 71982, Note_on_c, 1, 74, 127
1, 72093, Note_off_c, 1, 74, 0
1, 72094, Note_on_c, 1, 72, 127
1, 72096, Note_on_c, 1, 76, 127
1, 72102, Note_off_c, 1, 77, 0
1, 72164, Note_off_c, 1, 67, 0
1, 72169, Note_off_c, 1, 72, 0
1, 72169, Note_off_c, 1, 76, 0
1, 72231, Note_on_c, 1, 81, 127
1, 72349, Note_on_c, 1, 79, 127
1, 72375, Note_off_c, 1, 81, 0
1, 72378, Note_off_c, 1, 59, 0
1, 72426, Note_off_c, 1, 79, 0
1, 72453, Note_on_c, 1, 67, 127
1, 72455, Note_on_c, 1, 60, 127
1, 72461, Note_on_c, 1, 74, 127
1, 72463, Note_on_c, 1, 77, 127
1, 72569, Note_off_c, 1, 74, 0
1, 72580, Note_on_c, 1, 76, 127
1, 72582, Note_on_c, 1, 72, 127
1, 72587, Note_off_c, 1, 77, 0
1, 72616, Note_off_c, 1, 67, 0
1, 72654, Note_off_c, 1, 72, 0
1, 72658, Note_off_c, 1, 76, 0
1, 72663, Note_off_c, 1, 60, 0
1, 72694, Note_on_c, 1, 67, 127
1, 72706, Note_on_c, 1, 71, 127
1, 72709, Note_on_c, 1, 60, 127
1, 72710, Note_on_c, 1, 74, 127
1, 72800, Note_off_c, 1, 71, 0
1, 72813, Note_on_c, 1, 69, 127
1, 72823, Note_on_c, 1, 72, 127
1, 72836, Note_off_c, 1, 74, 0
1, 72859, Note_off_c, 1, 67, 0
1, 72883, Note_off_c, 1, 69, 0
1, 72884, Note_off_c, 1, 60, 0
1, 72901, Note_off_c, 1, 72, 0
1, 72936, Note_on_c, 1, 67, 127
1, 72942, Note_on_c, 1, 71, 127
1, 72953, Note_on_c, 1, 55, 127
1, 72954, Note_on_c, 1, 74, 127
1, 73061, Note_on_c, 1, 76, 127
1, 73071, Note_off_c, 1, 74, 0
1, 73146, Note_off_c, 1, 76, 0
1, 73157, Note_off_c, 1, 55, 0
1, 73183, Note_on_c, 1, 77, 127
1, 73186, Note_on_c, 1, 53, 127
1, 73306, Note_off_c, 1, 77, 0
1, 73338, Note_off_c, 1, 71, 0
1, 73350, Note_off_c, 1, 53, 0
1, 73423, Note_on_c, 1, 52, 127
1, 73429, Note_on_c, 1, 79, 127
1, 73546, Note_off_c, 1, 79, 0
1, 73561, Note_off_c, 1, 52, 0
1, 73672, Note_on_c, 1, 69, 127
1, 73741, Note_off_c, 1, 69, 0
1, 73896, Note_on_c, 1, 48, 127
1, 73902, Note_on_c, 1, 72, 127
1, 73992, Note_off_c, 1, 72, 0
1, 74340, Note_off_c, 1, 48, 0
1, 74378, Note_on_c, 1, 60, 127
1, 74390, Note_on_c, 1, 81, 127
1, 74400, Note_off_c, 1, 67, 0
1, 74517, Note_off_c, 1, 81, 0
1, 74590, Note_off_c, 1, 60, 0
1, 74607, Note_on_c, 1, 60, 127
1, 74625, Note_on_c, 1, 77, 127
1, 74628, Note_on_c, 1, 74, 127
1, 74739, Note_off_c, 1, 77, 0
1, 74739, Note_on_c, 1, 76, 127
1, 74783, Note_off_c, 1, 60, 0
1, 74794, Note_off_c, 1, 74, 0
1, 74823, Note_off_c, 1, 76, 0
1, 74852, Note_on_c, 1, 60, 127
1, 74856, Note_on_c, 1, 76, 127
1, 74869, Note_on_c, 1, 79, 127
1, 74898, Note_on_c, 1, 74, 127
1, 74909, Note_off_c, 1, 76, 0
1, 74952, Note_off_c, 1, 74, 0
1, 74975, Note_on_c, 1, 77, 127
1, 74988, Note_off_c, 1, 79, 0
1, 75058, Note_off_c, 1, 77, 0
1, 75060, Note_off_c, 1, 60, 0
1, 75091, Note_on_c, 1, 59, 127
1, 75101, Note_on_c, 1, 76, 127
1, 75107, Note_on_c, 1, 72, 127
1, 75211, Note_off_c, 1, 76, 0
1, 75213, Note_off_c, 1, 72, 0
1, 75221, Note_on_c, 1, 74, 127
1, 75222, Note_on_c, 1, 71, 127
1, 75276, Note_off_c, 1, 59, 0
1, 75288, Note_off_c, 1, 71, 0
1, 75296, Note_off_c, 1, 74, 0
1, 75333, Note_on_c, 1, 57, 127
1, 75344, Note_on_c, 1, 72, 127
1, 75350, Note_on_c, 1, 76, 127
1, 75444, Note_on_c, 1, 74, 127
1, 75449, Note_off_c, 1, 72, 0
1, 75458, Note_off_c, 1, 76, 0
1, 75532, Note_off_c, 1, 57, 0
1, 75568, Note_on_c, 1, 55, 127
1, 75573, Note_off_c, 1, 74, 0
1, 75686, Note_on_c, 1, 71, 127
1, 75764, Note_off_c, 1, 55, 0
1, 75772, Note_off_c, 1, 71, 0
1, 75816, Note_on_c, 1, 77, 127
1, 75823, Note_on_c, 1, 69, 127
1, 75827, Note_on_c, 1, 53, 127
1, 75895, Note_off_c, 1, 69, 0
1, 75931, Note_on_c, 1, 67, 127
1, 75933, Note_on_c, 1, 76, 127
1, 75952, Note_off_c, 1, 77, 0
1, 76011, Note_off_c, 1, 53, 0
1, 76037, Note_off_c, 1, 67, 0
1, 76059, Note_on_c, 1, 79, 127
1, 76061, Note_on_c, 1, 74, 127
1, 76065, Note_off_c, 1, 76, 0
1, 76069, Note_on_c, 1, 52, 127
1, 76157, Note_off_c, 1, 52, 0
1, 76164, Note_off_c, 1, 79, 0
1, 76164, Note_off_c, 1, 74, 0
1, 76171, Note_on_c, 1, 72, 127
1, 76174, Note_on_c, 1, 53, 127
1, 76253, Note_off_c, 1, 53, 0
1, 76260, Note_off_c, 1, 72, 0
1, 76300, Note_on_c, 1, 64, 127
1, 76304, Note_on_c, 1, 55, 127
1, 76305, Note_on_c, 1, 72, 127
1, 76409, Note_off_c, 1, 72, 0
1, 76421, Note_off_c, 1, 64, 0
1, 76423, Note_off_c, 1, 55, 0
1, 76537, Note_on_c, 1, 43, 127
1, 76539, Note_on_c, 1, 65, 127
1, 76550, Note_on_c, 1, 74, 127
1, 76630, Note_off_c, 1, 65, 0
1, 76639, Note_off_c, 1, 74, 0
1, 76656, Note_on_c, 1, 71, 127
1, 76656, Note_on_c, 1, 62, 127
1, 76677, Note_off_c, 1, 43, 0
1, 76718, Note_off_c, 1, 71, 0
1, 76724, Note_off_c, 1, 62, 0
1, 76783, Note_on_c, 1, 64, 127
1, 76792, Note_on_c, 1, 72, 127
1, 76793, Note_on_c, 1, 48, 127
1, 77078, Note_off_c, 1, 72, 0
1, 77130, Note_off_c, 1, 64, 0
1, 77185, Note_off_c, 1, 48, 0
1, 77267, Note_on_c, 1, 55, 127
1, 77272, Note_on_c, 1, 74, 127
1, 77299, Note_on_c, 1, 71, 127
1, 77461, Note_off_c, 1, 74, 0
1, 77469, Note_off_c, 1, 71, 0
1, 77475, Note_off_c, 1, 55, 0
1, 77499, Note_on_c, 1, 67, 127
1, 77500, Note_on_c, 1, 71, 127
1, 77503, Note_on_c, 1, 55, 127
1, 77610, Note_off_c, 1, 67, 0
1, 77616, Note_on_c, 1, 72, 127
1, 77622, Note_off_c, 1, 71, 0
1, 77622, Note_on_c, 1, 69, 127
1, 77691, Note_off_c, 1, 55, 0
1, 77695, Note_off_c, 1, 69, 0
1, 77699, Note_off_c, 1, 72, 0
1, 77737, Note_on_c, 1, 71, 127
1, 77740, Note_on_c, 1, 74, 127
1, 77748, Note_on_c, 1, 53, 127
1, 77842, Note_off_c, 1, 71, 0
1, 77844, Note_off_c, 1, 74, 0
1, 77856, Note_on_c, 1, 73, 127
1, 77857, Note_on_c, 1, 76, 127
1, 77923, Note_off_c, 1, 73, 0
1, 77936, Note_off_c, 1, 76, 0
1, 77968, Note_on_c, 1, 62, 127
1, 77976, Note_on_c, 1, 77, 127
1, 78141, Note_off_c, 1, 62, 0
1, 78151, Note_off_c, 1, 53, 0
1, 78210, Note_on_c, 1, 65, 127
1, 78221, Note_on_c, 1, 57, 127
1, 78357, Note_off_c, 1, 65, 0
1, 78426, Note_off_c, 1, 77, 0
1, 78436, Note_off_c, 1, 57, 0
1, 78447, Note_on_c, 1, 69, 127
1, 78455, Note_on_c, 1, 57, 127
1, 78476, Note_on_c, 1, 73, 127
1, 78479, Note_on_c, 1, 76, 127
1, 78599, Note_off_c, 1, 69, 0
1, 78637, Note_off_c, 1, 76, 0
1, 78646, Note_off_c, 1, 73, 0
1, 78682, Note_off_c, 1, 57, 0
1, 78696, Note_on_c, 1, 74, 127
1, 78707, Note_on_c, 1, 50, 127
1, 78722, Note_on_c, 1, 77, 127
1, 78830, Note_on_c, 1, 79, 127
1, 78831, Note_on_c, 1, 76, 127
1, 78855, Note_off_c, 1, 77, 0
1, 78872, Note_off_c, 1, 74, 0
1, 78905, Note_off_c, 1, 79, 0
1, 78913, Note_off_c, 1, 76, 0
1, 78930, Note_on_c, 1, 69, 127
1, 78944, Note_on_c, 1, 81, 127
1, 79068, Note_off_c, 1, 81, 0
1, 79090, Note_off_c, 1, 69, 0
1, 79106, Note_off_c, 1, 50, 0
1, 79166, Note_on_c, 1, 65, 127
1, 79179, Note_on_c, 1, 62, 127
1, 79186, Note_on_c, 1, 82, 127
1, 79304, Note_off_c, 1, 82, 0
1, 79323, Note_off_c, 1, 65, 0
1, 79399, Note_off_c, 1, 62, 0
1, 79413, Note_on_c, 1, 76, 127
1, 79414, Note_on_c, 1, 62, 127
1, 79427, Note_on_c, 1, 79, 127
1, 79500, Note_off_c, 1, 76, 0
1, 79531, Note_on_c, 1, 74, 127
1, 79543, Note_on_c, 1, 77, 127
1, 79549, Note_off_c, 1, 79, 0
1, 79609, Note_off_c, 1, 74, 0
1, 79617, Note_off_c, 1, 62, 0
1, 79628, Note_off_c, 1, 77, 0
1, 79650, Note_on_c, 1, 69, 127
1, 79654, Note_on_c, 1, 76, 127
1, 79663, Note_on_c, 1, 61, 127
1, 79664, Note_on_c, 1, 79, 127
1, 79772, Note_on_c, 1, 74, 127
1, 79784, Note_on_c, 1, 77, 127
1, 79790, Note_off_c, 1, 76, 0
1, 79800, Note_off_c, 1, 79, 0
1, 79840, Note_off_c, 1, 69, 0
1, 79870, Note_off_c, 1, 77, 0
1, 79906, Note_on_c, 1, 73, 127
1, 79913, Note_off_c, 1, 74, 0
1, 80027, Note_off_c, 1, 73, 0
1, 80092, Note_off_c, 1, 61, 0
1, 80131, Note_on_c, 1, 69, 127
1, 80142, Note_on_c, 1, 57, 127
1, 80146, Note_on_c, 1, 76, 127
1, 80157, Note_on_c, 1, 79, 127
1, 80256, Note_on_c, 1, 74, 127
1, 80269, Note_on_c, 1, 77, 127
1, 80271, Note_off_c, 1, 76, 0
1, 80295, Note_off_c, 1, 79, 0
1, 80305, Note_off_c, 1, 69, 0
1, 80341, Note_off_c, 1, 57, 0
1, 80358, Note_off_c, 1, 77, 0
1, 80392, Note_off_c, 1, 74, 0
1, 80505, Note_on_c, 1, 73, 127
1, 80580, Note_off_c, 1, 73, 0
1, 80616, Note_on_c, 1, 69, 127
1, 80622, Note_on_c, 1, 79, 127
1, 80627, Note_on_c, 1, 62, 127
1, 80628, Note_on_c, 1, 74, 127
1, 80740, Note_on_c, 1, 77, 127
1, 80774, Note_off_c, 1, 79, 0
1, 80781, Note_off_c, 1, 74, 0
1, 80813, Note_off_c, 1, 62, 0
1, 80872, Note_on_c, 1, 60, 127
1, 80875, Note_on_c, 1, 76, 127
1, 80897, Note_off_c, 1, 77, 0
1, 80995, Note_off_c, 1, 76, 0
1, 81018, Note_off_c, 1, 60, 0
1, 81098, Note_on_c, 1, 59, 127
1, 81232, Note_on_c, 1, 72, 127
1, 81242, Note_off_c, 1, 59, 0
1, 81355, Note_on_c, 1, 57, 127
1, 81359, Note_on_c, 1, 71, 127
1, 81364, Note_off_c, 1, 72, 0
1, 81458, Note_off_c, 1, 71, 0
1, 81497, Note_off_c, 1, 57, 0
1, 81587, Note_on_c, 1, 55, 127
1, 81644, Note_off_c, 1, 69, 0
1, 81726, Note_off_c, 1, 55, 0
1, 81811, Note_on_c, 1, 53, 127
1, 81936, Note_on_c, 1, 67, 127
1, 81958, Note_off_c, 1, 53, 0
1, 82047, Note_off_c, 1, 67, 0
1, 82057, Note_on_c, 1, 52, 127
1, 82187, Note_off_c, 1, 52, 0
1, 82292, Note_on_c, 1, 50, 127
1, 82439, Note_off_c, 1, 50, 0
1, 82538, Note_on_c, 1, 48, 127
1, 82680, Note_off_c, 1, 48, 0
1, 82772, Note_on_c, 1, 45, 127
1, 82913, Note_off_c, 1, 45, 0
1, 83009, Note_on_c, 1, 64, 127
1, 83018, Note_on_c, 1, 43, 127
1, 83148, Note_off_c, 1, 64, 0
1, 83159, Note_off_c, 1, 43, 0
1, 83254, Note_on_c, 1, 81, 127
1, 83254, Note_on_c, 1, 41, 127
1, 83368, Note_off_c, 1, 81, 0
1, 83388, Note_off_c, 1, 41, 0
1, 83477, Note_on_c, 1, 72, 127
1, 83495, Note_on_c, 1, 40, 127
1, 83497, Note_on_c, 1, 82, 127
1, 83603, Note_on_c, 1, 81, 127
1, 83618, Note_off_c, 1, 82, 0
1, 83633, Note_off_c, 1, 40, 0
1, 83689, Note_off_c, 1, 81, 0
1, 83729, Note_on_c, 1, 67, 127
1, 83729, Note_on_c, 1, 79, 127
1, 83729, Note_on_c, 1, 38, 127
1, 83846, Note_off_c, 1, 79, 0
1, 83852, Note_off_c, 1, 38, 0
1, 83872, Note_off_c, 1, 67, 0
1, 83978, Note_on_c, 1, 64, 127
1, 84048, Note_off_c, 1, 72, 0
1, 84079, Note_on_c, 1, 76, 127
1, 84102, Note_off_c, 1, 64, 0
1, 84200, Note_on_c, 1, 74, 127
1, 84202, Note_on_c, 1, 41, 127
1, 84209, Note_on_c, 1, 60, 127
1, 84214, Note_off_c, 1, 76, 0
1, 84214, Note_on_c, 1, 77, 127
1, 84337, Note_off_c, 1, 41, 0
1, 84338, Note_off_c, 1, 74, 0
1, 84340, Note_off_c, 1, 77, 0
1, 84347, Note_off_c, 1, 60, 0
1, 84435, Note_on_c, 1, 67, 127
1, 84455, Note_on_c, 1, 43, 127
1, 84456, Note_on_c, 1, 74, 127
1, 84456, Note_on_c, 1, 71, 127
1, 84571, Note_on_c, 1, 69, 127
1, 84576, Note_on_c, 1, 72, 127
1, 84578, Note_off_c, 1, 71, 0
1, 84584, Note_off_c, 1, 74, 0
1, 84638, Note_off_c, 1, 67, 0
1, 84651, Note_off_c, 1, 72, 0
1, 84665, Note_off_c, 1, 69, 0
1, 84812, Note_on_c, 1, 65, 127
1, 84821, Note_off_c, 1, 43, 0
1, 84881, Note_off_c, 1, 65, 0
1, 84930, Note_on_c, 1, 67, 127
1, 84936, Note_on_c, 1, 60, 127
1, 84936, Note_on_c, 1, 64, 127
1, 85051, Note_on_c, 1, 62, 127
1, 85056, Note_off_c, 1, 64, 0
1, 85136, Note_off_c, 1, 62, 0
1, 85148, Note_off_c, 1, 60, 0
1, 85149, Note_off_c, 1, 67, 0
1, 85182, Note_on_c, 1, 60, 127
1, 85184, Note_on_c, 1, 67, 127
1, 85198, Note_on_c, 1, 69, 127
1, 85270, Note_off_c, 1, 69, 0
1, 85306, Note_on_c, 1, 71, 127
1, 85308, Note_on_c, 1, 62, 127
1, 85333, Note_off_c, 1, 67, 0
1, 85358, Note_off_c, 1, 60, 0
1, 85385, Note_off_c, 1, 62, 0
1, 85388, Note_off_c, 1, 71, 0
1, 85426, Note_on_c, 1, 67, 127
1, 85431, Note_on_c, 1, 60, 127
1, 85433, Note_on_c, 1, 72, 127
1, 85444, Note_on_c, 1, 64, 127
1, 85509, Note_off_c, 1, 64, 0
1, 85511, Note_off_c, 1, 72, 0
1, 85546, Note_on_c, 1, 65, 127
1, 85547, Note_on_c, 1, 74, 127
1, 85610, Note_off_c, 1, 74, 0
1, 85614, Note_off_c, 1, 65, 0
1, 85678, Note_on_c, 1, 76, 127
1, 85843, Note_off_c, 1, 60, 0
1, 85909, Note_on_c, 1, 55, 127
1, 86100, Note_off_c, 1, 67, 0
1, 86102, Note_off_c, 1, 55, 0
1, 86105, Note_off_c, 1, 76, 0
1, 86120, Note_on_c, 1, 67, 127
1, 86151, Note_on_c, 1, 74, 127
1, 86152, Note_on_c, 1, 65, 127
1, 86157, Note_on_c, 1, 55, 127
1, 86196, Note_on_c, 1, 64, 127
1, 86216, Note_off_c, 1, 67, 0
1, 86288, Note_off_c, 1, 64, 0
1, 86308, Note_off_c, 1, 55, 0
1, 86324, Note_off_c, 1, 65, 0
1, 86336, Note_off_c, 1, 74, 0
1, 86385, Note_on_c, 1, 72, 127
1, 86386, Note_on_c, 1, 57, 127
1, 86393, Note_on_c, 1, 76, 127
1, 86394, Note_on_c, 1, 67, 127
1, 86437, Note_on_c, 1, 65, 127
1, 86438, Note_on_c, 1, 74, 127
1, 86446, Note_off_c, 1, 67, 0
1, 86455, Note_off_c, 1, 76, 0
1, 86491, Note_off_c, 1, 65, 0
1, 86494, Note_off_c, 1, 74, 0
1, 86515, Note_off_c, 1, 72, 0
1, 86636, Note_on_c, 1, 64, 127
1, 86738, Note_on_c, 1, 62, 127
1, 86746, Note_on_c, 1, 71, 127
1, 86754, Note_off_c, 1, 64, 0
1, 86782, Note_off_c, 1, 57, 0
1, 86808, Note_off_c, 1, 62, 0
1, 86831, Note_off_c, 1, 71, 0
1, 86857, Note_on_c, 1, 64, 127
1, 86861, Note_on_c, 1, 57, 127
1, 86880, Note_on_c, 1, 72, 127
1, 86984, Note_on_c, 1, 74, 127
1, 86988, Note_off_c, 1, 72, 0
1, 86988, Note_on_c, 1, 67, 127
1, 86992, Note_off_c, 1, 64, 0
1, 87049, Note_off_c, 1, 67, 0
1, 87066, Note_off_c, 1, 74, 0
1, 87075, Note_off_c, 1, 57, 0
1, 87097, Note_on_c, 1, 60, 127
1, 87105, Note_on_c, 1, 76, 127
1, 87106, Note_on_c, 1, 57, 127
1, 87114, Note_on_c, 1, 72, 127
1, 87211, Note_off_c, 1, 72, 0
1, 87218, Note_off_c, 1, 76, 0
1, 87219, Note_on_c, 1, 74, 127
1, 87222, Note_on_c, 1, 71, 127
1, 87236, Note_off_c, 1, 60, 0
1, 87293, Note_off_c, 1, 57, 0
1, 87298, Note_off_c, 1, 74, 0
1, 87301, Note_off_c, 1, 71, 0
1, 87326, Note_on_c, 1, 67, 127
1, 87336, Note_on_c, 1, 59, 127
1, 87339, Note_on_c, 1, 77, 127
1, 87342, Note_on_c, 1, 74, 127
1, 87453, Note_off_c, 1, 74, 0
1, 87454, Note_on_c, 1, 72, 127
1, 87456, Note_on_c, 1, 76, 127
1, 87462, Note_off_c, 1, 77, 0
1, 87524, Note_off_c, 1, 67, 0
1, 87529, Note_off_c, 1, 72, 0
1, 87529, Note_off_c, 1, 76, 0
1, 87591, Note_on_c, 1, 81, 127
1, 87709, Note_on_c, 1, 79, 127
1, 87735, Note_off_c, 1, 81, 0
1, 87738, Note_off_c, 1, 59, 0
1, 87786, Note_off_c, 1, 79, 0
1, 87813, Note_on_c, 1, 67, 127
1, 87815, Note_on_c, 1, 60, 127
1, 87821, Note_on_c, 1, 74, 127
1, 87823, Note_on_c, 1, 77, 127
1, 87929, Note_off_c, 1, 74, 0
1, 87940, Note_on_c, 1, 76, 127
1, 87942, Note_on_c, 1, 72, 127
1, 87947, Note_off_c, 1, 77, 0
1, 87976, Note_off_c, 1, 67, 0
1, 88014, Note_off_c, 1, 72, 0
1, 88018, Note_off_c, 1, 76, 0
1, 88023, Note_off_c, 1, 60, 0
1, 88054, Note_on_c, 1, 67, 127
1, 88066, Note_on_c, 1, 71, 127
1, 88069, Note_on_c, 1, 60, 127
1, 88070, Note_on_c, 1, 74, 127
1, 88160, Note_off_c, 1, 71, 0
1, 88173, Note_on_c, 1, 69, 127
1, 88183, Note_on_c, 1, 72, 127
1, 88196, Note_off_c, 1, 74, 0
1, 88219, Note_off_c, 1, 67, 0
1, 88243, Note_off_c, 1, 69, 0
1, 88244, Note_off_c, 1, 60, 0
1, 88261, Note_off_c, 1, 72, 0
1, 88296, Note_on_c, 1, 67, 127
1, 88302, Note_on_c, 1, 71, 127
1, 88313, Note_on_c, 1, 55, 127
1, 88314, Note_on_c, 1, 74, 127
1, 88421, Note_on_c, 1, 76, 127
1, 88431, Note_off_c, 1, 74, 0
1, 88506, Note_off_c, 1, 76, 0
1, 88517, Note_off_c, 1, 55, 0
1, 88543, Note_on_c, 1, 77, 127
1, 88546, Note_on_c, 1, 53, 127
1, 88666, Note_off_c, 1, 77, 0
1, 88698, Note_off_c, 1, 71, 0
1, 88710, Note_off_c, 1, 53, 0
1, 88783, Note_on_c, 1, 52, 127
1, 88789, Note_on_c, 1, 79, 127
1, 88906, Note_off_c, 1, 79, 0
1, 88921, Note_off_c, 1, 52, 0
1, 89032, Note_on_c, 1, 69, 127
1, 89101, Note_off_c, 1, 69, 0
1, 89256, Note_on_c, 1, 48, 127
1, 89262, Note_on_c, 1, 72, 127
1, 89352, Note_off_c, 1, 72, 0
1, 89700, Note_off_c, 1, 48, 0
1, 89738, Note_on_c, 1, 60, 127
1, 89750, Note_on_c, 1, 81, 127
1, 89760, Note_off_c, 1, 67, 0
1, 89877, Note_off_c, 1, 81, 0
1, 89950, Note_off_c, 1, 60, 0
1, 89967, Note_on_c, 1, 60, 127
1, 89985, Note_on_c, 1, 77, 127
1, 89988, Note_on_c, 1, 74, 127
1, 90099, Note_off_c, 1, 77, 0
1, 90099, Note_on_c, 1, 76, 127
1, 90143, Note_off_c, 1, 60, 0
1, 90154, Note_off_c, 1, 74, 0
1, 90183, Note_off_c, 1, 76, 0
1, 90212, Note_on_c, 1, 60, 127
1, 90216, Note_on_c, 1, 76, 127
1, 90229, Note_on_c, 1, 79, 127
1, 90258, Note_on_c, 1, 74, 127
1, 90269, Note_off_c, 1, 76, 0
1, 90312, Note_off_c, 1, 74, 0
1, 90335, Note_on_c, 1, 77, 127
1, 90348, Note_off_c, 1, 79, 0
1, 90418, Note_off_c, 1, 77, 0
1, 90420, Note_off_c, 1, 60, 0
1, 90451, Note_on_c, 1, 59, 127
1, 90461, Note_on_c, 1, 76, 127
1, 90467, Note_on_c, 1, 72, 127
1, 90571, Note_off_c, 1, 76, 0
1, 90573, Note_off_c, 1, 72, 0
1, 90581, Note_on_c, 1, 74, 127
1, 90582, Note_on_c, 1, 71, 127
1, 90636, Note_off_c, 1, 59, 0
1, 90648, Note_off_c, 1, 71, 0
1, 90656, Note_off_c, 1, 74, 0
1, 90693, Note_on_c, 1, 57, 127
1, 90704, Note_on_c, 1, 72, 127
1, 90710, Note_on_c, 1, 76, 127
1, 90804, Note_on_c, 1, 74, 127
1, 90809, Note_off_c, 1, 72, 0
1, 90818, Note_off_c, 1, 76, 0
1, 90892, Note_off_c, 1, 57, 0
1, 90928, Note_on_c, 1, 55, 127
1, 90933, Note_off_c, 1, 74, 0
1, 91046, Note_on_c, 1, 71, 127
1, 91124, Note_off_c, 1, 55, 0
1, 91132, Note_off_c, 1, 71, 0
1, 91176, Note_on_c, 1, 77, 127
1, 91183, Note_on_c, 1, 69, 127
1, 91187, Note_on_c, 1, 53, 127
1, 91255, Note_off_c, 1, 69, 0
1, 91291, Note_on_c, 1, 67, 127
1, 91293, Note_on_c, 1, 76, 127
1, 91312, Note_off_c, 1, 77, 0
1, 91371, Note_off_c, 1, 53, 0
1, 91397, Note_off_c, 1, 67, 0
1, 91419, Note_on_c, 1, 79, 127
1, 91421, Note_on_c, 1, 74, 127
1, 91425, Note_off_c, 1, 76, 0
1, 91429, Note_on_c, 1, 52, 127
1, 91517, Note_off_c, 1, 52, 0
1, 91524, Note_off_c, 1, 79, 0
1, 91524, Note_off_c, 1, 74, 0
1, 91531, Note_on_c, 1, 72, 127
1, 91534, Note_on_c, 1, 53, 127
1, 91613, Note_off_c, 1, 53, 0
1, 91620, Note_off_c, 1, 72, 0
1, 91660, Note_on_c, 1, 64, 127
1, 91664, Note_on_c, 1, 55, 127
1, 91665, Note_on_c, 1, 72, 127
1, 91769, Note_off_c, 1, 72, 0
1, 91781, Note_off_c, 1, 64, 0
1, 91783, Note_off_c, 1, 55, 0
1, 91897, Note_on_c, 1, 43, 127
1, 91899, Note_on_c, 1, 65, 127
1, 91910, Note_on_c, 1, 74, 127
1, 91990, Note_off_c, 1, 65, 0
1, 91999, Note_off_c, 1, 74, 0
1, 92016, Note_on_c, 1, 71, 127
1, 92016, Note_on_c, 1, 62, 127
1, 92037, Note_off_c, 1, 43, 0
1, 92078, Note_off_c, 1, 71, 0
1, 92084, Note_off_c, 1, 62, 0
1, 92143, Note_on_c, 1, 64, 127
1, 92152, Note_on_c, 1, 72, 127
1, 92153, Note_on_c, 1, 48, 127
1, 92438, Note_off_c, 1, 72, 0
1, 92490, Note_off_c, 1, 64, 0
1, 92545, Note_off_c, 1, 48, 0
1, 92625, Note_on_c, 1, 60, 127
1, 92627, Note_on_c, 1, 76, 127
1, 92629, Note_on_c, 1, 67, 127
1, 92638, Note_on_c, 1, 72, 127
1, 92704, Note_off_c, 1, 72, 0
1, 92712, Note_off_c, 1, 76, 0
1, 92713, Note_off_c, 1, 67, 0
1, 92729, Note_off_c, 1, 60, 0
1, 92860, Note_on_c, 1, 77, 127
1, 92860, Note_on_c, 1, 69, 127
1, 92860, Note_on_c, 1, 57, 127
1, 92870, Note_on_c, 1, 72, 127
1, 92939, Note_off_c, 1, 72, 0
1, 92949, Note_off_c, 1, 57, 0
1, 92951, Note_off_c, 1, 77, 0
1, 92961, Note_off_c, 1, 69, 0
1, 93095, Note_on_c, 1, 67, 127
1, 93106, Note_on_c, 1, 79, 127
1, 93113, Note_on_c, 1, 72, 127
1, 93115, Note_on_c, 1, 52, 127
1, 93276, Note_off_c, 1, 67, 0
1, 93299, Note_off_c, 1, 72, 0
1, 93301, Note_off_c, 1, 52, 0
1, 93306, Note_off_c, 1, 79, 0
1, 93329, Note_on_c, 1, 71, 127
1, 93340, Note_on_c, 1, 81, 127
1, 93345, Note_on_c, 1, 65, 127
1, 93355, Note_on_c, 1, 50, 127
1, 93422, Note_off_c, 1, 81, 0
1, 93424, Note_off_c, 1, 71, 0
1, 93432, Note_off_c, 1, 65, 0
1, 93444, Note_on_c, 1, 77, 127
1, 93452, Note_off_c, 1, 50, 0
1, 93535, Note_off_c, 1, 77, 0
1, 93577, Note_on_c, 1, 72, 127
1, 93578, Note_on_c, 1, 64, 127
1, 93586, Note_on_c, 1, 79, 127
1, 93586, Note_on_c, 1, 52, 127
1, 93655, Note_off_c, 1, 72, 0
1, 93658, Note_off_c, 1, 64, 0
1, 93673, Note_off_c, 1, 79, 0
1, 93682, Note_off_c, 1, 52, 0
1, 93823, Note_on_c, 1, 64, 127
1, 93825, Note_on_c, 1, 72, 127
1, 93832, Note_on_c, 1, 57, 127
1, 93892, Note_off_c, 1, 64, 0
1, 93904, Note_off_c, 1, 57, 0
1, 93910, Note_off_c, 1, 72, 0
1, 93937, Note_on_c, 1, 55, 127
1, 93999, Note_off_c, 1, 55, 0
1, 94068, Note_on_c, 1, 65, 127
1, 94071, Note_on_c, 1, 81, 127
1, 94072, Note_on_c, 1, 53, 127
1, 94082, Note_on_c, 1, 72, 127
1, 94260, Note_off_c, 1, 53, 0
1, 94272, Note_off_c, 1, 81, 0
1, 94275, Note_off_c, 1, 65, 0
1, 94289, Note_off_c, 1, 72, 0
1, 94294, Note_on_c, 1, 50, 127
1, 94297, Note_on_c, 1, 69, 127
1, 94306, Note_on_c, 1, 74, 127
1, 94310, Note_on_c, 1, 77, 127
1, 94395, Note_off_c, 1, 69, 0
1, 94398, Note_off_c, 1, 50, 0
1, 94408, Note_off_c, 1, 74, 0
1, 94410, Note_off_c, 1, 77, 0
1, 94539, Note_on_c, 1, 71, 127
1, 94543, Note_on_c, 1, 74, 127
1, 94546, Note_on_c, 1, 67, 127
1, 94546, Note_on_c, 1, 55, 127
1, 94617, Note_off_c, 1, 71, 0
1, 94618, Note_off_c, 1, 67, 0
1, 94633, Note_off_c, 1, 74, 0
1, 94719, Note_off_c, 1, 55, 0
1, 94784, Note_on_c, 1, 72, 127
1, 94784, Note_on_c, 1, 53, 127
1, 94788, Note_on_c, 1, 76, 127
1, 94788, Note_on_c, 1, 67, 127
1, 94859, Note_off_c, 1, 72, 0
1, 94867, Note_off_c, 1, 53, 0
1, 94873, Note_off_c, 1, 67, 0
1, 94890, Note_off_c, 1, 76, 0
1, 94896, Note_on_c, 1, 52, 127
1, 94982, Note_off_c, 1, 52, 0
1, 95024, Note_on_c, 1, 74, 127
1, 95024, Note_on_c, 1, 50, 127
1, 95026, Note_on_c, 1, 69, 127
1, 95028, Note_on_c, 1, 77, 127
1, 95121, Note_off_c, 1, 69, 0
1, 95126, Note_off_c, 1, 50, 0
1, 95232, Note_off_c, 1, 74, 0
1, 95236, Note_off_c, 1, 77, 0
1, 95265, Note_on_c, 1, 79, 127
1, 95265, Note_on_c, 1, 48, 127
1, 95269, Note_on_c, 1, 69, 127
1, 95276, Note_on_c, 1, 76, 127
1, 95354, Note_off_c, 1, 79, 0
1, 95354, Note_off_c, 1, 76, 0
1, 95364, Note_off_c, 1, 48, 0
1, 95368, Note_off_c, 1, 69, 0
1, 95374, Note_on_c, 1, 76, 127
1, 95386, Note_on_c, 1, 72, 127
1, 95450, Note_off_c, 1, 72, 0
1, 95462, Note_off_c, 1, 76, 0
1, 95492, Note_on_c, 1, 77, 127
1, 95502, Note_on_c, 1, 74, 127
1, 95507, Note_on_c, 1, 47, 127
1, 95512, Note_on_c, 1, 67, 127
1, 95592, Note_off_c, 1, 77, 0
1, 95594, Note_off_c, 1, 74, 0
1, 95603, Note_off_c, 1, 47, 0
1, 95603, Note_off_c, 1, 67, 0
1, 95738, Note_on_c, 1, 79, 127
1, 95739, Note_on_c, 1, 43, 127
1, 95743, Note_on_c, 1, 71, 127
1, 95755, Note_on_c, 1, 67, 127
1, 95820, Note_off_c, 1, 71, 0
1, 95835, Note_off_c, 1, 67, 0
1, 95844, Note_off_c, 1, 43, 0
1, 95852, Note_off_c, 1, 79, 0
1, 95973, Note_on_c, 1, 77, 127
1, 95983, Note_on_c, 1, 72, 127
1, 95986, Note_on_c, 1, 48, 127
1, 96000, Note_on_c, 1, 67, 127
1, 96022, Note_on_c, 1, 76, 127
1, 96044, Note_off_c, 1, 77, 0
1, 96087, Note_off_c, 1, 76, 0
1, 96101, Note_off_c, 1, 48, 0
1, 96215, Note_on_c, 1, 74, 127
1, 96229, Note_on_c, 1, 55, 127
1, 96322, Note_off_c, 1, 72, 0
1, 96323, Note_off_c, 1, 55, 0
1, 96342, Note_off_c, 1, 74, 0
1, 96350, Note_off_c, 1, 67, 0
1, 96456, Note_on_c, 1, 77, 127
1, 96457, Note_on_c, 1, 67, 127
1, 96463, Note_on_c, 1, 60, 127
1, 96545, Note_off_c, 1, 67, 0
1, 96558, Note_off_c, 1, 60, 0
1, 96575, Note_on_c, 1, 76, 127
1, 96589, Note_off_c, 1, 77, 0
1, 96697, Note_on_c, 1, 69, 127
1, 96697, Note_on_c, 1, 74, 127
1, 96697, Note_on_c, 1, 57, 127
1, 96700, Note_on_c, 1, 64, 127
1, 96706, Note_off_c, 1, 76, 0
1, 96788, Note_off_c, 1, 69, 0
1, 96797, Note_off_c, 1, 64, 0
1, 96805, Note_off_c, 1, 57, 0
1, 96813, Note_on_c, 1, 72, 127
1, 96824, Note_off_c, 1, 74, 0
1, 96905, Note_off_c, 1, 72, 0
1, 96940, Note_on_c, 1, 68, 127
1, 96945, Note_on_c, 1, 74, 127
1, 96948, Note_on_c, 1, 62, 127
1, 96948, Note_on_c, 1, 59, 127
1, 97053, Note_off_c, 1, 62, 0
1, 97068, Note_off_c, 1, 59, 0
1, 97098, Note_off_c, 1, 68, 0
1, 97164, Note_off_c, 1, 74, 0
1, 97184, Note_on_c, 1, 69, 127
1, 97186, Note_on_c, 1, 76, 127
1, 97190, Note_on_c, 1, 57, 127
1, 97197, Note_on_c, 1, 60, 127
1, 97263, Note_off_c, 1, 76, 0
1, 97281, Note_off_c, 1, 69, 0
1, 97285, Note_off_c, 1, 60, 0
1, 97289, Note_off_c, 1, 57, 0
1, 97291, Note_on_c, 1, 72, 127
1, 97377, Note_off_c, 1, 72, 0
1, 97409, Note_on_c, 1, 74, 127
1, 97419, Note_on_c, 1, 64, 127
1, 97425, Note_on_c, 1, 56, 127
1, 97438, Note_on_c, 1, 59, 127
1, 97505, Note_off_c, 1, 64, 0
1, 97512, Note_off_c, 1, 74, 0
1, 97517, Note_off_c, 1, 56, 0
1, 97517, Note_on_c, 1, 71, 127
1, 97527, Note_off_c, 1, 59, 0
1, 97610, Note_off_c, 1, 71, 0
1, 97652, Note_on_c, 1, 76, 127
1, 97652, Note_on_c, 1, 68, 127
1, 97665, Note_on_c, 1, 52, 127
1, 97672, Note_on_c, 1, 59, 127
1, 97760, Note_off_c, 1, 52, 0
1, 97760, Note_off_c, 1, 59, 0
1, 97764, Note_off_c, 1, 68, 0
1, 97785, Note_off_c, 1, 76, 0
1, 97893, Note_on_c, 1, 74, 127
1, 97898, Note_on_c, 1, 69, 127
1, 97903, Note_on_c, 1, 57, 127
1, 97943, Note_on_c, 1, 72, 127
1, 97972, Note_off_c, 1, 74, 0
1, 98011, Note_off_c, 1, 72, 0
1, 98015, Note_off_c, 1, 57, 0
1, 98054, Note_off_c, 1, 69, 0
1, 98132, Note_on_c, 1, 64, 127
1, 98132, Note_on_c, 1, 60, 127
1, 98133, Note_on_c, 1, 55, 127
1, 98135, Note_on_c, 1, 71, 127
1, 98227, Note_off_c, 1, 64, 0
1, 98232, Note_off_c, 1, 60, 0
1, 98241, Note_off_c, 1, 71, 0
1, 98243, Note_off_c, 1, 55, 0
1, 98250, Note_on_c, 1, 69, 127
1, 98330, Note_off_c, 1, 69, 0
1, 98365, Note_on_c, 1, 69, 127
1, 98375, Note_on_c, 1, 54, 127
1, 98376, Note_on_c, 1, 74, 127
1, 98382, Note_on_c, 1, 57, 127
1, 98479, Note_off_c, 1, 54, 0
1, 98480, Note_off_c, 1, 57, 0
1, 98486, Note_off_c, 1, 69, 0
1, 98486, Note_on_c, 1, 72, 127
1, 98530, Note_off_c, 1, 74, 0
1, 98615, Note_on_c, 1, 71, 127
1, 98616, Note_on_c, 1, 66, 127
1, 98617, Note_on_c, 1, 50, 127
1, 98621, Note_on_c, 1, 62, 127
1, 98626, Note_off_c, 1, 72, 0
1, 98706, Note_off_c, 1, 50, 0
1, 98709, Note_off_c, 1, 62, 0
1, 98734, Note_off_c, 1, 66, 0
1, 98751, Note_off_c, 1, 71, 0
1, 98858, Note_on_c, 1, 74, 127
1, 98863, Note_on_c, 1, 62, 127
1, 98863, Note_on_c, 1, 48, 127
1, 98868, Note_on_c, 1, 67, 127
1, 98945, Note_off_c, 1, 74, 0
1, 98967, Note_off_c, 1, 62, 0
1, 98973, Note_off_c, 1, 67, 0
1, 98977, Note_on_c, 1, 47, 127
1, 99007, Note_off_c, 1, 48, 0
1, 99095, Note_on_c, 1, 45, 127
1, 99105, Note_on_c, 1, 79, 127
1, 99107, Note_on_c, 1, 71, 127
1, 99109, Note_off_c, 1, 47, 0
1, 99197, Note_off_c, 1, 79, 0
1, 99209, Note_off_c, 1, 45, 0
1, 99209, Note_on_c, 1, 43, 127
1, 99217, Note_off_c, 1, 71, 0
1, 99305, Note_off_c, 1, 43, 0
1, 99336, Note_on_c, 1, 50, 127
1, 99343, Note_on_c, 1, 72, 127
1, 99344, Note_on_c, 1, 62, 127
1, 99348, Note_on_c, 1, 67, 127
1, 99387, Note_on_c, 1, 71, 127
1, 99409, Note_off_c, 1, 72, 0
1, 99435, Note_off_c, 1, 50, 0
1, 99443, Note_off_c, 1, 62, 0
1, 99449, Note_off_c, 1, 67, 0
1, 99455, Note_off_c, 1, 71, 0
1, 99582, Note_on_c, 1, 69, 127
1, 99586, Note_on_c, 1, 66, 127
1, 99590, Note_on_c, 1, 38, 127
1, 99593, Note_on_c, 1, 60, 127
1, 99677, Note_off_c, 1, 66, 0
1, 99684, Note_off_c, 1, 69, 0
1, 99684, Note_off_c, 1, 60, 0
1, 99687, Note_off_c, 1, 38, 0
1, 99693, Note_on_c, 1, 67, 127
1, 99766, Note_off_c, 1, 67, 0
1, 99832, Note_on_c, 1, 59, 127
1, 99832, Note_on_c, 1, 67, 127
1, 99840, Note_on_c, 1, 62, 127
1, 99850, Note_on_c, 1, 43, 127
1, 100130, Note_off_c, 1, 62, 0
1, 100144, Note_off_c, 1, 67, 0
1, 100148, Note_off_c, 1, 59, 0
1, 100164, Note_off_c, 1, 43, 0
1, 100305, Note_on_c, 1, 60, 127
1, 100308, Note_on_c, 1, 67, 127
1, 100310, Note_on_c, 1, 76, 127
1, 100325, Note_on_c, 1, 72, 127
1, 100394, Note_off_c, 1, 67, 0
1, 100395, Note_off_c, 1, 76, 0
1, 100401, Note_off_c, 1, 60, 0
1, 100401, Note_off_c, 1, 72, 0
1, 100547, Note_on_c, 1, 77, 127
1, 100548, Note_on_c, 1, 57, 127
1, 100551, Note_on_c, 1, 69, 127
1, 100565, Note_on_c, 1, 72, 127
1, 100637, Note_off_c, 1, 57, 0
1, 100643, Note_off_c, 1, 69, 0
1, 100647, Note_off_c, 1, 77, 0
1, 100652, Note_off_c, 1, 72, 0
1, 100786, Note_on_c, 1, 67, 127
1, 100788, Note_on_c, 1, 79, 127
1, 100796, Note_on_c, 1, 52, 127
1, 100797, Note_on_c, 1, 72, 127
1, 100984, Note_off_c, 1, 67, 0
1, 100989, Note_off_c, 1, 72, 0
1, 101004, Note_off_c, 1, 52, 0
1, 101012, Note_off_c, 1, 79, 0
1, 101025, Note_on_c, 1, 81, 127
1, 101026, Note_on_c, 1, 71, 127
1, 101029, Note_on_c, 1, 65, 127
1, 101030, Note_on_c, 1, 50, 127
1, 101108, Note_off_c, 1, 81, 0
1, 101118, Note_off_c, 1, 71, 0
1, 101124, Note_off_c, 1, 65, 0
1, 101133, Note_off_c, 1, 50, 0
1, 101137, Note_on_c, 1, 77, 127
1, 101210, Note_off_c, 1, 77, 0
1, 101258, Note_on_c, 1, 64, 127
1, 101268, Note_on_c, 1, 52, 127
1, 101269, Note_on_c, 1, 79, 127
1, 101275, Note_on_c, 1, 72, 127
1, 101346, Note_off_c, 1, 64, 0
1, 101362, Note_off_c, 1, 79, 0
1, 101362, Note_off_c, 1, 72, 0
1, 101377, Note_off_c, 1, 52, 0
1, 101507, Note_on_c, 1, 72, 127
1, 101511, Note_on_c, 1, 64, 127
1, 101514, Note_on_c, 1, 57, 127
1, 101596, Note_off_c, 1, 64, 0
1, 101596, Note_off_c, 1, 57, 0
1, 101604, Note_off_c, 1, 72, 0
1, 101624, Note_on_c, 1, 55, 127
1, 101703, Note_off_c, 1, 55, 0
1, 101745, Note_on_c, 1, 81, 127
1, 101746, Note_on_c, 1, 53, 127
1, 101750, Note_on_c, 1, 65, 127
1, 101762, Note_on_c, 1, 72, 127
1, 101949, Note_off_c, 1, 81, 0
1, 101949, Note_off_c, 1, 53, 0
1, 101952, Note_off_c, 1, 72, 0
1, 101959, Note_on_c, 1, 50, 127
1, 101968, Note_off_c, 1, 65, 0
1, 101976, Note_on_c, 1, 69, 127
1, 101982, Note_on_c, 1, 77, 127
1, 101984, Note_on_c, 1, 74, 127
1, 102067, Note_off_c, 1, 50, 0
1, 102079, Note_off_c, 1, 77, 0
1, 102083, Note_off_c, 1, 74, 0
1, 102087, Note_off_c, 1, 69, 0
1, 102216, Note_on_c, 1, 55, 127
1, 102218, Note_on_c, 1, 71, 127
1, 102218, Note_on_c, 1, 67, 127
1, 102226, Note_on_c, 1, 74, 127
1, 102299, Note_off_c, 1, 71, 0
1, 102303, Note_off_c, 1, 67, 0
1, 102325, Note_off_c, 1, 74, 0
1, 102335, Note_off_c, 1, 55, 0
1, 102460, Note_on_c, 1, 76, 127
1, 102462, Note_on_c, 1, 53, 127
1, 102465, Note_on_c, 1, 72, 127
1, 102472, Note_on_c, 1, 67, 127
1, 102538, Note_off_c, 1, 53, 0
1, 102545, Note_off_c, 1, 72, 0
1, 102570, Note_off_c, 1, 76, 0
1, 102571, Note_off_c, 1, 67, 0
1, 102571, Note_on_c, 1, 52, 127
1, 102650, Note_off_c, 1, 52, 0
1, 102692, Note_on_c, 1, 50, 127
1, 102707, Note_on_c, 1, 77, 127
1, 102707, Note_on_c, 1, 69, 127
1, 102709, Note_on_c, 1, 74, 127
1, 102813, Note_off_c, 1, 50, 0
1, 102888, Note_off_c, 1, 69, 0
1, 102902, Note_off_c, 1, 74, 0
1, 102920, Note_off_c, 1, 77, 0
1, 102936, Note_on_c, 1, 48, 127
1, 102940, Note_on_c, 1, 69, 127
1, 102944, Note_on_c, 1, 79, 127
1, 102948, Note_on_c, 1, 76, 127
1, 103020, Note_off_c, 1, 76, 0
1, 103036, Note_off_c, 1, 79, 0
1, 103045, Note_off_c, 1, 48, 0
1, 103048, Note_off_c, 1, 69, 0
1, 103051, Note_on_c, 1, 76, 127
1, 103059, Note_on_c, 1, 72, 127
1, 103120, Note_off_c, 1, 72, 0
1, 103133, Note_off_c, 1, 76, 0
1, 103173, Note_on_c, 1, 77, 127
1, 103175, Note_on_c, 1, 47, 127
1, 103183, Note_on_c, 1, 67, 127
1, 103185, Note_on_c, 1, 74, 127
1, 103263, Note_off_c, 1, 77, 0
1, 103280, Note_off_c, 1, 67, 0
1, 103280, Note_off_c, 1, 74, 0
1, 103287, Note_off_c, 1, 47, 0
1, 103411, Note_on_c, 1, 43, 127
1, 103415, Note_on_c, 1, 71, 127
1, 103416, Note_on_c, 1, 79, 127
1, 103429, Note_on_c, 1, 67, 127
1, 103501, Note_off_c, 1, 71, 0
1, 103516, Note_off_c, 1, 43, 0
1, 103516, Note_off_c, 1, 67, 0
1, 103524, Note_off_c, 1, 79, 0
1, 103663, Note_on_c, 1, 77, 127
1, 103663, Note_on_c, 1, 48, 127
1, 103664, Note_on_c, 1, 67, 127
1, 103674, Note_on_c, 1, 72, 127
1, 103709, Note_on_c, 1, 76, 127
1, 103721, Note_off_c, 1, 77, 0
1, 103766, Note_off_c, 1, 76, 0
1, 103800, Note_off_c, 1, 48, 0
1, 103897, Note_on_c, 1, 74, 127
1, 103905, Note_on_c, 1, 55, 127
1, 104007, Note_off_c, 1, 55, 0
1, 104014, Note_off_c, 1, 74, 0
1, 104023, Note_off_c, 1, 67, 0
1, 104108, Note_off_c, 1, 72, 0
1, 104138, Note_on_c, 1, 77, 127
1, 104139, Note_on_c, 1, 67, 127
1, 104141, Note_on_c, 1, 60, 127
1, 104221, Note_off_c, 1, 67, 0
1, 104249, Note_off_c, 1, 60, 0
1, 104252, Note_on_c, 1, 76, 127
1, 104266, Note_off_c, 1, 77, 0
1, 104377, Note_on_c, 1, 74, 127
1, 104380, Note_off_c, 1, 76, 0
1, 104383, Note_on_c, 1, 64, 127
1, 104386, Note_on_c, 1, 57, 127
1, 104388, Note_on_c, 1, 69, 127
1, 104478, Note_off_c, 1, 69, 0
1, 104485, Note_on_c, 1, 72, 127
1, 104488, Note_off_c, 1, 64, 0
1, 104488, Note_off_c, 1, 57, 0
1, 104494, Note_off_c, 1, 74, 0
1, 104574, Note_off_c, 1, 72, 0
1, 104617, Note_on_c, 1, 59, 127
1, 104620, Note_on_c, 1, 68, 127
1, 104624, Note_on_c, 1, 74, 127
1, 104625, Note_on_c, 1, 62, 127
1, 104734, Note_off_c, 1, 68, 0
1, 104736, Note_off_c, 1, 59, 0
1, 104786, Note_off_c, 1, 62, 0
1, 104829, Note_off_c, 1, 74, 0
1, 104858, Note_on_c, 1, 76, 127
1, 104862, Note_on_c, 1, 60, 127
1, 104863, Note_on_c, 1, 57, 127
1, 104871, Note_on_c, 1, 69, 127
1, 104950, Note_off_c, 1, 76, 0
1, 104952, Note_off_c, 1, 69, 0
1, 104967, Note_off_c, 1, 60, 0
1, 104973, Note_off_c, 1, 57, 0
1, 104973, Note_on_c, 1, 72, 127
1, 105048, Note_off_c, 1, 72, 0
1, 105091, Note_on_c, 1, 74, 127
1, 105092, Note_on_c, 1, 59, 127
1, 105098, Note_on_c, 1, 56, 127
1, 105117, Note_on_c, 1, 64, 127
1, 105192, Note_off_c, 1, 56, 0
1, 105193, Note_off_c, 1, 59, 0
1, 105198, Note_off_c, 1, 74, 0
1, 105200, Note_off_c, 1, 64, 0
1, 105206, Note_on_c, 1, 71, 127
1, 105296, Note_off_c, 1, 71, 0
1, 105340, Note_on_c, 1, 59, 127
1, 105340, Note_on_c, 1, 76, 127
1, 105342, Note_on_c, 1, 52, 127
1, 105348, Note_on_c, 1, 68, 127
1, 105438, Note_off_c, 1, 52, 0
1, 105440, Note_off_c, 1, 68, 0
1, 105444, Note_off_c, 1, 76, 0
1, 105456, Note_off_c, 1, 59, 0
1, 105580, Note_on_c, 1, 74, 127
1, 105581, Note_on_c, 1, 57, 127
1, 105590, Note_on_c, 1, 69, 127
1, 105623, Note_on_c, 1, 72, 127
1, 105647, Note_off_c, 1, 74, 0
1, 105680, Note_off_c, 1, 72, 0
1, 105719, Note_off_c, 1, 57, 0
1, 105765, Note_off_c, 1, 69, 0
1, 105814, Note_on_c, 1, 71, 127
1, 105821, Note_on_c, 1, 55, 127
1, 105826, Note_on_c, 1, 60, 127
1, 105828, Note_on_c, 1, 64, 127
1, 105912, Note_off_c, 1, 64, 0
1, 105922, Note_off_c, 1, 71, 0
1, 105929, Note_off_c, 1, 55, 0
1, 105934, Note_off_c, 1, 60, 0
1, 106057, Note_on_c, 1, 74, 127
1, 106062, Note_on_c, 1, 69, 127
1, 106063, Note_on_c, 1, 57, 127
1, 106063, Note_on_c, 1, 54, 127
1, 106150, Note_off_c, 1, 69, 0
1, 106164, Note_off_c, 1, 54, 0
1, 106165, Note_off_c, 1, 57, 0
1, 106168, Note_on_c, 1, 72, 127
1, 106207, Note_off_c, 1, 74, 0
1, 106296, Note_on_c, 1, 62, 127
1, 106296, Note_on_c, 1, 71, 127
1, 106296, Note_on_c, 1, 50, 127
1, 106299, Note_on_c, 1, 66, 127
1, 106305, Note_off_c, 1, 72, 0
1, 106402, Note_off_c, 1, 62, 0
1, 106407, Note_off_c, 1, 50, 0
1, 106410, Note_off_c, 1, 66, 0
1, 106425, Note_off_c, 1, 71, 0
1, 106536, Note_on_c, 1, 48, 127
1, 106543, Note_on_c, 1, 74, 127
1, 106547, Note_on_c, 1, 62, 127
1, 106548, Note_on_c, 1, 67, 127
1, 106632, Note_off_c, 1, 74, 0
1, 106646, Note_off_c, 1, 67, 0
1, 106656, Note_on_c, 1, 47, 127
1, 106662, Note_off_c, 1, 62, 0
1, 106691, Note_off_c, 1, 48, 0
1, 106776, Note_on_c, 1, 45, 127
1, 106785, Note_on_c, 1, 79, 127
1, 106788, Note_on_c, 1, 71, 127
1, 106792, Note_off_c, 1, 47, 0
1, 106883, Note_off_c, 1, 45, 0
1, 106885, Note_off_c, 1, 79, 0
1, 106890, Note_on_c, 1, 43, 127
1, 106891, Note_off_c, 1, 71, 0
1, 106986, Note_off_c, 1, 43, 0
1, 107027, Note_on_c, 1, 67, 127
1, 107027, Note_on_c, 1, 50, 127
1, 107028, Note_on_c, 1, 72, 127
1, 107043, Note_on_c, 1, 62, 127
1, 107074, Note_on_c, 1, 71, 127
1, 107095, Note_off_c, 1, 72, 0
1, 107123, Note_off_c, 1, 67, 0
1, 107124, Note_off_c, 1, 50, 0
1, 107134, Note_off_c, 1, 71, 0
1, 107150, Note_off_c, 1, 62, 0
1, 107254, Note_on_c, 1, 69, 127
1, 107271, Note_on_c, 1, 66, 127
1, 107273, Note_on_c, 1, 60, 127
1, 107276, Note_on_c, 1, 38, 127
1, 107349, Note_off_c, 1, 66, 0
1, 107362, Note_off_c, 1, 69, 0
1, 107365, Note_off_c, 1, 60, 0
1, 107381, Note_off_c, 1, 38, 0
1, 107508, Note_on_c, 1, 67, 127
1, 107512, Note_on_c, 1, 62, 127
1, 107518, Note_on_c, 1, 43, 127
1, 107519, Note_on_c, 1, 59, 127
1, 107824, Note_off_c, 1, 59, 0
1, 107834, Note_off_c, 1, 62, 0
1, 107840, Note_off_c, 1, 43, 0
1, 107841, Note_off_c, 1, 67, 0
1, 107988, Note_on_c, 1, 71, 127
1, 107989, Note_on_c, 1, 62, 127
1, 108002, Note_on_c, 1, 55, 127
1, 108005, Note_on_c, 1, 67, 127
1, 108082, Note_off_c, 1, 71, 0
1, 108082, Note_off_c, 1, 62, 0
1, 108082, Note_off_c, 1, 67, 0
1, 108083, Note_off_c, 1, 55, 0
1, 108224, Note_on_c, 1, 48, 127
1, 108224, Note_on_c, 1, 72, 127
1, 108226, Note_on_c, 1, 64, 127
1, 108236, Note_on_c, 1, 67, 127
1, 108306, Note_off_c, 1, 48, 0
1, 108313, Note_off_c, 1, 72, 0
1, 108321, Note_off_c, 1, 67, 0
1, 108324, Note_off_c, 1, 64, 0
1, 108457, Note_on_c, 1, 67, 127
1, 108462, Note_on_c, 1, 43, 127
1, 108463, Note_on_c, 1, 74, 127
1, 108466, Note_on_c, 1, 71, 127
1, 108622, Note_off_c, 1, 43, 0
1, 108668, Note_off_c, 1, 67, 0
1, 108681, Note_off_c, 1, 71, 0
1, 108689, Note_off_c, 1, 74, 0
1, 108692, Note_on_c, 1, 76, 127
1, 108701, Note_on_c, 1, 67, 127
1, 108702, Note_on_c, 1, 55, 127
1, 108708, Note_on_c, 1, 72, 127
1, 108781, Note_off_c, 1, 76, 0
1, 108783, Note_off_c, 1, 72, 0
1, 108792, Note_off_c, 1, 55, 0
1, 108796, Note_off_c, 1, 67, 0
1, 108810, Note_on_c, 1, 69, 127
1, 108872, Note_off_c, 1, 69, 0
1, 108915, Note_on_c, 1, 74, 127
1, 108940, Note_on_c, 1, 53, 127
1, 108943, Note_on_c, 1, 71, 127
1, 108947, Note_on_c, 1, 67, 127
1, 109026, Note_off_c, 1, 67, 0
1, 109029, Note_off_c, 1, 74, 0
1, 109031, Note_off_c, 1, 53, 0
1, 109035, Note_off_c, 1, 71, 0
1, 109169, Note_on_c, 1, 82, 127
1, 109173, Note_on_c, 1, 67, 127
1, 109179, Note_on_c, 1, 52, 127
1, 109262, Note_off_c, 1, 52, 0
1, 109270, Note_off_c, 1, 82, 0
1, 109274, Note_off_c, 1, 67, 0
1, 109411, Note_on_c, 1, 69, 127
1, 109422, Note_on_c, 1, 57, 127
1, 109428, Note_on_c, 1, 64, 127
1, 109433, Note_on_c, 1, 74, 127
1, 109480, Note_on_c, 1, 73, 127
1, 109503, Note_off_c, 1, 74, 0
1, 109532, Note_off_c, 1, 73, 0
1, 109539, Note_off_c, 1, 57, 0
1, 109656, Note_on_c, 1, 55, 127
1, 109657, Note_on_c, 1, 71, 127
1, 109759, Note_off_c, 1, 71, 0
1, 109764, Note_off_c, 1, 55, 0
1, 109804, Note_off_c, 1, 64, 0
1, 109864, Note_off_c, 1, 69, 0
1, 109884, Note_on_c, 1, 71, 127
1, 109902, Note_on_c, 1, 53, 127
1, 109910, Note_on_c, 1, 62, 127
1, 109998, Note_off_c, 1, 53, 0
1, 110000, Note_off_c, 1, 62, 0
1, 110001, Note_on_c, 1, 73, 127
1, 110007, Note_off_c, 1, 71, 0
1, 110113, Note_off_c, 1, 73, 0
1, 110119, Note_on_c, 1, 74, 127
1, 110132, Note_on_c, 1, 69, 127
1, 110132, Note_on_c, 1, 61, 127
1, 110141, Note_on_c, 1, 52, 127
1, 110218, Note_off_c, 1, 61, 0
1, 110221, Note_off_c, 1, 69, 0
1, 110233, Note_off_c, 1, 52, 0
1, 110235, Note_on_c, 1, 76, 127
1, 110239, Note_off_c, 1, 74, 0
1, 110351, Note_off_c, 1, 76, 0
1, 110360, Note_on_c, 1, 77, 127
1, 110373, Note_on_c, 1, 69, 127
1, 110373, Note_on_c, 1, 50, 127
1, 110377, Note_on_c, 1, 62, 127
1, 110482, Note_off_c, 1, 50, 0
1, 110504, Note_off_c, 1, 62, 0
1, 110556, Note_off_c, 1, 69, 0
1, 110576, Note_off_c, 1, 77, 0
1, 110597, Note_on_c, 1, 58, 127
1, 110604, Note_on_c, 1, 67, 127
1, 110617, Note_on_c, 1, 76, 127
1, 110704, Note_off_c, 1, 58, 0
1, 110715, Note_off_c, 1, 76, 0
1, 110720, Note_off_c, 1, 67, 0
1, 110721, Note_on_c, 1, 74, 127
1, 110812, Note_off_c, 1, 74, 0
1, 110851, Note_on_c, 1, 57, 127
1, 110852, Note_on_c, 1, 76, 127
1, 110859, Note_on_c, 1, 64, 127
1, 110864, Note_on_c, 1, 73, 127
1, 110926, Note_off_c, 1, 76, 0
1, 110953, Note_off_c, 1, 64, 0
1, 110954, Note_off_c, 1, 57, 0
1, 110956, Note_off_c, 1, 73, 0
1, 110967, Note_on_c, 1, 73, 127
1, 111070, Note_off_c, 1, 73, 0
1, 111094, Note_on_c, 1, 81, 127
1, 111096, Note_on_c, 1, 45, 127
1, 111111, Note_on_c, 1, 73, 127
1, 111113, Note_on_c, 1, 64, 127
1, 111182, Note_off_c, 1, 45, 0
1, 111198, Note_off_c, 1, 64, 0
1, 111205, Note_off_c, 1, 81, 0
1, 111206, Note_off_c, 1, 73, 0
1, 111339, Note_on_c, 1, 79, 127
1, 111346, Note_on_c, 1, 50, 127
1, 111356, Note_on_c, 1, 62, 127
1, 111358, Note_on_c, 1, 74, 127
1, 111378, Note_on_c, 1, 77, 127
1, 111421, Note_off_c, 1, 79, 0
1, 111453, Note_off_c, 1, 50, 0
1, 111454, Note_off_c, 1, 77, 0
1, 111559, Note_on_c, 1, 76, 127
1, 111581, Note_on_c, 1, 48, 127
1, 111677, Note_off_c, 1, 48, 0
1, 111703, Note_off_c, 1, 62, 0
1, 111706, Note_off_c, 1, 76, 0
1, 111790, Note_off_c, 1, 74, 0
1, 111804, Note_on_c, 1, 79, 127
1, 111824, Note_on_c, 1, 47, 127
1, 111826, Note_on_c, 1, 74, 127
1, 111831, Note_on_c, 1, 62, 127
1, 111903, Note_off_c, 1, 62, 0
1, 111916, Note_off_c, 1, 74, 0
1, 111916, Note_on_c, 1, 77, 127
1, 111925, Note_off_c, 1, 47, 0
1, 111954, Note_off_c, 1, 79, 0
1, 112034, Note_on_c, 1, 76, 127
1, 112055, Note_on_c, 1, 71, 127
1, 112055, Note_on_c, 1, 43, 127
1, 112068, Note_off_c, 1, 77, 0
1, 112068, Note_on_c, 1, 67, 127
1, 112140, Note_off_c, 1, 71, 0
1, 112151, Note_off_c, 1, 76, 0
1, 112151, Note_off_c, 1, 67, 0
1, 112155, Note_off_c, 1, 43, 0
1, 112282, Note_on_c, 1, 76, 127
1, 112299, Note_on_c, 1, 72, 127
1, 112302, Note_on_c, 1, 48, 127
1, 112314, Note_on_c, 1, 67, 127
1, 112403, Note_off_c, 1, 48, 0
1, 112505, Note_off_c, 1, 76, 0
1, 112527, Note_on_c, 1, 47, 127
1, 112531, Note_on_c, 1, 77, 127
1, 112628, Note_off_c, 1, 77, 0
1, 112630, Note_off_c, 1, 72, 0
1, 112635, Note_off_c, 1, 47, 0
1, 112639, Note_on_c, 1, 74, 127
1, 112649, Note_off_c, 1, 67, 0
1, 112726, Note_off_c, 1, 74, 0
1, 112769, Note_on_c, 1, 45, 127
1, 112770, Note_on_c, 1, 76, 127
1, 112785, Note_on_c, 1, 72, 127
1, 112787, Note_on_c, 1, 60, 127
1, 112852, Note_off_c, 1, 60, 0
1, 112862, Note_off_c, 1, 72, 0
1, 112865, Note_off_c, 1, 76, 0
1, 112874, Note_off_c, 1, 45, 0
1, 112881, Note_on_c, 1, 72, 127
1, 112978, Note_off_c, 1, 72, 0
1, 113008, Note_on_c, 1, 77, 127
1, 113012, Note_on_c, 1, 57, 127
1, 113024, Note_on_c, 1, 69, 127
1, 113028, Note_on_c, 1, 60, 127
1, 113105, Note_off_c, 1, 69, 0
1, 113106, Note_off_c, 1, 60, 0
1, 113112, Note_off_c, 1, 57, 0
1, 113139, Note_off_c, 1, 77, 0
1, 113257, Note_on_c, 1, 76, 127
1, 113257, Note_on_c, 1, 62, 127
1, 113264, Note_on_c, 1, 59, 127
1, 113271, Note_on_c, 1, 68, 127
1, 113303, Note_on_c, 1, 74, 127
1, 113339, Note_off_c, 1, 76, 0
1, 113365, Note_off_c, 1, 59, 0
1, 113379, Note_off_c, 1, 74, 0
1, 113490, Note_on_c, 1, 57, 127
1, 113496, Note_on_c, 1, 72, 127
1, 113595, Note_off_c, 1, 57, 0
1, 113600, Note_off_c, 1, 68, 0
1, 113601, Note_off_c, 1, 62, 0
1, 113611, Note_on_c, 1, 71, 127
1, 113616, Note_off_c, 1, 72, 0
1, 113696, Note_off_c, 1, 71, 0
1, 113736, Note_on_c, 1, 59, 127
1, 113736, Note_on_c, 1, 56, 127
1, 113741, Note_on_c, 1, 76, 127
1, 113747, Note_on_c, 1, 64, 127
1, 113820, Note_off_c, 1, 59, 0
1, 113834, Note_off_c, 1, 64, 0
1, 113836, Note_off_c, 1, 56, 0
1, 113847, Note_on_c, 1, 74, 127
1, 113872, Note_off_c, 1, 76, 0
1, 113963, Note_on_c, 1, 72, 127
1, 113965, Note_off_c, 1, 74, 0
1, 113977, Note_on_c, 1, 52, 127
1, 113983, Note_on_c, 1, 68, 127
1, 114061, Note_off_c, 1, 52, 0
1, 114076, Note_off_c, 1, 68, 0
1, 114078, Note_on_c, 1, 71, 127
1, 114084, Note_off_c, 1, 72, 0
1, 114174, Note_off_c, 1, 71, 0
1, 114194, Note_on_c, 1, 74, 127
1, 114213, Note_on_c, 1, 64, 127
1, 114215, Note_on_c, 1, 57, 127
1, 114222, Note_on_c, 1, 69, 127
1, 114304, Note_on_c, 1, 72, 127
1, 114315, Note_off_c, 1, 57, 0
1, 114324, Note_off_c, 1, 69, 0
1, 114343, Note_off_c, 1, 64, 0
1, 114357, Note_off_c, 1, 74, 0
1, 114451, Note_on_c, 1, 53, 127
1, 114451, Note_on_c, 1, 71, 127
1, 114452, Note_on_c, 1, 65, 127
1, 114456, Note_on_c, 1, 60, 127
1, 114468, Note_off_c, 1, 72, 0
1, 114537, Note_off_c, 1, 53, 0
1, 114541, Note_off_c, 1, 65, 0
1, 114547, Note_off_c, 1, 60, 0
1, 114566, Note_off_c, 1, 71, 0
1, 114688, Note_on_c, 1, 50, 127
1, 114690, Note_on_c, 1, 71, 127
1, 114698, Note_on_c, 1, 65, 127
1, 114776, Note_off_c, 1, 71, 0
1, 114786, Note_off_c, 1, 50, 0
1, 114795, Note_off_c, 1, 65, 0
1, 114933, Note_on_c, 1, 68, 127
1, 114939, Note_on_c, 1, 52, 127
1, 114940, Note_on_c, 1, 59, 127
1, 114946, Note_on_c, 1, 64, 127
1, 115018, Note_off_c, 1, 52, 0
1, 115020, Note_off_c, 1, 64, 0
1, 115026, Note_off_c, 1, 59, 0
1, 115035, Note_off_c, 1, 68, 0
1, 115185, Note_on_c, 1, 45, 127
1, 115188, Note_on_c, 1, 60, 127
1, 115192, Note_on_c, 1, 69, 127
1, 115197, Note_on_c, 1, 64, 127
1, 115310, Note_off_c, 1, 45, 0
1, 115430, Note_on_c, 1, 52, 127
1, 115513, Note_off_c, 1, 69, 0
1, 115522, Note_off_c, 1, 60, 0
1, 115522, Note_off_c, 1, 64, 0
1, 115526, Note_off_c, 1, 52, 0
1, 115655, Note_on_c, 1, 72, 127
1, 115656, Note_on_c, 1, 57, 127
1, 115673, Note_on_c, 1, 64, 127
1, 115760, Note_off_c, 1, 72, 0
1, 115760, Note_off_c, 1, 64, 0
1, 115773, Note_off_c, 1, 57, 0
1, 115896, Note_on_c, 1, 76, 127
1, 115901, Note_on_c, 1, 59, 127
1, 115902, Note_on_c, 1, 55, 127
1, 115909, Note_on_c, 1, 67, 127
1, 115984, Note_off_c, 1, 59, 0
1, 115994, Note_off_c, 1, 76, 0
1, 115994, Note_off_c, 1, 67, 0
1, 115996, Note_off_c, 1, 55, 0
1, 116140, Note_on_c, 1, 60, 127
1, 116144, Note_on_c, 1, 69, 127
1, 116147, Note_on_c, 1, 53, 127
1, 116278, Note_off_c, 1, 53, 0
1, 116344, Note_off_c, 1, 60, 0
1, 116368, Note_off_c, 1, 69, 0
1, 116385, Note_on_c, 1, 52, 127
1, 116386, Note_on_c, 1, 62, 127
1, 116388, Note_on_c, 1, 67, 127
1, 116393, Note_on_c, 1, 71, 127
1, 116481, Note_off_c, 1, 52, 0
1, 116484, Note_off_c, 1, 62, 0
1, 116485, Note_off_c, 1, 71, 0
1, 116488, Note_off_c, 1, 67, 0
1, 116491, Note_on_c, 1, 64, 127
1, 116491, Note_on_c, 1, 72, 127
1, 116565, Note_off_c, 1, 64, 0
1, 116582, Note_off_c, 1, 72, 0
1, 116614, Note_on_c, 1, 74, 127
1, 116616, Note_on_c, 1, 57, 127
1, 116619, Note_on_c, 1, 53, 127
1, 116625, Note_on_c, 1, 69, 127
1, 116700, Note_off_c, 1, 69, 0
1, 116709, Note_off_c, 1, 57, 0
1, 116714, Note_off_c, 1, 53, 0
1, 116723, Note_off_c, 1, 74, 0
1, 116727, Note_on_c, 1, 76, 127
1, 116824, Note_off_c, 1, 76, 0
1, 116847, Note_on_c, 1, 50, 127
1, 116848, Note_on_c, 1, 62, 127
1, 116857, Note_on_c, 1, 77, 127
1, 116866, Note_on_c, 1, 69, 127
1, 116928, Note_off_c, 1, 62, 0
1, 116935, Note_off_c, 1, 50, 0
1, 116945, Note_off_c, 1, 69, 0
1, 117095, Note_on_c, 1, 55, 127
1, 117105, Note_on_c, 1, 71, 127
1, 117240, Note_off_c, 1, 77, 0
1, 117266, Note_off_c, 1, 55, 0
1, 117342, Note_on_c, 1, 57, 127
1, 117460, Note_on_c, 1, 53, 127
1, 117462, Note_off_c, 1, 57, 0
1, 117479, Note_off_c, 1, 71, 0
1, 117547, Note_off_c, 1, 53, 0
1, 117584, Note_on_c, 1, 57, 127
1, 117586, Note_on_c, 1, 71, 127
1, 117587, Note_on_c, 1, 59, 127
1, 117587, Note_on_c, 1, 76, 127
1, 117658, Note_off_c, 1, 59, 0
1, 117672, Note_off_c, 1, 76, 0
1, 117675, Note_off_c, 1, 71, 0
1, 117698, Note_on_c, 1, 55, 127
1, 117727, Note_off_c, 1, 57, 0
1, 117813, Note_on_c, 1, 53, 127
1, 117817, Note_on_c, 1, 79, 127
1, 117829, Note_off_c, 1, 55, 0
1, 117829, Note_on_c, 1, 64, 127
1, 117913, Note_off_c, 1, 79, 0
1, 117924, Note_off_c, 1, 64, 0
1, 117928, Note_on_c, 1, 52, 127
1, 117934, Note_off_c, 1, 53, 0
1, 118015, Note_off_c, 1, 52, 0
1, 118055, Note_on_c, 1, 72, 127
1, 118056, Note_on_c, 1, 57, 127
1, 118059, Note_on_c, 1, 69, 127
1, 118068, Note_on_c, 1, 64, 127
1, 118163, Note_off_c, 1, 57, 0
1, 118235, Note_off_c, 1, 69, 0
1, 118274, Note_off_c, 1, 64, 0
1, 118288, Note_off_c, 1, 72, 0
1, 118303, Note_on_c, 1, 74, 127
1, 118303, Note_on_c, 1, 71, 127
1, 118303, Note_on_c, 1, 55, 127
1, 118308, Note_on_c, 1, 65, 127
1, 118382, Note_off_c, 1, 65, 0
1, 118402, Note_off_c, 1, 55, 0
1, 118406, Note_on_c, 1, 76, 127
1, 118409, Note_on_c, 1, 67, 127
1, 118413, Note_off_c, 1, 74, 0
1, 118415, Note_off_c, 1, 71, 0
1, 118483, Note_off_c, 1, 67, 0
1, 118510, Note_off_c, 1, 76, 0
1, 118520, Note_on_c, 1, 77, 127
1, 118534, Note_on_c, 1, 60, 127
1, 118542, Note_on_c, 1, 57, 127
1, 118548, Note_on_c, 1, 72, 127
1, 118621, Note_off_c, 1, 60, 0
1, 118628, Note_on_c, 1, 79, 127
1, 118647, Note_off_c, 1, 57, 0
1, 118648, Note_off_c, 1, 72, 0
1, 118656, Note_off_c, 1, 77, 0
1, 118746, Note_off_c, 1, 79, 0
1, 118758, Note_on_c, 1, 81, 127
1, 118774, Note_on_c, 1, 65, 127
1, 118775, Note_on_c, 1, 53, 127
1, 118789, Note_on_c, 1, 72, 127
1, 118856, Note_off_c, 1, 53, 0
1, 118859, Note_off_c, 1, 65, 0
1, 118874, Note_off_c, 1, 72, 0
1, 119008, Note_on_c, 1, 59, 127
1, 119033, Note_on_c, 1, 74, 127
1, 119157, Note_off_c, 1, 59, 0
1, 119220, Note_off_c, 1, 81, 0
1, 119260, Note_on_c, 1, 60, 127
1, 119262, Note_on_c, 1, 79, 127
1, 119367, Note_off_c, 1, 79, 0
1, 119368, Note_on_c, 1, 77, 127
1, 119370, Note_on_c, 1, 57, 127
1, 119374, Note_off_c, 1, 74, 0
1, 119376, Note_off_c, 1, 60, 0
1, 119475, Note_off_c, 1, 77, 0
1, 119484, Note_off_c, 1, 57, 0
1, 119485, Note_on_c, 1, 76, 127
1, 119499, Note_on_c, 1, 65, 127
1, 119504, Note_on_c, 1, 60, 127
1, 119507, Note_on_c, 1, 69, 127
1, 119582, Note_off_c, 1, 76, 0
1, 119587, Note_off_c, 1, 65, 0
1, 119592, Note_off_c, 1, 69, 0
1, 119594, Note_on_c, 1, 74, 127
1, 119609, Note_on_c, 1, 59, 127
1, 119636, Note_off_c, 1, 60, 0
1, 119697, Note_off_c, 1, 74, 0
1, 119720, Note_on_c, 1, 57, 127
1, 119728, Note_on_c, 1, 62, 127
1, 119730, Note_off_c, 1, 59, 0
1, 119731, Note_on_c, 1, 71, 127
1, 119736, Note_on_c, 1, 79, 127
1, 119815, Note_off_c, 1, 62, 0
1, 119820, Note_off_c, 1, 71, 0
1, 119832, Note_on_c, 1, 55, 127
1, 119835, Note_off_c, 1, 57, 0
1, 119836, Note_off_c, 1, 79, 0
1, 119921, Note_off_c, 1, 55, 0
1, 119965, Note_on_c, 1, 60, 127
1, 119967, Note_on_c, 1, 70, 127
1, 119976, Note_on_c, 1, 64, 127
1, 119980, Note_on_c, 1, 67, 127
1, 120071, Note_off_c, 1, 60, 0
1, 120157, Note_off_c, 1, 67, 0
1, 120162, Note_off_c, 1, 64, 0
1, 120173, Note_off_c, 1, 70, 0
1, 120204, Note_on_c, 1, 55, 127
1, 120209, Note_on_c, 1, 72, 127
1, 120222, Note_on_c, 1, 67, 127
1, 120224, Note_on_c, 1, 64, 127
1, 120290, Note_off_c, 1, 72, 0
1, 120306, Note_off_c, 1, 67, 0
1, 120312, Note_off_c, 1, 55, 0
1, 120312, Note_off_c, 1, 64, 0
1, 120319, Note_on_c, 1, 69, 127
1, 120424, Note_off_c, 1, 69, 0
1, 120447, Note_on_c, 1, 70, 127
1, 120448, Note_on_c, 1, 67, 127
1, 120448, Note_on_c, 1, 52, 127
1, 120457, Note_on_c, 1, 64, 127
1, 120546, Note_off_c, 1, 64, 0
1, 120551, Note_off_c, 1, 70, 0
1, 120552, Note_off_c, 1, 52, 0
1, 120553, Note_off_c, 1, 67, 0
1, 120692, Note_on_c, 1, 48, 127
1, 120693, Note_on_c, 1, 67, 127
1, 120697, Note_on_c, 1, 64, 127
1, 120699, Note_on_c, 1, 79, 127
1, 120790, Note_off_c, 1, 64, 0
1, 120798, Note_off_c, 1, 48, 0
1, 120798, Note_off_c, 1, 79, 0
1, 120800, Note_off_c, 1, 67, 0
1, 120939, Note_on_c, 1, 70, 127
1, 120939, Note_on_c, 1, 65, 127
1, 120941, Note_on_c, 1, 53, 127
1, 120943, Note_on_c, 1, 60, 127
1, 121042, Note_on_c, 1, 69, 127
1, 121055, Note_off_c, 1, 53, 0
1, 121083, Note_off_c, 1, 70, 0
1, 121169, Note_on_c, 1, 67, 127
1, 121174, Note_on_c, 1, 52, 127
1, 121186, Note_off_c, 1, 69, 0
1, 121294, Note_off_c, 1, 52, 0
1, 121295, Note_off_c, 1, 60, 0
1, 121296, Note_off_c, 1, 67, 0
1, 121376, Note_off_c, 1, 65, 0
1, 121409, Note_on_c, 1, 50, 127
1, 121415, Note_on_c, 1, 62, 127
1, 121417, Note_on_c, 1, 72, 127
1, 121417, Note_on_c, 1, 69, 127
1, 121495, Note_off_c, 1, 62, 0
1, 121530, Note_off_c, 1, 50, 0
1, 121536, Note_on_c, 1, 71, 127
1, 121538, Note_off_c, 1, 69, 0
1, 121573, Note_off_c, 1, 72, 0
1, 121641, Note_on_c, 1, 53, 127
1, 121753, Note_on_c, 1, 67, 127
1, 121764, Note_off_c, 1, 53, 0
1, 121777, Note_off_c, 1, 71, 0
1, 121884, Note_off_c, 1, 67, 0
1, 121885, Note_on_c, 1, 79, 127
1, 121885, Note_on_c, 1, 72, 127
1, 121894, Note_on_c, 1, 52, 127
1, 121903, Note_on_c, 1, 64, 127
1, 121992, Note_off_c, 1, 79, 0
1, 122008, Note_off_c, 1, 64, 0
1, 122014, Note_off_c, 1, 52, 0
1, 122022, Note_off_c, 1, 72, 0
1, 122132, Note_on_c, 1, 60, 127
1, 122133, Note_on_c, 1, 81, 127
1, 122133, Note_on_c, 1, 72, 127
1, 122137, Note_on_c, 1, 53, 127
1, 122238, Note_off_c, 1, 72, 0
1, 122238, Note_off_c, 1, 53, 0
1, 122247, Note_off_c, 1, 81, 0
1, 122251, Note_off_c, 1, 60, 0
1, 122376, Note_on_c, 1, 77, 127
1, 122376, Note_on_c, 1, 72, 127
1, 122376, Note_on_c, 1, 67, 127
1, 122376, Note_on_c, 1, 55, 127
1, 122423, Note_on_c, 1, 76, 127
1, 122451, Note_off_c, 1, 77, 0
1, 122467, Note_off_c, 1, 67, 0
1, 122477, Note_off_c, 1, 55, 0
1, 122482, Note_off_c, 1, 72, 0
1, 122496, Note_off_c, 1, 76, 0
1, 122610, Note_on_c, 1, 71, 127
1, 122611, Note_on_c, 1, 74, 127
1, 122618, Note_on_c, 1, 43, 127
1, 122624, Note_on_c, 1, 65, 127
1, 122709, Note_off_c, 1, 71, 0
1, 122718, Note_off_c, 1, 74, 0
1, 122718, Note_off_c, 1, 43, 0
1, 122721, Note_off_c, 1, 65, 0
1, 122863, Note_on_c, 1, 72, 127
1, 122865, Note_on_c, 1, 67, 127
1, 122869, Note_on_c, 1, 36, 127
1, 122880, Note_on_c, 1, 64, 127
1, 123215, Note_off_c, 1, 64, 0
1, 123219, Note_off_c, 1, 36, 0
1, 123233, Note_off_c, 1, 67, 0
1, 123238, Note_off_c, 1, 72, 0
1, 123348, Note_on_c, 1, 71, 127
1, 123349, Note_on_c, 1, 62, 127
1, 123362, Note_on_c, 1, 55, 127
1, 123365, Note_on_c, 1, 67, 127
1, 123442, Note_off_c, 1, 71, 0
1, 123442, Note_off_c, 1, 62, 0
1, 123442, Note_off_c, 1, 67, 0
1, 123443, Note_off_c, 1, 55, 0
1, 123584, Note_on_c, 1, 48, 127
1, 123584, Note_on_c, 1, 72, 127
1, 123586, Note_on_c, 1, 64, 127
1, 123596, Note_on_c, 1, 67, 127
1, 123666, Note_off_c, 1, 48, 0
1, 123673, Note_off_c, 1, 72, 0
1, 123681, Note_off_c, 1, 67, 0
1, 123684, Note_off_c, 1, 64, 0
1, 123817, Note_on_c, 1, 67, 127
1, 123822, Note_on_c, 1, 43, 127
1, 123823, Note_on_c, 1, 74, 127
1, 123826, Note_on_c, 1, 71, 127
1, 123982, Note_off_c, 1, 43, 0
1, 124028, Note_off_c, 1, 67, 0
1, 124041, Note_off_c, 1, 71, 0
1, 124049, Note_off_c, 1, 74, 0
1, 124052, Note_on_c, 1, 76, 127
1, 124061, Note_on_c, 1, 67, 127
1, 124062, Note_on_c, 1, 55, 127
1, 124068, Note_on_c, 1, 72, 127
1, 124141, Note_off_c, 1, 76, 0
1, 124143, Note_off_c, 1, 72, 0
1, 124152, Note_off_c, 1, 55, 0
1, 124156, Note_off_c, 1, 67, 0
1, 124170, Note_on_c, 1, 69, 127
1, 124232, Note_off_c, 1, 69, 0
1, 124275, Note_on_c, 1, 74, 127
1, 124300, Note_on_c, 1, 53, 127
1, 124303, Note_on_c, 1, 71, 127
1, 124307, Note_on_c, 1, 67, 127
1, 124386, Note_off_c, 1, 67, 0
1, 124389, Note_off_c, 1, 74, 0
1, 124391, Note_off_c, 1, 53, 0
1, 124395, Note_off_c, 1, 71, 0
1, 124529, Note_on_c, 1, 82, 127
1, 124533, Note_on_c, 1, 67, 127
1, 124539, Note_on_c, 1, 52, 127
1, 124622, Note_off_c, 1, 52, 0
1, 124630, Note_off_c, 1, 82, 0
1, 124634, Note_off_c, 1, 67, 0
1, 124771, Note_on_c, 1, 69, 127
1, 124782, Note_on_c, 1, 57, 127
1, 124788, Note_on_c, 1, 64, 127
1, 124793, Note_on_c, 1, 74, 127
1, 124840, Note_on_c, 1, 73, 127
1, 124863, Note_off_c, 1, 74, 0
1, 124892, Note_off_c, 1, 73, 0
1, 124899, Note_off_c, 1, 57, 0
1, 125016, Note_on_c, 1, 55, 127
1, 125017, Note_on_c, 1, 71, 127
1, 125119, Note_off_c, 1, 71, 0
1, 125124, Note_off_c, 1, 55, 0
1, 125164, Note_off_c, 1, 64, 0
1, 125224, Note_off_c, 1, 69, 0
1, 125244, Note_on_c, 1, 71, 127
1, 125262, Note_on_c, 1, 53, 127
1, 125270, Note_on_c, 1, 62, 127
1, 125358, Note_off_c, 1, 53, 0
1, 125360, Note_off_c, 1, 62, 0
1, 125361, Note_on_c, 1, 73, 127
1, 125367, Note_off_c, 1, 71, 0
1, 125473, Note_off_c, 1, 73, 0
1, 125479, Note_on_c, 1, 74, 127
1, 125492, Note_on_c, 1, 69, 127
1, 125492, Note_on_c, 1, 61, 127
1, 125501, Note_on_c, 1, 52, 127
1, 125578, Note_off_c, 1, 61, 0
1, 125581, Note_off_c, 1, 69, 0
1, 125593, Note_off_c, 1, 52, 0
1, 125595, Note_on_c, 1, 76, 127
1, 125599, Note_off_c, 1, 74, 0
1, 125711, Note_off_c, 1, 76, 0
1, 125720, Note_on_c, 1, 77, 127
1, 125733, Note_on_c, 1, 69, 127
1, 125733, Note_on_c, 1, 50, 127
1, 125737, Note_on_c, 1, 62, 127
1, 125842, Note_off_c, 1, 50, 0
1, 125864, Note_off_c, 1, 62, 0
1, 125916, Note_off_c, 1, 69, 0
1, 125936, Note_off_c, 1, 77, 0
1, 125957, Note_on_c, 1, 58, 127
1, 125964, Note_on_c, 1, 67, 127
1, 125977, Note_on_c, 1, 76, 127
1, 126064, Note_off_c, 1, 58, 0
1, 126075, Note_off_c, 1, 76, 0
1, 126080, Note_off_c, 1, 67, 0
1, 126081, Note_on_c, 1, 74, 127
1, 126172, Note_off_c, 1, 74, 0
1, 126211, Note_on_c, 1, 57, 127
1, 126212, Note_on_c, 1, 76, 127
1, 126219, Note_on_c, 1, 64, 127
1, 126224, Note_on_c, 1, 73, 127
1, 126286, Note_off_c, 1, 76, 0
1, 126313, Note_off_c, 1, 64, 0
1, 126314, Note_off_c, 1, 57, 0
1, 126316, Note_off_c, 1, 73, 0
1, 126327, Note_on_c, 1, 73, 127
1, 126430, Note_off_c, 1, 73, 0
1, 126454, Note_on_c, 1, 81, 127
1, 126456, Note_on_c, 1, 45, 127
1, 126471, Note_on_c, 1, 73, 127
1, 126473, Note_on_c, 1, 64, 127
1, 126542, Note_off_c, 1, 45, 0
1, 126558, Note_off_c, 1, 64, 0
1, 126565, Note_off_c, 1, 81, 0
1, 126566, Note_off_c, 1, 73, 0
1, 126699, Note_on_c, 1, 79, 127
1, 126706, Note_on_c, 1, 50, 127
1, 126716, Note_on_c, 1, 62, 127
1, 126718, Note_on_c, 1, 74, 127
1, 126738, Note_on_c, 1, 77, 127
1, 126781, Note_off_c, 1, 79, 0
1, 126813, Note_off_c, 1, 50, 0
1, 126814, Note_off_c, 1, 77, 0
1, 126919, Note_on_c, 1, 76, 127
1, 126941, Note_on_c, 1, 48, 127
1, 127037, Note_off_c, 1, 48, 0
1, 127063, Note_off_c, 1, 62, 0
1, 127066, Note_off_c, 1, 76, 0
1, 127150, Note_off_c, 1, 74, 0
1, 127164, Note_on_c, 1, 79, 127
1, 127184, Note_on_c, 1, 47, 127
1, 127186, Note_on_c, 1, 74, 127
1, 127191, Note_on_c, 1, 62, 127
1, 127263, Note_off_c, 1, 62, 0
1, 127276, Note_off_c, 1, 74, 0
1, 127276, Note_on_c, 1, 77, 127
1, 127285, Note_off_c, 1, 47, 0
1, 127314, Note_off_c, 1, 79, 0
1, 127394, Note_on_c, 1, 76, 127
1, 127415, Note_on_c, 1, 71, 127
1, 127415, Note_on_c, 1, 43, 127
1, 127428, Note_off_c, 1, 77, 0
1, 127428, Note_on_c, 1, 67, 127
1, 127500, Note_off_c, 1, 71, 0
1, 127511, Note_off_c, 1, 76, 0
1, 127511, Note_off_c, 1, 67, 0
1, 127515, Note_off_c, 1, 43, 0
1, 127642, Note_on_c, 1, 76, 127
1, 127659, Note_on_c, 1, 72, 127
1, 127662, Note_on_c, 1, 48, 127
1, 127674, Note_on_c, 1, 67, 127
1, 127763, Note_off_c, 1, 48, 0
1, 127865, Note_off_c, 1, 76, 0
1, 127887, Note_on_c, 1, 47, 127
1, 127891, Note_on_c, 1, 77, 127
1, 127988, Note_off_c, 1, 77, 0
1, 127990, Note_off_c, 1, 72, 0
1, 127995, Note_off_c, 1, 47, 0
1, 127999, Note_on_c, 1, 74, 127
1, 128009, Note_off_c, 1, 67, 0
1, 128086, Note_off_c, 1, 74, 0
1, 128129, Note_on_c, 1, 45, 127
1, 128130, Note_on_c, 1, 76, 127
1, 128145, Note_on_c, 1, 72, 127
1, 128147, Note_on_c, 1, 60, 127
1, 128212, Note_off_c, 1, 60, 0
1, 128222, Note_off_c, 1, 72, 0
1, 128225, Note_off_c, 1, 76, 0
1, 128234, Note_off_c, 1, 45, 0
1, 128241, Note_on_c, 1, 72, 127
1, 128338, Note_off_c, 1, 72, 0
1, 128368, Note_on_c, 1, 77, 127
1, 128372, Note_on_c, 1, 57, 127
1, 128384, Note_on_c, 1, 69, 127
1, 128388, Note_on_c, 1, 60, 127
1, 128465, Note_off_c, 1, 69, 0
1, 128466, Note_off_c, 1, 60, 0
1, 128472, Note_off_c, 1, 57, 0
1, 128499, Note_off_c, 1, 77, 0
1, 128617, Note_on_c, 1, 76, 127
1, 128617, Note_on_c, 1, 62, 127
1, 128624, Note_on_c, 1, 59, 127
1, 128631, Note_on_c, 1, 68, 127
1, 128663, Note_on_c, 1, 74, 127
1, 128699, Note_off_c, 1, 76, 0
1, 128725, Note_off_c, 1, 59, 0
1, 128739, Note_off_c, 1, 74, 0
1, 128850, Note_on_c, 1, 57, 127
1, 128856, Note_on_c, 1, 72, 127
1, 128955, Note_off_c, 1, 57, 0
1, 128960, Note_off_c, 1, 68, 0
1, 128961, Note_off_c, 1, 62, 0
1, 128971, Note_on_c, 1, 71, 127
1, 128976, Note_off_c, 1, 72, 0
1, 129056, Note_off_c, 1, 71, 0
1, 129096, Note_on_c, 1, 59, 127
1, 129096, Note_on_c, 1, 56, 127
1, 129101, Note_on_c, 1, 76, 127
1, 129107, Note_on_c, 1, 64, 127
1, 129180, Note_off_c, 1, 59, 0
1, 129194, Note_off_c, 1, 64, 0
1, 129196, Note_off_c, 1, 56, 0
1, 129207, Note_on_c, 1, 74, 127
1, 129232, Note_off_c, 1, 76, 0
1, 129323, Note_on_c, 1, 72, 127
1, 129325, Note_off_c, 1, 74, 0
1, 129337, Note_on_c, 1, 52, 127
1, 129343, Note_on_c, 1, 68, 127
1, 129421, Note_off_c, 1, 52, 0
1, 129436, Note_off_c, 1, 68, 0
1, 129438, Note_on_c, 1, 71, 127
1, 129444, Note_off_c, 1, 72, 0
1, 129534, Note_off_c, 1, 71, 0
1, 129554, Note_on_c, 1, 74, 127
1, 129573, Note_on_c, 1, 64, 127
1, 129575, Note_on_c, 1, 57, 127
1, 129582, Note_on_c, 1, 69, 127
1, 129664, Note_on_c, 1, 72, 127
1, 129675, Note_off_c, 1, 57, 0
1, 129684, Note_off_c, 1, 69, 0
1, 129703, Note_off_c, 1, 64, 0
1, 129717, Note_off_c, 1, 74, 0
1, 129811, Note_on_c, 1, 53, 127
1, 129811, Note_on_c, 1, 71, 127
1, 129812, Note_on_c, 1, 65, 127
1, 129816, Note_on_c, 1, 60, 127
1, 129828, Note_off_c, 1, 72, 0
1, 129897, Note_off_c, 1, 53, 0
1, 129901, Note_off_c, 1, 65, 0
1, 129907, Note_off_c, 1, 60, 0
1, 129926, Note_off_c, 1, 71, 0
1, 130048, Note_on_c, 1, 50, 127
1, 130050, Note_on_c, 1, 71, 127
1, 130058, Note_on_c, 1, 65, 127
1, 130136, Note_off_c, 1, 71, 0
1, 130146, Note_off_c, 1, 50, 0
1, 130155, Note_off_c, 1, 65, 0
1, 130293, Note_on_c, 1, 68, 127
1, 130299, Note_on_c, 1, 52, 127
1, 130300, Note_on_c, 1, 59, 127
1, 130306, Note_on_c, 1, 64, 127
1, 130378, Note_off_c, 1, 52, 0
1, 130380, Note_off_c, 1, 64, 0
1, 130386, Note_off_c, 1, 59, 0
1, 130395, Note_off_c, 1, 68, 0
1, 130545, Note_on_c, 1, 45, 127
1, 130548, Note_on_c, 1, 60, 127
1, 130552, Note_on_c, 1, 69, 127
1, 130557, Note_on_c, 1, 64, 127
1, 130670, Note_off_c, 1, 45, 0
1, 130790, Note_on_c, 1, 52, 127
1, 130873, Note_off_c, 1, 69, 0
1, 130882, Note_off_c, 1, 60, 0
1, 130882, Note_off_c, 1, 64, 0
1, 130886, Note_off_c, 1, 52, 0
1, 131015, Note_on_c, 1, 72, 127
1, 131016, Note_on_c, 1, 57, 127
1, 131033, Note_on_c, 1, 64, 127
1, 131120, Note_off_c, 1, 72, 0
1, 131120, Note_off_c, 1, 64, 0
1, 131133, Note_off_c, 1, 57, 0
1, 131256, Note_on_c, 1, 76, 127
1, 131261, Note_on_c, 1, 59, 127
1, 131262, Note_on_c, 1, 55, 127
1, 131269, Note_on_c, 1, 67, 127
1, 131344, Note_off_c, 1, 59, 0
1, 131354, Note_off_c, 1, 76, 0
1, 131354, Note_off_c, 1, 67, 0
1, 131356, Note_off_c, 1, 55, 0
1, 131500, Note_on_c, 1, 60, 127
1, 131504, Note_on_c, 1, 69, 127
1, 131507, Note_on_c, 1, 53, 127
1, 131638, Note_off_c, 1, 53, 0
1, 131704, Note_off_c, 1, 60, 0
1, 131728, Note_off_c, 1, 69, 0
1, 131745, Note_on_c, 1, 52, 127
1, 131746, Note_on_c, 1, 62, 127
1, 131748, Note_on_c, 1, 67, 127
1, 131753, Note_on_c, 1, 71, 127
1, 131841, Note_off_c, 1, 52, 0
1, 131844, Note_off_c, 1, 62, 0
1, 131845, Note_off_c, 1, 71, 0
1, 131848, Note_off_c, 1, 67, 0
1, 131851, Note_on_c, 1, 64, 127
1, 131851, Note_on_c, 1, 72, 127
1, 131925, Note_off_c, 1, 64, 0
1, 131942, Note_off_c, 1, 72, 0
1, 131974, Note_on_c, 1, 74, 127
1, 131976, Note_on_c, 1, 57, 127
1, 131979, Note_on_c, 1, 53, 127
1, 131985, Note_on_c, 1, 69, 127
1, 132060, Note_off_c, 1, 69, 0
1, 132069, Note_off_c, 1, 57, 0
1, 132074, Note_off_c, 1, 53, 0
1, 132083, Note_off_c, 1, 74, 0
1, 132087, Note_on_c, 1, 76, 127
1, 132184, Note_off_c, 1, 76, 0
1, 132207, Note_on_c, 1, 50, 127
1, 132208, Note_on_c, 1, 62, 127
1, 132217, Note_on_c, 1, 77, 127
1, 132226, Note_on_c, 1, 69, 127
1, 132288, Note_off_c, 1, 62, 0
1, 132295, Note_off_c, 1, 50, 0
1, 132305, Note_off_c, 1, 69, 0
1, 132455, Note_on_c, 1, 55, 127
1, 132465, Note_on_c, 1, 71, 127
1, 132600, Note_off_c, 1, 77, 0
1, 132626, Note_off_c, 1, 55, 0
1, 132702, Note_on_c, 1, 57, 127
1, 132820, Note_on_c, 1, 53, 127
1, 132822, Note_off_c, 1, 57, 0
1, 132839, Note_off_c, 1, 71, 0
1, 132907, Note_off_c, 1, 53, 0
1, 132944, Note_on_c, 1, 57, 127
1, 132946, Note_on_c, 1, 71, 127
1, 132947, Note_on_c, 1, 59, 127
1, 132947, Note_on_c, 1, 76, 127
1, 133018, Note_off_c, 1, 59, 0
1, 133032, Note_off_c, 1, 76, 0
1, 133035, Note_off_c, 1, 71, 0
1, 133058, Note_on_c, 1, 55, 127
1, 133087, Note_off_c, 1, 57, 0
1, 133173, Note_on_c, 1, 53, 127
1, 133177, Note_on_c, 1, 79, 127
1, 133189, Note_off_c, 1, 55, 0
1, 133189, Note_on_c, 1, 64, 127
1, 133273, Note_off_c, 1, 79, 0
1, 133284, Note_off_c, 1, 64, 0
1, 133288, Note_on_c, 1, 52, 127
1, 133294, Note_off_c, 1, 53, 0
1, 133375, Note_off_c, 1, 52, 0
1, 133415, Note_on_c, 1, 72, 127
1, 133416, Note_on_c, 1, 57, 127
1, 133419, Note_on_c, 1, 69, 127
1, 133428, Note_on_c, 1, 64, 127
1, 133523, Note_off_c, 1, 57, 0
1, 133595, Note_off_c, 1, 69, 0
1, 133634, Note_off_c, 1, 64, 0
1, 133648, Note_off_c, 1, 72, 0
1, 133663, Note_on_c, 1, 74, 127
1, 133663, Note_on_c, 1, 71, 127
1, 133663, Note_on_c, 1, 55, 127
1, 133668, Note_on_c, 1, 65, 127
1, 133742, Note_off_c, 1, 65, 0
1, 133762, Note_off_c, 1, 55, 0
1, 133766, Note_on_c, 1, 76, 127
1, 133769, Note_on_c, 1, 67, 127
1, 133773, Note_off_c, 1, 74, 0
1, 133775, Note_off_c, 1, 71, 0
1, 133843, Note_off_c, 1, 67, 0
1, 133870, Note_off_c, 1, 76, 0
1, 133880, Note_on_c, 1, 77, 127
1, 133894, Note_on_c, 1, 60, 127
1, 133902, Note_on_c, 1, 57, 127
1, 133908, Note_on_c, 1, 72, 127
1, 133981, Note_off_c, 1, 60, 0
1, 133988, Note_on_c, 1, 79, 127
1, 134007, Note_off_c, 1, 57, 0
1, 134008, Note_off_c, 1, 72, 0
1, 134016, Note_off_c, 1, 77, 0
1, 134106, Note_off_c, 1, 79, 0
1, 134118, Note_on_c, 1, 81, 127
1, 134134, Note_on_c, 1, 65, 127
1, 134135, Note_on_c, 1, 53, 127
1, 134149, Note_on_c, 1, 72, 127
1, 134216, Note_off_c, 1, 53, 0
1, 134219, Note_off_c, 1, 65, 0
1, 134234, Note_off_c, 1, 72, 0
1, 134368, Note_on_c, 1, 59, 127
1, 134393, Note_on_c, 1, 74, 127
1, 134517, Note_off_c, 1, 59, 0
1, 134580, Note_off_c, 1, 81, 0
1, 134620, Note_on_c, 1, 60, 127
1, 134622, Note_on_c, 1, 79, 127
1, 134727, Note_off_c, 1, 79, 0
1, 134728, Note_on_c, 1, 77, 127
1, 134730, Note_on_c, 1, 57, 127
1, 134734, Note_off_c, 1, 74, 0
1, 134736, Note_off_c, 1, 60, 0
1, 134835, Note_off_c, 1, 77, 0
1, 134844, Note_off_c, 1, 57, 0
1, 134845, Note_on_c, 1, 76, 127
1, 134859, Note_on_c, 1, 65, 127
1, 134864, Note_on_c, 1, 60, 127
1, 134867, Note_on_c, 1, 69, 127
1, 134942, Note_off_c, 1, 76, 0
1, 134947, Note_off_c, 1, 65, 0
1, 134952, Note_off_c, 1, 69, 0
1, 134954, Note_on_c, 1, 74, 127
1, 134969, Note_on_c, 1, 59, 127
1, 134996, Note_off_c, 1, 60, 0
1, 135057, Note_off_c, 1, 74, 0
1, 135080, Note_on_c, 1, 57, 127
1, 135088, Note_on_c, 1, 62, 127
1, 135090, Note_off_c, 1, 59, 0
1, 135091, Note_on_c, 1, 71, 127
1, 135096, Note_on_c, 1, 79, 127
1, 135175, Note_off_c, 1, 62, 0
1, 135180, Note_off_c, 1, 71, 0
1, 135192, Note_on_c, 1, 55, 127
1, 135195, Note_off_c, 1, 57, 0
1, 135196, Note_off_c, 1, 79, 0
1, 135281, Note_off_c, 1, 55, 0
1, 135325, Note_on_c, 1, 60, 127
1, 135327, Note_on_c, 1, 70, 127
1, 135336, Note_on_c, 1, 64, 127
1, 135340, Note_on_c, 1, 67, 127
1, 135431, Note_off_c, 1, 60, 0
1, 135517, Note_off_c, 1, 67, 0
1, 135522, Note_off_c, 1, 64, 0
1, 135533, Note_off_c, 1, 70, 0
1, 135564, Note_on_c, 1, 55, 127
1, 135569, Note_on_c, 1, 72, 127
1, 135582, Note_on_c, 1, 67, 127
1, 135584, Note_on_c, 1, 64, 127
1, 135650, Note_off_c, 1, 72, 0
1, 135666, Note_off_c, 1, 67, 0
1, 135672, Note_off_c, 1, 55, 0
1, 135672, Note_off_c, 1, 64, 0
1, 135679, Note_on_c, 1, 69, 127
1, 135784, Note_off_c, 1, 69, 0
1, 135807, Note_on_c, 1, 70, 127
1, 135808, Note_on_c, 1, 67, 127
1, 135808, Note_on_c, 1, 52, 127
1, 135817, Note_on_c, 1, 64, 127
1, 135906, Note_off_c, 1, 64, 0
1, 135911, Note_off_c, 1, 70, 0
1, 135912, Note_off_c, 1, 52, 0
1, 135913, Note_off_c, 1, 67, 0
1, 136052, Note_on_c, 1, 48, 127
1, 136053, Note_on_c, 1, 67, 127
1, 136057, Note_on_c, 1, 64, 127
1, 136059, Note_on_c, 1, 79, 127
1, 136150, Note_off_c, 1, 64, 0
1, 136158, Note_off_c, 1, 48, 0
1, 136158, Note_off_c, 1, 79, 0
1, 136160, Note_off_c, 1, 67, 0
1, 136299, Note_on_c, 1, 70, 127
1, 136299, Note_on_c, 1, 65, 127
1, 136301, Note_on_c, 1, 53, 127
1, 136303, Note_on_c, 1, 60, 127
1, 136402, Note_on_c, 1, 69, 127
1, 136415, Note_off_c, 1, 53, 0
1, 136443, Note_off_c, 1, 70, 0
1, 136529, Note_on_c, 1, 67, 127
1, 136534, Note_on_c, 1, 52, 127
1, 136546, Note_off_c, 1, 69, 0
1, 136654, Note_off_c, 1, 52, 0
1, 136655, Note_off_c, 1, 60, 0
1, 136656, Note_off_c, 1, 67, 0
1, 136736, Note_off_c, 1, 65, 0
1, 136769, Note_on_c, 1, 50, 127
1, 136775, Note_on_c, 1, 62, 127
1, 136777, Note_on_c, 1, 72, 127
1, 136777, Note_on_c, 1, 69, 127
1, 136855, Note_off_c, 1, 62, 0
1, 136890, Note_off_c, 1, 50, 0
1, 136896, Note_on_c, 1, 71, 127
1, 136898, Note_off_c, 1, 69, 0
1, 136933, Note_off_c, 1, 72, 0
1, 137001, Note_on_c, 1, 53, 127
1, 137113, Note_on_c, 1, 67, 127
1, 137124, Note_off_c, 1, 53, 0
1, 137137, Note_off_c, 1, 71, 0
1, 137244, Note_off_c, 1, 67, 0
1, 137245, Note_on_c, 1, 79, 127
1, 137245, Note_on_c, 1, 72, 127
1, 137254, Note_on_c, 1, 52, 127
1, 137263, Note_on_c, 1, 64, 127
1, 137352, Note_off_c, 1, 79, 0
1, 137368, Note_off_c, 1, 64, 0
1, 137374, Note_off_c, 1, 52, 0
1, 137382, Note_off_c, 1, 72, 0
1, 137492, Note_on_c, 1, 60, 127
1, 137493, Note_on_c, 1, 81, 127
1, 137493, Note_on_c, 1, 72, 127
1, 137497, Note_on_c, 1, 53, 127
1, 137598, Note_off_c, 1, 72, 0
1, 137598, Note_off_c, 1, 53, 0
1, 137607, Note_off_c, 1, 81, 0
1, 137611, Note_off_c, 1, 60, 0
1, 137736, Note_on_c, 1, 77, 127
1, 137736, Note_on_c, 1, 72, 127
1, 137736, Note_on_c, 1, 67, 127
1, 137736, Note_on_c, 1, 55, 127
1, 137783, Note_on_c, 1, 76, 127
1, 137811, Note_off_c, 1, 77, 0
1, 137827, Note_off_c, 1, 67, 0
1, 137837, Note_off_c, 1, 55, 0
1, 137842, Note_off_c, 1, 72, 0
1, 137856, Note_off_c, 1, 76, 0
1, 137970, Note_on_c, 1, 71, 127
1, 137971, Note_on_c, 1, 74, 127
1, 137978, Note_on_c, 1, 43, 127
1, 137984, Note_on_c, 1, 65, 127
1, 138069, Note_off_c, 1, 71, 0
1, 138078, Note_off_c, 1, 74, 0
1, 138078, Note_off_c, 1, 43, 0
1, 138081, Note_off_c, 1, 65, 0
1, 138223, Note_on_c, 1, 72, 127
1, 138225, Note_on_c, 1, 67, 127
1, 138229, Note_on_c, 1, 36, 127
1, 138240, Note_on_c, 1, 64, 127
1, 138575, Note_off_c, 1, 64, 0
1, 138579, Note_off_c, 1, 36, 0
1, 138593, Note_off_c, 1, 67, 0
1, 138598, Note_off_c, 1, 72, 0
1, 138598, End_track
0, 0, End_of_file