0, 0, Header, 1, 1, 480
1, 0, Start_track
1, 0, Title_t, "Test"
1, 0, Tempo, 500000
1, 0, Instrument_name_t, "Church Organ"
1, 1294, Note_on_c, 1, 74, 127
1, 1297, Note_on_c, 1, 69, 127
1, 1301, Note_on_c, 1, 62, 127
1, 1306, Note_on_c, 1, 66, 127
1, 1314, Note_on_c, 1, 50, 127
1, 1347, Note_off_c, 1, 74, 0
1, 1350, Note_off_c, 1, 69, 0
1, 1375, Note_off_c, 1, 62, 0
1, 1380, Note_off_c, 1, 66, 0
1, 1380, Note_off_c, 1, 50, 0
1, 1415, Note_on_c, 1, 66, 127
1, 1418, Note_on_c, 1, 81, 127
1, 1420, Note_on_c, 1, 74, 127
1, 1425, Note_on_c, 1, 69, 127
1, 1431, Note_on_c, 1, 50, 127
1, 1432, Note_on_c, 1, 62, 127
1, 1470, Note_off_c, 1, 50, 0
1, 1553, Note_on_c, 1, 61, 127
1, 1611, Note_off_c, 1, 61, 0
1, 1663, Note_off_c, 1, 74, 0
1, 1680, Note_off_c, 1, 81, 0
1, 1687, Note_off_c, 1, 66, 0
1, 1702, Note_off_c, 1, 69, 0
1, 1715, Note_off_c, 1, 62, 0
1, 1753, Note_on_c, 1, 50, 127
1, 1771, Note_on_c, 1, 79, 127
1, 1772, Note_on_c, 1, 83, 127
1, 1774, Note_on_c, 1, 71, 127
1, 1778, Note_on_c, 1, 62, 127
1, 1783, Note_on_c, 1, 67, 127
1, 1820, Note_off_c, 1, 50, 0
1, 1892, Note_on_c, 1, 61, 127
1, 1965, Note_off_c, 1, 61, 0
1, 1991, Note_off_c, 1, 79, 0
1, 2008, Note_off_c, 1, 67, 0
1, 2027, Note_off_c, 1, 71, 0
1, 2036, Note_off_c, 1, 83, 0
1, 2040, Note_off_c, 1, 62, 0
1, 2089, Note_on_c, 1, 50, 127
1, 2121, Note_on_c, 1, 62, 127
1, 2122, Note_on_c, 1, 69, 127
1, 2122, Note_on_c, 1, 66, 127
1, 2130, Note_on_c, 1, 81, 127
1, 2139, Note_on_c, 1, 74, 127
1, 2154, Note_off_c, 1, 50, 0
1, 2225, Note_on_c, 1, 61, 127
1, 2348, Note_off_c, 1, 61, 0
1, 2558, Note_off_c, 1, 69, 0
1, 2564, Note_off_c, 1, 81, 0
1, 2576, Note_off_c, 1, 74, 0
1, 2604, Note_on_c, 1, 71, 127
1, 2612, Note_on_c, 1, 83, 127
1, 2619, Note_off_c, 1, 62, 0
1, 2632, Note_off_c, 1, 66, 0
1, 2662, Note_off_c, 1, 83, 0
1, 2679, Note_off_c, 1, 71, 0
1, 2695, Note_on_c, 1, 52, 127
1, 2704, Note_on_c, 1, 69, 127
1, 2712, Note_on_c, 1, 45, 127
1, 2717, Note_on_c, 1, 55, 127
1, 2725, Note_on_c, 1, 73, 127
1, 2731, Note_on_c, 1, 79, 127
1, 2733, Note_on_c, 1, 85, 127
1, 2733, Note_on_c, 1, 67, 127
1, 2760, Note_off_c, 1, 45, 0
1, 2770, Note_off_c, 1, 69, 0
1, 2772, Note_off_c, 1, 52, 0
1, 2782, Note_off_c, 1, 79, 0
1, 2785, Note_off_c, 1, 55, 0
1, 2785, Note_off_c, 1, 85, 0
1, 2787, Note_off_c, 1, 73, 0
1, 2803, Note_off_c, 1, 67, 0
1, 2816, Note_on_c, 1, 54, 127
1, 2829, Note_on_c, 1, 50, 127
1, 2844, Note_on_c, 1, 62, 127
1, 2848, Note_on_c, 1, 69, 127
1, 2851, Note_on_c, 1, 74, 127
1, 2855, Note_on_c, 1, 81, 127
1, 2859, Note_on_c, 1, 86, 127
1, 2885, Note_off_c, 1, 50, 0
1, 2963, Note_on_c, 1, 73, 127
1, 2970, Note_on_c, 1, 85, 127
1, 2972, Note_off_c, 1, 54, 0
1, 2982, Note_off_c, 1, 86, 0
1, 2995, Note_off_c, 1, 69, 0
1, 2998, Note_off_c, 1, 74, 0
1, 3005, Note_off_c, 1, 62, 0
1, 3031, Note_off_c, 1, 85, 0
1, 3038, Note_off_c, 1, 81, 0
1, 3049, Note_off_c, 1, 73, 0
1, 3074, Note_on_c, 1, 50, 127
1, 3083, Note_on_c, 1, 71, 127
1, 3083, Note_on_c, 1, 55, 127
1, 3088, Note_on_c, 1, 62, 127
1, 3091, Note_on_c, 1, 83, 127
1, 3093, Note_on_c, 1, 74, 127
1, 3093, Note_on_c, 1, 67, 127
1, 3104, Note_on_c, 1, 79, 127
1, 3126, Note_off_c, 1, 50, 0
1, 3137, Note_off_c, 1, 83, 0
1, 3142, Note_off_c, 1, 62, 0
1, 3142, Note_off_c, 1, 74, 0
1, 3143, Note_off_c, 1, 71, 0
1, 3146, Note_off_c, 1, 67, 0
1, 3152, Note_off_c, 1, 79, 0
1, 3157, Note_off_c, 1, 55, 0
1, 3200, Note_on_c, 1, 57, 127
1, 3205, Note_on_c, 1, 62, 127
1, 3206, Note_on_c, 1, 74, 127
1, 3215, Note_on_c, 1, 69, 127
1, 3219, Note_on_c, 1, 45, 127
1, 3219, Note_on_c, 1, 66, 127
1, 3222, Note_on_c, 1, 78, 127
1, 3224, Note_on_c, 1, 81, 127
1, 3273, Note_off_c, 1, 45, 0
1, 3306, Note_off_c, 1, 57, 0
1, 3317, Note_off_c, 1, 74, 0
1, 3321, Note_on_c, 1, 71, 127
1, 3329, Note_on_c, 1, 83, 127
1, 3335, Note_off_c, 1, 81, 0
1, 3348, Note_off_c, 1, 69, 0
1, 3364, Note_off_c, 1, 66, 0
1, 3368, Note_off_c, 1, 62, 0
1, 3378, Note_off_c, 1, 78, 0
1, 3379, Note_off_c, 1, 83, 0
1, 3401, Note_off_c, 1, 71, 0
1, 3441, Note_on_c, 1, 61, 127
1, 3444, Note_on_c, 1, 45, 127
1, 3445, Note_on_c, 1, 67, 127
1, 3447, Note_on_c, 1, 69, 127
1, 3454, Note_on_c, 1, 64, 127
1, 3456, Note_on_c, 1, 79, 127
1, 3457, Note_on_c, 1, 76, 127
1, 3490, Note_off_c, 1, 69, 0
1, 3499, Note_off_c, 1, 61, 0
1, 3499, Note_off_c, 1, 79, 0
1, 3500, Note_off_c, 1, 64, 0
1, 3502, Note_off_c, 1, 76, 0
1, 3506, Note_off_c, 1, 67, 0
1, 3513, Note_off_c, 1, 45, 0
1, 3565, Note_on_c, 1, 50, 127
1, 3574, Note_on_c, 1, 66, 127
1, 3575, Note_on_c, 1, 69, 127
1, 3581, Note_on_c, 1, 57, 127
1, 3592, Note_on_c, 1, 74, 127
1, 3592, Note_on_c, 1, 62, 127
1, 3594, Note_on_c, 1, 78, 127
1, 3693, Note_on_c, 1, 55, 127
1, 3696, Note_on_c, 1, 64, 127
1, 3697, Note_on_c, 1, 76, 127
1, 3706, Note_off_c, 1, 69, 0
1, 3706, Note_on_c, 1, 61, 127
1, 3708, Note_off_c, 1, 78, 0
1, 3717, Note_off_c, 1, 57, 0
1, 3729, Note_off_c, 1, 66, 0
1, 3732, Note_off_c, 1, 62, 0
1, 3733, Note_off_c, 1, 74, 0
1, 3758, Note_off_c, 1, 76, 0
1, 3778, Note_off_c, 1, 55, 0
1, 3788, Note_off_c, 1, 64, 0
1, 3793, Note_off_c, 1, 61, 0
1, 3942, Note_on_c, 1, 54, 127
1, 4045, Note_off_c, 1, 50, 0
1, 4075, Note_off_c, 1, 54, 0
1, 4196, Note_on_c, 1, 49, 127
1, 4247, Note_off_c, 1, 49, 0
1, 4317, Note_on_c, 1, 62, 127
1, 4328, Note_on_c, 1, 74, 127
1, 4330, Note_on_c, 1, 66, 127
1, 4334, Note_on_c, 1, 47, 127
1, 4447, Note_on_c, 1, 45, 127
1, 4476, Note_off_c, 1, 47, 0
1, 4535, Note_off_c, 1, 45, 0
1, 4578, Note_off_c, 1, 74, 0
1, 4582, Note_off_c, 1, 66, 0
1, 4598, Note_off_c, 1, 62, 0
1, 4680, Note_on_c, 1, 78, 127
1, 4689, Note_on_c, 1, 62, 127
1, 4707, Note_on_c, 1, 71, 127
1, 4714, Note_on_c, 1, 45, 127
1, 4813, Note_on_c, 1, 44, 127
1, 4842, Note_off_c, 1, 45, 0
1, 4908, Note_off_c, 1, 44, 0
1, 4919, Note_off_c, 1, 71, 0
1, 4936, Note_off_c, 1, 62, 0
1, 4949, Note_off_c, 1, 78, 0
1, 5039, Note_on_c, 1, 64, 127
1, 5040, Note_on_c, 1, 76, 127
1, 5055, Note_on_c, 1, 44, 127
1, 5062, Note_on_c, 1, 71, 127
1, 5161, Note_on_c, 1, 42, 127
1, 5191, Note_off_c, 1, 44, 0
1, 5284, Note_off_c, 1, 42, 0
1, 5410, Note_on_c, 1, 40, 127
1, 5468, Note_off_c, 1, 64, 0
1, 5511, Note_off_c, 1, 71, 0
1, 5525, Note_off_c, 1, 76, 0
1, 5559, Note_off_c, 1, 40, 0
1, 5624, Note_on_c, 1, 74, 127
1, 5688, Note_off_c, 1, 74, 0
1, 5751, Note_on_c, 1, 73, 127
1, 5762, Note_on_c, 1, 69, 127
1, 5767, Note_on_c, 1, 45, 127
1, 5777, Note_on_c, 1, 64, 127
1, 5870, Note_on_c, 1, 71, 127
1, 5886, Note_off_c, 1, 45, 0
1, 5902, Note_off_c, 1, 73, 0
1, 5903, Note_off_c, 1, 64, 0
1, 5920, Note_off_c, 1, 69, 0
1, 5944, Note_off_c, 1, 71, 0
1, 5981, Note_on_c, 1, 69, 127
1, 5984, Note_on_c, 1, 54, 127
1, 6004, Note_on_c, 1, 61, 127
1, 6057, Note_off_c, 1, 69, 0
1, 6072, Note_off_c, 1, 54, 0
1, 6079, Note_off_c, 1, 61, 0
1, 6115, Note_on_c, 1, 71, 127
1, 6120, Note_on_c, 1, 50, 127
1, 6128, Note_on_c, 1, 69, 127
1, 6135, Note_on_c, 1, 66, 127
1, 6220, Note_on_c, 1, 73, 127
1, 6234, Note_off_c, 1, 50, 0
1, 6253, Note_off_c, 1, 71, 0
1, 6281, Note_off_c, 1, 66, 0
1, 6289, Note_off_c, 1, 69, 0
1, 6302, Note_off_c, 1, 73, 0
1, 6333, Note_on_c, 1, 74, 127
1, 6353, Note_on_c, 1, 68, 127
1, 6358, Note_on_c, 1, 52, 127
1, 6367, Note_on_c, 1, 64, 127
1, 6399, Note_off_c, 1, 74, 0
1, 6413, Note_off_c, 1, 68, 0
1, 6423, Note_off_c, 1, 52, 0
1, 6423, Note_off_c, 1, 64, 0
1, 6467, Note_on_c, 1, 73, 127
1, 6489, Note_on_c, 1, 64, 127
1, 6493, Note_on_c, 1, 69, 127
1, 6493, Note_on_c, 1, 45, 127
1, 6582, Note_on_c, 1, 71, 127
1, 6600, Note_on_c, 1, 62, 127
1, 6608, Note_on_c, 1, 68, 127
1, 6619, Note_off_c, 1, 73, 0
1, 6623, Note_off_c, 1, 64, 0
1, 6623, Note_off_c, 1, 69, 0
1, 6669, Note_off_c, 1, 71, 0
1, 6685, Note_off_c, 1, 62, 0
1, 6685, Note_off_c, 1, 68, 0
1, 6844, Note_on_c, 1, 61, 127
1, 6946, Note_off_c, 1, 45, 0
1, 6973, Note_off_c, 1, 61, 0
1, 7057, Note_on_c, 1, 76, 127
1, 7066, Note_on_c, 1, 43, 127
1, 7069, Note_on_c, 1, 67, 127
1, 7080, Note_on_c, 1, 71, 127
1, 7114, Note_off_c, 1, 76, 0
1, 7127, Note_off_c, 1, 67, 0
1, 7128, Note_off_c, 1, 71, 0
1, 7131, Note_off_c, 1, 43, 0
1, 7187, Note_on_c, 1, 78, 127
1, 7191, Note_on_c, 1, 42, 127
1, 7194, Note_on_c, 1, 81, 127
1, 7196, Note_on_c, 1, 61, 127
1, 7205, Note_on_c, 1, 73, 127
1, 7299, Note_on_c, 1, 79, 127
1, 7300, Note_on_c, 1, 76, 127
1, 7312, Note_off_c, 1, 78, 0
1, 7312, Note_off_c, 1, 42, 0
1, 7325, Note_off_c, 1, 81, 0
1, 7368, Note_off_c, 1, 76, 0
1, 7380, Note_off_c, 1, 79, 0
1, 7418, Note_on_c, 1, 55, 127
1, 7425, Note_off_c, 1, 73, 0
1, 7443, Note_off_c, 1, 61, 0
1, 7496, Note_off_c, 1, 55, 0
1, 7539, Note_on_c, 1, 54, 127
1, 7544, Note_on_c, 1, 73, 127
1, 7547, Note_on_c, 1, 81, 127
1, 7548, Note_on_c, 1, 78, 127
1, 7556, Note_on_c, 1, 66, 127
1, 7655, Note_on_c, 1, 79, 127
1, 7660, Note_on_c, 1, 76, 127
1, 7665, Note_off_c, 1, 54, 0
1, 7675, Note_off_c, 1, 78, 0
1, 7688, Note_off_c, 1, 81, 0
1, 7716, Note_off_c, 1, 76, 0
1, 7728, Note_off_c, 1, 79, 0
1, 7749, Note_off_c, 1, 73, 0
1, 7774, Note_off_c, 1, 66, 0
1, 7788, Note_on_c, 1, 52, 127
1, 7852, Note_off_c, 1, 52, 0
1, 7898, Note_on_c, 1, 81, 127
1, 7902, Note_on_c, 1, 78, 127
1, 7908, Note_on_c, 1, 71, 127
1, 7912, Note_on_c, 1, 66, 127
1, 7915, Note_on_c, 1, 51, 127
1, 8012, Note_on_c, 1, 79, 127
1, 8056, Note_off_c, 1, 51, 0
1, 8117, Note_off_c, 1, 79, 0
1, 8154, Note_on_c, 1, 54, 127
1, 8231, Note_off_c, 1, 54, 0
1, 8316, Note_off_c, 1, 78, 0
1, 8318, Note_off_c, 1, 81, 0
1, 8361, Note_off_c, 1, 66, 0
1, 8372, Note_on_c, 1, 75, 127
1, 8375, Note_on_c, 1, 83, 127
1, 8398, Note_off_c, 1, 71, 0
1, 8429, Note_off_c, 1, 83, 0
1, 8434, Note_off_c, 1, 75, 0
1, 8487, Note_on_c, 1, 78, 127
1, 8493, Note_on_c, 1, 81, 127
1, 8496, Note_on_c, 1, 63, 127
1, 8496, Note_on_c, 1, 47, 127
1, 8507, Note_on_c, 1, 71, 127
1, 8540, Note_off_c, 1, 81, 0
1, 8550, Note_off_c, 1, 78, 0
1, 8558, Note_off_c, 1, 71, 0
1, 8563, Note_off_c, 1, 63, 0
1, 8577, Note_off_c, 1, 47, 0
1, 8611, Note_on_c, 1, 79, 127
1, 8611, Note_on_c, 1, 71, 127
1, 8621, Note_on_c, 1, 64, 127
1, 8625, Note_on_c, 1, 76, 127
1, 8630, Note_on_c, 1, 52, 127
1, 8710, Note_on_c, 1, 78, 127
1, 8720, Note_on_c, 1, 74, 127
1, 8740, Note_off_c, 1, 76, 0
1, 8756, Note_off_c, 1, 79, 0
1, 8768, Note_off_c, 1, 52, 0
1, 8794, Note_off_c, 1, 74, 0
1, 8805, Note_off_c, 1, 78, 0
1, 8844, Note_off_c, 1, 71, 0
1, 8846, Note_on_c, 1, 54, 127
1, 8849, Note_off_c, 1, 64, 0
1, 8927, Note_off_c, 1, 54, 0
1, 8960, Note_on_c, 1, 52, 127
1, 8963, Note_on_c, 1, 71, 127
1, 8965, Note_on_c, 1, 79, 127
1, 8970, Note_on_c, 1, 64, 127
1, 8974, Note_on_c, 1, 76, 127
1, 9072, Note_on_c, 1, 78, 127
1, 9084, Note_on_c, 1, 74, 127
1, 9089, Note_off_c, 1, 52, 0
1, 9100, Note_off_c, 1, 76, 0
1, 9116, Note_off_c, 1, 79, 0
1, 9149, Note_off_c, 1, 74, 0
1, 9168, Note_off_c, 1, 78, 0
1, 9170, Note_off_c, 1, 64, 0
1, 9184, Note_off_c, 1, 71, 0
1, 9195, Note_on_c, 1, 79, 127
1, 9202, Note_on_c, 1, 50, 127
1, 9205, Note_on_c, 1, 76, 127
1, 9252, Note_off_c, 1, 76, 0
1, 9253, Note_off_c, 1, 79, 0
1, 9281, Note_off_c, 1, 50, 0
1, 9323, Note_on_c, 1, 49, 127
1, 9324, Note_on_c, 1, 64, 127
1, 9326, Note_on_c, 1, 79, 127
1, 9331, Note_on_c, 1, 69, 127
1, 9336, Note_on_c, 1, 76, 127
1, 9444, Note_on_c, 1, 78, 127
1, 9473, Note_off_c, 1, 49, 0
1, 9528, Note_off_c, 1, 78, 0
1, 9569, Note_on_c, 1, 52, 127
1, 9644, Note_off_c, 1, 52, 0
1, 9743, Note_off_c, 1, 64, 0
1, 9744, Note_off_c, 1, 79, 0
1, 9757, Note_off_c, 1, 76, 0
1, 9789, Note_on_c, 1, 73, 127
1, 9810, Note_on_c, 1, 81, 127
1, 9829, Note_off_c, 1, 69, 0
1, 9859, Note_off_c, 1, 81, 0
1, 9876, Note_off_c, 1, 73, 0
1, 9913, Note_on_c, 1, 76, 127
1, 9914, Note_on_c, 1, 69, 127
1, 9921, Note_on_c, 1, 79, 127
1, 9925, Note_on_c, 1, 45, 127
1, 9934, Note_on_c, 1, 73, 127
1, 9973, Note_off_c, 1, 69, 0
1, 9973, Note_off_c, 1, 79, 0
1, 9978, Note_off_c, 1, 45, 0
1, 9980, Note_off_c, 1, 76, 0
1, 10003, Note_off_c, 1, 73, 0
1, 10042, Note_on_c, 1, 78, 127
1, 10043, Note_on_c, 1, 69, 127
1, 10053, Note_on_c, 1, 74, 127
1, 10063, Note_on_c, 1, 50, 127
1, 10150, Note_on_c, 1, 80, 127
1, 10184, Note_off_c, 1, 50, 0
1, 10215, Note_off_c, 1, 69, 0
1, 10260, Note_on_c, 1, 81, 127
1, 10265, Note_off_c, 1, 80, 0
1, 10280, Note_off_c, 1, 78, 0
1, 10280, Note_on_c, 1, 62, 127
1, 10319, Note_off_c, 1, 74, 0
1, 10323, Note_off_c, 1, 81, 0
1, 10366, Note_off_c, 1, 62, 0
1, 10395, Note_on_c, 1, 81, 127
1, 10407, Note_on_c, 1, 64, 127
1, 10412, Note_on_c, 1, 61, 127
1, 10416, Note_on_c, 1, 76, 127
1, 10507, Note_on_c, 1, 80, 127
1, 10527, Note_off_c, 1, 61, 0
1, 10539, Note_off_c, 1, 81, 0
1, 10556, Note_off_c, 1, 64, 0
1, 10556, Note_off_c, 1, 76, 0
1, 10609, Note_off_c, 1, 80, 0
1, 10625, Note_on_c, 1, 81, 127
1, 10634, Note_on_c, 1, 69, 127
1, 10643, Note_on_c, 1, 49, 127
1, 10649, Note_on_c, 1, 64, 127
1, 10697, Note_off_c, 1, 81, 0
1, 10702, Note_off_c, 1, 69, 0
1, 10704, Note_off_c, 1, 64, 0
1, 10709, Note_off_c, 1, 49, 0
1, 10758, Note_on_c, 1, 47, 127
1, 10775, Note_on_c, 1, 74, 127
1, 10775, Note_on_c, 1, 71, 127
1, 10777, Note_on_c, 1, 66, 127
1, 10889, Note_on_c, 1, 76, 127
1, 10898, Note_off_c, 1, 47, 0
1, 10915, Note_off_c, 1, 74, 0
1, 10916, Note_off_c, 1, 66, 0
1, 10948, Note_off_c, 1, 71, 0
1, 11001, Note_off_c, 1, 76, 0
1, 11003, Note_on_c, 1, 78, 127
1, 11007, Note_on_c, 1, 74, 127
1, 11010, Note_on_c, 1, 59, 127
1, 11059, Note_off_c, 1, 78, 0
1, 11070, Note_off_c, 1, 74, 0
1, 11083, Note_off_c, 1, 59, 0
1, 11123, Note_on_c, 1, 57, 127
1, 11134, Note_on_c, 1, 78, 127
1, 11139, Note_on_c, 1, 74, 127
1, 11141, Note_on_c, 1, 59, 127
1, 11254, Note_off_c, 1, 57, 0
1, 11255, Note_on_c, 1, 76, 127
1, 11281, Note_off_c, 1, 78, 0
1, 11292, Note_off_c, 1, 59, 0
1, 11321, Note_off_c, 1, 74, 0
1, 11363, Note_on_c, 1, 45, 127
1, 11368, Note_off_c, 1, 76, 0
1, 11434, Note_off_c, 1, 45, 0
1, 11497, Note_on_c, 1, 44, 127
1, 11499, Note_on_c, 1, 71, 127
1, 11517, Note_on_c, 1, 74, 127
1, 11517, Note_on_c, 1, 64, 127
1, 11606, Note_on_c, 1, 73, 127
1, 11638, Note_off_c, 1, 44, 0
1, 11648, Note_off_c, 1, 64, 0
1, 11655, Note_off_c, 1, 71, 0
1, 11690, Note_off_c, 1, 74, 0
1, 11736, Note_off_c, 1, 73, 0
1, 11748, Note_on_c, 1, 56, 127
1, 11825, Note_off_c, 1, 56, 0
1, 11854, Note_on_c, 1, 74, 127
1, 11865, Note_on_c, 1, 54, 127
1, 11880, Note_on_c, 1, 69, 127
1, 11889, Note_on_c, 1, 66, 127
1, 11970, Note_on_c, 1, 73, 127
1, 11994, Note_off_c, 1, 54, 0
1, 12002, Note_off_c, 1, 74, 0
1, 12020, Note_off_c, 1, 66, 0
1, 12050, Note_off_c, 1, 69, 0
1, 12075, Note_off_c, 1, 73, 0
1, 12081, Note_on_c, 1, 74, 127
1, 12101, Note_on_c, 1, 66, 127
1, 12111, Note_on_c, 1, 42, 127
1, 12181, Note_off_c, 1, 66, 0
1, 12188, Note_off_c, 1, 74, 0
1, 12196, Note_off_c, 1, 42, 0
1, 12216, Note_on_c, 1, 68, 127
1, 12237, Note_on_c, 1, 40, 127
1, 12244, Note_on_c, 1, 59, 127
1, 12252, Note_on_c, 1, 76, 127
1, 12332, Note_on_c, 1, 69, 127
1, 12363, Note_off_c, 1, 40, 0
1, 12375, Note_off_c, 1, 68, 0
1, 12375, Note_off_c, 1, 59, 0
1, 12403, Note_off_c, 1, 76, 0
1, 12447, Note_on_c, 1, 71, 127
1, 12463, Note_off_c, 1, 69, 0
1, 12469, Note_on_c, 1, 52, 127
1, 12472, Note_on_c, 1, 64, 127
1, 12518, Note_off_c, 1, 71, 0
1, 12524, Note_off_c, 1, 52, 0
1, 12547, Note_off_c, 1, 64, 0
1, 12579, Note_on_c, 1, 64, 127
1, 12588, Note_on_c, 1, 50, 127
1, 12592, Note_on_c, 1, 68, 127
1, 12602, Note_on_c, 1, 71, 127
1, 12689, Note_on_c, 1, 49, 127
1, 12711, Note_off_c, 1, 50, 0
1, 12716, Note_off_c, 1, 71, 0
1, 12752, Note_off_c, 1, 64, 0
1, 12779, Note_off_c, 1, 49, 0
1, 12807, Note_off_c, 1, 68, 0
1, 12814, Note_on_c, 1, 71, 127
1, 12817, Note_on_c, 1, 47, 127
1, 12832, Note_on_c, 1, 68, 127
1, 12840, Note_on_c, 1, 62, 127
1, 12880, Note_off_c, 1, 47, 0
1, 12886, Note_off_c, 1, 71, 0
1, 12905, Note_off_c, 1, 68, 0
1, 12924, Note_off_c, 1, 62, 0
1, 12947, Note_on_c, 1, 49, 127
1, 12955, Note_on_c, 1, 76, 127
1, 12964, Note_on_c, 1, 69, 127
1, 12972, Note_on_c, 1, 61, 127
1, 13060, Note_on_c, 1, 47, 127
1, 13069, Note_on_c, 1, 74, 127
1, 13090, Note_off_c, 1, 49, 0
1, 13092, Note_off_c, 1, 76, 0
1, 13122, Note_off_c, 1, 61, 0
1, 13140, Note_off_c, 1, 69, 0
1, 13145, Note_off_c, 1, 47, 0
1, 13171, Note_on_c, 1, 45, 127
1, 13181, Note_on_c, 1, 64, 127
1, 13184, Note_on_c, 1, 73, 127
1, 13193, Note_off_c, 1, 74, 0
1, 13246, Note_off_c, 1, 64, 0
1, 13252, Note_off_c, 1, 45, 0
1, 13255, Note_off_c, 1, 73, 0
1, 13314, Note_on_c, 1, 64, 127
1, 13317, Note_on_c, 1, 74, 127
1, 13320, Note_on_c, 1, 52, 127
1, 13332, Note_on_c, 1, 69, 127
1, 13429, Note_on_c, 1, 73, 127
1, 13461, Note_off_c, 1, 64, 0
1, 13462, Note_off_c, 1, 74, 0
1, 13484, Note_off_c, 1, 69, 0
1, 13537, Note_on_c, 1, 62, 127
1, 13548, Note_on_c, 1, 71, 127
1, 13554, Note_on_c, 1, 68, 127
1, 13559, Note_off_c, 1, 73, 0
1, 13602, Note_off_c, 1, 62, 0
1, 13608, Note_off_c, 1, 71, 0
1, 13617, Note_off_c, 1, 68, 0
1, 13675, Note_on_c, 1, 61, 127
1, 13698, Note_on_c, 1, 66, 127
1, 13771, Note_off_c, 1, 52, 0
1, 13816, Note_on_c, 1, 54, 127
1, 13890, Note_off_c, 1, 54, 0
1, 13903, Note_on_c, 1, 78, 127
1, 13931, Note_off_c, 1, 61, 0
1, 13962, Note_off_c, 1, 78, 0
1, 14047, Note_on_c, 1, 59, 127
1, 14054, Note_on_c, 1, 51, 127
1, 14157, Note_on_c, 1, 47, 127
1, 14173, Note_off_c, 1, 51, 0
1, 14231, Note_off_c, 1, 47, 0
1, 14277, Note_on_c, 1, 49, 127
1, 14344, Note_off_c, 1, 49, 0
1, 14354, Note_off_c, 1, 66, 0
1, 14408, Note_on_c, 1, 50, 127
1, 14549, Note_off_c, 1, 50, 0
1, 14616, Note_on_c, 1, 76, 127
1, 14686, Note_off_c, 1, 76, 0
1, 14691, Note_off_c, 1, 59, 0
1, 14741, Note_on_c, 1, 67, 127
1, 14746, Note_on_c, 1, 57, 127
1, 14869, Note_on_c, 1, 45, 127
1, 14942, Note_off_c, 1, 67, 0
1, 14945, Note_off_c, 1, 45, 0
1, 15120, Note_on_c, 1, 48, 127
1, 15260, Note_off_c, 1, 48, 0
1, 15387, Note_off_c, 1, 57, 0
1, 15464, Note_on_c, 1, 65, 127
1, 15478, Note_on_c, 1, 56, 127
1, 15572, Note_on_c, 1, 44, 127
1, 15596, Note_off_c, 1, 56, 0
1, 15664, Note_off_c, 1, 65, 0
1, 15670, Note_off_c, 1, 44, 0
1, 16177, Note_on_c, 1, 40, 127
1, 16624, Note_on_c, 1, 80, 127
1, 16659, Note_off_c, 1, 40, 0
1, 16698, Note_off_c, 1, 80, 0
1, 16750, Note_on_c, 1, 83, 127
1, 16760, Note_on_c, 1, 68, 127
1, 16760, Note_on_c, 1, 52, 127
1, 16763, Note_on_c, 1, 64, 127
1, 16809, Note_off_c, 1, 83, 0
1, 16824, Note_off_c, 1, 68, 0
1, 16843, Note_off_c, 1, 52, 0
1, 16848, Note_off_c, 1, 64, 0
1, 16881, Note_on_c, 1, 74, 127
1, 16884, Note_on_c, 1, 69, 127
1, 16884, Note_on_c, 1, 54, 127
1, 16887, Note_on_c, 1, 57, 127
1, 16987, Note_on_c, 1, 73, 127
1, 17016, Note_off_c, 1, 54, 0
1, 17019, Note_off_c, 1, 74, 0
1, 17021, Note_off_c, 1, 57, 0
1, 17055, Note_off_c, 1, 69, 0
1, 17078, Note_off_c, 1, 73, 0
1, 17111, Note_on_c, 1, 71, 127
1, 17116, Note_on_c, 1, 64, 127
1, 17119, Note_on_c, 1, 56, 127
1, 17131, Note_on_c, 1, 50, 127
1, 17138, Note_on_c, 1, 86, 127
1, 17139, Note_on_c, 1, 76, 127
1, 17146, Note_on_c, 1, 83, 127
1, 17179, Note_off_c, 1, 64, 0
1, 17180, Note_off_c, 1, 71, 0
1, 17186, Note_off_c, 1, 86, 0
1, 17189, Note_off_c, 1, 50, 0
1, 17190, Note_off_c, 1, 76, 0
1, 17191, Note_off_c, 1, 83, 0
1, 17209, Note_off_c, 1, 56, 0
1, 17237, Note_on_c, 1, 64, 127
1, 17243, Note_on_c, 1, 57, 127
1, 17245, Note_on_c, 1, 69, 127
1, 17250, Note_on_c, 1, 73, 127
1, 17266, Note_on_c, 1, 85, 127
1, 17269, Note_on_c, 1, 76, 127
1, 17271, Note_on_c, 1, 45, 127
1, 17274, Note_on_c, 1, 81, 127
1, 17295, Note_on_c, 1, 74, 127
1, 17333, Note_off_c, 1, 73, 0
1, 17346, Note_off_c, 1, 45, 0
1, 17366, Note_on_c, 1, 83, 127
1, 17380, Note_off_c, 1, 85, 0
1, 17384, Note_off_c, 1, 57, 0
1, 17390, Note_off_c, 1, 74, 0
1, 17402, Note_off_c, 1, 64, 0
1, 17415, Note_off_c, 1, 81, 0
1, 17424, Note_off_c, 1, 69, 0
1, 17436, Note_off_c, 1, 83, 0
1, 17442, Note_off_c, 1, 76, 0
1, 17483, Note_on_c, 1, 64, 127
1, 17485, Note_on_c, 1, 49, 127
1, 17488, Note_on_c, 1, 81, 127
1, 17489, Note_on_c, 1, 61, 127
1, 17498, Note_on_c, 1, 45, 127
1, 17499, Note_on_c, 1, 76, 127
1, 17499, Note_on_c, 1, 69, 127
1, 17533, Note_off_c, 1, 81, 0
1, 17536, Note_off_c, 1, 64, 0
1, 17544, Note_off_c, 1, 76, 0
1, 17553, Note_off_c, 1, 49, 0
1, 17553, Note_off_c, 1, 45, 0
1, 17553, Note_off_c, 1, 69, 0
1, 17576, Note_off_c, 1, 61, 0
1, 17606, Note_on_c, 1, 83, 127
1, 17609, Note_on_c, 1, 59, 127
1, 17613, Note_on_c, 1, 52, 127
1, 17616, Note_on_c, 1, 64, 127
1, 17618, Note_on_c, 1, 50, 127
1, 17628, Note_on_c, 1, 76, 127
1, 17628, Note_on_c, 1, 74, 127
1, 17683, Note_off_c, 1, 50, 0
1, 17714, Note_on_c, 1, 81, 127
1, 17719, Note_off_c, 1, 52, 0
1, 17720, Note_off_c, 1, 83, 0
1, 17724, Note_on_c, 1, 69, 127
1, 17754, Note_off_c, 1, 74, 0
1, 17762, Note_off_c, 1, 59, 0
1, 17768, Note_off_c, 1, 81, 0
1, 17772, Note_off_c, 1, 76, 0
1, 17775, Note_off_c, 1, 64, 0
1, 17785, Note_off_c, 1, 69, 0
1, 17835, Note_on_c, 1, 80, 127
1, 17839, Note_on_c, 1, 74, 127
1, 17841, Note_on_c, 1, 68, 127
1, 17844, Note_on_c, 1, 64, 127
1, 17844, Note_on_c, 1, 40, 127
1, 17851, Note_on_c, 1, 50, 127
1, 17853, Note_on_c, 1, 76, 127
1, 17858, Note_on_c, 1, 59, 127
1, 17878, Note_off_c, 1, 74, 0
1, 17880, Note_off_c, 1, 80, 0
1, 17892, Note_off_c, 1, 76, 0
1, 17894, Note_off_c, 1, 64, 0
1, 17896, Note_off_c, 1, 50, 0
1, 17897, Note_off_c, 1, 68, 0
1, 17919, Note_off_c, 1, 40, 0
1, 17921, Note_off_c, 1, 59, 0
1, 17967, Note_on_c, 1, 69, 127
1, 17967, Note_on_c, 1, 45, 127
1, 17971, Note_on_c, 1, 81, 127
1, 17974, Note_on_c, 1, 76, 127
1, 17975, Note_on_c, 1, 64, 127
1, 17982, Note_on_c, 1, 61, 127
1, 18348, Note_off_c, 1, 76, 0
1, 18355, Note_off_c, 1, 81, 0
1, 18356, Note_off_c, 1, 64, 0
1, 18362, Note_off_c, 1, 69, 0
1, 18369, Note_off_c, 1, 61, 0
1, 18381, Note_off_c, 1, 45, 0
1, 18574, Note_on_c, 1, 74, 127
1, 18577, Note_on_c, 1, 69, 127
1, 18581, Note_on_c, 1, 62, 127
1, 18586, Note_on_c, 1, 66, 127
1, 18594, Note_on_c, 1, 50, 127
1, 18627, Note_off_c, 1, 74, 0
1, 18630, Note_off_c, 1, 69, 0
1, 18655, Note_off_c, 1, 62, 0
1, 18660, Note_off_c, 1, 66, 0
1, 18660, Note_off_c, 1, 50, 0
1, 18695, Note_on_c, 1, 66, 127
1, 18698, Note_on_c, 1, 81, 127
1, 18700, Note_on_c, 1, 74, 127
1, 18705, Note_on_c, 1, 69, 127
1, 18711, Note_on_c, 1, 50, 127
1, 18712, Note_on_c, 1, 62, 127
1, 18750, Note_off_c, 1, 50, 0
1, 18833, Note_on_c, 1, 61, 127
1, 18891, Note_off_c, 1, 61, 0
1, 18943, Note_off_c, 1, 74, 0
1, 18960, Note_off_c, 1, 81, 0
1, 18967, Note_off_c, 1, 66, 0
1, 18982, Note_off_c, 1, 69, 0
1, 18995, Note_off_c, 1, 62, 0
1, 19033, Note_on_c, 1, 50, 127
1, 19051, Note_on_c, 1, 79, 127
1, 19052, Note_on_c, 1, 83, 127
1, 19054, Note_on_c, 1, 71, 127
1, 19058, Note_on_c, 1, 62, 127
1, 19063, Note_on_c, 1, 67, 127
1, 19100, Note_off_c, 1, 50, 0
1, 19172, Note_on_c, 1, 61, 127
1, 19245, Note_off_c, 1, 61, 0
1, 19271, Note_off_c, 1, 79, 0
1, 19288, Note_off_c, 1, 67, 0
1, 19307, Note_off_c, 1, 71, 0
1, 19316, Note_off_c, 1, 83, 0
1, 19320, Note_off_c, 1, 62, 0
1, 19369, Note_on_c, 1, 50, 127
1, 19401, Note_on_c, 1, 62, 127
1, 19402, Note_on_c, 1, 69, 127
1, 19402, Note_on_c, 1, 66, 127
1, 19410, Note_on_c, 1, 81, 127
1, 19419, Note_on_c, 1, 74, 127
1, 19434, Note_off_c, 1, 50, 0
1, 19505, Note_on_c, 1, 61, 127
1, 19628, Note_off_c, 1, 61, 0
1, 19838, Note_off_c, 1, 69, 0
1, 19844, Note_off_c, 1, 81, 0
1, 19856, Note_off_c, 1, 74, 0
1, 19884, Note_on_c, 1, 71, 127
1, 19892, Note_on_c, 1, 83, 127
1, 19899, Note_off_c, 1, 62, 0
1, 19912, Note_off_c, 1, 66, 0
1, 19942, Note_off_c, 1, 83, 0
1, 19959, Note_off_c, 1, 71, 0
1, 19975, Note_on_c, 1, 52, 127
1, 19984, Note_on_c, 1, 69, 127
1, 19992, Note_on_c, 1, 45, 127
1, 19997, Note_on_c, 1, 55, 127
1, 20005, Note_on_c, 1, 73, 127
1, 20011, Note_on_c, 1, 79, 127
1, 20013, Note_on_c, 1, 85, 127
1, 20013, Note_on_c, 1, 67, 127
1, 20040, Note_off_c, 1, 45, 0
1, 20050, Note_off_c, 1, 69, 0
1, 20052, Note_off_c, 1, 52, 0
1, 20062, Note_off_c, 1, 79, 0
1, 20065, Note_off_c, 1, 55, 0
1, 20065, Note_off_c, 1, 85, 0
1, 20067, Note_off_c, 1, 73, 0
1, 20083, Note_off_c, 1, 67, 0
1, 20096, Note_on_c, 1, 54, 127
1, 20109, Note_on_c, 1, 50, 127
1, 20124, Note_on_c, 1, 62, 127
1, 20128, Note_on_c, 1, 69, 127
1, 20131, Note_on_c, 1, 74, 127
1, 20135, Note_on_c, 1, 81, 127
1, 20139, Note_on_c, 1, 86, 127
1, 20165, Note_off_c, 1, 50, 0
1, 20243, Note_on_c, 1, 73, 127
1, 20250, Note_on_c, 1, 85, 127
1, 20252, Note_off_c, 1, 54, 0
1, 20262, Note_off_c, 1, 86, 0
1, 20275, Note_off_c, 1, 69, 0
1, 20278, Note_off_c, 1, 74, 0
1, 20285, Note_off_c, 1, 62, 0
1, 20311, Note_off_c, 1, 85, 0
1, 20318, Note_off_c, 1, 81, 0
1, 20329, Note_off_c, 1, 73, 0
1, 20354, Note_on_c, 1, 50, 127
1, 20363, Note_on_c, 1, 71, 127
1, 20363, Note_on_c, 1, 55, 127
1, 20368, Note_on_c, 1, 62, 127
1, 20371, Note_on_c, 1, 83, 127
1, 20373, Note_on_c, 1, 74, 127
1, 20373, Note_on_c, 1, 67, 127
1, 20384, Note_on_c, 1, 79, 127
1, 20406, Note_off_c, 1, 50, 0
1, 20417, Note_off_c, 1, 83, 0
1, 20422, Note_off_c, 1, 62, 0
1, 20422, Note_off_c, 1, 74, 0
1, 20423, Note_off_c, 1, 71, 0
1, 20426, Note_off_c, 1, 67, 0
1, 20432, Note_off_c, 1, 79, 0
1, 20437, Note_off_c, 1, 55, 0
1, 20480, Note_on_c, 1, 57, 127
1, 20485, Note_on_c, 1, 62, 127
1, 20486, Note_on_c, 1, 74, 127
1, 20495, Note_on_c, 1, 69, 127
1, 20499, Note_on_c, 1, 45, 127
1, 20499, Note_on_c, 1, 66, 127
1, 20502, Note_on_c, 1, 78, 127
1, 20504, Note_on_c, 1, 81, 127
1, 20553, Note_off_c, 1, 45, 0
1, 20586, Note_off_c, 1, 57, 0
1, 20597, Note_off_c, 1, 74, 0
1, 20601, Note_on_c, 1, 71, 127
1, 20609, Note_on_c, 1, 83, 127
1, 20615, Note_off_c, 1, 81, 0
1, 20628, Note_off_c, 1, 69, 0
1, 20644, Note_off_c, 1, 66, 0
1, 20648, Note_off_c, 1, 62, 0
1, 20658, Note_off_c, 1, 78, 0
1, 20659, Note_off_c, 1, 83, 0
1, 20681, Note_off_c, 1, 71, 0
1, 20721, Note_on_c, 1, 61, 127
1, 20724, Note_on_c, 1, 45, 127
1, 20725, Note_on_c, 1, 67, 127
1, 20727, Note_on_c, 1, 69, 127
1, 20734, Note_on_c, 1, 64, 127
1, 20736, Note_on_c, 1, 79, 127
1, 20737, Note_on_c, 1, 76, 127
1, 20770, Note_off_c, 1, 69, 0
1, 20779, Note_off_c, 1, 61, 0
1, 20779, Note_off_c, 1, 79, 0
1, 20780, Note_off_c, 1, 64, 0
1, 20782, Note_off_c, 1, 76, 0
1, 20786, Note_off_c, 1, 67, 0
1, 20793, Note_off_c, 1, 45, 0
1, 20845, Note_on_c, 1, 50, 127
1, 20854, Note_on_c, 1, 66, 127
1, 20855, Note_on_c, 1, 69, 127
1, 20861, Note_on_c, 1, 57, 127
1, 20872, Note_on_c, 1, 74, 127
1, 20872, Note_on_c, 1, 62, 127
1, 20874, Note_on_c, 1, 78, 127
1, 20973, Note_on_c, 1, 55, 127
1, 20976, Note_on_c, 1, 64, 127
1, 20977, Note_on_c, 1, 76, 127
1, 20986, Note_off_c, 1, 69, 0
1, 20986, Note_on_c, 1, 61, 127
1, 20988, Note_off_c, 1, 78, 0
1, 20997, Note_off_c, 1, 57, 0
1, 21009, Note_off_c, 1, 66, 0
1, 21012, Note_off_c, 1, 62, 0
1, 21013, Note_off_c, 1, 74, 0
1, 21038, Note_off_c, 1, 76, 0
1, 21058, Note_off_c, 1, 55, 0
1, 21068, Note_off_c, 1, 64, 0
1, 21073, Note_off_c, 1, 61, 0
1, 21222, Note_on_c, 1, 54, 127
1, 21325, Note_off_c, 1, 50, 0
1, 21355, Note_off_c, 1, 54, 0
1, 21476, Note_on_c, 1, 49, 127
1, 21527, Note_off_c, 1, 49, 0
1, 21597, Note_on_c, 1, 62, 127
1, 21608, Note_on_c, 1, 74, 127
1, 21610, Note_on_c, 1, 66, 127
1, 21614, Note_on_c, 1, 47, 127
1, 21727, Note_on_c, 1, 45, 127
1, 21756, Note_off_c, 1, 47, 0
1, 21815, Note_off_c, 1, 45, 0
1, 21858, Note_off_c, 1, 74, 0
1, 21862, Note_off_c, 1, 66, 0
1, 21878, Note_off_c, 1, 62, 0
1, 21960, Note_on_c, 1, 78, 127
1, 21969, Note_on_c, 1, 62, 127
1, 21987, Note_on_c, 1, 71, 127
1, 21994, Note_on_c, 1, 45, 127
1, 22093, Note_on_c, 1, 44, 127
1, 22122, Note_off_c, 1, 45, 0
1, 22188, Note_off_c, 1, 44, 0
1, 22199, Note_off_c, 1, 71, 0
1, 22216, Note_off_c, 1, 62, 0
1, 22229, Note_off_c, 1, 78, 0
1, 22319, Note_on_c, 1, 64, 127
1, 22320, Note_on_c, 1, 76, 127
1, 22335, Note_on_c, 1, 44, 127
1, 22342, Note_on_c, 1, 71, 127
1, 22441, Note_on_c, 1, 42, 127
1, 22471, Note_off_c, 1, 44, 0
1, 22564, Note_off_c, 1, 42, 0
1, 22690, Note_on_c, 1, 40, 127
1, 22748, Note_off_c, 1, 64, 0
1, 22791, Note_off_c, 1, 71, 0
1, 22805, Note_off_c, 1, 76, 0
1, 22839, Note_off_c, 1, 40, 0
1, 22904, Note_on_c, 1, 74, 127
1, 22968, Note_off_c, 1, 74, 0
1, 23031, Note_on_c, 1, 73, 127
1, 23042, Note_on_c, 1, 69, 127
1, 23047, Note_on_c, 1, 45, 127
1, 23057, Note_on_c, 1, 64, 127
1, 23150, Note_on_c, 1, 71, 127
1, 23166, Note_off_c, 1, 45, 0
1, 23182, Note_off_c, 1, 73, 0
1, 23183, Note_off_c, 1, 64, 0
1, 23200, Note_off_c, 1, 69, 0
1, 23224, Note_off_c, 1, 71, 0
1, 23261, Note_on_c, 1, 69, 127
1, 23264, Note_on_c, 1, 54, 127
1, 23284, Note_on_c, 1, 61, 127
1, 23337, Note_off_c, 1, 69, 0
1, 23352, Note_off_c, 1, 54, 0
1, 23359, Note_off_c, 1, 61, 0
1, 23395, Note_on_c, 1, 71, 127
1, 23400, Note_on_c, 1, 50, 127
1, 23408, Note_on_c, 1, 69, 127
1, 23415, Note_on_c, 1, 66, 127
1, 23500, Note_on_c, 1, 73, 127
1, 23514, Note_off_c, 1, 50, 0
1, 23533, Note_off_c, 1, 71, 0
1, 23561, Note_off_c, 1, 66, 0
1, 23569, Note_off_c, 1, 69, 0
1, 23582, Note_off_c, 1, 73, 0
1, 23613, Note_on_c, 1, 74, 127
1, 23633, Note_on_c, 1, 68, 127
1, 23638, Note_on_c, 1, 52, 127
1, 23647, Note_on_c, 1, 64, 127
1, 23679, Note_off_c, 1, 74, 0
1, 23693, Note_off_c, 1, 68, 0
1, 23703, Note_off_c, 1, 52, 0
1, 23703, Note_off_c, 1, 64, 0
1, 23747, Note_on_c, 1, 73, 127
1, 23769, Note_on_c, 1, 64, 127
1, 23773, Note_on_c, 1, 69, 127
1, 23773, Note_on_c, 1, 45, 127
1, 23862, Note_on_c, 1, 71, 127
1, 23880, Note_on_c, 1, 62, 127
1, 23888, Note_on_c, 1, 68, 127
1, 23899, Note_off_c, 1, 73, 0
1, 23903, Note_off_c, 1, 64, 0
1, 23903, Note_off_c, 1, 69, 0
1, 23949, Note_off_c, 1, 71, 0
1, 23965, Note_off_c, 1, 62, 0
1, 23965, Note_off_c, 1, 68, 0
1, 24124, Note_on_c, 1, 61, 127
1, 24226, Note_off_c, 1, 45, 0
1, 24253, Note_off_c, 1, 61, 0
1, 24337, Note_on_c, 1, 76, 127
1, 24346, Note_on_c, 1, 43, 127
1, 24349, Note_on_c, 1, 67, 127
1, 24360, Note_on_c, 1, 71, 127
1, 24394, Note_off_c, 1, 76, 0
1, 24407, Note_off_c, 1, 67, 0
1, 24408, Note_off_c, 1, 71, 0
1, 24411, Note_off_c, 1, 43, 0
1, 24467, Note_on_c, 1, 78, 127
1, 24471, Note_on_c, 1, 42, 127
1, 24474, Note_on_c, 1, 81, 127
1, 24476, Note_on_c, 1, 61, 127
1, 24485, Note_on_c, 1, 73, 127
1, 24579, Note_on_c, 1, 79, 127
1, 24580, Note_on_c, 1, 76, 127
1, 24592, Note_off_c, 1, 78, 0
1, 24592, Note_off_c, 1, 42, 0
1, 24605, Note_off_c, 1, 81, 0
1, 24648, Note_off_c, 1, 76, 0
1, 24660, Note_off_c, 1, 79, 0
1, 24698, Note_on_c, 1, 55, 127
1, 24705, Note_off_c, 1, 73, 0
1, 24723, Note_off_c, 1, 61, 0
1, 24776, Note_off_c, 1, 55, 0
1, 24819, Note_on_c, 1, 54, 127
1, 24824, Note_on_c, 1, 73, 127
1, 24827, Note_on_c, 1, 81, 127
1, 24828, Note_on_c, 1, 78, 127
1, 24836, Note_on_c, 1, 66, 127
1, 24935, Note_on_c, 1, 79, 127
1, 24940, Note_on_c, 1, 76, 127
1, 24945, Note_off_c, 1, 54, 0
1, 24955, Note_off_c, 1, 78, 0
1, 24968, Note_off_c, 1, 81, 0
1, 24996, Note_off_c, 1, 76, 0
1, 25008, Note_off_c, 1, 79, 0
1, 25029, Note_off_c, 1, 73, 0
1, 25054, Note_off_c, 1, 66, 0
1, 25068, Note_on_c, 1, 52, 127
1, 25132, Note_off_c, 1, 52, 0
1, 25178, Note_on_c, 1, 81, 127
1, 25182, Note_on_c, 1, 78, 127
1, 25188, Note_on_c, 1, 71, 127
1, 25192, Note_on_c, 1, 66, 127
1, 25195, Note_on_c, 1, 51, 127
1, 25292, Note_on_c, 1, 79, 127
1, 25336, Note_off_c, 1, 51, 0
1, 25397, Note_off_c, 1, 79, 0
1, 25434, Note_on_c, 1, 54, 127
1, 25511, Note_off_c, 1, 54, 0
1, 25596, Note_off_c, 1, 78, 0
1, 25598, Note_off_c, 1, 81, 0
1, 25641, Note_off_c, 1, 66, 0
1, 25652, Note_on_c, 1, 75, 127
1, 25655, Note_on_c, 1, 83, 127
1, 25678, Note_off_c, 1, 71, 0
1, 25709, Note_off_c, 1, 83, 0
1, 25714, Note_off_c, 1, 75, 0
1, 25767, Note_on_c, 1, 78, 127
1, 25773, Note_on_c, 1, 81, 127
1, 25776, Note_on_c, 1, 63, 127
1, 25776, Note_on_c, 1, 47, 127
1, 25787, Note_on_c, 1, 71, 127
1, 25820, Note_off_c, 1, 81, 0
1, 25830, Note_off_c, 1, 78, 0
1, 25838, Note_off_c, 1, 71, 0
1, 25843, Note_off_c, 1, 63, 0
1, 25857, Note_off_c, 1, 47, 0
1, 25891, Note_on_c, 1, 79, 127
1, 25891, Note_on_c, 1, 71, 127
1, 25901, Note_on_c, 1, 64, 127
1, 25905, Note_on_c, 1, 76, 127
1, 25910, Note_on_c, 1, 52, 127
1, 25990, Note_on_c, 1, 78, 127
1, 26000, Note_on_c, 1, 74, 127
1, 26020, Note_off_c, 1, 76, 0
1, 26036, Note_off_c, 1, 79, 0
1, 26048, Note_off_c, 1, 52, 0
1, 26074, Note_off_c, 1, 74, 0
1, 26085, Note_off_c, 1, 78, 0
1, 26124, Note_off_c, 1, 71, 0
1, 26126, Note_on_c, 1, 54, 127
1, 26129, Note_off_c, 1, 64, 0
1, 26207, Note_off_c, 1, 54, 0
1, 26240, Note_on_c, 1, 52, 127
1, 26243, Note_on_c, 1, 71, 127
1, 26245, Note_on_c, 1, 79, 127
1, 26250, Note_on_c, 1, 64, 127
1, 26254, Note_on_c, 1, 76, 127
1, 26352, Note_on_c, 1, 78, 127
1, 26364, Note_on_c, 1, 74, 127
1, 26369, Note_off_c, 1, 52, 0
1, 26380, Note_off_c, 1, 76, 0
1, 26396, Note_off_c, 1, 79, 0
1, 26429, Note_off_c, 1, 74, 0
1, 26448, Note_off_c, 1, 78, 0
1, 26450, Note_off_c, 1, 64, 0
1, 26464, Note_off_c, 1, 71, 0
1, 26475, Note_on_c, 1, 79, 127
1, 26482, Note_on_c, 1, 50, 127
1, 26485, Note_on_c, 1, 76, 127
1, 26532, Note_off_c, 1, 76, 0
1, 26533, Note_off_c, 1, 79, 0
1, 26561, Note_off_c, 1, 50, 0
1, 26603, Note_on_c, 1, 49, 127
1, 26604, Note_on_c, 1, 64, 127
1, 26606, Note_on_c, 1, 79, 127
1, 26611, Note_on_c, 1, 69, 127
1, 26616, Note_on_c, 1, 76, 127
1, 26724, Note_on_c, 1, 78, 127
1, 26753, Note_off_c, 1, 49, 0
1, 26808, Note_off_c, 1, 78, 0
1, 26849, Note_on_c, 1, 52, 127
1, 26924, Note_off_c, 1, 52, 0
1, 27023, Note_off_c, 1, 64, 0
1, 27024, Note_off_c, 1, 79, 0
1, 27037, Note_off_c, 1, 76, 0
1, 27069, Note_on_c, 1, 73, 127
1, 27090, Note_on_c, 1, 81, 127
1, 27109, Note_off_c, 1, 69, 0
1, 27139, Note_off_c, 1, 81, 0
1, 27156, Note_off_c, 1, 73, 0
1, 27193, Note_on_c, 1, 76, 127
1, 27194, Note_on_c, 1, 69, 127
1, 27201, Note_on_c, 1, 79, 127
1, 27205, Note_on_c, 1, 45, 127
1, 27214, Note_on_c, 1, 73, 127
1, 27253, Note_off_c, 1, 69, 0
1, 27253, Note_off_c, 1, 79, 0
1, 27258, Note_off_c, 1, 45, 0
1, 27260, Note_off_c, 1, 76, 0
1, 27283, Note_off_c, 1, 73, 0
1, 27322, Note_on_c, 1, 78, 127
1, 27323, Note_on_c, 1, 69, 127
1, 27333, Note_on_c, 1, 74, 127
1, 27343, Note_on_c, 1, 50, 127
1, 27430, Note_on_c, 1, 80, 127
1, 27464, Note_off_c, 1, 50, 0
1, 27495, Note_off_c, 1, 69, 0
1, 27540, Note_on_c, 1, 81, 127
1, 27545, Note_off_c, 1, 80, 0
1, 27560, Note_off_c, 1, 78, 0
1, 27560, Note_on_c, 1, 62, 127
1, 27599, Note_off_c, 1, 74, 0
1, 27603, Note_off_c, 1, 81, 0
1, 27646, Note_off_c, 1, 62, 0
1, 27675, Note_on_c, 1, 81, 127
1, 27687, Note_on_c, 1, 64, 127
1, 27692, Note_on_c, 1, 61, 127
1, 27696, Note_on_c, 1, 76, 127
1, 27787, Note_on_c, 1, 80, 127
1, 27807, Note_off_c, 1, 61, 0
1, 27819, Note_off_c, 1, 81, 0
1, 27836, Note_off_c, 1, 64, 0
1, 27836, Note_off_c, 1, 76, 0
1, 27889, Note_off_c, 1, 80, 0
1, 27905, Note_on_c, 1, 81, 127
1, 27914, Note_on_c, 1, 69, 127
1, 27923, Note_on_c, 1, 49, 127
1, 27929, Note_on_c, 1, 64, 127
1, 27977, Note_off_c, 1, 81, 0
1, 27982, Note_off_c, 1, 69, 0
1, 27984, Note_off_c, 1, 64, 0
1, 27989, Note_off_c, 1, 49, 0
1, 28038, Note_on_c, 1, 47, 127
1, 28055, Note_on_c, 1, 74, 127
1, 28055, Note_on_c, 1, 71, 127
1, 28057, Note_on_c, 1, 66, 127
1, 28169, Note_on_c, 1, 76, 127
1, 28178, Note_off_c, 1, 47, 0
1, 28195, Note_off_c, 1, 74, 0
1, 28196, Note_off_c, 1, 66, 0
1, 28228, Note_off_c, 1, 71, 0
1, 28281, Note_off_c, 1, 76, 0
1, 28283, Note_on_c, 1, 78, 127
1, 28287, Note_on_c, 1, 74, 127
1, 28290, Note_on_c, 1, 59, 127
1, 28339, Note_off_c, 1, 78, 0
1, 28350, Note_off_c, 1, 74, 0
1, 28363, Note_off_c, 1, 59, 0
1, 28403, Note_on_c, 1, 57, 127
1, 28414, Note_on_c, 1, 78, 127
1, 28419, Note_on_c, 1, 74, 127
1, 28421, Note_on_c, 1, 59, 127
1, 28534, Note_off_c, 1, 57, 0
1, 28535, Note_on_c, 1, 76, 127
1, 28561, Note_off_c, 1, 78, 0
1, 28572, Note_off_c, 1, 59, 0
1, 28601, Note_off_c, 1, 74, 0
1, 28643, Note_on_c, 1, 45, 127
1, 28648, Note_off_c, 1, 76, 0
1, 28714, Note_off_c, 1, 45, 0
1, 28777, Note_on_c, 1, 44, 127
1, 28779, Note_on_c, 1, 71, 127
1, 28797, Note_on_c, 1, 74, 127
1, 28797, Note_on_c, 1, 64, 127
1, 28886, Note_on_c, 1, 73, 127
1, 28918, Note_off_c, 1, 44, 0
1, 28928, Note_off_c, 1, 64, 0
1, 28935, Note_off_c, 1, 71, 0
1, 28970, Note_off_c, 1, 74, 0
1, 29016, Note_off_c, 1, 73, 0
1, 29028, Note_on_c, 1, 56, 127
1, 29105, Note_off_c, 1, 56, 0
1, 29134, Note_on_c, 1, 74, 127
1, 29145, Note_on_c, 1, 54, 127
1, 29160, Note_on_c, 1, 69, 127
1, 29169, Note_on_c, 1, 66, 127
1, 29250, Note_on_c, 1, 73, 127
1, 29274, Note_off_c, 1, 54, 0
1, 29282, Note_off_c, 1, 74, 0
1, 29300, Note_off_c, 1, 66, 0
1, 29330, Note_off_c, 1, 69, 0
1, 29355, Note_off_c, 1, 73, 0
1, 29361, Note_on_c, 1, 74, 127
1, 29381, Note_on_c, 1, 66, 127
1, 29391, Note_on_c, 1, 42, 127
1, 29461, Note_off_c, 1, 66, 0
1, 29468, Note_off_c, 1, 74, 0
1, 29476, Note_off_c, 1, 42, 0
1, 29496, Note_on_c, 1, 68, 127
1, 29517, Note_on_c, 1, 40, 127
1, 29524, Note_on_c, 1, 59, 127
1, 29532, Note_on_c, 1, 76, 127
1, 29612, Note_on_c, 1, 69, 127
1, 29643, Note_off_c, 1, 40, 0
1, 29655, Note_off_c, 1, 68, 0
1, 29655, Note_off_c, 1, 59, 0
1, 29683, Note_off_c, 1, 76, 0
1, 29727, Note_on_c, 1, 71, 127
1, 29743, Note_off_c, 1, 69, 0
1, 29749, Note_on_c, 1, 52, 127
1, 29752, Note_on_c, 1, 64, 127
1, 29798, Note_off_c, 1, 71, 0
1, 29804, Note_off_c, 1, 52, 0
1, 29827, Note_off_c, 1, 64, 0
1, 29859, Note_on_c, 1, 64, 127
1, 29868, Note_on_c, 1, 50, 127
1, 29872, Note_on_c, 1, 68, 127
1, 29882, Note_on_c, 1, 71, 127
1, 29969, Note_on_c, 1, 49, 127
1, 29991, Note_off_c, 1, 50, 0
1, 29996, Note_off_c, 1, 71, 0
1, 30032, Note_off_c, 1, 64, 0
1, 30059, Note_off_c, 1, 49, 0
1, 30087, Note_off_c, 1, 68, 0
1, 30094, Note_on_c, 1, 71, 127
1, 30097, Note_on_c, 1, 47, 127
1, 30112, Note_on_c, 1, 68, 127
1, 30120, Note_on_c, 1, 62, 127
1, 30160, Note_off_c, 1, 47, 0
1, 30166, Note_off_c, 1, 71, 0
1, 30185, Note_off_c, 1, 68, 0
1, 30204, Note_off_c, 1, 62, 0
1, 30227, Note_on_c, 1, 49, 127
1, 30235, Note_on_c, 1, 76, 127
1, 30244, Note_on_c, 1, 69, 127
1, 30252, Note_on_c, 1, 61, 127
1, 30340, Note_on_c, 1, 47, 127
1, 30349, Note_on_c, 1, 74, 127
1, 30370, Note_off_c, 1, 49, 0
1, 30372, Note_off_c, 1, 76, 0
1, 30402, Note_off_c, 1, 61, 0
1, 30420, Note_off_c, 1, 69, 0
1, 30425, Note_off_c, 1, 47, 0
1, 30451, Note_on_c, 1, 45, 127
1, 30461, Note_on_c, 1, 64, 127
1, 30464, Note_on_c, 1, 73, 127
1, 30473, Note_off_c, 1, 74, 0
1, 30526, Note_off_c, 1, 64, 0
1, 30532, Note_off_c, 1, 45, 0
1, 30535, Note_off_c, 1, 73, 0
1, 30594, Note_on_c, 1, 64, 127
1, 30597, Note_on_c, 1, 74, 127
1, 30600, Note_on_c, 1, 52, 127
1, 30612, Note_on_c, 1, 69, 127
1, 30709, Note_on_c, 1, 73, 127
1, 30741, Note_off_c, 1, 64, 0
1, 30742, Note_off_c, 1, 74, 0
1, 30764, Note_off_c, 1, 69, 0
1, 30817, Note_on_c, 1, 62, 127
1, 30828, Note_on_c, 1, 71, 127
1, 30834, Note_on_c, 1, 68, 127
1, 30839, Note_off_c, 1, 73, 0
1, 30882, Note_off_c, 1, 62, 0
1, 30888, Note_off_c, 1, 71, 0
1, 30897, Note_off_c, 1, 68, 0
1, 30955, Note_on_c, 1, 61, 127
1, 30978, Note_on_c, 1, 66, 127
1, 31051, Note_off_c, 1, 52, 0
1, 31096, Note_on_c, 1, 54, 127
1, 31170, Note_off_c, 1, 54, 0
1, 31183, Note_on_c, 1, 78, 127
1, 31211, Note_off_c, 1, 61, 0
1, 31242, Note_off_c, 1, 78, 0
1, 31327, Note_on_c, 1, 59, 127
1, 31334, Note_on_c, 1, 51, 127
1, 31437, Note_on_c, 1, 47, 127
1, 31453, Note_off_c, 1, 51, 0
1, 31511, Note_off_c, 1, 47, 0
1, 31557, Note_on_c, 1, 49, 127
1, 31624, Note_off_c, 1, 49, 0
1, 31634, Note_off_c, 1, 66, 0
1, 31688, Note_on_c, 1, 50, 127
1, 31829, Note_off_c, 1, 50, 0
1, 31896, Note_on_c, 1, 76, 127
1, 31966, Note_off_c, 1, 76, 0
1, 31971, Note_off_c, 1, 59, 0
1, 32021, Note_on_c, 1, 67, 127
1, 32026, Note_on_c, 1, 57, 127
1, 32149, Note_on_c, 1, 45, 127
1, 32222, Note_off_c, 1, 67, 0
1, 32225, Note_off_c, 1, 45, 0
1, 32400, Note_on_c, 1, 48, 127
1, 32540, Note_off_c, 1, 48, 0
1, 32667, Note_off_c, 1, 57, 0
1, 32744, Note_on_c, 1, 65, 127
1, 32758, Note_on_c, 1, 56, 127
1, 32852, Note_on_c, 1, 44, 127
1, 32876, Note_off_c, 1, 56, 0
1, 32944, Note_off_c, 1, 65, 0
1, 32950, Note_off_c, 1, 44, 0
1, 33457, Note_on_c, 1, 40, 127
1, 33904, Note_on_c, 1, 80, 127
1, 33939, Note_off_c, 1, 40, 0
1, 33978, Note_off_c, 1, 80, 0
1, 34030, Note_on_c, 1, 83, 127
1, 34040, Note_on_c, 1, 68, 127
1, 34040, Note_on_c, 1, 52, 127
1, 34043, Note_on_c, 1, 64, 127
1, 34089, Note_off_c, 1, 83, 0
1, 34104, Note_off_c, 1, 68, 0
1, 34123, Note_off_c, 1, 52, 0
1, 34128, Note_off_c, 1, 64, 0
1, 34161, Note_on_c, 1, 74, 127
1, 34164, Note_on_c, 1, 69, 127
1, 34164, Note_on_c, 1, 54, 127
1, 34167, Note_on_c, 1, 57, 127
1, 34267, Note_on_c, 1, 73, 127
1, 34296, Note_off_c, 1, 54, 0
1, 34299, Note_off_c, 1, 74, 0
1, 34301, Note_off_c, 1, 57, 0
1, 34335, Note_off_c, 1, 69, 0
1, 34358, Note_off_c, 1, 73, 0
1, 34391, Note_on_c, 1, 71, 127
1, 34396, Note_on_c, 1, 64, 127
1, 34399, Note_on_c, 1, 56, 127
1, 34411, Note_on_c, 1, 50, 127
1, 34418, Note_on_c, 1, 86, 127
1, 34419, Note_on_c, 1, 76, 127
1, 34426, Note_on_c, 1, 83, 127
1, 34459, Note_off_c, 1, 64, 0
1, 34460, Note_off_c, 1, 71, 0
1, 34466, Note_off_c, 1, 86, 0
1, 34469, Note_off_c, 1, 50, 0
1, 34470, Note_off_c, 1, 76, 0
1, 34471, Note_off_c, 1, 83, 0
1, 34489, Note_off_c, 1, 56, 0
1, 34517, Note_on_c, 1, 64, 127
1, 34523, Note_on_c, 1, 57, 127
1, 34525, Note_on_c, 1, 69, 127
1, 34530, Note_on_c, 1, 73, 127
1, 34546, Note_on_c, 1, 85, 127
1, 34549, Note_on_c, 1, 76, 127
1, 34551, Note_on_c, 1, 45, 127
1, 34554, Note_on_c, 1, 81, 127
1, 34575, Note_on_c, 1, 74, 127
1, 34613, Note_off_c, 1, 73, 0
1, 34626, Note_off_c, 1, 45, 0
1, 34646, Note_on_c, 1, 83, 127
1, 34660, Note_off_c, 1, 85, 0
1, 34664, Note_off_c, 1, 57, 0
1, 34670, Note_off_c, 1, 74, 0
1, 34682, Note_off_c, 1, 64, 0
1, 34695, Note_off_c, 1, 81, 0
1, 34704, Note_off_c, 1, 69, 0
1, 34716, Note_off_c, 1, 83, 0
1, 34722, Note_off_c, 1, 76, 0
1, 34763, Note_on_c, 1, 64, 127
1, 34765, Note_on_c, 1, 49, 127
1, 34768, Note_on_c, 1, 81, 127
1, 34769, Note_on_c, 1, 61, 127
1, 34778, Note_on_c, 1, 45, 127
1, 34779, Note_on_c, 1, 76, 127
1, 34779, Note_on_c, 1, 69, 127
1, 34813, Note_off_c, 1, 81, 0
1, 34816, Note_off_c, 1, 64, 0
1, 34824, Note_off_c, 1, 76, 0
1, 34833, Note_off_c, 1, 49, 0
1, 34833, Note_off_c, 1, 45, 0
1, 34833, Note_off_c, 1, 69, 0
1, 34856, Note_off_c, 1, 61, 0
1, 34886, Note_on_c, 1, 83, 127
1, 34889, Note_on_c, 1, 59, 127
1, 34893, Note_on_c, 1, 52, 127
1, 34896, Note_on_c, 1, 64, 127
1, 34898, Note_on_c, 1, 50, 127
1, 34908, Note_on_c, 1, 76, 127
1, 34908, Note_on_c, 1, 74, 127
1, 34963, Note_off_c, 1, 50, 0
1, 34994, Note_on_c, 1, 81, 127
1, 34999, Note_off_c, 1, 52, 0
1, 35000, Note_off_c, 1, 83, 0
1, 35004, Note_on_c, 1, 69, 127
1, 35034, Note_off_c, 1, 74, 0
1, 35042, Note_off_c, 1, 59, 0
1, 35048, Note_off_c, 1, 81, 0
1, 35052, Note_off_c, 1, 76, 0
1, 35055, Note_off_c, 1, 64, 0
1, 35065, Note_off_c, 1, 69, 0
1, 35115, Note_on_c, 1, 80, 127
1, 35119, Note_on_c, 1, 74, 127
1, 35121, Note_on_c, 1, 68, 127
1, 35124, Note_on_c, 1, 64, 127
1, 35124, Note_on_c, 1, 40, 127
1, 35131, Note_on_c, 1, 50, 127
1, 35133, Note_on_c, 1, 76, 127
1, 35138, Note_on_c, 1, 59, 127
1, 35158, Note_off_c, 1, 74, 0
1, 35160, Note_off_c, 1, 80, 0
1, 35172, Note_off_c, 1, 76, 0
1, 35174, Note_off_c, 1, 64, 0
1, 35176, Note_off_c, 1, 50, 0
1, 35177, Note_off_c, 1, 68, 0
1, 35199, Note_off_c, 1, 40, 0
1, 35201, Note_off_c, 1, 59, 0
1, 35247, Note_on_c, 1, 69, 127
1, 35247, Note_on_c, 1, 45, 127
1, 35251, Note_on_c, 1, 81, 127
1, 35254, Note_on_c, 1, 76, 127
1, 35255, Note_on_c, 1, 64, 127
1, 35262, Note_on_c, 1, 61, 127
1, 35628, Note_off_c, 1, 76, 0
1, 35635, Note_off_c, 1, 81, 0
1, 35636, Note_off_c, 1, 64, 0
1, 35642, Note_off_c, 1, 69, 0
1, 35649, Note_off_c, 1, 61, 0
1, 35661, Note_off_c, 1, 45, 0
1, 35796, Note_on_c, 1, 64, 127
1, 35801, Note_on_c, 1, 69, 127
1, 35823, Note_on_c, 1, 73, 127
1, 35823, Note_on_c, 1, 45, 127
1, 35867, Note_off_c, 1, 64, 0
1, 35879, Note_off_c, 1, 73, 0
1, 35886, Note_off_c, 1, 45, 0
1, 35894, Note_off_c, 1, 69, 0
1, 35934, Note_on_c, 1, 69, 127
1, 35936, Note_on_c, 1, 76, 127
1, 35940, Note_on_c, 1, 57, 127
1, 35955, Note_on_c, 1, 73, 127
1, 35975, Note_on_c, 1, 45, 127
1, 36012, Note_off_c, 1, 45, 0
1, 36068, Note_on_c, 1, 56, 127
1, 36077, Note_on_c, 1, 66, 127
1, 36087, Note_off_c, 1, 57, 0
1, 36145, Note_off_c, 1, 66, 0
1, 36154, Note_off_c, 1, 56, 0
1, 36197, Note_off_c, 1, 69, 0
1, 36227, Note_off_c, 1, 73, 0
1, 36231, Note_off_c, 1, 76, 0
1, 36298, Note_on_c, 1, 45, 127
1, 36302, Note_on_c, 1, 66, 127
1, 36304, Note_on_c, 1, 69, 127
1, 36306, Note_on_c, 1, 78, 127
1, 36310, Note_on_c, 1, 57, 127
1, 36313, Note_on_c, 1, 74, 127
1, 36335, Note_off_c, 1, 45, 0
1, 36378, Note_off_c, 1, 66, 0
1, 36416, Note_on_c, 1, 56, 127
1, 36432, Note_on_c, 1, 62, 127
1, 36439, Note_off_c, 1, 57, 0
1, 36497, Note_off_c, 1, 56, 0
1, 36497, Note_off_c, 1, 62, 0
1, 36523, Note_off_c, 1, 69, 0
1, 36580, Note_off_c, 1, 78, 0
1, 36612, Note_off_c, 1, 74, 0
1, 36620, Note_on_c, 1, 45, 127
1, 36654, Note_on_c, 1, 57, 127
1, 36659, Note_on_c, 1, 69, 127
1, 36669, Note_on_c, 1, 76, 127
1, 36672, Note_on_c, 1, 73, 127
1, 36692, Note_off_c, 1, 45, 0
1, 36760, Note_on_c, 1, 56, 127
1, 36784, Note_off_c, 1, 57, 0
1, 36891, Note_off_c, 1, 56, 0
1, 37007, Note_on_c, 1, 49, 127
1, 37105, Note_off_c, 1, 73, 0
1, 37128, Note_off_c, 1, 49, 0
1, 37148, Note_on_c, 1, 78, 127
1, 37153, Note_on_c, 1, 74, 127
1, 37219, Note_off_c, 1, 76, 0
1, 37226, Note_off_c, 1, 74, 0
1, 37229, Note_off_c, 1, 78, 0
1, 37239, Note_off_c, 1, 69, 0
1, 37244, Note_on_c, 1, 61, 127
1, 37260, Note_on_c, 1, 79, 127
1, 37323, Note_off_c, 1, 61, 0
1, 37334, Note_off_c, 1, 79, 0
1, 37358, Note_on_c, 1, 50, 127
1, 37389, Note_on_c, 1, 74, 127
1, 37394, Note_on_c, 1, 57, 127
1, 37404, Note_on_c, 1, 78, 127
1, 37491, Note_off_c, 1, 50, 0
1, 37502, Note_on_c, 1, 76, 127
1, 37519, Note_off_c, 1, 74, 0
1, 37519, Note_off_c, 1, 57, 0
1, 37540, Note_off_c, 1, 78, 0
1, 37598, Note_off_c, 1, 76, 0
1, 37608, Note_on_c, 1, 47, 127
1, 37620, Note_on_c, 1, 59, 127
1, 37623, Note_on_c, 1, 66, 127
1, 37625, Note_on_c, 1, 74, 127
1, 37694, Note_off_c, 1, 74, 0
1, 37696, Note_off_c, 1, 59, 0
1, 37699, Note_off_c, 1, 66, 0
1, 37714, Note_off_c, 1, 47, 0
1, 37727, Note_on_c, 1, 52, 127
1, 37752, Note_on_c, 1, 55, 127
1, 37759, Note_on_c, 1, 73, 127
1, 37759, Note_on_c, 1, 64, 127
1, 37875, Note_on_c, 1, 74, 127
1, 37880, Note_off_c, 1, 52, 0
1, 37883, Note_off_c, 1, 55, 0
1, 37896, Note_off_c, 1, 64, 0
1, 37903, Note_off_c, 1, 73, 0
1, 37929, Note_off_c, 1, 74, 0
1, 37984, Note_on_c, 1, 59, 127
1, 37992, Note_on_c, 1, 55, 127
1, 37994, Note_on_c, 1, 64, 127
1, 37999, Note_on_c, 1, 71, 127
1, 38063, Note_off_c, 1, 71, 0
1, 38065, Note_off_c, 1, 59, 0
1, 38067, Note_off_c, 1, 64, 0
1, 38080, Note_off_c, 1, 55, 0
1, 38107, Note_on_c, 1, 54, 127
1, 38113, Note_on_c, 1, 61, 127
1, 38131, Note_on_c, 1, 66, 127
1, 38133, Note_on_c, 1, 70, 127
1, 38242, Note_on_c, 1, 71, 127
1, 38246, Note_off_c, 1, 61, 0
1, 38279, Note_off_c, 1, 54, 0
1, 38282, Note_off_c, 1, 70, 0
1, 38342, Note_off_c, 1, 71, 0
1, 38357, Note_on_c, 1, 58, 127
1, 38360, Note_on_c, 1, 52, 127
1, 38368, Note_on_c, 1, 73, 127
1, 38431, Note_off_c, 1, 58, 0
1, 38444, Note_off_c, 1, 73, 0
1, 38461, Note_off_c, 1, 52, 0
1, 38487, Note_on_c, 1, 50, 127
1, 38494, Note_on_c, 1, 59, 127
1, 38617, Note_off_c, 1, 50, 0
1, 38617, Note_off_c, 1, 59, 0
1, 38628, Note_on_c, 1, 78, 127
1, 38629, Note_off_c, 1, 66, 0
1, 38683, Note_off_c, 1, 78, 0
1, 38723, Note_on_c, 1, 73, 127
1, 38723, Note_on_c, 1, 58, 127
1, 38728, Note_on_c, 1, 76, 127
1, 38733, Note_on_c, 1, 49, 127
1, 38748, Note_on_c, 1, 66, 127
1, 38769, Note_off_c, 1, 58, 0
1, 38790, Note_off_c, 1, 73, 0
1, 38795, Note_off_c, 1, 76, 0
1, 38800, Note_off_c, 1, 49, 0
1, 38809, Note_off_c, 1, 66, 0
1, 38845, Note_on_c, 1, 59, 127
1, 38860, Note_on_c, 1, 78, 127
1, 38864, Note_on_c, 1, 74, 127
1, 38868, Note_on_c, 1, 66, 127
1, 38872, Note_on_c, 1, 47, 127
1, 38883, Note_on_c, 1, 50, 127
1, 38969, Note_on_c, 1, 46, 127
1, 38979, Note_off_c, 1, 50, 0
1, 38984, Note_off_c, 1, 47, 0
1, 39054, Note_off_c, 1, 46, 0
1, 39094, Note_off_c, 1, 59, 0
1, 39142, Note_off_c, 1, 74, 0
1, 39147, Note_off_c, 1, 78, 0
1, 39227, Note_on_c, 1, 71, 127
1, 39228, Note_on_c, 1, 76, 127
1, 39231, Note_on_c, 1, 79, 127
1, 39244, Note_off_c, 1, 66, 0
1, 39459, Note_off_c, 1, 71, 0
1, 39490, Note_off_c, 1, 76, 0
1, 39501, Note_off_c, 1, 79, 0
1, 39569, Note_on_c, 1, 47, 127
1, 39580, Note_on_c, 1, 66, 127
1, 39580, Note_on_c, 1, 78, 127
1, 39589, Note_on_c, 1, 74, 127
1, 39595, Note_on_c, 1, 71, 127
1, 39599, Note_on_c, 1, 50, 127
1, 39675, Note_on_c, 1, 49, 127
1, 39708, Note_off_c, 1, 47, 0
1, 39710, Note_off_c, 1, 50, 0
1, 39782, Note_off_c, 1, 49, 0
1, 39996, Note_off_c, 1, 71, 0
1, 40059, Note_on_c, 1, 76, 127
1, 40157, Note_off_c, 1, 78, 0
1, 40160, Note_off_c, 1, 76, 0
1, 40165, Note_off_c, 1, 74, 0
1, 40190, Note_on_c, 1, 59, 127
1, 40263, Note_off_c, 1, 66, 0
1, 40279, Note_off_c, 1, 59, 0
1, 40289, Note_on_c, 1, 52, 127
1, 40304, Note_on_c, 1, 73, 127
1, 40304, Note_on_c, 1, 64, 127
1, 40322, Note_on_c, 1, 55, 127
1, 40393, Note_on_c, 1, 54, 127
1, 40415, Note_on_c, 1, 74, 127
1, 40420, Note_off_c, 1, 52, 0
1, 40442, Note_off_c, 1, 73, 0
1, 40451, Note_off_c, 1, 55, 0
1, 40465, Note_off_c, 1, 64, 0
1, 40481, Note_off_c, 1, 74, 0
1, 40529, Note_off_c, 1, 54, 0
1, 40536, Note_on_c, 1, 59, 127
1, 40538, Note_on_c, 1, 71, 127
1, 40596, Note_off_c, 1, 71, 0
1, 40625, Note_off_c, 1, 59, 0
1, 40658, Note_on_c, 1, 54, 127
1, 40665, Note_on_c, 1, 66, 127
1, 40668, Note_on_c, 1, 61, 127
1, 40768, Note_on_c, 1, 52, 127
1, 40773, Note_on_c, 1, 71, 127
1, 40782, Note_off_c, 1, 61, 0
1, 40798, Note_off_c, 1, 54, 0
1, 40807, Note_off_c, 1, 66, 0
1, 40849, Note_off_c, 1, 71, 0
1, 40874, Note_off_c, 1, 52, 0
1, 40885, Note_on_c, 1, 70, 127
1, 40890, Note_on_c, 1, 54, 127
1, 40899, Note_on_c, 1, 61, 127
1, 40918, Note_on_c, 1, 66, 127
1, 40952, Note_off_c, 1, 54, 0
1, 40960, Note_off_c, 1, 61, 0
1, 40961, Note_off_c, 1, 70, 0
1, 40986, Note_off_c, 1, 66, 0
1, 41023, Note_on_c, 1, 71, 127
1, 41028, Note_on_c, 1, 47, 127
1, 41043, Note_on_c, 1, 66, 127
1, 41048, Note_on_c, 1, 62, 127
1, 41134, Note_on_c, 1, 50, 127
1, 41164, Note_off_c, 1, 47, 0
1, 41235, Note_on_c, 1, 54, 127
1, 41250, Note_off_c, 1, 50, 0
1, 41336, Note_off_c, 1, 54, 0
1, 41374, Note_on_c, 1, 59, 127
1, 41442, Note_off_c, 1, 71, 0
1, 41460, Note_off_c, 1, 62, 0
1, 41478, Note_off_c, 1, 66, 0
1, 41513, Note_off_c, 1, 59, 0
1, 41520, Note_on_c, 1, 74, 127
1, 41596, Note_off_c, 1, 74, 0
1, 41604, Note_on_c, 1, 57, 127
1, 41617, Note_on_c, 1, 66, 127
1, 41629, Note_on_c, 1, 73, 127
1, 41687, Note_off_c, 1, 57, 0
1, 41690, Note_off_c, 1, 66, 0
1, 41695, Note_off_c, 1, 73, 0
1, 41727, Note_on_c, 1, 56, 127
1, 41747, Note_on_c, 1, 74, 127
1, 41753, Note_on_c, 1, 71, 127
1, 41766, Note_on_c, 1, 64, 127
1, 41861, Note_on_c, 1, 76, 127
1, 41861, Note_on_c, 1, 73, 127
1, 41866, Note_off_c, 1, 56, 0
1, 41895, Note_off_c, 1, 74, 0
1, 41929, Note_off_c, 1, 76, 0
1, 41937, Note_off_c, 1, 73, 0
1, 41960, Note_off_c, 1, 64, 0
1, 41967, Note_on_c, 1, 59, 127
1, 41987, Note_off_c, 1, 71, 0
1, 42028, Note_off_c, 1, 59, 0
1, 42081, Note_on_c, 1, 59, 127
1, 42099, Note_on_c, 1, 74, 127
1, 42112, Note_on_c, 1, 64, 127
1, 42116, Note_on_c, 1, 68, 127
1, 42202, Note_on_c, 1, 73, 127
1, 42204, Note_on_c, 1, 76, 127
1, 42222, Note_off_c, 1, 59, 0
1, 42236, Note_off_c, 1, 74, 0
1, 42273, Note_off_c, 1, 76, 0
1, 42288, Note_off_c, 1, 64, 0
1, 42291, Note_off_c, 1, 73, 0
1, 42306, Note_off_c, 1, 68, 0
1, 42314, Note_on_c, 1, 56, 127
1, 42321, Note_on_c, 1, 74, 127
1, 42384, Note_off_c, 1, 74, 0
1, 42424, Note_off_c, 1, 56, 0
1, 42445, Note_on_c, 1, 52, 127
1, 42454, Note_on_c, 1, 74, 127
1, 42468, Note_on_c, 1, 59, 127
1, 42482, Note_on_c, 1, 68, 127
1, 42555, Note_on_c, 1, 73, 127
1, 42601, Note_off_c, 1, 52, 0
1, 42660, Note_on_c, 1, 56, 127
1, 42680, Note_off_c, 1, 73, 0
1, 42720, Note_off_c, 1, 68, 0
1, 42733, Note_off_c, 1, 59, 0
1, 42737, Note_off_c, 1, 56, 0
1, 42798, Note_on_c, 1, 64, 127
1, 42822, Note_on_c, 1, 71, 127
1, 42856, Note_off_c, 1, 74, 0
1, 42916, Note_on_c, 1, 76, 127
1, 42959, Note_off_c, 1, 71, 0
1, 42962, Note_off_c, 1, 64, 0
1, 42982, Note_off_c, 1, 76, 0
1, 43017, Note_on_c, 1, 71, 127
1, 43024, Note_on_c, 1, 74, 127
1, 43030, Note_on_c, 1, 52, 127
1, 43046, Note_on_c, 1, 64, 127
1, 43047, Note_on_c, 1, 80, 127
1, 43051, Note_on_c, 1, 76, 127
1, 43056, Note_on_c, 1, 50, 127
1, 43103, Note_off_c, 1, 74, 0
1, 43109, Note_off_c, 1, 64, 0
1, 43113, Note_off_c, 1, 71, 0
1, 43115, Note_off_c, 1, 80, 0
1, 43116, Note_off_c, 1, 50, 0
1, 43118, Note_off_c, 1, 52, 0
1, 43118, Note_off_c, 1, 76, 0
1, 43149, Note_on_c, 1, 49, 127
1, 43153, Note_on_c, 1, 81, 127
1, 43158, Note_on_c, 1, 76, 127
1, 43162, Note_on_c, 1, 64, 127
1, 43164, Note_on_c, 1, 71, 127
1, 43172, Note_on_c, 1, 69, 127
1, 43174, Note_on_c, 1, 45, 127
1, 43238, Note_off_c, 1, 45, 0
1, 43260, Note_off_c, 1, 81, 0
1, 43268, Note_on_c, 1, 74, 127
1, 43272, Note_off_c, 1, 69, 0
1, 43278, Note_off_c, 1, 49, 0
1, 43289, Note_off_c, 1, 76, 0
1, 43310, Note_off_c, 1, 64, 0
1, 43313, Note_off_c, 1, 71, 0
1, 43356, Note_off_c, 1, 74, 0
1, 43381, Note_on_c, 1, 54, 127
1, 43388, Note_on_c, 1, 45, 127
1, 43388, Note_on_c, 1, 73, 127
1, 43389, Note_on_c, 1, 78, 127
1, 43389, Note_on_c, 1, 69, 127
1, 43391, Note_on_c, 1, 81, 127
1, 43399, Note_on_c, 1, 66, 127
1, 43450, Note_off_c, 1, 45, 0
1, 43452, Note_off_c, 1, 78, 0
1, 43454, Note_off_c, 1, 81, 0
1, 43459, Note_off_c, 1, 66, 0
1, 43460, Note_off_c, 1, 73, 0
1, 43464, Note_off_c, 1, 69, 0
1, 43475, Note_off_c, 1, 54, 0
1, 43503, Note_on_c, 1, 50, 127
1, 43507, Note_on_c, 1, 81, 127
1, 43514, Note_on_c, 1, 78, 127
1, 43515, Note_on_c, 1, 71, 127
1, 43518, Note_on_c, 1, 69, 127
1, 43518, Note_on_c, 1, 66, 127
1, 43527, Note_on_c, 1, 62, 127
1, 43606, Note_off_c, 1, 78, 0
1, 43618, Note_off_c, 1, 62, 0
1, 43618, Note_on_c, 1, 73, 127
1, 43636, Note_off_c, 1, 50, 0
1, 43641, Note_off_c, 1, 81, 0
1, 43648, Note_off_c, 1, 66, 0
1, 43657, Note_off_c, 1, 71, 0
1, 43657, Note_off_c, 1, 69, 0
1, 43732, Note_on_c, 1, 52, 127
1, 43737, Note_on_c, 1, 74, 127
1, 43741, Note_on_c, 1, 76, 127
1, 43742, Note_on_c, 1, 64, 127
1, 43744, Note_on_c, 1, 68, 127
1, 43749, Note_off_c, 1, 73, 0
1, 43756, Note_on_c, 1, 80, 127
1, 43798, Note_off_c, 1, 74, 0
1, 43800, Note_off_c, 1, 64, 0
1, 43805, Note_off_c, 1, 76, 0
1, 43808, Note_off_c, 1, 52, 0
1, 43810, Note_off_c, 1, 68, 0
1, 43823, Note_off_c, 1, 80, 0
1, 43868, Note_on_c, 1, 73, 127
1, 43869, Note_on_c, 1, 69, 127
1, 43874, Note_on_c, 1, 64, 127
1, 43876, Note_on_c, 1, 45, 127
1, 43878, Note_on_c, 1, 76, 127
1, 43885, Note_on_c, 1, 81, 127
1, 43980, Note_on_c, 1, 71, 127
1, 43981, Note_off_c, 1, 76, 0
1, 43982, Note_off_c, 1, 69, 0
1, 43982, Note_on_c, 1, 62, 127
1, 43987, Note_on_c, 1, 68, 127
1, 43989, Note_off_c, 1, 81, 0
1, 44007, Note_off_c, 1, 45, 0
1, 44009, Note_off_c, 1, 73, 0
1, 44009, Note_off_c, 1, 64, 0
1, 44062, Note_off_c, 1, 68, 0
1, 44076, Note_off_c, 1, 62, 0
1, 44080, Note_off_c, 1, 71, 0
1, 44086, Note_on_c, 1, 73, 127
1, 44100, Note_on_c, 1, 69, 127
1, 44100, Note_on_c, 1, 64, 127
1, 44103, Note_on_c, 1, 57, 127
1, 44115, Note_on_c, 1, 45, 127
1, 44117, Note_on_c, 1, 76, 127
1, 44143, Note_off_c, 1, 64, 0
1, 44144, Note_off_c, 1, 73, 0
1, 44161, Note_off_c, 1, 45, 0
1, 44165, Note_off_c, 1, 69, 0
1, 44172, Note_off_c, 1, 57, 0
1, 44184, Note_off_c, 1, 76, 0
1, 44216, Note_on_c, 1, 64, 127
1, 44216, Note_on_c, 1, 57, 127
1, 44224, Note_on_c, 1, 61, 127
1, 44227, Note_on_c, 1, 69, 127
1, 44242, Note_on_c, 1, 45, 127
1, 44246, Note_on_c, 1, 76, 127
1, 44323, Note_on_c, 1, 73, 127
1, 44325, Note_off_c, 1, 45, 0
1, 44328, Note_off_c, 1, 57, 0
1, 44336, Note_off_c, 1, 64, 0
1, 44339, Note_off_c, 1, 76, 0
1, 44363, Note_off_c, 1, 61, 0
1, 44419, Note_off_c, 1, 73, 0
1, 44451, Note_on_c, 1, 52, 127
1, 44537, Note_off_c, 1, 52, 0
1, 44549, Note_off_c, 1, 69, 0
1, 44577, Note_on_c, 1, 76, 127
1, 44585, Note_on_c, 1, 79, 127
1, 44586, Note_on_c, 1, 49, 127
1, 44590, Note_on_c, 1, 69, 127
1, 44702, Note_on_c, 1, 78, 127
1, 44707, Note_off_c, 1, 49, 0
1, 44728, Note_off_c, 1, 79, 0
1, 44799, Note_off_c, 1, 78, 0
1, 44823, Note_off_c, 1, 69, 0
1, 44823, Note_on_c, 1, 52, 127
1, 44853, Note_off_c, 1, 76, 0
1, 44898, Note_off_c, 1, 52, 0
1, 44939, Note_on_c, 1, 52, 127
1, 44947, Note_on_c, 1, 79, 127
1, 44959, Note_on_c, 1, 69, 127
1, 44962, Note_on_c, 1, 73, 127
1, 45067, Note_on_c, 1, 78, 127
1, 45090, Note_off_c, 1, 52, 0
1, 45098, Note_off_c, 1, 79, 0
1, 45135, Note_off_c, 1, 69, 0
1, 45161, Note_off_c, 1, 78, 0
1, 45169, Note_on_c, 1, 49, 127
1, 45186, Note_off_c, 1, 73, 0
1, 45269, Note_off_c, 1, 49, 0
1, 45317, Note_on_c, 1, 45, 127
1, 45323, Note_on_c, 1, 73, 127
1, 45325, Note_on_c, 1, 79, 127
1, 45325, Note_on_c, 1, 64, 127
1, 45433, Note_on_c, 1, 78, 127
1, 45471, Note_off_c, 1, 45, 0
1, 45539, Note_off_c, 1, 78, 0
1, 45552, Note_on_c, 1, 49, 127
1, 45585, Note_off_c, 1, 64, 0
1, 45590, Note_off_c, 1, 73, 0
1, 45620, Note_off_c, 1, 49, 0
1, 45676, Note_on_c, 1, 69, 127
1, 45686, Note_on_c, 1, 76, 127
1, 45738, Note_off_c, 1, 79, 0
1, 45807, Note_off_c, 1, 69, 0
1, 45832, Note_on_c, 1, 81, 127
1, 45843, Note_off_c, 1, 76, 0
1, 45899, Note_off_c, 1, 81, 0
1, 46035, Note_on_c, 1, 42, 127
1, 46039, Note_on_c, 1, 81, 127
1, 46040, Note_on_c, 1, 69, 127
1, 46044, Note_on_c, 1, 76, 127
1, 46080, Note_on_c, 1, 45, 127
1, 46150, Note_off_c, 1, 45, 0
1, 46163, Note_on_c, 1, 79, 127
1, 46170, Note_off_c, 1, 42, 0
1, 46196, Note_off_c, 1, 76, 0
1, 46203, Note_off_c, 1, 81, 0
1, 46203, Note_off_c, 1, 69, 0
1, 46256, Note_off_c, 1, 79, 0
1, 46256, Note_on_c, 1, 47, 127
1, 46282, Note_on_c, 1, 74, 127
1, 46294, Note_on_c, 1, 78, 127
1, 46297, Note_on_c, 1, 71, 127
1, 46317, Note_on_c, 1, 50, 127
1, 46360, Note_off_c, 1, 71, 0
1, 46378, Note_off_c, 1, 50, 0
1, 46385, Note_off_c, 1, 78, 0
1, 46387, Note_off_c, 1, 74, 0
1, 46392, Note_off_c, 1, 47, 0
1, 46407, Note_on_c, 1, 43, 127
1, 46415, Note_on_c, 1, 74, 127
1, 46415, Note_on_c, 1, 71, 127
1, 46426, Note_on_c, 1, 76, 127
1, 46436, Note_on_c, 1, 50, 127
1, 46438, Note_on_c, 1, 79, 127
1, 46509, Note_off_c, 1, 50, 0
1, 46536, Note_on_c, 1, 78, 127
1, 46539, Note_off_c, 1, 71, 0
1, 46559, Note_off_c, 1, 79, 0
1, 46570, Note_off_c, 1, 74, 0
1, 46574, Note_off_c, 1, 43, 0
1, 46575, Note_off_c, 1, 76, 0
1, 46655, Note_on_c, 1, 69, 127
1, 46656, Note_on_c, 1, 73, 127
1, 46660, Note_on_c, 1, 45, 127
1, 46664, Note_off_c, 1, 78, 0
1, 46734, Note_off_c, 1, 73, 0
1, 46735, Note_off_c, 1, 69, 0
1, 46746, Note_off_c, 1, 45, 0
1, 46784, Note_on_c, 1, 78, 127
1, 46786, Note_on_c, 1, 50, 127
1, 46788, Note_on_c, 1, 74, 127
1, 46796, Note_on_c, 1, 69, 127
1, 46796, Note_on_c, 1, 38, 127
1, 46857, Note_off_c, 1, 50, 0
1, 46883, Note_on_c, 1, 67, 127
1, 46897, Note_on_c, 1, 76, 127
1, 46907, Note_on_c, 1, 73, 127
1, 46908, Note_off_c, 1, 69, 0
1, 46910, Note_off_c, 1, 38, 0
1, 46921, Note_off_c, 1, 74, 0
1, 46933, Note_off_c, 1, 78, 0
1, 46975, Note_off_c, 1, 73, 0
1, 46978, Note_off_c, 1, 67, 0
1, 47031, Note_off_c, 1, 76, 0
1, 47137, Note_on_c, 1, 69, 127
1, 47138, Note_on_c, 1, 66, 127
1, 47138, Note_on_c, 1, 54, 127
1, 47139, Note_on_c, 1, 74, 127
1, 47152, Note_on_c, 1, 50, 127
1, 47236, Note_off_c, 1, 50, 0
1, 47236, Note_on_c, 1, 62, 127
1, 47244, Note_on_c, 1, 78, 127
1, 47259, Note_off_c, 1, 54, 0
1, 47283, Note_off_c, 1, 69, 0
1, 47306, Note_off_c, 1, 66, 0
1, 47309, Note_off_c, 1, 62, 0
1, 47357, Note_off_c, 1, 78, 0
1, 47360, Note_on_c, 1, 76, 127
1, 47365, Note_on_c, 1, 73, 127
1, 47367, Note_on_c, 1, 57, 127
1, 47404, Note_off_c, 1, 74, 0
1, 47427, Note_off_c, 1, 73, 0
1, 47446, Note_off_c, 1, 76, 0
1, 47455, Note_off_c, 1, 57, 0
1, 47498, Note_on_c, 1, 78, 127
1, 47503, Note_on_c, 1, 74, 127
1, 47503, Note_on_c, 1, 69, 127
1, 47504, Note_on_c, 1, 62, 127
1, 47600, Note_on_c, 1, 80, 127
1, 47604, Note_on_c, 1, 68, 127
1, 47630, Note_off_c, 1, 69, 0
1, 47642, Note_off_c, 1, 62, 0
1, 47645, Note_off_c, 1, 78, 0
1, 47685, Note_off_c, 1, 68, 0
1, 47715, Note_off_c, 1, 80, 0
1, 47718, Note_on_c, 1, 66, 127
1, 47720, Note_on_c, 1, 81, 127
1, 47749, Note_on_c, 1, 61, 127
1, 47799, Note_off_c, 1, 66, 0
1, 47804, Note_off_c, 1, 81, 0
1, 47831, Note_off_c, 1, 61, 0
1, 47850, Note_on_c, 1, 71, 127
1, 47872, Note_on_c, 1, 59, 127
1, 47932, Note_off_c, 1, 74, 0
1, 47973, Note_on_c, 1, 73, 127
1, 47980, Note_off_c, 1, 71, 0
1, 48035, Note_off_c, 1, 73, 0
1, 48076, Note_on_c, 1, 83, 127
1, 48158, Note_off_c, 1, 83, 0
1, 48225, Note_on_c, 1, 65, 127
1, 48251, Note_off_c, 1, 59, 0
1, 48324, Note_on_c, 1, 56, 127
1, 48402, Note_off_c, 1, 56, 0
1, 48437, Note_on_c, 1, 53, 127
1, 48506, Note_off_c, 1, 53, 0
1, 48569, Note_on_c, 1, 49, 127
1, 48673, Note_off_c, 1, 65, 0
1, 48683, Note_off_c, 1, 49, 0
1, 48788, Note_on_c, 1, 49, 127
1, 48816, Note_on_c, 1, 65, 127
1, 48818, Note_on_c, 1, 83, 127
1, 48829, Note_on_c, 1, 73, 127
1, 48849, Note_off_c, 1, 49, 0
1, 48878, Note_off_c, 1, 83, 0
1, 48879, Note_off_c, 1, 73, 0
1, 48880, Note_off_c, 1, 65, 0
1, 48933, Note_on_c, 1, 54, 127
1, 48943, Note_on_c, 1, 81, 127
1, 48943, Note_on_c, 1, 73, 127
1, 48948, Note_on_c, 1, 66, 127
1, 49039, Note_on_c, 1, 68, 127
1, 49049, Note_on_c, 1, 80, 127
1, 49061, Note_off_c, 1, 54, 0
1, 49073, Note_off_c, 1, 66, 0
1, 49092, Note_off_c, 1, 81, 0
1, 49131, Note_off_c, 1, 80, 0
1, 49144, Note_off_c, 1, 68, 0
1, 49160, Note_on_c, 1, 69, 127
1, 49167, Note_on_c, 1, 78, 127
1, 49170, Note_on_c, 1, 42, 127
1, 49225, Note_off_c, 1, 69, 0
1, 49261, Note_off_c, 1, 42, 0
1, 49265, Note_off_c, 1, 78, 0
1, 49296, Note_on_c, 1, 57, 127
1, 49301, Note_on_c, 1, 76, 127
1, 49356, Note_off_c, 1, 73, 0
1, 49400, Note_off_c, 1, 57, 0
1, 49400, Note_on_c, 1, 74, 127
1, 49414, Note_on_c, 1, 71, 127
1, 49444, Note_off_c, 1, 76, 0
1, 49478, Note_off_c, 1, 71, 0
1, 49492, Note_off_c, 1, 74, 0
1, 49518, Note_on_c, 1, 69, 127
1, 49518, Note_on_c, 1, 61, 127
1, 49523, Note_on_c, 1, 73, 127
1, 49526, Note_on_c, 1, 52, 127
1, 49556, Note_on_c, 1, 72, 127
1, 49584, Note_off_c, 1, 52, 0
1, 49586, Note_off_c, 1, 72, 0
1, 49589, Note_off_c, 1, 69, 0
1, 49598, Note_off_c, 1, 61, 0
1, 49598, Note_off_c, 1, 73, 0
1, 49643, Note_on_c, 1, 71, 127
1, 49655, Note_on_c, 1, 50, 127
1, 49660, Note_on_c, 1, 66, 127
1, 49760, Note_on_c, 1, 47, 127
1, 49773, Note_off_c, 1, 50, 0
1, 49854, Note_off_c, 1, 47, 0
1, 50007, Note_on_c, 1, 54, 127
1, 50050, Note_off_c, 1, 66, 0
1, 50111, Note_off_c, 1, 54, 0
1, 50113, Note_off_c, 1, 71, 0
1, 50152, Note_on_c, 1, 78, 127
1, 50223, Note_off_c, 1, 78, 0
1, 50238, Note_on_c, 1, 69, 127
1, 50243, Note_on_c, 1, 73, 127
1, 50268, Note_on_c, 1, 81, 127
1, 50321, Note_off_c, 1, 69, 0
1, 50323, Note_off_c, 1, 73, 0
1, 50329, Note_off_c, 1, 81, 0
1, 50359, Note_on_c, 1, 59, 127
1, 50381, Note_on_c, 1, 71, 127
1, 50392, Note_on_c, 1, 80, 127
1, 50392, Note_on_c, 1, 74, 127
1, 50480, Note_on_c, 1, 69, 127
1, 50487, Note_on_c, 1, 78, 127
1, 50508, Note_off_c, 1, 59, 0
1, 50517, Note_off_c, 1, 71, 0
1, 50530, Note_off_c, 1, 80, 0
1, 50555, Note_off_c, 1, 74, 0
1, 50581, Note_off_c, 1, 69, 0
1, 50591, Note_off_c, 1, 78, 0
1, 50596, Note_on_c, 1, 68, 127
1, 50598, Note_on_c, 1, 61, 127
1, 50613, Note_on_c, 1, 77, 127
1, 50628, Note_on_c, 1, 73, 127
1, 50682, Note_off_c, 1, 68, 0
1, 50687, Note_off_c, 1, 77, 0
1, 50699, Note_off_c, 1, 61, 0
1, 50712, Note_off_c, 1, 73, 0
1, 50724, Note_on_c, 1, 62, 127
1, 50734, Note_on_c, 1, 66, 127
1, 50743, Note_on_c, 1, 78, 127
1, 50750, Note_on_c, 1, 71, 127
1, 50826, Note_off_c, 1, 62, 0
1, 50849, Note_on_c, 1, 76, 127
1, 50855, Note_off_c, 1, 66, 0
1, 50878, Note_off_c, 1, 78, 0
1, 50891, Note_off_c, 1, 71, 0
1, 50944, Note_off_c, 1, 76, 0
1, 50960, Note_on_c, 1, 74, 127
1, 50965, Note_on_c, 1, 56, 127
1, 50974, Note_on_c, 1, 65, 127
1, 50980, Note_on_c, 1, 71, 127
1, 51029, Note_off_c, 1, 74, 0
1, 51050, Note_off_c, 1, 65, 0
1, 51055, Note_off_c, 1, 71, 0
1, 51058, Note_off_c, 1, 56, 0
1, 51091, Note_on_c, 1, 57, 127
1, 51096, Note_on_c, 1, 73, 127
1, 51098, Note_on_c, 1, 66, 127
1, 51111, Note_on_c, 1, 69, 127
1, 51204, Note_on_c, 1, 78, 127
1, 51235, Note_off_c, 1, 69, 0
1, 51240, Note_off_c, 1, 57, 0
1, 51240, Note_off_c, 1, 73, 0
1, 51285, Note_off_c, 1, 78, 0
1, 51316, Note_on_c, 1, 54, 127
1, 51320, Note_on_c, 1, 76, 127
1, 51389, Note_off_c, 1, 76, 0
1, 51429, Note_off_c, 1, 54, 0
1, 51449, Note_on_c, 1, 59, 127
1, 51452, Note_on_c, 1, 74, 127
1, 51467, Note_on_c, 1, 71, 127
1, 51536, Note_off_c, 1, 66, 0
1, 51571, Note_off_c, 1, 71, 0
1, 51578, Note_off_c, 1, 59, 0
1, 51586, Note_off_c, 1, 74, 0
1, 51671, Note_on_c, 1, 68, 127
1, 51686, Note_on_c, 1, 53, 127
1, 51742, Note_off_c, 1, 68, 0
1, 51774, Note_off_c, 1, 53, 0
1, 51798, Note_on_c, 1, 61, 127
1, 51803, Note_on_c, 1, 69, 127
1, 51812, Note_on_c, 1, 66, 127
1, 51818, Note_on_c, 1, 54, 127
1, 51913, Note_on_c, 1, 68, 127
1, 51926, Note_off_c, 1, 61, 0
1, 51941, Note_off_c, 1, 54, 0
1, 51942, Note_off_c, 1, 69, 0
1, 51966, Note_off_c, 1, 66, 0
1, 52035, Note_on_c, 1, 62, 127
1, 52035, Note_on_c, 1, 47, 127
1, 52038, Note_off_c, 1, 68, 0
1, 52120, Note_off_c, 1, 62, 0
1, 52130, Note_off_c, 1, 47, 0
1, 52156, Note_on_c, 1, 49, 127
1, 52160, Note_on_c, 1, 66, 127
1, 52163, Note_on_c, 1, 56, 127
1, 52166, Note_on_c, 1, 71, 127
1, 52265, Note_off_c, 1, 49, 0
1, 52275, Note_on_c, 1, 69, 127
1, 52285, Note_off_c, 1, 56, 0
1, 52295, Note_off_c, 1, 66, 0
1, 52322, Note_off_c, 1, 71, 0
1, 52380, Note_on_c, 1, 65, 127
1, 52386, Note_off_c, 1, 69, 0
1, 52391, Note_on_c, 1, 61, 127
1, 52399, Note_on_c, 1, 37, 127
1, 52406, Note_on_c, 1, 68, 127
1, 52451, Note_off_c, 1, 65, 0
1, 52471, Note_off_c, 1, 37, 0
1, 52487, Note_off_c, 1, 68, 0
1, 52489, Note_off_c, 1, 61, 0
1, 52525, Note_on_c, 1, 57, 127
1, 52532, Note_on_c, 1, 61, 127
1, 52534, Note_on_c, 1, 66, 127
1, 52547, Note_on_c, 1, 42, 127
1, 52655, Note_on_c, 1, 45, 127
1, 52661, Note_off_c, 1, 42, 0
1, 52762, Note_on_c, 1, 49, 127
1, 52777, Note_off_c, 1, 45, 0
1, 52832, Note_off_c, 1, 49, 0
1, 52890, Note_on_c, 1, 54, 127
1, 52948, Note_off_c, 1, 57, 0
1, 52971, Note_off_c, 1, 61, 0
1, 52984, Note_off_c, 1, 66, 0
1, 52992, Note_on_c, 1, 52, 127
1, 53003, Note_off_c, 1, 54, 0
1, 53088, Note_off_c, 1, 52, 0
1, 53112, Note_on_c, 1, 54, 127
1, 53126, Note_on_c, 1, 62, 127
1, 53127, Note_on_c, 1, 74, 127
1, 53136, Note_on_c, 1, 57, 127
1, 53139, Note_on_c, 1, 69, 127
1, 53143, Note_on_c, 1, 66, 127
1, 53143, Note_on_c, 1, 50, 127
1, 53161, Note_off_c, 1, 54, 0
1, 53186, Note_off_c, 1, 50, 0
1, 53190, Note_off_c, 1, 74, 0
1, 53196, Note_off_c, 1, 66, 0
1, 53199, Note_off_c, 1, 57, 0
1, 53201, Note_off_c, 1, 69, 0
1, 53203, Note_off_c, 1, 62, 0
1, 53257, Note_on_c, 1, 66, 127
1, 53257, Note_on_c, 1, 62, 127
1, 53257, Note_on_c, 1, 50, 127
1, 53258, Note_on_c, 1, 81, 127
1, 53262, Note_on_c, 1, 69, 127
1, 53264, Note_on_c, 1, 74, 127
1, 53360, Note_on_c, 1, 49, 127
1, 53385, Note_off_c, 1, 50, 0
1, 53443, Note_off_c, 1, 49, 0
1, 53494, Note_off_c, 1, 62, 0
1, 53494, Note_off_c, 1, 74, 0
1, 53508, Note_off_c, 1, 81, 0
1, 53514, Note_off_c, 1, 69, 0
1, 53535, Note_off_c, 1, 66, 0
1, 53550, Note_on_c, 1, 50, 127
1, 53585, Note_off_c, 1, 50, 0
1, 53603, Note_on_c, 1, 50, 127
1, 53617, Note_on_c, 1, 83, 127
1, 53620, Note_on_c, 1, 79, 127
1, 53620, Note_on_c, 1, 62, 127
1, 53622, Note_on_c, 1, 71, 127
1, 53623, Note_on_c, 1, 67, 127
1, 53707, Note_on_c, 1, 49, 127
1, 53751, Note_off_c, 1, 50, 0
1, 53804, Note_off_c, 1, 49, 0
1, 53812, Note_off_c, 1, 62, 0
1, 53834, Note_off_c, 1, 83, 0
1, 53838, Note_off_c, 1, 79, 0
1, 53855, Note_off_c, 1, 67, 0
1, 53882, Note_off_c, 1, 71, 0
1, 53938, Note_on_c, 1, 50, 127
1, 53969, Note_on_c, 1, 72, 127
1, 53971, Note_on_c, 1, 78, 127
1, 53971, Note_on_c, 1, 66, 127
1, 53981, Note_on_c, 1, 69, 127
1, 53983, Note_on_c, 1, 84, 127
1, 53983, Note_on_c, 1, 57, 127
1, 54074, Note_on_c, 1, 54, 127
1, 54115, Note_off_c, 1, 50, 0
1, 54193, Note_off_c, 1, 54, 0
1, 54309, Note_on_c, 1, 62, 127
1, 54397, Note_off_c, 1, 69, 0
1, 54408, Note_off_c, 1, 66, 0
1, 54413, Note_off_c, 1, 78, 0
1, 54421, Note_off_c, 1, 72, 0
1, 54421, Note_off_c, 1, 62, 0
1, 54448, Note_on_c, 1, 67, 127
1, 54453, Note_on_c, 1, 71, 127
1, 54463, Note_off_c, 1, 84, 0
1, 54463, Note_off_c, 1, 57, 0
1, 54495, Note_on_c, 1, 83, 127
1, 54529, Note_off_c, 1, 67, 0
1, 54549, Note_off_c, 1, 71, 0
1, 54558, Note_off_c, 1, 83, 0
1, 54587, Note_on_c, 1, 74, 127
1, 54607, Note_on_c, 1, 81, 127
1, 54640, Note_off_c, 1, 74, 0
1, 54665, Note_off_c, 1, 81, 0
1, 54668, Note_on_c, 1, 55, 127
1, 54693, Note_on_c, 1, 67, 127
1, 54695, Note_on_c, 1, 62, 127
1, 54709, Note_on_c, 1, 79, 127
1, 54711, Note_on_c, 1, 71, 127
1, 54713, Note_on_c, 1, 50, 127
1, 54722, Note_on_c, 1, 83, 127
1, 54726, Note_on_c, 1, 74, 127
1, 54782, Note_off_c, 1, 50, 0
1, 54802, Note_off_c, 1, 55, 0
1, 54827, Note_off_c, 1, 67, 0
1, 54829, Note_on_c, 1, 81, 127
1, 54846, Note_off_c, 1, 83, 0
1, 54853, Note_off_c, 1, 71, 0
1, 54855, Note_off_c, 1, 62, 0
1, 54914, Note_off_c, 1, 81, 0
1, 54917, Note_on_c, 1, 52, 127
1, 54945, Note_on_c, 1, 64, 127
1, 55006, Note_off_c, 1, 52, 0
1, 55013, Note_off_c, 1, 64, 0
1, 55047, Note_on_c, 1, 48, 127
1, 55062, Note_off_c, 1, 74, 0
1, 55065, Note_off_c, 1, 79, 0
1, 55066, Note_on_c, 1, 69, 127
1, 55167, Note_off_c, 1, 48, 0
1, 55198, Note_off_c, 1, 69, 0
1, 55286, Note_on_c, 1, 78, 127
1, 55288, Note_on_c, 1, 50, 127
1, 55294, Note_on_c, 1, 62, 127
1, 55302, Note_on_c, 1, 69, 127
1, 55304, Note_on_c, 1, 74, 127
1, 55353, Note_off_c, 1, 74, 0
1, 55361, Note_off_c, 1, 69, 0
1, 55362, Note_off_c, 1, 78, 0
1, 55362, Note_off_c, 1, 62, 0
1, 55369, Note_off_c, 1, 50, 0
1, 55418, Note_on_c, 1, 43, 127
1, 55423, Note_on_c, 1, 79, 127
1, 55428, Note_on_c, 1, 71, 127
1, 55428, Note_on_c, 1, 62, 127
1, 55438, Note_on_c, 1, 74, 127
1, 55444, Note_on_c, 1, 50, 127
1, 55526, Note_off_c, 1, 71, 0
1, 55529, Note_off_c, 1, 50, 0
1, 55541, Note_on_c, 1, 83, 127
1, 55615, Note_off_c, 1, 83, 0
1, 55642, Note_on_c, 1, 72, 127
1, 55649, Note_on_c, 1, 81, 127
1, 55708, Note_off_c, 1, 72, 0
1, 55721, Note_off_c, 1, 81, 0
1, 55770, Note_off_c, 1, 79, 0
1, 55834, Note_off_c, 1, 62, 0
1, 55859, Note_off_c, 1, 43, 0
1, 55899, Note_on_c, 1, 47, 127
1, 55920, Note_on_c, 1, 67, 127
1, 55965, Note_off_c, 1, 74, 0
1, 56000, Note_off_c, 1, 67, 0
1, 56019, Note_off_c, 1, 47, 0
1, 56029, Note_on_c, 1, 66, 127
1, 56109, Note_off_c, 1, 66, 0
1, 56129, Note_on_c, 1, 55, 127
1, 56150, Note_on_c, 1, 76, 127
1, 56260, Note_off_c, 1, 55, 0
1, 56303, Note_off_c, 1, 76, 0
1, 56385, Note_on_c, 1, 74, 127
1, 56389, Note_on_c, 1, 52, 127
1, 56400, Note_on_c, 1, 79, 127
1, 56400, Note_on_c, 1, 71, 127
1, 56453, Note_off_c, 1, 74, 0
1, 56463, Note_off_c, 1, 79, 0
1, 56475, Note_off_c, 1, 71, 0
1, 56478, Note_off_c, 1, 52, 0
1, 56513, Note_on_c, 1, 73, 127
1, 56520, Note_on_c, 1, 69, 127
1, 56523, Note_on_c, 1, 78, 127
1, 56523, Note_on_c, 1, 57, 127
1, 56629, Note_on_c, 1, 79, 127
1, 56667, Note_off_c, 1, 69, 0
1, 56667, Note_off_c, 1, 78, 0
1, 56713, Note_off_c, 1, 79, 0
1, 56745, Note_on_c, 1, 76, 127
1, 56750, Note_on_c, 1, 67, 127
1, 56829, Note_off_c, 1, 76, 0
1, 56833, Note_off_c, 1, 67, 0
1, 56882, Note_on_c, 1, 66, 127
1, 56925, Note_off_c, 1, 73, 0
1, 56947, Note_off_c, 1, 57, 0
1, 56983, Note_on_c, 1, 81, 127
1, 57030, Note_off_c, 1, 66, 0
1, 57054, Note_off_c, 1, 81, 0
1, 57088, Note_on_c, 1, 40, 127
1, 57091, Note_on_c, 1, 76, 127
1, 57104, Note_on_c, 1, 72, 127
1, 57106, Note_on_c, 1, 79, 127
1, 57152, Note_off_c, 1, 76, 0
1, 57166, Note_off_c, 1, 40, 0
1, 57175, Note_off_c, 1, 79, 0
1, 57192, Note_off_c, 1, 72, 0
1, 57222, Note_on_c, 1, 42, 127
1, 57233, Note_on_c, 1, 75, 127
1, 57235, Note_on_c, 1, 69, 127
1, 57240, Note_on_c, 1, 81, 127
1, 57328, Note_off_c, 1, 42, 0
1, 57329, Note_on_c, 1, 45, 127
1, 57349, Note_off_c, 1, 69, 0
1, 57389, Note_off_c, 1, 75, 0
1, 57437, Note_off_c, 1, 45, 0
1, 57440, Note_on_c, 1, 48, 127
1, 57467, Note_on_c, 1, 64, 127
1, 57470, Note_on_c, 1, 76, 127
1, 57536, Note_off_c, 1, 48, 0
1, 57543, Note_off_c, 1, 76, 0
1, 57566, Note_off_c, 1, 64, 0
1, 57599, Note_on_c, 1, 66, 127
1, 57599, Note_on_c, 1, 54, 127
1, 57661, Note_off_c, 1, 81, 0
1, 57695, Note_on_c, 1, 79, 127
1, 57709, Note_off_c, 1, 54, 0
1, 57752, Note_off_c, 1, 66, 0
1, 57781, Note_off_c, 1, 79, 0
1, 57811, Note_on_c, 1, 78, 127
1, 57831, Note_on_c, 1, 69, 127
1, 57831, Note_on_c, 1, 51, 127
1, 57899, Note_off_c, 1, 78, 0
1, 57909, Note_off_c, 1, 69, 0
1, 57914, Note_off_c, 1, 51, 0
1, 57940, Note_on_c, 1, 76, 127
1, 57951, Note_on_c, 1, 67, 127
1, 57962, Note_on_c, 1, 71, 127
1, 57970, Note_on_c, 1, 55, 127
1, 58041, Note_on_c, 1, 78, 127
1, 58073, Note_off_c, 1, 76, 0
1, 58114, Note_off_c, 1, 67, 0
1, 58126, Note_off_c, 1, 78, 0
1, 58164, Note_on_c, 1, 75, 127
1, 58184, Note_on_c, 1, 66, 127
1, 58244, Note_off_c, 1, 75, 0
1, 58260, Note_off_c, 1, 66, 0
1, 58314, Note_on_c, 1, 64, 127
1, 58402, Note_on_c, 1, 79, 127
1, 58426, Note_off_c, 1, 64, 0
1, 58439, Note_off_c, 1, 71, 0
1, 58455, Note_off_c, 1, 55, 0
1, 58492, Note_off_c, 1, 79, 0
1, 58522, Note_on_c, 1, 78, 127
1, 58528, Note_on_c, 1, 59, 127
1, 58542, Note_on_c, 1, 71, 127
1, 58542, Note_on_c, 1, 39, 127
1, 58606, Note_off_c, 1, 71, 0
1, 58608, Note_off_c, 1, 78, 0
1, 58618, Note_off_c, 1, 39, 0
1, 58634, Note_off_c, 1, 59, 0
1, 58649, Note_on_c, 1, 79, 127
1, 58664, Note_on_c, 1, 71, 127
1, 58671, Note_on_c, 1, 40, 127
1, 58765, Note_on_c, 1, 76, 127
1, 58769, Note_on_c, 1, 43, 127
1, 58778, Note_off_c, 1, 40, 0
1, 58800, Note_off_c, 1, 71, 0
1, 58840, Note_off_c, 1, 76, 0
1, 58840, Note_off_c, 1, 43, 0
1, 58874, Note_on_c, 1, 47, 127
1, 58888, Note_on_c, 1, 74, 127
1, 58898, Note_on_c, 1, 66, 127
1, 58960, Note_off_c, 1, 47, 0
1, 58964, Note_off_c, 1, 74, 0
1, 59002, Note_off_c, 1, 66, 0
1, 59011, Note_on_c, 1, 52, 127
1, 59014, Note_on_c, 1, 73, 127
1, 59023, Note_on_c, 1, 64, 127
1, 59108, Note_off_c, 1, 79, 0
1, 59129, Note_on_c, 1, 78, 127
1, 59134, Note_off_c, 1, 52, 0
1, 59151, Note_off_c, 1, 73, 0
1, 59181, Note_off_c, 1, 64, 0
1, 59212, Note_off_c, 1, 78, 0
1, 59244, Note_on_c, 1, 76, 127
1, 59269, Note_on_c, 1, 67, 127
1, 59269, Note_on_c, 1, 49, 127
1, 59331, Note_off_c, 1, 76, 0
1, 59346, Note_off_c, 1, 49, 0
1, 59356, Note_off_c, 1, 67, 0
1, 59375, Note_on_c, 1, 74, 127
1, 59384, Note_on_c, 1, 69, 127
1, 59390, Note_on_c, 1, 54, 127
1, 59393, Note_on_c, 1, 66, 127
1, 59481, Note_on_c, 1, 76, 127
1, 59504, Note_off_c, 1, 66, 0
1, 59529, Note_off_c, 1, 74, 0
1, 59568, Note_off_c, 1, 76, 0
1, 59611, Note_on_c, 1, 73, 127
1, 59616, Note_on_c, 1, 64, 127
1, 59683, Note_off_c, 1, 73, 0
1, 59689, Note_off_c, 1, 64, 0
1, 59749, Note_on_c, 1, 62, 127
1, 59848, Note_on_c, 1, 78, 127
1, 59877, Note_off_c, 1, 54, 0
1, 59878, Note_off_c, 1, 62, 0
1, 59888, Note_off_c, 1, 69, 0
1, 59936, Note_off_c, 1, 78, 0
1, 59967, Note_on_c, 1, 76, 127
1, 59982, Note_on_c, 1, 37, 127
1, 59983, Note_on_c, 1, 57, 127
1, 59986, Note_on_c, 1, 69, 127
1, 60035, Note_off_c, 1, 76, 0
1, 60058, Note_off_c, 1, 69, 0
1, 60065, Note_off_c, 1, 37, 0
1, 60067, Note_off_c, 1, 57, 0
1, 60100, Note_on_c, 1, 78, 127
1, 60107, Note_on_c, 1, 62, 127
1, 60113, Note_on_c, 1, 38, 127
1, 60115, Note_on_c, 1, 69, 127
1, 60193, Note_on_c, 1, 79, 127
1, 60222, Note_off_c, 1, 62, 0
1, 60224, Note_off_c, 1, 78, 0
1, 60237, Note_off_c, 1, 38, 0
1, 60240, Note_off_c, 1, 69, 0
1, 60289, Note_off_c, 1, 79, 0
1, 60325, Note_on_c, 1, 81, 127
1, 60340, Note_on_c, 1, 62, 127
1, 60340, Note_on_c, 1, 42, 127
1, 60358, Note_on_c, 1, 69, 127
1, 60378, Note_off_c, 1, 81, 0
1, 60415, Note_off_c, 1, 62, 0
1, 60424, Note_off_c, 1, 69, 0
1, 60444, Note_off_c, 1, 42, 0
1, 60449, Note_on_c, 1, 71, 127
1, 60468, Note_on_c, 1, 43, 127
1, 60471, Note_on_c, 1, 62, 127
1, 60476, Note_on_c, 1, 67, 127
1, 60559, Note_on_c, 1, 73, 127
1, 60587, Note_off_c, 1, 71, 0
1, 60595, Note_off_c, 1, 43, 0
1, 60636, Note_off_c, 1, 62, 0
1, 60656, Note_off_c, 1, 67, 0
1, 60656, Note_off_c, 1, 73, 0
1, 60679, Note_on_c, 1, 74, 127
1, 60693, Note_on_c, 1, 47, 127
1, 60749, Note_off_c, 1, 74, 0
1, 60776, Note_off_c, 1, 47, 0
1, 60802, Note_on_c, 1, 71, 127
1, 60815, Note_on_c, 1, 76, 127
1, 60817, Note_on_c, 1, 44, 127
1, 60829, Note_on_c, 1, 64, 127
1, 60926, Note_on_c, 1, 78, 127
1, 60944, Note_off_c, 1, 44, 0
1, 60950, Note_off_c, 1, 76, 0
1, 60954, Note_off_c, 1, 64, 0
1, 60974, Note_off_c, 1, 71, 0
1, 61014, Note_off_c, 1, 78, 0
1, 61037, Note_on_c, 1, 40, 127
1, 61040, Note_on_c, 1, 74, 127
1, 61110, Note_off_c, 1, 74, 0
1, 61120, Note_off_c, 1, 40, 0
1, 61173, Note_on_c, 1, 45, 127
1, 61175, Note_on_c, 1, 73, 127
1, 61175, Note_on_c, 1, 69, 127
1, 61176, Note_on_c, 1, 64, 127
1, 61281, Note_on_c, 1, 74, 127
1, 61315, Note_off_c, 1, 73, 0
1, 61320, Note_off_c, 1, 64, 0
1, 61324, Note_off_c, 1, 45, 0
1, 61329, Note_off_c, 1, 69, 0
1, 61382, Note_off_c, 1, 74, 0
1, 61397, Note_on_c, 1, 49, 127
1, 61415, Note_on_c, 1, 76, 127
1, 61478, Note_off_c, 1, 76, 0
1, 61494, Note_off_c, 1, 49, 0
1, 61522, Note_on_c, 1, 46, 127
1, 61526, Note_on_c, 1, 73, 127
1, 61542, Note_on_c, 1, 66, 127
1, 61546, Note_on_c, 1, 78, 127
1, 61653, Note_on_c, 1, 79, 127
1, 61658, Note_off_c, 1, 46, 0
1, 61675, Note_off_c, 1, 78, 0
1, 61680, Note_off_c, 1, 66, 0
1, 61688, Note_off_c, 1, 73, 0
1, 61729, Note_off_c, 1, 79, 0
1, 61766, Note_on_c, 1, 42, 127
1, 61777, Note_on_c, 1, 76, 127
1, 61834, Note_off_c, 1, 76, 0
1, 61837, Note_off_c, 1, 42, 0
1, 61892, Note_on_c, 1, 71, 127
1, 61905, Note_on_c, 1, 74, 127
1, 61907, Note_on_c, 1, 47, 127
1, 61910, Note_on_c, 1, 66, 127
1, 62013, Note_on_c, 1, 76, 127
1, 62032, Note_off_c, 1, 71, 0
1, 62046, Note_off_c, 1, 66, 0
1, 62052, Note_off_c, 1, 74, 0
1, 62062, Note_off_c, 1, 47, 0
1, 62095, Note_off_c, 1, 76, 0
1, 62130, Note_on_c, 1, 78, 127
1, 62142, Note_on_c, 1, 45, 127
1, 62208, Note_off_c, 1, 78, 0
1, 62236, Note_off_c, 1, 45, 0
1, 62244, Note_on_c, 1, 74, 127
1, 62255, Note_on_c, 1, 79, 127
1, 62266, Note_on_c, 1, 47, 127
1, 62269, Note_on_c, 1, 62, 127
1, 62369, Note_on_c, 1, 81, 127
1, 62400, Note_off_c, 1, 74, 0
1, 62405, Note_off_c, 1, 79, 0
1, 62407, Note_off_c, 1, 47, 0
1, 62407, Note_off_c, 1, 62, 0
1, 62443, Note_off_c, 1, 81, 0
1, 62494, Note_on_c, 1, 78, 127
1, 62499, Note_on_c, 1, 43, 127
1, 62566, Note_off_c, 1, 78, 0
1, 62584, Note_off_c, 1, 43, 0
1, 62602, Note_on_c, 1, 76, 127
1, 62625, Note_on_c, 1, 49, 127
1, 62630, Note_on_c, 1, 69, 127
1, 62713, Note_on_c, 1, 78, 127
1, 62769, Note_off_c, 1, 76, 0
1, 62772, Note_off_c, 1, 69, 0
1, 62793, Note_off_c, 1, 49, 0
1, 62798, Note_off_c, 1, 78, 0
1, 62837, Note_on_c, 1, 79, 127
1, 62870, Note_on_c, 1, 47, 127
1, 62910, Note_off_c, 1, 79, 0
1, 62958, Note_on_c, 1, 76, 127
1, 62965, Note_off_c, 1, 47, 0
1, 62976, Note_on_c, 1, 81, 127
1, 62984, Note_on_c, 1, 69, 127
1, 62996, Note_on_c, 1, 49, 127
1, 63067, Note_off_c, 1, 76, 0
1, 63074, Note_on_c, 1, 83, 127
1, 63083, Note_off_c, 1, 69, 0
1, 63104, Note_off_c, 1, 81, 0
1, 63119, Note_off_c, 1, 49, 0
1, 63159, Note_off_c, 1, 83, 0
1, 63197, Note_on_c, 1, 79, 127
1, 63236, Note_on_c, 1, 45, 127
1, 63260, Note_off_c, 1, 79, 0
1, 63284, Note_off_c, 1, 45, 0
1, 63316, Note_on_c, 1, 74, 127
1, 63322, Note_on_c, 1, 78, 127
1, 63326, Note_on_c, 1, 69, 127
1, 63354, Note_on_c, 1, 50, 127
1, 63420, Note_on_c, 1, 73, 127
1, 63425, Note_on_c, 1, 67, 127
1, 63437, Note_off_c, 1, 74, 0
1, 63442, Note_off_c, 1, 69, 0
1, 63448, Note_on_c, 1, 52, 127
1, 63476, Note_off_c, 1, 50, 0
1, 63510, Note_off_c, 1, 73, 0
1, 63526, Note_off_c, 1, 67, 0
1, 63528, Note_off_c, 1, 52, 0
1, 63566, Note_on_c, 1, 54, 127
1, 63571, Note_on_c, 1, 81, 127
1, 63639, Note_off_c, 1, 54, 0
1, 63652, Note_off_c, 1, 81, 0
1, 63675, Note_on_c, 1, 71, 127
1, 63690, Note_on_c, 1, 55, 127
1, 63691, Note_on_c, 1, 83, 127
1, 63693, Note_on_c, 1, 62, 127
1, 63770, Note_off_c, 1, 83, 0
1, 63781, Note_off_c, 1, 78, 0
1, 63795, Note_off_c, 1, 62, 0
1, 63805, Note_on_c, 1, 76, 127
1, 63807, Note_on_c, 1, 85, 127
1, 63837, Note_off_c, 1, 71, 0
1, 63877, Note_off_c, 1, 85, 0
1, 63899, Note_off_c, 1, 76, 0
1, 63919, Note_on_c, 1, 66, 127
1, 63927, Note_on_c, 1, 86, 127
1, 63991, Note_off_c, 1, 66, 0
1, 63995, Note_off_c, 1, 86, 0
1, 64056, Note_on_c, 1, 64, 127
1, 64198, Note_off_c, 1, 55, 0
1, 64210, Note_off_c, 1, 64, 0
1, 64397, Note_on_c, 1, 69, 127
1, 64397, Note_on_c, 1, 55, 127
1, 64408, Note_on_c, 1, 76, 127
1, 64409, Note_on_c, 1, 79, 127
1, 64410, Note_on_c, 1, 50, 127
1, 64415, Note_on_c, 1, 64, 127
1, 64420, Note_on_c, 1, 71, 127
1, 64466, Note_off_c, 1, 79, 0
1, 64486, Note_off_c, 1, 50, 0
1, 64494, Note_off_c, 1, 76, 0
1, 64515, Note_on_c, 1, 74, 127
1, 64518, Note_off_c, 1, 64, 0
1, 64519, Note_on_c, 1, 78, 127
1, 64528, Note_off_c, 1, 71, 0
1, 64533, Note_off_c, 1, 69, 0
1, 64534, Note_off_c, 1, 55, 0
1, 64582, Note_off_c, 1, 78, 0
1, 64619, Note_off_c, 1, 74, 0
1, 64627, Note_on_c, 1, 69, 127
1, 64634, Note_on_c, 1, 73, 127
1, 64635, Note_on_c, 1, 45, 127
1, 64642, Note_on_c, 1, 64, 127
1, 64647, Note_on_c, 1, 76, 127
1, 64647, Note_on_c, 1, 57, 127
1, 64698, Note_off_c, 1, 45, 0
1, 64705, Note_off_c, 1, 64, 0
1, 64713, Note_off_c, 1, 76, 0
1, 64720, Note_off_c, 1, 69, 0
1, 64730, Note_off_c, 1, 73, 0
1, 64730, Note_off_c, 1, 57, 0
1, 64773, Note_on_c, 1, 62, 127
1, 64774, Note_on_c, 1, 66, 127
1, 64783, Note_on_c, 1, 50, 127
1, 64784, Note_on_c, 1, 74, 127
1, 64785, Note_on_c, 1, 59, 127
1, 64882, Note_on_c, 1, 57, 127
1, 64893, Note_off_c, 1, 50, 0
1, 64906, Note_off_c, 1, 59, 0
1, 64950, Note_off_c, 1, 57, 0
1, 65008, Note_on_c, 1, 55, 127
1, 65065, Note_off_c, 1, 55, 0
1, 65074, Note_off_c, 1, 74, 0
1, 65132, Note_on_c, 1, 81, 127
1, 65141, Note_off_c, 1, 62, 0
1, 65141, Note_on_c, 1, 54, 127
1, 65162, Note_off_c, 1, 66, 0
1, 65272, Note_off_c, 1, 54, 0
1, 65351, Note_on_c, 1, 52, 127
1, 65368, Note_on_c, 1, 72, 127
1, 65410, Note_off_c, 1, 52, 0
1, 65432, Note_off_c, 1, 72, 0
1, 65492, Note_on_c, 1, 51, 127
1, 65517, Note_on_c, 1, 71, 127
1, 65578, Note_off_c, 1, 81, 0
1, 65613, Note_on_c, 1, 83, 127
1, 65638, Note_off_c, 1, 51, 0
1, 65699, Note_off_c, 1, 83, 0
1, 65856, Note_on_c, 1, 80, 127
1, 65863, Note_on_c, 1, 64, 127
1, 65949, Note_on_c, 1, 76, 127
1, 66000, Note_off_c, 1, 80, 0
1, 66050, Note_off_c, 1, 76, 0
1, 66080, Note_on_c, 1, 78, 127
1, 66159, Note_off_c, 1, 71, 0
1, 66162, Note_off_c, 1, 78, 0
1, 66211, Note_on_c, 1, 79, 127
1, 66215, Note_on_c, 1, 69, 127
1, 66215, Note_on_c, 1, 49, 127
1, 66365, Note_off_c, 1, 49, 0
1, 66368, Note_off_c, 1, 79, 0
1, 66530, Note_off_c, 1, 64, 0
1, 66575, Note_on_c, 1, 48, 127
1, 66760, Note_off_c, 1, 48, 0
1, 66875, Note_off_c, 1, 69, 0
1, 66938, Note_on_c, 1, 77, 127
1, 66942, Note_on_c, 1, 47, 127
1, 66946, Note_on_c, 1, 67, 127
1, 67067, Note_off_c, 1, 77, 0
1, 67113, Note_off_c, 1, 47, 0
1, 67287, Note_on_c, 1, 46, 127
1, 67289, Note_on_c, 1, 61, 127
1, 67404, Note_on_c, 1, 73, 127
1, 67418, Note_off_c, 1, 61, 0
1, 67434, Note_off_c, 1, 46, 0
1, 67484, Note_off_c, 1, 73, 0
1, 67651, Note_on_c, 1, 45, 127
1, 68048, Note_off_c, 1, 45, 0
1, 68122, Note_off_c, 1, 67, 0
1, 68594, Note_on_c, 1, 69, 127
1, 68602, Note_on_c, 1, 73, 127
1, 68607, Note_on_c, 1, 64, 127
1, 68619, Note_on_c, 1, 81, 127
1, 68663, Note_off_c, 1, 64, 0
1, 68685, Note_off_c, 1, 69, 0
1, 68694, Note_off_c, 1, 73, 0
1, 68703, Note_off_c, 1, 81, 0
1, 68721, Note_on_c, 1, 62, 127
1, 68731, Note_on_c, 1, 74, 127
1, 68733, Note_on_c, 1, 55, 127
1, 68746, Note_on_c, 1, 83, 127
1, 68834, Note_off_c, 1, 55, 0
1, 68842, Note_on_c, 1, 54, 127
1, 68855, Note_off_c, 1, 74, 0
1, 68857, Note_off_c, 1, 62, 0
1, 68867, Note_off_c, 1, 83, 0
1, 68925, Note_off_c, 1, 54, 0
1, 68950, Note_on_c, 1, 67, 127
1, 68953, Note_on_c, 1, 52, 127
1, 68964, Note_on_c, 1, 76, 127
1, 68978, Note_on_c, 1, 85, 127
1, 68984, Note_on_c, 1, 69, 127
1, 68992, Note_on_c, 1, 45, 127
1, 69004, Note_off_c, 1, 67, 0
1, 69021, Note_off_c, 1, 52, 0
1, 69044, Note_off_c, 1, 69, 0
1, 69051, Note_off_c, 1, 76, 0
1, 69065, Note_off_c, 1, 45, 0
1, 69070, Note_off_c, 1, 85, 0
1, 69085, Note_on_c, 1, 69, 127
1, 69087, Note_on_c, 1, 54, 127
1, 69094, Note_on_c, 1, 74, 127
1, 69099, Note_on_c, 1, 86, 127
1, 69102, Note_on_c, 1, 85, 127
1, 69119, Note_on_c, 1, 81, 127
1, 69121, Note_on_c, 1, 50, 127
1, 69124, Note_on_c, 1, 66, 127
1, 69181, Note_off_c, 1, 69, 0
1, 69197, Note_off_c, 1, 81, 0
1, 69202, Note_off_c, 1, 50, 0
1, 69205, Note_on_c, 1, 52, 127
1, 69206, Note_off_c, 1, 66, 0
1, 69213, Note_off_c, 1, 85, 0
1, 69218, Note_off_c, 1, 74, 0
1, 69226, Note_off_c, 1, 54, 0
1, 69232, Note_on_c, 1, 79, 127
1, 69263, Note_off_c, 1, 86, 0
1, 69297, Note_off_c, 1, 52, 0
1, 69297, Note_off_c, 1, 79, 0
1, 69317, Note_on_c, 1, 50, 127
1, 69332, Note_on_c, 1, 74, 127
1, 69334, Note_on_c, 1, 81, 127
1, 69334, Note_on_c, 1, 78, 127
1, 69400, Note_off_c, 1, 74, 0
1, 69406, Note_off_c, 1, 78, 0
1, 69411, Note_off_c, 1, 81, 0
1, 69431, Note_off_c, 1, 50, 0
1, 69458, Note_on_c, 1, 79, 127
1, 69458, Note_on_c, 1, 57, 127
1, 69460, Note_on_c, 1, 74, 127
1, 69466, Note_on_c, 1, 45, 127
1, 69470, Note_on_c, 1, 69, 127
1, 69474, Note_on_c, 1, 78, 127
1, 69542, Note_off_c, 1, 45, 0
1, 69561, Note_on_c, 1, 76, 127
1, 69562, Note_on_c, 1, 73, 127
1, 69571, Note_off_c, 1, 57, 0
1, 69580, Note_off_c, 1, 74, 0
1, 69582, Note_on_c, 1, 67, 127
1, 69589, Note_off_c, 1, 69, 0
1, 69607, Note_off_c, 1, 78, 0
1, 69643, Note_off_c, 1, 79, 0
1, 69643, Note_off_c, 1, 73, 0
1, 69657, Note_off_c, 1, 67, 0
1, 69683, Note_off_c, 1, 76, 0
1, 69687, Note_on_c, 1, 81, 127
1, 69693, Note_on_c, 1, 66, 127
1, 69754, Note_off_c, 1, 81, 0
1, 69754, Note_off_c, 1, 66, 0
1, 69812, Note_on_c, 1, 50, 127
1, 69815, Note_on_c, 1, 79, 127
1, 69822, Note_on_c, 1, 74, 127
1, 69822, Note_on_c, 1, 69, 127
1, 69827, Note_on_c, 1, 66, 127
1, 69924, Note_on_c, 1, 78, 127
1, 69932, Note_off_c, 1, 79, 0
1, 69971, Note_off_c, 1, 78, 0
1, 70243, Note_off_c, 1, 66, 0
1, 70253, Note_off_c, 1, 74, 0
1, 70296, Note_off_c, 1, 69, 0
1, 70316, Note_off_c, 1, 50, 0
1, 70356, Note_on_c, 1, 64, 127
1, 70383, Note_on_c, 1, 73, 127
1, 70383, Note_on_c, 1, 45, 127
1, 70427, Note_off_c, 1, 64, 0
1, 70439, Note_off_c, 1, 73, 0
1, 70446, Note_off_c, 1, 45, 0
1, 70494, Note_on_c, 1, 69, 127
1, 70500, Note_on_c, 1, 57, 127
1, 70515, Note_on_c, 1, 73, 127
1, 70535, Note_on_c, 1, 45, 127
1, 70541, Note_on_c, 1, 76, 127
1, 70572, Note_off_c, 1, 45, 0
1, 70628, Note_on_c, 1, 56, 127
1, 70647, Note_off_c, 1, 57, 0
1, 70647, Note_on_c, 1, 66, 127
1, 70714, Note_off_c, 1, 56, 0
1, 70714, Note_off_c, 1, 66, 0
1, 70787, Note_off_c, 1, 73, 0
1, 70802, Note_off_c, 1, 76, 0
1, 70824, Note_off_c, 1, 69, 0
1, 70858, Note_on_c, 1, 45, 127
1, 70862, Note_on_c, 1, 66, 127
1, 70864, Note_on_c, 1, 69, 127
1, 70870, Note_on_c, 1, 57, 127
1, 70873, Note_on_c, 1, 74, 127
1, 70888, Note_on_c, 1, 78, 127
1, 70895, Note_off_c, 1, 45, 0
1, 70938, Note_off_c, 1, 66, 0
1, 70976, Note_on_c, 1, 56, 127
1, 70992, Note_on_c, 1, 62, 127
1, 70999, Note_off_c, 1, 57, 0
1, 71057, Note_off_c, 1, 56, 0
1, 71057, Note_off_c, 1, 62, 0
1, 71083, Note_off_c, 1, 69, 0
1, 71148, Note_off_c, 1, 78, 0
1, 71155, Note_off_c, 1, 74, 0
1, 71180, Note_on_c, 1, 45, 127
1, 71214, Note_on_c, 1, 57, 127
1, 71219, Note_on_c, 1, 69, 127
1, 71232, Note_on_c, 1, 73, 127
1, 71238, Note_on_c, 1, 76, 127
1, 71252, Note_off_c, 1, 45, 0
1, 71320, Note_on_c, 1, 56, 127
1, 71344, Note_off_c, 1, 57, 0
1, 71451, Note_off_c, 1, 56, 0
1, 71567, Note_on_c, 1, 49, 127
1, 71665, Note_off_c, 1, 73, 0
1, 71677, Note_off_c, 1, 76, 0
1, 71688, Note_off_c, 1, 49, 0
1, 71701, Note_on_c, 1, 78, 127
1, 71713, Note_on_c, 1, 74, 127
1, 71784, Note_off_c, 1, 78, 0
1, 71786, Note_off_c, 1, 74, 0
1, 71799, Note_off_c, 1, 69, 0
1, 71804, Note_on_c, 1, 61, 127
1, 71807, Note_on_c, 1, 79, 127
1, 71883, Note_off_c, 1, 61, 0
1, 71894, Note_off_c, 1, 79, 0
1, 71918, Note_on_c, 1, 50, 127
1, 71949, Note_on_c, 1, 74, 127
1, 71954, Note_on_c, 1, 57, 127
1, 71955, Note_on_c, 1, 78, 127
1, 72051, Note_off_c, 1, 50, 0
1, 72061, Note_on_c, 1, 76, 127
1, 72079, Note_off_c, 1, 74, 0
1, 72079, Note_off_c, 1, 57, 0
1, 72097, Note_off_c, 1, 78, 0
1, 72147, Note_off_c, 1, 76, 0
1, 72168, Note_on_c, 1, 47, 127
1, 72180, Note_on_c, 1, 59, 127
1, 72183, Note_on_c, 1, 66, 127
1, 72187, Note_on_c, 1, 74, 127
1, 72245, Note_off_c, 1, 74, 0
1, 72256, Note_off_c, 1, 59, 0
1, 72259, Note_off_c, 1, 66, 0
1, 72274, Note_off_c, 1, 47, 0
1, 72287, Note_on_c, 1, 52, 127
1, 72312, Note_on_c, 1, 73, 127
1, 72312, Note_on_c, 1, 55, 127
1, 72319, Note_on_c, 1, 64, 127
1, 72420, Note_on_c, 1, 74, 127
1, 72440, Note_off_c, 1, 52, 0
1, 72443, Note_off_c, 1, 55, 0
1, 72452, Note_off_c, 1, 73, 0
1, 72456, Note_off_c, 1, 64, 0
1, 72490, Note_off_c, 1, 74, 0
1, 72544, Note_on_c, 1, 59, 127
1, 72548, Note_on_c, 1, 71, 127
1, 72552, Note_on_c, 1, 55, 127
1, 72554, Note_on_c, 1, 64, 127
1, 72616, Note_off_c, 1, 71, 0
1, 72625, Note_off_c, 1, 59, 0
1, 72627, Note_off_c, 1, 64, 0
1, 72640, Note_off_c, 1, 55, 0
1, 72667, Note_on_c, 1, 54, 127
1, 72673, Note_on_c, 1, 61, 127
1, 72680, Note_on_c, 1, 70, 127
1, 72691, Note_on_c, 1, 66, 127
1, 72792, Note_on_c, 1, 71, 127
1, 72806, Note_off_c, 1, 61, 0
1, 72819, Note_off_c, 1, 70, 0
1, 72839, Note_off_c, 1, 54, 0
1, 72879, Note_off_c, 1, 71, 0
1, 72914, Note_on_c, 1, 73, 127
1, 72917, Note_on_c, 1, 58, 127
1, 72920, Note_on_c, 1, 52, 127
1, 72982, Note_off_c, 1, 73, 0
1, 72991, Note_off_c, 1, 58, 0
1, 73021, Note_off_c, 1, 52, 0
1, 73047, Note_on_c, 1, 50, 127
1, 73054, Note_on_c, 1, 59, 127
1, 73174, Note_off_c, 1, 66, 0
1, 73177, Note_off_c, 1, 50, 0
1, 73177, Note_off_c, 1, 59, 0
1, 73188, Note_on_c, 1, 78, 127
1, 73243, Note_off_c, 1, 78, 0
1, 73275, Note_on_c, 1, 73, 127
1, 73283, Note_on_c, 1, 58, 127
1, 73293, Note_on_c, 1, 49, 127
1, 73296, Note_on_c, 1, 76, 127
1, 73309, Note_on_c, 1, 66, 127
1, 73329, Note_off_c, 1, 58, 0
1, 73339, Note_off_c, 1, 73, 0
1, 73355, Note_off_c, 1, 76, 0
1, 73360, Note_off_c, 1, 49, 0
1, 73392, Note_off_c, 1, 66, 0
1, 73405, Note_on_c, 1, 59, 127
1, 73410, Note_on_c, 1, 78, 127
1, 73427, Note_on_c, 1, 74, 127
1, 73428, Note_on_c, 1, 66, 127
1, 73432, Note_on_c, 1, 47, 127
1, 73443, Note_on_c, 1, 50, 127
1, 73529, Note_on_c, 1, 46, 127
1, 73539, Note_off_c, 1, 50, 0
1, 73544, Note_off_c, 1, 47, 0
1, 73614, Note_off_c, 1, 46, 0
1, 73654, Note_off_c, 1, 59, 0
1, 73700, Note_off_c, 1, 74, 0
1, 73733, Note_off_c, 1, 78, 0
1, 73783, Note_on_c, 1, 79, 127
1, 73787, Note_on_c, 1, 71, 127
1, 73793, Note_on_c, 1, 76, 127
1, 73804, Note_off_c, 1, 66, 0
1, 74019, Note_off_c, 1, 71, 0
1, 74048, Note_off_c, 1, 76, 0
1, 74078, Note_off_c, 1, 79, 0
1, 74129, Note_on_c, 1, 47, 127
1, 74137, Note_on_c, 1, 79, 127
1, 74140, Note_on_c, 1, 66, 127
1, 74145, Note_on_c, 1, 76, 127
1, 74154, Note_on_c, 1, 74, 127
1, 74155, Note_on_c, 1, 71, 127
1, 74159, Note_on_c, 1, 50, 127
1, 74235, Note_on_c, 1, 49, 127
1, 74247, Note_off_c, 1, 76, 0
1, 74255, Note_on_c, 1, 78, 127
1, 74268, Note_off_c, 1, 47, 0
1, 74268, Note_off_c, 1, 79, 0
1, 74270, Note_off_c, 1, 50, 0
1, 74342, Note_off_c, 1, 49, 0
1, 74556, Note_off_c, 1, 71, 0
1, 74682, Note_off_c, 1, 74, 0
1, 74687, Note_off_c, 1, 78, 0
1, 74750, Note_on_c, 1, 59, 127
1, 74823, Note_off_c, 1, 66, 0
1, 74839, Note_off_c, 1, 59, 0
1, 74849, Note_on_c, 1, 52, 127
1, 74864, Note_on_c, 1, 64, 127
1, 74869, Note_on_c, 1, 73, 127
1, 74882, Note_on_c, 1, 55, 127
1, 74953, Note_on_c, 1, 54, 127
1, 74972, Note_on_c, 1, 74, 127
1, 74980, Note_off_c, 1, 52, 0
1, 74997, Note_off_c, 1, 73, 0
1, 75011, Note_off_c, 1, 55, 0
1, 75025, Note_off_c, 1, 64, 0
1, 75033, Note_off_c, 1, 74, 0
1, 75089, Note_off_c, 1, 54, 0
1, 75093, Note_on_c, 1, 71, 127
1, 75096, Note_on_c, 1, 59, 127
1, 75154, Note_off_c, 1, 71, 0
1, 75185, Note_off_c, 1, 59, 0
1, 75218, Note_on_c, 1, 54, 127
1, 75227, Note_on_c, 1, 66, 127
1, 75228, Note_on_c, 1, 61, 127
1, 75328, Note_on_c, 1, 52, 127
1, 75338, Note_on_c, 1, 71, 127
1, 75342, Note_off_c, 1, 61, 0
1, 75358, Note_off_c, 1, 54, 0
1, 75367, Note_off_c, 1, 66, 0
1, 75418, Note_off_c, 1, 71, 0
1, 75434, Note_off_c, 1, 52, 0
1, 75450, Note_on_c, 1, 54, 127
1, 75459, Note_on_c, 1, 61, 127
1, 75461, Note_on_c, 1, 70, 127
1, 75478, Note_on_c, 1, 66, 127
1, 75512, Note_off_c, 1, 54, 0
1, 75520, Note_off_c, 1, 61, 0
1, 75528, Note_off_c, 1, 70, 0
1, 75546, Note_off_c, 1, 66, 0
1, 75588, Note_on_c, 1, 47, 127
1, 75591, Note_on_c, 1, 71, 127
1, 75603, Note_on_c, 1, 66, 127
1, 75608, Note_on_c, 1, 62, 127
1, 75694, Note_on_c, 1, 50, 127
1, 75724, Note_off_c, 1, 47, 0
1, 75795, Note_on_c, 1, 54, 127
1, 75810, Note_off_c, 1, 50, 0
1, 75896, Note_off_c, 1, 54, 0
1, 75934, Note_on_c, 1, 59, 127
1, 76015, Note_off_c, 1, 71, 0
1, 76020, Note_off_c, 1, 62, 0
1, 76038, Note_off_c, 1, 66, 0
1, 76073, Note_off_c, 1, 59, 0
1, 76090, Note_on_c, 1, 74, 127
1, 76156, Note_off_c, 1, 74, 0
1, 76164, Note_on_c, 1, 57, 127
1, 76177, Note_on_c, 1, 66, 127
1, 76199, Note_on_c, 1, 73, 127
1, 76247, Note_off_c, 1, 57, 0
1, 76262, Note_off_c, 1, 66, 0
1, 76262, Note_off_c, 1, 73, 0
1, 76287, Note_on_c, 1, 56, 127
1, 76313, Note_on_c, 1, 71, 127
1, 76326, Note_on_c, 1, 64, 127
1, 76328, Note_on_c, 1, 74, 127
1, 76426, Note_off_c, 1, 56, 0
1, 76441, Note_on_c, 1, 73, 127
1, 76454, Note_on_c, 1, 76, 127
1, 76469, Note_off_c, 1, 74, 0
1, 76506, Note_off_c, 1, 73, 0
1, 76507, Note_off_c, 1, 76, 0
1, 76520, Note_off_c, 1, 64, 0
1, 76527, Note_on_c, 1, 59, 127
1, 76547, Note_off_c, 1, 71, 0
1, 76588, Note_off_c, 1, 59, 0
1, 76641, Note_on_c, 1, 59, 127
1, 76672, Note_on_c, 1, 64, 127
1, 76676, Note_on_c, 1, 68, 127
1, 76678, Note_on_c, 1, 74, 127
1, 76782, Note_off_c, 1, 59, 0
1, 76789, Note_on_c, 1, 73, 127
1, 76792, Note_on_c, 1, 76, 127
1, 76815, Note_off_c, 1, 74, 0
1, 76848, Note_off_c, 1, 64, 0
1, 76858, Note_off_c, 1, 76, 0
1, 76866, Note_off_c, 1, 68, 0
1, 76867, Note_off_c, 1, 73, 0
1, 76874, Note_on_c, 1, 56, 127
1, 76905, Note_on_c, 1, 74, 127
1, 76976, Note_off_c, 1, 74, 0
1, 76984, Note_off_c, 1, 56, 0
1, 77005, Note_on_c, 1, 52, 127
1, 77028, Note_on_c, 1, 59, 127
1, 77034, Note_on_c, 1, 74, 127
1, 77042, Note_on_c, 1, 68, 127
1, 77133, Note_on_c, 1, 73, 127
1, 77161, Note_off_c, 1, 52, 0
1, 77220, Note_on_c, 1, 56, 127
1, 77241, Note_off_c, 1, 73, 0
1, 77280, Note_off_c, 1, 68, 0
1, 77293, Note_off_c, 1, 59, 0
1, 77297, Note_off_c, 1, 56, 0
1, 77382, Note_on_c, 1, 71, 127
1, 77383, Note_on_c, 1, 64, 127
1, 77454, Note_off_c, 1, 74, 0
1, 77519, Note_off_c, 1, 71, 0
1, 77522, Note_off_c, 1, 64, 0
1, 77522, Note_on_c, 1, 76, 127
1, 77593, Note_off_c, 1, 76, 0
1, 77616, Note_on_c, 1, 50, 127
1, 77638, Note_on_c, 1, 80, 127
1, 77676, Note_off_c, 1, 50, 0
1, 77709, Note_off_c, 1, 80, 0
1, 77709, Note_on_c, 1, 49, 127
1, 77732, Note_on_c, 1, 69, 127
1, 77734, Note_on_c, 1, 45, 127
1, 77752, Note_on_c, 1, 81, 127
1, 77798, Note_off_c, 1, 45, 0
1, 77832, Note_off_c, 1, 69, 0
1, 77838, Note_off_c, 1, 49, 0
1, 77857, Note_off_c, 1, 81, 0
1, 77941, Note_on_c, 1, 54, 127
1, 77948, Note_on_c, 1, 45, 127
1, 77949, Note_on_c, 1, 69, 127
1, 77959, Note_on_c, 1, 66, 127
1, 77966, Note_on_c, 1, 81, 127
1, 77973, Note_on_c, 1, 73, 127
1, 77981, Note_on_c, 1, 78, 127
1, 78010, Note_off_c, 1, 45, 0
1, 78019, Note_off_c, 1, 66, 0
1, 78024, Note_off_c, 1, 69, 0
1, 78031, Note_off_c, 1, 81, 0
1, 78035, Note_off_c, 1, 54, 0
1, 78037, Note_off_c, 1, 73, 0
1, 78042, Note_off_c, 1, 78, 0
1, 78063, Note_on_c, 1, 50, 127
1, 78078, Note_on_c, 1, 69, 127
1, 78078, Note_on_c, 1, 66, 127
1, 78087, Note_on_c, 1, 81, 127
1, 78087, Note_on_c, 1, 62, 127
1, 78094, Note_on_c, 1, 71, 127
1, 78099, Note_on_c, 1, 78, 127
1, 78178, Note_off_c, 1, 62, 0
1, 78196, Note_off_c, 1, 50, 0
1, 78198, Note_off_c, 1, 78, 0
1, 78205, Note_on_c, 1, 73, 127
1, 78208, Note_off_c, 1, 66, 0
1, 78208, Note_off_c, 1, 81, 0
1, 78217, Note_off_c, 1, 69, 0
1, 78234, Note_off_c, 1, 71, 0
1, 78292, Note_on_c, 1, 52, 127
1, 78302, Note_on_c, 1, 64, 127
1, 78304, Note_on_c, 1, 68, 127
1, 78309, Note_on_c, 1, 74, 127
1, 78319, Note_on_c, 1, 80, 127
1, 78322, Note_on_c, 1, 76, 127
1, 78329, Note_off_c, 1, 73, 0
1, 78360, Note_off_c, 1, 64, 0
1, 78368, Note_off_c, 1, 52, 0
1, 78370, Note_off_c, 1, 68, 0
1, 78387, Note_off_c, 1, 74, 0
1, 78388, Note_off_c, 1, 76, 0
1, 78395, Note_off_c, 1, 80, 0
1, 78429, Note_on_c, 1, 69, 127
1, 78434, Note_on_c, 1, 64, 127
1, 78436, Note_on_c, 1, 45, 127
1, 78441, Note_on_c, 1, 76, 127
1, 78441, Note_on_c, 1, 73, 127
1, 78445, Note_on_c, 1, 81, 127
1, 78542, Note_off_c, 1, 69, 0
1, 78542, Note_on_c, 1, 62, 127
1, 78547, Note_on_c, 1, 71, 127
1, 78547, Note_on_c, 1, 68, 127
1, 78556, Note_off_c, 1, 81, 0
1, 78567, Note_off_c, 1, 45, 0
1, 78567, Note_off_c, 1, 76, 0
1, 78569, Note_off_c, 1, 64, 0
1, 78582, Note_off_c, 1, 73, 0
1, 78622, Note_off_c, 1, 68, 0
1, 78636, Note_off_c, 1, 62, 0
1, 78647, Note_off_c, 1, 71, 0
1, 78660, Note_on_c, 1, 69, 127
1, 78660, Note_on_c, 1, 64, 127
1, 78663, Note_on_c, 1, 57, 127
1, 78668, Note_on_c, 1, 76, 127
1, 78668, Note_on_c, 1, 73, 127
1, 78675, Note_on_c, 1, 45, 127
1, 78703, Note_off_c, 1, 64, 0
1, 78721, Note_off_c, 1, 73, 0
1, 78721, Note_off_c, 1, 45, 0
1, 78726, Note_off_c, 1, 69, 0
1, 78732, Note_off_c, 1, 57, 0
1, 78736, Note_off_c, 1, 76, 0
1, 78776, Note_on_c, 1, 64, 127
1, 78776, Note_on_c, 1, 57, 127
1, 78784, Note_on_c, 1, 61, 127
1, 78792, Note_on_c, 1, 69, 127
1, 78798, Note_on_c, 1, 76, 127
1, 78802, Note_on_c, 1, 45, 127
1, 78885, Note_off_c, 1, 45, 0
1, 78888, Note_off_c, 1, 57, 0
1, 78892, Note_off_c, 1, 76, 0
1, 78892, Note_on_c, 1, 73, 127
1, 78896, Note_off_c, 1, 64, 0
1, 78923, Note_off_c, 1, 61, 0
1, 78985, Note_off_c, 1, 73, 0
1, 79011, Note_on_c, 1, 52, 127
1, 79091, Note_off_c, 1, 69, 0
1, 79097, Note_off_c, 1, 52, 0
1, 79137, Note_on_c, 1, 76, 127
1, 79146, Note_on_c, 1, 49, 127
1, 79150, Note_on_c, 1, 79, 127
1, 79150, Note_on_c, 1, 69, 127
1, 79254, Note_on_c, 1, 78, 127
1, 79267, Note_off_c, 1, 49, 0
1, 79283, Note_off_c, 1, 79, 0
1, 79339, Note_off_c, 1, 78, 0
1, 79383, Note_off_c, 1, 69, 0
1, 79383, Note_on_c, 1, 52, 127
1, 79413, Note_off_c, 1, 76, 0
1, 79458, Note_off_c, 1, 52, 0
1, 79499, Note_on_c, 1, 52, 127
1, 79509, Note_on_c, 1, 79, 127
1, 79519, Note_on_c, 1, 69, 127
1, 79522, Note_on_c, 1, 73, 127
1, 79619, Note_on_c, 1, 78, 127
1, 79650, Note_off_c, 1, 52, 0
1, 79652, Note_off_c, 1, 79, 0
1, 79695, Note_off_c, 1, 69, 0
1, 79705, Note_off_c, 1, 78, 0
1, 79729, Note_on_c, 1, 49, 127
1, 79746, Note_off_c, 1, 73, 0
1, 79829, Note_off_c, 1, 49, 0
1, 79869, Note_on_c, 1, 79, 127
1, 79877, Note_on_c, 1, 45, 127
1, 79883, Note_on_c, 1, 73, 127
1, 79885, Note_on_c, 1, 64, 127
1, 79981, Note_on_c, 1, 78, 127
1, 80031, Note_off_c, 1, 45, 0
1, 80081, Note_off_c, 1, 78, 0
1, 80112, Note_on_c, 1, 49, 127
1, 80145, Note_off_c, 1, 64, 0
1, 80150, Note_off_c, 1, 73, 0
1, 80180, Note_off_c, 1, 49, 0
1, 80236, Note_on_c, 1, 69, 127
1, 80246, Note_on_c, 1, 76, 127
1, 80336, Note_off_c, 1, 79, 0
1, 80377, Note_off_c, 1, 69, 0
1, 80392, Note_on_c, 1, 81, 127
1, 80403, Note_off_c, 1, 76, 0
1, 80453, Note_off_c, 1, 81, 0
1, 80595, Note_on_c, 1, 42, 127
1, 80600, Note_on_c, 1, 69, 127
1, 80604, Note_on_c, 1, 76, 127
1, 80607, Note_on_c, 1, 81, 127
1, 80640, Note_on_c, 1, 45, 127
1, 80710, Note_off_c, 1, 45, 0
1, 80723, Note_on_c, 1, 79, 127
1, 80730, Note_off_c, 1, 42, 0
1, 80749, Note_off_c, 1, 76, 0
1, 80763, Note_off_c, 1, 69, 0
1, 80763, Note_off_c, 1, 81, 0
1, 80814, Note_off_c, 1, 79, 0
1, 80816, Note_on_c, 1, 47, 127
1, 80842, Note_on_c, 1, 74, 127
1, 80846, Note_on_c, 1, 78, 127
1, 80857, Note_on_c, 1, 71, 127
1, 80877, Note_on_c, 1, 50, 127
1, 80920, Note_off_c, 1, 71, 0
1, 80930, Note_off_c, 1, 74, 0
1, 80938, Note_off_c, 1, 50, 0
1, 80945, Note_off_c, 1, 78, 0
1, 80952, Note_off_c, 1, 47, 0
1, 80967, Note_on_c, 1, 43, 127
1, 80975, Note_on_c, 1, 76, 127
1, 80975, Note_on_c, 1, 74, 127
1, 80975, Note_on_c, 1, 71, 127
1, 80996, Note_on_c, 1, 50, 127
1, 80998, Note_on_c, 1, 79, 127
1, 81069, Note_off_c, 1, 50, 0
1, 81078, Note_on_c, 1, 78, 127
1, 81099, Note_off_c, 1, 71, 0
1, 81119, Note_off_c, 1, 76, 0
1, 81119, Note_off_c, 1, 79, 0
1, 81130, Note_off_c, 1, 74, 0
1, 81134, Note_off_c, 1, 43, 0
1, 81189, Note_off_c, 1, 78, 0
1, 81207, Note_on_c, 1, 79, 127
1, 81215, Note_on_c, 1, 69, 127
1, 81216, Note_on_c, 1, 73, 127
1, 81220, Note_on_c, 1, 45, 127
1, 81221, Note_on_c, 1, 76, 127
1, 81270, Note_off_c, 1, 79, 0
1, 81276, Note_off_c, 1, 76, 0
1, 81285, Note_off_c, 1, 69, 0
1, 81294, Note_off_c, 1, 73, 0
1, 81306, Note_off_c, 1, 45, 0
1, 81339, Note_on_c, 1, 78, 127
1, 81346, Note_on_c, 1, 50, 127
1, 81348, Note_on_c, 1, 74, 127
1, 81349, Note_on_c, 1, 69, 127
1, 81356, Note_on_c, 1, 38, 127
1, 81417, Note_off_c, 1, 50, 0
1, 81443, Note_on_c, 1, 67, 127
1, 81445, Note_on_c, 1, 76, 127
1, 81467, Note_on_c, 1, 73, 127
1, 81468, Note_off_c, 1, 69, 0
1, 81470, Note_off_c, 1, 38, 0
1, 81475, Note_off_c, 1, 78, 0
1, 81481, Note_off_c, 1, 74, 0
1, 81535, Note_off_c, 1, 73, 0
1, 81538, Note_off_c, 1, 67, 0
1, 81560, Note_off_c, 1, 76, 0
1, 81569, Note_on_c, 1, 69, 127
1, 81573, Note_on_c, 1, 78, 127
1, 81576, Note_on_c, 1, 50, 127
1, 81577, Note_on_c, 1, 74, 127
1, 81632, Note_off_c, 1, 69, 0
1, 81644, Note_off_c, 1, 78, 0
1, 81650, Note_off_c, 1, 74, 0
1, 81672, Note_off_c, 1, 50, 0
1, 81697, Note_on_c, 1, 69, 127
1, 81698, Note_on_c, 1, 66, 127
1, 81698, Note_on_c, 1, 54, 127
1, 81704, Note_on_c, 1, 74, 127
1, 81712, Note_on_c, 1, 50, 127
1, 81796, Note_off_c, 1, 50, 0
1, 81796, Note_on_c, 1, 62, 127
1, 81810, Note_on_c, 1, 78, 127
1, 81819, Note_off_c, 1, 54, 0
1, 81866, Note_off_c, 1, 66, 0
1, 81869, Note_off_c, 1, 62, 0
1, 81880, Note_off_c, 1, 69, 0
1, 81897, Note_off_c, 1, 78, 0
1, 81925, Note_on_c, 1, 73, 127
1, 81927, Note_on_c, 1, 57, 127
1, 81931, Note_on_c, 1, 76, 127
1, 81982, Note_off_c, 1, 74, 0
1, 81987, Note_off_c, 1, 73, 0
1, 82015, Note_off_c, 1, 57, 0
1, 82017, Note_off_c, 1, 76, 0
1, 82063, Note_on_c, 1, 74, 127
1, 82063, Note_on_c, 1, 69, 127
1, 82064, Note_on_c, 1, 62, 127
1, 82065, Note_on_c, 1, 78, 127
1, 82164, Note_on_c, 1, 80, 127
1, 82164, Note_on_c, 1, 68, 127
1, 82190, Note_off_c, 1, 69, 0
1, 82202, Note_off_c, 1, 62, 0
1, 82215, Note_off_c, 1, 78, 0
1, 82245, Note_off_c, 1, 68, 0
1, 82270, Note_off_c, 1, 80, 0
1, 82278, Note_on_c, 1, 66, 127
1, 82290, Note_on_c, 1, 81, 127
1, 82309, Note_on_c, 1, 61, 127
1, 82359, Note_off_c, 1, 66, 0
1, 82369, Note_off_c, 1, 81, 0
1, 82391, Note_off_c, 1, 61, 0
1, 82410, Note_on_c, 1, 71, 127
1, 82432, Note_on_c, 1, 59, 127
1, 82492, Note_off_c, 1, 74, 0
1, 82533, Note_on_c, 1, 73, 127
1, 82540, Note_off_c, 1, 71, 0
1, 82595, Note_off_c, 1, 73, 0
1, 82653, Note_on_c, 1, 83, 127
1, 82740, Note_off_c, 1, 83, 0
1, 82785, Note_on_c, 1, 65, 127
1, 82811, Note_off_c, 1, 59, 0
1, 82884, Note_on_c, 1, 56, 127
1, 82962, Note_off_c, 1, 56, 0
1, 82997, Note_on_c, 1, 53, 127
1, 83066, Note_off_c, 1, 53, 0
1, 83129, Note_on_c, 1, 49, 127
1, 83233, Note_off_c, 1, 65, 0
1, 83243, Note_off_c, 1, 49, 0
1, 83348, Note_on_c, 1, 49, 127
1, 83376, Note_on_c, 1, 65, 127
1, 83388, Note_on_c, 1, 83, 127
1, 83389, Note_on_c, 1, 73, 127
1, 83409, Note_off_c, 1, 49, 0
1, 83439, Note_off_c, 1, 73, 0
1, 83440, Note_off_c, 1, 65, 0
1, 83456, Note_off_c, 1, 83, 0
1, 83493, Note_on_c, 1, 54, 127
1, 83503, Note_on_c, 1, 73, 127
1, 83508, Note_on_c, 1, 66, 127
1, 83515, Note_on_c, 1, 81, 127
1, 83599, Note_on_c, 1, 68, 127
1, 83616, Note_on_c, 1, 80, 127
1, 83621, Note_off_c, 1, 54, 0
1, 83633, Note_off_c, 1, 66, 0
1, 83654, Note_off_c, 1, 81, 0
1, 83704, Note_off_c, 1, 68, 0
1, 83717, Note_off_c, 1, 80, 0
1, 83720, Note_on_c, 1, 69, 127
1, 83730, Note_on_c, 1, 42, 127
1, 83739, Note_on_c, 1, 78, 127
1, 83785, Note_off_c, 1, 69, 0
1, 83821, Note_off_c, 1, 42, 0
1, 83827, Note_off_c, 1, 78, 0
1, 83856, Note_on_c, 1, 57, 127
1, 83871, Note_on_c, 1, 76, 127
1, 83916, Note_off_c, 1, 73, 0
1, 83960, Note_off_c, 1, 57, 0
1, 83972, Note_on_c, 1, 74, 127
1, 83974, Note_on_c, 1, 71, 127
1, 84011, Note_off_c, 1, 76, 0
1, 84038, Note_off_c, 1, 71, 0
1, 84044, Note_off_c, 1, 74, 0
1, 84078, Note_on_c, 1, 69, 127
1, 84078, Note_on_c, 1, 61, 127
1, 84086, Note_on_c, 1, 52, 127
1, 84100, Note_on_c, 1, 73, 127
1, 84144, Note_off_c, 1, 52, 0
1, 84149, Note_off_c, 1, 69, 0
1, 84158, Note_off_c, 1, 61, 0
1, 84176, Note_off_c, 1, 73, 0
1, 84203, Note_on_c, 1, 71, 127
1, 84215, Note_on_c, 1, 50, 127
1, 84220, Note_on_c, 1, 66, 127
1, 84320, Note_on_c, 1, 47, 127
1, 84333, Note_off_c, 1, 50, 0
1, 84414, Note_off_c, 1, 47, 0
1, 84567, Note_on_c, 1, 54, 127
1, 84610, Note_off_c, 1, 66, 0
1, 84671, Note_off_c, 1, 54, 0
1, 84673, Note_off_c, 1, 71, 0
1, 84698, Note_on_c, 1, 78, 127
1, 84772, Note_off_c, 1, 78, 0
1, 84798, Note_on_c, 1, 69, 127
1, 84803, Note_on_c, 1, 73, 127
1, 84822, Note_on_c, 1, 81, 127
1, 84881, Note_off_c, 1, 69, 0
1, 84883, Note_off_c, 1, 73, 0
1, 84888, Note_off_c, 1, 81, 0
1, 84919, Note_on_c, 1, 59, 127
1, 84941, Note_on_c, 1, 71, 127
1, 84946, Note_on_c, 1, 80, 127
1, 84952, Note_on_c, 1, 74, 127
1, 85037, Note_on_c, 1, 78, 127
1, 85040, Note_on_c, 1, 69, 127
1, 85068, Note_off_c, 1, 59, 0
1, 85077, Note_off_c, 1, 71, 0
1, 85090, Note_off_c, 1, 80, 0
1, 85115, Note_off_c, 1, 74, 0
1, 85141, Note_off_c, 1, 69, 0
1, 85156, Note_on_c, 1, 68, 127
1, 85158, Note_on_c, 1, 61, 127
1, 85163, Note_off_c, 1, 78, 0
1, 85168, Note_on_c, 1, 77, 127
1, 85188, Note_on_c, 1, 73, 127
1, 85242, Note_off_c, 1, 68, 0
1, 85251, Note_off_c, 1, 77, 0
1, 85259, Note_off_c, 1, 61, 0
1, 85272, Note_off_c, 1, 73, 0
1, 85284, Note_on_c, 1, 62, 127
1, 85294, Note_on_c, 1, 66, 127
1, 85298, Note_on_c, 1, 78, 127
1, 85310, Note_on_c, 1, 71, 127
1, 85386, Note_off_c, 1, 62, 0
1, 85408, Note_on_c, 1, 76, 127
1, 85415, Note_off_c, 1, 66, 0
1, 85435, Note_off_c, 1, 78, 0
1, 85451, Note_off_c, 1, 71, 0
1, 85508, Note_off_c, 1, 76, 0
1, 85524, Note_on_c, 1, 74, 127
1, 85525, Note_on_c, 1, 56, 127
1, 85534, Note_on_c, 1, 65, 127
1, 85540, Note_on_c, 1, 71, 127
1, 85605, Note_off_c, 1, 74, 0
1, 85610, Note_off_c, 1, 65, 0
1, 85615, Note_off_c, 1, 71, 0
1, 85618, Note_off_c, 1, 56, 0
1, 85651, Note_on_c, 1, 57, 127
1, 85653, Note_on_c, 1, 73, 127
1, 85658, Note_on_c, 1, 66, 127
1, 85671, Note_on_c, 1, 69, 127
1, 85761, Note_on_c, 1, 78, 127
1, 85795, Note_off_c, 1, 69, 0
1, 85800, Note_off_c, 1, 57, 0
1, 85801, Note_off_c, 1, 73, 0
1, 85859, Note_off_c, 1, 78, 0
1, 85876, Note_on_c, 1, 54, 127
1, 85887, Note_on_c, 1, 76, 127
1, 85960, Note_off_c, 1, 76, 0
1, 85989, Note_off_c, 1, 54, 0
1, 86009, Note_on_c, 1, 59, 127
1, 86016, Note_on_c, 1, 74, 127
1, 86027, Note_on_c, 1, 71, 127
1, 86096, Note_off_c, 1, 66, 0
1, 86131, Note_off_c, 1, 71, 0
1, 86135, Note_off_c, 1, 74, 0
1, 86138, Note_off_c, 1, 59, 0
1, 86231, Note_on_c, 1, 68, 127
1, 86243, Note_on_c, 1, 71, 127
1, 86246, Note_on_c, 1, 53, 127
1, 86302, Note_off_c, 1, 68, 0
1, 86309, Note_off_c, 1, 71, 0
1, 86334, Note_off_c, 1, 53, 0
1, 86358, Note_on_c, 1, 61, 127
1, 86367, Note_on_c, 1, 69, 127
1, 86372, Note_on_c, 1, 66, 127
1, 86378, Note_on_c, 1, 54, 127
1, 86478, Note_on_c, 1, 68, 127
1, 86486, Note_off_c, 1, 61, 0
1, 86499, Note_off_c, 1, 69, 0
1, 86501, Note_off_c, 1, 54, 0
1, 86526, Note_off_c, 1, 66, 0
1, 86595, Note_on_c, 1, 62, 127
1, 86595, Note_on_c, 1, 47, 127
1, 86599, Note_off_c, 1, 68, 0
1, 86680, Note_off_c, 1, 62, 0
1, 86690, Note_off_c, 1, 47, 0
1, 86716, Note_on_c, 1, 49, 127
1, 86720, Note_on_c, 1, 66, 127
1, 86721, Note_on_c, 1, 71, 127
1, 86723, Note_on_c, 1, 56, 127
1, 86825, Note_off_c, 1, 49, 0
1, 86842, Note_on_c, 1, 69, 127
1, 86845, Note_off_c, 1, 56, 0
1, 86855, Note_off_c, 1, 66, 0
1, 86895, Note_off_c, 1, 71, 0
1, 86940, Note_on_c, 1, 65, 127
1, 86945, Note_off_c, 1, 69, 0
1, 86951, Note_on_c, 1, 61, 127
1, 86959, Note_on_c, 1, 37, 127
1, 86975, Note_on_c, 1, 68, 127
1, 87011, Note_off_c, 1, 65, 0
1, 87031, Note_off_c, 1, 37, 0
1, 87041, Note_off_c, 1, 68, 0
1, 87049, Note_off_c, 1, 61, 0
1, 87085, Note_on_c, 1, 57, 127
1, 87092, Note_on_c, 1, 61, 127
1, 87099, Note_on_c, 1, 66, 127
1, 87107, Note_on_c, 1, 42, 127
1, 87215, Note_on_c, 1, 45, 127
1, 87221, Note_off_c, 1, 42, 0
1, 87322, Note_on_c, 1, 49, 127
1, 87337, Note_off_c, 1, 45, 0
1, 87392, Note_off_c, 1, 49, 0
1, 87450, Note_on_c, 1, 54, 127
1, 87508, Note_off_c, 1, 57, 0
1, 87531, Note_off_c, 1, 61, 0
1, 87551, Note_off_c, 1, 66, 0
1, 87552, Note_on_c, 1, 52, 127
1, 87563, Note_off_c, 1, 54, 0
1, 87648, Note_off_c, 1, 52, 0
1, 87672, Note_on_c, 1, 54, 127
1, 87691, Note_on_c, 1, 62, 127
1, 87696, Note_on_c, 1, 57, 127
1, 87703, Note_on_c, 1, 74, 127
1, 87703, Note_on_c, 1, 66, 127
1, 87703, Note_on_c, 1, 50, 127
1, 87713, Note_on_c, 1, 69, 127
1, 87721, Note_off_c, 1, 54, 0
1, 87746, Note_off_c, 1, 50, 0
1, 87756, Note_off_c, 1, 66, 0
1, 87759, Note_off_c, 1, 57, 0
1, 87763, Note_off_c, 1, 62, 0
1, 87766, Note_off_c, 1, 74, 0
1, 87770, Note_off_c, 1, 69, 0
1, 87817, Note_on_c, 1, 66, 127
1, 87817, Note_on_c, 1, 62, 127
1, 87817, Note_on_c, 1, 50, 127
1, 87823, Note_on_c, 1, 69, 127
1, 87829, Note_on_c, 1, 81, 127
1, 87837, Note_on_c, 1, 74, 127
1, 87920, Note_on_c, 1, 49, 127
1, 87945, Note_off_c, 1, 50, 0
1, 88003, Note_off_c, 1, 49, 0
1, 88038, Note_off_c, 1, 81, 0
1, 88054, Note_off_c, 1, 62, 0
1, 88089, Note_off_c, 1, 74, 0
1, 88095, Note_off_c, 1, 66, 0
1, 88098, Note_off_c, 1, 69, 0
1, 88110, Note_on_c, 1, 50, 127
1, 88145, Note_off_c, 1, 50, 0
1, 88163, Note_on_c, 1, 50, 127
1, 88180, Note_on_c, 1, 62, 127
1, 88183, Note_on_c, 1, 83, 127
1, 88183, Note_on_c, 1, 67, 127
1, 88187, Note_on_c, 1, 71, 127
1, 88203, Note_on_c, 1, 79, 127
1, 88267, Note_on_c, 1, 49, 127
1, 88311, Note_off_c, 1, 50, 0
1, 88364, Note_off_c, 1, 49, 0
1, 88372, Note_off_c, 1, 62, 0
1, 88388, Note_off_c, 1, 83, 0
1, 88412, Note_off_c, 1, 79, 0
1, 88415, Note_off_c, 1, 67, 0
1, 88435, Note_off_c, 1, 71, 0
1, 88498, Note_on_c, 1, 50, 127
1, 88531, Note_on_c, 1, 72, 127
1, 88531, Note_on_c, 1, 66, 127
1, 88536, Note_on_c, 1, 78, 127
1, 88541, Note_on_c, 1, 69, 127
1, 88543, Note_on_c, 1, 57, 127
1, 88548, Note_on_c, 1, 84, 127
1, 88634, Note_on_c, 1, 54, 127
1, 88675, Note_off_c, 1, 50, 0
1, 88753, Note_off_c, 1, 54, 0
1, 88869, Note_on_c, 1, 62, 127
1, 88957, Note_off_c, 1, 69, 0
1, 88968, Note_off_c, 1, 66, 0
1, 88975, Note_off_c, 1, 72, 0
1, 88981, Note_off_c, 1, 62, 0
1, 89008, Note_on_c, 1, 67, 127
1, 89015, Note_on_c, 1, 71, 127
1, 89018, Note_off_c, 1, 84, 0
1, 89021, Note_off_c, 1, 78, 0
1, 89023, Note_off_c, 1, 57, 0
1, 89063, Note_on_c, 1, 83, 127
1, 89089, Note_off_c, 1, 67, 0
1, 89093, Note_off_c, 1, 71, 0
1, 89119, Note_off_c, 1, 83, 0
1, 89147, Note_on_c, 1, 74, 127
1, 89167, Note_on_c, 1, 81, 127
1, 89200, Note_off_c, 1, 74, 0
1, 89223, Note_off_c, 1, 81, 0
1, 89228, Note_on_c, 1, 55, 127
1, 89253, Note_on_c, 1, 67, 127
1, 89255, Note_on_c, 1, 62, 127
1, 89265, Note_on_c, 1, 79, 127
1, 89270, Note_on_c, 1, 71, 127
1, 89273, Note_on_c, 1, 50, 127
1, 89286, Note_on_c, 1, 74, 127
1, 89291, Note_on_c, 1, 83, 127
1, 89342, Note_off_c, 1, 50, 0
1, 89362, Note_off_c, 1, 55, 0
1, 89387, Note_off_c, 1, 67, 0
1, 89397, Note_on_c, 1, 81, 127
1, 89400, Note_off_c, 1, 83, 0
1, 89404, Note_off_c, 1, 71, 0
1, 89415, Note_off_c, 1, 62, 0
1, 89467, Note_off_c, 1, 81, 0
1, 89477, Note_on_c, 1, 52, 127
1, 89505, Note_on_c, 1, 64, 127
1, 89566, Note_off_c, 1, 79, 0
1, 89566, Note_off_c, 1, 52, 0
1, 89573, Note_off_c, 1, 64, 0
1, 89607, Note_on_c, 1, 48, 127
1, 89619, Note_on_c, 1, 69, 127
1, 89622, Note_off_c, 1, 74, 0
1, 89727, Note_off_c, 1, 48, 0
1, 89745, Note_off_c, 1, 69, 0
1, 89848, Note_on_c, 1, 50, 127
1, 89850, Note_on_c, 1, 78, 127
1, 89854, Note_on_c, 1, 62, 127
1, 89861, Note_on_c, 1, 74, 127
1, 89862, Note_on_c, 1, 69, 127
1, 89909, Note_off_c, 1, 74, 0
1, 89919, Note_off_c, 1, 78, 0
1, 89921, Note_off_c, 1, 69, 0
1, 89922, Note_off_c, 1, 62, 0
1, 89929, Note_off_c, 1, 50, 0
1, 89978, Note_on_c, 1, 43, 127
1, 89979, Note_on_c, 1, 79, 127
1, 89988, Note_on_c, 1, 71, 127
1, 89988, Note_on_c, 1, 62, 127
1, 90002, Note_on_c, 1, 74, 127
1, 90004, Note_on_c, 1, 50, 127
1, 90086, Note_off_c, 1, 71, 0
1, 90088, Note_on_c, 1, 83, 127
1, 90089, Note_off_c, 1, 50, 0
1, 90169, Note_off_c, 1, 83, 0
1, 90202, Note_on_c, 1, 72, 127
1, 90214, Note_on_c, 1, 81, 127
1, 90268, Note_off_c, 1, 72, 0
1, 90288, Note_off_c, 1, 81, 0
1, 90310, Note_off_c, 1, 74, 0
1, 90351, Note_off_c, 1, 79, 0
1, 90394, Note_off_c, 1, 62, 0
1, 90419, Note_off_c, 1, 43, 0
1, 90459, Note_on_c, 1, 47, 127
1, 90480, Note_on_c, 1, 67, 127
1, 90560, Note_off_c, 1, 67, 0
1, 90579, Note_off_c, 1, 47, 0
1, 90589, Note_on_c, 1, 66, 127
1, 90669, Note_off_c, 1, 66, 0
1, 90689, Note_on_c, 1, 55, 127
1, 90710, Note_on_c, 1, 76, 127
1, 90820, Note_off_c, 1, 55, 0
1, 90863, Note_off_c, 1, 76, 0
1, 90945, Note_on_c, 1, 74, 127
1, 90949, Note_on_c, 1, 52, 127
1, 90956, Note_on_c, 1, 79, 127
1, 90960, Note_on_c, 1, 71, 127
1, 91013, Note_off_c, 1, 74, 0
1, 91020, Note_off_c, 1, 79, 0
1, 91035, Note_off_c, 1, 71, 0
1, 91038, Note_off_c, 1, 52, 0
1, 91073, Note_on_c, 1, 73, 127
1, 91080, Note_on_c, 1, 69, 127
1, 91083, Note_on_c, 1, 57, 127
1, 91085, Note_on_c, 1, 78, 127
1, 91194, Note_on_c, 1, 79, 127
1, 91226, Note_off_c, 1, 78, 0
1, 91227, Note_off_c, 1, 69, 0
1, 91267, Note_off_c, 1, 79, 0
1, 91307, Note_on_c, 1, 76, 127
1, 91310, Note_on_c, 1, 67, 127
1, 91380, Note_off_c, 1, 76, 0
1, 91393, Note_off_c, 1, 67, 0
1, 91442, Note_on_c, 1, 66, 127
1, 91485, Note_off_c, 1, 73, 0
1, 91507, Note_off_c, 1, 57, 0
1, 91552, Note_on_c, 1, 81, 127
1, 91590, Note_off_c, 1, 66, 0
1, 91632, Note_off_c, 1, 81, 0
1, 91648, Note_on_c, 1, 40, 127
1, 91651, Note_on_c, 1, 76, 127
1, 91664, Note_on_c, 1, 72, 127
1, 91668, Note_on_c, 1, 79, 127
1, 91712, Note_off_c, 1, 76, 0
1, 91726, Note_off_c, 1, 40, 0
1, 91751, Note_off_c, 1, 79, 0
1, 91752, Note_off_c, 1, 72, 0
1, 91782, Note_on_c, 1, 42, 127
1, 91793, Note_on_c, 1, 75, 127
1, 91795, Note_on_c, 1, 69, 127
1, 91800, Note_on_c, 1, 79, 127
1, 91877, Note_on_c, 1, 81, 127
1, 91888, Note_off_c, 1, 42, 0
1, 91889, Note_on_c, 1, 45, 127
1, 91909, Note_off_c, 1, 69, 0
1, 91913, Note_off_c, 1, 79, 0
1, 91949, Note_off_c, 1, 75, 0
1, 91997, Note_off_c, 1, 45, 0
1, 92000, Note_on_c, 1, 48, 127
1, 92027, Note_on_c, 1, 64, 127
1, 92030, Note_on_c, 1, 76, 127
1, 92096, Note_off_c, 1, 48, 0
1, 92103, Note_off_c, 1, 76, 0
1, 92126, Note_off_c, 1, 64, 0
1, 92159, Note_on_c, 1, 66, 127
1, 92159, Note_on_c, 1, 54, 127
1, 92249, Note_off_c, 1, 81, 0
1, 92269, Note_off_c, 1, 54, 0
1, 92312, Note_off_c, 1, 66, 0
1, 92391, Note_on_c, 1, 69, 127
1, 92391, Note_on_c, 1, 51, 127
1, 92394, Note_on_c, 1, 78, 127
1, 92469, Note_off_c, 1, 69, 0
1, 92474, Note_off_c, 1, 51, 0
1, 92474, Note_off_c, 1, 78, 0
1, 92511, Note_on_c, 1, 67, 127
1, 92522, Note_on_c, 1, 71, 127
1, 92530, Note_on_c, 1, 55, 127
1, 92538, Note_on_c, 1, 76, 127
1, 92642, Note_on_c, 1, 78, 127
1, 92674, Note_off_c, 1, 67, 0
1, 92676, Note_off_c, 1, 76, 0
1, 92714, Note_off_c, 1, 78, 0
1, 92744, Note_on_c, 1, 66, 127
1, 92759, Note_on_c, 1, 75, 127
1, 92820, Note_off_c, 1, 66, 0
1, 92824, Note_off_c, 1, 75, 0
1, 92874, Note_on_c, 1, 64, 127
1, 92986, Note_off_c, 1, 64, 0
1, 92992, Note_on_c, 1, 79, 127
1, 92999, Note_off_c, 1, 71, 0
1, 93015, Note_off_c, 1, 55, 0
1, 93069, Note_off_c, 1, 79, 0
1, 93088, Note_on_c, 1, 59, 127
1, 93102, Note_on_c, 1, 71, 127
1, 93102, Note_on_c, 1, 39, 127
1, 93115, Note_on_c, 1, 78, 127
1, 93166, Note_off_c, 1, 71, 0
1, 93178, Note_off_c, 1, 39, 0
1, 93178, Note_off_c, 1, 78, 0
1, 93194, Note_off_c, 1, 59, 0
1, 93224, Note_on_c, 1, 71, 127
1, 93231, Note_on_c, 1, 40, 127
1, 93246, Note_on_c, 1, 78, 127
1, 93317, Note_on_c, 1, 79, 127
1, 93325, Note_on_c, 1, 76, 127
1, 93329, Note_on_c, 1, 43, 127
1, 93338, Note_off_c, 1, 40, 0
1, 93360, Note_off_c, 1, 71, 0
1, 93362, Note_off_c, 1, 78, 0
1, 93400, Note_off_c, 1, 76, 0
1, 93400, Note_off_c, 1, 43, 0
1, 93434, Note_on_c, 1, 47, 127
1, 93448, Note_on_c, 1, 74, 127
1, 93458, Note_on_c, 1, 66, 127
1, 93520, Note_off_c, 1, 47, 0
1, 93524, Note_off_c, 1, 74, 0
1, 93562, Note_off_c, 1, 66, 0
1, 93571, Note_on_c, 1, 52, 127
1, 93574, Note_on_c, 1, 73, 127
1, 93583, Note_on_c, 1, 64, 127
1, 93677, Note_off_c, 1, 79, 0
1, 93694, Note_off_c, 1, 52, 0
1, 93711, Note_off_c, 1, 73, 0
1, 93741, Note_off_c, 1, 64, 0
1, 93814, Note_on_c, 1, 76, 127
1, 93829, Note_on_c, 1, 67, 127
1, 93829, Note_on_c, 1, 49, 127
1, 93902, Note_off_c, 1, 76, 0
1, 93906, Note_off_c, 1, 49, 0
1, 93916, Note_off_c, 1, 67, 0
1, 93944, Note_on_c, 1, 69, 127
1, 93950, Note_on_c, 1, 54, 127
1, 93953, Note_on_c, 1, 66, 127
1, 93961, Note_on_c, 1, 74, 127
1, 94064, Note_off_c, 1, 66, 0
1, 94069, Note_on_c, 1, 76, 127
1, 94099, Note_off_c, 1, 74, 0
1, 94152, Note_off_c, 1, 76, 0
1, 94176, Note_on_c, 1, 64, 127
1, 94190, Note_on_c, 1, 73, 127
1, 94249, Note_off_c, 1, 64, 0
1, 94258, Note_off_c, 1, 73, 0
1, 94309, Note_on_c, 1, 62, 127
1, 94437, Note_off_c, 1, 54, 0
1, 94438, Note_off_c, 1, 62, 0
1, 94440, Note_on_c, 1, 78, 127
1, 94448, Note_off_c, 1, 69, 0
1, 94518, Note_off_c, 1, 78, 0
1, 94542, Note_on_c, 1, 37, 127
1, 94543, Note_on_c, 1, 57, 127
1, 94546, Note_on_c, 1, 69, 127
1, 94558, Note_on_c, 1, 76, 127
1, 94618, Note_off_c, 1, 69, 0
1, 94620, Note_off_c, 1, 76, 0
1, 94625, Note_off_c, 1, 37, 0
1, 94627, Note_off_c, 1, 57, 0
1, 94667, Note_on_c, 1, 62, 127
1, 94673, Note_on_c, 1, 38, 127
1, 94675, Note_on_c, 1, 69, 127
1, 94687, Note_on_c, 1, 78, 127
1, 94782, Note_off_c, 1, 62, 0
1, 94784, Note_on_c, 1, 79, 127
1, 94797, Note_off_c, 1, 38, 0
1, 94800, Note_off_c, 1, 69, 0
1, 94809, Note_off_c, 1, 78, 0
1, 94866, Note_off_c, 1, 79, 0
1, 94900, Note_on_c, 1, 62, 127
1, 94900, Note_on_c, 1, 42, 127
1, 94909, Note_on_c, 1, 81, 127
1, 94918, Note_on_c, 1, 69, 127
1, 94962, Note_off_c, 1, 81, 0
1, 94975, Note_off_c, 1, 62, 0
1, 94984, Note_off_c, 1, 69, 0
1, 95004, Note_off_c, 1, 42, 0
1, 95027, Note_on_c, 1, 71, 127
1, 95028, Note_on_c, 1, 43, 127
1, 95031, Note_on_c, 1, 62, 127
1, 95036, Note_on_c, 1, 67, 127
1, 95142, Note_on_c, 1, 73, 127
1, 95155, Note_off_c, 1, 43, 0
1, 95162, Note_off_c, 1, 71, 0
1, 95196, Note_off_c, 1, 62, 0
1, 95216, Note_off_c, 1, 67, 0
1, 95223, Note_off_c, 1, 73, 0
1, 95253, Note_on_c, 1, 47, 127
1, 95258, Note_on_c, 1, 74, 127
1, 95326, Note_off_c, 1, 74, 0
1, 95336, Note_off_c, 1, 47, 0
1, 95362, Note_on_c, 1, 71, 127
1, 95377, Note_on_c, 1, 44, 127
1, 95389, Note_on_c, 1, 64, 127
1, 95394, Note_on_c, 1, 76, 127
1, 95501, Note_on_c, 1, 78, 127
1, 95504, Note_off_c, 1, 44, 0
1, 95514, Note_off_c, 1, 64, 0
1, 95525, Note_off_c, 1, 76, 0
1, 95534, Note_off_c, 1, 71, 0
1, 95584, Note_off_c, 1, 78, 0
1, 95597, Note_on_c, 1, 40, 127
1, 95617, Note_on_c, 1, 74, 127
1, 95680, Note_off_c, 1, 40, 0
1, 95687, Note_off_c, 1, 74, 0
1, 95733, Note_on_c, 1, 45, 127
1, 95735, Note_on_c, 1, 69, 127
1, 95736, Note_on_c, 1, 64, 127
1, 95750, Note_on_c, 1, 73, 127
1, 95848, Note_on_c, 1, 74, 127
1, 95872, Note_off_c, 1, 73, 0
1, 95880, Note_off_c, 1, 64, 0
1, 95884, Note_off_c, 1, 45, 0
1, 95889, Note_off_c, 1, 69, 0
1, 95940, Note_off_c, 1, 74, 0
1, 95957, Note_on_c, 1, 49, 127
1, 95970, Note_on_c, 1, 76, 127
1, 96036, Note_off_c, 1, 76, 0
1, 96054, Note_off_c, 1, 49, 0
1, 96082, Note_on_c, 1, 46, 127
1, 96086, Note_on_c, 1, 73, 127
1, 96102, Note_on_c, 1, 66, 127
1, 96103, Note_on_c, 1, 78, 127
1, 96217, Note_on_c, 1, 79, 127
1, 96218, Note_off_c, 1, 46, 0
1, 96240, Note_off_c, 1, 66, 0
1, 96247, Note_off_c, 1, 78, 0
1, 96248, Note_off_c, 1, 73, 0
1, 96295, Note_off_c, 1, 79, 0
1, 96326, Note_on_c, 1, 42, 127
1, 96336, Note_on_c, 1, 76, 127
1, 96397, Note_off_c, 1, 42, 0
1, 96397, Note_off_c, 1, 76, 0
1, 96452, Note_on_c, 1, 71, 127
1, 96459, Note_on_c, 1, 74, 127
1, 96467, Note_on_c, 1, 47, 127
1, 96470, Note_on_c, 1, 66, 127
1, 96570, Note_on_c, 1, 76, 127
1, 96592, Note_off_c, 1, 71, 0
1, 96601, Note_off_c, 1, 74, 0
1, 96606, Note_off_c, 1, 66, 0
1, 96622, Note_off_c, 1, 47, 0
1, 96662, Note_off_c, 1, 76, 0
1, 96692, Note_on_c, 1, 78, 127
1, 96702, Note_on_c, 1, 45, 127
1, 96767, Note_off_c, 1, 78, 0
1, 96796, Note_off_c, 1, 45, 0
1, 96804, Note_on_c, 1, 74, 127
1, 96821, Note_on_c, 1, 79, 127
1, 96826, Note_on_c, 1, 47, 127
1, 96829, Note_on_c, 1, 62, 127
1, 96937, Note_on_c, 1, 81, 127
1, 96957, Note_off_c, 1, 79, 0
1, 96960, Note_off_c, 1, 74, 0
1, 96967, Note_off_c, 1, 47, 0
1, 96967, Note_off_c, 1, 62, 0
1, 97020, Note_off_c, 1, 81, 0
1, 97059, Note_on_c, 1, 43, 127
1, 97063, Note_on_c, 1, 78, 127
1, 97132, Note_off_c, 1, 78, 0
1, 97144, Note_off_c, 1, 43, 0
1, 97162, Note_on_c, 1, 76, 127
1, 97185, Note_on_c, 1, 49, 127
1, 97190, Note_on_c, 1, 69, 127
1, 97287, Note_on_c, 1, 78, 127
1, 97329, Note_off_c, 1, 76, 0
1, 97332, Note_off_c, 1, 69, 0
1, 97353, Note_off_c, 1, 49, 0
1, 97373, Note_off_c, 1, 78, 0
1, 97416, Note_on_c, 1, 79, 127
1, 97430, Note_on_c, 1, 47, 127
1, 97484, Note_off_c, 1, 79, 0
1, 97518, Note_on_c, 1, 76, 127
1, 97525, Note_off_c, 1, 47, 0
1, 97544, Note_on_c, 1, 69, 127
1, 97548, Note_on_c, 1, 81, 127
1, 97556, Note_on_c, 1, 49, 127
1, 97627, Note_off_c, 1, 76, 0
1, 97643, Note_off_c, 1, 69, 0
1, 97654, Note_on_c, 1, 83, 127
1, 97679, Note_off_c, 1, 49, 0
1, 97681, Note_off_c, 1, 81, 0
1, 97742, Note_off_c, 1, 83, 0
1, 97774, Note_on_c, 1, 79, 127
1, 97796, Note_on_c, 1, 45, 127
1, 97833, Note_off_c, 1, 79, 0
1, 97844, Note_off_c, 1, 45, 0
1, 97876, Note_on_c, 1, 74, 127
1, 97886, Note_on_c, 1, 69, 127
1, 97904, Note_on_c, 1, 79, 127
1, 97914, Note_on_c, 1, 50, 127
1, 97980, Note_on_c, 1, 73, 127
1, 97985, Note_on_c, 1, 67, 127
1, 97994, Note_on_c, 1, 78, 127
1, 97997, Note_off_c, 1, 74, 0
1, 98002, Note_off_c, 1, 69, 0
1, 98008, Note_on_c, 1, 52, 127
1, 98035, Note_off_c, 1, 79, 0
1, 98036, Note_off_c, 1, 50, 0
1, 98070, Note_off_c, 1, 73, 0
1, 98086, Note_off_c, 1, 67, 0
1, 98088, Note_off_c, 1, 52, 0
1, 98126, Note_on_c, 1, 54, 127
1, 98155, Note_on_c, 1, 81, 127
1, 98199, Note_off_c, 1, 54, 0
1, 98208, Note_off_c, 1, 81, 0
1, 98235, Note_on_c, 1, 71, 127
1, 98250, Note_on_c, 1, 55, 127
1, 98267, Note_on_c, 1, 83, 127
1, 98275, Note_on_c, 1, 62, 127
1, 98327, Note_off_c, 1, 78, 0
1, 98349, Note_on_c, 1, 76, 127
1, 98353, Note_off_c, 1, 83, 0
1, 98375, Note_on_c, 1, 85, 127
1, 98388, Note_off_c, 1, 62, 0
1, 98397, Note_off_c, 1, 71, 0
1, 98439, Note_off_c, 1, 76, 0
1, 98445, Note_off_c, 1, 85, 0
1, 98479, Note_on_c, 1, 66, 127
1, 98491, Note_on_c, 1, 86, 127
1, 98548, Note_off_c, 1, 86, 0
1, 98551, Note_off_c, 1, 66, 0
1, 98616, Note_on_c, 1, 64, 127
1, 98758, Note_off_c, 1, 55, 0
1, 98770, Note_off_c, 1, 64, 0
1, 99192, Note_on_c, 1, 69, 127
1, 99194, Note_on_c, 1, 73, 127
1, 99202, Note_on_c, 1, 64, 127
1, 99206, Note_on_c, 1, 76, 127
1, 99207, Note_on_c, 1, 57, 127
1, 99216, Note_on_c, 1, 45, 127
1, 99265, Note_off_c, 1, 64, 0
1, 99268, Note_off_c, 1, 76, 0
1, 99277, Note_off_c, 1, 45, 0
1, 99280, Note_off_c, 1, 69, 0
1, 99280, Note_off_c, 1, 73, 0
1, 99290, Note_off_c, 1, 57, 0
1, 99325, Note_on_c, 1, 62, 127
1, 99337, Note_on_c, 1, 74, 127
1, 99340, Note_on_c, 1, 66, 127
1, 99345, Note_on_c, 1, 59, 127
1, 99350, Note_on_c, 1, 50, 127
1, 99442, Note_on_c, 1, 57, 127
1, 99451, Note_off_c, 1, 50, 0
1, 99466, Note_off_c, 1, 59, 0
1, 99510, Note_off_c, 1, 57, 0
1, 99568, Note_on_c, 1, 55, 127
1, 99625, Note_off_c, 1, 55, 0
1, 99686, Note_on_c, 1, 81, 127
1, 99701, Note_on_c, 1, 54, 127
1, 99716, Note_off_c, 1, 74, 0
1, 99724, Note_off_c, 1, 62, 0
1, 99742, Note_off_c, 1, 66, 0
1, 99832, Note_off_c, 1, 54, 0
1, 99911, Note_on_c, 1, 52, 127
1, 99928, Note_on_c, 1, 72, 127
1, 99970, Note_off_c, 1, 52, 0
1, 99992, Note_off_c, 1, 72, 0
1, 100052, Note_on_c, 1, 51, 127
1, 100077, Note_on_c, 1, 71, 127
1, 100128, Note_off_c, 1, 81, 0
1, 100180, Note_on_c, 1, 83, 127
1, 100198, Note_off_c, 1, 51, 0
1, 100261, Note_off_c, 1, 83, 0
1, 100423, Note_on_c, 1, 64, 127
1, 100436, Note_on_c, 1, 80, 127
1, 100537, Note_on_c, 1, 76, 127
1, 100572, Note_off_c, 1, 80, 0
1, 100633, Note_off_c, 1, 76, 0
1, 100667, Note_on_c, 1, 78, 127
1, 100719, Note_off_c, 1, 71, 0
1, 100736, Note_off_c, 1, 78, 0
1, 100775, Note_on_c, 1, 69, 127
1, 100775, Note_on_c, 1, 49, 127
1, 100789, Note_on_c, 1, 79, 127
1, 100925, Note_off_c, 1, 49, 0
1, 100930, Note_off_c, 1, 79, 0
1, 101090, Note_off_c, 1, 64, 0
1, 101135, Note_on_c, 1, 48, 127
1, 101320, Note_off_c, 1, 48, 0
1, 101435, Note_off_c, 1, 69, 0
1, 101502, Note_on_c, 1, 47, 127
1, 101506, Note_on_c, 1, 77, 127
1, 101506, Note_on_c, 1, 67, 127
1, 101650, Note_off_c, 1, 77, 0
1, 101673, Note_off_c, 1, 47, 0
1, 101847, Note_on_c, 1, 46, 127
1, 101849, Note_on_c, 1, 61, 127
1, 101978, Note_off_c, 1, 61, 0
1, 101983, Note_on_c, 1, 73, 127
1, 101994, Note_off_c, 1, 46, 0
1, 102072, Note_off_c, 1, 73, 0
1, 102211, Note_on_c, 1, 45, 127
1, 102608, Note_off_c, 1, 45, 0
1, 102682, Note_off_c, 1, 67, 0
1, 103154, Note_on_c, 1, 69, 127
1, 103160, Note_on_c, 1, 81, 127
1, 103162, Note_on_c, 1, 73, 127
1, 103167, Note_on_c, 1, 64, 127
1, 103223, Note_off_c, 1, 64, 0
1, 103245, Note_off_c, 1, 69, 0
1, 103250, Note_off_c, 1, 81, 0
1, 103254, Note_off_c, 1, 73, 0
1, 103281, Note_on_c, 1, 62, 127
1, 103290, Note_on_c, 1, 83, 127
1, 103291, Note_on_c, 1, 74, 127
1, 103293, Note_on_c, 1, 55, 127
1, 103394, Note_off_c, 1, 55, 0
1, 103402, Note_on_c, 1, 54, 127
1, 103406, Note_off_c, 1, 83, 0
1, 103415, Note_off_c, 1, 74, 0
1, 103417, Note_off_c, 1, 62, 0
1, 103485, Note_off_c, 1, 54, 0
1, 103510, Note_on_c, 1, 67, 127
1, 103513, Note_on_c, 1, 52, 127
1, 103524, Note_on_c, 1, 76, 127
1, 103530, Note_on_c, 1, 69, 127
1, 103530, Note_on_c, 1, 85, 127
1, 103538, Note_on_c, 1, 45, 127
1, 103564, Note_off_c, 1, 67, 0
1, 103581, Note_off_c, 1, 52, 0
1, 103586, Note_off_c, 1, 69, 0
1, 103599, Note_off_c, 1, 76, 0
1, 103599, Note_off_c, 1, 45, 0
1, 103611, Note_off_c, 1, 85, 0
1, 103645, Note_on_c, 1, 69, 127
1, 103647, Note_on_c, 1, 54, 127
1, 103652, Note_on_c, 1, 85, 127
1, 103654, Note_on_c, 1, 74, 127
1, 103659, Note_on_c, 1, 86, 127
1, 103660, Note_on_c, 1, 66, 127
1, 103664, Note_on_c, 1, 50, 127
1, 103666, Note_on_c, 1, 81, 127
1, 103741, Note_off_c, 1, 69, 0
1, 103741, Note_off_c, 1, 66, 0
1, 103743, Note_off_c, 1, 50, 0
1, 103765, Note_on_c, 1, 52, 127
1, 103770, Note_off_c, 1, 81, 0
1, 103773, Note_on_c, 1, 79, 127
1, 103778, Note_off_c, 1, 74, 0
1, 103785, Note_off_c, 1, 85, 0
1, 103786, Note_off_c, 1, 54, 0
1, 103834, Note_off_c, 1, 79, 0
1, 103843, Note_off_c, 1, 86, 0
1, 103857, Note_off_c, 1, 52, 0
1, 103877, Note_on_c, 1, 50, 127
1, 103880, Note_on_c, 1, 74, 127
1, 103884, Note_on_c, 1, 81, 127
1, 103894, Note_on_c, 1, 78, 127
1, 103952, Note_off_c, 1, 78, 0
1, 103955, Note_off_c, 1, 74, 0
1, 103967, Note_off_c, 1, 81, 0
1, 103991, Note_off_c, 1, 50, 0
1, 104003, Note_on_c, 1, 74, 127
1, 104010, Note_on_c, 1, 79, 127
1, 104013, Note_on_c, 1, 45, 127
1, 104018, Note_on_c, 1, 78, 127
1, 104018, Note_on_c, 1, 57, 127
1, 104030, Note_on_c, 1, 69, 127
1, 104073, Note_off_c, 1, 45, 0
1, 104094, Note_off_c, 1, 79, 0
1, 104122, Note_on_c, 1, 73, 127
1, 104126, Note_on_c, 1, 76, 127
1, 104131, Note_off_c, 1, 57, 0
1, 104140, Note_off_c, 1, 74, 0
1, 104142, Note_on_c, 1, 67, 127
1, 104149, Note_off_c, 1, 69, 0
1, 104161, Note_off_c, 1, 78, 0
1, 104203, Note_off_c, 1, 73, 0
1, 104217, Note_off_c, 1, 67, 0
1, 104229, Note_off_c, 1, 76, 0
1, 104232, Note_on_c, 1, 81, 127
1, 104233, Note_on_c, 1, 74, 127
1, 104237, Note_on_c, 1, 69, 127
1, 104237, Note_on_c, 1, 45, 127
1, 104253, Note_on_c, 1, 66, 127
1, 104281, Note_off_c, 1, 69, 0
1, 104292, Note_off_c, 1, 81, 0
1, 104314, Note_off_c, 1, 66, 0
1, 104329, Note_off_c, 1, 45, 0
1, 104343, Note_off_c, 1, 74, 0
1, 104351, Note_on_c, 1, 79, 127
1, 104362, Note_on_c, 1, 50, 127
1, 104369, Note_on_c, 1, 69, 127
1, 104373, Note_on_c, 1, 76, 127
1, 104383, Note_on_c, 1, 74, 127
1, 104387, Note_on_c, 1, 66, 127
1, 104421, Note_on_c, 1, 78, 127
1, 104422, Note_off_c, 1, 79, 0
1, 104467, Note_off_c, 1, 78, 0
1, 104485, Note_off_c, 1, 76, 0
1, 104803, Note_off_c, 1, 66, 0
1, 104876, Note_off_c, 1, 50, 0
1, 104896, Note_off_c, 1, 69, 0
1, 104995, Note_off_c, 1, 74, 0
1, 104995, End_track
0, 0, End_of_file