0, 0, Header, 1, 1, 480
1, 0, Start_track
1, 0, Title_t, "Test"
1, 0, Tempo, 500000
1, 0, Instrument_name_t, "Church Organ"
1, 576, Note_on_c, 1, 64, 127
1, 704, Note_off_c, 1, 64, 0
1, 768, Note_on_c, 1, 66, 127
1, 896, Note_off_c, 1, 66, 0
1, 960, Note_on_c, 1, 68, 127
1, 1088, Note_off_c, 1, 68, 0
1, 1152, Note_on_c, 1, 69, 127
1, 1152, Note_on_c, 1, 61, 127
1, 1152, Note_on_c, 1, 64, 127
1, 1152, Note_on_c, 1, 45, 127
1, 1152, Note_on_c, 1, 33, 127
1, 1344, Note_on_c, 1, 68, 127
1, 1408, Note_off_c, 1, 45, 0
1, 1408, Note_off_c, 1, 33, 0
1, 1532, Note_off_c, 1, 68, 0
1, 1916, Note_off_c, 1, 69, 0
1, 1916, Note_off_c, 1, 61, 0
1, 1916, Note_off_c, 1, 64, 0
1, 1920, Note_on_c, 1, 66, 127
1, 1920, Note_on_c, 1, 62, 127
1, 1920, Note_on_c, 1, 71, 127
1, 1920, Note_on_c, 1, 68, 127
1, 1920, Note_on_c, 1, 64, 127
1, 1920, Note_on_c, 1, 45, 127
1, 1920, Note_on_c, 1, 33, 127
1, 2048, Note_off_c, 1, 66, 0
1, 2176, Note_off_c, 1, 45, 0
1, 2176, Note_off_c, 1, 33, 0
1, 2300, Note_off_c, 1, 62, 0
1, 2300, Note_off_c, 1, 71, 0
1, 2300, Note_off_c, 1, 68, 0
1, 2300, Note_off_c, 1, 64, 0
1, 2304, Note_on_c, 1, 69, 127
1, 2304, Note_on_c, 1, 61, 127
1, 2304, Note_on_c, 1, 64, 127
1, 2304, Note_on_c, 1, 45, 127
1, 2304, Note_on_c, 1, 33, 127
1, 2496, Note_on_c, 1, 68, 127
1, 2560, Note_off_c, 1, 45, 0
1, 2560, Note_off_c, 1, 33, 0
1, 2684, Note_off_c, 1, 68, 0
1, 3068, Note_off_c, 1, 69, 0
1, 3068, Note_off_c, 1, 61, 0
1, 3068, Note_off_c, 1, 64, 0
1, 3072, Note_on_c, 1, 66, 127
1, 3072, Note_on_c, 1, 59, 127
1, 3072, Note_on_c, 1, 68, 127
1, 3072, Note_on_c, 1, 64, 127
1, 3072, Note_on_c, 1, 45, 127
1, 3072, Note_on_c, 1, 33, 127
1, 3200, Note_off_c, 1, 66, 0
1, 3328, Note_off_c, 1, 59, 0
1, 3328, Note_off_c, 1, 45, 0
1, 3328, Note_off_c, 1, 33, 0
1, 3452, Note_off_c, 1, 68, 0
1, 3452, Note_off_c, 1, 64, 0
1, 3456, Note_on_c, 1, 69, 127
1, 3456, Note_on_c, 1, 61, 127
1, 3456, Note_on_c, 1, 64, 127
1, 3456, Note_on_c, 1, 45, 127
1, 3456, Note_on_c, 1, 33, 127
1, 3648, Note_on_c, 1, 68, 127
1, 3648, Note_on_c, 1, 62, 127
1, 3712, Note_off_c, 1, 45, 0
1, 3712, Note_off_c, 1, 33, 0
1, 3836, Note_off_c, 1, 69, 0
1, 3836, Note_off_c, 1, 61, 0
1, 3836, Note_off_c, 1, 64, 0
1, 3836, Note_off_c, 1, 68, 0
1, 3836, Note_off_c, 1, 62, 0
1, 3840, Note_on_c, 1, 69, 127
1, 3840, Note_on_c, 1, 61, 127
1, 3840, Note_on_c, 1, 73, 127
1, 3840, Note_on_c, 1, 64, 127
1, 3840, Note_on_c, 1, 45, 127
1, 3840, Note_on_c, 1, 33, 127
1, 4028, Note_off_c, 1, 61, 0
1, 4032, Note_on_c, 1, 71, 127
1, 4032, Note_on_c, 1, 59, 127
1, 4096, Note_off_c, 1, 45, 0
1, 4096, Note_off_c, 1, 33, 0
1, 4220, Note_off_c, 1, 69, 0
1, 4220, Note_off_c, 1, 73, 0
1, 4220, Note_off_c, 1, 64, 0
1, 4220, Note_off_c, 1, 71, 0
1, 4220, Note_off_c, 1, 59, 0
1, 4224, Note_on_c, 1, 73, 127
1, 4224, Note_on_c, 1, 57, 127
1, 4224, Note_on_c, 1, 69, 127
1, 4224, Note_on_c, 1, 64, 127
1, 4224, Note_on_c, 1, 61, 127
1, 4224, Note_on_c, 1, 45, 127
1, 4224, Note_on_c, 1, 33, 127
1, 4412, Note_off_c, 1, 73, 0
1, 4412, Note_off_c, 1, 57, 0
1, 4416, Note_on_c, 1, 74, 127
1, 4416, Note_on_c, 1, 59, 127
1, 4480, Note_off_c, 1, 45, 0
1, 4480, Note_off_c, 1, 33, 0
1, 4604, Note_off_c, 1, 69, 0
1, 4604, Note_off_c, 1, 64, 0
1, 4604, Note_off_c, 1, 61, 0
1, 4604, Note_off_c, 1, 74, 0
1, 4604, Note_off_c, 1, 59, 0
1, 4608, Note_on_c, 1, 76, 127
1, 4608, Note_on_c, 1, 61, 127
1, 4608, Note_on_c, 1, 73, 127
1, 4608, Note_on_c, 1, 69, 127
1, 4608, Note_on_c, 1, 64, 127
1, 4608, Note_on_c, 1, 45, 127
1, 4608, Note_on_c, 1, 33, 127
1, 4796, Note_off_c, 1, 61, 0
1, 4800, Note_on_c, 1, 62, 127
1, 4864, Note_off_c, 1, 45, 0
1, 4864, Note_off_c, 1, 33, 0
1, 4988, Note_off_c, 1, 76, 0
1, 4988, Note_off_c, 1, 73, 0
1, 4988, Note_off_c, 1, 69, 0
1, 4988, Note_off_c, 1, 64, 0
1, 4988, Note_off_c, 1, 62, 0
1, 4992, Note_on_c, 1, 64, 127
1, 4992, Note_on_c, 1, 73, 127
1, 4992, Note_on_c, 1, 45, 127
1, 4992, Note_on_c, 1, 33, 127
1, 5120, Note_off_c, 1, 64, 0
1, 5180, Note_off_c, 1, 73, 0
1, 5184, Note_on_c, 1, 62, 127
1, 5184, Note_on_c, 1, 71, 127
1, 5248, Note_off_c, 1, 45, 0
1, 5248, Note_off_c, 1, 33, 0
1, 5312, Note_off_c, 1, 62, 0
1, 5372, Note_off_c, 1, 71, 0
1, 5376, Note_on_c, 1, 66, 127
1, 5376, Note_on_c, 1, 61, 127
1, 5376, Note_on_c, 1, 69, 127
1, 5376, Note_on_c, 1, 45, 127
1, 5376, Note_on_c, 1, 33, 127
1, 5504, Note_off_c, 1, 66, 0
1, 5504, Note_off_c, 1, 61, 0
1, 5564, Note_off_c, 1, 69, 0
1, 5568, Note_on_c, 1, 68, 127
1, 5568, Note_on_c, 1, 59, 127
1, 5632, Note_off_c, 1, 45, 0
1, 5632, Note_off_c, 1, 33, 0
1, 5696, Note_off_c, 1, 59, 0
1, 5756, Note_off_c, 1, 68, 0
1, 5760, Note_on_c, 1, 69, 127
1, 5760, Note_on_c, 1, 61, 127
1, 5760, Note_on_c, 1, 64, 127
1, 5760, Note_on_c, 1, 45, 127
1, 5760, Note_on_c, 1, 33, 127
1, 5952, Note_on_c, 1, 68, 127
1, 6016, Note_off_c, 1, 45, 0
1, 6016, Note_off_c, 1, 33, 0
1, 6140, Note_off_c, 1, 68, 0
1, 6524, Note_off_c, 1, 69, 0
1, 6524, Note_off_c, 1, 61, 0
1, 6524, Note_off_c, 1, 64, 0
1, 6528, Note_on_c, 1, 66, 127
1, 6528, Note_on_c, 1, 62, 127
1, 6528, Note_on_c, 1, 71, 127
1, 6528, Note_on_c, 1, 68, 127
1, 6528, Note_on_c, 1, 64, 127
1, 6528, Note_on_c, 1, 45, 127
1, 6528, Note_on_c, 1, 33, 127
1, 6656, Note_off_c, 1, 66, 0
1, 6784, Note_off_c, 1, 45, 0
1, 6784, Note_off_c, 1, 33, 0
1, 6908, Note_off_c, 1, 62, 0
1, 6908, Note_off_c, 1, 71, 0
1, 6908, Note_off_c, 1, 68, 0
1, 6908, Note_off_c, 1, 64, 0
1, 6912, Note_on_c, 1, 69, 127
1, 6912, Note_on_c, 1, 61, 127
1, 6912, Note_on_c, 1, 64, 127
1, 6912, Note_on_c, 1, 45, 127
1, 6912, Note_on_c, 1, 33, 127
1, 7104, Note_on_c, 1, 68, 127
1, 7168, Note_off_c, 1, 45, 0
1, 7168, Note_off_c, 1, 33, 0
1, 7292, Note_off_c, 1, 68, 0
1, 7676, Note_off_c, 1, 69, 0
1, 7676, Note_off_c, 1, 61, 0
1, 7676, Note_off_c, 1, 64, 0
1, 7680, Note_on_c, 1, 66, 127
1, 7680, Note_on_c, 1, 59, 127
1, 7680, Note_on_c, 1, 68, 127
1, 7680, Note_on_c, 1, 64, 127
1, 7680, Note_on_c, 1, 45, 127
1, 7680, Note_on_c, 1, 33, 127
1, 7808, Note_off_c, 1, 66, 0
1, 7936, Note_off_c, 1, 59, 0
1, 7936, Note_off_c, 1, 45, 0
1, 7936, Note_off_c, 1, 33, 0
1, 8060, Note_off_c, 1, 68, 0
1, 8060, Note_off_c, 1, 64, 0
1, 8064, Note_on_c, 1, 69, 127
1, 8064, Note_on_c, 1, 61, 127
1, 8064, Note_on_c, 1, 64, 127
1, 8064, Note_on_c, 1, 45, 127
1, 8064, Note_on_c, 1, 33, 127
1, 8256, Note_on_c, 1, 68, 127
1, 8256, Note_on_c, 1, 62, 127
1, 8320, Note_off_c, 1, 45, 0
1, 8320, Note_off_c, 1, 33, 0
1, 8444, Note_off_c, 1, 68, 0
1, 8444, Note_off_c, 1, 62, 0
1, 8576, Note_off_c, 1, 64, 0
1, 8636, Note_off_c, 1, 69, 0
1, 8636, Note_off_c, 1, 61, 0
1, 8640, Note_on_c, 1, 71, 127
1, 8640, Note_on_c, 1, 59, 127
1, 8828, Note_off_c, 1, 71, 0
1, 8828, Note_off_c, 1, 59, 0
1, 8832, Note_on_c, 1, 73, 127
1, 8832, Note_on_c, 1, 57, 127
1, 8832, Note_on_c, 1, 69, 127
1, 8832, Note_on_c, 1, 64, 127
1, 8832, Note_on_c, 1, 45, 127
1, 8832, Note_on_c, 1, 33, 127
1, 9020, Note_off_c, 1, 57, 0
1, 9024, Note_on_c, 1, 74, 127
1, 9024, Note_on_c, 1, 59, 127
1, 9088, Note_off_c, 1, 45, 0
1, 9088, Note_off_c, 1, 33, 0
1, 9212, Note_off_c, 1, 73, 0
1, 9212, Note_off_c, 1, 69, 0
1, 9212, Note_off_c, 1, 64, 0
1, 9212, Note_off_c, 1, 74, 0
1, 9212, Note_off_c, 1, 59, 0
1, 9216, Note_on_c, 1, 76, 127
1, 9216, Note_on_c, 1, 61, 127
1, 9216, Note_on_c, 1, 69, 127
1, 9216, Note_on_c, 1, 64, 127
1, 9216, Note_on_c, 1, 45, 127
1, 9216, Note_on_c, 1, 33, 127
1, 9344, Note_off_c, 1, 69, 0
1, 9344, Note_off_c, 1, 64, 0
1, 9344, Note_off_c, 1, 45, 0
1, 9344, Note_off_c, 1, 33, 0
1, 9404, Note_off_c, 1, 76, 0
1, 9404, Note_off_c, 1, 61, 0
1, 9408, Note_on_c, 1, 73, 127
1, 9408, Note_on_c, 1, 64, 127
1, 9408, Note_on_c, 1, 57, 127
1, 9408, Note_on_c, 1, 45, 127
1, 9472, Note_off_c, 1, 57, 0
1, 9472, Note_off_c, 1, 45, 0
1, 9504, Note_on_c, 1, 59, 127
1, 9504, Note_on_c, 1, 47, 127
1, 9536, Note_off_c, 1, 73, 0
1, 9536, Note_off_c, 1, 64, 0
1, 9568, Note_off_c, 1, 59, 0
1, 9568, Note_off_c, 1, 47, 0
1, 9600, Note_on_c, 1, 73, 127
1, 9600, Note_on_c, 1, 61, 127
1, 9600, Note_on_c, 1, 76, 127
1, 9600, Note_on_c, 1, 69, 127
1, 9600, Note_on_c, 1, 49, 127
1, 9728, Note_off_c, 1, 49, 0
1, 9788, Note_off_c, 1, 61, 0
1, 9792, Note_on_c, 1, 57, 127
1, 9792, Note_on_c, 1, 62, 127
1, 9792, Note_on_c, 1, 50, 127
1, 9856, Note_off_c, 1, 73, 0
1, 9856, Note_off_c, 1, 76, 0
1, 9920, Note_off_c, 1, 69, 0
1, 9920, Note_off_c, 1, 57, 0
1, 9920, Note_off_c, 1, 62, 0
1, 9920, Note_off_c, 1, 50, 0
1, 9984, Note_on_c, 1, 76, 127
1, 9984, Note_on_c, 1, 64, 127
1, 9984, Note_on_c, 1, 61, 127
1, 9984, Note_on_c, 1, 49, 127
1, 10172, Note_off_c, 1, 76, 0
1, 10172, Note_off_c, 1, 64, 0
1, 10172, Note_off_c, 1, 61, 0
1, 10172, Note_off_c, 1, 49, 0
1, 10176, Note_on_c, 1, 74, 127
1, 10176, Note_on_c, 1, 62, 127
1, 10176, Note_on_c, 1, 59, 127
1, 10176, Note_on_c, 1, 47, 127
1, 10304, Note_off_c, 1, 74, 0
1, 10304, Note_off_c, 1, 62, 0
1, 10304, Note_off_c, 1, 59, 0
1, 10304, Note_off_c, 1, 47, 0
1, 10368, Note_on_c, 1, 73, 127
1, 10368, Note_on_c, 1, 61, 127
1, 10368, Note_on_c, 1, 57, 127
1, 10368, Note_on_c, 1, 45, 127
1, 10624, Note_off_c, 1, 73, 0
1, 10624, Note_off_c, 1, 61, 0
1, 10624, Note_off_c, 1, 57, 0
1, 10624, Note_off_c, 1, 45, 0
1, 10752, Note_on_c, 1, 73, 127
1, 10752, Note_on_c, 1, 61, 127
1, 10752, Note_on_c, 1, 69, 127
1, 10752, Note_on_c, 1, 57, 127
1, 10752, Note_on_c, 1, 45, 127
1, 10880, Note_off_c, 1, 73, 0
1, 10880, Note_off_c, 1, 61, 0
1, 10880, Note_off_c, 1, 69, 0
1, 10944, Note_on_c, 1, 71, 127
1, 10944, Note_on_c, 1, 59, 127
1, 10944, Note_on_c, 1, 68, 127
1, 11008, Note_off_c, 1, 57, 0
1, 11008, Note_off_c, 1, 45, 0
1, 11008, Note_off_c, 1, 71, 0
1, 11008, Note_off_c, 1, 59, 0
1, 11008, Note_off_c, 1, 68, 0
1, 11040, Note_on_c, 1, 73, 127
1, 11040, Note_on_c, 1, 61, 127
1, 11040, Note_on_c, 1, 69, 127
1, 11104, Note_off_c, 1, 73, 0
1, 11104, Note_off_c, 1, 61, 0
1, 11104, Note_off_c, 1, 69, 0
1, 11136, Note_on_c, 1, 74, 127
1, 11136, Note_on_c, 1, 62, 127
1, 11136, Note_on_c, 1, 71, 127
1, 11136, Note_on_c, 1, 59, 127
1, 11136, Note_on_c, 1, 47, 127
1, 11264, Note_off_c, 1, 74, 0
1, 11264, Note_off_c, 1, 62, 0
1, 11264, Note_off_c, 1, 71, 0
1, 11264, Note_off_c, 1, 59, 0
1, 11264, Note_off_c, 1, 47, 0
1, 11328, Note_on_c, 1, 73, 127
1, 11328, Note_on_c, 1, 61, 127
1, 11328, Note_on_c, 1, 69, 127
1, 11328, Note_on_c, 1, 57, 127
1, 11328, Note_on_c, 1, 45, 127
1, 11456, Note_off_c, 1, 73, 0
1, 11456, Note_off_c, 1, 61, 0
1, 11456, Note_off_c, 1, 69, 0
1, 11456, Note_off_c, 1, 57, 0
1, 11456, Note_off_c, 1, 45, 0
1, 11520, Note_on_c, 1, 71, 127
1, 11520, Note_on_c, 1, 59, 127
1, 11520, Note_on_c, 1, 76, 127
1, 11520, Note_on_c, 1, 68, 127
1, 11520, Note_on_c, 1, 52, 127
1, 11520, Note_on_c, 1, 40, 127
1, 11648, Note_off_c, 1, 52, 0
1, 11648, Note_off_c, 1, 40, 0
1, 11712, Note_on_c, 1, 56, 127
1, 11712, Note_on_c, 1, 44, 127
1, 11776, Note_off_c, 1, 76, 0
1, 11776, Note_off_c, 1, 68, 0
1, 11840, Note_off_c, 1, 56, 0
1, 11840, Note_off_c, 1, 44, 0
1, 11900, Note_off_c, 1, 71, 0
1, 11900, Note_off_c, 1, 59, 0
1, 11904, Note_on_c, 1, 69, 127
1, 11904, Note_on_c, 1, 57, 127
1, 11904, Note_on_c, 1, 73, 127
1, 11904, Note_on_c, 1, 45, 127
1, 11968, Note_off_c, 1, 73, 0
1, 12000, Note_on_c, 1, 71, 127
1, 12064, Note_off_c, 1, 71, 0
1, 12160, Note_off_c, 1, 69, 0
1, 12160, Note_off_c, 1, 57, 0
1, 12160, Note_off_c, 1, 45, 0
1, 12192, Note_on_c, 1, 74, 127
1, 12256, Note_off_c, 1, 74, 0
1, 12288, Note_on_c, 1, 73, 127
1, 12288, Note_on_c, 1, 61, 127
1, 12288, Note_on_c, 1, 45, 127
1, 12288, Note_on_c, 1, 33, 127
1, 12416, Note_off_c, 1, 73, 0
1, 12416, Note_off_c, 1, 61, 0
1, 12416, Note_off_c, 1, 45, 0
1, 12416, Note_off_c, 1, 33, 0
1, 12480, Note_on_c, 1, 73, 127
1, 12480, Note_on_c, 1, 61, 127
1, 12480, Note_on_c, 1, 57, 127
1, 12480, Note_on_c, 1, 45, 127
1, 12544, Note_off_c, 1, 73, 0
1, 12544, Note_off_c, 1, 61, 0
1, 12544, Note_off_c, 1, 57, 0
1, 12544, Note_off_c, 1, 45, 0
1, 12576, Note_on_c, 1, 73, 127
1, 12576, Note_on_c, 1, 61, 127
1, 12576, Note_on_c, 1, 59, 127
1, 12576, Note_on_c, 1, 47, 127
1, 12640, Note_off_c, 1, 73, 0
1, 12640, Note_off_c, 1, 61, 0
1, 12640, Note_off_c, 1, 59, 0
1, 12640, Note_off_c, 1, 47, 0
1, 12672, Note_on_c, 1, 73, 127
1, 12672, Note_on_c, 1, 61, 127
1, 12672, Note_on_c, 1, 49, 127
1, 12800, Note_off_c, 1, 49, 0
1, 12860, Note_off_c, 1, 73, 0
1, 12860, Note_off_c, 1, 61, 0
1, 12864, Note_on_c, 1, 69, 127
1, 12864, Note_on_c, 1, 57, 127
1, 12864, Note_on_c, 1, 62, 127
1, 12864, Note_on_c, 1, 50, 127
1, 12992, Note_off_c, 1, 69, 0
1, 12992, Note_off_c, 1, 57, 0
1, 12992, Note_off_c, 1, 62, 0
1, 12992, Note_off_c, 1, 50, 0
1, 13056, Note_on_c, 1, 76, 127
1, 13056, Note_on_c, 1, 64, 127
1, 13056, Note_on_c, 1, 61, 127
1, 13056, Note_on_c, 1, 49, 127
1, 13244, Note_off_c, 1, 76, 0
1, 13244, Note_off_c, 1, 64, 0
1, 13244, Note_off_c, 1, 61, 0
1, 13244, Note_off_c, 1, 49, 0
1, 13248, Note_on_c, 1, 74, 127
1, 13248, Note_on_c, 1, 62, 127
1, 13248, Note_on_c, 1, 59, 127
1, 13248, Note_on_c, 1, 47, 127
1, 13376, Note_off_c, 1, 74, 0
1, 13376, Note_off_c, 1, 62, 0
1, 13376, Note_off_c, 1, 59, 0
1, 13376, Note_off_c, 1, 47, 0
1, 13440, Note_on_c, 1, 73, 127
1, 13440, Note_on_c, 1, 61, 127
1, 13440, Note_on_c, 1, 57, 127
1, 13440, Note_on_c, 1, 45, 127
1, 13696, Note_off_c, 1, 73, 0
1, 13696, Note_off_c, 1, 61, 0
1, 13696, Note_off_c, 1, 57, 0
1, 13696, Note_off_c, 1, 45, 0
1, 13824, Note_on_c, 1, 73, 127
1, 13824, Note_on_c, 1, 61, 127
1, 13824, Note_on_c, 1, 69, 127
1, 13824, Note_on_c, 1, 45, 127
1, 13824, Note_on_c, 1, 33, 127
1, 13952, Note_off_c, 1, 73, 0
1, 13952, Note_off_c, 1, 61, 0
1, 13952, Note_off_c, 1, 69, 0
1, 13952, Note_off_c, 1, 45, 0
1, 13952, Note_off_c, 1, 33, 0
1, 14016, Note_on_c, 1, 71, 127
1, 14016, Note_on_c, 1, 59, 127
1, 14016, Note_on_c, 1, 68, 127
1, 14016, Note_on_c, 1, 57, 127
1, 14016, Note_on_c, 1, 45, 127
1, 14080, Note_off_c, 1, 71, 0
1, 14080, Note_off_c, 1, 59, 0
1, 14080, Note_off_c, 1, 68, 0
1, 14112, Note_on_c, 1, 73, 127
1, 14112, Note_on_c, 1, 61, 127
1, 14112, Note_on_c, 1, 69, 127
1, 14144, Note_off_c, 1, 57, 0
1, 14144, Note_off_c, 1, 45, 0
1, 14176, Note_off_c, 1, 73, 0
1, 14176, Note_off_c, 1, 61, 0
1, 14176, Note_off_c, 1, 69, 0
1, 14208, Note_on_c, 1, 74, 127
1, 14208, Note_on_c, 1, 62, 127
1, 14208, Note_on_c, 1, 71, 127
1, 14208, Note_on_c, 1, 59, 127
1, 14208, Note_on_c, 1, 47, 127
1, 14336, Note_off_c, 1, 74, 0
1, 14336, Note_off_c, 1, 62, 0
1, 14336, Note_off_c, 1, 71, 0
1, 14336, Note_off_c, 1, 59, 0
1, 14336, Note_off_c, 1, 47, 0
1, 14400, Note_on_c, 1, 73, 127
1, 14400, Note_on_c, 1, 61, 127
1, 14400, Note_on_c, 1, 69, 127
1, 14400, Note_on_c, 1, 57, 127
1, 14400, Note_on_c, 1, 45, 127
1, 14528, Note_off_c, 1, 73, 0
1, 14528, Note_off_c, 1, 61, 0
1, 14528, Note_off_c, 1, 69, 0
1, 14528, Note_off_c, 1, 57, 0
1, 14528, Note_off_c, 1, 45, 0
1, 14592, Note_on_c, 1, 71, 127
1, 14592, Note_on_c, 1, 59, 127
1, 14592, Note_on_c, 1, 68, 127
1, 14592, Note_on_c, 1, 56, 127
1, 14592, Note_on_c, 1, 44, 127
1, 14780, Note_off_c, 1, 56, 0
1, 14780, Note_off_c, 1, 44, 0
1, 14784, Note_on_c, 1, 52, 127
1, 14784, Note_on_c, 1, 40, 127
1, 14848, Note_off_c, 1, 68, 0
1, 14912, Note_off_c, 1, 52, 0
1, 14912, Note_off_c, 1, 40, 0
1, 14972, Note_off_c, 1, 71, 0
1, 14972, Note_off_c, 1, 59, 0
1, 14976, Note_on_c, 1, 69, 127
1, 14976, Note_on_c, 1, 57, 127
1, 14976, Note_on_c, 1, 64, 127
1, 14976, Note_on_c, 1, 61, 127
1, 14976, Note_on_c, 1, 45, 127
1, 15232, Note_off_c, 1, 69, 0
1, 15232, Note_off_c, 1, 57, 0
1, 15232, Note_off_c, 1, 64, 0
1, 15232, Note_off_c, 1, 61, 0
1, 15232, Note_off_c, 1, 45, 0
1, 15360, Note_on_c, 1, 73, 127
1, 15360, Note_on_c, 1, 69, 127
1, 15360, Note_on_c, 1, 45, 127
1, 15360, Note_on_c, 1, 33, 127
1, 15488, Note_off_c, 1, 45, 0
1, 15488, Note_off_c, 1, 33, 0
1, 15552, Note_on_c, 1, 57, 127
1, 15740, Note_off_c, 1, 73, 0
1, 15740, Note_off_c, 1, 57, 0
1, 15744, Note_on_c, 1, 74, 127
1, 15744, Note_on_c, 1, 71, 127
1, 15744, Note_on_c, 1, 64, 127
1, 15744, Note_on_c, 1, 59, 127
1, 15744, Note_on_c, 1, 47, 127
1, 15932, Note_off_c, 1, 74, 0
1, 15932, Note_off_c, 1, 71, 0
1, 15932, Note_off_c, 1, 64, 0
1, 15932, Note_off_c, 1, 59, 0
1, 15932, Note_off_c, 1, 47, 0
1, 15936, Note_on_c, 1, 76, 127
1, 15936, Note_on_c, 1, 61, 127
1, 15936, Note_on_c, 1, 49, 127
1, 16124, Note_off_c, 1, 76, 0
1, 16124, Note_off_c, 1, 49, 0
1, 16316, Note_off_c, 1, 69, 0
1, 16316, Note_off_c, 1, 61, 0
1, 16320, Note_on_c, 1, 74, 127
1, 16320, Note_on_c, 1, 69, 127
1, 16320, Note_on_c, 1, 62, 127
1, 16320, Note_on_c, 1, 59, 127
1, 16320, Note_on_c, 1, 47, 127
1, 16508, Note_off_c, 1, 74, 0
1, 16508, Note_off_c, 1, 69, 0
1, 16508, Note_off_c, 1, 62, 0
1, 16508, Note_off_c, 1, 59, 0
1, 16508, Note_off_c, 1, 47, 0
1, 16512, Note_on_c, 1, 76, 127
1, 16512, Note_on_c, 1, 69, 127
1, 16512, Note_on_c, 1, 64, 127
1, 16512, Note_on_c, 1, 61, 127
1, 16512, Note_on_c, 1, 49, 127
1, 16700, Note_off_c, 1, 76, 0
1, 16892, Note_off_c, 1, 69, 0
1, 16892, Note_off_c, 1, 64, 0
1, 16892, Note_off_c, 1, 61, 0
1, 16892, Note_off_c, 1, 49, 0
1, 16896, Note_on_c, 1, 78, 127
1, 16896, Note_on_c, 1, 69, 127
1, 16896, Note_on_c, 1, 66, 127
1, 16896, Note_on_c, 1, 62, 127
1, 16896, Note_on_c, 1, 50, 127
1, 17084, Note_off_c, 1, 78, 0
1, 17084, Note_off_c, 1, 69, 0
1, 17084, Note_off_c, 1, 66, 0
1, 17084, Note_off_c, 1, 62, 0
1, 17084, Note_off_c, 1, 50, 0
1, 17088, Note_on_c, 1, 76, 127
1, 17088, Note_on_c, 1, 69, 127
1, 17088, Note_on_c, 1, 64, 127
1, 17088, Note_on_c, 1, 61, 127
1, 17088, Note_on_c, 1, 49, 127
1, 17216, Note_off_c, 1, 61, 0
1, 17216, Note_off_c, 1, 49, 0
1, 17280, Note_on_c, 1, 57, 127
1, 17280, Note_on_c, 1, 45, 127
1, 17372, Note_off_c, 1, 76, 0
1, 17376, Note_on_c, 1, 62, 127
1, 17408, Note_off_c, 1, 57, 0
1, 17408, Note_off_c, 1, 45, 0
1, 17468, Note_off_c, 1, 69, 0
1, 17468, Note_off_c, 1, 64, 0
1, 17468, Note_off_c, 1, 62, 0
1, 17472, Note_on_c, 1, 69, 127
1, 17472, Note_on_c, 1, 61, 127
1, 17472, Note_on_c, 1, 73, 127
1, 17472, Note_on_c, 1, 64, 127
1, 17472, Note_on_c, 1, 45, 127
1, 17472, Note_on_c, 1, 33, 127
1, 17564, Note_off_c, 1, 61, 0
1, 17568, Note_on_c, 1, 71, 127
1, 17568, Note_on_c, 1, 59, 127
1, 17600, Note_off_c, 1, 45, 0
1, 17600, Note_off_c, 1, 33, 0
1, 17660, Note_off_c, 1, 69, 0
1, 17660, Note_off_c, 1, 73, 0
1, 17660, Note_off_c, 1, 64, 0
1, 17660, Note_off_c, 1, 71, 0
1, 17660, Note_off_c, 1, 59, 0
1, 17664, Note_on_c, 1, 73, 127
1, 17664, Note_on_c, 1, 57, 127
1, 17664, Note_on_c, 1, 69, 127
1, 17664, Note_on_c, 1, 45, 127
1, 17664, Note_on_c, 1, 33, 127
1, 17792, Note_off_c, 1, 45, 0
1, 17792, Note_off_c, 1, 33, 0
1, 18044, Note_off_c, 1, 73, 0
1, 18044, Note_off_c, 1, 69, 0
1, 18048, Note_on_c, 1, 74, 127
1, 18048, Note_on_c, 1, 71, 127
1, 18048, Note_on_c, 1, 64, 127
1, 18048, Note_on_c, 1, 59, 127
1, 18048, Note_on_c, 1, 47, 127
1, 18236, Note_off_c, 1, 74, 0
1, 18236, Note_off_c, 1, 71, 0
1, 18236, Note_off_c, 1, 64, 0
1, 18236, Note_off_c, 1, 59, 0
1, 18236, Note_off_c, 1, 47, 0
1, 18240, Note_on_c, 1, 76, 127
1, 18240, Note_on_c, 1, 61, 127
1, 18240, Note_on_c, 1, 49, 127
1, 18428, Note_off_c, 1, 76, 0
1, 18428, Note_off_c, 1, 49, 0
1, 18620, Note_off_c, 1, 57, 0
1, 18620, Note_off_c, 1, 61, 0
1, 18624, Note_on_c, 1, 74, 127
1, 18624, Note_on_c, 1, 57, 127
1, 18624, Note_on_c, 1, 62, 127
1, 18624, Note_on_c, 1, 69, 127
1, 18624, Note_on_c, 1, 59, 127
1, 18624, Note_on_c, 1, 47, 127
1, 18752, Note_off_c, 1, 57, 0
1, 18812, Note_off_c, 1, 74, 0
1, 18812, Note_off_c, 1, 62, 0
1, 18812, Note_off_c, 1, 69, 0
1, 18812, Note_off_c, 1, 59, 0
1, 18812, Note_off_c, 1, 47, 0
1, 18816, Note_on_c, 1, 76, 127
1, 18816, Note_on_c, 1, 57, 127
1, 18816, Note_on_c, 1, 64, 127
1, 18816, Note_on_c, 1, 69, 127
1, 18816, Note_on_c, 1, 61, 127
1, 18816, Note_on_c, 1, 49, 127
1, 19004, Note_off_c, 1, 76, 0
1, 19072, Note_off_c, 1, 57, 0
1, 19196, Note_off_c, 1, 64, 0
1, 19196, Note_off_c, 1, 69, 0
1, 19196, Note_off_c, 1, 61, 0
1, 19196, Note_off_c, 1, 49, 0
1, 19200, Note_on_c, 1, 78, 127
1, 19200, Note_on_c, 1, 57, 127
1, 19200, Note_on_c, 1, 69, 127
1, 19200, Note_on_c, 1, 66, 127
1, 19200, Note_on_c, 1, 62, 127
1, 19200, Note_on_c, 1, 50, 127
1, 19328, Note_off_c, 1, 57, 0
1, 19388, Note_off_c, 1, 78, 0
1, 19388, Note_off_c, 1, 69, 0
1, 19388, Note_off_c, 1, 66, 0
1, 19388, Note_off_c, 1, 62, 0
1, 19388, Note_off_c, 1, 50, 0
1, 19392, Note_on_c, 1, 76, 127
1, 19392, Note_on_c, 1, 57, 127
1, 19392, Note_on_c, 1, 69, 127
1, 19392, Note_on_c, 1, 64, 127
1, 19392, Note_on_c, 1, 61, 127
1, 19392, Note_on_c, 1, 49, 127
1, 19520, Note_off_c, 1, 61, 0
1, 19520, Note_off_c, 1, 49, 0
1, 19580, Note_off_c, 1, 57, 0
1, 19584, Note_on_c, 1, 45, 127
1, 19676, Note_off_c, 1, 76, 0
1, 19712, Note_off_c, 1, 45, 0
1, 19772, Note_off_c, 1, 69, 0
1, 19772, Note_off_c, 1, 64, 0
1, 19776, Note_on_c, 1, 73, 127
1, 19776, Note_on_c, 1, 64, 127
1, 19776, Note_on_c, 1, 69, 127
1, 19776, Note_on_c, 1, 57, 127
1, 19776, Note_on_c, 1, 45, 127
1, 19872, Note_on_c, 1, 76, 127
1, 19904, Note_off_c, 1, 57, 0
1, 19904, Note_off_c, 1, 45, 0
1, 19964, Note_off_c, 1, 73, 0
1, 19964, Note_off_c, 1, 64, 0
1, 19964, Note_off_c, 1, 69, 0
1, 19964, Note_off_c, 1, 76, 0
1, 19968, Note_on_c, 1, 74, 127
1, 19968, Note_on_c, 1, 56, 127
1, 19968, Note_on_c, 1, 71, 127
1, 19968, Note_on_c, 1, 64, 127
1, 19968, Note_on_c, 1, 68, 127
1, 19968, Note_on_c, 1, 59, 127
1, 19968, Note_on_c, 1, 47, 127
1, 20156, Note_off_c, 1, 56, 0
1, 20156, Note_off_c, 1, 59, 0
1, 20156, Note_off_c, 1, 47, 0
1, 20160, Note_on_c, 1, 44, 127
1, 20224, Note_off_c, 1, 71, 0
1, 20224, Note_off_c, 1, 64, 0
1, 20224, Note_off_c, 1, 68, 0
1, 20288, Note_off_c, 1, 44, 0
1, 20348, Note_off_c, 1, 74, 0
1, 20352, Note_on_c, 1, 71, 127
1, 20352, Note_on_c, 1, 64, 127
1, 20352, Note_on_c, 1, 76, 127
1, 20352, Note_on_c, 1, 56, 127
1, 20352, Note_on_c, 1, 44, 127
1, 20448, Note_on_c, 1, 74, 127
1, 20480, Note_off_c, 1, 71, 0
1, 20480, Note_off_c, 1, 76, 0
1, 20480, Note_off_c, 1, 56, 0
1, 20480, Note_off_c, 1, 44, 0
1, 20540, Note_off_c, 1, 64, 0
1, 20540, Note_off_c, 1, 74, 0
1, 20544, Note_on_c, 1, 73, 127
1, 20544, Note_on_c, 1, 57, 127
1, 20544, Note_on_c, 1, 76, 127
1, 20544, Note_on_c, 1, 69, 127
1, 20544, Note_on_c, 1, 45, 127
1, 20732, Note_off_c, 1, 57, 0
1, 20732, Note_off_c, 1, 45, 0
1, 20736, Note_on_c, 1, 61, 127
1, 20736, Note_on_c, 1, 33, 127
1, 20800, Note_off_c, 1, 76, 0
1, 20800, Note_off_c, 1, 69, 0
1, 20924, Note_off_c, 1, 73, 0
1, 20924, Note_off_c, 1, 61, 0
1, 20924, Note_off_c, 1, 33, 0
1, 20928, Note_on_c, 1, 69, 127
1, 20928, Note_on_c, 1, 64, 127
1, 20928, Note_on_c, 1, 61, 127
1, 20928, Note_on_c, 1, 49, 127
1, 20928, Note_on_c, 1, 37, 127
1, 21024, Note_on_c, 1, 73, 127
1, 21056, Note_off_c, 1, 69, 0
1, 21056, Note_off_c, 1, 61, 0
1, 21116, Note_off_c, 1, 64, 0
1, 21116, Note_off_c, 1, 49, 0
1, 21116, Note_off_c, 1, 37, 0
1, 21116, Note_off_c, 1, 73, 0
1, 21120, Note_on_c, 1, 71, 127
1, 21120, Note_on_c, 1, 66, 127
1, 21120, Note_on_c, 1, 50, 127
1, 21120, Note_on_c, 1, 38, 127
1, 21308, Note_off_c, 1, 71, 0
1, 21308, Note_off_c, 1, 66, 0
1, 21308, Note_off_c, 1, 50, 0
1, 21308, Note_off_c, 1, 38, 0
1, 21312, Note_on_c, 1, 69, 127
1, 21312, Note_on_c, 1, 64, 127
1, 21312, Note_on_c, 1, 49, 127
1, 21312, Note_on_c, 1, 37, 127
1, 21404, Note_off_c, 1, 49, 0
1, 21404, Note_off_c, 1, 37, 0
1, 21408, Note_on_c, 1, 50, 127
1, 21408, Note_on_c, 1, 38, 127
1, 21500, Note_off_c, 1, 69, 0
1, 21500, Note_off_c, 1, 64, 0
1, 21500, Note_off_c, 1, 50, 0
1, 21500, Note_off_c, 1, 38, 0
1, 21504, Note_on_c, 1, 68, 127
1, 21504, Note_on_c, 1, 62, 127
1, 21504, Note_on_c, 1, 52, 127
1, 21504, Note_on_c, 1, 40, 127
1, 21692, Note_off_c, 1, 68, 0
1, 21692, Note_off_c, 1, 62, 0
1, 21692, Note_off_c, 1, 52, 0
1, 21692, Note_off_c, 1, 40, 0
1, 21696, Note_on_c, 1, 69, 127
1, 21696, Note_on_c, 1, 61, 127
1, 21696, Note_on_c, 1, 64, 127
1, 21696, Note_on_c, 1, 45, 127
1, 21696, Note_on_c, 1, 33, 127
1, 21824, Note_off_c, 1, 64, 0
1, 21884, Note_off_c, 1, 61, 0
1, 21888, Note_on_c, 1, 59, 127
1, 21888, Note_on_c, 1, 73, 127
1, 21952, Note_off_c, 1, 45, 0
1, 21952, Note_off_c, 1, 33, 0
1, 21952, Note_off_c, 1, 73, 0
1, 21980, Note_off_c, 1, 69, 0
1, 21984, Note_on_c, 1, 76, 127
1, 22048, Note_off_c, 1, 76, 0
1, 22076, Note_off_c, 1, 59, 0
1, 22080, Note_on_c, 1, 73, 127
1, 22080, Note_on_c, 1, 57, 127
1, 22080, Note_on_c, 1, 81, 127
1, 22080, Note_on_c, 1, 45, 127
1, 22172, Note_off_c, 1, 73, 0
1, 22176, Note_on_c, 1, 76, 127
1, 22208, Note_off_c, 1, 81, 0
1, 22208, Note_off_c, 1, 45, 0
1, 22268, Note_off_c, 1, 57, 0
1, 22268, Note_off_c, 1, 76, 0
1, 22272, Note_on_c, 1, 74, 127
1, 22272, Note_on_c, 1, 56, 127
1, 22272, Note_on_c, 1, 71, 127
1, 22272, Note_on_c, 1, 64, 127
1, 22272, Note_on_c, 1, 68, 127
1, 22272, Note_on_c, 1, 59, 127
1, 22272, Note_on_c, 1, 47, 127
1, 22460, Note_off_c, 1, 56, 0
1, 22460, Note_off_c, 1, 59, 0
1, 22460, Note_off_c, 1, 47, 0
1, 22464, Note_on_c, 1, 44, 127
1, 22528, Note_off_c, 1, 71, 0
1, 22528, Note_off_c, 1, 64, 0
1, 22528, Note_off_c, 1, 68, 0
1, 22592, Note_off_c, 1, 44, 0
1, 22652, Note_off_c, 1, 74, 0
1, 22656, Note_on_c, 1, 71, 127
1, 22656, Note_on_c, 1, 64, 127
1, 22656, Note_on_c, 1, 76, 127
1, 22656, Note_on_c, 1, 56, 127
1, 22656, Note_on_c, 1, 44, 127
1, 22752, Note_on_c, 1, 74, 127
1, 22784, Note_off_c, 1, 71, 0
1, 22784, Note_off_c, 1, 76, 0
1, 22784, Note_off_c, 1, 56, 0
1, 22784, Note_off_c, 1, 44, 0
1, 22844, Note_off_c, 1, 64, 0
1, 22844, Note_off_c, 1, 74, 0
1, 22848, Note_on_c, 1, 73, 127
1, 22848, Note_on_c, 1, 57, 127
1, 22848, Note_on_c, 1, 76, 127
1, 22848, Note_on_c, 1, 69, 127
1, 22848, Note_on_c, 1, 45, 127
1, 23036, Note_off_c, 1, 57, 0
1, 23036, Note_off_c, 1, 45, 0
1, 23040, Note_on_c, 1, 61, 127
1, 23040, Note_on_c, 1, 33, 127
1, 23104, Note_off_c, 1, 76, 0
1, 23104, Note_off_c, 1, 69, 0
1, 23228, Note_off_c, 1, 73, 0
1, 23228, Note_off_c, 1, 61, 0
1, 23228, Note_off_c, 1, 33, 0
1, 23232, Note_on_c, 1, 69, 127
1, 23232, Note_on_c, 1, 64, 127
1, 23232, Note_on_c, 1, 61, 127
1, 23232, Note_on_c, 1, 49, 127
1, 23232, Note_on_c, 1, 37, 127
1, 23328, Note_on_c, 1, 73, 127
1, 23360, Note_off_c, 1, 69, 0
1, 23360, Note_off_c, 1, 61, 0
1, 23420, Note_off_c, 1, 64, 0
1, 23420, Note_off_c, 1, 49, 0
1, 23420, Note_off_c, 1, 37, 0
1, 23420, Note_off_c, 1, 73, 0
1, 23424, Note_on_c, 1, 71, 127
1, 23424, Note_on_c, 1, 66, 127
1, 23424, Note_on_c, 1, 50, 127
1, 23424, Note_on_c, 1, 38, 127
1, 23612, Note_off_c, 1, 71, 0
1, 23612, Note_off_c, 1, 66, 0
1, 23612, Note_off_c, 1, 50, 0
1, 23612, Note_off_c, 1, 38, 0
1, 23616, Note_on_c, 1, 69, 127
1, 23616, Note_on_c, 1, 64, 127
1, 23616, Note_on_c, 1, 49, 127
1, 23616, Note_on_c, 1, 37, 127
1, 23708, Note_off_c, 1, 49, 0
1, 23708, Note_off_c, 1, 37, 0
1, 23712, Note_on_c, 1, 50, 127
1, 23712, Note_on_c, 1, 38, 127
1, 23804, Note_off_c, 1, 69, 0
1, 23804, Note_off_c, 1, 64, 0
1, 23804, Note_off_c, 1, 50, 0
1, 23804, Note_off_c, 1, 38, 0
1, 23808, Note_on_c, 1, 68, 127
1, 23808, Note_on_c, 1, 62, 127
1, 23808, Note_on_c, 1, 52, 127
1, 23808, Note_on_c, 1, 40, 127
1, 23996, Note_off_c, 1, 68, 0
1, 23996, Note_off_c, 1, 62, 0
1, 23996, Note_off_c, 1, 52, 0
1, 23996, Note_off_c, 1, 40, 0
1, 24000, Note_on_c, 1, 69, 127
1, 24000, Note_on_c, 1, 61, 127
1, 24000, Note_on_c, 1, 64, 127
1, 24000, Note_on_c, 1, 45, 127
1, 24000, Note_on_c, 1, 33, 127
1, 24128, Note_off_c, 1, 64, 0
1, 24256, Note_off_c, 1, 61, 0
1, 24256, Note_off_c, 1, 45, 0
1, 24256, Note_off_c, 1, 33, 0
1, 24284, Note_off_c, 1, 69, 0
1, 24384, Note_on_c, 1, 80, 127
1, 24384, Note_on_c, 1, 71, 127
1, 24384, Note_on_c, 1, 68, 127
1, 24384, Note_on_c, 1, 64, 127
1, 24384, Note_on_c, 1, 52, 127
1, 24384, Note_on_c, 1, 40, 127
1, 24448, Note_off_c, 1, 80, 0
1, 24480, Note_on_c, 1, 81, 127
1, 24512, Note_off_c, 1, 71, 0
1, 24512, Note_off_c, 1, 68, 0
1, 24512, Note_off_c, 1, 64, 0
1, 24512, Note_off_c, 1, 52, 0
1, 24512, Note_off_c, 1, 40, 0
1, 24544, Note_off_c, 1, 81, 0
1, 24576, Note_on_c, 1, 83, 127
1, 24576, Note_on_c, 1, 76, 127
1, 24576, Note_on_c, 1, 68, 127
1, 24576, Note_on_c, 1, 52, 127
1, 24576, Note_on_c, 1, 40, 127
1, 24704, Note_off_c, 1, 83, 0
1, 24704, Note_off_c, 1, 52, 0
1, 24704, Note_off_c, 1, 40, 0
1, 24768, Note_on_c, 1, 80, 127
1, 24768, Note_on_c, 1, 64, 127
1, 24832, Note_off_c, 1, 76, 0
1, 24832, Note_off_c, 1, 68, 0
1, 24832, Note_off_c, 1, 64, 0
1, 24864, Note_on_c, 1, 66, 127
1, 24896, Note_off_c, 1, 80, 0
1, 24928, Note_off_c, 1, 66, 0
1, 24960, Note_on_c, 1, 76, 127
1, 24960, Note_on_c, 1, 68, 127
1, 24960, Note_on_c, 1, 71, 127
1, 24960, Note_on_c, 1, 69, 127
1, 24960, Note_on_c, 1, 63, 127
1, 24960, Note_on_c, 1, 66, 127
1, 24960, Note_on_c, 1, 47, 127
1, 24960, Note_on_c, 1, 35, 127
1, 25024, Note_off_c, 1, 68, 0
1, 25088, Note_off_c, 1, 76, 0
1, 25088, Note_off_c, 1, 47, 0
1, 25088, Note_off_c, 1, 35, 0
1, 25152, Note_on_c, 1, 78, 127
1, 25216, Note_off_c, 1, 71, 0
1, 25216, Note_off_c, 1, 69, 0
1, 25216, Note_off_c, 1, 63, 0
1, 25216, Note_off_c, 1, 66, 0
1, 25216, Note_off_c, 1, 78, 0
1, 25248, Note_on_c, 1, 75, 127
1, 25312, Note_off_c, 1, 75, 0
1, 25344, Note_on_c, 1, 76, 127
1, 25344, Note_on_c, 1, 68, 127
1, 25344, Note_on_c, 1, 71, 127
1, 25344, Note_on_c, 1, 64, 127
1, 25344, Note_on_c, 1, 52, 127
1, 25344, Note_on_c, 1, 40, 127
1, 25440, Note_on_c, 1, 69, 127
1, 25472, Note_off_c, 1, 76, 0
1, 25504, Note_off_c, 1, 69, 0
1, 25600, Note_off_c, 1, 68, 0
1, 25600, Note_off_c, 1, 64, 0
1, 25600, Note_off_c, 1, 52, 0
1, 25600, Note_off_c, 1, 40, 0
1, 25664, Note_off_c, 1, 71, 0
1, 25728, Note_on_c, 1, 64, 127
1, 25728, Note_on_c, 1, 68, 127
1, 25792, Note_off_c, 1, 68, 0
1, 25824, Note_on_c, 1, 66, 127
1, 25856, Note_off_c, 1, 64, 0
1, 25888, Note_off_c, 1, 66, 0
1, 25920, Note_on_c, 1, 80, 127
1, 25920, Note_on_c, 1, 64, 127
1, 25920, Note_on_c, 1, 76, 127
1, 25920, Note_on_c, 1, 68, 127
1, 25920, Note_on_c, 1, 52, 127
1, 25920, Note_on_c, 1, 40, 127
1, 25984, Note_off_c, 1, 80, 0
1, 25984, Note_off_c, 1, 64, 0
1, 26016, Note_on_c, 1, 81, 127
1, 26016, Note_on_c, 1, 66, 127
1, 26048, Note_off_c, 1, 76, 0
1, 26048, Note_off_c, 1, 68, 0
1, 26048, Note_off_c, 1, 52, 0
1, 26048, Note_off_c, 1, 40, 0
1, 26080, Note_off_c, 1, 81, 0
1, 26080, Note_off_c, 1, 66, 0
1, 26112, Note_on_c, 1, 83, 127
1, 26112, Note_on_c, 1, 68, 127
1, 26112, Note_on_c, 1, 76, 127
1, 26112, Note_on_c, 1, 71, 127
1, 26112, Note_on_c, 1, 52, 127
1, 26112, Note_on_c, 1, 40, 127
1, 26208, Note_on_c, 1, 66, 127
1, 26240, Note_off_c, 1, 83, 0
1, 26240, Note_off_c, 1, 52, 0
1, 26240, Note_off_c, 1, 40, 0
1, 26272, Note_off_c, 1, 66, 0
1, 26304, Note_on_c, 1, 80, 127
1, 26304, Note_on_c, 1, 64, 127
1, 26368, Note_off_c, 1, 68, 0
1, 26368, Note_off_c, 1, 76, 0
1, 26368, Note_off_c, 1, 71, 0
1, 26368, Note_off_c, 1, 64, 0
1, 26432, Note_off_c, 1, 80, 0
1, 26496, Note_on_c, 1, 76, 127
1, 26496, Note_on_c, 1, 68, 127
1, 26496, Note_on_c, 1, 64, 127
1, 26496, Note_on_c, 1, 71, 127
1, 26496, Note_on_c, 1, 69, 127
1, 26496, Note_on_c, 1, 47, 127
1, 26496, Note_on_c, 1, 35, 127
1, 26560, Note_off_c, 1, 68, 0
1, 26624, Note_off_c, 1, 76, 0
1, 26624, Note_off_c, 1, 64, 0
1, 26624, Note_off_c, 1, 47, 0
1, 26624, Note_off_c, 1, 35, 0
1, 26688, Note_on_c, 1, 78, 127
1, 26688, Note_on_c, 1, 66, 127
1, 26688, Note_on_c, 1, 63, 127
1, 26752, Note_off_c, 1, 71, 0
1, 26752, Note_off_c, 1, 69, 0
1, 26752, Note_off_c, 1, 78, 0
1, 26752, Note_off_c, 1, 66, 0
1, 26784, Note_on_c, 1, 75, 127
1, 26816, Note_off_c, 1, 63, 0
1, 26848, Note_off_c, 1, 75, 0
1, 26880, Note_on_c, 1, 76, 127
1, 26880, Note_on_c, 1, 68, 127
1, 26880, Note_on_c, 1, 71, 127
1, 26880, Note_on_c, 1, 64, 127
1, 26880, Note_on_c, 1, 52, 127
1, 26880, Note_on_c, 1, 40, 127
1, 27008, Note_off_c, 1, 52, 0
1, 27008, Note_off_c, 1, 40, 0
1, 27136, Note_off_c, 1, 71, 0
1, 27136, Note_off_c, 1, 64, 0
1, 27200, Note_off_c, 1, 68, 0
1, 27264, Note_off_c, 1, 76, 0
1, 27264, Note_on_c, 1, 83, 127
1, 27328, Note_off_c, 1, 83, 0
1, 27360, Note_on_c, 1, 66, 127
1, 27360, Note_on_c, 1, 81, 127
1, 27424, Note_off_c, 1, 66, 0
1, 27424, Note_off_c, 1, 81, 0
1, 27456, Note_on_c, 1, 80, 127
1, 27456, Note_on_c, 1, 64, 127
1, 27456, Note_on_c, 1, 52, 127
1, 27456, Note_on_c, 1, 40, 127
1, 27520, Note_off_c, 1, 80, 0
1, 27520, Note_off_c, 1, 64, 0
1, 27552, Note_on_c, 1, 81, 127
1, 27552, Note_on_c, 1, 66, 127
1, 27552, Note_on_c, 1, 78, 127
1, 27584, Note_off_c, 1, 52, 0
1, 27584, Note_off_c, 1, 40, 0
1, 27616, Note_off_c, 1, 81, 0
1, 27616, Note_off_c, 1, 66, 0
1, 27616, Note_off_c, 1, 78, 0
1, 27648, Note_on_c, 1, 83, 127
1, 27648, Note_on_c, 1, 68, 127
1, 27648, Note_on_c, 1, 76, 127
1, 27648, Note_on_c, 1, 52, 127
1, 27648, Note_on_c, 1, 40, 127
1, 27776, Note_off_c, 1, 83, 0
1, 27776, Note_off_c, 1, 52, 0
1, 27776, Note_off_c, 1, 40, 0
1, 27840, Note_on_c, 1, 80, 127
1, 27840, Note_on_c, 1, 71, 127
1, 27904, Note_off_c, 1, 68, 0
1, 27904, Note_off_c, 1, 76, 0
1, 27968, Note_off_c, 1, 80, 0
1, 27968, Note_off_c, 1, 71, 0
1, 28032, Note_on_c, 1, 76, 127
1, 28032, Note_on_c, 1, 68, 127
1, 28032, Note_on_c, 1, 71, 127
1, 28032, Note_on_c, 1, 69, 127
1, 28032, Note_on_c, 1, 63, 127
1, 28032, Note_on_c, 1, 66, 127
1, 28032, Note_on_c, 1, 47, 127
1, 28032, Note_on_c, 1, 35, 127
1, 28160, Note_off_c, 1, 76, 0
1, 28160, Note_off_c, 1, 68, 0
1, 28160, Note_off_c, 1, 47, 0
1, 28160, Note_off_c, 1, 35, 0
1, 28224, Note_on_c, 1, 78, 127
1, 28288, Note_off_c, 1, 71, 0
1, 28288, Note_off_c, 1, 69, 0
1, 28288, Note_off_c, 1, 63, 0
1, 28288, Note_off_c, 1, 66, 0
1, 28288, Note_off_c, 1, 78, 0
1, 28320, Note_on_c, 1, 75, 127
1, 28384, Note_off_c, 1, 75, 0
1, 28416, Note_on_c, 1, 76, 127
1, 28416, Note_on_c, 1, 68, 127
1, 28416, Note_on_c, 1, 71, 127
1, 28416, Note_on_c, 1, 64, 127
1, 28416, Note_on_c, 1, 52, 127
1, 28416, Note_on_c, 1, 40, 127
1, 28544, Note_off_c, 1, 76, 0
1, 28608, Note_on_c, 1, 69, 127
1, 28672, Note_off_c, 1, 68, 0
1, 28672, Note_off_c, 1, 64, 0
1, 28672, Note_off_c, 1, 52, 0
1, 28672, Note_off_c, 1, 40, 0
1, 28672, Note_off_c, 1, 69, 0
1, 28704, Note_on_c, 1, 66, 127
1, 28736, Note_off_c, 1, 71, 0
1, 28768, Note_off_c, 1, 66, 0
1, 28800, Note_on_c, 1, 64, 127
1, 28800, Note_on_c, 1, 68, 127
1, 28928, Note_off_c, 1, 64, 0
1, 28928, Note_off_c, 1, 68, 0
1, 28992, Note_on_c, 1, 80, 127
1, 28992, Note_on_c, 1, 71, 127
1, 28992, Note_on_c, 1, 76, 127
1, 28992, Note_on_c, 1, 68, 127
1, 28992, Note_on_c, 1, 52, 127
1, 28992, Note_on_c, 1, 40, 127
1, 29056, Note_off_c, 1, 80, 0
1, 29088, Note_on_c, 1, 81, 127
1, 29120, Note_off_c, 1, 71, 0
1, 29120, Note_off_c, 1, 76, 0
1, 29120, Note_off_c, 1, 68, 0
1, 29120, Note_off_c, 1, 52, 0
1, 29120, Note_off_c, 1, 40, 0
1, 29152, Note_off_c, 1, 81, 0
1, 29184, Note_on_c, 1, 83, 127
1, 29184, Note_on_c, 1, 68, 127
1, 29184, Note_on_c, 1, 76, 127
1, 29184, Note_on_c, 1, 71, 127
1, 29184, Note_on_c, 1, 52, 127
1, 29184, Note_on_c, 1, 40, 127
1, 29312, Note_off_c, 1, 83, 0
1, 29312, Note_off_c, 1, 52, 0
1, 29312, Note_off_c, 1, 40, 0
1, 29376, Note_on_c, 1, 80, 127
1, 29440, Note_off_c, 1, 68, 0
1, 29440, Note_off_c, 1, 76, 0
1, 29504, Note_off_c, 1, 71, 0
1, 29504, Note_off_c, 1, 80, 0
1, 29568, Note_on_c, 1, 76, 127
1, 29568, Note_on_c, 1, 68, 127
1, 29568, Note_on_c, 1, 64, 127
1, 29568, Note_on_c, 1, 71, 127
1, 29568, Note_on_c, 1, 69, 127
1, 29568, Note_on_c, 1, 47, 127
1, 29568, Note_on_c, 1, 35, 127
1, 29696, Note_off_c, 1, 76, 0
1, 29696, Note_off_c, 1, 68, 0
1, 29696, Note_off_c, 1, 64, 0
1, 29696, Note_off_c, 1, 47, 0
1, 29696, Note_off_c, 1, 35, 0
1, 29760, Note_on_c, 1, 78, 127
1, 29760, Note_on_c, 1, 63, 127
1, 29824, Note_off_c, 1, 71, 0
1, 29824, Note_off_c, 1, 69, 0
1, 29824, Note_off_c, 1, 78, 0
1, 29856, Note_on_c, 1, 75, 127
1, 29856, Note_on_c, 1, 66, 127
1, 29888, Note_off_c, 1, 63, 0
1, 29920, Note_off_c, 1, 75, 0
1, 29920, Note_off_c, 1, 66, 0
1, 29952, Note_on_c, 1, 76, 127
1, 29952, Note_on_c, 1, 68, 127
1, 29952, Note_on_c, 1, 71, 127
1, 29952, Note_on_c, 1, 64, 127
1, 29952, Note_on_c, 1, 52, 127
1, 29952, Note_on_c, 1, 40, 127
1, 30080, Note_off_c, 1, 52, 0
1, 30080, Note_off_c, 1, 40, 0
1, 30144, Note_on_c, 1, 28, 127
1, 30208, Note_off_c, 1, 71, 0
1, 30208, Note_off_c, 1, 64, 0
1, 30272, Note_off_c, 1, 28, 0
1, 30336, Note_off_c, 1, 76, 0
1, 30464, Note_off_c, 1, 68, 0
1, 30528, Note_on_c, 1, 71, 127
1, 30592, Note_off_c, 1, 71, 0
1, 30624, Note_on_c, 1, 73, 127
1, 30688, Note_off_c, 1, 73, 0
1, 30720, Note_on_c, 1, 74, 127
1, 30720, Note_on_c, 1, 68, 127
1, 30720, Note_on_c, 1, 64, 127
1, 30720, Note_on_c, 1, 71, 127
1, 30720, Note_on_c, 1, 52, 127
1, 30720, Note_on_c, 1, 40, 127
1, 30848, Note_off_c, 1, 74, 0
1, 30848, Note_off_c, 1, 68, 0
1, 30848, Note_off_c, 1, 64, 0
1, 30848, Note_off_c, 1, 71, 0
1, 30848, Note_off_c, 1, 52, 0
1, 30848, Note_off_c, 1, 40, 0
1, 30912, Note_on_c, 1, 71, 127
1, 30912, Note_on_c, 1, 68, 127
1, 30912, Note_on_c, 1, 52, 127
1, 30912, Note_on_c, 1, 40, 127
1, 30976, Note_off_c, 1, 71, 0
1, 30976, Note_off_c, 1, 68, 0
1, 31008, Note_on_c, 1, 69, 127
1, 31008, Note_on_c, 1, 66, 127
1, 31040, Note_off_c, 1, 52, 0
1, 31040, Note_off_c, 1, 40, 0
1, 31072, Note_off_c, 1, 69, 0
1, 31072, Note_off_c, 1, 66, 0
1, 31104, Note_on_c, 1, 71, 127
1, 31104, Note_on_c, 1, 68, 127
1, 31104, Note_on_c, 1, 76, 127
1, 31104, Note_on_c, 1, 52, 127
1, 31104, Note_on_c, 1, 40, 127
1, 31232, Note_off_c, 1, 68, 0
1, 31232, Note_off_c, 1, 76, 0
1, 31232, Note_off_c, 1, 52, 0
1, 31232, Note_off_c, 1, 40, 0
1, 31296, Note_on_c, 1, 59, 127
1, 31360, Note_off_c, 1, 71, 0
1, 31360, Note_off_c, 1, 59, 0
1, 31392, Note_on_c, 1, 61, 127
1, 31456, Note_off_c, 1, 61, 0
1, 31488, Note_on_c, 1, 83, 127
1, 31488, Note_on_c, 1, 62, 127
1, 31488, Note_on_c, 1, 74, 127
1, 31488, Note_on_c, 1, 71, 127
1, 31488, Note_on_c, 1, 68, 127
1, 31488, Note_on_c, 1, 52, 127
1, 31488, Note_on_c, 1, 40, 127
1, 31616, Note_off_c, 1, 83, 0
1, 31616, Note_off_c, 1, 62, 0
1, 31616, Note_off_c, 1, 74, 0
1, 31616, Note_off_c, 1, 71, 0
1, 31616, Note_off_c, 1, 68, 0
1, 31616, Note_off_c, 1, 52, 0
1, 31616, Note_off_c, 1, 40, 0
1, 31680, Note_on_c, 1, 71, 127
1, 31680, Note_on_c, 1, 56, 127
1, 31680, Note_on_c, 1, 52, 127
1, 31680, Note_on_c, 1, 40, 127
1, 31744, Note_off_c, 1, 71, 0
1, 31744, Note_off_c, 1, 56, 0
1, 31776, Note_on_c, 1, 69, 127
1, 31776, Note_on_c, 1, 54, 127
1, 31808, Note_off_c, 1, 52, 0
1, 31808, Note_off_c, 1, 40, 0
1, 31840, Note_off_c, 1, 69, 0
1, 31840, Note_off_c, 1, 54, 0
1, 31872, Note_on_c, 1, 71, 127
1, 31872, Note_on_c, 1, 56, 127
1, 31872, Note_on_c, 1, 74, 127
1, 31872, Note_on_c, 1, 64, 127
1, 31872, Note_on_c, 1, 52, 127
1, 31872, Note_on_c, 1, 40, 127
1, 32000, Note_off_c, 1, 71, 0
1, 32000, Note_off_c, 1, 56, 0
1, 32000, Note_off_c, 1, 74, 0
1, 32000, Note_off_c, 1, 64, 0
1, 32000, Note_off_c, 1, 52, 0
1, 32000, Note_off_c, 1, 40, 0
1, 32064, Note_on_c, 1, 74, 127
1, 32064, Note_on_c, 1, 52, 127
1, 32192, Note_off_c, 1, 74, 0
1, 32192, Note_off_c, 1, 52, 0
1, 32256, Note_on_c, 1, 73, 127
1, 32256, Note_on_c, 1, 64, 127
1, 32256, Note_on_c, 1, 69, 127
1, 32256, Note_on_c, 1, 57, 127
1, 32256, Note_on_c, 1, 45, 127
1, 32448, Note_on_c, 1, 71, 127
1, 32448, Note_on_c, 1, 62, 127
1, 32512, Note_off_c, 1, 73, 0
1, 32512, Note_off_c, 1, 64, 0
1, 32512, Note_off_c, 1, 69, 0
1, 32512, Note_off_c, 1, 57, 0
1, 32512, Note_off_c, 1, 45, 0
1, 32512, Note_off_c, 1, 71, 0
1, 32512, Note_off_c, 1, 62, 0
1, 32544, Note_on_c, 1, 69, 127
1, 32544, Note_on_c, 1, 61, 127
1, 32608, Note_off_c, 1, 69, 0
1, 32608, Note_off_c, 1, 61, 0
1, 32640, Note_on_c, 1, 71, 127
1, 32640, Note_on_c, 1, 62, 127
1, 32640, Note_on_c, 1, 68, 127
1, 32640, Note_on_c, 1, 64, 127
1, 32640, Note_on_c, 1, 59, 127
1, 32640, Note_on_c, 1, 52, 127
1, 32640, Note_on_c, 1, 40, 127
1, 32768, Note_off_c, 1, 71, 0
1, 32768, Note_off_c, 1, 62, 0
1, 32896, Note_off_c, 1, 64, 0
1, 32896, Note_off_c, 1, 52, 0
1, 32896, Note_off_c, 1, 40, 0
1, 32960, Note_off_c, 1, 68, 0
1, 32960, Note_off_c, 1, 59, 0
1, 33024, Note_on_c, 1, 69, 127
1, 33024, Note_on_c, 1, 61, 127
1, 33024, Note_on_c, 1, 64, 127
1, 33024, Note_on_c, 1, 45, 127
1, 33024, Note_on_c, 1, 33, 127
1, 33152, Note_off_c, 1, 45, 0
1, 33152, Note_off_c, 1, 33, 0
1, 33216, Note_on_c, 1, 62, 127
1, 33280, Note_off_c, 1, 62, 0
1, 33312, Note_on_c, 1, 59, 127
1, 33376, Note_off_c, 1, 59, 0
1, 33408, Note_off_c, 1, 69, 0
1, 33408, Note_off_c, 1, 64, 0
1, 33408, Note_on_c, 1, 57, 127
1, 33536, Note_off_c, 1, 61, 0
1, 33536, Note_off_c, 1, 57, 0
1, 33600, Note_on_c, 1, 68, 127
1, 33664, Note_off_c, 1, 68, 0
1, 33696, Note_on_c, 1, 69, 127
1, 33760, Note_off_c, 1, 69, 0
1, 33792, Note_on_c, 1, 71, 127
1, 33792, Note_on_c, 1, 68, 127
1, 33792, Note_on_c, 1, 64, 127
1, 33792, Note_on_c, 1, 52, 127
1, 33792, Note_on_c, 1, 40, 127
1, 33920, Note_off_c, 1, 71, 0
1, 33920, Note_off_c, 1, 68, 0
1, 33920, Note_off_c, 1, 64, 0
1, 33920, Note_off_c, 1, 52, 0
1, 33920, Note_off_c, 1, 40, 0
1, 33984, Note_on_c, 1, 71, 127
1, 33984, Note_on_c, 1, 68, 127
1, 33984, Note_on_c, 1, 52, 127
1, 33984, Note_on_c, 1, 40, 127
1, 34048, Note_off_c, 1, 71, 0
1, 34048, Note_off_c, 1, 68, 0
1, 34080, Note_on_c, 1, 69, 127
1, 34080, Note_on_c, 1, 66, 127
1, 34112, Note_off_c, 1, 52, 0
1, 34112, Note_off_c, 1, 40, 0
1, 34144, Note_off_c, 1, 69, 0
1, 34144, Note_off_c, 1, 66, 0
1, 34176, Note_on_c, 1, 71, 127
1, 34176, Note_on_c, 1, 68, 127
1, 34176, Note_on_c, 1, 76, 127
1, 34176, Note_on_c, 1, 52, 127
1, 34176, Note_on_c, 1, 40, 127
1, 34304, Note_off_c, 1, 68, 0
1, 34304, Note_off_c, 1, 76, 0
1, 34304, Note_off_c, 1, 52, 0
1, 34304, Note_off_c, 1, 40, 0
1, 34432, Note_off_c, 1, 71, 0
1, 34464, Note_on_c, 1, 69, 127
1, 34528, Note_off_c, 1, 69, 0
1, 34560, Note_on_c, 1, 74, 127
1, 34560, Note_on_c, 1, 71, 127
1, 34560, Note_on_c, 1, 68, 127
1, 34560, Note_on_c, 1, 52, 127
1, 34560, Note_on_c, 1, 40, 127
1, 34688, Note_off_c, 1, 74, 0
1, 34688, Note_off_c, 1, 71, 0
1, 34688, Note_off_c, 1, 68, 0
1, 34688, Note_off_c, 1, 52, 0
1, 34688, Note_off_c, 1, 40, 0
1, 34752, Note_on_c, 1, 71, 127
1, 34752, Note_on_c, 1, 74, 127
1, 34752, Note_on_c, 1, 52, 127
1, 34752, Note_on_c, 1, 40, 127
1, 34816, Note_off_c, 1, 71, 0
1, 34816, Note_off_c, 1, 74, 0
1, 34848, Note_on_c, 1, 69, 127
1, 34848, Note_on_c, 1, 73, 127
1, 34880, Note_off_c, 1, 52, 0
1, 34880, Note_off_c, 1, 40, 0
1, 34912, Note_off_c, 1, 69, 0
1, 34912, Note_off_c, 1, 73, 0
1, 34944, Note_on_c, 1, 71, 127
1, 34944, Note_on_c, 1, 74, 127
1, 34944, Note_on_c, 1, 64, 127
1, 34944, Note_on_c, 1, 52, 127
1, 34944, Note_on_c, 1, 40, 127
1, 35072, Note_off_c, 1, 71, 0
1, 35072, Note_off_c, 1, 74, 0
1, 35072, Note_off_c, 1, 64, 0
1, 35072, Note_off_c, 1, 52, 0
1, 35072, Note_off_c, 1, 40, 0
1, 35136, Note_on_c, 1, 76, 127
1, 35136, Note_on_c, 1, 68, 127
1, 35264, Note_off_c, 1, 76, 0
1, 35264, Note_off_c, 1, 68, 0
1, 35328, Note_on_c, 1, 73, 127
1, 35328, Note_on_c, 1, 64, 127
1, 35328, Note_on_c, 1, 69, 127
1, 35328, Note_on_c, 1, 57, 127
1, 35328, Note_on_c, 1, 45, 127
1, 35520, Note_on_c, 1, 71, 127
1, 35520, Note_on_c, 1, 62, 127
1, 35584, Note_off_c, 1, 73, 0
1, 35584, Note_off_c, 1, 64, 0
1, 35584, Note_off_c, 1, 69, 0
1, 35584, Note_off_c, 1, 57, 0
1, 35584, Note_off_c, 1, 45, 0
1, 35584, Note_off_c, 1, 71, 0
1, 35584, Note_off_c, 1, 62, 0
1, 35616, Note_on_c, 1, 69, 127
1, 35616, Note_on_c, 1, 61, 127
1, 35680, Note_off_c, 1, 69, 0
1, 35680, Note_off_c, 1, 61, 0
1, 35712, Note_on_c, 1, 71, 127
1, 35712, Note_on_c, 1, 62, 127
1, 35712, Note_on_c, 1, 68, 127
1, 35712, Note_on_c, 1, 64, 127
1, 35712, Note_on_c, 1, 59, 127
1, 35712, Note_on_c, 1, 52, 127
1, 35712, Note_on_c, 1, 40, 127
1, 35840, Note_off_c, 1, 71, 0
1, 35840, Note_off_c, 1, 62, 0
1, 35968, Note_off_c, 1, 64, 0
1, 35968, Note_off_c, 1, 52, 0
1, 35968, Note_off_c, 1, 40, 0
1, 36032, Note_off_c, 1, 68, 0
1, 36032, Note_off_c, 1, 59, 0
1, 36096, Note_on_c, 1, 69, 127
1, 36096, Note_on_c, 1, 57, 127
1, 36096, Note_on_c, 1, 64, 127
1, 36096, Note_on_c, 1, 45, 127
1, 36096, Note_on_c, 1, 33, 127
1, 36224, Note_off_c, 1, 69, 0
1, 36224, Note_off_c, 1, 57, 0
1, 36224, Note_off_c, 1, 64, 0
1, 36224, Note_off_c, 1, 45, 0
1, 36224, Note_off_c, 1, 33, 0
1, 36288, Note_on_c, 1, 69, 127
1, 36288, Note_on_c, 1, 57, 127
1, 36288, Note_on_c, 1, 45, 127
1, 36380, Note_off_c, 1, 69, 0
1, 36380, Note_off_c, 1, 57, 0
1, 36380, Note_off_c, 1, 45, 0
1, 36384, Note_on_c, 1, 71, 127
1, 36384, Note_on_c, 1, 59, 127
1, 36384, Note_on_c, 1, 47, 127
1, 36476, Note_off_c, 1, 71, 0
1, 36476, Note_off_c, 1, 59, 0
1, 36476, Note_off_c, 1, 47, 0
1, 36480, Note_on_c, 1, 72, 127
1, 36480, Note_on_c, 1, 60, 127
1, 36480, Note_on_c, 1, 48, 127
1, 36668, Note_off_c, 1, 72, 0
1, 36668, Note_off_c, 1, 60, 0
1, 36668, Note_off_c, 1, 48, 0
1, 36672, Note_on_c, 1, 71, 127
1, 36672, Note_on_c, 1, 59, 127
1, 36672, Note_on_c, 1, 47, 127
1, 36860, Note_off_c, 1, 71, 0
1, 36860, Note_off_c, 1, 59, 0
1, 36860, Note_off_c, 1, 47, 0
1, 36864, Note_on_c, 1, 69, 127
1, 36864, Note_on_c, 1, 57, 127
1, 36864, Note_on_c, 1, 45, 127
1, 37052, Note_off_c, 1, 69, 0
1, 37052, Note_off_c, 1, 57, 0
1, 37052, Note_off_c, 1, 45, 0
1, 37056, Note_on_c, 1, 67, 127
1, 37056, Note_on_c, 1, 55, 127
1, 37056, Note_on_c, 1, 43, 127
1, 37244, Note_off_c, 1, 67, 0
1, 37244, Note_off_c, 1, 55, 0
1, 37244, Note_off_c, 1, 43, 0
1, 37248, Note_on_c, 1, 65, 127
1, 37248, Note_on_c, 1, 53, 127
1, 37248, Note_on_c, 1, 41, 127
1, 37436, Note_off_c, 1, 65, 0
1, 37436, Note_off_c, 1, 53, 0
1, 37436, Note_off_c, 1, 41, 0
1, 37440, Note_on_c, 1, 64, 127
1, 37440, Note_on_c, 1, 52, 127
1, 37440, Note_on_c, 1, 40, 127
1, 37568, Note_off_c, 1, 64, 0
1, 37568, Note_off_c, 1, 52, 0
1, 37568, Note_off_c, 1, 40, 0
1, 37632, Note_on_c, 1, 64, 127
1, 37632, Note_on_c, 1, 52, 127
1, 37632, Note_on_c, 1, 40, 127
1, 38244, Note_off_c, 1, 64, 0
1, 38244, Note_off_c, 1, 52, 0
1, 38244, Note_off_c, 1, 40, 0
1, 38400, Note_on_c, 1, 62, 127
1, 38400, Note_on_c, 1, 50, 127
1, 38400, Note_on_c, 1, 38, 127
1, 38588, Note_off_c, 1, 62, 0
1, 38588, Note_off_c, 1, 50, 0
1, 38588, Note_off_c, 1, 38, 0
1, 38592, Note_on_c, 1, 64, 127
1, 38592, Note_on_c, 1, 52, 127
1, 38592, Note_on_c, 1, 40, 127
1, 38780, Note_off_c, 1, 64, 0
1, 38780, Note_off_c, 1, 52, 0
1, 38780, Note_off_c, 1, 40, 0
1, 38784, Note_on_c, 1, 65, 127
1, 38784, Note_on_c, 1, 53, 127
1, 38784, Note_on_c, 1, 41, 127
1, 38972, Note_off_c, 1, 65, 0
1, 38972, Note_off_c, 1, 53, 0
1, 38972, Note_off_c, 1, 41, 0
1, 38976, Note_on_c, 1, 64, 127
1, 38976, Note_on_c, 1, 52, 127
1, 38976, Note_on_c, 1, 40, 127
1, 39164, Note_off_c, 1, 64, 0
1, 39164, Note_off_c, 1, 52, 0
1, 39164, Note_off_c, 1, 40, 0
1, 39168, Note_on_c, 1, 62, 127
1, 39168, Note_on_c, 1, 50, 127
1, 39168, Note_on_c, 1, 38, 127
1, 39356, Note_off_c, 1, 62, 0
1, 39356, Note_off_c, 1, 50, 0
1, 39356, Note_off_c, 1, 38, 0
1, 39360, Note_on_c, 1, 60, 127
1, 39360, Note_on_c, 1, 48, 127
1, 39360, Note_on_c, 1, 36, 127
1, 39548, Note_off_c, 1, 60, 0
1, 39548, Note_off_c, 1, 48, 0
1, 39548, Note_off_c, 1, 36, 0
1, 39552, Note_on_c, 1, 59, 127
1, 39552, Note_on_c, 1, 47, 127
1, 39552, Note_on_c, 1, 35, 127
1, 39740, Note_off_c, 1, 59, 0
1, 39740, Note_off_c, 1, 47, 0
1, 39740, Note_off_c, 1, 35, 0
1, 39744, Note_on_c, 1, 57, 127
1, 39744, Note_on_c, 1, 45, 127
1, 39744, Note_on_c, 1, 33, 127
1, 39872, Note_off_c, 1, 57, 0
1, 39872, Note_off_c, 1, 45, 0
1, 39872, Note_off_c, 1, 33, 0
1, 39936, Note_on_c, 1, 57, 127
1, 39936, Note_on_c, 1, 45, 127
1, 39936, Note_on_c, 1, 33, 127
1, 40448, Note_off_c, 1, 57, 0
1, 40448, Note_off_c, 1, 45, 0
1, 40448, Note_off_c, 1, 33, 0
1, 40704, Note_on_c, 1, 69, 127
1, 40704, Note_on_c, 1, 57, 127
1, 40704, Note_on_c, 1, 45, 127
1, 40704, Note_on_c, 1, 33, 127
1, 40832, Note_off_c, 1, 45, 0
1, 40832, Note_off_c, 1, 33, 0
1, 40892, Note_off_c, 1, 69, 0
1, 40892, Note_off_c, 1, 57, 0
1, 40896, Note_on_c, 1, 71, 127
1, 40896, Note_on_c, 1, 59, 127
1, 40896, Note_on_c, 1, 57, 127
1, 40896, Note_on_c, 1, 45, 127
1, 40988, Note_off_c, 1, 57, 0
1, 40988, Note_off_c, 1, 45, 0
1, 40992, Note_on_c, 1, 47, 127
1, 41084, Note_off_c, 1, 71, 0
1, 41084, Note_off_c, 1, 59, 0
1, 41084, Note_off_c, 1, 47, 0
1, 41088, Note_on_c, 1, 72, 127
1, 41088, Note_on_c, 1, 60, 127
1, 41088, Note_on_c, 1, 48, 127
1, 41276, Note_off_c, 1, 72, 0
1, 41276, Note_off_c, 1, 60, 0
1, 41276, Note_off_c, 1, 48, 0
1, 41280, Note_on_c, 1, 71, 127
1, 41280, Note_on_c, 1, 59, 127
1, 41280, Note_on_c, 1, 47, 127
1, 41468, Note_off_c, 1, 71, 0
1, 41468, Note_off_c, 1, 59, 0
1, 41468, Note_off_c, 1, 47, 0
1, 41472, Note_on_c, 1, 69, 127
1, 41472, Note_on_c, 1, 57, 127
1, 41472, Note_on_c, 1, 45, 127
1, 41660, Note_off_c, 1, 69, 0
1, 41660, Note_off_c, 1, 57, 0
1, 41660, Note_off_c, 1, 45, 0
1, 41664, Note_on_c, 1, 67, 127
1, 41664, Note_on_c, 1, 55, 127
1, 41664, Note_on_c, 1, 43, 127
1, 41852, Note_off_c, 1, 67, 0
1, 41852, Note_off_c, 1, 55, 0
1, 41852, Note_off_c, 1, 43, 0
1, 41856, Note_on_c, 1, 65, 127
1, 41856, Note_on_c, 1, 53, 127
1, 41856, Note_on_c, 1, 41, 127
1, 42044, Note_off_c, 1, 65, 0
1, 42044, Note_off_c, 1, 53, 0
1, 42044, Note_off_c, 1, 41, 0
1, 42048, Note_on_c, 1, 64, 127
1, 42048, Note_on_c, 1, 52, 127
1, 42048, Note_on_c, 1, 40, 127
1, 42176, Note_off_c, 1, 64, 0
1, 42176, Note_off_c, 1, 52, 0
1, 42176, Note_off_c, 1, 40, 0
1, 42240, Note_on_c, 1, 64, 127
1, 42240, Note_on_c, 1, 52, 127
1, 42240, Note_on_c, 1, 40, 127
1, 42852, Note_off_c, 1, 64, 0
1, 42852, Note_off_c, 1, 52, 0
1, 42852, Note_off_c, 1, 40, 0
1, 43008, Note_on_c, 1, 62, 127
1, 43008, Note_on_c, 1, 50, 127
1, 43008, Note_on_c, 1, 38, 127
1, 43196, Note_off_c, 1, 62, 0
1, 43196, Note_off_c, 1, 50, 0
1, 43196, Note_off_c, 1, 38, 0
1, 43200, Note_on_c, 1, 64, 127
1, 43200, Note_on_c, 1, 52, 127
1, 43200, Note_on_c, 1, 40, 127
1, 43388, Note_off_c, 1, 64, 0
1, 43388, Note_off_c, 1, 52, 0
1, 43388, Note_off_c, 1, 40, 0
1, 43392, Note_on_c, 1, 65, 127
1, 43392, Note_on_c, 1, 53, 127
1, 43392, Note_on_c, 1, 41, 127
1, 43580, Note_off_c, 1, 65, 0
1, 43580, Note_off_c, 1, 53, 0
1, 43580, Note_off_c, 1, 41, 0
1, 43584, Note_on_c, 1, 64, 127
1, 43584, Note_on_c, 1, 52, 127
1, 43584, Note_on_c, 1, 40, 127
1, 43772, Note_off_c, 1, 64, 0
1, 43772, Note_off_c, 1, 52, 0
1, 43772, Note_off_c, 1, 40, 0
1, 43776, Note_on_c, 1, 62, 127
1, 43776, Note_on_c, 1, 50, 127
1, 43776, Note_on_c, 1, 38, 127
1, 43964, Note_off_c, 1, 62, 0
1, 43964, Note_off_c, 1, 50, 0
1, 43964, Note_off_c, 1, 38, 0
1, 43968, Note_on_c, 1, 60, 127
1, 43968, Note_on_c, 1, 48, 127
1, 43968, Note_on_c, 1, 36, 127
1, 44156, Note_off_c, 1, 60, 0
1, 44156, Note_off_c, 1, 48, 0
1, 44156, Note_off_c, 1, 36, 0
1, 44160, Note_on_c, 1, 59, 127
1, 44160, Note_on_c, 1, 47, 127
1, 44160, Note_on_c, 1, 35, 127
1, 44348, Note_off_c, 1, 59, 0
1, 44348, Note_off_c, 1, 47, 0
1, 44348, Note_off_c, 1, 35, 0
1, 44352, Note_on_c, 1, 57, 127
1, 44352, Note_on_c, 1, 45, 127
1, 44352, Note_on_c, 1, 33, 127
1, 44480, Note_off_c, 1, 57, 0
1, 44480, Note_off_c, 1, 45, 0
1, 44480, Note_off_c, 1, 33, 0
1, 44544, Note_on_c, 1, 57, 127
1, 44544, Note_on_c, 1, 45, 127
1, 44544, Note_on_c, 1, 33, 127
1, 45056, Note_off_c, 1, 57, 0
1, 45056, Note_off_c, 1, 45, 0
1, 45056, Note_off_c, 1, 33, 0
1, 45312, Note_on_c, 1, 65, 127
1, 45312, Note_on_c, 1, 53, 127
1, 45312, Note_on_c, 1, 41, 127
1, 45500, Note_off_c, 1, 65, 0
1, 45500, Note_off_c, 1, 53, 0
1, 45500, Note_off_c, 1, 41, 0
1, 45504, Note_on_c, 1, 64, 127
1, 45504, Note_on_c, 1, 52, 127
1, 45504, Note_on_c, 1, 40, 127
1, 45632, Note_off_c, 1, 64, 0
1, 45632, Note_off_c, 1, 52, 0
1, 45632, Note_off_c, 1, 40, 0
1, 45696, Note_on_c, 1, 64, 127
1, 45696, Note_on_c, 1, 52, 127
1, 45696, Note_on_c, 1, 40, 127
1, 46308, Note_off_c, 1, 64, 0
1, 46308, Note_off_c, 1, 52, 0
1, 46308, Note_off_c, 1, 40, 0
1, 46464, Note_on_c, 1, 58, 127
1, 46464, Note_on_c, 1, 46, 127
1, 46464, Note_on_c, 1, 34, 127
1, 46652, Note_off_c, 1, 58, 0
1, 46652, Note_off_c, 1, 46, 0
1, 46652, Note_off_c, 1, 34, 0
1, 46656, Note_on_c, 1, 57, 127
1, 46656, Note_on_c, 1, 45, 127
1, 46656, Note_on_c, 1, 33, 127
1, 46784, Note_off_c, 1, 57, 0
1, 46784, Note_off_c, 1, 45, 0
1, 46784, Note_off_c, 1, 33, 0
1, 46848, Note_on_c, 1, 57, 127
1, 46848, Note_on_c, 1, 45, 127
1, 46848, Note_on_c, 1, 33, 127
1, 47360, Note_off_c, 1, 57, 0
1, 47360, Note_off_c, 1, 45, 0
1, 47360, Note_off_c, 1, 33, 0
1, 47616, Note_on_c, 1, 62, 127
1, 47616, Note_on_c, 1, 50, 127
1, 47616, Note_on_c, 1, 38, 127
1, 47804, Note_off_c, 1, 62, 0
1, 47804, Note_off_c, 1, 50, 0
1, 47804, Note_off_c, 1, 38, 0
1, 47808, Note_on_c, 1, 64, 127
1, 47808, Note_on_c, 1, 52, 127
1, 47808, Note_on_c, 1, 40, 127
1, 47996, Note_off_c, 1, 64, 0
1, 47996, Note_off_c, 1, 52, 0
1, 47996, Note_off_c, 1, 40, 0
1, 48000, Note_on_c, 1, 65, 127
1, 48000, Note_on_c, 1, 53, 127
1, 48000, Note_on_c, 1, 41, 127
1, 48188, Note_off_c, 1, 65, 0
1, 48188, Note_off_c, 1, 53, 0
1, 48188, Note_off_c, 1, 41, 0
1, 48192, Note_on_c, 1, 64, 127
1, 48192, Note_on_c, 1, 52, 127
1, 48192, Note_on_c, 1, 40, 127
1, 48380, Note_off_c, 1, 64, 0
1, 48380, Note_off_c, 1, 52, 0
1, 48380, Note_off_c, 1, 40, 0
1, 48384, Note_on_c, 1, 62, 127
1, 48384, Note_on_c, 1, 50, 127
1, 48384, Note_on_c, 1, 38, 127
1, 48572, Note_off_c, 1, 62, 0
1, 48572, Note_off_c, 1, 50, 0
1, 48572, Note_off_c, 1, 38, 0
1, 48576, Note_on_c, 1, 60, 127
1, 48576, Note_on_c, 1, 48, 127
1, 48576, Note_on_c, 1, 36, 127
1, 48764, Note_off_c, 1, 60, 0
1, 48764, Note_off_c, 1, 48, 0
1, 48764, Note_off_c, 1, 36, 0
1, 48768, Note_on_c, 1, 59, 127
1, 48768, Note_on_c, 1, 47, 127
1, 48768, Note_on_c, 1, 35, 127
1, 48956, Note_off_c, 1, 59, 0
1, 48956, Note_off_c, 1, 47, 0
1, 48956, Note_off_c, 1, 35, 0
1, 48960, Note_on_c, 1, 57, 127
1, 48960, Note_on_c, 1, 45, 127
1, 48960, Note_on_c, 1, 33, 127
1, 49088, Note_off_c, 1, 57, 0
1, 49088, Note_off_c, 1, 45, 0
1, 49088, Note_off_c, 1, 33, 0
1, 49152, Note_on_c, 1, 57, 127
1, 49152, Note_on_c, 1, 45, 127
1, 49152, Note_on_c, 1, 33, 127
1, 49664, Note_off_c, 1, 57, 0
1, 49664, Note_off_c, 1, 45, 0
1, 49664, Note_off_c, 1, 33, 0
1, 49920, Note_on_c, 1, 65, 127
1, 49920, Note_on_c, 1, 53, 127
1, 49920, Note_on_c, 1, 41, 127
1, 50108, Note_off_c, 1, 65, 0
1, 50108, Note_off_c, 1, 53, 0
1, 50108, Note_off_c, 1, 41, 0
1, 50112, Note_on_c, 1, 64, 127
1, 50112, Note_on_c, 1, 52, 127
1, 50112, Note_on_c, 1, 40, 127
1, 50240, Note_off_c, 1, 64, 0
1, 50240, Note_off_c, 1, 52, 0
1, 50240, Note_off_c, 1, 40, 0
1, 50304, Note_on_c, 1, 64, 127
1, 50304, Note_on_c, 1, 52, 127
1, 50304, Note_on_c, 1, 40, 127
1, 50916, Note_off_c, 1, 64, 0
1, 50916, Note_off_c, 1, 52, 0
1, 50916, Note_off_c, 1, 40, 0
1, 51072, Note_on_c, 1, 58, 127
1, 51072, Note_on_c, 1, 46, 127
1, 51072, Note_on_c, 1, 34, 127
1, 51260, Note_off_c, 1, 58, 0
1, 51260, Note_off_c, 1, 46, 0
1, 51260, Note_off_c, 1, 34, 0
1, 51264, Note_on_c, 1, 57, 127
1, 51264, Note_on_c, 1, 45, 127
1, 51264, Note_on_c, 1, 33, 127
1, 51392, Note_off_c, 1, 57, 0
1, 51392, Note_off_c, 1, 45, 0
1, 51392, Note_off_c, 1, 33, 0
1, 51456, Note_on_c, 1, 57, 127
1, 51456, Note_on_c, 1, 45, 127
1, 51456, Note_on_c, 1, 33, 127
1, 51968, Note_off_c, 1, 57, 0
1, 51968, Note_off_c, 1, 45, 0
1, 51968, Note_off_c, 1, 33, 0
1, 52224, Note_on_c, 1, 62, 127
1, 52224, Note_on_c, 1, 50, 127
1, 52224, Note_on_c, 1, 38, 127
1, 52412, Note_off_c, 1, 62, 0
1, 52412, Note_off_c, 1, 50, 0
1, 52412, Note_off_c, 1, 38, 0
1, 52416, Note_on_c, 1, 64, 127
1, 52416, Note_on_c, 1, 52, 127
1, 52416, Note_on_c, 1, 40, 127
1, 52604, Note_off_c, 1, 64, 0
1, 52604, Note_off_c, 1, 52, 0
1, 52604, Note_off_c, 1, 40, 0
1, 52608, Note_on_c, 1, 65, 127
1, 52608, Note_on_c, 1, 53, 127
1, 52608, Note_on_c, 1, 41, 127
1, 52796, Note_off_c, 1, 65, 0
1, 52796, Note_off_c, 1, 53, 0
1, 52796, Note_off_c, 1, 41, 0
1, 52800, Note_on_c, 1, 64, 127
1, 52800, Note_on_c, 1, 52, 127
1, 52800, Note_on_c, 1, 40, 127
1, 52988, Note_off_c, 1, 64, 0
1, 52988, Note_off_c, 1, 52, 0
1, 52988, Note_off_c, 1, 40, 0
1, 52992, Note_on_c, 1, 62, 127
1, 52992, Note_on_c, 1, 50, 127
1, 52992, Note_on_c, 1, 38, 127
1, 53180, Note_off_c, 1, 62, 0
1, 53180, Note_off_c, 1, 50, 0
1, 53180, Note_off_c, 1, 38, 0
1, 53184, Note_on_c, 1, 60, 127
1, 53184, Note_on_c, 1, 48, 127
1, 53184, Note_on_c, 1, 36, 127
1, 53372, Note_off_c, 1, 60, 0
1, 53372, Note_off_c, 1, 48, 0
1, 53372, Note_off_c, 1, 36, 0
1, 53376, Note_on_c, 1, 59, 127
1, 53376, Note_on_c, 1, 47, 127
1, 53376, Note_on_c, 1, 35, 127
1, 53564, Note_off_c, 1, 59, 0
1, 53564, Note_off_c, 1, 47, 0
1, 53564, Note_off_c, 1, 35, 0
1, 53568, Note_on_c, 1, 57, 127
1, 53568, Note_on_c, 1, 45, 127
1, 53568, Note_on_c, 1, 33, 127
1, 53696, Note_off_c, 1, 57, 0
1, 53696, Note_off_c, 1, 45, 0
1, 53696, Note_off_c, 1, 33, 0
1, 53760, Note_on_c, 1, 57, 127
1, 53760, Note_on_c, 1, 45, 127
1, 53760, Note_on_c, 1, 33, 127
1, 54272, Note_off_c, 1, 57, 0
1, 54272, Note_off_c, 1, 45, 0
1, 54272, Note_off_c, 1, 33, 0
1, 54528, Note_on_c, 1, 69, 127
1, 54528, Note_on_c, 1, 72, 127
1, 54528, Note_on_c, 1, 57, 127
1, 54528, Note_on_c, 1, 45, 127
1, 54620, Note_off_c, 1, 57, 0
1, 54620, Note_off_c, 1, 45, 0
1, 54624, Note_on_c, 1, 76, 127
1, 54624, Note_on_c, 1, 60, 127
1, 54624, Note_on_c, 1, 48, 127
1, 54716, Note_off_c, 1, 76, 0
1, 54716, Note_off_c, 1, 60, 0
1, 54716, Note_off_c, 1, 48, 0
1, 54720, Note_on_c, 1, 74, 127
1, 54720, Note_on_c, 1, 59, 127
1, 54720, Note_on_c, 1, 47, 127
1, 54784, Note_off_c, 1, 69, 0
1, 54784, Note_off_c, 1, 72, 0
1, 54812, Note_off_c, 1, 74, 0
1, 54812, Note_off_c, 1, 59, 0
1, 54812, Note_off_c, 1, 47, 0
1, 54816, Note_on_c, 1, 76, 127
1, 54816, Note_on_c, 1, 60, 127
1, 54816, Note_on_c, 1, 48, 127
1, 54908, Note_off_c, 1, 76, 0
1, 54908, Note_off_c, 1, 60, 0
1, 54908, Note_off_c, 1, 48, 0
1, 54912, Note_on_c, 1, 77, 127
1, 54912, Note_on_c, 1, 62, 127
1, 54912, Note_on_c, 1, 50, 127
1, 55040, Note_off_c, 1, 77, 0
1, 55040, Note_off_c, 1, 62, 0
1, 55040, Note_off_c, 1, 50, 0
1, 55104, Note_on_c, 1, 76, 127
1, 55104, Note_on_c, 1, 60, 127
1, 55104, Note_on_c, 1, 48, 127
1, 55232, Note_off_c, 1, 76, 0
1, 55232, Note_off_c, 1, 60, 0
1, 55232, Note_off_c, 1, 48, 0
1, 55296, Note_on_c, 1, 74, 127
1, 55296, Note_on_c, 1, 64, 127
1, 55296, Note_on_c, 1, 68, 127
1, 55296, Note_on_c, 1, 59, 127
1, 55296, Note_on_c, 1, 47, 127
1, 55424, Note_off_c, 1, 59, 0
1, 55424, Note_off_c, 1, 47, 0
1, 55488, Note_on_c, 1, 71, 127
1, 55488, Note_on_c, 1, 56, 127
1, 55488, Note_on_c, 1, 44, 127
1, 55552, Note_off_c, 1, 74, 0
1, 55552, Note_off_c, 1, 64, 0
1, 55552, Note_off_c, 1, 68, 0
1, 55584, Note_on_c, 1, 65, 127
1, 55616, Note_off_c, 1, 71, 0
1, 55616, Note_off_c, 1, 56, 0
1, 55616, Note_off_c, 1, 44, 0
1, 55648, Note_off_c, 1, 65, 0
1, 55680, Note_on_c, 1, 72, 127
1, 55680, Note_on_c, 1, 64, 127
1, 55680, Note_on_c, 1, 69, 127
1, 55680, Note_on_c, 1, 57, 127
1, 55680, Note_on_c, 1, 45, 127
1, 55808, Note_off_c, 1, 57, 0
1, 55808, Note_off_c, 1, 45, 0
1, 55872, Note_on_c, 1, 33, 127
1, 55936, Note_off_c, 1, 72, 0
1, 55936, Note_off_c, 1, 64, 0
1, 55936, Note_off_c, 1, 69, 0
1, 55968, Note_on_c, 1, 67, 127
1, 56000, Note_off_c, 1, 33, 0
1, 56032, Note_off_c, 1, 67, 0
1, 56064, Note_on_c, 1, 70, 127
1, 56064, Note_on_c, 1, 65, 127
1, 56064, Note_on_c, 1, 50, 127
1, 56064, Note_on_c, 1, 38, 127
1, 56252, Note_off_c, 1, 50, 0
1, 56252, Note_off_c, 1, 38, 0
1, 56256, Note_on_c, 1, 69, 127
1, 56256, Note_on_c, 1, 52, 127
1, 56256, Note_on_c, 1, 40, 127
1, 56320, Note_off_c, 1, 70, 0
1, 56320, Note_off_c, 1, 65, 0
1, 56348, Note_off_c, 1, 52, 0
1, 56348, Note_off_c, 1, 40, 0
1, 56352, Note_on_c, 1, 53, 127
1, 56352, Note_on_c, 1, 41, 127
1, 56384, Note_off_c, 1, 69, 0
1, 56444, Note_off_c, 1, 53, 0
1, 56444, Note_off_c, 1, 41, 0
1, 56448, Note_on_c, 1, 69, 127
1, 56448, Note_on_c, 1, 68, 127
1, 56448, Note_on_c, 1, 64, 127
1, 56448, Note_on_c, 1, 59, 127
1, 56448, Note_on_c, 1, 52, 127
1, 56448, Note_on_c, 1, 40, 127
1, 56576, Note_off_c, 1, 52, 0
1, 56576, Note_off_c, 1, 40, 0
1, 56636, Note_off_c, 1, 69, 0
1, 56640, Note_on_c, 1, 28, 127
1, 56704, Note_off_c, 1, 64, 0
1, 56704, Note_off_c, 1, 59, 0
1, 56768, Note_off_c, 1, 68, 0
1, 56768, Note_off_c, 1, 28, 0
1, 56832, Note_on_c, 1, 69, 127
1, 56832, Note_on_c, 1, 60, 127
1, 56832, Note_on_c, 1, 64, 127
1, 56832, Note_on_c, 1, 45, 127
1, 56832, Note_on_c, 1, 33, 127
1, 56928, Note_on_c, 1, 68, 127
1, 57020, Note_off_c, 1, 68, 0
1, 57088, Note_off_c, 1, 60, 0
1, 57088, Note_off_c, 1, 64, 0
1, 57088, Note_off_c, 1, 45, 0
1, 57088, Note_off_c, 1, 33, 0
1, 57116, Note_off_c, 1, 69, 0
1, 57120, Note_on_c, 1, 71, 127
1, 57120, Note_on_c, 1, 62, 127
1, 57184, Note_off_c, 1, 62, 0
1, 57212, Note_off_c, 1, 71, 0
1, 57216, Note_on_c, 1, 69, 127
1, 57216, Note_on_c, 1, 60, 127
1, 57308, Note_off_c, 1, 69, 0
1, 57312, Note_on_c, 1, 71, 127
1, 57344, Note_off_c, 1, 60, 0
1, 57404, Note_off_c, 1, 71, 0
1, 57408, Note_on_c, 1, 72, 127
1, 57408, Note_on_c, 1, 60, 127
1, 57408, Note_on_c, 1, 69, 127
1, 57408, Note_on_c, 1, 57, 127
1, 57408, Note_on_c, 1, 45, 127
1, 57472, Note_off_c, 1, 60, 0
1, 57472, Note_off_c, 1, 57, 0
1, 57472, Note_off_c, 1, 45, 0
1, 57500, Note_off_c, 1, 72, 0
1, 57504, Note_on_c, 1, 74, 127
1, 57504, Note_on_c, 1, 64, 127
1, 57504, Note_on_c, 1, 59, 127
1, 57504, Note_on_c, 1, 47, 127
1, 57536, Note_off_c, 1, 69, 0
1, 57568, Note_off_c, 1, 64, 0
1, 57568, Note_off_c, 1, 59, 0
1, 57568, Note_off_c, 1, 47, 0
1, 57596, Note_off_c, 1, 74, 0
1, 57600, Note_on_c, 1, 76, 127
1, 57600, Note_on_c, 1, 57, 127
1, 57600, Note_on_c, 1, 69, 127
1, 57600, Note_on_c, 1, 72, 127
1, 57600, Note_on_c, 1, 64, 127
1, 57600, Note_on_c, 1, 60, 127
1, 57600, Note_on_c, 1, 48, 127
1, 57728, Note_off_c, 1, 76, 0
1, 57728, Note_off_c, 1, 57, 0
1, 57728, Note_off_c, 1, 60, 0
1, 57728, Note_off_c, 1, 48, 0
1, 57792, Note_on_c, 1, 74, 127
1, 57792, Note_on_c, 1, 59, 127
1, 57792, Note_on_c, 1, 47, 127
1, 57856, Note_off_c, 1, 69, 0
1, 57856, Note_off_c, 1, 72, 0
1, 57856, Note_off_c, 1, 64, 0
1, 57884, Note_off_c, 1, 74, 0
1, 57884, Note_off_c, 1, 59, 0
1, 57884, Note_off_c, 1, 47, 0
1, 57888, Note_on_c, 1, 76, 127
1, 57888, Note_on_c, 1, 60, 127
1, 57888, Note_on_c, 1, 48, 127
1, 57980, Note_off_c, 1, 76, 0
1, 57980, Note_off_c, 1, 60, 0
1, 57980, Note_off_c, 1, 48, 0
1, 57984, Note_on_c, 1, 77, 127
1, 57984, Note_on_c, 1, 62, 127
1, 57984, Note_on_c, 1, 50, 127
1, 58112, Note_off_c, 1, 77, 0
1, 58112, Note_off_c, 1, 62, 0
1, 58112, Note_off_c, 1, 50, 0
1, 58176, Note_on_c, 1, 76, 127
1, 58176, Note_on_c, 1, 60, 127
1, 58176, Note_on_c, 1, 48, 127
1, 58304, Note_off_c, 1, 76, 0
1, 58304, Note_off_c, 1, 60, 0
1, 58304, Note_off_c, 1, 48, 0
1, 58368, Note_on_c, 1, 74, 127
1, 58368, Note_on_c, 1, 64, 127
1, 58368, Note_on_c, 1, 68, 127
1, 58368, Note_on_c, 1, 59, 127
1, 58368, Note_on_c, 1, 47, 127
1, 58496, Note_off_c, 1, 59, 0
1, 58496, Note_off_c, 1, 47, 0
1, 58560, Note_on_c, 1, 71, 127
1, 58560, Note_on_c, 1, 56, 127
1, 58560, Note_on_c, 1, 44, 127
1, 58624, Note_off_c, 1, 74, 0
1, 58624, Note_off_c, 1, 64, 0
1, 58624, Note_off_c, 1, 68, 0
1, 58656, Note_on_c, 1, 65, 127
1, 58688, Note_off_c, 1, 71, 0
1, 58688, Note_off_c, 1, 56, 0
1, 58688, Note_off_c, 1, 44, 0
1, 58720, Note_off_c, 1, 65, 0
1, 58752, Note_on_c, 1, 72, 127
1, 58752, Note_on_c, 1, 64, 127
1, 58752, Note_on_c, 1, 69, 127
1, 58752, Note_on_c, 1, 57, 127
1, 58752, Note_on_c, 1, 45, 127
1, 58880, Note_off_c, 1, 57, 0
1, 58880, Note_off_c, 1, 45, 0
1, 58944, Note_on_c, 1, 33, 127
1, 59008, Note_off_c, 1, 72, 0
1, 59008, Note_off_c, 1, 64, 0
1, 59008, Note_off_c, 1, 69, 0
1, 59040, Note_on_c, 1, 67, 127
1, 59072, Note_off_c, 1, 33, 0
1, 59104, Note_off_c, 1, 67, 0
1, 59136, Note_on_c, 1, 70, 127
1, 59136, Note_on_c, 1, 65, 127
1, 59136, Note_on_c, 1, 50, 127
1, 59136, Note_on_c, 1, 38, 127
1, 59324, Note_off_c, 1, 50, 0
1, 59324, Note_off_c, 1, 38, 0
1, 59328, Note_on_c, 1, 69, 127
1, 59328, Note_on_c, 1, 59, 127
1, 59328, Note_on_c, 1, 52, 127
1, 59328, Note_on_c, 1, 40, 127
1, 59392, Note_off_c, 1, 70, 0
1, 59392, Note_off_c, 1, 65, 0
1, 59420, Note_off_c, 1, 52, 0
1, 59420, Note_off_c, 1, 40, 0
1, 59424, Note_on_c, 1, 53, 127
1, 59424, Note_on_c, 1, 41, 127
1, 59456, Note_off_c, 1, 69, 0
1, 59516, Note_off_c, 1, 53, 0
1, 59516, Note_off_c, 1, 41, 0
1, 59520, Note_on_c, 1, 68, 127
1, 59520, Note_on_c, 1, 64, 127
1, 59712, Note_on_c, 1, 61, 127
1, 59712, Note_on_c, 1, 28, 127
1, 59776, Note_off_c, 1, 59, 0
1, 59776, Note_off_c, 1, 64, 0
1, 59776, Note_off_c, 1, 61, 0
1, 59808, Note_on_c, 1, 62, 127
1, 59840, Note_off_c, 1, 68, 0
1, 59840, Note_off_c, 1, 28, 0
1, 59872, Note_off_c, 1, 62, 0
1, 59904, Note_on_c, 1, 69, 127
1, 59904, Note_on_c, 1, 61, 127
1, 59904, Note_on_c, 1, 64, 127
1, 59904, Note_on_c, 1, 45, 127
1, 59904, Note_on_c, 1, 33, 127
1, 60096, Note_on_c, 1, 68, 127
1, 60160, Note_off_c, 1, 45, 0
1, 60160, Note_off_c, 1, 33, 0
1, 60284, Note_off_c, 1, 68, 0
1, 60668, Note_off_c, 1, 69, 0
1, 60668, Note_off_c, 1, 61, 0
1, 60668, Note_off_c, 1, 64, 0
1, 60672, Note_on_c, 1, 66, 127
1, 60672, Note_on_c, 1, 62, 127
1, 60672, Note_on_c, 1, 71, 127
1, 60672, Note_on_c, 1, 68, 127
1, 60672, Note_on_c, 1, 64, 127
1, 60672, Note_on_c, 1, 45, 127
1, 60672, Note_on_c, 1, 33, 127
1, 60800, Note_off_c, 1, 66, 0
1, 60928, Note_off_c, 1, 45, 0
1, 60928, Note_off_c, 1, 33, 0
1, 61052, Note_off_c, 1, 62, 0
1, 61052, Note_off_c, 1, 71, 0
1, 61052, Note_off_c, 1, 68, 0
1, 61052, Note_off_c, 1, 64, 0
1, 61056, Note_on_c, 1, 69, 127
1, 61056, Note_on_c, 1, 61, 127
1, 61056, Note_on_c, 1, 64, 127
1, 61056, Note_on_c, 1, 45, 127
1, 61056, Note_on_c, 1, 33, 127
1, 61248, Note_on_c, 1, 68, 127
1, 61312, Note_off_c, 1, 45, 0
1, 61312, Note_off_c, 1, 33, 0
1, 61436, Note_off_c, 1, 68, 0
1, 61820, Note_off_c, 1, 69, 0
1, 61820, Note_off_c, 1, 61, 0
1, 61820, Note_off_c, 1, 64, 0
1, 61824, Note_on_c, 1, 66, 127
1, 61824, Note_on_c, 1, 59, 127
1, 61824, Note_on_c, 1, 68, 127
1, 61824, Note_on_c, 1, 64, 127
1, 61824, Note_on_c, 1, 45, 127
1, 61824, Note_on_c, 1, 33, 127
1, 61952, Note_off_c, 1, 66, 0
1, 62080, Note_off_c, 1, 59, 0
1, 62080, Note_off_c, 1, 45, 0
1, 62080, Note_off_c, 1, 33, 0
1, 62204, Note_off_c, 1, 68, 0
1, 62204, Note_off_c, 1, 64, 0
1, 62208, Note_on_c, 1, 69, 127
1, 62208, Note_on_c, 1, 61, 127
1, 62208, Note_on_c, 1, 64, 127
1, 62208, Note_on_c, 1, 45, 127
1, 62208, Note_on_c, 1, 33, 127
1, 62400, Note_on_c, 1, 68, 127
1, 62400, Note_on_c, 1, 62, 127
1, 62464, Note_off_c, 1, 45, 0
1, 62464, Note_off_c, 1, 33, 0
1, 62588, Note_off_c, 1, 69, 0
1, 62588, Note_off_c, 1, 61, 0
1, 62588, Note_off_c, 1, 64, 0
1, 62588, Note_off_c, 1, 68, 0
1, 62588, Note_off_c, 1, 62, 0
1, 62592, Note_on_c, 1, 69, 127
1, 62592, Note_on_c, 1, 61, 127
1, 62592, Note_on_c, 1, 73, 127
1, 62592, Note_on_c, 1, 64, 127
1, 62592, Note_on_c, 1, 45, 127
1, 62592, Note_on_c, 1, 33, 127
1, 62780, Note_off_c, 1, 61, 0
1, 62784, Note_on_c, 1, 71, 127
1, 62784, Note_on_c, 1, 59, 127
1, 62848, Note_off_c, 1, 45, 0
1, 62848, Note_off_c, 1, 33, 0
1, 62972, Note_off_c, 1, 69, 0
1, 62972, Note_off_c, 1, 73, 0
1, 62972, Note_off_c, 1, 64, 0
1, 62972, Note_off_c, 1, 71, 0
1, 62972, Note_off_c, 1, 59, 0
1, 62976, Note_on_c, 1, 73, 127
1, 62976, Note_on_c, 1, 57, 127
1, 62976, Note_on_c, 1, 69, 127
1, 62976, Note_on_c, 1, 64, 127
1, 62976, Note_on_c, 1, 61, 127
1, 62976, Note_on_c, 1, 45, 127
1, 62976, Note_on_c, 1, 33, 127
1, 63164, Note_off_c, 1, 73, 0
1, 63164, Note_off_c, 1, 57, 0
1, 63168, Note_on_c, 1, 74, 127
1, 63168, Note_on_c, 1, 59, 127
1, 63232, Note_off_c, 1, 45, 0
1, 63232, Note_off_c, 1, 33, 0
1, 63356, Note_off_c, 1, 69, 0
1, 63356, Note_off_c, 1, 64, 0
1, 63356, Note_off_c, 1, 61, 0
1, 63356, Note_off_c, 1, 74, 0
1, 63356, Note_off_c, 1, 59, 0
1, 63360, Note_on_c, 1, 76, 127
1, 63360, Note_on_c, 1, 61, 127
1, 63360, Note_on_c, 1, 73, 127
1, 63360, Note_on_c, 1, 69, 127
1, 63360, Note_on_c, 1, 64, 127
1, 63360, Note_on_c, 1, 45, 127
1, 63360, Note_on_c, 1, 33, 127
1, 63548, Note_off_c, 1, 61, 0
1, 63552, Note_on_c, 1, 62, 127
1, 63616, Note_off_c, 1, 45, 0
1, 63616, Note_off_c, 1, 33, 0
1, 63740, Note_off_c, 1, 76, 0
1, 63740, Note_off_c, 1, 73, 0
1, 63740, Note_off_c, 1, 69, 0
1, 63740, Note_off_c, 1, 64, 0
1, 63740, Note_off_c, 1, 62, 0
1, 63744, Note_on_c, 1, 64, 127
1, 63744, Note_on_c, 1, 73, 127
1, 63744, Note_on_c, 1, 45, 127
1, 63744, Note_on_c, 1, 33, 127
1, 63872, Note_off_c, 1, 64, 0
1, 63932, Note_off_c, 1, 73, 0
1, 63936, Note_on_c, 1, 62, 127
1, 63936, Note_on_c, 1, 71, 127
1, 64000, Note_off_c, 1, 45, 0
1, 64000, Note_off_c, 1, 33, 0
1, 64064, Note_off_c, 1, 62, 0
1, 64124, Note_off_c, 1, 71, 0
1, 64128, Note_on_c, 1, 66, 127
1, 64128, Note_on_c, 1, 61, 127
1, 64128, Note_on_c, 1, 69, 127
1, 64128, Note_on_c, 1, 45, 127
1, 64128, Note_on_c, 1, 33, 127
1, 64256, Note_off_c, 1, 66, 0
1, 64256, Note_off_c, 1, 61, 0
1, 64316, Note_off_c, 1, 69, 0
1, 64320, Note_on_c, 1, 68, 127
1, 64320, Note_on_c, 1, 59, 127
1, 64384, Note_off_c, 1, 45, 0
1, 64384, Note_off_c, 1, 33, 0
1, 64448, Note_off_c, 1, 59, 0
1, 64508, Note_off_c, 1, 68, 0
1, 64512, Note_on_c, 1, 69, 127
1, 64512, Note_on_c, 1, 61, 127
1, 64512, Note_on_c, 1, 64, 127
1, 64512, Note_on_c, 1, 45, 127
1, 64512, Note_on_c, 1, 33, 127
1, 64704, Note_on_c, 1, 68, 127
1, 64768, Note_off_c, 1, 45, 0
1, 64768, Note_off_c, 1, 33, 0
1, 64892, Note_off_c, 1, 68, 0
1, 65276, Note_off_c, 1, 69, 0
1, 65276, Note_off_c, 1, 61, 0
1, 65276, Note_off_c, 1, 64, 0
1, 65280, Note_on_c, 1, 66, 127
1, 65280, Note_on_c, 1, 62, 127
1, 65280, Note_on_c, 1, 71, 127
1, 65280, Note_on_c, 1, 68, 127
1, 65280, Note_on_c, 1, 64, 127
1, 65280, Note_on_c, 1, 45, 127
1, 65280, Note_on_c, 1, 33, 127
1, 65408, Note_off_c, 1, 66, 0
1, 65536, Note_off_c, 1, 45, 0
1, 65536, Note_off_c, 1, 33, 0
1, 65660, Note_off_c, 1, 62, 0
1, 65660, Note_off_c, 1, 71, 0
1, 65660, Note_off_c, 1, 68, 0
1, 65660, Note_off_c, 1, 64, 0
1, 65664, Note_on_c, 1, 69, 127
1, 65664, Note_on_c, 1, 61, 127
1, 65664, Note_on_c, 1, 64, 127
1, 65664, Note_on_c, 1, 45, 127
1, 65664, Note_on_c, 1, 33, 127
1, 65856, Note_on_c, 1, 68, 127
1, 65920, Note_off_c, 1, 45, 0
1, 65920, Note_off_c, 1, 33, 0
1, 66044, Note_off_c, 1, 68, 0
1, 66428, Note_off_c, 1, 69, 0
1, 66428, Note_off_c, 1, 61, 0
1, 66428, Note_off_c, 1, 64, 0
1, 66432, Note_on_c, 1, 66, 127
1, 66432, Note_on_c, 1, 59, 127
1, 66432, Note_on_c, 1, 68, 127
1, 66432, Note_on_c, 1, 64, 127
1, 66432, Note_on_c, 1, 45, 127
1, 66432, Note_on_c, 1, 33, 127
1, 66560, Note_off_c, 1, 66, 0
1, 66688, Note_off_c, 1, 59, 0
1, 66688, Note_off_c, 1, 45, 0
1, 66688, Note_off_c, 1, 33, 0
1, 66812, Note_off_c, 1, 68, 0
1, 66812, Note_off_c, 1, 64, 0
1, 66816, Note_on_c, 1, 69, 127
1, 66816, Note_on_c, 1, 61, 127
1, 66816, Note_on_c, 1, 64, 127
1, 66816, Note_on_c, 1, 45, 127
1, 66816, Note_on_c, 1, 33, 127
1, 67008, Note_on_c, 1, 68, 127
1, 67008, Note_on_c, 1, 62, 127
1, 67072, Note_off_c, 1, 45, 0
1, 67072, Note_off_c, 1, 33, 0
1, 67196, Note_off_c, 1, 68, 0
1, 67196, Note_off_c, 1, 62, 0
1, 67328, Note_off_c, 1, 64, 0
1, 67388, Note_off_c, 1, 69, 0
1, 67388, Note_off_c, 1, 61, 0
1, 67392, Note_on_c, 1, 71, 127
1, 67392, Note_on_c, 1, 59, 127
1, 67580, Note_off_c, 1, 71, 0
1, 67580, Note_off_c, 1, 59, 0
1, 67584, Note_on_c, 1, 73, 127
1, 67584, Note_on_c, 1, 57, 127
1, 67584, Note_on_c, 1, 69, 127
1, 67584, Note_on_c, 1, 64, 127
1, 67584, Note_on_c, 1, 45, 127
1, 67584, Note_on_c, 1, 33, 127
1, 67772, Note_off_c, 1, 57, 0
1, 67776, Note_on_c, 1, 74, 127
1, 67776, Note_on_c, 1, 59, 127
1, 67840, Note_off_c, 1, 45, 0
1, 67840, Note_off_c, 1, 33, 0
1, 67964, Note_off_c, 1, 73, 0
1, 67964, Note_off_c, 1, 69, 0
1, 67964, Note_off_c, 1, 64, 0
1, 67964, Note_off_c, 1, 74, 0
1, 67964, Note_off_c, 1, 59, 0
1, 67968, Note_on_c, 1, 76, 127
1, 67968, Note_on_c, 1, 61, 127
1, 67968, Note_on_c, 1, 64, 127
1, 67968, Note_on_c, 1, 69, 127
1, 67968, Note_on_c, 1, 45, 127
1, 67968, Note_on_c, 1, 33, 127
1, 68572, Note_off_c, 1, 76, 0
1, 68572, Note_off_c, 1, 61, 0
1, 68572, Note_off_c, 1, 64, 0
1, 68572, Note_off_c, 1, 69, 0
1, 68572, Note_off_c, 1, 45, 0
1, 68572, Note_off_c, 1, 33, 0
1, 68736, Note_on_c, 1, 78, 127
1, 68736, Note_on_c, 1, 62, 127
1, 68736, Note_on_c, 1, 50, 127
1, 68924, Note_off_c, 1, 78, 0
1, 68924, Note_off_c, 1, 62, 0
1, 68924, Note_off_c, 1, 50, 0
1, 68928, Note_on_c, 1, 76, 127
1, 68928, Note_on_c, 1, 61, 127
1, 68928, Note_on_c, 1, 49, 127
1, 69056, Note_off_c, 1, 76, 0
1, 69056, Note_off_c, 1, 61, 0
1, 69056, Note_off_c, 1, 49, 0
1, 69120, Note_on_c, 1, 76, 127
1, 69120, Note_on_c, 1, 61, 127
1, 69120, Note_on_c, 1, 49, 127
1, 69308, Note_off_c, 1, 76, 0
1, 69308, Note_off_c, 1, 61, 0
1, 69308, Note_off_c, 1, 49, 0
1, 69312, Note_on_c, 1, 74, 127
1, 69312, Note_on_c, 1, 59, 127
1, 69312, Note_on_c, 1, 47, 127
1, 69440, Note_off_c, 1, 74, 0
1, 69440, Note_off_c, 1, 59, 0
1, 69440, Note_off_c, 1, 47, 0
1, 69504, Note_on_c, 1, 62, 127
1, 69504, Note_on_c, 1, 71, 127
1, 69504, Note_on_c, 1, 68, 127
1, 69504, Note_on_c, 1, 64, 127
1, 69504, Note_on_c, 1, 59, 127
1, 69504, Note_on_c, 1, 47, 127
1, 69692, Note_off_c, 1, 62, 0
1, 69692, Note_off_c, 1, 59, 0
1, 69692, Note_off_c, 1, 47, 0
1, 69696, Note_on_c, 1, 61, 127
1, 69696, Note_on_c, 1, 57, 127
1, 69696, Note_on_c, 1, 45, 127
1, 69760, Note_off_c, 1, 71, 0
1, 69760, Note_off_c, 1, 68, 0
1, 69760, Note_off_c, 1, 64, 0
1, 69824, Note_off_c, 1, 61, 0
1, 69824, Note_off_c, 1, 57, 0
1, 69824, Note_off_c, 1, 45, 0
1, 69888, Note_on_c, 1, 62, 127
1, 69888, Note_on_c, 1, 74, 127
1, 69888, Note_on_c, 1, 71, 127
1, 69888, Note_on_c, 1, 68, 127
1, 69888, Note_on_c, 1, 59, 127
1, 69888, Note_on_c, 1, 47, 127
1, 70076, Note_off_c, 1, 62, 0
1, 70076, Note_off_c, 1, 59, 0
1, 70076, Note_off_c, 1, 47, 0
1, 70080, Note_on_c, 1, 61, 127
1, 70080, Note_on_c, 1, 57, 127
1, 70080, Note_on_c, 1, 45, 127
1, 70144, Note_off_c, 1, 74, 0
1, 70144, Note_off_c, 1, 71, 0
1, 70144, Note_off_c, 1, 68, 0
1, 70208, Note_off_c, 1, 61, 0
1, 70208, Note_off_c, 1, 57, 0
1, 70208, Note_off_c, 1, 45, 0
1, 70272, Note_on_c, 1, 62, 127
1, 70272, Note_on_c, 1, 71, 127
1, 70272, Note_on_c, 1, 68, 127
1, 70272, Note_on_c, 1, 64, 127
1, 70272, Note_on_c, 1, 59, 127
1, 70272, Note_on_c, 1, 47, 127
1, 70528, Note_off_c, 1, 71, 0
1, 70528, Note_off_c, 1, 68, 0
1, 70528, Note_off_c, 1, 64, 0
1, 70528, Note_off_c, 1, 59, 0
1, 70528, Note_off_c, 1, 47, 0
1, 70656, Note_on_c, 1, 76, 127
1, 70656, Note_on_c, 1, 52, 127
1, 70656, Note_on_c, 1, 40, 127
1, 70912, Note_off_c, 1, 76, 0
1, 70912, Note_off_c, 1, 52, 0
1, 70912, Note_off_c, 1, 40, 0
1, 71036, Note_off_c, 1, 62, 0
1, 71040, Note_on_c, 1, 76, 127
1, 71040, Note_on_c, 1, 61, 127
1, 71040, Note_on_c, 1, 49, 127
1, 71228, Note_off_c, 1, 76, 0
1, 71228, Note_off_c, 1, 61, 0
1, 71228, Note_off_c, 1, 49, 0
1, 71232, Note_on_c, 1, 74, 127
1, 71232, Note_on_c, 1, 59, 127
1, 71232, Note_on_c, 1, 47, 127
1, 71360, Note_off_c, 1, 74, 0
1, 71360, Note_off_c, 1, 59, 0
1, 71360, Note_off_c, 1, 47, 0
1, 71424, Note_on_c, 1, 74, 127
1, 71424, Note_on_c, 1, 59, 127
1, 71424, Note_on_c, 1, 47, 127
1, 71612, Note_off_c, 1, 74, 0
1, 71612, Note_off_c, 1, 59, 0
1, 71612, Note_off_c, 1, 47, 0
1, 71616, Note_on_c, 1, 73, 127
1, 71616, Note_on_c, 1, 57, 127
1, 71616, Note_on_c, 1, 45, 127
1, 71744, Note_off_c, 1, 73, 0
1, 71744, Note_off_c, 1, 57, 0
1, 71744, Note_off_c, 1, 45, 0
1, 71808, Note_on_c, 1, 61, 127
1, 71808, Note_on_c, 1, 69, 127
1, 71808, Note_on_c, 1, 64, 127
1, 71808, Note_on_c, 1, 57, 127
1, 71808, Note_on_c, 1, 45, 127
1, 71996, Note_off_c, 1, 57, 0
1, 71996, Note_off_c, 1, 45, 0
1, 72000, Note_on_c, 1, 59, 127
1, 72000, Note_on_c, 1, 56, 127
1, 72000, Note_on_c, 1, 44, 127
1, 72064, Note_off_c, 1, 61, 0
1, 72064, Note_off_c, 1, 69, 0
1, 72064, Note_off_c, 1, 64, 0
1, 72128, Note_off_c, 1, 59, 0
1, 72128, Note_off_c, 1, 56, 0
1, 72128, Note_off_c, 1, 44, 0
1, 72192, Note_on_c, 1, 61, 127
1, 72192, Note_on_c, 1, 73, 127
1, 72192, Note_on_c, 1, 69, 127
1, 72192, Note_on_c, 1, 64, 127
1, 72192, Note_on_c, 1, 57, 127
1, 72192, Note_on_c, 1, 45, 127
1, 72380, Note_off_c, 1, 61, 0
1, 72380, Note_off_c, 1, 57, 0
1, 72380, Note_off_c, 1, 45, 0
1, 72384, Note_on_c, 1, 59, 127
1, 72384, Note_on_c, 1, 56, 127
1, 72384, Note_on_c, 1, 44, 127
1, 72448, Note_off_c, 1, 73, 0
1, 72448, Note_off_c, 1, 69, 0
1, 72448, Note_off_c, 1, 64, 0
1, 72512, Note_off_c, 1, 59, 0
1, 72512, Note_off_c, 1, 56, 0
1, 72512, Note_off_c, 1, 44, 0
1, 72576, Note_on_c, 1, 61, 127
1, 72576, Note_on_c, 1, 76, 127
1, 72576, Note_on_c, 1, 73, 127
1, 72576, Note_on_c, 1, 69, 127
1, 72576, Note_on_c, 1, 57, 127
1, 72576, Note_on_c, 1, 45, 127
1, 72832, Note_off_c, 1, 76, 0
1, 72832, Note_off_c, 1, 73, 0
1, 72832, Note_off_c, 1, 69, 0
1, 72832, Note_off_c, 1, 57, 0
1, 72832, Note_off_c, 1, 45, 0
1, 72960, Note_on_c, 1, 81, 127
1, 72960, Note_on_c, 1, 33, 127
1, 73216, Note_off_c, 1, 81, 0
1, 73216, Note_off_c, 1, 33, 0
1, 73340, Note_off_c, 1, 61, 0
1, 73344, Note_on_c, 1, 69, 127
1, 73344, Note_on_c, 1, 61, 127
1, 73472, Note_off_c, 1, 69, 0
1, 73472, Note_off_c, 1, 61, 0
1, 73536, Note_on_c, 1, 73, 127
1, 73536, Note_on_c, 1, 64, 127
1, 73664, Note_off_c, 1, 73, 0
1, 73664, Note_off_c, 1, 64, 0
1, 73728, Note_on_c, 1, 71, 127
1, 73728, Note_on_c, 1, 62, 127
1, 74108, Note_off_c, 1, 71, 0
1, 74108, Note_off_c, 1, 62, 0
1, 74112, Note_on_c, 1, 69, 127
1, 74112, Note_on_c, 1, 61, 127
1, 74368, Note_off_c, 1, 69, 0
1, 74368, Note_off_c, 1, 61, 0
1, 74496, Note_on_c, 1, 61, 127
1, 74496, Note_on_c, 1, 69, 127
1, 74496, Note_on_c, 1, 76, 127
1, 74496, Note_on_c, 1, 73, 127
1, 74496, Note_on_c, 1, 57, 127
1, 74496, Note_on_c, 1, 45, 127
1, 74624, Note_off_c, 1, 61, 0
1, 74624, Note_off_c, 1, 57, 0
1, 74624, Note_off_c, 1, 45, 0
1, 74688, Note_on_c, 1, 64, 127
1, 74688, Note_on_c, 1, 49, 127
1, 74752, Note_off_c, 1, 69, 0
1, 74752, Note_off_c, 1, 76, 0
1, 74752, Note_off_c, 1, 73, 0
1, 74816, Note_off_c, 1, 64, 0
1, 74816, Note_off_c, 1, 49, 0
1, 74880, Note_on_c, 1, 62, 127
1, 74880, Note_on_c, 1, 68, 127
1, 74880, Note_on_c, 1, 76, 127
1, 74880, Note_on_c, 1, 74, 127
1, 74880, Note_on_c, 1, 59, 127
1, 74880, Note_on_c, 1, 47, 127
1, 75136, Note_off_c, 1, 76, 0
1, 75136, Note_off_c, 1, 74, 0
1, 75260, Note_off_c, 1, 62, 0
1, 75260, Note_off_c, 1, 68, 0
1, 75260, Note_off_c, 1, 59, 0
1, 75260, Note_off_c, 1, 47, 0
1, 75264, Note_on_c, 1, 61, 127
1, 75264, Note_on_c, 1, 69, 127
1, 75264, Note_on_c, 1, 76, 127
1, 75264, Note_on_c, 1, 73, 127
1, 75264, Note_on_c, 1, 57, 127
1, 75264, Note_on_c, 1, 45, 127
1, 75520, Note_off_c, 1, 61, 0
1, 75520, Note_off_c, 1, 69, 0
1, 75520, Note_off_c, 1, 76, 0
1, 75520, Note_off_c, 1, 73, 0
1, 75520, Note_off_c, 1, 57, 0
1, 75520, Note_off_c, 1, 45, 0
1, 75648, Note_on_c, 1, 81, 127
1, 75648, Note_on_c, 1, 69, 127
1, 75648, Note_on_c, 1, 57, 127
1, 75648, Note_on_c, 1, 45, 127
1, 75836, Note_off_c, 1, 81, 0
1, 75836, Note_off_c, 1, 69, 0
1, 75836, Note_off_c, 1, 57, 0
1, 75836, Note_off_c, 1, 45, 0
1, 75840, Note_on_c, 1, 80, 127
1, 75840, Note_on_c, 1, 68, 127
1, 75840, Note_on_c, 1, 56, 127
1, 75840, Note_on_c, 1, 44, 127
1, 76028, Note_off_c, 1, 80, 0
1, 76028, Note_off_c, 1, 68, 0
1, 76028, Note_off_c, 1, 56, 0
1, 76028, Note_off_c, 1, 44, 0
1, 76032, Note_on_c, 1, 78, 127
1, 76032, Note_on_c, 1, 66, 127
1, 76032, Note_on_c, 1, 54, 127
1, 76032, Note_on_c, 1, 42, 127
1, 76220, Note_off_c, 1, 78, 0
1, 76220, Note_off_c, 1, 66, 0
1, 76220, Note_off_c, 1, 54, 0
1, 76220, Note_off_c, 1, 42, 0
1, 76224, Note_on_c, 1, 76, 127
1, 76224, Note_on_c, 1, 64, 127
1, 76224, Note_on_c, 1, 52, 127
1, 76224, Note_on_c, 1, 40, 127
1, 76412, Note_off_c, 1, 76, 0
1, 76412, Note_off_c, 1, 64, 0
1, 76412, Note_off_c, 1, 52, 0
1, 76412, Note_off_c, 1, 40, 0
1, 76416, Note_on_c, 1, 74, 127
1, 76416, Note_on_c, 1, 62, 127
1, 76416, Note_on_c, 1, 50, 127
1, 76416, Note_on_c, 1, 38, 127
1, 76604, Note_off_c, 1, 74, 0
1, 76604, Note_off_c, 1, 62, 0
1, 76604, Note_off_c, 1, 50, 0
1, 76604, Note_off_c, 1, 38, 0
1, 76608, Note_on_c, 1, 73, 127
1, 76608, Note_on_c, 1, 61, 127
1, 76608, Note_on_c, 1, 49, 127
1, 76608, Note_on_c, 1, 37, 127
1, 76796, Note_off_c, 1, 73, 0
1, 76796, Note_off_c, 1, 61, 0
1, 76796, Note_off_c, 1, 49, 0
1, 76796, Note_off_c, 1, 37, 0
1, 76800, Note_on_c, 1, 71, 127
1, 76800, Note_on_c, 1, 59, 127
1, 76800, Note_on_c, 1, 47, 127
1, 76800, Note_on_c, 1, 35, 127
1, 76988, Note_off_c, 1, 71, 0
1, 76988, Note_off_c, 1, 59, 0
1, 76988, Note_off_c, 1, 47, 0
1, 76988, Note_off_c, 1, 35, 0
1, 76992, Note_on_c, 1, 76, 127
1, 76992, Note_on_c, 1, 64, 127
1, 76992, Note_on_c, 1, 52, 127
1, 76992, Note_on_c, 1, 40, 127
1, 77180, Note_off_c, 1, 76, 0
1, 77180, Note_off_c, 1, 64, 0
1, 77180, Note_off_c, 1, 52, 0
1, 77180, Note_off_c, 1, 40, 0
1, 77184, Note_on_c, 1, 69, 127
1, 77184, Note_on_c, 1, 57, 127
1, 77184, Note_on_c, 1, 45, 127
1, 77184, Note_on_c, 1, 33, 127
1, 77440, Note_off_c, 1, 69, 0
1, 77440, Note_off_c, 1, 57, 0
1, 77696, Note_off_c, 1, 45, 0
1, 77696, Note_off_c, 1, 33, 0
1, 77952, Note_on_c, 1, 66, 127
1, 77952, Note_on_c, 1, 62, 127
1, 77952, Note_on_c, 1, 50, 127
1, 78140, Note_off_c, 1, 66, 0
1, 78140, Note_off_c, 1, 62, 0
1, 78140, Note_off_c, 1, 50, 0
1, 78144, Note_on_c, 1, 64, 127
1, 78144, Note_on_c, 1, 61, 127
1, 78144, Note_on_c, 1, 49, 127
1, 78272, Note_off_c, 1, 64, 0
1, 78272, Note_off_c, 1, 61, 0
1, 78272, Note_off_c, 1, 49, 0
1, 78336, Note_on_c, 1, 64, 127
1, 78336, Note_on_c, 1, 61, 127
1, 78336, Note_on_c, 1, 49, 127
1, 78524, Note_off_c, 1, 64, 0
1, 78524, Note_off_c, 1, 61, 0
1, 78524, Note_off_c, 1, 49, 0
1, 78528, Note_on_c, 1, 62, 127
1, 78528, Note_on_c, 1, 59, 127
1, 78528, Note_on_c, 1, 47, 127
1, 78656, Note_off_c, 1, 62, 0
1, 78656, Note_off_c, 1, 59, 0
1, 78656, Note_off_c, 1, 47, 0
1, 78720, Note_on_c, 1, 74, 127
1, 78720, Note_on_c, 1, 62, 127
1, 78720, Note_on_c, 1, 71, 127
1, 78720, Note_on_c, 1, 68, 127
1, 78720, Note_on_c, 1, 64, 127
1, 78720, Note_on_c, 1, 59, 127
1, 78720, Note_on_c, 1, 47, 127
1, 78908, Note_off_c, 1, 74, 0
1, 78908, Note_off_c, 1, 62, 0
1, 78908, Note_off_c, 1, 59, 0
1, 78908, Note_off_c, 1, 47, 0
1, 78912, Note_on_c, 1, 73, 127
1, 78912, Note_on_c, 1, 61, 127
1, 78912, Note_on_c, 1, 57, 127
1, 78912, Note_on_c, 1, 45, 127
1, 78976, Note_off_c, 1, 71, 0
1, 78976, Note_off_c, 1, 68, 0
1, 78976, Note_off_c, 1, 64, 0
1, 79040, Note_off_c, 1, 73, 0
1, 79040, Note_off_c, 1, 61, 0
1, 79040, Note_off_c, 1, 57, 0
1, 79040, Note_off_c, 1, 45, 0
1, 79104, Note_on_c, 1, 74, 127
1, 79104, Note_on_c, 1, 62, 127
1, 79104, Note_on_c, 1, 71, 127
1, 79104, Note_on_c, 1, 68, 127
1, 79104, Note_on_c, 1, 59, 127
1, 79104, Note_on_c, 1, 47, 127
1, 79292, Note_off_c, 1, 62, 0
1, 79292, Note_off_c, 1, 59, 0
1, 79292, Note_off_c, 1, 47, 0
1, 79296, Note_on_c, 1, 73, 127
1, 79296, Note_on_c, 1, 61, 127
1, 79296, Note_on_c, 1, 57, 127
1, 79296, Note_on_c, 1, 45, 127
1, 79360, Note_off_c, 1, 74, 0
1, 79360, Note_off_c, 1, 71, 0
1, 79360, Note_off_c, 1, 68, 0
1, 79424, Note_off_c, 1, 73, 0
1, 79424, Note_off_c, 1, 61, 0
1, 79424, Note_off_c, 1, 57, 0
1, 79424, Note_off_c, 1, 45, 0
1, 79488, Note_on_c, 1, 74, 127
1, 79488, Note_on_c, 1, 62, 127
1, 79488, Note_on_c, 1, 71, 127
1, 79488, Note_on_c, 1, 68, 127
1, 79488, Note_on_c, 1, 64, 127
1, 79488, Note_on_c, 1, 59, 127
1, 79488, Note_on_c, 1, 47, 127
1, 79744, Note_off_c, 1, 71, 0
1, 79744, Note_off_c, 1, 68, 0
1, 79744, Note_off_c, 1, 64, 0
1, 79744, Note_off_c, 1, 59, 0
1, 79744, Note_off_c, 1, 47, 0
1, 79872, Note_on_c, 1, 76, 127
1, 79872, Note_on_c, 1, 52, 127
1, 79872, Note_on_c, 1, 40, 127
1, 80060, Note_off_c, 1, 74, 0
1, 80060, Note_off_c, 1, 62, 0
1, 80128, Note_off_c, 1, 76, 0
1, 80128, Note_off_c, 1, 52, 0
1, 80128, Note_off_c, 1, 40, 0
1, 80256, Note_on_c, 1, 64, 127
1, 80256, Note_on_c, 1, 61, 127
1, 80256, Note_on_c, 1, 49, 127
1, 80444, Note_off_c, 1, 64, 0
1, 80444, Note_off_c, 1, 61, 0
1, 80444, Note_off_c, 1, 49, 0
1, 80448, Note_on_c, 1, 62, 127
1, 80448, Note_on_c, 1, 59, 127
1, 80448, Note_on_c, 1, 47, 127
1, 80576, Note_off_c, 1, 62, 0
1, 80576, Note_off_c, 1, 59, 0
1, 80576, Note_off_c, 1, 47, 0
1, 80640, Note_on_c, 1, 62, 127
1, 80640, Note_on_c, 1, 59, 127
1, 80640, Note_on_c, 1, 47, 127
1, 80828, Note_off_c, 1, 62, 0
1, 80828, Note_off_c, 1, 59, 0
1, 80828, Note_off_c, 1, 47, 0
1, 80832, Note_on_c, 1, 61, 127
1, 80832, Note_on_c, 1, 57, 127
1, 80832, Note_on_c, 1, 45, 127
1, 80960, Note_off_c, 1, 61, 0
1, 80960, Note_off_c, 1, 57, 0
1, 80960, Note_off_c, 1, 45, 0
1, 81024, Note_on_c, 1, 73, 127
1, 81024, Note_on_c, 1, 61, 127
1, 81024, Note_on_c, 1, 69, 127
1, 81024, Note_on_c, 1, 64, 127
1, 81024, Note_on_c, 1, 57, 127
1, 81024, Note_on_c, 1, 45, 127
1, 81212, Note_off_c, 1, 73, 0
1, 81212, Note_off_c, 1, 57, 0
1, 81212, Note_off_c, 1, 45, 0
1, 81216, Note_on_c, 1, 71, 127
1, 81216, Note_on_c, 1, 59, 127
1, 81216, Note_on_c, 1, 56, 127
1, 81216, Note_on_c, 1, 44, 127
1, 81280, Note_off_c, 1, 61, 0
1, 81280, Note_off_c, 1, 69, 0
1, 81280, Note_off_c, 1, 64, 0
1, 81344, Note_off_c, 1, 71, 0
1, 81344, Note_off_c, 1, 59, 0
1, 81344, Note_off_c, 1, 56, 0
1, 81344, Note_off_c, 1, 44, 0
1, 81408, Note_on_c, 1, 73, 127
1, 81408, Note_on_c, 1, 61, 127
1, 81408, Note_on_c, 1, 69, 127
1, 81408, Note_on_c, 1, 64, 127
1, 81408, Note_on_c, 1, 57, 127
1, 81408, Note_on_c, 1, 45, 127
1, 81596, Note_off_c, 1, 61, 0
1, 81596, Note_off_c, 1, 57, 0
1, 81596, Note_off_c, 1, 45, 0
1, 81600, Note_on_c, 1, 71, 127
1, 81600, Note_on_c, 1, 59, 127
1, 81600, Note_on_c, 1, 56, 127
1, 81600, Note_on_c, 1, 44, 127
1, 81664, Note_off_c, 1, 73, 0
1, 81664, Note_off_c, 1, 69, 0
1, 81664, Note_off_c, 1, 64, 0
1, 81728, Note_off_c, 1, 71, 0
1, 81728, Note_off_c, 1, 59, 0
1, 81728, Note_off_c, 1, 56, 0
1, 81728, Note_off_c, 1, 44, 0
1, 81792, Note_on_c, 1, 73, 127
1, 81792, Note_on_c, 1, 61, 127
1, 81792, Note_on_c, 1, 76, 127
1, 81792, Note_on_c, 1, 69, 127
1, 81792, Note_on_c, 1, 57, 127
1, 81792, Note_on_c, 1, 45, 127
1, 82048, Note_off_c, 1, 76, 0
1, 82048, Note_off_c, 1, 69, 0
1, 82048, Note_off_c, 1, 57, 0
1, 82048, Note_off_c, 1, 45, 0
1, 82176, Note_on_c, 1, 81, 127
1, 82176, Note_on_c, 1, 33, 127
1, 82364, Note_off_c, 1, 61, 0
1, 82432, Note_off_c, 1, 73, 0
1, 82432, Note_off_c, 1, 81, 0
1, 82432, Note_off_c, 1, 33, 0
1, 82560, Note_on_c, 1, 61, 127
1, 82560, Note_on_c, 1, 57, 127
1, 82688, Note_off_c, 1, 61, 0
1, 82688, Note_off_c, 1, 57, 0
1, 82752, Note_on_c, 1, 64, 127
1, 82752, Note_on_c, 1, 61, 127
1, 82880, Note_off_c, 1, 64, 0
1, 82880, Note_off_c, 1, 61, 0
1, 82944, Note_on_c, 1, 62, 127
1, 82944, Note_on_c, 1, 59, 127
1, 83324, Note_off_c, 1, 62, 0
1, 83324, Note_off_c, 1, 59, 0
1, 83328, Note_on_c, 1, 61, 127
1, 83328, Note_on_c, 1, 57, 127
1, 83584, Note_off_c, 1, 61, 0
1, 83584, Note_off_c, 1, 57, 0
1, 83712, Note_on_c, 1, 73, 127
1, 83712, Note_on_c, 1, 64, 127
1, 83712, Note_on_c, 1, 76, 127
1, 83712, Note_on_c, 1, 69, 127
1, 83712, Note_on_c, 1, 57, 127
1, 83712, Note_on_c, 1, 45, 127
1, 83840, Note_off_c, 1, 57, 0
1, 83840, Note_off_c, 1, 45, 0
1, 83904, Note_on_c, 1, 61, 127
1, 83904, Note_on_c, 1, 49, 127
1, 83968, Note_off_c, 1, 73, 0
1, 83968, Note_off_c, 1, 64, 0
1, 83968, Note_off_c, 1, 69, 0
1, 84032, Note_off_c, 1, 76, 0
1, 84032, Note_off_c, 1, 61, 0
1, 84032, Note_off_c, 1, 49, 0
1, 84096, Note_on_c, 1, 74, 127
1, 84096, Note_on_c, 1, 68, 127
1, 84096, Note_on_c, 1, 76, 127
1, 84096, Note_on_c, 1, 59, 127
1, 84096, Note_on_c, 1, 47, 127
1, 84352, Note_off_c, 1, 76, 0
1, 84476, Note_off_c, 1, 74, 0
1, 84476, Note_off_c, 1, 68, 0
1, 84476, Note_off_c, 1, 59, 0
1, 84476, Note_off_c, 1, 47, 0
1, 84480, Note_on_c, 1, 73, 127
1, 84480, Note_on_c, 1, 69, 127
1, 84480, Note_on_c, 1, 76, 127
1, 84480, Note_on_c, 1, 57, 127
1, 84480, Note_on_c, 1, 45, 127
1, 84736, Note_off_c, 1, 73, 0
1, 84736, Note_off_c, 1, 69, 0
1, 84736, Note_off_c, 1, 76, 0
1, 84736, Note_off_c, 1, 57, 0
1, 84736, Note_off_c, 1, 45, 0
1, 84864, Note_on_c, 1, 81, 127
1, 84864, Note_on_c, 1, 69, 127
1, 85052, Note_off_c, 1, 81, 0
1, 85052, Note_off_c, 1, 69, 0
1, 85056, Note_on_c, 1, 80, 127
1, 85056, Note_on_c, 1, 68, 127
1, 85244, Note_off_c, 1, 80, 0
1, 85244, Note_off_c, 1, 68, 0
1, 85248, Note_on_c, 1, 78, 127
1, 85248, Note_on_c, 1, 66, 127
1, 85436, Note_off_c, 1, 78, 0
1, 85436, Note_off_c, 1, 66, 0
1, 85440, Note_on_c, 1, 76, 127
1, 85440, Note_on_c, 1, 64, 127
1, 85628, Note_off_c, 1, 76, 0
1, 85628, Note_off_c, 1, 64, 0
1, 85632, Note_on_c, 1, 74, 127
1, 85632, Note_on_c, 1, 62, 127
1, 85820, Note_off_c, 1, 74, 0
1, 85820, Note_off_c, 1, 62, 0
1, 85824, Note_on_c, 1, 73, 127
1, 85824, Note_on_c, 1, 61, 127
1, 86012, Note_off_c, 1, 73, 0
1, 86012, Note_off_c, 1, 61, 0
1, 86016, Note_on_c, 1, 71, 127
1, 86016, Note_on_c, 1, 59, 127
1, 86204, Note_off_c, 1, 71, 0
1, 86204, Note_off_c, 1, 59, 0
1, 86208, Note_on_c, 1, 76, 127
1, 86208, Note_on_c, 1, 64, 127
1, 86396, Note_off_c, 1, 76, 0
1, 86396, Note_off_c, 1, 64, 0
1, 86400, Note_on_c, 1, 69, 127
1, 86400, Note_on_c, 1, 57, 127
1, 86588, Note_off_c, 1, 57, 0
1, 86592, Note_on_c, 1, 64, 127
1, 86592, Note_on_c, 1, 45, 127
1, 86592, Note_on_c, 1, 33, 127
1, 86780, Note_off_c, 1, 64, 0
1, 86780, Note_off_c, 1, 45, 0
1, 86780, Note_off_c, 1, 33, 0
1, 86784, Note_on_c, 1, 61, 127
1, 86784, Note_on_c, 1, 49, 127
1, 86784, Note_on_c, 1, 37, 127
1, 86912, Note_off_c, 1, 61, 0
1, 86972, Note_off_c, 1, 69, 0
1, 86972, Note_off_c, 1, 49, 0
1, 86972, Note_off_c, 1, 37, 0
1, 86976, Note_on_c, 1, 68, 127
1, 86976, Note_on_c, 1, 52, 127
1, 86976, Note_on_c, 1, 40, 127
1, 87164, Note_off_c, 1, 68, 0
1, 87164, Note_off_c, 1, 52, 0
1, 87164, Note_off_c, 1, 40, 0
1, 87168, Note_on_c, 1, 69, 127
1, 87168, Note_on_c, 1, 57, 127
1, 87168, Note_on_c, 1, 45, 127
1, 87296, Note_off_c, 1, 57, 0
1, 87296, Note_off_c, 1, 45, 0
1, 87360, Note_on_c, 1, 68, 127
1, 87360, Note_on_c, 1, 56, 127
1, 87360, Note_on_c, 1, 44, 127
1, 87488, Note_off_c, 1, 68, 0
1, 87488, Note_off_c, 1, 56, 0
1, 87488, Note_off_c, 1, 44, 0
1, 87552, Note_on_c, 1, 66, 127
1, 87552, Note_on_c, 1, 54, 127
1, 87552, Note_on_c, 1, 42, 127
1, 87680, Note_off_c, 1, 66, 0
1, 87680, Note_off_c, 1, 54, 0
1, 87680, Note_off_c, 1, 42, 0
1, 87744, Note_on_c, 1, 64, 127
1, 87744, Note_on_c, 1, 52, 127
1, 87744, Note_on_c, 1, 40, 127
1, 87872, Note_off_c, 1, 64, 0
1, 87872, Note_off_c, 1, 52, 0
1, 87872, Note_off_c, 1, 40, 0
1, 87932, Note_off_c, 1, 69, 0
1, 87936, Note_on_c, 1, 62, 127
1, 87936, Note_on_c, 1, 57, 127
1, 87936, Note_on_c, 1, 50, 127
1, 87936, Note_on_c, 1, 38, 127
1, 88064, Note_off_c, 1, 62, 0
1, 88064, Note_off_c, 1, 50, 0
1, 88064, Note_off_c, 1, 38, 0
1, 88128, Note_on_c, 1, 61, 127
1, 88128, Note_on_c, 1, 49, 127
1, 88128, Note_on_c, 1, 37, 127
1, 88192, Note_off_c, 1, 57, 0
1, 88256, Note_off_c, 1, 61, 0
1, 88256, Note_off_c, 1, 49, 0
1, 88256, Note_off_c, 1, 37, 0
1, 88320, Note_on_c, 1, 59, 127
1, 88320, Note_on_c, 1, 56, 127
1, 88320, Note_on_c, 1, 47, 127
1, 88320, Note_on_c, 1, 35, 127
1, 88448, Note_off_c, 1, 59, 0
1, 88448, Note_off_c, 1, 47, 0
1, 88448, Note_off_c, 1, 35, 0
1, 88512, Note_on_c, 1, 64, 127
1, 88512, Note_on_c, 1, 52, 127
1, 88512, Note_on_c, 1, 40, 127
1, 88576, Note_off_c, 1, 56, 0
1, 88640, Note_off_c, 1, 64, 0
1, 88640, Note_off_c, 1, 52, 0
1, 88640, Note_off_c, 1, 40, 0
1, 88704, Note_on_c, 1, 57, 127
1, 88704, Note_on_c, 1, 45, 127
1, 88704, Note_on_c, 1, 33, 127
1, 88816, Note_on_c, 1, 61, 127
1, 88860, Note_on_c, 1, 69, 127
1, 88880, Note_on_c, 1, 64, 127
1, 90236, Note_off_c, 1, 33, 0
1, 90244, Note_off_c, 1, 45, 0
1, 90496, Note_off_c, 1, 61, 0
1, 90516, Note_off_c, 1, 64, 0
1, 90532, Note_off_c, 1, 57, 0
1, 90532, Note_off_c, 1, 69, 0
1, 90532, End_track
0, 0, End_of_file