0, 0, Header, 1, 1, 480
1, 0, Start_track
1, 0, Title_t, "Test"
1, 0, Tempo, 500000
1, 0, Instrument_name_t, "Church Organ"
1, 711, Note_on_c, 1, 72, 127
1, 717, Note_on_c, 1, 64, 127
1, 719, Note_on_c, 1, 60, 127
1, 728, Note_on_c, 1, 67, 127
1, 825, Note_off_c, 1, 60, 0
1, 834, Note_off_c, 1, 67, 0
1, 842, Note_off_c, 1, 64, 0
1, 884, Note_off_c, 1, 72, 0
1, 948, Note_on_c, 1, 67, 127
1, 952, Note_on_c, 1, 76, 127
1, 957, Note_on_c, 1, 72, 127
1, 957, Note_on_c, 1, 48, 127
1, 1034, Note_off_c, 1, 76, 0
1, 1058, Note_off_c, 1, 67, 0
1, 1059, Note_off_c, 1, 72, 0
1, 1067, Note_off_c, 1, 48, 0
1, 1188, Note_on_c, 1, 79, 127
1, 1189, Note_on_c, 1, 67, 127
1, 1194, Note_on_c, 1, 52, 127
1, 1200, Note_on_c, 1, 72, 127
1, 1289, Note_off_c, 1, 72, 0
1, 1290, Note_off_c, 1, 67, 0
1, 1299, Note_off_c, 1, 52, 0
1, 1307, Note_off_c, 1, 79, 0
1, 1428, Note_on_c, 1, 81, 127
1, 1434, Note_on_c, 1, 65, 127
1, 1438, Note_on_c, 1, 72, 127
1, 1438, Note_on_c, 1, 53, 127
1, 1547, Note_off_c, 1, 65, 0
1, 1555, Note_off_c, 1, 72, 0
1, 1572, Note_off_c, 1, 53, 0
1, 1573, Note_off_c, 1, 81, 0
1, 1676, Note_on_c, 1, 60, 127
1, 1676, Note_on_c, 1, 57, 127
1, 1679, Note_on_c, 1, 79, 127
1, 1681, Note_on_c, 1, 69, 127
1, 1756, Note_off_c, 1, 57, 0
1, 1774, Note_off_c, 1, 69, 0
1, 1778, Note_off_c, 1, 60, 0
1, 1782, Note_on_c, 1, 53, 127
1, 1787, Note_on_c, 1, 77, 127
1, 1802, Note_off_c, 1, 79, 0
1, 1838, Note_off_c, 1, 77, 0
1, 1879, Note_off_c, 1, 53, 0
1, 1908, Note_on_c, 1, 62, 127
1, 1923, Note_on_c, 1, 65, 127
1, 2034, Note_off_c, 1, 65, 0
1, 2036, Note_on_c, 1, 76, 127
1, 2037, Note_off_c, 1, 62, 0
1, 2107, Note_off_c, 1, 76, 0
1, 2147, Note_on_c, 1, 59, 127
1, 2164, Note_on_c, 1, 74, 127
1, 2264, Note_off_c, 1, 74, 0
1, 2279, Note_off_c, 1, 59, 0
1, 2391, Note_on_c, 1, 76, 127
1, 2396, Note_on_c, 1, 67, 127
1, 2401, Note_on_c, 1, 60, 127
1, 2407, Note_on_c, 1, 72, 127
1, 2486, Note_off_c, 1, 76, 0
1, 2499, Note_off_c, 1, 72, 0
1, 2514, Note_off_c, 1, 67, 0
1, 2516, Note_off_c, 1, 60, 0
1, 2624, Note_on_c, 1, 77, 127
1, 2642, Note_on_c, 1, 53, 127
1, 2643, Note_on_c, 1, 69, 127
1, 2646, Note_on_c, 1, 74, 127
1, 2739, Note_off_c, 1, 74, 0
1, 2743, Note_off_c, 1, 69, 0
1, 2757, Note_off_c, 1, 53, 0
1, 2771, Note_off_c, 1, 77, 0
1, 2876, Note_on_c, 1, 74, 127
1, 2882, Note_on_c, 1, 55, 127
1, 2887, Note_on_c, 1, 67, 127
1, 2895, Note_on_c, 1, 71, 127
1, 2966, Note_off_c, 1, 74, 0
1, 2986, Note_on_c, 1, 72, 127
1, 2989, Note_off_c, 1, 71, 0
1, 3007, Note_off_c, 1, 55, 0
1, 3093, Note_off_c, 1, 72, 0
1, 3118, Note_on_c, 1, 59, 127
1, 3218, Note_on_c, 1, 76, 127
1, 3229, Note_off_c, 1, 59, 0
1, 3252, Note_off_c, 1, 67, 0
1, 3327, Note_off_c, 1, 76, 0
1, 3346, Note_on_c, 1, 77, 127
1, 3352, Note_on_c, 1, 55, 127
1, 3361, Note_on_c, 1, 71, 127
1, 3366, Note_on_c, 1, 67, 127
1, 3446, Note_off_c, 1, 71, 0
1, 3459, Note_off_c, 1, 77, 0
1, 3467, Note_off_c, 1, 55, 0
1, 3467, Note_on_c, 1, 74, 127
1, 3474, Note_off_c, 1, 67, 0
1, 3571, Note_off_c, 1, 74, 0
1, 3589, Note_on_c, 1, 60, 127
1, 3597, Note_on_c, 1, 76, 127
1, 3607, Note_on_c, 1, 72, 127
1, 3612, Note_on_c, 1, 67, 127
1, 3717, Note_off_c, 1, 60, 0
1, 3728, Note_off_c, 1, 67, 0
1, 3755, Note_off_c, 1, 76, 0
1, 3833, Note_on_c, 1, 79, 127
1, 3835, Note_on_c, 1, 59, 127
1, 3853, Note_on_c, 1, 64, 127
1, 3927, Note_off_c, 1, 79, 0
1, 3943, Note_off_c, 1, 64, 0
1, 3958, Note_off_c, 1, 72, 0
1, 3958, Note_off_c, 1, 59, 0
1, 4073, Note_on_c, 1, 84, 127
1, 4077, Note_on_c, 1, 57, 127
1, 4080, Note_on_c, 1, 76, 127
1, 4080, Note_on_c, 1, 69, 127
1, 4171, Note_off_c, 1, 76, 0
1, 4173, Note_off_c, 1, 84, 0
1, 4179, Note_off_c, 1, 69, 0
1, 4181, Note_off_c, 1, 57, 0
1, 4308, Note_on_c, 1, 79, 127
1, 4314, Note_on_c, 1, 74, 127
1, 4319, Note_on_c, 1, 50, 127
1, 4325, Note_on_c, 1, 69, 127
1, 4366, Note_on_c, 1, 78, 127
1, 4416, Note_off_c, 1, 79, 0
1, 4420, Note_off_c, 1, 74, 0
1, 4433, Note_off_c, 1, 69, 0
1, 4447, Note_off_c, 1, 50, 0
1, 4513, Note_off_c, 1, 78, 0
1, 4546, Note_on_c, 1, 69, 127
1, 4546, Note_on_c, 1, 54, 127
1, 4549, Note_on_c, 1, 76, 127
1, 4557, Note_on_c, 1, 66, 127
1, 4638, Note_off_c, 1, 54, 0
1, 4650, Note_off_c, 1, 69, 0
1, 4653, Note_on_c, 1, 50, 127
1, 4655, Note_off_c, 1, 66, 0
1, 4662, Note_on_c, 1, 74, 127
1, 4701, Note_off_c, 1, 76, 0
1, 4739, Note_off_c, 1, 50, 0
1, 4763, Note_off_c, 1, 74, 0
1, 4786, Note_on_c, 1, 72, 127
1, 4790, Note_on_c, 1, 55, 127
1, 4791, Note_on_c, 1, 67, 127
1, 4792, Note_on_c, 1, 62, 127
1, 4884, Note_off_c, 1, 67, 0
1, 4889, Note_off_c, 1, 62, 0
1, 4897, Note_off_c, 1, 55, 0
1, 4897, Note_on_c, 1, 71, 127
1, 4920, Note_off_c, 1, 72, 0
1, 4998, Note_off_c, 1, 71, 0
1, 5033, Note_on_c, 1, 76, 127
1, 5034, Note_on_c, 1, 67, 127
1, 5034, Note_on_c, 1, 48, 127
1, 5036, Note_on_c, 1, 60, 127
1, 5107, Note_off_c, 1, 67, 0
1, 5118, Note_off_c, 1, 60, 0
1, 5136, Note_off_c, 1, 48, 0
1, 5144, Note_on_c, 1, 59, 127
1, 5146, Note_on_c, 1, 69, 127
1, 5159, Note_off_c, 1, 76, 0
1, 5200, Note_off_c, 1, 69, 0
1, 5221, Note_off_c, 1, 59, 0
1, 5263, Note_on_c, 1, 67, 127
1, 5263, Note_on_c, 1, 60, 127
1, 5268, Note_on_c, 1, 50, 127
1, 5270, Note_on_c, 1, 71, 127
1, 5346, Note_off_c, 1, 60, 0
1, 5370, Note_on_c, 1, 69, 127
1, 5372, Note_on_c, 1, 66, 127
1, 5374, Note_on_c, 1, 57, 127
1, 5377, Note_off_c, 1, 67, 0
1, 5380, Note_off_c, 1, 71, 0
1, 5395, Note_off_c, 1, 50, 0
1, 5408, Note_off_c, 1, 66, 0
1, 5417, Note_off_c, 1, 69, 0
1, 5458, Note_off_c, 1, 57, 0
1, 5502, Note_on_c, 1, 62, 127
1, 5523, Note_on_c, 1, 38, 127
1, 5619, Note_off_c, 1, 62, 0
1, 5638, Note_off_c, 1, 38, 0
1, 5757, Note_on_c, 1, 43, 127
1, 5763, Note_on_c, 1, 59, 127
1, 5764, Note_on_c, 1, 67, 127
1, 5768, Note_on_c, 1, 62, 127
1, 5857, Note_off_c, 1, 43, 0
1, 5863, Note_on_c, 1, 50, 127
1, 5943, Note_off_c, 1, 50, 0
1, 5992, Note_on_c, 1, 55, 127
1, 6084, Note_off_c, 1, 55, 0
1, 6103, Note_on_c, 1, 57, 127
1, 6178, Note_off_c, 1, 57, 0
1, 6292, Note_off_c, 1, 59, 0
1, 6308, Note_off_c, 1, 67, 0
1, 6328, Note_off_c, 1, 62, 0
1, 6334, Note_on_c, 1, 53, 127
1, 6409, Note_off_c, 1, 53, 0
1, 6464, Note_on_c, 1, 52, 127
1, 6474, Note_on_c, 1, 64, 127
1, 6475, Note_on_c, 1, 72, 127
1, 6475, Note_on_c, 1, 67, 127
1, 6581, Note_off_c, 1, 52, 0
1, 6588, Note_off_c, 1, 67, 0
1, 6595, Note_off_c, 1, 64, 0
1, 6659, Note_off_c, 1, 72, 0
1, 6712, Note_on_c, 1, 76, 127
1, 6713, Note_on_c, 1, 67, 127
1, 6714, Note_on_c, 1, 72, 127
1, 6720, Note_on_c, 1, 48, 127
1, 6802, Note_off_c, 1, 76, 0
1, 6810, Note_off_c, 1, 72, 0
1, 6819, Note_off_c, 1, 67, 0
1, 6841, Note_off_c, 1, 48, 0
1, 6952, Note_on_c, 1, 67, 127
1, 6956, Note_on_c, 1, 79, 127
1, 6962, Note_on_c, 1, 52, 127
1, 6968, Note_on_c, 1, 72, 127
1, 7062, Note_off_c, 1, 67, 0
1, 7065, Note_off_c, 1, 52, 0
1, 7070, Note_off_c, 1, 72, 0
1, 7081, Note_off_c, 1, 79, 0
1, 7191, Note_on_c, 1, 81, 127
1, 7198, Note_on_c, 1, 65, 127
1, 7202, Note_on_c, 1, 53, 127
1, 7209, Note_on_c, 1, 72, 127
1, 7317, Note_off_c, 1, 65, 0
1, 7322, Note_off_c, 1, 72, 0
1, 7327, Note_off_c, 1, 53, 0
1, 7332, Note_off_c, 1, 81, 0
1, 7436, Note_on_c, 1, 60, 127
1, 7437, Note_on_c, 1, 69, 127
1, 7439, Note_on_c, 1, 57, 127
1, 7440, Note_on_c, 1, 79, 127
1, 7526, Note_off_c, 1, 57, 0
1, 7545, Note_on_c, 1, 77, 127
1, 7546, Note_off_c, 1, 69, 0
1, 7546, Note_on_c, 1, 53, 127
1, 7557, Note_off_c, 1, 60, 0
1, 7565, Note_off_c, 1, 79, 0
1, 7599, Note_off_c, 1, 77, 0
1, 7650, Note_off_c, 1, 53, 0
1, 7671, Note_on_c, 1, 62, 127
1, 7683, Note_on_c, 1, 65, 127
1, 7793, Note_off_c, 1, 62, 0
1, 7795, Note_off_c, 1, 65, 0
1, 7797, Note_on_c, 1, 76, 127
1, 7880, Note_off_c, 1, 76, 0
1, 7916, Note_on_c, 1, 59, 127
1, 7924, Note_on_c, 1, 74, 127
1, 8037, Note_off_c, 1, 74, 0
1, 8038, Note_off_c, 1, 59, 0
1, 8154, Note_on_c, 1, 76, 127
1, 8159, Note_on_c, 1, 60, 127
1, 8160, Note_on_c, 1, 67, 127
1, 8170, Note_on_c, 1, 72, 127
1, 8252, Note_off_c, 1, 76, 0
1, 8257, Note_off_c, 1, 60, 0
1, 8264, Note_off_c, 1, 72, 0
1, 8267, Note_off_c, 1, 67, 0
1, 8272, Note_on_c, 1, 72, 127
1, 8366, Note_off_c, 1, 72, 0
1, 8392, Note_on_c, 1, 77, 127
1, 8401, Note_on_c, 1, 53, 127
1, 8402, Note_on_c, 1, 69, 127
1, 8404, Note_on_c, 1, 74, 127
1, 8499, Note_off_c, 1, 53, 0
1, 8499, Note_off_c, 1, 69, 0
1, 8504, Note_off_c, 1, 74, 0
1, 8530, Note_off_c, 1, 77, 0
1, 8636, Note_on_c, 1, 74, 127
1, 8640, Note_on_c, 1, 55, 127
1, 8644, Note_on_c, 1, 67, 127
1, 8650, Note_on_c, 1, 71, 127
1, 8732, Note_off_c, 1, 74, 0
1, 8745, Note_on_c, 1, 72, 127
1, 8756, Note_off_c, 1, 71, 0
1, 8760, Note_off_c, 1, 55, 0
1, 8859, Note_off_c, 1, 72, 0
1, 8879, Note_on_c, 1, 59, 127
1, 8986, Note_on_c, 1, 76, 127
1, 8992, Note_off_c, 1, 59, 0
1, 9000, Note_off_c, 1, 67, 0
1, 9088, Note_off_c, 1, 76, 0
1, 9108, Note_on_c, 1, 77, 127
1, 9121, Note_on_c, 1, 55, 127
1, 9127, Note_on_c, 1, 67, 127
1, 9128, Note_on_c, 1, 71, 127
1, 9211, Note_off_c, 1, 77, 0
1, 9217, Note_off_c, 1, 71, 0
1, 9226, Note_off_c, 1, 55, 0
1, 9226, Note_on_c, 1, 74, 127
1, 9234, Note_off_c, 1, 67, 0
1, 9309, Note_off_c, 1, 74, 0
1, 9354, Note_on_c, 1, 60, 127
1, 9358, Note_on_c, 1, 76, 127
1, 9359, Note_on_c, 1, 72, 127
1, 9362, Note_on_c, 1, 67, 127
1, 9468, Note_off_c, 1, 60, 0
1, 9480, Note_off_c, 1, 67, 0
1, 9516, Note_off_c, 1, 76, 0
1, 9588, Note_on_c, 1, 59, 127
1, 9596, Note_on_c, 1, 79, 127
1, 9604, Note_on_c, 1, 64, 127
1, 9687, Note_off_c, 1, 79, 0
1, 9701, Note_off_c, 1, 64, 0
1, 9706, Note_off_c, 1, 59, 0
1, 9725, Note_off_c, 1, 72, 0
1, 9830, Note_on_c, 1, 84, 127
1, 9832, Note_on_c, 1, 57, 127
1, 9840, Note_on_c, 1, 76, 127
1, 9843, Note_on_c, 1, 69, 127
1, 9938, Note_off_c, 1, 57, 0
1, 9947, Note_off_c, 1, 76, 0
1, 9947, Note_off_c, 1, 69, 0
1, 9951, Note_off_c, 1, 84, 0
1, 10070, Note_on_c, 1, 50, 127
1, 10078, Note_on_c, 1, 74, 127
1, 10078, Note_on_c, 1, 79, 127
1, 10086, Note_on_c, 1, 69, 127
1, 10143, Note_on_c, 1, 78, 127
1, 10194, Note_off_c, 1, 79, 0
1, 10203, Note_off_c, 1, 50, 0
1, 10218, Note_off_c, 1, 69, 0
1, 10223, Note_off_c, 1, 74, 0
1, 10277, Note_off_c, 1, 78, 0
1, 10309, Note_on_c, 1, 54, 127
1, 10310, Note_on_c, 1, 69, 127
1, 10312, Note_on_c, 1, 66, 127
1, 10316, Note_on_c, 1, 76, 127
1, 10402, Note_off_c, 1, 54, 0
1, 10414, Note_off_c, 1, 69, 0
1, 10420, Note_on_c, 1, 74, 127
1, 10424, Note_on_c, 1, 50, 127
1, 10426, Note_off_c, 1, 66, 0
1, 10456, Note_off_c, 1, 76, 0
1, 10511, Note_off_c, 1, 50, 0
1, 10523, Note_off_c, 1, 74, 0
1, 10541, Note_on_c, 1, 67, 127
1, 10542, Note_on_c, 1, 72, 127
1, 10545, Note_on_c, 1, 55, 127
1, 10553, Note_on_c, 1, 62, 127
1, 10652, Note_on_c, 1, 71, 127
1, 10653, Note_off_c, 1, 67, 0
1, 10658, Note_off_c, 1, 55, 0
1, 10679, Note_off_c, 1, 72, 0
1, 10679, Note_off_c, 1, 62, 0
1, 10758, Note_off_c, 1, 71, 0
1, 10774, Note_on_c, 1, 60, 127
1, 10776, Note_on_c, 1, 67, 127
1, 10780, Note_on_c, 1, 76, 127
1, 10787, Note_on_c, 1, 48, 127
1, 10856, Note_off_c, 1, 67, 0
1, 10869, Note_off_c, 1, 60, 0
1, 10887, Note_off_c, 1, 48, 0
1, 10890, Note_on_c, 1, 59, 127
1, 10898, Note_on_c, 1, 69, 127
1, 10918, Note_off_c, 1, 76, 0
1, 10960, Note_off_c, 1, 69, 0
1, 10973, Note_off_c, 1, 59, 0
1, 11012, Note_on_c, 1, 60, 127
1, 11014, Note_on_c, 1, 67, 127
1, 11023, Note_on_c, 1, 71, 127
1, 11028, Note_on_c, 1, 50, 127
1, 11105, Note_off_c, 1, 60, 0
1, 11115, Note_on_c, 1, 69, 127
1, 11121, Note_on_c, 1, 57, 127
1, 11132, Note_on_c, 1, 66, 127
1, 11137, Note_off_c, 1, 67, 0
1, 11137, Note_off_c, 1, 71, 0
1, 11140, Note_off_c, 1, 50, 0
1, 11170, Note_off_c, 1, 66, 0
1, 11172, Note_off_c, 1, 69, 0
1, 11214, Note_off_c, 1, 57, 0
1, 11257, Note_on_c, 1, 62, 127
1, 11274, Note_on_c, 1, 38, 127
1, 11367, Note_off_c, 1, 62, 0
1, 11374, Note_off_c, 1, 38, 0
1, 11515, Note_on_c, 1, 67, 127
1, 11516, Note_on_c, 1, 62, 127
1, 11518, Note_on_c, 1, 43, 127
1, 11520, Note_on_c, 1, 59, 127
1, 11643, Note_off_c, 1, 43, 0
1, 11748, Note_on_c, 1, 47, 127
1, 11852, Note_off_c, 1, 47, 0
1, 11980, Note_on_c, 1, 50, 127
1, 12039, Note_off_c, 1, 59, 0
1, 12047, Note_off_c, 1, 67, 0
1, 12051, Note_off_c, 1, 62, 0
1, 12093, Note_off_c, 1, 50, 0
1, 12234, Note_on_c, 1, 62, 127
1, 12234, Note_on_c, 1, 59, 127
1, 12235, Note_on_c, 1, 67, 127
1, 12240, Note_on_c, 1, 55, 127
1, 12344, Note_off_c, 1, 55, 0
1, 12347, Note_off_c, 1, 59, 0
1, 12357, Note_off_c, 1, 62, 0
1, 12384, Note_off_c, 1, 67, 0
1, 12462, Note_on_c, 1, 50, 127
1, 12472, Note_on_c, 1, 67, 127
1, 12473, Note_on_c, 1, 71, 127
1, 12480, Note_on_c, 1, 62, 127
1, 12554, Note_off_c, 1, 71, 0
1, 12571, Note_off_c, 1, 50, 0
1, 12571, Note_off_c, 1, 67, 0
1, 12572, Note_off_c, 1, 62, 0
1, 12579, Note_on_c, 1, 67, 127
1, 12662, Note_off_c, 1, 67, 0
1, 12703, Note_on_c, 1, 74, 127
1, 12708, Note_on_c, 1, 47, 127
1, 12715, Note_on_c, 1, 67, 127
1, 12723, Note_on_c, 1, 62, 127
1, 12814, Note_off_c, 1, 47, 0
1, 12816, Note_off_c, 1, 62, 0
1, 12818, Note_off_c, 1, 74, 0
1, 12820, Note_off_c, 1, 67, 0
1, 12945, Note_on_c, 1, 77, 127
1, 12949, Note_on_c, 1, 62, 127
1, 12949, Note_on_c, 1, 44, 127
1, 12950, Note_on_c, 1, 71, 127
1, 13051, Note_off_c, 1, 62, 0
1, 13070, Note_off_c, 1, 71, 0
1, 13074, Note_off_c, 1, 77, 0
1, 13079, Note_off_c, 1, 44, 0
1, 13184, Note_on_c, 1, 76, 127
1, 13184, Note_on_c, 1, 47, 127
1, 13192, Note_on_c, 1, 72, 127
1, 13197, Note_on_c, 1, 68, 127
1, 13273, Note_off_c, 1, 47, 0
1, 13281, Note_on_c, 1, 71, 127
1, 13290, Note_on_c, 1, 74, 127
1, 13291, Note_off_c, 1, 72, 0
1, 13291, Note_on_c, 1, 44, 127
1, 13314, Note_off_c, 1, 76, 0
1, 13320, Note_off_c, 1, 68, 0
1, 13321, Note_off_c, 1, 71, 0
1, 13348, Note_off_c, 1, 74, 0
1, 13383, Note_off_c, 1, 44, 0
1, 13418, Note_on_c, 1, 52, 127
1, 13528, Note_on_c, 1, 69, 127
1, 13547, Note_off_c, 1, 52, 0
1, 13599, Note_off_c, 1, 69, 0
1, 13668, Note_on_c, 1, 48, 127
1, 13783, Note_off_c, 1, 48, 0
1, 13903, Note_on_c, 1, 72, 127
1, 13904, Note_on_c, 1, 53, 127
1, 13908, Note_on_c, 1, 69, 127
1, 14012, Note_off_c, 1, 69, 0
1, 14014, Note_off_c, 1, 72, 0
1, 14025, Note_off_c, 1, 53, 0
1, 14137, Note_on_c, 1, 71, 127
1, 14141, Note_on_c, 1, 81, 127
1, 14145, Note_on_c, 1, 50, 127
1, 14150, Note_on_c, 1, 65, 127
1, 14224, Note_off_c, 1, 71, 0
1, 14242, Note_off_c, 1, 50, 0
1, 14247, Note_off_c, 1, 65, 0
1, 14253, Note_off_c, 1, 81, 0
1, 14381, Note_on_c, 1, 52, 127
1, 14385, Note_on_c, 1, 80, 127
1, 14396, Note_on_c, 1, 71, 127
1, 14396, Note_on_c, 1, 64, 127
1, 14497, Note_on_c, 1, 81, 127
1, 14516, Note_off_c, 1, 52, 0
1, 14536, Note_off_c, 1, 80, 0
1, 14617, Note_on_c, 1, 83, 127
1, 14625, Note_on_c, 1, 56, 127
1, 14642, Note_off_c, 1, 81, 0
1, 14689, Note_off_c, 1, 83, 0
1, 14703, Note_off_c, 1, 56, 0
1, 14746, Note_off_c, 1, 71, 0
1, 14755, Note_off_c, 1, 64, 0
1, 14860, Note_on_c, 1, 64, 127
1, 14861, Note_on_c, 1, 76, 127
1, 14863, Note_on_c, 1, 68, 127
1, 14944, Note_off_c, 1, 76, 0
1, 14955, Note_off_c, 1, 68, 0
1, 14975, Note_off_c, 1, 64, 0
1, 14983, Note_on_c, 1, 74, 127
1, 15056, Note_off_c, 1, 74, 0
1, 15107, Note_on_c, 1, 69, 127
1, 15107, Note_on_c, 1, 57, 127
1, 15115, Note_on_c, 1, 64, 127
1, 15119, Note_on_c, 1, 72, 127
1, 15208, Note_off_c, 1, 64, 0
1, 15217, Note_off_c, 1, 69, 0
1, 15223, Note_off_c, 1, 57, 0
1, 15255, Note_off_c, 1, 72, 0
1, 15346, Note_on_c, 1, 72, 127
1, 15350, Note_on_c, 1, 76, 127
1, 15350, Note_on_c, 1, 45, 127
1, 15354, Note_on_c, 1, 69, 127
1, 15430, Note_off_c, 1, 76, 0
1, 15442, Note_off_c, 1, 69, 0
1, 15453, Note_off_c, 1, 72, 0
1, 15458, Note_off_c, 1, 45, 0
1, 15582, Note_on_c, 1, 81, 127
1, 15590, Note_on_c, 1, 48, 127
1, 15595, Note_on_c, 1, 64, 127
1, 15598, Note_on_c, 1, 69, 127
1, 15676, Note_off_c, 1, 69, 0
1, 15678, Note_off_c, 1, 64, 0
1, 15700, Note_off_c, 1, 81, 0
1, 15704, Note_off_c, 1, 48, 0
1, 15818, Note_on_c, 1, 71, 127
1, 15825, Note_on_c, 1, 50, 127
1, 15830, Note_on_c, 1, 65, 127
1, 15837, Note_on_c, 1, 69, 127
1, 15919, Note_off_c, 1, 71, 0
1, 15940, Note_off_c, 1, 50, 0
1, 15940, Note_on_c, 1, 72, 127
1, 16016, Note_off_c, 1, 72, 0
1, 16032, Note_off_c, 1, 69, 0
1, 16063, Note_on_c, 1, 53, 127
1, 16064, Note_on_c, 1, 74, 127
1, 16075, Note_on_c, 1, 68, 127
1, 16138, Note_off_c, 1, 53, 0
1, 16145, Note_off_c, 1, 68, 0
1, 16225, Note_off_c, 1, 65, 0
1, 16293, Note_on_c, 1, 56, 127
1, 16309, Note_on_c, 1, 64, 127
1, 16366, Note_off_c, 1, 74, 0
1, 16399, Note_off_c, 1, 56, 0
1, 16403, Note_off_c, 1, 64, 0
1, 16416, Note_on_c, 1, 62, 127
1, 16418, Note_on_c, 1, 77, 127
1, 16477, Note_off_c, 1, 62, 0
1, 16493, Note_off_c, 1, 77, 0
1, 16537, Note_on_c, 1, 72, 127
1, 16537, Note_on_c, 1, 57, 127
1, 16547, Note_on_c, 1, 76, 127
1, 16548, Note_on_c, 1, 69, 127
1, 16638, Note_off_c, 1, 69, 0
1, 16658, Note_off_c, 1, 57, 0
1, 16727, Note_off_c, 1, 72, 0
1, 16736, Note_off_c, 1, 76, 0
1, 16779, Note_on_c, 1, 50, 127
1, 16786, Note_on_c, 1, 74, 127
1, 16792, Note_on_c, 1, 71, 127
1, 16794, Note_on_c, 1, 65, 127
1, 16872, Note_off_c, 1, 71, 0
1, 16885, Note_off_c, 1, 65, 0
1, 16891, Note_off_c, 1, 50, 0
1, 16893, Note_on_c, 1, 72, 127
1, 16900, Note_on_c, 1, 69, 127
1, 16901, Note_off_c, 1, 74, 0
1, 16969, Note_off_c, 1, 72, 0
1, 16974, Note_off_c, 1, 69, 0
1, 17014, Note_on_c, 1, 71, 127
1, 17022, Note_on_c, 1, 52, 127
1, 17025, Note_on_c, 1, 68, 127
1, 17029, Note_on_c, 1, 59, 127
1, 17112, Note_off_c, 1, 68, 0
1, 17123, Note_off_c, 1, 52, 0
1, 17126, Note_off_c, 1, 59, 0
1, 17126, Note_on_c, 1, 69, 127
1, 17130, Note_on_c, 1, 72, 127
1, 17141, Note_off_c, 1, 71, 0
1, 17204, Note_off_c, 1, 69, 0
1, 17224, Note_off_c, 1, 72, 0
1, 17256, Note_on_c, 1, 64, 127
1, 17262, Note_on_c, 1, 45, 127
1, 17272, Note_on_c, 1, 69, 127
1, 17280, Note_on_c, 1, 60, 127
1, 17409, Note_off_c, 1, 45, 0
1, 17493, Note_on_c, 1, 48, 127
1, 17584, Note_off_c, 1, 48, 0
1, 17591, Note_off_c, 1, 64, 0
1, 17631, Note_on_c, 1, 65, 127
1, 17704, Note_off_c, 1, 65, 0
1, 17739, Note_on_c, 1, 67, 127
1, 17743, Note_on_c, 1, 53, 127
1, 17791, Note_off_c, 1, 67, 0
1, 17854, Note_off_c, 1, 60, 0
1, 17868, Note_off_c, 1, 53, 0
1, 17893, Note_off_c, 1, 69, 0
1, 17985, Note_on_c, 1, 52, 127
1, 18103, Note_off_c, 1, 52, 0
1, 18228, Note_on_c, 1, 72, 127
1, 18310, Note_off_c, 1, 72, 0
1, 18467, Note_on_c, 1, 76, 127
1, 18470, Note_on_c, 1, 60, 127
1, 18491, Note_on_c, 1, 67, 127
1, 18576, Note_off_c, 1, 60, 0
1, 18592, Note_off_c, 1, 76, 0
1, 18604, Note_off_c, 1, 67, 0
1, 18705, Note_on_c, 1, 69, 127
1, 18714, Note_on_c, 1, 65, 127
1, 18714, Note_on_c, 1, 60, 127
1, 18714, Note_on_c, 1, 53, 127
1, 18790, Note_off_c, 1, 53, 0
1, 18806, Note_off_c, 1, 69, 0
1, 18811, Note_off_c, 1, 60, 0
1, 18813, Note_off_c, 1, 65, 0
1, 18813, Note_on_c, 1, 52, 127
1, 18824, Note_on_c, 1, 71, 127
1, 18899, Note_off_c, 1, 52, 0
1, 18903, Note_off_c, 1, 71, 0
1, 18934, Note_on_c, 1, 53, 127
1, 18938, Note_on_c, 1, 72, 127
1, 18947, Note_on_c, 1, 62, 127
1, 18951, Note_on_c, 1, 67, 127
1, 19024, Note_off_c, 1, 53, 0
1, 19040, Note_on_c, 1, 71, 127
1, 19044, Note_on_c, 1, 50, 127
1, 19063, Note_off_c, 1, 72, 0
1, 19093, Note_off_c, 1, 71, 0
1, 19128, Note_off_c, 1, 50, 0
1, 19177, Note_on_c, 1, 55, 127
1, 19295, Note_on_c, 1, 69, 127
1, 19300, Note_off_c, 1, 55, 0
1, 19319, Note_off_c, 1, 67, 0
1, 19323, Note_off_c, 1, 62, 0
1, 19380, Note_off_c, 1, 69, 0
1, 19423, Note_on_c, 1, 52, 127
1, 19429, Note_on_c, 1, 64, 127
1, 19534, Note_off_c, 1, 52, 0
1, 19537, Note_off_c, 1, 64, 0
1, 19658, Note_on_c, 1, 57, 127
1, 19665, Note_on_c, 1, 60, 127
1, 19665, Note_on_c, 1, 77, 127
1, 19669, Note_on_c, 1, 72, 127
1, 19751, Note_off_c, 1, 77, 0
1, 19772, Note_off_c, 1, 60, 0
1, 19773, Note_off_c, 1, 57, 0
1, 19860, Note_off_c, 1, 72, 0
1, 19901, Note_on_c, 1, 53, 127
1, 19904, Note_on_c, 1, 81, 127
1, 19915, Note_on_c, 1, 69, 127
1, 19915, Note_on_c, 1, 62, 127
1, 20007, Note_off_c, 1, 62, 0
1, 20015, Note_off_c, 1, 53, 0
1, 20015, Note_off_c, 1, 81, 0
1, 20028, Note_off_c, 1, 69, 0
1, 20139, Note_on_c, 1, 71, 127
1, 20144, Note_on_c, 1, 62, 127
1, 20147, Note_on_c, 1, 55, 127
1, 20158, Note_on_c, 1, 67, 127
1, 20244, Note_off_c, 1, 71, 0
1, 20250, Note_off_c, 1, 67, 0
1, 20255, Note_on_c, 1, 72, 127
1, 20286, Note_off_c, 1, 55, 0
1, 20337, Note_off_c, 1, 62, 0
1, 20337, Note_off_c, 1, 72, 0
1, 20372, Note_on_c, 1, 74, 127
1, 20380, Note_on_c, 1, 64, 127
1, 20390, Note_on_c, 1, 60, 127
1, 20397, Note_on_c, 1, 67, 127
1, 20466, Note_off_c, 1, 60, 0
1, 20468, Note_off_c, 1, 64, 0
1, 20470, Note_on_c, 1, 72, 127
1, 20486, Note_on_c, 1, 62, 127
1, 20495, Note_off_c, 1, 74, 0
1, 20503, Note_on_c, 1, 59, 127
1, 20527, Note_off_c, 1, 72, 0
1, 20573, Note_off_c, 1, 62, 0
1, 20573, Note_off_c, 1, 59, 0
1, 20729, Note_on_c, 1, 71, 127
1, 20734, Note_on_c, 1, 57, 127
1, 20747, Note_off_c, 1, 67, 0
1, 20814, Note_off_c, 1, 57, 0
1, 20830, Note_off_c, 1, 71, 0
1, 21092, Note_on_c, 1, 71, 127
1, 21099, Note_on_c, 1, 55, 127
1, 21109, Note_on_c, 1, 62, 127
1, 21197, Note_on_c, 1, 67, 127
1, 21200, Note_off_c, 1, 62, 0
1, 21204, Note_off_c, 1, 71, 0
1, 21233, Note_off_c, 1, 55, 0
1, 21307, Note_off_c, 1, 67, 0
1, 21335, Note_on_c, 1, 77, 127
1, 21338, Note_on_c, 1, 59, 127
1, 21342, Note_on_c, 1, 67, 127
1, 21355, Note_on_c, 1, 74, 127
1, 21449, Note_off_c, 1, 67, 0
1, 21451, Note_off_c, 1, 59, 0
1, 21455, Note_off_c, 1, 74, 0
1, 21492, Note_off_c, 1, 77, 0
1, 21583, Note_on_c, 1, 48, 127
1, 21587, Note_on_c, 1, 76, 127
1, 21595, Note_on_c, 1, 72, 127
1, 21597, Note_on_c, 1, 67, 127
1, 21708, Note_off_c, 1, 67, 0
1, 21709, Note_off_c, 1, 72, 0
1, 21716, Note_off_c, 1, 48, 0
1, 21738, Note_off_c, 1, 76, 0
1, 21823, Note_on_c, 1, 53, 127
1, 21831, Note_on_c, 1, 65, 127
1, 21835, Note_on_c, 1, 81, 127
1, 21835, Note_on_c, 1, 72, 127
1, 21909, Note_off_c, 1, 53, 0
1, 21931, Note_on_c, 1, 50, 127
1, 21937, Note_off_c, 1, 72, 0
1, 21939, Note_off_c, 1, 65, 0
1, 21944, Note_on_c, 1, 79, 127
1, 21948, Note_off_c, 1, 81, 0
1, 22026, Note_off_c, 1, 50, 0
1, 22056, Note_off_c, 1, 79, 0
1, 22060, Note_on_c, 1, 59, 127
1, 22066, Note_on_c, 1, 81, 127
1, 22070, Note_on_c, 1, 74, 127
1, 22075, Note_on_c, 1, 65, 127
1, 22167, Note_off_c, 1, 74, 0
1, 22177, Note_off_c, 1, 59, 0
1, 22178, Note_on_c, 1, 77, 127
1, 22182, Note_off_c, 1, 65, 0
1, 22183, Note_off_c, 1, 81, 0
1, 22275, Note_off_c, 1, 77, 0
1, 22304, Note_on_c, 1, 79, 127
1, 22306, Note_on_c, 1, 72, 127
1, 22306, Note_on_c, 1, 52, 127
1, 22319, Note_on_c, 1, 64, 127
1, 22398, Note_off_c, 1, 79, 0
1, 22416, Note_off_c, 1, 72, 0
1, 22423, Note_off_c, 1, 64, 0
1, 22432, Note_off_c, 1, 52, 0
1, 22548, Note_on_c, 1, 72, 127
1, 22553, Note_on_c, 1, 69, 127
1, 22553, Note_on_c, 1, 53, 127
1, 22557, Note_on_c, 1, 64, 127
1, 22644, Note_off_c, 1, 69, 0
1, 22658, Note_off_c, 1, 72, 0
1, 22664, Note_off_c, 1, 64, 0
1, 22670, Note_off_c, 1, 53, 0
1, 22789, Note_on_c, 1, 71, 127
1, 22791, Note_on_c, 1, 55, 127
1, 22797, Note_on_c, 1, 67, 127
1, 22797, Note_on_c, 1, 62, 127
1, 22889, Note_off_c, 1, 62, 0
1, 22892, Note_off_c, 1, 67, 0
1, 22900, Note_off_c, 1, 71, 0
1, 22922, Note_off_c, 1, 55, 0
1, 23036, Note_on_c, 1, 64, 127
1, 23037, Note_on_c, 1, 48, 127
1, 23041, Note_on_c, 1, 72, 127
1, 23043, Note_on_c, 1, 67, 127
1, 23124, Note_off_c, 1, 48, 0
1, 23139, Note_on_c, 1, 47, 127
1, 23222, Note_off_c, 1, 47, 0
1, 23371, Note_on_c, 1, 50, 127
1, 23452, Note_off_c, 1, 50, 0
1, 23491, Note_on_c, 1, 52, 127
1, 23572, Note_off_c, 1, 52, 0
1, 23578, Note_off_c, 1, 67, 0
1, 23601, Note_off_c, 1, 72, 0
1, 23608, Note_off_c, 1, 64, 0
1, 23615, Note_on_c, 1, 53, 127
1, 23679, Note_off_c, 1, 53, 0
1, 23738, Note_on_c, 1, 55, 127
1, 23741, Note_on_c, 1, 67, 127
1, 23750, Note_on_c, 1, 62, 127
1, 23754, Note_on_c, 1, 59, 127
1, 23865, Note_off_c, 1, 62, 0
1, 23867, Note_off_c, 1, 55, 0
1, 23869, Note_off_c, 1, 59, 0
1, 23883, Note_off_c, 1, 67, 0
1, 23984, Note_on_c, 1, 50, 127
1, 23991, Note_on_c, 1, 71, 127
1, 23995, Note_on_c, 1, 67, 127
1, 23996, Note_on_c, 1, 62, 127
1, 24076, Note_off_c, 1, 71, 0
1, 24092, Note_off_c, 1, 62, 0
1, 24101, Note_off_c, 1, 67, 0
1, 24105, Note_off_c, 1, 50, 0
1, 24232, Note_on_c, 1, 74, 127
1, 24234, Note_on_c, 1, 67, 127
1, 24234, Note_on_c, 1, 62, 127
1, 24238, Note_on_c, 1, 47, 127
1, 24342, Note_off_c, 1, 74, 0
1, 24344, Note_off_c, 1, 67, 0
1, 24347, Note_off_c, 1, 62, 0
1, 24357, Note_off_c, 1, 47, 0
1, 24471, Note_on_c, 1, 62, 127
1, 24471, Note_on_c, 1, 44, 127
1, 24471, Note_on_c, 1, 77, 127
1, 24482, Note_on_c, 1, 71, 127
1, 24592, Note_off_c, 1, 62, 0
1, 24596, Note_off_c, 1, 71, 0
1, 24600, Note_off_c, 1, 77, 0
1, 24615, Note_off_c, 1, 44, 0
1, 24701, Note_on_c, 1, 47, 127
1, 24709, Note_on_c, 1, 76, 127
1, 24713, Note_on_c, 1, 68, 127
1, 24722, Note_on_c, 1, 72, 127
1, 24796, Note_off_c, 1, 47, 0
1, 24799, Note_on_c, 1, 74, 127
1, 24809, Note_on_c, 1, 71, 127
1, 24815, Note_on_c, 1, 44, 127
1, 24822, Note_off_c, 1, 68, 0
1, 24824, Note_off_c, 1, 72, 0
1, 24838, Note_off_c, 1, 76, 0
1, 24852, Note_off_c, 1, 71, 0
1, 24874, Note_off_c, 1, 74, 0
1, 24906, Note_off_c, 1, 44, 0
1, 24938, Note_on_c, 1, 52, 127
1, 25059, Note_off_c, 1, 52, 0
1, 25062, Note_on_c, 1, 69, 127
1, 25124, Note_off_c, 1, 69, 0
1, 25192, Note_on_c, 1, 48, 127
1, 25304, Note_off_c, 1, 48, 0
1, 25420, Note_on_c, 1, 69, 127
1, 25428, Note_on_c, 1, 72, 127
1, 25432, Note_on_c, 1, 53, 127
1, 25531, Note_off_c, 1, 69, 0
1, 25534, Note_off_c, 1, 72, 0
1, 25545, Note_off_c, 1, 53, 0
1, 25664, Note_on_c, 1, 50, 127
1, 25667, Note_on_c, 1, 71, 127
1, 25667, Note_on_c, 1, 65, 127
1, 25670, Note_on_c, 1, 81, 127
1, 25764, Note_off_c, 1, 71, 0
1, 25773, Note_off_c, 1, 65, 0
1, 25774, Note_off_c, 1, 50, 0
1, 25788, Note_off_c, 1, 81, 0
1, 25910, Note_on_c, 1, 80, 127
1, 25910, Note_on_c, 1, 71, 127
1, 25910, Note_on_c, 1, 52, 127
1, 25915, Note_on_c, 1, 64, 127
1, 26024, Note_on_c, 1, 81, 127
1, 26057, Note_off_c, 1, 80, 0
1, 26077, Note_off_c, 1, 52, 0
1, 26141, Note_on_c, 1, 83, 127
1, 26149, Note_on_c, 1, 56, 127
1, 26159, Note_off_c, 1, 81, 0
1, 26206, Note_off_c, 1, 83, 0
1, 26229, Note_off_c, 1, 56, 0
1, 26276, Note_off_c, 1, 71, 0
1, 26280, Note_off_c, 1, 64, 0
1, 26386, Note_on_c, 1, 64, 127
1, 26390, Note_on_c, 1, 76, 127
1, 26391, Note_on_c, 1, 68, 127
1, 26460, Note_off_c, 1, 76, 0
1, 26480, Note_off_c, 1, 68, 0
1, 26504, Note_on_c, 1, 74, 127
1, 26510, Note_off_c, 1, 64, 0
1, 26582, Note_off_c, 1, 74, 0
1, 26624, Note_on_c, 1, 69, 127
1, 26628, Note_on_c, 1, 57, 127
1, 26631, Note_on_c, 1, 64, 127
1, 26633, Note_on_c, 1, 72, 127
1, 26733, Note_off_c, 1, 69, 0
1, 26739, Note_off_c, 1, 64, 0
1, 26764, Note_off_c, 1, 57, 0
1, 26791, Note_off_c, 1, 72, 0
1, 26864, Note_on_c, 1, 72, 127
1, 26868, Note_on_c, 1, 45, 127
1, 26870, Note_on_c, 1, 69, 127
1, 26872, Note_on_c, 1, 76, 127
1, 26973, Note_off_c, 1, 72, 0
1, 26976, Note_off_c, 1, 69, 0
1, 26979, Note_off_c, 1, 76, 0
1, 26995, Note_off_c, 1, 45, 0
1, 27100, Note_on_c, 1, 48, 127
1, 27105, Note_on_c, 1, 69, 127
1, 27114, Note_on_c, 1, 81, 127
1, 27117, Note_on_c, 1, 64, 127
1, 27203, Note_off_c, 1, 69, 0
1, 27210, Note_off_c, 1, 64, 0
1, 27215, Note_off_c, 1, 81, 0
1, 27218, Note_off_c, 1, 48, 0
1, 27344, Note_on_c, 1, 69, 127
1, 27350, Note_on_c, 1, 50, 127
1, 27351, Note_on_c, 1, 71, 127
1, 27370, Note_on_c, 1, 65, 127
1, 27456, Note_off_c, 1, 71, 0
1, 27471, Note_on_c, 1, 72, 127
1, 27501, Note_off_c, 1, 50, 0
1, 27546, Note_off_c, 1, 72, 0
1, 27551, Note_off_c, 1, 69, 0
1, 27581, Note_on_c, 1, 53, 127
1, 27586, Note_on_c, 1, 74, 127
1, 27588, Note_on_c, 1, 68, 127
1, 27657, Note_off_c, 1, 68, 0
1, 27665, Note_off_c, 1, 53, 0
1, 27774, Note_off_c, 1, 65, 0
1, 27827, Note_on_c, 1, 56, 127
1, 27828, Note_on_c, 1, 64, 127
1, 27890, Note_off_c, 1, 74, 0
1, 27915, Note_off_c, 1, 64, 0
1, 27936, Note_on_c, 1, 77, 127
1, 27937, Note_on_c, 1, 62, 127
1, 27944, Note_off_c, 1, 56, 0
1, 28008, Note_off_c, 1, 62, 0
1, 28016, Note_off_c, 1, 77, 0
1, 28066, Note_on_c, 1, 57, 127
1, 28067, Note_on_c, 1, 76, 127
1, 28070, Note_on_c, 1, 72, 127
1, 28074, Note_on_c, 1, 69, 127
1, 28175, Note_off_c, 1, 69, 0
1, 28188, Note_off_c, 1, 57, 0
1, 28260, Note_off_c, 1, 72, 0
1, 28274, Note_off_c, 1, 76, 0
1, 28303, Note_on_c, 1, 74, 127
1, 28311, Note_on_c, 1, 71, 127
1, 28311, Note_on_c, 1, 50, 127
1, 28313, Note_on_c, 1, 65, 127
1, 28393, Note_off_c, 1, 71, 0
1, 28407, Note_off_c, 1, 65, 0
1, 28411, Note_on_c, 1, 72, 127
1, 28414, Note_off_c, 1, 74, 0
1, 28419, Note_on_c, 1, 69, 127
1, 28422, Note_off_c, 1, 50, 0
1, 28499, Note_off_c, 1, 69, 0
1, 28508, Note_off_c, 1, 72, 0
1, 28532, Note_on_c, 1, 71, 127
1, 28538, Note_on_c, 1, 68, 127
1, 28552, Note_on_c, 1, 52, 127
1, 28558, Note_on_c, 1, 59, 127
1, 28621, Note_off_c, 1, 68, 0
1, 28645, Note_on_c, 1, 69, 127
1, 28652, Note_on_c, 1, 72, 127
1, 28653, Note_off_c, 1, 71, 0
1, 28656, Note_off_c, 1, 52, 0
1, 28656, Note_off_c, 1, 59, 0
1, 28715, Note_off_c, 1, 69, 0
1, 28751, Note_off_c, 1, 72, 0
1, 28782, Note_on_c, 1, 45, 127
1, 28785, Note_on_c, 1, 69, 127
1, 28789, Note_on_c, 1, 64, 127
1, 28802, Note_on_c, 1, 60, 127
1, 28987, Note_off_c, 1, 45, 0
1, 29019, Note_on_c, 1, 48, 127
1, 29085, Note_off_c, 1, 64, 0
1, 29101, Note_off_c, 1, 48, 0
1, 29149, Note_on_c, 1, 65, 127
1, 29221, Note_off_c, 1, 65, 0
1, 29254, Note_on_c, 1, 53, 127
1, 29262, Note_on_c, 1, 67, 127
1, 29317, Note_off_c, 1, 67, 0
1, 29382, Note_off_c, 1, 60, 0
1, 29387, Note_off_c, 1, 69, 0
1, 29388, Note_off_c, 1, 53, 0
1, 29509, Note_on_c, 1, 52, 127
1, 29638, Note_off_c, 1, 52, 0
1, 29755, Note_on_c, 1, 72, 127
1, 29833, Note_off_c, 1, 72, 0
1, 29985, Note_on_c, 1, 60, 127
1, 29988, Note_on_c, 1, 76, 127
1, 30004, Note_on_c, 1, 67, 127
1, 30105, Note_off_c, 1, 67, 0
1, 30114, Note_off_c, 1, 76, 0
1, 30116, Note_off_c, 1, 60, 0
1, 30230, Note_on_c, 1, 69, 127
1, 30230, Note_on_c, 1, 60, 127
1, 30230, Note_on_c, 1, 53, 127
1, 30234, Note_on_c, 1, 65, 127
1, 30316, Note_off_c, 1, 53, 0
1, 30329, Note_on_c, 1, 52, 127
1, 30332, Note_off_c, 1, 65, 0
1, 30336, Note_off_c, 1, 69, 0
1, 30336, Note_off_c, 1, 60, 0
1, 30344, Note_on_c, 1, 71, 127
1, 30423, Note_off_c, 1, 52, 0
1, 30425, Note_off_c, 1, 71, 0
1, 30456, Note_on_c, 1, 72, 127
1, 30456, Note_on_c, 1, 53, 127
1, 30468, Note_on_c, 1, 67, 127
1, 30472, Note_on_c, 1, 62, 127
1, 30548, Note_off_c, 1, 53, 0
1, 30558, Note_on_c, 1, 71, 127
1, 30564, Note_on_c, 1, 50, 127
1, 30571, Note_off_c, 1, 72, 0
1, 30606, Note_off_c, 1, 71, 0
1, 30663, Note_off_c, 1, 50, 0
1, 30695, Note_on_c, 1, 55, 127
1, 30813, Note_on_c, 1, 69, 127
1, 30823, Note_off_c, 1, 67, 0
1, 30831, Note_off_c, 1, 55, 0
1, 30864, Note_off_c, 1, 62, 0
1, 30906, Note_off_c, 1, 69, 0
1, 30948, Note_on_c, 1, 64, 127
1, 30949, Note_on_c, 1, 52, 127
1, 31065, Note_off_c, 1, 64, 0
1, 31094, Note_off_c, 1, 52, 0
1, 31180, Note_on_c, 1, 72, 127
1, 31184, Note_on_c, 1, 60, 127
1, 31185, Note_on_c, 1, 77, 127
1, 31196, Note_on_c, 1, 57, 127
1, 31269, Note_off_c, 1, 77, 0
1, 31298, Note_off_c, 1, 72, 0
1, 31302, Note_off_c, 1, 60, 0
1, 31318, Note_off_c, 1, 57, 0
1, 31419, Note_on_c, 1, 53, 127
1, 31423, Note_on_c, 1, 81, 127
1, 31430, Note_on_c, 1, 69, 127
1, 31434, Note_on_c, 1, 62, 127
1, 31546, Note_off_c, 1, 69, 0
1, 31547, Note_off_c, 1, 81, 0
1, 31551, Note_off_c, 1, 62, 0
1, 31562, Note_off_c, 1, 53, 0
1, 31663, Note_on_c, 1, 71, 127
1, 31671, Note_on_c, 1, 62, 127
1, 31671, Note_on_c, 1, 55, 127
1, 31677, Note_on_c, 1, 67, 127
1, 31761, Note_off_c, 1, 71, 0
1, 31770, Note_off_c, 1, 67, 0
1, 31778, Note_on_c, 1, 72, 127
1, 31801, Note_off_c, 1, 62, 0
1, 31802, Note_off_c, 1, 55, 0
1, 31863, Note_off_c, 1, 72, 0
1, 31899, Note_on_c, 1, 74, 127
1, 31903, Note_on_c, 1, 64, 127
1, 31914, Note_on_c, 1, 60, 127
1, 31915, Note_on_c, 1, 67, 127
1, 31977, Note_on_c, 1, 72, 127
1, 31994, Note_off_c, 1, 64, 0
1, 31994, Note_off_c, 1, 60, 0
1, 32004, Note_off_c, 1, 74, 0
1, 32009, Note_on_c, 1, 62, 127
1, 32020, Note_on_c, 1, 59, 127
1, 32028, Note_off_c, 1, 72, 0
1, 32097, Note_off_c, 1, 62, 0
1, 32103, Note_off_c, 1, 59, 0
1, 32246, Note_on_c, 1, 71, 127
1, 32247, Note_on_c, 1, 57, 127
1, 32274, Note_off_c, 1, 67, 0
1, 32333, Note_off_c, 1, 57, 0
1, 32341, Note_off_c, 1, 71, 0
1, 32623, Note_on_c, 1, 71, 127
1, 32623, Note_on_c, 1, 62, 127
1, 32623, Note_on_c, 1, 55, 127
1, 32723, Note_off_c, 1, 62, 0
1, 32731, Note_off_c, 1, 71, 0
1, 32731, Note_on_c, 1, 67, 127
1, 32743, Note_off_c, 1, 55, 0
1, 32828, Note_off_c, 1, 67, 0
1, 32856, Note_on_c, 1, 77, 127
1, 32857, Note_on_c, 1, 59, 127
1, 32860, Note_on_c, 1, 67, 127
1, 32876, Note_on_c, 1, 74, 127
1, 32976, Note_off_c, 1, 74, 0
1, 32977, Note_off_c, 1, 67, 0
1, 33001, Note_off_c, 1, 77, 0
1, 33005, Note_off_c, 1, 59, 0
1, 33105, Note_on_c, 1, 48, 127
1, 33106, Note_on_c, 1, 76, 127
1, 33107, Note_on_c, 1, 67, 127
1, 33113, Note_on_c, 1, 72, 127
1, 33144, Note_on_c, 1, 47, 127
1, 33166, Note_off_c, 1, 47, 0
1, 33220, Note_off_c, 1, 67, 0
1, 33243, Note_off_c, 1, 76, 0
1, 33248, Note_off_c, 1, 72, 0
1, 33263, Note_off_c, 1, 48, 0
1, 33336, Note_on_c, 1, 53, 127
1, 33348, Note_on_c, 1, 65, 127
1, 33352, Note_on_c, 1, 72, 127
1, 33353, Note_on_c, 1, 81, 127
1, 33418, Note_off_c, 1, 53, 0
1, 33438, Note_on_c, 1, 50, 127
1, 33458, Note_off_c, 1, 65, 0
1, 33459, Note_on_c, 1, 79, 127
1, 33461, Note_off_c, 1, 72, 0
1, 33472, Note_off_c, 1, 81, 0
1, 33532, Note_off_c, 1, 50, 0
1, 33566, Note_off_c, 1, 79, 0
1, 33576, Note_on_c, 1, 59, 127
1, 33580, Note_on_c, 1, 81, 127
1, 33591, Note_on_c, 1, 74, 127
1, 33597, Note_on_c, 1, 65, 127
1, 33687, Note_off_c, 1, 74, 0
1, 33692, Note_off_c, 1, 81, 0
1, 33704, Note_off_c, 1, 65, 0
1, 33704, Note_on_c, 1, 77, 127
1, 33713, Note_off_c, 1, 59, 0
1, 33789, Note_off_c, 1, 77, 0
1, 33824, Note_on_c, 1, 79, 127
1, 33824, Note_on_c, 1, 72, 127
1, 33829, Note_on_c, 1, 52, 127
1, 33833, Note_on_c, 1, 64, 127
1, 33930, Note_off_c, 1, 72, 0
1, 33931, Note_off_c, 1, 79, 0
1, 33946, Note_off_c, 1, 64, 0
1, 33959, Note_off_c, 1, 52, 0
1, 34067, Note_on_c, 1, 69, 127
1, 34067, Note_on_c, 1, 72, 127
1, 34068, Note_on_c, 1, 53, 127
1, 34074, Note_on_c, 1, 64, 127
1, 34164, Note_off_c, 1, 69, 0
1, 34164, Note_off_c, 1, 72, 0
1, 34174, Note_off_c, 1, 64, 0
1, 34196, Note_off_c, 1, 53, 0
1, 34306, Note_on_c, 1, 71, 127
1, 34316, Note_on_c, 1, 67, 127
1, 34318, Note_on_c, 1, 62, 127
1, 34320, Note_on_c, 1, 55, 127
1, 34412, Note_off_c, 1, 67, 0
1, 34414, Note_off_c, 1, 62, 0
1, 34415, Note_off_c, 1, 71, 0
1, 34430, Note_off_c, 1, 55, 0
1, 34556, Note_on_c, 1, 48, 127
1, 34557, Note_on_c, 1, 67, 127
1, 34557, Note_on_c, 1, 64, 127
1, 34567, Note_on_c, 1, 72, 127
1, 35096, Note_off_c, 1, 64, 0
1, 35130, Note_off_c, 1, 67, 0
1, 35138, Note_off_c, 1, 48, 0
1, 35195, Note_off_c, 1, 72, 0
1, 35259, Note_on_c, 1, 60, 127
1, 35267, Note_on_c, 1, 64, 127
1, 35274, Note_on_c, 1, 55, 127
1, 35279, Note_on_c, 1, 48, 127
1, 35352, Note_off_c, 1, 55, 0
1, 35362, Note_off_c, 1, 64, 0
1, 35369, Note_off_c, 1, 60, 0
1, 35506, Note_on_c, 1, 65, 127
1, 35508, Note_on_c, 1, 69, 127
1, 35729, Note_off_c, 1, 69, 0
1, 35732, Note_on_c, 1, 67, 127
1, 35759, Note_off_c, 1, 65, 0
1, 35767, Note_off_c, 1, 48, 0
1, 35839, Note_off_c, 1, 67, 0
1, 35975, Note_on_c, 1, 70, 127
1, 35979, Note_on_c, 1, 67, 127
1, 35981, Note_on_c, 1, 64, 127
1, 35994, Note_on_c, 1, 48, 127
1, 36215, Note_on_c, 1, 65, 127
1, 36224, Note_on_c, 1, 53, 127
1, 36231, Note_on_c, 1, 69, 127
1, 36233, Note_off_c, 1, 70, 0
1, 36235, Note_on_c, 1, 60, 127
1, 36236, Note_off_c, 1, 67, 0
1, 36239, Note_off_c, 1, 64, 0
1, 36245, Note_off_c, 1, 48, 0
1, 36315, Note_off_c, 1, 53, 0
1, 36326, Note_off_c, 1, 60, 0
1, 36333, Note_off_c, 1, 69, 0
1, 36338, Note_off_c, 1, 65, 0
1, 36450, Note_on_c, 1, 50, 127
1, 36455, Note_on_c, 1, 69, 127
1, 36456, Note_on_c, 1, 65, 127
1, 36459, Note_on_c, 1, 74, 127
1, 36537, Note_off_c, 1, 65, 0
1, 36549, Note_off_c, 1, 50, 0
1, 36554, Note_off_c, 1, 74, 0
1, 36557, Note_off_c, 1, 69, 0
1, 36694, Note_on_c, 1, 67, 127
1, 36698, Note_on_c, 1, 71, 127
1, 36702, Note_on_c, 1, 62, 127
1, 36702, Note_on_c, 1, 55, 127
1, 36925, Note_on_c, 1, 52, 127
1, 36928, Note_off_c, 1, 55, 0
1, 36936, Note_off_c, 1, 62, 0
1, 36946, Note_on_c, 1, 64, 127
1, 36951, Note_on_c, 1, 72, 127
1, 36956, Note_off_c, 1, 71, 0
1, 37032, Note_off_c, 1, 64, 0
1, 37040, Note_off_c, 1, 52, 0
1, 37049, Note_off_c, 1, 67, 0
1, 37061, Note_off_c, 1, 72, 0
1, 37174, Note_on_c, 1, 65, 127
1, 37182, Note_on_c, 1, 60, 127
1, 37186, Note_on_c, 1, 57, 127
1, 37279, Note_off_c, 1, 60, 0
1, 37280, Note_off_c, 1, 57, 0
1, 37306, Note_off_c, 1, 65, 0
1, 37415, Note_on_c, 1, 64, 127
1, 37424, Note_on_c, 1, 57, 127
1, 37429, Note_on_c, 1, 53, 127
1, 37433, Note_on_c, 1, 60, 127
1, 37514, Note_on_c, 1, 62, 127
1, 37517, Note_off_c, 1, 64, 0
1, 37556, Note_off_c, 1, 62, 0
1, 37661, Note_on_c, 1, 59, 127
1, 37661, Note_on_c, 1, 55, 127
1, 37666, Note_off_c, 1, 53, 0
1, 37667, Note_off_c, 1, 57, 0
1, 37684, Note_off_c, 1, 60, 0
1, 37753, Note_off_c, 1, 55, 0
1, 37773, Note_off_c, 1, 59, 0
1, 37894, Note_on_c, 1, 60, 127
1, 37897, Note_on_c, 1, 55, 127
1, 37903, Note_on_c, 1, 52, 127
1, 37908, Note_on_c, 1, 48, 127
1, 37989, Note_off_c, 1, 52, 0
1, 37990, Note_off_c, 1, 55, 0
1, 38001, Note_off_c, 1, 48, 0
1, 38033, Note_off_c, 1, 60, 0
1, 38144, Note_on_c, 1, 60, 127
1, 38157, Note_on_c, 1, 55, 127
1, 38165, Note_on_c, 1, 64, 127
1, 38230, Note_off_c, 1, 55, 0
1, 38247, Note_off_c, 1, 64, 0
1, 38386, Note_on_c, 1, 69, 127
1, 38386, Note_on_c, 1, 57, 127
1, 38529, Note_off_c, 1, 60, 0
1, 38608, Note_on_c, 1, 62, 127
1, 38615, Note_off_c, 1, 57, 0
1, 38615, Note_on_c, 1, 59, 127
1, 38620, Note_on_c, 1, 67, 127
1, 38630, Note_off_c, 1, 69, 0
1, 38722, Note_off_c, 1, 67, 0
1, 38728, Note_off_c, 1, 59, 0
1, 38732, Note_off_c, 1, 62, 0
1, 38846, Note_on_c, 1, 60, 127
1, 38853, Note_on_c, 1, 66, 127
1, 38861, Note_on_c, 1, 72, 127
1, 38870, Note_on_c, 1, 57, 127
1, 39084, Note_on_c, 1, 55, 127
1, 39092, Note_on_c, 1, 62, 127
1, 39095, Note_off_c, 1, 57, 0
1, 39099, Note_off_c, 1, 60, 0
1, 39099, Note_on_c, 1, 67, 127
1, 39103, Note_on_c, 1, 71, 127
1, 39111, Note_off_c, 1, 66, 0
1, 39123, Note_off_c, 1, 72, 0
1, 39182, Note_off_c, 1, 55, 0
1, 39193, Note_off_c, 1, 62, 0
1, 39198, Note_off_c, 1, 71, 0
1, 39213, Note_off_c, 1, 67, 0
1, 39328, Note_on_c, 1, 54, 127
1, 39335, Note_on_c, 1, 72, 127
1, 39335, Note_on_c, 1, 57, 127
1, 39338, Note_on_c, 1, 76, 127
1, 39431, Note_off_c, 1, 54, 0
1, 39432, Note_off_c, 1, 57, 0
1, 39443, Note_off_c, 1, 72, 0
1, 39470, Note_off_c, 1, 76, 0
1, 39580, Note_on_c, 1, 71, 127
1, 39580, Note_on_c, 1, 59, 127
1, 39584, Note_on_c, 1, 74, 127
1, 39591, Note_on_c, 1, 55, 127
1, 39675, Note_off_c, 1, 71, 0
1, 39678, Note_off_c, 1, 59, 0
1, 39698, Note_off_c, 1, 55, 0
1, 39702, Note_off_c, 1, 74, 0
1, 39815, Note_on_c, 1, 67, 127
1, 39815, Note_on_c, 1, 59, 127
1, 39823, Note_on_c, 1, 47, 127
1, 39826, Note_on_c, 1, 62, 127
1, 39920, Note_off_c, 1, 47, 0
1, 39921, Note_off_c, 1, 59, 0
1, 39936, Note_off_c, 1, 62, 0
1, 39937, Note_off_c, 1, 67, 0
1, 40057, Note_on_c, 1, 57, 127
1, 40064, Note_on_c, 1, 66, 127
1, 40068, Note_on_c, 1, 62, 127
1, 40076, Note_on_c, 1, 50, 127
1, 40168, Note_off_c, 1, 50, 0
1, 40173, Note_off_c, 1, 57, 0
1, 40175, Note_off_c, 1, 62, 0
1, 40177, Note_off_c, 1, 66, 0
1, 40310, Note_on_c, 1, 67, 127
1, 40314, Note_on_c, 1, 62, 127
1, 40315, Note_on_c, 1, 59, 127
1, 40320, Note_on_c, 1, 43, 127
1, 40834, Note_off_c, 1, 67, 0
1, 40836, Note_off_c, 1, 43, 0
1, 40863, Note_off_c, 1, 59, 0
1, 40881, Note_off_c, 1, 62, 0
1, 41027, Note_on_c, 1, 60, 127
1, 41029, Note_on_c, 1, 64, 127
1, 41029, Note_on_c, 1, 55, 127
1, 41047, Note_on_c, 1, 48, 127
1, 41113, Note_off_c, 1, 55, 0
1, 41138, Note_off_c, 1, 64, 0
1, 41150, Note_off_c, 1, 60, 0
1, 41267, Note_on_c, 1, 65, 127
1, 41271, Note_on_c, 1, 69, 127
1, 41484, Note_on_c, 1, 67, 127
1, 41494, Note_off_c, 1, 69, 0
1, 41511, Note_off_c, 1, 65, 0
1, 41528, Note_off_c, 1, 48, 0
1, 41603, Note_off_c, 1, 67, 0
1, 41742, Note_on_c, 1, 67, 127
1, 41744, Note_on_c, 1, 70, 127
1, 41746, Note_on_c, 1, 64, 127
1, 41761, Note_on_c, 1, 48, 127
1, 41979, Note_on_c, 1, 69, 127
1, 41983, Note_on_c, 1, 65, 127
1, 41990, Note_on_c, 1, 53, 127
1, 41992, Note_off_c, 1, 64, 0
1, 41994, Note_off_c, 1, 70, 0
1, 41994, Note_on_c, 1, 60, 127
1, 41996, Note_off_c, 1, 67, 0
1, 42012, Note_off_c, 1, 48, 0
1, 42086, Note_off_c, 1, 53, 0
1, 42090, Note_off_c, 1, 65, 0
1, 42097, Note_off_c, 1, 60, 0
1, 42112, Note_off_c, 1, 69, 0
1, 42221, Note_on_c, 1, 65, 127
1, 42222, Note_on_c, 1, 69, 127
1, 42225, Note_on_c, 1, 50, 127
1, 42232, Note_on_c, 1, 74, 127
1, 42309, Note_off_c, 1, 69, 0
1, 42312, Note_off_c, 1, 65, 0
1, 42318, Note_off_c, 1, 50, 0
1, 42323, Note_off_c, 1, 74, 0
1, 42467, Note_on_c, 1, 62, 127
1, 42468, Note_on_c, 1, 71, 127
1, 42472, Note_on_c, 1, 55, 127
1, 42473, Note_on_c, 1, 67, 127
1, 42690, Note_on_c, 1, 64, 127
1, 42701, Note_off_c, 1, 71, 0
1, 42705, Note_off_c, 1, 55, 0
1, 42706, Note_off_c, 1, 62, 0
1, 42706, Note_on_c, 1, 52, 127
1, 42715, Note_on_c, 1, 72, 127
1, 42796, Note_off_c, 1, 67, 0
1, 42804, Note_off_c, 1, 52, 0
1, 42809, Note_off_c, 1, 64, 0
1, 42820, Note_off_c, 1, 72, 0
1, 42938, Note_on_c, 1, 65, 127
1, 42947, Note_on_c, 1, 57, 127
1, 42948, Note_on_c, 1, 60, 127
1, 43035, Note_off_c, 1, 57, 0
1, 43059, Note_off_c, 1, 60, 0
1, 43072, Note_off_c, 1, 65, 0
1, 43176, Note_on_c, 1, 64, 127
1, 43178, Note_on_c, 1, 57, 127
1, 43200, Note_on_c, 1, 53, 127
1, 43201, Note_on_c, 1, 60, 127
1, 43269, Note_on_c, 1, 62, 127
1, 43273, Note_off_c, 1, 64, 0
1, 43316, Note_off_c, 1, 62, 0
1, 43424, Note_on_c, 1, 59, 127
1, 43424, Note_on_c, 1, 55, 127
1, 43429, Note_off_c, 1, 57, 0
1, 43434, Note_off_c, 1, 53, 0
1, 43440, Note_off_c, 1, 60, 0
1, 43533, Note_off_c, 1, 55, 0
1, 43537, Note_off_c, 1, 59, 0
1, 43659, Note_on_c, 1, 55, 127
1, 43663, Note_on_c, 1, 60, 127
1, 43666, Note_on_c, 1, 52, 127
1, 43674, Note_on_c, 1, 48, 127
1, 43760, Note_off_c, 1, 55, 0
1, 43768, Note_off_c, 1, 52, 0
1, 43770, Note_off_c, 1, 48, 0
1, 43777, Note_off_c, 1, 60, 0
1, 43914, Note_on_c, 1, 60, 127
1, 43917, Note_on_c, 1, 55, 127
1, 43918, Note_on_c, 1, 64, 127
1, 44004, Note_off_c, 1, 55, 0
1, 44015, Note_off_c, 1, 64, 0
1, 44147, Note_on_c, 1, 69, 127
1, 44147, Note_on_c, 1, 57, 127
1, 44301, Note_off_c, 1, 60, 0
1, 44373, Note_off_c, 1, 57, 0
1, 44374, Note_on_c, 1, 67, 127
1, 44381, Note_on_c, 1, 59, 127
1, 44387, Note_off_c, 1, 69, 0
1, 44391, Note_on_c, 1, 62, 127
1, 44480, Note_off_c, 1, 59, 0
1, 44487, Note_off_c, 1, 67, 0
1, 44502, Note_off_c, 1, 62, 0
1, 44606, Note_on_c, 1, 60, 127
1, 44614, Note_on_c, 1, 66, 127
1, 44616, Note_on_c, 1, 72, 127
1, 44632, Note_on_c, 1, 57, 127
1, 44850, Note_off_c, 1, 72, 0
1, 44851, Note_on_c, 1, 71, 127
1, 44855, Note_on_c, 1, 55, 127
1, 44856, Note_on_c, 1, 62, 127
1, 44858, Note_off_c, 1, 60, 0
1, 44860, Note_on_c, 1, 67, 127
1, 44863, Note_off_c, 1, 57, 0
1, 44875, Note_off_c, 1, 66, 0
1, 44936, Note_off_c, 1, 55, 0
1, 44956, Note_off_c, 1, 62, 0
1, 44976, Note_off_c, 1, 71, 0
1, 44976, Note_off_c, 1, 67, 0
1, 45091, Note_on_c, 1, 54, 127
1, 45100, Note_on_c, 1, 72, 127
1, 45101, Note_on_c, 1, 76, 127
1, 45102, Note_on_c, 1, 57, 127
1, 45199, Note_off_c, 1, 76, 0
1, 45200, Note_off_c, 1, 54, 0
1, 45200, Note_off_c, 1, 72, 0
1, 45211, Note_off_c, 1, 57, 0
1, 45340, Note_on_c, 1, 59, 127
1, 45347, Note_on_c, 1, 55, 127
1, 45348, Note_on_c, 1, 74, 127
1, 45351, Note_on_c, 1, 71, 127
1, 45446, Note_off_c, 1, 71, 0
1, 45448, Note_off_c, 1, 74, 0
1, 45454, Note_off_c, 1, 59, 0
1, 45461, Note_off_c, 1, 55, 0
1, 45579, Note_on_c, 1, 67, 127
1, 45583, Note_on_c, 1, 59, 127
1, 45583, Note_on_c, 1, 47, 127
1, 45593, Note_on_c, 1, 62, 127
1, 45682, Note_off_c, 1, 67, 0
1, 45684, Note_off_c, 1, 59, 0
1, 45690, Note_off_c, 1, 62, 0
1, 45694, Note_off_c, 1, 47, 0
1, 45823, Note_on_c, 1, 62, 127
1, 45823, Note_on_c, 1, 57, 127
1, 45824, Note_on_c, 1, 66, 127
1, 45829, Note_on_c, 1, 50, 127
1, 45918, Note_off_c, 1, 66, 0
1, 45925, Note_off_c, 1, 57, 0
1, 45926, Note_off_c, 1, 62, 0
1, 45934, Note_off_c, 1, 50, 0
1, 46065, Note_on_c, 1, 62, 127
1, 46066, Note_on_c, 1, 67, 127
1, 46077, Note_on_c, 1, 59, 127
1, 46086, Note_on_c, 1, 43, 127
1, 46573, Note_off_c, 1, 67, 0
1, 46628, Note_off_c, 1, 59, 0
1, 46632, Note_off_c, 1, 43, 0
1, 46636, Note_off_c, 1, 62, 0
1, 46765, Note_on_c, 1, 62, 127
1, 46785, Note_on_c, 1, 43, 127
1, 46789, Note_on_c, 1, 67, 127
1, 46789, Note_on_c, 1, 59, 127
1, 46891, Note_off_c, 1, 62, 0
1, 46891, Note_off_c, 1, 59, 0
1, 46895, Note_off_c, 1, 67, 0
1, 47030, Note_on_c, 1, 72, 127
1, 47031, Note_on_c, 1, 64, 127
1, 47036, Note_on_c, 1, 55, 127
1, 47255, Note_off_c, 1, 64, 0
1, 47263, Note_on_c, 1, 71, 127
1, 47268, Note_off_c, 1, 72, 0
1, 47280, Note_off_c, 1, 43, 0
1, 47359, Note_off_c, 1, 71, 0
1, 47393, Note_off_c, 1, 55, 0
1, 47505, Note_on_c, 1, 71, 127
1, 47509, Note_on_c, 1, 76, 127
1, 47516, Note_on_c, 1, 59, 127
1, 47530, Note_on_c, 1, 44, 127
1, 47718, Note_off_c, 1, 44, 0
1, 47723, Note_on_c, 1, 47, 127
1, 47731, Note_on_c, 1, 68, 127
1, 47745, Note_off_c, 1, 71, 0
1, 47746, Note_off_c, 1, 59, 0
1, 47750, Note_on_c, 1, 74, 127
1, 47751, Note_on_c, 1, 62, 127
1, 47759, Note_off_c, 1, 76, 0
1, 47832, Note_off_c, 1, 47, 0
1, 47839, Note_off_c, 1, 62, 0
1, 47851, Note_off_c, 1, 74, 0
1, 47860, Note_off_c, 1, 68, 0
1, 47981, Note_on_c, 1, 60, 127
1, 47984, Note_on_c, 1, 77, 127
1, 47985, Note_on_c, 1, 69, 127
1, 47985, Note_on_c, 1, 45, 127
1, 48067, Note_off_c, 1, 60, 0
1, 48077, Note_off_c, 1, 77, 0
1, 48077, Note_off_c, 1, 45, 0
1, 48097, Note_off_c, 1, 69, 0
1, 48226, Note_on_c, 1, 68, 127
1, 48230, Note_on_c, 1, 65, 127
1, 48230, Note_on_c, 1, 50, 127
1, 48245, Note_on_c, 1, 59, 127
1, 48461, Note_off_c, 1, 68, 0
1, 48461, Note_off_c, 1, 50, 0
1, 48461, Note_on_c, 1, 69, 127
1, 48463, Note_on_c, 1, 64, 127
1, 48468, Note_off_c, 1, 65, 0
1, 48469, Note_on_c, 1, 48, 127
1, 48484, Note_off_c, 1, 59, 0
1, 48484, Note_on_c, 1, 60, 127
1, 48574, Note_off_c, 1, 64, 0
1, 48578, Note_off_c, 1, 69, 0
1, 48581, Note_off_c, 1, 60, 0
1, 48599, Note_off_c, 1, 48, 0
1, 48707, Note_on_c, 1, 57, 127
1, 48707, Note_on_c, 1, 53, 127
1, 48708, Note_on_c, 1, 69, 127
1, 48711, Note_on_c, 1, 74, 127
1, 48800, Note_off_c, 1, 69, 0
1, 48809, Note_off_c, 1, 53, 0
1, 48817, Note_off_c, 1, 57, 0
1, 48827, Note_off_c, 1, 74, 0
1, 48941, Note_on_c, 1, 72, 127
1, 48953, Note_on_c, 1, 69, 127
1, 48960, Note_on_c, 1, 50, 127
1, 48962, Note_on_c, 1, 65, 127
1, 49051, Note_off_c, 1, 72, 0
1, 49058, Note_on_c, 1, 71, 127
1, 49101, Note_off_c, 1, 71, 0
1, 49179, Note_on_c, 1, 68, 127
1, 49181, Note_off_c, 1, 50, 0
1, 49184, Note_off_c, 1, 65, 0
1, 49189, Note_off_c, 1, 69, 0
1, 49196, Note_on_c, 1, 52, 127
1, 49199, Note_on_c, 1, 64, 127
1, 49288, Note_off_c, 1, 52, 0
1, 49292, Note_off_c, 1, 64, 0
1, 49296, Note_off_c, 1, 68, 0
1, 49407, Note_on_c, 1, 69, 127
1, 49425, Note_on_c, 1, 45, 127
1, 49427, Note_on_c, 1, 64, 127
1, 49430, Note_on_c, 1, 60, 127
1, 49515, Note_off_c, 1, 64, 0
1, 49519, Note_off_c, 1, 60, 0
1, 49520, Note_off_c, 1, 69, 0
1, 49542, Note_off_c, 1, 45, 0
1, 49663, Note_on_c, 1, 60, 127
1, 49674, Note_on_c, 1, 57, 127
1, 49910, Note_on_c, 1, 65, 127
1, 50063, Note_off_c, 1, 57, 0
1, 50125, Note_off_c, 1, 65, 0
1, 50132, Note_on_c, 1, 64, 127
1, 50149, Note_on_c, 1, 55, 127
1, 50158, Note_off_c, 1, 60, 0
1, 50162, Note_on_c, 1, 58, 127
1, 50242, Note_off_c, 1, 64, 0
1, 50261, Note_off_c, 1, 58, 0
1, 50269, Note_off_c, 1, 55, 0
1, 50372, Note_on_c, 1, 65, 127
1, 50375, Note_on_c, 1, 69, 127
1, 50386, Note_on_c, 1, 60, 127
1, 50386, Note_on_c, 1, 53, 127
1, 50597, Note_on_c, 1, 67, 127
1, 50608, Note_off_c, 1, 69, 0
1, 50611, Note_off_c, 1, 65, 0
1, 50614, Note_on_c, 1, 58, 127
1, 50625, Note_on_c, 1, 62, 127
1, 50646, Note_off_c, 1, 60, 0
1, 50705, Note_off_c, 1, 62, 0
1, 50716, Note_off_c, 1, 67, 0
1, 50723, Note_off_c, 1, 58, 0
1, 50826, Note_off_c, 1, 53, 0
1, 50851, Note_on_c, 1, 60, 127
1, 50851, Note_on_c, 1, 67, 127
1, 50868, Note_on_c, 1, 70, 127
1, 50869, Note_on_c, 1, 52, 127
1, 50938, Note_off_c, 1, 60, 0
1, 50951, Note_off_c, 1, 67, 0
1, 50964, Note_off_c, 1, 70, 0
1, 50993, Note_off_c, 1, 52, 0
1, 51112, Note_on_c, 1, 53, 127
1, 51114, Note_on_c, 1, 65, 127
1, 51117, Note_on_c, 1, 60, 127
1, 51119, Note_on_c, 1, 69, 127
1, 51333, Note_off_c, 1, 53, 0
1, 51336, Note_off_c, 1, 69, 0
1, 51341, Note_on_c, 1, 67, 127
1, 51341, Note_on_c, 1, 55, 127
1, 51345, Note_on_c, 1, 52, 127
1, 51349, Note_off_c, 1, 65, 0
1, 51455, Note_off_c, 1, 67, 0
1, 51455, Note_off_c, 1, 55, 0
1, 51455, Note_off_c, 1, 52, 0
1, 51488, Note_off_c, 1, 60, 0
1, 51580, Note_on_c, 1, 65, 127
1, 51583, Note_on_c, 1, 57, 127
1, 51591, Note_on_c, 1, 50, 127
1, 51595, Note_on_c, 1, 60, 127
1, 51684, Note_off_c, 1, 57, 0
1, 51685, Note_off_c, 1, 65, 0
1, 51692, Note_off_c, 1, 50, 0
1, 51699, Note_off_c, 1, 60, 0
1, 51812, Note_on_c, 1, 64, 127
1, 51828, Note_on_c, 1, 59, 127
1, 51837, Note_on_c, 1, 55, 127
1, 51844, Note_on_c, 1, 43, 127
1, 51958, Note_on_c, 1, 62, 127
1, 51962, Note_off_c, 1, 64, 0
1, 52000, Note_off_c, 1, 62, 0
1, 52070, Note_off_c, 1, 43, 0
1, 52070, Note_on_c, 1, 48, 127
1, 52082, Note_on_c, 1, 60, 127
1, 52094, Note_off_c, 1, 59, 0
1, 52165, Note_off_c, 1, 60, 0
1, 52183, Note_off_c, 1, 48, 0
1, 52317, Note_on_c, 1, 47, 127
1, 52420, Note_off_c, 1, 47, 0
1, 52437, Note_off_c, 1, 55, 0
1, 52552, Note_on_c, 1, 60, 127
1, 52555, Note_on_c, 1, 55, 127
1, 52559, Note_on_c, 1, 48, 127
1, 52560, Note_on_c, 1, 64, 127
1, 52641, Note_off_c, 1, 64, 0
1, 52653, Note_off_c, 1, 55, 0
1, 52664, Note_off_c, 1, 48, 0
1, 52782, Note_on_c, 1, 69, 127
1, 52785, Note_on_c, 1, 50, 127
1, 52790, Note_on_c, 1, 53, 127
1, 52879, Note_off_c, 1, 60, 0
1, 53016, Note_on_c, 1, 67, 127
1, 53018, Note_off_c, 1, 69, 0
1, 53021, Note_off_c, 1, 53, 0
1, 53024, Note_on_c, 1, 52, 127
1, 53025, Note_off_c, 1, 50, 0
1, 53025, Note_on_c, 1, 58, 127
1, 53103, Note_off_c, 1, 67, 0
1, 53131, Note_off_c, 1, 52, 0
1, 53141, Note_off_c, 1, 58, 0
1, 53266, Note_on_c, 1, 58, 127
1, 53267, Note_on_c, 1, 64, 127
1, 53272, Note_on_c, 1, 41, 127
1, 53279, Note_on_c, 1, 55, 127
1, 53498, Note_on_c, 1, 57, 127
1, 53501, Note_off_c, 1, 58, 0
1, 53510, Note_off_c, 1, 64, 0
1, 53520, Note_on_c, 1, 65, 127
1, 53525, Note_off_c, 1, 55, 0
1, 53653, Note_off_c, 1, 57, 0
1, 53657, Note_off_c, 1, 65, 0
1, 53719, Note_off_c, 1, 41, 0
1, 53744, Note_on_c, 1, 60, 127
1, 53832, Note_off_c, 1, 60, 0
1, 53982, Note_on_c, 1, 60, 127
1, 53993, Note_on_c, 1, 66, 127
1, 54000, Note_on_c, 1, 62, 127
1, 54000, Note_on_c, 1, 57, 127
1, 54106, Note_off_c, 1, 60, 0
1, 54114, Note_off_c, 1, 66, 0
1, 54150, Note_off_c, 1, 57, 0
1, 54226, Note_on_c, 1, 54, 127
1, 54240, Note_on_c, 1, 69, 127
1, 54456, Note_off_c, 1, 69, 0
1, 54457, Note_on_c, 1, 71, 127
1, 54461, Note_on_c, 1, 55, 127
1, 54470, Note_on_c, 1, 50, 127
1, 54473, Note_off_c, 1, 54, 0
1, 54555, Note_off_c, 1, 71, 0
1, 54565, Note_off_c, 1, 55, 0
1, 54568, Note_off_c, 1, 50, 0
1, 54594, Note_off_c, 1, 62, 0
1, 54694, Note_on_c, 1, 57, 127
1, 54697, Note_on_c, 1, 60, 127
1, 54701, Note_on_c, 1, 66, 127
1, 54713, Note_on_c, 1, 43, 127
1, 54943, Note_off_c, 1, 60, 0
1, 54943, Note_on_c, 1, 59, 127
1, 54954, Note_off_c, 1, 57, 0
1, 54962, Note_on_c, 1, 67, 127
1, 54966, Note_off_c, 1, 66, 0
1, 55091, Note_off_c, 1, 67, 0
1, 55116, Note_off_c, 1, 59, 0
1, 55177, Note_on_c, 1, 62, 127
1, 55200, Note_off_c, 1, 43, 0
1, 55280, Note_off_c, 1, 62, 0
1, 55431, Note_on_c, 1, 55, 127
1, 55435, Note_on_c, 1, 65, 127
1, 55435, Note_on_c, 1, 62, 127
1, 55443, Note_on_c, 1, 59, 127
1, 55529, Note_off_c, 1, 59, 0
1, 55534, Note_off_c, 1, 65, 0
1, 55537, Note_off_c, 1, 55, 0
1, 55537, Note_off_c, 1, 62, 0
1, 55665, Note_on_c, 1, 50, 127
1, 55674, Note_on_c, 1, 71, 127
1, 55676, Note_on_c, 1, 62, 127
1, 55677, Note_on_c, 1, 65, 127
1, 55897, Note_on_c, 1, 72, 127
1, 55901, Note_off_c, 1, 71, 0
1, 55903, Note_off_c, 1, 50, 0
1, 55907, Note_off_c, 1, 62, 0
1, 55908, Note_on_c, 1, 67, 127
1, 55908, Note_on_c, 1, 55, 127
1, 55912, Note_on_c, 1, 52, 127
1, 55928, Note_off_c, 1, 65, 0
1, 55999, Note_off_c, 1, 72, 0
1, 56006, Note_off_c, 1, 52, 0
1, 56012, Note_off_c, 1, 67, 0
1, 56033, Note_off_c, 1, 55, 0
1, 56134, Note_on_c, 1, 66, 127
1, 56147, Note_on_c, 1, 60, 127
1, 56150, Note_on_c, 1, 45, 127
1, 56154, Note_on_c, 1, 57, 127
1, 56364, Note_on_c, 1, 67, 127
1, 56373, Note_off_c, 1, 66, 0
1, 56387, Note_off_c, 1, 57, 0
1, 56388, Note_on_c, 1, 55, 127
1, 56392, Note_on_c, 1, 47, 127
1, 56400, Note_off_c, 1, 45, 0
1, 56400, Note_on_c, 1, 62, 127
1, 56419, Note_off_c, 1, 60, 0
1, 56462, Note_off_c, 1, 67, 0
1, 56510, Note_off_c, 1, 55, 0
1, 56520, Note_off_c, 1, 62, 0
1, 56526, Note_off_c, 1, 47, 0
1, 56628, Note_on_c, 1, 77, 127
1, 56702, Note_off_c, 1, 77, 0
1, 56864, Note_on_c, 1, 76, 127
1, 56876, Note_on_c, 1, 60, 127
1, 56876, Note_on_c, 1, 55, 127
1, 56878, Note_on_c, 1, 48, 127
1, 56954, Note_off_c, 1, 76, 0
1, 56974, Note_off_c, 1, 48, 0
1, 56982, Note_off_c, 1, 55, 0
1, 56993, Note_off_c, 1, 60, 0
1, 57108, Note_on_c, 1, 72, 127
1, 57108, Note_on_c, 1, 64, 127
1, 57110, Note_on_c, 1, 40, 127
1, 57111, Note_on_c, 1, 67, 127
1, 57189, Note_off_c, 1, 64, 0
1, 57202, Note_off_c, 1, 72, 0
1, 57205, Note_off_c, 1, 67, 0
1, 57216, Note_off_c, 1, 40, 0
1, 57340, Note_on_c, 1, 71, 127
1, 57346, Note_on_c, 1, 43, 127
1, 57350, Note_on_c, 1, 67, 127
1, 57352, Note_on_c, 1, 62, 127
1, 57434, Note_off_c, 1, 43, 0
1, 57439, Note_off_c, 1, 67, 0
1, 57439, Note_off_c, 1, 62, 0
1, 57443, Note_off_c, 1, 71, 0
1, 57586, Note_on_c, 1, 64, 127
1, 57587, Note_on_c, 1, 72, 127
1, 57589, Note_on_c, 1, 67, 127
1, 57593, Note_on_c, 1, 36, 127
1, 58075, Note_off_c, 1, 72, 0
1, 58077, Note_off_c, 1, 36, 0
1, 58130, Note_off_c, 1, 64, 0
1, 58139, Note_off_c, 1, 67, 0
1, 58302, Note_on_c, 1, 67, 127
1, 58302, Note_on_c, 1, 62, 127
1, 58312, Note_on_c, 1, 59, 127
1, 58321, Note_on_c, 1, 43, 127
1, 58396, Note_off_c, 1, 59, 0
1, 58408, Note_off_c, 1, 67, 0
1, 58416, Note_off_c, 1, 62, 0
1, 58549, Note_on_c, 1, 55, 127
1, 58551, Note_on_c, 1, 64, 127
1, 58553, Note_on_c, 1, 72, 127
1, 58772, Note_off_c, 1, 72, 0
1, 58773, Note_on_c, 1, 71, 127
1, 58779, Note_off_c, 1, 64, 0
1, 58816, Note_off_c, 1, 43, 0
1, 58865, Note_off_c, 1, 71, 0
1, 58870, Note_off_c, 1, 55, 0
1, 59015, Note_on_c, 1, 71, 127
1, 59019, Note_on_c, 1, 59, 127
1, 59022, Note_on_c, 1, 76, 127
1, 59034, Note_on_c, 1, 44, 127
1, 59239, Note_on_c, 1, 62, 127
1, 59256, Note_on_c, 1, 74, 127
1, 59257, Note_off_c, 1, 59, 0
1, 59261, Note_on_c, 1, 68, 127
1, 59267, Note_on_c, 1, 47, 127
1, 59273, Note_off_c, 1, 44, 0
1, 59280, Note_off_c, 1, 71, 0
1, 59280, Note_off_c, 1, 76, 0
1, 59335, Note_off_c, 1, 62, 0
1, 59343, Note_off_c, 1, 47, 0
1, 59359, Note_off_c, 1, 74, 0
1, 59361, Note_off_c, 1, 68, 0
1, 59498, Note_on_c, 1, 69, 127
1, 59498, Note_on_c, 1, 60, 127
1, 59503, Note_on_c, 1, 77, 127
1, 59509, Note_on_c, 1, 45, 127
1, 59597, Note_off_c, 1, 77, 0
1, 59600, Note_off_c, 1, 60, 0
1, 59600, Note_off_c, 1, 45, 0
1, 59609, Note_off_c, 1, 69, 0
1, 59743, Note_on_c, 1, 68, 127
1, 59748, Note_on_c, 1, 65, 127
1, 59752, Note_on_c, 1, 59, 127
1, 59757, Note_on_c, 1, 50, 127
1, 59984, Note_off_c, 1, 68, 0
1, 59984, Note_on_c, 1, 69, 127
1, 59990, Note_on_c, 1, 60, 127
1, 59991, Note_on_c, 1, 64, 127
1, 59991, Note_on_c, 1, 48, 127
1, 59998, Note_off_c, 1, 65, 0
1, 60001, Note_off_c, 1, 59, 0
1, 60001, Note_off_c, 1, 50, 0
1, 60072, Note_off_c, 1, 69, 0
1, 60085, Note_off_c, 1, 60, 0
1, 60090, Note_off_c, 1, 48, 0
1, 60104, Note_off_c, 1, 64, 0
1, 60218, Note_on_c, 1, 69, 127
1, 60221, Note_on_c, 1, 57, 127
1, 60229, Note_on_c, 1, 53, 127
1, 60230, Note_on_c, 1, 74, 127
1, 60318, Note_off_c, 1, 53, 0
1, 60323, Note_off_c, 1, 69, 0
1, 60328, Note_off_c, 1, 57, 0
1, 60349, Note_off_c, 1, 74, 0
1, 60467, Note_on_c, 1, 69, 127
1, 60471, Note_on_c, 1, 72, 127
1, 60472, Note_on_c, 1, 50, 127
1, 60476, Note_on_c, 1, 65, 127
1, 60566, Note_on_c, 1, 71, 127
1, 60576, Note_off_c, 1, 72, 0
1, 60617, Note_off_c, 1, 71, 0
1, 60699, Note_on_c, 1, 52, 127
1, 60702, Note_off_c, 1, 50, 0
1, 60710, Note_off_c, 1, 65, 0
1, 60714, Note_on_c, 1, 68, 127
1, 60721, Note_on_c, 1, 64, 127
1, 60726, Note_off_c, 1, 69, 0
1, 60799, Note_off_c, 1, 52, 0
1, 60832, Note_off_c, 1, 68, 0
1, 60839, Note_off_c, 1, 64, 0
1, 60937, Note_on_c, 1, 69, 127
1, 60949, Note_on_c, 1, 45, 127
1, 60951, Note_on_c, 1, 64, 127
1, 60953, Note_on_c, 1, 60, 127
1, 61030, Note_off_c, 1, 64, 0
1, 61048, Note_off_c, 1, 69, 0
1, 61049, Note_off_c, 1, 45, 0
1, 61051, Note_off_c, 1, 60, 0
1, 61167, Note_on_c, 1, 57, 127
1, 61182, Note_on_c, 1, 60, 127
1, 61435, Note_on_c, 1, 65, 127
1, 61576, Note_off_c, 1, 57, 0
1, 61660, Note_on_c, 1, 64, 127
1, 61663, Note_off_c, 1, 65, 0
1, 61667, Note_on_c, 1, 55, 127
1, 61679, Note_off_c, 1, 60, 0
1, 61689, Note_on_c, 1, 58, 127
1, 61781, Note_off_c, 1, 55, 0
1, 61785, Note_off_c, 1, 64, 0
1, 61791, Note_off_c, 1, 58, 0
1, 61894, Note_on_c, 1, 69, 127
1, 61894, Note_on_c, 1, 65, 127
1, 61909, Note_on_c, 1, 60, 127
1, 61910, Note_on_c, 1, 53, 127
1, 62115, Note_off_c, 1, 65, 0
1, 62118, Note_on_c, 1, 67, 127
1, 62125, Note_on_c, 1, 58, 127
1, 62127, Note_off_c, 1, 69, 0
1, 62139, Note_on_c, 1, 62, 127
1, 62178, Note_off_c, 1, 60, 0
1, 62222, Note_off_c, 1, 62, 0
1, 62238, Note_off_c, 1, 58, 0
1, 62244, Note_off_c, 1, 67, 0
1, 62312, Note_off_c, 1, 53, 0
1, 62370, Note_on_c, 1, 60, 127
1, 62374, Note_on_c, 1, 52, 127
1, 62375, Note_on_c, 1, 70, 127
1, 62375, Note_on_c, 1, 67, 127
1, 62463, Note_off_c, 1, 60, 0
1, 62482, Note_off_c, 1, 67, 0
1, 62496, Note_off_c, 1, 70, 0
1, 62502, Note_off_c, 1, 52, 0
1, 62625, Note_on_c, 1, 69, 127
1, 62629, Note_on_c, 1, 53, 127
1, 62637, Note_on_c, 1, 60, 127
1, 62648, Note_on_c, 1, 65, 127
1, 62840, Note_on_c, 1, 67, 127
1, 62857, Note_on_c, 1, 52, 127
1, 62863, Note_off_c, 1, 69, 0
1, 62866, Note_off_c, 1, 65, 0
1, 62866, Note_on_c, 1, 55, 127
1, 62870, Note_off_c, 1, 53, 0
1, 62950, Note_off_c, 1, 67, 0
1, 62968, Note_off_c, 1, 52, 0
1, 62976, Note_off_c, 1, 60, 0
1, 62984, Note_off_c, 1, 55, 0
1, 63096, Note_on_c, 1, 65, 127
1, 63096, Note_on_c, 1, 50, 127
1, 63103, Note_on_c, 1, 60, 127
1, 63109, Note_on_c, 1, 57, 127
1, 63186, Note_off_c, 1, 50, 0
1, 63217, Note_off_c, 1, 57, 0
1, 63218, Note_off_c, 1, 60, 0
1, 63219, Note_off_c, 1, 65, 0
1, 63342, Note_on_c, 1, 43, 127
1, 63343, Note_on_c, 1, 64, 127
1, 63350, Note_on_c, 1, 59, 127
1, 63355, Note_on_c, 1, 55, 127
1, 63473, Note_on_c, 1, 62, 127
1, 63483, Note_off_c, 1, 64, 0
1, 63519, Note_off_c, 1, 62, 0
1, 63581, Note_on_c, 1, 48, 127
1, 63596, Note_off_c, 1, 43, 0
1, 63607, Note_on_c, 1, 60, 127
1, 63625, Note_off_c, 1, 59, 0
1, 63682, Note_off_c, 1, 60, 0
1, 63696, Note_off_c, 1, 48, 0
1, 63823, Note_on_c, 1, 47, 127
1, 63929, Note_off_c, 1, 47, 0
1, 63940, Note_off_c, 1, 55, 0
1, 64061, Note_on_c, 1, 64, 127
1, 64072, Note_on_c, 1, 48, 127
1, 64075, Note_on_c, 1, 55, 127
1, 64086, Note_on_c, 1, 60, 127
1, 64160, Note_off_c, 1, 64, 0
1, 64182, Note_off_c, 1, 55, 0
1, 64190, Note_off_c, 1, 48, 0
1, 64305, Note_on_c, 1, 50, 127
1, 64307, Note_on_c, 1, 69, 127
1, 64307, Note_on_c, 1, 53, 127
1, 64374, Note_off_c, 1, 60, 0
1, 64531, Note_on_c, 1, 67, 127
1, 64541, Note_off_c, 1, 50, 0
1, 64541, Note_on_c, 1, 52, 127
1, 64543, Note_off_c, 1, 69, 0
1, 64545, Note_off_c, 1, 53, 0
1, 64576, Note_on_c, 1, 58, 127
1, 64629, Note_off_c, 1, 67, 0
1, 64629, Note_off_c, 1, 52, 0
1, 64668, Note_off_c, 1, 58, 0
1, 64778, Note_on_c, 1, 58, 127
1, 64778, Note_on_c, 1, 41, 127
1, 64781, Note_on_c, 1, 55, 127
1, 64785, Note_on_c, 1, 64, 127
1, 65008, Note_on_c, 1, 57, 127
1, 65028, Note_off_c, 1, 58, 0
1, 65039, Note_off_c, 1, 55, 0
1, 65042, Note_on_c, 1, 65, 127
1, 65045, Note_off_c, 1, 64, 0
1, 65149, Note_off_c, 1, 57, 0
1, 65172, Note_off_c, 1, 65, 0
1, 65207, Note_off_c, 1, 41, 0
1, 65260, Note_on_c, 1, 60, 127
1, 65350, Note_off_c, 1, 60, 0
1, 65502, Note_on_c, 1, 66, 127
1, 65506, Note_on_c, 1, 60, 127
1, 65515, Note_on_c, 1, 57, 127
1, 65534, Note_on_c, 1, 62, 127
1, 65624, Note_off_c, 1, 60, 0
1, 65627, Note_off_c, 1, 66, 0
1, 65643, Note_off_c, 1, 57, 0
1, 65738, Note_on_c, 1, 54, 127
1, 65761, Note_on_c, 1, 69, 127
1, 65980, Note_on_c, 1, 71, 127
1, 65984, Note_on_c, 1, 55, 127
1, 65985, Note_off_c, 1, 54, 0
1, 65991, Note_on_c, 1, 50, 127
1, 65996, Note_off_c, 1, 69, 0
1, 66088, Note_off_c, 1, 71, 0
1, 66094, Note_off_c, 1, 50, 0
1, 66104, Note_off_c, 1, 55, 0
1, 66106, Note_off_c, 1, 62, 0
1, 66214, Note_on_c, 1, 57, 127
1, 66219, Note_on_c, 1, 60, 127
1, 66223, Note_on_c, 1, 66, 127
1, 66231, Note_on_c, 1, 43, 127
1, 66444, Note_on_c, 1, 59, 127
1, 66461, Note_off_c, 1, 57, 0
1, 66463, Note_on_c, 1, 67, 127
1, 66476, Note_off_c, 1, 66, 0
1, 66484, Note_off_c, 1, 60, 0
1, 66587, Note_off_c, 1, 67, 0
1, 66601, Note_off_c, 1, 59, 0
1, 66700, Note_off_c, 1, 43, 0
1, 66712, Note_on_c, 1, 62, 127
1, 66815, Note_off_c, 1, 62, 0
1, 66941, Note_on_c, 1, 55, 127
1, 66944, Note_on_c, 1, 62, 127
1, 66956, Note_on_c, 1, 59, 127
1, 66964, Note_on_c, 1, 65, 127
1, 67046, Note_off_c, 1, 62, 0
1, 67048, Note_off_c, 1, 55, 0
1, 67058, Note_off_c, 1, 65, 0
1, 67062, Note_off_c, 1, 59, 0
1, 67180, Note_on_c, 1, 65, 127
1, 67182, Note_on_c, 1, 62, 127
1, 67187, Note_on_c, 1, 71, 127
1, 67192, Note_on_c, 1, 50, 127
1, 67409, Note_on_c, 1, 67, 127
1, 67415, Note_off_c, 1, 50, 0
1, 67415, Note_on_c, 1, 52, 127
1, 67418, Note_on_c, 1, 72, 127
1, 67421, Note_on_c, 1, 55, 127
1, 67423, Note_off_c, 1, 62, 0
1, 67426, Note_off_c, 1, 65, 0
1, 67433, Note_off_c, 1, 71, 0
1, 67519, Note_off_c, 1, 52, 0
1, 67523, Note_off_c, 1, 72, 0
1, 67526, Note_off_c, 1, 67, 0
1, 67540, Note_off_c, 1, 55, 0
1, 67651, Note_on_c, 1, 66, 127
1, 67657, Note_on_c, 1, 60, 127
1, 67661, Note_on_c, 1, 57, 127
1, 67668, Note_on_c, 1, 45, 127
1, 67898, Note_on_c, 1, 67, 127
1, 67903, Note_on_c, 1, 62, 127
1, 67905, Note_off_c, 1, 66, 0
1, 67907, Note_on_c, 1, 55, 127
1, 67917, Note_on_c, 1, 47, 127
1, 67926, Note_off_c, 1, 57, 0
1, 67927, Note_off_c, 1, 60, 0
1, 67930, Note_off_c, 1, 45, 0
1, 67996, Note_off_c, 1, 67, 0
1, 68022, Note_off_c, 1, 62, 0
1, 68032, Note_off_c, 1, 55, 0
1, 68036, Note_off_c, 1, 47, 0
1, 68149, Note_on_c, 1, 77, 127
1, 68237, Note_off_c, 1, 77, 0
1, 68386, Note_on_c, 1, 76, 127
1, 68390, Note_on_c, 1, 60, 127
1, 68391, Note_on_c, 1, 48, 127
1, 68392, Note_on_c, 1, 55, 127
1, 68477, Note_off_c, 1, 76, 0
1, 68489, Note_off_c, 1, 48, 0
1, 68497, Note_off_c, 1, 55, 0
1, 68503, Note_off_c, 1, 60, 0
1, 68618, Note_on_c, 1, 72, 127
1, 68625, Note_on_c, 1, 40, 127
1, 68633, Note_on_c, 1, 67, 127
1, 68633, Note_on_c, 1, 64, 127
1, 68712, Note_off_c, 1, 72, 0
1, 68718, Note_off_c, 1, 64, 0
1, 68727, Note_off_c, 1, 40, 0
1, 68731, Note_off_c, 1, 67, 0
1, 68855, Note_on_c, 1, 71, 127
1, 68863, Note_on_c, 1, 62, 127
1, 68867, Note_on_c, 1, 43, 127
1, 68872, Note_on_c, 1, 67, 127
1, 68952, Note_off_c, 1, 62, 0
1, 68961, Note_off_c, 1, 43, 0
1, 68962, Note_off_c, 1, 71, 0
1, 68975, Note_off_c, 1, 67, 0
1, 69098, Note_on_c, 1, 64, 127
1, 69105, Note_on_c, 1, 36, 127
1, 69113, Note_on_c, 1, 72, 127
1, 69114, Note_on_c, 1, 67, 127
1, 69607, Note_off_c, 1, 72, 0
1, 69629, Note_off_c, 1, 67, 0
1, 69659, Note_off_c, 1, 36, 0
1, 69676, Note_off_c, 1, 64, 0
1, 69831, Note_on_c, 1, 72, 127
1, 69837, Note_on_c, 1, 64, 127
1, 69839, Note_on_c, 1, 60, 127
1, 69848, Note_on_c, 1, 67, 127
1, 69945, Note_off_c, 1, 60, 0
1, 69954, Note_off_c, 1, 67, 0
1, 69962, Note_off_c, 1, 64, 0
1, 70004, Note_off_c, 1, 72, 0
1, 70068, Note_on_c, 1, 67, 127
1, 70072, Note_on_c, 1, 76, 127
1, 70077, Note_on_c, 1, 72, 127
1, 70077, Note_on_c, 1, 48, 127
1, 70154, Note_off_c, 1, 76, 0
1, 70178, Note_off_c, 1, 67, 0
1, 70179, Note_off_c, 1, 72, 0
1, 70187, Note_off_c, 1, 48, 0
1, 70308, Note_on_c, 1, 79, 127
1, 70309, Note_on_c, 1, 67, 127
1, 70314, Note_on_c, 1, 52, 127
1, 70320, Note_on_c, 1, 72, 127
1, 70409, Note_off_c, 1, 72, 0
1, 70410, Note_off_c, 1, 67, 0
1, 70419, Note_off_c, 1, 52, 0
1, 70427, Note_off_c, 1, 79, 0
1, 70548, Note_on_c, 1, 81, 127
1, 70554, Note_on_c, 1, 65, 127
1, 70558, Note_on_c, 1, 72, 127
1, 70558, Note_on_c, 1, 53, 127
1, 70667, Note_off_c, 1, 65, 0
1, 70675, Note_off_c, 1, 72, 0
1, 70692, Note_off_c, 1, 53, 0
1, 70693, Note_off_c, 1, 81, 0
1, 70796, Note_on_c, 1, 60, 127
1, 70796, Note_on_c, 1, 57, 127
1, 70799, Note_on_c, 1, 79, 127
1, 70801, Note_on_c, 1, 69, 127
1, 70876, Note_off_c, 1, 57, 0
1, 70894, Note_off_c, 1, 69, 0
1, 70898, Note_off_c, 1, 60, 0
1, 70902, Note_on_c, 1, 53, 127
1, 70907, Note_on_c, 1, 77, 127
1, 70922, Note_off_c, 1, 79, 0
1, 70958, Note_off_c, 1, 77, 0
1, 70999, Note_off_c, 1, 53, 0
1, 71028, Note_on_c, 1, 62, 127
1, 71043, Note_on_c, 1, 65, 127
1, 71154, Note_off_c, 1, 65, 0
1, 71156, Note_on_c, 1, 76, 127
1, 71157, Note_off_c, 1, 62, 0
1, 71227, Note_off_c, 1, 76, 0
1, 71267, Note_on_c, 1, 59, 127
1, 71284, Note_on_c, 1, 74, 127
1, 71384, Note_off_c, 1, 74, 0
1, 71399, Note_off_c, 1, 59, 0
1, 71511, Note_on_c, 1, 76, 127
1, 71516, Note_on_c, 1, 67, 127
1, 71521, Note_on_c, 1, 60, 127
1, 71527, Note_on_c, 1, 72, 127
1, 71606, Note_off_c, 1, 76, 0
1, 71619, Note_off_c, 1, 72, 0
1, 71634, Note_off_c, 1, 67, 0
1, 71636, Note_off_c, 1, 60, 0
1, 71744, Note_on_c, 1, 77, 127
1, 71762, Note_on_c, 1, 53, 127
1, 71763, Note_on_c, 1, 69, 127
1, 71766, Note_on_c, 1, 74, 127
1, 71859, Note_off_c, 1, 74, 0
1, 71863, Note_off_c, 1, 69, 0
1, 71877, Note_off_c, 1, 53, 0
1, 71891, Note_off_c, 1, 77, 0
1, 71996, Note_on_c, 1, 74, 127
1, 72002, Note_on_c, 1, 55, 127
1, 72007, Note_on_c, 1, 67, 127
1, 72015, Note_on_c, 1, 71, 127
1, 72086, Note_off_c, 1, 74, 0
1, 72106, Note_on_c, 1, 72, 127
1, 72109, Note_off_c, 1, 71, 0
1, 72127, Note_off_c, 1, 55, 0
1, 72213, Note_off_c, 1, 72, 0
1, 72238, Note_on_c, 1, 59, 127
1, 72338, Note_on_c, 1, 76, 127
1, 72349, Note_off_c, 1, 59, 0
1, 72372, Note_off_c, 1, 67, 0
1, 72447, Note_off_c, 1, 76, 0
1, 72466, Note_on_c, 1, 77, 127
1, 72472, Note_on_c, 1, 55, 127
1, 72481, Note_on_c, 1, 71, 127
1, 72486, Note_on_c, 1, 67, 127
1, 72566, Note_off_c, 1, 71, 0
1, 72579, Note_off_c, 1, 77, 0
1, 72587, Note_off_c, 1, 55, 0
1, 72587, Note_on_c, 1, 74, 127
1, 72594, Note_off_c, 1, 67, 0
1, 72691, Note_off_c, 1, 74, 0
1, 72709, Note_on_c, 1, 60, 127
1, 72717, Note_on_c, 1, 76, 127
1, 72727, Note_on_c, 1, 72, 127
1, 72732, Note_on_c, 1, 67, 127
1, 72837, Note_off_c, 1, 60, 0
1, 72848, Note_off_c, 1, 67, 0
1, 72875, Note_off_c, 1, 76, 0
1, 72953, Note_on_c, 1, 79, 127
1, 72955, Note_on_c, 1, 59, 127
1, 72973, Note_on_c, 1, 64, 127
1, 73047, Note_off_c, 1, 79, 0
1, 73063, Note_off_c, 1, 64, 0
1, 73078, Note_off_c, 1, 72, 0
1, 73078, Note_off_c, 1, 59, 0
1, 73193, Note_on_c, 1, 84, 127
1, 73197, Note_on_c, 1, 57, 127
1, 73200, Note_on_c, 1, 76, 127
1, 73200, Note_on_c, 1, 69, 127
1, 73291, Note_off_c, 1, 76, 0
1, 73293, Note_off_c, 1, 84, 0
1, 73299, Note_off_c, 1, 69, 0
1, 73301, Note_off_c, 1, 57, 0
1, 73428, Note_on_c, 1, 79, 127
1, 73434, Note_on_c, 1, 74, 127
1, 73439, Note_on_c, 1, 50, 127
1, 73445, Note_on_c, 1, 69, 127
1, 73486, Note_on_c, 1, 78, 127
1, 73536, Note_off_c, 1, 79, 0
1, 73540, Note_off_c, 1, 74, 0
1, 73553, Note_off_c, 1, 69, 0
1, 73567, Note_off_c, 1, 50, 0
1, 73633, Note_off_c, 1, 78, 0
1, 73666, Note_on_c, 1, 69, 127
1, 73666, Note_on_c, 1, 54, 127
1, 73669, Note_on_c, 1, 76, 127
1, 73677, Note_on_c, 1, 66, 127
1, 73758, Note_off_c, 1, 54, 0
1, 73770, Note_off_c, 1, 69, 0
1, 73773, Note_on_c, 1, 50, 127
1, 73775, Note_off_c, 1, 66, 0
1, 73782, Note_on_c, 1, 74, 127
1, 73821, Note_off_c, 1, 76, 0
1, 73859, Note_off_c, 1, 50, 0
1, 73883, Note_off_c, 1, 74, 0
1, 73906, Note_on_c, 1, 72, 127
1, 73910, Note_on_c, 1, 55, 127
1, 73911, Note_on_c, 1, 67, 127
1, 73912, Note_on_c, 1, 62, 127
1, 74004, Note_off_c, 1, 67, 0
1, 74009, Note_off_c, 1, 62, 0
1, 74017, Note_off_c, 1, 55, 0
1, 74017, Note_on_c, 1, 71, 127
1, 74040, Note_off_c, 1, 72, 0
1, 74118, Note_off_c, 1, 71, 0
1, 74153, Note_on_c, 1, 76, 127
1, 74154, Note_on_c, 1, 67, 127
1, 74154, Note_on_c, 1, 48, 127
1, 74156, Note_on_c, 1, 60, 127
1, 74227, Note_off_c, 1, 67, 0
1, 74238, Note_off_c, 1, 60, 0
1, 74256, Note_off_c, 1, 48, 0
1, 74264, Note_on_c, 1, 59, 127
1, 74266, Note_on_c, 1, 69, 127
1, 74279, Note_off_c, 1, 76, 0
1, 74320, Note_off_c, 1, 69, 0
1, 74341, Note_off_c, 1, 59, 0
1, 74383, Note_on_c, 1, 67, 127
1, 74383, Note_on_c, 1, 60, 127
1, 74388, Note_on_c, 1, 50, 127
1, 74390, Note_on_c, 1, 71, 127
1, 74466, Note_off_c, 1, 60, 0
1, 74490, Note_on_c, 1, 69, 127
1, 74492, Note_on_c, 1, 66, 127
1, 74494, Note_on_c, 1, 57, 127
1, 74497, Note_off_c, 1, 67, 0
1, 74500, Note_off_c, 1, 71, 0
1, 74515, Note_off_c, 1, 50, 0
1, 74528, Note_off_c, 1, 66, 0
1, 74537, Note_off_c, 1, 69, 0
1, 74578, Note_off_c, 1, 57, 0
1, 74622, Note_on_c, 1, 62, 127
1, 74643, Note_on_c, 1, 38, 127
1, 74739, Note_off_c, 1, 62, 0
1, 74758, Note_off_c, 1, 38, 0
1, 74877, Note_on_c, 1, 43, 127
1, 74883, Note_on_c, 1, 59, 127
1, 74884, Note_on_c, 1, 67, 127
1, 74888, Note_on_c, 1, 62, 127
1, 74977, Note_off_c, 1, 43, 0
1, 74983, Note_on_c, 1, 50, 127
1, 75063, Note_off_c, 1, 50, 0
1, 75112, Note_on_c, 1, 55, 127
1, 75204, Note_off_c, 1, 55, 0
1, 75223, Note_on_c, 1, 57, 127
1, 75298, Note_off_c, 1, 57, 0
1, 75412, Note_off_c, 1, 59, 0
1, 75428, Note_off_c, 1, 67, 0
1, 75448, Note_off_c, 1, 62, 0
1, 75454, Note_on_c, 1, 53, 127
1, 75529, Note_off_c, 1, 53, 0
1, 75584, Note_on_c, 1, 52, 127
1, 75594, Note_on_c, 1, 64, 127
1, 75595, Note_on_c, 1, 72, 127
1, 75595, Note_on_c, 1, 67, 127
1, 75701, Note_off_c, 1, 52, 0
1, 75708, Note_off_c, 1, 67, 0
1, 75715, Note_off_c, 1, 64, 0
1, 75779, Note_off_c, 1, 72, 0
1, 75832, Note_on_c, 1, 76, 127
1, 75833, Note_on_c, 1, 67, 127
1, 75834, Note_on_c, 1, 72, 127
1, 75840, Note_on_c, 1, 48, 127
1, 75922, Note_off_c, 1, 76, 0
1, 75930, Note_off_c, 1, 72, 0
1, 75939, Note_off_c, 1, 67, 0
1, 75961, Note_off_c, 1, 48, 0
1, 76072, Note_on_c, 1, 67, 127
1, 76076, Note_on_c, 1, 79, 127
1, 76082, Note_on_c, 1, 52, 127
1, 76088, Note_on_c, 1, 72, 127
1, 76182, Note_off_c, 1, 67, 0
1, 76185, Note_off_c, 1, 52, 0
1, 76190, Note_off_c, 1, 72, 0
1, 76201, Note_off_c, 1, 79, 0
1, 76311, Note_on_c, 1, 81, 127
1, 76318, Note_on_c, 1, 65, 127
1, 76322, Note_on_c, 1, 53, 127
1, 76329, Note_on_c, 1, 72, 127
1, 76437, Note_off_c, 1, 65, 0
1, 76442, Note_off_c, 1, 72, 0
1, 76447, Note_off_c, 1, 53, 0
1, 76452, Note_off_c, 1, 81, 0
1, 76556, Note_on_c, 1, 60, 127
1, 76557, Note_on_c, 1, 69, 127
1, 76559, Note_on_c, 1, 57, 127
1, 76560, Note_on_c, 1, 79, 127
1, 76646, Note_off_c, 1, 57, 0
1, 76665, Note_on_c, 1, 77, 127
1, 76666, Note_off_c, 1, 69, 0
1, 76666, Note_on_c, 1, 53, 127
1, 76677, Note_off_c, 1, 60, 0
1, 76685, Note_off_c, 1, 79, 0
1, 76719, Note_off_c, 1, 77, 0
1, 76770, Note_off_c, 1, 53, 0
1, 76791, Note_on_c, 1, 62, 127
1, 76803, Note_on_c, 1, 65, 127
1, 76913, Note_off_c, 1, 62, 0
1, 76915, Note_off_c, 1, 65, 0
1, 76917, Note_on_c, 1, 76, 127
1, 77000, Note_off_c, 1, 76, 0
1, 77036, Note_on_c, 1, 59, 127
1, 77044, Note_on_c, 1, 74, 127
1, 77157, Note_off_c, 1, 74, 0
1, 77158, Note_off_c, 1, 59, 0
1, 77274, Note_on_c, 1, 76, 127
1, 77279, Note_on_c, 1, 60, 127
1, 77280, Note_on_c, 1, 67, 127
1, 77290, Note_on_c, 1, 72, 127
1, 77372, Note_off_c, 1, 76, 0
1, 77377, Note_off_c, 1, 60, 0
1, 77384, Note_off_c, 1, 72, 0
1, 77387, Note_off_c, 1, 67, 0
1, 77392, Note_on_c, 1, 72, 127
1, 77486, Note_off_c, 1, 72, 0
1, 77512, Note_on_c, 1, 77, 127
1, 77521, Note_on_c, 1, 53, 127
1, 77522, Note_on_c, 1, 69, 127
1, 77524, Note_on_c, 1, 74, 127
1, 77619, Note_off_c, 1, 53, 0
1, 77619, Note_off_c, 1, 69, 0
1, 77624, Note_off_c, 1, 74, 0
1, 77650, Note_off_c, 1, 77, 0
1, 77756, Note_on_c, 1, 74, 127
1, 77760, Note_on_c, 1, 55, 127
1, 77764, Note_on_c, 1, 67, 127
1, 77770, Note_on_c, 1, 71, 127
1, 77852, Note_off_c, 1, 74, 0
1, 77865, Note_on_c, 1, 72, 127
1, 77876, Note_off_c, 1, 71, 0
1, 77880, Note_off_c, 1, 55, 0
1, 77979, Note_off_c, 1, 72, 0
1, 77999, Note_on_c, 1, 59, 127
1, 78106, Note_on_c, 1, 76, 127
1, 78112, Note_off_c, 1, 59, 0
1, 78120, Note_off_c, 1, 67, 0
1, 78208, Note_off_c, 1, 76, 0
1, 78228, Note_on_c, 1, 77, 127
1, 78241, Note_on_c, 1, 55, 127
1, 78247, Note_on_c, 1, 67, 127
1, 78248, Note_on_c, 1, 71, 127
1, 78331, Note_off_c, 1, 77, 0
1, 78337, Note_off_c, 1, 71, 0
1, 78346, Note_off_c, 1, 55, 0
1, 78346, Note_on_c, 1, 74, 127
1, 78354, Note_off_c, 1, 67, 0
1, 78429, Note_off_c, 1, 74, 0
1, 78474, Note_on_c, 1, 60, 127
1, 78478, Note_on_c, 1, 76, 127
1, 78479, Note_on_c, 1, 72, 127
1, 78482, Note_on_c, 1, 67, 127
1, 78588, Note_off_c, 1, 60, 0
1, 78600, Note_off_c, 1, 67, 0
1, 78636, Note_off_c, 1, 76, 0
1, 78708, Note_on_c, 1, 59, 127
1, 78716, Note_on_c, 1, 79, 127
1, 78724, Note_on_c, 1, 64, 127
1, 78807, Note_off_c, 1, 79, 0
1, 78821, Note_off_c, 1, 64, 0
1, 78826, Note_off_c, 1, 59, 0
1, 78845, Note_off_c, 1, 72, 0
1, 78950, Note_on_c, 1, 84, 127
1, 78952, Note_on_c, 1, 57, 127
1, 78960, Note_on_c, 1, 76, 127
1, 78963, Note_on_c, 1, 69, 127
1, 79058, Note_off_c, 1, 57, 0
1, 79067, Note_off_c, 1, 76, 0
1, 79067, Note_off_c, 1, 69, 0
1, 79071, Note_off_c, 1, 84, 0
1, 79190, Note_on_c, 1, 50, 127
1, 79198, Note_on_c, 1, 74, 127
1, 79198, Note_on_c, 1, 79, 127
1, 79206, Note_on_c, 1, 69, 127
1, 79263, Note_on_c, 1, 78, 127
1, 79314, Note_off_c, 1, 79, 0
1, 79323, Note_off_c, 1, 50, 0
1, 79338, Note_off_c, 1, 69, 0
1, 79343, Note_off_c, 1, 74, 0
1, 79397, Note_off_c, 1, 78, 0
1, 79429, Note_on_c, 1, 54, 127
1, 79430, Note_on_c, 1, 69, 127
1, 79432, Note_on_c, 1, 66, 127
1, 79436, Note_on_c, 1, 76, 127
1, 79522, Note_off_c, 1, 54, 0
1, 79534, Note_off_c, 1, 69, 0
1, 79540, Note_on_c, 1, 74, 127
1, 79544, Note_on_c, 1, 50, 127
1, 79546, Note_off_c, 1, 66, 0
1, 79576, Note_off_c, 1, 76, 0
1, 79631, Note_off_c, 1, 50, 0
1, 79643, Note_off_c, 1, 74, 0
1, 79661, Note_on_c, 1, 67, 127
1, 79662, Note_on_c, 1, 72, 127
1, 79665, Note_on_c, 1, 55, 127
1, 79673, Note_on_c, 1, 62, 127
1, 79772, Note_on_c, 1, 71, 127
1, 79773, Note_off_c, 1, 67, 0
1, 79778, Note_off_c, 1, 55, 0
1, 79799, Note_off_c, 1, 72, 0
1, 79799, Note_off_c, 1, 62, 0
1, 79878, Note_off_c, 1, 71, 0
1, 79894, Note_on_c, 1, 60, 127
1, 79896, Note_on_c, 1, 67, 127
1, 79900, Note_on_c, 1, 76, 127
1, 79907, Note_on_c, 1, 48, 127
1, 79976, Note_off_c, 1, 67, 0
1, 79989, Note_off_c, 1, 60, 0
1, 80007, Note_off_c, 1, 48, 0
1, 80010, Note_on_c, 1, 59, 127
1, 80018, Note_on_c, 1, 69, 127
1, 80038, Note_off_c, 1, 76, 0
1, 80080, Note_off_c, 1, 69, 0
1, 80093, Note_off_c, 1, 59, 0
1, 80132, Note_on_c, 1, 60, 127
1, 80134, Note_on_c, 1, 67, 127
1, 80143, Note_on_c, 1, 71, 127
1, 80148, Note_on_c, 1, 50, 127
1, 80225, Note_off_c, 1, 60, 0
1, 80235, Note_on_c, 1, 69, 127
1, 80241, Note_on_c, 1, 57, 127
1, 80252, Note_on_c, 1, 66, 127
1, 80257, Note_off_c, 1, 67, 0
1, 80257, Note_off_c, 1, 71, 0
1, 80260, Note_off_c, 1, 50, 0
1, 80290, Note_off_c, 1, 66, 0
1, 80292, Note_off_c, 1, 69, 0
1, 80334, Note_off_c, 1, 57, 0
1, 80377, Note_on_c, 1, 62, 127
1, 80394, Note_on_c, 1, 38, 127
1, 80487, Note_off_c, 1, 62, 0
1, 80494, Note_off_c, 1, 38, 0
1, 80635, Note_on_c, 1, 67, 127
1, 80636, Note_on_c, 1, 62, 127
1, 80638, Note_on_c, 1, 43, 127
1, 80640, Note_on_c, 1, 59, 127
1, 80763, Note_off_c, 1, 43, 0
1, 80868, Note_on_c, 1, 47, 127
1, 80972, Note_off_c, 1, 47, 0
1, 81100, Note_on_c, 1, 50, 127
1, 81159, Note_off_c, 1, 59, 0
1, 81167, Note_off_c, 1, 67, 0
1, 81171, Note_off_c, 1, 62, 0
1, 81213, Note_off_c, 1, 50, 0
1, 81354, Note_on_c, 1, 62, 127
1, 81354, Note_on_c, 1, 59, 127
1, 81355, Note_on_c, 1, 67, 127
1, 81360, Note_on_c, 1, 55, 127
1, 81464, Note_off_c, 1, 55, 0
1, 81467, Note_off_c, 1, 59, 0
1, 81477, Note_off_c, 1, 62, 0
1, 81504, Note_off_c, 1, 67, 0
1, 81582, Note_on_c, 1, 50, 127
1, 81592, Note_on_c, 1, 67, 127
1, 81593, Note_on_c, 1, 71, 127
1, 81600, Note_on_c, 1, 62, 127
1, 81674, Note_off_c, 1, 71, 0
1, 81691, Note_off_c, 1, 50, 0
1, 81691, Note_off_c, 1, 67, 0
1, 81692, Note_off_c, 1, 62, 0
1, 81699, Note_on_c, 1, 67, 127
1, 81782, Note_off_c, 1, 67, 0
1, 81823, Note_on_c, 1, 74, 127
1, 81828, Note_on_c, 1, 47, 127
1, 81835, Note_on_c, 1, 67, 127
1, 81843, Note_on_c, 1, 62, 127
1, 81934, Note_off_c, 1, 47, 0
1, 81936, Note_off_c, 1, 62, 0
1, 81938, Note_off_c, 1, 74, 0
1, 81940, Note_off_c, 1, 67, 0
1, 82065, Note_on_c, 1, 77, 127
1, 82069, Note_on_c, 1, 62, 127
1, 82069, Note_on_c, 1, 44, 127
1, 82070, Note_on_c, 1, 71, 127
1, 82171, Note_off_c, 1, 62, 0
1, 82190, Note_off_c, 1, 71, 0
1, 82194, Note_off_c, 1, 77, 0
1, 82199, Note_off_c, 1, 44, 0
1, 82304, Note_on_c, 1, 76, 127
1, 82304, Note_on_c, 1, 47, 127
1, 82312, Note_on_c, 1, 72, 127
1, 82317, Note_on_c, 1, 68, 127
1, 82393, Note_off_c, 1, 47, 0
1, 82401, Note_on_c, 1, 71, 127
1, 82410, Note_on_c, 1, 74, 127
1, 82411, Note_off_c, 1, 72, 0
1, 82411, Note_on_c, 1, 44, 127
1, 82434, Note_off_c, 1, 76, 0
1, 82440, Note_off_c, 1, 68, 0
1, 82441, Note_off_c, 1, 71, 0
1, 82468, Note_off_c, 1, 74, 0
1, 82503, Note_off_c, 1, 44, 0
1, 82538, Note_on_c, 1, 52, 127
1, 82648, Note_on_c, 1, 69, 127
1, 82667, Note_off_c, 1, 52, 0
1, 82719, Note_off_c, 1, 69, 0
1, 82788, Note_on_c, 1, 48, 127
1, 82903, Note_off_c, 1, 48, 0
1, 83023, Note_on_c, 1, 72, 127
1, 83024, Note_on_c, 1, 53, 127
1, 83028, Note_on_c, 1, 69, 127
1, 83132, Note_off_c, 1, 69, 0
1, 83134, Note_off_c, 1, 72, 0
1, 83145, Note_off_c, 1, 53, 0
1, 83257, Note_on_c, 1, 71, 127
1, 83261, Note_on_c, 1, 81, 127
1, 83265, Note_on_c, 1, 50, 127
1, 83270, Note_on_c, 1, 65, 127
1, 83344, Note_off_c, 1, 71, 0
1, 83362, Note_off_c, 1, 50, 0
1, 83367, Note_off_c, 1, 65, 0
1, 83373, Note_off_c, 1, 81, 0
1, 83501, Note_on_c, 1, 52, 127
1, 83505, Note_on_c, 1, 80, 127
1, 83516, Note_on_c, 1, 71, 127
1, 83516, Note_on_c, 1, 64, 127
1, 83617, Note_on_c, 1, 81, 127
1, 83636, Note_off_c, 1, 52, 0
1, 83656, Note_off_c, 1, 80, 0
1, 83737, Note_on_c, 1, 83, 127
1, 83745, Note_on_c, 1, 56, 127
1, 83762, Note_off_c, 1, 81, 0
1, 83809, Note_off_c, 1, 83, 0
1, 83823, Note_off_c, 1, 56, 0
1, 83866, Note_off_c, 1, 71, 0
1, 83875, Note_off_c, 1, 64, 0
1, 83980, Note_on_c, 1, 64, 127
1, 83981, Note_on_c, 1, 76, 127
1, 83983, Note_on_c, 1, 68, 127
1, 84064, Note_off_c, 1, 76, 0
1, 84075, Note_off_c, 1, 68, 0
1, 84095, Note_off_c, 1, 64, 0
1, 84103, Note_on_c, 1, 74, 127
1, 84176, Note_off_c, 1, 74, 0
1, 84227, Note_on_c, 1, 69, 127
1, 84227, Note_on_c, 1, 57, 127
1, 84235, Note_on_c, 1, 64, 127
1, 84239, Note_on_c, 1, 72, 127
1, 84328, Note_off_c, 1, 64, 0
1, 84337, Note_off_c, 1, 69, 0
1, 84343, Note_off_c, 1, 57, 0
1, 84375, Note_off_c, 1, 72, 0
1, 84466, Note_on_c, 1, 72, 127
1, 84470, Note_on_c, 1, 76, 127
1, 84470, Note_on_c, 1, 45, 127
1, 84474, Note_on_c, 1, 69, 127
1, 84550, Note_off_c, 1, 76, 0
1, 84562, Note_off_c, 1, 69, 0
1, 84573, Note_off_c, 1, 72, 0
1, 84578, Note_off_c, 1, 45, 0
1, 84702, Note_on_c, 1, 81, 127
1, 84710, Note_on_c, 1, 48, 127
1, 84715, Note_on_c, 1, 64, 127
1, 84718, Note_on_c, 1, 69, 127
1, 84796, Note_off_c, 1, 69, 0
1, 84798, Note_off_c, 1, 64, 0
1, 84820, Note_off_c, 1, 81, 0
1, 84824, Note_off_c, 1, 48, 0
1, 84938, Note_on_c, 1, 71, 127
1, 84945, Note_on_c, 1, 50, 127
1, 84950, Note_on_c, 1, 65, 127
1, 84957, Note_on_c, 1, 69, 127
1, 85039, Note_off_c, 1, 71, 0
1, 85060, Note_off_c, 1, 50, 0
1, 85060, Note_on_c, 1, 72, 127
1, 85136, Note_off_c, 1, 72, 0
1, 85152, Note_off_c, 1, 69, 0
1, 85183, Note_on_c, 1, 53, 127
1, 85184, Note_on_c, 1, 74, 127
1, 85195, Note_on_c, 1, 68, 127
1, 85258, Note_off_c, 1, 53, 0
1, 85265, Note_off_c, 1, 68, 0
1, 85345, Note_off_c, 1, 65, 0
1, 85413, Note_on_c, 1, 56, 127
1, 85429, Note_on_c, 1, 64, 127
1, 85486, Note_off_c, 1, 74, 0
1, 85519, Note_off_c, 1, 56, 0
1, 85523, Note_off_c, 1, 64, 0
1, 85536, Note_on_c, 1, 62, 127
1, 85538, Note_on_c, 1, 77, 127
1, 85597, Note_off_c, 1, 62, 0
1, 85613, Note_off_c, 1, 77, 0
1, 85657, Note_on_c, 1, 72, 127
1, 85657, Note_on_c, 1, 57, 127
1, 85667, Note_on_c, 1, 76, 127
1, 85668, Note_on_c, 1, 69, 127
1, 85758, Note_off_c, 1, 69, 0
1, 85778, Note_off_c, 1, 57, 0
1, 85847, Note_off_c, 1, 72, 0
1, 85856, Note_off_c, 1, 76, 0
1, 85899, Note_on_c, 1, 50, 127
1, 85906, Note_on_c, 1, 74, 127
1, 85912, Note_on_c, 1, 71, 127
1, 85914, Note_on_c, 1, 65, 127
1, 85992, Note_off_c, 1, 71, 0
1, 86005, Note_off_c, 1, 65, 0
1, 86011, Note_off_c, 1, 50, 0
1, 86013, Note_on_c, 1, 72, 127
1, 86020, Note_on_c, 1, 69, 127
1, 86021, Note_off_c, 1, 74, 0
1, 86089, Note_off_c, 1, 72, 0
1, 86094, Note_off_c, 1, 69, 0
1, 86134, Note_on_c, 1, 71, 127
1, 86142, Note_on_c, 1, 52, 127
1, 86145, Note_on_c, 1, 68, 127
1, 86149, Note_on_c, 1, 59, 127
1, 86232, Note_off_c, 1, 68, 0
1, 86243, Note_off_c, 1, 52, 0
1, 86246, Note_off_c, 1, 59, 0
1, 86246, Note_on_c, 1, 69, 127
1, 86250, Note_on_c, 1, 72, 127
1, 86261, Note_off_c, 1, 71, 0
1, 86324, Note_off_c, 1, 69, 0
1, 86344, Note_off_c, 1, 72, 0
1, 86376, Note_on_c, 1, 64, 127
1, 86382, Note_on_c, 1, 45, 127
1, 86392, Note_on_c, 1, 69, 127
1, 86400, Note_on_c, 1, 60, 127
1, 86529, Note_off_c, 1, 45, 0
1, 86613, Note_on_c, 1, 48, 127
1, 86704, Note_off_c, 1, 48, 0
1, 86711, Note_off_c, 1, 64, 0
1, 86751, Note_on_c, 1, 65, 127
1, 86824, Note_off_c, 1, 65, 0
1, 86859, Note_on_c, 1, 67, 127
1, 86863, Note_on_c, 1, 53, 127
1, 86911, Note_off_c, 1, 67, 0
1, 86974, Note_off_c, 1, 60, 0
1, 86988, Note_off_c, 1, 53, 0
1, 87013, Note_off_c, 1, 69, 0
1, 87105, Note_on_c, 1, 52, 127
1, 87223, Note_off_c, 1, 52, 0
1, 87348, Note_on_c, 1, 72, 127
1, 87430, Note_off_c, 1, 72, 0
1, 87587, Note_on_c, 1, 76, 127
1, 87590, Note_on_c, 1, 60, 127
1, 87611, Note_on_c, 1, 67, 127
1, 87696, Note_off_c, 1, 60, 0
1, 87712, Note_off_c, 1, 76, 0
1, 87724, Note_off_c, 1, 67, 0
1, 87825, Note_on_c, 1, 69, 127
1, 87834, Note_on_c, 1, 65, 127
1, 87834, Note_on_c, 1, 60, 127
1, 87834, Note_on_c, 1, 53, 127
1, 87910, Note_off_c, 1, 53, 0
1, 87926, Note_off_c, 1, 69, 0
1, 87931, Note_off_c, 1, 60, 0
1, 87933, Note_off_c, 1, 65, 0
1, 87933, Note_on_c, 1, 52, 127
1, 87944, Note_on_c, 1, 71, 127
1, 88019, Note_off_c, 1, 52, 0
1, 88023, Note_off_c, 1, 71, 0
1, 88054, Note_on_c, 1, 53, 127
1, 88058, Note_on_c, 1, 72, 127
1, 88067, Note_on_c, 1, 62, 127
1, 88071, Note_on_c, 1, 67, 127
1, 88144, Note_off_c, 1, 53, 0
1, 88160, Note_on_c, 1, 71, 127
1, 88164, Note_on_c, 1, 50, 127
1, 88183, Note_off_c, 1, 72, 0
1, 88213, Note_off_c, 1, 71, 0
1, 88248, Note_off_c, 1, 50, 0
1, 88297, Note_on_c, 1, 55, 127
1, 88415, Note_on_c, 1, 69, 127
1, 88420, Note_off_c, 1, 55, 0
1, 88439, Note_off_c, 1, 67, 0
1, 88443, Note_off_c, 1, 62, 0
1, 88500, Note_off_c, 1, 69, 0
1, 88543, Note_on_c, 1, 52, 127
1, 88549, Note_on_c, 1, 64, 127
1, 88654, Note_off_c, 1, 52, 0
1, 88657, Note_off_c, 1, 64, 0
1, 88778, Note_on_c, 1, 57, 127
1, 88785, Note_on_c, 1, 60, 127
1, 88785, Note_on_c, 1, 77, 127
1, 88789, Note_on_c, 1, 72, 127
1, 88871, Note_off_c, 1, 77, 0
1, 88892, Note_off_c, 1, 60, 0
1, 88893, Note_off_c, 1, 57, 0
1, 88980, Note_off_c, 1, 72, 0
1, 89021, Note_on_c, 1, 53, 127
1, 89024, Note_on_c, 1, 81, 127
1, 89035, Note_on_c, 1, 69, 127
1, 89035, Note_on_c, 1, 62, 127
1, 89127, Note_off_c, 1, 62, 0
1, 89135, Note_off_c, 1, 53, 0
1, 89135, Note_off_c, 1, 81, 0
1, 89148, Note_off_c, 1, 69, 0
1, 89259, Note_on_c, 1, 71, 127
1, 89264, Note_on_c, 1, 62, 127
1, 89267, Note_on_c, 1, 55, 127
1, 89278, Note_on_c, 1, 67, 127
1, 89364, Note_off_c, 1, 71, 0
1, 89370, Note_off_c, 1, 67, 0
1, 89375, Note_on_c, 1, 72, 127
1, 89406, Note_off_c, 1, 55, 0
1, 89457, Note_off_c, 1, 62, 0
1, 89457, Note_off_c, 1, 72, 0
1, 89492, Note_on_c, 1, 74, 127
1, 89500, Note_on_c, 1, 64, 127
1, 89510, Note_on_c, 1, 60, 127
1, 89517, Note_on_c, 1, 67, 127
1, 89586, Note_off_c, 1, 60, 0
1, 89588, Note_off_c, 1, 64, 0
1, 89590, Note_on_c, 1, 72, 127
1, 89606, Note_on_c, 1, 62, 127
1, 89615, Note_off_c, 1, 74, 0
1, 89623, Note_on_c, 1, 59, 127
1, 89647, Note_off_c, 1, 72, 0
1, 89693, Note_off_c, 1, 62, 0
1, 89693, Note_off_c, 1, 59, 0
1, 89849, Note_on_c, 1, 71, 127
1, 89854, Note_on_c, 1, 57, 127
1, 89867, Note_off_c, 1, 67, 0
1, 89934, Note_off_c, 1, 57, 0
1, 89950, Note_off_c, 1, 71, 0
1, 90212, Note_on_c, 1, 71, 127
1, 90219, Note_on_c, 1, 55, 127
1, 90229, Note_on_c, 1, 62, 127
1, 90317, Note_on_c, 1, 67, 127
1, 90320, Note_off_c, 1, 62, 0
1, 90324, Note_off_c, 1, 71, 0
1, 90353, Note_off_c, 1, 55, 0
1, 90427, Note_off_c, 1, 67, 0
1, 90455, Note_on_c, 1, 77, 127
1, 90458, Note_on_c, 1, 59, 127
1, 90462, Note_on_c, 1, 67, 127
1, 90475, Note_on_c, 1, 74, 127
1, 90569, Note_off_c, 1, 67, 0
1, 90571, Note_off_c, 1, 59, 0
1, 90575, Note_off_c, 1, 74, 0
1, 90612, Note_off_c, 1, 77, 0
1, 90703, Note_on_c, 1, 48, 127
1, 90707, Note_on_c, 1, 76, 127
1, 90715, Note_on_c, 1, 72, 127
1, 90717, Note_on_c, 1, 67, 127
1, 90828, Note_off_c, 1, 67, 0
1, 90829, Note_off_c, 1, 72, 0
1, 90836, Note_off_c, 1, 48, 0
1, 90858, Note_off_c, 1, 76, 0
1, 90943, Note_on_c, 1, 53, 127
1, 90951, Note_on_c, 1, 65, 127
1, 90955, Note_on_c, 1, 81, 127
1, 90955, Note_on_c, 1, 72, 127
1, 91029, Note_off_c, 1, 53, 0
1, 91051, Note_on_c, 1, 50, 127
1, 91057, Note_off_c, 1, 72, 0
1, 91059, Note_off_c, 1, 65, 0
1, 91064, Note_on_c, 1, 79, 127
1, 91068, Note_off_c, 1, 81, 0
1, 91146, Note_off_c, 1, 50, 0
1, 91176, Note_off_c, 1, 79, 0
1, 91180, Note_on_c, 1, 59, 127
1, 91186, Note_on_c, 1, 81, 127
1, 91190, Note_on_c, 1, 74, 127
1, 91195, Note_on_c, 1, 65, 127
1, 91287, Note_off_c, 1, 74, 0
1, 91297, Note_off_c, 1, 59, 0
1, 91298, Note_on_c, 1, 77, 127
1, 91302, Note_off_c, 1, 65, 0
1, 91303, Note_off_c, 1, 81, 0
1, 91395, Note_off_c, 1, 77, 0
1, 91424, Note_on_c, 1, 79, 127
1, 91426, Note_on_c, 1, 72, 127
1, 91426, Note_on_c, 1, 52, 127
1, 91439, Note_on_c, 1, 64, 127
1, 91518, Note_off_c, 1, 79, 0
1, 91536, Note_off_c, 1, 72, 0
1, 91543, Note_off_c, 1, 64, 0
1, 91552, Note_off_c, 1, 52, 0
1, 91668, Note_on_c, 1, 72, 127
1, 91673, Note_on_c, 1, 69, 127
1, 91673, Note_on_c, 1, 53, 127
1, 91677, Note_on_c, 1, 64, 127
1, 91764, Note_off_c, 1, 69, 0
1, 91778, Note_off_c, 1, 72, 0
1, 91784, Note_off_c, 1, 64, 0
1, 91790, Note_off_c, 1, 53, 0
1, 91909, Note_on_c, 1, 71, 127
1, 91911, Note_on_c, 1, 55, 127
1, 91917, Note_on_c, 1, 67, 127
1, 91917, Note_on_c, 1, 62, 127
1, 92009, Note_off_c, 1, 62, 0
1, 92012, Note_off_c, 1, 67, 0
1, 92020, Note_off_c, 1, 71, 0
1, 92042, Note_off_c, 1, 55, 0
1, 92156, Note_on_c, 1, 64, 127
1, 92157, Note_on_c, 1, 48, 127
1, 92161, Note_on_c, 1, 72, 127
1, 92163, Note_on_c, 1, 67, 127
1, 92244, Note_off_c, 1, 48, 0
1, 92259, Note_on_c, 1, 47, 127
1, 92342, Note_off_c, 1, 47, 0
1, 92491, Note_on_c, 1, 50, 127
1, 92572, Note_off_c, 1, 50, 0
1, 92611, Note_on_c, 1, 52, 127
1, 92692, Note_off_c, 1, 52, 0
1, 92698, Note_off_c, 1, 67, 0
1, 92721, Note_off_c, 1, 72, 0
1, 92728, Note_off_c, 1, 64, 0
1, 92735, Note_on_c, 1, 53, 127
1, 92799, Note_off_c, 1, 53, 0
1, 92858, Note_on_c, 1, 55, 127
1, 92861, Note_on_c, 1, 67, 127
1, 92870, Note_on_c, 1, 62, 127
1, 92874, Note_on_c, 1, 59, 127
1, 92985, Note_off_c, 1, 62, 0
1, 92987, Note_off_c, 1, 55, 0
1, 92989, Note_off_c, 1, 59, 0
1, 93003, Note_off_c, 1, 67, 0
1, 93104, Note_on_c, 1, 50, 127
1, 93111, Note_on_c, 1, 71, 127
1, 93115, Note_on_c, 1, 67, 127
1, 93116, Note_on_c, 1, 62, 127
1, 93196, Note_off_c, 1, 71, 0
1, 93212, Note_off_c, 1, 62, 0
1, 93221, Note_off_c, 1, 67, 0
1, 93225, Note_off_c, 1, 50, 0
1, 93352, Note_on_c, 1, 74, 127
1, 93354, Note_on_c, 1, 67, 127
1, 93354, Note_on_c, 1, 62, 127
1, 93358, Note_on_c, 1, 47, 127
1, 93462, Note_off_c, 1, 74, 0
1, 93464, Note_off_c, 1, 67, 0
1, 93467, Note_off_c, 1, 62, 0
1, 93477, Note_off_c, 1, 47, 0
1, 93591, Note_on_c, 1, 62, 127
1, 93591, Note_on_c, 1, 44, 127
1, 93591, Note_on_c, 1, 77, 127
1, 93602, Note_on_c, 1, 71, 127
1, 93712, Note_off_c, 1, 62, 0
1, 93716, Note_off_c, 1, 71, 0
1, 93720, Note_off_c, 1, 77, 0
1, 93735, Note_off_c, 1, 44, 0
1, 93821, Note_on_c, 1, 47, 127
1, 93829, Note_on_c, 1, 76, 127
1, 93833, Note_on_c, 1, 68, 127
1, 93842, Note_on_c, 1, 72, 127
1, 93916, Note_off_c, 1, 47, 0
1, 93919, Note_on_c, 1, 74, 127
1, 93929, Note_on_c, 1, 71, 127
1, 93935, Note_on_c, 1, 44, 127
1, 93942, Note_off_c, 1, 68, 0
1, 93944, Note_off_c, 1, 72, 0
1, 93958, Note_off_c, 1, 76, 0
1, 93972, Note_off_c, 1, 71, 0
1, 93994, Note_off_c, 1, 74, 0
1, 94026, Note_off_c, 1, 44, 0
1, 94058, Note_on_c, 1, 52, 127
1, 94179, Note_off_c, 1, 52, 0
1, 94182, Note_on_c, 1, 69, 127
1, 94244, Note_off_c, 1, 69, 0
1, 94312, Note_on_c, 1, 48, 127
1, 94424, Note_off_c, 1, 48, 0
1, 94540, Note_on_c, 1, 69, 127
1, 94548, Note_on_c, 1, 72, 127
1, 94552, Note_on_c, 1, 53, 127
1, 94651, Note_off_c, 1, 69, 0
1, 94654, Note_off_c, 1, 72, 0
1, 94665, Note_off_c, 1, 53, 0
1, 94784, Note_on_c, 1, 50, 127
1, 94787, Note_on_c, 1, 71, 127
1, 94787, Note_on_c, 1, 65, 127
1, 94790, Note_on_c, 1, 81, 127
1, 94884, Note_off_c, 1, 71, 0
1, 94893, Note_off_c, 1, 65, 0
1, 94894, Note_off_c, 1, 50, 0
1, 94908, Note_off_c, 1, 81, 0
1, 95030, Note_on_c, 1, 80, 127
1, 95030, Note_on_c, 1, 71, 127
1, 95030, Note_on_c, 1, 52, 127
1, 95035, Note_on_c, 1, 64, 127
1, 95144, Note_on_c, 1, 81, 127
1, 95177, Note_off_c, 1, 80, 0
1, 95197, Note_off_c, 1, 52, 0
1, 95261, Note_on_c, 1, 83, 127
1, 95269, Note_on_c, 1, 56, 127
1, 95279, Note_off_c, 1, 81, 0
1, 95326, Note_off_c, 1, 83, 0
1, 95349, Note_off_c, 1, 56, 0
1, 95396, Note_off_c, 1, 71, 0
1, 95400, Note_off_c, 1, 64, 0
1, 95506, Note_on_c, 1, 64, 127
1, 95510, Note_on_c, 1, 76, 127
1, 95511, Note_on_c, 1, 68, 127
1, 95580, Note_off_c, 1, 76, 0
1, 95600, Note_off_c, 1, 68, 0
1, 95624, Note_on_c, 1, 74, 127
1, 95630, Note_off_c, 1, 64, 0
1, 95702, Note_off_c, 1, 74, 0
1, 95744, Note_on_c, 1, 69, 127
1, 95748, Note_on_c, 1, 57, 127
1, 95751, Note_on_c, 1, 64, 127
1, 95753, Note_on_c, 1, 72, 127
1, 95853, Note_off_c, 1, 69, 0
1, 95859, Note_off_c, 1, 64, 0
1, 95884, Note_off_c, 1, 57, 0
1, 95911, Note_off_c, 1, 72, 0
1, 95984, Note_on_c, 1, 72, 127
1, 95988, Note_on_c, 1, 45, 127
1, 95990, Note_on_c, 1, 69, 127
1, 95992, Note_on_c, 1, 76, 127
1, 96093, Note_off_c, 1, 72, 0
1, 96096, Note_off_c, 1, 69, 0
1, 96099, Note_off_c, 1, 76, 0
1, 96115, Note_off_c, 1, 45, 0
1, 96220, Note_on_c, 1, 48, 127
1, 96225, Note_on_c, 1, 69, 127
1, 96234, Note_on_c, 1, 81, 127
1, 96237, Note_on_c, 1, 64, 127
1, 96323, Note_off_c, 1, 69, 0
1, 96330, Note_off_c, 1, 64, 0
1, 96335, Note_off_c, 1, 81, 0
1, 96338, Note_off_c, 1, 48, 0
1, 96464, Note_on_c, 1, 69, 127
1, 96470, Note_on_c, 1, 50, 127
1, 96471, Note_on_c, 1, 71, 127
1, 96490, Note_on_c, 1, 65, 127
1, 96576, Note_off_c, 1, 71, 0
1, 96591, Note_on_c, 1, 72, 127
1, 96621, Note_off_c, 1, 50, 0
1, 96666, Note_off_c, 1, 72, 0
1, 96671, Note_off_c, 1, 69, 0
1, 96701, Note_on_c, 1, 53, 127
1, 96706, Note_on_c, 1, 74, 127
1, 96708, Note_on_c, 1, 68, 127
1, 96777, Note_off_c, 1, 68, 0
1, 96785, Note_off_c, 1, 53, 0
1, 96894, Note_off_c, 1, 65, 0
1, 96947, Note_on_c, 1, 56, 127
1, 96948, Note_on_c, 1, 64, 127
1, 97010, Note_off_c, 1, 74, 0
1, 97035, Note_off_c, 1, 64, 0
1, 97056, Note_on_c, 1, 77, 127
1, 97057, Note_on_c, 1, 62, 127
1, 97064, Note_off_c, 1, 56, 0
1, 97128, Note_off_c, 1, 62, 0
1, 97136, Note_off_c, 1, 77, 0
1, 97186, Note_on_c, 1, 57, 127
1, 97187, Note_on_c, 1, 76, 127
1, 97190, Note_on_c, 1, 72, 127
1, 97194, Note_on_c, 1, 69, 127
1, 97295, Note_off_c, 1, 69, 0
1, 97308, Note_off_c, 1, 57, 0
1, 97380, Note_off_c, 1, 72, 0
1, 97394, Note_off_c, 1, 76, 0
1, 97423, Note_on_c, 1, 74, 127
1, 97431, Note_on_c, 1, 71, 127
1, 97431, Note_on_c, 1, 50, 127
1, 97433, Note_on_c, 1, 65, 127
1, 97513, Note_off_c, 1, 71, 0
1, 97527, Note_off_c, 1, 65, 0
1, 97531, Note_on_c, 1, 72, 127
1, 97534, Note_off_c, 1, 74, 0
1, 97539, Note_on_c, 1, 69, 127
1, 97542, Note_off_c, 1, 50, 0
1, 97619, Note_off_c, 1, 69, 0
1, 97628, Note_off_c, 1, 72, 0
1, 97652, Note_on_c, 1, 71, 127
1, 97658, Note_on_c, 1, 68, 127
1, 97672, Note_on_c, 1, 52, 127
1, 97678, Note_on_c, 1, 59, 127
1, 97741, Note_off_c, 1, 68, 0
1, 97765, Note_on_c, 1, 69, 127
1, 97772, Note_on_c, 1, 72, 127
1, 97773, Note_off_c, 1, 71, 0
1, 97776, Note_off_c, 1, 52, 0
1, 97776, Note_off_c, 1, 59, 0
1, 97835, Note_off_c, 1, 69, 0
1, 97871, Note_off_c, 1, 72, 0
1, 97902, Note_on_c, 1, 45, 127
1, 97905, Note_on_c, 1, 69, 127
1, 97909, Note_on_c, 1, 64, 127
1, 97922, Note_on_c, 1, 60, 127
1, 98107, Note_off_c, 1, 45, 0
1, 98139, Note_on_c, 1, 48, 127
1, 98205, Note_off_c, 1, 64, 0
1, 98221, Note_off_c, 1, 48, 0
1, 98269, Note_on_c, 1, 65, 127
1, 98341, Note_off_c, 1, 65, 0
1, 98374, Note_on_c, 1, 53, 127
1, 98382, Note_on_c, 1, 67, 127
1, 98437, Note_off_c, 1, 67, 0
1, 98502, Note_off_c, 1, 60, 0
1, 98507, Note_off_c, 1, 69, 0
1, 98508, Note_off_c, 1, 53, 0
1, 98629, Note_on_c, 1, 52, 127
1, 98758, Note_off_c, 1, 52, 0
1, 98875, Note_on_c, 1, 72, 127
1, 98953, Note_off_c, 1, 72, 0
1, 99105, Note_on_c, 1, 60, 127
1, 99108, Note_on_c, 1, 76, 127
1, 99124, Note_on_c, 1, 67, 127
1, 99225, Note_off_c, 1, 67, 0
1, 99234, Note_off_c, 1, 76, 0
1, 99236, Note_off_c, 1, 60, 0
1, 99350, Note_on_c, 1, 69, 127
1, 99350, Note_on_c, 1, 60, 127
1, 99350, Note_on_c, 1, 53, 127
1, 99354, Note_on_c, 1, 65, 127
1, 99436, Note_off_c, 1, 53, 0
1, 99449, Note_on_c, 1, 52, 127
1, 99452, Note_off_c, 1, 65, 0
1, 99456, Note_off_c, 1, 69, 0
1, 99456, Note_off_c, 1, 60, 0
1, 99464, Note_on_c, 1, 71, 127
1, 99543, Note_off_c, 1, 52, 0
1, 99545, Note_off_c, 1, 71, 0
1, 99576, Note_on_c, 1, 72, 127
1, 99576, Note_on_c, 1, 53, 127
1, 99588, Note_on_c, 1, 67, 127
1, 99592, Note_on_c, 1, 62, 127
1, 99668, Note_off_c, 1, 53, 0
1, 99678, Note_on_c, 1, 71, 127
1, 99684, Note_on_c, 1, 50, 127
1, 99691, Note_off_c, 1, 72, 0
1, 99726, Note_off_c, 1, 71, 0
1, 99783, Note_off_c, 1, 50, 0
1, 99815, Note_on_c, 1, 55, 127
1, 99933, Note_on_c, 1, 69, 127
1, 99943, Note_off_c, 1, 67, 0
1, 99951, Note_off_c, 1, 55, 0
1, 99984, Note_off_c, 1, 62, 0
1, 100026, Note_off_c, 1, 69, 0
1, 100068, Note_on_c, 1, 64, 127
1, 100069, Note_on_c, 1, 52, 127
1, 100185, Note_off_c, 1, 64, 0
1, 100214, Note_off_c, 1, 52, 0
1, 100300, Note_on_c, 1, 72, 127
1, 100304, Note_on_c, 1, 60, 127
1, 100305, Note_on_c, 1, 77, 127
1, 100316, Note_on_c, 1, 57, 127
1, 100389, Note_off_c, 1, 77, 0
1, 100418, Note_off_c, 1, 72, 0
1, 100422, Note_off_c, 1, 60, 0
1, 100438, Note_off_c, 1, 57, 0
1, 100539, Note_on_c, 1, 53, 127
1, 100543, Note_on_c, 1, 81, 127
1, 100550, Note_on_c, 1, 69, 127
1, 100554, Note_on_c, 1, 62, 127
1, 100666, Note_off_c, 1, 69, 0
1, 100667, Note_off_c, 1, 81, 0
1, 100671, Note_off_c, 1, 62, 0
1, 100682, Note_off_c, 1, 53, 0
1, 100783, Note_on_c, 1, 71, 127
1, 100791, Note_on_c, 1, 62, 127
1, 100791, Note_on_c, 1, 55, 127
1, 100797, Note_on_c, 1, 67, 127
1, 100881, Note_off_c, 1, 71, 0
1, 100890, Note_off_c, 1, 67, 0
1, 100898, Note_on_c, 1, 72, 127
1, 100921, Note_off_c, 1, 62, 0
1, 100922, Note_off_c, 1, 55, 0
1, 100983, Note_off_c, 1, 72, 0
1, 101019, Note_on_c, 1, 74, 127
1, 101023, Note_on_c, 1, 64, 127
1, 101034, Note_on_c, 1, 60, 127
1, 101035, Note_on_c, 1, 67, 127
1, 101097, Note_on_c, 1, 72, 127
1, 101114, Note_off_c, 1, 64, 0
1, 101114, Note_off_c, 1, 60, 0
1, 101124, Note_off_c, 1, 74, 0
1, 101129, Note_on_c, 1, 62, 127
1, 101140, Note_on_c, 1, 59, 127
1, 101148, Note_off_c, 1, 72, 0
1, 101217, Note_off_c, 1, 62, 0
1, 101223, Note_off_c, 1, 59, 0
1, 101366, Note_on_c, 1, 71, 127
1, 101367, Note_on_c, 1, 57, 127
1, 101394, Note_off_c, 1, 67, 0
1, 101453, Note_off_c, 1, 57, 0
1, 101461, Note_off_c, 1, 71, 0
1, 101743, Note_on_c, 1, 71, 127
1, 101743, Note_on_c, 1, 62, 127
1, 101743, Note_on_c, 1, 55, 127
1, 101843, Note_off_c, 1, 62, 0
1, 101851, Note_off_c, 1, 71, 0
1, 101851, Note_on_c, 1, 67, 127
1, 101863, Note_off_c, 1, 55, 0
1, 101948, Note_off_c, 1, 67, 0
1, 101976, Note_on_c, 1, 77, 127
1, 101977, Note_on_c, 1, 59, 127
1, 101980, Note_on_c, 1, 67, 127
1, 101996, Note_on_c, 1, 74, 127
1, 102096, Note_off_c, 1, 74, 0
1, 102097, Note_off_c, 1, 67, 0
1, 102121, Note_off_c, 1, 77, 0
1, 102125, Note_off_c, 1, 59, 0
1, 102225, Note_on_c, 1, 48, 127
1, 102226, Note_on_c, 1, 76, 127
1, 102227, Note_on_c, 1, 67, 127
1, 102233, Note_on_c, 1, 72, 127
1, 102264, Note_on_c, 1, 47, 127
1, 102286, Note_off_c, 1, 47, 0
1, 102340, Note_off_c, 1, 67, 0
1, 102363, Note_off_c, 1, 76, 0
1, 102368, Note_off_c, 1, 72, 0
1, 102383, Note_off_c, 1, 48, 0
1, 102456, Note_on_c, 1, 53, 127
1, 102468, Note_on_c, 1, 65, 127
1, 102472, Note_on_c, 1, 72, 127
1, 102473, Note_on_c, 1, 81, 127
1, 102538, Note_off_c, 1, 53, 0
1, 102558, Note_on_c, 1, 50, 127
1, 102578, Note_off_c, 1, 65, 0
1, 102579, Note_on_c, 1, 79, 127
1, 102581, Note_off_c, 1, 72, 0
1, 102592, Note_off_c, 1, 81, 0
1, 102652, Note_off_c, 1, 50, 0
1, 102686, Note_off_c, 1, 79, 0
1, 102696, Note_on_c, 1, 59, 127
1, 102700, Note_on_c, 1, 81, 127
1, 102711, Note_on_c, 1, 74, 127
1, 102717, Note_on_c, 1, 65, 127
1, 102807, Note_off_c, 1, 74, 0
1, 102812, Note_off_c, 1, 81, 0
1, 102824, Note_off_c, 1, 65, 0
1, 102824, Note_on_c, 1, 77, 127
1, 102833, Note_off_c, 1, 59, 0
1, 102909, Note_off_c, 1, 77, 0
1, 102944, Note_on_c, 1, 79, 127
1, 102944, Note_on_c, 1, 72, 127
1, 102949, Note_on_c, 1, 52, 127
1, 102953, Note_on_c, 1, 64, 127
1, 103050, Note_off_c, 1, 72, 0
1, 103051, Note_off_c, 1, 79, 0
1, 103066, Note_off_c, 1, 64, 0
1, 103079, Note_off_c, 1, 52, 0
1, 103187, Note_on_c, 1, 69, 127
1, 103187, Note_on_c, 1, 72, 127
1, 103188, Note_on_c, 1, 53, 127
1, 103194, Note_on_c, 1, 64, 127
1, 103284, Note_off_c, 1, 69, 0
1, 103284, Note_off_c, 1, 72, 0
1, 103294, Note_off_c, 1, 64, 0
1, 103316, Note_off_c, 1, 53, 0
1, 103426, Note_on_c, 1, 71, 127
1, 103436, Note_on_c, 1, 67, 127
1, 103438, Note_on_c, 1, 62, 127
1, 103440, Note_on_c, 1, 55, 127
1, 103532, Note_off_c, 1, 67, 0
1, 103534, Note_off_c, 1, 62, 0
1, 103535, Note_off_c, 1, 71, 0
1, 103550, Note_off_c, 1, 55, 0
1, 103676, Note_on_c, 1, 48, 127
1, 103677, Note_on_c, 1, 67, 127
1, 103677, Note_on_c, 1, 64, 127
1, 103687, Note_on_c, 1, 72, 127
1, 104216, Note_off_c, 1, 64, 0
1, 104250, Note_off_c, 1, 67, 0
1, 104258, Note_off_c, 1, 48, 0
1, 104315, Note_off_c, 1, 72, 0
1, 104315, End_track
0, 0, End_of_file