0, 0, Header, 1, 1, 480
1, 0, Start_track
1, 0, Title_t, "Test"
1, 0, Tempo, 500000
1, 0, Instrument_name_t, "Church Organ"
1, 951, Note_on_c, 1, 72, 127
1, 952, Note_on_c, 1, 76, 127
1, 953, Note_on_c, 1, 36, 127
1, 956, Note_on_c, 1, 67, 127
1, 1225, Note_off_c, 1, 72, 0
1, 1243, Note_on_c, 1, 71, 127
1, 1251, Note_off_c, 1, 36, 0
1, 1254, Note_on_c, 1, 55, 127
1, 1286, Note_off_c, 1, 71, 0
1, 1290, Note_off_c, 1, 55, 0
1, 1308, Note_on_c, 1, 57, 127
1, 1349, Note_off_c, 1, 57, 0
1, 1356, Note_on_c, 1, 74, 127
1, 1362, Note_on_c, 1, 59, 127
1, 1398, Note_off_c, 1, 59, 0
1, 1401, Note_off_c, 1, 74, 0
1, 1427, Note_on_c, 1, 60, 127
1, 1505, Note_off_c, 1, 76, 0
1, 1541, Note_off_c, 1, 67, 0
1, 1607, Note_on_c, 1, 77, 127
1, 1666, Note_off_c, 1, 77, 0
1, 1667, Note_on_c, 1, 79, 127
1, 1720, Note_off_c, 1, 79, 0
1, 1847, Note_on_c, 1, 81, 127
1, 1849, Note_on_c, 1, 64, 127
1, 1885, Note_off_c, 1, 64, 0
1, 1903, Note_off_c, 1, 81, 0
1, 1915, Note_on_c, 1, 69, 127
1, 1917, Note_on_c, 1, 65, 127
1, 2052, Note_off_c, 1, 60, 0
1, 2265, Note_off_c, 1, 65, 0
1, 2276, Note_off_c, 1, 69, 0
1, 2388, Note_on_c, 1, 79, 127
1, 2389, Note_on_c, 1, 59, 127
1, 2390, Note_on_c, 1, 74, 127
1, 2391, Note_on_c, 1, 67, 127
1, 2449, Note_off_c, 1, 79, 0
1, 2452, Note_on_c, 1, 77, 127
1, 2469, Note_off_c, 1, 67, 0
1, 2471, Note_off_c, 1, 74, 0
1, 2478, Note_off_c, 1, 59, 0
1, 2510, Note_on_c, 1, 76, 127
1, 2511, Note_off_c, 1, 77, 0
1, 2560, Note_on_c, 1, 57, 127
1, 2562, Note_on_c, 1, 69, 127
1, 2568, Note_off_c, 1, 76, 0
1, 2571, Note_on_c, 1, 72, 127
1, 2598, Note_off_c, 1, 57, 0
1, 2601, Note_off_c, 1, 69, 0
1, 2601, Note_off_c, 1, 72, 0
1, 2624, Note_on_c, 1, 67, 127
1, 2626, Note_on_c, 1, 59, 127
1, 2629, Note_on_c, 1, 79, 127
1, 2635, Note_on_c, 1, 74, 127
1, 2688, Note_off_c, 1, 79, 0
1, 2690, Note_on_c, 1, 76, 127
1, 2708, Note_off_c, 1, 74, 0
1, 2709, Note_off_c, 1, 59, 0
1, 2711, Note_off_c, 1, 67, 0
1, 2746, Note_off_c, 1, 76, 0
1, 2749, Note_on_c, 1, 77, 127
1, 2796, Note_on_c, 1, 55, 127
1, 2800, Note_off_c, 1, 77, 0
1, 2803, Note_on_c, 1, 65, 127
1, 2806, Note_on_c, 1, 79, 127
1, 2809, Note_on_c, 1, 71, 127
1, 2837, Note_off_c, 1, 65, 0
1, 2840, Note_off_c, 1, 71, 0
1, 2845, Note_off_c, 1, 55, 0
1, 2864, Note_off_c, 1, 79, 0
1, 2870, Note_on_c, 1, 64, 127
1, 2873, Note_on_c, 1, 72, 127
1, 2875, Note_on_c, 1, 57, 127
1, 3034, Note_off_c, 1, 72, 0
1, 3054, Note_on_c, 1, 69, 127
1, 3080, Note_on_c, 1, 71, 127
1, 3093, Note_off_c, 1, 69, 0
1, 3113, Note_off_c, 1, 71, 0
1, 3131, Note_off_c, 1, 57, 0
1, 3226, Note_on_c, 1, 59, 127
1, 3246, Note_off_c, 1, 64, 0
1, 3272, Note_off_c, 1, 59, 0
1, 3282, Note_on_c, 1, 60, 127
1, 3290, Note_on_c, 1, 74, 127
1, 3313, Note_on_c, 1, 76, 127
1, 3318, Note_off_c, 1, 60, 0
1, 3323, Note_off_c, 1, 74, 0
1, 3347, Note_off_c, 1, 76, 0
1, 3347, Note_on_c, 1, 62, 127
1, 3349, Note_on_c, 1, 77, 127
1, 3722, Note_off_c, 1, 62, 0
1, 3738, Note_off_c, 1, 77, 0
1, 3766, Note_on_c, 1, 62, 127
1, 3769, Note_on_c, 1, 77, 127
1, 3774, Note_on_c, 1, 72, 127
1, 3808, Note_off_c, 1, 77, 0
1, 3808, Note_off_c, 1, 72, 0
1, 3815, Note_off_c, 1, 62, 0
1, 3831, Note_on_c, 1, 55, 127
1, 3831, Note_on_c, 1, 77, 127
1, 3834, Note_on_c, 1, 71, 127
1, 3835, Note_on_c, 1, 62, 127
1, 3889, Note_off_c, 1, 77, 0
1, 3894, Note_on_c, 1, 79, 127
1, 3933, Note_off_c, 1, 71, 0
1, 3942, Note_off_c, 1, 79, 0
1, 3967, Note_off_c, 1, 55, 0
1, 4000, Note_on_c, 1, 72, 127
1, 4003, Note_off_c, 1, 62, 0
1, 4004, Note_on_c, 1, 57, 127
1, 4008, Note_on_c, 1, 76, 127
1, 4037, Note_off_c, 1, 72, 0
1, 4039, Note_off_c, 1, 57, 0
1, 4057, Note_off_c, 1, 76, 0
1, 4065, Note_on_c, 1, 74, 127
1, 4065, Note_on_c, 1, 59, 127
1, 4069, Note_on_c, 1, 77, 127
1, 4072, Note_on_c, 1, 67, 127
1, 4126, Note_off_c, 1, 77, 0
1, 4131, Note_on_c, 1, 76, 127
1, 4156, Note_off_c, 1, 74, 0
1, 4158, Note_off_c, 1, 59, 0
1, 4185, Note_off_c, 1, 76, 0
1, 4217, Note_off_c, 1, 67, 0
1, 4234, Note_on_c, 1, 55, 127
1, 4245, Note_on_c, 1, 71, 127
1, 4275, Note_off_c, 1, 55, 0
1, 4280, Note_off_c, 1, 71, 0
1, 4303, Note_on_c, 1, 60, 127
1, 4378, Note_on_c, 1, 72, 127
1, 4409, Note_off_c, 1, 72, 0
1, 4470, Note_off_c, 1, 60, 0
1, 4548, Note_on_c, 1, 48, 127
1, 4698, Note_off_c, 1, 48, 0
1, 4725, Note_on_c, 1, 74, 127
1, 4737, Note_on_c, 1, 67, 127
1, 4760, Note_off_c, 1, 74, 0
1, 4768, Note_off_c, 1, 67, 0
1, 4785, Note_on_c, 1, 55, 127
1, 4787, Note_on_c, 1, 74, 127
1, 4796, Note_on_c, 1, 71, 127
1, 4799, Note_on_c, 1, 67, 127
1, 5111, Note_off_c, 1, 74, 0
1, 5127, Note_on_c, 1, 69, 127
1, 5166, Note_on_c, 1, 72, 127
1, 5168, Note_off_c, 1, 69, 0
1, 5194, Note_off_c, 1, 72, 0
1, 5196, Note_on_c, 1, 76, 127
1, 5218, Note_on_c, 1, 78, 127
1, 5238, Note_on_c, 1, 79, 127
1, 5252, Note_off_c, 1, 78, 0
1, 5252, Note_on_c, 1, 81, 127
1, 5263, Note_off_c, 1, 79, 0
1, 5268, Note_off_c, 1, 76, 0
1, 5274, Note_on_c, 1, 83, 127
1, 5291, Note_off_c, 1, 81, 0
1, 5315, Note_off_c, 1, 55, 0
1, 5329, Note_on_c, 1, 54, 127
1, 5373, Note_off_c, 1, 54, 0
1, 5418, Note_off_c, 1, 71, 0
1, 5423, Note_off_c, 1, 67, 0
1, 5449, Note_on_c, 1, 57, 127
1, 5453, Note_on_c, 1, 62, 127
1, 5483, Note_off_c, 1, 62, 0
1, 5486, Note_off_c, 1, 57, 0
1, 5509, Note_on_c, 1, 59, 127
1, 5549, Note_off_c, 1, 59, 0
1, 5657, Note_off_c, 1, 83, 0
1, 5691, Note_on_c, 1, 59, 127
1, 5692, Note_on_c, 1, 67, 127
1, 5693, Note_on_c, 1, 66, 127
1, 5694, Note_on_c, 1, 83, 127
1, 5732, Note_off_c, 1, 66, 0
1, 5734, Note_off_c, 1, 67, 0
1, 5737, Note_off_c, 1, 83, 0
1, 5741, Note_off_c, 1, 59, 0
1, 5753, Note_on_c, 1, 83, 127
1, 5757, Note_on_c, 1, 64, 127
1, 5764, Note_on_c, 1, 76, 127
1, 5766, Note_on_c, 1, 48, 127
1, 5858, Note_off_c, 1, 64, 0
1, 5894, Note_off_c, 1, 83, 0
1, 5928, Note_on_c, 1, 67, 127
1, 5929, Note_on_c, 1, 79, 127
1, 5971, Note_off_c, 1, 67, 0
1, 5977, Note_off_c, 1, 79, 0
1, 5994, Note_on_c, 1, 78, 127
1, 5994, Note_on_c, 1, 69, 127
1, 6091, Note_off_c, 1, 69, 0
1, 6132, Note_off_c, 1, 78, 0
1, 6165, Note_on_c, 1, 71, 127
1, 6202, Note_off_c, 1, 71, 0
1, 6231, Note_on_c, 1, 72, 127
1, 6235, Note_on_c, 1, 81, 127
1, 6263, Note_off_c, 1, 48, 0
1, 6286, Note_on_c, 1, 47, 127
1, 6333, Note_off_c, 1, 47, 0
1, 6340, Note_off_c, 1, 72, 0
1, 6342, Note_on_c, 1, 45, 127
1, 6368, Note_off_c, 1, 76, 0
1, 6397, Note_off_c, 1, 45, 0
1, 6413, Note_on_c, 1, 74, 127
1, 6463, Note_off_c, 1, 74, 0
1, 6623, Note_off_c, 1, 81, 0
1, 6642, Note_on_c, 1, 48, 127
1, 6646, Note_on_c, 1, 57, 127
1, 6653, Note_on_c, 1, 81, 127
1, 6656, Note_on_c, 1, 78, 127
1, 6688, Note_off_c, 1, 81, 0
1, 6692, Note_off_c, 1, 48, 0
1, 6696, Note_off_c, 1, 57, 0
1, 6696, Note_off_c, 1, 78, 0
1, 6718, Note_on_c, 1, 81, 127
1, 6720, Note_on_c, 1, 40, 127
1, 6725, Note_on_c, 1, 71, 127
1, 6726, Note_on_c, 1, 64, 127
1, 6872, Note_off_c, 1, 81, 0
1, 6891, Note_on_c, 1, 83, 127
1, 6916, Note_off_c, 1, 40, 0
1, 6939, Note_off_c, 1, 83, 0
1, 6957, Note_on_c, 1, 52, 127
1, 6958, Note_on_c, 1, 79, 127
1, 7085, Note_off_c, 1, 79, 0
1, 7150, Note_on_c, 1, 78, 127
1, 7185, Note_off_c, 1, 78, 0
1, 7224, Note_off_c, 1, 52, 0
1, 7243, Note_on_c, 1, 50, 127
1, 7294, Note_off_c, 1, 50, 0
1, 7317, Note_off_c, 1, 64, 0
1, 7328, Note_off_c, 1, 71, 0
1, 7363, Note_on_c, 1, 54, 127
1, 7408, Note_off_c, 1, 54, 0
1, 7430, Note_on_c, 1, 55, 127
1, 7438, Note_on_c, 1, 76, 127
1, 7474, Note_off_c, 1, 55, 0
1, 7520, Note_off_c, 1, 76, 0
1, 7610, Note_on_c, 1, 79, 127
1, 7610, Note_on_c, 1, 71, 127
1, 7610, Note_on_c, 1, 52, 127
1, 7616, Note_on_c, 1, 74, 127
1, 7649, Note_off_c, 1, 71, 0
1, 7652, Note_off_c, 1, 79, 0
1, 7653, Note_off_c, 1, 74, 0
1, 7659, Note_off_c, 1, 52, 0
1, 7675, Note_on_c, 1, 79, 127
1, 7680, Note_on_c, 1, 69, 127
1, 7682, Note_on_c, 1, 61, 127
1, 7687, Note_on_c, 1, 76, 127
1, 7960, Note_off_c, 1, 79, 0
1, 7970, Note_on_c, 1, 78, 127
1, 8021, Note_off_c, 1, 78, 0
1, 8270, Note_off_c, 1, 76, 0
1, 8275, Note_off_c, 1, 69, 0
1, 8296, Note_off_c, 1, 61, 0
1, 8320, Note_on_c, 1, 62, 127
1, 8322, Note_on_c, 1, 74, 127
1, 8322, Note_on_c, 1, 59, 127
1, 8329, Note_on_c, 1, 83, 127
1, 8361, Note_off_c, 1, 62, 0
1, 8362, Note_off_c, 1, 74, 0
1, 8373, Note_off_c, 1, 59, 0
1, 8384, Note_off_c, 1, 83, 0
1, 8386, Note_on_c, 1, 69, 127
1, 8387, Note_on_c, 1, 76, 127
1, 8387, Note_on_c, 1, 61, 127
1, 8393, Note_on_c, 1, 81, 127
1, 8443, Note_off_c, 1, 81, 0
1, 8448, Note_on_c, 1, 79, 127
1, 8475, Note_off_c, 1, 61, 0
1, 8479, Note_off_c, 1, 76, 0
1, 8493, Note_off_c, 1, 69, 0
1, 8506, Note_off_c, 1, 79, 0
1, 8510, Note_on_c, 1, 78, 127
1, 8554, Note_off_c, 1, 78, 0
1, 8564, Note_on_c, 1, 79, 127
1, 8565, Note_on_c, 1, 69, 127
1, 8567, Note_on_c, 1, 73, 127
1, 8567, Note_on_c, 1, 57, 127
1, 8600, Note_off_c, 1, 69, 0
1, 8603, Note_off_c, 1, 73, 0
1, 8605, Note_off_c, 1, 79, 0
1, 8605, Note_off_c, 1, 57, 0
1, 8625, Note_on_c, 1, 79, 127
1, 8626, Note_on_c, 1, 69, 127
1, 8635, Note_on_c, 1, 74, 127
1, 8639, Note_on_c, 1, 62, 127
1, 8667, Note_on_c, 1, 78, 127
1, 8675, Note_off_c, 1, 79, 0
1, 8695, Note_off_c, 1, 78, 0
1, 8729, Note_off_c, 1, 69, 0
1, 8798, Note_on_c, 1, 67, 127
1, 8825, Note_on_c, 1, 76, 127
1, 8839, Note_off_c, 1, 67, 0
1, 8852, Note_off_c, 1, 76, 0
1, 8864, Note_on_c, 1, 66, 127
1, 8880, Note_on_c, 1, 81, 127
1, 8955, Note_off_c, 1, 66, 0
1, 8985, Note_off_c, 1, 74, 0
1, 9012, Note_off_c, 1, 81, 0
1, 9048, Note_on_c, 1, 72, 127
1, 9090, Note_off_c, 1, 72, 0
1, 9112, Note_on_c, 1, 71, 127
1, 9230, Note_off_c, 1, 62, 0
1, 9269, Note_off_c, 1, 71, 0
1, 9274, Note_on_c, 1, 69, 127
1, 9282, Note_on_c, 1, 64, 127
1, 9283, Note_on_c, 1, 72, 127
1, 9283, Note_on_c, 1, 67, 127
1, 9299, Note_off_c, 1, 69, 0
1, 9305, Note_on_c, 1, 71, 127
1, 9315, Note_off_c, 1, 72, 0
1, 9336, Note_off_c, 1, 67, 0
1, 9338, Note_off_c, 1, 64, 0
1, 9344, Note_off_c, 1, 71, 0
1, 9348, Note_on_c, 1, 66, 127
1, 9348, Note_on_c, 1, 62, 127
1, 9360, Note_on_c, 1, 74, 127
1, 9405, Note_off_c, 1, 74, 0
1, 9432, Note_off_c, 1, 66, 0
1, 9448, Note_off_c, 1, 62, 0
1, 9524, Note_on_c, 1, 60, 127
1, 9575, Note_off_c, 1, 60, 0
1, 9593, Note_on_c, 1, 59, 127
1, 9883, Note_on_c, 1, 76, 127
1, 9954, Note_off_c, 1, 76, 0
1, 10031, Note_on_c, 1, 65, 127
1, 10071, Note_off_c, 1, 65, 0
1, 10112, Note_off_c, 1, 59, 0
1, 10130, Note_on_c, 1, 57, 127
1, 10166, Note_off_c, 1, 57, 0
1, 10187, Note_on_c, 1, 55, 127
1, 10234, Note_off_c, 1, 55, 0
1, 10489, Note_on_c, 1, 65, 127
1, 10489, Note_on_c, 1, 59, 127
1, 10493, Note_on_c, 1, 62, 127
1, 10529, Note_off_c, 1, 65, 0
1, 10534, Note_off_c, 1, 62, 0
1, 10540, Note_off_c, 1, 59, 0
1, 10552, Note_on_c, 1, 65, 127
1, 10558, Note_on_c, 1, 48, 127
1, 10560, Note_on_c, 1, 62, 127
1, 10565, Note_on_c, 1, 55, 127
1, 10640, Note_off_c, 1, 62, 0
1, 10721, Note_off_c, 1, 65, 0
1, 10727, Note_on_c, 1, 64, 127
1, 10774, Note_off_c, 1, 64, 0
1, 10799, Note_on_c, 1, 60, 127
1, 10879, Note_off_c, 1, 60, 0
1, 10974, Note_on_c, 1, 66, 127
1, 11017, Note_off_c, 1, 66, 0
1, 11041, Note_on_c, 1, 67, 127
1, 11074, Note_off_c, 1, 48, 0
1, 11093, Note_on_c, 1, 47, 127
1, 11147, Note_off_c, 1, 47, 0
1, 11164, Note_off_c, 1, 55, 0
1, 11214, Note_on_c, 1, 50, 127
1, 11253, Note_off_c, 1, 50, 0
1, 11277, Note_on_c, 1, 52, 127
1, 11323, Note_off_c, 1, 52, 0
1, 11424, Note_off_c, 1, 67, 0
1, 11460, Note_on_c, 1, 59, 127
1, 11497, Note_off_c, 1, 59, 0
1, 11526, Note_on_c, 1, 45, 127
1, 11757, Note_on_c, 1, 72, 127
1, 11758, Note_on_c, 1, 57, 127
1, 11899, Note_off_c, 1, 72, 0
1, 11912, Note_off_c, 1, 57, 0
1, 11934, Note_on_c, 1, 71, 127
1, 11957, Note_on_c, 1, 69, 127
1, 11972, Note_off_c, 1, 71, 0
1, 11992, Note_on_c, 1, 78, 127
1, 12018, Note_off_c, 1, 45, 0
1, 12054, Note_on_c, 1, 43, 127
1, 12102, Note_off_c, 1, 43, 0
1, 12142, Note_off_c, 1, 78, 0
1, 12167, Note_on_c, 1, 76, 127
1, 12190, Note_on_c, 1, 74, 127
1, 12205, Note_off_c, 1, 76, 0
1, 12223, Note_off_c, 1, 74, 0
1, 12228, Note_on_c, 1, 81, 127
1, 12354, Note_off_c, 1, 69, 0
1, 12368, Note_off_c, 1, 81, 0
1, 12399, Note_on_c, 1, 72, 127
1, 12401, Note_on_c, 1, 66, 127
1, 12401, Note_on_c, 1, 57, 127
1, 12411, Note_on_c, 1, 50, 127
1, 12438, Note_off_c, 1, 57, 0
1, 12440, Note_off_c, 1, 66, 0
1, 12447, Note_off_c, 1, 72, 0
1, 12452, Note_off_c, 1, 50, 0
1, 12465, Note_on_c, 1, 71, 127
1, 12466, Note_on_c, 1, 67, 127
1, 12478, Note_on_c, 1, 64, 127
1, 12480, Note_on_c, 1, 52, 127
1, 12576, Note_off_c, 1, 67, 0
1, 12624, Note_off_c, 1, 52, 0
1, 12643, Note_on_c, 1, 66, 127
1, 12685, Note_off_c, 1, 66, 0
1, 12748, Note_off_c, 1, 71, 0
1, 12756, Note_on_c, 1, 69, 127
1, 12822, Note_off_c, 1, 69, 0
1, 12848, Note_off_c, 1, 64, 0
1, 12884, Note_on_c, 1, 59, 127
1, 12922, Note_off_c, 1, 59, 0
1, 12945, Note_on_c, 1, 67, 127
1, 12951, Note_on_c, 1, 71, 127
1, 12954, Note_on_c, 1, 64, 127
1, 12954, Note_on_c, 1, 62, 127
1, 13004, Note_off_c, 1, 67, 0
1, 13044, Note_off_c, 1, 64, 0
1, 13046, Note_off_c, 1, 71, 0
1, 13078, Note_off_c, 1, 62, 0
1, 13125, Note_on_c, 1, 66, 127
1, 13127, Note_on_c, 1, 72, 127
1, 13168, Note_off_c, 1, 72, 0
1, 13188, Note_off_c, 1, 66, 0
1, 13190, Note_on_c, 1, 67, 127
1, 13193, Note_on_c, 1, 71, 127
1, 13195, Note_on_c, 1, 64, 127
1, 13195, Note_on_c, 1, 60, 127
1, 13251, Note_off_c, 1, 67, 0
1, 13253, Note_on_c, 1, 69, 127
1, 13278, Note_off_c, 1, 64, 0
1, 13282, Note_off_c, 1, 71, 0
1, 13313, Note_off_c, 1, 69, 0
1, 13324, Note_off_c, 1, 60, 0
1, 13368, Note_on_c, 1, 69, 127
1, 13369, Note_on_c, 1, 60, 127
1, 13372, Note_on_c, 1, 72, 127
1, 13407, Note_off_c, 1, 69, 0
1, 13408, Note_off_c, 1, 60, 0
1, 13419, Note_off_c, 1, 72, 0
1, 13431, Note_on_c, 1, 74, 127
1, 13432, Note_on_c, 1, 59, 127
1, 13433, Note_on_c, 1, 67, 127
1, 13569, Note_off_c, 1, 59, 0
1, 13673, Note_on_c, 1, 47, 127
1, 13676, Note_on_c, 1, 69, 127
1, 13712, Note_off_c, 1, 74, 0
1, 13722, Note_on_c, 1, 72, 127
1, 13756, Note_off_c, 1, 69, 0
1, 13779, Note_off_c, 1, 72, 0
1, 13801, Note_off_c, 1, 47, 0
1, 13811, Note_off_c, 1, 67, 0
1, 13838, Note_on_c, 1, 76, 127
1, 13841, Note_on_c, 1, 71, 127
1, 13848, Note_on_c, 1, 62, 127
1, 13876, Note_off_c, 1, 71, 0
1, 13882, Note_off_c, 1, 62, 0
1, 13904, Note_off_c, 1, 76, 0
1, 13905, Note_on_c, 1, 45, 127
1, 13970, Note_on_c, 1, 66, 127
1, 14034, Note_off_c, 1, 66, 0
1, 14044, Note_off_c, 1, 45, 0
1, 14148, Note_on_c, 1, 43, 127
1, 14297, Note_off_c, 1, 43, 0
1, 14322, Note_on_c, 1, 64, 127
1, 14367, Note_off_c, 1, 64, 0
1, 14389, Note_on_c, 1, 72, 127
1, 14394, Note_on_c, 1, 42, 127
1, 14395, Note_on_c, 1, 69, 127
1, 14396, Note_on_c, 1, 57, 127
1, 14482, Note_off_c, 1, 69, 0
1, 14496, Note_off_c, 1, 57, 0
1, 14532, Note_off_c, 1, 72, 0
1, 14556, Note_on_c, 1, 62, 127
1, 14594, Note_off_c, 1, 42, 0
1, 14595, Note_off_c, 1, 62, 0
1, 14625, Note_on_c, 1, 67, 127
1, 14630, Note_on_c, 1, 62, 127
1, 14631, Note_on_c, 1, 71, 127
1, 14633, Note_on_c, 1, 43, 127
1, 14729, Note_off_c, 1, 67, 0
1, 14729, Note_off_c, 1, 62, 0
1, 14760, Note_off_c, 1, 71, 0
1, 14781, Note_off_c, 1, 43, 0
1, 14797, Note_on_c, 1, 64, 127
1, 14805, Note_on_c, 1, 72, 127
1, 14808, Note_on_c, 1, 69, 127
1, 14810, Note_on_c, 1, 48, 127
1, 14836, Note_off_c, 1, 64, 0
1, 14842, Note_off_c, 1, 69, 0
1, 14849, Note_off_c, 1, 72, 0
1, 14854, Note_off_c, 1, 48, 0
1, 14869, Note_on_c, 1, 64, 127
1, 14869, Note_on_c, 1, 50, 127
1, 14871, Note_on_c, 1, 71, 127
1, 14873, Note_on_c, 1, 67, 127
1, 14931, Note_on_c, 1, 69, 127
1, 14936, Note_on_c, 1, 62, 127
1, 14941, Note_off_c, 1, 64, 0
1, 14948, Note_on_c, 1, 66, 127
1, 14954, Note_off_c, 1, 71, 0
1, 14954, Note_off_c, 1, 67, 0
1, 14962, Note_off_c, 1, 62, 0
1, 14980, Note_off_c, 1, 69, 0
1, 14981, Note_off_c, 1, 66, 0
1, 15044, Note_off_c, 1, 50, 0
1, 15110, Note_on_c, 1, 60, 127
1, 15115, Note_on_c, 1, 38, 127
1, 15284, Note_off_c, 1, 38, 0
1, 15294, Note_off_c, 1, 60, 0
1, 15353, Note_on_c, 1, 59, 127
1, 15358, Note_on_c, 1, 67, 127
1, 15360, Note_on_c, 1, 43, 127
1, 15363, Note_on_c, 1, 62, 127
1, 15607, Note_off_c, 1, 43, 0
1, 15651, Note_on_c, 1, 42, 127
1, 15691, Note_off_c, 1, 42, 0
1, 15769, Note_on_c, 1, 45, 127
1, 15808, Note_off_c, 1, 45, 0
1, 15831, Note_on_c, 1, 47, 127
1, 15880, Note_off_c, 1, 47, 0
1, 16259, Note_off_c, 1, 62, 0
1, 16268, Note_off_c, 1, 59, 0
1, 16295, Note_off_c, 1, 67, 0
1, 16310, Note_on_c, 1, 76, 127
1, 16311, Note_on_c, 1, 48, 127
1, 16317, Note_on_c, 1, 72, 127
1, 16320, Note_on_c, 1, 67, 127
1, 16569, Note_off_c, 1, 48, 0
1, 16595, Note_off_c, 1, 72, 0
1, 16608, Note_on_c, 1, 71, 127
1, 16611, Note_on_c, 1, 55, 127
1, 16644, Note_off_c, 1, 71, 0
1, 16649, Note_off_c, 1, 55, 0
1, 16667, Note_on_c, 1, 57, 127
1, 16705, Note_off_c, 1, 57, 0
1, 16722, Note_on_c, 1, 59, 127
1, 16726, Note_on_c, 1, 74, 127
1, 16763, Note_off_c, 1, 59, 0
1, 16763, Note_off_c, 1, 74, 0
1, 16790, Note_on_c, 1, 60, 127
1, 16867, Note_off_c, 1, 76, 0
1, 16904, Note_off_c, 1, 67, 0
1, 16965, Note_on_c, 1, 77, 127
1, 17016, Note_off_c, 1, 77, 0
1, 17025, Note_on_c, 1, 79, 127
1, 17076, Note_off_c, 1, 79, 0
1, 17202, Note_on_c, 1, 81, 127
1, 17202, Note_on_c, 1, 64, 127
1, 17235, Note_off_c, 1, 64, 0
1, 17249, Note_off_c, 1, 81, 0
1, 17270, Note_on_c, 1, 65, 127
1, 17271, Note_on_c, 1, 69, 127
1, 17353, Note_off_c, 1, 60, 0
1, 17616, Note_off_c, 1, 65, 0
1, 17625, Note_off_c, 1, 69, 0
1, 17626, Note_on_c, 1, 76, 127
1, 17676, Note_on_c, 1, 69, 127
1, 17677, Note_on_c, 1, 57, 127
1, 17682, Note_off_c, 1, 76, 0
1, 17685, Note_on_c, 1, 77, 127
1, 17719, Note_off_c, 1, 57, 0
1, 17726, Note_off_c, 1, 69, 0
1, 17732, Note_off_c, 1, 77, 0
1, 17744, Note_on_c, 1, 59, 127
1, 17746, Note_on_c, 1, 74, 127
1, 17747, Note_on_c, 1, 79, 127
1, 17749, Note_on_c, 1, 67, 127
1, 17805, Note_off_c, 1, 79, 0
1, 17811, Note_on_c, 1, 77, 127
1, 17823, Note_off_c, 1, 59, 0
1, 17829, Note_off_c, 1, 74, 0
1, 17830, Note_off_c, 1, 67, 0
1, 17855, Note_off_c, 1, 77, 0
1, 17869, Note_on_c, 1, 76, 127
1, 17916, Note_off_c, 1, 76, 0
1, 17919, Note_on_c, 1, 57, 127
1, 17924, Note_on_c, 1, 69, 127
1, 17926, Note_on_c, 1, 77, 127
1, 17926, Note_on_c, 1, 72, 127
1, 17959, Note_off_c, 1, 57, 0
1, 17960, Note_off_c, 1, 72, 0
1, 17969, Note_off_c, 1, 69, 0
1, 17970, Note_off_c, 1, 77, 0
1, 17983, Note_on_c, 1, 59, 127
1, 17988, Note_on_c, 1, 79, 127
1, 17988, Note_on_c, 1, 67, 127
1, 17992, Note_on_c, 1, 74, 127
1, 18037, Note_off_c, 1, 79, 0
1, 18048, Note_on_c, 1, 76, 127
1, 18053, Note_off_c, 1, 74, 0
1, 18059, Note_off_c, 1, 59, 0
1, 18064, Note_off_c, 1, 67, 0
1, 18092, Note_off_c, 1, 76, 0
1, 18107, Note_on_c, 1, 77, 127
1, 18153, Note_off_c, 1, 77, 0
1, 18154, Note_on_c, 1, 55, 127
1, 18156, Note_on_c, 1, 65, 127
1, 18164, Note_on_c, 1, 71, 127
1, 18167, Note_on_c, 1, 79, 127
1, 18189, Note_off_c, 1, 65, 0
1, 18197, Note_off_c, 1, 55, 0
1, 18197, Note_off_c, 1, 71, 0
1, 18219, Note_off_c, 1, 79, 0
1, 18229, Note_on_c, 1, 64, 127
1, 18231, Note_on_c, 1, 57, 127
1, 18233, Note_on_c, 1, 72, 127
1, 18383, Note_off_c, 1, 72, 0
1, 18410, Note_on_c, 1, 69, 127
1, 18434, Note_on_c, 1, 71, 127
1, 18452, Note_off_c, 1, 69, 0
1, 18474, Note_off_c, 1, 71, 0
1, 18494, Note_off_c, 1, 57, 0
1, 18588, Note_on_c, 1, 59, 127
1, 18594, Note_off_c, 1, 64, 0
1, 18636, Note_off_c, 1, 59, 0
1, 18645, Note_on_c, 1, 60, 127
1, 18647, Note_on_c, 1, 74, 127
1, 18670, Note_on_c, 1, 76, 127
1, 18681, Note_off_c, 1, 60, 0
1, 18685, Note_off_c, 1, 74, 0
1, 18705, Note_off_c, 1, 76, 0
1, 18706, Note_on_c, 1, 77, 127
1, 18708, Note_on_c, 1, 62, 127
1, 18747, Note_off_c, 1, 77, 0
1, 19074, Note_off_c, 1, 62, 0
1, 19123, Note_on_c, 1, 77, 127
1, 19125, Note_on_c, 1, 62, 127
1, 19128, Note_on_c, 1, 72, 127
1, 19163, Note_off_c, 1, 72, 0
1, 19166, Note_off_c, 1, 77, 0
1, 19169, Note_off_c, 1, 62, 0
1, 19187, Note_on_c, 1, 71, 127
1, 19189, Note_on_c, 1, 77, 127
1, 19192, Note_on_c, 1, 55, 127
1, 19193, Note_on_c, 1, 62, 127
1, 19246, Note_off_c, 1, 77, 0
1, 19250, Note_on_c, 1, 79, 127
1, 19284, Note_off_c, 1, 55, 0
1, 19285, Note_off_c, 1, 71, 0
1, 19292, Note_off_c, 1, 79, 0
1, 19348, Note_off_c, 1, 62, 0
1, 19352, Note_on_c, 1, 57, 127
1, 19361, Note_on_c, 1, 72, 127
1, 19364, Note_on_c, 1, 76, 127
1, 19398, Note_off_c, 1, 57, 0
1, 19399, Note_off_c, 1, 72, 0
1, 19407, Note_off_c, 1, 76, 0
1, 19418, Note_on_c, 1, 59, 127
1, 19423, Note_on_c, 1, 77, 127
1, 19423, Note_on_c, 1, 67, 127
1, 19426, Note_on_c, 1, 74, 127
1, 19480, Note_off_c, 1, 77, 0
1, 19487, Note_on_c, 1, 76, 127
1, 19508, Note_off_c, 1, 59, 0
1, 19508, Note_off_c, 1, 74, 0
1, 19531, Note_off_c, 1, 76, 0
1, 19544, Note_off_c, 1, 67, 0
1, 19547, Note_on_c, 1, 74, 127
1, 19593, Note_on_c, 1, 55, 127
1, 19596, Note_off_c, 1, 74, 0
1, 19600, Note_on_c, 1, 71, 127
1, 19608, Note_on_c, 1, 76, 127
1, 19632, Note_off_c, 1, 71, 0
1, 19643, Note_off_c, 1, 55, 0
1, 19652, Note_off_c, 1, 76, 0
1, 19668, Note_on_c, 1, 77, 127
1, 19668, Note_on_c, 1, 74, 127
1, 19668, Note_on_c, 1, 60, 127
1, 19669, Note_on_c, 1, 67, 127
1, 19722, Note_on_c, 1, 76, 127
1, 19732, Note_on_c, 1, 72, 127
1, 19738, Note_off_c, 1, 74, 0
1, 19741, Note_off_c, 1, 77, 0
1, 19760, Note_off_c, 1, 72, 0
1, 19762, Note_off_c, 1, 76, 0
1, 19839, Note_off_c, 1, 60, 0
1, 19911, Note_on_c, 1, 48, 127
1, 20012, Note_off_c, 1, 67, 0
1, 20068, Note_off_c, 1, 48, 0
1, 20076, Note_on_c, 1, 74, 127
1, 20082, Note_on_c, 1, 67, 127
1, 20110, Note_off_c, 1, 67, 0
1, 20116, Note_off_c, 1, 74, 0
1, 20141, Note_on_c, 1, 55, 127
1, 20143, Note_on_c, 1, 74, 127
1, 20145, Note_on_c, 1, 71, 127
1, 20148, Note_on_c, 1, 67, 127
1, 20442, Note_off_c, 1, 74, 0
1, 20478, Note_on_c, 1, 69, 127
1, 20508, Note_off_c, 1, 69, 0
1, 20509, Note_on_c, 1, 72, 127
1, 20547, Note_off_c, 1, 72, 0
1, 20547, Note_on_c, 1, 76, 127
1, 20565, Note_on_c, 1, 78, 127
1, 20586, Note_on_c, 1, 79, 127
1, 20588, Note_off_c, 1, 76, 0
1, 20604, Note_on_c, 1, 81, 127
1, 20607, Note_off_c, 1, 78, 0
1, 20619, Note_off_c, 1, 79, 0
1, 20632, Note_on_c, 1, 83, 127
1, 20645, Note_off_c, 1, 81, 0
1, 20668, Note_off_c, 1, 55, 0
1, 20680, Note_on_c, 1, 54, 127
1, 20732, Note_off_c, 1, 54, 0
1, 20750, Note_off_c, 1, 67, 0
1, 20760, Note_off_c, 1, 71, 0
1, 20799, Note_on_c, 1, 57, 127
1, 20809, Note_on_c, 1, 62, 127
1, 20838, Note_off_c, 1, 62, 0
1, 20845, Note_off_c, 1, 57, 0
1, 20860, Note_on_c, 1, 59, 127
1, 20907, Note_off_c, 1, 59, 0
1, 21007, Note_off_c, 1, 83, 0
1, 21051, Note_on_c, 1, 59, 127
1, 21055, Note_on_c, 1, 66, 127
1, 21055, Note_on_c, 1, 83, 127
1, 21056, Note_on_c, 1, 67, 127
1, 21088, Note_off_c, 1, 67, 0
1, 21094, Note_off_c, 1, 66, 0
1, 21100, Note_off_c, 1, 59, 0
1, 21100, Note_off_c, 1, 83, 0
1, 21115, Note_on_c, 1, 83, 127
1, 21120, Note_on_c, 1, 64, 127
1, 21120, Note_on_c, 1, 48, 127
1, 21123, Note_on_c, 1, 76, 127
1, 21203, Note_off_c, 1, 64, 0
1, 21219, Note_off_c, 1, 83, 0
1, 21286, Note_on_c, 1, 67, 127
1, 21292, Note_on_c, 1, 79, 127
1, 21318, Note_off_c, 1, 79, 0
1, 21326, Note_off_c, 1, 67, 0
1, 21354, Note_on_c, 1, 69, 127
1, 21370, Note_on_c, 1, 78, 127
1, 21399, Note_off_c, 1, 78, 0
1, 21417, Note_off_c, 1, 69, 0
1, 21524, Note_on_c, 1, 71, 127
1, 21559, Note_off_c, 1, 71, 0
1, 21590, Note_on_c, 1, 72, 127
1, 21593, Note_on_c, 1, 81, 127
1, 21613, Note_off_c, 1, 48, 0
1, 21627, Note_off_c, 1, 81, 0
1, 21642, Note_on_c, 1, 47, 127
1, 21664, Note_off_c, 1, 72, 0
1, 21686, Note_off_c, 1, 47, 0
1, 21704, Note_on_c, 1, 45, 127
1, 21725, Note_off_c, 1, 76, 0
1, 21751, Note_off_c, 1, 45, 0
1, 21767, Note_on_c, 1, 74, 127
1, 21807, Note_off_c, 1, 74, 0
1, 22002, Note_on_c, 1, 48, 127
1, 22004, Note_on_c, 1, 57, 127
1, 22005, Note_on_c, 1, 78, 127
1, 22015, Note_on_c, 1, 81, 127
1, 22042, Note_off_c, 1, 78, 0
1, 22046, Note_off_c, 1, 57, 0
1, 22047, Note_off_c, 1, 48, 0
1, 22051, Note_off_c, 1, 81, 0
1, 22072, Note_on_c, 1, 40, 127
1, 22076, Note_on_c, 1, 81, 127
1, 22078, Note_on_c, 1, 71, 127
1, 22080, Note_on_c, 1, 64, 127
1, 22205, Note_off_c, 1, 81, 0
1, 22252, Note_on_c, 1, 83, 127
1, 22261, Note_off_c, 1, 40, 0
1, 22294, Note_off_c, 1, 83, 0
1, 22305, Note_on_c, 1, 52, 127
1, 22312, Note_on_c, 1, 79, 127
1, 22424, Note_off_c, 1, 79, 0
1, 22502, Note_on_c, 1, 78, 127
1, 22535, Note_off_c, 1, 78, 0
1, 22574, Note_off_c, 1, 52, 0
1, 22607, Note_on_c, 1, 50, 127
1, 22662, Note_off_c, 1, 50, 0
1, 22666, Note_off_c, 1, 71, 0
1, 22679, Note_off_c, 1, 64, 0
1, 22726, Note_on_c, 1, 54, 127
1, 22769, Note_off_c, 1, 54, 0
1, 22790, Note_on_c, 1, 55, 127
1, 22798, Note_on_c, 1, 76, 127
1, 22832, Note_off_c, 1, 55, 0
1, 22869, Note_off_c, 1, 76, 0
1, 22970, Note_on_c, 1, 79, 127
1, 22971, Note_on_c, 1, 52, 127
1, 22973, Note_on_c, 1, 74, 127
1, 22974, Note_on_c, 1, 71, 127
1, 23008, Note_off_c, 1, 74, 0
1, 23008, Note_off_c, 1, 71, 0
1, 23011, Note_off_c, 1, 79, 0
1, 23021, Note_off_c, 1, 52, 0
1, 23030, Note_on_c, 1, 79, 127
1, 23038, Note_on_c, 1, 76, 127
1, 23040, Note_on_c, 1, 69, 127
1, 23043, Note_on_c, 1, 61, 127
1, 23299, Note_off_c, 1, 79, 0
1, 23318, Note_on_c, 1, 78, 127
1, 23373, Note_off_c, 1, 78, 0
1, 23615, Note_off_c, 1, 61, 0
1, 23624, Note_off_c, 1, 69, 0
1, 23625, Note_off_c, 1, 76, 0
1, 23674, Note_on_c, 1, 62, 127
1, 23676, Note_on_c, 1, 59, 127
1, 23681, Note_on_c, 1, 83, 127
1, 23684, Note_on_c, 1, 74, 127
1, 23707, Note_off_c, 1, 62, 0
1, 23712, Note_off_c, 1, 59, 0
1, 23720, Note_off_c, 1, 74, 0
1, 23729, Note_off_c, 1, 83, 0
1, 23743, Note_on_c, 1, 81, 127
1, 23743, Note_on_c, 1, 61, 127
1, 23746, Note_on_c, 1, 69, 127
1, 23748, Note_on_c, 1, 76, 127
1, 23792, Note_off_c, 1, 81, 0
1, 23802, Note_on_c, 1, 79, 127
1, 23820, Note_off_c, 1, 76, 0
1, 23826, Note_off_c, 1, 69, 0
1, 23829, Note_off_c, 1, 61, 0
1, 23849, Note_off_c, 1, 79, 0
1, 23865, Note_on_c, 1, 78, 127
1, 23908, Note_off_c, 1, 78, 0
1, 23921, Note_on_c, 1, 73, 127
1, 23923, Note_on_c, 1, 57, 127
1, 23924, Note_on_c, 1, 79, 127
1, 23925, Note_on_c, 1, 69, 127
1, 23957, Note_off_c, 1, 73, 0
1, 23961, Note_off_c, 1, 57, 0
1, 23961, Note_off_c, 1, 79, 0
1, 23962, Note_off_c, 1, 69, 0
1, 23988, Note_on_c, 1, 79, 127
1, 23991, Note_on_c, 1, 74, 127
1, 23993, Note_on_c, 1, 69, 127
1, 23993, Note_on_c, 1, 62, 127
1, 24017, Note_on_c, 1, 78, 127
1, 24025, Note_off_c, 1, 79, 0
1, 24042, Note_off_c, 1, 78, 0
1, 24074, Note_off_c, 1, 69, 0
1, 24162, Note_on_c, 1, 67, 127
1, 24174, Note_on_c, 1, 76, 127
1, 24203, Note_off_c, 1, 67, 0
1, 24211, Note_off_c, 1, 76, 0
1, 24227, Note_on_c, 1, 66, 127
1, 24237, Note_on_c, 1, 81, 127
1, 24307, Note_off_c, 1, 66, 0
1, 24337, Note_off_c, 1, 74, 0
1, 24348, Note_off_c, 1, 81, 0
1, 24404, Note_on_c, 1, 72, 127
1, 24445, Note_off_c, 1, 72, 0
1, 24466, Note_on_c, 1, 71, 127
1, 24571, Note_off_c, 1, 62, 0
1, 24612, Note_off_c, 1, 71, 0
1, 24633, Note_on_c, 1, 72, 127
1, 24636, Note_on_c, 1, 69, 127
1, 24643, Note_on_c, 1, 67, 127
1, 24643, Note_on_c, 1, 64, 127
1, 24652, Note_on_c, 1, 71, 127
1, 24665, Note_off_c, 1, 69, 0
1, 24667, Note_off_c, 1, 72, 0
1, 24691, Note_off_c, 1, 67, 0
1, 24693, Note_off_c, 1, 71, 0
1, 24695, Note_off_c, 1, 64, 0
1, 24702, Note_on_c, 1, 66, 127
1, 24708, Note_on_c, 1, 62, 127
1, 24710, Note_on_c, 1, 74, 127
1, 24749, Note_off_c, 1, 74, 0
1, 24785, Note_off_c, 1, 66, 0
1, 24790, Note_off_c, 1, 62, 0
1, 24887, Note_on_c, 1, 60, 127
1, 24928, Note_off_c, 1, 60, 0
1, 24953, Note_on_c, 1, 59, 127
1, 25237, Note_on_c, 1, 76, 127
1, 25291, Note_off_c, 1, 76, 0
1, 25372, Note_on_c, 1, 65, 127
1, 25412, Note_off_c, 1, 65, 0
1, 25464, Note_off_c, 1, 59, 0
1, 25487, Note_on_c, 1, 57, 127
1, 25530, Note_off_c, 1, 57, 0
1, 25547, Note_on_c, 1, 55, 127
1, 25597, Note_off_c, 1, 55, 0
1, 25845, Note_on_c, 1, 65, 127
1, 25847, Note_on_c, 1, 59, 127
1, 25855, Note_on_c, 1, 62, 127
1, 25890, Note_off_c, 1, 65, 0
1, 25891, Note_off_c, 1, 62, 0
1, 25894, Note_off_c, 1, 59, 0
1, 25916, Note_on_c, 1, 48, 127
1, 25916, Note_on_c, 1, 67, 127
1, 25917, Note_on_c, 1, 62, 127
1, 25921, Note_on_c, 1, 55, 127
1, 25935, Note_on_c, 1, 65, 127
1, 25948, Note_off_c, 1, 67, 0
1, 25962, Note_off_c, 1, 65, 0
1, 26001, Note_off_c, 1, 62, 0
1, 26095, Note_on_c, 1, 64, 127
1, 26131, Note_off_c, 1, 64, 0
1, 26162, Note_on_c, 1, 60, 127
1, 26236, Note_off_c, 1, 60, 0
1, 26330, Note_on_c, 1, 66, 127
1, 26370, Note_off_c, 1, 66, 0
1, 26412, Note_off_c, 1, 48, 0
1, 26450, Note_on_c, 1, 47, 127
1, 26499, Note_off_c, 1, 47, 0
1, 26506, Note_off_c, 1, 55, 0
1, 26566, Note_on_c, 1, 50, 127
1, 26609, Note_off_c, 1, 50, 0
1, 26629, Note_on_c, 1, 52, 127
1, 26674, Note_off_c, 1, 52, 0
1, 26804, Note_on_c, 1, 62, 127
1, 26808, Note_on_c, 1, 52, 127
1, 26811, Note_on_c, 1, 67, 127
1, 26817, Note_on_c, 1, 59, 127
1, 26840, Note_off_c, 1, 62, 0
1, 26850, Note_off_c, 1, 67, 0
1, 26852, Note_off_c, 1, 59, 0
1, 26862, Note_off_c, 1, 52, 0
1, 26874, Note_on_c, 1, 64, 127
1, 26876, Note_on_c, 1, 69, 127
1, 26879, Note_on_c, 1, 45, 127
1, 26883, Note_on_c, 1, 60, 127
1, 26893, Note_on_c, 1, 67, 127
1, 26906, Note_off_c, 1, 69, 0
1, 26924, Note_off_c, 1, 67, 0
1, 27015, Note_off_c, 1, 64, 0
1, 27021, Note_off_c, 1, 60, 0
1, 27048, Note_on_c, 1, 66, 127
1, 27096, Note_off_c, 1, 66, 0
1, 27112, Note_on_c, 1, 74, 127
1, 27117, Note_on_c, 1, 57, 127
1, 27134, Note_on_c, 1, 72, 127
1, 27143, Note_off_c, 1, 74, 0
1, 27163, Note_off_c, 1, 72, 0
1, 27256, Note_off_c, 1, 57, 0
1, 27297, Note_on_c, 1, 71, 127
1, 27336, Note_off_c, 1, 71, 0
1, 27350, Note_on_c, 1, 79, 127
1, 27369, Note_on_c, 1, 78, 127
1, 27378, Note_off_c, 1, 45, 0
1, 27385, Note_off_c, 1, 79, 0
1, 27400, Note_off_c, 1, 78, 0
1, 27410, Note_on_c, 1, 43, 127
1, 27463, Note_off_c, 1, 43, 0
1, 27531, Note_on_c, 1, 47, 127
1, 27534, Note_on_c, 1, 76, 127
1, 27572, Note_off_c, 1, 47, 0
1, 27572, Note_off_c, 1, 76, 0
1, 27591, Note_on_c, 1, 81, 127
1, 27593, Note_on_c, 1, 48, 127
1, 27636, Note_off_c, 1, 48, 0
1, 27707, Note_off_c, 1, 81, 0
1, 27713, Note_on_c, 1, 48, 127
1, 27758, Note_off_c, 1, 48, 0
1, 27762, Note_on_c, 1, 57, 127
1, 27765, Note_on_c, 1, 72, 127
1, 27769, Note_on_c, 1, 66, 127
1, 27770, Note_on_c, 1, 50, 127
1, 27798, Note_off_c, 1, 72, 0
1, 27801, Note_off_c, 1, 57, 0
1, 27811, Note_off_c, 1, 50, 0
1, 27814, Note_off_c, 1, 66, 0
1, 27832, Note_on_c, 1, 72, 127
1, 27832, Note_on_c, 1, 67, 127
1, 27836, Note_on_c, 1, 64, 127
1, 27836, Note_on_c, 1, 52, 127
1, 27948, Note_on_c, 1, 71, 127
1, 27953, Note_off_c, 1, 67, 0
1, 27958, Note_off_c, 1, 72, 0
1, 27960, Note_off_c, 1, 52, 0
1, 27999, Note_on_c, 1, 66, 127
1, 28040, Note_off_c, 1, 66, 0
1, 28124, Note_off_c, 1, 71, 0
1, 28132, Note_on_c, 1, 69, 127
1, 28183, Note_off_c, 1, 69, 0
1, 28207, Note_off_c, 1, 64, 0
1, 28242, Note_on_c, 1, 59, 127
1, 28243, Note_on_c, 1, 69, 127
1, 28244, Note_on_c, 1, 66, 127
1, 28279, Note_off_c, 1, 59, 0
1, 28282, Note_off_c, 1, 69, 0
1, 28296, Note_off_c, 1, 66, 0
1, 28305, Note_on_c, 1, 67, 127
1, 28309, Note_on_c, 1, 64, 127
1, 28310, Note_on_c, 1, 71, 127
1, 28315, Note_on_c, 1, 62, 127
1, 28365, Note_off_c, 1, 67, 0
1, 28396, Note_off_c, 1, 64, 0
1, 28400, Note_off_c, 1, 71, 0
1, 28443, Note_off_c, 1, 62, 0
1, 28481, Note_on_c, 1, 72, 127
1, 28484, Note_on_c, 1, 66, 127
1, 28516, Note_off_c, 1, 72, 0
1, 28534, Note_off_c, 1, 66, 0
1, 28544, Note_on_c, 1, 60, 127
1, 28545, Note_on_c, 1, 71, 127
1, 28547, Note_on_c, 1, 67, 127
1, 28550, Note_on_c, 1, 64, 127
1, 28602, Note_off_c, 1, 67, 0
1, 28606, Note_on_c, 1, 69, 127
1, 28627, Note_off_c, 1, 64, 0
1, 28636, Note_off_c, 1, 71, 0
1, 28657, Note_off_c, 1, 69, 0
1, 28675, Note_off_c, 1, 60, 0
1, 28720, Note_on_c, 1, 60, 127
1, 28724, Note_on_c, 1, 72, 127
1, 28728, Note_on_c, 1, 69, 127
1, 28759, Note_off_c, 1, 60, 0
1, 28762, Note_off_c, 1, 69, 0
1, 28776, Note_off_c, 1, 72, 0
1, 28786, Note_on_c, 1, 74, 127
1, 28788, Note_on_c, 1, 67, 127
1, 28792, Note_on_c, 1, 59, 127
1, 28920, Note_off_c, 1, 59, 0
1, 29035, Note_on_c, 1, 47, 127
1, 29039, Note_on_c, 1, 69, 127
1, 29072, Note_off_c, 1, 74, 0
1, 29079, Note_on_c, 1, 72, 127
1, 29122, Note_off_c, 1, 69, 0
1, 29131, Note_off_c, 1, 72, 0
1, 29137, Note_off_c, 1, 67, 0
1, 29166, Note_off_c, 1, 47, 0
1, 29193, Note_on_c, 1, 76, 127
1, 29198, Note_on_c, 1, 71, 127
1, 29205, Note_on_c, 1, 62, 127
1, 29237, Note_off_c, 1, 71, 0
1, 29238, Note_off_c, 1, 62, 0
1, 29244, Note_off_c, 1, 76, 0
1, 29261, Note_on_c, 1, 72, 127
1, 29261, Note_on_c, 1, 67, 127
1, 29266, Note_on_c, 1, 45, 127
1, 29274, Note_on_c, 1, 69, 127
1, 29317, Note_on_c, 1, 66, 127
1, 29323, Note_off_c, 1, 67, 0
1, 29338, Note_off_c, 1, 66, 0
1, 29349, Note_off_c, 1, 72, 0
1, 29354, Note_off_c, 1, 69, 0
1, 29394, Note_off_c, 1, 45, 0
1, 29436, Note_on_c, 1, 74, 127
1, 29478, Note_off_c, 1, 74, 0
1, 29505, Note_on_c, 1, 43, 127
1, 29640, Note_off_c, 1, 43, 0
1, 29677, Note_on_c, 1, 64, 127
1, 29683, Note_on_c, 1, 71, 127
1, 29714, Note_off_c, 1, 64, 0
1, 29732, Note_off_c, 1, 71, 0
1, 29749, Note_on_c, 1, 57, 127
1, 29749, Note_on_c, 1, 72, 127
1, 29751, Note_on_c, 1, 69, 127
1, 29751, Note_on_c, 1, 42, 127
1, 29825, Note_off_c, 1, 57, 0
1, 29834, Note_off_c, 1, 69, 0
1, 29884, Note_off_c, 1, 72, 0
1, 29918, Note_on_c, 1, 71, 127
1, 29933, Note_on_c, 1, 62, 127
1, 29961, Note_off_c, 1, 42, 0
1, 29966, Note_off_c, 1, 71, 0
1, 29978, Note_off_c, 1, 62, 0
1, 29985, Note_on_c, 1, 67, 127
1, 29989, Note_on_c, 1, 43, 127
1, 30068, Note_off_c, 1, 67, 0
1, 30126, Note_off_c, 1, 43, 0
1, 30162, Note_on_c, 1, 69, 127
1, 30162, Note_on_c, 1, 72, 127
1, 30164, Note_on_c, 1, 48, 127
1, 30165, Note_on_c, 1, 64, 127
1, 30194, Note_off_c, 1, 69, 0
1, 30197, Note_off_c, 1, 64, 0
1, 30204, Note_off_c, 1, 72, 0
1, 30209, Note_off_c, 1, 48, 0
1, 30226, Note_on_c, 1, 71, 127
1, 30231, Note_on_c, 1, 50, 127
1, 30233, Note_on_c, 1, 64, 127
1, 30234, Note_on_c, 1, 67, 127
1, 30289, Note_on_c, 1, 69, 127
1, 30295, Note_on_c, 1, 66, 127
1, 30296, Note_on_c, 1, 62, 127
1, 30300, Note_off_c, 1, 64, 0
1, 30301, Note_off_c, 1, 67, 0
1, 30302, Note_off_c, 1, 71, 0
1, 30319, Note_off_c, 1, 62, 0
1, 30323, Note_off_c, 1, 66, 0
1, 30327, Note_off_c, 1, 69, 0
1, 30435, Note_off_c, 1, 50, 0
1, 30470, Note_on_c, 1, 60, 127
1, 30474, Note_on_c, 1, 38, 127
1, 30632, Note_off_c, 1, 38, 0
1, 30646, Note_off_c, 1, 60, 0
1, 30710, Note_on_c, 1, 59, 127
1, 30712, Note_on_c, 1, 67, 127
1, 30712, Note_on_c, 1, 43, 127
1, 30717, Note_on_c, 1, 62, 127
1, 30785, Note_off_c, 1, 67, 0
1, 30822, Note_off_c, 1, 43, 0
1, 30832, Note_on_c, 1, 79, 127
1, 30848, Note_off_c, 1, 59, 0
1, 30848, Note_off_c, 1, 62, 0
1, 30879, Note_off_c, 1, 79, 0
1, 30946, Note_on_c, 1, 79, 127
1, 30997, Note_off_c, 1, 79, 0
1, 31066, Note_on_c, 1, 79, 127
1, 31115, Note_off_c, 1, 79, 0
1, 31186, Note_on_c, 1, 76, 127
1, 31301, Note_on_c, 1, 77, 127
1, 31309, Note_off_c, 1, 76, 0
1, 31351, Note_on_c, 1, 79, 127
1, 31358, Note_off_c, 1, 77, 0
1, 31409, Note_off_c, 1, 79, 0
1, 31410, Note_on_c, 1, 81, 127
1, 31460, Note_off_c, 1, 81, 0
1, 31530, Note_on_c, 1, 77, 127
1, 31589, Note_off_c, 1, 77, 0
1, 31655, Note_on_c, 1, 74, 127
1, 31713, Note_off_c, 1, 74, 0
1, 31776, Note_on_c, 1, 79, 127
1, 31837, Note_off_c, 1, 79, 0
1, 31904, Note_on_c, 1, 67, 127
1, 31967, Note_off_c, 1, 67, 0
1, 32033, Note_on_c, 1, 77, 127
1, 32085, Note_off_c, 1, 77, 0
1, 32157, Note_on_c, 1, 76, 127
1, 32208, Note_on_c, 1, 74, 127
1, 32225, Note_off_c, 1, 76, 0
1, 32272, Note_off_c, 1, 74, 0
1, 32272, Note_on_c, 1, 72, 127
1, 32344, Note_off_c, 1, 72, 0
1, 32555, Note_on_c, 1, 78, 127
1, 32613, Note_off_c, 1, 78, 0
1, 32622, Note_on_c, 1, 79, 127
1, 32625, Note_on_c, 1, 71, 127
1, 32741, Note_on_c, 1, 72, 127
1, 32745, Note_off_c, 1, 71, 0
1, 32752, Note_off_c, 1, 79, 0
1, 32789, Note_off_c, 1, 72, 0
1, 32790, Note_on_c, 1, 74, 127
1, 32850, Note_off_c, 1, 74, 0
1, 32856, Note_on_c, 1, 76, 127
1, 32870, Note_on_c, 1, 79, 127
1, 32899, Note_off_c, 1, 76, 0
1, 32979, Note_on_c, 1, 72, 127
1, 32990, Note_off_c, 1, 79, 0
1, 33023, Note_off_c, 1, 72, 0
1, 33048, Note_on_c, 1, 79, 127
1, 33083, Note_off_c, 1, 79, 0
1, 33104, Note_on_c, 1, 69, 127
1, 33106, Note_on_c, 1, 79, 127
1, 33149, Note_off_c, 1, 69, 0
1, 33220, Note_off_c, 1, 79, 0
1, 33224, Note_on_c, 1, 74, 127
1, 33266, Note_on_c, 1, 78, 127
1, 33268, Note_off_c, 1, 74, 0
1, 33300, Note_on_c, 1, 76, 127
1, 33312, Note_off_c, 1, 78, 0
1, 33344, Note_on_c, 1, 62, 127
1, 33349, Note_off_c, 1, 76, 0
1, 33353, Note_on_c, 1, 79, 127
1, 33392, Note_off_c, 1, 62, 0
1, 33462, Note_on_c, 1, 72, 127
1, 33469, Note_off_c, 1, 79, 0
1, 33504, Note_off_c, 1, 72, 0
1, 33522, Note_on_c, 1, 79, 127
1, 33560, Note_off_c, 1, 79, 0
1, 33587, Note_on_c, 1, 79, 127
1, 33590, Note_on_c, 1, 71, 127
1, 33643, Note_on_c, 1, 69, 127
1, 33648, Note_off_c, 1, 71, 0
1, 33693, Note_off_c, 1, 79, 0
1, 33696, Note_off_c, 1, 69, 0
1, 33702, Note_on_c, 1, 67, 127
1, 33708, Note_on_c, 1, 77, 127
1, 33758, Note_on_c, 1, 69, 127
1, 33760, Note_on_c, 1, 76, 127
1, 33768, Note_off_c, 1, 67, 0
1, 33769, Note_off_c, 1, 77, 0
1, 33809, Note_off_c, 1, 69, 0
1, 33815, Note_off_c, 1, 76, 0
1, 33821, Note_on_c, 1, 74, 127
1, 33826, Note_on_c, 1, 67, 127
1, 33828, Note_on_c, 1, 71, 127
1, 33869, Note_off_c, 1, 67, 0
1, 33883, Note_off_c, 1, 74, 0
1, 33924, Note_on_c, 1, 72, 127
1, 33936, Note_off_c, 1, 71, 0
1, 33941, Note_on_c, 1, 69, 127
1, 33985, Note_off_c, 1, 72, 0
1, 33996, Note_off_c, 1, 69, 0
1, 34050, Note_on_c, 1, 67, 127
1, 34062, Note_on_c, 1, 72, 127
1, 34064, Note_on_c, 1, 64, 127
1, 34109, Note_off_c, 1, 67, 0
1, 34160, Note_off_c, 1, 72, 0
1, 34174, Note_off_c, 1, 64, 0
1, 34181, Note_on_c, 1, 65, 127
1, 34182, Note_on_c, 1, 79, 127
1, 34226, Note_off_c, 1, 79, 0
1, 34232, Note_off_c, 1, 65, 0
1, 34233, Note_on_c, 1, 67, 127
1, 34280, Note_off_c, 1, 67, 0
1, 34299, Note_on_c, 1, 69, 127
1, 34304, Note_on_c, 1, 72, 127
1, 34308, Note_on_c, 1, 76, 127
1, 34336, Note_off_c, 1, 69, 0
1, 34353, Note_off_c, 1, 76, 0
1, 34411, Note_off_c, 1, 72, 0
1, 34415, Note_on_c, 1, 65, 127
1, 34427, Note_on_c, 1, 81, 127
1, 34463, Note_off_c, 1, 65, 0
1, 34475, Note_on_c, 1, 72, 127
1, 34484, Note_off_c, 1, 81, 0
1, 34507, Note_off_c, 1, 72, 0
1, 34544, Note_on_c, 1, 62, 127
1, 34547, Note_on_c, 1, 72, 127
1, 34555, Note_on_c, 1, 77, 127
1, 34591, Note_off_c, 1, 62, 0
1, 34608, Note_on_c, 1, 71, 127
1, 34609, Note_off_c, 1, 72, 0
1, 34609, Note_on_c, 1, 79, 127
1, 34621, Note_off_c, 1, 77, 0
1, 34660, Note_off_c, 1, 71, 0
1, 34661, Note_on_c, 1, 69, 127
1, 34663, Note_on_c, 1, 67, 127
1, 34669, Note_off_c, 1, 79, 0
1, 34703, Note_off_c, 1, 67, 0
1, 34727, Note_off_c, 1, 69, 0
1, 34730, Note_on_c, 1, 76, 127
1, 34787, Note_off_c, 1, 76, 0
1, 34787, Note_on_c, 1, 55, 127
1, 34792, Note_on_c, 1, 74, 127
1, 34839, Note_off_c, 1, 55, 0
1, 34857, Note_off_c, 1, 74, 0
1, 34904, Note_on_c, 1, 65, 127
1, 34950, Note_off_c, 1, 65, 0
1, 35025, Note_on_c, 1, 72, 127
1, 35030, Note_on_c, 1, 79, 127
1, 35034, Note_on_c, 1, 64, 127
1, 35084, Note_on_c, 1, 77, 127
1, 35094, Note_on_c, 1, 62, 127
1, 35096, Note_off_c, 1, 64, 0
1, 35108, Note_off_c, 1, 79, 0
1, 35123, Note_off_c, 1, 72, 0
1, 35149, Note_on_c, 1, 60, 127
1, 35150, Note_on_c, 1, 76, 127
1, 35151, Note_on_c, 1, 67, 127
1, 35153, Note_off_c, 1, 62, 0
1, 35170, Note_off_c, 1, 77, 0
1, 35201, Note_off_c, 1, 67, 0
1, 35205, Note_on_c, 1, 65, 127
1, 35205, Note_on_c, 1, 74, 127
1, 35212, Note_off_c, 1, 60, 0
1, 35214, Note_off_c, 1, 76, 0
1, 35249, Note_off_c, 1, 65, 0
1, 35266, Note_off_c, 1, 74, 0
1, 35268, Note_on_c, 1, 60, 127
1, 35269, Note_on_c, 1, 64, 127
1, 35272, Note_on_c, 1, 72, 127
1, 35272, Note_on_c, 1, 67, 127
1, 35312, Note_off_c, 1, 60, 0
1, 35312, Note_off_c, 1, 67, 0
1, 35317, Note_off_c, 1, 64, 0
1, 35322, Note_on_c, 1, 62, 127
1, 35325, Note_on_c, 1, 71, 127
1, 35328, Note_off_c, 1, 72, 0
1, 35381, Note_off_c, 1, 71, 0
1, 35385, Note_off_c, 1, 62, 0
1, 35392, Note_on_c, 1, 76, 127
1, 35429, Note_off_c, 1, 76, 0
1, 35438, Note_on_c, 1, 69, 127
1, 35443, Note_on_c, 1, 66, 127
1, 35483, Note_off_c, 1, 66, 0
1, 35496, Note_off_c, 1, 69, 0
1, 35502, Note_on_c, 1, 74, 127
1, 35508, Note_on_c, 1, 59, 127
1, 35510, Note_on_c, 1, 67, 127
1, 35567, Note_on_c, 1, 72, 127
1, 35611, Note_off_c, 1, 67, 0
1, 35617, Note_off_c, 1, 74, 0
1, 35622, Note_on_c, 1, 60, 127
1, 35626, Note_on_c, 1, 76, 127
1, 35629, Note_off_c, 1, 59, 0
1, 35629, Note_off_c, 1, 72, 0
1, 35629, Note_on_c, 1, 71, 127
1, 35677, Note_on_c, 1, 62, 127
1, 35678, Note_off_c, 1, 71, 0
1, 35679, Note_on_c, 1, 69, 127
1, 35680, Note_off_c, 1, 60, 0
1, 35681, Note_on_c, 1, 78, 127
1, 35684, Note_off_c, 1, 76, 0
1, 35721, Note_off_c, 1, 62, 0
1, 35724, Note_off_c, 1, 69, 0
1, 35730, Note_off_c, 1, 78, 0
1, 35740, Note_on_c, 1, 67, 127
1, 35741, Note_on_c, 1, 64, 127
1, 35749, Note_on_c, 1, 79, 127
1, 35794, Note_off_c, 1, 64, 0
1, 35850, Note_off_c, 1, 79, 0
1, 35855, Note_off_c, 1, 67, 0
1, 35862, Note_on_c, 1, 76, 127
1, 35864, Note_on_c, 1, 60, 127
1, 35869, Note_on_c, 1, 81, 127
1, 35913, Note_off_c, 1, 60, 0
1, 35919, Note_off_c, 1, 81, 0
1, 35919, Note_on_c, 1, 74, 127
1, 35921, Note_on_c, 1, 83, 127
1, 35923, Note_on_c, 1, 67, 127
1, 35924, Note_off_c, 1, 76, 0
1, 35953, Note_off_c, 1, 67, 0
1, 35967, Note_off_c, 1, 74, 0
1, 35967, Note_off_c, 1, 83, 0
1, 35983, Note_on_c, 1, 84, 127
1, 35987, Note_on_c, 1, 57, 127
1, 35988, Note_on_c, 1, 76, 127
1, 35991, Note_on_c, 1, 67, 127
1, 36026, Note_off_c, 1, 76, 0
1, 36046, Note_off_c, 1, 57, 0
1, 36095, Note_off_c, 1, 67, 0
1, 36107, Note_off_c, 1, 84, 0
1, 36108, Note_on_c, 1, 69, 127
1, 36109, Note_on_c, 1, 62, 127
1, 36139, Note_on_c, 1, 66, 127
1, 36150, Note_off_c, 1, 62, 0
1, 36156, Note_off_c, 1, 69, 0
1, 36162, Note_on_c, 1, 83, 127
1, 36170, Note_on_c, 1, 64, 127
1, 36173, Note_off_c, 1, 66, 0
1, 36202, Note_off_c, 1, 83, 0
1, 36206, Note_off_c, 1, 64, 0
1, 36227, Note_on_c, 1, 67, 127
1, 36228, Note_on_c, 1, 50, 127
1, 36235, Note_on_c, 1, 74, 127
1, 36247, Note_on_c, 1, 81, 127
1, 36264, Note_off_c, 1, 67, 0
1, 36286, Note_off_c, 1, 50, 0
1, 36289, Note_on_c, 1, 72, 127
1, 36291, Note_off_c, 1, 81, 0
1, 36302, Note_off_c, 1, 74, 0
1, 36347, Note_on_c, 1, 71, 127
1, 36347, Note_on_c, 1, 60, 127
1, 36353, Note_off_c, 1, 72, 0
1, 36393, Note_off_c, 1, 60, 0
1, 36397, Note_on_c, 1, 79, 127
1, 36415, Note_off_c, 1, 71, 0
1, 36447, Note_off_c, 1, 79, 0
1, 36468, Note_on_c, 1, 67, 127
1, 36471, Note_on_c, 1, 79, 127
1, 36474, Note_on_c, 1, 74, 127
1, 36474, Note_on_c, 1, 59, 127
1, 36521, Note_on_c, 1, 69, 127
1, 36533, Note_on_c, 1, 57, 127
1, 36536, Note_off_c, 1, 67, 0
1, 36537, Note_off_c, 1, 59, 0
1, 36575, Note_on_c, 1, 71, 127
1, 36577, Note_off_c, 1, 69, 0
1, 36585, Note_off_c, 1, 57, 0
1, 36588, Note_on_c, 1, 55, 127
1, 36595, Note_off_c, 1, 79, 0
1, 36597, Note_on_c, 1, 77, 127
1, 36630, Note_off_c, 1, 71, 0
1, 36631, Note_on_c, 1, 72, 127
1, 36648, Note_on_c, 1, 76, 127
1, 36649, Note_off_c, 1, 77, 0
1, 36658, Note_off_c, 1, 55, 0
1, 36681, Note_off_c, 1, 72, 0
1, 36696, Note_off_c, 1, 76, 0
1, 36774, Note_off_c, 1, 74, 0
1, 36944, Note_on_c, 1, 72, 127
1, 36944, Note_on_c, 1, 60, 127
1, 36948, Note_on_c, 1, 76, 127
1, 36952, Note_on_c, 1, 67, 127
1, 36999, Note_off_c, 1, 60, 0
1, 37004, Note_on_c, 1, 79, 127
1, 37005, Note_off_c, 1, 76, 0
1, 37064, Note_on_c, 1, 55, 127
1, 37068, Note_off_c, 1, 79, 0
1, 37069, Note_on_c, 1, 77, 127
1, 37081, Note_off_c, 1, 67, 0
1, 37092, Note_off_c, 1, 72, 0
1, 37112, Note_off_c, 1, 55, 0
1, 37120, Note_on_c, 1, 74, 127
1, 37132, Note_off_c, 1, 77, 0
1, 37157, Note_off_c, 1, 74, 0
1, 37177, Note_on_c, 1, 64, 127
1, 37188, Note_on_c, 1, 81, 127
1, 37247, Note_on_c, 1, 71, 127
1, 37256, Note_off_c, 1, 81, 0
1, 37304, Note_off_c, 1, 64, 0
1, 37304, Note_off_c, 1, 71, 0
1, 37307, Note_on_c, 1, 69, 127
1, 37358, Note_off_c, 1, 69, 0
1, 37430, Note_on_c, 1, 65, 127
1, 37487, Note_on_c, 1, 59, 127
1, 37535, Note_off_c, 1, 59, 0
1, 37546, Note_on_c, 1, 57, 127
1, 37558, Note_off_c, 1, 65, 0
1, 37650, Note_off_c, 1, 57, 0
1, 37666, Note_on_c, 1, 62, 127
1, 37806, Note_off_c, 1, 62, 0
1, 37907, Note_on_c, 1, 72, 127
1, 37910, Note_on_c, 1, 59, 127
1, 37912, Note_on_c, 1, 67, 127
1, 37914, Note_on_c, 1, 64, 127
1, 37952, Note_off_c, 1, 59, 0
1, 37960, Note_off_c, 1, 67, 0
1, 37962, Note_on_c, 1, 76, 127
1, 37963, Note_off_c, 1, 72, 0
1, 38029, Note_on_c, 1, 74, 127
1, 38032, Note_on_c, 1, 55, 127
1, 38033, Note_on_c, 1, 52, 127
1, 38036, Note_off_c, 1, 64, 0
1, 38038, Note_off_c, 1, 76, 0
1, 38084, Note_off_c, 1, 52, 0
1, 38087, Note_off_c, 1, 55, 0
1, 38091, Note_on_c, 1, 71, 127
1, 38097, Note_off_c, 1, 74, 0
1, 38119, Note_off_c, 1, 71, 0
1, 38147, Note_on_c, 1, 77, 127
1, 38152, Note_on_c, 1, 60, 127
1, 38158, Note_on_c, 1, 57, 127
1, 38160, Note_on_c, 1, 69, 127
1, 38217, Note_off_c, 1, 77, 0
1, 38243, Note_off_c, 1, 69, 0
1, 38282, Note_on_c, 1, 65, 127
1, 38286, Note_off_c, 1, 60, 0
1, 38306, Note_off_c, 1, 57, 0
1, 38334, Note_off_c, 1, 65, 0
1, 38388, Note_on_c, 1, 71, 127
1, 38397, Note_on_c, 1, 65, 127
1, 38402, Note_on_c, 1, 57, 127
1, 38403, Note_on_c, 1, 62, 127
1, 38446, Note_on_c, 1, 74, 127
1, 38447, Note_off_c, 1, 65, 0
1, 38450, Note_off_c, 1, 71, 0
1, 38453, Note_on_c, 1, 55, 127
1, 38459, Note_off_c, 1, 57, 0
1, 38505, Note_on_c, 1, 72, 127
1, 38506, Note_off_c, 1, 55, 0
1, 38519, Note_off_c, 1, 74, 0
1, 38522, Note_on_c, 1, 53, 127
1, 38524, Note_off_c, 1, 62, 0
1, 38568, Note_on_c, 1, 69, 127
1, 38580, Note_off_c, 1, 72, 0
1, 38599, Note_off_c, 1, 69, 0
1, 38621, Note_off_c, 1, 53, 0
1, 38626, Note_on_c, 1, 76, 127
1, 38636, Note_on_c, 1, 67, 127
1, 38640, Note_on_c, 1, 59, 127
1, 38693, Note_off_c, 1, 76, 0
1, 38715, Note_off_c, 1, 67, 0
1, 38751, Note_on_c, 1, 64, 127
1, 38771, Note_off_c, 1, 59, 0
1, 38806, Note_off_c, 1, 64, 0
1, 38876, Note_on_c, 1, 60, 127
1, 38991, Note_on_c, 1, 52, 127
1, 38994, Note_on_c, 1, 48, 127
1, 39012, Note_off_c, 1, 60, 0
1, 39046, Note_off_c, 1, 52, 0
1, 39046, Note_off_c, 1, 48, 0
1, 39457, Note_on_c, 1, 53, 127
1, 39463, Note_on_c, 1, 62, 127
1, 39465, Note_on_c, 1, 79, 127
1, 39465, Note_on_c, 1, 71, 127
1, 39505, Note_off_c, 1, 62, 0
1, 39510, Note_off_c, 1, 53, 0
1, 39511, Note_off_c, 1, 71, 0
1, 39512, Note_on_c, 1, 59, 127
1, 39512, Note_on_c, 1, 50, 127
1, 39514, Note_off_c, 1, 79, 0
1, 39553, Note_off_c, 1, 50, 0
1, 39561, Note_off_c, 1, 59, 0
1, 39577, Note_on_c, 1, 52, 127
1, 39583, Note_on_c, 1, 64, 127
1, 39589, Note_on_c, 1, 79, 127
1, 39590, Note_on_c, 1, 67, 127
1, 39634, Note_on_c, 1, 53, 127
1, 39642, Note_off_c, 1, 79, 0
1, 39644, Note_off_c, 1, 64, 0
1, 39645, Note_on_c, 1, 69, 127
1, 39651, Note_off_c, 1, 52, 0
1, 39657, Note_off_c, 1, 67, 0
1, 39691, Note_on_c, 1, 55, 127
1, 39699, Note_off_c, 1, 53, 0
1, 39702, Note_on_c, 1, 71, 127
1, 39704, Note_on_c, 1, 62, 127
1, 39705, Note_off_c, 1, 69, 0
1, 39744, Note_off_c, 1, 62, 0
1, 39747, Note_off_c, 1, 55, 0
1, 39759, Note_off_c, 1, 71, 0
1, 39821, Note_on_c, 1, 57, 127
1, 39827, Note_on_c, 1, 72, 127
1, 39828, Note_on_c, 1, 60, 127
1, 39834, Note_on_c, 1, 76, 127
1, 39880, Note_on_c, 1, 58, 127
1, 39886, Note_on_c, 1, 74, 127
1, 39889, Note_off_c, 1, 57, 0
1, 39890, Note_off_c, 1, 72, 0
1, 39939, Note_off_c, 1, 60, 0
1, 39943, Note_off_c, 1, 74, 0
1, 39947, Note_on_c, 1, 62, 127
1, 39955, Note_off_c, 1, 58, 0
1, 39957, Note_off_c, 1, 76, 0
1, 39958, Note_on_c, 1, 77, 127
1, 39992, Note_on_c, 1, 64, 127
1, 39997, Note_off_c, 1, 62, 0
1, 40001, Note_on_c, 1, 55, 127
1, 40004, Note_on_c, 1, 70, 127
1, 40008, Note_on_c, 1, 79, 127
1, 40021, Note_off_c, 1, 77, 0
1, 40042, Note_off_c, 1, 64, 0
1, 40053, Note_off_c, 1, 70, 0
1, 40057, Note_on_c, 1, 53, 127
1, 40058, Note_on_c, 1, 65, 127
1, 40061, Note_off_c, 1, 55, 0
1, 40070, Note_on_c, 1, 81, 127
1, 40071, Note_off_c, 1, 79, 0
1, 40078, Note_on_c, 1, 69, 127
1, 40116, Note_on_c, 1, 52, 127
1, 40117, Note_off_c, 1, 65, 0
1, 40124, Note_off_c, 1, 81, 0
1, 40131, Note_off_c, 1, 53, 0
1, 40132, Note_off_c, 1, 69, 0
1, 40178, Note_on_c, 1, 50, 127
1, 40189, Note_off_c, 1, 52, 0
1, 40238, Note_on_c, 1, 48, 127
1, 40250, Note_off_c, 1, 50, 0
1, 40289, Note_off_c, 1, 48, 0
1, 40297, Note_on_c, 1, 47, 127
1, 40312, Note_on_c, 1, 74, 127
1, 40313, Note_on_c, 1, 67, 127
1, 40360, Note_on_c, 1, 45, 127
1, 40362, Note_off_c, 1, 67, 0
1, 40375, Note_on_c, 1, 72, 127
1, 40384, Note_off_c, 1, 47, 0
1, 40386, Note_off_c, 1, 74, 0
1, 40427, Note_on_c, 1, 79, 127
1, 40428, Note_off_c, 1, 72, 0
1, 40429, Note_on_c, 1, 71, 127
1, 40429, Note_on_c, 1, 62, 127
1, 40434, Note_on_c, 1, 64, 127
1, 40434, Note_on_c, 1, 43, 127
1, 40438, Note_off_c, 1, 45, 0
1, 40468, Note_off_c, 1, 64, 0
1, 40473, Note_off_c, 1, 79, 0
1, 40486, Note_off_c, 1, 71, 0
1, 40488, Note_off_c, 1, 62, 0
1, 40496, Note_off_c, 1, 43, 0
1, 40668, Note_on_c, 1, 77, 127
1, 40724, Note_off_c, 1, 77, 0
1, 40780, Note_on_c, 1, 49, 127
1, 40784, Note_on_c, 1, 48, 127
1, 40786, Note_on_c, 1, 72, 127
1, 40787, Note_on_c, 1, 76, 127
1, 40788, Note_on_c, 1, 67, 127
1, 40790, Note_off_c, 1, 49, 0
1, 40848, Note_off_c, 1, 67, 0
1, 40849, Note_off_c, 1, 48, 0
1, 40899, Note_off_c, 1, 72, 0
1, 40909, Note_on_c, 1, 69, 127
1, 40911, Note_on_c, 1, 53, 127
1, 40937, Note_off_c, 1, 76, 0
1, 40947, Note_on_c, 1, 74, 127
1, 40960, Note_off_c, 1, 69, 0
1, 40964, Note_off_c, 1, 53, 0
1, 41010, Note_off_c, 1, 74, 0
1, 41013, Note_on_c, 1, 72, 127
1, 41024, Note_on_c, 1, 62, 127
1, 41030, Note_on_c, 1, 76, 127
1, 41035, Note_on_c, 1, 55, 127
1, 41040, Note_on_c, 1, 71, 127
1, 41045, Note_off_c, 1, 72, 0
1, 41052, Note_on_c, 1, 74, 127
1, 41072, Note_off_c, 1, 76, 0
1, 41073, Note_off_c, 1, 62, 0
1, 41076, Note_off_c, 1, 71, 0
1, 41085, Note_off_c, 1, 55, 0
1, 41144, Note_on_c, 1, 67, 127
1, 41152, Note_on_c, 1, 43, 127
1, 41184, Note_off_c, 1, 74, 0
1, 41192, Note_off_c, 1, 67, 0
1, 41206, Note_off_c, 1, 43, 0
1, 41270, Note_on_c, 1, 72, 127
1, 41270, Note_on_c, 1, 64, 127
1, 41273, Note_on_c, 1, 48, 127
1, 41274, Note_on_c, 1, 67, 127
1, 41326, Note_on_c, 1, 47, 127
1, 41395, Note_off_c, 1, 47, 0
1, 41399, Note_on_c, 1, 76, 127
1, 41405, Note_off_c, 1, 67, 0
1, 41412, Note_off_c, 1, 64, 0
1, 41437, Note_off_c, 1, 76, 0
1, 41447, Note_off_c, 1, 48, 0
1, 41447, Note_on_c, 1, 50, 127
1, 41448, Note_off_c, 1, 72, 0
1, 41493, Note_off_c, 1, 50, 0
1, 41506, Note_on_c, 1, 48, 127
1, 41514, Note_on_c, 1, 76, 127
1, 41557, Note_off_c, 1, 48, 0
1, 41557, Note_off_c, 1, 76, 0
1, 41558, Note_on_c, 1, 50, 127
1, 41620, Note_off_c, 1, 50, 0
1, 41621, Note_on_c, 1, 52, 127
1, 41637, Note_on_c, 1, 76, 127
1, 41660, Note_off_c, 1, 52, 0
1, 41671, Note_off_c, 1, 76, 0
1, 41676, Note_on_c, 1, 48, 127
1, 41727, Note_off_c, 1, 48, 0
1, 41744, Note_on_c, 1, 53, 127
1, 41754, Note_on_c, 1, 72, 127
1, 41800, Note_off_c, 1, 53, 0
1, 41809, Note_on_c, 1, 55, 127
1, 41856, Note_off_c, 1, 55, 0
1, 41870, Note_off_c, 1, 72, 0
1, 41871, Note_on_c, 1, 53, 127
1, 41875, Note_on_c, 1, 74, 127
1, 41923, Note_off_c, 1, 53, 0
1, 41928, Note_off_c, 1, 74, 0
1, 41929, Note_on_c, 1, 76, 127
1, 41930, Note_on_c, 1, 52, 127
1, 41980, Note_off_c, 1, 76, 0
1, 41982, Note_off_c, 1, 52, 0
1, 41989, Note_on_c, 1, 81, 127
1, 41990, Note_on_c, 1, 77, 127
1, 41994, Note_on_c, 1, 50, 127
1, 42028, Note_off_c, 1, 77, 0
1, 42046, Note_off_c, 1, 50, 0
1, 42050, Note_on_c, 1, 52, 127
1, 42093, Note_off_c, 1, 52, 0
1, 42109, Note_on_c, 1, 53, 127
1, 42114, Note_on_c, 1, 74, 127
1, 42154, Note_off_c, 1, 74, 0
1, 42157, Note_off_c, 1, 53, 0
1, 42233, Note_on_c, 1, 71, 127
1, 42278, Note_off_c, 1, 71, 0
1, 42350, Note_on_c, 1, 76, 127
1, 42386, Note_off_c, 1, 76, 0
1, 42469, Note_on_c, 1, 64, 127
1, 42474, Note_on_c, 1, 80, 127
1, 42475, Note_off_c, 1, 81, 0
1, 42520, Note_off_c, 1, 64, 0
1, 42584, Note_on_c, 1, 48, 127
1, 42635, Note_off_c, 1, 48, 0
1, 42640, Note_on_c, 1, 47, 127
1, 42694, Note_off_c, 1, 47, 0
1, 42696, Note_off_c, 1, 80, 0
1, 42707, Note_on_c, 1, 45, 127
1, 42716, Note_on_c, 1, 81, 127
1, 42724, Note_on_c, 1, 72, 127
1, 42765, Note_off_c, 1, 45, 0
1, 42766, Note_on_c, 1, 47, 127
1, 42783, Note_off_c, 1, 81, 0
1, 42831, Note_on_c, 1, 48, 127
1, 42832, Note_off_c, 1, 47, 0
1, 42833, Note_on_c, 1, 76, 127
1, 42868, Note_off_c, 1, 76, 0
1, 42884, Note_on_c, 1, 50, 127
1, 42887, Note_off_c, 1, 48, 0
1, 42929, Note_off_c, 1, 50, 0
1, 42940, Note_on_c, 1, 52, 127
1, 42967, Note_off_c, 1, 72, 0
1, 42995, Note_on_c, 1, 54, 127
1, 43007, Note_off_c, 1, 52, 0
1, 43048, Note_off_c, 1, 54, 0
1, 43058, Note_on_c, 1, 56, 127
1, 43079, Note_on_c, 1, 76, 127
1, 43113, Note_off_c, 1, 56, 0
1, 43114, Note_on_c, 1, 52, 127
1, 43122, Note_off_c, 1, 76, 0
1, 43157, Note_off_c, 1, 52, 0
1, 43183, Note_on_c, 1, 57, 127
1, 43200, Note_on_c, 1, 72, 127
1, 43231, Note_off_c, 1, 57, 0
1, 43245, Note_on_c, 1, 55, 127
1, 43295, Note_off_c, 1, 55, 0
1, 43304, Note_on_c, 1, 53, 127
1, 43311, Note_off_c, 1, 72, 0
1, 43325, Note_on_c, 1, 74, 127
1, 43356, Note_off_c, 1, 53, 0
1, 43368, Note_on_c, 1, 52, 127
1, 43372, Note_on_c, 1, 76, 127
1, 43374, Note_off_c, 1, 74, 0
1, 43410, Note_off_c, 1, 52, 0
1, 43419, Note_off_c, 1, 76, 0
1, 43428, Note_on_c, 1, 50, 127
1, 43432, Note_on_c, 1, 81, 127
1, 43433, Note_on_c, 1, 77, 127
1, 43474, Note_off_c, 1, 77, 0
1, 43482, Note_off_c, 1, 50, 0
1, 43489, Note_on_c, 1, 52, 127
1, 43535, Note_off_c, 1, 52, 0
1, 43544, Note_on_c, 1, 53, 127
1, 43558, Note_on_c, 1, 74, 127
1, 43590, Note_off_c, 1, 53, 0
1, 43605, Note_off_c, 1, 74, 0
1, 43675, Note_on_c, 1, 71, 127
1, 43722, Note_off_c, 1, 71, 0
1, 43795, Note_on_c, 1, 76, 127
1, 43833, Note_off_c, 1, 76, 0
1, 43904, Note_off_c, 1, 81, 0
1, 43907, Note_on_c, 1, 80, 127
1, 43908, Note_on_c, 1, 52, 127
1, 43916, Note_on_c, 1, 64, 127
1, 43954, Note_off_c, 1, 52, 0
1, 43964, Note_off_c, 1, 64, 0
1, 43964, Note_on_c, 1, 50, 127
1, 44020, Note_off_c, 1, 50, 0
1, 44027, Note_on_c, 1, 48, 127
1, 44033, Note_on_c, 1, 74, 127
1, 44073, Note_off_c, 1, 48, 0
1, 44079, Note_off_c, 1, 74, 0
1, 44086, Note_on_c, 1, 47, 127
1, 44135, Note_off_c, 1, 47, 0
1, 44140, Note_off_c, 1, 80, 0
1, 44148, Note_on_c, 1, 72, 127
1, 44159, Note_on_c, 1, 45, 127
1, 44161, Note_on_c, 1, 81, 127
1, 44198, Note_on_c, 1, 71, 127
1, 44207, Note_off_c, 1, 72, 0
1, 44216, Note_off_c, 1, 45, 0
1, 44265, Note_off_c, 1, 71, 0
1, 44268, Note_on_c, 1, 69, 127
1, 44282, Note_on_c, 1, 57, 127
1, 44319, Note_off_c, 1, 57, 0
1, 44323, Note_off_c, 1, 81, 0
1, 44336, Note_off_c, 1, 69, 0
1, 44387, Note_on_c, 1, 77, 127
1, 44567, Note_on_c, 1, 74, 127
1, 44624, Note_off_c, 1, 74, 0
1, 44632, Note_on_c, 1, 55, 127
1, 44730, Note_off_c, 1, 55, 0
1, 44803, Note_on_c, 1, 59, 127
1, 44832, Note_off_c, 1, 77, 0
1, 44843, Note_off_c, 1, 59, 0
1, 44865, Note_on_c, 1, 76, 127
1, 44869, Note_on_c, 1, 60, 127
1, 44912, Note_off_c, 1, 60, 0
1, 44923, Note_on_c, 1, 79, 127
1, 44983, Note_on_c, 1, 78, 127
1, 44987, Note_off_c, 1, 79, 0
1, 45048, Note_off_c, 1, 78, 0
1, 45109, Note_on_c, 1, 54, 127
1, 45153, Note_off_c, 1, 54, 0
1, 45296, Note_off_c, 1, 76, 0
1, 45344, Note_on_c, 1, 47, 127
1, 45390, Note_on_c, 1, 83, 127
1, 45395, Note_off_c, 1, 47, 0
1, 45453, Note_on_c, 1, 80, 127
1, 45458, Note_off_c, 1, 83, 0
1, 45528, Note_off_c, 1, 80, 0
1, 45579, Note_on_c, 1, 56, 127
1, 45623, Note_off_c, 1, 56, 0
1, 45698, Note_on_c, 1, 52, 127
1, 45744, Note_off_c, 1, 52, 0
1, 45909, Note_on_c, 1, 74, 127
1, 45949, Note_on_c, 1, 50, 127
1, 45953, Note_on_c, 1, 71, 127
1, 45960, Note_off_c, 1, 74, 0
1, 45960, Note_on_c, 1, 76, 127
1, 45993, Note_off_c, 1, 50, 0
1, 46008, Note_off_c, 1, 71, 0
1, 46018, Note_on_c, 1, 77, 127
1, 46023, Note_off_c, 1, 76, 0
1, 46073, Note_off_c, 1, 77, 0
1, 46080, Note_on_c, 1, 72, 127
1, 46080, Note_on_c, 1, 69, 127
1, 46084, Note_on_c, 1, 52, 127
1, 46196, Note_on_c, 1, 76, 127
1, 46223, Note_off_c, 1, 76, 0
1, 46227, Note_off_c, 1, 52, 0
1, 46236, Note_off_c, 1, 72, 0
1, 46243, Note_off_c, 1, 69, 0
1, 46303, Note_on_c, 1, 69, 127
1, 46304, Note_on_c, 1, 72, 127
1, 46316, Note_on_c, 1, 76, 127
1, 46316, Note_on_c, 1, 40, 127
1, 46329, Note_on_c, 1, 68, 127
1, 46340, Note_on_c, 1, 71, 127
1, 46341, Note_off_c, 1, 72, 0
1, 46343, Note_off_c, 1, 69, 0
1, 46351, Note_off_c, 1, 76, 0
1, 46356, Note_off_c, 1, 68, 0
1, 46368, Note_off_c, 1, 71, 0
1, 46462, Note_off_c, 1, 40, 0
1, 46555, Note_on_c, 1, 72, 127
1, 46557, Note_on_c, 1, 69, 127
1, 46559, Note_on_c, 1, 45, 127
1, 46616, Note_off_c, 1, 69, 0
1, 46617, Note_on_c, 1, 57, 127
1, 46670, Note_on_c, 1, 74, 127
1, 46678, Note_off_c, 1, 72, 0
1, 46678, Note_off_c, 1, 57, 0
1, 46678, Note_on_c, 1, 59, 127
1, 46715, Note_on_c, 1, 76, 127
1, 46731, Note_on_c, 1, 60, 127
1, 46732, Note_off_c, 1, 74, 0
1, 46734, Note_off_c, 1, 59, 0
1, 46774, Note_off_c, 1, 60, 0
1, 46779, Note_off_c, 1, 76, 0
1, 46781, Note_off_c, 1, 45, 0
1, 46783, Note_on_c, 1, 77, 127
1, 46791, Note_on_c, 1, 69, 127
1, 46797, Note_on_c, 1, 62, 127
1, 46833, Note_off_c, 1, 69, 0
1, 46836, Note_off_c, 1, 77, 0
1, 46843, Note_off_c, 1, 62, 0
1, 46849, Note_on_c, 1, 59, 127
1, 46903, Note_on_c, 1, 74, 127
1, 46906, Note_on_c, 1, 60, 127
1, 46908, Note_off_c, 1, 59, 0
1, 46913, Note_on_c, 1, 69, 127
1, 46956, Note_off_c, 1, 74, 0
1, 46956, Note_off_c, 1, 60, 0
1, 46956, Note_off_c, 1, 69, 0
1, 46956, Note_on_c, 1, 62, 127
1, 47021, Note_off_c, 1, 62, 0
1, 47024, Note_on_c, 1, 64, 127
1, 47027, Note_on_c, 1, 71, 127
1, 47030, Note_on_c, 1, 67, 127
1, 47073, Note_off_c, 1, 71, 0
1, 47077, Note_on_c, 1, 65, 127
1, 47088, Note_off_c, 1, 64, 0
1, 47132, Note_off_c, 1, 65, 0
1, 47147, Note_on_c, 1, 69, 127
1, 47147, Note_on_c, 1, 76, 127
1, 47150, Note_off_c, 1, 67, 0
1, 47199, Note_off_c, 1, 69, 0
1, 47200, Note_on_c, 1, 62, 127
1, 47201, Note_off_c, 1, 76, 0
1, 47242, Note_off_c, 1, 62, 0
1, 47259, Note_on_c, 1, 72, 127
1, 47264, Note_on_c, 1, 64, 127
1, 47266, Note_on_c, 1, 60, 127
1, 47301, Note_off_c, 1, 72, 0
1, 47323, Note_on_c, 1, 62, 127
1, 47327, Note_off_c, 1, 60, 0
1, 47328, Note_off_c, 1, 64, 0
1, 47368, Note_off_c, 1, 62, 0
1, 47378, Note_on_c, 1, 64, 127
1, 47379, Note_on_c, 1, 69, 127
1, 47391, Note_on_c, 1, 76, 127
1, 47423, Note_off_c, 1, 69, 0
1, 47429, Note_off_c, 1, 64, 0
1, 47429, Note_on_c, 1, 60, 127
1, 47448, Note_off_c, 1, 76, 0
1, 47471, Note_off_c, 1, 60, 0
1, 47502, Note_on_c, 1, 66, 127
1, 47504, Note_on_c, 1, 62, 127
1, 47506, Note_on_c, 1, 69, 127
1, 47549, Note_off_c, 1, 62, 0
1, 47550, Note_off_c, 1, 66, 0
1, 47568, Note_on_c, 1, 60, 127
1, 47621, Note_on_c, 1, 71, 127
1, 47624, Note_off_c, 1, 69, 0
1, 47629, Note_on_c, 1, 59, 127
1, 47641, Note_off_c, 1, 60, 0
1, 47677, Note_on_c, 1, 72, 127
1, 47689, Note_off_c, 1, 71, 0
1, 47690, Note_off_c, 1, 59, 0
1, 47690, Note_on_c, 1, 57, 127
1, 47730, Note_off_c, 1, 72, 0
1, 47741, Note_off_c, 1, 57, 0
1, 47744, Note_on_c, 1, 59, 127
1, 47748, Note_on_c, 1, 74, 127
1, 47748, Note_on_c, 1, 56, 127
1, 47749, Note_on_c, 1, 62, 127
1, 47800, Note_off_c, 1, 62, 0
1, 47801, Note_on_c, 1, 57, 127
1, 47809, Note_off_c, 1, 59, 0
1, 47812, Note_off_c, 1, 56, 0
1, 47863, Note_on_c, 1, 69, 127
1, 47883, Note_off_c, 1, 57, 0
1, 47905, Note_off_c, 1, 69, 0
1, 47914, Note_on_c, 1, 54, 127
1, 47977, Note_on_c, 1, 52, 127
1, 47984, Note_off_c, 1, 54, 0
1, 47986, Note_on_c, 1, 68, 127
1, 48018, Note_off_c, 1, 74, 0
1, 48043, Note_off_c, 1, 52, 0
1, 48050, Note_on_c, 1, 77, 127
1, 48098, Note_on_c, 1, 60, 127
1, 48101, Note_off_c, 1, 68, 0
1, 48112, Note_on_c, 1, 76, 127
1, 48120, Note_off_c, 1, 77, 0
1, 48159, Note_on_c, 1, 71, 127
1, 48171, Note_off_c, 1, 60, 0
1, 48176, Note_off_c, 1, 76, 0
1, 48204, Note_off_c, 1, 71, 0
1, 48221, Note_on_c, 1, 64, 127
1, 48225, Note_on_c, 1, 72, 127
1, 48267, Note_off_c, 1, 64, 0
1, 48287, Note_off_c, 1, 72, 0
1, 48394, Note_on_c, 1, 55, 127
1, 48455, Note_on_c, 1, 53, 127
1, 48462, Note_on_c, 1, 81, 127
1, 48477, Note_off_c, 1, 55, 0
1, 48530, Note_off_c, 1, 53, 0
1, 48605, Note_off_c, 1, 81, 0
1, 48633, Note_on_c, 1, 50, 127
1, 48635, Note_on_c, 1, 83, 127
1, 48685, Note_off_c, 1, 83, 0
1, 48692, Note_off_c, 1, 50, 0
1, 48699, Note_on_c, 1, 52, 127
1, 48701, Note_on_c, 1, 81, 127
1, 48701, Note_on_c, 1, 71, 127
1, 48730, Note_on_c, 1, 80, 127
1, 48746, Note_off_c, 1, 71, 0
1, 48753, Note_off_c, 1, 81, 0
1, 48759, Note_off_c, 1, 52, 0
1, 48778, Note_off_c, 1, 80, 0
1, 48817, Note_on_c, 1, 40, 127
1, 48823, Note_on_c, 1, 74, 127
1, 48824, Note_on_c, 1, 64, 127
1, 48858, Note_off_c, 1, 74, 0
1, 48865, Note_off_c, 1, 64, 0
1, 48878, Note_off_c, 1, 40, 0
1, 48884, Note_on_c, 1, 81, 127
1, 48924, Note_off_c, 1, 81, 0
1, 48939, Note_on_c, 1, 64, 127
1, 48942, Note_on_c, 1, 45, 127
1, 48947, Note_on_c, 1, 81, 127
1, 48947, Note_on_c, 1, 72, 127
1, 48994, Note_off_c, 1, 64, 0
1, 49001, Note_on_c, 1, 83, 127
1, 49004, Note_on_c, 1, 74, 127
1, 49007, Note_off_c, 1, 72, 0
1, 49013, Note_off_c, 1, 81, 0
1, 49035, Note_off_c, 1, 45, 0
1, 49060, Note_off_c, 1, 74, 0
1, 49060, Note_on_c, 1, 69, 127
1, 49064, Note_on_c, 1, 84, 127
1, 49064, Note_on_c, 1, 76, 127
1, 49071, Note_on_c, 1, 57, 127
1, 49076, Note_off_c, 1, 83, 0
1, 49112, Note_off_c, 1, 69, 0
1, 49118, Note_off_c, 1, 57, 0
1, 49125, Note_off_c, 1, 76, 0
1, 49127, Note_off_c, 1, 84, 0
1, 49235, Note_on_c, 1, 79, 127
1, 49242, Note_on_c, 1, 71, 127
1, 49295, Note_off_c, 1, 71, 0
1, 49306, Note_on_c, 1, 66, 127
1, 49311, Note_off_c, 1, 79, 0
1, 49352, Note_on_c, 1, 78, 127
1, 49355, Note_off_c, 1, 66, 0
1, 49415, Note_off_c, 1, 78, 0
1, 49417, Note_on_c, 1, 64, 127
1, 49418, Note_on_c, 1, 83, 127
1, 49423, Note_on_c, 1, 67, 127
1, 49424, Note_on_c, 1, 55, 127
1, 49472, Note_off_c, 1, 64, 0
1, 49475, Note_on_c, 1, 72, 127
1, 49482, Note_off_c, 1, 67, 0
1, 49488, Note_off_c, 1, 83, 0
1, 49536, Note_on_c, 1, 71, 127
1, 49544, Note_off_c, 1, 55, 0
1, 49544, Note_on_c, 1, 63, 127
1, 49544, Note_on_c, 1, 57, 127
1, 49550, Note_off_c, 1, 72, 0
1, 49595, Note_off_c, 1, 63, 0
1, 49595, Note_on_c, 1, 59, 127
1, 49598, Note_on_c, 1, 69, 127
1, 49602, Note_off_c, 1, 71, 0
1, 49616, Note_off_c, 1, 57, 0
1, 49652, Note_off_c, 1, 59, 0
1, 49656, Note_off_c, 1, 69, 0
1, 49658, Note_on_c, 1, 60, 127
1, 49661, Note_on_c, 1, 64, 127
1, 49663, Note_on_c, 1, 67, 127
1, 49671, Note_on_c, 1, 76, 127
1, 49709, Note_off_c, 1, 60, 0
1, 49716, Note_on_c, 1, 66, 127
1, 49719, Note_off_c, 1, 67, 0
1, 49773, Note_off_c, 1, 66, 0
1, 49781, Note_on_c, 1, 57, 127
1, 49800, Note_off_c, 1, 76, 0
1, 49804, Note_off_c, 1, 64, 0
1, 49830, Note_off_c, 1, 57, 0
1, 49841, Note_on_c, 1, 64, 127
1, 49849, Note_on_c, 1, 76, 127
1, 49884, Note_off_c, 1, 64, 0
1, 49890, Note_off_c, 1, 76, 0
1, 49900, Note_on_c, 1, 54, 127
1, 49913, Note_on_c, 1, 76, 127
1, 49913, Note_on_c, 1, 66, 127
1, 49916, Note_on_c, 1, 69, 127
1, 49954, Note_off_c, 1, 54, 0
1, 49962, Note_off_c, 1, 69, 0
1, 49966, Note_off_c, 1, 66, 0
1, 49969, Note_on_c, 1, 79, 127
1, 49975, Note_on_c, 1, 64, 127
1, 49976, Note_off_c, 1, 76, 0
1, 50026, Note_off_c, 1, 64, 0
1, 50026, Note_on_c, 1, 59, 127
1, 50026, Note_on_c, 1, 78, 127
1, 50034, Note_on_c, 1, 63, 127
1, 50036, Note_off_c, 1, 79, 0
1, 50072, Note_off_c, 1, 59, 0
1, 50076, Note_off_c, 1, 63, 0
1, 50088, Note_off_c, 1, 78, 0
1, 50139, Note_on_c, 1, 75, 127
1, 50148, Note_on_c, 1, 47, 127
1, 50188, Note_on_c, 1, 73, 127
1, 50201, Note_on_c, 1, 67, 127
1, 50207, Note_off_c, 1, 47, 0
1, 50208, Note_off_c, 1, 75, 0
1, 50243, Note_off_c, 1, 67, 0
1, 50268, Note_off_c, 1, 73, 0
1, 50304, Note_on_c, 1, 71, 127
1, 50371, Note_off_c, 1, 71, 0
1, 50375, Note_on_c, 1, 83, 127
1, 50380, Note_on_c, 1, 67, 127
1, 50397, Note_on_c, 1, 52, 127
1, 50438, Note_on_c, 1, 81, 127
1, 50467, Note_off_c, 1, 83, 0
1, 50495, Note_on_c, 1, 79, 127
1, 50496, Note_on_c, 1, 69, 127
1, 50501, Note_off_c, 1, 67, 0
1, 50503, Note_off_c, 1, 81, 0
1, 50504, Note_on_c, 1, 64, 127
1, 50543, Note_off_c, 1, 64, 0
1, 50546, Note_on_c, 1, 71, 127
1, 50548, Note_off_c, 1, 69, 0
1, 50550, Note_on_c, 1, 78, 127
1, 50573, Note_off_c, 1, 79, 0
1, 50595, Note_off_c, 1, 71, 0
1, 50612, Note_on_c, 1, 72, 127
1, 50616, Note_on_c, 1, 76, 127
1, 50625, Note_off_c, 1, 78, 0
1, 50636, Note_off_c, 1, 52, 0
1, 50653, Note_off_c, 1, 72, 0
1, 50669, Note_on_c, 1, 74, 127
1, 50690, Note_off_c, 1, 76, 0
1, 50758, Note_off_c, 1, 74, 0
1, 50856, Note_on_c, 1, 66, 127
1, 50899, Note_off_c, 1, 66, 0
1, 50985, Note_on_c, 1, 68, 127
1, 51039, Note_off_c, 1, 68, 0
1, 51100, Note_on_c, 1, 59, 127
1, 51152, Note_off_c, 1, 59, 0
1, 51343, Note_on_c, 1, 68, 127
1, 51344, Note_on_c, 1, 74, 127
1, 51352, Note_on_c, 1, 71, 127
1, 51388, Note_off_c, 1, 68, 0
1, 51412, Note_off_c, 1, 71, 0
1, 51413, Note_on_c, 1, 69, 127
1, 51464, Note_on_c, 1, 64, 127
1, 51467, Note_off_c, 1, 69, 0
1, 51472, Note_off_c, 1, 74, 0
1, 51512, Note_off_c, 1, 64, 0
1, 51518, Note_on_c, 1, 76, 127
1, 51524, Note_on_c, 1, 68, 127
1, 51559, Note_off_c, 1, 68, 0
1, 51561, Note_off_c, 1, 76, 0
1, 51582, Note_on_c, 1, 69, 127
1, 51585, Note_on_c, 1, 74, 127
1, 51611, Note_on_c, 1, 72, 127
1, 51620, Note_off_c, 1, 74, 0
1, 51642, Note_on_c, 1, 71, 127
1, 51647, Note_off_c, 1, 72, 0
1, 51721, Note_off_c, 1, 71, 0
1, 51828, Note_on_c, 1, 76, 127
1, 51884, Note_off_c, 1, 76, 0
1, 51923, Note_off_c, 1, 69, 0
1, 51945, Note_on_c, 1, 52, 127
1, 51991, Note_off_c, 1, 52, 0
1, 52002, Note_on_c, 1, 71, 127
1, 52003, Note_on_c, 1, 74, 127
1, 52009, Note_on_c, 1, 69, 127
1, 52029, Note_off_c, 1, 71, 0
1, 52044, Note_off_c, 1, 74, 0
1, 52051, Note_off_c, 1, 69, 0
1, 52065, Note_on_c, 1, 72, 127
1, 52067, Note_on_c, 1, 52, 127
1, 52075, Note_on_c, 1, 64, 127
1, 52076, Note_on_c, 1, 69, 127
1, 52089, Note_on_c, 1, 71, 127
1, 52099, Note_on_c, 1, 68, 127
1, 52101, Note_off_c, 1, 72, 0
1, 52107, Note_off_c, 1, 69, 0
1, 52119, Note_off_c, 1, 52, 0
1, 52129, Note_off_c, 1, 68, 0
1, 52136, Note_off_c, 1, 71, 0
1, 52311, Note_on_c, 1, 48, 127
1, 52342, Note_off_c, 1, 64, 0
1, 52356, Note_on_c, 1, 76, 127
1, 52365, Note_on_c, 1, 62, 127
1, 52413, Note_off_c, 1, 62, 0
1, 52413, Note_on_c, 1, 60, 127
1, 52415, Note_on_c, 1, 78, 127
1, 52424, Note_on_c, 1, 50, 127
1, 52425, Note_off_c, 1, 76, 0
1, 52430, Note_off_c, 1, 48, 0
1, 52463, Note_off_c, 1, 60, 0
1, 52464, Note_on_c, 1, 80, 127
1, 52472, Note_on_c, 1, 59, 127
1, 52480, Note_off_c, 1, 78, 0
1, 52495, Note_off_c, 1, 50, 0
1, 52508, Note_off_c, 1, 59, 0
1, 52526, Note_off_c, 1, 80, 0
1, 52532, Note_on_c, 1, 57, 127
1, 52540, Note_on_c, 1, 81, 127
1, 52544, Note_on_c, 1, 53, 127
1, 52595, Note_off_c, 1, 53, 0
1, 52603, Note_off_c, 1, 57, 0
1, 52772, Note_on_c, 1, 65, 127
1, 52780, Note_on_c, 1, 47, 127
1, 52784, Note_on_c, 1, 74, 127
1, 52811, Note_off_c, 1, 81, 0
1, 52814, Note_off_c, 1, 65, 0
1, 52839, Note_off_c, 1, 47, 0
1, 52844, Note_on_c, 1, 84, 127
1, 52851, Note_off_c, 1, 74, 0
1, 52894, Note_on_c, 1, 56, 127
1, 52903, Note_on_c, 1, 83, 127
1, 52922, Note_off_c, 1, 84, 0
1, 52952, Note_off_c, 1, 56, 0
1, 52992, Note_off_c, 1, 83, 0
1, 53024, Note_on_c, 1, 40, 127
1, 53090, Note_off_c, 1, 40, 0
1, 53388, Note_on_c, 1, 45, 127
1, 53451, Note_off_c, 1, 45, 0
1, 53805, Note_on_c, 1, 55, 127
1, 53863, Note_off_c, 1, 55, 0
1, 53921, Note_on_c, 1, 67, 127
1, 53961, Note_off_c, 1, 67, 0
1, 53987, Note_on_c, 1, 77, 127
1, 54033, Note_off_c, 1, 77, 0
1, 54881, Note_on_c, 1, 71, 127
1, 54930, Note_off_c, 1, 71, 0
1, 54943, Note_on_c, 1, 64, 127
1, 54948, Note_on_c, 1, 72, 127
1, 54949, Note_on_c, 1, 69, 127
1, 54951, Note_on_c, 1, 52, 127
1, 54974, Note_on_c, 1, 71, 127
1, 54978, Note_on_c, 1, 68, 127
1, 54986, Note_off_c, 1, 64, 0
1, 54986, Note_off_c, 1, 69, 0
1, 54989, Note_off_c, 1, 72, 0
1, 54994, Note_off_c, 1, 52, 0
1, 55008, Note_off_c, 1, 68, 0
1, 55063, Note_on_c, 1, 62, 127
1, 55067, Note_on_c, 1, 40, 127
1, 55109, Note_off_c, 1, 71, 0
1, 55114, Note_off_c, 1, 62, 0
1, 55116, Note_off_c, 1, 40, 0
1, 55119, Note_on_c, 1, 69, 127
1, 55166, Note_off_c, 1, 69, 0
1, 55184, Note_on_c, 1, 60, 127
1, 55185, Note_on_c, 1, 69, 127
1, 55194, Note_on_c, 1, 45, 127
1, 55255, Note_on_c, 1, 77, 127
1, 55275, Note_off_c, 1, 60, 0
1, 55297, Note_off_c, 1, 77, 0
1, 55315, Note_on_c, 1, 76, 127
1, 55354, Note_off_c, 1, 76, 0
1, 55357, Note_off_c, 1, 69, 0
1, 55374, Note_on_c, 1, 74, 127
1, 55425, Note_off_c, 1, 74, 0
1, 55436, Note_on_c, 1, 72, 127
1, 55438, Note_off_c, 1, 45, 0
1, 55475, Note_off_c, 1, 72, 0
1, 55494, Note_on_c, 1, 71, 127
1, 55534, Note_off_c, 1, 71, 0
1, 55549, Note_on_c, 1, 69, 127
1, 55553, Note_on_c, 1, 72, 127
1, 55587, Note_off_c, 1, 72, 0
1, 55597, Note_off_c, 1, 69, 0
1, 55609, Note_on_c, 1, 69, 127
1, 55663, Note_on_c, 1, 67, 127
1, 55664, Note_off_c, 1, 69, 0
1, 55679, Note_on_c, 1, 76, 127
1, 55736, Note_on_c, 1, 84, 127
1, 55778, Note_off_c, 1, 84, 0
1, 55791, Note_off_c, 1, 67, 0
1, 55794, Note_on_c, 1, 83, 127
1, 55837, Note_off_c, 1, 83, 0
1, 55837, Note_on_c, 1, 71, 127
1, 55854, Note_on_c, 1, 81, 127
1, 55892, Note_off_c, 1, 71, 0
1, 55899, Note_on_c, 1, 72, 127
1, 55904, Note_off_c, 1, 81, 0
1, 55915, Note_on_c, 1, 79, 127
1, 55954, Note_off_c, 1, 72, 0
1, 55958, Note_off_c, 1, 79, 0
1, 55975, Note_on_c, 1, 78, 127
1, 56019, Note_off_c, 1, 78, 0
1, 56146, Note_on_c, 1, 66, 127
1, 56206, Note_off_c, 1, 66, 0
1, 56383, Note_off_c, 1, 76, 0
1, 56386, Note_on_c, 1, 75, 127
1, 56389, Note_on_c, 1, 78, 127
1, 56391, Note_on_c, 1, 59, 127
1, 56438, Note_off_c, 1, 78, 0
1, 56447, Note_on_c, 1, 76, 127
1, 56450, Note_off_c, 1, 59, 0
1, 56491, Note_off_c, 1, 76, 0
1, 56503, Note_on_c, 1, 71, 127
1, 56558, Note_off_c, 1, 71, 0
1, 56604, Note_off_c, 1, 75, 0
1, 56626, Note_on_c, 1, 76, 127
1, 56629, Note_on_c, 1, 64, 127
1, 56633, Note_on_c, 1, 79, 127
1, 56684, Note_on_c, 1, 60, 127
1, 56724, Note_off_c, 1, 64, 0
1, 56728, Note_off_c, 1, 60, 0
1, 56743, Note_on_c, 1, 59, 127
1, 56752, Note_on_c, 1, 71, 127
1, 56753, Note_on_c, 1, 67, 127
1, 56787, Note_off_c, 1, 59, 0
1, 56789, Note_off_c, 1, 71, 0
1, 56800, Note_off_c, 1, 67, 0
1, 56803, Note_on_c, 1, 57, 127
1, 56859, Note_off_c, 1, 57, 0
1, 56863, Note_on_c, 1, 55, 127
1, 56906, Note_off_c, 1, 55, 0
1, 56921, Note_on_c, 1, 54, 127
1, 56959, Note_off_c, 1, 54, 0
1, 57035, Note_on_c, 1, 52, 127
1, 57070, Note_off_c, 1, 52, 0
1, 57108, Note_on_c, 1, 73, 127
1, 57114, Note_on_c, 1, 69, 127
1, 57134, Note_off_c, 1, 76, 0
1, 57167, Note_on_c, 1, 77, 127
1, 57193, Note_off_c, 1, 73, 0
1, 57208, Note_off_c, 1, 69, 0
1, 57214, Note_off_c, 1, 77, 0
1, 57226, Note_on_c, 1, 45, 127
1, 57284, Note_on_c, 1, 74, 127
1, 57300, Note_off_c, 1, 45, 0
1, 57324, Note_off_c, 1, 74, 0
1, 57342, Note_off_c, 1, 79, 0
1, 57345, Note_on_c, 1, 73, 127
1, 57357, Note_on_c, 1, 69, 127
1, 57398, Note_off_c, 1, 73, 0
1, 57398, Note_off_c, 1, 69, 0
1, 57407, Note_on_c, 1, 71, 127
1, 57447, Note_off_c, 1, 71, 0
1, 57466, Note_on_c, 1, 73, 127
1, 57468, Note_on_c, 1, 69, 127
1, 57515, Note_off_c, 1, 73, 0
1, 57515, Note_off_c, 1, 69, 0
1, 57531, Note_on_c, 1, 69, 127
1, 57576, Note_off_c, 1, 69, 0
1, 57590, Note_on_c, 1, 65, 127
1, 57599, Note_on_c, 1, 74, 127
1, 57656, Note_on_c, 1, 82, 127
1, 57700, Note_off_c, 1, 65, 0
1, 57703, Note_off_c, 1, 82, 0
1, 57710, Note_on_c, 1, 67, 127
1, 57715, Note_on_c, 1, 81, 127
1, 57765, Note_off_c, 1, 81, 0
1, 57765, Note_on_c, 1, 69, 127
1, 57769, Note_off_c, 1, 67, 0
1, 57773, Note_on_c, 1, 79, 127
1, 57815, Note_off_c, 1, 69, 0
1, 57830, Note_on_c, 1, 70, 127
1, 57831, Note_off_c, 1, 79, 0
1, 57836, Note_on_c, 1, 77, 127
1, 57877, Note_off_c, 1, 70, 0
1, 57877, Note_off_c, 1, 77, 0
1, 57895, Note_on_c, 1, 76, 127
1, 57944, Note_off_c, 1, 76, 0
1, 58065, Note_on_c, 1, 64, 127
1, 58117, Note_off_c, 1, 64, 0
1, 58301, Note_on_c, 1, 57, 127
1, 58309, Note_off_c, 1, 74, 0
1, 58318, Note_on_c, 1, 73, 127
1, 58359, Note_off_c, 1, 57, 0
1, 58540, Note_off_c, 1, 73, 0
1, 58544, Note_on_c, 1, 77, 127
1, 58545, Note_on_c, 1, 62, 127
1, 58559, Note_on_c, 1, 74, 127
1, 58602, Note_on_c, 1, 58, 127
1, 58640, Note_off_c, 1, 62, 0
1, 58644, Note_off_c, 1, 58, 0
1, 58662, Note_on_c, 1, 57, 127
1, 58668, Note_on_c, 1, 69, 127
1, 58674, Note_on_c, 1, 65, 127
1, 58701, Note_off_c, 1, 57, 0
1, 58709, Note_off_c, 1, 69, 0
1, 58720, Note_on_c, 1, 55, 127
1, 58726, Note_off_c, 1, 65, 0
1, 58783, Note_on_c, 1, 53, 127
1, 58785, Note_off_c, 1, 55, 0
1, 58824, Note_off_c, 1, 53, 0
1, 58843, Note_on_c, 1, 52, 127
1, 58882, Note_off_c, 1, 52, 0
1, 58960, Note_on_c, 1, 50, 127
1, 59003, Note_off_c, 1, 50, 0
1, 59026, Note_on_c, 1, 71, 127
1, 59032, Note_on_c, 1, 67, 127
1, 59055, Note_off_c, 1, 74, 0
1, 59083, Note_on_c, 1, 76, 127
1, 59117, Note_off_c, 1, 71, 0
1, 59125, Note_off_c, 1, 67, 0
1, 59139, Note_off_c, 1, 76, 0
1, 59143, Note_on_c, 1, 43, 127
1, 59200, Note_on_c, 1, 72, 127
1, 59214, Note_off_c, 1, 43, 0
1, 59243, Note_off_c, 1, 72, 0
1, 59270, Note_off_c, 1, 77, 0
1, 59496, Note_on_c, 1, 72, 127
1, 59506, Note_on_c, 1, 64, 127
1, 59561, Note_on_c, 1, 81, 127
1, 59606, Note_off_c, 1, 81, 0
1, 59616, Note_off_c, 1, 64, 0
1, 59621, Note_on_c, 1, 79, 127
1, 59626, Note_on_c, 1, 65, 127
1, 59663, Note_off_c, 1, 79, 0
1, 59677, Note_off_c, 1, 65, 0
1, 59679, Note_on_c, 1, 67, 127
1, 59679, Note_on_c, 1, 77, 127
1, 59725, Note_off_c, 1, 67, 0
1, 59733, Note_off_c, 1, 77, 0
1, 59739, Note_on_c, 1, 69, 127
1, 59743, Note_on_c, 1, 76, 127
1, 59783, Note_off_c, 1, 76, 0
1, 59789, Note_off_c, 1, 69, 0
1, 59799, Note_on_c, 1, 74, 127
1, 59845, Note_off_c, 1, 74, 0
1, 59976, Note_on_c, 1, 62, 127
1, 60026, Note_off_c, 1, 62, 0
1, 60210, Note_on_c, 1, 55, 127
1, 60211, Note_off_c, 1, 72, 0
1, 60229, Note_on_c, 1, 71, 127
1, 60267, Note_off_c, 1, 55, 0
1, 60449, Note_off_c, 1, 71, 0
1, 60457, Note_on_c, 1, 60, 127
1, 60547, Note_off_c, 1, 60, 0
1, 60752, Note_on_c, 1, 59, 127
1, 60799, Note_off_c, 1, 59, 0
1, 60871, Note_on_c, 1, 57, 127
1, 60876, Note_on_c, 1, 78, 127
1, 60910, Note_off_c, 1, 57, 0
1, 60928, Note_off_c, 1, 78, 0
1, 60936, Note_on_c, 1, 79, 127
1, 60939, Note_on_c, 1, 64, 127
1, 60945, Note_on_c, 1, 71, 127
1, 61002, Note_off_c, 1, 64, 0
1, 61002, Note_on_c, 1, 62, 127
1, 61011, Note_on_c, 1, 53, 127
1, 61047, Note_off_c, 1, 62, 0
1, 61049, Note_off_c, 1, 71, 0
1, 61052, Note_off_c, 1, 53, 0
1, 61058, Note_on_c, 1, 72, 127
1, 61069, Note_on_c, 1, 52, 127
1, 61082, Note_off_c, 1, 79, 0
1, 61101, Note_off_c, 1, 72, 0
1, 61105, Note_off_c, 1, 52, 0
1, 61112, Note_on_c, 1, 74, 127
1, 61116, Note_on_c, 1, 66, 127
1, 61125, Note_on_c, 1, 50, 127
1, 61160, Note_off_c, 1, 66, 0
1, 61166, Note_off_c, 1, 74, 0
1, 61171, Note_on_c, 1, 76, 127
1, 61179, Note_on_c, 1, 67, 127
1, 61181, Note_off_c, 1, 50, 0
1, 61183, Note_on_c, 1, 79, 127
1, 61185, Note_on_c, 1, 48, 127
1, 61217, Note_off_c, 1, 76, 0
1, 61222, Note_off_c, 1, 48, 0
1, 61226, Note_off_c, 1, 67, 0
1, 61242, Note_on_c, 1, 47, 127
1, 61284, Note_off_c, 1, 47, 0
1, 61297, Note_on_c, 1, 72, 127
1, 61299, Note_on_c, 1, 64, 127
1, 61319, Note_off_c, 1, 79, 0
1, 61339, Note_off_c, 1, 64, 0
1, 61341, Note_off_c, 1, 72, 0
1, 61362, Note_on_c, 1, 45, 127
1, 61368, Note_on_c, 1, 79, 127
1, 61404, Note_off_c, 1, 79, 0
1, 61407, Note_off_c, 1, 45, 0
1, 61420, Note_on_c, 1, 69, 127
1, 61430, Note_on_c, 1, 50, 127
1, 61430, Note_on_c, 1, 79, 127
1, 61435, Note_on_c, 1, 62, 127
1, 61464, Note_off_c, 1, 69, 0
1, 61479, Note_off_c, 1, 50, 0
1, 61479, Note_off_c, 1, 62, 0
1, 61541, Note_off_c, 1, 79, 0
1, 61541, Note_on_c, 1, 74, 127
1, 61546, Note_on_c, 1, 38, 127
1, 61574, Note_off_c, 1, 74, 0
1, 61583, Note_on_c, 1, 78, 127
1, 61619, Note_on_c, 1, 76, 127
1, 61620, Note_off_c, 1, 38, 0
1, 61642, Note_off_c, 1, 78, 0
1, 61678, Note_off_c, 1, 76, 0
1, 61916, Note_on_c, 1, 59, 127
1, 62028, Note_off_c, 1, 59, 0
1, 62031, Note_on_c, 1, 55, 127
1, 62036, Note_on_c, 1, 60, 127
1, 62048, Note_on_c, 1, 64, 127
1, 62072, Note_off_c, 1, 55, 0
1, 62088, Note_off_c, 1, 60, 0
1, 62100, Note_off_c, 1, 64, 0
1, 62104, Note_on_c, 1, 66, 127
1, 62150, Note_off_c, 1, 66, 0
1, 62167, Note_on_c, 1, 67, 127
1, 62215, Note_off_c, 1, 67, 0
1, 62224, Note_on_c, 1, 71, 127
1, 62267, Note_on_c, 1, 76, 127
1, 62268, Note_on_c, 1, 60, 127
1, 62270, Note_off_c, 1, 71, 0
1, 62270, Note_on_c, 1, 55, 127
1, 62277, Note_on_c, 1, 69, 127
1, 62312, Note_off_c, 1, 60, 0
1, 62321, Note_off_c, 1, 55, 0
1, 62321, Note_off_c, 1, 69, 0
1, 62388, Note_on_c, 1, 57, 127
1, 62389, Note_on_c, 1, 72, 127
1, 62390, Note_on_c, 1, 54, 127
1, 62434, Note_off_c, 1, 57, 0
1, 62435, Note_off_c, 1, 76, 0
1, 62437, Note_off_c, 1, 72, 0
1, 62446, Note_on_c, 1, 79, 127
1, 62503, Note_off_c, 1, 54, 0
1, 62505, Note_on_c, 1, 78, 127
1, 62508, Note_off_c, 1, 79, 0
1, 62508, Note_on_c, 1, 62, 127
1, 62544, Note_off_c, 1, 62, 0
1, 62560, Note_off_c, 1, 78, 0
1, 62563, Note_on_c, 1, 67, 127
1, 62615, Note_off_c, 1, 67, 0
1, 62621, Note_on_c, 1, 74, 127
1, 62624, Note_on_c, 1, 59, 127
1, 62631, Note_on_c, 1, 50, 127
1, 62632, Note_on_c, 1, 66, 127
1, 62666, Note_off_c, 1, 59, 0
1, 62672, Note_off_c, 1, 50, 0
1, 62684, Note_off_c, 1, 74, 0
1, 62743, Note_off_c, 1, 66, 0
1, 62861, Note_on_c, 1, 52, 127
1, 62908, Note_off_c, 1, 52, 0
1, 63094, Note_on_c, 1, 72, 127
1, 63097, Note_on_c, 1, 69, 127
1, 63101, Note_on_c, 1, 45, 127
1, 63104, Note_on_c, 1, 60, 127
1, 63144, Note_off_c, 1, 69, 0
1, 63151, Note_on_c, 1, 67, 127
1, 63153, Note_off_c, 1, 45, 0
1, 63153, Note_on_c, 1, 76, 127
1, 63166, Note_off_c, 1, 72, 0
1, 63192, Note_off_c, 1, 67, 0
1, 63207, Note_on_c, 1, 66, 127
1, 63209, Note_on_c, 1, 74, 127
1, 63216, Note_off_c, 1, 76, 0
1, 63220, Note_on_c, 1, 55, 127
1, 63246, Note_off_c, 1, 66, 0
1, 63255, Note_off_c, 1, 55, 0
1, 63262, Note_on_c, 1, 64, 127
1, 63282, Note_off_c, 1, 74, 0
1, 63302, Note_off_c, 1, 64, 0
1, 63336, Note_on_c, 1, 62, 127
1, 63336, Note_on_c, 1, 54, 127
1, 63338, Note_on_c, 1, 81, 127
1, 63354, Note_off_c, 1, 60, 0
1, 63389, Note_on_c, 1, 57, 127
1, 63411, Note_off_c, 1, 81, 0
1, 63433, Note_off_c, 1, 54, 0
1, 63448, Note_off_c, 1, 57, 0
1, 63450, Note_on_c, 1, 59, 127
1, 63516, Note_off_c, 1, 59, 0
1, 63546, Note_off_c, 1, 62, 0
1, 63591, Note_on_c, 1, 79, 127
1, 63644, Note_on_c, 1, 71, 127
1, 63687, Note_off_c, 1, 71, 0
1, 63750, Note_off_c, 1, 79, 0
1, 63820, Note_on_c, 1, 57, 127
1, 63825, Note_on_c, 1, 69, 127
1, 63826, Note_on_c, 1, 79, 127
1, 63830, Note_on_c, 1, 72, 127
1, 63873, Note_off_c, 1, 57, 0
1, 63875, Note_off_c, 1, 69, 0
1, 63880, Note_on_c, 1, 60, 127
1, 63881, Note_on_c, 1, 78, 127
1, 63893, Note_off_c, 1, 79, 0
1, 63933, Note_off_c, 1, 60, 0
1, 63938, Note_off_c, 1, 78, 0
1, 63945, Note_on_c, 1, 59, 127
1, 63960, Note_off_c, 1, 72, 0
1, 63994, Note_off_c, 1, 59, 0
1, 63998, Note_on_c, 1, 76, 127
1, 64046, Note_off_c, 1, 76, 0
1, 64059, Note_on_c, 1, 78, 127
1, 64064, Note_on_c, 1, 72, 127
1, 64070, Note_on_c, 1, 62, 127
1, 64118, Note_on_c, 1, 76, 127
1, 64123, Note_off_c, 1, 72, 0
1, 64125, Note_on_c, 1, 60, 127
1, 64126, Note_off_c, 1, 62, 0
1, 64163, Note_off_c, 1, 76, 0
1, 64173, Note_off_c, 1, 60, 0
1, 64179, Note_on_c, 1, 74, 127
1, 64187, Note_on_c, 1, 59, 127
1, 64214, Note_off_c, 1, 74, 0
1, 64220, Note_off_c, 1, 78, 0
1, 64233, Note_off_c, 1, 59, 0
1, 64243, Note_on_c, 1, 57, 127
1, 64287, Note_off_c, 1, 57, 0
1, 64303, Note_on_c, 1, 55, 127
1, 64307, Note_on_c, 1, 71, 127
1, 64352, Note_off_c, 1, 55, 0
1, 64358, Note_on_c, 1, 67, 127
1, 64402, Note_off_c, 1, 67, 0
1, 64411, Note_on_c, 1, 66, 127
1, 64462, Note_off_c, 1, 66, 0
1, 64536, Note_on_c, 1, 64, 127
1, 64568, Note_off_c, 1, 71, 0
1, 64587, Note_off_c, 1, 64, 0
1, 64663, Note_on_c, 1, 69, 127
1, 64784, Note_on_c, 1, 54, 127
1, 64840, Note_off_c, 1, 54, 0
1, 64925, Note_off_c, 1, 69, 0
1, 65025, Note_on_c, 1, 69, 127
1, 65028, Note_on_c, 1, 74, 127
1, 65028, Note_on_c, 1, 59, 127
1, 65032, Note_on_c, 1, 66, 127
1, 65074, Note_off_c, 1, 66, 0
1, 65079, Note_off_c, 1, 69, 0
1, 65082, Note_on_c, 1, 72, 127
1, 65083, Note_on_c, 1, 57, 127
1, 65091, Note_off_c, 1, 59, 0
1, 65120, Note_off_c, 1, 72, 0
1, 65138, Note_on_c, 1, 71, 127
1, 65146, Note_off_c, 1, 57, 0
1, 65146, Note_on_c, 1, 55, 127
1, 65170, Note_off_c, 1, 74, 0
1, 65207, Note_on_c, 1, 54, 127
1, 65220, Note_off_c, 1, 55, 0
1, 65255, Note_off_c, 1, 54, 0
1, 65265, Note_on_c, 1, 67, 127
1, 65267, Note_on_c, 1, 52, 127
1, 65306, Note_off_c, 1, 71, 0
1, 65310, Note_off_c, 1, 52, 0
1, 65340, Note_on_c, 1, 64, 127
1, 65383, Note_off_c, 1, 64, 0
1, 65389, Note_on_c, 1, 62, 127
1, 65449, Note_off_c, 1, 62, 0
1, 65512, Note_on_c, 1, 60, 127
1, 65539, Note_off_c, 1, 67, 0
1, 65554, Note_off_c, 1, 60, 0
1, 65745, Note_on_c, 1, 50, 127
1, 65807, Note_on_c, 1, 76, 127
1, 65821, Note_off_c, 1, 50, 0
1, 65859, Note_off_c, 1, 76, 0
1, 65860, Note_on_c, 1, 66, 127
1, 65865, Note_on_c, 1, 62, 127
1, 65866, Note_on_c, 1, 74, 127
1, 65871, Note_on_c, 1, 69, 127
1, 65910, Note_off_c, 1, 66, 0
1, 65915, Note_off_c, 1, 62, 0
1, 65917, Note_off_c, 1, 69, 0
1, 65920, Note_on_c, 1, 64, 127
1, 65922, Note_on_c, 1, 72, 127
1, 65925, Note_off_c, 1, 74, 0
1, 65983, Note_off_c, 1, 64, 0
1, 65983, Note_on_c, 1, 71, 127
1, 65985, Note_off_c, 1, 72, 0
1, 66032, Note_on_c, 1, 60, 127
1, 66038, Note_off_c, 1, 71, 0
1, 66077, Note_off_c, 1, 60, 0
1, 66095, Note_on_c, 1, 59, 127
1, 66102, Note_on_c, 1, 67, 127
1, 66111, Note_on_c, 1, 62, 127
1, 66148, Note_off_c, 1, 59, 0
1, 66155, Note_off_c, 1, 62, 0
1, 66157, Note_on_c, 1, 66, 127
1, 66158, Note_on_c, 1, 57, 127
1, 66161, Note_off_c, 1, 67, 0
1, 66189, Note_off_c, 1, 57, 0
1, 66224, Note_off_c, 1, 66, 0
1, 66284, Note_on_c, 1, 71, 127
1, 66340, Note_off_c, 1, 71, 0
1, 66346, Note_on_c, 1, 76, 127
1, 66351, Note_on_c, 1, 64, 127
1, 66352, Note_on_c, 1, 60, 127
1, 66397, Note_off_c, 1, 64, 0
1, 66397, Note_on_c, 1, 74, 127
1, 66399, Note_off_c, 1, 60, 0
1, 66413, Note_off_c, 1, 76, 0
1, 66459, Note_off_c, 1, 74, 0
1, 66464, Note_on_c, 1, 72, 127
1, 66468, Note_on_c, 1, 67, 127
1, 66468, Note_on_c, 1, 64, 127
1, 66510, Note_off_c, 1, 67, 0
1, 66510, Note_off_c, 1, 64, 0
1, 66514, Note_on_c, 1, 71, 127
1, 66517, Note_off_c, 1, 72, 0
1, 66579, Note_off_c, 1, 71, 0
1, 66580, Note_on_c, 1, 69, 127
1, 66588, Note_on_c, 1, 60, 127
1, 66589, Note_on_c, 1, 64, 127
1, 66628, Note_off_c, 1, 60, 0
1, 66636, Note_on_c, 1, 71, 127
1, 66637, Note_on_c, 1, 67, 127
1, 66638, Note_off_c, 1, 64, 0
1, 66657, Note_off_c, 1, 69, 0
1, 66680, Note_off_c, 1, 71, 0
1, 66684, Note_off_c, 1, 67, 0
1, 66702, Note_on_c, 1, 72, 127
1, 66708, Note_on_c, 1, 78, 127
1, 66708, Note_on_c, 1, 57, 127
1, 66711, Note_on_c, 1, 69, 127
1, 66744, Note_off_c, 1, 72, 0
1, 66760, Note_off_c, 1, 57, 0
1, 66764, Note_on_c, 1, 76, 127
1, 66765, Note_off_c, 1, 78, 0
1, 66768, Note_on_c, 1, 67, 127
1, 66808, Note_off_c, 1, 69, 0
1, 66821, Note_on_c, 1, 62, 127
1, 66822, Note_on_c, 1, 71, 127
1, 66823, Note_off_c, 1, 67, 0
1, 66827, Note_on_c, 1, 66, 127
1, 66829, Note_off_c, 1, 76, 0
1, 66829, Note_on_c, 1, 74, 127
1, 66869, Note_off_c, 1, 62, 0
1, 66870, Note_off_c, 1, 71, 0
1, 66879, Note_off_c, 1, 74, 0
1, 66883, Note_on_c, 1, 64, 127
1, 66885, Note_off_c, 1, 66, 0
1, 66936, Note_off_c, 1, 64, 0
1, 66946, Note_on_c, 1, 50, 127
1, 66995, Note_off_c, 1, 50, 0
1, 66997, Note_on_c, 1, 60, 127
1, 67055, Note_off_c, 1, 60, 0
1, 67058, Note_on_c, 1, 59, 127
1, 67115, Note_off_c, 1, 59, 0
1, 67180, Note_on_c, 1, 79, 127
1, 67184, Note_on_c, 1, 55, 127
1, 67184, Note_on_c, 1, 59, 127
1, 67189, Note_on_c, 1, 74, 127
1, 67228, Note_off_c, 1, 59, 0
1, 67232, Note_off_c, 1, 55, 0
1, 67240, Note_off_c, 1, 74, 0
1, 67245, Note_on_c, 1, 72, 127
1, 67299, Note_off_c, 1, 72, 0
1, 67304, Note_on_c, 1, 71, 127
1, 67306, Note_on_c, 1, 62, 127
1, 67322, Note_off_c, 1, 79, 0
1, 67344, Note_off_c, 1, 71, 0
1, 67347, Note_off_c, 1, 62, 0
1, 67356, Note_on_c, 1, 81, 127
1, 67356, Note_on_c, 1, 72, 127
1, 67382, Note_off_c, 1, 72, 0
1, 67390, Note_off_c, 1, 81, 0
1, 67416, Note_on_c, 1, 71, 127
1, 67418, Note_on_c, 1, 62, 127
1, 67424, Note_on_c, 1, 79, 127
1, 67448, Note_on_c, 1, 78, 127
1, 67452, Note_off_c, 1, 71, 0
1, 67454, Note_on_c, 1, 69, 127
1, 67463, Note_off_c, 1, 79, 0
1, 67473, Note_off_c, 1, 62, 0
1, 67480, Note_off_c, 1, 69, 0
1, 67484, Note_off_c, 1, 78, 0
1, 67539, Note_on_c, 1, 50, 127
1, 67592, Note_off_c, 1, 50, 0
1, 67601, Note_on_c, 1, 79, 127
1, 67610, Note_on_c, 1, 71, 127
1, 67639, Note_off_c, 1, 71, 0
1, 67645, Note_off_c, 1, 79, 0
1, 67670, Note_on_c, 1, 79, 127
1, 67670, Note_on_c, 1, 62, 127
1, 67671, Note_on_c, 1, 43, 127
1, 67673, Note_on_c, 1, 71, 127
1, 67722, Note_on_c, 1, 59, 127
1, 67771, Note_off_c, 1, 59, 0
1, 67782, Note_on_c, 1, 57, 127
1, 67784, Note_on_c, 1, 74, 127
1, 67816, Note_off_c, 1, 43, 0
1, 67821, Note_off_c, 1, 74, 0
1, 67837, Note_off_c, 1, 57, 0
1, 67845, Note_on_c, 1, 55, 127
1, 67887, Note_off_c, 1, 55, 0
1, 67912, Note_on_c, 1, 54, 127
1, 67923, Note_off_c, 1, 71, 0
1, 67927, Note_off_c, 1, 79, 0
1, 67940, Note_off_c, 1, 62, 0
1, 67960, Note_off_c, 1, 54, 0
1, 67969, Note_on_c, 1, 52, 127
1, 68009, Note_off_c, 1, 52, 0
1, 68026, Note_on_c, 1, 54, 127
1, 68032, Note_on_c, 1, 74, 127
1, 68071, Note_off_c, 1, 74, 0
1, 68073, Note_off_c, 1, 54, 0
1, 68084, Note_on_c, 1, 50, 127
1, 68125, Note_off_c, 1, 50, 0
1, 68143, Note_on_c, 1, 71, 127
1, 68151, Note_on_c, 1, 52, 127
1, 68207, Note_off_c, 1, 52, 0
1, 68210, Note_on_c, 1, 54, 127
1, 68258, Note_off_c, 1, 54, 0
1, 68260, Note_off_c, 1, 71, 0
1, 68268, Note_on_c, 1, 52, 127
1, 68276, Note_on_c, 1, 72, 127
1, 68319, Note_off_c, 1, 72, 0
1, 68321, Note_off_c, 1, 52, 0
1, 68325, Note_on_c, 1, 50, 127
1, 68328, Note_on_c, 1, 74, 127
1, 68367, Note_off_c, 1, 74, 0
1, 68383, Note_off_c, 1, 50, 0
1, 68389, Note_on_c, 1, 76, 127
1, 68389, Note_on_c, 1, 48, 127
1, 68390, Note_on_c, 1, 79, 127
1, 68425, Note_off_c, 1, 76, 0
1, 68428, Note_off_c, 1, 48, 0
1, 68446, Note_on_c, 1, 47, 127
1, 68495, Note_off_c, 1, 47, 0
1, 68511, Note_on_c, 1, 72, 127
1, 68546, Note_off_c, 1, 72, 0
1, 68566, Note_on_c, 1, 45, 127
1, 68615, Note_off_c, 1, 45, 0
1, 68627, Note_on_c, 1, 50, 127
1, 68634, Note_on_c, 1, 69, 127
1, 68673, Note_off_c, 1, 69, 0
1, 68681, Note_off_c, 1, 50, 0
1, 68751, Note_on_c, 1, 74, 127
1, 68788, Note_off_c, 1, 74, 0
1, 68813, Note_on_c, 1, 52, 127
1, 68865, Note_on_c, 1, 62, 127
1, 68870, Note_off_c, 1, 52, 0
1, 68873, Note_on_c, 1, 78, 127
1, 68880, Note_off_c, 1, 79, 0
1, 68918, Note_off_c, 1, 62, 0
1, 69112, Note_off_c, 1, 78, 0
1, 69114, Note_on_c, 1, 43, 127
1, 69116, Note_on_c, 1, 71, 127
1, 69119, Note_on_c, 1, 79, 127
1, 69173, Note_off_c, 1, 43, 0
1, 69176, Note_on_c, 1, 45, 127
1, 69224, Note_off_c, 1, 79, 0
1, 69233, Note_on_c, 1, 74, 127
1, 69238, Note_on_c, 1, 47, 127
1, 69244, Note_off_c, 1, 45, 0
1, 69269, Note_off_c, 1, 74, 0
1, 69285, Note_off_c, 1, 47, 0
1, 69295, Note_on_c, 1, 48, 127
1, 69351, Note_off_c, 1, 48, 0
1, 69356, Note_off_c, 1, 71, 0
1, 69357, Note_on_c, 1, 50, 127
1, 69409, Note_off_c, 1, 50, 0
1, 69416, Note_on_c, 1, 52, 127
1, 69465, Note_off_c, 1, 52, 0
1, 69472, Note_on_c, 1, 74, 127
1, 69476, Note_on_c, 1, 54, 127
1, 69517, Note_off_c, 1, 74, 0
1, 69519, Note_off_c, 1, 54, 0
1, 69524, Note_on_c, 1, 50, 127
1, 69570, Note_off_c, 1, 50, 0
1, 69585, Note_on_c, 1, 71, 127
1, 69587, Note_on_c, 1, 55, 127
1, 69636, Note_off_c, 1, 55, 0
1, 69645, Note_on_c, 1, 54, 127
1, 69697, Note_off_c, 1, 54, 0
1, 69705, Note_on_c, 1, 52, 127
1, 69717, Note_off_c, 1, 71, 0
1, 69717, Note_on_c, 1, 72, 127
1, 69752, Note_off_c, 1, 52, 0
1, 69759, Note_on_c, 1, 50, 127
1, 69769, Note_on_c, 1, 74, 127
1, 69775, Note_off_c, 1, 72, 0
1, 69799, Note_off_c, 1, 50, 0
1, 69821, Note_on_c, 1, 48, 127
1, 69825, Note_off_c, 1, 74, 0
1, 69828, Note_on_c, 1, 76, 127
1, 69829, Note_on_c, 1, 79, 127
1, 69874, Note_off_c, 1, 48, 0
1, 69878, Note_off_c, 1, 76, 0
1, 70070, Note_on_c, 1, 69, 127
1, 70124, Note_off_c, 1, 69, 0
1, 70302, Note_off_c, 1, 79, 0
1, 70304, Note_on_c, 1, 50, 127
1, 70310, Note_on_c, 1, 62, 127
1, 70319, Note_on_c, 1, 78, 127
1, 70357, Note_off_c, 1, 50, 0
1, 70359, Note_on_c, 1, 48, 127
1, 70365, Note_off_c, 1, 62, 0
1, 70413, Note_off_c, 1, 48, 0
1, 70422, Note_on_c, 1, 47, 127
1, 70438, Note_on_c, 1, 72, 127
1, 70462, Note_off_c, 1, 47, 0
1, 70483, Note_on_c, 1, 45, 127
1, 70487, Note_off_c, 1, 72, 0
1, 70503, Note_off_c, 1, 78, 0
1, 70523, Note_off_c, 1, 45, 0
1, 70555, Note_on_c, 1, 79, 127
1, 70556, Note_on_c, 1, 43, 127
1, 70564, Note_on_c, 1, 71, 127
1, 70602, Note_off_c, 1, 79, 0
1, 70613, Note_on_c, 1, 83, 127
1, 70623, Note_off_c, 1, 43, 0
1, 70657, Note_off_c, 1, 83, 0
1, 70667, Note_on_c, 1, 81, 127
1, 70674, Note_on_c, 1, 59, 127
1, 70711, Note_off_c, 1, 59, 0
1, 70716, Note_off_c, 1, 81, 0
1, 70779, Note_on_c, 1, 78, 127
1, 70791, Note_off_c, 1, 71, 0
1, 70834, Note_on_c, 1, 76, 127
1, 70835, Note_off_c, 1, 78, 0
1, 70883, Note_off_c, 1, 76, 0
1, 70893, Note_on_c, 1, 78, 127
1, 70910, Note_on_c, 1, 59, 127
1, 70944, Note_off_c, 1, 78, 0
1, 70947, Note_on_c, 1, 74, 127
1, 70950, Note_off_c, 1, 59, 0
1, 71000, Note_off_c, 1, 74, 0
1, 71016, Note_on_c, 1, 76, 127
1, 71029, Note_on_c, 1, 55, 127
1, 71083, Note_on_c, 1, 84, 127
1, 71135, Note_off_c, 1, 55, 0
1, 71144, Note_on_c, 1, 83, 127
1, 71149, Note_off_c, 1, 84, 0
1, 71152, Note_on_c, 1, 57, 127
1, 71196, Note_off_c, 1, 57, 0
1, 71202, Note_on_c, 1, 81, 127
1, 71206, Note_on_c, 1, 59, 127
1, 71212, Note_off_c, 1, 83, 0
1, 71250, Note_off_c, 1, 59, 0
1, 71257, Note_off_c, 1, 81, 0
1, 71264, Note_on_c, 1, 79, 127
1, 71265, Note_on_c, 1, 60, 127
1, 71303, Note_off_c, 1, 60, 0
1, 71312, Note_on_c, 1, 78, 127
1, 71315, Note_off_c, 1, 79, 0
1, 71376, Note_off_c, 1, 78, 0
1, 71506, Note_on_c, 1, 54, 127
1, 71554, Note_off_c, 1, 54, 0
1, 71724, Note_off_c, 1, 76, 0
1, 71746, Note_on_c, 1, 75, 127
1, 71746, Note_on_c, 1, 47, 127
1, 71750, Note_on_c, 1, 78, 127
1, 71804, Note_off_c, 1, 47, 0
1, 71812, Note_off_c, 1, 78, 0
1, 71814, Note_on_c, 1, 76, 127
1, 71858, Note_off_c, 1, 76, 0
1, 71874, Note_on_c, 1, 57, 127
1, 71907, Note_off_c, 1, 57, 0
1, 71932, Note_on_c, 1, 71, 127
1, 71940, Note_off_c, 1, 75, 0
1, 71982, Note_off_c, 1, 71, 0
1, 71984, Note_on_c, 1, 76, 127
1, 71992, Note_on_c, 1, 55, 127
1, 71996, Note_on_c, 1, 83, 127
1, 72051, Note_on_c, 1, 54, 127
1, 72054, Note_off_c, 1, 55, 0
1, 72057, Note_on_c, 1, 81, 127
1, 72064, Note_off_c, 1, 83, 0
1, 72068, Note_off_c, 1, 76, 0
1, 72100, Note_off_c, 1, 54, 0
1, 72104, Note_on_c, 1, 52, 127
1, 72107, Note_off_c, 1, 81, 0
1, 72107, Note_on_c, 1, 71, 127
1, 72111, Note_on_c, 1, 79, 127
1, 72152, Note_off_c, 1, 71, 0
1, 72155, Note_on_c, 1, 75, 127
1, 72161, Note_off_c, 1, 52, 0
1, 72168, Note_on_c, 1, 78, 127
1, 72170, Note_off_c, 1, 79, 0
1, 72204, Note_off_c, 1, 75, 0
1, 72226, Note_off_c, 1, 78, 0
1, 72285, Note_on_c, 1, 57, 127
1, 72337, Note_off_c, 1, 57, 0
1, 72346, Note_on_c, 1, 59, 127
1, 72388, Note_off_c, 1, 59, 0
1, 72462, Note_on_c, 1, 67, 127
1, 72465, Note_on_c, 1, 60, 127
1, 72473, Note_on_c, 1, 64, 127
1, 72521, Note_off_c, 1, 60, 0
1, 72527, Note_on_c, 1, 62, 127
1, 72582, Note_off_c, 1, 62, 0
1, 72583, Note_off_c, 1, 67, 0
1, 72589, Note_on_c, 1, 69, 127
1, 72598, Note_off_c, 1, 64, 0
1, 72608, Note_on_c, 1, 66, 127
1, 72642, Note_off_c, 1, 69, 0
1, 72656, Note_off_c, 1, 66, 0
1, 72704, Note_on_c, 1, 72, 127
1, 72752, Note_off_c, 1, 72, 0
1, 73182, Note_on_c, 1, 59, 127
1, 73188, Note_on_c, 1, 67, 127
1, 73201, Note_on_c, 1, 76, 127
1, 73232, Note_on_c, 1, 75, 127
1, 73236, Note_off_c, 1, 76, 0
1, 73244, Note_on_c, 1, 57, 127
1, 73247, Note_off_c, 1, 59, 0
1, 73260, Note_off_c, 1, 75, 0
1, 73272, Note_off_c, 1, 67, 0
1, 73299, Note_off_c, 1, 57, 0
1, 73305, Note_on_c, 1, 55, 127
1, 73309, Note_on_c, 1, 66, 127
1, 73312, Note_on_c, 1, 69, 127
1, 73315, Note_on_c, 1, 71, 127
1, 73352, Note_off_c, 1, 71, 0
1, 73353, Note_off_c, 1, 69, 0
1, 73363, Note_on_c, 1, 54, 127
1, 73368, Note_off_c, 1, 55, 0
1, 73398, Note_off_c, 1, 66, 0
1, 73417, Note_off_c, 1, 54, 0
1, 73425, Note_on_c, 1, 55, 127
1, 73430, Note_on_c, 1, 76, 127
1, 73434, Note_on_c, 1, 64, 127
1, 73438, Note_on_c, 1, 71, 127
1, 73441, Note_on_c, 1, 67, 127
1, 73483, Note_on_c, 1, 54, 127
1, 73488, Note_off_c, 1, 55, 0
1, 73530, Note_off_c, 1, 54, 0
1, 73544, Note_off_c, 1, 76, 0
1, 73607, Note_on_c, 1, 57, 127
1, 73659, Note_off_c, 1, 57, 0
1, 73674, Note_off_c, 1, 67, 0
1, 73688, Note_off_c, 1, 71, 0
1, 73692, Note_off_c, 1, 64, 0
1, 73789, Note_on_c, 1, 78, 127
1, 73789, Note_on_c, 1, 52, 127
1, 73844, Note_off_c, 1, 52, 0
1, 73845, Note_on_c, 1, 51, 127
1, 73897, Note_off_c, 1, 78, 0
1, 73902, Note_off_c, 1, 51, 0
1, 73906, Note_on_c, 1, 79, 127
1, 73910, Note_on_c, 1, 52, 127
1, 73952, Note_off_c, 1, 52, 0
1, 73966, Note_on_c, 1, 51, 127
1, 74017, Note_off_c, 1, 51, 0
1, 74044, Note_on_c, 1, 71, 127
1, 74084, Note_on_c, 1, 54, 127
1, 74126, Note_off_c, 1, 54, 0
1, 74141, Note_on_c, 1, 55, 127
1, 74147, Note_off_c, 1, 71, 0
1, 74163, Note_on_c, 1, 76, 127
1, 74204, Note_off_c, 1, 55, 0
1, 74204, Note_on_c, 1, 57, 127
1, 74256, Note_off_c, 1, 57, 0
1, 74270, Note_on_c, 1, 59, 127
1, 74283, Note_off_c, 1, 76, 0
1, 74283, Note_on_c, 1, 74, 127
1, 74328, Note_off_c, 1, 59, 0
1, 74379, Note_off_c, 1, 74, 0
1, 74401, Note_on_c, 1, 72, 127
1, 74483, Note_off_c, 1, 79, 0
1, 74508, Note_on_c, 1, 69, 127
1, 74619, Note_off_c, 1, 69, 0
1, 74864, Note_on_c, 1, 50, 127
1, 74879, Note_on_c, 1, 78, 127
1, 74886, Note_off_c, 1, 72, 0
1, 74923, Note_on_c, 1, 48, 127
1, 74930, Note_off_c, 1, 50, 0
1, 74971, Note_off_c, 1, 48, 0
1, 74987, Note_on_c, 1, 62, 127
1, 75106, Note_off_c, 1, 62, 0
1, 75443, Note_off_c, 1, 78, 0
1, 75476, Note_on_c, 1, 83, 127
1, 75524, Note_off_c, 1, 83, 0
1, 75834, Note_on_c, 1, 48, 127
1, 75840, Note_on_c, 1, 76, 127
1, 75879, Note_off_c, 1, 48, 0
1, 75885, Note_on_c, 1, 50, 127
1, 75950, Note_on_c, 1, 78, 127
1, 75956, Note_off_c, 1, 50, 0
1, 75960, Note_off_c, 1, 76, 0
1, 76000, Note_on_c, 1, 47, 127
1, 76009, Note_on_c, 1, 79, 127
1, 76015, Note_off_c, 1, 78, 0
1, 76051, Note_off_c, 1, 79, 0
1, 76059, Note_on_c, 1, 45, 127
1, 76068, Note_off_c, 1, 47, 0
1, 76074, Note_on_c, 1, 81, 127
1, 76113, Note_off_c, 1, 45, 0
1, 76115, Note_on_c, 1, 43, 127
1, 76176, Note_off_c, 1, 43, 0
1, 76180, Note_on_c, 1, 42, 127
1, 76236, Note_off_c, 1, 42, 0
1, 76242, Note_on_c, 1, 40, 127
1, 76305, Note_off_c, 1, 40, 0
1, 76311, Note_on_c, 1, 39, 127
1, 76316, Note_on_c, 1, 71, 127
1, 76368, Note_on_c, 1, 72, 127
1, 76376, Note_off_c, 1, 39, 0
1, 76399, Note_off_c, 1, 81, 0
1, 76418, Note_off_c, 1, 72, 0
1, 76440, Note_on_c, 1, 73, 127
1, 76475, Note_off_c, 1, 71, 0
1, 76481, Note_on_c, 1, 69, 127
1, 76485, Note_on_c, 1, 75, 127
1, 76493, Note_off_c, 1, 73, 0
1, 76530, Note_off_c, 1, 75, 0
1, 76537, Note_off_c, 1, 69, 0
1, 76539, Note_on_c, 1, 67, 127
1, 76547, Note_on_c, 1, 76, 127
1, 76548, Note_on_c, 1, 79, 127
1, 76550, Note_on_c, 1, 48, 127
1, 76594, Note_off_c, 1, 79, 0
1, 76597, Note_on_c, 1, 66, 127
1, 76599, Note_off_c, 1, 48, 0
1, 76608, Note_off_c, 1, 67, 0
1, 76656, Note_off_c, 1, 66, 0
1, 76669, Note_on_c, 1, 47, 127
1, 76673, Note_on_c, 1, 84, 127
1, 76716, Note_on_c, 1, 64, 127
1, 76718, Note_off_c, 1, 47, 0
1, 76719, Note_off_c, 1, 84, 0
1, 76768, Note_off_c, 1, 64, 0
1, 76779, Note_on_c, 1, 72, 127
1, 76788, Note_on_c, 1, 45, 127
1, 76800, Note_on_c, 1, 78, 127
1, 76834, Note_off_c, 1, 45, 0
1, 76839, Note_on_c, 1, 71, 127
1, 76845, Note_off_c, 1, 72, 0
1, 76892, Note_off_c, 1, 71, 0
1, 76896, Note_on_c, 1, 69, 127
1, 76898, Note_off_c, 1, 76, 0
1, 76907, Note_on_c, 1, 42, 127
1, 76910, Note_on_c, 1, 74, 127
1, 76948, Note_off_c, 1, 69, 0
1, 76960, Note_off_c, 1, 42, 0
1, 76961, Note_off_c, 1, 74, 0
1, 77051, Note_off_c, 1, 78, 0
1, 77139, Note_on_c, 1, 80, 127
1, 77191, Note_on_c, 1, 81, 127
1, 77202, Note_off_c, 1, 80, 0
1, 77249, Note_off_c, 1, 81, 0
1, 77259, Note_on_c, 1, 83, 127
1, 77270, Note_on_c, 1, 44, 127
1, 77317, Note_off_c, 1, 83, 0
1, 77319, Note_off_c, 1, 44, 0
1, 77384, Note_on_c, 1, 52, 127
1, 77428, Note_off_c, 1, 52, 0
1, 77508, Note_on_c, 1, 57, 127
1, 77554, Note_off_c, 1, 57, 0
1, 77635, Note_on_c, 1, 55, 127
1, 77678, Note_off_c, 1, 55, 0
1, 77751, Note_on_c, 1, 54, 127
1, 77847, Note_off_c, 1, 54, 0
1, 77877, Note_on_c, 1, 62, 127
1, 77934, Note_on_c, 1, 60, 127
1, 77936, Note_off_c, 1, 62, 0
1, 77966, Note_off_c, 1, 60, 0
1, 77983, Note_on_c, 1, 68, 127
1, 77990, Note_on_c, 1, 59, 127
1, 78027, Note_off_c, 1, 59, 0
1, 78038, Note_off_c, 1, 68, 0
1, 78237, Note_on_c, 1, 56, 127
1, 78289, Note_on_c, 1, 77, 127
1, 78291, Note_off_c, 1, 56, 0
1, 78364, Note_off_c, 1, 77, 0
1, 78711, Note_on_c, 1, 65, 127
1, 78769, Note_off_c, 1, 65, 0
1, 79072, Note_on_c, 1, 53, 127
1, 79121, Note_off_c, 1, 53, 0
1, 79184, Note_on_c, 1, 50, 127
1, 79233, Note_off_c, 1, 50, 0
1, 79414, Note_on_c, 1, 80, 127
1, 79418, Note_on_c, 1, 71, 127
1, 79423, Note_on_c, 1, 52, 127
1, 79424, Note_on_c, 1, 64, 127
1, 79467, Note_off_c, 1, 71, 0
1, 79469, Note_off_c, 1, 52, 0
1, 79469, Note_on_c, 1, 69, 127
1, 79478, Note_off_c, 1, 64, 0
1, 79526, Note_off_c, 1, 69, 0
1, 79538, Note_on_c, 1, 40, 127
1, 79541, Note_on_c, 1, 74, 127
1, 79579, Note_off_c, 1, 74, 0
1, 79582, Note_off_c, 1, 40, 0
1, 79644, Note_off_c, 1, 80, 0
1, 79658, Note_on_c, 1, 45, 127
1, 79662, Note_on_c, 1, 72, 127
1, 79677, Note_on_c, 1, 81, 127
1, 79751, Note_off_c, 1, 45, 0
1, 79789, Note_on_c, 1, 76, 127
1, 79836, Note_off_c, 1, 76, 0
1, 79849, Note_on_c, 1, 62, 127
1, 79889, Note_off_c, 1, 62, 0
1, 79906, Note_on_c, 1, 60, 127
1, 79951, Note_off_c, 1, 60, 0
1, 79961, Note_on_c, 1, 59, 127
1, 80014, Note_off_c, 1, 59, 0
1, 80077, Note_on_c, 1, 57, 127
1, 80127, Note_off_c, 1, 57, 0
1, 80155, Note_on_c, 1, 78, 127
1, 80189, Note_off_c, 1, 81, 0
1, 80217, Note_on_c, 1, 82, 127
1, 80253, Note_off_c, 1, 78, 0
1, 80265, Note_on_c, 1, 50, 127
1, 80287, Note_off_c, 1, 82, 0
1, 80335, Note_on_c, 1, 79, 127
1, 80342, Note_off_c, 1, 50, 0
1, 80385, Note_off_c, 1, 79, 0
1, 80399, Note_off_c, 1, 72, 0
1, 80450, Note_on_c, 1, 76, 127
1, 80504, Note_off_c, 1, 76, 0
1, 80506, Note_on_c, 1, 78, 127
1, 80510, Note_on_c, 1, 58, 127
1, 80511, Note_on_c, 1, 74, 127
1, 80552, Note_off_c, 1, 58, 0
1, 80556, Note_off_c, 1, 74, 0
1, 80568, Note_off_c, 1, 78, 0
1, 80628, Note_on_c, 1, 63, 127
1, 80632, Note_on_c, 1, 70, 127
1, 80635, Note_on_c, 1, 79, 127
1, 80669, Note_off_c, 1, 63, 0
1, 80684, Note_on_c, 1, 75, 127
1, 80741, Note_on_c, 1, 74, 127
1, 80749, Note_off_c, 1, 70, 0
1, 80755, Note_on_c, 1, 54, 127
1, 80760, Note_on_c, 1, 72, 127
1, 80761, Note_off_c, 1, 75, 0
1, 80795, Note_off_c, 1, 54, 0
1, 80799, Note_off_c, 1, 74, 0
1, 80846, Note_off_c, 1, 72, 0
1, 80878, Note_on_c, 1, 55, 127
1, 80912, Note_off_c, 1, 55, 0
1, 80917, Note_on_c, 1, 69, 127
1, 80970, Note_off_c, 1, 69, 0
1, 80989, Note_on_c, 1, 51, 127
1, 81021, Note_off_c, 1, 51, 0
1, 81032, Note_on_c, 1, 67, 127
1, 81080, Note_off_c, 1, 67, 0
1, 81105, Note_on_c, 1, 48, 127
1, 81148, Note_off_c, 1, 48, 0
1, 81214, Note_on_c, 1, 45, 127
1, 81259, Note_off_c, 1, 45, 0
1, 81338, Note_on_c, 1, 50, 127
1, 81339, Note_on_c, 1, 62, 127
1, 81343, Note_off_c, 1, 79, 0
1, 81343, Note_on_c, 1, 78, 127
1, 81380, Note_off_c, 1, 50, 0
1, 81395, Note_off_c, 1, 62, 0
1, 81459, Note_on_c, 1, 38, 127
1, 81501, Note_off_c, 1, 38, 0
1, 81575, Note_off_c, 1, 78, 0
1, 81587, Note_on_c, 1, 43, 127
1, 81680, Note_off_c, 1, 43, 0
1, 81765, Note_on_c, 1, 60, 127
1, 81804, Note_off_c, 1, 60, 0
1, 81816, Note_on_c, 1, 58, 127
1, 81859, Note_off_c, 1, 58, 0
1, 81871, Note_on_c, 1, 57, 127
1, 81914, Note_off_c, 1, 57, 0
1, 82069, Note_on_c, 1, 76, 127
1, 82136, Note_on_c, 1, 81, 127
1, 82162, Note_off_c, 1, 76, 0
1, 82201, Note_off_c, 1, 81, 0
1, 82254, Note_on_c, 1, 77, 127
1, 82313, Note_off_c, 1, 77, 0
1, 82429, Note_on_c, 1, 76, 127
1, 82432, Note_on_c, 1, 72, 127
1, 82438, Note_on_c, 1, 57, 127
1, 82476, Note_off_c, 1, 72, 0
1, 82477, Note_off_c, 1, 57, 0
1, 82480, Note_off_c, 1, 76, 0
1, 82487, Note_on_c, 1, 72, 127
1, 82540, Note_off_c, 1, 72, 0
1, 82548, Note_on_c, 1, 69, 127
1, 82553, Note_on_c, 1, 77, 127
1, 82560, Note_on_c, 1, 62, 127
1, 82601, Note_off_c, 1, 62, 0
1, 82611, Note_on_c, 1, 74, 127
1, 82656, Note_off_c, 1, 69, 0
1, 82665, Note_on_c, 1, 72, 127
1, 82671, Note_on_c, 1, 52, 127
1, 82672, Note_on_c, 1, 70, 127
1, 82681, Note_off_c, 1, 74, 0
1, 82721, Note_off_c, 1, 52, 0
1, 82725, Note_off_c, 1, 72, 0
1, 82785, Note_off_c, 1, 70, 0
1, 82791, Note_on_c, 1, 53, 127
1, 82835, Note_on_c, 1, 67, 127
1, 82839, Note_off_c, 1, 53, 0
1, 82903, Note_off_c, 1, 67, 0
1, 82908, Note_on_c, 1, 50, 127
1, 82958, Note_on_c, 1, 65, 127
1, 82966, Note_off_c, 1, 50, 0
1, 83022, Note_off_c, 1, 65, 0
1, 83031, Note_on_c, 1, 46, 127
1, 83086, Note_off_c, 1, 46, 0
1, 83148, Note_on_c, 1, 43, 127
1, 83199, Note_off_c, 1, 43, 0
1, 83264, Note_on_c, 1, 60, 127
1, 83272, Note_on_c, 1, 48, 127
1, 83275, Note_on_c, 1, 76, 127
1, 83276, Note_off_c, 1, 77, 0
1, 83315, Note_off_c, 1, 48, 0
1, 83325, Note_off_c, 1, 60, 0
1, 83393, Note_on_c, 1, 36, 127
1, 83449, Note_off_c, 1, 36, 0
1, 83486, Note_off_c, 1, 76, 0
1, 83503, Note_on_c, 1, 77, 127
1, 83507, Note_on_c, 1, 69, 127
1, 83527, Note_on_c, 1, 41, 127
1, 83562, Note_on_c, 1, 67, 127
1, 83568, Note_on_c, 1, 70, 127
1, 83578, Note_off_c, 1, 69, 0
1, 83588, Note_off_c, 1, 77, 0
1, 83601, Note_off_c, 1, 70, 0
1, 83621, Note_on_c, 1, 65, 127
1, 83635, Note_off_c, 1, 67, 0
1, 83641, Note_off_c, 1, 41, 0
1, 83696, Note_off_c, 1, 65, 0
1, 83790, Note_on_c, 1, 64, 127
1, 83844, Note_off_c, 1, 64, 0
1, 83911, Note_on_c, 1, 71, 127
1, 83914, Note_on_c, 1, 62, 127
1, 83953, Note_off_c, 1, 62, 0
1, 83973, Note_off_c, 1, 71, 0
1, 83981, Note_on_c, 1, 72, 127
1, 83984, Note_on_c, 1, 69, 127
1, 83985, Note_on_c, 1, 76, 127
1, 84046, Note_on_c, 1, 67, 127
1, 84047, Note_off_c, 1, 69, 0
1, 84050, Note_on_c, 1, 58, 127
1, 84094, Note_off_c, 1, 76, 0
1, 84099, Note_off_c, 1, 67, 0
1, 84104, Note_off_c, 1, 58, 0
1, 84108, Note_on_c, 1, 77, 127
1, 84108, Note_on_c, 1, 57, 127
1, 84120, Note_off_c, 1, 72, 0
1, 84153, Note_on_c, 1, 70, 127
1, 84155, Note_off_c, 1, 77, 0
1, 84158, Note_on_c, 1, 79, 127
1, 84161, Note_off_c, 1, 57, 0
1, 84164, Note_on_c, 1, 55, 127
1, 84201, Note_off_c, 1, 79, 0
1, 84204, Note_off_c, 1, 70, 0
1, 84220, Note_on_c, 1, 81, 127
1, 84224, Note_off_c, 1, 55, 0
1, 84224, Note_on_c, 1, 53, 127
1, 84260, Note_off_c, 1, 81, 0
1, 84272, Note_off_c, 1, 53, 0
1, 84282, Note_on_c, 1, 52, 127
1, 84336, Note_off_c, 1, 52, 0
1, 84392, Note_on_c, 1, 50, 127
1, 84449, Note_off_c, 1, 50, 0
1, 84454, Note_on_c, 1, 55, 127
1, 84456, Note_on_c, 1, 74, 127
1, 84459, Note_on_c, 1, 67, 127
1, 84468, Note_on_c, 1, 72, 127
1, 84508, Note_off_c, 1, 67, 0
1, 84511, Note_off_c, 1, 74, 0
1, 84519, Note_off_c, 1, 55, 0
1, 84580, Note_on_c, 1, 43, 127
1, 84581, Note_off_c, 1, 72, 0
1, 84585, Note_on_c, 1, 79, 127
1, 84628, Note_off_c, 1, 79, 0
1, 84629, Note_on_c, 1, 71, 127
1, 84660, Note_on_c, 1, 69, 127
1, 84662, Note_off_c, 1, 43, 0
1, 84708, Note_off_c, 1, 69, 0
1, 84728, Note_off_c, 1, 71, 0
1, 84957, Note_on_c, 1, 64, 127
1, 85057, Note_off_c, 1, 64, 0
1, 85072, Note_on_c, 1, 65, 127
1, 85080, Note_on_c, 1, 60, 127
1, 85117, Note_off_c, 1, 65, 0
1, 85122, Note_off_c, 1, 60, 0
1, 85247, Note_on_c, 1, 76, 127
1, 85304, Note_on_c, 1, 81, 127
1, 85309, Note_off_c, 1, 76, 0
1, 85426, Note_on_c, 1, 77, 127
1, 85436, Note_on_c, 1, 62, 127
1, 85441, Note_on_c, 1, 59, 127
1, 85477, Note_off_c, 1, 81, 0
1, 85487, Note_off_c, 1, 62, 0
1, 85489, Note_off_c, 1, 77, 0
1, 85492, Note_on_c, 1, 84, 127
1, 85550, Note_off_c, 1, 84, 0
1, 85551, Note_on_c, 1, 83, 127
1, 85558, Note_off_c, 1, 59, 0
1, 85607, Note_off_c, 1, 83, 0
1, 85910, Note_on_c, 1, 57, 127
1, 85961, Note_off_c, 1, 57, 0
1, 86144, Note_on_c, 1, 50, 127
1, 86205, Note_off_c, 1, 50, 0
1, 86380, Note_on_c, 1, 59, 127
1, 86385, Note_on_c, 1, 67, 127
1, 86388, Note_on_c, 1, 62, 127
1, 86392, Note_on_c, 1, 77, 127
1, 86441, Note_off_c, 1, 59, 0
1, 86441, Note_off_c, 1, 67, 0
1, 86447, Note_off_c, 1, 62, 0
1, 86453, Note_on_c, 1, 76, 127
1, 86460, Note_off_c, 1, 77, 0
1, 86502, Note_on_c, 1, 55, 127
1, 86509, Note_off_c, 1, 76, 0
1, 86509, Note_on_c, 1, 74, 127
1, 86513, Note_on_c, 1, 71, 127
1, 86548, Note_off_c, 1, 55, 0
1, 86561, Note_off_c, 1, 71, 0
1, 86572, Note_off_c, 1, 74, 0
1, 86621, Note_on_c, 1, 60, 127
1, 86635, Note_on_c, 1, 77, 127
1, 86635, Note_on_c, 1, 72, 127
1, 86639, Note_on_c, 1, 67, 127
1, 86662, Note_on_c, 1, 76, 127
1, 86668, Note_off_c, 1, 60, 0
1, 86669, Note_off_c, 1, 77, 0
1, 86687, Note_off_c, 1, 67, 0
1, 86689, Note_on_c, 1, 74, 127
1, 86696, Note_on_c, 1, 65, 127
1, 86697, Note_off_c, 1, 76, 0
1, 86701, Note_off_c, 1, 72, 0
1, 86734, Note_off_c, 1, 65, 0
1, 86739, Note_on_c, 1, 48, 127
1, 86744, Note_off_c, 1, 74, 0
1, 86800, Note_off_c, 1, 48, 0
1, 86806, Note_on_c, 1, 64, 127
1, 86807, Note_on_c, 1, 72, 127
1, 86808, Note_on_c, 1, 76, 127
1, 86845, Note_off_c, 1, 72, 0
1, 86848, Note_off_c, 1, 76, 0
1, 86854, Note_off_c, 1, 64, 0
1, 86868, Note_on_c, 1, 60, 127
1, 86871, Note_on_c, 1, 69, 127
1, 86871, Note_on_c, 1, 41, 127
1, 86873, Note_on_c, 1, 76, 127
1, 86927, Note_off_c, 1, 76, 0
1, 86966, Note_off_c, 1, 41, 0
1, 86977, Note_off_c, 1, 60, 0
1, 86988, Note_on_c, 1, 71, 127
1, 86993, Note_on_c, 1, 53, 127
1, 86998, Note_on_c, 1, 62, 127
1, 87033, Note_off_c, 1, 53, 0
1, 87043, Note_off_c, 1, 71, 0
1, 87043, Note_on_c, 1, 72, 127
1, 87052, Note_off_c, 1, 62, 0
1, 87054, Note_on_c, 1, 64, 127
1, 87090, Note_off_c, 1, 72, 0
1, 87114, Note_on_c, 1, 74, 127
1, 87116, Note_on_c, 1, 65, 127
1, 87123, Note_off_c, 1, 64, 0
1, 87157, Note_off_c, 1, 69, 0
1, 87162, Note_off_c, 1, 65, 0
1, 87169, Note_on_c, 1, 67, 127
1, 87213, Note_off_c, 1, 67, 0
1, 87260, Note_off_c, 1, 74, 0
1, 87347, Note_on_c, 1, 52, 127
1, 87348, Note_on_c, 1, 67, 127
1, 87352, Note_on_c, 1, 59, 127
1, 87357, Note_on_c, 1, 74, 127
1, 87415, Note_on_c, 1, 72, 127
1, 87416, Note_off_c, 1, 59, 0
1, 87419, Note_off_c, 1, 74, 0
1, 87463, Note_off_c, 1, 52, 0
1, 87465, Note_off_c, 1, 72, 0
1, 87467, Note_on_c, 1, 64, 127
1, 87467, Note_on_c, 1, 53, 127
1, 87516, Note_on_c, 1, 55, 127
1, 87526, Note_off_c, 1, 53, 0
1, 87527, Note_off_c, 1, 64, 0
1, 87533, Note_on_c, 1, 71, 127
1, 87577, Note_off_c, 1, 55, 0
1, 87580, Note_on_c, 1, 57, 127
1, 87586, Note_off_c, 1, 71, 0
1, 87594, Note_on_c, 1, 60, 127
1, 87634, Note_off_c, 1, 57, 0
1, 87635, Note_off_c, 1, 67, 0
1, 87653, Note_off_c, 1, 60, 0
1, 87653, Note_on_c, 1, 76, 127
1, 87707, Note_off_c, 1, 76, 0
1, 87709, Note_on_c, 1, 65, 127
1, 87767, Note_off_c, 1, 65, 0
1, 87824, Note_on_c, 1, 50, 127
1, 87831, Note_on_c, 1, 77, 127
1, 87831, Note_on_c, 1, 62, 127
1, 87835, Note_on_c, 1, 69, 127
1, 87879, Note_off_c, 1, 50, 0
1, 87893, Note_on_c, 1, 79, 127
1, 87896, Note_off_c, 1, 77, 0
1, 87946, Note_off_c, 1, 69, 0
1, 87946, Note_on_c, 1, 55, 127
1, 87953, Note_on_c, 1, 71, 127
1, 87954, Note_off_c, 1, 79, 0
1, 87983, Note_off_c, 1, 62, 0
1, 87988, Note_off_c, 1, 55, 0
1, 88002, Note_on_c, 1, 64, 127
1, 88007, Note_on_c, 1, 72, 127
1, 88009, Note_on_c, 1, 76, 127
1, 88015, Note_off_c, 1, 71, 0
1, 88047, Note_off_c, 1, 64, 0
1, 88054, Note_off_c, 1, 72, 0
1, 88065, Note_on_c, 1, 65, 127
1, 88069, Note_off_c, 1, 76, 0
1, 88070, Note_on_c, 1, 43, 127
1, 88072, Note_on_c, 1, 74, 127
1, 88102, Note_on_c, 1, 67, 127
1, 88118, Note_off_c, 1, 67, 0
1, 88124, Note_off_c, 1, 74, 0
1, 88127, Note_off_c, 1, 43, 0
1, 88176, Note_off_c, 1, 65, 0
1, 88188, Note_on_c, 1, 53, 127
1, 88232, Note_off_c, 1, 53, 0
1, 88304, Note_on_c, 1, 72, 127
1, 88308, Note_on_c, 1, 52, 127
1, 88311, Note_on_c, 1, 67, 127
1, 88318, Note_on_c, 1, 64, 127
1, 88363, Note_off_c, 1, 52, 0
1, 88365, Note_on_c, 1, 74, 127
1, 88373, Note_off_c, 1, 64, 0
1, 88376, Note_off_c, 1, 72, 0
1, 88422, Note_off_c, 1, 67, 0
1, 88428, Note_on_c, 1, 76, 127
1, 88430, Note_on_c, 1, 55, 127
1, 88431, Note_on_c, 1, 60, 127
1, 88448, Note_off_c, 1, 74, 0
1, 88480, Note_off_c, 1, 55, 0
1, 88484, Note_off_c, 1, 76, 0
1, 88487, Note_on_c, 1, 77, 127
1, 88500, Note_off_c, 1, 60, 0
1, 88548, Note_on_c, 1, 79, 127
1, 88552, Note_off_c, 1, 77, 0
1, 88606, Note_on_c, 1, 81, 127
1, 88609, Note_off_c, 1, 79, 0
1, 88664, Note_on_c, 1, 48, 127
1, 88667, Note_on_c, 1, 82, 127
1, 88671, Note_off_c, 1, 81, 0
1, 88731, Note_off_c, 1, 82, 0
1, 88734, Note_off_c, 1, 48, 0
1, 88780, Note_on_c, 1, 53, 127
1, 88781, Note_on_c, 1, 77, 127
1, 88792, Note_on_c, 1, 81, 127
1, 88796, Note_on_c, 1, 60, 127
1, 88848, Note_on_c, 1, 82, 127
1, 88853, Note_off_c, 1, 53, 0
1, 88855, Note_off_c, 1, 60, 0
1, 88858, Note_off_c, 1, 81, 0
1, 88901, Note_off_c, 1, 82, 0
1, 88905, Note_on_c, 1, 50, 127
1, 88913, Note_on_c, 1, 65, 127
1, 88952, Note_off_c, 1, 77, 0
1, 88963, Note_on_c, 1, 79, 127
1, 88973, Note_on_c, 1, 76, 127
1, 88976, Note_off_c, 1, 65, 0
1, 88977, Note_off_c, 1, 50, 0
1, 89023, Note_off_c, 1, 76, 0
1, 89027, Note_off_c, 1, 79, 0
1, 89028, Note_on_c, 1, 52, 127
1, 89031, Note_on_c, 1, 74, 127
1, 89036, Note_on_c, 1, 67, 127
1, 89087, Note_on_c, 1, 72, 127
1, 89088, Note_off_c, 1, 74, 0
1, 89089, Note_off_c, 1, 52, 0
1, 89089, Note_off_c, 1, 67, 0
1, 89135, Note_off_c, 1, 72, 0
1, 89140, Note_on_c, 1, 71, 127
1, 89154, Note_on_c, 1, 69, 127
1, 89188, Note_off_c, 1, 71, 0
1, 89237, Note_off_c, 1, 69, 0
1, 89258, Note_on_c, 1, 71, 127
1, 89262, Note_on_c, 1, 67, 127
1, 89271, Note_on_c, 1, 55, 127
1, 89280, Note_on_c, 1, 62, 127
1, 89325, Note_on_c, 1, 76, 127
1, 89387, Note_off_c, 1, 76, 0
1, 89388, Note_on_c, 1, 74, 127
1, 89394, Note_on_c, 1, 79, 127
1, 89410, Note_off_c, 1, 67, 0
1, 89432, Note_off_c, 1, 79, 0
1, 89441, Note_off_c, 1, 74, 0
1, 89446, Note_off_c, 1, 71, 0
1, 89451, Note_on_c, 1, 72, 127
1, 89496, Note_off_c, 1, 72, 0
1, 89524, Note_off_c, 1, 62, 0
1, 89550, Note_off_c, 1, 55, 0
1, 89560, Note_on_c, 1, 69, 127
1, 89626, Note_off_c, 1, 69, 0
1, 89628, Note_on_c, 1, 71, 127
1, 89643, Note_on_c, 1, 79, 127
1, 89678, Note_off_c, 1, 71, 0
1, 89683, Note_off_c, 1, 79, 0
1, 89688, Note_on_c, 1, 67, 127
1, 89734, Note_off_c, 1, 67, 0
1, 89751, Note_on_c, 1, 72, 127
1, 89759, Note_on_c, 1, 76, 127
1, 89807, Note_on_c, 1, 81, 127
1, 89862, Note_off_c, 1, 76, 0
1, 89867, Note_on_c, 1, 79, 127
1, 89871, Note_off_c, 1, 81, 0
1, 89879, Note_on_c, 1, 77, 127
1, 89918, Note_off_c, 1, 79, 0
1, 89979, Note_off_c, 1, 77, 0
1, 90036, Note_on_c, 1, 74, 127
1, 90092, Note_off_c, 1, 74, 0
1, 90469, Note_on_c, 1, 67, 127
1, 90474, Note_off_c, 1, 72, 0
1, 90480, Note_on_c, 1, 71, 127
1, 90522, Note_off_c, 1, 67, 0
1, 90678, Note_off_c, 1, 71, 0
1, 90712, Note_on_c, 1, 76, 127
1, 90717, Note_on_c, 1, 72, 127
1, 90768, Note_on_c, 1, 74, 127
1, 90773, Note_off_c, 1, 72, 0
1, 90776, Note_on_c, 1, 71, 127
1, 90785, Note_off_c, 1, 76, 0
1, 90839, Note_off_c, 1, 74, 0
1, 90848, Note_off_c, 1, 71, 0
1, 91117, Note_on_c, 1, 78, 127
1, 91177, Note_off_c, 1, 78, 0
1, 91183, Note_on_c, 1, 71, 127
1, 91184, Note_on_c, 1, 79, 127
1, 91300, Note_off_c, 1, 71, 0
1, 91308, Note_on_c, 1, 72, 127
1, 91328, Note_off_c, 1, 79, 0
1, 91353, Note_off_c, 1, 72, 0
1, 91357, Note_on_c, 1, 74, 127
1, 91414, Note_off_c, 1, 74, 0
1, 91424, Note_on_c, 1, 79, 127
1, 91424, Note_on_c, 1, 76, 127
1, 91470, Note_off_c, 1, 76, 0
1, 91545, Note_on_c, 1, 72, 127
1, 91571, Note_off_c, 1, 79, 0
1, 91592, Note_off_c, 1, 72, 0
1, 91608, Note_on_c, 1, 79, 127
1, 91648, Note_off_c, 1, 79, 0
1, 91667, Note_on_c, 1, 79, 127
1, 91667, Note_on_c, 1, 69, 127
1, 91718, Note_off_c, 1, 69, 0
1, 91786, Note_on_c, 1, 74, 127
1, 91792, Note_off_c, 1, 79, 0
1, 91827, Note_off_c, 1, 74, 0
1, 91827, Note_on_c, 1, 78, 127
1, 91862, Note_on_c, 1, 76, 127
1, 91872, Note_off_c, 1, 78, 0
1, 91905, Note_on_c, 1, 62, 127
1, 91910, Note_off_c, 1, 76, 0
1, 91962, Note_off_c, 1, 62, 0
1, 92024, Note_on_c, 1, 72, 127
1, 92071, Note_off_c, 1, 72, 0
1, 92073, Note_on_c, 1, 79, 127
1, 92132, Note_off_c, 1, 79, 0
1, 92143, Note_on_c, 1, 79, 127
1, 92152, Note_on_c, 1, 71, 127
1, 92209, Note_on_c, 1, 69, 127
1, 92213, Note_off_c, 1, 71, 0
1, 92262, Note_off_c, 1, 79, 0
1, 92265, Note_off_c, 1, 69, 0
1, 92267, Note_on_c, 1, 67, 127
1, 92268, Note_on_c, 1, 77, 127
1, 92317, Note_on_c, 1, 76, 127
1, 92319, Note_on_c, 1, 69, 127
1, 92327, Note_off_c, 1, 67, 0
1, 92329, Note_off_c, 1, 77, 0
1, 92364, Note_off_c, 1, 69, 0
1, 92370, Note_off_c, 1, 76, 0
1, 92374, Note_on_c, 1, 74, 127
1, 92381, Note_on_c, 1, 71, 127
1, 92392, Note_on_c, 1, 67, 127
1, 92437, Note_off_c, 1, 74, 0
1, 92485, Note_off_c, 1, 67, 0
1, 92493, Note_off_c, 1, 71, 0
1, 92495, Note_on_c, 1, 72, 127
1, 92501, Note_on_c, 1, 69, 127
1, 92510, Note_on_c, 1, 67, 127
1, 92548, Note_off_c, 1, 67, 0
1, 92550, Note_off_c, 1, 72, 0
1, 92550, Note_off_c, 1, 69, 0
1, 92552, Note_on_c, 1, 74, 127
1, 92556, Note_on_c, 1, 71, 127
1, 92596, Note_off_c, 1, 71, 0
1, 92602, Note_off_c, 1, 74, 0
1, 92611, Note_on_c, 1, 67, 127
1, 92623, Note_on_c, 1, 72, 127
1, 92629, Note_on_c, 1, 64, 127
1, 92681, Note_off_c, 1, 67, 0
1, 92740, Note_off_c, 1, 64, 0
1, 92745, Note_on_c, 1, 79, 127
1, 92752, Note_on_c, 1, 65, 127
1, 92758, Note_off_c, 1, 72, 0
1, 92793, Note_off_c, 1, 65, 0
1, 92798, Note_off_c, 1, 79, 0
1, 92800, Note_on_c, 1, 67, 127
1, 92847, Note_off_c, 1, 67, 0
1, 92865, Note_on_c, 1, 69, 127
1, 92867, Note_on_c, 1, 76, 127
1, 92868, Note_on_c, 1, 72, 127
1, 92907, Note_off_c, 1, 69, 0
1, 92925, Note_off_c, 1, 76, 0
1, 92984, Note_on_c, 1, 81, 127
1, 92985, Note_on_c, 1, 65, 127
1, 92997, Note_off_c, 1, 72, 0
1, 93035, Note_off_c, 1, 65, 0
1, 93043, Note_off_c, 1, 81, 0
1, 93046, Note_on_c, 1, 72, 127
1, 93079, Note_off_c, 1, 72, 0
1, 93105, Note_on_c, 1, 62, 127
1, 93109, Note_on_c, 1, 72, 127
1, 93112, Note_on_c, 1, 77, 127
1, 93152, Note_off_c, 1, 62, 0
1, 93169, Note_on_c, 1, 79, 127
1, 93177, Note_off_c, 1, 77, 0
1, 93224, Note_off_c, 1, 72, 0
1, 93224, Note_off_c, 1, 79, 0
1, 93224, Note_on_c, 1, 67, 127
1, 93266, Note_off_c, 1, 67, 0
1, 93266, Note_on_c, 1, 71, 127
1, 93291, Note_on_c, 1, 76, 127
1, 93294, Note_on_c, 1, 69, 127
1, 93298, Note_off_c, 1, 71, 0
1, 93326, Note_off_c, 1, 69, 0
1, 93352, Note_on_c, 1, 55, 127
1, 93354, Note_off_c, 1, 76, 0
1, 93355, Note_on_c, 1, 74, 127
1, 93408, Note_off_c, 1, 55, 0
1, 93416, Note_off_c, 1, 74, 0
1, 93472, Note_on_c, 1, 65, 127
1, 93515, Note_off_c, 1, 65, 0
1, 93588, Note_on_c, 1, 72, 127
1, 93594, Note_on_c, 1, 79, 127
1, 93596, Note_on_c, 1, 64, 127
1, 93650, Note_on_c, 1, 77, 127
1, 93654, Note_off_c, 1, 64, 0
1, 93654, Note_on_c, 1, 62, 127
1, 93662, Note_off_c, 1, 79, 0
1, 93684, Note_off_c, 1, 72, 0
1, 93706, Note_off_c, 1, 62, 0
1, 93710, Note_on_c, 1, 67, 127
1, 93714, Note_on_c, 1, 76, 127
1, 93717, Note_on_c, 1, 60, 127
1, 93719, Note_off_c, 1, 77, 0
1, 93757, Note_off_c, 1, 67, 0
1, 93767, Note_on_c, 1, 65, 127
1, 93770, Note_on_c, 1, 74, 127
1, 93775, Note_off_c, 1, 60, 0
1, 93785, Note_off_c, 1, 76, 0
1, 93809, Note_off_c, 1, 65, 0
1, 93841, Note_off_c, 1, 74, 0
1, 93892, Note_on_c, 1, 71, 127
1, 93893, Note_on_c, 1, 62, 127
1, 93944, Note_off_c, 1, 71, 0
1, 93946, Note_on_c, 1, 76, 127
1, 93947, Note_on_c, 1, 72, 127
1, 93950, Note_off_c, 1, 62, 0
1, 93956, Note_on_c, 1, 64, 127
1, 93956, Note_on_c, 1, 60, 127
1, 93987, Note_off_c, 1, 76, 0
1, 94004, Note_on_c, 1, 69, 127
1, 94005, Note_off_c, 1, 72, 0
1, 94008, Note_off_c, 1, 60, 0
1, 94016, Note_on_c, 1, 66, 127
1, 94018, Note_off_c, 1, 64, 0
1, 94057, Note_off_c, 1, 66, 0
1, 94062, Note_off_c, 1, 69, 0
1, 94072, Note_on_c, 1, 74, 127
1, 94084, Note_on_c, 1, 67, 127
1, 94084, Note_on_c, 1, 59, 127
1, 94130, Note_on_c, 1, 72, 127
1, 94135, Note_off_c, 1, 67, 0
1, 94178, Note_off_c, 1, 74, 0
1, 94180, Note_off_c, 1, 72, 0
1, 94189, Note_on_c, 1, 71, 127
1, 94192, Note_on_c, 1, 76, 127
1, 94193, Note_off_c, 1, 59, 0
1, 94197, Note_on_c, 1, 60, 127
1, 94198, Note_on_c, 1, 62, 127
1, 94240, Note_off_c, 1, 71, 0
1, 94244, Note_off_c, 1, 60, 0
1, 94246, Note_on_c, 1, 69, 127
1, 94247, Note_off_c, 1, 76, 0
1, 94251, Note_on_c, 1, 78, 127
1, 94296, Note_off_c, 1, 62, 0
1, 94296, Note_off_c, 1, 69, 0
1, 94299, Note_off_c, 1, 78, 0
1, 94302, Note_on_c, 1, 64, 127
1, 94304, Note_on_c, 1, 67, 127
1, 94316, Note_on_c, 1, 79, 127
1, 94351, Note_off_c, 1, 64, 0
1, 94410, Note_off_c, 1, 79, 0
1, 94427, Note_on_c, 1, 76, 127
1, 94427, Note_on_c, 1, 60, 127
1, 94432, Note_on_c, 1, 81, 127
1, 94447, Note_off_c, 1, 67, 0
1, 94478, Note_off_c, 1, 60, 0
1, 94478, Note_off_c, 1, 81, 0
1, 94482, Note_on_c, 1, 74, 127
1, 94487, Note_on_c, 1, 83, 127
1, 94490, Note_off_c, 1, 76, 0
1, 94529, Note_off_c, 1, 83, 0
1, 94533, Note_off_c, 1, 74, 0
1, 94546, Note_on_c, 1, 57, 127
1, 94549, Note_on_c, 1, 67, 127
1, 94550, Note_on_c, 1, 76, 127
1, 94551, Note_on_c, 1, 84, 127
1, 94587, Note_off_c, 1, 76, 0
1, 94596, Note_off_c, 1, 57, 0
1, 94654, Note_off_c, 1, 67, 0
1, 94668, Note_on_c, 1, 62, 127
1, 94672, Note_on_c, 1, 69, 127
1, 94682, Note_off_c, 1, 84, 0
1, 94694, Note_on_c, 1, 66, 127
1, 94709, Note_off_c, 1, 62, 0
1, 94713, Note_on_c, 1, 83, 127
1, 94731, Note_off_c, 1, 69, 0
1, 94731, Note_off_c, 1, 66, 0
1, 94731, Note_on_c, 1, 64, 127
1, 94754, Note_off_c, 1, 83, 0
1, 94772, Note_off_c, 1, 64, 0
1, 94789, Note_on_c, 1, 50, 127
1, 94798, Note_on_c, 1, 74, 127
1, 94800, Note_on_c, 1, 81, 127
1, 94843, Note_off_c, 1, 50, 0
1, 94844, Note_off_c, 1, 81, 0
1, 94856, Note_on_c, 1, 72, 127
1, 94860, Note_off_c, 1, 74, 0
1, 94906, Note_on_c, 1, 60, 127
1, 94907, Note_off_c, 1, 72, 0
1, 94909, Note_on_c, 1, 71, 127
1, 94958, Note_off_c, 1, 60, 0
1, 94962, Note_on_c, 1, 79, 127
1, 94971, Note_off_c, 1, 71, 0
1, 95000, Note_off_c, 1, 79, 0
1, 95031, Note_on_c, 1, 79, 127
1, 95031, Note_on_c, 1, 59, 127
1, 95032, Note_on_c, 1, 74, 127
1, 95050, Note_on_c, 1, 67, 127
1, 95085, Note_on_c, 1, 57, 127
1, 95098, Note_off_c, 1, 59, 0
1, 95098, Note_on_c, 1, 69, 127
1, 95111, Note_off_c, 1, 67, 0
1, 95143, Note_off_c, 1, 79, 0
1, 95144, Note_on_c, 1, 55, 127
1, 95147, Note_off_c, 1, 69, 0
1, 95149, Note_off_c, 1, 57, 0
1, 95151, Note_on_c, 1, 77, 127
1, 95154, Note_on_c, 1, 71, 127
1, 95205, Note_off_c, 1, 71, 0
1, 95205, Note_on_c, 1, 72, 127
1, 95207, Note_on_c, 1, 76, 127
1, 95212, Note_off_c, 1, 77, 0
1, 95217, Note_off_c, 1, 55, 0
1, 95254, Note_off_c, 1, 72, 0
1, 95267, Note_off_c, 1, 76, 0
1, 95328, Note_off_c, 1, 74, 0
1, 95502, Note_on_c, 1, 60, 127
1, 95507, Note_on_c, 1, 76, 127
1, 95511, Note_on_c, 1, 67, 127
1, 95513, Note_on_c, 1, 72, 127
1, 95558, Note_off_c, 1, 60, 0
1, 95560, Note_on_c, 1, 62, 127
1, 95563, Note_off_c, 1, 76, 0
1, 95564, Note_off_c, 1, 72, 0
1, 95571, Note_on_c, 1, 71, 127
1, 95622, Note_off_c, 1, 71, 0
1, 95623, Note_off_c, 1, 62, 0
1, 95627, Note_on_c, 1, 69, 127
1, 95671, Note_off_c, 1, 69, 0
1, 95676, Note_on_c, 1, 59, 127
1, 95734, Note_on_c, 1, 57, 127
1, 95742, Note_off_c, 1, 59, 0
1, 95750, Note_off_c, 1, 67, 0
1, 95750, Note_on_c, 1, 84, 127
1, 95750, Note_on_c, 1, 65, 127
1, 95790, Note_on_c, 1, 55, 127
1, 95793, Note_off_c, 1, 57, 0
1, 95809, Note_off_c, 1, 65, 0
1, 95848, Note_on_c, 1, 53, 127
1, 95859, Note_on_c, 1, 74, 127
1, 95862, Note_off_c, 1, 55, 0
1, 95903, Note_off_c, 1, 84, 0
1, 95910, Note_off_c, 1, 74, 0
1, 95914, Note_on_c, 1, 52, 127
1, 95917, Note_off_c, 1, 53, 0
1, 95974, Note_off_c, 1, 52, 0
1, 95979, Note_on_c, 1, 50, 127
1, 95984, Note_on_c, 1, 77, 127
1, 96044, Note_off_c, 1, 50, 0
1, 96051, Note_on_c, 1, 82, 127
1, 96107, Note_off_c, 1, 82, 0
1, 96125, Note_off_c, 1, 77, 0
1, 96162, Note_on_c, 1, 81, 127
1, 96216, Note_off_c, 1, 81, 0
1, 96225, Note_on_c, 1, 62, 127
1, 96228, Note_on_c, 1, 82, 127
1, 96230, Note_on_c, 1, 55, 127
1, 96233, Note_on_c, 1, 77, 127
1, 96277, Note_off_c, 1, 62, 0
1, 96287, Note_on_c, 1, 53, 127
1, 96291, Note_on_c, 1, 81, 127
1, 96293, Note_off_c, 1, 55, 0
1, 96299, Note_off_c, 1, 77, 0
1, 96340, Note_off_c, 1, 81, 0
1, 96343, Note_on_c, 1, 52, 127
1, 96344, Note_off_c, 1, 53, 0
1, 96345, Note_on_c, 1, 79, 127
1, 96352, Note_on_c, 1, 67, 127
1, 96375, Note_off_c, 1, 82, 0
1, 96389, Note_off_c, 1, 79, 0
1, 96398, Note_on_c, 1, 50, 127
1, 96404, Note_off_c, 1, 52, 0
1, 96460, Note_off_c, 1, 50, 0
1, 96464, Note_on_c, 1, 48, 127
1, 96470, Note_on_c, 1, 76, 127
1, 96508, Note_off_c, 1, 67, 0
1, 96523, Note_off_c, 1, 48, 0
1, 96529, Note_on_c, 1, 72, 127
1, 96575, Note_off_c, 1, 72, 0
1, 96586, Note_on_c, 1, 70, 127
1, 96625, Note_off_c, 1, 70, 0
1, 96707, Note_on_c, 1, 60, 127
1, 96737, Note_off_c, 1, 76, 0
1, 96758, Note_off_c, 1, 60, 0
1, 96833, Note_on_c, 1, 65, 127
1, 96944, Note_on_c, 1, 47, 127
1, 96945, Note_on_c, 1, 74, 127
1, 96981, Note_off_c, 1, 65, 0
1, 97007, Note_off_c, 1, 47, 0
1, 97010, Note_on_c, 1, 71, 127
1, 97062, Note_off_c, 1, 71, 0
1, 97067, Note_on_c, 1, 69, 127
1, 97086, Note_off_c, 1, 74, 0
1, 97112, Note_off_c, 1, 69, 0
1, 97180, Note_on_c, 1, 74, 127
1, 97189, Note_on_c, 1, 59, 127
1, 97189, Note_on_c, 1, 52, 127
1, 97190, Note_on_c, 1, 79, 127
1, 97238, Note_off_c, 1, 59, 0
1, 97239, Note_off_c, 1, 74, 0
1, 97239, Note_on_c, 1, 77, 127
1, 97242, Note_on_c, 1, 50, 127
1, 97250, Note_off_c, 1, 52, 0
1, 97291, Note_off_c, 1, 77, 0
1, 97302, Note_on_c, 1, 76, 127
1, 97303, Note_on_c, 1, 48, 127
1, 97307, Note_off_c, 1, 50, 0
1, 97308, Note_on_c, 1, 64, 127
1, 97327, Note_off_c, 1, 79, 0
1, 97346, Note_off_c, 1, 76, 0
1, 97360, Note_on_c, 1, 47, 127
1, 97363, Note_off_c, 1, 48, 0
1, 97421, Note_on_c, 1, 45, 127
1, 97424, Note_off_c, 1, 47, 0
1, 97427, Note_on_c, 1, 72, 127
1, 97451, Note_off_c, 1, 64, 0
1, 97480, Note_on_c, 1, 69, 127
1, 97481, Note_off_c, 1, 45, 0
1, 97529, Note_off_c, 1, 69, 0
1, 97534, Note_on_c, 1, 67, 127
1, 97580, Note_off_c, 1, 67, 0
1, 97663, Note_on_c, 1, 57, 127
1, 97706, Note_off_c, 1, 72, 0
1, 97707, Note_off_c, 1, 57, 0
1, 97783, Note_on_c, 1, 62, 127
1, 97900, Note_on_c, 1, 71, 127
1, 97901, Note_on_c, 1, 43, 127
1, 97925, Note_off_c, 1, 62, 0
1, 97966, Note_off_c, 1, 71, 0
1, 97966, Note_on_c, 1, 81, 127
1, 97982, Note_off_c, 1, 43, 0
1, 98030, Note_on_c, 1, 55, 127
1, 98034, Note_off_c, 1, 81, 0
1, 98067, Note_off_c, 1, 55, 0
1, 98199, Note_on_c, 1, 65, 127
1, 98261, Note_off_c, 1, 65, 0
1, 98385, Note_on_c, 1, 72, 127
1, 98387, Note_on_c, 1, 52, 127
1, 98398, Note_on_c, 1, 67, 127
1, 98445, Note_on_c, 1, 76, 127
1, 98501, Note_off_c, 1, 76, 0
1, 98502, Note_off_c, 1, 52, 0
1, 98506, Note_off_c, 1, 67, 0
1, 98510, Note_on_c, 1, 81, 127
1, 98510, Note_on_c, 1, 53, 127
1, 98523, Note_on_c, 1, 69, 127
1, 98562, Note_on_c, 1, 55, 127
1, 98564, Note_off_c, 1, 69, 0
1, 98567, Note_off_c, 1, 53, 0
1, 98568, Note_on_c, 1, 79, 127
1, 98569, Note_on_c, 1, 71, 127
1, 98571, Note_off_c, 1, 81, 0
1, 98576, Note_off_c, 1, 72, 0
1, 98604, Note_off_c, 1, 71, 0
1, 98619, Note_off_c, 1, 55, 0
1, 98621, Note_off_c, 1, 79, 0
1, 98623, Note_on_c, 1, 57, 127
1, 98630, Note_on_c, 1, 77, 127
1, 98634, Note_on_c, 1, 72, 127
1, 98672, Note_off_c, 1, 72, 0
1, 98672, Note_on_c, 1, 60, 127
1, 98676, Note_off_c, 1, 57, 0
1, 98689, Note_on_c, 1, 76, 127
1, 98704, Note_off_c, 1, 77, 0
1, 98735, Note_off_c, 1, 60, 0
1, 98736, Note_on_c, 1, 62, 127
1, 98746, Note_on_c, 1, 53, 127
1, 98750, Note_on_c, 1, 74, 127
1, 98751, Note_off_c, 1, 76, 0
1, 98796, Note_off_c, 1, 53, 0
1, 98796, Note_on_c, 1, 64, 127
1, 98800, Note_off_c, 1, 62, 0
1, 98810, Note_off_c, 1, 74, 0
1, 98845, Note_off_c, 1, 64, 0
1, 98866, Note_on_c, 1, 65, 127
1, 98868, Note_on_c, 1, 71, 127
1, 98869, Note_on_c, 1, 50, 127
1, 98881, Note_on_c, 1, 62, 127
1, 98918, Note_off_c, 1, 65, 0
1, 98922, Note_off_c, 1, 50, 0
1, 98928, Note_on_c, 1, 69, 127
1, 98933, Note_on_c, 1, 60, 127
1, 98942, Note_off_c, 1, 71, 0
1, 98979, Note_off_c, 1, 62, 0
1, 98981, Note_off_c, 1, 60, 0
1, 98985, Note_on_c, 1, 55, 127
1, 98989, Note_off_c, 1, 69, 0
1, 98989, Note_on_c, 1, 64, 127
1, 98989, Note_on_c, 1, 67, 127
1, 98992, Note_on_c, 1, 59, 127
1, 99032, Note_off_c, 1, 55, 0
1, 99044, Note_on_c, 1, 57, 127
1, 99049, Note_off_c, 1, 64, 0
1, 99049, Note_off_c, 1, 67, 0
1, 99056, Note_off_c, 1, 59, 0
1, 99102, Note_off_c, 1, 57, 0
1, 99106, Note_on_c, 1, 43, 127
1, 99162, Note_on_c, 1, 53, 127
1, 99164, Note_off_c, 1, 43, 0
1, 99215, Note_on_c, 1, 52, 127
1, 99220, Note_off_c, 1, 53, 0
1, 99260, Note_off_c, 1, 52, 0
1, 99345, Note_on_c, 1, 72, 127
1, 99345, Note_on_c, 1, 48, 127
1, 99345, Note_on_c, 1, 52, 127
1, 99346, Note_on_c, 1, 67, 127
1, 99398, Note_off_c, 1, 67, 0
1, 99400, Note_off_c, 1, 52, 0
1, 99401, Note_on_c, 1, 65, 127
1, 99412, Note_off_c, 1, 48, 0
1, 99446, Note_off_c, 1, 65, 0
1, 99463, Note_on_c, 1, 64, 127
1, 99477, Note_on_c, 1, 55, 127
1, 99491, Note_off_c, 1, 72, 0
1, 99512, Note_on_c, 1, 74, 127
1, 99517, Note_off_c, 1, 64, 0
1, 99522, Note_off_c, 1, 55, 0
1, 99557, Note_off_c, 1, 74, 0
1, 99578, Note_on_c, 1, 72, 127
1, 99580, Note_on_c, 1, 64, 127
1, 99581, Note_on_c, 1, 55, 127
1, 99606, Note_on_c, 1, 71, 127
1, 99610, Note_on_c, 1, 62, 127
1, 99611, Note_off_c, 1, 64, 0
1, 99622, Note_off_c, 1, 72, 0
1, 99638, Note_off_c, 1, 62, 0
1, 99649, Note_off_c, 1, 71, 0
1, 99650, Note_off_c, 1, 55, 0
1, 99705, Note_on_c, 1, 43, 127
1, 99764, Note_off_c, 1, 43, 0
1, 99825, Note_on_c, 1, 72, 127
1, 99826, Note_on_c, 1, 64, 127
1, 99832, Note_on_c, 1, 55, 127
1, 99832, Note_on_c, 1, 48, 127
1, 99884, Note_on_c, 1, 77, 127
1, 99891, Note_on_c, 1, 69, 127
1, 99892, Note_off_c, 1, 64, 0
1, 99929, Note_off_c, 1, 77, 0
1, 99938, Note_off_c, 1, 69, 0
1, 99943, Note_on_c, 1, 76, 127
1, 99950, Note_on_c, 1, 67, 127
1, 99958, Note_on_c, 1, 79, 127
1, 99986, Note_off_c, 1, 67, 0
1, 99988, Note_off_c, 1, 76, 0
1, 99997, Note_off_c, 1, 79, 0
1, 100002, Note_on_c, 1, 74, 127
1, 100006, Note_on_c, 1, 65, 127
1, 100054, Note_off_c, 1, 65, 0
1, 100059, Note_off_c, 1, 74, 0
1, 100076, Note_off_c, 1, 55, 0
1, 100092, Note_off_c, 1, 48, 0
1, 100115, Note_off_c, 1, 72, 0
1, 100123, Note_on_c, 1, 70, 127
1, 100123, Note_on_c, 1, 62, 127
1, 100165, Note_off_c, 1, 70, 0
1, 100182, Note_off_c, 1, 62, 0
1, 100237, Note_on_c, 1, 60, 127
1, 100288, Note_off_c, 1, 60, 0
1, 100299, Note_on_c, 1, 67, 127
1, 100306, Note_on_c, 1, 70, 127
1, 100315, Note_on_c, 1, 76, 127
1, 100365, Note_on_c, 1, 58, 127
1, 100410, Note_off_c, 1, 58, 0
1, 100424, Note_on_c, 1, 57, 127
1, 100428, Note_off_c, 1, 76, 0
1, 100440, Note_on_c, 1, 77, 127
1, 100464, Note_off_c, 1, 70, 0
1, 100467, Note_off_c, 1, 67, 0
1, 100479, Note_off_c, 1, 57, 0
1, 100486, Note_on_c, 1, 55, 127
1, 100487, Note_off_c, 1, 77, 0
1, 100488, Note_on_c, 1, 79, 127
1, 100534, Note_off_c, 1, 79, 0
1, 100540, Note_off_c, 1, 55, 0
1, 100550, Note_on_c, 1, 53, 127
1, 100551, Note_on_c, 1, 81, 127
1, 100557, Note_on_c, 1, 72, 127
1, 100587, Note_off_c, 1, 81, 0
1, 100591, Note_off_c, 1, 53, 0
1, 100605, Note_on_c, 1, 52, 127
1, 100650, Note_off_c, 1, 52, 0
1, 100675, Note_on_c, 1, 77, 127
1, 100712, Note_off_c, 1, 77, 0
1, 100723, Note_on_c, 1, 50, 127
1, 100771, Note_off_c, 1, 50, 0
1, 100789, Note_on_c, 1, 55, 127
1, 100793, Note_on_c, 1, 74, 127
1, 100831, Note_off_c, 1, 74, 0
1, 100837, Note_off_c, 1, 55, 0
1, 100911, Note_on_c, 1, 79, 127
1, 100948, Note_off_c, 1, 79, 0
1, 100968, Note_on_c, 1, 57, 127
1, 101015, Note_off_c, 1, 57, 0
1, 101029, Note_on_c, 1, 67, 127
1, 101033, Note_off_c, 1, 72, 0
1, 101038, Note_on_c, 1, 71, 127
1, 101069, Note_off_c, 1, 67, 0
1, 101266, Note_on_c, 1, 48, 127
1, 101269, Note_off_c, 1, 71, 0
1, 101281, Note_on_c, 1, 76, 127
1, 101322, Note_on_c, 1, 59, 127
1, 101383, Note_on_c, 1, 60, 127
1, 101392, Note_off_c, 1, 59, 0
1, 101439, Note_on_c, 1, 62, 127
1, 101448, Note_off_c, 1, 60, 0
1, 101502, Note_off_c, 1, 62, 0
1, 101507, Note_on_c, 1, 64, 127
1, 101521, Note_off_c, 1, 76, 0
1, 101533, Note_off_c, 1, 48, 0
1, 101558, Note_off_c, 1, 64, 0
1, 101689, Note_on_c, 1, 65, 127
1, 101747, Note_off_c, 1, 65, 0
1, 101754, Note_on_c, 1, 67, 127
1, 101763, Note_on_c, 1, 76, 127
1, 101813, Note_on_c, 1, 70, 127
1, 101824, Note_off_c, 1, 67, 0
1, 101870, Note_on_c, 1, 69, 127
1, 101878, Note_off_c, 1, 70, 0
1, 101888, Note_on_c, 1, 77, 127
1, 101890, Note_off_c, 1, 76, 0
1, 101934, Note_off_c, 1, 69, 0
1, 101935, Note_on_c, 1, 79, 127
1, 101937, Note_off_c, 1, 77, 0
1, 101985, Note_off_c, 1, 79, 0
1, 101991, Note_on_c, 1, 65, 127
1, 101994, Note_on_c, 1, 81, 127
1, 101998, Note_on_c, 1, 72, 127
1, 102032, Note_off_c, 1, 81, 0
1, 102046, Note_on_c, 1, 64, 127
1, 102048, Note_off_c, 1, 65, 0
1, 102100, Note_off_c, 1, 64, 0
1, 102118, Note_on_c, 1, 77, 127
1, 102158, Note_on_c, 1, 62, 127
1, 102161, Note_off_c, 1, 77, 0
1, 102214, Note_off_c, 1, 62, 0
1, 102223, Note_on_c, 1, 67, 127
1, 102242, Note_on_c, 1, 74, 127
1, 102282, Note_off_c, 1, 67, 0
1, 102284, Note_off_c, 1, 74, 0
1, 102360, Note_on_c, 1, 79, 127
1, 102396, Note_off_c, 1, 79, 0
1, 102405, Note_on_c, 1, 69, 127
1, 102466, Note_off_c, 1, 72, 0
1, 102466, Note_off_c, 1, 69, 0
1, 102471, Note_on_c, 1, 71, 127
1, 102674, Note_off_c, 1, 71, 0
1, 102709, Note_on_c, 1, 60, 127
1, 102720, Note_on_c, 1, 76, 127
1, 102729, Note_on_c, 1, 72, 127
1, 102772, Note_off_c, 1, 76, 0
1, 102782, Note_on_c, 1, 79, 127
1, 102787, Note_off_c, 1, 72, 0
1, 102840, Note_on_c, 1, 77, 127
1, 102844, Note_off_c, 1, 79, 0
1, 102903, Note_off_c, 1, 77, 0
1, 102951, Note_on_c, 1, 81, 127
1, 102999, Note_off_c, 1, 60, 0
1, 103012, Note_off_c, 1, 81, 0
1, 103079, Note_on_c, 1, 64, 127
1, 103082, Note_on_c, 1, 69, 127
1, 103120, Note_off_c, 1, 64, 0
1, 103188, Note_on_c, 1, 74, 127
1, 103191, Note_on_c, 1, 59, 127
1, 103197, Note_on_c, 1, 65, 127
1, 103246, Note_off_c, 1, 65, 0
1, 103259, Note_off_c, 1, 74, 0
1, 103293, Note_off_c, 1, 69, 0
1, 103305, Note_off_c, 1, 59, 0
1, 103307, Note_on_c, 1, 62, 127
1, 103321, Note_on_c, 1, 67, 127
1, 103350, Note_off_c, 1, 62, 0
1, 103359, Note_off_c, 1, 67, 0
1, 103665, Note_on_c, 1, 57, 127
1, 103719, Note_off_c, 1, 57, 0
1, 103896, Note_on_c, 1, 50, 127
1, 103960, Note_off_c, 1, 50, 0
1, 104018, Note_on_c, 1, 71, 127
1, 104066, Note_off_c, 1, 71, 0
1, 104141, Note_on_c, 1, 55, 127
1, 104144, Note_on_c, 1, 74, 127
1, 104144, Note_on_c, 1, 59, 127
1, 104149, Note_on_c, 1, 77, 127
1, 104193, Note_off_c, 1, 74, 0
1, 104200, Note_off_c, 1, 59, 0
1, 104202, Note_on_c, 1, 76, 127
1, 104202, Note_on_c, 1, 72, 127
1, 104214, Note_off_c, 1, 77, 0
1, 104246, Note_off_c, 1, 72, 0
1, 104264, Note_off_c, 1, 76, 0
1, 104284, Note_on_c, 1, 67, 127
1, 104309, Note_off_c, 1, 55, 0
1, 104320, Note_on_c, 1, 71, 127
1, 104363, Note_off_c, 1, 71, 0
1, 104380, Note_on_c, 1, 60, 127
1, 104421, Note_off_c, 1, 60, 0
1, 104442, Note_off_c, 1, 67, 0
1, 104442, Note_on_c, 1, 79, 127
1, 104457, Note_on_c, 1, 64, 127
1, 104500, Note_on_c, 1, 48, 127
1, 104505, Note_off_c, 1, 79, 0
1, 104513, Note_off_c, 1, 64, 0
1, 104513, Note_on_c, 1, 62, 127
1, 104554, Note_off_c, 1, 48, 0
1, 104576, Note_off_c, 1, 62, 0
1, 104620, Note_on_c, 1, 53, 127
1, 104623, Note_on_c, 1, 81, 127
1, 104632, Note_on_c, 1, 65, 127
1, 104675, Note_off_c, 1, 53, 0
1, 104682, Note_on_c, 1, 57, 127
1, 104738, Note_on_c, 1, 70, 127
1, 104741, Note_off_c, 1, 57, 0
1, 104784, Note_off_c, 1, 70, 0
1, 104860, Note_off_c, 1, 65, 0
1, 104860, Note_on_c, 1, 58, 127
1, 104919, Note_off_c, 1, 58, 0
1, 104924, Note_off_c, 1, 81, 0
1, 105040, Note_on_c, 1, 69, 127
1, 105085, Note_off_c, 1, 69, 0
1, 105100, Note_on_c, 1, 52, 127
1, 105147, Note_off_c, 1, 52, 0
1, 105585, Note_on_c, 1, 50, 127
1, 105699, Note_off_c, 1, 50, 0
1, 105946, Note_on_c, 1, 43, 127
1, 105989, Note_off_c, 1, 43, 0
1, 106060, Note_on_c, 1, 76, 127
1, 106067, Note_on_c, 1, 67, 127
1, 106073, Note_on_c, 1, 72, 127
1, 106074, Note_on_c, 1, 48, 127
1, 106118, Note_on_c, 1, 79, 127
1, 106129, Note_off_c, 1, 76, 0
1, 106138, Note_off_c, 1, 48, 0
1, 106138, Note_on_c, 1, 55, 127
1, 106179, Note_on_c, 1, 77, 127
1, 106187, Note_off_c, 1, 79, 0
1, 106189, Note_off_c, 1, 55, 0
1, 106190, Note_on_c, 1, 57, 127
1, 106218, Note_off_c, 1, 72, 0
1, 106242, Note_on_c, 1, 74, 127
1, 106245, Note_off_c, 1, 57, 0
1, 106245, Note_on_c, 1, 59, 127
1, 106252, Note_off_c, 1, 67, 0
1, 106254, Note_off_c, 1, 77, 0
1, 106291, Note_off_c, 1, 59, 0
1, 106292, Note_off_c, 1, 74, 0
1, 106303, Note_on_c, 1, 72, 127
1, 106304, Note_on_c, 1, 81, 127
1, 106316, Note_on_c, 1, 60, 127
1, 106318, Note_on_c, 1, 64, 127
1, 106342, Note_off_c, 1, 72, 0
1, 106359, Note_on_c, 1, 71, 127
1, 106359, Note_on_c, 1, 79, 127
1, 106372, Note_off_c, 1, 81, 0
1, 106401, Note_off_c, 1, 71, 0
1, 106419, Note_on_c, 1, 69, 127
1, 106425, Note_on_c, 1, 77, 127
1, 106427, Note_off_c, 1, 79, 0
1, 106448, Note_off_c, 1, 64, 0
1, 106457, Note_off_c, 1, 60, 0
1, 106462, Note_off_c, 1, 69, 0
1, 106472, Note_on_c, 1, 67, 127
1, 106484, Note_on_c, 1, 76, 127
1, 106494, Note_off_c, 1, 77, 0
1, 106507, Note_off_c, 1, 67, 0
1, 106545, Note_on_c, 1, 65, 127
1, 106546, Note_on_c, 1, 74, 127
1, 106550, Note_off_c, 1, 76, 0
1, 106611, Note_on_c, 1, 59, 127
1, 106616, Note_off_c, 1, 74, 0
1, 106662, Note_off_c, 1, 59, 0
1, 106666, Note_on_c, 1, 57, 127
1, 106680, Note_off_c, 1, 65, 0
1, 106774, Note_off_c, 1, 57, 0
1, 106794, Note_on_c, 1, 62, 127
1, 106937, Note_off_c, 1, 62, 0
1, 107026, Note_on_c, 1, 64, 127
1, 107027, Note_on_c, 1, 72, 127
1, 107029, Note_on_c, 1, 67, 127
1, 107033, Note_on_c, 1, 59, 127
1, 107082, Note_off_c, 1, 67, 0
1, 107083, Note_on_c, 1, 76, 127
1, 107085, Note_off_c, 1, 59, 0
1, 107096, Note_off_c, 1, 72, 0
1, 107147, Note_on_c, 1, 74, 127
1, 107149, Note_on_c, 1, 55, 127
1, 107154, Note_on_c, 1, 52, 127
1, 107157, Note_off_c, 1, 76, 0
1, 107164, Note_off_c, 1, 64, 0
1, 107197, Note_off_c, 1, 55, 0
1, 107201, Note_off_c, 1, 52, 0
1, 107202, Note_on_c, 1, 71, 127
1, 107216, Note_off_c, 1, 74, 0
1, 107237, Note_off_c, 1, 71, 0
1, 107264, Note_on_c, 1, 60, 127
1, 107267, Note_on_c, 1, 77, 127
1, 107268, Note_on_c, 1, 69, 127
1, 107276, Note_on_c, 1, 57, 127
1, 107324, Note_off_c, 1, 69, 0
1, 107332, Note_off_c, 1, 77, 0
1, 107385, Note_on_c, 1, 65, 127
1, 107414, Note_off_c, 1, 57, 0
1, 107416, Note_off_c, 1, 60, 0
1, 107430, Note_off_c, 1, 65, 0
1, 107494, Note_on_c, 1, 62, 127
1, 107633, Note_on_c, 1, 53, 127
1, 107647, Note_off_c, 1, 62, 0
1, 107728, Note_off_c, 1, 53, 0
1, 108111, Note_on_c, 1, 48, 127
1, 108158, Note_off_c, 1, 48, 0
1, 108223, Note_on_c, 1, 74, 127
1, 108229, Note_on_c, 1, 57, 127
1, 108230, Note_on_c, 1, 65, 127
1, 108232, Note_on_c, 1, 53, 127
1, 108277, Note_off_c, 1, 65, 0
1, 108281, Note_on_c, 1, 72, 127
1, 108285, Note_on_c, 1, 64, 127
1, 108289, Note_off_c, 1, 74, 0
1, 108331, Note_off_c, 1, 64, 0
1, 108342, Note_on_c, 1, 71, 127
1, 108342, Note_on_c, 1, 62, 127
1, 108348, Note_off_c, 1, 72, 0
1, 108368, Note_off_c, 1, 57, 0
1, 108377, Note_off_c, 1, 53, 0
1, 108378, Note_off_c, 1, 62, 0
1, 108390, Note_off_c, 1, 71, 0
1, 108393, Note_on_c, 1, 60, 127
1, 108394, Note_on_c, 1, 69, 127
1, 108404, Note_on_c, 1, 57, 127
1, 108411, Note_on_c, 1, 53, 127
1, 108433, Note_off_c, 1, 60, 0
1, 108440, Note_off_c, 1, 57, 0
1, 108443, Note_off_c, 1, 53, 0
1, 108461, Note_off_c, 1, 69, 0
1, 108464, Note_on_c, 1, 71, 127
1, 108470, Note_on_c, 1, 67, 127
1, 108470, Note_on_c, 1, 62, 127
1, 108471, Note_on_c, 1, 53, 127
1, 108519, Note_on_c, 1, 52, 127
1, 108520, Note_off_c, 1, 67, 0
1, 108521, Note_on_c, 1, 60, 127
1, 108525, Note_off_c, 1, 53, 0
1, 108529, Note_off_c, 1, 71, 0
1, 108529, Note_off_c, 1, 62, 0
1, 108566, Note_off_c, 1, 60, 0
1, 108576, Note_off_c, 1, 52, 0
1, 108578, Note_on_c, 1, 53, 127
1, 108582, Note_on_c, 1, 62, 127
1, 108591, Note_on_c, 1, 79, 127
1, 108591, Note_on_c, 1, 71, 127
1, 108628, Note_off_c, 1, 62, 0
1, 108632, Note_off_c, 1, 53, 0
1, 108633, Note_off_c, 1, 79, 0
1, 108635, Note_on_c, 1, 50, 127
1, 108637, Note_on_c, 1, 59, 127
1, 108641, Note_off_c, 1, 71, 0
1, 108680, Note_off_c, 1, 50, 0
1, 108684, Note_off_c, 1, 59, 0
1, 108697, Note_on_c, 1, 52, 127
1, 108706, Note_on_c, 1, 64, 127
1, 108712, Note_on_c, 1, 67, 127
1, 108712, Note_on_c, 1, 79, 127
1, 108752, Note_off_c, 1, 79, 0
1, 108757, Note_on_c, 1, 53, 127
1, 108768, Note_off_c, 1, 52, 0
1, 108768, Note_on_c, 1, 69, 127
1, 108769, Note_off_c, 1, 64, 0
1, 108771, Note_off_c, 1, 67, 0
1, 108819, Note_on_c, 1, 55, 127
1, 108821, Note_off_c, 1, 69, 0
1, 108828, Note_on_c, 1, 71, 127
1, 108829, Note_off_c, 1, 53, 0
1, 108832, Note_on_c, 1, 62, 127
1, 108869, Note_off_c, 1, 55, 0
1, 108875, Note_off_c, 1, 62, 0
1, 108883, Note_off_c, 1, 71, 0
1, 108941, Note_on_c, 1, 57, 127
1, 108944, Note_on_c, 1, 60, 127
1, 108945, Note_on_c, 1, 72, 127
1, 108953, Note_on_c, 1, 76, 127
1, 109000, Note_on_c, 1, 74, 127
1, 109004, Note_off_c, 1, 72, 0
1, 109006, Note_on_c, 1, 58, 127
1, 109016, Note_off_c, 1, 57, 0
1, 109045, Note_off_c, 1, 74, 0
1, 109046, Note_off_c, 1, 60, 0
1, 109065, Note_off_c, 1, 58, 0
1, 109069, Note_off_c, 1, 76, 0
1, 109070, Note_on_c, 1, 62, 127
1, 109076, Note_on_c, 1, 77, 127
1, 109119, Note_off_c, 1, 62, 0
1, 109119, Note_on_c, 1, 70, 127
1, 109124, Note_on_c, 1, 64, 127
1, 109124, Note_on_c, 1, 55, 127
1, 109129, Note_on_c, 1, 79, 127
1, 109134, Note_off_c, 1, 77, 0
1, 109161, Note_off_c, 1, 70, 0
1, 109172, Note_off_c, 1, 64, 0
1, 109182, Note_off_c, 1, 79, 0
1, 109184, Note_on_c, 1, 69, 127
1, 109185, Note_off_c, 1, 55, 0
1, 109185, Note_on_c, 1, 53, 127
1, 109186, Note_on_c, 1, 65, 127
1, 109191, Note_on_c, 1, 81, 127
1, 109232, Note_off_c, 1, 81, 0
1, 109238, Note_off_c, 1, 69, 0
1, 109240, Note_on_c, 1, 52, 127
1, 109245, Note_off_c, 1, 53, 0
1, 109252, Note_off_c, 1, 65, 0
1, 109301, Note_on_c, 1, 50, 127
1, 109306, Note_off_c, 1, 52, 0
1, 109362, Note_on_c, 1, 48, 127
1, 109366, Note_off_c, 1, 50, 0
1, 109414, Note_off_c, 1, 48, 0
1, 109424, Note_on_c, 1, 47, 127
1, 109430, Note_on_c, 1, 67, 127
1, 109431, Note_on_c, 1, 74, 127
1, 109488, Note_off_c, 1, 74, 0
1, 109490, Note_off_c, 1, 47, 0
1, 109490, Note_on_c, 1, 45, 127
1, 109492, Note_off_c, 1, 67, 0
1, 109495, Note_on_c, 1, 72, 127
1, 109542, Note_off_c, 1, 72, 0
1, 109547, Note_on_c, 1, 62, 127
1, 109548, Note_on_c, 1, 79, 127
1, 109549, Note_off_c, 1, 45, 0
1, 109553, Note_on_c, 1, 71, 127
1, 109553, Note_on_c, 1, 43, 127
1, 109593, Note_off_c, 1, 79, 0
1, 109600, Note_off_c, 1, 71, 0
1, 109606, Note_off_c, 1, 62, 0
1, 109617, Note_off_c, 1, 43, 0
1, 109669, Note_on_c, 1, 67, 127
1, 109670, Note_on_c, 1, 74, 127
1, 109673, Note_on_c, 1, 47, 127
1, 109720, Note_off_c, 1, 74, 0
1, 109725, Note_on_c, 1, 45, 127
1, 109728, Note_on_c, 1, 72, 127
1, 109732, Note_off_c, 1, 47, 0
1, 109742, Note_off_c, 1, 67, 0
1, 109780, Note_off_c, 1, 72, 0
1, 109792, Note_on_c, 1, 77, 127
1, 109794, Note_on_c, 1, 71, 127
1, 109795, Note_off_c, 1, 45, 0
1, 109837, Note_off_c, 1, 77, 0
1, 109843, Note_on_c, 1, 43, 127
1, 109889, Note_off_c, 1, 71, 0
1, 109900, Note_off_c, 1, 43, 0
1, 109908, Note_on_c, 1, 72, 127
1, 109909, Note_on_c, 1, 48, 127
1, 109911, Note_on_c, 1, 76, 127
1, 109916, Note_on_c, 1, 67, 127
1, 109971, Note_off_c, 1, 48, 0
1, 109981, Note_off_c, 1, 67, 0
1, 110031, Note_on_c, 1, 53, 127
1, 110033, Note_on_c, 1, 69, 127
1, 110043, Note_off_c, 1, 72, 0
1, 110056, Note_off_c, 1, 76, 0
1, 110076, Note_on_c, 1, 74, 127
1, 110083, Note_off_c, 1, 69, 0
1, 110085, Note_off_c, 1, 53, 0
1, 110124, Note_off_c, 1, 74, 0
1, 110142, Note_on_c, 1, 72, 127
1, 110149, Note_on_c, 1, 76, 127
1, 110150, Note_on_c, 1, 62, 127
1, 110156, Note_on_c, 1, 55, 127
1, 110162, Note_on_c, 1, 71, 127
1, 110166, Note_off_c, 1, 72, 0
1, 110173, Note_on_c, 1, 74, 127
1, 110184, Note_off_c, 1, 76, 0
1, 110192, Note_off_c, 1, 55, 0
1, 110194, Note_off_c, 1, 71, 0
1, 110204, Note_off_c, 1, 62, 0
1, 110219, Note_off_c, 1, 74, 0
1, 110270, Note_on_c, 1, 67, 127
1, 110272, Note_on_c, 1, 43, 127
1, 110313, Note_off_c, 1, 43, 0
1, 110353, Note_off_c, 1, 67, 0
1, 110385, Note_on_c, 1, 67, 127
1, 110391, Note_on_c, 1, 64, 127
1, 110392, Note_on_c, 1, 72, 127
1, 110398, Note_on_c, 1, 36, 127
1, 110539, Note_off_c, 1, 67, 0
1, 110541, Note_off_c, 1, 64, 0
1, 110543, Note_on_c, 1, 65, 127
1, 110571, Note_on_c, 1, 62, 127
1, 110579, Note_off_c, 1, 65, 0
1, 110611, Note_off_c, 1, 62, 0
1, 110633, Note_on_c, 1, 60, 127
1, 110641, Note_off_c, 1, 72, 0
1, 110715, Note_off_c, 1, 60, 0
1, 110743, Note_on_c, 1, 70, 127
1, 110794, Note_off_c, 1, 70, 0
1, 110804, Note_on_c, 1, 69, 127
1, 110855, Note_off_c, 1, 69, 0
1, 110997, Note_off_c, 1, 36, 0
1, 110997, Note_on_c, 1, 48, 127
1, 111044, Note_off_c, 1, 48, 0
1, 111054, Note_on_c, 1, 50, 127
1, 111099, Note_off_c, 1, 50, 0
1, 111116, Note_on_c, 1, 52, 127
1, 111160, Note_off_c, 1, 52, 0
1, 111288, Note_on_c, 1, 53, 127
1, 111330, Note_off_c, 1, 53, 0
1, 111347, Note_on_c, 1, 67, 127
1, 111355, Note_on_c, 1, 70, 127
1, 111355, Note_on_c, 1, 55, 127
1, 111356, Note_on_c, 1, 62, 127
1, 111437, Note_off_c, 1, 67, 0
1, 111448, Note_off_c, 1, 62, 0
1, 111453, Note_off_c, 1, 70, 0
1, 111533, Note_on_c, 1, 65, 127
1, 111534, Note_on_c, 1, 69, 127
1, 111574, Note_off_c, 1, 65, 0
1, 111579, Note_off_c, 1, 69, 0
1, 111592, Note_on_c, 1, 72, 127
1, 111596, Note_on_c, 1, 64, 127
1, 111610, Note_off_c, 1, 55, 0
1, 111685, Note_off_c, 1, 64, 0
1, 111687, Note_off_c, 1, 72, 0
1, 111716, Note_on_c, 1, 57, 127
1, 111759, Note_off_c, 1, 57, 0
1, 111767, Note_on_c, 1, 65, 127
1, 111769, Note_on_c, 1, 58, 127
1, 111771, Note_on_c, 1, 74, 127
1, 111777, Note_on_c, 1, 62, 127
1, 111810, Note_off_c, 1, 62, 0
1, 111812, Note_off_c, 1, 65, 0
1, 111816, Note_off_c, 1, 58, 0
1, 111820, Note_off_c, 1, 74, 0
1, 111827, Note_on_c, 1, 64, 127
1, 111829, Note_on_c, 1, 67, 127
1, 111830, Note_on_c, 1, 60, 127
1, 111889, Note_on_c, 1, 58, 127
1, 111916, Note_off_c, 1, 64, 0
1, 111926, Note_off_c, 1, 58, 0
1, 111931, Note_off_c, 1, 60, 0
1, 111943, Note_off_c, 1, 67, 0
1, 111947, Note_on_c, 1, 57, 127
1, 111988, Note_off_c, 1, 57, 0
1, 112004, Note_on_c, 1, 62, 127
1, 112004, Note_on_c, 1, 58, 127
1, 112008, Note_on_c, 1, 67, 127
1, 112047, Note_on_c, 1, 64, 127
1, 112048, Note_off_c, 1, 58, 0
1, 112055, Note_off_c, 1, 62, 0
1, 112062, Note_off_c, 1, 67, 0
1, 112065, Note_on_c, 1, 60, 127
1, 112073, Note_on_c, 1, 69, 127
1, 112073, Note_on_c, 1, 65, 127
1, 112076, Note_off_c, 1, 64, 0
1, 112106, Note_off_c, 1, 65, 0
1, 112124, Note_on_c, 1, 57, 127
1, 112160, Note_off_c, 1, 60, 0
1, 112168, Note_off_c, 1, 57, 0
1, 112191, Note_off_c, 1, 69, 0
1, 112250, Note_on_c, 1, 70, 127
1, 112300, Note_off_c, 1, 70, 0
1, 112309, Note_on_c, 1, 53, 127
1, 112441, Note_off_c, 1, 53, 0
1, 112492, Note_on_c, 1, 50, 127
1, 112517, Note_on_c, 1, 52, 127
1, 112527, Note_off_c, 1, 50, 0
1, 112546, Note_off_c, 1, 52, 0
1, 112670, Note_on_c, 1, 71, 127
1, 112718, Note_off_c, 1, 71, 0
1, 112718, Note_on_c, 1, 67, 127
1, 112721, Note_on_c, 1, 64, 127
1, 112725, Note_on_c, 1, 55, 127
1, 112727, Note_on_c, 1, 73, 127
1, 112746, Note_on_c, 1, 57, 127
1, 112762, Note_off_c, 1, 67, 0
1, 112762, Note_off_c, 1, 55, 0
1, 112765, Note_off_c, 1, 64, 0
1, 112774, Note_off_c, 1, 73, 0
1, 112783, Note_on_c, 1, 58, 127
1, 112786, Note_off_c, 1, 57, 0
1, 112788, Note_on_c, 1, 62, 127
1, 112789, Note_on_c, 1, 74, 127
1, 112790, Note_on_c, 1, 65, 127
1, 112838, Note_off_c, 1, 74, 0
1, 112888, Note_off_c, 1, 62, 0
1, 112959, Note_on_c, 1, 69, 127
1, 112968, Note_on_c, 1, 76, 127
1, 113003, Note_off_c, 1, 69, 0
1, 113013, Note_off_c, 1, 76, 0
1, 113026, Note_on_c, 1, 77, 127
1, 113080, Note_off_c, 1, 77, 0
1, 113125, Note_off_c, 1, 65, 0
1, 113163, Note_off_c, 1, 58, 0
1, 113258, Note_on_c, 1, 70, 127
1, 113274, Note_on_c, 1, 79, 127
1, 113320, Note_on_c, 1, 60, 127
1, 113362, Note_off_c, 1, 60, 0
1, 113618, Note_off_c, 1, 70, 0
1, 113639, Note_off_c, 1, 79, 0
1, 113682, Note_on_c, 1, 74, 127
1, 113682, Note_on_c, 1, 58, 127
1, 113688, Note_on_c, 1, 70, 127
1, 113689, Note_on_c, 1, 79, 127
1, 113713, Note_off_c, 1, 74, 0
1, 113724, Note_off_c, 1, 58, 0
1, 113727, Note_off_c, 1, 70, 0
1, 113732, Note_off_c, 1, 79, 0
1, 113739, Note_on_c, 1, 74, 127
1, 113748, Note_on_c, 1, 79, 127
1, 113750, Note_on_c, 1, 57, 127
1, 113753, Note_on_c, 1, 64, 127
1, 113786, Note_on_c, 1, 73, 127
1, 113788, Note_off_c, 1, 74, 0
1, 113808, Note_off_c, 1, 73, 0
1, 113886, Note_off_c, 1, 79, 0
1, 113929, Note_off_c, 1, 57, 0
1, 113936, Note_on_c, 1, 81, 127
1, 113960, Note_off_c, 1, 64, 0
1, 113962, Note_on_c, 1, 82, 127
1, 113970, Note_off_c, 1, 81, 0
1, 113982, Note_on_c, 1, 69, 127
1, 113994, Note_off_c, 1, 82, 0
1, 113997, Note_on_c, 1, 45, 127
1, 114145, Note_off_c, 1, 45, 0
1, 114186, Note_on_c, 1, 77, 127
1, 114200, Note_off_c, 1, 69, 0
1, 114208, Note_on_c, 1, 76, 127
1, 114220, Note_off_c, 1, 77, 0
1, 114238, Note_off_c, 1, 76, 0
1, 114239, Note_on_c, 1, 50, 127
1, 114411, Note_on_c, 1, 65, 127
1, 114455, Note_off_c, 1, 65, 0
1, 114476, Note_on_c, 1, 62, 127
1, 114558, Note_off_c, 1, 50, 0
1, 114560, Note_off_c, 1, 62, 0
1, 114592, Note_on_c, 1, 52, 127
1, 114610, Note_on_c, 1, 53, 127
1, 114634, Note_off_c, 1, 52, 0
1, 114641, Note_on_c, 1, 55, 127
1, 114651, Note_on_c, 1, 81, 127
1, 114656, Note_on_c, 1, 57, 127
1, 114657, Note_on_c, 1, 72, 127
1, 114659, Note_off_c, 1, 53, 0
1, 114687, Note_on_c, 1, 59, 127
1, 114688, Note_off_c, 1, 55, 0
1, 114689, Note_off_c, 1, 72, 0
1, 114693, Note_off_c, 1, 81, 0
1, 114704, Note_off_c, 1, 57, 0
1, 114708, Note_on_c, 1, 79, 127
1, 114708, Note_on_c, 1, 60, 127
1, 114719, Note_on_c, 1, 62, 127
1, 114726, Note_off_c, 1, 59, 0
1, 114760, Note_on_c, 1, 78, 127
1, 114760, Note_on_c, 1, 71, 127
1, 114780, Note_off_c, 1, 60, 0
1, 114786, Note_off_c, 1, 71, 0
1, 114890, Note_on_c, 1, 64, 127
1, 114903, Note_off_c, 1, 78, 0
1, 114944, Note_off_c, 1, 64, 0
1, 115076, Note_off_c, 1, 62, 0
1, 115112, Note_on_c, 1, 76, 127
1, 115115, Note_off_c, 1, 79, 0
1, 115169, Note_off_c, 1, 76, 0
1, 115191, Note_on_c, 1, 74, 127
1, 115292, Note_off_c, 1, 74, 0
1, 115364, Note_on_c, 1, 69, 127
1, 115413, Note_off_c, 1, 69, 0
1, 115428, Note_on_c, 1, 67, 127
1, 115523, Note_off_c, 1, 67, 0
1, 115611, Note_on_c, 1, 65, 127
1, 115658, Note_off_c, 1, 65, 0
1, 115846, Note_on_c, 1, 77, 127
1, 115886, Note_off_c, 1, 77, 0
1, 116074, Note_on_c, 1, 64, 127
1, 116081, Note_on_c, 1, 79, 127
1, 116083, Note_on_c, 1, 72, 127
1, 116120, Note_off_c, 1, 79, 0
1, 116121, Note_off_c, 1, 64, 0
1, 116138, Note_off_c, 1, 72, 0
1, 116141, Note_on_c, 1, 64, 127
1, 116145, Note_on_c, 1, 65, 127
1, 116146, Note_on_c, 1, 72, 127
1, 116155, Note_on_c, 1, 81, 127
1, 116231, Note_off_c, 1, 72, 0
1, 116238, Note_off_c, 1, 65, 0
1, 116273, Note_off_c, 1, 64, 0
1, 116321, Note_on_c, 1, 69, 127
1, 116365, Note_off_c, 1, 69, 0
1, 116388, Note_on_c, 1, 77, 127
1, 116388, Note_on_c, 1, 62, 127
1, 116392, Note_on_c, 1, 74, 127
1, 116465, Note_off_c, 1, 77, 0
1, 116470, Note_off_c, 1, 74, 0
1, 116480, Note_off_c, 1, 62, 0
1, 116562, Note_on_c, 1, 76, 127
1, 116580, Note_on_c, 1, 60, 127
1, 116603, Note_off_c, 1, 76, 0
1, 116615, Note_off_c, 1, 60, 0
1, 116648, Note_off_c, 1, 81, 0
1, 116688, Note_on_c, 1, 79, 127
1, 116737, Note_off_c, 1, 79, 0
1, 116807, Note_on_c, 1, 83, 127
1, 116855, Note_off_c, 1, 83, 0
1, 116866, Note_on_c, 1, 84, 127
1, 116911, Note_off_c, 1, 84, 0
1, 117039, Note_on_c, 1, 72, 127
1, 117039, Note_on_c, 1, 84, 127
1, 117042, Note_on_c, 1, 64, 127
1, 117042, Note_on_c, 1, 62, 127
1, 117073, Note_off_c, 1, 62, 0
1, 117079, Note_off_c, 1, 72, 0
1, 117079, Note_off_c, 1, 64, 0
1, 117087, Note_off_c, 1, 84, 0
1, 117103, Note_on_c, 1, 65, 127
1, 117104, Note_on_c, 1, 71, 127
1, 117104, Note_on_c, 1, 62, 127
1, 117105, Note_on_c, 1, 77, 127
1, 117152, Note_off_c, 1, 65, 0
1, 117162, Note_off_c, 1, 77, 0
1, 117162, Note_on_c, 1, 67, 127
1, 117162, Note_on_c, 1, 76, 127
1, 117208, Note_off_c, 1, 67, 0
1, 117217, Note_off_c, 1, 76, 0
1, 117226, Note_on_c, 1, 69, 127
1, 117277, Note_off_c, 1, 69, 0
1, 117289, Note_on_c, 1, 79, 127
1, 117335, Note_off_c, 1, 79, 0
1, 117348, Note_on_c, 1, 81, 127
1, 117388, Note_off_c, 1, 62, 0
1, 117392, Note_off_c, 1, 81, 0
1, 117398, Note_on_c, 1, 60, 127
1, 117404, Note_on_c, 1, 64, 127
1, 117444, Note_off_c, 1, 60, 0
1, 117447, Note_off_c, 1, 64, 0
1, 117460, Note_on_c, 1, 59, 127
1, 117470, Note_off_c, 1, 71, 0
1, 117510, Note_off_c, 1, 59, 0
1, 117522, Note_on_c, 1, 60, 127
1, 117523, Note_on_c, 1, 64, 127
1, 117524, Note_on_c, 1, 74, 127
1, 117524, Note_on_c, 1, 81, 127
1, 117557, Note_off_c, 1, 74, 0
1, 117562, Note_off_c, 1, 64, 0
1, 117565, Note_off_c, 1, 60, 0
1, 117573, Note_off_c, 1, 81, 0
1, 117581, Note_on_c, 1, 62, 127
1, 117587, Note_on_c, 1, 65, 127
1, 117589, Note_on_c, 1, 67, 127
1, 117592, Note_on_c, 1, 71, 127
1, 117635, Note_off_c, 1, 62, 0
1, 117638, Note_on_c, 1, 60, 127
1, 117704, Note_off_c, 1, 60, 0
1, 117825, Note_on_c, 1, 64, 127
1, 117876, Note_off_c, 1, 64, 0
1, 117937, Note_off_c, 1, 67, 0
1, 117941, Note_off_c, 1, 65, 0
1, 117972, Note_off_c, 1, 71, 0
1, 118006, Note_on_c, 1, 72, 127
1, 118006, Note_on_c, 1, 62, 127
1, 118007, Note_on_c, 1, 64, 127
1, 118010, Note_on_c, 1, 67, 127
1, 118044, Note_off_c, 1, 64, 0
1, 118044, Note_off_c, 1, 67, 0
1, 118051, Note_off_c, 1, 72, 0
1, 118060, Note_off_c, 1, 62, 0
1, 118070, Note_on_c, 1, 74, 127
1, 118071, Note_on_c, 1, 62, 127
1, 118072, Note_on_c, 1, 67, 127
1, 118074, Note_on_c, 1, 59, 127
1, 118123, Note_off_c, 1, 74, 0
1, 118131, Note_on_c, 1, 71, 127
1, 118158, Note_off_c, 1, 62, 0
1, 118177, Note_off_c, 1, 71, 0
1, 118248, Note_on_c, 1, 64, 127
1, 118249, Note_on_c, 1, 69, 127
1, 118286, Note_off_c, 1, 64, 0
1, 118293, Note_off_c, 1, 69, 0
1, 118328, Note_off_c, 1, 67, 0
1, 118364, Note_on_c, 1, 72, 127
1, 118412, Note_off_c, 1, 72, 0
1, 118484, Note_on_c, 1, 76, 127
1, 118486, Note_on_c, 1, 60, 127
1, 118526, Note_off_c, 1, 60, 0
1, 118532, Note_off_c, 1, 76, 0
1, 118550, Note_on_c, 1, 77, 127
1, 118621, Note_off_c, 1, 59, 0
1, 118721, Note_on_c, 1, 57, 127
1, 118777, Note_on_c, 1, 55, 127
1, 118778, Note_off_c, 1, 57, 0
1, 118830, Note_off_c, 1, 55, 0
1, 118838, Note_on_c, 1, 53, 127
1, 118890, Note_off_c, 1, 53, 0
1, 118892, Note_on_c, 1, 52, 127
1, 118925, Note_off_c, 1, 77, 0
1, 118947, Note_on_c, 1, 50, 127
1, 118949, Note_off_c, 1, 52, 0
1, 119006, Note_off_c, 1, 50, 0
1, 119021, Note_on_c, 1, 48, 127
1, 119026, Note_on_c, 1, 71, 127
1, 119029, Note_on_c, 1, 77, 127
1, 119036, Note_on_c, 1, 74, 127
1, 119107, Note_off_c, 1, 71, 0
1, 119131, Note_off_c, 1, 74, 0
1, 119148, Note_off_c, 1, 77, 0
1, 119208, Note_on_c, 1, 72, 127
1, 119211, Note_on_c, 1, 76, 127
1, 119211, Note_on_c, 1, 67, 127
1, 119237, Note_off_c, 1, 72, 0
1, 119246, Note_off_c, 1, 76, 0
1, 119247, Note_off_c, 1, 67, 0
1, 119272, Note_on_c, 1, 60, 127
1, 119352, Note_off_c, 1, 60, 0
1, 119445, Note_on_c, 1, 62, 127
1, 119453, Note_on_c, 1, 69, 127
1, 119476, Note_on_c, 1, 79, 127
1, 119484, Note_off_c, 1, 62, 0
1, 119491, Note_off_c, 1, 69, 0
1, 119512, Note_off_c, 1, 79, 0
1, 119512, Note_on_c, 1, 64, 127
1, 119517, Note_on_c, 1, 70, 127
1, 119546, Note_off_c, 1, 48, 0
1, 119568, Note_on_c, 1, 46, 127
1, 119607, Note_off_c, 1, 46, 0
1, 119622, Note_on_c, 1, 45, 127
1, 119666, Note_off_c, 1, 45, 0
1, 119864, Note_off_c, 1, 70, 0
1, 119872, Note_off_c, 1, 64, 0
1, 119918, Note_on_c, 1, 48, 127
1, 119929, Note_on_c, 1, 67, 127
1, 119929, Note_on_c, 1, 64, 127
1, 119930, Note_on_c, 1, 70, 127
1, 119967, Note_off_c, 1, 67, 0
1, 119967, Note_off_c, 1, 64, 0
1, 119969, Note_off_c, 1, 48, 0
1, 119975, Note_off_c, 1, 70, 0
1, 119988, Note_on_c, 1, 70, 127
1, 119992, Note_on_c, 1, 64, 127
1, 119993, Note_on_c, 1, 41, 127
1, 119995, Note_on_c, 1, 67, 127
1, 120075, Note_off_c, 1, 64, 0
1, 120095, Note_off_c, 1, 67, 0
1, 120106, Note_off_c, 1, 70, 0
1, 120160, Note_on_c, 1, 69, 127
1, 120165, Note_on_c, 1, 65, 127
1, 120168, Note_on_c, 1, 60, 127
1, 120196, Note_off_c, 1, 65, 0
1, 120205, Note_off_c, 1, 60, 0
1, 120209, Note_off_c, 1, 69, 0
1, 120407, Note_on_c, 1, 71, 127
1, 120464, Note_off_c, 1, 71, 0
1, 120468, Note_on_c, 1, 72, 127
1, 120472, Note_on_c, 1, 62, 127
1, 120495, Note_off_c, 1, 41, 0
1, 120526, Note_on_c, 1, 40, 127
1, 120569, Note_off_c, 1, 62, 0
1, 120580, Note_off_c, 1, 40, 0
1, 120645, Note_on_c, 1, 43, 127
1, 120700, Note_off_c, 1, 43, 0
1, 120705, Note_on_c, 1, 45, 127
1, 120754, Note_off_c, 1, 45, 0
1, 120839, Note_off_c, 1, 72, 0
1, 120884, Note_on_c, 1, 45, 127
1, 120889, Note_on_c, 1, 67, 127
1, 120893, Note_on_c, 1, 64, 127
1, 120899, Note_on_c, 1, 72, 127
1, 120933, Note_off_c, 1, 64, 0
1, 120939, Note_off_c, 1, 45, 0
1, 120939, Note_off_c, 1, 72, 0
1, 120941, Note_off_c, 1, 67, 0
1, 120952, Note_on_c, 1, 65, 127
1, 120954, Note_on_c, 1, 72, 127
1, 120956, Note_on_c, 1, 69, 127
1, 120960, Note_on_c, 1, 38, 127
1, 121070, Note_off_c, 1, 72, 0
1, 121089, Note_off_c, 1, 65, 0
1, 121123, Note_off_c, 1, 69, 0
1, 121125, Note_on_c, 1, 71, 127
1, 121161, Note_off_c, 1, 71, 0
1, 121183, Note_on_c, 1, 77, 127
1, 121189, Note_on_c, 1, 62, 127
1, 121294, Note_off_c, 1, 77, 0
1, 121329, Note_off_c, 1, 62, 0
1, 121359, Note_on_c, 1, 76, 127
1, 121383, Note_on_c, 1, 74, 127
1, 121403, Note_off_c, 1, 76, 0
1, 121422, Note_off_c, 1, 74, 0
1, 121425, Note_on_c, 1, 83, 127
1, 121443, Note_off_c, 1, 38, 0
1, 121477, Note_on_c, 1, 36, 127
1, 121526, Note_off_c, 1, 83, 0
1, 121529, Note_off_c, 1, 36, 0
1, 121602, Note_on_c, 1, 81, 127
1, 121602, Note_on_c, 1, 40, 127
1, 121623, Note_on_c, 1, 79, 127
1, 121649, Note_off_c, 1, 81, 0
1, 121651, Note_off_c, 1, 40, 0
1, 121664, Note_on_c, 1, 41, 127
1, 121667, Note_off_c, 1, 79, 0
1, 121669, Note_on_c, 1, 86, 127
1, 121714, Note_off_c, 1, 41, 0
1, 121774, Note_off_c, 1, 86, 0
1, 121834, Note_on_c, 1, 38, 127
1, 121844, Note_on_c, 1, 72, 127
1, 121846, Note_on_c, 1, 77, 127
1, 121847, Note_on_c, 1, 69, 127
1, 121889, Note_off_c, 1, 38, 0
1, 121889, Note_off_c, 1, 69, 0
1, 121891, Note_off_c, 1, 77, 0
1, 121892, Note_off_c, 1, 72, 0
1, 121908, Note_on_c, 1, 71, 127
1, 121911, Note_on_c, 1, 62, 127
1, 121914, Note_on_c, 1, 43, 127
1, 121915, Note_on_c, 1, 77, 127
1, 122014, Note_off_c, 1, 71, 0
1, 122016, Note_off_c, 1, 62, 0
1, 122033, Note_off_c, 1, 43, 0
1, 122087, Note_on_c, 1, 65, 127
1, 122137, Note_off_c, 1, 65, 0
1, 122147, Note_on_c, 1, 72, 127
1, 122150, Note_on_c, 1, 64, 127
1, 122150, Note_on_c, 1, 45, 127
1, 122198, Note_off_c, 1, 77, 0
1, 122204, Note_on_c, 1, 81, 127
1, 122237, Note_off_c, 1, 72, 0
1, 122239, Note_off_c, 1, 64, 0
1, 122241, Note_off_c, 1, 45, 0
1, 122257, Note_off_c, 1, 81, 0
1, 122263, Note_on_c, 1, 79, 127
1, 122321, Note_on_c, 1, 77, 127
1, 122328, Note_off_c, 1, 79, 0
1, 122329, Note_on_c, 1, 74, 127
1, 122332, Note_on_c, 1, 47, 127
1, 122334, Note_on_c, 1, 62, 127
1, 122366, Note_off_c, 1, 74, 0
1, 122368, Note_off_c, 1, 77, 0
1, 122376, Note_off_c, 1, 47, 0
1, 122378, Note_off_c, 1, 62, 0
1, 122389, Note_on_c, 1, 76, 127
1, 122389, Note_on_c, 1, 67, 127
1, 122391, Note_on_c, 1, 48, 127
1, 122398, Note_on_c, 1, 60, 127
1, 122438, Note_off_c, 1, 76, 0
1, 122450, Note_on_c, 1, 72, 127
1, 122490, Note_off_c, 1, 48, 0
1, 122491, Note_off_c, 1, 67, 0
1, 122495, Note_off_c, 1, 72, 0
1, 122510, Note_on_c, 1, 74, 127
1, 122553, Note_off_c, 1, 74, 0
1, 122565, Note_on_c, 1, 70, 127
1, 122610, Note_off_c, 1, 70, 0
1, 122628, Note_on_c, 1, 69, 127
1, 122628, Note_on_c, 1, 50, 127
1, 122631, Note_on_c, 1, 77, 127
1, 122680, Note_off_c, 1, 77, 0
1, 122685, Note_on_c, 1, 79, 127
1, 122714, Note_off_c, 1, 69, 0
1, 122729, Note_off_c, 1, 60, 0
1, 122729, Note_off_c, 1, 50, 0
1, 122740, Note_off_c, 1, 79, 0
1, 122752, Note_on_c, 1, 81, 127
1, 122798, Note_off_c, 1, 81, 0
1, 122798, Note_on_c, 1, 52, 127
1, 122803, Note_on_c, 1, 67, 127
1, 122803, Note_on_c, 1, 60, 127
1, 122812, Note_on_c, 1, 82, 127
1, 122843, Note_off_c, 1, 52, 0
1, 122845, Note_off_c, 1, 67, 0
1, 122846, Note_off_c, 1, 60, 0
1, 122857, Note_off_c, 1, 82, 0
1, 122868, Note_on_c, 1, 81, 127
1, 122868, Note_on_c, 1, 53, 127
1, 122870, Note_on_c, 1, 60, 127
1, 122871, Note_on_c, 1, 65, 127
1, 122920, Note_off_c, 1, 81, 0
1, 122929, Note_on_c, 1, 79, 127
1, 122960, Note_off_c, 1, 65, 0
1, 122968, Note_off_c, 1, 60, 0
1, 122981, Note_off_c, 1, 79, 0
1, 122986, Note_on_c, 1, 77, 127
1, 123034, Note_off_c, 1, 77, 0
1, 123037, Note_on_c, 1, 57, 127
1, 123043, Note_on_c, 1, 67, 127
1, 123049, Note_on_c, 1, 76, 127
1, 123081, Note_off_c, 1, 57, 0
1, 123087, Note_off_c, 1, 67, 0
1, 123094, Note_off_c, 1, 76, 0
1, 123107, Note_on_c, 1, 62, 127
1, 123113, Note_on_c, 1, 69, 127
1, 123165, Note_on_c, 1, 74, 127
1, 123191, Note_off_c, 1, 69, 0
1, 123201, Note_off_c, 1, 62, 0
1, 123212, Note_off_c, 1, 74, 0
1, 123362, Note_on_c, 1, 59, 127
1, 123380, Note_off_c, 1, 53, 0
1, 123404, Note_on_c, 1, 55, 127
1, 123448, Note_off_c, 1, 55, 0
1, 123449, Note_off_c, 1, 59, 0
1, 123522, Note_on_c, 1, 52, 127
1, 123562, Note_off_c, 1, 52, 0
1, 123582, Note_on_c, 1, 50, 127
1, 123629, Note_off_c, 1, 50, 0
1, 123637, Note_on_c, 1, 48, 127
1, 123688, Note_off_c, 1, 48, 0
1, 123696, Note_on_c, 1, 47, 127
1, 123705, Note_on_c, 1, 69, 127
1, 123732, Note_on_c, 1, 71, 127
1, 123752, Note_off_c, 1, 69, 0
1, 123760, Note_off_c, 1, 47, 0
1, 123760, Note_on_c, 1, 72, 127
1, 123760, Note_on_c, 1, 45, 127
1, 123765, Note_off_c, 1, 71, 0
1, 123779, Note_on_c, 1, 60, 127
1, 123783, Note_on_c, 1, 74, 127
1, 123804, Note_on_c, 1, 76, 127
1, 123809, Note_off_c, 1, 72, 0
1, 123815, Note_off_c, 1, 45, 0
1, 123823, Note_off_c, 1, 60, 0
1, 123825, Note_off_c, 1, 74, 0
1, 123826, Note_on_c, 1, 77, 127
1, 123828, Note_on_c, 1, 43, 127
1, 123837, Note_on_c, 1, 62, 127
1, 123842, Note_off_c, 1, 76, 0
1, 123929, Note_off_c, 1, 62, 0
1, 123930, Note_off_c, 1, 43, 0
1, 123935, Note_off_c, 1, 77, 0
1, 124010, Note_on_c, 1, 74, 127
1, 124013, Note_on_c, 1, 55, 127
1, 124014, Note_on_c, 1, 47, 127
1, 124056, Note_off_c, 1, 55, 0
1, 124058, Note_off_c, 1, 47, 0
1, 124059, Note_off_c, 1, 74, 0
1, 124073, Note_on_c, 1, 76, 127
1, 124076, Note_on_c, 1, 67, 127
1, 124076, Note_on_c, 1, 48, 127
1, 124077, Note_on_c, 1, 72, 127
1, 124149, Note_off_c, 1, 76, 0
1, 124152, Note_off_c, 1, 72, 0
1, 124156, Note_off_c, 1, 67, 0
1, 124158, Note_off_c, 1, 48, 0
1, 124239, Note_on_c, 1, 74, 127
1, 124244, Note_on_c, 1, 77, 127
1, 124249, Note_on_c, 1, 69, 127
1, 124249, Note_on_c, 1, 41, 127
1, 124272, Note_off_c, 1, 74, 0
1, 124284, Note_off_c, 1, 69, 0
1, 124285, Note_off_c, 1, 77, 0
1, 124291, Note_off_c, 1, 41, 0
1, 124311, Note_on_c, 1, 72, 127
1, 124313, Note_on_c, 1, 67, 127
1, 124314, Note_on_c, 1, 76, 127
1, 124314, Note_on_c, 1, 43, 127
1, 124375, Note_on_c, 1, 71, 127
1, 124379, Note_on_c, 1, 74, 127
1, 124381, Note_off_c, 1, 72, 0
1, 124395, Note_off_c, 1, 76, 0
1, 124401, Note_off_c, 1, 71, 0
1, 124422, Note_off_c, 1, 74, 0
1, 124462, Note_off_c, 1, 67, 0
1, 124504, Note_off_c, 1, 43, 0
1, 124547, Note_on_c, 1, 62, 127
1, 124711, Note_off_c, 1, 62, 0
1, 124718, Note_on_c, 1, 67, 127
1, 124726, Note_on_c, 1, 72, 127
1, 124758, Note_off_c, 1, 67, 0
1, 124769, Note_off_c, 1, 72, 0
1, 124791, Note_on_c, 1, 64, 127
1, 124794, Note_on_c, 1, 72, 127
1, 124796, Note_on_c, 1, 36, 127
1, 124797, Note_on_c, 1, 67, 127
1, 124851, Note_off_c, 1, 72, 0
1, 124864, Note_off_c, 1, 67, 0
1, 124878, Note_off_c, 1, 36, 0
1, 124890, Note_off_c, 1, 64, 0
1, 124912, Note_on_c, 1, 79, 127
1, 124959, Note_off_c, 1, 79, 0
1, 125026, Note_on_c, 1, 79, 127
1, 125077, Note_off_c, 1, 79, 0
1, 125146, Note_on_c, 1, 79, 127
1, 125195, Note_off_c, 1, 79, 0
1, 125266, Note_on_c, 1, 76, 127
1, 125381, Note_on_c, 1, 77, 127
1, 125389, Note_off_c, 1, 76, 0
1, 125431, Note_on_c, 1, 79, 127
1, 125438, Note_off_c, 1, 77, 0
1, 125489, Note_off_c, 1, 79, 0
1, 125490, Note_on_c, 1, 81, 127
1, 125540, Note_off_c, 1, 81, 0
1, 125610, Note_on_c, 1, 77, 127
1, 125669, Note_off_c, 1, 77, 0
1, 125735, Note_on_c, 1, 74, 127
1, 125793, Note_off_c, 1, 74, 0
1, 125856, Note_on_c, 1, 79, 127
1, 125917, Note_off_c, 1, 79, 0
1, 125984, Note_on_c, 1, 67, 127
1, 126047, Note_off_c, 1, 67, 0
1, 126113, Note_on_c, 1, 77, 127
1, 126165, Note_off_c, 1, 77, 0
1, 126237, Note_on_c, 1, 76, 127
1, 126288, Note_on_c, 1, 74, 127
1, 126305, Note_off_c, 1, 76, 0
1, 126352, Note_off_c, 1, 74, 0
1, 126352, Note_on_c, 1, 72, 127
1, 126424, Note_off_c, 1, 72, 0
1, 126635, Note_on_c, 1, 78, 127
1, 126693, Note_off_c, 1, 78, 0
1, 126702, Note_on_c, 1, 79, 127
1, 126705, Note_on_c, 1, 71, 127
1, 126821, Note_on_c, 1, 72, 127
1, 126825, Note_off_c, 1, 71, 0
1, 126832, Note_off_c, 1, 79, 0
1, 126869, Note_off_c, 1, 72, 0
1, 126870, Note_on_c, 1, 74, 127
1, 126930, Note_off_c, 1, 74, 0
1, 126936, Note_on_c, 1, 76, 127
1, 126950, Note_on_c, 1, 79, 127
1, 126979, Note_off_c, 1, 76, 0
1, 127059, Note_on_c, 1, 72, 127
1, 127070, Note_off_c, 1, 79, 0
1, 127103, Note_off_c, 1, 72, 0
1, 127128, Note_on_c, 1, 79, 127
1, 127163, Note_off_c, 1, 79, 0
1, 127184, Note_on_c, 1, 69, 127
1, 127186, Note_on_c, 1, 79, 127
1, 127229, Note_off_c, 1, 69, 0
1, 127300, Note_off_c, 1, 79, 0
1, 127304, Note_on_c, 1, 74, 127
1, 127346, Note_on_c, 1, 78, 127
1, 127348, Note_off_c, 1, 74, 0
1, 127380, Note_on_c, 1, 76, 127
1, 127392, Note_off_c, 1, 78, 0
1, 127424, Note_on_c, 1, 62, 127
1, 127429, Note_off_c, 1, 76, 0
1, 127433, Note_on_c, 1, 79, 127
1, 127472, Note_off_c, 1, 62, 0
1, 127542, Note_on_c, 1, 72, 127
1, 127549, Note_off_c, 1, 79, 0
1, 127584, Note_off_c, 1, 72, 0
1, 127602, Note_on_c, 1, 79, 127
1, 127640, Note_off_c, 1, 79, 0
1, 127667, Note_on_c, 1, 79, 127
1, 127670, Note_on_c, 1, 71, 127
1, 127723, Note_on_c, 1, 69, 127
1, 127728, Note_off_c, 1, 71, 0
1, 127773, Note_off_c, 1, 79, 0
1, 127776, Note_off_c, 1, 69, 0
1, 127782, Note_on_c, 1, 67, 127
1, 127788, Note_on_c, 1, 77, 127
1, 127838, Note_on_c, 1, 69, 127
1, 127840, Note_on_c, 1, 76, 127
1, 127848, Note_off_c, 1, 67, 0
1, 127849, Note_off_c, 1, 77, 0
1, 127889, Note_off_c, 1, 69, 0
1, 127895, Note_off_c, 1, 76, 0
1, 127901, Note_on_c, 1, 74, 127
1, 127906, Note_on_c, 1, 67, 127
1, 127908, Note_on_c, 1, 71, 127
1, 127949, Note_off_c, 1, 67, 0
1, 127963, Note_off_c, 1, 74, 0
1, 128004, Note_on_c, 1, 72, 127
1, 128016, Note_off_c, 1, 71, 0
1, 128021, Note_on_c, 1, 69, 127
1, 128065, Note_off_c, 1, 72, 0
1, 128076, Note_off_c, 1, 69, 0
1, 128130, Note_on_c, 1, 67, 127
1, 128142, Note_on_c, 1, 72, 127
1, 128144, Note_on_c, 1, 64, 127
1, 128189, Note_off_c, 1, 67, 0
1, 128240, Note_off_c, 1, 72, 0
1, 128254, Note_off_c, 1, 64, 0
1, 128261, Note_on_c, 1, 65, 127
1, 128262, Note_on_c, 1, 79, 127
1, 128306, Note_off_c, 1, 79, 0
1, 128312, Note_off_c, 1, 65, 0
1, 128313, Note_on_c, 1, 67, 127
1, 128360, Note_off_c, 1, 67, 0
1, 128379, Note_on_c, 1, 69, 127
1, 128384, Note_on_c, 1, 72, 127
1, 128388, Note_on_c, 1, 76, 127
1, 128416, Note_off_c, 1, 69, 0
1, 128433, Note_off_c, 1, 76, 0
1, 128491, Note_off_c, 1, 72, 0
1, 128495, Note_on_c, 1, 65, 127
1, 128507, Note_on_c, 1, 81, 127
1, 128543, Note_off_c, 1, 65, 0
1, 128555, Note_on_c, 1, 72, 127
1, 128564, Note_off_c, 1, 81, 0
1, 128587, Note_off_c, 1, 72, 0
1, 128624, Note_on_c, 1, 62, 127
1, 128627, Note_on_c, 1, 72, 127
1, 128635, Note_on_c, 1, 77, 127
1, 128671, Note_off_c, 1, 62, 0
1, 128688, Note_on_c, 1, 71, 127
1, 128689, Note_off_c, 1, 72, 0
1, 128689, Note_on_c, 1, 79, 127
1, 128701, Note_off_c, 1, 77, 0
1, 128740, Note_off_c, 1, 71, 0
1, 128741, Note_on_c, 1, 69, 127
1, 128743, Note_on_c, 1, 67, 127
1, 128749, Note_off_c, 1, 79, 0
1, 128783, Note_off_c, 1, 67, 0
1, 128807, Note_off_c, 1, 69, 0
1, 128810, Note_on_c, 1, 76, 127
1, 128867, Note_off_c, 1, 76, 0
1, 128867, Note_on_c, 1, 55, 127
1, 128872, Note_on_c, 1, 74, 127
1, 128919, Note_off_c, 1, 55, 0
1, 128937, Note_off_c, 1, 74, 0
1, 128984, Note_on_c, 1, 65, 127
1, 129030, Note_off_c, 1, 65, 0
1, 129105, Note_on_c, 1, 72, 127
1, 129110, Note_on_c, 1, 79, 127
1, 129114, Note_on_c, 1, 64, 127
1, 129164, Note_on_c, 1, 77, 127
1, 129174, Note_on_c, 1, 62, 127
1, 129176, Note_off_c, 1, 64, 0
1, 129188, Note_off_c, 1, 79, 0
1, 129203, Note_off_c, 1, 72, 0
1, 129229, Note_on_c, 1, 60, 127
1, 129230, Note_on_c, 1, 76, 127
1, 129231, Note_on_c, 1, 67, 127
1, 129233, Note_off_c, 1, 62, 0
1, 129250, Note_off_c, 1, 77, 0
1, 129281, Note_off_c, 1, 67, 0
1, 129285, Note_on_c, 1, 65, 127
1, 129285, Note_on_c, 1, 74, 127
1, 129292, Note_off_c, 1, 60, 0
1, 129294, Note_off_c, 1, 76, 0
1, 129329, Note_off_c, 1, 65, 0
1, 129346, Note_off_c, 1, 74, 0
1, 129348, Note_on_c, 1, 60, 127
1, 129349, Note_on_c, 1, 64, 127
1, 129352, Note_on_c, 1, 72, 127
1, 129352, Note_on_c, 1, 67, 127
1, 129392, Note_off_c, 1, 60, 0
1, 129392, Note_off_c, 1, 67, 0
1, 129397, Note_off_c, 1, 64, 0
1, 129402, Note_on_c, 1, 62, 127
1, 129405, Note_on_c, 1, 71, 127
1, 129408, Note_off_c, 1, 72, 0
1, 129461, Note_off_c, 1, 71, 0
1, 129465, Note_off_c, 1, 62, 0
1, 129472, Note_on_c, 1, 76, 127
1, 129509, Note_off_c, 1, 76, 0
1, 129518, Note_on_c, 1, 69, 127
1, 129523, Note_on_c, 1, 66, 127
1, 129563, Note_off_c, 1, 66, 0
1, 129576, Note_off_c, 1, 69, 0
1, 129582, Note_on_c, 1, 74, 127
1, 129588, Note_on_c, 1, 59, 127
1, 129590, Note_on_c, 1, 67, 127
1, 129647, Note_on_c, 1, 72, 127
1, 129691, Note_off_c, 1, 67, 0
1, 129697, Note_off_c, 1, 74, 0
1, 129702, Note_on_c, 1, 60, 127
1, 129706, Note_on_c, 1, 76, 127
1, 129709, Note_off_c, 1, 59, 0
1, 129709, Note_off_c, 1, 72, 0
1, 129709, Note_on_c, 1, 71, 127
1, 129757, Note_on_c, 1, 62, 127
1, 129758, Note_off_c, 1, 71, 0
1, 129759, Note_on_c, 1, 69, 127
1, 129760, Note_off_c, 1, 60, 0
1, 129761, Note_on_c, 1, 78, 127
1, 129764, Note_off_c, 1, 76, 0
1, 129801, Note_off_c, 1, 62, 0
1, 129804, Note_off_c, 1, 69, 0
1, 129810, Note_off_c, 1, 78, 0
1, 129820, Note_on_c, 1, 67, 127
1, 129821, Note_on_c, 1, 64, 127
1, 129829, Note_on_c, 1, 79, 127
1, 129874, Note_off_c, 1, 64, 0
1, 129930, Note_off_c, 1, 79, 0
1, 129935, Note_off_c, 1, 67, 0
1, 129942, Note_on_c, 1, 76, 127
1, 129944, Note_on_c, 1, 60, 127
1, 129949, Note_on_c, 1, 81, 127
1, 129993, Note_off_c, 1, 60, 0
1, 129999, Note_off_c, 1, 81, 0
1, 129999, Note_on_c, 1, 74, 127
1, 130001, Note_on_c, 1, 83, 127
1, 130003, Note_on_c, 1, 67, 127
1, 130004, Note_off_c, 1, 76, 0
1, 130033, Note_off_c, 1, 67, 0
1, 130047, Note_off_c, 1, 74, 0
1, 130047, Note_off_c, 1, 83, 0
1, 130063, Note_on_c, 1, 84, 127
1, 130067, Note_on_c, 1, 57, 127
1, 130068, Note_on_c, 1, 76, 127
1, 130071, Note_on_c, 1, 67, 127
1, 130106, Note_off_c, 1, 76, 0
1, 130126, Note_off_c, 1, 57, 0
1, 130175, Note_off_c, 1, 67, 0
1, 130187, Note_off_c, 1, 84, 0
1, 130188, Note_on_c, 1, 69, 127
1, 130189, Note_on_c, 1, 62, 127
1, 130219, Note_on_c, 1, 66, 127
1, 130230, Note_off_c, 1, 62, 0
1, 130236, Note_off_c, 1, 69, 0
1, 130242, Note_on_c, 1, 83, 127
1, 130250, Note_on_c, 1, 64, 127
1, 130253, Note_off_c, 1, 66, 0
1, 130282, Note_off_c, 1, 83, 0
1, 130286, Note_off_c, 1, 64, 0
1, 130307, Note_on_c, 1, 67, 127
1, 130308, Note_on_c, 1, 50, 127
1, 130315, Note_on_c, 1, 74, 127
1, 130327, Note_on_c, 1, 81, 127
1, 130344, Note_off_c, 1, 67, 0
1, 130366, Note_off_c, 1, 50, 0
1, 130369, Note_on_c, 1, 72, 127
1, 130371, Note_off_c, 1, 81, 0
1, 130382, Note_off_c, 1, 74, 0
1, 130427, Note_on_c, 1, 71, 127
1, 130427, Note_on_c, 1, 60, 127
1, 130433, Note_off_c, 1, 72, 0
1, 130473, Note_off_c, 1, 60, 0
1, 130477, Note_on_c, 1, 79, 127
1, 130495, Note_off_c, 1, 71, 0
1, 130527, Note_off_c, 1, 79, 0
1, 130548, Note_on_c, 1, 67, 127
1, 130551, Note_on_c, 1, 79, 127
1, 130554, Note_on_c, 1, 74, 127
1, 130554, Note_on_c, 1, 59, 127
1, 130601, Note_on_c, 1, 69, 127
1, 130613, Note_on_c, 1, 57, 127
1, 130616, Note_off_c, 1, 67, 0
1, 130617, Note_off_c, 1, 59, 0
1, 130655, Note_on_c, 1, 71, 127
1, 130657, Note_off_c, 1, 69, 0
1, 130665, Note_off_c, 1, 57, 0
1, 130668, Note_on_c, 1, 55, 127
1, 130675, Note_off_c, 1, 79, 0
1, 130677, Note_on_c, 1, 77, 127
1, 130710, Note_off_c, 1, 71, 0
1, 130711, Note_on_c, 1, 72, 127
1, 130728, Note_on_c, 1, 76, 127
1, 130729, Note_off_c, 1, 77, 0
1, 130738, Note_off_c, 1, 55, 0
1, 130761, Note_off_c, 1, 72, 0
1, 130776, Note_off_c, 1, 76, 0
1, 130854, Note_off_c, 1, 74, 0
1, 131024, Note_on_c, 1, 72, 127
1, 131024, Note_on_c, 1, 60, 127
1, 131028, Note_on_c, 1, 76, 127
1, 131032, Note_on_c, 1, 67, 127
1, 131079, Note_off_c, 1, 60, 0
1, 131084, Note_on_c, 1, 79, 127
1, 131085, Note_off_c, 1, 76, 0
1, 131144, Note_on_c, 1, 55, 127
1, 131148, Note_off_c, 1, 79, 0
1, 131149, Note_on_c, 1, 77, 127
1, 131161, Note_off_c, 1, 67, 0
1, 131172, Note_off_c, 1, 72, 0
1, 131192, Note_off_c, 1, 55, 0
1, 131200, Note_on_c, 1, 74, 127
1, 131212, Note_off_c, 1, 77, 0
1, 131237, Note_off_c, 1, 74, 0
1, 131257, Note_on_c, 1, 64, 127
1, 131268, Note_on_c, 1, 81, 127
1, 131327, Note_on_c, 1, 71, 127
1, 131336, Note_off_c, 1, 81, 0
1, 131384, Note_off_c, 1, 64, 0
1, 131384, Note_off_c, 1, 71, 0
1, 131387, Note_on_c, 1, 69, 127
1, 131438, Note_off_c, 1, 69, 0
1, 131510, Note_on_c, 1, 65, 127
1, 131567, Note_on_c, 1, 59, 127
1, 131615, Note_off_c, 1, 59, 0
1, 131626, Note_on_c, 1, 57, 127
1, 131638, Note_off_c, 1, 65, 0
1, 131730, Note_off_c, 1, 57, 0
1, 131746, Note_on_c, 1, 62, 127
1, 131886, Note_off_c, 1, 62, 0
1, 131987, Note_on_c, 1, 72, 127
1, 131990, Note_on_c, 1, 59, 127
1, 131992, Note_on_c, 1, 67, 127
1, 131994, Note_on_c, 1, 64, 127
1, 132032, Note_off_c, 1, 59, 0
1, 132040, Note_off_c, 1, 67, 0
1, 132042, Note_on_c, 1, 76, 127
1, 132043, Note_off_c, 1, 72, 0
1, 132109, Note_on_c, 1, 74, 127
1, 132112, Note_on_c, 1, 55, 127
1, 132113, Note_on_c, 1, 52, 127
1, 132116, Note_off_c, 1, 64, 0
1, 132118, Note_off_c, 1, 76, 0
1, 132164, Note_off_c, 1, 52, 0
1, 132167, Note_off_c, 1, 55, 0
1, 132171, Note_on_c, 1, 71, 127
1, 132177, Note_off_c, 1, 74, 0
1, 132199, Note_off_c, 1, 71, 0
1, 132227, Note_on_c, 1, 77, 127
1, 132232, Note_on_c, 1, 60, 127
1, 132238, Note_on_c, 1, 57, 127
1, 132240, Note_on_c, 1, 69, 127
1, 132297, Note_off_c, 1, 77, 0
1, 132323, Note_off_c, 1, 69, 0
1, 132362, Note_on_c, 1, 65, 127
1, 132366, Note_off_c, 1, 60, 0
1, 132386, Note_off_c, 1, 57, 0
1, 132414, Note_off_c, 1, 65, 0
1, 132468, Note_on_c, 1, 71, 127
1, 132477, Note_on_c, 1, 65, 127
1, 132482, Note_on_c, 1, 57, 127
1, 132483, Note_on_c, 1, 62, 127
1, 132526, Note_on_c, 1, 74, 127
1, 132527, Note_off_c, 1, 65, 0
1, 132530, Note_off_c, 1, 71, 0
1, 132533, Note_on_c, 1, 55, 127
1, 132539, Note_off_c, 1, 57, 0
1, 132585, Note_on_c, 1, 72, 127
1, 132586, Note_off_c, 1, 55, 0
1, 132599, Note_off_c, 1, 74, 0
1, 132602, Note_on_c, 1, 53, 127
1, 132604, Note_off_c, 1, 62, 0
1, 132648, Note_on_c, 1, 69, 127
1, 132660, Note_off_c, 1, 72, 0
1, 132679, Note_off_c, 1, 69, 0
1, 132701, Note_off_c, 1, 53, 0
1, 132706, Note_on_c, 1, 76, 127
1, 132716, Note_on_c, 1, 67, 127
1, 132720, Note_on_c, 1, 59, 127
1, 132773, Note_off_c, 1, 76, 0
1, 132795, Note_off_c, 1, 67, 0
1, 132831, Note_on_c, 1, 64, 127
1, 132851, Note_off_c, 1, 59, 0
1, 132886, Note_off_c, 1, 64, 0
1, 132956, Note_on_c, 1, 60, 127
1, 133071, Note_on_c, 1, 52, 127
1, 133074, Note_on_c, 1, 48, 127
1, 133092, Note_off_c, 1, 60, 0
1, 133126, Note_off_c, 1, 52, 0
1, 133126, Note_off_c, 1, 48, 0
1, 133537, Note_on_c, 1, 53, 127
1, 133543, Note_on_c, 1, 62, 127
1, 133545, Note_on_c, 1, 79, 127
1, 133545, Note_on_c, 1, 71, 127
1, 133585, Note_off_c, 1, 62, 0
1, 133590, Note_off_c, 1, 53, 0
1, 133591, Note_off_c, 1, 71, 0
1, 133592, Note_on_c, 1, 59, 127
1, 133592, Note_on_c, 1, 50, 127
1, 133594, Note_off_c, 1, 79, 0
1, 133633, Note_off_c, 1, 50, 0
1, 133641, Note_off_c, 1, 59, 0
1, 133657, Note_on_c, 1, 52, 127
1, 133663, Note_on_c, 1, 64, 127
1, 133669, Note_on_c, 1, 79, 127
1, 133670, Note_on_c, 1, 67, 127
1, 133714, Note_on_c, 1, 53, 127
1, 133722, Note_off_c, 1, 79, 0
1, 133724, Note_off_c, 1, 64, 0
1, 133725, Note_on_c, 1, 69, 127
1, 133731, Note_off_c, 1, 52, 0
1, 133737, Note_off_c, 1, 67, 0
1, 133771, Note_on_c, 1, 55, 127
1, 133779, Note_off_c, 1, 53, 0
1, 133782, Note_on_c, 1, 71, 127
1, 133784, Note_on_c, 1, 62, 127
1, 133785, Note_off_c, 1, 69, 0
1, 133824, Note_off_c, 1, 62, 0
1, 133827, Note_off_c, 1, 55, 0
1, 133839, Note_off_c, 1, 71, 0
1, 133901, Note_on_c, 1, 57, 127
1, 133907, Note_on_c, 1, 72, 127
1, 133908, Note_on_c, 1, 60, 127
1, 133914, Note_on_c, 1, 76, 127
1, 133960, Note_on_c, 1, 58, 127
1, 133966, Note_on_c, 1, 74, 127
1, 133969, Note_off_c, 1, 57, 0
1, 133970, Note_off_c, 1, 72, 0
1, 134019, Note_off_c, 1, 60, 0
1, 134023, Note_off_c, 1, 74, 0
1, 134027, Note_on_c, 1, 62, 127
1, 134035, Note_off_c, 1, 58, 0
1, 134037, Note_off_c, 1, 76, 0
1, 134038, Note_on_c, 1, 77, 127
1, 134072, Note_on_c, 1, 64, 127
1, 134077, Note_off_c, 1, 62, 0
1, 134081, Note_on_c, 1, 55, 127
1, 134084, Note_on_c, 1, 70, 127
1, 134088, Note_on_c, 1, 79, 127
1, 134101, Note_off_c, 1, 77, 0
1, 134122, Note_off_c, 1, 64, 0
1, 134133, Note_off_c, 1, 70, 0
1, 134137, Note_on_c, 1, 53, 127
1, 134138, Note_on_c, 1, 65, 127
1, 134141, Note_off_c, 1, 55, 0
1, 134150, Note_on_c, 1, 81, 127
1, 134151, Note_off_c, 1, 79, 0
1, 134158, Note_on_c, 1, 69, 127
1, 134196, Note_on_c, 1, 52, 127
1, 134197, Note_off_c, 1, 65, 0
1, 134204, Note_off_c, 1, 81, 0
1, 134211, Note_off_c, 1, 53, 0
1, 134212, Note_off_c, 1, 69, 0
1, 134258, Note_on_c, 1, 50, 127
1, 134269, Note_off_c, 1, 52, 0
1, 134318, Note_on_c, 1, 48, 127
1, 134330, Note_off_c, 1, 50, 0
1, 134369, Note_off_c, 1, 48, 0
1, 134377, Note_on_c, 1, 47, 127
1, 134392, Note_on_c, 1, 74, 127
1, 134393, Note_on_c, 1, 67, 127
1, 134440, Note_on_c, 1, 45, 127
1, 134442, Note_off_c, 1, 67, 0
1, 134455, Note_on_c, 1, 72, 127
1, 134464, Note_off_c, 1, 47, 0
1, 134466, Note_off_c, 1, 74, 0
1, 134507, Note_on_c, 1, 79, 127
1, 134508, Note_off_c, 1, 72, 0
1, 134509, Note_on_c, 1, 71, 127
1, 134509, Note_on_c, 1, 62, 127
1, 134514, Note_on_c, 1, 64, 127
1, 134514, Note_on_c, 1, 43, 127
1, 134518, Note_off_c, 1, 45, 0
1, 134548, Note_off_c, 1, 64, 0
1, 134553, Note_off_c, 1, 79, 0
1, 134566, Note_off_c, 1, 71, 0
1, 134568, Note_off_c, 1, 62, 0
1, 134576, Note_off_c, 1, 43, 0
1, 134748, Note_on_c, 1, 77, 127
1, 134804, Note_off_c, 1, 77, 0
1, 134860, Note_on_c, 1, 49, 127
1, 134864, Note_on_c, 1, 48, 127
1, 134866, Note_on_c, 1, 72, 127
1, 134867, Note_on_c, 1, 76, 127
1, 134868, Note_on_c, 1, 67, 127
1, 134870, Note_off_c, 1, 49, 0
1, 134928, Note_off_c, 1, 67, 0
1, 134929, Note_off_c, 1, 48, 0
1, 134979, Note_off_c, 1, 72, 0
1, 134989, Note_on_c, 1, 69, 127
1, 134991, Note_on_c, 1, 53, 127
1, 135017, Note_off_c, 1, 76, 0
1, 135027, Note_on_c, 1, 74, 127
1, 135040, Note_off_c, 1, 69, 0
1, 135044, Note_off_c, 1, 53, 0
1, 135090, Note_off_c, 1, 74, 0
1, 135093, Note_on_c, 1, 72, 127
1, 135104, Note_on_c, 1, 62, 127
1, 135110, Note_on_c, 1, 76, 127
1, 135115, Note_on_c, 1, 55, 127
1, 135120, Note_on_c, 1, 71, 127
1, 135125, Note_off_c, 1, 72, 0
1, 135132, Note_on_c, 1, 74, 127
1, 135152, Note_off_c, 1, 76, 0
1, 135153, Note_off_c, 1, 62, 0
1, 135156, Note_off_c, 1, 71, 0
1, 135165, Note_off_c, 1, 55, 0
1, 135224, Note_on_c, 1, 67, 127
1, 135232, Note_on_c, 1, 43, 127
1, 135264, Note_off_c, 1, 74, 0
1, 135272, Note_off_c, 1, 67, 0
1, 135286, Note_off_c, 1, 43, 0
1, 135350, Note_on_c, 1, 72, 127
1, 135350, Note_on_c, 1, 64, 127
1, 135353, Note_on_c, 1, 48, 127
1, 135354, Note_on_c, 1, 67, 127
1, 135406, Note_on_c, 1, 47, 127
1, 135475, Note_off_c, 1, 47, 0
1, 135479, Note_on_c, 1, 76, 127
1, 135485, Note_off_c, 1, 67, 0
1, 135492, Note_off_c, 1, 64, 0
1, 135517, Note_off_c, 1, 76, 0
1, 135527, Note_off_c, 1, 48, 0
1, 135527, Note_on_c, 1, 50, 127
1, 135528, Note_off_c, 1, 72, 0
1, 135573, Note_off_c, 1, 50, 0
1, 135586, Note_on_c, 1, 48, 127
1, 135594, Note_on_c, 1, 76, 127
1, 135637, Note_off_c, 1, 48, 0
1, 135637, Note_off_c, 1, 76, 0
1, 135638, Note_on_c, 1, 50, 127
1, 135700, Note_off_c, 1, 50, 0
1, 135701, Note_on_c, 1, 52, 127
1, 135717, Note_on_c, 1, 76, 127
1, 135740, Note_off_c, 1, 52, 0
1, 135751, Note_off_c, 1, 76, 0
1, 135756, Note_on_c, 1, 48, 127
1, 135807, Note_off_c, 1, 48, 0
1, 135824, Note_on_c, 1, 53, 127
1, 135834, Note_on_c, 1, 72, 127
1, 135880, Note_off_c, 1, 53, 0
1, 135889, Note_on_c, 1, 55, 127
1, 135936, Note_off_c, 1, 55, 0
1, 135950, Note_off_c, 1, 72, 0
1, 135951, Note_on_c, 1, 53, 127
1, 135955, Note_on_c, 1, 74, 127
1, 136003, Note_off_c, 1, 53, 0
1, 136008, Note_off_c, 1, 74, 0
1, 136009, Note_on_c, 1, 76, 127
1, 136010, Note_on_c, 1, 52, 127
1, 136060, Note_off_c, 1, 76, 0
1, 136062, Note_off_c, 1, 52, 0
1, 136069, Note_on_c, 1, 81, 127
1, 136070, Note_on_c, 1, 77, 127
1, 136074, Note_on_c, 1, 50, 127
1, 136108, Note_off_c, 1, 77, 0
1, 136126, Note_off_c, 1, 50, 0
1, 136130, Note_on_c, 1, 52, 127
1, 136173, Note_off_c, 1, 52, 0
1, 136189, Note_on_c, 1, 53, 127
1, 136194, Note_on_c, 1, 74, 127
1, 136234, Note_off_c, 1, 74, 0
1, 136237, Note_off_c, 1, 53, 0
1, 136313, Note_on_c, 1, 71, 127
1, 136358, Note_off_c, 1, 71, 0
1, 136430, Note_on_c, 1, 76, 127
1, 136466, Note_off_c, 1, 76, 0
1, 136549, Note_on_c, 1, 64, 127
1, 136554, Note_on_c, 1, 80, 127
1, 136555, Note_off_c, 1, 81, 0
1, 136600, Note_off_c, 1, 64, 0
1, 136664, Note_on_c, 1, 48, 127
1, 136715, Note_off_c, 1, 48, 0
1, 136720, Note_on_c, 1, 47, 127
1, 136774, Note_off_c, 1, 47, 0
1, 136776, Note_off_c, 1, 80, 0
1, 136787, Note_on_c, 1, 45, 127
1, 136796, Note_on_c, 1, 81, 127
1, 136804, Note_on_c, 1, 72, 127
1, 136845, Note_off_c, 1, 45, 0
1, 136846, Note_on_c, 1, 47, 127
1, 136863, Note_off_c, 1, 81, 0
1, 136911, Note_on_c, 1, 48, 127
1, 136912, Note_off_c, 1, 47, 0
1, 136913, Note_on_c, 1, 76, 127
1, 136948, Note_off_c, 1, 76, 0
1, 136964, Note_on_c, 1, 50, 127
1, 136967, Note_off_c, 1, 48, 0
1, 137009, Note_off_c, 1, 50, 0
1, 137020, Note_on_c, 1, 52, 127
1, 137047, Note_off_c, 1, 72, 0
1, 137075, Note_on_c, 1, 54, 127
1, 137087, Note_off_c, 1, 52, 0
1, 137128, Note_off_c, 1, 54, 0
1, 137138, Note_on_c, 1, 56, 127
1, 137159, Note_on_c, 1, 76, 127
1, 137193, Note_off_c, 1, 56, 0
1, 137194, Note_on_c, 1, 52, 127
1, 137202, Note_off_c, 1, 76, 0
1, 137237, Note_off_c, 1, 52, 0
1, 137263, Note_on_c, 1, 57, 127
1, 137280, Note_on_c, 1, 72, 127
1, 137311, Note_off_c, 1, 57, 0
1, 137325, Note_on_c, 1, 55, 127
1, 137375, Note_off_c, 1, 55, 0
1, 137384, Note_on_c, 1, 53, 127
1, 137391, Note_off_c, 1, 72, 0
1, 137405, Note_on_c, 1, 74, 127
1, 137436, Note_off_c, 1, 53, 0
1, 137448, Note_on_c, 1, 52, 127
1, 137452, Note_on_c, 1, 76, 127
1, 137454, Note_off_c, 1, 74, 0
1, 137490, Note_off_c, 1, 52, 0
1, 137499, Note_off_c, 1, 76, 0
1, 137508, Note_on_c, 1, 50, 127
1, 137512, Note_on_c, 1, 81, 127
1, 137513, Note_on_c, 1, 77, 127
1, 137554, Note_off_c, 1, 77, 0
1, 137562, Note_off_c, 1, 50, 0
1, 137569, Note_on_c, 1, 52, 127
1, 137615, Note_off_c, 1, 52, 0
1, 137624, Note_on_c, 1, 53, 127
1, 137638, Note_on_c, 1, 74, 127
1, 137670, Note_off_c, 1, 53, 0
1, 137685, Note_off_c, 1, 74, 0
1, 137755, Note_on_c, 1, 71, 127
1, 137802, Note_off_c, 1, 71, 0
1, 137875, Note_on_c, 1, 76, 127
1, 137913, Note_off_c, 1, 76, 0
1, 137984, Note_off_c, 1, 81, 0
1, 137987, Note_on_c, 1, 80, 127
1, 137988, Note_on_c, 1, 52, 127
1, 137996, Note_on_c, 1, 64, 127
1, 138034, Note_off_c, 1, 52, 0
1, 138044, Note_off_c, 1, 64, 0
1, 138044, Note_on_c, 1, 50, 127
1, 138100, Note_off_c, 1, 50, 0
1, 138107, Note_on_c, 1, 48, 127
1, 138113, Note_on_c, 1, 74, 127
1, 138153, Note_off_c, 1, 48, 0
1, 138159, Note_off_c, 1, 74, 0
1, 138166, Note_on_c, 1, 47, 127
1, 138215, Note_off_c, 1, 47, 0
1, 138220, Note_off_c, 1, 80, 0
1, 138228, Note_on_c, 1, 72, 127
1, 138239, Note_on_c, 1, 45, 127
1, 138241, Note_on_c, 1, 81, 127
1, 138278, Note_on_c, 1, 71, 127
1, 138287, Note_off_c, 1, 72, 0
1, 138296, Note_off_c, 1, 45, 0
1, 138345, Note_off_c, 1, 71, 0
1, 138348, Note_on_c, 1, 69, 127
1, 138362, Note_on_c, 1, 57, 127
1, 138399, Note_off_c, 1, 57, 0
1, 138403, Note_off_c, 1, 81, 0
1, 138416, Note_off_c, 1, 69, 0
1, 138467, Note_on_c, 1, 77, 127
1, 138647, Note_on_c, 1, 74, 127
1, 138704, Note_off_c, 1, 74, 0
1, 138712, Note_on_c, 1, 55, 127
1, 138810, Note_off_c, 1, 55, 0
1, 138883, Note_on_c, 1, 59, 127
1, 138912, Note_off_c, 1, 77, 0
1, 138923, Note_off_c, 1, 59, 0
1, 138945, Note_on_c, 1, 76, 127
1, 138949, Note_on_c, 1, 60, 127
1, 138992, Note_off_c, 1, 60, 0
1, 139003, Note_on_c, 1, 79, 127
1, 139063, Note_on_c, 1, 78, 127
1, 139067, Note_off_c, 1, 79, 0
1, 139128, Note_off_c, 1, 78, 0
1, 139189, Note_on_c, 1, 54, 127
1, 139233, Note_off_c, 1, 54, 0
1, 139376, Note_off_c, 1, 76, 0
1, 139424, Note_on_c, 1, 47, 127
1, 139470, Note_on_c, 1, 83, 127
1, 139475, Note_off_c, 1, 47, 0
1, 139533, Note_on_c, 1, 80, 127
1, 139538, Note_off_c, 1, 83, 0
1, 139608, Note_off_c, 1, 80, 0
1, 139659, Note_on_c, 1, 56, 127
1, 139703, Note_off_c, 1, 56, 0
1, 139778, Note_on_c, 1, 52, 127
1, 139824, Note_off_c, 1, 52, 0
1, 139989, Note_on_c, 1, 74, 127
1, 140029, Note_on_c, 1, 50, 127
1, 140033, Note_on_c, 1, 71, 127
1, 140040, Note_off_c, 1, 74, 0
1, 140040, Note_on_c, 1, 76, 127
1, 140073, Note_off_c, 1, 50, 0
1, 140088, Note_off_c, 1, 71, 0
1, 140098, Note_on_c, 1, 77, 127
1, 140103, Note_off_c, 1, 76, 0
1, 140153, Note_off_c, 1, 77, 0
1, 140160, Note_on_c, 1, 72, 127
1, 140160, Note_on_c, 1, 69, 127
1, 140164, Note_on_c, 1, 52, 127
1, 140276, Note_on_c, 1, 76, 127
1, 140303, Note_off_c, 1, 76, 0
1, 140307, Note_off_c, 1, 52, 0
1, 140316, Note_off_c, 1, 72, 0
1, 140323, Note_off_c, 1, 69, 0
1, 140383, Note_on_c, 1, 69, 127
1, 140384, Note_on_c, 1, 72, 127
1, 140396, Note_on_c, 1, 76, 127
1, 140396, Note_on_c, 1, 40, 127
1, 140409, Note_on_c, 1, 68, 127
1, 140420, Note_on_c, 1, 71, 127
1, 140421, Note_off_c, 1, 72, 0
1, 140423, Note_off_c, 1, 69, 0
1, 140431, Note_off_c, 1, 76, 0
1, 140436, Note_off_c, 1, 68, 0
1, 140448, Note_off_c, 1, 71, 0
1, 140542, Note_off_c, 1, 40, 0
1, 140635, Note_on_c, 1, 72, 127
1, 140637, Note_on_c, 1, 69, 127
1, 140639, Note_on_c, 1, 45, 127
1, 140696, Note_off_c, 1, 69, 0
1, 140697, Note_on_c, 1, 57, 127
1, 140750, Note_on_c, 1, 74, 127
1, 140758, Note_off_c, 1, 72, 0
1, 140758, Note_off_c, 1, 57, 0
1, 140758, Note_on_c, 1, 59, 127
1, 140795, Note_on_c, 1, 76, 127
1, 140811, Note_on_c, 1, 60, 127
1, 140812, Note_off_c, 1, 74, 0
1, 140814, Note_off_c, 1, 59, 0
1, 140854, Note_off_c, 1, 60, 0
1, 140859, Note_off_c, 1, 76, 0
1, 140861, Note_off_c, 1, 45, 0
1, 140863, Note_on_c, 1, 77, 127
1, 140871, Note_on_c, 1, 69, 127
1, 140877, Note_on_c, 1, 62, 127
1, 140913, Note_off_c, 1, 69, 0
1, 140916, Note_off_c, 1, 77, 0
1, 140923, Note_off_c, 1, 62, 0
1, 140929, Note_on_c, 1, 59, 127
1, 140983, Note_on_c, 1, 74, 127
1, 140986, Note_on_c, 1, 60, 127
1, 140988, Note_off_c, 1, 59, 0
1, 140993, Note_on_c, 1, 69, 127
1, 141036, Note_off_c, 1, 74, 0
1, 141036, Note_off_c, 1, 60, 0
1, 141036, Note_off_c, 1, 69, 0
1, 141036, Note_on_c, 1, 62, 127
1, 141101, Note_off_c, 1, 62, 0
1, 141104, Note_on_c, 1, 64, 127
1, 141107, Note_on_c, 1, 71, 127
1, 141110, Note_on_c, 1, 67, 127
1, 141153, Note_off_c, 1, 71, 0
1, 141157, Note_on_c, 1, 65, 127
1, 141168, Note_off_c, 1, 64, 0
1, 141212, Note_off_c, 1, 65, 0
1, 141227, Note_on_c, 1, 69, 127
1, 141227, Note_on_c, 1, 76, 127
1, 141230, Note_off_c, 1, 67, 0
1, 141279, Note_off_c, 1, 69, 0
1, 141280, Note_on_c, 1, 62, 127
1, 141281, Note_off_c, 1, 76, 0
1, 141322, Note_off_c, 1, 62, 0
1, 141339, Note_on_c, 1, 72, 127
1, 141344, Note_on_c, 1, 64, 127
1, 141346, Note_on_c, 1, 60, 127
1, 141381, Note_off_c, 1, 72, 0
1, 141403, Note_on_c, 1, 62, 127
1, 141407, Note_off_c, 1, 60, 0
1, 141408, Note_off_c, 1, 64, 0
1, 141448, Note_off_c, 1, 62, 0
1, 141458, Note_on_c, 1, 64, 127
1, 141459, Note_on_c, 1, 69, 127
1, 141471, Note_on_c, 1, 76, 127
1, 141503, Note_off_c, 1, 69, 0
1, 141509, Note_off_c, 1, 64, 0
1, 141509, Note_on_c, 1, 60, 127
1, 141528, Note_off_c, 1, 76, 0
1, 141551, Note_off_c, 1, 60, 0
1, 141582, Note_on_c, 1, 66, 127
1, 141584, Note_on_c, 1, 62, 127
1, 141586, Note_on_c, 1, 69, 127
1, 141629, Note_off_c, 1, 62, 0
1, 141630, Note_off_c, 1, 66, 0
1, 141648, Note_on_c, 1, 60, 127
1, 141701, Note_on_c, 1, 71, 127
1, 141704, Note_off_c, 1, 69, 0
1, 141709, Note_on_c, 1, 59, 127
1, 141721, Note_off_c, 1, 60, 0
1, 141757, Note_on_c, 1, 72, 127
1, 141769, Note_off_c, 1, 71, 0
1, 141770, Note_off_c, 1, 59, 0
1, 141770, Note_on_c, 1, 57, 127
1, 141810, Note_off_c, 1, 72, 0
1, 141821, Note_off_c, 1, 57, 0
1, 141824, Note_on_c, 1, 59, 127
1, 141828, Note_on_c, 1, 74, 127
1, 141828, Note_on_c, 1, 56, 127
1, 141829, Note_on_c, 1, 62, 127
1, 141880, Note_off_c, 1, 62, 0
1, 141881, Note_on_c, 1, 57, 127
1, 141889, Note_off_c, 1, 59, 0
1, 141892, Note_off_c, 1, 56, 0
1, 141943, Note_on_c, 1, 69, 127
1, 141963, Note_off_c, 1, 57, 0
1, 141985, Note_off_c, 1, 69, 0
1, 141994, Note_on_c, 1, 54, 127
1, 142057, Note_on_c, 1, 52, 127
1, 142064, Note_off_c, 1, 54, 0
1, 142066, Note_on_c, 1, 68, 127
1, 142098, Note_off_c, 1, 74, 0
1, 142123, Note_off_c, 1, 52, 0
1, 142130, Note_on_c, 1, 77, 127
1, 142178, Note_on_c, 1, 60, 127
1, 142181, Note_off_c, 1, 68, 0
1, 142192, Note_on_c, 1, 76, 127
1, 142200, Note_off_c, 1, 77, 0
1, 142239, Note_on_c, 1, 71, 127
1, 142251, Note_off_c, 1, 60, 0
1, 142256, Note_off_c, 1, 76, 0
1, 142284, Note_off_c, 1, 71, 0
1, 142301, Note_on_c, 1, 64, 127
1, 142305, Note_on_c, 1, 72, 127
1, 142347, Note_off_c, 1, 64, 0
1, 142367, Note_off_c, 1, 72, 0
1, 142474, Note_on_c, 1, 55, 127
1, 142535, Note_on_c, 1, 53, 127
1, 142542, Note_on_c, 1, 81, 127
1, 142557, Note_off_c, 1, 55, 0
1, 142610, Note_off_c, 1, 53, 0
1, 142685, Note_off_c, 1, 81, 0
1, 142713, Note_on_c, 1, 50, 127
1, 142715, Note_on_c, 1, 83, 127
1, 142765, Note_off_c, 1, 83, 0
1, 142772, Note_off_c, 1, 50, 0
1, 142779, Note_on_c, 1, 52, 127
1, 142781, Note_on_c, 1, 81, 127
1, 142781, Note_on_c, 1, 71, 127
1, 142810, Note_on_c, 1, 80, 127
1, 142826, Note_off_c, 1, 71, 0
1, 142833, Note_off_c, 1, 81, 0
1, 142839, Note_off_c, 1, 52, 0
1, 142858, Note_off_c, 1, 80, 0
1, 142897, Note_on_c, 1, 40, 127
1, 142903, Note_on_c, 1, 74, 127
1, 142904, Note_on_c, 1, 64, 127
1, 142938, Note_off_c, 1, 74, 0
1, 142945, Note_off_c, 1, 64, 0
1, 142958, Note_off_c, 1, 40, 0
1, 142964, Note_on_c, 1, 81, 127
1, 143004, Note_off_c, 1, 81, 0
1, 143019, Note_on_c, 1, 64, 127
1, 143022, Note_on_c, 1, 45, 127
1, 143027, Note_on_c, 1, 81, 127
1, 143027, Note_on_c, 1, 72, 127
1, 143074, Note_off_c, 1, 64, 0
1, 143081, Note_on_c, 1, 83, 127
1, 143084, Note_on_c, 1, 74, 127
1, 143087, Note_off_c, 1, 72, 0
1, 143093, Note_off_c, 1, 81, 0
1, 143115, Note_off_c, 1, 45, 0
1, 143140, Note_off_c, 1, 74, 0
1, 143140, Note_on_c, 1, 69, 127
1, 143144, Note_on_c, 1, 84, 127
1, 143144, Note_on_c, 1, 76, 127
1, 143151, Note_on_c, 1, 57, 127
1, 143156, Note_off_c, 1, 83, 0
1, 143192, Note_off_c, 1, 69, 0
1, 143198, Note_off_c, 1, 57, 0
1, 143205, Note_off_c, 1, 76, 0
1, 143207, Note_off_c, 1, 84, 0
1, 143315, Note_on_c, 1, 79, 127
1, 143322, Note_on_c, 1, 71, 127
1, 143375, Note_off_c, 1, 71, 0
1, 143386, Note_on_c, 1, 66, 127
1, 143391, Note_off_c, 1, 79, 0
1, 143432, Note_on_c, 1, 78, 127
1, 143435, Note_off_c, 1, 66, 0
1, 143495, Note_off_c, 1, 78, 0
1, 143497, Note_on_c, 1, 64, 127
1, 143498, Note_on_c, 1, 83, 127
1, 143503, Note_on_c, 1, 67, 127
1, 143504, Note_on_c, 1, 55, 127
1, 143552, Note_off_c, 1, 64, 0
1, 143555, Note_on_c, 1, 72, 127
1, 143562, Note_off_c, 1, 67, 0
1, 143568, Note_off_c, 1, 83, 0
1, 143616, Note_on_c, 1, 71, 127
1, 143624, Note_off_c, 1, 55, 0
1, 143624, Note_on_c, 1, 63, 127
1, 143624, Note_on_c, 1, 57, 127
1, 143630, Note_off_c, 1, 72, 0
1, 143675, Note_off_c, 1, 63, 0
1, 143675, Note_on_c, 1, 59, 127
1, 143678, Note_on_c, 1, 69, 127
1, 143682, Note_off_c, 1, 71, 0
1, 143696, Note_off_c, 1, 57, 0
1, 143732, Note_off_c, 1, 59, 0
1, 143736, Note_off_c, 1, 69, 0
1, 143738, Note_on_c, 1, 60, 127
1, 143741, Note_on_c, 1, 64, 127
1, 143743, Note_on_c, 1, 67, 127
1, 143751, Note_on_c, 1, 76, 127
1, 143789, Note_off_c, 1, 60, 0
1, 143796, Note_on_c, 1, 66, 127
1, 143799, Note_off_c, 1, 67, 0
1, 143853, Note_off_c, 1, 66, 0
1, 143861, Note_on_c, 1, 57, 127
1, 143880, Note_off_c, 1, 76, 0
1, 143884, Note_off_c, 1, 64, 0
1, 143910, Note_off_c, 1, 57, 0
1, 143921, Note_on_c, 1, 64, 127
1, 143929, Note_on_c, 1, 76, 127
1, 143964, Note_off_c, 1, 64, 0
1, 143970, Note_off_c, 1, 76, 0
1, 143980, Note_on_c, 1, 54, 127
1, 143993, Note_on_c, 1, 76, 127
1, 143993, Note_on_c, 1, 66, 127
1, 143996, Note_on_c, 1, 69, 127
1, 144034, Note_off_c, 1, 54, 0
1, 144042, Note_off_c, 1, 69, 0
1, 144046, Note_off_c, 1, 66, 0
1, 144049, Note_on_c, 1, 79, 127
1, 144055, Note_on_c, 1, 64, 127
1, 144056, Note_off_c, 1, 76, 0
1, 144106, Note_off_c, 1, 64, 0
1, 144106, Note_on_c, 1, 59, 127
1, 144106, Note_on_c, 1, 78, 127
1, 144114, Note_on_c, 1, 63, 127
1, 144116, Note_off_c, 1, 79, 0
1, 144152, Note_off_c, 1, 59, 0
1, 144156, Note_off_c, 1, 63, 0
1, 144168, Note_off_c, 1, 78, 0
1, 144219, Note_on_c, 1, 75, 127
1, 144228, Note_on_c, 1, 47, 127
1, 144268, Note_on_c, 1, 73, 127
1, 144281, Note_on_c, 1, 67, 127
1, 144287, Note_off_c, 1, 47, 0
1, 144288, Note_off_c, 1, 75, 0
1, 144323, Note_off_c, 1, 67, 0
1, 144348, Note_off_c, 1, 73, 0
1, 144384, Note_on_c, 1, 71, 127
1, 144451, Note_off_c, 1, 71, 0
1, 144455, Note_on_c, 1, 83, 127
1, 144460, Note_on_c, 1, 67, 127
1, 144477, Note_on_c, 1, 52, 127
1, 144518, Note_on_c, 1, 81, 127
1, 144547, Note_off_c, 1, 83, 0
1, 144575, Note_on_c, 1, 79, 127
1, 144576, Note_on_c, 1, 69, 127
1, 144581, Note_off_c, 1, 67, 0
1, 144583, Note_off_c, 1, 81, 0
1, 144584, Note_on_c, 1, 64, 127
1, 144623, Note_off_c, 1, 64, 0
1, 144626, Note_on_c, 1, 71, 127
1, 144628, Note_off_c, 1, 69, 0
1, 144630, Note_on_c, 1, 78, 127
1, 144653, Note_off_c, 1, 79, 0
1, 144675, Note_off_c, 1, 71, 0
1, 144692, Note_on_c, 1, 72, 127
1, 144696, Note_on_c, 1, 76, 127
1, 144705, Note_off_c, 1, 78, 0
1, 144716, Note_off_c, 1, 52, 0
1, 144733, Note_off_c, 1, 72, 0
1, 144749, Note_on_c, 1, 74, 127
1, 144770, Note_off_c, 1, 76, 0
1, 144838, Note_off_c, 1, 74, 0
1, 144936, Note_on_c, 1, 66, 127
1, 144979, Note_off_c, 1, 66, 0
1, 145065, Note_on_c, 1, 68, 127
1, 145119, Note_off_c, 1, 68, 0
1, 145180, Note_on_c, 1, 59, 127
1, 145232, Note_off_c, 1, 59, 0
1, 145423, Note_on_c, 1, 68, 127
1, 145424, Note_on_c, 1, 74, 127
1, 145432, Note_on_c, 1, 71, 127
1, 145468, Note_off_c, 1, 68, 0
1, 145492, Note_off_c, 1, 71, 0
1, 145493, Note_on_c, 1, 69, 127
1, 145544, Note_on_c, 1, 64, 127
1, 145547, Note_off_c, 1, 69, 0
1, 145552, Note_off_c, 1, 74, 0
1, 145592, Note_off_c, 1, 64, 0
1, 145598, Note_on_c, 1, 76, 127
1, 145604, Note_on_c, 1, 68, 127
1, 145639, Note_off_c, 1, 68, 0
1, 145641, Note_off_c, 1, 76, 0
1, 145662, Note_on_c, 1, 69, 127
1, 145665, Note_on_c, 1, 74, 127
1, 145691, Note_on_c, 1, 72, 127
1, 145700, Note_off_c, 1, 74, 0
1, 145722, Note_on_c, 1, 71, 127
1, 145727, Note_off_c, 1, 72, 0
1, 145801, Note_off_c, 1, 71, 0
1, 145908, Note_on_c, 1, 76, 127
1, 145964, Note_off_c, 1, 76, 0
1, 146003, Note_off_c, 1, 69, 0
1, 146025, Note_on_c, 1, 52, 127
1, 146071, Note_off_c, 1, 52, 0
1, 146082, Note_on_c, 1, 71, 127
1, 146083, Note_on_c, 1, 74, 127
1, 146089, Note_on_c, 1, 69, 127
1, 146109, Note_off_c, 1, 71, 0
1, 146124, Note_off_c, 1, 74, 0
1, 146131, Note_off_c, 1, 69, 0
1, 146145, Note_on_c, 1, 72, 127
1, 146147, Note_on_c, 1, 52, 127
1, 146155, Note_on_c, 1, 64, 127
1, 146156, Note_on_c, 1, 69, 127
1, 146169, Note_on_c, 1, 71, 127
1, 146179, Note_on_c, 1, 68, 127
1, 146181, Note_off_c, 1, 72, 0
1, 146187, Note_off_c, 1, 69, 0
1, 146199, Note_off_c, 1, 52, 0
1, 146209, Note_off_c, 1, 68, 0
1, 146216, Note_off_c, 1, 71, 0
1, 146391, Note_on_c, 1, 48, 127
1, 146422, Note_off_c, 1, 64, 0
1, 146436, Note_on_c, 1, 76, 127
1, 146445, Note_on_c, 1, 62, 127
1, 146493, Note_off_c, 1, 62, 0
1, 146493, Note_on_c, 1, 60, 127
1, 146495, Note_on_c, 1, 78, 127
1, 146504, Note_on_c, 1, 50, 127
1, 146505, Note_off_c, 1, 76, 0
1, 146510, Note_off_c, 1, 48, 0
1, 146543, Note_off_c, 1, 60, 0
1, 146544, Note_on_c, 1, 80, 127
1, 146552, Note_on_c, 1, 59, 127
1, 146560, Note_off_c, 1, 78, 0
1, 146575, Note_off_c, 1, 50, 0
1, 146588, Note_off_c, 1, 59, 0
1, 146606, Note_off_c, 1, 80, 0
1, 146612, Note_on_c, 1, 57, 127
1, 146620, Note_on_c, 1, 81, 127
1, 146624, Note_on_c, 1, 53, 127
1, 146675, Note_off_c, 1, 53, 0
1, 146683, Note_off_c, 1, 57, 0
1, 146852, Note_on_c, 1, 65, 127
1, 146860, Note_on_c, 1, 47, 127
1, 146864, Note_on_c, 1, 74, 127
1, 146891, Note_off_c, 1, 81, 0
1, 146894, Note_off_c, 1, 65, 0
1, 146919, Note_off_c, 1, 47, 0
1, 146924, Note_on_c, 1, 84, 127
1, 146931, Note_off_c, 1, 74, 0
1, 146974, Note_on_c, 1, 56, 127
1, 146983, Note_on_c, 1, 83, 127
1, 147002, Note_off_c, 1, 84, 0
1, 147032, Note_off_c, 1, 56, 0
1, 147072, Note_off_c, 1, 83, 0
1, 147104, Note_on_c, 1, 40, 127
1, 147170, Note_off_c, 1, 40, 0
1, 147468, Note_on_c, 1, 45, 127
1, 147531, Note_off_c, 1, 45, 0
1, 147885, Note_on_c, 1, 55, 127
1, 147943, Note_off_c, 1, 55, 0
1, 148001, Note_on_c, 1, 67, 127
1, 148041, Note_off_c, 1, 67, 0
1, 148067, Note_on_c, 1, 77, 127
1, 148113, Note_off_c, 1, 77, 0
1, 148961, Note_on_c, 1, 71, 127
1, 149010, Note_off_c, 1, 71, 0
1, 149023, Note_on_c, 1, 64, 127
1, 149028, Note_on_c, 1, 72, 127
1, 149029, Note_on_c, 1, 69, 127
1, 149031, Note_on_c, 1, 52, 127
1, 149054, Note_on_c, 1, 71, 127
1, 149058, Note_on_c, 1, 68, 127
1, 149066, Note_off_c, 1, 64, 0
1, 149066, Note_off_c, 1, 69, 0
1, 149069, Note_off_c, 1, 72, 0
1, 149074, Note_off_c, 1, 52, 0
1, 149088, Note_off_c, 1, 68, 0
1, 149143, Note_on_c, 1, 62, 127
1, 149147, Note_on_c, 1, 40, 127
1, 149189, Note_off_c, 1, 71, 0
1, 149194, Note_off_c, 1, 62, 0
1, 149196, Note_off_c, 1, 40, 0
1, 149199, Note_on_c, 1, 69, 127
1, 149246, Note_off_c, 1, 69, 0
1, 149264, Note_on_c, 1, 60, 127
1, 149265, Note_on_c, 1, 69, 127
1, 149274, Note_on_c, 1, 45, 127
1, 149335, Note_on_c, 1, 77, 127
1, 149355, Note_off_c, 1, 60, 0
1, 149377, Note_off_c, 1, 77, 0
1, 149395, Note_on_c, 1, 76, 127
1, 149434, Note_off_c, 1, 76, 0
1, 149437, Note_off_c, 1, 69, 0
1, 149454, Note_on_c, 1, 74, 127
1, 149505, Note_off_c, 1, 74, 0
1, 149516, Note_on_c, 1, 72, 127
1, 149518, Note_off_c, 1, 45, 0
1, 149555, Note_off_c, 1, 72, 0
1, 149574, Note_on_c, 1, 71, 127
1, 149614, Note_off_c, 1, 71, 0
1, 149629, Note_on_c, 1, 69, 127
1, 149633, Note_on_c, 1, 72, 127
1, 149667, Note_off_c, 1, 72, 0
1, 149677, Note_off_c, 1, 69, 0
1, 149689, Note_on_c, 1, 69, 127
1, 149743, Note_on_c, 1, 67, 127
1, 149744, Note_off_c, 1, 69, 0
1, 149759, Note_on_c, 1, 76, 127
1, 149816, Note_on_c, 1, 84, 127
1, 149858, Note_off_c, 1, 84, 0
1, 149871, Note_off_c, 1, 67, 0
1, 149874, Note_on_c, 1, 83, 127
1, 149917, Note_off_c, 1, 83, 0
1, 149917, Note_on_c, 1, 71, 127
1, 149934, Note_on_c, 1, 81, 127
1, 149972, Note_off_c, 1, 71, 0
1, 149979, Note_on_c, 1, 72, 127
1, 149984, Note_off_c, 1, 81, 0
1, 149995, Note_on_c, 1, 79, 127
1, 150034, Note_off_c, 1, 72, 0
1, 150038, Note_off_c, 1, 79, 0
1, 150055, Note_on_c, 1, 78, 127
1, 150099, Note_off_c, 1, 78, 0
1, 150226, Note_on_c, 1, 66, 127
1, 150286, Note_off_c, 1, 66, 0
1, 150463, Note_off_c, 1, 76, 0
1, 150466, Note_on_c, 1, 75, 127
1, 150469, Note_on_c, 1, 78, 127
1, 150471, Note_on_c, 1, 59, 127
1, 150518, Note_off_c, 1, 78, 0
1, 150527, Note_on_c, 1, 76, 127
1, 150530, Note_off_c, 1, 59, 0
1, 150571, Note_off_c, 1, 76, 0
1, 150583, Note_on_c, 1, 71, 127
1, 150638, Note_off_c, 1, 71, 0
1, 150684, Note_off_c, 1, 75, 0
1, 150706, Note_on_c, 1, 76, 127
1, 150709, Note_on_c, 1, 64, 127
1, 150713, Note_on_c, 1, 79, 127
1, 150764, Note_on_c, 1, 60, 127
1, 150804, Note_off_c, 1, 64, 0
1, 150808, Note_off_c, 1, 60, 0
1, 150823, Note_on_c, 1, 59, 127
1, 150832, Note_on_c, 1, 71, 127
1, 150833, Note_on_c, 1, 67, 127
1, 150867, Note_off_c, 1, 59, 0
1, 150869, Note_off_c, 1, 71, 0
1, 150880, Note_off_c, 1, 67, 0
1, 150883, Note_on_c, 1, 57, 127
1, 150939, Note_off_c, 1, 57, 0
1, 150943, Note_on_c, 1, 55, 127
1, 150986, Note_off_c, 1, 55, 0
1, 151001, Note_on_c, 1, 54, 127
1, 151039, Note_off_c, 1, 54, 0
1, 151115, Note_on_c, 1, 52, 127
1, 151150, Note_off_c, 1, 52, 0
1, 151188, Note_on_c, 1, 73, 127
1, 151194, Note_on_c, 1, 69, 127
1, 151214, Note_off_c, 1, 76, 0
1, 151247, Note_on_c, 1, 77, 127
1, 151273, Note_off_c, 1, 73, 0
1, 151288, Note_off_c, 1, 69, 0
1, 151294, Note_off_c, 1, 77, 0
1, 151306, Note_on_c, 1, 45, 127
1, 151364, Note_on_c, 1, 74, 127
1, 151380, Note_off_c, 1, 45, 0
1, 151404, Note_off_c, 1, 74, 0
1, 151422, Note_off_c, 1, 79, 0
1, 151425, Note_on_c, 1, 73, 127
1, 151437, Note_on_c, 1, 69, 127
1, 151478, Note_off_c, 1, 73, 0
1, 151478, Note_off_c, 1, 69, 0
1, 151487, Note_on_c, 1, 71, 127
1, 151527, Note_off_c, 1, 71, 0
1, 151546, Note_on_c, 1, 73, 127
1, 151548, Note_on_c, 1, 69, 127
1, 151595, Note_off_c, 1, 73, 0
1, 151595, Note_off_c, 1, 69, 0
1, 151611, Note_on_c, 1, 69, 127
1, 151656, Note_off_c, 1, 69, 0
1, 151670, Note_on_c, 1, 65, 127
1, 151679, Note_on_c, 1, 74, 127
1, 151736, Note_on_c, 1, 82, 127
1, 151780, Note_off_c, 1, 65, 0
1, 151783, Note_off_c, 1, 82, 0
1, 151790, Note_on_c, 1, 67, 127
1, 151795, Note_on_c, 1, 81, 127
1, 151845, Note_off_c, 1, 81, 0
1, 151845, Note_on_c, 1, 69, 127
1, 151849, Note_off_c, 1, 67, 0
1, 151853, Note_on_c, 1, 79, 127
1, 151895, Note_off_c, 1, 69, 0
1, 151910, Note_on_c, 1, 70, 127
1, 151911, Note_off_c, 1, 79, 0
1, 151916, Note_on_c, 1, 77, 127
1, 151957, Note_off_c, 1, 70, 0
1, 151957, Note_off_c, 1, 77, 0
1, 151975, Note_on_c, 1, 76, 127
1, 152024, Note_off_c, 1, 76, 0
1, 152145, Note_on_c, 1, 64, 127
1, 152197, Note_off_c, 1, 64, 0
1, 152381, Note_on_c, 1, 57, 127
1, 152389, Note_off_c, 1, 74, 0
1, 152398, Note_on_c, 1, 73, 127
1, 152439, Note_off_c, 1, 57, 0
1, 152620, Note_off_c, 1, 73, 0
1, 152624, Note_on_c, 1, 77, 127
1, 152625, Note_on_c, 1, 62, 127
1, 152639, Note_on_c, 1, 74, 127
1, 152682, Note_on_c, 1, 58, 127
1, 152720, Note_off_c, 1, 62, 0
1, 152724, Note_off_c, 1, 58, 0
1, 152742, Note_on_c, 1, 57, 127
1, 152748, Note_on_c, 1, 69, 127
1, 152754, Note_on_c, 1, 65, 127
1, 152781, Note_off_c, 1, 57, 0
1, 152789, Note_off_c, 1, 69, 0
1, 152800, Note_on_c, 1, 55, 127
1, 152806, Note_off_c, 1, 65, 0
1, 152863, Note_on_c, 1, 53, 127
1, 152865, Note_off_c, 1, 55, 0
1, 152904, Note_off_c, 1, 53, 0
1, 152923, Note_on_c, 1, 52, 127
1, 152962, Note_off_c, 1, 52, 0
1, 153040, Note_on_c, 1, 50, 127
1, 153083, Note_off_c, 1, 50, 0
1, 153106, Note_on_c, 1, 71, 127
1, 153112, Note_on_c, 1, 67, 127
1, 153135, Note_off_c, 1, 74, 0
1, 153163, Note_on_c, 1, 76, 127
1, 153197, Note_off_c, 1, 71, 0
1, 153205, Note_off_c, 1, 67, 0
1, 153219, Note_off_c, 1, 76, 0
1, 153223, Note_on_c, 1, 43, 127
1, 153280, Note_on_c, 1, 72, 127
1, 153294, Note_off_c, 1, 43, 0
1, 153323, Note_off_c, 1, 72, 0
1, 153350, Note_off_c, 1, 77, 0
1, 153576, Note_on_c, 1, 72, 127
1, 153586, Note_on_c, 1, 64, 127
1, 153641, Note_on_c, 1, 81, 127
1, 153686, Note_off_c, 1, 81, 0
1, 153696, Note_off_c, 1, 64, 0
1, 153701, Note_on_c, 1, 79, 127
1, 153706, Note_on_c, 1, 65, 127
1, 153743, Note_off_c, 1, 79, 0
1, 153757, Note_off_c, 1, 65, 0
1, 153759, Note_on_c, 1, 67, 127
1, 153759, Note_on_c, 1, 77, 127
1, 153805, Note_off_c, 1, 67, 0
1, 153813, Note_off_c, 1, 77, 0
1, 153819, Note_on_c, 1, 69, 127
1, 153823, Note_on_c, 1, 76, 127
1, 153863, Note_off_c, 1, 76, 0
1, 153869, Note_off_c, 1, 69, 0
1, 153879, Note_on_c, 1, 74, 127
1, 153925, Note_off_c, 1, 74, 0
1, 154056, Note_on_c, 1, 62, 127
1, 154106, Note_off_c, 1, 62, 0
1, 154290, Note_on_c, 1, 55, 127
1, 154291, Note_off_c, 1, 72, 0
1, 154309, Note_on_c, 1, 71, 127
1, 154347, Note_off_c, 1, 55, 0
1, 154529, Note_off_c, 1, 71, 0
1, 154537, Note_on_c, 1, 60, 127
1, 154627, Note_off_c, 1, 60, 0
1, 154832, Note_on_c, 1, 59, 127
1, 154879, Note_off_c, 1, 59, 0
1, 154951, Note_on_c, 1, 57, 127
1, 154956, Note_on_c, 1, 78, 127
1, 154990, Note_off_c, 1, 57, 0
1, 155008, Note_off_c, 1, 78, 0
1, 155016, Note_on_c, 1, 79, 127
1, 155019, Note_on_c, 1, 64, 127
1, 155025, Note_on_c, 1, 71, 127
1, 155082, Note_off_c, 1, 64, 0
1, 155082, Note_on_c, 1, 62, 127
1, 155091, Note_on_c, 1, 53, 127
1, 155127, Note_off_c, 1, 62, 0
1, 155129, Note_off_c, 1, 71, 0
1, 155132, Note_off_c, 1, 53, 0
1, 155138, Note_on_c, 1, 72, 127
1, 155149, Note_on_c, 1, 52, 127
1, 155162, Note_off_c, 1, 79, 0
1, 155181, Note_off_c, 1, 72, 0
1, 155185, Note_off_c, 1, 52, 0
1, 155192, Note_on_c, 1, 74, 127
1, 155196, Note_on_c, 1, 66, 127
1, 155205, Note_on_c, 1, 50, 127
1, 155240, Note_off_c, 1, 66, 0
1, 155246, Note_off_c, 1, 74, 0
1, 155251, Note_on_c, 1, 76, 127
1, 155259, Note_on_c, 1, 67, 127
1, 155261, Note_off_c, 1, 50, 0
1, 155263, Note_on_c, 1, 79, 127
1, 155265, Note_on_c, 1, 48, 127
1, 155297, Note_off_c, 1, 76, 0
1, 155302, Note_off_c, 1, 48, 0
1, 155306, Note_off_c, 1, 67, 0
1, 155322, Note_on_c, 1, 47, 127
1, 155364, Note_off_c, 1, 47, 0
1, 155377, Note_on_c, 1, 72, 127
1, 155379, Note_on_c, 1, 64, 127
1, 155399, Note_off_c, 1, 79, 0
1, 155419, Note_off_c, 1, 64, 0
1, 155421, Note_off_c, 1, 72, 0
1, 155442, Note_on_c, 1, 45, 127
1, 155448, Note_on_c, 1, 79, 127
1, 155484, Note_off_c, 1, 79, 0
1, 155487, Note_off_c, 1, 45, 0
1, 155500, Note_on_c, 1, 69, 127
1, 155510, Note_on_c, 1, 50, 127
1, 155510, Note_on_c, 1, 79, 127
1, 155515, Note_on_c, 1, 62, 127
1, 155544, Note_off_c, 1, 69, 0
1, 155559, Note_off_c, 1, 50, 0
1, 155559, Note_off_c, 1, 62, 0
1, 155621, Note_off_c, 1, 79, 0
1, 155621, Note_on_c, 1, 74, 127
1, 155626, Note_on_c, 1, 38, 127
1, 155654, Note_off_c, 1, 74, 0
1, 155663, Note_on_c, 1, 78, 127
1, 155699, Note_on_c, 1, 76, 127
1, 155700, Note_off_c, 1, 38, 0
1, 155722, Note_off_c, 1, 78, 0
1, 155758, Note_off_c, 1, 76, 0
1, 155996, Note_on_c, 1, 59, 127
1, 156108, Note_off_c, 1, 59, 0
1, 156111, Note_on_c, 1, 55, 127
1, 156116, Note_on_c, 1, 60, 127
1, 156128, Note_on_c, 1, 64, 127
1, 156152, Note_off_c, 1, 55, 0
1, 156168, Note_off_c, 1, 60, 0
1, 156180, Note_off_c, 1, 64, 0
1, 156184, Note_on_c, 1, 66, 127
1, 156230, Note_off_c, 1, 66, 0
1, 156247, Note_on_c, 1, 67, 127
1, 156295, Note_off_c, 1, 67, 0
1, 156304, Note_on_c, 1, 71, 127
1, 156347, Note_on_c, 1, 76, 127
1, 156348, Note_on_c, 1, 60, 127
1, 156350, Note_off_c, 1, 71, 0
1, 156350, Note_on_c, 1, 55, 127
1, 156357, Note_on_c, 1, 69, 127
1, 156392, Note_off_c, 1, 60, 0
1, 156401, Note_off_c, 1, 55, 0
1, 156401, Note_off_c, 1, 69, 0
1, 156468, Note_on_c, 1, 57, 127
1, 156469, Note_on_c, 1, 72, 127
1, 156470, Note_on_c, 1, 54, 127
1, 156514, Note_off_c, 1, 57, 0
1, 156515, Note_off_c, 1, 76, 0
1, 156517, Note_off_c, 1, 72, 0
1, 156526, Note_on_c, 1, 79, 127
1, 156583, Note_off_c, 1, 54, 0
1, 156585, Note_on_c, 1, 78, 127
1, 156588, Note_off_c, 1, 79, 0
1, 156588, Note_on_c, 1, 62, 127
1, 156624, Note_off_c, 1, 62, 0
1, 156640, Note_off_c, 1, 78, 0
1, 156643, Note_on_c, 1, 67, 127
1, 156695, Note_off_c, 1, 67, 0
1, 156701, Note_on_c, 1, 74, 127
1, 156704, Note_on_c, 1, 59, 127
1, 156711, Note_on_c, 1, 50, 127
1, 156712, Note_on_c, 1, 66, 127
1, 156746, Note_off_c, 1, 59, 0
1, 156752, Note_off_c, 1, 50, 0
1, 156764, Note_off_c, 1, 74, 0
1, 156823, Note_off_c, 1, 66, 0
1, 156941, Note_on_c, 1, 52, 127
1, 156988, Note_off_c, 1, 52, 0
1, 157174, Note_on_c, 1, 72, 127
1, 157177, Note_on_c, 1, 69, 127
1, 157181, Note_on_c, 1, 45, 127
1, 157184, Note_on_c, 1, 60, 127
1, 157224, Note_off_c, 1, 69, 0
1, 157231, Note_on_c, 1, 67, 127
1, 157233, Note_off_c, 1, 45, 0
1, 157233, Note_on_c, 1, 76, 127
1, 157246, Note_off_c, 1, 72, 0
1, 157272, Note_off_c, 1, 67, 0
1, 157287, Note_on_c, 1, 66, 127
1, 157289, Note_on_c, 1, 74, 127
1, 157296, Note_off_c, 1, 76, 0
1, 157300, Note_on_c, 1, 55, 127
1, 157326, Note_off_c, 1, 66, 0
1, 157335, Note_off_c, 1, 55, 0
1, 157342, Note_on_c, 1, 64, 127
1, 157362, Note_off_c, 1, 74, 0
1, 157382, Note_off_c, 1, 64, 0
1, 157416, Note_on_c, 1, 62, 127
1, 157416, Note_on_c, 1, 54, 127
1, 157418, Note_on_c, 1, 81, 127
1, 157434, Note_off_c, 1, 60, 0
1, 157469, Note_on_c, 1, 57, 127
1, 157491, Note_off_c, 1, 81, 0
1, 157513, Note_off_c, 1, 54, 0
1, 157528, Note_off_c, 1, 57, 0
1, 157530, Note_on_c, 1, 59, 127
1, 157596, Note_off_c, 1, 59, 0
1, 157626, Note_off_c, 1, 62, 0
1, 157671, Note_on_c, 1, 79, 127
1, 157724, Note_on_c, 1, 71, 127
1, 157767, Note_off_c, 1, 71, 0
1, 157830, Note_off_c, 1, 79, 0
1, 157900, Note_on_c, 1, 57, 127
1, 157905, Note_on_c, 1, 69, 127
1, 157906, Note_on_c, 1, 79, 127
1, 157910, Note_on_c, 1, 72, 127
1, 157953, Note_off_c, 1, 57, 0
1, 157955, Note_off_c, 1, 69, 0
1, 157960, Note_on_c, 1, 60, 127
1, 157961, Note_on_c, 1, 78, 127
1, 157973, Note_off_c, 1, 79, 0
1, 158013, Note_off_c, 1, 60, 0
1, 158018, Note_off_c, 1, 78, 0
1, 158025, Note_on_c, 1, 59, 127
1, 158040, Note_off_c, 1, 72, 0
1, 158074, Note_off_c, 1, 59, 0
1, 158078, Note_on_c, 1, 76, 127
1, 158126, Note_off_c, 1, 76, 0
1, 158139, Note_on_c, 1, 78, 127
1, 158144, Note_on_c, 1, 72, 127
1, 158150, Note_on_c, 1, 62, 127
1, 158198, Note_on_c, 1, 76, 127
1, 158203, Note_off_c, 1, 72, 0
1, 158205, Note_on_c, 1, 60, 127
1, 158206, Note_off_c, 1, 62, 0
1, 158243, Note_off_c, 1, 76, 0
1, 158253, Note_off_c, 1, 60, 0
1, 158259, Note_on_c, 1, 74, 127
1, 158267, Note_on_c, 1, 59, 127
1, 158294, Note_off_c, 1, 74, 0
1, 158300, Note_off_c, 1, 78, 0
1, 158313, Note_off_c, 1, 59, 0
1, 158323, Note_on_c, 1, 57, 127
1, 158367, Note_off_c, 1, 57, 0
1, 158383, Note_on_c, 1, 55, 127
1, 158387, Note_on_c, 1, 71, 127
1, 158432, Note_off_c, 1, 55, 0
1, 158438, Note_on_c, 1, 67, 127
1, 158482, Note_off_c, 1, 67, 0
1, 158491, Note_on_c, 1, 66, 127
1, 158542, Note_off_c, 1, 66, 0
1, 158616, Note_on_c, 1, 64, 127
1, 158648, Note_off_c, 1, 71, 0
1, 158667, Note_off_c, 1, 64, 0
1, 158743, Note_on_c, 1, 69, 127
1, 158864, Note_on_c, 1, 54, 127
1, 158920, Note_off_c, 1, 54, 0
1, 159005, Note_off_c, 1, 69, 0
1, 159105, Note_on_c, 1, 69, 127
1, 159108, Note_on_c, 1, 74, 127
1, 159108, Note_on_c, 1, 59, 127
1, 159112, Note_on_c, 1, 66, 127
1, 159154, Note_off_c, 1, 66, 0
1, 159159, Note_off_c, 1, 69, 0
1, 159162, Note_on_c, 1, 72, 127
1, 159163, Note_on_c, 1, 57, 127
1, 159171, Note_off_c, 1, 59, 0
1, 159200, Note_off_c, 1, 72, 0
1, 159218, Note_on_c, 1, 71, 127
1, 159226, Note_off_c, 1, 57, 0
1, 159226, Note_on_c, 1, 55, 127
1, 159250, Note_off_c, 1, 74, 0
1, 159287, Note_on_c, 1, 54, 127
1, 159300, Note_off_c, 1, 55, 0
1, 159335, Note_off_c, 1, 54, 0
1, 159345, Note_on_c, 1, 67, 127
1, 159347, Note_on_c, 1, 52, 127
1, 159386, Note_off_c, 1, 71, 0
1, 159390, Note_off_c, 1, 52, 0
1, 159420, Note_on_c, 1, 64, 127
1, 159463, Note_off_c, 1, 64, 0
1, 159469, Note_on_c, 1, 62, 127
1, 159529, Note_off_c, 1, 62, 0
1, 159592, Note_on_c, 1, 60, 127
1, 159619, Note_off_c, 1, 67, 0
1, 159634, Note_off_c, 1, 60, 0
1, 159825, Note_on_c, 1, 50, 127
1, 159887, Note_on_c, 1, 76, 127
1, 159901, Note_off_c, 1, 50, 0
1, 159939, Note_off_c, 1, 76, 0
1, 159940, Note_on_c, 1, 66, 127
1, 159945, Note_on_c, 1, 62, 127
1, 159946, Note_on_c, 1, 74, 127
1, 159951, Note_on_c, 1, 69, 127
1, 159990, Note_off_c, 1, 66, 0
1, 159995, Note_off_c, 1, 62, 0
1, 159997, Note_off_c, 1, 69, 0
1, 160000, Note_on_c, 1, 64, 127
1, 160002, Note_on_c, 1, 72, 127
1, 160005, Note_off_c, 1, 74, 0
1, 160063, Note_off_c, 1, 64, 0
1, 160063, Note_on_c, 1, 71, 127
1, 160065, Note_off_c, 1, 72, 0
1, 160112, Note_on_c, 1, 60, 127
1, 160118, Note_off_c, 1, 71, 0
1, 160157, Note_off_c, 1, 60, 0
1, 160175, Note_on_c, 1, 59, 127
1, 160182, Note_on_c, 1, 67, 127
1, 160191, Note_on_c, 1, 62, 127
1, 160228, Note_off_c, 1, 59, 0
1, 160235, Note_off_c, 1, 62, 0
1, 160237, Note_on_c, 1, 66, 127
1, 160238, Note_on_c, 1, 57, 127
1, 160241, Note_off_c, 1, 67, 0
1, 160269, Note_off_c, 1, 57, 0
1, 160304, Note_off_c, 1, 66, 0
1, 160364, Note_on_c, 1, 71, 127
1, 160420, Note_off_c, 1, 71, 0
1, 160426, Note_on_c, 1, 76, 127
1, 160431, Note_on_c, 1, 64, 127
1, 160432, Note_on_c, 1, 60, 127
1, 160477, Note_off_c, 1, 64, 0
1, 160477, Note_on_c, 1, 74, 127
1, 160479, Note_off_c, 1, 60, 0
1, 160493, Note_off_c, 1, 76, 0
1, 160539, Note_off_c, 1, 74, 0
1, 160544, Note_on_c, 1, 72, 127
1, 160548, Note_on_c, 1, 67, 127
1, 160548, Note_on_c, 1, 64, 127
1, 160590, Note_off_c, 1, 67, 0
1, 160590, Note_off_c, 1, 64, 0
1, 160594, Note_on_c, 1, 71, 127
1, 160597, Note_off_c, 1, 72, 0
1, 160659, Note_off_c, 1, 71, 0
1, 160660, Note_on_c, 1, 69, 127
1, 160668, Note_on_c, 1, 60, 127
1, 160669, Note_on_c, 1, 64, 127
1, 160708, Note_off_c, 1, 60, 0
1, 160716, Note_on_c, 1, 71, 127
1, 160717, Note_on_c, 1, 67, 127
1, 160718, Note_off_c, 1, 64, 0
1, 160737, Note_off_c, 1, 69, 0
1, 160760, Note_off_c, 1, 71, 0
1, 160764, Note_off_c, 1, 67, 0
1, 160782, Note_on_c, 1, 72, 127
1, 160788, Note_on_c, 1, 78, 127
1, 160788, Note_on_c, 1, 57, 127
1, 160791, Note_on_c, 1, 69, 127
1, 160824, Note_off_c, 1, 72, 0
1, 160840, Note_off_c, 1, 57, 0
1, 160844, Note_on_c, 1, 76, 127
1, 160845, Note_off_c, 1, 78, 0
1, 160848, Note_on_c, 1, 67, 127
1, 160888, Note_off_c, 1, 69, 0
1, 160901, Note_on_c, 1, 62, 127
1, 160902, Note_on_c, 1, 71, 127
1, 160903, Note_off_c, 1, 67, 0
1, 160907, Note_on_c, 1, 66, 127
1, 160909, Note_off_c, 1, 76, 0
1, 160909, Note_on_c, 1, 74, 127
1, 160949, Note_off_c, 1, 62, 0
1, 160950, Note_off_c, 1, 71, 0
1, 160959, Note_off_c, 1, 74, 0
1, 160963, Note_on_c, 1, 64, 127
1, 160965, Note_off_c, 1, 66, 0
1, 161016, Note_off_c, 1, 64, 0
1, 161026, Note_on_c, 1, 50, 127
1, 161075, Note_off_c, 1, 50, 0
1, 161077, Note_on_c, 1, 60, 127
1, 161135, Note_off_c, 1, 60, 0
1, 161138, Note_on_c, 1, 59, 127
1, 161195, Note_off_c, 1, 59, 0
1, 161260, Note_on_c, 1, 79, 127
1, 161264, Note_on_c, 1, 55, 127
1, 161264, Note_on_c, 1, 59, 127
1, 161269, Note_on_c, 1, 74, 127
1, 161308, Note_off_c, 1, 59, 0
1, 161312, Note_off_c, 1, 55, 0
1, 161320, Note_off_c, 1, 74, 0
1, 161325, Note_on_c, 1, 72, 127
1, 161379, Note_off_c, 1, 72, 0
1, 161384, Note_on_c, 1, 71, 127
1, 161386, Note_on_c, 1, 62, 127
1, 161402, Note_off_c, 1, 79, 0
1, 161424, Note_off_c, 1, 71, 0
1, 161427, Note_off_c, 1, 62, 0
1, 161436, Note_on_c, 1, 81, 127
1, 161436, Note_on_c, 1, 72, 127
1, 161462, Note_off_c, 1, 72, 0
1, 161470, Note_off_c, 1, 81, 0
1, 161496, Note_on_c, 1, 71, 127
1, 161498, Note_on_c, 1, 62, 127
1, 161504, Note_on_c, 1, 79, 127
1, 161528, Note_on_c, 1, 78, 127
1, 161532, Note_off_c, 1, 71, 0
1, 161534, Note_on_c, 1, 69, 127
1, 161543, Note_off_c, 1, 79, 0
1, 161553, Note_off_c, 1, 62, 0
1, 161560, Note_off_c, 1, 69, 0
1, 161564, Note_off_c, 1, 78, 0
1, 161619, Note_on_c, 1, 50, 127
1, 161672, Note_off_c, 1, 50, 0
1, 161681, Note_on_c, 1, 79, 127
1, 161690, Note_on_c, 1, 71, 127
1, 161719, Note_off_c, 1, 71, 0
1, 161725, Note_off_c, 1, 79, 0
1, 161750, Note_on_c, 1, 79, 127
1, 161750, Note_on_c, 1, 62, 127
1, 161751, Note_on_c, 1, 43, 127
1, 161753, Note_on_c, 1, 71, 127
1, 161802, Note_on_c, 1, 59, 127
1, 161851, Note_off_c, 1, 59, 0
1, 161862, Note_on_c, 1, 57, 127
1, 161864, Note_on_c, 1, 74, 127
1, 161896, Note_off_c, 1, 43, 0
1, 161901, Note_off_c, 1, 74, 0
1, 161917, Note_off_c, 1, 57, 0
1, 161925, Note_on_c, 1, 55, 127
1, 161967, Note_off_c, 1, 55, 0
1, 161992, Note_on_c, 1, 54, 127
1, 162003, Note_off_c, 1, 71, 0
1, 162007, Note_off_c, 1, 79, 0
1, 162020, Note_off_c, 1, 62, 0
1, 162040, Note_off_c, 1, 54, 0
1, 162049, Note_on_c, 1, 52, 127
1, 162089, Note_off_c, 1, 52, 0
1, 162106, Note_on_c, 1, 54, 127
1, 162112, Note_on_c, 1, 74, 127
1, 162151, Note_off_c, 1, 74, 0
1, 162153, Note_off_c, 1, 54, 0
1, 162164, Note_on_c, 1, 50, 127
1, 162205, Note_off_c, 1, 50, 0
1, 162223, Note_on_c, 1, 71, 127
1, 162231, Note_on_c, 1, 52, 127
1, 162287, Note_off_c, 1, 52, 0
1, 162290, Note_on_c, 1, 54, 127
1, 162338, Note_off_c, 1, 54, 0
1, 162340, Note_off_c, 1, 71, 0
1, 162348, Note_on_c, 1, 52, 127
1, 162356, Note_on_c, 1, 72, 127
1, 162399, Note_off_c, 1, 72, 0
1, 162401, Note_off_c, 1, 52, 0
1, 162405, Note_on_c, 1, 50, 127
1, 162408, Note_on_c, 1, 74, 127
1, 162447, Note_off_c, 1, 74, 0
1, 162463, Note_off_c, 1, 50, 0
1, 162469, Note_on_c, 1, 76, 127
1, 162469, Note_on_c, 1, 48, 127
1, 162470, Note_on_c, 1, 79, 127
1, 162505, Note_off_c, 1, 76, 0
1, 162508, Note_off_c, 1, 48, 0
1, 162526, Note_on_c, 1, 47, 127
1, 162575, Note_off_c, 1, 47, 0
1, 162591, Note_on_c, 1, 72, 127
1, 162626, Note_off_c, 1, 72, 0
1, 162646, Note_on_c, 1, 45, 127
1, 162695, Note_off_c, 1, 45, 0
1, 162707, Note_on_c, 1, 50, 127
1, 162714, Note_on_c, 1, 69, 127
1, 162753, Note_off_c, 1, 69, 0
1, 162761, Note_off_c, 1, 50, 0
1, 162831, Note_on_c, 1, 74, 127
1, 162868, Note_off_c, 1, 74, 0
1, 162893, Note_on_c, 1, 52, 127
1, 162945, Note_on_c, 1, 62, 127
1, 162950, Note_off_c, 1, 52, 0
1, 162953, Note_on_c, 1, 78, 127
1, 162960, Note_off_c, 1, 79, 0
1, 162998, Note_off_c, 1, 62, 0
1, 163192, Note_off_c, 1, 78, 0
1, 163194, Note_on_c, 1, 43, 127
1, 163196, Note_on_c, 1, 71, 127
1, 163199, Note_on_c, 1, 79, 127
1, 163253, Note_off_c, 1, 43, 0
1, 163256, Note_on_c, 1, 45, 127
1, 163304, Note_off_c, 1, 79, 0
1, 163313, Note_on_c, 1, 74, 127
1, 163318, Note_on_c, 1, 47, 127
1, 163324, Note_off_c, 1, 45, 0
1, 163349, Note_off_c, 1, 74, 0
1, 163365, Note_off_c, 1, 47, 0
1, 163375, Note_on_c, 1, 48, 127
1, 163431, Note_off_c, 1, 48, 0
1, 163436, Note_off_c, 1, 71, 0
1, 163437, Note_on_c, 1, 50, 127
1, 163489, Note_off_c, 1, 50, 0
1, 163496, Note_on_c, 1, 52, 127
1, 163545, Note_off_c, 1, 52, 0
1, 163552, Note_on_c, 1, 74, 127
1, 163556, Note_on_c, 1, 54, 127
1, 163597, Note_off_c, 1, 74, 0
1, 163599, Note_off_c, 1, 54, 0
1, 163604, Note_on_c, 1, 50, 127
1, 163650, Note_off_c, 1, 50, 0
1, 163665, Note_on_c, 1, 71, 127
1, 163667, Note_on_c, 1, 55, 127
1, 163716, Note_off_c, 1, 55, 0
1, 163725, Note_on_c, 1, 54, 127
1, 163777, Note_off_c, 1, 54, 0
1, 163785, Note_on_c, 1, 52, 127
1, 163797, Note_off_c, 1, 71, 0
1, 163797, Note_on_c, 1, 72, 127
1, 163832, Note_off_c, 1, 52, 0
1, 163839, Note_on_c, 1, 50, 127
1, 163849, Note_on_c, 1, 74, 127
1, 163855, Note_off_c, 1, 72, 0
1, 163879, Note_off_c, 1, 50, 0
1, 163901, Note_on_c, 1, 48, 127
1, 163905, Note_off_c, 1, 74, 0
1, 163908, Note_on_c, 1, 76, 127
1, 163909, Note_on_c, 1, 79, 127
1, 163954, Note_off_c, 1, 48, 0
1, 163958, Note_off_c, 1, 76, 0
1, 164150, Note_on_c, 1, 69, 127
1, 164204, Note_off_c, 1, 69, 0
1, 164382, Note_off_c, 1, 79, 0
1, 164384, Note_on_c, 1, 50, 127
1, 164390, Note_on_c, 1, 62, 127
1, 164399, Note_on_c, 1, 78, 127
1, 164437, Note_off_c, 1, 50, 0
1, 164439, Note_on_c, 1, 48, 127
1, 164445, Note_off_c, 1, 62, 0
1, 164493, Note_off_c, 1, 48, 0
1, 164502, Note_on_c, 1, 47, 127
1, 164518, Note_on_c, 1, 72, 127
1, 164542, Note_off_c, 1, 47, 0
1, 164563, Note_on_c, 1, 45, 127
1, 164567, Note_off_c, 1, 72, 0
1, 164583, Note_off_c, 1, 78, 0
1, 164603, Note_off_c, 1, 45, 0
1, 164635, Note_on_c, 1, 79, 127
1, 164636, Note_on_c, 1, 43, 127
1, 164644, Note_on_c, 1, 71, 127
1, 164682, Note_off_c, 1, 79, 0
1, 164693, Note_on_c, 1, 83, 127
1, 164703, Note_off_c, 1, 43, 0
1, 164737, Note_off_c, 1, 83, 0
1, 164747, Note_on_c, 1, 81, 127
1, 164754, Note_on_c, 1, 59, 127
1, 164791, Note_off_c, 1, 59, 0
1, 164796, Note_off_c, 1, 81, 0
1, 164859, Note_on_c, 1, 78, 127
1, 164871, Note_off_c, 1, 71, 0
1, 164914, Note_on_c, 1, 76, 127
1, 164915, Note_off_c, 1, 78, 0
1, 164963, Note_off_c, 1, 76, 0
1, 164973, Note_on_c, 1, 78, 127
1, 164990, Note_on_c, 1, 59, 127
1, 165024, Note_off_c, 1, 78, 0
1, 165027, Note_on_c, 1, 74, 127
1, 165030, Note_off_c, 1, 59, 0
1, 165080, Note_off_c, 1, 74, 0
1, 165096, Note_on_c, 1, 76, 127
1, 165109, Note_on_c, 1, 55, 127
1, 165163, Note_on_c, 1, 84, 127
1, 165215, Note_off_c, 1, 55, 0
1, 165224, Note_on_c, 1, 83, 127
1, 165229, Note_off_c, 1, 84, 0
1, 165232, Note_on_c, 1, 57, 127
1, 165276, Note_off_c, 1, 57, 0
1, 165282, Note_on_c, 1, 81, 127
1, 165286, Note_on_c, 1, 59, 127
1, 165292, Note_off_c, 1, 83, 0
1, 165330, Note_off_c, 1, 59, 0
1, 165337, Note_off_c, 1, 81, 0
1, 165344, Note_on_c, 1, 79, 127
1, 165345, Note_on_c, 1, 60, 127
1, 165383, Note_off_c, 1, 60, 0
1, 165392, Note_on_c, 1, 78, 127
1, 165395, Note_off_c, 1, 79, 0
1, 165456, Note_off_c, 1, 78, 0
1, 165586, Note_on_c, 1, 54, 127
1, 165634, Note_off_c, 1, 54, 0
1, 165804, Note_off_c, 1, 76, 0
1, 165826, Note_on_c, 1, 75, 127
1, 165826, Note_on_c, 1, 47, 127
1, 165830, Note_on_c, 1, 78, 127
1, 165884, Note_off_c, 1, 47, 0
1, 165892, Note_off_c, 1, 78, 0
1, 165894, Note_on_c, 1, 76, 127
1, 165938, Note_off_c, 1, 76, 0
1, 165954, Note_on_c, 1, 57, 127
1, 165987, Note_off_c, 1, 57, 0
1, 166012, Note_on_c, 1, 71, 127
1, 166020, Note_off_c, 1, 75, 0
1, 166062, Note_off_c, 1, 71, 0
1, 166064, Note_on_c, 1, 76, 127
1, 166072, Note_on_c, 1, 55, 127
1, 166076, Note_on_c, 1, 83, 127
1, 166131, Note_on_c, 1, 54, 127
1, 166134, Note_off_c, 1, 55, 0
1, 166137, Note_on_c, 1, 81, 127
1, 166144, Note_off_c, 1, 83, 0
1, 166148, Note_off_c, 1, 76, 0
1, 166180, Note_off_c, 1, 54, 0
1, 166184, Note_on_c, 1, 52, 127
1, 166187, Note_off_c, 1, 81, 0
1, 166187, Note_on_c, 1, 71, 127
1, 166191, Note_on_c, 1, 79, 127
1, 166232, Note_off_c, 1, 71, 0
1, 166235, Note_on_c, 1, 75, 127
1, 166241, Note_off_c, 1, 52, 0
1, 166248, Note_on_c, 1, 78, 127
1, 166250, Note_off_c, 1, 79, 0
1, 166284, Note_off_c, 1, 75, 0
1, 166306, Note_off_c, 1, 78, 0
1, 166365, Note_on_c, 1, 57, 127
1, 166417, Note_off_c, 1, 57, 0
1, 166426, Note_on_c, 1, 59, 127
1, 166468, Note_off_c, 1, 59, 0
1, 166542, Note_on_c, 1, 67, 127
1, 166545, Note_on_c, 1, 60, 127
1, 166553, Note_on_c, 1, 64, 127
1, 166601, Note_off_c, 1, 60, 0
1, 166607, Note_on_c, 1, 62, 127
1, 166662, Note_off_c, 1, 62, 0
1, 166663, Note_off_c, 1, 67, 0
1, 166669, Note_on_c, 1, 69, 127
1, 166678, Note_off_c, 1, 64, 0
1, 166688, Note_on_c, 1, 66, 127
1, 166722, Note_off_c, 1, 69, 0
1, 166736, Note_off_c, 1, 66, 0
1, 166784, Note_on_c, 1, 72, 127
1, 166832, Note_off_c, 1, 72, 0
1, 167262, Note_on_c, 1, 59, 127
1, 167268, Note_on_c, 1, 67, 127
1, 167281, Note_on_c, 1, 76, 127
1, 167312, Note_on_c, 1, 75, 127
1, 167316, Note_off_c, 1, 76, 0
1, 167324, Note_on_c, 1, 57, 127
1, 167327, Note_off_c, 1, 59, 0
1, 167340, Note_off_c, 1, 75, 0
1, 167352, Note_off_c, 1, 67, 0
1, 167379, Note_off_c, 1, 57, 0
1, 167385, Note_on_c, 1, 55, 127
1, 167389, Note_on_c, 1, 66, 127
1, 167392, Note_on_c, 1, 69, 127
1, 167395, Note_on_c, 1, 71, 127
1, 167432, Note_off_c, 1, 71, 0
1, 167433, Note_off_c, 1, 69, 0
1, 167443, Note_on_c, 1, 54, 127
1, 167448, Note_off_c, 1, 55, 0
1, 167478, Note_off_c, 1, 66, 0
1, 167497, Note_off_c, 1, 54, 0
1, 167505, Note_on_c, 1, 55, 127
1, 167510, Note_on_c, 1, 76, 127
1, 167514, Note_on_c, 1, 64, 127
1, 167518, Note_on_c, 1, 71, 127
1, 167521, Note_on_c, 1, 67, 127
1, 167563, Note_on_c, 1, 54, 127
1, 167568, Note_off_c, 1, 55, 0
1, 167610, Note_off_c, 1, 54, 0
1, 167624, Note_off_c, 1, 76, 0
1, 167687, Note_on_c, 1, 57, 127
1, 167739, Note_off_c, 1, 57, 0
1, 167754, Note_off_c, 1, 67, 0
1, 167768, Note_off_c, 1, 71, 0
1, 167772, Note_off_c, 1, 64, 0
1, 167869, Note_on_c, 1, 78, 127
1, 167869, Note_on_c, 1, 52, 127
1, 167924, Note_off_c, 1, 52, 0
1, 167925, Note_on_c, 1, 51, 127
1, 167977, Note_off_c, 1, 78, 0
1, 167982, Note_off_c, 1, 51, 0
1, 167986, Note_on_c, 1, 79, 127
1, 167990, Note_on_c, 1, 52, 127
1, 168032, Note_off_c, 1, 52, 0
1, 168046, Note_on_c, 1, 51, 127
1, 168097, Note_off_c, 1, 51, 0
1, 168124, Note_on_c, 1, 71, 127
1, 168164, Note_on_c, 1, 54, 127
1, 168206, Note_off_c, 1, 54, 0
1, 168221, Note_on_c, 1, 55, 127
1, 168227, Note_off_c, 1, 71, 0
1, 168243, Note_on_c, 1, 76, 127
1, 168284, Note_off_c, 1, 55, 0
1, 168284, Note_on_c, 1, 57, 127
1, 168336, Note_off_c, 1, 57, 0
1, 168350, Note_on_c, 1, 59, 127
1, 168363, Note_off_c, 1, 76, 0
1, 168363, Note_on_c, 1, 74, 127
1, 168408, Note_off_c, 1, 59, 0
1, 168459, Note_off_c, 1, 74, 0
1, 168481, Note_on_c, 1, 72, 127
1, 168563, Note_off_c, 1, 79, 0
1, 168588, Note_on_c, 1, 69, 127
1, 168699, Note_off_c, 1, 69, 0
1, 168944, Note_on_c, 1, 50, 127
1, 168959, Note_on_c, 1, 78, 127
1, 168966, Note_off_c, 1, 72, 0
1, 169003, Note_on_c, 1, 48, 127
1, 169010, Note_off_c, 1, 50, 0
1, 169051, Note_off_c, 1, 48, 0
1, 169067, Note_on_c, 1, 62, 127
1, 169186, Note_off_c, 1, 62, 0
1, 169523, Note_off_c, 1, 78, 0
1, 169556, Note_on_c, 1, 83, 127
1, 169604, Note_off_c, 1, 83, 0
1, 169914, Note_on_c, 1, 48, 127
1, 169920, Note_on_c, 1, 76, 127
1, 169959, Note_off_c, 1, 48, 0
1, 169965, Note_on_c, 1, 50, 127
1, 170030, Note_on_c, 1, 78, 127
1, 170036, Note_off_c, 1, 50, 0
1, 170040, Note_off_c, 1, 76, 0
1, 170080, Note_on_c, 1, 47, 127
1, 170089, Note_on_c, 1, 79, 127
1, 170095, Note_off_c, 1, 78, 0
1, 170131, Note_off_c, 1, 79, 0
1, 170139, Note_on_c, 1, 45, 127
1, 170148, Note_off_c, 1, 47, 0
1, 170154, Note_on_c, 1, 81, 127
1, 170193, Note_off_c, 1, 45, 0
1, 170195, Note_on_c, 1, 43, 127
1, 170256, Note_off_c, 1, 43, 0
1, 170260, Note_on_c, 1, 42, 127
1, 170316, Note_off_c, 1, 42, 0
1, 170322, Note_on_c, 1, 40, 127
1, 170385, Note_off_c, 1, 40, 0
1, 170391, Note_on_c, 1, 39, 127
1, 170396, Note_on_c, 1, 71, 127
1, 170448, Note_on_c, 1, 72, 127
1, 170456, Note_off_c, 1, 39, 0
1, 170479, Note_off_c, 1, 81, 0
1, 170498, Note_off_c, 1, 72, 0
1, 170520, Note_on_c, 1, 73, 127
1, 170555, Note_off_c, 1, 71, 0
1, 170561, Note_on_c, 1, 69, 127
1, 170565, Note_on_c, 1, 75, 127
1, 170573, Note_off_c, 1, 73, 0
1, 170610, Note_off_c, 1, 75, 0
1, 170617, Note_off_c, 1, 69, 0
1, 170619, Note_on_c, 1, 67, 127
1, 170627, Note_on_c, 1, 76, 127
1, 170628, Note_on_c, 1, 79, 127
1, 170630, Note_on_c, 1, 48, 127
1, 170674, Note_off_c, 1, 79, 0
1, 170677, Note_on_c, 1, 66, 127
1, 170679, Note_off_c, 1, 48, 0
1, 170688, Note_off_c, 1, 67, 0
1, 170736, Note_off_c, 1, 66, 0
1, 170749, Note_on_c, 1, 47, 127
1, 170753, Note_on_c, 1, 84, 127
1, 170796, Note_on_c, 1, 64, 127
1, 170798, Note_off_c, 1, 47, 0
1, 170799, Note_off_c, 1, 84, 0
1, 170848, Note_off_c, 1, 64, 0
1, 170859, Note_on_c, 1, 72, 127
1, 170868, Note_on_c, 1, 45, 127
1, 170880, Note_on_c, 1, 78, 127
1, 170914, Note_off_c, 1, 45, 0
1, 170919, Note_on_c, 1, 71, 127
1, 170925, Note_off_c, 1, 72, 0
1, 170972, Note_off_c, 1, 71, 0
1, 170976, Note_on_c, 1, 69, 127
1, 170978, Note_off_c, 1, 76, 0
1, 170987, Note_on_c, 1, 42, 127
1, 170990, Note_on_c, 1, 74, 127
1, 171028, Note_off_c, 1, 69, 0
1, 171040, Note_off_c, 1, 42, 0
1, 171041, Note_off_c, 1, 74, 0
1, 171131, Note_off_c, 1, 78, 0
1, 171219, Note_on_c, 1, 80, 127
1, 171271, Note_on_c, 1, 81, 127
1, 171282, Note_off_c, 1, 80, 0
1, 171329, Note_off_c, 1, 81, 0
1, 171339, Note_on_c, 1, 83, 127
1, 171350, Note_on_c, 1, 44, 127
1, 171397, Note_off_c, 1, 83, 0
1, 171399, Note_off_c, 1, 44, 0
1, 171464, Note_on_c, 1, 52, 127
1, 171508, Note_off_c, 1, 52, 0
1, 171588, Note_on_c, 1, 57, 127
1, 171634, Note_off_c, 1, 57, 0
1, 171715, Note_on_c, 1, 55, 127
1, 171758, Note_off_c, 1, 55, 0
1, 171831, Note_on_c, 1, 54, 127
1, 171927, Note_off_c, 1, 54, 0
1, 171957, Note_on_c, 1, 62, 127
1, 172014, Note_on_c, 1, 60, 127
1, 172016, Note_off_c, 1, 62, 0
1, 172046, Note_off_c, 1, 60, 0
1, 172063, Note_on_c, 1, 68, 127
1, 172070, Note_on_c, 1, 59, 127
1, 172107, Note_off_c, 1, 59, 0
1, 172118, Note_off_c, 1, 68, 0
1, 172317, Note_on_c, 1, 56, 127
1, 172369, Note_on_c, 1, 77, 127
1, 172371, Note_off_c, 1, 56, 0
1, 172444, Note_off_c, 1, 77, 0
1, 172791, Note_on_c, 1, 65, 127
1, 172849, Note_off_c, 1, 65, 0
1, 173152, Note_on_c, 1, 53, 127
1, 173201, Note_off_c, 1, 53, 0
1, 173264, Note_on_c, 1, 50, 127
1, 173313, Note_off_c, 1, 50, 0
1, 173494, Note_on_c, 1, 80, 127
1, 173498, Note_on_c, 1, 71, 127
1, 173503, Note_on_c, 1, 52, 127
1, 173504, Note_on_c, 1, 64, 127
1, 173547, Note_off_c, 1, 71, 0
1, 173549, Note_off_c, 1, 52, 0
1, 173549, Note_on_c, 1, 69, 127
1, 173558, Note_off_c, 1, 64, 0
1, 173606, Note_off_c, 1, 69, 0
1, 173618, Note_on_c, 1, 40, 127
1, 173621, Note_on_c, 1, 74, 127
1, 173659, Note_off_c, 1, 74, 0
1, 173662, Note_off_c, 1, 40, 0
1, 173724, Note_off_c, 1, 80, 0
1, 173738, Note_on_c, 1, 45, 127
1, 173742, Note_on_c, 1, 72, 127
1, 173757, Note_on_c, 1, 81, 127
1, 173831, Note_off_c, 1, 45, 0
1, 173869, Note_on_c, 1, 76, 127
1, 173916, Note_off_c, 1, 76, 0
1, 173929, Note_on_c, 1, 62, 127
1, 173969, Note_off_c, 1, 62, 0
1, 173986, Note_on_c, 1, 60, 127
1, 174031, Note_off_c, 1, 60, 0
1, 174041, Note_on_c, 1, 59, 127
1, 174094, Note_off_c, 1, 59, 0
1, 174157, Note_on_c, 1, 57, 127
1, 174207, Note_off_c, 1, 57, 0
1, 174235, Note_on_c, 1, 78, 127
1, 174269, Note_off_c, 1, 81, 0
1, 174297, Note_on_c, 1, 82, 127
1, 174333, Note_off_c, 1, 78, 0
1, 174345, Note_on_c, 1, 50, 127
1, 174367, Note_off_c, 1, 82, 0
1, 174415, Note_on_c, 1, 79, 127
1, 174422, Note_off_c, 1, 50, 0
1, 174465, Note_off_c, 1, 79, 0
1, 174479, Note_off_c, 1, 72, 0
1, 174530, Note_on_c, 1, 76, 127
1, 174584, Note_off_c, 1, 76, 0
1, 174586, Note_on_c, 1, 78, 127
1, 174590, Note_on_c, 1, 58, 127
1, 174591, Note_on_c, 1, 74, 127
1, 174632, Note_off_c, 1, 58, 0
1, 174636, Note_off_c, 1, 74, 0
1, 174648, Note_off_c, 1, 78, 0
1, 174708, Note_on_c, 1, 63, 127
1, 174712, Note_on_c, 1, 70, 127
1, 174715, Note_on_c, 1, 79, 127
1, 174749, Note_off_c, 1, 63, 0
1, 174764, Note_on_c, 1, 75, 127
1, 174821, Note_on_c, 1, 74, 127
1, 174829, Note_off_c, 1, 70, 0
1, 174835, Note_on_c, 1, 54, 127
1, 174840, Note_on_c, 1, 72, 127
1, 174841, Note_off_c, 1, 75, 0
1, 174875, Note_off_c, 1, 54, 0
1, 174879, Note_off_c, 1, 74, 0
1, 174926, Note_off_c, 1, 72, 0
1, 174958, Note_on_c, 1, 55, 127
1, 174992, Note_off_c, 1, 55, 0
1, 174997, Note_on_c, 1, 69, 127
1, 175050, Note_off_c, 1, 69, 0
1, 175069, Note_on_c, 1, 51, 127
1, 175101, Note_off_c, 1, 51, 0
1, 175112, Note_on_c, 1, 67, 127
1, 175160, Note_off_c, 1, 67, 0
1, 175185, Note_on_c, 1, 48, 127
1, 175228, Note_off_c, 1, 48, 0
1, 175294, Note_on_c, 1, 45, 127
1, 175339, Note_off_c, 1, 45, 0
1, 175418, Note_on_c, 1, 50, 127
1, 175419, Note_on_c, 1, 62, 127
1, 175423, Note_off_c, 1, 79, 0
1, 175423, Note_on_c, 1, 78, 127
1, 175460, Note_off_c, 1, 50, 0
1, 175475, Note_off_c, 1, 62, 0
1, 175539, Note_on_c, 1, 38, 127
1, 175581, Note_off_c, 1, 38, 0
1, 175655, Note_off_c, 1, 78, 0
1, 175667, Note_on_c, 1, 43, 127
1, 175760, Note_off_c, 1, 43, 0
1, 175845, Note_on_c, 1, 60, 127
1, 175884, Note_off_c, 1, 60, 0
1, 175896, Note_on_c, 1, 58, 127
1, 175939, Note_off_c, 1, 58, 0
1, 175951, Note_on_c, 1, 57, 127
1, 175994, Note_off_c, 1, 57, 0
1, 176149, Note_on_c, 1, 76, 127
1, 176216, Note_on_c, 1, 81, 127
1, 176242, Note_off_c, 1, 76, 0
1, 176281, Note_off_c, 1, 81, 0
1, 176334, Note_on_c, 1, 77, 127
1, 176393, Note_off_c, 1, 77, 0
1, 176509, Note_on_c, 1, 76, 127
1, 176512, Note_on_c, 1, 72, 127
1, 176518, Note_on_c, 1, 57, 127
1, 176556, Note_off_c, 1, 72, 0
1, 176557, Note_off_c, 1, 57, 0
1, 176560, Note_off_c, 1, 76, 0
1, 176567, Note_on_c, 1, 72, 127
1, 176620, Note_off_c, 1, 72, 0
1, 176628, Note_on_c, 1, 69, 127
1, 176633, Note_on_c, 1, 77, 127
1, 176640, Note_on_c, 1, 62, 127
1, 176681, Note_off_c, 1, 62, 0
1, 176691, Note_on_c, 1, 74, 127
1, 176736, Note_off_c, 1, 69, 0
1, 176745, Note_on_c, 1, 72, 127
1, 176751, Note_on_c, 1, 52, 127
1, 176752, Note_on_c, 1, 70, 127
1, 176761, Note_off_c, 1, 74, 0
1, 176801, Note_off_c, 1, 52, 0
1, 176805, Note_off_c, 1, 72, 0
1, 176865, Note_off_c, 1, 70, 0
1, 176871, Note_on_c, 1, 53, 127
1, 176915, Note_on_c, 1, 67, 127
1, 176919, Note_off_c, 1, 53, 0
1, 176983, Note_off_c, 1, 67, 0
1, 176988, Note_on_c, 1, 50, 127
1, 177038, Note_on_c, 1, 65, 127
1, 177046, Note_off_c, 1, 50, 0
1, 177102, Note_off_c, 1, 65, 0
1, 177111, Note_on_c, 1, 46, 127
1, 177166, Note_off_c, 1, 46, 0
1, 177228, Note_on_c, 1, 43, 127
1, 177279, Note_off_c, 1, 43, 0
1, 177344, Note_on_c, 1, 60, 127
1, 177352, Note_on_c, 1, 48, 127
1, 177355, Note_on_c, 1, 76, 127
1, 177356, Note_off_c, 1, 77, 0
1, 177395, Note_off_c, 1, 48, 0
1, 177405, Note_off_c, 1, 60, 0
1, 177473, Note_on_c, 1, 36, 127
1, 177529, Note_off_c, 1, 36, 0
1, 177566, Note_off_c, 1, 76, 0
1, 177583, Note_on_c, 1, 77, 127
1, 177587, Note_on_c, 1, 69, 127
1, 177607, Note_on_c, 1, 41, 127
1, 177642, Note_on_c, 1, 67, 127
1, 177648, Note_on_c, 1, 70, 127
1, 177658, Note_off_c, 1, 69, 0
1, 177668, Note_off_c, 1, 77, 0
1, 177681, Note_off_c, 1, 70, 0
1, 177701, Note_on_c, 1, 65, 127
1, 177715, Note_off_c, 1, 67, 0
1, 177721, Note_off_c, 1, 41, 0
1, 177776, Note_off_c, 1, 65, 0
1, 177870, Note_on_c, 1, 64, 127
1, 177924, Note_off_c, 1, 64, 0
1, 177991, Note_on_c, 1, 71, 127
1, 177994, Note_on_c, 1, 62, 127
1, 178033, Note_off_c, 1, 62, 0
1, 178053, Note_off_c, 1, 71, 0
1, 178061, Note_on_c, 1, 72, 127
1, 178064, Note_on_c, 1, 69, 127
1, 178065, Note_on_c, 1, 76, 127
1, 178126, Note_on_c, 1, 67, 127
1, 178127, Note_off_c, 1, 69, 0
1, 178130, Note_on_c, 1, 58, 127
1, 178174, Note_off_c, 1, 76, 0
1, 178179, Note_off_c, 1, 67, 0
1, 178184, Note_off_c, 1, 58, 0
1, 178188, Note_on_c, 1, 77, 127
1, 178188, Note_on_c, 1, 57, 127
1, 178200, Note_off_c, 1, 72, 0
1, 178233, Note_on_c, 1, 70, 127
1, 178235, Note_off_c, 1, 77, 0
1, 178238, Note_on_c, 1, 79, 127
1, 178241, Note_off_c, 1, 57, 0
1, 178244, Note_on_c, 1, 55, 127
1, 178281, Note_off_c, 1, 79, 0
1, 178284, Note_off_c, 1, 70, 0
1, 178300, Note_on_c, 1, 81, 127
1, 178304, Note_off_c, 1, 55, 0
1, 178304, Note_on_c, 1, 53, 127
1, 178340, Note_off_c, 1, 81, 0
1, 178352, Note_off_c, 1, 53, 0
1, 178362, Note_on_c, 1, 52, 127
1, 178416, Note_off_c, 1, 52, 0
1, 178472, Note_on_c, 1, 50, 127
1, 178529, Note_off_c, 1, 50, 0
1, 178534, Note_on_c, 1, 55, 127
1, 178536, Note_on_c, 1, 74, 127
1, 178539, Note_on_c, 1, 67, 127
1, 178548, Note_on_c, 1, 72, 127
1, 178588, Note_off_c, 1, 67, 0
1, 178591, Note_off_c, 1, 74, 0
1, 178599, Note_off_c, 1, 55, 0
1, 178660, Note_on_c, 1, 43, 127
1, 178661, Note_off_c, 1, 72, 0
1, 178665, Note_on_c, 1, 79, 127
1, 178708, Note_off_c, 1, 79, 0
1, 178709, Note_on_c, 1, 71, 127
1, 178740, Note_on_c, 1, 69, 127
1, 178742, Note_off_c, 1, 43, 0
1, 178788, Note_off_c, 1, 69, 0
1, 178808, Note_off_c, 1, 71, 0
1, 179037, Note_on_c, 1, 64, 127
1, 179137, Note_off_c, 1, 64, 0
1, 179152, Note_on_c, 1, 65, 127
1, 179160, Note_on_c, 1, 60, 127
1, 179197, Note_off_c, 1, 65, 0
1, 179202, Note_off_c, 1, 60, 0
1, 179327, Note_on_c, 1, 76, 127
1, 179384, Note_on_c, 1, 81, 127
1, 179389, Note_off_c, 1, 76, 0
1, 179506, Note_on_c, 1, 77, 127
1, 179516, Note_on_c, 1, 62, 127
1, 179521, Note_on_c, 1, 59, 127
1, 179557, Note_off_c, 1, 81, 0
1, 179567, Note_off_c, 1, 62, 0
1, 179569, Note_off_c, 1, 77, 0
1, 179572, Note_on_c, 1, 84, 127
1, 179630, Note_off_c, 1, 84, 0
1, 179631, Note_on_c, 1, 83, 127
1, 179638, Note_off_c, 1, 59, 0
1, 179687, Note_off_c, 1, 83, 0
1, 179990, Note_on_c, 1, 57, 127
1, 180041, Note_off_c, 1, 57, 0
1, 180224, Note_on_c, 1, 50, 127
1, 180285, Note_off_c, 1, 50, 0
1, 180460, Note_on_c, 1, 59, 127
1, 180465, Note_on_c, 1, 67, 127
1, 180468, Note_on_c, 1, 62, 127
1, 180472, Note_on_c, 1, 77, 127
1, 180521, Note_off_c, 1, 59, 0
1, 180521, Note_off_c, 1, 67, 0
1, 180527, Note_off_c, 1, 62, 0
1, 180533, Note_on_c, 1, 76, 127
1, 180540, Note_off_c, 1, 77, 0
1, 180582, Note_on_c, 1, 55, 127
1, 180589, Note_off_c, 1, 76, 0
1, 180589, Note_on_c, 1, 74, 127
1, 180593, Note_on_c, 1, 71, 127
1, 180628, Note_off_c, 1, 55, 0
1, 180641, Note_off_c, 1, 71, 0
1, 180652, Note_off_c, 1, 74, 0
1, 180701, Note_on_c, 1, 60, 127
1, 180715, Note_on_c, 1, 77, 127
1, 180715, Note_on_c, 1, 72, 127
1, 180719, Note_on_c, 1, 67, 127
1, 180742, Note_on_c, 1, 76, 127
1, 180748, Note_off_c, 1, 60, 0
1, 180749, Note_off_c, 1, 77, 0
1, 180767, Note_off_c, 1, 67, 0
1, 180769, Note_on_c, 1, 74, 127
1, 180776, Note_on_c, 1, 65, 127
1, 180777, Note_off_c, 1, 76, 0
1, 180781, Note_off_c, 1, 72, 0
1, 180814, Note_off_c, 1, 65, 0
1, 180819, Note_on_c, 1, 48, 127
1, 180824, Note_off_c, 1, 74, 0
1, 180880, Note_off_c, 1, 48, 0
1, 180886, Note_on_c, 1, 64, 127
1, 180887, Note_on_c, 1, 72, 127
1, 180888, Note_on_c, 1, 76, 127
1, 180925, Note_off_c, 1, 72, 0
1, 180928, Note_off_c, 1, 76, 0
1, 180934, Note_off_c, 1, 64, 0
1, 180948, Note_on_c, 1, 60, 127
1, 180951, Note_on_c, 1, 69, 127
1, 180951, Note_on_c, 1, 41, 127
1, 180953, Note_on_c, 1, 76, 127
1, 181007, Note_off_c, 1, 76, 0
1, 181046, Note_off_c, 1, 41, 0
1, 181057, Note_off_c, 1, 60, 0
1, 181068, Note_on_c, 1, 71, 127
1, 181073, Note_on_c, 1, 53, 127
1, 181078, Note_on_c, 1, 62, 127
1, 181113, Note_off_c, 1, 53, 0
1, 181123, Note_off_c, 1, 71, 0
1, 181123, Note_on_c, 1, 72, 127
1, 181132, Note_off_c, 1, 62, 0
1, 181134, Note_on_c, 1, 64, 127
1, 181170, Note_off_c, 1, 72, 0
1, 181194, Note_on_c, 1, 74, 127
1, 181196, Note_on_c, 1, 65, 127
1, 181203, Note_off_c, 1, 64, 0
1, 181237, Note_off_c, 1, 69, 0
1, 181242, Note_off_c, 1, 65, 0
1, 181249, Note_on_c, 1, 67, 127
1, 181293, Note_off_c, 1, 67, 0
1, 181340, Note_off_c, 1, 74, 0
1, 181427, Note_on_c, 1, 52, 127
1, 181428, Note_on_c, 1, 67, 127
1, 181432, Note_on_c, 1, 59, 127
1, 181437, Note_on_c, 1, 74, 127
1, 181495, Note_on_c, 1, 72, 127
1, 181496, Note_off_c, 1, 59, 0
1, 181499, Note_off_c, 1, 74, 0
1, 181543, Note_off_c, 1, 52, 0
1, 181545, Note_off_c, 1, 72, 0
1, 181547, Note_on_c, 1, 64, 127
1, 181547, Note_on_c, 1, 53, 127
1, 181596, Note_on_c, 1, 55, 127
1, 181606, Note_off_c, 1, 53, 0
1, 181607, Note_off_c, 1, 64, 0
1, 181613, Note_on_c, 1, 71, 127
1, 181657, Note_off_c, 1, 55, 0
1, 181660, Note_on_c, 1, 57, 127
1, 181666, Note_off_c, 1, 71, 0
1, 181674, Note_on_c, 1, 60, 127
1, 181714, Note_off_c, 1, 57, 0
1, 181715, Note_off_c, 1, 67, 0
1, 181733, Note_off_c, 1, 60, 0
1, 181733, Note_on_c, 1, 76, 127
1, 181787, Note_off_c, 1, 76, 0
1, 181789, Note_on_c, 1, 65, 127
1, 181847, Note_off_c, 1, 65, 0
1, 181904, Note_on_c, 1, 50, 127
1, 181911, Note_on_c, 1, 77, 127
1, 181911, Note_on_c, 1, 62, 127
1, 181915, Note_on_c, 1, 69, 127
1, 181959, Note_off_c, 1, 50, 0
1, 181973, Note_on_c, 1, 79, 127
1, 181976, Note_off_c, 1, 77, 0
1, 182026, Note_off_c, 1, 69, 0
1, 182026, Note_on_c, 1, 55, 127
1, 182033, Note_on_c, 1, 71, 127
1, 182034, Note_off_c, 1, 79, 0
1, 182063, Note_off_c, 1, 62, 0
1, 182068, Note_off_c, 1, 55, 0
1, 182082, Note_on_c, 1, 64, 127
1, 182087, Note_on_c, 1, 72, 127
1, 182089, Note_on_c, 1, 76, 127
1, 182095, Note_off_c, 1, 71, 0
1, 182127, Note_off_c, 1, 64, 0
1, 182134, Note_off_c, 1, 72, 0
1, 182145, Note_on_c, 1, 65, 127
1, 182149, Note_off_c, 1, 76, 0
1, 182150, Note_on_c, 1, 43, 127
1, 182152, Note_on_c, 1, 74, 127
1, 182182, Note_on_c, 1, 67, 127
1, 182198, Note_off_c, 1, 67, 0
1, 182204, Note_off_c, 1, 74, 0
1, 182207, Note_off_c, 1, 43, 0
1, 182256, Note_off_c, 1, 65, 0
1, 182268, Note_on_c, 1, 53, 127
1, 182312, Note_off_c, 1, 53, 0
1, 182384, Note_on_c, 1, 72, 127
1, 182388, Note_on_c, 1, 52, 127
1, 182391, Note_on_c, 1, 67, 127
1, 182398, Note_on_c, 1, 64, 127
1, 182443, Note_off_c, 1, 52, 0
1, 182445, Note_on_c, 1, 74, 127
1, 182453, Note_off_c, 1, 64, 0
1, 182456, Note_off_c, 1, 72, 0
1, 182502, Note_off_c, 1, 67, 0
1, 182508, Note_on_c, 1, 76, 127
1, 182510, Note_on_c, 1, 55, 127
1, 182511, Note_on_c, 1, 60, 127
1, 182528, Note_off_c, 1, 74, 0
1, 182560, Note_off_c, 1, 55, 0
1, 182564, Note_off_c, 1, 76, 0
1, 182567, Note_on_c, 1, 77, 127
1, 182580, Note_off_c, 1, 60, 0
1, 182628, Note_on_c, 1, 79, 127
1, 182632, Note_off_c, 1, 77, 0
1, 182686, Note_on_c, 1, 81, 127
1, 182689, Note_off_c, 1, 79, 0
1, 182744, Note_on_c, 1, 48, 127
1, 182747, Note_on_c, 1, 82, 127
1, 182751, Note_off_c, 1, 81, 0
1, 182811, Note_off_c, 1, 82, 0
1, 182814, Note_off_c, 1, 48, 0
1, 182860, Note_on_c, 1, 53, 127
1, 182861, Note_on_c, 1, 77, 127
1, 182872, Note_on_c, 1, 81, 127
1, 182876, Note_on_c, 1, 60, 127
1, 182928, Note_on_c, 1, 82, 127
1, 182933, Note_off_c, 1, 53, 0
1, 182935, Note_off_c, 1, 60, 0
1, 182938, Note_off_c, 1, 81, 0
1, 182981, Note_off_c, 1, 82, 0
1, 182985, Note_on_c, 1, 50, 127
1, 182993, Note_on_c, 1, 65, 127
1, 183032, Note_off_c, 1, 77, 0
1, 183043, Note_on_c, 1, 79, 127
1, 183053, Note_on_c, 1, 76, 127
1, 183056, Note_off_c, 1, 65, 0
1, 183057, Note_off_c, 1, 50, 0
1, 183103, Note_off_c, 1, 76, 0
1, 183107, Note_off_c, 1, 79, 0
1, 183108, Note_on_c, 1, 52, 127
1, 183111, Note_on_c, 1, 74, 127
1, 183116, Note_on_c, 1, 67, 127
1, 183167, Note_on_c, 1, 72, 127
1, 183168, Note_off_c, 1, 74, 0
1, 183169, Note_off_c, 1, 52, 0
1, 183169, Note_off_c, 1, 67, 0
1, 183215, Note_off_c, 1, 72, 0
1, 183220, Note_on_c, 1, 71, 127
1, 183234, Note_on_c, 1, 69, 127
1, 183268, Note_off_c, 1, 71, 0
1, 183317, Note_off_c, 1, 69, 0
1, 183338, Note_on_c, 1, 71, 127
1, 183342, Note_on_c, 1, 67, 127
1, 183351, Note_on_c, 1, 55, 127
1, 183360, Note_on_c, 1, 62, 127
1, 183405, Note_on_c, 1, 76, 127
1, 183467, Note_off_c, 1, 76, 0
1, 183468, Note_on_c, 1, 74, 127
1, 183474, Note_on_c, 1, 79, 127
1, 183490, Note_off_c, 1, 67, 0
1, 183512, Note_off_c, 1, 79, 0
1, 183521, Note_off_c, 1, 74, 0
1, 183526, Note_off_c, 1, 71, 0
1, 183531, Note_on_c, 1, 72, 127
1, 183576, Note_off_c, 1, 72, 0
1, 183604, Note_off_c, 1, 62, 0
1, 183630, Note_off_c, 1, 55, 0
1, 183640, Note_on_c, 1, 69, 127
1, 183706, Note_off_c, 1, 69, 0
1, 183708, Note_on_c, 1, 71, 127
1, 183723, Note_on_c, 1, 79, 127
1, 183758, Note_off_c, 1, 71, 0
1, 183763, Note_off_c, 1, 79, 0
1, 183768, Note_on_c, 1, 67, 127
1, 183814, Note_off_c, 1, 67, 0
1, 183831, Note_on_c, 1, 72, 127
1, 183839, Note_on_c, 1, 76, 127
1, 183887, Note_on_c, 1, 81, 127
1, 183942, Note_off_c, 1, 76, 0
1, 183947, Note_on_c, 1, 79, 127
1, 183951, Note_off_c, 1, 81, 0
1, 183959, Note_on_c, 1, 77, 127
1, 183998, Note_off_c, 1, 79, 0
1, 184059, Note_off_c, 1, 77, 0
1, 184116, Note_on_c, 1, 74, 127
1, 184172, Note_off_c, 1, 74, 0
1, 184549, Note_on_c, 1, 67, 127
1, 184554, Note_off_c, 1, 72, 0
1, 184560, Note_on_c, 1, 71, 127
1, 184602, Note_off_c, 1, 67, 0
1, 184758, Note_off_c, 1, 71, 0
1, 184792, Note_on_c, 1, 76, 127
1, 184797, Note_on_c, 1, 72, 127
1, 184848, Note_on_c, 1, 74, 127
1, 184853, Note_off_c, 1, 72, 0
1, 184856, Note_on_c, 1, 71, 127
1, 184865, Note_off_c, 1, 76, 0
1, 184919, Note_off_c, 1, 74, 0
1, 184928, Note_off_c, 1, 71, 0
1, 185197, Note_on_c, 1, 78, 127
1, 185257, Note_off_c, 1, 78, 0
1, 185263, Note_on_c, 1, 71, 127
1, 185264, Note_on_c, 1, 79, 127
1, 185380, Note_off_c, 1, 71, 0
1, 185388, Note_on_c, 1, 72, 127
1, 185408, Note_off_c, 1, 79, 0
1, 185433, Note_off_c, 1, 72, 0
1, 185437, Note_on_c, 1, 74, 127
1, 185494, Note_off_c, 1, 74, 0
1, 185504, Note_on_c, 1, 79, 127
1, 185504, Note_on_c, 1, 76, 127
1, 185550, Note_off_c, 1, 76, 0
1, 185625, Note_on_c, 1, 72, 127
1, 185651, Note_off_c, 1, 79, 0
1, 185672, Note_off_c, 1, 72, 0
1, 185688, Note_on_c, 1, 79, 127
1, 185728, Note_off_c, 1, 79, 0
1, 185747, Note_on_c, 1, 79, 127
1, 185747, Note_on_c, 1, 69, 127
1, 185798, Note_off_c, 1, 69, 0
1, 185866, Note_on_c, 1, 74, 127
1, 185872, Note_off_c, 1, 79, 0
1, 185907, Note_off_c, 1, 74, 0
1, 185907, Note_on_c, 1, 78, 127
1, 185942, Note_on_c, 1, 76, 127
1, 185952, Note_off_c, 1, 78, 0
1, 185985, Note_on_c, 1, 62, 127
1, 185990, Note_off_c, 1, 76, 0
1, 186042, Note_off_c, 1, 62, 0
1, 186104, Note_on_c, 1, 72, 127
1, 186151, Note_off_c, 1, 72, 0
1, 186153, Note_on_c, 1, 79, 127
1, 186212, Note_off_c, 1, 79, 0
1, 186223, Note_on_c, 1, 79, 127
1, 186232, Note_on_c, 1, 71, 127
1, 186289, Note_on_c, 1, 69, 127
1, 186293, Note_off_c, 1, 71, 0
1, 186342, Note_off_c, 1, 79, 0
1, 186345, Note_off_c, 1, 69, 0
1, 186347, Note_on_c, 1, 67, 127
1, 186348, Note_on_c, 1, 77, 127
1, 186397, Note_on_c, 1, 76, 127
1, 186399, Note_on_c, 1, 69, 127
1, 186407, Note_off_c, 1, 67, 0
1, 186409, Note_off_c, 1, 77, 0
1, 186444, Note_off_c, 1, 69, 0
1, 186450, Note_off_c, 1, 76, 0
1, 186454, Note_on_c, 1, 74, 127
1, 186461, Note_on_c, 1, 71, 127
1, 186472, Note_on_c, 1, 67, 127
1, 186517, Note_off_c, 1, 74, 0
1, 186565, Note_off_c, 1, 67, 0
1, 186573, Note_off_c, 1, 71, 0
1, 186575, Note_on_c, 1, 72, 127
1, 186581, Note_on_c, 1, 69, 127
1, 186590, Note_on_c, 1, 67, 127
1, 186628, Note_off_c, 1, 67, 0
1, 186630, Note_off_c, 1, 72, 0
1, 186630, Note_off_c, 1, 69, 0
1, 186632, Note_on_c, 1, 74, 127
1, 186636, Note_on_c, 1, 71, 127
1, 186676, Note_off_c, 1, 71, 0
1, 186682, Note_off_c, 1, 74, 0
1, 186691, Note_on_c, 1, 67, 127
1, 186703, Note_on_c, 1, 72, 127
1, 186709, Note_on_c, 1, 64, 127
1, 186761, Note_off_c, 1, 67, 0
1, 186820, Note_off_c, 1, 64, 0
1, 186825, Note_on_c, 1, 79, 127
1, 186832, Note_on_c, 1, 65, 127
1, 186838, Note_off_c, 1, 72, 0
1, 186873, Note_off_c, 1, 65, 0
1, 186878, Note_off_c, 1, 79, 0
1, 186880, Note_on_c, 1, 67, 127
1, 186927, Note_off_c, 1, 67, 0
1, 186945, Note_on_c, 1, 69, 127
1, 186947, Note_on_c, 1, 76, 127
1, 186948, Note_on_c, 1, 72, 127
1, 186987, Note_off_c, 1, 69, 0
1, 187005, Note_off_c, 1, 76, 0
1, 187064, Note_on_c, 1, 81, 127
1, 187065, Note_on_c, 1, 65, 127
1, 187077, Note_off_c, 1, 72, 0
1, 187115, Note_off_c, 1, 65, 0
1, 187123, Note_off_c, 1, 81, 0
1, 187126, Note_on_c, 1, 72, 127
1, 187159, Note_off_c, 1, 72, 0
1, 187185, Note_on_c, 1, 62, 127
1, 187189, Note_on_c, 1, 72, 127
1, 187192, Note_on_c, 1, 77, 127
1, 187232, Note_off_c, 1, 62, 0
1, 187249, Note_on_c, 1, 79, 127
1, 187257, Note_off_c, 1, 77, 0
1, 187304, Note_off_c, 1, 72, 0
1, 187304, Note_off_c, 1, 79, 0
1, 187304, Note_on_c, 1, 67, 127
1, 187346, Note_off_c, 1, 67, 0
1, 187346, Note_on_c, 1, 71, 127
1, 187371, Note_on_c, 1, 76, 127
1, 187374, Note_on_c, 1, 69, 127
1, 187378, Note_off_c, 1, 71, 0
1, 187406, Note_off_c, 1, 69, 0
1, 187432, Note_on_c, 1, 55, 127
1, 187434, Note_off_c, 1, 76, 0
1, 187435, Note_on_c, 1, 74, 127
1, 187488, Note_off_c, 1, 55, 0
1, 187496, Note_off_c, 1, 74, 0
1, 187552, Note_on_c, 1, 65, 127
1, 187595, Note_off_c, 1, 65, 0
1, 187668, Note_on_c, 1, 72, 127
1, 187674, Note_on_c, 1, 79, 127
1, 187676, Note_on_c, 1, 64, 127
1, 187730, Note_on_c, 1, 77, 127
1, 187734, Note_off_c, 1, 64, 0
1, 187734, Note_on_c, 1, 62, 127
1, 187742, Note_off_c, 1, 79, 0
1, 187764, Note_off_c, 1, 72, 0
1, 187786, Note_off_c, 1, 62, 0
1, 187790, Note_on_c, 1, 67, 127
1, 187794, Note_on_c, 1, 76, 127
1, 187797, Note_on_c, 1, 60, 127
1, 187799, Note_off_c, 1, 77, 0
1, 187837, Note_off_c, 1, 67, 0
1, 187847, Note_on_c, 1, 65, 127
1, 187850, Note_on_c, 1, 74, 127
1, 187855, Note_off_c, 1, 60, 0
1, 187865, Note_off_c, 1, 76, 0
1, 187889, Note_off_c, 1, 65, 0
1, 187921, Note_off_c, 1, 74, 0
1, 187972, Note_on_c, 1, 71, 127
1, 187973, Note_on_c, 1, 62, 127
1, 188024, Note_off_c, 1, 71, 0
1, 188026, Note_on_c, 1, 76, 127
1, 188027, Note_on_c, 1, 72, 127
1, 188030, Note_off_c, 1, 62, 0
1, 188036, Note_on_c, 1, 64, 127
1, 188036, Note_on_c, 1, 60, 127
1, 188067, Note_off_c, 1, 76, 0
1, 188084, Note_on_c, 1, 69, 127
1, 188085, Note_off_c, 1, 72, 0
1, 188088, Note_off_c, 1, 60, 0
1, 188096, Note_on_c, 1, 66, 127
1, 188098, Note_off_c, 1, 64, 0
1, 188137, Note_off_c, 1, 66, 0
1, 188142, Note_off_c, 1, 69, 0
1, 188152, Note_on_c, 1, 74, 127
1, 188164, Note_on_c, 1, 67, 127
1, 188164, Note_on_c, 1, 59, 127
1, 188210, Note_on_c, 1, 72, 127
1, 188215, Note_off_c, 1, 67, 0
1, 188258, Note_off_c, 1, 74, 0
1, 188260, Note_off_c, 1, 72, 0
1, 188269, Note_on_c, 1, 71, 127
1, 188272, Note_on_c, 1, 76, 127
1, 188273, Note_off_c, 1, 59, 0
1, 188277, Note_on_c, 1, 60, 127
1, 188278, Note_on_c, 1, 62, 127
1, 188320, Note_off_c, 1, 71, 0
1, 188324, Note_off_c, 1, 60, 0
1, 188326, Note_on_c, 1, 69, 127
1, 188327, Note_off_c, 1, 76, 0
1, 188331, Note_on_c, 1, 78, 127
1, 188376, Note_off_c, 1, 62, 0
1, 188376, Note_off_c, 1, 69, 0
1, 188379, Note_off_c, 1, 78, 0
1, 188382, Note_on_c, 1, 64, 127
1, 188384, Note_on_c, 1, 67, 127
1, 188396, Note_on_c, 1, 79, 127
1, 188431, Note_off_c, 1, 64, 0
1, 188490, Note_off_c, 1, 79, 0
1, 188507, Note_on_c, 1, 76, 127
1, 188507, Note_on_c, 1, 60, 127
1, 188512, Note_on_c, 1, 81, 127
1, 188527, Note_off_c, 1, 67, 0
1, 188558, Note_off_c, 1, 60, 0
1, 188558, Note_off_c, 1, 81, 0
1, 188562, Note_on_c, 1, 74, 127
1, 188567, Note_on_c, 1, 83, 127
1, 188570, Note_off_c, 1, 76, 0
1, 188609, Note_off_c, 1, 83, 0
1, 188613, Note_off_c, 1, 74, 0
1, 188626, Note_on_c, 1, 57, 127
1, 188629, Note_on_c, 1, 67, 127
1, 188630, Note_on_c, 1, 76, 127
1, 188631, Note_on_c, 1, 84, 127
1, 188667, Note_off_c, 1, 76, 0
1, 188676, Note_off_c, 1, 57, 0
1, 188734, Note_off_c, 1, 67, 0
1, 188748, Note_on_c, 1, 62, 127
1, 188752, Note_on_c, 1, 69, 127
1, 188762, Note_off_c, 1, 84, 0
1, 188774, Note_on_c, 1, 66, 127
1, 188789, Note_off_c, 1, 62, 0
1, 188793, Note_on_c, 1, 83, 127
1, 188811, Note_off_c, 1, 69, 0
1, 188811, Note_off_c, 1, 66, 0
1, 188811, Note_on_c, 1, 64, 127
1, 188834, Note_off_c, 1, 83, 0
1, 188852, Note_off_c, 1, 64, 0
1, 188869, Note_on_c, 1, 50, 127
1, 188878, Note_on_c, 1, 74, 127
1, 188880, Note_on_c, 1, 81, 127
1, 188923, Note_off_c, 1, 50, 0
1, 188924, Note_off_c, 1, 81, 0
1, 188936, Note_on_c, 1, 72, 127
1, 188940, Note_off_c, 1, 74, 0
1, 188986, Note_on_c, 1, 60, 127
1, 188987, Note_off_c, 1, 72, 0
1, 188989, Note_on_c, 1, 71, 127
1, 189038, Note_off_c, 1, 60, 0
1, 189042, Note_on_c, 1, 79, 127
1, 189051, Note_off_c, 1, 71, 0
1, 189080, Note_off_c, 1, 79, 0
1, 189111, Note_on_c, 1, 79, 127
1, 189111, Note_on_c, 1, 59, 127
1, 189112, Note_on_c, 1, 74, 127
1, 189130, Note_on_c, 1, 67, 127
1, 189165, Note_on_c, 1, 57, 127
1, 189178, Note_off_c, 1, 59, 0
1, 189178, Note_on_c, 1, 69, 127
1, 189191, Note_off_c, 1, 67, 0
1, 189223, Note_off_c, 1, 79, 0
1, 189224, Note_on_c, 1, 55, 127
1, 189227, Note_off_c, 1, 69, 0
1, 189229, Note_off_c, 1, 57, 0
1, 189231, Note_on_c, 1, 77, 127
1, 189234, Note_on_c, 1, 71, 127
1, 189285, Note_off_c, 1, 71, 0
1, 189285, Note_on_c, 1, 72, 127
1, 189287, Note_on_c, 1, 76, 127
1, 189292, Note_off_c, 1, 77, 0
1, 189297, Note_off_c, 1, 55, 0
1, 189334, Note_off_c, 1, 72, 0
1, 189347, Note_off_c, 1, 76, 0
1, 189408, Note_off_c, 1, 74, 0
1, 189582, Note_on_c, 1, 60, 127
1, 189587, Note_on_c, 1, 76, 127
1, 189591, Note_on_c, 1, 67, 127
1, 189593, Note_on_c, 1, 72, 127
1, 189638, Note_off_c, 1, 60, 0
1, 189640, Note_on_c, 1, 62, 127
1, 189643, Note_off_c, 1, 76, 0
1, 189644, Note_off_c, 1, 72, 0
1, 189651, Note_on_c, 1, 71, 127
1, 189702, Note_off_c, 1, 71, 0
1, 189703, Note_off_c, 1, 62, 0
1, 189707, Note_on_c, 1, 69, 127
1, 189751, Note_off_c, 1, 69, 0
1, 189756, Note_on_c, 1, 59, 127
1, 189814, Note_on_c, 1, 57, 127
1, 189822, Note_off_c, 1, 59, 0
1, 189830, Note_off_c, 1, 67, 0
1, 189830, Note_on_c, 1, 84, 127
1, 189830, Note_on_c, 1, 65, 127
1, 189870, Note_on_c, 1, 55, 127
1, 189873, Note_off_c, 1, 57, 0
1, 189889, Note_off_c, 1, 65, 0
1, 189928, Note_on_c, 1, 53, 127
1, 189939, Note_on_c, 1, 74, 127
1, 189942, Note_off_c, 1, 55, 0
1, 189983, Note_off_c, 1, 84, 0
1, 189990, Note_off_c, 1, 74, 0
1, 189994, Note_on_c, 1, 52, 127
1, 189997, Note_off_c, 1, 53, 0
1, 190054, Note_off_c, 1, 52, 0
1, 190059, Note_on_c, 1, 50, 127
1, 190064, Note_on_c, 1, 77, 127
1, 190124, Note_off_c, 1, 50, 0
1, 190131, Note_on_c, 1, 82, 127
1, 190187, Note_off_c, 1, 82, 0
1, 190205, Note_off_c, 1, 77, 0
1, 190242, Note_on_c, 1, 81, 127
1, 190296, Note_off_c, 1, 81, 0
1, 190305, Note_on_c, 1, 62, 127
1, 190308, Note_on_c, 1, 82, 127
1, 190310, Note_on_c, 1, 55, 127
1, 190313, Note_on_c, 1, 77, 127
1, 190357, Note_off_c, 1, 62, 0
1, 190367, Note_on_c, 1, 53, 127
1, 190371, Note_on_c, 1, 81, 127
1, 190373, Note_off_c, 1, 55, 0
1, 190379, Note_off_c, 1, 77, 0
1, 190420, Note_off_c, 1, 81, 0
1, 190423, Note_on_c, 1, 52, 127
1, 190424, Note_off_c, 1, 53, 0
1, 190425, Note_on_c, 1, 79, 127
1, 190432, Note_on_c, 1, 67, 127
1, 190455, Note_off_c, 1, 82, 0
1, 190469, Note_off_c, 1, 79, 0
1, 190478, Note_on_c, 1, 50, 127
1, 190484, Note_off_c, 1, 52, 0
1, 190540, Note_off_c, 1, 50, 0
1, 190544, Note_on_c, 1, 48, 127
1, 190550, Note_on_c, 1, 76, 127
1, 190588, Note_off_c, 1, 67, 0
1, 190603, Note_off_c, 1, 48, 0
1, 190609, Note_on_c, 1, 72, 127
1, 190655, Note_off_c, 1, 72, 0
1, 190666, Note_on_c, 1, 70, 127
1, 190705, Note_off_c, 1, 70, 0
1, 190787, Note_on_c, 1, 60, 127
1, 190817, Note_off_c, 1, 76, 0
1, 190838, Note_off_c, 1, 60, 0
1, 190913, Note_on_c, 1, 65, 127
1, 191024, Note_on_c, 1, 47, 127
1, 191025, Note_on_c, 1, 74, 127
1, 191061, Note_off_c, 1, 65, 0
1, 191087, Note_off_c, 1, 47, 0
1, 191090, Note_on_c, 1, 71, 127
1, 191142, Note_off_c, 1, 71, 0
1, 191147, Note_on_c, 1, 69, 127
1, 191166, Note_off_c, 1, 74, 0
1, 191192, Note_off_c, 1, 69, 0
1, 191260, Note_on_c, 1, 74, 127
1, 191269, Note_on_c, 1, 59, 127
1, 191269, Note_on_c, 1, 52, 127
1, 191270, Note_on_c, 1, 79, 127
1, 191318, Note_off_c, 1, 59, 0
1, 191319, Note_off_c, 1, 74, 0
1, 191319, Note_on_c, 1, 77, 127
1, 191322, Note_on_c, 1, 50, 127
1, 191330, Note_off_c, 1, 52, 0
1, 191371, Note_off_c, 1, 77, 0
1, 191382, Note_on_c, 1, 76, 127
1, 191383, Note_on_c, 1, 48, 127
1, 191387, Note_off_c, 1, 50, 0
1, 191388, Note_on_c, 1, 64, 127
1, 191407, Note_off_c, 1, 79, 0
1, 191426, Note_off_c, 1, 76, 0
1, 191440, Note_on_c, 1, 47, 127
1, 191443, Note_off_c, 1, 48, 0
1, 191501, Note_on_c, 1, 45, 127
1, 191504, Note_off_c, 1, 47, 0
1, 191507, Note_on_c, 1, 72, 127
1, 191531, Note_off_c, 1, 64, 0
1, 191560, Note_on_c, 1, 69, 127
1, 191561, Note_off_c, 1, 45, 0
1, 191609, Note_off_c, 1, 69, 0
1, 191614, Note_on_c, 1, 67, 127
1, 191660, Note_off_c, 1, 67, 0
1, 191743, Note_on_c, 1, 57, 127
1, 191786, Note_off_c, 1, 72, 0
1, 191787, Note_off_c, 1, 57, 0
1, 191863, Note_on_c, 1, 62, 127
1, 191980, Note_on_c, 1, 71, 127
1, 191981, Note_on_c, 1, 43, 127
1, 192005, Note_off_c, 1, 62, 0
1, 192046, Note_off_c, 1, 71, 0
1, 192046, Note_on_c, 1, 81, 127
1, 192062, Note_off_c, 1, 43, 0
1, 192110, Note_on_c, 1, 55, 127
1, 192114, Note_off_c, 1, 81, 0
1, 192147, Note_off_c, 1, 55, 0
1, 192279, Note_on_c, 1, 65, 127
1, 192341, Note_off_c, 1, 65, 0
1, 192465, Note_on_c, 1, 72, 127
1, 192467, Note_on_c, 1, 52, 127
1, 192478, Note_on_c, 1, 67, 127
1, 192525, Note_on_c, 1, 76, 127
1, 192581, Note_off_c, 1, 76, 0
1, 192582, Note_off_c, 1, 52, 0
1, 192586, Note_off_c, 1, 67, 0
1, 192590, Note_on_c, 1, 81, 127
1, 192590, Note_on_c, 1, 53, 127
1, 192603, Note_on_c, 1, 69, 127
1, 192642, Note_on_c, 1, 55, 127
1, 192644, Note_off_c, 1, 69, 0
1, 192647, Note_off_c, 1, 53, 0
1, 192648, Note_on_c, 1, 79, 127
1, 192649, Note_on_c, 1, 71, 127
1, 192651, Note_off_c, 1, 81, 0
1, 192656, Note_off_c, 1, 72, 0
1, 192684, Note_off_c, 1, 71, 0
1, 192699, Note_off_c, 1, 55, 0
1, 192701, Note_off_c, 1, 79, 0
1, 192703, Note_on_c, 1, 57, 127
1, 192710, Note_on_c, 1, 77, 127
1, 192714, Note_on_c, 1, 72, 127
1, 192752, Note_off_c, 1, 72, 0
1, 192752, Note_on_c, 1, 60, 127
1, 192756, Note_off_c, 1, 57, 0
1, 192769, Note_on_c, 1, 76, 127
1, 192784, Note_off_c, 1, 77, 0
1, 192815, Note_off_c, 1, 60, 0
1, 192816, Note_on_c, 1, 62, 127
1, 192826, Note_on_c, 1, 53, 127
1, 192830, Note_on_c, 1, 74, 127
1, 192831, Note_off_c, 1, 76, 0
1, 192876, Note_off_c, 1, 53, 0
1, 192876, Note_on_c, 1, 64, 127
1, 192880, Note_off_c, 1, 62, 0
1, 192890, Note_off_c, 1, 74, 0
1, 192925, Note_off_c, 1, 64, 0
1, 192946, Note_on_c, 1, 65, 127
1, 192948, Note_on_c, 1, 71, 127
1, 192949, Note_on_c, 1, 50, 127
1, 192961, Note_on_c, 1, 62, 127
1, 192998, Note_off_c, 1, 65, 0
1, 193002, Note_off_c, 1, 50, 0
1, 193008, Note_on_c, 1, 69, 127
1, 193013, Note_on_c, 1, 60, 127
1, 193022, Note_off_c, 1, 71, 0
1, 193059, Note_off_c, 1, 62, 0
1, 193061, Note_off_c, 1, 60, 0
1, 193065, Note_on_c, 1, 55, 127
1, 193069, Note_off_c, 1, 69, 0
1, 193069, Note_on_c, 1, 64, 127
1, 193069, Note_on_c, 1, 67, 127
1, 193072, Note_on_c, 1, 59, 127
1, 193112, Note_off_c, 1, 55, 0
1, 193124, Note_on_c, 1, 57, 127
1, 193129, Note_off_c, 1, 64, 0
1, 193129, Note_off_c, 1, 67, 0
1, 193136, Note_off_c, 1, 59, 0
1, 193182, Note_off_c, 1, 57, 0
1, 193186, Note_on_c, 1, 43, 127
1, 193242, Note_on_c, 1, 53, 127
1, 193244, Note_off_c, 1, 43, 0
1, 193295, Note_on_c, 1, 52, 127
1, 193300, Note_off_c, 1, 53, 0
1, 193340, Note_off_c, 1, 52, 0
1, 193425, Note_on_c, 1, 72, 127
1, 193425, Note_on_c, 1, 48, 127
1, 193425, Note_on_c, 1, 52, 127
1, 193426, Note_on_c, 1, 67, 127
1, 193478, Note_off_c, 1, 67, 0
1, 193480, Note_off_c, 1, 52, 0
1, 193481, Note_on_c, 1, 65, 127
1, 193492, Note_off_c, 1, 48, 0
1, 193526, Note_off_c, 1, 65, 0
1, 193543, Note_on_c, 1, 64, 127
1, 193557, Note_on_c, 1, 55, 127
1, 193571, Note_off_c, 1, 72, 0
1, 193592, Note_on_c, 1, 74, 127
1, 193597, Note_off_c, 1, 64, 0
1, 193602, Note_off_c, 1, 55, 0
1, 193637, Note_off_c, 1, 74, 0
1, 193658, Note_on_c, 1, 72, 127
1, 193660, Note_on_c, 1, 64, 127
1, 193661, Note_on_c, 1, 55, 127
1, 193686, Note_on_c, 1, 71, 127
1, 193690, Note_on_c, 1, 62, 127
1, 193691, Note_off_c, 1, 64, 0
1, 193702, Note_off_c, 1, 72, 0
1, 193718, Note_off_c, 1, 62, 0
1, 193729, Note_off_c, 1, 71, 0
1, 193730, Note_off_c, 1, 55, 0
1, 193785, Note_on_c, 1, 43, 127
1, 193844, Note_off_c, 1, 43, 0
1, 193905, Note_on_c, 1, 72, 127
1, 193906, Note_on_c, 1, 64, 127
1, 193912, Note_on_c, 1, 55, 127
1, 193912, Note_on_c, 1, 48, 127
1, 193964, Note_on_c, 1, 77, 127
1, 193971, Note_on_c, 1, 69, 127
1, 193972, Note_off_c, 1, 64, 0
1, 194009, Note_off_c, 1, 77, 0
1, 194018, Note_off_c, 1, 69, 0
1, 194023, Note_on_c, 1, 76, 127
1, 194030, Note_on_c, 1, 67, 127
1, 194038, Note_on_c, 1, 79, 127
1, 194066, Note_off_c, 1, 67, 0
1, 194068, Note_off_c, 1, 76, 0
1, 194077, Note_off_c, 1, 79, 0
1, 194082, Note_on_c, 1, 74, 127
1, 194086, Note_on_c, 1, 65, 127
1, 194134, Note_off_c, 1, 65, 0
1, 194139, Note_off_c, 1, 74, 0
1, 194156, Note_off_c, 1, 55, 0
1, 194172, Note_off_c, 1, 48, 0
1, 194195, Note_off_c, 1, 72, 0
1, 194203, Note_on_c, 1, 70, 127
1, 194203, Note_on_c, 1, 62, 127
1, 194245, Note_off_c, 1, 70, 0
1, 194262, Note_off_c, 1, 62, 0
1, 194317, Note_on_c, 1, 60, 127
1, 194368, Note_off_c, 1, 60, 0
1, 194379, Note_on_c, 1, 67, 127
1, 194386, Note_on_c, 1, 70, 127
1, 194395, Note_on_c, 1, 76, 127
1, 194445, Note_on_c, 1, 58, 127
1, 194490, Note_off_c, 1, 58, 0
1, 194504, Note_on_c, 1, 57, 127
1, 194508, Note_off_c, 1, 76, 0
1, 194520, Note_on_c, 1, 77, 127
1, 194544, Note_off_c, 1, 70, 0
1, 194547, Note_off_c, 1, 67, 0
1, 194559, Note_off_c, 1, 57, 0
1, 194566, Note_on_c, 1, 55, 127
1, 194567, Note_off_c, 1, 77, 0
1, 194568, Note_on_c, 1, 79, 127
1, 194614, Note_off_c, 1, 79, 0
1, 194620, Note_off_c, 1, 55, 0
1, 194630, Note_on_c, 1, 53, 127
1, 194631, Note_on_c, 1, 81, 127
1, 194637, Note_on_c, 1, 72, 127
1, 194667, Note_off_c, 1, 81, 0
1, 194671, Note_off_c, 1, 53, 0
1, 194685, Note_on_c, 1, 52, 127
1, 194730, Note_off_c, 1, 52, 0
1, 194755, Note_on_c, 1, 77, 127
1, 194792, Note_off_c, 1, 77, 0
1, 194803, Note_on_c, 1, 50, 127
1, 194851, Note_off_c, 1, 50, 0
1, 194869, Note_on_c, 1, 55, 127
1, 194873, Note_on_c, 1, 74, 127
1, 194911, Note_off_c, 1, 74, 0
1, 194917, Note_off_c, 1, 55, 0
1, 194991, Note_on_c, 1, 79, 127
1, 195028, Note_off_c, 1, 79, 0
1, 195048, Note_on_c, 1, 57, 127
1, 195095, Note_off_c, 1, 57, 0
1, 195109, Note_on_c, 1, 67, 127
1, 195113, Note_off_c, 1, 72, 0
1, 195118, Note_on_c, 1, 71, 127
1, 195149, Note_off_c, 1, 67, 0
1, 195346, Note_on_c, 1, 48, 127
1, 195349, Note_off_c, 1, 71, 0
1, 195361, Note_on_c, 1, 76, 127
1, 195402, Note_on_c, 1, 59, 127
1, 195463, Note_on_c, 1, 60, 127
1, 195472, Note_off_c, 1, 59, 0
1, 195519, Note_on_c, 1, 62, 127
1, 195528, Note_off_c, 1, 60, 0
1, 195582, Note_off_c, 1, 62, 0
1, 195587, Note_on_c, 1, 64, 127
1, 195601, Note_off_c, 1, 76, 0
1, 195613, Note_off_c, 1, 48, 0
1, 195638, Note_off_c, 1, 64, 0
1, 195769, Note_on_c, 1, 65, 127
1, 195827, Note_off_c, 1, 65, 0
1, 195834, Note_on_c, 1, 67, 127
1, 195843, Note_on_c, 1, 76, 127
1, 195893, Note_on_c, 1, 70, 127
1, 195904, Note_off_c, 1, 67, 0
1, 195950, Note_on_c, 1, 69, 127
1, 195958, Note_off_c, 1, 70, 0
1, 195968, Note_on_c, 1, 77, 127
1, 195970, Note_off_c, 1, 76, 0
1, 196014, Note_off_c, 1, 69, 0
1, 196015, Note_on_c, 1, 79, 127
1, 196017, Note_off_c, 1, 77, 0
1, 196065, Note_off_c, 1, 79, 0
1, 196071, Note_on_c, 1, 65, 127
1, 196074, Note_on_c, 1, 81, 127
1, 196078, Note_on_c, 1, 72, 127
1, 196112, Note_off_c, 1, 81, 0
1, 196126, Note_on_c, 1, 64, 127
1, 196128, Note_off_c, 1, 65, 0
1, 196180, Note_off_c, 1, 64, 0
1, 196198, Note_on_c, 1, 77, 127
1, 196238, Note_on_c, 1, 62, 127
1, 196241, Note_off_c, 1, 77, 0
1, 196294, Note_off_c, 1, 62, 0
1, 196303, Note_on_c, 1, 67, 127
1, 196322, Note_on_c, 1, 74, 127
1, 196362, Note_off_c, 1, 67, 0
1, 196364, Note_off_c, 1, 74, 0
1, 196440, Note_on_c, 1, 79, 127
1, 196476, Note_off_c, 1, 79, 0
1, 196485, Note_on_c, 1, 69, 127
1, 196546, Note_off_c, 1, 72, 0
1, 196546, Note_off_c, 1, 69, 0
1, 196551, Note_on_c, 1, 71, 127
1, 196754, Note_off_c, 1, 71, 0
1, 196789, Note_on_c, 1, 60, 127
1, 196800, Note_on_c, 1, 76, 127
1, 196809, Note_on_c, 1, 72, 127
1, 196852, Note_off_c, 1, 76, 0
1, 196862, Note_on_c, 1, 79, 127
1, 196867, Note_off_c, 1, 72, 0
1, 196920, Note_on_c, 1, 77, 127
1, 196924, Note_off_c, 1, 79, 0
1, 196983, Note_off_c, 1, 77, 0
1, 197031, Note_on_c, 1, 81, 127
1, 197079, Note_off_c, 1, 60, 0
1, 197092, Note_off_c, 1, 81, 0
1, 197159, Note_on_c, 1, 64, 127
1, 197162, Note_on_c, 1, 69, 127
1, 197200, Note_off_c, 1, 64, 0
1, 197268, Note_on_c, 1, 74, 127
1, 197271, Note_on_c, 1, 59, 127
1, 197277, Note_on_c, 1, 65, 127
1, 197326, Note_off_c, 1, 65, 0
1, 197339, Note_off_c, 1, 74, 0
1, 197373, Note_off_c, 1, 69, 0
1, 197385, Note_off_c, 1, 59, 0
1, 197387, Note_on_c, 1, 62, 127
1, 197401, Note_on_c, 1, 67, 127
1, 197430, Note_off_c, 1, 62, 0
1, 197439, Note_off_c, 1, 67, 0
1, 197745, Note_on_c, 1, 57, 127
1, 197799, Note_off_c, 1, 57, 0
1, 197976, Note_on_c, 1, 50, 127
1, 198040, Note_off_c, 1, 50, 0
1, 198098, Note_on_c, 1, 71, 127
1, 198146, Note_off_c, 1, 71, 0
1, 198221, Note_on_c, 1, 55, 127
1, 198224, Note_on_c, 1, 74, 127
1, 198224, Note_on_c, 1, 59, 127
1, 198229, Note_on_c, 1, 77, 127
1, 198273, Note_off_c, 1, 74, 0
1, 198280, Note_off_c, 1, 59, 0
1, 198282, Note_on_c, 1, 76, 127
1, 198282, Note_on_c, 1, 72, 127
1, 198294, Note_off_c, 1, 77, 0
1, 198326, Note_off_c, 1, 72, 0
1, 198344, Note_off_c, 1, 76, 0
1, 198364, Note_on_c, 1, 67, 127
1, 198389, Note_off_c, 1, 55, 0
1, 198400, Note_on_c, 1, 71, 127
1, 198443, Note_off_c, 1, 71, 0
1, 198460, Note_on_c, 1, 60, 127
1, 198501, Note_off_c, 1, 60, 0
1, 198522, Note_off_c, 1, 67, 0
1, 198522, Note_on_c, 1, 79, 127
1, 198537, Note_on_c, 1, 64, 127
1, 198580, Note_on_c, 1, 48, 127
1, 198585, Note_off_c, 1, 79, 0
1, 198593, Note_off_c, 1, 64, 0
1, 198593, Note_on_c, 1, 62, 127
1, 198634, Note_off_c, 1, 48, 0
1, 198656, Note_off_c, 1, 62, 0
1, 198700, Note_on_c, 1, 53, 127
1, 198703, Note_on_c, 1, 81, 127
1, 198712, Note_on_c, 1, 65, 127
1, 198755, Note_off_c, 1, 53, 0
1, 198762, Note_on_c, 1, 57, 127
1, 198818, Note_on_c, 1, 70, 127
1, 198821, Note_off_c, 1, 57, 0
1, 198864, Note_off_c, 1, 70, 0
1, 198940, Note_off_c, 1, 65, 0
1, 198940, Note_on_c, 1, 58, 127
1, 198999, Note_off_c, 1, 58, 0
1, 199004, Note_off_c, 1, 81, 0
1, 199120, Note_on_c, 1, 69, 127
1, 199165, Note_off_c, 1, 69, 0
1, 199180, Note_on_c, 1, 52, 127
1, 199227, Note_off_c, 1, 52, 0
1, 199665, Note_on_c, 1, 50, 127
1, 199779, Note_off_c, 1, 50, 0
1, 200026, Note_on_c, 1, 43, 127
1, 200069, Note_off_c, 1, 43, 0
1, 200140, Note_on_c, 1, 76, 127
1, 200147, Note_on_c, 1, 67, 127
1, 200153, Note_on_c, 1, 72, 127
1, 200154, Note_on_c, 1, 48, 127
1, 200198, Note_on_c, 1, 79, 127
1, 200209, Note_off_c, 1, 76, 0
1, 200218, Note_off_c, 1, 48, 0
1, 200218, Note_on_c, 1, 55, 127
1, 200259, Note_on_c, 1, 77, 127
1, 200267, Note_off_c, 1, 79, 0
1, 200269, Note_off_c, 1, 55, 0
1, 200270, Note_on_c, 1, 57, 127
1, 200298, Note_off_c, 1, 72, 0
1, 200322, Note_on_c, 1, 74, 127
1, 200325, Note_off_c, 1, 57, 0
1, 200325, Note_on_c, 1, 59, 127
1, 200332, Note_off_c, 1, 67, 0
1, 200334, Note_off_c, 1, 77, 0
1, 200371, Note_off_c, 1, 59, 0
1, 200372, Note_off_c, 1, 74, 0
1, 200383, Note_on_c, 1, 72, 127
1, 200384, Note_on_c, 1, 81, 127
1, 200396, Note_on_c, 1, 60, 127
1, 200398, Note_on_c, 1, 64, 127
1, 200422, Note_off_c, 1, 72, 0
1, 200439, Note_on_c, 1, 71, 127
1, 200439, Note_on_c, 1, 79, 127
1, 200452, Note_off_c, 1, 81, 0
1, 200481, Note_off_c, 1, 71, 0
1, 200499, Note_on_c, 1, 69, 127
1, 200505, Note_on_c, 1, 77, 127
1, 200507, Note_off_c, 1, 79, 0
1, 200528, Note_off_c, 1, 64, 0
1, 200537, Note_off_c, 1, 60, 0
1, 200542, Note_off_c, 1, 69, 0
1, 200552, Note_on_c, 1, 67, 127
1, 200564, Note_on_c, 1, 76, 127
1, 200574, Note_off_c, 1, 77, 0
1, 200587, Note_off_c, 1, 67, 0
1, 200625, Note_on_c, 1, 65, 127
1, 200626, Note_on_c, 1, 74, 127
1, 200630, Note_off_c, 1, 76, 0
1, 200691, Note_on_c, 1, 59, 127
1, 200696, Note_off_c, 1, 74, 0
1, 200742, Note_off_c, 1, 59, 0
1, 200746, Note_on_c, 1, 57, 127
1, 200760, Note_off_c, 1, 65, 0
1, 200854, Note_off_c, 1, 57, 0
1, 200874, Note_on_c, 1, 62, 127
1, 201017, Note_off_c, 1, 62, 0
1, 201106, Note_on_c, 1, 64, 127
1, 201107, Note_on_c, 1, 72, 127
1, 201109, Note_on_c, 1, 67, 127
1, 201113, Note_on_c, 1, 59, 127
1, 201162, Note_off_c, 1, 67, 0
1, 201163, Note_on_c, 1, 76, 127
1, 201165, Note_off_c, 1, 59, 0
1, 201176, Note_off_c, 1, 72, 0
1, 201227, Note_on_c, 1, 74, 127
1, 201229, Note_on_c, 1, 55, 127
1, 201234, Note_on_c, 1, 52, 127
1, 201237, Note_off_c, 1, 76, 0
1, 201244, Note_off_c, 1, 64, 0
1, 201277, Note_off_c, 1, 55, 0
1, 201281, Note_off_c, 1, 52, 0
1, 201282, Note_on_c, 1, 71, 127
1, 201296, Note_off_c, 1, 74, 0
1, 201317, Note_off_c, 1, 71, 0
1, 201344, Note_on_c, 1, 60, 127
1, 201347, Note_on_c, 1, 77, 127
1, 201348, Note_on_c, 1, 69, 127
1, 201356, Note_on_c, 1, 57, 127
1, 201404, Note_off_c, 1, 69, 0
1, 201412, Note_off_c, 1, 77, 0
1, 201465, Note_on_c, 1, 65, 127
1, 201494, Note_off_c, 1, 57, 0
1, 201496, Note_off_c, 1, 60, 0
1, 201510, Note_off_c, 1, 65, 0
1, 201574, Note_on_c, 1, 62, 127
1, 201713, Note_on_c, 1, 53, 127
1, 201727, Note_off_c, 1, 62, 0
1, 201808, Note_off_c, 1, 53, 0
1, 202191, Note_on_c, 1, 48, 127
1, 202238, Note_off_c, 1, 48, 0
1, 202303, Note_on_c, 1, 74, 127
1, 202309, Note_on_c, 1, 57, 127
1, 202310, Note_on_c, 1, 65, 127
1, 202312, Note_on_c, 1, 53, 127
1, 202357, Note_off_c, 1, 65, 0
1, 202361, Note_on_c, 1, 72, 127
1, 202365, Note_on_c, 1, 64, 127
1, 202369, Note_off_c, 1, 74, 0
1, 202411, Note_off_c, 1, 64, 0
1, 202422, Note_on_c, 1, 71, 127
1, 202422, Note_on_c, 1, 62, 127
1, 202428, Note_off_c, 1, 72, 0
1, 202448, Note_off_c, 1, 57, 0
1, 202457, Note_off_c, 1, 53, 0
1, 202458, Note_off_c, 1, 62, 0
1, 202470, Note_off_c, 1, 71, 0
1, 202473, Note_on_c, 1, 60, 127
1, 202474, Note_on_c, 1, 69, 127
1, 202484, Note_on_c, 1, 57, 127
1, 202491, Note_on_c, 1, 53, 127
1, 202513, Note_off_c, 1, 60, 0
1, 202520, Note_off_c, 1, 57, 0
1, 202523, Note_off_c, 1, 53, 0
1, 202541, Note_off_c, 1, 69, 0
1, 202544, Note_on_c, 1, 71, 127
1, 202550, Note_on_c, 1, 67, 127
1, 202550, Note_on_c, 1, 62, 127
1, 202551, Note_on_c, 1, 53, 127
1, 202599, Note_on_c, 1, 52, 127
1, 202600, Note_off_c, 1, 67, 0
1, 202601, Note_on_c, 1, 60, 127
1, 202605, Note_off_c, 1, 53, 0
1, 202609, Note_off_c, 1, 71, 0
1, 202609, Note_off_c, 1, 62, 0
1, 202646, Note_off_c, 1, 60, 0
1, 202656, Note_off_c, 1, 52, 0
1, 202658, Note_on_c, 1, 53, 127
1, 202662, Note_on_c, 1, 62, 127
1, 202671, Note_on_c, 1, 79, 127
1, 202671, Note_on_c, 1, 71, 127
1, 202708, Note_off_c, 1, 62, 0
1, 202712, Note_off_c, 1, 53, 0
1, 202713, Note_off_c, 1, 79, 0
1, 202715, Note_on_c, 1, 50, 127
1, 202717, Note_on_c, 1, 59, 127
1, 202721, Note_off_c, 1, 71, 0
1, 202760, Note_off_c, 1, 50, 0
1, 202764, Note_off_c, 1, 59, 0
1, 202777, Note_on_c, 1, 52, 127
1, 202786, Note_on_c, 1, 64, 127
1, 202792, Note_on_c, 1, 67, 127
1, 202792, Note_on_c, 1, 79, 127
1, 202832, Note_off_c, 1, 79, 0
1, 202837, Note_on_c, 1, 53, 127
1, 202848, Note_off_c, 1, 52, 0
1, 202848, Note_on_c, 1, 69, 127
1, 202849, Note_off_c, 1, 64, 0
1, 202851, Note_off_c, 1, 67, 0
1, 202899, Note_on_c, 1, 55, 127
1, 202901, Note_off_c, 1, 69, 0
1, 202908, Note_on_c, 1, 71, 127
1, 202909, Note_off_c, 1, 53, 0
1, 202912, Note_on_c, 1, 62, 127
1, 202949, Note_off_c, 1, 55, 0
1, 202955, Note_off_c, 1, 62, 0
1, 202963, Note_off_c, 1, 71, 0
1, 203021, Note_on_c, 1, 57, 127
1, 203024, Note_on_c, 1, 60, 127
1, 203025, Note_on_c, 1, 72, 127
1, 203033, Note_on_c, 1, 76, 127
1, 203080, Note_on_c, 1, 74, 127
1, 203084, Note_off_c, 1, 72, 0
1, 203086, Note_on_c, 1, 58, 127
1, 203096, Note_off_c, 1, 57, 0
1, 203125, Note_off_c, 1, 74, 0
1, 203126, Note_off_c, 1, 60, 0
1, 203145, Note_off_c, 1, 58, 0
1, 203149, Note_off_c, 1, 76, 0
1, 203150, Note_on_c, 1, 62, 127
1, 203156, Note_on_c, 1, 77, 127
1, 203199, Note_off_c, 1, 62, 0
1, 203199, Note_on_c, 1, 70, 127
1, 203204, Note_on_c, 1, 64, 127
1, 203204, Note_on_c, 1, 55, 127
1, 203209, Note_on_c, 1, 79, 127
1, 203214, Note_off_c, 1, 77, 0
1, 203241, Note_off_c, 1, 70, 0
1, 203252, Note_off_c, 1, 64, 0
1, 203262, Note_off_c, 1, 79, 0
1, 203264, Note_on_c, 1, 69, 127
1, 203265, Note_off_c, 1, 55, 0
1, 203265, Note_on_c, 1, 53, 127
1, 203266, Note_on_c, 1, 65, 127
1, 203271, Note_on_c, 1, 81, 127
1, 203312, Note_off_c, 1, 81, 0
1, 203318, Note_off_c, 1, 69, 0
1, 203320, Note_on_c, 1, 52, 127
1, 203325, Note_off_c, 1, 53, 0
1, 203332, Note_off_c, 1, 65, 0
1, 203381, Note_on_c, 1, 50, 127
1, 203386, Note_off_c, 1, 52, 0
1, 203442, Note_on_c, 1, 48, 127
1, 203446, Note_off_c, 1, 50, 0
1, 203494, Note_off_c, 1, 48, 0
1, 203504, Note_on_c, 1, 47, 127
1, 203510, Note_on_c, 1, 67, 127
1, 203511, Note_on_c, 1, 74, 127
1, 203568, Note_off_c, 1, 74, 0
1, 203570, Note_off_c, 1, 47, 0
1, 203570, Note_on_c, 1, 45, 127
1, 203572, Note_off_c, 1, 67, 0
1, 203575, Note_on_c, 1, 72, 127
1, 203622, Note_off_c, 1, 72, 0
1, 203627, Note_on_c, 1, 62, 127
1, 203628, Note_on_c, 1, 79, 127
1, 203629, Note_off_c, 1, 45, 0
1, 203633, Note_on_c, 1, 71, 127
1, 203633, Note_on_c, 1, 43, 127
1, 203673, Note_off_c, 1, 79, 0
1, 203680, Note_off_c, 1, 71, 0
1, 203686, Note_off_c, 1, 62, 0
1, 203697, Note_off_c, 1, 43, 0
1, 203749, Note_on_c, 1, 67, 127
1, 203750, Note_on_c, 1, 74, 127
1, 203753, Note_on_c, 1, 47, 127
1, 203800, Note_off_c, 1, 74, 0
1, 203805, Note_on_c, 1, 45, 127
1, 203808, Note_on_c, 1, 72, 127
1, 203812, Note_off_c, 1, 47, 0
1, 203822, Note_off_c, 1, 67, 0
1, 203860, Note_off_c, 1, 72, 0
1, 203872, Note_on_c, 1, 77, 127
1, 203874, Note_on_c, 1, 71, 127
1, 203875, Note_off_c, 1, 45, 0
1, 203917, Note_off_c, 1, 77, 0
1, 203923, Note_on_c, 1, 43, 127
1, 203969, Note_off_c, 1, 71, 0
1, 203980, Note_off_c, 1, 43, 0
1, 203988, Note_on_c, 1, 72, 127
1, 203989, Note_on_c, 1, 48, 127
1, 203991, Note_on_c, 1, 76, 127
1, 203996, Note_on_c, 1, 67, 127
1, 204051, Note_off_c, 1, 48, 0
1, 204061, Note_off_c, 1, 67, 0
1, 204111, Note_on_c, 1, 53, 127
1, 204113, Note_on_c, 1, 69, 127
1, 204123, Note_off_c, 1, 72, 0
1, 204136, Note_off_c, 1, 76, 0
1, 204156, Note_on_c, 1, 74, 127
1, 204163, Note_off_c, 1, 69, 0
1, 204165, Note_off_c, 1, 53, 0
1, 204204, Note_off_c, 1, 74, 0
1, 204222, Note_on_c, 1, 72, 127
1, 204229, Note_on_c, 1, 76, 127
1, 204230, Note_on_c, 1, 62, 127
1, 204236, Note_on_c, 1, 55, 127
1, 204242, Note_on_c, 1, 71, 127
1, 204246, Note_off_c, 1, 72, 0
1, 204253, Note_on_c, 1, 74, 127
1, 204264, Note_off_c, 1, 76, 0
1, 204272, Note_off_c, 1, 55, 0
1, 204274, Note_off_c, 1, 71, 0
1, 204284, Note_off_c, 1, 62, 0
1, 204299, Note_off_c, 1, 74, 0
1, 204350, Note_on_c, 1, 67, 127
1, 204352, Note_on_c, 1, 43, 127
1, 204393, Note_off_c, 1, 43, 0
1, 204433, Note_off_c, 1, 67, 0
1, 204465, Note_on_c, 1, 67, 127
1, 204471, Note_on_c, 1, 64, 127
1, 204472, Note_on_c, 1, 72, 127
1, 204478, Note_on_c, 1, 36, 127
1, 204619, Note_off_c, 1, 67, 0
1, 204621, Note_off_c, 1, 64, 0
1, 204651, Note_on_c, 1, 62, 127
1, 204654, Note_on_c, 1, 65, 127
1, 204691, Note_off_c, 1, 62, 0
1, 204693, Note_off_c, 1, 65, 0
1, 204713, Note_on_c, 1, 60, 127
1, 204721, Note_off_c, 1, 72, 0
1, 204795, Note_off_c, 1, 60, 0
1, 204820, Note_on_c, 1, 70, 127
1, 204864, Note_off_c, 1, 70, 0
1, 204882, Note_on_c, 1, 69, 127
1, 204923, Note_off_c, 1, 69, 0
1, 205077, Note_off_c, 1, 36, 0
1, 205077, Note_on_c, 1, 48, 127
1, 205124, Note_off_c, 1, 48, 0
1, 205134, Note_on_c, 1, 50, 127
1, 205179, Note_off_c, 1, 50, 0
1, 205196, Note_on_c, 1, 52, 127
1, 205240, Note_off_c, 1, 52, 0
1, 205368, Note_on_c, 1, 53, 127
1, 205410, Note_off_c, 1, 53, 0
1, 205427, Note_on_c, 1, 67, 127
1, 205433, Note_on_c, 1, 62, 127
1, 205435, Note_on_c, 1, 55, 127
1, 205436, Note_on_c, 1, 70, 127
1, 205517, Note_off_c, 1, 67, 0
1, 205527, Note_off_c, 1, 70, 0
1, 205536, Note_off_c, 1, 62, 0
1, 205608, Note_on_c, 1, 65, 127
1, 205614, Note_on_c, 1, 69, 127
1, 205651, Note_off_c, 1, 65, 0
1, 205659, Note_off_c, 1, 69, 0
1, 205666, Note_on_c, 1, 72, 127
1, 205671, Note_on_c, 1, 64, 127
1, 205690, Note_off_c, 1, 55, 0
1, 205750, Note_off_c, 1, 72, 0
1, 205766, Note_off_c, 1, 64, 0
1, 205796, Note_on_c, 1, 57, 127
1, 205839, Note_off_c, 1, 57, 0
1, 205845, Note_on_c, 1, 74, 127
1, 205847, Note_on_c, 1, 65, 127
1, 205849, Note_on_c, 1, 58, 127
1, 205850, Note_on_c, 1, 62, 127
1, 205888, Note_off_c, 1, 62, 0
1, 205892, Note_off_c, 1, 65, 0
1, 205894, Note_off_c, 1, 74, 0
1, 205896, Note_off_c, 1, 58, 0
1, 205907, Note_on_c, 1, 64, 127
1, 205908, Note_on_c, 1, 67, 127
1, 205909, Note_on_c, 1, 60, 127
1, 205969, Note_on_c, 1, 58, 127
1, 205996, Note_off_c, 1, 64, 0
1, 206004, Note_off_c, 1, 67, 0
1, 206006, Note_off_c, 1, 58, 0
1, 206027, Note_on_c, 1, 57, 127
1, 206036, Note_off_c, 1, 60, 0
1, 206068, Note_off_c, 1, 57, 0
1, 206084, Note_on_c, 1, 62, 127
1, 206084, Note_on_c, 1, 58, 127
1, 206088, Note_on_c, 1, 67, 127
1, 206111, Note_on_c, 1, 64, 127
1, 206128, Note_off_c, 1, 58, 0
1, 206131, Note_off_c, 1, 67, 0
1, 206132, Note_off_c, 1, 62, 0
1, 206144, Note_on_c, 1, 65, 127
1, 206145, Note_off_c, 1, 64, 0
1, 206145, Note_on_c, 1, 60, 127
1, 206152, Note_on_c, 1, 69, 127
1, 206181, Note_off_c, 1, 65, 0
1, 206204, Note_on_c, 1, 57, 127
1, 206234, Note_off_c, 1, 69, 0
1, 206240, Note_off_c, 1, 60, 0
1, 206248, Note_off_c, 1, 57, 0
1, 206322, Note_on_c, 1, 70, 127
1, 206360, Note_off_c, 1, 70, 0
1, 206389, Note_on_c, 1, 53, 127
1, 206521, Note_off_c, 1, 53, 0
1, 206572, Note_on_c, 1, 50, 127
1, 206597, Note_on_c, 1, 52, 127
1, 206607, Note_off_c, 1, 50, 0
1, 206626, Note_off_c, 1, 52, 0
1, 206751, Note_on_c, 1, 71, 127
1, 206798, Note_on_c, 1, 67, 127
1, 206799, Note_off_c, 1, 71, 0
1, 206805, Note_on_c, 1, 73, 127
1, 206805, Note_on_c, 1, 55, 127
1, 206808, Note_on_c, 1, 64, 127
1, 206826, Note_on_c, 1, 57, 127
1, 206842, Note_off_c, 1, 67, 0
1, 206842, Note_off_c, 1, 55, 0
1, 206850, Note_off_c, 1, 64, 0
1, 206854, Note_off_c, 1, 73, 0
1, 206863, Note_on_c, 1, 58, 127
1, 206866, Note_off_c, 1, 57, 0
1, 206867, Note_on_c, 1, 74, 127
1, 206870, Note_on_c, 1, 65, 127
1, 206873, Note_on_c, 1, 62, 127
1, 206916, Note_off_c, 1, 74, 0
1, 206957, Note_off_c, 1, 62, 0
1, 207039, Note_on_c, 1, 69, 127
1, 207047, Note_on_c, 1, 76, 127
1, 207079, Note_off_c, 1, 69, 0
1, 207089, Note_off_c, 1, 76, 0
1, 207109, Note_on_c, 1, 77, 127
1, 207158, Note_off_c, 1, 77, 0
1, 207205, Note_off_c, 1, 65, 0
1, 207243, Note_off_c, 1, 58, 0
1, 207338, Note_on_c, 1, 70, 127
1, 207348, Note_on_c, 1, 79, 127
1, 207400, Note_on_c, 1, 60, 127
1, 207442, Note_off_c, 1, 60, 0
1, 207698, Note_off_c, 1, 70, 0
1, 207714, Note_off_c, 1, 79, 0
1, 207762, Note_on_c, 1, 58, 127
1, 207763, Note_on_c, 1, 74, 127
1, 207767, Note_on_c, 1, 79, 127
1, 207768, Note_on_c, 1, 70, 127
1, 207796, Note_off_c, 1, 74, 0
1, 207804, Note_off_c, 1, 58, 0
1, 207807, Note_off_c, 1, 79, 0
1, 207807, Note_off_c, 1, 70, 0
1, 207824, Note_on_c, 1, 74, 127
1, 207830, Note_on_c, 1, 57, 127
1, 207832, Note_on_c, 1, 79, 127
1, 207833, Note_on_c, 1, 64, 127
1, 207878, Note_on_c, 1, 73, 127
1, 207883, Note_off_c, 1, 74, 0
1, 207903, Note_off_c, 1, 73, 0
1, 207962, Note_off_c, 1, 79, 0
1, 208009, Note_off_c, 1, 57, 0
1, 208012, Note_on_c, 1, 81, 127
1, 208032, Note_on_c, 1, 82, 127
1, 208040, Note_off_c, 1, 64, 0
1, 208043, Note_off_c, 1, 81, 0
1, 208059, Note_off_c, 1, 82, 0
1, 208062, Note_on_c, 1, 69, 127
1, 208077, Note_on_c, 1, 45, 127
1, 208225, Note_off_c, 1, 45, 0
1, 208264, Note_on_c, 1, 77, 127
1, 208280, Note_off_c, 1, 69, 0
1, 208287, Note_on_c, 1, 76, 127
1, 208303, Note_off_c, 1, 77, 0
1, 208319, Note_on_c, 1, 50, 127
1, 208320, Note_off_c, 1, 76, 0
1, 208491, Note_on_c, 1, 65, 127
1, 208535, Note_off_c, 1, 65, 0
1, 208556, Note_on_c, 1, 62, 127
1, 208638, Note_off_c, 1, 50, 0
1, 208640, Note_off_c, 1, 62, 0
1, 208672, Note_on_c, 1, 52, 127
1, 208690, Note_on_c, 1, 53, 127
1, 208714, Note_off_c, 1, 52, 0
1, 208721, Note_on_c, 1, 55, 127
1, 208723, Note_on_c, 1, 81, 127
1, 208732, Note_on_c, 1, 72, 127
1, 208736, Note_on_c, 1, 57, 127
1, 208739, Note_off_c, 1, 53, 0
1, 208756, Note_off_c, 1, 81, 0
1, 208766, Note_off_c, 1, 72, 0
1, 208767, Note_on_c, 1, 59, 127
1, 208768, Note_off_c, 1, 55, 0
1, 208784, Note_off_c, 1, 57, 0
1, 208786, Note_on_c, 1, 79, 127
1, 208788, Note_on_c, 1, 60, 127
1, 208799, Note_on_c, 1, 62, 127
1, 208806, Note_off_c, 1, 59, 0
1, 208845, Note_on_c, 1, 78, 127
1, 208851, Note_on_c, 1, 71, 127
1, 208860, Note_off_c, 1, 60, 0
1, 208866, Note_off_c, 1, 79, 0
1, 208876, Note_off_c, 1, 71, 0
1, 208892, Note_off_c, 1, 78, 0
1, 208970, Note_on_c, 1, 64, 127
1, 209024, Note_off_c, 1, 64, 0
1, 209156, Note_off_c, 1, 62, 0
1, 209219, Note_on_c, 1, 76, 127
1, 209263, Note_off_c, 1, 76, 0
1, 209279, Note_on_c, 1, 74, 127
1, 209367, Note_off_c, 1, 74, 0
1, 209444, Note_on_c, 1, 69, 127
1, 209493, Note_off_c, 1, 69, 0
1, 209508, Note_on_c, 1, 67, 127
1, 209603, Note_off_c, 1, 67, 0
1, 209691, Note_on_c, 1, 65, 127
1, 209738, Note_off_c, 1, 65, 0
1, 209928, Note_on_c, 1, 77, 127
1, 209970, Note_off_c, 1, 77, 0
1, 210104, Note_on_c, 1, 76, 127
1, 210152, Note_off_c, 1, 76, 0
1, 210154, Note_on_c, 1, 64, 127
1, 210162, Note_on_c, 1, 72, 127
1, 210167, Note_on_c, 1, 79, 127
1, 210201, Note_off_c, 1, 64, 0
1, 210206, Note_off_c, 1, 79, 0
1, 210217, Note_off_c, 1, 72, 0
1, 210221, Note_on_c, 1, 64, 127
1, 210225, Note_on_c, 1, 65, 127
1, 210229, Note_on_c, 1, 72, 127
1, 210230, Note_on_c, 1, 81, 127
1, 210318, Note_off_c, 1, 65, 0
1, 210320, Note_off_c, 1, 72, 0
1, 210353, Note_off_c, 1, 64, 0
1, 210401, Note_on_c, 1, 69, 127
1, 210445, Note_off_c, 1, 69, 0
1, 210468, Note_on_c, 1, 62, 127
1, 210469, Note_on_c, 1, 77, 127
1, 210472, Note_on_c, 1, 74, 127
1, 210547, Note_off_c, 1, 77, 0
1, 210550, Note_off_c, 1, 74, 0
1, 210560, Note_off_c, 1, 62, 0
1, 210640, Note_on_c, 1, 76, 127
1, 210660, Note_on_c, 1, 60, 127
1, 210685, Note_off_c, 1, 76, 0
1, 210695, Note_off_c, 1, 60, 0
1, 210728, Note_off_c, 1, 81, 0
1, 210766, Note_on_c, 1, 79, 127
1, 210812, Note_off_c, 1, 79, 0
1, 210876, Note_on_c, 1, 83, 127
1, 210922, Note_off_c, 1, 83, 0
1, 210938, Note_on_c, 1, 84, 127
1, 210980, Note_off_c, 1, 84, 0
1, 211113, Note_on_c, 1, 72, 127
1, 211118, Note_on_c, 1, 84, 127
1, 211122, Note_on_c, 1, 64, 127
1, 211122, Note_on_c, 1, 62, 127
1, 211147, Note_off_c, 1, 72, 0
1, 211153, Note_off_c, 1, 62, 0
1, 211158, Note_off_c, 1, 84, 0
1, 211159, Note_off_c, 1, 64, 0
1, 211175, Note_on_c, 1, 71, 127
1, 211180, Note_on_c, 1, 77, 127
1, 211183, Note_on_c, 1, 65, 127
1, 211184, Note_on_c, 1, 62, 127
1, 211226, Note_off_c, 1, 77, 0
1, 211232, Note_off_c, 1, 65, 0
1, 211242, Note_on_c, 1, 76, 127
1, 211242, Note_on_c, 1, 67, 127
1, 211288, Note_off_c, 1, 76, 0
1, 211288, Note_off_c, 1, 67, 0
1, 211306, Note_on_c, 1, 69, 127
1, 211357, Note_off_c, 1, 69, 0
1, 211361, Note_on_c, 1, 79, 127
1, 211414, Note_off_c, 1, 79, 0
1, 211419, Note_on_c, 1, 81, 127
1, 211463, Note_off_c, 1, 81, 0
1, 211468, Note_off_c, 1, 62, 0
1, 211478, Note_on_c, 1, 60, 127
1, 211484, Note_on_c, 1, 64, 127
1, 211524, Note_off_c, 1, 60, 0
1, 211527, Note_off_c, 1, 64, 0
1, 211540, Note_on_c, 1, 59, 127
1, 211563, Note_off_c, 1, 71, 0
1, 211590, Note_off_c, 1, 59, 0
1, 211597, Note_on_c, 1, 81, 127
1, 211597, Note_on_c, 1, 74, 127
1, 211602, Note_on_c, 1, 60, 127
1, 211603, Note_on_c, 1, 64, 127
1, 211640, Note_off_c, 1, 81, 0
1, 211640, Note_off_c, 1, 74, 0
1, 211642, Note_off_c, 1, 64, 0
1, 211645, Note_off_c, 1, 60, 0
1, 211661, Note_on_c, 1, 62, 127
1, 211667, Note_on_c, 1, 65, 127
1, 211667, Note_on_c, 1, 72, 127
1, 211675, Note_on_c, 1, 67, 127
1, 211715, Note_off_c, 1, 62, 0
1, 211718, Note_on_c, 1, 60, 127
1, 211784, Note_off_c, 1, 60, 0
1, 211795, Note_on_c, 1, 71, 127
1, 211804, Note_off_c, 1, 72, 0
1, 211905, Note_on_c, 1, 64, 127
1, 211956, Note_off_c, 1, 64, 0
1, 212021, Note_off_c, 1, 65, 0
1, 212025, Note_off_c, 1, 67, 0
1, 212050, Note_off_c, 1, 71, 0
1, 212081, Note_on_c, 1, 72, 127
1, 212086, Note_on_c, 1, 62, 127
1, 212087, Note_on_c, 1, 67, 127
1, 212087, Note_on_c, 1, 64, 127
1, 212123, Note_off_c, 1, 67, 0
1, 212124, Note_off_c, 1, 64, 0
1, 212129, Note_off_c, 1, 72, 0
1, 212140, Note_off_c, 1, 62, 0
1, 212147, Note_on_c, 1, 74, 127
1, 212151, Note_on_c, 1, 62, 127
1, 212154, Note_on_c, 1, 59, 127
1, 212155, Note_on_c, 1, 67, 127
1, 212200, Note_off_c, 1, 74, 0
1, 212206, Note_on_c, 1, 71, 127
1, 212238, Note_off_c, 1, 62, 0
1, 212253, Note_off_c, 1, 71, 0
1, 212328, Note_on_c, 1, 64, 127
1, 212330, Note_on_c, 1, 69, 127
1, 212366, Note_off_c, 1, 64, 0
1, 212373, Note_off_c, 1, 69, 0
1, 212420, Note_off_c, 1, 67, 0
1, 212448, Note_on_c, 1, 72, 127
1, 212489, Note_off_c, 1, 72, 0
1, 212561, Note_on_c, 1, 76, 127
1, 212566, Note_on_c, 1, 60, 127
1, 212606, Note_off_c, 1, 60, 0
1, 212612, Note_off_c, 1, 76, 0
1, 212627, Note_on_c, 1, 77, 127
1, 212701, Note_off_c, 1, 59, 0
1, 212801, Note_on_c, 1, 57, 127
1, 212857, Note_on_c, 1, 55, 127
1, 212858, Note_off_c, 1, 57, 0
1, 212910, Note_off_c, 1, 55, 0
1, 212918, Note_on_c, 1, 53, 127
1, 212970, Note_off_c, 1, 53, 0
1, 212972, Note_on_c, 1, 52, 127
1, 212994, Note_off_c, 1, 77, 0
1, 213027, Note_on_c, 1, 50, 127
1, 213029, Note_off_c, 1, 52, 0
1, 213086, Note_off_c, 1, 50, 0
1, 213101, Note_on_c, 1, 48, 127
1, 213106, Note_on_c, 1, 74, 127
1, 213106, Note_on_c, 1, 71, 127
1, 213110, Note_on_c, 1, 79, 127
1, 213130, Note_on_c, 1, 77, 127
1, 213141, Note_off_c, 1, 79, 0
1, 213160, Note_off_c, 1, 77, 0
1, 213187, Note_off_c, 1, 71, 0
1, 213212, Note_off_c, 1, 74, 0
1, 213288, Note_on_c, 1, 76, 127
1, 213288, Note_on_c, 1, 72, 127
1, 213291, Note_on_c, 1, 67, 127
1, 213318, Note_off_c, 1, 72, 0
1, 213320, Note_off_c, 1, 76, 0
1, 213327, Note_off_c, 1, 67, 0
1, 213352, Note_on_c, 1, 60, 127
1, 213432, Note_off_c, 1, 60, 0
1, 213525, Note_on_c, 1, 62, 127
1, 213529, Note_on_c, 1, 69, 127
1, 213564, Note_off_c, 1, 62, 0
1, 213567, Note_off_c, 1, 69, 0
1, 213588, Note_on_c, 1, 70, 127
1, 213592, Note_on_c, 1, 64, 127
1, 213626, Note_off_c, 1, 48, 0
1, 213648, Note_on_c, 1, 46, 127
1, 213687, Note_off_c, 1, 46, 0
1, 213702, Note_on_c, 1, 45, 127
1, 213746, Note_off_c, 1, 45, 0
1, 213952, Note_off_c, 1, 64, 0
1, 213960, Note_off_c, 1, 70, 0
1, 213998, Note_on_c, 1, 48, 127
1, 214002, Note_on_c, 1, 70, 127
1, 214006, Note_on_c, 1, 67, 127
1, 214009, Note_on_c, 1, 64, 127
1, 214041, Note_off_c, 1, 70, 0
1, 214044, Note_off_c, 1, 67, 0
1, 214047, Note_off_c, 1, 64, 0
1, 214049, Note_off_c, 1, 48, 0
1, 214070, Note_on_c, 1, 72, 127
1, 214072, Note_on_c, 1, 64, 127
1, 214073, Note_on_c, 1, 41, 127
1, 214074, Note_on_c, 1, 69, 127
1, 214090, Note_on_c, 1, 70, 127
1, 214096, Note_on_c, 1, 67, 127
1, 214100, Note_off_c, 1, 72, 0
1, 214100, Note_off_c, 1, 69, 0
1, 214116, Note_off_c, 1, 70, 0
1, 214121, Note_off_c, 1, 67, 0
1, 214155, Note_off_c, 1, 64, 0
1, 214247, Note_on_c, 1, 65, 127
1, 214248, Note_on_c, 1, 60, 127
1, 214279, Note_off_c, 1, 65, 0
1, 214285, Note_off_c, 1, 60, 0
1, 214490, Note_on_c, 1, 71, 127
1, 214533, Note_off_c, 1, 71, 0
1, 214552, Note_on_c, 1, 62, 127
1, 214575, Note_off_c, 1, 41, 0
1, 214606, Note_on_c, 1, 40, 127
1, 214649, Note_off_c, 1, 62, 0
1, 214660, Note_off_c, 1, 40, 0
1, 214725, Note_on_c, 1, 43, 127
1, 214780, Note_off_c, 1, 43, 0
1, 214785, Note_on_c, 1, 45, 127
1, 214834, Note_off_c, 1, 45, 0
1, 214964, Note_on_c, 1, 45, 127
1, 214969, Note_on_c, 1, 67, 127
1, 214971, Note_on_c, 1, 64, 127
1, 214971, Note_on_c, 1, 72, 127
1, 215010, Note_off_c, 1, 72, 0
1, 215012, Note_off_c, 1, 64, 0
1, 215019, Note_off_c, 1, 45, 0
1, 215021, Note_off_c, 1, 67, 0
1, 215030, Note_on_c, 1, 65, 127
1, 215035, Note_on_c, 1, 74, 127
1, 215036, Note_on_c, 1, 69, 127
1, 215040, Note_on_c, 1, 38, 127
1, 215055, Note_on_c, 1, 72, 127
1, 215068, Note_off_c, 1, 74, 0
1, 215084, Note_off_c, 1, 72, 0
1, 215157, Note_off_c, 1, 65, 0
1, 215203, Note_off_c, 1, 69, 0
1, 215217, Note_on_c, 1, 71, 127
1, 215264, Note_off_c, 1, 71, 0
1, 215269, Note_on_c, 1, 62, 127
1, 215274, Note_on_c, 1, 79, 127
1, 215296, Note_on_c, 1, 77, 127
1, 215308, Note_off_c, 1, 79, 0
1, 215328, Note_off_c, 1, 77, 0
1, 215409, Note_off_c, 1, 62, 0
1, 215451, Note_on_c, 1, 76, 127
1, 215497, Note_off_c, 1, 76, 0
1, 215510, Note_on_c, 1, 84, 127
1, 215523, Note_off_c, 1, 38, 0
1, 215536, Note_on_c, 1, 83, 127
1, 215542, Note_off_c, 1, 84, 0
1, 215557, Note_on_c, 1, 36, 127
1, 215561, Note_off_c, 1, 83, 0
1, 215609, Note_off_c, 1, 36, 0
1, 215682, Note_on_c, 1, 40, 127
1, 215691, Note_on_c, 1, 81, 127
1, 215731, Note_off_c, 1, 40, 0
1, 215734, Note_off_c, 1, 81, 0
1, 215744, Note_on_c, 1, 41, 127
1, 215752, Note_on_c, 1, 86, 127
1, 215794, Note_off_c, 1, 41, 0
1, 215829, Note_off_c, 1, 86, 0
1, 215914, Note_on_c, 1, 38, 127
1, 215927, Note_on_c, 1, 69, 127
1, 215927, Note_on_c, 1, 77, 127
1, 215933, Note_on_c, 1, 72, 127
1, 215960, Note_off_c, 1, 77, 0
1, 215969, Note_off_c, 1, 38, 0
1, 215969, Note_off_c, 1, 69, 0
1, 215977, Note_off_c, 1, 72, 0
1, 215990, Note_on_c, 1, 71, 127
1, 215991, Note_on_c, 1, 62, 127
1, 215993, Note_on_c, 1, 77, 127
1, 215994, Note_on_c, 1, 43, 127
1, 216096, Note_off_c, 1, 62, 0
1, 216108, Note_off_c, 1, 71, 0
1, 216113, Note_off_c, 1, 43, 0
1, 216167, Note_on_c, 1, 65, 127
1, 216217, Note_off_c, 1, 65, 0
1, 216230, Note_on_c, 1, 64, 127
1, 216230, Note_on_c, 1, 45, 127
1, 216231, Note_on_c, 1, 72, 127
1, 216268, Note_off_c, 1, 77, 0
1, 216287, Note_on_c, 1, 81, 127
1, 216319, Note_off_c, 1, 64, 0
1, 216321, Note_off_c, 1, 45, 0
1, 216329, Note_off_c, 1, 72, 0
1, 216334, Note_off_c, 1, 81, 0
1, 216346, Note_on_c, 1, 79, 127
1, 216390, Note_off_c, 1, 79, 0
1, 216408, Note_on_c, 1, 77, 127
1, 216411, Note_on_c, 1, 74, 127
1, 216412, Note_on_c, 1, 47, 127
1, 216414, Note_on_c, 1, 62, 127
1, 216448, Note_off_c, 1, 74, 0
1, 216449, Note_off_c, 1, 77, 0
1, 216456, Note_off_c, 1, 47, 0
1, 216458, Note_off_c, 1, 62, 0
1, 216470, Note_on_c, 1, 67, 127
1, 216470, Note_on_c, 1, 76, 127
1, 216471, Note_on_c, 1, 48, 127
1, 216478, Note_on_c, 1, 60, 127
1, 216519, Note_off_c, 1, 76, 0
1, 216531, Note_on_c, 1, 72, 127
1, 216570, Note_off_c, 1, 48, 0
1, 216575, Note_off_c, 1, 67, 0
1, 216577, Note_off_c, 1, 72, 0
1, 216590, Note_on_c, 1, 74, 127
1, 216636, Note_off_c, 1, 74, 0
1, 216647, Note_on_c, 1, 70, 127
1, 216693, Note_off_c, 1, 70, 0
1, 216707, Note_on_c, 1, 77, 127
1, 216708, Note_on_c, 1, 69, 127
1, 216708, Note_on_c, 1, 50, 127
1, 216762, Note_off_c, 1, 77, 0
1, 216770, Note_on_c, 1, 79, 127
1, 216793, Note_off_c, 1, 69, 0
1, 216809, Note_off_c, 1, 60, 0
1, 216809, Note_off_c, 1, 50, 0
1, 216814, Note_off_c, 1, 79, 0
1, 216827, Note_on_c, 1, 81, 127
1, 216872, Note_off_c, 1, 81, 0
1, 216878, Note_on_c, 1, 52, 127
1, 216881, Note_on_c, 1, 82, 127
1, 216882, Note_on_c, 1, 67, 127
1, 216883, Note_on_c, 1, 60, 127
1, 216923, Note_off_c, 1, 52, 0
1, 216924, Note_off_c, 1, 67, 0
1, 216926, Note_off_c, 1, 60, 0
1, 216935, Note_off_c, 1, 82, 0
1, 216945, Note_on_c, 1, 81, 127
1, 216946, Note_on_c, 1, 65, 127
1, 216948, Note_on_c, 1, 53, 127
1, 216950, Note_on_c, 1, 60, 127
1, 217000, Note_off_c, 1, 81, 0
1, 217010, Note_on_c, 1, 79, 127
1, 217048, Note_off_c, 1, 60, 0
1, 217064, Note_off_c, 1, 65, 0
1, 217067, Note_off_c, 1, 79, 0
1, 217071, Note_on_c, 1, 77, 127
1, 217114, Note_off_c, 1, 77, 0
1, 217117, Note_on_c, 1, 57, 127
1, 217128, Note_on_c, 1, 76, 127
1, 217130, Note_on_c, 1, 67, 127
1, 217161, Note_off_c, 1, 57, 0
1, 217172, Note_off_c, 1, 76, 0
1, 217174, Note_off_c, 1, 67, 0
1, 217187, Note_on_c, 1, 62, 127
1, 217191, Note_on_c, 1, 69, 127
1, 217247, Note_on_c, 1, 74, 127
1, 217279, Note_off_c, 1, 69, 0
1, 217281, Note_off_c, 1, 62, 0
1, 217292, Note_off_c, 1, 74, 0
1, 217442, Note_on_c, 1, 59, 127
1, 217460, Note_off_c, 1, 53, 0
1, 217484, Note_on_c, 1, 55, 127
1, 217528, Note_off_c, 1, 55, 0
1, 217529, Note_off_c, 1, 59, 0
1, 217602, Note_on_c, 1, 52, 127
1, 217642, Note_off_c, 1, 52, 0
1, 217662, Note_on_c, 1, 50, 127
1, 217709, Note_off_c, 1, 50, 0
1, 217717, Note_on_c, 1, 48, 127
1, 217768, Note_off_c, 1, 48, 0
1, 217776, Note_on_c, 1, 47, 127
1, 217817, Note_on_c, 1, 71, 127
1, 217840, Note_off_c, 1, 47, 0
1, 217840, Note_on_c, 1, 45, 127
1, 217840, Note_on_c, 1, 72, 127
1, 217854, Note_off_c, 1, 71, 0
1, 217895, Note_off_c, 1, 45, 0
1, 217901, Note_off_c, 1, 72, 0
1, 217908, Note_on_c, 1, 43, 127
1, 218010, Note_off_c, 1, 43, 0
1, 218090, Note_on_c, 1, 76, 127
1, 218095, Note_on_c, 1, 74, 127
1, 218096, Note_on_c, 1, 47, 127
1, 218098, Note_on_c, 1, 55, 127
1, 218127, Note_off_c, 1, 76, 0
1, 218142, Note_off_c, 1, 47, 0
1, 218149, Note_off_c, 1, 55, 0
1, 218150, Note_off_c, 1, 74, 0
1, 218152, Note_on_c, 1, 76, 127
1, 218157, Note_on_c, 1, 72, 127
1, 218157, Note_on_c, 1, 67, 127
1, 218160, Note_on_c, 1, 48, 127
1, 218244, Note_off_c, 1, 67, 0
1, 218250, Note_off_c, 1, 72, 0
1, 218254, Note_off_c, 1, 48, 0
1, 218258, Note_off_c, 1, 76, 0
1, 218325, Note_on_c, 1, 74, 127
1, 218333, Note_on_c, 1, 77, 127
1, 218337, Note_on_c, 1, 69, 127
1, 218344, Note_on_c, 1, 41, 127
1, 218363, Note_off_c, 1, 74, 0
1, 218372, Note_off_c, 1, 77, 0
1, 218385, Note_off_c, 1, 69, 0
1, 218393, Note_on_c, 1, 76, 127
1, 218395, Note_off_c, 1, 41, 0
1, 218395, Note_on_c, 1, 72, 127
1, 218400, Note_on_c, 1, 67, 127
1, 218407, Note_on_c, 1, 43, 127
1, 218467, Note_on_c, 1, 71, 127
1, 218476, Note_off_c, 1, 72, 0
1, 218485, Note_off_c, 1, 76, 0
1, 218499, Note_off_c, 1, 71, 0
1, 218582, Note_off_c, 1, 43, 0
1, 218588, Note_off_c, 1, 67, 0
1, 218642, Note_on_c, 1, 62, 127
1, 218816, Note_off_c, 1, 62, 0
1, 218876, Note_on_c, 1, 36, 127
1, 218881, Note_on_c, 1, 64, 127
1, 218882, Note_on_c, 1, 67, 127
1, 218883, Note_on_c, 1, 72, 127
1, 219607, Note_off_c, 1, 64, 0
1, 219611, Note_off_c, 1, 72, 0
1, 219615, Note_off_c, 1, 67, 0
1, 219625, Note_off_c, 1, 36, 0
1, 219625, End_track
0, 0, End_of_file