0, 0, Header, 1, 1, 480
1, 0, Start_track
1, 0, Title_t, "Test"
1, 0, Tempo, 500000
1, 0, Instrument_name_t, "Church Organ"
1, 466, Note_on_c, 1, 67, 127
1, 468, Note_on_c, 1, 64, 127
1, 468, Note_on_c, 1, 60, 127
1, 472, Note_on_c, 1, 48, 127
1, 560, Note_off_c, 1, 64, 0
1, 569, Note_off_c, 1, 60, 0
1, 585, Note_off_c, 1, 48, 0
1, 590, Note_off_c, 1, 67, 0
1, 700, Note_on_c, 1, 60, 127
1, 703, Note_on_c, 1, 72, 127
1, 709, Note_on_c, 1, 64, 127
1, 713, Note_on_c, 1, 55, 127
1, 816, Note_off_c, 1, 60, 0
1, 860, Note_off_c, 1, 64, 0
1, 866, Note_off_c, 1, 72, 0
1, 936, Note_on_c, 1, 48, 127
1, 941, Note_on_c, 1, 76, 127
1, 954, Note_on_c, 1, 67, 127
1, 1051, Note_on_c, 1, 74, 127
1, 1060, Note_off_c, 1, 48, 0
1, 1068, Note_off_c, 1, 55, 0
1, 1070, Note_on_c, 1, 65, 127
1, 1092, Note_off_c, 1, 76, 0
1, 1102, Note_off_c, 1, 67, 0
1, 1176, Note_on_c, 1, 59, 127
1, 1203, Note_off_c, 1, 65, 0
1, 1206, Note_off_c, 1, 74, 0
1, 1294, Note_off_c, 1, 59, 0
1, 1297, Note_on_c, 1, 62, 127
1, 1302, Note_on_c, 1, 71, 127
1, 1380, Note_off_c, 1, 62, 0
1, 1392, Note_off_c, 1, 71, 0
1, 1428, Note_on_c, 1, 64, 127
1, 1429, Note_on_c, 1, 57, 127
1, 1431, Note_on_c, 1, 60, 127
1, 1431, Note_on_c, 1, 72, 127
1, 1509, Note_off_c, 1, 64, 0
1, 1516, Note_off_c, 1, 72, 0
1, 1540, Note_on_c, 1, 65, 127
1, 1543, Note_on_c, 1, 74, 127
1, 1547, Note_off_c, 1, 57, 0
1, 1624, Note_off_c, 1, 74, 0
1, 1626, Note_off_c, 1, 65, 0
1, 1662, Note_on_c, 1, 76, 127
1, 1663, Note_on_c, 1, 67, 127
1, 1667, Note_on_c, 1, 55, 127
1, 1727, Note_off_c, 1, 67, 0
1, 1732, Note_off_c, 1, 76, 0
1, 1776, Note_off_c, 1, 55, 0
1, 1776, Note_on_c, 1, 77, 127
1, 1777, Note_off_c, 1, 60, 0
1, 1777, Note_on_c, 1, 69, 127
1, 1843, Note_off_c, 1, 69, 0
1, 1849, Note_off_c, 1, 77, 0
1, 1900, Note_on_c, 1, 71, 127
1, 1906, Note_on_c, 1, 62, 127
1, 1906, Note_on_c, 1, 79, 127
1, 1906, Note_on_c, 1, 53, 127
1, 2021, Note_off_c, 1, 53, 0
1, 2029, Note_off_c, 1, 62, 0
1, 2044, Note_off_c, 1, 71, 0
1, 2151, Note_on_c, 1, 64, 127
1, 2151, Note_on_c, 1, 52, 127
1, 2158, Note_on_c, 1, 72, 127
1, 2255, Note_off_c, 1, 64, 0
1, 2269, Note_off_c, 1, 52, 0
1, 2331, Note_off_c, 1, 79, 0
1, 2386, Note_on_c, 1, 60, 127
1, 2396, Note_on_c, 1, 81, 127
1, 2506, Note_off_c, 1, 60, 0
1, 2514, Note_off_c, 1, 72, 0
1, 2523, Note_off_c, 1, 81, 0
1, 2624, Note_on_c, 1, 50, 127
1, 2628, Note_on_c, 1, 77, 127
1, 2631, Note_on_c, 1, 72, 127
1, 2632, Note_on_c, 1, 65, 127
1, 2749, Note_off_c, 1, 50, 0
1, 2753, Note_off_c, 1, 65, 0
1, 2757, Note_off_c, 1, 77, 0
1, 2757, Note_off_c, 1, 72, 0
1, 2860, Note_on_c, 1, 74, 127
1, 2867, Note_on_c, 1, 55, 127
1, 2870, Note_on_c, 1, 71, 127
1, 2875, Note_on_c, 1, 67, 127
1, 2987, Note_off_c, 1, 55, 0
1, 3002, Note_off_c, 1, 67, 0
1, 3016, Note_off_c, 1, 71, 0
1, 3040, Note_off_c, 1, 74, 0
1, 3104, Note_on_c, 1, 69, 127
1, 3106, Note_on_c, 1, 72, 127
1, 3114, Note_on_c, 1, 43, 127
1, 3215, Note_off_c, 1, 43, 0
1, 3215, Note_on_c, 1, 71, 127
1, 3225, Note_off_c, 1, 69, 0
1, 3263, Note_off_c, 1, 72, 0
1, 3343, Note_on_c, 1, 53, 127
1, 3349, Note_on_c, 1, 74, 127
1, 3446, Note_off_c, 1, 53, 0
1, 3449, Note_on_c, 1, 67, 127
1, 3451, Note_off_c, 1, 74, 0
1, 3459, Note_off_c, 1, 71, 0
1, 3539, Note_off_c, 1, 67, 0
1, 3587, Note_on_c, 1, 67, 127
1, 3587, Note_on_c, 1, 72, 127
1, 3591, Note_on_c, 1, 52, 127
1, 3698, Note_off_c, 1, 52, 0
1, 3735, Note_off_c, 1, 72, 0
1, 3822, Note_on_c, 1, 60, 127
1, 3830, Note_on_c, 1, 76, 127
1, 3939, Note_on_c, 1, 74, 127
1, 3947, Note_off_c, 1, 60, 0
1, 3964, Note_off_c, 1, 67, 0
1, 3979, Note_off_c, 1, 76, 0
1, 4066, Note_on_c, 1, 59, 127
1, 4074, Note_on_c, 1, 62, 127
1, 4094, Note_off_c, 1, 74, 0
1, 4166, Note_off_c, 1, 62, 0
1, 4178, Note_on_c, 1, 71, 127
1, 4187, Note_off_c, 1, 59, 0
1, 4282, Note_off_c, 1, 71, 0
1, 4302, Note_on_c, 1, 64, 127
1, 4302, Note_on_c, 1, 57, 127
1, 4313, Note_on_c, 1, 69, 127
1, 4314, Note_on_c, 1, 74, 127
1, 4419, Note_off_c, 1, 57, 0
1, 4427, Note_on_c, 1, 72, 127
1, 4464, Note_off_c, 1, 74, 0
1, 4541, Note_on_c, 1, 55, 127
1, 4547, Note_on_c, 1, 71, 127
1, 4578, Note_off_c, 1, 72, 0
1, 4653, Note_off_c, 1, 55, 0
1, 4668, Note_off_c, 1, 64, 0
1, 4682, Note_off_c, 1, 71, 0
1, 4751, Note_off_c, 1, 69, 0
1, 4780, Note_on_c, 1, 62, 127
1, 4780, Note_on_c, 1, 54, 127
1, 4787, Note_on_c, 1, 69, 127
1, 4795, Note_on_c, 1, 74, 127
1, 4892, Note_off_c, 1, 62, 0
1, 4892, Note_off_c, 1, 54, 0
1, 4943, Note_off_c, 1, 69, 0
1, 5024, Note_on_c, 1, 55, 127
1, 5032, Note_on_c, 1, 71, 127
1, 5033, Note_on_c, 1, 67, 127
1, 5130, Note_off_c, 1, 55, 0
1, 5140, Note_off_c, 1, 67, 0
1, 5141, Note_off_c, 1, 71, 0
1, 5214, Note_off_c, 1, 74, 0
1, 5270, Note_on_c, 1, 62, 127
1, 5270, Note_on_c, 1, 72, 127
1, 5274, Note_on_c, 1, 67, 127
1, 5275, Note_on_c, 1, 47, 127
1, 5380, Note_off_c, 1, 67, 0
1, 5381, Note_off_c, 1, 62, 0
1, 5383, Note_off_c, 1, 72, 0
1, 5387, Note_on_c, 1, 71, 127
1, 5394, Note_off_c, 1, 47, 0
1, 5466, Note_off_c, 1, 71, 0
1, 5507, Note_on_c, 1, 69, 127
1, 5512, Note_on_c, 1, 66, 127
1, 5518, Note_on_c, 1, 50, 127
1, 5520, Note_on_c, 1, 60, 127
1, 5595, Note_off_c, 1, 69, 0
1, 5611, Note_off_c, 1, 66, 0
1, 5618, Note_off_c, 1, 60, 0
1, 5621, Note_off_c, 1, 50, 0
1, 5625, Note_on_c, 1, 71, 127
1, 5710, Note_off_c, 1, 71, 0
1, 5756, Note_on_c, 1, 62, 127
1, 5756, Note_on_c, 1, 59, 127
1, 5759, Note_on_c, 1, 43, 127
1, 5761, Note_on_c, 1, 67, 127
1, 5923, Note_off_c, 1, 43, 0
1, 5989, Note_on_c, 1, 55, 127
1, 6079, Note_off_c, 1, 55, 0
1, 6097, Note_on_c, 1, 53, 127
1, 6104, Note_off_c, 1, 62, 0
1, 6116, Note_off_c, 1, 67, 0
1, 6117, Note_off_c, 1, 59, 0
1, 6175, Note_off_c, 1, 53, 0
1, 6211, Note_on_c, 1, 52, 127
1, 6227, Note_on_c, 1, 60, 127
1, 6227, Note_on_c, 1, 67, 127
1, 6236, Note_on_c, 1, 64, 127
1, 6302, Note_off_c, 1, 52, 0
1, 6323, Note_on_c, 1, 50, 127
1, 6338, Note_off_c, 1, 60, 0
1, 6339, Note_off_c, 1, 64, 0
1, 6370, Note_off_c, 1, 67, 0
1, 6401, Note_off_c, 1, 50, 0
1, 6459, Note_on_c, 1, 48, 127
1, 6472, Note_on_c, 1, 72, 127
1, 6475, Note_on_c, 1, 55, 127
1, 6482, Note_on_c, 1, 64, 127
1, 6579, Note_off_c, 1, 48, 0
1, 6625, Note_off_c, 1, 72, 0
1, 6652, Note_off_c, 1, 64, 0
1, 6706, Note_on_c, 1, 76, 127
1, 6714, Note_on_c, 1, 60, 127
1, 6725, Note_on_c, 1, 67, 127
1, 6814, Note_off_c, 1, 60, 0
1, 6821, Note_on_c, 1, 74, 127
1, 6829, Note_on_c, 1, 65, 127
1, 6855, Note_off_c, 1, 76, 0
1, 6856, Note_off_c, 1, 55, 0
1, 6865, Note_off_c, 1, 67, 0
1, 6946, Note_on_c, 1, 59, 127
1, 6956, Note_off_c, 1, 65, 0
1, 6971, Note_off_c, 1, 74, 0
1, 7057, Note_on_c, 1, 71, 127
1, 7063, Note_on_c, 1, 62, 127
1, 7072, Note_off_c, 1, 59, 0
1, 7142, Note_off_c, 1, 62, 0
1, 7153, Note_off_c, 1, 71, 0
1, 7190, Note_on_c, 1, 57, 127
1, 7193, Note_on_c, 1, 72, 127
1, 7196, Note_on_c, 1, 60, 127
1, 7197, Note_on_c, 1, 64, 127
1, 7280, Note_off_c, 1, 64, 0
1, 7281, Note_off_c, 1, 72, 0
1, 7309, Note_on_c, 1, 74, 127
1, 7309, Note_on_c, 1, 65, 127
1, 7318, Note_off_c, 1, 57, 0
1, 7384, Note_off_c, 1, 74, 0
1, 7390, Note_off_c, 1, 65, 0
1, 7424, Note_on_c, 1, 67, 127
1, 7424, Note_on_c, 1, 55, 127
1, 7424, Note_on_c, 1, 76, 127
1, 7492, Note_off_c, 1, 67, 0
1, 7498, Note_off_c, 1, 76, 0
1, 7537, Note_on_c, 1, 69, 127
1, 7543, Note_off_c, 1, 55, 0
1, 7543, Note_on_c, 1, 77, 127
1, 7564, Note_off_c, 1, 60, 0
1, 7605, Note_off_c, 1, 69, 0
1, 7614, Note_off_c, 1, 77, 0
1, 7658, Note_on_c, 1, 71, 127
1, 7659, Note_on_c, 1, 53, 127
1, 7667, Note_on_c, 1, 62, 127
1, 7670, Note_on_c, 1, 79, 127
1, 7777, Note_off_c, 1, 71, 0
1, 7778, Note_off_c, 1, 53, 0
1, 7796, Note_off_c, 1, 62, 0
1, 7898, Note_on_c, 1, 72, 127
1, 7898, Note_on_c, 1, 52, 127
1, 7914, Note_on_c, 1, 64, 127
1, 8026, Note_off_c, 1, 64, 0
1, 8029, Note_off_c, 1, 52, 0
1, 8076, Note_off_c, 1, 79, 0
1, 8147, Note_on_c, 1, 81, 127
1, 8155, Note_on_c, 1, 60, 127
1, 8257, Note_off_c, 1, 60, 0
1, 8270, Note_off_c, 1, 81, 0
1, 8281, Note_off_c, 1, 72, 0
1, 8382, Note_on_c, 1, 50, 127
1, 8388, Note_on_c, 1, 72, 127
1, 8390, Note_on_c, 1, 65, 127
1, 8390, Note_on_c, 1, 77, 127
1, 8488, Note_off_c, 1, 72, 0
1, 8498, Note_off_c, 1, 50, 0
1, 8518, Note_off_c, 1, 65, 0
1, 8547, Note_off_c, 1, 77, 0
1, 8622, Note_on_c, 1, 71, 127
1, 8625, Note_on_c, 1, 55, 127
1, 8629, Note_on_c, 1, 67, 127
1, 8634, Note_on_c, 1, 76, 127
1, 8672, Note_on_c, 1, 74, 127
1, 8694, Note_off_c, 1, 76, 0
1, 8732, Note_off_c, 1, 74, 0
1, 8745, Note_off_c, 1, 55, 0
1, 8761, Note_off_c, 1, 67, 0
1, 8765, Note_off_c, 1, 71, 0
1, 8862, Note_on_c, 1, 72, 127
1, 8865, Note_on_c, 1, 69, 127
1, 8868, Note_on_c, 1, 43, 127
1, 8976, Note_off_c, 1, 43, 0
1, 8988, Note_off_c, 1, 69, 0
1, 9021, Note_off_c, 1, 72, 0
1, 9100, Note_on_c, 1, 53, 127
1, 9218, Note_off_c, 1, 53, 0
1, 9345, Note_on_c, 1, 67, 127
1, 9347, Note_on_c, 1, 52, 127
1, 9353, Note_on_c, 1, 72, 127
1, 9477, Note_off_c, 1, 52, 0
1, 9511, Note_off_c, 1, 72, 0
1, 9590, Note_on_c, 1, 76, 127
1, 9590, Note_on_c, 1, 60, 127
1, 9696, Note_off_c, 1, 60, 0
1, 9701, Note_on_c, 1, 74, 127
1, 9731, Note_off_c, 1, 76, 0
1, 9733, Note_off_c, 1, 67, 0
1, 9822, Note_on_c, 1, 59, 127
1, 9841, Note_on_c, 1, 62, 127
1, 9851, Note_off_c, 1, 74, 0
1, 9934, Note_on_c, 1, 71, 127
1, 9940, Note_off_c, 1, 62, 0
1, 9961, Note_off_c, 1, 59, 0
1, 10028, Note_off_c, 1, 71, 0
1, 10071, Note_on_c, 1, 74, 127
1, 10075, Note_on_c, 1, 57, 127
1, 10078, Note_on_c, 1, 69, 127
1, 10081, Note_on_c, 1, 64, 127
1, 10182, Note_on_c, 1, 72, 127
1, 10191, Note_off_c, 1, 57, 0
1, 10225, Note_off_c, 1, 74, 0
1, 10298, Note_on_c, 1, 55, 127
1, 10309, Note_on_c, 1, 71, 127
1, 10340, Note_off_c, 1, 72, 0
1, 10432, Note_off_c, 1, 55, 0
1, 10438, Note_off_c, 1, 71, 0
1, 10455, Note_off_c, 1, 64, 0
1, 10500, Note_off_c, 1, 69, 0
1, 10541, Note_on_c, 1, 54, 127
1, 10547, Note_on_c, 1, 62, 127
1, 10558, Note_on_c, 1, 69, 127
1, 10559, Note_on_c, 1, 74, 127
1, 10658, Note_off_c, 1, 54, 0
1, 10661, Note_off_c, 1, 62, 0
1, 10692, Note_off_c, 1, 69, 0
1, 10786, Note_on_c, 1, 55, 127
1, 10797, Note_on_c, 1, 67, 127
1, 10800, Note_on_c, 1, 71, 127
1, 10900, Note_off_c, 1, 55, 0
1, 10902, Note_off_c, 1, 67, 0
1, 10925, Note_off_c, 1, 71, 0
1, 10993, Note_off_c, 1, 74, 0
1, 11022, Note_on_c, 1, 47, 127
1, 11031, Note_on_c, 1, 67, 127
1, 11032, Note_on_c, 1, 62, 127
1, 11038, Note_on_c, 1, 72, 127
1, 11129, Note_off_c, 1, 72, 0
1, 11136, Note_off_c, 1, 47, 0
1, 11145, Note_off_c, 1, 62, 0
1, 11148, Note_off_c, 1, 67, 0
1, 11148, Note_on_c, 1, 71, 127
1, 11228, Note_off_c, 1, 71, 0
1, 11268, Note_on_c, 1, 69, 127
1, 11273, Note_on_c, 1, 66, 127
1, 11273, Note_on_c, 1, 50, 127
1, 11277, Note_on_c, 1, 60, 127
1, 11360, Note_off_c, 1, 50, 0
1, 11363, Note_off_c, 1, 69, 0
1, 11380, Note_off_c, 1, 66, 0
1, 11384, Note_off_c, 1, 60, 0
1, 11384, Note_on_c, 1, 71, 127
1, 11473, Note_off_c, 1, 71, 0
1, 11514, Note_on_c, 1, 62, 127
1, 11520, Note_on_c, 1, 59, 127
1, 11520, Note_on_c, 1, 67, 127
1, 11520, Note_on_c, 1, 43, 127
1, 11806, Note_off_c, 1, 59, 0
1, 11830, Note_off_c, 1, 62, 0
1, 11834, Note_off_c, 1, 43, 0
1, 11851, Note_off_c, 1, 67, 0
1, 11989, Note_on_c, 1, 71, 127
1, 11999, Note_on_c, 1, 67, 127
1, 11999, Note_on_c, 1, 74, 127
1, 12005, Note_on_c, 1, 43, 127
1, 12081, Note_off_c, 1, 71, 0
1, 12106, Note_off_c, 1, 67, 0
1, 12117, Note_off_c, 1, 74, 0
1, 12120, Note_off_c, 1, 43, 0
1, 12230, Note_on_c, 1, 71, 127
1, 12230, Note_on_c, 1, 67, 127
1, 12234, Note_on_c, 1, 62, 127
1, 12237, Note_on_c, 1, 55, 127
1, 12353, Note_off_c, 1, 55, 0
1, 12421, Note_off_c, 1, 71, 0
1, 12467, Note_on_c, 1, 72, 127
1, 12475, Note_on_c, 1, 57, 127
1, 12561, Note_off_c, 1, 62, 0
1, 12579, Note_off_c, 1, 67, 0
1, 12596, Note_off_c, 1, 57, 0
1, 12610, Note_off_c, 1, 72, 0
1, 12694, Note_on_c, 1, 69, 127
1, 12704, Note_on_c, 1, 59, 127
1, 12817, Note_off_c, 1, 69, 0
1, 12818, Note_off_c, 1, 59, 0
1, 12921, Note_on_c, 1, 67, 127
1, 12943, Note_on_c, 1, 60, 127
1, 12950, Note_on_c, 1, 76, 127
1, 13055, Note_on_c, 1, 77, 127
1, 13062, Note_off_c, 1, 67, 0
1, 13075, Note_off_c, 1, 60, 0
1, 13083, Note_off_c, 1, 76, 0
1, 13160, Note_on_c, 1, 79, 127
1, 13177, Note_on_c, 1, 72, 127
1, 13182, Note_on_c, 1, 48, 127
1, 13186, Note_off_c, 1, 77, 0
1, 13279, Note_on_c, 1, 81, 127
1, 13286, Note_off_c, 1, 48, 0
1, 13298, Note_off_c, 1, 79, 0
1, 13301, Note_off_c, 1, 72, 0
1, 13392, Note_off_c, 1, 81, 0
1, 13404, Note_on_c, 1, 74, 127
1, 13413, Note_on_c, 1, 65, 127
1, 13420, Note_on_c, 1, 82, 127
1, 13420, Note_on_c, 1, 50, 127
1, 13527, Note_off_c, 1, 65, 0
1, 13528, Note_off_c, 1, 74, 0
1, 13545, Note_off_c, 1, 50, 0
1, 13656, Note_on_c, 1, 52, 127
1, 13659, Note_on_c, 1, 73, 127
1, 13659, Note_on_c, 1, 64, 127
1, 13766, Note_off_c, 1, 64, 0
1, 13768, Note_off_c, 1, 52, 0
1, 13776, Note_off_c, 1, 73, 0
1, 13863, Note_off_c, 1, 82, 0
1, 13895, Note_on_c, 1, 49, 127
1, 13904, Note_on_c, 1, 57, 127
1, 13906, Note_on_c, 1, 76, 127
1, 13908, Note_on_c, 1, 81, 127
1, 13998, Note_off_c, 1, 76, 0
1, 13999, Note_off_c, 1, 49, 0
1, 14010, Note_off_c, 1, 57, 0
1, 14034, Note_off_c, 1, 81, 0
1, 14142, Note_on_c, 1, 79, 127
1, 14142, Note_on_c, 1, 69, 127
1, 14149, Note_on_c, 1, 45, 127
1, 14150, Note_on_c, 1, 73, 127
1, 14240, Note_off_c, 1, 73, 0
1, 14253, Note_off_c, 1, 69, 0
1, 14263, Note_off_c, 1, 79, 0
1, 14263, Note_off_c, 1, 45, 0
1, 14377, Note_on_c, 1, 77, 127
1, 14386, Note_on_c, 1, 50, 127
1, 14389, Note_on_c, 1, 74, 127
1, 14390, Note_on_c, 1, 69, 127
1, 14507, Note_off_c, 1, 50, 0
1, 14544, Note_off_c, 1, 77, 0
1, 14624, Note_on_c, 1, 79, 127
1, 14625, Note_on_c, 1, 48, 127
1, 14724, Note_off_c, 1, 48, 0
1, 14725, Note_off_c, 1, 69, 0
1, 14727, Note_off_c, 1, 74, 0
1, 14769, Note_off_c, 1, 79, 0
1, 14857, Note_on_c, 1, 67, 127
1, 14859, Note_on_c, 1, 46, 127
1, 14864, Note_on_c, 1, 76, 127
1, 14867, Note_on_c, 1, 70, 127
1, 14962, Note_off_c, 1, 67, 0
1, 14968, Note_off_c, 1, 70, 0
1, 14969, Note_off_c, 1, 46, 0
1, 14983, Note_off_c, 1, 76, 0
1, 15096, Note_on_c, 1, 73, 127
1, 15100, Note_on_c, 1, 69, 127
1, 15104, Note_on_c, 1, 64, 127
1, 15104, Note_on_c, 1, 45, 127
1, 15195, Note_off_c, 1, 73, 0
1, 15204, Note_on_c, 1, 74, 127
1, 15216, Note_off_c, 1, 45, 0
1, 15268, Note_off_c, 1, 64, 0
1, 15299, Note_off_c, 1, 74, 0
1, 15331, Note_on_c, 1, 49, 127
1, 15335, Note_on_c, 1, 76, 127
1, 15347, Note_on_c, 1, 57, 127
1, 15351, Note_off_c, 1, 69, 0
1, 15429, Note_off_c, 1, 57, 0
1, 15433, Note_off_c, 1, 49, 0
1, 15463, Note_on_c, 1, 59, 127
1, 15475, Note_off_c, 1, 76, 0
1, 15530, Note_off_c, 1, 59, 0
1, 15574, Note_on_c, 1, 69, 127
1, 15578, Note_on_c, 1, 61, 127
1, 15579, Note_on_c, 1, 81, 127
1, 15583, Note_on_c, 1, 52, 127
1, 15648, Note_off_c, 1, 69, 0
1, 15655, Note_off_c, 1, 61, 0
1, 15686, Note_off_c, 1, 52, 0
1, 15686, Note_on_c, 1, 71, 127
1, 15689, Note_on_c, 1, 62, 127
1, 15764, Note_off_c, 1, 62, 0
1, 15772, Note_off_c, 1, 71, 0
1, 15809, Note_on_c, 1, 73, 127
1, 15825, Note_on_c, 1, 55, 127
1, 15833, Note_on_c, 1, 64, 127
1, 15887, Note_off_c, 1, 73, 0
1, 15932, Note_on_c, 1, 74, 127
1, 15952, Note_off_c, 1, 64, 0
1, 15993, Note_off_c, 1, 81, 0
1, 16002, Note_off_c, 1, 74, 0
1, 16057, Note_on_c, 1, 76, 127
1, 16062, Note_on_c, 1, 79, 127
1, 16172, Note_on_c, 1, 77, 127
1, 16173, Note_off_c, 1, 76, 0
1, 16205, Note_off_c, 1, 79, 0
1, 16300, Note_on_c, 1, 67, 127
1, 16311, Note_off_c, 1, 55, 0
1, 16319, Note_off_c, 1, 77, 0
1, 16377, Note_off_c, 1, 67, 0
1, 16420, Note_on_c, 1, 65, 127
1, 16497, Note_off_c, 1, 65, 0
1, 17021, Note_on_c, 1, 49, 127
1, 17129, Note_off_c, 1, 49, 0
1, 17273, Note_on_c, 1, 45, 127
1, 17771, Note_off_c, 1, 45, 0
1, 17976, Note_on_c, 1, 74, 127
1, 17987, Note_on_c, 1, 62, 127
1, 17991, Note_on_c, 1, 65, 127
1, 17998, Note_on_c, 1, 46, 127
1, 18060, Note_off_c, 1, 74, 0
1, 18097, Note_on_c, 1, 69, 127
1, 18112, Note_off_c, 1, 46, 0
1, 18180, Note_off_c, 1, 69, 0
1, 18222, Note_on_c, 1, 77, 127
1, 18225, Note_on_c, 1, 58, 127
1, 18337, Note_on_c, 1, 76, 127
1, 18343, Note_off_c, 1, 58, 0
1, 18358, Note_off_c, 1, 62, 0
1, 18374, Note_off_c, 1, 65, 0
1, 18375, Note_off_c, 1, 77, 0
1, 18465, Note_on_c, 1, 57, 127
1, 18471, Note_off_c, 1, 76, 0
1, 18566, Note_off_c, 1, 57, 0
1, 18568, Note_on_c, 1, 72, 127
1, 18647, Note_off_c, 1, 72, 0
1, 18692, Note_on_c, 1, 70, 127
1, 18701, Note_on_c, 1, 55, 127
1, 18705, Note_on_c, 1, 62, 127
1, 18709, Note_on_c, 1, 67, 127
1, 18801, Note_on_c, 1, 74, 127
1, 18820, Note_off_c, 1, 55, 0
1, 18830, Note_off_c, 1, 70, 0
1, 18830, Note_off_c, 1, 62, 0
1, 18852, Note_off_c, 1, 67, 0
1, 18902, Note_off_c, 1, 74, 0
1, 18932, Note_on_c, 1, 49, 127
1, 18937, Note_on_c, 1, 79, 127
1, 18940, Note_on_c, 1, 64, 127
1, 18947, Note_on_c, 1, 69, 127
1, 19005, Note_off_c, 1, 79, 0
1, 19051, Note_on_c, 1, 76, 127
1, 19052, Note_off_c, 1, 64, 0
1, 19055, Note_off_c, 1, 49, 0
1, 19055, Note_off_c, 1, 69, 0
1, 19125, Note_off_c, 1, 76, 0
1, 19174, Note_on_c, 1, 50, 127
1, 19179, Note_on_c, 1, 77, 127
1, 19191, Note_on_c, 1, 69, 127
1, 19193, Note_on_c, 1, 62, 127
1, 19306, Note_off_c, 1, 50, 0
1, 19308, Note_off_c, 1, 69, 0
1, 19329, Note_off_c, 1, 62, 0
1, 19422, Note_on_c, 1, 46, 127
1, 19427, Note_on_c, 1, 74, 127
1, 19430, Note_on_c, 1, 65, 127
1, 19530, Note_off_c, 1, 77, 0
1, 19534, Note_off_c, 1, 46, 0
1, 19546, Note_off_c, 1, 65, 0
1, 19608, Note_off_c, 1, 74, 0
1, 19659, Note_on_c, 1, 77, 127
1, 19662, Note_on_c, 1, 43, 127
1, 19669, Note_on_c, 1, 70, 127
1, 19669, Note_on_c, 1, 67, 127
1, 19770, Note_on_c, 1, 76, 127
1, 19774, Note_off_c, 1, 70, 0
1, 19776, Note_off_c, 1, 43, 0
1, 19778, Note_off_c, 1, 67, 0
1, 19799, Note_off_c, 1, 77, 0
1, 19870, Note_off_c, 1, 76, 0
1, 19889, Note_on_c, 1, 74, 127
1, 19905, Note_on_c, 1, 64, 127
1, 19906, Note_on_c, 1, 69, 127
1, 19906, Note_on_c, 1, 45, 127
1, 20003, Note_on_c, 1, 73, 127
1, 20008, Note_off_c, 1, 45, 0
1, 20016, Note_off_c, 1, 64, 0
1, 20032, Note_off_c, 1, 74, 0
1, 20045, Note_off_c, 1, 69, 0
1, 20112, Note_off_c, 1, 73, 0
1, 20141, Note_on_c, 1, 74, 127
1, 20147, Note_on_c, 1, 65, 127
1, 20149, Note_on_c, 1, 69, 127
1, 20149, Note_on_c, 1, 50, 127
1, 20252, Note_off_c, 1, 50, 0
1, 20381, Note_on_c, 1, 38, 127
1, 20477, Note_off_c, 1, 38, 0
1, 20488, Note_off_c, 1, 74, 0
1, 20491, Note_off_c, 1, 69, 0
1, 20508, Note_off_c, 1, 65, 0
1, 20622, Note_on_c, 1, 69, 127
1, 20622, Note_on_c, 1, 50, 127
1, 20627, Note_on_c, 1, 66, 127
1, 20630, Note_on_c, 1, 62, 127
1, 20708, Note_off_c, 1, 69, 0
1, 20739, Note_off_c, 1, 50, 0
1, 20743, Note_on_c, 1, 71, 127
1, 20748, Note_off_c, 1, 66, 0
1, 20758, Note_off_c, 1, 62, 0
1, 20813, Note_off_c, 1, 71, 0
1, 20865, Note_on_c, 1, 67, 127
1, 20867, Note_on_c, 1, 72, 127
1, 20869, Note_on_c, 1, 52, 127
1, 20871, Note_on_c, 1, 60, 127
1, 20983, Note_off_c, 1, 52, 0
1, 20993, Note_off_c, 1, 60, 0
1, 21001, Note_off_c, 1, 67, 0
1, 21039, Note_off_c, 1, 72, 0
1, 21101, Note_on_c, 1, 57, 127
1, 21104, Note_on_c, 1, 74, 127
1, 21105, Note_on_c, 1, 54, 127
1, 21110, Note_on_c, 1, 69, 127
1, 21206, Note_off_c, 1, 54, 0
1, 21214, Note_off_c, 1, 57, 0
1, 21214, Note_on_c, 1, 72, 127
1, 21222, Note_off_c, 1, 69, 0
1, 21259, Note_off_c, 1, 74, 0
1, 21338, Note_on_c, 1, 50, 127
1, 21344, Note_on_c, 1, 71, 127
1, 21344, Note_on_c, 1, 62, 127
1, 21348, Note_on_c, 1, 66, 127
1, 21374, Note_off_c, 1, 72, 0
1, 21434, Note_off_c, 1, 50, 0
1, 21444, Note_off_c, 1, 66, 0
1, 21456, Note_off_c, 1, 62, 0
1, 21472, Note_off_c, 1, 71, 0
1, 21580, Note_on_c, 1, 71, 127
1, 21580, Note_on_c, 1, 55, 127
1, 21591, Note_on_c, 1, 67, 127
1, 21596, Note_on_c, 1, 62, 127
1, 21694, Note_off_c, 1, 71, 0
1, 21696, Note_on_c, 1, 69, 127
1, 21708, Note_off_c, 1, 55, 0
1, 21793, Note_off_c, 1, 69, 0
1, 21824, Note_on_c, 1, 43, 127
1, 21925, Note_off_c, 1, 62, 0
1, 21930, Note_off_c, 1, 43, 0
1, 21952, Note_off_c, 1, 67, 0
1, 22061, Note_on_c, 1, 60, 127
1, 22066, Note_on_c, 1, 71, 127
1, 22070, Note_on_c, 1, 45, 127
1, 22072, Note_on_c, 1, 65, 127
1, 22158, Note_off_c, 1, 71, 0
1, 22170, Note_on_c, 1, 72, 127
1, 22175, Note_off_c, 1, 60, 0
1, 22175, Note_off_c, 1, 45, 0
1, 22278, Note_off_c, 1, 72, 0
1, 22293, Note_on_c, 1, 74, 127
1, 22299, Note_on_c, 1, 47, 127
1, 22307, Note_on_c, 1, 55, 127
1, 22409, Note_on_c, 1, 76, 127
1, 22413, Note_off_c, 1, 47, 0
1, 22420, Note_off_c, 1, 74, 0
1, 22434, Note_off_c, 1, 55, 0
1, 22445, Note_off_c, 1, 65, 0
1, 22512, Note_off_c, 1, 76, 0
1, 22532, Note_on_c, 1, 77, 127
1, 22538, Note_on_c, 1, 43, 127
1, 22545, Note_on_c, 1, 71, 127
1, 22548, Note_on_c, 1, 67, 127
1, 22640, Note_off_c, 1, 43, 0
1, 22661, Note_off_c, 1, 71, 0
1, 22665, Note_off_c, 1, 67, 0
1, 22668, Note_off_c, 1, 77, 0
1, 22780, Note_on_c, 1, 48, 127
1, 22781, Note_on_c, 1, 76, 127
1, 22785, Note_on_c, 1, 72, 127
1, 22794, Note_on_c, 1, 67, 127
1, 22882, Note_off_c, 1, 48, 0
1, 22891, Note_off_c, 1, 72, 0
1, 22905, Note_off_c, 1, 67, 0
1, 22928, Note_off_c, 1, 76, 0
1, 23019, Note_on_c, 1, 74, 127
1, 23025, Note_on_c, 1, 43, 127
1, 23031, Note_on_c, 1, 71, 127
1, 23035, Note_on_c, 1, 67, 127
1, 23122, Note_off_c, 1, 71, 0
1, 23138, Note_on_c, 1, 72, 127
1, 23140, Note_off_c, 1, 74, 0
1, 23147, Note_on_c, 1, 69, 127
1, 23159, Note_off_c, 1, 67, 0
1, 23219, Note_off_c, 1, 69, 0
1, 23247, Note_off_c, 1, 72, 0
1, 23271, Note_on_c, 1, 62, 127
1, 23378, Note_off_c, 1, 62, 0
1, 23436, Note_off_c, 1, 43, 0
1, 23490, Note_on_c, 1, 71, 127
1, 23494, Note_on_c, 1, 74, 127
1, 23498, Note_on_c, 1, 67, 127
1, 23506, Note_on_c, 1, 55, 127
1, 23572, Note_off_c, 1, 71, 0
1, 23594, Note_off_c, 1, 74, 0
1, 23606, Note_on_c, 1, 76, 127
1, 23660, Note_off_c, 1, 55, 0
1, 23675, Note_off_c, 1, 67, 0
1, 23700, Note_off_c, 1, 76, 0
1, 23736, Note_on_c, 1, 72, 127
1, 23738, Note_on_c, 1, 77, 127
1, 23740, Note_on_c, 1, 60, 127
1, 23746, Note_on_c, 1, 57, 127
1, 23829, Note_off_c, 1, 57, 0
1, 23833, Note_off_c, 1, 77, 0
1, 23853, Note_on_c, 1, 55, 127
1, 23857, Note_on_c, 1, 79, 127
1, 23866, Note_off_c, 1, 60, 0
1, 23942, Note_off_c, 1, 55, 0
1, 23948, Note_off_c, 1, 79, 0
1, 23971, Note_on_c, 1, 53, 127
1, 23981, Note_on_c, 1, 81, 127
1, 23981, Note_on_c, 1, 65, 127
1, 24070, Note_off_c, 1, 53, 0
1, 24080, Note_on_c, 1, 52, 127
1, 24097, Note_off_c, 1, 65, 0
1, 24104, Note_off_c, 1, 81, 0
1, 24141, Note_off_c, 1, 72, 0
1, 24194, Note_off_c, 1, 52, 0
1, 24207, Note_on_c, 1, 53, 127
1, 24224, Note_on_c, 1, 62, 127
1, 24225, Note_on_c, 1, 79, 127
1, 24231, Note_on_c, 1, 71, 127
1, 24306, Note_off_c, 1, 53, 0
1, 24327, Note_on_c, 1, 50, 127
1, 24338, Note_off_c, 1, 62, 0
1, 24338, Note_off_c, 1, 71, 0
1, 24439, Note_off_c, 1, 50, 0
1, 24463, Note_on_c, 1, 52, 127
1, 24468, Note_on_c, 1, 67, 127
1, 24470, Note_on_c, 1, 72, 127
1, 24583, Note_off_c, 1, 72, 0
1, 24594, Note_off_c, 1, 79, 0
1, 24594, Note_off_c, 1, 67, 0
1, 24603, Note_off_c, 1, 52, 0
1, 24702, Note_on_c, 1, 70, 127
1, 24711, Note_on_c, 1, 65, 127
1, 24715, Note_on_c, 1, 50, 127
1, 24810, Note_off_c, 1, 70, 0
1, 24813, Note_on_c, 1, 69, 127
1, 24826, Note_off_c, 1, 65, 0
1, 24834, Note_off_c, 1, 50, 0
1, 24904, Note_off_c, 1, 69, 0
1, 24935, Note_on_c, 1, 70, 127
1, 24938, Note_on_c, 1, 67, 127
1, 24942, Note_on_c, 1, 64, 127
1, 24950, Note_on_c, 1, 48, 127
1, 25042, Note_off_c, 1, 70, 0
1, 25064, Note_off_c, 1, 64, 0
1, 25071, Note_off_c, 1, 48, 0
1, 25149, Note_off_c, 1, 67, 0
1, 25179, Note_on_c, 1, 69, 127
1, 25185, Note_on_c, 1, 65, 127
1, 25185, Note_on_c, 1, 60, 127
1, 25185, Note_on_c, 1, 53, 127
1, 25295, Note_off_c, 1, 69, 0
1, 25300, Note_off_c, 1, 60, 0
1, 25304, Note_off_c, 1, 53, 0
1, 25305, Note_off_c, 1, 65, 0
1, 25417, Note_on_c, 1, 50, 127
1, 25423, Note_on_c, 1, 74, 127
1, 25423, Note_on_c, 1, 65, 127
1, 25428, Note_on_c, 1, 69, 127
1, 25524, Note_off_c, 1, 50, 0
1, 25532, Note_off_c, 1, 74, 0
1, 25532, Note_off_c, 1, 69, 0
1, 25534, Note_off_c, 1, 65, 0
1, 25661, Note_on_c, 1, 62, 127
1, 25665, Note_on_c, 1, 67, 127
1, 25665, Note_on_c, 1, 55, 127
1, 25665, Note_on_c, 1, 71, 127
1, 25768, Note_off_c, 1, 55, 0
1, 25772, Note_off_c, 1, 71, 0
1, 25774, Note_off_c, 1, 62, 0
1, 25774, Note_off_c, 1, 67, 0
1, 25911, Note_on_c, 1, 72, 127
1, 25914, Note_on_c, 1, 64, 127
1, 25916, Note_on_c, 1, 48, 127
1, 25922, Note_on_c, 1, 67, 127
1, 26244, Note_off_c, 1, 64, 0
1, 26253, Note_off_c, 1, 48, 0
1, 26269, Note_off_c, 1, 72, 0
1, 26279, Note_off_c, 1, 67, 0
1, 26387, Note_on_c, 1, 74, 127
1, 26391, Note_on_c, 1, 43, 127
1, 26393, Note_on_c, 1, 67, 127
1, 26394, Note_on_c, 1, 71, 127
1, 26500, Note_off_c, 1, 67, 0
1, 26502, Note_off_c, 1, 71, 0
1, 26510, Note_off_c, 1, 74, 0
1, 26512, Note_off_c, 1, 43, 0
1, 26616, Note_on_c, 1, 62, 127
1, 26620, Note_on_c, 1, 55, 127
1, 26626, Note_on_c, 1, 71, 127
1, 26630, Note_on_c, 1, 67, 127
1, 26757, Note_off_c, 1, 55, 0
1, 26814, Note_off_c, 1, 71, 0
1, 26863, Note_on_c, 1, 57, 127
1, 26864, Note_on_c, 1, 72, 127
1, 26947, Note_off_c, 1, 62, 0
1, 26971, Note_off_c, 1, 67, 0
1, 26978, Note_off_c, 1, 57, 0
1, 27009, Note_off_c, 1, 72, 0
1, 27095, Note_on_c, 1, 69, 127
1, 27096, Note_on_c, 1, 59, 127
1, 27226, Note_off_c, 1, 69, 0
1, 27231, Note_off_c, 1, 59, 0
1, 27342, Note_on_c, 1, 67, 127
1, 27342, Note_on_c, 1, 60, 127
1, 27351, Note_on_c, 1, 76, 127
1, 27451, Note_on_c, 1, 77, 127
1, 27475, Note_off_c, 1, 60, 0
1, 27478, Note_off_c, 1, 67, 0
1, 27483, Note_off_c, 1, 76, 0
1, 27570, Note_on_c, 1, 79, 127
1, 27578, Note_on_c, 1, 48, 127
1, 27580, Note_on_c, 1, 72, 127
1, 27594, Note_off_c, 1, 77, 0
1, 27680, Note_on_c, 1, 81, 127
1, 27697, Note_off_c, 1, 48, 0
1, 27700, Note_off_c, 1, 72, 0
1, 27709, Note_off_c, 1, 79, 0
1, 27810, Note_off_c, 1, 81, 0
1, 27810, Note_on_c, 1, 50, 127
1, 27814, Note_on_c, 1, 74, 127
1, 27822, Note_on_c, 1, 65, 127
1, 27822, Note_on_c, 1, 82, 127
1, 27924, Note_off_c, 1, 65, 0
1, 27943, Note_off_c, 1, 74, 0
1, 27948, Note_off_c, 1, 50, 0
1, 28048, Note_on_c, 1, 52, 127
1, 28057, Note_on_c, 1, 73, 127
1, 28064, Note_on_c, 1, 64, 127
1, 28173, Note_off_c, 1, 52, 0
1, 28177, Note_off_c, 1, 73, 0
1, 28179, Note_off_c, 1, 64, 0
1, 28283, Note_off_c, 1, 82, 0
1, 28296, Note_on_c, 1, 49, 127
1, 28303, Note_on_c, 1, 76, 127
1, 28309, Note_on_c, 1, 57, 127
1, 28315, Note_on_c, 1, 81, 127
1, 28403, Note_off_c, 1, 76, 0
1, 28404, Note_off_c, 1, 49, 0
1, 28423, Note_off_c, 1, 57, 0
1, 28437, Note_off_c, 1, 81, 0
1, 28536, Note_on_c, 1, 45, 127
1, 28544, Note_on_c, 1, 69, 127
1, 28547, Note_on_c, 1, 79, 127
1, 28550, Note_on_c, 1, 73, 127
1, 28645, Note_off_c, 1, 73, 0
1, 28651, Note_off_c, 1, 69, 0
1, 28662, Note_off_c, 1, 45, 0
1, 28675, Note_off_c, 1, 79, 0
1, 28769, Note_on_c, 1, 50, 127
1, 28777, Note_on_c, 1, 77, 127
1, 28787, Note_on_c, 1, 74, 127
1, 28793, Note_on_c, 1, 69, 127
1, 28922, Note_off_c, 1, 50, 0
1, 28955, Note_off_c, 1, 77, 0
1, 29006, Note_on_c, 1, 48, 127
1, 29024, Note_on_c, 1, 79, 127
1, 29130, Note_off_c, 1, 69, 0
1, 29163, Note_off_c, 1, 74, 0
1, 29165, Note_off_c, 1, 48, 0
1, 29171, Note_off_c, 1, 79, 0
1, 29261, Note_on_c, 1, 46, 127
1, 29262, Note_on_c, 1, 76, 127
1, 29268, Note_on_c, 1, 70, 127
1, 29274, Note_on_c, 1, 67, 127
1, 29355, Note_off_c, 1, 70, 0
1, 29380, Note_off_c, 1, 67, 0
1, 29387, Note_off_c, 1, 76, 0
1, 29406, Note_off_c, 1, 46, 0
1, 29497, Note_on_c, 1, 45, 127
1, 29501, Note_on_c, 1, 73, 127
1, 29505, Note_on_c, 1, 64, 127
1, 29511, Note_on_c, 1, 69, 127
1, 29610, Note_on_c, 1, 74, 127
1, 29635, Note_off_c, 1, 73, 0
1, 29658, Note_off_c, 1, 45, 0
1, 29691, Note_off_c, 1, 64, 0
1, 29736, Note_on_c, 1, 76, 127
1, 29744, Note_on_c, 1, 49, 127
1, 29750, Note_off_c, 1, 74, 0
1, 29753, Note_on_c, 1, 57, 127
1, 29834, Note_off_c, 1, 57, 0
1, 29835, Note_off_c, 1, 69, 0
1, 29863, Note_on_c, 1, 59, 127
1, 29867, Note_off_c, 1, 76, 0
1, 29874, Note_off_c, 1, 49, 0
1, 29936, Note_off_c, 1, 59, 0
1, 29978, Note_on_c, 1, 81, 127
1, 29978, Note_on_c, 1, 69, 127
1, 29988, Note_on_c, 1, 52, 127
1, 29991, Note_on_c, 1, 61, 127
1, 30054, Note_off_c, 1, 61, 0
1, 30058, Note_off_c, 1, 69, 0
1, 30086, Note_on_c, 1, 71, 127
1, 30098, Note_off_c, 1, 52, 0
1, 30103, Note_on_c, 1, 62, 127
1, 30176, Note_off_c, 1, 71, 0
1, 30176, Note_off_c, 1, 62, 0
1, 30215, Note_on_c, 1, 73, 127
1, 30221, Note_on_c, 1, 55, 127
1, 30225, Note_on_c, 1, 64, 127
1, 30293, Note_off_c, 1, 73, 0
1, 30329, Note_on_c, 1, 74, 127
1, 30365, Note_off_c, 1, 64, 0
1, 30400, Note_off_c, 1, 81, 0
1, 30411, Note_off_c, 1, 74, 0
1, 30454, Note_on_c, 1, 76, 127
1, 30461, Note_on_c, 1, 79, 127
1, 30570, Note_on_c, 1, 77, 127
1, 30572, Note_off_c, 1, 76, 0
1, 30615, Note_off_c, 1, 79, 0
1, 30707, Note_on_c, 1, 67, 127
1, 30718, Note_off_c, 1, 55, 0
1, 30720, Note_off_c, 1, 77, 0
1, 30783, Note_off_c, 1, 67, 0
1, 30821, Note_on_c, 1, 65, 127
1, 30898, Note_off_c, 1, 65, 0
1, 31423, Note_on_c, 1, 49, 127
1, 31532, Note_off_c, 1, 49, 0
1, 31678, Note_on_c, 1, 45, 127
1, 32161, Note_off_c, 1, 45, 0
1, 32384, Note_on_c, 1, 74, 127
1, 32386, Note_on_c, 1, 65, 127
1, 32388, Note_on_c, 1, 62, 127
1, 32391, Note_on_c, 1, 46, 127
1, 32482, Note_off_c, 1, 74, 0
1, 32495, Note_on_c, 1, 69, 127
1, 32511, Note_off_c, 1, 46, 0
1, 32582, Note_off_c, 1, 69, 0
1, 32622, Note_on_c, 1, 77, 127
1, 32627, Note_on_c, 1, 58, 127
1, 32729, Note_off_c, 1, 58, 0
1, 32735, Note_on_c, 1, 76, 127
1, 32743, Note_off_c, 1, 62, 0
1, 32751, Note_off_c, 1, 65, 0
1, 32771, Note_off_c, 1, 77, 0
1, 32866, Note_on_c, 1, 57, 127
1, 32873, Note_off_c, 1, 76, 0
1, 32966, Note_on_c, 1, 72, 127
1, 32970, Note_off_c, 1, 57, 0
1, 33059, Note_off_c, 1, 72, 0
1, 33092, Note_on_c, 1, 70, 127
1, 33106, Note_on_c, 1, 55, 127
1, 33109, Note_on_c, 1, 67, 127
1, 33110, Note_on_c, 1, 62, 127
1, 33211, Note_on_c, 1, 74, 127
1, 33222, Note_off_c, 1, 55, 0
1, 33234, Note_off_c, 1, 70, 0
1, 33234, Note_off_c, 1, 62, 0
1, 33237, Note_off_c, 1, 67, 0
1, 33315, Note_off_c, 1, 74, 0
1, 33337, Note_on_c, 1, 79, 127
1, 33341, Note_on_c, 1, 49, 127
1, 33344, Note_on_c, 1, 69, 127
1, 33349, Note_on_c, 1, 64, 127
1, 33403, Note_off_c, 1, 79, 0
1, 33448, Note_off_c, 1, 69, 0
1, 33449, Note_off_c, 1, 49, 0
1, 33459, Note_on_c, 1, 76, 127
1, 33463, Note_off_c, 1, 64, 0
1, 33525, Note_off_c, 1, 76, 0
1, 33578, Note_on_c, 1, 50, 127
1, 33584, Note_on_c, 1, 77, 127
1, 33584, Note_on_c, 1, 69, 127
1, 33596, Note_on_c, 1, 62, 127
1, 33698, Note_off_c, 1, 62, 0
1, 33699, Note_off_c, 1, 50, 0
1, 33715, Note_off_c, 1, 69, 0
1, 33816, Note_on_c, 1, 46, 127
1, 33826, Note_on_c, 1, 74, 127
1, 33826, Note_on_c, 1, 65, 127
1, 33911, Note_off_c, 1, 77, 0
1, 33929, Note_off_c, 1, 46, 0
1, 33942, Note_off_c, 1, 65, 0
1, 34024, Note_off_c, 1, 74, 0
1, 34061, Note_on_c, 1, 43, 127
1, 34066, Note_on_c, 1, 77, 127
1, 34069, Note_on_c, 1, 67, 127
1, 34078, Note_on_c, 1, 70, 127
1, 34178, Note_on_c, 1, 76, 127
1, 34186, Note_off_c, 1, 67, 0
1, 34186, Note_off_c, 1, 70, 0
1, 34191, Note_off_c, 1, 43, 0
1, 34203, Note_off_c, 1, 77, 0
1, 34265, Note_off_c, 1, 76, 0
1, 34296, Note_on_c, 1, 74, 127
1, 34296, Note_on_c, 1, 45, 127
1, 34313, Note_on_c, 1, 69, 127
1, 34313, Note_on_c, 1, 64, 127
1, 34405, Note_on_c, 1, 73, 127
1, 34409, Note_off_c, 1, 45, 0
1, 34416, Note_off_c, 1, 69, 0
1, 34418, Note_off_c, 1, 74, 0
1, 34425, Note_off_c, 1, 64, 0
1, 34507, Note_off_c, 1, 73, 0
1, 34542, Note_on_c, 1, 74, 127
1, 34542, Note_on_c, 1, 50, 127
1, 34546, Note_on_c, 1, 69, 127
1, 34554, Note_on_c, 1, 65, 127
1, 34653, Note_off_c, 1, 50, 0
1, 34791, Note_on_c, 1, 38, 127
1, 34887, Note_off_c, 1, 65, 0
1, 34899, Note_off_c, 1, 38, 0
1, 34916, Note_off_c, 1, 74, 0
1, 34927, Note_off_c, 1, 69, 0
1, 35019, Note_on_c, 1, 69, 127
1, 35019, Note_on_c, 1, 62, 127
1, 35024, Note_on_c, 1, 50, 127
1, 35027, Note_on_c, 1, 66, 127
1, 35110, Note_off_c, 1, 69, 0
1, 35134, Note_on_c, 1, 71, 127
1, 35143, Note_off_c, 1, 62, 0
1, 35154, Note_off_c, 1, 50, 0
1, 35164, Note_off_c, 1, 66, 0
1, 35213, Note_off_c, 1, 71, 0
1, 35261, Note_on_c, 1, 60, 127
1, 35262, Note_on_c, 1, 67, 127
1, 35270, Note_on_c, 1, 52, 127
1, 35270, Note_on_c, 1, 72, 127
1, 35375, Note_off_c, 1, 60, 0
1, 35391, Note_off_c, 1, 67, 0
1, 35395, Note_off_c, 1, 52, 0
1, 35453, Note_off_c, 1, 72, 0
1, 35492, Note_on_c, 1, 54, 127
1, 35498, Note_on_c, 1, 57, 127
1, 35506, Note_on_c, 1, 69, 127
1, 35509, Note_on_c, 1, 74, 127
1, 35610, Note_off_c, 1, 57, 0
1, 35617, Note_off_c, 1, 69, 0
1, 35618, Note_on_c, 1, 72, 127
1, 35620, Note_off_c, 1, 54, 0
1, 35654, Note_off_c, 1, 74, 0
1, 35741, Note_on_c, 1, 71, 127
1, 35742, Note_on_c, 1, 50, 127
1, 35744, Note_on_c, 1, 62, 127
1, 35751, Note_on_c, 1, 66, 127
1, 35773, Note_off_c, 1, 72, 0
1, 35851, Note_off_c, 1, 62, 0
1, 35852, Note_off_c, 1, 50, 0
1, 35855, Note_off_c, 1, 66, 0
1, 35873, Note_off_c, 1, 71, 0
1, 35977, Note_on_c, 1, 71, 127
1, 35977, Note_on_c, 1, 55, 127
1, 35983, Note_on_c, 1, 67, 127
1, 35985, Note_on_c, 1, 62, 127
1, 36091, Note_on_c, 1, 69, 127
1, 36096, Note_off_c, 1, 71, 0
1, 36122, Note_off_c, 1, 55, 0
1, 36186, Note_off_c, 1, 69, 0
1, 36218, Note_on_c, 1, 43, 127
1, 36317, Note_off_c, 1, 62, 0
1, 36330, Note_off_c, 1, 43, 0
1, 36342, Note_off_c, 1, 67, 0
1, 36451, Note_on_c, 1, 60, 127
1, 36451, Note_on_c, 1, 45, 127
1, 36458, Note_on_c, 1, 65, 127
1, 36569, Note_on_c, 1, 72, 127
1, 36575, Note_off_c, 1, 60, 0
1, 36575, Note_off_c, 1, 45, 0
1, 36677, Note_off_c, 1, 72, 0
1, 36689, Note_on_c, 1, 47, 127
1, 36693, Note_on_c, 1, 74, 127
1, 36809, Note_on_c, 1, 76, 127
1, 36813, Note_off_c, 1, 47, 0
1, 36813, Note_off_c, 1, 74, 0
1, 36884, Note_off_c, 1, 65, 0
1, 36912, Note_off_c, 1, 76, 0
1, 36932, Note_on_c, 1, 43, 127
1, 36937, Note_on_c, 1, 67, 127
1, 36938, Note_on_c, 1, 77, 127
1, 36960, Note_on_c, 1, 71, 127
1, 37057, Note_off_c, 1, 43, 0
1, 37062, Note_off_c, 1, 67, 0
1, 37073, Note_off_c, 1, 77, 0
1, 37087, Note_off_c, 1, 71, 0
1, 37180, Note_on_c, 1, 76, 127
1, 37180, Note_on_c, 1, 48, 127
1, 37188, Note_on_c, 1, 67, 127
1, 37193, Note_on_c, 1, 72, 127
1, 37292, Note_off_c, 1, 48, 0
1, 37312, Note_off_c, 1, 67, 0
1, 37318, Note_off_c, 1, 76, 0
1, 37326, Note_off_c, 1, 72, 0
1, 37423, Note_on_c, 1, 74, 127
1, 37430, Note_on_c, 1, 67, 127
1, 37431, Note_on_c, 1, 43, 127
1, 37432, Note_on_c, 1, 71, 127
1, 37540, Note_on_c, 1, 72, 127
1, 37541, Note_off_c, 1, 71, 0
1, 37541, Note_on_c, 1, 69, 127
1, 37548, Note_off_c, 1, 74, 0
1, 37565, Note_off_c, 1, 67, 0
1, 37618, Note_off_c, 1, 69, 0
1, 37633, Note_off_c, 1, 72, 0
1, 37673, Note_on_c, 1, 62, 127
1, 37766, Note_off_c, 1, 43, 0
1, 37780, Note_off_c, 1, 62, 0
1, 37897, Note_on_c, 1, 67, 127
1, 37901, Note_on_c, 1, 74, 127
1, 37907, Note_on_c, 1, 55, 127
1, 37908, Note_on_c, 1, 71, 127
1, 37994, Note_off_c, 1, 71, 0
1, 38000, Note_off_c, 1, 74, 0
1, 38018, Note_on_c, 1, 76, 127
1, 38048, Note_off_c, 1, 55, 0
1, 38100, Note_off_c, 1, 67, 0
1, 38118, Note_off_c, 1, 76, 0
1, 38141, Note_on_c, 1, 72, 127
1, 38142, Note_on_c, 1, 77, 127
1, 38147, Note_on_c, 1, 60, 127
1, 38149, Note_on_c, 1, 57, 127
1, 38246, Note_off_c, 1, 77, 0
1, 38250, Note_off_c, 1, 57, 0
1, 38258, Note_on_c, 1, 79, 127
1, 38258, Note_on_c, 1, 55, 127
1, 38271, Note_off_c, 1, 60, 0
1, 38344, Note_off_c, 1, 55, 0
1, 38351, Note_off_c, 1, 79, 0
1, 38364, Note_on_c, 1, 53, 127
1, 38382, Note_on_c, 1, 81, 127
1, 38386, Note_on_c, 1, 65, 127
1, 38472, Note_off_c, 1, 53, 0
1, 38488, Note_on_c, 1, 52, 127
1, 38505, Note_off_c, 1, 65, 0
1, 38516, Note_off_c, 1, 81, 0
1, 38554, Note_off_c, 1, 72, 0
1, 38590, Note_off_c, 1, 52, 0
1, 38605, Note_on_c, 1, 53, 127
1, 38625, Note_on_c, 1, 79, 127
1, 38632, Note_on_c, 1, 62, 127
1, 38641, Note_on_c, 1, 71, 127
1, 38698, Note_off_c, 1, 53, 0
1, 38719, Note_on_c, 1, 50, 127
1, 38762, Note_off_c, 1, 62, 0
1, 38766, Note_off_c, 1, 71, 0
1, 38835, Note_off_c, 1, 50, 0
1, 38864, Note_on_c, 1, 52, 127
1, 38873, Note_on_c, 1, 67, 127
1, 38875, Note_on_c, 1, 72, 127
1, 38982, Note_off_c, 1, 79, 0
1, 38996, Note_off_c, 1, 52, 0
1, 38996, Note_off_c, 1, 72, 0
1, 38999, Note_off_c, 1, 67, 0
1, 39106, Note_on_c, 1, 70, 127
1, 39111, Note_on_c, 1, 65, 127
1, 39115, Note_on_c, 1, 50, 127
1, 39206, Note_on_c, 1, 69, 127
1, 39210, Note_off_c, 1, 70, 0
1, 39226, Note_off_c, 1, 50, 0
1, 39230, Note_off_c, 1, 65, 0
1, 39296, Note_off_c, 1, 69, 0
1, 39331, Note_on_c, 1, 70, 127
1, 39340, Note_on_c, 1, 67, 127
1, 39345, Note_on_c, 1, 48, 127
1, 39349, Note_on_c, 1, 64, 127
1, 39437, Note_off_c, 1, 70, 0
1, 39461, Note_off_c, 1, 64, 0
1, 39463, Note_off_c, 1, 48, 0
1, 39540, Note_off_c, 1, 67, 0
1, 39580, Note_on_c, 1, 69, 127
1, 39582, Note_on_c, 1, 65, 127
1, 39584, Note_on_c, 1, 60, 127
1, 39593, Note_on_c, 1, 53, 127
1, 39690, Note_off_c, 1, 69, 0
1, 39697, Note_off_c, 1, 60, 0
1, 39700, Note_off_c, 1, 65, 0
1, 39712, Note_off_c, 1, 53, 0
1, 39821, Note_on_c, 1, 69, 127
1, 39822, Note_on_c, 1, 74, 127
1, 39825, Note_on_c, 1, 65, 127
1, 39828, Note_on_c, 1, 50, 127
1, 39929, Note_off_c, 1, 65, 0
1, 39935, Note_off_c, 1, 69, 0
1, 39936, Note_off_c, 1, 50, 0
1, 39940, Note_off_c, 1, 74, 0
1, 40052, Note_on_c, 1, 72, 127
1, 40061, Note_on_c, 1, 55, 127
1, 40065, Note_on_c, 1, 67, 127
1, 40071, Note_on_c, 1, 62, 127
1, 40094, Note_on_c, 1, 71, 127
1, 40106, Note_off_c, 1, 72, 0
1, 40146, Note_off_c, 1, 71, 0
1, 40168, Note_off_c, 1, 55, 0
1, 40170, Note_off_c, 1, 62, 0
1, 40175, Note_off_c, 1, 67, 0
1, 40300, Note_on_c, 1, 67, 127
1, 40303, Note_on_c, 1, 72, 127
1, 40310, Note_on_c, 1, 64, 127
1, 40317, Note_on_c, 1, 48, 127
1, 40774, Note_off_c, 1, 48, 0
1, 40781, Note_on_c, 1, 79, 127
1, 40787, Note_off_c, 1, 64, 0
1, 40791, Note_off_c, 1, 67, 0
1, 40792, Note_on_c, 1, 55, 127
1, 40819, Note_off_c, 1, 72, 0
1, 40885, Note_off_c, 1, 79, 0
1, 40893, Note_on_c, 1, 77, 127
1, 40941, Note_off_c, 1, 55, 0
1, 40984, Note_off_c, 1, 77, 0
1, 41021, Note_on_c, 1, 60, 127
1, 41023, Note_on_c, 1, 76, 127
1, 41143, Note_on_c, 1, 74, 127
1, 41167, Note_off_c, 1, 76, 0
1, 41238, Note_off_c, 1, 60, 0
1, 41267, Note_on_c, 1, 64, 127
1, 41267, Note_on_c, 1, 72, 127
1, 41284, Note_off_c, 1, 74, 0
1, 41383, Note_on_c, 1, 62, 127
1, 41407, Note_off_c, 1, 72, 0
1, 41423, Note_off_c, 1, 64, 0
1, 41531, Note_off_c, 1, 62, 0
1, 41614, Note_on_c, 1, 59, 127
1, 41619, Note_on_c, 1, 77, 127
1, 41723, Note_off_c, 1, 59, 0
1, 41727, Note_off_c, 1, 77, 0
1, 41734, Note_on_c, 1, 57, 127
1, 41743, Note_on_c, 1, 76, 127
1, 41747, Note_on_c, 1, 60, 127
1, 41858, Note_on_c, 1, 62, 127
1, 41859, Note_on_c, 1, 74, 127
1, 41886, Note_off_c, 1, 76, 0
1, 41891, Note_off_c, 1, 60, 0
1, 41939, Note_off_c, 1, 57, 0
1, 41986, Note_on_c, 1, 64, 127
1, 41986, Note_on_c, 1, 72, 127
1, 41998, Note_off_c, 1, 74, 0
1, 42022, Note_off_c, 1, 62, 0
1, 42098, Note_on_c, 1, 65, 127
1, 42123, Note_off_c, 1, 72, 0
1, 42137, Note_off_c, 1, 64, 0
1, 42195, Note_off_c, 1, 65, 0
1, 42213, Note_on_c, 1, 67, 127
1, 42340, Note_on_c, 1, 77, 127
1, 42444, Note_off_c, 1, 77, 0
1, 42461, Note_on_c, 1, 53, 127
1, 42646, Note_off_c, 1, 67, 0
1, 42679, Note_off_c, 1, 53, 0
1, 42696, Note_on_c, 1, 69, 127
1, 42826, Note_off_c, 1, 69, 0
1, 43183, Note_on_c, 1, 55, 127
1, 43187, Note_on_c, 1, 71, 127
1, 43297, Note_off_c, 1, 71, 0
1, 43405, Note_off_c, 1, 55, 0
1, 43529, Note_on_c, 1, 59, 127
1, 43773, Note_on_c, 1, 79, 127
1, 43853, Note_off_c, 1, 59, 0
1, 43884, Note_off_c, 1, 79, 0
1, 43894, Note_on_c, 1, 60, 127
1, 43900, Note_on_c, 1, 76, 127
1, 44020, Note_on_c, 1, 74, 127
1, 44047, Note_off_c, 1, 76, 0
1, 44119, Note_off_c, 1, 60, 0
1, 44134, Note_on_c, 1, 72, 127
1, 44147, Note_on_c, 1, 64, 127
1, 44152, Note_off_c, 1, 74, 0
1, 44246, Note_on_c, 1, 71, 127
1, 44264, Note_on_c, 1, 62, 127
1, 44271, Note_off_c, 1, 72, 0
1, 44295, Note_off_c, 1, 64, 0
1, 44388, Note_on_c, 1, 69, 127
1, 44396, Note_off_c, 1, 71, 0
1, 44408, Note_off_c, 1, 62, 0
1, 44490, Note_on_c, 1, 59, 127
1, 44493, Note_off_c, 1, 69, 0
1, 44501, Note_on_c, 1, 67, 127
1, 44583, Note_off_c, 1, 59, 0
1, 44601, Note_off_c, 1, 67, 0
1, 44618, Note_on_c, 1, 62, 127
1, 44622, Note_on_c, 1, 66, 127
1, 44629, Note_on_c, 1, 48, 127
1, 44730, Note_on_c, 1, 60, 127
1, 44732, Note_off_c, 1, 66, 0
1, 44746, Note_on_c, 1, 69, 127
1, 44763, Note_off_c, 1, 62, 0
1, 44811, Note_off_c, 1, 60, 0
1, 44827, Note_off_c, 1, 48, 0
1, 44857, Note_on_c, 1, 59, 127
1, 44862, Note_off_c, 1, 69, 0
1, 44866, Note_on_c, 1, 74, 127
1, 44965, Note_on_c, 1, 57, 127
1, 44973, Note_off_c, 1, 74, 0
1, 44981, Note_on_c, 1, 72, 127
1, 44988, Note_off_c, 1, 59, 0
1, 45058, Note_off_c, 1, 57, 0
1, 45079, Note_off_c, 1, 72, 0
1, 45099, Note_on_c, 1, 71, 127
1, 45100, Note_on_c, 1, 48, 127
1, 45108, Note_on_c, 1, 62, 127
1, 45212, Note_on_c, 1, 69, 127
1, 45220, Note_off_c, 1, 71, 0
1, 45311, Note_off_c, 1, 48, 0
1, 45324, Note_off_c, 1, 69, 0
1, 45343, Note_on_c, 1, 67, 127
1, 45348, Note_on_c, 1, 47, 127
1, 45482, Note_off_c, 1, 67, 0
1, 45518, Note_off_c, 1, 62, 0
1, 45542, Note_off_c, 1, 47, 0
1, 45578, Note_on_c, 1, 60, 127
1, 45579, Note_on_c, 1, 48, 127
1, 45590, Note_on_c, 1, 69, 127
1, 45689, Note_on_c, 1, 59, 127
1, 45712, Note_off_c, 1, 69, 0
1, 45724, Note_off_c, 1, 60, 0
1, 45765, Note_off_c, 1, 48, 0
1, 45780, Note_off_c, 1, 59, 0
1, 45819, Note_on_c, 1, 50, 127
1, 45822, Note_on_c, 1, 66, 127
1, 45825, Note_on_c, 1, 57, 127
1, 45930, Note_on_c, 1, 59, 127
1, 45940, Note_off_c, 1, 66, 0
1, 45959, Note_off_c, 1, 57, 0
1, 45994, Note_off_c, 1, 50, 0
1, 46040, Note_off_c, 1, 59, 0
1, 46062, Note_on_c, 1, 67, 127
1, 46065, Note_on_c, 1, 55, 127
1, 46072, Note_on_c, 1, 43, 127
1, 46419, Note_off_c, 1, 55, 0
1, 46457, Note_off_c, 1, 67, 0
1, 46516, Note_off_c, 1, 43, 0
1, 46536, Note_on_c, 1, 55, 127
1, 46539, Note_on_c, 1, 79, 127
1, 46656, Note_off_c, 1, 79, 0
1, 46666, Note_on_c, 1, 77, 127
1, 46685, Note_off_c, 1, 55, 0
1, 46745, Note_off_c, 1, 77, 0
1, 46782, Note_on_c, 1, 60, 127
1, 46786, Note_on_c, 1, 76, 127
1, 46907, Note_on_c, 1, 74, 127
1, 46928, Note_off_c, 1, 76, 0
1, 46989, Note_off_c, 1, 60, 0
1, 47017, Note_on_c, 1, 64, 127
1, 47025, Note_on_c, 1, 72, 127
1, 47046, Note_off_c, 1, 74, 0
1, 47142, Note_on_c, 1, 62, 127
1, 47166, Note_off_c, 1, 72, 0
1, 47183, Note_off_c, 1, 64, 0
1, 47281, Note_off_c, 1, 62, 0
1, 47374, Note_on_c, 1, 59, 127
1, 47374, Note_on_c, 1, 77, 127
1, 47468, Note_off_c, 1, 59, 0
1, 47491, Note_on_c, 1, 57, 127
1, 47502, Note_off_c, 1, 77, 0
1, 47695, Note_off_c, 1, 57, 0
1, 47856, Note_on_c, 1, 65, 127
1, 47953, Note_off_c, 1, 65, 0
1, 47979, Note_on_c, 1, 67, 127
1, 48222, Note_on_c, 1, 53, 127
1, 48417, Note_off_c, 1, 53, 0
1, 48422, Note_off_c, 1, 67, 0
1, 48470, Note_on_c, 1, 69, 127
1, 48610, Note_off_c, 1, 69, 0
1, 48933, Note_on_c, 1, 62, 127
1, 48937, Note_on_c, 1, 55, 127
1, 48953, Note_on_c, 1, 71, 127
1, 49059, Note_on_c, 1, 72, 127
1, 49073, Note_off_c, 1, 71, 0
1, 49122, Note_off_c, 1, 62, 0
1, 49156, Note_off_c, 1, 55, 0
1, 49164, Note_on_c, 1, 57, 127
1, 49179, Note_on_c, 1, 60, 127
1, 49184, Note_on_c, 1, 74, 127
1, 49206, Note_off_c, 1, 72, 0
1, 49290, Note_on_c, 1, 59, 127
1, 49300, Note_on_c, 1, 76, 127
1, 49323, Note_off_c, 1, 60, 0
1, 49328, Note_off_c, 1, 74, 0
1, 49387, Note_off_c, 1, 57, 0
1, 49424, Note_on_c, 1, 77, 127
1, 49458, Note_off_c, 1, 76, 0
1, 49538, Note_on_c, 1, 79, 127
1, 49583, Note_off_c, 1, 77, 0
1, 49597, Note_off_c, 1, 59, 0
1, 49647, Note_off_c, 1, 79, 0
1, 49650, Note_on_c, 1, 60, 127
1, 49659, Note_on_c, 1, 76, 127
1, 49777, Note_on_c, 1, 74, 127
1, 49802, Note_off_c, 1, 76, 0
1, 49873, Note_off_c, 1, 60, 0
1, 49905, Note_on_c, 1, 72, 127
1, 49906, Note_on_c, 1, 64, 127
1, 49915, Note_off_c, 1, 74, 0
1, 50014, Note_on_c, 1, 71, 127
1, 50025, Note_on_c, 1, 62, 127
1, 50039, Note_off_c, 1, 72, 0
1, 50055, Note_off_c, 1, 64, 0
1, 50152, Note_on_c, 1, 69, 127
1, 50161, Note_off_c, 1, 62, 0
1, 50164, Note_off_c, 1, 71, 0
1, 50252, Note_on_c, 1, 59, 127
1, 50265, Note_on_c, 1, 67, 127
1, 50268, Note_off_c, 1, 69, 0
1, 50340, Note_off_c, 1, 59, 0
1, 50375, Note_off_c, 1, 67, 0
1, 50379, Note_on_c, 1, 66, 127
1, 50381, Note_on_c, 1, 48, 127
1, 50383, Note_on_c, 1, 62, 127
1, 50484, Note_on_c, 1, 60, 127
1, 50491, Note_off_c, 1, 66, 0
1, 50508, Note_on_c, 1, 69, 127
1, 50537, Note_off_c, 1, 62, 0
1, 50569, Note_off_c, 1, 60, 0
1, 50583, Note_off_c, 1, 48, 0
1, 50612, Note_on_c, 1, 59, 127
1, 50628, Note_off_c, 1, 69, 0
1, 50628, Note_on_c, 1, 74, 127
1, 50718, Note_on_c, 1, 57, 127
1, 50738, Note_off_c, 1, 74, 0
1, 50743, Note_off_c, 1, 59, 0
1, 50744, Note_on_c, 1, 72, 127
1, 50821, Note_off_c, 1, 57, 0
1, 50837, Note_off_c, 1, 72, 0
1, 50858, Note_on_c, 1, 48, 127
1, 50858, Note_on_c, 1, 71, 127
1, 50866, Note_on_c, 1, 62, 127
1, 50970, Note_off_c, 1, 71, 0
1, 50977, Note_on_c, 1, 69, 127
1, 51064, Note_off_c, 1, 48, 0
1, 51086, Note_off_c, 1, 69, 0
1, 51102, Note_on_c, 1, 67, 127
1, 51106, Note_on_c, 1, 47, 127
1, 51237, Note_off_c, 1, 67, 0
1, 51288, Note_off_c, 1, 62, 0
1, 51296, Note_off_c, 1, 47, 0
1, 51328, Note_on_c, 1, 60, 127
1, 51341, Note_on_c, 1, 48, 127
1, 51356, Note_on_c, 1, 69, 127
1, 51445, Note_on_c, 1, 59, 127
1, 51478, Note_off_c, 1, 60, 0
1, 51484, Note_off_c, 1, 69, 0
1, 51538, Note_off_c, 1, 59, 0
1, 51546, Note_off_c, 1, 48, 0
1, 51572, Note_on_c, 1, 57, 127
1, 51581, Note_on_c, 1, 50, 127
1, 51585, Note_on_c, 1, 66, 127
1, 51680, Note_on_c, 1, 59, 127
1, 51708, Note_off_c, 1, 57, 0
1, 51755, Note_off_c, 1, 66, 0
1, 51775, Note_off_c, 1, 50, 0
1, 51803, Note_off_c, 1, 59, 0
1, 51824, Note_on_c, 1, 43, 127
1, 51825, Note_on_c, 1, 67, 127
1, 51829, Note_on_c, 1, 55, 127
1, 51936, Note_off_c, 1, 67, 0
1, 51946, Note_on_c, 1, 66, 127
1, 52058, Note_off_c, 1, 66, 0
1, 52143, Note_off_c, 1, 55, 0
1, 52190, Note_on_c, 1, 69, 127
1, 52260, Note_off_c, 1, 43, 0
1, 52289, Note_off_c, 1, 69, 0
1, 52305, Note_on_c, 1, 71, 127
1, 52308, Note_on_c, 1, 62, 127
1, 52399, Note_off_c, 1, 71, 0
1, 52410, Note_on_c, 1, 72, 127
1, 52434, Note_off_c, 1, 62, 0
1, 52529, Note_off_c, 1, 72, 0
1, 52537, Note_on_c, 1, 59, 127
1, 52540, Note_on_c, 1, 43, 127
1, 52540, Note_on_c, 1, 74, 127
1, 52656, Note_on_c, 1, 77, 127
1, 52681, Note_off_c, 1, 74, 0
1, 52725, Note_off_c, 1, 59, 0
1, 52758, Note_off_c, 1, 43, 0
1, 52779, Note_on_c, 1, 60, 127
1, 52783, Note_on_c, 1, 76, 127
1, 52808, Note_off_c, 1, 77, 0
1, 52923, Note_off_c, 1, 76, 0
1, 52937, Note_off_c, 1, 60, 0
1, 53008, Note_on_c, 1, 57, 127
1, 53031, Note_on_c, 1, 72, 127
1, 53119, Note_on_c, 1, 55, 127
1, 53129, Note_off_c, 1, 57, 0
1, 53142, Note_on_c, 1, 71, 127
1, 53164, Note_off_c, 1, 72, 0
1, 53241, Note_off_c, 1, 55, 0
1, 53242, Note_on_c, 1, 64, 127
1, 53255, Note_off_c, 1, 71, 0
1, 53261, Note_on_c, 1, 73, 127
1, 53349, Note_off_c, 1, 64, 0
1, 53366, Note_on_c, 1, 65, 127
1, 53374, Note_on_c, 1, 69, 127
1, 53411, Note_off_c, 1, 73, 0
1, 53457, Note_off_c, 1, 65, 0
1, 53480, Note_on_c, 1, 67, 127
1, 53522, Note_off_c, 1, 69, 0
1, 53573, Note_off_c, 1, 67, 0
1, 53725, Note_on_c, 1, 70, 127
1, 53971, Note_on_c, 1, 49, 127
1, 54183, Note_off_c, 1, 70, 0
1, 54185, Note_off_c, 1, 49, 0
1, 54214, Note_on_c, 1, 49, 127
1, 54219, Note_on_c, 1, 69, 127
1, 54219, Note_on_c, 1, 77, 127
1, 54331, Note_off_c, 1, 77, 0
1, 54334, Note_on_c, 1, 76, 127
1, 54358, Note_off_c, 1, 69, 0
1, 54424, Note_off_c, 1, 76, 0
1, 54425, Note_off_c, 1, 49, 0
1, 54458, Note_on_c, 1, 49, 127
1, 54459, Note_on_c, 1, 67, 127
1, 54467, Note_on_c, 1, 82, 127
1, 54581, Note_on_c, 1, 81, 127
1, 54598, Note_off_c, 1, 82, 0
1, 54618, Note_off_c, 1, 67, 0
1, 54664, Note_off_c, 1, 81, 0
1, 54670, Note_off_c, 1, 49, 0
1, 54686, Note_on_c, 1, 65, 127
1, 54709, Note_on_c, 1, 81, 127
1, 54713, Note_on_c, 1, 50, 127
1, 54817, Note_on_c, 1, 77, 127
1, 54850, Note_off_c, 1, 81, 0
1, 54868, Note_off_c, 1, 65, 0
1, 54923, Note_off_c, 1, 50, 0
1, 54941, Note_on_c, 1, 67, 127
1, 54941, Note_on_c, 1, 48, 127
1, 54949, Note_on_c, 1, 76, 127
1, 54965, Note_off_c, 1, 77, 0
1, 55065, Note_on_c, 1, 74, 127
1, 55073, Note_off_c, 1, 76, 0
1, 55084, Note_off_c, 1, 67, 0
1, 55155, Note_off_c, 1, 48, 0
1, 55173, Note_on_c, 1, 64, 127
1, 55176, Note_on_c, 1, 46, 127
1, 55181, Note_on_c, 1, 73, 127
1, 55190, Note_off_c, 1, 74, 0
1, 55287, Note_on_c, 1, 62, 127
1, 55295, Note_off_c, 1, 64, 0
1, 55322, Note_off_c, 1, 73, 0
1, 55395, Note_off_c, 1, 62, 0
1, 55407, Note_off_c, 1, 46, 0
1, 55416, Note_on_c, 1, 61, 127
1, 55423, Note_on_c, 1, 45, 127
1, 55428, Note_on_c, 1, 76, 127
1, 55517, Note_off_c, 1, 61, 0
1, 55535, Note_on_c, 1, 62, 127
1, 55540, Note_on_c, 1, 77, 127
1, 55560, Note_off_c, 1, 76, 0
1, 55633, Note_off_c, 1, 62, 0
1, 55646, Note_off_c, 1, 45, 0
1, 55658, Note_on_c, 1, 64, 127
1, 55668, Note_on_c, 1, 79, 127
1, 55679, Note_off_c, 1, 77, 0
1, 55795, Note_off_c, 1, 79, 0
1, 55821, Note_off_c, 1, 64, 0
1, 55897, Note_on_c, 1, 69, 127
1, 55897, Note_on_c, 1, 45, 127
1, 55901, Note_on_c, 1, 77, 127
1, 56013, Note_on_c, 1, 74, 127
1, 56014, Note_off_c, 1, 77, 0
1, 56111, Note_off_c, 1, 74, 0
1, 56124, Note_off_c, 1, 45, 0
1, 56137, Note_on_c, 1, 73, 127
1, 56145, Note_on_c, 1, 55, 127
1, 56250, Note_on_c, 1, 71, 127
1, 56283, Note_off_c, 1, 73, 0
1, 56314, Note_off_c, 1, 69, 0
1, 56343, Note_off_c, 1, 55, 0
1, 56376, Note_on_c, 1, 67, 127
1, 56390, Note_off_c, 1, 71, 0
1, 56490, Note_on_c, 1, 65, 127
1, 56530, Note_off_c, 1, 67, 0
1, 56612, Note_on_c, 1, 64, 127
1, 56624, Note_on_c, 1, 76, 127
1, 56636, Note_off_c, 1, 65, 0
1, 56731, Note_on_c, 1, 62, 127
1, 56739, Note_off_c, 1, 64, 0
1, 56752, Note_off_c, 1, 76, 0
1, 56846, Note_off_c, 1, 62, 0
1, 56854, Note_on_c, 1, 61, 127
1, 56854, Note_on_c, 1, 52, 127
1, 56859, Note_on_c, 1, 79, 127
1, 56986, Note_off_c, 1, 79, 0
1, 56995, Note_off_c, 1, 61, 0
1, 57066, Note_off_c, 1, 52, 0
1, 57215, Note_on_c, 1, 81, 127
1, 57343, Note_on_c, 1, 82, 127
1, 57358, Note_off_c, 1, 81, 0
1, 57467, Note_off_c, 1, 82, 0
1, 57573, Note_on_c, 1, 49, 127
1, 57812, Note_off_c, 1, 49, 0
1, 57812, Note_on_c, 1, 47, 127
1, 58034, Note_off_c, 1, 47, 0
1, 58311, Note_on_c, 1, 50, 127
1, 58409, Note_on_c, 1, 57, 127
1, 58516, Note_off_c, 1, 50, 0
1, 58520, Note_off_c, 1, 57, 0
1, 58780, Note_on_c, 1, 53, 127
1, 58877, Note_on_c, 1, 60, 127
1, 58979, Note_off_c, 1, 60, 0
1, 58996, Note_off_c, 1, 53, 0
1, 59003, Note_on_c, 1, 58, 127
1, 59148, Note_off_c, 1, 58, 0
1, 59976, Note_on_c, 1, 65, 127
1, 59978, Note_on_c, 1, 57, 127
1, 59990, Note_on_c, 1, 81, 127
1, 60088, Note_on_c, 1, 64, 127
1, 60117, Note_off_c, 1, 65, 0
1, 60143, Note_off_c, 1, 81, 0
1, 60173, Note_off_c, 1, 64, 0
1, 60193, Note_off_c, 1, 57, 0
1, 60213, Note_on_c, 1, 62, 127
1, 60224, Note_on_c, 1, 57, 127
1, 60228, Note_on_c, 1, 76, 127
1, 60324, Note_on_c, 1, 61, 127
1, 60345, Note_off_c, 1, 62, 0
1, 60412, Note_off_c, 1, 76, 0
1, 60412, Note_off_c, 1, 61, 0
1, 60440, Note_off_c, 1, 57, 0
1, 60459, Note_on_c, 1, 50, 127
1, 60463, Note_on_c, 1, 62, 127
1, 60468, Note_on_c, 1, 77, 127
1, 60581, Note_on_c, 1, 76, 127
1, 60608, Note_off_c, 1, 77, 0
1, 60679, Note_off_c, 1, 50, 0
1, 60688, Note_on_c, 1, 53, 127
1, 60723, Note_off_c, 1, 76, 0
1, 60819, Note_on_c, 1, 79, 127
1, 60822, Note_off_c, 1, 62, 0
1, 60907, Note_off_c, 1, 53, 0
1, 60935, Note_on_c, 1, 57, 127
1, 60965, Note_off_c, 1, 79, 0
1, 61054, Note_on_c, 1, 59, 127
1, 61144, Note_off_c, 1, 59, 0
1, 61156, Note_off_c, 1, 57, 0
1, 61177, Note_on_c, 1, 54, 127
1, 61178, Note_on_c, 1, 60, 127
1, 61194, Note_on_c, 1, 74, 127
1, 61365, Note_off_c, 1, 60, 0
1, 61641, Note_off_c, 1, 54, 0
1, 62021, Note_off_c, 1, 74, 0
1, 62021, Note_on_c, 1, 72, 127
1, 62139, Note_on_c, 1, 55, 127
1, 62143, Note_on_c, 1, 71, 127
1, 62151, Note_off_c, 1, 72, 0
1, 62274, Note_off_c, 1, 71, 0
1, 62276, Note_off_c, 1, 55, 0
1, 62609, Note_on_c, 1, 47, 127
1, 62725, Note_on_c, 1, 64, 127
1, 62844, Note_off_c, 1, 64, 0
1, 62846, Note_off_c, 1, 47, 0
1, 62854, Note_on_c, 1, 65, 127
1, 63015, Note_off_c, 1, 65, 0
1, 63092, Note_on_c, 1, 48, 127
1, 63299, Note_off_c, 1, 48, 0
1, 63462, Note_on_c, 1, 69, 127
1, 63580, Note_on_c, 1, 67, 127
1, 63591, Note_off_c, 1, 69, 0
1, 63726, Note_off_c, 1, 67, 0
1, 63818, Note_on_c, 1, 52, 127
1, 64028, Note_off_c, 1, 52, 0
1, 64537, Note_on_c, 1, 46, 127
1, 64749, Note_off_c, 1, 46, 0
1, 64787, Note_on_c, 1, 40, 127
1, 64903, Note_on_c, 1, 81, 127
1, 65005, Note_off_c, 1, 40, 0
1, 65017, Note_on_c, 1, 58, 127
1, 65057, Note_off_c, 1, 81, 0
1, 65150, Note_off_c, 1, 58, 0
1, 65498, Note_on_c, 1, 57, 127
1, 65500, Note_on_c, 1, 41, 127
1, 65505, Note_on_c, 1, 72, 127
1, 65611, Note_on_c, 1, 79, 127
1, 65612, Note_off_c, 1, 57, 0
1, 65624, Note_off_c, 1, 72, 0
1, 65695, Note_off_c, 1, 41, 0
1, 65733, Note_on_c, 1, 62, 127
1, 65737, Note_on_c, 1, 77, 127
1, 65737, Note_on_c, 1, 38, 127
1, 65764, Note_off_c, 1, 79, 0
1, 65849, Note_off_c, 1, 62, 0
1, 65859, Note_on_c, 1, 76, 127
1, 65864, Note_off_c, 1, 77, 0
1, 65950, Note_off_c, 1, 38, 0
1, 65978, Note_on_c, 1, 74, 127
1, 65981, Note_on_c, 1, 59, 127
1, 65984, Note_on_c, 1, 43, 127
1, 65991, Note_off_c, 1, 76, 0
1, 66096, Note_off_c, 1, 59, 0
1, 66117, Note_off_c, 1, 74, 0
1, 66146, Note_off_c, 1, 43, 0
1, 66230, Note_on_c, 1, 60, 127
1, 66238, Note_on_c, 1, 36, 127
1, 66577, Note_off_c, 1, 60, 0
1, 66704, Note_off_c, 1, 36, 0
1, 66707, Note_on_c, 1, 71, 127
1, 66843, Note_off_c, 1, 71, 0
1, 66931, Note_on_c, 1, 43, 127
1, 66942, Note_on_c, 1, 59, 127
1, 66942, Note_on_c, 1, 74, 127
1, 67063, Note_on_c, 1, 77, 127
1, 67077, Note_off_c, 1, 74, 0
1, 67131, Note_off_c, 1, 59, 0
1, 67151, Note_off_c, 1, 43, 0
1, 67191, Note_on_c, 1, 76, 127
1, 67192, Note_on_c, 1, 60, 127
1, 67213, Note_off_c, 1, 77, 0
1, 67328, Note_off_c, 1, 76, 0
1, 67338, Note_off_c, 1, 60, 0
1, 67420, Note_on_c, 1, 57, 127
1, 67431, Note_on_c, 1, 72, 127
1, 67530, Note_off_c, 1, 57, 0
1, 67531, Note_on_c, 1, 55, 127
1, 67540, Note_on_c, 1, 71, 127
1, 67548, Note_off_c, 1, 72, 0
1, 67635, Note_off_c, 1, 55, 0
1, 67650, Note_on_c, 1, 64, 127
1, 67659, Note_on_c, 1, 73, 127
1, 67667, Note_off_c, 1, 71, 0
1, 67736, Note_off_c, 1, 64, 0
1, 67763, Note_on_c, 1, 69, 127
1, 67767, Note_on_c, 1, 65, 127
1, 67815, Note_off_c, 1, 73, 0
1, 67856, Note_off_c, 1, 65, 0
1, 67893, Note_on_c, 1, 67, 127
1, 67918, Note_off_c, 1, 69, 0
1, 67969, Note_off_c, 1, 67, 0
1, 68134, Note_on_c, 1, 70, 127
1, 68371, Note_on_c, 1, 49, 127
1, 68571, Note_off_c, 1, 70, 0
1, 68588, Note_off_c, 1, 49, 0
1, 68610, Note_on_c, 1, 77, 127
1, 68618, Note_on_c, 1, 49, 127
1, 68621, Note_on_c, 1, 69, 127
1, 68711, Note_off_c, 1, 77, 0
1, 68723, Note_on_c, 1, 76, 127
1, 68766, Note_off_c, 1, 69, 0
1, 68816, Note_off_c, 1, 76, 0
1, 68842, Note_off_c, 1, 49, 0
1, 68859, Note_on_c, 1, 82, 127
1, 68864, Note_on_c, 1, 67, 127
1, 68864, Note_on_c, 1, 49, 127
1, 68975, Note_on_c, 1, 81, 127
1, 68984, Note_off_c, 1, 82, 0
1, 69006, Note_off_c, 1, 67, 0
1, 69056, Note_off_c, 1, 81, 0
1, 69086, Note_off_c, 1, 49, 0
1, 69102, Note_on_c, 1, 65, 127
1, 69102, Note_on_c, 1, 81, 127
1, 69120, Note_on_c, 1, 50, 127
1, 69214, Note_on_c, 1, 77, 127
1, 69241, Note_off_c, 1, 81, 0
1, 69293, Note_off_c, 1, 65, 0
1, 69312, Note_off_c, 1, 50, 0
1, 69340, Note_on_c, 1, 48, 127
1, 69345, Note_on_c, 1, 67, 127
1, 69351, Note_on_c, 1, 76, 127
1, 69355, Note_off_c, 1, 77, 0
1, 69465, Note_on_c, 1, 74, 127
1, 69466, Note_off_c, 1, 76, 0
1, 69490, Note_off_c, 1, 67, 0
1, 69568, Note_off_c, 1, 48, 0
1, 69573, Note_on_c, 1, 64, 127
1, 69582, Note_on_c, 1, 73, 127
1, 69585, Note_on_c, 1, 46, 127
1, 69590, Note_off_c, 1, 74, 0
1, 69691, Note_on_c, 1, 62, 127
1, 69695, Note_off_c, 1, 64, 0
1, 69721, Note_off_c, 1, 73, 0
1, 69796, Note_off_c, 1, 62, 0
1, 69806, Note_off_c, 1, 46, 0
1, 69813, Note_on_c, 1, 61, 127
1, 69824, Note_on_c, 1, 45, 127
1, 69835, Note_on_c, 1, 76, 127
1, 69919, Note_off_c, 1, 61, 0
1, 69935, Note_on_c, 1, 62, 127
1, 69941, Note_on_c, 1, 77, 127
1, 69959, Note_off_c, 1, 76, 0
1, 70025, Note_off_c, 1, 62, 0
1, 70033, Note_off_c, 1, 45, 0
1, 70059, Note_on_c, 1, 64, 127
1, 70070, Note_on_c, 1, 79, 127
1, 70088, Note_off_c, 1, 77, 0
1, 70192, Note_off_c, 1, 64, 0
1, 70213, Note_off_c, 1, 79, 0
1, 70295, Note_on_c, 1, 69, 127
1, 70295, Note_on_c, 1, 45, 127
1, 70304, Note_on_c, 1, 77, 127
1, 70422, Note_off_c, 1, 77, 0
1, 70423, Note_on_c, 1, 74, 127
1, 70510, Note_off_c, 1, 74, 0
1, 70521, Note_off_c, 1, 45, 0
1, 70539, Note_on_c, 1, 55, 127
1, 70547, Note_on_c, 1, 73, 127
1, 70658, Note_on_c, 1, 71, 127
1, 70685, Note_off_c, 1, 73, 0
1, 70707, Note_off_c, 1, 69, 0
1, 70732, Note_off_c, 1, 55, 0
1, 70778, Note_on_c, 1, 67, 127
1, 70798, Note_off_c, 1, 71, 0
1, 70889, Note_on_c, 1, 65, 127
1, 70924, Note_off_c, 1, 67, 0
1, 71008, Note_on_c, 1, 64, 127
1, 71025, Note_on_c, 1, 76, 127
1, 71038, Note_off_c, 1, 65, 0
1, 71119, Note_on_c, 1, 62, 127
1, 71139, Note_off_c, 1, 64, 0
1, 71156, Note_off_c, 1, 76, 0
1, 71232, Note_off_c, 1, 62, 0
1, 71250, Note_on_c, 1, 61, 127
1, 71253, Note_on_c, 1, 52, 127
1, 71256, Note_on_c, 1, 79, 127
1, 71364, Note_on_c, 1, 62, 127
1, 71364, Note_on_c, 1, 77, 127
1, 71386, Note_off_c, 1, 61, 0
1, 71395, Note_off_c, 1, 79, 0
1, 71478, Note_off_c, 1, 52, 0
1, 71482, Note_on_c, 1, 64, 127
1, 71512, Note_off_c, 1, 62, 0
1, 71518, Note_off_c, 1, 77, 0
1, 71603, Note_on_c, 1, 65, 127
1, 71608, Note_on_c, 1, 81, 127
1, 71643, Note_off_c, 1, 64, 0
1, 71731, Note_off_c, 1, 65, 0
1, 71733, Note_on_c, 1, 82, 127
1, 71735, Note_on_c, 1, 67, 127
1, 71756, Note_off_c, 1, 81, 0
1, 71886, Note_off_c, 1, 82, 0
1, 71977, Note_on_c, 1, 49, 127
1, 72178, Note_off_c, 1, 67, 0
1, 72205, Note_off_c, 1, 49, 0
1, 72219, Note_on_c, 1, 47, 127
1, 72451, Note_on_c, 1, 45, 127
1, 72456, Note_off_c, 1, 47, 0
1, 72579, Note_on_c, 1, 76, 127
1, 72654, Note_off_c, 1, 45, 0
1, 72683, Note_off_c, 1, 76, 0
1, 72688, Note_on_c, 1, 62, 127
1, 72695, Note_on_c, 1, 50, 127
1, 72704, Note_on_c, 1, 77, 127
1, 72791, Note_off_c, 1, 62, 0
1, 72806, Note_on_c, 1, 57, 127
1, 72898, Note_off_c, 1, 57, 0
1, 72915, Note_off_c, 1, 50, 0
1, 72929, Note_on_c, 1, 65, 127
1, 72938, Note_on_c, 1, 52, 127
1, 73045, Note_on_c, 1, 64, 127
1, 73088, Note_off_c, 1, 65, 0
1, 73175, Note_on_c, 1, 53, 127
1, 73181, Note_off_c, 1, 52, 0
1, 73181, Note_off_c, 1, 64, 0
1, 73282, Note_on_c, 1, 60, 127
1, 73377, Note_off_c, 1, 60, 0
1, 73401, Note_on_c, 1, 58, 127
1, 73403, Note_off_c, 1, 53, 0
1, 73408, Note_on_c, 1, 55, 127
1, 73502, Note_off_c, 1, 77, 0
1, 73556, Note_off_c, 1, 58, 0
1, 73630, Note_off_c, 1, 55, 0
1, 73649, Note_on_c, 1, 67, 127
1, 73655, Note_on_c, 1, 76, 127
1, 73751, Note_off_c, 1, 67, 0
1, 73769, Note_on_c, 1, 73, 127
1, 73780, Note_off_c, 1, 76, 0
1, 73898, Note_on_c, 1, 74, 127
1, 73915, Note_off_c, 1, 73, 0
1, 74014, Note_off_c, 1, 74, 0
1, 74143, Note_on_c, 1, 69, 127
1, 74303, Note_off_c, 1, 69, 0
1, 74378, Note_on_c, 1, 65, 127
1, 74383, Note_on_c, 1, 57, 127
1, 74396, Note_on_c, 1, 81, 127
1, 74492, Note_on_c, 1, 64, 127
1, 74515, Note_off_c, 1, 65, 0
1, 74534, Note_off_c, 1, 81, 0
1, 74575, Note_off_c, 1, 64, 0
1, 74594, Note_off_c, 1, 57, 0
1, 74616, Note_on_c, 1, 77, 127
1, 74618, Note_on_c, 1, 57, 127
1, 74620, Note_on_c, 1, 62, 127
1, 74664, Note_on_c, 1, 76, 127
1, 74668, Note_off_c, 1, 77, 0
1, 74705, Note_off_c, 1, 76, 0
1, 74729, Note_on_c, 1, 61, 127
1, 74745, Note_off_c, 1, 62, 0
1, 74824, Note_off_c, 1, 61, 0
1, 74850, Note_off_c, 1, 57, 0
1, 74858, Note_on_c, 1, 50, 127
1, 74865, Note_on_c, 1, 62, 127
1, 74865, Note_on_c, 1, 77, 127
1, 74981, Note_on_c, 1, 76, 127
1, 75008, Note_off_c, 1, 77, 0
1, 75076, Note_off_c, 1, 50, 0
1, 75099, Note_on_c, 1, 53, 127
1, 75126, Note_off_c, 1, 76, 0
1, 75221, Note_on_c, 1, 79, 127
1, 75249, Note_off_c, 1, 62, 0
1, 75305, Note_off_c, 1, 53, 0
1, 75332, Note_on_c, 1, 57, 127
1, 75372, Note_off_c, 1, 79, 0
1, 75452, Note_on_c, 1, 59, 127
1, 75530, Note_off_c, 1, 59, 0
1, 75540, Note_off_c, 1, 57, 0
1, 75573, Note_on_c, 1, 60, 127
1, 75579, Note_on_c, 1, 54, 127
1, 75588, Note_on_c, 1, 74, 127
1, 75776, Note_off_c, 1, 60, 0
1, 75796, Note_off_c, 1, 54, 0
1, 75822, Note_on_c, 1, 62, 127
1, 75966, Note_off_c, 1, 62, 0
1, 76058, Note_on_c, 1, 59, 127
1, 76171, Note_on_c, 1, 57, 127
1, 76182, Note_off_c, 1, 59, 0
1, 76281, Note_off_c, 1, 57, 0
1, 76300, Note_on_c, 1, 53, 127
1, 76420, Note_off_c, 1, 74, 0
1, 76423, Note_on_c, 1, 72, 127
1, 76503, Note_off_c, 1, 53, 0
1, 76536, Note_on_c, 1, 55, 127
1, 76539, Note_on_c, 1, 71, 127
1, 76540, Note_off_c, 1, 72, 0
1, 76678, Note_off_c, 1, 71, 0
1, 76687, Note_off_c, 1, 55, 0
1, 76901, Note_on_c, 1, 76, 127
1, 76997, Note_off_c, 1, 76, 0
1, 77013, Note_on_c, 1, 62, 127
1, 77021, Note_on_c, 1, 77, 127
1, 77023, Note_on_c, 1, 47, 127
1, 77128, Note_on_c, 1, 64, 127
1, 77138, Note_on_c, 1, 76, 127
1, 77142, Note_off_c, 1, 62, 0
1, 77161, Note_off_c, 1, 77, 0
1, 77236, Note_off_c, 1, 47, 0
1, 77254, Note_off_c, 1, 64, 0
1, 77256, Note_on_c, 1, 65, 127
1, 77265, Note_on_c, 1, 74, 127
1, 77281, Note_off_c, 1, 76, 0
1, 77397, Note_off_c, 1, 74, 0
1, 77411, Note_off_c, 1, 65, 0
1, 77492, Note_on_c, 1, 48, 127
1, 77617, Note_on_c, 1, 72, 127
1, 77718, Note_off_c, 1, 48, 0
1, 77733, Note_off_c, 1, 72, 0
1, 77733, Note_on_c, 1, 55, 127
1, 77752, Note_on_c, 1, 71, 127
1, 77856, Note_on_c, 1, 60, 127
1, 77871, Note_on_c, 1, 69, 127
1, 77892, Note_off_c, 1, 71, 0
1, 77975, Note_off_c, 1, 55, 0
1, 77976, Note_off_c, 1, 60, 0
1, 77978, Note_on_c, 1, 67, 127
1, 77979, Note_on_c, 1, 59, 127
1, 77983, Note_on_c, 1, 53, 127
1, 77997, Note_off_c, 1, 69, 0
1, 78098, Note_off_c, 1, 59, 0
1, 78131, Note_off_c, 1, 67, 0
1, 78206, Note_off_c, 1, 53, 0
1, 78218, Note_on_c, 1, 52, 127
1, 78437, Note_off_c, 1, 52, 0
1, 78455, Note_on_c, 1, 50, 127
1, 78677, Note_off_c, 1, 50, 0
1, 78935, Note_on_c, 1, 46, 127
1, 79155, Note_off_c, 1, 46, 0
1, 79180, Note_on_c, 1, 79, 127
1, 79187, Note_on_c, 1, 40, 127
1, 79291, Note_on_c, 1, 81, 127
1, 79317, Note_off_c, 1, 79, 0
1, 79405, Note_off_c, 1, 40, 0
1, 79428, Note_on_c, 1, 58, 127
1, 79455, Note_off_c, 1, 81, 0
1, 79535, Note_on_c, 1, 57, 127
1, 79555, Note_off_c, 1, 58, 0
1, 79675, Note_off_c, 1, 57, 0
1, 79894, Note_on_c, 1, 41, 127
1, 80100, Note_off_c, 1, 41, 0
1, 80133, Note_on_c, 1, 38, 127
1, 80348, Note_off_c, 1, 38, 0
1, 80383, Note_on_c, 1, 43, 127
1, 80542, Note_off_c, 1, 43, 0
1, 80622, Note_on_c, 1, 36, 127
1, 81113, Note_off_c, 1, 36, 0
1, 81340, Note_on_c, 1, 60, 127
1, 81343, Note_on_c, 1, 72, 127
1, 81349, Note_on_c, 1, 64, 127
1, 81353, Note_on_c, 1, 55, 127
1, 81456, Note_off_c, 1, 60, 0
1, 81500, Note_off_c, 1, 64, 0
1, 81506, Note_off_c, 1, 72, 0
1, 81576, Note_on_c, 1, 48, 127
1, 81581, Note_on_c, 1, 76, 127
1, 81594, Note_on_c, 1, 67, 127
1, 81691, Note_on_c, 1, 74, 127
1, 81700, Note_off_c, 1, 48, 0
1, 81708, Note_off_c, 1, 55, 0
1, 81710, Note_on_c, 1, 65, 127
1, 81732, Note_off_c, 1, 76, 0
1, 81742, Note_off_c, 1, 67, 0
1, 81816, Note_on_c, 1, 59, 127
1, 81843, Note_off_c, 1, 65, 0
1, 81846, Note_off_c, 1, 74, 0
1, 81934, Note_off_c, 1, 59, 0
1, 81937, Note_on_c, 1, 62, 127
1, 81942, Note_on_c, 1, 71, 127
1, 82020, Note_off_c, 1, 62, 0
1, 82032, Note_off_c, 1, 71, 0
1, 82068, Note_on_c, 1, 64, 127
1, 82069, Note_on_c, 1, 57, 127
1, 82071, Note_on_c, 1, 60, 127
1, 82071, Note_on_c, 1, 72, 127
1, 82149, Note_off_c, 1, 64, 0
1, 82156, Note_off_c, 1, 72, 0
1, 82180, Note_on_c, 1, 65, 127
1, 82183, Note_on_c, 1, 74, 127
1, 82187, Note_off_c, 1, 57, 0
1, 82264, Note_off_c, 1, 74, 0
1, 82266, Note_off_c, 1, 65, 0
1, 82302, Note_on_c, 1, 76, 127
1, 82303, Note_on_c, 1, 67, 127
1, 82307, Note_on_c, 1, 55, 127
1, 82367, Note_off_c, 1, 67, 0
1, 82372, Note_off_c, 1, 76, 0
1, 82416, Note_off_c, 1, 55, 0
1, 82416, Note_on_c, 1, 77, 127
1, 82417, Note_off_c, 1, 60, 0
1, 82417, Note_on_c, 1, 69, 127
1, 82483, Note_off_c, 1, 69, 0
1, 82489, Note_off_c, 1, 77, 0
1, 82540, Note_on_c, 1, 71, 127
1, 82546, Note_on_c, 1, 62, 127
1, 82546, Note_on_c, 1, 79, 127
1, 82546, Note_on_c, 1, 53, 127
1, 82661, Note_off_c, 1, 53, 0
1, 82669, Note_off_c, 1, 62, 0
1, 82684, Note_off_c, 1, 71, 0
1, 82791, Note_on_c, 1, 64, 127
1, 82791, Note_on_c, 1, 52, 127
1, 82798, Note_on_c, 1, 72, 127
1, 82895, Note_off_c, 1, 64, 0
1, 82909, Note_off_c, 1, 52, 0
1, 82971, Note_off_c, 1, 79, 0
1, 83026, Note_on_c, 1, 60, 127
1, 83036, Note_on_c, 1, 81, 127
1, 83146, Note_off_c, 1, 60, 0
1, 83154, Note_off_c, 1, 72, 0
1, 83163, Note_off_c, 1, 81, 0
1, 83264, Note_on_c, 1, 50, 127
1, 83268, Note_on_c, 1, 77, 127
1, 83271, Note_on_c, 1, 72, 127
1, 83272, Note_on_c, 1, 65, 127
1, 83389, Note_off_c, 1, 50, 0
1, 83393, Note_off_c, 1, 65, 0
1, 83397, Note_off_c, 1, 77, 0
1, 83397, Note_off_c, 1, 72, 0
1, 83500, Note_on_c, 1, 74, 127
1, 83507, Note_on_c, 1, 55, 127
1, 83510, Note_on_c, 1, 71, 127
1, 83515, Note_on_c, 1, 67, 127
1, 83627, Note_off_c, 1, 55, 0
1, 83642, Note_off_c, 1, 67, 0
1, 83656, Note_off_c, 1, 71, 0
1, 83680, Note_off_c, 1, 74, 0
1, 83744, Note_on_c, 1, 69, 127
1, 83746, Note_on_c, 1, 72, 127
1, 83754, Note_on_c, 1, 43, 127
1, 83855, Note_off_c, 1, 43, 0
1, 83855, Note_on_c, 1, 71, 127
1, 83865, Note_off_c, 1, 69, 0
1, 83903, Note_off_c, 1, 72, 0
1, 83983, Note_on_c, 1, 53, 127
1, 83989, Note_on_c, 1, 74, 127
1, 84086, Note_off_c, 1, 53, 0
1, 84089, Note_on_c, 1, 67, 127
1, 84091, Note_off_c, 1, 74, 0
1, 84099, Note_off_c, 1, 71, 0
1, 84179, Note_off_c, 1, 67, 0
1, 84227, Note_on_c, 1, 67, 127
1, 84227, Note_on_c, 1, 72, 127
1, 84231, Note_on_c, 1, 52, 127
1, 84338, Note_off_c, 1, 52, 0
1, 84375, Note_off_c, 1, 72, 0
1, 84462, Note_on_c, 1, 60, 127
1, 84470, Note_on_c, 1, 76, 127
1, 84579, Note_on_c, 1, 74, 127
1, 84587, Note_off_c, 1, 60, 0
1, 84604, Note_off_c, 1, 67, 0
1, 84619, Note_off_c, 1, 76, 0
1, 84706, Note_on_c, 1, 59, 127
1, 84714, Note_on_c, 1, 62, 127
1, 84734, Note_off_c, 1, 74, 0
1, 84806, Note_off_c, 1, 62, 0
1, 84818, Note_on_c, 1, 71, 127
1, 84827, Note_off_c, 1, 59, 0
1, 84922, Note_off_c, 1, 71, 0
1, 84942, Note_on_c, 1, 64, 127
1, 84942, Note_on_c, 1, 57, 127
1, 84953, Note_on_c, 1, 69, 127
1, 84954, Note_on_c, 1, 74, 127
1, 85059, Note_off_c, 1, 57, 0
1, 85067, Note_on_c, 1, 72, 127
1, 85104, Note_off_c, 1, 74, 0
1, 85181, Note_on_c, 1, 55, 127
1, 85187, Note_on_c, 1, 71, 127
1, 85218, Note_off_c, 1, 72, 0
1, 85293, Note_off_c, 1, 55, 0
1, 85308, Note_off_c, 1, 64, 0
1, 85322, Note_off_c, 1, 71, 0
1, 85391, Note_off_c, 1, 69, 0
1, 85420, Note_on_c, 1, 62, 127
1, 85420, Note_on_c, 1, 54, 127
1, 85427, Note_on_c, 1, 69, 127
1, 85435, Note_on_c, 1, 74, 127
1, 85532, Note_off_c, 1, 62, 0
1, 85532, Note_off_c, 1, 54, 0
1, 85583, Note_off_c, 1, 69, 0
1, 85664, Note_on_c, 1, 55, 127
1, 85672, Note_on_c, 1, 71, 127
1, 85673, Note_on_c, 1, 67, 127
1, 85770, Note_off_c, 1, 55, 0
1, 85780, Note_off_c, 1, 67, 0
1, 85781, Note_off_c, 1, 71, 0
1, 85854, Note_off_c, 1, 74, 0
1, 85910, Note_on_c, 1, 62, 127
1, 85910, Note_on_c, 1, 72, 127
1, 85914, Note_on_c, 1, 67, 127
1, 85915, Note_on_c, 1, 47, 127
1, 86020, Note_off_c, 1, 67, 0
1, 86021, Note_off_c, 1, 62, 0
1, 86023, Note_off_c, 1, 72, 0
1, 86027, Note_on_c, 1, 71, 127
1, 86034, Note_off_c, 1, 47, 0
1, 86106, Note_off_c, 1, 71, 0
1, 86147, Note_on_c, 1, 69, 127
1, 86152, Note_on_c, 1, 66, 127
1, 86158, Note_on_c, 1, 50, 127
1, 86160, Note_on_c, 1, 60, 127
1, 86235, Note_off_c, 1, 69, 0
1, 86251, Note_off_c, 1, 66, 0
1, 86258, Note_off_c, 1, 60, 0
1, 86261, Note_off_c, 1, 50, 0
1, 86265, Note_on_c, 1, 71, 127
1, 86350, Note_off_c, 1, 71, 0
1, 86396, Note_on_c, 1, 62, 127
1, 86396, Note_on_c, 1, 59, 127
1, 86399, Note_on_c, 1, 43, 127
1, 86401, Note_on_c, 1, 67, 127
1, 86563, Note_off_c, 1, 43, 0
1, 86629, Note_on_c, 1, 55, 127
1, 86719, Note_off_c, 1, 55, 0
1, 86737, Note_on_c, 1, 53, 127
1, 86744, Note_off_c, 1, 62, 0
1, 86756, Note_off_c, 1, 67, 0
1, 86757, Note_off_c, 1, 59, 0
1, 86815, Note_off_c, 1, 53, 0
1, 86851, Note_on_c, 1, 52, 127
1, 86867, Note_on_c, 1, 60, 127
1, 86867, Note_on_c, 1, 67, 127
1, 86876, Note_on_c, 1, 64, 127
1, 86942, Note_off_c, 1, 52, 0
1, 86963, Note_on_c, 1, 50, 127
1, 86978, Note_off_c, 1, 60, 0
1, 86979, Note_off_c, 1, 64, 0
1, 87010, Note_off_c, 1, 67, 0
1, 87041, Note_off_c, 1, 50, 0
1, 87099, Note_on_c, 1, 48, 127
1, 87112, Note_on_c, 1, 72, 127
1, 87115, Note_on_c, 1, 55, 127
1, 87122, Note_on_c, 1, 64, 127
1, 87219, Note_off_c, 1, 48, 0
1, 87265, Note_off_c, 1, 72, 0
1, 87292, Note_off_c, 1, 64, 0
1, 87346, Note_on_c, 1, 76, 127
1, 87354, Note_on_c, 1, 60, 127
1, 87365, Note_on_c, 1, 67, 127
1, 87454, Note_off_c, 1, 60, 0
1, 87461, Note_on_c, 1, 74, 127
1, 87469, Note_on_c, 1, 65, 127
1, 87495, Note_off_c, 1, 76, 0
1, 87496, Note_off_c, 1, 55, 0
1, 87505, Note_off_c, 1, 67, 0
1, 87586, Note_on_c, 1, 59, 127
1, 87596, Note_off_c, 1, 65, 0
1, 87611, Note_off_c, 1, 74, 0
1, 87697, Note_on_c, 1, 71, 127
1, 87703, Note_on_c, 1, 62, 127
1, 87712, Note_off_c, 1, 59, 0
1, 87782, Note_off_c, 1, 62, 0
1, 87793, Note_off_c, 1, 71, 0
1, 87830, Note_on_c, 1, 57, 127
1, 87833, Note_on_c, 1, 72, 127
1, 87836, Note_on_c, 1, 60, 127
1, 87837, Note_on_c, 1, 64, 127
1, 87920, Note_off_c, 1, 64, 0
1, 87921, Note_off_c, 1, 72, 0
1, 87949, Note_on_c, 1, 74, 127
1, 87949, Note_on_c, 1, 65, 127
1, 87958, Note_off_c, 1, 57, 0
1, 88024, Note_off_c, 1, 74, 0
1, 88030, Note_off_c, 1, 65, 0
1, 88064, Note_on_c, 1, 67, 127
1, 88064, Note_on_c, 1, 55, 127
1, 88064, Note_on_c, 1, 76, 127
1, 88132, Note_off_c, 1, 67, 0
1, 88138, Note_off_c, 1, 76, 0
1, 88177, Note_on_c, 1, 69, 127
1, 88183, Note_off_c, 1, 55, 0
1, 88183, Note_on_c, 1, 77, 127
1, 88204, Note_off_c, 1, 60, 0
1, 88245, Note_off_c, 1, 69, 0
1, 88254, Note_off_c, 1, 77, 0
1, 88298, Note_on_c, 1, 71, 127
1, 88299, Note_on_c, 1, 53, 127
1, 88307, Note_on_c, 1, 62, 127
1, 88310, Note_on_c, 1, 79, 127
1, 88417, Note_off_c, 1, 71, 0
1, 88418, Note_off_c, 1, 53, 0
1, 88436, Note_off_c, 1, 62, 0
1, 88538, Note_on_c, 1, 72, 127
1, 88538, Note_on_c, 1, 52, 127
1, 88554, Note_on_c, 1, 64, 127
1, 88666, Note_off_c, 1, 64, 0
1, 88669, Note_off_c, 1, 52, 0
1, 88716, Note_off_c, 1, 79, 0
1, 88787, Note_on_c, 1, 81, 127
1, 88795, Note_on_c, 1, 60, 127
1, 88897, Note_off_c, 1, 60, 0
1, 88910, Note_off_c, 1, 81, 0
1, 88921, Note_off_c, 1, 72, 0
1, 89022, Note_on_c, 1, 50, 127
1, 89028, Note_on_c, 1, 72, 127
1, 89030, Note_on_c, 1, 65, 127
1, 89030, Note_on_c, 1, 77, 127
1, 89128, Note_off_c, 1, 72, 0
1, 89138, Note_off_c, 1, 50, 0
1, 89158, Note_off_c, 1, 65, 0
1, 89187, Note_off_c, 1, 77, 0
1, 89262, Note_on_c, 1, 71, 127
1, 89265, Note_on_c, 1, 55, 127
1, 89269, Note_on_c, 1, 67, 127
1, 89274, Note_on_c, 1, 76, 127
1, 89312, Note_on_c, 1, 74, 127
1, 89334, Note_off_c, 1, 76, 0
1, 89372, Note_off_c, 1, 74, 0
1, 89385, Note_off_c, 1, 55, 0
1, 89401, Note_off_c, 1, 67, 0
1, 89405, Note_off_c, 1, 71, 0
1, 89502, Note_on_c, 1, 72, 127
1, 89505, Note_on_c, 1, 69, 127
1, 89508, Note_on_c, 1, 43, 127
1, 89616, Note_off_c, 1, 43, 0
1, 89628, Note_off_c, 1, 69, 0
1, 89661, Note_off_c, 1, 72, 0
1, 89740, Note_on_c, 1, 53, 127
1, 89858, Note_off_c, 1, 53, 0
1, 89985, Note_on_c, 1, 67, 127
1, 89987, Note_on_c, 1, 52, 127
1, 89993, Note_on_c, 1, 72, 127
1, 90117, Note_off_c, 1, 52, 0
1, 90151, Note_off_c, 1, 72, 0
1, 90230, Note_on_c, 1, 76, 127
1, 90230, Note_on_c, 1, 60, 127
1, 90336, Note_off_c, 1, 60, 0
1, 90341, Note_on_c, 1, 74, 127
1, 90371, Note_off_c, 1, 76, 0
1, 90373, Note_off_c, 1, 67, 0
1, 90462, Note_on_c, 1, 59, 127
1, 90481, Note_on_c, 1, 62, 127
1, 90491, Note_off_c, 1, 74, 0
1, 90574, Note_on_c, 1, 71, 127
1, 90580, Note_off_c, 1, 62, 0
1, 90601, Note_off_c, 1, 59, 0
1, 90668, Note_off_c, 1, 71, 0
1, 90711, Note_on_c, 1, 74, 127
1, 90715, Note_on_c, 1, 57, 127
1, 90718, Note_on_c, 1, 69, 127
1, 90721, Note_on_c, 1, 64, 127
1, 90822, Note_on_c, 1, 72, 127
1, 90831, Note_off_c, 1, 57, 0
1, 90865, Note_off_c, 1, 74, 0
1, 90938, Note_on_c, 1, 55, 127
1, 90949, Note_on_c, 1, 71, 127
1, 90980, Note_off_c, 1, 72, 0
1, 91072, Note_off_c, 1, 55, 0
1, 91078, Note_off_c, 1, 71, 0
1, 91095, Note_off_c, 1, 64, 0
1, 91140, Note_off_c, 1, 69, 0
1, 91181, Note_on_c, 1, 54, 127
1, 91187, Note_on_c, 1, 62, 127
1, 91198, Note_on_c, 1, 69, 127
1, 91199, Note_on_c, 1, 74, 127
1, 91298, Note_off_c, 1, 54, 0
1, 91301, Note_off_c, 1, 62, 0
1, 91332, Note_off_c, 1, 69, 0
1, 91426, Note_on_c, 1, 55, 127
1, 91437, Note_on_c, 1, 67, 127
1, 91440, Note_on_c, 1, 71, 127
1, 91540, Note_off_c, 1, 55, 0
1, 91542, Note_off_c, 1, 67, 0
1, 91565, Note_off_c, 1, 71, 0
1, 91633, Note_off_c, 1, 74, 0
1, 91662, Note_on_c, 1, 47, 127
1, 91671, Note_on_c, 1, 67, 127
1, 91672, Note_on_c, 1, 62, 127
1, 91678, Note_on_c, 1, 72, 127
1, 91769, Note_off_c, 1, 72, 0
1, 91776, Note_off_c, 1, 47, 0
1, 91785, Note_off_c, 1, 62, 0
1, 91788, Note_off_c, 1, 67, 0
1, 91788, Note_on_c, 1, 71, 127
1, 91868, Note_off_c, 1, 71, 0
1, 91908, Note_on_c, 1, 69, 127
1, 91913, Note_on_c, 1, 66, 127
1, 91913, Note_on_c, 1, 50, 127
1, 91917, Note_on_c, 1, 60, 127
1, 92000, Note_off_c, 1, 50, 0
1, 92003, Note_off_c, 1, 69, 0
1, 92020, Note_off_c, 1, 66, 0
1, 92024, Note_off_c, 1, 60, 0
1, 92024, Note_on_c, 1, 71, 127
1, 92113, Note_off_c, 1, 71, 0
1, 92154, Note_on_c, 1, 62, 127
1, 92160, Note_on_c, 1, 59, 127
1, 92160, Note_on_c, 1, 67, 127
1, 92160, Note_on_c, 1, 43, 127
1, 92446, Note_off_c, 1, 59, 0
1, 92470, Note_off_c, 1, 62, 0
1, 92474, Note_off_c, 1, 43, 0
1, 92491, Note_off_c, 1, 67, 0
1, 92629, Note_on_c, 1, 71, 127
1, 92639, Note_on_c, 1, 67, 127
1, 92639, Note_on_c, 1, 74, 127
1, 92645, Note_on_c, 1, 43, 127
1, 92721, Note_off_c, 1, 71, 0
1, 92746, Note_off_c, 1, 67, 0
1, 92757, Note_off_c, 1, 74, 0
1, 92760, Note_off_c, 1, 43, 0
1, 92870, Note_on_c, 1, 71, 127
1, 92870, Note_on_c, 1, 67, 127
1, 92874, Note_on_c, 1, 62, 127
1, 92877, Note_on_c, 1, 55, 127
1, 92993, Note_off_c, 1, 55, 0
1, 93061, Note_off_c, 1, 71, 0
1, 93107, Note_on_c, 1, 72, 127
1, 93115, Note_on_c, 1, 57, 127
1, 93201, Note_off_c, 1, 62, 0
1, 93219, Note_off_c, 1, 67, 0
1, 93236, Note_off_c, 1, 57, 0
1, 93250, Note_off_c, 1, 72, 0
1, 93334, Note_on_c, 1, 69, 127
1, 93344, Note_on_c, 1, 59, 127
1, 93457, Note_off_c, 1, 69, 0
1, 93458, Note_off_c, 1, 59, 0
1, 93561, Note_on_c, 1, 67, 127
1, 93583, Note_on_c, 1, 60, 127
1, 93590, Note_on_c, 1, 76, 127
1, 93695, Note_on_c, 1, 77, 127
1, 93702, Note_off_c, 1, 67, 0
1, 93715, Note_off_c, 1, 60, 0
1, 93723, Note_off_c, 1, 76, 0
1, 93800, Note_on_c, 1, 79, 127
1, 93817, Note_on_c, 1, 72, 127
1, 93822, Note_on_c, 1, 48, 127
1, 93826, Note_off_c, 1, 77, 0
1, 93919, Note_on_c, 1, 81, 127
1, 93926, Note_off_c, 1, 48, 0
1, 93938, Note_off_c, 1, 79, 0
1, 93941, Note_off_c, 1, 72, 0
1, 94032, Note_off_c, 1, 81, 0
1, 94044, Note_on_c, 1, 74, 127
1, 94053, Note_on_c, 1, 65, 127
1, 94060, Note_on_c, 1, 82, 127
1, 94060, Note_on_c, 1, 50, 127
1, 94167, Note_off_c, 1, 65, 0
1, 94168, Note_off_c, 1, 74, 0
1, 94185, Note_off_c, 1, 50, 0
1, 94296, Note_on_c, 1, 52, 127
1, 94299, Note_on_c, 1, 73, 127
1, 94299, Note_on_c, 1, 64, 127
1, 94406, Note_off_c, 1, 64, 0
1, 94408, Note_off_c, 1, 52, 0
1, 94416, Note_off_c, 1, 73, 0
1, 94503, Note_off_c, 1, 82, 0
1, 94535, Note_on_c, 1, 49, 127
1, 94544, Note_on_c, 1, 57, 127
1, 94546, Note_on_c, 1, 76, 127
1, 94548, Note_on_c, 1, 81, 127
1, 94638, Note_off_c, 1, 76, 0
1, 94639, Note_off_c, 1, 49, 0
1, 94650, Note_off_c, 1, 57, 0
1, 94674, Note_off_c, 1, 81, 0
1, 94782, Note_on_c, 1, 79, 127
1, 94782, Note_on_c, 1, 69, 127
1, 94789, Note_on_c, 1, 45, 127
1, 94790, Note_on_c, 1, 73, 127
1, 94880, Note_off_c, 1, 73, 0
1, 94893, Note_off_c, 1, 69, 0
1, 94903, Note_off_c, 1, 79, 0
1, 94903, Note_off_c, 1, 45, 0
1, 95017, Note_on_c, 1, 77, 127
1, 95026, Note_on_c, 1, 50, 127
1, 95029, Note_on_c, 1, 74, 127
1, 95030, Note_on_c, 1, 69, 127
1, 95147, Note_off_c, 1, 50, 0
1, 95184, Note_off_c, 1, 77, 0
1, 95264, Note_on_c, 1, 79, 127
1, 95265, Note_on_c, 1, 48, 127
1, 95364, Note_off_c, 1, 48, 0
1, 95365, Note_off_c, 1, 69, 0
1, 95367, Note_off_c, 1, 74, 0
1, 95409, Note_off_c, 1, 79, 0
1, 95497, Note_on_c, 1, 67, 127
1, 95499, Note_on_c, 1, 46, 127
1, 95504, Note_on_c, 1, 76, 127
1, 95507, Note_on_c, 1, 70, 127
1, 95602, Note_off_c, 1, 67, 0
1, 95608, Note_off_c, 1, 70, 0
1, 95609, Note_off_c, 1, 46, 0
1, 95623, Note_off_c, 1, 76, 0
1, 95736, Note_on_c, 1, 73, 127
1, 95740, Note_on_c, 1, 69, 127
1, 95744, Note_on_c, 1, 64, 127
1, 95744, Note_on_c, 1, 45, 127
1, 95835, Note_off_c, 1, 73, 0
1, 95844, Note_on_c, 1, 74, 127
1, 95856, Note_off_c, 1, 45, 0
1, 95908, Note_off_c, 1, 64, 0
1, 95939, Note_off_c, 1, 74, 0
1, 95971, Note_on_c, 1, 49, 127
1, 95975, Note_on_c, 1, 76, 127
1, 95987, Note_on_c, 1, 57, 127
1, 95991, Note_off_c, 1, 69, 0
1, 96069, Note_off_c, 1, 57, 0
1, 96073, Note_off_c, 1, 49, 0
1, 96103, Note_on_c, 1, 59, 127
1, 96115, Note_off_c, 1, 76, 0
1, 96170, Note_off_c, 1, 59, 0
1, 96214, Note_on_c, 1, 69, 127
1, 96218, Note_on_c, 1, 61, 127
1, 96219, Note_on_c, 1, 81, 127
1, 96223, Note_on_c, 1, 52, 127
1, 96288, Note_off_c, 1, 69, 0
1, 96295, Note_off_c, 1, 61, 0
1, 96326, Note_off_c, 1, 52, 0
1, 96326, Note_on_c, 1, 71, 127
1, 96329, Note_on_c, 1, 62, 127
1, 96404, Note_off_c, 1, 62, 0
1, 96412, Note_off_c, 1, 71, 0
1, 96449, Note_on_c, 1, 73, 127
1, 96465, Note_on_c, 1, 55, 127
1, 96473, Note_on_c, 1, 64, 127
1, 96527, Note_off_c, 1, 73, 0
1, 96572, Note_on_c, 1, 74, 127
1, 96592, Note_off_c, 1, 64, 0
1, 96633, Note_off_c, 1, 81, 0
1, 96642, Note_off_c, 1, 74, 0
1, 96697, Note_on_c, 1, 76, 127
1, 96702, Note_on_c, 1, 79, 127
1, 96812, Note_on_c, 1, 77, 127
1, 96813, Note_off_c, 1, 76, 0
1, 96845, Note_off_c, 1, 79, 0
1, 96940, Note_on_c, 1, 67, 127
1, 96951, Note_off_c, 1, 55, 0
1, 96959, Note_off_c, 1, 77, 0
1, 97017, Note_off_c, 1, 67, 0
1, 97060, Note_on_c, 1, 65, 127
1, 97137, Note_off_c, 1, 65, 0
1, 97661, Note_on_c, 1, 49, 127
1, 97769, Note_off_c, 1, 49, 0
1, 97913, Note_on_c, 1, 45, 127
1, 98411, Note_off_c, 1, 45, 0
1, 98616, Note_on_c, 1, 74, 127
1, 98627, Note_on_c, 1, 62, 127
1, 98631, Note_on_c, 1, 65, 127
1, 98638, Note_on_c, 1, 46, 127
1, 98700, Note_off_c, 1, 74, 0
1, 98737, Note_on_c, 1, 69, 127
1, 98752, Note_off_c, 1, 46, 0
1, 98820, Note_off_c, 1, 69, 0
1, 98862, Note_on_c, 1, 77, 127
1, 98865, Note_on_c, 1, 58, 127
1, 98977, Note_on_c, 1, 76, 127
1, 98983, Note_off_c, 1, 58, 0
1, 98998, Note_off_c, 1, 62, 0
1, 99014, Note_off_c, 1, 65, 0
1, 99015, Note_off_c, 1, 77, 0
1, 99105, Note_on_c, 1, 57, 127
1, 99111, Note_off_c, 1, 76, 0
1, 99206, Note_off_c, 1, 57, 0
1, 99208, Note_on_c, 1, 72, 127
1, 99287, Note_off_c, 1, 72, 0
1, 99332, Note_on_c, 1, 70, 127
1, 99341, Note_on_c, 1, 55, 127
1, 99345, Note_on_c, 1, 62, 127
1, 99349, Note_on_c, 1, 67, 127
1, 99441, Note_on_c, 1, 74, 127
1, 99460, Note_off_c, 1, 55, 0
1, 99470, Note_off_c, 1, 70, 0
1, 99470, Note_off_c, 1, 62, 0
1, 99492, Note_off_c, 1, 67, 0
1, 99542, Note_off_c, 1, 74, 0
1, 99572, Note_on_c, 1, 49, 127
1, 99577, Note_on_c, 1, 79, 127
1, 99580, Note_on_c, 1, 64, 127
1, 99587, Note_on_c, 1, 69, 127
1, 99645, Note_off_c, 1, 79, 0
1, 99691, Note_on_c, 1, 76, 127
1, 99692, Note_off_c, 1, 64, 0
1, 99695, Note_off_c, 1, 49, 0
1, 99695, Note_off_c, 1, 69, 0
1, 99765, Note_off_c, 1, 76, 0
1, 99814, Note_on_c, 1, 50, 127
1, 99819, Note_on_c, 1, 77, 127
1, 99831, Note_on_c, 1, 69, 127
1, 99833, Note_on_c, 1, 62, 127
1, 99946, Note_off_c, 1, 50, 0
1, 99948, Note_off_c, 1, 69, 0
1, 99969, Note_off_c, 1, 62, 0
1, 100062, Note_on_c, 1, 46, 127
1, 100067, Note_on_c, 1, 74, 127
1, 100070, Note_on_c, 1, 65, 127
1, 100170, Note_off_c, 1, 77, 0
1, 100174, Note_off_c, 1, 46, 0
1, 100186, Note_off_c, 1, 65, 0
1, 100248, Note_off_c, 1, 74, 0
1, 100299, Note_on_c, 1, 77, 127
1, 100302, Note_on_c, 1, 43, 127
1, 100309, Note_on_c, 1, 70, 127
1, 100309, Note_on_c, 1, 67, 127
1, 100410, Note_on_c, 1, 76, 127
1, 100414, Note_off_c, 1, 70, 0
1, 100416, Note_off_c, 1, 43, 0
1, 100418, Note_off_c, 1, 67, 0
1, 100439, Note_off_c, 1, 77, 0
1, 100510, Note_off_c, 1, 76, 0
1, 100529, Note_on_c, 1, 74, 127
1, 100545, Note_on_c, 1, 64, 127
1, 100546, Note_on_c, 1, 69, 127
1, 100546, Note_on_c, 1, 45, 127
1, 100643, Note_on_c, 1, 73, 127
1, 100648, Note_off_c, 1, 45, 0
1, 100656, Note_off_c, 1, 64, 0
1, 100672, Note_off_c, 1, 74, 0
1, 100685, Note_off_c, 1, 69, 0
1, 100752, Note_off_c, 1, 73, 0
1, 100781, Note_on_c, 1, 74, 127
1, 100787, Note_on_c, 1, 65, 127
1, 100789, Note_on_c, 1, 69, 127
1, 100789, Note_on_c, 1, 50, 127
1, 100892, Note_off_c, 1, 50, 0
1, 101021, Note_on_c, 1, 38, 127
1, 101117, Note_off_c, 1, 38, 0
1, 101128, Note_off_c, 1, 74, 0
1, 101131, Note_off_c, 1, 69, 0
1, 101148, Note_off_c, 1, 65, 0
1, 101262, Note_on_c, 1, 69, 127
1, 101262, Note_on_c, 1, 50, 127
1, 101267, Note_on_c, 1, 66, 127
1, 101270, Note_on_c, 1, 62, 127
1, 101348, Note_off_c, 1, 69, 0
1, 101379, Note_off_c, 1, 50, 0
1, 101383, Note_on_c, 1, 71, 127
1, 101388, Note_off_c, 1, 66, 0
1, 101398, Note_off_c, 1, 62, 0
1, 101453, Note_off_c, 1, 71, 0
1, 101505, Note_on_c, 1, 67, 127
1, 101507, Note_on_c, 1, 72, 127
1, 101509, Note_on_c, 1, 52, 127
1, 101511, Note_on_c, 1, 60, 127
1, 101623, Note_off_c, 1, 52, 0
1, 101633, Note_off_c, 1, 60, 0
1, 101641, Note_off_c, 1, 67, 0
1, 101679, Note_off_c, 1, 72, 0
1, 101741, Note_on_c, 1, 57, 127
1, 101744, Note_on_c, 1, 74, 127
1, 101745, Note_on_c, 1, 54, 127
1, 101750, Note_on_c, 1, 69, 127
1, 101846, Note_off_c, 1, 54, 0
1, 101854, Note_off_c, 1, 57, 0
1, 101854, Note_on_c, 1, 72, 127
1, 101862, Note_off_c, 1, 69, 0
1, 101899, Note_off_c, 1, 74, 0
1, 101978, Note_on_c, 1, 50, 127
1, 101984, Note_on_c, 1, 71, 127
1, 101984, Note_on_c, 1, 62, 127
1, 101988, Note_on_c, 1, 66, 127
1, 102014, Note_off_c, 1, 72, 0
1, 102074, Note_off_c, 1, 50, 0
1, 102084, Note_off_c, 1, 66, 0
1, 102096, Note_off_c, 1, 62, 0
1, 102112, Note_off_c, 1, 71, 0
1, 102220, Note_on_c, 1, 71, 127
1, 102220, Note_on_c, 1, 55, 127
1, 102231, Note_on_c, 1, 67, 127
1, 102236, Note_on_c, 1, 62, 127
1, 102334, Note_off_c, 1, 71, 0
1, 102336, Note_on_c, 1, 69, 127
1, 102348, Note_off_c, 1, 55, 0
1, 102433, Note_off_c, 1, 69, 0
1, 102464, Note_on_c, 1, 43, 127
1, 102565, Note_off_c, 1, 62, 0
1, 102570, Note_off_c, 1, 43, 0
1, 102592, Note_off_c, 1, 67, 0
1, 102701, Note_on_c, 1, 60, 127
1, 102706, Note_on_c, 1, 71, 127
1, 102710, Note_on_c, 1, 45, 127
1, 102712, Note_on_c, 1, 65, 127
1, 102798, Note_off_c, 1, 71, 0
1, 102810, Note_on_c, 1, 72, 127
1, 102815, Note_off_c, 1, 60, 0
1, 102815, Note_off_c, 1, 45, 0
1, 102918, Note_off_c, 1, 72, 0
1, 102933, Note_on_c, 1, 74, 127
1, 102939, Note_on_c, 1, 47, 127
1, 102947, Note_on_c, 1, 55, 127
1, 103049, Note_on_c, 1, 76, 127
1, 103053, Note_off_c, 1, 47, 0
1, 103060, Note_off_c, 1, 74, 0
1, 103074, Note_off_c, 1, 55, 0
1, 103085, Note_off_c, 1, 65, 0
1, 103152, Note_off_c, 1, 76, 0
1, 103172, Note_on_c, 1, 77, 127
1, 103178, Note_on_c, 1, 43, 127
1, 103185, Note_on_c, 1, 71, 127
1, 103188, Note_on_c, 1, 67, 127
1, 103280, Note_off_c, 1, 43, 0
1, 103301, Note_off_c, 1, 71, 0
1, 103305, Note_off_c, 1, 67, 0
1, 103308, Note_off_c, 1, 77, 0
1, 103420, Note_on_c, 1, 48, 127
1, 103421, Note_on_c, 1, 76, 127
1, 103425, Note_on_c, 1, 72, 127
1, 103434, Note_on_c, 1, 67, 127
1, 103522, Note_off_c, 1, 48, 0
1, 103531, Note_off_c, 1, 72, 0
1, 103545, Note_off_c, 1, 67, 0
1, 103568, Note_off_c, 1, 76, 0
1, 103659, Note_on_c, 1, 74, 127
1, 103665, Note_on_c, 1, 43, 127
1, 103671, Note_on_c, 1, 71, 127
1, 103675, Note_on_c, 1, 67, 127
1, 103762, Note_off_c, 1, 71, 0
1, 103778, Note_on_c, 1, 72, 127
1, 103780, Note_off_c, 1, 74, 0
1, 103787, Note_on_c, 1, 69, 127
1, 103799, Note_off_c, 1, 67, 0
1, 103859, Note_off_c, 1, 69, 0
1, 103887, Note_off_c, 1, 72, 0
1, 103911, Note_on_c, 1, 62, 127
1, 104018, Note_off_c, 1, 62, 0
1, 104076, Note_off_c, 1, 43, 0
1, 104130, Note_on_c, 1, 71, 127
1, 104134, Note_on_c, 1, 74, 127
1, 104138, Note_on_c, 1, 67, 127
1, 104146, Note_on_c, 1, 55, 127
1, 104212, Note_off_c, 1, 71, 0
1, 104234, Note_off_c, 1, 74, 0
1, 104246, Note_on_c, 1, 76, 127
1, 104300, Note_off_c, 1, 55, 0
1, 104315, Note_off_c, 1, 67, 0
1, 104340, Note_off_c, 1, 76, 0
1, 104376, Note_on_c, 1, 72, 127
1, 104378, Note_on_c, 1, 77, 127
1, 104380, Note_on_c, 1, 60, 127
1, 104386, Note_on_c, 1, 57, 127
1, 104469, Note_off_c, 1, 57, 0
1, 104473, Note_off_c, 1, 77, 0
1, 104493, Note_on_c, 1, 55, 127
1, 104497, Note_on_c, 1, 79, 127
1, 104506, Note_off_c, 1, 60, 0
1, 104582, Note_off_c, 1, 55, 0
1, 104588, Note_off_c, 1, 79, 0
1, 104611, Note_on_c, 1, 53, 127
1, 104621, Note_on_c, 1, 81, 127
1, 104621, Note_on_c, 1, 65, 127
1, 104710, Note_off_c, 1, 53, 0
1, 104720, Note_on_c, 1, 52, 127
1, 104737, Note_off_c, 1, 65, 0
1, 104744, Note_off_c, 1, 81, 0
1, 104781, Note_off_c, 1, 72, 0
1, 104834, Note_off_c, 1, 52, 0
1, 104847, Note_on_c, 1, 53, 127
1, 104864, Note_on_c, 1, 62, 127
1, 104865, Note_on_c, 1, 79, 127
1, 104871, Note_on_c, 1, 71, 127
1, 104946, Note_off_c, 1, 53, 0
1, 104967, Note_on_c, 1, 50, 127
1, 104978, Note_off_c, 1, 62, 0
1, 104978, Note_off_c, 1, 71, 0
1, 105079, Note_off_c, 1, 50, 0
1, 105103, Note_on_c, 1, 52, 127
1, 105108, Note_on_c, 1, 67, 127
1, 105110, Note_on_c, 1, 72, 127
1, 105223, Note_off_c, 1, 72, 0
1, 105234, Note_off_c, 1, 79, 0
1, 105234, Note_off_c, 1, 67, 0
1, 105243, Note_off_c, 1, 52, 0
1, 105342, Note_on_c, 1, 70, 127
1, 105351, Note_on_c, 1, 65, 127
1, 105355, Note_on_c, 1, 50, 127
1, 105450, Note_off_c, 1, 70, 0
1, 105453, Note_on_c, 1, 69, 127
1, 105466, Note_off_c, 1, 65, 0
1, 105474, Note_off_c, 1, 50, 0
1, 105544, Note_off_c, 1, 69, 0
1, 105575, Note_on_c, 1, 70, 127
1, 105578, Note_on_c, 1, 67, 127
1, 105582, Note_on_c, 1, 64, 127
1, 105590, Note_on_c, 1, 48, 127
1, 105682, Note_off_c, 1, 70, 0
1, 105704, Note_off_c, 1, 64, 0
1, 105711, Note_off_c, 1, 48, 0
1, 105789, Note_off_c, 1, 67, 0
1, 105819, Note_on_c, 1, 69, 127
1, 105825, Note_on_c, 1, 65, 127
1, 105825, Note_on_c, 1, 60, 127
1, 105825, Note_on_c, 1, 53, 127
1, 105935, Note_off_c, 1, 69, 0
1, 105940, Note_off_c, 1, 60, 0
1, 105944, Note_off_c, 1, 53, 0
1, 105945, Note_off_c, 1, 65, 0
1, 106057, Note_on_c, 1, 50, 127
1, 106063, Note_on_c, 1, 74, 127
1, 106063, Note_on_c, 1, 65, 127
1, 106068, Note_on_c, 1, 69, 127
1, 106164, Note_off_c, 1, 50, 0
1, 106172, Note_off_c, 1, 74, 0
1, 106172, Note_off_c, 1, 69, 0
1, 106174, Note_off_c, 1, 65, 0
1, 106301, Note_on_c, 1, 62, 127
1, 106305, Note_on_c, 1, 67, 127
1, 106305, Note_on_c, 1, 55, 127
1, 106305, Note_on_c, 1, 71, 127
1, 106408, Note_off_c, 1, 55, 0
1, 106412, Note_off_c, 1, 71, 0
1, 106414, Note_off_c, 1, 62, 0
1, 106414, Note_off_c, 1, 67, 0
1, 106551, Note_on_c, 1, 72, 127
1, 106554, Note_on_c, 1, 64, 127
1, 106556, Note_on_c, 1, 48, 127
1, 106562, Note_on_c, 1, 67, 127
1, 106884, Note_off_c, 1, 64, 0
1, 106893, Note_off_c, 1, 48, 0
1, 106909, Note_off_c, 1, 72, 0
1, 106919, Note_off_c, 1, 67, 0
1, 107027, Note_on_c, 1, 74, 127
1, 107031, Note_on_c, 1, 43, 127
1, 107033, Note_on_c, 1, 67, 127
1, 107034, Note_on_c, 1, 71, 127
1, 107140, Note_off_c, 1, 67, 0
1, 107142, Note_off_c, 1, 71, 0
1, 107150, Note_off_c, 1, 74, 0
1, 107152, Note_off_c, 1, 43, 0
1, 107256, Note_on_c, 1, 62, 127
1, 107260, Note_on_c, 1, 55, 127
1, 107266, Note_on_c, 1, 71, 127
1, 107270, Note_on_c, 1, 67, 127
1, 107397, Note_off_c, 1, 55, 0
1, 107454, Note_off_c, 1, 71, 0
1, 107503, Note_on_c, 1, 57, 127
1, 107504, Note_on_c, 1, 72, 127
1, 107587, Note_off_c, 1, 62, 0
1, 107611, Note_off_c, 1, 67, 0
1, 107618, Note_off_c, 1, 57, 0
1, 107649, Note_off_c, 1, 72, 0
1, 107735, Note_on_c, 1, 69, 127
1, 107736, Note_on_c, 1, 59, 127
1, 107866, Note_off_c, 1, 69, 0
1, 107871, Note_off_c, 1, 59, 0
1, 107982, Note_on_c, 1, 67, 127
1, 107982, Note_on_c, 1, 60, 127
1, 107991, Note_on_c, 1, 76, 127
1, 108091, Note_on_c, 1, 77, 127
1, 108115, Note_off_c, 1, 60, 0
1, 108118, Note_off_c, 1, 67, 0
1, 108123, Note_off_c, 1, 76, 0
1, 108210, Note_on_c, 1, 79, 127
1, 108218, Note_on_c, 1, 48, 127
1, 108220, Note_on_c, 1, 72, 127
1, 108234, Note_off_c, 1, 77, 0
1, 108320, Note_on_c, 1, 81, 127
1, 108337, Note_off_c, 1, 48, 0
1, 108340, Note_off_c, 1, 72, 0
1, 108349, Note_off_c, 1, 79, 0
1, 108450, Note_off_c, 1, 81, 0
1, 108450, Note_on_c, 1, 50, 127
1, 108454, Note_on_c, 1, 74, 127
1, 108462, Note_on_c, 1, 65, 127
1, 108462, Note_on_c, 1, 82, 127
1, 108564, Note_off_c, 1, 65, 0
1, 108583, Note_off_c, 1, 74, 0
1, 108588, Note_off_c, 1, 50, 0
1, 108688, Note_on_c, 1, 52, 127
1, 108697, Note_on_c, 1, 73, 127
1, 108704, Note_on_c, 1, 64, 127
1, 108813, Note_off_c, 1, 52, 0
1, 108817, Note_off_c, 1, 73, 0
1, 108819, Note_off_c, 1, 64, 0
1, 108923, Note_off_c, 1, 82, 0
1, 108936, Note_on_c, 1, 49, 127
1, 108943, Note_on_c, 1, 76, 127
1, 108949, Note_on_c, 1, 57, 127
1, 108955, Note_on_c, 1, 81, 127
1, 109043, Note_off_c, 1, 76, 0
1, 109044, Note_off_c, 1, 49, 0
1, 109063, Note_off_c, 1, 57, 0
1, 109077, Note_off_c, 1, 81, 0
1, 109176, Note_on_c, 1, 45, 127
1, 109184, Note_on_c, 1, 69, 127
1, 109187, Note_on_c, 1, 79, 127
1, 109190, Note_on_c, 1, 73, 127
1, 109285, Note_off_c, 1, 73, 0
1, 109291, Note_off_c, 1, 69, 0
1, 109302, Note_off_c, 1, 45, 0
1, 109315, Note_off_c, 1, 79, 0
1, 109409, Note_on_c, 1, 50, 127
1, 109417, Note_on_c, 1, 77, 127
1, 109427, Note_on_c, 1, 74, 127
1, 109433, Note_on_c, 1, 69, 127
1, 109562, Note_off_c, 1, 50, 0
1, 109595, Note_off_c, 1, 77, 0
1, 109646, Note_on_c, 1, 48, 127
1, 109664, Note_on_c, 1, 79, 127
1, 109770, Note_off_c, 1, 69, 0
1, 109803, Note_off_c, 1, 74, 0
1, 109805, Note_off_c, 1, 48, 0
1, 109811, Note_off_c, 1, 79, 0
1, 109901, Note_on_c, 1, 46, 127
1, 109902, Note_on_c, 1, 76, 127
1, 109908, Note_on_c, 1, 70, 127
1, 109914, Note_on_c, 1, 67, 127
1, 109995, Note_off_c, 1, 70, 0
1, 110020, Note_off_c, 1, 67, 0
1, 110027, Note_off_c, 1, 76, 0
1, 110046, Note_off_c, 1, 46, 0
1, 110137, Note_on_c, 1, 45, 127
1, 110141, Note_on_c, 1, 73, 127
1, 110145, Note_on_c, 1, 64, 127
1, 110151, Note_on_c, 1, 69, 127
1, 110250, Note_on_c, 1, 74, 127
1, 110275, Note_off_c, 1, 73, 0
1, 110298, Note_off_c, 1, 45, 0
1, 110331, Note_off_c, 1, 64, 0
1, 110376, Note_on_c, 1, 76, 127
1, 110384, Note_on_c, 1, 49, 127
1, 110390, Note_off_c, 1, 74, 0
1, 110393, Note_on_c, 1, 57, 127
1, 110474, Note_off_c, 1, 57, 0
1, 110475, Note_off_c, 1, 69, 0
1, 110503, Note_on_c, 1, 59, 127
1, 110507, Note_off_c, 1, 76, 0
1, 110514, Note_off_c, 1, 49, 0
1, 110576, Note_off_c, 1, 59, 0
1, 110618, Note_on_c, 1, 81, 127
1, 110618, Note_on_c, 1, 69, 127
1, 110628, Note_on_c, 1, 52, 127
1, 110631, Note_on_c, 1, 61, 127
1, 110694, Note_off_c, 1, 61, 0
1, 110698, Note_off_c, 1, 69, 0
1, 110726, Note_on_c, 1, 71, 127
1, 110738, Note_off_c, 1, 52, 0
1, 110743, Note_on_c, 1, 62, 127
1, 110816, Note_off_c, 1, 71, 0
1, 110816, Note_off_c, 1, 62, 0
1, 110855, Note_on_c, 1, 73, 127
1, 110861, Note_on_c, 1, 55, 127
1, 110865, Note_on_c, 1, 64, 127
1, 110933, Note_off_c, 1, 73, 0
1, 110969, Note_on_c, 1, 74, 127
1, 111005, Note_off_c, 1, 64, 0
1, 111040, Note_off_c, 1, 81, 0
1, 111051, Note_off_c, 1, 74, 0
1, 111094, Note_on_c, 1, 76, 127
1, 111101, Note_on_c, 1, 79, 127
1, 111210, Note_on_c, 1, 77, 127
1, 111212, Note_off_c, 1, 76, 0
1, 111255, Note_off_c, 1, 79, 0
1, 111347, Note_on_c, 1, 67, 127
1, 111358, Note_off_c, 1, 55, 0
1, 111360, Note_off_c, 1, 77, 0
1, 111423, Note_off_c, 1, 67, 0
1, 111461, Note_on_c, 1, 65, 127
1, 111538, Note_off_c, 1, 65, 0
1, 112063, Note_on_c, 1, 49, 127
1, 112172, Note_off_c, 1, 49, 0
1, 112318, Note_on_c, 1, 45, 127
1, 112801, Note_off_c, 1, 45, 0
1, 113024, Note_on_c, 1, 74, 127
1, 113026, Note_on_c, 1, 65, 127
1, 113028, Note_on_c, 1, 62, 127
1, 113031, Note_on_c, 1, 46, 127
1, 113122, Note_off_c, 1, 74, 0
1, 113135, Note_on_c, 1, 69, 127
1, 113151, Note_off_c, 1, 46, 0
1, 113222, Note_off_c, 1, 69, 0
1, 113262, Note_on_c, 1, 77, 127
1, 113267, Note_on_c, 1, 58, 127
1, 113369, Note_off_c, 1, 58, 0
1, 113375, Note_on_c, 1, 76, 127
1, 113383, Note_off_c, 1, 62, 0
1, 113391, Note_off_c, 1, 65, 0
1, 113411, Note_off_c, 1, 77, 0
1, 113506, Note_on_c, 1, 57, 127
1, 113513, Note_off_c, 1, 76, 0
1, 113606, Note_on_c, 1, 72, 127
1, 113610, Note_off_c, 1, 57, 0
1, 113699, Note_off_c, 1, 72, 0
1, 113732, Note_on_c, 1, 70, 127
1, 113746, Note_on_c, 1, 55, 127
1, 113749, Note_on_c, 1, 67, 127
1, 113750, Note_on_c, 1, 62, 127
1, 113851, Note_on_c, 1, 74, 127
1, 113862, Note_off_c, 1, 55, 0
1, 113874, Note_off_c, 1, 70, 0
1, 113874, Note_off_c, 1, 62, 0
1, 113877, Note_off_c, 1, 67, 0
1, 113955, Note_off_c, 1, 74, 0
1, 113977, Note_on_c, 1, 79, 127
1, 113981, Note_on_c, 1, 49, 127
1, 113984, Note_on_c, 1, 69, 127
1, 113989, Note_on_c, 1, 64, 127
1, 114043, Note_off_c, 1, 79, 0
1, 114088, Note_off_c, 1, 69, 0
1, 114089, Note_off_c, 1, 49, 0
1, 114099, Note_on_c, 1, 76, 127
1, 114103, Note_off_c, 1, 64, 0
1, 114165, Note_off_c, 1, 76, 0
1, 114218, Note_on_c, 1, 50, 127
1, 114224, Note_on_c, 1, 77, 127
1, 114224, Note_on_c, 1, 69, 127
1, 114236, Note_on_c, 1, 62, 127
1, 114338, Note_off_c, 1, 62, 0
1, 114339, Note_off_c, 1, 50, 0
1, 114355, Note_off_c, 1, 69, 0
1, 114456, Note_on_c, 1, 46, 127
1, 114466, Note_on_c, 1, 74, 127
1, 114466, Note_on_c, 1, 65, 127
1, 114551, Note_off_c, 1, 77, 0
1, 114569, Note_off_c, 1, 46, 0
1, 114582, Note_off_c, 1, 65, 0
1, 114664, Note_off_c, 1, 74, 0
1, 114701, Note_on_c, 1, 43, 127
1, 114706, Note_on_c, 1, 77, 127
1, 114709, Note_on_c, 1, 67, 127
1, 114718, Note_on_c, 1, 70, 127
1, 114818, Note_on_c, 1, 76, 127
1, 114826, Note_off_c, 1, 67, 0
1, 114826, Note_off_c, 1, 70, 0
1, 114831, Note_off_c, 1, 43, 0
1, 114843, Note_off_c, 1, 77, 0
1, 114905, Note_off_c, 1, 76, 0
1, 114936, Note_on_c, 1, 74, 127
1, 114936, Note_on_c, 1, 45, 127
1, 114953, Note_on_c, 1, 69, 127
1, 114953, Note_on_c, 1, 64, 127
1, 115045, Note_on_c, 1, 73, 127
1, 115049, Note_off_c, 1, 45, 0
1, 115056, Note_off_c, 1, 69, 0
1, 115058, Note_off_c, 1, 74, 0
1, 115065, Note_off_c, 1, 64, 0
1, 115147, Note_off_c, 1, 73, 0
1, 115182, Note_on_c, 1, 74, 127
1, 115182, Note_on_c, 1, 50, 127
1, 115186, Note_on_c, 1, 69, 127
1, 115194, Note_on_c, 1, 65, 127
1, 115293, Note_off_c, 1, 50, 0
1, 115431, Note_on_c, 1, 38, 127
1, 115527, Note_off_c, 1, 65, 0
1, 115539, Note_off_c, 1, 38, 0
1, 115556, Note_off_c, 1, 74, 0
1, 115567, Note_off_c, 1, 69, 0
1, 115659, Note_on_c, 1, 69, 127
1, 115659, Note_on_c, 1, 62, 127
1, 115664, Note_on_c, 1, 50, 127
1, 115667, Note_on_c, 1, 66, 127
1, 115750, Note_off_c, 1, 69, 0
1, 115774, Note_on_c, 1, 71, 127
1, 115783, Note_off_c, 1, 62, 0
1, 115794, Note_off_c, 1, 50, 0
1, 115804, Note_off_c, 1, 66, 0
1, 115853, Note_off_c, 1, 71, 0
1, 115901, Note_on_c, 1, 60, 127
1, 115902, Note_on_c, 1, 67, 127
1, 115910, Note_on_c, 1, 52, 127
1, 115910, Note_on_c, 1, 72, 127
1, 116015, Note_off_c, 1, 60, 0
1, 116031, Note_off_c, 1, 67, 0
1, 116035, Note_off_c, 1, 52, 0
1, 116093, Note_off_c, 1, 72, 0
1, 116132, Note_on_c, 1, 54, 127
1, 116138, Note_on_c, 1, 57, 127
1, 116146, Note_on_c, 1, 69, 127
1, 116149, Note_on_c, 1, 74, 127
1, 116250, Note_off_c, 1, 57, 0
1, 116257, Note_off_c, 1, 69, 0
1, 116258, Note_on_c, 1, 72, 127
1, 116260, Note_off_c, 1, 54, 0
1, 116294, Note_off_c, 1, 74, 0
1, 116381, Note_on_c, 1, 71, 127
1, 116382, Note_on_c, 1, 50, 127
1, 116384, Note_on_c, 1, 62, 127
1, 116391, Note_on_c, 1, 66, 127
1, 116413, Note_off_c, 1, 72, 0
1, 116491, Note_off_c, 1, 62, 0
1, 116492, Note_off_c, 1, 50, 0
1, 116495, Note_off_c, 1, 66, 0
1, 116513, Note_off_c, 1, 71, 0
1, 116617, Note_on_c, 1, 71, 127
1, 116617, Note_on_c, 1, 55, 127
1, 116623, Note_on_c, 1, 67, 127
1, 116625, Note_on_c, 1, 62, 127
1, 116731, Note_on_c, 1, 69, 127
1, 116736, Note_off_c, 1, 71, 0
1, 116762, Note_off_c, 1, 55, 0
1, 116826, Note_off_c, 1, 69, 0
1, 116858, Note_on_c, 1, 43, 127
1, 116957, Note_off_c, 1, 62, 0
1, 116970, Note_off_c, 1, 43, 0
1, 116982, Note_off_c, 1, 67, 0
1, 117091, Note_on_c, 1, 60, 127
1, 117091, Note_on_c, 1, 45, 127
1, 117098, Note_on_c, 1, 65, 127
1, 117209, Note_on_c, 1, 72, 127
1, 117215, Note_off_c, 1, 60, 0
1, 117215, Note_off_c, 1, 45, 0
1, 117317, Note_off_c, 1, 72, 0
1, 117329, Note_on_c, 1, 47, 127
1, 117333, Note_on_c, 1, 74, 127
1, 117449, Note_on_c, 1, 76, 127
1, 117453, Note_off_c, 1, 47, 0
1, 117453, Note_off_c, 1, 74, 0
1, 117524, Note_off_c, 1, 65, 0
1, 117552, Note_off_c, 1, 76, 0
1, 117572, Note_on_c, 1, 43, 127
1, 117577, Note_on_c, 1, 67, 127
1, 117578, Note_on_c, 1, 77, 127
1, 117600, Note_on_c, 1, 71, 127
1, 117697, Note_off_c, 1, 43, 0
1, 117702, Note_off_c, 1, 67, 0
1, 117713, Note_off_c, 1, 77, 0
1, 117727, Note_off_c, 1, 71, 0
1, 117820, Note_on_c, 1, 76, 127
1, 117820, Note_on_c, 1, 48, 127
1, 117828, Note_on_c, 1, 67, 127
1, 117833, Note_on_c, 1, 72, 127
1, 117932, Note_off_c, 1, 48, 0
1, 117952, Note_off_c, 1, 67, 0
1, 117958, Note_off_c, 1, 76, 0
1, 117966, Note_off_c, 1, 72, 0
1, 118063, Note_on_c, 1, 74, 127
1, 118070, Note_on_c, 1, 67, 127
1, 118071, Note_on_c, 1, 43, 127
1, 118072, Note_on_c, 1, 71, 127
1, 118180, Note_on_c, 1, 72, 127
1, 118181, Note_off_c, 1, 71, 0
1, 118181, Note_on_c, 1, 69, 127
1, 118188, Note_off_c, 1, 74, 0
1, 118205, Note_off_c, 1, 67, 0
1, 118258, Note_off_c, 1, 69, 0
1, 118273, Note_off_c, 1, 72, 0
1, 118313, Note_on_c, 1, 62, 127
1, 118406, Note_off_c, 1, 43, 0
1, 118420, Note_off_c, 1, 62, 0
1, 118537, Note_on_c, 1, 67, 127
1, 118541, Note_on_c, 1, 74, 127
1, 118547, Note_on_c, 1, 55, 127
1, 118548, Note_on_c, 1, 71, 127
1, 118634, Note_off_c, 1, 71, 0
1, 118640, Note_off_c, 1, 74, 0
1, 118658, Note_on_c, 1, 76, 127
1, 118688, Note_off_c, 1, 55, 0
1, 118740, Note_off_c, 1, 67, 0
1, 118758, Note_off_c, 1, 76, 0
1, 118781, Note_on_c, 1, 72, 127
1, 118782, Note_on_c, 1, 77, 127
1, 118787, Note_on_c, 1, 60, 127
1, 118789, Note_on_c, 1, 57, 127
1, 118886, Note_off_c, 1, 77, 0
1, 118890, Note_off_c, 1, 57, 0
1, 118898, Note_on_c, 1, 79, 127
1, 118898, Note_on_c, 1, 55, 127
1, 118911, Note_off_c, 1, 60, 0
1, 118984, Note_off_c, 1, 55, 0
1, 118991, Note_off_c, 1, 79, 0
1, 119004, Note_on_c, 1, 53, 127
1, 119022, Note_on_c, 1, 81, 127
1, 119026, Note_on_c, 1, 65, 127
1, 119112, Note_off_c, 1, 53, 0
1, 119128, Note_on_c, 1, 52, 127
1, 119145, Note_off_c, 1, 65, 0
1, 119156, Note_off_c, 1, 81, 0
1, 119194, Note_off_c, 1, 72, 0
1, 119230, Note_off_c, 1, 52, 0
1, 119245, Note_on_c, 1, 53, 127
1, 119265, Note_on_c, 1, 79, 127
1, 119272, Note_on_c, 1, 62, 127
1, 119281, Note_on_c, 1, 71, 127
1, 119338, Note_off_c, 1, 53, 0
1, 119359, Note_on_c, 1, 50, 127
1, 119402, Note_off_c, 1, 62, 0
1, 119406, Note_off_c, 1, 71, 0
1, 119475, Note_off_c, 1, 50, 0
1, 119504, Note_on_c, 1, 52, 127
1, 119513, Note_on_c, 1, 67, 127
1, 119515, Note_on_c, 1, 72, 127
1, 119622, Note_off_c, 1, 79, 0
1, 119636, Note_off_c, 1, 52, 0
1, 119636, Note_off_c, 1, 72, 0
1, 119639, Note_off_c, 1, 67, 0
1, 119746, Note_on_c, 1, 70, 127
1, 119751, Note_on_c, 1, 65, 127
1, 119755, Note_on_c, 1, 50, 127
1, 119846, Note_on_c, 1, 69, 127
1, 119850, Note_off_c, 1, 70, 0
1, 119866, Note_off_c, 1, 50, 0
1, 119870, Note_off_c, 1, 65, 0
1, 119936, Note_off_c, 1, 69, 0
1, 119971, Note_on_c, 1, 70, 127
1, 119980, Note_on_c, 1, 67, 127
1, 119985, Note_on_c, 1, 48, 127
1, 119989, Note_on_c, 1, 64, 127
1, 120077, Note_off_c, 1, 70, 0
1, 120101, Note_off_c, 1, 64, 0
1, 120103, Note_off_c, 1, 48, 0
1, 120180, Note_off_c, 1, 67, 0
1, 120220, Note_on_c, 1, 69, 127
1, 120222, Note_on_c, 1, 65, 127
1, 120224, Note_on_c, 1, 60, 127
1, 120233, Note_on_c, 1, 53, 127
1, 120330, Note_off_c, 1, 69, 0
1, 120337, Note_off_c, 1, 60, 0
1, 120340, Note_off_c, 1, 65, 0
1, 120352, Note_off_c, 1, 53, 0
1, 120461, Note_on_c, 1, 69, 127
1, 120462, Note_on_c, 1, 74, 127
1, 120465, Note_on_c, 1, 65, 127
1, 120468, Note_on_c, 1, 50, 127
1, 120569, Note_off_c, 1, 65, 0
1, 120575, Note_off_c, 1, 69, 0
1, 120576, Note_off_c, 1, 50, 0
1, 120580, Note_off_c, 1, 74, 0
1, 120692, Note_on_c, 1, 72, 127
1, 120701, Note_on_c, 1, 55, 127
1, 120705, Note_on_c, 1, 67, 127
1, 120711, Note_on_c, 1, 62, 127
1, 120734, Note_on_c, 1, 71, 127
1, 120746, Note_off_c, 1, 72, 0
1, 120786, Note_off_c, 1, 71, 0
1, 120808, Note_off_c, 1, 55, 0
1, 120810, Note_off_c, 1, 62, 0
1, 120815, Note_off_c, 1, 67, 0
1, 120940, Note_on_c, 1, 67, 127
1, 120943, Note_on_c, 1, 72, 127
1, 120950, Note_on_c, 1, 64, 127
1, 120957, Note_on_c, 1, 48, 127
1, 121414, Note_off_c, 1, 48, 0
1, 121427, Note_off_c, 1, 64, 0
1, 121431, Note_off_c, 1, 67, 0
1, 121459, Note_off_c, 1, 72, 0
1, 121459, End_track
0, 0, End_of_file