0, 0, Header, 1, 1, 480
1, 0, Start_track
1, 0, Title_t, "Test"
1, 0, Tempo, 500000
1, 0, Instrument_name_t, "Church Organ"
1, 716, Note_on_c, 1, 71, 127
1, 718, Note_on_c, 1, 66, 127
1, 720, Note_on_c, 1, 83, 127
1, 723, Note_on_c, 1, 59, 127
1, 725, Note_on_c, 1, 50, 127
1, 750, Note_off_c, 1, 66, 0
1, 760, Note_off_c, 1, 59, 0
1, 769, Note_off_c, 1, 50, 0
1, 839, Note_on_c, 1, 62, 127
1, 842, Note_on_c, 1, 47, 127
1, 862, Note_off_c, 1, 71, 0
1, 877, Note_off_c, 1, 83, 0
1, 877, Note_off_c, 1, 62, 0
1, 885, Note_off_c, 1, 47, 0
1, 907, Note_on_c, 1, 74, 127
1, 913, Note_on_c, 1, 86, 127
1, 943, Note_off_c, 1, 74, 0
1, 947, Note_off_c, 1, 86, 0
1, 952, Note_on_c, 1, 73, 127
1, 954, Note_on_c, 1, 85, 127
1, 957, Note_on_c, 1, 67, 127
1, 958, Note_on_c, 1, 52, 127
1, 966, Note_on_c, 1, 64, 127
1, 995, Note_off_c, 1, 73, 0
1, 995, Note_off_c, 1, 85, 0
1, 997, Note_off_c, 1, 67, 0
1, 1004, Note_off_c, 1, 52, 0
1, 1005, Note_off_c, 1, 64, 0
1, 1071, Note_on_c, 1, 71, 127
1, 1074, Note_on_c, 1, 83, 127
1, 1075, Note_on_c, 1, 55, 127
1, 1084, Note_on_c, 1, 64, 127
1, 1085, Note_on_c, 1, 59, 127
1, 1119, Note_off_c, 1, 83, 0
1, 1119, Note_off_c, 1, 59, 0
1, 1122, Note_off_c, 1, 71, 0
1, 1122, Note_off_c, 1, 64, 0
1, 1123, Note_off_c, 1, 55, 0
1, 1193, Note_on_c, 1, 83, 127
1, 1196, Note_on_c, 1, 71, 127
1, 1197, Note_on_c, 1, 54, 127
1, 1200, Note_on_c, 1, 61, 127
1, 1200, Note_on_c, 1, 66, 127
1, 1238, Note_off_c, 1, 54, 0
1, 1239, Note_off_c, 1, 61, 0
1, 1239, Note_off_c, 1, 66, 0
1, 1254, Note_on_c, 1, 70, 127
1, 1259, Note_on_c, 1, 82, 127
1, 1261, Note_off_c, 1, 71, 0
1, 1262, Note_off_c, 1, 83, 0
1, 1319, Note_on_c, 1, 52, 127
1, 1361, Note_off_c, 1, 70, 0
1, 1364, Note_off_c, 1, 52, 0
1, 1375, Note_off_c, 1, 82, 0
1, 1376, Note_on_c, 1, 83, 127
1, 1379, Note_on_c, 1, 71, 127
1, 1401, Note_on_c, 1, 85, 127
1, 1404, Note_on_c, 1, 73, 127
1, 1406, Note_off_c, 1, 83, 0
1, 1411, Note_off_c, 1, 71, 0
1, 1426, Note_off_c, 1, 85, 0
1, 1428, Note_off_c, 1, 73, 0
1, 1435, Note_on_c, 1, 50, 127
1, 1436, Note_on_c, 1, 66, 127
1, 1437, Note_on_c, 1, 62, 127
1, 1444, Note_on_c, 1, 71, 127
1, 1448, Note_on_c, 1, 83, 127
1, 1473, Note_off_c, 1, 66, 0
1, 1475, Note_off_c, 1, 62, 0
1, 1480, Note_off_c, 1, 50, 0
1, 1555, Note_on_c, 1, 47, 127
1, 1590, Note_off_c, 1, 71, 0
1, 1600, Note_off_c, 1, 47, 0
1, 1607, Note_off_c, 1, 83, 0
1, 1636, Note_on_c, 1, 74, 127
1, 1645, Note_on_c, 1, 86, 127
1, 1669, Note_on_c, 1, 54, 127
1, 1671, Note_off_c, 1, 74, 0
1, 1674, Note_on_c, 1, 64, 127
1, 1675, Note_off_c, 1, 86, 0
1, 1676, Note_on_c, 1, 70, 127
1, 1677, Note_on_c, 1, 85, 127
1, 1680, Note_on_c, 1, 73, 127
1, 1711, Note_off_c, 1, 70, 0
1, 1717, Note_off_c, 1, 85, 0
1, 1719, Note_off_c, 1, 64, 0
1, 1721, Note_off_c, 1, 54, 0
1, 1726, Note_off_c, 1, 73, 0
1, 1789, Note_on_c, 1, 55, 127
1, 1794, Note_on_c, 1, 71, 127
1, 1794, Note_on_c, 1, 62, 127
1, 1796, Note_on_c, 1, 83, 127
1, 1832, Note_off_c, 1, 62, 0
1, 1837, Note_off_c, 1, 83, 0
1, 1839, Note_off_c, 1, 71, 0
1, 1844, Note_off_c, 1, 55, 0
1, 1910, Note_on_c, 1, 73, 127
1, 1911, Note_on_c, 1, 85, 127
1, 1913, Note_on_c, 1, 52, 127
1, 1915, Note_on_c, 1, 64, 127
1, 1916, Note_on_c, 1, 67, 127
1, 1957, Note_off_c, 1, 64, 0
1, 1957, Note_off_c, 1, 67, 0
1, 1960, Note_off_c, 1, 52, 0
1, 1973, Note_on_c, 1, 71, 127
1, 1973, Note_on_c, 1, 83, 127
1, 1981, Note_off_c, 1, 85, 0
1, 1989, Note_off_c, 1, 73, 0
1, 2032, Note_off_c, 1, 83, 0
1, 2032, Note_on_c, 1, 61, 127
1, 2032, Note_on_c, 1, 54, 127
1, 2033, Note_off_c, 1, 71, 0
1, 2033, Note_on_c, 1, 66, 127
1, 2034, Note_on_c, 1, 70, 127
1, 2036, Note_on_c, 1, 82, 127
1, 2061, Note_off_c, 1, 70, 0
1, 2063, Note_off_c, 1, 82, 0
1, 2069, Note_off_c, 1, 61, 0
1, 2070, Note_off_c, 1, 66, 0
1, 2080, Note_off_c, 1, 54, 0
1, 2091, Note_on_c, 1, 85, 127
1, 2094, Note_on_c, 1, 73, 127
1, 2110, Note_off_c, 1, 85, 0
1, 2116, Note_off_c, 1, 73, 0
1, 2154, Note_on_c, 1, 62, 127
1, 2158, Note_on_c, 1, 66, 127
1, 2160, Note_on_c, 1, 50, 127
1, 2164, Note_on_c, 1, 71, 127
1, 2164, Note_on_c, 1, 83, 127
1, 2197, Note_off_c, 1, 62, 0
1, 2201, Note_off_c, 1, 66, 0
1, 2210, Note_off_c, 1, 50, 0
1, 2284, Note_on_c, 1, 47, 127
1, 2320, Note_off_c, 1, 83, 0
1, 2321, Note_off_c, 1, 71, 0
1, 2330, Note_off_c, 1, 47, 0
1, 2354, Note_on_c, 1, 74, 127
1, 2356, Note_on_c, 1, 86, 127
1, 2389, Note_off_c, 1, 74, 0
1, 2389, Note_off_c, 1, 86, 0
1, 2391, Note_on_c, 1, 85, 127
1, 2392, Note_on_c, 1, 73, 127
1, 2398, Note_on_c, 1, 64, 127
1, 2400, Note_on_c, 1, 67, 127
1, 2403, Note_on_c, 1, 52, 127
1, 2435, Note_off_c, 1, 85, 0
1, 2438, Note_off_c, 1, 73, 0
1, 2439, Note_off_c, 1, 67, 0
1, 2447, Note_off_c, 1, 52, 0
1, 2448, Note_off_c, 1, 64, 0
1, 2508, Note_on_c, 1, 83, 127
1, 2512, Note_on_c, 1, 71, 127
1, 2512, Note_on_c, 1, 66, 127
1, 2520, Note_on_c, 1, 50, 127
1, 2551, Note_off_c, 1, 83, 0
1, 2555, Note_off_c, 1, 71, 0
1, 2559, Note_off_c, 1, 66, 0
1, 2565, Note_off_c, 1, 50, 0
1, 2601, Note_on_c, 1, 67, 127
1, 2624, Note_off_c, 1, 67, 0
1, 2630, Note_on_c, 1, 81, 127
1, 2632, Note_on_c, 1, 69, 127
1, 2634, Note_on_c, 1, 64, 127
1, 2637, Note_on_c, 1, 49, 127
1, 2676, Note_off_c, 1, 81, 0
1, 2676, Note_off_c, 1, 49, 0
1, 2678, Note_off_c, 1, 69, 0
1, 2680, Note_off_c, 1, 64, 0
1, 2748, Note_on_c, 1, 61, 127
1, 2751, Note_on_c, 1, 79, 127
1, 2752, Note_on_c, 1, 67, 127
1, 2755, Note_on_c, 1, 64, 127
1, 2759, Note_on_c, 1, 45, 127
1, 2796, Note_off_c, 1, 61, 0
1, 2799, Note_off_c, 1, 79, 0
1, 2799, Note_off_c, 1, 64, 0
1, 2799, Note_off_c, 1, 45, 0
1, 2803, Note_off_c, 1, 67, 0
1, 2869, Note_on_c, 1, 64, 127
1, 2869, Note_on_c, 1, 79, 127
1, 2871, Note_on_c, 1, 59, 127
1, 2877, Note_on_c, 1, 67, 127
1, 2878, Note_on_c, 1, 50, 127
1, 2912, Note_on_c, 1, 57, 127
1, 2912, Note_on_c, 1, 78, 127
1, 2914, Note_off_c, 1, 79, 0
1, 2916, Note_off_c, 1, 59, 0
1, 2921, Note_on_c, 1, 62, 127
1, 2922, Note_on_c, 1, 66, 127
1, 2924, Note_off_c, 1, 64, 0
1, 2924, Note_off_c, 1, 67, 0
1, 2931, Note_off_c, 1, 78, 0
1, 2935, Note_off_c, 1, 57, 0
1, 2940, Note_off_c, 1, 66, 0
1, 2944, Note_off_c, 1, 62, 0
1, 2990, Note_on_c, 1, 55, 127
1, 2992, Note_on_c, 1, 61, 127
1, 2994, Note_on_c, 1, 76, 127
1, 3050, Note_off_c, 1, 55, 0
1, 3053, Note_off_c, 1, 76, 0
1, 3055, Note_off_c, 1, 61, 0
1, 3114, Note_on_c, 1, 74, 127
1, 3119, Note_on_c, 1, 54, 127
1, 3217, Note_off_c, 1, 50, 0
1, 3228, Note_on_c, 1, 45, 127
1, 3261, Note_off_c, 1, 45, 0
1, 3283, Note_on_c, 1, 42, 127
1, 3317, Note_off_c, 1, 42, 0
1, 3355, Note_on_c, 1, 38, 127
1, 3362, Note_off_c, 1, 74, 0
1, 3370, Note_off_c, 1, 54, 0
1, 3490, Note_off_c, 1, 38, 0
1, 3593, Note_on_c, 1, 50, 127
1, 3599, Note_on_c, 1, 59, 127
1, 3599, Note_on_c, 1, 83, 127
1, 3601, Note_on_c, 1, 71, 127
1, 3601, Note_on_c, 1, 66, 127
1, 3632, Note_off_c, 1, 66, 0
1, 3643, Note_off_c, 1, 50, 0
1, 3643, Note_off_c, 1, 59, 0
1, 3720, Note_on_c, 1, 62, 127
1, 3723, Note_on_c, 1, 47, 127
1, 3749, Note_off_c, 1, 71, 0
1, 3754, Note_off_c, 1, 62, 0
1, 3759, Note_off_c, 1, 83, 0
1, 3770, Note_off_c, 1, 47, 0
1, 3797, Note_on_c, 1, 74, 127
1, 3798, Note_on_c, 1, 86, 127
1, 3830, Note_off_c, 1, 74, 0
1, 3833, Note_off_c, 1, 86, 0
1, 3834, Note_on_c, 1, 73, 127
1, 3839, Note_on_c, 1, 64, 127
1, 3839, Note_on_c, 1, 85, 127
1, 3842, Note_on_c, 1, 67, 127
1, 3843, Note_on_c, 1, 52, 127
1, 3875, Note_off_c, 1, 67, 0
1, 3880, Note_off_c, 1, 73, 0
1, 3884, Note_off_c, 1, 85, 0
1, 3885, Note_off_c, 1, 64, 0
1, 3891, Note_off_c, 1, 52, 0
1, 3957, Note_on_c, 1, 71, 127
1, 3959, Note_on_c, 1, 83, 127
1, 3962, Note_on_c, 1, 55, 127
1, 3963, Note_on_c, 1, 59, 127
1, 3963, Note_on_c, 1, 64, 127
1, 4002, Note_off_c, 1, 59, 0
1, 4005, Note_off_c, 1, 64, 0
1, 4006, Note_off_c, 1, 83, 0
1, 4009, Note_off_c, 1, 71, 0
1, 4011, Note_off_c, 1, 55, 0
1, 4072, Note_on_c, 1, 83, 127
1, 4075, Note_on_c, 1, 71, 127
1, 4079, Note_on_c, 1, 61, 127
1, 4081, Note_on_c, 1, 66, 127
1, 4081, Note_on_c, 1, 54, 127
1, 4105, Note_on_c, 1, 70, 127
1, 4111, Note_off_c, 1, 71, 0
1, 4116, Note_off_c, 1, 61, 0
1, 4116, Note_on_c, 1, 82, 127
1, 4119, Note_off_c, 1, 83, 0
1, 4119, Note_off_c, 1, 66, 0
1, 4123, Note_off_c, 1, 54, 0
1, 4128, Note_off_c, 1, 70, 0
1, 4135, Note_off_c, 1, 82, 0
1, 4197, Note_on_c, 1, 52, 127
1, 4242, Note_off_c, 1, 52, 0
1, 4282, Note_on_c, 1, 85, 127
1, 4284, Note_on_c, 1, 73, 127
1, 4305, Note_off_c, 1, 73, 0
1, 4307, Note_off_c, 1, 85, 0
1, 4314, Note_on_c, 1, 66, 127
1, 4320, Note_on_c, 1, 71, 127
1, 4320, Note_on_c, 1, 50, 127
1, 4321, Note_on_c, 1, 62, 127
1, 4321, Note_on_c, 1, 83, 127
1, 4355, Note_off_c, 1, 66, 0
1, 4362, Note_off_c, 1, 62, 0
1, 4367, Note_off_c, 1, 50, 0
1, 4436, Note_on_c, 1, 47, 127
1, 4469, Note_off_c, 1, 71, 0
1, 4473, Note_off_c, 1, 83, 0
1, 4484, Note_off_c, 1, 47, 0
1, 4517, Note_on_c, 1, 74, 127
1, 4520, Note_on_c, 1, 86, 127
1, 4550, Note_on_c, 1, 54, 127
1, 4551, Note_off_c, 1, 86, 0
1, 4553, Note_off_c, 1, 74, 0
1, 4553, Note_on_c, 1, 70, 127
1, 4553, Note_on_c, 1, 64, 127
1, 4556, Note_on_c, 1, 73, 127
1, 4556, Note_on_c, 1, 85, 127
1, 4596, Note_off_c, 1, 70, 0
1, 4596, Note_off_c, 1, 64, 0
1, 4600, Note_off_c, 1, 85, 0
1, 4602, Note_off_c, 1, 73, 0
1, 4607, Note_off_c, 1, 54, 0
1, 4669, Note_on_c, 1, 71, 127
1, 4669, Note_on_c, 1, 55, 127
1, 4670, Note_on_c, 1, 83, 127
1, 4675, Note_on_c, 1, 62, 127
1, 4714, Note_off_c, 1, 83, 0
1, 4716, Note_off_c, 1, 62, 0
1, 4719, Note_off_c, 1, 71, 0
1, 4722, Note_off_c, 1, 55, 0
1, 4787, Note_on_c, 1, 67, 127
1, 4789, Note_on_c, 1, 85, 127
1, 4791, Note_on_c, 1, 73, 127
1, 4791, Note_on_c, 1, 52, 127
1, 4795, Note_on_c, 1, 64, 127
1, 4830, Note_off_c, 1, 67, 0
1, 4838, Note_off_c, 1, 64, 0
1, 4842, Note_off_c, 1, 52, 0
1, 4850, Note_on_c, 1, 71, 127
1, 4850, Note_on_c, 1, 83, 127
1, 4853, Note_off_c, 1, 85, 0
1, 4862, Note_off_c, 1, 73, 0
1, 4907, Note_on_c, 1, 70, 127
1, 4910, Note_off_c, 1, 71, 0
1, 4910, Note_off_c, 1, 83, 0
1, 4910, Note_on_c, 1, 66, 127
1, 4914, Note_on_c, 1, 82, 127
1, 4916, Note_on_c, 1, 54, 127
1, 4918, Note_on_c, 1, 61, 127
1, 4940, Note_off_c, 1, 70, 0
1, 4946, Note_off_c, 1, 82, 0
1, 4949, Note_off_c, 1, 66, 0
1, 4960, Note_off_c, 1, 61, 0
1, 4961, Note_off_c, 1, 54, 0
1, 4975, Note_on_c, 1, 73, 127
1, 4977, Note_on_c, 1, 85, 127
1, 4997, Note_off_c, 1, 85, 0
1, 4998, Note_off_c, 1, 73, 0
1, 5036, Note_on_c, 1, 66, 127
1, 5040, Note_on_c, 1, 62, 127
1, 5040, Note_on_c, 1, 50, 127
1, 5042, Note_on_c, 1, 83, 127
1, 5043, Note_on_c, 1, 71, 127
1, 5086, Note_off_c, 1, 66, 0
1, 5086, Note_off_c, 1, 50, 0
1, 5088, Note_off_c, 1, 62, 0
1, 5162, Note_on_c, 1, 47, 127
1, 5194, Note_off_c, 1, 83, 0
1, 5198, Note_off_c, 1, 71, 0
1, 5207, Note_off_c, 1, 47, 0
1, 5235, Note_on_c, 1, 74, 127
1, 5238, Note_on_c, 1, 86, 127
1, 5272, Note_off_c, 1, 86, 0
1, 5273, Note_off_c, 1, 74, 0
1, 5274, Note_on_c, 1, 73, 127
1, 5275, Note_on_c, 1, 85, 127
1, 5279, Note_on_c, 1, 67, 127
1, 5284, Note_on_c, 1, 52, 127
1, 5285, Note_on_c, 1, 64, 127
1, 5317, Note_off_c, 1, 85, 0
1, 5321, Note_off_c, 1, 73, 0
1, 5322, Note_off_c, 1, 67, 0
1, 5330, Note_off_c, 1, 52, 0
1, 5332, Note_off_c, 1, 64, 0
1, 5389, Note_on_c, 1, 71, 127
1, 5394, Note_on_c, 1, 83, 127
1, 5396, Note_on_c, 1, 50, 127
1, 5399, Note_on_c, 1, 66, 127
1, 5435, Note_off_c, 1, 83, 0
1, 5439, Note_off_c, 1, 71, 0
1, 5447, Note_off_c, 1, 66, 0
1, 5448, Note_off_c, 1, 50, 0
1, 5481, Note_on_c, 1, 67, 127
1, 5504, Note_off_c, 1, 67, 0
1, 5509, Note_on_c, 1, 69, 127
1, 5515, Note_on_c, 1, 49, 127
1, 5515, Note_on_c, 1, 81, 127
1, 5516, Note_on_c, 1, 64, 127
1, 5559, Note_off_c, 1, 49, 0
1, 5559, Note_off_c, 1, 81, 0
1, 5560, Note_off_c, 1, 69, 0
1, 5560, Note_off_c, 1, 64, 0
1, 5631, Note_on_c, 1, 67, 127
1, 5632, Note_on_c, 1, 64, 127
1, 5632, Note_on_c, 1, 61, 127
1, 5632, Note_on_c, 1, 45, 127
1, 5634, Note_on_c, 1, 79, 127
1, 5671, Note_off_c, 1, 45, 0
1, 5672, Note_off_c, 1, 64, 0
1, 5679, Note_off_c, 1, 61, 0
1, 5682, Note_off_c, 1, 67, 0
1, 5685, Note_off_c, 1, 79, 0
1, 5748, Note_on_c, 1, 64, 127
1, 5751, Note_on_c, 1, 67, 127
1, 5752, Note_on_c, 1, 79, 127
1, 5756, Note_on_c, 1, 59, 127
1, 5757, Note_on_c, 1, 50, 127
1, 5789, Note_on_c, 1, 62, 127
1, 5792, Note_off_c, 1, 64, 0
1, 5798, Note_on_c, 1, 57, 127
1, 5800, Note_on_c, 1, 66, 127
1, 5800, Note_on_c, 1, 78, 127
1, 5802, Note_off_c, 1, 79, 0
1, 5803, Note_off_c, 1, 59, 0
1, 5804, Note_off_c, 1, 67, 0
1, 5809, Note_off_c, 1, 62, 0
1, 5818, Note_off_c, 1, 57, 0
1, 5819, Note_off_c, 1, 78, 0
1, 5820, Note_off_c, 1, 66, 0
1, 5874, Note_on_c, 1, 55, 127
1, 5875, Note_on_c, 1, 61, 127
1, 5878, Note_on_c, 1, 76, 127
1, 5931, Note_off_c, 1, 61, 0
1, 5935, Note_off_c, 1, 55, 0
1, 5939, Note_off_c, 1, 76, 0
1, 5997, Note_on_c, 1, 74, 127
1, 6000, Note_on_c, 1, 54, 127
1, 6093, Note_off_c, 1, 50, 0
1, 6111, Note_on_c, 1, 45, 127
1, 6146, Note_off_c, 1, 45, 0
1, 6165, Note_on_c, 1, 42, 127
1, 6203, Note_off_c, 1, 42, 0
1, 6241, Note_on_c, 1, 38, 127
1, 6242, Note_off_c, 1, 74, 0
1, 6250, Note_off_c, 1, 54, 0
1, 6371, Note_off_c, 1, 38, 0
1, 6475, Note_on_c, 1, 74, 127
1, 6475, Note_on_c, 1, 69, 127
1, 6475, Note_on_c, 1, 57, 127
1, 6478, Note_on_c, 1, 86, 127
1, 6481, Note_on_c, 1, 54, 127
1, 6519, Note_off_c, 1, 57, 0
1, 6519, Note_off_c, 1, 54, 0
1, 6521, Note_off_c, 1, 69, 0
1, 6601, Note_on_c, 1, 50, 127
1, 6633, Note_off_c, 1, 86, 0
1, 6639, Note_off_c, 1, 74, 0
1, 6650, Note_off_c, 1, 50, 0
1, 6670, Note_on_c, 1, 78, 127
1, 6672, Note_on_c, 1, 90, 127
1, 6700, Note_off_c, 1, 90, 0
1, 6701, Note_off_c, 1, 78, 0
1, 6707, Note_on_c, 1, 76, 127
1, 6710, Note_on_c, 1, 71, 127
1, 6711, Note_on_c, 1, 88, 127
1, 6716, Note_on_c, 1, 67, 127
1, 6721, Note_on_c, 1, 55, 127
1, 6751, Note_off_c, 1, 71, 0
1, 6752, Note_off_c, 1, 76, 0
1, 6756, Note_off_c, 1, 88, 0
1, 6761, Note_off_c, 1, 67, 0
1, 6763, Note_off_c, 1, 55, 0
1, 6827, Note_on_c, 1, 64, 127
1, 6829, Note_on_c, 1, 74, 127
1, 6829, Note_on_c, 1, 86, 127
1, 6837, Note_on_c, 1, 71, 127
1, 6837, Note_on_c, 1, 56, 127
1, 6869, Note_off_c, 1, 86, 0
1, 6873, Note_off_c, 1, 64, 0
1, 6875, Note_off_c, 1, 74, 0
1, 6879, Note_off_c, 1, 71, 0
1, 6884, Note_off_c, 1, 56, 0
1, 6946, Note_on_c, 1, 69, 127
1, 6950, Note_on_c, 1, 86, 127
1, 6952, Note_on_c, 1, 74, 127
1, 6955, Note_on_c, 1, 57, 127
1, 6956, Note_on_c, 1, 64, 127
1, 6992, Note_off_c, 1, 69, 0
1, 6998, Note_off_c, 1, 57, 0
1, 6998, Note_off_c, 1, 64, 0
1, 7016, Note_on_c, 1, 85, 127
1, 7018, Note_on_c, 1, 73, 127
1, 7022, Note_off_c, 1, 86, 0
1, 7025, Note_off_c, 1, 74, 0
1, 7072, Note_on_c, 1, 68, 127
1, 7075, Note_on_c, 1, 52, 127
1, 7114, Note_off_c, 1, 68, 0
1, 7115, Note_off_c, 1, 85, 0
1, 7119, Note_off_c, 1, 73, 0
1, 7119, Note_off_c, 1, 52, 0
1, 7129, Note_on_c, 1, 86, 127
1, 7138, Note_on_c, 1, 74, 127
1, 7153, Note_on_c, 1, 88, 127
1, 7158, Note_on_c, 1, 76, 127
1, 7160, Note_off_c, 1, 86, 0
1, 7169, Note_off_c, 1, 74, 0
1, 7172, Note_off_c, 1, 88, 0
1, 7182, Note_off_c, 1, 76, 0
1, 7191, Note_on_c, 1, 69, 127
1, 7193, Note_on_c, 1, 64, 127
1, 7194, Note_on_c, 1, 74, 127
1, 7196, Note_on_c, 1, 86, 127
1, 7198, Note_on_c, 1, 57, 127
1, 7237, Note_off_c, 1, 69, 0
1, 7242, Note_off_c, 1, 64, 0
1, 7245, Note_off_c, 1, 57, 0
1, 7260, Note_on_c, 1, 85, 127
1, 7263, Note_on_c, 1, 73, 127
1, 7267, Note_off_c, 1, 86, 0
1, 7269, Note_off_c, 1, 74, 0
1, 7315, Note_on_c, 1, 58, 127
1, 7316, Note_on_c, 1, 66, 127
1, 7357, Note_off_c, 1, 66, 0
1, 7362, Note_off_c, 1, 58, 0
1, 7376, Note_off_c, 1, 85, 0
1, 7377, Note_off_c, 1, 73, 0
1, 7402, Note_on_c, 1, 76, 127
1, 7405, Note_on_c, 1, 88, 127
1, 7429, Note_off_c, 1, 76, 0
1, 7429, Note_off_c, 1, 88, 0
1, 7434, Note_on_c, 1, 74, 127
1, 7436, Note_on_c, 1, 59, 127
1, 7436, Note_on_c, 1, 86, 127
1, 7437, Note_on_c, 1, 71, 127
1, 7442, Note_on_c, 1, 66, 127
1, 7479, Note_off_c, 1, 74, 0
1, 7479, Note_off_c, 1, 71, 0
1, 7480, Note_off_c, 1, 86, 0
1, 7482, Note_off_c, 1, 66, 0
1, 7484, Note_off_c, 1, 59, 0
1, 7549, Note_on_c, 1, 73, 127
1, 7551, Note_on_c, 1, 85, 127
1, 7552, Note_on_c, 1, 54, 127
1, 7558, Note_on_c, 1, 70, 127
1, 7564, Note_on_c, 1, 64, 127
1, 7601, Note_off_c, 1, 54, 0
1, 7602, Note_off_c, 1, 70, 0
1, 7604, Note_off_c, 1, 73, 0
1, 7606, Note_off_c, 1, 85, 0
1, 7608, Note_off_c, 1, 64, 0
1, 7664, Note_on_c, 1, 73, 127
1, 7669, Note_on_c, 1, 85, 127
1, 7674, Note_on_c, 1, 59, 127
1, 7675, Note_on_c, 1, 62, 127
1, 7677, Note_on_c, 1, 66, 127
1, 7682, Note_on_c, 1, 71, 127
1, 7684, Note_off_c, 1, 73, 0
1, 7685, Note_on_c, 1, 83, 127
1, 7688, Note_off_c, 1, 85, 0
1, 7702, Note_off_c, 1, 71, 0
1, 7709, Note_off_c, 1, 83, 0
1, 7719, Note_off_c, 1, 59, 0
1, 7720, Note_off_c, 1, 66, 0
1, 7723, Note_off_c, 1, 62, 0
1, 7789, Note_on_c, 1, 61, 127
1, 7793, Note_on_c, 1, 70, 127
1, 7794, Note_on_c, 1, 82, 127
1, 7796, Note_on_c, 1, 64, 127
1, 7839, Note_off_c, 1, 61, 0
1, 7839, Note_off_c, 1, 64, 0
1, 7847, Note_off_c, 1, 82, 0
1, 7849, Note_off_c, 1, 70, 0
1, 7910, Note_on_c, 1, 71, 127
1, 7915, Note_on_c, 1, 83, 127
1, 7916, Note_on_c, 1, 59, 127
1, 7917, Note_on_c, 1, 62, 127
1, 7919, Note_on_c, 1, 66, 127
1, 7964, Note_off_c, 1, 59, 0
1, 7968, Note_off_c, 1, 62, 0
1, 7968, Note_off_c, 1, 66, 0
1, 8067, Note_off_c, 1, 83, 0
1, 8081, Note_off_c, 1, 71, 0
1, 8086, Note_on_c, 1, 85, 127
1, 8091, Note_on_c, 1, 73, 127
1, 8108, Note_on_c, 1, 86, 127
1, 8109, Note_on_c, 1, 74, 127
1, 8110, Note_off_c, 1, 85, 0
1, 8118, Note_off_c, 1, 73, 0
1, 8128, Note_off_c, 1, 86, 0
1, 8134, Note_off_c, 1, 74, 0
1, 8149, Note_on_c, 1, 73, 127
1, 8149, Note_on_c, 1, 58, 127
1, 8149, Note_on_c, 1, 85, 127
1, 8156, Note_on_c, 1, 66, 127
1, 8201, Note_off_c, 1, 58, 0
1, 8204, Note_off_c, 1, 66, 0
1, 8264, Note_off_c, 1, 85, 0
1, 8265, Note_on_c, 1, 74, 127
1, 8266, Note_off_c, 1, 73, 0
1, 8267, Note_on_c, 1, 59, 127
1, 8268, Note_on_c, 1, 86, 127
1, 8269, Note_on_c, 1, 71, 127
1, 8296, Note_off_c, 1, 74, 0
1, 8298, Note_off_c, 1, 86, 0
1, 8311, Note_off_c, 1, 59, 0
1, 8312, Note_off_c, 1, 71, 0
1, 8329, Note_on_c, 1, 90, 127
1, 8331, Note_on_c, 1, 78, 127
1, 8354, Note_off_c, 1, 90, 0
1, 8360, Note_off_c, 1, 78, 0
1, 8389, Note_on_c, 1, 71, 127
1, 8390, Note_on_c, 1, 67, 127
1, 8390, Note_on_c, 1, 88, 127
1, 8392, Note_on_c, 1, 76, 127
1, 8392, Note_on_c, 1, 52, 127
1, 8430, Note_off_c, 1, 71, 0
1, 8430, Note_off_c, 1, 67, 0
1, 8432, Note_off_c, 1, 52, 0
1, 8449, Note_on_c, 1, 74, 127
1, 8449, Note_on_c, 1, 86, 127
1, 8456, Note_off_c, 1, 88, 0
1, 8456, Note_off_c, 1, 76, 0
1, 8474, Note_off_c, 1, 86, 0
1, 8485, Note_off_c, 1, 74, 0
1, 8506, Note_on_c, 1, 76, 127
1, 8511, Note_on_c, 1, 59, 127
1, 8512, Note_on_c, 1, 55, 127
1, 8513, Note_on_c, 1, 73, 127
1, 8513, Note_on_c, 1, 85, 127
1, 8548, Note_off_c, 1, 76, 0
1, 8551, Note_off_c, 1, 59, 0
1, 8559, Note_off_c, 1, 55, 0
1, 8568, Note_on_c, 1, 83, 127
1, 8571, Note_on_c, 1, 71, 127
1, 8574, Note_off_c, 1, 85, 0
1, 8582, Note_off_c, 1, 73, 0
1, 8597, Note_off_c, 1, 83, 0
1, 8605, Note_off_c, 1, 71, 0
1, 8631, Note_on_c, 1, 73, 127
1, 8631, Note_on_c, 1, 70, 127
1, 8631, Note_on_c, 1, 66, 127
1, 8632, Note_on_c, 1, 85, 127
1, 8635, Note_on_c, 1, 54, 127
1, 8673, Note_off_c, 1, 66, 0
1, 8677, Note_off_c, 1, 70, 0
1, 8687, Note_on_c, 1, 83, 127
1, 8690, Note_off_c, 1, 85, 0
1, 8690, Note_on_c, 1, 71, 127
1, 8699, Note_off_c, 1, 73, 0
1, 8719, Note_off_c, 1, 83, 0
1, 8729, Note_off_c, 1, 71, 0
1, 8749, Note_on_c, 1, 82, 127
1, 8752, Note_on_c, 1, 61, 127
1, 8793, Note_off_c, 1, 61, 0
1, 8804, Note_on_c, 1, 80, 127
1, 8808, Note_on_c, 1, 68, 127
1, 8814, Note_off_c, 1, 82, 0
1, 8844, Note_off_c, 1, 80, 0
1, 8848, Note_off_c, 1, 68, 0
1, 8873, Note_on_c, 1, 58, 127
1, 8876, Note_on_c, 1, 78, 127
1, 8951, Note_off_c, 1, 54, 0
1, 8991, Note_on_c, 1, 55, 127
1, 9039, Note_off_c, 1, 55, 0
1, 9136, Note_off_c, 1, 58, 0
1, 9137, Note_off_c, 1, 78, 0
1, 9237, Note_on_c, 1, 52, 127
1, 9286, Note_off_c, 1, 52, 0
1, 9355, Note_on_c, 1, 71, 127
1, 9358, Note_on_c, 1, 59, 127
1, 9358, Note_on_c, 1, 83, 127
1, 9360, Note_on_c, 1, 66, 127
1, 9363, Note_on_c, 1, 50, 127
1, 9404, Note_off_c, 1, 66, 0
1, 9407, Note_off_c, 1, 59, 0
1, 9417, Note_off_c, 1, 50, 0
1, 9476, Note_on_c, 1, 62, 127
1, 9482, Note_on_c, 1, 47, 127
1, 9507, Note_off_c, 1, 71, 0
1, 9507, Note_off_c, 1, 83, 0
1, 9519, Note_off_c, 1, 62, 0
1, 9533, Note_off_c, 1, 47, 0
1, 9557, Note_on_c, 1, 74, 127
1, 9560, Note_on_c, 1, 86, 127
1, 9588, Note_off_c, 1, 74, 0
1, 9592, Note_off_c, 1, 86, 0
1, 9593, Note_on_c, 1, 73, 127
1, 9595, Note_on_c, 1, 64, 127
1, 9597, Note_on_c, 1, 67, 127
1, 9597, Note_on_c, 1, 85, 127
1, 9603, Note_on_c, 1, 52, 127
1, 9632, Note_off_c, 1, 85, 0
1, 9639, Note_off_c, 1, 73, 0
1, 9640, Note_off_c, 1, 67, 0
1, 9643, Note_off_c, 1, 64, 0
1, 9648, Note_off_c, 1, 52, 0
1, 9715, Note_on_c, 1, 71, 127
1, 9715, Note_on_c, 1, 83, 127
1, 9717, Note_on_c, 1, 55, 127
1, 9720, Note_on_c, 1, 59, 127
1, 9721, Note_on_c, 1, 64, 127
1, 9755, Note_off_c, 1, 83, 0
1, 9762, Note_off_c, 1, 71, 0
1, 9767, Note_off_c, 1, 55, 0
1, 9768, Note_off_c, 1, 59, 0
1, 9773, Note_off_c, 1, 64, 0
1, 9835, Note_on_c, 1, 61, 127
1, 9835, Note_on_c, 1, 54, 127
1, 9835, Note_on_c, 1, 83, 127
1, 9836, Note_on_c, 1, 71, 127
1, 9839, Note_on_c, 1, 66, 127
1, 9879, Note_off_c, 1, 66, 0
1, 9884, Note_off_c, 1, 54, 0
1, 9886, Note_off_c, 1, 61, 0
1, 9890, Note_on_c, 1, 82, 127
1, 9897, Note_on_c, 1, 70, 127
1, 9900, Note_off_c, 1, 83, 0
1, 9906, Note_off_c, 1, 71, 0
1, 9956, Note_on_c, 1, 52, 127
1, 9987, Note_off_c, 1, 82, 0
1, 9996, Note_off_c, 1, 70, 0
1, 10002, Note_off_c, 1, 52, 0
1, 10014, Note_on_c, 1, 83, 127
1, 10019, Note_on_c, 1, 71, 127
1, 10039, Note_on_c, 1, 85, 127
1, 10043, Note_off_c, 1, 83, 0
1, 10045, Note_on_c, 1, 73, 127
1, 10050, Note_off_c, 1, 71, 0
1, 10060, Note_off_c, 1, 85, 0
1, 10070, Note_on_c, 1, 66, 127
1, 10072, Note_off_c, 1, 73, 0
1, 10076, Note_on_c, 1, 50, 127
1, 10080, Note_on_c, 1, 78, 127
1, 10083, Note_on_c, 1, 59, 127
1, 10125, Note_off_c, 1, 50, 0
1, 10128, Note_off_c, 1, 59, 0
1, 10193, Note_on_c, 1, 54, 127
1, 10195, Note_on_c, 1, 47, 127
1, 10196, Note_on_c, 1, 62, 127
1, 10224, Note_off_c, 1, 66, 0
1, 10234, Note_off_c, 1, 62, 0
1, 10238, Note_off_c, 1, 78, 0
1, 10241, Note_off_c, 1, 54, 0
1, 10243, Note_off_c, 1, 47, 0
1, 10273, Note_on_c, 1, 71, 127
1, 10284, Note_on_c, 1, 83, 127
1, 10306, Note_on_c, 1, 70, 127
1, 10306, Note_on_c, 1, 49, 127
1, 10308, Note_off_c, 1, 71, 0
1, 10312, Note_on_c, 1, 61, 127
1, 10315, Note_on_c, 1, 64, 127
1, 10320, Note_on_c, 1, 82, 127
1, 10322, Note_off_c, 1, 83, 0
1, 10352, Note_off_c, 1, 70, 0
1, 10358, Note_off_c, 1, 61, 0
1, 10358, Note_off_c, 1, 82, 0
1, 10361, Note_off_c, 1, 49, 0
1, 10367, Note_off_c, 1, 64, 0
1, 10431, Note_on_c, 1, 50, 127
1, 10432, Note_on_c, 1, 71, 127
1, 10432, Note_on_c, 1, 59, 127
1, 10434, Note_on_c, 1, 66, 127
1, 10435, Note_on_c, 1, 83, 127
1, 10474, Note_off_c, 1, 71, 0
1, 10479, Note_off_c, 1, 83, 0
1, 10483, Note_off_c, 1, 59, 0
1, 10489, Note_off_c, 1, 50, 0
1, 10505, Note_off_c, 1, 66, 0
1, 10518, Note_on_c, 1, 64, 127
1, 10542, Note_off_c, 1, 64, 0
1, 10550, Note_on_c, 1, 66, 127
1, 10555, Note_on_c, 1, 59, 127
1, 10555, Note_on_c, 1, 51, 127
1, 10562, Note_on_c, 1, 78, 127
1, 10601, Note_off_c, 1, 59, 0
1, 10604, Note_off_c, 1, 51, 0
1, 10678, Note_on_c, 1, 63, 127
1, 10679, Note_on_c, 1, 47, 127
1, 10696, Note_off_c, 1, 66, 0
1, 10697, Note_off_c, 1, 78, 0
1, 10721, Note_off_c, 1, 63, 0
1, 10726, Note_on_c, 1, 67, 127
1, 10729, Note_off_c, 1, 47, 0
1, 10733, Note_on_c, 1, 79, 127
1, 10750, Note_on_c, 1, 69, 127
1, 10756, Note_on_c, 1, 81, 127
1, 10759, Note_off_c, 1, 67, 0
1, 10763, Note_off_c, 1, 79, 0
1, 10773, Note_off_c, 1, 69, 0
1, 10776, Note_off_c, 1, 81, 0
1, 10796, Note_on_c, 1, 64, 127
1, 10796, Note_on_c, 1, 52, 127
1, 10797, Note_on_c, 1, 69, 127
1, 10798, Note_on_c, 1, 59, 127
1, 10803, Note_on_c, 1, 81, 127
1, 10844, Note_off_c, 1, 52, 0
1, 10848, Note_off_c, 1, 64, 0
1, 10850, Note_off_c, 1, 59, 0
1, 10862, Note_on_c, 1, 67, 127
1, 10865, Note_on_c, 1, 79, 127
1, 10866, Note_off_c, 1, 69, 0
1, 10867, Note_off_c, 1, 81, 0
1, 10918, Note_on_c, 1, 49, 127
1, 10961, Note_off_c, 1, 67, 0
1, 10969, Note_off_c, 1, 49, 0
1, 10972, Note_off_c, 1, 79, 0
1, 11002, Note_on_c, 1, 76, 127
1, 11009, Note_on_c, 1, 88, 127
1, 11026, Note_off_c, 1, 76, 0
1, 11035, Note_on_c, 1, 70, 127
1, 11035, Note_on_c, 1, 54, 127
1, 11036, Note_on_c, 1, 66, 127
1, 11037, Note_off_c, 1, 88, 0
1, 11039, Note_on_c, 1, 82, 127
1, 11040, Note_on_c, 1, 61, 127
1, 11085, Note_off_c, 1, 54, 0
1, 11087, Note_off_c, 1, 61, 0
1, 11089, Note_off_c, 1, 70, 0
1, 11089, Note_off_c, 1, 82, 0
1, 11105, Note_off_c, 1, 66, 0
1, 11120, Note_on_c, 1, 67, 127
1, 11122, Note_on_c, 1, 52, 127
1, 11145, Note_off_c, 1, 67, 0
1, 11152, Note_off_c, 1, 52, 0
1, 11153, Note_on_c, 1, 66, 127
1, 11155, Note_on_c, 1, 50, 127
1, 11158, Note_on_c, 1, 71, 127
1, 11158, Note_on_c, 1, 83, 127
1, 11161, Note_on_c, 1, 59, 127
1, 11201, Note_off_c, 1, 83, 0
1, 11201, Note_off_c, 1, 59, 0
1, 11203, Note_off_c, 1, 71, 0
1, 11212, Note_off_c, 1, 50, 0
1, 11219, Note_off_c, 1, 66, 0
1, 11239, Note_on_c, 1, 64, 127
1, 11243, Note_on_c, 1, 52, 127
1, 11266, Note_off_c, 1, 64, 0
1, 11269, Note_off_c, 1, 52, 0
1, 11274, Note_on_c, 1, 62, 127
1, 11275, Note_on_c, 1, 66, 127
1, 11276, Note_on_c, 1, 78, 127
1, 11280, Note_on_c, 1, 54, 127
1, 11281, Note_on_c, 1, 59, 127
1, 11321, Note_off_c, 1, 78, 0
1, 11324, Note_off_c, 1, 66, 0
1, 11324, Note_off_c, 1, 54, 0
1, 11326, Note_off_c, 1, 59, 0
1, 11327, Note_off_c, 1, 62, 0
1, 11389, Note_on_c, 1, 64, 127
1, 11392, Note_on_c, 1, 76, 127
1, 11395, Note_on_c, 1, 58, 127
1, 11398, Note_on_c, 1, 61, 127
1, 11401, Note_on_c, 1, 42, 127
1, 11433, Note_off_c, 1, 58, 0
1, 11440, Note_off_c, 1, 64, 0
1, 11442, Note_off_c, 1, 76, 0
1, 11450, Note_off_c, 1, 42, 0
1, 11451, Note_off_c, 1, 61, 0
1, 11509, Note_on_c, 1, 64, 127
1, 11512, Note_on_c, 1, 61, 127
1, 11512, Note_on_c, 1, 54, 127
1, 11516, Note_on_c, 1, 76, 127
1, 11521, Note_on_c, 1, 47, 127
1, 11554, Note_on_c, 1, 62, 127
1, 11554, Note_on_c, 1, 74, 127
1, 11556, Note_on_c, 1, 59, 127
1, 11559, Note_off_c, 1, 64, 0
1, 11560, Note_off_c, 1, 61, 0
1, 11560, Note_off_c, 1, 76, 0
1, 11578, Note_off_c, 1, 62, 0
1, 11578, Note_off_c, 1, 74, 0
1, 11584, Note_off_c, 1, 59, 0
1, 11624, Note_off_c, 1, 54, 0
1, 11626, Note_on_c, 1, 73, 127
1, 11629, Note_on_c, 1, 58, 127
1, 11632, Note_on_c, 1, 52, 127
1, 11678, Note_off_c, 1, 52, 0
1, 11683, Note_off_c, 1, 58, 0
1, 11690, Note_off_c, 1, 73, 0
1, 11755, Note_on_c, 1, 71, 127
1, 11756, Note_on_c, 1, 50, 127
1, 11864, Note_off_c, 1, 47, 0
1, 12004, Note_off_c, 1, 71, 0
1, 12013, Note_off_c, 1, 50, 0
1, 12236, Note_on_c, 1, 69, 127
1, 12236, Note_on_c, 1, 57, 127
1, 12238, Note_on_c, 1, 74, 127
1, 12240, Note_on_c, 1, 86, 127
1, 12243, Note_on_c, 1, 54, 127
1, 12282, Note_off_c, 1, 54, 0
1, 12284, Note_off_c, 1, 69, 0
1, 12287, Note_off_c, 1, 57, 0
1, 12362, Note_on_c, 1, 50, 127
1, 12393, Note_off_c, 1, 86, 0
1, 12403, Note_off_c, 1, 74, 0
1, 12410, Note_off_c, 1, 50, 0
1, 12434, Note_on_c, 1, 78, 127
1, 12442, Note_on_c, 1, 90, 127
1, 12462, Note_off_c, 1, 78, 0
1, 12469, Note_off_c, 1, 90, 0
1, 12471, Note_on_c, 1, 76, 127
1, 12477, Note_on_c, 1, 71, 127
1, 12477, Note_on_c, 1, 88, 127
1, 12480, Note_on_c, 1, 55, 127
1, 12485, Note_on_c, 1, 67, 127
1, 12515, Note_off_c, 1, 76, 0
1, 12523, Note_off_c, 1, 71, 0
1, 12530, Note_off_c, 1, 88, 0
1, 12532, Note_off_c, 1, 55, 0
1, 12534, Note_off_c, 1, 67, 0
1, 12593, Note_on_c, 1, 74, 127
1, 12598, Note_on_c, 1, 64, 127
1, 12598, Note_on_c, 1, 71, 127
1, 12600, Note_on_c, 1, 56, 127
1, 12600, Note_on_c, 1, 86, 127
1, 12634, Note_off_c, 1, 74, 0
1, 12644, Note_off_c, 1, 86, 0
1, 12646, Note_off_c, 1, 64, 0
1, 12646, Note_off_c, 1, 71, 0
1, 12649, Note_off_c, 1, 56, 0
1, 12708, Note_on_c, 1, 74, 127
1, 12713, Note_on_c, 1, 86, 127
1, 12718, Note_on_c, 1, 69, 127
1, 12720, Note_on_c, 1, 64, 127
1, 12723, Note_on_c, 1, 57, 127
1, 12747, Note_on_c, 1, 73, 127
1, 12751, Note_off_c, 1, 74, 0
1, 12762, Note_off_c, 1, 69, 0
1, 12762, Note_off_c, 1, 64, 0
1, 12764, Note_on_c, 1, 85, 127
1, 12766, Note_off_c, 1, 57, 0
1, 12766, Note_off_c, 1, 73, 0
1, 12767, Note_off_c, 1, 86, 0
1, 12781, Note_off_c, 1, 85, 0
1, 12835, Note_on_c, 1, 68, 127
1, 12837, Note_on_c, 1, 52, 127
1, 12879, Note_off_c, 1, 68, 0
1, 12881, Note_off_c, 1, 52, 0
1, 12909, Note_on_c, 1, 76, 127
1, 12915, Note_on_c, 1, 88, 127
1, 12931, Note_off_c, 1, 76, 0
1, 12937, Note_off_c, 1, 88, 0
1, 12946, Note_on_c, 1, 74, 127
1, 12951, Note_on_c, 1, 86, 127
1, 12954, Note_on_c, 1, 69, 127
1, 12956, Note_on_c, 1, 57, 127
1, 12957, Note_on_c, 1, 64, 127
1, 13001, Note_off_c, 1, 64, 0
1, 13003, Note_off_c, 1, 69, 0
1, 13005, Note_off_c, 1, 57, 0
1, 13013, Note_on_c, 1, 73, 127
1, 13019, Note_off_c, 1, 74, 0
1, 13021, Note_on_c, 1, 85, 127
1, 13022, Note_off_c, 1, 86, 0
1, 13073, Note_on_c, 1, 66, 127
1, 13075, Note_on_c, 1, 58, 127
1, 13113, Note_off_c, 1, 66, 0
1, 13123, Note_off_c, 1, 58, 0
1, 13128, Note_off_c, 1, 85, 0
1, 13136, Note_off_c, 1, 73, 0
1, 13163, Note_on_c, 1, 76, 127
1, 13165, Note_on_c, 1, 88, 127
1, 13184, Note_off_c, 1, 76, 0
1, 13187, Note_off_c, 1, 88, 0
1, 13191, Note_on_c, 1, 86, 127
1, 13192, Note_on_c, 1, 74, 127
1, 13196, Note_on_c, 1, 59, 127
1, 13198, Note_on_c, 1, 66, 127
1, 13200, Note_on_c, 1, 71, 127
1, 13237, Note_off_c, 1, 86, 0
1, 13240, Note_off_c, 1, 74, 0
1, 13244, Note_off_c, 1, 71, 0
1, 13246, Note_off_c, 1, 66, 0
1, 13247, Note_off_c, 1, 59, 0
1, 13307, Note_on_c, 1, 73, 127
1, 13312, Note_on_c, 1, 85, 127
1, 13317, Note_on_c, 1, 54, 127
1, 13318, Note_on_c, 1, 64, 127
1, 13320, Note_on_c, 1, 70, 127
1, 13362, Note_off_c, 1, 70, 0
1, 13364, Note_off_c, 1, 64, 0
1, 13365, Note_off_c, 1, 73, 0
1, 13366, Note_off_c, 1, 54, 0
1, 13369, Note_off_c, 1, 85, 0
1, 13426, Note_on_c, 1, 85, 127
1, 13428, Note_on_c, 1, 73, 127
1, 13432, Note_on_c, 1, 59, 127
1, 13433, Note_on_c, 1, 66, 127
1, 13433, Note_on_c, 1, 62, 127
1, 13443, Note_off_c, 1, 85, 0
1, 13443, Note_on_c, 1, 83, 127
1, 13445, Note_on_c, 1, 71, 127
1, 13447, Note_off_c, 1, 73, 0
1, 13463, Note_off_c, 1, 83, 0
1, 13464, Note_off_c, 1, 71, 0
1, 13479, Note_off_c, 1, 66, 0
1, 13482, Note_off_c, 1, 62, 0
1, 13484, Note_off_c, 1, 59, 0
1, 13550, Note_on_c, 1, 61, 127
1, 13551, Note_on_c, 1, 64, 127
1, 13557, Note_on_c, 1, 70, 127
1, 13563, Note_on_c, 1, 82, 127
1, 13599, Note_off_c, 1, 64, 0
1, 13600, Note_off_c, 1, 61, 0
1, 13607, Note_off_c, 1, 70, 0
1, 13611, Note_off_c, 1, 82, 0
1, 13676, Note_on_c, 1, 71, 127
1, 13676, Note_on_c, 1, 66, 127
1, 13676, Note_on_c, 1, 59, 127
1, 13677, Note_on_c, 1, 62, 127
1, 13677, Note_on_c, 1, 83, 127
1, 13726, Note_off_c, 1, 62, 0
1, 13727, Note_off_c, 1, 59, 0
1, 13736, Note_off_c, 1, 66, 0
1, 13836, Note_off_c, 1, 83, 0
1, 13841, Note_off_c, 1, 71, 0
1, 13848, Note_on_c, 1, 73, 127
1, 13848, Note_on_c, 1, 85, 127
1, 13868, Note_on_c, 1, 74, 127
1, 13872, Note_on_c, 1, 86, 127
1, 13875, Note_off_c, 1, 73, 0
1, 13876, Note_off_c, 1, 85, 0
1, 13891, Note_off_c, 1, 74, 0
1, 13892, Note_off_c, 1, 86, 0
1, 13912, Note_on_c, 1, 85, 127
1, 13914, Note_on_c, 1, 73, 127
1, 13914, Note_on_c, 1, 66, 127
1, 13917, Note_on_c, 1, 58, 127
1, 13956, Note_off_c, 1, 58, 0
1, 13964, Note_off_c, 1, 66, 0
1, 14025, Note_off_c, 1, 85, 0
1, 14028, Note_on_c, 1, 86, 127
1, 14030, Note_on_c, 1, 74, 127
1, 14031, Note_on_c, 1, 59, 127
1, 14032, Note_on_c, 1, 71, 127
1, 14040, Note_off_c, 1, 73, 0
1, 14054, Note_off_c, 1, 86, 0
1, 14060, Note_off_c, 1, 74, 0
1, 14076, Note_off_c, 1, 59, 0
1, 14079, Note_off_c, 1, 71, 0
1, 14091, Note_on_c, 1, 90, 127
1, 14094, Note_on_c, 1, 78, 127
1, 14117, Note_off_c, 1, 90, 0
1, 14120, Note_off_c, 1, 78, 0
1, 14148, Note_on_c, 1, 71, 127
1, 14148, Note_on_c, 1, 52, 127
1, 14152, Note_on_c, 1, 67, 127
1, 14156, Note_on_c, 1, 76, 127
1, 14156, Note_on_c, 1, 88, 127
1, 14192, Note_off_c, 1, 67, 0
1, 14194, Note_off_c, 1, 52, 0
1, 14199, Note_off_c, 1, 71, 0
1, 14214, Note_on_c, 1, 74, 127
1, 14214, Note_on_c, 1, 86, 127
1, 14222, Note_off_c, 1, 76, 0
1, 14223, Note_off_c, 1, 88, 0
1, 14239, Note_off_c, 1, 86, 0
1, 14253, Note_off_c, 1, 74, 0
1, 14268, Note_on_c, 1, 55, 127
1, 14272, Note_on_c, 1, 76, 127
1, 14277, Note_on_c, 1, 85, 127
1, 14278, Note_on_c, 1, 59, 127
1, 14280, Note_on_c, 1, 73, 127
1, 14315, Note_off_c, 1, 55, 0
1, 14316, Note_off_c, 1, 76, 0
1, 14316, Note_off_c, 1, 59, 0
1, 14332, Note_on_c, 1, 83, 127
1, 14336, Note_on_c, 1, 71, 127
1, 14340, Note_off_c, 1, 85, 0
1, 14343, Note_off_c, 1, 73, 0
1, 14360, Note_off_c, 1, 83, 0
1, 14369, Note_off_c, 1, 71, 0
1, 14395, Note_on_c, 1, 54, 127
1, 14395, Note_on_c, 1, 85, 127
1, 14397, Note_on_c, 1, 70, 127
1, 14397, Note_on_c, 1, 66, 127
1, 14400, Note_on_c, 1, 73, 127
1, 14439, Note_off_c, 1, 66, 0
1, 14440, Note_off_c, 1, 70, 0
1, 14448, Note_on_c, 1, 83, 127
1, 14453, Note_on_c, 1, 71, 127
1, 14457, Note_off_c, 1, 85, 0
1, 14460, Note_off_c, 1, 73, 0
1, 14477, Note_off_c, 1, 83, 0
1, 14487, Note_off_c, 1, 71, 0
1, 14514, Note_on_c, 1, 82, 127
1, 14515, Note_on_c, 1, 61, 127
1, 14549, Note_off_c, 1, 82, 0
1, 14560, Note_off_c, 1, 61, 0
1, 14592, Note_on_c, 1, 80, 127
1, 14596, Note_on_c, 1, 68, 127
1, 14621, Note_off_c, 1, 80, 0
1, 14625, Note_off_c, 1, 68, 0
1, 14632, Note_on_c, 1, 58, 127
1, 14640, Note_on_c, 1, 78, 127
1, 14717, Note_off_c, 1, 54, 0
1, 14752, Note_on_c, 1, 55, 127
1, 14804, Note_off_c, 1, 55, 0
1, 14888, Note_off_c, 1, 58, 0
1, 14895, Note_off_c, 1, 78, 0
1, 14993, Note_on_c, 1, 52, 127
1, 15039, Note_off_c, 1, 52, 0
1, 15114, Note_on_c, 1, 59, 127
1, 15117, Note_on_c, 1, 71, 127
1, 15117, Note_on_c, 1, 50, 127
1, 15118, Note_on_c, 1, 83, 127
1, 15119, Note_on_c, 1, 66, 127
1, 15159, Note_off_c, 1, 66, 0
1, 15166, Note_off_c, 1, 59, 0
1, 15168, Note_off_c, 1, 50, 0
1, 15232, Note_on_c, 1, 47, 127
1, 15235, Note_on_c, 1, 62, 127
1, 15258, Note_off_c, 1, 71, 0
1, 15272, Note_off_c, 1, 83, 0
1, 15278, Note_off_c, 1, 62, 0
1, 15290, Note_off_c, 1, 47, 0
1, 15312, Note_on_c, 1, 74, 127
1, 15320, Note_on_c, 1, 86, 127
1, 15344, Note_off_c, 1, 74, 0
1, 15348, Note_off_c, 1, 86, 0
1, 15348, Note_on_c, 1, 73, 127
1, 15352, Note_on_c, 1, 85, 127
1, 15354, Note_on_c, 1, 52, 127
1, 15357, Note_on_c, 1, 64, 127
1, 15360, Note_on_c, 1, 67, 127
1, 15388, Note_off_c, 1, 85, 0
1, 15390, Note_off_c, 1, 73, 0
1, 15397, Note_off_c, 1, 64, 0
1, 15397, Note_off_c, 1, 67, 0
1, 15400, Note_off_c, 1, 52, 0
1, 15472, Note_on_c, 1, 83, 127
1, 15473, Note_on_c, 1, 71, 127
1, 15474, Note_on_c, 1, 55, 127
1, 15475, Note_on_c, 1, 64, 127
1, 15480, Note_on_c, 1, 59, 127
1, 15513, Note_off_c, 1, 71, 0
1, 15514, Note_off_c, 1, 83, 0
1, 15520, Note_off_c, 1, 59, 0
1, 15523, Note_off_c, 1, 64, 0
1, 15527, Note_off_c, 1, 55, 0
1, 15588, Note_on_c, 1, 71, 127
1, 15591, Note_on_c, 1, 66, 127
1, 15591, Note_on_c, 1, 83, 127
1, 15593, Note_on_c, 1, 54, 127
1, 15596, Note_on_c, 1, 61, 127
1, 15634, Note_on_c, 1, 70, 127
1, 15637, Note_off_c, 1, 71, 0
1, 15637, Note_off_c, 1, 66, 0
1, 15638, Note_off_c, 1, 61, 0
1, 15638, Note_on_c, 1, 82, 127
1, 15640, Note_off_c, 1, 83, 0
1, 15647, Note_off_c, 1, 54, 0
1, 15652, Note_off_c, 1, 70, 0
1, 15656, Note_off_c, 1, 82, 0
1, 15714, Note_on_c, 1, 52, 127
1, 15760, Note_off_c, 1, 52, 0
1, 15794, Note_on_c, 1, 85, 127
1, 15802, Note_on_c, 1, 73, 127
1, 15816, Note_off_c, 1, 85, 0
1, 15824, Note_off_c, 1, 73, 0
1, 15829, Note_on_c, 1, 66, 127
1, 15832, Note_on_c, 1, 50, 127
1, 15836, Note_on_c, 1, 59, 127
1, 15836, Note_on_c, 1, 78, 127
1, 15878, Note_off_c, 1, 50, 0
1, 15884, Note_off_c, 1, 59, 0
1, 15948, Note_on_c, 1, 47, 127
1, 15955, Note_on_c, 1, 62, 127
1, 15958, Note_on_c, 1, 54, 127
1, 15982, Note_off_c, 1, 78, 0
1, 15986, Note_off_c, 1, 66, 0
1, 16000, Note_off_c, 1, 62, 0
1, 16003, Note_off_c, 1, 47, 0
1, 16004, Note_off_c, 1, 54, 0
1, 16032, Note_on_c, 1, 71, 127
1, 16039, Note_on_c, 1, 83, 127
1, 16068, Note_on_c, 1, 82, 127
1, 16070, Note_off_c, 1, 71, 0
1, 16071, Note_on_c, 1, 70, 127
1, 16072, Note_off_c, 1, 83, 0
1, 16074, Note_on_c, 1, 49, 127
1, 16075, Note_on_c, 1, 61, 127
1, 16077, Note_on_c, 1, 64, 127
1, 16103, Note_off_c, 1, 82, 0
1, 16119, Note_off_c, 1, 70, 0
1, 16119, Note_off_c, 1, 49, 0
1, 16125, Note_off_c, 1, 61, 0
1, 16127, Note_off_c, 1, 64, 0
1, 16191, Note_on_c, 1, 71, 127
1, 16192, Note_on_c, 1, 83, 127
1, 16193, Note_on_c, 1, 59, 127
1, 16194, Note_on_c, 1, 66, 127
1, 16194, Note_on_c, 1, 50, 127
1, 16229, Note_off_c, 1, 83, 0
1, 16236, Note_off_c, 1, 71, 0
1, 16243, Note_off_c, 1, 59, 0
1, 16247, Note_off_c, 1, 50, 0
1, 16251, Note_off_c, 1, 66, 0
1, 16283, Note_on_c, 1, 64, 127
1, 16311, Note_on_c, 1, 66, 127
1, 16316, Note_on_c, 1, 51, 127
1, 16317, Note_off_c, 1, 64, 0
1, 16317, Note_on_c, 1, 59, 127
1, 16317, Note_on_c, 1, 78, 127
1, 16365, Note_off_c, 1, 59, 0
1, 16368, Note_off_c, 1, 51, 0
1, 16433, Note_on_c, 1, 63, 127
1, 16439, Note_on_c, 1, 47, 127
1, 16457, Note_off_c, 1, 78, 0
1, 16458, Note_off_c, 1, 66, 0
1, 16475, Note_off_c, 1, 63, 0
1, 16481, Note_off_c, 1, 47, 0
1, 16485, Note_on_c, 1, 67, 127
1, 16492, Note_on_c, 1, 79, 127
1, 16507, Note_on_c, 1, 69, 127
1, 16511, Note_on_c, 1, 81, 127
1, 16516, Note_off_c, 1, 67, 0
1, 16517, Note_off_c, 1, 79, 0
1, 16528, Note_off_c, 1, 69, 0
1, 16530, Note_off_c, 1, 81, 0
1, 16549, Note_on_c, 1, 64, 127
1, 16555, Note_on_c, 1, 69, 127
1, 16555, Note_on_c, 1, 59, 127
1, 16556, Note_on_c, 1, 52, 127
1, 16557, Note_on_c, 1, 81, 127
1, 16600, Note_off_c, 1, 64, 0
1, 16607, Note_off_c, 1, 52, 0
1, 16610, Note_off_c, 1, 59, 0
1, 16619, Note_on_c, 1, 67, 127
1, 16622, Note_on_c, 1, 79, 127
1, 16626, Note_off_c, 1, 69, 0
1, 16627, Note_off_c, 1, 81, 0
1, 16675, Note_on_c, 1, 49, 127
1, 16724, Note_off_c, 1, 79, 0
1, 16725, Note_off_c, 1, 67, 0
1, 16725, Note_off_c, 1, 49, 0
1, 16760, Note_on_c, 1, 76, 127
1, 16767, Note_on_c, 1, 88, 127
1, 16783, Note_off_c, 1, 76, 0
1, 16791, Note_on_c, 1, 70, 127
1, 16792, Note_off_c, 1, 88, 0
1, 16792, Note_on_c, 1, 66, 127
1, 16798, Note_on_c, 1, 54, 127
1, 16798, Note_on_c, 1, 82, 127
1, 16800, Note_on_c, 1, 61, 127
1, 16842, Note_off_c, 1, 66, 0
1, 16843, Note_off_c, 1, 70, 0
1, 16845, Note_off_c, 1, 54, 0
1, 16845, Note_off_c, 1, 61, 0
1, 16850, Note_off_c, 1, 82, 0
1, 16879, Note_on_c, 1, 67, 127
1, 16884, Note_on_c, 1, 52, 127
1, 16906, Note_off_c, 1, 67, 0
1, 16912, Note_on_c, 1, 66, 127
1, 16913, Note_on_c, 1, 71, 127
1, 16915, Note_on_c, 1, 59, 127
1, 16917, Note_off_c, 1, 52, 0
1, 16918, Note_on_c, 1, 50, 127
1, 16919, Note_on_c, 1, 83, 127
1, 16955, Note_off_c, 1, 66, 0
1, 16963, Note_off_c, 1, 83, 0
1, 16964, Note_off_c, 1, 59, 0
1, 16965, Note_off_c, 1, 71, 0
1, 16973, Note_off_c, 1, 50, 0
1, 17002, Note_on_c, 1, 64, 127
1, 17005, Note_on_c, 1, 52, 127
1, 17027, Note_off_c, 1, 52, 0
1, 17031, Note_off_c, 1, 64, 0
1, 17033, Note_on_c, 1, 66, 127
1, 17035, Note_on_c, 1, 59, 127
1, 17035, Note_on_c, 1, 78, 127
1, 17036, Note_on_c, 1, 62, 127
1, 17039, Note_on_c, 1, 54, 127
1, 17077, Note_off_c, 1, 59, 0
1, 17079, Note_off_c, 1, 78, 0
1, 17082, Note_off_c, 1, 54, 0
1, 17086, Note_off_c, 1, 66, 0
1, 17090, Note_off_c, 1, 62, 0
1, 17149, Note_on_c, 1, 64, 127
1, 17152, Note_on_c, 1, 61, 127
1, 17154, Note_on_c, 1, 76, 127
1, 17156, Note_on_c, 1, 58, 127
1, 17162, Note_on_c, 1, 42, 127
1, 17201, Note_off_c, 1, 58, 0
1, 17202, Note_off_c, 1, 76, 0
1, 17205, Note_off_c, 1, 64, 0
1, 17207, Note_off_c, 1, 61, 0
1, 17211, Note_off_c, 1, 42, 0
1, 17270, Note_on_c, 1, 64, 127
1, 17270, Note_on_c, 1, 61, 127
1, 17272, Note_on_c, 1, 76, 127
1, 17281, Note_on_c, 1, 47, 127
1, 17284, Note_on_c, 1, 55, 127
1, 17305, Note_off_c, 1, 61, 0
1, 17305, Note_on_c, 1, 59, 127
1, 17305, Note_on_c, 1, 74, 127
1, 17309, Note_off_c, 1, 76, 0
1, 17313, Note_on_c, 1, 62, 127
1, 17316, Note_off_c, 1, 64, 0
1, 17321, Note_on_c, 1, 54, 127
1, 17322, Note_off_c, 1, 74, 0
1, 17325, Note_off_c, 1, 55, 0
1, 17325, Note_off_c, 1, 59, 0
1, 17334, Note_off_c, 1, 62, 0
1, 17344, Note_off_c, 1, 54, 0
1, 17385, Note_on_c, 1, 58, 127
1, 17390, Note_on_c, 1, 73, 127
1, 17397, Note_on_c, 1, 52, 127
1, 17446, Note_off_c, 1, 58, 0
1, 17448, Note_off_c, 1, 73, 0
1, 17464, Note_off_c, 1, 52, 0
1, 17522, Note_on_c, 1, 50, 127
1, 17522, Note_on_c, 1, 71, 127
1, 17607, Note_off_c, 1, 47, 0
1, 17771, Note_off_c, 1, 71, 0
1, 17779, Note_off_c, 1, 50, 0
1, 17993, Note_on_c, 1, 71, 127
1, 17999, Note_on_c, 1, 59, 127
1, 18056, Note_on_c, 1, 74, 127
1, 18065, Note_off_c, 1, 71, 0
1, 18118, Note_on_c, 1, 78, 127
1, 18122, Note_off_c, 1, 74, 0
1, 18152, Note_off_c, 1, 59, 0
1, 18174, Note_off_c, 1, 78, 0
1, 18175, Note_on_c, 1, 83, 127
1, 18193, Note_on_c, 1, 62, 127
1, 18227, Note_off_c, 1, 83, 0
1, 18233, Note_off_c, 1, 62, 0
1, 18233, Note_on_c, 1, 61, 127
1, 18238, Note_on_c, 1, 82, 127
1, 18277, Note_off_c, 1, 61, 0
1, 18287, Note_off_c, 1, 82, 0
1, 18302, Note_on_c, 1, 78, 127
1, 18332, Note_off_c, 1, 78, 0
1, 18352, Note_on_c, 1, 59, 127
1, 18360, Note_on_c, 1, 83, 127
1, 18399, Note_off_c, 1, 83, 0
1, 18406, Note_off_c, 1, 59, 0
1, 18416, Note_on_c, 1, 78, 127
1, 18446, Note_off_c, 1, 78, 0
1, 18474, Note_on_c, 1, 59, 127
1, 18477, Note_on_c, 1, 85, 127
1, 18514, Note_off_c, 1, 85, 0
1, 18536, Note_on_c, 1, 58, 127
1, 18536, Note_on_c, 1, 78, 127
1, 18542, Note_off_c, 1, 59, 0
1, 18566, Note_off_c, 1, 78, 0
1, 18633, Note_off_c, 1, 58, 0
1, 18650, Note_on_c, 1, 86, 127
1, 18673, Note_on_c, 1, 61, 127
1, 18678, Note_on_c, 1, 88, 127
1, 18688, Note_off_c, 1, 86, 0
1, 18704, Note_off_c, 1, 61, 0
1, 18705, Note_off_c, 1, 88, 0
1, 18715, Note_on_c, 1, 86, 127
1, 18720, Note_on_c, 1, 59, 127
1, 18745, Note_on_c, 1, 85, 127
1, 18757, Note_off_c, 1, 86, 0
1, 18770, Note_on_c, 1, 83, 127
1, 18783, Note_off_c, 1, 85, 0
1, 18803, Note_on_c, 1, 82, 127
1, 18809, Note_off_c, 1, 83, 0
1, 18827, Note_off_c, 1, 82, 0
1, 18882, Note_off_c, 1, 59, 0
1, 18899, Note_on_c, 1, 78, 127
1, 18921, Note_off_c, 1, 78, 0
1, 18925, Note_on_c, 1, 62, 127
1, 18956, Note_off_c, 1, 62, 0
1, 18959, Note_on_c, 1, 61, 127
1, 18959, Note_on_c, 1, 76, 127
1, 18983, Note_on_c, 1, 78, 127
1, 18994, Note_off_c, 1, 76, 0
1, 19006, Note_off_c, 1, 61, 0
1, 19017, Note_on_c, 1, 79, 127
1, 19019, Note_off_c, 1, 78, 0
1, 19059, Note_off_c, 1, 79, 0
1, 19076, Note_on_c, 1, 59, 127
1, 19102, Note_on_c, 1, 74, 127
1, 19125, Note_off_c, 1, 59, 0
1, 19130, Note_on_c, 1, 73, 127
1, 19135, Note_off_c, 1, 74, 0
1, 19159, Note_on_c, 1, 71, 127
1, 19161, Note_off_c, 1, 73, 0
1, 19189, Note_off_c, 1, 71, 0
1, 19192, Note_on_c, 1, 70, 127
1, 19194, Note_on_c, 1, 61, 127
1, 19230, Note_off_c, 1, 70, 0
1, 19247, Note_on_c, 1, 59, 127
1, 19253, Note_on_c, 1, 79, 127
1, 19256, Note_off_c, 1, 61, 0
1, 19284, Note_off_c, 1, 79, 0
1, 19286, Note_off_c, 1, 59, 0
1, 19311, Note_on_c, 1, 58, 127
1, 19316, Note_on_c, 1, 78, 127
1, 19341, Note_off_c, 1, 58, 0
1, 19348, Note_off_c, 1, 78, 0
1, 19372, Note_on_c, 1, 61, 127
1, 19376, Note_on_c, 1, 76, 127
1, 19400, Note_off_c, 1, 76, 0
1, 19407, Note_off_c, 1, 61, 0
1, 19437, Note_on_c, 1, 74, 127
1, 19442, Note_on_c, 1, 59, 127
1, 19463, Note_on_c, 1, 73, 127
1, 19473, Note_off_c, 1, 74, 0
1, 19491, Note_on_c, 1, 71, 127
1, 19494, Note_off_c, 1, 73, 0
1, 19525, Note_off_c, 1, 71, 0
1, 19579, Note_on_c, 1, 76, 127
1, 19591, Note_off_c, 1, 59, 0
1, 19605, Note_on_c, 1, 78, 127
1, 19615, Note_off_c, 1, 76, 0
1, 19634, Note_on_c, 1, 79, 127
1, 19635, Note_on_c, 1, 62, 127
1, 19646, Note_off_c, 1, 78, 0
1, 19669, Note_off_c, 1, 79, 0
1, 19672, Note_on_c, 1, 81, 127
1, 19678, Note_on_c, 1, 61, 127
1, 19679, Note_off_c, 1, 62, 0
1, 19711, Note_off_c, 1, 81, 0
1, 19720, Note_off_c, 1, 61, 0
1, 19732, Note_on_c, 1, 79, 127
1, 19756, Note_on_c, 1, 78, 127
1, 19764, Note_off_c, 1, 79, 0
1, 19790, Note_on_c, 1, 59, 127
1, 19791, Note_off_c, 1, 78, 0
1, 19834, Note_off_c, 1, 59, 0
1, 19858, Note_on_c, 1, 86, 127
1, 19890, Note_off_c, 1, 86, 0
1, 19911, Note_on_c, 1, 57, 127
1, 19920, Note_on_c, 1, 78, 127
1, 19952, Note_off_c, 1, 78, 0
1, 19958, Note_off_c, 1, 57, 0
1, 19974, Note_on_c, 1, 86, 127
1, 20004, Note_off_c, 1, 86, 0
1, 20031, Note_on_c, 1, 55, 127
1, 20031, Note_on_c, 1, 76, 127
1, 20072, Note_off_c, 1, 76, 0
1, 20088, Note_off_c, 1, 55, 0
1, 20094, Note_on_c, 1, 85, 127
1, 20128, Note_off_c, 1, 85, 0
1, 20151, Note_on_c, 1, 55, 127
1, 20151, Note_on_c, 1, 86, 127
1, 20185, Note_off_c, 1, 86, 0
1, 20193, Note_on_c, 1, 54, 127
1, 20197, Note_off_c, 1, 55, 0
1, 20210, Note_on_c, 1, 69, 127
1, 20215, Note_off_c, 1, 54, 0
1, 20256, Note_off_c, 1, 69, 0
1, 20263, Note_on_c, 1, 52, 127
1, 20272, Note_on_c, 1, 67, 127
1, 20311, Note_off_c, 1, 67, 0
1, 20330, Note_off_c, 1, 52, 0
1, 20397, Note_on_c, 1, 66, 127
1, 20398, Note_on_c, 1, 50, 127
1, 20437, Note_off_c, 1, 66, 0
1, 20453, Note_on_c, 1, 81, 127
1, 20486, Note_off_c, 1, 81, 0
1, 20520, Note_on_c, 1, 64, 127
1, 20560, Note_off_c, 1, 64, 0
1, 20575, Note_on_c, 1, 79, 127
1, 20608, Note_off_c, 1, 79, 0
1, 20638, Note_on_c, 1, 62, 127
1, 20652, Note_off_c, 1, 50, 0
1, 20681, Note_off_c, 1, 62, 0
1, 20696, Note_on_c, 1, 78, 127
1, 20728, Note_off_c, 1, 78, 0
1, 20760, Note_on_c, 1, 70, 127
1, 20797, Note_off_c, 1, 70, 0
1, 20816, Note_on_c, 1, 76, 127
1, 20845, Note_off_c, 1, 76, 0
1, 20878, Note_on_c, 1, 59, 127
1, 20879, Note_on_c, 1, 71, 127
1, 20935, Note_on_c, 1, 74, 127
1, 20940, Note_off_c, 1, 71, 0
1, 20993, Note_on_c, 1, 78, 127
1, 20997, Note_off_c, 1, 74, 0
1, 21039, Note_off_c, 1, 59, 0
1, 21049, Note_off_c, 1, 78, 0
1, 21054, Note_on_c, 1, 83, 127
1, 21077, Note_on_c, 1, 62, 127
1, 21102, Note_off_c, 1, 83, 0
1, 21114, Note_off_c, 1, 62, 0
1, 21116, Note_on_c, 1, 61, 127
1, 21117, Note_on_c, 1, 82, 127
1, 21161, Note_off_c, 1, 61, 0
1, 21162, Note_off_c, 1, 82, 0
1, 21176, Note_on_c, 1, 78, 127
1, 21204, Note_off_c, 1, 78, 0
1, 21230, Note_on_c, 1, 59, 127
1, 21236, Note_on_c, 1, 83, 127
1, 21280, Note_off_c, 1, 83, 0
1, 21292, Note_off_c, 1, 59, 0
1, 21297, Note_on_c, 1, 78, 127
1, 21325, Note_off_c, 1, 78, 0
1, 21347, Note_on_c, 1, 59, 127
1, 21358, Note_on_c, 1, 85, 127
1, 21393, Note_on_c, 1, 58, 127
1, 21395, Note_off_c, 1, 59, 0
1, 21400, Note_off_c, 1, 85, 0
1, 21413, Note_off_c, 1, 58, 0
1, 21419, Note_on_c, 1, 78, 127
1, 21445, Note_off_c, 1, 78, 0
1, 21535, Note_on_c, 1, 86, 127
1, 21563, Note_on_c, 1, 88, 127
1, 21564, Note_on_c, 1, 61, 127
1, 21570, Note_off_c, 1, 86, 0
1, 21587, Note_off_c, 1, 88, 0
1, 21590, Note_off_c, 1, 61, 0
1, 21598, Note_on_c, 1, 86, 127
1, 21603, Note_on_c, 1, 59, 127
1, 21626, Note_on_c, 1, 85, 127
1, 21638, Note_off_c, 1, 86, 0
1, 21655, Note_on_c, 1, 83, 127
1, 21666, Note_off_c, 1, 85, 0
1, 21683, Note_on_c, 1, 82, 127
1, 21693, Note_off_c, 1, 83, 0
1, 21710, Note_off_c, 1, 82, 0
1, 21760, Note_off_c, 1, 59, 0
1, 21785, Note_on_c, 1, 78, 127
1, 21792, Note_on_c, 1, 62, 127
1, 21808, Note_off_c, 1, 78, 0
1, 21829, Note_off_c, 1, 62, 0
1, 21832, Note_on_c, 1, 61, 127
1, 21841, Note_on_c, 1, 76, 127
1, 21865, Note_on_c, 1, 78, 127
1, 21876, Note_off_c, 1, 76, 0
1, 21878, Note_off_c, 1, 61, 0
1, 21900, Note_on_c, 1, 79, 127
1, 21904, Note_off_c, 1, 78, 0
1, 21942, Note_off_c, 1, 79, 0
1, 21953, Note_on_c, 1, 59, 127
1, 21987, Note_on_c, 1, 74, 127
1, 22001, Note_off_c, 1, 59, 0
1, 22010, Note_on_c, 1, 73, 127
1, 22012, Note_off_c, 1, 74, 0
1, 22038, Note_on_c, 1, 71, 127
1, 22040, Note_off_c, 1, 73, 0
1, 22067, Note_on_c, 1, 70, 127
1, 22070, Note_off_c, 1, 71, 0
1, 22111, Note_off_c, 1, 70, 0
1, 22191, Note_on_c, 1, 78, 127
1, 22192, Note_on_c, 1, 58, 127
1, 22218, Note_off_c, 1, 58, 0
1, 22227, Note_off_c, 1, 78, 0
1, 22253, Note_on_c, 1, 76, 127
1, 22255, Note_on_c, 1, 61, 127
1, 22281, Note_off_c, 1, 76, 0
1, 22283, Note_off_c, 1, 61, 0
1, 22316, Note_on_c, 1, 74, 127
1, 22327, Note_on_c, 1, 59, 127
1, 22342, Note_on_c, 1, 73, 127
1, 22349, Note_off_c, 1, 74, 0
1, 22373, Note_on_c, 1, 71, 127
1, 22377, Note_off_c, 1, 73, 0
1, 22407, Note_off_c, 1, 71, 0
1, 22463, Note_on_c, 1, 76, 127
1, 22483, Note_off_c, 1, 59, 0
1, 22491, Note_on_c, 1, 78, 127
1, 22502, Note_off_c, 1, 76, 0
1, 22518, Note_on_c, 1, 79, 127
1, 22519, Note_on_c, 1, 62, 127
1, 22530, Note_off_c, 1, 78, 0
1, 22553, Note_on_c, 1, 81, 127
1, 22554, Note_off_c, 1, 79, 0
1, 22557, Note_on_c, 1, 61, 127
1, 22560, Note_off_c, 1, 62, 0
1, 22594, Note_off_c, 1, 81, 0
1, 22599, Note_off_c, 1, 61, 0
1, 22616, Note_on_c, 1, 79, 127
1, 22638, Note_on_c, 1, 78, 127
1, 22647, Note_off_c, 1, 79, 0
1, 22673, Note_off_c, 1, 78, 0
1, 22674, Note_on_c, 1, 59, 127
1, 22720, Note_off_c, 1, 59, 0
1, 22739, Note_on_c, 1, 86, 127
1, 22769, Note_off_c, 1, 86, 0
1, 22789, Note_on_c, 1, 57, 127
1, 22802, Note_on_c, 1, 78, 127
1, 22839, Note_off_c, 1, 78, 0
1, 22841, Note_off_c, 1, 57, 0
1, 22862, Note_on_c, 1, 86, 127
1, 22886, Note_off_c, 1, 86, 0
1, 22909, Note_on_c, 1, 55, 127
1, 22921, Note_on_c, 1, 76, 127
1, 22956, Note_off_c, 1, 76, 0
1, 22962, Note_off_c, 1, 55, 0
1, 22980, Note_on_c, 1, 85, 127
1, 23014, Note_off_c, 1, 85, 0
1, 23032, Note_on_c, 1, 55, 127
1, 23037, Note_on_c, 1, 86, 127
1, 23072, Note_off_c, 1, 86, 0
1, 23077, Note_on_c, 1, 54, 127
1, 23082, Note_off_c, 1, 55, 0
1, 23101, Note_off_c, 1, 54, 0
1, 23101, Note_on_c, 1, 69, 127
1, 23136, Note_off_c, 1, 69, 0
1, 23148, Note_on_c, 1, 52, 127
1, 23158, Note_on_c, 1, 67, 127
1, 23194, Note_off_c, 1, 67, 0
1, 23214, Note_off_c, 1, 52, 0
1, 23277, Note_on_c, 1, 50, 127
1, 23283, Note_on_c, 1, 66, 127
1, 23319, Note_off_c, 1, 66, 0
1, 23343, Note_on_c, 1, 81, 127
1, 23372, Note_off_c, 1, 81, 0
1, 23402, Note_on_c, 1, 64, 127
1, 23439, Note_off_c, 1, 64, 0
1, 23457, Note_on_c, 1, 79, 127
1, 23487, Note_off_c, 1, 79, 0
1, 23518, Note_on_c, 1, 62, 127
1, 23532, Note_off_c, 1, 50, 0
1, 23549, Note_off_c, 1, 62, 0
1, 23576, Note_on_c, 1, 78, 127
1, 23602, Note_on_c, 1, 79, 127
1, 23609, Note_off_c, 1, 78, 0
1, 23630, Note_on_c, 1, 81, 127
1, 23636, Note_off_c, 1, 79, 0
1, 23660, Note_off_c, 1, 81, 0
1, 23694, Note_on_c, 1, 78, 127
1, 23728, Note_off_c, 1, 78, 0
1, 23752, Note_on_c, 1, 74, 127
1, 23754, Note_on_c, 1, 62, 127
1, 23808, Note_on_c, 1, 78, 127
1, 23827, Note_off_c, 1, 74, 0
1, 23873, Note_off_c, 1, 78, 0
1, 23874, Note_on_c, 1, 81, 127
1, 23910, Note_off_c, 1, 62, 0
1, 23925, Note_off_c, 1, 81, 0
1, 23930, Note_on_c, 1, 86, 127
1, 23952, Note_on_c, 1, 66, 127
1, 23973, Note_off_c, 1, 86, 0
1, 23992, Note_off_c, 1, 66, 0
1, 23993, Note_on_c, 1, 80, 127
1, 23994, Note_on_c, 1, 64, 127
1, 24034, Note_off_c, 1, 80, 0
1, 24042, Note_off_c, 1, 64, 0
1, 24054, Note_on_c, 1, 76, 127
1, 24094, Note_off_c, 1, 76, 0
1, 24111, Note_on_c, 1, 62, 127
1, 24120, Note_on_c, 1, 83, 127
1, 24160, Note_off_c, 1, 83, 0
1, 24168, Note_off_c, 1, 62, 0
1, 24177, Note_on_c, 1, 76, 127
1, 24213, Note_off_c, 1, 76, 0
1, 24234, Note_on_c, 1, 62, 127
1, 24238, Note_on_c, 1, 81, 127
1, 24278, Note_off_c, 1, 81, 0
1, 24295, Note_on_c, 1, 76, 127
1, 24297, Note_on_c, 1, 61, 127
1, 24300, Note_off_c, 1, 62, 0
1, 24334, Note_off_c, 1, 76, 0
1, 24355, Note_on_c, 1, 80, 127
1, 24392, Note_off_c, 1, 80, 0
1, 24402, Note_off_c, 1, 61, 0
1, 24412, Note_on_c, 1, 62, 127
1, 24412, Note_on_c, 1, 76, 127
1, 24435, Note_on_c, 1, 64, 127
1, 24446, Note_off_c, 1, 62, 0
1, 24448, Note_off_c, 1, 76, 0
1, 24460, Note_off_c, 1, 64, 0
1, 24473, Note_on_c, 1, 81, 127
1, 24479, Note_on_c, 1, 62, 127
1, 24498, Note_on_c, 1, 80, 127
1, 24523, Note_off_c, 1, 81, 0
1, 24527, Note_on_c, 1, 78, 127
1, 24556, Note_off_c, 1, 80, 0
1, 24557, Note_on_c, 1, 76, 127
1, 24561, Note_on_c, 1, 61, 127
1, 24567, Note_off_c, 1, 62, 0
1, 24575, Note_off_c, 1, 78, 0
1, 24582, Note_on_c, 1, 74, 127
1, 24587, Note_off_c, 1, 76, 0
1, 24609, Note_off_c, 1, 74, 0
1, 24609, Note_on_c, 1, 73, 127
1, 24639, Note_on_c, 1, 71, 127
1, 24640, Note_off_c, 1, 73, 0
1, 24661, Note_off_c, 1, 61, 0
1, 24670, Note_on_c, 1, 69, 127
1, 24676, Note_off_c, 1, 71, 0
1, 24685, Note_on_c, 1, 64, 127
1, 24696, Note_off_c, 1, 69, 0
1, 24729, Note_off_c, 1, 64, 0
1, 24828, Note_on_c, 1, 76, 127
1, 24840, Note_on_c, 1, 61, 127
1, 24867, Note_off_c, 1, 76, 0
1, 24891, Note_off_c, 1, 61, 0
1, 24895, Note_on_c, 1, 79, 127
1, 24922, Note_off_c, 1, 79, 0
1, 24953, Note_on_c, 1, 61, 127
1, 24965, Note_on_c, 1, 85, 127
1, 24969, Note_on_c, 1, 59, 127
1, 24973, Note_off_c, 1, 61, 0
1, 24991, Note_off_c, 1, 59, 0
1, 24999, Note_off_c, 1, 85, 0
1, 25024, Note_on_c, 1, 79, 127
1, 25059, Note_off_c, 1, 79, 0
1, 25073, Note_on_c, 1, 58, 127
1, 25087, Note_on_c, 1, 78, 127
1, 25132, Note_off_c, 1, 78, 0
1, 25135, Note_off_c, 1, 58, 0
1, 25148, Note_on_c, 1, 76, 127
1, 25172, Note_off_c, 1, 76, 0
1, 25194, Note_on_c, 1, 59, 127
1, 25208, Note_on_c, 1, 74, 127
1, 25248, Note_on_c, 1, 71, 127
1, 25252, Note_off_c, 1, 74, 0
1, 25276, Note_on_c, 1, 70, 127
1, 25283, Note_off_c, 1, 71, 0
1, 25305, Note_off_c, 1, 70, 0
1, 25330, Note_on_c, 1, 73, 127
1, 25350, Note_off_c, 1, 59, 0
1, 25358, Note_off_c, 1, 73, 0
1, 25359, Note_on_c, 1, 74, 127
1, 25364, Note_on_c, 1, 61, 127
1, 25388, Note_on_c, 1, 62, 127
1, 25389, Note_on_c, 1, 76, 127
1, 25395, Note_off_c, 1, 74, 0
1, 25398, Note_off_c, 1, 61, 0
1, 25413, Note_off_c, 1, 62, 0
1, 25416, Note_on_c, 1, 78, 127
1, 25418, Note_off_c, 1, 76, 0
1, 25433, Note_off_c, 1, 78, 0
1, 25474, Note_on_c, 1, 73, 127
1, 25504, Note_on_c, 1, 71, 127
1, 25505, Note_off_c, 1, 73, 0
1, 25535, Note_off_c, 1, 71, 0
1, 25556, Note_on_c, 1, 66, 127
1, 25617, Note_off_c, 1, 66, 0
1, 25639, Note_on_c, 1, 79, 127
1, 25666, Note_on_c, 1, 64, 127
1, 25668, Note_off_c, 1, 79, 0
1, 25732, Note_off_c, 1, 64, 0
1, 25739, Note_on_c, 1, 83, 127
1, 25771, Note_off_c, 1, 83, 0
1, 25798, Note_on_c, 1, 85, 127
1, 25838, Note_off_c, 1, 85, 0
1, 25850, Note_on_c, 1, 59, 127
1, 25859, Note_on_c, 1, 86, 127
1, 25885, Note_off_c, 1, 59, 0
1, 25894, Note_off_c, 1, 86, 0
1, 25912, Note_on_c, 1, 61, 127
1, 25921, Note_on_c, 1, 88, 127
1, 25957, Note_off_c, 1, 88, 0
1, 25966, Note_on_c, 1, 59, 127
1, 25977, Note_off_c, 1, 61, 0
1, 25977, Note_on_c, 1, 79, 127
1, 26016, Note_off_c, 1, 59, 0
1, 26018, Note_off_c, 1, 79, 0
1, 26022, Note_on_c, 1, 58, 127
1, 26038, Note_on_c, 1, 78, 127
1, 26062, Note_off_c, 1, 58, 0
1, 26073, Note_off_c, 1, 78, 0
1, 26083, Note_on_c, 1, 56, 127
1, 26092, Note_on_c, 1, 76, 127
1, 26120, Note_off_c, 1, 56, 0
1, 26125, Note_off_c, 1, 76, 0
1, 26157, Note_on_c, 1, 54, 127
1, 26157, Note_on_c, 1, 78, 127
1, 26194, Note_off_c, 1, 78, 0
1, 26215, Note_on_c, 1, 86, 127
1, 26246, Note_off_c, 1, 86, 0
1, 26274, Note_on_c, 1, 76, 127
1, 26310, Note_off_c, 1, 76, 0
1, 26333, Note_on_c, 1, 85, 127
1, 26364, Note_off_c, 1, 85, 0
1, 26392, Note_on_c, 1, 74, 127
1, 26437, Note_off_c, 1, 74, 0
1, 26450, Note_on_c, 1, 83, 127
1, 26475, Note_off_c, 1, 83, 0
1, 26508, Note_on_c, 1, 73, 127
1, 26522, Note_off_c, 1, 54, 0
1, 26550, Note_off_c, 1, 73, 0
1, 26566, Note_on_c, 1, 82, 127
1, 26599, Note_off_c, 1, 82, 0
1, 26638, Note_on_c, 1, 59, 127
1, 26659, Note_on_c, 1, 71, 127
1, 26708, Note_on_c, 1, 74, 127
1, 26715, Note_off_c, 1, 71, 0
1, 26755, Note_off_c, 1, 74, 0
1, 26758, Note_on_c, 1, 78, 127
1, 26794, Note_off_c, 1, 59, 0
1, 26805, Note_off_c, 1, 78, 0
1, 26816, Note_on_c, 1, 83, 127
1, 26830, Note_on_c, 1, 62, 127
1, 26860, Note_off_c, 1, 83, 0
1, 26871, Note_off_c, 1, 62, 0
1, 26872, Note_on_c, 1, 61, 127
1, 26879, Note_on_c, 1, 82, 127
1, 26923, Note_off_c, 1, 61, 0
1, 26923, Note_off_c, 1, 82, 0
1, 26939, Note_on_c, 1, 78, 127
1, 26970, Note_off_c, 1, 78, 0
1, 26990, Note_on_c, 1, 59, 127
1, 26997, Note_on_c, 1, 83, 127
1, 27028, Note_off_c, 1, 59, 0
1, 27039, Note_off_c, 1, 83, 0
1, 27054, Note_on_c, 1, 78, 127
1, 27089, Note_off_c, 1, 78, 0
1, 27111, Note_on_c, 1, 59, 127
1, 27119, Note_on_c, 1, 85, 127
1, 27164, Note_off_c, 1, 85, 0
1, 27176, Note_on_c, 1, 78, 127
1, 27178, Note_on_c, 1, 58, 127
1, 27191, Note_off_c, 1, 59, 0
1, 27205, Note_off_c, 1, 78, 0
1, 27272, Note_off_c, 1, 58, 0
1, 27290, Note_on_c, 1, 59, 127
1, 27293, Note_on_c, 1, 86, 127
1, 27318, Note_on_c, 1, 61, 127
1, 27323, Note_off_c, 1, 59, 0
1, 27328, Note_off_c, 1, 86, 0
1, 27344, Note_off_c, 1, 61, 0
1, 27362, Note_on_c, 1, 88, 127
1, 27368, Note_on_c, 1, 54, 127
1, 27388, Note_on_c, 1, 86, 127
1, 27406, Note_off_c, 1, 88, 0
1, 27420, Note_on_c, 1, 85, 127
1, 27433, Note_off_c, 1, 86, 0
1, 27447, Note_on_c, 1, 83, 127
1, 27455, Note_off_c, 1, 85, 0
1, 27479, Note_on_c, 1, 82, 127
1, 27480, Note_off_c, 1, 83, 0
1, 27507, Note_off_c, 1, 82, 0
1, 27514, Note_off_c, 1, 54, 0
1, 27532, Note_on_c, 1, 79, 127
1, 27549, Note_on_c, 1, 59, 127
1, 27575, Note_off_c, 1, 79, 0
1, 27591, Note_off_c, 1, 59, 0
1, 27594, Note_on_c, 1, 58, 127
1, 27594, Note_on_c, 1, 78, 127
1, 27627, Note_off_c, 1, 78, 0
1, 27642, Note_off_c, 1, 58, 0
1, 27660, Note_on_c, 1, 88, 127
1, 27695, Note_off_c, 1, 88, 0
1, 27714, Note_on_c, 1, 59, 127
1, 27721, Note_on_c, 1, 86, 127
1, 27758, Note_off_c, 1, 59, 0
1, 27761, Note_off_c, 1, 86, 0
1, 27779, Note_on_c, 1, 83, 127
1, 27812, Note_off_c, 1, 83, 0
1, 27830, Note_on_c, 1, 54, 127
1, 27838, Note_on_c, 1, 84, 127
1, 27884, Note_off_c, 1, 84, 0
1, 27894, Note_on_c, 1, 81, 127
1, 27919, Note_off_c, 1, 81, 0
1, 27951, Note_on_c, 1, 75, 127
1, 27973, Note_off_c, 1, 54, 0
1, 27987, Note_off_c, 1, 75, 0
1, 28001, Note_on_c, 1, 55, 127
1, 28010, Note_on_c, 1, 84, 127
1, 28027, Note_on_c, 1, 57, 127
1, 28034, Note_off_c, 1, 84, 0
1, 28037, Note_off_c, 1, 55, 0
1, 28056, Note_off_c, 1, 57, 0
1, 28077, Note_on_c, 1, 83, 127
1, 28082, Note_on_c, 1, 57, 127
1, 28106, Note_on_c, 1, 81, 127
1, 28124, Note_off_c, 1, 83, 0
1, 28136, Note_on_c, 1, 79, 127
1, 28150, Note_on_c, 1, 55, 127
1, 28156, Note_off_c, 1, 81, 0
1, 28160, Note_on_c, 1, 78, 127
1, 28162, Note_off_c, 1, 57, 0
1, 28172, Note_off_c, 1, 79, 0
1, 28196, Note_off_c, 1, 78, 0
1, 28197, Note_on_c, 1, 76, 127
1, 28234, Note_off_c, 1, 76, 0
1, 28247, Note_off_c, 1, 55, 0
1, 28255, Note_on_c, 1, 79, 127
1, 28280, Note_on_c, 1, 64, 127
1, 28295, Note_off_c, 1, 79, 0
1, 28309, Note_off_c, 1, 64, 0
1, 28315, Note_on_c, 1, 78, 127
1, 28317, Note_on_c, 1, 58, 127
1, 28353, Note_off_c, 1, 78, 0
1, 28374, Note_off_c, 1, 58, 0
1, 28376, Note_on_c, 1, 73, 127
1, 28409, Note_off_c, 1, 73, 0
1, 28435, Note_on_c, 1, 59, 127
1, 28438, Note_on_c, 1, 74, 127
1, 28479, Note_off_c, 1, 74, 0
1, 28490, Note_off_c, 1, 59, 0
1, 28497, Note_on_c, 1, 71, 127
1, 28536, Note_off_c, 1, 71, 0
1, 28553, Note_on_c, 1, 54, 127
1, 28558, Note_on_c, 1, 73, 127
1, 28601, Note_off_c, 1, 73, 0
1, 28606, Note_off_c, 1, 54, 0
1, 28619, Note_on_c, 1, 76, 127
1, 28661, Note_off_c, 1, 76, 0
1, 28674, Note_on_c, 1, 52, 127
1, 28680, Note_on_c, 1, 78, 127
1, 28718, Note_off_c, 1, 78, 0
1, 28738, Note_off_c, 1, 52, 0
1, 28740, Note_on_c, 1, 82, 127
1, 28774, Note_off_c, 1, 82, 0
1, 28796, Note_on_c, 1, 52, 127
1, 28800, Note_on_c, 1, 83, 127
1, 28836, Note_off_c, 1, 83, 0
1, 28836, Note_on_c, 1, 50, 127
1, 28842, Note_off_c, 1, 52, 0
1, 28857, Note_on_c, 1, 78, 127
1, 28864, Note_off_c, 1, 50, 0
1, 28895, Note_off_c, 1, 78, 0
1, 28907, Note_on_c, 1, 49, 127
1, 28916, Note_on_c, 1, 76, 127
1, 28953, Note_off_c, 1, 76, 0
1, 28969, Note_off_c, 1, 49, 0
1, 29037, Note_on_c, 1, 47, 127
1, 29040, Note_on_c, 1, 74, 127
1, 29080, Note_off_c, 1, 74, 0
1, 29099, Note_on_c, 1, 78, 127
1, 29126, Note_on_c, 1, 76, 127
1, 29140, Note_off_c, 1, 78, 0
1, 29155, Note_off_c, 1, 76, 0
1, 29183, Note_on_c, 1, 73, 127
1, 29208, Note_on_c, 1, 71, 127
1, 29210, Note_off_c, 1, 73, 0
1, 29236, Note_on_c, 1, 70, 127
1, 29241, Note_off_c, 1, 71, 0
1, 29265, Note_off_c, 1, 70, 0
1, 29294, Note_off_c, 1, 47, 0
1, 29329, Note_on_c, 1, 79, 127
1, 29366, Note_off_c, 1, 79, 0
1, 29393, Note_on_c, 1, 78, 127
1, 29431, Note_off_c, 1, 78, 0
1, 29453, Note_on_c, 1, 76, 127
1, 29485, Note_off_c, 1, 76, 0
1, 29514, Note_on_c, 1, 62, 127
1, 29517, Note_on_c, 1, 74, 127
1, 29571, Note_off_c, 1, 74, 0
1, 29573, Note_on_c, 1, 78, 127
1, 29628, Note_off_c, 1, 78, 0
1, 29634, Note_on_c, 1, 81, 127
1, 29672, Note_off_c, 1, 62, 0
1, 29678, Note_off_c, 1, 81, 0
1, 29693, Note_on_c, 1, 86, 127
1, 29714, Note_on_c, 1, 66, 127
1, 29735, Note_off_c, 1, 86, 0
1, 29753, Note_off_c, 1, 66, 0
1, 29755, Note_on_c, 1, 64, 127
1, 29758, Note_on_c, 1, 80, 127
1, 29798, Note_off_c, 1, 80, 0
1, 29799, Note_off_c, 1, 64, 0
1, 29817, Note_on_c, 1, 76, 127
1, 29861, Note_off_c, 1, 76, 0
1, 29875, Note_on_c, 1, 62, 127
1, 29881, Note_on_c, 1, 83, 127
1, 29922, Note_off_c, 1, 83, 0
1, 29930, Note_off_c, 1, 62, 0
1, 29936, Note_on_c, 1, 76, 127
1, 29975, Note_off_c, 1, 76, 0
1, 29988, Note_on_c, 1, 62, 127
1, 29996, Note_on_c, 1, 81, 127
1, 30033, Note_on_c, 1, 61, 127
1, 30035, Note_off_c, 1, 62, 0
1, 30041, Note_off_c, 1, 81, 0
1, 30054, Note_on_c, 1, 76, 127
1, 30055, Note_off_c, 1, 61, 0
1, 30087, Note_off_c, 1, 76, 0
1, 30115, Note_on_c, 1, 80, 127
1, 30157, Note_off_c, 1, 80, 0
1, 30168, Note_on_c, 1, 62, 127
1, 30174, Note_on_c, 1, 76, 127
1, 30192, Note_on_c, 1, 64, 127
1, 30200, Note_off_c, 1, 62, 0
1, 30208, Note_off_c, 1, 76, 0
1, 30216, Note_off_c, 1, 64, 0
1, 30230, Note_on_c, 1, 62, 127
1, 30238, Note_on_c, 1, 81, 127
1, 30262, Note_on_c, 1, 80, 127
1, 30287, Note_off_c, 1, 81, 0
1, 30290, Note_on_c, 1, 78, 127
1, 30309, Note_on_c, 1, 61, 127
1, 30315, Note_off_c, 1, 62, 0
1, 30318, Note_off_c, 1, 80, 0
1, 30321, Note_on_c, 1, 76, 127
1, 30336, Note_off_c, 1, 78, 0
1, 30343, Note_on_c, 1, 74, 127
1, 30347, Note_off_c, 1, 76, 0
1, 30370, Note_off_c, 1, 74, 0
1, 30370, Note_on_c, 1, 73, 127
1, 30400, Note_on_c, 1, 71, 127
1, 30402, Note_off_c, 1, 73, 0
1, 30409, Note_off_c, 1, 61, 0
1, 30432, Note_on_c, 1, 69, 127
1, 30438, Note_off_c, 1, 71, 0
1, 30438, Note_on_c, 1, 64, 127
1, 30459, Note_off_c, 1, 69, 0
1, 30472, Note_off_c, 1, 64, 0
1, 30528, Note_on_c, 1, 74, 127
1, 30569, Note_off_c, 1, 74, 0
1, 30590, Note_on_c, 1, 76, 127
1, 30593, Note_on_c, 1, 61, 127
1, 30626, Note_off_c, 1, 76, 0
1, 30651, Note_on_c, 1, 79, 127
1, 30657, Note_off_c, 1, 61, 0
1, 30676, Note_off_c, 1, 79, 0
1, 30708, Note_on_c, 1, 61, 127
1, 30716, Note_on_c, 1, 85, 127
1, 30726, Note_on_c, 1, 59, 127
1, 30727, Note_off_c, 1, 61, 0
1, 30748, Note_off_c, 1, 59, 0
1, 30750, Note_off_c, 1, 85, 0
1, 30772, Note_on_c, 1, 79, 127
1, 30799, Note_off_c, 1, 79, 0
1, 30826, Note_on_c, 1, 79, 127
1, 30832, Note_on_c, 1, 58, 127
1, 30846, Note_on_c, 1, 78, 127
1, 30847, Note_off_c, 1, 79, 0
1, 30863, Note_off_c, 1, 78, 0
1, 30889, Note_off_c, 1, 58, 0
1, 30895, Note_on_c, 1, 76, 127
1, 30920, Note_off_c, 1, 76, 0
1, 30951, Note_on_c, 1, 74, 127
1, 30953, Note_on_c, 1, 59, 127
1, 30979, Note_on_c, 1, 71, 127
1, 30985, Note_off_c, 1, 74, 0
1, 31009, Note_on_c, 1, 70, 127
1, 31014, Note_off_c, 1, 71, 0
1, 31040, Note_off_c, 1, 70, 0
1, 31067, Note_on_c, 1, 73, 127
1, 31093, Note_off_c, 1, 73, 0
1, 31108, Note_off_c, 1, 59, 0
1, 31129, Note_on_c, 1, 61, 127
1, 31129, Note_on_c, 1, 76, 127
1, 31148, Note_on_c, 1, 62, 127
1, 31152, Note_on_c, 1, 78, 127
1, 31155, Note_off_c, 1, 61, 0
1, 31157, Note_off_c, 1, 76, 0
1, 31173, Note_off_c, 1, 78, 0
1, 31174, Note_off_c, 1, 62, 0
1, 31188, Note_on_c, 1, 76, 127
1, 31191, Note_on_c, 1, 61, 127
1, 31216, Note_off_c, 1, 76, 0
1, 31217, Note_on_c, 1, 73, 127
1, 31245, Note_on_c, 1, 71, 127
1, 31246, Note_off_c, 1, 73, 0
1, 31280, Note_off_c, 1, 71, 0
1, 31303, Note_off_c, 1, 61, 0
1, 31307, Note_on_c, 1, 62, 127
1, 31309, Note_on_c, 1, 74, 127
1, 31338, Note_on_c, 1, 76, 127
1, 31341, Note_off_c, 1, 62, 0
1, 31342, Note_off_c, 1, 74, 0
1, 31364, Note_on_c, 1, 78, 127
1, 31368, Note_off_c, 1, 76, 0
1, 31368, Note_on_c, 1, 66, 127
1, 31392, Note_on_c, 1, 79, 127
1, 31395, Note_off_c, 1, 66, 0
1, 31398, Note_off_c, 1, 78, 0
1, 31418, Note_off_c, 1, 79, 0
1, 31428, Note_on_c, 1, 78, 127
1, 31434, Note_on_c, 1, 64, 127
1, 31466, Note_off_c, 1, 78, 0
1, 31495, Note_on_c, 1, 62, 127
1, 31495, Note_on_c, 1, 83, 127
1, 31504, Note_off_c, 1, 64, 0
1, 31526, Note_off_c, 1, 83, 0
1, 31537, Note_off_c, 1, 62, 0
1, 31553, Note_on_c, 1, 61, 127
1, 31554, Note_on_c, 1, 85, 127
1, 31581, Note_off_c, 1, 61, 0
1, 31595, Note_off_c, 1, 85, 0
1, 31612, Note_on_c, 1, 59, 127
1, 31619, Note_on_c, 1, 86, 127
1, 31641, Note_off_c, 1, 59, 0
1, 31651, Note_off_c, 1, 86, 0
1, 31671, Note_on_c, 1, 61, 127
1, 31685, Note_on_c, 1, 88, 127
1, 31718, Note_off_c, 1, 88, 0
1, 31725, Note_on_c, 1, 59, 127
1, 31737, Note_off_c, 1, 61, 0
1, 31738, Note_on_c, 1, 79, 127
1, 31767, Note_off_c, 1, 59, 0
1, 31773, Note_off_c, 1, 79, 0
1, 31786, Note_on_c, 1, 58, 127
1, 31795, Note_on_c, 1, 78, 127
1, 31816, Note_on_c, 1, 59, 127
1, 31821, Note_off_c, 1, 58, 0
1, 31828, Note_off_c, 1, 78, 0
1, 31850, Note_on_c, 1, 76, 127
1, 31855, Note_off_c, 1, 59, 0
1, 31873, Note_on_c, 1, 56, 127
1, 31886, Note_off_c, 1, 76, 0
1, 31904, Note_off_c, 1, 56, 0
1, 31914, Note_on_c, 1, 78, 127
1, 31920, Note_on_c, 1, 54, 127
1, 31952, Note_off_c, 1, 78, 0
1, 31973, Note_on_c, 1, 86, 127
1, 32006, Note_off_c, 1, 86, 0
1, 32033, Note_on_c, 1, 76, 127
1, 32074, Note_off_c, 1, 76, 0
1, 32096, Note_on_c, 1, 85, 127
1, 32126, Note_off_c, 1, 85, 0
1, 32151, Note_on_c, 1, 74, 127
1, 32196, Note_off_c, 1, 74, 0
1, 32212, Note_on_c, 1, 83, 127
1, 32240, Note_off_c, 1, 83, 0
1, 32268, Note_off_c, 1, 54, 0
1, 32272, Note_on_c, 1, 73, 127
1, 32321, Note_off_c, 1, 73, 0
1, 32327, Note_on_c, 1, 82, 127
1, 32355, Note_off_c, 1, 82, 0
1, 32389, Note_on_c, 1, 59, 127
1, 32401, Note_on_c, 1, 71, 127
1, 32465, Note_on_c, 1, 74, 127
1, 32466, Note_off_c, 1, 71, 0
1, 32514, Note_off_c, 1, 74, 0
1, 32522, Note_on_c, 1, 78, 127
1, 32540, Note_off_c, 1, 59, 0
1, 32561, Note_off_c, 1, 78, 0
1, 32575, Note_on_c, 1, 83, 127
1, 32587, Note_on_c, 1, 62, 127
1, 32617, Note_off_c, 1, 83, 0
1, 32620, Note_off_c, 1, 62, 0
1, 32629, Note_on_c, 1, 61, 127
1, 32635, Note_on_c, 1, 82, 127
1, 32685, Note_off_c, 1, 82, 0
1, 32687, Note_off_c, 1, 61, 0
1, 32698, Note_on_c, 1, 78, 127
1, 32733, Note_off_c, 1, 78, 0
1, 32754, Note_on_c, 1, 59, 127
1, 32758, Note_on_c, 1, 83, 127
1, 32801, Note_off_c, 1, 83, 0
1, 32811, Note_off_c, 1, 59, 0
1, 32815, Note_on_c, 1, 78, 127
1, 32847, Note_off_c, 1, 78, 0
1, 32867, Note_on_c, 1, 59, 127
1, 32880, Note_on_c, 1, 85, 127
1, 32909, Note_on_c, 1, 58, 127
1, 32914, Note_off_c, 1, 59, 0
1, 32922, Note_off_c, 1, 85, 0
1, 32931, Note_off_c, 1, 58, 0
1, 32934, Note_on_c, 1, 78, 127
1, 32959, Note_off_c, 1, 78, 0
1, 33050, Note_on_c, 1, 59, 127
1, 33052, Note_on_c, 1, 86, 127
1, 33077, Note_on_c, 1, 61, 127
1, 33079, Note_off_c, 1, 59, 0
1, 33083, Note_off_c, 1, 86, 0
1, 33104, Note_off_c, 1, 61, 0
1, 33116, Note_on_c, 1, 88, 127
1, 33117, Note_on_c, 1, 54, 127
1, 33139, Note_on_c, 1, 86, 127
1, 33158, Note_off_c, 1, 88, 0
1, 33172, Note_on_c, 1, 85, 127
1, 33183, Note_off_c, 1, 86, 0
1, 33197, Note_on_c, 1, 83, 127
1, 33206, Note_off_c, 1, 85, 0
1, 33235, Note_off_c, 1, 83, 0
1, 33235, Note_on_c, 1, 82, 127
1, 33263, Note_off_c, 1, 82, 0
1, 33267, Note_off_c, 1, 54, 0
1, 33293, Note_on_c, 1, 79, 127
1, 33309, Note_on_c, 1, 59, 127
1, 33329, Note_off_c, 1, 79, 0
1, 33348, Note_off_c, 1, 59, 0
1, 33351, Note_on_c, 1, 58, 127
1, 33357, Note_on_c, 1, 78, 127
1, 33390, Note_off_c, 1, 78, 0
1, 33396, Note_off_c, 1, 58, 0
1, 33419, Note_on_c, 1, 88, 127
1, 33452, Note_off_c, 1, 88, 0
1, 33475, Note_on_c, 1, 59, 127
1, 33480, Note_on_c, 1, 86, 127
1, 33518, Note_off_c, 1, 86, 0
1, 33527, Note_off_c, 1, 59, 0
1, 33541, Note_on_c, 1, 83, 127
1, 33572, Note_off_c, 1, 83, 0
1, 33596, Note_on_c, 1, 54, 127
1, 33600, Note_on_c, 1, 84, 127
1, 33647, Note_off_c, 1, 84, 0
1, 33657, Note_on_c, 1, 81, 127
1, 33689, Note_off_c, 1, 81, 0
1, 33716, Note_on_c, 1, 75, 127
1, 33747, Note_off_c, 1, 54, 0
1, 33754, Note_off_c, 1, 75, 0
1, 33760, Note_on_c, 1, 55, 127
1, 33777, Note_on_c, 1, 84, 127
1, 33787, Note_on_c, 1, 57, 127
1, 33794, Note_off_c, 1, 55, 0
1, 33798, Note_off_c, 1, 84, 0
1, 33812, Note_off_c, 1, 57, 0
1, 33839, Note_on_c, 1, 57, 127
1, 33840, Note_on_c, 1, 83, 127
1, 33863, Note_on_c, 1, 81, 127
1, 33884, Note_off_c, 1, 83, 0
1, 33896, Note_on_c, 1, 79, 127
1, 33918, Note_off_c, 1, 81, 0
1, 33923, Note_off_c, 1, 57, 0
1, 33923, Note_on_c, 1, 55, 127
1, 33926, Note_on_c, 1, 78, 127
1, 33935, Note_off_c, 1, 79, 0
1, 33958, Note_off_c, 1, 78, 0
1, 33959, Note_on_c, 1, 76, 127
1, 33995, Note_off_c, 1, 76, 0
1, 34007, Note_off_c, 1, 55, 0
1, 34016, Note_on_c, 1, 79, 127
1, 34023, Note_on_c, 1, 64, 127
1, 34051, Note_off_c, 1, 79, 0
1, 34057, Note_off_c, 1, 64, 0
1, 34077, Note_on_c, 1, 58, 127
1, 34078, Note_on_c, 1, 78, 127
1, 34111, Note_off_c, 1, 78, 0
1, 34133, Note_off_c, 1, 58, 0
1, 34142, Note_on_c, 1, 73, 127
1, 34172, Note_off_c, 1, 73, 0
1, 34198, Note_on_c, 1, 59, 127
1, 34200, Note_on_c, 1, 74, 127
1, 34240, Note_off_c, 1, 74, 0
1, 34245, Note_off_c, 1, 59, 0
1, 34259, Note_on_c, 1, 71, 127
1, 34294, Note_off_c, 1, 71, 0
1, 34317, Note_on_c, 1, 54, 127
1, 34321, Note_on_c, 1, 73, 127
1, 34357, Note_off_c, 1, 73, 0
1, 34368, Note_off_c, 1, 54, 0
1, 34374, Note_on_c, 1, 76, 127
1, 34413, Note_off_c, 1, 76, 0
1, 34433, Note_on_c, 1, 52, 127
1, 34444, Note_on_c, 1, 78, 127
1, 34479, Note_off_c, 1, 78, 0
1, 34486, Note_off_c, 1, 52, 0
1, 34500, Note_on_c, 1, 82, 127
1, 34535, Note_off_c, 1, 82, 0
1, 34549, Note_on_c, 1, 52, 127
1, 34560, Note_on_c, 1, 83, 127
1, 34592, Note_off_c, 1, 83, 0
1, 34593, Note_on_c, 1, 50, 127
1, 34596, Note_off_c, 1, 52, 0
1, 34615, Note_off_c, 1, 50, 0
1, 34617, Note_on_c, 1, 78, 127
1, 34658, Note_off_c, 1, 78, 0
1, 34666, Note_on_c, 1, 49, 127
1, 34676, Note_on_c, 1, 76, 127
1, 34708, Note_off_c, 1, 76, 0
1, 34730, Note_off_c, 1, 49, 0
1, 34798, Note_on_c, 1, 74, 127
1, 34802, Note_on_c, 1, 47, 127
1, 34833, Note_off_c, 1, 74, 0
1, 34857, Note_on_c, 1, 71, 127
1, 34892, Note_off_c, 1, 71, 0
1, 34985, Note_on_c, 1, 78, 127
1, 35021, Note_off_c, 1, 78, 0
1, 35046, Note_on_c, 1, 83, 127
1, 35179, Note_off_c, 1, 83, 0
1, 35182, Note_off_c, 1, 47, 0
1, 35276, Note_on_c, 1, 71, 127
1, 35278, Note_on_c, 1, 66, 127
1, 35280, Note_on_c, 1, 83, 127
1, 35283, Note_on_c, 1, 59, 127
1, 35285, Note_on_c, 1, 50, 127
1, 35310, Note_off_c, 1, 66, 0
1, 35320, Note_off_c, 1, 59, 0
1, 35329, Note_off_c, 1, 50, 0
1, 35399, Note_on_c, 1, 62, 127
1, 35402, Note_on_c, 1, 47, 127
1, 35422, Note_off_c, 1, 71, 0
1, 35437, Note_off_c, 1, 83, 0
1, 35437, Note_off_c, 1, 62, 0
1, 35445, Note_off_c, 1, 47, 0
1, 35467, Note_on_c, 1, 74, 127
1, 35473, Note_on_c, 1, 86, 127
1, 35503, Note_off_c, 1, 74, 0
1, 35507, Note_off_c, 1, 86, 0
1, 35512, Note_on_c, 1, 73, 127
1, 35514, Note_on_c, 1, 85, 127
1, 35517, Note_on_c, 1, 67, 127
1, 35518, Note_on_c, 1, 52, 127
1, 35526, Note_on_c, 1, 64, 127
1, 35555, Note_off_c, 1, 73, 0
1, 35555, Note_off_c, 1, 85, 0
1, 35557, Note_off_c, 1, 67, 0
1, 35564, Note_off_c, 1, 52, 0
1, 35565, Note_off_c, 1, 64, 0
1, 35631, Note_on_c, 1, 71, 127
1, 35634, Note_on_c, 1, 83, 127
1, 35635, Note_on_c, 1, 55, 127
1, 35644, Note_on_c, 1, 64, 127
1, 35645, Note_on_c, 1, 59, 127
1, 35679, Note_off_c, 1, 83, 0
1, 35679, Note_off_c, 1, 59, 0
1, 35682, Note_off_c, 1, 71, 0
1, 35682, Note_off_c, 1, 64, 0
1, 35683, Note_off_c, 1, 55, 0
1, 35753, Note_on_c, 1, 83, 127
1, 35756, Note_on_c, 1, 71, 127
1, 35757, Note_on_c, 1, 54, 127
1, 35760, Note_on_c, 1, 61, 127
1, 35760, Note_on_c, 1, 66, 127
1, 35798, Note_off_c, 1, 54, 0
1, 35799, Note_off_c, 1, 61, 0
1, 35799, Note_off_c, 1, 66, 0
1, 35814, Note_on_c, 1, 70, 127
1, 35819, Note_on_c, 1, 82, 127
1, 35821, Note_off_c, 1, 71, 0
1, 35822, Note_off_c, 1, 83, 0
1, 35879, Note_on_c, 1, 52, 127
1, 35921, Note_off_c, 1, 70, 0
1, 35924, Note_off_c, 1, 52, 0
1, 35935, Note_off_c, 1, 82, 0
1, 35936, Note_on_c, 1, 83, 127
1, 35939, Note_on_c, 1, 71, 127
1, 35961, Note_on_c, 1, 85, 127
1, 35964, Note_on_c, 1, 73, 127
1, 35966, Note_off_c, 1, 83, 0
1, 35971, Note_off_c, 1, 71, 0
1, 35986, Note_off_c, 1, 85, 0
1, 35988, Note_off_c, 1, 73, 0
1, 35995, Note_on_c, 1, 50, 127
1, 35996, Note_on_c, 1, 66, 127
1, 35997, Note_on_c, 1, 62, 127
1, 36004, Note_on_c, 1, 71, 127
1, 36008, Note_on_c, 1, 83, 127
1, 36033, Note_off_c, 1, 66, 0
1, 36035, Note_off_c, 1, 62, 0
1, 36040, Note_off_c, 1, 50, 0
1, 36115, Note_on_c, 1, 47, 127
1, 36150, Note_off_c, 1, 71, 0
1, 36160, Note_off_c, 1, 47, 0
1, 36167, Note_off_c, 1, 83, 0
1, 36196, Note_on_c, 1, 74, 127
1, 36205, Note_on_c, 1, 86, 127
1, 36229, Note_on_c, 1, 54, 127
1, 36231, Note_off_c, 1, 74, 0
1, 36234, Note_on_c, 1, 64, 127
1, 36235, Note_off_c, 1, 86, 0
1, 36236, Note_on_c, 1, 70, 127
1, 36237, Note_on_c, 1, 85, 127
1, 36240, Note_on_c, 1, 73, 127
1, 36271, Note_off_c, 1, 70, 0
1, 36277, Note_off_c, 1, 85, 0
1, 36279, Note_off_c, 1, 64, 0
1, 36281, Note_off_c, 1, 54, 0
1, 36286, Note_off_c, 1, 73, 0
1, 36349, Note_on_c, 1, 55, 127
1, 36354, Note_on_c, 1, 71, 127
1, 36354, Note_on_c, 1, 62, 127
1, 36356, Note_on_c, 1, 83, 127
1, 36392, Note_off_c, 1, 62, 0
1, 36397, Note_off_c, 1, 83, 0
1, 36399, Note_off_c, 1, 71, 0
1, 36404, Note_off_c, 1, 55, 0
1, 36470, Note_on_c, 1, 73, 127
1, 36471, Note_on_c, 1, 85, 127
1, 36473, Note_on_c, 1, 52, 127
1, 36475, Note_on_c, 1, 64, 127
1, 36476, Note_on_c, 1, 67, 127
1, 36517, Note_off_c, 1, 64, 0
1, 36517, Note_off_c, 1, 67, 0
1, 36520, Note_off_c, 1, 52, 0
1, 36533, Note_on_c, 1, 71, 127
1, 36533, Note_on_c, 1, 83, 127
1, 36541, Note_off_c, 1, 85, 0
1, 36549, Note_off_c, 1, 73, 0
1, 36592, Note_off_c, 1, 83, 0
1, 36592, Note_on_c, 1, 61, 127
1, 36592, Note_on_c, 1, 54, 127
1, 36593, Note_off_c, 1, 71, 0
1, 36593, Note_on_c, 1, 66, 127
1, 36594, Note_on_c, 1, 70, 127
1, 36596, Note_on_c, 1, 82, 127
1, 36621, Note_off_c, 1, 70, 0
1, 36623, Note_off_c, 1, 82, 0
1, 36629, Note_off_c, 1, 61, 0
1, 36630, Note_off_c, 1, 66, 0
1, 36640, Note_off_c, 1, 54, 0
1, 36651, Note_on_c, 1, 85, 127
1, 36654, Note_on_c, 1, 73, 127
1, 36670, Note_off_c, 1, 85, 0
1, 36676, Note_off_c, 1, 73, 0
1, 36714, Note_on_c, 1, 62, 127
1, 36718, Note_on_c, 1, 66, 127
1, 36720, Note_on_c, 1, 50, 127
1, 36724, Note_on_c, 1, 71, 127
1, 36724, Note_on_c, 1, 83, 127
1, 36757, Note_off_c, 1, 62, 0
1, 36761, Note_off_c, 1, 66, 0
1, 36770, Note_off_c, 1, 50, 0
1, 36844, Note_on_c, 1, 47, 127
1, 36880, Note_off_c, 1, 83, 0
1, 36881, Note_off_c, 1, 71, 0
1, 36890, Note_off_c, 1, 47, 0
1, 36914, Note_on_c, 1, 74, 127
1, 36916, Note_on_c, 1, 86, 127
1, 36949, Note_off_c, 1, 74, 0
1, 36949, Note_off_c, 1, 86, 0
1, 36951, Note_on_c, 1, 85, 127
1, 36952, Note_on_c, 1, 73, 127
1, 36958, Note_on_c, 1, 64, 127
1, 36960, Note_on_c, 1, 67, 127
1, 36963, Note_on_c, 1, 52, 127
1, 36995, Note_off_c, 1, 85, 0
1, 36998, Note_off_c, 1, 73, 0
1, 36999, Note_off_c, 1, 67, 0
1, 37007, Note_off_c, 1, 52, 0
1, 37008, Note_off_c, 1, 64, 0
1, 37068, Note_on_c, 1, 83, 127
1, 37072, Note_on_c, 1, 71, 127
1, 37072, Note_on_c, 1, 66, 127
1, 37080, Note_on_c, 1, 50, 127
1, 37111, Note_off_c, 1, 83, 0
1, 37115, Note_off_c, 1, 71, 0
1, 37119, Note_off_c, 1, 66, 0
1, 37125, Note_off_c, 1, 50, 0
1, 37161, Note_on_c, 1, 67, 127
1, 37184, Note_off_c, 1, 67, 0
1, 37190, Note_on_c, 1, 81, 127
1, 37192, Note_on_c, 1, 69, 127
1, 37194, Note_on_c, 1, 64, 127
1, 37197, Note_on_c, 1, 49, 127
1, 37236, Note_off_c, 1, 81, 0
1, 37236, Note_off_c, 1, 49, 0
1, 37238, Note_off_c, 1, 69, 0
1, 37240, Note_off_c, 1, 64, 0
1, 37308, Note_on_c, 1, 61, 127
1, 37311, Note_on_c, 1, 79, 127
1, 37312, Note_on_c, 1, 67, 127
1, 37315, Note_on_c, 1, 64, 127
1, 37319, Note_on_c, 1, 45, 127
1, 37356, Note_off_c, 1, 61, 0
1, 37359, Note_off_c, 1, 79, 0
1, 37359, Note_off_c, 1, 64, 0
1, 37359, Note_off_c, 1, 45, 0
1, 37363, Note_off_c, 1, 67, 0
1, 37429, Note_on_c, 1, 64, 127
1, 37429, Note_on_c, 1, 79, 127
1, 37431, Note_on_c, 1, 59, 127
1, 37437, Note_on_c, 1, 67, 127
1, 37438, Note_on_c, 1, 50, 127
1, 37472, Note_on_c, 1, 57, 127
1, 37472, Note_on_c, 1, 78, 127
1, 37474, Note_off_c, 1, 79, 0
1, 37476, Note_off_c, 1, 59, 0
1, 37481, Note_on_c, 1, 62, 127
1, 37482, Note_on_c, 1, 66, 127
1, 37484, Note_off_c, 1, 64, 0
1, 37484, Note_off_c, 1, 67, 0
1, 37491, Note_off_c, 1, 78, 0
1, 37495, Note_off_c, 1, 57, 0
1, 37500, Note_off_c, 1, 66, 0
1, 37504, Note_off_c, 1, 62, 0
1, 37550, Note_on_c, 1, 55, 127
1, 37552, Note_on_c, 1, 61, 127
1, 37554, Note_on_c, 1, 76, 127
1, 37610, Note_off_c, 1, 55, 0
1, 37613, Note_off_c, 1, 76, 0
1, 37615, Note_off_c, 1, 61, 0
1, 37674, Note_on_c, 1, 74, 127
1, 37679, Note_on_c, 1, 54, 127
1, 37777, Note_off_c, 1, 50, 0
1, 37788, Note_on_c, 1, 45, 127
1, 37821, Note_off_c, 1, 45, 0
1, 37843, Note_on_c, 1, 42, 127
1, 37877, Note_off_c, 1, 42, 0
1, 37915, Note_on_c, 1, 38, 127
1, 37922, Note_off_c, 1, 74, 0
1, 37930, Note_off_c, 1, 54, 0
1, 38050, Note_off_c, 1, 38, 0
1, 38153, Note_on_c, 1, 50, 127
1, 38159, Note_on_c, 1, 59, 127
1, 38159, Note_on_c, 1, 83, 127
1, 38161, Note_on_c, 1, 71, 127
1, 38161, Note_on_c, 1, 66, 127
1, 38192, Note_off_c, 1, 66, 0
1, 38203, Note_off_c, 1, 50, 0
1, 38203, Note_off_c, 1, 59, 0
1, 38280, Note_on_c, 1, 62, 127
1, 38283, Note_on_c, 1, 47, 127
1, 38309, Note_off_c, 1, 71, 0
1, 38314, Note_off_c, 1, 62, 0
1, 38319, Note_off_c, 1, 83, 0
1, 38330, Note_off_c, 1, 47, 0
1, 38357, Note_on_c, 1, 74, 127
1, 38358, Note_on_c, 1, 86, 127
1, 38390, Note_off_c, 1, 74, 0
1, 38393, Note_off_c, 1, 86, 0
1, 38394, Note_on_c, 1, 73, 127
1, 38399, Note_on_c, 1, 64, 127
1, 38399, Note_on_c, 1, 85, 127
1, 38402, Note_on_c, 1, 67, 127
1, 38403, Note_on_c, 1, 52, 127
1, 38435, Note_off_c, 1, 67, 0
1, 38440, Note_off_c, 1, 73, 0
1, 38444, Note_off_c, 1, 85, 0
1, 38445, Note_off_c, 1, 64, 0
1, 38451, Note_off_c, 1, 52, 0
1, 38517, Note_on_c, 1, 71, 127
1, 38519, Note_on_c, 1, 83, 127
1, 38522, Note_on_c, 1, 55, 127
1, 38523, Note_on_c, 1, 59, 127
1, 38523, Note_on_c, 1, 64, 127
1, 38562, Note_off_c, 1, 59, 0
1, 38565, Note_off_c, 1, 64, 0
1, 38566, Note_off_c, 1, 83, 0
1, 38569, Note_off_c, 1, 71, 0
1, 38571, Note_off_c, 1, 55, 0
1, 38632, Note_on_c, 1, 83, 127
1, 38635, Note_on_c, 1, 71, 127
1, 38639, Note_on_c, 1, 61, 127
1, 38641, Note_on_c, 1, 66, 127
1, 38641, Note_on_c, 1, 54, 127
1, 38665, Note_on_c, 1, 70, 127
1, 38671, Note_off_c, 1, 71, 0
1, 38676, Note_off_c, 1, 61, 0
1, 38676, Note_on_c, 1, 82, 127
1, 38679, Note_off_c, 1, 83, 0
1, 38679, Note_off_c, 1, 66, 0
1, 38683, Note_off_c, 1, 54, 0
1, 38688, Note_off_c, 1, 70, 0
1, 38695, Note_off_c, 1, 82, 0
1, 38757, Note_on_c, 1, 52, 127
1, 38802, Note_off_c, 1, 52, 0
1, 38842, Note_on_c, 1, 85, 127
1, 38844, Note_on_c, 1, 73, 127
1, 38865, Note_off_c, 1, 73, 0
1, 38867, Note_off_c, 1, 85, 0
1, 38874, Note_on_c, 1, 66, 127
1, 38880, Note_on_c, 1, 71, 127
1, 38880, Note_on_c, 1, 50, 127
1, 38881, Note_on_c, 1, 62, 127
1, 38881, Note_on_c, 1, 83, 127
1, 38915, Note_off_c, 1, 66, 0
1, 38922, Note_off_c, 1, 62, 0
1, 38927, Note_off_c, 1, 50, 0
1, 38996, Note_on_c, 1, 47, 127
1, 39029, Note_off_c, 1, 71, 0
1, 39033, Note_off_c, 1, 83, 0
1, 39044, Note_off_c, 1, 47, 0
1, 39077, Note_on_c, 1, 74, 127
1, 39080, Note_on_c, 1, 86, 127
1, 39110, Note_on_c, 1, 54, 127
1, 39111, Note_off_c, 1, 86, 0
1, 39113, Note_off_c, 1, 74, 0
1, 39113, Note_on_c, 1, 70, 127
1, 39113, Note_on_c, 1, 64, 127
1, 39116, Note_on_c, 1, 73, 127
1, 39116, Note_on_c, 1, 85, 127
1, 39156, Note_off_c, 1, 70, 0
1, 39156, Note_off_c, 1, 64, 0
1, 39160, Note_off_c, 1, 85, 0
1, 39162, Note_off_c, 1, 73, 0
1, 39167, Note_off_c, 1, 54, 0
1, 39229, Note_on_c, 1, 71, 127
1, 39229, Note_on_c, 1, 55, 127
1, 39230, Note_on_c, 1, 83, 127
1, 39235, Note_on_c, 1, 62, 127
1, 39274, Note_off_c, 1, 83, 0
1, 39276, Note_off_c, 1, 62, 0
1, 39279, Note_off_c, 1, 71, 0
1, 39282, Note_off_c, 1, 55, 0
1, 39347, Note_on_c, 1, 67, 127
1, 39349, Note_on_c, 1, 85, 127
1, 39351, Note_on_c, 1, 73, 127
1, 39351, Note_on_c, 1, 52, 127
1, 39355, Note_on_c, 1, 64, 127
1, 39390, Note_off_c, 1, 67, 0
1, 39398, Note_off_c, 1, 64, 0
1, 39402, Note_off_c, 1, 52, 0
1, 39410, Note_on_c, 1, 71, 127
1, 39410, Note_on_c, 1, 83, 127
1, 39413, Note_off_c, 1, 85, 0
1, 39422, Note_off_c, 1, 73, 0
1, 39467, Note_on_c, 1, 70, 127
1, 39470, Note_off_c, 1, 71, 0
1, 39470, Note_off_c, 1, 83, 0
1, 39470, Note_on_c, 1, 66, 127
1, 39474, Note_on_c, 1, 82, 127
1, 39476, Note_on_c, 1, 54, 127
1, 39478, Note_on_c, 1, 61, 127
1, 39500, Note_off_c, 1, 70, 0
1, 39506, Note_off_c, 1, 82, 0
1, 39509, Note_off_c, 1, 66, 0
1, 39520, Note_off_c, 1, 61, 0
1, 39521, Note_off_c, 1, 54, 0
1, 39535, Note_on_c, 1, 73, 127
1, 39537, Note_on_c, 1, 85, 127
1, 39557, Note_off_c, 1, 85, 0
1, 39558, Note_off_c, 1, 73, 0
1, 39596, Note_on_c, 1, 66, 127
1, 39600, Note_on_c, 1, 62, 127
1, 39600, Note_on_c, 1, 50, 127
1, 39602, Note_on_c, 1, 83, 127
1, 39603, Note_on_c, 1, 71, 127
1, 39646, Note_off_c, 1, 66, 0
1, 39646, Note_off_c, 1, 50, 0
1, 39648, Note_off_c, 1, 62, 0
1, 39722, Note_on_c, 1, 47, 127
1, 39754, Note_off_c, 1, 83, 0
1, 39758, Note_off_c, 1, 71, 0
1, 39767, Note_off_c, 1, 47, 0
1, 39795, Note_on_c, 1, 74, 127
1, 39798, Note_on_c, 1, 86, 127
1, 39832, Note_off_c, 1, 86, 0
1, 39833, Note_off_c, 1, 74, 0
1, 39834, Note_on_c, 1, 73, 127
1, 39835, Note_on_c, 1, 85, 127
1, 39839, Note_on_c, 1, 67, 127
1, 39844, Note_on_c, 1, 52, 127
1, 39845, Note_on_c, 1, 64, 127
1, 39877, Note_off_c, 1, 85, 0
1, 39881, Note_off_c, 1, 73, 0
1, 39882, Note_off_c, 1, 67, 0
1, 39890, Note_off_c, 1, 52, 0
1, 39892, Note_off_c, 1, 64, 0
1, 39949, Note_on_c, 1, 71, 127
1, 39954, Note_on_c, 1, 83, 127
1, 39956, Note_on_c, 1, 50, 127
1, 39959, Note_on_c, 1, 66, 127
1, 39995, Note_off_c, 1, 83, 0
1, 39999, Note_off_c, 1, 71, 0
1, 40007, Note_off_c, 1, 66, 0
1, 40008, Note_off_c, 1, 50, 0
1, 40041, Note_on_c, 1, 67, 127
1, 40064, Note_off_c, 1, 67, 0
1, 40069, Note_on_c, 1, 69, 127
1, 40075, Note_on_c, 1, 49, 127
1, 40075, Note_on_c, 1, 81, 127
1, 40076, Note_on_c, 1, 64, 127
1, 40119, Note_off_c, 1, 49, 0
1, 40119, Note_off_c, 1, 81, 0
1, 40120, Note_off_c, 1, 69, 0
1, 40120, Note_off_c, 1, 64, 0
1, 40191, Note_on_c, 1, 67, 127
1, 40192, Note_on_c, 1, 64, 127
1, 40192, Note_on_c, 1, 61, 127
1, 40192, Note_on_c, 1, 45, 127
1, 40194, Note_on_c, 1, 79, 127
1, 40231, Note_off_c, 1, 45, 0
1, 40232, Note_off_c, 1, 64, 0
1, 40239, Note_off_c, 1, 61, 0
1, 40242, Note_off_c, 1, 67, 0
1, 40245, Note_off_c, 1, 79, 0
1, 40308, Note_on_c, 1, 64, 127
1, 40311, Note_on_c, 1, 67, 127
1, 40312, Note_on_c, 1, 79, 127
1, 40316, Note_on_c, 1, 59, 127
1, 40317, Note_on_c, 1, 50, 127
1, 40349, Note_on_c, 1, 62, 127
1, 40352, Note_off_c, 1, 64, 0
1, 40358, Note_on_c, 1, 57, 127
1, 40360, Note_on_c, 1, 66, 127
1, 40360, Note_on_c, 1, 78, 127
1, 40362, Note_off_c, 1, 79, 0
1, 40363, Note_off_c, 1, 59, 0
1, 40364, Note_off_c, 1, 67, 0
1, 40369, Note_off_c, 1, 62, 0
1, 40378, Note_off_c, 1, 57, 0
1, 40379, Note_off_c, 1, 78, 0
1, 40380, Note_off_c, 1, 66, 0
1, 40434, Note_on_c, 1, 55, 127
1, 40435, Note_on_c, 1, 61, 127
1, 40438, Note_on_c, 1, 76, 127
1, 40491, Note_off_c, 1, 61, 0
1, 40495, Note_off_c, 1, 55, 0
1, 40499, Note_off_c, 1, 76, 0
1, 40557, Note_on_c, 1, 74, 127
1, 40560, Note_on_c, 1, 54, 127
1, 40653, Note_off_c, 1, 50, 0
1, 40671, Note_on_c, 1, 45, 127
1, 40706, Note_off_c, 1, 45, 0
1, 40725, Note_on_c, 1, 42, 127
1, 40763, Note_off_c, 1, 42, 0
1, 40801, Note_on_c, 1, 38, 127
1, 40802, Note_off_c, 1, 74, 0
1, 40810, Note_off_c, 1, 54, 0
1, 40931, Note_off_c, 1, 38, 0
1, 41035, Note_on_c, 1, 74, 127
1, 41035, Note_on_c, 1, 69, 127
1, 41035, Note_on_c, 1, 57, 127
1, 41038, Note_on_c, 1, 86, 127
1, 41041, Note_on_c, 1, 54, 127
1, 41079, Note_off_c, 1, 57, 0
1, 41079, Note_off_c, 1, 54, 0
1, 41081, Note_off_c, 1, 69, 0
1, 41161, Note_on_c, 1, 50, 127
1, 41193, Note_off_c, 1, 86, 0
1, 41199, Note_off_c, 1, 74, 0
1, 41210, Note_off_c, 1, 50, 0
1, 41230, Note_on_c, 1, 78, 127
1, 41232, Note_on_c, 1, 90, 127
1, 41260, Note_off_c, 1, 90, 0
1, 41261, Note_off_c, 1, 78, 0
1, 41267, Note_on_c, 1, 76, 127
1, 41270, Note_on_c, 1, 71, 127
1, 41271, Note_on_c, 1, 88, 127
1, 41276, Note_on_c, 1, 67, 127
1, 41281, Note_on_c, 1, 55, 127
1, 41311, Note_off_c, 1, 71, 0
1, 41312, Note_off_c, 1, 76, 0
1, 41316, Note_off_c, 1, 88, 0
1, 41321, Note_off_c, 1, 67, 0
1, 41323, Note_off_c, 1, 55, 0
1, 41387, Note_on_c, 1, 64, 127
1, 41389, Note_on_c, 1, 74, 127
1, 41389, Note_on_c, 1, 86, 127
1, 41397, Note_on_c, 1, 71, 127
1, 41397, Note_on_c, 1, 56, 127
1, 41429, Note_off_c, 1, 86, 0
1, 41433, Note_off_c, 1, 64, 0
1, 41435, Note_off_c, 1, 74, 0
1, 41439, Note_off_c, 1, 71, 0
1, 41444, Note_off_c, 1, 56, 0
1, 41506, Note_on_c, 1, 69, 127
1, 41510, Note_on_c, 1, 86, 127
1, 41512, Note_on_c, 1, 74, 127
1, 41515, Note_on_c, 1, 57, 127
1, 41516, Note_on_c, 1, 64, 127
1, 41552, Note_off_c, 1, 69, 0
1, 41558, Note_off_c, 1, 57, 0
1, 41558, Note_off_c, 1, 64, 0
1, 41576, Note_on_c, 1, 85, 127
1, 41578, Note_on_c, 1, 73, 127
1, 41582, Note_off_c, 1, 86, 0
1, 41585, Note_off_c, 1, 74, 0
1, 41632, Note_on_c, 1, 68, 127
1, 41635, Note_on_c, 1, 52, 127
1, 41674, Note_off_c, 1, 68, 0
1, 41675, Note_off_c, 1, 85, 0
1, 41679, Note_off_c, 1, 73, 0
1, 41679, Note_off_c, 1, 52, 0
1, 41689, Note_on_c, 1, 86, 127
1, 41698, Note_on_c, 1, 74, 127
1, 41713, Note_on_c, 1, 88, 127
1, 41718, Note_on_c, 1, 76, 127
1, 41720, Note_off_c, 1, 86, 0
1, 41729, Note_off_c, 1, 74, 0
1, 41732, Note_off_c, 1, 88, 0
1, 41742, Note_off_c, 1, 76, 0
1, 41751, Note_on_c, 1, 69, 127
1, 41753, Note_on_c, 1, 64, 127
1, 41754, Note_on_c, 1, 74, 127
1, 41756, Note_on_c, 1, 86, 127
1, 41758, Note_on_c, 1, 57, 127
1, 41797, Note_off_c, 1, 69, 0
1, 41802, Note_off_c, 1, 64, 0
1, 41805, Note_off_c, 1, 57, 0
1, 41820, Note_on_c, 1, 85, 127
1, 41823, Note_on_c, 1, 73, 127
1, 41827, Note_off_c, 1, 86, 0
1, 41829, Note_off_c, 1, 74, 0
1, 41875, Note_on_c, 1, 58, 127
1, 41876, Note_on_c, 1, 66, 127
1, 41917, Note_off_c, 1, 66, 0
1, 41922, Note_off_c, 1, 58, 0
1, 41936, Note_off_c, 1, 85, 0
1, 41937, Note_off_c, 1, 73, 0
1, 41962, Note_on_c, 1, 76, 127
1, 41965, Note_on_c, 1, 88, 127
1, 41989, Note_off_c, 1, 76, 0
1, 41989, Note_off_c, 1, 88, 0
1, 41994, Note_on_c, 1, 74, 127
1, 41996, Note_on_c, 1, 59, 127
1, 41996, Note_on_c, 1, 86, 127
1, 41997, Note_on_c, 1, 71, 127
1, 42002, Note_on_c, 1, 66, 127
1, 42039, Note_off_c, 1, 74, 0
1, 42039, Note_off_c, 1, 71, 0
1, 42040, Note_off_c, 1, 86, 0
1, 42042, Note_off_c, 1, 66, 0
1, 42044, Note_off_c, 1, 59, 0
1, 42109, Note_on_c, 1, 73, 127
1, 42111, Note_on_c, 1, 85, 127
1, 42112, Note_on_c, 1, 54, 127
1, 42118, Note_on_c, 1, 70, 127
1, 42124, Note_on_c, 1, 64, 127
1, 42161, Note_off_c, 1, 54, 0
1, 42162, Note_off_c, 1, 70, 0
1, 42164, Note_off_c, 1, 73, 0
1, 42166, Note_off_c, 1, 85, 0
1, 42168, Note_off_c, 1, 64, 0
1, 42224, Note_on_c, 1, 73, 127
1, 42229, Note_on_c, 1, 85, 127
1, 42234, Note_on_c, 1, 59, 127
1, 42235, Note_on_c, 1, 62, 127
1, 42237, Note_on_c, 1, 66, 127
1, 42242, Note_on_c, 1, 71, 127
1, 42244, Note_off_c, 1, 73, 0
1, 42245, Note_on_c, 1, 83, 127
1, 42248, Note_off_c, 1, 85, 0
1, 42262, Note_off_c, 1, 71, 0
1, 42269, Note_off_c, 1, 83, 0
1, 42279, Note_off_c, 1, 59, 0
1, 42280, Note_off_c, 1, 66, 0
1, 42283, Note_off_c, 1, 62, 0
1, 42349, Note_on_c, 1, 61, 127
1, 42353, Note_on_c, 1, 70, 127
1, 42354, Note_on_c, 1, 82, 127
1, 42356, Note_on_c, 1, 64, 127
1, 42399, Note_off_c, 1, 61, 0
1, 42399, Note_off_c, 1, 64, 0
1, 42407, Note_off_c, 1, 82, 0
1, 42409, Note_off_c, 1, 70, 0
1, 42470, Note_on_c, 1, 71, 127
1, 42475, Note_on_c, 1, 83, 127
1, 42476, Note_on_c, 1, 59, 127
1, 42477, Note_on_c, 1, 62, 127
1, 42479, Note_on_c, 1, 66, 127
1, 42524, Note_off_c, 1, 59, 0
1, 42528, Note_off_c, 1, 62, 0
1, 42528, Note_off_c, 1, 66, 0
1, 42627, Note_off_c, 1, 83, 0
1, 42641, Note_off_c, 1, 71, 0
1, 42646, Note_on_c, 1, 85, 127
1, 42651, Note_on_c, 1, 73, 127
1, 42668, Note_on_c, 1, 86, 127
1, 42669, Note_on_c, 1, 74, 127
1, 42670, Note_off_c, 1, 85, 0
1, 42678, Note_off_c, 1, 73, 0
1, 42688, Note_off_c, 1, 86, 0
1, 42694, Note_off_c, 1, 74, 0
1, 42709, Note_on_c, 1, 73, 127
1, 42709, Note_on_c, 1, 58, 127
1, 42709, Note_on_c, 1, 85, 127
1, 42716, Note_on_c, 1, 66, 127
1, 42761, Note_off_c, 1, 58, 0
1, 42764, Note_off_c, 1, 66, 0
1, 42824, Note_off_c, 1, 85, 0
1, 42825, Note_on_c, 1, 74, 127
1, 42826, Note_off_c, 1, 73, 0
1, 42827, Note_on_c, 1, 59, 127
1, 42828, Note_on_c, 1, 86, 127
1, 42829, Note_on_c, 1, 71, 127
1, 42856, Note_off_c, 1, 74, 0
1, 42858, Note_off_c, 1, 86, 0
1, 42871, Note_off_c, 1, 59, 0
1, 42872, Note_off_c, 1, 71, 0
1, 42889, Note_on_c, 1, 90, 127
1, 42891, Note_on_c, 1, 78, 127
1, 42914, Note_off_c, 1, 90, 0
1, 42920, Note_off_c, 1, 78, 0
1, 42949, Note_on_c, 1, 71, 127
1, 42950, Note_on_c, 1, 67, 127
1, 42950, Note_on_c, 1, 88, 127
1, 42952, Note_on_c, 1, 76, 127
1, 42952, Note_on_c, 1, 52, 127
1, 42990, Note_off_c, 1, 71, 0
1, 42990, Note_off_c, 1, 67, 0
1, 42992, Note_off_c, 1, 52, 0
1, 43009, Note_on_c, 1, 74, 127
1, 43009, Note_on_c, 1, 86, 127
1, 43016, Note_off_c, 1, 88, 0
1, 43016, Note_off_c, 1, 76, 0
1, 43034, Note_off_c, 1, 86, 0
1, 43045, Note_off_c, 1, 74, 0
1, 43066, Note_on_c, 1, 76, 127
1, 43071, Note_on_c, 1, 59, 127
1, 43072, Note_on_c, 1, 55, 127
1, 43073, Note_on_c, 1, 73, 127
1, 43073, Note_on_c, 1, 85, 127
1, 43108, Note_off_c, 1, 76, 0
1, 43111, Note_off_c, 1, 59, 0
1, 43119, Note_off_c, 1, 55, 0
1, 43128, Note_on_c, 1, 83, 127
1, 43131, Note_on_c, 1, 71, 127
1, 43134, Note_off_c, 1, 85, 0
1, 43142, Note_off_c, 1, 73, 0
1, 43157, Note_off_c, 1, 83, 0
1, 43165, Note_off_c, 1, 71, 0
1, 43191, Note_on_c, 1, 73, 127
1, 43191, Note_on_c, 1, 70, 127
1, 43191, Note_on_c, 1, 66, 127
1, 43192, Note_on_c, 1, 85, 127
1, 43195, Note_on_c, 1, 54, 127
1, 43233, Note_off_c, 1, 66, 0
1, 43237, Note_off_c, 1, 70, 0
1, 43247, Note_on_c, 1, 83, 127
1, 43250, Note_off_c, 1, 85, 0
1, 43250, Note_on_c, 1, 71, 127
1, 43259, Note_off_c, 1, 73, 0
1, 43279, Note_off_c, 1, 83, 0
1, 43289, Note_off_c, 1, 71, 0
1, 43309, Note_on_c, 1, 82, 127
1, 43312, Note_on_c, 1, 61, 127
1, 43353, Note_off_c, 1, 61, 0
1, 43364, Note_on_c, 1, 80, 127
1, 43368, Note_on_c, 1, 68, 127
1, 43374, Note_off_c, 1, 82, 0
1, 43404, Note_off_c, 1, 80, 0
1, 43408, Note_off_c, 1, 68, 0
1, 43433, Note_on_c, 1, 58, 127
1, 43436, Note_on_c, 1, 78, 127
1, 43511, Note_off_c, 1, 54, 0
1, 43551, Note_on_c, 1, 55, 127
1, 43599, Note_off_c, 1, 55, 0
1, 43696, Note_off_c, 1, 58, 0
1, 43697, Note_off_c, 1, 78, 0
1, 43797, Note_on_c, 1, 52, 127
1, 43846, Note_off_c, 1, 52, 0
1, 43915, Note_on_c, 1, 71, 127
1, 43918, Note_on_c, 1, 59, 127
1, 43918, Note_on_c, 1, 83, 127
1, 43920, Note_on_c, 1, 66, 127
1, 43923, Note_on_c, 1, 50, 127
1, 43964, Note_off_c, 1, 66, 0
1, 43967, Note_off_c, 1, 59, 0
1, 43977, Note_off_c, 1, 50, 0
1, 44036, Note_on_c, 1, 62, 127
1, 44042, Note_on_c, 1, 47, 127
1, 44067, Note_off_c, 1, 71, 0
1, 44067, Note_off_c, 1, 83, 0
1, 44079, Note_off_c, 1, 62, 0
1, 44093, Note_off_c, 1, 47, 0
1, 44117, Note_on_c, 1, 74, 127
1, 44120, Note_on_c, 1, 86, 127
1, 44148, Note_off_c, 1, 74, 0
1, 44152, Note_off_c, 1, 86, 0
1, 44153, Note_on_c, 1, 73, 127
1, 44155, Note_on_c, 1, 64, 127
1, 44157, Note_on_c, 1, 67, 127
1, 44157, Note_on_c, 1, 85, 127
1, 44163, Note_on_c, 1, 52, 127
1, 44192, Note_off_c, 1, 85, 0
1, 44199, Note_off_c, 1, 73, 0
1, 44200, Note_off_c, 1, 67, 0
1, 44203, Note_off_c, 1, 64, 0
1, 44208, Note_off_c, 1, 52, 0
1, 44275, Note_on_c, 1, 71, 127
1, 44275, Note_on_c, 1, 83, 127
1, 44277, Note_on_c, 1, 55, 127
1, 44280, Note_on_c, 1, 59, 127
1, 44281, Note_on_c, 1, 64, 127
1, 44315, Note_off_c, 1, 83, 0
1, 44322, Note_off_c, 1, 71, 0
1, 44327, Note_off_c, 1, 55, 0
1, 44328, Note_off_c, 1, 59, 0
1, 44333, Note_off_c, 1, 64, 0
1, 44395, Note_on_c, 1, 61, 127
1, 44395, Note_on_c, 1, 54, 127
1, 44395, Note_on_c, 1, 83, 127
1, 44396, Note_on_c, 1, 71, 127
1, 44399, Note_on_c, 1, 66, 127
1, 44439, Note_off_c, 1, 66, 0
1, 44444, Note_off_c, 1, 54, 0
1, 44446, Note_off_c, 1, 61, 0
1, 44450, Note_on_c, 1, 82, 127
1, 44457, Note_on_c, 1, 70, 127
1, 44460, Note_off_c, 1, 83, 0
1, 44466, Note_off_c, 1, 71, 0
1, 44516, Note_on_c, 1, 52, 127
1, 44547, Note_off_c, 1, 82, 0
1, 44556, Note_off_c, 1, 70, 0
1, 44562, Note_off_c, 1, 52, 0
1, 44574, Note_on_c, 1, 83, 127
1, 44579, Note_on_c, 1, 71, 127
1, 44599, Note_on_c, 1, 85, 127
1, 44603, Note_off_c, 1, 83, 0
1, 44605, Note_on_c, 1, 73, 127
1, 44610, Note_off_c, 1, 71, 0
1, 44620, Note_off_c, 1, 85, 0
1, 44630, Note_on_c, 1, 66, 127
1, 44632, Note_off_c, 1, 73, 0
1, 44636, Note_on_c, 1, 50, 127
1, 44640, Note_on_c, 1, 78, 127
1, 44643, Note_on_c, 1, 59, 127
1, 44685, Note_off_c, 1, 50, 0
1, 44688, Note_off_c, 1, 59, 0
1, 44753, Note_on_c, 1, 54, 127
1, 44755, Note_on_c, 1, 47, 127
1, 44756, Note_on_c, 1, 62, 127
1, 44784, Note_off_c, 1, 66, 0
1, 44794, Note_off_c, 1, 62, 0
1, 44798, Note_off_c, 1, 78, 0
1, 44801, Note_off_c, 1, 54, 0
1, 44803, Note_off_c, 1, 47, 0
1, 44833, Note_on_c, 1, 71, 127
1, 44844, Note_on_c, 1, 83, 127
1, 44866, Note_on_c, 1, 70, 127
1, 44866, Note_on_c, 1, 49, 127
1, 44868, Note_off_c, 1, 71, 0
1, 44872, Note_on_c, 1, 61, 127
1, 44875, Note_on_c, 1, 64, 127
1, 44880, Note_on_c, 1, 82, 127
1, 44882, Note_off_c, 1, 83, 0
1, 44912, Note_off_c, 1, 70, 0
1, 44918, Note_off_c, 1, 61, 0
1, 44918, Note_off_c, 1, 82, 0
1, 44921, Note_off_c, 1, 49, 0
1, 44927, Note_off_c, 1, 64, 0
1, 44991, Note_on_c, 1, 50, 127
1, 44992, Note_on_c, 1, 71, 127
1, 44992, Note_on_c, 1, 59, 127
1, 44994, Note_on_c, 1, 66, 127
1, 44995, Note_on_c, 1, 83, 127
1, 45034, Note_off_c, 1, 71, 0
1, 45039, Note_off_c, 1, 83, 0
1, 45043, Note_off_c, 1, 59, 0
1, 45049, Note_off_c, 1, 50, 0
1, 45065, Note_off_c, 1, 66, 0
1, 45078, Note_on_c, 1, 64, 127
1, 45102, Note_off_c, 1, 64, 0
1, 45110, Note_on_c, 1, 66, 127
1, 45115, Note_on_c, 1, 59, 127
1, 45115, Note_on_c, 1, 51, 127
1, 45122, Note_on_c, 1, 78, 127
1, 45161, Note_off_c, 1, 59, 0
1, 45164, Note_off_c, 1, 51, 0
1, 45238, Note_on_c, 1, 63, 127
1, 45239, Note_on_c, 1, 47, 127
1, 45256, Note_off_c, 1, 66, 0
1, 45257, Note_off_c, 1, 78, 0
1, 45281, Note_off_c, 1, 63, 0
1, 45286, Note_on_c, 1, 67, 127
1, 45289, Note_off_c, 1, 47, 0
1, 45293, Note_on_c, 1, 79, 127
1, 45310, Note_on_c, 1, 69, 127
1, 45316, Note_on_c, 1, 81, 127
1, 45319, Note_off_c, 1, 67, 0
1, 45323, Note_off_c, 1, 79, 0
1, 45333, Note_off_c, 1, 69, 0
1, 45336, Note_off_c, 1, 81, 0
1, 45356, Note_on_c, 1, 64, 127
1, 45356, Note_on_c, 1, 52, 127
1, 45357, Note_on_c, 1, 69, 127
1, 45358, Note_on_c, 1, 59, 127
1, 45363, Note_on_c, 1, 81, 127
1, 45404, Note_off_c, 1, 52, 0
1, 45408, Note_off_c, 1, 64, 0
1, 45410, Note_off_c, 1, 59, 0
1, 45422, Note_on_c, 1, 67, 127
1, 45425, Note_on_c, 1, 79, 127
1, 45426, Note_off_c, 1, 69, 0
1, 45427, Note_off_c, 1, 81, 0
1, 45478, Note_on_c, 1, 49, 127
1, 45521, Note_off_c, 1, 67, 0
1, 45529, Note_off_c, 1, 49, 0
1, 45532, Note_off_c, 1, 79, 0
1, 45562, Note_on_c, 1, 76, 127
1, 45569, Note_on_c, 1, 88, 127
1, 45586, Note_off_c, 1, 76, 0
1, 45595, Note_on_c, 1, 70, 127
1, 45595, Note_on_c, 1, 54, 127
1, 45596, Note_on_c, 1, 66, 127
1, 45597, Note_off_c, 1, 88, 0
1, 45599, Note_on_c, 1, 82, 127
1, 45600, Note_on_c, 1, 61, 127
1, 45645, Note_off_c, 1, 54, 0
1, 45647, Note_off_c, 1, 61, 0
1, 45649, Note_off_c, 1, 70, 0
1, 45649, Note_off_c, 1, 82, 0
1, 45665, Note_off_c, 1, 66, 0
1, 45680, Note_on_c, 1, 67, 127
1, 45682, Note_on_c, 1, 52, 127
1, 45705, Note_off_c, 1, 67, 0
1, 45712, Note_off_c, 1, 52, 0
1, 45713, Note_on_c, 1, 66, 127
1, 45715, Note_on_c, 1, 50, 127
1, 45718, Note_on_c, 1, 71, 127
1, 45718, Note_on_c, 1, 83, 127
1, 45721, Note_on_c, 1, 59, 127
1, 45761, Note_off_c, 1, 83, 0
1, 45761, Note_off_c, 1, 59, 0
1, 45763, Note_off_c, 1, 71, 0
1, 45772, Note_off_c, 1, 50, 0
1, 45779, Note_off_c, 1, 66, 0
1, 45799, Note_on_c, 1, 64, 127
1, 45803, Note_on_c, 1, 52, 127
1, 45826, Note_off_c, 1, 64, 0
1, 45829, Note_off_c, 1, 52, 0
1, 45834, Note_on_c, 1, 62, 127
1, 45835, Note_on_c, 1, 66, 127
1, 45836, Note_on_c, 1, 78, 127
1, 45840, Note_on_c, 1, 54, 127
1, 45841, Note_on_c, 1, 59, 127
1, 45881, Note_off_c, 1, 78, 0
1, 45884, Note_off_c, 1, 66, 0
1, 45884, Note_off_c, 1, 54, 0
1, 45886, Note_off_c, 1, 59, 0
1, 45887, Note_off_c, 1, 62, 0
1, 45949, Note_on_c, 1, 64, 127
1, 45952, Note_on_c, 1, 76, 127
1, 45955, Note_on_c, 1, 58, 127
1, 45958, Note_on_c, 1, 61, 127
1, 45961, Note_on_c, 1, 42, 127
1, 45993, Note_off_c, 1, 58, 0
1, 46000, Note_off_c, 1, 64, 0
1, 46002, Note_off_c, 1, 76, 0
1, 46010, Note_off_c, 1, 42, 0
1, 46011, Note_off_c, 1, 61, 0
1, 46069, Note_on_c, 1, 64, 127
1, 46072, Note_on_c, 1, 61, 127
1, 46072, Note_on_c, 1, 54, 127
1, 46076, Note_on_c, 1, 76, 127
1, 46081, Note_on_c, 1, 47, 127
1, 46114, Note_on_c, 1, 62, 127
1, 46114, Note_on_c, 1, 74, 127
1, 46116, Note_on_c, 1, 59, 127
1, 46119, Note_off_c, 1, 64, 0
1, 46120, Note_off_c, 1, 61, 0
1, 46120, Note_off_c, 1, 76, 0
1, 46138, Note_off_c, 1, 62, 0
1, 46138, Note_off_c, 1, 74, 0
1, 46144, Note_off_c, 1, 59, 0
1, 46184, Note_off_c, 1, 54, 0
1, 46186, Note_on_c, 1, 73, 127
1, 46189, Note_on_c, 1, 58, 127
1, 46192, Note_on_c, 1, 52, 127
1, 46238, Note_off_c, 1, 52, 0
1, 46243, Note_off_c, 1, 58, 0
1, 46250, Note_off_c, 1, 73, 0
1, 46315, Note_on_c, 1, 71, 127
1, 46316, Note_on_c, 1, 50, 127
1, 46424, Note_off_c, 1, 47, 0
1, 46564, Note_off_c, 1, 71, 0
1, 46573, Note_off_c, 1, 50, 0
1, 46796, Note_on_c, 1, 69, 127
1, 46796, Note_on_c, 1, 57, 127
1, 46798, Note_on_c, 1, 74, 127
1, 46800, Note_on_c, 1, 86, 127
1, 46803, Note_on_c, 1, 54, 127
1, 46842, Note_off_c, 1, 54, 0
1, 46844, Note_off_c, 1, 69, 0
1, 46847, Note_off_c, 1, 57, 0
1, 46922, Note_on_c, 1, 50, 127
1, 46953, Note_off_c, 1, 86, 0
1, 46963, Note_off_c, 1, 74, 0
1, 46970, Note_off_c, 1, 50, 0
1, 46994, Note_on_c, 1, 78, 127
1, 47002, Note_on_c, 1, 90, 127
1, 47022, Note_off_c, 1, 78, 0
1, 47029, Note_off_c, 1, 90, 0
1, 47031, Note_on_c, 1, 76, 127
1, 47037, Note_on_c, 1, 71, 127
1, 47037, Note_on_c, 1, 88, 127
1, 47040, Note_on_c, 1, 55, 127
1, 47045, Note_on_c, 1, 67, 127
1, 47075, Note_off_c, 1, 76, 0
1, 47083, Note_off_c, 1, 71, 0
1, 47090, Note_off_c, 1, 88, 0
1, 47092, Note_off_c, 1, 55, 0
1, 47094, Note_off_c, 1, 67, 0
1, 47153, Note_on_c, 1, 74, 127
1, 47158, Note_on_c, 1, 64, 127
1, 47158, Note_on_c, 1, 71, 127
1, 47160, Note_on_c, 1, 56, 127
1, 47160, Note_on_c, 1, 86, 127
1, 47194, Note_off_c, 1, 74, 0
1, 47204, Note_off_c, 1, 86, 0
1, 47206, Note_off_c, 1, 64, 0
1, 47206, Note_off_c, 1, 71, 0
1, 47209, Note_off_c, 1, 56, 0
1, 47268, Note_on_c, 1, 74, 127
1, 47273, Note_on_c, 1, 86, 127
1, 47278, Note_on_c, 1, 69, 127
1, 47280, Note_on_c, 1, 64, 127
1, 47283, Note_on_c, 1, 57, 127
1, 47307, Note_on_c, 1, 73, 127
1, 47311, Note_off_c, 1, 74, 0
1, 47322, Note_off_c, 1, 69, 0
1, 47322, Note_off_c, 1, 64, 0
1, 47324, Note_on_c, 1, 85, 127
1, 47326, Note_off_c, 1, 57, 0
1, 47326, Note_off_c, 1, 73, 0
1, 47327, Note_off_c, 1, 86, 0
1, 47341, Note_off_c, 1, 85, 0
1, 47395, Note_on_c, 1, 68, 127
1, 47397, Note_on_c, 1, 52, 127
1, 47439, Note_off_c, 1, 68, 0
1, 47441, Note_off_c, 1, 52, 0
1, 47469, Note_on_c, 1, 76, 127
1, 47475, Note_on_c, 1, 88, 127
1, 47491, Note_off_c, 1, 76, 0
1, 47497, Note_off_c, 1, 88, 0
1, 47506, Note_on_c, 1, 74, 127
1, 47511, Note_on_c, 1, 86, 127
1, 47514, Note_on_c, 1, 69, 127
1, 47516, Note_on_c, 1, 57, 127
1, 47517, Note_on_c, 1, 64, 127
1, 47561, Note_off_c, 1, 64, 0
1, 47563, Note_off_c, 1, 69, 0
1, 47565, Note_off_c, 1, 57, 0
1, 47573, Note_on_c, 1, 73, 127
1, 47579, Note_off_c, 1, 74, 0
1, 47581, Note_on_c, 1, 85, 127
1, 47582, Note_off_c, 1, 86, 0
1, 47633, Note_on_c, 1, 66, 127
1, 47635, Note_on_c, 1, 58, 127
1, 47673, Note_off_c, 1, 66, 0
1, 47683, Note_off_c, 1, 58, 0
1, 47688, Note_off_c, 1, 85, 0
1, 47696, Note_off_c, 1, 73, 0
1, 47723, Note_on_c, 1, 76, 127
1, 47725, Note_on_c, 1, 88, 127
1, 47744, Note_off_c, 1, 76, 0
1, 47747, Note_off_c, 1, 88, 0
1, 47751, Note_on_c, 1, 86, 127
1, 47752, Note_on_c, 1, 74, 127
1, 47756, Note_on_c, 1, 59, 127
1, 47758, Note_on_c, 1, 66, 127
1, 47760, Note_on_c, 1, 71, 127
1, 47797, Note_off_c, 1, 86, 0
1, 47800, Note_off_c, 1, 74, 0
1, 47804, Note_off_c, 1, 71, 0
1, 47806, Note_off_c, 1, 66, 0
1, 47807, Note_off_c, 1, 59, 0
1, 47867, Note_on_c, 1, 73, 127
1, 47872, Note_on_c, 1, 85, 127
1, 47877, Note_on_c, 1, 54, 127
1, 47878, Note_on_c, 1, 64, 127
1, 47880, Note_on_c, 1, 70, 127
1, 47922, Note_off_c, 1, 70, 0
1, 47924, Note_off_c, 1, 64, 0
1, 47925, Note_off_c, 1, 73, 0
1, 47926, Note_off_c, 1, 54, 0
1, 47929, Note_off_c, 1, 85, 0
1, 47986, Note_on_c, 1, 85, 127
1, 47988, Note_on_c, 1, 73, 127
1, 47992, Note_on_c, 1, 59, 127
1, 47993, Note_on_c, 1, 66, 127
1, 47993, Note_on_c, 1, 62, 127
1, 48003, Note_off_c, 1, 85, 0
1, 48003, Note_on_c, 1, 83, 127
1, 48005, Note_on_c, 1, 71, 127
1, 48007, Note_off_c, 1, 73, 0
1, 48023, Note_off_c, 1, 83, 0
1, 48024, Note_off_c, 1, 71, 0
1, 48039, Note_off_c, 1, 66, 0
1, 48042, Note_off_c, 1, 62, 0
1, 48044, Note_off_c, 1, 59, 0
1, 48110, Note_on_c, 1, 61, 127
1, 48111, Note_on_c, 1, 64, 127
1, 48117, Note_on_c, 1, 70, 127
1, 48123, Note_on_c, 1, 82, 127
1, 48159, Note_off_c, 1, 64, 0
1, 48160, Note_off_c, 1, 61, 0
1, 48167, Note_off_c, 1, 70, 0
1, 48171, Note_off_c, 1, 82, 0
1, 48236, Note_on_c, 1, 71, 127
1, 48236, Note_on_c, 1, 66, 127
1, 48236, Note_on_c, 1, 59, 127
1, 48237, Note_on_c, 1, 62, 127
1, 48237, Note_on_c, 1, 83, 127
1, 48286, Note_off_c, 1, 62, 0
1, 48287, Note_off_c, 1, 59, 0
1, 48296, Note_off_c, 1, 66, 0
1, 48396, Note_off_c, 1, 83, 0
1, 48401, Note_off_c, 1, 71, 0
1, 48408, Note_on_c, 1, 73, 127
1, 48408, Note_on_c, 1, 85, 127
1, 48428, Note_on_c, 1, 74, 127
1, 48432, Note_on_c, 1, 86, 127
1, 48435, Note_off_c, 1, 73, 0
1, 48436, Note_off_c, 1, 85, 0
1, 48451, Note_off_c, 1, 74, 0
1, 48452, Note_off_c, 1, 86, 0
1, 48472, Note_on_c, 1, 85, 127
1, 48474, Note_on_c, 1, 73, 127
1, 48474, Note_on_c, 1, 66, 127
1, 48477, Note_on_c, 1, 58, 127
1, 48516, Note_off_c, 1, 58, 0
1, 48524, Note_off_c, 1, 66, 0
1, 48585, Note_off_c, 1, 85, 0
1, 48588, Note_on_c, 1, 86, 127
1, 48590, Note_on_c, 1, 74, 127
1, 48591, Note_on_c, 1, 59, 127
1, 48592, Note_on_c, 1, 71, 127
1, 48600, Note_off_c, 1, 73, 0
1, 48614, Note_off_c, 1, 86, 0
1, 48620, Note_off_c, 1, 74, 0
1, 48636, Note_off_c, 1, 59, 0
1, 48639, Note_off_c, 1, 71, 0
1, 48651, Note_on_c, 1, 90, 127
1, 48654, Note_on_c, 1, 78, 127
1, 48677, Note_off_c, 1, 90, 0
1, 48680, Note_off_c, 1, 78, 0
1, 48708, Note_on_c, 1, 71, 127
1, 48708, Note_on_c, 1, 52, 127
1, 48712, Note_on_c, 1, 67, 127
1, 48716, Note_on_c, 1, 76, 127
1, 48716, Note_on_c, 1, 88, 127
1, 48752, Note_off_c, 1, 67, 0
1, 48754, Note_off_c, 1, 52, 0
1, 48759, Note_off_c, 1, 71, 0
1, 48774, Note_on_c, 1, 74, 127
1, 48774, Note_on_c, 1, 86, 127
1, 48782, Note_off_c, 1, 76, 0
1, 48783, Note_off_c, 1, 88, 0
1, 48799, Note_off_c, 1, 86, 0
1, 48813, Note_off_c, 1, 74, 0
1, 48828, Note_on_c, 1, 55, 127
1, 48832, Note_on_c, 1, 76, 127
1, 48837, Note_on_c, 1, 85, 127
1, 48838, Note_on_c, 1, 59, 127
1, 48840, Note_on_c, 1, 73, 127
1, 48875, Note_off_c, 1, 55, 0
1, 48876, Note_off_c, 1, 76, 0
1, 48876, Note_off_c, 1, 59, 0
1, 48892, Note_on_c, 1, 83, 127
1, 48896, Note_on_c, 1, 71, 127
1, 48900, Note_off_c, 1, 85, 0
1, 48903, Note_off_c, 1, 73, 0
1, 48920, Note_off_c, 1, 83, 0
1, 48929, Note_off_c, 1, 71, 0
1, 48955, Note_on_c, 1, 54, 127
1, 48955, Note_on_c, 1, 85, 127
1, 48957, Note_on_c, 1, 70, 127
1, 48957, Note_on_c, 1, 66, 127
1, 48960, Note_on_c, 1, 73, 127
1, 48999, Note_off_c, 1, 66, 0
1, 49000, Note_off_c, 1, 70, 0
1, 49008, Note_on_c, 1, 83, 127
1, 49013, Note_on_c, 1, 71, 127
1, 49017, Note_off_c, 1, 85, 0
1, 49020, Note_off_c, 1, 73, 0
1, 49037, Note_off_c, 1, 83, 0
1, 49047, Note_off_c, 1, 71, 0
1, 49074, Note_on_c, 1, 82, 127
1, 49075, Note_on_c, 1, 61, 127
1, 49109, Note_off_c, 1, 82, 0
1, 49120, Note_off_c, 1, 61, 0
1, 49152, Note_on_c, 1, 80, 127
1, 49156, Note_on_c, 1, 68, 127
1, 49181, Note_off_c, 1, 80, 0
1, 49185, Note_off_c, 1, 68, 0
1, 49192, Note_on_c, 1, 58, 127
1, 49200, Note_on_c, 1, 78, 127
1, 49277, Note_off_c, 1, 54, 0
1, 49312, Note_on_c, 1, 55, 127
1, 49364, Note_off_c, 1, 55, 0
1, 49448, Note_off_c, 1, 58, 0
1, 49455, Note_off_c, 1, 78, 0
1, 49553, Note_on_c, 1, 52, 127
1, 49599, Note_off_c, 1, 52, 0
1, 49674, Note_on_c, 1, 59, 127
1, 49677, Note_on_c, 1, 71, 127
1, 49677, Note_on_c, 1, 50, 127
1, 49678, Note_on_c, 1, 83, 127
1, 49679, Note_on_c, 1, 66, 127
1, 49719, Note_off_c, 1, 66, 0
1, 49726, Note_off_c, 1, 59, 0
1, 49728, Note_off_c, 1, 50, 0
1, 49792, Note_on_c, 1, 47, 127
1, 49795, Note_on_c, 1, 62, 127
1, 49818, Note_off_c, 1, 71, 0
1, 49832, Note_off_c, 1, 83, 0
1, 49838, Note_off_c, 1, 62, 0
1, 49850, Note_off_c, 1, 47, 0
1, 49872, Note_on_c, 1, 74, 127
1, 49880, Note_on_c, 1, 86, 127
1, 49904, Note_off_c, 1, 74, 0
1, 49908, Note_off_c, 1, 86, 0
1, 49908, Note_on_c, 1, 73, 127
1, 49912, Note_on_c, 1, 85, 127
1, 49914, Note_on_c, 1, 52, 127
1, 49917, Note_on_c, 1, 64, 127
1, 49920, Note_on_c, 1, 67, 127
1, 49948, Note_off_c, 1, 85, 0
1, 49950, Note_off_c, 1, 73, 0
1, 49957, Note_off_c, 1, 64, 0
1, 49957, Note_off_c, 1, 67, 0
1, 49960, Note_off_c, 1, 52, 0
1, 50032, Note_on_c, 1, 83, 127
1, 50033, Note_on_c, 1, 71, 127
1, 50034, Note_on_c, 1, 55, 127
1, 50035, Note_on_c, 1, 64, 127
1, 50040, Note_on_c, 1, 59, 127
1, 50073, Note_off_c, 1, 71, 0
1, 50074, Note_off_c, 1, 83, 0
1, 50080, Note_off_c, 1, 59, 0
1, 50083, Note_off_c, 1, 64, 0
1, 50087, Note_off_c, 1, 55, 0
1, 50148, Note_on_c, 1, 71, 127
1, 50151, Note_on_c, 1, 66, 127
1, 50151, Note_on_c, 1, 83, 127
1, 50153, Note_on_c, 1, 54, 127
1, 50156, Note_on_c, 1, 61, 127
1, 50194, Note_on_c, 1, 70, 127
1, 50197, Note_off_c, 1, 71, 0
1, 50197, Note_off_c, 1, 66, 0
1, 50198, Note_off_c, 1, 61, 0
1, 50198, Note_on_c, 1, 82, 127
1, 50200, Note_off_c, 1, 83, 0
1, 50207, Note_off_c, 1, 54, 0
1, 50212, Note_off_c, 1, 70, 0
1, 50216, Note_off_c, 1, 82, 0
1, 50274, Note_on_c, 1, 52, 127
1, 50320, Note_off_c, 1, 52, 0
1, 50354, Note_on_c, 1, 85, 127
1, 50362, Note_on_c, 1, 73, 127
1, 50376, Note_off_c, 1, 85, 0
1, 50384, Note_off_c, 1, 73, 0
1, 50389, Note_on_c, 1, 66, 127
1, 50392, Note_on_c, 1, 50, 127
1, 50396, Note_on_c, 1, 59, 127
1, 50396, Note_on_c, 1, 78, 127
1, 50438, Note_off_c, 1, 50, 0
1, 50444, Note_off_c, 1, 59, 0
1, 50508, Note_on_c, 1, 47, 127
1, 50515, Note_on_c, 1, 62, 127
1, 50518, Note_on_c, 1, 54, 127
1, 50542, Note_off_c, 1, 78, 0
1, 50546, Note_off_c, 1, 66, 0
1, 50560, Note_off_c, 1, 62, 0
1, 50563, Note_off_c, 1, 47, 0
1, 50564, Note_off_c, 1, 54, 0
1, 50592, Note_on_c, 1, 71, 127
1, 50599, Note_on_c, 1, 83, 127
1, 50628, Note_on_c, 1, 82, 127
1, 50630, Note_off_c, 1, 71, 0
1, 50631, Note_on_c, 1, 70, 127
1, 50632, Note_off_c, 1, 83, 0
1, 50634, Note_on_c, 1, 49, 127
1, 50635, Note_on_c, 1, 61, 127
1, 50637, Note_on_c, 1, 64, 127
1, 50663, Note_off_c, 1, 82, 0
1, 50679, Note_off_c, 1, 70, 0
1, 50679, Note_off_c, 1, 49, 0
1, 50685, Note_off_c, 1, 61, 0
1, 50687, Note_off_c, 1, 64, 0
1, 50751, Note_on_c, 1, 71, 127
1, 50752, Note_on_c, 1, 83, 127
1, 50753, Note_on_c, 1, 59, 127
1, 50754, Note_on_c, 1, 66, 127
1, 50754, Note_on_c, 1, 50, 127
1, 50789, Note_off_c, 1, 83, 0
1, 50796, Note_off_c, 1, 71, 0
1, 50803, Note_off_c, 1, 59, 0
1, 50807, Note_off_c, 1, 50, 0
1, 50811, Note_off_c, 1, 66, 0
1, 50843, Note_on_c, 1, 64, 127
1, 50871, Note_on_c, 1, 66, 127
1, 50876, Note_on_c, 1, 51, 127
1, 50877, Note_off_c, 1, 64, 0
1, 50877, Note_on_c, 1, 59, 127
1, 50877, Note_on_c, 1, 78, 127
1, 50925, Note_off_c, 1, 59, 0
1, 50928, Note_off_c, 1, 51, 0
1, 50993, Note_on_c, 1, 63, 127
1, 50999, Note_on_c, 1, 47, 127
1, 51017, Note_off_c, 1, 78, 0
1, 51018, Note_off_c, 1, 66, 0
1, 51035, Note_off_c, 1, 63, 0
1, 51041, Note_off_c, 1, 47, 0
1, 51045, Note_on_c, 1, 67, 127
1, 51052, Note_on_c, 1, 79, 127
1, 51067, Note_on_c, 1, 69, 127
1, 51071, Note_on_c, 1, 81, 127
1, 51076, Note_off_c, 1, 67, 0
1, 51077, Note_off_c, 1, 79, 0
1, 51088, Note_off_c, 1, 69, 0
1, 51090, Note_off_c, 1, 81, 0
1, 51109, Note_on_c, 1, 64, 127
1, 51115, Note_on_c, 1, 69, 127
1, 51115, Note_on_c, 1, 59, 127
1, 51116, Note_on_c, 1, 52, 127
1, 51117, Note_on_c, 1, 81, 127
1, 51160, Note_off_c, 1, 64, 0
1, 51167, Note_off_c, 1, 52, 0
1, 51170, Note_off_c, 1, 59, 0
1, 51179, Note_on_c, 1, 67, 127
1, 51182, Note_on_c, 1, 79, 127
1, 51186, Note_off_c, 1, 69, 0
1, 51187, Note_off_c, 1, 81, 0
1, 51235, Note_on_c, 1, 49, 127
1, 51284, Note_off_c, 1, 79, 0
1, 51285, Note_off_c, 1, 67, 0
1, 51285, Note_off_c, 1, 49, 0
1, 51320, Note_on_c, 1, 76, 127
1, 51327, Note_on_c, 1, 88, 127
1, 51343, Note_off_c, 1, 76, 0
1, 51351, Note_on_c, 1, 70, 127
1, 51352, Note_off_c, 1, 88, 0
1, 51352, Note_on_c, 1, 66, 127
1, 51358, Note_on_c, 1, 54, 127
1, 51358, Note_on_c, 1, 82, 127
1, 51360, Note_on_c, 1, 61, 127
1, 51402, Note_off_c, 1, 66, 0
1, 51403, Note_off_c, 1, 70, 0
1, 51405, Note_off_c, 1, 54, 0
1, 51405, Note_off_c, 1, 61, 0
1, 51410, Note_off_c, 1, 82, 0
1, 51439, Note_on_c, 1, 67, 127
1, 51444, Note_on_c, 1, 52, 127
1, 51466, Note_off_c, 1, 67, 0
1, 51472, Note_on_c, 1, 66, 127
1, 51473, Note_on_c, 1, 71, 127
1, 51475, Note_on_c, 1, 59, 127
1, 51477, Note_off_c, 1, 52, 0
1, 51478, Note_on_c, 1, 50, 127
1, 51479, Note_on_c, 1, 83, 127
1, 51515, Note_off_c, 1, 66, 0
1, 51523, Note_off_c, 1, 83, 0
1, 51524, Note_off_c, 1, 59, 0
1, 51525, Note_off_c, 1, 71, 0
1, 51533, Note_off_c, 1, 50, 0
1, 51562, Note_on_c, 1, 64, 127
1, 51565, Note_on_c, 1, 52, 127
1, 51587, Note_off_c, 1, 52, 0
1, 51591, Note_off_c, 1, 64, 0
1, 51593, Note_on_c, 1, 66, 127
1, 51595, Note_on_c, 1, 59, 127
1, 51595, Note_on_c, 1, 78, 127
1, 51596, Note_on_c, 1, 62, 127
1, 51599, Note_on_c, 1, 54, 127
1, 51637, Note_off_c, 1, 59, 0
1, 51639, Note_off_c, 1, 78, 0
1, 51642, Note_off_c, 1, 54, 0
1, 51646, Note_off_c, 1, 66, 0
1, 51650, Note_off_c, 1, 62, 0
1, 51709, Note_on_c, 1, 64, 127
1, 51712, Note_on_c, 1, 61, 127
1, 51714, Note_on_c, 1, 76, 127
1, 51716, Note_on_c, 1, 58, 127
1, 51722, Note_on_c, 1, 42, 127
1, 51761, Note_off_c, 1, 58, 0
1, 51762, Note_off_c, 1, 76, 0
1, 51765, Note_off_c, 1, 64, 0
1, 51767, Note_off_c, 1, 61, 0
1, 51771, Note_off_c, 1, 42, 0
1, 51830, Note_on_c, 1, 64, 127
1, 51830, Note_on_c, 1, 61, 127
1, 51832, Note_on_c, 1, 76, 127
1, 51841, Note_on_c, 1, 47, 127
1, 51844, Note_on_c, 1, 55, 127
1, 51865, Note_off_c, 1, 61, 0
1, 51865, Note_on_c, 1, 59, 127
1, 51865, Note_on_c, 1, 74, 127
1, 51869, Note_off_c, 1, 76, 0
1, 51873, Note_on_c, 1, 62, 127
1, 51876, Note_off_c, 1, 64, 0
1, 51881, Note_on_c, 1, 54, 127
1, 51882, Note_off_c, 1, 74, 0
1, 51885, Note_off_c, 1, 55, 0
1, 51885, Note_off_c, 1, 59, 0
1, 51894, Note_off_c, 1, 62, 0
1, 51904, Note_off_c, 1, 54, 0
1, 51945, Note_on_c, 1, 58, 127
1, 51950, Note_on_c, 1, 73, 127
1, 51957, Note_on_c, 1, 52, 127
1, 52006, Note_off_c, 1, 58, 0
1, 52008, Note_off_c, 1, 73, 0
1, 52024, Note_off_c, 1, 52, 0
1, 52082, Note_on_c, 1, 50, 127
1, 52082, Note_on_c, 1, 71, 127
1, 52167, Note_off_c, 1, 47, 0
1, 52331, Note_off_c, 1, 71, 0
1, 52339, Note_off_c, 1, 50, 0
1, 52339, End_track
0, 0, End_of_file