0, 0, Header, 1, 1, 480
1, 0, Start_track
1, 0, Title_t, "Test"
1, 0, Tempo, 500000
1, 0, Instrument_name_t, "Church Organ"
1, 349, Note_on_c, 1, 74, 127
1, 352, Note_on_c, 1, 78, 127
1, 352, Note_on_c, 1, 69, 127
1, 352, Note_on_c, 1, 62, 127
1, 368, Note_on_c, 1, 50, 127
1, 395, Note_off_c, 1, 50, 0
1, 400, Note_off_c, 1, 62, 0
1, 405, Note_on_c, 1, 61, 127
1, 406, Note_off_c, 1, 78, 0
1, 408, Note_on_c, 1, 76, 127
1, 419, Note_off_c, 1, 74, 0
1, 436, Note_off_c, 1, 69, 0
1, 454, Note_off_c, 1, 61, 0
1, 481, Note_off_c, 1, 76, 0
1, 582, Note_on_c, 1, 76, 127
1, 587, Note_on_c, 1, 71, 127
1, 590, Note_on_c, 1, 79, 127
1, 591, Note_on_c, 1, 55, 127
1, 650, Note_off_c, 1, 76, 0
1, 654, Note_off_c, 1, 71, 0
1, 654, Note_off_c, 1, 55, 0
1, 658, Note_off_c, 1, 79, 0
1, 705, Note_on_c, 1, 69, 127
1, 709, Note_on_c, 1, 73, 127
1, 710, Note_on_c, 1, 78, 127
1, 711, Note_on_c, 1, 57, 127
1, 716, Note_on_c, 1, 76, 127
1, 744, Note_off_c, 1, 78, 0
1, 762, Note_off_c, 1, 73, 0
1, 770, Note_off_c, 1, 57, 0
1, 790, Note_off_c, 1, 69, 0
1, 824, Note_on_c, 1, 67, 127
1, 825, Note_on_c, 1, 52, 127
1, 830, Note_on_c, 1, 74, 127
1, 840, Note_off_c, 1, 76, 0
1, 890, Note_off_c, 1, 74, 0
1, 894, Note_off_c, 1, 52, 0
1, 900, Note_off_c, 1, 67, 0
1, 941, Note_on_c, 1, 54, 127
1, 945, Note_on_c, 1, 66, 127
1, 1020, Note_off_c, 1, 66, 0
1, 1034, Note_off_c, 1, 54, 0
1, 1054, Note_on_c, 1, 78, 127
1, 1061, Note_on_c, 1, 69, 127
1, 1061, Note_on_c, 1, 50, 127
1, 1067, Note_on_c, 1, 74, 127
1, 1076, Note_on_c, 1, 62, 127
1, 1112, Note_off_c, 1, 78, 0
1, 1113, Note_on_c, 1, 52, 127
1, 1114, Note_on_c, 1, 79, 127
1, 1119, Note_on_c, 1, 73, 127
1, 1121, Note_off_c, 1, 74, 0
1, 1129, Note_off_c, 1, 62, 0
1, 1130, Note_off_c, 1, 69, 0
1, 1146, Note_off_c, 1, 50, 0
1, 1162, Note_off_c, 1, 73, 0
1, 1164, Note_off_c, 1, 52, 0
1, 1173, Note_on_c, 1, 54, 127
1, 1177, Note_off_c, 1, 79, 0
1, 1182, Note_on_c, 1, 81, 127
1, 1244, Note_off_c, 1, 54, 0
1, 1259, Note_off_c, 1, 81, 0
1, 1289, Note_on_c, 1, 55, 127
1, 1299, Note_on_c, 1, 50, 127
1, 1300, Note_on_c, 1, 79, 127
1, 1300, Note_on_c, 1, 71, 127
1, 1302, Note_on_c, 1, 67, 127
1, 1303, Note_on_c, 1, 83, 127
1, 1307, Note_on_c, 1, 62, 127
1, 1333, Note_off_c, 1, 50, 0
1, 1347, Note_off_c, 1, 79, 0
1, 1357, Note_off_c, 1, 67, 0
1, 1358, Note_off_c, 1, 62, 0
1, 1375, Note_off_c, 1, 71, 0
1, 1377, Note_off_c, 1, 55, 0
1, 1380, Note_off_c, 1, 83, 0
1, 1418, Note_on_c, 1, 78, 127
1, 1419, Note_on_c, 1, 57, 127
1, 1422, Note_on_c, 1, 81, 127
1, 1423, Note_on_c, 1, 45, 127
1, 1426, Note_on_c, 1, 69, 127
1, 1428, Note_on_c, 1, 64, 127
1, 1431, Note_on_c, 1, 73, 127
1, 1447, Note_on_c, 1, 76, 127
1, 1449, Note_off_c, 1, 78, 0
1, 1452, Note_on_c, 1, 79, 127
1, 1459, Note_off_c, 1, 45, 0
1, 1471, Note_off_c, 1, 81, 0
1, 1477, Note_off_c, 1, 76, 0
1, 1480, Note_off_c, 1, 69, 0
1, 1480, Note_off_c, 1, 64, 0
1, 1491, Note_off_c, 1, 73, 0
1, 1501, Note_off_c, 1, 79, 0
1, 1510, Note_off_c, 1, 57, 0
1, 1540, Note_on_c, 1, 50, 127
1, 1545, Note_on_c, 1, 62, 127
1, 1549, Note_on_c, 1, 74, 127
1, 1576, Note_off_c, 1, 50, 0
1, 1596, Note_on_c, 1, 61, 127
1, 1652, Note_off_c, 1, 61, 0
1, 1734, Note_off_c, 1, 74, 0
1, 1745, Note_off_c, 1, 62, 0
1, 1784, Note_on_c, 1, 59, 127
1, 1785, Note_on_c, 1, 68, 127
1, 1791, Note_on_c, 1, 62, 127
1, 1797, Note_on_c, 1, 76, 127
1, 1801, Note_on_c, 1, 71, 127
1, 1838, Note_off_c, 1, 62, 0
1, 1849, Note_off_c, 1, 71, 0
1, 1849, Note_on_c, 1, 74, 127
1, 1853, Note_off_c, 1, 59, 0
1, 1855, Note_off_c, 1, 68, 0
1, 1860, Note_off_c, 1, 76, 0
1, 1909, Note_on_c, 1, 69, 127
1, 1910, Note_on_c, 1, 61, 127
1, 1913, Note_off_c, 1, 74, 0
1, 1924, Note_on_c, 1, 64, 127
1, 1974, Note_off_c, 1, 61, 0
1, 1974, Note_off_c, 1, 64, 0
1, 1977, Note_off_c, 1, 69, 0
1, 1978, Note_on_c, 1, 78, 127
1, 2018, Note_off_c, 1, 78, 0
1, 2030, Note_on_c, 1, 73, 127
1, 2030, Note_on_c, 1, 57, 127
1, 2031, Note_on_c, 1, 69, 127
1, 2036, Note_on_c, 1, 78, 127
1, 2092, Note_off_c, 1, 78, 0
1, 2098, Note_off_c, 1, 73, 0
1, 2098, Note_off_c, 1, 69, 0
1, 2100, Note_off_c, 1, 57, 0
1, 2149, Note_on_c, 1, 71, 127
1, 2150, Note_on_c, 1, 76, 127
1, 2156, Note_on_c, 1, 66, 127
1, 2158, Note_on_c, 1, 59, 127
1, 2176, Note_on_c, 1, 74, 127
1, 2193, Note_off_c, 1, 76, 0
1, 2212, Note_off_c, 1, 71, 0
1, 2212, Note_off_c, 1, 74, 0
1, 2226, Note_off_c, 1, 59, 0
1, 2228, Note_off_c, 1, 66, 0
1, 2267, Note_on_c, 1, 64, 127
1, 2272, Note_on_c, 1, 73, 127
1, 2276, Note_on_c, 1, 56, 127
1, 2324, Note_off_c, 1, 73, 0
1, 2330, Note_off_c, 1, 56, 0
1, 2346, Note_off_c, 1, 64, 0
1, 2389, Note_on_c, 1, 69, 127
1, 2391, Note_on_c, 1, 73, 127
1, 2391, Note_on_c, 1, 64, 127
1, 2400, Note_on_c, 1, 57, 127
1, 2443, Note_off_c, 1, 73, 0
1, 2445, Note_on_c, 1, 74, 127
1, 2463, Note_off_c, 1, 57, 0
1, 2465, Note_off_c, 1, 64, 0
1, 2466, Note_off_c, 1, 69, 0
1, 2494, Note_off_c, 1, 74, 0
1, 2504, Note_on_c, 1, 76, 127
1, 2510, Note_on_c, 1, 64, 127
1, 2511, Note_on_c, 1, 69, 127
1, 2511, Note_on_c, 1, 49, 127
1, 2556, Note_off_c, 1, 76, 0
1, 2563, Note_on_c, 1, 78, 127
1, 2570, Note_off_c, 1, 49, 0
1, 2577, Note_off_c, 1, 69, 0
1, 2583, Note_off_c, 1, 64, 0
1, 2607, Note_off_c, 1, 78, 0
1, 2624, Note_on_c, 1, 64, 127
1, 2627, Note_on_c, 1, 80, 127
1, 2629, Note_on_c, 1, 47, 127
1, 2630, Note_on_c, 1, 74, 127
1, 2679, Note_off_c, 1, 80, 0
1, 2684, Note_off_c, 1, 47, 0
1, 2693, Note_off_c, 1, 74, 0
1, 2697, Note_off_c, 1, 64, 0
1, 2744, Note_on_c, 1, 45, 127
1, 2745, Note_on_c, 1, 81, 127
1, 2746, Note_on_c, 1, 64, 127
1, 2750, Note_on_c, 1, 73, 127
1, 2798, Note_off_c, 1, 81, 0
1, 2812, Note_off_c, 1, 64, 0
1, 2816, Note_off_c, 1, 45, 0
1, 2822, Note_off_c, 1, 73, 0
1, 2864, Note_on_c, 1, 73, 127
1, 2865, Note_on_c, 1, 71, 127
1, 2866, Note_on_c, 1, 66, 127
1, 2868, Note_on_c, 1, 50, 127
1, 2899, Note_off_c, 1, 73, 0
1, 2935, Note_off_c, 1, 50, 0
1, 2940, Note_off_c, 1, 66, 0
1, 2979, Note_on_c, 1, 64, 127
1, 2979, Note_on_c, 1, 69, 127
1, 2989, Note_on_c, 1, 52, 127
1, 2994, Note_off_c, 1, 71, 0
1, 3036, Note_on_c, 1, 74, 127
1, 3038, Note_on_c, 1, 68, 127
1, 3042, Note_off_c, 1, 69, 0
1, 3048, Note_off_c, 1, 64, 0
1, 3053, Note_off_c, 1, 52, 0
1, 3085, Note_off_c, 1, 68, 0
1, 3086, Note_off_c, 1, 74, 0
1, 3096, Note_on_c, 1, 69, 127
1, 3101, Note_on_c, 1, 73, 127
1, 3105, Note_on_c, 1, 54, 127
1, 3156, Note_on_c, 1, 71, 127
1, 3174, Note_off_c, 1, 69, 0
1, 3179, Note_off_c, 1, 73, 0
1, 3203, Note_off_c, 1, 54, 0
1, 3207, Note_off_c, 1, 71, 0
1, 3209, Note_on_c, 1, 73, 127
1, 3215, Note_on_c, 1, 52, 127
1, 3216, Note_on_c, 1, 66, 127
1, 3222, Note_on_c, 1, 69, 127
1, 3260, Note_off_c, 1, 52, 0
1, 3261, Note_off_c, 1, 73, 0
1, 3266, Note_on_c, 1, 74, 127
1, 3269, Note_on_c, 1, 50, 127
1, 3285, Note_off_c, 1, 66, 0
1, 3286, Note_off_c, 1, 69, 0
1, 3325, Note_off_c, 1, 74, 0
1, 3331, Note_on_c, 1, 76, 127
1, 3334, Note_on_c, 1, 64, 127
1, 3335, Note_off_c, 1, 50, 0
1, 3338, Note_on_c, 1, 49, 127
1, 3396, Note_off_c, 1, 64, 0
1, 3399, Note_off_c, 1, 76, 0
1, 3408, Note_off_c, 1, 49, 0
1, 3456, Note_on_c, 1, 74, 127
1, 3456, Note_on_c, 1, 78, 127
1, 3457, Note_on_c, 1, 57, 127
1, 3459, Note_on_c, 1, 69, 127
1, 3462, Note_on_c, 1, 50, 127
1, 3500, Note_off_c, 1, 74, 0
1, 3505, Note_off_c, 1, 69, 0
1, 3506, Note_off_c, 1, 78, 0
1, 3513, Note_off_c, 1, 57, 0
1, 3523, Note_off_c, 1, 50, 0
1, 3571, Note_on_c, 1, 69, 127
1, 3580, Note_on_c, 1, 71, 127
1, 3585, Note_on_c, 1, 64, 127
1, 3586, Note_on_c, 1, 52, 127
1, 3598, Note_on_c, 1, 68, 127
1, 3625, Note_off_c, 1, 69, 0
1, 3647, Note_off_c, 1, 68, 0
1, 3692, Note_on_c, 1, 66, 127
1, 3765, Note_off_c, 1, 66, 0
1, 3820, Note_off_c, 1, 52, 0
1, 3827, Note_on_c, 1, 74, 127
1, 3833, Note_off_c, 1, 71, 0
1, 3839, Note_off_c, 1, 64, 0
1, 3919, Note_off_c, 1, 74, 0
1, 3943, Note_on_c, 1, 71, 127
1, 3944, Note_on_c, 1, 64, 127
1, 3946, Note_on_c, 1, 57, 127
1, 3995, Note_off_c, 1, 64, 0
1, 3999, Note_on_c, 1, 56, 127
1, 4007, Note_off_c, 1, 57, 0
1, 4010, Note_off_c, 1, 71, 0
1, 4046, Note_off_c, 1, 56, 0
1, 4059, Note_on_c, 1, 57, 127
1, 4060, Note_on_c, 1, 64, 127
1, 4064, Note_on_c, 1, 73, 127
1, 4118, Note_off_c, 1, 64, 0
1, 4123, Note_off_c, 1, 57, 0
1, 4178, Note_off_c, 1, 73, 0
1, 4181, Note_on_c, 1, 59, 127
1, 4181, Note_on_c, 1, 74, 127
1, 4184, Note_on_c, 1, 64, 127
1, 4230, Note_off_c, 1, 59, 0
1, 4237, Note_off_c, 1, 74, 0
1, 4242, Note_off_c, 1, 64, 0
1, 4300, Note_on_c, 1, 57, 127
1, 4307, Note_on_c, 1, 71, 127
1, 4311, Note_on_c, 1, 64, 127
1, 4320, Note_on_c, 1, 56, 127
1, 4337, Note_off_c, 1, 57, 0
1, 4361, Note_off_c, 1, 56, 0
1, 4418, Note_on_c, 1, 54, 127
1, 4419, Note_on_c, 1, 74, 127
1, 4464, Note_off_c, 1, 54, 0
1, 4477, Note_on_c, 1, 52, 127
1, 4487, Note_off_c, 1, 74, 0
1, 4526, Note_off_c, 1, 52, 0
1, 4533, Note_on_c, 1, 73, 127
1, 4567, Note_off_c, 1, 73, 0
1, 4595, Note_off_c, 1, 71, 0
1, 4643, Note_off_c, 1, 64, 0
1, 4649, Note_on_c, 1, 69, 127
1, 4699, Note_on_c, 1, 68, 127
1, 4708, Note_off_c, 1, 69, 0
1, 4753, Note_off_c, 1, 68, 0
1, 4769, Note_on_c, 1, 78, 127
1, 4781, Note_on_c, 1, 71, 127
1, 4781, Note_on_c, 1, 66, 127
1, 4781, Note_on_c, 1, 62, 127
1, 4842, Note_off_c, 1, 66, 0
1, 4872, Note_off_c, 1, 71, 0
1, 4878, Note_off_c, 1, 78, 0
1, 4890, Note_off_c, 1, 62, 0
1, 4891, Note_on_c, 1, 69, 127
1, 4899, Note_on_c, 1, 59, 127
1, 4901, Note_on_c, 1, 71, 127
1, 4943, Note_on_c, 1, 68, 127
1, 4950, Note_off_c, 1, 69, 0
1, 4953, Note_off_c, 1, 59, 0
1, 4954, Note_off_c, 1, 71, 0
1, 4984, Note_off_c, 1, 68, 0
1, 5013, Note_on_c, 1, 69, 127
1, 5014, Note_on_c, 1, 76, 127
1, 5024, Note_on_c, 1, 73, 127
1, 5024, Note_on_c, 1, 64, 127
1, 5120, Note_off_c, 1, 69, 0
1, 5129, Note_on_c, 1, 61, 127
1, 5137, Note_off_c, 1, 76, 0
1, 5159, Note_off_c, 1, 64, 0
1, 5164, Note_off_c, 1, 73, 0
1, 5176, Note_on_c, 1, 59, 127
1, 5191, Note_off_c, 1, 61, 0
1, 5231, Note_off_c, 1, 59, 0
1, 5239, Note_on_c, 1, 61, 127
1, 5304, Note_off_c, 1, 61, 0
1, 5364, Note_on_c, 1, 69, 127
1, 5367, Note_on_c, 1, 62, 127
1, 5379, Note_on_c, 1, 78, 127
1, 5436, Note_off_c, 1, 78, 0
1, 5440, Note_off_c, 1, 69, 0
1, 5455, Note_off_c, 1, 62, 0
1, 5487, Note_on_c, 1, 68, 127
1, 5487, Note_on_c, 1, 76, 127
1, 5489, Note_on_c, 1, 62, 127
1, 5492, Note_on_c, 1, 61, 127
1, 5506, Note_on_c, 1, 59, 127
1, 5521, Note_on_c, 1, 74, 127
1, 5523, Note_off_c, 1, 61, 0
1, 5532, Note_off_c, 1, 76, 0
1, 5552, Note_off_c, 1, 68, 0
1, 5560, Note_off_c, 1, 59, 0
1, 5568, Note_off_c, 1, 62, 0
1, 5568, Note_off_c, 1, 74, 0
1, 5602, Note_on_c, 1, 57, 127
1, 5605, Note_on_c, 1, 69, 127
1, 5610, Note_on_c, 1, 64, 127
1, 5619, Note_on_c, 1, 73, 127
1, 5659, Note_on_c, 1, 56, 127
1, 5667, Note_off_c, 1, 69, 0
1, 5667, Note_on_c, 1, 71, 127
1, 5677, Note_off_c, 1, 64, 0
1, 5679, Note_off_c, 1, 57, 0
1, 5697, Note_off_c, 1, 73, 0
1, 5701, Note_off_c, 1, 56, 0
1, 5732, Note_on_c, 1, 81, 127
1, 5736, Note_on_c, 1, 63, 127
1, 5737, Note_on_c, 1, 66, 127
1, 5853, Note_off_c, 1, 63, 0
1, 5857, Note_off_c, 1, 71, 0
1, 5879, Note_off_c, 1, 81, 0
1, 5893, Note_off_c, 1, 66, 0
1, 5969, Note_on_c, 1, 80, 127
1, 5973, Note_on_c, 1, 71, 127
1, 5980, Note_on_c, 1, 64, 127
1, 6045, Note_off_c, 1, 64, 0
1, 6055, Note_off_c, 1, 71, 0
1, 6084, Note_off_c, 1, 80, 0
1, 6084, Note_on_c, 1, 74, 127
1, 6098, Note_on_c, 1, 52, 127
1, 6099, Note_on_c, 1, 81, 127
1, 6099, Note_on_c, 1, 68, 127
1, 6149, Note_on_c, 1, 83, 127
1, 6156, Note_off_c, 1, 74, 0
1, 6161, Note_off_c, 1, 81, 0
1, 6166, Note_off_c, 1, 52, 0
1, 6177, Note_off_c, 1, 68, 0
1, 6195, Note_off_c, 1, 83, 0
1, 6207, Note_on_c, 1, 54, 127
1, 6210, Note_on_c, 1, 73, 127
1, 6216, Note_on_c, 1, 69, 127
1, 6221, Note_on_c, 1, 76, 127
1, 6269, Note_off_c, 1, 73, 0
1, 6278, Note_off_c, 1, 69, 0
1, 6282, Note_off_c, 1, 76, 0
1, 6284, Note_off_c, 1, 54, 0
1, 6334, Note_on_c, 1, 71, 127
1, 6342, Note_on_c, 1, 56, 127
1, 6344, Note_on_c, 1, 74, 127
1, 6397, Note_off_c, 1, 71, 0
1, 6400, Note_off_c, 1, 56, 0
1, 6407, Note_off_c, 1, 74, 0
1, 6455, Note_on_c, 1, 64, 127
1, 6462, Note_on_c, 1, 69, 127
1, 6462, Note_on_c, 1, 74, 127
1, 6463, Note_on_c, 1, 57, 127
1, 6481, Note_on_c, 1, 76, 127
1, 6490, Note_on_c, 1, 73, 127
1, 6492, Note_off_c, 1, 76, 0
1, 6504, Note_off_c, 1, 74, 0
1, 6530, Note_off_c, 1, 73, 0
1, 6532, Note_off_c, 1, 64, 0
1, 6535, Note_off_c, 1, 69, 0
1, 6535, Note_off_c, 1, 57, 0
1, 6569, Note_on_c, 1, 71, 127
1, 6577, Note_on_c, 1, 61, 127
1, 6581, Note_on_c, 1, 49, 127
1, 6635, Note_off_c, 1, 71, 0
1, 6644, Note_off_c, 1, 61, 0
1, 6657, Note_off_c, 1, 49, 0
1, 6691, Note_on_c, 1, 66, 127
1, 6696, Note_on_c, 1, 59, 127
1, 6702, Note_on_c, 1, 50, 127
1, 6754, Note_off_c, 1, 66, 0
1, 6764, Note_off_c, 1, 59, 0
1, 6774, Note_off_c, 1, 50, 0
1, 6809, Note_on_c, 1, 64, 127
1, 6811, Note_on_c, 1, 81, 127
1, 6812, Note_on_c, 1, 52, 127
1, 6814, Note_on_c, 1, 59, 127
1, 6816, Note_on_c, 1, 74, 127
1, 6863, Note_on_c, 1, 80, 127
1, 6871, Note_off_c, 1, 64, 0
1, 6879, Note_off_c, 1, 81, 0
1, 6883, Note_off_c, 1, 59, 0
1, 6891, Note_off_c, 1, 74, 0
1, 6893, Note_off_c, 1, 52, 0
1, 6927, Note_off_c, 1, 80, 0
1, 6930, Note_on_c, 1, 81, 127
1, 6933, Note_on_c, 1, 69, 127
1, 6934, Note_on_c, 1, 66, 127
1, 6936, Note_on_c, 1, 54, 127
1, 6937, Note_on_c, 1, 73, 127
1, 6981, Note_off_c, 1, 69, 0
1, 6999, Note_off_c, 1, 81, 0
1, 7000, Note_off_c, 1, 66, 0
1, 7007, Note_off_c, 1, 73, 0
1, 7018, Note_off_c, 1, 54, 0
1, 7050, Note_on_c, 1, 50, 127
1, 7051, Note_on_c, 1, 74, 127
1, 7052, Note_on_c, 1, 66, 127
1, 7059, Note_on_c, 1, 83, 127
1, 7113, Note_off_c, 1, 74, 0
1, 7122, Note_off_c, 1, 66, 0
1, 7125, Note_off_c, 1, 83, 0
1, 7134, Note_off_c, 1, 50, 0
1, 7173, Note_on_c, 1, 73, 127
1, 7173, Note_on_c, 1, 64, 127
1, 7174, Note_on_c, 1, 56, 127
1, 7176, Note_on_c, 1, 76, 127
1, 7199, Note_on_c, 1, 71, 127
1, 7205, Note_off_c, 1, 73, 0
1, 7212, Note_on_c, 1, 74, 127
1, 7224, Note_off_c, 1, 76, 0
1, 7231, Note_off_c, 1, 71, 0
1, 7246, Note_off_c, 1, 56, 0
1, 7258, Note_off_c, 1, 74, 0
1, 7261, Note_off_c, 1, 64, 0
1, 7291, Note_on_c, 1, 69, 127
1, 7298, Note_on_c, 1, 52, 127
1, 7347, Note_off_c, 1, 69, 0
1, 7356, Note_on_c, 1, 68, 127
1, 7373, Note_off_c, 1, 52, 0
1, 7407, Note_off_c, 1, 68, 0
1, 7428, Note_on_c, 1, 57, 127
1, 7502, Note_off_c, 1, 57, 0
1, 7539, Note_on_c, 1, 49, 127
1, 7605, Note_on_c, 1, 78, 127
1, 7628, Note_off_c, 1, 49, 0
1, 7661, Note_off_c, 1, 78, 0
1, 7663, Note_on_c, 1, 47, 127
1, 7670, Note_on_c, 1, 80, 127
1, 7738, Note_off_c, 1, 80, 0
1, 7746, Note_off_c, 1, 47, 0
1, 7785, Note_on_c, 1, 45, 127
1, 7786, Note_on_c, 1, 73, 127
1, 7788, Note_on_c, 1, 81, 127
1, 7788, Note_on_c, 1, 64, 127
1, 7842, Note_off_c, 1, 81, 0
1, 7844, Note_off_c, 1, 73, 0
1, 7851, Note_off_c, 1, 64, 0
1, 7859, Note_off_c, 1, 45, 0
1, 7900, Note_on_c, 1, 73, 127
1, 7902, Note_on_c, 1, 62, 127
1, 7909, Note_on_c, 1, 50, 127
1, 7910, Note_on_c, 1, 66, 127
1, 7921, Note_on_c, 1, 71, 127
1, 7932, Note_off_c, 1, 73, 0
1, 7967, Note_off_c, 1, 71, 0
1, 7972, Note_off_c, 1, 66, 0
1, 7982, Note_off_c, 1, 50, 0
1, 7983, Note_off_c, 1, 62, 0
1, 8018, Note_on_c, 1, 69, 127
1, 8022, Note_on_c, 1, 59, 127
1, 8024, Note_on_c, 1, 64, 127
1, 8033, Note_on_c, 1, 52, 127
1, 8035, Note_on_c, 1, 74, 127
1, 8081, Note_off_c, 1, 69, 0
1, 8084, Note_off_c, 1, 59, 0
1, 8084, Note_on_c, 1, 68, 127
1, 8087, Note_off_c, 1, 64, 0
1, 8097, Note_off_c, 1, 74, 0
1, 8098, Note_off_c, 1, 52, 0
1, 8138, Note_off_c, 1, 68, 0
1, 8141, Note_on_c, 1, 69, 127
1, 8141, Note_on_c, 1, 61, 127
1, 8144, Note_on_c, 1, 57, 127
1, 8150, Note_on_c, 1, 54, 127
1, 8157, Note_on_c, 1, 73, 127
1, 8207, Note_off_c, 1, 61, 0
1, 8208, Note_off_c, 1, 69, 0
1, 8211, Note_off_c, 1, 54, 0
1, 8212, Note_off_c, 1, 57, 0
1, 8217, Note_off_c, 1, 73, 0
1, 8256, Note_on_c, 1, 62, 127
1, 8263, Note_on_c, 1, 71, 127
1, 8264, Note_on_c, 1, 66, 127
1, 8267, Note_on_c, 1, 50, 127
1, 8271, Note_on_c, 1, 74, 127
1, 8321, Note_off_c, 1, 71, 0
1, 8323, Note_off_c, 1, 62, 0
1, 8324, Note_off_c, 1, 50, 0
1, 8326, Note_off_c, 1, 66, 0
1, 8338, Note_off_c, 1, 74, 0
1, 8378, Note_on_c, 1, 64, 127
1, 8386, Note_on_c, 1, 62, 127
1, 8387, Note_on_c, 1, 71, 127
1, 8390, Note_on_c, 1, 52, 127
1, 8445, Note_off_c, 1, 64, 0
1, 8445, Note_off_c, 1, 52, 0
1, 8449, Note_off_c, 1, 71, 0
1, 8450, Note_off_c, 1, 62, 0
1, 8503, Note_on_c, 1, 68, 127
1, 8508, Note_on_c, 1, 64, 127
1, 8508, Note_on_c, 1, 59, 127
1, 8509, Note_on_c, 1, 76, 127
1, 8512, Note_on_c, 1, 40, 127
1, 8559, Note_off_c, 1, 64, 0
1, 8561, Note_off_c, 1, 76, 0
1, 8567, Note_off_c, 1, 68, 0
1, 8568, Note_off_c, 1, 59, 0
1, 8575, Note_off_c, 1, 40, 0
1, 8632, Note_on_c, 1, 64, 127
1, 8636, Note_on_c, 1, 69, 127
1, 8639, Note_on_c, 1, 61, 127
1, 8641, Note_on_c, 1, 45, 127
1, 8645, Note_on_c, 1, 73, 127
1, 8882, Note_off_c, 1, 73, 0
1, 8889, Note_off_c, 1, 69, 0
1, 8895, Note_off_c, 1, 64, 0
1, 8895, Note_off_c, 1, 45, 0
1, 8906, Note_off_c, 1, 61, 0
1, 8994, Note_on_c, 1, 78, 127
1, 8994, Note_on_c, 1, 74, 127
1, 8996, Note_on_c, 1, 62, 127
1, 9003, Note_on_c, 1, 50, 127
1, 9004, Note_on_c, 1, 69, 127
1, 9029, Note_off_c, 1, 50, 0
1, 9048, Note_off_c, 1, 78, 0
1, 9049, Note_off_c, 1, 62, 0
1, 9049, Note_on_c, 1, 76, 127
1, 9051, Note_off_c, 1, 74, 0
1, 9054, Note_on_c, 1, 61, 127
1, 9088, Note_off_c, 1, 69, 0
1, 9097, Note_off_c, 1, 76, 0
1, 9100, Note_off_c, 1, 61, 0
1, 9108, Note_on_c, 1, 74, 127
1, 9109, Note_on_c, 1, 78, 127
1, 9110, Note_on_c, 1, 69, 127
1, 9115, Note_on_c, 1, 62, 127
1, 9123, Note_on_c, 1, 50, 127
1, 9157, Note_off_c, 1, 62, 0
1, 9160, Note_off_c, 1, 78, 0
1, 9168, Note_off_c, 1, 50, 0
1, 9171, Note_off_c, 1, 74, 0
1, 9201, Note_off_c, 1, 69, 0
1, 9227, Note_on_c, 1, 79, 127
1, 9231, Note_on_c, 1, 76, 127
1, 9231, Note_on_c, 1, 55, 127
1, 9232, Note_on_c, 1, 71, 127
1, 9280, Note_off_c, 1, 79, 0
1, 9283, Note_off_c, 1, 76, 0
1, 9285, Note_off_c, 1, 55, 0
1, 9292, Note_off_c, 1, 71, 0
1, 9345, Note_on_c, 1, 78, 127
1, 9351, Note_on_c, 1, 69, 127
1, 9353, Note_on_c, 1, 73, 127
1, 9356, Note_on_c, 1, 57, 127
1, 9367, Note_on_c, 1, 76, 127
1, 9380, Note_off_c, 1, 78, 0
1, 9411, Note_off_c, 1, 57, 0
1, 9412, Note_off_c, 1, 73, 0
1, 9419, Note_off_c, 1, 69, 0
1, 9467, Note_on_c, 1, 74, 127
1, 9469, Note_on_c, 1, 67, 127
1, 9473, Note_on_c, 1, 52, 127
1, 9478, Note_off_c, 1, 76, 0
1, 9524, Note_off_c, 1, 52, 0
1, 9531, Note_off_c, 1, 74, 0
1, 9538, Note_off_c, 1, 67, 0
1, 9584, Note_on_c, 1, 66, 127
1, 9593, Note_on_c, 1, 54, 127
1, 9653, Note_off_c, 1, 66, 0
1, 9684, Note_off_c, 1, 54, 0
1, 9696, Note_on_c, 1, 78, 127
1, 9705, Note_on_c, 1, 69, 127
1, 9710, Note_on_c, 1, 50, 127
1, 9711, Note_on_c, 1, 74, 127
1, 9716, Note_on_c, 1, 62, 127
1, 9753, Note_on_c, 1, 73, 127
1, 9755, Note_on_c, 1, 79, 127
1, 9757, Note_off_c, 1, 50, 0
1, 9758, Note_off_c, 1, 74, 0
1, 9760, Note_off_c, 1, 78, 0
1, 9764, Note_off_c, 1, 69, 0
1, 9767, Note_on_c, 1, 52, 127
1, 9769, Note_off_c, 1, 62, 0
1, 9798, Note_off_c, 1, 73, 0
1, 9804, Note_off_c, 1, 79, 0
1, 9812, Note_off_c, 1, 52, 0
1, 9813, Note_on_c, 1, 74, 127
1, 9822, Note_on_c, 1, 81, 127
1, 9823, Note_on_c, 1, 69, 127
1, 9827, Note_on_c, 1, 54, 127
1, 9828, Note_on_c, 1, 50, 127
1, 9861, Note_off_c, 1, 74, 0
1, 9862, Note_off_c, 1, 50, 0
1, 9874, Note_off_c, 1, 54, 0
1, 9877, Note_off_c, 1, 81, 0
1, 9880, Note_off_c, 1, 69, 0
1, 9938, Note_on_c, 1, 55, 127
1, 9942, Note_on_c, 1, 67, 127
1, 9943, Note_on_c, 1, 62, 127
1, 9943, Note_on_c, 1, 83, 127
1, 9943, Note_on_c, 1, 71, 127
1, 9944, Note_on_c, 1, 79, 127
1, 9951, Note_on_c, 1, 50, 127
1, 9984, Note_off_c, 1, 79, 0
1, 9987, Note_off_c, 1, 50, 0
1, 9992, Note_off_c, 1, 62, 0
1, 9992, Note_off_c, 1, 71, 0
1, 9993, Note_off_c, 1, 83, 0
1, 9994, Note_off_c, 1, 55, 0
1, 10002, Note_off_c, 1, 67, 0
1, 10063, Note_on_c, 1, 81, 127
1, 10065, Note_on_c, 1, 74, 127
1, 10067, Note_on_c, 1, 78, 127
1, 10067, Note_on_c, 1, 69, 127
1, 10068, Note_on_c, 1, 57, 127
1, 10073, Note_on_c, 1, 66, 127
1, 10076, Note_on_c, 1, 45, 127
1, 10088, Note_on_c, 1, 79, 127
1, 10089, Note_on_c, 1, 73, 127
1, 10096, Note_off_c, 1, 74, 0
1, 10096, Note_on_c, 1, 76, 127
1, 10097, Note_off_c, 1, 78, 0
1, 10099, Note_off_c, 1, 81, 0
1, 10104, Note_on_c, 1, 64, 127
1, 10105, Note_off_c, 1, 66, 0
1, 10107, Note_off_c, 1, 69, 0
1, 10112, Note_off_c, 1, 76, 0
1, 10113, Note_off_c, 1, 45, 0
1, 10121, Note_off_c, 1, 73, 0
1, 10129, Note_off_c, 1, 79, 0
1, 10130, Note_off_c, 1, 57, 0
1, 10130, Note_off_c, 1, 64, 0
1, 10181, Note_on_c, 1, 62, 127
1, 10190, Note_on_c, 1, 50, 127
1, 10234, Note_off_c, 1, 50, 0
1, 10239, Note_on_c, 1, 61, 127
1, 10278, Note_off_c, 1, 61, 0
1, 10365, Note_off_c, 1, 62, 0
1, 10427, Note_on_c, 1, 76, 127
1, 10427, Note_on_c, 1, 59, 127
1, 10428, Note_on_c, 1, 62, 127
1, 10435, Note_on_c, 1, 68, 127
1, 10438, Note_on_c, 1, 71, 127
1, 10475, Note_off_c, 1, 62, 0
1, 10485, Note_off_c, 1, 59, 0
1, 10485, Note_on_c, 1, 74, 127
1, 10488, Note_off_c, 1, 76, 0
1, 10489, Note_off_c, 1, 71, 0
1, 10491, Note_off_c, 1, 68, 0
1, 10536, Note_off_c, 1, 74, 0
1, 10544, Note_on_c, 1, 61, 127
1, 10551, Note_on_c, 1, 76, 127
1, 10551, Note_on_c, 1, 69, 127
1, 10555, Note_on_c, 1, 64, 127
1, 10601, Note_off_c, 1, 76, 0
1, 10605, Note_on_c, 1, 78, 127
1, 10608, Note_off_c, 1, 64, 0
1, 10609, Note_off_c, 1, 69, 0
1, 10623, Note_off_c, 1, 61, 0
1, 10642, Note_off_c, 1, 78, 0
1, 10668, Note_on_c, 1, 78, 127
1, 10670, Note_on_c, 1, 73, 127
1, 10670, Note_on_c, 1, 69, 127
1, 10670, Note_on_c, 1, 57, 127
1, 10716, Note_off_c, 1, 78, 0
1, 10723, Note_off_c, 1, 69, 0
1, 10726, Note_off_c, 1, 73, 0
1, 10737, Note_off_c, 1, 57, 0
1, 10785, Note_on_c, 1, 71, 127
1, 10788, Note_on_c, 1, 66, 127
1, 10790, Note_on_c, 1, 76, 127
1, 10791, Note_on_c, 1, 59, 127
1, 10819, Note_on_c, 1, 74, 127
1, 10821, Note_off_c, 1, 76, 0
1, 10841, Note_off_c, 1, 71, 0
1, 10850, Note_off_c, 1, 66, 0
1, 10852, Note_off_c, 1, 74, 0
1, 10857, Note_off_c, 1, 59, 0
1, 10900, Note_on_c, 1, 64, 127
1, 10907, Note_on_c, 1, 73, 127
1, 10907, Note_on_c, 1, 56, 127
1, 10947, Note_off_c, 1, 73, 0
1, 10967, Note_off_c, 1, 56, 0
1, 10968, Note_off_c, 1, 64, 0
1, 11028, Note_on_c, 1, 69, 127
1, 11028, Note_on_c, 1, 64, 127
1, 11028, Note_on_c, 1, 73, 127
1, 11028, Note_on_c, 1, 57, 127
1, 11077, Note_off_c, 1, 73, 0
1, 11080, Note_off_c, 1, 69, 0
1, 11083, Note_on_c, 1, 74, 127
1, 11085, Note_off_c, 1, 64, 0
1, 11096, Note_off_c, 1, 57, 0
1, 11133, Note_off_c, 1, 74, 0
1, 11141, Note_on_c, 1, 76, 127
1, 11144, Note_on_c, 1, 64, 127
1, 11146, Note_on_c, 1, 69, 127
1, 11148, Note_on_c, 1, 49, 127
1, 11191, Note_off_c, 1, 76, 0
1, 11193, Note_off_c, 1, 69, 0
1, 11200, Note_off_c, 1, 49, 0
1, 11200, Note_on_c, 1, 78, 127
1, 11206, Note_off_c, 1, 64, 0
1, 11244, Note_off_c, 1, 78, 0
1, 11263, Note_on_c, 1, 74, 127
1, 11264, Note_on_c, 1, 47, 127
1, 11266, Note_on_c, 1, 64, 127
1, 11266, Note_on_c, 1, 80, 127
1, 11313, Note_off_c, 1, 80, 0
1, 11316, Note_off_c, 1, 74, 0
1, 11322, Note_off_c, 1, 47, 0
1, 11323, Note_off_c, 1, 64, 0
1, 11381, Note_on_c, 1, 45, 127
1, 11385, Note_on_c, 1, 73, 127
1, 11385, Note_on_c, 1, 81, 127
1, 11390, Note_on_c, 1, 64, 127
1, 11428, Note_off_c, 1, 81, 0
1, 11440, Note_off_c, 1, 45, 0
1, 11443, Note_off_c, 1, 73, 0
1, 11445, Note_off_c, 1, 64, 0
1, 11498, Note_on_c, 1, 73, 127
1, 11508, Note_on_c, 1, 66, 127
1, 11510, Note_on_c, 1, 50, 127
1, 11529, Note_on_c, 1, 71, 127
1, 11537, Note_off_c, 1, 73, 0
1, 11569, Note_off_c, 1, 50, 0
1, 11569, Note_off_c, 1, 71, 0
1, 11574, Note_off_c, 1, 66, 0
1, 11616, Note_on_c, 1, 69, 127
1, 11627, Note_on_c, 1, 64, 127
1, 11631, Note_on_c, 1, 52, 127
1, 11668, Note_on_c, 1, 68, 127
1, 11670, Note_off_c, 1, 69, 0
1, 11674, Note_on_c, 1, 74, 127
1, 11683, Note_off_c, 1, 52, 0
1, 11689, Note_off_c, 1, 64, 0
1, 11717, Note_off_c, 1, 68, 0
1, 11720, Note_off_c, 1, 74, 0
1, 11724, Note_on_c, 1, 69, 127
1, 11740, Note_on_c, 1, 73, 127
1, 11744, Note_on_c, 1, 54, 127
1, 11782, Note_on_c, 1, 71, 127
1, 11798, Note_off_c, 1, 73, 0
1, 11804, Note_off_c, 1, 69, 0
1, 11833, Note_off_c, 1, 54, 0
1, 11842, Note_off_c, 1, 71, 0
1, 11857, Note_on_c, 1, 52, 127
1, 11859, Note_on_c, 1, 66, 127
1, 11902, Note_on_c, 1, 74, 127
1, 11905, Note_off_c, 1, 52, 0
1, 11913, Note_on_c, 1, 50, 127
1, 11921, Note_off_c, 1, 66, 0
1, 11960, Note_off_c, 1, 74, 0
1, 11962, Note_off_c, 1, 50, 0
1, 11967, Note_on_c, 1, 76, 127
1, 11974, Note_on_c, 1, 64, 127
1, 11977, Note_on_c, 1, 69, 127
1, 11979, Note_on_c, 1, 49, 127
1, 12026, Note_off_c, 1, 76, 0
1, 12034, Note_off_c, 1, 69, 0
1, 12034, Note_off_c, 1, 49, 0
1, 12035, Note_off_c, 1, 64, 0
1, 12093, Note_on_c, 1, 74, 127
1, 12096, Note_on_c, 1, 57, 127
1, 12097, Note_on_c, 1, 78, 127
1, 12098, Note_on_c, 1, 69, 127
1, 12102, Note_on_c, 1, 50, 127
1, 12137, Note_off_c, 1, 74, 0
1, 12139, Note_off_c, 1, 69, 0
1, 12141, Note_off_c, 1, 57, 0
1, 12149, Note_off_c, 1, 78, 0
1, 12157, Note_off_c, 1, 50, 0
1, 12217, Note_on_c, 1, 69, 127
1, 12223, Note_on_c, 1, 52, 127
1, 12225, Note_on_c, 1, 71, 127
1, 12229, Note_on_c, 1, 64, 127
1, 12246, Note_on_c, 1, 68, 127
1, 12252, Note_off_c, 1, 69, 0
1, 12272, Note_off_c, 1, 68, 0
1, 12331, Note_on_c, 1, 66, 127
1, 12371, Note_off_c, 1, 66, 0
1, 12456, Note_off_c, 1, 71, 0
1, 12471, Note_on_c, 1, 74, 127
1, 12473, Note_off_c, 1, 52, 0
1, 12488, Note_off_c, 1, 64, 0
1, 12556, Note_off_c, 1, 74, 0
1, 12579, Note_on_c, 1, 64, 127
1, 12582, Note_on_c, 1, 71, 127
1, 12582, Note_on_c, 1, 57, 127
1, 12633, Note_off_c, 1, 71, 0
1, 12633, Note_on_c, 1, 56, 127
1, 12642, Note_off_c, 1, 64, 0
1, 12642, Note_off_c, 1, 57, 0
1, 12679, Note_off_c, 1, 56, 0
1, 12693, Note_on_c, 1, 57, 127
1, 12699, Note_on_c, 1, 73, 127
1, 12702, Note_on_c, 1, 64, 127
1, 12748, Note_off_c, 1, 57, 0
1, 12755, Note_off_c, 1, 64, 0
1, 12799, Note_off_c, 1, 73, 0
1, 12818, Note_on_c, 1, 74, 127
1, 12822, Note_on_c, 1, 59, 127
1, 12826, Note_on_c, 1, 64, 127
1, 12865, Note_off_c, 1, 74, 0
1, 12869, Note_off_c, 1, 59, 0
1, 12876, Note_off_c, 1, 64, 0
1, 12931, Note_on_c, 1, 57, 127
1, 12944, Note_on_c, 1, 64, 127
1, 12946, Note_on_c, 1, 71, 127
1, 12957, Note_on_c, 1, 56, 127
1, 12976, Note_off_c, 1, 57, 0
1, 12989, Note_off_c, 1, 56, 0
1, 13053, Note_on_c, 1, 54, 127
1, 13060, Note_on_c, 1, 74, 127
1, 13096, Note_off_c, 1, 54, 0
1, 13114, Note_on_c, 1, 52, 127
1, 13116, Note_off_c, 1, 74, 0
1, 13168, Note_off_c, 1, 52, 0
1, 13173, Note_on_c, 1, 73, 127
1, 13201, Note_off_c, 1, 73, 0
1, 13232, Note_off_c, 1, 71, 0
1, 13273, Note_off_c, 1, 64, 0
1, 13280, Note_on_c, 1, 69, 127
1, 13335, Note_on_c, 1, 68, 127
1, 13351, Note_off_c, 1, 69, 0
1, 13374, Note_off_c, 1, 68, 0
1, 13407, Note_on_c, 1, 73, 127
1, 13414, Note_on_c, 1, 78, 127
1, 13417, Note_on_c, 1, 66, 127
1, 13427, Note_on_c, 1, 71, 127
1, 13430, Note_on_c, 1, 62, 127
1, 13451, Note_off_c, 1, 73, 0
1, 13476, Note_off_c, 1, 66, 0
1, 13511, Note_off_c, 1, 78, 0
1, 13517, Note_off_c, 1, 62, 0
1, 13517, Note_on_c, 1, 69, 127
1, 13536, Note_on_c, 1, 59, 127
1, 13579, Note_on_c, 1, 68, 127
1, 13586, Note_off_c, 1, 69, 0
1, 13589, Note_off_c, 1, 71, 0
1, 13595, Note_off_c, 1, 59, 0
1, 13635, Note_off_c, 1, 68, 0
1, 13656, Note_on_c, 1, 69, 127
1, 13658, Note_on_c, 1, 73, 127
1, 13662, Note_on_c, 1, 64, 127
1, 13664, Note_on_c, 1, 76, 127
1, 13756, Note_off_c, 1, 69, 0
1, 13758, Note_off_c, 1, 64, 0
1, 13761, Note_off_c, 1, 73, 0
1, 13768, Note_off_c, 1, 76, 0
1, 13782, Note_on_c, 1, 61, 127
1, 13829, Note_off_c, 1, 61, 0
1, 13833, Note_on_c, 1, 59, 127
1, 13877, Note_off_c, 1, 59, 0
1, 13896, Note_on_c, 1, 61, 127
1, 13955, Note_off_c, 1, 61, 0
1, 14018, Note_on_c, 1, 62, 127
1, 14022, Note_on_c, 1, 69, 127
1, 14024, Note_on_c, 1, 78, 127
1, 14073, Note_off_c, 1, 78, 0
1, 14089, Note_off_c, 1, 62, 0
1, 14090, Note_off_c, 1, 69, 0
1, 14134, Note_on_c, 1, 68, 127
1, 14134, Note_on_c, 1, 62, 127
1, 14134, Note_on_c, 1, 61, 127
1, 14142, Note_on_c, 1, 76, 127
1, 14154, Note_on_c, 1, 59, 127
1, 14165, Note_on_c, 1, 74, 127
1, 14166, Note_off_c, 1, 61, 0
1, 14173, Note_off_c, 1, 76, 0
1, 14192, Note_off_c, 1, 59, 0
1, 14200, Note_off_c, 1, 68, 0
1, 14201, Note_off_c, 1, 62, 0
1, 14206, Note_off_c, 1, 74, 0
1, 14250, Note_on_c, 1, 73, 127
1, 14252, Note_on_c, 1, 69, 127
1, 14255, Note_on_c, 1, 57, 127
1, 14259, Note_on_c, 1, 64, 127
1, 14289, Note_off_c, 1, 73, 0
1, 14301, Note_on_c, 1, 71, 127
1, 14307, Note_on_c, 1, 56, 127
1, 14318, Note_off_c, 1, 57, 0
1, 14322, Note_off_c, 1, 69, 0
1, 14330, Note_off_c, 1, 64, 0
1, 14346, Note_off_c, 1, 56, 0
1, 14353, Note_off_c, 1, 71, 0
1, 14379, Note_on_c, 1, 81, 127
1, 14383, Note_on_c, 1, 71, 127
1, 14384, Note_on_c, 1, 63, 127
1, 14385, Note_on_c, 1, 66, 127
1, 14469, Note_off_c, 1, 71, 0
1, 14473, Note_off_c, 1, 66, 0
1, 14488, Note_off_c, 1, 81, 0
1, 14514, Note_off_c, 1, 63, 0
1, 14618, Note_on_c, 1, 80, 127
1, 14618, Note_on_c, 1, 64, 127
1, 14621, Note_on_c, 1, 71, 127
1, 14691, Note_off_c, 1, 71, 0
1, 14699, Note_off_c, 1, 64, 0
1, 14725, Note_off_c, 1, 80, 0
1, 14734, Note_on_c, 1, 68, 127
1, 14735, Note_on_c, 1, 74, 127
1, 14740, Note_on_c, 1, 81, 127
1, 14741, Note_on_c, 1, 52, 127
1, 14783, Note_on_c, 1, 83, 127
1, 14787, Note_off_c, 1, 81, 0
1, 14799, Note_off_c, 1, 74, 0
1, 14803, Note_off_c, 1, 52, 0
1, 14807, Note_off_c, 1, 68, 0
1, 14829, Note_off_c, 1, 83, 0
1, 14850, Note_on_c, 1, 76, 127
1, 14852, Note_on_c, 1, 73, 127
1, 14852, Note_on_c, 1, 69, 127
1, 14852, Note_on_c, 1, 54, 127
1, 14903, Note_off_c, 1, 76, 0
1, 14914, Note_off_c, 1, 69, 0
1, 14919, Note_off_c, 1, 73, 0
1, 14919, Note_off_c, 1, 54, 0
1, 14971, Note_on_c, 1, 71, 127
1, 14972, Note_on_c, 1, 74, 127
1, 14976, Note_on_c, 1, 56, 127
1, 15024, Note_off_c, 1, 74, 0
1, 15038, Note_off_c, 1, 56, 0
1, 15039, Note_off_c, 1, 71, 0
1, 15091, Note_on_c, 1, 74, 127
1, 15094, Note_on_c, 1, 69, 127
1, 15097, Note_on_c, 1, 57, 127
1, 15100, Note_on_c, 1, 64, 127
1, 15115, Note_on_c, 1, 73, 127
1, 15120, Note_off_c, 1, 74, 0
1, 15144, Note_off_c, 1, 73, 0
1, 15158, Note_off_c, 1, 69, 0
1, 15169, Note_off_c, 1, 64, 0
1, 15170, Note_off_c, 1, 57, 0
1, 15199, Note_on_c, 1, 71, 127
1, 15212, Note_on_c, 1, 49, 127
1, 15215, Note_on_c, 1, 61, 127
1, 15267, Note_off_c, 1, 71, 0
1, 15274, Note_off_c, 1, 61, 0
1, 15283, Note_off_c, 1, 49, 0
1, 15319, Note_on_c, 1, 66, 127
1, 15324, Note_on_c, 1, 71, 127
1, 15331, Note_on_c, 1, 50, 127
1, 15333, Note_on_c, 1, 59, 127
1, 15391, Note_off_c, 1, 59, 0
1, 15396, Note_off_c, 1, 50, 0
1, 15398, Note_off_c, 1, 71, 0
1, 15400, Note_off_c, 1, 66, 0
1, 15444, Note_on_c, 1, 74, 127
1, 15448, Note_on_c, 1, 81, 127
1, 15452, Note_on_c, 1, 59, 127
1, 15453, Note_on_c, 1, 52, 127
1, 15464, Note_on_c, 1, 64, 127
1, 15494, Note_off_c, 1, 81, 0
1, 15506, Note_on_c, 1, 80, 127
1, 15510, Note_off_c, 1, 59, 0
1, 15514, Note_off_c, 1, 52, 0
1, 15516, Note_off_c, 1, 64, 0
1, 15521, Note_off_c, 1, 74, 0
1, 15547, Note_off_c, 1, 80, 0
1, 15572, Note_on_c, 1, 73, 127
1, 15572, Note_on_c, 1, 54, 127
1, 15572, Note_on_c, 1, 66, 127
1, 15577, Note_on_c, 1, 81, 127
1, 15593, Note_on_c, 1, 69, 127
1, 15626, Note_off_c, 1, 73, 0
1, 15626, Note_off_c, 1, 81, 0
1, 15639, Note_off_c, 1, 66, 0
1, 15641, Note_off_c, 1, 69, 0
1, 15644, Note_off_c, 1, 54, 0
1, 15689, Note_on_c, 1, 50, 127
1, 15693, Note_on_c, 1, 66, 127
1, 15696, Note_on_c, 1, 74, 127
1, 15701, Note_on_c, 1, 83, 127
1, 15750, Note_off_c, 1, 83, 0
1, 15752, Note_off_c, 1, 50, 0
1, 15759, Note_off_c, 1, 66, 0
1, 15762, Note_off_c, 1, 74, 0
1, 15808, Note_on_c, 1, 73, 127
1, 15814, Note_on_c, 1, 56, 127
1, 15816, Note_on_c, 1, 76, 127
1, 15817, Note_on_c, 1, 64, 127
1, 15830, Note_on_c, 1, 71, 127
1, 15835, Note_off_c, 1, 73, 0
1, 15845, Note_on_c, 1, 74, 127
1, 15863, Note_off_c, 1, 76, 0
1, 15878, Note_off_c, 1, 56, 0
1, 15887, Note_off_c, 1, 64, 0
1, 15895, Note_off_c, 1, 74, 0
1, 15926, Note_on_c, 1, 69, 127
1, 15938, Note_on_c, 1, 52, 127
1, 15958, Note_off_c, 1, 71, 0
1, 15989, Note_on_c, 1, 68, 127
1, 15995, Note_off_c, 1, 52, 0
1, 15997, Note_off_c, 1, 69, 0
1, 16051, Note_off_c, 1, 68, 0
1, 16059, Note_on_c, 1, 57, 127
1, 16109, Note_off_c, 1, 57, 0
1, 16179, Note_on_c, 1, 49, 127
1, 16181, Note_on_c, 1, 76, 127
1, 16182, Note_on_c, 1, 64, 127
1, 16185, Note_on_c, 1, 69, 127
1, 16229, Note_off_c, 1, 76, 0
1, 16233, Note_on_c, 1, 78, 127
1, 16236, Note_off_c, 1, 49, 0
1, 16249, Note_off_c, 1, 64, 0
1, 16252, Note_off_c, 1, 69, 0
1, 16276, Note_off_c, 1, 78, 0
1, 16292, Note_on_c, 1, 47, 127
1, 16296, Note_on_c, 1, 80, 127
1, 16299, Note_on_c, 1, 64, 127
1, 16304, Note_on_c, 1, 74, 127
1, 16348, Note_off_c, 1, 80, 0
1, 16349, Note_off_c, 1, 47, 0
1, 16358, Note_off_c, 1, 74, 0
1, 16366, Note_off_c, 1, 64, 0
1, 16415, Note_on_c, 1, 81, 127
1, 16416, Note_on_c, 1, 45, 127
1, 16419, Note_on_c, 1, 64, 127
1, 16422, Note_on_c, 1, 73, 127
1, 16463, Note_off_c, 1, 81, 0
1, 16478, Note_off_c, 1, 45, 0
1, 16480, Note_off_c, 1, 73, 0
1, 16481, Note_off_c, 1, 64, 0
1, 16530, Note_on_c, 1, 73, 127
1, 16538, Note_on_c, 1, 50, 127
1, 16542, Note_on_c, 1, 66, 127
1, 16542, Note_on_c, 1, 62, 127
1, 16559, Note_on_c, 1, 71, 127
1, 16564, Note_off_c, 1, 73, 0
1, 16597, Note_off_c, 1, 71, 0
1, 16604, Note_off_c, 1, 62, 0
1, 16607, Note_off_c, 1, 50, 0
1, 16610, Note_off_c, 1, 66, 0
1, 16646, Note_on_c, 1, 69, 127
1, 16650, Note_on_c, 1, 64, 127
1, 16653, Note_on_c, 1, 59, 127
1, 16659, Note_on_c, 1, 52, 127
1, 16662, Note_on_c, 1, 74, 127
1, 16707, Note_off_c, 1, 59, 0
1, 16707, Note_on_c, 1, 68, 127
1, 16709, Note_off_c, 1, 69, 0
1, 16723, Note_off_c, 1, 52, 0
1, 16723, Note_off_c, 1, 74, 0
1, 16728, Note_off_c, 1, 64, 0
1, 16754, Note_off_c, 1, 68, 0
1, 16770, Note_on_c, 1, 69, 127
1, 16770, Note_on_c, 1, 61, 127
1, 16774, Note_on_c, 1, 57, 127
1, 16784, Note_on_c, 1, 73, 127
1, 16784, Note_on_c, 1, 54, 127
1, 16835, Note_off_c, 1, 57, 0
1, 16836, Note_off_c, 1, 61, 0
1, 16838, Note_off_c, 1, 54, 0
1, 16844, Note_off_c, 1, 69, 0
1, 16849, Note_off_c, 1, 73, 0
1, 16884, Note_on_c, 1, 66, 127
1, 16895, Note_on_c, 1, 62, 127
1, 16896, Note_on_c, 1, 71, 127
1, 16900, Note_on_c, 1, 74, 127
1, 16900, Note_on_c, 1, 50, 127
1, 16931, Note_off_c, 1, 71, 0
1, 16949, Note_off_c, 1, 66, 0
1, 16950, Note_off_c, 1, 62, 0
1, 16954, Note_off_c, 1, 74, 0
1, 16956, Note_off_c, 1, 50, 0
1, 17007, Note_on_c, 1, 64, 127
1, 17018, Note_on_c, 1, 71, 127
1, 17018, Note_on_c, 1, 62, 127
1, 17018, Note_on_c, 1, 52, 127
1, 17071, Note_off_c, 1, 62, 0
1, 17071, Note_off_c, 1, 52, 0
1, 17072, Note_off_c, 1, 71, 0
1, 17075, Note_off_c, 1, 64, 0
1, 17132, Note_on_c, 1, 69, 127
1, 17138, Note_on_c, 1, 64, 127
1, 17140, Note_on_c, 1, 59, 127
1, 17147, Note_on_c, 1, 40, 127
1, 17148, Note_on_c, 1, 76, 127
1, 17158, Note_on_c, 1, 68, 127
1, 17170, Note_off_c, 1, 69, 0
1, 17188, Note_off_c, 1, 59, 0
1, 17194, Note_off_c, 1, 76, 0
1, 17197, Note_off_c, 1, 68, 0
1, 17201, Note_off_c, 1, 64, 0
1, 17201, Note_off_c, 1, 40, 0
1, 17266, Note_on_c, 1, 61, 127
1, 17270, Note_on_c, 1, 69, 127
1, 17272, Note_on_c, 1, 64, 127
1, 17272, Note_on_c, 1, 45, 127
1, 17273, Note_on_c, 1, 73, 127
1, 17516, Note_off_c, 1, 64, 0
1, 17520, Note_off_c, 1, 73, 0
1, 17526, Note_off_c, 1, 45, 0
1, 17530, Note_off_c, 1, 69, 0
1, 17539, Note_off_c, 1, 61, 0
1, 17635, Note_on_c, 1, 69, 127
1, 17642, Note_on_c, 1, 76, 127
1, 17647, Note_on_c, 1, 73, 127
1, 17688, Note_off_c, 1, 69, 0
1, 17688, Note_off_c, 1, 76, 0
1, 17689, Note_on_c, 1, 71, 127
1, 17690, Note_on_c, 1, 74, 127
1, 17693, Note_off_c, 1, 73, 0
1, 17735, Note_off_c, 1, 71, 0
1, 17748, Note_off_c, 1, 74, 0
1, 17755, Note_on_c, 1, 76, 127
1, 17755, Note_on_c, 1, 73, 127
1, 17759, Note_on_c, 1, 69, 127
1, 17809, Note_off_c, 1, 76, 0
1, 17809, Note_off_c, 1, 69, 0
1, 17813, Note_off_c, 1, 73, 0
1, 17877, Note_on_c, 1, 78, 127
1, 17877, Note_on_c, 1, 69, 127
1, 17880, Note_on_c, 1, 74, 127
1, 17913, Note_off_c, 1, 74, 0
1, 17918, Note_off_c, 1, 78, 0
1, 17928, Note_off_c, 1, 69, 0
1, 17993, Note_on_c, 1, 78, 127
1, 18002, Note_on_c, 1, 74, 127
1, 18003, Note_on_c, 1, 69, 127
1, 18044, Note_on_c, 1, 79, 127
1, 18053, Note_off_c, 1, 78, 0
1, 18058, Note_on_c, 1, 76, 127
1, 18065, Note_off_c, 1, 74, 0
1, 18070, Note_off_c, 1, 69, 0
1, 18093, Note_off_c, 1, 79, 0
1, 18106, Note_off_c, 1, 76, 0
1, 18110, Note_on_c, 1, 78, 127
1, 18115, Note_on_c, 1, 74, 127
1, 18117, Note_on_c, 1, 69, 127
1, 18160, Note_on_c, 1, 73, 127
1, 18164, Note_off_c, 1, 78, 0
1, 18166, Note_off_c, 1, 74, 0
1, 18166, Note_on_c, 1, 76, 127
1, 18180, Note_off_c, 1, 69, 0
1, 18199, Note_off_c, 1, 73, 0
1, 18209, Note_off_c, 1, 76, 0
1, 18229, Note_on_c, 1, 74, 127
1, 18235, Note_on_c, 1, 78, 127
1, 18235, Note_on_c, 1, 69, 127
1, 18284, Note_on_c, 1, 76, 127
1, 18288, Note_off_c, 1, 69, 0
1, 18292, Note_on_c, 1, 79, 127
1, 18295, Note_off_c, 1, 74, 0
1, 18297, Note_off_c, 1, 78, 0
1, 18329, Note_off_c, 1, 76, 0
1, 18343, Note_off_c, 1, 79, 0
1, 18349, Note_on_c, 1, 50, 127
1, 18349, Note_on_c, 1, 81, 127
1, 18400, Note_off_c, 1, 81, 0
1, 18400, Note_on_c, 1, 52, 127
1, 18403, Note_off_c, 1, 50, 0
1, 18447, Note_off_c, 1, 52, 0
1, 18460, Note_on_c, 1, 54, 127
1, 18465, Note_on_c, 1, 69, 127
1, 18469, Note_on_c, 1, 74, 127
1, 18470, Note_on_c, 1, 50, 127
1, 18505, Note_off_c, 1, 50, 0
1, 18519, Note_off_c, 1, 54, 0
1, 18521, Note_off_c, 1, 74, 0
1, 18523, Note_off_c, 1, 69, 0
1, 18586, Note_on_c, 1, 69, 127
1, 18586, Note_on_c, 1, 57, 127
1, 18588, Note_on_c, 1, 76, 127
1, 18589, Note_on_c, 1, 73, 127
1, 18598, Note_on_c, 1, 45, 127
1, 18625, Note_off_c, 1, 57, 0
1, 18632, Note_off_c, 1, 76, 0
1, 18636, Note_off_c, 1, 45, 0
1, 18645, Note_off_c, 1, 69, 0
1, 18652, Note_off_c, 1, 73, 0
1, 18712, Note_on_c, 1, 66, 127
1, 18713, Note_on_c, 1, 76, 127
1, 18714, Note_on_c, 1, 69, 127
1, 18714, Note_on_c, 1, 50, 127
1, 18714, Note_on_c, 1, 62, 127
1, 18716, Note_on_c, 1, 73, 127
1, 18716, Note_on_c, 1, 79, 127
1, 18723, Note_on_c, 1, 81, 127
1, 18733, Note_off_c, 1, 81, 0
1, 18741, Note_on_c, 1, 78, 127
1, 18745, Note_off_c, 1, 66, 0
1, 18745, Note_on_c, 1, 74, 127
1, 18746, Note_off_c, 1, 50, 0
1, 18746, Note_off_c, 1, 79, 0
1, 18764, Note_off_c, 1, 76, 0
1, 18770, Note_off_c, 1, 73, 0
1, 18775, Note_off_c, 1, 69, 0
1, 18810, Note_off_c, 1, 62, 0
1, 18825, Note_off_c, 1, 74, 0
1, 18833, Note_off_c, 1, 78, 0
1, 18833, Note_on_c, 1, 57, 127
1, 18842, Note_on_c, 1, 45, 127
1, 18888, Note_off_c, 1, 57, 0
1, 18888, Note_off_c, 1, 45, 0
1, 19073, Note_on_c, 1, 75, 127
1, 19115, Note_off_c, 1, 75, 0
1, 19185, Note_on_c, 1, 75, 127
1, 19190, Note_on_c, 1, 69, 127
1, 19200, Note_on_c, 1, 78, 127
1, 19241, Note_off_c, 1, 75, 0
1, 19244, Note_off_c, 1, 78, 0
1, 19253, Note_off_c, 1, 69, 0
1, 19305, Note_on_c, 1, 67, 127
1, 19313, Note_on_c, 1, 76, 127
1, 19315, Note_on_c, 1, 79, 127
1, 19348, Note_off_c, 1, 76, 0
1, 19358, Note_off_c, 1, 79, 0
1, 19371, Note_off_c, 1, 67, 0
1, 19429, Note_on_c, 1, 66, 127
1, 19436, Note_on_c, 1, 79, 127
1, 19437, Note_on_c, 1, 76, 127
1, 19488, Note_on_c, 1, 78, 127
1, 19491, Note_on_c, 1, 81, 127
1, 19497, Note_off_c, 1, 76, 0
1, 19501, Note_off_c, 1, 79, 0
1, 19504, Note_off_c, 1, 66, 0
1, 19530, Note_off_c, 1, 78, 0
1, 19532, Note_off_c, 1, 81, 0
1, 19546, Note_on_c, 1, 71, 127
1, 19547, Note_on_c, 1, 76, 127
1, 19555, Note_on_c, 1, 79, 127
1, 19594, Note_on_c, 1, 75, 127
1, 19604, Note_off_c, 1, 79, 0
1, 19604, Note_on_c, 1, 78, 127
1, 19607, Note_off_c, 1, 71, 0
1, 19608, Note_off_c, 1, 76, 0
1, 19637, Note_off_c, 1, 75, 0
1, 19648, Note_off_c, 1, 78, 0
1, 19662, Note_on_c, 1, 76, 127
1, 19669, Note_on_c, 1, 71, 127
1, 19671, Note_on_c, 1, 79, 127
1, 19716, Note_on_c, 1, 78, 127
1, 19721, Note_off_c, 1, 76, 0
1, 19725, Note_on_c, 1, 81, 127
1, 19727, Note_off_c, 1, 79, 0
1, 19732, Note_off_c, 1, 71, 0
1, 19763, Note_off_c, 1, 78, 0
1, 19771, Note_off_c, 1, 81, 0
1, 19780, Note_on_c, 1, 79, 127
1, 19784, Note_on_c, 1, 83, 127
1, 19788, Note_on_c, 1, 71, 127
1, 19791, Note_on_c, 1, 52, 127
1, 19822, Note_off_c, 1, 79, 0
1, 19833, Note_off_c, 1, 83, 0
1, 19835, Note_on_c, 1, 54, 127
1, 19846, Note_off_c, 1, 71, 0
1, 19847, Note_off_c, 1, 52, 0
1, 19890, Note_off_c, 1, 54, 0
1, 19901, Note_on_c, 1, 55, 127
1, 19904, Note_on_c, 1, 71, 127
1, 19905, Note_on_c, 1, 76, 127
1, 19953, Note_off_c, 1, 76, 0
1, 19962, Note_off_c, 1, 71, 0
1, 19963, Note_off_c, 1, 55, 0
1, 20025, Note_on_c, 1, 78, 127
1, 20025, Note_on_c, 1, 59, 127
1, 20027, Note_on_c, 1, 71, 127
1, 20029, Note_on_c, 1, 75, 127
1, 20072, Note_off_c, 1, 75, 0
1, 20077, Note_off_c, 1, 78, 0
1, 20078, Note_off_c, 1, 71, 0
1, 20084, Note_off_c, 1, 59, 0
1, 20140, Note_on_c, 1, 78, 127
1, 20144, Note_on_c, 1, 81, 127
1, 20148, Note_on_c, 1, 71, 127
1, 20151, Note_on_c, 1, 64, 127
1, 20153, Note_on_c, 1, 75, 127
1, 20162, Note_on_c, 1, 76, 127
1, 20173, Note_off_c, 1, 81, 0
1, 20173, Note_on_c, 1, 79, 127
1, 20194, Note_off_c, 1, 76, 0
1, 20197, Note_off_c, 1, 71, 0
1, 20200, Note_on_c, 1, 83, 127
1, 20204, Note_off_c, 1, 75, 0
1, 20209, Note_off_c, 1, 64, 0
1, 20209, Note_off_c, 1, 83, 0
1, 20224, Note_off_c, 1, 78, 0
1, 20254, Note_off_c, 1, 79, 0
1, 20268, Note_on_c, 1, 59, 127
1, 20320, Note_off_c, 1, 59, 0
1, 20392, Note_on_c, 1, 47, 127
1, 20474, Note_off_c, 1, 47, 0
1, 20504, Note_on_c, 1, 52, 127
1, 20505, Note_on_c, 1, 76, 127
1, 20508, Note_on_c, 1, 71, 127
1, 20510, Note_on_c, 1, 79, 127
1, 20552, Note_off_c, 1, 76, 0
1, 20554, Note_on_c, 1, 78, 127
1, 20555, Note_off_c, 1, 52, 0
1, 20560, Note_on_c, 1, 51, 127
1, 20563, Note_off_c, 1, 79, 0
1, 20564, Note_off_c, 1, 71, 0
1, 20613, Note_off_c, 1, 78, 0
1, 20613, Note_off_c, 1, 51, 0
1, 20619, Note_on_c, 1, 52, 127
1, 20624, Note_on_c, 1, 79, 127
1, 20625, Note_on_c, 1, 71, 127
1, 20626, Note_on_c, 1, 76, 127
1, 20665, Note_off_c, 1, 52, 0
1, 20679, Note_off_c, 1, 79, 0
1, 20682, Note_off_c, 1, 76, 0
1, 20687, Note_off_c, 1, 71, 0
1, 20740, Note_on_c, 1, 72, 127
1, 20741, Note_on_c, 1, 78, 127
1, 20742, Note_on_c, 1, 81, 127
1, 20748, Note_on_c, 1, 45, 127
1, 20796, Note_off_c, 1, 78, 0
1, 20796, Note_off_c, 1, 81, 0
1, 20800, Note_off_c, 1, 72, 0
1, 20815, Note_off_c, 1, 45, 0
1, 20857, Note_on_c, 1, 79, 127
1, 20860, Note_on_c, 1, 66, 127
1, 20861, Note_on_c, 1, 75, 127
1, 20868, Note_on_c, 1, 47, 127
1, 20876, Note_on_c, 1, 78, 127
1, 20914, Note_off_c, 1, 75, 0
1, 20920, Note_off_c, 1, 47, 0
1, 20922, Note_off_c, 1, 78, 0
1, 20940, Note_off_c, 1, 66, 0
1, 20965, Note_off_c, 1, 79, 0
1, 20974, Note_on_c, 1, 76, 127
1, 20978, Note_on_c, 1, 71, 127
1, 20981, Note_on_c, 1, 69, 127
1, 20984, Note_on_c, 1, 42, 127
1, 21025, Note_off_c, 1, 71, 0
1, 21039, Note_off_c, 1, 76, 0
1, 21040, Note_off_c, 1, 42, 0
1, 21048, Note_off_c, 1, 69, 0
1, 21100, Note_on_c, 1, 67, 127
1, 21107, Note_on_c, 1, 43, 127
1, 21179, Note_off_c, 1, 67, 0
1, 21187, Note_off_c, 1, 43, 0
1, 21210, Note_on_c, 1, 79, 127
1, 21218, Note_on_c, 1, 71, 127
1, 21225, Note_on_c, 1, 76, 127
1, 21227, Note_on_c, 1, 40, 127
1, 21265, Note_off_c, 1, 79, 0
1, 21265, Note_off_c, 1, 76, 0
1, 21274, Note_on_c, 1, 81, 127
1, 21276, Note_on_c, 1, 75, 127
1, 21278, Note_off_c, 1, 71, 0
1, 21278, Note_on_c, 1, 42, 127
1, 21286, Note_off_c, 1, 40, 0
1, 21318, Note_off_c, 1, 75, 0
1, 21320, Note_off_c, 1, 42, 0
1, 21321, Note_off_c, 1, 81, 0
1, 21334, Note_on_c, 1, 43, 127
1, 21335, Note_on_c, 1, 71, 127
1, 21337, Note_on_c, 1, 76, 127
1, 21338, Note_on_c, 1, 83, 127
1, 21381, Note_off_c, 1, 76, 0
1, 21384, Note_off_c, 1, 83, 0
1, 21399, Note_off_c, 1, 71, 0
1, 21403, Note_off_c, 1, 43, 0
1, 21456, Note_on_c, 1, 84, 127
1, 21456, Note_on_c, 1, 81, 127
1, 21459, Note_on_c, 1, 64, 127
1, 21461, Note_on_c, 1, 45, 127
1, 21503, Note_off_c, 1, 81, 0
1, 21503, Note_off_c, 1, 45, 0
1, 21506, Note_off_c, 1, 64, 0
1, 21513, Note_off_c, 1, 84, 0
1, 21567, Note_on_c, 1, 76, 127
1, 21573, Note_on_c, 1, 83, 127
1, 21574, Note_on_c, 1, 71, 127
1, 21577, Note_on_c, 1, 47, 127
1, 21585, Note_on_c, 1, 75, 127
1, 21598, Note_off_c, 1, 76, 0
1, 21599, Note_on_c, 1, 81, 127
1, 21608, Note_off_c, 1, 83, 0
1, 21621, Note_off_c, 1, 71, 0
1, 21631, Note_off_c, 1, 75, 0
1, 21635, Note_on_c, 1, 84, 127
1, 21638, Note_off_c, 1, 47, 0
1, 21639, Note_off_c, 1, 81, 0
1, 21643, Note_off_c, 1, 84, 0
1, 21688, Note_on_c, 1, 79, 127
1, 21696, Note_on_c, 1, 52, 127
1, 21746, Note_on_c, 1, 51, 127
1, 21758, Note_off_c, 1, 52, 0
1, 21794, Note_off_c, 1, 51, 0
1, 21841, Note_off_c, 1, 79, 0
1, 21933, Note_on_c, 1, 73, 127
1, 21938, Note_on_c, 1, 70, 127
1, 21940, Note_on_c, 1, 78, 127
1, 21940, Note_on_c, 1, 49, 127
1, 21997, Note_off_c, 1, 73, 0
1, 21997, Note_off_c, 1, 70, 0
1, 21998, Note_on_c, 1, 76, 127
1, 22001, Note_off_c, 1, 49, 0
1, 22003, Note_off_c, 1, 78, 0
1, 22048, Note_off_c, 1, 76, 0
1, 22054, Note_on_c, 1, 66, 127
1, 22059, Note_on_c, 1, 71, 127
1, 22059, Note_on_c, 1, 50, 127
1, 22065, Note_on_c, 1, 78, 127
1, 22114, Note_off_c, 1, 66, 0
1, 22116, Note_off_c, 1, 78, 0
1, 22120, Note_off_c, 1, 71, 0
1, 22123, Note_off_c, 1, 50, 0
1, 22173, Note_on_c, 1, 71, 127
1, 22175, Note_on_c, 1, 74, 127
1, 22181, Note_on_c, 1, 79, 127
1, 22182, Note_on_c, 1, 47, 127
1, 22239, Note_off_c, 1, 74, 0
1, 22240, Note_off_c, 1, 71, 0
1, 22244, Note_off_c, 1, 47, 0
1, 22251, Note_off_c, 1, 79, 0
1, 22296, Note_on_c, 1, 73, 127
1, 22297, Note_on_c, 1, 70, 127
1, 22300, Note_on_c, 1, 78, 127
1, 22303, Note_on_c, 1, 49, 127
1, 22321, Note_on_c, 1, 76, 127
1, 22344, Note_off_c, 1, 78, 0
1, 22364, Note_off_c, 1, 73, 0
1, 22365, Note_off_c, 1, 70, 0
1, 22368, Note_off_c, 1, 49, 0
1, 22375, Note_off_c, 1, 76, 0
1, 22411, Note_on_c, 1, 74, 127
1, 22420, Note_on_c, 1, 66, 127
1, 22420, Note_on_c, 1, 46, 127
1, 22476, Note_off_c, 1, 66, 0
1, 22479, Note_off_c, 1, 46, 0
1, 22497, Note_off_c, 1, 74, 0
1, 22538, Note_on_c, 1, 47, 127
1, 22541, Note_on_c, 1, 71, 127
1, 22591, Note_off_c, 1, 71, 0
1, 22596, Note_off_c, 1, 47, 0
1, 22652, Note_on_c, 1, 78, 127
1, 22657, Note_on_c, 1, 50, 127
1, 22659, Note_on_c, 1, 71, 127
1, 22661, Note_on_c, 1, 66, 127
1, 22709, Note_on_c, 1, 80, 127
1, 22713, Note_off_c, 1, 71, 0
1, 22714, Note_off_c, 1, 50, 0
1, 22718, Note_off_c, 1, 78, 0
1, 22727, Note_off_c, 1, 66, 0
1, 22751, Note_off_c, 1, 80, 0
1, 22774, Note_on_c, 1, 82, 127
1, 22775, Note_on_c, 1, 66, 127
1, 22777, Note_on_c, 1, 49, 127
1, 22781, Note_on_c, 1, 76, 127
1, 22824, Note_off_c, 1, 49, 0
1, 22827, Note_off_c, 1, 82, 0
1, 22829, Note_off_c, 1, 76, 0
1, 22838, Note_off_c, 1, 66, 0
1, 22895, Note_on_c, 1, 83, 127
1, 22896, Note_on_c, 1, 74, 127
1, 22897, Note_on_c, 1, 66, 127
1, 22898, Note_on_c, 1, 47, 127
1, 22944, Note_off_c, 1, 74, 0
1, 22957, Note_off_c, 1, 83, 0
1, 22959, Note_off_c, 1, 66, 0
1, 22959, Note_off_c, 1, 47, 0
1, 23013, Note_on_c, 1, 67, 127
1, 23015, Note_on_c, 1, 74, 127
1, 23023, Note_on_c, 1, 52, 127
1, 23036, Note_on_c, 1, 73, 127
1, 23063, Note_off_c, 1, 74, 0
1, 23079, Note_off_c, 1, 52, 0
1, 23083, Note_off_c, 1, 67, 0
1, 23086, Note_off_c, 1, 73, 0
1, 23127, Note_on_c, 1, 71, 127
1, 23130, Note_on_c, 1, 66, 127
1, 23145, Note_on_c, 1, 54, 127
1, 23175, Note_on_c, 1, 76, 127
1, 23189, Note_off_c, 1, 54, 0
1, 23190, Note_on_c, 1, 70, 127
1, 23195, Note_off_c, 1, 66, 0
1, 23202, Note_off_c, 1, 71, 0
1, 23226, Note_off_c, 1, 76, 0
1, 23254, Note_on_c, 1, 59, 127
1, 23255, Note_off_c, 1, 70, 0
1, 23258, Note_on_c, 1, 55, 127
1, 23316, Note_off_c, 1, 59, 0
1, 23360, Note_off_c, 1, 55, 0
1, 23371, Note_on_c, 1, 71, 127
1, 23374, Note_on_c, 1, 74, 127
1, 23375, Note_on_c, 1, 67, 127
1, 23376, Note_on_c, 1, 54, 127
1, 23426, Note_on_c, 1, 52, 127
1, 23431, Note_off_c, 1, 54, 0
1, 23435, Note_off_c, 1, 67, 0
1, 23435, Note_on_c, 1, 76, 127
1, 23440, Note_off_c, 1, 74, 0
1, 23448, Note_off_c, 1, 71, 0
1, 23479, Note_off_c, 1, 52, 0
1, 23484, Note_off_c, 1, 76, 0
1, 23486, Note_on_c, 1, 71, 127
1, 23496, Note_on_c, 1, 78, 127
1, 23496, Note_on_c, 1, 50, 127
1, 23498, Note_on_c, 1, 66, 127
1, 23549, Note_off_c, 1, 78, 0
1, 23554, Note_off_c, 1, 66, 0
1, 23556, Note_off_c, 1, 71, 0
1, 23559, Note_off_c, 1, 50, 0
1, 23616, Note_on_c, 1, 79, 127
1, 23616, Note_on_c, 1, 76, 127
1, 23619, Note_on_c, 1, 59, 127
1, 23621, Note_on_c, 1, 71, 127
1, 23624, Note_on_c, 1, 52, 127
1, 23664, Note_off_c, 1, 59, 0
1, 23666, Note_off_c, 1, 76, 0
1, 23669, Note_off_c, 1, 79, 0
1, 23669, Note_off_c, 1, 71, 0
1, 23671, Note_off_c, 1, 52, 0
1, 23744, Note_on_c, 1, 71, 127
1, 23747, Note_on_c, 1, 66, 127
1, 23749, Note_on_c, 1, 73, 127
1, 23751, Note_on_c, 1, 54, 127
1, 23768, Note_on_c, 1, 70, 127
1, 23776, Note_off_c, 1, 71, 0
1, 23799, Note_off_c, 1, 70, 0
1, 23861, Note_on_c, 1, 68, 127
1, 23906, Note_off_c, 1, 68, 0
1, 23985, Note_on_c, 1, 76, 127
1, 23991, Note_off_c, 1, 73, 0
1, 23998, Note_off_c, 1, 54, 0
1, 24003, Note_off_c, 1, 66, 0
1, 24055, Note_off_c, 1, 76, 0
1, 24105, Note_on_c, 1, 66, 127
1, 24107, Note_on_c, 1, 73, 127
1, 24108, Note_on_c, 1, 47, 127
1, 24160, Note_off_c, 1, 66, 0
1, 24160, Note_off_c, 1, 73, 0
1, 24163, Note_off_c, 1, 47, 0
1, 24163, Note_on_c, 1, 46, 127
1, 24215, Note_off_c, 1, 46, 0
1, 24221, Note_on_c, 1, 47, 127
1, 24222, Note_on_c, 1, 66, 127
1, 24224, Note_on_c, 1, 74, 127
1, 24278, Note_off_c, 1, 66, 0
1, 24280, Note_off_c, 1, 47, 0
1, 24316, Note_off_c, 1, 74, 0
1, 24345, Note_on_c, 1, 66, 127
1, 24347, Note_on_c, 1, 49, 127
1, 24350, Note_on_c, 1, 76, 127
1, 24391, Note_off_c, 1, 49, 0
1, 24399, Note_off_c, 1, 76, 0
1, 24401, Note_off_c, 1, 66, 0
1, 24465, Note_on_c, 1, 47, 127
1, 24469, Note_on_c, 1, 66, 127
1, 24471, Note_on_c, 1, 73, 127
1, 24496, Note_on_c, 1, 46, 127
1, 24521, Note_off_c, 1, 46, 0
1, 24557, Note_off_c, 1, 47, 0
1, 24576, Note_on_c, 1, 44, 127
1, 24582, Note_on_c, 1, 76, 127
1, 24621, Note_off_c, 1, 44, 0
1, 24638, Note_off_c, 1, 76, 0
1, 24644, Note_on_c, 1, 42, 127
1, 24690, Note_off_c, 1, 42, 0
1, 24701, Note_on_c, 1, 54, 127
1, 24704, Note_on_c, 1, 74, 127
1, 24713, Note_off_c, 1, 73, 0
1, 24719, Note_off_c, 1, 66, 0
1, 24735, Note_off_c, 1, 74, 0
1, 24784, Note_off_c, 1, 54, 0
1, 24812, Note_on_c, 1, 71, 127
1, 24872, Note_off_c, 1, 71, 0
1, 24872, Note_on_c, 1, 70, 127
1, 24917, Note_off_c, 1, 70, 0
1, 24933, Note_on_c, 1, 74, 127
1, 24941, Note_on_c, 1, 79, 127
1, 24943, Note_on_c, 1, 73, 127
1, 24943, Note_on_c, 1, 70, 127
1, 24944, Note_on_c, 1, 52, 127
1, 24961, Note_off_c, 1, 74, 0
1, 24991, Note_off_c, 1, 70, 0
1, 25015, Note_off_c, 1, 79, 0
1, 25029, Note_off_c, 1, 52, 0
1, 25040, Note_on_c, 1, 71, 127
1, 25050, Note_off_c, 1, 73, 0
1, 25104, Note_off_c, 1, 71, 0
1, 25179, Note_on_c, 1, 74, 127
1, 25179, Note_on_c, 1, 71, 127
1, 25184, Note_on_c, 1, 78, 127
1, 25187, Note_on_c, 1, 62, 127
1, 25268, Note_off_c, 1, 62, 0
1, 25274, Note_off_c, 1, 78, 0
1, 25277, Note_off_c, 1, 71, 0
1, 25279, Note_off_c, 1, 74, 0
1, 25302, Note_on_c, 1, 50, 127
1, 25354, Note_on_c, 1, 49, 127
1, 25355, Note_off_c, 1, 50, 0
1, 25397, Note_off_c, 1, 49, 0
1, 25419, Note_on_c, 1, 50, 127
1, 25477, Note_off_c, 1, 50, 0
1, 25539, Note_on_c, 1, 71, 127
1, 25542, Note_on_c, 1, 64, 127
1, 25545, Note_on_c, 1, 52, 127
1, 25545, Note_on_c, 1, 79, 127
1, 25597, Note_off_c, 1, 71, 0
1, 25597, Note_off_c, 1, 52, 0
1, 25601, Note_off_c, 1, 64, 0
1, 25603, Note_off_c, 1, 79, 0
1, 25658, Note_on_c, 1, 78, 127
1, 25658, Note_on_c, 1, 70, 127
1, 25664, Note_on_c, 1, 50, 127
1, 25665, Note_on_c, 1, 64, 127
1, 25676, Note_on_c, 1, 76, 127
1, 25683, Note_off_c, 1, 78, 0
1, 25686, Note_on_c, 1, 49, 127
1, 25696, Note_off_c, 1, 50, 0
1, 25707, Note_off_c, 1, 70, 0
1, 25715, Note_off_c, 1, 76, 0
1, 25716, Note_off_c, 1, 49, 0
1, 25727, Note_off_c, 1, 64, 0
1, 25771, Note_on_c, 1, 71, 127
1, 25777, Note_on_c, 1, 47, 127
1, 25778, Note_on_c, 1, 74, 127
1, 25783, Note_on_c, 1, 66, 127
1, 25813, Note_on_c, 1, 46, 127
1, 25819, Note_off_c, 1, 71, 0
1, 25828, Note_on_c, 1, 73, 127
1, 25830, Note_off_c, 1, 66, 0
1, 25838, Note_off_c, 1, 47, 0
1, 25839, Note_off_c, 1, 74, 0
1, 25867, Note_off_c, 1, 73, 0
1, 25870, Note_off_c, 1, 46, 0
1, 25895, Note_on_c, 1, 83, 127
1, 25896, Note_on_c, 1, 73, 127
1, 25898, Note_on_c, 1, 53, 127
1, 25900, Note_on_c, 1, 68, 127
1, 25984, Note_off_c, 1, 68, 0
1, 25996, Note_off_c, 1, 53, 0
1, 26000, Note_off_c, 1, 83, 0
1, 26138, Note_on_c, 1, 82, 127
1, 26138, Note_on_c, 1, 66, 127
1, 26145, Note_on_c, 1, 54, 127
1, 26202, Note_off_c, 1, 54, 0
1, 26213, Note_off_c, 1, 66, 0
1, 26232, Note_off_c, 1, 73, 0
1, 26255, Note_off_c, 1, 82, 0
1, 26259, Note_on_c, 1, 83, 127
1, 26259, Note_on_c, 1, 70, 127
1, 26263, Note_on_c, 1, 42, 127
1, 26269, Note_on_c, 1, 76, 127
1, 26315, Note_on_c, 1, 85, 127
1, 26322, Note_off_c, 1, 83, 0
1, 26325, Note_off_c, 1, 42, 0
1, 26325, Note_off_c, 1, 76, 0
1, 26331, Note_off_c, 1, 70, 0
1, 26359, Note_off_c, 1, 85, 0
1, 26379, Note_on_c, 1, 71, 127
1, 26380, Note_on_c, 1, 44, 127
1, 26383, Note_on_c, 1, 74, 127
1, 26384, Note_on_c, 1, 78, 127
1, 26442, Note_off_c, 1, 44, 0
1, 26443, Note_off_c, 1, 78, 0
1, 26444, Note_off_c, 1, 74, 0
1, 26447, Note_off_c, 1, 71, 0
1, 26502, Note_on_c, 1, 46, 127
1, 26505, Note_on_c, 1, 76, 127
1, 26507, Note_on_c, 1, 73, 127
1, 26553, Note_off_c, 1, 46, 0
1, 26567, Note_off_c, 1, 73, 0
1, 26569, Note_off_c, 1, 76, 0
1, 26628, Note_on_c, 1, 71, 127
1, 26628, Note_on_c, 1, 47, 127
1, 26629, Note_on_c, 1, 66, 127
1, 26630, Note_on_c, 1, 76, 127
1, 26657, Note_on_c, 1, 74, 127
1, 26661, Note_off_c, 1, 76, 0
1, 26689, Note_off_c, 1, 71, 0
1, 26690, Note_off_c, 1, 74, 0
1, 26693, Note_off_c, 1, 66, 0
1, 26696, Note_off_c, 1, 47, 0
1, 26744, Note_on_c, 1, 73, 127
1, 26748, Note_on_c, 1, 50, 127
1, 26784, Note_off_c, 1, 73, 0
1, 26814, Note_off_c, 1, 50, 0
1, 26863, Note_on_c, 1, 73, 127
1, 26864, Note_on_c, 1, 67, 127
1, 26867, Note_on_c, 1, 52, 127
1, 26870, Note_on_c, 1, 64, 127
1, 26908, Note_off_c, 1, 67, 0
1, 26912, Note_off_c, 1, 73, 0
1, 26927, Note_off_c, 1, 64, 0
1, 26937, Note_off_c, 1, 52, 0
1, 26981, Note_on_c, 1, 66, 127
1, 26987, Note_on_c, 1, 83, 127
1, 26987, Note_on_c, 1, 54, 127
1, 26989, Note_on_c, 1, 64, 127
1, 27034, Note_off_c, 1, 83, 0
1, 27039, Note_off_c, 1, 66, 0
1, 27041, Note_on_c, 1, 82, 127
1, 27042, Note_off_c, 1, 54, 0
1, 27047, Note_off_c, 1, 64, 0
1, 27087, Note_off_c, 1, 82, 0
1, 27103, Note_on_c, 1, 71, 127
1, 27103, Note_on_c, 1, 62, 127
1, 27106, Note_on_c, 1, 55, 127
1, 27106, Note_on_c, 1, 83, 127
1, 27154, Note_off_c, 1, 71, 0
1, 27160, Note_off_c, 1, 83, 0
1, 27168, Note_off_c, 1, 55, 0
1, 27174, Note_off_c, 1, 62, 0
1, 27222, Note_on_c, 1, 76, 127
1, 27222, Note_on_c, 1, 67, 127
1, 27224, Note_on_c, 1, 85, 127
1, 27225, Note_on_c, 1, 52, 127
1, 27276, Note_off_c, 1, 76, 0
1, 27277, Note_off_c, 1, 52, 0
1, 27284, Note_off_c, 1, 67, 0
1, 27285, Note_off_c, 1, 85, 0
1, 27346, Note_on_c, 1, 58, 127
1, 27347, Note_on_c, 1, 66, 127
1, 27349, Note_on_c, 1, 74, 127
1, 27351, Note_on_c, 1, 78, 127
1, 27372, Note_on_c, 1, 73, 127
1, 27376, Note_on_c, 1, 76, 127
1, 27386, Note_off_c, 1, 78, 0
1, 27390, Note_off_c, 1, 74, 0
1, 27409, Note_off_c, 1, 58, 0
1, 27409, Note_off_c, 1, 73, 0
1, 27411, Note_off_c, 1, 76, 0
1, 27421, Note_off_c, 1, 66, 0
1, 27455, Note_on_c, 1, 71, 127
1, 27471, Note_on_c, 1, 54, 127
1, 27521, Note_on_c, 1, 70, 127
1, 27526, Note_off_c, 1, 71, 0
1, 27530, Note_off_c, 1, 54, 0
1, 27572, Note_off_c, 1, 70, 0
1, 27582, Note_on_c, 1, 71, 127
1, 27587, Note_on_c, 1, 74, 127
1, 27592, Note_on_c, 1, 59, 127
1, 27593, Note_on_c, 1, 66, 127
1, 27645, Note_on_c, 1, 76, 127
1, 27647, Note_off_c, 1, 74, 0
1, 27648, Note_off_c, 1, 71, 0
1, 27651, Note_off_c, 1, 59, 0
1, 27653, Note_off_c, 1, 66, 0
1, 27687, Note_off_c, 1, 76, 0
1, 27704, Note_on_c, 1, 50, 127
1, 27706, Note_on_c, 1, 66, 127
1, 27707, Note_on_c, 1, 78, 127
1, 27707, Note_on_c, 1, 71, 127
1, 27758, Note_off_c, 1, 78, 0
1, 27761, Note_on_c, 1, 80, 127
1, 27764, Note_off_c, 1, 71, 0
1, 27774, Note_off_c, 1, 50, 0
1, 27777, Note_off_c, 1, 66, 0
1, 27795, Note_off_c, 1, 80, 0
1, 27823, Note_on_c, 1, 49, 127
1, 27826, Note_on_c, 1, 82, 127
1, 27826, Note_on_c, 1, 73, 127
1, 27827, Note_on_c, 1, 76, 127
1, 27872, Note_off_c, 1, 82, 0
1, 27882, Note_off_c, 1, 76, 0
1, 27885, Note_off_c, 1, 49, 0
1, 27887, Note_off_c, 1, 73, 0
1, 27941, Note_on_c, 1, 66, 127
1, 27944, Note_on_c, 1, 47, 127
1, 27946, Note_on_c, 1, 83, 127
1, 27947, Note_on_c, 1, 74, 127
1, 27992, Note_off_c, 1, 74, 0
1, 27995, Note_off_c, 1, 83, 0
1, 27998, Note_off_c, 1, 66, 0
1, 28001, Note_off_c, 1, 47, 0
1, 28067, Note_on_c, 1, 52, 127
1, 28068, Note_on_c, 1, 64, 127
1, 28068, Note_on_c, 1, 69, 127
1, 28070, Note_on_c, 1, 74, 127
1, 28073, Note_on_c, 1, 66, 127
1, 28091, Note_on_c, 1, 73, 127
1, 28092, Note_on_c, 1, 67, 127
1, 28103, Note_off_c, 1, 66, 0
1, 28105, Note_off_c, 1, 69, 0
1, 28111, Note_off_c, 1, 74, 0
1, 28125, Note_off_c, 1, 52, 0
1, 28125, Note_off_c, 1, 67, 0
1, 28131, Note_off_c, 1, 64, 0
1, 28137, Note_off_c, 1, 73, 0
1, 28185, Note_on_c, 1, 71, 127
1, 28186, Note_on_c, 1, 54, 127
1, 28189, Note_on_c, 1, 62, 127
1, 28239, Note_off_c, 1, 71, 0
1, 28239, Note_on_c, 1, 70, 127
1, 28248, Note_off_c, 1, 54, 0
1, 28251, Note_on_c, 1, 61, 127
1, 28260, Note_off_c, 1, 62, 0
1, 28287, Note_off_c, 1, 70, 0
1, 28300, Note_off_c, 1, 61, 0
1, 28306, Note_on_c, 1, 55, 127
1, 28312, Note_on_c, 1, 59, 127
1, 28365, Note_off_c, 1, 55, 0
1, 28375, Note_off_c, 1, 59, 0
1, 28423, Note_on_c, 1, 73, 127
1, 28425, Note_on_c, 1, 64, 127
1, 28426, Note_on_c, 1, 67, 127
1, 28426, Note_on_c, 1, 52, 127
1, 28478, Note_off_c, 1, 73, 0
1, 28483, Note_off_c, 1, 67, 0
1, 28483, Note_off_c, 1, 52, 0
1, 28488, Note_off_c, 1, 64, 0
1, 28545, Note_on_c, 1, 54, 127
1, 28546, Note_on_c, 1, 61, 127
1, 28547, Note_on_c, 1, 66, 127
1, 28547, Note_on_c, 1, 64, 127
1, 28599, Note_off_c, 1, 61, 0
1, 28602, Note_off_c, 1, 66, 0
1, 28606, Note_off_c, 1, 54, 0
1, 28608, Note_off_c, 1, 64, 0
1, 28669, Note_on_c, 1, 70, 127
1, 28672, Note_on_c, 1, 66, 127
1, 28672, Note_on_c, 1, 64, 127
1, 28674, Note_on_c, 1, 61, 127
1, 28675, Note_on_c, 1, 42, 127
1, 28722, Note_off_c, 1, 70, 0
1, 28725, Note_off_c, 1, 42, 0
1, 28726, Note_off_c, 1, 64, 0
1, 28726, Note_off_c, 1, 61, 0
1, 28728, Note_off_c, 1, 66, 0
1, 28797, Note_on_c, 1, 66, 127
1, 28797, Note_on_c, 1, 47, 127
1, 28799, Note_on_c, 1, 71, 127
1, 28801, Note_on_c, 1, 62, 127
1, 29047, Note_off_c, 1, 71, 0
1, 29061, Note_off_c, 1, 47, 0
1, 29063, Note_off_c, 1, 62, 0
1, 29065, Note_off_c, 1, 66, 0
1, 29146, Note_on_c, 1, 62, 127
1, 29146, Note_on_c, 1, 59, 127
1, 29153, Note_on_c, 1, 66, 127
1, 29158, Note_on_c, 1, 74, 127
1, 29194, Note_off_c, 1, 66, 0
1, 29196, Note_off_c, 1, 62, 0
1, 29202, Note_on_c, 1, 61, 127
1, 29206, Note_on_c, 1, 64, 127
1, 29209, Note_off_c, 1, 59, 0
1, 29251, Note_off_c, 1, 61, 0
1, 29252, Note_off_c, 1, 74, 0
1, 29265, Note_off_c, 1, 64, 0
1, 29275, Note_on_c, 1, 57, 127
1, 29341, Note_off_c, 1, 57, 0
1, 29387, Note_on_c, 1, 67, 127
1, 29391, Note_on_c, 1, 55, 127
1, 29392, Note_on_c, 1, 62, 127
1, 29402, Note_on_c, 1, 74, 127
1, 29443, Note_off_c, 1, 67, 0
1, 29443, Note_off_c, 1, 62, 0
1, 29447, Note_off_c, 1, 55, 0
1, 29490, Note_off_c, 1, 74, 0
1, 29506, Note_on_c, 1, 69, 127
1, 29512, Note_on_c, 1, 62, 127
1, 29515, Note_on_c, 1, 54, 127
1, 29518, Note_on_c, 1, 74, 127
1, 29574, Note_off_c, 1, 54, 0
1, 29586, Note_off_c, 1, 69, 0
1, 29598, Note_off_c, 1, 62, 0
1, 29611, Note_off_c, 1, 74, 0
1, 29629, Note_on_c, 1, 72, 127
1, 29632, Note_on_c, 1, 54, 127
1, 29635, Note_on_c, 1, 74, 127
1, 29636, Note_on_c, 1, 69, 127
1, 29675, Note_on_c, 1, 71, 127
1, 29678, Note_off_c, 1, 72, 0
1, 29687, Note_on_c, 1, 67, 127
1, 29695, Note_off_c, 1, 69, 0
1, 29696, Note_off_c, 1, 54, 0
1, 29719, Note_off_c, 1, 71, 0
1, 29722, Note_off_c, 1, 74, 0
1, 29724, Note_off_c, 1, 67, 0
1, 29738, Note_on_c, 1, 72, 127
1, 29748, Note_on_c, 1, 69, 127
1, 29752, Note_on_c, 1, 54, 127
1, 29753, Note_on_c, 1, 74, 127
1, 29793, Note_off_c, 1, 72, 0
1, 29806, Note_off_c, 1, 69, 0
1, 29810, Note_off_c, 1, 54, 0
1, 29840, Note_off_c, 1, 74, 0
1, 29860, Note_on_c, 1, 81, 127
1, 29866, Note_on_c, 1, 62, 127
1, 29869, Note_on_c, 1, 74, 127
1, 29872, Note_on_c, 1, 50, 127
1, 29873, Note_on_c, 1, 66, 127
1, 29874, Note_on_c, 1, 54, 127
1, 29916, Note_on_c, 1, 64, 127
1, 29917, Note_off_c, 1, 81, 0
1, 29921, Note_off_c, 1, 62, 0
1, 29925, Note_off_c, 1, 54, 0
1, 29930, Note_off_c, 1, 66, 0
1, 29934, Note_off_c, 1, 50, 0
1, 29960, Note_off_c, 1, 74, 0
1, 29968, Note_off_c, 1, 64, 0
1, 29974, Note_on_c, 1, 66, 127
1, 29978, Note_on_c, 1, 69, 127
1, 29980, Note_on_c, 1, 74, 127
1, 29985, Note_on_c, 1, 62, 127
1, 29985, Note_on_c, 1, 57, 127
1, 30027, Note_on_c, 1, 67, 127
1, 30029, Note_on_c, 1, 71, 127
1, 30034, Note_off_c, 1, 69, 0
1, 30037, Note_off_c, 1, 66, 0
1, 30040, Note_off_c, 1, 62, 0
1, 30060, Note_off_c, 1, 57, 0
1, 30074, Note_off_c, 1, 71, 0
1, 30077, Note_off_c, 1, 74, 0
1, 30080, Note_off_c, 1, 67, 0
1, 30092, Note_on_c, 1, 72, 127
1, 30096, Note_on_c, 1, 69, 127
1, 30100, Note_on_c, 1, 54, 127
1, 30102, Note_on_c, 1, 74, 127
1, 30106, Note_on_c, 1, 66, 127
1, 30107, Note_on_c, 1, 50, 127
1, 30151, Note_off_c, 1, 54, 0
1, 30151, Note_off_c, 1, 66, 0
1, 30154, Note_off_c, 1, 50, 0
1, 30156, Note_off_c, 1, 72, 0
1, 30161, Note_off_c, 1, 69, 0
1, 30192, Note_off_c, 1, 74, 0
1, 30215, Note_on_c, 1, 71, 127
1, 30218, Note_on_c, 1, 74, 127
1, 30218, Note_on_c, 1, 50, 127
1, 30221, Note_on_c, 1, 55, 127
1, 30225, Note_on_c, 1, 62, 127
1, 30236, Note_on_c, 1, 69, 127
1, 30244, Note_on_c, 1, 72, 127
1, 30250, Note_off_c, 1, 71, 0
1, 30262, Note_off_c, 1, 62, 0
1, 30271, Note_off_c, 1, 50, 0
1, 30274, Note_off_c, 1, 55, 0
1, 30279, Note_off_c, 1, 69, 0
1, 30279, Note_off_c, 1, 72, 0
1, 30333, Note_on_c, 1, 67, 127
1, 30465, Note_on_c, 1, 43, 127
1, 30474, Note_off_c, 1, 67, 0
1, 30478, Note_off_c, 1, 74, 0
1, 30555, Note_off_c, 1, 43, 0
1, 30581, Note_on_c, 1, 67, 127
1, 30581, Note_on_c, 1, 55, 127
1, 30584, Note_on_c, 1, 76, 127
1, 30590, Note_on_c, 1, 71, 127
1, 30631, Note_off_c, 1, 55, 0
1, 30631, Note_on_c, 1, 66, 127
1, 30639, Note_off_c, 1, 67, 0
1, 30639, Note_off_c, 1, 71, 0
1, 30639, Note_on_c, 1, 69, 127
1, 30673, Note_off_c, 1, 76, 0
1, 30680, Note_off_c, 1, 66, 0
1, 30693, Note_off_c, 1, 69, 0
1, 30696, Note_on_c, 1, 67, 127
1, 30699, Note_on_c, 1, 76, 127
1, 30701, Note_on_c, 1, 71, 127
1, 30702, Note_on_c, 1, 55, 127
1, 30747, Note_off_c, 1, 67, 0
1, 30755, Note_off_c, 1, 71, 0
1, 30762, Note_off_c, 1, 55, 0
1, 30802, Note_off_c, 1, 76, 0
1, 30819, Note_on_c, 1, 69, 127
1, 30827, Note_on_c, 1, 73, 127
1, 30828, Note_on_c, 1, 76, 127
1, 30829, Note_on_c, 1, 55, 127
1, 30860, Note_off_c, 1, 69, 0
1, 30868, Note_off_c, 1, 73, 0
1, 30882, Note_off_c, 1, 55, 0
1, 30917, Note_off_c, 1, 76, 0
1, 30940, Note_on_c, 1, 76, 127
1, 30940, Note_on_c, 1, 71, 127
1, 30943, Note_on_c, 1, 56, 127
1, 30950, Note_on_c, 1, 74, 127
1, 31008, Note_off_c, 1, 56, 0
1, 31020, Note_off_c, 1, 71, 0
1, 31029, Note_off_c, 1, 74, 0
1, 31044, Note_off_c, 1, 76, 0
1, 31058, Note_on_c, 1, 74, 127
1, 31066, Note_on_c, 1, 76, 127
1, 31066, Note_on_c, 1, 56, 127
1, 31067, Note_on_c, 1, 78, 127
1, 31100, Note_off_c, 1, 74, 0
1, 31114, Note_off_c, 1, 78, 0
1, 31114, Note_on_c, 1, 73, 127
1, 31125, Note_off_c, 1, 56, 0
1, 31147, Note_off_c, 1, 73, 0
1, 31157, Note_off_c, 1, 76, 0
1, 31173, Note_on_c, 1, 71, 127
1, 31181, Note_on_c, 1, 74, 127
1, 31188, Note_on_c, 1, 76, 127
1, 31188, Note_on_c, 1, 56, 127
1, 31236, Note_off_c, 1, 71, 0
1, 31243, Note_off_c, 1, 56, 0
1, 31250, Note_off_c, 1, 74, 0
1, 31286, Note_off_c, 1, 76, 0
1, 31295, Note_on_c, 1, 64, 127
1, 31298, Note_on_c, 1, 52, 127
1, 31299, Note_on_c, 1, 56, 127
1, 31303, Note_on_c, 1, 76, 127
1, 31303, Note_on_c, 1, 83, 127
1, 31307, Note_on_c, 1, 68, 127
1, 31347, Note_on_c, 1, 66, 127
1, 31359, Note_off_c, 1, 56, 0
1, 31360, Note_off_c, 1, 83, 0
1, 31368, Note_off_c, 1, 64, 0
1, 31374, Note_off_c, 1, 68, 0
1, 31377, Note_off_c, 1, 52, 0
1, 31395, Note_off_c, 1, 76, 0
1, 31413, Note_off_c, 1, 66, 0
1, 31419, Note_on_c, 1, 59, 127
1, 31423, Note_on_c, 1, 71, 127
1, 31469, Note_on_c, 1, 69, 127
1, 31474, Note_off_c, 1, 59, 0
1, 31482, Note_on_c, 1, 73, 127
1, 31494, Note_off_c, 1, 71, 0
1, 31523, Note_off_c, 1, 69, 0
1, 31525, Note_off_c, 1, 73, 0
1, 31529, Note_on_c, 1, 56, 127
1, 31530, Note_on_c, 1, 71, 127
1, 31535, Note_on_c, 1, 52, 127
1, 31538, Note_on_c, 1, 76, 127
1, 31541, Note_on_c, 1, 74, 127
1, 31550, Note_on_c, 1, 68, 127
1, 31589, Note_on_c, 1, 73, 127
1, 31591, Note_off_c, 1, 56, 0
1, 31599, Note_off_c, 1, 68, 0
1, 31603, Note_off_c, 1, 52, 0
1, 31603, Note_off_c, 1, 74, 0
1, 31609, Note_off_c, 1, 71, 0
1, 31621, Note_off_c, 1, 73, 0
1, 31633, Note_off_c, 1, 76, 0
1, 31658, Note_on_c, 1, 57, 127
1, 31659, Note_on_c, 1, 64, 127
1, 31660, Note_on_c, 1, 73, 127
1, 31665, Note_on_c, 1, 76, 127
1, 31669, Note_on_c, 1, 45, 127
1, 31680, Note_on_c, 1, 71, 127
1, 31686, Note_on_c, 1, 74, 127
1, 31688, Note_off_c, 1, 73, 0
1, 31705, Note_off_c, 1, 64, 0
1, 31717, Note_off_c, 1, 71, 0
1, 31717, Note_on_c, 1, 77, 127
1, 31722, Note_off_c, 1, 74, 0
1, 31727, Note_off_c, 1, 77, 0
1, 31728, Note_off_c, 1, 57, 0
1, 31737, Note_off_c, 1, 45, 0
1, 31773, Note_on_c, 1, 69, 127
1, 31775, Note_on_c, 1, 52, 127
1, 31838, Note_off_c, 1, 52, 0
1, 31927, Note_off_c, 1, 76, 0
1, 31927, Note_off_c, 1, 69, 0
1, 32016, Note_on_c, 1, 45, 127
1, 32022, Note_on_c, 1, 81, 127
1, 32025, Note_on_c, 1, 73, 127
1, 32026, Note_on_c, 1, 64, 127
1, 32028, Note_on_c, 1, 69, 127
1, 32037, Note_on_c, 1, 76, 127
1, 32067, Note_on_c, 1, 80, 127
1, 32073, Note_on_c, 1, 71, 127
1, 32078, Note_off_c, 1, 64, 0
1, 32078, Note_on_c, 1, 62, 127
1, 32079, Note_off_c, 1, 73, 0
1, 32083, Note_off_c, 1, 81, 0
1, 32088, Note_off_c, 1, 45, 0
1, 32088, Note_off_c, 1, 69, 0
1, 32099, Note_off_c, 1, 76, 0
1, 32119, Note_off_c, 1, 71, 0
1, 32126, Note_off_c, 1, 62, 0
1, 32129, Note_off_c, 1, 80, 0
1, 32135, Note_on_c, 1, 83, 127
1, 32136, Note_on_c, 1, 45, 127
1, 32137, Note_on_c, 1, 74, 127
1, 32141, Note_on_c, 1, 66, 127
1, 32151, Note_on_c, 1, 78, 127
1, 32192, Note_off_c, 1, 66, 0
1, 32195, Note_off_c, 1, 83, 0
1, 32203, Note_off_c, 1, 74, 0
1, 32203, Note_off_c, 1, 78, 0
1, 32225, Note_off_c, 1, 45, 0
1, 32257, Note_on_c, 1, 45, 127
1, 32258, Note_on_c, 1, 81, 127
1, 32260, Note_on_c, 1, 69, 127
1, 32260, Note_on_c, 1, 73, 127
1, 32262, Note_on_c, 1, 64, 127
1, 32267, Note_on_c, 1, 76, 127
1, 32308, Note_off_c, 1, 76, 0
1, 32310, Note_off_c, 1, 73, 0
1, 32315, Note_off_c, 1, 81, 0
1, 32315, Note_off_c, 1, 64, 0
1, 32316, Note_off_c, 1, 69, 0
1, 32345, Note_off_c, 1, 45, 0
1, 32365, Note_on_c, 1, 73, 127
1, 32370, Note_on_c, 1, 76, 127
1, 32371, Note_on_c, 1, 81, 127
1, 32380, Note_on_c, 1, 45, 127
1, 32383, Note_on_c, 1, 71, 127
1, 32383, Note_on_c, 1, 62, 127
1, 32391, Note_off_c, 1, 73, 0
1, 32392, Note_on_c, 1, 80, 127
1, 32396, Note_on_c, 1, 74, 127
1, 32399, Note_off_c, 1, 76, 0
1, 32412, Note_off_c, 1, 81, 0
1, 32424, Note_off_c, 1, 74, 0
1, 32426, Note_off_c, 1, 71, 0
1, 32444, Note_off_c, 1, 62, 0
1, 32444, Note_off_c, 1, 80, 0
1, 32470, Note_off_c, 1, 45, 0
1, 32493, Note_on_c, 1, 76, 127
1, 32493, Note_on_c, 1, 73, 127
1, 32496, Note_on_c, 1, 81, 127
1, 32496, Note_on_c, 1, 45, 127
1, 32501, Note_on_c, 1, 64, 127
1, 32509, Note_on_c, 1, 69, 127
1, 32581, Note_off_c, 1, 45, 0
1, 32645, Note_off_c, 1, 76, 0
1, 32651, Note_off_c, 1, 69, 0
1, 32652, Note_off_c, 1, 81, 0
1, 32653, Note_off_c, 1, 64, 0
1, 32657, Note_off_c, 1, 73, 0
1, 32734, Note_on_c, 1, 45, 127
1, 32737, Note_on_c, 1, 73, 127
1, 32743, Note_on_c, 1, 69, 127
1, 32743, Note_on_c, 1, 76, 127
1, 32744, Note_on_c, 1, 79, 127
1, 32785, Note_on_c, 1, 78, 127
1, 32789, Note_off_c, 1, 76, 0
1, 32795, Note_off_c, 1, 79, 0
1, 32799, Note_off_c, 1, 73, 0
1, 32800, Note_on_c, 1, 74, 127
1, 32804, Note_off_c, 1, 69, 0
1, 32821, Note_off_c, 1, 45, 0
1, 32841, Note_off_c, 1, 78, 0
1, 32842, Note_off_c, 1, 74, 0
1, 32851, Note_on_c, 1, 45, 127
1, 32855, Note_on_c, 1, 78, 127
1, 32856, Note_on_c, 1, 81, 127
1, 32859, Note_on_c, 1, 69, 127
1, 32860, Note_on_c, 1, 73, 127
1, 32903, Note_off_c, 1, 78, 0
1, 32910, Note_off_c, 1, 69, 0
1, 32917, Note_off_c, 1, 81, 0
1, 32921, Note_off_c, 1, 73, 0
1, 32939, Note_off_c, 1, 45, 0
1, 32973, Note_on_c, 1, 45, 127
1, 32975, Note_on_c, 1, 73, 127
1, 32978, Note_on_c, 1, 76, 127
1, 32981, Note_on_c, 1, 79, 127
1, 32982, Note_on_c, 1, 69, 127
1, 33025, Note_off_c, 1, 76, 0
1, 33027, Note_off_c, 1, 73, 0
1, 33031, Note_off_c, 1, 69, 0
1, 33038, Note_off_c, 1, 79, 0
1, 33062, Note_off_c, 1, 45, 0
1, 33092, Note_on_c, 1, 45, 127
1, 33096, Note_on_c, 1, 69, 127
1, 33098, Note_on_c, 1, 76, 127
1, 33100, Note_on_c, 1, 79, 127
1, 33101, Note_on_c, 1, 62, 127
1, 33119, Note_on_c, 1, 74, 127
1, 33126, Note_on_c, 1, 78, 127
1, 33131, Note_off_c, 1, 79, 0
1, 33133, Note_off_c, 1, 76, 0
1, 33144, Note_off_c, 1, 69, 0
1, 33149, Note_off_c, 1, 62, 0
1, 33153, Note_off_c, 1, 78, 0
1, 33159, Note_off_c, 1, 74, 0
1, 33189, Note_off_c, 1, 45, 0
1, 33210, Note_on_c, 1, 73, 127
1, 33224, Note_on_c, 1, 64, 127
1, 33364, Note_off_c, 1, 73, 0
1, 33373, Note_off_c, 1, 64, 0
1, 33450, Note_on_c, 1, 45, 127
1, 33458, Note_on_c, 1, 77, 127
1, 33460, Note_on_c, 1, 69, 127
1, 33461, Note_on_c, 1, 74, 127
1, 33503, Note_on_c, 1, 76, 127
1, 33505, Note_off_c, 1, 74, 0
1, 33509, Note_on_c, 1, 73, 127
1, 33514, Note_off_c, 1, 69, 0
1, 33516, Note_on_c, 1, 67, 127
1, 33521, Note_off_c, 1, 77, 0
1, 33534, Note_off_c, 1, 45, 0
1, 33562, Note_off_c, 1, 76, 0
1, 33564, Note_off_c, 1, 67, 0
1, 33565, Note_off_c, 1, 73, 0
1, 33570, Note_on_c, 1, 79, 127
1, 33571, Note_on_c, 1, 76, 127
1, 33576, Note_on_c, 1, 45, 127
1, 33578, Note_on_c, 1, 70, 127
1, 33629, Note_off_c, 1, 76, 0
1, 33634, Note_off_c, 1, 79, 0
1, 33647, Note_off_c, 1, 70, 0
1, 33662, Note_off_c, 1, 45, 0
1, 33689, Note_on_c, 1, 77, 127
1, 33695, Note_on_c, 1, 74, 127
1, 33697, Note_on_c, 1, 45, 127
1, 33702, Note_on_c, 1, 69, 127
1, 33749, Note_off_c, 1, 74, 0
1, 33752, Note_off_c, 1, 69, 0
1, 33753, Note_off_c, 1, 77, 0
1, 33770, Note_off_c, 1, 45, 0
1, 33819, Note_on_c, 1, 73, 127
1, 33820, Note_on_c, 1, 76, 127
1, 33823, Note_on_c, 1, 67, 127
1, 33823, Note_on_c, 1, 45, 127
1, 33884, Note_off_c, 1, 73, 0
1, 33890, Note_off_c, 1, 67, 0
1, 33905, Note_off_c, 1, 76, 0
1, 33944, Note_on_c, 1, 77, 127
1, 34069, Note_on_c, 1, 74, 127
1, 34069, Note_on_c, 1, 69, 127
1, 34128, Note_off_c, 1, 74, 0
1, 34135, Note_off_c, 1, 69, 0
1, 34165, Note_off_c, 1, 77, 0
1, 34315, Note_on_c, 1, 65, 127
1, 34375, Note_off_c, 1, 65, 0
1, 34414, Note_on_c, 1, 75, 127
1, 34550, Note_on_c, 1, 70, 127
1, 34612, Note_off_c, 1, 70, 0
1, 34643, Note_off_c, 1, 75, 0
1, 34793, Note_on_c, 1, 64, 127
1, 34857, Note_off_c, 1, 64, 0
1, 35624, Note_on_c, 1, 68, 127
1, 35803, Note_off_c, 1, 68, 0
1, 35985, Note_on_c, 1, 71, 127
1, 35991, Note_on_c, 1, 62, 127
1, 35996, Note_on_c, 1, 80, 127
1, 36028, Note_off_c, 1, 80, 0
1, 36031, Note_off_c, 1, 62, 0
1, 36033, Note_off_c, 1, 71, 0
1, 36077, Note_off_c, 1, 45, 0
1, 36114, Note_on_c, 1, 73, 127
1, 36114, Note_on_c, 1, 64, 127
1, 36115, Note_on_c, 1, 57, 127
1, 36119, Note_on_c, 1, 81, 127
1, 36160, Note_on_c, 1, 56, 127
1, 36178, Note_off_c, 1, 57, 0
1, 36219, Note_off_c, 1, 56, 0
1, 36263, Note_off_c, 1, 73, 0
1, 36265, Note_off_c, 1, 64, 0
1, 36286, Note_off_c, 1, 81, 0
1, 36347, Note_on_c, 1, 45, 127
1, 36352, Note_on_c, 1, 73, 127
1, 36353, Note_on_c, 1, 79, 127
1, 36354, Note_on_c, 1, 76, 127
1, 36357, Note_on_c, 1, 69, 127
1, 36357, Note_on_c, 1, 64, 127
1, 36405, Note_on_c, 1, 78, 127
1, 36406, Note_off_c, 1, 76, 0
1, 36407, Note_off_c, 1, 79, 0
1, 36410, Note_off_c, 1, 69, 0
1, 36411, Note_off_c, 1, 64, 0
1, 36424, Note_off_c, 1, 45, 0
1, 36432, Note_off_c, 1, 73, 0
1, 36451, Note_off_c, 1, 78, 0
1, 36465, Note_on_c, 1, 47, 127
1, 36465, Note_on_c, 1, 79, 127
1, 36465, Note_on_c, 1, 74, 127
1, 36471, Note_on_c, 1, 62, 127
1, 36473, Note_on_c, 1, 50, 127
1, 36519, Note_off_c, 1, 50, 0
1, 36521, Note_off_c, 1, 79, 0
1, 36535, Note_off_c, 1, 47, 0
1, 36535, Note_off_c, 1, 74, 0
1, 36539, Note_off_c, 1, 62, 0
1, 36578, Note_on_c, 1, 76, 127
1, 36582, Note_on_c, 1, 69, 127
1, 36585, Note_on_c, 1, 49, 127
1, 36591, Note_on_c, 1, 45, 127
1, 36630, Note_off_c, 1, 45, 0
1, 36645, Note_off_c, 1, 49, 0
1, 36654, Note_off_c, 1, 76, 0
1, 36659, Note_off_c, 1, 69, 0
1, 36703, Note_on_c, 1, 74, 127
1, 36704, Note_on_c, 1, 69, 127
1, 36705, Note_on_c, 1, 50, 127
1, 36706, Note_on_c, 1, 78, 127
1, 36758, Note_off_c, 1, 78, 0
1, 36761, Note_on_c, 1, 79, 127
1, 36764, Note_off_c, 1, 74, 0
1, 36779, Note_off_c, 1, 50, 0
1, 36796, Note_off_c, 1, 69, 0
1, 36820, Note_on_c, 1, 81, 127
1, 36822, Note_off_c, 1, 79, 0
1, 36826, Note_on_c, 1, 54, 127
1, 36877, Note_on_c, 1, 83, 127
1, 36879, Note_off_c, 1, 81, 0
1, 36888, Note_off_c, 1, 54, 0
1, 36930, Note_off_c, 1, 83, 0
1, 36937, Note_on_c, 1, 76, 127
1, 36940, Note_on_c, 1, 69, 127
1, 36940, Note_on_c, 1, 85, 127
1, 36941, Note_on_c, 1, 79, 127
1, 36942, Note_on_c, 1, 52, 127
1, 36946, Note_on_c, 1, 45, 127
1, 36989, Note_off_c, 1, 45, 0
1, 36997, Note_off_c, 1, 76, 0
1, 36999, Note_off_c, 1, 52, 0
1, 37003, Note_off_c, 1, 85, 0
1, 37006, Note_off_c, 1, 79, 0
1, 37027, Note_off_c, 1, 69, 0
1, 37056, Note_on_c, 1, 78, 127
1, 37057, Note_on_c, 1, 69, 127
1, 37059, Note_on_c, 1, 50, 127
1, 37067, Note_on_c, 1, 86, 127
1, 37120, Note_off_c, 1, 78, 0
1, 37121, Note_off_c, 1, 86, 0
1, 37132, Note_off_c, 1, 50, 0
1, 37135, Note_off_c, 1, 69, 0
1, 37177, Note_on_c, 1, 69, 127
1, 37181, Note_on_c, 1, 76, 127
1, 37183, Note_on_c, 1, 79, 127
1, 37186, Note_on_c, 1, 85, 127
1, 37186, Note_on_c, 1, 45, 127
1, 37186, Note_on_c, 1, 57, 127
1, 37225, Note_off_c, 1, 45, 0
1, 37231, Note_off_c, 1, 85, 0
1, 37238, Note_off_c, 1, 76, 0
1, 37241, Note_off_c, 1, 57, 0
1, 37242, Note_off_c, 1, 79, 0
1, 37242, Note_on_c, 1, 83, 127
1, 37246, Note_off_c, 1, 69, 0
1, 37281, Note_off_c, 1, 83, 0
1, 37294, Note_on_c, 1, 67, 127
1, 37297, Note_on_c, 1, 45, 127
1, 37299, Note_on_c, 1, 76, 127
1, 37301, Note_on_c, 1, 81, 127
1, 37305, Note_on_c, 1, 69, 127
1, 37315, Note_on_c, 1, 73, 127
1, 37340, Note_off_c, 1, 67, 0
1, 37345, Note_off_c, 1, 81, 0
1, 37351, Note_off_c, 1, 76, 0
1, 37356, Note_on_c, 1, 79, 127
1, 37359, Note_off_c, 1, 73, 0
1, 37360, Note_off_c, 1, 45, 0
1, 37364, Note_off_c, 1, 69, 0
1, 37392, Note_off_c, 1, 79, 0
1, 37413, Note_on_c, 1, 74, 127
1, 37422, Note_on_c, 1, 50, 127
1, 37422, Note_on_c, 1, 66, 127
1, 37425, Note_on_c, 1, 78, 127
1, 37428, Note_on_c, 1, 69, 127
1, 37435, Note_on_c, 1, 62, 127
1, 37436, Note_on_c, 1, 47, 127
1, 37463, Note_off_c, 1, 50, 0
1, 37518, Note_off_c, 1, 66, 0
1, 37522, Note_off_c, 1, 69, 0
1, 37543, Note_on_c, 1, 68, 127
1, 37546, Note_off_c, 1, 78, 0
1, 37548, Note_on_c, 1, 71, 127
1, 37562, Note_off_c, 1, 74, 0
1, 37589, Note_on_c, 1, 76, 127
1, 37594, Note_off_c, 1, 62, 0
1, 37598, Note_on_c, 1, 73, 127
1, 37604, Note_on_c, 1, 80, 127
1, 37606, Note_on_c, 1, 64, 127
1, 37609, Note_off_c, 1, 68, 0
1, 37613, Note_off_c, 1, 71, 0
1, 37625, Note_off_c, 1, 76, 0
1, 37634, Note_off_c, 1, 64, 0
1, 37636, Note_off_c, 1, 80, 0
1, 37643, Note_off_c, 1, 73, 0
1, 37668, Note_on_c, 1, 81, 127
1, 37689, Note_off_c, 1, 47, 0
1, 37730, Note_off_c, 1, 81, 0
1, 37793, Note_on_c, 1, 49, 127
1, 37851, Note_off_c, 1, 49, 0
1, 37898, Note_on_c, 1, 52, 127
1, 37954, Note_off_c, 1, 52, 0
1, 38025, Note_on_c, 1, 40, 127
1, 38077, Note_off_c, 1, 40, 0
1, 38138, Note_on_c, 1, 74, 127
1, 38142, Note_on_c, 1, 76, 127
1, 38147, Note_on_c, 1, 69, 127
1, 38148, Note_on_c, 1, 64, 127
1, 38149, Note_on_c, 1, 45, 127
1, 38151, Note_on_c, 1, 81, 127
1, 38194, Note_on_c, 1, 73, 127
1, 38213, Note_off_c, 1, 74, 0
1, 38256, Note_on_c, 1, 71, 127
1, 38259, Note_off_c, 1, 73, 0
1, 38303, Note_off_c, 1, 71, 0
1, 38378, Note_on_c, 1, 79, 127
1, 38383, Note_off_c, 1, 76, 0
1, 38395, Note_off_c, 1, 81, 0
1, 38396, Note_off_c, 1, 69, 0
1, 38400, Note_off_c, 1, 64, 0
1, 38415, Note_off_c, 1, 45, 0
1, 38454, Note_off_c, 1, 79, 0
1, 38500, Note_on_c, 1, 76, 127
1, 38504, Note_on_c, 1, 50, 127
1, 38507, Note_on_c, 1, 69, 127
1, 38553, Note_off_c, 1, 69, 0
1, 38555, Note_on_c, 1, 49, 127
1, 38561, Note_off_c, 1, 50, 0
1, 38562, Note_off_c, 1, 76, 0
1, 38614, Note_off_c, 1, 49, 0
1, 38619, Note_on_c, 1, 78, 127
1, 38620, Note_on_c, 1, 69, 127
1, 38620, Note_on_c, 1, 50, 127
1, 38673, Note_off_c, 1, 69, 0
1, 38679, Note_off_c, 1, 50, 0
1, 38721, Note_off_c, 1, 78, 0
1, 38743, Note_on_c, 1, 79, 127
1, 38743, Note_on_c, 1, 69, 127
1, 38746, Note_on_c, 1, 52, 127
1, 38793, Note_off_c, 1, 79, 0
1, 38793, Note_off_c, 1, 69, 0
1, 38796, Note_off_c, 1, 52, 0
1, 38864, Note_on_c, 1, 50, 127
1, 38865, Note_on_c, 1, 69, 127
1, 38868, Note_on_c, 1, 78, 127
1, 38869, Note_on_c, 1, 76, 127
1, 38886, Note_on_c, 1, 49, 127
1, 38901, Note_off_c, 1, 50, 0
1, 38924, Note_off_c, 1, 49, 0
1, 38928, Note_off_c, 1, 78, 0
1, 38966, Note_on_c, 1, 47, 127
1, 38988, Note_on_c, 1, 79, 127
1, 39015, Note_off_c, 1, 47, 0
1, 39034, Note_on_c, 1, 45, 127
1, 39041, Note_off_c, 1, 79, 0
1, 39086, Note_off_c, 1, 45, 0
1, 39106, Note_on_c, 1, 57, 127
1, 39120, Note_off_c, 1, 69, 0
1, 39156, Note_off_c, 1, 76, 0
1, 39180, Note_off_c, 1, 57, 0
1, 39215, Note_on_c, 1, 74, 127
1, 39271, Note_on_c, 1, 73, 127
1, 39282, Note_off_c, 1, 74, 0
1, 39322, Note_off_c, 1, 73, 0
1, 39333, Note_on_c, 1, 83, 127
1, 39337, Note_on_c, 1, 78, 127
1, 39341, Note_on_c, 1, 71, 127
1, 39346, Note_on_c, 1, 55, 127
1, 39350, Note_on_c, 1, 76, 127
1, 39361, Note_off_c, 1, 78, 0
1, 39382, Note_off_c, 1, 76, 0
1, 39395, Note_off_c, 1, 71, 0
1, 39424, Note_off_c, 1, 83, 0
1, 39427, Note_off_c, 1, 55, 0
1, 39440, Note_on_c, 1, 74, 127
1, 39459, Note_on_c, 1, 64, 127
1, 39499, Note_on_c, 1, 73, 127
1, 39502, Note_off_c, 1, 74, 0
1, 39518, Note_off_c, 1, 64, 0
1, 39544, Note_off_c, 1, 73, 0
1, 39574, Note_on_c, 1, 74, 127
1, 39576, Note_on_c, 1, 81, 127
1, 39580, Note_on_c, 1, 66, 127
1, 39663, Note_off_c, 1, 81, 0
1, 39684, Note_off_c, 1, 74, 0
1, 39690, Note_off_c, 1, 66, 0
1, 39702, Note_on_c, 1, 54, 127
1, 39744, Note_off_c, 1, 54, 0
1, 39754, Note_on_c, 1, 52, 127
1, 39799, Note_off_c, 1, 52, 0
1, 39816, Note_on_c, 1, 54, 127
1, 39870, Note_off_c, 1, 54, 0
1, 39937, Note_on_c, 1, 62, 127
1, 39945, Note_on_c, 1, 74, 127
1, 39945, Note_on_c, 1, 55, 127
1, 39947, Note_on_c, 1, 83, 127
1, 39999, Note_off_c, 1, 83, 0
1, 40001, Note_off_c, 1, 55, 0
1, 40003, Note_off_c, 1, 62, 0
1, 40004, Note_off_c, 1, 74, 0
1, 40056, Note_on_c, 1, 81, 127
1, 40059, Note_on_c, 1, 64, 127
1, 40060, Note_on_c, 1, 73, 127
1, 40068, Note_on_c, 1, 52, 127
1, 40079, Note_on_c, 1, 79, 127
1, 40086, Note_off_c, 1, 81, 0
1, 40115, Note_off_c, 1, 79, 0
1, 40118, Note_off_c, 1, 64, 0
1, 40123, Note_off_c, 1, 73, 0
1, 40137, Note_off_c, 1, 52, 0
1, 40167, Note_on_c, 1, 78, 127
1, 40174, Note_on_c, 1, 69, 127
1, 40175, Note_on_c, 1, 74, 127
1, 40182, Note_on_c, 1, 50, 127
1, 40202, Note_off_c, 1, 78, 0
1, 40219, Note_on_c, 1, 76, 127
1, 40224, Note_off_c, 1, 69, 0
1, 40226, Note_off_c, 1, 74, 0
1, 40228, Note_on_c, 1, 49, 127
1, 40231, Note_off_c, 1, 50, 0
1, 40267, Note_off_c, 1, 49, 0
1, 40269, Note_off_c, 1, 76, 0
1, 40290, Note_on_c, 1, 86, 127
1, 40296, Note_on_c, 1, 76, 127
1, 40297, Note_on_c, 1, 56, 127
1, 40299, Note_on_c, 1, 71, 127
1, 40382, Note_off_c, 1, 86, 0
1, 40395, Note_off_c, 1, 56, 0
1, 40408, Note_off_c, 1, 71, 0
1, 40535, Note_on_c, 1, 69, 127
1, 40538, Note_on_c, 1, 57, 127
1, 40539, Note_on_c, 1, 85, 127
1, 40591, Note_off_c, 1, 57, 0
1, 40599, Note_off_c, 1, 69, 0
1, 40610, Note_off_c, 1, 76, 0
1, 40633, Note_off_c, 1, 85, 0
1, 40654, Note_on_c, 1, 45, 127
1, 40654, Note_on_c, 1, 73, 127
1, 40654, Note_on_c, 1, 64, 127
1, 40663, Note_on_c, 1, 69, 127
1, 40665, Note_on_c, 1, 79, 127
1, 40671, Note_on_c, 1, 76, 127
1, 40715, Note_off_c, 1, 64, 0
1, 40716, Note_off_c, 1, 79, 0
1, 40717, Note_off_c, 1, 76, 0
1, 40718, Note_on_c, 1, 78, 127
1, 40719, Note_off_c, 1, 45, 0
1, 40719, Note_off_c, 1, 69, 0
1, 40726, Note_off_c, 1, 73, 0
1, 40771, Note_on_c, 1, 71, 127
1, 40775, Note_off_c, 1, 78, 0
1, 40778, Note_on_c, 1, 47, 127
1, 40779, Note_on_c, 1, 50, 127
1, 40779, Note_on_c, 1, 74, 127
1, 40785, Note_on_c, 1, 62, 127
1, 40827, Note_off_c, 1, 50, 0
1, 40838, Note_off_c, 1, 71, 0
1, 40842, Note_off_c, 1, 47, 0
1, 40845, Note_off_c, 1, 62, 0
1, 40847, Note_off_c, 1, 74, 0
1, 40896, Note_on_c, 1, 69, 127
1, 40897, Note_on_c, 1, 76, 127
1, 40899, Note_on_c, 1, 49, 127
1, 40903, Note_on_c, 1, 45, 127
1, 40905, Note_on_c, 1, 81, 127
1, 40948, Note_off_c, 1, 45, 0
1, 40950, Note_off_c, 1, 49, 0
1, 40956, Note_off_c, 1, 69, 0
1, 40960, Note_off_c, 1, 81, 0
1, 40969, Note_off_c, 1, 76, 0
1, 41018, Note_on_c, 1, 74, 127
1, 41023, Note_on_c, 1, 69, 127
1, 41023, Note_on_c, 1, 50, 127
1, 41035, Note_on_c, 1, 79, 127
1, 41078, Note_off_c, 1, 74, 0
1, 41088, Note_off_c, 1, 50, 0
1, 41089, Note_on_c, 1, 78, 127
1, 41113, Note_off_c, 1, 79, 0
1, 41128, Note_off_c, 1, 69, 0
1, 41148, Note_on_c, 1, 76, 127
1, 41148, Note_on_c, 1, 54, 127
1, 41158, Note_off_c, 1, 78, 0
1, 41204, Note_off_c, 1, 54, 0
1, 41209, Note_off_c, 1, 76, 0
1, 41261, Note_on_c, 1, 74, 127
1, 41263, Note_on_c, 1, 67, 127
1, 41263, Note_on_c, 1, 71, 127
1, 41264, Note_on_c, 1, 55, 127
1, 41268, Note_on_c, 1, 78, 127
1, 41320, Note_off_c, 1, 74, 0
1, 41325, Note_on_c, 1, 76, 127
1, 41331, Note_off_c, 1, 55, 0
1, 41350, Note_off_c, 1, 78, 0
1, 41355, Note_off_c, 1, 67, 0
1, 41364, Note_off_c, 1, 71, 0
1, 41379, Note_on_c, 1, 69, 127
1, 41382, Note_on_c, 1, 66, 127
1, 41383, Note_off_c, 1, 76, 0
1, 41388, Note_on_c, 1, 57, 127
1, 41389, Note_on_c, 1, 45, 127
1, 41423, Note_off_c, 1, 66, 0
1, 41431, Note_on_c, 1, 64, 127
1, 41434, Note_off_c, 1, 69, 0
1, 41435, Note_off_c, 1, 45, 0
1, 41438, Note_on_c, 1, 73, 127
1, 41453, Note_off_c, 1, 57, 0
1, 41478, Note_off_c, 1, 64, 0
1, 41478, Note_off_c, 1, 73, 0
1, 41497, Note_on_c, 1, 62, 127
1, 41506, Note_on_c, 1, 50, 127
1, 41506, Note_on_c, 1, 59, 127
1, 41554, Note_off_c, 1, 50, 0
1, 41564, Note_off_c, 1, 62, 0
1, 41567, Note_off_c, 1, 59, 0
1, 41615, Note_on_c, 1, 79, 127
1, 41623, Note_on_c, 1, 55, 127
1, 41624, Note_on_c, 1, 67, 127
1, 41625, Note_on_c, 1, 71, 127
1, 41628, Note_on_c, 1, 76, 127
1, 41630, Note_on_c, 1, 62, 127
1, 41630, Note_on_c, 1, 50, 127
1, 41667, Note_off_c, 1, 79, 0
1, 41669, Note_off_c, 1, 71, 0
1, 41675, Note_off_c, 1, 50, 0
1, 41680, Note_off_c, 1, 55, 0
1, 41680, Note_off_c, 1, 67, 0
1, 41680, Note_off_c, 1, 76, 0
1, 41690, Note_off_c, 1, 62, 0
1, 41744, Note_on_c, 1, 69, 127
1, 41744, Note_on_c, 1, 76, 127
1, 41745, Note_on_c, 1, 61, 127
1, 41751, Note_on_c, 1, 79, 127
1, 41751, Note_on_c, 1, 64, 127
1, 41755, Note_on_c, 1, 45, 127
1, 41776, Note_on_c, 1, 67, 127
1, 41789, Note_off_c, 1, 45, 0
1, 41808, Note_off_c, 1, 61, 0
1, 41813, Note_off_c, 1, 67, 0
1, 41816, Note_off_c, 1, 64, 0
1, 41834, Note_off_c, 1, 79, 0
1, 41836, Note_off_c, 1, 76, 0
1, 41866, Note_on_c, 1, 81, 127
1, 41867, Note_on_c, 1, 74, 127
1, 41869, Note_on_c, 1, 66, 127
1, 41871, Note_on_c, 1, 57, 127
1, 41898, Note_off_c, 1, 81, 0
1, 41911, Note_on_c, 1, 73, 127
1, 41920, Note_off_c, 1, 74, 0
1, 41923, Note_off_c, 1, 66, 0
1, 41929, Note_off_c, 1, 57, 0
1, 41959, Note_off_c, 1, 73, 0
1, 41983, Note_on_c, 1, 50, 127
1, 41989, Note_on_c, 1, 78, 127
1, 41992, Note_on_c, 1, 62, 127
1, 42024, Note_off_c, 1, 50, 0
1, 42039, Note_off_c, 1, 78, 0
1, 42050, Note_off_c, 1, 69, 0
1, 42056, Note_off_c, 1, 62, 0
1, 42108, Note_on_c, 1, 54, 127
1, 42151, Note_on_c, 1, 71, 127
1, 42175, Note_off_c, 1, 54, 0
1, 42209, Note_off_c, 1, 71, 0
1, 42227, Note_on_c, 1, 52, 127
1, 42289, Note_off_c, 1, 52, 0
1, 42458, Note_on_c, 1, 59, 127
1, 42520, Note_off_c, 1, 59, 0
1, 42556, Note_on_c, 1, 83, 127
1, 42614, Note_off_c, 1, 83, 0
1, 42683, Note_on_c, 1, 62, 127
1, 42683, Note_on_c, 1, 74, 127
1, 42690, Note_on_c, 1, 81, 127
1, 42694, Note_on_c, 1, 54, 127
1, 42752, Note_off_c, 1, 62, 0
1, 42757, Note_off_c, 1, 74, 0
1, 42761, Note_off_c, 1, 54, 0
1, 42773, Note_off_c, 1, 81, 0
1, 42806, Note_on_c, 1, 64, 127
1, 42806, Note_on_c, 1, 71, 127
1, 42810, Note_on_c, 1, 67, 127
1, 42814, Note_on_c, 1, 55, 127
1, 42818, Note_on_c, 1, 74, 127
1, 42820, Note_on_c, 1, 83, 127
1, 42821, Note_on_c, 1, 50, 127
1, 42826, Note_on_c, 1, 62, 127
1, 42855, Note_off_c, 1, 83, 0
1, 42862, Note_off_c, 1, 71, 0
1, 42865, Note_off_c, 1, 64, 0
1, 42865, Note_off_c, 1, 67, 0
1, 42865, Note_off_c, 1, 74, 0
1, 42868, Note_off_c, 1, 50, 0
1, 42871, Note_off_c, 1, 55, 0
1, 42876, Note_on_c, 1, 81, 127
1, 42886, Note_off_c, 1, 62, 0
1, 42911, Note_off_c, 1, 81, 0
1, 42929, Note_on_c, 1, 69, 127
1, 42932, Note_on_c, 1, 57, 127
1, 42933, Note_on_c, 1, 66, 127
1, 42940, Note_on_c, 1, 79, 127
1, 42944, Note_on_c, 1, 74, 127
1, 42944, Note_on_c, 1, 45, 127
1, 42985, Note_off_c, 1, 79, 0
1, 42985, Note_off_c, 1, 45, 0
1, 42990, Note_off_c, 1, 74, 0
1, 42992, Note_off_c, 1, 57, 0
1, 42994, Note_on_c, 1, 78, 127
1, 42996, Note_off_c, 1, 66, 0
1, 43003, Note_off_c, 1, 69, 0
1, 43027, Note_off_c, 1, 78, 0
1, 43056, Note_on_c, 1, 76, 127
1, 43058, Note_on_c, 1, 69, 127
1, 43059, Note_on_c, 1, 45, 127
1, 43061, Note_on_c, 1, 64, 127
1, 43065, Note_on_c, 1, 67, 127
1, 43072, Note_on_c, 1, 73, 127
1, 43093, Note_off_c, 1, 76, 0
1, 43112, Note_on_c, 1, 78, 127
1, 43115, Note_off_c, 1, 64, 0
1, 43116, Note_off_c, 1, 45, 0
1, 43116, Note_off_c, 1, 67, 0
1, 43125, Note_off_c, 1, 69, 0
1, 43127, Note_off_c, 1, 73, 0
1, 43146, Note_off_c, 1, 78, 0
1, 43189, Note_on_c, 1, 69, 127
1, 43191, Note_on_c, 1, 66, 127
1, 43194, Note_on_c, 1, 50, 127
1, 43196, Note_on_c, 1, 74, 127
1, 43200, Note_on_c, 1, 38, 127
1, 43454, Note_off_c, 1, 50, 0
1, 43459, Note_off_c, 1, 69, 0
1, 43467, Note_off_c, 1, 74, 0
1, 43472, Note_off_c, 1, 66, 0
1, 43474, Note_off_c, 1, 38, 0
1, 43555, Note_on_c, 1, 69, 127
1, 43562, Note_on_c, 1, 76, 127
1, 43567, Note_on_c, 1, 73, 127
1, 43608, Note_off_c, 1, 69, 0
1, 43608, Note_off_c, 1, 76, 0
1, 43609, Note_on_c, 1, 71, 127
1, 43610, Note_on_c, 1, 74, 127
1, 43613, Note_off_c, 1, 73, 0
1, 43655, Note_off_c, 1, 71, 0
1, 43668, Note_off_c, 1, 74, 0
1, 43675, Note_on_c, 1, 76, 127
1, 43675, Note_on_c, 1, 73, 127
1, 43679, Note_on_c, 1, 69, 127
1, 43729, Note_off_c, 1, 76, 0
1, 43729, Note_off_c, 1, 69, 0
1, 43733, Note_off_c, 1, 73, 0
1, 43797, Note_on_c, 1, 78, 127
1, 43797, Note_on_c, 1, 69, 127
1, 43800, Note_on_c, 1, 74, 127
1, 43833, Note_off_c, 1, 74, 0
1, 43838, Note_off_c, 1, 78, 0
1, 43848, Note_off_c, 1, 69, 0
1, 43913, Note_on_c, 1, 78, 127
1, 43922, Note_on_c, 1, 74, 127
1, 43923, Note_on_c, 1, 69, 127
1, 43964, Note_on_c, 1, 79, 127
1, 43973, Note_off_c, 1, 78, 0
1, 43978, Note_on_c, 1, 76, 127
1, 43985, Note_off_c, 1, 74, 0
1, 43990, Note_off_c, 1, 69, 0
1, 44013, Note_off_c, 1, 79, 0
1, 44026, Note_off_c, 1, 76, 0
1, 44030, Note_on_c, 1, 78, 127
1, 44035, Note_on_c, 1, 74, 127
1, 44037, Note_on_c, 1, 69, 127
1, 44080, Note_on_c, 1, 73, 127
1, 44084, Note_off_c, 1, 78, 0
1, 44086, Note_off_c, 1, 74, 0
1, 44086, Note_on_c, 1, 76, 127
1, 44100, Note_off_c, 1, 69, 0
1, 44119, Note_off_c, 1, 73, 0
1, 44129, Note_off_c, 1, 76, 0
1, 44149, Note_on_c, 1, 74, 127
1, 44155, Note_on_c, 1, 78, 127
1, 44155, Note_on_c, 1, 69, 127
1, 44204, Note_on_c, 1, 76, 127
1, 44208, Note_off_c, 1, 69, 0
1, 44212, Note_on_c, 1, 79, 127
1, 44215, Note_off_c, 1, 74, 0
1, 44217, Note_off_c, 1, 78, 0
1, 44249, Note_off_c, 1, 76, 0
1, 44263, Note_off_c, 1, 79, 0
1, 44269, Note_on_c, 1, 50, 127
1, 44269, Note_on_c, 1, 81, 127
1, 44320, Note_off_c, 1, 81, 0
1, 44320, Note_on_c, 1, 52, 127
1, 44323, Note_off_c, 1, 50, 0
1, 44367, Note_off_c, 1, 52, 0
1, 44380, Note_on_c, 1, 54, 127
1, 44385, Note_on_c, 1, 69, 127
1, 44389, Note_on_c, 1, 74, 127
1, 44390, Note_on_c, 1, 50, 127
1, 44425, Note_off_c, 1, 50, 0
1, 44439, Note_off_c, 1, 54, 0
1, 44441, Note_off_c, 1, 74, 0
1, 44443, Note_off_c, 1, 69, 0
1, 44506, Note_on_c, 1, 69, 127
1, 44506, Note_on_c, 1, 57, 127
1, 44508, Note_on_c, 1, 76, 127
1, 44509, Note_on_c, 1, 73, 127
1, 44518, Note_on_c, 1, 45, 127
1, 44545, Note_off_c, 1, 57, 0
1, 44552, Note_off_c, 1, 76, 0
1, 44556, Note_off_c, 1, 45, 0
1, 44565, Note_off_c, 1, 69, 0
1, 44572, Note_off_c, 1, 73, 0
1, 44632, Note_on_c, 1, 66, 127
1, 44633, Note_on_c, 1, 76, 127
1, 44634, Note_on_c, 1, 69, 127
1, 44634, Note_on_c, 1, 50, 127
1, 44634, Note_on_c, 1, 62, 127
1, 44636, Note_on_c, 1, 73, 127
1, 44636, Note_on_c, 1, 79, 127
1, 44643, Note_on_c, 1, 81, 127
1, 44653, Note_off_c, 1, 81, 0
1, 44661, Note_on_c, 1, 78, 127
1, 44665, Note_off_c, 1, 66, 0
1, 44665, Note_on_c, 1, 74, 127
1, 44666, Note_off_c, 1, 50, 0
1, 44666, Note_off_c, 1, 79, 0
1, 44684, Note_off_c, 1, 76, 0
1, 44690, Note_off_c, 1, 73, 0
1, 44695, Note_off_c, 1, 69, 0
1, 44730, Note_off_c, 1, 62, 0
1, 44745, Note_off_c, 1, 74, 0
1, 44753, Note_off_c, 1, 78, 0
1, 44753, Note_on_c, 1, 57, 127
1, 44762, Note_on_c, 1, 45, 127
1, 44808, Note_off_c, 1, 57, 0
1, 44808, Note_off_c, 1, 45, 0
1, 44993, Note_on_c, 1, 75, 127
1, 45035, Note_off_c, 1, 75, 0
1, 45105, Note_on_c, 1, 75, 127
1, 45110, Note_on_c, 1, 69, 127
1, 45120, Note_on_c, 1, 78, 127
1, 45161, Note_off_c, 1, 75, 0
1, 45164, Note_off_c, 1, 78, 0
1, 45173, Note_off_c, 1, 69, 0
1, 45225, Note_on_c, 1, 67, 127
1, 45233, Note_on_c, 1, 76, 127
1, 45235, Note_on_c, 1, 79, 127
1, 45268, Note_off_c, 1, 76, 0
1, 45278, Note_off_c, 1, 79, 0
1, 45291, Note_off_c, 1, 67, 0
1, 45349, Note_on_c, 1, 66, 127
1, 45356, Note_on_c, 1, 79, 127
1, 45357, Note_on_c, 1, 76, 127
1, 45408, Note_on_c, 1, 78, 127
1, 45411, Note_on_c, 1, 81, 127
1, 45417, Note_off_c, 1, 76, 0
1, 45421, Note_off_c, 1, 79, 0
1, 45424, Note_off_c, 1, 66, 0
1, 45450, Note_off_c, 1, 78, 0
1, 45452, Note_off_c, 1, 81, 0
1, 45466, Note_on_c, 1, 71, 127
1, 45467, Note_on_c, 1, 76, 127
1, 45475, Note_on_c, 1, 79, 127
1, 45514, Note_on_c, 1, 75, 127
1, 45524, Note_off_c, 1, 79, 0
1, 45524, Note_on_c, 1, 78, 127
1, 45527, Note_off_c, 1, 71, 0
1, 45528, Note_off_c, 1, 76, 0
1, 45557, Note_off_c, 1, 75, 0
1, 45568, Note_off_c, 1, 78, 0
1, 45582, Note_on_c, 1, 76, 127
1, 45589, Note_on_c, 1, 71, 127
1, 45591, Note_on_c, 1, 79, 127
1, 45636, Note_on_c, 1, 78, 127
1, 45641, Note_off_c, 1, 76, 0
1, 45645, Note_on_c, 1, 81, 127
1, 45647, Note_off_c, 1, 79, 0
1, 45652, Note_off_c, 1, 71, 0
1, 45683, Note_off_c, 1, 78, 0
1, 45691, Note_off_c, 1, 81, 0
1, 45700, Note_on_c, 1, 79, 127
1, 45704, Note_on_c, 1, 83, 127
1, 45708, Note_on_c, 1, 71, 127
1, 45711, Note_on_c, 1, 52, 127
1, 45742, Note_off_c, 1, 79, 0
1, 45753, Note_off_c, 1, 83, 0
1, 45755, Note_on_c, 1, 54, 127
1, 45766, Note_off_c, 1, 71, 0
1, 45767, Note_off_c, 1, 52, 0
1, 45810, Note_off_c, 1, 54, 0
1, 45821, Note_on_c, 1, 55, 127
1, 45824, Note_on_c, 1, 71, 127
1, 45825, Note_on_c, 1, 76, 127
1, 45873, Note_off_c, 1, 76, 0
1, 45882, Note_off_c, 1, 71, 0
1, 45883, Note_off_c, 1, 55, 0
1, 45945, Note_on_c, 1, 78, 127
1, 45945, Note_on_c, 1, 59, 127
1, 45947, Note_on_c, 1, 71, 127
1, 45949, Note_on_c, 1, 75, 127
1, 45992, Note_off_c, 1, 75, 0
1, 45997, Note_off_c, 1, 78, 0
1, 45998, Note_off_c, 1, 71, 0
1, 46004, Note_off_c, 1, 59, 0
1, 46060, Note_on_c, 1, 78, 127
1, 46064, Note_on_c, 1, 81, 127
1, 46068, Note_on_c, 1, 71, 127
1, 46071, Note_on_c, 1, 64, 127
1, 46073, Note_on_c, 1, 75, 127
1, 46082, Note_on_c, 1, 76, 127
1, 46093, Note_off_c, 1, 81, 0
1, 46093, Note_on_c, 1, 79, 127
1, 46114, Note_off_c, 1, 76, 0
1, 46117, Note_off_c, 1, 71, 0
1, 46120, Note_on_c, 1, 83, 127
1, 46124, Note_off_c, 1, 75, 0
1, 46129, Note_off_c, 1, 64, 0
1, 46129, Note_off_c, 1, 83, 0
1, 46144, Note_off_c, 1, 78, 0
1, 46174, Note_off_c, 1, 79, 0
1, 46188, Note_on_c, 1, 59, 127
1, 46240, Note_off_c, 1, 59, 0
1, 46312, Note_on_c, 1, 47, 127
1, 46394, Note_off_c, 1, 47, 0
1, 46424, Note_on_c, 1, 52, 127
1, 46425, Note_on_c, 1, 76, 127
1, 46428, Note_on_c, 1, 71, 127
1, 46430, Note_on_c, 1, 79, 127
1, 46472, Note_off_c, 1, 76, 0
1, 46474, Note_on_c, 1, 78, 127
1, 46475, Note_off_c, 1, 52, 0
1, 46480, Note_on_c, 1, 51, 127
1, 46483, Note_off_c, 1, 79, 0
1, 46484, Note_off_c, 1, 71, 0
1, 46533, Note_off_c, 1, 78, 0
1, 46533, Note_off_c, 1, 51, 0
1, 46539, Note_on_c, 1, 52, 127
1, 46544, Note_on_c, 1, 79, 127
1, 46545, Note_on_c, 1, 71, 127
1, 46546, Note_on_c, 1, 76, 127
1, 46585, Note_off_c, 1, 52, 0
1, 46599, Note_off_c, 1, 79, 0
1, 46602, Note_off_c, 1, 76, 0
1, 46607, Note_off_c, 1, 71, 0
1, 46660, Note_on_c, 1, 72, 127
1, 46661, Note_on_c, 1, 78, 127
1, 46662, Note_on_c, 1, 81, 127
1, 46668, Note_on_c, 1, 45, 127
1, 46716, Note_off_c, 1, 78, 0
1, 46716, Note_off_c, 1, 81, 0
1, 46720, Note_off_c, 1, 72, 0
1, 46735, Note_off_c, 1, 45, 0
1, 46777, Note_on_c, 1, 79, 127
1, 46780, Note_on_c, 1, 66, 127
1, 46781, Note_on_c, 1, 75, 127
1, 46788, Note_on_c, 1, 47, 127
1, 46796, Note_on_c, 1, 78, 127
1, 46834, Note_off_c, 1, 75, 0
1, 46840, Note_off_c, 1, 47, 0
1, 46842, Note_off_c, 1, 78, 0
1, 46860, Note_off_c, 1, 66, 0
1, 46885, Note_off_c, 1, 79, 0
1, 46894, Note_on_c, 1, 76, 127
1, 46898, Note_on_c, 1, 71, 127
1, 46901, Note_on_c, 1, 69, 127
1, 46904, Note_on_c, 1, 42, 127
1, 46945, Note_off_c, 1, 71, 0
1, 46959, Note_off_c, 1, 76, 0
1, 46960, Note_off_c, 1, 42, 0
1, 46968, Note_off_c, 1, 69, 0
1, 47020, Note_on_c, 1, 67, 127
1, 47027, Note_on_c, 1, 43, 127
1, 47099, Note_off_c, 1, 67, 0
1, 47107, Note_off_c, 1, 43, 0
1, 47130, Note_on_c, 1, 79, 127
1, 47138, Note_on_c, 1, 71, 127
1, 47145, Note_on_c, 1, 76, 127
1, 47147, Note_on_c, 1, 40, 127
1, 47185, Note_off_c, 1, 79, 0
1, 47185, Note_off_c, 1, 76, 0
1, 47194, Note_on_c, 1, 81, 127
1, 47196, Note_on_c, 1, 75, 127
1, 47198, Note_off_c, 1, 71, 0
1, 47198, Note_on_c, 1, 42, 127
1, 47206, Note_off_c, 1, 40, 0
1, 47238, Note_off_c, 1, 75, 0
1, 47240, Note_off_c, 1, 42, 0
1, 47241, Note_off_c, 1, 81, 0
1, 47254, Note_on_c, 1, 43, 127
1, 47255, Note_on_c, 1, 71, 127
1, 47257, Note_on_c, 1, 76, 127
1, 47258, Note_on_c, 1, 83, 127
1, 47301, Note_off_c, 1, 76, 0
1, 47304, Note_off_c, 1, 83, 0
1, 47319, Note_off_c, 1, 71, 0
1, 47323, Note_off_c, 1, 43, 0
1, 47376, Note_on_c, 1, 84, 127
1, 47376, Note_on_c, 1, 81, 127
1, 47379, Note_on_c, 1, 64, 127
1, 47381, Note_on_c, 1, 45, 127
1, 47423, Note_off_c, 1, 81, 0
1, 47423, Note_off_c, 1, 45, 0
1, 47426, Note_off_c, 1, 64, 0
1, 47433, Note_off_c, 1, 84, 0
1, 47487, Note_on_c, 1, 76, 127
1, 47493, Note_on_c, 1, 83, 127
1, 47494, Note_on_c, 1, 71, 127
1, 47497, Note_on_c, 1, 47, 127
1, 47505, Note_on_c, 1, 75, 127
1, 47518, Note_off_c, 1, 76, 0
1, 47519, Note_on_c, 1, 81, 127
1, 47528, Note_off_c, 1, 83, 0
1, 47541, Note_off_c, 1, 71, 0
1, 47551, Note_off_c, 1, 75, 0
1, 47555, Note_on_c, 1, 84, 127
1, 47558, Note_off_c, 1, 47, 0
1, 47559, Note_off_c, 1, 81, 0
1, 47563, Note_off_c, 1, 84, 0
1, 47608, Note_on_c, 1, 79, 127
1, 47616, Note_on_c, 1, 52, 127
1, 47666, Note_on_c, 1, 51, 127
1, 47678, Note_off_c, 1, 52, 0
1, 47714, Note_off_c, 1, 51, 0
1, 47761, Note_off_c, 1, 79, 0
1, 47853, Note_on_c, 1, 73, 127
1, 47858, Note_on_c, 1, 70, 127
1, 47860, Note_on_c, 1, 78, 127
1, 47860, Note_on_c, 1, 49, 127
1, 47917, Note_off_c, 1, 73, 0
1, 47917, Note_off_c, 1, 70, 0
1, 47918, Note_on_c, 1, 76, 127
1, 47921, Note_off_c, 1, 49, 0
1, 47923, Note_off_c, 1, 78, 0
1, 47968, Note_off_c, 1, 76, 0
1, 47974, Note_on_c, 1, 66, 127
1, 47979, Note_on_c, 1, 71, 127
1, 47979, Note_on_c, 1, 50, 127
1, 47985, Note_on_c, 1, 78, 127
1, 48034, Note_off_c, 1, 66, 0
1, 48036, Note_off_c, 1, 78, 0
1, 48040, Note_off_c, 1, 71, 0
1, 48043, Note_off_c, 1, 50, 0
1, 48093, Note_on_c, 1, 71, 127
1, 48095, Note_on_c, 1, 74, 127
1, 48101, Note_on_c, 1, 79, 127
1, 48102, Note_on_c, 1, 47, 127
1, 48159, Note_off_c, 1, 74, 0
1, 48160, Note_off_c, 1, 71, 0
1, 48164, Note_off_c, 1, 47, 0
1, 48171, Note_off_c, 1, 79, 0
1, 48216, Note_on_c, 1, 73, 127
1, 48217, Note_on_c, 1, 70, 127
1, 48220, Note_on_c, 1, 78, 127
1, 48223, Note_on_c, 1, 49, 127
1, 48241, Note_on_c, 1, 76, 127
1, 48264, Note_off_c, 1, 78, 0
1, 48284, Note_off_c, 1, 73, 0
1, 48285, Note_off_c, 1, 70, 0
1, 48288, Note_off_c, 1, 49, 0
1, 48295, Note_off_c, 1, 76, 0
1, 48331, Note_on_c, 1, 74, 127
1, 48340, Note_on_c, 1, 66, 127
1, 48340, Note_on_c, 1, 46, 127
1, 48396, Note_off_c, 1, 66, 0
1, 48399, Note_off_c, 1, 46, 0
1, 48417, Note_off_c, 1, 74, 0
1, 48458, Note_on_c, 1, 47, 127
1, 48461, Note_on_c, 1, 71, 127
1, 48511, Note_off_c, 1, 71, 0
1, 48516, Note_off_c, 1, 47, 0
1, 48572, Note_on_c, 1, 78, 127
1, 48577, Note_on_c, 1, 50, 127
1, 48579, Note_on_c, 1, 71, 127
1, 48581, Note_on_c, 1, 66, 127
1, 48629, Note_on_c, 1, 80, 127
1, 48633, Note_off_c, 1, 71, 0
1, 48634, Note_off_c, 1, 50, 0
1, 48638, Note_off_c, 1, 78, 0
1, 48647, Note_off_c, 1, 66, 0
1, 48671, Note_off_c, 1, 80, 0
1, 48694, Note_on_c, 1, 82, 127
1, 48695, Note_on_c, 1, 66, 127
1, 48697, Note_on_c, 1, 49, 127
1, 48701, Note_on_c, 1, 76, 127
1, 48744, Note_off_c, 1, 49, 0
1, 48747, Note_off_c, 1, 82, 0
1, 48749, Note_off_c, 1, 76, 0
1, 48758, Note_off_c, 1, 66, 0
1, 48815, Note_on_c, 1, 83, 127
1, 48816, Note_on_c, 1, 74, 127
1, 48817, Note_on_c, 1, 66, 127
1, 48818, Note_on_c, 1, 47, 127
1, 48864, Note_off_c, 1, 74, 0
1, 48877, Note_off_c, 1, 83, 0
1, 48879, Note_off_c, 1, 66, 0
1, 48879, Note_off_c, 1, 47, 0
1, 48933, Note_on_c, 1, 67, 127
1, 48935, Note_on_c, 1, 74, 127
1, 48943, Note_on_c, 1, 52, 127
1, 48956, Note_on_c, 1, 73, 127
1, 48983, Note_off_c, 1, 74, 0
1, 48999, Note_off_c, 1, 52, 0
1, 49003, Note_off_c, 1, 67, 0
1, 49006, Note_off_c, 1, 73, 0
1, 49047, Note_on_c, 1, 71, 127
1, 49050, Note_on_c, 1, 66, 127
1, 49065, Note_on_c, 1, 54, 127
1, 49095, Note_on_c, 1, 76, 127
1, 49109, Note_off_c, 1, 54, 0
1, 49110, Note_on_c, 1, 70, 127
1, 49115, Note_off_c, 1, 66, 0
1, 49122, Note_off_c, 1, 71, 0
1, 49146, Note_off_c, 1, 76, 0
1, 49174, Note_on_c, 1, 59, 127
1, 49175, Note_off_c, 1, 70, 0
1, 49178, Note_on_c, 1, 55, 127
1, 49236, Note_off_c, 1, 59, 0
1, 49280, Note_off_c, 1, 55, 0
1, 49291, Note_on_c, 1, 71, 127
1, 49294, Note_on_c, 1, 74, 127
1, 49295, Note_on_c, 1, 67, 127
1, 49296, Note_on_c, 1, 54, 127
1, 49346, Note_on_c, 1, 52, 127
1, 49351, Note_off_c, 1, 54, 0
1, 49355, Note_off_c, 1, 67, 0
1, 49355, Note_on_c, 1, 76, 127
1, 49360, Note_off_c, 1, 74, 0
1, 49368, Note_off_c, 1, 71, 0
1, 49399, Note_off_c, 1, 52, 0
1, 49404, Note_off_c, 1, 76, 0
1, 49406, Note_on_c, 1, 71, 127
1, 49416, Note_on_c, 1, 78, 127
1, 49416, Note_on_c, 1, 50, 127
1, 49418, Note_on_c, 1, 66, 127
1, 49469, Note_off_c, 1, 78, 0
1, 49474, Note_off_c, 1, 66, 0
1, 49476, Note_off_c, 1, 71, 0
1, 49479, Note_off_c, 1, 50, 0
1, 49536, Note_on_c, 1, 79, 127
1, 49536, Note_on_c, 1, 76, 127
1, 49539, Note_on_c, 1, 59, 127
1, 49541, Note_on_c, 1, 71, 127
1, 49544, Note_on_c, 1, 52, 127
1, 49584, Note_off_c, 1, 59, 0
1, 49586, Note_off_c, 1, 76, 0
1, 49589, Note_off_c, 1, 79, 0
1, 49589, Note_off_c, 1, 71, 0
1, 49591, Note_off_c, 1, 52, 0
1, 49664, Note_on_c, 1, 71, 127
1, 49667, Note_on_c, 1, 66, 127
1, 49669, Note_on_c, 1, 73, 127
1, 49671, Note_on_c, 1, 54, 127
1, 49688, Note_on_c, 1, 70, 127
1, 49696, Note_off_c, 1, 71, 0
1, 49719, Note_off_c, 1, 70, 0
1, 49781, Note_on_c, 1, 68, 127
1, 49826, Note_off_c, 1, 68, 0
1, 49905, Note_on_c, 1, 76, 127
1, 49911, Note_off_c, 1, 73, 0
1, 49918, Note_off_c, 1, 54, 0
1, 49923, Note_off_c, 1, 66, 0
1, 49975, Note_off_c, 1, 76, 0
1, 50025, Note_on_c, 1, 66, 127
1, 50027, Note_on_c, 1, 73, 127
1, 50028, Note_on_c, 1, 47, 127
1, 50080, Note_off_c, 1, 66, 0
1, 50080, Note_off_c, 1, 73, 0
1, 50083, Note_off_c, 1, 47, 0
1, 50083, Note_on_c, 1, 46, 127
1, 50135, Note_off_c, 1, 46, 0
1, 50141, Note_on_c, 1, 47, 127
1, 50142, Note_on_c, 1, 66, 127
1, 50144, Note_on_c, 1, 74, 127
1, 50198, Note_off_c, 1, 66, 0
1, 50200, Note_off_c, 1, 47, 0
1, 50236, Note_off_c, 1, 74, 0
1, 50265, Note_on_c, 1, 66, 127
1, 50267, Note_on_c, 1, 49, 127
1, 50270, Note_on_c, 1, 76, 127
1, 50311, Note_off_c, 1, 49, 0
1, 50319, Note_off_c, 1, 76, 0
1, 50321, Note_off_c, 1, 66, 0
1, 50385, Note_on_c, 1, 47, 127
1, 50389, Note_on_c, 1, 66, 127
1, 50391, Note_on_c, 1, 73, 127
1, 50416, Note_on_c, 1, 46, 127
1, 50441, Note_off_c, 1, 46, 0
1, 50477, Note_off_c, 1, 47, 0
1, 50496, Note_on_c, 1, 44, 127
1, 50502, Note_on_c, 1, 76, 127
1, 50541, Note_off_c, 1, 44, 0
1, 50558, Note_off_c, 1, 76, 0
1, 50564, Note_on_c, 1, 42, 127
1, 50610, Note_off_c, 1, 42, 0
1, 50621, Note_on_c, 1, 54, 127
1, 50624, Note_on_c, 1, 74, 127
1, 50633, Note_off_c, 1, 73, 0
1, 50639, Note_off_c, 1, 66, 0
1, 50655, Note_off_c, 1, 74, 0
1, 50704, Note_off_c, 1, 54, 0
1, 50732, Note_on_c, 1, 71, 127
1, 50792, Note_off_c, 1, 71, 0
1, 50792, Note_on_c, 1, 70, 127
1, 50837, Note_off_c, 1, 70, 0
1, 50853, Note_on_c, 1, 74, 127
1, 50861, Note_on_c, 1, 79, 127
1, 50863, Note_on_c, 1, 73, 127
1, 50863, Note_on_c, 1, 70, 127
1, 50864, Note_on_c, 1, 52, 127
1, 50881, Note_off_c, 1, 74, 0
1, 50911, Note_off_c, 1, 70, 0
1, 50935, Note_off_c, 1, 79, 0
1, 50949, Note_off_c, 1, 52, 0
1, 50960, Note_on_c, 1, 71, 127
1, 50970, Note_off_c, 1, 73, 0
1, 51024, Note_off_c, 1, 71, 0
1, 51099, Note_on_c, 1, 74, 127
1, 51099, Note_on_c, 1, 71, 127
1, 51104, Note_on_c, 1, 78, 127
1, 51107, Note_on_c, 1, 62, 127
1, 51188, Note_off_c, 1, 62, 0
1, 51194, Note_off_c, 1, 78, 0
1, 51197, Note_off_c, 1, 71, 0
1, 51199, Note_off_c, 1, 74, 0
1, 51222, Note_on_c, 1, 50, 127
1, 51274, Note_on_c, 1, 49, 127
1, 51275, Note_off_c, 1, 50, 0
1, 51317, Note_off_c, 1, 49, 0
1, 51339, Note_on_c, 1, 50, 127
1, 51397, Note_off_c, 1, 50, 0
1, 51459, Note_on_c, 1, 71, 127
1, 51462, Note_on_c, 1, 64, 127
1, 51465, Note_on_c, 1, 52, 127
1, 51465, Note_on_c, 1, 79, 127
1, 51517, Note_off_c, 1, 71, 0
1, 51517, Note_off_c, 1, 52, 0
1, 51521, Note_off_c, 1, 64, 0
1, 51523, Note_off_c, 1, 79, 0
1, 51578, Note_on_c, 1, 78, 127
1, 51578, Note_on_c, 1, 70, 127
1, 51584, Note_on_c, 1, 50, 127
1, 51585, Note_on_c, 1, 64, 127
1, 51596, Note_on_c, 1, 76, 127
1, 51603, Note_off_c, 1, 78, 0
1, 51606, Note_on_c, 1, 49, 127
1, 51616, Note_off_c, 1, 50, 0
1, 51627, Note_off_c, 1, 70, 0
1, 51635, Note_off_c, 1, 76, 0
1, 51636, Note_off_c, 1, 49, 0
1, 51647, Note_off_c, 1, 64, 0
1, 51691, Note_on_c, 1, 71, 127
1, 51697, Note_on_c, 1, 47, 127
1, 51698, Note_on_c, 1, 74, 127
1, 51703, Note_on_c, 1, 66, 127
1, 51733, Note_on_c, 1, 46, 127
1, 51739, Note_off_c, 1, 71, 0
1, 51748, Note_on_c, 1, 73, 127
1, 51750, Note_off_c, 1, 66, 0
1, 51758, Note_off_c, 1, 47, 0
1, 51759, Note_off_c, 1, 74, 0
1, 51787, Note_off_c, 1, 73, 0
1, 51790, Note_off_c, 1, 46, 0
1, 51815, Note_on_c, 1, 83, 127
1, 51816, Note_on_c, 1, 73, 127
1, 51818, Note_on_c, 1, 53, 127
1, 51820, Note_on_c, 1, 68, 127
1, 51904, Note_off_c, 1, 68, 0
1, 51916, Note_off_c, 1, 53, 0
1, 51920, Note_off_c, 1, 83, 0
1, 52058, Note_on_c, 1, 82, 127
1, 52058, Note_on_c, 1, 66, 127
1, 52065, Note_on_c, 1, 54, 127
1, 52122, Note_off_c, 1, 54, 0
1, 52133, Note_off_c, 1, 66, 0
1, 52152, Note_off_c, 1, 73, 0
1, 52175, Note_off_c, 1, 82, 0
1, 52179, Note_on_c, 1, 83, 127
1, 52179, Note_on_c, 1, 70, 127
1, 52183, Note_on_c, 1, 42, 127
1, 52189, Note_on_c, 1, 76, 127
1, 52235, Note_on_c, 1, 85, 127
1, 52242, Note_off_c, 1, 83, 0
1, 52245, Note_off_c, 1, 42, 0
1, 52245, Note_off_c, 1, 76, 0
1, 52251, Note_off_c, 1, 70, 0
1, 52279, Note_off_c, 1, 85, 0
1, 52299, Note_on_c, 1, 71, 127
1, 52300, Note_on_c, 1, 44, 127
1, 52303, Note_on_c, 1, 74, 127
1, 52304, Note_on_c, 1, 78, 127
1, 52362, Note_off_c, 1, 44, 0
1, 52363, Note_off_c, 1, 78, 0
1, 52364, Note_off_c, 1, 74, 0
1, 52367, Note_off_c, 1, 71, 0
1, 52422, Note_on_c, 1, 46, 127
1, 52425, Note_on_c, 1, 76, 127
1, 52427, Note_on_c, 1, 73, 127
1, 52473, Note_off_c, 1, 46, 0
1, 52487, Note_off_c, 1, 73, 0
1, 52489, Note_off_c, 1, 76, 0
1, 52548, Note_on_c, 1, 71, 127
1, 52548, Note_on_c, 1, 47, 127
1, 52549, Note_on_c, 1, 66, 127
1, 52550, Note_on_c, 1, 76, 127
1, 52577, Note_on_c, 1, 74, 127
1, 52581, Note_off_c, 1, 76, 0
1, 52609, Note_off_c, 1, 71, 0
1, 52610, Note_off_c, 1, 74, 0
1, 52613, Note_off_c, 1, 66, 0
1, 52616, Note_off_c, 1, 47, 0
1, 52664, Note_on_c, 1, 73, 127
1, 52668, Note_on_c, 1, 50, 127
1, 52704, Note_off_c, 1, 73, 0
1, 52734, Note_off_c, 1, 50, 0
1, 52783, Note_on_c, 1, 73, 127
1, 52784, Note_on_c, 1, 67, 127
1, 52787, Note_on_c, 1, 52, 127
1, 52790, Note_on_c, 1, 64, 127
1, 52828, Note_off_c, 1, 67, 0
1, 52832, Note_off_c, 1, 73, 0
1, 52847, Note_off_c, 1, 64, 0
1, 52857, Note_off_c, 1, 52, 0
1, 52901, Note_on_c, 1, 66, 127
1, 52907, Note_on_c, 1, 83, 127
1, 52907, Note_on_c, 1, 54, 127
1, 52909, Note_on_c, 1, 64, 127
1, 52954, Note_off_c, 1, 83, 0
1, 52959, Note_off_c, 1, 66, 0
1, 52961, Note_on_c, 1, 82, 127
1, 52962, Note_off_c, 1, 54, 0
1, 52967, Note_off_c, 1, 64, 0
1, 53007, Note_off_c, 1, 82, 0
1, 53023, Note_on_c, 1, 71, 127
1, 53023, Note_on_c, 1, 62, 127
1, 53026, Note_on_c, 1, 55, 127
1, 53026, Note_on_c, 1, 83, 127
1, 53074, Note_off_c, 1, 71, 0
1, 53080, Note_off_c, 1, 83, 0
1, 53088, Note_off_c, 1, 55, 0
1, 53094, Note_off_c, 1, 62, 0
1, 53142, Note_on_c, 1, 76, 127
1, 53142, Note_on_c, 1, 67, 127
1, 53144, Note_on_c, 1, 85, 127
1, 53145, Note_on_c, 1, 52, 127
1, 53196, Note_off_c, 1, 76, 0
1, 53197, Note_off_c, 1, 52, 0
1, 53204, Note_off_c, 1, 67, 0
1, 53205, Note_off_c, 1, 85, 0
1, 53266, Note_on_c, 1, 58, 127
1, 53267, Note_on_c, 1, 66, 127
1, 53269, Note_on_c, 1, 74, 127
1, 53271, Note_on_c, 1, 78, 127
1, 53292, Note_on_c, 1, 73, 127
1, 53296, Note_on_c, 1, 76, 127
1, 53306, Note_off_c, 1, 78, 0
1, 53310, Note_off_c, 1, 74, 0
1, 53329, Note_off_c, 1, 58, 0
1, 53329, Note_off_c, 1, 73, 0
1, 53331, Note_off_c, 1, 76, 0
1, 53341, Note_off_c, 1, 66, 0
1, 53375, Note_on_c, 1, 71, 127
1, 53391, Note_on_c, 1, 54, 127
1, 53441, Note_on_c, 1, 70, 127
1, 53446, Note_off_c, 1, 71, 0
1, 53450, Note_off_c, 1, 54, 0
1, 53492, Note_off_c, 1, 70, 0
1, 53502, Note_on_c, 1, 71, 127
1, 53507, Note_on_c, 1, 74, 127
1, 53512, Note_on_c, 1, 59, 127
1, 53513, Note_on_c, 1, 66, 127
1, 53565, Note_on_c, 1, 76, 127
1, 53567, Note_off_c, 1, 74, 0
1, 53568, Note_off_c, 1, 71, 0
1, 53571, Note_off_c, 1, 59, 0
1, 53573, Note_off_c, 1, 66, 0
1, 53607, Note_off_c, 1, 76, 0
1, 53624, Note_on_c, 1, 50, 127
1, 53626, Note_on_c, 1, 66, 127
1, 53627, Note_on_c, 1, 78, 127
1, 53627, Note_on_c, 1, 71, 127
1, 53678, Note_off_c, 1, 78, 0
1, 53681, Note_on_c, 1, 80, 127
1, 53684, Note_off_c, 1, 71, 0
1, 53694, Note_off_c, 1, 50, 0
1, 53697, Note_off_c, 1, 66, 0
1, 53715, Note_off_c, 1, 80, 0
1, 53743, Note_on_c, 1, 49, 127
1, 53746, Note_on_c, 1, 82, 127
1, 53746, Note_on_c, 1, 73, 127
1, 53747, Note_on_c, 1, 76, 127
1, 53792, Note_off_c, 1, 82, 0
1, 53802, Note_off_c, 1, 76, 0
1, 53805, Note_off_c, 1, 49, 0
1, 53807, Note_off_c, 1, 73, 0
1, 53861, Note_on_c, 1, 66, 127
1, 53864, Note_on_c, 1, 47, 127
1, 53866, Note_on_c, 1, 83, 127
1, 53867, Note_on_c, 1, 74, 127
1, 53912, Note_off_c, 1, 74, 0
1, 53915, Note_off_c, 1, 83, 0
1, 53918, Note_off_c, 1, 66, 0
1, 53921, Note_off_c, 1, 47, 0
1, 53987, Note_on_c, 1, 52, 127
1, 53988, Note_on_c, 1, 64, 127
1, 53988, Note_on_c, 1, 69, 127
1, 53990, Note_on_c, 1, 74, 127
1, 53993, Note_on_c, 1, 66, 127
1, 54011, Note_on_c, 1, 73, 127
1, 54012, Note_on_c, 1, 67, 127
1, 54023, Note_off_c, 1, 66, 0
1, 54025, Note_off_c, 1, 69, 0
1, 54031, Note_off_c, 1, 74, 0
1, 54045, Note_off_c, 1, 52, 0
1, 54045, Note_off_c, 1, 67, 0
1, 54051, Note_off_c, 1, 64, 0
1, 54057, Note_off_c, 1, 73, 0
1, 54105, Note_on_c, 1, 71, 127
1, 54106, Note_on_c, 1, 54, 127
1, 54109, Note_on_c, 1, 62, 127
1, 54159, Note_off_c, 1, 71, 0
1, 54159, Note_on_c, 1, 70, 127
1, 54168, Note_off_c, 1, 54, 0
1, 54171, Note_on_c, 1, 61, 127
1, 54180, Note_off_c, 1, 62, 0
1, 54207, Note_off_c, 1, 70, 0
1, 54220, Note_off_c, 1, 61, 0
1, 54226, Note_on_c, 1, 55, 127
1, 54232, Note_on_c, 1, 59, 127
1, 54285, Note_off_c, 1, 55, 0
1, 54295, Note_off_c, 1, 59, 0
1, 54343, Note_on_c, 1, 73, 127
1, 54345, Note_on_c, 1, 64, 127
1, 54346, Note_on_c, 1, 67, 127
1, 54346, Note_on_c, 1, 52, 127
1, 54398, Note_off_c, 1, 73, 0
1, 54403, Note_off_c, 1, 67, 0
1, 54403, Note_off_c, 1, 52, 0
1, 54408, Note_off_c, 1, 64, 0
1, 54465, Note_on_c, 1, 54, 127
1, 54466, Note_on_c, 1, 61, 127
1, 54467, Note_on_c, 1, 66, 127
1, 54467, Note_on_c, 1, 64, 127
1, 54519, Note_off_c, 1, 61, 0
1, 54522, Note_off_c, 1, 66, 0
1, 54526, Note_off_c, 1, 54, 0
1, 54528, Note_off_c, 1, 64, 0
1, 54589, Note_on_c, 1, 70, 127
1, 54592, Note_on_c, 1, 66, 127
1, 54592, Note_on_c, 1, 64, 127
1, 54594, Note_on_c, 1, 61, 127
1, 54595, Note_on_c, 1, 42, 127
1, 54642, Note_off_c, 1, 70, 0
1, 54645, Note_off_c, 1, 42, 0
1, 54646, Note_off_c, 1, 64, 0
1, 54646, Note_off_c, 1, 61, 0
1, 54648, Note_off_c, 1, 66, 0
1, 54717, Note_on_c, 1, 66, 127
1, 54717, Note_on_c, 1, 47, 127
1, 54719, Note_on_c, 1, 71, 127
1, 54721, Note_on_c, 1, 62, 127
1, 54967, Note_off_c, 1, 71, 0
1, 54981, Note_off_c, 1, 47, 0
1, 54983, Note_off_c, 1, 62, 0
1, 54985, Note_off_c, 1, 66, 0
1, 55066, Note_on_c, 1, 62, 127
1, 55066, Note_on_c, 1, 59, 127
1, 55073, Note_on_c, 1, 66, 127
1, 55078, Note_on_c, 1, 74, 127
1, 55114, Note_off_c, 1, 66, 0
1, 55116, Note_off_c, 1, 62, 0
1, 55122, Note_on_c, 1, 61, 127
1, 55126, Note_on_c, 1, 64, 127
1, 55129, Note_off_c, 1, 59, 0
1, 55171, Note_off_c, 1, 61, 0
1, 55172, Note_off_c, 1, 74, 0
1, 55185, Note_off_c, 1, 64, 0
1, 55195, Note_on_c, 1, 57, 127
1, 55261, Note_off_c, 1, 57, 0
1, 55307, Note_on_c, 1, 67, 127
1, 55311, Note_on_c, 1, 55, 127
1, 55312, Note_on_c, 1, 62, 127
1, 55322, Note_on_c, 1, 74, 127
1, 55363, Note_off_c, 1, 67, 0
1, 55363, Note_off_c, 1, 62, 0
1, 55367, Note_off_c, 1, 55, 0
1, 55410, Note_off_c, 1, 74, 0
1, 55426, Note_on_c, 1, 69, 127
1, 55432, Note_on_c, 1, 62, 127
1, 55435, Note_on_c, 1, 54, 127
1, 55438, Note_on_c, 1, 74, 127
1, 55494, Note_off_c, 1, 54, 0
1, 55506, Note_off_c, 1, 69, 0
1, 55518, Note_off_c, 1, 62, 0
1, 55531, Note_off_c, 1, 74, 0
1, 55549, Note_on_c, 1, 72, 127
1, 55552, Note_on_c, 1, 54, 127
1, 55555, Note_on_c, 1, 74, 127
1, 55556, Note_on_c, 1, 69, 127
1, 55595, Note_on_c, 1, 71, 127
1, 55598, Note_off_c, 1, 72, 0
1, 55607, Note_on_c, 1, 67, 127
1, 55615, Note_off_c, 1, 69, 0
1, 55616, Note_off_c, 1, 54, 0
1, 55639, Note_off_c, 1, 71, 0
1, 55642, Note_off_c, 1, 74, 0
1, 55644, Note_off_c, 1, 67, 0
1, 55658, Note_on_c, 1, 72, 127
1, 55668, Note_on_c, 1, 69, 127
1, 55672, Note_on_c, 1, 54, 127
1, 55673, Note_on_c, 1, 74, 127
1, 55713, Note_off_c, 1, 72, 0
1, 55726, Note_off_c, 1, 69, 0
1, 55730, Note_off_c, 1, 54, 0
1, 55760, Note_off_c, 1, 74, 0
1, 55780, Note_on_c, 1, 81, 127
1, 55786, Note_on_c, 1, 62, 127
1, 55789, Note_on_c, 1, 74, 127
1, 55792, Note_on_c, 1, 50, 127
1, 55793, Note_on_c, 1, 66, 127
1, 55794, Note_on_c, 1, 54, 127
1, 55836, Note_on_c, 1, 64, 127
1, 55837, Note_off_c, 1, 81, 0
1, 55841, Note_off_c, 1, 62, 0
1, 55845, Note_off_c, 1, 54, 0
1, 55850, Note_off_c, 1, 66, 0
1, 55854, Note_off_c, 1, 50, 0
1, 55880, Note_off_c, 1, 74, 0
1, 55888, Note_off_c, 1, 64, 0
1, 55894, Note_on_c, 1, 66, 127
1, 55898, Note_on_c, 1, 69, 127
1, 55900, Note_on_c, 1, 74, 127
1, 55905, Note_on_c, 1, 62, 127
1, 55905, Note_on_c, 1, 57, 127
1, 55947, Note_on_c, 1, 67, 127
1, 55949, Note_on_c, 1, 71, 127
1, 55954, Note_off_c, 1, 69, 0
1, 55957, Note_off_c, 1, 66, 0
1, 55960, Note_off_c, 1, 62, 0
1, 55980, Note_off_c, 1, 57, 0
1, 55994, Note_off_c, 1, 71, 0
1, 55997, Note_off_c, 1, 74, 0
1, 56000, Note_off_c, 1, 67, 0
1, 56012, Note_on_c, 1, 72, 127
1, 56016, Note_on_c, 1, 69, 127
1, 56020, Note_on_c, 1, 54, 127
1, 56022, Note_on_c, 1, 74, 127
1, 56026, Note_on_c, 1, 66, 127
1, 56027, Note_on_c, 1, 50, 127
1, 56071, Note_off_c, 1, 54, 0
1, 56071, Note_off_c, 1, 66, 0
1, 56074, Note_off_c, 1, 50, 0
1, 56076, Note_off_c, 1, 72, 0
1, 56081, Note_off_c, 1, 69, 0
1, 56112, Note_off_c, 1, 74, 0
1, 56135, Note_on_c, 1, 71, 127
1, 56138, Note_on_c, 1, 74, 127
1, 56138, Note_on_c, 1, 50, 127
1, 56141, Note_on_c, 1, 55, 127
1, 56145, Note_on_c, 1, 62, 127
1, 56156, Note_on_c, 1, 69, 127
1, 56164, Note_on_c, 1, 72, 127
1, 56170, Note_off_c, 1, 71, 0
1, 56182, Note_off_c, 1, 62, 0
1, 56191, Note_off_c, 1, 50, 0
1, 56194, Note_off_c, 1, 55, 0
1, 56199, Note_off_c, 1, 69, 0
1, 56199, Note_off_c, 1, 72, 0
1, 56253, Note_on_c, 1, 67, 127
1, 56385, Note_on_c, 1, 43, 127
1, 56394, Note_off_c, 1, 67, 0
1, 56398, Note_off_c, 1, 74, 0
1, 56475, Note_off_c, 1, 43, 0
1, 56501, Note_on_c, 1, 67, 127
1, 56501, Note_on_c, 1, 55, 127
1, 56504, Note_on_c, 1, 76, 127
1, 56510, Note_on_c, 1, 71, 127
1, 56551, Note_off_c, 1, 55, 0
1, 56551, Note_on_c, 1, 66, 127
1, 56559, Note_off_c, 1, 67, 0
1, 56559, Note_off_c, 1, 71, 0
1, 56559, Note_on_c, 1, 69, 127
1, 56593, Note_off_c, 1, 76, 0
1, 56600, Note_off_c, 1, 66, 0
1, 56613, Note_off_c, 1, 69, 0
1, 56616, Note_on_c, 1, 67, 127
1, 56619, Note_on_c, 1, 76, 127
1, 56621, Note_on_c, 1, 71, 127
1, 56622, Note_on_c, 1, 55, 127
1, 56667, Note_off_c, 1, 67, 0
1, 56675, Note_off_c, 1, 71, 0
1, 56682, Note_off_c, 1, 55, 0
1, 56722, Note_off_c, 1, 76, 0
1, 56739, Note_on_c, 1, 69, 127
1, 56747, Note_on_c, 1, 73, 127
1, 56748, Note_on_c, 1, 76, 127
1, 56749, Note_on_c, 1, 55, 127
1, 56780, Note_off_c, 1, 69, 0
1, 56788, Note_off_c, 1, 73, 0
1, 56802, Note_off_c, 1, 55, 0
1, 56837, Note_off_c, 1, 76, 0
1, 56860, Note_on_c, 1, 76, 127
1, 56860, Note_on_c, 1, 71, 127
1, 56863, Note_on_c, 1, 56, 127
1, 56870, Note_on_c, 1, 74, 127
1, 56928, Note_off_c, 1, 56, 0
1, 56940, Note_off_c, 1, 71, 0
1, 56949, Note_off_c, 1, 74, 0
1, 56964, Note_off_c, 1, 76, 0
1, 56978, Note_on_c, 1, 74, 127
1, 56986, Note_on_c, 1, 76, 127
1, 56986, Note_on_c, 1, 56, 127
1, 56987, Note_on_c, 1, 78, 127
1, 57020, Note_off_c, 1, 74, 0
1, 57034, Note_off_c, 1, 78, 0
1, 57034, Note_on_c, 1, 73, 127
1, 57045, Note_off_c, 1, 56, 0
1, 57067, Note_off_c, 1, 73, 0
1, 57077, Note_off_c, 1, 76, 0
1, 57093, Note_on_c, 1, 71, 127
1, 57101, Note_on_c, 1, 74, 127
1, 57108, Note_on_c, 1, 76, 127
1, 57108, Note_on_c, 1, 56, 127
1, 57156, Note_off_c, 1, 71, 0
1, 57163, Note_off_c, 1, 56, 0
1, 57170, Note_off_c, 1, 74, 0
1, 57206, Note_off_c, 1, 76, 0
1, 57215, Note_on_c, 1, 64, 127
1, 57218, Note_on_c, 1, 52, 127
1, 57219, Note_on_c, 1, 56, 127
1, 57223, Note_on_c, 1, 76, 127
1, 57223, Note_on_c, 1, 83, 127
1, 57227, Note_on_c, 1, 68, 127
1, 57267, Note_on_c, 1, 66, 127
1, 57279, Note_off_c, 1, 56, 0
1, 57280, Note_off_c, 1, 83, 0
1, 57288, Note_off_c, 1, 64, 0
1, 57294, Note_off_c, 1, 68, 0
1, 57297, Note_off_c, 1, 52, 0
1, 57315, Note_off_c, 1, 76, 0
1, 57333, Note_off_c, 1, 66, 0
1, 57339, Note_on_c, 1, 59, 127
1, 57343, Note_on_c, 1, 71, 127
1, 57389, Note_on_c, 1, 69, 127
1, 57394, Note_off_c, 1, 59, 0
1, 57402, Note_on_c, 1, 73, 127
1, 57414, Note_off_c, 1, 71, 0
1, 57443, Note_off_c, 1, 69, 0
1, 57445, Note_off_c, 1, 73, 0
1, 57449, Note_on_c, 1, 56, 127
1, 57450, Note_on_c, 1, 71, 127
1, 57455, Note_on_c, 1, 52, 127
1, 57458, Note_on_c, 1, 76, 127
1, 57461, Note_on_c, 1, 74, 127
1, 57470, Note_on_c, 1, 68, 127
1, 57509, Note_on_c, 1, 73, 127
1, 57511, Note_off_c, 1, 56, 0
1, 57519, Note_off_c, 1, 68, 0
1, 57523, Note_off_c, 1, 52, 0
1, 57523, Note_off_c, 1, 74, 0
1, 57529, Note_off_c, 1, 71, 0
1, 57541, Note_off_c, 1, 73, 0
1, 57553, Note_off_c, 1, 76, 0
1, 57578, Note_on_c, 1, 57, 127
1, 57579, Note_on_c, 1, 64, 127
1, 57580, Note_on_c, 1, 73, 127
1, 57585, Note_on_c, 1, 76, 127
1, 57589, Note_on_c, 1, 45, 127
1, 57600, Note_on_c, 1, 71, 127
1, 57606, Note_on_c, 1, 74, 127
1, 57608, Note_off_c, 1, 73, 0
1, 57625, Note_off_c, 1, 64, 0
1, 57637, Note_off_c, 1, 71, 0
1, 57637, Note_on_c, 1, 77, 127
1, 57642, Note_off_c, 1, 74, 0
1, 57647, Note_off_c, 1, 77, 0
1, 57648, Note_off_c, 1, 57, 0
1, 57657, Note_off_c, 1, 45, 0
1, 57693, Note_on_c, 1, 69, 127
1, 57695, Note_on_c, 1, 52, 127
1, 57758, Note_off_c, 1, 52, 0
1, 57847, Note_off_c, 1, 76, 0
1, 57847, Note_off_c, 1, 69, 0
1, 57936, Note_on_c, 1, 45, 127
1, 57942, Note_on_c, 1, 81, 127
1, 57945, Note_on_c, 1, 73, 127
1, 57946, Note_on_c, 1, 64, 127
1, 57948, Note_on_c, 1, 69, 127
1, 57957, Note_on_c, 1, 76, 127
1, 57987, Note_on_c, 1, 80, 127
1, 57993, Note_on_c, 1, 71, 127
1, 57998, Note_off_c, 1, 64, 0
1, 57998, Note_on_c, 1, 62, 127
1, 57999, Note_off_c, 1, 73, 0
1, 58003, Note_off_c, 1, 81, 0
1, 58008, Note_off_c, 1, 45, 0
1, 58008, Note_off_c, 1, 69, 0
1, 58019, Note_off_c, 1, 76, 0
1, 58039, Note_off_c, 1, 71, 0
1, 58046, Note_off_c, 1, 62, 0
1, 58049, Note_off_c, 1, 80, 0
1, 58055, Note_on_c, 1, 83, 127
1, 58056, Note_on_c, 1, 45, 127
1, 58057, Note_on_c, 1, 74, 127
1, 58061, Note_on_c, 1, 66, 127
1, 58071, Note_on_c, 1, 78, 127
1, 58112, Note_off_c, 1, 66, 0
1, 58115, Note_off_c, 1, 83, 0
1, 58123, Note_off_c, 1, 74, 0
1, 58123, Note_off_c, 1, 78, 0
1, 58145, Note_off_c, 1, 45, 0
1, 58177, Note_on_c, 1, 45, 127
1, 58178, Note_on_c, 1, 81, 127
1, 58180, Note_on_c, 1, 69, 127
1, 58180, Note_on_c, 1, 73, 127
1, 58182, Note_on_c, 1, 64, 127
1, 58187, Note_on_c, 1, 76, 127
1, 58228, Note_off_c, 1, 76, 0
1, 58230, Note_off_c, 1, 73, 0
1, 58235, Note_off_c, 1, 81, 0
1, 58235, Note_off_c, 1, 64, 0
1, 58236, Note_off_c, 1, 69, 0
1, 58265, Note_off_c, 1, 45, 0
1, 58285, Note_on_c, 1, 73, 127
1, 58290, Note_on_c, 1, 76, 127
1, 58291, Note_on_c, 1, 81, 127
1, 58300, Note_on_c, 1, 45, 127
1, 58303, Note_on_c, 1, 71, 127
1, 58303, Note_on_c, 1, 62, 127
1, 58311, Note_off_c, 1, 73, 0
1, 58312, Note_on_c, 1, 80, 127
1, 58316, Note_on_c, 1, 74, 127
1, 58319, Note_off_c, 1, 76, 0
1, 58332, Note_off_c, 1, 81, 0
1, 58344, Note_off_c, 1, 74, 0
1, 58346, Note_off_c, 1, 71, 0
1, 58364, Note_off_c, 1, 62, 0
1, 58364, Note_off_c, 1, 80, 0
1, 58390, Note_off_c, 1, 45, 0
1, 58413, Note_on_c, 1, 76, 127
1, 58413, Note_on_c, 1, 73, 127
1, 58416, Note_on_c, 1, 81, 127
1, 58416, Note_on_c, 1, 45, 127
1, 58421, Note_on_c, 1, 64, 127
1, 58429, Note_on_c, 1, 69, 127
1, 58501, Note_off_c, 1, 45, 0
1, 58565, Note_off_c, 1, 76, 0
1, 58571, Note_off_c, 1, 69, 0
1, 58572, Note_off_c, 1, 81, 0
1, 58573, Note_off_c, 1, 64, 0
1, 58577, Note_off_c, 1, 73, 0
1, 58654, Note_on_c, 1, 45, 127
1, 58657, Note_on_c, 1, 73, 127
1, 58663, Note_on_c, 1, 69, 127
1, 58663, Note_on_c, 1, 76, 127
1, 58664, Note_on_c, 1, 79, 127
1, 58705, Note_on_c, 1, 78, 127
1, 58709, Note_off_c, 1, 76, 0
1, 58715, Note_off_c, 1, 79, 0
1, 58719, Note_off_c, 1, 73, 0
1, 58720, Note_on_c, 1, 74, 127
1, 58724, Note_off_c, 1, 69, 0
1, 58741, Note_off_c, 1, 45, 0
1, 58761, Note_off_c, 1, 78, 0
1, 58762, Note_off_c, 1, 74, 0
1, 58771, Note_on_c, 1, 45, 127
1, 58775, Note_on_c, 1, 78, 127
1, 58776, Note_on_c, 1, 81, 127
1, 58779, Note_on_c, 1, 69, 127
1, 58780, Note_on_c, 1, 73, 127
1, 58823, Note_off_c, 1, 78, 0
1, 58830, Note_off_c, 1, 69, 0
1, 58837, Note_off_c, 1, 81, 0
1, 58841, Note_off_c, 1, 73, 0
1, 58859, Note_off_c, 1, 45, 0
1, 58893, Note_on_c, 1, 45, 127
1, 58895, Note_on_c, 1, 73, 127
1, 58898, Note_on_c, 1, 76, 127
1, 58901, Note_on_c, 1, 79, 127
1, 58902, Note_on_c, 1, 69, 127
1, 58945, Note_off_c, 1, 76, 0
1, 58947, Note_off_c, 1, 73, 0
1, 58951, Note_off_c, 1, 69, 0
1, 58958, Note_off_c, 1, 79, 0
1, 58982, Note_off_c, 1, 45, 0
1, 59012, Note_on_c, 1, 45, 127
1, 59016, Note_on_c, 1, 69, 127
1, 59018, Note_on_c, 1, 76, 127
1, 59020, Note_on_c, 1, 79, 127
1, 59021, Note_on_c, 1, 62, 127
1, 59039, Note_on_c, 1, 74, 127
1, 59046, Note_on_c, 1, 78, 127
1, 59051, Note_off_c, 1, 79, 0
1, 59053, Note_off_c, 1, 76, 0
1, 59064, Note_off_c, 1, 69, 0
1, 59069, Note_off_c, 1, 62, 0
1, 59073, Note_off_c, 1, 78, 0
1, 59079, Note_off_c, 1, 74, 0
1, 59109, Note_off_c, 1, 45, 0
1, 59130, Note_on_c, 1, 73, 127
1, 59144, Note_on_c, 1, 64, 127
1, 59284, Note_off_c, 1, 73, 0
1, 59293, Note_off_c, 1, 64, 0
1, 59370, Note_on_c, 1, 45, 127
1, 59378, Note_on_c, 1, 77, 127
1, 59380, Note_on_c, 1, 69, 127
1, 59381, Note_on_c, 1, 74, 127
1, 59423, Note_on_c, 1, 76, 127
1, 59425, Note_off_c, 1, 74, 0
1, 59429, Note_on_c, 1, 73, 127
1, 59434, Note_off_c, 1, 69, 0
1, 59436, Note_on_c, 1, 67, 127
1, 59441, Note_off_c, 1, 77, 0
1, 59454, Note_off_c, 1, 45, 0
1, 59482, Note_off_c, 1, 76, 0
1, 59484, Note_off_c, 1, 67, 0
1, 59485, Note_off_c, 1, 73, 0
1, 59490, Note_on_c, 1, 79, 127
1, 59491, Note_on_c, 1, 76, 127
1, 59496, Note_on_c, 1, 45, 127
1, 59498, Note_on_c, 1, 70, 127
1, 59549, Note_off_c, 1, 76, 0
1, 59554, Note_off_c, 1, 79, 0
1, 59567, Note_off_c, 1, 70, 0
1, 59582, Note_off_c, 1, 45, 0
1, 59609, Note_on_c, 1, 77, 127
1, 59615, Note_on_c, 1, 74, 127
1, 59617, Note_on_c, 1, 45, 127
1, 59622, Note_on_c, 1, 69, 127
1, 59669, Note_off_c, 1, 74, 0
1, 59672, Note_off_c, 1, 69, 0
1, 59673, Note_off_c, 1, 77, 0
1, 59690, Note_off_c, 1, 45, 0
1, 59739, Note_on_c, 1, 73, 127
1, 59740, Note_on_c, 1, 76, 127
1, 59743, Note_on_c, 1, 67, 127
1, 59743, Note_on_c, 1, 45, 127
1, 59804, Note_off_c, 1, 73, 0
1, 59810, Note_off_c, 1, 67, 0
1, 59825, Note_off_c, 1, 76, 0
1, 59864, Note_on_c, 1, 77, 127
1, 59989, Note_on_c, 1, 74, 127
1, 59989, Note_on_c, 1, 69, 127
1, 60048, Note_off_c, 1, 74, 0
1, 60055, Note_off_c, 1, 69, 0
1, 60085, Note_off_c, 1, 77, 0
1, 60235, Note_on_c, 1, 65, 127
1, 60295, Note_off_c, 1, 65, 0
1, 60334, Note_on_c, 1, 75, 127
1, 60470, Note_on_c, 1, 70, 127
1, 60532, Note_off_c, 1, 70, 0
1, 60563, Note_off_c, 1, 75, 0
1, 60713, Note_on_c, 1, 64, 127
1, 60777, Note_off_c, 1, 64, 0
1, 61544, Note_on_c, 1, 68, 127
1, 61723, Note_off_c, 1, 68, 0
1, 61905, Note_on_c, 1, 71, 127
1, 61911, Note_on_c, 1, 62, 127
1, 61916, Note_on_c, 1, 80, 127
1, 61948, Note_off_c, 1, 80, 0
1, 61951, Note_off_c, 1, 62, 0
1, 61953, Note_off_c, 1, 71, 0
1, 61997, Note_off_c, 1, 45, 0
1, 62034, Note_on_c, 1, 73, 127
1, 62034, Note_on_c, 1, 64, 127
1, 62035, Note_on_c, 1, 57, 127
1, 62039, Note_on_c, 1, 81, 127
1, 62080, Note_on_c, 1, 56, 127
1, 62098, Note_off_c, 1, 57, 0
1, 62139, Note_off_c, 1, 56, 0
1, 62183, Note_off_c, 1, 73, 0
1, 62185, Note_off_c, 1, 64, 0
1, 62206, Note_off_c, 1, 81, 0
1, 62267, Note_on_c, 1, 45, 127
1, 62272, Note_on_c, 1, 73, 127
1, 62273, Note_on_c, 1, 79, 127
1, 62274, Note_on_c, 1, 76, 127
1, 62277, Note_on_c, 1, 69, 127
1, 62277, Note_on_c, 1, 64, 127
1, 62325, Note_on_c, 1, 78, 127
1, 62326, Note_off_c, 1, 76, 0
1, 62327, Note_off_c, 1, 79, 0
1, 62330, Note_off_c, 1, 69, 0
1, 62331, Note_off_c, 1, 64, 0
1, 62344, Note_off_c, 1, 45, 0
1, 62352, Note_off_c, 1, 73, 0
1, 62371, Note_off_c, 1, 78, 0
1, 62385, Note_on_c, 1, 47, 127
1, 62385, Note_on_c, 1, 79, 127
1, 62385, Note_on_c, 1, 74, 127
1, 62391, Note_on_c, 1, 62, 127
1, 62393, Note_on_c, 1, 50, 127
1, 62439, Note_off_c, 1, 50, 0
1, 62441, Note_off_c, 1, 79, 0
1, 62455, Note_off_c, 1, 47, 0
1, 62455, Note_off_c, 1, 74, 0
1, 62459, Note_off_c, 1, 62, 0
1, 62498, Note_on_c, 1, 76, 127
1, 62502, Note_on_c, 1, 69, 127
1, 62505, Note_on_c, 1, 49, 127
1, 62511, Note_on_c, 1, 45, 127
1, 62550, Note_off_c, 1, 45, 0
1, 62565, Note_off_c, 1, 49, 0
1, 62574, Note_off_c, 1, 76, 0
1, 62579, Note_off_c, 1, 69, 0
1, 62623, Note_on_c, 1, 74, 127
1, 62624, Note_on_c, 1, 69, 127
1, 62625, Note_on_c, 1, 50, 127
1, 62626, Note_on_c, 1, 78, 127
1, 62678, Note_off_c, 1, 78, 0
1, 62681, Note_on_c, 1, 79, 127
1, 62684, Note_off_c, 1, 74, 0
1, 62699, Note_off_c, 1, 50, 0
1, 62716, Note_off_c, 1, 69, 0
1, 62740, Note_on_c, 1, 81, 127
1, 62742, Note_off_c, 1, 79, 0
1, 62746, Note_on_c, 1, 54, 127
1, 62797, Note_on_c, 1, 83, 127
1, 62799, Note_off_c, 1, 81, 0
1, 62808, Note_off_c, 1, 54, 0
1, 62850, Note_off_c, 1, 83, 0
1, 62857, Note_on_c, 1, 76, 127
1, 62860, Note_on_c, 1, 69, 127
1, 62860, Note_on_c, 1, 85, 127
1, 62861, Note_on_c, 1, 79, 127
1, 62862, Note_on_c, 1, 52, 127
1, 62866, Note_on_c, 1, 45, 127
1, 62909, Note_off_c, 1, 45, 0
1, 62917, Note_off_c, 1, 76, 0
1, 62919, Note_off_c, 1, 52, 0
1, 62923, Note_off_c, 1, 85, 0
1, 62926, Note_off_c, 1, 79, 0
1, 62947, Note_off_c, 1, 69, 0
1, 62976, Note_on_c, 1, 78, 127
1, 62977, Note_on_c, 1, 69, 127
1, 62979, Note_on_c, 1, 50, 127
1, 62987, Note_on_c, 1, 86, 127
1, 63040, Note_off_c, 1, 78, 0
1, 63041, Note_off_c, 1, 86, 0
1, 63052, Note_off_c, 1, 50, 0
1, 63055, Note_off_c, 1, 69, 0
1, 63097, Note_on_c, 1, 69, 127
1, 63101, Note_on_c, 1, 76, 127
1, 63103, Note_on_c, 1, 79, 127
1, 63106, Note_on_c, 1, 85, 127
1, 63106, Note_on_c, 1, 45, 127
1, 63106, Note_on_c, 1, 57, 127
1, 63145, Note_off_c, 1, 45, 0
1, 63151, Note_off_c, 1, 85, 0
1, 63158, Note_off_c, 1, 76, 0
1, 63161, Note_off_c, 1, 57, 0
1, 63162, Note_off_c, 1, 79, 0
1, 63162, Note_on_c, 1, 83, 127
1, 63166, Note_off_c, 1, 69, 0
1, 63201, Note_off_c, 1, 83, 0
1, 63214, Note_on_c, 1, 67, 127
1, 63217, Note_on_c, 1, 45, 127
1, 63219, Note_on_c, 1, 76, 127
1, 63221, Note_on_c, 1, 81, 127
1, 63225, Note_on_c, 1, 69, 127
1, 63235, Note_on_c, 1, 73, 127
1, 63260, Note_off_c, 1, 67, 0
1, 63265, Note_off_c, 1, 81, 0
1, 63271, Note_off_c, 1, 76, 0
1, 63276, Note_on_c, 1, 79, 127
1, 63279, Note_off_c, 1, 73, 0
1, 63280, Note_off_c, 1, 45, 0
1, 63284, Note_off_c, 1, 69, 0
1, 63312, Note_off_c, 1, 79, 0
1, 63333, Note_on_c, 1, 74, 127
1, 63342, Note_on_c, 1, 50, 127
1, 63342, Note_on_c, 1, 66, 127
1, 63345, Note_on_c, 1, 78, 127
1, 63348, Note_on_c, 1, 69, 127
1, 63355, Note_on_c, 1, 62, 127
1, 63356, Note_on_c, 1, 47, 127
1, 63383, Note_off_c, 1, 50, 0
1, 63438, Note_off_c, 1, 66, 0
1, 63442, Note_off_c, 1, 69, 0
1, 63463, Note_on_c, 1, 68, 127
1, 63466, Note_off_c, 1, 78, 0
1, 63468, Note_on_c, 1, 71, 127
1, 63482, Note_off_c, 1, 74, 0
1, 63509, Note_on_c, 1, 76, 127
1, 63514, Note_off_c, 1, 62, 0
1, 63518, Note_on_c, 1, 73, 127
1, 63524, Note_on_c, 1, 80, 127
1, 63526, Note_on_c, 1, 64, 127
1, 63529, Note_off_c, 1, 68, 0
1, 63533, Note_off_c, 1, 71, 0
1, 63545, Note_off_c, 1, 76, 0
1, 63554, Note_off_c, 1, 64, 0
1, 63556, Note_off_c, 1, 80, 0
1, 63563, Note_off_c, 1, 73, 0
1, 63588, Note_on_c, 1, 81, 127
1, 63609, Note_off_c, 1, 47, 0
1, 63650, Note_off_c, 1, 81, 0
1, 63713, Note_on_c, 1, 49, 127
1, 63771, Note_off_c, 1, 49, 0
1, 63818, Note_on_c, 1, 52, 127
1, 63874, Note_off_c, 1, 52, 0
1, 63945, Note_on_c, 1, 40, 127
1, 63997, Note_off_c, 1, 40, 0
1, 64058, Note_on_c, 1, 74, 127
1, 64062, Note_on_c, 1, 76, 127
1, 64067, Note_on_c, 1, 69, 127
1, 64068, Note_on_c, 1, 64, 127
1, 64069, Note_on_c, 1, 45, 127
1, 64071, Note_on_c, 1, 81, 127
1, 64114, Note_on_c, 1, 73, 127
1, 64133, Note_off_c, 1, 74, 0
1, 64176, Note_on_c, 1, 71, 127
1, 64179, Note_off_c, 1, 73, 0
1, 64223, Note_off_c, 1, 71, 0
1, 64298, Note_on_c, 1, 79, 127
1, 64303, Note_off_c, 1, 76, 0
1, 64315, Note_off_c, 1, 81, 0
1, 64316, Note_off_c, 1, 69, 0
1, 64320, Note_off_c, 1, 64, 0
1, 64335, Note_off_c, 1, 45, 0
1, 64374, Note_off_c, 1, 79, 0
1, 64420, Note_on_c, 1, 76, 127
1, 64424, Note_on_c, 1, 50, 127
1, 64427, Note_on_c, 1, 69, 127
1, 64473, Note_off_c, 1, 69, 0
1, 64475, Note_on_c, 1, 49, 127
1, 64481, Note_off_c, 1, 50, 0
1, 64482, Note_off_c, 1, 76, 0
1, 64534, Note_off_c, 1, 49, 0
1, 64539, Note_on_c, 1, 78, 127
1, 64540, Note_on_c, 1, 69, 127
1, 64540, Note_on_c, 1, 50, 127
1, 64593, Note_off_c, 1, 69, 0
1, 64599, Note_off_c, 1, 50, 0
1, 64641, Note_off_c, 1, 78, 0
1, 64663, Note_on_c, 1, 79, 127
1, 64663, Note_on_c, 1, 69, 127
1, 64666, Note_on_c, 1, 52, 127
1, 64713, Note_off_c, 1, 79, 0
1, 64713, Note_off_c, 1, 69, 0
1, 64716, Note_off_c, 1, 52, 0
1, 64784, Note_on_c, 1, 50, 127
1, 64785, Note_on_c, 1, 69, 127
1, 64788, Note_on_c, 1, 78, 127
1, 64789, Note_on_c, 1, 76, 127
1, 64806, Note_on_c, 1, 49, 127
1, 64821, Note_off_c, 1, 50, 0
1, 64844, Note_off_c, 1, 49, 0
1, 64848, Note_off_c, 1, 78, 0
1, 64886, Note_on_c, 1, 47, 127
1, 64908, Note_on_c, 1, 79, 127
1, 64935, Note_off_c, 1, 47, 0
1, 64954, Note_on_c, 1, 45, 127
1, 64961, Note_off_c, 1, 79, 0
1, 65006, Note_off_c, 1, 45, 0
1, 65026, Note_on_c, 1, 57, 127
1, 65040, Note_off_c, 1, 69, 0
1, 65076, Note_off_c, 1, 76, 0
1, 65100, Note_off_c, 1, 57, 0
1, 65135, Note_on_c, 1, 74, 127
1, 65191, Note_on_c, 1, 73, 127
1, 65202, Note_off_c, 1, 74, 0
1, 65242, Note_off_c, 1, 73, 0
1, 65253, Note_on_c, 1, 83, 127
1, 65257, Note_on_c, 1, 78, 127
1, 65261, Note_on_c, 1, 71, 127
1, 65266, Note_on_c, 1, 55, 127
1, 65270, Note_on_c, 1, 76, 127
1, 65281, Note_off_c, 1, 78, 0
1, 65302, Note_off_c, 1, 76, 0
1, 65315, Note_off_c, 1, 71, 0
1, 65344, Note_off_c, 1, 83, 0
1, 65347, Note_off_c, 1, 55, 0
1, 65360, Note_on_c, 1, 74, 127
1, 65379, Note_on_c, 1, 64, 127
1, 65419, Note_on_c, 1, 73, 127
1, 65422, Note_off_c, 1, 74, 0
1, 65438, Note_off_c, 1, 64, 0
1, 65464, Note_off_c, 1, 73, 0
1, 65494, Note_on_c, 1, 74, 127
1, 65496, Note_on_c, 1, 81, 127
1, 65500, Note_on_c, 1, 66, 127
1, 65583, Note_off_c, 1, 81, 0
1, 65604, Note_off_c, 1, 74, 0
1, 65610, Note_off_c, 1, 66, 0
1, 65622, Note_on_c, 1, 54, 127
1, 65664, Note_off_c, 1, 54, 0
1, 65674, Note_on_c, 1, 52, 127
1, 65719, Note_off_c, 1, 52, 0
1, 65736, Note_on_c, 1, 54, 127
1, 65790, Note_off_c, 1, 54, 0
1, 65857, Note_on_c, 1, 62, 127
1, 65865, Note_on_c, 1, 74, 127
1, 65865, Note_on_c, 1, 55, 127
1, 65867, Note_on_c, 1, 83, 127
1, 65919, Note_off_c, 1, 83, 0
1, 65921, Note_off_c, 1, 55, 0
1, 65923, Note_off_c, 1, 62, 0
1, 65924, Note_off_c, 1, 74, 0
1, 65976, Note_on_c, 1, 81, 127
1, 65979, Note_on_c, 1, 64, 127
1, 65980, Note_on_c, 1, 73, 127
1, 65988, Note_on_c, 1, 52, 127
1, 65999, Note_on_c, 1, 79, 127
1, 66006, Note_off_c, 1, 81, 0
1, 66035, Note_off_c, 1, 79, 0
1, 66038, Note_off_c, 1, 64, 0
1, 66043, Note_off_c, 1, 73, 0
1, 66057, Note_off_c, 1, 52, 0
1, 66087, Note_on_c, 1, 78, 127
1, 66094, Note_on_c, 1, 69, 127
1, 66095, Note_on_c, 1, 74, 127
1, 66102, Note_on_c, 1, 50, 127
1, 66122, Note_off_c, 1, 78, 0
1, 66139, Note_on_c, 1, 76, 127
1, 66144, Note_off_c, 1, 69, 0
1, 66146, Note_off_c, 1, 74, 0
1, 66148, Note_on_c, 1, 49, 127
1, 66151, Note_off_c, 1, 50, 0
1, 66187, Note_off_c, 1, 49, 0
1, 66189, Note_off_c, 1, 76, 0
1, 66210, Note_on_c, 1, 86, 127
1, 66216, Note_on_c, 1, 76, 127
1, 66217, Note_on_c, 1, 56, 127
1, 66219, Note_on_c, 1, 71, 127
1, 66302, Note_off_c, 1, 86, 0
1, 66315, Note_off_c, 1, 56, 0
1, 66328, Note_off_c, 1, 71, 0
1, 66455, Note_on_c, 1, 69, 127
1, 66458, Note_on_c, 1, 57, 127
1, 66459, Note_on_c, 1, 85, 127
1, 66511, Note_off_c, 1, 57, 0
1, 66519, Note_off_c, 1, 69, 0
1, 66530, Note_off_c, 1, 76, 0
1, 66553, Note_off_c, 1, 85, 0
1, 66574, Note_on_c, 1, 45, 127
1, 66574, Note_on_c, 1, 73, 127
1, 66574, Note_on_c, 1, 64, 127
1, 66583, Note_on_c, 1, 69, 127
1, 66585, Note_on_c, 1, 79, 127
1, 66591, Note_on_c, 1, 76, 127
1, 66635, Note_off_c, 1, 64, 0
1, 66636, Note_off_c, 1, 79, 0
1, 66637, Note_off_c, 1, 76, 0
1, 66638, Note_on_c, 1, 78, 127
1, 66639, Note_off_c, 1, 45, 0
1, 66639, Note_off_c, 1, 69, 0
1, 66646, Note_off_c, 1, 73, 0
1, 66691, Note_on_c, 1, 71, 127
1, 66695, Note_off_c, 1, 78, 0
1, 66698, Note_on_c, 1, 47, 127
1, 66699, Note_on_c, 1, 50, 127
1, 66699, Note_on_c, 1, 74, 127
1, 66705, Note_on_c, 1, 62, 127
1, 66747, Note_off_c, 1, 50, 0
1, 66758, Note_off_c, 1, 71, 0
1, 66762, Note_off_c, 1, 47, 0
1, 66765, Note_off_c, 1, 62, 0
1, 66767, Note_off_c, 1, 74, 0
1, 66816, Note_on_c, 1, 69, 127
1, 66817, Note_on_c, 1, 76, 127
1, 66819, Note_on_c, 1, 49, 127
1, 66823, Note_on_c, 1, 45, 127
1, 66825, Note_on_c, 1, 81, 127
1, 66868, Note_off_c, 1, 45, 0
1, 66870, Note_off_c, 1, 49, 0
1, 66876, Note_off_c, 1, 69, 0
1, 66880, Note_off_c, 1, 81, 0
1, 66889, Note_off_c, 1, 76, 0
1, 66938, Note_on_c, 1, 74, 127
1, 66943, Note_on_c, 1, 69, 127
1, 66943, Note_on_c, 1, 50, 127
1, 66955, Note_on_c, 1, 79, 127
1, 66998, Note_off_c, 1, 74, 0
1, 67008, Note_off_c, 1, 50, 0
1, 67009, Note_on_c, 1, 78, 127
1, 67033, Note_off_c, 1, 79, 0
1, 67048, Note_off_c, 1, 69, 0
1, 67068, Note_on_c, 1, 76, 127
1, 67068, Note_on_c, 1, 54, 127
1, 67078, Note_off_c, 1, 78, 0
1, 67124, Note_off_c, 1, 54, 0
1, 67129, Note_off_c, 1, 76, 0
1, 67181, Note_on_c, 1, 74, 127
1, 67183, Note_on_c, 1, 67, 127
1, 67183, Note_on_c, 1, 71, 127
1, 67184, Note_on_c, 1, 55, 127
1, 67188, Note_on_c, 1, 78, 127
1, 67240, Note_off_c, 1, 74, 0
1, 67245, Note_on_c, 1, 76, 127
1, 67251, Note_off_c, 1, 55, 0
1, 67270, Note_off_c, 1, 78, 0
1, 67275, Note_off_c, 1, 67, 0
1, 67284, Note_off_c, 1, 71, 0
1, 67299, Note_on_c, 1, 69, 127
1, 67302, Note_on_c, 1, 66, 127
1, 67303, Note_off_c, 1, 76, 0
1, 67308, Note_on_c, 1, 57, 127
1, 67309, Note_on_c, 1, 45, 127
1, 67343, Note_off_c, 1, 66, 0
1, 67351, Note_on_c, 1, 64, 127
1, 67354, Note_off_c, 1, 69, 0
1, 67355, Note_off_c, 1, 45, 0
1, 67358, Note_on_c, 1, 73, 127
1, 67373, Note_off_c, 1, 57, 0
1, 67398, Note_off_c, 1, 64, 0
1, 67398, Note_off_c, 1, 73, 0
1, 67417, Note_on_c, 1, 62, 127
1, 67426, Note_on_c, 1, 50, 127
1, 67426, Note_on_c, 1, 59, 127
1, 67474, Note_off_c, 1, 50, 0
1, 67484, Note_off_c, 1, 62, 0
1, 67487, Note_off_c, 1, 59, 0
1, 67535, Note_on_c, 1, 79, 127
1, 67543, Note_on_c, 1, 55, 127
1, 67544, Note_on_c, 1, 67, 127
1, 67545, Note_on_c, 1, 71, 127
1, 67548, Note_on_c, 1, 76, 127
1, 67550, Note_on_c, 1, 62, 127
1, 67550, Note_on_c, 1, 50, 127
1, 67587, Note_off_c, 1, 79, 0
1, 67589, Note_off_c, 1, 71, 0
1, 67595, Note_off_c, 1, 50, 0
1, 67600, Note_off_c, 1, 55, 0
1, 67600, Note_off_c, 1, 67, 0
1, 67600, Note_off_c, 1, 76, 0
1, 67610, Note_off_c, 1, 62, 0
1, 67664, Note_on_c, 1, 69, 127
1, 67664, Note_on_c, 1, 76, 127
1, 67665, Note_on_c, 1, 61, 127
1, 67671, Note_on_c, 1, 79, 127
1, 67671, Note_on_c, 1, 64, 127
1, 67675, Note_on_c, 1, 45, 127
1, 67696, Note_on_c, 1, 67, 127
1, 67709, Note_off_c, 1, 45, 0
1, 67728, Note_off_c, 1, 61, 0
1, 67733, Note_off_c, 1, 67, 0
1, 67736, Note_off_c, 1, 64, 0
1, 67754, Note_off_c, 1, 79, 0
1, 67756, Note_off_c, 1, 76, 0
1, 67786, Note_on_c, 1, 81, 127
1, 67787, Note_on_c, 1, 74, 127
1, 67789, Note_on_c, 1, 66, 127
1, 67791, Note_on_c, 1, 57, 127
1, 67818, Note_off_c, 1, 81, 0
1, 67831, Note_on_c, 1, 73, 127
1, 67840, Note_off_c, 1, 74, 0
1, 67843, Note_off_c, 1, 66, 0
1, 67849, Note_off_c, 1, 57, 0
1, 67879, Note_off_c, 1, 73, 0
1, 67903, Note_on_c, 1, 50, 127
1, 67909, Note_on_c, 1, 78, 127
1, 67912, Note_on_c, 1, 62, 127
1, 67944, Note_off_c, 1, 50, 0
1, 67959, Note_off_c, 1, 78, 0
1, 67970, Note_off_c, 1, 69, 0
1, 67976, Note_off_c, 1, 62, 0
1, 68028, Note_on_c, 1, 54, 127
1, 68071, Note_on_c, 1, 71, 127
1, 68095, Note_off_c, 1, 54, 0
1, 68129, Note_off_c, 1, 71, 0
1, 68147, Note_on_c, 1, 52, 127
1, 68209, Note_off_c, 1, 52, 0
1, 68378, Note_on_c, 1, 59, 127
1, 68440, Note_off_c, 1, 59, 0
1, 68476, Note_on_c, 1, 83, 127
1, 68534, Note_off_c, 1, 83, 0
1, 68603, Note_on_c, 1, 62, 127
1, 68603, Note_on_c, 1, 74, 127
1, 68610, Note_on_c, 1, 81, 127
1, 68614, Note_on_c, 1, 54, 127
1, 68672, Note_off_c, 1, 62, 0
1, 68677, Note_off_c, 1, 74, 0
1, 68681, Note_off_c, 1, 54, 0
1, 68693, Note_off_c, 1, 81, 0
1, 68726, Note_on_c, 1, 64, 127
1, 68726, Note_on_c, 1, 71, 127
1, 68730, Note_on_c, 1, 67, 127
1, 68734, Note_on_c, 1, 55, 127
1, 68738, Note_on_c, 1, 74, 127
1, 68740, Note_on_c, 1, 83, 127
1, 68741, Note_on_c, 1, 50, 127
1, 68746, Note_on_c, 1, 62, 127
1, 68775, Note_off_c, 1, 83, 0
1, 68782, Note_off_c, 1, 71, 0
1, 68785, Note_off_c, 1, 64, 0
1, 68785, Note_off_c, 1, 67, 0
1, 68785, Note_off_c, 1, 74, 0
1, 68788, Note_off_c, 1, 50, 0
1, 68791, Note_off_c, 1, 55, 0
1, 68796, Note_on_c, 1, 81, 127
1, 68806, Note_off_c, 1, 62, 0
1, 68831, Note_off_c, 1, 81, 0
1, 68849, Note_on_c, 1, 69, 127
1, 68852, Note_on_c, 1, 57, 127
1, 68853, Note_on_c, 1, 66, 127
1, 68860, Note_on_c, 1, 79, 127
1, 68864, Note_on_c, 1, 74, 127
1, 68864, Note_on_c, 1, 45, 127
1, 68905, Note_off_c, 1, 79, 0
1, 68905, Note_off_c, 1, 45, 0
1, 68910, Note_off_c, 1, 74, 0
1, 68912, Note_off_c, 1, 57, 0
1, 68914, Note_on_c, 1, 78, 127
1, 68916, Note_off_c, 1, 66, 0
1, 68923, Note_off_c, 1, 69, 0
1, 68947, Note_off_c, 1, 78, 0
1, 68976, Note_on_c, 1, 76, 127
1, 68978, Note_on_c, 1, 69, 127
1, 68979, Note_on_c, 1, 45, 127
1, 68981, Note_on_c, 1, 64, 127
1, 68985, Note_on_c, 1, 67, 127
1, 68992, Note_on_c, 1, 73, 127
1, 69013, Note_off_c, 1, 76, 0
1, 69032, Note_on_c, 1, 78, 127
1, 69035, Note_off_c, 1, 64, 0
1, 69036, Note_off_c, 1, 45, 0
1, 69036, Note_off_c, 1, 67, 0
1, 69045, Note_off_c, 1, 69, 0
1, 69047, Note_off_c, 1, 73, 0
1, 69066, Note_off_c, 1, 78, 0
1, 69109, Note_on_c, 1, 69, 127
1, 69111, Note_on_c, 1, 66, 127
1, 69114, Note_on_c, 1, 50, 127
1, 69116, Note_on_c, 1, 74, 127
1, 69120, Note_on_c, 1, 38, 127
1, 69374, Note_off_c, 1, 50, 0
1, 69379, Note_off_c, 1, 69, 0
1, 69387, Note_off_c, 1, 74, 0
1, 69392, Note_off_c, 1, 66, 0
1, 69394, Note_off_c, 1, 38, 0
1, 69394, End_track
0, 0, End_of_file