0, 0, Header, 1, 1, 480
1, 0, Start_track
1, 0, Title_t, "Test"
1, 0, Tempo, 500000
1, 0, Instrument_name_t, "Church Organ"
1, 461, Note_on_c, 1, 74, 127
1, 462, Note_on_c, 1, 59, 127
1, 469, Note_on_c, 1, 71, 127
1, 476, Note_on_c, 1, 66, 127
1, 700, Note_on_c, 1, 73, 127
1, 705, Note_on_c, 1, 70, 127
1, 717, Note_on_c, 1, 64, 127
1, 722, Note_off_c, 1, 74, 0
1, 722, Note_off_c, 1, 71, 0
1, 734, Note_off_c, 1, 66, 0
1, 819, Note_off_c, 1, 70, 0
1, 833, Note_off_c, 1, 73, 0
1, 833, Note_on_c, 1, 62, 127
1, 834, Note_off_c, 1, 64, 0
1, 924, Note_off_c, 1, 62, 0
1, 948, Note_on_c, 1, 61, 127
1, 1191, Note_off_c, 1, 59, 0
1, 1199, Note_on_c, 1, 58, 127
1, 1255, Note_off_c, 1, 61, 0
1, 1326, Note_off_c, 1, 58, 0
1, 1421, Note_on_c, 1, 76, 127
1, 1692, Note_off_c, 1, 76, 0
1, 2381, Note_on_c, 1, 78, 127
1, 2506, Note_off_c, 1, 78, 0
1, 2742, Note_on_c, 1, 79, 127
1, 2840, Note_off_c, 1, 79, 0
1, 2857, Note_on_c, 1, 59, 127
1, 2862, Note_on_c, 1, 78, 127
1, 2869, Note_on_c, 1, 74, 127
1, 2873, Note_on_c, 1, 54, 127
1, 2975, Note_on_c, 1, 73, 127
1, 2979, Note_on_c, 1, 76, 127
1, 2995, Note_off_c, 1, 74, 0
1, 3010, Note_off_c, 1, 78, 0
1, 3093, Note_off_c, 1, 76, 0
1, 3099, Note_off_c, 1, 73, 0
1, 3099, Note_on_c, 1, 71, 127
1, 3162, Note_off_c, 1, 59, 0
1, 3190, Note_off_c, 1, 54, 0
1, 3209, Note_off_c, 1, 71, 0
1, 3337, Note_on_c, 1, 61, 127
1, 3342, Note_on_c, 1, 70, 127
1, 3443, Note_off_c, 1, 70, 0
1, 3486, Note_off_c, 1, 61, 0
1, 3580, Note_on_c, 1, 58, 127
1, 3589, Note_on_c, 1, 66, 127
1, 3674, Note_off_c, 1, 66, 0
1, 3695, Note_off_c, 1, 58, 0
1, 4297, Note_on_c, 1, 59, 127
1, 4298, Note_on_c, 1, 66, 127
1, 4301, Note_on_c, 1, 74, 127
1, 4308, Note_on_c, 1, 71, 127
1, 4538, Note_on_c, 1, 73, 127
1, 4538, Note_on_c, 1, 70, 127
1, 4544, Note_off_c, 1, 71, 0
1, 4545, Note_on_c, 1, 64, 127
1, 4548, Note_off_c, 1, 74, 0
1, 4572, Note_off_c, 1, 66, 0
1, 4647, Note_off_c, 1, 64, 0
1, 4647, Note_on_c, 1, 62, 127
1, 4657, Note_off_c, 1, 70, 0
1, 4663, Note_off_c, 1, 73, 0
1, 4756, Note_off_c, 1, 62, 0
1, 4777, Note_on_c, 1, 61, 127
1, 5024, Note_off_c, 1, 59, 0
1, 5039, Note_on_c, 1, 58, 127
1, 5093, Note_off_c, 1, 61, 0
1, 5161, Note_off_c, 1, 58, 0
1, 5251, Note_on_c, 1, 76, 127
1, 5514, Note_off_c, 1, 76, 0
1, 6220, Note_on_c, 1, 78, 127
1, 6347, Note_off_c, 1, 78, 0
1, 6461, Note_on_c, 1, 73, 127
1, 6464, Note_on_c, 1, 78, 127
1, 6465, Note_on_c, 1, 64, 127
1, 6473, Note_on_c, 1, 58, 127
1, 6564, Note_off_c, 1, 73, 0
1, 6572, Note_on_c, 1, 79, 127
1, 6578, Note_off_c, 1, 64, 0
1, 6588, Note_off_c, 1, 78, 0
1, 6593, Note_off_c, 1, 58, 0
1, 6673, Note_off_c, 1, 79, 0
1, 6700, Note_on_c, 1, 78, 127
1, 6703, Note_on_c, 1, 62, 127
1, 6713, Note_on_c, 1, 74, 127
1, 6718, Note_on_c, 1, 59, 127
1, 6802, Note_off_c, 1, 74, 0
1, 6809, Note_on_c, 1, 61, 127
1, 6820, Note_off_c, 1, 62, 0
1, 6827, Note_off_c, 1, 78, 0
1, 6830, Note_off_c, 1, 59, 0
1, 6920, Note_off_c, 1, 61, 0
1, 6929, Note_on_c, 1, 62, 127
1, 6944, Note_on_c, 1, 71, 127
1, 6970, Note_on_c, 1, 55, 127
1, 7031, Note_off_c, 1, 62, 0
1, 7039, Note_on_c, 1, 59, 127
1, 7047, Note_off_c, 1, 71, 0
1, 7077, Note_off_c, 1, 55, 0
1, 7151, Note_off_c, 1, 59, 0
1, 7180, Note_on_c, 1, 64, 127
1, 7185, Note_on_c, 1, 67, 127
1, 7190, Note_on_c, 1, 73, 127
1, 7199, Note_on_c, 1, 52, 127
1, 7275, Note_off_c, 1, 67, 0
1, 7286, Note_off_c, 1, 73, 0
1, 7295, Note_off_c, 1, 64, 0
1, 7307, Note_off_c, 1, 52, 0
1, 7424, Note_on_c, 1, 70, 127
1, 7429, Note_on_c, 1, 66, 127
1, 7433, Note_on_c, 1, 61, 127
1, 7438, Note_on_c, 1, 54, 127
1, 7524, Note_off_c, 1, 70, 0
1, 7527, Note_off_c, 1, 66, 0
1, 7535, Note_off_c, 1, 54, 0
1, 7536, Note_off_c, 1, 61, 0
1, 7665, Note_on_c, 1, 66, 127
1, 7665, Note_on_c, 1, 71, 127
1, 7680, Note_on_c, 1, 62, 127
1, 7689, Note_on_c, 1, 47, 127
1, 7948, Note_off_c, 1, 66, 0
1, 7962, Note_off_c, 1, 62, 0
1, 7974, Note_off_c, 1, 71, 0
1, 7977, Note_off_c, 1, 47, 0
1, 8134, Note_on_c, 1, 74, 127
1, 8146, Note_on_c, 1, 71, 127
1, 8154, Note_on_c, 1, 66, 127
1, 8160, Note_on_c, 1, 59, 127
1, 8382, Note_on_c, 1, 70, 127
1, 8386, Note_off_c, 1, 71, 0
1, 8395, Note_on_c, 1, 73, 127
1, 8396, Note_on_c, 1, 64, 127
1, 8403, Note_off_c, 1, 74, 0
1, 8429, Note_off_c, 1, 66, 0
1, 8489, Note_off_c, 1, 70, 0
1, 8504, Note_off_c, 1, 64, 0
1, 8512, Note_on_c, 1, 62, 127
1, 8520, Note_off_c, 1, 73, 0
1, 8627, Note_off_c, 1, 62, 0
1, 8640, Note_on_c, 1, 61, 127
1, 8856, Note_off_c, 1, 59, 0
1, 8867, Note_on_c, 1, 58, 127
1, 8911, Note_off_c, 1, 61, 0
1, 8983, Note_off_c, 1, 58, 0
1, 9092, Note_on_c, 1, 70, 127
1, 9097, Note_on_c, 1, 76, 127
1, 9106, Note_on_c, 1, 61, 127
1, 9325, Note_on_c, 1, 71, 127
1, 9330, Note_on_c, 1, 74, 127
1, 9341, Note_off_c, 1, 70, 0
1, 9347, Note_on_c, 1, 62, 127
1, 9371, Note_off_c, 1, 76, 0
1, 9439, Note_on_c, 1, 73, 127
1, 9453, Note_off_c, 1, 71, 0
1, 9462, Note_on_c, 1, 64, 127
1, 9469, Note_off_c, 1, 74, 0
1, 9470, Note_off_c, 1, 62, 0
1, 9574, Note_off_c, 1, 64, 0
1, 9580, Note_off_c, 1, 73, 0
1, 9584, Note_on_c, 1, 66, 127
1, 9781, Note_off_c, 1, 61, 0
1, 9824, Note_on_c, 1, 59, 127
1, 9927, Note_off_c, 1, 66, 0
1, 9943, Note_off_c, 1, 59, 0
1, 10060, Note_on_c, 1, 62, 127
1, 10063, Note_on_c, 1, 78, 127
1, 10082, Note_on_c, 1, 74, 127
1, 10086, Note_on_c, 1, 71, 127
1, 10182, Note_on_c, 1, 76, 127
1, 10188, Note_on_c, 1, 73, 127
1, 10190, Note_off_c, 1, 62, 0
1, 10192, Note_off_c, 1, 78, 0
1, 10197, Note_off_c, 1, 71, 0
1, 10207, Note_off_c, 1, 74, 0
1, 10282, Note_off_c, 1, 76, 0
1, 10298, Note_off_c, 1, 73, 0
1, 10319, Note_on_c, 1, 66, 127
1, 10320, Note_on_c, 1, 59, 127
1, 10415, Note_on_c, 1, 79, 127
1, 10425, Note_off_c, 1, 66, 0
1, 10434, Note_off_c, 1, 59, 0
1, 10532, Note_off_c, 1, 79, 0
1, 10543, Note_on_c, 1, 74, 127
1, 10545, Note_on_c, 1, 78, 127
1, 10555, Note_on_c, 1, 59, 127
1, 10557, Note_on_c, 1, 54, 127
1, 10648, Note_on_c, 1, 73, 127
1, 10663, Note_off_c, 1, 74, 0
1, 10663, Note_on_c, 1, 76, 127
1, 10679, Note_off_c, 1, 78, 0
1, 10765, Note_on_c, 1, 71, 127
1, 10768, Note_off_c, 1, 73, 0
1, 10771, Note_off_c, 1, 76, 0
1, 10876, Note_off_c, 1, 71, 0
1, 10877, Note_off_c, 1, 54, 0
1, 10880, Note_off_c, 1, 59, 0
1, 11026, Note_on_c, 1, 61, 127
1, 11027, Note_on_c, 1, 70, 127
1, 11130, Note_off_c, 1, 70, 0
1, 11148, Note_off_c, 1, 61, 0
1, 11267, Note_on_c, 1, 58, 127
1, 11276, Note_on_c, 1, 66, 127
1, 11360, Note_off_c, 1, 58, 0
1, 11374, Note_off_c, 1, 66, 0
1, 11981, Note_on_c, 1, 71, 127
1, 11983, Note_on_c, 1, 74, 127
1, 11987, Note_on_c, 1, 66, 127
1, 11994, Note_on_c, 1, 59, 127
1, 12226, Note_on_c, 1, 64, 127
1, 12227, Note_off_c, 1, 71, 0
1, 12227, Note_on_c, 1, 70, 127
1, 12243, Note_off_c, 1, 74, 0
1, 12243, Note_on_c, 1, 73, 127
1, 12258, Note_off_c, 1, 66, 0
1, 12336, Note_off_c, 1, 70, 0
1, 12337, Note_on_c, 1, 62, 127
1, 12343, Note_off_c, 1, 64, 0
1, 12355, Note_off_c, 1, 73, 0
1, 12446, Note_off_c, 1, 62, 0
1, 12462, Note_on_c, 1, 61, 127
1, 12672, Note_off_c, 1, 59, 0
1, 12713, Note_on_c, 1, 58, 127
1, 12758, Note_off_c, 1, 61, 0
1, 12838, Note_off_c, 1, 58, 0
1, 12936, Note_on_c, 1, 76, 127
1, 13204, Note_off_c, 1, 76, 0
1, 13900, Note_on_c, 1, 62, 127
1, 13901, Note_on_c, 1, 78, 127
1, 13905, Note_on_c, 1, 66, 127
1, 13907, Note_on_c, 1, 71, 127
1, 13985, Note_off_c, 1, 71, 0
1, 14018, Note_on_c, 1, 76, 127
1, 14023, Note_off_c, 1, 62, 0
1, 14031, Note_off_c, 1, 78, 0
1, 14038, Note_off_c, 1, 66, 0
1, 14118, Note_off_c, 1, 76, 0
1, 14140, Note_on_c, 1, 73, 127
1, 14140, Note_on_c, 1, 64, 127
1, 14142, Note_on_c, 1, 78, 127
1, 14147, Note_on_c, 1, 58, 127
1, 14229, Note_off_c, 1, 73, 0
1, 14251, Note_on_c, 1, 79, 127
1, 14262, Note_off_c, 1, 64, 0
1, 14264, Note_off_c, 1, 58, 0
1, 14270, Note_off_c, 1, 78, 0
1, 14362, Note_off_c, 1, 79, 0
1, 14384, Note_on_c, 1, 78, 127
1, 14389, Note_on_c, 1, 74, 127
1, 14390, Note_on_c, 1, 62, 127
1, 14395, Note_on_c, 1, 59, 127
1, 14475, Note_off_c, 1, 74, 0
1, 14493, Note_on_c, 1, 61, 127
1, 14495, Note_off_c, 1, 59, 0
1, 14499, Note_off_c, 1, 62, 0
1, 14509, Note_off_c, 1, 78, 0
1, 14602, Note_off_c, 1, 61, 0
1, 14614, Note_on_c, 1, 62, 127
1, 14623, Note_on_c, 1, 71, 127
1, 14638, Note_on_c, 1, 55, 127
1, 14713, Note_off_c, 1, 62, 0
1, 14726, Note_on_c, 1, 59, 127
1, 14730, Note_off_c, 1, 71, 0
1, 14738, Note_off_c, 1, 55, 0
1, 14846, Note_off_c, 1, 59, 0
1, 14859, Note_on_c, 1, 64, 127
1, 14864, Note_on_c, 1, 67, 127
1, 14871, Note_on_c, 1, 73, 127
1, 14875, Note_on_c, 1, 52, 127
1, 14951, Note_off_c, 1, 67, 0
1, 14973, Note_off_c, 1, 73, 0
1, 14975, Note_off_c, 1, 52, 0
1, 14987, Note_off_c, 1, 64, 0
1, 15103, Note_on_c, 1, 66, 127
1, 15111, Note_on_c, 1, 70, 127
1, 15116, Note_on_c, 1, 54, 127
1, 15120, Note_on_c, 1, 61, 127
1, 15216, Note_off_c, 1, 54, 0
1, 15221, Note_off_c, 1, 66, 0
1, 15225, Note_off_c, 1, 70, 0
1, 15225, Note_off_c, 1, 61, 0
1, 15346, Note_on_c, 1, 66, 127
1, 15358, Note_on_c, 1, 71, 127
1, 15363, Note_on_c, 1, 62, 127
1, 15371, Note_on_c, 1, 47, 127
1, 15632, Note_off_c, 1, 71, 0
1, 15634, Note_off_c, 1, 66, 0
1, 15640, Note_off_c, 1, 62, 0
1, 15729, Note_off_c, 1, 47, 0
1, 15828, Note_on_c, 1, 71, 127
1, 15832, Note_on_c, 1, 75, 127
1, 15844, Note_on_c, 1, 78, 127
1, 15915, Note_off_c, 1, 71, 0
1, 15945, Note_on_c, 1, 76, 127
1, 15949, Note_on_c, 1, 79, 127
1, 15968, Note_off_c, 1, 78, 0
1, 15989, Note_off_c, 1, 75, 0
1, 16094, Note_off_c, 1, 79, 0
1, 16102, Note_off_c, 1, 76, 0
1, 16190, Note_on_c, 1, 73, 127
1, 16311, Note_off_c, 1, 73, 0
1, 16544, Note_on_c, 1, 76, 127
1, 16552, Note_on_c, 1, 79, 127
1, 16558, Note_on_c, 1, 71, 127
1, 16646, Note_off_c, 1, 79, 0
1, 16649, Note_off_c, 1, 71, 0
1, 16650, Note_off_c, 1, 76, 0
1, 16780, Note_on_c, 1, 81, 127
1, 16784, Note_on_c, 1, 78, 127
1, 16788, Note_on_c, 1, 71, 127
1, 16882, Note_off_c, 1, 81, 0
1, 16886, Note_off_c, 1, 71, 0
1, 16902, Note_off_c, 1, 78, 0
1, 17028, Note_on_c, 1, 76, 127
1, 17030, Note_on_c, 1, 79, 127
1, 17036, Note_on_c, 1, 71, 127
1, 17133, Note_off_c, 1, 79, 0
1, 17136, Note_off_c, 1, 76, 0
1, 17139, Note_off_c, 1, 71, 0
1, 17265, Note_on_c, 1, 78, 127
1, 17269, Note_on_c, 1, 75, 127
1, 17273, Note_on_c, 1, 71, 127
1, 17369, Note_off_c, 1, 75, 0
1, 17374, Note_off_c, 1, 78, 0
1, 17385, Note_on_c, 1, 69, 127
1, 17402, Note_off_c, 1, 71, 0
1, 17491, Note_off_c, 1, 69, 0
1, 17498, Note_on_c, 1, 67, 127
1, 17505, Note_on_c, 1, 76, 127
1, 17506, Note_on_c, 1, 83, 127
1, 17612, Note_on_c, 1, 69, 127
1, 17621, Note_off_c, 1, 67, 0
1, 17621, Note_off_c, 1, 76, 0
1, 17621, Note_off_c, 1, 83, 0
1, 17707, Note_off_c, 1, 69, 0
1, 17739, Note_on_c, 1, 71, 127
1, 17754, Note_on_c, 1, 78, 127
1, 17759, Note_on_c, 1, 75, 127
1, 17844, Note_off_c, 1, 71, 0
1, 17868, Note_on_c, 1, 79, 127
1, 17873, Note_on_c, 1, 76, 127
1, 17897, Note_off_c, 1, 78, 0
1, 17898, Note_off_c, 1, 75, 0
1, 18003, Note_off_c, 1, 79, 0
1, 18006, Note_off_c, 1, 76, 0
1, 18109, Note_on_c, 1, 73, 127
1, 18223, Note_off_c, 1, 73, 0
1, 18462, Note_on_c, 1, 79, 127
1, 18468, Note_on_c, 1, 76, 127
1, 18480, Note_on_c, 1, 71, 127
1, 18572, Note_off_c, 1, 79, 0
1, 18576, Note_off_c, 1, 76, 0
1, 18586, Note_off_c, 1, 71, 0
1, 18706, Note_on_c, 1, 81, 127
1, 18706, Note_on_c, 1, 78, 127
1, 18715, Note_on_c, 1, 71, 127
1, 18805, Note_off_c, 1, 81, 0
1, 18811, Note_off_c, 1, 71, 0
1, 18820, Note_off_c, 1, 78, 0
1, 18943, Note_on_c, 1, 76, 127
1, 18944, Note_on_c, 1, 71, 127
1, 18949, Note_on_c, 1, 79, 127
1, 19045, Note_off_c, 1, 76, 0
1, 19048, Note_off_c, 1, 79, 0
1, 19049, Note_off_c, 1, 71, 0
1, 19184, Note_on_c, 1, 76, 127
1, 19188, Note_on_c, 1, 79, 127
1, 19196, Note_on_c, 1, 71, 127
1, 19311, Note_on_c, 1, 69, 127
1, 19343, Note_off_c, 1, 71, 0
1, 19404, Note_on_c, 1, 75, 127
1, 19411, Note_on_c, 1, 78, 127
1, 19412, Note_off_c, 1, 76, 0
1, 19432, Note_off_c, 1, 69, 0
1, 19432, Note_on_c, 1, 67, 127
1, 19437, Note_off_c, 1, 79, 0
1, 19544, Note_off_c, 1, 78, 0
1, 19550, Note_on_c, 1, 66, 127
1, 19552, Note_off_c, 1, 75, 0
1, 19557, Note_off_c, 1, 67, 0
1, 19641, Note_off_c, 1, 66, 0
1, 19664, Note_on_c, 1, 79, 127
1, 19679, Note_on_c, 1, 83, 127
1, 19679, Note_on_c, 1, 64, 127
1, 19688, Note_on_c, 1, 52, 127
1, 19907, Note_on_c, 1, 81, 127
1, 19912, Note_on_c, 1, 78, 127
1, 19918, Note_on_c, 1, 63, 127
1, 19925, Note_off_c, 1, 79, 0
1, 19939, Note_off_c, 1, 83, 0
1, 19942, Note_off_c, 1, 64, 0
1, 20019, Note_off_c, 1, 78, 0
1, 20029, Note_off_c, 1, 81, 0
1, 20053, Note_off_c, 1, 63, 0
1, 20153, Note_on_c, 1, 66, 127
1, 20157, Note_on_c, 1, 72, 127
1, 20382, Note_off_c, 1, 52, 0
1, 20395, Note_on_c, 1, 51, 127
1, 20455, Note_off_c, 1, 66, 0
1, 20472, Note_off_c, 1, 72, 0
1, 20488, Note_off_c, 1, 51, 0
1, 20604, Note_on_c, 1, 54, 127
1, 20873, Note_on_c, 1, 71, 127
1, 20985, Note_off_c, 1, 71, 0
1, 20987, Note_on_c, 1, 69, 127
1, 21096, Note_on_c, 1, 67, 127
1, 21104, Note_off_c, 1, 69, 0
1, 21280, Note_off_c, 1, 54, 0
1, 21448, Note_off_c, 1, 67, 0
1, 21587, Note_on_c, 1, 71, 127
1, 21589, Note_on_c, 1, 52, 127
1, 21591, Note_on_c, 1, 64, 127
1, 21605, Note_on_c, 1, 79, 127
1, 21692, Note_off_c, 1, 52, 0
1, 21696, Note_on_c, 1, 69, 127
1, 21702, Note_off_c, 1, 64, 0
1, 21713, Note_on_c, 1, 78, 127
1, 21723, Note_off_c, 1, 71, 0
1, 21744, Note_off_c, 1, 79, 0
1, 21814, Note_off_c, 1, 69, 0
1, 21835, Note_on_c, 1, 47, 127
1, 21836, Note_on_c, 1, 63, 127
1, 21846, Note_off_c, 1, 78, 0
1, 21928, Note_on_c, 1, 72, 127
1, 21941, Note_off_c, 1, 47, 0
1, 21949, Note_on_c, 1, 81, 127
1, 21955, Note_off_c, 1, 63, 0
1, 22031, Note_off_c, 1, 72, 0
1, 22067, Note_off_c, 1, 81, 0
1, 22079, Note_on_c, 1, 48, 127
1, 22191, Note_off_c, 1, 48, 0
1, 22294, Note_on_c, 1, 67, 127
1, 22296, Note_on_c, 1, 76, 127
1, 22323, Note_on_c, 1, 60, 127
1, 22421, Note_off_c, 1, 67, 0
1, 22421, Note_off_c, 1, 60, 0
1, 22441, Note_off_c, 1, 76, 0
1, 22546, Note_on_c, 1, 57, 127
1, 22641, Note_off_c, 1, 57, 0
1, 22766, Note_on_c, 1, 75, 127
1, 22770, Note_on_c, 1, 66, 127
1, 22779, Note_on_c, 1, 59, 127
1, 22872, Note_off_c, 1, 66, 0
1, 22885, Note_off_c, 1, 59, 0
1, 22896, Note_off_c, 1, 75, 0
1, 23005, Note_on_c, 1, 67, 127
1, 23018, Note_on_c, 1, 52, 127
1, 23020, Note_on_c, 1, 76, 127
1, 23024, Note_on_c, 1, 71, 127
1, 23124, Note_off_c, 1, 52, 0
1, 23138, Note_on_c, 1, 69, 127
1, 23167, Note_off_c, 1, 71, 0
1, 23260, Note_on_c, 1, 40, 127
1, 23279, Note_off_c, 1, 69, 0
1, 23362, Note_off_c, 1, 40, 0
1, 23376, Note_off_c, 1, 76, 0
1, 23385, Note_on_c, 1, 66, 127
1, 23397, Note_off_c, 1, 67, 0
1, 23482, Note_off_c, 1, 66, 0
1, 23485, Note_on_c, 1, 79, 127
1, 23493, Note_on_c, 1, 52, 127
1, 23496, Note_on_c, 1, 71, 127
1, 23512, Note_on_c, 1, 64, 127
1, 23623, Note_off_c, 1, 52, 0
1, 23623, Note_on_c, 1, 62, 127
1, 23642, Note_off_c, 1, 64, 0
1, 23740, Note_on_c, 1, 49, 127
1, 23742, Note_off_c, 1, 62, 0
1, 23746, Note_on_c, 1, 69, 127
1, 23770, Note_off_c, 1, 71, 0
1, 23859, Note_on_c, 1, 66, 127
1, 23865, Note_off_c, 1, 49, 0
1, 23865, Note_off_c, 1, 69, 0
1, 23959, Note_off_c, 1, 66, 0
1, 23994, Note_on_c, 1, 45, 127
1, 24007, Note_on_c, 1, 61, 127
1, 24330, Note_off_c, 1, 61, 0
1, 24333, Note_off_c, 1, 45, 0
1, 24442, Note_off_c, 1, 79, 0
1, 24453, Note_on_c, 1, 78, 127
1, 24458, Note_on_c, 1, 50, 127
1, 24464, Note_on_c, 1, 69, 127
1, 24469, Note_on_c, 1, 62, 127
1, 24575, Note_on_c, 1, 61, 127
1, 24583, Note_off_c, 1, 50, 0
1, 24604, Note_off_c, 1, 62, 0
1, 24700, Note_on_c, 1, 67, 127
1, 24707, Note_off_c, 1, 61, 0
1, 24707, Note_on_c, 1, 47, 127
1, 24731, Note_off_c, 1, 69, 0
1, 24809, Note_off_c, 1, 67, 0
1, 24809, Note_on_c, 1, 64, 127
1, 24821, Note_off_c, 1, 47, 0
1, 24911, Note_off_c, 1, 64, 0
1, 24955, Note_on_c, 1, 43, 127
1, 24958, Note_on_c, 1, 59, 127
1, 25280, Note_off_c, 1, 43, 0
1, 25282, Note_off_c, 1, 59, 0
1, 25285, Note_on_c, 1, 58, 127
1, 25384, Note_off_c, 1, 58, 0
1, 25391, Note_off_c, 1, 78, 0
1, 25421, Note_on_c, 1, 76, 127
1, 25421, Note_on_c, 1, 55, 127
1, 25426, Note_on_c, 1, 59, 127
1, 25435, Note_on_c, 1, 64, 127
1, 25529, Note_off_c, 1, 59, 0
1, 25544, Note_on_c, 1, 66, 127
1, 25552, Note_off_c, 1, 55, 0
1, 25560, Note_off_c, 1, 64, 0
1, 25660, Note_on_c, 1, 67, 127
1, 25662, Note_on_c, 1, 52, 127
1, 25675, Note_off_c, 1, 66, 0
1, 25750, Note_off_c, 1, 67, 0
1, 25774, Note_off_c, 1, 52, 0
1, 25896, Note_on_c, 1, 49, 127
1, 25910, Note_on_c, 1, 70, 127
1, 26000, Note_off_c, 1, 70, 0
1, 26002, Note_on_c, 1, 74, 127
1, 26023, Note_off_c, 1, 49, 0
1, 26061, Note_off_c, 1, 76, 0
1, 26143, Note_on_c, 1, 58, 127
1, 26149, Note_on_c, 1, 73, 127
1, 26154, Note_off_c, 1, 74, 0
1, 26227, Note_on_c, 1, 78, 127
1, 26236, Note_off_c, 1, 73, 0
1, 26259, Note_off_c, 1, 58, 0
1, 26379, Note_on_c, 1, 71, 127
1, 26393, Note_off_c, 1, 78, 0
1, 26498, Note_off_c, 1, 71, 0
1, 26608, Note_on_c, 1, 68, 127
1, 26623, Note_on_c, 1, 62, 127
1, 26628, Note_on_c, 1, 47, 127
1, 26710, Note_off_c, 1, 68, 0
1, 26710, Note_off_c, 1, 62, 0
1, 26720, Note_off_c, 1, 47, 0
1, 26856, Note_on_c, 1, 61, 127
1, 26856, Note_on_c, 1, 54, 127
1, 26970, Note_on_c, 1, 56, 127
1, 26973, Note_off_c, 1, 61, 0
1, 26983, Note_off_c, 1, 54, 0
1, 27092, Note_off_c, 1, 56, 0
1, 27339, Note_on_c, 1, 66, 127
1, 27340, Note_on_c, 1, 71, 127
1, 27344, Note_on_c, 1, 59, 127
1, 27355, Note_on_c, 1, 74, 127
1, 27583, Note_on_c, 1, 70, 127
1, 27585, Note_on_c, 1, 73, 127
1, 27598, Note_off_c, 1, 71, 0
1, 27600, Note_on_c, 1, 64, 127
1, 27615, Note_off_c, 1, 66, 0
1, 27615, Note_off_c, 1, 74, 0
1, 27690, Note_off_c, 1, 70, 0
1, 27700, Note_on_c, 1, 62, 127
1, 27705, Note_off_c, 1, 64, 0
1, 27741, Note_off_c, 1, 73, 0
1, 27802, Note_off_c, 1, 62, 0
1, 27821, Note_on_c, 1, 61, 127
1, 28052, Note_off_c, 1, 59, 0
1, 28076, Note_on_c, 1, 58, 127
1, 28131, Note_off_c, 1, 61, 0
1, 28207, Note_off_c, 1, 58, 0
1, 28297, Note_on_c, 1, 76, 127
1, 28564, Note_off_c, 1, 76, 0
1, 29267, Note_on_c, 1, 71, 127
1, 29268, Note_on_c, 1, 78, 127
1, 29268, Note_on_c, 1, 62, 127
1, 29273, Note_on_c, 1, 74, 127
1, 29370, Note_off_c, 1, 71, 0
1, 29386, Note_off_c, 1, 62, 0
1, 29388, Note_on_c, 1, 73, 127
1, 29389, Note_on_c, 1, 76, 127
1, 29411, Note_off_c, 1, 78, 0
1, 29417, Note_off_c, 1, 74, 0
1, 29512, Note_on_c, 1, 66, 127
1, 29515, Note_off_c, 1, 73, 0
1, 29516, Note_off_c, 1, 76, 0
1, 29523, Note_on_c, 1, 59, 127
1, 29620, Note_off_c, 1, 66, 0
1, 29620, Note_on_c, 1, 79, 127
1, 29630, Note_off_c, 1, 59, 0
1, 29737, Note_off_c, 1, 79, 0
1, 29753, Note_on_c, 1, 54, 127
1, 30072, Note_off_c, 1, 54, 0
1, 30213, Note_on_c, 1, 70, 127
1, 30219, Note_on_c, 1, 61, 127
1, 30330, Note_off_c, 1, 70, 0
1, 30334, Note_off_c, 1, 61, 0
1, 30450, Note_on_c, 1, 58, 127
1, 30566, Note_off_c, 1, 58, 0
1, 31423, Note_on_c, 1, 64, 127
1, 31529, Note_off_c, 1, 64, 0
1, 33094, Note_on_c, 1, 62, 127
1, 33097, Note_on_c, 1, 78, 127
1, 33104, Note_on_c, 1, 66, 127
1, 33111, Note_on_c, 1, 71, 127
1, 33199, Note_off_c, 1, 71, 0
1, 33209, Note_off_c, 1, 62, 0
1, 33219, Note_off_c, 1, 66, 0
1, 33219, Note_on_c, 1, 76, 127
1, 33246, Note_off_c, 1, 78, 0
1, 33338, Note_on_c, 1, 58, 127
1, 33341, Note_on_c, 1, 64, 127
1, 33342, Note_on_c, 1, 73, 127
1, 33368, Note_off_c, 1, 76, 0
1, 33442, Note_on_c, 1, 79, 127
1, 33454, Note_off_c, 1, 58, 0
1, 33454, Note_off_c, 1, 73, 0
1, 33459, Note_off_c, 1, 64, 0
1, 33581, Note_on_c, 1, 74, 127
1, 33585, Note_off_c, 1, 79, 0
1, 33586, Note_on_c, 1, 59, 127
1, 33685, Note_off_c, 1, 59, 0
1, 33686, Note_on_c, 1, 61, 127
1, 33692, Note_off_c, 1, 74, 0
1, 33802, Note_off_c, 1, 61, 0
1, 33812, Note_on_c, 1, 62, 127
1, 33815, Note_on_c, 1, 71, 127
1, 33830, Note_on_c, 1, 55, 127
1, 33914, Note_off_c, 1, 62, 0
1, 33923, Note_off_c, 1, 71, 0
1, 33925, Note_on_c, 1, 59, 127
1, 33930, Note_off_c, 1, 55, 0
1, 34028, Note_off_c, 1, 59, 0
1, 34055, Note_on_c, 1, 64, 127
1, 34060, Note_on_c, 1, 73, 127
1, 34066, Note_on_c, 1, 52, 127
1, 34067, Note_on_c, 1, 67, 127
1, 34162, Note_off_c, 1, 73, 0
1, 34166, Note_off_c, 1, 64, 0
1, 34169, Note_off_c, 1, 67, 0
1, 34177, Note_off_c, 1, 52, 0
1, 34306, Note_on_c, 1, 70, 127
1, 34309, Note_on_c, 1, 61, 127
1, 34310, Note_on_c, 1, 66, 127
1, 34313, Note_on_c, 1, 54, 127
1, 34402, Note_off_c, 1, 70, 0
1, 34407, Note_off_c, 1, 61, 0
1, 34407, Note_off_c, 1, 54, 0
1, 34422, Note_off_c, 1, 66, 0
1, 34542, Note_on_c, 1, 71, 127
1, 34547, Note_on_c, 1, 62, 127
1, 34551, Note_on_c, 1, 66, 127
1, 34551, Note_on_c, 1, 47, 127
1, 34738, Note_off_c, 1, 47, 0
1, 34776, Note_on_c, 1, 50, 127
1, 34831, Note_off_c, 1, 62, 0
1, 34842, Note_off_c, 1, 66, 0
1, 34869, Note_off_c, 1, 71, 0
1, 34882, Note_on_c, 1, 54, 127
1, 34885, Note_off_c, 1, 50, 0
1, 34985, Note_off_c, 1, 54, 0
1, 35031, Note_on_c, 1, 74, 127
1, 35031, Note_on_c, 1, 59, 127
1, 35036, Note_on_c, 1, 66, 127
1, 35138, Note_off_c, 1, 66, 0
1, 35145, Note_on_c, 1, 73, 127
1, 35152, Note_off_c, 1, 59, 0
1, 35172, Note_off_c, 1, 74, 0
1, 35235, Note_off_c, 1, 73, 0
1, 35247, Note_on_c, 1, 57, 127
1, 35261, Note_on_c, 1, 74, 127
1, 35266, Note_on_c, 1, 71, 127
1, 35272, Note_on_c, 1, 66, 127
1, 35347, Note_off_c, 1, 71, 0
1, 35356, Note_off_c, 1, 57, 0
1, 35378, Note_off_c, 1, 66, 0
1, 35380, Note_on_c, 1, 76, 127
1, 35416, Note_off_c, 1, 74, 0
1, 35470, Note_off_c, 1, 76, 0
1, 35506, Note_on_c, 1, 74, 127
1, 35509, Note_on_c, 1, 64, 127
1, 35511, Note_on_c, 1, 71, 127
1, 35516, Note_on_c, 1, 56, 127
1, 35611, Note_off_c, 1, 56, 0
1, 35616, Note_off_c, 1, 71, 0
1, 35621, Note_on_c, 1, 76, 127
1, 35625, Note_off_c, 1, 64, 0
1, 35650, Note_off_c, 1, 74, 0
1, 35711, Note_off_c, 1, 76, 0
1, 35735, Note_on_c, 1, 74, 127
1, 35747, Note_on_c, 1, 69, 127
1, 35752, Note_on_c, 1, 64, 127
1, 35754, Note_on_c, 1, 57, 127
1, 35836, Note_off_c, 1, 69, 0
1, 35847, Note_on_c, 1, 73, 127
1, 35857, Note_off_c, 1, 64, 0
1, 35858, Note_off_c, 1, 57, 0
1, 35875, Note_off_c, 1, 74, 0
1, 35952, Note_off_c, 1, 73, 0
1, 35987, Note_on_c, 1, 71, 127
1, 35987, Note_on_c, 1, 50, 127
1, 35990, Note_on_c, 1, 69, 127
1, 35994, Note_on_c, 1, 66, 127
1, 36091, Note_off_c, 1, 50, 0
1, 36096, Note_off_c, 1, 69, 0
1, 36102, Note_on_c, 1, 73, 127
1, 36104, Note_off_c, 1, 66, 0
1, 36135, Note_off_c, 1, 71, 0
1, 36191, Note_off_c, 1, 73, 0
1, 36224, Note_on_c, 1, 74, 127
1, 36226, Note_on_c, 1, 52, 127
1, 36235, Note_on_c, 1, 64, 127
1, 36240, Note_on_c, 1, 68, 127
1, 36314, Note_off_c, 1, 52, 0
1, 36327, Note_off_c, 1, 68, 0
1, 36341, Note_on_c, 1, 71, 127
1, 36346, Note_off_c, 1, 64, 0
1, 36356, Note_off_c, 1, 74, 0
1, 36433, Note_off_c, 1, 71, 0
1, 36462, Note_on_c, 1, 73, 127
1, 36470, Note_on_c, 1, 45, 127
1, 36473, Note_on_c, 1, 69, 127
1, 36474, Note_on_c, 1, 64, 127
1, 36571, Note_off_c, 1, 69, 0
1, 36577, Note_on_c, 1, 71, 127
1, 36579, Note_on_c, 1, 62, 127
1, 36581, Note_off_c, 1, 45, 0
1, 36592, Note_off_c, 1, 64, 0
1, 36612, Note_off_c, 1, 73, 0
1, 36641, Note_off_c, 1, 62, 0
1, 36663, Note_off_c, 1, 71, 0
1, 36691, Note_on_c, 1, 57, 127
1, 36699, Note_on_c, 1, 64, 127
1, 36704, Note_on_c, 1, 69, 127
1, 36707, Note_on_c, 1, 61, 127
1, 36766, Note_off_c, 1, 64, 0
1, 36812, Note_off_c, 1, 57, 0
1, 36815, Note_on_c, 1, 62, 127
1, 36815, Note_on_c, 1, 71, 127
1, 36829, Note_off_c, 1, 61, 0
1, 36843, Note_off_c, 1, 69, 0
1, 36867, Note_off_c, 1, 62, 0
1, 36905, Note_off_c, 1, 71, 0
1, 36927, Note_on_c, 1, 69, 127
1, 36939, Note_on_c, 1, 55, 127
1, 36940, Note_on_c, 1, 73, 127
1, 36942, Note_on_c, 1, 64, 127
1, 37041, Note_off_c, 1, 55, 0
1, 37045, Note_off_c, 1, 64, 0
1, 37049, Note_on_c, 1, 74, 127
1, 37053, Note_on_c, 1, 71, 127
1, 37054, Note_off_c, 1, 73, 0
1, 37059, Note_off_c, 1, 69, 0
1, 37114, Note_off_c, 1, 71, 0
1, 37127, Note_off_c, 1, 74, 0
1, 37170, Note_on_c, 1, 76, 127
1, 37178, Note_on_c, 1, 73, 127
1, 37182, Note_on_c, 1, 69, 127
1, 37187, Note_on_c, 1, 54, 127
1, 37273, Note_on_c, 1, 78, 127
1, 37285, Note_off_c, 1, 73, 0
1, 37287, Note_off_c, 1, 69, 0
1, 37289, Note_off_c, 1, 76, 0
1, 37290, Note_on_c, 1, 74, 127
1, 37293, Note_off_c, 1, 54, 0
1, 37365, Note_off_c, 1, 74, 0
1, 37368, Note_off_c, 1, 78, 0
1, 37409, Note_on_c, 1, 79, 127
1, 37415, Note_on_c, 1, 61, 127
1, 37417, Note_on_c, 1, 76, 127
1, 37430, Note_on_c, 1, 52, 127
1, 37512, Note_off_c, 1, 61, 0
1, 37523, Note_off_c, 1, 52, 0
1, 37531, Note_on_c, 1, 81, 127
1, 37537, Note_on_c, 1, 78, 127
1, 37552, Note_off_c, 1, 79, 0
1, 37553, Note_off_c, 1, 76, 0
1, 37609, Note_off_c, 1, 78, 0
1, 37626, Note_off_c, 1, 81, 0
1, 37653, Note_on_c, 1, 49, 127
1, 37654, Note_on_c, 1, 76, 127
1, 37654, Note_on_c, 1, 57, 127
1, 37656, Note_on_c, 1, 79, 127
1, 37748, Note_off_c, 1, 49, 0
1, 37762, Note_off_c, 1, 57, 0
1, 37770, Note_off_c, 1, 76, 0
1, 37770, Note_on_c, 1, 74, 127
1, 37776, Note_on_c, 1, 78, 127
1, 37781, Note_off_c, 1, 79, 0
1, 37848, Note_off_c, 1, 74, 0
1, 37862, Note_off_c, 1, 78, 0
1, 37894, Note_on_c, 1, 45, 127
1, 37900, Note_on_c, 1, 76, 127
1, 37902, Note_on_c, 1, 79, 127
1, 37903, Note_on_c, 1, 61, 127
1, 37980, Note_off_c, 1, 45, 0
1, 38002, Note_off_c, 1, 61, 0
1, 38009, Note_off_c, 1, 76, 0
1, 38009, Note_on_c, 1, 74, 127
1, 38014, Note_on_c, 1, 78, 127
1, 38031, Note_off_c, 1, 79, 0
1, 38088, Note_off_c, 1, 74, 0
1, 38096, Note_off_c, 1, 78, 0
1, 38128, Note_on_c, 1, 57, 127
1, 38139, Note_on_c, 1, 69, 127
1, 38139, Note_on_c, 1, 76, 127
1, 38141, Note_on_c, 1, 73, 127
1, 38209, Note_off_c, 1, 57, 0
1, 38245, Note_off_c, 1, 73, 0
1, 38256, Note_on_c, 1, 79, 127
1, 38258, Note_off_c, 1, 69, 0
1, 38320, Note_off_c, 1, 76, 0
1, 38330, Note_off_c, 1, 79, 0
1, 38372, Note_on_c, 1, 74, 127
1, 38378, Note_on_c, 1, 78, 127
1, 38396, Note_on_c, 1, 69, 127
1, 38398, Note_on_c, 1, 50, 127
1, 38500, Note_on_c, 1, 79, 127
1, 38526, Note_off_c, 1, 78, 0
1, 38589, Note_off_c, 1, 79, 0
1, 38629, Note_on_c, 1, 81, 127
1, 38711, Note_off_c, 1, 74, 0
1, 38727, Note_off_c, 1, 81, 0
1, 38860, Note_off_c, 1, 69, 0
1, 38865, Note_on_c, 1, 83, 127
1, 38879, Note_off_c, 1, 50, 0
1, 38986, Note_off_c, 1, 83, 0
1, 39085, Note_on_c, 1, 76, 127
1, 39105, Note_on_c, 1, 80, 127
1, 39199, Note_off_c, 1, 76, 0
1, 39216, Note_off_c, 1, 80, 0
1, 39337, Note_on_c, 1, 68, 127
1, 39585, Note_on_c, 1, 73, 127
1, 39657, Note_off_c, 1, 68, 0
1, 39685, Note_off_c, 1, 73, 0
1, 39692, Note_on_c, 1, 71, 127
1, 39761, Note_off_c, 1, 71, 0
1, 39821, Note_on_c, 1, 76, 127
1, 39821, Note_on_c, 1, 81, 127
1, 39829, Note_on_c, 1, 73, 127
1, 39928, Note_on_c, 1, 80, 127
1, 39939, Note_off_c, 1, 81, 0
1, 40040, Note_off_c, 1, 80, 0
1, 40043, Note_on_c, 1, 78, 127
1, 40065, Note_on_c, 1, 74, 127
1, 40080, Note_off_c, 1, 76, 0
1, 40151, Note_off_c, 1, 74, 0
1, 40160, Note_off_c, 1, 78, 0
1, 40308, Note_on_c, 1, 66, 127
1, 40517, Note_on_c, 1, 71, 127
1, 40621, Note_off_c, 1, 71, 0
1, 40631, Note_off_c, 1, 66, 0
1, 40643, Note_on_c, 1, 69, 127
1, 40701, Note_off_c, 1, 69, 0
1, 40737, Note_off_c, 1, 73, 0
1, 40769, Note_on_c, 1, 71, 127
1, 40773, Note_on_c, 1, 80, 127
1, 40775, Note_on_c, 1, 74, 127
1, 40895, Note_on_c, 1, 78, 127
1, 40910, Note_off_c, 1, 80, 0
1, 41013, Note_on_c, 1, 73, 127
1, 41014, Note_on_c, 1, 77, 127
1, 41019, Note_off_c, 1, 78, 0
1, 41038, Note_off_c, 1, 74, 0
1, 41109, Note_off_c, 1, 77, 0
1, 41122, Note_off_c, 1, 73, 0
1, 41263, Note_on_c, 1, 65, 127
1, 41336, Note_off_c, 1, 71, 0
1, 41375, Note_on_c, 1, 69, 127
1, 41491, Note_off_c, 1, 69, 0
1, 41613, Note_off_c, 1, 65, 0
1, 41738, Note_on_c, 1, 71, 127
1, 41743, Note_on_c, 1, 66, 127
1, 41744, Note_on_c, 1, 85, 127
1, 41846, Note_off_c, 1, 71, 0
1, 41849, Note_on_c, 1, 69, 127
1, 41854, Note_off_c, 1, 66, 0
1, 41939, Note_off_c, 1, 69, 0
1, 41944, Note_off_c, 1, 85, 0
1, 41972, Note_on_c, 1, 68, 127
1, 41980, Note_on_c, 1, 83, 127
1, 41982, Note_on_c, 1, 59, 127
1, 42074, Note_off_c, 1, 59, 0
1, 42079, Note_off_c, 1, 83, 0
1, 42088, Note_on_c, 1, 66, 127
1, 42094, Note_off_c, 1, 68, 0
1, 42098, Note_on_c, 1, 81, 127
1, 42157, Note_off_c, 1, 81, 0
1, 42161, Note_off_c, 1, 66, 0
1, 42224, Note_on_c, 1, 61, 127
1, 42226, Note_on_c, 1, 65, 127
1, 42226, Note_on_c, 1, 81, 127
1, 42327, Note_on_c, 1, 63, 127
1, 42330, Note_off_c, 1, 65, 0
1, 42356, Note_off_c, 1, 61, 0
1, 42444, Note_off_c, 1, 81, 0
1, 42452, Note_on_c, 1, 80, 127
1, 42478, Note_off_c, 1, 63, 0
1, 42552, Note_off_c, 1, 80, 0
1, 42709, Note_on_c, 1, 73, 127
1, 42715, Note_on_c, 1, 66, 127
1, 42723, Note_on_c, 1, 57, 127
1, 42826, Note_on_c, 1, 59, 127
1, 42842, Note_off_c, 1, 57, 0
1, 42934, Note_on_c, 1, 71, 127
1, 42936, Note_off_c, 1, 59, 0
1, 42939, Note_on_c, 1, 68, 127
1, 42955, Note_off_c, 1, 73, 0
1, 42956, Note_on_c, 1, 77, 127
1, 42962, Note_off_c, 1, 66, 0
1, 43042, Note_off_c, 1, 68, 0
1, 43048, Note_on_c, 1, 56, 127
1, 43059, Note_off_c, 1, 71, 0
1, 43070, Note_off_c, 1, 77, 0
1, 43146, Note_off_c, 1, 56, 0
1, 43184, Note_on_c, 1, 61, 127
1, 43189, Note_on_c, 1, 54, 127
1, 43197, Note_on_c, 1, 81, 127
1, 43202, Note_on_c, 1, 78, 127
1, 43301, Note_on_c, 1, 56, 127
1, 43325, Note_off_c, 1, 54, 0
1, 43393, Note_off_c, 1, 56, 0
1, 43408, Note_on_c, 1, 57, 127
1, 43470, Note_off_c, 1, 61, 0
1, 43482, Note_off_c, 1, 78, 0
1, 43493, Note_off_c, 1, 81, 0
1, 43522, Note_off_c, 1, 57, 0
1, 43526, Note_on_c, 1, 54, 127
1, 43610, Note_off_c, 1, 54, 0
1, 43645, Note_on_c, 1, 56, 127
1, 43656, Note_on_c, 1, 74, 127
1, 43663, Note_on_c, 1, 77, 127
1, 43672, Note_on_c, 1, 71, 127
1, 43759, Note_on_c, 1, 57, 127
1, 43777, Note_off_c, 1, 56, 0
1, 43880, Note_off_c, 1, 77, 0
1, 43880, Note_on_c, 1, 78, 127
1, 43888, Note_on_c, 1, 73, 127
1, 43899, Note_off_c, 1, 74, 0
1, 43899, Note_off_c, 1, 57, 0
1, 43911, Note_on_c, 1, 69, 127
1, 43913, Note_off_c, 1, 71, 0
1, 44006, Note_off_c, 1, 78, 0
1, 44008, Note_off_c, 1, 69, 0
1, 44016, Note_on_c, 1, 54, 127
1, 44046, Note_off_c, 1, 73, 0
1, 44103, Note_off_c, 1, 54, 0
1, 44139, Note_on_c, 1, 73, 127
1, 44144, Note_on_c, 1, 53, 127
1, 44147, Note_on_c, 1, 68, 127
1, 44157, Note_on_c, 1, 83, 127
1, 44250, Note_on_c, 1, 54, 127
1, 44279, Note_off_c, 1, 53, 0
1, 44341, Note_off_c, 1, 54, 0
1, 44366, Note_on_c, 1, 56, 127
1, 44442, Note_off_c, 1, 68, 0
1, 44456, Note_off_c, 1, 73, 0
1, 44468, Note_off_c, 1, 83, 0
1, 44469, Note_off_c, 1, 56, 0
1, 44478, Note_on_c, 1, 53, 127
1, 44562, Note_off_c, 1, 53, 0
1, 44611, Note_on_c, 1, 54, 127
1, 44616, Note_on_c, 1, 66, 127
1, 44625, Note_on_c, 1, 81, 127
1, 44629, Note_on_c, 1, 73, 127
1, 44716, Note_off_c, 1, 54, 0
1, 44733, Note_on_c, 1, 80, 127
1, 44740, Note_on_c, 1, 71, 127
1, 44744, Note_off_c, 1, 66, 0
1, 44757, Note_off_c, 1, 81, 0
1, 44778, Note_off_c, 1, 73, 0
1, 44860, Note_off_c, 1, 80, 0
1, 44863, Note_off_c, 1, 71, 0
1, 44863, Note_on_c, 1, 49, 127
1, 44865, Note_on_c, 1, 65, 127
1, 44961, Note_off_c, 1, 49, 0
1, 44961, Note_off_c, 1, 65, 0
1, 44966, Note_on_c, 1, 74, 127
1, 44969, Note_on_c, 1, 83, 127
1, 45069, Note_off_c, 1, 74, 0
1, 45082, Note_off_c, 1, 83, 0
1, 45096, Note_on_c, 1, 66, 127
1, 45099, Note_on_c, 1, 81, 127
1, 45099, Note_on_c, 1, 73, 127
1, 45109, Note_on_c, 1, 50, 127
1, 45204, Note_on_c, 1, 80, 127
1, 45207, Note_off_c, 1, 66, 0
1, 45213, Note_on_c, 1, 71, 127
1, 45216, Note_off_c, 1, 50, 0
1, 45229, Note_off_c, 1, 81, 0
1, 45237, Note_off_c, 1, 73, 0
1, 45329, Note_on_c, 1, 78, 127
1, 45337, Note_on_c, 1, 69, 127
1, 45338, Note_off_c, 1, 80, 0
1, 45338, Note_off_c, 1, 71, 0
1, 45343, Note_on_c, 1, 62, 127
1, 45440, Note_off_c, 1, 62, 0
1, 45445, Note_off_c, 1, 78, 0
1, 45480, Note_off_c, 1, 69, 0
1, 45567, Note_on_c, 1, 71, 127
1, 45570, Note_on_c, 1, 80, 127
1, 45579, Note_on_c, 1, 59, 127
1, 45586, Note_on_c, 1, 74, 127
1, 45671, Note_off_c, 1, 71, 0
1, 45674, Note_off_c, 1, 59, 0
1, 45674, Note_on_c, 1, 69, 127
1, 45679, Note_on_c, 1, 78, 127
1, 45695, Note_off_c, 1, 74, 0
1, 45704, Note_off_c, 1, 80, 0
1, 45788, Note_off_c, 1, 78, 0
1, 45801, Note_on_c, 1, 77, 127
1, 45812, Note_on_c, 1, 68, 127
1, 45817, Note_on_c, 1, 73, 127
1, 45818, Note_off_c, 1, 69, 0
1, 45831, Note_on_c, 1, 61, 127
1, 45896, Note_off_c, 1, 68, 0
1, 45904, Note_off_c, 1, 61, 0
1, 45910, Note_off_c, 1, 77, 0
1, 45918, Note_off_c, 1, 73, 0
1, 46040, Note_on_c, 1, 70, 127
1, 46051, Note_on_c, 1, 78, 127
1, 46066, Note_on_c, 1, 73, 127
1, 46080, Note_on_c, 1, 54, 127
1, 46181, Note_on_c, 1, 71, 127
1, 46200, Note_off_c, 1, 73, 0
1, 46290, Note_off_c, 1, 71, 0
1, 46374, Note_off_c, 1, 78, 0
1, 46403, Note_on_c, 1, 68, 127
1, 46408, Note_off_c, 1, 70, 0
1, 46469, Note_off_c, 1, 68, 0
1, 46538, Note_on_c, 1, 66, 127
1, 46553, Note_off_c, 1, 54, 0
1, 46641, Note_off_c, 1, 66, 0
1, 46655, Note_on_c, 1, 74, 127
1, 46791, Note_off_c, 1, 74, 0
1, 47265, Note_on_c, 1, 71, 127
1, 47265, Note_on_c, 1, 74, 127
1, 47271, Note_on_c, 1, 66, 127
1, 47345, Note_off_c, 1, 71, 0
1, 47349, Note_off_c, 1, 66, 0
1, 47358, Note_off_c, 1, 74, 0
1, 47497, Note_on_c, 1, 66, 127
1, 47504, Note_on_c, 1, 76, 127
1, 47515, Note_on_c, 1, 73, 127
1, 47587, Note_off_c, 1, 73, 0
1, 47596, Note_off_c, 1, 76, 0
1, 47602, Note_off_c, 1, 66, 0
1, 47746, Note_on_c, 1, 71, 127
1, 47752, Note_on_c, 1, 74, 127
1, 47757, Note_on_c, 1, 66, 127
1, 47829, Note_off_c, 1, 71, 0
1, 47848, Note_off_c, 1, 74, 0
1, 47863, Note_off_c, 1, 66, 0
1, 47988, Note_on_c, 1, 73, 127
1, 47996, Note_on_c, 1, 70, 127
1, 47998, Note_on_c, 1, 66, 127
1, 48082, Note_off_c, 1, 70, 0
1, 48091, Note_off_c, 1, 73, 0
1, 48109, Note_on_c, 1, 64, 127
1, 48132, Note_off_c, 1, 66, 0
1, 48217, Note_on_c, 1, 62, 127
1, 48223, Note_off_c, 1, 64, 0
1, 48228, Note_on_c, 1, 78, 127
1, 48236, Note_on_c, 1, 71, 127
1, 48315, Note_off_c, 1, 78, 0
1, 48332, Note_off_c, 1, 71, 0
1, 48353, Note_off_c, 1, 62, 0
1, 48467, Note_on_c, 1, 66, 127
1, 48467, Note_on_c, 1, 73, 127
1, 48473, Note_on_c, 1, 70, 127
1, 48578, Note_off_c, 1, 66, 0
1, 48578, Note_on_c, 1, 74, 127
1, 48581, Note_on_c, 1, 71, 127
1, 48605, Note_off_c, 1, 70, 0
1, 48616, Note_off_c, 1, 73, 0
1, 48717, Note_off_c, 1, 74, 0
1, 48725, Note_off_c, 1, 71, 0
1, 48812, Note_on_c, 1, 68, 127
1, 48926, Note_off_c, 1, 68, 0
1, 48937, Note_on_c, 1, 66, 127
1, 48937, Note_on_c, 1, 73, 127
1, 48945, Note_on_c, 1, 70, 127
1, 49032, Note_off_c, 1, 66, 0
1, 49036, Note_off_c, 1, 73, 0
1, 49039, Note_off_c, 1, 70, 0
1, 49173, Note_on_c, 1, 66, 127
1, 49181, Note_on_c, 1, 71, 127
1, 49181, Note_on_c, 1, 74, 127
1, 49275, Note_off_c, 1, 66, 0
1, 49278, Note_off_c, 1, 71, 0
1, 49279, Note_off_c, 1, 74, 0
1, 49419, Note_on_c, 1, 66, 127
1, 49420, Note_on_c, 1, 76, 127
1, 49428, Note_on_c, 1, 73, 127
1, 49506, Note_off_c, 1, 66, 0
1, 49522, Note_off_c, 1, 76, 0
1, 49538, Note_off_c, 1, 73, 0
1, 49664, Note_on_c, 1, 66, 127
1, 49669, Note_on_c, 1, 74, 127
1, 49671, Note_on_c, 1, 71, 127
1, 49753, Note_off_c, 1, 66, 0
1, 49756, Note_off_c, 1, 71, 0
1, 49770, Note_off_c, 1, 74, 0
1, 49907, Note_on_c, 1, 74, 127
1, 49907, Note_on_c, 1, 71, 127
1, 49918, Note_on_c, 1, 66, 127
1, 50026, Note_on_c, 1, 64, 127
1, 50135, Note_on_c, 1, 70, 127
1, 50135, Note_on_c, 1, 62, 127
1, 50152, Note_on_c, 1, 73, 127
1, 50157, Note_off_c, 1, 71, 0
1, 50168, Note_off_c, 1, 74, 0
1, 50186, Note_off_c, 1, 64, 0
1, 50217, Note_off_c, 1, 66, 0
1, 50235, Note_on_c, 1, 61, 127
1, 50241, Note_off_c, 1, 62, 0
1, 50252, Note_off_c, 1, 70, 0
1, 50268, Note_off_c, 1, 73, 0
1, 50356, Note_on_c, 1, 59, 127
1, 50372, Note_off_c, 1, 61, 0
1, 51106, Note_off_c, 1, 59, 0
1, 51109, Note_on_c, 1, 58, 127
1, 51196, Note_off_c, 1, 58, 0
1, 51212, Note_on_c, 1, 59, 127
1, 51324, Note_on_c, 1, 76, 127
1, 51335, Note_off_c, 1, 59, 0
1, 51351, Note_on_c, 1, 61, 127
1, 51356, Note_on_c, 1, 70, 127
1, 51573, Note_on_c, 1, 74, 127
1, 51579, Note_on_c, 1, 71, 127
1, 51584, Note_on_c, 1, 62, 127
1, 51602, Note_off_c, 1, 70, 0
1, 51633, Note_off_c, 1, 76, 0
1, 51684, Note_on_c, 1, 73, 127
1, 51700, Note_off_c, 1, 71, 0
1, 51701, Note_on_c, 1, 64, 127
1, 51703, Note_off_c, 1, 62, 0
1, 51711, Note_off_c, 1, 74, 0
1, 51811, Note_off_c, 1, 73, 0
1, 51822, Note_off_c, 1, 64, 0
1, 51838, Note_on_c, 1, 66, 127
1, 52015, Note_off_c, 1, 61, 0
1, 52140, Note_off_c, 1, 66, 0
1, 52303, Note_on_c, 1, 62, 127
1, 52310, Note_on_c, 1, 78, 127
1, 52319, Note_on_c, 1, 71, 127
1, 52325, Note_on_c, 1, 74, 127
1, 52424, Note_on_c, 1, 76, 127
1, 52430, Note_off_c, 1, 62, 0
1, 52430, Note_off_c, 1, 71, 0
1, 52436, Note_off_c, 1, 78, 0
1, 52438, Note_on_c, 1, 73, 127
1, 52463, Note_off_c, 1, 74, 0
1, 52554, Note_on_c, 1, 66, 127
1, 52560, Note_off_c, 1, 73, 0
1, 52563, Note_off_c, 1, 76, 0
1, 52571, Note_on_c, 1, 59, 127
1, 52652, Note_off_c, 1, 66, 0
1, 52666, Note_on_c, 1, 79, 127
1, 52690, Note_off_c, 1, 59, 0
1, 52774, Note_off_c, 1, 79, 0
1, 52790, Note_on_c, 1, 74, 127
1, 52793, Note_on_c, 1, 78, 127
1, 52798, Note_on_c, 1, 59, 127
1, 52807, Note_on_c, 1, 54, 127
1, 52900, Note_on_c, 1, 73, 127
1, 52902, Note_on_c, 1, 76, 127
1, 52913, Note_off_c, 1, 74, 0
1, 52913, Note_off_c, 1, 78, 0
1, 53018, Note_off_c, 1, 76, 0
1, 53021, Note_on_c, 1, 71, 127
1, 53035, Note_off_c, 1, 73, 0
1, 53098, Note_off_c, 1, 59, 0
1, 53122, Note_off_c, 1, 54, 0
1, 53138, Note_off_c, 1, 71, 0
1, 53254, Note_on_c, 1, 70, 127
1, 53268, Note_on_c, 1, 61, 127
1, 53374, Note_off_c, 1, 70, 0
1, 53394, Note_off_c, 1, 61, 0
1, 53506, Note_on_c, 1, 66, 127
1, 53515, Note_on_c, 1, 58, 127
1, 53599, Note_off_c, 1, 66, 0
1, 53618, Note_off_c, 1, 58, 0
1, 54215, Note_on_c, 1, 74, 127
1, 54223, Note_on_c, 1, 71, 127
1, 54233, Note_on_c, 1, 59, 127
1, 54237, Note_on_c, 1, 66, 127
1, 54450, Note_on_c, 1, 70, 127
1, 54459, Note_on_c, 1, 73, 127
1, 54462, Note_off_c, 1, 71, 0
1, 54465, Note_off_c, 1, 74, 0
1, 54465, Note_on_c, 1, 64, 127
1, 54499, Note_off_c, 1, 66, 0
1, 54556, Note_off_c, 1, 70, 0
1, 54573, Note_on_c, 1, 62, 127
1, 54575, Note_off_c, 1, 73, 0
1, 54578, Note_off_c, 1, 64, 0
1, 54671, Note_off_c, 1, 62, 0
1, 54703, Note_on_c, 1, 61, 127
1, 54928, Note_on_c, 1, 58, 127
1, 54933, Note_off_c, 1, 59, 0
1, 54983, Note_off_c, 1, 61, 0
1, 55063, Note_off_c, 1, 58, 0
1, 55172, Note_on_c, 1, 76, 127
1, 55179, Note_on_c, 1, 70, 127
1, 55181, Note_on_c, 1, 61, 127
1, 55405, Note_on_c, 1, 74, 127
1, 55413, Note_on_c, 1, 62, 127
1, 55417, Note_on_c, 1, 71, 127
1, 55435, Note_off_c, 1, 76, 0
1, 55438, Note_off_c, 1, 70, 0
1, 55519, Note_on_c, 1, 64, 127
1, 55522, Note_off_c, 1, 71, 0
1, 55522, Note_on_c, 1, 73, 127
1, 55532, Note_off_c, 1, 62, 0
1, 55547, Note_off_c, 1, 74, 0
1, 55633, Note_off_c, 1, 64, 0
1, 55652, Note_off_c, 1, 73, 0
1, 55663, Note_on_c, 1, 66, 127
1, 55806, Note_off_c, 1, 61, 0
1, 55893, Note_on_c, 1, 59, 127
1, 55956, Note_off_c, 1, 66, 0
1, 56027, Note_off_c, 1, 59, 0
1, 56137, Note_on_c, 1, 66, 127
1, 56141, Note_on_c, 1, 62, 127
1, 56143, Note_on_c, 1, 71, 127
1, 56148, Note_on_c, 1, 78, 127
1, 56232, Note_off_c, 1, 71, 0
1, 56251, Note_off_c, 1, 66, 0
1, 56254, Note_off_c, 1, 62, 0
1, 56260, Note_on_c, 1, 76, 127
1, 56289, Note_off_c, 1, 78, 0
1, 56379, Note_on_c, 1, 64, 127
1, 56379, Note_on_c, 1, 58, 127
1, 56394, Note_on_c, 1, 73, 127
1, 56412, Note_off_c, 1, 76, 0
1, 56476, Note_off_c, 1, 58, 0
1, 56494, Note_off_c, 1, 64, 0
1, 56502, Note_off_c, 1, 73, 0
1, 56502, Note_on_c, 1, 79, 127
1, 56599, Note_off_c, 1, 79, 0
1, 56624, Note_on_c, 1, 62, 127
1, 56624, Note_on_c, 1, 59, 127
1, 56626, Note_on_c, 1, 78, 127
1, 56628, Note_on_c, 1, 74, 127
1, 56724, Note_off_c, 1, 59, 0
1, 56724, Note_off_c, 1, 78, 0
1, 56731, Note_on_c, 1, 61, 127
1, 56734, Note_off_c, 1, 74, 0
1, 56737, Note_off_c, 1, 62, 0
1, 56834, Note_off_c, 1, 61, 0
1, 56854, Note_on_c, 1, 71, 127
1, 56854, Note_on_c, 1, 62, 127
1, 56867, Note_on_c, 1, 55, 127
1, 56956, Note_off_c, 1, 71, 0
1, 56956, Note_off_c, 1, 62, 0
1, 56956, Note_off_c, 1, 55, 0
1, 56967, Note_on_c, 1, 59, 127
1, 57068, Note_off_c, 1, 59, 0
1, 57095, Note_on_c, 1, 64, 127
1, 57100, Note_on_c, 1, 67, 127
1, 57103, Note_on_c, 1, 52, 127
1, 57108, Note_on_c, 1, 73, 127
1, 57193, Note_off_c, 1, 67, 0
1, 57196, Note_off_c, 1, 73, 0
1, 57198, Note_off_c, 1, 52, 0
1, 57209, Note_off_c, 1, 64, 0
1, 57336, Note_on_c, 1, 66, 127
1, 57340, Note_on_c, 1, 54, 127
1, 57348, Note_on_c, 1, 61, 127
1, 57350, Note_on_c, 1, 70, 127
1, 57432, Note_off_c, 1, 66, 0
1, 57435, Note_off_c, 1, 54, 0
1, 57435, Note_off_c, 1, 70, 0
1, 57439, Note_off_c, 1, 61, 0
1, 57581, Note_on_c, 1, 71, 127
1, 57581, Note_on_c, 1, 62, 127
1, 57597, Note_on_c, 1, 47, 127
1, 57599, Note_on_c, 1, 66, 127
1, 58066, Note_off_c, 1, 62, 0
1, 58077, Note_off_c, 1, 66, 0
1, 58079, Note_off_c, 1, 47, 0
1, 58080, Note_off_c, 1, 71, 0
1, 58080, End_track
0, 0, End_of_file