0, 0, Header, 1, 1, 480
1, 0, Start_track
1, 0, Title_t, "Test"
1, 0, Tempo, 500000
1, 0, Instrument_name_t, "Church Organ"
1, 460, Note_on_c, 1, 78, 127
1, 651, Note_off_c, 1, 78, 0
1, 708, Note_on_c, 1, 76, 127
1, 839, Note_on_c, 1, 74, 127
1, 856, Note_off_c, 1, 76, 0
1, 1062, Note_off_c, 1, 74, 0
1, 1067, Note_on_c, 1, 76, 127
1, 1191, Note_on_c, 1, 59, 127
1, 1196, Note_on_c, 1, 78, 127
1, 1196, Note_on_c, 1, 62, 127
1, 1199, Note_off_c, 1, 76, 0
1, 1203, Note_on_c, 1, 71, 127
1, 1371, Note_off_c, 1, 78, 0
1, 1401, Note_off_c, 1, 59, 0
1, 1438, Note_on_c, 1, 55, 127
1, 1540, Note_off_c, 1, 62, 0
1, 1541, Note_on_c, 1, 61, 127
1, 1551, Note_on_c, 1, 69, 127
1, 1626, Note_off_c, 1, 69, 0
1, 1632, Note_off_c, 1, 61, 0
1, 1655, Note_off_c, 1, 71, 0
1, 1775, Note_on_c, 1, 57, 127
1, 1782, Note_off_c, 1, 55, 0
1, 1789, Note_on_c, 1, 67, 127
1, 1881, Note_off_c, 1, 57, 0
1, 1894, Note_off_c, 1, 67, 0
1, 1911, Note_on_c, 1, 74, 127
1, 1918, Note_on_c, 1, 66, 127
1, 2028, Note_off_c, 1, 66, 0
1, 2164, Note_on_c, 1, 52, 127
1, 2362, Note_off_c, 1, 52, 0
1, 2367, Note_off_c, 1, 74, 0
1, 2389, Note_on_c, 1, 57, 127
1, 2389, Note_on_c, 1, 73, 127
1, 2392, Note_on_c, 1, 61, 127
1, 2406, Note_on_c, 1, 66, 127
1, 2506, Note_on_c, 1, 62, 127
1, 2512, Note_on_c, 1, 71, 127
1, 2515, Note_off_c, 1, 61, 0
1, 2531, Note_off_c, 1, 73, 0
1, 2534, Note_on_c, 1, 64, 127
1, 2549, Note_off_c, 1, 66, 0
1, 2569, Note_off_c, 1, 57, 0
1, 2609, Note_off_c, 1, 62, 0
1, 2613, Note_off_c, 1, 71, 0
1, 2630, Note_on_c, 1, 70, 127
1, 2631, Note_on_c, 1, 55, 127
1, 2758, Note_off_c, 1, 70, 0
1, 3060, Note_off_c, 1, 64, 0
1, 3096, Note_off_c, 1, 55, 0
1, 3118, Note_on_c, 1, 54, 127
1, 3120, Note_on_c, 1, 58, 127
1, 3229, Note_off_c, 1, 54, 0
1, 3229, Note_on_c, 1, 52, 127
1, 3277, Note_off_c, 1, 58, 0
1, 3329, Note_off_c, 1, 52, 0
1, 3357, Note_on_c, 1, 50, 127
1, 3481, Note_off_c, 1, 50, 0
1, 3598, Note_on_c, 1, 71, 127
1, 3598, Note_on_c, 1, 59, 127
1, 3601, Note_on_c, 1, 78, 127
1, 3604, Note_on_c, 1, 50, 127
1, 3714, Note_on_c, 1, 52, 127
1, 3716, Note_on_c, 1, 73, 127
1, 3725, Note_off_c, 1, 71, 0
1, 3729, Note_off_c, 1, 50, 0
1, 3771, Note_off_c, 1, 59, 0
1, 3838, Note_on_c, 1, 58, 127
1, 3840, Note_off_c, 1, 52, 0
1, 3840, Note_off_c, 1, 73, 0
1, 3844, Note_on_c, 1, 54, 127
1, 3846, Note_on_c, 1, 74, 127
1, 3941, Note_on_c, 1, 79, 127
1, 3942, Note_off_c, 1, 78, 0
1, 3992, Note_off_c, 1, 58, 0
1, 4010, Note_off_c, 1, 74, 0
1, 4053, Note_off_c, 1, 79, 0
1, 4073, Note_on_c, 1, 76, 127
1, 4074, Note_on_c, 1, 70, 127
1, 4076, Note_on_c, 1, 66, 127
1, 4142, Note_off_c, 1, 54, 0
1, 4178, Note_on_c, 1, 47, 127
1, 4234, Note_off_c, 1, 70, 0
1, 4252, Note_off_c, 1, 47, 0
1, 4264, Note_off_c, 1, 76, 0
1, 4338, Note_on_c, 1, 75, 127
1, 4377, Note_off_c, 1, 75, 0
1, 4416, Note_off_c, 1, 66, 0
1, 4420, Note_on_c, 1, 67, 127
1, 4523, Note_off_c, 1, 67, 0
1, 4551, Note_on_c, 1, 69, 127
1, 4667, Note_on_c, 1, 60, 127
1, 4729, Note_off_c, 1, 69, 0
1, 4752, Note_off_c, 1, 60, 0
1, 4792, Note_on_c, 1, 63, 127
1, 4793, Note_on_c, 1, 57, 127
1, 4969, Note_off_c, 1, 63, 0
1, 5019, Note_off_c, 1, 57, 0
1, 5040, Note_on_c, 1, 67, 127
1, 5041, Note_on_c, 1, 76, 127
1, 5041, Note_on_c, 1, 55, 127
1, 5152, Note_on_c, 1, 83, 127
1, 5157, Note_off_c, 1, 55, 0
1, 5161, Note_on_c, 1, 57, 127
1, 5225, Note_off_c, 1, 67, 0
1, 5240, Note_off_c, 1, 83, 0
1, 5251, Note_off_c, 1, 57, 0
1, 5269, Note_on_c, 1, 66, 127
1, 5272, Note_on_c, 1, 81, 127
1, 5276, Note_on_c, 1, 59, 127
1, 5394, Note_on_c, 1, 79, 127
1, 5400, Note_off_c, 1, 81, 0
1, 5435, Note_off_c, 1, 66, 0
1, 5437, Note_off_c, 1, 76, 0
1, 5492, Note_off_c, 1, 79, 0
1, 5506, Note_on_c, 1, 71, 127
1, 5523, Note_off_c, 1, 59, 0
1, 5543, Note_on_c, 1, 75, 127
1, 5574, Note_off_c, 1, 75, 0
1, 5634, Note_on_c, 1, 78, 127
1, 5689, Note_off_c, 1, 71, 0
1, 5719, Note_off_c, 1, 78, 0
1, 5753, Note_on_c, 1, 79, 127
1, 5756, Note_on_c, 1, 64, 127
1, 5760, Note_on_c, 1, 76, 127
1, 5873, Note_off_c, 1, 79, 0
1, 5964, Note_off_c, 1, 64, 0
1, 5982, Note_off_c, 1, 76, 0
1, 5993, Note_on_c, 1, 62, 127
1, 5997, Note_on_c, 1, 81, 127
1, 5998, Note_on_c, 1, 71, 127
1, 6006, Note_on_c, 1, 64, 127
1, 6070, Note_on_c, 1, 80, 127
1, 6089, Note_off_c, 1, 81, 0
1, 6114, Note_on_c, 1, 61, 127
1, 6119, Note_off_c, 1, 62, 0
1, 6132, Note_off_c, 1, 80, 0
1, 6212, Note_off_c, 1, 61, 0
1, 6350, Note_on_c, 1, 78, 127
1, 6353, Note_on_c, 1, 59, 127
1, 6400, Note_off_c, 1, 71, 0
1, 6410, Note_off_c, 1, 78, 0
1, 6417, Note_off_c, 1, 64, 0
1, 6438, Note_off_c, 1, 59, 0
1, 6459, Note_on_c, 1, 81, 127
1, 6461, Note_on_c, 1, 64, 127
1, 6472, Note_on_c, 1, 61, 127
1, 6480, Note_on_c, 1, 76, 127
1, 6585, Note_off_c, 1, 81, 0
1, 6588, Note_off_c, 1, 61, 0
1, 6590, Note_on_c, 1, 57, 127
1, 6591, Note_on_c, 1, 85, 127
1, 6624, Note_off_c, 1, 64, 0
1, 6648, Note_off_c, 1, 76, 0
1, 6669, Note_off_c, 1, 57, 0
1, 6681, Note_off_c, 1, 85, 0
1, 6711, Note_on_c, 1, 83, 127
1, 6712, Note_on_c, 1, 66, 127
1, 6715, Note_on_c, 1, 62, 127
1, 6719, Note_on_c, 1, 73, 127
1, 6784, Note_on_c, 1, 64, 127
1, 6792, Note_on_c, 1, 61, 127
1, 6795, Note_off_c, 1, 66, 0
1, 6801, Note_off_c, 1, 62, 0
1, 6828, Note_off_c, 1, 64, 0
1, 6832, Note_on_c, 1, 82, 127
1, 6835, Note_off_c, 1, 83, 0
1, 6839, Note_off_c, 1, 61, 0
1, 6931, Note_off_c, 1, 82, 0
1, 6952, Note_on_c, 1, 80, 127
1, 7061, Note_on_c, 1, 59, 127
1, 7074, Note_off_c, 1, 80, 0
1, 7112, Note_off_c, 1, 73, 0
1, 7127, Note_off_c, 1, 59, 0
1, 7183, Note_on_c, 1, 66, 127
1, 7187, Note_on_c, 1, 62, 127
1, 7197, Note_on_c, 1, 83, 127
1, 7200, Note_on_c, 1, 71, 127
1, 7308, Note_off_c, 1, 62, 0
1, 7312, Note_on_c, 1, 81, 127
1, 7322, Note_off_c, 1, 83, 0
1, 7398, Note_off_c, 1, 81, 0
1, 7403, Note_off_c, 1, 66, 0
1, 7430, Note_on_c, 1, 64, 127
1, 7436, Note_on_c, 1, 59, 127
1, 7436, Note_on_c, 1, 79, 127
1, 7543, Note_off_c, 1, 64, 0
1, 7544, Note_on_c, 1, 78, 127
1, 7563, Note_off_c, 1, 79, 0
1, 7635, Note_off_c, 1, 59, 0
1, 7642, Note_off_c, 1, 78, 0
1, 7670, Note_on_c, 1, 76, 127
1, 7674, Note_on_c, 1, 61, 127
1, 7785, Note_on_c, 1, 74, 127
1, 7790, Note_off_c, 1, 61, 0
1, 7791, Note_off_c, 1, 76, 0
1, 7878, Note_off_c, 1, 74, 0
1, 7919, Note_on_c, 1, 67, 127
1, 7935, Note_on_c, 1, 73, 127
1, 7970, Note_off_c, 1, 73, 0
1, 8125, Note_off_c, 1, 71, 0
1, 8146, Note_on_c, 1, 70, 127
1, 8268, Note_off_c, 1, 70, 0
1, 8363, Note_off_c, 1, 67, 0
1, 8379, Note_on_c, 1, 58, 127
1, 8502, Note_on_c, 1, 56, 127
1, 8511, Note_off_c, 1, 58, 0
1, 8513, Note_on_c, 1, 68, 127
1, 8584, Note_off_c, 1, 56, 0
1, 8602, Note_off_c, 1, 68, 0
1, 8635, Note_on_c, 1, 54, 127
1, 8745, Note_off_c, 1, 54, 0
1, 8872, Note_on_c, 1, 75, 127
1, 8873, Note_on_c, 1, 66, 127
1, 8878, Note_on_c, 1, 71, 127
1, 8878, Note_on_c, 1, 57, 127
1, 8988, Note_on_c, 1, 76, 127
1, 8989, Note_on_c, 1, 64, 127
1, 8999, Note_off_c, 1, 66, 0
1, 9000, Note_off_c, 1, 75, 0
1, 9081, Note_off_c, 1, 64, 0
1, 9094, Note_off_c, 1, 76, 0
1, 9115, Note_on_c, 1, 63, 127
1, 9115, Note_on_c, 1, 78, 127
1, 9227, Note_off_c, 1, 78, 0
1, 9229, Note_on_c, 1, 61, 127
1, 9236, Note_off_c, 1, 63, 0
1, 9327, Note_off_c, 1, 61, 0
1, 9360, Note_on_c, 1, 83, 127
1, 9462, Note_off_c, 1, 71, 0
1, 9477, Note_on_c, 1, 73, 127
1, 9555, Note_off_c, 1, 57, 0
1, 9569, Note_off_c, 1, 73, 0
1, 9593, Note_on_c, 1, 56, 127
1, 9605, Note_on_c, 1, 65, 127
1, 9711, Note_on_c, 1, 69, 127
1, 9726, Note_off_c, 1, 56, 0
1, 9738, Note_off_c, 1, 65, 0
1, 9804, Note_off_c, 1, 69, 0
1, 9827, Note_on_c, 1, 68, 127
1, 9836, Note_on_c, 1, 59, 127
1, 9843, Note_on_c, 1, 74, 127
1, 9938, Note_off_c, 1, 59, 0
1, 9947, Note_off_c, 1, 68, 0
1, 9981, Note_off_c, 1, 74, 0
1, 10156, Note_off_c, 1, 83, 0
1, 10428, Note_on_c, 1, 77, 127
1, 10513, Note_off_c, 1, 77, 0
1, 10549, Note_on_c, 1, 54, 127
1, 10643, Note_off_c, 1, 54, 0
1, 10678, Note_on_c, 1, 81, 127
1, 10794, Note_on_c, 1, 62, 127
1, 10879, Note_off_c, 1, 81, 0
1, 10897, Note_off_c, 1, 62, 0
1, 10901, Note_on_c, 1, 80, 127
1, 10989, Note_off_c, 1, 80, 0
1, 11025, Note_on_c, 1, 78, 127
1, 11038, Note_on_c, 1, 61, 127
1, 11043, Note_on_c, 1, 73, 127
1, 11050, Note_on_c, 1, 69, 127
1, 11098, Note_on_c, 1, 77, 127
1, 11110, Note_off_c, 1, 78, 0
1, 11122, Note_on_c, 1, 68, 127
1, 11133, Note_off_c, 1, 69, 0
1, 11146, Note_off_c, 1, 77, 0
1, 11169, Note_off_c, 1, 68, 0
1, 11177, Note_off_c, 1, 61, 0
1, 11217, Note_off_c, 1, 73, 0
1, 11279, Note_on_c, 1, 49, 127
1, 11377, Note_on_c, 1, 70, 127
1, 11416, Note_off_c, 1, 49, 0
1, 11466, Note_off_c, 1, 70, 0
1, 11507, Note_on_c, 1, 73, 127
1, 11513, Note_on_c, 1, 78, 127
1, 11518, Note_on_c, 1, 70, 127
1, 11522, Note_on_c, 1, 42, 127
1, 12017, Note_off_c, 1, 42, 0
1, 12018, Note_off_c, 1, 78, 0
1, 12027, Note_off_c, 1, 70, 0
1, 12029, Note_off_c, 1, 73, 0
1, 12233, Note_on_c, 1, 78, 127
1, 12418, Note_off_c, 1, 78, 0
1, 12462, Note_on_c, 1, 76, 127
1, 12599, Note_on_c, 1, 74, 127
1, 12607, Note_off_c, 1, 76, 0
1, 12829, Note_off_c, 1, 74, 0
1, 12831, Note_on_c, 1, 76, 127
1, 12947, Note_off_c, 1, 76, 0
1, 12951, Note_on_c, 1, 78, 127
1, 12954, Note_on_c, 1, 71, 127
1, 12958, Note_on_c, 1, 62, 127
1, 12962, Note_on_c, 1, 59, 127
1, 13141, Note_off_c, 1, 59, 0
1, 13166, Note_off_c, 1, 78, 0
1, 13210, Note_on_c, 1, 57, 127
1, 13301, Note_off_c, 1, 62, 0
1, 13303, Note_on_c, 1, 61, 127
1, 13306, Note_on_c, 1, 69, 127
1, 13326, Note_on_c, 1, 55, 127
1, 13334, Note_off_c, 1, 57, 0
1, 13384, Note_off_c, 1, 69, 0
1, 13400, Note_off_c, 1, 61, 0
1, 13418, Note_off_c, 1, 71, 0
1, 13437, Note_on_c, 1, 76, 127
1, 13536, Note_on_c, 1, 67, 127
1, 13555, Note_off_c, 1, 55, 0
1, 13610, Note_off_c, 1, 76, 0
1, 13653, Note_off_c, 1, 67, 0
1, 13676, Note_on_c, 1, 66, 127
1, 13687, Note_on_c, 1, 74, 127
1, 13805, Note_off_c, 1, 66, 0
1, 13916, Note_on_c, 1, 52, 127
1, 14112, Note_off_c, 1, 52, 0
1, 14125, Note_off_c, 1, 74, 0
1, 14149, Note_on_c, 1, 57, 127
1, 14153, Note_on_c, 1, 66, 127
1, 14153, Note_on_c, 1, 61, 127
1, 14155, Note_on_c, 1, 73, 127
1, 14263, Note_on_c, 1, 62, 127
1, 14270, Note_on_c, 1, 71, 127
1, 14275, Note_off_c, 1, 61, 0
1, 14282, Note_on_c, 1, 64, 127
1, 14285, Note_off_c, 1, 73, 0
1, 14290, Note_off_c, 1, 66, 0
1, 14323, Note_off_c, 1, 57, 0
1, 14371, Note_off_c, 1, 62, 0
1, 14386, Note_off_c, 1, 71, 0
1, 14395, Note_on_c, 1, 70, 127
1, 14400, Note_on_c, 1, 55, 127
1, 14517, Note_off_c, 1, 70, 0
1, 14828, Note_off_c, 1, 55, 0
1, 14833, Note_off_c, 1, 64, 0
1, 14875, Note_on_c, 1, 54, 127
1, 14878, Note_on_c, 1, 66, 127
1, 14881, Note_on_c, 1, 71, 127
1, 14886, Note_on_c, 1, 58, 127
1, 14997, Note_on_c, 1, 52, 127
1, 15002, Note_off_c, 1, 54, 0
1, 15003, Note_on_c, 1, 73, 127
1, 15008, Note_off_c, 1, 71, 0
1, 15037, Note_off_c, 1, 58, 0
1, 15053, Note_off_c, 1, 66, 0
1, 15106, Note_off_c, 1, 52, 0
1, 15111, Note_on_c, 1, 70, 127
1, 15121, Note_on_c, 1, 50, 127
1, 15199, Note_off_c, 1, 73, 0
1, 15240, Note_off_c, 1, 50, 0
1, 15275, Note_off_c, 1, 70, 0
1, 15345, Note_on_c, 1, 71, 127
1, 15351, Note_on_c, 1, 59, 127
1, 15355, Note_on_c, 1, 78, 127
1, 15356, Note_on_c, 1, 50, 127
1, 15468, Note_on_c, 1, 73, 127
1, 15470, Note_on_c, 1, 52, 127
1, 15475, Note_off_c, 1, 71, 0
1, 15479, Note_off_c, 1, 50, 0
1, 15568, Note_off_c, 1, 52, 0
1, 15570, Note_off_c, 1, 59, 0
1, 15574, Note_off_c, 1, 73, 0
1, 15591, Note_on_c, 1, 58, 127
1, 15596, Note_on_c, 1, 74, 127
1, 15682, Note_off_c, 1, 78, 0
1, 15714, Note_on_c, 1, 79, 127
1, 15721, Note_on_c, 1, 54, 127
1, 15742, Note_off_c, 1, 58, 0
1, 15764, Note_off_c, 1, 74, 0
1, 15811, Note_off_c, 1, 79, 0
1, 15828, Note_on_c, 1, 70, 127
1, 15834, Note_on_c, 1, 66, 127
1, 15847, Note_on_c, 1, 76, 127
1, 15876, Note_on_c, 1, 75, 127
1, 15881, Note_off_c, 1, 76, 0
1, 15911, Note_off_c, 1, 75, 0
1, 15914, Note_off_c, 1, 54, 0
1, 15945, Note_on_c, 1, 47, 127
1, 16001, Note_off_c, 1, 70, 0
1, 16036, Note_off_c, 1, 47, 0
1, 16190, Note_off_c, 1, 66, 0
1, 16193, Note_on_c, 1, 67, 127
1, 16289, Note_off_c, 1, 67, 0
1, 16317, Note_on_c, 1, 69, 127
1, 16425, Note_on_c, 1, 60, 127
1, 16495, Note_off_c, 1, 69, 0
1, 16520, Note_off_c, 1, 60, 0
1, 16558, Note_on_c, 1, 63, 127
1, 16560, Note_on_c, 1, 57, 127
1, 16717, Note_off_c, 1, 63, 0
1, 16764, Note_off_c, 1, 57, 0
1, 16785, Note_on_c, 1, 67, 127
1, 16787, Note_on_c, 1, 76, 127
1, 16790, Note_on_c, 1, 55, 127
1, 16907, Note_off_c, 1, 55, 0
1, 16917, Note_on_c, 1, 83, 127
1, 16918, Note_on_c, 1, 57, 127
1, 16965, Note_off_c, 1, 67, 0
1, 16988, Note_off_c, 1, 83, 0
1, 16997, Note_off_c, 1, 57, 0
1, 17025, Note_on_c, 1, 66, 127
1, 17039, Note_on_c, 1, 81, 127
1, 17152, Note_on_c, 1, 79, 127
1, 17163, Note_on_c, 1, 59, 127
1, 17164, Note_off_c, 1, 81, 0
1, 17188, Note_off_c, 1, 66, 0
1, 17211, Note_off_c, 1, 76, 0
1, 17242, Note_off_c, 1, 79, 0
1, 17267, Note_on_c, 1, 71, 127
1, 17292, Note_off_c, 1, 59, 0
1, 17328, Note_on_c, 1, 75, 127
1, 17359, Note_off_c, 1, 75, 0
1, 17435, Note_on_c, 1, 78, 127
1, 17439, Note_off_c, 1, 71, 0
1, 17456, Note_on_c, 1, 73, 127
1, 17481, Note_off_c, 1, 78, 0
1, 17492, Note_off_c, 1, 73, 0
1, 17505, Note_on_c, 1, 64, 127
1, 17699, Note_off_c, 1, 64, 0
1, 17746, Note_on_c, 1, 62, 127
1, 17746, Note_on_c, 1, 81, 127
1, 17753, Note_on_c, 1, 64, 127
1, 17754, Note_on_c, 1, 71, 127
1, 17833, Note_on_c, 1, 80, 127
1, 17843, Note_off_c, 1, 81, 0
1, 17867, Note_on_c, 1, 61, 127
1, 17868, Note_off_c, 1, 62, 0
1, 17891, Note_off_c, 1, 80, 0
1, 17965, Note_off_c, 1, 61, 0
1, 18116, Note_on_c, 1, 78, 127
1, 18128, Note_off_c, 1, 71, 0
1, 18140, Note_off_c, 1, 64, 0
1, 18161, Note_on_c, 1, 59, 127
1, 18172, Note_off_c, 1, 78, 0
1, 18214, Note_off_c, 1, 59, 0
1, 18226, Note_on_c, 1, 64, 127
1, 18230, Note_on_c, 1, 76, 127
1, 18233, Note_on_c, 1, 61, 127
1, 18236, Note_on_c, 1, 81, 127
1, 18288, Note_on_c, 1, 59, 127
1, 18304, Note_off_c, 1, 61, 0
1, 18337, Note_off_c, 1, 81, 0
1, 18346, Note_on_c, 1, 83, 127
1, 18355, Note_on_c, 1, 57, 127
1, 18366, Note_off_c, 1, 59, 0
1, 18400, Note_off_c, 1, 83, 0
1, 18401, Note_on_c, 1, 85, 127
1, 18406, Note_off_c, 1, 76, 0
1, 18409, Note_off_c, 1, 64, 0
1, 18449, Note_off_c, 1, 85, 0
1, 18452, Note_off_c, 1, 57, 0
1, 18453, Note_on_c, 1, 66, 127
1, 18468, Note_on_c, 1, 83, 127
1, 18471, Note_on_c, 1, 73, 127
1, 18474, Note_on_c, 1, 62, 127
1, 18538, Note_on_c, 1, 64, 127
1, 18550, Note_off_c, 1, 66, 0
1, 18553, Note_on_c, 1, 61, 127
1, 18563, Note_off_c, 1, 62, 0
1, 18583, Note_off_c, 1, 64, 0
1, 18587, Note_off_c, 1, 83, 0
1, 18590, Note_on_c, 1, 82, 127
1, 18605, Note_off_c, 1, 61, 0
1, 18683, Note_off_c, 1, 82, 0
1, 18708, Note_on_c, 1, 80, 127
1, 18820, Note_on_c, 1, 59, 127
1, 18832, Note_off_c, 1, 80, 0
1, 18884, Note_off_c, 1, 73, 0
1, 18884, Note_off_c, 1, 59, 0
1, 18925, Note_on_c, 1, 66, 127
1, 18942, Note_on_c, 1, 62, 127
1, 18951, Note_on_c, 1, 71, 127
1, 18953, Note_on_c, 1, 83, 127
1, 19067, Note_on_c, 1, 64, 127
1, 19073, Note_on_c, 1, 81, 127
1, 19075, Note_off_c, 1, 62, 0
1, 19083, Note_off_c, 1, 83, 0
1, 19144, Note_off_c, 1, 64, 0
1, 19166, Note_off_c, 1, 81, 0
1, 19176, Note_off_c, 1, 66, 0
1, 19188, Note_on_c, 1, 79, 127
1, 19190, Note_on_c, 1, 59, 127
1, 19309, Note_on_c, 1, 78, 127
1, 19315, Note_off_c, 1, 79, 0
1, 19377, Note_off_c, 1, 59, 0
1, 19404, Note_off_c, 1, 78, 0
1, 19431, Note_on_c, 1, 76, 127
1, 19433, Note_on_c, 1, 61, 127
1, 19544, Note_on_c, 1, 74, 127
1, 19549, Note_off_c, 1, 76, 0
1, 19552, Note_off_c, 1, 61, 0
1, 19629, Note_off_c, 1, 74, 0
1, 19697, Note_on_c, 1, 73, 127
1, 19726, Note_off_c, 1, 73, 0
1, 19781, Note_on_c, 1, 67, 127
1, 19871, Note_off_c, 1, 71, 0
1, 19917, Note_on_c, 1, 70, 127
1, 20037, Note_off_c, 1, 70, 0
1, 20116, Note_off_c, 1, 67, 0
1, 20143, Note_on_c, 1, 58, 127
1, 20260, Note_on_c, 1, 56, 127
1, 20271, Note_on_c, 1, 68, 127
1, 20275, Note_off_c, 1, 58, 0
1, 20344, Note_off_c, 1, 56, 0
1, 20364, Note_off_c, 1, 68, 0
1, 20396, Note_on_c, 1, 54, 127
1, 20520, Note_off_c, 1, 54, 0
1, 20637, Note_on_c, 1, 66, 127
1, 20639, Note_on_c, 1, 71, 127
1, 20641, Note_on_c, 1, 56, 127
1, 20650, Note_on_c, 1, 75, 127
1, 20750, Note_on_c, 1, 64, 127
1, 20761, Note_off_c, 1, 66, 0
1, 20764, Note_on_c, 1, 76, 127
1, 20767, Note_on_c, 1, 57, 127
1, 20770, Note_off_c, 1, 75, 0
1, 20779, Note_off_c, 1, 56, 0
1, 20848, Note_off_c, 1, 64, 0
1, 20856, Note_off_c, 1, 76, 0
1, 20875, Note_on_c, 1, 63, 127
1, 20882, Note_on_c, 1, 78, 127
1, 20986, Note_off_c, 1, 63, 0
1, 20988, Note_on_c, 1, 61, 127
1, 20990, Note_off_c, 1, 78, 0
1, 21081, Note_off_c, 1, 61, 0
1, 21129, Note_on_c, 1, 83, 127
1, 21161, Note_on_c, 1, 81, 127
1, 21176, Note_off_c, 1, 83, 0
1, 21204, Note_off_c, 1, 81, 0
1, 21215, Note_off_c, 1, 71, 0
1, 21229, Note_on_c, 1, 73, 127
1, 21301, Note_off_c, 1, 57, 0
1, 21323, Note_off_c, 1, 73, 0
1, 21353, Note_on_c, 1, 65, 127
1, 21469, Note_on_c, 1, 69, 127
1, 21493, Note_off_c, 1, 65, 0
1, 21569, Note_off_c, 1, 69, 0
1, 21587, Note_on_c, 1, 68, 127
1, 21590, Note_on_c, 1, 74, 127
1, 21594, Note_on_c, 1, 59, 127
1, 21702, Note_off_c, 1, 68, 0
1, 21717, Note_off_c, 1, 59, 0
1, 21740, Note_off_c, 1, 74, 0
1, 22184, Note_on_c, 1, 77, 127
1, 22262, Note_off_c, 1, 77, 0
1, 22303, Note_on_c, 1, 54, 127
1, 22409, Note_off_c, 1, 54, 0
1, 22560, Note_on_c, 1, 62, 127
1, 22664, Note_on_c, 1, 80, 127
1, 22690, Note_off_c, 1, 62, 0
1, 22740, Note_off_c, 1, 80, 0
1, 23041, Note_on_c, 1, 49, 127
1, 23144, Note_on_c, 1, 70, 127
1, 23198, Note_off_c, 1, 49, 0
1, 23221, Note_off_c, 1, 70, 0
1, 23258, Note_on_c, 1, 78, 127
1, 23267, Note_on_c, 1, 73, 127
1, 23277, Note_on_c, 1, 42, 127
1, 23278, Note_on_c, 1, 70, 127
1, 23761, Note_off_c, 1, 73, 0
1, 23775, Note_off_c, 1, 70, 0
1, 23778, Note_off_c, 1, 78, 0
1, 23793, Note_off_c, 1, 42, 0
1, 23987, Note_on_c, 1, 73, 127
1, 24176, Note_off_c, 1, 73, 0
1, 24222, Note_on_c, 1, 71, 127
1, 24351, Note_on_c, 1, 70, 127
1, 24365, Note_off_c, 1, 71, 0
1, 24576, Note_off_c, 1, 70, 0
1, 24580, Note_on_c, 1, 71, 127
1, 24705, Note_off_c, 1, 71, 0
1, 24706, Note_on_c, 1, 73, 127
1, 24712, Note_on_c, 1, 54, 127
1, 24716, Note_on_c, 1, 70, 127
1, 24719, Note_on_c, 1, 66, 127
1, 24901, Note_off_c, 1, 54, 0
1, 24916, Note_off_c, 1, 73, 0
1, 24965, Note_on_c, 1, 50, 127
1, 25061, Note_off_c, 1, 70, 0
1, 25063, Note_on_c, 1, 67, 127
1, 25066, Note_on_c, 1, 76, 127
1, 25148, Note_off_c, 1, 66, 0
1, 25162, Note_off_c, 1, 76, 0
1, 25171, Note_off_c, 1, 67, 0
1, 25189, Note_on_c, 1, 78, 127
1, 25196, Note_on_c, 1, 74, 127
1, 25301, Note_on_c, 1, 52, 127
1, 25303, Note_off_c, 1, 50, 0
1, 25306, Note_off_c, 1, 74, 0
1, 25309, Note_on_c, 1, 64, 127
1, 25409, Note_off_c, 1, 64, 0
1, 25422, Note_off_c, 1, 52, 0
1, 25424, Note_on_c, 1, 71, 127
1, 25424, Note_on_c, 1, 62, 127
1, 25515, Note_off_c, 1, 78, 0
1, 25540, Note_on_c, 1, 61, 127
1, 25543, Note_off_c, 1, 71, 0
1, 25551, Note_off_c, 1, 62, 0
1, 25626, Note_off_c, 1, 61, 0
1, 25667, Note_on_c, 1, 59, 127
1, 25667, Note_on_c, 1, 74, 127
1, 25672, Note_on_c, 1, 71, 127
1, 25680, Note_on_c, 1, 47, 127
1, 25784, Note_on_c, 1, 73, 127
1, 25805, Note_off_c, 1, 74, 0
1, 25830, Note_off_c, 1, 59, 0
1, 25837, Note_off_c, 1, 47, 0
1, 25889, Note_off_c, 1, 73, 0
1, 25912, Note_on_c, 1, 76, 127
1, 25915, Note_on_c, 1, 54, 127
1, 26046, Note_off_c, 1, 76, 0
1, 26069, Note_off_c, 1, 54, 0
1, 26153, Note_on_c, 1, 66, 127
1, 26260, Note_on_c, 1, 57, 127
1, 26293, Note_off_c, 1, 66, 0
1, 26345, Note_off_c, 1, 57, 0
1, 26384, Note_on_c, 1, 56, 127
1, 26402, Note_on_c, 1, 64, 127
1, 26494, Note_off_c, 1, 71, 0
1, 26508, Note_on_c, 1, 69, 127
1, 26518, Note_off_c, 1, 56, 0
1, 26603, Note_off_c, 1, 69, 0
1, 26867, Note_on_c, 1, 68, 127
1, 26984, Note_on_c, 1, 52, 127
1, 27008, Note_off_c, 1, 68, 0
1, 27099, Note_off_c, 1, 52, 0
1, 27225, Note_off_c, 1, 64, 0
1, 27470, Note_on_c, 1, 62, 127
1, 27565, Note_off_c, 1, 62, 0
1, 27587, Note_on_c, 1, 61, 127
1, 27598, Note_on_c, 1, 55, 127
1, 27699, Note_off_c, 1, 61, 0
1, 27946, Note_on_c, 1, 67, 127
1, 28037, Note_off_c, 1, 55, 0
1, 28057, Note_off_c, 1, 67, 0
1, 28073, Note_on_c, 1, 69, 127
1, 28077, Note_on_c, 1, 81, 127
1, 28081, Note_on_c, 1, 62, 127
1, 28082, Note_on_c, 1, 54, 127
1, 28183, Note_on_c, 1, 71, 127
1, 28185, Note_off_c, 1, 69, 0
1, 28192, Note_on_c, 1, 55, 127
1, 28208, Note_off_c, 1, 54, 0
1, 28280, Note_off_c, 1, 71, 0
1, 28306, Note_off_c, 1, 55, 0
1, 28313, Note_on_c, 1, 72, 127
1, 28317, Note_on_c, 1, 57, 127
1, 28346, Note_off_c, 1, 81, 0
1, 28388, Note_off_c, 1, 62, 0
1, 28508, Note_off_c, 1, 57, 0
1, 28550, Note_on_c, 1, 50, 127
1, 28655, Note_off_c, 1, 72, 0
1, 28663, Note_on_c, 1, 79, 127
1, 28710, Note_off_c, 1, 50, 0
1, 28731, Note_off_c, 1, 79, 0
1, 28785, Note_on_c, 1, 78, 127
1, 28790, Note_on_c, 1, 74, 127
1, 28919, Note_off_c, 1, 74, 0
1, 28920, Note_off_c, 1, 78, 0
1, 29036, Note_on_c, 1, 66, 127
1, 29183, Note_off_c, 1, 66, 0
1, 29259, Note_on_c, 1, 72, 127
1, 29269, Note_on_c, 1, 67, 127
1, 29276, Note_on_c, 1, 62, 127
1, 29285, Note_on_c, 1, 71, 127
1, 29302, Note_off_c, 1, 72, 0
1, 29328, Note_off_c, 1, 71, 0
1, 29391, Note_on_c, 1, 69, 127
1, 29393, Note_on_c, 1, 60, 127
1, 29408, Note_off_c, 1, 67, 0
1, 29469, Note_off_c, 1, 60, 0
1, 29474, Note_off_c, 1, 69, 0
1, 29522, Note_on_c, 1, 59, 127
1, 29649, Note_off_c, 1, 59, 0
1, 29753, Note_on_c, 1, 83, 127
1, 29754, Note_on_c, 1, 55, 127
1, 29852, Note_off_c, 1, 62, 0
1, 29867, Note_off_c, 1, 55, 0
1, 29867, Note_on_c, 1, 54, 127
1, 29961, Note_off_c, 1, 54, 0
1, 29989, Note_on_c, 1, 61, 127
1, 29992, Note_on_c, 1, 52, 127
1, 29993, Note_on_c, 1, 79, 127
1, 30107, Note_on_c, 1, 78, 127
1, 30108, Note_on_c, 1, 50, 127
1, 30110, Note_off_c, 1, 52, 0
1, 30116, Note_off_c, 1, 61, 0
1, 30119, Note_off_c, 1, 79, 0
1, 30175, Note_off_c, 1, 83, 0
1, 30196, Note_off_c, 1, 78, 0
1, 30215, Note_off_c, 1, 50, 0
1, 30227, Note_on_c, 1, 76, 127
1, 30227, Note_on_c, 1, 64, 127
1, 30231, Note_on_c, 1, 82, 127
1, 30238, Note_on_c, 1, 49, 127
1, 30343, Note_on_c, 1, 83, 127
1, 30343, Note_on_c, 1, 66, 127
1, 30348, Note_on_c, 1, 74, 127
1, 30351, Note_off_c, 1, 64, 0
1, 30353, Note_off_c, 1, 82, 0
1, 30356, Note_off_c, 1, 76, 0
1, 30391, Note_off_c, 1, 49, 0
1, 30438, Note_off_c, 1, 74, 0
1, 30441, Note_off_c, 1, 83, 0
1, 30455, Note_off_c, 1, 66, 0
1, 30464, Note_on_c, 1, 76, 127
1, 30465, Note_on_c, 1, 85, 127
1, 30471, Note_on_c, 1, 67, 127
1, 30489, Note_on_c, 1, 64, 127
1, 30582, Note_on_c, 1, 82, 127
1, 30583, Note_on_c, 1, 73, 127
1, 30589, Note_off_c, 1, 85, 0
1, 30595, Note_off_c, 1, 76, 0
1, 30647, Note_off_c, 1, 67, 0
1, 30671, Note_off_c, 1, 73, 0
1, 30678, Note_off_c, 1, 82, 0
1, 30707, Note_on_c, 1, 70, 127
1, 30712, Note_on_c, 1, 78, 127
1, 30718, Note_on_c, 1, 61, 127
1, 30827, Note_off_c, 1, 70, 0
1, 30858, Note_off_c, 1, 61, 0
1, 30879, Note_off_c, 1, 78, 0
1, 30919, Note_off_c, 1, 64, 0
1, 30953, Note_on_c, 1, 71, 127
1, 30954, Note_on_c, 1, 83, 127
1, 30954, Note_on_c, 1, 66, 127
1, 30954, Note_on_c, 1, 63, 127
1, 31075, Note_on_c, 1, 64, 127
1, 31079, Note_on_c, 1, 73, 127
1, 31080, Note_off_c, 1, 63, 0
1, 31082, Note_off_c, 1, 71, 0
1, 31119, Note_off_c, 1, 83, 0
1, 31183, Note_off_c, 1, 64, 0
1, 31183, Note_off_c, 1, 73, 0
1, 31188, Note_on_c, 1, 81, 127
1, 31208, Note_on_c, 1, 75, 127
1, 31429, Note_on_c, 1, 59, 127
1, 31515, Note_off_c, 1, 75, 0
1, 31520, Note_off_c, 1, 66, 0
1, 31520, Note_off_c, 1, 81, 0
1, 31544, Note_on_c, 1, 79, 127
1, 31546, Note_on_c, 1, 76, 127
1, 31592, Note_on_c, 1, 78, 127
1, 31603, Note_off_c, 1, 76, 0
1, 31609, Note_off_c, 1, 79, 0
1, 31610, Note_off_c, 1, 59, 0
1, 31655, Note_off_c, 1, 78, 0
1, 31918, Note_on_c, 1, 62, 127
1, 32153, Note_on_c, 1, 67, 127
1, 32249, Note_off_c, 1, 62, 0
1, 32268, Note_on_c, 1, 61, 127
1, 32324, Note_off_c, 1, 61, 0
1, 32389, Note_on_c, 1, 70, 127
1, 32499, Note_off_c, 1, 70, 0
1, 32721, Note_off_c, 1, 67, 0
1, 32880, Note_on_c, 1, 58, 127
1, 33115, Note_on_c, 1, 74, 127
1, 33232, Note_off_c, 1, 74, 0
1, 33463, Note_on_c, 1, 49, 127
1, 33535, Note_off_c, 1, 49, 0
1, 33540, Note_off_c, 1, 58, 0
1, 33583, Note_on_c, 1, 47, 127
1, 33587, Note_on_c, 1, 66, 127
1, 33588, Note_on_c, 1, 74, 127
1, 33589, Note_on_c, 1, 59, 127
1, 33700, Note_on_c, 1, 73, 127
1, 33703, Note_on_c, 1, 61, 127
1, 33706, Note_off_c, 1, 47, 0
1, 33706, Note_on_c, 1, 57, 127
1, 33711, Note_off_c, 1, 74, 0
1, 33712, Note_off_c, 1, 59, 0
1, 33752, Note_off_c, 1, 66, 0
1, 33800, Note_off_c, 1, 61, 0
1, 33801, Note_off_c, 1, 73, 0
1, 33807, Note_off_c, 1, 57, 0
1, 33828, Note_on_c, 1, 62, 127
1, 33829, Note_on_c, 1, 71, 127
1, 33832, Note_on_c, 1, 59, 127
1, 33833, Note_on_c, 1, 55, 127
1, 33942, Note_on_c, 1, 70, 127
1, 33947, Note_on_c, 1, 64, 127
1, 33951, Note_off_c, 1, 71, 0
1, 33951, Note_off_c, 1, 55, 0
1, 33951, Note_on_c, 1, 61, 127
1, 33951, Note_on_c, 1, 54, 127
1, 33953, Note_off_c, 1, 59, 0
1, 33959, Note_off_c, 1, 62, 0
1, 34034, Note_off_c, 1, 61, 0
1, 34037, Note_off_c, 1, 70, 0
1, 34041, Note_off_c, 1, 64, 0
1, 34053, Note_off_c, 1, 54, 0
1, 34070, Note_on_c, 1, 62, 127
1, 34074, Note_on_c, 1, 59, 127
1, 34079, Note_on_c, 1, 71, 127
1, 34177, Note_off_c, 1, 59, 0
1, 34190, Note_on_c, 1, 66, 127
1, 34193, Note_on_c, 1, 57, 127
1, 34277, Note_off_c, 1, 57, 0
1, 34283, Note_off_c, 1, 66, 0
1, 34315, Note_on_c, 1, 55, 127
1, 34316, Note_on_c, 1, 64, 127
1, 34388, Note_off_c, 1, 71, 0
1, 34412, Note_off_c, 1, 62, 0
1, 34416, Note_on_c, 1, 73, 127
1, 34418, Note_off_c, 1, 55, 0
1, 34418, Note_on_c, 1, 52, 127
1, 34424, Note_off_c, 1, 64, 0
1, 34427, Note_on_c, 1, 67, 127
1, 34508, Note_off_c, 1, 52, 0
1, 34512, Note_off_c, 1, 73, 0
1, 34538, Note_off_c, 1, 67, 0
1, 34540, Note_on_c, 1, 74, 127
1, 34552, Note_on_c, 1, 54, 127
1, 34557, Note_on_c, 1, 66, 127
1, 34561, Note_on_c, 1, 58, 127
1, 34618, Note_on_c, 1, 73, 127
1, 34634, Note_off_c, 1, 74, 0
1, 34671, Note_off_c, 1, 73, 0
1, 34708, Note_off_c, 1, 54, 0
1, 34722, Note_off_c, 1, 66, 0
1, 34732, Note_off_c, 1, 58, 0
1, 34789, Note_on_c, 1, 42, 127
1, 34883, Note_on_c, 1, 71, 127
1, 34917, Note_off_c, 1, 42, 0
1, 34983, Note_off_c, 1, 71, 0
1, 35015, Note_on_c, 1, 71, 127
1, 35016, Note_on_c, 1, 66, 127
1, 35026, Note_on_c, 1, 47, 127
1, 35027, Note_on_c, 1, 62, 127
1, 35523, Note_off_c, 1, 71, 0
1, 35523, Note_off_c, 1, 66, 0
1, 35535, Note_off_c, 1, 62, 0
1, 35542, Note_off_c, 1, 47, 0
1, 35743, Note_on_c, 1, 73, 127
1, 35917, Note_off_c, 1, 73, 0
1, 35977, Note_on_c, 1, 71, 127
1, 36063, Note_on_c, 1, 70, 127
1, 36076, Note_off_c, 1, 71, 0
1, 36119, Note_off_c, 1, 70, 0
1, 36175, Note_on_c, 1, 71, 127
1, 36199, Note_on_c, 1, 70, 127
1, 36202, Note_off_c, 1, 71, 0
1, 36222, Note_off_c, 1, 70, 0
1, 36478, Note_on_c, 1, 54, 127
1, 36479, Note_on_c, 1, 66, 127
1, 36479, Note_on_c, 1, 73, 127
1, 36480, Note_on_c, 1, 70, 127
1, 36643, Note_off_c, 1, 73, 0
1, 36660, Note_off_c, 1, 54, 0
1, 36705, Note_on_c, 1, 52, 127
1, 36785, Note_on_c, 1, 50, 127
1, 36787, Note_off_c, 1, 52, 0
1, 36803, Note_off_c, 1, 70, 0
1, 36815, Note_on_c, 1, 67, 127
1, 36816, Note_on_c, 1, 76, 127
1, 36823, Note_off_c, 1, 50, 0
1, 36881, Note_off_c, 1, 66, 0
1, 36905, Note_off_c, 1, 76, 0
1, 36924, Note_off_c, 1, 67, 0
1, 36944, Note_on_c, 1, 74, 127
1, 36952, Note_on_c, 1, 78, 127
1, 37063, Note_off_c, 1, 74, 0
1, 37066, Note_on_c, 1, 64, 127
1, 37162, Note_off_c, 1, 64, 0
1, 37176, Note_on_c, 1, 62, 127
1, 37185, Note_on_c, 1, 71, 127
1, 37271, Note_off_c, 1, 78, 0
1, 37302, Note_on_c, 1, 61, 127
1, 37308, Note_off_c, 1, 71, 0
1, 37315, Note_off_c, 1, 62, 0
1, 37387, Note_off_c, 1, 61, 0
1, 37429, Note_on_c, 1, 74, 127
1, 37430, Note_on_c, 1, 47, 127
1, 37432, Note_on_c, 1, 71, 127
1, 37433, Note_on_c, 1, 59, 127
1, 37460, Note_on_c, 1, 70, 127
1, 37468, Note_off_c, 1, 71, 0
1, 37511, Note_off_c, 1, 70, 0
1, 37548, Note_on_c, 1, 73, 127
1, 37550, Note_off_c, 1, 74, 0
1, 37588, Note_off_c, 1, 47, 0
1, 37594, Note_off_c, 1, 59, 0
1, 37632, Note_off_c, 1, 73, 0
1, 37670, Note_on_c, 1, 76, 127
1, 37672, Note_on_c, 1, 54, 127
1, 37806, Note_off_c, 1, 76, 0
1, 37830, Note_off_c, 1, 54, 0
1, 37914, Note_on_c, 1, 66, 127
1, 38019, Note_on_c, 1, 57, 127
1, 38079, Note_off_c, 1, 66, 0
1, 38103, Note_off_c, 1, 57, 0
1, 38146, Note_on_c, 1, 56, 127
1, 38160, Note_on_c, 1, 64, 127
1, 38266, Note_off_c, 1, 56, 0
1, 38268, Note_on_c, 1, 69, 127
1, 38358, Note_off_c, 1, 69, 0
1, 38699, Note_on_c, 1, 68, 127
1, 38745, Note_on_c, 1, 52, 127
1, 38821, Note_off_c, 1, 68, 0
1, 38837, Note_off_c, 1, 52, 0
1, 38968, Note_off_c, 1, 64, 0
1, 39230, Note_on_c, 1, 62, 127
1, 39315, Note_off_c, 1, 62, 0
1, 39348, Note_on_c, 1, 61, 127
1, 39354, Note_on_c, 1, 55, 127
1, 39456, Note_off_c, 1, 61, 0
1, 39704, Note_on_c, 1, 67, 127
1, 39771, Note_off_c, 1, 55, 0
1, 39810, Note_off_c, 1, 67, 0
1, 39830, Note_on_c, 1, 62, 127
1, 39830, Note_on_c, 1, 54, 127
1, 39831, Note_on_c, 1, 69, 127
1, 39836, Note_on_c, 1, 81, 127
1, 39946, Note_off_c, 1, 69, 0
1, 39948, Note_on_c, 1, 71, 127
1, 39949, Note_on_c, 1, 55, 127
1, 39960, Note_off_c, 1, 54, 0
1, 40040, Note_off_c, 1, 55, 0
1, 40047, Note_off_c, 1, 71, 0
1, 40078, Note_on_c, 1, 72, 127
1, 40078, Note_on_c, 1, 57, 127
1, 40129, Note_off_c, 1, 81, 0
1, 40135, Note_off_c, 1, 62, 0
1, 40147, Note_off_c, 1, 57, 0
1, 40236, Note_on_c, 1, 52, 127
1, 40286, Note_off_c, 1, 52, 0
1, 40312, Note_on_c, 1, 50, 127
1, 40402, Note_off_c, 1, 72, 0
1, 40424, Note_on_c, 1, 79, 127
1, 40480, Note_off_c, 1, 50, 0
1, 40498, Note_off_c, 1, 79, 0
1, 40548, Note_on_c, 1, 78, 127
1, 40555, Note_on_c, 1, 74, 127
1, 40682, Note_off_c, 1, 78, 0
1, 40682, Note_off_c, 1, 74, 0
1, 40788, Note_on_c, 1, 66, 127
1, 40955, Note_off_c, 1, 66, 0
1, 41022, Note_on_c, 1, 72, 127
1, 41031, Note_on_c, 1, 62, 127
1, 41036, Note_on_c, 1, 67, 127
1, 41050, Note_on_c, 1, 71, 127
1, 41057, Note_off_c, 1, 72, 0
1, 41084, Note_off_c, 1, 71, 0
1, 41146, Note_on_c, 1, 69, 127
1, 41150, Note_on_c, 1, 60, 127
1, 41183, Note_off_c, 1, 67, 0
1, 41230, Note_off_c, 1, 60, 0
1, 41246, Note_off_c, 1, 69, 0
1, 41274, Note_on_c, 1, 59, 127
1, 41407, Note_off_c, 1, 59, 0
1, 41506, Note_on_c, 1, 55, 127
1, 41511, Note_on_c, 1, 83, 127
1, 41608, Note_off_c, 1, 62, 0
1, 41621, Note_on_c, 1, 54, 127
1, 41623, Note_on_c, 1, 61, 127
1, 41628, Note_off_c, 1, 55, 0
1, 41683, Note_off_c, 1, 61, 0
1, 41715, Note_off_c, 1, 54, 0
1, 41750, Note_on_c, 1, 79, 127
1, 41781, Note_on_c, 1, 52, 127
1, 41811, Note_off_c, 1, 52, 0
1, 41868, Note_on_c, 1, 78, 127
1, 41874, Note_on_c, 1, 50, 127
1, 41879, Note_off_c, 1, 79, 0
1, 41931, Note_off_c, 1, 83, 0
1, 41964, Note_off_c, 1, 78, 0
1, 41982, Note_off_c, 1, 50, 0
1, 41991, Note_on_c, 1, 82, 127
1, 41992, Note_on_c, 1, 64, 127
1, 41993, Note_on_c, 1, 76, 127
1, 41994, Note_on_c, 1, 49, 127
1, 42102, Note_on_c, 1, 83, 127
1, 42107, Note_on_c, 1, 66, 127
1, 42111, Note_off_c, 1, 82, 0
1, 42114, Note_off_c, 1, 64, 0
1, 42116, Note_on_c, 1, 74, 127
1, 42117, Note_off_c, 1, 76, 0
1, 42137, Note_off_c, 1, 49, 0
1, 42200, Note_off_c, 1, 74, 0
1, 42203, Note_off_c, 1, 83, 0
1, 42206, Note_off_c, 1, 66, 0
1, 42230, Note_on_c, 1, 67, 127
1, 42237, Note_on_c, 1, 64, 127
1, 42238, Note_on_c, 1, 76, 127
1, 42238, Note_on_c, 1, 85, 127
1, 42294, Note_on_c, 1, 83, 127
1, 42318, Note_off_c, 1, 85, 0
1, 42342, Note_on_c, 1, 82, 127
1, 42351, Note_off_c, 1, 76, 0
1, 42352, Note_off_c, 1, 83, 0
1, 42353, Note_on_c, 1, 73, 127
1, 42400, Note_on_c, 1, 80, 127
1, 42407, Note_off_c, 1, 82, 0
1, 42417, Note_off_c, 1, 67, 0
1, 42437, Note_off_c, 1, 73, 0
1, 42465, Note_off_c, 1, 80, 0
1, 42469, Note_on_c, 1, 78, 127
1, 42470, Note_on_c, 1, 61, 127
1, 42484, Note_on_c, 1, 70, 127
1, 42600, Note_off_c, 1, 70, 0
1, 42629, Note_off_c, 1, 61, 0
1, 42640, Note_off_c, 1, 64, 0
1, 42647, Note_off_c, 1, 78, 0
1, 42697, Note_on_c, 1, 63, 127
1, 42716, Note_on_c, 1, 71, 127
1, 42718, Note_on_c, 1, 66, 127
1, 42772, Note_off_c, 1, 66, 0
1, 42833, Note_off_c, 1, 63, 0
1, 42836, Note_off_c, 1, 71, 0
1, 42954, Note_on_c, 1, 81, 127
1, 42956, Note_on_c, 1, 75, 127
1, 43187, Note_on_c, 1, 59, 127
1, 43281, Note_off_c, 1, 75, 0
1, 43285, Note_off_c, 1, 81, 0
1, 43316, Note_on_c, 1, 79, 127
1, 43367, Note_off_c, 1, 59, 0
1, 43377, Note_off_c, 1, 79, 0
1, 43425, Note_on_c, 1, 64, 127
1, 43433, Note_on_c, 1, 71, 127
1, 43439, Note_on_c, 1, 79, 127
1, 43554, Note_on_c, 1, 83, 127
1, 43556, Note_off_c, 1, 79, 0
1, 43583, Note_off_c, 1, 64, 0
1, 43608, Note_off_c, 1, 83, 0
1, 43668, Note_on_c, 1, 78, 127
1, 43669, Note_on_c, 1, 62, 127
1, 43672, Note_on_c, 1, 66, 127
1, 43785, Note_off_c, 1, 78, 0
1, 43814, Note_off_c, 1, 66, 0
1, 43910, Note_on_c, 1, 67, 127
1, 43921, Note_on_c, 1, 76, 127
1, 43999, Note_off_c, 1, 71, 0
1, 44001, Note_off_c, 1, 62, 0
1, 44022, Note_on_c, 1, 61, 127
1, 44066, Note_on_c, 1, 59, 127
1, 44080, Note_off_c, 1, 61, 0
1, 44110, Note_off_c, 1, 59, 0
1, 44144, Note_on_c, 1, 70, 127
1, 44278, Note_off_c, 1, 70, 0
1, 44494, Note_off_c, 1, 76, 0
1, 44505, Note_on_c, 1, 73, 127
1, 44585, Note_off_c, 1, 67, 0
1, 44650, Note_on_c, 1, 58, 127
1, 44720, Note_off_c, 1, 73, 0
1, 44876, Note_on_c, 1, 74, 127
1, 44990, Note_off_c, 1, 74, 0
1, 45215, Note_on_c, 1, 49, 127
1, 45283, Note_off_c, 1, 49, 0
1, 45300, Note_off_c, 1, 58, 0
1, 45338, Note_on_c, 1, 47, 127
1, 45342, Note_on_c, 1, 66, 127
1, 45345, Note_on_c, 1, 74, 127
1, 45350, Note_on_c, 1, 59, 127
1, 45455, Note_off_c, 1, 47, 0
1, 45456, Note_on_c, 1, 73, 127
1, 45457, Note_off_c, 1, 74, 0
1, 45464, Note_on_c, 1, 61, 127
1, 45464, Note_on_c, 1, 57, 127
1, 45471, Note_off_c, 1, 59, 0
1, 45497, Note_off_c, 1, 66, 0
1, 45542, Note_off_c, 1, 73, 0
1, 45560, Note_off_c, 1, 57, 0
1, 45569, Note_off_c, 1, 61, 0
1, 45580, Note_on_c, 1, 59, 127
1, 45584, Note_on_c, 1, 62, 127
1, 45585, Note_on_c, 1, 55, 127
1, 45586, Note_on_c, 1, 71, 127
1, 45692, Note_off_c, 1, 55, 0
1, 45698, Note_on_c, 1, 54, 127
1, 45703, Note_on_c, 1, 61, 127
1, 45705, Note_on_c, 1, 64, 127
1, 45706, Note_off_c, 1, 62, 0
1, 45708, Note_on_c, 1, 70, 127
1, 45711, Note_off_c, 1, 59, 0
1, 45717, Note_off_c, 1, 71, 0
1, 45784, Note_off_c, 1, 70, 0
1, 45801, Note_off_c, 1, 61, 0
1, 45803, Note_off_c, 1, 54, 0
1, 45804, Note_off_c, 1, 64, 0
1, 45825, Note_on_c, 1, 62, 127
1, 45829, Note_on_c, 1, 59, 127
1, 45841, Note_on_c, 1, 71, 127
1, 45869, Note_on_c, 1, 70, 127
1, 45883, Note_off_c, 1, 71, 0
1, 45908, Note_off_c, 1, 70, 0
1, 45930, Note_off_c, 1, 59, 0
1, 45936, Note_on_c, 1, 66, 127
1, 45947, Note_on_c, 1, 57, 127
1, 46027, Note_off_c, 1, 66, 0
1, 46027, Note_off_c, 1, 57, 0
1, 46067, Note_on_c, 1, 55, 127
1, 46070, Note_on_c, 1, 64, 127
1, 46152, Note_off_c, 1, 62, 0
1, 46164, Note_off_c, 1, 55, 0
1, 46175, Note_on_c, 1, 52, 127
1, 46190, Note_on_c, 1, 67, 127
1, 46196, Note_on_c, 1, 73, 127
1, 46267, Note_off_c, 1, 52, 0
1, 46272, Note_off_c, 1, 64, 0
1, 46295, Note_off_c, 1, 73, 0
1, 46311, Note_off_c, 1, 67, 0
1, 46318, Note_on_c, 1, 54, 127
1, 46318, Note_on_c, 1, 74, 127
1, 46321, Note_on_c, 1, 59, 127
1, 46323, Note_on_c, 1, 66, 127
1, 46395, Note_on_c, 1, 73, 127
1, 46401, Note_off_c, 1, 74, 0
1, 46404, Note_on_c, 1, 58, 127
1, 46409, Note_off_c, 1, 59, 0
1, 46434, Note_off_c, 1, 73, 0
1, 46435, Note_off_c, 1, 58, 0
1, 46459, Note_off_c, 1, 66, 0
1, 46480, Note_off_c, 1, 54, 0
1, 46560, Note_on_c, 1, 42, 127
1, 46663, Note_on_c, 1, 71, 127
1, 46703, Note_off_c, 1, 42, 0
1, 46730, Note_off_c, 1, 71, 0
1, 46787, Note_on_c, 1, 66, 127
1, 46789, Note_on_c, 1, 71, 127
1, 46792, Note_on_c, 1, 62, 127
1, 46804, Note_on_c, 1, 47, 127
1, 47530, Note_off_c, 1, 71, 0
1, 47531, Note_off_c, 1, 62, 0
1, 47535, Note_off_c, 1, 47, 0
1, 47545, Note_off_c, 1, 66, 0
1, 47545, End_track
0, 0, End_of_file