0, 0, Header, 1, 1, 480
1, 0, Start_track
1, 0, Title_t, "Test"
1, 0, Tempo, 500000
1, 0, Instrument_name_t, "Church Organ"
1, 0, Note_on_c, 1, 49, 127
1, 48, Note_on_c, 1, 73, 127
1, 48, Note_on_c, 1, 68, 127
1, 48, Note_on_c, 1, 64, 127
1, 89, Note_off_c, 1, 49, 0
1, 93, Note_off_c, 1, 73, 0
1, 93, Note_off_c, 1, 68, 0
1, 93, Note_off_c, 1, 64, 0
1, 96, Note_on_c, 1, 73, 127
1, 96, Note_on_c, 1, 68, 127
1, 96, Note_on_c, 1, 64, 127
1, 96, Note_on_c, 1, 61, 127
1, 141, Note_off_c, 1, 73, 0
1, 141, Note_off_c, 1, 68, 0
1, 141, Note_off_c, 1, 64, 0
1, 185, Note_off_c, 1, 61, 0
1, 192, Note_on_c, 1, 73, 127
1, 192, Note_on_c, 1, 68, 127
1, 192, Note_on_c, 1, 64, 127
1, 192, Note_on_c, 1, 61, 127
1, 237, Note_off_c, 1, 73, 0
1, 237, Note_off_c, 1, 68, 0
1, 237, Note_off_c, 1, 64, 0
1, 281, Note_off_c, 1, 61, 0
1, 288, Note_on_c, 1, 45, 127
1, 336, Note_on_c, 1, 73, 127
1, 336, Note_on_c, 1, 69, 127
1, 336, Note_on_c, 1, 64, 127
1, 377, Note_off_c, 1, 45, 0
1, 381, Note_off_c, 1, 73, 0
1, 381, Note_off_c, 1, 69, 0
1, 381, Note_off_c, 1, 64, 0
1, 384, Note_on_c, 1, 73, 127
1, 384, Note_on_c, 1, 69, 127
1, 384, Note_on_c, 1, 64, 127
1, 384, Note_on_c, 1, 57, 127
1, 429, Note_off_c, 1, 73, 0
1, 429, Note_off_c, 1, 69, 0
1, 429, Note_off_c, 1, 64, 0
1, 473, Note_off_c, 1, 57, 0
1, 480, Note_on_c, 1, 73, 127
1, 480, Note_on_c, 1, 69, 127
1, 480, Note_on_c, 1, 64, 127
1, 480, Note_on_c, 1, 56, 127
1, 525, Note_off_c, 1, 73, 0
1, 525, Note_off_c, 1, 69, 0
1, 525, Note_off_c, 1, 64, 0
1, 569, Note_off_c, 1, 56, 0
1, 576, Note_on_c, 1, 42, 127
1, 624, Note_on_c, 1, 73, 127
1, 624, Note_on_c, 1, 69, 127
1, 624, Note_on_c, 1, 66, 127
1, 665, Note_off_c, 1, 42, 0
1, 669, Note_off_c, 1, 73, 0
1, 669, Note_off_c, 1, 69, 0
1, 669, Note_off_c, 1, 66, 0
1, 672, Note_on_c, 1, 73, 127
1, 672, Note_on_c, 1, 69, 127
1, 672, Note_on_c, 1, 66, 127
1, 672, Note_on_c, 1, 54, 127
1, 717, Note_off_c, 1, 73, 0
1, 717, Note_off_c, 1, 69, 0
1, 717, Note_off_c, 1, 66, 0
1, 761, Note_off_c, 1, 54, 0
1, 768, Note_on_c, 1, 73, 127
1, 768, Note_on_c, 1, 69, 127
1, 768, Note_on_c, 1, 66, 127
1, 768, Note_on_c, 1, 52, 127
1, 813, Note_off_c, 1, 73, 0
1, 813, Note_off_c, 1, 69, 0
1, 813, Note_off_c, 1, 66, 0
1, 857, Note_off_c, 1, 52, 0
1, 864, Note_on_c, 1, 51, 127
1, 912, Note_on_c, 1, 72, 127
1, 912, Note_on_c, 1, 69, 127
1, 912, Note_on_c, 1, 66, 127
1, 953, Note_off_c, 1, 51, 0
1, 957, Note_off_c, 1, 72, 0
1, 957, Note_off_c, 1, 69, 0
1, 957, Note_off_c, 1, 66, 0
1, 960, Note_on_c, 1, 72, 127
1, 960, Note_on_c, 1, 68, 127
1, 960, Note_on_c, 1, 66, 127
1, 960, Note_on_c, 1, 56, 127
1, 1005, Note_off_c, 1, 72, 0
1, 1005, Note_off_c, 1, 68, 0
1, 1005, Note_off_c, 1, 66, 0
1, 1049, Note_off_c, 1, 56, 0
1, 1056, Note_on_c, 1, 72, 127
1, 1056, Note_on_c, 1, 68, 127
1, 1056, Note_on_c, 1, 66, 127
1, 1056, Note_on_c, 1, 44, 127
1, 1101, Note_off_c, 1, 72, 0
1, 1101, Note_off_c, 1, 68, 0
1, 1101, Note_off_c, 1, 66, 0
1, 1145, Note_off_c, 1, 44, 0
1, 1152, Note_on_c, 1, 68, 127
1, 1152, Note_on_c, 1, 49, 127
1, 1200, Note_on_c, 1, 73, 127
1, 1200, Note_on_c, 1, 64, 127
1, 1241, Note_off_c, 1, 49, 0
1, 1245, Note_off_c, 1, 68, 0
1, 1245, Note_off_c, 1, 73, 0
1, 1245, Note_off_c, 1, 64, 0
1, 1248, Note_on_c, 1, 73, 127
1, 1248, Note_on_c, 1, 68, 127
1, 1248, Note_on_c, 1, 64, 127
1, 1248, Note_on_c, 1, 61, 127
1, 1293, Note_off_c, 1, 73, 0
1, 1293, Note_off_c, 1, 68, 0
1, 1293, Note_off_c, 1, 64, 0
1, 1312, Note_on_c, 1, 70, 127
1, 1327, Note_off_c, 1, 70, 0
1, 1328, Note_on_c, 1, 72, 127
1, 1337, Note_off_c, 1, 61, 0
1, 1343, Note_off_c, 1, 72, 0
1, 1344, Note_on_c, 1, 73, 127
1, 1344, Note_on_c, 1, 68, 127
1, 1344, Note_on_c, 1, 64, 127
1, 1344, Note_on_c, 1, 59, 127
1, 1360, Note_on_c, 1, 75, 127
1, 1375, Note_off_c, 1, 75, 0
1, 1376, Note_on_c, 1, 76, 127
1, 1389, Note_off_c, 1, 73, 0
1, 1389, Note_off_c, 1, 68, 0
1, 1389, Note_off_c, 1, 64, 0
1, 1391, Note_off_c, 1, 76, 0
1, 1408, Note_on_c, 1, 78, 127
1, 1423, Note_off_c, 1, 78, 0
1, 1424, Note_on_c, 1, 80, 127
1, 1433, Note_off_c, 1, 59, 0
1, 1439, Note_off_c, 1, 80, 0
1, 1440, Note_on_c, 1, 80, 127
1, 1440, Note_on_c, 1, 45, 127
1, 1455, Note_off_c, 1, 80, 0
1, 1456, Note_on_c, 1, 78, 127
1, 1471, Note_off_c, 1, 78, 0
1, 1472, Note_on_c, 1, 76, 127
1, 1487, Note_off_c, 1, 76, 0
1, 1488, Note_on_c, 1, 73, 127
1, 1488, Note_on_c, 1, 69, 127
1, 1488, Note_on_c, 1, 64, 127
1, 1504, Note_on_c, 1, 75, 127
1, 1519, Note_off_c, 1, 75, 0
1, 1529, Note_off_c, 1, 45, 0
1, 1533, Note_off_c, 1, 69, 0
1, 1533, Note_off_c, 1, 64, 0
1, 1535, Note_off_c, 1, 73, 0
1, 1536, Note_on_c, 1, 73, 127
1, 1536, Note_on_c, 1, 69, 127
1, 1536, Note_on_c, 1, 64, 127
1, 1536, Note_on_c, 1, 57, 127
1, 1581, Note_off_c, 1, 69, 0
1, 1581, Note_off_c, 1, 64, 0
1, 1625, Note_off_c, 1, 57, 0
1, 1632, Note_on_c, 1, 56, 127
1, 1721, Note_off_c, 1, 56, 0
1, 1725, Note_off_c, 1, 73, 0
1, 1728, Note_on_c, 1, 42, 127
1, 1776, Note_on_c, 1, 73, 127
1, 1776, Note_on_c, 1, 69, 127
1, 1776, Note_on_c, 1, 66, 127
1, 1792, Note_on_c, 1, 75, 127
1, 1807, Note_off_c, 1, 75, 0
1, 1808, Note_on_c, 1, 77, 127
1, 1817, Note_off_c, 1, 42, 0
1, 1821, Note_off_c, 1, 73, 0
1, 1821, Note_off_c, 1, 69, 0
1, 1821, Note_off_c, 1, 66, 0
1, 1823, Note_off_c, 1, 77, 0
1, 1824, Note_on_c, 1, 78, 127
1, 1824, Note_on_c, 1, 73, 127
1, 1824, Note_on_c, 1, 69, 127
1, 1824, Note_on_c, 1, 66, 127
1, 1824, Note_on_c, 1, 54, 127
1, 1839, Note_off_c, 1, 78, 0
1, 1840, Note_on_c, 1, 80, 127
1, 1855, Note_off_c, 1, 80, 0
1, 1856, Note_on_c, 1, 81, 127
1, 1869, Note_off_c, 1, 73, 0
1, 1869, Note_off_c, 1, 69, 0
1, 1869, Note_off_c, 1, 66, 0
1, 1871, Note_off_c, 1, 81, 0
1, 1888, Note_on_c, 1, 83, 127
1, 1903, Note_off_c, 1, 83, 0
1, 1904, Note_on_c, 1, 85, 127
1, 1913, Note_off_c, 1, 54, 0
1, 1919, Note_off_c, 1, 85, 0
1, 1920, Note_on_c, 1, 85, 127
1, 1920, Note_on_c, 1, 73, 127
1, 1920, Note_on_c, 1, 69, 127
1, 1920, Note_on_c, 1, 66, 127
1, 1920, Note_on_c, 1, 52, 127
1, 1935, Note_off_c, 1, 85, 0
1, 1936, Note_on_c, 1, 83, 127
1, 1951, Note_off_c, 1, 83, 0
1, 1952, Note_on_c, 1, 81, 127
1, 1965, Note_off_c, 1, 73, 0
1, 1965, Note_off_c, 1, 69, 0
1, 1965, Note_off_c, 1, 66, 0
1, 1967, Note_off_c, 1, 81, 0
1, 1984, Note_on_c, 1, 80, 127
1, 1999, Note_off_c, 1, 80, 0
1, 2000, Note_on_c, 1, 78, 127
1, 2009, Note_off_c, 1, 52, 0
1, 2015, Note_off_c, 1, 78, 0
1, 2016, Note_on_c, 1, 78, 127
1, 2016, Note_on_c, 1, 51, 127
1, 2031, Note_off_c, 1, 78, 0
1, 2032, Note_on_c, 1, 76, 127
1, 2047, Note_off_c, 1, 76, 0
1, 2048, Note_on_c, 1, 75, 127
1, 2063, Note_off_c, 1, 75, 0
1, 2064, Note_on_c, 1, 72, 127
1, 2064, Note_on_c, 1, 69, 127
1, 2064, Note_on_c, 1, 66, 127
1, 2080, Note_on_c, 1, 73, 127
1, 2095, Note_off_c, 1, 73, 0
1, 2105, Note_off_c, 1, 51, 0
1, 2109, Note_off_c, 1, 69, 0
1, 2109, Note_off_c, 1, 66, 0
1, 2111, Note_off_c, 1, 72, 0
1, 2112, Note_on_c, 1, 72, 127
1, 2112, Note_on_c, 1, 68, 127
1, 2112, Note_on_c, 1, 66, 127
1, 2112, Note_on_c, 1, 56, 127
1, 2136, Note_on_c, 1, 81, 127
1, 2157, Note_off_c, 1, 72, 0
1, 2157, Note_off_c, 1, 68, 0
1, 2157, Note_off_c, 1, 66, 0
1, 2159, Note_off_c, 1, 81, 0
1, 2160, Note_on_c, 1, 80, 127
1, 2201, Note_off_c, 1, 56, 0
1, 2208, Note_on_c, 1, 44, 127
1, 2231, Note_off_c, 1, 80, 0
1, 2232, Note_on_c, 1, 76, 127
1, 2255, Note_off_c, 1, 76, 0
1, 2256, Note_on_c, 1, 78, 127
1, 2279, Note_off_c, 1, 78, 0
1, 2280, Note_on_c, 1, 75, 127
1, 2297, Note_off_c, 1, 44, 0
1, 2303, Note_off_c, 1, 75, 0
1, 2304, Note_on_c, 1, 76, 127
1, 2304, Note_on_c, 1, 73, 127
1, 2304, Note_on_c, 1, 68, 127
1, 2304, Note_on_c, 1, 64, 127
1, 2304, Note_on_c, 1, 49, 127
1, 2327, Note_off_c, 1, 76, 0
1, 2328, Note_on_c, 1, 72, 127
1, 2349, Note_off_c, 1, 73, 0
1, 2349, Note_off_c, 1, 68, 0
1, 2349, Note_off_c, 1, 64, 0
1, 2351, Note_off_c, 1, 72, 0
1, 2393, Note_off_c, 1, 49, 0
1, 2400, Note_on_c, 1, 69, 127
1, 2400, Note_on_c, 1, 76, 127
1, 2400, Note_on_c, 1, 73, 127
1, 2400, Note_on_c, 1, 61, 127
1, 2424, Note_on_c, 1, 68, 127
1, 2445, Note_off_c, 1, 69, 0
1, 2445, Note_off_c, 1, 76, 0
1, 2445, Note_off_c, 1, 73, 0
1, 2447, Note_off_c, 1, 68, 0
1, 2448, Note_on_c, 1, 78, 127
1, 2448, Note_on_c, 1, 75, 127
1, 2489, Note_off_c, 1, 61, 0
1, 2493, Note_off_c, 1, 78, 0
1, 2493, Note_off_c, 1, 75, 0
1, 2496, Note_on_c, 1, 75, 127
1, 2496, Note_on_c, 1, 80, 127
1, 2496, Note_on_c, 1, 68, 127
1, 2496, Note_on_c, 1, 59, 127
1, 2520, Note_on_c, 1, 81, 127
1, 2541, Note_off_c, 1, 75, 0
1, 2541, Note_off_c, 1, 80, 0
1, 2541, Note_off_c, 1, 68, 0
1, 2543, Note_off_c, 1, 81, 0
1, 2568, Note_on_c, 1, 76, 127
1, 2585, Note_off_c, 1, 59, 0
1, 2591, Note_off_c, 1, 76, 0
1, 2592, Note_on_c, 1, 73, 127
1, 2592, Note_on_c, 1, 45, 127
1, 2615, Note_off_c, 1, 73, 0
1, 2616, Note_on_c, 1, 68, 127
1, 2639, Note_off_c, 1, 68, 0
1, 2640, Note_on_c, 1, 69, 127
1, 2640, Note_on_c, 1, 64, 127
1, 2681, Note_off_c, 1, 45, 0
1, 2685, Note_off_c, 1, 69, 0
1, 2685, Note_off_c, 1, 64, 0
1, 2688, Note_on_c, 1, 66, 127
1, 2688, Note_on_c, 1, 73, 127
1, 2688, Note_on_c, 1, 69, 127
1, 2688, Note_on_c, 1, 57, 127
1, 2712, Note_on_c, 1, 64, 127
1, 2733, Note_off_c, 1, 66, 0
1, 2733, Note_off_c, 1, 73, 0
1, 2733, Note_off_c, 1, 69, 0
1, 2735, Note_off_c, 1, 64, 0
1, 2736, Note_on_c, 1, 75, 127
1, 2736, Note_on_c, 1, 71, 127
1, 2777, Note_off_c, 1, 57, 0
1, 2781, Note_off_c, 1, 75, 0
1, 2781, Note_off_c, 1, 71, 0
1, 2784, Note_on_c, 1, 71, 127
1, 2784, Note_on_c, 1, 76, 127
1, 2784, Note_on_c, 1, 64, 127
1, 2784, Note_on_c, 1, 56, 127
1, 2808, Note_on_c, 1, 78, 127
1, 2829, Note_off_c, 1, 71, 0
1, 2829, Note_off_c, 1, 76, 0
1, 2829, Note_off_c, 1, 64, 0
1, 2831, Note_off_c, 1, 78, 0
1, 2856, Note_on_c, 1, 73, 127
1, 2873, Note_off_c, 1, 56, 0
1, 2879, Note_off_c, 1, 73, 0
1, 2880, Note_on_c, 1, 69, 127
1, 2880, Note_on_c, 1, 42, 127
1, 2903, Note_off_c, 1, 69, 0
1, 2904, Note_on_c, 1, 64, 127
1, 2927, Note_off_c, 1, 64, 0
1, 2928, Note_on_c, 1, 66, 127
1, 2928, Note_on_c, 1, 61, 127
1, 2969, Note_off_c, 1, 42, 0
1, 2973, Note_off_c, 1, 66, 0
1, 2973, Note_off_c, 1, 61, 0
1, 2976, Note_on_c, 1, 63, 127
1, 2976, Note_on_c, 1, 69, 127
1, 2976, Note_on_c, 1, 66, 127
1, 2976, Note_on_c, 1, 54, 127
1, 3000, Note_on_c, 1, 64, 127
1, 3021, Note_off_c, 1, 63, 0
1, 3021, Note_off_c, 1, 69, 0
1, 3021, Note_off_c, 1, 66, 0
1, 3023, Note_off_c, 1, 64, 0
1, 3065, Note_off_c, 1, 54, 0
1, 3072, Note_on_c, 1, 73, 127
1, 3072, Note_on_c, 1, 69, 127
1, 3072, Note_on_c, 1, 66, 127
1, 3072, Note_on_c, 1, 61, 127
1, 3072, Note_on_c, 1, 52, 127
1, 3095, Note_off_c, 1, 73, 0
1, 3096, Note_on_c, 1, 75, 127
1, 3117, Note_off_c, 1, 69, 0
1, 3117, Note_off_c, 1, 66, 0
1, 3117, Note_off_c, 1, 61, 0
1, 3119, Note_off_c, 1, 75, 0
1, 3120, Note_on_c, 1, 76, 127
1, 3143, Note_off_c, 1, 76, 0
1, 3144, Note_on_c, 1, 81, 127
1, 3161, Note_off_c, 1, 52, 0
1, 3167, Note_off_c, 1, 81, 0
1, 3168, Note_on_c, 1, 71, 127
1, 3168, Note_on_c, 1, 51, 127
1, 3213, Note_off_c, 1, 71, 0
1, 3216, Note_on_c, 1, 81, 127
1, 3216, Note_on_c, 1, 69, 127
1, 3216, Note_on_c, 1, 66, 127
1, 3216, Note_on_c, 1, 59, 127
1, 3231, Note_off_c, 1, 81, 0
1, 3232, Note_on_c, 1, 80, 127
1, 3247, Note_off_c, 1, 80, 0
1, 3248, Note_on_c, 1, 78, 127
1, 3257, Note_off_c, 1, 51, 0
1, 3261, Note_off_c, 1, 69, 0
1, 3261, Note_off_c, 1, 66, 0
1, 3261, Note_off_c, 1, 59, 0
1, 3263, Note_off_c, 1, 78, 0
1, 3264, Note_on_c, 1, 78, 127
1, 3264, Note_on_c, 1, 69, 127
1, 3264, Note_on_c, 1, 66, 127
1, 3264, Note_on_c, 1, 63, 127
1, 3264, Note_on_c, 1, 47, 127
1, 3279, Note_off_c, 1, 78, 0
1, 3280, Note_on_c, 1, 76, 127
1, 3295, Note_off_c, 1, 76, 0
1, 3296, Note_on_c, 1, 75, 127
1, 3309, Note_off_c, 1, 69, 0
1, 3309, Note_off_c, 1, 66, 0
1, 3309, Note_off_c, 1, 63, 0
1, 3311, Note_off_c, 1, 75, 0
1, 3328, Note_on_c, 1, 73, 127
1, 3343, Note_off_c, 1, 73, 0
1, 3344, Note_on_c, 1, 71, 127
1, 3353, Note_off_c, 1, 47, 0
1, 3359, Note_off_c, 1, 71, 0
1, 3360, Note_on_c, 1, 71, 127
1, 3360, Note_on_c, 1, 69, 127
1, 3360, Note_on_c, 1, 66, 127
1, 3360, Note_on_c, 1, 59, 127
1, 3360, Note_on_c, 1, 51, 127
1, 3375, Note_off_c, 1, 71, 0
1, 3392, Note_on_c, 1, 68, 127
1, 3405, Note_off_c, 1, 69, 0
1, 3405, Note_off_c, 1, 66, 0
1, 3405, Note_off_c, 1, 59, 0
1, 3407, Note_off_c, 1, 68, 0
1, 3432, Note_on_c, 1, 78, 127
1, 3449, Note_off_c, 1, 51, 0
1, 3455, Note_off_c, 1, 78, 0
1, 3456, Note_on_c, 1, 68, 127
1, 3456, Note_on_c, 1, 59, 127
1, 3456, Note_on_c, 1, 71, 127
1, 3456, Note_on_c, 1, 64, 127
1, 3456, Note_on_c, 1, 52, 127
1, 3504, Note_on_c, 1, 76, 127
1, 3516, Note_off_c, 1, 76, 0
1, 3545, Note_off_c, 1, 59, 0
1, 3545, Note_off_c, 1, 52, 0
1, 3552, Note_off_c, 1, 71, 0
1, 3564, Note_off_c, 1, 68, 0
1, 3616, Note_on_c, 1, 73, 127
1, 3631, Note_off_c, 1, 73, 0
1, 3632, Note_on_c, 1, 75, 127
1, 3641, Note_off_c, 1, 64, 0
1, 3647, Note_off_c, 1, 75, 0
1, 3648, Note_on_c, 1, 68, 127
1, 3648, Note_on_c, 1, 76, 127
1, 3648, Note_on_c, 1, 63, 127
1, 3660, Note_off_c, 1, 68, 0
1, 3664, Note_on_c, 1, 78, 127
1, 3679, Note_off_c, 1, 78, 0
1, 3680, Note_on_c, 1, 80, 127
1, 3693, Note_off_c, 1, 76, 0
1, 3695, Note_off_c, 1, 80, 0
1, 3712, Note_on_c, 1, 81, 127
1, 3727, Note_off_c, 1, 81, 0
1, 3728, Note_on_c, 1, 83, 127
1, 3737, Note_off_c, 1, 63, 0
1, 3743, Note_off_c, 1, 83, 0
1, 3744, Note_on_c, 1, 83, 127
1, 3744, Note_on_c, 1, 49, 127
1, 3759, Note_off_c, 1, 83, 0
1, 3760, Note_on_c, 1, 81, 127
1, 3775, Note_off_c, 1, 81, 0
1, 3776, Note_on_c, 1, 80, 127
1, 3791, Note_off_c, 1, 80, 0
1, 3792, Note_on_c, 1, 68, 127
1, 3792, Note_on_c, 1, 76, 127
1, 3808, Note_on_c, 1, 78, 127
1, 3823, Note_off_c, 1, 78, 0
1, 3833, Note_off_c, 1, 49, 0
1, 3837, Note_off_c, 1, 68, 0
1, 3839, Note_off_c, 1, 76, 0
1, 3840, Note_on_c, 1, 68, 127
1, 3840, Note_on_c, 1, 76, 127
1, 3840, Note_on_c, 1, 61, 127
1, 3885, Note_off_c, 1, 68, 0
1, 3929, Note_off_c, 1, 61, 0
1, 3936, Note_on_c, 1, 59, 127
1, 4025, Note_off_c, 1, 59, 0
1, 4029, Note_off_c, 1, 76, 0
1, 4032, Note_on_c, 1, 45, 127
1, 4080, Note_on_c, 1, 73, 127
1, 4080, Note_on_c, 1, 76, 127
1, 4080, Note_on_c, 1, 64, 127
1, 4095, Note_off_c, 1, 64, 0
1, 4096, Note_on_c, 1, 66, 127
1, 4111, Note_off_c, 1, 66, 0
1, 4112, Note_on_c, 1, 68, 127
1, 4121, Note_off_c, 1, 45, 0
1, 4125, Note_off_c, 1, 73, 0
1, 4125, Note_off_c, 1, 76, 0
1, 4127, Note_off_c, 1, 68, 0
1, 4128, Note_on_c, 1, 73, 127
1, 4128, Note_on_c, 1, 76, 127
1, 4128, Note_on_c, 1, 69, 127
1, 4128, Note_on_c, 1, 57, 127
1, 4143, Note_off_c, 1, 69, 0
1, 4144, Note_on_c, 1, 71, 127
1, 4159, Note_off_c, 1, 71, 0
1, 4173, Note_off_c, 1, 76, 0
1, 4175, Note_off_c, 1, 73, 0
1, 4192, Note_on_c, 1, 75, 127
1, 4207, Note_off_c, 1, 75, 0
1, 4217, Note_off_c, 1, 57, 0
1, 4224, Note_on_c, 1, 71, 127
1, 4224, Note_on_c, 1, 76, 127
1, 4224, Note_on_c, 1, 56, 127
1, 4240, Note_on_c, 1, 75, 127
1, 4255, Note_off_c, 1, 75, 0
1, 4256, Note_on_c, 1, 73, 127
1, 4269, Note_off_c, 1, 71, 0
1, 4269, Note_off_c, 1, 76, 0
1, 4271, Note_off_c, 1, 73, 0
1, 4304, Note_on_c, 1, 69, 127
1, 4313, Note_off_c, 1, 56, 0
1, 4319, Note_off_c, 1, 69, 0
1, 4320, Note_on_c, 1, 69, 127
1, 4320, Note_on_c, 1, 54, 127
1, 4335, Note_off_c, 1, 69, 0
1, 4336, Note_on_c, 1, 68, 127
1, 4351, Note_off_c, 1, 68, 0
1, 4352, Note_on_c, 1, 66, 127
1, 4367, Note_off_c, 1, 66, 0
1, 4368, Note_on_c, 1, 75, 127
1, 4384, Note_on_c, 1, 64, 127
1, 4399, Note_off_c, 1, 64, 0
1, 4400, Note_on_c, 1, 63, 127
1, 4409, Note_off_c, 1, 54, 0
1, 4413, Note_off_c, 1, 75, 0
1, 4415, Note_off_c, 1, 63, 0
1, 4416, Note_on_c, 1, 66, 127
1, 4416, Note_on_c, 1, 75, 127
1, 4416, Note_on_c, 1, 63, 127
1, 4416, Note_on_c, 1, 59, 127
1, 4461, Note_off_c, 1, 66, 0
1, 4461, Note_off_c, 1, 75, 0
1, 4461, Note_off_c, 1, 63, 0
1, 4464, Note_on_c, 1, 73, 127
1, 4487, Note_off_c, 1, 73, 0
1, 4488, Note_on_c, 1, 71, 127
1, 4505, Note_off_c, 1, 59, 0
1, 4512, Note_on_c, 1, 47, 127
1, 4535, Note_off_c, 1, 71, 0
1, 4536, Note_on_c, 1, 68, 127
1, 4559, Note_off_c, 1, 68, 0
1, 4560, Note_on_c, 1, 69, 127
1, 4583, Note_off_c, 1, 69, 0
1, 4601, Note_off_c, 1, 47, 0
1, 4608, Note_on_c, 1, 64, 127
1, 4608, Note_on_c, 1, 76, 127
1, 4608, Note_on_c, 1, 68, 127
1, 4608, Note_on_c, 1, 52, 127
1, 4632, Note_off_c, 1, 68, 0
1, 4632, Note_on_c, 1, 63, 127
1, 4653, Note_off_c, 1, 64, 0
1, 4653, Note_off_c, 1, 76, 0
1, 4655, Note_off_c, 1, 63, 0
1, 4656, Note_on_c, 1, 71, 127
1, 4656, Note_on_c, 1, 80, 127
1, 4697, Note_off_c, 1, 52, 0
1, 4701, Note_off_c, 1, 71, 0
1, 4701, Note_off_c, 1, 80, 0
1, 4704, Note_on_c, 1, 76, 127
1, 4704, Note_on_c, 1, 80, 127
1, 4704, Note_on_c, 1, 73, 127
1, 4704, Note_on_c, 1, 64, 127
1, 4727, Note_off_c, 1, 73, 0
1, 4728, Note_on_c, 1, 71, 127
1, 4749, Note_off_c, 1, 76, 0
1, 4749, Note_off_c, 1, 80, 0
1, 4751, Note_off_c, 1, 71, 0
1, 4752, Note_on_c, 1, 81, 127
1, 4776, Note_on_c, 1, 68, 127
1, 4793, Note_off_c, 1, 64, 0
1, 4797, Note_off_c, 1, 81, 0
1, 4799, Note_off_c, 1, 68, 0
1, 4800, Note_on_c, 1, 75, 127
1, 4800, Note_on_c, 1, 83, 127
1, 4800, Note_on_c, 1, 66, 127
1, 4800, Note_on_c, 1, 63, 127
1, 4823, Note_off_c, 1, 66, 0
1, 4824, Note_on_c, 1, 73, 127
1, 4845, Note_off_c, 1, 75, 0
1, 4845, Note_off_c, 1, 83, 0
1, 4847, Note_off_c, 1, 73, 0
1, 4848, Note_on_c, 1, 71, 127
1, 4871, Note_off_c, 1, 71, 0
1, 4872, Note_on_c, 1, 68, 127
1, 4889, Note_off_c, 1, 63, 0
1, 4895, Note_off_c, 1, 68, 0
1, 4896, Note_on_c, 1, 64, 127
1, 4896, Note_on_c, 1, 49, 127
1, 4919, Note_off_c, 1, 64, 0
1, 4920, Note_on_c, 1, 59, 127
1, 4943, Note_off_c, 1, 59, 0
1, 4944, Note_on_c, 1, 68, 127
1, 4944, Note_on_c, 1, 76, 127
1, 4944, Note_on_c, 1, 61, 127
1, 4967, Note_off_c, 1, 61, 0
1, 4985, Note_off_c, 1, 49, 0
1, 4989, Note_off_c, 1, 68, 0
1, 4989, Note_off_c, 1, 76, 0
1, 4992, Note_on_c, 1, 73, 127
1, 4992, Note_on_c, 1, 76, 127
1, 4992, Note_on_c, 1, 69, 127
1, 4992, Note_on_c, 1, 61, 127
1, 5015, Note_off_c, 1, 69, 0
1, 5016, Note_on_c, 1, 68, 127
1, 5037, Note_off_c, 1, 73, 0
1, 5037, Note_off_c, 1, 76, 0
1, 5039, Note_off_c, 1, 68, 0
1, 5040, Note_on_c, 1, 78, 127
1, 5064, Note_on_c, 1, 64, 127
1, 5081, Note_off_c, 1, 61, 0
1, 5085, Note_off_c, 1, 78, 0
1, 5087, Note_off_c, 1, 64, 0
1, 5088, Note_on_c, 1, 71, 127
1, 5088, Note_on_c, 1, 80, 127
1, 5088, Note_on_c, 1, 63, 127
1, 5088, Note_on_c, 1, 59, 127
1, 5112, Note_off_c, 1, 63, 0
1, 5112, Note_on_c, 1, 69, 127
1, 5133, Note_off_c, 1, 71, 0
1, 5133, Note_off_c, 1, 80, 0
1, 5135, Note_off_c, 1, 69, 0
1, 5136, Note_on_c, 1, 68, 127
1, 5160, Note_off_c, 1, 68, 0
1, 5160, Note_on_c, 1, 64, 127
1, 5177, Note_off_c, 1, 59, 0
1, 5183, Note_off_c, 1, 64, 0
1, 5184, Note_on_c, 1, 61, 127
1, 5184, Note_on_c, 1, 46, 127
1, 5207, Note_off_c, 1, 61, 0
1, 5208, Note_on_c, 1, 56, 127
1, 5231, Note_off_c, 1, 56, 0
1, 5232, Note_on_c, 1, 67, 127
1, 5232, Note_on_c, 1, 73, 127
1, 5232, Note_on_c, 1, 58, 127
1, 5255, Note_off_c, 1, 58, 0
1, 5273, Note_off_c, 1, 46, 0
1, 5277, Note_off_c, 1, 67, 0
1, 5277, Note_off_c, 1, 73, 0
1, 5280, Note_on_c, 1, 67, 127
1, 5280, Note_on_c, 1, 73, 127
1, 5280, Note_on_c, 1, 58, 127
1, 5304, Note_on_c, 1, 68, 127
1, 5325, Note_off_c, 1, 67, 0
1, 5325, Note_off_c, 1, 73, 0
1, 5327, Note_off_c, 1, 68, 0
1, 5328, Note_on_c, 1, 70, 127
1, 5351, Note_off_c, 1, 70, 0
1, 5369, Note_off_c, 1, 58, 0
1, 5376, Note_on_c, 1, 68, 127
1, 5376, Note_on_c, 1, 73, 127
1, 5376, Note_on_c, 1, 64, 127
1, 5376, Note_on_c, 1, 56, 127
1, 5399, Note_off_c, 1, 64, 0
1, 5400, Note_on_c, 1, 67, 127
1, 5421, Note_off_c, 1, 68, 0
1, 5421, Note_off_c, 1, 73, 0
1, 5423, Note_off_c, 1, 67, 0
1, 5465, Note_off_c, 1, 56, 0
1, 5472, Note_on_c, 1, 63, 127
1, 5472, Note_on_c, 1, 55, 127
1, 5517, Note_off_c, 1, 63, 0
1, 5520, Note_on_c, 1, 70, 127
1, 5520, Note_on_c, 1, 73, 127
1, 5536, Note_on_c, 1, 71, 127
1, 5551, Note_off_c, 1, 71, 0
1, 5561, Note_off_c, 1, 55, 0
1, 5565, Note_off_c, 1, 73, 0
1, 5567, Note_off_c, 1, 70, 0
1, 5568, Note_on_c, 1, 70, 127
1, 5568, Note_on_c, 1, 73, 127
1, 5568, Note_on_c, 1, 51, 127
1, 5584, Note_on_c, 1, 68, 127
1, 5599, Note_off_c, 1, 68, 0
1, 5600, Note_on_c, 1, 67, 127
1, 5613, Note_off_c, 1, 70, 0
1, 5613, Note_off_c, 1, 73, 0
1, 5615, Note_off_c, 1, 67, 0
1, 5632, Note_on_c, 1, 65, 127
1, 5647, Note_off_c, 1, 65, 0
1, 5648, Note_on_c, 1, 63, 127
1, 5657, Note_off_c, 1, 51, 0
1, 5663, Note_off_c, 1, 63, 0
1, 5664, Note_on_c, 1, 70, 127
1, 5664, Note_on_c, 1, 73, 127
1, 5664, Note_on_c, 1, 63, 127
1, 5664, Note_on_c, 1, 55, 127
1, 5679, Note_off_c, 1, 63, 0
1, 5680, Note_on_c, 1, 61, 127
1, 5695, Note_off_c, 1, 61, 0
1, 5696, Note_on_c, 1, 59, 127
1, 5709, Note_off_c, 1, 70, 0
1, 5709, Note_off_c, 1, 73, 0
1, 5711, Note_off_c, 1, 59, 0
1, 5753, Note_off_c, 1, 55, 0
1, 5760, Note_on_c, 1, 59, 127
1, 5760, Note_on_c, 1, 44, 127
1, 5805, Note_off_c, 1, 59, 0
1, 5808, Note_on_c, 1, 75, 127
1, 5808, Note_on_c, 1, 71, 127
1, 5808, Note_on_c, 1, 63, 127
1, 5808, Note_on_c, 1, 68, 127
1, 5823, Note_off_c, 1, 75, 0
1, 5824, Note_on_c, 1, 73, 127
1, 5839, Note_off_c, 1, 73, 0
1, 5849, Note_off_c, 1, 44, 0
1, 5853, Note_off_c, 1, 63, 0
1, 5855, Note_off_c, 1, 71, 0
1, 5856, Note_on_c, 1, 56, 127
1, 5872, Note_on_c, 1, 70, 127
1, 5887, Note_off_c, 1, 70, 0
1, 5945, Note_off_c, 1, 56, 0
1, 5952, Note_on_c, 1, 62, 127
1, 5952, Note_on_c, 1, 54, 127
1, 5984, Note_on_c, 1, 74, 127
1, 5997, Note_off_c, 1, 62, 0
1, 5999, Note_off_c, 1, 74, 0
1, 6000, Note_off_c, 1, 68, 0
1, 6041, Note_off_c, 1, 54, 0
1, 6048, Note_on_c, 1, 83, 127
1, 6048, Note_on_c, 1, 41, 127
1, 6096, Note_on_c, 1, 71, 127
1, 6111, Note_off_c, 1, 71, 0
1, 6112, Note_on_c, 1, 69, 127
1, 6127, Note_off_c, 1, 69, 0
1, 6128, Note_on_c, 1, 68, 127
1, 6137, Note_off_c, 1, 41, 0
1, 6143, Note_off_c, 1, 68, 0
1, 6144, Note_on_c, 1, 53, 127
1, 6160, Note_on_c, 1, 66, 127
1, 6175, Note_off_c, 1, 66, 0
1, 6176, Note_on_c, 1, 65, 127
1, 6191, Note_off_c, 1, 65, 0
1, 6233, Note_off_c, 1, 53, 0
1, 6240, Note_on_c, 1, 51, 127
1, 6329, Note_off_c, 1, 51, 0
1, 6336, Note_on_c, 1, 77, 127
1, 6336, Note_on_c, 1, 37, 127
1, 6342, Note_off_c, 1, 77, 0
1, 6342, Note_on_c, 1, 78, 127
1, 6348, Note_off_c, 1, 78, 0
1, 6359, Note_off_c, 1, 83, 0
1, 6360, Note_on_c, 1, 80, 127
1, 6383, Note_off_c, 1, 80, 0
1, 6408, Note_on_c, 1, 73, 127
1, 6425, Note_off_c, 1, 37, 0
1, 6431, Note_off_c, 1, 73, 0
1, 6432, Note_on_c, 1, 74, 127
1, 6432, Note_on_c, 1, 49, 127
1, 6447, Note_off_c, 1, 74, 0
1, 6521, Note_off_c, 1, 49, 0
1, 6528, Note_on_c, 1, 47, 127
1, 6617, Note_off_c, 1, 47, 0
1, 6624, Note_on_c, 1, 61, 127
1, 6624, Note_on_c, 1, 45, 127
1, 6669, Note_off_c, 1, 61, 0
1, 6713, Note_off_c, 1, 45, 0
1, 6720, Note_on_c, 1, 44, 127
1, 6809, Note_off_c, 1, 44, 0
1, 6832, Note_on_c, 1, 63, 127
1, 6840, Note_on_c, 1, 81, 127
1, 6847, Note_off_c, 1, 63, 0
1, 6863, Note_off_c, 1, 81, 0
1, 6912, Note_on_c, 1, 81, 127
1, 6912, Note_on_c, 1, 66, 127
1, 6912, Note_on_c, 1, 42, 127
1, 6935, Note_off_c, 1, 66, 0
1, 6936, Note_on_c, 1, 61, 127
1, 6959, Note_off_c, 1, 61, 0
1, 6976, Note_on_c, 1, 68, 127
1, 6991, Note_off_c, 1, 68, 0
1, 6992, Note_on_c, 1, 69, 127
1, 7001, Note_off_c, 1, 42, 0
1, 7007, Note_off_c, 1, 69, 0
1, 7008, Note_on_c, 1, 54, 127
1, 7024, Note_on_c, 1, 71, 127
1, 7039, Note_off_c, 1, 71, 0
1, 7040, Note_on_c, 1, 73, 127
1, 7055, Note_off_c, 1, 73, 0
1, 7097, Note_off_c, 1, 54, 0
1, 7104, Note_on_c, 1, 52, 127
1, 7168, Note_on_c, 1, 64, 127
1, 7183, Note_off_c, 1, 64, 0
1, 7193, Note_off_c, 1, 52, 0
1, 7200, Note_on_c, 1, 59, 127
1, 7200, Note_on_c, 1, 39, 127
1, 7223, Note_off_c, 1, 81, 0
1, 7280, Note_on_c, 1, 75, 127
1, 7289, Note_off_c, 1, 59, 0
1, 7289, Note_off_c, 1, 39, 0
1, 7295, Note_off_c, 1, 75, 0
1, 7296, Note_on_c, 1, 75, 127
1, 7296, Note_on_c, 1, 69, 127
1, 7296, Note_on_c, 1, 51, 127
1, 7302, Note_off_c, 1, 69, 0
1, 7302, Note_on_c, 1, 71, 127
1, 7308, Note_off_c, 1, 71, 0
1, 7311, Note_off_c, 1, 75, 0
1, 7312, Note_on_c, 1, 76, 127
1, 7327, Note_off_c, 1, 76, 0
1, 7328, Note_on_c, 1, 78, 127
1, 7343, Note_off_c, 1, 78, 0
1, 7360, Note_on_c, 1, 80, 127
1, 7375, Note_off_c, 1, 80, 0
1, 7376, Note_on_c, 1, 81, 127
1, 7385, Note_off_c, 1, 51, 0
1, 7391, Note_off_c, 1, 81, 0
1, 7392, Note_on_c, 1, 49, 127
1, 7481, Note_off_c, 1, 49, 0
1, 7488, Note_on_c, 1, 47, 127
1, 7512, Note_on_c, 1, 59, 127
1, 7535, Note_off_c, 1, 59, 0
1, 7536, Note_on_c, 1, 63, 127
1, 7559, Note_off_c, 1, 63, 0
1, 7560, Note_on_c, 1, 66, 127
1, 7577, Note_off_c, 1, 47, 0
1, 7583, Note_off_c, 1, 66, 0
1, 7584, Note_on_c, 1, 80, 127
1, 7584, Note_on_c, 1, 64, 127
1, 7584, Note_on_c, 1, 59, 127
1, 7599, Note_off_c, 1, 80, 0
1, 7599, Note_off_c, 1, 64, 0
1, 7600, Note_on_c, 1, 81, 127
1, 7600, Note_on_c, 1, 66, 127
1, 7615, Note_off_c, 1, 81, 0
1, 7615, Note_off_c, 1, 66, 0
1, 7616, Note_on_c, 1, 83, 127
1, 7616, Note_on_c, 1, 68, 127
1, 7631, Note_off_c, 1, 83, 0
1, 7631, Note_off_c, 1, 68, 0
1, 7632, Note_on_c, 1, 76, 127
1, 7647, Note_off_c, 1, 76, 0
1, 7648, Note_on_c, 1, 78, 127
1, 7648, Note_on_c, 1, 69, 127
1, 7663, Note_off_c, 1, 78, 0
1, 7663, Note_off_c, 1, 69, 0
1, 7664, Note_on_c, 1, 71, 127
1, 7673, Note_off_c, 1, 59, 0
1, 7679, Note_off_c, 1, 71, 0
1, 7680, Note_on_c, 1, 75, 127
1, 7680, Note_on_c, 1, 71, 127
1, 7680, Note_on_c, 1, 57, 127
1, 7695, Note_off_c, 1, 75, 0
1, 7695, Note_off_c, 1, 71, 0
1, 7696, Note_on_c, 1, 76, 127
1, 7696, Note_on_c, 1, 73, 127
1, 7711, Note_off_c, 1, 76, 0
1, 7711, Note_off_c, 1, 73, 0
1, 7712, Note_on_c, 1, 78, 127
1, 7727, Note_off_c, 1, 78, 0
1, 7752, Note_on_c, 1, 83, 127
1, 7769, Note_off_c, 1, 57, 0
1, 7775, Note_off_c, 1, 83, 0
1, 7776, Note_on_c, 1, 83, 127
1, 7776, Note_on_c, 1, 76, 127
1, 7776, Note_on_c, 1, 56, 127
1, 7791, Note_off_c, 1, 76, 0
1, 7792, Note_on_c, 1, 78, 127
1, 7807, Note_off_c, 1, 78, 0
1, 7808, Note_on_c, 1, 75, 127
1, 7821, Note_off_c, 1, 83, 0
1, 7823, Note_off_c, 1, 75, 0
1, 7840, Note_on_c, 1, 81, 127
1, 7855, Note_off_c, 1, 81, 0
1, 7856, Note_on_c, 1, 80, 127
1, 7865, Note_off_c, 1, 56, 0
1, 7871, Note_off_c, 1, 80, 0
1, 7872, Note_on_c, 1, 54, 127
1, 7961, Note_off_c, 1, 54, 0
1, 7968, Note_on_c, 1, 59, 127
1, 8057, Note_off_c, 1, 59, 0
1, 8064, Note_on_c, 1, 52, 127
1, 8088, Note_on_c, 1, 72, 127
1, 8111, Note_off_c, 1, 72, 0
1, 8112, Note_on_c, 1, 73, 127
1, 8136, Note_off_c, 1, 73, 0
1, 8153, Note_off_c, 1, 52, 0
1, 8160, Note_on_c, 1, 80, 127
1, 8160, Note_on_c, 1, 73, 127
1, 8160, Note_on_c, 1, 64, 127
1, 8183, Note_off_c, 1, 73, 0
1, 8184, Note_off_c, 1, 80, 0
1, 8184, Note_on_c, 1, 75, 127
1, 8184, Note_on_c, 1, 72, 127
1, 8207, Note_off_c, 1, 75, 0
1, 8207, Note_off_c, 1, 72, 0
1, 8208, Note_on_c, 1, 76, 127
1, 8232, Note_off_c, 1, 76, 0
1, 8249, Note_off_c, 1, 64, 0
1, 8256, Note_on_c, 1, 78, 127
1, 8256, Note_on_c, 1, 63, 127
1, 8279, Note_off_c, 1, 78, 0
1, 8280, Note_on_c, 1, 73, 127
1, 8303, Note_off_c, 1, 73, 0
1, 8304, Note_on_c, 1, 71, 127
1, 8328, Note_on_c, 1, 80, 127
1, 8345, Note_off_c, 1, 63, 0
1, 8351, Note_off_c, 1, 80, 0
1, 8352, Note_on_c, 1, 76, 127
1, 8352, Note_on_c, 1, 49, 127
1, 8375, Note_off_c, 1, 71, 0
1, 8375, Note_off_c, 1, 76, 0
1, 8376, Note_on_c, 1, 68, 127
1, 8399, Note_off_c, 1, 68, 0
1, 8400, Note_on_c, 1, 69, 127
1, 8424, Note_off_c, 1, 69, 0
1, 8441, Note_off_c, 1, 49, 0
1, 8448, Note_on_c, 1, 76, 127
1, 8448, Note_on_c, 1, 69, 127
1, 8448, Note_on_c, 1, 61, 127
1, 8471, Note_off_c, 1, 69, 0
1, 8472, Note_off_c, 1, 76, 0
1, 8472, Note_on_c, 1, 71, 127
1, 8472, Note_on_c, 1, 68, 127
1, 8495, Note_off_c, 1, 71, 0
1, 8495, Note_off_c, 1, 68, 0
1, 8496, Note_on_c, 1, 73, 127
1, 8520, Note_off_c, 1, 73, 0
1, 8537, Note_off_c, 1, 61, 0
1, 8544, Note_on_c, 1, 75, 127
1, 8544, Note_on_c, 1, 59, 127
1, 8567, Note_off_c, 1, 75, 0
1, 8568, Note_on_c, 1, 69, 127
1, 8591, Note_off_c, 1, 69, 0
1, 8592, Note_on_c, 1, 68, 127
1, 8616, Note_on_c, 1, 76, 127
1, 8633, Note_off_c, 1, 59, 0
1, 8639, Note_off_c, 1, 76, 0
1, 8640, Note_on_c, 1, 73, 127
1, 8640, Note_on_c, 1, 46, 127
1, 8663, Note_off_c, 1, 68, 0
1, 8663, Note_off_c, 1, 73, 0
1, 8664, Note_on_c, 1, 65, 127
1, 8687, Note_off_c, 1, 65, 0
1, 8688, Note_on_c, 1, 67, 127
1, 8688, Note_on_c, 1, 70, 127
1, 8711, Note_off_c, 1, 67, 0
1, 8711, Note_off_c, 1, 70, 0
1, 8729, Note_off_c, 1, 46, 0
1, 8736, Note_on_c, 1, 73, 127
1, 8736, Note_on_c, 1, 67, 127
1, 8736, Note_on_c, 1, 58, 127
1, 8759, Note_off_c, 1, 67, 0
1, 8760, Note_on_c, 1, 68, 127
1, 8781, Note_off_c, 1, 73, 0
1, 8783, Note_off_c, 1, 68, 0
1, 8784, Note_on_c, 1, 70, 127
1, 8825, Note_off_c, 1, 58, 0
1, 8829, Note_off_c, 1, 70, 0
1, 8832, Note_on_c, 1, 73, 127
1, 8832, Note_on_c, 1, 64, 127
1, 8832, Note_on_c, 1, 70, 127
1, 8832, Note_on_c, 1, 56, 127
1, 8855, Note_off_c, 1, 64, 0
1, 8856, Note_on_c, 1, 67, 127
1, 8877, Note_off_c, 1, 73, 0
1, 8877, Note_off_c, 1, 70, 0
1, 8879, Note_off_c, 1, 67, 0
1, 8880, Note_on_c, 1, 68, 127
1, 8903, Note_off_c, 1, 68, 0
1, 8921, Note_off_c, 1, 56, 0
1, 8928, Note_on_c, 1, 73, 127
1, 8928, Note_on_c, 1, 63, 127
1, 8928, Note_on_c, 1, 55, 127
1, 8951, Note_off_c, 1, 63, 0
1, 8952, Note_on_c, 1, 65, 127
1, 8975, Note_off_c, 1, 65, 0
1, 8976, Note_on_c, 1, 67, 127
1, 8999, Note_off_c, 1, 67, 0
1, 9000, Note_on_c, 1, 70, 127
1, 9017, Note_off_c, 1, 73, 0
1, 9017, Note_off_c, 1, 55, 0
1, 9023, Note_off_c, 1, 70, 0
1, 9024, Note_on_c, 1, 73, 127
1, 9024, Note_on_c, 1, 51, 127
1, 9047, Note_off_c, 1, 73, 0
1, 9048, Note_on_c, 1, 75, 127
1, 9071, Note_off_c, 1, 75, 0
1, 9072, Note_on_c, 1, 76, 127
1, 9095, Note_off_c, 1, 76, 0
1, 9096, Note_on_c, 1, 79, 127
1, 9113, Note_off_c, 1, 51, 0
1, 9119, Note_off_c, 1, 79, 0
1, 9120, Note_on_c, 1, 82, 127
1, 9120, Note_on_c, 1, 55, 127
1, 9143, Note_off_c, 1, 82, 0
1, 9144, Note_on_c, 1, 76, 127
1, 9167, Note_off_c, 1, 76, 0
1, 9168, Note_on_c, 1, 75, 127
1, 9191, Note_off_c, 1, 75, 0
1, 9192, Note_on_c, 1, 73, 127
1, 9209, Note_off_c, 1, 55, 0
1, 9215, Note_off_c, 1, 73, 0
1, 9216, Note_on_c, 1, 63, 127
1, 9216, Note_on_c, 1, 71, 127
1, 9216, Note_on_c, 1, 44, 127
1, 9261, Note_off_c, 1, 71, 0
1, 9280, Note_on_c, 1, 65, 127
1, 9295, Note_off_c, 1, 65, 0
1, 9296, Note_on_c, 1, 67, 127
1, 9305, Note_off_c, 1, 63, 0
1, 9305, Note_off_c, 1, 44, 0
1, 9311, Note_off_c, 1, 67, 0
1, 9312, Note_on_c, 1, 68, 127
1, 9312, Note_on_c, 1, 56, 127
1, 9327, Note_off_c, 1, 68, 0
1, 9328, Note_on_c, 1, 70, 127
1, 9343, Note_off_c, 1, 70, 0
1, 9344, Note_on_c, 1, 71, 127
1, 9359, Note_off_c, 1, 71, 0
1, 9360, Note_on_c, 1, 63, 127
1, 9375, Note_off_c, 1, 63, 0
1, 9376, Note_on_c, 1, 65, 127
1, 9376, Note_on_c, 1, 73, 127
1, 9391, Note_off_c, 1, 65, 0
1, 9391, Note_off_c, 1, 73, 0
1, 9392, Note_on_c, 1, 67, 127
1, 9392, Note_on_c, 1, 75, 127
1, 9401, Note_off_c, 1, 56, 0
1, 9407, Note_off_c, 1, 67, 0
1, 9407, Note_off_c, 1, 75, 0
1, 9408, Note_on_c, 1, 68, 127
1, 9408, Note_on_c, 1, 75, 127
1, 9408, Note_on_c, 1, 54, 127
1, 9423, Note_off_c, 1, 68, 0
1, 9423, Note_off_c, 1, 75, 0
1, 9424, Note_on_c, 1, 70, 127
1, 9424, Note_on_c, 1, 73, 127
1, 9439, Note_off_c, 1, 70, 0
1, 9439, Note_off_c, 1, 73, 0
1, 9440, Note_on_c, 1, 71, 127
1, 9455, Note_off_c, 1, 71, 0
1, 9497, Note_off_c, 1, 54, 0
1, 9504, Note_on_c, 1, 75, 127
1, 9504, Note_on_c, 1, 68, 127
1, 9504, Note_on_c, 1, 40, 127
1, 9519, Note_off_c, 1, 75, 0
1, 9520, Note_on_c, 1, 73, 127
1, 9535, Note_off_c, 1, 73, 0
1, 9536, Note_on_c, 1, 71, 127
1, 9551, Note_off_c, 1, 71, 0
1, 9568, Note_on_c, 1, 70, 127
1, 9583, Note_off_c, 1, 70, 0
1, 9593, Note_off_c, 1, 40, 0
1, 9599, Note_off_c, 1, 68, 0
1, 9600, Note_on_c, 1, 68, 127
1, 9600, Note_on_c, 1, 52, 127
1, 9648, Note_on_c, 1, 64, 127
1, 9663, Note_off_c, 1, 64, 0
1, 9664, Note_on_c, 1, 66, 127
1, 9679, Note_off_c, 1, 66, 0
1, 9689, Note_off_c, 1, 52, 0
1, 9696, Note_on_c, 1, 51, 127
1, 9712, Note_on_c, 1, 70, 127
1, 9727, Note_off_c, 1, 70, 0
1, 9728, Note_on_c, 1, 71, 127
1, 9743, Note_off_c, 1, 71, 0
1, 9760, Note_on_c, 1, 73, 127
1, 9775, Note_off_c, 1, 73, 0
1, 9776, Note_on_c, 1, 75, 127
1, 9777, Note_off_c, 1, 68, 0
1, 9785, Note_off_c, 1, 51, 0
1, 9791, Note_off_c, 1, 75, 0
1, 9792, Note_on_c, 1, 76, 127
1, 9792, Note_on_c, 1, 37, 127
1, 9807, Note_off_c, 1, 76, 0
1, 9808, Note_on_c, 1, 78, 127
1, 9823, Note_off_c, 1, 78, 0
1, 9824, Note_on_c, 1, 80, 127
1, 9839, Note_off_c, 1, 80, 0
1, 9840, Note_on_c, 1, 68, 127
1, 9855, Note_off_c, 1, 68, 0
1, 9856, Note_on_c, 1, 70, 127
1, 9871, Note_off_c, 1, 70, 0
1, 9872, Note_on_c, 1, 72, 127
1, 9881, Note_off_c, 1, 37, 0
1, 9887, Note_off_c, 1, 72, 0
1, 9888, Note_on_c, 1, 73, 127
1, 9888, Note_on_c, 1, 76, 127
1, 9888, Note_on_c, 1, 49, 127
1, 9903, Note_off_c, 1, 73, 0
1, 9903, Note_off_c, 1, 76, 0
1, 9904, Note_on_c, 1, 75, 127
1, 9919, Note_off_c, 1, 75, 0
1, 9952, Note_on_c, 1, 78, 127
1, 9967, Note_off_c, 1, 78, 0
1, 9968, Note_on_c, 1, 80, 127
1, 9977, Note_off_c, 1, 49, 0
1, 9983, Note_off_c, 1, 80, 0
1, 9984, Note_on_c, 1, 80, 127
1, 9984, Note_on_c, 1, 76, 127
1, 9984, Note_on_c, 1, 47, 127
1, 9999, Note_off_c, 1, 80, 0
1, 9999, Note_off_c, 1, 76, 0
1, 10000, Note_on_c, 1, 78, 127
1, 10000, Note_on_c, 1, 75, 127
1, 10015, Note_off_c, 1, 78, 0
1, 10015, Note_off_c, 1, 75, 0
1, 10016, Note_on_c, 1, 73, 127
1, 10031, Note_off_c, 1, 73, 0
1, 10048, Note_on_c, 1, 71, 127
1, 10063, Note_off_c, 1, 71, 0
1, 10064, Note_on_c, 1, 70, 127
1, 10073, Note_off_c, 1, 47, 0
1, 10079, Note_off_c, 1, 70, 0
1, 10080, Note_on_c, 1, 73, 127
1, 10080, Note_on_c, 1, 79, 127
1, 10080, Note_on_c, 1, 46, 127
1, 10095, Note_off_c, 1, 73, 0
1, 10096, Note_on_c, 1, 71, 127
1, 10111, Note_off_c, 1, 71, 0
1, 10112, Note_on_c, 1, 70, 127
1, 10127, Note_off_c, 1, 70, 0
1, 10144, Note_on_c, 1, 68, 127
1, 10159, Note_off_c, 1, 68, 0
1, 10160, Note_on_c, 1, 67, 127
1, 10169, Note_off_c, 1, 79, 0
1, 10169, Note_off_c, 1, 46, 0
1, 10175, Note_off_c, 1, 67, 0
1, 10176, Note_on_c, 1, 67, 127
1, 10176, Note_on_c, 1, 51, 127
1, 10200, Note_off_c, 1, 67, 0
1, 10200, Note_on_c, 1, 76, 127
1, 10223, Note_off_c, 1, 76, 0
1, 10224, Note_on_c, 1, 75, 127
1, 10240, Note_on_c, 1, 77, 127
1, 10255, Note_off_c, 1, 77, 0
1, 10256, Note_on_c, 1, 79, 127
1, 10265, Note_off_c, 1, 51, 0
1, 10271, Note_off_c, 1, 79, 0
1, 10272, Note_on_c, 1, 39, 127
1, 10288, Note_on_c, 1, 80, 127
1, 10295, Note_off_c, 1, 75, 0
1, 10296, Note_on_c, 1, 71, 127
1, 10303, Note_off_c, 1, 80, 0
1, 10304, Note_on_c, 1, 82, 127
1, 10319, Note_off_c, 1, 71, 0
1, 10319, Note_off_c, 1, 82, 0
1, 10320, Note_on_c, 1, 73, 127
1, 10343, Note_off_c, 1, 73, 0
1, 10344, Note_on_c, 1, 70, 127
1, 10361, Note_off_c, 1, 39, 0
1, 10367, Note_off_c, 1, 70, 0
1, 10368, Note_on_c, 1, 44, 127
1, 10416, Note_on_c, 1, 68, 127
1, 10440, Note_off_c, 1, 68, 0
1, 10457, Note_off_c, 1, 44, 0
1, 10464, Note_on_c, 1, 76, 127
1, 10464, Note_on_c, 1, 83, 127
1, 10464, Note_on_c, 1, 56, 127
1, 10488, Note_off_c, 1, 76, 0
1, 10488, Note_off_c, 1, 83, 0
1, 10488, Note_on_c, 1, 75, 127
1, 10488, Note_on_c, 1, 79, 127
1, 10511, Note_off_c, 1, 79, 0
1, 10512, Note_off_c, 1, 75, 0
1, 10512, Note_on_c, 1, 80, 127
1, 10536, Note_off_c, 1, 80, 0
1, 10553, Note_off_c, 1, 56, 0
1, 10560, Note_on_c, 1, 82, 127
1, 10560, Note_on_c, 1, 54, 127
1, 10584, Note_off_c, 1, 82, 0
1, 10584, Note_on_c, 1, 76, 127
1, 10607, Note_off_c, 1, 76, 0
1, 10608, Note_on_c, 1, 75, 127
1, 10632, Note_on_c, 1, 83, 127
1, 10649, Note_off_c, 1, 54, 0
1, 10655, Note_off_c, 1, 83, 0
1, 10656, Note_on_c, 1, 80, 127
1, 10656, Note_on_c, 1, 40, 127
1, 10679, Note_off_c, 1, 75, 0
1, 10680, Note_off_c, 1, 80, 0
1, 10680, Note_on_c, 1, 72, 127
1, 10703, Note_off_c, 1, 72, 0
1, 10704, Note_on_c, 1, 73, 127
1, 10727, Note_off_c, 1, 73, 0
1, 10745, Note_off_c, 1, 40, 0
1, 10752, Note_on_c, 1, 73, 127
1, 10752, Note_on_c, 1, 80, 127
1, 10752, Note_on_c, 1, 52, 127
1, 10775, Note_off_c, 1, 73, 0
1, 10775, Note_off_c, 1, 80, 0
1, 10776, Note_on_c, 1, 72, 127
1, 10776, Note_on_c, 1, 75, 127
1, 10799, Note_off_c, 1, 72, 0
1, 10799, Note_off_c, 1, 75, 0
1, 10800, Note_on_c, 1, 76, 127
1, 10823, Note_off_c, 1, 76, 0
1, 10841, Note_off_c, 1, 52, 0
1, 10848, Note_on_c, 1, 78, 127
1, 10848, Note_on_c, 1, 51, 127
1, 10872, Note_off_c, 1, 78, 0
1, 10872, Note_on_c, 1, 73, 127
1, 10895, Note_off_c, 1, 73, 0
1, 10896, Note_on_c, 1, 71, 127
1, 10920, Note_on_c, 1, 80, 127
1, 10937, Note_off_c, 1, 51, 0
1, 10943, Note_off_c, 1, 80, 0
1, 10944, Note_on_c, 1, 76, 127
1, 10944, Note_on_c, 1, 37, 127
1, 10967, Note_off_c, 1, 71, 0
1, 10967, Note_off_c, 1, 76, 0
1, 10968, Note_on_c, 1, 68, 127
1, 10991, Note_off_c, 1, 68, 0
1, 10992, Note_on_c, 1, 70, 127
1, 11015, Note_off_c, 1, 70, 0
1, 11033, Note_off_c, 1, 37, 0
1, 11040, Note_on_c, 1, 70, 127
1, 11040, Note_on_c, 1, 76, 127
1, 11040, Note_on_c, 1, 49, 127
1, 11063, Note_off_c, 1, 70, 0
1, 11064, Note_on_c, 1, 71, 127
1, 11085, Note_off_c, 1, 76, 0
1, 11087, Note_off_c, 1, 71, 0
1, 11088, Note_on_c, 1, 73, 127
1, 11088, Note_on_c, 1, 68, 127
1, 11129, Note_off_c, 1, 49, 0
1, 11133, Note_off_c, 1, 73, 0
1, 11133, Note_off_c, 1, 68, 0
1, 11136, Note_on_c, 1, 68, 127
1, 11136, Note_on_c, 1, 76, 127
1, 11136, Note_on_c, 1, 73, 127
1, 11136, Note_on_c, 1, 47, 127
1, 11160, Note_on_c, 1, 70, 127
1, 11181, Note_off_c, 1, 68, 0
1, 11181, Note_off_c, 1, 76, 0
1, 11181, Note_off_c, 1, 73, 0
1, 11183, Note_off_c, 1, 70, 0
1, 11184, Note_on_c, 1, 71, 127
1, 11207, Note_off_c, 1, 71, 0
1, 11225, Note_off_c, 1, 47, 0
1, 11232, Note_on_c, 1, 66, 127
1, 11232, Note_on_c, 1, 46, 127
1, 11277, Note_off_c, 1, 66, 0
1, 11280, Note_on_c, 1, 88, 127
1, 11280, Note_on_c, 1, 76, 127
1, 11280, Note_on_c, 1, 73, 127
1, 11295, Note_off_c, 1, 88, 0
1, 11296, Note_on_c, 1, 87, 127
1, 11311, Note_off_c, 1, 87, 0
1, 11312, Note_on_c, 1, 85, 127
1, 11321, Note_off_c, 1, 46, 0
1, 11325, Note_off_c, 1, 76, 0
1, 11325, Note_off_c, 1, 73, 0
1, 11327, Note_off_c, 1, 85, 0
1, 11328, Note_on_c, 1, 85, 127
1, 11328, Note_on_c, 1, 76, 127
1, 11328, Note_on_c, 1, 73, 127
1, 11328, Note_on_c, 1, 70, 127
1, 11328, Note_on_c, 1, 42, 127
1, 11343, Note_off_c, 1, 85, 0
1, 11344, Note_on_c, 1, 83, 127
1, 11359, Note_off_c, 1, 83, 0
1, 11360, Note_on_c, 1, 82, 127
1, 11373, Note_off_c, 1, 76, 0
1, 11373, Note_off_c, 1, 73, 0
1, 11373, Note_off_c, 1, 70, 0
1, 11375, Note_off_c, 1, 82, 0
1, 11392, Note_on_c, 1, 80, 127
1, 11407, Note_off_c, 1, 80, 0
1, 11408, Note_on_c, 1, 78, 127
1, 11417, Note_off_c, 1, 42, 0
1, 11423, Note_off_c, 1, 78, 0
1, 11424, Note_on_c, 1, 78, 127
1, 11424, Note_on_c, 1, 76, 127
1, 11424, Note_on_c, 1, 73, 127
1, 11424, Note_on_c, 1, 66, 127
1, 11424, Note_on_c, 1, 46, 127
1, 11439, Note_off_c, 1, 78, 0
1, 11456, Note_on_c, 1, 75, 127
1, 11469, Note_off_c, 1, 76, 0
1, 11469, Note_off_c, 1, 73, 0
1, 11469, Note_off_c, 1, 66, 0
1, 11471, Note_off_c, 1, 75, 0
1, 11496, Note_on_c, 1, 85, 127
1, 11513, Note_off_c, 1, 46, 0
1, 11519, Note_off_c, 1, 85, 0
1, 11520, Note_on_c, 1, 75, 127
1, 11520, Note_on_c, 1, 71, 127
1, 11520, Note_on_c, 1, 66, 127
1, 11520, Note_on_c, 1, 47, 127
1, 11584, Note_on_c, 1, 68, 127
1, 11599, Note_off_c, 1, 68, 0
1, 11600, Note_on_c, 1, 70, 127
1, 11609, Note_off_c, 1, 75, 0
1, 11609, Note_off_c, 1, 71, 0
1, 11609, Note_off_c, 1, 66, 0
1, 11609, Note_off_c, 1, 47, 0
1, 11615, Note_off_c, 1, 70, 0
1, 11616, Note_on_c, 1, 71, 127
1, 11616, Note_on_c, 1, 59, 127
1, 11631, Note_off_c, 1, 71, 0
1, 11632, Note_on_c, 1, 73, 127
1, 11647, Note_off_c, 1, 73, 0
1, 11648, Note_on_c, 1, 75, 127
1, 11663, Note_off_c, 1, 75, 0
1, 11664, Note_on_c, 1, 66, 127
1, 11679, Note_off_c, 1, 66, 0
1, 11680, Note_on_c, 1, 76, 127
1, 11680, Note_on_c, 1, 68, 127
1, 11695, Note_off_c, 1, 76, 0
1, 11695, Note_off_c, 1, 68, 0
1, 11696, Note_on_c, 1, 78, 127
1, 11696, Note_on_c, 1, 70, 127
1, 11705, Note_off_c, 1, 59, 0
1, 11711, Note_off_c, 1, 78, 0
1, 11711, Note_off_c, 1, 70, 0
1, 11712, Note_on_c, 1, 78, 127
1, 11712, Note_on_c, 1, 71, 127
1, 11712, Note_on_c, 1, 58, 127
1, 11727, Note_off_c, 1, 78, 0
1, 11727, Note_off_c, 1, 71, 0
1, 11728, Note_on_c, 1, 76, 127
1, 11728, Note_on_c, 1, 73, 127
1, 11743, Note_off_c, 1, 76, 0
1, 11743, Note_off_c, 1, 73, 0
1, 11744, Note_on_c, 1, 75, 127
1, 11759, Note_off_c, 1, 75, 0
1, 11801, Note_off_c, 1, 58, 0
1, 11808, Note_on_c, 1, 71, 127
1, 11808, Note_on_c, 1, 78, 127
1, 11808, Note_on_c, 1, 44, 127
1, 11823, Note_off_c, 1, 78, 0
1, 11824, Note_on_c, 1, 76, 127
1, 11839, Note_off_c, 1, 76, 0
1, 11840, Note_on_c, 1, 75, 127
1, 11855, Note_off_c, 1, 75, 0
1, 11872, Note_on_c, 1, 73, 127
1, 11887, Note_off_c, 1, 73, 0
1, 11897, Note_off_c, 1, 44, 0
1, 11903, Note_off_c, 1, 71, 0
1, 11904, Note_on_c, 1, 71, 127
1, 11904, Note_on_c, 1, 56, 127
1, 11952, Note_on_c, 1, 68, 127
1, 11967, Note_off_c, 1, 68, 0
1, 11968, Note_on_c, 1, 70, 127
1, 11983, Note_off_c, 1, 70, 0
1, 11993, Note_off_c, 1, 56, 0
1, 12000, Note_on_c, 1, 54, 127
1, 12016, Note_on_c, 1, 73, 127
1, 12031, Note_off_c, 1, 73, 0
1, 12032, Note_on_c, 1, 75, 127
1, 12047, Note_off_c, 1, 75, 0
1, 12064, Note_on_c, 1, 76, 127
1, 12079, Note_off_c, 1, 76, 0
1, 12080, Note_on_c, 1, 78, 127
1, 12081, Note_off_c, 1, 71, 0
1, 12089, Note_off_c, 1, 54, 0
1, 12095, Note_off_c, 1, 78, 0
1, 12096, Note_on_c, 1, 80, 127
1, 12096, Note_on_c, 1, 40, 127
1, 12111, Note_off_c, 1, 80, 0
1, 12112, Note_on_c, 1, 82, 127
1, 12127, Note_off_c, 1, 82, 0
1, 12128, Note_on_c, 1, 83, 127
1, 12143, Note_off_c, 1, 83, 0
1, 12144, Note_on_c, 1, 71, 127
1, 12159, Note_off_c, 1, 71, 0
1, 12160, Note_on_c, 1, 73, 127
1, 12175, Note_off_c, 1, 73, 0
1, 12176, Note_on_c, 1, 75, 127
1, 12185, Note_off_c, 1, 40, 0
1, 12191, Note_off_c, 1, 75, 0
1, 12192, Note_on_c, 1, 80, 127
1, 12192, Note_on_c, 1, 76, 127
1, 12192, Note_on_c, 1, 52, 127
1, 12207, Note_off_c, 1, 80, 0
1, 12207, Note_off_c, 1, 76, 0
1, 12208, Note_on_c, 1, 78, 127
1, 12223, Note_off_c, 1, 78, 0
1, 12256, Note_on_c, 1, 82, 127
1, 12271, Note_off_c, 1, 82, 0
1, 12272, Note_on_c, 1, 83, 127
1, 12281, Note_off_c, 1, 52, 0
1, 12287, Note_off_c, 1, 83, 0
1, 12288, Note_on_c, 1, 80, 127
1, 12288, Note_on_c, 1, 83, 127
1, 12288, Note_on_c, 1, 51, 127
1, 12303, Note_off_c, 1, 80, 0
1, 12303, Note_off_c, 1, 83, 0
1, 12304, Note_on_c, 1, 78, 127
1, 12304, Note_on_c, 1, 82, 127
1, 12319, Note_off_c, 1, 78, 0
1, 12319, Note_off_c, 1, 82, 0
1, 12320, Note_on_c, 1, 76, 127
1, 12335, Note_off_c, 1, 76, 0
1, 12352, Note_on_c, 1, 75, 127
1, 12367, Note_off_c, 1, 75, 0
1, 12368, Note_on_c, 1, 73, 127
1, 12377, Note_off_c, 1, 51, 0
1, 12383, Note_off_c, 1, 73, 0
1, 12384, Note_on_c, 1, 82, 127
1, 12384, Note_on_c, 1, 76, 127
1, 12384, Note_on_c, 1, 49, 127
1, 12399, Note_off_c, 1, 76, 0
1, 12400, Note_on_c, 1, 75, 127
1, 12415, Note_off_c, 1, 75, 0
1, 12416, Note_on_c, 1, 73, 127
1, 12431, Note_off_c, 1, 73, 0
1, 12448, Note_on_c, 1, 71, 127
1, 12463, Note_off_c, 1, 71, 0
1, 12464, Note_on_c, 1, 70, 127
1, 12473, Note_off_c, 1, 82, 0
1, 12473, Note_off_c, 1, 49, 0
1, 12479, Note_off_c, 1, 70, 0
1, 12480, Note_on_c, 1, 70, 127
1, 12480, Note_on_c, 1, 54, 127
1, 12503, Note_off_c, 1, 70, 0
1, 12504, Note_on_c, 1, 80, 127
1, 12527, Note_off_c, 1, 80, 0
1, 12528, Note_on_c, 1, 78, 127
1, 12560, Note_on_c, 1, 82, 127
1, 12569, Note_off_c, 1, 54, 0
1, 12575, Note_off_c, 1, 82, 0
1, 12576, Note_on_c, 1, 42, 127
1, 12592, Note_on_c, 1, 83, 127
1, 12599, Note_off_c, 1, 78, 0
1, 12600, Note_on_c, 1, 75, 127
1, 12607, Note_off_c, 1, 83, 0
1, 12608, Note_on_c, 1, 85, 127
1, 12623, Note_off_c, 1, 75, 0
1, 12623, Note_off_c, 1, 85, 0
1, 12624, Note_on_c, 1, 76, 127
1, 12647, Note_off_c, 1, 76, 0
1, 12648, Note_on_c, 1, 73, 127
1, 12665, Note_off_c, 1, 42, 0
1, 12671, Note_off_c, 1, 73, 0
1, 12672, Note_on_c, 1, 47, 127
1, 12720, Note_on_c, 1, 71, 127
1, 12743, Note_off_c, 1, 71, 0
1, 12761, Note_off_c, 1, 47, 0
1, 12768, Note_on_c, 1, 68, 127
1, 12768, Note_on_c, 1, 59, 127
1, 12791, Note_off_c, 1, 68, 0
1, 12792, Note_on_c, 1, 66, 127
1, 12815, Note_off_c, 1, 66, 0
1, 12816, Note_on_c, 1, 74, 127
1, 12840, Note_on_c, 1, 77, 127
1, 12857, Note_off_c, 1, 59, 0
1, 12861, Note_off_c, 1, 74, 0
1, 12863, Note_off_c, 1, 77, 0
1, 12864, Note_on_c, 1, 73, 127
1, 12864, Note_on_c, 1, 78, 127
1, 12864, Note_on_c, 1, 57, 127
1, 12887, Note_off_c, 1, 73, 0
1, 12887, Note_off_c, 1, 78, 0
1, 12888, Note_on_c, 1, 66, 127
1, 12888, Note_on_c, 1, 81, 127
1, 12911, Note_off_c, 1, 66, 0
1, 12911, Note_off_c, 1, 81, 0
1, 12912, Note_on_c, 1, 65, 127
1, 12912, Note_on_c, 1, 80, 127
1, 12935, Note_off_c, 1, 65, 0
1, 12935, Note_off_c, 1, 80, 0
1, 12953, Note_off_c, 1, 57, 0
1, 12960, Note_on_c, 1, 68, 127
1, 12960, Note_on_c, 1, 83, 127
1, 12960, Note_on_c, 1, 44, 127
1, 12983, Note_off_c, 1, 68, 0
1, 12983, Note_off_c, 1, 83, 0
1, 12984, Note_on_c, 1, 69, 127
1, 12984, Note_on_c, 1, 78, 127
1, 13007, Note_off_c, 1, 69, 0
1, 13007, Note_off_c, 1, 78, 0
1, 13008, Note_on_c, 1, 71, 127
1, 13008, Note_on_c, 1, 80, 127
1, 13031, Note_off_c, 1, 80, 0
1, 13049, Note_off_c, 1, 44, 0
1, 13056, Note_on_c, 1, 77, 127
1, 13056, Note_on_c, 1, 56, 127
1, 13079, Note_off_c, 1, 71, 0
1, 13079, Note_off_c, 1, 77, 0
1, 13128, Note_on_c, 1, 73, 127
1, 13145, Note_off_c, 1, 56, 0
1, 13151, Note_off_c, 1, 73, 0
1, 13152, Note_on_c, 1, 71, 127
1, 13152, Note_on_c, 1, 74, 127
1, 13152, Note_on_c, 1, 54, 127
1, 13175, Note_off_c, 1, 71, 0
1, 13175, Note_off_c, 1, 74, 0
1, 13176, Note_on_c, 1, 73, 127
1, 13176, Note_on_c, 1, 69, 127
1, 13199, Note_off_c, 1, 73, 0
1, 13199, Note_off_c, 1, 69, 0
1, 13224, Note_on_c, 1, 66, 127
1, 13241, Note_off_c, 1, 54, 0
1, 13247, Note_off_c, 1, 66, 0
1, 13248, Note_on_c, 1, 68, 127
1, 13248, Note_on_c, 1, 41, 127
1, 13271, Note_off_c, 1, 68, 0
1, 13320, Note_on_c, 1, 62, 127
1, 13337, Note_off_c, 1, 41, 0
1, 13343, Note_off_c, 1, 62, 0
1, 13344, Note_on_c, 1, 80, 127
1, 13344, Note_on_c, 1, 61, 127
1, 13344, Note_on_c, 1, 53, 127
1, 13367, Note_off_c, 1, 61, 0
1, 13368, Note_on_c, 1, 63, 127
1, 13391, Note_off_c, 1, 63, 0
1, 13392, Note_on_c, 1, 65, 127
1, 13415, Note_off_c, 1, 65, 0
1, 13416, Note_on_c, 1, 66, 127
1, 13433, Note_off_c, 1, 53, 0
1, 13439, Note_off_c, 1, 66, 0
1, 13440, Note_on_c, 1, 68, 127
1, 13440, Note_on_c, 1, 51, 127
1, 13463, Note_off_c, 1, 68, 0
1, 13464, Note_on_c, 1, 69, 127
1, 13487, Note_off_c, 1, 69, 0
1, 13488, Note_on_c, 1, 71, 127
1, 13511, Note_off_c, 1, 71, 0
1, 13512, Note_on_c, 1, 78, 127
1, 13529, Note_off_c, 1, 51, 0
1, 13535, Note_off_c, 1, 78, 0
1, 13536, Note_on_c, 1, 77, 127
1, 13536, Note_on_c, 1, 49, 127
1, 13559, Note_off_c, 1, 80, 0
1, 13559, Note_off_c, 1, 77, 0
1, 13584, Note_on_c, 1, 83, 127
1, 13625, Note_off_c, 1, 49, 0
1, 13647, Note_off_c, 1, 83, 0
1, 13648, Note_on_c, 1, 81, 127
1, 13663, Note_off_c, 1, 81, 0
1, 13752, Note_on_c, 1, 74, 127
1, 13775, Note_off_c, 1, 74, 0
1, 13776, Note_on_c, 1, 73, 127
1, 13799, Note_off_c, 1, 73, 0
1, 13824, Note_on_c, 1, 69, 127
1, 13824, Note_on_c, 1, 73, 127
1, 13824, Note_on_c, 1, 42, 127
1, 13847, Note_off_c, 1, 69, 0
1, 13848, Note_off_c, 1, 73, 0
1, 13848, Note_on_c, 1, 65, 127
1, 13848, Note_on_c, 1, 83, 127
1, 13871, Note_off_c, 1, 65, 0
1, 13871, Note_off_c, 1, 83, 0
1, 13872, Note_on_c, 1, 66, 127
1, 13872, Note_on_c, 1, 81, 127
1, 13895, Note_off_c, 1, 66, 0
1, 13913, Note_off_c, 1, 42, 0
1, 13917, Note_off_c, 1, 81, 0
1, 13920, Note_on_c, 1, 63, 127
1, 13920, Note_on_c, 1, 54, 127
1, 13943, Note_off_c, 1, 63, 0
1, 13944, Note_on_c, 1, 61, 127
1, 13967, Note_off_c, 1, 61, 0
1, 13968, Note_on_c, 1, 69, 127
1, 13992, Note_on_c, 1, 72, 127
1, 14009, Note_off_c, 1, 54, 0
1, 14013, Note_off_c, 1, 69, 0
1, 14015, Note_off_c, 1, 72, 0
1, 14016, Note_on_c, 1, 73, 127
1, 14016, Note_on_c, 1, 68, 127
1, 14016, Note_on_c, 1, 52, 127
1, 14039, Note_off_c, 1, 73, 0
1, 14039, Note_off_c, 1, 68, 0
1, 14040, Note_on_c, 1, 76, 127
1, 14040, Note_on_c, 1, 61, 127
1, 14063, Note_off_c, 1, 76, 0
1, 14063, Note_off_c, 1, 61, 0
1, 14064, Note_on_c, 1, 75, 127
1, 14064, Note_on_c, 1, 60, 127
1, 14087, Note_off_c, 1, 75, 0
1, 14087, Note_off_c, 1, 60, 0
1, 14105, Note_off_c, 1, 52, 0
1, 14112, Note_on_c, 1, 78, 127
1, 14112, Note_on_c, 1, 63, 127
1, 14112, Note_on_c, 1, 39, 127
1, 14135, Note_off_c, 1, 63, 0
1, 14136, Note_off_c, 1, 78, 0
1, 14136, Note_on_c, 1, 73, 127
1, 14136, Note_on_c, 1, 64, 127
1, 14159, Note_off_c, 1, 73, 0
1, 14159, Note_off_c, 1, 64, 0
1, 14160, Note_on_c, 1, 75, 127
1, 14160, Note_on_c, 1, 66, 127
1, 14184, Note_off_c, 1, 75, 0
1, 14201, Note_off_c, 1, 39, 0
1, 14208, Note_on_c, 1, 72, 127
1, 14208, Note_on_c, 1, 51, 127
1, 14231, Note_off_c, 1, 66, 0
1, 14231, Note_off_c, 1, 72, 0
1, 14280, Note_on_c, 1, 68, 127
1, 14297, Note_off_c, 1, 51, 0
1, 14303, Note_off_c, 1, 68, 0
1, 14304, Note_on_c, 1, 69, 127
1, 14304, Note_on_c, 1, 66, 127
1, 14304, Note_on_c, 1, 49, 127
1, 14327, Note_off_c, 1, 66, 0
1, 14328, Note_off_c, 1, 69, 0
1, 14328, Note_on_c, 1, 64, 127
1, 14328, Note_on_c, 1, 68, 127
1, 14351, Note_off_c, 1, 64, 0
1, 14351, Note_off_c, 1, 68, 0
1, 14376, Note_on_c, 1, 61, 127
1, 14393, Note_off_c, 1, 49, 0
1, 14399, Note_off_c, 1, 61, 0
1, 14400, Note_on_c, 1, 63, 127
1, 14400, Note_on_c, 1, 36, 127
1, 14424, Note_off_c, 1, 63, 0
1, 14472, Note_on_c, 1, 57, 127
1, 14489, Note_off_c, 1, 36, 0
1, 14495, Note_off_c, 1, 57, 0
1, 14496, Note_on_c, 1, 56, 127
1, 14496, Note_on_c, 1, 75, 127
1, 14496, Note_on_c, 1, 48, 127
1, 14519, Note_off_c, 1, 56, 0
1, 14520, Note_on_c, 1, 58, 127
1, 14543, Note_off_c, 1, 58, 0
1, 14544, Note_on_c, 1, 60, 127
1, 14567, Note_off_c, 1, 60, 0
1, 14568, Note_on_c, 1, 61, 127
1, 14585, Note_off_c, 1, 48, 0
1, 14591, Note_off_c, 1, 61, 0
1, 14592, Note_on_c, 1, 63, 127
1, 14592, Note_on_c, 1, 46, 127
1, 14615, Note_off_c, 1, 63, 0
1, 14616, Note_on_c, 1, 64, 127
1, 14639, Note_off_c, 1, 64, 0
1, 14640, Note_on_c, 1, 66, 127
1, 14663, Note_off_c, 1, 66, 0
1, 14664, Note_on_c, 1, 73, 127
1, 14681, Note_off_c, 1, 46, 0
1, 14687, Note_off_c, 1, 73, 0
1, 14688, Note_on_c, 1, 72, 127
1, 14688, Note_on_c, 1, 44, 127
1, 14711, Note_off_c, 1, 75, 0
1, 14711, Note_off_c, 1, 72, 0
1, 14736, Note_on_c, 1, 78, 127
1, 14777, Note_off_c, 1, 44, 0
1, 14799, Note_off_c, 1, 78, 0
1, 14800, Note_on_c, 1, 76, 127
1, 14815, Note_off_c, 1, 76, 0
1, 14904, Note_on_c, 1, 69, 127
1, 14927, Note_off_c, 1, 69, 0
1, 14928, Note_on_c, 1, 68, 127
1, 14951, Note_off_c, 1, 68, 0
1, 14976, Note_on_c, 1, 68, 127
1, 14976, Note_on_c, 1, 56, 127
1, 14976, Note_on_c, 1, 61, 127
1, 14976, Note_on_c, 1, 64, 127
1, 14976, Note_on_c, 1, 37, 127
1, 14999, Note_off_c, 1, 68, 0
1, 15000, Note_on_c, 1, 72, 127
1, 15000, Note_on_c, 1, 78, 127
1, 15023, Note_off_c, 1, 72, 0
1, 15023, Note_off_c, 1, 78, 0
1, 15024, Note_on_c, 1, 73, 127
1, 15024, Note_on_c, 1, 76, 127
1, 15065, Note_off_c, 1, 56, 0
1, 15065, Note_off_c, 1, 61, 0
1, 15065, Note_off_c, 1, 37, 0
1, 15069, Note_off_c, 1, 73, 0
1, 15069, Note_off_c, 1, 76, 0
1, 15072, Note_on_c, 1, 49, 127
1, 15117, Note_off_c, 1, 64, 0
1, 15136, Note_on_c, 1, 58, 127
1, 15151, Note_off_c, 1, 58, 0
1, 15152, Note_on_c, 1, 60, 127
1, 15161, Note_off_c, 1, 49, 0
1, 15167, Note_off_c, 1, 60, 0
1, 15168, Note_on_c, 1, 64, 127
1, 15168, Note_on_c, 1, 73, 127
1, 15168, Note_on_c, 1, 61, 127
1, 15168, Note_on_c, 1, 47, 127
1, 15183, Note_off_c, 1, 61, 0
1, 15184, Note_on_c, 1, 63, 127
1, 15199, Note_off_c, 1, 63, 0
1, 15213, Note_off_c, 1, 73, 0
1, 15215, Note_off_c, 1, 64, 0
1, 15232, Note_on_c, 1, 66, 127
1, 15247, Note_off_c, 1, 66, 0
1, 15248, Note_on_c, 1, 68, 127
1, 15257, Note_off_c, 1, 47, 0
1, 15263, Note_off_c, 1, 68, 0
1, 15264, Note_on_c, 1, 68, 127
1, 15264, Note_on_c, 1, 45, 127
1, 15279, Note_off_c, 1, 68, 0
1, 15280, Note_on_c, 1, 66, 127
1, 15295, Note_off_c, 1, 66, 0
1, 15296, Note_on_c, 1, 64, 127
1, 15311, Note_off_c, 1, 64, 0
1, 15312, Note_on_c, 1, 69, 127
1, 15324, Note_off_c, 1, 69, 0
1, 15328, Note_on_c, 1, 63, 127
1, 15343, Note_off_c, 1, 63, 0
1, 15344, Note_on_c, 1, 61, 127
1, 15353, Note_off_c, 1, 45, 0
1, 15359, Note_off_c, 1, 61, 0
1, 15360, Note_on_c, 1, 69, 127
1, 15360, Note_on_c, 1, 64, 127
1, 15360, Note_on_c, 1, 61, 127
1, 15360, Note_on_c, 1, 57, 127
1, 15372, Note_off_c, 1, 69, 0
1, 15405, Note_off_c, 1, 64, 0
1, 15449, Note_off_c, 1, 57, 0
1, 15456, Note_on_c, 1, 56, 127
1, 15537, Note_off_c, 1, 61, 0
1, 15545, Note_off_c, 1, 56, 0
1, 15552, Note_on_c, 1, 42, 127
1, 15600, Note_on_c, 1, 69, 127
1, 15600, Note_on_c, 1, 73, 127
1, 15600, Note_on_c, 1, 61, 127
1, 15615, Note_off_c, 1, 61, 0
1, 15616, Note_on_c, 1, 63, 127
1, 15631, Note_off_c, 1, 63, 0
1, 15632, Note_on_c, 1, 65, 127
1, 15641, Note_off_c, 1, 42, 0
1, 15645, Note_off_c, 1, 69, 0
1, 15645, Note_off_c, 1, 73, 0
1, 15647, Note_off_c, 1, 65, 0
1, 15648, Note_on_c, 1, 69, 127
1, 15648, Note_on_c, 1, 73, 127
1, 15648, Note_on_c, 1, 66, 127
1, 15648, Note_on_c, 1, 54, 127
1, 15663, Note_off_c, 1, 66, 0
1, 15664, Note_on_c, 1, 68, 127
1, 15679, Note_off_c, 1, 68, 0
1, 15693, Note_off_c, 1, 73, 0
1, 15695, Note_off_c, 1, 69, 0
1, 15712, Note_on_c, 1, 71, 127
1, 15727, Note_off_c, 1, 71, 0
1, 15737, Note_off_c, 1, 54, 0
1, 15744, Note_on_c, 1, 68, 127
1, 15744, Note_on_c, 1, 73, 127
1, 15744, Note_on_c, 1, 52, 127
1, 15760, Note_on_c, 1, 71, 127
1, 15775, Note_off_c, 1, 71, 0
1, 15776, Note_on_c, 1, 69, 127
1, 15789, Note_off_c, 1, 68, 0
1, 15789, Note_off_c, 1, 73, 0
1, 15791, Note_off_c, 1, 69, 0
1, 15824, Note_on_c, 1, 66, 127
1, 15833, Note_off_c, 1, 52, 0
1, 15839, Note_off_c, 1, 66, 0
1, 15840, Note_on_c, 1, 66, 127
1, 15840, Note_on_c, 1, 51, 127
1, 15855, Note_off_c, 1, 66, 0
1, 15856, Note_on_c, 1, 64, 127
1, 15871, Note_off_c, 1, 64, 0
1, 15872, Note_on_c, 1, 63, 127
1, 15887, Note_off_c, 1, 63, 0
1, 15888, Note_on_c, 1, 72, 127
1, 15904, Note_on_c, 1, 61, 127
1, 15919, Note_off_c, 1, 61, 0
1, 15920, Note_on_c, 1, 60, 127
1, 15929, Note_off_c, 1, 51, 0
1, 15933, Note_off_c, 1, 72, 0
1, 15935, Note_off_c, 1, 60, 0
1, 15936, Note_on_c, 1, 66, 127
1, 15936, Note_on_c, 1, 72, 127
1, 15936, Note_on_c, 1, 60, 127
1, 15936, Note_on_c, 1, 56, 127
1, 15959, Note_off_c, 1, 60, 0
1, 15960, Note_on_c, 1, 69, 127
1, 15981, Note_off_c, 1, 66, 0
1, 15981, Note_off_c, 1, 72, 0
1, 15983, Note_off_c, 1, 69, 0
1, 15984, Note_on_c, 1, 68, 127
1, 16025, Note_off_c, 1, 56, 0
1, 16032, Note_on_c, 1, 44, 127
1, 16055, Note_off_c, 1, 68, 0
1, 16056, Note_on_c, 1, 64, 127
1, 16079, Note_off_c, 1, 64, 0
1, 16104, Note_on_c, 1, 63, 127
1, 16121, Note_off_c, 1, 44, 0
1, 16127, Note_off_c, 1, 63, 0
1, 16128, Note_on_c, 1, 73, 127
1, 16128, Note_on_c, 1, 64, 127
1, 16128, Note_on_c, 1, 49, 127
1, 16151, Note_off_c, 1, 73, 0
1, 16152, Note_off_c, 1, 64, 0
1, 16152, Note_on_c, 1, 68, 127
1, 16152, Note_on_c, 1, 60, 127
1, 16175, Note_off_c, 1, 68, 0
1, 16175, Note_off_c, 1, 60, 0
1, 16176, Note_on_c, 1, 69, 127
1, 16176, Note_on_c, 1, 61, 127
1, 16199, Note_off_c, 1, 69, 0
1, 16199, Note_off_c, 1, 61, 0
1, 16217, Note_off_c, 1, 49, 0
1, 16224, Note_on_c, 1, 76, 127
1, 16224, Note_on_c, 1, 69, 127
1, 16224, Note_on_c, 1, 61, 127
1, 16247, Note_off_c, 1, 76, 0
1, 16247, Note_off_c, 1, 69, 0
1, 16248, Note_on_c, 1, 71, 127
1, 16248, Note_on_c, 1, 68, 127
1, 16271, Note_off_c, 1, 71, 0
1, 16271, Note_off_c, 1, 68, 0
1, 16272, Note_on_c, 1, 73, 127
1, 16295, Note_off_c, 1, 73, 0
1, 16296, Note_on_c, 1, 64, 127
1, 16313, Note_off_c, 1, 61, 0
1, 16319, Note_off_c, 1, 64, 0
1, 16320, Note_on_c, 1, 63, 127
1, 16320, Note_on_c, 1, 59, 127
1, 16343, Note_off_c, 1, 63, 0
1, 16344, Note_on_c, 1, 69, 127
1, 16367, Note_off_c, 1, 69, 0
1, 16368, Note_on_c, 1, 68, 127
1, 16392, Note_on_c, 1, 64, 127
1, 16409, Note_off_c, 1, 59, 0
1, 16415, Note_off_c, 1, 64, 0
1, 16416, Note_on_c, 1, 61, 127
1, 16416, Note_on_c, 1, 45, 127
1, 16439, Note_off_c, 1, 68, 0
1, 16439, Note_off_c, 1, 61, 0
1, 16440, Note_on_c, 1, 65, 127
1, 16440, Note_on_c, 1, 56, 127
1, 16463, Note_off_c, 1, 65, 0
1, 16463, Note_off_c, 1, 56, 0
1, 16464, Note_on_c, 1, 66, 127
1, 16464, Note_on_c, 1, 57, 127
1, 16487, Note_off_c, 1, 66, 0
1, 16487, Note_off_c, 1, 57, 0
1, 16505, Note_off_c, 1, 45, 0
1, 16512, Note_on_c, 1, 73, 127
1, 16512, Note_on_c, 1, 66, 127
1, 16512, Note_on_c, 1, 57, 127
1, 16535, Note_off_c, 1, 73, 0
1, 16535, Note_off_c, 1, 66, 0
1, 16536, Note_on_c, 1, 68, 127
1, 16536, Note_on_c, 1, 65, 127
1, 16559, Note_off_c, 1, 68, 0
1, 16559, Note_off_c, 1, 65, 0
1, 16560, Note_on_c, 1, 69, 127
1, 16583, Note_off_c, 1, 69, 0
1, 16584, Note_on_c, 1, 61, 127
1, 16601, Note_off_c, 1, 57, 0
1, 16607, Note_off_c, 1, 61, 0
1, 16608, Note_on_c, 1, 59, 127
1, 16608, Note_on_c, 1, 56, 127
1, 16631, Note_off_c, 1, 59, 0
1, 16632, Note_on_c, 1, 66, 127
1, 16655, Note_off_c, 1, 66, 0
1, 16656, Note_on_c, 1, 76, 127
1, 16656, Note_on_c, 1, 64, 127
1, 16679, Note_off_c, 1, 64, 0
1, 16680, Note_on_c, 1, 61, 127
1, 16697, Note_off_c, 1, 56, 0
1, 16703, Note_off_c, 1, 61, 0
1, 16704, Note_on_c, 1, 57, 127
1, 16704, Note_on_c, 1, 42, 127
1, 16727, Note_off_c, 1, 76, 0
1, 16727, Note_off_c, 1, 57, 0
1, 16728, Note_on_c, 1, 73, 127
1, 16728, Note_on_c, 1, 52, 127
1, 16751, Note_off_c, 1, 73, 0
1, 16751, Note_off_c, 1, 52, 0
1, 16752, Note_on_c, 1, 74, 127
1, 16752, Note_on_c, 1, 54, 127
1, 16775, Note_off_c, 1, 54, 0
1, 16776, Note_off_c, 1, 74, 0
1, 16776, Note_on_c, 1, 78, 127
1, 16793, Note_off_c, 1, 42, 0
1, 16799, Note_off_c, 1, 78, 0
1, 16800, Note_on_c, 1, 81, 127
1, 16800, Note_on_c, 1, 62, 127
1, 16800, Note_on_c, 1, 54, 127
1, 16823, Note_off_c, 1, 62, 0
1, 16824, Note_off_c, 1, 81, 0
1, 16824, Note_on_c, 1, 76, 127
1, 16824, Note_on_c, 1, 61, 127
1, 16847, Note_off_c, 1, 76, 0
1, 16847, Note_off_c, 1, 61, 0
1, 16848, Note_on_c, 1, 78, 127
1, 16872, Note_off_c, 1, 78, 0
1, 16872, Note_on_c, 1, 74, 127
1, 16872, Note_on_c, 1, 57, 127
1, 16889, Note_off_c, 1, 54, 0
1, 16895, Note_off_c, 1, 74, 0
1, 16895, Note_off_c, 1, 57, 0
1, 16896, Note_on_c, 1, 56, 127
1, 16896, Note_on_c, 1, 52, 127
1, 16919, Note_off_c, 1, 56, 0
1, 16920, Note_on_c, 1, 62, 127
1, 16943, Note_off_c, 1, 62, 0
1, 16944, Note_on_c, 1, 73, 127
1, 16944, Note_on_c, 1, 61, 127
1, 16967, Note_off_c, 1, 61, 0
1, 16968, Note_on_c, 1, 57, 127
1, 16985, Note_off_c, 1, 52, 0
1, 16991, Note_off_c, 1, 57, 0
1, 16992, Note_on_c, 1, 54, 127
1, 16992, Note_on_c, 1, 39, 127
1, 17015, Note_off_c, 1, 73, 0
1, 17015, Note_off_c, 1, 54, 0
1, 17016, Note_on_c, 1, 70, 127
1, 17016, Note_on_c, 1, 64, 127
1, 17039, Note_off_c, 1, 70, 0
1, 17039, Note_off_c, 1, 64, 0
1, 17040, Note_on_c, 1, 72, 127
1, 17040, Note_on_c, 1, 63, 127
1, 17063, Note_off_c, 1, 63, 0
1, 17064, Note_off_c, 1, 72, 0
1, 17064, Note_on_c, 1, 75, 127
1, 17081, Note_off_c, 1, 39, 0
1, 17087, Note_off_c, 1, 75, 0
1, 17088, Note_on_c, 1, 78, 127
1, 17088, Note_on_c, 1, 60, 127
1, 17088, Note_on_c, 1, 51, 127
1, 17111, Note_off_c, 1, 60, 0
1, 17112, Note_on_c, 1, 61, 127
1, 17133, Note_off_c, 1, 78, 0
1, 17135, Note_off_c, 1, 61, 0
1, 17136, Note_on_c, 1, 75, 127
1, 17136, Note_on_c, 1, 63, 127
1, 17159, Note_off_c, 1, 63, 0
1, 17160, Note_on_c, 1, 66, 127
1, 17177, Note_off_c, 1, 51, 0
1, 17181, Note_off_c, 1, 75, 0
1, 17183, Note_off_c, 1, 66, 0
1, 17184, Note_on_c, 1, 75, 127
1, 17184, Note_on_c, 1, 78, 127
1, 17184, Note_on_c, 1, 53, 127
1, 17184, Note_on_c, 1, 49, 127
1, 17207, Note_off_c, 1, 53, 0
1, 17208, Note_on_c, 1, 56, 127
1, 17229, Note_off_c, 1, 75, 0
1, 17229, Note_off_c, 1, 78, 0
1, 17231, Note_off_c, 1, 56, 0
1, 17232, Note_on_c, 1, 57, 127
1, 17255, Note_off_c, 1, 57, 0
1, 17256, Note_on_c, 1, 65, 127
1, 17273, Note_off_c, 1, 49, 0
1, 17279, Note_off_c, 1, 65, 0
1, 17280, Note_on_c, 1, 75, 127
1, 17280, Note_on_c, 1, 78, 127
1, 17280, Note_on_c, 1, 56, 127
1, 17280, Note_on_c, 1, 48, 127
1, 17303, Note_off_c, 1, 56, 0
1, 17304, Note_on_c, 1, 58, 127
1, 17327, Note_off_c, 1, 58, 0
1, 17328, Note_on_c, 1, 60, 127
1, 17351, Note_off_c, 1, 60, 0
1, 17352, Note_on_c, 1, 63, 127
1, 17369, Note_off_c, 1, 48, 0
1, 17375, Note_off_c, 1, 63, 0
1, 17376, Note_on_c, 1, 66, 127
1, 17376, Note_on_c, 1, 44, 127
1, 17399, Note_off_c, 1, 75, 0
1, 17399, Note_off_c, 1, 78, 0
1, 17399, Note_off_c, 1, 66, 0
1, 17400, Note_on_c, 1, 76, 127
1, 17400, Note_on_c, 1, 68, 127
1, 17423, Note_off_c, 1, 76, 0
1, 17423, Note_off_c, 1, 68, 0
1, 17424, Note_on_c, 1, 69, 127
1, 17447, Note_off_c, 1, 69, 0
1, 17448, Note_on_c, 1, 81, 127
1, 17448, Note_on_c, 1, 72, 127
1, 17465, Note_off_c, 1, 44, 0
1, 17471, Note_off_c, 1, 81, 0
1, 17471, Note_off_c, 1, 72, 0
1, 17472, Note_on_c, 1, 80, 127
1, 17472, Note_on_c, 1, 75, 127
1, 17472, Note_on_c, 1, 48, 127
1, 17495, Note_off_c, 1, 75, 0
1, 17496, Note_off_c, 1, 80, 0
1, 17496, Note_on_c, 1, 78, 127
1, 17496, Note_on_c, 1, 69, 127
1, 17519, Note_off_c, 1, 78, 0
1, 17519, Note_off_c, 1, 69, 0
1, 17520, Note_on_c, 1, 76, 127
1, 17520, Note_on_c, 1, 68, 127
1, 17543, Note_off_c, 1, 76, 0
1, 17543, Note_off_c, 1, 68, 0
1, 17544, Note_on_c, 1, 66, 127
1, 17561, Note_off_c, 1, 48, 0
1, 17567, Note_off_c, 1, 66, 0
1, 17568, Note_on_c, 1, 64, 127
1, 17568, Note_on_c, 1, 49, 127
1, 17613, Note_off_c, 1, 64, 0
1, 17616, Note_on_c, 1, 73, 127
1, 17640, Note_on_c, 1, 63, 127
1, 17657, Note_off_c, 1, 49, 0
1, 17661, Note_off_c, 1, 73, 0
1, 17663, Note_off_c, 1, 63, 0
1, 17664, Note_on_c, 1, 72, 127
1, 17664, Note_on_c, 1, 63, 127
1, 17664, Note_on_c, 1, 56, 127
1, 17670, Note_off_c, 1, 72, 0
1, 17670, Note_off_c, 1, 63, 0
1, 17670, Note_on_c, 1, 73, 127
1, 17670, Note_on_c, 1, 64, 127
1, 17676, Note_off_c, 1, 73, 0
1, 17676, Note_off_c, 1, 64, 0
1, 17753, Note_off_c, 1, 56, 0
1, 17760, Note_on_c, 1, 44, 127
1, 17808, Note_on_c, 1, 61, 127
1, 17849, Note_off_c, 1, 44, 0
1, 17853, Note_off_c, 1, 61, 0
1, 17856, Note_on_c, 1, 73, 127
1, 17856, Note_on_c, 1, 61, 127
1, 17856, Note_on_c, 1, 49, 127
1, 17901, Note_off_c, 1, 73, 0
1, 17920, Note_on_c, 1, 63, 127
1, 17935, Note_off_c, 1, 63, 0
1, 17936, Note_on_c, 1, 64, 127
1, 17945, Note_off_c, 1, 61, 0
1, 17951, Note_off_c, 1, 64, 0
1, 17968, Note_on_c, 1, 66, 127
1, 17983, Note_off_c, 1, 66, 0
1, 17984, Note_on_c, 1, 68, 127
1, 17999, Note_off_c, 1, 68, 0
1, 18016, Note_on_c, 1, 69, 127
1, 18031, Note_off_c, 1, 69, 0
1, 18032, Note_on_c, 1, 71, 127
1, 18033, Note_off_c, 1, 49, 0
1, 18047, Note_off_c, 1, 71, 0
1, 18048, Note_on_c, 1, 71, 127
1, 18048, Note_on_c, 1, 68, 127
1, 18048, Note_on_c, 1, 47, 127
1, 18063, Note_off_c, 1, 71, 0
1, 18063, Note_off_c, 1, 68, 0
1, 18064, Note_on_c, 1, 73, 127
1, 18064, Note_on_c, 1, 69, 127
1, 18079, Note_off_c, 1, 73, 0
1, 18079, Note_off_c, 1, 69, 0
1, 18080, Note_on_c, 1, 75, 127
1, 18095, Note_off_c, 1, 75, 0
1, 18160, Note_on_c, 1, 80, 127
1, 18176, Note_off_c, 1, 80, 0
1, 18176, Note_on_c, 1, 78, 127
1, 18191, Note_off_c, 1, 78, 0
1, 18192, Note_on_c, 1, 76, 127
1, 18207, Note_off_c, 1, 76, 0
1, 18233, Note_off_c, 1, 47, 0
1, 18240, Note_on_c, 1, 73, 127
1, 18240, Note_on_c, 1, 45, 127
1, 18255, Note_off_c, 1, 73, 0
1, 18256, Note_on_c, 1, 71, 127
1, 18256, Note_on_c, 1, 75, 127
1, 18271, Note_off_c, 1, 71, 0
1, 18271, Note_off_c, 1, 75, 0
1, 18272, Note_on_c, 1, 69, 127
1, 18272, Note_on_c, 1, 76, 127
1, 18287, Note_off_c, 1, 69, 0
1, 18287, Note_off_c, 1, 76, 0
1, 18288, Note_on_c, 1, 78, 127
1, 18303, Note_off_c, 1, 78, 0
1, 18304, Note_on_c, 1, 68, 127
1, 18304, Note_on_c, 1, 80, 127
1, 18319, Note_off_c, 1, 68, 0
1, 18319, Note_off_c, 1, 80, 0
1, 18320, Note_on_c, 1, 66, 127
1, 18320, Note_on_c, 1, 81, 127
1, 18335, Note_off_c, 1, 66, 0
1, 18335, Note_off_c, 1, 81, 0
1, 18384, Note_on_c, 1, 72, 127
1, 18399, Note_off_c, 1, 72, 0
1, 18408, Note_on_c, 1, 64, 127
1, 18417, Note_off_c, 1, 45, 0
1, 18420, Note_off_c, 1, 64, 0
1, 18432, Note_on_c, 1, 44, 127
1, 18697, Note_off_c, 1, 44, 0
1, 18697, End_track
0, 0, End_of_file