0, 0, Header, 1, 1, 480
1, 0, Start_track
1, 0, Title_t, "Test"
1, 0, Tempo, 500000
1, 0, Instrument_name_t, "Church Organ"
1, 0, Note_on_c, 1, 45, 127
1, 48, Note_on_c, 1, 69, 127
1, 71, Note_off_c, 1, 69, 0
1, 72, Note_on_c, 1, 71, 127
1, 89, Note_off_c, 1, 45, 0
1, 95, Note_off_c, 1, 71, 0
1, 96, Note_on_c, 1, 73, 127
1, 96, Note_on_c, 1, 57, 127
1, 141, Note_off_c, 1, 73, 0
1, 168, Note_on_c, 1, 74, 127
1, 185, Note_off_c, 1, 57, 0
1, 191, Note_off_c, 1, 74, 0
1, 192, Note_on_c, 1, 76, 127
1, 192, Note_on_c, 1, 59, 127
1, 237, Note_off_c, 1, 76, 0
1, 240, Note_on_c, 1, 78, 127
1, 263, Note_off_c, 1, 78, 0
1, 264, Note_on_c, 1, 80, 127
1, 281, Note_off_c, 1, 59, 0
1, 287, Note_off_c, 1, 80, 0
1, 288, Note_on_c, 1, 81, 127
1, 288, Note_on_c, 1, 61, 127
1, 333, Note_off_c, 1, 81, 0
1, 336, Note_on_c, 1, 80, 127
1, 359, Note_off_c, 1, 80, 0
1, 360, Note_on_c, 1, 78, 127
1, 377, Note_off_c, 1, 61, 0
1, 383, Note_off_c, 1, 78, 0
1, 384, Note_on_c, 1, 76, 127
1, 384, Note_on_c, 1, 49, 127
1, 429, Note_off_c, 1, 76, 0
1, 429, Note_off_c, 1, 49, 0
1, 432, Note_on_c, 1, 74, 127
1, 432, Note_on_c, 1, 50, 127
1, 477, Note_off_c, 1, 74, 0
1, 477, Note_off_c, 1, 50, 0
1, 480, Note_on_c, 1, 73, 127
1, 480, Note_on_c, 1, 52, 127
1, 525, Note_off_c, 1, 73, 0
1, 525, Note_off_c, 1, 52, 0
1, 528, Note_on_c, 1, 71, 127
1, 528, Note_on_c, 1, 49, 127
1, 573, Note_off_c, 1, 71, 0
1, 573, Note_off_c, 1, 49, 0
1, 576, Note_on_c, 1, 69, 127
1, 576, Note_on_c, 1, 54, 127
1, 621, Note_off_c, 1, 69, 0
1, 624, Note_on_c, 1, 74, 127
1, 647, Note_off_c, 1, 74, 0
1, 648, Note_on_c, 1, 73, 127
1, 665, Note_off_c, 1, 54, 0
1, 671, Note_off_c, 1, 73, 0
1, 672, Note_on_c, 1, 74, 127
1, 672, Note_on_c, 1, 42, 127
1, 717, Note_off_c, 1, 74, 0
1, 720, Note_on_c, 1, 78, 127
1, 761, Note_off_c, 1, 42, 0
1, 765, Note_off_c, 1, 78, 0
1, 768, Note_on_c, 1, 71, 127
1, 768, Note_on_c, 1, 44, 127
1, 813, Note_off_c, 1, 71, 0
1, 816, Note_on_c, 1, 76, 127
1, 857, Note_off_c, 1, 44, 0
1, 861, Note_off_c, 1, 76, 0
1, 864, Note_on_c, 1, 73, 127
1, 864, Note_on_c, 1, 45, 127
1, 909, Note_off_c, 1, 73, 0
1, 912, Note_on_c, 1, 78, 127
1, 935, Note_off_c, 1, 78, 0
1, 936, Note_on_c, 1, 76, 127
1, 953, Note_off_c, 1, 45, 0
1, 959, Note_off_c, 1, 76, 0
1, 960, Note_on_c, 1, 78, 127
1, 960, Note_on_c, 1, 57, 127
1, 1005, Note_off_c, 1, 78, 0
1, 1008, Note_on_c, 1, 81, 127
1, 1049, Note_off_c, 1, 57, 0
1, 1053, Note_off_c, 1, 81, 0
1, 1056, Note_on_c, 1, 75, 127
1, 1056, Note_on_c, 1, 59, 127
1, 1101, Note_off_c, 1, 75, 0
1, 1104, Note_on_c, 1, 80, 127
1, 1145, Note_off_c, 1, 59, 0
1, 1149, Note_off_c, 1, 80, 0
1, 1152, Note_on_c, 1, 76, 127
1, 1152, Note_on_c, 1, 61, 127
1, 1197, Note_off_c, 1, 76, 0
1, 1200, Note_on_c, 1, 81, 127
1, 1223, Note_off_c, 1, 81, 0
1, 1224, Note_on_c, 1, 80, 127
1, 1241, Note_off_c, 1, 61, 0
1, 1247, Note_off_c, 1, 80, 0
1, 1248, Note_on_c, 1, 81, 127
1, 1248, Note_on_c, 1, 49, 127
1, 1293, Note_off_c, 1, 81, 0
1, 1296, Note_on_c, 1, 85, 127
1, 1337, Note_off_c, 1, 49, 0
1, 1341, Note_off_c, 1, 85, 0
1, 1344, Note_on_c, 1, 78, 127
1, 1344, Note_on_c, 1, 51, 127
1, 1389, Note_off_c, 1, 78, 0
1, 1392, Note_on_c, 1, 83, 127
1, 1433, Note_off_c, 1, 51, 0
1, 1437, Note_off_c, 1, 83, 0
1, 1440, Note_on_c, 1, 80, 127
1, 1440, Note_on_c, 1, 52, 127
1, 1463, Note_off_c, 1, 80, 0
1, 1464, Note_on_c, 1, 78, 127
1, 1487, Note_off_c, 1, 78, 0
1, 1488, Note_on_c, 1, 64, 127
1, 1511, Note_off_c, 1, 64, 0
1, 1512, Note_on_c, 1, 81, 127
1, 1512, Note_on_c, 1, 66, 127
1, 1535, Note_off_c, 1, 81, 0
1, 1535, Note_off_c, 1, 66, 0
1, 1536, Note_on_c, 1, 83, 127
1, 1536, Note_on_c, 1, 68, 127
1, 1581, Note_off_c, 1, 83, 0
1, 1581, Note_off_c, 1, 68, 0
1, 1584, Note_on_c, 1, 76, 127
1, 1608, Note_on_c, 1, 69, 127
1, 1617, Note_off_c, 1, 52, 0
1, 1629, Note_off_c, 1, 76, 0
1, 1631, Note_off_c, 1, 69, 0
1, 1632, Note_on_c, 1, 75, 127
1, 1632, Note_on_c, 1, 71, 127
1, 1632, Note_on_c, 1, 47, 127
1, 1677, Note_off_c, 1, 75, 0
1, 1677, Note_off_c, 1, 71, 0
1, 1680, Note_on_c, 1, 81, 127
1, 1680, Note_on_c, 1, 73, 127
1, 1703, Note_off_c, 1, 73, 0
1, 1721, Note_off_c, 1, 47, 0
1, 1725, Note_off_c, 1, 81, 0
1, 1728, Note_on_c, 1, 80, 127
1, 1728, Note_on_c, 1, 76, 127
1, 1728, Note_on_c, 1, 49, 127
1, 1751, Note_off_c, 1, 80, 0
1, 1752, Note_on_c, 1, 78, 127
1, 1773, Note_off_c, 1, 76, 0
1, 1773, Note_off_c, 1, 49, 0
1, 1775, Note_off_c, 1, 78, 0
1, 1776, Note_on_c, 1, 80, 127
1, 1776, Note_on_c, 1, 75, 127
1, 1776, Note_on_c, 1, 47, 127
1, 1799, Note_off_c, 1, 80, 0
1, 1799, Note_off_c, 1, 75, 0
1, 1799, Note_off_c, 1, 47, 0
1, 1800, Note_on_c, 1, 81, 127
1, 1800, Note_on_c, 1, 73, 127
1, 1800, Note_on_c, 1, 45, 127
1, 1823, Note_off_c, 1, 81, 0
1, 1823, Note_off_c, 1, 73, 0
1, 1823, Note_off_c, 1, 45, 0
1, 1824, Note_on_c, 1, 83, 127
1, 1824, Note_on_c, 1, 71, 127
1, 1824, Note_on_c, 1, 44, 127
1, 1869, Note_off_c, 1, 83, 0
1, 1869, Note_off_c, 1, 71, 0
1, 1869, Note_off_c, 1, 44, 0
1, 1872, Note_on_c, 1, 76, 127
1, 1872, Note_on_c, 1, 69, 127
1, 1872, Note_on_c, 1, 42, 127
1, 1917, Note_off_c, 1, 76, 0
1, 1917, Note_off_c, 1, 69, 0
1, 1917, Note_off_c, 1, 42, 0
1, 1920, Note_on_c, 1, 71, 127
1, 1920, Note_on_c, 1, 68, 127
1, 1920, Note_on_c, 1, 40, 127
1, 1965, Note_off_c, 1, 71, 0
1, 1965, Note_off_c, 1, 68, 0
1, 1968, Note_on_c, 1, 74, 127
1, 1968, Note_on_c, 1, 66, 127
1, 2009, Note_off_c, 1, 40, 0
1, 2013, Note_off_c, 1, 74, 0
1, 2013, Note_off_c, 1, 66, 0
1, 2016, Note_on_c, 1, 73, 127
1, 2016, Note_on_c, 1, 64, 127
1, 2016, Note_on_c, 1, 45, 127
1, 2039, Note_off_c, 1, 73, 0
1, 2040, Note_on_c, 1, 74, 127
1, 2061, Note_off_c, 1, 64, 0
1, 2063, Note_off_c, 1, 74, 0
1, 2064, Note_on_c, 1, 69, 127
1, 2087, Note_off_c, 1, 69, 0
1, 2088, Note_on_c, 1, 71, 127
1, 2088, Note_on_c, 1, 68, 127
1, 2105, Note_off_c, 1, 45, 0
1, 2111, Note_off_c, 1, 71, 0
1, 2111, Note_off_c, 1, 68, 0
1, 2112, Note_on_c, 1, 69, 127
1, 2112, Note_on_c, 1, 42, 127
1, 2136, Note_on_c, 1, 68, 127
1, 2157, Note_off_c, 1, 69, 0
1, 2159, Note_off_c, 1, 68, 0
1, 2160, Note_on_c, 1, 66, 127
1, 2160, Note_on_c, 1, 73, 127
1, 2183, Note_off_c, 1, 66, 0
1, 2184, Note_on_c, 1, 64, 127
1, 2201, Note_off_c, 1, 42, 0
1, 2205, Note_off_c, 1, 73, 0
1, 2207, Note_off_c, 1, 64, 0
1, 2208, Note_on_c, 1, 63, 127
1, 2208, Note_on_c, 1, 66, 127
1, 2208, Note_on_c, 1, 47, 127
1, 2253, Note_off_c, 1, 63, 0
1, 2253, Note_off_c, 1, 66, 0
1, 2256, Note_on_c, 1, 76, 127
1, 2256, Note_on_c, 1, 71, 127
1, 2280, Note_off_c, 1, 76, 0
1, 2280, Note_on_c, 1, 75, 127
1, 2297, Note_off_c, 1, 47, 0
1, 2301, Note_off_c, 1, 71, 0
1, 2303, Note_off_c, 1, 75, 0
1, 2304, Note_on_c, 1, 76, 127
1, 2304, Note_on_c, 1, 68, 127
1, 2304, Note_on_c, 1, 40, 127
1, 2349, Note_off_c, 1, 68, 0
1, 2352, Note_on_c, 1, 73, 127
1, 2375, Note_off_c, 1, 73, 0
1, 2376, Note_on_c, 1, 71, 127
1, 2393, Note_off_c, 1, 40, 0
1, 2399, Note_off_c, 1, 71, 0
1, 2400, Note_on_c, 1, 52, 127
1, 2489, Note_off_c, 1, 52, 0
1, 2493, Note_off_c, 1, 76, 0
1, 2496, Note_on_c, 1, 74, 127
1, 2496, Note_on_c, 1, 69, 127
1, 2496, Note_on_c, 1, 54, 127
1, 2541, Note_off_c, 1, 69, 0
1, 2585, Note_off_c, 1, 54, 0
1, 2592, Note_on_c, 1, 71, 127
1, 2592, Note_on_c, 1, 56, 127
1, 2637, Note_off_c, 1, 71, 0
1, 2640, Note_on_c, 1, 76, 127
1, 2663, Note_off_c, 1, 76, 0
1, 2681, Note_off_c, 1, 56, 0
1, 2687, Note_off_c, 1, 74, 0
1, 2688, Note_on_c, 1, 73, 127
1, 2688, Note_on_c, 1, 76, 127
1, 2688, Note_on_c, 1, 44, 127
1, 2733, Note_off_c, 1, 73, 0
1, 2733, Note_off_c, 1, 76, 0
1, 2736, Note_on_c, 1, 71, 127
1, 2736, Note_on_c, 1, 80, 127
1, 2777, Note_off_c, 1, 44, 0
1, 2781, Note_off_c, 1, 71, 0
1, 2781, Note_off_c, 1, 80, 0
1, 2784, Note_on_c, 1, 73, 127
1, 2784, Note_on_c, 1, 45, 127
1, 2832, Note_on_c, 1, 78, 127
1, 2873, Note_off_c, 1, 45, 0
1, 2877, Note_off_c, 1, 78, 0
1, 2880, Note_on_c, 1, 74, 127
1, 2880, Note_on_c, 1, 47, 127
1, 2903, Note_off_c, 1, 74, 0
1, 2927, Note_off_c, 1, 73, 0
1, 2928, Note_on_c, 1, 81, 127
1, 2951, Note_off_c, 1, 81, 0
1, 2952, Note_on_c, 1, 80, 127
1, 2952, Note_on_c, 1, 76, 127
1, 2969, Note_off_c, 1, 47, 0
1, 2975, Note_off_c, 1, 80, 0
1, 2975, Note_off_c, 1, 76, 0
1, 2976, Note_on_c, 1, 78, 127
1, 2976, Note_on_c, 1, 50, 127
1, 3000, Note_on_c, 1, 76, 127
1, 3021, Note_off_c, 1, 78, 0
1, 3023, Note_off_c, 1, 76, 0
1, 3024, Note_on_c, 1, 74, 127
1, 3024, Note_on_c, 1, 69, 127
1, 3047, Note_off_c, 1, 74, 0
1, 3048, Note_on_c, 1, 73, 127
1, 3065, Note_off_c, 1, 50, 0
1, 3069, Note_off_c, 1, 69, 0
1, 3071, Note_off_c, 1, 73, 0
1, 3072, Note_on_c, 1, 71, 127
1, 3072, Note_on_c, 1, 68, 127
1, 3072, Note_on_c, 1, 52, 127
1, 3095, Note_off_c, 1, 71, 0
1, 3096, Note_on_c, 1, 69, 127
1, 3117, Note_off_c, 1, 68, 0
1, 3119, Note_off_c, 1, 69, 0
1, 3120, Note_on_c, 1, 74, 127
1, 3161, Note_off_c, 1, 52, 0
1, 3165, Note_off_c, 1, 74, 0
1, 3168, Note_on_c, 1, 69, 127
1, 3168, Note_on_c, 1, 73, 127
1, 3168, Note_on_c, 1, 57, 127
1, 3191, Note_off_c, 1, 73, 0
1, 3192, Note_on_c, 1, 71, 127
1, 3213, Note_off_c, 1, 57, 0
1, 3215, Note_off_c, 1, 71, 0
1, 3216, Note_on_c, 1, 45, 127
1, 3239, Note_off_c, 1, 45, 0
1, 3240, Note_on_c, 1, 74, 127
1, 3240, Note_on_c, 1, 47, 127
1, 3257, Note_off_c, 1, 69, 0
1, 3263, Note_off_c, 1, 74, 0
1, 3263, Note_off_c, 1, 47, 0
1, 3264, Note_on_c, 1, 76, 127
1, 3264, Note_on_c, 1, 49, 127
1, 3309, Note_off_c, 1, 76, 0
1, 3309, Note_off_c, 1, 49, 0
1, 3312, Note_on_c, 1, 69, 127
1, 3312, Note_on_c, 1, 49, 127
1, 3335, Note_off_c, 1, 49, 0
1, 3336, Note_on_c, 1, 50, 127
1, 3357, Note_off_c, 1, 69, 0
1, 3359, Note_off_c, 1, 50, 0
1, 3360, Note_on_c, 1, 76, 127
1, 3360, Note_on_c, 1, 68, 127
1, 3360, Note_on_c, 1, 52, 127
1, 3405, Note_off_c, 1, 68, 0
1, 3405, Note_off_c, 1, 52, 0
1, 3408, Note_on_c, 1, 74, 127
1, 3408, Note_on_c, 1, 54, 127
1, 3431, Note_off_c, 1, 54, 0
1, 3432, Note_on_c, 1, 56, 127
1, 3449, Note_off_c, 1, 76, 0
1, 3453, Note_off_c, 1, 74, 0
1, 3455, Note_off_c, 1, 56, 0
1, 3456, Note_on_c, 1, 76, 127
1, 3456, Note_on_c, 1, 73, 127
1, 3456, Note_on_c, 1, 57, 127
1, 3479, Note_off_c, 1, 73, 0
1, 3480, Note_on_c, 1, 71, 127
1, 3501, Note_off_c, 1, 57, 0
1, 3503, Note_off_c, 1, 71, 0
1, 3504, Note_on_c, 1, 56, 127
1, 3527, Note_off_c, 1, 56, 0
1, 3528, Note_on_c, 1, 74, 127
1, 3528, Note_on_c, 1, 54, 127
1, 3551, Note_off_c, 1, 74, 0
1, 3551, Note_off_c, 1, 54, 0
1, 3552, Note_on_c, 1, 52, 127
1, 3597, Note_off_c, 1, 52, 0
1, 3600, Note_on_c, 1, 69, 127
1, 3600, Note_on_c, 1, 50, 127
1, 3645, Note_off_c, 1, 69, 0
1, 3645, Note_off_c, 1, 50, 0
1, 3648, Note_on_c, 1, 64, 127
1, 3648, Note_on_c, 1, 49, 127
1, 3693, Note_off_c, 1, 64, 0
1, 3693, Note_off_c, 1, 49, 0
1, 3696, Note_on_c, 1, 67, 127
1, 3696, Note_on_c, 1, 47, 127
1, 3741, Note_off_c, 1, 67, 0
1, 3741, Note_off_c, 1, 47, 0
1, 3744, Note_on_c, 1, 66, 127
1, 3744, Note_on_c, 1, 45, 127
1, 3767, Note_off_c, 1, 66, 0
1, 3789, Note_off_c, 1, 45, 0
1, 3833, Note_off_c, 1, 76, 0
1, 3840, Note_on_c, 1, 78, 127
1, 3840, Note_on_c, 1, 62, 127
1, 3840, Note_on_c, 1, 50, 127
1, 3863, Note_off_c, 1, 62, 0
1, 3864, Note_on_c, 1, 61, 127
1, 3885, Note_off_c, 1, 50, 0
1, 3887, Note_off_c, 1, 61, 0
1, 3888, Note_on_c, 1, 59, 127
1, 3888, Note_on_c, 1, 54, 127
1, 3911, Note_off_c, 1, 59, 0
1, 3912, Note_on_c, 1, 57, 127
1, 3929, Note_off_c, 1, 78, 0
1, 3933, Note_off_c, 1, 54, 0
1, 3935, Note_off_c, 1, 57, 0
1, 3936, Note_on_c, 1, 80, 127
1, 3936, Note_on_c, 1, 56, 127
1, 3936, Note_on_c, 1, 47, 127
1, 3981, Note_off_c, 1, 56, 0
1, 3981, Note_off_c, 1, 47, 0
1, 3984, Note_on_c, 1, 68, 127
1, 3984, Note_on_c, 1, 52, 127
1, 4029, Note_off_c, 1, 68, 0
1, 4029, Note_off_c, 1, 52, 0
1, 4032, Note_on_c, 1, 69, 127
1, 4032, Note_on_c, 1, 49, 127
1, 4055, Note_off_c, 1, 69, 0
1, 4056, Note_on_c, 1, 71, 127
1, 4077, Note_off_c, 1, 49, 0
1, 4079, Note_off_c, 1, 71, 0
1, 4080, Note_on_c, 1, 54, 127
1, 4103, Note_off_c, 1, 54, 0
1, 4121, Note_off_c, 1, 80, 0
1, 4128, Note_on_c, 1, 81, 127
1, 4128, Note_on_c, 1, 66, 127
1, 4128, Note_on_c, 1, 54, 127
1, 4151, Note_off_c, 1, 66, 0
1, 4152, Note_on_c, 1, 64, 127
1, 4173, Note_off_c, 1, 54, 0
1, 4175, Note_off_c, 1, 64, 0
1, 4176, Note_on_c, 1, 63, 127
1, 4176, Note_on_c, 1, 57, 127
1, 4199, Note_off_c, 1, 63, 0
1, 4200, Note_on_c, 1, 61, 127
1, 4217, Note_off_c, 1, 81, 0
1, 4221, Note_off_c, 1, 57, 0
1, 4223, Note_off_c, 1, 61, 0
1, 4224, Note_on_c, 1, 83, 127
1, 4224, Note_on_c, 1, 59, 127
1, 4224, Note_on_c, 1, 51, 127
1, 4269, Note_off_c, 1, 59, 0
1, 4269, Note_off_c, 1, 51, 0
1, 4272, Note_on_c, 1, 71, 127
1, 4272, Note_on_c, 1, 56, 127
1, 4317, Note_off_c, 1, 71, 0
1, 4317, Note_off_c, 1, 56, 0
1, 4320, Note_on_c, 1, 73, 127
1, 4320, Note_on_c, 1, 52, 127
1, 4343, Note_off_c, 1, 73, 0
1, 4344, Note_on_c, 1, 74, 127
1, 4365, Note_off_c, 1, 52, 0
1, 4367, Note_off_c, 1, 74, 0
1, 4368, Note_on_c, 1, 57, 127
1, 4391, Note_off_c, 1, 57, 0
1, 4409, Note_off_c, 1, 83, 0
1, 4416, Note_on_c, 1, 85, 127
1, 4416, Note_on_c, 1, 69, 127
1, 4416, Note_on_c, 1, 57, 127
1, 4439, Note_off_c, 1, 69, 0
1, 4440, Note_on_c, 1, 68, 127
1, 4461, Note_off_c, 1, 57, 0
1, 4463, Note_off_c, 1, 68, 0
1, 4464, Note_on_c, 1, 66, 127
1, 4464, Note_on_c, 1, 61, 127
1, 4487, Note_off_c, 1, 66, 0
1, 4488, Note_on_c, 1, 64, 127
1, 4505, Note_off_c, 1, 85, 0
1, 4509, Note_off_c, 1, 61, 0
1, 4511, Note_off_c, 1, 64, 0
1, 4512, Note_on_c, 1, 87, 127
1, 4512, Note_on_c, 1, 66, 127
1, 4512, Note_on_c, 1, 54, 127
1, 4535, Note_off_c, 1, 66, 0
1, 4536, Note_on_c, 1, 69, 127
1, 4557, Note_off_c, 1, 54, 0
1, 4559, Note_off_c, 1, 69, 0
1, 4560, Note_on_c, 1, 68, 127
1, 4560, Note_on_c, 1, 59, 127
1, 4583, Note_off_c, 1, 68, 0
1, 4601, Note_off_c, 1, 87, 0
1, 4605, Note_off_c, 1, 59, 0
1, 4608, Note_on_c, 1, 88, 127
1, 4608, Note_on_c, 1, 64, 127
1, 4608, Note_on_c, 1, 56, 127
1, 4653, Note_off_c, 1, 88, 0
1, 4653, Note_off_c, 1, 56, 0
1, 4656, Note_on_c, 1, 86, 127
1, 4656, Note_on_c, 1, 52, 127
1, 4679, Note_off_c, 1, 86, 0
1, 4680, Note_on_c, 1, 85, 127
1, 4697, Note_off_c, 1, 64, 0
1, 4701, Note_off_c, 1, 52, 0
1, 4703, Note_off_c, 1, 85, 0
1, 4704, Note_on_c, 1, 83, 127
1, 4704, Note_on_c, 1, 56, 127
1, 4727, Note_off_c, 1, 83, 0
1, 4728, Note_on_c, 1, 81, 127
1, 4749, Note_off_c, 1, 56, 0
1, 4751, Note_off_c, 1, 81, 0
1, 4752, Note_on_c, 1, 80, 127
1, 4752, Note_on_c, 1, 59, 127
1, 4775, Note_off_c, 1, 80, 0
1, 4776, Note_on_c, 1, 78, 127
1, 4797, Note_off_c, 1, 59, 0
1, 4799, Note_off_c, 1, 78, 0
1, 4800, Note_on_c, 1, 76, 127
1, 4800, Note_on_c, 1, 64, 127
1, 4823, Note_off_c, 1, 76, 0
1, 4824, Note_on_c, 1, 80, 127
1, 4845, Note_off_c, 1, 64, 0
1, 4847, Note_off_c, 1, 80, 0
1, 4848, Note_on_c, 1, 78, 127
1, 4848, Note_on_c, 1, 62, 127
1, 4871, Note_off_c, 1, 78, 0
1, 4872, Note_on_c, 1, 76, 127
1, 4893, Note_off_c, 1, 62, 0
1, 4895, Note_off_c, 1, 76, 0
1, 4896, Note_on_c, 1, 81, 127
1, 4896, Note_on_c, 1, 61, 127
1, 4941, Note_off_c, 1, 81, 0
1, 4944, Note_on_c, 1, 76, 127
1, 4944, Note_on_c, 1, 80, 127
1, 4967, Note_off_c, 1, 80, 0
1, 4968, Note_on_c, 1, 78, 127
1, 4985, Note_off_c, 1, 61, 0
1, 4989, Note_off_c, 1, 76, 0
1, 4991, Note_off_c, 1, 78, 0
1, 4992, Note_on_c, 1, 73, 127
1, 4992, Note_on_c, 1, 76, 127
1, 5015, Note_off_c, 1, 76, 0
1, 5016, Note_on_c, 1, 74, 127
1, 5037, Note_off_c, 1, 73, 0
1, 5039, Note_off_c, 1, 74, 0
1, 5040, Note_on_c, 1, 69, 127
1, 5040, Note_on_c, 1, 73, 127
1, 5063, Note_off_c, 1, 73, 0
1, 5064, Note_on_c, 1, 71, 127
1, 5085, Note_off_c, 1, 69, 0
1, 5087, Note_off_c, 1, 71, 0
1, 5088, Note_on_c, 1, 79, 127
1, 5088, Note_on_c, 1, 69, 127
1, 5111, Note_off_c, 1, 69, 0
1, 5112, Note_on_c, 1, 73, 127
1, 5135, Note_off_c, 1, 73, 0
1, 5136, Note_on_c, 1, 71, 127
1, 5159, Note_off_c, 1, 71, 0
1, 5184, Note_off_c, 1, 79, 0
1, 5184, Note_on_c, 1, 78, 127
1, 5184, Note_on_c, 1, 74, 127
1, 5208, Note_on_c, 1, 50, 127
1, 5229, Note_off_c, 1, 78, 0
1, 5229, Note_off_c, 1, 74, 0
1, 5231, Note_off_c, 1, 50, 0
1, 5232, Note_on_c, 1, 74, 127
1, 5232, Note_on_c, 1, 69, 127
1, 5232, Note_on_c, 1, 52, 127
1, 5255, Note_off_c, 1, 52, 0
1, 5256, Note_on_c, 1, 54, 127
1, 5277, Note_off_c, 1, 74, 0
1, 5277, Note_off_c, 1, 69, 0
1, 5279, Note_off_c, 1, 54, 0
1, 5280, Note_on_c, 1, 69, 127
1, 5280, Note_on_c, 1, 66, 127
1, 5280, Note_on_c, 1, 55, 127
1, 5303, Note_off_c, 1, 55, 0
1, 5304, Note_on_c, 1, 57, 127
1, 5325, Note_off_c, 1, 69, 0
1, 5325, Note_off_c, 1, 66, 0
1, 5327, Note_off_c, 1, 57, 0
1, 5328, Note_on_c, 1, 66, 127
1, 5328, Note_on_c, 1, 62, 127
1, 5328, Note_on_c, 1, 59, 127
1, 5351, Note_off_c, 1, 59, 0
1, 5352, Note_on_c, 1, 61, 127
1, 5373, Note_off_c, 1, 66, 0
1, 5373, Note_off_c, 1, 62, 0
1, 5375, Note_off_c, 1, 61, 0
1, 5376, Note_on_c, 1, 78, 127
1, 5376, Note_on_c, 1, 74, 127
1, 5376, Note_on_c, 1, 62, 127
1, 5399, Note_off_c, 1, 62, 0
1, 5400, Note_on_c, 1, 59, 127
1, 5421, Note_off_c, 1, 74, 0
1, 5423, Note_off_c, 1, 59, 0
1, 5424, Note_on_c, 1, 71, 127
1, 5424, Note_on_c, 1, 57, 127
1, 5447, Note_off_c, 1, 57, 0
1, 5448, Note_on_c, 1, 56, 127
1, 5469, Note_off_c, 1, 71, 0
1, 5471, Note_off_c, 1, 56, 0
1, 5472, Note_on_c, 1, 68, 127
1, 5472, Note_on_c, 1, 61, 127
1, 5495, Note_off_c, 1, 68, 0
1, 5495, Note_off_c, 1, 61, 0
1, 5544, Note_on_c, 1, 64, 127
1, 5561, Note_off_c, 1, 78, 0
1, 5567, Note_off_c, 1, 64, 0
1, 5568, Note_on_c, 1, 76, 127
1, 5568, Note_on_c, 1, 66, 127
1, 5591, Note_off_c, 1, 66, 0
1, 5592, Note_on_c, 1, 68, 127
1, 5592, Note_on_c, 1, 62, 127
1, 5613, Note_off_c, 1, 76, 0
1, 5615, Note_off_c, 1, 68, 0
1, 5615, Note_off_c, 1, 62, 0
1, 5616, Note_on_c, 1, 74, 127
1, 5616, Note_on_c, 1, 69, 127
1, 5616, Note_on_c, 1, 61, 127
1, 5639, Note_off_c, 1, 69, 0
1, 5639, Note_off_c, 1, 61, 0
1, 5640, Note_on_c, 1, 71, 127
1, 5640, Note_on_c, 1, 59, 127
1, 5661, Note_off_c, 1, 74, 0
1, 5663, Note_off_c, 1, 71, 0
1, 5663, Note_off_c, 1, 59, 0
1, 5664, Note_on_c, 1, 76, 127
1, 5664, Note_on_c, 1, 73, 127
1, 5664, Note_on_c, 1, 57, 127
1, 5687, Note_off_c, 1, 73, 0
1, 5687, Note_off_c, 1, 57, 0
1, 5688, Note_on_c, 1, 71, 127
1, 5688, Note_on_c, 1, 54, 127
1, 5711, Note_off_c, 1, 71, 0
1, 5711, Note_off_c, 1, 54, 0
1, 5712, Note_on_c, 1, 69, 127
1, 5712, Note_on_c, 1, 56, 127
1, 5735, Note_off_c, 1, 69, 0
1, 5735, Note_off_c, 1, 56, 0
1, 5736, Note_on_c, 1, 68, 127
1, 5759, Note_off_c, 1, 68, 0
1, 5760, Note_on_c, 1, 66, 127
1, 5760, Note_on_c, 1, 59, 127
1, 5783, Note_off_c, 1, 59, 0
1, 5784, Note_on_c, 1, 47, 127
1, 5807, Note_off_c, 1, 47, 0
1, 5808, Note_on_c, 1, 49, 127
1, 5831, Note_off_c, 1, 49, 0
1, 5832, Note_on_c, 1, 50, 127
1, 5849, Note_off_c, 1, 76, 0
1, 5855, Note_off_c, 1, 50, 0
1, 5856, Note_on_c, 1, 74, 127
1, 5856, Note_on_c, 1, 52, 127
1, 5879, Note_off_c, 1, 66, 0
1, 5879, Note_off_c, 1, 52, 0
1, 5901, Note_off_c, 1, 74, 0
1, 5904, Note_on_c, 1, 73, 127
1, 5904, Note_on_c, 1, 71, 127
1, 5904, Note_on_c, 1, 56, 127
1, 5927, Note_off_c, 1, 71, 0
1, 5927, Note_off_c, 1, 56, 0
1, 5928, Note_on_c, 1, 69, 127
1, 5928, Note_on_c, 1, 57, 127
1, 5949, Note_off_c, 1, 73, 0
1, 5951, Note_off_c, 1, 69, 0
1, 5951, Note_off_c, 1, 57, 0
1, 5952, Note_on_c, 1, 74, 127
1, 5952, Note_on_c, 1, 68, 127
1, 5952, Note_on_c, 1, 59, 127
1, 5964, Note_off_c, 1, 68, 0
1, 5964, Note_on_c, 1, 69, 127
1, 5975, Note_off_c, 1, 59, 0
1, 5976, Note_off_c, 1, 69, 0
1, 5976, Note_on_c, 1, 56, 127
1, 5999, Note_off_c, 1, 56, 0
1, 6000, Note_on_c, 1, 54, 127
1, 6023, Note_off_c, 1, 54, 0
1, 6024, Note_on_c, 1, 66, 127
1, 6024, Note_on_c, 1, 52, 127
1, 6036, Note_off_c, 1, 66, 0
1, 6047, Note_off_c, 1, 52, 0
1, 6048, Note_on_c, 1, 57, 127
1, 6120, Note_on_c, 1, 71, 127
1, 6137, Note_off_c, 1, 74, 0
1, 6137, Note_off_c, 1, 57, 0
1, 6143, Note_off_c, 1, 71, 0
1, 6144, Note_on_c, 1, 73, 127
1, 6144, Note_on_c, 1, 45, 127
1, 6189, Note_off_c, 1, 73, 0
1, 6189, Note_off_c, 1, 45, 0
1, 6192, Note_on_c, 1, 71, 127
1, 6192, Note_on_c, 1, 73, 127
1, 6192, Note_on_c, 1, 47, 127
1, 6215, Note_off_c, 1, 73, 0
1, 6216, Note_on_c, 1, 74, 127
1, 6237, Note_off_c, 1, 71, 0
1, 6237, Note_off_c, 1, 47, 0
1, 6239, Note_off_c, 1, 74, 0
1, 6240, Note_on_c, 1, 73, 127
1, 6240, Note_on_c, 1, 76, 127
1, 6240, Note_on_c, 1, 45, 127
1, 6285, Note_off_c, 1, 76, 0
1, 6285, Note_off_c, 1, 45, 0
1, 6288, Note_on_c, 1, 78, 127
1, 6288, Note_on_c, 1, 44, 127
1, 6311, Note_off_c, 1, 78, 0
1, 6312, Note_on_c, 1, 80, 127
1, 6333, Note_off_c, 1, 44, 0
1, 6335, Note_off_c, 1, 80, 0
1, 6336, Note_on_c, 1, 81, 127
1, 6336, Note_on_c, 1, 42, 127
1, 6381, Note_off_c, 1, 81, 0
1, 6381, Note_off_c, 1, 42, 0
1, 6384, Note_on_c, 1, 57, 127
1, 6425, Note_off_c, 1, 73, 0
1, 6429, Note_off_c, 1, 57, 0
1, 6432, Note_on_c, 1, 71, 127
1, 6432, Note_on_c, 1, 76, 127
1, 6432, Note_on_c, 1, 56, 127
1, 6477, Note_off_c, 1, 71, 0
1, 6477, Note_off_c, 1, 76, 0
1, 6477, Note_off_c, 1, 56, 0
1, 6480, Note_on_c, 1, 69, 127
1, 6480, Note_on_c, 1, 74, 127
1, 6480, Note_on_c, 1, 54, 127
1, 6525, Note_off_c, 1, 69, 0
1, 6525, Note_off_c, 1, 74, 0
1, 6525, Note_off_c, 1, 54, 0
1, 6528, Note_on_c, 1, 68, 127
1, 6528, Note_on_c, 1, 73, 127
1, 6528, Note_on_c, 1, 52, 127
1, 6573, Note_off_c, 1, 68, 0
1, 6573, Note_off_c, 1, 73, 0
1, 6573, Note_off_c, 1, 52, 0
1, 6576, Note_on_c, 1, 76, 127
1, 6576, Note_on_c, 1, 71, 127
1, 6576, Note_on_c, 1, 50, 127
1, 6621, Note_off_c, 1, 71, 0
1, 6621, Note_off_c, 1, 50, 0
1, 6624, Note_on_c, 1, 69, 127
1, 6624, Note_on_c, 1, 49, 127
1, 6647, Note_off_c, 1, 76, 0
1, 6648, Note_on_c, 1, 80, 127
1, 6669, Note_off_c, 1, 69, 0
1, 6671, Note_off_c, 1, 80, 0
1, 6672, Note_on_c, 1, 78, 127
1, 6672, Note_on_c, 1, 74, 127
1, 6695, Note_off_c, 1, 78, 0
1, 6695, Note_off_c, 1, 74, 0
1, 6696, Note_on_c, 1, 73, 127
1, 6713, Note_off_c, 1, 49, 0
1, 6719, Note_off_c, 1, 73, 0
1, 6720, Note_on_c, 1, 74, 127
1, 6744, Note_on_c, 1, 73, 127
1, 6744, Note_on_c, 1, 47, 127
1, 6765, Note_off_c, 1, 74, 0
1, 6767, Note_off_c, 1, 73, 0
1, 6767, Note_off_c, 1, 47, 0
1, 6768, Note_on_c, 1, 71, 127
1, 6768, Note_on_c, 1, 78, 127
1, 6768, Note_on_c, 1, 49, 127
1, 6791, Note_off_c, 1, 71, 0
1, 6791, Note_off_c, 1, 49, 0
1, 6792, Note_on_c, 1, 69, 127
1, 6792, Note_on_c, 1, 50, 127
1, 6813, Note_off_c, 1, 78, 0
1, 6815, Note_off_c, 1, 69, 0
1, 6815, Note_off_c, 1, 50, 0
1, 6816, Note_on_c, 1, 68, 127
1, 6816, Note_on_c, 1, 71, 127
1, 6816, Note_on_c, 1, 52, 127
1, 6839, Note_off_c, 1, 52, 0
1, 6840, Note_on_c, 1, 50, 127
1, 6861, Note_off_c, 1, 68, 0
1, 6861, Note_off_c, 1, 71, 0
1, 6863, Note_off_c, 1, 50, 0
1, 6864, Note_on_c, 1, 80, 127
1, 6864, Note_on_c, 1, 76, 127
1, 6864, Note_on_c, 1, 49, 127
1, 6887, Note_off_c, 1, 49, 0
1, 6888, Note_on_c, 1, 47, 127
1, 6909, Note_off_c, 1, 76, 0
1, 6911, Note_off_c, 1, 47, 0
1, 6912, Note_on_c, 1, 73, 127
1, 6912, Note_on_c, 1, 45, 127
1, 6935, Note_off_c, 1, 80, 0
1, 6936, Note_on_c, 1, 83, 127
1, 6957, Note_off_c, 1, 73, 0
1, 6959, Note_off_c, 1, 83, 0
1, 6960, Note_on_c, 1, 81, 127
1, 6960, Note_on_c, 1, 78, 127
1, 6983, Note_off_c, 1, 81, 0
1, 6983, Note_off_c, 1, 78, 0
1, 7001, Note_off_c, 1, 45, 0
1, 7008, Note_on_c, 1, 78, 127
1, 7032, Note_on_c, 1, 76, 127
1, 7032, Note_on_c, 1, 61, 127
1, 7053, Note_off_c, 1, 78, 0
1, 7055, Note_off_c, 1, 76, 0
1, 7055, Note_off_c, 1, 61, 0
1, 7056, Note_on_c, 1, 74, 127
1, 7056, Note_on_c, 1, 81, 127
1, 7056, Note_on_c, 1, 59, 127
1, 7079, Note_off_c, 1, 74, 0
1, 7079, Note_off_c, 1, 59, 0
1, 7080, Note_on_c, 1, 73, 127
1, 7080, Note_on_c, 1, 57, 127
1, 7101, Note_off_c, 1, 81, 0
1, 7103, Note_off_c, 1, 73, 0
1, 7103, Note_off_c, 1, 57, 0
1, 7104, Note_on_c, 1, 71, 127
1, 7104, Note_on_c, 1, 75, 127
1, 7104, Note_on_c, 1, 56, 127
1, 7127, Note_off_c, 1, 56, 0
1, 7128, Note_on_c, 1, 54, 127
1, 7149, Note_off_c, 1, 71, 0
1, 7149, Note_off_c, 1, 75, 0
1, 7151, Note_off_c, 1, 54, 0
1, 7152, Note_on_c, 1, 83, 127
1, 7152, Note_on_c, 1, 80, 127
1, 7152, Note_on_c, 1, 52, 127
1, 7175, Note_off_c, 1, 52, 0
1, 7176, Note_on_c, 1, 51, 127
1, 7197, Note_off_c, 1, 80, 0
1, 7199, Note_off_c, 1, 51, 0
1, 7200, Note_on_c, 1, 76, 127
1, 7200, Note_on_c, 1, 56, 127
1, 7223, Note_off_c, 1, 83, 0
1, 7224, Note_on_c, 1, 86, 127
1, 7245, Note_off_c, 1, 76, 0
1, 7247, Note_off_c, 1, 86, 0
1, 7248, Note_on_c, 1, 85, 127
1, 7248, Note_on_c, 1, 81, 127
1, 7271, Note_off_c, 1, 85, 0
1, 7271, Note_off_c, 1, 81, 0
1, 7289, Note_off_c, 1, 56, 0
1, 7296, Note_on_c, 1, 81, 127
1, 7320, Note_on_c, 1, 80, 127
1, 7320, Note_on_c, 1, 54, 127
1, 7341, Note_off_c, 1, 81, 0
1, 7343, Note_off_c, 1, 80, 0
1, 7343, Note_off_c, 1, 54, 0
1, 7344, Note_on_c, 1, 78, 127
1, 7344, Note_on_c, 1, 85, 127
1, 7344, Note_on_c, 1, 56, 127
1, 7367, Note_off_c, 1, 78, 0
1, 7367, Note_off_c, 1, 56, 0
1, 7368, Note_on_c, 1, 76, 127
1, 7368, Note_on_c, 1, 57, 127
1, 7389, Note_off_c, 1, 85, 0
1, 7391, Note_off_c, 1, 76, 0
1, 7391, Note_off_c, 1, 57, 0
1, 7392, Note_on_c, 1, 74, 127
1, 7392, Note_on_c, 1, 78, 127
1, 7392, Note_on_c, 1, 59, 127
1, 7415, Note_off_c, 1, 59, 0
1, 7416, Note_on_c, 1, 57, 127
1, 7437, Note_off_c, 1, 74, 0
1, 7437, Note_off_c, 1, 78, 0
1, 7439, Note_off_c, 1, 57, 0
1, 7440, Note_on_c, 1, 86, 127
1, 7440, Note_on_c, 1, 83, 127
1, 7440, Note_on_c, 1, 56, 127
1, 7463, Note_off_c, 1, 56, 0
1, 7464, Note_on_c, 1, 54, 127
1, 7485, Note_off_c, 1, 86, 0
1, 7485, Note_off_c, 1, 83, 0
1, 7487, Note_off_c, 1, 54, 0
1, 7488, Note_on_c, 1, 86, 127
1, 7488, Note_on_c, 1, 80, 127
1, 7488, Note_on_c, 1, 52, 127
1, 7511, Note_off_c, 1, 80, 0
1, 7512, Note_on_c, 1, 81, 127
1, 7533, Note_off_c, 1, 52, 0
1, 7535, Note_off_c, 1, 81, 0
1, 7536, Note_on_c, 1, 40, 127
1, 7560, Note_on_c, 1, 78, 127
1, 7581, Note_off_c, 1, 40, 0
1, 7583, Note_off_c, 1, 78, 0
1, 7584, Note_on_c, 1, 76, 127
1, 7584, Note_on_c, 1, 44, 127
1, 7607, Note_off_c, 1, 76, 0
1, 7608, Note_on_c, 1, 74, 127
1, 7629, Note_off_c, 1, 44, 0
1, 7631, Note_off_c, 1, 74, 0
1, 7632, Note_on_c, 1, 73, 127
1, 7632, Note_on_c, 1, 47, 127
1, 7655, Note_off_c, 1, 73, 0
1, 7656, Note_on_c, 1, 71, 127
1, 7677, Note_off_c, 1, 47, 0
1, 7679, Note_off_c, 1, 71, 0
1, 7680, Note_on_c, 1, 69, 127
1, 7703, Note_off_c, 1, 69, 0
1, 7704, Note_on_c, 1, 68, 127
1, 7727, Note_off_c, 1, 68, 0
1, 7728, Note_on_c, 1, 66, 127
1, 7728, Note_on_c, 1, 56, 127
1, 7751, Note_off_c, 1, 66, 0
1, 7752, Note_on_c, 1, 64, 127
1, 7753, Note_off_c, 1, 86, 0
1, 7773, Note_off_c, 1, 56, 0
1, 7775, Note_off_c, 1, 64, 0
1, 7776, Note_on_c, 1, 85, 127
1, 7776, Note_on_c, 1, 76, 127
1, 7776, Note_on_c, 1, 57, 127
1, 7821, Note_off_c, 1, 57, 0
1, 7824, Note_on_c, 1, 50, 127
1, 7843, Note_off_c, 1, 85, 0
1, 7843, Note_off_c, 1, 76, 0
1, 7848, Note_on_c, 1, 83, 127
1, 7848, Note_on_c, 1, 78, 127
1, 7869, Note_off_c, 1, 50, 0
1, 7871, Note_off_c, 1, 83, 0
1, 7871, Note_off_c, 1, 78, 0
1, 7872, Note_on_c, 1, 80, 127
1, 7872, Note_on_c, 1, 71, 127
1, 7872, Note_on_c, 1, 52, 127
1, 7884, Note_off_c, 1, 80, 0
1, 7884, Note_off_c, 1, 71, 0
1, 7884, Note_on_c, 1, 81, 127
1, 7884, Note_on_c, 1, 73, 127
1, 7896, Note_off_c, 1, 81, 0
1, 7896, Note_off_c, 1, 73, 0
1, 7961, Note_off_c, 1, 52, 0
1, 7968, Note_on_c, 1, 40, 127
1, 8016, Note_on_c, 1, 69, 127
1, 8057, Note_off_c, 1, 40, 0
1, 8061, Note_off_c, 1, 69, 0
1, 8064, Note_on_c, 1, 81, 127
1, 8064, Note_on_c, 1, 69, 127
1, 8064, Note_on_c, 1, 45, 127
1, 8109, Note_off_c, 1, 81, 0
1, 8109, Note_off_c, 1, 69, 0
1, 8109, Note_off_c, 1, 45, 0
1, 8112, Note_on_c, 1, 69, 127
1, 8112, Note_on_c, 1, 57, 127
1, 8112, Note_on_c, 1, 45, 127
1, 8135, Note_off_c, 1, 69, 0
1, 8135, Note_off_c, 1, 57, 0
1, 8135, Note_off_c, 1, 45, 0
1, 8136, Note_on_c, 1, 71, 127
1, 8136, Note_on_c, 1, 59, 127
1, 8136, Note_on_c, 1, 47, 127
1, 8159, Note_off_c, 1, 71, 0
1, 8159, Note_off_c, 1, 59, 0
1, 8159, Note_off_c, 1, 47, 0
1, 8160, Note_on_c, 1, 73, 127
1, 8160, Note_on_c, 1, 61, 127
1, 8160, Note_on_c, 1, 49, 127
1, 8205, Note_off_c, 1, 73, 0
1, 8205, Note_off_c, 1, 61, 0
1, 8205, Note_off_c, 1, 49, 0
1, 8208, Note_on_c, 1, 73, 127
1, 8208, Note_on_c, 1, 61, 127
1, 8208, Note_on_c, 1, 49, 127
1, 8231, Note_off_c, 1, 73, 0
1, 8231, Note_off_c, 1, 61, 0
1, 8231, Note_off_c, 1, 49, 0
1, 8232, Note_on_c, 1, 74, 127
1, 8232, Note_on_c, 1, 62, 127
1, 8232, Note_on_c, 1, 50, 127
1, 8255, Note_off_c, 1, 74, 0
1, 8255, Note_off_c, 1, 62, 0
1, 8255, Note_off_c, 1, 50, 0
1, 8256, Note_on_c, 1, 76, 127
1, 8256, Note_on_c, 1, 64, 127
1, 8256, Note_on_c, 1, 52, 127
1, 8301, Note_off_c, 1, 76, 0
1, 8301, Note_off_c, 1, 64, 0
1, 8301, Note_off_c, 1, 52, 0
1, 8304, Note_on_c, 1, 78, 127
1, 8304, Note_on_c, 1, 66, 127
1, 8304, Note_on_c, 1, 54, 127
1, 8327, Note_off_c, 1, 78, 0
1, 8327, Note_off_c, 1, 66, 0
1, 8327, Note_off_c, 1, 54, 0
1, 8328, Note_on_c, 1, 80, 127
1, 8328, Note_on_c, 1, 68, 127
1, 8328, Note_on_c, 1, 56, 127
1, 8351, Note_off_c, 1, 80, 0
1, 8351, Note_off_c, 1, 68, 0
1, 8351, Note_off_c, 1, 56, 0
1, 8352, Note_on_c, 1, 81, 127
1, 8352, Note_on_c, 1, 69, 127
1, 8352, Note_on_c, 1, 57, 127
1, 8375, Note_off_c, 1, 69, 0
1, 8376, Note_on_c, 1, 73, 127
1, 8397, Note_off_c, 1, 81, 0
1, 8399, Note_off_c, 1, 73, 0
1, 8400, Note_on_c, 1, 76, 127
1, 8424, Note_on_c, 1, 78, 127
1, 8441, Note_off_c, 1, 57, 0
1, 8445, Note_off_c, 1, 76, 0
1, 8447, Note_off_c, 1, 78, 0
1, 8448, Note_on_c, 1, 73, 127
1, 8448, Note_on_c, 1, 76, 127
1, 8472, Note_off_c, 1, 76, 0
1, 8472, Note_on_c, 1, 78, 127
1, 8493, Note_off_c, 1, 73, 0
1, 8495, Note_off_c, 1, 78, 0
1, 8496, Note_on_c, 1, 69, 127
1, 8496, Note_on_c, 1, 76, 127
1, 8520, Note_off_c, 1, 76, 0
1, 8520, Note_on_c, 1, 78, 127
1, 8541, Note_off_c, 1, 69, 0
1, 8543, Note_off_c, 1, 78, 0
1, 8544, Note_on_c, 1, 76, 127
1, 8544, Note_on_c, 1, 68, 127
1, 8567, Note_off_c, 1, 68, 0
1, 8568, Note_on_c, 1, 71, 127
1, 8589, Note_off_c, 1, 76, 0
1, 8591, Note_off_c, 1, 71, 0
1, 8592, Note_on_c, 1, 80, 127
1, 8592, Note_on_c, 1, 74, 127
1, 8615, Note_off_c, 1, 74, 0
1, 8616, Note_on_c, 1, 76, 127
1, 8637, Note_off_c, 1, 80, 0
1, 8639, Note_off_c, 1, 76, 0
1, 8640, Note_on_c, 1, 81, 127
1, 8640, Note_on_c, 1, 69, 127
1, 8640, Note_on_c, 1, 45, 127
1, 8663, Note_off_c, 1, 69, 0
1, 8664, Note_on_c, 1, 73, 127
1, 8685, Note_off_c, 1, 81, 0
1, 8687, Note_off_c, 1, 73, 0
1, 8688, Note_on_c, 1, 76, 127
1, 8712, Note_on_c, 1, 78, 127
1, 8729, Note_off_c, 1, 45, 0
1, 8733, Note_off_c, 1, 76, 0
1, 8735, Note_off_c, 1, 78, 0
1, 8736, Note_on_c, 1, 73, 127
1, 8736, Note_on_c, 1, 76, 127
1, 8760, Note_off_c, 1, 76, 0
1, 8760, Note_on_c, 1, 78, 127
1, 8781, Note_off_c, 1, 73, 0
1, 8783, Note_off_c, 1, 78, 0
1, 8784, Note_on_c, 1, 69, 127
1, 8784, Note_on_c, 1, 76, 127
1, 8808, Note_off_c, 1, 76, 0
1, 8808, Note_on_c, 1, 78, 127
1, 8829, Note_off_c, 1, 69, 0
1, 8831, Note_off_c, 1, 78, 0
1, 8832, Note_on_c, 1, 76, 127
1, 8832, Note_on_c, 1, 68, 127
1, 8855, Note_off_c, 1, 68, 0
1, 8856, Note_on_c, 1, 71, 127
1, 8877, Note_off_c, 1, 76, 0
1, 8879, Note_off_c, 1, 71, 0
1, 8880, Note_on_c, 1, 80, 127
1, 8880, Note_on_c, 1, 74, 127
1, 8903, Note_off_c, 1, 74, 0
1, 8904, Note_on_c, 1, 76, 127
1, 8925, Note_off_c, 1, 80, 0
1, 8927, Note_off_c, 1, 76, 0
1, 8928, Note_on_c, 1, 81, 127
1, 8928, Note_on_c, 1, 69, 127
1, 8928, Note_on_c, 1, 45, 127
1, 8951, Note_off_c, 1, 69, 0
1, 8952, Note_on_c, 1, 73, 127
1, 8973, Note_off_c, 1, 81, 0
1, 8975, Note_off_c, 1, 73, 0
1, 8976, Note_on_c, 1, 85, 127
1, 8976, Note_on_c, 1, 76, 127
1, 8999, Note_off_c, 1, 76, 0
1, 9000, Note_on_c, 1, 78, 127
1, 9017, Note_off_c, 1, 45, 0
1, 9021, Note_off_c, 1, 85, 0
1, 9023, Note_off_c, 1, 78, 0
1, 9024, Note_on_c, 1, 81, 127
1, 9024, Note_on_c, 1, 76, 127
1, 9048, Note_off_c, 1, 76, 0
1, 9048, Note_on_c, 1, 78, 127
1, 9069, Note_off_c, 1, 81, 0
1, 9071, Note_off_c, 1, 78, 0
1, 9072, Note_on_c, 1, 78, 127
1, 9072, Note_on_c, 1, 76, 127
1, 9096, Note_off_c, 1, 76, 0
1, 9119, Note_off_c, 1, 78, 0
1, 9120, Note_on_c, 1, 75, 127
1, 9120, Note_on_c, 1, 71, 127
1, 9120, Note_on_c, 1, 57, 127
1, 9143, Note_off_c, 1, 71, 0
1, 9167, Note_off_c, 1, 75, 0
1, 9168, Note_on_c, 1, 83, 127
1, 9168, Note_on_c, 1, 78, 127
1, 9191, Note_off_c, 1, 78, 0
1, 9192, Note_on_c, 1, 80, 127
1, 9209, Note_off_c, 1, 57, 0
1, 9213, Note_off_c, 1, 83, 0
1, 9215, Note_off_c, 1, 80, 0
1, 9216, Note_on_c, 1, 76, 127
1, 9216, Note_on_c, 1, 73, 127
1, 9216, Note_on_c, 1, 56, 127
1, 9239, Note_off_c, 1, 73, 0
1, 9263, Note_off_c, 1, 76, 0
1, 9264, Note_on_c, 1, 71, 127
1, 9264, Note_on_c, 1, 80, 127
1, 9287, Note_off_c, 1, 80, 0
1, 9288, Note_on_c, 1, 81, 127
1, 9305, Note_off_c, 1, 56, 0
1, 9309, Note_off_c, 1, 71, 0
1, 9311, Note_off_c, 1, 81, 0
1, 9312, Note_on_c, 1, 73, 127
1, 9312, Note_on_c, 1, 80, 127
1, 9335, Note_off_c, 1, 80, 0
1, 9336, Note_on_c, 1, 81, 127
1, 9357, Note_off_c, 1, 73, 0
1, 9359, Note_off_c, 1, 81, 0
1, 9360, Note_on_c, 1, 76, 127
1, 9360, Note_on_c, 1, 80, 127
1, 9383, Note_off_c, 1, 80, 0
1, 9384, Note_on_c, 1, 81, 127
1, 9405, Note_off_c, 1, 76, 0
1, 9407, Note_off_c, 1, 81, 0
1, 9408, Note_on_c, 1, 81, 127
1, 9408, Note_on_c, 1, 75, 127
1, 9408, Note_on_c, 1, 54, 127
1, 9431, Note_off_c, 1, 75, 0
1, 9432, Note_on_c, 1, 78, 127
1, 9453, Note_off_c, 1, 81, 0
1, 9455, Note_off_c, 1, 78, 0
1, 9480, Note_on_c, 1, 83, 127
1, 9497, Note_off_c, 1, 54, 0
1, 9503, Note_off_c, 1, 83, 0
1, 9504, Note_on_c, 1, 76, 127
1, 9504, Note_on_c, 1, 80, 127
1, 9504, Note_on_c, 1, 52, 127
1, 9527, Note_off_c, 1, 52, 0
1, 9528, Note_on_c, 1, 56, 127
1, 9549, Note_off_c, 1, 76, 0
1, 9549, Note_off_c, 1, 80, 0
1, 9551, Note_off_c, 1, 56, 0
1, 9552, Note_on_c, 1, 80, 127
1, 9552, Note_on_c, 1, 71, 127
1, 9552, Note_on_c, 1, 59, 127
1, 9575, Note_off_c, 1, 59, 0
1, 9576, Note_on_c, 1, 61, 127
1, 9597, Note_off_c, 1, 80, 0
1, 9597, Note_off_c, 1, 71, 0
1, 9599, Note_off_c, 1, 61, 0
1, 9600, Note_on_c, 1, 83, 127
1, 9600, Note_on_c, 1, 68, 127
1, 9600, Note_on_c, 1, 59, 127
1, 9623, Note_off_c, 1, 59, 0
1, 9624, Note_on_c, 1, 61, 127
1, 9645, Note_off_c, 1, 68, 0
1, 9647, Note_off_c, 1, 61, 0
1, 9648, Note_on_c, 1, 64, 127
1, 9693, Note_off_c, 1, 64, 0
1, 9696, Note_on_c, 1, 71, 127
1, 9696, Note_on_c, 1, 51, 127
1, 9719, Note_off_c, 1, 51, 0
1, 9720, Note_on_c, 1, 54, 127
1, 9741, Note_off_c, 1, 71, 0
1, 9743, Note_off_c, 1, 54, 0
1, 9744, Note_on_c, 1, 75, 127
1, 9744, Note_on_c, 1, 57, 127
1, 9767, Note_off_c, 1, 57, 0
1, 9789, Note_off_c, 1, 75, 0
1, 9792, Note_on_c, 1, 76, 127
1, 9792, Note_on_c, 1, 52, 127
1, 9815, Note_off_c, 1, 52, 0
1, 9816, Note_on_c, 1, 56, 127
1, 9837, Note_off_c, 1, 76, 0
1, 9839, Note_off_c, 1, 56, 0
1, 10128, Note_on_c, 1, 80, 127
1, 10173, Note_off_c, 1, 80, 0
1, 10224, Note_on_c, 1, 73, 127
1, 10269, Note_off_c, 1, 73, 0
1, 10272, Note_on_c, 1, 69, 127
1, 10317, Note_off_c, 1, 69, 0
1, 10320, Note_on_c, 1, 78, 127
1, 10344, Note_on_c, 1, 63, 127
1, 10365, Note_off_c, 1, 78, 0
1, 10367, Note_off_c, 1, 63, 0
1, 10416, Note_on_c, 1, 66, 127
1, 10457, Note_off_c, 1, 83, 0
1, 10461, Note_off_c, 1, 66, 0
1, 10464, Note_on_c, 1, 68, 127
1, 10464, Note_on_c, 1, 63, 127
1, 10487, Note_off_c, 1, 63, 0
1, 10488, Note_on_c, 1, 64, 127
1, 10509, Note_off_c, 1, 68, 0
1, 10511, Note_off_c, 1, 64, 0
1, 10512, Note_on_c, 1, 71, 127
1, 10512, Note_on_c, 1, 63, 127
1, 10535, Note_off_c, 1, 63, 0
1, 10536, Note_on_c, 1, 64, 127
1, 10557, Note_off_c, 1, 71, 0
1, 10559, Note_off_c, 1, 64, 0
1, 10560, Note_on_c, 1, 76, 127
1, 10560, Note_on_c, 1, 58, 127
1, 10583, Note_off_c, 1, 58, 0
1, 10584, Note_on_c, 1, 61, 127
1, 10605, Note_off_c, 1, 76, 0
1, 10607, Note_off_c, 1, 61, 0
1, 10608, Note_on_c, 1, 70, 127
1, 10608, Note_on_c, 1, 64, 127
1, 10631, Note_off_c, 1, 64, 0
1, 10632, Note_on_c, 1, 66, 127
1, 10653, Note_off_c, 1, 70, 0
1, 10655, Note_off_c, 1, 66, 0
1, 10656, Note_on_c, 1, 71, 127
1, 10656, Note_on_c, 1, 62, 127
1, 10679, Note_off_c, 1, 71, 0
1, 10680, Note_on_c, 1, 74, 127
1, 10701, Note_off_c, 1, 62, 0
1, 10703, Note_off_c, 1, 74, 0
1, 10704, Note_on_c, 1, 71, 127
1, 10704, Note_on_c, 1, 78, 127
1, 10727, Note_off_c, 1, 71, 0
1, 10727, Note_off_c, 1, 78, 0
1, 10728, Note_on_c, 1, 73, 127
1, 10728, Note_on_c, 1, 79, 127
1, 10751, Note_off_c, 1, 73, 0
1, 10751, Note_off_c, 1, 79, 0
1, 10752, Note_on_c, 1, 74, 127
1, 10752, Note_on_c, 1, 71, 127
1, 10775, Note_off_c, 1, 71, 0
1, 10776, Note_on_c, 1, 62, 127
1, 10799, Note_off_c, 1, 74, 0
1, 10799, Note_off_c, 1, 62, 0
1, 10800, Note_on_c, 1, 74, 127
1, 10800, Note_on_c, 1, 78, 127
1, 10800, Note_on_c, 1, 61, 127
1, 10823, Note_off_c, 1, 74, 0
1, 10823, Note_off_c, 1, 78, 0
1, 10823, Note_off_c, 1, 61, 0
1, 10824, Note_on_c, 1, 76, 127
1, 10824, Note_on_c, 1, 79, 127
1, 10824, Note_on_c, 1, 59, 127
1, 10847, Note_off_c, 1, 76, 0
1, 10847, Note_off_c, 1, 79, 0
1, 10847, Note_off_c, 1, 59, 0
1, 10848, Note_on_c, 1, 78, 127
1, 10848, Note_on_c, 1, 73, 127
1, 10848, Note_on_c, 1, 58, 127
1, 10871, Note_off_c, 1, 73, 0
1, 10871, Note_off_c, 1, 58, 0
1, 10872, Note_on_c, 1, 74, 127
1, 10872, Note_on_c, 1, 56, 127
1, 10893, Note_off_c, 1, 78, 0
1, 10895, Note_off_c, 1, 74, 0
1, 10895, Note_off_c, 1, 56, 0
1, 10896, Note_on_c, 1, 80, 127
1, 10896, Note_on_c, 1, 76, 127
1, 10896, Note_on_c, 1, 54, 127
1, 10919, Note_off_c, 1, 80, 0
1, 10919, Note_off_c, 1, 76, 0
1, 10919, Note_off_c, 1, 54, 0
1, 10920, Note_on_c, 1, 82, 127
1, 10920, Note_on_c, 1, 78, 127
1, 10920, Note_on_c, 1, 52, 127
1, 10943, Note_off_c, 1, 82, 0
1, 10943, Note_off_c, 1, 78, 0
1, 10943, Note_off_c, 1, 52, 0
1, 10944, Note_on_c, 1, 83, 127
1, 10944, Note_on_c, 1, 66, 127
1, 10944, Note_on_c, 1, 50, 127
1, 10989, Note_off_c, 1, 83, 0
1, 10989, Note_off_c, 1, 50, 0
1, 10992, Note_on_c, 1, 81, 127
1, 10992, Note_on_c, 1, 49, 127
1, 11015, Note_off_c, 1, 81, 0
1, 11016, Note_on_c, 1, 79, 127
1, 11033, Note_off_c, 1, 66, 0
1, 11037, Note_off_c, 1, 49, 0
1, 11039, Note_off_c, 1, 79, 0
1, 11040, Note_on_c, 1, 78, 127
1, 11040, Note_on_c, 1, 50, 127
1, 11064, Note_on_c, 1, 83, 127
1, 11085, Note_off_c, 1, 78, 0
1, 11085, Note_off_c, 1, 50, 0
1, 11087, Note_off_c, 1, 83, 0
1, 11088, Note_on_c, 1, 76, 127
1, 11088, Note_on_c, 1, 81, 127
1, 11088, Note_on_c, 1, 52, 127
1, 11111, Note_off_c, 1, 81, 0
1, 11112, Note_on_c, 1, 79, 127
1, 11133, Note_off_c, 1, 76, 0
1, 11133, Note_off_c, 1, 52, 0
1, 11135, Note_off_c, 1, 79, 0
1, 11136, Note_on_c, 1, 74, 127
1, 11136, Note_on_c, 1, 78, 127
1, 11136, Note_on_c, 1, 54, 127
1, 11159, Note_off_c, 1, 78, 0
1, 11160, Note_on_c, 1, 83, 127
1, 11181, Note_off_c, 1, 74, 0
1, 11181, Note_off_c, 1, 54, 0
1, 11183, Note_off_c, 1, 83, 0
1, 11184, Note_on_c, 1, 73, 127
1, 11184, Note_on_c, 1, 76, 127
1, 11184, Note_on_c, 1, 42, 127
1, 11207, Note_off_c, 1, 76, 0
1, 11208, Note_on_c, 1, 82, 127
1, 11229, Note_off_c, 1, 73, 0
1, 11229, Note_off_c, 1, 42, 0
1, 11231, Note_off_c, 1, 82, 0
1, 11232, Note_on_c, 1, 74, 127
1, 11232, Note_on_c, 1, 83, 127
1, 11232, Note_on_c, 1, 47, 127
1, 11277, Note_off_c, 1, 74, 0
1, 11277, Note_off_c, 1, 83, 0
1, 11280, Note_on_c, 1, 71, 127
1, 11304, Note_on_c, 1, 73, 127
1, 11321, Note_off_c, 1, 47, 0
1, 11325, Note_off_c, 1, 71, 0
1, 11327, Note_off_c, 1, 73, 0
1, 11328, Note_on_c, 1, 66, 127
1, 11328, Note_on_c, 1, 74, 127
1, 11352, Note_on_c, 1, 50, 127
1, 11373, Note_off_c, 1, 66, 0
1, 11373, Note_off_c, 1, 74, 0
1, 11375, Note_off_c, 1, 50, 0
1, 11376, Note_on_c, 1, 62, 127
1, 11376, Note_on_c, 1, 74, 127
1, 11376, Note_on_c, 1, 49, 127
1, 11399, Note_off_c, 1, 74, 0
1, 11399, Note_off_c, 1, 49, 0
1, 11400, Note_on_c, 1, 76, 127
1, 11400, Note_on_c, 1, 47, 127
1, 11421, Note_off_c, 1, 62, 0
1, 11423, Note_off_c, 1, 76, 0
1, 11423, Note_off_c, 1, 47, 0
1, 11424, Note_on_c, 1, 61, 127
1, 11424, Note_on_c, 1, 78, 127
1, 11424, Note_on_c, 1, 46, 127
1, 11447, Note_off_c, 1, 46, 0
1, 11448, Note_on_c, 1, 44, 127
1, 11469, Note_off_c, 1, 61, 0
1, 11469, Note_off_c, 1, 78, 0
1, 11471, Note_off_c, 1, 44, 0
1, 11472, Note_on_c, 1, 78, 127
1, 11472, Note_on_c, 1, 80, 127
1, 11472, Note_on_c, 1, 42, 127
1, 11495, Note_off_c, 1, 80, 0
1, 11495, Note_off_c, 1, 42, 0
1, 11496, Note_on_c, 1, 82, 127
1, 11496, Note_on_c, 1, 40, 127
1, 11517, Note_off_c, 1, 78, 0
1, 11519, Note_off_c, 1, 82, 0
1, 11519, Note_off_c, 1, 40, 0
1, 11520, Note_on_c, 1, 78, 127
1, 11520, Note_on_c, 1, 83, 127
1, 11520, Note_on_c, 1, 38, 127
1, 11565, Note_off_c, 1, 83, 0
1, 11565, Note_off_c, 1, 38, 0
1, 11568, Note_on_c, 1, 81, 127
1, 11568, Note_on_c, 1, 37, 127
1, 11591, Note_off_c, 1, 81, 0
1, 11592, Note_on_c, 1, 79, 127
1, 11613, Note_off_c, 1, 37, 0
1, 11615, Note_off_c, 1, 79, 0
1, 11661, Note_off_c, 1, 78, 0
1, 11664, Note_on_c, 1, 81, 127
1, 11664, Note_on_c, 1, 76, 127
1, 11664, Note_on_c, 1, 40, 127
1, 11687, Note_off_c, 1, 81, 0
1, 11688, Note_on_c, 1, 79, 127
1, 11709, Note_off_c, 1, 76, 0
1, 11709, Note_off_c, 1, 40, 0
1, 11711, Note_off_c, 1, 79, 0
1, 11712, Note_on_c, 1, 78, 127
1, 11712, Note_on_c, 1, 74, 127
1, 11712, Note_on_c, 1, 42, 127
1, 11735, Note_off_c, 1, 78, 0
1, 11736, Note_on_c, 1, 83, 127
1, 11757, Note_off_c, 1, 74, 0
1, 11757, Note_off_c, 1, 42, 0
1, 11759, Note_off_c, 1, 83, 0
1, 11760, Note_on_c, 1, 76, 127
1, 11760, Note_on_c, 1, 73, 127
1, 11760, Note_on_c, 1, 54, 127
1, 11783, Note_off_c, 1, 76, 0
1, 11784, Note_on_c, 1, 82, 127
1, 11805, Note_off_c, 1, 73, 0
1, 11805, Note_off_c, 1, 54, 0
1, 11807, Note_off_c, 1, 82, 0
1, 11808, Note_on_c, 1, 83, 127
1, 11808, Note_on_c, 1, 74, 127
1, 11808, Note_on_c, 1, 47, 127
1, 11853, Note_off_c, 1, 83, 0
1, 11853, Note_off_c, 1, 47, 0
1, 11856, Note_on_c, 1, 59, 127
1, 11879, Note_off_c, 1, 59, 0
1, 11880, Note_on_c, 1, 73, 127
1, 11880, Note_on_c, 1, 57, 127
1, 11897, Note_off_c, 1, 74, 0
1, 11903, Note_off_c, 1, 73, 0
1, 11903, Note_off_c, 1, 57, 0
1, 11904, Note_on_c, 1, 74, 127
1, 11904, Note_on_c, 1, 59, 127
1, 11949, Note_off_c, 1, 59, 0
1, 11952, Note_on_c, 1, 83, 127
1, 11952, Note_on_c, 1, 62, 127
1, 11975, Note_off_c, 1, 83, 0
1, 11976, Note_on_c, 1, 81, 127
1, 11993, Note_off_c, 1, 74, 0
1, 11997, Note_off_c, 1, 62, 0
1, 11999, Note_off_c, 1, 81, 0
1, 12000, Note_on_c, 1, 80, 127
1, 12000, Note_on_c, 1, 52, 127
1, 12023, Note_off_c, 1, 80, 0
1, 12024, Note_on_c, 1, 78, 127
1, 12045, Note_off_c, 1, 52, 0
1, 12047, Note_off_c, 1, 78, 0
1, 12048, Note_on_c, 1, 76, 127
1, 12048, Note_on_c, 1, 56, 127
1, 12071, Note_off_c, 1, 76, 0
1, 12072, Note_on_c, 1, 74, 127
1, 12093, Note_off_c, 1, 56, 0
1, 12095, Note_off_c, 1, 74, 0
1, 12096, Note_on_c, 1, 73, 127
1, 12096, Note_on_c, 1, 45, 127
1, 12141, Note_off_c, 1, 45, 0
1, 12144, Note_on_c, 1, 57, 127
1, 12167, Note_off_c, 1, 57, 0
1, 12168, Note_on_c, 1, 71, 127
1, 12168, Note_on_c, 1, 56, 127
1, 12185, Note_off_c, 1, 73, 0
1, 12191, Note_off_c, 1, 71, 0
1, 12191, Note_off_c, 1, 56, 0
1, 12192, Note_on_c, 1, 73, 127
1, 12192, Note_on_c, 1, 57, 127
1, 12237, Note_off_c, 1, 57, 0
1, 12240, Note_on_c, 1, 81, 127
1, 12240, Note_on_c, 1, 61, 127
1, 12263, Note_off_c, 1, 81, 0
1, 12264, Note_on_c, 1, 80, 127
1, 12281, Note_off_c, 1, 73, 0
1, 12285, Note_off_c, 1, 61, 0
1, 12287, Note_off_c, 1, 80, 0
1, 12288, Note_on_c, 1, 78, 127
1, 12288, Note_on_c, 1, 50, 127
1, 12311, Note_off_c, 1, 78, 0
1, 12312, Note_on_c, 1, 76, 127
1, 12333, Note_off_c, 1, 50, 0
1, 12335, Note_off_c, 1, 76, 0
1, 12336, Note_on_c, 1, 74, 127
1, 12336, Note_on_c, 1, 54, 127
1, 12359, Note_off_c, 1, 74, 0
1, 12360, Note_on_c, 1, 73, 127
1, 12381, Note_off_c, 1, 54, 0
1, 12383, Note_off_c, 1, 73, 0
1, 12384, Note_on_c, 1, 71, 127
1, 12384, Note_on_c, 1, 44, 127
1, 12429, Note_off_c, 1, 44, 0
1, 12432, Note_on_c, 1, 56, 127
1, 12455, Note_off_c, 1, 56, 0
1, 12456, Note_on_c, 1, 69, 127
1, 12456, Note_on_c, 1, 54, 127
1, 12473, Note_off_c, 1, 71, 0
1, 12479, Note_off_c, 1, 69, 0
1, 12479, Note_off_c, 1, 54, 0
1, 12480, Note_on_c, 1, 71, 127
1, 12480, Note_on_c, 1, 56, 127
1, 12525, Note_off_c, 1, 56, 0
1, 12528, Note_on_c, 1, 80, 127
1, 12528, Note_on_c, 1, 59, 127
1, 12551, Note_off_c, 1, 80, 0
1, 12552, Note_on_c, 1, 78, 127
1, 12569, Note_off_c, 1, 71, 0
1, 12573, Note_off_c, 1, 59, 0
1, 12575, Note_off_c, 1, 78, 0
1, 12576, Note_on_c, 1, 77, 127
1, 12576, Note_on_c, 1, 49, 127
1, 12599, Note_off_c, 1, 77, 0
1, 12600, Note_on_c, 1, 75, 127
1, 12621, Note_off_c, 1, 49, 0
1, 12623, Note_off_c, 1, 75, 0
1, 12624, Note_on_c, 1, 73, 127
1, 12624, Note_on_c, 1, 53, 127
1, 12647, Note_off_c, 1, 73, 0
1, 12648, Note_on_c, 1, 71, 127
1, 12669, Note_off_c, 1, 53, 0
1, 12671, Note_off_c, 1, 71, 0
1, 12672, Note_on_c, 1, 69, 127
1, 12672, Note_on_c, 1, 54, 127
1, 12695, Note_off_c, 1, 54, 0
1, 12696, Note_on_c, 1, 57, 127
1, 12717, Note_off_c, 1, 69, 0
1, 12719, Note_off_c, 1, 57, 0
1, 12720, Note_on_c, 1, 73, 127
1, 12720, Note_on_c, 1, 66, 127
1, 12720, Note_on_c, 1, 61, 127
1, 12743, Note_off_c, 1, 61, 0
1, 12744, Note_on_c, 1, 62, 127
1, 12765, Note_off_c, 1, 73, 0
1, 12765, Note_off_c, 1, 66, 0
1, 12767, Note_off_c, 1, 62, 0
1, 12768, Note_on_c, 1, 69, 127
1, 12768, Note_on_c, 1, 73, 127
1, 12768, Note_on_c, 1, 61, 127
1, 12780, Note_off_c, 1, 73, 0
1, 12780, Note_on_c, 1, 74, 127
1, 12791, Note_off_c, 1, 61, 0
1, 12792, Note_off_c, 1, 74, 0
1, 12792, Note_on_c, 1, 62, 127
1, 12813, Note_off_c, 1, 69, 0
1, 12815, Note_off_c, 1, 62, 0
1, 12816, Note_on_c, 1, 66, 127
1, 12861, Note_off_c, 1, 66, 0
1, 12864, Note_on_c, 1, 53, 127
1, 12887, Note_off_c, 1, 53, 0
1, 12888, Note_on_c, 1, 56, 127
1, 12911, Note_off_c, 1, 56, 0
1, 12912, Note_on_c, 1, 77, 127
1, 12912, Note_on_c, 1, 59, 127
1, 12935, Note_off_c, 1, 59, 0
1, 12957, Note_off_c, 1, 77, 0
1, 12960, Note_on_c, 1, 78, 127
1, 12960, Note_on_c, 1, 54, 127
1, 12983, Note_off_c, 1, 54, 0
1, 12984, Note_on_c, 1, 57, 127
1, 13005, Note_off_c, 1, 78, 0
1, 13007, Note_off_c, 1, 57, 0
1, 13320, Note_on_c, 1, 79, 127
1, 13343, Note_off_c, 1, 79, 0
1, 13344, Note_on_c, 1, 50, 127
1, 13389, Note_off_c, 1, 50, 0
1, 13392, Note_on_c, 1, 47, 127
1, 13437, Note_off_c, 1, 47, 0
1, 13440, Note_on_c, 1, 70, 127
1, 13463, Note_off_c, 1, 70, 0
1, 13488, Note_on_c, 1, 76, 127
1, 13488, Note_on_c, 1, 58, 127
1, 13511, Note_off_c, 1, 76, 0
1, 13533, Note_off_c, 1, 58, 0
1, 13536, Note_on_c, 1, 71, 127
1, 13559, Note_off_c, 1, 71, 0
1, 13824, Note_on_c, 1, 75, 127
1, 13847, Note_off_c, 1, 75, 0
1, 13872, Note_on_c, 1, 83, 127
1, 13895, Note_off_c, 1, 83, 0
1, 13896, Note_on_c, 1, 85, 127
1, 13919, Note_off_c, 1, 85, 0
1, 13920, Note_on_c, 1, 68, 127
1, 13965, Note_off_c, 1, 68, 0
1, 13968, Note_on_c, 1, 64, 127
1, 14013, Note_off_c, 1, 64, 0
1, 14064, Note_on_c, 1, 81, 127
1, 14087, Note_off_c, 1, 81, 0
1, 14136, Note_on_c, 1, 80, 127
1, 14159, Note_off_c, 1, 80, 0
1, 14400, Note_on_c, 1, 76, 127
1, 14400, Note_on_c, 1, 80, 127
1, 14400, Note_on_c, 1, 52, 127
1, 14445, Note_off_c, 1, 76, 0
1, 14445, Note_off_c, 1, 80, 0
1, 14448, Note_on_c, 1, 64, 127
1, 14471, Note_off_c, 1, 64, 0
1, 14472, Note_on_c, 1, 66, 127
1, 14495, Note_off_c, 1, 66, 0
1, 14496, Note_on_c, 1, 68, 127
1, 14496, Note_on_c, 1, 71, 127
1, 14533, Note_off_c, 1, 52, 0
1, 14541, Note_off_c, 1, 68, 0
1, 14541, Note_off_c, 1, 71, 0
1, 14544, Note_on_c, 1, 68, 127
1, 14544, Note_on_c, 1, 50, 127
1, 14567, Note_off_c, 1, 50, 0
1, 14568, Note_on_c, 1, 69, 127
1, 14568, Note_on_c, 1, 49, 127
1, 14589, Note_off_c, 1, 68, 0
1, 14591, Note_off_c, 1, 69, 0
1, 14591, Note_off_c, 1, 49, 0
1, 14592, Note_on_c, 1, 71, 127
1, 14592, Note_on_c, 1, 64, 127
1, 14592, Note_on_c, 1, 50, 127
1, 14637, Note_off_c, 1, 71, 0
1, 14637, Note_off_c, 1, 50, 0
1, 14640, Note_on_c, 1, 73, 127
1, 14640, Note_on_c, 1, 49, 127
1, 14663, Note_off_c, 1, 73, 0
1, 14663, Note_off_c, 1, 49, 0
1, 14664, Note_on_c, 1, 74, 127
1, 14664, Note_on_c, 1, 47, 127
1, 14681, Note_off_c, 1, 64, 0
1, 14687, Note_off_c, 1, 74, 0
1, 14687, Note_off_c, 1, 47, 0
1, 14688, Note_on_c, 1, 76, 127
1, 14688, Note_on_c, 1, 49, 127
1, 14733, Note_off_c, 1, 76, 0
1, 14736, Note_on_c, 1, 69, 127
1, 14736, Note_on_c, 1, 61, 127
1, 14759, Note_off_c, 1, 69, 0
1, 14759, Note_off_c, 1, 61, 0
1, 14760, Note_on_c, 1, 71, 127
1, 14760, Note_on_c, 1, 62, 127
1, 14777, Note_off_c, 1, 49, 0
1, 14783, Note_off_c, 1, 71, 0
1, 14783, Note_off_c, 1, 62, 0
1, 14784, Note_on_c, 1, 73, 127
1, 14784, Note_on_c, 1, 64, 127
1, 14784, Note_on_c, 1, 61, 127
1, 14829, Note_off_c, 1, 73, 0
1, 14829, Note_off_c, 1, 64, 0
1, 14856, Note_on_c, 1, 74, 127
1, 14856, Note_on_c, 1, 66, 127
1, 14873, Note_off_c, 1, 61, 0
1, 14879, Note_off_c, 1, 74, 0
1, 14879, Note_off_c, 1, 66, 0
1, 14880, Note_on_c, 1, 76, 127
1, 14880, Note_on_c, 1, 68, 127
1, 14880, Note_on_c, 1, 59, 127
1, 14925, Note_off_c, 1, 76, 0
1, 14925, Note_off_c, 1, 68, 0
1, 14928, Note_on_c, 1, 78, 127
1, 14928, Note_on_c, 1, 69, 127
1, 14951, Note_off_c, 1, 78, 0
1, 14951, Note_off_c, 1, 69, 0
1, 14952, Note_on_c, 1, 80, 127
1, 14952, Note_on_c, 1, 71, 127
1, 14969, Note_off_c, 1, 59, 0
1, 14975, Note_off_c, 1, 80, 0
1, 14975, Note_off_c, 1, 71, 0
1, 14976, Note_on_c, 1, 81, 127
1, 14976, Note_on_c, 1, 73, 127
1, 14976, Note_on_c, 1, 57, 127
1, 15021, Note_off_c, 1, 81, 0
1, 15021, Note_off_c, 1, 73, 0
1, 15021, Note_off_c, 1, 57, 0
1, 15024, Note_on_c, 1, 73, 127
1, 15024, Note_on_c, 1, 76, 127
1, 15024, Note_on_c, 1, 45, 127
1, 15047, Note_off_c, 1, 73, 0
1, 15047, Note_off_c, 1, 45, 0
1, 15048, Note_on_c, 1, 74, 127
1, 15048, Note_on_c, 1, 47, 127
1, 15069, Note_off_c, 1, 76, 0
1, 15071, Note_off_c, 1, 74, 0
1, 15071, Note_off_c, 1, 47, 0
1, 15072, Note_on_c, 1, 76, 127
1, 15072, Note_on_c, 1, 69, 127
1, 15072, Note_on_c, 1, 49, 127
1, 15117, Note_off_c, 1, 76, 0
1, 15117, Note_off_c, 1, 69, 0
1, 15117, Note_off_c, 1, 49, 0
1, 15120, Note_on_c, 1, 69, 127
1, 15120, Note_on_c, 1, 76, 127
1, 15120, Note_on_c, 1, 49, 127
1, 15143, Note_off_c, 1, 49, 0
1, 15144, Note_on_c, 1, 50, 127
1, 15165, Note_off_c, 1, 69, 0
1, 15165, Note_off_c, 1, 76, 0
1, 15167, Note_off_c, 1, 50, 0
1, 15168, Note_on_c, 1, 68, 127
1, 15168, Note_on_c, 1, 71, 127
1, 15168, Note_on_c, 1, 52, 127
1, 15213, Note_off_c, 1, 68, 0
1, 15213, Note_off_c, 1, 71, 0
1, 15213, Note_off_c, 1, 52, 0
1, 15216, Note_on_c, 1, 74, 127
1, 15216, Note_on_c, 1, 68, 127
1, 15216, Note_on_c, 1, 54, 127
1, 15239, Note_off_c, 1, 54, 0
1, 15240, Note_on_c, 1, 56, 127
1, 15261, Note_off_c, 1, 74, 0
1, 15261, Note_off_c, 1, 68, 0
1, 15263, Note_off_c, 1, 56, 0
1, 15264, Note_on_c, 1, 73, 127
1, 15264, Note_on_c, 1, 64, 127
1, 15264, Note_on_c, 1, 57, 127
1, 15276, Note_off_c, 1, 64, 0
1, 15276, Note_on_c, 1, 66, 127
1, 15287, Note_off_c, 1, 73, 0
1, 15288, Note_off_c, 1, 66, 0
1, 15288, Note_on_c, 1, 71, 127
1, 15309, Note_off_c, 1, 57, 0
1, 15311, Note_off_c, 1, 71, 0
1, 15312, Note_on_c, 1, 56, 127
1, 15335, Note_off_c, 1, 56, 0
1, 15336, Note_on_c, 1, 74, 127
1, 15336, Note_on_c, 1, 54, 127
1, 15359, Note_off_c, 1, 74, 0
1, 15359, Note_off_c, 1, 54, 0
1, 15360, Note_on_c, 1, 76, 127
1, 15360, Note_on_c, 1, 52, 127
1, 15405, Note_off_c, 1, 76, 0
1, 15405, Note_off_c, 1, 52, 0
1, 15408, Note_on_c, 1, 69, 127
1, 15408, Note_on_c, 1, 50, 127
1, 15453, Note_off_c, 1, 69, 0
1, 15453, Note_off_c, 1, 50, 0
1, 15456, Note_on_c, 1, 49, 127
1, 15501, Note_off_c, 1, 49, 0
1, 15504, Note_on_c, 1, 67, 127
1, 15504, Note_on_c, 1, 47, 127
1, 15549, Note_off_c, 1, 67, 0
1, 15549, Note_off_c, 1, 47, 0
1, 15552, Note_on_c, 1, 45, 127
1, 15597, Note_off_c, 1, 45, 0
1, 15648, Note_on_c, 1, 62, 127
1, 15671, Note_off_c, 1, 62, 0
1, 15672, Note_on_c, 1, 61, 127
1, 15695, Note_off_c, 1, 61, 0
1, 15696, Note_on_c, 1, 59, 127
1, 15719, Note_off_c, 1, 59, 0
1, 15744, Note_on_c, 1, 56, 127
1, 15744, Note_on_c, 1, 68, 127
1, 15744, Note_on_c, 1, 47, 127
1, 15789, Note_off_c, 1, 56, 0
1, 15789, Note_off_c, 1, 47, 0
1, 15792, Note_on_c, 1, 52, 127
1, 15837, Note_off_c, 1, 52, 0
1, 15840, Note_on_c, 1, 69, 127
1, 15840, Note_on_c, 1, 49, 127
1, 15863, Note_off_c, 1, 69, 0
1, 15864, Note_on_c, 1, 71, 127
1, 15885, Note_off_c, 1, 49, 0
1, 15887, Note_off_c, 1, 71, 0
1, 15888, Note_on_c, 1, 54, 127
1, 15911, Note_off_c, 1, 54, 0
1, 15935, Note_off_c, 1, 68, 0
1, 15936, Note_on_c, 1, 66, 127
1, 15936, Note_on_c, 1, 69, 127
1, 15936, Note_on_c, 1, 54, 127
1, 15959, Note_off_c, 1, 66, 0
1, 15960, Note_on_c, 1, 64, 127
1, 15981, Note_off_c, 1, 54, 0
1, 15983, Note_off_c, 1, 64, 0
1, 15984, Note_on_c, 1, 62, 127
1, 15984, Note_on_c, 1, 57, 127
1, 16007, Note_off_c, 1, 62, 0
1, 16008, Note_on_c, 1, 61, 127
1, 16025, Note_off_c, 1, 69, 0
1, 16029, Note_off_c, 1, 57, 0
1, 16031, Note_off_c, 1, 61, 0
1, 16032, Note_on_c, 1, 59, 127
1, 16032, Note_on_c, 1, 71, 127
1, 16032, Note_on_c, 1, 50, 127
1, 16077, Note_off_c, 1, 59, 0
1, 16077, Note_off_c, 1, 50, 0
1, 16080, Note_on_c, 1, 56, 127
1, 16125, Note_off_c, 1, 56, 0
1, 16128, Note_on_c, 1, 73, 127
1, 16128, Note_on_c, 1, 52, 127
1, 16151, Note_off_c, 1, 73, 0
1, 16152, Note_on_c, 1, 74, 127
1, 16173, Note_off_c, 1, 52, 0
1, 16175, Note_off_c, 1, 74, 0
1, 16176, Note_on_c, 1, 57, 127
1, 16199, Note_off_c, 1, 57, 0
1, 16223, Note_off_c, 1, 71, 0
1, 16224, Note_on_c, 1, 69, 127
1, 16224, Note_on_c, 1, 73, 127
1, 16224, Note_on_c, 1, 57, 127
1, 16247, Note_off_c, 1, 69, 0
1, 16248, Note_on_c, 1, 68, 127
1, 16269, Note_off_c, 1, 57, 0
1, 16271, Note_off_c, 1, 68, 0
1, 16272, Note_on_c, 1, 66, 127
1, 16272, Note_on_c, 1, 61, 127
1, 16295, Note_off_c, 1, 66, 0
1, 16296, Note_on_c, 1, 64, 127
1, 16313, Note_off_c, 1, 73, 0
1, 16317, Note_off_c, 1, 61, 0
1, 16319, Note_off_c, 1, 64, 0
1, 16320, Note_on_c, 1, 62, 127
1, 16320, Note_on_c, 1, 74, 127
1, 16320, Note_on_c, 1, 54, 127
1, 16365, Note_off_c, 1, 62, 0
1, 16365, Note_off_c, 1, 54, 0
1, 16368, Note_on_c, 1, 59, 127
1, 16413, Note_off_c, 1, 74, 0
1, 16413, Note_off_c, 1, 59, 0
1, 16416, Note_on_c, 1, 64, 127
1, 16416, Note_on_c, 1, 74, 127
1, 16416, Note_on_c, 1, 56, 127
1, 16428, Note_off_c, 1, 74, 0
1, 16428, Note_on_c, 1, 76, 127
1, 16439, Note_off_c, 1, 56, 0
1, 16440, Note_off_c, 1, 76, 0
1, 16440, Note_on_c, 1, 59, 127
1, 16461, Note_off_c, 1, 64, 0
1, 16463, Note_off_c, 1, 59, 0
1, 16464, Note_on_c, 1, 68, 127
1, 16488, Note_on_c, 1, 66, 127
1, 16509, Note_off_c, 1, 68, 0
1, 16511, Note_off_c, 1, 66, 0
1, 16512, Note_on_c, 1, 71, 127
1, 16557, Note_off_c, 1, 71, 0
1, 16656, Note_on_c, 1, 80, 127
1, 16701, Note_off_c, 1, 80, 0
1, 16704, Note_on_c, 1, 57, 127
1, 16727, Note_off_c, 1, 57, 0
1, 16728, Note_on_c, 1, 61, 127
1, 16751, Note_off_c, 1, 61, 0
1, 16752, Note_on_c, 1, 69, 127
1, 16797, Note_off_c, 1, 69, 0
1, 16800, Note_on_c, 1, 73, 127
1, 16845, Note_off_c, 1, 73, 0
1, 16848, Note_on_c, 1, 76, 127
1, 16848, Note_on_c, 1, 71, 127
1, 16848, Note_on_c, 1, 64, 127
1, 16871, Note_off_c, 1, 64, 0
1, 16872, Note_on_c, 1, 66, 127
1, 16893, Note_off_c, 1, 76, 0
1, 16893, Note_off_c, 1, 71, 0
1, 16895, Note_off_c, 1, 66, 0
1, 16896, Note_on_c, 1, 80, 127
1, 16896, Note_on_c, 1, 73, 127
1, 16896, Note_on_c, 1, 57, 127
1, 16919, Note_off_c, 1, 57, 0
1, 16920, Note_on_c, 1, 61, 127
1, 16941, Note_off_c, 1, 80, 0
1, 16941, Note_off_c, 1, 73, 0
1, 16943, Note_off_c, 1, 61, 0
1, 16944, Note_on_c, 1, 81, 127
1, 16944, Note_on_c, 1, 69, 127
1, 16944, Note_on_c, 1, 64, 127
1, 16967, Note_off_c, 1, 64, 0
1, 16968, Note_on_c, 1, 66, 127
1, 16989, Note_off_c, 1, 81, 0
1, 16989, Note_off_c, 1, 69, 0
1, 16991, Note_off_c, 1, 66, 0
1, 16992, Note_on_c, 1, 64, 127
1, 16992, Note_on_c, 1, 74, 127
1, 16992, Note_on_c, 1, 56, 127
1, 17004, Note_off_c, 1, 74, 0
1, 17004, Note_on_c, 1, 76, 127
1, 17015, Note_off_c, 1, 56, 0
1, 17016, Note_off_c, 1, 76, 0
1, 17016, Note_on_c, 1, 59, 127
1, 17037, Note_off_c, 1, 64, 0
1, 17039, Note_off_c, 1, 59, 0
1, 17040, Note_on_c, 1, 68, 127
1, 17064, Note_on_c, 1, 66, 127
1, 17085, Note_off_c, 1, 68, 0
1, 17087, Note_off_c, 1, 66, 0
1, 17088, Note_on_c, 1, 71, 127
1, 17133, Note_off_c, 1, 71, 0
1, 17232, Note_on_c, 1, 80, 127
1, 17277, Note_off_c, 1, 80, 0
1, 17280, Note_on_c, 1, 57, 127
1, 17303, Note_off_c, 1, 57, 0
1, 17304, Note_on_c, 1, 61, 127
1, 17327, Note_off_c, 1, 61, 0
1, 17328, Note_on_c, 1, 69, 127
1, 17373, Note_off_c, 1, 69, 0
1, 17376, Note_on_c, 1, 73, 127
1, 17421, Note_off_c, 1, 73, 0
1, 17424, Note_on_c, 1, 76, 127
1, 17424, Note_on_c, 1, 71, 127
1, 17424, Note_on_c, 1, 64, 127
1, 17447, Note_off_c, 1, 64, 0
1, 17448, Note_on_c, 1, 66, 127
1, 17469, Note_off_c, 1, 76, 0
1, 17469, Note_off_c, 1, 71, 0
1, 17471, Note_off_c, 1, 66, 0
1, 17472, Note_on_c, 1, 80, 127
1, 17472, Note_on_c, 1, 73, 127
1, 17472, Note_on_c, 1, 57, 127
1, 17495, Note_off_c, 1, 57, 0
1, 17496, Note_on_c, 1, 61, 127
1, 17517, Note_off_c, 1, 80, 0
1, 17517, Note_off_c, 1, 73, 0
1, 17519, Note_off_c, 1, 61, 0
1, 17520, Note_on_c, 1, 81, 127
1, 17520, Note_on_c, 1, 69, 127
1, 17520, Note_on_c, 1, 64, 127
1, 17543, Note_off_c, 1, 64, 0
1, 17544, Note_on_c, 1, 66, 127
1, 17565, Note_off_c, 1, 81, 0
1, 17565, Note_off_c, 1, 69, 0
1, 17567, Note_off_c, 1, 66, 0
1, 17568, Note_on_c, 1, 61, 127
1, 17568, Note_on_c, 1, 71, 127
1, 17568, Note_on_c, 1, 53, 127
1, 17580, Note_off_c, 1, 71, 0
1, 17580, Note_on_c, 1, 73, 127
1, 17591, Note_off_c, 1, 53, 0
1, 17592, Note_off_c, 1, 73, 0
1, 17592, Note_on_c, 1, 56, 127
1, 17613, Note_off_c, 1, 61, 0
1, 17615, Note_off_c, 1, 56, 0
1, 17616, Note_on_c, 1, 65, 127
1, 17640, Note_on_c, 1, 62, 127
1, 17661, Note_off_c, 1, 65, 0
1, 17663, Note_off_c, 1, 62, 0
1, 17664, Note_on_c, 1, 68, 127
1, 17709, Note_off_c, 1, 68, 0
1, 17808, Note_on_c, 1, 77, 127
1, 17853, Note_off_c, 1, 77, 0
1, 17856, Note_on_c, 1, 54, 127
1, 17879, Note_off_c, 1, 54, 0
1, 17880, Note_on_c, 1, 57, 127
1, 17903, Note_off_c, 1, 57, 0
1, 17904, Note_on_c, 1, 66, 127
1, 17949, Note_off_c, 1, 66, 0
1, 17952, Note_on_c, 1, 69, 127
1, 17997, Note_off_c, 1, 69, 0
1, 18000, Note_on_c, 1, 73, 127
1, 18000, Note_on_c, 1, 68, 127
1, 18000, Note_on_c, 1, 61, 127
1, 18023, Note_off_c, 1, 61, 0
1, 18024, Note_on_c, 1, 62, 127
1, 18045, Note_off_c, 1, 73, 0
1, 18045, Note_off_c, 1, 68, 0
1, 18047, Note_off_c, 1, 62, 0
1, 18048, Note_on_c, 1, 77, 127
1, 18048, Note_on_c, 1, 69, 127
1, 18048, Note_on_c, 1, 54, 127
1, 18071, Note_off_c, 1, 54, 0
1, 18072, Note_on_c, 1, 57, 127
1, 18093, Note_off_c, 1, 77, 0
1, 18093, Note_off_c, 1, 69, 0
1, 18095, Note_off_c, 1, 57, 0
1, 18096, Note_on_c, 1, 78, 127
1, 18096, Note_on_c, 1, 66, 127
1, 18096, Note_on_c, 1, 61, 127
1, 18119, Note_off_c, 1, 61, 0
1, 18120, Note_on_c, 1, 62, 127
1, 18141, Note_off_c, 1, 78, 0
1, 18141, Note_off_c, 1, 66, 0
1, 18143, Note_off_c, 1, 62, 0
1, 18144, Note_on_c, 1, 61, 127
1, 18144, Note_on_c, 1, 71, 127
1, 18144, Note_on_c, 1, 53, 127
1, 18156, Note_off_c, 1, 71, 0
1, 18156, Note_on_c, 1, 73, 127
1, 18167, Note_off_c, 1, 53, 0
1, 18168, Note_off_c, 1, 73, 0
1, 18168, Note_on_c, 1, 56, 127
1, 18189, Note_off_c, 1, 61, 0
1, 18191, Note_off_c, 1, 56, 0
1, 18192, Note_on_c, 1, 65, 127
1, 18216, Note_on_c, 1, 62, 127
1, 18237, Note_off_c, 1, 65, 0
1, 18239, Note_off_c, 1, 62, 0
1, 18240, Note_on_c, 1, 68, 127
1, 18285, Note_off_c, 1, 68, 0
1, 18384, Note_on_c, 1, 77, 127
1, 18429, Note_off_c, 1, 77, 0
1, 18432, Note_on_c, 1, 54, 127
1, 18455, Note_off_c, 1, 54, 0
1, 18456, Note_on_c, 1, 57, 127
1, 18479, Note_off_c, 1, 57, 0
1, 18480, Note_on_c, 1, 66, 127
1, 18525, Note_off_c, 1, 66, 0
1, 18528, Note_on_c, 1, 69, 127
1, 18573, Note_off_c, 1, 69, 0
1, 18576, Note_on_c, 1, 73, 127
1, 18576, Note_on_c, 1, 68, 127
1, 18576, Note_on_c, 1, 61, 127
1, 18599, Note_off_c, 1, 61, 0
1, 18600, Note_on_c, 1, 62, 127
1, 18621, Note_off_c, 1, 73, 0
1, 18621, Note_off_c, 1, 68, 0
1, 18623, Note_off_c, 1, 62, 0
1, 18624, Note_on_c, 1, 77, 127
1, 18624, Note_on_c, 1, 69, 127
1, 18624, Note_on_c, 1, 54, 127
1, 18647, Note_off_c, 1, 54, 0
1, 18648, Note_on_c, 1, 57, 127
1, 18669, Note_off_c, 1, 77, 0
1, 18669, Note_off_c, 1, 69, 0
1, 18671, Note_off_c, 1, 57, 0
1, 18672, Note_on_c, 1, 78, 127
1, 18672, Note_on_c, 1, 66, 127
1, 18672, Note_on_c, 1, 61, 127
1, 18695, Note_off_c, 1, 61, 0
1, 18696, Note_on_c, 1, 62, 127
1, 18717, Note_off_c, 1, 78, 0
1, 18717, Note_off_c, 1, 66, 0
1, 18719, Note_off_c, 1, 62, 0
1, 18720, Note_on_c, 1, 57, 127
1, 18720, Note_on_c, 1, 67, 127
1, 18720, Note_on_c, 1, 49, 127
1, 18732, Note_off_c, 1, 67, 0
1, 18732, Note_on_c, 1, 69, 127
1, 18743, Note_off_c, 1, 49, 0
1, 18744, Note_off_c, 1, 69, 0
1, 18744, Note_on_c, 1, 52, 127
1, 18765, Note_off_c, 1, 57, 0
1, 18767, Note_off_c, 1, 52, 0
1, 18768, Note_on_c, 1, 61, 127
1, 18792, Note_on_c, 1, 59, 127
1, 18813, Note_off_c, 1, 61, 0
1, 18815, Note_off_c, 1, 59, 0
1, 18816, Note_on_c, 1, 64, 127
1, 18861, Note_off_c, 1, 64, 0
1, 18960, Note_on_c, 1, 73, 127
1, 19005, Note_off_c, 1, 73, 0
1, 19008, Note_on_c, 1, 50, 127
1, 19031, Note_off_c, 1, 50, 0
1, 19032, Note_on_c, 1, 54, 127
1, 19055, Note_off_c, 1, 54, 0
1, 19056, Note_on_c, 1, 62, 127
1, 19101, Note_off_c, 1, 62, 0
1, 19104, Note_on_c, 1, 66, 127
1, 19149, Note_off_c, 1, 66, 0
1, 19152, Note_on_c, 1, 69, 127
1, 19152, Note_on_c, 1, 64, 127
1, 19152, Note_on_c, 1, 57, 127
1, 19175, Note_off_c, 1, 57, 0
1, 19176, Note_on_c, 1, 59, 127
1, 19197, Note_off_c, 1, 69, 0
1, 19197, Note_off_c, 1, 64, 0
1, 19199, Note_off_c, 1, 59, 0
1, 19200, Note_on_c, 1, 73, 127
1, 19200, Note_on_c, 1, 66, 127
1, 19200, Note_on_c, 1, 50, 127
1, 19223, Note_off_c, 1, 50, 0
1, 19224, Note_on_c, 1, 54, 127
1, 19245, Note_off_c, 1, 73, 0
1, 19245, Note_off_c, 1, 66, 0
1, 19247, Note_off_c, 1, 54, 0
1, 19248, Note_on_c, 1, 74, 127
1, 19248, Note_on_c, 1, 62, 127
1, 19248, Note_on_c, 1, 57, 127
1, 19271, Note_off_c, 1, 57, 0
1, 19272, Note_on_c, 1, 59, 127
1, 19293, Note_off_c, 1, 74, 0
1, 19293, Note_off_c, 1, 62, 0
1, 19295, Note_off_c, 1, 59, 0
1, 19296, Note_on_c, 1, 57, 127
1, 19296, Note_on_c, 1, 67, 127
1, 19296, Note_on_c, 1, 49, 127
1, 19308, Note_off_c, 1, 67, 0
1, 19308, Note_on_c, 1, 69, 127
1, 19319, Note_off_c, 1, 49, 0
1, 19320, Note_off_c, 1, 69, 0
1, 19320, Note_on_c, 1, 52, 127
1, 19341, Note_off_c, 1, 57, 0
1, 19343, Note_off_c, 1, 52, 0
1, 19344, Note_on_c, 1, 61, 127
1, 19368, Note_on_c, 1, 59, 127
1, 19389, Note_off_c, 1, 61, 0
1, 19391, Note_off_c, 1, 59, 0
1, 19392, Note_on_c, 1, 64, 127
1, 19437, Note_off_c, 1, 64, 0
1, 19536, Note_on_c, 1, 73, 127
1, 19581, Note_off_c, 1, 73, 0
1, 19584, Note_on_c, 1, 50, 127
1, 19607, Note_off_c, 1, 50, 0
1, 19608, Note_on_c, 1, 54, 127
1, 19631, Note_off_c, 1, 54, 0
1, 19632, Note_on_c, 1, 62, 127
1, 19677, Note_off_c, 1, 62, 0
1, 19680, Note_on_c, 1, 66, 127
1, 19725, Note_off_c, 1, 66, 0
1, 19728, Note_on_c, 1, 69, 127
1, 19728, Note_on_c, 1, 64, 127
1, 19728, Note_on_c, 1, 57, 127
1, 19751, Note_off_c, 1, 57, 0
1, 19752, Note_on_c, 1, 59, 127
1, 19773, Note_off_c, 1, 69, 0
1, 19773, Note_off_c, 1, 64, 0
1, 19775, Note_off_c, 1, 59, 0
1, 19776, Note_on_c, 1, 73, 127
1, 19776, Note_on_c, 1, 66, 127
1, 19776, Note_on_c, 1, 50, 127
1, 19799, Note_off_c, 1, 50, 0
1, 19800, Note_on_c, 1, 54, 127
1, 19821, Note_off_c, 1, 73, 0
1, 19821, Note_off_c, 1, 66, 0
1, 19823, Note_off_c, 1, 54, 0
1, 19824, Note_on_c, 1, 74, 127
1, 19824, Note_on_c, 1, 62, 127
1, 19824, Note_on_c, 1, 57, 127
1, 19847, Note_off_c, 1, 57, 0
1, 19848, Note_on_c, 1, 59, 127
1, 19869, Note_off_c, 1, 74, 0
1, 19869, Note_off_c, 1, 62, 0
1, 19871, Note_off_c, 1, 59, 0
1, 19872, Note_on_c, 1, 56, 127
1, 19872, Note_on_c, 1, 76, 127
1, 19872, Note_on_c, 1, 64, 127
1, 19872, Note_on_c, 1, 68, 127
1, 19872, Note_on_c, 1, 71, 127
1, 19872, Note_on_c, 1, 50, 127
1, 19895, Note_off_c, 1, 50, 0
1, 19896, Note_on_c, 1, 52, 127
1, 19917, Note_off_c, 1, 56, 0
1, 19919, Note_off_c, 1, 52, 0
1, 19920, Note_on_c, 1, 59, 127
1, 19944, Note_on_c, 1, 57, 127
1, 19961, Note_off_c, 1, 76, 0
1, 19965, Note_off_c, 1, 59, 0
1, 19967, Note_off_c, 1, 57, 0
1, 19968, Note_off_c, 1, 68, 0
1, 19968, Note_off_c, 1, 71, 0
1, 20013, Note_off_c, 1, 64, 0
1, 20016, Note_on_c, 1, 68, 127
1, 20016, Note_on_c, 1, 74, 127
1, 20016, Note_on_c, 1, 56, 127
1, 20039, Note_off_c, 1, 74, 0
1, 20039, Note_off_c, 1, 56, 0
1, 20040, Note_on_c, 1, 73, 127
1, 20040, Note_on_c, 1, 57, 127
1, 20061, Note_off_c, 1, 68, 0
1, 20063, Note_off_c, 1, 73, 0
1, 20063, Note_off_c, 1, 57, 0
1, 20064, Note_on_c, 1, 71, 127
1, 20064, Note_on_c, 1, 50, 127
1, 20087, Note_off_c, 1, 50, 0
1, 20088, Note_on_c, 1, 69, 127
1, 20088, Note_on_c, 1, 52, 127
1, 20109, Note_off_c, 1, 71, 0
1, 20111, Note_off_c, 1, 69, 0
1, 20111, Note_off_c, 1, 52, 0
1, 20112, Note_on_c, 1, 76, 127
1, 20112, Note_on_c, 1, 68, 127
1, 20112, Note_on_c, 1, 56, 127
1, 20135, Note_off_c, 1, 68, 0
1, 20135, Note_off_c, 1, 56, 0
1, 20136, Note_on_c, 1, 66, 127
1, 20136, Note_on_c, 1, 57, 127
1, 20157, Note_off_c, 1, 76, 0
1, 20159, Note_off_c, 1, 66, 0
1, 20159, Note_off_c, 1, 57, 0
1, 20160, Note_on_c, 1, 57, 127
1, 20160, Note_on_c, 1, 69, 127
1, 20160, Note_on_c, 1, 64, 127
1, 20160, Note_on_c, 1, 73, 127
1, 20160, Note_on_c, 1, 76, 127
1, 20160, Note_on_c, 1, 49, 127
1, 20183, Note_off_c, 1, 49, 0
1, 20184, Note_on_c, 1, 52, 127
1, 20205, Note_off_c, 1, 57, 0
1, 20207, Note_off_c, 1, 52, 0
1, 20208, Note_on_c, 1, 61, 127
1, 20232, Note_on_c, 1, 59, 127
1, 20249, Note_off_c, 1, 69, 0
1, 20253, Note_off_c, 1, 61, 0
1, 20255, Note_off_c, 1, 59, 0
1, 20256, Note_off_c, 1, 73, 0
1, 20256, Note_off_c, 1, 76, 0
1, 20301, Note_off_c, 1, 64, 0
1, 20304, Note_on_c, 1, 69, 127
1, 20304, Note_on_c, 1, 76, 127
1, 20304, Note_on_c, 1, 57, 127
1, 20327, Note_off_c, 1, 76, 0
1, 20327, Note_off_c, 1, 57, 0
1, 20328, Note_on_c, 1, 74, 127
1, 20328, Note_on_c, 1, 59, 127
1, 20349, Note_off_c, 1, 69, 0
1, 20351, Note_off_c, 1, 74, 0
1, 20351, Note_off_c, 1, 59, 0
1, 20352, Note_on_c, 1, 73, 127
1, 20352, Note_on_c, 1, 49, 127
1, 20375, Note_off_c, 1, 49, 0
1, 20376, Note_on_c, 1, 71, 127
1, 20376, Note_on_c, 1, 52, 127
1, 20397, Note_off_c, 1, 73, 0
1, 20399, Note_off_c, 1, 71, 0
1, 20399, Note_off_c, 1, 52, 0
1, 20400, Note_on_c, 1, 76, 127
1, 20400, Note_on_c, 1, 69, 127
1, 20400, Note_on_c, 1, 57, 127
1, 20423, Note_off_c, 1, 69, 0
1, 20423, Note_off_c, 1, 57, 0
1, 20424, Note_on_c, 1, 68, 127
1, 20424, Note_on_c, 1, 59, 127
1, 20445, Note_off_c, 1, 76, 0
1, 20447, Note_off_c, 1, 68, 0
1, 20447, Note_off_c, 1, 59, 0
1, 20448, Note_on_c, 1, 59, 127
1, 20448, Note_on_c, 1, 66, 127
1, 20448, Note_on_c, 1, 78, 127
1, 20448, Note_on_c, 1, 75, 127
1, 20448, Note_on_c, 1, 71, 127
1, 20448, Note_on_c, 1, 51, 127
1, 20471, Note_off_c, 1, 51, 0
1, 20472, Note_on_c, 1, 54, 127
1, 20493, Note_off_c, 1, 59, 0
1, 20495, Note_off_c, 1, 54, 0
1, 20496, Note_on_c, 1, 57, 127
1, 20519, Note_off_c, 1, 57, 0
1, 20541, Note_off_c, 1, 66, 0
1, 20544, Note_off_c, 1, 78, 0
1, 20544, Note_off_c, 1, 75, 0
1, 20589, Note_off_c, 1, 71, 0
1, 20592, Note_on_c, 1, 75, 127
1, 20592, Note_on_c, 1, 78, 127
1, 20592, Note_on_c, 1, 57, 127
1, 20615, Note_off_c, 1, 78, 0
1, 20615, Note_off_c, 1, 57, 0
1, 20616, Note_on_c, 1, 76, 127
1, 20616, Note_on_c, 1, 59, 127
1, 20637, Note_off_c, 1, 75, 0
1, 20639, Note_off_c, 1, 76, 0
1, 20639, Note_off_c, 1, 59, 0
1, 20640, Note_on_c, 1, 81, 127
1, 20640, Note_on_c, 1, 75, 127
1, 20640, Note_on_c, 1, 51, 127
1, 20663, Note_off_c, 1, 75, 0
1, 20663, Note_off_c, 1, 51, 0
1, 20664, Note_on_c, 1, 73, 127
1, 20664, Note_on_c, 1, 54, 127
1, 20687, Note_off_c, 1, 73, 0
1, 20687, Note_off_c, 1, 54, 0
1, 20688, Note_on_c, 1, 71, 127
1, 20688, Note_on_c, 1, 57, 127
1, 20711, Note_off_c, 1, 71, 0
1, 20711, Note_off_c, 1, 57, 0
1, 20712, Note_on_c, 1, 69, 127
1, 20712, Note_on_c, 1, 59, 127
1, 20735, Note_off_c, 1, 69, 0
1, 20735, Note_off_c, 1, 59, 0
1, 20736, Note_on_c, 1, 52, 127
1, 20736, Note_on_c, 1, 40, 127
1, 20759, Note_off_c, 1, 81, 0
1, 20760, Note_on_c, 1, 80, 127
1, 20783, Note_off_c, 1, 80, 0
1, 20784, Note_on_c, 1, 78, 127
1, 20807, Note_off_c, 1, 78, 0
1, 20808, Note_on_c, 1, 76, 127
1, 20808, Note_on_c, 1, 68, 127
1, 20831, Note_off_c, 1, 76, 0
1, 20831, Note_off_c, 1, 68, 0
1, 20904, Note_on_c, 1, 83, 127
1, 20927, Note_off_c, 1, 83, 0
1, 20928, Note_on_c, 1, 85, 127
1, 20951, Note_off_c, 1, 85, 0
1, 20952, Note_on_c, 1, 87, 127
1, 20975, Note_off_c, 1, 87, 0
1, 20976, Note_on_c, 1, 88, 127
1, 20999, Note_off_c, 1, 88, 0
1, 21001, Note_off_c, 1, 52, 0
1, 21072, Note_on_c, 1, 64, 127
1, 21095, Note_off_c, 1, 64, 0
1, 21096, Note_on_c, 1, 66, 127
1, 21119, Note_off_c, 1, 66, 0
1, 21312, Note_on_c, 1, 74, 127
1, 21445, Note_off_c, 1, 74, 0
1, 22800, Note_on_c, 1, 86, 127
1, 22823, Note_off_c, 1, 86, 0
1, 24240, Note_on_c, 1, 62, 127
1, 24263, Note_off_c, 1, 62, 0
1, 24816, Note_on_c, 1, 61, 127
1, 24839, Note_off_c, 1, 61, 0
1, 25344, Note_on_c, 1, 72, 127
1, 25344, Note_on_c, 1, 63, 127
1, 25632, Note_off_c, 1, 72, 0
1, 25920, Note_off_c, 1, 63, 0
1, 25943, Note_off_c, 1, 40, 0
1, 25968, Note_on_c, 1, 44, 127
1, 25991, Note_off_c, 1, 44, 0
1, 25992, Note_on_c, 1, 47, 127
1, 26015, Note_off_c, 1, 47, 0
1, 26040, Note_on_c, 1, 56, 127
1, 26063, Note_off_c, 1, 56, 0
1, 26496, Note_on_c, 1, 45, 127
1, 26544, Note_on_c, 1, 69, 127
1, 26567, Note_off_c, 1, 69, 0
1, 26568, Note_on_c, 1, 71, 127
1, 26585, Note_off_c, 1, 45, 0
1, 26591, Note_off_c, 1, 71, 0
1, 26592, Note_on_c, 1, 73, 127
1, 26592, Note_on_c, 1, 57, 127
1, 26637, Note_off_c, 1, 73, 0
1, 26664, Note_on_c, 1, 74, 127
1, 26681, Note_off_c, 1, 57, 0
1, 26687, Note_off_c, 1, 74, 0
1, 26688, Note_on_c, 1, 76, 127
1, 26688, Note_on_c, 1, 59, 127
1, 26733, Note_off_c, 1, 76, 0
1, 26736, Note_on_c, 1, 78, 127
1, 26759, Note_off_c, 1, 78, 0
1, 26760, Note_on_c, 1, 80, 127
1, 26777, Note_off_c, 1, 59, 0
1, 26783, Note_off_c, 1, 80, 0
1, 26784, Note_on_c, 1, 81, 127
1, 26784, Note_on_c, 1, 61, 127
1, 26829, Note_off_c, 1, 81, 0
1, 26832, Note_on_c, 1, 80, 127
1, 26855, Note_off_c, 1, 80, 0
1, 26856, Note_on_c, 1, 78, 127
1, 26873, Note_off_c, 1, 61, 0
1, 26879, Note_off_c, 1, 78, 0
1, 26880, Note_on_c, 1, 76, 127
1, 26880, Note_on_c, 1, 49, 127
1, 26925, Note_off_c, 1, 76, 0
1, 26925, Note_off_c, 1, 49, 0
1, 26928, Note_on_c, 1, 74, 127
1, 26928, Note_on_c, 1, 50, 127
1, 26973, Note_off_c, 1, 74, 0
1, 26973, Note_off_c, 1, 50, 0
1, 26976, Note_on_c, 1, 73, 127
1, 26976, Note_on_c, 1, 52, 127
1, 27021, Note_off_c, 1, 73, 0
1, 27021, Note_off_c, 1, 52, 0
1, 27024, Note_on_c, 1, 71, 127
1, 27024, Note_on_c, 1, 49, 127
1, 27069, Note_off_c, 1, 71, 0
1, 27069, Note_off_c, 1, 49, 0
1, 27072, Note_on_c, 1, 69, 127
1, 27072, Note_on_c, 1, 54, 127
1, 27117, Note_off_c, 1, 69, 0
1, 27120, Note_on_c, 1, 74, 127
1, 27143, Note_off_c, 1, 74, 0
1, 27144, Note_on_c, 1, 73, 127
1, 27161, Note_off_c, 1, 54, 0
1, 27167, Note_off_c, 1, 73, 0
1, 27168, Note_on_c, 1, 74, 127
1, 27168, Note_on_c, 1, 42, 127
1, 27213, Note_off_c, 1, 74, 0
1, 27216, Note_on_c, 1, 78, 127
1, 27257, Note_off_c, 1, 42, 0
1, 27261, Note_off_c, 1, 78, 0
1, 27264, Note_on_c, 1, 71, 127
1, 27264, Note_on_c, 1, 44, 127
1, 27309, Note_off_c, 1, 71, 0
1, 27312, Note_on_c, 1, 76, 127
1, 27353, Note_off_c, 1, 44, 0
1, 27357, Note_off_c, 1, 76, 0
1, 27360, Note_on_c, 1, 73, 127
1, 27360, Note_on_c, 1, 45, 127
1, 27405, Note_off_c, 1, 73, 0
1, 27408, Note_on_c, 1, 78, 127
1, 27431, Note_off_c, 1, 78, 0
1, 27432, Note_on_c, 1, 76, 127
1, 27449, Note_off_c, 1, 45, 0
1, 27455, Note_off_c, 1, 76, 0
1, 27456, Note_on_c, 1, 78, 127
1, 27456, Note_on_c, 1, 57, 127
1, 27501, Note_off_c, 1, 78, 0
1, 27504, Note_on_c, 1, 81, 127
1, 27545, Note_off_c, 1, 57, 0
1, 27549, Note_off_c, 1, 81, 0
1, 27552, Note_on_c, 1, 75, 127
1, 27552, Note_on_c, 1, 59, 127
1, 27597, Note_off_c, 1, 75, 0
1, 27600, Note_on_c, 1, 80, 127
1, 27641, Note_off_c, 1, 59, 0
1, 27645, Note_off_c, 1, 80, 0
1, 27648, Note_on_c, 1, 76, 127
1, 27648, Note_on_c, 1, 61, 127
1, 27693, Note_off_c, 1, 76, 0
1, 27696, Note_on_c, 1, 81, 127
1, 27719, Note_off_c, 1, 81, 0
1, 27720, Note_on_c, 1, 80, 127
1, 27737, Note_off_c, 1, 61, 0
1, 27743, Note_off_c, 1, 80, 0
1, 27744, Note_on_c, 1, 81, 127
1, 27744, Note_on_c, 1, 49, 127
1, 27789, Note_off_c, 1, 81, 0
1, 27792, Note_on_c, 1, 85, 127
1, 27833, Note_off_c, 1, 49, 0
1, 27837, Note_off_c, 1, 85, 0
1, 27840, Note_on_c, 1, 78, 127
1, 27840, Note_on_c, 1, 51, 127
1, 27885, Note_off_c, 1, 78, 0
1, 27888, Note_on_c, 1, 83, 127
1, 27929, Note_off_c, 1, 51, 0
1, 27933, Note_off_c, 1, 83, 0
1, 27936, Note_on_c, 1, 80, 127
1, 27936, Note_on_c, 1, 52, 127
1, 27959, Note_off_c, 1, 80, 0
1, 27960, Note_on_c, 1, 78, 127
1, 27983, Note_off_c, 1, 78, 0
1, 27984, Note_on_c, 1, 64, 127
1, 28007, Note_off_c, 1, 64, 0
1, 28008, Note_on_c, 1, 81, 127
1, 28008, Note_on_c, 1, 66, 127
1, 28031, Note_off_c, 1, 81, 0
1, 28031, Note_off_c, 1, 66, 0
1, 28032, Note_on_c, 1, 83, 127
1, 28032, Note_on_c, 1, 68, 127
1, 28077, Note_off_c, 1, 83, 0
1, 28077, Note_off_c, 1, 68, 0
1, 28080, Note_on_c, 1, 76, 127
1, 28104, Note_on_c, 1, 69, 127
1, 28113, Note_off_c, 1, 52, 0
1, 28125, Note_off_c, 1, 76, 0
1, 28127, Note_off_c, 1, 69, 0
1, 28128, Note_on_c, 1, 75, 127
1, 28128, Note_on_c, 1, 71, 127
1, 28128, Note_on_c, 1, 47, 127
1, 28173, Note_off_c, 1, 75, 0
1, 28173, Note_off_c, 1, 71, 0
1, 28176, Note_on_c, 1, 81, 127
1, 28176, Note_on_c, 1, 73, 127
1, 28199, Note_off_c, 1, 73, 0
1, 28217, Note_off_c, 1, 47, 0
1, 28221, Note_off_c, 1, 81, 0
1, 28224, Note_on_c, 1, 80, 127
1, 28224, Note_on_c, 1, 76, 127
1, 28224, Note_on_c, 1, 49, 127
1, 28247, Note_off_c, 1, 80, 0
1, 28248, Note_on_c, 1, 78, 127
1, 28269, Note_off_c, 1, 76, 0
1, 28269, Note_off_c, 1, 49, 0
1, 28271, Note_off_c, 1, 78, 0
1, 28272, Note_on_c, 1, 80, 127
1, 28272, Note_on_c, 1, 75, 127
1, 28272, Note_on_c, 1, 47, 127
1, 28295, Note_off_c, 1, 80, 0
1, 28295, Note_off_c, 1, 75, 0
1, 28295, Note_off_c, 1, 47, 0
1, 28296, Note_on_c, 1, 81, 127
1, 28296, Note_on_c, 1, 73, 127
1, 28296, Note_on_c, 1, 45, 127
1, 28319, Note_off_c, 1, 81, 0
1, 28319, Note_off_c, 1, 73, 0
1, 28319, Note_off_c, 1, 45, 0
1, 28320, Note_on_c, 1, 83, 127
1, 28320, Note_on_c, 1, 71, 127
1, 28320, Note_on_c, 1, 44, 127
1, 28365, Note_off_c, 1, 83, 0
1, 28365, Note_off_c, 1, 71, 0
1, 28365, Note_off_c, 1, 44, 0
1, 28368, Note_on_c, 1, 76, 127
1, 28368, Note_on_c, 1, 69, 127
1, 28368, Note_on_c, 1, 42, 127
1, 28413, Note_off_c, 1, 76, 0
1, 28413, Note_off_c, 1, 69, 0
1, 28413, Note_off_c, 1, 42, 0
1, 28416, Note_on_c, 1, 71, 127
1, 28416, Note_on_c, 1, 68, 127
1, 28416, Note_on_c, 1, 40, 127
1, 28461, Note_off_c, 1, 71, 0
1, 28461, Note_off_c, 1, 68, 0
1, 28464, Note_on_c, 1, 74, 127
1, 28464, Note_on_c, 1, 66, 127
1, 28505, Note_off_c, 1, 40, 0
1, 28509, Note_off_c, 1, 74, 0
1, 28509, Note_off_c, 1, 66, 0
1, 28512, Note_on_c, 1, 73, 127
1, 28512, Note_on_c, 1, 64, 127
1, 28512, Note_on_c, 1, 45, 127
1, 28535, Note_off_c, 1, 73, 0
1, 28536, Note_on_c, 1, 74, 127
1, 28557, Note_off_c, 1, 64, 0
1, 28559, Note_off_c, 1, 74, 0
1, 28560, Note_on_c, 1, 69, 127
1, 28583, Note_off_c, 1, 69, 0
1, 28584, Note_on_c, 1, 71, 127
1, 28584, Note_on_c, 1, 68, 127
1, 28601, Note_off_c, 1, 45, 0
1, 28607, Note_off_c, 1, 71, 0
1, 28607, Note_off_c, 1, 68, 0
1, 28608, Note_on_c, 1, 69, 127
1, 28608, Note_on_c, 1, 42, 127
1, 28632, Note_on_c, 1, 68, 127
1, 28653, Note_off_c, 1, 69, 0
1, 28655, Note_off_c, 1, 68, 0
1, 28656, Note_on_c, 1, 66, 127
1, 28656, Note_on_c, 1, 73, 127
1, 28679, Note_off_c, 1, 66, 0
1, 28680, Note_on_c, 1, 64, 127
1, 28697, Note_off_c, 1, 42, 0
1, 28701, Note_off_c, 1, 73, 0
1, 28703, Note_off_c, 1, 64, 0
1, 28704, Note_on_c, 1, 63, 127
1, 28704, Note_on_c, 1, 66, 127
1, 28704, Note_on_c, 1, 47, 127
1, 28749, Note_off_c, 1, 63, 0
1, 28749, Note_off_c, 1, 66, 0
1, 28752, Note_on_c, 1, 76, 127
1, 28752, Note_on_c, 1, 71, 127
1, 28776, Note_off_c, 1, 76, 0
1, 28776, Note_on_c, 1, 75, 127
1, 28793, Note_off_c, 1, 47, 0
1, 28797, Note_off_c, 1, 71, 0
1, 28799, Note_off_c, 1, 75, 0
1, 28800, Note_on_c, 1, 76, 127
1, 28800, Note_on_c, 1, 68, 127
1, 28800, Note_on_c, 1, 40, 127
1, 28845, Note_off_c, 1, 68, 0
1, 28848, Note_on_c, 1, 73, 127
1, 28871, Note_off_c, 1, 73, 0
1, 28872, Note_on_c, 1, 71, 127
1, 28889, Note_off_c, 1, 40, 0
1, 28895, Note_off_c, 1, 71, 0
1, 28896, Note_on_c, 1, 52, 127
1, 28985, Note_off_c, 1, 52, 0
1, 28989, Note_off_c, 1, 76, 0
1, 28992, Note_on_c, 1, 74, 127
1, 28992, Note_on_c, 1, 69, 127
1, 28992, Note_on_c, 1, 54, 127
1, 29037, Note_off_c, 1, 69, 0
1, 29081, Note_off_c, 1, 54, 0
1, 29088, Note_on_c, 1, 71, 127
1, 29088, Note_on_c, 1, 56, 127
1, 29133, Note_off_c, 1, 71, 0
1, 29136, Note_on_c, 1, 76, 127
1, 29159, Note_off_c, 1, 76, 0
1, 29177, Note_off_c, 1, 56, 0
1, 29183, Note_off_c, 1, 74, 0
1, 29184, Note_on_c, 1, 73, 127
1, 29184, Note_on_c, 1, 76, 127
1, 29184, Note_on_c, 1, 44, 127
1, 29229, Note_off_c, 1, 73, 0
1, 29229, Note_off_c, 1, 76, 0
1, 29232, Note_on_c, 1, 71, 127
1, 29232, Note_on_c, 1, 80, 127
1, 29273, Note_off_c, 1, 44, 0
1, 29277, Note_off_c, 1, 71, 0
1, 29277, Note_off_c, 1, 80, 0
1, 29280, Note_on_c, 1, 73, 127
1, 29280, Note_on_c, 1, 45, 127
1, 29328, Note_on_c, 1, 78, 127
1, 29369, Note_off_c, 1, 45, 0
1, 29373, Note_off_c, 1, 78, 0
1, 29376, Note_on_c, 1, 74, 127
1, 29376, Note_on_c, 1, 47, 127
1, 29399, Note_off_c, 1, 74, 0
1, 29423, Note_off_c, 1, 73, 0
1, 29424, Note_on_c, 1, 81, 127
1, 29447, Note_off_c, 1, 81, 0
1, 29448, Note_on_c, 1, 80, 127
1, 29448, Note_on_c, 1, 76, 127
1, 29465, Note_off_c, 1, 47, 0
1, 29471, Note_off_c, 1, 80, 0
1, 29471, Note_off_c, 1, 76, 0
1, 29472, Note_on_c, 1, 78, 127
1, 29472, Note_on_c, 1, 50, 127
1, 29496, Note_on_c, 1, 76, 127
1, 29517, Note_off_c, 1, 78, 0
1, 29519, Note_off_c, 1, 76, 0
1, 29520, Note_on_c, 1, 74, 127
1, 29520, Note_on_c, 1, 69, 127
1, 29543, Note_off_c, 1, 74, 0
1, 29544, Note_on_c, 1, 73, 127
1, 29561, Note_off_c, 1, 50, 0
1, 29565, Note_off_c, 1, 69, 0
1, 29567, Note_off_c, 1, 73, 0
1, 29568, Note_on_c, 1, 71, 127
1, 29568, Note_on_c, 1, 68, 127
1, 29568, Note_on_c, 1, 52, 127
1, 29591, Note_off_c, 1, 71, 0
1, 29592, Note_on_c, 1, 69, 127
1, 29613, Note_off_c, 1, 68, 0
1, 29615, Note_off_c, 1, 69, 0
1, 29616, Note_on_c, 1, 74, 127
1, 29657, Note_off_c, 1, 52, 0
1, 29661, Note_off_c, 1, 74, 0
1, 29664, Note_on_c, 1, 69, 127
1, 29664, Note_on_c, 1, 73, 127
1, 29664, Note_on_c, 1, 57, 127
1, 29687, Note_off_c, 1, 73, 0
1, 29688, Note_on_c, 1, 71, 127
1, 29709, Note_off_c, 1, 57, 0
1, 29711, Note_off_c, 1, 71, 0
1, 29712, Note_on_c, 1, 45, 127
1, 29735, Note_off_c, 1, 45, 0
1, 29736, Note_on_c, 1, 74, 127
1, 29736, Note_on_c, 1, 47, 127
1, 29753, Note_off_c, 1, 69, 0
1, 29759, Note_off_c, 1, 74, 0
1, 29759, Note_off_c, 1, 47, 0
1, 29760, Note_on_c, 1, 76, 127
1, 29760, Note_on_c, 1, 49, 127
1, 29805, Note_off_c, 1, 76, 0
1, 29805, Note_off_c, 1, 49, 0
1, 29808, Note_on_c, 1, 69, 127
1, 29808, Note_on_c, 1, 49, 127
1, 29831, Note_off_c, 1, 49, 0
1, 29832, Note_on_c, 1, 50, 127
1, 29853, Note_off_c, 1, 69, 0
1, 29855, Note_off_c, 1, 50, 0
1, 29856, Note_on_c, 1, 76, 127
1, 29856, Note_on_c, 1, 68, 127
1, 29856, Note_on_c, 1, 52, 127
1, 29901, Note_off_c, 1, 68, 0
1, 29901, Note_off_c, 1, 52, 0
1, 29904, Note_on_c, 1, 74, 127
1, 29904, Note_on_c, 1, 54, 127
1, 29927, Note_off_c, 1, 54, 0
1, 29928, Note_on_c, 1, 56, 127
1, 29945, Note_off_c, 1, 76, 0
1, 29949, Note_off_c, 1, 74, 0
1, 29951, Note_off_c, 1, 56, 0
1, 29952, Note_on_c, 1, 76, 127
1, 29952, Note_on_c, 1, 73, 127
1, 29952, Note_on_c, 1, 57, 127
1, 29975, Note_off_c, 1, 73, 0
1, 29976, Note_on_c, 1, 71, 127
1, 29997, Note_off_c, 1, 57, 0
1, 29999, Note_off_c, 1, 71, 0
1, 30000, Note_on_c, 1, 56, 127
1, 30023, Note_off_c, 1, 56, 0
1, 30024, Note_on_c, 1, 74, 127
1, 30024, Note_on_c, 1, 54, 127
1, 30047, Note_off_c, 1, 74, 0
1, 30047, Note_off_c, 1, 54, 0
1, 30048, Note_on_c, 1, 52, 127
1, 30093, Note_off_c, 1, 52, 0
1, 30096, Note_on_c, 1, 69, 127
1, 30096, Note_on_c, 1, 50, 127
1, 30141, Note_off_c, 1, 69, 0
1, 30141, Note_off_c, 1, 50, 0
1, 30144, Note_on_c, 1, 64, 127
1, 30144, Note_on_c, 1, 49, 127
1, 30189, Note_off_c, 1, 64, 0
1, 30189, Note_off_c, 1, 49, 0
1, 30192, Note_on_c, 1, 67, 127
1, 30192, Note_on_c, 1, 47, 127
1, 30237, Note_off_c, 1, 67, 0
1, 30237, Note_off_c, 1, 47, 0
1, 30240, Note_on_c, 1, 66, 127
1, 30240, Note_on_c, 1, 45, 127
1, 30263, Note_off_c, 1, 66, 0
1, 30285, Note_off_c, 1, 45, 0
1, 30329, Note_off_c, 1, 76, 0
1, 30336, Note_on_c, 1, 78, 127
1, 30336, Note_on_c, 1, 62, 127
1, 30336, Note_on_c, 1, 50, 127
1, 30359, Note_off_c, 1, 62, 0
1, 30360, Note_on_c, 1, 61, 127
1, 30381, Note_off_c, 1, 50, 0
1, 30383, Note_off_c, 1, 61, 0
1, 30384, Note_on_c, 1, 59, 127
1, 30384, Note_on_c, 1, 54, 127
1, 30407, Note_off_c, 1, 59, 0
1, 30408, Note_on_c, 1, 57, 127
1, 30425, Note_off_c, 1, 78, 0
1, 30429, Note_off_c, 1, 54, 0
1, 30431, Note_off_c, 1, 57, 0
1, 30432, Note_on_c, 1, 80, 127
1, 30432, Note_on_c, 1, 56, 127
1, 30432, Note_on_c, 1, 47, 127
1, 30477, Note_off_c, 1, 56, 0
1, 30477, Note_off_c, 1, 47, 0
1, 30480, Note_on_c, 1, 68, 127
1, 30480, Note_on_c, 1, 52, 127
1, 30525, Note_off_c, 1, 68, 0
1, 30525, Note_off_c, 1, 52, 0
1, 30528, Note_on_c, 1, 69, 127
1, 30528, Note_on_c, 1, 49, 127
1, 30551, Note_off_c, 1, 69, 0
1, 30552, Note_on_c, 1, 71, 127
1, 30573, Note_off_c, 1, 49, 0
1, 30575, Note_off_c, 1, 71, 0
1, 30576, Note_on_c, 1, 54, 127
1, 30599, Note_off_c, 1, 54, 0
1, 30617, Note_off_c, 1, 80, 0
1, 30624, Note_on_c, 1, 81, 127
1, 30624, Note_on_c, 1, 66, 127
1, 30624, Note_on_c, 1, 54, 127
1, 30647, Note_off_c, 1, 66, 0
1, 30648, Note_on_c, 1, 64, 127
1, 30669, Note_off_c, 1, 54, 0
1, 30671, Note_off_c, 1, 64, 0
1, 30672, Note_on_c, 1, 63, 127
1, 30672, Note_on_c, 1, 57, 127
1, 30695, Note_off_c, 1, 63, 0
1, 30696, Note_on_c, 1, 61, 127
1, 30713, Note_off_c, 1, 81, 0
1, 30717, Note_off_c, 1, 57, 0
1, 30719, Note_off_c, 1, 61, 0
1, 30720, Note_on_c, 1, 83, 127
1, 30720, Note_on_c, 1, 59, 127
1, 30720, Note_on_c, 1, 51, 127
1, 30765, Note_off_c, 1, 59, 0
1, 30765, Note_off_c, 1, 51, 0
1, 30768, Note_on_c, 1, 71, 127
1, 30768, Note_on_c, 1, 56, 127
1, 30813, Note_off_c, 1, 71, 0
1, 30813, Note_off_c, 1, 56, 0
1, 30816, Note_on_c, 1, 73, 127
1, 30816, Note_on_c, 1, 52, 127
1, 30839, Note_off_c, 1, 73, 0
1, 30840, Note_on_c, 1, 74, 127
1, 30861, Note_off_c, 1, 52, 0
1, 30863, Note_off_c, 1, 74, 0
1, 30864, Note_on_c, 1, 57, 127
1, 30887, Note_off_c, 1, 57, 0
1, 30905, Note_off_c, 1, 83, 0
1, 30912, Note_on_c, 1, 85, 127
1, 30912, Note_on_c, 1, 69, 127
1, 30912, Note_on_c, 1, 57, 127
1, 30935, Note_off_c, 1, 69, 0
1, 30936, Note_on_c, 1, 68, 127
1, 30957, Note_off_c, 1, 57, 0
1, 30959, Note_off_c, 1, 68, 0
1, 30960, Note_on_c, 1, 66, 127
1, 30960, Note_on_c, 1, 61, 127
1, 30983, Note_off_c, 1, 66, 0
1, 30984, Note_on_c, 1, 64, 127
1, 31001, Note_off_c, 1, 85, 0
1, 31005, Note_off_c, 1, 61, 0
1, 31007, Note_off_c, 1, 64, 0
1, 31008, Note_on_c, 1, 87, 127
1, 31008, Note_on_c, 1, 66, 127
1, 31008, Note_on_c, 1, 54, 127
1, 31031, Note_off_c, 1, 66, 0
1, 31032, Note_on_c, 1, 69, 127
1, 31053, Note_off_c, 1, 54, 0
1, 31055, Note_off_c, 1, 69, 0
1, 31056, Note_on_c, 1, 68, 127
1, 31056, Note_on_c, 1, 59, 127
1, 31079, Note_off_c, 1, 68, 0
1, 31097, Note_off_c, 1, 87, 0
1, 31101, Note_off_c, 1, 59, 0
1, 31104, Note_on_c, 1, 88, 127
1, 31104, Note_on_c, 1, 68, 127
1, 31104, Note_on_c, 1, 56, 127
1, 31149, Note_off_c, 1, 88, 0
1, 31149, Note_off_c, 1, 56, 0
1, 31152, Note_on_c, 1, 86, 127
1, 31152, Note_on_c, 1, 52, 127
1, 31175, Note_off_c, 1, 86, 0
1, 31176, Note_on_c, 1, 85, 127
1, 31193, Note_off_c, 1, 68, 0
1, 31197, Note_off_c, 1, 52, 0
1, 31199, Note_off_c, 1, 85, 0
1, 31200, Note_on_c, 1, 83, 127
1, 31200, Note_on_c, 1, 56, 127
1, 31223, Note_off_c, 1, 83, 0
1, 31224, Note_on_c, 1, 81, 127
1, 31245, Note_off_c, 1, 56, 0
1, 31247, Note_off_c, 1, 81, 0
1, 31248, Note_on_c, 1, 80, 127
1, 31248, Note_on_c, 1, 59, 127
1, 31271, Note_off_c, 1, 80, 0
1, 31272, Note_on_c, 1, 78, 127
1, 31293, Note_off_c, 1, 59, 0
1, 31295, Note_off_c, 1, 78, 0
1, 31296, Note_on_c, 1, 76, 127
1, 31296, Note_on_c, 1, 64, 127
1, 31319, Note_off_c, 1, 76, 0
1, 31320, Note_on_c, 1, 80, 127
1, 31341, Note_off_c, 1, 64, 0
1, 31343, Note_off_c, 1, 80, 0
1, 31344, Note_on_c, 1, 78, 127
1, 31344, Note_on_c, 1, 62, 127
1, 31367, Note_off_c, 1, 78, 0
1, 31368, Note_on_c, 1, 76, 127
1, 31389, Note_off_c, 1, 62, 0
1, 31391, Note_off_c, 1, 76, 0
1, 31392, Note_on_c, 1, 81, 127
1, 31392, Note_on_c, 1, 64, 127
1, 31437, Note_off_c, 1, 81, 0
1, 31440, Note_on_c, 1, 76, 127
1, 31440, Note_on_c, 1, 80, 127
1, 31463, Note_off_c, 1, 80, 0
1, 31464, Note_on_c, 1, 78, 127
1, 31481, Note_off_c, 1, 64, 0
1, 31485, Note_off_c, 1, 76, 0
1, 31487, Note_off_c, 1, 78, 0
1, 31488, Note_on_c, 1, 73, 127
1, 31488, Note_on_c, 1, 76, 127
1, 31511, Note_off_c, 1, 76, 0
1, 31512, Note_on_c, 1, 74, 127
1, 31533, Note_off_c, 1, 73, 0
1, 31535, Note_off_c, 1, 74, 0
1, 31536, Note_on_c, 1, 69, 127
1, 31536, Note_on_c, 1, 73, 127
1, 31559, Note_off_c, 1, 73, 0
1, 31560, Note_on_c, 1, 71, 127
1, 31581, Note_off_c, 1, 69, 0
1, 31583, Note_off_c, 1, 71, 0
1, 31584, Note_on_c, 1, 79, 127
1, 31584, Note_on_c, 1, 69, 127
1, 31607, Note_off_c, 1, 69, 0
1, 31608, Note_on_c, 1, 73, 127
1, 31631, Note_off_c, 1, 73, 0
1, 31632, Note_on_c, 1, 71, 127
1, 31655, Note_off_c, 1, 71, 0
1, 31680, Note_off_c, 1, 79, 0
1, 31680, Note_on_c, 1, 78, 127
1, 31680, Note_on_c, 1, 74, 127
1, 31704, Note_on_c, 1, 50, 127
1, 31725, Note_off_c, 1, 78, 0
1, 31725, Note_off_c, 1, 74, 0
1, 31727, Note_off_c, 1, 50, 0
1, 31728, Note_on_c, 1, 74, 127
1, 31728, Note_on_c, 1, 69, 127
1, 31728, Note_on_c, 1, 52, 127
1, 31751, Note_off_c, 1, 52, 0
1, 31752, Note_on_c, 1, 54, 127
1, 31773, Note_off_c, 1, 74, 0
1, 31773, Note_off_c, 1, 69, 0
1, 31775, Note_off_c, 1, 54, 0
1, 31776, Note_on_c, 1, 69, 127
1, 31776, Note_on_c, 1, 66, 127
1, 31776, Note_on_c, 1, 55, 127
1, 31799, Note_off_c, 1, 55, 0
1, 31800, Note_on_c, 1, 57, 127
1, 31821, Note_off_c, 1, 69, 0
1, 31821, Note_off_c, 1, 66, 0
1, 31823, Note_off_c, 1, 57, 0
1, 31824, Note_on_c, 1, 66, 127
1, 31824, Note_on_c, 1, 62, 127
1, 31824, Note_on_c, 1, 59, 127
1, 31847, Note_off_c, 1, 59, 0
1, 31848, Note_on_c, 1, 61, 127
1, 31869, Note_off_c, 1, 66, 0
1, 31869, Note_off_c, 1, 62, 0
1, 31871, Note_off_c, 1, 61, 0
1, 31872, Note_on_c, 1, 78, 127
1, 31872, Note_on_c, 1, 74, 127
1, 31872, Note_on_c, 1, 62, 127
1, 31895, Note_off_c, 1, 62, 0
1, 31896, Note_on_c, 1, 59, 127
1, 31917, Note_off_c, 1, 74, 0
1, 31919, Note_off_c, 1, 59, 0
1, 31920, Note_on_c, 1, 71, 127
1, 31920, Note_on_c, 1, 57, 127
1, 31943, Note_off_c, 1, 57, 0
1, 31944, Note_on_c, 1, 56, 127
1, 31965, Note_off_c, 1, 71, 0
1, 31967, Note_off_c, 1, 56, 0
1, 31968, Note_on_c, 1, 68, 127
1, 31968, Note_on_c, 1, 61, 127
1, 31991, Note_off_c, 1, 68, 0
1, 31991, Note_off_c, 1, 61, 0
1, 32040, Note_on_c, 1, 64, 127
1, 32057, Note_off_c, 1, 78, 0
1, 32063, Note_off_c, 1, 64, 0
1, 32064, Note_on_c, 1, 76, 127
1, 32064, Note_on_c, 1, 66, 127
1, 32087, Note_off_c, 1, 66, 0
1, 32088, Note_on_c, 1, 68, 127
1, 32088, Note_on_c, 1, 62, 127
1, 32109, Note_off_c, 1, 76, 0
1, 32111, Note_off_c, 1, 68, 0
1, 32111, Note_off_c, 1, 62, 0
1, 32112, Note_on_c, 1, 74, 127
1, 32112, Note_on_c, 1, 69, 127
1, 32112, Note_on_c, 1, 61, 127
1, 32135, Note_off_c, 1, 69, 0
1, 32135, Note_off_c, 1, 61, 0
1, 32136, Note_on_c, 1, 71, 127
1, 32136, Note_on_c, 1, 59, 127
1, 32157, Note_off_c, 1, 74, 0
1, 32159, Note_off_c, 1, 71, 0
1, 32159, Note_off_c, 1, 59, 0
1, 32160, Note_on_c, 1, 76, 127
1, 32160, Note_on_c, 1, 73, 127
1, 32160, Note_on_c, 1, 57, 127
1, 32183, Note_off_c, 1, 73, 0
1, 32183, Note_off_c, 1, 57, 0
1, 32184, Note_on_c, 1, 71, 127
1, 32184, Note_on_c, 1, 54, 127
1, 32207, Note_off_c, 1, 71, 0
1, 32207, Note_off_c, 1, 54, 0
1, 32208, Note_on_c, 1, 69, 127
1, 32208, Note_on_c, 1, 56, 127
1, 32231, Note_off_c, 1, 69, 0
1, 32231, Note_off_c, 1, 56, 0
1, 32232, Note_on_c, 1, 68, 127
1, 32255, Note_off_c, 1, 68, 0
1, 32256, Note_on_c, 1, 66, 127
1, 32256, Note_on_c, 1, 59, 127
1, 32279, Note_off_c, 1, 59, 0
1, 32280, Note_on_c, 1, 47, 127
1, 32303, Note_off_c, 1, 47, 0
1, 32304, Note_on_c, 1, 49, 127
1, 32327, Note_off_c, 1, 49, 0
1, 32328, Note_on_c, 1, 50, 127
1, 32345, Note_off_c, 1, 76, 0
1, 32351, Note_off_c, 1, 50, 0
1, 32352, Note_on_c, 1, 74, 127
1, 32352, Note_on_c, 1, 52, 127
1, 32375, Note_off_c, 1, 66, 0
1, 32375, Note_off_c, 1, 52, 0
1, 32397, Note_off_c, 1, 74, 0
1, 32400, Note_on_c, 1, 73, 127
1, 32400, Note_on_c, 1, 71, 127
1, 32400, Note_on_c, 1, 56, 127
1, 32423, Note_off_c, 1, 71, 0
1, 32423, Note_off_c, 1, 56, 0
1, 32424, Note_on_c, 1, 69, 127
1, 32424, Note_on_c, 1, 57, 127
1, 32445, Note_off_c, 1, 73, 0
1, 32447, Note_off_c, 1, 69, 0
1, 32447, Note_off_c, 1, 57, 0
1, 32448, Note_on_c, 1, 74, 127
1, 32448, Note_on_c, 1, 68, 127
1, 32448, Note_on_c, 1, 59, 127
1, 32460, Note_off_c, 1, 68, 0
1, 32460, Note_on_c, 1, 69, 127
1, 32471, Note_off_c, 1, 59, 0
1, 32472, Note_off_c, 1, 69, 0
1, 32472, Note_on_c, 1, 56, 127
1, 32495, Note_off_c, 1, 56, 0
1, 32496, Note_on_c, 1, 54, 127
1, 32519, Note_off_c, 1, 54, 0
1, 32520, Note_on_c, 1, 66, 127
1, 32520, Note_on_c, 1, 52, 127
1, 32532, Note_off_c, 1, 66, 0
1, 32543, Note_off_c, 1, 52, 0
1, 32544, Note_on_c, 1, 57, 127
1, 32616, Note_on_c, 1, 71, 127
1, 32633, Note_off_c, 1, 74, 0
1, 32633, Note_off_c, 1, 57, 0
1, 32639, Note_off_c, 1, 71, 0
1, 32640, Note_on_c, 1, 73, 127
1, 32640, Note_on_c, 1, 45, 127
1, 32685, Note_off_c, 1, 73, 0
1, 32685, Note_off_c, 1, 45, 0
1, 32688, Note_on_c, 1, 71, 127
1, 32688, Note_on_c, 1, 73, 127
1, 32688, Note_on_c, 1, 47, 127
1, 32711, Note_off_c, 1, 73, 0
1, 32712, Note_on_c, 1, 74, 127
1, 32733, Note_off_c, 1, 71, 0
1, 32733, Note_off_c, 1, 47, 0
1, 32735, Note_off_c, 1, 74, 0
1, 32736, Note_on_c, 1, 73, 127
1, 32736, Note_on_c, 1, 76, 127
1, 32736, Note_on_c, 1, 45, 127
1, 32781, Note_off_c, 1, 76, 0
1, 32781, Note_off_c, 1, 45, 0
1, 32784, Note_on_c, 1, 78, 127
1, 32784, Note_on_c, 1, 44, 127
1, 32807, Note_off_c, 1, 78, 0
1, 32808, Note_on_c, 1, 80, 127
1, 32829, Note_off_c, 1, 44, 0
1, 32831, Note_off_c, 1, 80, 0
1, 32832, Note_on_c, 1, 81, 127
1, 32832, Note_on_c, 1, 42, 127
1, 32877, Note_off_c, 1, 81, 0
1, 32877, Note_off_c, 1, 42, 0
1, 32880, Note_on_c, 1, 57, 127
1, 32921, Note_off_c, 1, 73, 0
1, 32925, Note_off_c, 1, 57, 0
1, 32928, Note_on_c, 1, 71, 127
1, 32928, Note_on_c, 1, 76, 127
1, 32928, Note_on_c, 1, 56, 127
1, 32973, Note_off_c, 1, 71, 0
1, 32973, Note_off_c, 1, 76, 0
1, 32973, Note_off_c, 1, 56, 0
1, 32976, Note_on_c, 1, 69, 127
1, 32976, Note_on_c, 1, 74, 127
1, 32976, Note_on_c, 1, 54, 127
1, 33021, Note_off_c, 1, 69, 0
1, 33021, Note_off_c, 1, 74, 0
1, 33021, Note_off_c, 1, 54, 0
1, 33024, Note_on_c, 1, 68, 127
1, 33024, Note_on_c, 1, 73, 127
1, 33024, Note_on_c, 1, 52, 127
1, 33069, Note_off_c, 1, 68, 0
1, 33069, Note_off_c, 1, 73, 0
1, 33069, Note_off_c, 1, 52, 0
1, 33072, Note_on_c, 1, 76, 127
1, 33072, Note_on_c, 1, 71, 127
1, 33072, Note_on_c, 1, 50, 127
1, 33117, Note_off_c, 1, 71, 0
1, 33117, Note_off_c, 1, 50, 0
1, 33120, Note_on_c, 1, 69, 127
1, 33120, Note_on_c, 1, 49, 127
1, 33143, Note_off_c, 1, 76, 0
1, 33144, Note_on_c, 1, 80, 127
1, 33165, Note_off_c, 1, 69, 0
1, 33167, Note_off_c, 1, 80, 0
1, 33168, Note_on_c, 1, 78, 127
1, 33168, Note_on_c, 1, 74, 127
1, 33191, Note_off_c, 1, 78, 0
1, 33191, Note_off_c, 1, 74, 0
1, 33192, Note_on_c, 1, 73, 127
1, 33209, Note_off_c, 1, 49, 0
1, 33215, Note_off_c, 1, 73, 0
1, 33216, Note_on_c, 1, 74, 127
1, 33240, Note_on_c, 1, 73, 127
1, 33240, Note_on_c, 1, 47, 127
1, 33261, Note_off_c, 1, 74, 0
1, 33263, Note_off_c, 1, 73, 0
1, 33263, Note_off_c, 1, 47, 0
1, 33264, Note_on_c, 1, 71, 127
1, 33264, Note_on_c, 1, 78, 127
1, 33264, Note_on_c, 1, 49, 127
1, 33287, Note_off_c, 1, 71, 0
1, 33287, Note_off_c, 1, 49, 0
1, 33288, Note_on_c, 1, 69, 127
1, 33288, Note_on_c, 1, 50, 127
1, 33309, Note_off_c, 1, 78, 0
1, 33311, Note_off_c, 1, 69, 0
1, 33311, Note_off_c, 1, 50, 0
1, 33312, Note_on_c, 1, 68, 127
1, 33312, Note_on_c, 1, 71, 127
1, 33312, Note_on_c, 1, 52, 127
1, 33335, Note_off_c, 1, 52, 0
1, 33336, Note_on_c, 1, 50, 127
1, 33357, Note_off_c, 1, 68, 0
1, 33357, Note_off_c, 1, 71, 0
1, 33359, Note_off_c, 1, 50, 0
1, 33360, Note_on_c, 1, 80, 127
1, 33360, Note_on_c, 1, 76, 127
1, 33360, Note_on_c, 1, 49, 127
1, 33383, Note_off_c, 1, 49, 0
1, 33384, Note_on_c, 1, 47, 127
1, 33405, Note_off_c, 1, 76, 0
1, 33407, Note_off_c, 1, 47, 0
1, 33408, Note_on_c, 1, 73, 127
1, 33408, Note_on_c, 1, 45, 127
1, 33431, Note_off_c, 1, 80, 0
1, 33432, Note_on_c, 1, 83, 127
1, 33453, Note_off_c, 1, 73, 0
1, 33455, Note_off_c, 1, 83, 0
1, 33456, Note_on_c, 1, 81, 127
1, 33456, Note_on_c, 1, 78, 127
1, 33479, Note_off_c, 1, 81, 0
1, 33479, Note_off_c, 1, 78, 0
1, 33497, Note_off_c, 1, 45, 0
1, 33504, Note_on_c, 1, 78, 127
1, 33528, Note_on_c, 1, 76, 127
1, 33528, Note_on_c, 1, 61, 127
1, 33549, Note_off_c, 1, 78, 0
1, 33551, Note_off_c, 1, 76, 0
1, 33551, Note_off_c, 1, 61, 0
1, 33552, Note_on_c, 1, 74, 127
1, 33552, Note_on_c, 1, 81, 127
1, 33552, Note_on_c, 1, 59, 127
1, 33575, Note_off_c, 1, 74, 0
1, 33575, Note_off_c, 1, 59, 0
1, 33576, Note_on_c, 1, 73, 127
1, 33576, Note_on_c, 1, 57, 127
1, 33597, Note_off_c, 1, 81, 0
1, 33599, Note_off_c, 1, 73, 0
1, 33599, Note_off_c, 1, 57, 0
1, 33600, Note_on_c, 1, 71, 127
1, 33600, Note_on_c, 1, 75, 127
1, 33600, Note_on_c, 1, 56, 127
1, 33623, Note_off_c, 1, 56, 0
1, 33624, Note_on_c, 1, 54, 127
1, 33645, Note_off_c, 1, 71, 0
1, 33645, Note_off_c, 1, 75, 0
1, 33647, Note_off_c, 1, 54, 0
1, 33648, Note_on_c, 1, 83, 127
1, 33648, Note_on_c, 1, 80, 127
1, 33648, Note_on_c, 1, 52, 127
1, 33671, Note_off_c, 1, 52, 0
1, 33672, Note_on_c, 1, 51, 127
1, 33693, Note_off_c, 1, 80, 0
1, 33695, Note_off_c, 1, 51, 0
1, 33696, Note_on_c, 1, 76, 127
1, 33696, Note_on_c, 1, 56, 127
1, 33719, Note_off_c, 1, 83, 0
1, 33720, Note_on_c, 1, 86, 127
1, 33741, Note_off_c, 1, 76, 0
1, 33743, Note_off_c, 1, 86, 0
1, 33744, Note_on_c, 1, 85, 127
1, 33744, Note_on_c, 1, 81, 127
1, 33767, Note_off_c, 1, 85, 0
1, 33767, Note_off_c, 1, 81, 0
1, 33785, Note_off_c, 1, 56, 0
1, 33792, Note_on_c, 1, 81, 127
1, 33816, Note_on_c, 1, 80, 127
1, 33816, Note_on_c, 1, 54, 127
1, 33837, Note_off_c, 1, 81, 0
1, 33839, Note_off_c, 1, 80, 0
1, 33839, Note_off_c, 1, 54, 0
1, 33840, Note_on_c, 1, 78, 127
1, 33840, Note_on_c, 1, 85, 127
1, 33840, Note_on_c, 1, 56, 127
1, 33863, Note_off_c, 1, 78, 0
1, 33863, Note_off_c, 1, 56, 0
1, 33864, Note_on_c, 1, 76, 127
1, 33864, Note_on_c, 1, 57, 127
1, 33885, Note_off_c, 1, 85, 0
1, 33887, Note_off_c, 1, 76, 0
1, 33887, Note_off_c, 1, 57, 0
1, 33888, Note_on_c, 1, 74, 127
1, 33888, Note_on_c, 1, 78, 127
1, 33888, Note_on_c, 1, 59, 127
1, 33911, Note_off_c, 1, 59, 0
1, 33912, Note_on_c, 1, 57, 127
1, 33933, Note_off_c, 1, 74, 0
1, 33933, Note_off_c, 1, 78, 0
1, 33935, Note_off_c, 1, 57, 0
1, 33936, Note_on_c, 1, 86, 127
1, 33936, Note_on_c, 1, 83, 127
1, 33936, Note_on_c, 1, 56, 127
1, 33959, Note_off_c, 1, 56, 0
1, 33960, Note_on_c, 1, 54, 127
1, 33981, Note_off_c, 1, 86, 0
1, 33981, Note_off_c, 1, 83, 0
1, 33983, Note_off_c, 1, 54, 0
1, 33984, Note_on_c, 1, 86, 127
1, 33984, Note_on_c, 1, 80, 127
1, 33984, Note_on_c, 1, 52, 127
1, 34007, Note_off_c, 1, 80, 0
1, 34008, Note_on_c, 1, 81, 127
1, 34029, Note_off_c, 1, 52, 0
1, 34031, Note_off_c, 1, 81, 0
1, 34032, Note_on_c, 1, 40, 127
1, 34056, Note_on_c, 1, 78, 127
1, 34077, Note_off_c, 1, 40, 0
1, 34079, Note_off_c, 1, 78, 0
1, 34080, Note_on_c, 1, 76, 127
1, 34080, Note_on_c, 1, 44, 127
1, 34103, Note_off_c, 1, 76, 0
1, 34104, Note_on_c, 1, 74, 127
1, 34125, Note_off_c, 1, 44, 0
1, 34127, Note_off_c, 1, 74, 0
1, 34128, Note_on_c, 1, 73, 127
1, 34128, Note_on_c, 1, 47, 127
1, 34151, Note_off_c, 1, 73, 0
1, 34152, Note_on_c, 1, 71, 127
1, 34173, Note_off_c, 1, 47, 0
1, 34175, Note_off_c, 1, 71, 0
1, 34176, Note_on_c, 1, 69, 127
1, 34199, Note_off_c, 1, 69, 0
1, 34200, Note_on_c, 1, 68, 127
1, 34223, Note_off_c, 1, 68, 0
1, 34224, Note_on_c, 1, 66, 127
1, 34224, Note_on_c, 1, 56, 127
1, 34247, Note_off_c, 1, 66, 0
1, 34248, Note_on_c, 1, 64, 127
1, 34249, Note_off_c, 1, 86, 0
1, 34269, Note_off_c, 1, 56, 0
1, 34271, Note_off_c, 1, 64, 0
1, 34272, Note_on_c, 1, 85, 127
1, 34272, Note_on_c, 1, 76, 127
1, 34272, Note_on_c, 1, 57, 127
1, 34317, Note_off_c, 1, 57, 0
1, 34320, Note_on_c, 1, 50, 127
1, 34339, Note_off_c, 1, 85, 0
1, 34339, Note_off_c, 1, 76, 0
1, 34344, Note_on_c, 1, 83, 127
1, 34344, Note_on_c, 1, 78, 127
1, 34365, Note_off_c, 1, 50, 0
1, 34367, Note_off_c, 1, 83, 0
1, 34367, Note_off_c, 1, 78, 0
1, 34368, Note_on_c, 1, 80, 127
1, 34368, Note_on_c, 1, 71, 127
1, 34368, Note_on_c, 1, 52, 127
1, 34380, Note_off_c, 1, 80, 0
1, 34380, Note_off_c, 1, 71, 0
1, 34380, Note_on_c, 1, 81, 127
1, 34380, Note_on_c, 1, 73, 127
1, 34392, Note_off_c, 1, 81, 0
1, 34392, Note_off_c, 1, 73, 0
1, 34457, Note_off_c, 1, 52, 0
1, 34464, Note_on_c, 1, 40, 127
1, 34512, Note_on_c, 1, 69, 127
1, 34553, Note_off_c, 1, 40, 0
1, 34557, Note_off_c, 1, 69, 0
1, 34560, Note_on_c, 1, 81, 127
1, 34560, Note_on_c, 1, 69, 127
1, 34560, Note_on_c, 1, 45, 127
1, 34605, Note_off_c, 1, 81, 0
1, 34605, Note_off_c, 1, 69, 0
1, 34605, Note_off_c, 1, 45, 0
1, 34608, Note_on_c, 1, 69, 127
1, 34608, Note_on_c, 1, 57, 127
1, 34608, Note_on_c, 1, 45, 127
1, 34631, Note_off_c, 1, 69, 0
1, 34631, Note_off_c, 1, 57, 0
1, 34631, Note_off_c, 1, 45, 0
1, 34632, Note_on_c, 1, 71, 127
1, 34632, Note_on_c, 1, 59, 127
1, 34632, Note_on_c, 1, 47, 127
1, 34655, Note_off_c, 1, 71, 0
1, 34655, Note_off_c, 1, 59, 0
1, 34655, Note_off_c, 1, 47, 0
1, 34656, Note_on_c, 1, 73, 127
1, 34656, Note_on_c, 1, 61, 127
1, 34656, Note_on_c, 1, 49, 127
1, 34701, Note_off_c, 1, 73, 0
1, 34701, Note_off_c, 1, 61, 0
1, 34701, Note_off_c, 1, 49, 0
1, 34704, Note_on_c, 1, 73, 127
1, 34704, Note_on_c, 1, 61, 127
1, 34704, Note_on_c, 1, 49, 127
1, 34727, Note_off_c, 1, 73, 0
1, 34727, Note_off_c, 1, 61, 0
1, 34727, Note_off_c, 1, 49, 0
1, 34728, Note_on_c, 1, 74, 127
1, 34728, Note_on_c, 1, 62, 127
1, 34728, Note_on_c, 1, 50, 127
1, 34751, Note_off_c, 1, 74, 0
1, 34751, Note_off_c, 1, 62, 0
1, 34751, Note_off_c, 1, 50, 0
1, 34752, Note_on_c, 1, 76, 127
1, 34752, Note_on_c, 1, 64, 127
1, 34752, Note_on_c, 1, 52, 127
1, 34797, Note_off_c, 1, 76, 0
1, 34797, Note_off_c, 1, 64, 0
1, 34797, Note_off_c, 1, 52, 0
1, 34800, Note_on_c, 1, 78, 127
1, 34800, Note_on_c, 1, 66, 127
1, 34800, Note_on_c, 1, 54, 127
1, 34823, Note_off_c, 1, 78, 0
1, 34823, Note_off_c, 1, 66, 0
1, 34823, Note_off_c, 1, 54, 0
1, 34824, Note_on_c, 1, 80, 127
1, 34824, Note_on_c, 1, 68, 127
1, 34824, Note_on_c, 1, 56, 127
1, 34847, Note_off_c, 1, 80, 0
1, 34847, Note_off_c, 1, 68, 0
1, 34847, Note_off_c, 1, 56, 0
1, 34848, Note_on_c, 1, 81, 127
1, 34848, Note_on_c, 1, 69, 127
1, 34848, Note_on_c, 1, 57, 127
1, 34937, Note_off_c, 1, 81, 0
1, 34937, Note_off_c, 1, 69, 0
1, 34937, Note_off_c, 1, 57, 0
1, 34937, End_track
0, 0, End_of_file