0, 0, Header, 1, 1, 480
1, 0, Start_track
1, 0, Title_t, "Test"
1, 0, Tempo, 500000
1, 0, Instrument_name_t, "Church Organ"
1, 0, Note_on_c, 1, 71, 127
1, 0, Note_on_c, 1, 52, 127
1, 89, Note_off_c, 1, 52, 0
1, 96, Note_on_c, 1, 51, 127
1, 177, Note_off_c, 1, 71, 0
1, 185, Note_off_c, 1, 51, 0
1, 192, Note_on_c, 1, 68, 127
1, 192, Note_on_c, 1, 52, 127
1, 281, Note_off_c, 1, 68, 0
1, 281, Note_off_c, 1, 52, 0
1, 288, Note_on_c, 1, 68, 127
1, 288, Note_on_c, 1, 54, 127
1, 333, Note_off_c, 1, 68, 0
1, 336, Note_on_c, 1, 69, 127
1, 377, Note_off_c, 1, 54, 0
1, 381, Note_off_c, 1, 69, 0
1, 384, Note_on_c, 1, 71, 127
1, 384, Note_on_c, 1, 56, 127
1, 473, Note_off_c, 1, 71, 0
1, 473, Note_off_c, 1, 56, 0
1, 480, Note_on_c, 1, 71, 127
1, 480, Note_on_c, 1, 53, 127
1, 525, Note_off_c, 1, 71, 0
1, 528, Note_on_c, 1, 73, 127
1, 569, Note_off_c, 1, 53, 0
1, 573, Note_off_c, 1, 73, 0
1, 576, Note_on_c, 1, 71, 127
1, 576, Note_on_c, 1, 49, 127
1, 621, Note_off_c, 1, 71, 0
1, 624, Note_on_c, 1, 69, 127
1, 665, Note_off_c, 1, 49, 0
1, 669, Note_off_c, 1, 69, 0
1, 672, Note_on_c, 1, 68, 127
1, 672, Note_on_c, 1, 53, 127
1, 761, Note_off_c, 1, 68, 0
1, 761, Note_off_c, 1, 53, 0
1, 768, Note_on_c, 1, 69, 127
1, 768, Note_on_c, 1, 54, 127
1, 857, Note_off_c, 1, 54, 0
1, 864, Note_on_c, 1, 56, 127
1, 945, Note_off_c, 1, 69, 0
1, 953, Note_off_c, 1, 56, 0
1, 960, Note_on_c, 1, 66, 127
1, 960, Note_on_c, 1, 57, 127
1, 1049, Note_off_c, 1, 66, 0
1, 1049, Note_off_c, 1, 57, 0
1, 1056, Note_on_c, 1, 66, 127
1, 1056, Note_on_c, 1, 56, 127
1, 1101, Note_off_c, 1, 66, 0
1, 1104, Note_on_c, 1, 68, 127
1, 1145, Note_off_c, 1, 56, 0
1, 1149, Note_off_c, 1, 68, 0
1, 1152, Note_on_c, 1, 69, 127
1, 1152, Note_on_c, 1, 54, 127
1, 1197, Note_off_c, 1, 69, 0
1, 1200, Note_on_c, 1, 68, 127
1, 1241, Note_off_c, 1, 54, 0
1, 1245, Note_off_c, 1, 68, 0
1, 1248, Note_on_c, 1, 69, 127
1, 1248, Note_on_c, 1, 51, 127
1, 1293, Note_off_c, 1, 69, 0
1, 1296, Note_on_c, 1, 71, 127
1, 1337, Note_off_c, 1, 51, 0
1, 1341, Note_off_c, 1, 71, 0
1, 1344, Note_on_c, 1, 69, 127
1, 1344, Note_on_c, 1, 47, 127
1, 1389, Note_off_c, 1, 69, 0
1, 1392, Note_on_c, 1, 68, 127
1, 1433, Note_off_c, 1, 47, 0
1, 1437, Note_off_c, 1, 68, 0
1, 1440, Note_on_c, 1, 66, 127
1, 1440, Note_on_c, 1, 51, 127
1, 1485, Note_off_c, 1, 66, 0
1, 1488, Note_on_c, 1, 69, 127
1, 1529, Note_off_c, 1, 51, 0
1, 1533, Note_off_c, 1, 69, 0
1, 1536, Note_on_c, 1, 68, 127
1, 1536, Note_on_c, 1, 52, 127
1, 1581, Note_off_c, 1, 68, 0
1, 1584, Note_on_c, 1, 66, 127
1, 1625, Note_off_c, 1, 52, 0
1, 1629, Note_off_c, 1, 66, 0
1, 1632, Note_on_c, 1, 68, 127
1, 1632, Note_on_c, 1, 56, 127
1, 1677, Note_off_c, 1, 68, 0
1, 1680, Note_on_c, 1, 69, 127
1, 1721, Note_off_c, 1, 56, 0
1, 1725, Note_off_c, 1, 69, 0
1, 1728, Note_on_c, 1, 68, 127
1, 1728, Note_on_c, 1, 61, 127
1, 1773, Note_off_c, 1, 68, 0
1, 1776, Note_on_c, 1, 66, 127
1, 1821, Note_off_c, 1, 66, 0
1, 1824, Note_on_c, 1, 64, 127
1, 1869, Note_off_c, 1, 64, 0
1, 1905, Note_off_c, 1, 61, 0
1, 1920, Note_on_c, 1, 69, 127
1, 1920, Note_on_c, 1, 54, 127
1, 1965, Note_off_c, 1, 69, 0
1, 1968, Note_on_c, 1, 68, 127
1, 2009, Note_off_c, 1, 54, 0
1, 2013, Note_off_c, 1, 68, 0
1, 2016, Note_on_c, 1, 69, 127
1, 2016, Note_on_c, 1, 57, 127
1, 2061, Note_off_c, 1, 69, 0
1, 2064, Note_on_c, 1, 71, 127
1, 2105, Note_off_c, 1, 57, 0
1, 2109, Note_off_c, 1, 71, 0
1, 2112, Note_on_c, 1, 69, 127
1, 2112, Note_on_c, 1, 63, 127
1, 2157, Note_off_c, 1, 69, 0
1, 2160, Note_on_c, 1, 68, 127
1, 2205, Note_off_c, 1, 68, 0
1, 2208, Note_on_c, 1, 66, 127
1, 2253, Note_off_c, 1, 66, 0
1, 2289, Note_off_c, 1, 63, 0
1, 2304, Note_on_c, 1, 71, 127
1, 2304, Note_on_c, 1, 56, 127
1, 2349, Note_off_c, 1, 71, 0
1, 2352, Note_on_c, 1, 69, 127
1, 2393, Note_off_c, 1, 56, 0
1, 2397, Note_off_c, 1, 69, 0
1, 2400, Note_on_c, 1, 71, 127
1, 2400, Note_on_c, 1, 59, 127
1, 2445, Note_off_c, 1, 71, 0
1, 2448, Note_on_c, 1, 73, 127
1, 2489, Note_off_c, 1, 59, 0
1, 2493, Note_off_c, 1, 73, 0
1, 2496, Note_on_c, 1, 71, 127
1, 2496, Note_on_c, 1, 64, 127
1, 2541, Note_off_c, 1, 71, 0
1, 2544, Note_on_c, 1, 69, 127
1, 2585, Note_off_c, 1, 64, 0
1, 2589, Note_off_c, 1, 69, 0
1, 2592, Note_on_c, 1, 68, 127
1, 2592, Note_on_c, 1, 57, 127
1, 2637, Note_off_c, 1, 68, 0
1, 2640, Note_on_c, 1, 69, 127
1, 2681, Note_off_c, 1, 57, 0
1, 2685, Note_off_c, 1, 69, 0
1, 2688, Note_on_c, 1, 66, 127
1, 2688, Note_on_c, 1, 59, 127
1, 2777, Note_off_c, 1, 66, 0
1, 2777, Note_off_c, 1, 59, 0
1, 2784, Note_on_c, 1, 68, 127
1, 2784, Note_on_c, 1, 64, 127
1, 2829, Note_off_c, 1, 68, 0
1, 2832, Note_on_c, 1, 70, 127
1, 2873, Note_off_c, 1, 64, 0
1, 2877, Note_off_c, 1, 70, 0
1, 2880, Note_on_c, 1, 71, 127
1, 2880, Note_on_c, 1, 63, 127
1, 2925, Note_off_c, 1, 71, 0
1, 2928, Note_on_c, 1, 73, 127
1, 2969, Note_off_c, 1, 63, 0
1, 2973, Note_off_c, 1, 73, 0
1, 2976, Note_on_c, 1, 75, 127
1, 2976, Note_on_c, 1, 61, 127
1, 3021, Note_off_c, 1, 75, 0
1, 3024, Note_on_c, 1, 76, 127
1, 3065, Note_off_c, 1, 61, 0
1, 3069, Note_off_c, 1, 76, 0
1, 3072, Note_on_c, 1, 75, 127
1, 3072, Note_on_c, 1, 59, 127
1, 3117, Note_off_c, 1, 75, 0
1, 3120, Note_on_c, 1, 76, 127
1, 3161, Note_off_c, 1, 59, 0
1, 3165, Note_off_c, 1, 76, 0
1, 3168, Note_on_c, 1, 78, 127
1, 3168, Note_on_c, 1, 58, 127
1, 3257, Note_off_c, 1, 78, 0
1, 3257, Note_off_c, 1, 58, 0
1, 3264, Note_on_c, 1, 78, 127
1, 3264, Note_on_c, 1, 59, 127
1, 3353, Note_off_c, 1, 59, 0
1, 3360, Note_on_c, 1, 61, 127
1, 3441, Note_off_c, 1, 78, 0
1, 3449, Note_off_c, 1, 61, 0
1, 3456, Note_on_c, 1, 78, 127
1, 3456, Note_on_c, 1, 72, 127
1, 3456, Note_on_c, 1, 63, 127
1, 3501, Note_off_c, 1, 72, 0
1, 3504, Note_on_c, 1, 73, 127
1, 3545, Note_off_c, 1, 78, 0
1, 3545, Note_off_c, 1, 63, 0
1, 3549, Note_off_c, 1, 73, 0
1, 3552, Note_on_c, 1, 78, 127
1, 3552, Note_on_c, 1, 75, 127
1, 3552, Note_on_c, 1, 60, 127
1, 3597, Note_off_c, 1, 78, 0
1, 3600, Note_on_c, 1, 80, 127
1, 3641, Note_off_c, 1, 75, 0
1, 3641, Note_off_c, 1, 60, 0
1, 3645, Note_off_c, 1, 80, 0
1, 3648, Note_on_c, 1, 78, 127
1, 3648, Note_on_c, 1, 75, 127
1, 3648, Note_on_c, 1, 56, 127
1, 3693, Note_off_c, 1, 78, 0
1, 3696, Note_on_c, 1, 76, 127
1, 3737, Note_off_c, 1, 56, 0
1, 3741, Note_off_c, 1, 76, 0
1, 3744, Note_on_c, 1, 60, 127
1, 3833, Note_off_c, 1, 75, 0
1, 3833, Note_off_c, 1, 60, 0
1, 3840, Note_on_c, 1, 76, 127
1, 3840, Note_on_c, 1, 73, 127
1, 3840, Note_on_c, 1, 61, 127
1, 3885, Note_off_c, 1, 73, 0
1, 3888, Note_on_c, 1, 75, 127
1, 3929, Note_off_c, 1, 61, 0
1, 3933, Note_off_c, 1, 75, 0
1, 3936, Note_on_c, 1, 59, 127
1, 4025, Note_off_c, 1, 76, 0
1, 4025, Note_off_c, 1, 59, 0
1, 4032, Note_on_c, 1, 73, 127
1, 4032, Note_on_c, 1, 76, 127
1, 4032, Note_on_c, 1, 58, 127
1, 4121, Note_off_c, 1, 73, 0
1, 4121, Note_off_c, 1, 58, 0
1, 4128, Note_on_c, 1, 56, 127
1, 4176, Note_on_c, 1, 75, 127
1, 4209, Note_off_c, 1, 76, 0
1, 4217, Note_off_c, 1, 56, 0
1, 4221, Note_off_c, 1, 75, 0
1, 4224, Note_on_c, 1, 76, 127
1, 4224, Note_on_c, 1, 70, 127
1, 4224, Note_on_c, 1, 54, 127
1, 4269, Note_off_c, 1, 76, 0
1, 4269, Note_off_c, 1, 70, 0
1, 4272, Note_on_c, 1, 75, 127
1, 4272, Note_on_c, 1, 71, 127
1, 4313, Note_off_c, 1, 54, 0
1, 4317, Note_off_c, 1, 75, 0
1, 4317, Note_off_c, 1, 71, 0
1, 4320, Note_on_c, 1, 76, 127
1, 4320, Note_on_c, 1, 73, 127
1, 4320, Note_on_c, 1, 58, 127
1, 4365, Note_off_c, 1, 76, 0
1, 4368, Note_on_c, 1, 78, 127
1, 4409, Note_off_c, 1, 73, 0
1, 4409, Note_off_c, 1, 58, 0
1, 4413, Note_off_c, 1, 78, 0
1, 4416, Note_on_c, 1, 76, 127
1, 4416, Note_on_c, 1, 73, 127
1, 4416, Note_on_c, 1, 54, 127
1, 4461, Note_off_c, 1, 76, 0
1, 4464, Note_on_c, 1, 75, 127
1, 4505, Note_off_c, 1, 54, 0
1, 4509, Note_off_c, 1, 75, 0
1, 4512, Note_on_c, 1, 58, 127
1, 4601, Note_off_c, 1, 58, 0
1, 4608, Note_on_c, 1, 47, 127
1, 4697, Note_off_c, 1, 47, 0
1, 4701, Note_off_c, 1, 73, 0
1, 4704, Note_on_c, 1, 75, 127
1, 4704, Note_on_c, 1, 71, 127
1, 4704, Note_on_c, 1, 51, 127
1, 4749, Note_off_c, 1, 75, 0
1, 4749, Note_off_c, 1, 71, 0
1, 4752, Note_on_c, 1, 76, 127
1, 4752, Note_on_c, 1, 70, 127
1, 4793, Note_off_c, 1, 51, 0
1, 4797, Note_off_c, 1, 76, 0
1, 4797, Note_off_c, 1, 70, 0
1, 4800, Note_on_c, 1, 75, 127
1, 4800, Note_on_c, 1, 71, 127
1, 4800, Note_on_c, 1, 56, 127
1, 4845, Note_off_c, 1, 75, 0
1, 4848, Note_on_c, 1, 73, 127
1, 4889, Note_off_c, 1, 71, 0
1, 4893, Note_off_c, 1, 73, 0
1, 4977, Note_off_c, 1, 56, 0
1, 4992, Note_on_c, 1, 76, 127
1, 4992, Note_on_c, 1, 49, 127
1, 5037, Note_off_c, 1, 76, 0
1, 5081, Note_off_c, 1, 49, 0
1, 5088, Note_on_c, 1, 76, 127
1, 5088, Note_on_c, 1, 73, 127
1, 5088, Note_on_c, 1, 52, 127
1, 5133, Note_off_c, 1, 76, 0
1, 5133, Note_off_c, 1, 73, 0
1, 5136, Note_on_c, 1, 78, 127
1, 5136, Note_on_c, 1, 71, 127
1, 5177, Note_off_c, 1, 52, 0
1, 5181, Note_off_c, 1, 78, 0
1, 5181, Note_off_c, 1, 71, 0
1, 5184, Note_on_c, 1, 76, 127
1, 5184, Note_on_c, 1, 73, 127
1, 5184, Note_on_c, 1, 58, 127
1, 5229, Note_off_c, 1, 76, 0
1, 5232, Note_on_c, 1, 75, 127
1, 5273, Note_off_c, 1, 73, 0
1, 5277, Note_off_c, 1, 75, 0
1, 5361, Note_off_c, 1, 58, 0
1, 5376, Note_on_c, 1, 78, 127
1, 5376, Note_on_c, 1, 51, 127
1, 5421, Note_off_c, 1, 78, 0
1, 5465, Note_off_c, 1, 51, 0
1, 5472, Note_on_c, 1, 78, 127
1, 5472, Note_on_c, 1, 75, 127
1, 5472, Note_on_c, 1, 54, 127
1, 5517, Note_off_c, 1, 78, 0
1, 5517, Note_off_c, 1, 75, 0
1, 5520, Note_on_c, 1, 80, 127
1, 5520, Note_on_c, 1, 73, 127
1, 5561, Note_off_c, 1, 54, 0
1, 5565, Note_off_c, 1, 80, 0
1, 5565, Note_off_c, 1, 73, 0
1, 5568, Note_on_c, 1, 78, 127
1, 5568, Note_on_c, 1, 75, 127
1, 5568, Note_on_c, 1, 59, 127
1, 5613, Note_off_c, 1, 78, 0
1, 5613, Note_off_c, 1, 75, 0
1, 5616, Note_on_c, 1, 76, 127
1, 5616, Note_on_c, 1, 73, 127
1, 5657, Note_off_c, 1, 59, 0
1, 5661, Note_off_c, 1, 76, 0
1, 5661, Note_off_c, 1, 73, 0
1, 5664, Note_on_c, 1, 75, 127
1, 5664, Note_on_c, 1, 71, 127
1, 5664, Note_on_c, 1, 52, 127
1, 5709, Note_off_c, 1, 75, 0
1, 5709, Note_off_c, 1, 71, 0
1, 5712, Note_on_c, 1, 76, 127
1, 5712, Note_on_c, 1, 73, 127
1, 5753, Note_off_c, 1, 52, 0
1, 5757, Note_off_c, 1, 76, 0
1, 5757, Note_off_c, 1, 73, 0
1, 5760, Note_on_c, 1, 73, 127
1, 5760, Note_on_c, 1, 70, 127
1, 5760, Note_on_c, 1, 54, 127
1, 5805, Note_off_c, 1, 70, 0
1, 5808, Note_on_c, 1, 68, 127
1, 5849, Note_off_c, 1, 73, 0
1, 5849, Note_off_c, 1, 54, 0
1, 5853, Note_off_c, 1, 68, 0
1, 5856, Note_on_c, 1, 66, 127
1, 5856, Note_on_c, 1, 70, 127
1, 5901, Note_off_c, 1, 70, 0
1, 5904, Note_on_c, 1, 68, 127
1, 5904, Note_on_c, 1, 71, 127
1, 5945, Note_off_c, 1, 66, 0
1, 5949, Note_off_c, 1, 68, 0
1, 5949, Note_off_c, 1, 71, 0
1, 5952, Note_on_c, 1, 70, 127
1, 5952, Note_on_c, 1, 73, 127
1, 5952, Note_on_c, 1, 64, 127
1, 5997, Note_off_c, 1, 70, 0
1, 5997, Note_off_c, 1, 73, 0
1, 6000, Note_on_c, 1, 71, 127
1, 6000, Note_on_c, 1, 75, 127
1, 6041, Note_off_c, 1, 64, 0
1, 6045, Note_off_c, 1, 71, 0
1, 6045, Note_off_c, 1, 75, 0
1, 6048, Note_on_c, 1, 73, 127
1, 6048, Note_on_c, 1, 76, 127
1, 6048, Note_on_c, 1, 63, 127
1, 6093, Note_off_c, 1, 73, 0
1, 6093, Note_off_c, 1, 76, 0
1, 6096, Note_on_c, 1, 75, 127
1, 6096, Note_on_c, 1, 78, 127
1, 6137, Note_off_c, 1, 63, 0
1, 6141, Note_off_c, 1, 75, 0
1, 6141, Note_off_c, 1, 78, 0
1, 6144, Note_on_c, 1, 76, 127
1, 6144, Note_on_c, 1, 80, 127
1, 6144, Note_on_c, 1, 61, 127
1, 6189, Note_off_c, 1, 76, 0
1, 6189, Note_off_c, 1, 80, 0
1, 6192, Note_on_c, 1, 78, 127
1, 6192, Note_on_c, 1, 81, 127
1, 6233, Note_off_c, 1, 61, 0
1, 6237, Note_off_c, 1, 78, 0
1, 6237, Note_off_c, 1, 81, 0
1, 6240, Note_on_c, 1, 80, 127
1, 6240, Note_on_c, 1, 64, 127
1, 6285, Note_off_c, 1, 64, 0
1, 6288, Note_on_c, 1, 78, 127
1, 6288, Note_on_c, 1, 63, 127
1, 6329, Note_off_c, 1, 80, 0
1, 6333, Note_off_c, 1, 78, 0
1, 6333, Note_off_c, 1, 63, 0
1, 6336, Note_on_c, 1, 80, 127
1, 6336, Note_on_c, 1, 76, 127
1, 6336, Note_on_c, 1, 61, 127
1, 6381, Note_off_c, 1, 76, 0
1, 6381, Note_off_c, 1, 61, 0
1, 6384, Note_on_c, 1, 75, 127
1, 6384, Note_on_c, 1, 63, 127
1, 6429, Note_off_c, 1, 75, 0
1, 6429, Note_off_c, 1, 63, 0
1, 6432, Note_on_c, 1, 73, 127
1, 6432, Note_on_c, 1, 64, 127
1, 6477, Note_off_c, 1, 73, 0
1, 6480, Note_on_c, 1, 71, 127
1, 6513, Note_off_c, 1, 80, 0
1, 6521, Note_off_c, 1, 64, 0
1, 6525, Note_off_c, 1, 71, 0
1, 6528, Note_on_c, 1, 73, 127
1, 6528, Note_on_c, 1, 70, 127
1, 6528, Note_on_c, 1, 64, 127
1, 6573, Note_off_c, 1, 73, 0
1, 6573, Note_off_c, 1, 70, 0
1, 6576, Note_on_c, 1, 75, 127
1, 6576, Note_on_c, 1, 68, 127
1, 6617, Note_off_c, 1, 64, 0
1, 6621, Note_off_c, 1, 75, 0
1, 6621, Note_off_c, 1, 68, 0
1, 6624, Note_on_c, 1, 76, 127
1, 6624, Note_on_c, 1, 66, 127
1, 6624, Note_on_c, 1, 58, 127
1, 6669, Note_off_c, 1, 66, 0
1, 6672, Note_on_c, 1, 68, 127
1, 6713, Note_off_c, 1, 76, 0
1, 6713, Note_off_c, 1, 58, 0
1, 6717, Note_off_c, 1, 68, 0
1, 6720, Note_on_c, 1, 76, 127
1, 6720, Note_on_c, 1, 70, 127
1, 6720, Note_on_c, 1, 54, 127
1, 6765, Note_off_c, 1, 70, 0
1, 6768, Note_on_c, 1, 73, 127
1, 6809, Note_off_c, 1, 54, 0
1, 6813, Note_off_c, 1, 73, 0
1, 6816, Note_on_c, 1, 75, 127
1, 6816, Note_on_c, 1, 58, 127
1, 6861, Note_off_c, 1, 75, 0
1, 6905, Note_off_c, 1, 58, 0
1, 6909, Note_off_c, 1, 76, 0
1, 6912, Note_on_c, 1, 75, 127
1, 6912, Note_on_c, 1, 78, 127
1, 6912, Note_on_c, 1, 47, 127
1, 6957, Note_off_c, 1, 75, 0
1, 6957, Note_off_c, 1, 78, 0
1, 6960, Note_on_c, 1, 76, 127
1, 6960, Note_on_c, 1, 80, 127
1, 7001, Note_off_c, 1, 47, 0
1, 7005, Note_off_c, 1, 76, 0
1, 7005, Note_off_c, 1, 80, 0
1, 7008, Note_on_c, 1, 78, 127
1, 7008, Note_on_c, 1, 51, 127
1, 7053, Note_off_c, 1, 51, 0
1, 7056, Note_on_c, 1, 76, 127
1, 7056, Note_on_c, 1, 49, 127
1, 7097, Note_off_c, 1, 78, 0
1, 7101, Note_off_c, 1, 76, 0
1, 7101, Note_off_c, 1, 49, 0
1, 7104, Note_on_c, 1, 78, 127
1, 7104, Note_on_c, 1, 75, 127
1, 7104, Note_on_c, 1, 47, 127
1, 7149, Note_off_c, 1, 75, 0
1, 7149, Note_off_c, 1, 47, 0
1, 7152, Note_on_c, 1, 73, 127
1, 7152, Note_on_c, 1, 49, 127
1, 7197, Note_off_c, 1, 73, 0
1, 7197, Note_off_c, 1, 49, 0
1, 7200, Note_on_c, 1, 71, 127
1, 7200, Note_on_c, 1, 51, 127
1, 7245, Note_off_c, 1, 71, 0
1, 7248, Note_on_c, 1, 69, 127
1, 7281, Note_off_c, 1, 78, 0
1, 7289, Note_off_c, 1, 51, 0
1, 7293, Note_off_c, 1, 69, 0
1, 7296, Note_on_c, 1, 71, 127
1, 7296, Note_on_c, 1, 68, 127
1, 7296, Note_on_c, 1, 51, 127
1, 7341, Note_off_c, 1, 71, 0
1, 7341, Note_off_c, 1, 68, 0
1, 7344, Note_on_c, 1, 73, 127
1, 7344, Note_on_c, 1, 66, 127
1, 7385, Note_off_c, 1, 51, 0
1, 7389, Note_off_c, 1, 73, 0
1, 7389, Note_off_c, 1, 66, 0
1, 7392, Note_on_c, 1, 75, 127
1, 7392, Note_on_c, 1, 64, 127
1, 7392, Note_on_c, 1, 44, 127
1, 7437, Note_off_c, 1, 64, 0
1, 7440, Note_on_c, 1, 66, 127
1, 7481, Note_off_c, 1, 75, 0
1, 7481, Note_off_c, 1, 44, 0
1, 7485, Note_off_c, 1, 66, 0
1, 7488, Note_on_c, 1, 75, 127
1, 7488, Note_on_c, 1, 68, 127
1, 7488, Note_on_c, 1, 40, 127
1, 7533, Note_off_c, 1, 68, 0
1, 7536, Note_on_c, 1, 71, 127
1, 7577, Note_off_c, 1, 40, 0
1, 7581, Note_off_c, 1, 71, 0
1, 7584, Note_on_c, 1, 73, 127
1, 7584, Note_on_c, 1, 44, 127
1, 7629, Note_off_c, 1, 73, 0
1, 7673, Note_off_c, 1, 44, 0
1, 7680, Note_on_c, 1, 76, 127
1, 7680, Note_on_c, 1, 49, 127
1, 7725, Note_off_c, 1, 76, 0
1, 7728, Note_on_c, 1, 78, 127
1, 7769, Note_off_c, 1, 75, 0
1, 7769, Note_off_c, 1, 49, 0
1, 7773, Note_off_c, 1, 78, 0
1, 7776, Note_on_c, 1, 73, 127
1, 7776, Note_on_c, 1, 80, 127
1, 7776, Note_on_c, 1, 51, 127
1, 7821, Note_off_c, 1, 73, 0
1, 7824, Note_on_c, 1, 71, 127
1, 7865, Note_off_c, 1, 80, 0
1, 7865, Note_off_c, 1, 51, 0
1, 7869, Note_off_c, 1, 71, 0
1, 7872, Note_on_c, 1, 73, 127
1, 7872, Note_on_c, 1, 80, 127
1, 7872, Note_on_c, 1, 52, 127
1, 7917, Note_off_c, 1, 73, 0
1, 7920, Note_on_c, 1, 75, 127
1, 7961, Note_off_c, 1, 52, 0
1, 7965, Note_off_c, 1, 75, 0
1, 7968, Note_on_c, 1, 76, 127
1, 7968, Note_on_c, 1, 49, 127
1, 8057, Note_off_c, 1, 76, 0
1, 8057, Note_off_c, 1, 49, 0
1, 8064, Note_on_c, 1, 70, 127
1, 8064, Note_on_c, 1, 54, 127
1, 8109, Note_off_c, 1, 80, 0
1, 8153, Note_off_c, 1, 70, 0
1, 8153, Note_off_c, 1, 54, 0
1, 8160, Note_on_c, 1, 68, 127
1, 8160, Note_on_c, 1, 75, 127
1, 8160, Note_on_c, 1, 59, 127
1, 8205, Note_off_c, 1, 68, 0
1, 8205, Note_off_c, 1, 75, 0
1, 8208, Note_on_c, 1, 66, 127
1, 8208, Note_on_c, 1, 76, 127
1, 8249, Note_off_c, 1, 59, 0
1, 8253, Note_off_c, 1, 66, 0
1, 8253, Note_off_c, 1, 76, 0
1, 8256, Note_on_c, 1, 78, 127
1, 8256, Note_on_c, 1, 75, 127
1, 8256, Note_on_c, 1, 58, 127
1, 8301, Note_off_c, 1, 75, 0
1, 8304, Note_on_c, 1, 73, 127
1, 8345, Note_off_c, 1, 78, 0
1, 8345, Note_off_c, 1, 58, 0
1, 8349, Note_off_c, 1, 73, 0
1, 8352, Note_on_c, 1, 76, 127
1, 8352, Note_on_c, 1, 71, 127
1, 8352, Note_on_c, 1, 54, 127
1, 8397, Note_off_c, 1, 71, 0
1, 8400, Note_on_c, 1, 70, 127
1, 8441, Note_off_c, 1, 76, 0
1, 8441, Note_off_c, 1, 54, 0
1, 8445, Note_off_c, 1, 70, 0
1, 8448, Note_on_c, 1, 75, 127
1, 8448, Note_on_c, 1, 71, 127
1, 8448, Note_on_c, 1, 56, 127
1, 8493, Note_off_c, 1, 75, 0
1, 8496, Note_on_c, 1, 76, 127
1, 8537, Note_off_c, 1, 56, 0
1, 8541, Note_off_c, 1, 76, 0
1, 8544, Note_on_c, 1, 78, 127
1, 8544, Note_on_c, 1, 52, 127
1, 8581, Note_off_c, 1, 71, 0
1, 8589, Note_off_c, 1, 78, 0
1, 8592, Note_on_c, 1, 73, 127
1, 8633, Note_off_c, 1, 52, 0
1, 8637, Note_off_c, 1, 73, 0
1, 8640, Note_on_c, 1, 76, 127
1, 8640, Note_on_c, 1, 70, 127
1, 8640, Note_on_c, 1, 54, 127
1, 8685, Note_off_c, 1, 76, 0
1, 8688, Note_on_c, 1, 75, 127
1, 8729, Note_off_c, 1, 54, 0
1, 8733, Note_off_c, 1, 75, 0
1, 8736, Note_on_c, 1, 42, 127
1, 8773, Note_off_c, 1, 70, 0
1, 8784, Note_on_c, 1, 73, 127
1, 8784, Note_on_c, 1, 71, 127
1, 8825, Note_off_c, 1, 42, 0
1, 8829, Note_off_c, 1, 73, 0
1, 8829, Note_off_c, 1, 71, 0
1, 8832, Note_on_c, 1, 71, 127
1, 8832, Note_on_c, 1, 47, 127
1, 8877, Note_off_c, 1, 47, 0
1, 8880, Note_on_c, 1, 49, 127
1, 8925, Note_off_c, 1, 49, 0
1, 8928, Note_on_c, 1, 51, 127
1, 8973, Note_off_c, 1, 51, 0
1, 8976, Note_on_c, 1, 52, 127
1, 9009, Note_off_c, 1, 71, 0
1, 9021, Note_off_c, 1, 52, 0
1, 9024, Note_on_c, 1, 66, 127
1, 9024, Note_on_c, 1, 51, 127
1, 9069, Note_off_c, 1, 51, 0
1, 9072, Note_on_c, 1, 49, 127
1, 9113, Note_off_c, 1, 66, 0
1, 9117, Note_off_c, 1, 49, 0
1, 9120, Note_on_c, 1, 66, 127
1, 9120, Note_on_c, 1, 47, 127
1, 9165, Note_off_c, 1, 66, 0
1, 9165, Note_off_c, 1, 47, 0
1, 9168, Note_on_c, 1, 68, 127
1, 9168, Note_on_c, 1, 51, 127
1, 9213, Note_off_c, 1, 68, 0
1, 9213, Note_off_c, 1, 51, 0
1, 9216, Note_on_c, 1, 69, 127
1, 9216, Note_on_c, 1, 49, 127
1, 9261, Note_off_c, 1, 49, 0
1, 9264, Note_on_c, 1, 47, 127
1, 9305, Note_off_c, 1, 69, 0
1, 9309, Note_off_c, 1, 47, 0
1, 9312, Note_on_c, 1, 69, 127
1, 9312, Note_on_c, 1, 49, 127
1, 9357, Note_off_c, 1, 69, 0
1, 9357, Note_off_c, 1, 49, 0
1, 9360, Note_on_c, 1, 71, 127
1, 9360, Note_on_c, 1, 51, 127
1, 9405, Note_off_c, 1, 71, 0
1, 9405, Note_off_c, 1, 51, 0
1, 9408, Note_on_c, 1, 69, 127
1, 9408, Note_on_c, 1, 49, 127
1, 9453, Note_off_c, 1, 69, 0
1, 9453, Note_off_c, 1, 49, 0
1, 9456, Note_on_c, 1, 68, 127
1, 9456, Note_on_c, 1, 52, 127
1, 9501, Note_off_c, 1, 68, 0
1, 9501, Note_off_c, 1, 52, 0
1, 9504, Note_on_c, 1, 66, 127
1, 9504, Note_on_c, 1, 51, 127
1, 9549, Note_off_c, 1, 51, 0
1, 9552, Note_on_c, 1, 54, 127
1, 9593, Note_off_c, 1, 66, 0
1, 9597, Note_off_c, 1, 54, 0
1, 9600, Note_on_c, 1, 76, 127
1, 9600, Note_on_c, 1, 68, 127
1, 9600, Note_on_c, 1, 52, 127
1, 9645, Note_off_c, 1, 68, 0
1, 9645, Note_off_c, 1, 52, 0
1, 9648, Note_on_c, 1, 69, 127
1, 9648, Note_on_c, 1, 54, 127
1, 9693, Note_off_c, 1, 69, 0
1, 9693, Note_off_c, 1, 54, 0
1, 9696, Note_on_c, 1, 71, 127
1, 9696, Note_on_c, 1, 56, 127
1, 9741, Note_off_c, 1, 56, 0
1, 9744, Note_on_c, 1, 57, 127
1, 9777, Note_off_c, 1, 76, 0
1, 9785, Note_off_c, 1, 71, 0
1, 9789, Note_off_c, 1, 57, 0
1, 9792, Note_on_c, 1, 71, 127
1, 9792, Note_on_c, 1, 56, 127
1, 9837, Note_off_c, 1, 56, 0
1, 9840, Note_on_c, 1, 54, 127
1, 9885, Note_off_c, 1, 54, 0
1, 9888, Note_on_c, 1, 52, 127
1, 9933, Note_off_c, 1, 52, 0
1, 9936, Note_on_c, 1, 73, 127
1, 9969, Note_off_c, 1, 71, 0
1, 9981, Note_off_c, 1, 73, 0
1, 9984, Note_on_c, 1, 74, 127
1, 9984, Note_on_c, 1, 54, 127
1, 10029, Note_off_c, 1, 54, 0
1, 10032, Note_on_c, 1, 52, 127
1, 10073, Note_off_c, 1, 74, 0
1, 10077, Note_off_c, 1, 52, 0
1, 10080, Note_on_c, 1, 74, 127
1, 10080, Note_on_c, 1, 69, 127
1, 10080, Note_on_c, 1, 54, 127
1, 10125, Note_off_c, 1, 74, 0
1, 10125, Note_off_c, 1, 69, 0
1, 10125, Note_off_c, 1, 54, 0
1, 10128, Note_on_c, 1, 76, 127
1, 10128, Note_on_c, 1, 68, 127
1, 10128, Note_on_c, 1, 56, 127
1, 10173, Note_off_c, 1, 76, 0
1, 10173, Note_off_c, 1, 68, 0
1, 10173, Note_off_c, 1, 56, 0
1, 10176, Note_on_c, 1, 74, 127
1, 10176, Note_on_c, 1, 69, 127
1, 10176, Note_on_c, 1, 54, 127
1, 10221, Note_off_c, 1, 74, 0
1, 10221, Note_off_c, 1, 54, 0
1, 10224, Note_on_c, 1, 73, 127
1, 10224, Note_on_c, 1, 57, 127
1, 10265, Note_off_c, 1, 69, 0
1, 10269, Note_off_c, 1, 73, 0
1, 10269, Note_off_c, 1, 57, 0
1, 10272, Note_on_c, 1, 71, 127
1, 10272, Note_on_c, 1, 56, 127
1, 10317, Note_off_c, 1, 56, 0
1, 10320, Note_on_c, 1, 59, 127
1, 10365, Note_off_c, 1, 59, 0
1, 10368, Note_on_c, 1, 73, 127
1, 10368, Note_on_c, 1, 57, 127
1, 10413, Note_off_c, 1, 73, 0
1, 10413, Note_off_c, 1, 57, 0
1, 10461, Note_off_c, 1, 71, 0
1, 10464, Note_on_c, 1, 73, 127
1, 10464, Note_on_c, 1, 64, 127
1, 10464, Note_on_c, 1, 57, 127
1, 10509, Note_off_c, 1, 73, 0
1, 10509, Note_off_c, 1, 57, 0
1, 10512, Note_on_c, 1, 74, 127
1, 10512, Note_on_c, 1, 59, 127
1, 10553, Note_off_c, 1, 64, 0
1, 10557, Note_off_c, 1, 74, 0
1, 10557, Note_off_c, 1, 59, 0
1, 10560, Note_on_c, 1, 73, 127
1, 10560, Note_on_c, 1, 69, 127
1, 10560, Note_on_c, 1, 57, 127
1, 10605, Note_off_c, 1, 73, 0
1, 10605, Note_off_c, 1, 57, 0
1, 10608, Note_on_c, 1, 71, 127
1, 10608, Note_on_c, 1, 56, 127
1, 10653, Note_off_c, 1, 71, 0
1, 10653, Note_off_c, 1, 56, 0
1, 10656, Note_on_c, 1, 54, 127
1, 10701, Note_off_c, 1, 54, 0
1, 10704, Note_on_c, 1, 52, 127
1, 10737, Note_off_c, 1, 69, 0
1, 10749, Note_off_c, 1, 52, 0
1, 10752, Note_on_c, 1, 71, 127
1, 10752, Note_on_c, 1, 69, 127
1, 10752, Note_on_c, 1, 51, 127
1, 10797, Note_off_c, 1, 71, 0
1, 10841, Note_off_c, 1, 51, 0
1, 10845, Note_off_c, 1, 69, 0
1, 10848, Note_on_c, 1, 71, 127
1, 10848, Note_on_c, 1, 68, 127
1, 10848, Note_on_c, 1, 47, 127
1, 10893, Note_off_c, 1, 71, 0
1, 10893, Note_off_c, 1, 68, 0
1, 10896, Note_on_c, 1, 73, 127
1, 10896, Note_on_c, 1, 66, 127
1, 10937, Note_off_c, 1, 47, 0
1, 10941, Note_off_c, 1, 73, 0
1, 10941, Note_off_c, 1, 66, 0
1, 10944, Note_on_c, 1, 71, 127
1, 10944, Note_on_c, 1, 68, 127
1, 10944, Note_on_c, 1, 52, 127
1, 10989, Note_off_c, 1, 71, 0
1, 10992, Note_on_c, 1, 69, 127
1, 11033, Note_off_c, 1, 68, 0
1, 11033, Note_off_c, 1, 52, 0
1, 11037, Note_off_c, 1, 69, 0
1, 11040, Note_on_c, 1, 68, 127
1, 11040, Note_on_c, 1, 71, 127
1, 11040, Note_on_c, 1, 51, 127
1, 11085, Note_off_c, 1, 68, 0
1, 11129, Note_off_c, 1, 51, 0
1, 11133, Note_off_c, 1, 71, 0
1, 11136, Note_on_c, 1, 69, 127
1, 11136, Note_on_c, 1, 76, 127
1, 11136, Note_on_c, 1, 49, 127
1, 11181, Note_off_c, 1, 69, 0
1, 11181, Note_off_c, 1, 76, 0
1, 11181, Note_off_c, 1, 49, 0
1, 11184, Note_on_c, 1, 68, 127
1, 11184, Note_on_c, 1, 80, 127
1, 11184, Note_on_c, 1, 47, 127
1, 11229, Note_off_c, 1, 68, 0
1, 11229, Note_off_c, 1, 80, 0
1, 11229, Note_off_c, 1, 47, 0
1, 11232, Note_on_c, 1, 69, 127
1, 11232, Note_on_c, 1, 78, 127
1, 11232, Note_on_c, 1, 45, 127
1, 11277, Note_off_c, 1, 69, 0
1, 11277, Note_off_c, 1, 78, 0
1, 11277, Note_off_c, 1, 45, 0
1, 11280, Note_on_c, 1, 71, 127
1, 11280, Note_on_c, 1, 80, 127
1, 11280, Note_on_c, 1, 44, 127
1, 11325, Note_off_c, 1, 71, 0
1, 11325, Note_off_c, 1, 80, 0
1, 11325, Note_off_c, 1, 44, 0
1, 11328, Note_on_c, 1, 73, 127
1, 11328, Note_on_c, 1, 81, 127
1, 11328, Note_on_c, 1, 42, 127
1, 11373, Note_off_c, 1, 73, 0
1, 11373, Note_off_c, 1, 81, 0
1, 11373, Note_off_c, 1, 42, 0
1, 11376, Note_on_c, 1, 71, 127
1, 11376, Note_on_c, 1, 80, 127
1, 11376, Note_on_c, 1, 44, 127
1, 11421, Note_off_c, 1, 71, 0
1, 11421, Note_off_c, 1, 80, 0
1, 11421, Note_off_c, 1, 44, 0
1, 11424, Note_on_c, 1, 69, 127
1, 11424, Note_on_c, 1, 78, 127
1, 11424, Note_on_c, 1, 45, 127
1, 11469, Note_off_c, 1, 69, 0
1, 11469, Note_off_c, 1, 78, 0
1, 11469, Note_off_c, 1, 45, 0
1, 11472, Note_on_c, 1, 68, 127
1, 11472, Note_on_c, 1, 76, 127
1, 11472, Note_on_c, 1, 42, 127
1, 11517, Note_off_c, 1, 68, 0
1, 11517, Note_off_c, 1, 76, 0
1, 11517, Note_off_c, 1, 42, 0
1, 11520, Note_on_c, 1, 66, 127
1, 11520, Note_on_c, 1, 75, 127
1, 11520, Note_on_c, 1, 47, 127
1, 11565, Note_off_c, 1, 66, 0
1, 11565, Note_off_c, 1, 75, 0
1, 11568, Note_on_c, 1, 68, 127
1, 11568, Note_on_c, 1, 73, 127
1, 11613, Note_off_c, 1, 68, 0
1, 11613, Note_off_c, 1, 73, 0
1, 11616, Note_on_c, 1, 69, 127
1, 11664, Note_on_c, 1, 76, 127
1, 11705, Note_off_c, 1, 69, 0
1, 11709, Note_off_c, 1, 76, 0
1, 11712, Note_on_c, 1, 78, 127
1, 11757, Note_off_c, 1, 78, 0
1, 11874, Note_off_c, 1, 47, 0
1, 11904, Note_on_c, 1, 68, 127
1, 11904, Note_on_c, 1, 76, 127
1, 11904, Note_on_c, 1, 59, 127
1, 11949, Note_off_c, 1, 68, 0
1, 11949, Note_off_c, 1, 76, 0
1, 11952, Note_on_c, 1, 66, 127
1, 11952, Note_on_c, 1, 75, 127
1, 11997, Note_off_c, 1, 66, 0
1, 11997, Note_off_c, 1, 75, 0
1, 12048, Note_on_c, 1, 69, 127
1, 12048, Note_on_c, 1, 78, 127
1, 12081, Note_off_c, 1, 59, 0
1, 12093, Note_off_c, 1, 69, 0
1, 12093, Note_off_c, 1, 78, 0
1, 12096, Note_on_c, 1, 71, 127
1, 12096, Note_on_c, 1, 80, 127
1, 12096, Note_on_c, 1, 56, 127
1, 12141, Note_off_c, 1, 71, 0
1, 12141, Note_off_c, 1, 80, 0
1, 12144, Note_on_c, 1, 69, 127
1, 12144, Note_on_c, 1, 78, 127
1, 12185, Note_off_c, 1, 56, 0
1, 12189, Note_off_c, 1, 69, 0
1, 12189, Note_off_c, 1, 78, 0
1, 12192, Note_on_c, 1, 71, 127
1, 12192, Note_on_c, 1, 76, 127
1, 12192, Note_on_c, 1, 56, 127
1, 12237, Note_off_c, 1, 71, 0
1, 12237, Note_off_c, 1, 76, 0
1, 12237, Note_off_c, 1, 56, 0
1, 12240, Note_on_c, 1, 73, 127
1, 12240, Note_on_c, 1, 78, 127
1, 12240, Note_on_c, 1, 57, 127
1, 12285, Note_off_c, 1, 73, 0
1, 12285, Note_off_c, 1, 78, 0
1, 12285, Note_off_c, 1, 57, 0
1, 12288, Note_on_c, 1, 66, 127
1, 12288, Note_on_c, 1, 75, 127
1, 12288, Note_on_c, 1, 59, 127
1, 12333, Note_off_c, 1, 75, 0
1, 12336, Note_on_c, 1, 73, 127
1, 12377, Note_off_c, 1, 66, 0
1, 12377, Note_off_c, 1, 59, 0
1, 12381, Note_off_c, 1, 73, 0
1, 12384, Note_on_c, 1, 75, 127
1, 12384, Note_on_c, 1, 59, 127
1, 12429, Note_off_c, 1, 59, 0
1, 12432, Note_on_c, 1, 71, 127
1, 12432, Note_on_c, 1, 61, 127
1, 12477, Note_off_c, 1, 71, 0
1, 12477, Note_off_c, 1, 61, 0
1, 12480, Note_on_c, 1, 80, 127
1, 12525, Note_off_c, 1, 75, 0
1, 12528, Note_on_c, 1, 73, 127
1, 12528, Note_on_c, 1, 57, 127
1, 12573, Note_off_c, 1, 73, 0
1, 12573, Note_off_c, 1, 57, 0
1, 12576, Note_on_c, 1, 56, 127
1, 12665, Note_off_c, 1, 56, 0
1, 12761, Note_off_c, 1, 80, 0
1, 12768, Note_on_c, 1, 85, 127
1, 12768, Note_on_c, 1, 78, 127
1, 12813, Note_off_c, 1, 78, 0
1, 12864, Note_on_c, 1, 81, 127
1, 12864, Note_on_c, 1, 54, 127
1, 12909, Note_off_c, 1, 85, 0
1, 12909, Note_off_c, 1, 81, 0
1, 12912, Note_on_c, 1, 83, 127
1, 12953, Note_off_c, 1, 54, 0
1, 12957, Note_off_c, 1, 83, 0
1, 12960, Note_on_c, 1, 85, 127
1, 12960, Note_on_c, 1, 78, 127
1, 12960, Note_on_c, 1, 54, 127
1, 13005, Note_off_c, 1, 85, 0
1, 13005, Note_off_c, 1, 78, 0
1, 13005, Note_off_c, 1, 54, 0
1, 13008, Note_on_c, 1, 81, 127
1, 13008, Note_on_c, 1, 76, 127
1, 13008, Note_on_c, 1, 56, 127
1, 13053, Note_off_c, 1, 81, 0
1, 13053, Note_off_c, 1, 76, 0
1, 13053, Note_off_c, 1, 56, 0
1, 13056, Note_on_c, 1, 83, 127
1, 13056, Note_on_c, 1, 75, 127
1, 13056, Note_on_c, 1, 57, 127
1, 13101, Note_off_c, 1, 57, 0
1, 13104, Note_on_c, 1, 56, 127
1, 13145, Note_off_c, 1, 75, 0
1, 13149, Note_off_c, 1, 56, 0
1, 13152, Note_on_c, 1, 78, 127
1, 13200, Note_on_c, 1, 59, 127
1, 13241, Note_off_c, 1, 78, 0
1, 13245, Note_off_c, 1, 59, 0
1, 13248, Note_on_c, 1, 71, 127
1, 13337, Note_off_c, 1, 71, 0
1, 13344, Note_on_c, 1, 54, 127
1, 13389, Note_off_c, 1, 54, 0
1, 13440, Note_on_c, 1, 76, 127
1, 13485, Note_off_c, 1, 83, 0
1, 13488, Note_on_c, 1, 81, 127
1, 13533, Note_off_c, 1, 81, 0
1, 13584, Note_on_c, 1, 85, 127
1, 13629, Note_off_c, 1, 85, 0
1, 13728, Note_on_c, 1, 80, 127
1, 13728, Note_on_c, 1, 52, 127
1, 13773, Note_off_c, 1, 80, 0
1, 13773, Note_off_c, 1, 52, 0
1, 13913, Note_off_c, 1, 76, 0
1, 14160, Note_on_c, 1, 73, 127
1, 14205, Note_off_c, 1, 73, 0
1, 14352, Note_on_c, 1, 61, 127
1, 14397, Note_off_c, 1, 61, 0
1, 14496, Note_on_c, 1, 80, 127
1, 14496, Note_on_c, 1, 76, 127
1, 14496, Note_on_c, 1, 56, 127
1, 14541, Note_off_c, 1, 56, 0
1, 14544, Note_on_c, 1, 57, 127
1, 14585, Note_off_c, 1, 80, 0
1, 14585, Note_off_c, 1, 76, 0
1, 14589, Note_off_c, 1, 57, 0
1, 14592, Note_on_c, 1, 81, 127
1, 14592, Note_on_c, 1, 78, 127
1, 14592, Note_on_c, 1, 54, 127
1, 14637, Note_off_c, 1, 78, 0
1, 14640, Note_on_c, 1, 76, 127
1, 14681, Note_off_c, 1, 54, 0
1, 14685, Note_off_c, 1, 76, 0
1, 14688, Note_on_c, 1, 75, 127
1, 14688, Note_on_c, 1, 56, 127
1, 14712, Note_off_c, 1, 75, 0
1, 14733, Note_off_c, 1, 56, 0
1, 14736, Note_on_c, 1, 57, 127
1, 14781, Note_off_c, 1, 57, 0
1, 14784, Note_on_c, 1, 59, 127
1, 14829, Note_off_c, 1, 59, 0
1, 14832, Note_on_c, 1, 73, 127
1, 14877, Note_off_c, 1, 73, 0
1, 14880, Note_on_c, 1, 71, 127
1, 14904, Note_off_c, 1, 71, 0
1, 14976, Note_on_c, 1, 52, 127
1, 15153, Note_off_c, 1, 81, 0
1, 15168, Note_on_c, 1, 80, 127
1, 15241, Note_off_c, 1, 52, 0
1, 15257, Note_off_c, 1, 80, 0
1, 15264, Note_on_c, 1, 80, 127
1, 15264, Note_on_c, 1, 52, 127
1, 15309, Note_off_c, 1, 80, 0
1, 15309, Note_off_c, 1, 52, 0
1, 15312, Note_on_c, 1, 81, 127
1, 15312, Note_on_c, 1, 54, 127
1, 15357, Note_off_c, 1, 81, 0
1, 15357, Note_off_c, 1, 54, 0
1, 15360, Note_on_c, 1, 83, 127
1, 15360, Note_on_c, 1, 77, 127
1, 15360, Note_on_c, 1, 56, 127
1, 15405, Note_off_c, 1, 77, 0
1, 15408, Note_on_c, 1, 78, 127
1, 15449, Note_off_c, 1, 83, 0
1, 15449, Note_off_c, 1, 56, 0
1, 15453, Note_off_c, 1, 78, 0
1, 15456, Note_on_c, 1, 83, 127
1, 15456, Note_on_c, 1, 80, 127
1, 15456, Note_on_c, 1, 53, 127
1, 15480, Note_off_c, 1, 80, 0
1, 15501, Note_off_c, 1, 83, 0
1, 15504, Note_on_c, 1, 85, 127
1, 15545, Note_off_c, 1, 53, 0
1, 15549, Note_off_c, 1, 85, 0
1, 15552, Note_on_c, 1, 83, 127
1, 15552, Note_on_c, 1, 80, 127
1, 15552, Note_on_c, 1, 49, 127
1, 15597, Note_off_c, 1, 83, 0
1, 15600, Note_on_c, 1, 81, 127
1, 15641, Note_off_c, 1, 49, 0
1, 15645, Note_off_c, 1, 81, 0
1, 15648, Note_on_c, 1, 53, 127
1, 15737, Note_off_c, 1, 80, 0
1, 15737, Note_off_c, 1, 53, 0
1, 15744, Note_on_c, 1, 81, 127
1, 15744, Note_on_c, 1, 78, 127
1, 15744, Note_on_c, 1, 54, 127
1, 15789, Note_off_c, 1, 78, 0
1, 15792, Note_on_c, 1, 80, 127
1, 15833, Note_off_c, 1, 54, 0
1, 15837, Note_off_c, 1, 80, 0
1, 15840, Note_on_c, 1, 66, 127
1, 15885, Note_off_c, 1, 66, 0
1, 15888, Note_on_c, 1, 64, 127
1, 15921, Note_off_c, 1, 81, 0
1, 15933, Note_off_c, 1, 64, 0
1, 15936, Note_on_c, 1, 78, 127
1, 15936, Note_on_c, 1, 81, 127
1, 15936, Note_on_c, 1, 63, 127
1, 16025, Note_off_c, 1, 78, 0
1, 16025, Note_off_c, 1, 63, 0
1, 16032, Note_on_c, 1, 61, 127
1, 16080, Note_on_c, 1, 80, 127
1, 16113, Note_off_c, 1, 81, 0
1, 16121, Note_off_c, 1, 61, 0
1, 16125, Note_off_c, 1, 80, 0
1, 16128, Note_on_c, 1, 81, 127
1, 16128, Note_on_c, 1, 75, 127
1, 16128, Note_on_c, 1, 59, 127
1, 16173, Note_off_c, 1, 81, 0
1, 16173, Note_off_c, 1, 75, 0
1, 16176, Note_on_c, 1, 80, 127
1, 16176, Note_on_c, 1, 76, 127
1, 16217, Note_off_c, 1, 59, 0
1, 16221, Note_off_c, 1, 80, 0
1, 16221, Note_off_c, 1, 76, 0
1, 16224, Note_on_c, 1, 81, 127
1, 16224, Note_on_c, 1, 78, 127
1, 16224, Note_on_c, 1, 63, 127
1, 16248, Note_off_c, 1, 78, 0
1, 16269, Note_off_c, 1, 81, 0
1, 16272, Note_on_c, 1, 83, 127
1, 16313, Note_off_c, 1, 63, 0
1, 16317, Note_off_c, 1, 83, 0
1, 16320, Note_on_c, 1, 81, 127
1, 16320, Note_on_c, 1, 78, 127
1, 16320, Note_on_c, 1, 59, 127
1, 16365, Note_off_c, 1, 81, 0
1, 16368, Note_on_c, 1, 80, 127
1, 16409, Note_off_c, 1, 59, 0
1, 16413, Note_off_c, 1, 80, 0
1, 16416, Note_on_c, 1, 63, 127
1, 16505, Note_off_c, 1, 63, 0
1, 16512, Note_on_c, 1, 52, 127
1, 16601, Note_off_c, 1, 52, 0
1, 16605, Note_off_c, 1, 78, 0
1, 16608, Note_on_c, 1, 80, 127
1, 16608, Note_on_c, 1, 76, 127
1, 16608, Note_on_c, 1, 56, 127
1, 16653, Note_off_c, 1, 80, 0
1, 16653, Note_off_c, 1, 76, 0
1, 16656, Note_on_c, 1, 81, 127
1, 16656, Note_on_c, 1, 75, 127
1, 16697, Note_off_c, 1, 56, 0
1, 16701, Note_off_c, 1, 81, 0
1, 16701, Note_off_c, 1, 75, 0
1, 16704, Note_on_c, 1, 80, 127
1, 16704, Note_on_c, 1, 76, 127
1, 16704, Note_on_c, 1, 61, 127
1, 16749, Note_off_c, 1, 80, 0
1, 16752, Note_on_c, 1, 78, 127
1, 16793, Note_off_c, 1, 76, 0
1, 16797, Note_off_c, 1, 78, 0
1, 16881, Note_off_c, 1, 61, 0
1, 16896, Note_on_c, 1, 81, 127
1, 16896, Note_on_c, 1, 54, 127
1, 16941, Note_off_c, 1, 81, 0
1, 16985, Note_off_c, 1, 54, 0
1, 16992, Note_on_c, 1, 81, 127
1, 16992, Note_on_c, 1, 78, 127
1, 16992, Note_on_c, 1, 57, 127
1, 17037, Note_off_c, 1, 81, 0
1, 17037, Note_off_c, 1, 78, 0
1, 17040, Note_on_c, 1, 83, 127
1, 17040, Note_on_c, 1, 76, 127
1, 17081, Note_off_c, 1, 57, 0
1, 17085, Note_off_c, 1, 83, 0
1, 17085, Note_off_c, 1, 76, 0
1, 17088, Note_on_c, 1, 81, 127
1, 17088, Note_on_c, 1, 78, 127
1, 17088, Note_on_c, 1, 63, 127
1, 17133, Note_off_c, 1, 81, 0
1, 17136, Note_on_c, 1, 80, 127
1, 17177, Note_off_c, 1, 78, 0
1, 17181, Note_off_c, 1, 80, 0
1, 17265, Note_off_c, 1, 63, 0
1, 17280, Note_on_c, 1, 83, 127
1, 17280, Note_on_c, 1, 56, 127
1, 17325, Note_off_c, 1, 83, 0
1, 17369, Note_off_c, 1, 56, 0
1, 17376, Note_on_c, 1, 83, 127
1, 17376, Note_on_c, 1, 80, 127
1, 17376, Note_on_c, 1, 59, 127
1, 17421, Note_off_c, 1, 83, 0
1, 17421, Note_off_c, 1, 80, 0
1, 17424, Note_on_c, 1, 85, 127
1, 17424, Note_on_c, 1, 78, 127
1, 17465, Note_off_c, 1, 59, 0
1, 17469, Note_off_c, 1, 85, 0
1, 17469, Note_off_c, 1, 78, 0
1, 17472, Note_on_c, 1, 83, 127
1, 17472, Note_on_c, 1, 80, 127
1, 17472, Note_on_c, 1, 64, 127
1, 17517, Note_off_c, 1, 83, 0
1, 17517, Note_off_c, 1, 80, 0
1, 17520, Note_on_c, 1, 81, 127
1, 17520, Note_on_c, 1, 78, 127
1, 17561, Note_off_c, 1, 64, 0
1, 17565, Note_off_c, 1, 81, 0
1, 17565, Note_off_c, 1, 78, 0
1, 17568, Note_on_c, 1, 80, 127
1, 17568, Note_on_c, 1, 76, 127
1, 17568, Note_on_c, 1, 57, 127
1, 17613, Note_off_c, 1, 80, 0
1, 17613, Note_off_c, 1, 76, 0
1, 17616, Note_on_c, 1, 81, 127
1, 17616, Note_on_c, 1, 78, 127
1, 17657, Note_off_c, 1, 57, 0
1, 17661, Note_off_c, 1, 81, 0
1, 17661, Note_off_c, 1, 78, 0
1, 17664, Note_on_c, 1, 78, 127
1, 17664, Note_on_c, 1, 75, 127
1, 17664, Note_on_c, 1, 59, 127
1, 17709, Note_off_c, 1, 75, 0
1, 17709, Note_off_c, 1, 59, 0
1, 17712, Note_on_c, 1, 73, 127
1, 17712, Note_on_c, 1, 57, 127
1, 17757, Note_off_c, 1, 73, 0
1, 17757, Note_off_c, 1, 57, 0
1, 17808, Note_on_c, 1, 76, 127
1, 17808, Note_on_c, 1, 61, 127
1, 17853, Note_off_c, 1, 76, 0
1, 17853, Note_off_c, 1, 61, 0
1, 17856, Note_on_c, 1, 63, 127
1, 17901, Note_off_c, 1, 63, 0
1, 18048, Note_on_c, 1, 71, 127
1, 18048, Note_on_c, 1, 56, 127
1, 18093, Note_off_c, 1, 56, 0
1, 18096, Note_on_c, 1, 54, 127
1, 18141, Note_off_c, 1, 54, 0
1, 18225, Note_off_c, 1, 71, 0
1, 18240, Note_on_c, 1, 68, 127
1, 18285, Note_off_c, 1, 78, 0
1, 18288, Note_on_c, 1, 81, 127
1, 18329, Note_off_c, 1, 68, 0
1, 18333, Note_off_c, 1, 81, 0
1, 18336, Note_on_c, 1, 80, 127
1, 18336, Note_on_c, 1, 68, 127
1, 18336, Note_on_c, 1, 59, 127
1, 18381, Note_off_c, 1, 80, 0
1, 18381, Note_off_c, 1, 68, 0
1, 18381, Note_off_c, 1, 59, 0
1, 18384, Note_on_c, 1, 78, 127
1, 18384, Note_on_c, 1, 69, 127
1, 18384, Note_on_c, 1, 56, 127
1, 18429, Note_off_c, 1, 78, 0
1, 18429, Note_off_c, 1, 69, 0
1, 18429, Note_off_c, 1, 56, 0
1, 18432, Note_on_c, 1, 77, 127
1, 18432, Note_on_c, 1, 71, 127
1, 18432, Note_on_c, 1, 61, 127
1, 18477, Note_off_c, 1, 77, 0
1, 18480, Note_on_c, 1, 78, 127
1, 18521, Note_off_c, 1, 71, 0
1, 18521, Note_off_c, 1, 61, 0
1, 18525, Note_off_c, 1, 78, 0
1, 18528, Note_on_c, 1, 80, 127
1, 18528, Note_on_c, 1, 71, 127
1, 18528, Note_on_c, 1, 53, 127
1, 18573, Note_off_c, 1, 71, 0
1, 18576, Note_on_c, 1, 73, 127
1, 18617, Note_off_c, 1, 80, 0
1, 18617, Note_off_c, 1, 53, 0
1, 18621, Note_off_c, 1, 73, 0
1, 18624, Note_on_c, 1, 80, 127
1, 18624, Note_on_c, 1, 71, 127
1, 18624, Note_on_c, 1, 49, 127
1, 18669, Note_off_c, 1, 71, 0
1, 18672, Note_on_c, 1, 69, 127
1, 18713, Note_off_c, 1, 49, 0
1, 18717, Note_off_c, 1, 69, 0
1, 18720, Note_on_c, 1, 68, 127
1, 18720, Note_on_c, 1, 53, 127
1, 18801, Note_off_c, 1, 80, 0
1, 18809, Note_off_c, 1, 68, 0
1, 18809, Note_off_c, 1, 53, 0
1, 18816, Note_on_c, 1, 78, 127
1, 18816, Note_on_c, 1, 69, 127
1, 18816, Note_on_c, 1, 42, 127
1, 18861, Note_off_c, 1, 78, 0
1, 18864, Note_on_c, 1, 80, 127
1, 18905, Note_off_c, 1, 42, 0
1, 18909, Note_off_c, 1, 80, 0
1, 18912, Note_on_c, 1, 81, 127
1, 18912, Note_on_c, 1, 54, 127
1, 18957, Note_off_c, 1, 54, 0
1, 18960, Note_on_c, 1, 52, 127
1, 18993, Note_off_c, 1, 69, 0
1, 19001, Note_off_c, 1, 81, 0
1, 19005, Note_off_c, 1, 52, 0
1, 19008, Note_on_c, 1, 81, 127
1, 19008, Note_on_c, 1, 66, 127
1, 19008, Note_on_c, 1, 51, 127
1, 19097, Note_off_c, 1, 66, 0
1, 19097, Note_off_c, 1, 51, 0
1, 19104, Note_on_c, 1, 49, 127
1, 19152, Note_on_c, 1, 68, 127
1, 19185, Note_off_c, 1, 81, 0
1, 19193, Note_off_c, 1, 49, 0
1, 19197, Note_off_c, 1, 68, 0
1, 19200, Note_on_c, 1, 75, 127
1, 19200, Note_on_c, 1, 69, 127
1, 19200, Note_on_c, 1, 47, 127
1, 19245, Note_off_c, 1, 75, 0
1, 19245, Note_off_c, 1, 69, 0
1, 19248, Note_on_c, 1, 76, 127
1, 19248, Note_on_c, 1, 68, 127
1, 19289, Note_off_c, 1, 47, 0
1, 19293, Note_off_c, 1, 76, 0
1, 19293, Note_off_c, 1, 68, 0
1, 19296, Note_on_c, 1, 78, 127
1, 19296, Note_on_c, 1, 69, 127
1, 19296, Note_on_c, 1, 51, 127
1, 19341, Note_off_c, 1, 69, 0
1, 19344, Note_on_c, 1, 71, 127
1, 19385, Note_off_c, 1, 78, 0
1, 19385, Note_off_c, 1, 51, 0
1, 19389, Note_off_c, 1, 71, 0
1, 19392, Note_on_c, 1, 78, 127
1, 19392, Note_on_c, 1, 69, 127
1, 19392, Note_on_c, 1, 47, 127
1, 19437, Note_off_c, 1, 69, 0
1, 19440, Note_on_c, 1, 68, 127
1, 19481, Note_off_c, 1, 47, 0
1, 19485, Note_off_c, 1, 68, 0
1, 19488, Note_on_c, 1, 66, 127
1, 19488, Note_on_c, 1, 51, 127
1, 19533, Note_off_c, 1, 66, 0
1, 19577, Note_off_c, 1, 51, 0
1, 19584, Note_on_c, 1, 40, 127
1, 19673, Note_off_c, 1, 78, 0
1, 19673, Note_off_c, 1, 40, 0
1, 19680, Note_on_c, 1, 76, 127
1, 19680, Note_on_c, 1, 68, 127
1, 19680, Note_on_c, 1, 44, 127
1, 19725, Note_off_c, 1, 76, 0
1, 19725, Note_off_c, 1, 68, 0
1, 19728, Note_on_c, 1, 75, 127
1, 19728, Note_on_c, 1, 69, 127
1, 19769, Note_off_c, 1, 44, 0
1, 19773, Note_off_c, 1, 75, 0
1, 19773, Note_off_c, 1, 69, 0
1, 19776, Note_on_c, 1, 76, 127
1, 19776, Note_on_c, 1, 68, 127
1, 19776, Note_on_c, 1, 49, 127
1, 19821, Note_off_c, 1, 68, 0
1, 19824, Note_on_c, 1, 66, 127
1, 19865, Note_off_c, 1, 76, 0
1, 19869, Note_off_c, 1, 66, 0
1, 19872, Note_on_c, 1, 80, 127
1, 19872, Note_on_c, 1, 64, 127
1, 19917, Note_off_c, 1, 64, 0
1, 19953, Note_off_c, 1, 49, 0
1, 19968, Note_on_c, 1, 69, 127
1, 19968, Note_on_c, 1, 42, 127
1, 20013, Note_off_c, 1, 69, 0
1, 20057, Note_off_c, 1, 80, 0
1, 20057, Note_off_c, 1, 42, 0
1, 20064, Note_on_c, 1, 78, 127
1, 20064, Note_on_c, 1, 69, 127
1, 20064, Note_on_c, 1, 45, 127
1, 20109, Note_off_c, 1, 78, 0
1, 20109, Note_off_c, 1, 69, 0
1, 20112, Note_on_c, 1, 76, 127
1, 20112, Note_on_c, 1, 71, 127
1, 20153, Note_off_c, 1, 45, 0
1, 20157, Note_off_c, 1, 76, 0
1, 20157, Note_off_c, 1, 71, 0
1, 20160, Note_on_c, 1, 78, 127
1, 20160, Note_on_c, 1, 69, 127
1, 20160, Note_on_c, 1, 51, 127
1, 20205, Note_off_c, 1, 69, 0
1, 20208, Note_on_c, 1, 68, 127
1, 20249, Note_off_c, 1, 78, 0
1, 20253, Note_off_c, 1, 68, 0
1, 20256, Note_on_c, 1, 81, 127
1, 20256, Note_on_c, 1, 66, 127
1, 20301, Note_off_c, 1, 66, 0
1, 20337, Note_off_c, 1, 51, 0
1, 20352, Note_on_c, 1, 71, 127
1, 20352, Note_on_c, 1, 44, 127
1, 20397, Note_off_c, 1, 71, 0
1, 20441, Note_off_c, 1, 81, 0
1, 20441, Note_off_c, 1, 44, 0
1, 20448, Note_on_c, 1, 80, 127
1, 20448, Note_on_c, 1, 71, 127
1, 20448, Note_on_c, 1, 47, 127
1, 20493, Note_off_c, 1, 80, 0
1, 20493, Note_off_c, 1, 71, 0
1, 20496, Note_on_c, 1, 78, 127
1, 20496, Note_on_c, 1, 73, 127
1, 20537, Note_off_c, 1, 47, 0
1, 20541, Note_off_c, 1, 78, 0
1, 20541, Note_off_c, 1, 73, 0
1, 20544, Note_on_c, 1, 80, 127
1, 20544, Note_on_c, 1, 71, 127
1, 20544, Note_on_c, 1, 52, 127
1, 20589, Note_off_c, 1, 80, 0
1, 20589, Note_off_c, 1, 71, 0
1, 20592, Note_on_c, 1, 78, 127
1, 20592, Note_on_c, 1, 69, 127
1, 20633, Note_off_c, 1, 52, 0
1, 20637, Note_off_c, 1, 78, 0
1, 20637, Note_off_c, 1, 69, 0
1, 20640, Note_on_c, 1, 76, 127
1, 20640, Note_on_c, 1, 68, 127
1, 20640, Note_on_c, 1, 56, 127
1, 20685, Note_off_c, 1, 76, 0
1, 20685, Note_off_c, 1, 68, 0
1, 20688, Note_on_c, 1, 80, 127
1, 20688, Note_on_c, 1, 71, 127
1, 20729, Note_off_c, 1, 56, 0
1, 20733, Note_off_c, 1, 80, 0
1, 20733, Note_off_c, 1, 71, 0
1, 20736, Note_on_c, 1, 73, 127
1, 20736, Note_on_c, 1, 64, 127
1, 20736, Note_on_c, 1, 57, 127
1, 20781, Note_off_c, 1, 73, 0
1, 20781, Note_off_c, 1, 64, 0
1, 20784, Note_on_c, 1, 76, 127
1, 20784, Note_on_c, 1, 68, 127
1, 20825, Note_off_c, 1, 57, 0
1, 20829, Note_off_c, 1, 76, 0
1, 20829, Note_off_c, 1, 68, 0
1, 20832, Note_on_c, 1, 75, 127
1, 20832, Note_on_c, 1, 66, 127
1, 20832, Note_on_c, 1, 61, 127
1, 20877, Note_off_c, 1, 75, 0
1, 20877, Note_off_c, 1, 66, 0
1, 20877, Note_off_c, 1, 61, 0
1, 20880, Note_on_c, 1, 76, 127
1, 20880, Note_on_c, 1, 68, 127
1, 20880, Note_on_c, 1, 59, 127
1, 20925, Note_off_c, 1, 76, 0
1, 20925, Note_off_c, 1, 68, 0
1, 20925, Note_off_c, 1, 59, 0
1, 20928, Note_on_c, 1, 78, 127
1, 20928, Note_on_c, 1, 69, 127
1, 20928, Note_on_c, 1, 57, 127
1, 20973, Note_off_c, 1, 78, 0
1, 20976, Note_on_c, 1, 76, 127
1, 21017, Note_off_c, 1, 57, 0
1, 21021, Note_off_c, 1, 76, 0
1, 21024, Note_on_c, 1, 75, 127
1, 21024, Note_on_c, 1, 54, 127
1, 21069, Note_off_c, 1, 75, 0
1, 21113, Note_off_c, 1, 54, 0
1, 21120, Note_on_c, 1, 71, 127
1, 21120, Note_on_c, 1, 51, 127
1, 21165, Note_off_c, 1, 69, 0
1, 21165, Note_off_c, 1, 71, 0
1, 21168, Note_on_c, 1, 68, 127
1, 21209, Note_off_c, 1, 51, 0
1, 21213, Note_off_c, 1, 68, 0
1, 21216, Note_on_c, 1, 73, 127
1, 21216, Note_on_c, 1, 69, 127
1, 21216, Note_on_c, 1, 59, 127
1, 21261, Note_off_c, 1, 73, 0
1, 21261, Note_off_c, 1, 69, 0
1, 21261, Note_off_c, 1, 59, 0
1, 21264, Note_on_c, 1, 75, 127
1, 21264, Note_on_c, 1, 66, 127
1, 21264, Note_on_c, 1, 57, 127
1, 21309, Note_off_c, 1, 75, 0
1, 21309, Note_off_c, 1, 66, 0
1, 21309, Note_off_c, 1, 57, 0
1, 21312, Note_on_c, 1, 76, 127
1, 21312, Note_on_c, 1, 68, 127
1, 21312, Note_on_c, 1, 56, 127
1, 21357, Note_off_c, 1, 68, 0
1, 21360, Note_on_c, 1, 66, 127
1, 21401, Note_off_c, 1, 56, 0
1, 21405, Note_off_c, 1, 66, 0
1, 21408, Note_on_c, 1, 64, 127
1, 21408, Note_on_c, 1, 61, 127
1, 21453, Note_off_c, 1, 64, 0
1, 21497, Note_off_c, 1, 61, 0
1, 21504, Note_on_c, 1, 59, 127
1, 21552, Note_on_c, 1, 69, 127
1, 21593, Note_off_c, 1, 59, 0
1, 21597, Note_off_c, 1, 69, 0
1, 21600, Note_on_c, 1, 71, 127
1, 21600, Note_on_c, 1, 57, 127
1, 21637, Note_off_c, 1, 76, 0
1, 21645, Note_off_c, 1, 71, 0
1, 21648, Note_on_c, 1, 78, 127
1, 21689, Note_off_c, 1, 57, 0
1, 21693, Note_off_c, 1, 78, 0
1, 21696, Note_on_c, 1, 75, 127
1, 21696, Note_on_c, 1, 69, 127
1, 21696, Note_on_c, 1, 59, 127
1, 21741, Note_off_c, 1, 69, 0
1, 21744, Note_on_c, 1, 68, 127
1, 21785, Note_off_c, 1, 59, 0
1, 21789, Note_off_c, 1, 68, 0
1, 21792, Note_on_c, 1, 47, 127
1, 21829, Note_off_c, 1, 75, 0
1, 21840, Note_on_c, 1, 76, 127
1, 21840, Note_on_c, 1, 66, 127
1, 21881, Note_off_c, 1, 47, 0
1, 21885, Note_off_c, 1, 76, 0
1, 21885, Note_off_c, 1, 66, 0
1, 21888, Note_on_c, 1, 76, 127
1, 21888, Note_on_c, 1, 64, 127
1, 21888, Note_on_c, 1, 40, 127
1, 21933, Note_off_c, 1, 76, 0
1, 21936, Note_on_c, 1, 59, 127
1, 21977, Note_off_c, 1, 40, 0
1, 21981, Note_off_c, 1, 59, 0
1, 21984, Note_on_c, 1, 61, 127
1, 22021, Note_off_c, 1, 64, 0
1, 22029, Note_off_c, 1, 61, 0
1, 22032, Note_on_c, 1, 63, 127
1, 22032, Note_on_c, 1, 59, 127
1, 22077, Note_off_c, 1, 63, 0
1, 22077, Note_off_c, 1, 59, 0
1, 22080, Note_on_c, 1, 64, 127
1, 22080, Note_on_c, 1, 61, 127
1, 22125, Note_off_c, 1, 64, 0
1, 22125, Note_off_c, 1, 61, 0
1, 22128, Note_on_c, 1, 66, 127
1, 22128, Note_on_c, 1, 63, 127
1, 22173, Note_off_c, 1, 66, 0
1, 22173, Note_off_c, 1, 63, 0
1, 22176, Note_on_c, 1, 68, 127
1, 22176, Note_on_c, 1, 64, 127
1, 22221, Note_off_c, 1, 68, 0
1, 22221, Note_off_c, 1, 64, 0
1, 22224, Note_on_c, 1, 69, 127
1, 22224, Note_on_c, 1, 66, 127
1, 22269, Note_off_c, 1, 69, 0
1, 22269, Note_off_c, 1, 66, 0
1, 22272, Note_on_c, 1, 71, 127
1, 22272, Note_on_c, 1, 68, 127
1, 22272, Note_on_c, 1, 40, 127
1, 22317, Note_off_c, 1, 71, 0
1, 22317, Note_off_c, 1, 68, 0
1, 22320, Note_on_c, 1, 64, 127
1, 22361, Note_off_c, 1, 40, 0
1, 22365, Note_off_c, 1, 64, 0
1, 22368, Note_on_c, 1, 66, 127
1, 22368, Note_on_c, 1, 69, 127
1, 22413, Note_off_c, 1, 66, 0
1, 22413, Note_off_c, 1, 69, 0
1, 22416, Note_on_c, 1, 68, 127
1, 22416, Note_on_c, 1, 71, 127
1, 22461, Note_off_c, 1, 68, 0
1, 22461, Note_off_c, 1, 71, 0
1, 22464, Note_on_c, 1, 69, 127
1, 22464, Note_on_c, 1, 73, 127
1, 22509, Note_off_c, 1, 69, 0
1, 22509, Note_off_c, 1, 73, 0
1, 22512, Note_on_c, 1, 71, 127
1, 22512, Note_on_c, 1, 75, 127
1, 22557, Note_off_c, 1, 71, 0
1, 22557, Note_off_c, 1, 75, 0
1, 22560, Note_on_c, 1, 73, 127
1, 22560, Note_on_c, 1, 76, 127
1, 22605, Note_off_c, 1, 73, 0
1, 22605, Note_off_c, 1, 76, 0
1, 22608, Note_on_c, 1, 75, 127
1, 22608, Note_on_c, 1, 78, 127
1, 22653, Note_off_c, 1, 75, 0
1, 22653, Note_off_c, 1, 78, 0
1, 22656, Note_on_c, 1, 76, 127
1, 22656, Note_on_c, 1, 80, 127
1, 22701, Note_off_c, 1, 76, 0
1, 22701, Note_off_c, 1, 80, 0
1, 22704, Note_on_c, 1, 68, 127
1, 22704, Note_on_c, 1, 83, 127
1, 22704, Note_on_c, 1, 52, 127
1, 22749, Note_off_c, 1, 68, 0
1, 22749, Note_off_c, 1, 83, 0
1, 22749, Note_off_c, 1, 52, 0
1, 22752, Note_on_c, 1, 69, 127
1, 22752, Note_on_c, 1, 81, 127
1, 22752, Note_on_c, 1, 54, 127
1, 22797, Note_off_c, 1, 69, 0
1, 22797, Note_off_c, 1, 81, 0
1, 22797, Note_off_c, 1, 54, 0
1, 22800, Note_on_c, 1, 71, 127
1, 22800, Note_on_c, 1, 80, 127
1, 22800, Note_on_c, 1, 56, 127
1, 22845, Note_off_c, 1, 71, 0
1, 22845, Note_off_c, 1, 80, 0
1, 22845, Note_off_c, 1, 56, 0
1, 22848, Note_on_c, 1, 73, 127
1, 22848, Note_on_c, 1, 78, 127
1, 22848, Note_on_c, 1, 57, 127
1, 22893, Note_off_c, 1, 73, 0
1, 22893, Note_off_c, 1, 78, 0
1, 22893, Note_off_c, 1, 57, 0
1, 22896, Note_on_c, 1, 75, 127
1, 22896, Note_on_c, 1, 76, 127
1, 22896, Note_on_c, 1, 59, 127
1, 22941, Note_off_c, 1, 75, 0
1, 22941, Note_off_c, 1, 76, 0
1, 22941, Note_off_c, 1, 59, 0
1, 22944, Note_on_c, 1, 76, 127
1, 22944, Note_on_c, 1, 75, 127
1, 22944, Note_on_c, 1, 61, 127
1, 22989, Note_off_c, 1, 76, 0
1, 22989, Note_off_c, 1, 75, 0
1, 22989, Note_off_c, 1, 61, 0
1, 22992, Note_on_c, 1, 78, 127
1, 22992, Note_on_c, 1, 73, 127
1, 22992, Note_on_c, 1, 63, 127
1, 23037, Note_off_c, 1, 78, 0
1, 23037, Note_off_c, 1, 73, 0
1, 23037, Note_off_c, 1, 63, 0
1, 23040, Note_on_c, 1, 80, 127
1, 23040, Note_on_c, 1, 71, 127
1, 23040, Note_on_c, 1, 64, 127
1, 23085, Note_off_c, 1, 80, 0
1, 23085, Note_off_c, 1, 71, 0
1, 23085, Note_off_c, 1, 64, 0
1, 23088, Note_on_c, 1, 76, 127
1, 23088, Note_on_c, 1, 68, 127
1, 23133, Note_off_c, 1, 76, 0
1, 23133, Note_off_c, 1, 68, 0
1, 23136, Note_on_c, 1, 78, 127
1, 23136, Note_on_c, 1, 75, 127
1, 23136, Note_on_c, 1, 66, 127
1, 23181, Note_off_c, 1, 78, 0
1, 23181, Note_off_c, 1, 75, 0
1, 23181, Note_off_c, 1, 66, 0
1, 23184, Note_on_c, 1, 80, 127
1, 23184, Note_on_c, 1, 73, 127
1, 23184, Note_on_c, 1, 64, 127
1, 23229, Note_off_c, 1, 80, 0
1, 23229, Note_off_c, 1, 73, 0
1, 23229, Note_off_c, 1, 64, 0
1, 23232, Note_on_c, 1, 81, 127
1, 23232, Note_on_c, 1, 71, 127
1, 23232, Note_on_c, 1, 63, 127
1, 23277, Note_off_c, 1, 81, 0
1, 23277, Note_off_c, 1, 71, 0
1, 23277, Note_off_c, 1, 63, 0
1, 23280, Note_on_c, 1, 83, 127
1, 23280, Note_on_c, 1, 69, 127
1, 23280, Note_on_c, 1, 61, 127
1, 23325, Note_off_c, 1, 83, 0
1, 23325, Note_off_c, 1, 69, 0
1, 23325, Note_off_c, 1, 61, 0
1, 23328, Note_on_c, 1, 85, 127
1, 23328, Note_on_c, 1, 68, 127
1, 23328, Note_on_c, 1, 59, 127
1, 23373, Note_off_c, 1, 85, 0
1, 23373, Note_off_c, 1, 68, 0
1, 23373, Note_off_c, 1, 59, 0
1, 23376, Note_on_c, 1, 87, 127
1, 23376, Note_on_c, 1, 66, 127
1, 23376, Note_on_c, 1, 57, 127
1, 23421, Note_off_c, 1, 87, 0
1, 23421, Note_off_c, 1, 66, 0
1, 23421, Note_off_c, 1, 57, 0
1, 23424, Note_on_c, 1, 88, 127
1, 23424, Note_on_c, 1, 64, 127
1, 23424, Note_on_c, 1, 56, 127
1, 23469, Note_off_c, 1, 56, 0
1, 23472, Note_on_c, 1, 61, 127
1, 23513, Note_off_c, 1, 64, 0
1, 23517, Note_off_c, 1, 61, 0
1, 23520, Note_on_c, 1, 80, 127
1, 23520, Note_on_c, 1, 59, 127
1, 23565, Note_off_c, 1, 80, 0
1, 23565, Note_off_c, 1, 59, 0
1, 23568, Note_off_c, 1, 88, 0
1, 23568, Note_on_c, 1, 87, 127
1, 23568, Note_on_c, 1, 78, 127
1, 23568, Note_on_c, 1, 57, 127
1, 23613, Note_off_c, 1, 87, 0
1, 23613, Note_off_c, 1, 78, 0
1, 23613, Note_off_c, 1, 57, 0
1, 23616, Note_on_c, 1, 85, 127
1, 23616, Note_on_c, 1, 76, 127
1, 23616, Note_on_c, 1, 56, 127
1, 23661, Note_off_c, 1, 85, 0
1, 23661, Note_off_c, 1, 76, 0
1, 23661, Note_off_c, 1, 56, 0
1, 23664, Note_on_c, 1, 84, 127
1, 23664, Note_on_c, 1, 75, 127
1, 23664, Note_on_c, 1, 54, 127
1, 23709, Note_off_c, 1, 84, 0
1, 23709, Note_off_c, 1, 75, 0
1, 23709, Note_off_c, 1, 54, 0
1, 23712, Note_on_c, 1, 85, 127
1, 23712, Note_on_c, 1, 73, 127
1, 23712, Note_on_c, 1, 52, 127
1, 23757, Note_off_c, 1, 85, 0
1, 23757, Note_off_c, 1, 73, 0
1, 23757, Note_off_c, 1, 52, 0
1, 23760, Note_on_c, 1, 87, 127
1, 23760, Note_on_c, 1, 72, 127
1, 23760, Note_on_c, 1, 51, 127
1, 23805, Note_off_c, 1, 87, 0
1, 23805, Note_off_c, 1, 72, 0
1, 23805, Note_off_c, 1, 51, 0
1, 23808, Note_on_c, 1, 80, 127
1, 23808, Note_on_c, 1, 73, 127
1, 23808, Note_on_c, 1, 49, 127
1, 23853, Note_off_c, 1, 73, 0
1, 23856, Note_on_c, 1, 75, 127
1, 23897, Note_off_c, 1, 49, 0
1, 23901, Note_off_c, 1, 75, 0
1, 23904, Note_on_c, 1, 76, 127
1, 23904, Note_on_c, 1, 51, 127
1, 23949, Note_off_c, 1, 76, 0
1, 23993, Note_off_c, 1, 51, 0
1, 24000, Note_on_c, 1, 52, 127
1, 24089, Note_off_c, 1, 52, 0
1, 24192, Note_on_c, 1, 72, 127
1, 24192, Note_on_c, 1, 56, 127
1, 24237, Note_off_c, 1, 72, 0
1, 24281, Note_off_c, 1, 56, 0
1, 24288, Note_on_c, 1, 58, 127
1, 24377, Note_off_c, 1, 58, 0
1, 24384, Note_on_c, 1, 60, 127
1, 24473, Note_off_c, 1, 60, 0
1, 24576, Note_on_c, 1, 61, 127
1, 24665, Note_off_c, 1, 80, 0
1, 24665, Note_off_c, 1, 61, 0
1, 24672, Note_on_c, 1, 68, 127
1, 24672, Note_on_c, 1, 76, 127
1, 24672, Note_on_c, 1, 63, 127
1, 24717, Note_off_c, 1, 76, 0
1, 24720, Note_on_c, 1, 80, 127
1, 24732, Note_off_c, 1, 80, 0
1, 24761, Note_off_c, 1, 68, 0
1, 24761, Note_off_c, 1, 63, 0
1, 24768, Note_on_c, 1, 73, 127
1, 24768, Note_on_c, 1, 80, 127
1, 24768, Note_on_c, 1, 64, 127
1, 24780, Note_off_c, 1, 80, 0
1, 24816, Note_on_c, 1, 76, 127
1, 24828, Note_off_c, 1, 76, 0
1, 24857, Note_off_c, 1, 73, 0
1, 24857, Note_off_c, 1, 64, 0
1, 24864, Note_on_c, 1, 76, 127
1, 24864, Note_on_c, 1, 80, 127
1, 24864, Note_on_c, 1, 61, 127
1, 24876, Note_off_c, 1, 80, 0
1, 24912, Note_off_c, 1, 76, 0
1, 24912, Note_on_c, 1, 75, 127
1, 24912, Note_on_c, 1, 71, 127
1, 24924, Note_off_c, 1, 71, 0
1, 24953, Note_off_c, 1, 61, 0
1, 24957, Note_off_c, 1, 75, 0
1, 24960, Note_on_c, 1, 76, 127
1, 24960, Note_on_c, 1, 70, 127
1, 24960, Note_on_c, 1, 54, 127
1, 25005, Note_off_c, 1, 70, 0
1, 25008, Note_on_c, 1, 71, 127
1, 25049, Note_off_c, 1, 54, 0
1, 25053, Note_off_c, 1, 71, 0
1, 25056, Note_on_c, 1, 73, 127
1, 25056, Note_on_c, 1, 56, 127
1, 25093, Note_off_c, 1, 76, 0
1, 25101, Note_off_c, 1, 73, 0
1, 25104, Note_on_c, 1, 80, 127
1, 25104, Note_on_c, 1, 78, 127
1, 25116, Note_off_c, 1, 78, 0
1, 25145, Note_off_c, 1, 56, 0
1, 25149, Note_off_c, 1, 80, 0
1, 25152, Note_on_c, 1, 78, 127
1, 25152, Note_on_c, 1, 58, 127
1, 25200, Note_on_c, 1, 73, 127
1, 25241, Note_off_c, 1, 78, 0
1, 25241, Note_off_c, 1, 58, 0
1, 25245, Note_off_c, 1, 73, 0
1, 25248, Note_on_c, 1, 76, 127
1, 25248, Note_on_c, 1, 78, 127
1, 25248, Note_on_c, 1, 54, 127
1, 25260, Note_off_c, 1, 76, 0
1, 25272, Note_on_c, 1, 75, 127
1, 25293, Note_off_c, 1, 78, 0
1, 25295, Note_off_c, 1, 75, 0
1, 25296, Note_on_c, 1, 70, 127
1, 25337, Note_off_c, 1, 54, 0
1, 25341, Note_off_c, 1, 70, 0
1, 25344, Note_on_c, 1, 75, 127
1, 25344, Note_on_c, 1, 71, 127
1, 25344, Note_on_c, 1, 59, 127
1, 25389, Note_off_c, 1, 71, 0
1, 25392, Note_on_c, 1, 73, 127
1, 25433, Note_off_c, 1, 59, 0
1, 25437, Note_off_c, 1, 73, 0
1, 25440, Note_on_c, 1, 61, 127
1, 25488, Note_on_c, 1, 78, 127
1, 25500, Note_off_c, 1, 78, 0
1, 25529, Note_off_c, 1, 61, 0
1, 25536, Note_on_c, 1, 63, 127
1, 25625, Note_off_c, 1, 63, 0
1, 25680, Note_on_c, 1, 69, 127
1, 25725, Note_off_c, 1, 69, 0
1, 25728, Note_on_c, 1, 68, 127
1, 25728, Note_on_c, 1, 52, 127
1, 25773, Note_off_c, 1, 68, 0
1, 25817, Note_off_c, 1, 75, 0
1, 25817, Note_off_c, 1, 52, 0
1, 25824, Note_on_c, 1, 80, 127
1, 25824, Note_on_c, 1, 71, 127
1, 25824, Note_on_c, 1, 54, 127
1, 25869, Note_off_c, 1, 71, 0
1, 25872, Note_on_c, 1, 76, 127
1, 25884, Note_off_c, 1, 76, 0
1, 25913, Note_off_c, 1, 80, 0
1, 25913, Note_off_c, 1, 54, 0
1, 25920, Note_on_c, 1, 78, 127
1, 25920, Note_on_c, 1, 76, 127
1, 25920, Note_on_c, 1, 56, 127
1, 25943, Note_off_c, 1, 78, 0
1, 25968, Note_on_c, 1, 71, 127
1, 25989, Note_off_c, 1, 76, 0
1, 25992, Note_on_c, 1, 75, 127
1, 26009, Note_off_c, 1, 56, 0
1, 26013, Note_off_c, 1, 71, 0
1, 26015, Note_off_c, 1, 75, 0
1, 26016, Note_on_c, 1, 73, 127
1, 26016, Note_on_c, 1, 76, 127
1, 26016, Note_on_c, 1, 52, 127
1, 26061, Note_off_c, 1, 73, 0
1, 26061, Note_off_c, 1, 76, 0
1, 26064, Note_on_c, 1, 75, 127
1, 26064, Note_on_c, 1, 68, 127
1, 26087, Note_off_c, 1, 75, 0
1, 26088, Note_on_c, 1, 72, 127
1, 26105, Note_off_c, 1, 52, 0
1, 26109, Note_off_c, 1, 68, 0
1, 26111, Note_off_c, 1, 72, 0
1, 26112, Note_on_c, 1, 73, 127
1, 26112, Note_on_c, 1, 69, 127
1, 26112, Note_on_c, 1, 57, 127
1, 26157, Note_off_c, 1, 69, 0
1, 26160, Note_on_c, 1, 71, 127
1, 26201, Note_off_c, 1, 57, 0
1, 26205, Note_off_c, 1, 71, 0
1, 26208, Note_on_c, 1, 59, 127
1, 26256, Note_on_c, 1, 76, 127
1, 26268, Note_off_c, 1, 76, 0
1, 26297, Note_off_c, 1, 59, 0
1, 26304, Note_on_c, 1, 61, 127
1, 26393, Note_off_c, 1, 61, 0
1, 26448, Note_on_c, 1, 68, 127
1, 26493, Note_off_c, 1, 68, 0
1, 26496, Note_on_c, 1, 66, 127
1, 26541, Note_off_c, 1, 66, 0
1, 26585, Note_off_c, 1, 73, 0
1, 26592, Note_on_c, 1, 75, 127
1, 26592, Note_on_c, 1, 69, 127
1, 26592, Note_on_c, 1, 56, 127
1, 26637, Note_off_c, 1, 75, 0
1, 26637, Note_off_c, 1, 69, 0
1, 26640, Note_on_c, 1, 76, 127
1, 26681, Note_off_c, 1, 56, 0
1, 26685, Note_off_c, 1, 76, 0
1, 26688, Note_on_c, 1, 78, 127
1, 26688, Note_on_c, 1, 75, 127
1, 26688, Note_on_c, 1, 57, 127
1, 26733, Note_off_c, 1, 78, 0
1, 26733, Note_off_c, 1, 75, 0
1, 26736, Note_on_c, 1, 80, 127
1, 26736, Note_on_c, 1, 69, 127
1, 26777, Note_off_c, 1, 57, 0
1, 26781, Note_off_c, 1, 80, 0
1, 26781, Note_off_c, 1, 69, 0
1, 26784, Note_on_c, 1, 81, 127
1, 26784, Note_on_c, 1, 75, 127
1, 26784, Note_on_c, 1, 54, 127
1, 26829, Note_off_c, 1, 81, 0
1, 26829, Note_off_c, 1, 75, 0
1, 26832, Note_on_c, 1, 73, 127
1, 26832, Note_on_c, 1, 64, 127
1, 26873, Note_off_c, 1, 54, 0
1, 26877, Note_off_c, 1, 73, 0
1, 26877, Note_off_c, 1, 64, 0
1, 26880, Note_on_c, 1, 72, 127
1, 26880, Note_on_c, 1, 66, 127
1, 26880, Note_on_c, 1, 56, 127
1, 26897, Note_off_c, 1, 72, 0
1, 26898, Note_on_c, 1, 73, 127
1, 26915, Note_off_c, 1, 73, 0
1, 26925, Note_off_c, 1, 66, 0
1, 26928, Note_on_c, 1, 68, 127
1, 26969, Note_off_c, 1, 56, 0
1, 26973, Note_off_c, 1, 68, 0
1, 26976, Note_on_c, 1, 69, 127
1, 26976, Note_on_c, 1, 54, 127
1, 27021, Note_off_c, 1, 69, 0
1, 27024, Note_on_c, 1, 70, 127
1, 27047, Note_off_c, 1, 70, 0
1, 27065, Note_off_c, 1, 54, 0
1, 27072, Note_on_c, 1, 68, 127
1, 27072, Note_on_c, 1, 72, 127
1, 27072, Note_on_c, 1, 52, 127
1, 27117, Note_off_c, 1, 72, 0
1, 27161, Note_off_c, 1, 52, 0
1, 27168, Note_on_c, 1, 51, 127
1, 27216, Note_on_c, 1, 66, 127
1, 27257, Note_off_c, 1, 51, 0
1, 27261, Note_off_c, 1, 66, 0
1, 27264, Note_on_c, 1, 64, 127
1, 27264, Note_on_c, 1, 49, 127
1, 27309, Note_off_c, 1, 64, 0
1, 27353, Note_off_c, 1, 49, 0
1, 27408, Note_on_c, 1, 73, 127
1, 27453, Note_off_c, 1, 73, 0
1, 27504, Note_on_c, 1, 70, 127
1, 27549, Note_off_c, 1, 70, 0
1, 27600, Note_on_c, 1, 67, 127
1, 27645, Note_off_c, 1, 67, 0
1, 27648, Note_on_c, 1, 63, 127
1, 27648, Note_on_c, 1, 48, 127
1, 27693, Note_off_c, 1, 63, 0
1, 27737, Note_off_c, 1, 48, 0
1, 27888, Note_on_c, 1, 69, 127
1, 27933, Note_off_c, 1, 69, 0
1, 27936, Note_on_c, 1, 44, 127
1, 28025, Note_off_c, 1, 44, 0
1, 28032, Note_on_c, 1, 61, 127
1, 28032, Note_on_c, 1, 40, 127
1, 28077, Note_off_c, 1, 61, 0
1, 28121, Note_off_c, 1, 40, 0
1, 28320, Note_on_c, 1, 37, 127
1, 28409, Note_off_c, 1, 37, 0
1, 28416, Note_on_c, 1, 60, 127
1, 28416, Note_on_c, 1, 56, 127
1, 28461, Note_off_c, 1, 68, 0
1, 28505, Note_off_c, 1, 60, 0
1, 28593, Note_off_c, 1, 56, 0
1, 28608, Note_on_c, 1, 73, 127
1, 28608, Note_on_c, 1, 64, 127
1, 28608, Note_on_c, 1, 52, 127
1, 28653, Note_off_c, 1, 73, 0
1, 28653, Note_off_c, 1, 64, 0
1, 28656, Note_on_c, 1, 72, 127
1, 28656, Note_on_c, 1, 66, 127
1, 28697, Note_off_c, 1, 52, 0
1, 28701, Note_off_c, 1, 72, 0
1, 28701, Note_off_c, 1, 66, 0
1, 28704, Note_on_c, 1, 73, 127
1, 28704, Note_on_c, 1, 68, 127
1, 28704, Note_on_c, 1, 52, 127
1, 28749, Note_off_c, 1, 73, 0
1, 28749, Note_off_c, 1, 52, 0
1, 28752, Note_on_c, 1, 75, 127
1, 28752, Note_on_c, 1, 54, 127
1, 28793, Note_off_c, 1, 68, 0
1, 28797, Note_off_c, 1, 75, 0
1, 28797, Note_off_c, 1, 54, 0
1, 28800, Note_on_c, 1, 76, 127
1, 28800, Note_on_c, 1, 61, 127
1, 28800, Note_on_c, 1, 56, 127
1, 28889, Note_off_c, 1, 61, 0
1, 28889, Note_off_c, 1, 56, 0
1, 28896, Note_on_c, 1, 73, 127
1, 28941, Note_off_c, 1, 73, 0
1, 28944, Note_on_c, 1, 72, 127
1, 28944, Note_on_c, 1, 57, 127
1, 28989, Note_off_c, 1, 72, 0
1, 28989, Note_off_c, 1, 57, 0
1, 29040, Note_on_c, 1, 75, 127
1, 29040, Note_on_c, 1, 54, 127
1, 29085, Note_off_c, 1, 75, 0
1, 29085, Note_off_c, 1, 54, 0
1, 29088, Note_on_c, 1, 52, 127
1, 29177, Note_off_c, 1, 52, 0
1, 29184, Note_on_c, 1, 69, 127
1, 29273, Note_off_c, 1, 76, 0
1, 29376, Note_on_c, 1, 78, 127
1, 29376, Note_on_c, 1, 51, 127
1, 29421, Note_off_c, 1, 78, 0
1, 29465, Note_off_c, 1, 51, 0
1, 29657, Note_off_c, 1, 69, 0
1, 29952, Note_on_c, 1, 73, 127
1, 29952, Note_on_c, 1, 80, 127
1, 29952, Note_on_c, 1, 52, 127
1, 29997, Note_off_c, 1, 73, 0
1, 30000, Note_on_c, 1, 75, 127
1, 30041, Note_off_c, 1, 52, 0
1, 30045, Note_off_c, 1, 75, 0
1, 30048, Note_on_c, 1, 76, 127
1, 30048, Note_on_c, 1, 49, 127
1, 30093, Note_off_c, 1, 76, 0
1, 30093, Note_off_c, 1, 49, 0
1, 30096, Note_on_c, 1, 51, 127
1, 30141, Note_off_c, 1, 51, 0
1, 30336, Note_on_c, 1, 72, 127
1, 30336, Note_on_c, 1, 56, 127
1, 30381, Note_off_c, 1, 72, 0
1, 30425, Note_off_c, 1, 56, 0
1, 30432, Note_on_c, 1, 58, 127
1, 30521, Note_off_c, 1, 58, 0
1, 30528, Note_on_c, 1, 60, 127
1, 30617, Note_off_c, 1, 60, 0
1, 30690, Note_off_c, 1, 80, 0
1, 30720, Note_on_c, 1, 73, 127
1, 30720, Note_on_c, 1, 80, 127
1, 30720, Note_on_c, 1, 61, 127
1, 30765, Note_off_c, 1, 73, 0
1, 30768, Note_on_c, 1, 75, 127
1, 30809, Note_off_c, 1, 80, 0
1, 30809, Note_off_c, 1, 61, 0
1, 30813, Note_off_c, 1, 75, 0
1, 30816, Note_on_c, 1, 76, 127
1, 30816, Note_on_c, 1, 68, 127
1, 30816, Note_on_c, 1, 63, 127
1, 30861, Note_off_c, 1, 76, 0
1, 30864, Note_on_c, 1, 80, 127
1, 30905, Note_off_c, 1, 68, 0
1, 30905, Note_off_c, 1, 63, 0
1, 30909, Note_off_c, 1, 80, 0
1, 30912, Note_on_c, 1, 80, 127
1, 30912, Note_on_c, 1, 73, 127
1, 30912, Note_on_c, 1, 64, 127
1, 30957, Note_off_c, 1, 80, 0
1, 30960, Note_on_c, 1, 76, 127
1, 31001, Note_off_c, 1, 73, 0
1, 31001, Note_off_c, 1, 64, 0
1, 31005, Note_off_c, 1, 76, 0
1, 31008, Note_on_c, 1, 80, 127
1, 31008, Note_on_c, 1, 76, 127
1, 31008, Note_on_c, 1, 61, 127
1, 31053, Note_off_c, 1, 80, 0
1, 31053, Note_off_c, 1, 76, 0
1, 31056, Note_on_c, 1, 71, 127
1, 31056, Note_on_c, 1, 75, 127
1, 31097, Note_off_c, 1, 61, 0
1, 31101, Note_off_c, 1, 71, 0
1, 31101, Note_off_c, 1, 75, 0
1, 31104, Note_on_c, 1, 70, 127
1, 31104, Note_on_c, 1, 76, 127
1, 31104, Note_on_c, 1, 54, 127
1, 31149, Note_off_c, 1, 70, 0
1, 31152, Note_on_c, 1, 71, 127
1, 31193, Note_off_c, 1, 54, 0
1, 31197, Note_off_c, 1, 71, 0
1, 31200, Note_on_c, 1, 73, 127
1, 31200, Note_on_c, 1, 56, 127
1, 31237, Note_off_c, 1, 76, 0
1, 31245, Note_off_c, 1, 73, 0
1, 31248, Note_on_c, 1, 78, 127
1, 31248, Note_on_c, 1, 80, 127
1, 31289, Note_off_c, 1, 56, 0
1, 31293, Note_off_c, 1, 78, 0
1, 31293, Note_off_c, 1, 80, 0
1, 31296, Note_on_c, 1, 78, 127
1, 31296, Note_on_c, 1, 58, 127
1, 31344, Note_on_c, 1, 73, 127
1, 31385, Note_off_c, 1, 78, 0
1, 31385, Note_off_c, 1, 58, 0
1, 31389, Note_off_c, 1, 73, 0
1, 31392, Note_on_c, 1, 78, 127
1, 31392, Note_on_c, 1, 76, 127
1, 31392, Note_on_c, 1, 54, 127
1, 31415, Note_off_c, 1, 76, 0
1, 31416, Note_on_c, 1, 75, 127
1, 31437, Note_off_c, 1, 78, 0
1, 31439, Note_off_c, 1, 75, 0
1, 31440, Note_on_c, 1, 70, 127
1, 31481, Note_off_c, 1, 54, 0
1, 31485, Note_off_c, 1, 70, 0
1, 31488, Note_on_c, 1, 71, 127
1, 31488, Note_on_c, 1, 75, 127
1, 31488, Note_on_c, 1, 59, 127
1, 31533, Note_off_c, 1, 71, 0
1, 31536, Note_on_c, 1, 73, 127
1, 31577, Note_off_c, 1, 59, 0
1, 31581, Note_off_c, 1, 73, 0
1, 31584, Note_on_c, 1, 61, 127
1, 31632, Note_on_c, 1, 78, 127
1, 31673, Note_off_c, 1, 61, 0
1, 31677, Note_off_c, 1, 78, 0
1, 31680, Note_on_c, 1, 63, 127
1, 31769, Note_off_c, 1, 63, 0
1, 31824, Note_on_c, 1, 69, 127
1, 31869, Note_off_c, 1, 69, 0
1, 31872, Note_on_c, 1, 68, 127
1, 31872, Note_on_c, 1, 52, 127
1, 31917, Note_off_c, 1, 68, 0
1, 31961, Note_off_c, 1, 75, 0
1, 31961, Note_off_c, 1, 52, 0
1, 31968, Note_on_c, 1, 71, 127
1, 31968, Note_on_c, 1, 80, 127
1, 31968, Note_on_c, 1, 54, 127
1, 32013, Note_off_c, 1, 71, 0
1, 32016, Note_on_c, 1, 76, 127
1, 32057, Note_off_c, 1, 80, 0
1, 32057, Note_off_c, 1, 54, 0
1, 32061, Note_off_c, 1, 76, 0
1, 32064, Note_on_c, 1, 76, 127
1, 32064, Note_on_c, 1, 78, 127
1, 32064, Note_on_c, 1, 56, 127
1, 32087, Note_off_c, 1, 78, 0
1, 32112, Note_on_c, 1, 71, 127
1, 32133, Note_off_c, 1, 76, 0
1, 32136, Note_on_c, 1, 75, 127
1, 32153, Note_off_c, 1, 56, 0
1, 32157, Note_off_c, 1, 71, 0
1, 32159, Note_off_c, 1, 75, 0
1, 32160, Note_on_c, 1, 76, 127
1, 32160, Note_on_c, 1, 73, 127
1, 32160, Note_on_c, 1, 52, 127
1, 32205, Note_off_c, 1, 76, 0
1, 32205, Note_off_c, 1, 73, 0
1, 32208, Note_on_c, 1, 68, 127
1, 32208, Note_on_c, 1, 75, 127
1, 32231, Note_off_c, 1, 75, 0
1, 32232, Note_on_c, 1, 72, 127
1, 32249, Note_off_c, 1, 52, 0
1, 32253, Note_off_c, 1, 68, 0
1, 32255, Note_off_c, 1, 72, 0
1, 32256, Note_on_c, 1, 69, 127
1, 32256, Note_on_c, 1, 73, 127
1, 32256, Note_on_c, 1, 57, 127
1, 32301, Note_off_c, 1, 69, 0
1, 32304, Note_on_c, 1, 71, 127
1, 32345, Note_off_c, 1, 57, 0
1, 32349, Note_off_c, 1, 71, 0
1, 32352, Note_on_c, 1, 59, 127
1, 32400, Note_on_c, 1, 76, 127
1, 32441, Note_off_c, 1, 59, 0
1, 32445, Note_off_c, 1, 76, 0
1, 32448, Note_on_c, 1, 61, 127
1, 32537, Note_off_c, 1, 61, 0
1, 32592, Note_on_c, 1, 68, 127
1, 32637, Note_off_c, 1, 68, 0
1, 32640, Note_on_c, 1, 66, 127
1, 32685, Note_off_c, 1, 66, 0
1, 32729, Note_off_c, 1, 73, 0
1, 32736, Note_on_c, 1, 69, 127
1, 32736, Note_on_c, 1, 75, 127
1, 32736, Note_on_c, 1, 56, 127
1, 32781, Note_off_c, 1, 69, 0
1, 32781, Note_off_c, 1, 75, 0
1, 32784, Note_on_c, 1, 76, 127
1, 32825, Note_off_c, 1, 56, 0
1, 32829, Note_off_c, 1, 76, 0
1, 32832, Note_on_c, 1, 75, 127
1, 32832, Note_on_c, 1, 78, 127
1, 32832, Note_on_c, 1, 57, 127
1, 32877, Note_off_c, 1, 75, 0
1, 32877, Note_off_c, 1, 78, 0
1, 32880, Note_on_c, 1, 69, 127
1, 32880, Note_on_c, 1, 80, 127
1, 32921, Note_off_c, 1, 57, 0
1, 32925, Note_off_c, 1, 69, 0
1, 32925, Note_off_c, 1, 80, 0
1, 32928, Note_on_c, 1, 75, 127
1, 32928, Note_on_c, 1, 81, 127
1, 32928, Note_on_c, 1, 54, 127
1, 32973, Note_off_c, 1, 75, 0
1, 32973, Note_off_c, 1, 81, 0
1, 32976, Note_on_c, 1, 64, 127
1, 32976, Note_on_c, 1, 73, 127
1, 33017, Note_off_c, 1, 54, 0
1, 33021, Note_off_c, 1, 64, 0
1, 33021, Note_off_c, 1, 73, 0
1, 33024, Note_on_c, 1, 66, 127
1, 33024, Note_on_c, 1, 72, 127
1, 33024, Note_on_c, 1, 56, 127
1, 33069, Note_off_c, 1, 66, 0
1, 33072, Note_on_c, 1, 68, 127
1, 33113, Note_off_c, 1, 56, 0
1, 33117, Note_off_c, 1, 68, 0
1, 33120, Note_on_c, 1, 69, 127
1, 33120, Note_on_c, 1, 54, 127
1, 33157, Note_off_c, 1, 72, 0
1, 33165, Note_off_c, 1, 69, 0
1, 33168, Note_on_c, 1, 70, 127
1, 33191, Note_off_c, 1, 70, 0
1, 33209, Note_off_c, 1, 54, 0
1, 33216, Note_on_c, 1, 72, 127
1, 33216, Note_on_c, 1, 68, 127
1, 33216, Note_on_c, 1, 52, 127
1, 33261, Note_off_c, 1, 72, 0
1, 33305, Note_off_c, 1, 52, 0
1, 33312, Note_on_c, 1, 51, 127
1, 33360, Note_on_c, 1, 66, 127
1, 33401, Note_off_c, 1, 51, 0
1, 33405, Note_off_c, 1, 66, 0
1, 33408, Note_on_c, 1, 64, 127
1, 33408, Note_on_c, 1, 49, 127
1, 33453, Note_off_c, 1, 64, 0
1, 33497, Note_off_c, 1, 49, 0
1, 33552, Note_on_c, 1, 73, 127
1, 33597, Note_off_c, 1, 73, 0
1, 33648, Note_on_c, 1, 70, 127
1, 33693, Note_off_c, 1, 70, 0
1, 33744, Note_on_c, 1, 67, 127
1, 33789, Note_off_c, 1, 67, 0
1, 33792, Note_on_c, 1, 63, 127
1, 33792, Note_on_c, 1, 48, 127
1, 33837, Note_off_c, 1, 63, 0
1, 33881, Note_off_c, 1, 48, 0
1, 34032, Note_on_c, 1, 69, 127
1, 34077, Note_off_c, 1, 69, 0
1, 34080, Note_on_c, 1, 44, 127
1, 34169, Note_off_c, 1, 44, 0
1, 34176, Note_on_c, 1, 61, 127
1, 34176, Note_on_c, 1, 40, 127
1, 34221, Note_off_c, 1, 61, 0
1, 34265, Note_off_c, 1, 40, 0
1, 34464, Note_on_c, 1, 37, 127
1, 34553, Note_off_c, 1, 37, 0
1, 34560, Note_on_c, 1, 60, 127
1, 34560, Note_on_c, 1, 56, 127
1, 34605, Note_off_c, 1, 68, 0
1, 34649, Note_off_c, 1, 60, 0
1, 34737, Note_off_c, 1, 56, 0
1, 34752, Note_on_c, 1, 64, 127
1, 34752, Note_on_c, 1, 73, 127
1, 34752, Note_on_c, 1, 52, 127
1, 34797, Note_off_c, 1, 64, 0
1, 34797, Note_off_c, 1, 73, 0
1, 34800, Note_on_c, 1, 66, 127
1, 34800, Note_on_c, 1, 72, 127
1, 34841, Note_off_c, 1, 52, 0
1, 34845, Note_off_c, 1, 66, 0
1, 34845, Note_off_c, 1, 72, 0
1, 34848, Note_on_c, 1, 68, 127
1, 34848, Note_on_c, 1, 73, 127
1, 34848, Note_on_c, 1, 52, 127
1, 34893, Note_off_c, 1, 73, 0
1, 34893, Note_off_c, 1, 52, 0
1, 34896, Note_on_c, 1, 75, 127
1, 34896, Note_on_c, 1, 54, 127
1, 34937, Note_off_c, 1, 68, 0
1, 34941, Note_off_c, 1, 75, 0
1, 34941, Note_off_c, 1, 54, 0
1, 34944, Note_on_c, 1, 61, 127
1, 34944, Note_on_c, 1, 76, 127
1, 34944, Note_on_c, 1, 56, 127
1, 35033, Note_off_c, 1, 61, 0
1, 35033, Note_off_c, 1, 56, 0
1, 35040, Note_on_c, 1, 73, 127
1, 35085, Note_off_c, 1, 73, 0
1, 35088, Note_on_c, 1, 72, 127
1, 35088, Note_on_c, 1, 57, 127
1, 35133, Note_off_c, 1, 72, 0
1, 35133, Note_off_c, 1, 57, 0
1, 35184, Note_on_c, 1, 75, 127
1, 35184, Note_on_c, 1, 54, 127
1, 35229, Note_off_c, 1, 75, 0
1, 35229, Note_off_c, 1, 54, 0
1, 35232, Note_on_c, 1, 52, 127
1, 35321, Note_off_c, 1, 52, 0
1, 35328, Note_on_c, 1, 69, 127
1, 35417, Note_off_c, 1, 76, 0
1, 35520, Note_on_c, 1, 78, 127
1, 35520, Note_on_c, 1, 51, 127
1, 35565, Note_off_c, 1, 78, 0
1, 35609, Note_off_c, 1, 51, 0
1, 35801, Note_off_c, 1, 69, 0
1, 36096, Note_on_c, 1, 80, 127
1, 36096, Note_on_c, 1, 73, 127
1, 36096, Note_on_c, 1, 52, 127
1, 36141, Note_off_c, 1, 73, 0
1, 36141, Note_off_c, 1, 52, 0
1, 36144, Note_on_c, 1, 75, 127
1, 36144, Note_on_c, 1, 54, 127
1, 36189, Note_off_c, 1, 75, 0
1, 36189, Note_off_c, 1, 54, 0
1, 36192, Note_on_c, 1, 76, 127
1, 36192, Note_on_c, 1, 56, 127
1, 36237, Note_off_c, 1, 76, 0
1, 36281, Note_off_c, 1, 56, 0
1, 36285, Note_off_c, 1, 80, 0
1, 36288, Note_on_c, 1, 76, 127
1, 36288, Note_on_c, 1, 85, 127
1, 36288, Note_on_c, 1, 56, 127
1, 36333, Note_off_c, 1, 85, 0
1, 36336, Note_on_c, 1, 80, 127
1, 36377, Note_off_c, 1, 76, 0
1, 36381, Note_off_c, 1, 80, 0
1, 36432, Note_on_c, 1, 78, 127
1, 36465, Note_off_c, 1, 56, 0
1, 36477, Note_off_c, 1, 78, 0
1, 36480, Note_on_c, 1, 80, 127
1, 36480, Note_on_c, 1, 76, 127
1, 36480, Note_on_c, 1, 49, 127
1, 36525, Note_off_c, 1, 76, 0
1, 36525, Note_off_c, 1, 49, 0
1, 36528, Note_on_c, 1, 78, 127
1, 36528, Note_on_c, 1, 51, 127
1, 36569, Note_off_c, 1, 80, 0
1, 36573, Note_off_c, 1, 78, 0
1, 36573, Note_off_c, 1, 51, 0
1, 36576, Note_on_c, 1, 80, 127
1, 36576, Note_on_c, 1, 52, 127
1, 36621, Note_off_c, 1, 80, 0
1, 36624, Note_on_c, 1, 81, 127
1, 36624, Note_on_c, 1, 85, 127
1, 36665, Note_off_c, 1, 52, 0
1, 36669, Note_off_c, 1, 81, 0
1, 36669, Note_off_c, 1, 85, 0
1, 36672, Note_on_c, 1, 80, 127
1, 36672, Note_on_c, 1, 85, 127
1, 36672, Note_on_c, 1, 52, 127
1, 36717, Note_off_c, 1, 80, 0
1, 36717, Note_off_c, 1, 85, 0
1, 36720, Note_on_c, 1, 78, 127
1, 36765, Note_off_c, 1, 78, 0
1, 36768, Note_on_c, 1, 76, 127
1, 36849, Note_off_c, 1, 52, 0
1, 36861, Note_off_c, 1, 76, 0
1, 36864, Note_on_c, 1, 78, 127
1, 36864, Note_on_c, 1, 72, 127
1, 36864, Note_on_c, 1, 51, 127
1, 36909, Note_off_c, 1, 72, 0
1, 36909, Note_off_c, 1, 51, 0
1, 36912, Note_on_c, 1, 73, 127
1, 36912, Note_on_c, 1, 52, 127
1, 36957, Note_off_c, 1, 73, 0
1, 36957, Note_off_c, 1, 52, 0
1, 36960, Note_on_c, 1, 75, 127
1, 36960, Note_on_c, 1, 54, 127
1, 37005, Note_off_c, 1, 75, 0
1, 37049, Note_off_c, 1, 54, 0
1, 37053, Note_off_c, 1, 78, 0
1, 37056, Note_on_c, 1, 75, 127
1, 37056, Note_on_c, 1, 81, 127
1, 37056, Note_on_c, 1, 54, 127
1, 37101, Note_off_c, 1, 81, 0
1, 37104, Note_on_c, 1, 78, 127
1, 37145, Note_off_c, 1, 75, 0
1, 37149, Note_off_c, 1, 78, 0
1, 37200, Note_on_c, 1, 76, 127
1, 37233, Note_off_c, 1, 54, 0
1, 37245, Note_off_c, 1, 76, 0
1, 37248, Note_on_c, 1, 78, 127
1, 37248, Note_on_c, 1, 75, 127
1, 37248, Note_on_c, 1, 48, 127
1, 37293, Note_off_c, 1, 78, 0
1, 37293, Note_off_c, 1, 75, 0
1, 37293, Note_off_c, 1, 48, 0
1, 37296, Note_on_c, 1, 76, 127
1, 37296, Note_on_c, 1, 81, 127
1, 37296, Note_on_c, 1, 49, 127
1, 37341, Note_off_c, 1, 76, 0
1, 37341, Note_off_c, 1, 81, 0
1, 37341, Note_off_c, 1, 49, 0
1, 37344, Note_on_c, 1, 78, 127
1, 37344, Note_on_c, 1, 73, 127
1, 37344, Note_on_c, 1, 51, 127
1, 37389, Note_off_c, 1, 78, 0
1, 37389, Note_off_c, 1, 73, 0
1, 37392, Note_on_c, 1, 80, 127
1, 37392, Note_on_c, 1, 81, 127
1, 37433, Note_off_c, 1, 51, 0
1, 37437, Note_off_c, 1, 80, 0
1, 37437, Note_off_c, 1, 81, 0
1, 37440, Note_on_c, 1, 78, 127
1, 37440, Note_on_c, 1, 72, 127
1, 37440, Note_on_c, 1, 51, 127
1, 37485, Note_off_c, 1, 78, 0
1, 37488, Note_on_c, 1, 76, 127
1, 37529, Note_off_c, 1, 72, 0
1, 37529, Note_off_c, 1, 51, 0
1, 37533, Note_off_c, 1, 76, 0
1, 37536, Note_on_c, 1, 75, 127
1, 37536, Note_on_c, 1, 80, 127
1, 37536, Note_on_c, 1, 44, 127
1, 37581, Note_off_c, 1, 75, 0
1, 37584, Note_on_c, 1, 78, 127
1, 37625, Note_off_c, 1, 44, 0
1, 37629, Note_off_c, 1, 78, 0
1, 37632, Note_on_c, 1, 76, 127
1, 37632, Note_on_c, 1, 49, 127
1, 37677, Note_off_c, 1, 76, 0
1, 37677, Note_off_c, 1, 49, 0
1, 37680, Note_on_c, 1, 48, 127
1, 37721, Note_off_c, 1, 80, 0
1, 37725, Note_off_c, 1, 48, 0
1, 37728, Note_on_c, 1, 76, 127
1, 37728, Note_on_c, 1, 81, 127
1, 37728, Note_on_c, 1, 49, 127
1, 37773, Note_off_c, 1, 76, 0
1, 37773, Note_off_c, 1, 81, 0
1, 37773, Note_off_c, 1, 49, 0
1, 37776, Note_on_c, 1, 78, 127
1, 37776, Note_on_c, 1, 80, 127
1, 37776, Note_on_c, 1, 51, 127
1, 37821, Note_off_c, 1, 78, 0
1, 37821, Note_off_c, 1, 80, 0
1, 37821, Note_off_c, 1, 51, 0
1, 37824, Note_on_c, 1, 76, 127
1, 37824, Note_on_c, 1, 81, 127
1, 37824, Note_on_c, 1, 49, 127
1, 37869, Note_off_c, 1, 76, 0
1, 37869, Note_off_c, 1, 49, 0
1, 37872, Note_on_c, 1, 75, 127
1, 37872, Note_on_c, 1, 51, 127
1, 37917, Note_off_c, 1, 75, 0
1, 37917, Note_off_c, 1, 51, 0
1, 37920, Note_on_c, 1, 73, 127
1, 37920, Note_on_c, 1, 52, 127
1, 37965, Note_off_c, 1, 73, 0
1, 37965, Note_off_c, 1, 52, 0
1, 38016, Note_on_c, 1, 78, 127
1, 38061, Note_off_c, 1, 78, 0
1, 38105, Note_off_c, 1, 81, 0
1, 38112, Note_on_c, 1, 78, 127
1, 38112, Note_on_c, 1, 83, 127
1, 38112, Note_on_c, 1, 51, 127
1, 38157, Note_off_c, 1, 78, 0
1, 38157, Note_off_c, 1, 83, 0
1, 38157, Note_off_c, 1, 51, 0
1, 38160, Note_on_c, 1, 80, 127
1, 38160, Note_on_c, 1, 81, 127
1, 38160, Note_on_c, 1, 52, 127
1, 38205, Note_off_c, 1, 80, 0
1, 38205, Note_off_c, 1, 81, 0
1, 38205, Note_off_c, 1, 52, 0
1, 38208, Note_on_c, 1, 78, 127
1, 38208, Note_on_c, 1, 83, 127
1, 38208, Note_on_c, 1, 51, 127
1, 38253, Note_off_c, 1, 78, 0
1, 38253, Note_off_c, 1, 51, 0
1, 38256, Note_on_c, 1, 76, 127
1, 38256, Note_on_c, 1, 52, 127
1, 38301, Note_off_c, 1, 76, 0
1, 38301, Note_off_c, 1, 52, 0
1, 38304, Note_on_c, 1, 75, 127
1, 38304, Note_on_c, 1, 54, 127
1, 38349, Note_off_c, 1, 75, 0
1, 38349, Note_off_c, 1, 54, 0
1, 38400, Note_on_c, 1, 80, 127
1, 38445, Note_off_c, 1, 80, 0
1, 38489, Note_off_c, 1, 83, 0
1, 38496, Note_on_c, 1, 80, 127
1, 38496, Note_on_c, 1, 85, 127
1, 38496, Note_on_c, 1, 52, 127
1, 38541, Note_off_c, 1, 80, 0
1, 38541, Note_off_c, 1, 85, 0
1, 38541, Note_off_c, 1, 52, 0
1, 38544, Note_on_c, 1, 81, 127
1, 38544, Note_on_c, 1, 84, 127
1, 38544, Note_on_c, 1, 54, 127
1, 38589, Note_off_c, 1, 81, 0
1, 38589, Note_off_c, 1, 84, 0
1, 38589, Note_off_c, 1, 54, 0
1, 38592, Note_on_c, 1, 80, 127
1, 38592, Note_on_c, 1, 85, 127
1, 38592, Note_on_c, 1, 52, 127
1, 38637, Note_off_c, 1, 80, 0
1, 38637, Note_off_c, 1, 52, 0
1, 38640, Note_on_c, 1, 78, 127
1, 38640, Note_on_c, 1, 54, 127
1, 38685, Note_off_c, 1, 78, 0
1, 38685, Note_off_c, 1, 54, 0
1, 38688, Note_on_c, 1, 76, 127
1, 38688, Note_on_c, 1, 56, 127
1, 38733, Note_off_c, 1, 76, 0
1, 38733, Note_off_c, 1, 56, 0
1, 38784, Note_on_c, 1, 75, 127
1, 38829, Note_off_c, 1, 85, 0
1, 38832, Note_on_c, 1, 87, 127
1, 38877, Note_off_c, 1, 87, 0
1, 38928, Note_on_c, 1, 83, 127
1, 38973, Note_off_c, 1, 83, 0
1, 38976, Note_on_c, 1, 81, 127
1, 39021, Note_off_c, 1, 81, 0
1, 39049, Note_off_c, 1, 75, 0
1, 39072, Note_on_c, 1, 75, 127
1, 39072, Note_on_c, 1, 78, 127
1, 39072, Note_on_c, 1, 57, 127
1, 39117, Note_off_c, 1, 78, 0
1, 39117, Note_off_c, 1, 57, 0
1, 39120, Note_on_c, 1, 81, 127
1, 39120, Note_on_c, 1, 54, 127
1, 39161, Note_off_c, 1, 75, 0
1, 39165, Note_off_c, 1, 81, 0
1, 39165, Note_off_c, 1, 54, 0
1, 39168, Note_on_c, 1, 83, 127
1, 39168, Note_on_c, 1, 75, 127
1, 39168, Note_on_c, 1, 56, 127
1, 39213, Note_off_c, 1, 56, 0
1, 39216, Note_on_c, 1, 54, 127
1, 39257, Note_off_c, 1, 83, 0
1, 39261, Note_off_c, 1, 54, 0
1, 39312, Note_on_c, 1, 85, 127
1, 39312, Note_on_c, 1, 57, 127
1, 39345, Note_off_c, 1, 75, 0
1, 39357, Note_off_c, 1, 85, 0
1, 39357, Note_off_c, 1, 57, 0
1, 39360, Note_on_c, 1, 83, 127
1, 39360, Note_on_c, 1, 56, 127
1, 39405, Note_off_c, 1, 56, 0
1, 39408, Note_on_c, 1, 81, 127
1, 39408, Note_on_c, 1, 57, 127
1, 39453, Note_off_c, 1, 81, 0
1, 39453, Note_off_c, 1, 57, 0
1, 39456, Note_on_c, 1, 80, 127
1, 39456, Note_on_c, 1, 59, 127
1, 39501, Note_off_c, 1, 59, 0
1, 39545, Note_off_c, 1, 80, 0
1, 39552, Note_on_c, 1, 85, 127
1, 39552, Note_on_c, 1, 53, 127
1, 39597, Note_off_c, 1, 83, 0
1, 39597, Note_off_c, 1, 53, 0
1, 39600, Note_on_c, 1, 51, 127
1, 39645, Note_off_c, 1, 51, 0
1, 39696, Note_on_c, 1, 54, 127
1, 39741, Note_off_c, 1, 54, 0
1, 39792, Note_on_c, 1, 78, 127
1, 39817, Note_off_c, 1, 85, 0
1, 39837, Note_off_c, 1, 78, 0
1, 39840, Note_on_c, 1, 83, 127
1, 39840, Note_on_c, 1, 77, 127
1, 39840, Note_on_c, 1, 56, 127
1, 39885, Note_off_c, 1, 77, 0
1, 39885, Note_off_c, 1, 56, 0
1, 39888, Note_on_c, 1, 80, 127
1, 39888, Note_on_c, 1, 53, 127
1, 39929, Note_off_c, 1, 83, 0
1, 39933, Note_off_c, 1, 80, 0
1, 39933, Note_off_c, 1, 53, 0
1, 39936, Note_on_c, 1, 81, 127
1, 39936, Note_on_c, 1, 73, 127
1, 39936, Note_on_c, 1, 54, 127
1, 39981, Note_off_c, 1, 54, 0
1, 39984, Note_on_c, 1, 53, 127
1, 40025, Note_off_c, 1, 81, 0
1, 40029, Note_off_c, 1, 53, 0
1, 40080, Note_on_c, 1, 83, 127
1, 40080, Note_on_c, 1, 56, 127
1, 40113, Note_off_c, 1, 73, 0
1, 40125, Note_off_c, 1, 83, 0
1, 40125, Note_off_c, 1, 56, 0
1, 40128, Note_on_c, 1, 81, 127
1, 40128, Note_on_c, 1, 54, 127
1, 40173, Note_off_c, 1, 54, 0
1, 40176, Note_on_c, 1, 80, 127
1, 40176, Note_on_c, 1, 56, 127
1, 40221, Note_off_c, 1, 80, 0
1, 40221, Note_off_c, 1, 56, 0
1, 40224, Note_on_c, 1, 78, 127
1, 40224, Note_on_c, 1, 57, 127
1, 40269, Note_off_c, 1, 57, 0
1, 40313, Note_off_c, 1, 78, 0
1, 40320, Note_on_c, 1, 83, 127
1, 40320, Note_on_c, 1, 50, 127
1, 40365, Note_off_c, 1, 81, 0
1, 40365, Note_off_c, 1, 50, 0
1, 40368, Note_on_c, 1, 49, 127
1, 40413, Note_off_c, 1, 49, 0
1, 40464, Note_on_c, 1, 52, 127
1, 40509, Note_off_c, 1, 52, 0
1, 40557, Note_off_c, 1, 83, 0
1, 40560, Note_on_c, 1, 85, 127
1, 40560, Note_on_c, 1, 76, 127
1, 40560, Note_on_c, 1, 52, 127
1, 40605, Note_off_c, 1, 85, 0
1, 40605, Note_off_c, 1, 76, 0
1, 40605, Note_off_c, 1, 52, 0
1, 40608, Note_on_c, 1, 83, 127
1, 40608, Note_on_c, 1, 74, 127
1, 40608, Note_on_c, 1, 54, 127
1, 40653, Note_off_c, 1, 83, 0
1, 40653, Note_off_c, 1, 74, 0
1, 40653, Note_off_c, 1, 54, 0
1, 40656, Note_on_c, 1, 81, 127
1, 40656, Note_on_c, 1, 73, 127
1, 40656, Note_on_c, 1, 50, 127
1, 40701, Note_off_c, 1, 81, 0
1, 40701, Note_off_c, 1, 73, 0
1, 40701, Note_off_c, 1, 50, 0
1, 40704, Note_on_c, 1, 80, 127
1, 40704, Note_on_c, 1, 71, 127
1, 40704, Note_on_c, 1, 52, 127
1, 40749, Note_off_c, 1, 80, 0
1, 40749, Note_off_c, 1, 71, 0
1, 40752, Note_on_c, 1, 78, 127
1, 40752, Note_on_c, 1, 69, 127
1, 40793, Note_off_c, 1, 52, 0
1, 40797, Note_off_c, 1, 78, 0
1, 40797, Note_off_c, 1, 69, 0
1, 40800, Note_on_c, 1, 80, 127
1, 40800, Note_on_c, 1, 71, 127
1, 40800, Note_on_c, 1, 64, 127
1, 40845, Note_off_c, 1, 80, 0
1, 40845, Note_off_c, 1, 71, 0
1, 40848, Note_on_c, 1, 81, 127
1, 40848, Note_on_c, 1, 73, 127
1, 40889, Note_off_c, 1, 64, 0
1, 40893, Note_off_c, 1, 81, 0
1, 40893, Note_off_c, 1, 73, 0
1, 40896, Note_on_c, 1, 80, 127
1, 40896, Note_on_c, 1, 71, 127
1, 40896, Note_on_c, 1, 59, 127
1, 40941, Note_off_c, 1, 80, 0
1, 40941, Note_off_c, 1, 71, 0
1, 40941, Note_off_c, 1, 59, 0
1, 40944, Note_on_c, 1, 78, 127
1, 40944, Note_on_c, 1, 69, 127
1, 40944, Note_on_c, 1, 61, 127
1, 40989, Note_off_c, 1, 78, 0
1, 40989, Note_off_c, 1, 69, 0
1, 40989, Note_off_c, 1, 61, 0
1, 40992, Note_on_c, 1, 76, 127
1, 40992, Note_on_c, 1, 68, 127
1, 40992, Note_on_c, 1, 62, 127
1, 41037, Note_off_c, 1, 76, 0
1, 41037, Note_off_c, 1, 68, 0
1, 41040, Note_on_c, 1, 80, 127
1, 41040, Note_on_c, 1, 71, 127
1, 41081, Note_off_c, 1, 62, 0
1, 41085, Note_off_c, 1, 80, 0
1, 41085, Note_off_c, 1, 71, 0
1, 41088, Note_on_c, 1, 81, 127
1, 41088, Note_on_c, 1, 73, 127
1, 41088, Note_on_c, 1, 61, 127
1, 41133, Note_off_c, 1, 81, 0
1, 41133, Note_off_c, 1, 73, 0
1, 41136, Note_on_c, 1, 80, 127
1, 41136, Note_on_c, 1, 71, 127
1, 41177, Note_off_c, 1, 61, 0
1, 41181, Note_off_c, 1, 80, 0
1, 41181, Note_off_c, 1, 71, 0
1, 41184, Note_on_c, 1, 81, 127
1, 41184, Note_on_c, 1, 73, 127
1, 41184, Note_on_c, 1, 57, 127
1, 41229, Note_off_c, 1, 81, 0
1, 41229, Note_off_c, 1, 73, 0
1, 41232, Note_on_c, 1, 83, 127
1, 41232, Note_on_c, 1, 74, 127
1, 41273, Note_off_c, 1, 57, 0
1, 41277, Note_off_c, 1, 83, 0
1, 41277, Note_off_c, 1, 74, 0
1, 41280, Note_on_c, 1, 81, 127
1, 41280, Note_on_c, 1, 73, 127
1, 41280, Note_on_c, 1, 59, 127
1, 41325, Note_off_c, 1, 81, 0
1, 41325, Note_off_c, 1, 73, 0
1, 41328, Note_on_c, 1, 80, 127
1, 41328, Note_on_c, 1, 71, 127
1, 41369, Note_off_c, 1, 59, 0
1, 41373, Note_off_c, 1, 80, 0
1, 41373, Note_off_c, 1, 71, 0
1, 41376, Note_on_c, 1, 78, 127
1, 41376, Note_on_c, 1, 69, 127
1, 41376, Note_on_c, 1, 61, 127
1, 41421, Note_off_c, 1, 78, 0
1, 41421, Note_off_c, 1, 69, 0
1, 41424, Note_on_c, 1, 77, 127
1, 41424, Note_on_c, 1, 68, 127
1, 41465, Note_off_c, 1, 61, 0
1, 41469, Note_off_c, 1, 77, 0
1, 41469, Note_off_c, 1, 68, 0
1, 41472, Note_on_c, 1, 78, 127
1, 41472, Note_on_c, 1, 66, 127
1, 41472, Note_on_c, 1, 62, 127
1, 41517, Note_off_c, 1, 78, 0
1, 41517, Note_off_c, 1, 66, 0
1, 41520, Note_on_c, 1, 77, 127
1, 41520, Note_on_c, 1, 68, 127
1, 41561, Note_off_c, 1, 62, 0
1, 41565, Note_off_c, 1, 77, 0
1, 41565, Note_off_c, 1, 68, 0
1, 41568, Note_on_c, 1, 78, 127
1, 41568, Note_on_c, 1, 69, 127
1, 41568, Note_on_c, 1, 61, 127
1, 41613, Note_off_c, 1, 78, 0
1, 41613, Note_off_c, 1, 69, 0
1, 41616, Note_on_c, 1, 80, 127
1, 41616, Note_on_c, 1, 66, 127
1, 41657, Note_off_c, 1, 61, 0
1, 41661, Note_off_c, 1, 80, 0
1, 41661, Note_off_c, 1, 66, 0
1, 41664, Note_on_c, 1, 78, 127
1, 41664, Note_on_c, 1, 71, 127
1, 41664, Note_on_c, 1, 62, 127
1, 41709, Note_off_c, 1, 78, 0
1, 41712, Note_on_c, 1, 81, 127
1, 41753, Note_off_c, 1, 62, 0
1, 41757, Note_off_c, 1, 81, 0
1, 41760, Note_on_c, 1, 80, 127
1, 41760, Note_on_c, 1, 59, 127
1, 41805, Note_off_c, 1, 80, 0
1, 41849, Note_off_c, 1, 59, 0
1, 41856, Note_on_c, 1, 77, 127
1, 41856, Note_on_c, 1, 61, 127
1, 41901, Note_off_c, 1, 71, 0
1, 41901, Note_off_c, 1, 77, 0
1, 41904, Note_on_c, 1, 75, 127
1, 41904, Note_on_c, 1, 69, 127
1, 41945, Note_off_c, 1, 61, 0
1, 41949, Note_off_c, 1, 75, 0
1, 41949, Note_off_c, 1, 69, 0
1, 41952, Note_on_c, 1, 77, 127
1, 41952, Note_on_c, 1, 68, 127
1, 41952, Note_on_c, 1, 49, 127
1, 41997, Note_off_c, 1, 77, 0
1, 41997, Note_off_c, 1, 68, 0
1, 41997, Note_off_c, 1, 49, 0
1, 42000, Note_on_c, 1, 78, 127
1, 42000, Note_on_c, 1, 66, 127
1, 42000, Note_on_c, 1, 51, 127
1, 42045, Note_off_c, 1, 78, 0
1, 42045, Note_off_c, 1, 66, 0
1, 42045, Note_off_c, 1, 51, 0
1, 42048, Note_on_c, 1, 80, 127
1, 42048, Note_on_c, 1, 73, 127
1, 42048, Note_on_c, 1, 53, 127
1, 42093, Note_off_c, 1, 80, 0
1, 42096, Note_on_c, 1, 81, 127
1, 42137, Note_off_c, 1, 73, 0
1, 42137, Note_off_c, 1, 53, 0
1, 42141, Note_off_c, 1, 81, 0
1, 42144, Note_on_c, 1, 83, 127
1, 42144, Note_on_c, 1, 49, 127
1, 42189, Note_off_c, 1, 83, 0
1, 42192, Note_on_c, 1, 80, 127
1, 42233, Note_off_c, 1, 49, 0
1, 42237, Note_off_c, 1, 80, 0
1, 42240, Note_on_c, 1, 81, 127
1, 42240, Note_on_c, 1, 73, 127
1, 42240, Note_on_c, 1, 54, 127
1, 42285, Note_off_c, 1, 81, 0
1, 42288, Note_on_c, 1, 83, 127
1, 42329, Note_off_c, 1, 54, 0
1, 42333, Note_off_c, 1, 83, 0
1, 42336, Note_on_c, 1, 85, 127
1, 42336, Note_on_c, 1, 53, 127
1, 42417, Note_off_c, 1, 73, 0
1, 42425, Note_off_c, 1, 85, 0
1, 42425, Note_off_c, 1, 53, 0
1, 42432, Note_on_c, 1, 85, 127
1, 42432, Note_on_c, 1, 69, 127
1, 42432, Note_on_c, 1, 54, 127
1, 42521, Note_off_c, 1, 69, 0
1, 42521, Note_off_c, 1, 54, 0
1, 42528, Note_on_c, 1, 56, 127
1, 42576, Note_on_c, 1, 71, 127
1, 42609, Note_off_c, 1, 85, 0
1, 42617, Note_off_c, 1, 56, 0
1, 42621, Note_off_c, 1, 71, 0
1, 42624, Note_on_c, 1, 78, 127
1, 42624, Note_on_c, 1, 73, 127
1, 42624, Note_on_c, 1, 57, 127
1, 42669, Note_off_c, 1, 78, 0
1, 42672, Note_on_c, 1, 80, 127
1, 42713, Note_off_c, 1, 73, 0
1, 42713, Note_off_c, 1, 57, 0
1, 42717, Note_off_c, 1, 80, 0
1, 42720, Note_on_c, 1, 81, 127
1, 42720, Note_on_c, 1, 73, 127
1, 42720, Note_on_c, 1, 54, 127
1, 42765, Note_off_c, 1, 73, 0
1, 42768, Note_on_c, 1, 74, 127
1, 42809, Note_off_c, 1, 81, 0
1, 42809, Note_off_c, 1, 54, 0
1, 42813, Note_off_c, 1, 74, 0
1, 42816, Note_on_c, 1, 81, 127
1, 42816, Note_on_c, 1, 73, 127
1, 42816, Note_on_c, 1, 51, 127
1, 42861, Note_off_c, 1, 73, 0
1, 42864, Note_on_c, 1, 71, 127
1, 42905, Note_off_c, 1, 51, 0
1, 42909, Note_off_c, 1, 71, 0
1, 42912, Note_on_c, 1, 69, 127
1, 42912, Note_on_c, 1, 54, 127
1, 42993, Note_off_c, 1, 81, 0
1, 43001, Note_off_c, 1, 69, 0
1, 43008, Note_on_c, 1, 80, 127
1, 43053, Note_off_c, 1, 80, 0
1, 43097, Note_off_c, 1, 54, 0
1, 43104, Note_on_c, 1, 83, 127
1, 43104, Note_on_c, 1, 56, 127
1, 43149, Note_off_c, 1, 56, 0
1, 43193, Note_off_c, 1, 83, 0
1, 43200, Note_on_c, 1, 83, 127
1, 43200, Note_on_c, 1, 68, 127
1, 43200, Note_on_c, 1, 53, 127
1, 43245, Note_off_c, 1, 53, 0
1, 43248, Note_on_c, 1, 54, 127
1, 43289, Note_off_c, 1, 68, 0
1, 43293, Note_off_c, 1, 54, 0
1, 43296, Note_on_c, 1, 56, 127
1, 43344, Note_on_c, 1, 69, 127
1, 43377, Note_off_c, 1, 83, 0
1, 43385, Note_off_c, 1, 56, 0
1, 43389, Note_off_c, 1, 69, 0
1, 43392, Note_on_c, 1, 77, 127
1, 43392, Note_on_c, 1, 71, 127
1, 43392, Note_on_c, 1, 49, 127
1, 43437, Note_off_c, 1, 77, 0
1, 43437, Note_off_c, 1, 71, 0
1, 43440, Note_on_c, 1, 78, 127
1, 43440, Note_on_c, 1, 69, 127
1, 43481, Note_off_c, 1, 49, 0
1, 43485, Note_off_c, 1, 78, 0
1, 43485, Note_off_c, 1, 69, 0
1, 43488, Note_on_c, 1, 80, 127
1, 43488, Note_on_c, 1, 71, 127
1, 43488, Note_on_c, 1, 53, 127
1, 43533, Note_off_c, 1, 71, 0
1, 43536, Note_on_c, 1, 73, 127
1, 43577, Note_off_c, 1, 80, 0
1, 43577, Note_off_c, 1, 53, 0
1, 43581, Note_off_c, 1, 73, 0
1, 43584, Note_on_c, 1, 80, 127
1, 43584, Note_on_c, 1, 71, 127
1, 43584, Note_on_c, 1, 49, 127
1, 43629, Note_off_c, 1, 71, 0
1, 43632, Note_on_c, 1, 69, 127
1, 43673, Note_off_c, 1, 49, 0
1, 43677, Note_off_c, 1, 69, 0
1, 43680, Note_on_c, 1, 68, 127
1, 43680, Note_on_c, 1, 53, 127
1, 43725, Note_off_c, 1, 68, 0
1, 43761, Note_off_c, 1, 80, 0
1, 43769, Note_off_c, 1, 53, 0
1, 43776, Note_on_c, 1, 78, 127
1, 43776, Note_on_c, 1, 69, 127
1, 43776, Note_on_c, 1, 42, 127
1, 43821, Note_off_c, 1, 69, 0
1, 43824, Note_on_c, 1, 68, 127
1, 43865, Note_off_c, 1, 42, 0
1, 43869, Note_off_c, 1, 68, 0
1, 43872, Note_on_c, 1, 49, 127
1, 43920, Note_on_c, 1, 71, 127
1, 43953, Note_off_c, 1, 78, 0
1, 43961, Note_off_c, 1, 49, 0
1, 43965, Note_off_c, 1, 71, 0
1, 43968, Note_on_c, 1, 73, 127
1, 43968, Note_on_c, 1, 69, 127
1, 43968, Note_on_c, 1, 54, 127
1, 44013, Note_off_c, 1, 69, 0
1, 44016, Note_on_c, 1, 68, 127
1, 44057, Note_off_c, 1, 73, 0
1, 44057, Note_off_c, 1, 54, 0
1, 44061, Note_off_c, 1, 68, 0
1, 44064, Note_on_c, 1, 73, 127
1, 44064, Note_on_c, 1, 66, 127
1, 44064, Note_on_c, 1, 57, 127
1, 44109, Note_off_c, 1, 73, 0
1, 44109, Note_off_c, 1, 66, 0
1, 44112, Note_on_c, 1, 75, 127
1, 44112, Note_on_c, 1, 69, 127
1, 44153, Note_off_c, 1, 57, 0
1, 44157, Note_off_c, 1, 75, 0
1, 44157, Note_off_c, 1, 69, 0
1, 44160, Note_on_c, 1, 76, 127
1, 44160, Note_on_c, 1, 68, 127
1, 44160, Note_on_c, 1, 61, 127
1, 44205, Note_off_c, 1, 68, 0
1, 44208, Note_on_c, 1, 66, 127
1, 44249, Note_off_c, 1, 76, 0
1, 44249, Note_off_c, 1, 61, 0
1, 44253, Note_off_c, 1, 66, 0
1, 44256, Note_on_c, 1, 76, 127
1, 44256, Note_on_c, 1, 68, 127
1, 44256, Note_on_c, 1, 61, 127
1, 44301, Note_off_c, 1, 76, 0
1, 44301, Note_off_c, 1, 68, 0
1, 44301, Note_off_c, 1, 61, 0
1, 44304, Note_on_c, 1, 78, 127
1, 44304, Note_on_c, 1, 69, 127
1, 44304, Note_on_c, 1, 59, 127
1, 44349, Note_off_c, 1, 78, 0
1, 44349, Note_off_c, 1, 69, 0
1, 44349, Note_off_c, 1, 59, 0
1, 44352, Note_on_c, 1, 76, 127
1, 44352, Note_on_c, 1, 68, 127
1, 44352, Note_on_c, 1, 61, 127
1, 44397, Note_off_c, 1, 76, 0
1, 44397, Note_off_c, 1, 68, 0
1, 44400, Note_on_c, 1, 75, 127
1, 44400, Note_on_c, 1, 71, 127
1, 44441, Note_off_c, 1, 61, 0
1, 44445, Note_off_c, 1, 75, 0
1, 44445, Note_off_c, 1, 71, 0
1, 44448, Note_on_c, 1, 73, 127
1, 44448, Note_on_c, 1, 70, 127
1, 44448, Note_on_c, 1, 54, 127
1, 44493, Note_off_c, 1, 70, 0
1, 44537, Note_off_c, 1, 54, 0
1, 44541, Note_off_c, 1, 73, 0
1, 44544, Note_on_c, 1, 75, 127
1, 44544, Note_on_c, 1, 71, 127
1, 44544, Note_on_c, 1, 47, 127
1, 44589, Note_off_c, 1, 75, 0
1, 44589, Note_off_c, 1, 47, 0
1, 44592, Note_on_c, 1, 76, 127
1, 44592, Note_on_c, 1, 49, 127
1, 44637, Note_off_c, 1, 76, 0
1, 44637, Note_off_c, 1, 49, 0
1, 44640, Note_on_c, 1, 78, 127
1, 44640, Note_on_c, 1, 51, 127
1, 44685, Note_off_c, 1, 51, 0
1, 44688, Note_on_c, 1, 52, 127
1, 44721, Note_off_c, 1, 71, 0
1, 44729, Note_off_c, 1, 78, 0
1, 44733, Note_off_c, 1, 52, 0
1, 44736, Note_on_c, 1, 78, 127
1, 44736, Note_on_c, 1, 66, 127
1, 44736, Note_on_c, 1, 51, 127
1, 44781, Note_off_c, 1, 51, 0
1, 44784, Note_on_c, 1, 49, 127
1, 44825, Note_off_c, 1, 66, 0
1, 44829, Note_off_c, 1, 49, 0
1, 44832, Note_on_c, 1, 47, 127
1, 44877, Note_off_c, 1, 47, 0
1, 44880, Note_on_c, 1, 68, 127
1, 44913, Note_off_c, 1, 78, 0
1, 44925, Note_off_c, 1, 68, 0
1, 44928, Note_on_c, 1, 69, 127
1, 44928, Note_on_c, 1, 49, 127
1, 44973, Note_off_c, 1, 49, 0
1, 44976, Note_on_c, 1, 47, 127
1, 45017, Note_off_c, 1, 69, 0
1, 45021, Note_off_c, 1, 47, 0
1, 45024, Note_on_c, 1, 76, 127
1, 45024, Note_on_c, 1, 69, 127
1, 45024, Note_on_c, 1, 49, 127
1, 45069, Note_off_c, 1, 76, 0
1, 45069, Note_off_c, 1, 69, 0
1, 45069, Note_off_c, 1, 49, 0
1, 45072, Note_on_c, 1, 75, 127
1, 45072, Note_on_c, 1, 71, 127
1, 45072, Note_on_c, 1, 51, 127
1, 45117, Note_off_c, 1, 75, 0
1, 45117, Note_off_c, 1, 71, 0
1, 45117, Note_off_c, 1, 51, 0
1, 45120, Note_on_c, 1, 76, 127
1, 45120, Note_on_c, 1, 69, 127
1, 45120, Note_on_c, 1, 49, 127
1, 45165, Note_off_c, 1, 69, 0
1, 45165, Note_off_c, 1, 49, 0
1, 45168, Note_on_c, 1, 68, 127
1, 45168, Note_on_c, 1, 52, 127
1, 45209, Note_off_c, 1, 76, 0
1, 45213, Note_off_c, 1, 68, 0
1, 45213, Note_off_c, 1, 52, 0
1, 45216, Note_on_c, 1, 78, 127
1, 45216, Note_on_c, 1, 66, 127
1, 45216, Note_on_c, 1, 51, 127
1, 45261, Note_off_c, 1, 51, 0
1, 45264, Note_on_c, 1, 54, 127
1, 45305, Note_off_c, 1, 78, 0
1, 45305, Note_off_c, 1, 66, 0
1, 45309, Note_off_c, 1, 54, 0
1, 45312, Note_on_c, 1, 71, 127
1, 45312, Note_on_c, 1, 68, 127
1, 45312, Note_on_c, 1, 52, 127
1, 45357, Note_off_c, 1, 68, 0
1, 45360, Note_on_c, 1, 69, 127
1, 45401, Note_off_c, 1, 71, 0
1, 45405, Note_off_c, 1, 69, 0
1, 45408, Note_on_c, 1, 76, 127
1, 45453, Note_off_c, 1, 76, 0
1, 45456, Note_on_c, 1, 78, 127
1, 45489, Note_off_c, 1, 52, 0
1, 45501, Note_off_c, 1, 78, 0
1, 45504, Note_on_c, 1, 80, 127
1, 45504, Note_on_c, 1, 71, 127
1, 45504, Note_on_c, 1, 47, 127
1, 45549, Note_off_c, 1, 80, 0
1, 45552, Note_on_c, 1, 81, 127
1, 45593, Note_off_c, 1, 47, 0
1, 45597, Note_off_c, 1, 81, 0
1, 45600, Note_on_c, 1, 83, 127
1, 45648, Note_on_c, 1, 49, 127
1, 45681, Note_off_c, 1, 71, 0
1, 45689, Note_off_c, 1, 83, 0
1, 45693, Note_off_c, 1, 49, 0
1, 45696, Note_on_c, 1, 80, 127
1, 45696, Note_on_c, 1, 64, 127
1, 45696, Note_on_c, 1, 50, 127
1, 45741, Note_off_c, 1, 80, 0
1, 45741, Note_off_c, 1, 64, 0
1, 45744, Note_on_c, 1, 81, 127
1, 45744, Note_on_c, 1, 66, 127
1, 45785, Note_off_c, 1, 50, 0
1, 45789, Note_off_c, 1, 81, 0
1, 45789, Note_off_c, 1, 66, 0
1, 45792, Note_on_c, 1, 83, 127
1, 45792, Note_on_c, 1, 68, 127
1, 45792, Note_on_c, 1, 50, 127
1, 45837, Note_off_c, 1, 50, 0
1, 45840, Note_on_c, 1, 52, 127
1, 45881, Note_off_c, 1, 83, 0
1, 45881, Note_off_c, 1, 68, 0
1, 45885, Note_off_c, 1, 52, 0
1, 45888, Note_on_c, 1, 76, 127
1, 45888, Note_on_c, 1, 68, 127
1, 45888, Note_on_c, 1, 50, 127
1, 45933, Note_off_c, 1, 50, 0
1, 45936, Note_on_c, 1, 49, 127
1, 45981, Note_off_c, 1, 49, 0
1, 45984, Note_on_c, 1, 47, 127
1, 46065, Note_off_c, 1, 76, 0
1, 46065, Note_off_c, 1, 68, 0
1, 46073, Note_off_c, 1, 47, 0
1, 46080, Note_on_c, 1, 64, 127
1, 46080, Note_on_c, 1, 69, 127
1, 46080, Note_on_c, 1, 49, 127
1, 46125, Note_off_c, 1, 69, 0
1, 46125, Note_off_c, 1, 49, 0
1, 46128, Note_on_c, 1, 71, 127
1, 46128, Note_on_c, 1, 50, 127
1, 46173, Note_off_c, 1, 71, 0
1, 46173, Note_off_c, 1, 50, 0
1, 46176, Note_on_c, 1, 73, 127
1, 46176, Note_on_c, 1, 52, 127
1, 46200, Note_off_c, 1, 52, 0
1, 46221, Note_off_c, 1, 73, 0
1, 46224, Note_on_c, 1, 76, 127
1, 46257, Note_off_c, 1, 64, 0
1, 46269, Note_off_c, 1, 76, 0
1, 46272, Note_on_c, 1, 61, 127
1, 46272, Note_on_c, 1, 81, 127
1, 46272, Note_on_c, 1, 52, 127
1, 46317, Note_off_c, 1, 81, 0
1, 46320, Note_on_c, 1, 76, 127
1, 46361, Note_off_c, 1, 61, 0
1, 46365, Note_off_c, 1, 76, 0
1, 46416, Note_on_c, 1, 62, 127
1, 46416, Note_on_c, 1, 74, 127
1, 46449, Note_off_c, 1, 52, 0
1, 46461, Note_off_c, 1, 62, 0
1, 46461, Note_off_c, 1, 74, 0
1, 46464, Note_on_c, 1, 64, 127
1, 46464, Note_on_c, 1, 73, 127
1, 46464, Note_on_c, 1, 45, 127
1, 46509, Note_off_c, 1, 73, 0
1, 46509, Note_off_c, 1, 45, 0
1, 46512, Note_on_c, 1, 74, 127
1, 46512, Note_on_c, 1, 47, 127
1, 46553, Note_off_c, 1, 64, 0
1, 46557, Note_off_c, 1, 74, 0
1, 46557, Note_off_c, 1, 47, 0
1, 46560, Note_on_c, 1, 64, 127
1, 46560, Note_on_c, 1, 76, 127
1, 46560, Note_on_c, 1, 49, 127
1, 46584, Note_off_c, 1, 49, 0
1, 46605, Note_off_c, 1, 64, 0
1, 46605, Note_off_c, 1, 76, 0
1, 46608, Note_on_c, 1, 66, 127
1, 46608, Note_on_c, 1, 81, 127
1, 46653, Note_off_c, 1, 66, 0
1, 46653, Note_off_c, 1, 81, 0
1, 46656, Note_on_c, 1, 64, 127
1, 46656, Note_on_c, 1, 81, 127
1, 46656, Note_on_c, 1, 49, 127
1, 46701, Note_off_c, 1, 64, 0
1, 46701, Note_off_c, 1, 81, 0
1, 46704, Note_on_c, 1, 62, 127
1, 46704, Note_on_c, 1, 76, 127
1, 46749, Note_off_c, 1, 62, 0
1, 46749, Note_off_c, 1, 76, 0
1, 46752, Note_on_c, 1, 61, 127
1, 46800, Note_on_c, 1, 73, 127
1, 46833, Note_off_c, 1, 49, 0
1, 46841, Note_off_c, 1, 61, 0
1, 46845, Note_off_c, 1, 73, 0
1, 46848, Note_on_c, 1, 62, 127
1, 46848, Note_on_c, 1, 68, 127
1, 46848, Note_on_c, 1, 47, 127
1, 46893, Note_off_c, 1, 68, 0
1, 46893, Note_off_c, 1, 47, 0
1, 46896, Note_on_c, 1, 69, 127
1, 46896, Note_on_c, 1, 49, 127
1, 46941, Note_off_c, 1, 69, 0
1, 46941, Note_off_c, 1, 49, 0
1, 46944, Note_on_c, 1, 71, 127
1, 46944, Note_on_c, 1, 50, 127
1, 46968, Note_off_c, 1, 50, 0
1, 46989, Note_off_c, 1, 71, 0
1, 46992, Note_on_c, 1, 74, 127
1, 47025, Note_off_c, 1, 62, 0
1, 47037, Note_off_c, 1, 74, 0
1, 47040, Note_on_c, 1, 59, 127
1, 47040, Note_on_c, 1, 78, 127
1, 47040, Note_on_c, 1, 50, 127
1, 47085, Note_off_c, 1, 78, 0
1, 47088, Note_on_c, 1, 74, 127
1, 47129, Note_off_c, 1, 59, 0
1, 47133, Note_off_c, 1, 74, 0
1, 47184, Note_on_c, 1, 61, 127
1, 47184, Note_on_c, 1, 73, 127
1, 47217, Note_off_c, 1, 50, 0
1, 47229, Note_off_c, 1, 61, 0
1, 47229, Note_off_c, 1, 73, 0
1, 47232, Note_on_c, 1, 62, 127
1, 47232, Note_on_c, 1, 71, 127
1, 47232, Note_on_c, 1, 44, 127
1, 47277, Note_off_c, 1, 62, 0
1, 47277, Note_off_c, 1, 71, 0
1, 47277, Note_off_c, 1, 44, 0
1, 47280, Note_on_c, 1, 61, 127
1, 47280, Note_on_c, 1, 78, 127
1, 47280, Note_on_c, 1, 45, 127
1, 47325, Note_off_c, 1, 61, 0
1, 47325, Note_off_c, 1, 78, 0
1, 47325, Note_off_c, 1, 45, 0
1, 47328, Note_on_c, 1, 62, 127
1, 47328, Note_on_c, 1, 69, 127
1, 47328, Note_on_c, 1, 47, 127
1, 47352, Note_off_c, 1, 47, 0
1, 47373, Note_off_c, 1, 62, 0
1, 47373, Note_off_c, 1, 69, 0
1, 47376, Note_on_c, 1, 64, 127
1, 47376, Note_on_c, 1, 78, 127
1, 47421, Note_off_c, 1, 64, 0
1, 47421, Note_off_c, 1, 78, 0
1, 47424, Note_on_c, 1, 62, 127
1, 47424, Note_on_c, 1, 68, 127
1, 47424, Note_on_c, 1, 47, 127
1, 47469, Note_off_c, 1, 62, 0
1, 47472, Note_on_c, 1, 61, 127
1, 47513, Note_off_c, 1, 47, 0
1, 47517, Note_off_c, 1, 61, 0
1, 47520, Note_on_c, 1, 59, 127
1, 47520, Note_on_c, 1, 40, 127
1, 47557, Note_off_c, 1, 68, 0
1, 47565, Note_off_c, 1, 59, 0
1, 47568, Note_on_c, 1, 66, 127
1, 47591, Note_off_c, 1, 66, 0
1, 47609, Note_off_c, 1, 40, 0
1, 47616, Note_on_c, 1, 61, 127
1, 47616, Note_on_c, 1, 69, 127
1, 47616, Note_on_c, 1, 45, 127
1, 47661, Note_off_c, 1, 61, 0
1, 47664, Note_on_c, 1, 59, 127
1, 47705, Note_off_c, 1, 45, 0
1, 47709, Note_off_c, 1, 59, 0
1, 47712, Note_on_c, 1, 49, 127
1, 47760, Note_on_c, 1, 62, 127
1, 47793, Note_off_c, 1, 69, 0
1, 47801, Note_off_c, 1, 49, 0
1, 47805, Note_off_c, 1, 62, 0
1, 47808, Note_on_c, 1, 61, 127
1, 47808, Note_on_c, 1, 54, 127
1, 47853, Note_off_c, 1, 61, 0
1, 47856, Note_on_c, 1, 59, 127
1, 47901, Note_off_c, 1, 59, 0
1, 47904, Note_on_c, 1, 57, 127
1, 47949, Note_off_c, 1, 57, 0
1, 47985, Note_off_c, 1, 54, 0
1, 48000, Note_on_c, 1, 62, 127
1, 48000, Note_on_c, 1, 47, 127
1, 48045, Note_off_c, 1, 62, 0
1, 48048, Note_on_c, 1, 61, 127
1, 48089, Note_off_c, 1, 47, 0
1, 48093, Note_off_c, 1, 61, 0
1, 48096, Note_on_c, 1, 62, 127
1, 48096, Note_on_c, 1, 50, 127
1, 48141, Note_off_c, 1, 62, 0
1, 48144, Note_on_c, 1, 64, 127
1, 48185, Note_off_c, 1, 50, 0
1, 48189, Note_off_c, 1, 64, 0
1, 48192, Note_on_c, 1, 62, 127
1, 48192, Note_on_c, 1, 56, 127
1, 48237, Note_off_c, 1, 62, 0
1, 48240, Note_on_c, 1, 61, 127
1, 48285, Note_off_c, 1, 61, 0
1, 48288, Note_on_c, 1, 59, 127
1, 48333, Note_off_c, 1, 59, 0
1, 48369, Note_off_c, 1, 56, 0
1, 48384, Note_on_c, 1, 64, 127
1, 48384, Note_on_c, 1, 49, 127
1, 48429, Note_off_c, 1, 64, 0
1, 48432, Note_on_c, 1, 62, 127
1, 48473, Note_off_c, 1, 49, 0
1, 48477, Note_off_c, 1, 62, 0
1, 48480, Note_on_c, 1, 64, 127
1, 48480, Note_on_c, 1, 52, 127
1, 48525, Note_off_c, 1, 64, 0
1, 48528, Note_on_c, 1, 66, 127
1, 48569, Note_off_c, 1, 52, 0
1, 48573, Note_off_c, 1, 66, 0
1, 48576, Note_on_c, 1, 64, 127
1, 48576, Note_on_c, 1, 57, 127
1, 48621, Note_off_c, 1, 64, 0
1, 48624, Note_on_c, 1, 62, 127
1, 48669, Note_off_c, 1, 62, 0
1, 48672, Note_on_c, 1, 61, 127
1, 48717, Note_off_c, 1, 61, 0
1, 48768, Note_on_c, 1, 59, 127
1, 48857, Note_off_c, 1, 57, 0
1, 48857, Note_off_c, 1, 59, 0
1, 48864, Note_on_c, 1, 61, 127
1, 48864, Note_on_c, 1, 56, 127
1, 48909, Note_off_c, 1, 61, 0
1, 48909, Note_off_c, 1, 56, 0
1, 48912, Note_on_c, 1, 63, 127
1, 48912, Note_on_c, 1, 54, 127
1, 48957, Note_off_c, 1, 63, 0
1, 48957, Note_off_c, 1, 54, 0
1, 48960, Note_on_c, 1, 64, 127
1, 48960, Note_on_c, 1, 56, 127
1, 49005, Note_off_c, 1, 64, 0
1, 49005, Note_off_c, 1, 56, 0
1, 49008, Note_on_c, 1, 66, 127
1, 49008, Note_on_c, 1, 57, 127
1, 49053, Note_off_c, 1, 66, 0
1, 49053, Note_off_c, 1, 57, 0
1, 49056, Note_on_c, 1, 68, 127
1, 49056, Note_on_c, 1, 56, 127
1, 49101, Note_off_c, 1, 68, 0
1, 49101, Note_off_c, 1, 56, 0
1, 49104, Note_on_c, 1, 69, 127
1, 49104, Note_on_c, 1, 54, 127
1, 49149, Note_off_c, 1, 69, 0
1, 49149, Note_off_c, 1, 54, 0
1, 49152, Note_on_c, 1, 68, 127
1, 49152, Note_on_c, 1, 83, 127
1, 49152, Note_on_c, 1, 52, 127
1, 49197, Note_off_c, 1, 68, 0
1, 49200, Note_on_c, 1, 69, 127
1, 49241, Note_off_c, 1, 52, 0
1, 49245, Note_off_c, 1, 69, 0
1, 49248, Note_on_c, 1, 71, 127
1, 49248, Note_on_c, 1, 51, 127
1, 49329, Note_off_c, 1, 83, 0
1, 49337, Note_off_c, 1, 71, 0
1, 49337, Note_off_c, 1, 51, 0
1, 49344, Note_on_c, 1, 71, 127
1, 49344, Note_on_c, 1, 80, 127
1, 49344, Note_on_c, 1, 52, 127
1, 49433, Note_off_c, 1, 80, 0
1, 49433, Note_off_c, 1, 52, 0
1, 49440, Note_on_c, 1, 54, 127
1, 49488, Note_on_c, 1, 81, 127
1, 49521, Note_off_c, 1, 71, 0
1, 49529, Note_off_c, 1, 54, 0
1, 49533, Note_off_c, 1, 81, 0
1, 49536, Note_on_c, 1, 65, 127
1, 49536, Note_on_c, 1, 83, 127
1, 49536, Note_on_c, 1, 56, 127
1, 49581, Note_off_c, 1, 65, 0
1, 49584, Note_on_c, 1, 66, 127
1, 49625, Note_off_c, 1, 83, 0
1, 49625, Note_off_c, 1, 56, 0
1, 49629, Note_off_c, 1, 66, 0
1, 49632, Note_on_c, 1, 68, 127
1, 49632, Note_on_c, 1, 83, 127
1, 49632, Note_on_c, 1, 53, 127
1, 49677, Note_off_c, 1, 83, 0
1, 49680, Note_on_c, 1, 85, 127
1, 49721, Note_off_c, 1, 68, 0
1, 49721, Note_off_c, 1, 53, 0
1, 49725, Note_off_c, 1, 85, 0
1, 49728, Note_on_c, 1, 68, 127
1, 49728, Note_on_c, 1, 83, 127
1, 49728, Note_on_c, 1, 49, 127
1, 49773, Note_off_c, 1, 83, 0
1, 49776, Note_on_c, 1, 81, 127
1, 49817, Note_off_c, 1, 49, 0
1, 49821, Note_off_c, 1, 81, 0
1, 49824, Note_on_c, 1, 80, 127
1, 49824, Note_on_c, 1, 53, 127
1, 49905, Note_off_c, 1, 68, 0
1, 49913, Note_off_c, 1, 80, 0
1, 49913, Note_off_c, 1, 53, 0
1, 49920, Note_on_c, 1, 66, 127
1, 49920, Note_on_c, 1, 81, 127
1, 49920, Note_on_c, 1, 54, 127
1, 49965, Note_off_c, 1, 66, 0
1, 49968, Note_on_c, 1, 68, 127
1, 50009, Note_off_c, 1, 54, 0
1, 50013, Note_off_c, 1, 68, 0
1, 50016, Note_on_c, 1, 69, 127
1, 50016, Note_on_c, 1, 52, 127
1, 50097, Note_off_c, 1, 81, 0
1, 50105, Note_off_c, 1, 69, 0
1, 50105, Note_off_c, 1, 52, 0
1, 50112, Note_on_c, 1, 69, 127
1, 50112, Note_on_c, 1, 78, 127
1, 50112, Note_on_c, 1, 51, 127
1, 50201, Note_off_c, 1, 78, 0
1, 50201, Note_off_c, 1, 51, 0
1, 50208, Note_on_c, 1, 49, 127
1, 50256, Note_on_c, 1, 80, 127
1, 50289, Note_off_c, 1, 69, 0
1, 50297, Note_off_c, 1, 49, 0
1, 50301, Note_off_c, 1, 80, 0
1, 50304, Note_on_c, 1, 63, 127
1, 50304, Note_on_c, 1, 81, 127
1, 50304, Note_on_c, 1, 47, 127
1, 50349, Note_off_c, 1, 63, 0
1, 50349, Note_off_c, 1, 81, 0
1, 50352, Note_on_c, 1, 64, 127
1, 50352, Note_on_c, 1, 80, 127
1, 50393, Note_off_c, 1, 47, 0
1, 50397, Note_off_c, 1, 64, 0
1, 50397, Note_off_c, 1, 80, 0
1, 50400, Note_on_c, 1, 66, 127
1, 50400, Note_on_c, 1, 81, 127
1, 50400, Note_on_c, 1, 51, 127
1, 50445, Note_off_c, 1, 81, 0
1, 50448, Note_on_c, 1, 83, 127
1, 50489, Note_off_c, 1, 66, 0
1, 50489, Note_off_c, 1, 51, 0
1, 50493, Note_off_c, 1, 83, 0
1, 50496, Note_on_c, 1, 66, 127
1, 50496, Note_on_c, 1, 81, 127
1, 50496, Note_on_c, 1, 47, 127
1, 50541, Note_off_c, 1, 81, 0
1, 50544, Note_on_c, 1, 80, 127
1, 50585, Note_off_c, 1, 47, 0
1, 50589, Note_off_c, 1, 80, 0
1, 50592, Note_on_c, 1, 78, 127
1, 50592, Note_on_c, 1, 51, 127
1, 50637, Note_off_c, 1, 78, 0
1, 50681, Note_off_c, 1, 51, 0
1, 50688, Note_on_c, 1, 40, 127
1, 50777, Note_off_c, 1, 66, 0
1, 50777, Note_off_c, 1, 40, 0
1, 50784, Note_on_c, 1, 64, 127
1, 50784, Note_on_c, 1, 80, 127
1, 50784, Note_on_c, 1, 44, 127
1, 50829, Note_off_c, 1, 64, 0
1, 50829, Note_off_c, 1, 80, 0
1, 50832, Note_on_c, 1, 63, 127
1, 50832, Note_on_c, 1, 81, 127
1, 50873, Note_off_c, 1, 44, 0
1, 50877, Note_off_c, 1, 63, 0
1, 50877, Note_off_c, 1, 81, 0
1, 50880, Note_on_c, 1, 64, 127
1, 50880, Note_on_c, 1, 80, 127
1, 50880, Note_on_c, 1, 49, 127
1, 50925, Note_off_c, 1, 80, 0
1, 50928, Note_on_c, 1, 78, 127
1, 50969, Note_off_c, 1, 64, 0
1, 50973, Note_off_c, 1, 78, 0
1, 50976, Note_on_c, 1, 68, 127
1, 50976, Note_on_c, 1, 76, 127
1, 51021, Note_off_c, 1, 76, 0
1, 51057, Note_off_c, 1, 49, 0
1, 51072, Note_on_c, 1, 81, 127
1, 51072, Note_on_c, 1, 42, 127
1, 51117, Note_off_c, 1, 81, 0
1, 51161, Note_off_c, 1, 68, 0
1, 51161, Note_off_c, 1, 42, 0
1, 51168, Note_on_c, 1, 66, 127
1, 51168, Note_on_c, 1, 81, 127
1, 51168, Note_on_c, 1, 45, 127
1, 51213, Note_off_c, 1, 66, 0
1, 51213, Note_off_c, 1, 81, 0
1, 51216, Note_on_c, 1, 64, 127
1, 51216, Note_on_c, 1, 83, 127
1, 51257, Note_off_c, 1, 45, 0
1, 51261, Note_off_c, 1, 64, 0
1, 51261, Note_off_c, 1, 83, 0
1, 51264, Note_on_c, 1, 66, 127
1, 51264, Note_on_c, 1, 81, 127
1, 51264, Note_on_c, 1, 51, 127
1, 51309, Note_off_c, 1, 81, 0
1, 51312, Note_on_c, 1, 80, 127
1, 51353, Note_off_c, 1, 66, 0
1, 51357, Note_off_c, 1, 80, 0
1, 51360, Note_on_c, 1, 69, 127
1, 51360, Note_on_c, 1, 78, 127
1, 51405, Note_off_c, 1, 78, 0
1, 51441, Note_off_c, 1, 51, 0
1, 51456, Note_on_c, 1, 83, 127
1, 51456, Note_on_c, 1, 44, 127
1, 51501, Note_off_c, 1, 83, 0
1, 51545, Note_off_c, 1, 69, 0
1, 51545, Note_off_c, 1, 44, 0
1, 51552, Note_on_c, 1, 68, 127
1, 51552, Note_on_c, 1, 83, 127
1, 51552, Note_on_c, 1, 47, 127
1, 51597, Note_off_c, 1, 68, 0
1, 51597, Note_off_c, 1, 83, 0
1, 51600, Note_on_c, 1, 66, 127
1, 51600, Note_on_c, 1, 85, 127
1, 51641, Note_off_c, 1, 47, 0
1, 51645, Note_off_c, 1, 66, 0
1, 51645, Note_off_c, 1, 85, 0
1, 51648, Note_on_c, 1, 68, 127
1, 51648, Note_on_c, 1, 83, 127
1, 51648, Note_on_c, 1, 52, 127
1, 51693, Note_off_c, 1, 68, 0
1, 51693, Note_off_c, 1, 83, 0
1, 51696, Note_on_c, 1, 66, 127
1, 51696, Note_on_c, 1, 81, 127
1, 51737, Note_off_c, 1, 52, 0
1, 51741, Note_off_c, 1, 66, 0
1, 51741, Note_off_c, 1, 81, 0
1, 51744, Note_on_c, 1, 64, 127
1, 51744, Note_on_c, 1, 80, 127
1, 51744, Note_on_c, 1, 45, 127
1, 51789, Note_off_c, 1, 64, 0
1, 51789, Note_off_c, 1, 80, 0
1, 51792, Note_on_c, 1, 66, 127
1, 51792, Note_on_c, 1, 81, 127
1, 51833, Note_off_c, 1, 45, 0
1, 51837, Note_off_c, 1, 66, 0
1, 51837, Note_off_c, 1, 81, 0
1, 51840, Note_on_c, 1, 63, 127
1, 51840, Note_on_c, 1, 78, 127
1, 51840, Note_on_c, 1, 47, 127
1, 51885, Note_off_c, 1, 63, 0
1, 51888, Note_on_c, 1, 61, 127
1, 51929, Note_off_c, 1, 78, 0
1, 51929, Note_off_c, 1, 47, 0
1, 51933, Note_off_c, 1, 61, 0
1, 51936, Note_on_c, 1, 63, 127
1, 51936, Note_on_c, 1, 71, 127
1, 51936, Note_on_c, 1, 59, 127
1, 51981, Note_off_c, 1, 63, 0
1, 51981, Note_off_c, 1, 71, 0
1, 51984, Note_on_c, 1, 64, 127
1, 51984, Note_on_c, 1, 73, 127
1, 52025, Note_off_c, 1, 59, 0
1, 52029, Note_off_c, 1, 64, 0
1, 52029, Note_off_c, 1, 73, 0
1, 52032, Note_on_c, 1, 66, 127
1, 52032, Note_on_c, 1, 75, 127
1, 52032, Note_on_c, 1, 57, 127
1, 52077, Note_off_c, 1, 66, 0
1, 52077, Note_off_c, 1, 75, 0
1, 52080, Note_on_c, 1, 68, 127
1, 52080, Note_on_c, 1, 76, 127
1, 52121, Note_off_c, 1, 57, 0
1, 52125, Note_off_c, 1, 68, 0
1, 52125, Note_off_c, 1, 76, 0
1, 52128, Note_on_c, 1, 69, 127
1, 52128, Note_on_c, 1, 78, 127
1, 52128, Note_on_c, 1, 56, 127
1, 52173, Note_off_c, 1, 69, 0
1, 52173, Note_off_c, 1, 78, 0
1, 52176, Note_on_c, 1, 71, 127
1, 52176, Note_on_c, 1, 80, 127
1, 52217, Note_off_c, 1, 56, 0
1, 52221, Note_off_c, 1, 71, 0
1, 52221, Note_off_c, 1, 80, 0
1, 52224, Note_on_c, 1, 73, 127
1, 52224, Note_on_c, 1, 81, 127
1, 52224, Note_on_c, 1, 54, 127
1, 52269, Note_off_c, 1, 73, 0
1, 52269, Note_off_c, 1, 81, 0
1, 52272, Note_on_c, 1, 74, 127
1, 52272, Note_on_c, 1, 83, 127
1, 52313, Note_off_c, 1, 54, 0
1, 52317, Note_off_c, 1, 74, 0
1, 52317, Note_off_c, 1, 83, 0
1, 52320, Note_on_c, 1, 73, 127
1, 52320, Note_on_c, 1, 85, 127
1, 52320, Note_on_c, 1, 57, 127
1, 52365, Note_off_c, 1, 73, 0
1, 52365, Note_off_c, 1, 57, 0
1, 52368, Note_on_c, 1, 71, 127
1, 52368, Note_on_c, 1, 56, 127
1, 52409, Note_off_c, 1, 85, 0
1, 52413, Note_off_c, 1, 71, 0
1, 52413, Note_off_c, 1, 56, 0
1, 52416, Note_on_c, 1, 69, 127
1, 52416, Note_on_c, 1, 85, 127
1, 52416, Note_on_c, 1, 54, 127
1, 52461, Note_off_c, 1, 69, 0
1, 52461, Note_off_c, 1, 54, 0
1, 52464, Note_on_c, 1, 68, 127
1, 52464, Note_on_c, 1, 56, 127
1, 52509, Note_off_c, 1, 68, 0
1, 52509, Note_off_c, 1, 56, 0
1, 52512, Note_on_c, 1, 66, 127
1, 52512, Note_on_c, 1, 57, 127
1, 52557, Note_off_c, 1, 66, 0
1, 52560, Note_on_c, 1, 64, 127
1, 52593, Note_off_c, 1, 85, 0
1, 52601, Note_off_c, 1, 57, 0
1, 52605, Note_off_c, 1, 64, 0
1, 52608, Note_on_c, 1, 63, 127
1, 52608, Note_on_c, 1, 78, 127
1, 52608, Note_on_c, 1, 57, 127
1, 52653, Note_off_c, 1, 63, 0
1, 52653, Note_off_c, 1, 78, 0
1, 52656, Note_on_c, 1, 61, 127
1, 52656, Note_on_c, 1, 80, 127
1, 52697, Note_off_c, 1, 57, 0
1, 52701, Note_off_c, 1, 61, 0
1, 52701, Note_off_c, 1, 80, 0
1, 52704, Note_on_c, 1, 59, 127
1, 52704, Note_on_c, 1, 81, 127
1, 52704, Note_on_c, 1, 51, 127
1, 52749, Note_off_c, 1, 59, 0
1, 52752, Note_on_c, 1, 61, 127
1, 52793, Note_off_c, 1, 81, 0
1, 52793, Note_off_c, 1, 51, 0
1, 52797, Note_off_c, 1, 61, 0
1, 52800, Note_on_c, 1, 63, 127
1, 52800, Note_on_c, 1, 81, 127
1, 52800, Note_on_c, 1, 47, 127
1, 52845, Note_off_c, 1, 63, 0
1, 52848, Note_on_c, 1, 66, 127
1, 52889, Note_off_c, 1, 47, 0
1, 52893, Note_off_c, 1, 66, 0
1, 52896, Note_on_c, 1, 68, 127
1, 52896, Note_on_c, 1, 51, 127
1, 52941, Note_off_c, 1, 68, 0
1, 52944, Note_on_c, 1, 69, 127
1, 52977, Note_off_c, 1, 81, 0
1, 52985, Note_off_c, 1, 51, 0
1, 52989, Note_off_c, 1, 69, 0
1, 52992, Note_on_c, 1, 71, 127
1, 52992, Note_on_c, 1, 80, 127
1, 52992, Note_on_c, 1, 40, 127
1, 53037, Note_off_c, 1, 71, 0
1, 53037, Note_off_c, 1, 80, 0
1, 53040, Note_on_c, 1, 73, 127
1, 53040, Note_on_c, 1, 81, 127
1, 53081, Note_off_c, 1, 40, 0
1, 53085, Note_off_c, 1, 73, 0
1, 53085, Note_off_c, 1, 81, 0
1, 53088, Note_on_c, 1, 71, 127
1, 53088, Note_on_c, 1, 83, 127
1, 53088, Note_on_c, 1, 56, 127
1, 53133, Note_off_c, 1, 71, 0
1, 53133, Note_off_c, 1, 56, 0
1, 53136, Note_on_c, 1, 69, 127
1, 53136, Note_on_c, 1, 54, 127
1, 53177, Note_off_c, 1, 83, 0
1, 53181, Note_off_c, 1, 69, 0
1, 53181, Note_off_c, 1, 54, 0
1, 53184, Note_on_c, 1, 68, 127
1, 53184, Note_on_c, 1, 83, 127
1, 53184, Note_on_c, 1, 52, 127
1, 53229, Note_off_c, 1, 68, 0
1, 53229, Note_off_c, 1, 52, 0
1, 53232, Note_on_c, 1, 66, 127
1, 53232, Note_on_c, 1, 54, 127
1, 53277, Note_off_c, 1, 66, 0
1, 53277, Note_off_c, 1, 54, 0
1, 53280, Note_on_c, 1, 64, 127
1, 53280, Note_on_c, 1, 56, 127
1, 53325, Note_off_c, 1, 64, 0
1, 53328, Note_on_c, 1, 62, 127
1, 53361, Note_off_c, 1, 83, 0
1, 53369, Note_off_c, 1, 56, 0
1, 53373, Note_off_c, 1, 62, 0
1, 53376, Note_on_c, 1, 61, 127
1, 53376, Note_on_c, 1, 76, 127
1, 53376, Note_on_c, 1, 56, 127
1, 53421, Note_off_c, 1, 61, 0
1, 53421, Note_off_c, 1, 76, 0
1, 53424, Note_on_c, 1, 59, 127
1, 53424, Note_on_c, 1, 78, 127
1, 53465, Note_off_c, 1, 56, 0
1, 53469, Note_off_c, 1, 59, 0
1, 53469, Note_off_c, 1, 78, 0
1, 53472, Note_on_c, 1, 57, 127
1, 53472, Note_on_c, 1, 80, 127
1, 53472, Note_on_c, 1, 49, 127
1, 53517, Note_off_c, 1, 57, 0
1, 53520, Note_on_c, 1, 59, 127
1, 53561, Note_off_c, 1, 80, 0
1, 53561, Note_off_c, 1, 49, 0
1, 53565, Note_off_c, 1, 59, 0
1, 53568, Note_on_c, 1, 61, 127
1, 53568, Note_on_c, 1, 80, 127
1, 53568, Note_on_c, 1, 45, 127
1, 53613, Note_off_c, 1, 61, 0
1, 53616, Note_on_c, 1, 64, 127
1, 53657, Note_off_c, 1, 45, 0
1, 53661, Note_off_c, 1, 64, 0
1, 53664, Note_on_c, 1, 66, 127
1, 53664, Note_on_c, 1, 49, 127
1, 53709, Note_off_c, 1, 66, 0
1, 53712, Note_on_c, 1, 68, 127
1, 53753, Note_off_c, 1, 49, 0
1, 53757, Note_off_c, 1, 68, 0
1, 53760, Note_on_c, 1, 69, 127
1, 53760, Note_on_c, 1, 42, 127
1, 53805, Note_off_c, 1, 69, 0
1, 53808, Note_on_c, 1, 71, 127
1, 53849, Note_off_c, 1, 80, 0
1, 53849, Note_off_c, 1, 42, 0
1, 53853, Note_off_c, 1, 71, 0
1, 53856, Note_on_c, 1, 73, 127
1, 53856, Note_on_c, 1, 78, 127
1, 53856, Note_on_c, 1, 44, 127
1, 53901, Note_off_c, 1, 78, 0
1, 53904, Note_on_c, 1, 76, 127
1, 53945, Note_off_c, 1, 73, 0
1, 53945, Note_off_c, 1, 44, 0
1, 53949, Note_off_c, 1, 76, 0
1, 53952, Note_on_c, 1, 73, 127
1, 53952, Note_on_c, 1, 78, 127
1, 53952, Note_on_c, 1, 45, 127
1, 53997, Note_off_c, 1, 78, 0
1, 54000, Note_on_c, 1, 80, 127
1, 54041, Note_off_c, 1, 45, 0
1, 54045, Note_off_c, 1, 80, 0
1, 54048, Note_on_c, 1, 81, 127
1, 54048, Note_on_c, 1, 42, 127
1, 54137, Note_off_c, 1, 81, 0
1, 54137, Note_off_c, 1, 42, 0
1, 54144, Note_on_c, 1, 75, 127
1, 54144, Note_on_c, 1, 47, 127
1, 54189, Note_off_c, 1, 73, 0
1, 54192, Note_on_c, 1, 66, 127
1, 54233, Note_off_c, 1, 75, 0
1, 54233, Note_off_c, 1, 47, 0
1, 54237, Note_off_c, 1, 66, 0
1, 54240, Note_on_c, 1, 68, 127
1, 54240, Note_on_c, 1, 73, 127
1, 54240, Note_on_c, 1, 52, 127
1, 54285, Note_off_c, 1, 68, 0
1, 54285, Note_off_c, 1, 73, 0
1, 54288, Note_on_c, 1, 69, 127
1, 54288, Note_on_c, 1, 71, 127
1, 54329, Note_off_c, 1, 52, 0
1, 54333, Note_off_c, 1, 69, 0
1, 54333, Note_off_c, 1, 71, 0
1, 54336, Note_on_c, 1, 68, 127
1, 54336, Note_on_c, 1, 83, 127
1, 54336, Note_on_c, 1, 51, 127
1, 54381, Note_off_c, 1, 68, 0
1, 54384, Note_on_c, 1, 66, 127
1, 54425, Note_off_c, 1, 83, 0
1, 54425, Note_off_c, 1, 51, 0
1, 54429, Note_off_c, 1, 66, 0
1, 54432, Note_on_c, 1, 64, 127
1, 54432, Note_on_c, 1, 81, 127
1, 54432, Note_on_c, 1, 47, 127
1, 54477, Note_off_c, 1, 64, 0
1, 54480, Note_on_c, 1, 63, 127
1, 54521, Note_off_c, 1, 81, 0
1, 54521, Note_off_c, 1, 47, 0
1, 54525, Note_off_c, 1, 63, 0
1, 54528, Note_on_c, 1, 64, 127
1, 54528, Note_on_c, 1, 80, 127
1, 54528, Note_on_c, 1, 52, 127
1, 54573, Note_off_c, 1, 80, 0
1, 54576, Note_on_c, 1, 81, 127
1, 54617, Note_off_c, 1, 52, 0
1, 54621, Note_off_c, 1, 81, 0
1, 54624, Note_on_c, 1, 83, 127
1, 54624, Note_on_c, 1, 45, 127
1, 54661, Note_off_c, 1, 64, 0
1, 54669, Note_off_c, 1, 83, 0
1, 54672, Note_on_c, 1, 66, 127
1, 54713, Note_off_c, 1, 45, 0
1, 54717, Note_off_c, 1, 66, 0
1, 54720, Note_on_c, 1, 63, 127
1, 54720, Note_on_c, 1, 81, 127
1, 54720, Note_on_c, 1, 47, 127
1, 54765, Note_off_c, 1, 81, 0
1, 54768, Note_on_c, 1, 80, 127
1, 54809, Note_off_c, 1, 47, 0
1, 54813, Note_off_c, 1, 80, 0
1, 54816, Note_on_c, 1, 35, 127
1, 54853, Note_off_c, 1, 63, 0
1, 54864, Note_on_c, 1, 64, 127
1, 54864, Note_on_c, 1, 78, 127
1, 54905, Note_off_c, 1, 35, 0
1, 54909, Note_off_c, 1, 64, 0
1, 54909, Note_off_c, 1, 78, 0
1, 54912, Note_on_c, 1, 64, 127
1, 54912, Note_on_c, 1, 76, 127
1, 54912, Note_on_c, 1, 40, 127
1, 55266, Note_off_c, 1, 64, 0
1, 55266, Note_off_c, 1, 76, 0
1, 55266, Note_off_c, 1, 40, 0
1, 55266, End_track
0, 0, End_of_file