0, 0, Header, 1, 1, 480
1, 0, Start_track
1, 0, Title_t, "Test"
1, 0, Tempo, 500000
1, 0, Instrument_name_t, "Church Organ"
1, 0, Note_on_c, 1, 69, 127
1, 0, Note_on_c, 1, 45, 127
1, 89, Note_off_c, 1, 45, 0
1, 96, Note_on_c, 1, 47, 127
1, 177, Note_off_c, 1, 69, 0
1, 185, Note_off_c, 1, 47, 0
1, 192, Note_on_c, 1, 64, 127
1, 192, Note_on_c, 1, 49, 127
1, 281, Note_off_c, 1, 64, 0
1, 281, Note_off_c, 1, 49, 0
1, 288, Note_on_c, 1, 69, 127
1, 288, Note_on_c, 1, 45, 127
1, 377, Note_off_c, 1, 69, 0
1, 377, Note_off_c, 1, 45, 0
1, 384, Note_on_c, 1, 71, 127
1, 384, Note_on_c, 1, 52, 127
1, 429, Note_off_c, 1, 71, 0
1, 432, Note_on_c, 1, 69, 127
1, 473, Note_off_c, 1, 52, 0
1, 477, Note_off_c, 1, 69, 0
1, 480, Note_on_c, 1, 68, 127
1, 480, Note_on_c, 1, 54, 127
1, 525, Note_off_c, 1, 68, 0
1, 528, Note_on_c, 1, 66, 127
1, 569, Note_off_c, 1, 54, 0
1, 573, Note_off_c, 1, 66, 0
1, 576, Note_on_c, 1, 64, 127
1, 576, Note_on_c, 1, 56, 127
1, 665, Note_off_c, 1, 56, 0
1, 672, Note_on_c, 1, 52, 127
1, 753, Note_off_c, 1, 64, 0
1, 761, Note_off_c, 1, 52, 0
1, 768, Note_on_c, 1, 73, 127
1, 768, Note_on_c, 1, 57, 127
1, 792, Note_off_c, 1, 73, 0
1, 792, Note_on_c, 1, 74, 127
1, 816, Note_off_c, 1, 74, 0
1, 857, Note_off_c, 1, 57, 0
1, 864, Note_on_c, 1, 71, 127
1, 864, Note_on_c, 1, 56, 127
1, 909, Note_off_c, 1, 71, 0
1, 912, Note_on_c, 1, 73, 127
1, 953, Note_off_c, 1, 56, 0
1, 957, Note_off_c, 1, 73, 0
1, 960, Note_on_c, 1, 74, 127
1, 960, Note_on_c, 1, 54, 127
1, 1005, Note_off_c, 1, 74, 0
1, 1008, Note_on_c, 1, 73, 127
1, 1053, Note_off_c, 1, 73, 0
1, 1056, Note_on_c, 1, 71, 127
1, 1101, Note_off_c, 1, 71, 0
1, 1104, Note_on_c, 1, 69, 127
1, 1137, Note_off_c, 1, 54, 0
1, 1149, Note_off_c, 1, 69, 0
1, 1152, Note_on_c, 1, 76, 127
1, 1152, Note_on_c, 1, 49, 127
1, 1197, Note_off_c, 1, 76, 0
1, 1200, Note_on_c, 1, 74, 127
1, 1245, Note_off_c, 1, 74, 0
1, 1248, Note_on_c, 1, 73, 127
1, 1293, Note_off_c, 1, 73, 0
1, 1296, Note_on_c, 1, 71, 127
1, 1329, Note_off_c, 1, 49, 0
1, 1341, Note_off_c, 1, 71, 0
1, 1344, Note_on_c, 1, 69, 127
1, 1344, Note_on_c, 1, 50, 127
1, 1433, Note_off_c, 1, 69, 0
1, 1433, Note_off_c, 1, 50, 0
1, 1440, Note_on_c, 1, 74, 127
1, 1440, Note_on_c, 1, 47, 127
1, 1529, Note_off_c, 1, 47, 0
1, 1536, Note_on_c, 1, 52, 127
1, 1625, Note_off_c, 1, 74, 0
1, 1625, Note_off_c, 1, 52, 0
1, 1632, Note_on_c, 1, 73, 127
1, 1632, Note_on_c, 1, 54, 127
1, 1721, Note_off_c, 1, 73, 0
1, 1721, Note_off_c, 1, 54, 0
1, 1728, Note_on_c, 1, 71, 127
1, 1728, Note_on_c, 1, 50, 127
1, 1773, Note_off_c, 1, 71, 0
1, 1776, Note_on_c, 1, 73, 127
1, 1817, Note_off_c, 1, 50, 0
1, 1821, Note_off_c, 1, 73, 0
1, 1824, Note_on_c, 1, 74, 127
1, 1824, Note_on_c, 1, 52, 127
1, 1869, Note_off_c, 1, 74, 0
1, 1872, Note_on_c, 1, 71, 127
1, 1913, Note_off_c, 1, 52, 0
1, 1917, Note_off_c, 1, 71, 0
1, 1920, Note_on_c, 1, 73, 127
1, 1920, Note_on_c, 1, 45, 127
1, 1965, Note_off_c, 1, 73, 0
1, 1968, Note_on_c, 1, 71, 127
1, 2009, Note_off_c, 1, 45, 0
1, 2013, Note_off_c, 1, 71, 0
1, 2016, Note_on_c, 1, 69, 127
1, 2016, Note_on_c, 1, 57, 127
1, 2061, Note_off_c, 1, 69, 0
1, 2064, Note_on_c, 1, 71, 127
1, 2105, Note_off_c, 1, 57, 0
1, 2109, Note_off_c, 1, 71, 0
1, 2112, Note_on_c, 1, 73, 127
1, 2112, Note_on_c, 1, 56, 127
1, 2157, Note_off_c, 1, 73, 0
1, 2160, Note_on_c, 1, 75, 127
1, 2201, Note_off_c, 1, 56, 0
1, 2205, Note_off_c, 1, 75, 0
1, 2208, Note_on_c, 1, 76, 127
1, 2208, Note_on_c, 1, 54, 127
1, 2253, Note_off_c, 1, 76, 0
1, 2256, Note_on_c, 1, 78, 127
1, 2297, Note_off_c, 1, 54, 0
1, 2301, Note_off_c, 1, 78, 0
1, 2304, Note_on_c, 1, 80, 127
1, 2304, Note_on_c, 1, 76, 127
1, 2304, Note_on_c, 1, 52, 127
1, 2349, Note_off_c, 1, 80, 0
1, 2352, Note_on_c, 1, 81, 127
1, 2393, Note_off_c, 1, 52, 0
1, 2397, Note_off_c, 1, 81, 0
1, 2400, Note_on_c, 1, 78, 127
1, 2400, Note_on_c, 1, 64, 127
1, 2445, Note_off_c, 1, 78, 0
1, 2481, Note_off_c, 1, 76, 0
1, 2489, Note_off_c, 1, 64, 0
1, 2496, Note_on_c, 1, 81, 127
1, 2496, Note_on_c, 1, 71, 127
1, 2496, Note_on_c, 1, 63, 127
1, 2541, Note_off_c, 1, 81, 0
1, 2544, Note_on_c, 1, 80, 127
1, 2585, Note_off_c, 1, 71, 0
1, 2585, Note_off_c, 1, 63, 0
1, 2589, Note_off_c, 1, 80, 0
1, 2592, Note_on_c, 1, 78, 127
1, 2592, Note_on_c, 1, 76, 127
1, 2592, Note_on_c, 1, 61, 127
1, 2637, Note_off_c, 1, 78, 0
1, 2681, Note_off_c, 1, 61, 0
1, 2685, Note_off_c, 1, 76, 0
1, 2688, Note_on_c, 1, 83, 127
1, 2688, Note_on_c, 1, 78, 127
1, 2688, Note_on_c, 1, 63, 127
1, 2733, Note_off_c, 1, 78, 0
1, 2736, Note_on_c, 1, 76, 127
1, 2777, Note_off_c, 1, 63, 0
1, 2781, Note_off_c, 1, 76, 0
1, 2784, Note_on_c, 1, 75, 127
1, 2784, Note_on_c, 1, 59, 127
1, 2829, Note_off_c, 1, 75, 0
1, 2832, Note_on_c, 1, 73, 127
1, 2873, Note_off_c, 1, 59, 0
1, 2877, Note_off_c, 1, 73, 0
1, 2880, Note_on_c, 1, 71, 127
1, 2880, Note_on_c, 1, 56, 127
1, 2925, Note_off_c, 1, 83, 0
1, 2928, Note_on_c, 1, 81, 127
1, 2969, Note_off_c, 1, 56, 0
1, 2973, Note_off_c, 1, 81, 0
1, 2976, Note_on_c, 1, 80, 127
1, 2976, Note_on_c, 1, 57, 127
1, 3021, Note_off_c, 1, 80, 0
1, 3021, Note_off_c, 1, 57, 0
1, 3057, Note_off_c, 1, 71, 0
1, 3072, Note_on_c, 1, 76, 127
1, 3072, Note_on_c, 1, 80, 127
1, 3072, Note_on_c, 1, 61, 127
1, 3096, Note_off_c, 1, 80, 0
1, 3096, Note_on_c, 1, 81, 127
1, 3120, Note_off_c, 1, 81, 0
1, 3161, Note_off_c, 1, 61, 0
1, 3168, Note_on_c, 1, 78, 127
1, 3168, Note_on_c, 1, 64, 127
1, 3213, Note_off_c, 1, 78, 0
1, 3257, Note_off_c, 1, 64, 0
1, 3360, Note_on_c, 1, 57, 127
1, 3449, Note_off_c, 1, 57, 0
1, 3456, Note_on_c, 1, 83, 127
1, 3456, Note_on_c, 1, 56, 127
1, 3501, Note_off_c, 1, 83, 0
1, 3545, Note_off_c, 1, 56, 0
1, 3552, Note_on_c, 1, 52, 127
1, 3641, Note_off_c, 1, 52, 0
1, 3696, Note_on_c, 1, 74, 127
1, 3737, Note_off_c, 1, 76, 0
1, 3741, Note_off_c, 1, 74, 0
1, 3744, Note_on_c, 1, 73, 127
1, 3744, Note_on_c, 1, 81, 127
1, 3744, Note_on_c, 1, 56, 127
1, 3789, Note_off_c, 1, 73, 0
1, 3792, Note_on_c, 1, 71, 127
1, 3833, Note_off_c, 1, 56, 0
1, 3837, Note_off_c, 1, 71, 0
1, 3840, Note_on_c, 1, 54, 127
1, 3888, Note_on_c, 1, 75, 127
1, 3929, Note_off_c, 1, 81, 0
1, 3929, Note_off_c, 1, 54, 0
1, 3933, Note_off_c, 1, 75, 0
1, 3936, Note_on_c, 1, 76, 127
1, 3936, Note_on_c, 1, 80, 127
1, 3936, Note_on_c, 1, 56, 127
1, 4025, Note_off_c, 1, 80, 0
1, 4025, Note_off_c, 1, 56, 0
1, 4032, Note_on_c, 1, 78, 127
1, 4032, Note_on_c, 1, 57, 127
1, 4077, Note_off_c, 1, 78, 0
1, 4113, Note_off_c, 1, 76, 0
1, 4121, Note_off_c, 1, 57, 0
1, 4128, Note_on_c, 1, 75, 127
1, 4128, Note_on_c, 1, 81, 127
1, 4128, Note_on_c, 1, 59, 127
1, 4173, Note_off_c, 1, 81, 0
1, 4176, Note_on_c, 1, 78, 127
1, 4217, Note_off_c, 1, 75, 0
1, 4217, Note_off_c, 1, 59, 0
1, 4221, Note_off_c, 1, 78, 0
1, 4224, Note_on_c, 1, 76, 127
1, 4224, Note_on_c, 1, 80, 127
1, 4224, Note_on_c, 1, 64, 127
1, 4269, Note_off_c, 1, 80, 0
1, 4272, Note_on_c, 1, 78, 127
1, 4313, Note_off_c, 1, 64, 0
1, 4317, Note_off_c, 1, 78, 0
1, 4320, Note_on_c, 1, 52, 127
1, 4409, Note_off_c, 1, 52, 0
1, 4416, Note_on_c, 1, 54, 127
1, 4464, Note_on_c, 1, 81, 127
1, 4505, Note_off_c, 1, 54, 0
1, 4509, Note_off_c, 1, 81, 0
1, 4512, Note_on_c, 1, 83, 127
1, 4512, Note_on_c, 1, 56, 127
1, 4557, Note_off_c, 1, 83, 0
1, 4560, Note_on_c, 1, 74, 127
1, 4601, Note_off_c, 1, 56, 0
1, 4605, Note_off_c, 1, 74, 0
1, 4608, Note_on_c, 1, 73, 127
1, 4608, Note_on_c, 1, 57, 127
1, 4653, Note_off_c, 1, 73, 0
1, 4704, Note_on_c, 1, 71, 127
1, 4749, Note_off_c, 1, 71, 0
1, 4785, Note_off_c, 1, 57, 0
1, 4873, Note_off_c, 1, 76, 0
1, 4896, Note_on_c, 1, 78, 127
1, 4896, Note_on_c, 1, 71, 127
1, 4896, Note_on_c, 1, 57, 127
1, 4941, Note_off_c, 1, 71, 0
1, 4944, Note_on_c, 1, 69, 127
1, 4985, Note_off_c, 1, 78, 0
1, 4985, Note_off_c, 1, 57, 0
1, 4989, Note_off_c, 1, 69, 0
1, 4992, Note_on_c, 1, 80, 127
1, 4992, Note_on_c, 1, 76, 127
1, 4992, Note_on_c, 1, 59, 127
1, 5016, Note_off_c, 1, 80, 0
1, 5016, Note_on_c, 1, 81, 127
1, 5037, Note_off_c, 1, 59, 0
1, 5040, Note_off_c, 1, 81, 0
1, 5040, Note_on_c, 1, 57, 127
1, 5085, Note_off_c, 1, 57, 0
1, 5088, Note_on_c, 1, 78, 127
1, 5088, Note_on_c, 1, 56, 127
1, 5133, Note_off_c, 1, 78, 0
1, 5133, Note_off_c, 1, 56, 0
1, 5136, Note_on_c, 1, 54, 127
1, 5181, Note_off_c, 1, 54, 0
1, 5184, Note_on_c, 1, 52, 127
1, 5273, Note_off_c, 1, 52, 0
1, 5376, Note_on_c, 1, 61, 127
1, 5400, Note_off_c, 1, 61, 0
1, 5400, Note_on_c, 1, 62, 127
1, 5424, Note_off_c, 1, 62, 0
1, 5465, Note_off_c, 1, 76, 0
1, 5472, Note_on_c, 1, 74, 127
1, 5517, Note_off_c, 1, 74, 0
1, 5712, Note_on_c, 1, 73, 127
1, 5757, Note_off_c, 1, 73, 0
1, 5760, Note_on_c, 1, 71, 127
1, 5760, Note_on_c, 1, 64, 127
1, 5805, Note_off_c, 1, 64, 0
1, 5849, Note_off_c, 1, 71, 0
1, 5856, Note_on_c, 1, 81, 127
1, 5856, Note_on_c, 1, 64, 127
1, 5856, Note_on_c, 1, 61, 127
1, 5901, Note_off_c, 1, 81, 0
1, 5901, Note_off_c, 1, 61, 0
1, 5904, Note_on_c, 1, 83, 127
1, 5904, Note_on_c, 1, 59, 127
1, 5945, Note_off_c, 1, 64, 0
1, 5949, Note_off_c, 1, 83, 0
1, 5949, Note_off_c, 1, 59, 0
1, 5952, Note_on_c, 1, 85, 127
1, 5952, Note_on_c, 1, 76, 127
1, 5952, Note_on_c, 1, 57, 127
1, 5997, Note_off_c, 1, 85, 0
1, 6000, Note_on_c, 1, 83, 127
1, 6041, Note_off_c, 1, 76, 0
1, 6041, Note_off_c, 1, 57, 0
1, 6045, Note_off_c, 1, 83, 0
1, 6048, Note_on_c, 1, 85, 127
1, 6048, Note_on_c, 1, 74, 127
1, 6048, Note_on_c, 1, 62, 127
1, 6093, Note_off_c, 1, 85, 0
1, 6093, Note_off_c, 1, 74, 0
1, 6096, Note_on_c, 1, 86, 127
1, 6096, Note_on_c, 1, 73, 127
1, 6141, Note_off_c, 1, 86, 0
1, 6141, Note_off_c, 1, 73, 0
1, 6144, Note_on_c, 1, 80, 127
1, 6144, Note_on_c, 1, 71, 127
1, 6189, Note_off_c, 1, 71, 0
1, 6192, Note_on_c, 1, 69, 127
1, 6233, Note_off_c, 1, 62, 0
1, 6233, Note_off_c, 1, 80, 0
1, 6237, Note_off_c, 1, 69, 0
1, 6240, Note_on_c, 1, 81, 127
1, 6240, Note_on_c, 1, 71, 127
1, 6240, Note_on_c, 1, 61, 127
1, 6285, Note_off_c, 1, 71, 0
1, 6288, Note_on_c, 1, 73, 127
1, 6329, Note_off_c, 1, 61, 0
1, 6333, Note_off_c, 1, 73, 0
1, 6336, Note_on_c, 1, 74, 127
1, 6336, Note_on_c, 1, 59, 127
1, 6381, Note_off_c, 1, 74, 0
1, 6417, Note_off_c, 1, 81, 0
1, 6425, Note_off_c, 1, 59, 0
1, 6432, Note_on_c, 1, 80, 127
1, 6432, Note_on_c, 1, 74, 127
1, 6432, Note_on_c, 1, 64, 127
1, 6477, Note_off_c, 1, 74, 0
1, 6480, Note_on_c, 1, 76, 127
1, 6521, Note_off_c, 1, 80, 0
1, 6521, Note_off_c, 1, 64, 0
1, 6525, Note_off_c, 1, 76, 0
1, 6528, Note_on_c, 1, 81, 127
1, 6528, Note_on_c, 1, 73, 127
1, 6528, Note_on_c, 1, 57, 127
1, 6573, Note_off_c, 1, 73, 0
1, 6573, Note_off_c, 1, 57, 0
1, 6576, Note_on_c, 1, 71, 127
1, 6576, Note_on_c, 1, 56, 127
1, 6621, Note_off_c, 1, 71, 0
1, 6621, Note_off_c, 1, 56, 0
1, 6672, Note_on_c, 1, 74, 127
1, 6672, Note_on_c, 1, 59, 127
1, 6717, Note_off_c, 1, 74, 0
1, 6717, Note_off_c, 1, 59, 0
1, 6720, Note_on_c, 1, 76, 127
1, 6720, Note_on_c, 1, 61, 127
1, 6765, Note_off_c, 1, 76, 0
1, 6765, Note_off_c, 1, 61, 0
1, 6864, Note_on_c, 1, 78, 127
1, 6864, Note_on_c, 1, 62, 127
1, 6909, Note_off_c, 1, 78, 0
1, 6909, Note_off_c, 1, 62, 0
1, 6912, Note_on_c, 1, 64, 127
1, 6960, Note_on_c, 1, 69, 127
1, 7001, Note_off_c, 1, 64, 0
1, 7005, Note_off_c, 1, 69, 0
1, 7008, Note_on_c, 1, 68, 127
1, 7008, Note_on_c, 1, 52, 127
1, 7053, Note_off_c, 1, 68, 0
1, 7053, Note_off_c, 1, 52, 0
1, 7056, Note_on_c, 1, 66, 127
1, 7056, Note_on_c, 1, 54, 127
1, 7089, Note_off_c, 1, 81, 0
1, 7101, Note_off_c, 1, 66, 0
1, 7101, Note_off_c, 1, 54, 0
1, 7104, Note_on_c, 1, 80, 127
1, 7104, Note_on_c, 1, 64, 127
1, 7104, Note_on_c, 1, 56, 127
1, 7149, Note_off_c, 1, 64, 0
1, 7152, Note_on_c, 1, 68, 127
1, 7193, Note_off_c, 1, 56, 0
1, 7197, Note_off_c, 1, 68, 0
1, 7200, Note_on_c, 1, 69, 127
1, 7200, Note_on_c, 1, 52, 127
1, 7245, Note_off_c, 1, 69, 0
1, 7248, Note_on_c, 1, 71, 127
1, 7289, Note_off_c, 1, 52, 0
1, 7293, Note_off_c, 1, 71, 0
1, 7296, Note_on_c, 1, 73, 127
1, 7296, Note_on_c, 1, 57, 127
1, 7341, Note_off_c, 1, 73, 0
1, 7385, Note_off_c, 1, 80, 0
1, 7385, Note_off_c, 1, 57, 0
1, 7392, Note_on_c, 1, 78, 127
1, 7392, Note_on_c, 1, 69, 127
1, 7392, Note_on_c, 1, 59, 127
1, 7437, Note_off_c, 1, 78, 0
1, 7437, Note_off_c, 1, 69, 0
1, 7437, Note_off_c, 1, 59, 0
1, 7440, Note_on_c, 1, 76, 127
1, 7440, Note_on_c, 1, 68, 127
1, 7440, Note_on_c, 1, 61, 127
1, 7485, Note_off_c, 1, 76, 0
1, 7485, Note_off_c, 1, 68, 0
1, 7485, Note_off_c, 1, 61, 0
1, 7488, Note_on_c, 1, 78, 127
1, 7488, Note_on_c, 1, 66, 127
1, 7488, Note_on_c, 1, 62, 127
1, 7533, Note_off_c, 1, 66, 0
1, 7536, Note_on_c, 1, 73, 127
1, 7577, Note_off_c, 1, 62, 0
1, 7581, Note_off_c, 1, 73, 0
1, 7584, Note_on_c, 1, 71, 127
1, 7584, Note_on_c, 1, 61, 127
1, 7629, Note_off_c, 1, 71, 0
1, 7632, Note_on_c, 1, 69, 127
1, 7673, Note_off_c, 1, 61, 0
1, 7677, Note_off_c, 1, 69, 0
1, 7680, Note_on_c, 1, 68, 127
1, 7680, Note_on_c, 1, 59, 127
1, 7725, Note_off_c, 1, 68, 0
1, 7769, Note_off_c, 1, 59, 0
1, 7776, Note_on_c, 1, 57, 127
1, 7857, Note_off_c, 1, 78, 0
1, 7865, Note_off_c, 1, 57, 0
1, 7872, Note_on_c, 1, 76, 127
1, 7872, Note_on_c, 1, 71, 127
1, 7872, Note_on_c, 1, 56, 127
1, 7917, Note_off_c, 1, 71, 0
1, 7920, Note_on_c, 1, 69, 127
1, 7961, Note_off_c, 1, 56, 0
1, 7965, Note_off_c, 1, 69, 0
1, 7968, Note_on_c, 1, 61, 127
1, 8016, Note_on_c, 1, 73, 127
1, 8057, Note_off_c, 1, 61, 0
1, 8061, Note_off_c, 1, 73, 0
1, 8064, Note_on_c, 1, 54, 127
1, 8112, Note_on_c, 1, 68, 127
1, 8153, Note_off_c, 1, 76, 0
1, 8153, Note_off_c, 1, 54, 0
1, 8157, Note_off_c, 1, 68, 0
1, 8160, Note_on_c, 1, 74, 127
1, 8160, Note_on_c, 1, 66, 127
1, 8160, Note_on_c, 1, 56, 127
1, 8205, Note_off_c, 1, 74, 0
1, 8205, Note_off_c, 1, 66, 0
1, 8205, Note_off_c, 1, 56, 0
1, 8208, Note_on_c, 1, 73, 127
1, 8208, Note_on_c, 1, 64, 127
1, 8208, Note_on_c, 1, 57, 127
1, 8253, Note_off_c, 1, 73, 0
1, 8253, Note_off_c, 1, 64, 0
1, 8253, Note_off_c, 1, 57, 0
1, 8256, Note_on_c, 1, 74, 127
1, 8256, Note_on_c, 1, 62, 127
1, 8256, Note_on_c, 1, 59, 127
1, 8301, Note_off_c, 1, 62, 0
1, 8304, Note_on_c, 1, 69, 127
1, 8345, Note_off_c, 1, 59, 0
1, 8349, Note_off_c, 1, 69, 0
1, 8352, Note_on_c, 1, 68, 127
1, 8352, Note_on_c, 1, 57, 127
1, 8397, Note_off_c, 1, 68, 0
1, 8400, Note_on_c, 1, 66, 127
1, 8441, Note_off_c, 1, 57, 0
1, 8445, Note_off_c, 1, 66, 0
1, 8448, Note_on_c, 1, 64, 127
1, 8448, Note_on_c, 1, 56, 127
1, 8493, Note_off_c, 1, 64, 0
1, 8537, Note_off_c, 1, 56, 0
1, 8544, Note_on_c, 1, 52, 127
1, 8625, Note_off_c, 1, 74, 0
1, 8633, Note_off_c, 1, 52, 0
1, 8640, Note_on_c, 1, 73, 127
1, 8640, Note_on_c, 1, 67, 127
1, 8640, Note_on_c, 1, 57, 127
1, 8685, Note_off_c, 1, 67, 0
1, 8688, Note_on_c, 1, 66, 127
1, 8729, Note_off_c, 1, 57, 0
1, 8733, Note_off_c, 1, 66, 0
1, 8736, Note_on_c, 1, 45, 127
1, 8784, Note_on_c, 1, 69, 127
1, 8825, Note_off_c, 1, 45, 0
1, 8829, Note_off_c, 1, 69, 0
1, 8832, Note_on_c, 1, 50, 127
1, 8880, Note_on_c, 1, 64, 127
1, 8921, Note_off_c, 1, 73, 0
1, 8921, Note_off_c, 1, 50, 0
1, 8925, Note_off_c, 1, 64, 0
1, 8928, Note_on_c, 1, 71, 127
1, 8928, Note_on_c, 1, 62, 127
1, 8928, Note_on_c, 1, 49, 127
1, 8973, Note_off_c, 1, 71, 0
1, 8973, Note_off_c, 1, 62, 0
1, 8976, Note_on_c, 1, 69, 127
1, 8976, Note_on_c, 1, 61, 127
1, 9017, Note_off_c, 1, 49, 0
1, 9021, Note_off_c, 1, 69, 0
1, 9021, Note_off_c, 1, 61, 0
1, 9024, Note_on_c, 1, 71, 127
1, 9024, Note_on_c, 1, 59, 127
1, 9024, Note_on_c, 1, 50, 127
1, 9069, Note_off_c, 1, 59, 0
1, 9072, Note_on_c, 1, 66, 127
1, 9113, Note_off_c, 1, 50, 0
1, 9117, Note_off_c, 1, 66, 0
1, 9120, Note_on_c, 1, 64, 127
1, 9120, Note_on_c, 1, 47, 127
1, 9165, Note_off_c, 1, 64, 0
1, 9168, Note_on_c, 1, 62, 127
1, 9209, Note_off_c, 1, 47, 0
1, 9213, Note_off_c, 1, 62, 0
1, 9216, Note_on_c, 1, 61, 127
1, 9216, Note_on_c, 1, 52, 127
1, 9261, Note_off_c, 1, 61, 0
1, 9305, Note_off_c, 1, 52, 0
1, 9393, Note_off_c, 1, 71, 0
1, 9408, Note_on_c, 1, 69, 127
1, 9408, Note_on_c, 1, 64, 127
1, 9408, Note_on_c, 1, 49, 127
1, 9453, Note_off_c, 1, 64, 0
1, 9456, Note_on_c, 1, 62, 127
1, 9497, Note_off_c, 1, 49, 0
1, 9501, Note_off_c, 1, 62, 0
1, 9504, Note_on_c, 1, 54, 127
1, 9552, Note_on_c, 1, 66, 127
1, 9593, Note_off_c, 1, 54, 0
1, 9597, Note_off_c, 1, 66, 0
1, 9600, Note_on_c, 1, 47, 127
1, 9648, Note_on_c, 1, 61, 127
1, 9689, Note_off_c, 1, 69, 0
1, 9693, Note_off_c, 1, 61, 0
1, 9696, Note_on_c, 1, 68, 127
1, 9696, Note_on_c, 1, 59, 127
1, 9741, Note_off_c, 1, 68, 0
1, 9741, Note_off_c, 1, 59, 0
1, 9777, Note_off_c, 1, 47, 0
1, 9792, Note_on_c, 1, 68, 127
1, 9792, Note_on_c, 1, 62, 127
1, 9792, Note_on_c, 1, 52, 127
1, 9837, Note_off_c, 1, 68, 0
1, 9837, Note_off_c, 1, 62, 0
1, 9840, Note_on_c, 1, 69, 127
1, 9840, Note_on_c, 1, 66, 127
1, 9885, Note_off_c, 1, 69, 0
1, 9885, Note_off_c, 1, 66, 0
1, 9888, Note_on_c, 1, 71, 127
1, 9888, Note_on_c, 1, 64, 127
1, 9933, Note_off_c, 1, 71, 0
1, 9933, Note_off_c, 1, 64, 0
1, 9969, Note_off_c, 1, 52, 0
1, 9984, Note_on_c, 1, 69, 127
1, 9984, Note_on_c, 1, 61, 127
1, 9984, Note_on_c, 1, 45, 127
1, 10029, Note_off_c, 1, 61, 0
1, 10032, Note_on_c, 1, 62, 127
1, 10073, Note_off_c, 1, 45, 0
1, 10077, Note_off_c, 1, 62, 0
1, 10080, Note_on_c, 1, 59, 127
1, 10080, Note_on_c, 1, 57, 127
1, 10125, Note_off_c, 1, 59, 0
1, 10161, Note_off_c, 1, 69, 0
1, 10169, Note_off_c, 1, 57, 0
1, 10176, Note_on_c, 1, 64, 127
1, 10176, Note_on_c, 1, 62, 127
1, 10176, Note_on_c, 1, 56, 127
1, 10221, Note_off_c, 1, 62, 0
1, 10224, Note_on_c, 1, 61, 127
1, 10265, Note_off_c, 1, 64, 0
1, 10265, Note_off_c, 1, 56, 0
1, 10269, Note_off_c, 1, 61, 0
1, 10272, Note_on_c, 1, 69, 127
1, 10272, Note_on_c, 1, 59, 127
1, 10272, Note_on_c, 1, 54, 127
1, 10317, Note_off_c, 1, 59, 0
1, 10320, Note_on_c, 1, 57, 127
1, 10361, Note_off_c, 1, 69, 0
1, 10361, Note_off_c, 1, 54, 0
1, 10365, Note_off_c, 1, 57, 0
1, 10368, Note_on_c, 1, 71, 127
1, 10368, Note_on_c, 1, 64, 127
1, 10368, Note_on_c, 1, 56, 127
1, 10413, Note_off_c, 1, 71, 0
1, 10416, Note_on_c, 1, 69, 127
1, 10457, Note_off_c, 1, 56, 0
1, 10461, Note_off_c, 1, 69, 0
1, 10464, Note_on_c, 1, 68, 127
1, 10464, Note_on_c, 1, 54, 127
1, 10509, Note_off_c, 1, 68, 0
1, 10509, Note_off_c, 1, 54, 0
1, 10512, Note_on_c, 1, 66, 127
1, 10557, Note_off_c, 1, 66, 0
1, 10560, Note_on_c, 1, 57, 127
1, 10605, Note_off_c, 1, 57, 0
1, 10704, Note_on_c, 1, 52, 127
1, 10737, Note_off_c, 1, 64, 0
1, 10749, Note_off_c, 1, 52, 0
1, 10752, Note_on_c, 1, 73, 127
1, 10752, Note_on_c, 1, 64, 127
1, 10752, Note_on_c, 1, 57, 127
1, 10775, Note_off_c, 1, 73, 0
1, 10776, Note_on_c, 1, 74, 127
1, 10799, Note_off_c, 1, 74, 0
1, 10841, Note_off_c, 1, 64, 0
1, 10848, Note_on_c, 1, 71, 127
1, 10848, Note_on_c, 1, 62, 127
1, 10893, Note_off_c, 1, 71, 0
1, 10893, Note_off_c, 1, 62, 0
1, 10929, Note_off_c, 1, 57, 0
1, 10944, Note_on_c, 1, 74, 127
1, 10944, Note_on_c, 1, 66, 127
1, 10944, Note_on_c, 1, 45, 127
1, 10989, Note_off_c, 1, 74, 0
1, 10989, Note_off_c, 1, 66, 0
1, 10992, Note_on_c, 1, 73, 127
1, 10992, Note_on_c, 1, 64, 127
1, 11033, Note_off_c, 1, 45, 0
1, 11037, Note_off_c, 1, 73, 0
1, 11037, Note_off_c, 1, 64, 0
1, 11040, Note_on_c, 1, 71, 127
1, 11040, Note_on_c, 1, 62, 127
1, 11040, Note_on_c, 1, 47, 127
1, 11085, Note_off_c, 1, 71, 0
1, 11085, Note_off_c, 1, 62, 0
1, 11088, Note_on_c, 1, 69, 127
1, 11088, Note_on_c, 1, 61, 127
1, 11129, Note_off_c, 1, 47, 0
1, 11133, Note_off_c, 1, 69, 0
1, 11133, Note_off_c, 1, 61, 0
1, 11136, Note_on_c, 1, 76, 127
1, 11136, Note_on_c, 1, 67, 127
1, 11136, Note_on_c, 1, 49, 127
1, 11181, Note_off_c, 1, 76, 0
1, 11184, Note_on_c, 1, 74, 127
1, 11225, Note_off_c, 1, 49, 0
1, 11229, Note_off_c, 1, 74, 0
1, 11232, Note_on_c, 1, 73, 127
1, 11232, Note_on_c, 1, 50, 127
1, 11277, Note_off_c, 1, 73, 0
1, 11277, Note_off_c, 1, 50, 0
1, 11280, Note_on_c, 1, 71, 127
1, 11280, Note_on_c, 1, 52, 127
1, 11325, Note_off_c, 1, 71, 0
1, 11325, Note_off_c, 1, 52, 0
1, 11328, Note_on_c, 1, 69, 127
1, 11328, Note_on_c, 1, 54, 127
1, 11373, Note_off_c, 1, 54, 0
1, 11401, Note_off_c, 1, 67, 0
1, 11417, Note_off_c, 1, 69, 0
1, 11424, Note_on_c, 1, 74, 127
1, 11424, Note_on_c, 1, 66, 127
1, 11424, Note_on_c, 1, 50, 127
1, 11469, Note_off_c, 1, 66, 0
1, 11469, Note_off_c, 1, 50, 0
1, 11472, Note_on_c, 1, 64, 127
1, 11472, Note_on_c, 1, 49, 127
1, 11517, Note_off_c, 1, 64, 0
1, 11517, Note_off_c, 1, 49, 0
1, 11520, Note_on_c, 1, 47, 127
1, 11568, Note_on_c, 1, 68, 127
1, 11609, Note_off_c, 1, 74, 0
1, 11609, Note_off_c, 1, 47, 0
1, 11613, Note_off_c, 1, 68, 0
1, 11616, Note_on_c, 1, 73, 127
1, 11616, Note_on_c, 1, 69, 127
1, 11616, Note_on_c, 1, 49, 127
1, 11705, Note_off_c, 1, 73, 0
1, 11705, Note_off_c, 1, 49, 0
1, 11712, Note_on_c, 1, 71, 127
1, 11712, Note_on_c, 1, 50, 127
1, 11757, Note_off_c, 1, 71, 0
1, 11793, Note_off_c, 1, 69, 0
1, 11801, Note_off_c, 1, 50, 0
1, 11808, Note_on_c, 1, 74, 127
1, 11808, Note_on_c, 1, 68, 127
1, 11808, Note_on_c, 1, 52, 127
1, 11853, Note_off_c, 1, 74, 0
1, 11856, Note_on_c, 1, 71, 127
1, 11897, Note_off_c, 1, 68, 0
1, 11897, Note_off_c, 1, 52, 0
1, 11901, Note_off_c, 1, 71, 0
1, 11904, Note_on_c, 1, 73, 127
1, 11904, Note_on_c, 1, 69, 127
1, 11904, Note_on_c, 1, 45, 127
1, 11949, Note_off_c, 1, 73, 0
1, 11952, Note_on_c, 1, 71, 127
1, 11993, Note_off_c, 1, 45, 0
1, 11997, Note_off_c, 1, 71, 0
1, 12000, Note_on_c, 1, 57, 127
1, 12081, Note_off_c, 1, 69, 0
1, 12089, Note_off_c, 1, 57, 0
1, 12096, Note_on_c, 1, 73, 127
1, 12096, Note_on_c, 1, 56, 127
1, 12141, Note_off_c, 1, 73, 0
1, 12144, Note_on_c, 1, 75, 127
1, 12185, Note_off_c, 1, 56, 0
1, 12189, Note_off_c, 1, 75, 0
1, 12192, Note_on_c, 1, 76, 127
1, 12192, Note_on_c, 1, 54, 127
1, 12237, Note_off_c, 1, 76, 0
1, 12240, Note_on_c, 1, 78, 127
1, 12281, Note_off_c, 1, 54, 0
1, 12285, Note_off_c, 1, 78, 0
1, 12288, Note_on_c, 1, 80, 127
1, 12288, Note_on_c, 1, 76, 127
1, 12288, Note_on_c, 1, 52, 127
1, 12333, Note_off_c, 1, 80, 0
1, 12336, Note_on_c, 1, 81, 127
1, 12377, Note_off_c, 1, 52, 0
1, 12381, Note_off_c, 1, 81, 0
1, 12384, Note_on_c, 1, 78, 127
1, 12384, Note_on_c, 1, 64, 127
1, 12429, Note_off_c, 1, 78, 0
1, 12465, Note_off_c, 1, 76, 0
1, 12473, Note_off_c, 1, 64, 0
1, 12480, Note_on_c, 1, 81, 127
1, 12480, Note_on_c, 1, 71, 127
1, 12480, Note_on_c, 1, 63, 127
1, 12525, Note_off_c, 1, 81, 0
1, 12528, Note_on_c, 1, 80, 127
1, 12569, Note_off_c, 1, 71, 0
1, 12569, Note_off_c, 1, 63, 0
1, 12573, Note_off_c, 1, 80, 0
1, 12576, Note_on_c, 1, 78, 127
1, 12576, Note_on_c, 1, 76, 127
1, 12576, Note_on_c, 1, 61, 127
1, 12621, Note_off_c, 1, 78, 0
1, 12665, Note_off_c, 1, 61, 0
1, 12669, Note_off_c, 1, 76, 0
1, 12672, Note_on_c, 1, 83, 127
1, 12672, Note_on_c, 1, 78, 127
1, 12672, Note_on_c, 1, 63, 127
1, 12717, Note_off_c, 1, 78, 0
1, 12720, Note_on_c, 1, 76, 127
1, 12761, Note_off_c, 1, 63, 0
1, 12765, Note_off_c, 1, 76, 0
1, 12768, Note_on_c, 1, 75, 127
1, 12768, Note_on_c, 1, 61, 127
1, 12813, Note_off_c, 1, 75, 0
1, 12813, Note_off_c, 1, 61, 0
1, 12816, Note_on_c, 1, 73, 127
1, 12861, Note_off_c, 1, 73, 0
1, 12864, Note_on_c, 1, 71, 127
1, 12864, Note_on_c, 1, 64, 127
1, 12909, Note_off_c, 1, 64, 0
1, 13008, Note_on_c, 1, 59, 127
1, 13041, Note_off_c, 1, 71, 0
1, 13053, Note_off_c, 1, 59, 0
1, 13056, Note_on_c, 1, 80, 127
1, 13080, Note_off_c, 1, 80, 0
1, 13080, Note_on_c, 1, 81, 127
1, 13104, Note_off_c, 1, 81, 0
1, 13145, Note_off_c, 1, 83, 0
1, 13248, Note_on_c, 1, 85, 127
1, 13248, Note_on_c, 1, 81, 127
1, 13248, Note_on_c, 1, 52, 127
1, 13293, Note_off_c, 1, 85, 0
1, 13293, Note_off_c, 1, 81, 0
1, 13296, Note_on_c, 1, 83, 127
1, 13296, Note_on_c, 1, 80, 127
1, 13337, Note_off_c, 1, 52, 0
1, 13341, Note_off_c, 1, 83, 0
1, 13341, Note_off_c, 1, 80, 0
1, 13344, Note_on_c, 1, 81, 127
1, 13344, Note_on_c, 1, 78, 127
1, 13344, Note_on_c, 1, 54, 127
1, 13389, Note_off_c, 1, 81, 0
1, 13389, Note_off_c, 1, 78, 0
1, 13392, Note_on_c, 1, 80, 127
1, 13392, Note_on_c, 1, 76, 127
1, 13433, Note_off_c, 1, 54, 0
1, 13437, Note_off_c, 1, 80, 0
1, 13437, Note_off_c, 1, 76, 0
1, 13440, Note_on_c, 1, 86, 127
1, 13440, Note_on_c, 1, 83, 127
1, 13440, Note_on_c, 1, 56, 127
1, 13485, Note_off_c, 1, 83, 0
1, 13488, Note_on_c, 1, 81, 127
1, 13529, Note_off_c, 1, 56, 0
1, 13533, Note_off_c, 1, 81, 0
1, 13536, Note_on_c, 1, 80, 127
1, 13536, Note_on_c, 1, 57, 127
1, 13581, Note_off_c, 1, 80, 0
1, 13581, Note_off_c, 1, 57, 0
1, 13584, Note_on_c, 1, 78, 127
1, 13584, Note_on_c, 1, 59, 127
1, 13629, Note_off_c, 1, 78, 0
1, 13629, Note_off_c, 1, 59, 0
1, 13632, Note_on_c, 1, 76, 127
1, 13632, Note_on_c, 1, 61, 127
1, 13677, Note_off_c, 1, 61, 0
1, 13705, Note_off_c, 1, 86, 0
1, 13721, Note_off_c, 1, 76, 0
1, 13728, Note_on_c, 1, 85, 127
1, 13728, Note_on_c, 1, 81, 127
1, 13728, Note_on_c, 1, 57, 127
1, 13773, Note_off_c, 1, 85, 0
1, 13773, Note_off_c, 1, 57, 0
1, 13776, Note_on_c, 1, 83, 127
1, 13776, Note_on_c, 1, 56, 127
1, 13821, Note_off_c, 1, 83, 0
1, 13821, Note_off_c, 1, 56, 0
1, 13824, Note_on_c, 1, 54, 127
1, 13872, Note_on_c, 1, 87, 127
1, 13913, Note_off_c, 1, 81, 0
1, 13913, Note_off_c, 1, 54, 0
1, 13917, Note_off_c, 1, 87, 0
1, 13920, Note_on_c, 1, 88, 127
1, 13920, Note_on_c, 1, 80, 127
1, 13920, Note_on_c, 1, 56, 127
1, 14009, Note_off_c, 1, 80, 0
1, 14009, Note_off_c, 1, 56, 0
1, 14016, Note_on_c, 1, 78, 127
1, 14016, Note_on_c, 1, 57, 127
1, 14061, Note_off_c, 1, 78, 0
1, 14097, Note_off_c, 1, 88, 0
1, 14105, Note_off_c, 1, 57, 0
1, 14112, Note_on_c, 1, 87, 127
1, 14112, Note_on_c, 1, 81, 127
1, 14112, Note_on_c, 1, 59, 127
1, 14157, Note_off_c, 1, 81, 0
1, 14160, Note_on_c, 1, 83, 127
1, 14201, Note_off_c, 1, 87, 0
1, 14201, Note_off_c, 1, 59, 0
1, 14205, Note_off_c, 1, 83, 0
1, 14208, Note_on_c, 1, 88, 127
1, 14208, Note_on_c, 1, 81, 127
1, 14208, Note_on_c, 1, 52, 127
1, 14253, Note_off_c, 1, 81, 0
1, 14256, Note_on_c, 1, 80, 127
1, 14297, Note_off_c, 1, 52, 0
1, 14301, Note_off_c, 1, 80, 0
1, 14304, Note_on_c, 1, 78, 127
1, 14304, Note_on_c, 1, 54, 127
1, 14349, Note_off_c, 1, 78, 0
1, 14393, Note_off_c, 1, 54, 0
1, 14400, Note_on_c, 1, 76, 127
1, 14400, Note_on_c, 1, 56, 127
1, 14445, Note_off_c, 1, 88, 0
1, 14448, Note_on_c, 1, 83, 127
1, 14489, Note_off_c, 1, 56, 0
1, 14493, Note_off_c, 1, 83, 0
1, 14592, Note_on_c, 1, 57, 127
1, 14681, Note_off_c, 1, 57, 0
1, 14769, Note_off_c, 1, 76, 0
1, 14784, Note_on_c, 1, 81, 127
1, 14784, Note_on_c, 1, 75, 127
1, 14784, Note_on_c, 1, 54, 127
1, 14829, Note_off_c, 1, 81, 0
1, 14832, Note_on_c, 1, 80, 127
1, 14873, Note_off_c, 1, 54, 0
1, 14877, Note_off_c, 1, 80, 0
1, 14880, Note_on_c, 1, 59, 127
1, 14928, Note_on_c, 1, 83, 127
1, 14969, Note_off_c, 1, 59, 0
1, 14973, Note_off_c, 1, 83, 0
1, 14976, Note_on_c, 1, 52, 127
1, 15024, Note_on_c, 1, 78, 127
1, 15065, Note_off_c, 1, 75, 0
1, 15065, Note_off_c, 1, 52, 0
1, 15069, Note_off_c, 1, 78, 0
1, 15072, Note_on_c, 1, 76, 127
1, 15072, Note_on_c, 1, 73, 127
1, 15072, Note_on_c, 1, 54, 127
1, 15117, Note_off_c, 1, 76, 0
1, 15117, Note_off_c, 1, 73, 0
1, 15117, Note_off_c, 1, 54, 0
1, 15120, Note_on_c, 1, 75, 127
1, 15120, Note_on_c, 1, 71, 127
1, 15120, Note_on_c, 1, 56, 127
1, 15165, Note_off_c, 1, 75, 0
1, 15165, Note_off_c, 1, 71, 0
1, 15165, Note_off_c, 1, 56, 0
1, 15168, Note_on_c, 1, 73, 127
1, 15168, Note_on_c, 1, 57, 127
1, 15216, Note_on_c, 1, 80, 127
1, 15257, Note_off_c, 1, 57, 0
1, 15261, Note_off_c, 1, 80, 0
1, 15264, Note_on_c, 1, 78, 127
1, 15264, Note_on_c, 1, 56, 127
1, 15309, Note_off_c, 1, 78, 0
1, 15312, Note_on_c, 1, 76, 127
1, 15345, Note_off_c, 1, 73, 0
1, 15353, Note_off_c, 1, 56, 0
1, 15357, Note_off_c, 1, 76, 0
1, 15360, Note_on_c, 1, 75, 127
1, 15360, Note_on_c, 1, 73, 127
1, 15360, Note_on_c, 1, 54, 127
1, 15405, Note_off_c, 1, 75, 0
1, 15449, Note_off_c, 1, 54, 0
1, 15456, Note_on_c, 1, 52, 127
1, 15504, Note_on_c, 1, 76, 127
1, 15537, Note_off_c, 1, 73, 0
1, 15545, Note_off_c, 1, 52, 0
1, 15549, Note_off_c, 1, 76, 0
1, 15552, Note_on_c, 1, 78, 127
1, 15552, Note_on_c, 1, 71, 127
1, 15552, Note_on_c, 1, 51, 127
1, 15597, Note_off_c, 1, 78, 0
1, 15600, Note_on_c, 1, 76, 127
1, 15641, Note_off_c, 1, 51, 0
1, 15645, Note_off_c, 1, 76, 0
1, 15648, Note_on_c, 1, 56, 127
1, 15696, Note_on_c, 1, 80, 127
1, 15737, Note_off_c, 1, 56, 0
1, 15741, Note_off_c, 1, 80, 0
1, 15744, Note_on_c, 1, 49, 127
1, 15792, Note_on_c, 1, 75, 127
1, 15833, Note_off_c, 1, 71, 0
1, 15833, Note_off_c, 1, 49, 0
1, 15837, Note_off_c, 1, 75, 0
1, 15840, Note_on_c, 1, 73, 127
1, 15840, Note_on_c, 1, 69, 127
1, 15840, Note_on_c, 1, 51, 127
1, 15885, Note_off_c, 1, 73, 0
1, 15885, Note_off_c, 1, 69, 0
1, 15885, Note_off_c, 1, 51, 0
1, 15888, Note_on_c, 1, 71, 127
1, 15888, Note_on_c, 1, 68, 127
1, 15888, Note_on_c, 1, 52, 127
1, 15933, Note_off_c, 1, 71, 0
1, 15933, Note_off_c, 1, 68, 0
1, 15933, Note_off_c, 1, 52, 0
1, 15936, Note_on_c, 1, 69, 127
1, 15936, Note_on_c, 1, 54, 127
1, 15984, Note_on_c, 1, 76, 127
1, 16025, Note_off_c, 1, 54, 0
1, 16029, Note_off_c, 1, 76, 0
1, 16032, Note_on_c, 1, 75, 127
1, 16032, Note_on_c, 1, 52, 127
1, 16077, Note_off_c, 1, 75, 0
1, 16080, Note_on_c, 1, 73, 127
1, 16121, Note_off_c, 1, 52, 0
1, 16125, Note_off_c, 1, 73, 0
1, 16128, Note_on_c, 1, 71, 127
1, 16128, Note_on_c, 1, 50, 127
1, 16173, Note_off_c, 1, 71, 0
1, 16217, Note_off_c, 1, 50, 0
1, 16224, Note_on_c, 1, 47, 127
1, 16305, Note_off_c, 1, 69, 0
1, 16313, Note_off_c, 1, 47, 0
1, 16320, Note_on_c, 1, 74, 127
1, 16320, Note_on_c, 1, 68, 127
1, 16320, Note_on_c, 1, 52, 127
1, 16365, Note_off_c, 1, 74, 0
1, 16368, Note_on_c, 1, 73, 127
1, 16409, Note_off_c, 1, 52, 0
1, 16413, Note_off_c, 1, 73, 0
1, 16416, Note_on_c, 1, 40, 127
1, 16464, Note_on_c, 1, 76, 127
1, 16505, Note_off_c, 1, 40, 0
1, 16509, Note_off_c, 1, 76, 0
1, 16512, Note_on_c, 1, 45, 127
1, 16560, Note_on_c, 1, 71, 127
1, 16601, Note_off_c, 1, 68, 0
1, 16601, Note_off_c, 1, 45, 0
1, 16605, Note_off_c, 1, 71, 0
1, 16608, Note_on_c, 1, 69, 127
1, 16608, Note_on_c, 1, 66, 127
1, 16608, Note_on_c, 1, 44, 127
1, 16653, Note_off_c, 1, 69, 0
1, 16653, Note_off_c, 1, 66, 0
1, 16656, Note_on_c, 1, 68, 127
1, 16656, Note_on_c, 1, 64, 127
1, 16697, Note_off_c, 1, 44, 0
1, 16701, Note_off_c, 1, 68, 0
1, 16701, Note_off_c, 1, 64, 0
1, 16704, Note_on_c, 1, 66, 127
1, 16704, Note_on_c, 1, 45, 127
1, 16752, Note_on_c, 1, 73, 127
1, 16793, Note_off_c, 1, 45, 0
1, 16797, Note_off_c, 1, 73, 0
1, 16800, Note_on_c, 1, 71, 127
1, 16800, Note_on_c, 1, 42, 127
1, 16845, Note_off_c, 1, 71, 0
1, 16848, Note_on_c, 1, 69, 127
1, 16889, Note_off_c, 1, 42, 0
1, 16893, Note_off_c, 1, 69, 0
1, 16896, Note_on_c, 1, 68, 127
1, 16896, Note_on_c, 1, 47, 127
1, 16941, Note_off_c, 1, 68, 0
1, 16985, Note_off_c, 1, 47, 0
1, 17073, Note_off_c, 1, 66, 0
1, 17088, Note_on_c, 1, 71, 127
1, 17088, Note_on_c, 1, 64, 127
1, 17088, Note_on_c, 1, 44, 127
1, 17133, Note_off_c, 1, 71, 0
1, 17136, Note_on_c, 1, 69, 127
1, 17177, Note_off_c, 1, 44, 0
1, 17181, Note_off_c, 1, 69, 0
1, 17184, Note_on_c, 1, 49, 127
1, 17232, Note_on_c, 1, 73, 127
1, 17273, Note_off_c, 1, 49, 0
1, 17277, Note_off_c, 1, 73, 0
1, 17280, Note_on_c, 1, 42, 127
1, 17328, Note_on_c, 1, 68, 127
1, 17369, Note_off_c, 1, 64, 0
1, 17373, Note_off_c, 1, 68, 0
1, 17376, Note_on_c, 1, 66, 127
1, 17376, Note_on_c, 1, 63, 127
1, 17421, Note_off_c, 1, 66, 0
1, 17421, Note_off_c, 1, 63, 0
1, 17424, Note_on_c, 1, 61, 127
1, 17457, Note_off_c, 1, 42, 0
1, 17469, Note_off_c, 1, 61, 0
1, 17472, Note_on_c, 1, 69, 127
1, 17472, Note_on_c, 1, 63, 127
1, 17472, Note_on_c, 1, 47, 127
1, 17517, Note_off_c, 1, 69, 0
1, 17517, Note_off_c, 1, 63, 0
1, 17520, Note_on_c, 1, 73, 127
1, 17520, Note_on_c, 1, 64, 127
1, 17565, Note_off_c, 1, 73, 0
1, 17565, Note_off_c, 1, 64, 0
1, 17568, Note_on_c, 1, 71, 127
1, 17568, Note_on_c, 1, 66, 127
1, 17613, Note_off_c, 1, 71, 0
1, 17613, Note_off_c, 1, 66, 0
1, 17649, Note_off_c, 1, 47, 0
1, 17664, Note_on_c, 1, 68, 127
1, 17664, Note_on_c, 1, 64, 127
1, 17664, Note_on_c, 1, 40, 127
1, 17753, Note_off_c, 1, 40, 0
1, 17760, Note_on_c, 1, 45, 127
1, 17797, Note_off_c, 1, 68, 0
1, 17797, Note_off_c, 1, 64, 0
1, 17808, Note_on_c, 1, 69, 127
1, 17808, Note_on_c, 1, 66, 127
1, 17849, Note_off_c, 1, 45, 0
1, 17853, Note_off_c, 1, 69, 0
1, 17853, Note_off_c, 1, 66, 0
1, 17856, Note_on_c, 1, 66, 127
1, 17856, Note_on_c, 1, 63, 127
1, 17856, Note_on_c, 1, 47, 127
1, 17945, Note_off_c, 1, 47, 0
1, 17989, Note_off_c, 1, 66, 0
1, 17989, Note_off_c, 1, 63, 0
1, 18000, Note_on_c, 1, 64, 127
1, 18045, Note_off_c, 1, 64, 0
1, 18048, Note_on_c, 1, 64, 127
1, 18048, Note_on_c, 1, 40, 127
1, 18137, Note_off_c, 1, 40, 0
1, 18144, Note_on_c, 1, 52, 127
1, 18189, Note_off_c, 1, 52, 0
1, 18192, Note_on_c, 1, 54, 127
1, 18237, Note_off_c, 1, 54, 0
1, 18288, Note_on_c, 1, 50, 127
1, 18333, Note_off_c, 1, 50, 0
1, 18336, Note_on_c, 1, 49, 127
1, 18381, Note_off_c, 1, 49, 0
1, 18384, Note_on_c, 1, 47, 127
1, 18402, Note_off_c, 1, 64, 0
1, 18429, Note_off_c, 1, 47, 0
1, 18432, Note_on_c, 1, 69, 127
1, 18432, Note_on_c, 1, 45, 127
1, 18521, Note_off_c, 1, 45, 0
1, 18528, Note_on_c, 1, 47, 127
1, 18609, Note_off_c, 1, 69, 0
1, 18617, Note_off_c, 1, 47, 0
1, 18624, Note_on_c, 1, 64, 127
1, 18624, Note_on_c, 1, 49, 127
1, 18713, Note_off_c, 1, 64, 0
1, 18713, Note_off_c, 1, 49, 0
1, 18720, Note_on_c, 1, 69, 127
1, 18720, Note_on_c, 1, 45, 127
1, 18809, Note_off_c, 1, 69, 0
1, 18809, Note_off_c, 1, 45, 0
1, 18816, Note_on_c, 1, 71, 127
1, 18816, Note_on_c, 1, 52, 127
1, 18861, Note_off_c, 1, 71, 0
1, 18864, Note_on_c, 1, 69, 127
1, 18905, Note_off_c, 1, 52, 0
1, 18909, Note_off_c, 1, 69, 0
1, 18912, Note_on_c, 1, 68, 127
1, 18912, Note_on_c, 1, 54, 127
1, 18957, Note_off_c, 1, 68, 0
1, 18960, Note_on_c, 1, 66, 127
1, 19001, Note_off_c, 1, 54, 0
1, 19005, Note_off_c, 1, 66, 0
1, 19008, Note_on_c, 1, 64, 127
1, 19008, Note_on_c, 1, 56, 127
1, 19097, Note_off_c, 1, 56, 0
1, 19104, Note_on_c, 1, 52, 127
1, 19185, Note_off_c, 1, 64, 0
1, 19193, Note_off_c, 1, 52, 0
1, 19200, Note_on_c, 1, 73, 127
1, 19200, Note_on_c, 1, 57, 127
1, 19224, Note_off_c, 1, 73, 0
1, 19224, Note_on_c, 1, 74, 127
1, 19248, Note_off_c, 1, 74, 0
1, 19289, Note_off_c, 1, 57, 0
1, 19296, Note_on_c, 1, 71, 127
1, 19296, Note_on_c, 1, 56, 127
1, 19341, Note_off_c, 1, 71, 0
1, 19344, Note_on_c, 1, 73, 127
1, 19385, Note_off_c, 1, 56, 0
1, 19389, Note_off_c, 1, 73, 0
1, 19392, Note_on_c, 1, 74, 127
1, 19392, Note_on_c, 1, 54, 127
1, 19437, Note_off_c, 1, 74, 0
1, 19440, Note_on_c, 1, 73, 127
1, 19485, Note_off_c, 1, 73, 0
1, 19488, Note_on_c, 1, 71, 127
1, 19533, Note_off_c, 1, 71, 0
1, 19536, Note_on_c, 1, 69, 127
1, 19569, Note_off_c, 1, 54, 0
1, 19581, Note_off_c, 1, 69, 0
1, 19584, Note_on_c, 1, 76, 127
1, 19584, Note_on_c, 1, 49, 127
1, 19629, Note_off_c, 1, 76, 0
1, 19632, Note_on_c, 1, 74, 127
1, 19677, Note_off_c, 1, 74, 0
1, 19680, Note_on_c, 1, 73, 127
1, 19725, Note_off_c, 1, 73, 0
1, 19728, Note_on_c, 1, 71, 127
1, 19761, Note_off_c, 1, 49, 0
1, 19773, Note_off_c, 1, 71, 0
1, 19776, Note_on_c, 1, 69, 127
1, 19776, Note_on_c, 1, 50, 127
1, 19865, Note_off_c, 1, 69, 0
1, 19865, Note_off_c, 1, 50, 0
1, 19872, Note_on_c, 1, 74, 127
1, 19872, Note_on_c, 1, 47, 127
1, 19961, Note_off_c, 1, 47, 0
1, 19968, Note_on_c, 1, 52, 127
1, 20057, Note_off_c, 1, 74, 0
1, 20057, Note_off_c, 1, 52, 0
1, 20064, Note_on_c, 1, 73, 127
1, 20064, Note_on_c, 1, 54, 127
1, 20153, Note_off_c, 1, 73, 0
1, 20153, Note_off_c, 1, 54, 0
1, 20160, Note_on_c, 1, 71, 127
1, 20160, Note_on_c, 1, 50, 127
1, 20205, Note_off_c, 1, 71, 0
1, 20208, Note_on_c, 1, 73, 127
1, 20249, Note_off_c, 1, 50, 0
1, 20253, Note_off_c, 1, 73, 0
1, 20256, Note_on_c, 1, 74, 127
1, 20256, Note_on_c, 1, 52, 127
1, 20301, Note_off_c, 1, 74, 0
1, 20304, Note_on_c, 1, 71, 127
1, 20345, Note_off_c, 1, 52, 0
1, 20349, Note_off_c, 1, 71, 0
1, 20352, Note_on_c, 1, 73, 127
1, 20352, Note_on_c, 1, 45, 127
1, 20397, Note_off_c, 1, 73, 0
1, 20400, Note_on_c, 1, 71, 127
1, 20441, Note_off_c, 1, 45, 0
1, 20445, Note_off_c, 1, 71, 0
1, 20448, Note_on_c, 1, 69, 127
1, 20448, Note_on_c, 1, 57, 127
1, 20493, Note_off_c, 1, 69, 0
1, 20496, Note_on_c, 1, 71, 127
1, 20537, Note_off_c, 1, 57, 0
1, 20541, Note_off_c, 1, 71, 0
1, 20544, Note_on_c, 1, 73, 127
1, 20544, Note_on_c, 1, 56, 127
1, 20589, Note_off_c, 1, 73, 0
1, 20592, Note_on_c, 1, 75, 127
1, 20633, Note_off_c, 1, 56, 0
1, 20637, Note_off_c, 1, 75, 0
1, 20640, Note_on_c, 1, 76, 127
1, 20640, Note_on_c, 1, 54, 127
1, 20685, Note_off_c, 1, 76, 0
1, 20688, Note_on_c, 1, 78, 127
1, 20729, Note_off_c, 1, 54, 0
1, 20733, Note_off_c, 1, 78, 0
1, 20736, Note_on_c, 1, 80, 127
1, 20736, Note_on_c, 1, 76, 127
1, 20736, Note_on_c, 1, 52, 127
1, 20781, Note_off_c, 1, 80, 0
1, 20784, Note_on_c, 1, 81, 127
1, 20825, Note_off_c, 1, 52, 0
1, 20829, Note_off_c, 1, 81, 0
1, 20832, Note_on_c, 1, 78, 127
1, 20832, Note_on_c, 1, 64, 127
1, 20877, Note_off_c, 1, 78, 0
1, 20913, Note_off_c, 1, 76, 0
1, 20921, Note_off_c, 1, 64, 0
1, 20928, Note_on_c, 1, 81, 127
1, 20928, Note_on_c, 1, 71, 127
1, 20928, Note_on_c, 1, 63, 127
1, 20973, Note_off_c, 1, 81, 0
1, 20976, Note_on_c, 1, 80, 127
1, 21017, Note_off_c, 1, 71, 0
1, 21017, Note_off_c, 1, 63, 0
1, 21021, Note_off_c, 1, 80, 0
1, 21024, Note_on_c, 1, 78, 127
1, 21024, Note_on_c, 1, 76, 127
1, 21024, Note_on_c, 1, 61, 127
1, 21069, Note_off_c, 1, 78, 0
1, 21113, Note_off_c, 1, 61, 0
1, 21117, Note_off_c, 1, 76, 0
1, 21120, Note_on_c, 1, 83, 127
1, 21120, Note_on_c, 1, 78, 127
1, 21120, Note_on_c, 1, 63, 127
1, 21165, Note_off_c, 1, 78, 0
1, 21168, Note_on_c, 1, 76, 127
1, 21209, Note_off_c, 1, 63, 0
1, 21213, Note_off_c, 1, 76, 0
1, 21216, Note_on_c, 1, 75, 127
1, 21216, Note_on_c, 1, 59, 127
1, 21261, Note_off_c, 1, 75, 0
1, 21264, Note_on_c, 1, 73, 127
1, 21305, Note_off_c, 1, 59, 0
1, 21309, Note_off_c, 1, 73, 0
1, 21312, Note_on_c, 1, 71, 127
1, 21312, Note_on_c, 1, 56, 127
1, 21357, Note_off_c, 1, 83, 0
1, 21360, Note_on_c, 1, 81, 127
1, 21401, Note_off_c, 1, 56, 0
1, 21405, Note_off_c, 1, 81, 0
1, 21408, Note_on_c, 1, 80, 127
1, 21408, Note_on_c, 1, 57, 127
1, 21453, Note_off_c, 1, 80, 0
1, 21453, Note_off_c, 1, 57, 0
1, 21489, Note_off_c, 1, 71, 0
1, 21504, Note_on_c, 1, 76, 127
1, 21504, Note_on_c, 1, 80, 127
1, 21504, Note_on_c, 1, 61, 127
1, 21528, Note_off_c, 1, 80, 0
1, 21528, Note_on_c, 1, 81, 127
1, 21552, Note_off_c, 1, 81, 0
1, 21593, Note_off_c, 1, 61, 0
1, 21600, Note_on_c, 1, 78, 127
1, 21600, Note_on_c, 1, 64, 127
1, 21645, Note_off_c, 1, 78, 0
1, 21689, Note_off_c, 1, 64, 0
1, 21792, Note_on_c, 1, 57, 127
1, 21881, Note_off_c, 1, 57, 0
1, 21888, Note_on_c, 1, 83, 127
1, 21888, Note_on_c, 1, 56, 127
1, 21933, Note_off_c, 1, 83, 0
1, 21977, Note_off_c, 1, 56, 0
1, 21984, Note_on_c, 1, 52, 127
1, 22073, Note_off_c, 1, 52, 0
1, 22128, Note_on_c, 1, 74, 127
1, 22169, Note_off_c, 1, 76, 0
1, 22173, Note_off_c, 1, 74, 0
1, 22176, Note_on_c, 1, 73, 127
1, 22176, Note_on_c, 1, 81, 127
1, 22176, Note_on_c, 1, 56, 127
1, 22221, Note_off_c, 1, 73, 0
1, 22224, Note_on_c, 1, 71, 127
1, 22265, Note_off_c, 1, 56, 0
1, 22269, Note_off_c, 1, 71, 0
1, 22272, Note_on_c, 1, 54, 127
1, 22320, Note_on_c, 1, 75, 127
1, 22361, Note_off_c, 1, 81, 0
1, 22361, Note_off_c, 1, 54, 0
1, 22365, Note_off_c, 1, 75, 0
1, 22368, Note_on_c, 1, 76, 127
1, 22368, Note_on_c, 1, 80, 127
1, 22368, Note_on_c, 1, 56, 127
1, 22457, Note_off_c, 1, 80, 0
1, 22457, Note_off_c, 1, 56, 0
1, 22464, Note_on_c, 1, 78, 127
1, 22464, Note_on_c, 1, 57, 127
1, 22509, Note_off_c, 1, 78, 0
1, 22545, Note_off_c, 1, 76, 0
1, 22553, Note_off_c, 1, 57, 0
1, 22560, Note_on_c, 1, 75, 127
1, 22560, Note_on_c, 1, 81, 127
1, 22560, Note_on_c, 1, 59, 127
1, 22605, Note_off_c, 1, 81, 0
1, 22608, Note_on_c, 1, 78, 127
1, 22649, Note_off_c, 1, 75, 0
1, 22649, Note_off_c, 1, 59, 0
1, 22653, Note_off_c, 1, 78, 0
1, 22656, Note_on_c, 1, 76, 127
1, 22656, Note_on_c, 1, 80, 127
1, 22656, Note_on_c, 1, 64, 127
1, 22701, Note_off_c, 1, 80, 0
1, 22704, Note_on_c, 1, 78, 127
1, 22745, Note_off_c, 1, 64, 0
1, 22749, Note_off_c, 1, 78, 0
1, 22752, Note_on_c, 1, 52, 127
1, 22841, Note_off_c, 1, 52, 0
1, 22848, Note_on_c, 1, 54, 127
1, 22896, Note_on_c, 1, 81, 127
1, 22937, Note_off_c, 1, 54, 0
1, 22941, Note_off_c, 1, 81, 0
1, 22944, Note_on_c, 1, 83, 127
1, 22944, Note_on_c, 1, 56, 127
1, 22989, Note_off_c, 1, 83, 0
1, 22992, Note_on_c, 1, 74, 127
1, 23033, Note_off_c, 1, 56, 0
1, 23037, Note_off_c, 1, 74, 0
1, 23040, Note_on_c, 1, 73, 127
1, 23040, Note_on_c, 1, 57, 127
1, 23085, Note_off_c, 1, 73, 0
1, 23136, Note_on_c, 1, 71, 127
1, 23181, Note_off_c, 1, 71, 0
1, 23217, Note_off_c, 1, 57, 0
1, 23305, Note_off_c, 1, 76, 0
1, 23328, Note_on_c, 1, 78, 127
1, 23328, Note_on_c, 1, 71, 127
1, 23328, Note_on_c, 1, 57, 127
1, 23373, Note_off_c, 1, 71, 0
1, 23376, Note_on_c, 1, 69, 127
1, 23417, Note_off_c, 1, 78, 0
1, 23417, Note_off_c, 1, 57, 0
1, 23421, Note_off_c, 1, 69, 0
1, 23424, Note_on_c, 1, 80, 127
1, 23424, Note_on_c, 1, 76, 127
1, 23424, Note_on_c, 1, 59, 127
1, 23448, Note_off_c, 1, 80, 0
1, 23448, Note_on_c, 1, 81, 127
1, 23469, Note_off_c, 1, 59, 0
1, 23472, Note_off_c, 1, 81, 0
1, 23472, Note_on_c, 1, 57, 127
1, 23517, Note_off_c, 1, 57, 0
1, 23520, Note_on_c, 1, 78, 127
1, 23520, Note_on_c, 1, 56, 127
1, 23565, Note_off_c, 1, 78, 0
1, 23565, Note_off_c, 1, 56, 0
1, 23568, Note_on_c, 1, 54, 127
1, 23613, Note_off_c, 1, 54, 0
1, 23616, Note_on_c, 1, 52, 127
1, 23705, Note_off_c, 1, 52, 0
1, 23808, Note_on_c, 1, 61, 127
1, 23832, Note_off_c, 1, 61, 0
1, 23832, Note_on_c, 1, 62, 127
1, 23856, Note_off_c, 1, 62, 0
1, 23897, Note_off_c, 1, 76, 0
1, 23904, Note_on_c, 1, 74, 127
1, 23949, Note_off_c, 1, 74, 0
1, 24144, Note_on_c, 1, 73, 127
1, 24189, Note_off_c, 1, 73, 0
1, 24192, Note_on_c, 1, 71, 127
1, 24192, Note_on_c, 1, 64, 127
1, 24237, Note_off_c, 1, 64, 0
1, 24281, Note_off_c, 1, 71, 0
1, 24288, Note_on_c, 1, 81, 127
1, 24288, Note_on_c, 1, 64, 127
1, 24288, Note_on_c, 1, 61, 127
1, 24333, Note_off_c, 1, 81, 0
1, 24333, Note_off_c, 1, 61, 0
1, 24336, Note_on_c, 1, 83, 127
1, 24336, Note_on_c, 1, 59, 127
1, 24377, Note_off_c, 1, 64, 0
1, 24381, Note_off_c, 1, 83, 0
1, 24381, Note_off_c, 1, 59, 0
1, 24384, Note_on_c, 1, 85, 127
1, 24384, Note_on_c, 1, 76, 127
1, 24384, Note_on_c, 1, 57, 127
1, 24429, Note_off_c, 1, 85, 0
1, 24432, Note_on_c, 1, 83, 127
1, 24473, Note_off_c, 1, 76, 0
1, 24473, Note_off_c, 1, 57, 0
1, 24477, Note_off_c, 1, 83, 0
1, 24480, Note_on_c, 1, 85, 127
1, 24480, Note_on_c, 1, 74, 127
1, 24480, Note_on_c, 1, 62, 127
1, 24525, Note_off_c, 1, 85, 0
1, 24525, Note_off_c, 1, 74, 0
1, 24528, Note_on_c, 1, 86, 127
1, 24528, Note_on_c, 1, 73, 127
1, 24573, Note_off_c, 1, 86, 0
1, 24573, Note_off_c, 1, 73, 0
1, 24576, Note_on_c, 1, 80, 127
1, 24576, Note_on_c, 1, 71, 127
1, 24621, Note_off_c, 1, 71, 0
1, 24624, Note_on_c, 1, 69, 127
1, 24665, Note_off_c, 1, 62, 0
1, 24665, Note_off_c, 1, 80, 0
1, 24669, Note_off_c, 1, 69, 0
1, 24672, Note_on_c, 1, 81, 127
1, 24672, Note_on_c, 1, 71, 127
1, 24672, Note_on_c, 1, 61, 127
1, 24717, Note_off_c, 1, 71, 0
1, 24720, Note_on_c, 1, 73, 127
1, 24761, Note_off_c, 1, 61, 0
1, 24765, Note_off_c, 1, 73, 0
1, 24768, Note_on_c, 1, 74, 127
1, 24768, Note_on_c, 1, 59, 127
1, 24813, Note_off_c, 1, 74, 0
1, 24849, Note_off_c, 1, 81, 0
1, 24857, Note_off_c, 1, 59, 0
1, 24864, Note_on_c, 1, 80, 127
1, 24864, Note_on_c, 1, 74, 127
1, 24864, Note_on_c, 1, 64, 127
1, 24909, Note_off_c, 1, 74, 0
1, 24912, Note_on_c, 1, 76, 127
1, 24953, Note_off_c, 1, 80, 0
1, 24953, Note_off_c, 1, 64, 0
1, 24957, Note_off_c, 1, 76, 0
1, 24960, Note_on_c, 1, 81, 127
1, 24960, Note_on_c, 1, 73, 127
1, 24960, Note_on_c, 1, 57, 127
1, 25005, Note_off_c, 1, 73, 0
1, 25005, Note_off_c, 1, 57, 0
1, 25008, Note_on_c, 1, 71, 127
1, 25008, Note_on_c, 1, 56, 127
1, 25053, Note_off_c, 1, 71, 0
1, 25053, Note_off_c, 1, 56, 0
1, 25104, Note_on_c, 1, 74, 127
1, 25104, Note_on_c, 1, 59, 127
1, 25149, Note_off_c, 1, 74, 0
1, 25149, Note_off_c, 1, 59, 0
1, 25152, Note_on_c, 1, 76, 127
1, 25152, Note_on_c, 1, 61, 127
1, 25197, Note_off_c, 1, 76, 0
1, 25197, Note_off_c, 1, 61, 0
1, 25296, Note_on_c, 1, 78, 127
1, 25296, Note_on_c, 1, 62, 127
1, 25341, Note_off_c, 1, 78, 0
1, 25341, Note_off_c, 1, 62, 0
1, 25344, Note_on_c, 1, 64, 127
1, 25392, Note_on_c, 1, 69, 127
1, 25433, Note_off_c, 1, 64, 0
1, 25437, Note_off_c, 1, 69, 0
1, 25440, Note_on_c, 1, 68, 127
1, 25440, Note_on_c, 1, 52, 127
1, 25485, Note_off_c, 1, 68, 0
1, 25485, Note_off_c, 1, 52, 0
1, 25488, Note_on_c, 1, 66, 127
1, 25488, Note_on_c, 1, 54, 127
1, 25521, Note_off_c, 1, 81, 0
1, 25533, Note_off_c, 1, 66, 0
1, 25533, Note_off_c, 1, 54, 0
1, 25536, Note_on_c, 1, 80, 127
1, 25536, Note_on_c, 1, 64, 127
1, 25536, Note_on_c, 1, 56, 127
1, 25581, Note_off_c, 1, 64, 0
1, 25584, Note_on_c, 1, 68, 127
1, 25625, Note_off_c, 1, 56, 0
1, 25629, Note_off_c, 1, 68, 0
1, 25632, Note_on_c, 1, 69, 127
1, 25632, Note_on_c, 1, 52, 127
1, 25677, Note_off_c, 1, 69, 0
1, 25680, Note_on_c, 1, 71, 127
1, 25721, Note_off_c, 1, 52, 0
1, 25725, Note_off_c, 1, 71, 0
1, 25728, Note_on_c, 1, 73, 127
1, 25728, Note_on_c, 1, 57, 127
1, 25773, Note_off_c, 1, 73, 0
1, 25817, Note_off_c, 1, 80, 0
1, 25817, Note_off_c, 1, 57, 0
1, 25824, Note_on_c, 1, 78, 127
1, 25824, Note_on_c, 1, 69, 127
1, 25824, Note_on_c, 1, 59, 127
1, 25869, Note_off_c, 1, 78, 0
1, 25869, Note_off_c, 1, 69, 0
1, 25869, Note_off_c, 1, 59, 0
1, 25872, Note_on_c, 1, 76, 127
1, 25872, Note_on_c, 1, 68, 127
1, 25872, Note_on_c, 1, 61, 127
1, 25917, Note_off_c, 1, 76, 0
1, 25917, Note_off_c, 1, 68, 0
1, 25917, Note_off_c, 1, 61, 0
1, 25920, Note_on_c, 1, 78, 127
1, 25920, Note_on_c, 1, 66, 127
1, 25920, Note_on_c, 1, 62, 127
1, 25965, Note_off_c, 1, 66, 0
1, 25968, Note_on_c, 1, 73, 127
1, 26009, Note_off_c, 1, 62, 0
1, 26013, Note_off_c, 1, 73, 0
1, 26016, Note_on_c, 1, 71, 127
1, 26016, Note_on_c, 1, 61, 127
1, 26061, Note_off_c, 1, 71, 0
1, 26064, Note_on_c, 1, 69, 127
1, 26105, Note_off_c, 1, 61, 0
1, 26109, Note_off_c, 1, 69, 0
1, 26112, Note_on_c, 1, 68, 127
1, 26112, Note_on_c, 1, 59, 127
1, 26157, Note_off_c, 1, 68, 0
1, 26201, Note_off_c, 1, 59, 0
1, 26208, Note_on_c, 1, 57, 127
1, 26289, Note_off_c, 1, 78, 0
1, 26297, Note_off_c, 1, 57, 0
1, 26304, Note_on_c, 1, 76, 127
1, 26304, Note_on_c, 1, 71, 127
1, 26304, Note_on_c, 1, 56, 127
1, 26349, Note_off_c, 1, 71, 0
1, 26352, Note_on_c, 1, 69, 127
1, 26393, Note_off_c, 1, 56, 0
1, 26397, Note_off_c, 1, 69, 0
1, 26400, Note_on_c, 1, 61, 127
1, 26448, Note_on_c, 1, 73, 127
1, 26489, Note_off_c, 1, 61, 0
1, 26493, Note_off_c, 1, 73, 0
1, 26496, Note_on_c, 1, 54, 127
1, 26544, Note_on_c, 1, 68, 127
1, 26585, Note_off_c, 1, 76, 0
1, 26585, Note_off_c, 1, 54, 0
1, 26589, Note_off_c, 1, 68, 0
1, 26592, Note_on_c, 1, 74, 127
1, 26592, Note_on_c, 1, 66, 127
1, 26592, Note_on_c, 1, 56, 127
1, 26637, Note_off_c, 1, 74, 0
1, 26637, Note_off_c, 1, 66, 0
1, 26637, Note_off_c, 1, 56, 0
1, 26640, Note_on_c, 1, 73, 127
1, 26640, Note_on_c, 1, 64, 127
1, 26640, Note_on_c, 1, 57, 127
1, 26685, Note_off_c, 1, 73, 0
1, 26685, Note_off_c, 1, 64, 0
1, 26685, Note_off_c, 1, 57, 0
1, 26688, Note_on_c, 1, 74, 127
1, 26688, Note_on_c, 1, 62, 127
1, 26688, Note_on_c, 1, 59, 127
1, 26733, Note_off_c, 1, 62, 0
1, 26736, Note_on_c, 1, 69, 127
1, 26777, Note_off_c, 1, 59, 0
1, 26781, Note_off_c, 1, 69, 0
1, 26784, Note_on_c, 1, 68, 127
1, 26784, Note_on_c, 1, 57, 127
1, 26829, Note_off_c, 1, 68, 0
1, 26832, Note_on_c, 1, 66, 127
1, 26873, Note_off_c, 1, 57, 0
1, 26877, Note_off_c, 1, 66, 0
1, 26880, Note_on_c, 1, 64, 127
1, 26880, Note_on_c, 1, 56, 127
1, 26925, Note_off_c, 1, 64, 0
1, 26969, Note_off_c, 1, 56, 0
1, 26976, Note_on_c, 1, 52, 127
1, 27057, Note_off_c, 1, 74, 0
1, 27065, Note_off_c, 1, 52, 0
1, 27072, Note_on_c, 1, 73, 127
1, 27072, Note_on_c, 1, 67, 127
1, 27072, Note_on_c, 1, 57, 127
1, 27117, Note_off_c, 1, 67, 0
1, 27120, Note_on_c, 1, 66, 127
1, 27161, Note_off_c, 1, 57, 0
1, 27165, Note_off_c, 1, 66, 0
1, 27168, Note_on_c, 1, 45, 127
1, 27216, Note_on_c, 1, 69, 127
1, 27257, Note_off_c, 1, 45, 0
1, 27261, Note_off_c, 1, 69, 0
1, 27264, Note_on_c, 1, 50, 127
1, 27312, Note_on_c, 1, 64, 127
1, 27353, Note_off_c, 1, 73, 0
1, 27353, Note_off_c, 1, 50, 0
1, 27357, Note_off_c, 1, 64, 0
1, 27360, Note_on_c, 1, 71, 127
1, 27360, Note_on_c, 1, 62, 127
1, 27360, Note_on_c, 1, 49, 127
1, 27405, Note_off_c, 1, 71, 0
1, 27405, Note_off_c, 1, 62, 0
1, 27408, Note_on_c, 1, 69, 127
1, 27408, Note_on_c, 1, 61, 127
1, 27449, Note_off_c, 1, 49, 0
1, 27453, Note_off_c, 1, 69, 0
1, 27453, Note_off_c, 1, 61, 0
1, 27456, Note_on_c, 1, 71, 127
1, 27456, Note_on_c, 1, 59, 127
1, 27456, Note_on_c, 1, 50, 127
1, 27501, Note_off_c, 1, 59, 0
1, 27504, Note_on_c, 1, 66, 127
1, 27545, Note_off_c, 1, 50, 0
1, 27549, Note_off_c, 1, 66, 0
1, 27552, Note_on_c, 1, 64, 127
1, 27552, Note_on_c, 1, 47, 127
1, 27597, Note_off_c, 1, 64, 0
1, 27600, Note_on_c, 1, 62, 127
1, 27641, Note_off_c, 1, 47, 0
1, 27645, Note_off_c, 1, 62, 0
1, 27648, Note_on_c, 1, 61, 127
1, 27648, Note_on_c, 1, 52, 127
1, 27693, Note_off_c, 1, 61, 0
1, 27737, Note_off_c, 1, 52, 0
1, 27825, Note_off_c, 1, 71, 0
1, 27840, Note_on_c, 1, 69, 127
1, 27840, Note_on_c, 1, 64, 127
1, 27840, Note_on_c, 1, 49, 127
1, 27885, Note_off_c, 1, 64, 0
1, 27888, Note_on_c, 1, 62, 127
1, 27929, Note_off_c, 1, 49, 0
1, 27933, Note_off_c, 1, 62, 0
1, 27936, Note_on_c, 1, 54, 127
1, 27984, Note_on_c, 1, 66, 127
1, 28025, Note_off_c, 1, 54, 0
1, 28029, Note_off_c, 1, 66, 0
1, 28032, Note_on_c, 1, 47, 127
1, 28080, Note_on_c, 1, 61, 127
1, 28121, Note_off_c, 1, 69, 0
1, 28125, Note_off_c, 1, 61, 0
1, 28128, Note_on_c, 1, 68, 127
1, 28128, Note_on_c, 1, 59, 127
1, 28173, Note_off_c, 1, 68, 0
1, 28173, Note_off_c, 1, 59, 0
1, 28209, Note_off_c, 1, 47, 0
1, 28224, Note_on_c, 1, 68, 127
1, 28224, Note_on_c, 1, 62, 127
1, 28224, Note_on_c, 1, 52, 127
1, 28269, Note_off_c, 1, 68, 0
1, 28269, Note_off_c, 1, 62, 0
1, 28272, Note_on_c, 1, 69, 127
1, 28272, Note_on_c, 1, 66, 127
1, 28317, Note_off_c, 1, 69, 0
1, 28317, Note_off_c, 1, 66, 0
1, 28320, Note_on_c, 1, 71, 127
1, 28320, Note_on_c, 1, 64, 127
1, 28365, Note_off_c, 1, 71, 0
1, 28365, Note_off_c, 1, 64, 0
1, 28401, Note_off_c, 1, 52, 0
1, 28416, Note_on_c, 1, 69, 127
1, 28416, Note_on_c, 1, 61, 127
1, 28416, Note_on_c, 1, 45, 127
1, 28461, Note_off_c, 1, 61, 0
1, 28464, Note_on_c, 1, 62, 127
1, 28505, Note_off_c, 1, 45, 0
1, 28509, Note_off_c, 1, 62, 0
1, 28512, Note_on_c, 1, 59, 127
1, 28512, Note_on_c, 1, 57, 127
1, 28557, Note_off_c, 1, 59, 0
1, 28593, Note_off_c, 1, 69, 0
1, 28601, Note_off_c, 1, 57, 0
1, 28608, Note_on_c, 1, 64, 127
1, 28608, Note_on_c, 1, 62, 127
1, 28608, Note_on_c, 1, 56, 127
1, 28653, Note_off_c, 1, 62, 0
1, 28656, Note_on_c, 1, 61, 127
1, 28697, Note_off_c, 1, 64, 0
1, 28697, Note_off_c, 1, 56, 0
1, 28701, Note_off_c, 1, 61, 0
1, 28704, Note_on_c, 1, 69, 127
1, 28704, Note_on_c, 1, 59, 127
1, 28704, Note_on_c, 1, 54, 127
1, 28749, Note_off_c, 1, 59, 0
1, 28752, Note_on_c, 1, 57, 127
1, 28793, Note_off_c, 1, 69, 0
1, 28793, Note_off_c, 1, 54, 0
1, 28797, Note_off_c, 1, 57, 0
1, 28800, Note_on_c, 1, 71, 127
1, 28800, Note_on_c, 1, 64, 127
1, 28800, Note_on_c, 1, 56, 127
1, 28845, Note_off_c, 1, 71, 0
1, 28848, Note_on_c, 1, 69, 127
1, 28889, Note_off_c, 1, 56, 0
1, 28893, Note_off_c, 1, 69, 0
1, 28896, Note_on_c, 1, 68, 127
1, 28896, Note_on_c, 1, 54, 127
1, 28941, Note_off_c, 1, 68, 0
1, 28941, Note_off_c, 1, 54, 0
1, 28944, Note_on_c, 1, 66, 127
1, 28989, Note_off_c, 1, 66, 0
1, 28992, Note_on_c, 1, 57, 127
1, 29037, Note_off_c, 1, 57, 0
1, 29136, Note_on_c, 1, 52, 127
1, 29169, Note_off_c, 1, 64, 0
1, 29181, Note_off_c, 1, 52, 0
1, 29184, Note_on_c, 1, 73, 127
1, 29184, Note_on_c, 1, 64, 127
1, 29184, Note_on_c, 1, 57, 127
1, 29207, Note_off_c, 1, 73, 0
1, 29208, Note_on_c, 1, 74, 127
1, 29231, Note_off_c, 1, 74, 0
1, 29273, Note_off_c, 1, 64, 0
1, 29280, Note_on_c, 1, 71, 127
1, 29280, Note_on_c, 1, 62, 127
1, 29325, Note_off_c, 1, 71, 0
1, 29325, Note_off_c, 1, 62, 0
1, 29361, Note_off_c, 1, 57, 0
1, 29376, Note_on_c, 1, 74, 127
1, 29376, Note_on_c, 1, 66, 127
1, 29376, Note_on_c, 1, 45, 127
1, 29421, Note_off_c, 1, 74, 0
1, 29421, Note_off_c, 1, 66, 0
1, 29424, Note_on_c, 1, 73, 127
1, 29424, Note_on_c, 1, 64, 127
1, 29465, Note_off_c, 1, 45, 0
1, 29469, Note_off_c, 1, 73, 0
1, 29469, Note_off_c, 1, 64, 0
1, 29472, Note_on_c, 1, 71, 127
1, 29472, Note_on_c, 1, 62, 127
1, 29472, Note_on_c, 1, 47, 127
1, 29517, Note_off_c, 1, 71, 0
1, 29517, Note_off_c, 1, 62, 0
1, 29520, Note_on_c, 1, 69, 127
1, 29520, Note_on_c, 1, 61, 127
1, 29561, Note_off_c, 1, 47, 0
1, 29565, Note_off_c, 1, 69, 0
1, 29565, Note_off_c, 1, 61, 0
1, 29568, Note_on_c, 1, 76, 127
1, 29568, Note_on_c, 1, 67, 127
1, 29568, Note_on_c, 1, 49, 127
1, 29613, Note_off_c, 1, 76, 0
1, 29616, Note_on_c, 1, 74, 127
1, 29657, Note_off_c, 1, 49, 0
1, 29661, Note_off_c, 1, 74, 0
1, 29664, Note_on_c, 1, 73, 127
1, 29664, Note_on_c, 1, 50, 127
1, 29709, Note_off_c, 1, 73, 0
1, 29709, Note_off_c, 1, 50, 0
1, 29712, Note_on_c, 1, 71, 127
1, 29712, Note_on_c, 1, 52, 127
1, 29757, Note_off_c, 1, 71, 0
1, 29757, Note_off_c, 1, 52, 0
1, 29760, Note_on_c, 1, 69, 127
1, 29760, Note_on_c, 1, 54, 127
1, 29805, Note_off_c, 1, 54, 0
1, 29833, Note_off_c, 1, 67, 0
1, 29849, Note_off_c, 1, 69, 0
1, 29856, Note_on_c, 1, 74, 127
1, 29856, Note_on_c, 1, 66, 127
1, 29856, Note_on_c, 1, 50, 127
1, 29901, Note_off_c, 1, 66, 0
1, 29901, Note_off_c, 1, 50, 0
1, 29904, Note_on_c, 1, 64, 127
1, 29904, Note_on_c, 1, 49, 127
1, 29949, Note_off_c, 1, 64, 0
1, 29949, Note_off_c, 1, 49, 0
1, 29952, Note_on_c, 1, 47, 127
1, 30000, Note_on_c, 1, 68, 127
1, 30041, Note_off_c, 1, 74, 0
1, 30041, Note_off_c, 1, 47, 0
1, 30045, Note_off_c, 1, 68, 0
1, 30048, Note_on_c, 1, 73, 127
1, 30048, Note_on_c, 1, 69, 127
1, 30048, Note_on_c, 1, 49, 127
1, 30137, Note_off_c, 1, 73, 0
1, 30137, Note_off_c, 1, 49, 0
1, 30144, Note_on_c, 1, 71, 127
1, 30144, Note_on_c, 1, 50, 127
1, 30189, Note_off_c, 1, 71, 0
1, 30225, Note_off_c, 1, 69, 0
1, 30233, Note_off_c, 1, 50, 0
1, 30240, Note_on_c, 1, 74, 127
1, 30240, Note_on_c, 1, 68, 127
1, 30240, Note_on_c, 1, 52, 127
1, 30285, Note_off_c, 1, 74, 0
1, 30288, Note_on_c, 1, 71, 127
1, 30329, Note_off_c, 1, 68, 0
1, 30329, Note_off_c, 1, 52, 0
1, 30333, Note_off_c, 1, 71, 0
1, 30336, Note_on_c, 1, 73, 127
1, 30336, Note_on_c, 1, 69, 127
1, 30336, Note_on_c, 1, 45, 127
1, 30381, Note_off_c, 1, 73, 0
1, 30384, Note_on_c, 1, 71, 127
1, 30425, Note_off_c, 1, 45, 0
1, 30429, Note_off_c, 1, 71, 0
1, 30432, Note_on_c, 1, 57, 127
1, 30513, Note_off_c, 1, 69, 0
1, 30521, Note_off_c, 1, 57, 0
1, 30528, Note_on_c, 1, 73, 127
1, 30528, Note_on_c, 1, 56, 127
1, 30573, Note_off_c, 1, 73, 0
1, 30576, Note_on_c, 1, 75, 127
1, 30617, Note_off_c, 1, 56, 0
1, 30621, Note_off_c, 1, 75, 0
1, 30624, Note_on_c, 1, 76, 127
1, 30624, Note_on_c, 1, 54, 127
1, 30669, Note_off_c, 1, 76, 0
1, 30672, Note_on_c, 1, 78, 127
1, 30713, Note_off_c, 1, 54, 0
1, 30717, Note_off_c, 1, 78, 0
1, 30720, Note_on_c, 1, 80, 127
1, 30720, Note_on_c, 1, 76, 127
1, 30720, Note_on_c, 1, 52, 127
1, 30765, Note_off_c, 1, 80, 0
1, 30768, Note_on_c, 1, 81, 127
1, 30809, Note_off_c, 1, 52, 0
1, 30813, Note_off_c, 1, 81, 0
1, 30816, Note_on_c, 1, 78, 127
1, 30816, Note_on_c, 1, 64, 127
1, 30861, Note_off_c, 1, 78, 0
1, 30897, Note_off_c, 1, 76, 0
1, 30905, Note_off_c, 1, 64, 0
1, 30912, Note_on_c, 1, 81, 127
1, 30912, Note_on_c, 1, 71, 127
1, 30912, Note_on_c, 1, 63, 127
1, 30957, Note_off_c, 1, 81, 0
1, 30960, Note_on_c, 1, 80, 127
1, 31001, Note_off_c, 1, 71, 0
1, 31001, Note_off_c, 1, 63, 0
1, 31005, Note_off_c, 1, 80, 0
1, 31008, Note_on_c, 1, 78, 127
1, 31008, Note_on_c, 1, 76, 127
1, 31008, Note_on_c, 1, 61, 127
1, 31053, Note_off_c, 1, 78, 0
1, 31097, Note_off_c, 1, 61, 0
1, 31101, Note_off_c, 1, 76, 0
1, 31104, Note_on_c, 1, 83, 127
1, 31104, Note_on_c, 1, 78, 127
1, 31104, Note_on_c, 1, 63, 127
1, 31149, Note_off_c, 1, 78, 0
1, 31152, Note_on_c, 1, 76, 127
1, 31193, Note_off_c, 1, 63, 0
1, 31197, Note_off_c, 1, 76, 0
1, 31200, Note_on_c, 1, 75, 127
1, 31200, Note_on_c, 1, 61, 127
1, 31245, Note_off_c, 1, 75, 0
1, 31245, Note_off_c, 1, 61, 0
1, 31248, Note_on_c, 1, 73, 127
1, 31293, Note_off_c, 1, 73, 0
1, 31296, Note_on_c, 1, 71, 127
1, 31296, Note_on_c, 1, 64, 127
1, 31341, Note_off_c, 1, 64, 0
1, 31440, Note_on_c, 1, 59, 127
1, 31473, Note_off_c, 1, 71, 0
1, 31485, Note_off_c, 1, 59, 0
1, 31488, Note_on_c, 1, 80, 127
1, 31512, Note_off_c, 1, 80, 0
1, 31512, Note_on_c, 1, 81, 127
1, 31536, Note_off_c, 1, 81, 0
1, 31577, Note_off_c, 1, 83, 0
1, 31680, Note_on_c, 1, 85, 127
1, 31680, Note_on_c, 1, 81, 127
1, 31680, Note_on_c, 1, 52, 127
1, 31725, Note_off_c, 1, 85, 0
1, 31725, Note_off_c, 1, 81, 0
1, 31728, Note_on_c, 1, 83, 127
1, 31728, Note_on_c, 1, 80, 127
1, 31769, Note_off_c, 1, 52, 0
1, 31773, Note_off_c, 1, 83, 0
1, 31773, Note_off_c, 1, 80, 0
1, 31776, Note_on_c, 1, 81, 127
1, 31776, Note_on_c, 1, 78, 127
1, 31776, Note_on_c, 1, 54, 127
1, 31821, Note_off_c, 1, 81, 0
1, 31821, Note_off_c, 1, 78, 0
1, 31824, Note_on_c, 1, 80, 127
1, 31824, Note_on_c, 1, 76, 127
1, 31865, Note_off_c, 1, 54, 0
1, 31869, Note_off_c, 1, 80, 0
1, 31869, Note_off_c, 1, 76, 0
1, 31872, Note_on_c, 1, 86, 127
1, 31872, Note_on_c, 1, 83, 127
1, 31872, Note_on_c, 1, 56, 127
1, 31917, Note_off_c, 1, 83, 0
1, 31920, Note_on_c, 1, 81, 127
1, 31961, Note_off_c, 1, 56, 0
1, 31965, Note_off_c, 1, 81, 0
1, 31968, Note_on_c, 1, 80, 127
1, 31968, Note_on_c, 1, 57, 127
1, 32013, Note_off_c, 1, 80, 0
1, 32013, Note_off_c, 1, 57, 0
1, 32016, Note_on_c, 1, 78, 127
1, 32016, Note_on_c, 1, 59, 127
1, 32061, Note_off_c, 1, 78, 0
1, 32061, Note_off_c, 1, 59, 0
1, 32064, Note_on_c, 1, 76, 127
1, 32064, Note_on_c, 1, 61, 127
1, 32109, Note_off_c, 1, 61, 0
1, 32137, Note_off_c, 1, 86, 0
1, 32153, Note_off_c, 1, 76, 0
1, 32160, Note_on_c, 1, 85, 127
1, 32160, Note_on_c, 1, 81, 127
1, 32160, Note_on_c, 1, 57, 127
1, 32205, Note_off_c, 1, 85, 0
1, 32205, Note_off_c, 1, 57, 0
1, 32208, Note_on_c, 1, 83, 127
1, 32208, Note_on_c, 1, 56, 127
1, 32253, Note_off_c, 1, 83, 0
1, 32253, Note_off_c, 1, 56, 0
1, 32256, Note_on_c, 1, 54, 127
1, 32304, Note_on_c, 1, 87, 127
1, 32345, Note_off_c, 1, 81, 0
1, 32345, Note_off_c, 1, 54, 0
1, 32349, Note_off_c, 1, 87, 0
1, 32352, Note_on_c, 1, 88, 127
1, 32352, Note_on_c, 1, 80, 127
1, 32352, Note_on_c, 1, 56, 127
1, 32441, Note_off_c, 1, 80, 0
1, 32441, Note_off_c, 1, 56, 0
1, 32448, Note_on_c, 1, 78, 127
1, 32448, Note_on_c, 1, 57, 127
1, 32493, Note_off_c, 1, 78, 0
1, 32529, Note_off_c, 1, 88, 0
1, 32537, Note_off_c, 1, 57, 0
1, 32544, Note_on_c, 1, 87, 127
1, 32544, Note_on_c, 1, 81, 127
1, 32544, Note_on_c, 1, 59, 127
1, 32589, Note_off_c, 1, 81, 0
1, 32592, Note_on_c, 1, 83, 127
1, 32633, Note_off_c, 1, 87, 0
1, 32633, Note_off_c, 1, 59, 0
1, 32637, Note_off_c, 1, 83, 0
1, 32640, Note_on_c, 1, 88, 127
1, 32640, Note_on_c, 1, 81, 127
1, 32640, Note_on_c, 1, 52, 127
1, 32685, Note_off_c, 1, 81, 0
1, 32688, Note_on_c, 1, 80, 127
1, 32729, Note_off_c, 1, 52, 0
1, 32733, Note_off_c, 1, 80, 0
1, 32736, Note_on_c, 1, 78, 127
1, 32736, Note_on_c, 1, 54, 127
1, 32781, Note_off_c, 1, 78, 0
1, 32825, Note_off_c, 1, 54, 0
1, 32832, Note_on_c, 1, 76, 127
1, 32832, Note_on_c, 1, 56, 127
1, 32877, Note_off_c, 1, 88, 0
1, 32880, Note_on_c, 1, 83, 127
1, 32921, Note_off_c, 1, 56, 0
1, 32925, Note_off_c, 1, 83, 0
1, 33024, Note_on_c, 1, 57, 127
1, 33113, Note_off_c, 1, 57, 0
1, 33201, Note_off_c, 1, 76, 0
1, 33216, Note_on_c, 1, 81, 127
1, 33216, Note_on_c, 1, 75, 127
1, 33216, Note_on_c, 1, 54, 127
1, 33261, Note_off_c, 1, 81, 0
1, 33264, Note_on_c, 1, 80, 127
1, 33305, Note_off_c, 1, 54, 0
1, 33309, Note_off_c, 1, 80, 0
1, 33312, Note_on_c, 1, 59, 127
1, 33360, Note_on_c, 1, 83, 127
1, 33401, Note_off_c, 1, 59, 0
1, 33405, Note_off_c, 1, 83, 0
1, 33408, Note_on_c, 1, 52, 127
1, 33456, Note_on_c, 1, 78, 127
1, 33497, Note_off_c, 1, 75, 0
1, 33497, Note_off_c, 1, 52, 0
1, 33501, Note_off_c, 1, 78, 0
1, 33504, Note_on_c, 1, 76, 127
1, 33504, Note_on_c, 1, 73, 127
1, 33504, Note_on_c, 1, 54, 127
1, 33549, Note_off_c, 1, 76, 0
1, 33549, Note_off_c, 1, 73, 0
1, 33549, Note_off_c, 1, 54, 0
1, 33552, Note_on_c, 1, 75, 127
1, 33552, Note_on_c, 1, 71, 127
1, 33552, Note_on_c, 1, 56, 127
1, 33597, Note_off_c, 1, 75, 0
1, 33597, Note_off_c, 1, 71, 0
1, 33597, Note_off_c, 1, 56, 0
1, 33600, Note_on_c, 1, 73, 127
1, 33600, Note_on_c, 1, 57, 127
1, 33648, Note_on_c, 1, 80, 127
1, 33689, Note_off_c, 1, 57, 0
1, 33693, Note_off_c, 1, 80, 0
1, 33696, Note_on_c, 1, 78, 127
1, 33696, Note_on_c, 1, 56, 127
1, 33741, Note_off_c, 1, 78, 0
1, 33744, Note_on_c, 1, 76, 127
1, 33777, Note_off_c, 1, 73, 0
1, 33785, Note_off_c, 1, 56, 0
1, 33789, Note_off_c, 1, 76, 0
1, 33792, Note_on_c, 1, 75, 127
1, 33792, Note_on_c, 1, 73, 127
1, 33792, Note_on_c, 1, 54, 127
1, 33837, Note_off_c, 1, 75, 0
1, 33881, Note_off_c, 1, 54, 0
1, 33888, Note_on_c, 1, 52, 127
1, 33936, Note_on_c, 1, 76, 127
1, 33969, Note_off_c, 1, 73, 0
1, 33977, Note_off_c, 1, 52, 0
1, 33981, Note_off_c, 1, 76, 0
1, 33984, Note_on_c, 1, 78, 127
1, 33984, Note_on_c, 1, 71, 127
1, 33984, Note_on_c, 1, 51, 127
1, 34029, Note_off_c, 1, 78, 0
1, 34032, Note_on_c, 1, 76, 127
1, 34073, Note_off_c, 1, 51, 0
1, 34077, Note_off_c, 1, 76, 0
1, 34080, Note_on_c, 1, 56, 127
1, 34128, Note_on_c, 1, 80, 127
1, 34169, Note_off_c, 1, 56, 0
1, 34173, Note_off_c, 1, 80, 0
1, 34176, Note_on_c, 1, 49, 127
1, 34224, Note_on_c, 1, 75, 127
1, 34265, Note_off_c, 1, 71, 0
1, 34265, Note_off_c, 1, 49, 0
1, 34269, Note_off_c, 1, 75, 0
1, 34272, Note_on_c, 1, 73, 127
1, 34272, Note_on_c, 1, 69, 127
1, 34272, Note_on_c, 1, 51, 127
1, 34317, Note_off_c, 1, 73, 0
1, 34317, Note_off_c, 1, 69, 0
1, 34317, Note_off_c, 1, 51, 0
1, 34320, Note_on_c, 1, 71, 127
1, 34320, Note_on_c, 1, 68, 127
1, 34320, Note_on_c, 1, 52, 127
1, 34365, Note_off_c, 1, 71, 0
1, 34365, Note_off_c, 1, 68, 0
1, 34365, Note_off_c, 1, 52, 0
1, 34368, Note_on_c, 1, 69, 127
1, 34368, Note_on_c, 1, 54, 127
1, 34416, Note_on_c, 1, 76, 127
1, 34457, Note_off_c, 1, 54, 0
1, 34461, Note_off_c, 1, 76, 0
1, 34464, Note_on_c, 1, 75, 127
1, 34464, Note_on_c, 1, 52, 127
1, 34509, Note_off_c, 1, 75, 0
1, 34512, Note_on_c, 1, 73, 127
1, 34553, Note_off_c, 1, 52, 0
1, 34557, Note_off_c, 1, 73, 0
1, 34560, Note_on_c, 1, 71, 127
1, 34560, Note_on_c, 1, 50, 127
1, 34605, Note_off_c, 1, 71, 0
1, 34649, Note_off_c, 1, 50, 0
1, 34656, Note_on_c, 1, 47, 127
1, 34737, Note_off_c, 1, 69, 0
1, 34745, Note_off_c, 1, 47, 0
1, 34752, Note_on_c, 1, 74, 127
1, 34752, Note_on_c, 1, 68, 127
1, 34752, Note_on_c, 1, 52, 127
1, 34797, Note_off_c, 1, 74, 0
1, 34800, Note_on_c, 1, 73, 127
1, 34841, Note_off_c, 1, 52, 0
1, 34845, Note_off_c, 1, 73, 0
1, 34848, Note_on_c, 1, 40, 127
1, 34896, Note_on_c, 1, 76, 127
1, 34937, Note_off_c, 1, 40, 0
1, 34941, Note_off_c, 1, 76, 0
1, 34944, Note_on_c, 1, 45, 127
1, 34992, Note_on_c, 1, 71, 127
1, 35033, Note_off_c, 1, 68, 0
1, 35033, Note_off_c, 1, 45, 0
1, 35037, Note_off_c, 1, 71, 0
1, 35040, Note_on_c, 1, 69, 127
1, 35040, Note_on_c, 1, 66, 127
1, 35040, Note_on_c, 1, 44, 127
1, 35085, Note_off_c, 1, 69, 0
1, 35085, Note_off_c, 1, 66, 0
1, 35088, Note_on_c, 1, 68, 127
1, 35088, Note_on_c, 1, 64, 127
1, 35129, Note_off_c, 1, 44, 0
1, 35133, Note_off_c, 1, 68, 0
1, 35133, Note_off_c, 1, 64, 0
1, 35136, Note_on_c, 1, 66, 127
1, 35136, Note_on_c, 1, 45, 127
1, 35184, Note_on_c, 1, 73, 127
1, 35225, Note_off_c, 1, 45, 0
1, 35229, Note_off_c, 1, 73, 0
1, 35232, Note_on_c, 1, 71, 127
1, 35232, Note_on_c, 1, 42, 127
1, 35277, Note_off_c, 1, 71, 0
1, 35280, Note_on_c, 1, 69, 127
1, 35321, Note_off_c, 1, 42, 0
1, 35325, Note_off_c, 1, 69, 0
1, 35328, Note_on_c, 1, 68, 127
1, 35328, Note_on_c, 1, 47, 127
1, 35373, Note_off_c, 1, 68, 0
1, 35417, Note_off_c, 1, 47, 0
1, 35505, Note_off_c, 1, 66, 0
1, 35520, Note_on_c, 1, 71, 127
1, 35520, Note_on_c, 1, 64, 127
1, 35520, Note_on_c, 1, 44, 127
1, 35565, Note_off_c, 1, 71, 0
1, 35568, Note_on_c, 1, 69, 127
1, 35609, Note_off_c, 1, 44, 0
1, 35613, Note_off_c, 1, 69, 0
1, 35616, Note_on_c, 1, 49, 127
1, 35664, Note_on_c, 1, 73, 127
1, 35705, Note_off_c, 1, 49, 0
1, 35709, Note_off_c, 1, 73, 0
1, 35712, Note_on_c, 1, 42, 127
1, 35760, Note_on_c, 1, 68, 127
1, 35801, Note_off_c, 1, 64, 0
1, 35805, Note_off_c, 1, 68, 0
1, 35808, Note_on_c, 1, 66, 127
1, 35808, Note_on_c, 1, 63, 127
1, 35853, Note_off_c, 1, 66, 0
1, 35853, Note_off_c, 1, 63, 0
1, 35856, Note_on_c, 1, 61, 127
1, 35889, Note_off_c, 1, 42, 0
1, 35901, Note_off_c, 1, 61, 0
1, 35904, Note_on_c, 1, 69, 127
1, 35904, Note_on_c, 1, 63, 127
1, 35904, Note_on_c, 1, 47, 127
1, 35949, Note_off_c, 1, 69, 0
1, 35949, Note_off_c, 1, 63, 0
1, 35952, Note_on_c, 1, 73, 127
1, 35952, Note_on_c, 1, 64, 127
1, 35997, Note_off_c, 1, 73, 0
1, 35997, Note_off_c, 1, 64, 0
1, 36000, Note_on_c, 1, 71, 127
1, 36000, Note_on_c, 1, 66, 127
1, 36045, Note_off_c, 1, 71, 0
1, 36045, Note_off_c, 1, 66, 0
1, 36081, Note_off_c, 1, 47, 0
1, 36096, Note_on_c, 1, 68, 127
1, 36096, Note_on_c, 1, 64, 127
1, 36096, Note_on_c, 1, 40, 127
1, 36185, Note_off_c, 1, 40, 0
1, 36192, Note_on_c, 1, 45, 127
1, 36229, Note_off_c, 1, 68, 0
1, 36229, Note_off_c, 1, 64, 0
1, 36240, Note_on_c, 1, 69, 127
1, 36240, Note_on_c, 1, 66, 127
1, 36281, Note_off_c, 1, 45, 0
1, 36285, Note_off_c, 1, 69, 0
1, 36285, Note_off_c, 1, 66, 0
1, 36288, Note_on_c, 1, 66, 127
1, 36288, Note_on_c, 1, 63, 127
1, 36288, Note_on_c, 1, 47, 127
1, 36377, Note_off_c, 1, 47, 0
1, 36421, Note_off_c, 1, 66, 0
1, 36421, Note_off_c, 1, 63, 0
1, 36432, Note_on_c, 1, 64, 127
1, 36477, Note_off_c, 1, 64, 0
1, 36480, Note_on_c, 1, 64, 127
1, 36480, Note_on_c, 1, 40, 127
1, 36834, Note_off_c, 1, 64, 0
1, 36834, Note_off_c, 1, 40, 0
1, 36864, Note_on_c, 1, 71, 127
1, 36864, Note_on_c, 1, 40, 127
1, 36953, Note_off_c, 1, 71, 0
1, 36960, Note_on_c, 1, 73, 127
1, 37005, Note_off_c, 1, 73, 0
1, 37008, Note_on_c, 1, 74, 127
1, 37041, Note_off_c, 1, 40, 0
1, 37053, Note_off_c, 1, 74, 0
1, 37056, Note_on_c, 1, 73, 127
1, 37101, Note_off_c, 1, 73, 0
1, 37104, Note_on_c, 1, 71, 127
1, 37149, Note_off_c, 1, 71, 0
1, 37152, Note_on_c, 1, 69, 127
1, 37152, Note_on_c, 1, 52, 127
1, 37197, Note_off_c, 1, 69, 0
1, 37200, Note_on_c, 1, 68, 127
1, 37241, Note_off_c, 1, 52, 0
1, 37245, Note_off_c, 1, 68, 0
1, 37248, Note_on_c, 1, 76, 127
1, 37248, Note_on_c, 1, 50, 127
1, 37337, Note_off_c, 1, 50, 0
1, 37344, Note_on_c, 1, 49, 127
1, 37389, Note_off_c, 1, 49, 0
1, 37425, Note_off_c, 1, 76, 0
1, 37440, Note_on_c, 1, 64, 127
1, 37440, Note_on_c, 1, 52, 127
1, 37485, Note_off_c, 1, 52, 0
1, 37488, Note_on_c, 1, 50, 127
1, 37529, Note_off_c, 1, 64, 0
1, 37533, Note_off_c, 1, 50, 0
1, 37536, Note_on_c, 1, 68, 127
1, 37536, Note_on_c, 1, 49, 127
1, 37581, Note_off_c, 1, 49, 0
1, 37584, Note_on_c, 1, 47, 127
1, 37625, Note_off_c, 1, 68, 0
1, 37629, Note_off_c, 1, 47, 0
1, 37632, Note_on_c, 1, 69, 127
1, 37632, Note_on_c, 1, 49, 127
1, 37721, Note_off_c, 1, 69, 0
1, 37721, Note_off_c, 1, 49, 0
1, 37728, Note_on_c, 1, 69, 127
1, 37728, Note_on_c, 1, 54, 127
1, 37751, Note_off_c, 1, 69, 0
1, 37752, Note_on_c, 1, 71, 127
1, 37775, Note_off_c, 1, 71, 0
1, 37776, Note_on_c, 1, 73, 127
1, 37817, Note_off_c, 1, 54, 0
1, 37821, Note_off_c, 1, 73, 0
1, 37824, Note_on_c, 1, 71, 127
1, 37824, Note_on_c, 1, 50, 127
1, 37913, Note_off_c, 1, 71, 0
1, 37913, Note_off_c, 1, 50, 0
1, 37920, Note_on_c, 1, 71, 127
1, 37920, Note_on_c, 1, 52, 127
1, 37943, Note_off_c, 1, 71, 0
1, 37944, Note_on_c, 1, 73, 127
1, 37967, Note_off_c, 1, 73, 0
1, 37968, Note_on_c, 1, 74, 127
1, 38009, Note_off_c, 1, 52, 0
1, 38013, Note_off_c, 1, 74, 0
1, 38016, Note_on_c, 1, 73, 127
1, 38016, Note_on_c, 1, 45, 127
1, 38105, Note_off_c, 1, 73, 0
1, 38105, Note_off_c, 1, 45, 0
1, 38112, Note_on_c, 1, 74, 127
1, 38112, Note_on_c, 1, 52, 127
1, 38157, Note_off_c, 1, 74, 0
1, 38160, Note_on_c, 1, 76, 127
1, 38201, Note_off_c, 1, 52, 0
1, 38205, Note_off_c, 1, 76, 0
1, 38208, Note_on_c, 1, 74, 127
1, 38208, Note_on_c, 1, 57, 127
1, 38253, Note_off_c, 1, 74, 0
1, 38256, Note_on_c, 1, 73, 127
1, 38297, Note_off_c, 1, 57, 0
1, 38301, Note_off_c, 1, 73, 0
1, 38304, Note_on_c, 1, 71, 127
1, 38304, Note_on_c, 1, 59, 127
1, 38349, Note_off_c, 1, 71, 0
1, 38352, Note_on_c, 1, 69, 127
1, 38393, Note_off_c, 1, 59, 0
1, 38397, Note_off_c, 1, 69, 0
1, 38400, Note_on_c, 1, 76, 127
1, 38400, Note_on_c, 1, 81, 127
1, 38400, Note_on_c, 1, 61, 127
1, 38489, Note_off_c, 1, 76, 0
1, 38489, Note_off_c, 1, 61, 0
1, 38496, Note_on_c, 1, 78, 127
1, 38496, Note_on_c, 1, 59, 127
1, 38541, Note_off_c, 1, 78, 0
1, 38544, Note_on_c, 1, 79, 127
1, 38585, Note_off_c, 1, 59, 0
1, 38589, Note_off_c, 1, 79, 0
1, 38592, Note_on_c, 1, 57, 127
1, 38681, Note_off_c, 1, 57, 0
1, 38688, Note_on_c, 1, 74, 127
1, 38733, Note_off_c, 1, 74, 0
1, 38736, Note_on_c, 1, 73, 127
1, 38754, Note_off_c, 1, 81, 0
1, 38781, Note_off_c, 1, 73, 0
1, 38784, Note_on_c, 1, 81, 127
1, 38784, Note_on_c, 1, 61, 127
1, 38873, Note_off_c, 1, 61, 0
1, 38880, Note_on_c, 1, 74, 127
1, 38880, Note_on_c, 1, 59, 127
1, 38903, Note_off_c, 1, 74, 0
1, 38904, Note_on_c, 1, 76, 127
1, 38925, Note_off_c, 1, 59, 0
1, 38927, Note_off_c, 1, 76, 0
1, 38928, Note_on_c, 1, 78, 127
1, 38961, Note_off_c, 1, 81, 0
1, 38973, Note_off_c, 1, 78, 0
1, 38976, Note_on_c, 1, 69, 127
1, 38976, Note_on_c, 1, 76, 127
1, 38976, Note_on_c, 1, 62, 127
1, 39021, Note_off_c, 1, 62, 0
1, 39024, Note_on_c, 1, 61, 127
1, 39065, Note_off_c, 1, 69, 0
1, 39065, Note_off_c, 1, 76, 0
1, 39069, Note_off_c, 1, 61, 0
1, 39072, Note_on_c, 1, 73, 127
1, 39072, Note_on_c, 1, 76, 127
1, 39072, Note_on_c, 1, 59, 127
1, 39095, Note_off_c, 1, 76, 0
1, 39096, Note_on_c, 1, 78, 127
1, 39117, Note_off_c, 1, 59, 0
1, 39119, Note_off_c, 1, 78, 0
1, 39120, Note_on_c, 1, 79, 127
1, 39120, Note_on_c, 1, 57, 127
1, 39161, Note_off_c, 1, 73, 0
1, 39165, Note_off_c, 1, 79, 0
1, 39165, Note_off_c, 1, 57, 0
1, 39168, Note_on_c, 1, 74, 127
1, 39168, Note_on_c, 1, 78, 127
1, 39168, Note_on_c, 1, 59, 127
1, 39213, Note_off_c, 1, 78, 0
1, 39216, Note_on_c, 1, 76, 127
1, 39257, Note_off_c, 1, 74, 0
1, 39257, Note_off_c, 1, 59, 0
1, 39261, Note_off_c, 1, 76, 0
1, 39264, Note_on_c, 1, 74, 127
1, 39264, Note_on_c, 1, 54, 127
1, 39288, Note_on_c, 1, 76, 127
1, 39309, Note_off_c, 1, 74, 0
1, 39311, Note_off_c, 1, 76, 0
1, 39312, Note_on_c, 1, 78, 127
1, 39312, Note_on_c, 1, 73, 127
1, 39353, Note_off_c, 1, 54, 0
1, 39357, Note_off_c, 1, 78, 0
1, 39357, Note_off_c, 1, 73, 0
1, 39360, Note_on_c, 1, 76, 127
1, 39360, Note_on_c, 1, 71, 127
1, 39360, Note_on_c, 1, 55, 127
1, 39405, Note_off_c, 1, 71, 0
1, 39408, Note_on_c, 1, 74, 127
1, 39449, Note_off_c, 1, 76, 0
1, 39449, Note_off_c, 1, 55, 0
1, 39453, Note_off_c, 1, 74, 0
1, 39456, Note_on_c, 1, 76, 127
1, 39456, Note_on_c, 1, 73, 127
1, 39456, Note_on_c, 1, 57, 127
1, 39479, Note_off_c, 1, 76, 0
1, 39480, Note_on_c, 1, 78, 127
1, 39501, Note_off_c, 1, 73, 0
1, 39503, Note_off_c, 1, 78, 0
1, 39504, Note_on_c, 1, 79, 127
1, 39545, Note_off_c, 1, 57, 0
1, 39549, Note_off_c, 1, 79, 0
1, 39552, Note_on_c, 1, 78, 127
1, 39552, Note_on_c, 1, 74, 127
1, 39552, Note_on_c, 1, 50, 127
1, 39641, Note_off_c, 1, 78, 0
1, 39641, Note_off_c, 1, 74, 0
1, 39641, Note_off_c, 1, 50, 0
1, 39648, Note_on_c, 1, 79, 127
1, 39648, Note_on_c, 1, 62, 127
1, 39693, Note_off_c, 1, 79, 0
1, 39696, Note_on_c, 1, 81, 127
1, 39737, Note_off_c, 1, 62, 0
1, 39741, Note_off_c, 1, 81, 0
1, 39744, Note_on_c, 1, 79, 127
1, 39744, Note_on_c, 1, 61, 127
1, 39789, Note_off_c, 1, 79, 0
1, 39792, Note_on_c, 1, 78, 127
1, 39833, Note_off_c, 1, 61, 0
1, 39837, Note_off_c, 1, 78, 0
1, 39840, Note_on_c, 1, 76, 127
1, 39840, Note_on_c, 1, 59, 127
1, 39885, Note_off_c, 1, 76, 0
1, 39888, Note_on_c, 1, 74, 127
1, 39929, Note_off_c, 1, 59, 0
1, 39933, Note_off_c, 1, 74, 0
1, 39936, Note_on_c, 1, 79, 127
1, 39936, Note_on_c, 1, 76, 127
1, 39936, Note_on_c, 1, 58, 127
1, 39981, Note_off_c, 1, 58, 0
1, 39984, Note_on_c, 1, 59, 127
1, 40025, Note_off_c, 1, 79, 0
1, 40025, Note_off_c, 1, 76, 0
1, 40029, Note_off_c, 1, 59, 0
1, 40032, Note_on_c, 1, 79, 127
1, 40032, Note_on_c, 1, 76, 127
1, 40032, Note_on_c, 1, 61, 127
1, 40055, Note_off_c, 1, 79, 0
1, 40055, Note_off_c, 1, 76, 0
1, 40056, Note_on_c, 1, 78, 127
1, 40056, Note_on_c, 1, 74, 127
1, 40077, Note_off_c, 1, 61, 0
1, 40079, Note_off_c, 1, 78, 0
1, 40079, Note_off_c, 1, 74, 0
1, 40080, Note_on_c, 1, 76, 127
1, 40080, Note_on_c, 1, 73, 127
1, 40080, Note_on_c, 1, 58, 127
1, 40125, Note_off_c, 1, 76, 0
1, 40125, Note_off_c, 1, 73, 0
1, 40125, Note_off_c, 1, 58, 0
1, 40128, Note_on_c, 1, 78, 127
1, 40128, Note_on_c, 1, 74, 127
1, 40128, Note_on_c, 1, 54, 127
1, 40217, Note_off_c, 1, 78, 0
1, 40217, Note_off_c, 1, 74, 0
1, 40248, Note_on_c, 1, 76, 127
1, 40248, Note_on_c, 1, 73, 127
1, 40271, Note_off_c, 1, 76, 0
1, 40271, Note_off_c, 1, 73, 0
1, 40272, Note_on_c, 1, 71, 127
1, 40317, Note_off_c, 1, 71, 0
1, 40365, Note_off_c, 1, 54, 0
1, 40368, Note_on_c, 1, 56, 127
1, 40413, Note_off_c, 1, 56, 0
1, 40416, Note_on_c, 1, 58, 127
1, 40461, Note_off_c, 1, 58, 0
1, 40512, Note_on_c, 1, 59, 127
1, 40557, Note_off_c, 1, 59, 0
1, 40608, Note_on_c, 1, 78, 127
1, 40608, Note_on_c, 1, 70, 127
1, 40608, Note_on_c, 1, 56, 127
1, 40653, Note_off_c, 1, 56, 0
1, 40656, Note_on_c, 1, 54, 127
1, 40697, Note_off_c, 1, 78, 0
1, 40697, Note_off_c, 1, 70, 0
1, 40701, Note_off_c, 1, 54, 0
1, 40704, Note_on_c, 1, 74, 127
1, 40704, Note_on_c, 1, 71, 127
1, 40704, Note_on_c, 1, 59, 127
1, 40793, Note_off_c, 1, 74, 0
1, 40793, Note_off_c, 1, 71, 0
1, 40793, Note_off_c, 1, 59, 0
1, 40800, Note_on_c, 1, 73, 127
1, 40800, Note_on_c, 1, 66, 127
1, 40800, Note_on_c, 1, 57, 127
1, 40845, Note_off_c, 1, 73, 0
1, 40848, Note_on_c, 1, 74, 127
1, 40889, Note_off_c, 1, 66, 0
1, 40889, Note_off_c, 1, 57, 0
1, 40893, Note_off_c, 1, 74, 0
1, 40896, Note_on_c, 1, 76, 127
1, 40896, Note_on_c, 1, 71, 127
1, 40896, Note_on_c, 1, 56, 127
1, 40941, Note_off_c, 1, 76, 0
1, 40944, Note_on_c, 1, 74, 127
1, 40985, Note_off_c, 1, 71, 0
1, 40989, Note_off_c, 1, 74, 0
1, 40992, Note_on_c, 1, 73, 127
1, 41037, Note_off_c, 1, 73, 0
1, 41073, Note_off_c, 1, 56, 0
1, 41088, Note_on_c, 1, 54, 127
1, 41184, Note_on_c, 1, 70, 127
1, 41229, Note_off_c, 1, 70, 0
1, 41232, Note_on_c, 1, 68, 127
1, 41277, Note_off_c, 1, 68, 0
1, 41280, Note_on_c, 1, 66, 127
1, 41325, Note_off_c, 1, 54, 0
1, 41328, Note_on_c, 1, 52, 127
1, 41369, Note_off_c, 1, 66, 0
1, 41373, Note_off_c, 1, 52, 0
1, 41376, Note_on_c, 1, 78, 127
1, 41376, Note_on_c, 1, 66, 127
1, 41376, Note_on_c, 1, 50, 127
1, 41421, Note_off_c, 1, 50, 0
1, 41424, Note_on_c, 1, 49, 127
1, 41465, Note_off_c, 1, 66, 0
1, 41469, Note_off_c, 1, 49, 0
1, 41472, Note_on_c, 1, 47, 127
1, 41520, Note_on_c, 1, 76, 127
1, 41561, Note_off_c, 1, 47, 0
1, 41565, Note_off_c, 1, 76, 0
1, 41568, Note_on_c, 1, 74, 127
1, 41568, Note_on_c, 1, 59, 127
1, 41605, Note_off_c, 1, 78, 0
1, 41613, Note_off_c, 1, 74, 0
1, 41616, Note_on_c, 1, 73, 127
1, 41661, Note_off_c, 1, 73, 0
1, 41664, Note_on_c, 1, 71, 127
1, 41709, Note_off_c, 1, 59, 0
1, 41712, Note_on_c, 1, 57, 127
1, 41753, Note_off_c, 1, 71, 0
1, 41757, Note_off_c, 1, 57, 0
1, 41760, Note_on_c, 1, 83, 127
1, 41760, Note_on_c, 1, 71, 127
1, 41760, Note_on_c, 1, 55, 127
1, 41805, Note_off_c, 1, 55, 0
1, 41808, Note_on_c, 1, 54, 127
1, 41849, Note_off_c, 1, 71, 0
1, 41853, Note_off_c, 1, 54, 0
1, 41856, Note_on_c, 1, 52, 127
1, 41904, Note_on_c, 1, 81, 127
1, 41945, Note_off_c, 1, 52, 0
1, 41949, Note_off_c, 1, 81, 0
1, 41952, Note_on_c, 1, 79, 127
1, 41952, Note_on_c, 1, 64, 127
1, 41989, Note_off_c, 1, 83, 0
1, 41997, Note_off_c, 1, 79, 0
1, 42000, Note_on_c, 1, 78, 127
1, 42000, Note_on_c, 1, 82, 127
1, 42045, Note_off_c, 1, 78, 0
1, 42045, Note_off_c, 1, 82, 0
1, 42093, Note_off_c, 1, 64, 0
1, 42096, Note_on_c, 1, 76, 127
1, 42096, Note_on_c, 1, 82, 127
1, 42096, Note_on_c, 1, 61, 127
1, 42141, Note_off_c, 1, 76, 0
1, 42141, Note_off_c, 1, 82, 0
1, 42141, Note_off_c, 1, 61, 0
1, 42144, Note_on_c, 1, 78, 127
1, 42144, Note_on_c, 1, 83, 127
1, 42144, Note_on_c, 1, 62, 127
1, 42189, Note_off_c, 1, 78, 0
1, 42189, Note_off_c, 1, 83, 0
1, 42189, Note_off_c, 1, 62, 0
1, 42192, Note_on_c, 1, 73, 127
1, 42192, Note_on_c, 1, 85, 127
1, 42192, Note_on_c, 1, 58, 127
1, 42237, Note_off_c, 1, 73, 0
1, 42237, Note_off_c, 1, 85, 0
1, 42237, Note_off_c, 1, 58, 0
1, 42240, Note_on_c, 1, 74, 127
1, 42240, Note_on_c, 1, 78, 127
1, 42240, Note_on_c, 1, 59, 127
1, 42285, Note_off_c, 1, 59, 0
1, 42288, Note_on_c, 1, 54, 127
1, 42333, Note_off_c, 1, 54, 0
1, 42336, Note_on_c, 1, 55, 127
1, 42373, Note_off_c, 1, 74, 0
1, 42373, Note_off_c, 1, 78, 0
1, 42381, Note_off_c, 1, 55, 0
1, 42384, Note_on_c, 1, 76, 127
1, 42384, Note_on_c, 1, 83, 127
1, 42384, Note_on_c, 1, 52, 127
1, 42429, Note_off_c, 1, 76, 0
1, 42429, Note_off_c, 1, 83, 0
1, 42429, Note_off_c, 1, 52, 0
1, 42432, Note_on_c, 1, 73, 127
1, 42432, Note_on_c, 1, 82, 127
1, 42432, Note_on_c, 1, 54, 127
1, 42455, Note_off_c, 1, 73, 0
1, 42456, Note_on_c, 1, 74, 127
1, 42479, Note_off_c, 1, 74, 0
1, 42521, Note_off_c, 1, 54, 0
1, 42528, Note_on_c, 1, 42, 127
1, 42565, Note_off_c, 1, 82, 0
1, 42576, Note_on_c, 1, 71, 127
1, 42576, Note_on_c, 1, 83, 127
1, 42617, Note_off_c, 1, 42, 0
1, 42621, Note_off_c, 1, 71, 0
1, 42621, Note_off_c, 1, 83, 0
1, 42624, Note_on_c, 1, 71, 127
1, 42624, Note_on_c, 1, 83, 127
1, 42624, Note_on_c, 1, 47, 127
1, 42669, Note_off_c, 1, 83, 0
1, 42672, Note_on_c, 1, 74, 127
1, 42717, Note_off_c, 1, 74, 0
1, 42720, Note_on_c, 1, 76, 127
1, 42765, Note_off_c, 1, 76, 0
1, 42768, Note_on_c, 1, 78, 127
1, 42801, Note_off_c, 1, 47, 0
1, 42813, Note_off_c, 1, 78, 0
1, 42912, Note_on_c, 1, 73, 127
1, 42912, Note_on_c, 1, 59, 127
1, 42957, Note_off_c, 1, 73, 0
1, 43001, Note_off_c, 1, 59, 0
1, 43005, Note_off_c, 1, 71, 0
1, 43008, Note_on_c, 1, 83, 127
1, 43008, Note_on_c, 1, 57, 127
1, 43097, Note_off_c, 1, 57, 0
1, 43104, Note_on_c, 1, 56, 127
1, 43149, Note_off_c, 1, 56, 0
1, 43185, Note_off_c, 1, 83, 0
1, 43200, Note_on_c, 1, 71, 127
1, 43200, Note_on_c, 1, 59, 127
1, 43245, Note_off_c, 1, 59, 0
1, 43248, Note_on_c, 1, 57, 127
1, 43289, Note_off_c, 1, 71, 0
1, 43293, Note_off_c, 1, 57, 0
1, 43296, Note_on_c, 1, 75, 127
1, 43296, Note_on_c, 1, 56, 127
1, 43341, Note_off_c, 1, 56, 0
1, 43344, Note_on_c, 1, 54, 127
1, 43385, Note_off_c, 1, 75, 0
1, 43389, Note_off_c, 1, 54, 0
1, 43392, Note_on_c, 1, 76, 127
1, 43392, Note_on_c, 1, 56, 127
1, 43481, Note_off_c, 1, 76, 0
1, 43481, Note_off_c, 1, 56, 0
1, 43488, Note_on_c, 1, 76, 127
1, 43488, Note_on_c, 1, 61, 127
1, 43511, Note_off_c, 1, 76, 0
1, 43512, Note_on_c, 1, 78, 127
1, 43535, Note_off_c, 1, 78, 0
1, 43536, Note_on_c, 1, 80, 127
1, 43577, Note_off_c, 1, 61, 0
1, 43581, Note_off_c, 1, 80, 0
1, 43584, Note_on_c, 1, 78, 127
1, 43584, Note_on_c, 1, 57, 127
1, 43673, Note_off_c, 1, 78, 0
1, 43673, Note_off_c, 1, 57, 0
1, 43680, Note_on_c, 1, 78, 127
1, 43680, Note_on_c, 1, 59, 127
1, 43703, Note_off_c, 1, 78, 0
1, 43704, Note_on_c, 1, 80, 127
1, 43727, Note_off_c, 1, 80, 0
1, 43728, Note_on_c, 1, 81, 127
1, 43769, Note_off_c, 1, 59, 0
1, 43773, Note_off_c, 1, 81, 0
1, 43776, Note_on_c, 1, 83, 127
1, 43776, Note_on_c, 1, 80, 127
1, 43776, Note_on_c, 1, 52, 127
1, 43865, Note_off_c, 1, 83, 0
1, 43865, Note_off_c, 1, 80, 0
1, 43872, Note_on_c, 1, 85, 127
1, 43872, Note_on_c, 1, 78, 127
1, 43917, Note_off_c, 1, 85, 0
1, 43920, Note_on_c, 1, 86, 127
1, 43961, Note_off_c, 1, 78, 0
1, 43965, Note_off_c, 1, 86, 0
1, 43968, Note_on_c, 1, 76, 127
1, 44013, Note_off_c, 1, 52, 0
1, 44016, Note_on_c, 1, 50, 127
1, 44061, Note_off_c, 1, 50, 0
1, 44064, Note_on_c, 1, 81, 127
1, 44064, Note_on_c, 1, 49, 127
1, 44109, Note_off_c, 1, 81, 0
1, 44109, Note_off_c, 1, 49, 0
1, 44112, Note_on_c, 1, 47, 127
1, 44157, Note_off_c, 1, 47, 0
1, 44160, Note_on_c, 1, 88, 127
1, 44205, Note_off_c, 1, 76, 0
1, 44208, Note_on_c, 1, 68, 127
1, 44253, Note_off_c, 1, 68, 0
1, 44256, Note_on_c, 1, 69, 127
1, 44301, Note_off_c, 1, 69, 0
1, 44304, Note_on_c, 1, 71, 127
1, 44337, Note_off_c, 1, 88, 0
1, 44349, Note_off_c, 1, 71, 0
1, 44448, Note_on_c, 1, 80, 127
1, 44448, Note_on_c, 1, 66, 127
1, 44448, Note_on_c, 1, 62, 127
1, 44493, Note_off_c, 1, 66, 0
1, 44496, Note_on_c, 1, 64, 127
1, 44537, Note_off_c, 1, 80, 0
1, 44537, Note_off_c, 1, 62, 0
1, 44541, Note_off_c, 1, 64, 0
1, 44544, Note_on_c, 1, 81, 127
1, 44544, Note_on_c, 1, 76, 127
1, 44544, Note_on_c, 1, 61, 127
1, 44633, Note_off_c, 1, 81, 0
1, 44633, Note_off_c, 1, 61, 0
1, 44640, Note_on_c, 1, 59, 127
1, 44664, Note_on_c, 1, 83, 127
1, 44687, Note_off_c, 1, 83, 0
1, 44688, Note_off_c, 1, 59, 0
1, 44688, Note_on_c, 1, 85, 127
1, 44688, Note_on_c, 1, 57, 127
1, 44733, Note_off_c, 1, 85, 0
1, 44733, Note_off_c, 1, 57, 0
1, 44784, Note_on_c, 1, 56, 127
1, 44829, Note_off_c, 1, 56, 0
1, 44832, Note_on_c, 1, 54, 127
1, 44877, Note_off_c, 1, 54, 0
1, 44880, Note_on_c, 1, 86, 127
1, 44880, Note_on_c, 1, 52, 127
1, 44925, Note_off_c, 1, 86, 0
1, 44925, Note_off_c, 1, 52, 0
1, 45312, Note_on_c, 1, 66, 127
1, 45401, Note_off_c, 1, 76, 0
1, 45408, Note_on_c, 1, 78, 127
1, 45453, Note_off_c, 1, 78, 0
1, 45456, Note_on_c, 1, 88, 127
1, 45456, Note_on_c, 1, 79, 127
1, 45501, Note_off_c, 1, 88, 0
1, 45501, Note_off_c, 1, 79, 0
1, 45600, Note_on_c, 1, 74, 127
1, 45645, Note_off_c, 1, 74, 0
1, 45648, Note_on_c, 1, 82, 127
1, 45648, Note_on_c, 1, 73, 127
1, 45693, Note_off_c, 1, 82, 0
1, 45693, Note_off_c, 1, 73, 0
1, 45785, Note_off_c, 1, 66, 0
1, 45792, Note_on_c, 1, 64, 127
1, 45837, Note_off_c, 1, 64, 0
1, 45840, Note_on_c, 1, 62, 127
1, 45885, Note_off_c, 1, 62, 0
1, 46416, Note_on_c, 1, 80, 127
1, 46416, Note_on_c, 1, 71, 127
1, 46461, Note_off_c, 1, 80, 0
1, 46461, Note_off_c, 1, 71, 0
1, 47184, Note_on_c, 1, 50, 127
1, 47229, Note_off_c, 1, 50, 0
1, 47232, Note_on_c, 1, 49, 127
1, 47321, Note_off_c, 1, 49, 0
1, 47328, Note_on_c, 1, 73, 127
1, 47328, Note_on_c, 1, 69, 127
1, 47328, Note_on_c, 1, 50, 127
1, 47373, Note_off_c, 1, 73, 0
1, 47373, Note_off_c, 1, 69, 0
1, 47373, Note_off_c, 1, 50, 0
1, 47376, Note_on_c, 1, 71, 127
1, 47376, Note_on_c, 1, 68, 127
1, 47376, Note_on_c, 1, 52, 127
1, 47421, Note_off_c, 1, 71, 0
1, 47421, Note_off_c, 1, 68, 0
1, 47421, Note_off_c, 1, 52, 0
1, 47424, Note_on_c, 1, 69, 127
1, 47424, Note_on_c, 1, 54, 127
1, 47472, Note_on_c, 1, 68, 127
1, 47513, Note_off_c, 1, 54, 0
1, 47517, Note_off_c, 1, 68, 0
1, 47520, Note_on_c, 1, 66, 127
1, 47520, Note_on_c, 1, 56, 127
1, 47565, Note_off_c, 1, 66, 0
1, 47565, Note_off_c, 1, 56, 0
1, 47568, Note_on_c, 1, 64, 127
1, 47568, Note_on_c, 1, 57, 127
1, 47613, Note_off_c, 1, 64, 0
1, 47613, Note_off_c, 1, 57, 0
1, 47616, Note_on_c, 1, 62, 127
1, 47616, Note_on_c, 1, 59, 127
1, 47661, Note_off_c, 1, 69, 0
1, 47661, Note_off_c, 1, 59, 0
1, 47664, Note_on_c, 1, 73, 127
1, 47705, Note_off_c, 1, 62, 0
1, 47709, Note_off_c, 1, 73, 0
1, 47712, Note_on_c, 1, 64, 127
1, 47712, Note_on_c, 1, 71, 127
1, 47712, Note_on_c, 1, 56, 127
1, 47757, Note_off_c, 1, 64, 0
1, 47757, Note_off_c, 1, 71, 0
1, 47757, Note_off_c, 1, 56, 0
1, 47760, Note_on_c, 1, 66, 127
1, 47760, Note_on_c, 1, 69, 127
1, 47760, Note_on_c, 1, 54, 127
1, 47805, Note_off_c, 1, 66, 0
1, 47805, Note_off_c, 1, 69, 0
1, 47805, Note_off_c, 1, 54, 0
1, 47808, Note_on_c, 1, 68, 127
1, 47808, Note_on_c, 1, 52, 127
1, 47853, Note_off_c, 1, 52, 0
1, 47856, Note_on_c, 1, 78, 127
1, 47856, Note_on_c, 1, 50, 127
1, 47897, Note_off_c, 1, 68, 0
1, 47901, Note_off_c, 1, 78, 0
1, 47901, Note_off_c, 1, 50, 0
1, 47904, Note_on_c, 1, 69, 127
1, 47904, Note_on_c, 1, 76, 127
1, 47904, Note_on_c, 1, 49, 127
1, 47949, Note_off_c, 1, 69, 0
1, 47949, Note_off_c, 1, 76, 0
1, 47949, Note_off_c, 1, 49, 0
1, 47952, Note_on_c, 1, 71, 127
1, 47952, Note_on_c, 1, 74, 127
1, 47952, Note_on_c, 1, 47, 127
1, 47997, Note_off_c, 1, 71, 0
1, 47997, Note_off_c, 1, 74, 0
1, 47997, Note_off_c, 1, 47, 0
1, 48000, Note_on_c, 1, 73, 127
1, 48000, Note_on_c, 1, 45, 127
1, 48048, Note_on_c, 1, 83, 127
1, 48089, Note_off_c, 1, 73, 0
1, 48089, Note_off_c, 1, 45, 0
1, 48093, Note_off_c, 1, 83, 0
1, 48096, Note_on_c, 1, 74, 127
1, 48096, Note_on_c, 1, 81, 127
1, 48096, Note_on_c, 1, 47, 127
1, 48141, Note_off_c, 1, 74, 0
1, 48141, Note_off_c, 1, 81, 0
1, 48141, Note_off_c, 1, 47, 0
1, 48144, Note_on_c, 1, 76, 127
1, 48144, Note_on_c, 1, 80, 127
1, 48144, Note_on_c, 1, 49, 127
1, 48189, Note_off_c, 1, 76, 0
1, 48189, Note_off_c, 1, 80, 0
1, 48189, Note_off_c, 1, 49, 0
1, 48192, Note_on_c, 1, 78, 127
1, 48192, Note_on_c, 1, 50, 127
1, 48240, Note_on_c, 1, 76, 127
1, 48281, Note_off_c, 1, 78, 0
1, 48281, Note_off_c, 1, 50, 0
1, 48285, Note_off_c, 1, 76, 0
1, 48288, Note_on_c, 1, 80, 127
1, 48288, Note_on_c, 1, 74, 127
1, 48288, Note_on_c, 1, 47, 127
1, 48333, Note_off_c, 1, 80, 0
1, 48333, Note_off_c, 1, 74, 0
1, 48336, Note_on_c, 1, 81, 127
1, 48336, Note_on_c, 1, 73, 127
1, 48377, Note_off_c, 1, 47, 0
1, 48381, Note_off_c, 1, 81, 0
1, 48381, Note_off_c, 1, 73, 0
1, 48384, Note_on_c, 1, 80, 127
1, 48384, Note_on_c, 1, 71, 127
1, 48384, Note_on_c, 1, 52, 127
1, 48473, Note_off_c, 1, 80, 0
1, 48473, Note_off_c, 1, 71, 0
1, 48473, Note_off_c, 1, 52, 0
1, 48480, Note_on_c, 1, 81, 127
1, 48480, Note_on_c, 1, 40, 127
1, 48525, Note_off_c, 1, 81, 0
1, 48528, Note_on_c, 1, 83, 127
1, 48569, Note_off_c, 1, 40, 0
1, 48573, Note_off_c, 1, 83, 0
1, 48576, Note_on_c, 1, 81, 127
1, 48576, Note_on_c, 1, 52, 127
1, 48621, Note_off_c, 1, 81, 0
1, 48624, Note_on_c, 1, 80, 127
1, 48665, Note_off_c, 1, 52, 0
1, 48669, Note_off_c, 1, 80, 0
1, 48672, Note_on_c, 1, 78, 127
1, 48672, Note_on_c, 1, 54, 127
1, 48717, Note_off_c, 1, 78, 0
1, 48720, Note_on_c, 1, 76, 127
1, 48761, Note_off_c, 1, 54, 0
1, 48765, Note_off_c, 1, 76, 0
1, 48768, Note_on_c, 1, 88, 127
1, 48768, Note_on_c, 1, 71, 127
1, 48768, Note_on_c, 1, 56, 127
1, 48857, Note_off_c, 1, 71, 0
1, 48857, Note_off_c, 1, 56, 0
1, 48864, Note_on_c, 1, 73, 127
1, 48864, Note_on_c, 1, 54, 127
1, 48909, Note_off_c, 1, 73, 0
1, 48912, Note_on_c, 1, 74, 127
1, 48953, Note_off_c, 1, 54, 0
1, 48957, Note_off_c, 1, 74, 0
1, 49056, Note_on_c, 1, 69, 127
1, 49056, Note_on_c, 1, 52, 127
1, 49101, Note_off_c, 1, 69, 0
1, 49104, Note_on_c, 1, 68, 127
1, 49145, Note_off_c, 1, 52, 0
1, 49149, Note_off_c, 1, 68, 0
1, 49152, Note_on_c, 1, 76, 127
1, 49152, Note_on_c, 1, 50, 127
1, 49241, Note_off_c, 1, 50, 0
1, 49248, Note_on_c, 1, 47, 127
1, 49293, Note_off_c, 1, 47, 0
1, 49296, Note_on_c, 1, 49, 127
1, 49329, Note_off_c, 1, 76, 0
1, 49341, Note_off_c, 1, 49, 0
1, 49344, Note_on_c, 1, 64, 127
1, 49433, Note_off_c, 1, 64, 0
1, 49488, Note_on_c, 1, 45, 127
1, 49533, Note_off_c, 1, 45, 0
1, 49776, Note_on_c, 1, 44, 127
1, 49821, Note_off_c, 1, 44, 0
1, 49824, Note_on_c, 1, 42, 127
1, 49869, Note_off_c, 1, 42, 0
1, 49872, Note_on_c, 1, 40, 127
1, 49917, Note_off_c, 1, 40, 0
1, 49965, Note_off_c, 1, 88, 0
1, 50016, Note_on_c, 1, 71, 127
1, 50016, Note_on_c, 1, 74, 127
1, 50016, Note_on_c, 1, 57, 127
1, 50061, Note_off_c, 1, 71, 0
1, 50061, Note_off_c, 1, 74, 0
1, 50061, Note_off_c, 1, 57, 0
1, 50064, Note_on_c, 1, 73, 127
1, 50064, Note_on_c, 1, 76, 127
1, 50064, Note_on_c, 1, 56, 127
1, 50109, Note_off_c, 1, 73, 0
1, 50109, Note_off_c, 1, 76, 0
1, 50109, Note_off_c, 1, 56, 0
1, 50112, Note_on_c, 1, 74, 127
1, 50112, Note_on_c, 1, 54, 127
1, 50157, Note_off_c, 1, 74, 0
1, 50157, Note_off_c, 1, 54, 0
1, 50160, Note_on_c, 1, 76, 127
1, 50160, Note_on_c, 1, 73, 127
1, 50160, Note_on_c, 1, 52, 127
1, 50205, Note_off_c, 1, 76, 0
1, 50205, Note_off_c, 1, 73, 0
1, 50205, Note_off_c, 1, 52, 0
1, 50208, Note_on_c, 1, 78, 127
1, 50208, Note_on_c, 1, 71, 127
1, 50208, Note_on_c, 1, 50, 127
1, 50253, Note_off_c, 1, 78, 0
1, 50253, Note_off_c, 1, 71, 0
1, 50253, Note_off_c, 1, 50, 0
1, 50256, Note_on_c, 1, 80, 127
1, 50256, Note_on_c, 1, 69, 127
1, 50256, Note_on_c, 1, 49, 127
1, 50301, Note_off_c, 1, 80, 0
1, 50301, Note_off_c, 1, 69, 0
1, 50301, Note_off_c, 1, 49, 0
1, 50304, Note_on_c, 1, 81, 127
1, 50304, Note_on_c, 1, 78, 127
1, 50304, Note_on_c, 1, 48, 127
1, 50349, Note_off_c, 1, 48, 0
1, 50352, Note_on_c, 1, 49, 127
1, 50393, Note_off_c, 1, 81, 0
1, 50393, Note_off_c, 1, 78, 0
1, 50397, Note_off_c, 1, 49, 0
1, 50400, Note_on_c, 1, 81, 127
1, 50400, Note_on_c, 1, 78, 127
1, 50400, Note_on_c, 1, 51, 127
1, 50423, Note_off_c, 1, 81, 0
1, 50423, Note_off_c, 1, 78, 0
1, 50424, Note_on_c, 1, 80, 127
1, 50424, Note_on_c, 1, 76, 127
1, 50445, Note_off_c, 1, 51, 0
1, 50447, Note_off_c, 1, 80, 0
1, 50447, Note_off_c, 1, 76, 0
1, 50448, Note_on_c, 1, 78, 127
1, 50448, Note_on_c, 1, 75, 127
1, 50448, Note_on_c, 1, 48, 127
1, 50493, Note_off_c, 1, 78, 0
1, 50493, Note_off_c, 1, 75, 0
1, 50493, Note_off_c, 1, 48, 0
1, 50496, Note_on_c, 1, 80, 127
1, 50496, Note_on_c, 1, 76, 127
1, 50496, Note_on_c, 1, 44, 127
1, 50585, Note_off_c, 1, 80, 0
1, 50585, Note_off_c, 1, 76, 0
1, 50616, Note_on_c, 1, 78, 127
1, 50616, Note_on_c, 1, 75, 127
1, 50639, Note_off_c, 1, 78, 0
1, 50639, Note_off_c, 1, 75, 0
1, 50640, Note_on_c, 1, 73, 127
1, 50685, Note_off_c, 1, 73, 0
1, 50733, Note_off_c, 1, 44, 0
1, 50736, Note_on_c, 1, 46, 127
1, 50781, Note_off_c, 1, 46, 0
1, 50784, Note_on_c, 1, 48, 127
1, 50829, Note_off_c, 1, 48, 0
1, 50880, Note_on_c, 1, 49, 127
1, 50925, Note_off_c, 1, 49, 0
1, 50976, Note_on_c, 1, 80, 127
1, 50976, Note_on_c, 1, 72, 127
1, 50976, Note_on_c, 1, 46, 127
1, 51021, Note_off_c, 1, 46, 0
1, 51024, Note_on_c, 1, 44, 127
1, 51065, Note_off_c, 1, 80, 0
1, 51065, Note_off_c, 1, 72, 0
1, 51069, Note_off_c, 1, 44, 0
1, 51072, Note_on_c, 1, 76, 127
1, 51072, Note_on_c, 1, 73, 127
1, 51072, Note_on_c, 1, 49, 127
1, 51095, Note_off_c, 1, 76, 0
1, 51096, Note_on_c, 1, 78, 127
1, 51119, Note_off_c, 1, 78, 0
1, 51161, Note_off_c, 1, 73, 0
1, 51161, Note_off_c, 1, 49, 0
1, 51168, Note_on_c, 1, 75, 127
1, 51168, Note_on_c, 1, 68, 127
1, 51168, Note_on_c, 1, 47, 127
1, 51213, Note_off_c, 1, 75, 0
1, 51216, Note_on_c, 1, 76, 127
1, 51257, Note_off_c, 1, 68, 0
1, 51257, Note_off_c, 1, 47, 0
1, 51261, Note_off_c, 1, 76, 0
1, 51264, Note_on_c, 1, 78, 127
1, 51264, Note_on_c, 1, 73, 127
1, 51264, Note_on_c, 1, 45, 127
1, 51309, Note_off_c, 1, 78, 0
1, 51312, Note_on_c, 1, 76, 127
1, 51353, Note_off_c, 1, 73, 0
1, 51357, Note_off_c, 1, 76, 0
1, 51360, Note_on_c, 1, 75, 127
1, 51405, Note_off_c, 1, 75, 0
1, 51441, Note_off_c, 1, 45, 0
1, 51456, Note_on_c, 1, 44, 127
1, 51552, Note_on_c, 1, 72, 127
1, 51597, Note_off_c, 1, 72, 0
1, 51600, Note_on_c, 1, 70, 127
1, 51645, Note_off_c, 1, 70, 0
1, 51648, Note_on_c, 1, 68, 127
1, 51693, Note_off_c, 1, 44, 0
1, 51696, Note_on_c, 1, 42, 127
1, 51737, Note_off_c, 1, 68, 0
1, 51741, Note_off_c, 1, 42, 0
1, 51744, Note_on_c, 1, 80, 127
1, 51744, Note_on_c, 1, 68, 127
1, 51744, Note_on_c, 1, 40, 127
1, 51789, Note_off_c, 1, 40, 0
1, 51792, Note_on_c, 1, 39, 127
1, 51833, Note_off_c, 1, 68, 0
1, 51837, Note_off_c, 1, 39, 0
1, 51840, Note_on_c, 1, 37, 127
1, 51888, Note_on_c, 1, 78, 127
1, 51929, Note_off_c, 1, 37, 0
1, 51933, Note_off_c, 1, 78, 0
1, 51936, Note_on_c, 1, 76, 127
1, 51936, Note_on_c, 1, 49, 127
1, 51973, Note_off_c, 1, 80, 0
1, 51981, Note_off_c, 1, 76, 0
1, 51984, Note_on_c, 1, 75, 127
1, 52029, Note_off_c, 1, 75, 0
1, 52032, Note_on_c, 1, 73, 127
1, 52077, Note_off_c, 1, 49, 0
1, 52080, Note_on_c, 1, 47, 127
1, 52121, Note_off_c, 1, 73, 0
1, 52125, Note_off_c, 1, 47, 0
1, 52128, Note_on_c, 1, 85, 127
1, 52128, Note_on_c, 1, 73, 127
1, 52128, Note_on_c, 1, 45, 127
1, 52173, Note_off_c, 1, 73, 0
1, 52173, Note_off_c, 1, 45, 0
1, 52176, Note_on_c, 1, 72, 127
1, 52176, Note_on_c, 1, 44, 127
1, 52221, Note_off_c, 1, 72, 0
1, 52221, Note_off_c, 1, 44, 0
1, 52224, Note_on_c, 1, 42, 127
1, 52269, Note_off_c, 1, 85, 0
1, 52272, Note_on_c, 1, 83, 127
1, 52313, Note_off_c, 1, 42, 0
1, 52317, Note_off_c, 1, 83, 0
1, 52320, Note_on_c, 1, 81, 127
1, 52320, Note_on_c, 1, 54, 127
1, 52365, Note_off_c, 1, 81, 0
1, 52368, Note_on_c, 1, 80, 127
1, 52413, Note_off_c, 1, 80, 0
1, 52461, Note_off_c, 1, 54, 0
1, 52464, Note_on_c, 1, 78, 127
1, 52464, Note_on_c, 1, 72, 127
1, 52464, Note_on_c, 1, 51, 127
1, 52509, Note_off_c, 1, 78, 0
1, 52509, Note_off_c, 1, 72, 0
1, 52509, Note_off_c, 1, 51, 0
1, 52512, Note_on_c, 1, 80, 127
1, 52512, Note_on_c, 1, 73, 127
1, 52512, Note_on_c, 1, 52, 127
1, 52557, Note_off_c, 1, 80, 0
1, 52557, Note_off_c, 1, 73, 0
1, 52557, Note_off_c, 1, 52, 0
1, 52560, Note_on_c, 1, 75, 127
1, 52560, Note_on_c, 1, 48, 127
1, 52605, Note_off_c, 1, 75, 0
1, 52605, Note_off_c, 1, 48, 0
1, 52608, Note_on_c, 1, 76, 127
1, 52608, Note_on_c, 1, 68, 127
1, 52608, Note_on_c, 1, 49, 127
1, 52653, Note_off_c, 1, 49, 0
1, 52656, Note_on_c, 1, 44, 127
1, 52701, Note_off_c, 1, 44, 0
1, 52704, Note_on_c, 1, 45, 127
1, 52741, Note_off_c, 1, 76, 0
1, 52741, Note_off_c, 1, 68, 0
1, 52749, Note_off_c, 1, 45, 0
1, 52752, Note_on_c, 1, 78, 127
1, 52752, Note_on_c, 1, 73, 127
1, 52752, Note_on_c, 1, 42, 127
1, 52797, Note_off_c, 1, 78, 0
1, 52797, Note_off_c, 1, 73, 0
1, 52797, Note_off_c, 1, 42, 0
1, 52800, Note_on_c, 1, 75, 127
1, 52800, Note_on_c, 1, 72, 127
1, 52800, Note_on_c, 1, 44, 127
1, 52889, Note_off_c, 1, 44, 0
1, 52933, Note_off_c, 1, 75, 0
1, 52933, Note_off_c, 1, 72, 0
1, 52944, Note_on_c, 1, 73, 127
1, 52989, Note_off_c, 1, 73, 0
1, 52992, Note_on_c, 1, 73, 127
1, 52992, Note_on_c, 1, 37, 127
1, 53081, Note_off_c, 1, 37, 0
1, 53088, Note_on_c, 1, 38, 127
1, 53133, Note_off_c, 1, 38, 0
1, 53136, Note_on_c, 1, 40, 127
1, 53181, Note_off_c, 1, 40, 0
1, 53184, Note_on_c, 1, 42, 127
1, 53229, Note_off_c, 1, 42, 0
1, 53232, Note_on_c, 1, 44, 127
1, 53277, Note_off_c, 1, 44, 0
1, 53280, Note_on_c, 1, 45, 127
1, 53325, Note_off_c, 1, 45, 0
1, 53328, Note_on_c, 1, 47, 127
1, 53346, Note_off_c, 1, 73, 0
1, 53373, Note_off_c, 1, 47, 0
1, 53376, Note_on_c, 1, 69, 127
1, 53376, Note_on_c, 1, 49, 127
1, 53465, Note_off_c, 1, 49, 0
1, 53472, Note_on_c, 1, 47, 127
1, 53553, Note_off_c, 1, 69, 0
1, 53561, Note_off_c, 1, 47, 0
1, 53568, Note_on_c, 1, 69, 127
1, 53568, Note_on_c, 1, 64, 127
1, 53568, Note_on_c, 1, 49, 127
1, 53657, Note_off_c, 1, 64, 0
1, 53657, Note_off_c, 1, 49, 0
1, 53664, Note_on_c, 1, 45, 127
1, 53753, Note_off_c, 1, 69, 0
1, 53753, Note_off_c, 1, 45, 0
1, 53760, Note_on_c, 1, 64, 127
1, 53760, Note_on_c, 1, 71, 127
1, 53760, Note_on_c, 1, 44, 127
1, 53805, Note_off_c, 1, 71, 0
1, 53808, Note_on_c, 1, 69, 127
1, 53849, Note_off_c, 1, 64, 0
1, 53849, Note_off_c, 1, 44, 0
1, 53853, Note_off_c, 1, 69, 0
1, 53856, Note_on_c, 1, 69, 127
1, 53856, Note_on_c, 1, 68, 127
1, 53856, Note_on_c, 1, 42, 127
1, 53901, Note_off_c, 1, 68, 0
1, 53904, Note_on_c, 1, 66, 127
1, 53945, Note_off_c, 1, 69, 0
1, 53945, Note_off_c, 1, 42, 0
1, 53949, Note_off_c, 1, 66, 0
1, 53952, Note_on_c, 1, 71, 127
1, 53952, Note_on_c, 1, 64, 127
1, 53952, Note_on_c, 1, 44, 127
1, 53997, Note_off_c, 1, 71, 0
1, 54000, Note_on_c, 1, 69, 127
1, 54041, Note_off_c, 1, 44, 0
1, 54045, Note_off_c, 1, 69, 0
1, 54048, Note_on_c, 1, 68, 127
1, 54048, Note_on_c, 1, 40, 127
1, 54093, Note_off_c, 1, 68, 0
1, 54096, Note_on_c, 1, 66, 127
1, 54129, Note_off_c, 1, 64, 0
1, 54137, Note_off_c, 1, 40, 0
1, 54141, Note_off_c, 1, 66, 0
1, 54144, Note_on_c, 1, 64, 127
1, 54144, Note_on_c, 1, 73, 127
1, 54144, Note_on_c, 1, 45, 127
1, 54168, Note_off_c, 1, 73, 0
1, 54168, Note_on_c, 1, 74, 127
1, 54192, Note_off_c, 1, 74, 0
1, 54233, Note_off_c, 1, 45, 0
1, 54240, Note_on_c, 1, 71, 127
1, 54240, Note_on_c, 1, 52, 127
1, 54285, Note_off_c, 1, 71, 0
1, 54329, Note_off_c, 1, 52, 0
1, 54336, Note_on_c, 1, 57, 127
1, 54425, Note_off_c, 1, 57, 0
1, 54432, Note_on_c, 1, 59, 127
1, 54480, Note_on_c, 1, 69, 127
1, 54521, Note_off_c, 1, 59, 0
1, 54525, Note_off_c, 1, 69, 0
1, 54528, Note_on_c, 1, 76, 127
1, 54528, Note_on_c, 1, 61, 127
1, 54573, Note_off_c, 1, 76, 0
1, 54617, Note_off_c, 1, 61, 0
1, 54705, Note_off_c, 1, 64, 0
1, 54720, Note_on_c, 1, 69, 127
1, 54720, Note_on_c, 1, 62, 127
1, 54765, Note_off_c, 1, 62, 0
1, 54768, Note_on_c, 1, 61, 127
1, 54809, Note_off_c, 1, 69, 0
1, 54813, Note_off_c, 1, 61, 0
1, 54816, Note_on_c, 1, 74, 127
1, 54816, Note_on_c, 1, 59, 127
1, 54861, Note_off_c, 1, 59, 0
1, 54864, Note_on_c, 1, 57, 127
1, 54909, Note_off_c, 1, 57, 0
1, 54912, Note_on_c, 1, 56, 127
1, 55001, Note_off_c, 1, 74, 0
1, 55001, Note_off_c, 1, 56, 0
1, 55008, Note_on_c, 1, 73, 127
1, 55008, Note_on_c, 1, 57, 127
1, 55097, Note_off_c, 1, 73, 0
1, 55097, Note_off_c, 1, 57, 0
1, 55104, Note_on_c, 1, 71, 127
1, 55104, Note_on_c, 1, 50, 127
1, 55149, Note_off_c, 1, 71, 0
1, 55152, Note_on_c, 1, 73, 127
1, 55193, Note_off_c, 1, 50, 0
1, 55197, Note_off_c, 1, 73, 0
1, 55200, Note_on_c, 1, 74, 127
1, 55200, Note_on_c, 1, 52, 127
1, 55245, Note_off_c, 1, 74, 0
1, 55248, Note_on_c, 1, 71, 127
1, 55289, Note_off_c, 1, 52, 0
1, 55293, Note_off_c, 1, 71, 0
1, 55296, Note_on_c, 1, 73, 127
1, 55296, Note_on_c, 1, 45, 127
1, 55341, Note_off_c, 1, 73, 0
1, 55344, Note_on_c, 1, 71, 127
1, 55385, Note_off_c, 1, 45, 0
1, 55389, Note_off_c, 1, 71, 0
1, 55392, Note_on_c, 1, 69, 127
1, 55392, Note_on_c, 1, 57, 127
1, 55437, Note_off_c, 1, 69, 0
1, 55440, Note_on_c, 1, 71, 127
1, 55481, Note_off_c, 1, 57, 0
1, 55485, Note_off_c, 1, 71, 0
1, 55488, Note_on_c, 1, 73, 127
1, 55488, Note_on_c, 1, 56, 127
1, 55533, Note_off_c, 1, 73, 0
1, 55536, Note_on_c, 1, 75, 127
1, 55577, Note_off_c, 1, 56, 0
1, 55581, Note_off_c, 1, 75, 0
1, 55584, Note_on_c, 1, 76, 127
1, 55584, Note_on_c, 1, 54, 127
1, 55629, Note_off_c, 1, 76, 0
1, 55632, Note_on_c, 1, 78, 127
1, 55673, Note_off_c, 1, 54, 0
1, 55677, Note_off_c, 1, 78, 0
1, 55680, Note_on_c, 1, 76, 127
1, 55680, Note_on_c, 1, 80, 127
1, 55680, Note_on_c, 1, 52, 127
1, 55725, Note_off_c, 1, 80, 0
1, 55728, Note_on_c, 1, 81, 127
1, 55769, Note_off_c, 1, 52, 0
1, 55773, Note_off_c, 1, 81, 0
1, 55776, Note_on_c, 1, 83, 127
1, 55776, Note_on_c, 1, 54, 127
1, 55821, Note_off_c, 1, 83, 0
1, 55857, Note_off_c, 1, 76, 0
1, 55865, Note_off_c, 1, 54, 0
1, 55872, Note_on_c, 1, 71, 127
1, 55872, Note_on_c, 1, 76, 127
1, 55872, Note_on_c, 1, 56, 127
1, 55961, Note_off_c, 1, 71, 0
1, 55961, Note_off_c, 1, 56, 0
1, 55968, Note_on_c, 1, 52, 127
1, 56057, Note_off_c, 1, 76, 0
1, 56057, Note_off_c, 1, 52, 0
1, 56064, Note_on_c, 1, 78, 127
1, 56064, Note_on_c, 1, 71, 127
1, 56064, Note_on_c, 1, 51, 127
1, 56109, Note_off_c, 1, 78, 0
1, 56112, Note_on_c, 1, 76, 127
1, 56153, Note_off_c, 1, 71, 0
1, 56153, Note_off_c, 1, 51, 0
1, 56157, Note_off_c, 1, 76, 0
1, 56160, Note_on_c, 1, 75, 127
1, 56160, Note_on_c, 1, 76, 127
1, 56160, Note_on_c, 1, 49, 127
1, 56205, Note_off_c, 1, 75, 0
1, 56208, Note_on_c, 1, 73, 127
1, 56249, Note_off_c, 1, 76, 0
1, 56249, Note_off_c, 1, 49, 0
1, 56253, Note_off_c, 1, 73, 0
1, 56256, Note_on_c, 1, 71, 127
1, 56256, Note_on_c, 1, 78, 127
1, 56256, Note_on_c, 1, 51, 127
1, 56301, Note_off_c, 1, 78, 0
1, 56304, Note_on_c, 1, 76, 127
1, 56345, Note_off_c, 1, 51, 0
1, 56349, Note_off_c, 1, 76, 0
1, 56352, Note_on_c, 1, 75, 127
1, 56352, Note_on_c, 1, 47, 127
1, 56397, Note_off_c, 1, 75, 0
1, 56400, Note_on_c, 1, 73, 127
1, 56433, Note_off_c, 1, 71, 0
1, 56441, Note_off_c, 1, 47, 0
1, 56445, Note_off_c, 1, 73, 0
1, 56448, Note_on_c, 1, 80, 127
1, 56448, Note_on_c, 1, 71, 127
1, 56448, Note_on_c, 1, 40, 127
1, 56472, Note_off_c, 1, 80, 0
1, 56472, Note_on_c, 1, 81, 127
1, 56496, Note_off_c, 1, 81, 0
1, 56537, Note_off_c, 1, 40, 0
1, 56544, Note_on_c, 1, 78, 127
1, 56544, Note_on_c, 1, 47, 127
1, 56589, Note_off_c, 1, 78, 0
1, 56633, Note_off_c, 1, 47, 0
1, 56640, Note_on_c, 1, 52, 127
1, 56729, Note_off_c, 1, 52, 0
1, 56736, Note_on_c, 1, 54, 127
1, 56784, Note_on_c, 1, 76, 127
1, 56825, Note_off_c, 1, 54, 0
1, 56829, Note_off_c, 1, 76, 0
1, 56832, Note_on_c, 1, 83, 127
1, 56832, Note_on_c, 1, 56, 127
1, 56877, Note_off_c, 1, 83, 0
1, 56921, Note_off_c, 1, 56, 0
1, 57009, Note_off_c, 1, 71, 0
1, 57024, Note_on_c, 1, 76, 127
1, 57024, Note_on_c, 1, 73, 127
1, 57024, Note_on_c, 1, 57, 127
1, 57069, Note_off_c, 1, 57, 0
1, 57072, Note_on_c, 1, 56, 127
1, 57113, Note_off_c, 1, 76, 0
1, 57117, Note_off_c, 1, 56, 0
1, 57120, Note_on_c, 1, 81, 127
1, 57120, Note_on_c, 1, 54, 127
1, 57165, Note_off_c, 1, 54, 0
1, 57168, Note_on_c, 1, 52, 127
1, 57201, Note_off_c, 1, 73, 0
1, 57213, Note_off_c, 1, 52, 0
1, 57216, Note_on_c, 1, 75, 127
1, 57216, Note_on_c, 1, 59, 127
1, 57305, Note_off_c, 1, 81, 0
1, 57305, Note_off_c, 1, 75, 0
1, 57305, Note_off_c, 1, 59, 0
1, 57312, Note_on_c, 1, 80, 127
1, 57312, Note_on_c, 1, 76, 127
1, 57312, Note_on_c, 1, 61, 127
1, 57401, Note_off_c, 1, 80, 0
1, 57401, Note_off_c, 1, 61, 0
1, 57408, Note_on_c, 1, 78, 127
1, 57408, Note_on_c, 1, 57, 127
1, 57453, Note_off_c, 1, 78, 0
1, 57489, Note_off_c, 1, 76, 0
1, 57497, Note_off_c, 1, 57, 0
1, 57504, Note_on_c, 1, 81, 127
1, 57504, Note_on_c, 1, 75, 127
1, 57504, Note_on_c, 1, 59, 127
1, 57549, Note_off_c, 1, 81, 0
1, 57552, Note_on_c, 1, 78, 127
1, 57593, Note_off_c, 1, 75, 0
1, 57593, Note_off_c, 1, 59, 0
1, 57597, Note_off_c, 1, 78, 0
1, 57600, Note_on_c, 1, 80, 127
1, 57600, Note_on_c, 1, 76, 127
1, 57600, Note_on_c, 1, 52, 127
1, 57645, Note_off_c, 1, 80, 0
1, 57648, Note_on_c, 1, 78, 127
1, 57689, Note_off_c, 1, 52, 0
1, 57693, Note_off_c, 1, 78, 0
1, 57696, Note_on_c, 1, 64, 127
1, 57777, Note_off_c, 1, 76, 0
1, 57785, Note_off_c, 1, 64, 0
1, 57792, Note_on_c, 1, 80, 127
1, 57792, Note_on_c, 1, 62, 127
1, 57837, Note_off_c, 1, 80, 0
1, 57840, Note_on_c, 1, 81, 127
1, 57881, Note_off_c, 1, 62, 0
1, 57885, Note_off_c, 1, 81, 0
1, 57888, Note_on_c, 1, 83, 127
1, 57888, Note_on_c, 1, 61, 127
1, 57933, Note_off_c, 1, 83, 0
1, 57936, Note_on_c, 1, 85, 127
1, 57977, Note_off_c, 1, 61, 0
1, 57981, Note_off_c, 1, 85, 0
1, 57984, Note_on_c, 1, 86, 127
1, 57984, Note_on_c, 1, 59, 127
1, 58029, Note_off_c, 1, 59, 0
1, 58032, Note_on_c, 1, 61, 127
1, 58077, Note_off_c, 1, 61, 0
1, 58080, Note_on_c, 1, 78, 127
1, 58080, Note_on_c, 1, 62, 127
1, 58125, Note_off_c, 1, 62, 0
1, 58169, Note_off_c, 1, 78, 0
1, 58176, Note_on_c, 1, 83, 127
1, 58224, Note_on_c, 1, 57, 127
1, 58265, Note_off_c, 1, 83, 0
1, 58269, Note_off_c, 1, 57, 0
1, 58272, Note_on_c, 1, 81, 127
1, 58272, Note_on_c, 1, 56, 127
1, 58317, Note_off_c, 1, 56, 0
1, 58320, Note_on_c, 1, 54, 127
1, 58361, Note_off_c, 1, 81, 0
1, 58365, Note_off_c, 1, 54, 0
1, 58368, Note_on_c, 1, 80, 127
1, 58368, Note_on_c, 1, 52, 127
1, 58413, Note_off_c, 1, 52, 0
1, 58457, Note_off_c, 1, 86, 0
1, 58560, Note_on_c, 1, 88, 127
1, 58608, Note_on_c, 1, 50, 127
1, 58649, Note_off_c, 1, 88, 0
1, 58653, Note_off_c, 1, 50, 0
1, 58656, Note_on_c, 1, 49, 127
1, 58701, Note_off_c, 1, 49, 0
1, 58704, Note_on_c, 1, 47, 127
1, 58749, Note_off_c, 1, 47, 0
1, 58752, Note_on_c, 1, 85, 127
1, 58752, Note_on_c, 1, 45, 127
1, 58797, Note_off_c, 1, 45, 0
1, 58841, Note_off_c, 1, 80, 0
1, 58848, Note_on_c, 1, 76, 127
1, 58937, Note_off_c, 1, 76, 0
1, 58992, Note_on_c, 1, 44, 127
1, 59037, Note_off_c, 1, 44, 0
1, 59040, Note_on_c, 1, 42, 127
1, 59085, Note_off_c, 1, 42, 0
1, 59088, Note_on_c, 1, 40, 127
1, 59133, Note_off_c, 1, 40, 0
1, 59136, Note_on_c, 1, 38, 127
1, 59225, Note_off_c, 1, 85, 0
1, 59313, Note_off_c, 1, 38, 0
1, 59424, Note_on_c, 1, 74, 127
1, 59469, Note_off_c, 1, 74, 0
1, 59472, Note_on_c, 1, 73, 127
1, 59517, Note_off_c, 1, 73, 0
1, 59616, Note_on_c, 1, 71, 127
1, 59661, Note_off_c, 1, 71, 0
1, 59664, Note_on_c, 1, 69, 127
1, 59709, Note_off_c, 1, 69, 0
1, 59712, Note_on_c, 1, 71, 127
1, 59712, Note_on_c, 1, 68, 127
1, 59712, Note_on_c, 1, 52, 127
1, 59757, Note_off_c, 1, 68, 0
1, 59757, Note_off_c, 1, 52, 0
1, 59760, Note_on_c, 1, 66, 127
1, 59760, Note_on_c, 1, 50, 127
1, 59805, Note_off_c, 1, 66, 0
1, 59805, Note_off_c, 1, 50, 0
1, 59808, Note_on_c, 1, 64, 127
1, 59808, Note_on_c, 1, 49, 127
1, 59853, Note_off_c, 1, 64, 0
1, 59853, Note_off_c, 1, 49, 0
1, 59856, Note_on_c, 1, 62, 127
1, 59856, Note_on_c, 1, 47, 127
1, 59901, Note_off_c, 1, 62, 0
1, 59901, Note_off_c, 1, 47, 0
1, 59993, Note_off_c, 1, 71, 0
1, 60000, Note_on_c, 1, 73, 127
1, 60045, Note_off_c, 1, 73, 0
1, 60048, Note_on_c, 1, 74, 127
1, 60093, Note_off_c, 1, 74, 0
1, 60192, Note_on_c, 1, 69, 127
1, 60192, Note_on_c, 1, 61, 127
1, 60237, Note_off_c, 1, 69, 0
1, 60237, Note_off_c, 1, 61, 0
1, 60240, Note_on_c, 1, 59, 127
1, 60285, Note_off_c, 1, 59, 0
1, 60288, Note_on_c, 1, 69, 127
1, 60288, Note_on_c, 1, 57, 127
1, 60288, Note_on_c, 1, 49, 127
1, 60377, Note_off_c, 1, 57, 0
1, 60377, Note_off_c, 1, 49, 0
1, 60384, Note_on_c, 1, 50, 127
1, 60429, Note_off_c, 1, 50, 0
1, 60432, Note_on_c, 1, 52, 127
1, 60477, Note_off_c, 1, 52, 0
1, 60480, Note_on_c, 1, 64, 127
1, 60561, Note_off_c, 1, 69, 0
1, 60569, Note_off_c, 1, 64, 0
1, 60576, Note_on_c, 1, 69, 127
1, 60576, Note_on_c, 1, 64, 127
1, 60576, Note_on_c, 1, 47, 127
1, 60621, Note_off_c, 1, 47, 0
1, 60624, Note_on_c, 1, 45, 127
1, 60665, Note_off_c, 1, 69, 0
1, 60669, Note_off_c, 1, 45, 0
1, 60672, Note_on_c, 1, 71, 127
1, 60672, Note_on_c, 1, 52, 127
1, 60717, Note_off_c, 1, 71, 0
1, 60761, Note_off_c, 1, 64, 0
1, 60768, Note_on_c, 1, 68, 127
1, 60813, Note_off_c, 1, 68, 0
1, 60816, Note_on_c, 1, 66, 127
1, 60849, Note_off_c, 1, 52, 0
1, 60861, Note_off_c, 1, 66, 0
1, 60864, Note_on_c, 1, 64, 127
1, 60864, Note_on_c, 1, 71, 127
1, 60864, Note_on_c, 1, 40, 127
1, 60909, Note_off_c, 1, 71, 0
1, 60912, Note_on_c, 1, 69, 127
1, 60953, Note_off_c, 1, 40, 0
1, 60957, Note_off_c, 1, 69, 0
1, 60960, Note_on_c, 1, 68, 127
1, 60960, Note_on_c, 1, 44, 127
1, 61005, Note_off_c, 1, 68, 0
1, 61008, Note_on_c, 1, 66, 127
1, 61041, Note_off_c, 1, 64, 0
1, 61049, Note_off_c, 1, 44, 0
1, 61053, Note_off_c, 1, 66, 0
1, 61056, Note_on_c, 1, 73, 127
1, 61056, Note_on_c, 1, 64, 127
1, 61056, Note_on_c, 1, 45, 127
1, 61080, Note_off_c, 1, 73, 0
1, 61080, Note_on_c, 1, 74, 127
1, 61104, Note_off_c, 1, 74, 0
1, 61145, Note_off_c, 1, 64, 0
1, 61145, Note_off_c, 1, 45, 0
1, 61152, Note_on_c, 1, 74, 127
1, 61152, Note_on_c, 1, 69, 127
1, 61152, Note_on_c, 1, 45, 127
1, 61175, Note_off_c, 1, 45, 0
1, 61176, Note_on_c, 1, 47, 127
1, 61197, Note_off_c, 1, 74, 0
1, 61199, Note_off_c, 1, 47, 0
1, 61200, Note_on_c, 1, 76, 127
1, 61200, Note_on_c, 1, 49, 127
1, 61245, Note_off_c, 1, 76, 0
1, 61245, Note_off_c, 1, 49, 0
1, 61296, Note_on_c, 1, 73, 127
1, 61329, Note_off_c, 1, 69, 0
1, 61341, Note_off_c, 1, 73, 0
1, 61344, Note_on_c, 1, 71, 127
1, 61344, Note_on_c, 1, 68, 127
1, 61344, Note_on_c, 1, 47, 127
1, 61367, Note_off_c, 1, 47, 0
1, 61368, Note_on_c, 1, 49, 127
1, 61389, Note_off_c, 1, 71, 0
1, 61391, Note_off_c, 1, 49, 0
1, 61392, Note_on_c, 1, 69, 127
1, 61392, Note_on_c, 1, 50, 127
1, 61433, Note_off_c, 1, 68, 0
1, 61437, Note_off_c, 1, 69, 0
1, 61437, Note_off_c, 1, 50, 0
1, 61440, Note_on_c, 1, 76, 127
1, 61440, Note_on_c, 1, 69, 127
1, 61440, Note_on_c, 1, 49, 127
1, 61485, Note_off_c, 1, 76, 0
1, 61488, Note_on_c, 1, 74, 127
1, 61529, Note_off_c, 1, 69, 0
1, 61533, Note_off_c, 1, 74, 0
1, 61536, Note_on_c, 1, 73, 127
1, 61581, Note_off_c, 1, 73, 0
1, 61584, Note_on_c, 1, 71, 127
1, 61617, Note_off_c, 1, 49, 0
1, 61629, Note_off_c, 1, 71, 0
1, 61632, Note_on_c, 1, 69, 127
1, 61632, Note_on_c, 1, 73, 127
1, 61677, Note_off_c, 1, 73, 0
1, 61680, Note_on_c, 1, 71, 127
1, 61721, Note_off_c, 1, 69, 0
1, 61725, Note_off_c, 1, 71, 0
1, 61728, Note_on_c, 1, 78, 127
1, 61728, Note_on_c, 1, 69, 127
1, 61728, Note_on_c, 1, 50, 127
1, 61773, Note_off_c, 1, 69, 0
1, 61776, Note_on_c, 1, 68, 127
1, 61817, Note_off_c, 1, 78, 0
1, 61817, Note_off_c, 1, 50, 0
1, 61821, Note_off_c, 1, 68, 0
1, 61824, Note_on_c, 1, 73, 127
1, 61824, Note_on_c, 1, 69, 127
1, 61824, Note_on_c, 1, 52, 127
1, 61913, Note_off_c, 1, 52, 0
1, 61920, Note_on_c, 1, 50, 127
1, 61957, Note_off_c, 1, 73, 0
1, 61957, Note_off_c, 1, 69, 0
1, 61968, Note_on_c, 1, 74, 127
1, 61968, Note_on_c, 1, 71, 127
1, 62009, Note_off_c, 1, 50, 0
1, 62013, Note_off_c, 1, 74, 0
1, 62013, Note_off_c, 1, 71, 0
1, 62016, Note_on_c, 1, 71, 127
1, 62016, Note_on_c, 1, 68, 127
1, 62016, Note_on_c, 1, 52, 127
1, 62105, Note_off_c, 1, 52, 0
1, 62112, Note_on_c, 1, 40, 127
1, 62149, Note_off_c, 1, 71, 0
1, 62149, Note_off_c, 1, 68, 0
1, 62160, Note_on_c, 1, 69, 127
1, 62201, Note_off_c, 1, 40, 0
1, 62205, Note_off_c, 1, 69, 0
1, 62208, Note_on_c, 1, 69, 127
1, 62208, Note_on_c, 1, 45, 127
1, 62297, Note_off_c, 1, 45, 0
1, 62304, Note_on_c, 1, 47, 127
1, 62349, Note_off_c, 1, 47, 0
1, 62352, Note_on_c, 1, 49, 127
1, 62397, Note_off_c, 1, 49, 0
1, 62496, Note_on_c, 1, 44, 127
1, 62541, Note_off_c, 1, 44, 0
1, 62544, Note_on_c, 1, 42, 127
1, 62562, Note_off_c, 1, 69, 0
1, 62589, Note_off_c, 1, 42, 0
1, 62592, Note_on_c, 1, 71, 127
1, 62592, Note_on_c, 1, 40, 127
1, 62681, Note_off_c, 1, 71, 0
1, 62688, Note_on_c, 1, 73, 127
1, 62733, Note_off_c, 1, 73, 0
1, 62736, Note_on_c, 1, 74, 127
1, 62769, Note_off_c, 1, 40, 0
1, 62781, Note_off_c, 1, 74, 0
1, 62784, Note_on_c, 1, 73, 127
1, 62829, Note_off_c, 1, 73, 0
1, 62832, Note_on_c, 1, 71, 127
1, 62877, Note_off_c, 1, 71, 0
1, 62880, Note_on_c, 1, 69, 127
1, 62880, Note_on_c, 1, 52, 127
1, 62925, Note_off_c, 1, 69, 0
1, 62928, Note_on_c, 1, 68, 127
1, 62969, Note_off_c, 1, 52, 0
1, 62973, Note_off_c, 1, 68, 0
1, 62976, Note_on_c, 1, 76, 127
1, 62976, Note_on_c, 1, 50, 127
1, 63065, Note_off_c, 1, 50, 0
1, 63072, Note_on_c, 1, 49, 127
1, 63117, Note_off_c, 1, 49, 0
1, 63153, Note_off_c, 1, 76, 0
1, 63168, Note_on_c, 1, 64, 127
1, 63168, Note_on_c, 1, 52, 127
1, 63213, Note_off_c, 1, 52, 0
1, 63216, Note_on_c, 1, 50, 127
1, 63257, Note_off_c, 1, 64, 0
1, 63261, Note_off_c, 1, 50, 0
1, 63264, Note_on_c, 1, 68, 127
1, 63264, Note_on_c, 1, 49, 127
1, 63309, Note_off_c, 1, 49, 0
1, 63312, Note_on_c, 1, 47, 127
1, 63353, Note_off_c, 1, 68, 0
1, 63357, Note_off_c, 1, 47, 0
1, 63360, Note_on_c, 1, 69, 127
1, 63360, Note_on_c, 1, 49, 127
1, 63449, Note_off_c, 1, 69, 0
1, 63449, Note_off_c, 1, 49, 0
1, 63456, Note_on_c, 1, 69, 127
1, 63456, Note_on_c, 1, 54, 127
1, 63479, Note_off_c, 1, 69, 0
1, 63480, Note_on_c, 1, 71, 127
1, 63503, Note_off_c, 1, 71, 0
1, 63504, Note_on_c, 1, 73, 127
1, 63545, Note_off_c, 1, 54, 0
1, 63549, Note_off_c, 1, 73, 0
1, 63552, Note_on_c, 1, 71, 127
1, 63552, Note_on_c, 1, 50, 127
1, 63641, Note_off_c, 1, 71, 0
1, 63641, Note_off_c, 1, 50, 0
1, 63648, Note_on_c, 1, 71, 127
1, 63648, Note_on_c, 1, 52, 127
1, 63671, Note_off_c, 1, 71, 0
1, 63672, Note_on_c, 1, 73, 127
1, 63695, Note_off_c, 1, 73, 0
1, 63696, Note_on_c, 1, 74, 127
1, 63737, Note_off_c, 1, 52, 0
1, 63741, Note_off_c, 1, 74, 0
1, 63744, Note_on_c, 1, 73, 127
1, 63744, Note_on_c, 1, 45, 127
1, 63833, Note_off_c, 1, 73, 0
1, 63833, Note_off_c, 1, 45, 0
1, 63840, Note_on_c, 1, 74, 127
1, 63840, Note_on_c, 1, 52, 127
1, 63885, Note_off_c, 1, 74, 0
1, 63888, Note_on_c, 1, 76, 127
1, 63929, Note_off_c, 1, 52, 0
1, 63933, Note_off_c, 1, 76, 0
1, 63936, Note_on_c, 1, 74, 127
1, 63936, Note_on_c, 1, 57, 127
1, 63981, Note_off_c, 1, 74, 0
1, 63984, Note_on_c, 1, 73, 127
1, 64025, Note_off_c, 1, 57, 0
1, 64029, Note_off_c, 1, 73, 0
1, 64032, Note_on_c, 1, 71, 127
1, 64032, Note_on_c, 1, 59, 127
1, 64077, Note_off_c, 1, 71, 0
1, 64080, Note_on_c, 1, 69, 127
1, 64121, Note_off_c, 1, 59, 0
1, 64125, Note_off_c, 1, 69, 0
1, 64128, Note_on_c, 1, 76, 127
1, 64128, Note_on_c, 1, 81, 127
1, 64128, Note_on_c, 1, 61, 127
1, 64217, Note_off_c, 1, 76, 0
1, 64217, Note_off_c, 1, 61, 0
1, 64224, Note_on_c, 1, 78, 127
1, 64224, Note_on_c, 1, 59, 127
1, 64269, Note_off_c, 1, 78, 0
1, 64272, Note_on_c, 1, 79, 127
1, 64313, Note_off_c, 1, 59, 0
1, 64317, Note_off_c, 1, 79, 0
1, 64320, Note_on_c, 1, 57, 127
1, 64409, Note_off_c, 1, 57, 0
1, 64416, Note_on_c, 1, 74, 127
1, 64461, Note_off_c, 1, 74, 0
1, 64464, Note_on_c, 1, 73, 127
1, 64482, Note_off_c, 1, 81, 0
1, 64509, Note_off_c, 1, 73, 0
1, 64512, Note_on_c, 1, 81, 127
1, 64512, Note_on_c, 1, 61, 127
1, 64601, Note_off_c, 1, 61, 0
1, 64608, Note_on_c, 1, 74, 127
1, 64608, Note_on_c, 1, 59, 127
1, 64631, Note_off_c, 1, 74, 0
1, 64632, Note_on_c, 1, 76, 127
1, 64653, Note_off_c, 1, 59, 0
1, 64655, Note_off_c, 1, 76, 0
1, 64656, Note_on_c, 1, 78, 127
1, 64689, Note_off_c, 1, 81, 0
1, 64701, Note_off_c, 1, 78, 0
1, 64704, Note_on_c, 1, 69, 127
1, 64704, Note_on_c, 1, 76, 127
1, 64704, Note_on_c, 1, 62, 127
1, 64749, Note_off_c, 1, 62, 0
1, 64752, Note_on_c, 1, 61, 127
1, 64793, Note_off_c, 1, 69, 0
1, 64793, Note_off_c, 1, 76, 0
1, 64797, Note_off_c, 1, 61, 0
1, 64800, Note_on_c, 1, 73, 127
1, 64800, Note_on_c, 1, 76, 127
1, 64800, Note_on_c, 1, 59, 127
1, 64823, Note_off_c, 1, 76, 0
1, 64824, Note_on_c, 1, 78, 127
1, 64845, Note_off_c, 1, 59, 0
1, 64847, Note_off_c, 1, 78, 0
1, 64848, Note_on_c, 1, 79, 127
1, 64848, Note_on_c, 1, 57, 127
1, 64889, Note_off_c, 1, 73, 0
1, 64893, Note_off_c, 1, 79, 0
1, 64893, Note_off_c, 1, 57, 0
1, 64896, Note_on_c, 1, 74, 127
1, 64896, Note_on_c, 1, 78, 127
1, 64896, Note_on_c, 1, 59, 127
1, 64941, Note_off_c, 1, 78, 0
1, 64944, Note_on_c, 1, 76, 127
1, 64985, Note_off_c, 1, 74, 0
1, 64985, Note_off_c, 1, 59, 0
1, 64989, Note_off_c, 1, 76, 0
1, 64992, Note_on_c, 1, 74, 127
1, 64992, Note_on_c, 1, 54, 127
1, 65016, Note_on_c, 1, 76, 127
1, 65037, Note_off_c, 1, 74, 0
1, 65039, Note_off_c, 1, 76, 0
1, 65040, Note_on_c, 1, 78, 127
1, 65040, Note_on_c, 1, 73, 127
1, 65081, Note_off_c, 1, 54, 0
1, 65085, Note_off_c, 1, 78, 0
1, 65085, Note_off_c, 1, 73, 0
1, 65088, Note_on_c, 1, 76, 127
1, 65088, Note_on_c, 1, 71, 127
1, 65088, Note_on_c, 1, 55, 127
1, 65133, Note_off_c, 1, 71, 0
1, 65136, Note_on_c, 1, 74, 127
1, 65177, Note_off_c, 1, 76, 0
1, 65177, Note_off_c, 1, 55, 0
1, 65181, Note_off_c, 1, 74, 0
1, 65184, Note_on_c, 1, 76, 127
1, 65184, Note_on_c, 1, 73, 127
1, 65184, Note_on_c, 1, 57, 127
1, 65207, Note_off_c, 1, 76, 0
1, 65208, Note_on_c, 1, 78, 127
1, 65229, Note_off_c, 1, 73, 0
1, 65231, Note_off_c, 1, 78, 0
1, 65232, Note_on_c, 1, 79, 127
1, 65273, Note_off_c, 1, 57, 0
1, 65277, Note_off_c, 1, 79, 0
1, 65280, Note_on_c, 1, 78, 127
1, 65280, Note_on_c, 1, 74, 127
1, 65280, Note_on_c, 1, 50, 127
1, 65369, Note_off_c, 1, 78, 0
1, 65369, Note_off_c, 1, 74, 0
1, 65369, Note_off_c, 1, 50, 0
1, 65376, Note_on_c, 1, 79, 127
1, 65376, Note_on_c, 1, 62, 127
1, 65421, Note_off_c, 1, 79, 0
1, 65424, Note_on_c, 1, 81, 127
1, 65465, Note_off_c, 1, 62, 0
1, 65469, Note_off_c, 1, 81, 0
1, 65472, Note_on_c, 1, 79, 127
1, 65472, Note_on_c, 1, 61, 127
1, 65517, Note_off_c, 1, 79, 0
1, 65520, Note_on_c, 1, 78, 127
1, 65561, Note_off_c, 1, 61, 0
1, 65565, Note_off_c, 1, 78, 0
1, 65568, Note_on_c, 1, 76, 127
1, 65568, Note_on_c, 1, 59, 127
1, 65613, Note_off_c, 1, 76, 0
1, 65616, Note_on_c, 1, 74, 127
1, 65657, Note_off_c, 1, 59, 0
1, 65661, Note_off_c, 1, 74, 0
1, 65664, Note_on_c, 1, 79, 127
1, 65664, Note_on_c, 1, 76, 127
1, 65664, Note_on_c, 1, 58, 127
1, 65709, Note_off_c, 1, 58, 0
1, 65712, Note_on_c, 1, 59, 127
1, 65753, Note_off_c, 1, 79, 0
1, 65753, Note_off_c, 1, 76, 0
1, 65757, Note_off_c, 1, 59, 0
1, 65760, Note_on_c, 1, 79, 127
1, 65760, Note_on_c, 1, 76, 127
1, 65760, Note_on_c, 1, 61, 127
1, 65783, Note_off_c, 1, 79, 0
1, 65783, Note_off_c, 1, 76, 0
1, 65784, Note_on_c, 1, 78, 127
1, 65784, Note_on_c, 1, 74, 127
1, 65805, Note_off_c, 1, 61, 0
1, 65807, Note_off_c, 1, 78, 0
1, 65807, Note_off_c, 1, 74, 0
1, 65808, Note_on_c, 1, 76, 127
1, 65808, Note_on_c, 1, 73, 127
1, 65808, Note_on_c, 1, 58, 127
1, 65853, Note_off_c, 1, 76, 0
1, 65853, Note_off_c, 1, 73, 0
1, 65853, Note_off_c, 1, 58, 0
1, 65856, Note_on_c, 1, 78, 127
1, 65856, Note_on_c, 1, 74, 127
1, 65856, Note_on_c, 1, 54, 127
1, 65945, Note_off_c, 1, 78, 0
1, 65945, Note_off_c, 1, 74, 0
1, 65976, Note_on_c, 1, 76, 127
1, 65976, Note_on_c, 1, 73, 127
1, 65999, Note_off_c, 1, 76, 0
1, 65999, Note_off_c, 1, 73, 0
1, 66000, Note_on_c, 1, 71, 127
1, 66045, Note_off_c, 1, 71, 0
1, 66093, Note_off_c, 1, 54, 0
1, 66096, Note_on_c, 1, 56, 127
1, 66141, Note_off_c, 1, 56, 0
1, 66144, Note_on_c, 1, 58, 127
1, 66189, Note_off_c, 1, 58, 0
1, 66240, Note_on_c, 1, 59, 127
1, 66285, Note_off_c, 1, 59, 0
1, 66336, Note_on_c, 1, 78, 127
1, 66336, Note_on_c, 1, 70, 127
1, 66336, Note_on_c, 1, 56, 127
1, 66381, Note_off_c, 1, 56, 0
1, 66384, Note_on_c, 1, 54, 127
1, 66425, Note_off_c, 1, 78, 0
1, 66425, Note_off_c, 1, 70, 0
1, 66429, Note_off_c, 1, 54, 0
1, 66432, Note_on_c, 1, 74, 127
1, 66432, Note_on_c, 1, 71, 127
1, 66432, Note_on_c, 1, 59, 127
1, 66521, Note_off_c, 1, 74, 0
1, 66521, Note_off_c, 1, 71, 0
1, 66521, Note_off_c, 1, 59, 0
1, 66528, Note_on_c, 1, 73, 127
1, 66528, Note_on_c, 1, 66, 127
1, 66528, Note_on_c, 1, 57, 127
1, 66573, Note_off_c, 1, 73, 0
1, 66576, Note_on_c, 1, 74, 127
1, 66617, Note_off_c, 1, 66, 0
1, 66617, Note_off_c, 1, 57, 0
1, 66621, Note_off_c, 1, 74, 0
1, 66624, Note_on_c, 1, 76, 127
1, 66624, Note_on_c, 1, 71, 127
1, 66624, Note_on_c, 1, 56, 127
1, 66669, Note_off_c, 1, 76, 0
1, 66672, Note_on_c, 1, 74, 127
1, 66713, Note_off_c, 1, 71, 0
1, 66717, Note_off_c, 1, 74, 0
1, 66720, Note_on_c, 1, 73, 127
1, 66765, Note_off_c, 1, 73, 0
1, 66801, Note_off_c, 1, 56, 0
1, 66816, Note_on_c, 1, 54, 127
1, 66912, Note_on_c, 1, 70, 127
1, 66957, Note_off_c, 1, 70, 0
1, 66960, Note_on_c, 1, 68, 127
1, 67005, Note_off_c, 1, 68, 0
1, 67008, Note_on_c, 1, 66, 127
1, 67053, Note_off_c, 1, 54, 0
1, 67056, Note_on_c, 1, 52, 127
1, 67097, Note_off_c, 1, 66, 0
1, 67101, Note_off_c, 1, 52, 0
1, 67104, Note_on_c, 1, 78, 127
1, 67104, Note_on_c, 1, 66, 127
1, 67104, Note_on_c, 1, 50, 127
1, 67149, Note_off_c, 1, 50, 0
1, 67152, Note_on_c, 1, 49, 127
1, 67193, Note_off_c, 1, 66, 0
1, 67197, Note_off_c, 1, 49, 0
1, 67200, Note_on_c, 1, 47, 127
1, 67248, Note_on_c, 1, 76, 127
1, 67289, Note_off_c, 1, 47, 0
1, 67293, Note_off_c, 1, 76, 0
1, 67296, Note_on_c, 1, 74, 127
1, 67296, Note_on_c, 1, 59, 127
1, 67333, Note_off_c, 1, 78, 0
1, 67341, Note_off_c, 1, 74, 0
1, 67344, Note_on_c, 1, 73, 127
1, 67389, Note_off_c, 1, 73, 0
1, 67392, Note_on_c, 1, 71, 127
1, 67437, Note_off_c, 1, 59, 0
1, 67440, Note_on_c, 1, 57, 127
1, 67481, Note_off_c, 1, 71, 0
1, 67485, Note_off_c, 1, 57, 0
1, 67488, Note_on_c, 1, 83, 127
1, 67488, Note_on_c, 1, 71, 127
1, 67488, Note_on_c, 1, 55, 127
1, 67533, Note_off_c, 1, 55, 0
1, 67536, Note_on_c, 1, 54, 127
1, 67577, Note_off_c, 1, 71, 0
1, 67581, Note_off_c, 1, 54, 0
1, 67584, Note_on_c, 1, 52, 127
1, 67632, Note_on_c, 1, 81, 127
1, 67673, Note_off_c, 1, 52, 0
1, 67677, Note_off_c, 1, 81, 0
1, 67680, Note_on_c, 1, 79, 127
1, 67680, Note_on_c, 1, 64, 127
1, 67717, Note_off_c, 1, 83, 0
1, 67725, Note_off_c, 1, 79, 0
1, 67728, Note_on_c, 1, 78, 127
1, 67728, Note_on_c, 1, 82, 127
1, 67773, Note_off_c, 1, 78, 0
1, 67773, Note_off_c, 1, 82, 0
1, 67821, Note_off_c, 1, 64, 0
1, 67824, Note_on_c, 1, 76, 127
1, 67824, Note_on_c, 1, 82, 127
1, 67824, Note_on_c, 1, 61, 127
1, 67869, Note_off_c, 1, 76, 0
1, 67869, Note_off_c, 1, 82, 0
1, 67869, Note_off_c, 1, 61, 0
1, 67872, Note_on_c, 1, 78, 127
1, 67872, Note_on_c, 1, 83, 127
1, 67872, Note_on_c, 1, 62, 127
1, 67917, Note_off_c, 1, 78, 0
1, 67917, Note_off_c, 1, 83, 0
1, 67917, Note_off_c, 1, 62, 0
1, 67920, Note_on_c, 1, 73, 127
1, 67920, Note_on_c, 1, 85, 127
1, 67920, Note_on_c, 1, 58, 127
1, 67965, Note_off_c, 1, 73, 0
1, 67965, Note_off_c, 1, 85, 0
1, 67965, Note_off_c, 1, 58, 0
1, 67968, Note_on_c, 1, 74, 127
1, 67968, Note_on_c, 1, 78, 127
1, 67968, Note_on_c, 1, 59, 127
1, 68013, Note_off_c, 1, 59, 0
1, 68016, Note_on_c, 1, 54, 127
1, 68061, Note_off_c, 1, 54, 0
1, 68064, Note_on_c, 1, 55, 127
1, 68101, Note_off_c, 1, 74, 0
1, 68101, Note_off_c, 1, 78, 0
1, 68109, Note_off_c, 1, 55, 0
1, 68112, Note_on_c, 1, 76, 127
1, 68112, Note_on_c, 1, 83, 127
1, 68112, Note_on_c, 1, 52, 127
1, 68157, Note_off_c, 1, 76, 0
1, 68157, Note_off_c, 1, 83, 0
1, 68157, Note_off_c, 1, 52, 0
1, 68160, Note_on_c, 1, 73, 127
1, 68160, Note_on_c, 1, 82, 127
1, 68160, Note_on_c, 1, 54, 127
1, 68183, Note_off_c, 1, 73, 0
1, 68184, Note_on_c, 1, 74, 127
1, 68207, Note_off_c, 1, 74, 0
1, 68249, Note_off_c, 1, 54, 0
1, 68256, Note_on_c, 1, 42, 127
1, 68293, Note_off_c, 1, 82, 0
1, 68304, Note_on_c, 1, 71, 127
1, 68304, Note_on_c, 1, 83, 127
1, 68345, Note_off_c, 1, 42, 0
1, 68349, Note_off_c, 1, 71, 0
1, 68349, Note_off_c, 1, 83, 0
1, 68352, Note_on_c, 1, 71, 127
1, 68352, Note_on_c, 1, 83, 127
1, 68352, Note_on_c, 1, 47, 127
1, 68397, Note_off_c, 1, 83, 0
1, 68400, Note_on_c, 1, 74, 127
1, 68445, Note_off_c, 1, 74, 0
1, 68448, Note_on_c, 1, 76, 127
1, 68493, Note_off_c, 1, 76, 0
1, 68496, Note_on_c, 1, 78, 127
1, 68529, Note_off_c, 1, 47, 0
1, 68541, Note_off_c, 1, 78, 0
1, 68640, Note_on_c, 1, 73, 127
1, 68640, Note_on_c, 1, 59, 127
1, 68685, Note_off_c, 1, 73, 0
1, 68729, Note_off_c, 1, 59, 0
1, 68733, Note_off_c, 1, 71, 0
1, 68736, Note_on_c, 1, 83, 127
1, 68736, Note_on_c, 1, 57, 127
1, 68825, Note_off_c, 1, 57, 0
1, 68832, Note_on_c, 1, 56, 127
1, 68877, Note_off_c, 1, 56, 0
1, 68913, Note_off_c, 1, 83, 0
1, 68928, Note_on_c, 1, 71, 127
1, 68928, Note_on_c, 1, 59, 127
1, 68973, Note_off_c, 1, 59, 0
1, 68976, Note_on_c, 1, 57, 127
1, 69017, Note_off_c, 1, 71, 0
1, 69021, Note_off_c, 1, 57, 0
1, 69024, Note_on_c, 1, 75, 127
1, 69024, Note_on_c, 1, 56, 127
1, 69069, Note_off_c, 1, 56, 0
1, 69072, Note_on_c, 1, 54, 127
1, 69113, Note_off_c, 1, 75, 0
1, 69117, Note_off_c, 1, 54, 0
1, 69120, Note_on_c, 1, 76, 127
1, 69120, Note_on_c, 1, 56, 127
1, 69209, Note_off_c, 1, 76, 0
1, 69209, Note_off_c, 1, 56, 0
1, 69216, Note_on_c, 1, 76, 127
1, 69216, Note_on_c, 1, 61, 127
1, 69239, Note_off_c, 1, 76, 0
1, 69240, Note_on_c, 1, 78, 127
1, 69263, Note_off_c, 1, 78, 0
1, 69264, Note_on_c, 1, 80, 127
1, 69305, Note_off_c, 1, 61, 0
1, 69309, Note_off_c, 1, 80, 0
1, 69312, Note_on_c, 1, 78, 127
1, 69312, Note_on_c, 1, 57, 127
1, 69401, Note_off_c, 1, 78, 0
1, 69401, Note_off_c, 1, 57, 0
1, 69408, Note_on_c, 1, 78, 127
1, 69408, Note_on_c, 1, 59, 127
1, 69431, Note_off_c, 1, 78, 0
1, 69432, Note_on_c, 1, 80, 127
1, 69455, Note_off_c, 1, 80, 0
1, 69456, Note_on_c, 1, 81, 127
1, 69497, Note_off_c, 1, 59, 0
1, 69501, Note_off_c, 1, 81, 0
1, 69504, Note_on_c, 1, 83, 127
1, 69504, Note_on_c, 1, 80, 127
1, 69504, Note_on_c, 1, 52, 127
1, 69593, Note_off_c, 1, 83, 0
1, 69593, Note_off_c, 1, 80, 0
1, 69600, Note_on_c, 1, 85, 127
1, 69600, Note_on_c, 1, 78, 127
1, 69645, Note_off_c, 1, 85, 0
1, 69648, Note_on_c, 1, 86, 127
1, 69689, Note_off_c, 1, 78, 0
1, 69693, Note_off_c, 1, 86, 0
1, 69696, Note_on_c, 1, 76, 127
1, 69741, Note_off_c, 1, 52, 0
1, 69744, Note_on_c, 1, 50, 127
1, 69789, Note_off_c, 1, 50, 0
1, 69792, Note_on_c, 1, 81, 127
1, 69792, Note_on_c, 1, 49, 127
1, 69837, Note_off_c, 1, 81, 0
1, 69837, Note_off_c, 1, 49, 0
1, 69840, Note_on_c, 1, 47, 127
1, 69885, Note_off_c, 1, 47, 0
1, 69888, Note_on_c, 1, 88, 127
1, 69933, Note_off_c, 1, 76, 0
1, 69936, Note_on_c, 1, 68, 127
1, 69981, Note_off_c, 1, 68, 0
1, 69984, Note_on_c, 1, 69, 127
1, 70029, Note_off_c, 1, 69, 0
1, 70032, Note_on_c, 1, 71, 127
1, 70065, Note_off_c, 1, 88, 0
1, 70077, Note_off_c, 1, 71, 0
1, 70176, Note_on_c, 1, 80, 127
1, 70176, Note_on_c, 1, 66, 127
1, 70176, Note_on_c, 1, 62, 127
1, 70221, Note_off_c, 1, 66, 0
1, 70224, Note_on_c, 1, 64, 127
1, 70265, Note_off_c, 1, 80, 0
1, 70265, Note_off_c, 1, 62, 0
1, 70269, Note_off_c, 1, 64, 0
1, 70272, Note_on_c, 1, 81, 127
1, 70272, Note_on_c, 1, 76, 127
1, 70272, Note_on_c, 1, 61, 127
1, 70361, Note_off_c, 1, 81, 0
1, 70361, Note_off_c, 1, 61, 0
1, 70368, Note_on_c, 1, 59, 127
1, 70392, Note_on_c, 1, 83, 127
1, 70415, Note_off_c, 1, 83, 0
1, 70416, Note_off_c, 1, 59, 0
1, 70416, Note_on_c, 1, 85, 127
1, 70416, Note_on_c, 1, 57, 127
1, 70461, Note_off_c, 1, 85, 0
1, 70461, Note_off_c, 1, 57, 0
1, 70512, Note_on_c, 1, 56, 127
1, 70557, Note_off_c, 1, 56, 0
1, 70560, Note_on_c, 1, 54, 127
1, 70605, Note_off_c, 1, 54, 0
1, 70608, Note_on_c, 1, 86, 127
1, 70608, Note_on_c, 1, 52, 127
1, 70653, Note_off_c, 1, 86, 0
1, 70653, Note_off_c, 1, 52, 0
1, 71040, Note_on_c, 1, 66, 127
1, 71129, Note_off_c, 1, 76, 0
1, 71136, Note_on_c, 1, 78, 127
1, 71181, Note_off_c, 1, 78, 0
1, 71184, Note_on_c, 1, 88, 127
1, 71184, Note_on_c, 1, 79, 127
1, 71229, Note_off_c, 1, 88, 0
1, 71229, Note_off_c, 1, 79, 0
1, 71328, Note_on_c, 1, 74, 127
1, 71373, Note_off_c, 1, 74, 0
1, 71376, Note_on_c, 1, 82, 127
1, 71376, Note_on_c, 1, 73, 127
1, 71421, Note_off_c, 1, 82, 0
1, 71421, Note_off_c, 1, 73, 0
1, 71513, Note_off_c, 1, 66, 0
1, 71520, Note_on_c, 1, 64, 127
1, 71565, Note_off_c, 1, 64, 0
1, 71568, Note_on_c, 1, 62, 127
1, 71613, Note_off_c, 1, 62, 0
1, 72144, Note_on_c, 1, 80, 127
1, 72144, Note_on_c, 1, 71, 127
1, 72189, Note_off_c, 1, 80, 0
1, 72189, Note_off_c, 1, 71, 0
1, 72912, Note_on_c, 1, 50, 127
1, 72957, Note_off_c, 1, 50, 0
1, 72960, Note_on_c, 1, 49, 127
1, 73049, Note_off_c, 1, 49, 0
1, 73056, Note_on_c, 1, 73, 127
1, 73056, Note_on_c, 1, 69, 127
1, 73056, Note_on_c, 1, 50, 127
1, 73101, Note_off_c, 1, 73, 0
1, 73101, Note_off_c, 1, 69, 0
1, 73101, Note_off_c, 1, 50, 0
1, 73104, Note_on_c, 1, 71, 127
1, 73104, Note_on_c, 1, 68, 127
1, 73104, Note_on_c, 1, 52, 127
1, 73149, Note_off_c, 1, 71, 0
1, 73149, Note_off_c, 1, 68, 0
1, 73149, Note_off_c, 1, 52, 0
1, 73152, Note_on_c, 1, 69, 127
1, 73152, Note_on_c, 1, 54, 127
1, 73200, Note_on_c, 1, 68, 127
1, 73241, Note_off_c, 1, 54, 0
1, 73245, Note_off_c, 1, 68, 0
1, 73248, Note_on_c, 1, 66, 127
1, 73248, Note_on_c, 1, 56, 127
1, 73293, Note_off_c, 1, 66, 0
1, 73293, Note_off_c, 1, 56, 0
1, 73296, Note_on_c, 1, 64, 127
1, 73296, Note_on_c, 1, 57, 127
1, 73341, Note_off_c, 1, 64, 0
1, 73341, Note_off_c, 1, 57, 0
1, 73344, Note_on_c, 1, 62, 127
1, 73344, Note_on_c, 1, 59, 127
1, 73389, Note_off_c, 1, 69, 0
1, 73389, Note_off_c, 1, 59, 0
1, 73392, Note_on_c, 1, 73, 127
1, 73433, Note_off_c, 1, 62, 0
1, 73437, Note_off_c, 1, 73, 0
1, 73440, Note_on_c, 1, 64, 127
1, 73440, Note_on_c, 1, 71, 127
1, 73440, Note_on_c, 1, 56, 127
1, 73485, Note_off_c, 1, 64, 0
1, 73485, Note_off_c, 1, 71, 0
1, 73485, Note_off_c, 1, 56, 0
1, 73488, Note_on_c, 1, 66, 127
1, 73488, Note_on_c, 1, 69, 127
1, 73488, Note_on_c, 1, 54, 127
1, 73533, Note_off_c, 1, 66, 0
1, 73533, Note_off_c, 1, 69, 0
1, 73533, Note_off_c, 1, 54, 0
1, 73536, Note_on_c, 1, 68, 127
1, 73536, Note_on_c, 1, 52, 127
1, 73581, Note_off_c, 1, 52, 0
1, 73584, Note_on_c, 1, 78, 127
1, 73584, Note_on_c, 1, 50, 127
1, 73625, Note_off_c, 1, 68, 0
1, 73629, Note_off_c, 1, 78, 0
1, 73629, Note_off_c, 1, 50, 0
1, 73632, Note_on_c, 1, 69, 127
1, 73632, Note_on_c, 1, 76, 127
1, 73632, Note_on_c, 1, 49, 127
1, 73677, Note_off_c, 1, 69, 0
1, 73677, Note_off_c, 1, 76, 0
1, 73677, Note_off_c, 1, 49, 0
1, 73680, Note_on_c, 1, 71, 127
1, 73680, Note_on_c, 1, 74, 127
1, 73680, Note_on_c, 1, 47, 127
1, 73725, Note_off_c, 1, 71, 0
1, 73725, Note_off_c, 1, 74, 0
1, 73725, Note_off_c, 1, 47, 0
1, 73728, Note_on_c, 1, 73, 127
1, 73728, Note_on_c, 1, 45, 127
1, 73776, Note_on_c, 1, 83, 127
1, 73817, Note_off_c, 1, 73, 0
1, 73817, Note_off_c, 1, 45, 0
1, 73821, Note_off_c, 1, 83, 0
1, 73824, Note_on_c, 1, 74, 127
1, 73824, Note_on_c, 1, 81, 127
1, 73824, Note_on_c, 1, 47, 127
1, 73869, Note_off_c, 1, 74, 0
1, 73869, Note_off_c, 1, 81, 0
1, 73869, Note_off_c, 1, 47, 0
1, 73872, Note_on_c, 1, 76, 127
1, 73872, Note_on_c, 1, 80, 127
1, 73872, Note_on_c, 1, 49, 127
1, 73917, Note_off_c, 1, 76, 0
1, 73917, Note_off_c, 1, 80, 0
1, 73917, Note_off_c, 1, 49, 0
1, 73920, Note_on_c, 1, 78, 127
1, 73920, Note_on_c, 1, 50, 127
1, 73968, Note_on_c, 1, 76, 127
1, 74009, Note_off_c, 1, 78, 0
1, 74009, Note_off_c, 1, 50, 0
1, 74013, Note_off_c, 1, 76, 0
1, 74016, Note_on_c, 1, 80, 127
1, 74016, Note_on_c, 1, 74, 127
1, 74016, Note_on_c, 1, 47, 127
1, 74061, Note_off_c, 1, 80, 0
1, 74061, Note_off_c, 1, 74, 0
1, 74064, Note_on_c, 1, 81, 127
1, 74064, Note_on_c, 1, 73, 127
1, 74105, Note_off_c, 1, 47, 0
1, 74109, Note_off_c, 1, 81, 0
1, 74109, Note_off_c, 1, 73, 0
1, 74112, Note_on_c, 1, 80, 127
1, 74112, Note_on_c, 1, 71, 127
1, 74112, Note_on_c, 1, 52, 127
1, 74201, Note_off_c, 1, 80, 0
1, 74201, Note_off_c, 1, 71, 0
1, 74201, Note_off_c, 1, 52, 0
1, 74208, Note_on_c, 1, 81, 127
1, 74208, Note_on_c, 1, 40, 127
1, 74253, Note_off_c, 1, 81, 0
1, 74256, Note_on_c, 1, 83, 127
1, 74297, Note_off_c, 1, 40, 0
1, 74301, Note_off_c, 1, 83, 0
1, 74304, Note_on_c, 1, 81, 127
1, 74304, Note_on_c, 1, 52, 127
1, 74349, Note_off_c, 1, 81, 0
1, 74352, Note_on_c, 1, 80, 127
1, 74393, Note_off_c, 1, 52, 0
1, 74397, Note_off_c, 1, 80, 0
1, 74400, Note_on_c, 1, 78, 127
1, 74400, Note_on_c, 1, 54, 127
1, 74445, Note_off_c, 1, 78, 0
1, 74448, Note_on_c, 1, 76, 127
1, 74489, Note_off_c, 1, 54, 0
1, 74493, Note_off_c, 1, 76, 0
1, 74496, Note_on_c, 1, 88, 127
1, 74496, Note_on_c, 1, 71, 127
1, 74496, Note_on_c, 1, 56, 127
1, 74585, Note_off_c, 1, 71, 0
1, 74585, Note_off_c, 1, 56, 0
1, 74592, Note_on_c, 1, 73, 127
1, 74592, Note_on_c, 1, 54, 127
1, 74637, Note_off_c, 1, 73, 0
1, 74640, Note_on_c, 1, 74, 127
1, 74681, Note_off_c, 1, 54, 0
1, 74685, Note_off_c, 1, 74, 0
1, 74784, Note_on_c, 1, 69, 127
1, 74784, Note_on_c, 1, 52, 127
1, 74829, Note_off_c, 1, 69, 0
1, 74832, Note_on_c, 1, 68, 127
1, 74873, Note_off_c, 1, 52, 0
1, 74877, Note_off_c, 1, 68, 0
1, 74880, Note_on_c, 1, 76, 127
1, 74880, Note_on_c, 1, 50, 127
1, 74969, Note_off_c, 1, 50, 0
1, 74976, Note_on_c, 1, 47, 127
1, 75021, Note_off_c, 1, 47, 0
1, 75024, Note_on_c, 1, 49, 127
1, 75057, Note_off_c, 1, 76, 0
1, 75069, Note_off_c, 1, 49, 0
1, 75072, Note_on_c, 1, 64, 127
1, 75161, Note_off_c, 1, 64, 0
1, 75216, Note_on_c, 1, 45, 127
1, 75261, Note_off_c, 1, 45, 0
1, 75504, Note_on_c, 1, 44, 127
1, 75549, Note_off_c, 1, 44, 0
1, 75552, Note_on_c, 1, 42, 127
1, 75597, Note_off_c, 1, 42, 0
1, 75600, Note_on_c, 1, 40, 127
1, 75645, Note_off_c, 1, 40, 0
1, 75693, Note_off_c, 1, 88, 0
1, 75744, Note_on_c, 1, 71, 127
1, 75744, Note_on_c, 1, 74, 127
1, 75744, Note_on_c, 1, 57, 127
1, 75789, Note_off_c, 1, 71, 0
1, 75789, Note_off_c, 1, 74, 0
1, 75789, Note_off_c, 1, 57, 0
1, 75792, Note_on_c, 1, 73, 127
1, 75792, Note_on_c, 1, 76, 127
1, 75792, Note_on_c, 1, 56, 127
1, 75837, Note_off_c, 1, 73, 0
1, 75837, Note_off_c, 1, 76, 0
1, 75837, Note_off_c, 1, 56, 0
1, 75840, Note_on_c, 1, 74, 127
1, 75840, Note_on_c, 1, 54, 127
1, 75885, Note_off_c, 1, 74, 0
1, 75885, Note_off_c, 1, 54, 0
1, 75888, Note_on_c, 1, 76, 127
1, 75888, Note_on_c, 1, 73, 127
1, 75888, Note_on_c, 1, 52, 127
1, 75933, Note_off_c, 1, 76, 0
1, 75933, Note_off_c, 1, 73, 0
1, 75933, Note_off_c, 1, 52, 0
1, 75936, Note_on_c, 1, 78, 127
1, 75936, Note_on_c, 1, 71, 127
1, 75936, Note_on_c, 1, 50, 127
1, 75981, Note_off_c, 1, 78, 0
1, 75981, Note_off_c, 1, 71, 0
1, 75981, Note_off_c, 1, 50, 0
1, 75984, Note_on_c, 1, 80, 127
1, 75984, Note_on_c, 1, 69, 127
1, 75984, Note_on_c, 1, 49, 127
1, 76029, Note_off_c, 1, 80, 0
1, 76029, Note_off_c, 1, 69, 0
1, 76029, Note_off_c, 1, 49, 0
1, 76032, Note_on_c, 1, 81, 127
1, 76032, Note_on_c, 1, 78, 127
1, 76032, Note_on_c, 1, 48, 127
1, 76077, Note_off_c, 1, 48, 0
1, 76080, Note_on_c, 1, 49, 127
1, 76121, Note_off_c, 1, 81, 0
1, 76121, Note_off_c, 1, 78, 0
1, 76125, Note_off_c, 1, 49, 0
1, 76128, Note_on_c, 1, 81, 127
1, 76128, Note_on_c, 1, 78, 127
1, 76128, Note_on_c, 1, 51, 127
1, 76151, Note_off_c, 1, 81, 0
1, 76151, Note_off_c, 1, 78, 0
1, 76152, Note_on_c, 1, 80, 127
1, 76152, Note_on_c, 1, 76, 127
1, 76173, Note_off_c, 1, 51, 0
1, 76175, Note_off_c, 1, 80, 0
1, 76175, Note_off_c, 1, 76, 0
1, 76176, Note_on_c, 1, 78, 127
1, 76176, Note_on_c, 1, 75, 127
1, 76176, Note_on_c, 1, 48, 127
1, 76221, Note_off_c, 1, 78, 0
1, 76221, Note_off_c, 1, 75, 0
1, 76221, Note_off_c, 1, 48, 0
1, 76224, Note_on_c, 1, 80, 127
1, 76224, Note_on_c, 1, 76, 127
1, 76224, Note_on_c, 1, 44, 127
1, 76313, Note_off_c, 1, 80, 0
1, 76313, Note_off_c, 1, 76, 0
1, 76344, Note_on_c, 1, 78, 127
1, 76344, Note_on_c, 1, 75, 127
1, 76367, Note_off_c, 1, 78, 0
1, 76367, Note_off_c, 1, 75, 0
1, 76368, Note_on_c, 1, 73, 127
1, 76413, Note_off_c, 1, 73, 0
1, 76461, Note_off_c, 1, 44, 0
1, 76464, Note_on_c, 1, 46, 127
1, 76509, Note_off_c, 1, 46, 0
1, 76512, Note_on_c, 1, 48, 127
1, 76557, Note_off_c, 1, 48, 0
1, 76608, Note_on_c, 1, 49, 127
1, 76653, Note_off_c, 1, 49, 0
1, 76704, Note_on_c, 1, 80, 127
1, 76704, Note_on_c, 1, 72, 127
1, 76704, Note_on_c, 1, 46, 127
1, 76749, Note_off_c, 1, 46, 0
1, 76752, Note_on_c, 1, 44, 127
1, 76793, Note_off_c, 1, 80, 0
1, 76793, Note_off_c, 1, 72, 0
1, 76797, Note_off_c, 1, 44, 0
1, 76800, Note_on_c, 1, 76, 127
1, 76800, Note_on_c, 1, 73, 127
1, 76800, Note_on_c, 1, 49, 127
1, 76823, Note_off_c, 1, 76, 0
1, 76824, Note_on_c, 1, 78, 127
1, 76847, Note_off_c, 1, 78, 0
1, 76889, Note_off_c, 1, 73, 0
1, 76889, Note_off_c, 1, 49, 0
1, 76896, Note_on_c, 1, 75, 127
1, 76896, Note_on_c, 1, 68, 127
1, 76896, Note_on_c, 1, 47, 127
1, 76941, Note_off_c, 1, 75, 0
1, 76944, Note_on_c, 1, 76, 127
1, 76985, Note_off_c, 1, 68, 0
1, 76985, Note_off_c, 1, 47, 0
1, 76989, Note_off_c, 1, 76, 0
1, 76992, Note_on_c, 1, 78, 127
1, 76992, Note_on_c, 1, 73, 127
1, 76992, Note_on_c, 1, 45, 127
1, 77037, Note_off_c, 1, 78, 0
1, 77040, Note_on_c, 1, 76, 127
1, 77081, Note_off_c, 1, 73, 0
1, 77085, Note_off_c, 1, 76, 0
1, 77088, Note_on_c, 1, 75, 127
1, 77133, Note_off_c, 1, 75, 0
1, 77169, Note_off_c, 1, 45, 0
1, 77184, Note_on_c, 1, 44, 127
1, 77280, Note_on_c, 1, 72, 127
1, 77325, Note_off_c, 1, 72, 0
1, 77328, Note_on_c, 1, 70, 127
1, 77373, Note_off_c, 1, 70, 0
1, 77376, Note_on_c, 1, 68, 127
1, 77421, Note_off_c, 1, 44, 0
1, 77424, Note_on_c, 1, 42, 127
1, 77465, Note_off_c, 1, 68, 0
1, 77469, Note_off_c, 1, 42, 0
1, 77472, Note_on_c, 1, 80, 127
1, 77472, Note_on_c, 1, 68, 127
1, 77472, Note_on_c, 1, 40, 127
1, 77517, Note_off_c, 1, 40, 0
1, 77520, Note_on_c, 1, 39, 127
1, 77561, Note_off_c, 1, 68, 0
1, 77565, Note_off_c, 1, 39, 0
1, 77568, Note_on_c, 1, 37, 127
1, 77616, Note_on_c, 1, 78, 127
1, 77657, Note_off_c, 1, 37, 0
1, 77661, Note_off_c, 1, 78, 0
1, 77664, Note_on_c, 1, 76, 127
1, 77664, Note_on_c, 1, 49, 127
1, 77701, Note_off_c, 1, 80, 0
1, 77709, Note_off_c, 1, 76, 0
1, 77712, Note_on_c, 1, 75, 127
1, 77757, Note_off_c, 1, 75, 0
1, 77760, Note_on_c, 1, 73, 127
1, 77805, Note_off_c, 1, 49, 0
1, 77808, Note_on_c, 1, 47, 127
1, 77849, Note_off_c, 1, 73, 0
1, 77853, Note_off_c, 1, 47, 0
1, 77856, Note_on_c, 1, 85, 127
1, 77856, Note_on_c, 1, 73, 127
1, 77856, Note_on_c, 1, 45, 127
1, 77901, Note_off_c, 1, 73, 0
1, 77901, Note_off_c, 1, 45, 0
1, 77904, Note_on_c, 1, 72, 127
1, 77904, Note_on_c, 1, 44, 127
1, 77949, Note_off_c, 1, 72, 0
1, 77949, Note_off_c, 1, 44, 0
1, 77952, Note_on_c, 1, 42, 127
1, 77997, Note_off_c, 1, 85, 0
1, 78000, Note_on_c, 1, 83, 127
1, 78041, Note_off_c, 1, 42, 0
1, 78045, Note_off_c, 1, 83, 0
1, 78048, Note_on_c, 1, 81, 127
1, 78048, Note_on_c, 1, 54, 127
1, 78093, Note_off_c, 1, 81, 0
1, 78096, Note_on_c, 1, 80, 127
1, 78141, Note_off_c, 1, 80, 0
1, 78189, Note_off_c, 1, 54, 0
1, 78192, Note_on_c, 1, 78, 127
1, 78192, Note_on_c, 1, 72, 127
1, 78192, Note_on_c, 1, 51, 127
1, 78237, Note_off_c, 1, 78, 0
1, 78237, Note_off_c, 1, 72, 0
1, 78237, Note_off_c, 1, 51, 0
1, 78240, Note_on_c, 1, 80, 127
1, 78240, Note_on_c, 1, 73, 127
1, 78240, Note_on_c, 1, 52, 127
1, 78285, Note_off_c, 1, 80, 0
1, 78285, Note_off_c, 1, 73, 0
1, 78285, Note_off_c, 1, 52, 0
1, 78288, Note_on_c, 1, 75, 127
1, 78288, Note_on_c, 1, 48, 127
1, 78333, Note_off_c, 1, 75, 0
1, 78333, Note_off_c, 1, 48, 0
1, 78336, Note_on_c, 1, 76, 127
1, 78336, Note_on_c, 1, 68, 127
1, 78336, Note_on_c, 1, 49, 127
1, 78381, Note_off_c, 1, 49, 0
1, 78384, Note_on_c, 1, 44, 127
1, 78429, Note_off_c, 1, 44, 0
1, 78432, Note_on_c, 1, 45, 127
1, 78469, Note_off_c, 1, 76, 0
1, 78469, Note_off_c, 1, 68, 0
1, 78477, Note_off_c, 1, 45, 0
1, 78480, Note_on_c, 1, 78, 127
1, 78480, Note_on_c, 1, 73, 127
1, 78480, Note_on_c, 1, 42, 127
1, 78525, Note_off_c, 1, 78, 0
1, 78525, Note_off_c, 1, 73, 0
1, 78525, Note_off_c, 1, 42, 0
1, 78528, Note_on_c, 1, 75, 127
1, 78528, Note_on_c, 1, 72, 127
1, 78528, Note_on_c, 1, 44, 127
1, 78617, Note_off_c, 1, 44, 0
1, 78661, Note_off_c, 1, 75, 0
1, 78661, Note_off_c, 1, 72, 0
1, 78672, Note_on_c, 1, 73, 127
1, 78717, Note_off_c, 1, 73, 0
1, 78720, Note_on_c, 1, 73, 127
1, 78720, Note_on_c, 1, 37, 127
1, 78809, Note_off_c, 1, 37, 0
1, 78816, Note_on_c, 1, 38, 127
1, 78861, Note_off_c, 1, 38, 0
1, 78864, Note_on_c, 1, 40, 127
1, 78909, Note_off_c, 1, 40, 0
1, 78912, Note_on_c, 1, 42, 127
1, 78957, Note_off_c, 1, 42, 0
1, 78960, Note_on_c, 1, 44, 127
1, 79005, Note_off_c, 1, 44, 0
1, 79008, Note_on_c, 1, 45, 127
1, 79053, Note_off_c, 1, 45, 0
1, 79056, Note_on_c, 1, 47, 127
1, 79074, Note_off_c, 1, 73, 0
1, 79101, Note_off_c, 1, 47, 0
1, 79104, Note_on_c, 1, 69, 127
1, 79104, Note_on_c, 1, 49, 127
1, 79193, Note_off_c, 1, 49, 0
1, 79200, Note_on_c, 1, 47, 127
1, 79281, Note_off_c, 1, 69, 0
1, 79289, Note_off_c, 1, 47, 0
1, 79296, Note_on_c, 1, 69, 127
1, 79296, Note_on_c, 1, 64, 127
1, 79296, Note_on_c, 1, 49, 127
1, 79385, Note_off_c, 1, 64, 0
1, 79385, Note_off_c, 1, 49, 0
1, 79392, Note_on_c, 1, 45, 127
1, 79481, Note_off_c, 1, 69, 0
1, 79481, Note_off_c, 1, 45, 0
1, 79488, Note_on_c, 1, 64, 127
1, 79488, Note_on_c, 1, 71, 127
1, 79488, Note_on_c, 1, 44, 127
1, 79533, Note_off_c, 1, 71, 0
1, 79536, Note_on_c, 1, 69, 127
1, 79577, Note_off_c, 1, 64, 0
1, 79577, Note_off_c, 1, 44, 0
1, 79581, Note_off_c, 1, 69, 0
1, 79584, Note_on_c, 1, 69, 127
1, 79584, Note_on_c, 1, 68, 127
1, 79584, Note_on_c, 1, 42, 127
1, 79629, Note_off_c, 1, 68, 0
1, 79632, Note_on_c, 1, 66, 127
1, 79673, Note_off_c, 1, 69, 0
1, 79673, Note_off_c, 1, 42, 0
1, 79677, Note_off_c, 1, 66, 0
1, 79680, Note_on_c, 1, 71, 127
1, 79680, Note_on_c, 1, 64, 127
1, 79680, Note_on_c, 1, 44, 127
1, 79725, Note_off_c, 1, 71, 0
1, 79728, Note_on_c, 1, 69, 127
1, 79769, Note_off_c, 1, 44, 0
1, 79773, Note_off_c, 1, 69, 0
1, 79776, Note_on_c, 1, 68, 127
1, 79776, Note_on_c, 1, 40, 127
1, 79821, Note_off_c, 1, 68, 0
1, 79824, Note_on_c, 1, 66, 127
1, 79857, Note_off_c, 1, 64, 0
1, 79865, Note_off_c, 1, 40, 0
1, 79869, Note_off_c, 1, 66, 0
1, 79872, Note_on_c, 1, 64, 127
1, 79872, Note_on_c, 1, 73, 127
1, 79872, Note_on_c, 1, 45, 127
1, 79896, Note_off_c, 1, 73, 0
1, 79896, Note_on_c, 1, 74, 127
1, 79920, Note_off_c, 1, 74, 0
1, 79961, Note_off_c, 1, 45, 0
1, 79968, Note_on_c, 1, 71, 127
1, 79968, Note_on_c, 1, 52, 127
1, 80013, Note_off_c, 1, 71, 0
1, 80057, Note_off_c, 1, 52, 0
1, 80064, Note_on_c, 1, 57, 127
1, 80153, Note_off_c, 1, 57, 0
1, 80160, Note_on_c, 1, 59, 127
1, 80208, Note_on_c, 1, 69, 127
1, 80249, Note_off_c, 1, 59, 0
1, 80253, Note_off_c, 1, 69, 0
1, 80256, Note_on_c, 1, 76, 127
1, 80256, Note_on_c, 1, 61, 127
1, 80301, Note_off_c, 1, 76, 0
1, 80345, Note_off_c, 1, 61, 0
1, 80433, Note_off_c, 1, 64, 0
1, 80448, Note_on_c, 1, 69, 127
1, 80448, Note_on_c, 1, 62, 127
1, 80493, Note_off_c, 1, 62, 0
1, 80496, Note_on_c, 1, 61, 127
1, 80537, Note_off_c, 1, 69, 0
1, 80541, Note_off_c, 1, 61, 0
1, 80544, Note_on_c, 1, 74, 127
1, 80544, Note_on_c, 1, 59, 127
1, 80589, Note_off_c, 1, 59, 0
1, 80592, Note_on_c, 1, 57, 127
1, 80637, Note_off_c, 1, 57, 0
1, 80640, Note_on_c, 1, 56, 127
1, 80729, Note_off_c, 1, 74, 0
1, 80729, Note_off_c, 1, 56, 0
1, 80736, Note_on_c, 1, 73, 127
1, 80736, Note_on_c, 1, 57, 127
1, 80825, Note_off_c, 1, 73, 0
1, 80825, Note_off_c, 1, 57, 0
1, 80832, Note_on_c, 1, 71, 127
1, 80832, Note_on_c, 1, 50, 127
1, 80877, Note_off_c, 1, 71, 0
1, 80880, Note_on_c, 1, 73, 127
1, 80921, Note_off_c, 1, 50, 0
1, 80925, Note_off_c, 1, 73, 0
1, 80928, Note_on_c, 1, 74, 127
1, 80928, Note_on_c, 1, 52, 127
1, 80973, Note_off_c, 1, 74, 0
1, 80976, Note_on_c, 1, 71, 127
1, 81017, Note_off_c, 1, 52, 0
1, 81021, Note_off_c, 1, 71, 0
1, 81024, Note_on_c, 1, 73, 127
1, 81024, Note_on_c, 1, 45, 127
1, 81069, Note_off_c, 1, 73, 0
1, 81072, Note_on_c, 1, 71, 127
1, 81113, Note_off_c, 1, 45, 0
1, 81117, Note_off_c, 1, 71, 0
1, 81120, Note_on_c, 1, 69, 127
1, 81120, Note_on_c, 1, 57, 127
1, 81165, Note_off_c, 1, 69, 0
1, 81168, Note_on_c, 1, 71, 127
1, 81209, Note_off_c, 1, 57, 0
1, 81213, Note_off_c, 1, 71, 0
1, 81216, Note_on_c, 1, 73, 127
1, 81216, Note_on_c, 1, 56, 127
1, 81261, Note_off_c, 1, 73, 0
1, 81264, Note_on_c, 1, 75, 127
1, 81305, Note_off_c, 1, 56, 0
1, 81309, Note_off_c, 1, 75, 0
1, 81312, Note_on_c, 1, 76, 127
1, 81312, Note_on_c, 1, 54, 127
1, 81357, Note_off_c, 1, 76, 0
1, 81360, Note_on_c, 1, 78, 127
1, 81401, Note_off_c, 1, 54, 0
1, 81405, Note_off_c, 1, 78, 0
1, 81408, Note_on_c, 1, 76, 127
1, 81408, Note_on_c, 1, 80, 127
1, 81408, Note_on_c, 1, 52, 127
1, 81453, Note_off_c, 1, 80, 0
1, 81456, Note_on_c, 1, 81, 127
1, 81497, Note_off_c, 1, 52, 0
1, 81501, Note_off_c, 1, 81, 0
1, 81504, Note_on_c, 1, 83, 127
1, 81504, Note_on_c, 1, 54, 127
1, 81549, Note_off_c, 1, 83, 0
1, 81585, Note_off_c, 1, 76, 0
1, 81593, Note_off_c, 1, 54, 0
1, 81600, Note_on_c, 1, 71, 127
1, 81600, Note_on_c, 1, 76, 127
1, 81600, Note_on_c, 1, 56, 127
1, 81689, Note_off_c, 1, 71, 0
1, 81689, Note_off_c, 1, 56, 0
1, 81696, Note_on_c, 1, 52, 127
1, 81785, Note_off_c, 1, 76, 0
1, 81785, Note_off_c, 1, 52, 0
1, 81792, Note_on_c, 1, 78, 127
1, 81792, Note_on_c, 1, 71, 127
1, 81792, Note_on_c, 1, 51, 127
1, 81837, Note_off_c, 1, 78, 0
1, 81840, Note_on_c, 1, 76, 127
1, 81881, Note_off_c, 1, 71, 0
1, 81881, Note_off_c, 1, 51, 0
1, 81885, Note_off_c, 1, 76, 0
1, 81888, Note_on_c, 1, 75, 127
1, 81888, Note_on_c, 1, 76, 127
1, 81888, Note_on_c, 1, 49, 127
1, 81933, Note_off_c, 1, 75, 0
1, 81936, Note_on_c, 1, 73, 127
1, 81977, Note_off_c, 1, 76, 0
1, 81977, Note_off_c, 1, 49, 0
1, 81981, Note_off_c, 1, 73, 0
1, 81984, Note_on_c, 1, 71, 127
1, 81984, Note_on_c, 1, 78, 127
1, 81984, Note_on_c, 1, 51, 127
1, 82029, Note_off_c, 1, 78, 0
1, 82032, Note_on_c, 1, 76, 127
1, 82073, Note_off_c, 1, 51, 0
1, 82077, Note_off_c, 1, 76, 0
1, 82080, Note_on_c, 1, 75, 127
1, 82080, Note_on_c, 1, 47, 127
1, 82125, Note_off_c, 1, 75, 0
1, 82128, Note_on_c, 1, 73, 127
1, 82161, Note_off_c, 1, 71, 0
1, 82169, Note_off_c, 1, 47, 0
1, 82173, Note_off_c, 1, 73, 0
1, 82176, Note_on_c, 1, 80, 127
1, 82176, Note_on_c, 1, 71, 127
1, 82176, Note_on_c, 1, 40, 127
1, 82200, Note_off_c, 1, 80, 0
1, 82200, Note_on_c, 1, 81, 127
1, 82224, Note_off_c, 1, 81, 0
1, 82265, Note_off_c, 1, 40, 0
1, 82272, Note_on_c, 1, 78, 127
1, 82272, Note_on_c, 1, 47, 127
1, 82317, Note_off_c, 1, 78, 0
1, 82361, Note_off_c, 1, 47, 0
1, 82368, Note_on_c, 1, 52, 127
1, 82457, Note_off_c, 1, 52, 0
1, 82464, Note_on_c, 1, 54, 127
1, 82512, Note_on_c, 1, 76, 127
1, 82553, Note_off_c, 1, 54, 0
1, 82557, Note_off_c, 1, 76, 0
1, 82560, Note_on_c, 1, 83, 127
1, 82560, Note_on_c, 1, 56, 127
1, 82605, Note_off_c, 1, 83, 0
1, 82649, Note_off_c, 1, 56, 0
1, 82737, Note_off_c, 1, 71, 0
1, 82752, Note_on_c, 1, 76, 127
1, 82752, Note_on_c, 1, 73, 127
1, 82752, Note_on_c, 1, 57, 127
1, 82797, Note_off_c, 1, 57, 0
1, 82800, Note_on_c, 1, 56, 127
1, 82841, Note_off_c, 1, 76, 0
1, 82845, Note_off_c, 1, 56, 0
1, 82848, Note_on_c, 1, 81, 127
1, 82848, Note_on_c, 1, 54, 127
1, 82893, Note_off_c, 1, 54, 0
1, 82896, Note_on_c, 1, 52, 127
1, 82929, Note_off_c, 1, 73, 0
1, 82941, Note_off_c, 1, 52, 0
1, 82944, Note_on_c, 1, 75, 127
1, 82944, Note_on_c, 1, 59, 127
1, 83033, Note_off_c, 1, 81, 0
1, 83033, Note_off_c, 1, 75, 0
1, 83033, Note_off_c, 1, 59, 0
1, 83040, Note_on_c, 1, 80, 127
1, 83040, Note_on_c, 1, 76, 127
1, 83040, Note_on_c, 1, 61, 127
1, 83129, Note_off_c, 1, 80, 0
1, 83129, Note_off_c, 1, 61, 0
1, 83136, Note_on_c, 1, 78, 127
1, 83136, Note_on_c, 1, 57, 127
1, 83181, Note_off_c, 1, 78, 0
1, 83217, Note_off_c, 1, 76, 0
1, 83225, Note_off_c, 1, 57, 0
1, 83232, Note_on_c, 1, 81, 127
1, 83232, Note_on_c, 1, 75, 127
1, 83232, Note_on_c, 1, 59, 127
1, 83277, Note_off_c, 1, 81, 0
1, 83280, Note_on_c, 1, 78, 127
1, 83321, Note_off_c, 1, 75, 0
1, 83321, Note_off_c, 1, 59, 0
1, 83325, Note_off_c, 1, 78, 0
1, 83328, Note_on_c, 1, 80, 127
1, 83328, Note_on_c, 1, 76, 127
1, 83328, Note_on_c, 1, 52, 127
1, 83373, Note_off_c, 1, 80, 0
1, 83376, Note_on_c, 1, 78, 127
1, 83417, Note_off_c, 1, 52, 0
1, 83421, Note_off_c, 1, 78, 0
1, 83424, Note_on_c, 1, 64, 127
1, 83505, Note_off_c, 1, 76, 0
1, 83513, Note_off_c, 1, 64, 0
1, 83520, Note_on_c, 1, 80, 127
1, 83520, Note_on_c, 1, 62, 127
1, 83565, Note_off_c, 1, 80, 0
1, 83568, Note_on_c, 1, 81, 127
1, 83609, Note_off_c, 1, 62, 0
1, 83613, Note_off_c, 1, 81, 0
1, 83616, Note_on_c, 1, 83, 127
1, 83616, Note_on_c, 1, 61, 127
1, 83661, Note_off_c, 1, 83, 0
1, 83664, Note_on_c, 1, 85, 127
1, 83705, Note_off_c, 1, 61, 0
1, 83709, Note_off_c, 1, 85, 0
1, 83712, Note_on_c, 1, 86, 127
1, 83712, Note_on_c, 1, 59, 127
1, 83757, Note_off_c, 1, 59, 0
1, 83760, Note_on_c, 1, 61, 127
1, 83805, Note_off_c, 1, 61, 0
1, 83808, Note_on_c, 1, 78, 127
1, 83808, Note_on_c, 1, 62, 127
1, 83853, Note_off_c, 1, 62, 0
1, 83897, Note_off_c, 1, 78, 0
1, 83904, Note_on_c, 1, 83, 127
1, 83952, Note_on_c, 1, 57, 127
1, 83993, Note_off_c, 1, 83, 0
1, 83997, Note_off_c, 1, 57, 0
1, 84000, Note_on_c, 1, 81, 127
1, 84000, Note_on_c, 1, 56, 127
1, 84045, Note_off_c, 1, 56, 0
1, 84048, Note_on_c, 1, 54, 127
1, 84089, Note_off_c, 1, 81, 0
1, 84093, Note_off_c, 1, 54, 0
1, 84096, Note_on_c, 1, 80, 127
1, 84096, Note_on_c, 1, 52, 127
1, 84141, Note_off_c, 1, 52, 0
1, 84185, Note_off_c, 1, 86, 0
1, 84288, Note_on_c, 1, 88, 127
1, 84336, Note_on_c, 1, 50, 127
1, 84377, Note_off_c, 1, 88, 0
1, 84381, Note_off_c, 1, 50, 0
1, 84384, Note_on_c, 1, 49, 127
1, 84429, Note_off_c, 1, 49, 0
1, 84432, Note_on_c, 1, 47, 127
1, 84477, Note_off_c, 1, 47, 0
1, 84480, Note_on_c, 1, 85, 127
1, 84480, Note_on_c, 1, 45, 127
1, 84525, Note_off_c, 1, 45, 0
1, 84569, Note_off_c, 1, 80, 0
1, 84576, Note_on_c, 1, 76, 127
1, 84665, Note_off_c, 1, 76, 0
1, 84720, Note_on_c, 1, 44, 127
1, 84765, Note_off_c, 1, 44, 0
1, 84768, Note_on_c, 1, 42, 127
1, 84813, Note_off_c, 1, 42, 0
1, 84816, Note_on_c, 1, 40, 127
1, 84861, Note_off_c, 1, 40, 0
1, 84864, Note_on_c, 1, 38, 127
1, 84953, Note_off_c, 1, 85, 0
1, 85041, Note_off_c, 1, 38, 0
1, 85152, Note_on_c, 1, 74, 127
1, 85197, Note_off_c, 1, 74, 0
1, 85200, Note_on_c, 1, 73, 127
1, 85245, Note_off_c, 1, 73, 0
1, 85344, Note_on_c, 1, 71, 127
1, 85389, Note_off_c, 1, 71, 0
1, 85392, Note_on_c, 1, 69, 127
1, 85437, Note_off_c, 1, 69, 0
1, 85440, Note_on_c, 1, 71, 127
1, 85440, Note_on_c, 1, 68, 127
1, 85440, Note_on_c, 1, 52, 127
1, 85485, Note_off_c, 1, 68, 0
1, 85485, Note_off_c, 1, 52, 0
1, 85488, Note_on_c, 1, 66, 127
1, 85488, Note_on_c, 1, 50, 127
1, 85533, Note_off_c, 1, 66, 0
1, 85533, Note_off_c, 1, 50, 0
1, 85536, Note_on_c, 1, 64, 127
1, 85536, Note_on_c, 1, 49, 127
1, 85581, Note_off_c, 1, 64, 0
1, 85581, Note_off_c, 1, 49, 0
1, 85584, Note_on_c, 1, 62, 127
1, 85584, Note_on_c, 1, 47, 127
1, 85629, Note_off_c, 1, 62, 0
1, 85629, Note_off_c, 1, 47, 0
1, 85721, Note_off_c, 1, 71, 0
1, 85728, Note_on_c, 1, 73, 127
1, 85773, Note_off_c, 1, 73, 0
1, 85776, Note_on_c, 1, 74, 127
1, 85821, Note_off_c, 1, 74, 0
1, 85920, Note_on_c, 1, 69, 127
1, 85920, Note_on_c, 1, 61, 127
1, 85965, Note_off_c, 1, 69, 0
1, 85965, Note_off_c, 1, 61, 0
1, 85968, Note_on_c, 1, 59, 127
1, 86013, Note_off_c, 1, 59, 0
1, 86016, Note_on_c, 1, 69, 127
1, 86016, Note_on_c, 1, 57, 127
1, 86016, Note_on_c, 1, 49, 127
1, 86105, Note_off_c, 1, 57, 0
1, 86105, Note_off_c, 1, 49, 0
1, 86112, Note_on_c, 1, 50, 127
1, 86157, Note_off_c, 1, 50, 0
1, 86160, Note_on_c, 1, 52, 127
1, 86205, Note_off_c, 1, 52, 0
1, 86208, Note_on_c, 1, 64, 127
1, 86289, Note_off_c, 1, 69, 0
1, 86297, Note_off_c, 1, 64, 0
1, 86304, Note_on_c, 1, 69, 127
1, 86304, Note_on_c, 1, 64, 127
1, 86304, Note_on_c, 1, 47, 127
1, 86349, Note_off_c, 1, 47, 0
1, 86352, Note_on_c, 1, 45, 127
1, 86393, Note_off_c, 1, 69, 0
1, 86397, Note_off_c, 1, 45, 0
1, 86400, Note_on_c, 1, 71, 127
1, 86400, Note_on_c, 1, 52, 127
1, 86445, Note_off_c, 1, 71, 0
1, 86489, Note_off_c, 1, 64, 0
1, 86496, Note_on_c, 1, 68, 127
1, 86541, Note_off_c, 1, 68, 0
1, 86544, Note_on_c, 1, 66, 127
1, 86577, Note_off_c, 1, 52, 0
1, 86589, Note_off_c, 1, 66, 0
1, 86592, Note_on_c, 1, 64, 127
1, 86592, Note_on_c, 1, 71, 127
1, 86592, Note_on_c, 1, 40, 127
1, 86637, Note_off_c, 1, 71, 0
1, 86640, Note_on_c, 1, 69, 127
1, 86681, Note_off_c, 1, 40, 0
1, 86685, Note_off_c, 1, 69, 0
1, 86688, Note_on_c, 1, 68, 127
1, 86688, Note_on_c, 1, 44, 127
1, 86733, Note_off_c, 1, 68, 0
1, 86736, Note_on_c, 1, 66, 127
1, 86769, Note_off_c, 1, 64, 0
1, 86777, Note_off_c, 1, 44, 0
1, 86781, Note_off_c, 1, 66, 0
1, 86784, Note_on_c, 1, 73, 127
1, 86784, Note_on_c, 1, 64, 127
1, 86784, Note_on_c, 1, 45, 127
1, 86808, Note_off_c, 1, 73, 0
1, 86808, Note_on_c, 1, 74, 127
1, 86832, Note_off_c, 1, 74, 0
1, 86873, Note_off_c, 1, 64, 0
1, 86873, Note_off_c, 1, 45, 0
1, 86880, Note_on_c, 1, 74, 127
1, 86880, Note_on_c, 1, 69, 127
1, 86880, Note_on_c, 1, 45, 127
1, 86903, Note_off_c, 1, 45, 0
1, 86904, Note_on_c, 1, 47, 127
1, 86925, Note_off_c, 1, 74, 0
1, 86927, Note_off_c, 1, 47, 0
1, 86928, Note_on_c, 1, 76, 127
1, 86928, Note_on_c, 1, 49, 127
1, 86973, Note_off_c, 1, 76, 0
1, 86973, Note_off_c, 1, 49, 0
1, 87024, Note_on_c, 1, 73, 127
1, 87057, Note_off_c, 1, 69, 0
1, 87069, Note_off_c, 1, 73, 0
1, 87072, Note_on_c, 1, 71, 127
1, 87072, Note_on_c, 1, 68, 127
1, 87072, Note_on_c, 1, 47, 127
1, 87095, Note_off_c, 1, 47, 0
1, 87096, Note_on_c, 1, 49, 127
1, 87117, Note_off_c, 1, 71, 0
1, 87119, Note_off_c, 1, 49, 0
1, 87120, Note_on_c, 1, 69, 127
1, 87120, Note_on_c, 1, 50, 127
1, 87161, Note_off_c, 1, 68, 0
1, 87165, Note_off_c, 1, 69, 0
1, 87165, Note_off_c, 1, 50, 0
1, 87168, Note_on_c, 1, 76, 127
1, 87168, Note_on_c, 1, 69, 127
1, 87168, Note_on_c, 1, 49, 127
1, 87213, Note_off_c, 1, 76, 0
1, 87216, Note_on_c, 1, 74, 127
1, 87257, Note_off_c, 1, 69, 0
1, 87261, Note_off_c, 1, 74, 0
1, 87264, Note_on_c, 1, 73, 127
1, 87309, Note_off_c, 1, 73, 0
1, 87312, Note_on_c, 1, 71, 127
1, 87345, Note_off_c, 1, 49, 0
1, 87357, Note_off_c, 1, 71, 0
1, 87360, Note_on_c, 1, 69, 127
1, 87360, Note_on_c, 1, 73, 127
1, 87405, Note_off_c, 1, 73, 0
1, 87408, Note_on_c, 1, 71, 127
1, 87449, Note_off_c, 1, 69, 0
1, 87453, Note_off_c, 1, 71, 0
1, 87456, Note_on_c, 1, 78, 127
1, 87456, Note_on_c, 1, 69, 127
1, 87456, Note_on_c, 1, 50, 127
1, 87501, Note_off_c, 1, 69, 0
1, 87504, Note_on_c, 1, 68, 127
1, 87545, Note_off_c, 1, 78, 0
1, 87545, Note_off_c, 1, 50, 0
1, 87549, Note_off_c, 1, 68, 0
1, 87552, Note_on_c, 1, 73, 127
1, 87552, Note_on_c, 1, 69, 127
1, 87552, Note_on_c, 1, 52, 127
1, 87641, Note_off_c, 1, 52, 0
1, 87648, Note_on_c, 1, 50, 127
1, 87685, Note_off_c, 1, 73, 0
1, 87685, Note_off_c, 1, 69, 0
1, 87696, Note_on_c, 1, 74, 127
1, 87696, Note_on_c, 1, 71, 127
1, 87737, Note_off_c, 1, 50, 0
1, 87741, Note_off_c, 1, 74, 0
1, 87741, Note_off_c, 1, 71, 0
1, 87744, Note_on_c, 1, 71, 127
1, 87744, Note_on_c, 1, 68, 127
1, 87744, Note_on_c, 1, 52, 127
1, 87833, Note_off_c, 1, 52, 0
1, 87840, Note_on_c, 1, 40, 127
1, 87877, Note_off_c, 1, 71, 0
1, 87877, Note_off_c, 1, 68, 0
1, 87888, Note_on_c, 1, 69, 127
1, 87929, Note_off_c, 1, 40, 0
1, 87933, Note_off_c, 1, 69, 0
1, 87936, Note_on_c, 1, 69, 127
1, 87936, Note_on_c, 1, 45, 127
1, 88290, Note_off_c, 1, 69, 0
1, 88290, Note_off_c, 1, 45, 0
1, 88290, End_track
0, 0, End_of_file