0, 0, Header, 1, 1, 480
1, 0, Start_track
1, 0, Title_t, "Test"
1, 0, Tempo, 500000
1, 0, Instrument_name_t, "Church Organ"
1, 0, Note_on_c, 1, 63, 127
1, 0, Note_on_c, 1, 51, 127
1, 30, Note_off_c, 1, 63, 0
1, 32, Note_on_c, 1, 58, 127
1, 62, Note_off_c, 1, 58, 0
1, 64, Note_on_c, 1, 67, 127
1, 89, Note_off_c, 1, 51, 0
1, 94, Note_off_c, 1, 67, 0
1, 96, Note_on_c, 1, 58, 127
1, 96, Note_on_c, 1, 63, 127
1, 126, Note_off_c, 1, 63, 0
1, 160, Note_on_c, 1, 67, 127
1, 185, Note_off_c, 1, 58, 0
1, 190, Note_off_c, 1, 67, 0
1, 192, Note_on_c, 1, 63, 127
1, 224, Note_on_c, 1, 58, 127
1, 254, Note_off_c, 1, 58, 0
1, 256, Note_on_c, 1, 67, 127
1, 286, Note_off_c, 1, 67, 0
1, 288, Note_on_c, 1, 65, 127
1, 288, Note_on_c, 1, 46, 127
1, 318, Note_off_c, 1, 65, 0
1, 352, Note_on_c, 1, 68, 127
1, 360, Note_off_c, 1, 63, 0
1, 360, Note_on_c, 1, 60, 127
1, 377, Note_off_c, 1, 46, 0
1, 382, Note_off_c, 1, 68, 0
1, 383, Note_off_c, 1, 60, 0
1, 384, Note_on_c, 1, 62, 127
1, 384, Note_on_c, 1, 65, 127
1, 414, Note_off_c, 1, 65, 0
1, 448, Note_on_c, 1, 70, 127
1, 456, Note_off_c, 1, 62, 0
1, 478, Note_off_c, 1, 70, 0
1, 480, Note_on_c, 1, 68, 127
1, 480, Note_on_c, 1, 65, 127
1, 510, Note_off_c, 1, 65, 0
1, 512, Note_on_c, 1, 62, 127
1, 542, Note_off_c, 1, 62, 0
1, 544, Note_on_c, 1, 72, 127
1, 574, Note_off_c, 1, 72, 0
1, 576, Note_on_c, 1, 70, 127
1, 576, Note_on_c, 1, 39, 127
1, 606, Note_off_c, 1, 70, 0
1, 608, Note_on_c, 1, 75, 127
1, 638, Note_off_c, 1, 75, 0
1, 665, Note_off_c, 1, 39, 0
1, 670, Note_off_c, 1, 68, 0
1, 672, Note_on_c, 1, 67, 127
1, 672, Note_on_c, 1, 70, 127
1, 672, Note_on_c, 1, 51, 127
1, 702, Note_off_c, 1, 70, 0
1, 704, Note_on_c, 1, 75, 127
1, 734, Note_off_c, 1, 75, 0
1, 761, Note_off_c, 1, 51, 0
1, 766, Note_off_c, 1, 67, 0
1, 768, Note_on_c, 1, 72, 127
1, 768, Note_on_c, 1, 65, 127
1, 768, Note_on_c, 1, 44, 127
1, 798, Note_off_c, 1, 65, 0
1, 800, Note_on_c, 1, 68, 127
1, 830, Note_off_c, 1, 68, 0
1, 857, Note_off_c, 1, 44, 0
1, 864, Note_on_c, 1, 62, 127
1, 864, Note_on_c, 1, 46, 127
1, 872, Note_off_c, 1, 62, 0
1, 872, Note_on_c, 1, 63, 127
1, 880, Note_off_c, 1, 63, 0
1, 894, Note_off_c, 1, 72, 0
1, 953, Note_off_c, 1, 46, 0
1, 960, Note_on_c, 1, 58, 127
1, 1049, Note_off_c, 1, 58, 0
1, 1056, Note_on_c, 1, 58, 127
1, 1056, Note_on_c, 1, 50, 127
1, 1086, Note_off_c, 1, 58, 0
1, 1088, Note_on_c, 1, 62, 127
1, 1101, Note_off_c, 1, 50, 0
1, 1104, Note_on_c, 1, 46, 127
1, 1118, Note_off_c, 1, 62, 0
1, 1120, Note_on_c, 1, 56, 127
1, 1149, Note_off_c, 1, 46, 0
1, 1150, Note_off_c, 1, 56, 0
1, 1152, Note_on_c, 1, 55, 127
1, 1152, Note_on_c, 1, 51, 127
1, 1182, Note_off_c, 1, 55, 0
1, 1184, Note_on_c, 1, 58, 127
1, 1214, Note_off_c, 1, 58, 0
1, 1216, Note_on_c, 1, 62, 127
1, 1241, Note_off_c, 1, 51, 0
1, 1246, Note_off_c, 1, 62, 0
1, 1248, Note_on_c, 1, 58, 127
1, 1248, Note_on_c, 1, 63, 127
1, 1278, Note_off_c, 1, 63, 0
1, 1312, Note_on_c, 1, 67, 127
1, 1337, Note_off_c, 1, 58, 0
1, 1342, Note_off_c, 1, 67, 0
1, 1344, Note_on_c, 1, 63, 127
1, 1376, Note_on_c, 1, 58, 127
1, 1406, Note_off_c, 1, 58, 0
1, 1408, Note_on_c, 1, 67, 127
1, 1438, Note_off_c, 1, 67, 0
1, 1440, Note_on_c, 1, 65, 127
1, 1440, Note_on_c, 1, 46, 127
1, 1470, Note_off_c, 1, 65, 0
1, 1504, Note_on_c, 1, 68, 127
1, 1512, Note_off_c, 1, 63, 0
1, 1512, Note_on_c, 1, 60, 127
1, 1529, Note_off_c, 1, 46, 0
1, 1534, Note_off_c, 1, 68, 0
1, 1535, Note_off_c, 1, 60, 0
1, 1536, Note_on_c, 1, 62, 127
1, 1536, Note_on_c, 1, 65, 127
1, 1566, Note_off_c, 1, 65, 0
1, 1600, Note_on_c, 1, 70, 127
1, 1608, Note_off_c, 1, 62, 0
1, 1630, Note_off_c, 1, 70, 0
1, 1632, Note_on_c, 1, 68, 127
1, 1632, Note_on_c, 1, 65, 127
1, 1662, Note_off_c, 1, 65, 0
1, 1664, Note_on_c, 1, 62, 127
1, 1694, Note_off_c, 1, 62, 0
1, 1696, Note_on_c, 1, 72, 127
1, 1726, Note_off_c, 1, 72, 0
1, 1728, Note_on_c, 1, 70, 127
1, 1728, Note_on_c, 1, 39, 127
1, 1758, Note_off_c, 1, 70, 0
1, 1760, Note_on_c, 1, 75, 127
1, 1790, Note_off_c, 1, 75, 0
1, 1817, Note_off_c, 1, 39, 0
1, 1822, Note_off_c, 1, 68, 0
1, 1824, Note_on_c, 1, 67, 127
1, 1824, Note_on_c, 1, 70, 127
1, 1824, Note_on_c, 1, 51, 127
1, 1854, Note_off_c, 1, 70, 0
1, 1856, Note_on_c, 1, 75, 127
1, 1886, Note_off_c, 1, 75, 0
1, 1913, Note_off_c, 1, 51, 0
1, 1918, Note_off_c, 1, 67, 0
1, 1920, Note_on_c, 1, 72, 127
1, 1920, Note_on_c, 1, 65, 127
1, 1920, Note_on_c, 1, 44, 127
1, 1950, Note_off_c, 1, 65, 0
1, 1952, Note_on_c, 1, 68, 127
1, 1982, Note_off_c, 1, 68, 0
1, 2009, Note_off_c, 1, 44, 0
1, 2016, Note_on_c, 1, 62, 127
1, 2016, Note_on_c, 1, 46, 127
1, 2024, Note_off_c, 1, 62, 0
1, 2024, Note_on_c, 1, 63, 127
1, 2032, Note_off_c, 1, 63, 0
1, 2046, Note_off_c, 1, 72, 0
1, 2105, Note_off_c, 1, 46, 0
1, 2112, Note_on_c, 1, 58, 127
1, 2201, Note_off_c, 1, 58, 0
1, 2208, Note_on_c, 1, 58, 127
1, 2208, Note_on_c, 1, 50, 127
1, 2238, Note_off_c, 1, 58, 0
1, 2240, Note_on_c, 1, 62, 127
1, 2253, Note_off_c, 1, 50, 0
1, 2256, Note_on_c, 1, 46, 127
1, 2270, Note_off_c, 1, 62, 0
1, 2272, Note_on_c, 1, 65, 127
1, 2301, Note_off_c, 1, 46, 0
1, 2302, Note_off_c, 1, 65, 0
1, 2304, Note_on_c, 1, 70, 127
1, 2304, Note_on_c, 1, 43, 127
1, 2334, Note_off_c, 1, 70, 0
1, 2336, Note_on_c, 1, 67, 127
1, 2366, Note_off_c, 1, 67, 0
1, 2368, Note_on_c, 1, 75, 127
1, 2393, Note_off_c, 1, 43, 0
1, 2398, Note_off_c, 1, 75, 0
1, 2400, Note_on_c, 1, 63, 127
1, 2400, Note_on_c, 1, 70, 127
1, 2430, Note_off_c, 1, 70, 0
1, 2432, Note_on_c, 1, 67, 127
1, 2462, Note_off_c, 1, 67, 0
1, 2464, Note_on_c, 1, 75, 127
1, 2489, Note_off_c, 1, 63, 0
1, 2494, Note_off_c, 1, 75, 0
1, 2496, Note_on_c, 1, 73, 127
1, 2496, Note_on_c, 1, 70, 127
1, 2526, Note_off_c, 1, 70, 0
1, 2528, Note_on_c, 1, 67, 127
1, 2558, Note_off_c, 1, 67, 0
1, 2592, Note_on_c, 1, 44, 127
1, 2686, Note_off_c, 1, 73, 0
1, 2688, Note_on_c, 1, 72, 127
1, 2720, Note_on_c, 1, 77, 127
1, 2725, Note_off_c, 1, 44, 0
1, 2736, Note_on_c, 1, 46, 127
1, 2750, Note_off_c, 1, 77, 0
1, 2752, Note_on_c, 1, 68, 127
1, 2760, Note_off_c, 1, 72, 0
1, 2760, Note_on_c, 1, 62, 127
1, 2781, Note_off_c, 1, 46, 0
1, 2782, Note_off_c, 1, 68, 0
1, 2783, Note_off_c, 1, 62, 0
1, 2784, Note_on_c, 1, 63, 127
1, 2784, Note_on_c, 1, 67, 127
1, 2784, Note_on_c, 1, 48, 127
1, 2814, Note_off_c, 1, 67, 0
1, 2829, Note_off_c, 1, 48, 0
1, 2832, Note_on_c, 1, 43, 127
1, 2848, Note_on_c, 1, 70, 127
1, 2873, Note_off_c, 1, 63, 0
1, 2877, Note_off_c, 1, 43, 0
1, 2878, Note_off_c, 1, 70, 0
1, 2880, Note_on_c, 1, 63, 127
1, 2880, Note_on_c, 1, 72, 127
1, 2880, Note_on_c, 1, 44, 127
1, 2910, Note_off_c, 1, 72, 0
1, 2912, Note_on_c, 1, 74, 127
1, 2925, Note_off_c, 1, 63, 0
1, 2925, Note_off_c, 1, 44, 0
1, 2928, Note_on_c, 1, 68, 127
1, 2928, Note_on_c, 1, 41, 127
1, 2942, Note_off_c, 1, 74, 0
1, 2944, Note_on_c, 1, 75, 127
1, 2973, Note_off_c, 1, 68, 0
1, 2973, Note_off_c, 1, 41, 0
1, 2976, Note_on_c, 1, 65, 127
1, 2976, Note_on_c, 1, 46, 127
1, 3006, Note_off_c, 1, 75, 0
1, 3040, Note_on_c, 1, 77, 127
1, 3065, Note_off_c, 1, 46, 0
1, 3070, Note_off_c, 1, 77, 0
1, 3072, Note_on_c, 1, 70, 127
1, 3072, Note_on_c, 1, 58, 127
1, 3102, Note_off_c, 1, 70, 0
1, 3120, Note_off_c, 1, 65, 0
1, 3161, Note_off_c, 1, 58, 0
1, 3168, Note_on_c, 1, 63, 127
1, 3168, Note_on_c, 1, 67, 127
1, 3168, Note_on_c, 1, 60, 127
1, 3198, Note_off_c, 1, 67, 0
1, 3232, Note_on_c, 1, 65, 127
1, 3257, Note_off_c, 1, 60, 0
1, 3262, Note_off_c, 1, 65, 0
1, 3296, Note_on_c, 1, 68, 127
1, 3312, Note_on_c, 1, 48, 127
1, 3326, Note_off_c, 1, 68, 0
1, 3328, Note_on_c, 1, 70, 127
1, 3345, Note_off_c, 1, 63, 0
1, 3357, Note_off_c, 1, 48, 0
1, 3358, Note_off_c, 1, 70, 0
1, 3360, Note_on_c, 1, 72, 127
1, 3360, Note_on_c, 1, 46, 127
1, 3390, Note_off_c, 1, 72, 0
1, 3392, Note_on_c, 1, 75, 127
1, 3405, Note_off_c, 1, 46, 0
1, 3408, Note_on_c, 1, 44, 127
1, 3422, Note_off_c, 1, 75, 0
1, 3424, Note_on_c, 1, 74, 127
1, 3453, Note_off_c, 1, 44, 0
1, 3454, Note_off_c, 1, 74, 0
1, 3456, Note_on_c, 1, 75, 127
1, 3456, Note_on_c, 1, 43, 127
1, 3486, Note_off_c, 1, 75, 0
1, 3488, Note_on_c, 1, 63, 127
1, 3518, Note_off_c, 1, 63, 0
1, 3520, Note_on_c, 1, 67, 127
1, 3545, Note_off_c, 1, 43, 0
1, 3550, Note_off_c, 1, 67, 0
1, 3552, Note_on_c, 1, 70, 127
1, 3584, Note_on_c, 1, 67, 127
1, 3614, Note_off_c, 1, 67, 0
1, 3616, Note_on_c, 1, 75, 127
1, 3641, Note_off_c, 1, 70, 0
1, 3646, Note_off_c, 1, 75, 0
1, 3648, Note_on_c, 1, 61, 127
1, 3648, Note_on_c, 1, 70, 127
1, 3678, Note_off_c, 1, 70, 0
1, 3680, Note_on_c, 1, 67, 127
1, 3710, Note_off_c, 1, 67, 0
1, 3712, Note_on_c, 1, 75, 127
1, 3742, Note_off_c, 1, 75, 0
1, 3744, Note_on_c, 1, 63, 127
1, 3744, Note_on_c, 1, 43, 127
1, 3774, Note_off_c, 1, 63, 0
1, 3808, Note_on_c, 1, 68, 127
1, 3816, Note_off_c, 1, 61, 0
1, 3816, Note_on_c, 1, 60, 127
1, 3838, Note_off_c, 1, 68, 0
1, 3839, Note_off_c, 1, 60, 0
1, 3840, Note_on_c, 1, 65, 127
1, 3840, Note_on_c, 1, 72, 127
1, 3870, Note_off_c, 1, 72, 0
1, 3877, Note_off_c, 1, 43, 0
1, 3888, Note_on_c, 1, 44, 127
1, 3912, Note_off_c, 1, 65, 0
1, 3912, Note_on_c, 1, 62, 127
1, 3933, Note_off_c, 1, 44, 0
1, 3935, Note_off_c, 1, 62, 0
1, 3936, Note_on_c, 1, 63, 127
1, 3936, Note_on_c, 1, 67, 127
1, 3936, Note_on_c, 1, 46, 127
1, 3966, Note_off_c, 1, 67, 0
1, 3968, Note_on_c, 1, 68, 127
1, 3981, Note_off_c, 1, 46, 0
1, 3984, Note_on_c, 1, 43, 127
1, 3998, Note_off_c, 1, 68, 0
1, 4000, Note_on_c, 1, 70, 127
1, 4029, Note_off_c, 1, 43, 0
1, 4030, Note_off_c, 1, 70, 0
1, 4032, Note_on_c, 1, 72, 127
1, 4032, Note_on_c, 1, 44, 127
1, 4062, Note_off_c, 1, 72, 0
1, 4064, Note_on_c, 1, 74, 127
1, 4077, Note_off_c, 1, 63, 0
1, 4080, Note_on_c, 1, 60, 127
1, 4094, Note_off_c, 1, 74, 0
1, 4096, Note_on_c, 1, 75, 127
1, 4121, Note_off_c, 1, 44, 0
1, 4125, Note_off_c, 1, 60, 0
1, 4126, Note_off_c, 1, 75, 0
1, 4128, Note_on_c, 1, 56, 127
1, 4128, Note_on_c, 1, 74, 127
1, 4128, Note_on_c, 1, 46, 127
1, 4158, Note_off_c, 1, 74, 0
1, 4160, Note_on_c, 1, 75, 127
1, 4190, Note_off_c, 1, 75, 0
1, 4192, Note_on_c, 1, 77, 127
1, 4217, Note_off_c, 1, 46, 0
1, 4222, Note_off_c, 1, 77, 0
1, 4224, Note_on_c, 1, 70, 127
1, 4254, Note_off_c, 1, 70, 0
1, 4261, Note_off_c, 1, 56, 0
1, 4272, Note_on_c, 1, 55, 127
1, 4317, Note_off_c, 1, 55, 0
1, 4320, Note_on_c, 1, 55, 127
1, 4320, Note_on_c, 1, 75, 127
1, 4320, Note_on_c, 1, 39, 127
1, 4350, Note_off_c, 1, 75, 0
1, 4352, Note_on_c, 1, 70, 127
1, 4382, Note_off_c, 1, 70, 0
1, 4384, Note_on_c, 1, 67, 127
1, 4409, Note_off_c, 1, 39, 0
1, 4414, Note_off_c, 1, 67, 0
1, 4416, Note_on_c, 1, 63, 127
1, 4446, Note_off_c, 1, 63, 0
1, 4464, Note_on_c, 1, 51, 127
1, 4497, Note_off_c, 1, 55, 0
1, 4509, Note_off_c, 1, 51, 0
1, 4512, Note_on_c, 1, 75, 127
1, 4512, Note_on_c, 1, 55, 127
1, 4542, Note_off_c, 1, 75, 0
1, 4544, Note_on_c, 1, 70, 127
1, 4557, Note_off_c, 1, 55, 0
1, 4560, Note_on_c, 1, 51, 127
1, 4574, Note_off_c, 1, 70, 0
1, 4576, Note_on_c, 1, 67, 127
1, 4605, Note_off_c, 1, 51, 0
1, 4606, Note_off_c, 1, 67, 0
1, 4608, Note_on_c, 1, 63, 127
1, 4608, Note_on_c, 1, 48, 127
1, 4638, Note_off_c, 1, 63, 0
1, 4640, Note_on_c, 1, 79, 127
1, 4670, Note_off_c, 1, 79, 0
1, 4672, Note_on_c, 1, 74, 127
1, 4697, Note_off_c, 1, 48, 0
1, 4702, Note_off_c, 1, 74, 0
1, 4704, Note_on_c, 1, 67, 127
1, 4704, Note_on_c, 1, 75, 127
1, 4734, Note_off_c, 1, 75, 0
1, 4736, Note_on_c, 1, 79, 127
1, 4766, Note_off_c, 1, 79, 0
1, 4768, Note_on_c, 1, 71, 127
1, 4793, Note_off_c, 1, 67, 0
1, 4798, Note_off_c, 1, 71, 0
1, 4800, Note_on_c, 1, 75, 127
1, 4800, Note_on_c, 1, 72, 127
1, 4830, Note_off_c, 1, 72, 0
1, 4864, Note_on_c, 1, 79, 127
1, 4894, Note_off_c, 1, 79, 0
1, 4896, Note_on_c, 1, 77, 127
1, 4896, Note_on_c, 1, 50, 127
1, 4926, Note_off_c, 1, 77, 0
1, 4928, Note_on_c, 1, 80, 127
1, 4958, Note_off_c, 1, 80, 0
1, 4985, Note_off_c, 1, 50, 0
1, 4990, Note_off_c, 1, 75, 0
1, 4992, Note_on_c, 1, 74, 127
1, 4992, Note_on_c, 1, 77, 127
1, 5022, Note_off_c, 1, 77, 0
1, 5024, Note_on_c, 1, 80, 127
1, 5054, Note_off_c, 1, 80, 0
1, 5056, Note_on_c, 1, 71, 127
1, 5064, Note_off_c, 1, 74, 0
1, 5087, Note_off_c, 1, 71, 0
1, 5088, Note_on_c, 1, 65, 127
1, 5088, Note_on_c, 1, 74, 127
1, 5118, Note_off_c, 1, 74, 0
1, 5120, Note_on_c, 1, 77, 127
1, 5150, Note_off_c, 1, 77, 0
1, 5152, Note_on_c, 1, 80, 127
1, 5182, Note_off_c, 1, 80, 0
1, 5184, Note_on_c, 1, 79, 127
1, 5184, Note_on_c, 1, 51, 127
1, 5214, Note_off_c, 1, 79, 0
1, 5216, Note_on_c, 1, 71, 127
1, 5246, Note_off_c, 1, 71, 0
1, 5248, Note_on_c, 1, 72, 127
1, 5256, Note_off_c, 1, 65, 0
1, 5256, Note_on_c, 1, 63, 127
1, 5273, Note_off_c, 1, 51, 0
1, 5278, Note_off_c, 1, 72, 0
1, 5279, Note_off_c, 1, 63, 0
1, 5280, Note_on_c, 1, 66, 127
1, 5280, Note_on_c, 1, 75, 127
1, 5280, Note_on_c, 1, 45, 127
1, 5310, Note_off_c, 1, 75, 0
1, 5312, Note_on_c, 1, 71, 127
1, 5342, Note_off_c, 1, 71, 0
1, 5344, Note_on_c, 1, 72, 127
1, 5352, Note_off_c, 1, 66, 0
1, 5352, Note_on_c, 1, 69, 127
1, 5369, Note_off_c, 1, 45, 0
1, 5374, Note_off_c, 1, 72, 0
1, 5375, Note_off_c, 1, 69, 0
1, 5376, Note_on_c, 1, 72, 127
1, 5376, Note_on_c, 1, 78, 127
1, 5376, Note_on_c, 1, 50, 127
1, 5406, Note_off_c, 1, 78, 0
1, 5408, Note_on_c, 1, 71, 127
1, 5438, Note_off_c, 1, 71, 0
1, 5465, Note_off_c, 1, 50, 0
1, 5472, Note_on_c, 1, 79, 127
1, 5472, Note_on_c, 1, 43, 127
1, 5502, Note_off_c, 1, 79, 0
1, 5504, Note_on_c, 1, 75, 127
1, 5534, Note_off_c, 1, 75, 0
1, 5544, Note_on_c, 1, 69, 127
1, 5561, Note_off_c, 1, 43, 0
1, 5566, Note_off_c, 1, 72, 0
1, 5567, Note_off_c, 1, 69, 0
1, 5568, Note_on_c, 1, 71, 127
1, 5568, Note_on_c, 1, 74, 127
1, 5598, Note_off_c, 1, 74, 0
1, 5600, Note_on_c, 1, 79, 127
1, 5616, Note_on_c, 1, 55, 127
1, 5630, Note_off_c, 1, 79, 0
1, 5661, Note_off_c, 1, 55, 0
1, 5662, Note_off_c, 1, 71, 0
1, 5664, Note_on_c, 1, 72, 127
1, 5664, Note_on_c, 1, 51, 127
1, 5694, Note_off_c, 1, 72, 0
1, 5696, Note_on_c, 1, 79, 127
1, 5709, Note_off_c, 1, 51, 0
1, 5712, Note_on_c, 1, 55, 127
1, 5726, Note_off_c, 1, 79, 0
1, 5728, Note_on_c, 1, 74, 127
1, 5757, Note_off_c, 1, 55, 0
1, 5758, Note_off_c, 1, 74, 0
1, 5760, Note_on_c, 1, 75, 127
1, 5760, Note_on_c, 1, 48, 127
1, 5790, Note_off_c, 1, 75, 0
1, 5792, Note_on_c, 1, 79, 127
1, 5822, Note_off_c, 1, 79, 0
1, 5824, Note_on_c, 1, 74, 127
1, 5849, Note_off_c, 1, 48, 0
1, 5854, Note_off_c, 1, 74, 0
1, 5856, Note_on_c, 1, 75, 127
1, 5888, Note_on_c, 1, 79, 127
1, 5918, Note_off_c, 1, 79, 0
1, 5920, Note_on_c, 1, 71, 127
1, 5945, Note_off_c, 1, 75, 0
1, 5950, Note_off_c, 1, 71, 0
1, 5952, Note_on_c, 1, 67, 127
1, 5952, Note_on_c, 1, 72, 127
1, 5982, Note_off_c, 1, 72, 0
1, 5984, Note_on_c, 1, 74, 127
1, 6014, Note_off_c, 1, 74, 0
1, 6016, Note_on_c, 1, 75, 127
1, 6048, Note_on_c, 1, 50, 127
1, 6078, Note_off_c, 1, 75, 0
1, 6080, Note_on_c, 1, 71, 127
1, 6110, Note_off_c, 1, 71, 0
1, 6120, Note_off_c, 1, 67, 0
1, 6120, Note_on_c, 1, 63, 127
1, 6137, Note_off_c, 1, 50, 0
1, 6143, Note_off_c, 1, 63, 0
1, 6144, Note_on_c, 1, 65, 127
1, 6144, Note_on_c, 1, 74, 127
1, 6174, Note_off_c, 1, 74, 0
1, 6176, Note_on_c, 1, 77, 127
1, 6206, Note_off_c, 1, 77, 0
1, 6208, Note_on_c, 1, 75, 127
1, 6216, Note_off_c, 1, 65, 0
1, 6216, Note_on_c, 1, 71, 127
1, 6238, Note_off_c, 1, 75, 0
1, 6239, Note_off_c, 1, 71, 0
1, 6240, Note_on_c, 1, 74, 127
1, 6240, Note_on_c, 1, 77, 127
1, 6270, Note_off_c, 1, 77, 0
1, 6272, Note_on_c, 1, 79, 127
1, 6302, Note_off_c, 1, 79, 0
1, 6304, Note_on_c, 1, 80, 127
1, 6329, Note_off_c, 1, 74, 0
1, 6336, Note_on_c, 1, 51, 127
1, 6366, Note_off_c, 1, 80, 0
1, 6408, Note_on_c, 1, 71, 127
1, 6425, Note_off_c, 1, 51, 0
1, 6431, Note_off_c, 1, 71, 0
1, 6432, Note_on_c, 1, 72, 127
1, 6432, Note_on_c, 1, 77, 127
1, 6432, Note_on_c, 1, 44, 127
1, 6462, Note_off_c, 1, 77, 0
1, 6464, Note_on_c, 1, 74, 127
1, 6494, Note_off_c, 1, 74, 0
1, 6496, Note_on_c, 1, 75, 127
1, 6499, Note_off_c, 1, 72, 0
1, 6504, Note_on_c, 1, 68, 127
1, 6521, Note_off_c, 1, 44, 0
1, 6526, Note_off_c, 1, 75, 0
1, 6527, Note_off_c, 1, 68, 0
1, 6528, Note_on_c, 1, 66, 127
1, 6528, Note_on_c, 1, 74, 127
1, 6528, Note_on_c, 1, 45, 127
1, 6558, Note_off_c, 1, 74, 0
1, 6560, Note_on_c, 1, 71, 127
1, 6590, Note_off_c, 1, 71, 0
1, 6592, Note_on_c, 1, 72, 127
1, 6595, Note_off_c, 1, 66, 0
1, 6600, Note_on_c, 1, 67, 127
1, 6617, Note_off_c, 1, 45, 0
1, 6622, Note_off_c, 1, 72, 0
1, 6623, Note_off_c, 1, 67, 0
1, 6624, Note_on_c, 1, 60, 127
1, 6624, Note_on_c, 1, 74, 127
1, 6624, Note_on_c, 1, 43, 127
1, 6654, Note_off_c, 1, 74, 0
1, 6656, Note_on_c, 1, 79, 127
1, 6686, Note_off_c, 1, 79, 0
1, 6688, Note_on_c, 1, 72, 127
1, 6691, Note_off_c, 1, 60, 0
1, 6696, Note_on_c, 1, 57, 127
1, 6713, Note_off_c, 1, 43, 0
1, 6718, Note_off_c, 1, 72, 0
1, 6719, Note_off_c, 1, 57, 0
1, 6720, Note_on_c, 1, 59, 127
1, 6720, Note_on_c, 1, 74, 127
1, 6750, Note_off_c, 1, 74, 0
1, 6752, Note_on_c, 1, 79, 127
1, 6768, Note_on_c, 1, 55, 127
1, 6782, Note_off_c, 1, 79, 0
1, 6809, Note_off_c, 1, 59, 0
1, 6813, Note_off_c, 1, 55, 0
1, 6816, Note_on_c, 1, 71, 127
1, 6816, Note_on_c, 1, 50, 127
1, 6846, Note_off_c, 1, 71, 0
1, 6848, Note_on_c, 1, 74, 127
1, 6861, Note_off_c, 1, 50, 0
1, 6864, Note_on_c, 1, 53, 127
1, 6878, Note_off_c, 1, 74, 0
1, 6880, Note_on_c, 1, 67, 127
1, 6909, Note_off_c, 1, 53, 0
1, 6910, Note_off_c, 1, 67, 0
1, 6912, Note_on_c, 1, 72, 127
1, 6912, Note_on_c, 1, 52, 127
1, 6942, Note_off_c, 1, 72, 0
1, 6944, Note_on_c, 1, 67, 127
1, 6974, Note_off_c, 1, 67, 0
1, 6976, Note_on_c, 1, 68, 127
1, 7001, Note_off_c, 1, 52, 0
1, 7006, Note_off_c, 1, 68, 0
1, 7008, Note_on_c, 1, 67, 127
1, 7008, Note_on_c, 1, 70, 127
1, 7038, Note_off_c, 1, 70, 0
1, 7040, Note_on_c, 1, 72, 127
1, 7070, Note_off_c, 1, 72, 0
1, 7072, Note_on_c, 1, 73, 127
1, 7080, Note_off_c, 1, 67, 0
1, 7080, Note_on_c, 1, 68, 127
1, 7103, Note_off_c, 1, 68, 0
1, 7134, Note_off_c, 1, 73, 0
1, 7200, Note_on_c, 1, 64, 127
1, 7200, Note_on_c, 1, 44, 127
1, 7230, Note_off_c, 1, 64, 0
1, 7289, Note_off_c, 1, 44, 0
1, 7296, Note_on_c, 1, 73, 127
1, 7296, Note_on_c, 1, 70, 127
1, 7326, Note_off_c, 1, 70, 0
1, 7328, Note_on_c, 1, 68, 127
1, 7358, Note_off_c, 1, 68, 0
1, 7360, Note_on_c, 1, 67, 127
1, 7368, Note_off_c, 1, 73, 0
1, 7390, Note_off_c, 1, 67, 0
1, 7392, Note_on_c, 1, 72, 127
1, 7392, Note_on_c, 1, 65, 127
1, 7422, Note_off_c, 1, 65, 0
1, 7424, Note_on_c, 1, 67, 127
1, 7454, Note_off_c, 1, 67, 0
1, 7456, Note_on_c, 1, 64, 127
1, 7486, Note_off_c, 1, 64, 0
1, 7488, Note_on_c, 1, 49, 127
1, 7552, Note_on_c, 1, 68, 127
1, 7560, Note_off_c, 1, 72, 0
1, 7560, Note_on_c, 1, 77, 127
1, 7577, Note_off_c, 1, 49, 0
1, 7582, Note_off_c, 1, 68, 0
1, 7583, Note_off_c, 1, 77, 0
1, 7584, Note_on_c, 1, 73, 127
1, 7584, Note_on_c, 1, 70, 127
1, 7584, Note_on_c, 1, 46, 127
1, 7614, Note_off_c, 1, 70, 0
1, 7616, Note_on_c, 1, 76, 127
1, 7646, Note_off_c, 1, 76, 0
1, 7648, Note_on_c, 1, 77, 127
1, 7656, Note_off_c, 1, 73, 0
1, 7656, Note_on_c, 1, 72, 127
1, 7673, Note_off_c, 1, 46, 0
1, 7678, Note_off_c, 1, 77, 0
1, 7679, Note_off_c, 1, 72, 0
1, 7680, Note_on_c, 1, 70, 127
1, 7680, Note_on_c, 1, 67, 127
1, 7680, Note_on_c, 1, 48, 127
1, 7710, Note_off_c, 1, 67, 0
1, 7712, Note_on_c, 1, 73, 127
1, 7742, Note_off_c, 1, 73, 0
1, 7744, Note_on_c, 1, 72, 127
1, 7752, Note_off_c, 1, 70, 0
1, 7752, Note_on_c, 1, 68, 127
1, 7769, Note_off_c, 1, 48, 0
1, 7774, Note_off_c, 1, 72, 0
1, 7775, Note_off_c, 1, 68, 0
1, 7776, Note_on_c, 1, 67, 127
1, 7776, Note_on_c, 1, 70, 127
1, 7776, Note_on_c, 1, 37, 127
1, 7784, Note_off_c, 1, 67, 0
1, 7784, Note_on_c, 1, 65, 127
1, 7806, Note_off_c, 1, 70, 0
1, 7840, Note_on_c, 1, 68, 127
1, 7865, Note_off_c, 1, 37, 0
1, 7870, Note_off_c, 1, 68, 0
1, 7904, Note_on_c, 1, 77, 127
1, 7920, Note_on_c, 1, 49, 127
1, 7934, Note_off_c, 1, 77, 0
1, 7936, Note_on_c, 1, 76, 127
1, 7955, Note_off_c, 1, 65, 0
1, 7965, Note_off_c, 1, 49, 0
1, 7966, Note_off_c, 1, 76, 0
1, 7968, Note_on_c, 1, 77, 127
1, 7968, Note_on_c, 1, 48, 127
1, 7998, Note_off_c, 1, 77, 0
1, 8000, Note_on_c, 1, 80, 127
1, 8013, Note_off_c, 1, 48, 0
1, 8016, Note_on_c, 1, 46, 127
1, 8030, Note_off_c, 1, 80, 0
1, 8032, Note_on_c, 1, 79, 127
1, 8061, Note_off_c, 1, 46, 0
1, 8062, Note_off_c, 1, 79, 0
1, 8064, Note_on_c, 1, 80, 127
1, 8064, Note_on_c, 1, 53, 127
1, 8094, Note_off_c, 1, 80, 0
1, 8096, Note_on_c, 1, 76, 127
1, 8126, Note_off_c, 1, 76, 0
1, 8128, Note_on_c, 1, 77, 127
1, 8153, Note_off_c, 1, 53, 0
1, 8158, Note_off_c, 1, 77, 0
1, 8160, Note_on_c, 1, 68, 127
1, 8160, Note_on_c, 1, 73, 127
1, 8190, Note_off_c, 1, 73, 0
1, 8192, Note_on_c, 1, 76, 127
1, 8222, Note_off_c, 1, 76, 0
1, 8224, Note_on_c, 1, 77, 127
1, 8227, Note_off_c, 1, 68, 0
1, 8232, Note_on_c, 1, 65, 127
1, 8254, Note_off_c, 1, 77, 0
1, 8255, Note_off_c, 1, 65, 0
1, 8256, Note_on_c, 1, 61, 127
1, 8256, Note_on_c, 1, 80, 127
1, 8286, Note_off_c, 1, 80, 0
1, 8288, Note_on_c, 1, 76, 127
1, 8318, Note_off_c, 1, 76, 0
1, 8320, Note_on_c, 1, 77, 127
1, 8350, Note_off_c, 1, 77, 0
1, 8352, Note_on_c, 1, 70, 127
1, 8352, Note_on_c, 1, 43, 127
1, 8382, Note_off_c, 1, 70, 0
1, 8416, Note_on_c, 1, 79, 127
1, 8424, Note_off_c, 1, 61, 0
1, 8424, Note_on_c, 1, 59, 127
1, 8441, Note_off_c, 1, 43, 0
1, 8446, Note_off_c, 1, 79, 0
1, 8447, Note_off_c, 1, 59, 0
1, 8448, Note_on_c, 1, 60, 127
1, 8448, Note_on_c, 1, 77, 127
1, 8478, Note_off_c, 1, 77, 0
1, 8480, Note_on_c, 1, 76, 127
1, 8510, Note_off_c, 1, 76, 0
1, 8512, Note_on_c, 1, 73, 127
1, 8520, Note_off_c, 1, 60, 0
1, 8520, Note_on_c, 1, 64, 127
1, 8542, Note_off_c, 1, 73, 0
1, 8543, Note_off_c, 1, 64, 0
1, 8544, Note_on_c, 1, 65, 127
1, 8544, Note_on_c, 1, 72, 127
1, 8544, Note_on_c, 1, 44, 127
1, 8574, Note_off_c, 1, 72, 0
1, 8576, Note_on_c, 1, 70, 127
1, 8606, Note_off_c, 1, 70, 0
1, 8608, Note_on_c, 1, 68, 127
1, 8633, Note_off_c, 1, 44, 0
1, 8638, Note_off_c, 1, 68, 0
1, 8640, Note_on_c, 1, 67, 127
1, 8640, Note_on_c, 1, 46, 127
1, 8670, Note_off_c, 1, 67, 0
1, 8672, Note_on_c, 1, 79, 127
1, 8702, Note_off_c, 1, 79, 0
1, 8704, Note_on_c, 1, 77, 127
1, 8712, Note_off_c, 1, 65, 0
1, 8729, Note_off_c, 1, 46, 0
1, 8734, Note_off_c, 1, 77, 0
1, 8736, Note_on_c, 1, 67, 127
1, 8736, Note_on_c, 1, 76, 127
1, 8736, Note_on_c, 1, 48, 127
1, 8766, Note_off_c, 1, 76, 0
1, 8768, Note_on_c, 1, 79, 127
1, 8798, Note_off_c, 1, 79, 0
1, 8800, Note_on_c, 1, 72, 127
1, 8825, Note_off_c, 1, 48, 0
1, 8830, Note_off_c, 1, 72, 0
1, 8832, Note_on_c, 1, 73, 127
1, 8832, Note_on_c, 1, 36, 127
1, 8862, Note_off_c, 1, 73, 0
1, 8869, Note_off_c, 1, 67, 0
1, 8880, Note_on_c, 1, 65, 127
1, 8896, Note_on_c, 1, 70, 127
1, 8921, Note_off_c, 1, 36, 0
1, 8925, Note_off_c, 1, 65, 0
1, 8926, Note_off_c, 1, 70, 0
1, 8928, Note_on_c, 1, 65, 127
1, 8928, Note_on_c, 1, 68, 127
1, 8928, Note_on_c, 1, 41, 127
1, 8958, Note_off_c, 1, 68, 0
1, 8960, Note_on_c, 1, 77, 127
1, 8990, Note_off_c, 1, 77, 0
1, 8992, Note_on_c, 1, 72, 127
1, 9017, Note_off_c, 1, 41, 0
1, 9022, Note_off_c, 1, 72, 0
1, 9105, Note_off_c, 1, 65, 0
1, 9120, Note_on_c, 1, 65, 127
1, 9120, Note_on_c, 1, 44, 127
1, 9150, Note_off_c, 1, 65, 0
1, 9152, Note_on_c, 1, 68, 127
1, 9165, Note_off_c, 1, 44, 0
1, 9168, Note_on_c, 1, 48, 127
1, 9182, Note_off_c, 1, 68, 0
1, 9184, Note_on_c, 1, 67, 127
1, 9213, Note_off_c, 1, 48, 0
1, 9214, Note_off_c, 1, 67, 0
1, 9216, Note_on_c, 1, 68, 127
1, 9216, Note_on_c, 1, 53, 127
1, 9246, Note_off_c, 1, 68, 0
1, 9248, Note_on_c, 1, 72, 127
1, 9278, Note_off_c, 1, 72, 0
1, 9305, Note_off_c, 1, 53, 0
1, 9312, Note_on_c, 1, 68, 127
1, 9312, Note_on_c, 1, 65, 127
1, 9342, Note_off_c, 1, 65, 0
1, 9344, Note_on_c, 1, 60, 127
1, 9374, Note_off_c, 1, 60, 0
1, 9376, Note_on_c, 1, 67, 127
1, 9384, Note_off_c, 1, 68, 0
1, 9384, Note_on_c, 1, 70, 127
1, 9406, Note_off_c, 1, 67, 0
1, 9407, Note_off_c, 1, 70, 0
1, 9408, Note_on_c, 1, 72, 127
1, 9408, Note_on_c, 1, 68, 127
1, 9408, Note_on_c, 1, 51, 127
1, 9438, Note_off_c, 1, 68, 0
1, 9440, Note_on_c, 1, 65, 127
1, 9470, Note_off_c, 1, 65, 0
1, 9497, Note_off_c, 1, 51, 0
1, 9504, Note_on_c, 1, 77, 127
1, 9504, Note_on_c, 1, 50, 127
1, 9534, Note_off_c, 1, 77, 0
1, 9536, Note_on_c, 1, 80, 127
1, 9566, Note_off_c, 1, 80, 0
1, 9593, Note_off_c, 1, 72, 0
1, 9593, Note_off_c, 1, 50, 0
1, 9600, Note_on_c, 1, 70, 127
1, 9600, Note_on_c, 1, 74, 127
1, 9630, Note_off_c, 1, 74, 0
1, 9664, Note_on_c, 1, 75, 127
1, 9672, Note_off_c, 1, 70, 0
1, 9672, Note_on_c, 1, 67, 127
1, 9694, Note_off_c, 1, 75, 0
1, 9695, Note_off_c, 1, 67, 0
1, 9696, Note_on_c, 1, 68, 127
1, 9696, Note_on_c, 1, 77, 127
1, 9696, Note_on_c, 1, 46, 127
1, 9726, Note_off_c, 1, 77, 0
1, 9728, Note_on_c, 1, 74, 127
1, 9758, Note_off_c, 1, 74, 0
1, 9760, Note_on_c, 1, 82, 127
1, 9785, Note_off_c, 1, 46, 0
1, 9792, Note_on_c, 1, 51, 127
1, 9822, Note_off_c, 1, 82, 0
1, 9824, Note_on_c, 1, 75, 127
1, 9854, Note_off_c, 1, 75, 0
1, 9864, Note_off_c, 1, 68, 0
1, 9864, Note_on_c, 1, 65, 127
1, 9881, Note_off_c, 1, 51, 0
1, 9887, Note_off_c, 1, 65, 0
1, 9888, Note_on_c, 1, 67, 127
1, 9888, Note_on_c, 1, 75, 127
1, 9918, Note_off_c, 1, 75, 0
1, 9920, Note_on_c, 1, 77, 127
1, 9950, Note_off_c, 1, 77, 0
1, 9952, Note_on_c, 1, 79, 127
1, 9960, Note_off_c, 1, 67, 0
1, 9960, Note_on_c, 1, 72, 127
1, 9982, Note_off_c, 1, 79, 0
1, 9983, Note_off_c, 1, 72, 0
1, 9984, Note_on_c, 1, 69, 127
1, 9984, Note_on_c, 1, 77, 127
1, 9984, Note_on_c, 1, 48, 127
1, 10014, Note_off_c, 1, 77, 0
1, 10016, Note_on_c, 1, 79, 127
1, 10046, Note_off_c, 1, 79, 0
1, 10048, Note_on_c, 1, 75, 127
1, 10073, Note_off_c, 1, 48, 0
1, 10078, Note_off_c, 1, 75, 0
1, 10080, Note_on_c, 1, 74, 127
1, 10080, Note_on_c, 1, 46, 127
1, 10110, Note_off_c, 1, 74, 0
1, 10152, Note_off_c, 1, 69, 0
1, 10152, Note_on_c, 1, 70, 127
1, 10169, Note_off_c, 1, 46, 0
1, 10175, Note_off_c, 1, 70, 0
1, 10176, Note_on_c, 1, 63, 127
1, 10176, Note_on_c, 1, 70, 127
1, 10182, Note_off_c, 1, 63, 0
1, 10182, Note_on_c, 1, 62, 127
1, 10206, Note_off_c, 1, 70, 0
1, 10208, Note_on_c, 1, 74, 127
1, 10224, Note_on_c, 1, 58, 127
1, 10238, Note_off_c, 1, 74, 0
1, 10240, Note_on_c, 1, 77, 127
1, 10269, Note_off_c, 1, 62, 0
1, 10269, Note_off_c, 1, 58, 0
1, 10270, Note_off_c, 1, 77, 0
1, 10272, Note_on_c, 1, 80, 127
1, 10272, Note_on_c, 1, 53, 127
1, 10302, Note_off_c, 1, 80, 0
1, 10304, Note_on_c, 1, 79, 127
1, 10317, Note_off_c, 1, 53, 0
1, 10320, Note_on_c, 1, 56, 127
1, 10334, Note_off_c, 1, 79, 0
1, 10336, Note_on_c, 1, 77, 127
1, 10365, Note_off_c, 1, 56, 0
1, 10366, Note_off_c, 1, 77, 0
1, 10368, Note_on_c, 1, 82, 127
1, 10368, Note_on_c, 1, 55, 127
1, 10398, Note_off_c, 1, 82, 0
1, 10400, Note_on_c, 1, 79, 127
1, 10430, Note_off_c, 1, 79, 0
1, 10432, Note_on_c, 1, 75, 127
1, 10457, Note_off_c, 1, 55, 0
1, 10462, Note_off_c, 1, 75, 0
1, 10464, Note_on_c, 1, 63, 127
1, 10464, Note_on_c, 1, 70, 127
1, 10494, Note_off_c, 1, 70, 0
1, 10496, Note_on_c, 1, 72, 127
1, 10526, Note_off_c, 1, 72, 0
1, 10528, Note_on_c, 1, 73, 127
1, 10536, Note_off_c, 1, 63, 0
1, 10536, Note_on_c, 1, 65, 127
1, 10559, Note_off_c, 1, 65, 0
1, 10560, Note_on_c, 1, 67, 127
1, 10560, Note_on_c, 1, 51, 127
1, 10590, Note_off_c, 1, 73, 0
1, 10649, Note_off_c, 1, 51, 0
1, 10656, Note_on_c, 1, 56, 127
1, 10688, Note_on_c, 1, 75, 127
1, 10718, Note_off_c, 1, 75, 0
1, 10720, Note_on_c, 1, 80, 127
1, 10728, Note_off_c, 1, 67, 0
1, 10745, Note_off_c, 1, 56, 0
1, 10750, Note_off_c, 1, 80, 0
1, 10752, Note_on_c, 1, 65, 127
1, 10752, Note_on_c, 1, 74, 127
1, 10782, Note_off_c, 1, 74, 0
1, 10784, Note_on_c, 1, 77, 127
1, 10814, Note_off_c, 1, 77, 0
1, 10816, Note_on_c, 1, 82, 127
1, 10824, Note_off_c, 1, 65, 0
1, 10824, Note_on_c, 1, 62, 127
1, 10846, Note_off_c, 1, 82, 0
1, 10847, Note_off_c, 1, 62, 0
1, 10848, Note_on_c, 1, 58, 127
1, 10848, Note_on_c, 1, 75, 127
1, 10848, Note_on_c, 1, 55, 127
1, 10878, Note_off_c, 1, 75, 0
1, 10880, Note_on_c, 1, 70, 127
1, 10910, Note_off_c, 1, 70, 0
1, 10912, Note_on_c, 1, 67, 127
1, 10937, Note_off_c, 1, 55, 0
1, 10942, Note_off_c, 1, 67, 0
1, 10944, Note_on_c, 1, 63, 127
1, 10944, Note_on_c, 1, 48, 127
1, 10974, Note_off_c, 1, 63, 0
1, 10976, Note_on_c, 1, 65, 127
1, 11006, Note_off_c, 1, 65, 0
1, 11016, Note_off_c, 1, 58, 0
1, 11033, Note_off_c, 1, 48, 0
1, 11040, Note_on_c, 1, 57, 127
1, 11040, Note_on_c, 1, 65, 127
1, 11070, Note_off_c, 1, 65, 0
1, 11072, Note_on_c, 1, 62, 127
1, 11102, Note_off_c, 1, 62, 0
1, 11104, Note_on_c, 1, 63, 127
1, 11112, Note_off_c, 1, 57, 0
1, 11112, Note_on_c, 1, 60, 127
1, 11134, Note_off_c, 1, 63, 0
1, 11135, Note_off_c, 1, 60, 0
1, 11136, Note_on_c, 1, 63, 127
1, 11136, Note_on_c, 1, 69, 127
1, 11136, Note_on_c, 1, 53, 127
1, 11166, Note_off_c, 1, 69, 0
1, 11168, Note_on_c, 1, 62, 127
1, 11198, Note_off_c, 1, 62, 0
1, 11225, Note_off_c, 1, 53, 0
1, 11232, Note_on_c, 1, 70, 127
1, 11232, Note_on_c, 1, 46, 127
1, 11262, Note_off_c, 1, 70, 0
1, 11264, Note_on_c, 1, 65, 127
1, 11294, Note_off_c, 1, 65, 0
1, 11304, Note_off_c, 1, 63, 0
1, 11304, Note_on_c, 1, 60, 127
1, 11321, Note_off_c, 1, 46, 0
1, 11327, Note_off_c, 1, 60, 0
1, 11328, Note_on_c, 1, 62, 127
1, 11328, Note_on_c, 1, 70, 127
1, 11358, Note_off_c, 1, 70, 0
1, 11360, Note_on_c, 1, 65, 127
1, 11376, Note_on_c, 1, 46, 127
1, 11390, Note_off_c, 1, 65, 0
1, 11421, Note_off_c, 1, 46, 0
1, 11422, Note_off_c, 1, 62, 0
1, 11424, Note_on_c, 1, 58, 127
1, 11424, Note_on_c, 1, 44, 127
1, 11454, Note_off_c, 1, 58, 0
1, 11456, Note_on_c, 1, 62, 127
1, 11469, Note_off_c, 1, 44, 0
1, 11472, Note_on_c, 1, 41, 127
1, 11486, Note_off_c, 1, 62, 0
1, 11488, Note_on_c, 1, 65, 127
1, 11517, Note_off_c, 1, 41, 0
1, 11520, Note_on_c, 1, 43, 127
1, 11550, Note_off_c, 1, 65, 0
1, 11552, Note_on_c, 1, 63, 127
1, 11582, Note_off_c, 1, 63, 0
1, 11584, Note_on_c, 1, 67, 127
1, 11609, Note_off_c, 1, 43, 0
1, 11614, Note_off_c, 1, 67, 0
1, 11616, Note_on_c, 1, 70, 127
1, 11648, Note_on_c, 1, 75, 127
1, 11678, Note_off_c, 1, 75, 0
1, 11688, Note_on_c, 1, 72, 127
1, 11710, Note_off_c, 1, 70, 0
1, 11711, Note_off_c, 1, 72, 0
1, 11712, Note_on_c, 1, 73, 127
1, 11712, Note_on_c, 1, 67, 127
1, 11712, Note_on_c, 1, 51, 127
1, 11742, Note_off_c, 1, 67, 0
1, 11744, Note_on_c, 1, 70, 127
1, 11774, Note_off_c, 1, 70, 0
1, 11801, Note_off_c, 1, 51, 0
1, 11808, Note_on_c, 1, 63, 127
1, 11808, Note_on_c, 1, 56, 127
1, 11838, Note_off_c, 1, 63, 0
1, 11840, Note_on_c, 1, 68, 127
1, 11870, Note_off_c, 1, 68, 0
1, 11880, Note_off_c, 1, 73, 0
1, 11897, Note_off_c, 1, 56, 0
1, 11904, Note_on_c, 1, 72, 127
1, 11904, Note_on_c, 1, 68, 127
1, 11934, Note_off_c, 1, 68, 0
1, 11936, Note_on_c, 1, 70, 127
1, 11966, Note_off_c, 1, 70, 0
1, 11998, Note_off_c, 1, 72, 0
1, 12000, Note_on_c, 1, 67, 127
1, 12000, Note_on_c, 1, 74, 127
1, 12000, Note_on_c, 1, 47, 127
1, 12008, Note_off_c, 1, 67, 0
1, 12008, Note_on_c, 1, 65, 127
1, 12030, Note_off_c, 1, 74, 0
1, 12032, Note_on_c, 1, 71, 127
1, 12062, Note_off_c, 1, 71, 0
1, 12064, Note_on_c, 1, 68, 127
1, 12089, Note_off_c, 1, 47, 0
1, 12091, Note_off_c, 1, 65, 0
1, 12094, Note_off_c, 1, 68, 0
1, 12096, Note_on_c, 1, 65, 127
1, 12096, Note_on_c, 1, 67, 127
1, 12096, Note_on_c, 1, 48, 127
1, 12126, Note_off_c, 1, 67, 0
1, 12128, Note_on_c, 1, 72, 127
1, 12158, Note_off_c, 1, 72, 0
1, 12160, Note_on_c, 1, 71, 127
1, 12163, Note_off_c, 1, 65, 0
1, 12168, Note_on_c, 1, 62, 127
1, 12185, Note_off_c, 1, 48, 0
1, 12190, Note_off_c, 1, 71, 0
1, 12191, Note_off_c, 1, 62, 0
1, 12192, Note_on_c, 1, 63, 127
1, 12192, Note_on_c, 1, 72, 127
1, 12222, Note_off_c, 1, 72, 0
1, 12224, Note_on_c, 1, 74, 127
1, 12254, Note_off_c, 1, 74, 0
1, 12256, Note_on_c, 1, 75, 127
1, 12259, Note_off_c, 1, 63, 0
1, 12264, Note_on_c, 1, 67, 127
1, 12286, Note_off_c, 1, 75, 0
1, 12287, Note_off_c, 1, 67, 0
1, 12288, Note_on_c, 1, 68, 127
1, 12288, Note_on_c, 1, 77, 127
1, 12288, Note_on_c, 1, 50, 127
1, 12318, Note_off_c, 1, 77, 0
1, 12320, Note_on_c, 1, 74, 127
1, 12350, Note_off_c, 1, 74, 0
1, 12352, Note_on_c, 1, 70, 127
1, 12377, Note_off_c, 1, 68, 0
1, 12377, Note_off_c, 1, 50, 0
1, 12384, Note_on_c, 1, 51, 127
1, 12414, Note_off_c, 1, 70, 0
1, 12416, Note_on_c, 1, 75, 127
1, 12446, Note_off_c, 1, 75, 0
1, 12456, Note_on_c, 1, 65, 127
1, 12473, Note_off_c, 1, 51, 0
1, 12479, Note_off_c, 1, 65, 0
1, 12480, Note_on_c, 1, 67, 127
1, 12480, Note_on_c, 1, 75, 127
1, 12510, Note_off_c, 1, 75, 0
1, 12512, Note_on_c, 1, 77, 127
1, 12542, Note_off_c, 1, 77, 0
1, 12544, Note_on_c, 1, 79, 127
1, 12547, Note_off_c, 1, 67, 0
1, 12552, Note_on_c, 1, 61, 127
1, 12575, Note_off_c, 1, 61, 0
1, 12576, Note_on_c, 1, 58, 127
1, 12576, Note_on_c, 1, 52, 127
1, 12591, Note_off_c, 1, 79, 0
1, 12592, Note_on_c, 1, 80, 127
1, 12607, Note_off_c, 1, 80, 0
1, 12608, Note_on_c, 1, 82, 127
1, 12638, Note_off_c, 1, 82, 0
1, 12640, Note_on_c, 1, 73, 127
1, 12665, Note_off_c, 1, 58, 0
1, 12665, Note_off_c, 1, 52, 0
1, 12670, Note_off_c, 1, 73, 0
1, 12672, Note_on_c, 1, 58, 127
1, 12672, Note_on_c, 1, 72, 127
1, 12672, Note_on_c, 1, 53, 127
1, 12702, Note_off_c, 1, 72, 0
1, 12704, Note_on_c, 1, 77, 127
1, 12734, Note_off_c, 1, 77, 0
1, 12736, Note_on_c, 1, 76, 127
1, 12739, Note_off_c, 1, 58, 0
1, 12744, Note_on_c, 1, 55, 127
1, 12761, Note_off_c, 1, 53, 0
1, 12766, Note_off_c, 1, 76, 0
1, 12767, Note_off_c, 1, 55, 0
1, 12768, Note_on_c, 1, 56, 127
1, 12768, Note_on_c, 1, 77, 127
1, 12798, Note_off_c, 1, 77, 0
1, 12800, Note_on_c, 1, 79, 127
1, 12830, Note_off_c, 1, 79, 0
1, 12832, Note_on_c, 1, 80, 127
1, 12835, Note_off_c, 1, 56, 0
1, 12840, Note_on_c, 1, 60, 127
1, 12863, Note_off_c, 1, 60, 0
1, 12864, Note_on_c, 1, 61, 127
1, 12864, Note_on_c, 1, 46, 127
1, 12894, Note_off_c, 1, 80, 0
1, 12953, Note_off_c, 1, 61, 0
1, 12953, Note_off_c, 1, 46, 0
1, 12960, Note_on_c, 1, 62, 127
1, 12960, Note_on_c, 1, 80, 127
1, 12960, Note_on_c, 1, 44, 127
1, 12990, Note_off_c, 1, 80, 0
1, 12992, Note_on_c, 1, 75, 127
1, 13022, Note_off_c, 1, 75, 0
1, 13024, Note_on_c, 1, 73, 127
1, 13027, Note_off_c, 1, 62, 0
1, 13032, Note_on_c, 1, 58, 127
1, 13049, Note_off_c, 1, 44, 0
1, 13054, Note_off_c, 1, 73, 0
1, 13055, Note_off_c, 1, 58, 0
1, 13056, Note_on_c, 1, 60, 127
1, 13056, Note_on_c, 1, 75, 127
1, 13086, Note_off_c, 1, 75, 0
1, 13088, Note_on_c, 1, 72, 127
1, 13118, Note_off_c, 1, 72, 0
1, 13120, Note_on_c, 1, 70, 127
1, 13123, Note_off_c, 1, 60, 0
1, 13128, Note_on_c, 1, 63, 127
1, 13150, Note_off_c, 1, 70, 0
1, 13151, Note_off_c, 1, 63, 0
1, 13152, Note_on_c, 1, 66, 127
1, 13152, Note_on_c, 1, 72, 127
1, 13152, Note_on_c, 1, 45, 127
1, 13182, Note_off_c, 1, 72, 0
1, 13184, Note_on_c, 1, 63, 127
1, 13214, Note_off_c, 1, 63, 0
1, 13216, Note_on_c, 1, 62, 127
1, 13241, Note_off_c, 1, 66, 0
1, 13241, Note_off_c, 1, 45, 0
1, 13246, Note_off_c, 1, 62, 0
1, 13248, Note_on_c, 1, 66, 127
1, 13248, Note_on_c, 1, 63, 127
1, 13248, Note_on_c, 1, 46, 127
1, 13278, Note_off_c, 1, 63, 0
1, 13312, Note_on_c, 1, 69, 127
1, 13315, Note_off_c, 1, 66, 0
1, 13320, Note_on_c, 1, 65, 127
1, 13337, Note_off_c, 1, 46, 0
1, 13342, Note_off_c, 1, 69, 0
1, 13343, Note_off_c, 1, 65, 0
1, 13344, Note_on_c, 1, 62, 127
1, 13344, Note_on_c, 1, 70, 127
1, 13374, Note_off_c, 1, 70, 0
1, 13376, Note_on_c, 1, 65, 127
1, 13392, Note_on_c, 1, 58, 127
1, 13406, Note_off_c, 1, 65, 0
1, 13408, Note_on_c, 1, 68, 127
1, 13437, Note_off_c, 1, 58, 0
1, 13438, Note_off_c, 1, 68, 0
1, 13440, Note_on_c, 1, 72, 127
1, 13440, Note_on_c, 1, 56, 127
1, 13470, Note_off_c, 1, 72, 0
1, 13477, Note_off_c, 1, 62, 0
1, 13485, Note_off_c, 1, 56, 0
1, 13488, Note_on_c, 1, 63, 127
1, 13533, Note_off_c, 1, 63, 0
1, 13536, Note_on_c, 1, 63, 127
1, 13536, Note_on_c, 1, 67, 127
1, 13536, Note_on_c, 1, 49, 127
1, 13566, Note_off_c, 1, 67, 0
1, 13568, Note_on_c, 1, 70, 127
1, 13598, Note_off_c, 1, 70, 0
1, 13625, Note_off_c, 1, 49, 0
1, 13664, Note_on_c, 1, 65, 127
1, 13680, Note_on_c, 1, 48, 127
1, 13694, Note_off_c, 1, 65, 0
1, 13713, Note_off_c, 1, 63, 0
1, 13725, Note_off_c, 1, 48, 0
1, 13728, Note_on_c, 1, 68, 127
1, 13728, Note_on_c, 1, 46, 127
1, 13758, Note_off_c, 1, 68, 0
1, 13760, Note_on_c, 1, 70, 127
1, 13773, Note_off_c, 1, 46, 0
1, 13776, Note_on_c, 1, 44, 127
1, 13790, Note_off_c, 1, 70, 0
1, 13792, Note_on_c, 1, 72, 127
1, 13821, Note_off_c, 1, 44, 0
1, 13822, Note_off_c, 1, 72, 0
1, 13824, Note_on_c, 1, 73, 127
1, 13824, Note_on_c, 1, 43, 127
1, 13854, Note_off_c, 1, 73, 0
1, 13856, Note_on_c, 1, 70, 127
1, 13886, Note_off_c, 1, 70, 0
1, 13888, Note_on_c, 1, 67, 127
1, 13913, Note_off_c, 1, 43, 0
1, 13918, Note_off_c, 1, 67, 0
1, 13920, Note_on_c, 1, 70, 127
1, 13920, Note_on_c, 1, 63, 127
1, 13950, Note_off_c, 1, 63, 0
1, 13952, Note_on_c, 1, 73, 127
1, 13982, Note_off_c, 1, 73, 0
1, 14014, Note_off_c, 1, 70, 0
1, 14016, Note_on_c, 1, 61, 127
1, 14016, Note_on_c, 1, 67, 127
1, 14016, Note_on_c, 1, 39, 127
1, 14046, Note_off_c, 1, 67, 0
1, 14048, Note_on_c, 1, 70, 127
1, 14078, Note_off_c, 1, 70, 0
1, 14105, Note_off_c, 1, 39, 0
1, 14112, Note_on_c, 1, 63, 127
1, 14112, Note_on_c, 1, 44, 127
1, 14142, Note_off_c, 1, 63, 0
1, 14144, Note_on_c, 1, 68, 127
1, 14174, Note_off_c, 1, 68, 0
1, 14184, Note_off_c, 1, 61, 0
1, 14184, Note_on_c, 1, 58, 127
1, 14201, Note_off_c, 1, 44, 0
1, 14207, Note_off_c, 1, 58, 0
1, 14208, Note_on_c, 1, 60, 127
1, 14208, Note_on_c, 1, 68, 127
1, 14238, Note_off_c, 1, 68, 0
1, 14240, Note_on_c, 1, 70, 127
1, 14270, Note_off_c, 1, 70, 0
1, 14272, Note_on_c, 1, 72, 127
1, 14280, Note_off_c, 1, 60, 0
1, 14280, Note_on_c, 1, 63, 127
1, 14302, Note_off_c, 1, 72, 0
1, 14303, Note_off_c, 1, 63, 0
1, 14304, Note_on_c, 1, 68, 127
1, 14304, Note_on_c, 1, 74, 127
1, 14304, Note_on_c, 1, 41, 127
1, 14334, Note_off_c, 1, 74, 0
1, 14336, Note_on_c, 1, 77, 127
1, 14366, Note_off_c, 1, 77, 0
1, 14368, Note_on_c, 1, 75, 127
1, 14393, Note_off_c, 1, 41, 0
1, 14398, Note_off_c, 1, 75, 0
1, 14400, Note_on_c, 1, 47, 127
1, 14464, Note_on_c, 1, 71, 127
1, 14472, Note_off_c, 1, 68, 0
1, 14472, Note_on_c, 1, 67, 127
1, 14489, Note_off_c, 1, 47, 0
1, 14494, Note_off_c, 1, 71, 0
1, 14495, Note_off_c, 1, 67, 0
1, 14496, Note_on_c, 1, 74, 127
1, 14496, Note_on_c, 1, 67, 127
1, 14526, Note_off_c, 1, 67, 0
1, 14528, Note_on_c, 1, 77, 127
1, 14558, Note_off_c, 1, 77, 0
1, 14590, Note_off_c, 1, 74, 0
1, 14592, Note_on_c, 1, 65, 127
1, 14592, Note_on_c, 1, 71, 127
1, 14592, Note_on_c, 1, 43, 127
1, 14622, Note_off_c, 1, 71, 0
1, 14624, Note_on_c, 1, 74, 127
1, 14654, Note_off_c, 1, 74, 0
1, 14681, Note_off_c, 1, 43, 0
1, 14688, Note_on_c, 1, 67, 127
1, 14688, Note_on_c, 1, 48, 127
1, 14718, Note_off_c, 1, 67, 0
1, 14720, Note_on_c, 1, 72, 127
1, 14750, Note_off_c, 1, 72, 0
1, 14760, Note_off_c, 1, 65, 0
1, 14760, Note_on_c, 1, 62, 127
1, 14777, Note_off_c, 1, 48, 0
1, 14783, Note_off_c, 1, 62, 0
1, 14784, Note_on_c, 1, 63, 127
1, 14784, Note_on_c, 1, 72, 127
1, 14814, Note_off_c, 1, 72, 0
1, 14816, Note_on_c, 1, 74, 127
1, 14846, Note_off_c, 1, 74, 0
1, 14848, Note_on_c, 1, 75, 127
1, 14856, Note_off_c, 1, 63, 0
1, 14856, Note_on_c, 1, 67, 127
1, 14878, Note_off_c, 1, 75, 0
1, 14879, Note_off_c, 1, 67, 0
1, 14880, Note_on_c, 1, 70, 127
1, 14880, Note_on_c, 1, 77, 127
1, 14880, Note_on_c, 1, 51, 127
1, 14892, Note_off_c, 1, 70, 0
1, 14892, Note_on_c, 1, 72, 127
1, 14904, Note_off_c, 1, 72, 0
1, 14904, Note_on_c, 1, 73, 127
1, 14910, Note_off_c, 1, 77, 0
1, 14912, Note_on_c, 1, 80, 127
1, 14942, Note_off_c, 1, 80, 0
1, 14944, Note_on_c, 1, 79, 127
1, 14969, Note_off_c, 1, 51, 0
1, 14974, Note_off_c, 1, 79, 0
1, 14976, Note_on_c, 1, 44, 127
1, 15008, Note_on_c, 1, 75, 127
1, 15038, Note_off_c, 1, 75, 0
1, 15043, Note_off_c, 1, 73, 0
1, 15065, Note_off_c, 1, 44, 0
1, 15072, Note_on_c, 1, 77, 127
1, 15072, Note_on_c, 1, 80, 127
1, 15102, Note_off_c, 1, 80, 0
1, 15104, Note_on_c, 1, 82, 127
1, 15134, Note_off_c, 1, 82, 0
1, 15136, Note_on_c, 1, 84, 127
1, 15161, Note_off_c, 1, 77, 0
1, 15166, Note_off_c, 1, 84, 0
1, 15168, Note_on_c, 1, 68, 127
1, 15168, Note_on_c, 1, 82, 127
1, 15168, Note_on_c, 1, 38, 127
1, 15198, Note_off_c, 1, 82, 0
1, 15200, Note_on_c, 1, 77, 127
1, 15230, Note_off_c, 1, 77, 0
1, 15232, Note_on_c, 1, 74, 127
1, 15257, Note_off_c, 1, 68, 0
1, 15257, Note_off_c, 1, 38, 0
1, 15262, Note_off_c, 1, 74, 0
1, 15264, Note_on_c, 1, 68, 127
1, 15264, Note_on_c, 1, 70, 127
1, 15264, Note_on_c, 1, 39, 127
1, 15294, Note_off_c, 1, 70, 0
1, 15296, Note_on_c, 1, 75, 127
1, 15326, Note_off_c, 1, 75, 0
1, 15328, Note_on_c, 1, 74, 127
1, 15336, Note_off_c, 1, 68, 0
1, 15336, Note_on_c, 1, 65, 127
1, 15353, Note_off_c, 1, 39, 0
1, 15358, Note_off_c, 1, 74, 0
1, 15359, Note_off_c, 1, 65, 0
1, 15360, Note_on_c, 1, 67, 127
1, 15360, Note_on_c, 1, 75, 127
1, 15390, Note_off_c, 1, 75, 0
1, 15392, Note_on_c, 1, 77, 127
1, 15422, Note_off_c, 1, 77, 0
1, 15424, Note_on_c, 1, 79, 127
1, 15432, Note_off_c, 1, 67, 0
1, 15432, Note_on_c, 1, 72, 127
1, 15454, Note_off_c, 1, 79, 0
1, 15455, Note_off_c, 1, 72, 0
1, 15456, Note_on_c, 1, 69, 127
1, 15456, Note_on_c, 1, 77, 127
1, 15456, Note_on_c, 1, 48, 127
1, 15486, Note_off_c, 1, 77, 0
1, 15488, Note_on_c, 1, 79, 127
1, 15518, Note_off_c, 1, 79, 0
1, 15520, Note_on_c, 1, 75, 127
1, 15528, Note_off_c, 1, 69, 0
1, 15528, Note_on_c, 1, 70, 127
1, 15545, Note_off_c, 1, 48, 0
1, 15550, Note_off_c, 1, 75, 0
1, 15551, Note_off_c, 1, 70, 0
1, 15552, Note_on_c, 1, 62, 127
1, 15552, Note_on_c, 1, 80, 127
1, 15552, Note_on_c, 1, 46, 127
1, 15582, Note_off_c, 1, 80, 0
1, 15584, Note_on_c, 1, 77, 127
1, 15614, Note_off_c, 1, 77, 0
1, 15616, Note_on_c, 1, 79, 127
1, 15624, Note_off_c, 1, 62, 0
1, 15624, Note_on_c, 1, 63, 127
1, 15641, Note_off_c, 1, 46, 0
1, 15646, Note_off_c, 1, 79, 0
1, 15647, Note_off_c, 1, 63, 0
1, 15648, Note_on_c, 1, 58, 127
1, 15648, Note_on_c, 1, 74, 127
1, 15678, Note_off_c, 1, 74, 0
1, 15680, Note_on_c, 1, 75, 127
1, 15696, Note_on_c, 1, 43, 127
1, 15710, Note_off_c, 1, 75, 0
1, 15712, Note_on_c, 1, 70, 127
1, 15741, Note_off_c, 1, 43, 0
1, 15742, Note_off_c, 1, 70, 0
1, 15744, Note_off_c, 1, 58, 0
1, 15744, Note_on_c, 1, 56, 127
1, 15744, Note_on_c, 1, 72, 127
1, 15744, Note_on_c, 1, 44, 127
1, 15767, Note_off_c, 1, 56, 0
1, 15768, Note_on_c, 1, 55, 127
1, 15774, Note_off_c, 1, 72, 0
1, 15776, Note_on_c, 1, 77, 127
1, 15789, Note_off_c, 1, 44, 0
1, 15791, Note_off_c, 1, 55, 0
1, 15792, Note_on_c, 1, 46, 127
1, 15806, Note_off_c, 1, 77, 0
1, 15837, Note_off_c, 1, 46, 0
1, 15840, Note_on_c, 1, 55, 127
1, 15840, Note_on_c, 1, 75, 127
1, 15840, Note_on_c, 1, 39, 127
1, 15870, Note_off_c, 1, 75, 0
1, 15872, Note_on_c, 1, 79, 127
1, 15902, Note_off_c, 1, 79, 0
1, 15929, Note_off_c, 1, 55, 0
1, 15929, Note_off_c, 1, 39, 0
1, 15936, Note_on_c, 1, 70, 127
1, 15966, Note_off_c, 1, 70, 0
1, 15968, Note_on_c, 1, 75, 127
1, 15984, Note_on_c, 1, 51, 127
1, 15998, Note_off_c, 1, 75, 0
1, 16000, Note_on_c, 1, 74, 127
1, 16029, Note_off_c, 1, 51, 0
1, 16030, Note_off_c, 1, 74, 0
1, 16032, Note_on_c, 1, 75, 127
1, 16032, Note_on_c, 1, 55, 127
1, 16062, Note_off_c, 1, 75, 0
1, 16064, Note_on_c, 1, 70, 127
1, 16077, Note_off_c, 1, 55, 0
1, 16080, Note_on_c, 1, 51, 127
1, 16094, Note_off_c, 1, 70, 0
1, 16096, Note_on_c, 1, 67, 127
1, 16125, Note_off_c, 1, 51, 0
1, 16126, Note_off_c, 1, 67, 0
1, 16128, Note_on_c, 1, 63, 127
1, 16128, Note_on_c, 1, 48, 127
1, 16176, Note_on_c, 1, 79, 127
1, 16199, Note_off_c, 1, 79, 0
1, 16200, Note_on_c, 1, 77, 127
1, 16217, Note_off_c, 1, 63, 0
1, 16217, Note_off_c, 1, 48, 0
1, 16223, Note_off_c, 1, 77, 0
1, 16224, Note_on_c, 1, 75, 127
1, 16247, Note_off_c, 1, 75, 0
1, 16248, Note_on_c, 1, 74, 127
1, 16271, Note_off_c, 1, 74, 0
1, 16272, Note_on_c, 1, 72, 127
1, 16272, Note_on_c, 1, 79, 127
1, 16295, Note_off_c, 1, 72, 0
1, 16295, Note_off_c, 1, 79, 0
1, 16296, Note_on_c, 1, 75, 127
1, 16296, Note_on_c, 1, 77, 127
1, 16319, Note_off_c, 1, 75, 0
1, 16319, Note_off_c, 1, 77, 0
1, 16320, Note_on_c, 1, 68, 127
1, 16320, Note_on_c, 1, 75, 127
1, 16343, Note_off_c, 1, 75, 0
1, 16344, Note_on_c, 1, 74, 127
1, 16367, Note_off_c, 1, 74, 0
1, 16368, Note_on_c, 1, 72, 127
1, 16391, Note_off_c, 1, 72, 0
1, 16392, Note_on_c, 1, 71, 127
1, 16415, Note_off_c, 1, 71, 0
1, 16416, Note_on_c, 1, 51, 127
1, 16439, Note_off_c, 1, 68, 0
1, 16505, Note_off_c, 1, 51, 0
1, 16512, Note_on_c, 1, 72, 127
1, 16535, Note_off_c, 1, 72, 0
1, 16536, Note_on_c, 1, 70, 127
1, 16559, Note_off_c, 1, 70, 0
1, 16560, Note_on_c, 1, 68, 127
1, 16560, Note_on_c, 1, 84, 127
1, 16583, Note_off_c, 1, 68, 0
1, 16583, Note_off_c, 1, 84, 0
1, 16584, Note_on_c, 1, 72, 127
1, 16584, Note_on_c, 1, 82, 127
1, 16607, Note_off_c, 1, 72, 0
1, 16607, Note_off_c, 1, 82, 0
1, 16608, Note_on_c, 1, 66, 127
1, 16608, Note_on_c, 1, 81, 127
1, 16631, Note_off_c, 1, 81, 0
1, 16632, Note_on_c, 1, 79, 127
1, 16655, Note_off_c, 1, 79, 0
1, 16656, Note_on_c, 1, 78, 127
1, 16679, Note_off_c, 1, 78, 0
1, 16704, Note_on_c, 1, 72, 127
1, 16704, Note_on_c, 1, 50, 127
1, 16727, Note_off_c, 1, 66, 0
1, 16727, Note_off_c, 1, 72, 0
1, 16728, Note_on_c, 1, 69, 127
1, 16751, Note_off_c, 1, 69, 0
1, 16776, Note_on_c, 1, 70, 127
1, 16776, Note_on_c, 1, 67, 127
1, 16793, Note_off_c, 1, 50, 0
1, 16799, Note_off_c, 1, 70, 0
1, 16799, Note_off_c, 1, 67, 0
1, 16800, Note_on_c, 1, 69, 127
1, 16823, Note_off_c, 1, 69, 0
1, 16824, Note_on_c, 1, 67, 127
1, 16824, Note_on_c, 1, 70, 127
1, 16847, Note_off_c, 1, 67, 0
1, 16847, Note_off_c, 1, 70, 0
1, 16848, Note_on_c, 1, 66, 127
1, 16848, Note_on_c, 1, 72, 127
1, 16871, Note_off_c, 1, 66, 0
1, 16871, Note_off_c, 1, 72, 0
1, 16872, Note_on_c, 1, 69, 127
1, 16872, Note_on_c, 1, 74, 127
1, 16895, Note_off_c, 1, 69, 0
1, 16895, Note_off_c, 1, 74, 0
1, 16896, Note_on_c, 1, 60, 127
1, 16896, Note_on_c, 1, 75, 127
1, 16896, Note_on_c, 1, 38, 127
1, 16919, Note_off_c, 1, 75, 0
1, 16920, Note_on_c, 1, 72, 127
1, 16943, Note_off_c, 1, 72, 0
1, 16944, Note_on_c, 1, 79, 127
1, 16967, Note_off_c, 1, 79, 0
1, 16968, Note_on_c, 1, 78, 127
1, 16985, Note_off_c, 1, 38, 0
1, 16991, Note_off_c, 1, 78, 0
1, 16992, Note_on_c, 1, 43, 127
1, 17081, Note_off_c, 1, 60, 0
1, 17088, Note_on_c, 1, 59, 127
1, 17257, Note_off_c, 1, 43, 0
1, 17265, Note_off_c, 1, 59, 0
1, 17265, End_track
0, 0, End_of_file