0, 0, Header, 1, 1, 480
1, 0, Start_track
1, 0, Title_t, "Test"
1, 0, Tempo, 500000
1, 0, Instrument_name_t, "Church Organ"
1, 0, Note_on_c, 1, 53, 127
1, 48, Note_on_c, 1, 72, 127
1, 89, Note_off_c, 1, 53, 0
1, 93, Note_off_c, 1, 72, 0
1, 96, Note_on_c, 1, 73, 127
1, 96, Note_on_c, 1, 58, 127
1, 141, Note_off_c, 1, 58, 0
1, 144, Note_on_c, 1, 55, 127
1, 189, Note_off_c, 1, 73, 0
1, 192, Note_on_c, 1, 74, 127
1, 233, Note_off_c, 1, 55, 0
1, 237, Note_off_c, 1, 74, 0
1, 240, Note_on_c, 1, 75, 127
1, 240, Note_on_c, 1, 60, 127
1, 285, Note_off_c, 1, 60, 0
1, 288, Note_on_c, 1, 56, 127
1, 333, Note_off_c, 1, 75, 0
1, 336, Note_on_c, 1, 76, 127
1, 377, Note_off_c, 1, 56, 0
1, 381, Note_off_c, 1, 76, 0
1, 384, Note_on_c, 1, 77, 127
1, 384, Note_on_c, 1, 61, 127
1, 429, Note_off_c, 1, 61, 0
1, 432, Note_on_c, 1, 60, 127
1, 455, Note_off_c, 1, 77, 0
1, 456, Note_on_c, 1, 79, 127
1, 477, Note_off_c, 1, 60, 0
1, 479, Note_off_c, 1, 79, 0
1, 480, Note_on_c, 1, 79, 127
1, 480, Note_on_c, 1, 58, 127
1, 492, Note_off_c, 1, 79, 0
1, 492, Note_on_c, 1, 80, 127
1, 504, Note_off_c, 1, 80, 0
1, 525, Note_off_c, 1, 58, 0
1, 528, Note_on_c, 1, 60, 127
1, 552, Note_on_c, 1, 77, 127
1, 564, Note_off_c, 1, 77, 0
1, 573, Note_off_c, 1, 60, 0
1, 576, Note_on_c, 1, 53, 127
1, 599, Note_off_c, 1, 53, 0
1, 600, Note_on_c, 1, 49, 127
1, 623, Note_off_c, 1, 49, 0
1, 624, Note_on_c, 1, 65, 127
1, 624, Note_on_c, 1, 48, 127
1, 647, Note_off_c, 1, 48, 0
1, 648, Note_on_c, 1, 85, 127
1, 648, Note_on_c, 1, 46, 127
1, 669, Note_off_c, 1, 65, 0
1, 671, Note_off_c, 1, 85, 0
1, 671, Note_off_c, 1, 46, 0
1, 672, Note_on_c, 1, 84, 127
1, 672, Note_on_c, 1, 68, 127
1, 672, Note_on_c, 1, 44, 127
1, 695, Note_off_c, 1, 84, 0
1, 695, Note_off_c, 1, 44, 0
1, 696, Note_on_c, 1, 82, 127
1, 696, Note_on_c, 1, 43, 127
1, 719, Note_off_c, 1, 82, 0
1, 719, Note_off_c, 1, 43, 0
1, 720, Note_on_c, 1, 80, 127
1, 720, Note_on_c, 1, 41, 127
1, 743, Note_off_c, 1, 80, 0
1, 744, Note_on_c, 1, 79, 127
1, 765, Note_off_c, 1, 68, 0
1, 767, Note_off_c, 1, 79, 0
1, 768, Note_on_c, 1, 77, 127
1, 768, Note_on_c, 1, 69, 127
1, 787, Note_off_c, 1, 41, 0
1, 791, Note_off_c, 1, 77, 0
1, 792, Note_on_c, 1, 75, 127
1, 813, Note_off_c, 1, 69, 0
1, 815, Note_off_c, 1, 75, 0
1, 816, Note_on_c, 1, 74, 127
1, 816, Note_on_c, 1, 70, 127
1, 816, Note_on_c, 1, 44, 127
1, 839, Note_off_c, 1, 74, 0
1, 840, Note_on_c, 1, 72, 127
1, 861, Note_off_c, 1, 44, 0
1, 863, Note_off_c, 1, 72, 0
1, 864, Note_on_c, 1, 43, 127
1, 888, Note_on_c, 1, 68, 127
1, 909, Note_off_c, 1, 70, 0
1, 911, Note_off_c, 1, 68, 0
1, 912, Note_on_c, 1, 67, 127
1, 912, Note_on_c, 1, 71, 127
1, 931, Note_off_c, 1, 43, 0
1, 935, Note_off_c, 1, 67, 0
1, 936, Note_on_c, 1, 65, 127
1, 957, Note_off_c, 1, 71, 0
1, 959, Note_off_c, 1, 65, 0
1, 960, Note_on_c, 1, 63, 127
1, 960, Note_on_c, 1, 72, 127
1, 960, Note_on_c, 1, 46, 127
1, 983, Note_off_c, 1, 63, 0
1, 984, Note_on_c, 1, 62, 127
1, 1005, Note_off_c, 1, 46, 0
1, 1007, Note_off_c, 1, 62, 0
1, 1008, Note_on_c, 1, 60, 127
1, 1008, Note_on_c, 1, 44, 127
1, 1031, Note_off_c, 1, 72, 0
1, 1032, Note_on_c, 1, 74, 127
1, 1053, Note_off_c, 1, 60, 0
1, 1053, Note_off_c, 1, 44, 0
1, 1055, Note_off_c, 1, 74, 0
1, 1056, Note_on_c, 1, 72, 127
1, 1056, Note_on_c, 1, 74, 127
1, 1056, Note_on_c, 1, 41, 127
1, 1068, Note_off_c, 1, 74, 0
1, 1068, Note_on_c, 1, 75, 127
1, 1080, Note_off_c, 1, 75, 0
1, 1101, Note_off_c, 1, 72, 0
1, 1101, Note_off_c, 1, 41, 0
1, 1104, Note_on_c, 1, 71, 127
1, 1104, Note_on_c, 1, 43, 127
1, 1149, Note_off_c, 1, 71, 0
1, 1149, Note_off_c, 1, 43, 0
1, 1152, Note_on_c, 1, 48, 127
1, 1175, Note_off_c, 1, 48, 0
1, 1176, Note_on_c, 1, 50, 127
1, 1199, Note_off_c, 1, 50, 0
1, 1200, Note_on_c, 1, 84, 127
1, 1200, Note_on_c, 1, 51, 127
1, 1223, Note_off_c, 1, 84, 0
1, 1223, Note_off_c, 1, 51, 0
1, 1224, Note_on_c, 1, 82, 127
1, 1224, Note_on_c, 1, 79, 127
1, 1224, Note_on_c, 1, 53, 127
1, 1247, Note_off_c, 1, 82, 0
1, 1247, Note_off_c, 1, 79, 0
1, 1247, Note_off_c, 1, 53, 0
1, 1248, Note_on_c, 1, 84, 127
1, 1248, Note_on_c, 1, 77, 127
1, 1248, Note_on_c, 1, 55, 127
1, 1271, Note_off_c, 1, 77, 0
1, 1271, Note_off_c, 1, 55, 0
1, 1272, Note_on_c, 1, 75, 127
1, 1272, Note_on_c, 1, 57, 127
1, 1295, Note_off_c, 1, 75, 0
1, 1295, Note_off_c, 1, 57, 0
1, 1296, Note_on_c, 1, 73, 127
1, 1296, Note_on_c, 1, 58, 127
1, 1319, Note_off_c, 1, 58, 0
1, 1320, Note_on_c, 1, 60, 127
1, 1341, Note_off_c, 1, 84, 0
1, 1343, Note_off_c, 1, 60, 0
1, 1344, Note_on_c, 1, 82, 127
1, 1344, Note_on_c, 1, 61, 127
1, 1363, Note_off_c, 1, 73, 0
1, 1367, Note_off_c, 1, 82, 0
1, 1367, Note_off_c, 1, 61, 0
1, 1368, Note_on_c, 1, 80, 127
1, 1368, Note_on_c, 1, 77, 127
1, 1368, Note_on_c, 1, 63, 127
1, 1391, Note_off_c, 1, 80, 0
1, 1391, Note_off_c, 1, 77, 0
1, 1391, Note_off_c, 1, 63, 0
1, 1392, Note_on_c, 1, 82, 127
1, 1392, Note_on_c, 1, 75, 127
1, 1392, Note_on_c, 1, 65, 127
1, 1415, Note_off_c, 1, 75, 0
1, 1415, Note_off_c, 1, 65, 0
1, 1416, Note_on_c, 1, 73, 127
1, 1416, Note_on_c, 1, 67, 127
1, 1439, Note_off_c, 1, 73, 0
1, 1439, Note_off_c, 1, 67, 0
1, 1440, Note_on_c, 1, 72, 127
1, 1440, Note_on_c, 1, 68, 127
1, 1463, Note_off_c, 1, 72, 0
1, 1464, Note_on_c, 1, 70, 127
1, 1485, Note_off_c, 1, 82, 0
1, 1487, Note_off_c, 1, 70, 0
1, 1488, Note_on_c, 1, 80, 127
1, 1507, Note_off_c, 1, 68, 0
1, 1512, Note_on_c, 1, 74, 127
1, 1533, Note_off_c, 1, 80, 0
1, 1535, Note_off_c, 1, 74, 0
1, 1536, Note_on_c, 1, 70, 127
1, 1536, Note_on_c, 1, 76, 127
1, 1536, Note_on_c, 1, 67, 127
1, 1559, Note_off_c, 1, 76, 0
1, 1559, Note_off_c, 1, 67, 0
1, 1560, Note_on_c, 1, 77, 127
1, 1560, Note_on_c, 1, 65, 127
1, 1583, Note_off_c, 1, 77, 0
1, 1583, Note_off_c, 1, 65, 0
1, 1584, Note_on_c, 1, 79, 127
1, 1584, Note_on_c, 1, 64, 127
1, 1607, Note_off_c, 1, 79, 0
1, 1607, Note_off_c, 1, 64, 0
1, 1608, Note_on_c, 1, 80, 127
1, 1608, Note_on_c, 1, 62, 127
1, 1629, Note_off_c, 1, 70, 0
1, 1631, Note_off_c, 1, 80, 0
1, 1631, Note_off_c, 1, 62, 0
1, 1632, Note_on_c, 1, 76, 127
1, 1632, Note_on_c, 1, 82, 127
1, 1632, Note_on_c, 1, 60, 127
1, 1655, Note_off_c, 1, 82, 0
1, 1655, Note_off_c, 1, 60, 0
1, 1656, Note_on_c, 1, 85, 127
1, 1656, Note_on_c, 1, 58, 127
1, 1677, Note_off_c, 1, 76, 0
1, 1679, Note_off_c, 1, 85, 0
1, 1679, Note_off_c, 1, 58, 0
1, 1680, Note_on_c, 1, 79, 127
1, 1680, Note_on_c, 1, 84, 127
1, 1680, Note_on_c, 1, 56, 127
1, 1703, Note_off_c, 1, 84, 0
1, 1703, Note_off_c, 1, 56, 0
1, 1704, Note_on_c, 1, 82, 127
1, 1704, Note_on_c, 1, 55, 127
1, 1727, Note_off_c, 1, 82, 0
1, 1727, Note_off_c, 1, 55, 0
1, 1728, Note_on_c, 1, 80, 127
1, 1728, Note_on_c, 1, 53, 127
1, 1751, Note_off_c, 1, 79, 0
1, 1752, Note_on_c, 1, 73, 127
1, 1773, Note_off_c, 1, 53, 0
1, 1775, Note_off_c, 1, 73, 0
1, 1776, Note_on_c, 1, 72, 127
1, 1776, Note_on_c, 1, 48, 127
1, 1795, Note_off_c, 1, 80, 0
1, 1799, Note_off_c, 1, 72, 0
1, 1800, Note_on_c, 1, 70, 127
1, 1821, Note_off_c, 1, 48, 0
1, 1823, Note_off_c, 1, 70, 0
1, 1824, Note_on_c, 1, 68, 127
1, 1824, Note_on_c, 1, 77, 127
1, 1824, Note_on_c, 1, 49, 127
1, 1847, Note_off_c, 1, 68, 0
1, 1847, Note_off_c, 1, 77, 0
1, 1848, Note_on_c, 1, 67, 127
1, 1848, Note_on_c, 1, 75, 127
1, 1871, Note_off_c, 1, 67, 0
1, 1871, Note_off_c, 1, 75, 0
1, 1872, Note_on_c, 1, 65, 127
1, 1872, Note_on_c, 1, 73, 127
1, 1895, Note_off_c, 1, 73, 0
1, 1896, Note_on_c, 1, 72, 127
1, 1917, Note_off_c, 1, 49, 0
1, 1919, Note_off_c, 1, 72, 0
1, 1920, Note_on_c, 1, 70, 127
1, 1920, Note_on_c, 1, 50, 127
1, 1939, Note_off_c, 1, 65, 0
1, 1943, Note_off_c, 1, 70, 0
1, 1965, Note_off_c, 1, 50, 0
1, 1968, Note_on_c, 1, 70, 127
1, 1968, Note_on_c, 1, 67, 127
1, 1968, Note_on_c, 1, 51, 127
1, 1991, Note_off_c, 1, 70, 0
1, 1991, Note_off_c, 1, 67, 0
1, 1992, Note_on_c, 1, 68, 127
1, 1992, Note_on_c, 1, 65, 127
1, 2015, Note_off_c, 1, 68, 0
1, 2015, Note_off_c, 1, 65, 0
1, 2016, Note_on_c, 1, 63, 127
1, 2039, Note_off_c, 1, 63, 0
1, 2040, Note_on_c, 1, 61, 127
1, 2061, Note_off_c, 1, 51, 0
1, 2063, Note_off_c, 1, 61, 0
1, 2064, Note_on_c, 1, 60, 127
1, 2064, Note_on_c, 1, 52, 127
1, 2087, Note_off_c, 1, 60, 0
1, 2088, Note_on_c, 1, 73, 127
1, 2088, Note_on_c, 1, 58, 127
1, 2109, Note_off_c, 1, 52, 0
1, 2111, Note_off_c, 1, 73, 0
1, 2111, Note_off_c, 1, 58, 0
1, 2112, Note_on_c, 1, 72, 127
1, 2112, Note_on_c, 1, 56, 127
1, 2112, Note_on_c, 1, 53, 127
1, 2135, Note_off_c, 1, 72, 0
1, 2135, Note_off_c, 1, 56, 0
1, 2136, Note_on_c, 1, 70, 127
1, 2136, Note_on_c, 1, 55, 127
1, 2159, Note_off_c, 1, 70, 0
1, 2159, Note_off_c, 1, 55, 0
1, 2160, Note_on_c, 1, 68, 127
1, 2184, Note_off_c, 1, 68, 0
1, 2184, Note_on_c, 1, 67, 127
1, 2205, Note_off_c, 1, 53, 0
1, 2207, Note_off_c, 1, 67, 0
1, 2208, Note_on_c, 1, 70, 127
1, 2208, Note_on_c, 1, 65, 127
1, 2208, Note_on_c, 1, 55, 127
1, 2220, Note_off_c, 1, 55, 0
1, 2220, Note_on_c, 1, 56, 127
1, 2232, Note_off_c, 1, 70, 0
1, 2232, Note_off_c, 1, 56, 0
1, 2232, Note_on_c, 1, 68, 127
1, 2253, Note_off_c, 1, 65, 0
1, 2255, Note_off_c, 1, 68, 0
1, 2256, Note_on_c, 1, 67, 127
1, 2256, Note_on_c, 1, 64, 127
1, 2280, Note_off_c, 1, 67, 0
1, 2280, Note_on_c, 1, 53, 127
1, 2292, Note_off_c, 1, 53, 0
1, 2301, Note_off_c, 1, 64, 0
1, 2376, Note_on_c, 1, 70, 127
1, 2376, Note_on_c, 1, 67, 127
1, 2376, Note_on_c, 1, 61, 127
1, 2399, Note_off_c, 1, 70, 0
1, 2399, Note_off_c, 1, 67, 0
1, 2399, Note_off_c, 1, 61, 0
1, 2400, Note_on_c, 1, 72, 127
1, 2400, Note_on_c, 1, 68, 127
1, 2400, Note_on_c, 1, 60, 127
1, 2423, Note_off_c, 1, 72, 0
1, 2423, Note_off_c, 1, 68, 0
1, 2423, Note_off_c, 1, 60, 0
1, 2424, Note_on_c, 1, 73, 127
1, 2424, Note_on_c, 1, 70, 127
1, 2424, Note_on_c, 1, 58, 127
1, 2447, Note_off_c, 1, 73, 0
1, 2447, Note_off_c, 1, 70, 0
1, 2447, Note_off_c, 1, 58, 0
1, 2448, Note_on_c, 1, 75, 127
1, 2448, Note_on_c, 1, 72, 127
1, 2448, Note_on_c, 1, 57, 127
1, 2471, Note_off_c, 1, 72, 0
1, 2471, Note_off_c, 1, 57, 0
1, 2472, Note_on_c, 1, 73, 127
1, 2472, Note_on_c, 1, 55, 127
1, 2495, Note_off_c, 1, 73, 0
1, 2495, Note_off_c, 1, 55, 0
1, 2496, Note_on_c, 1, 53, 127
1, 2519, Note_off_c, 1, 53, 0
1, 2520, Note_on_c, 1, 77, 127
1, 2520, Note_on_c, 1, 51, 127
1, 2543, Note_off_c, 1, 77, 0
1, 2543, Note_off_c, 1, 51, 0
1, 2544, Note_on_c, 1, 79, 127
1, 2544, Note_on_c, 1, 49, 127
1, 2567, Note_off_c, 1, 79, 0
1, 2567, Note_off_c, 1, 49, 0
1, 2568, Note_on_c, 1, 81, 127
1, 2568, Note_on_c, 1, 48, 127
1, 2591, Note_off_c, 1, 81, 0
1, 2591, Note_off_c, 1, 48, 0
1, 2592, Note_on_c, 1, 82, 127
1, 2592, Note_on_c, 1, 46, 127
1, 2615, Note_off_c, 1, 75, 0
1, 2615, Note_off_c, 1, 82, 0
1, 2616, Note_on_c, 1, 69, 127
1, 2639, Note_off_c, 1, 69, 0
1, 2640, Note_on_c, 1, 70, 127
1, 2659, Note_off_c, 1, 46, 0
1, 2663, Note_off_c, 1, 70, 0
1, 2664, Note_on_c, 1, 69, 127
1, 2664, Note_on_c, 1, 72, 127
1, 2664, Note_on_c, 1, 51, 127
1, 2687, Note_off_c, 1, 69, 0
1, 2687, Note_off_c, 1, 72, 0
1, 2687, Note_off_c, 1, 51, 0
1, 2688, Note_on_c, 1, 70, 127
1, 2688, Note_on_c, 1, 74, 127
1, 2688, Note_on_c, 1, 50, 127
1, 2711, Note_off_c, 1, 70, 0
1, 2711, Note_off_c, 1, 74, 0
1, 2711, Note_off_c, 1, 50, 0
1, 2712, Note_on_c, 1, 72, 127
1, 2712, Note_on_c, 1, 75, 127
1, 2712, Note_on_c, 1, 48, 127
1, 2735, Note_off_c, 1, 72, 0
1, 2735, Note_off_c, 1, 75, 0
1, 2735, Note_off_c, 1, 48, 0
1, 2736, Note_on_c, 1, 74, 127
1, 2736, Note_on_c, 1, 77, 127
1, 2736, Note_on_c, 1, 47, 127
1, 2759, Note_off_c, 1, 74, 0
1, 2759, Note_off_c, 1, 47, 0
1, 2760, Note_on_c, 1, 75, 127
1, 2760, Note_on_c, 1, 45, 127
1, 2783, Note_off_c, 1, 75, 0
1, 2783, Note_off_c, 1, 45, 0
1, 2784, Note_on_c, 1, 43, 127
1, 2807, Note_off_c, 1, 43, 0
1, 2808, Note_on_c, 1, 79, 127
1, 2808, Note_on_c, 1, 41, 127
1, 2831, Note_off_c, 1, 79, 0
1, 2831, Note_off_c, 1, 41, 0
1, 2832, Note_on_c, 1, 81, 127
1, 2832, Note_on_c, 1, 39, 127
1, 2855, Note_off_c, 1, 81, 0
1, 2855, Note_off_c, 1, 39, 0
1, 2856, Note_on_c, 1, 83, 127
1, 2856, Note_on_c, 1, 38, 127
1, 2879, Note_off_c, 1, 83, 0
1, 2879, Note_off_c, 1, 38, 0
1, 2880, Note_on_c, 1, 84, 127
1, 2880, Note_on_c, 1, 36, 127
1, 2903, Note_off_c, 1, 77, 0
1, 2904, Note_on_c, 1, 80, 127
1, 2925, Note_off_c, 1, 84, 0
1, 2927, Note_off_c, 1, 80, 0
1, 2928, Note_on_c, 1, 67, 127
1, 2947, Note_off_c, 1, 36, 0
1, 2973, Note_off_c, 1, 67, 0
1, 2976, Note_on_c, 1, 68, 127
1, 2976, Note_on_c, 1, 75, 127
1, 2999, Note_off_c, 1, 75, 0
1, 3000, Note_on_c, 1, 74, 127
1, 3023, Note_off_c, 1, 74, 0
1, 3024, Note_on_c, 1, 72, 127
1, 3048, Note_on_c, 1, 67, 127
1, 3069, Note_off_c, 1, 68, 0
1, 3071, Note_off_c, 1, 67, 0
1, 3072, Note_on_c, 1, 69, 127
1, 3072, Note_on_c, 1, 65, 127
1, 3091, Note_off_c, 1, 72, 0
1, 3095, Note_off_c, 1, 65, 0
1, 3096, Note_on_c, 1, 79, 127
1, 3096, Note_on_c, 1, 63, 127
1, 3117, Note_off_c, 1, 69, 0
1, 3119, Note_off_c, 1, 79, 0
1, 3119, Note_off_c, 1, 63, 0
1, 3120, Note_on_c, 1, 70, 127
1, 3120, Note_on_c, 1, 77, 127
1, 3120, Note_on_c, 1, 62, 127
1, 3143, Note_off_c, 1, 77, 0
1, 3143, Note_off_c, 1, 62, 0
1, 3144, Note_on_c, 1, 75, 127
1, 3144, Note_on_c, 1, 60, 127
1, 3167, Note_off_c, 1, 75, 0
1, 3167, Note_off_c, 1, 60, 0
1, 3168, Note_on_c, 1, 74, 127
1, 3168, Note_on_c, 1, 58, 127
1, 3191, Note_off_c, 1, 58, 0
1, 3192, Note_on_c, 1, 56, 127
1, 3213, Note_off_c, 1, 70, 0
1, 3215, Note_off_c, 1, 56, 0
1, 3216, Note_on_c, 1, 71, 127
1, 3216, Note_on_c, 1, 55, 127
1, 3235, Note_off_c, 1, 74, 0
1, 3239, Note_off_c, 1, 55, 0
1, 3240, Note_on_c, 1, 80, 127
1, 3240, Note_on_c, 1, 53, 127
1, 3261, Note_off_c, 1, 71, 0
1, 3263, Note_off_c, 1, 80, 0
1, 3263, Note_off_c, 1, 53, 0
1, 3264, Note_on_c, 1, 72, 127
1, 3264, Note_on_c, 1, 79, 127
1, 3264, Note_on_c, 1, 51, 127
1, 3287, Note_off_c, 1, 79, 0
1, 3287, Note_off_c, 1, 51, 0
1, 3288, Note_on_c, 1, 77, 127
1, 3288, Note_on_c, 1, 50, 127
1, 3311, Note_off_c, 1, 77, 0
1, 3311, Note_off_c, 1, 50, 0
1, 3312, Note_on_c, 1, 75, 127
1, 3312, Note_on_c, 1, 48, 127
1, 3335, Note_off_c, 1, 72, 0
1, 3335, Note_off_c, 1, 75, 0
1, 3336, Note_on_c, 1, 74, 127
1, 3357, Note_off_c, 1, 48, 0
1, 3359, Note_off_c, 1, 74, 0
1, 3360, Note_on_c, 1, 74, 127
1, 3360, Note_on_c, 1, 77, 127
1, 3360, Note_on_c, 1, 60, 127
1, 3372, Note_off_c, 1, 74, 0
1, 3372, Note_on_c, 1, 75, 127
1, 3383, Note_off_c, 1, 77, 0
1, 3405, Note_off_c, 1, 60, 0
1, 3408, Note_off_c, 1, 75, 0
1, 3408, Note_on_c, 1, 59, 127
1, 3432, Note_on_c, 1, 72, 127
1, 3444, Note_off_c, 1, 72, 0
1, 3453, Note_off_c, 1, 59, 0
1, 3480, Note_on_c, 1, 70, 127
1, 3503, Note_off_c, 1, 70, 0
1, 3504, Note_on_c, 1, 68, 127
1, 3527, Note_off_c, 1, 68, 0
1, 3528, Note_on_c, 1, 82, 127
1, 3528, Note_on_c, 1, 67, 127
1, 3551, Note_off_c, 1, 82, 0
1, 3551, Note_off_c, 1, 67, 0
1, 3552, Note_on_c, 1, 80, 127
1, 3552, Note_on_c, 1, 73, 127
1, 3552, Note_on_c, 1, 65, 127
1, 3575, Note_off_c, 1, 80, 0
1, 3575, Note_off_c, 1, 65, 0
1, 3576, Note_on_c, 1, 79, 127
1, 3576, Note_on_c, 1, 63, 127
1, 3599, Note_off_c, 1, 79, 0
1, 3599, Note_off_c, 1, 63, 0
1, 3600, Note_on_c, 1, 77, 127
1, 3600, Note_on_c, 1, 61, 127
1, 3623, Note_off_c, 1, 61, 0
1, 3624, Note_on_c, 1, 60, 127
1, 3645, Note_off_c, 1, 73, 0
1, 3647, Note_off_c, 1, 60, 0
1, 3648, Note_on_c, 1, 74, 127
1, 3648, Note_on_c, 1, 58, 127
1, 3667, Note_off_c, 1, 77, 0
1, 3671, Note_off_c, 1, 58, 0
1, 3672, Note_on_c, 1, 84, 127
1, 3672, Note_on_c, 1, 56, 127
1, 3693, Note_off_c, 1, 74, 0
1, 3695, Note_off_c, 1, 84, 0
1, 3695, Note_off_c, 1, 56, 0
1, 3696, Note_on_c, 1, 82, 127
1, 3696, Note_on_c, 1, 75, 127
1, 3696, Note_on_c, 1, 55, 127
1, 3719, Note_off_c, 1, 82, 0
1, 3719, Note_off_c, 1, 55, 0
1, 3720, Note_on_c, 1, 80, 127
1, 3720, Note_on_c, 1, 53, 127
1, 3743, Note_off_c, 1, 80, 0
1, 3743, Note_off_c, 1, 53, 0
1, 3744, Note_on_c, 1, 79, 127
1, 3744, Note_on_c, 1, 51, 127
1, 3767, Note_off_c, 1, 51, 0
1, 3768, Note_on_c, 1, 49, 127
1, 3789, Note_off_c, 1, 75, 0
1, 3791, Note_off_c, 1, 49, 0
1, 3792, Note_on_c, 1, 76, 127
1, 3792, Note_on_c, 1, 48, 127
1, 3811, Note_off_c, 1, 79, 0
1, 3815, Note_off_c, 1, 48, 0
1, 3816, Note_on_c, 1, 85, 127
1, 3816, Note_on_c, 1, 46, 127
1, 3837, Note_off_c, 1, 76, 0
1, 3839, Note_off_c, 1, 85, 0
1, 3839, Note_off_c, 1, 46, 0
1, 3840, Note_on_c, 1, 84, 127
1, 3840, Note_on_c, 1, 77, 127
1, 3840, Note_on_c, 1, 44, 127
1, 3863, Note_off_c, 1, 84, 0
1, 3863, Note_off_c, 1, 44, 0
1, 3864, Note_on_c, 1, 82, 127
1, 3864, Note_on_c, 1, 43, 127
1, 3887, Note_off_c, 1, 82, 0
1, 3887, Note_off_c, 1, 43, 0
1, 3888, Note_on_c, 1, 80, 127
1, 3888, Note_on_c, 1, 41, 127
1, 3911, Note_off_c, 1, 77, 0
1, 3912, Note_off_c, 1, 80, 0
1, 3912, Note_on_c, 1, 79, 127
1, 3933, Note_off_c, 1, 41, 0
1, 3935, Note_off_c, 1, 79, 0
1, 3936, Note_on_c, 1, 82, 127
1, 3936, Note_on_c, 1, 79, 127
1, 3936, Note_on_c, 1, 53, 127
1, 3948, Note_off_c, 1, 79, 0
1, 3948, Note_on_c, 1, 80, 127
1, 3960, Note_off_c, 1, 82, 0
1, 3981, Note_off_c, 1, 53, 0
1, 3984, Note_off_c, 1, 80, 0
1, 3984, Note_on_c, 1, 52, 127
1, 4008, Note_on_c, 1, 77, 127
1, 4020, Note_off_c, 1, 77, 0
1, 4029, Note_off_c, 1, 52, 0
1, 4080, Note_on_c, 1, 76, 127
1, 4080, Note_on_c, 1, 41, 127
1, 4103, Note_off_c, 1, 76, 0
1, 4125, Note_off_c, 1, 41, 0
1, 4128, Note_on_c, 1, 72, 127
1, 4128, Note_on_c, 1, 76, 127
1, 4128, Note_on_c, 1, 53, 127
1, 4151, Note_off_c, 1, 76, 0
1, 4152, Note_on_c, 1, 77, 127
1, 4173, Note_off_c, 1, 53, 0
1, 4175, Note_off_c, 1, 77, 0
1, 4176, Note_on_c, 1, 82, 127
1, 4176, Note_on_c, 1, 55, 127
1, 4199, Note_off_c, 1, 72, 0
1, 4221, Note_off_c, 1, 55, 0
1, 4224, Note_on_c, 1, 43, 127
1, 4243, Note_off_c, 1, 82, 0
1, 4248, Note_on_c, 1, 80, 127
1, 4269, Note_off_c, 1, 43, 0
1, 4271, Note_off_c, 1, 80, 0
1, 4272, Note_on_c, 1, 72, 127
1, 4272, Note_on_c, 1, 76, 127
1, 4272, Note_on_c, 1, 55, 127
1, 4295, Note_off_c, 1, 76, 0
1, 4296, Note_on_c, 1, 77, 127
1, 4317, Note_off_c, 1, 55, 0
1, 4319, Note_off_c, 1, 77, 0
1, 4320, Note_on_c, 1, 84, 127
1, 4320, Note_on_c, 1, 56, 127
1, 4343, Note_off_c, 1, 72, 0
1, 4365, Note_off_c, 1, 56, 0
1, 4368, Note_on_c, 1, 44, 127
1, 4387, Note_off_c, 1, 84, 0
1, 4392, Note_on_c, 1, 80, 127
1, 4413, Note_off_c, 1, 44, 0
1, 4415, Note_off_c, 1, 80, 0
1, 4416, Note_on_c, 1, 72, 127
1, 4416, Note_on_c, 1, 76, 127
1, 4416, Note_on_c, 1, 56, 127
1, 4439, Note_off_c, 1, 76, 0
1, 4440, Note_on_c, 1, 77, 127
1, 4461, Note_off_c, 1, 56, 0
1, 4463, Note_off_c, 1, 77, 0
1, 4464, Note_on_c, 1, 85, 127
1, 4464, Note_on_c, 1, 58, 127
1, 4487, Note_off_c, 1, 72, 0
1, 4509, Note_off_c, 1, 58, 0
1, 4511, Note_off_c, 1, 85, 0
1, 4512, Note_on_c, 1, 76, 127
1, 4512, Note_on_c, 1, 82, 127
1, 4512, Note_on_c, 1, 55, 127
1, 4535, Note_off_c, 1, 76, 0
1, 4536, Note_on_c, 1, 77, 127
1, 4557, Note_off_c, 1, 82, 0
1, 4557, Note_off_c, 1, 55, 0
1, 4559, Note_off_c, 1, 77, 0
1, 4560, Note_on_c, 1, 70, 127
1, 4560, Note_on_c, 1, 79, 127
1, 4560, Note_on_c, 1, 58, 127
1, 4583, Note_off_c, 1, 70, 0
1, 4605, Note_off_c, 1, 58, 0
1, 4608, Note_on_c, 1, 68, 127
1, 4608, Note_on_c, 1, 55, 127
1, 4631, Note_off_c, 1, 79, 0
1, 4632, Note_on_c, 1, 80, 127
1, 4653, Note_off_c, 1, 68, 0
1, 4653, Note_off_c, 1, 55, 0
1, 4655, Note_off_c, 1, 80, 0
1, 4656, Note_on_c, 1, 80, 127
1, 4656, Note_on_c, 1, 76, 127
1, 4656, Note_on_c, 1, 50, 127
1, 4679, Note_off_c, 1, 76, 0
1, 4680, Note_on_c, 1, 77, 127
1, 4701, Note_off_c, 1, 50, 0
1, 4703, Note_off_c, 1, 77, 0
1, 4704, Note_on_c, 1, 71, 127
1, 4704, Note_on_c, 1, 53, 127
1, 4727, Note_off_c, 1, 71, 0
1, 4728, Note_on_c, 1, 72, 127
1, 4749, Note_off_c, 1, 53, 0
1, 4751, Note_off_c, 1, 72, 0
1, 4752, Note_on_c, 1, 55, 127
1, 4775, Note_off_c, 1, 80, 0
1, 4797, Note_off_c, 1, 55, 0
1, 4800, Note_on_c, 1, 79, 127
1, 4800, Note_on_c, 1, 72, 127
1, 4800, Note_on_c, 1, 57, 127
1, 4823, Note_off_c, 1, 79, 0
1, 4824, Note_on_c, 1, 77, 127
1, 4845, Note_off_c, 1, 72, 0
1, 4845, Note_off_c, 1, 57, 0
1, 4847, Note_off_c, 1, 77, 0
1, 4848, Note_on_c, 1, 75, 127
1, 4848, Note_on_c, 1, 74, 127
1, 4848, Note_on_c, 1, 59, 127
1, 4871, Note_off_c, 1, 75, 0
1, 4893, Note_off_c, 1, 59, 0
1, 4896, Note_on_c, 1, 60, 127
1, 4919, Note_off_c, 1, 74, 0
1, 4920, Note_on_c, 1, 79, 127
1, 4941, Note_off_c, 1, 60, 0
1, 4943, Note_off_c, 1, 79, 0
1, 4944, Note_on_c, 1, 78, 127
1, 4944, Note_on_c, 1, 74, 127
1, 4944, Note_on_c, 1, 48, 127
1, 4967, Note_off_c, 1, 74, 0
1, 4968, Note_on_c, 1, 75, 127
1, 4989, Note_off_c, 1, 48, 0
1, 4991, Note_off_c, 1, 75, 0
1, 4992, Note_on_c, 1, 69, 127
1, 4992, Note_on_c, 1, 51, 127
1, 5015, Note_off_c, 1, 69, 0
1, 5016, Note_on_c, 1, 70, 127
1, 5037, Note_off_c, 1, 51, 0
1, 5039, Note_off_c, 1, 70, 0
1, 5040, Note_on_c, 1, 53, 127
1, 5063, Note_off_c, 1, 78, 0
1, 5085, Note_off_c, 1, 53, 0
1, 5088, Note_on_c, 1, 77, 127
1, 5088, Note_on_c, 1, 70, 127
1, 5088, Note_on_c, 1, 55, 127
1, 5111, Note_off_c, 1, 77, 0
1, 5112, Note_on_c, 1, 75, 127
1, 5133, Note_off_c, 1, 70, 0
1, 5133, Note_off_c, 1, 55, 0
1, 5135, Note_off_c, 1, 75, 0
1, 5136, Note_on_c, 1, 73, 127
1, 5136, Note_on_c, 1, 72, 127
1, 5136, Note_on_c, 1, 57, 127
1, 5159, Note_off_c, 1, 73, 0
1, 5181, Note_off_c, 1, 57, 0
1, 5184, Note_on_c, 1, 58, 127
1, 5207, Note_off_c, 1, 72, 0
1, 5208, Note_on_c, 1, 77, 127
1, 5229, Note_off_c, 1, 58, 0
1, 5231, Note_off_c, 1, 77, 0
1, 5232, Note_on_c, 1, 77, 127
1, 5232, Note_on_c, 1, 72, 127
1, 5232, Note_on_c, 1, 46, 127
1, 5255, Note_off_c, 1, 72, 0
1, 5256, Note_on_c, 1, 73, 127
1, 5277, Note_off_c, 1, 46, 0
1, 5279, Note_off_c, 1, 73, 0
1, 5280, Note_on_c, 1, 67, 127
1, 5280, Note_on_c, 1, 49, 127
1, 5303, Note_off_c, 1, 67, 0
1, 5304, Note_on_c, 1, 68, 127
1, 5325, Note_off_c, 1, 49, 0
1, 5327, Note_off_c, 1, 68, 0
1, 5328, Note_on_c, 1, 51, 127
1, 5351, Note_off_c, 1, 77, 0
1, 5373, Note_off_c, 1, 51, 0
1, 5376, Note_on_c, 1, 75, 127
1, 5376, Note_on_c, 1, 68, 127
1, 5376, Note_on_c, 1, 53, 127
1, 5399, Note_off_c, 1, 75, 0
1, 5400, Note_on_c, 1, 73, 127
1, 5421, Note_off_c, 1, 68, 0
1, 5421, Note_off_c, 1, 53, 0
1, 5423, Note_off_c, 1, 73, 0
1, 5424, Note_on_c, 1, 72, 127
1, 5424, Note_on_c, 1, 70, 127
1, 5424, Note_on_c, 1, 55, 127
1, 5447, Note_off_c, 1, 72, 0
1, 5469, Note_off_c, 1, 55, 0
1, 5472, Note_on_c, 1, 56, 127
1, 5495, Note_off_c, 1, 70, 0
1, 5517, Note_off_c, 1, 56, 0
1, 5520, Note_on_c, 1, 67, 127
1, 5520, Note_on_c, 1, 44, 127
1, 5543, Note_off_c, 1, 67, 0
1, 5544, Note_on_c, 1, 68, 127
1, 5565, Note_off_c, 1, 44, 0
1, 5567, Note_off_c, 1, 68, 0
1, 5568, Note_on_c, 1, 67, 127
1, 5568, Note_on_c, 1, 63, 127
1, 5568, Note_on_c, 1, 56, 127
1, 5591, Note_off_c, 1, 67, 0
1, 5592, Note_on_c, 1, 68, 127
1, 5613, Note_off_c, 1, 56, 0
1, 5615, Note_off_c, 1, 68, 0
1, 5616, Note_on_c, 1, 73, 127
1, 5616, Note_on_c, 1, 58, 127
1, 5639, Note_off_c, 1, 63, 0
1, 5661, Note_off_c, 1, 58, 0
1, 5664, Note_on_c, 1, 46, 127
1, 5683, Note_off_c, 1, 73, 0
1, 5688, Note_on_c, 1, 72, 127
1, 5709, Note_off_c, 1, 46, 0
1, 5711, Note_off_c, 1, 72, 0
1, 5712, Note_on_c, 1, 67, 127
1, 5712, Note_on_c, 1, 63, 127
1, 5712, Note_on_c, 1, 58, 127
1, 5735, Note_off_c, 1, 67, 0
1, 5736, Note_on_c, 1, 68, 127
1, 5757, Note_off_c, 1, 58, 0
1, 5759, Note_off_c, 1, 68, 0
1, 5760, Note_on_c, 1, 75, 127
1, 5760, Note_on_c, 1, 60, 127
1, 5783, Note_off_c, 1, 63, 0
1, 5805, Note_off_c, 1, 60, 0
1, 5808, Note_on_c, 1, 48, 127
1, 5827, Note_off_c, 1, 75, 0
1, 5832, Note_on_c, 1, 72, 127
1, 5853, Note_off_c, 1, 48, 0
1, 5855, Note_off_c, 1, 72, 0
1, 5856, Note_on_c, 1, 67, 127
1, 5856, Note_on_c, 1, 63, 127
1, 5856, Note_on_c, 1, 60, 127
1, 5879, Note_off_c, 1, 67, 0
1, 5880, Note_on_c, 1, 68, 127
1, 5901, Note_off_c, 1, 60, 0
1, 5903, Note_off_c, 1, 68, 0
1, 5904, Note_on_c, 1, 77, 127
1, 5904, Note_on_c, 1, 61, 127
1, 5927, Note_off_c, 1, 63, 0
1, 5949, Note_off_c, 1, 61, 0
1, 5951, Note_off_c, 1, 77, 0
1, 5952, Note_on_c, 1, 73, 127
1, 5952, Note_on_c, 1, 67, 127
1, 5952, Note_on_c, 1, 58, 127
1, 5975, Note_off_c, 1, 67, 0
1, 5976, Note_on_c, 1, 68, 127
1, 5997, Note_off_c, 1, 73, 0
1, 5997, Note_off_c, 1, 58, 0
1, 5999, Note_off_c, 1, 68, 0
1, 6000, Note_on_c, 1, 82, 127
1, 6000, Note_on_c, 1, 61, 127
1, 6000, Note_on_c, 1, 51, 127
1, 6023, Note_off_c, 1, 61, 0
1, 6024, Note_on_c, 1, 70, 127
1, 6045, Note_off_c, 1, 51, 0
1, 6047, Note_off_c, 1, 70, 0
1, 6048, Note_on_c, 1, 60, 127
1, 6048, Note_on_c, 1, 56, 127
1, 6071, Note_off_c, 1, 56, 0
1, 6072, Note_on_c, 1, 58, 127
1, 6093, Note_off_c, 1, 82, 0
1, 6095, Note_off_c, 1, 58, 0
1, 6096, Note_on_c, 1, 75, 127
1, 6115, Note_off_c, 1, 60, 0
1, 6120, Note_on_c, 1, 55, 127
1, 6143, Note_off_c, 1, 75, 0
1, 6143, Note_off_c, 1, 55, 0
1, 6144, Note_on_c, 1, 80, 127
1, 6144, Note_on_c, 1, 73, 127
1, 6144, Note_on_c, 1, 53, 127
1, 6167, Note_off_c, 1, 73, 0
1, 6167, Note_off_c, 1, 53, 0
1, 6168, Note_on_c, 1, 72, 127
1, 6168, Note_on_c, 1, 51, 127
1, 6191, Note_off_c, 1, 72, 0
1, 6191, Note_off_c, 1, 51, 0
1, 6192, Note_on_c, 1, 70, 127
1, 6192, Note_on_c, 1, 50, 127
1, 6215, Note_off_c, 1, 70, 0
1, 6216, Note_on_c, 1, 68, 127
1, 6237, Note_off_c, 1, 80, 0
1, 6237, Note_off_c, 1, 50, 0
1, 6239, Note_off_c, 1, 68, 0
1, 6240, Note_on_c, 1, 79, 127
1, 6240, Note_on_c, 1, 70, 127
1, 6240, Note_on_c, 1, 52, 127
1, 6263, Note_off_c, 1, 79, 0
1, 6263, Note_off_c, 1, 70, 0
1, 6264, Note_on_c, 1, 77, 127
1, 6264, Note_on_c, 1, 73, 127
1, 6285, Note_off_c, 1, 52, 0
1, 6287, Note_off_c, 1, 77, 0
1, 6287, Note_off_c, 1, 73, 0
1, 6288, Note_on_c, 1, 79, 127
1, 6288, Note_on_c, 1, 72, 127
1, 6288, Note_on_c, 1, 48, 127
1, 6311, Note_off_c, 1, 72, 0
1, 6312, Note_on_c, 1, 70, 127
1, 6333, Note_off_c, 1, 48, 0
1, 6335, Note_off_c, 1, 70, 0
1, 6336, Note_on_c, 1, 68, 127
1, 6336, Note_on_c, 1, 53, 127
1, 6359, Note_off_c, 1, 68, 0
1, 6359, Note_off_c, 1, 53, 0
1, 6360, Note_on_c, 1, 67, 127
1, 6360, Note_on_c, 1, 55, 127
1, 6381, Note_off_c, 1, 79, 0
1, 6383, Note_off_c, 1, 67, 0
1, 6383, Note_off_c, 1, 55, 0
1, 6384, Note_on_c, 1, 72, 127
1, 6384, Note_on_c, 1, 68, 127
1, 6384, Note_on_c, 1, 53, 127
1, 6407, Note_off_c, 1, 68, 0
1, 6407, Note_off_c, 1, 53, 0
1, 6408, Note_on_c, 1, 51, 127
1, 6431, Note_off_c, 1, 72, 0
1, 6431, Note_off_c, 1, 51, 0
1, 6432, Note_on_c, 1, 77, 127
1, 6432, Note_on_c, 1, 70, 127
1, 6432, Note_on_c, 1, 50, 127
1, 6455, Note_off_c, 1, 70, 0
1, 6455, Note_off_c, 1, 50, 0
1, 6456, Note_on_c, 1, 68, 127
1, 6456, Note_on_c, 1, 48, 127
1, 6479, Note_off_c, 1, 68, 0
1, 6479, Note_off_c, 1, 48, 0
1, 6480, Note_on_c, 1, 67, 127
1, 6480, Note_on_c, 1, 47, 127
1, 6503, Note_off_c, 1, 67, 0
1, 6504, Note_on_c, 1, 65, 127
1, 6525, Note_off_c, 1, 77, 0
1, 6525, Note_off_c, 1, 47, 0
1, 6527, Note_off_c, 1, 65, 0
1, 6528, Note_on_c, 1, 75, 127
1, 6528, Note_on_c, 1, 67, 127
1, 6528, Note_on_c, 1, 48, 127
1, 6551, Note_off_c, 1, 75, 0
1, 6551, Note_off_c, 1, 67, 0
1, 6552, Note_on_c, 1, 73, 127
1, 6552, Note_on_c, 1, 70, 127
1, 6573, Note_off_c, 1, 48, 0
1, 6575, Note_off_c, 1, 73, 0
1, 6575, Note_off_c, 1, 70, 0
1, 6576, Note_on_c, 1, 75, 127
1, 6576, Note_on_c, 1, 68, 127
1, 6576, Note_on_c, 1, 60, 127
1, 6599, Note_off_c, 1, 68, 0
1, 6600, Note_on_c, 1, 67, 127
1, 6621, Note_off_c, 1, 60, 0
1, 6623, Note_off_c, 1, 67, 0
1, 6624, Note_on_c, 1, 65, 127
1, 6624, Note_on_c, 1, 61, 127
1, 6647, Note_off_c, 1, 61, 0
1, 6648, Note_on_c, 1, 63, 127
1, 6669, Note_off_c, 1, 75, 0
1, 6671, Note_off_c, 1, 63, 0
1, 6691, Note_off_c, 1, 65, 0
1, 6720, Note_on_c, 1, 73, 127
1, 6720, Note_on_c, 1, 67, 127
1, 6720, Note_on_c, 1, 58, 127
1, 6743, Note_off_c, 1, 67, 0
1, 6743, Note_off_c, 1, 58, 0
1, 6744, Note_on_c, 1, 68, 127
1, 6744, Note_on_c, 1, 56, 127
1, 6767, Note_off_c, 1, 68, 0
1, 6767, Note_off_c, 1, 56, 0
1, 6768, Note_on_c, 1, 70, 127
1, 6768, Note_on_c, 1, 55, 127
1, 6791, Note_off_c, 1, 70, 0
1, 6792, Note_on_c, 1, 63, 127
1, 6813, Note_off_c, 1, 73, 0
1, 6813, Note_off_c, 1, 55, 0
1, 6815, Note_off_c, 1, 63, 0
1, 6816, Note_on_c, 1, 72, 127
1, 6816, Note_on_c, 1, 75, 127
1, 6816, Note_on_c, 1, 56, 127
1, 6839, Note_off_c, 1, 72, 0
1, 6840, Note_on_c, 1, 70, 127
1, 6861, Note_off_c, 1, 75, 0
1, 6861, Note_off_c, 1, 56, 0
1, 6863, Note_off_c, 1, 70, 0
1, 6864, Note_on_c, 1, 72, 127
1, 6864, Note_on_c, 1, 80, 127
1, 6864, Note_on_c, 1, 53, 127
1, 6887, Note_off_c, 1, 72, 0
1, 6888, Note_on_c, 1, 73, 127
1, 6909, Note_off_c, 1, 53, 0
1, 6911, Note_off_c, 1, 73, 0
1, 6912, Note_on_c, 1, 75, 127
1, 6912, Note_on_c, 1, 49, 127
1, 6935, Note_off_c, 1, 75, 0
1, 6936, Note_on_c, 1, 77, 127
1, 6957, Note_off_c, 1, 80, 0
1, 6957, Note_off_c, 1, 49, 0
1, 6959, Note_off_c, 1, 77, 0
1, 6960, Note_on_c, 1, 70, 127
1, 6960, Note_on_c, 1, 79, 127
1, 6960, Note_on_c, 1, 51, 127
1, 6983, Note_off_c, 1, 70, 0
1, 6983, Note_off_c, 1, 79, 0
1, 6984, Note_on_c, 1, 73, 127
1, 6984, Note_on_c, 1, 77, 127
1, 7005, Note_off_c, 1, 51, 0
1, 7007, Note_off_c, 1, 73, 0
1, 7007, Note_off_c, 1, 77, 0
1, 7008, Note_on_c, 1, 72, 127
1, 7008, Note_on_c, 1, 79, 127
1, 7008, Note_on_c, 1, 52, 127
1, 7031, Note_off_c, 1, 72, 0
1, 7032, Note_on_c, 1, 70, 127
1, 7053, Note_off_c, 1, 52, 0
1, 7055, Note_off_c, 1, 70, 0
1, 7056, Note_on_c, 1, 68, 127
1, 7056, Note_on_c, 1, 53, 127
1, 7079, Note_off_c, 1, 68, 0
1, 7080, Note_on_c, 1, 67, 127
1, 7101, Note_off_c, 1, 79, 0
1, 7101, Note_off_c, 1, 53, 0
1, 7103, Note_off_c, 1, 67, 0
1, 7104, Note_on_c, 1, 65, 127
1, 7104, Note_on_c, 1, 72, 127
1, 7104, Note_on_c, 1, 56, 127
1, 7127, Note_off_c, 1, 65, 0
1, 7128, Note_on_c, 1, 67, 127
1, 7149, Note_off_c, 1, 72, 0
1, 7149, Note_off_c, 1, 56, 0
1, 7151, Note_off_c, 1, 67, 0
1, 7152, Note_on_c, 1, 68, 127
1, 7152, Note_on_c, 1, 77, 127
1, 7152, Note_on_c, 1, 61, 127
1, 7175, Note_off_c, 1, 68, 0
1, 7176, Note_on_c, 1, 70, 127
1, 7197, Note_off_c, 1, 61, 0
1, 7199, Note_off_c, 1, 70, 0
1, 7200, Note_on_c, 1, 72, 127
1, 7200, Note_on_c, 1, 58, 127
1, 7223, Note_off_c, 1, 72, 0
1, 7224, Note_on_c, 1, 73, 127
1, 7245, Note_off_c, 1, 77, 0
1, 7245, Note_off_c, 1, 58, 0
1, 7247, Note_off_c, 1, 73, 0
1, 7248, Note_on_c, 1, 67, 127
1, 7248, Note_on_c, 1, 75, 127
1, 7248, Note_on_c, 1, 60, 127
1, 7271, Note_off_c, 1, 67, 0
1, 7271, Note_off_c, 1, 75, 0
1, 7272, Note_on_c, 1, 70, 127
1, 7272, Note_on_c, 1, 74, 127
1, 7293, Note_off_c, 1, 60, 0
1, 7295, Note_off_c, 1, 70, 0
1, 7295, Note_off_c, 1, 74, 0
1, 7296, Note_on_c, 1, 68, 127
1, 7296, Note_on_c, 1, 75, 127
1, 7296, Note_on_c, 1, 58, 127
1, 7319, Note_off_c, 1, 68, 0
1, 7320, Note_on_c, 1, 67, 127
1, 7341, Note_off_c, 1, 58, 0
1, 7343, Note_off_c, 1, 67, 0
1, 7344, Note_on_c, 1, 65, 127
1, 7344, Note_on_c, 1, 57, 127
1, 7367, Note_off_c, 1, 75, 0
1, 7367, Note_off_c, 1, 57, 0
1, 7368, Note_on_c, 1, 60, 127
1, 7391, Note_off_c, 1, 60, 0
1, 7392, Note_on_c, 1, 73, 127
1, 7415, Note_off_c, 1, 73, 0
1, 7416, Note_on_c, 1, 72, 127
1, 7416, Note_on_c, 1, 56, 127
1, 7433, Note_off_c, 1, 65, 0
1, 7439, Note_off_c, 1, 72, 0
1, 7439, Note_off_c, 1, 56, 0
1, 7440, Note_on_c, 1, 70, 127
1, 7440, Note_on_c, 1, 73, 127
1, 7440, Note_on_c, 1, 55, 127
1, 7463, Note_off_c, 1, 73, 0
1, 7463, Note_off_c, 1, 55, 0
1, 7464, Note_on_c, 1, 82, 127
1, 7464, Note_on_c, 1, 53, 127
1, 7485, Note_off_c, 1, 70, 0
1, 7487, Note_off_c, 1, 53, 0
1, 7488, Note_on_c, 1, 63, 127
1, 7511, Note_off_c, 1, 82, 0
1, 7512, Note_on_c, 1, 58, 127
1, 7535, Note_off_c, 1, 58, 0
1, 7536, Note_on_c, 1, 72, 127
1, 7536, Note_on_c, 1, 56, 127
1, 7559, Note_off_c, 1, 72, 0
1, 7559, Note_off_c, 1, 56, 0
1, 7560, Note_on_c, 1, 71, 127
1, 7577, Note_off_c, 1, 63, 0
1, 7583, Note_off_c, 1, 71, 0
1, 7584, Note_on_c, 1, 68, 127
1, 7584, Note_on_c, 1, 72, 127
1, 7584, Note_on_c, 1, 53, 127
1, 7607, Note_off_c, 1, 72, 0
1, 7607, Note_off_c, 1, 53, 0
1, 7608, Note_on_c, 1, 80, 127
1, 7608, Note_on_c, 1, 51, 127
1, 7629, Note_off_c, 1, 68, 0
1, 7631, Note_off_c, 1, 51, 0
1, 7632, Note_on_c, 1, 62, 127
1, 7655, Note_off_c, 1, 80, 0
1, 7656, Note_on_c, 1, 79, 127
1, 7679, Note_off_c, 1, 79, 0
1, 7680, Note_on_c, 1, 77, 127
1, 7680, Note_on_c, 1, 55, 127
1, 7703, Note_off_c, 1, 77, 0
1, 7704, Note_on_c, 1, 75, 127
1, 7721, Note_off_c, 1, 62, 0
1, 7725, Note_off_c, 1, 55, 0
1, 7727, Note_off_c, 1, 75, 0
1, 7728, Note_on_c, 1, 77, 127
1, 7728, Note_on_c, 1, 74, 127
1, 7728, Note_on_c, 1, 56, 127
1, 7751, Note_off_c, 1, 74, 0
1, 7752, Note_on_c, 1, 72, 127
1, 7773, Note_off_c, 1, 56, 0
1, 7775, Note_off_c, 1, 72, 0
1, 7776, Note_on_c, 1, 71, 127
1, 7776, Note_on_c, 1, 55, 127
1, 7799, Note_off_c, 1, 77, 0
1, 7800, Note_on_c, 1, 80, 127
1, 7821, Note_off_c, 1, 55, 0
1, 7823, Note_off_c, 1, 80, 0
1, 7824, Note_on_c, 1, 79, 127
1, 7824, Note_on_c, 1, 43, 127
1, 7843, Note_off_c, 1, 71, 0
1, 7847, Note_off_c, 1, 79, 0
1, 7869, Note_off_c, 1, 43, 0
1, 7872, Note_on_c, 1, 75, 127
1, 7872, Note_on_c, 1, 84, 127
1, 7872, Note_on_c, 1, 44, 127
1, 7895, Note_off_c, 1, 75, 0
1, 7895, Note_off_c, 1, 84, 0
1, 7896, Note_on_c, 1, 74, 127
1, 7896, Note_on_c, 1, 82, 127
1, 7919, Note_off_c, 1, 74, 0
1, 7919, Note_off_c, 1, 82, 0
1, 7920, Note_on_c, 1, 72, 127
1, 7920, Note_on_c, 1, 80, 127
1, 7943, Note_off_c, 1, 80, 0
1, 7944, Note_on_c, 1, 79, 127
1, 7965, Note_off_c, 1, 44, 0
1, 7967, Note_off_c, 1, 79, 0
1, 7968, Note_on_c, 1, 77, 127
1, 7968, Note_on_c, 1, 45, 127
1, 7987, Note_off_c, 1, 72, 0
1, 7991, Note_off_c, 1, 77, 0
1, 8013, Note_off_c, 1, 45, 0
1, 8016, Note_on_c, 1, 77, 127
1, 8016, Note_on_c, 1, 74, 127
1, 8016, Note_on_c, 1, 46, 127
1, 8039, Note_off_c, 1, 77, 0
1, 8039, Note_off_c, 1, 74, 0
1, 8040, Note_on_c, 1, 75, 127
1, 8040, Note_on_c, 1, 72, 127
1, 8063, Note_off_c, 1, 75, 0
1, 8063, Note_off_c, 1, 72, 0
1, 8064, Note_on_c, 1, 70, 127
1, 8087, Note_off_c, 1, 70, 0
1, 8088, Note_on_c, 1, 68, 127
1, 8109, Note_off_c, 1, 46, 0
1, 8111, Note_off_c, 1, 68, 0
1, 8112, Note_on_c, 1, 67, 127
1, 8112, Note_on_c, 1, 47, 127
1, 8135, Note_off_c, 1, 67, 0
1, 8136, Note_on_c, 1, 80, 127
1, 8136, Note_on_c, 1, 65, 127
1, 8157, Note_off_c, 1, 47, 0
1, 8159, Note_off_c, 1, 80, 0
1, 8159, Note_off_c, 1, 65, 0
1, 8160, Note_on_c, 1, 79, 127
1, 8160, Note_on_c, 1, 63, 127
1, 8160, Note_on_c, 1, 48, 127
1, 8183, Note_off_c, 1, 79, 0
1, 8183, Note_off_c, 1, 63, 0
1, 8184, Note_on_c, 1, 77, 127
1, 8184, Note_on_c, 1, 62, 127
1, 8207, Note_off_c, 1, 77, 0
1, 8207, Note_off_c, 1, 62, 0
1, 8208, Note_on_c, 1, 75, 127
1, 8208, Note_on_c, 1, 60, 127
1, 8231, Note_off_c, 1, 48, 0
1, 8232, Note_off_c, 1, 75, 0
1, 8232, Note_on_c, 1, 74, 127
1, 8232, Note_on_c, 1, 50, 127
1, 8253, Note_off_c, 1, 60, 0
1, 8255, Note_off_c, 1, 74, 0
1, 8255, Note_off_c, 1, 50, 0
1, 8256, Note_on_c, 1, 77, 127
1, 8256, Note_on_c, 1, 72, 127
1, 8256, Note_on_c, 1, 50, 127
1, 8268, Note_off_c, 1, 50, 0
1, 8268, Note_on_c, 1, 51, 127
1, 8280, Note_off_c, 1, 77, 0
1, 8280, Note_off_c, 1, 51, 0
1, 8280, Note_on_c, 1, 75, 127
1, 8301, Note_off_c, 1, 72, 0
1, 8303, Note_off_c, 1, 75, 0
1, 8304, Note_on_c, 1, 74, 127
1, 8304, Note_on_c, 1, 71, 127
1, 8328, Note_off_c, 1, 74, 0
1, 8328, Note_on_c, 1, 80, 127
1, 8328, Note_on_c, 1, 48, 127
1, 8340, Note_off_c, 1, 48, 0
1, 8349, Note_off_c, 1, 71, 0
1, 8351, Note_off_c, 1, 80, 0
1, 8352, Note_on_c, 1, 79, 127
1, 8376, Note_off_c, 1, 79, 0
1, 8376, Note_on_c, 1, 53, 127
1, 8399, Note_off_c, 1, 53, 0
1, 8412, Note_on_c, 1, 55, 127
1, 8424, Note_off_c, 1, 55, 0
1, 8544, Note_on_c, 1, 77, 127
1, 8544, Note_on_c, 1, 84, 127
1, 8544, Note_on_c, 1, 41, 127
1, 8568, Note_off_c, 1, 77, 0
1, 8568, Note_on_c, 1, 75, 127
1, 8589, Note_off_c, 1, 84, 0
1, 8589, Note_off_c, 1, 41, 0
1, 8591, Note_off_c, 1, 75, 0
1, 8592, Note_on_c, 1, 74, 127
1, 8592, Note_on_c, 1, 83, 127
1, 8592, Note_on_c, 1, 43, 127
1, 8616, Note_off_c, 1, 74, 0
1, 8616, Note_on_c, 1, 75, 127
1, 8637, Note_off_c, 1, 83, 0
1, 8637, Note_off_c, 1, 43, 0
1, 8639, Note_off_c, 1, 75, 0
1, 8640, Note_on_c, 1, 72, 127
1, 8640, Note_on_c, 1, 84, 127
1, 8640, Note_on_c, 1, 36, 127
1, 8663, Note_off_c, 1, 36, 0
1, 8664, Note_on_c, 1, 48, 127
1, 8685, Note_off_c, 1, 84, 0
1, 8687, Note_off_c, 1, 48, 0
1, 8688, Note_on_c, 1, 67, 127
1, 8688, Note_on_c, 1, 46, 127
1, 8711, Note_off_c, 1, 46, 0
1, 8712, Note_on_c, 1, 44, 127
1, 8729, Note_off_c, 1, 72, 0
1, 8733, Note_off_c, 1, 67, 0
1, 8735, Note_off_c, 1, 44, 0
1, 8736, Note_on_c, 1, 68, 127
1, 8736, Note_on_c, 1, 43, 127
1, 8759, Note_off_c, 1, 43, 0
1, 8760, Note_on_c, 1, 41, 127
1, 8783, Note_off_c, 1, 41, 0
1, 8784, Note_on_c, 1, 49, 127
1, 8829, Note_off_c, 1, 68, 0
1, 8832, Note_on_c, 1, 64, 127
1, 8873, Note_off_c, 1, 49, 0
1, 8877, Note_off_c, 1, 64, 0
1, 8880, Note_on_c, 1, 65, 127
1, 8928, Note_on_c, 1, 50, 127
1, 8951, Note_off_c, 1, 50, 0
1, 8952, Note_on_c, 1, 53, 127
1, 8973, Note_off_c, 1, 65, 0
1, 8975, Note_off_c, 1, 53, 0
1, 8976, Note_on_c, 1, 69, 127
1, 8976, Note_on_c, 1, 51, 127
1, 8999, Note_off_c, 1, 51, 0
1, 9000, Note_on_c, 1, 50, 127
1, 9021, Note_off_c, 1, 69, 0
1, 9023, Note_off_c, 1, 50, 0
1, 9024, Note_on_c, 1, 70, 127
1, 9024, Note_on_c, 1, 48, 127
1, 9047, Note_off_c, 1, 48, 0
1, 9048, Note_on_c, 1, 46, 127
1, 9071, Note_off_c, 1, 46, 0
1, 9072, Note_on_c, 1, 51, 127
1, 9117, Note_off_c, 1, 70, 0
1, 9120, Note_on_c, 1, 65, 127
1, 9161, Note_off_c, 1, 51, 0
1, 9165, Note_off_c, 1, 65, 0
1, 9168, Note_on_c, 1, 67, 127
1, 9216, Note_on_c, 1, 52, 127
1, 9239, Note_off_c, 1, 52, 0
1, 9240, Note_on_c, 1, 55, 127
1, 9261, Note_off_c, 1, 67, 0
1, 9263, Note_off_c, 1, 55, 0
1, 9264, Note_on_c, 1, 71, 127
1, 9264, Note_on_c, 1, 53, 127
1, 9287, Note_off_c, 1, 53, 0
1, 9288, Note_on_c, 1, 52, 127
1, 9309, Note_off_c, 1, 71, 0
1, 9311, Note_off_c, 1, 52, 0
1, 9312, Note_on_c, 1, 72, 127
1, 9312, Note_on_c, 1, 50, 127
1, 9335, Note_off_c, 1, 50, 0
1, 9336, Note_on_c, 1, 48, 127
1, 9359, Note_off_c, 1, 48, 0
1, 9360, Note_on_c, 1, 53, 127
1, 9383, Note_off_c, 1, 72, 0
1, 9384, Note_on_c, 1, 67, 127
1, 9405, Note_off_c, 1, 53, 0
1, 9407, Note_off_c, 1, 67, 0
1, 9408, Note_on_c, 1, 68, 127
1, 9408, Note_on_c, 1, 48, 127
1, 9431, Note_off_c, 1, 68, 0
1, 9432, Note_on_c, 1, 64, 127
1, 9453, Note_off_c, 1, 48, 0
1, 9455, Note_off_c, 1, 64, 0
1, 9456, Note_on_c, 1, 65, 127
1, 9456, Note_on_c, 1, 44, 127
1, 9479, Note_off_c, 1, 65, 0
1, 9480, Note_on_c, 1, 68, 127
1, 9501, Note_off_c, 1, 44, 0
1, 9503, Note_off_c, 1, 68, 0
1, 9504, Note_on_c, 1, 72, 127
1, 9504, Note_on_c, 1, 41, 127
1, 9527, Note_off_c, 1, 72, 0
1, 9527, Note_off_c, 1, 41, 0
1, 9528, Note_on_c, 1, 65, 127
1, 9528, Note_on_c, 1, 53, 127
1, 9551, Note_off_c, 1, 65, 0
1, 9551, Note_off_c, 1, 53, 0
1, 9552, Note_on_c, 1, 72, 127
1, 9552, Note_on_c, 1, 69, 127
1, 9552, Note_on_c, 1, 51, 127
1, 9575, Note_off_c, 1, 69, 0
1, 9575, Note_off_c, 1, 51, 0
1, 9576, Note_on_c, 1, 49, 127
1, 9599, Note_off_c, 1, 72, 0
1, 9599, Note_off_c, 1, 49, 0
1, 9600, Note_on_c, 1, 73, 127
1, 9600, Note_on_c, 1, 77, 127
1, 9600, Note_on_c, 1, 48, 127
1, 9623, Note_off_c, 1, 48, 0
1, 9624, Note_on_c, 1, 46, 127
1, 9647, Note_off_c, 1, 46, 0
1, 9648, Note_on_c, 1, 54, 127
1, 9671, Note_off_c, 1, 77, 0
1, 9672, Note_on_c, 1, 75, 127
1, 9693, Note_off_c, 1, 73, 0
1, 9695, Note_off_c, 1, 75, 0
1, 9696, Note_on_c, 1, 69, 127
1, 9696, Note_on_c, 1, 78, 127
1, 9719, Note_off_c, 1, 78, 0
1, 9737, Note_off_c, 1, 54, 0
1, 9741, Note_off_c, 1, 69, 0
1, 9744, Note_on_c, 1, 70, 127
1, 9744, Note_on_c, 1, 75, 127
1, 9767, Note_off_c, 1, 75, 0
1, 9768, Note_on_c, 1, 74, 127
1, 9791, Note_off_c, 1, 74, 0
1, 9792, Note_on_c, 1, 55, 127
1, 9815, Note_off_c, 1, 55, 0
1, 9816, Note_on_c, 1, 58, 127
1, 9837, Note_off_c, 1, 70, 0
1, 9839, Note_off_c, 1, 58, 0
1, 9840, Note_on_c, 1, 56, 127
1, 9863, Note_off_c, 1, 56, 0
1, 9888, Note_on_c, 1, 75, 127
1, 9888, Note_on_c, 1, 72, 127
1, 9888, Note_on_c, 1, 53, 127
1, 9911, Note_off_c, 1, 72, 0
1, 9911, Note_off_c, 1, 53, 0
1, 9912, Note_on_c, 1, 73, 127
1, 9912, Note_on_c, 1, 51, 127
1, 9935, Note_off_c, 1, 73, 0
1, 9935, Note_off_c, 1, 51, 0
1, 9936, Note_on_c, 1, 56, 127
1, 9983, Note_off_c, 1, 75, 0
1, 9984, Note_on_c, 1, 70, 127
1, 10025, Note_off_c, 1, 56, 0
1, 10029, Note_off_c, 1, 70, 0
1, 10032, Note_on_c, 1, 72, 127
1, 10032, Note_on_c, 1, 70, 127
1, 10056, Note_off_c, 1, 70, 0
1, 10056, Note_on_c, 1, 68, 127
1, 10079, Note_off_c, 1, 68, 0
1, 10080, Note_on_c, 1, 66, 127
1, 10080, Note_on_c, 1, 57, 127
1, 10103, Note_off_c, 1, 66, 0
1, 10103, Note_off_c, 1, 57, 0
1, 10104, Note_on_c, 1, 65, 127
1, 10104, Note_on_c, 1, 60, 127
1, 10125, Note_off_c, 1, 72, 0
1, 10127, Note_off_c, 1, 65, 0
1, 10127, Note_off_c, 1, 60, 0
1, 10128, Note_on_c, 1, 76, 127
1, 10128, Note_on_c, 1, 73, 127
1, 10128, Note_on_c, 1, 58, 127
1, 10151, Note_off_c, 1, 73, 0
1, 10151, Note_off_c, 1, 58, 0
1, 10152, Note_on_c, 1, 72, 127
1, 10152, Note_on_c, 1, 57, 127
1, 10173, Note_off_c, 1, 76, 0
1, 10175, Note_off_c, 1, 72, 0
1, 10175, Note_off_c, 1, 57, 0
1, 10176, Note_on_c, 1, 77, 127
1, 10176, Note_on_c, 1, 70, 127
1, 10176, Note_on_c, 1, 55, 127
1, 10199, Note_off_c, 1, 70, 0
1, 10199, Note_off_c, 1, 55, 0
1, 10200, Note_on_c, 1, 72, 127
1, 10200, Note_on_c, 1, 53, 127
1, 10223, Note_off_c, 1, 72, 0
1, 10223, Note_off_c, 1, 53, 0
1, 10224, Note_on_c, 1, 73, 127
1, 10224, Note_on_c, 1, 58, 127
1, 10247, Note_off_c, 1, 77, 0
1, 10269, Note_off_c, 1, 58, 0
1, 10296, Note_on_c, 1, 69, 127
1, 10319, Note_off_c, 1, 69, 0
1, 10320, Note_on_c, 1, 49, 127
1, 10365, Note_off_c, 1, 49, 0
1, 10368, Note_on_c, 1, 46, 127
1, 10391, Note_off_c, 1, 73, 0
1, 10392, Note_on_c, 1, 78, 127
1, 10413, Note_off_c, 1, 46, 0
1, 10415, Note_off_c, 1, 78, 0
1, 10416, Note_on_c, 1, 73, 127
1, 10416, Note_on_c, 1, 77, 127
1, 10416, Note_on_c, 1, 41, 127
1, 10439, Note_off_c, 1, 73, 0
1, 10439, Note_off_c, 1, 77, 0
1, 10440, Note_on_c, 1, 75, 127
1, 10461, Note_off_c, 1, 41, 0
1, 10463, Note_off_c, 1, 75, 0
1, 10464, Note_on_c, 1, 82, 127
1, 10464, Note_on_c, 1, 73, 127
1, 10464, Note_on_c, 1, 42, 127
1, 10487, Note_off_c, 1, 82, 0
1, 10487, Note_off_c, 1, 73, 0
1, 10488, Note_on_c, 1, 81, 127
1, 10488, Note_on_c, 1, 72, 127
1, 10511, Note_off_c, 1, 72, 0
1, 10512, Note_off_c, 1, 81, 0
1, 10512, Note_on_c, 1, 70, 127
1, 10536, Note_on_c, 1, 77, 127
1, 10557, Note_off_c, 1, 42, 0
1, 10559, Note_off_c, 1, 77, 0
1, 10560, Note_on_c, 1, 75, 127
1, 10560, Note_on_c, 1, 43, 127
1, 10579, Note_off_c, 1, 70, 0
1, 10583, Note_off_c, 1, 75, 0
1, 10605, Note_off_c, 1, 43, 0
1, 10608, Note_on_c, 1, 72, 127
1, 10608, Note_on_c, 1, 75, 127
1, 10608, Note_on_c, 1, 44, 127
1, 10631, Note_off_c, 1, 72, 0
1, 10631, Note_off_c, 1, 75, 0
1, 10632, Note_on_c, 1, 70, 127
1, 10632, Note_on_c, 1, 73, 127
1, 10655, Note_off_c, 1, 70, 0
1, 10655, Note_off_c, 1, 73, 0
1, 10656, Note_on_c, 1, 68, 127
1, 10679, Note_off_c, 1, 68, 0
1, 10680, Note_on_c, 1, 66, 127
1, 10701, Note_off_c, 1, 44, 0
1, 10703, Note_off_c, 1, 66, 0
1, 10704, Note_on_c, 1, 65, 127
1, 10704, Note_on_c, 1, 45, 127
1, 10727, Note_off_c, 1, 65, 0
1, 10728, Note_on_c, 1, 63, 127
1, 10728, Note_on_c, 1, 78, 127
1, 10749, Note_off_c, 1, 45, 0
1, 10751, Note_off_c, 1, 63, 0
1, 10751, Note_off_c, 1, 78, 0
1, 10752, Note_on_c, 1, 61, 127
1, 10752, Note_on_c, 1, 77, 127
1, 10752, Note_on_c, 1, 46, 127
1, 10775, Note_off_c, 1, 61, 0
1, 10775, Note_off_c, 1, 77, 0
1, 10776, Note_on_c, 1, 60, 127
1, 10776, Note_on_c, 1, 75, 127
1, 10799, Note_off_c, 1, 60, 0
1, 10799, Note_off_c, 1, 75, 0
1, 10800, Note_on_c, 1, 58, 127
1, 10800, Note_on_c, 1, 73, 127
1, 10823, Note_off_c, 1, 46, 0
1, 10823, Note_off_c, 1, 73, 0
1, 10824, Note_on_c, 1, 72, 127
1, 10824, Note_on_c, 1, 48, 127
1, 10845, Note_off_c, 1, 58, 0
1, 10847, Note_off_c, 1, 72, 0
1, 10847, Note_off_c, 1, 48, 0
1, 10848, Note_on_c, 1, 70, 127
1, 10848, Note_on_c, 1, 75, 127
1, 10848, Note_on_c, 1, 48, 127
1, 10860, Note_off_c, 1, 48, 0
1, 10860, Note_on_c, 1, 49, 127
1, 10871, Note_off_c, 1, 75, 0
1, 10872, Note_off_c, 1, 49, 0
1, 10872, Note_on_c, 1, 73, 127
1, 10893, Note_off_c, 1, 70, 0
1, 10895, Note_off_c, 1, 73, 0
1, 10896, Note_on_c, 1, 69, 127
1, 10896, Note_on_c, 1, 72, 127
1, 10919, Note_off_c, 1, 72, 0
1, 10920, Note_on_c, 1, 78, 127
1, 10920, Note_on_c, 1, 46, 127
1, 10932, Note_off_c, 1, 46, 0
1, 10941, Note_off_c, 1, 69, 0
1, 10943, Note_off_c, 1, 78, 0
1, 10944, Note_on_c, 1, 77, 127
1, 10967, Note_off_c, 1, 77, 0
1, 11016, Note_on_c, 1, 75, 127
1, 11016, Note_on_c, 1, 60, 127
1, 11016, Note_on_c, 1, 54, 127
1, 11039, Note_off_c, 1, 75, 0
1, 11039, Note_off_c, 1, 60, 0
1, 11039, Note_off_c, 1, 54, 0
1, 11040, Note_on_c, 1, 77, 127
1, 11040, Note_on_c, 1, 61, 127
1, 11040, Note_on_c, 1, 53, 127
1, 11063, Note_off_c, 1, 77, 0
1, 11063, Note_off_c, 1, 61, 0
1, 11063, Note_off_c, 1, 53, 0
1, 11064, Note_on_c, 1, 78, 127
1, 11064, Note_on_c, 1, 63, 127
1, 11064, Note_on_c, 1, 51, 127
1, 11087, Note_off_c, 1, 78, 0
1, 11087, Note_off_c, 1, 63, 0
1, 11087, Note_off_c, 1, 51, 0
1, 11088, Note_on_c, 1, 80, 127
1, 11088, Note_on_c, 1, 65, 127
1, 11088, Note_on_c, 1, 50, 127
1, 11111, Note_off_c, 1, 65, 0
1, 11111, Note_off_c, 1, 50, 0
1, 11112, Note_on_c, 1, 66, 127
1, 11112, Note_on_c, 1, 48, 127
1, 11135, Note_off_c, 1, 66, 0
1, 11135, Note_off_c, 1, 48, 0
1, 11136, Note_on_c, 1, 68, 127
1, 11136, Note_on_c, 1, 46, 127
1, 11159, Note_off_c, 1, 68, 0
1, 11159, Note_off_c, 1, 46, 0
1, 11160, Note_on_c, 1, 70, 127
1, 11160, Note_on_c, 1, 44, 127
1, 11183, Note_off_c, 1, 70, 0
1, 11183, Note_off_c, 1, 44, 0
1, 11184, Note_on_c, 1, 72, 127
1, 11184, Note_on_c, 1, 42, 127
1, 11207, Note_off_c, 1, 72, 0
1, 11207, Note_off_c, 1, 42, 0
1, 11208, Note_on_c, 1, 74, 127
1, 11208, Note_on_c, 1, 41, 127
1, 11231, Note_off_c, 1, 74, 0
1, 11231, Note_off_c, 1, 41, 0
1, 11232, Note_on_c, 1, 75, 127
1, 11232, Note_on_c, 1, 39, 127
1, 11255, Note_off_c, 1, 80, 0
1, 11255, Note_off_c, 1, 75, 0
1, 11256, Note_on_c, 1, 77, 127
1, 11279, Note_off_c, 1, 77, 0
1, 11280, Note_on_c, 1, 78, 127
1, 11299, Note_off_c, 1, 39, 0
1, 11303, Note_off_c, 1, 78, 0
1, 11304, Note_on_c, 1, 62, 127
1, 11304, Note_on_c, 1, 77, 127
1, 11304, Note_on_c, 1, 56, 127
1, 11327, Note_off_c, 1, 62, 0
1, 11327, Note_off_c, 1, 77, 0
1, 11327, Note_off_c, 1, 56, 0
1, 11328, Note_on_c, 1, 63, 127
1, 11328, Note_on_c, 1, 79, 127
1, 11328, Note_on_c, 1, 55, 127
1, 11351, Note_off_c, 1, 63, 0
1, 11351, Note_off_c, 1, 79, 0
1, 11351, Note_off_c, 1, 55, 0
1, 11352, Note_on_c, 1, 65, 127
1, 11352, Note_on_c, 1, 80, 127
1, 11352, Note_on_c, 1, 53, 127
1, 11375, Note_off_c, 1, 65, 0
1, 11375, Note_off_c, 1, 80, 0
1, 11375, Note_off_c, 1, 53, 0
1, 11376, Note_on_c, 1, 67, 127
1, 11376, Note_on_c, 1, 82, 127
1, 11376, Note_on_c, 1, 52, 127
1, 11399, Note_off_c, 1, 67, 0
1, 11399, Note_off_c, 1, 52, 0
1, 11400, Note_on_c, 1, 68, 127
1, 11400, Note_on_c, 1, 50, 127
1, 11423, Note_off_c, 1, 68, 0
1, 11423, Note_off_c, 1, 50, 0
1, 11424, Note_on_c, 1, 70, 127
1, 11424, Note_on_c, 1, 48, 127
1, 11447, Note_off_c, 1, 70, 0
1, 11447, Note_off_c, 1, 48, 0
1, 11448, Note_on_c, 1, 72, 127
1, 11448, Note_on_c, 1, 46, 127
1, 11471, Note_off_c, 1, 72, 0
1, 11471, Note_off_c, 1, 46, 0
1, 11472, Note_on_c, 1, 74, 127
1, 11472, Note_on_c, 1, 44, 127
1, 11495, Note_off_c, 1, 74, 0
1, 11495, Note_off_c, 1, 44, 0
1, 11496, Note_on_c, 1, 76, 127
1, 11496, Note_on_c, 1, 43, 127
1, 11519, Note_off_c, 1, 76, 0
1, 11519, Note_off_c, 1, 43, 0
1, 11520, Note_on_c, 1, 77, 127
1, 11520, Note_on_c, 1, 41, 127
1, 11543, Note_off_c, 1, 82, 0
1, 11544, Note_on_c, 1, 85, 127
1, 11565, Note_off_c, 1, 77, 0
1, 11567, Note_off_c, 1, 85, 0
1, 11568, Note_on_c, 1, 60, 127
1, 11568, Note_on_c, 1, 84, 127
1, 11587, Note_off_c, 1, 41, 0
1, 11591, Note_off_c, 1, 84, 0
1, 11613, Note_off_c, 1, 60, 0
1, 11616, Note_on_c, 1, 61, 127
1, 11616, Note_on_c, 1, 80, 127
1, 11616, Note_on_c, 1, 65, 127
1, 11639, Note_off_c, 1, 80, 0
1, 11639, Note_off_c, 1, 65, 0
1, 11640, Note_on_c, 1, 79, 127
1, 11640, Note_on_c, 1, 63, 127
1, 11663, Note_off_c, 1, 79, 0
1, 11663, Note_off_c, 1, 63, 0
1, 11664, Note_on_c, 1, 77, 127
1, 11688, Note_on_c, 1, 60, 127
1, 11709, Note_off_c, 1, 61, 0
1, 11711, Note_off_c, 1, 60, 0
1, 11712, Note_on_c, 1, 62, 127
1, 11712, Note_on_c, 1, 58, 127
1, 11731, Note_off_c, 1, 77, 0
1, 11735, Note_off_c, 1, 58, 0
1, 11736, Note_on_c, 1, 84, 127
1, 11736, Note_on_c, 1, 56, 127
1, 11757, Note_off_c, 1, 62, 0
1, 11759, Note_off_c, 1, 84, 0
1, 11759, Note_off_c, 1, 56, 0
1, 11760, Note_on_c, 1, 63, 127
1, 11760, Note_on_c, 1, 82, 127
1, 11760, Note_on_c, 1, 55, 127
1, 11783, Note_off_c, 1, 82, 0
1, 11783, Note_off_c, 1, 55, 0
1, 11784, Note_on_c, 1, 80, 127
1, 11784, Note_on_c, 1, 53, 127
1, 11807, Note_off_c, 1, 80, 0
1, 11807, Note_off_c, 1, 53, 0
1, 11808, Note_on_c, 1, 79, 127
1, 11808, Note_on_c, 1, 51, 127
1, 11831, Note_off_c, 1, 51, 0
1, 11832, Note_on_c, 1, 49, 127
1, 11853, Note_off_c, 1, 63, 0
1, 11855, Note_off_c, 1, 49, 0
1, 11856, Note_on_c, 1, 64, 127
1, 11856, Note_on_c, 1, 48, 127
1, 11875, Note_off_c, 1, 79, 0
1, 11879, Note_off_c, 1, 48, 0
1, 11880, Note_on_c, 1, 85, 127
1, 11880, Note_on_c, 1, 46, 127
1, 11901, Note_off_c, 1, 64, 0
1, 11903, Note_off_c, 1, 85, 0
1, 11903, Note_off_c, 1, 46, 0
1, 11904, Note_on_c, 1, 65, 127
1, 11904, Note_on_c, 1, 84, 127
1, 11904, Note_on_c, 1, 44, 127
1, 11927, Note_off_c, 1, 84, 0
1, 11927, Note_off_c, 1, 44, 0
1, 11928, Note_on_c, 1, 82, 127
1, 11928, Note_on_c, 1, 43, 127
1, 11951, Note_off_c, 1, 82, 0
1, 11951, Note_off_c, 1, 43, 0
1, 11952, Note_on_c, 1, 80, 127
1, 11952, Note_on_c, 1, 41, 127
1, 11975, Note_off_c, 1, 65, 0
1, 11975, Note_off_c, 1, 80, 0
1, 11976, Note_on_c, 1, 67, 127
1, 11976, Note_on_c, 1, 79, 127
1, 11997, Note_off_c, 1, 41, 0
1, 11999, Note_off_c, 1, 67, 0
1, 11999, Note_off_c, 1, 79, 0
1, 12000, Note_on_c, 1, 67, 127
1, 12000, Note_on_c, 1, 82, 127
1, 12000, Note_on_c, 1, 53, 127
1, 12012, Note_off_c, 1, 67, 0
1, 12012, Note_on_c, 1, 68, 127
1, 12023, Note_off_c, 1, 82, 0
1, 12024, Note_off_c, 1, 68, 0
1, 12024, Note_on_c, 1, 80, 127
1, 12045, Note_off_c, 1, 53, 0
1, 12047, Note_off_c, 1, 80, 0
1, 12048, Note_on_c, 1, 79, 127
1, 12048, Note_on_c, 1, 52, 127
1, 12071, Note_off_c, 1, 79, 0
1, 12072, Note_on_c, 1, 65, 127
1, 12084, Note_off_c, 1, 65, 0
1, 12093, Note_off_c, 1, 52, 0
1, 12096, Note_on_c, 1, 77, 127
1, 12141, Note_off_c, 1, 77, 0
1, 12144, Note_on_c, 1, 63, 127
1, 12167, Note_off_c, 1, 63, 0
1, 12168, Note_on_c, 1, 60, 127
1, 12191, Note_off_c, 1, 60, 0
1, 12192, Note_on_c, 1, 75, 127
1, 12192, Note_on_c, 1, 68, 127
1, 12192, Note_on_c, 1, 60, 127
1, 12215, Note_off_c, 1, 75, 0
1, 12215, Note_off_c, 1, 60, 0
1, 12216, Note_on_c, 1, 73, 127
1, 12216, Note_on_c, 1, 58, 127
1, 12239, Note_off_c, 1, 73, 0
1, 12239, Note_off_c, 1, 58, 0
1, 12240, Note_on_c, 1, 72, 127
1, 12240, Note_on_c, 1, 56, 127
1, 12263, Note_off_c, 1, 56, 0
1, 12264, Note_on_c, 1, 55, 127
1, 12285, Note_off_c, 1, 68, 0
1, 12287, Note_off_c, 1, 55, 0
1, 12288, Note_on_c, 1, 69, 127
1, 12288, Note_on_c, 1, 53, 127
1, 12307, Note_off_c, 1, 72, 0
1, 12311, Note_off_c, 1, 53, 0
1, 12312, Note_on_c, 1, 79, 127
1, 12312, Note_on_c, 1, 51, 127
1, 12333, Note_off_c, 1, 69, 0
1, 12335, Note_off_c, 1, 79, 0
1, 12335, Note_off_c, 1, 51, 0
1, 12336, Note_on_c, 1, 77, 127
1, 12336, Note_on_c, 1, 70, 127
1, 12336, Note_on_c, 1, 50, 127
1, 12359, Note_off_c, 1, 77, 0
1, 12359, Note_off_c, 1, 50, 0
1, 12360, Note_on_c, 1, 75, 127
1, 12360, Note_on_c, 1, 48, 127
1, 12383, Note_off_c, 1, 75, 0
1, 12383, Note_off_c, 1, 48, 0
1, 12384, Note_on_c, 1, 74, 127
1, 12384, Note_on_c, 1, 46, 127
1, 12407, Note_off_c, 1, 46, 0
1, 12408, Note_on_c, 1, 44, 127
1, 12429, Note_off_c, 1, 70, 0
1, 12431, Note_off_c, 1, 44, 0
1, 12432, Note_on_c, 1, 71, 127
1, 12432, Note_on_c, 1, 43, 127
1, 12451, Note_off_c, 1, 74, 0
1, 12455, Note_off_c, 1, 43, 0
1, 12456, Note_on_c, 1, 80, 127
1, 12456, Note_on_c, 1, 41, 127
1, 12477, Note_off_c, 1, 71, 0
1, 12479, Note_off_c, 1, 80, 0
1, 12479, Note_off_c, 1, 41, 0
1, 12480, Note_on_c, 1, 79, 127
1, 12480, Note_on_c, 1, 72, 127
1, 12480, Note_on_c, 1, 39, 127
1, 12503, Note_off_c, 1, 79, 0
1, 12503, Note_off_c, 1, 39, 0
1, 12504, Note_on_c, 1, 77, 127
1, 12504, Note_on_c, 1, 38, 127
1, 12527, Note_off_c, 1, 77, 0
1, 12527, Note_off_c, 1, 38, 0
1, 12528, Note_on_c, 1, 75, 127
1, 12528, Note_on_c, 1, 36, 127
1, 12551, Note_off_c, 1, 72, 0
1, 12552, Note_off_c, 1, 75, 0
1, 12552, Note_on_c, 1, 74, 127
1, 12573, Note_off_c, 1, 36, 0
1, 12575, Note_off_c, 1, 74, 0
1, 12576, Note_on_c, 1, 77, 127
1, 12576, Note_on_c, 1, 74, 127
1, 12576, Note_on_c, 1, 48, 127
1, 12588, Note_off_c, 1, 74, 0
1, 12588, Note_on_c, 1, 75, 127
1, 12599, Note_off_c, 1, 77, 0
1, 12621, Note_off_c, 1, 48, 0
1, 12624, Note_off_c, 1, 75, 0
1, 12624, Note_on_c, 1, 47, 127
1, 12648, Note_on_c, 1, 72, 127
1, 12660, Note_off_c, 1, 72, 0
1, 12669, Note_off_c, 1, 47, 0
1, 12720, Note_on_c, 1, 71, 127
1, 12720, Note_on_c, 1, 36, 127
1, 12743, Note_off_c, 1, 71, 0
1, 12765, Note_off_c, 1, 36, 0
1, 12768, Note_on_c, 1, 67, 127
1, 12768, Note_on_c, 1, 71, 127
1, 12768, Note_on_c, 1, 48, 127
1, 12791, Note_off_c, 1, 71, 0
1, 12792, Note_on_c, 1, 72, 127
1, 12813, Note_off_c, 1, 48, 0
1, 12815, Note_off_c, 1, 72, 0
1, 12816, Note_on_c, 1, 77, 127
1, 12816, Note_on_c, 1, 50, 127
1, 12839, Note_off_c, 1, 67, 0
1, 12861, Note_off_c, 1, 50, 0
1, 12864, Note_on_c, 1, 38, 127
1, 12883, Note_off_c, 1, 77, 0
1, 12888, Note_on_c, 1, 75, 127
1, 12909, Note_off_c, 1, 38, 0
1, 12911, Note_off_c, 1, 75, 0
1, 12912, Note_on_c, 1, 67, 127
1, 12912, Note_on_c, 1, 71, 127
1, 12912, Note_on_c, 1, 50, 127
1, 12935, Note_off_c, 1, 71, 0
1, 12936, Note_on_c, 1, 72, 127
1, 12957, Note_off_c, 1, 50, 0
1, 12959, Note_off_c, 1, 72, 0
1, 12960, Note_on_c, 1, 79, 127
1, 12960, Note_on_c, 1, 51, 127
1, 12983, Note_off_c, 1, 67, 0
1, 13005, Note_off_c, 1, 51, 0
1, 13008, Note_on_c, 1, 39, 127
1, 13027, Note_off_c, 1, 79, 0
1, 13032, Note_on_c, 1, 75, 127
1, 13053, Note_off_c, 1, 39, 0
1, 13055, Note_off_c, 1, 75, 0
1, 13056, Note_on_c, 1, 67, 127
1, 13056, Note_on_c, 1, 71, 127
1, 13056, Note_on_c, 1, 51, 127
1, 13079, Note_off_c, 1, 71, 0
1, 13080, Note_on_c, 1, 72, 127
1, 13101, Note_off_c, 1, 51, 0
1, 13103, Note_off_c, 1, 72, 0
1, 13104, Note_on_c, 1, 80, 127
1, 13104, Note_on_c, 1, 53, 127
1, 13127, Note_off_c, 1, 67, 0
1, 13149, Note_off_c, 1, 53, 0
1, 13151, Note_off_c, 1, 80, 0
1, 13152, Note_on_c, 1, 71, 127
1, 13152, Note_on_c, 1, 77, 127
1, 13152, Note_on_c, 1, 50, 127
1, 13175, Note_off_c, 1, 71, 0
1, 13176, Note_on_c, 1, 72, 127
1, 13197, Note_off_c, 1, 77, 0
1, 13197, Note_off_c, 1, 50, 0
1, 13199, Note_off_c, 1, 72, 0
1, 13200, Note_on_c, 1, 65, 127
1, 13200, Note_on_c, 1, 74, 127
1, 13200, Note_on_c, 1, 55, 127
1, 13223, Note_off_c, 1, 65, 0
1, 13245, Note_off_c, 1, 55, 0
1, 13248, Note_on_c, 1, 63, 127
1, 13248, Note_on_c, 1, 48, 127
1, 13271, Note_off_c, 1, 74, 0
1, 13272, Note_on_c, 1, 75, 127
1, 13293, Note_off_c, 1, 63, 0
1, 13293, Note_off_c, 1, 48, 0
1, 13295, Note_off_c, 1, 75, 0
1, 13296, Note_on_c, 1, 75, 127
1, 13296, Note_on_c, 1, 71, 127
1, 13296, Note_on_c, 1, 45, 127
1, 13319, Note_off_c, 1, 71, 0
1, 13320, Note_on_c, 1, 72, 127
1, 13341, Note_off_c, 1, 45, 0
1, 13343, Note_off_c, 1, 72, 0
1, 13344, Note_on_c, 1, 66, 127
1, 13344, Note_on_c, 1, 48, 127
1, 13367, Note_off_c, 1, 66, 0
1, 13368, Note_on_c, 1, 67, 127
1, 13389, Note_off_c, 1, 48, 0
1, 13391, Note_off_c, 1, 67, 0
1, 13392, Note_on_c, 1, 50, 127
1, 13415, Note_off_c, 1, 75, 0
1, 13437, Note_off_c, 1, 50, 0
1, 13440, Note_on_c, 1, 74, 127
1, 13440, Note_on_c, 1, 67, 127
1, 13440, Note_on_c, 1, 52, 127
1, 13463, Note_off_c, 1, 74, 0
1, 13464, Note_on_c, 1, 72, 127
1, 13485, Note_off_c, 1, 67, 0
1, 13485, Note_off_c, 1, 52, 0
1, 13487, Note_off_c, 1, 72, 0
1, 13488, Note_on_c, 1, 70, 127
1, 13488, Note_on_c, 1, 69, 127
1, 13488, Note_on_c, 1, 54, 127
1, 13511, Note_off_c, 1, 70, 0
1, 13533, Note_off_c, 1, 54, 0
1, 13536, Note_on_c, 1, 55, 127
1, 13559, Note_off_c, 1, 69, 0
1, 13560, Note_on_c, 1, 74, 127
1, 13581, Note_off_c, 1, 55, 0
1, 13583, Note_off_c, 1, 74, 0
1, 13584, Note_on_c, 1, 73, 127
1, 13584, Note_on_c, 1, 69, 127
1, 13584, Note_on_c, 1, 43, 127
1, 13607, Note_off_c, 1, 69, 0
1, 13608, Note_on_c, 1, 70, 127
1, 13629, Note_off_c, 1, 43, 0
1, 13631, Note_off_c, 1, 70, 0
1, 13632, Note_on_c, 1, 64, 127
1, 13632, Note_on_c, 1, 46, 127
1, 13655, Note_off_c, 1, 64, 0
1, 13656, Note_on_c, 1, 65, 127
1, 13677, Note_off_c, 1, 46, 0
1, 13679, Note_off_c, 1, 65, 0
1, 13680, Note_on_c, 1, 48, 127
1, 13703, Note_off_c, 1, 73, 0
1, 13725, Note_off_c, 1, 48, 0
1, 13728, Note_on_c, 1, 72, 127
1, 13728, Note_on_c, 1, 65, 127
1, 13728, Note_on_c, 1, 50, 127
1, 13751, Note_off_c, 1, 72, 0
1, 13752, Note_on_c, 1, 70, 127
1, 13773, Note_off_c, 1, 65, 0
1, 13773, Note_off_c, 1, 50, 0
1, 13775, Note_off_c, 1, 70, 0
1, 13776, Note_on_c, 1, 68, 127
1, 13776, Note_on_c, 1, 67, 127
1, 13776, Note_on_c, 1, 52, 127
1, 13799, Note_off_c, 1, 68, 0
1, 13821, Note_off_c, 1, 52, 0
1, 13824, Note_on_c, 1, 53, 127
1, 13847, Note_off_c, 1, 67, 0
1, 13848, Note_on_c, 1, 72, 127
1, 13869, Note_off_c, 1, 53, 0
1, 13871, Note_off_c, 1, 72, 0
1, 13872, Note_on_c, 1, 72, 127
1, 13872, Note_on_c, 1, 67, 127
1, 13872, Note_on_c, 1, 41, 127
1, 13895, Note_off_c, 1, 67, 0
1, 13896, Note_on_c, 1, 68, 127
1, 13917, Note_off_c, 1, 41, 0
1, 13919, Note_off_c, 1, 68, 0
1, 13920, Note_on_c, 1, 62, 127
1, 13920, Note_on_c, 1, 44, 127
1, 13943, Note_off_c, 1, 62, 0
1, 13944, Note_on_c, 1, 63, 127
1, 13965, Note_off_c, 1, 44, 0
1, 13967, Note_off_c, 1, 63, 0
1, 13968, Note_on_c, 1, 46, 127
1, 13991, Note_off_c, 1, 72, 0
1, 14013, Note_off_c, 1, 46, 0
1, 14016, Note_on_c, 1, 70, 127
1, 14016, Note_on_c, 1, 63, 127
1, 14016, Note_on_c, 1, 48, 127
1, 14039, Note_off_c, 1, 70, 0
1, 14040, Note_on_c, 1, 68, 127
1, 14061, Note_off_c, 1, 63, 0
1, 14061, Note_off_c, 1, 48, 0
1, 14063, Note_off_c, 1, 68, 0
1, 14064, Note_on_c, 1, 67, 127
1, 14064, Note_on_c, 1, 65, 127
1, 14064, Note_on_c, 1, 50, 127
1, 14087, Note_off_c, 1, 67, 0
1, 14109, Note_off_c, 1, 50, 0
1, 14112, Note_on_c, 1, 51, 127
1, 14135, Note_off_c, 1, 65, 0
1, 14157, Note_off_c, 1, 51, 0
1, 14160, Note_on_c, 1, 62, 127
1, 14160, Note_on_c, 1, 39, 127
1, 14183, Note_off_c, 1, 62, 0
1, 14184, Note_on_c, 1, 79, 127
1, 14184, Note_on_c, 1, 63, 127
1, 14205, Note_off_c, 1, 39, 0
1, 14207, Note_off_c, 1, 79, 0
1, 14207, Note_off_c, 1, 63, 0
1, 14208, Note_on_c, 1, 74, 127
1, 14208, Note_on_c, 1, 58, 127
1, 14208, Note_on_c, 1, 51, 127
1, 14231, Note_off_c, 1, 74, 0
1, 14232, Note_on_c, 1, 75, 127
1, 14253, Note_off_c, 1, 51, 0
1, 14255, Note_off_c, 1, 75, 0
1, 14256, Note_on_c, 1, 80, 127
1, 14256, Note_on_c, 1, 53, 127
1, 14279, Note_off_c, 1, 58, 0
1, 14280, Note_on_c, 1, 68, 127
1, 14301, Note_off_c, 1, 53, 0
1, 14303, Note_off_c, 1, 68, 0
1, 14304, Note_on_c, 1, 62, 127
1, 14304, Note_on_c, 1, 41, 127
1, 14323, Note_off_c, 1, 80, 0
1, 14327, Note_off_c, 1, 62, 0
1, 14328, Note_on_c, 1, 79, 127
1, 14328, Note_on_c, 1, 63, 127
1, 14349, Note_off_c, 1, 41, 0
1, 14351, Note_off_c, 1, 79, 0
1, 14351, Note_off_c, 1, 63, 0
1, 14352, Note_on_c, 1, 74, 127
1, 14352, Note_on_c, 1, 58, 127
1, 14352, Note_on_c, 1, 53, 127
1, 14375, Note_off_c, 1, 74, 0
1, 14376, Note_on_c, 1, 75, 127
1, 14397, Note_off_c, 1, 53, 0
1, 14399, Note_off_c, 1, 75, 0
1, 14400, Note_on_c, 1, 82, 127
1, 14400, Note_on_c, 1, 55, 127
1, 14423, Note_off_c, 1, 58, 0
1, 14424, Note_on_c, 1, 70, 127
1, 14445, Note_off_c, 1, 55, 0
1, 14447, Note_off_c, 1, 70, 0
1, 14448, Note_on_c, 1, 62, 127
1, 14448, Note_on_c, 1, 43, 127
1, 14467, Note_off_c, 1, 82, 0
1, 14471, Note_off_c, 1, 62, 0
1, 14472, Note_on_c, 1, 79, 127
1, 14472, Note_on_c, 1, 63, 127
1, 14493, Note_off_c, 1, 43, 0
1, 14495, Note_off_c, 1, 79, 0
1, 14495, Note_off_c, 1, 63, 0
1, 14496, Note_on_c, 1, 74, 127
1, 14496, Note_on_c, 1, 58, 127
1, 14496, Note_on_c, 1, 55, 127
1, 14519, Note_off_c, 1, 74, 0
1, 14520, Note_on_c, 1, 75, 127
1, 14541, Note_off_c, 1, 55, 0
1, 14543, Note_off_c, 1, 75, 0
1, 14544, Note_on_c, 1, 84, 127
1, 14544, Note_on_c, 1, 56, 127
1, 14567, Note_off_c, 1, 58, 0
1, 14568, Note_on_c, 1, 72, 127
1, 14589, Note_off_c, 1, 84, 0
1, 14589, Note_off_c, 1, 56, 0
1, 14591, Note_off_c, 1, 72, 0
1, 14592, Note_on_c, 1, 80, 127
1, 14592, Note_on_c, 1, 62, 127
1, 14592, Note_on_c, 1, 53, 127
1, 14615, Note_off_c, 1, 62, 0
1, 14616, Note_on_c, 1, 63, 127
1, 14637, Note_off_c, 1, 80, 0
1, 14637, Note_off_c, 1, 53, 0
1, 14639, Note_off_c, 1, 63, 0
1, 14640, Note_on_c, 1, 77, 127
1, 14640, Note_on_c, 1, 56, 127
1, 14640, Note_on_c, 1, 46, 127
1, 14663, Note_off_c, 1, 56, 0
1, 14664, Note_on_c, 1, 65, 127
1, 14685, Note_off_c, 1, 46, 0
1, 14687, Note_off_c, 1, 65, 0
1, 14688, Note_on_c, 1, 55, 127
1, 14688, Note_on_c, 1, 51, 127
1, 14711, Note_off_c, 1, 51, 0
1, 14712, Note_on_c, 1, 53, 127
1, 14733, Note_off_c, 1, 77, 0
1, 14733, Note_off_c, 1, 55, 0
1, 14735, Note_off_c, 1, 53, 0
1, 14736, Note_on_c, 1, 70, 127
1, 14736, Note_on_c, 1, 50, 127
1, 14759, Note_off_c, 1, 50, 0
1, 14760, Note_on_c, 1, 51, 127
1, 14781, Note_off_c, 1, 70, 0
1, 14783, Note_off_c, 1, 51, 0
1, 14784, Note_on_c, 1, 75, 127
1, 14784, Note_on_c, 1, 48, 127
1, 14807, Note_off_c, 1, 48, 0
1, 14808, Note_on_c, 1, 57, 127
1, 14831, Note_off_c, 1, 57, 0
1, 14832, Note_on_c, 1, 46, 127
1, 14855, Note_off_c, 1, 46, 0
1, 14877, Note_off_c, 1, 75, 0
1, 14880, Note_on_c, 1, 74, 127
1, 14880, Note_on_c, 1, 65, 127
1, 14880, Note_on_c, 1, 44, 127
1, 14903, Note_off_c, 1, 74, 0
1, 14903, Note_off_c, 1, 44, 0
1, 14904, Note_on_c, 1, 72, 127
1, 14904, Note_on_c, 1, 46, 127
1, 14925, Note_off_c, 1, 65, 0
1, 14927, Note_off_c, 1, 72, 0
1, 14927, Note_off_c, 1, 46, 0
1, 14928, Note_on_c, 1, 74, 127
1, 14928, Note_on_c, 1, 70, 127
1, 14928, Note_on_c, 1, 43, 127
1, 14951, Note_off_c, 1, 74, 0
1, 14951, Note_off_c, 1, 43, 0
1, 14952, Note_on_c, 1, 79, 127
1, 14952, Note_on_c, 1, 52, 127
1, 14975, Note_off_c, 1, 79, 0
1, 14975, Note_off_c, 1, 52, 0
1, 14976, Note_on_c, 1, 72, 127
1, 14976, Note_on_c, 1, 41, 127
1, 14999, Note_off_c, 1, 72, 0
1, 14999, Note_off_c, 1, 41, 0
1, 15023, Note_off_c, 1, 70, 0
1, 15024, Note_on_c, 1, 72, 127
1, 15024, Note_on_c, 1, 68, 127
1, 15024, Note_on_c, 1, 39, 127
1, 15047, Note_off_c, 1, 68, 0
1, 15047, Note_off_c, 1, 39, 0
1, 15048, Note_on_c, 1, 67, 127
1, 15048, Note_on_c, 1, 41, 127
1, 15069, Note_off_c, 1, 72, 0
1, 15071, Note_off_c, 1, 67, 0
1, 15071, Note_off_c, 1, 41, 0
1, 15072, Note_on_c, 1, 77, 127
1, 15072, Note_on_c, 1, 68, 127
1, 15072, Note_on_c, 1, 38, 127
1, 15095, Note_off_c, 1, 68, 0
1, 15095, Note_off_c, 1, 38, 0
1, 15096, Note_on_c, 1, 74, 127
1, 15096, Note_on_c, 1, 47, 127
1, 15119, Note_off_c, 1, 74, 0
1, 15119, Note_off_c, 1, 47, 0
1, 15120, Note_on_c, 1, 67, 127
1, 15120, Note_on_c, 1, 48, 127
1, 15143, Note_off_c, 1, 67, 0
1, 15143, Note_off_c, 1, 48, 0
1, 15144, Note_on_c, 1, 65, 127
1, 15144, Note_on_c, 1, 50, 127
1, 15165, Note_off_c, 1, 77, 0
1, 15167, Note_off_c, 1, 65, 0
1, 15167, Note_off_c, 1, 50, 0
1, 15168, Note_on_c, 1, 75, 127
1, 15168, Note_on_c, 1, 67, 127
1, 15168, Note_on_c, 1, 46, 127
1, 15191, Note_off_c, 1, 75, 0
1, 15191, Note_off_c, 1, 46, 0
1, 15192, Note_on_c, 1, 74, 127
1, 15192, Note_on_c, 1, 48, 127
1, 15213, Note_off_c, 1, 67, 0
1, 15215, Note_off_c, 1, 74, 0
1, 15215, Note_off_c, 1, 48, 0
1, 15216, Note_on_c, 1, 75, 127
1, 15216, Note_on_c, 1, 72, 127
1, 15216, Note_on_c, 1, 44, 127
1, 15239, Note_off_c, 1, 75, 0
1, 15239, Note_off_c, 1, 44, 0
1, 15240, Note_on_c, 1, 80, 127
1, 15240, Note_on_c, 1, 53, 127
1, 15263, Note_off_c, 1, 80, 0
1, 15263, Note_off_c, 1, 53, 0
1, 15264, Note_on_c, 1, 74, 127
1, 15264, Note_on_c, 1, 55, 127
1, 15287, Note_off_c, 1, 74, 0
1, 15287, Note_off_c, 1, 55, 0
1, 15288, Note_on_c, 1, 56, 127
1, 15311, Note_off_c, 1, 72, 0
1, 15311, Note_off_c, 1, 56, 0
1, 15312, Note_on_c, 1, 74, 127
1, 15312, Note_on_c, 1, 70, 127
1, 15312, Note_on_c, 1, 53, 127
1, 15335, Note_off_c, 1, 70, 0
1, 15335, Note_off_c, 1, 53, 0
1, 15336, Note_on_c, 1, 68, 127
1, 15336, Note_on_c, 1, 55, 127
1, 15357, Note_off_c, 1, 74, 0
1, 15359, Note_off_c, 1, 68, 0
1, 15359, Note_off_c, 1, 55, 0
1, 15360, Note_on_c, 1, 79, 127
1, 15360, Note_on_c, 1, 70, 127
1, 15360, Note_on_c, 1, 51, 127
1, 15383, Note_off_c, 1, 70, 0
1, 15383, Note_off_c, 1, 51, 0
1, 15384, Note_on_c, 1, 75, 127
1, 15384, Note_on_c, 1, 60, 127
1, 15407, Note_off_c, 1, 75, 0
1, 15407, Note_off_c, 1, 60, 0
1, 15408, Note_on_c, 1, 68, 127
1, 15408, Note_on_c, 1, 53, 127
1, 15431, Note_off_c, 1, 68, 0
1, 15431, Note_off_c, 1, 53, 0
1, 15432, Note_on_c, 1, 67, 127
1, 15432, Note_on_c, 1, 55, 127
1, 15453, Note_off_c, 1, 79, 0
1, 15455, Note_off_c, 1, 67, 0
1, 15455, Note_off_c, 1, 55, 0
1, 15456, Note_on_c, 1, 77, 127
1, 15456, Note_on_c, 1, 68, 127
1, 15456, Note_on_c, 1, 51, 127
1, 15479, Note_off_c, 1, 77, 0
1, 15479, Note_off_c, 1, 51, 0
1, 15480, Note_on_c, 1, 75, 127
1, 15480, Note_on_c, 1, 53, 127
1, 15501, Note_off_c, 1, 68, 0
1, 15503, Note_off_c, 1, 75, 0
1, 15503, Note_off_c, 1, 53, 0
1, 15504, Note_on_c, 1, 77, 127
1, 15504, Note_on_c, 1, 74, 127
1, 15504, Note_on_c, 1, 50, 127
1, 15527, Note_off_c, 1, 50, 0
1, 15528, Note_on_c, 1, 59, 127
1, 15551, Note_off_c, 1, 59, 0
1, 15552, Note_on_c, 1, 60, 127
1, 15575, Note_off_c, 1, 74, 0
1, 15576, Note_on_c, 1, 67, 127
1, 15597, Note_off_c, 1, 77, 0
1, 15597, Note_off_c, 1, 60, 0
1, 15599, Note_off_c, 1, 67, 0
1, 15600, Note_on_c, 1, 75, 127
1, 15600, Note_on_c, 1, 72, 127
1, 15600, Note_on_c, 1, 63, 127
1, 15623, Note_off_c, 1, 75, 0
1, 15623, Note_off_c, 1, 72, 0
1, 15624, Note_on_c, 1, 74, 127
1, 15624, Note_on_c, 1, 70, 127
1, 15645, Note_off_c, 1, 63, 0
1, 15647, Note_off_c, 1, 74, 0
1, 15647, Note_off_c, 1, 70, 0
1, 15648, Note_on_c, 1, 75, 127
1, 15648, Note_on_c, 1, 68, 127
1, 15648, Note_on_c, 1, 60, 127
1, 15671, Note_off_c, 1, 68, 0
1, 15672, Note_on_c, 1, 67, 127
1, 15693, Note_off_c, 1, 75, 0
1, 15693, Note_off_c, 1, 60, 0
1, 15695, Note_off_c, 1, 67, 0
1, 15696, Note_on_c, 1, 75, 127
1, 15696, Note_on_c, 1, 65, 127
1, 15696, Note_on_c, 1, 56, 127
1, 15719, Note_off_c, 1, 75, 0
1, 15719, Note_off_c, 1, 65, 0
1, 15720, Note_on_c, 1, 74, 127
1, 15720, Note_on_c, 1, 70, 127
1, 15741, Note_off_c, 1, 56, 0
1, 15743, Note_off_c, 1, 74, 0
1, 15743, Note_off_c, 1, 70, 0
1, 15744, Note_on_c, 1, 77, 127
1, 15744, Note_on_c, 1, 68, 127
1, 15744, Note_on_c, 1, 51, 127
1, 15767, Note_off_c, 1, 77, 0
1, 15767, Note_off_c, 1, 68, 0
1, 15768, Note_on_c, 1, 75, 127
1, 15768, Note_on_c, 1, 67, 127
1, 15789, Note_off_c, 1, 51, 0
1, 15791, Note_off_c, 1, 75, 0
1, 15791, Note_off_c, 1, 67, 0
1, 15792, Note_on_c, 1, 74, 127
1, 15792, Note_on_c, 1, 65, 127
1, 15792, Note_on_c, 1, 53, 127
1, 15815, Note_off_c, 1, 74, 0
1, 15815, Note_off_c, 1, 65, 0
1, 15816, Note_on_c, 1, 72, 127
1, 15816, Note_on_c, 1, 63, 127
1, 15837, Note_off_c, 1, 53, 0
1, 15839, Note_off_c, 1, 72, 0
1, 15839, Note_off_c, 1, 63, 0
1, 15840, Note_on_c, 1, 71, 127
1, 15840, Note_on_c, 1, 62, 127
1, 15840, Note_on_c, 1, 43, 127
1, 15863, Note_off_c, 1, 43, 0
1, 15864, Note_on_c, 1, 55, 127
1, 15885, Note_off_c, 1, 71, 0
1, 15887, Note_off_c, 1, 55, 0
1, 15888, Note_on_c, 1, 74, 127
1, 15888, Note_on_c, 1, 53, 127
1, 15911, Note_off_c, 1, 53, 0
1, 15912, Note_on_c, 1, 51, 127
1, 15929, Note_off_c, 1, 62, 0
1, 15933, Note_off_c, 1, 74, 0
1, 15935, Note_off_c, 1, 51, 0
1, 15936, Note_on_c, 1, 75, 127
1, 15936, Note_on_c, 1, 50, 127
1, 15959, Note_off_c, 1, 50, 0
1, 15960, Note_on_c, 1, 48, 127
1, 15983, Note_off_c, 1, 48, 0
1, 15984, Note_on_c, 1, 56, 127
1, 16029, Note_off_c, 1, 75, 0
1, 16032, Note_on_c, 1, 71, 127
1, 16073, Note_off_c, 1, 56, 0
1, 16077, Note_off_c, 1, 71, 0
1, 16080, Note_on_c, 1, 72, 127
1, 16128, Note_on_c, 1, 57, 127
1, 16151, Note_off_c, 1, 57, 0
1, 16152, Note_on_c, 1, 60, 127
1, 16173, Note_off_c, 1, 72, 0
1, 16175, Note_off_c, 1, 60, 0
1, 16176, Note_on_c, 1, 76, 127
1, 16176, Note_on_c, 1, 58, 127
1, 16199, Note_off_c, 1, 58, 0
1, 16200, Note_on_c, 1, 57, 127
1, 16221, Note_off_c, 1, 76, 0
1, 16223, Note_off_c, 1, 57, 0
1, 16224, Note_on_c, 1, 77, 127
1, 16224, Note_on_c, 1, 55, 127
1, 16247, Note_off_c, 1, 55, 0
1, 16248, Note_on_c, 1, 53, 127
1, 16271, Note_off_c, 1, 53, 0
1, 16272, Note_on_c, 1, 58, 127
1, 16317, Note_off_c, 1, 77, 0
1, 16320, Note_on_c, 1, 72, 127
1, 16361, Note_off_c, 1, 58, 0
1, 16365, Note_off_c, 1, 72, 0
1, 16368, Note_on_c, 1, 74, 127
1, 16416, Note_on_c, 1, 59, 127
1, 16439, Note_off_c, 1, 59, 0
1, 16440, Note_on_c, 1, 62, 127
1, 16461, Note_off_c, 1, 74, 0
1, 16463, Note_off_c, 1, 62, 0
1, 16464, Note_on_c, 1, 78, 127
1, 16464, Note_on_c, 1, 60, 127
1, 16487, Note_off_c, 1, 60, 0
1, 16488, Note_on_c, 1, 59, 127
1, 16509, Note_off_c, 1, 78, 0
1, 16511, Note_off_c, 1, 59, 0
1, 16512, Note_on_c, 1, 79, 127
1, 16512, Note_on_c, 1, 57, 127
1, 16535, Note_off_c, 1, 57, 0
1, 16536, Note_on_c, 1, 55, 127
1, 16559, Note_off_c, 1, 55, 0
1, 16560, Note_on_c, 1, 60, 127
1, 16583, Note_off_c, 1, 79, 0
1, 16584, Note_on_c, 1, 74, 127
1, 16605, Note_off_c, 1, 60, 0
1, 16607, Note_off_c, 1, 74, 0
1, 16608, Note_on_c, 1, 75, 127
1, 16608, Note_on_c, 1, 55, 127
1, 16631, Note_off_c, 1, 75, 0
1, 16632, Note_on_c, 1, 71, 127
1, 16653, Note_off_c, 1, 55, 0
1, 16655, Note_off_c, 1, 71, 0
1, 16656, Note_on_c, 1, 72, 127
1, 16656, Note_on_c, 1, 51, 127
1, 16679, Note_off_c, 1, 72, 0
1, 16680, Note_on_c, 1, 75, 127
1, 16701, Note_off_c, 1, 51, 0
1, 16703, Note_off_c, 1, 75, 0
1, 16704, Note_on_c, 1, 79, 127
1, 16704, Note_on_c, 1, 48, 127
1, 16727, Note_off_c, 1, 79, 0
1, 16727, Note_off_c, 1, 48, 0
1, 16728, Note_on_c, 1, 72, 127
1, 16728, Note_on_c, 1, 48, 127
1, 16751, Note_off_c, 1, 72, 0
1, 16751, Note_off_c, 1, 48, 0
1, 16752, Note_on_c, 1, 76, 127
1, 16752, Note_on_c, 1, 67, 127
1, 16752, Note_on_c, 1, 46, 127
1, 16775, Note_off_c, 1, 76, 0
1, 16775, Note_off_c, 1, 46, 0
1, 16776, Note_on_c, 1, 79, 127
1, 16776, Note_on_c, 1, 44, 127
1, 16797, Note_off_c, 1, 67, 0
1, 16799, Note_off_c, 1, 79, 0
1, 16799, Note_off_c, 1, 44, 0
1, 16800, Note_on_c, 1, 84, 127
1, 16800, Note_on_c, 1, 68, 127
1, 16800, Note_on_c, 1, 43, 127
1, 16823, Note_off_c, 1, 43, 0
1, 16824, Note_on_c, 1, 41, 127
1, 16847, Note_off_c, 1, 41, 0
1, 16848, Note_on_c, 1, 49, 127
1, 16871, Note_off_c, 1, 84, 0
1, 16872, Note_on_c, 1, 82, 127
1, 16893, Note_off_c, 1, 68, 0
1, 16895, Note_off_c, 1, 82, 0
1, 16896, Note_on_c, 1, 85, 127
1, 16896, Note_on_c, 1, 64, 127
1, 16920, Note_off_c, 1, 85, 0
1, 16937, Note_off_c, 1, 49, 0
1, 16941, Note_off_c, 1, 64, 0
1, 16944, Note_on_c, 1, 82, 127
1, 16944, Note_on_c, 1, 65, 127
1, 16968, Note_off_c, 1, 82, 0
1, 16968, Note_on_c, 1, 81, 127
1, 16991, Note_off_c, 1, 81, 0
1, 16992, Note_on_c, 1, 50, 127
1, 17015, Note_off_c, 1, 50, 0
1, 17016, Note_on_c, 1, 53, 127
1, 17037, Note_off_c, 1, 65, 0
1, 17039, Note_off_c, 1, 53, 0
1, 17040, Note_on_c, 1, 69, 127
1, 17040, Note_on_c, 1, 51, 127
1, 17063, Note_off_c, 1, 51, 0
1, 17064, Note_on_c, 1, 77, 127
1, 17085, Note_off_c, 1, 69, 0
1, 17087, Note_off_c, 1, 77, 0
1, 17088, Note_on_c, 1, 79, 127
1, 17088, Note_on_c, 1, 70, 127
1, 17088, Note_on_c, 1, 48, 127
1, 17111, Note_off_c, 1, 79, 0
1, 17111, Note_off_c, 1, 48, 0
1, 17112, Note_on_c, 1, 80, 127
1, 17112, Note_on_c, 1, 46, 127
1, 17135, Note_off_c, 1, 80, 0
1, 17135, Note_off_c, 1, 46, 0
1, 17136, Note_on_c, 1, 51, 127
1, 17160, Note_on_c, 1, 82, 127
1, 17181, Note_off_c, 1, 70, 0
1, 17183, Note_off_c, 1, 82, 0
1, 17184, Note_on_c, 1, 65, 127
1, 17225, Note_off_c, 1, 51, 0
1, 17229, Note_off_c, 1, 65, 0
1, 17232, Note_on_c, 1, 77, 127
1, 17232, Note_on_c, 1, 67, 127
1, 17255, Note_off_c, 1, 77, 0
1, 17256, Note_on_c, 1, 75, 127
1, 17279, Note_off_c, 1, 75, 0
1, 17280, Note_on_c, 1, 73, 127
1, 17280, Note_on_c, 1, 52, 127
1, 17303, Note_off_c, 1, 52, 0
1, 17304, Note_off_c, 1, 73, 0
1, 17304, Note_on_c, 1, 72, 127
1, 17304, Note_on_c, 1, 55, 127
1, 17325, Note_off_c, 1, 67, 0
1, 17327, Note_off_c, 1, 72, 0
1, 17327, Note_off_c, 1, 55, 0
1, 17328, Note_on_c, 1, 80, 127
1, 17328, Note_on_c, 1, 71, 127
1, 17328, Note_on_c, 1, 53, 127
1, 17351, Note_off_c, 1, 80, 0
1, 17351, Note_off_c, 1, 53, 0
1, 17352, Note_on_c, 1, 79, 127
1, 17352, Note_on_c, 1, 52, 127
1, 17373, Note_off_c, 1, 71, 0
1, 17375, Note_off_c, 1, 79, 0
1, 17375, Note_off_c, 1, 52, 0
1, 17376, Note_on_c, 1, 77, 127
1, 17376, Note_on_c, 1, 72, 127
1, 17376, Note_on_c, 1, 50, 127
1, 17399, Note_off_c, 1, 77, 0
1, 17399, Note_off_c, 1, 50, 0
1, 17400, Note_on_c, 1, 79, 127
1, 17400, Note_on_c, 1, 48, 127
1, 17423, Note_off_c, 1, 79, 0
1, 17423, Note_off_c, 1, 48, 0
1, 17424, Note_on_c, 1, 80, 127
1, 17424, Note_on_c, 1, 53, 127
1, 17447, Note_off_c, 1, 72, 0
1, 17448, Note_on_c, 1, 67, 127
1, 17469, Note_off_c, 1, 53, 0
1, 17471, Note_off_c, 1, 67, 0
1, 17472, Note_on_c, 1, 68, 127
1, 17495, Note_off_c, 1, 68, 0
1, 17496, Note_on_c, 1, 64, 127
1, 17519, Note_off_c, 1, 64, 0
1, 17520, Note_on_c, 1, 65, 127
1, 17520, Note_on_c, 1, 44, 127
1, 17543, Note_off_c, 1, 65, 0
1, 17565, Note_off_c, 1, 44, 0
1, 17568, Note_on_c, 1, 41, 127
1, 17591, Note_off_c, 1, 80, 0
1, 17592, Note_on_c, 1, 73, 127
1, 17613, Note_off_c, 1, 41, 0
1, 17615, Note_off_c, 1, 73, 0
1, 17616, Note_on_c, 1, 72, 127
1, 17616, Note_on_c, 1, 68, 127
1, 17616, Note_on_c, 1, 48, 127
1, 17639, Note_off_c, 1, 72, 0
1, 17639, Note_off_c, 1, 68, 0
1, 17640, Note_on_c, 1, 70, 127
1, 17661, Note_off_c, 1, 48, 0
1, 17663, Note_off_c, 1, 70, 0
1, 17664, Note_on_c, 1, 68, 127
1, 17664, Note_on_c, 1, 77, 127
1, 17664, Note_on_c, 1, 49, 127
1, 17687, Note_off_c, 1, 68, 0
1, 17687, Note_off_c, 1, 77, 0
1, 17688, Note_on_c, 1, 67, 127
1, 17688, Note_on_c, 1, 76, 127
1, 17711, Note_off_c, 1, 67, 0
1, 17711, Note_off_c, 1, 76, 0
1, 17712, Note_on_c, 1, 65, 127
1, 17736, Note_on_c, 1, 84, 127
1, 17757, Note_off_c, 1, 49, 0
1, 17759, Note_off_c, 1, 84, 0
1, 17760, Note_on_c, 1, 82, 127
1, 17760, Note_on_c, 1, 50, 127
1, 17779, Note_off_c, 1, 65, 0
1, 17783, Note_off_c, 1, 82, 0
1, 17784, Note_on_c, 1, 72, 127
1, 17784, Note_on_c, 1, 80, 127
1, 17805, Note_off_c, 1, 50, 0
1, 17807, Note_off_c, 1, 72, 0
1, 17807, Note_off_c, 1, 80, 0
1, 17808, Note_on_c, 1, 70, 127
1, 17808, Note_on_c, 1, 79, 127
1, 17808, Note_on_c, 1, 51, 127
1, 17831, Note_off_c, 1, 70, 0
1, 17831, Note_off_c, 1, 79, 0
1, 17832, Note_on_c, 1, 68, 127
1, 17832, Note_on_c, 1, 77, 127
1, 17855, Note_off_c, 1, 68, 0
1, 17855, Note_off_c, 1, 77, 0
1, 17856, Note_on_c, 1, 67, 127
1, 17856, Note_on_c, 1, 75, 127
1, 17879, Note_off_c, 1, 75, 0
1, 17880, Note_on_c, 1, 73, 127
1, 17901, Note_off_c, 1, 51, 0
1, 17901, Note_off_c, 1, 67, 0
1, 17903, Note_off_c, 1, 73, 0
1, 17904, Note_on_c, 1, 72, 127
1, 17904, Note_on_c, 1, 52, 127
1, 17928, Note_on_c, 1, 70, 127
1, 17949, Note_off_c, 1, 72, 0
1, 17949, Note_off_c, 1, 52, 0
1, 17951, Note_off_c, 1, 70, 0
1, 17952, Note_on_c, 1, 73, 127
1, 17952, Note_on_c, 1, 68, 127
1, 17952, Note_on_c, 1, 53, 127
1, 17975, Note_off_c, 1, 68, 0
1, 17976, Note_on_c, 1, 67, 127
1, 17999, Note_off_c, 1, 67, 0
1, 18000, Note_on_c, 1, 65, 127
1, 18023, Note_off_c, 1, 53, 0
1, 18023, Note_off_c, 1, 65, 0
1, 18024, Note_on_c, 1, 72, 127
1, 18024, Note_on_c, 1, 55, 127
1, 18045, Note_off_c, 1, 73, 0
1, 18047, Note_off_c, 1, 72, 0
1, 18047, Note_off_c, 1, 55, 0
1, 18048, Note_on_c, 1, 74, 127
1, 18048, Note_on_c, 1, 70, 127
1, 18048, Note_on_c, 1, 55, 127
1, 18060, Note_off_c, 1, 55, 0
1, 18060, Note_on_c, 1, 56, 127
1, 18071, Note_off_c, 1, 70, 0
1, 18072, Note_off_c, 1, 56, 0
1, 18072, Note_on_c, 1, 68, 127
1, 18093, Note_off_c, 1, 74, 0
1, 18095, Note_off_c, 1, 68, 0
1, 18096, Note_on_c, 1, 75, 127
1, 18096, Note_on_c, 1, 67, 127
1, 18119, Note_off_c, 1, 67, 0
1, 18120, Note_on_c, 1, 73, 127
1, 18120, Note_on_c, 1, 53, 127
1, 18132, Note_off_c, 1, 53, 0
1, 18143, Note_off_c, 1, 73, 0
1, 18144, Note_on_c, 1, 72, 127
1, 18168, Note_on_c, 1, 60, 127
1, 18189, Note_off_c, 1, 75, 0
1, 18189, Note_off_c, 1, 72, 0
1, 18191, Note_off_c, 1, 60, 0
1, 18192, Note_on_c, 1, 76, 127
1, 18192, Note_on_c, 1, 79, 127
1, 18192, Note_on_c, 1, 58, 127
1, 18215, Note_off_c, 1, 58, 0
1, 18216, Note_on_c, 1, 56, 127
1, 18237, Note_off_c, 1, 76, 0
1, 18237, Note_off_c, 1, 79, 0
1, 18239, Note_off_c, 1, 56, 0
1, 18240, Note_on_c, 1, 77, 127
1, 18240, Note_on_c, 1, 80, 127
1, 18240, Note_on_c, 1, 55, 127
1, 18263, Note_off_c, 1, 55, 0
1, 18264, Note_on_c, 1, 53, 127
1, 18287, Note_off_c, 1, 53, 0
1, 18288, Note_on_c, 1, 51, 127
1, 18311, Note_off_c, 1, 51, 0
1, 18312, Note_on_c, 1, 54, 127
1, 18333, Note_off_c, 1, 77, 0
1, 18333, Note_off_c, 1, 80, 0
1, 18335, Note_off_c, 1, 54, 0
1, 18336, Note_on_c, 1, 77, 127
1, 18336, Note_on_c, 1, 81, 127
1, 18336, Note_on_c, 1, 53, 127
1, 18348, Note_off_c, 1, 77, 0
1, 18348, Note_on_c, 1, 78, 127
1, 18359, Note_off_c, 1, 53, 0
1, 18360, Note_off_c, 1, 78, 0
1, 18360, Note_on_c, 1, 51, 127
1, 18381, Note_off_c, 1, 81, 0
1, 18383, Note_off_c, 1, 51, 0
1, 18384, Note_on_c, 1, 82, 127
1, 18384, Note_on_c, 1, 49, 127
1, 18407, Note_off_c, 1, 49, 0
1, 18408, Note_on_c, 1, 75, 127
1, 18408, Note_on_c, 1, 48, 127
1, 18420, Note_off_c, 1, 75, 0
1, 18431, Note_off_c, 1, 48, 0
1, 18455, Note_off_c, 1, 82, 0
1, 18456, Note_on_c, 1, 84, 127
1, 18479, Note_off_c, 1, 84, 0
1, 18480, Note_on_c, 1, 46, 127
1, 18492, Note_on_c, 1, 85, 127
1, 18503, Note_off_c, 1, 46, 0
1, 18504, Note_off_c, 1, 85, 0
1, 18504, Note_on_c, 1, 45, 127
1, 18527, Note_off_c, 1, 45, 0
1, 18528, Note_on_c, 1, 76, 127
1, 18528, Note_on_c, 1, 43, 127
1, 18551, Note_off_c, 1, 76, 0
1, 18551, Note_off_c, 1, 43, 0
1, 18552, Note_on_c, 1, 41, 127
1, 18575, Note_off_c, 1, 41, 0
1, 18648, Note_on_c, 1, 80, 127
1, 18671, Note_off_c, 1, 80, 0
1, 18672, Note_on_c, 1, 79, 127
1, 18695, Note_off_c, 1, 79, 0
1, 18744, Note_on_c, 1, 58, 127
1, 18767, Note_off_c, 1, 58, 0
1, 18768, Note_on_c, 1, 72, 127
1, 18768, Note_on_c, 1, 56, 127
1, 18791, Note_off_c, 1, 56, 0
1, 18792, Note_on_c, 1, 55, 127
1, 18813, Note_off_c, 1, 72, 0
1, 18815, Note_off_c, 1, 55, 0
1, 18864, Note_on_c, 1, 50, 127
1, 18887, Note_off_c, 1, 50, 0
1, 18960, Note_on_c, 1, 52, 127
1, 18983, Note_off_c, 1, 52, 0
1, 19104, Note_on_c, 1, 77, 127
1, 19104, Note_on_c, 1, 82, 127
1, 19104, Note_on_c, 1, 49, 127
1, 19127, Note_off_c, 1, 82, 0
1, 19127, Note_off_c, 1, 49, 0
1, 19128, Note_on_c, 1, 80, 127
1, 19128, Note_on_c, 1, 48, 127
1, 19151, Note_off_c, 1, 80, 0
1, 19151, Note_off_c, 1, 48, 0
1, 19152, Note_on_c, 1, 78, 127
1, 19152, Note_on_c, 1, 46, 127
1, 19175, Note_off_c, 1, 78, 0
1, 19175, Note_off_c, 1, 46, 0
1, 19176, Note_on_c, 1, 44, 127
1, 19199, Note_off_c, 1, 77, 0
1, 19199, Note_off_c, 1, 44, 0
1, 19200, Note_on_c, 1, 75, 127
1, 19200, Note_on_c, 1, 78, 127
1, 19200, Note_on_c, 1, 46, 127
1, 19223, Note_off_c, 1, 75, 0
1, 19223, Note_off_c, 1, 78, 0
1, 19223, Note_off_c, 1, 46, 0
1, 19224, Note_on_c, 1, 73, 127
1, 19224, Note_on_c, 1, 82, 127
1, 19224, Note_on_c, 1, 49, 127
1, 19247, Note_off_c, 1, 73, 0
1, 19247, Note_off_c, 1, 82, 0
1, 19247, Note_off_c, 1, 49, 0
1, 19248, Note_on_c, 1, 75, 127
1, 19248, Note_on_c, 1, 80, 127
1, 19248, Note_on_c, 1, 48, 127
1, 19271, Note_off_c, 1, 80, 0
1, 19271, Note_off_c, 1, 48, 0
1, 19272, Note_on_c, 1, 78, 127
1, 19272, Note_on_c, 1, 51, 127
1, 19295, Note_off_c, 1, 78, 0
1, 19295, Note_off_c, 1, 51, 0
1, 19296, Note_on_c, 1, 77, 127
1, 19296, Note_on_c, 1, 49, 127
1, 19319, Note_off_c, 1, 77, 0
1, 19319, Note_off_c, 1, 49, 0
1, 19343, Note_off_c, 1, 75, 0
1, 19344, Note_on_c, 1, 68, 127
1, 19344, Note_on_c, 1, 77, 127
1, 19344, Note_on_c, 1, 49, 127
1, 19367, Note_off_c, 1, 77, 0
1, 19367, Note_off_c, 1, 49, 0
1, 19368, Note_on_c, 1, 80, 127
1, 19368, Note_on_c, 1, 48, 127
1, 19389, Note_off_c, 1, 68, 0
1, 19391, Note_off_c, 1, 80, 0
1, 19391, Note_off_c, 1, 48, 0
1, 19392, Note_on_c, 1, 73, 127
1, 19392, Note_on_c, 1, 78, 127
1, 19392, Note_on_c, 1, 46, 127
1, 19415, Note_off_c, 1, 78, 0
1, 19415, Note_off_c, 1, 46, 0
1, 19416, Note_on_c, 1, 77, 127
1, 19416, Note_on_c, 1, 44, 127
1, 19439, Note_off_c, 1, 77, 0
1, 19439, Note_off_c, 1, 44, 0
1, 19440, Note_on_c, 1, 75, 127
1, 19463, Note_off_c, 1, 75, 0
1, 19464, Note_on_c, 1, 41, 127
1, 19487, Note_off_c, 1, 73, 0
1, 19487, Note_off_c, 1, 41, 0
1, 19488, Note_on_c, 1, 72, 127
1, 19488, Note_on_c, 1, 75, 127
1, 19488, Note_on_c, 1, 44, 127
1, 19511, Note_off_c, 1, 72, 0
1, 19511, Note_off_c, 1, 75, 0
1, 19511, Note_off_c, 1, 44, 0
1, 19512, Note_on_c, 1, 70, 127
1, 19512, Note_on_c, 1, 78, 127
1, 19512, Note_on_c, 1, 46, 127
1, 19535, Note_off_c, 1, 70, 0
1, 19535, Note_off_c, 1, 78, 0
1, 19535, Note_off_c, 1, 46, 0
1, 19536, Note_on_c, 1, 72, 127
1, 19536, Note_on_c, 1, 77, 127
1, 19536, Note_on_c, 1, 45, 127
1, 19559, Note_off_c, 1, 77, 0
1, 19559, Note_off_c, 1, 45, 0
1, 19560, Note_on_c, 1, 75, 127
1, 19560, Note_on_c, 1, 48, 127
1, 19583, Note_off_c, 1, 75, 0
1, 19583, Note_off_c, 1, 48, 0
1, 19584, Note_on_c, 1, 73, 127
1, 19584, Note_on_c, 1, 46, 127
1, 19607, Note_off_c, 1, 73, 0
1, 19607, Note_off_c, 1, 46, 0
1, 19631, Note_off_c, 1, 72, 0
1, 19632, Note_on_c, 1, 65, 127
1, 19632, Note_on_c, 1, 73, 127
1, 19632, Note_on_c, 1, 46, 127
1, 19655, Note_off_c, 1, 73, 0
1, 19655, Note_off_c, 1, 46, 0
1, 19656, Note_on_c, 1, 77, 127
1, 19656, Note_on_c, 1, 44, 127
1, 19677, Note_off_c, 1, 65, 0
1, 19679, Note_off_c, 1, 77, 0
1, 19679, Note_off_c, 1, 44, 0
1, 19680, Note_on_c, 1, 70, 127
1, 19680, Note_on_c, 1, 75, 127
1, 19680, Note_on_c, 1, 43, 127
1, 19703, Note_off_c, 1, 75, 0
1, 19703, Note_off_c, 1, 43, 0
1, 19704, Note_on_c, 1, 73, 127
1, 19704, Note_on_c, 1, 41, 127
1, 19727, Note_off_c, 1, 73, 0
1, 19727, Note_off_c, 1, 41, 0
1, 19728, Note_on_c, 1, 72, 127
1, 19728, Note_on_c, 1, 40, 127
1, 19751, Note_off_c, 1, 40, 0
1, 19752, Note_on_c, 1, 36, 127
1, 19773, Note_off_c, 1, 70, 0
1, 19775, Note_off_c, 1, 36, 0
1, 19776, Note_on_c, 1, 68, 127
1, 19776, Note_on_c, 1, 38, 127
1, 19795, Note_off_c, 1, 72, 0
1, 19799, Note_off_c, 1, 68, 0
1, 19799, Note_off_c, 1, 38, 0
1, 19800, Note_on_c, 1, 67, 127
1, 19800, Note_on_c, 1, 72, 127
1, 19800, Note_on_c, 1, 40, 127
1, 19823, Note_off_c, 1, 67, 0
1, 19823, Note_off_c, 1, 72, 0
1, 19823, Note_off_c, 1, 40, 0
1, 19824, Note_on_c, 1, 68, 127
1, 19824, Note_on_c, 1, 74, 127
1, 19824, Note_on_c, 1, 41, 127
1, 19847, Note_off_c, 1, 68, 0
1, 19847, Note_off_c, 1, 74, 0
1, 19847, Note_off_c, 1, 41, 0
1, 19848, Note_on_c, 1, 70, 127
1, 19848, Note_on_c, 1, 76, 127
1, 19848, Note_on_c, 1, 43, 127
1, 19871, Note_off_c, 1, 70, 0
1, 19871, Note_off_c, 1, 76, 0
1, 19871, Note_off_c, 1, 43, 0
1, 19872, Note_on_c, 1, 72, 127
1, 19872, Note_on_c, 1, 77, 127
1, 19872, Note_on_c, 1, 44, 127
1, 19895, Note_off_c, 1, 72, 0
1, 19895, Note_off_c, 1, 77, 0
1, 19895, Note_off_c, 1, 44, 0
1, 19896, Note_on_c, 1, 73, 127
1, 19896, Note_on_c, 1, 79, 127
1, 19896, Note_on_c, 1, 46, 127
1, 19919, Note_off_c, 1, 73, 0
1, 19919, Note_off_c, 1, 79, 0
1, 19919, Note_off_c, 1, 46, 0
1, 19920, Note_on_c, 1, 72, 127
1, 19920, Note_on_c, 1, 76, 127
1, 19920, Note_on_c, 1, 48, 127
1, 19943, Note_off_c, 1, 72, 0
1, 19944, Note_on_c, 1, 70, 127
1, 19965, Note_off_c, 1, 48, 0
1, 19967, Note_off_c, 1, 70, 0
1, 19968, Note_on_c, 1, 68, 127
1, 19968, Note_on_c, 1, 36, 127
1, 19987, Note_off_c, 1, 76, 0
1, 19991, Note_off_c, 1, 68, 0
1, 19992, Note_on_c, 1, 67, 127
1, 19992, Note_on_c, 1, 77, 127
1, 20013, Note_off_c, 1, 36, 0
1, 20015, Note_off_c, 1, 67, 0
1, 20015, Note_off_c, 1, 77, 0
1, 20016, Note_on_c, 1, 68, 127
1, 20016, Note_on_c, 1, 77, 127
1, 20016, Note_on_c, 1, 41, 127
1, 20039, Note_off_c, 1, 77, 0
1, 20040, Note_on_c, 1, 80, 127
1, 20061, Note_off_c, 1, 41, 0
1, 20063, Note_off_c, 1, 80, 0
1, 20064, Note_on_c, 1, 76, 127
1, 20064, Note_on_c, 1, 53, 127
1, 20083, Note_off_c, 1, 68, 0
1, 20087, Note_off_c, 1, 76, 0
1, 20109, Note_off_c, 1, 53, 0
1, 20112, Note_on_c, 1, 76, 127
1, 20112, Note_on_c, 1, 72, 127
1, 20112, Note_on_c, 1, 41, 127
1, 20135, Note_off_c, 1, 76, 0
1, 20136, Note_on_c, 1, 77, 127
1, 20157, Note_off_c, 1, 41, 0
1, 20159, Note_off_c, 1, 77, 0
1, 20160, Note_on_c, 1, 82, 127
1, 20160, Note_on_c, 1, 43, 127
1, 20183, Note_off_c, 1, 72, 0
1, 20205, Note_off_c, 1, 43, 0
1, 20208, Note_on_c, 1, 55, 127
1, 20227, Note_off_c, 1, 82, 0
1, 20232, Note_on_c, 1, 80, 127
1, 20253, Note_off_c, 1, 55, 0
1, 20255, Note_off_c, 1, 80, 0
1, 20256, Note_on_c, 1, 76, 127
1, 20256, Note_on_c, 1, 72, 127
1, 20256, Note_on_c, 1, 43, 127
1, 20279, Note_off_c, 1, 76, 0
1, 20280, Note_on_c, 1, 77, 127
1, 20301, Note_off_c, 1, 43, 0
1, 20303, Note_off_c, 1, 77, 0
1, 20304, Note_on_c, 1, 84, 127
1, 20304, Note_on_c, 1, 44, 127
1, 20327, Note_off_c, 1, 72, 0
1, 20349, Note_off_c, 1, 44, 0
1, 20352, Note_on_c, 1, 56, 127
1, 20371, Note_off_c, 1, 84, 0
1, 20376, Note_on_c, 1, 80, 127
1, 20397, Note_off_c, 1, 56, 0
1, 20399, Note_off_c, 1, 80, 0
1, 20400, Note_on_c, 1, 76, 127
1, 20400, Note_on_c, 1, 72, 127
1, 20400, Note_on_c, 1, 44, 127
1, 20423, Note_off_c, 1, 76, 0
1, 20424, Note_on_c, 1, 77, 127
1, 20445, Note_off_c, 1, 44, 0
1, 20447, Note_off_c, 1, 77, 0
1, 20448, Note_on_c, 1, 85, 127
1, 20448, Note_on_c, 1, 46, 127
1, 20471, Note_off_c, 1, 72, 0
1, 20493, Note_off_c, 1, 46, 0
1, 20495, Note_off_c, 1, 85, 0
1, 20496, Note_on_c, 1, 82, 127
1, 20496, Note_on_c, 1, 76, 127
1, 20496, Note_on_c, 1, 43, 127
1, 20519, Note_off_c, 1, 76, 0
1, 20520, Note_on_c, 1, 77, 127
1, 20541, Note_off_c, 1, 82, 0
1, 20541, Note_off_c, 1, 43, 0
1, 20543, Note_off_c, 1, 77, 0
1, 20544, Note_on_c, 1, 79, 127
1, 20544, Note_on_c, 1, 70, 127
1, 20544, Note_on_c, 1, 48, 127
1, 20567, Note_off_c, 1, 70, 0
1, 20589, Note_off_c, 1, 48, 0
1, 20592, Note_on_c, 1, 68, 127
1, 20592, Note_on_c, 1, 41, 127
1, 20615, Note_off_c, 1, 79, 0
1, 20616, Note_on_c, 1, 80, 127
1, 20637, Note_off_c, 1, 41, 0
1, 20639, Note_off_c, 1, 80, 0
1, 20640, Note_on_c, 1, 76, 127
1, 20640, Note_on_c, 1, 53, 127
1, 20659, Note_off_c, 1, 68, 0
1, 20663, Note_off_c, 1, 76, 0
1, 20664, Note_on_c, 1, 77, 127
1, 20685, Note_off_c, 1, 53, 0
1, 20687, Note_off_c, 1, 77, 0
1, 20688, Note_on_c, 1, 72, 127
1, 20688, Note_on_c, 1, 64, 127
1, 20688, Note_on_c, 1, 41, 127
1, 20711, Note_off_c, 1, 64, 0
1, 20712, Note_on_c, 1, 65, 127
1, 20733, Note_off_c, 1, 41, 0
1, 20735, Note_off_c, 1, 65, 0
1, 20736, Note_on_c, 1, 69, 127
1, 20736, Note_on_c, 1, 39, 127
1, 20759, Note_off_c, 1, 72, 0
1, 20781, Note_off_c, 1, 39, 0
1, 20784, Note_on_c, 1, 51, 127
1, 20803, Note_off_c, 1, 69, 0
1, 20808, Note_on_c, 1, 66, 127
1, 20829, Note_off_c, 1, 51, 0
1, 20831, Note_off_c, 1, 66, 0
1, 20832, Note_on_c, 1, 60, 127
1, 20832, Note_on_c, 1, 69, 127
1, 20832, Note_on_c, 1, 39, 127
1, 20855, Note_off_c, 1, 69, 0
1, 20856, Note_on_c, 1, 70, 127
1, 20877, Note_off_c, 1, 39, 0
1, 20879, Note_off_c, 1, 70, 0
1, 20880, Note_on_c, 1, 77, 127
1, 20880, Note_on_c, 1, 37, 127
1, 20903, Note_off_c, 1, 60, 0
1, 20904, Note_on_c, 1, 65, 127
1, 20925, Note_off_c, 1, 37, 0
1, 20927, Note_off_c, 1, 65, 0
1, 20928, Note_on_c, 1, 57, 127
1, 20928, Note_on_c, 1, 49, 127
1, 20947, Note_off_c, 1, 77, 0
1, 20951, Note_off_c, 1, 57, 0
1, 20952, Note_on_c, 1, 58, 127
1, 20952, Note_on_c, 1, 78, 127
1, 20973, Note_off_c, 1, 49, 0
1, 20975, Note_off_c, 1, 58, 0
1, 20975, Note_off_c, 1, 78, 0
1, 20976, Note_on_c, 1, 67, 127
1, 20976, Note_on_c, 1, 76, 127
1, 20976, Note_on_c, 1, 48, 127
1, 20999, Note_off_c, 1, 76, 0
1, 21000, Note_on_c, 1, 77, 127
1, 21021, Note_off_c, 1, 48, 0
1, 21023, Note_off_c, 1, 77, 0
1, 21024, Note_on_c, 1, 85, 127
1, 21024, Note_on_c, 1, 46, 127
1, 21047, Note_off_c, 1, 67, 0
1, 21047, Note_off_c, 1, 85, 0
1, 21048, Note_on_c, 1, 80, 127
1, 21048, Note_on_c, 1, 84, 127
1, 21069, Note_off_c, 1, 46, 0
1, 21071, Note_off_c, 1, 80, 0
1, 21071, Note_off_c, 1, 84, 0
1, 21072, Note_on_c, 1, 76, 127
1, 21072, Note_on_c, 1, 80, 127
1, 21072, Note_on_c, 1, 48, 127
1, 21084, Note_off_c, 1, 80, 0
1, 21084, Note_on_c, 1, 82, 127
1, 21095, Note_off_c, 1, 76, 0
1, 21096, Note_off_c, 1, 82, 0
1, 21096, Note_on_c, 1, 77, 127
1, 21117, Note_off_c, 1, 48, 0
1, 21119, Note_off_c, 1, 77, 0
1, 21120, Note_on_c, 1, 72, 127
1, 21120, Note_on_c, 1, 79, 127
1, 21120, Note_on_c, 1, 36, 127
1, 21143, Note_off_c, 1, 72, 0
1, 21143, Note_off_c, 1, 79, 0
1, 21165, Note_off_c, 1, 36, 0
1, 21168, Note_on_c, 1, 77, 127
1, 21168, Note_on_c, 1, 41, 127
1, 21301, Note_off_c, 1, 77, 0
1, 21301, Note_off_c, 1, 41, 0
1, 21301, End_track
0, 0, End_of_file