0, 0, Header, 1, 1, 480
1, 0, Start_track
1, 0, Title_t, "Test"
1, 0, Tempo, 500000
1, 0, Instrument_name_t, "Church Organ"
1, 0, Note_on_c, 1, 53, 127
1, 96, Note_on_c, 1, 72, 127
1, 177, Note_off_c, 1, 53, 0
1, 185, Note_off_c, 1, 72, 0
1, 192, Note_on_c, 1, 77, 127
1, 192, Note_on_c, 1, 56, 127
1, 281, Note_off_c, 1, 77, 0
1, 288, Note_on_c, 1, 72, 127
1, 369, Note_off_c, 1, 56, 0
1, 377, Note_off_c, 1, 72, 0
1, 384, Note_on_c, 1, 70, 127
1, 384, Note_on_c, 1, 60, 127
1, 473, Note_off_c, 1, 70, 0
1, 480, Note_on_c, 1, 68, 127
1, 525, Note_off_c, 1, 68, 0
1, 528, Note_on_c, 1, 67, 127
1, 561, Note_off_c, 1, 60, 0
1, 573, Note_off_c, 1, 67, 0
1, 576, Note_on_c, 1, 68, 127
1, 576, Note_on_c, 1, 53, 127
1, 672, Note_on_c, 1, 60, 127
1, 753, Note_off_c, 1, 68, 0
1, 753, Note_off_c, 1, 53, 0
1, 761, Note_off_c, 1, 60, 0
1, 768, Note_on_c, 1, 65, 127
1, 768, Note_on_c, 1, 44, 127
1, 857, Note_off_c, 1, 65, 0
1, 864, Note_on_c, 1, 60, 127
1, 864, Note_on_c, 1, 68, 127
1, 945, Note_off_c, 1, 44, 0
1, 953, Note_off_c, 1, 60, 0
1, 953, Note_off_c, 1, 68, 0
1, 960, Note_on_c, 1, 58, 127
1, 960, Note_on_c, 1, 67, 127
1, 960, Note_on_c, 1, 48, 127
1, 1049, Note_off_c, 1, 58, 0
1, 1049, Note_off_c, 1, 67, 0
1, 1056, Note_on_c, 1, 56, 127
1, 1056, Note_on_c, 1, 65, 127
1, 1101, Note_off_c, 1, 56, 0
1, 1101, Note_off_c, 1, 65, 0
1, 1104, Note_on_c, 1, 55, 127
1, 1104, Note_on_c, 1, 64, 127
1, 1137, Note_off_c, 1, 48, 0
1, 1149, Note_off_c, 1, 55, 0
1, 1149, Note_off_c, 1, 64, 0
1, 1152, Note_on_c, 1, 56, 127
1, 1152, Note_on_c, 1, 65, 127
1, 1329, Note_off_c, 1, 56, 0
1, 1329, Note_off_c, 1, 65, 0
1, 1344, Note_on_c, 1, 72, 127
1, 1344, Note_on_c, 1, 56, 127
1, 1433, Note_off_c, 1, 56, 0
1, 1440, Note_on_c, 1, 68, 127
1, 1440, Note_on_c, 1, 53, 127
1, 1485, Note_off_c, 1, 68, 0
1, 1488, Note_on_c, 1, 67, 127
1, 1521, Note_off_c, 1, 72, 0
1, 1529, Note_off_c, 1, 53, 0
1, 1533, Note_off_c, 1, 67, 0
1, 1536, Note_on_c, 1, 68, 127
1, 1536, Note_on_c, 1, 77, 127
1, 1536, Note_on_c, 1, 49, 127
1, 1625, Note_off_c, 1, 68, 0
1, 1625, Note_off_c, 1, 49, 0
1, 1632, Note_on_c, 1, 73, 127
1, 1632, Note_on_c, 1, 48, 127
1, 1677, Note_off_c, 1, 48, 0
1, 1680, Note_on_c, 1, 46, 127
1, 1713, Note_off_c, 1, 77, 0
1, 1721, Note_off_c, 1, 73, 0
1, 1725, Note_off_c, 1, 46, 0
1, 1728, Note_on_c, 1, 67, 127
1, 1728, Note_on_c, 1, 77, 127
1, 1728, Note_on_c, 1, 39, 127
1, 1817, Note_off_c, 1, 39, 0
1, 1824, Note_on_c, 1, 51, 127
1, 1905, Note_off_c, 1, 67, 0
1, 1905, Note_off_c, 1, 77, 0
1, 1913, Note_off_c, 1, 51, 0
1, 1920, Note_on_c, 1, 70, 127
1, 1920, Note_on_c, 1, 55, 127
1, 2009, Note_off_c, 1, 55, 0
1, 2016, Note_on_c, 1, 67, 127
1, 2016, Note_on_c, 1, 51, 127
1, 2061, Note_off_c, 1, 67, 0
1, 2064, Note_on_c, 1, 65, 127
1, 2097, Note_off_c, 1, 70, 0
1, 2105, Note_off_c, 1, 51, 0
1, 2109, Note_off_c, 1, 65, 0
1, 2112, Note_on_c, 1, 67, 127
1, 2112, Note_on_c, 1, 75, 127
1, 2112, Note_on_c, 1, 48, 127
1, 2201, Note_off_c, 1, 67, 0
1, 2201, Note_off_c, 1, 48, 0
1, 2208, Note_on_c, 1, 72, 127
1, 2208, Note_on_c, 1, 46, 127
1, 2253, Note_off_c, 1, 46, 0
1, 2256, Note_on_c, 1, 44, 127
1, 2297, Note_off_c, 1, 72, 0
1, 2301, Note_off_c, 1, 44, 0
1, 2304, Note_on_c, 1, 65, 127
1, 2304, Note_on_c, 1, 37, 127
1, 2393, Note_off_c, 1, 37, 0
1, 2400, Note_on_c, 1, 49, 127
1, 2481, Note_off_c, 1, 75, 0
1, 2481, Note_off_c, 1, 65, 0
1, 2489, Note_off_c, 1, 49, 0
1, 2496, Note_on_c, 1, 68, 127
1, 2496, Note_on_c, 1, 53, 127
1, 2585, Note_off_c, 1, 53, 0
1, 2592, Note_on_c, 1, 65, 127
1, 2592, Note_on_c, 1, 49, 127
1, 2637, Note_off_c, 1, 65, 0
1, 2640, Note_on_c, 1, 64, 127
1, 2673, Note_off_c, 1, 68, 0
1, 2681, Note_off_c, 1, 49, 0
1, 2685, Note_off_c, 1, 64, 0
1, 2688, Note_on_c, 1, 65, 127
1, 2688, Note_on_c, 1, 73, 127
1, 2688, Note_on_c, 1, 46, 127
1, 2777, Note_off_c, 1, 65, 0
1, 2777, Note_off_c, 1, 46, 0
1, 2784, Note_on_c, 1, 70, 127
1, 2784, Note_on_c, 1, 44, 127
1, 2829, Note_off_c, 1, 44, 0
1, 2832, Note_on_c, 1, 43, 127
1, 2873, Note_off_c, 1, 70, 0
1, 2877, Note_off_c, 1, 43, 0
1, 2880, Note_on_c, 1, 64, 127
1, 2969, Note_off_c, 1, 73, 0
1, 2976, Note_on_c, 1, 72, 127
1, 3057, Note_off_c, 1, 64, 0
1, 3065, Note_off_c, 1, 72, 0
1, 3072, Note_on_c, 1, 60, 127
1, 3072, Note_on_c, 1, 77, 127
1, 3072, Note_on_c, 1, 44, 127
1, 3161, Note_off_c, 1, 77, 0
1, 3161, Note_off_c, 1, 44, 0
1, 3168, Note_on_c, 1, 68, 127
1, 3168, Note_on_c, 1, 72, 127
1, 3168, Note_on_c, 1, 41, 127
1, 3257, Note_off_c, 1, 68, 0
1, 3257, Note_off_c, 1, 72, 0
1, 3257, Note_off_c, 1, 41, 0
1, 3264, Note_on_c, 1, 67, 127
1, 3264, Note_on_c, 1, 70, 127
1, 3264, Note_on_c, 1, 48, 127
1, 3353, Note_off_c, 1, 67, 0
1, 3353, Note_off_c, 1, 70, 0
1, 3353, Note_off_c, 1, 48, 0
1, 3360, Note_on_c, 1, 65, 127
1, 3360, Note_on_c, 1, 36, 127
1, 3405, Note_off_c, 1, 65, 0
1, 3408, Note_on_c, 1, 64, 127
1, 3449, Note_off_c, 1, 36, 0
1, 3453, Note_off_c, 1, 64, 0
1, 3840, Note_on_c, 1, 58, 127
1, 3929, Note_off_c, 1, 58, 0
1, 3936, Note_on_c, 1, 56, 127
1, 3981, Note_off_c, 1, 56, 0
1, 3984, Note_on_c, 1, 55, 127
1, 4029, Note_off_c, 1, 55, 0
1, 4032, Note_on_c, 1, 53, 127
1, 4165, Note_off_c, 1, 60, 0
1, 4209, Note_off_c, 1, 53, 0
1, 4224, Note_on_c, 1, 67, 127
1, 4224, Note_on_c, 1, 46, 127
1, 4401, Note_off_c, 1, 67, 0
1, 4401, Note_off_c, 1, 46, 0
1, 4416, Note_on_c, 1, 65, 127
1, 4416, Note_on_c, 1, 49, 127
1, 4424, Note_off_c, 1, 65, 0
1, 4424, Note_on_c, 1, 67, 127
1, 4432, Note_off_c, 1, 67, 0
1, 4464, Note_on_c, 1, 64, 127
1, 4509, Note_off_c, 1, 64, 0
1, 4593, Note_off_c, 1, 49, 0
1, 4608, Note_on_c, 1, 64, 127
1, 4608, Note_on_c, 1, 48, 127
1, 4704, Note_on_c, 1, 72, 127
1, 4785, Note_off_c, 1, 48, 0
1, 4793, Note_off_c, 1, 72, 0
1, 4800, Note_on_c, 1, 79, 127
1, 4800, Note_on_c, 1, 52, 127
1, 4889, Note_off_c, 1, 79, 0
1, 4962, Note_off_c, 1, 64, 0
1, 4977, Note_off_c, 1, 52, 0
1, 4992, Note_on_c, 1, 70, 127
1, 4992, Note_on_c, 1, 48, 127
1, 5081, Note_off_c, 1, 70, 0
1, 5088, Note_on_c, 1, 68, 127
1, 5133, Note_off_c, 1, 68, 0
1, 5136, Note_on_c, 1, 67, 127
1, 5169, Note_off_c, 1, 48, 0
1, 5181, Note_off_c, 1, 67, 0
1, 5184, Note_on_c, 1, 68, 127
1, 5184, Note_on_c, 1, 53, 127
1, 5280, Note_on_c, 1, 77, 127
1, 5361, Note_off_c, 1, 68, 0
1, 5361, Note_off_c, 1, 53, 0
1, 5369, Note_off_c, 1, 77, 0
1, 5376, Note_on_c, 1, 84, 127
1, 5376, Note_on_c, 1, 56, 127
1, 5465, Note_off_c, 1, 84, 0
1, 5472, Note_on_c, 1, 77, 127
1, 5553, Note_off_c, 1, 56, 0
1, 5561, Note_off_c, 1, 77, 0
1, 5568, Note_on_c, 1, 75, 127
1, 5568, Note_on_c, 1, 57, 127
1, 5657, Note_off_c, 1, 75, 0
1, 5664, Note_on_c, 1, 73, 127
1, 5709, Note_off_c, 1, 73, 0
1, 5712, Note_on_c, 1, 72, 127
1, 5745, Note_off_c, 1, 57, 0
1, 5760, Note_on_c, 1, 46, 127
1, 5849, Note_off_c, 1, 46, 0
1, 5856, Note_on_c, 1, 58, 127
1, 5937, Note_off_c, 1, 72, 0
1, 5945, Note_off_c, 1, 58, 0
1, 5952, Note_on_c, 1, 65, 127
1, 5952, Note_on_c, 1, 61, 127
1, 6041, Note_off_c, 1, 61, 0
1, 6048, Note_on_c, 1, 73, 127
1, 6048, Note_on_c, 1, 58, 127
1, 6093, Note_off_c, 1, 73, 0
1, 6096, Note_on_c, 1, 72, 127
1, 6129, Note_off_c, 1, 65, 0
1, 6137, Note_off_c, 1, 58, 0
1, 6141, Note_off_c, 1, 72, 0
1, 6144, Note_on_c, 1, 73, 127
1, 6144, Note_on_c, 1, 70, 127
1, 6144, Note_on_c, 1, 55, 127
1, 6233, Note_off_c, 1, 73, 0
1, 6233, Note_off_c, 1, 55, 0
1, 6240, Note_on_c, 1, 79, 127
1, 6240, Note_on_c, 1, 53, 127
1, 6285, Note_off_c, 1, 53, 0
1, 6288, Note_on_c, 1, 51, 127
1, 6321, Note_off_c, 1, 70, 0
1, 6329, Note_off_c, 1, 79, 0
1, 6333, Note_off_c, 1, 51, 0
1, 6336, Note_on_c, 1, 72, 127
1, 6336, Note_on_c, 1, 70, 127
1, 6336, Note_on_c, 1, 44, 127
1, 6425, Note_off_c, 1, 44, 0
1, 6432, Note_on_c, 1, 56, 127
1, 6513, Note_off_c, 1, 72, 0
1, 6513, Note_off_c, 1, 70, 0
1, 6521, Note_off_c, 1, 56, 0
1, 6528, Note_on_c, 1, 63, 127
1, 6528, Note_on_c, 1, 60, 127
1, 6617, Note_off_c, 1, 60, 0
1, 6624, Note_on_c, 1, 72, 127
1, 6624, Note_on_c, 1, 56, 127
1, 6669, Note_off_c, 1, 72, 0
1, 6672, Note_on_c, 1, 70, 127
1, 6705, Note_off_c, 1, 63, 0
1, 6713, Note_off_c, 1, 56, 0
1, 6717, Note_off_c, 1, 70, 0
1, 6720, Note_on_c, 1, 72, 127
1, 6720, Note_on_c, 1, 68, 127
1, 6720, Note_on_c, 1, 53, 127
1, 6809, Note_off_c, 1, 72, 0
1, 6809, Note_off_c, 1, 53, 0
1, 6816, Note_on_c, 1, 77, 127
1, 6816, Note_on_c, 1, 51, 127
1, 6861, Note_off_c, 1, 51, 0
1, 6864, Note_on_c, 1, 49, 127
1, 6905, Note_off_c, 1, 77, 0
1, 6909, Note_off_c, 1, 49, 0
1, 6912, Note_on_c, 1, 70, 127
1, 6912, Note_on_c, 1, 43, 127
1, 7001, Note_off_c, 1, 43, 0
1, 7008, Note_on_c, 1, 55, 127
1, 7089, Note_off_c, 1, 68, 0
1, 7089, Note_off_c, 1, 70, 0
1, 7097, Note_off_c, 1, 55, 0
1, 7104, Note_on_c, 1, 67, 127
1, 7104, Note_on_c, 1, 58, 127
1, 7193, Note_off_c, 1, 67, 0
1, 7193, Note_off_c, 1, 58, 0
1, 7200, Note_on_c, 1, 70, 127
1, 7200, Note_on_c, 1, 65, 127
1, 7200, Note_on_c, 1, 55, 127
1, 7245, Note_off_c, 1, 70, 0
1, 7248, Note_on_c, 1, 68, 127
1, 7289, Note_off_c, 1, 65, 0
1, 7289, Note_off_c, 1, 55, 0
1, 7293, Note_off_c, 1, 68, 0
1, 7296, Note_on_c, 1, 70, 127
1, 7296, Note_on_c, 1, 67, 127
1, 7296, Note_on_c, 1, 52, 127
1, 7385, Note_off_c, 1, 70, 0
1, 7385, Note_off_c, 1, 52, 0
1, 7392, Note_on_c, 1, 76, 127
1, 7392, Note_on_c, 1, 50, 127
1, 7437, Note_off_c, 1, 50, 0
1, 7440, Note_on_c, 1, 48, 127
1, 7473, Note_off_c, 1, 67, 0
1, 7481, Note_off_c, 1, 76, 0
1, 7485, Note_off_c, 1, 48, 0
1, 7488, Note_on_c, 1, 77, 127
1, 7488, Note_on_c, 1, 68, 127
1, 7488, Note_on_c, 1, 53, 127
1, 7577, Note_off_c, 1, 77, 0
1, 7577, Note_off_c, 1, 68, 0
1, 7584, Note_on_c, 1, 60, 127
1, 7665, Note_off_c, 1, 53, 0
1, 7673, Note_off_c, 1, 60, 0
1, 7680, Note_on_c, 1, 60, 127
1, 7680, Note_on_c, 1, 65, 127
1, 7680, Note_on_c, 1, 44, 127
1, 7769, Note_off_c, 1, 65, 0
1, 7776, Note_on_c, 1, 68, 127
1, 7857, Note_off_c, 1, 44, 0
1, 7865, Note_off_c, 1, 68, 0
1, 7872, Note_on_c, 1, 67, 127
1, 7872, Note_on_c, 1, 58, 127
1, 7872, Note_on_c, 1, 48, 127
1, 7961, Note_off_c, 1, 67, 0
1, 7961, Note_off_c, 1, 58, 0
1, 7968, Note_on_c, 1, 56, 127
1, 8013, Note_off_c, 1, 56, 0
1, 8016, Note_on_c, 1, 64, 127
1, 8016, Note_on_c, 1, 55, 127
1, 8049, Note_off_c, 1, 48, 0
1, 8061, Note_off_c, 1, 64, 0
1, 8061, Note_off_c, 1, 55, 0
1, 8064, Note_on_c, 1, 53, 127
1, 8160, Note_on_c, 1, 72, 127
1, 8241, Note_off_c, 1, 53, 0
1, 8249, Note_off_c, 1, 72, 0
1, 8256, Note_on_c, 1, 77, 127
1, 8345, Note_off_c, 1, 77, 0
1, 8448, Note_on_c, 1, 70, 127
1, 8537, Note_off_c, 1, 70, 0
1, 8773, Note_off_c, 1, 60, 0
1, 8832, Note_on_c, 1, 67, 127
1, 8832, Note_on_c, 1, 46, 127
1, 9009, Note_off_c, 1, 46, 0
1, 9024, Note_off_c, 1, 67, 0
1, 9024, Note_on_c, 1, 65, 127
1, 9024, Note_on_c, 1, 49, 127
1, 9032, Note_off_c, 1, 65, 0
1, 9072, Note_on_c, 1, 64, 127
1, 9117, Note_off_c, 1, 64, 0
1, 9201, Note_off_c, 1, 49, 0
1, 9216, Note_on_c, 1, 64, 127
1, 9216, Note_on_c, 1, 48, 127
1, 9261, Note_off_c, 1, 64, 0
1, 9264, Note_on_c, 1, 67, 127
1, 9309, Note_off_c, 1, 67, 0
1, 9312, Note_on_c, 1, 70, 127
1, 9357, Note_off_c, 1, 70, 0
1, 9360, Note_on_c, 1, 73, 127
1, 9393, Note_off_c, 1, 48, 0
1, 9405, Note_off_c, 1, 73, 0
1, 9408, Note_on_c, 1, 72, 127
1, 9408, Note_on_c, 1, 52, 127
1, 9504, Note_on_c, 1, 67, 127
1, 9585, Note_off_c, 1, 72, 0
1, 9585, Note_off_c, 1, 52, 0
1, 9593, Note_off_c, 1, 67, 0
1, 9600, Note_on_c, 1, 72, 127
1, 9600, Note_on_c, 1, 64, 127
1, 9600, Note_on_c, 1, 48, 127
1, 9645, Note_off_c, 1, 72, 0
1, 9648, Note_on_c, 1, 70, 127
1, 9689, Note_off_c, 1, 64, 0
1, 9693, Note_off_c, 1, 70, 0
1, 9696, Note_on_c, 1, 68, 127
1, 9696, Note_on_c, 1, 62, 127
1, 9719, Note_off_c, 1, 68, 0
1, 9720, Note_on_c, 1, 67, 127
1, 9741, Note_off_c, 1, 62, 0
1, 9743, Note_off_c, 1, 67, 0
1, 9744, Note_on_c, 1, 60, 127
1, 9777, Note_off_c, 1, 48, 0
1, 9789, Note_off_c, 1, 60, 0
1, 9792, Note_on_c, 1, 68, 127
1, 9792, Note_on_c, 1, 53, 127
1, 9888, Note_on_c, 1, 72, 127
1, 9969, Note_off_c, 1, 53, 0
1, 9977, Note_off_c, 1, 72, 0
1, 9984, Note_on_c, 1, 77, 127
1, 9984, Note_on_c, 1, 56, 127
1, 10073, Note_off_c, 1, 77, 0
1, 10161, Note_off_c, 1, 56, 0
1, 10272, Note_on_c, 1, 67, 127
1, 10317, Note_off_c, 1, 67, 0
1, 10320, Note_on_c, 1, 65, 127
1, 10365, Note_off_c, 1, 65, 0
1, 10368, Note_on_c, 1, 73, 127
1, 10368, Note_on_c, 1, 58, 127
1, 10545, Note_off_c, 1, 68, 0
1, 10545, Note_off_c, 1, 58, 0
1, 10560, Note_on_c, 1, 70, 127
1, 10649, Note_off_c, 1, 70, 0
1, 10752, Note_on_c, 1, 61, 127
1, 10841, Note_off_c, 1, 61, 0
1, 10848, Note_on_c, 1, 60, 127
1, 10893, Note_off_c, 1, 60, 0
1, 10989, Note_off_c, 1, 73, 0
1, 11136, Note_on_c, 1, 63, 127
1, 11225, Note_off_c, 1, 63, 0
1, 11328, Note_on_c, 1, 75, 127
1, 11328, Note_on_c, 1, 55, 127
1, 11417, Note_off_c, 1, 75, 0
1, 11417, Note_off_c, 1, 55, 0
1, 11472, Note_on_c, 1, 51, 127
1, 11517, Note_off_c, 1, 51, 0
1, 11712, Note_on_c, 1, 66, 127
1, 11757, Note_off_c, 1, 66, 0
1, 11904, Note_on_c, 1, 48, 127
1, 11993, Note_off_c, 1, 48, 0
1, 12000, Note_on_c, 1, 46, 127
1, 12045, Note_off_c, 1, 46, 0
1, 12048, Note_on_c, 1, 44, 127
1, 12093, Note_off_c, 1, 44, 0
1, 12096, Note_on_c, 1, 49, 127
1, 12361, Note_off_c, 1, 49, 0
1, 12576, Note_on_c, 1, 43, 127
1, 12665, Note_off_c, 1, 43, 0
1, 12672, Note_on_c, 1, 40, 127
1, 12849, Note_off_c, 1, 40, 0
1, 13056, Note_on_c, 1, 52, 127
1, 13145, Note_off_c, 1, 52, 0
1, 13152, Note_on_c, 1, 50, 127
1, 13197, Note_off_c, 1, 50, 0
1, 13248, Note_on_c, 1, 41, 127
1, 13425, Note_off_c, 1, 41, 0
1, 13824, Note_on_c, 1, 72, 127
1, 13824, Note_on_c, 1, 64, 127
1, 13824, Note_on_c, 1, 55, 127
1, 13824, Note_on_c, 1, 48, 127
1, 13913, Note_off_c, 1, 64, 0
1, 13913, Note_off_c, 1, 55, 0
1, 14001, Note_off_c, 1, 48, 0
1, 14016, Note_on_c, 1, 79, 127
1, 14016, Note_on_c, 1, 52, 127
1, 14105, Note_off_c, 1, 79, 0
1, 14193, Note_off_c, 1, 52, 0
1, 14201, Note_off_c, 1, 72, 0
1, 14208, Note_on_c, 1, 70, 127
1, 14208, Note_on_c, 1, 48, 127
1, 14297, Note_off_c, 1, 70, 0
1, 14304, Note_on_c, 1, 68, 127
1, 14349, Note_off_c, 1, 68, 0
1, 14352, Note_on_c, 1, 67, 127
1, 14385, Note_off_c, 1, 48, 0
1, 14397, Note_off_c, 1, 67, 0
1, 14400, Note_on_c, 1, 68, 127
1, 14400, Note_on_c, 1, 53, 127
1, 14496, Note_on_c, 1, 72, 127
1, 14496, Note_on_c, 1, 60, 127
1, 14577, Note_off_c, 1, 53, 0
1, 14585, Note_off_c, 1, 72, 0
1, 14585, Note_off_c, 1, 60, 0
1, 14592, Note_on_c, 1, 65, 127
1, 14681, Note_off_c, 1, 65, 0
1, 14784, Note_on_c, 1, 61, 127
1, 14784, Note_on_c, 1, 56, 127
1, 14873, Note_off_c, 1, 61, 0
1, 14873, Note_off_c, 1, 56, 0
1, 14880, Note_on_c, 1, 55, 127
1, 14925, Note_off_c, 1, 55, 0
1, 14930, Note_off_c, 1, 68, 0
1, 14976, Note_on_c, 1, 61, 127
1, 14976, Note_on_c, 1, 68, 127
1, 14976, Note_on_c, 1, 58, 127
1, 14976, Note_on_c, 1, 46, 127
1, 15065, Note_off_c, 1, 68, 0
1, 15072, Note_on_c, 1, 70, 127
1, 15153, Note_off_c, 1, 46, 0
1, 15161, Note_off_c, 1, 70, 0
1, 15168, Note_on_c, 1, 77, 127
1, 15168, Note_on_c, 1, 49, 127
1, 15257, Note_off_c, 1, 77, 0
1, 15345, Note_off_c, 1, 49, 0
1, 15456, Note_on_c, 1, 67, 127
1, 15501, Note_off_c, 1, 67, 0
1, 15504, Note_on_c, 1, 65, 127
1, 15552, Note_off_c, 1, 65, 0
1, 15552, Note_on_c, 1, 51, 127
1, 15641, Note_off_c, 1, 61, 0
1, 15641, Note_off_c, 1, 58, 0
1, 15729, Note_off_c, 1, 51, 0
1, 15744, Note_on_c, 1, 63, 127
1, 15936, Note_on_c, 1, 60, 127
1, 15936, Note_on_c, 1, 55, 127
1, 16025, Note_off_c, 1, 60, 0
1, 16025, Note_off_c, 1, 55, 0
1, 16032, Note_on_c, 1, 53, 127
1, 16077, Note_off_c, 1, 53, 0
1, 16128, Note_off_c, 1, 63, 0
1, 16128, Note_on_c, 1, 56, 127
1, 16128, Note_on_c, 1, 44, 127
1, 16305, Note_off_c, 1, 44, 0
1, 16320, Note_on_c, 1, 75, 127
1, 16409, Note_off_c, 1, 75, 0
1, 16512, Note_on_c, 1, 66, 127
1, 16512, Note_on_c, 1, 48, 127
1, 16601, Note_off_c, 1, 66, 0
1, 16689, Note_off_c, 1, 48, 0
1, 16793, Note_off_c, 1, 56, 0
1, 16896, Note_on_c, 1, 56, 127
1, 16896, Note_on_c, 1, 61, 127
1, 16985, Note_off_c, 1, 61, 0
1, 16992, Note_on_c, 1, 65, 127
1, 17081, Note_off_c, 1, 56, 0
1, 17088, Note_on_c, 1, 68, 127
1, 17088, Note_on_c, 1, 53, 127
1, 17177, Note_off_c, 1, 68, 0
1, 17177, Note_off_c, 1, 53, 0
1, 17184, Note_on_c, 1, 73, 127
1, 17184, Note_on_c, 1, 51, 127
1, 17229, Note_off_c, 1, 51, 0
1, 17232, Note_on_c, 1, 49, 127
1, 17273, Note_off_c, 1, 73, 0
1, 17277, Note_off_c, 1, 49, 0
1, 17280, Note_on_c, 1, 70, 127
1, 17280, Note_on_c, 1, 55, 127
1, 17369, Note_off_c, 1, 65, 0
1, 17369, Note_off_c, 1, 55, 0
1, 17376, Note_on_c, 1, 67, 127
1, 17424, Note_on_c, 1, 63, 127
1, 17465, Note_off_c, 1, 67, 0
1, 17469, Note_off_c, 1, 63, 0
1, 17472, Note_on_c, 1, 60, 127
1, 17561, Note_off_c, 1, 70, 0
1, 17664, Note_on_c, 1, 48, 127
1, 17709, Note_off_c, 1, 60, 0
1, 17753, Note_off_c, 1, 48, 0
1, 17760, Note_on_c, 1, 55, 127
1, 17760, Note_on_c, 1, 74, 127
1, 17760, Note_on_c, 1, 65, 127
1, 17760, Note_on_c, 1, 46, 127
1, 17805, Note_off_c, 1, 55, 0
1, 17805, Note_off_c, 1, 46, 0
1, 17808, Note_on_c, 1, 56, 127
1, 17808, Note_on_c, 1, 44, 127
1, 17849, Note_off_c, 1, 74, 0
1, 17849, Note_off_c, 1, 65, 0
1, 17853, Note_off_c, 1, 56, 0
1, 17853, Note_off_c, 1, 44, 0
1, 17856, Note_on_c, 1, 58, 127
1, 17856, Note_on_c, 1, 75, 127
1, 17856, Note_on_c, 1, 67, 127
1, 17856, Note_on_c, 1, 51, 127
1, 17945, Note_off_c, 1, 75, 0
1, 18033, Note_off_c, 1, 67, 0
1, 18033, Note_off_c, 1, 51, 0
1, 18048, Note_on_c, 1, 82, 127
1, 18048, Note_on_c, 1, 55, 127
1, 18137, Note_off_c, 1, 82, 0
1, 18210, Note_off_c, 1, 58, 0
1, 18225, Note_off_c, 1, 55, 0
1, 18240, Note_on_c, 1, 73, 127
1, 18240, Note_on_c, 1, 51, 127
1, 18329, Note_off_c, 1, 73, 0
1, 18336, Note_on_c, 1, 72, 127
1, 18381, Note_off_c, 1, 72, 0
1, 18384, Note_on_c, 1, 70, 127
1, 18417, Note_off_c, 1, 51, 0
1, 18429, Note_off_c, 1, 70, 0
1, 18432, Note_on_c, 1, 72, 127
1, 18432, Note_on_c, 1, 56, 127
1, 18528, Note_on_c, 1, 63, 127
1, 18609, Note_off_c, 1, 56, 0
1, 18617, Note_off_c, 1, 63, 0
1, 18624, Note_on_c, 1, 68, 127
1, 18624, Note_on_c, 1, 60, 127
1, 18713, Note_off_c, 1, 68, 0
1, 18801, Note_off_c, 1, 60, 0
1, 18816, Note_on_c, 1, 65, 127
1, 18905, Note_off_c, 1, 65, 0
1, 18912, Note_on_c, 1, 66, 127
1, 18912, Note_on_c, 1, 58, 127
1, 18957, Note_off_c, 1, 58, 0
1, 19001, Note_off_c, 1, 66, 0
1, 19008, Note_on_c, 1, 49, 127
1, 19053, Note_off_c, 1, 72, 0
1, 19104, Note_on_c, 1, 61, 127
1, 19149, Note_off_c, 1, 61, 0
1, 19200, Note_on_c, 1, 70, 127
1, 19377, Note_off_c, 1, 70, 0
1, 19488, Note_on_c, 1, 73, 127
1, 19577, Note_off_c, 1, 73, 0
1, 19584, Note_on_c, 1, 67, 127
1, 19629, Note_off_c, 1, 67, 0
1, 19761, Note_off_c, 1, 49, 0
1, 19776, Note_on_c, 1, 48, 127
1, 19872, Note_on_c, 1, 75, 127
1, 19917, Note_off_c, 1, 75, 0
1, 19953, Note_off_c, 1, 48, 0
1, 19968, Note_on_c, 1, 65, 127
1, 19968, Note_on_c, 1, 70, 127
1, 19968, Note_on_c, 1, 49, 127
1, 20013, Note_off_c, 1, 70, 0
1, 20016, Note_on_c, 1, 68, 127
1, 20061, Note_off_c, 1, 68, 0
1, 20064, Note_on_c, 1, 67, 127
1, 20109, Note_off_c, 1, 67, 0
1, 20145, Note_off_c, 1, 49, 0
1, 20160, Note_on_c, 1, 73, 127
1, 20160, Note_on_c, 1, 58, 127
1, 20160, Note_on_c, 1, 46, 127
1, 20249, Note_off_c, 1, 65, 0
1, 20249, Note_off_c, 1, 73, 0
1, 20256, Note_on_c, 1, 63, 127
1, 20256, Note_on_c, 1, 72, 127
1, 20301, Note_off_c, 1, 63, 0
1, 20301, Note_off_c, 1, 72, 0
1, 20304, Note_on_c, 1, 61, 127
1, 20337, Note_off_c, 1, 58, 0
1, 20337, Note_off_c, 1, 46, 0
1, 20349, Note_off_c, 1, 61, 0
1, 20352, Note_on_c, 1, 60, 127
1, 20352, Note_on_c, 1, 68, 127
1, 20352, Note_on_c, 1, 63, 127
1, 20352, Note_on_c, 1, 51, 127
1, 20529, Note_off_c, 1, 60, 0
1, 20529, Note_off_c, 1, 68, 0
1, 20529, Note_off_c, 1, 51, 0
1, 20544, Note_on_c, 1, 58, 127
1, 20544, Note_on_c, 1, 67, 127
1, 20544, Note_on_c, 1, 61, 127
1, 20544, Note_on_c, 1, 39, 127
1, 20552, Note_off_c, 1, 58, 0
1, 20677, Note_off_c, 1, 67, 0
1, 20688, Note_on_c, 1, 56, 127
1, 20721, Note_off_c, 1, 61, 0
1, 20721, Note_off_c, 1, 39, 0
1, 20733, Note_off_c, 1, 56, 0
1, 20736, Note_off_c, 1, 63, 0
1, 20736, Note_on_c, 1, 44, 127
1, 20913, Note_off_c, 1, 44, 0
1, 20928, Note_on_c, 1, 75, 127
1, 20928, Note_on_c, 1, 48, 127
1, 21017, Note_off_c, 1, 75, 0
1, 21105, Note_off_c, 1, 48, 0
1, 21120, Note_on_c, 1, 66, 127
1, 21120, Note_on_c, 1, 44, 127
1, 21209, Note_off_c, 1, 66, 0
1, 21216, Note_on_c, 1, 65, 127
1, 21261, Note_off_c, 1, 65, 0
1, 21264, Note_on_c, 1, 63, 127
1, 21297, Note_off_c, 1, 44, 0
1, 21309, Note_off_c, 1, 63, 0
1, 21312, Note_on_c, 1, 49, 127
1, 21408, Note_on_c, 1, 70, 127
1, 21489, Note_off_c, 1, 49, 0
1, 21497, Note_off_c, 1, 70, 0
1, 21504, Note_on_c, 1, 77, 127
1, 21593, Note_off_c, 1, 77, 0
1, 21600, Note_on_c, 1, 70, 127
1, 21689, Note_off_c, 1, 70, 0
1, 21696, Note_on_c, 1, 68, 127
1, 21696, Note_on_c, 1, 50, 127
1, 21785, Note_off_c, 1, 68, 0
1, 21792, Note_on_c, 1, 67, 127
1, 21837, Note_off_c, 1, 67, 0
1, 21840, Note_on_c, 1, 65, 127
1, 21873, Note_off_c, 1, 50, 0
1, 21885, Note_off_c, 1, 65, 0
1, 21888, Note_on_c, 1, 65, 127
1, 21888, Note_on_c, 1, 67, 127
1, 21888, Note_on_c, 1, 51, 127
1, 21977, Note_off_c, 1, 51, 0
1, 21984, Note_on_c, 1, 46, 127
1, 22065, Note_off_c, 1, 65, 0
1, 22073, Note_off_c, 1, 46, 0
1, 22080, Note_on_c, 1, 63, 127
1, 22080, Note_on_c, 1, 49, 127
1, 22153, Note_off_c, 1, 67, 0
1, 22169, Note_off_c, 1, 49, 0
1, 22176, Note_on_c, 1, 68, 127
1, 22257, Note_off_c, 1, 63, 0
1, 22265, Note_off_c, 1, 68, 0
1, 22272, Note_on_c, 1, 61, 127
1, 22272, Note_on_c, 1, 70, 127
1, 22272, Note_on_c, 1, 43, 127
1, 22361, Note_off_c, 1, 43, 0
1, 22368, Note_on_c, 1, 41, 127
1, 22413, Note_off_c, 1, 41, 0
1, 22416, Note_on_c, 1, 39, 127
1, 22449, Note_off_c, 1, 61, 0
1, 22461, Note_off_c, 1, 39, 0
1, 22464, Note_on_c, 1, 60, 127
1, 22464, Note_on_c, 1, 44, 127
1, 22509, Note_off_c, 1, 70, 0
1, 22512, Note_on_c, 1, 68, 127
1, 22553, Note_off_c, 1, 44, 0
1, 22557, Note_off_c, 1, 68, 0
1, 22560, Note_on_c, 1, 67, 127
1, 22560, Note_on_c, 1, 49, 127
1, 22605, Note_off_c, 1, 67, 0
1, 22641, Note_off_c, 1, 60, 0
1, 22649, Note_off_c, 1, 49, 0
1, 22656, Note_on_c, 1, 63, 127
1, 22656, Note_on_c, 1, 58, 127
1, 22656, Note_on_c, 1, 51, 127
1, 22752, Note_on_c, 1, 65, 127
1, 22797, Note_off_c, 1, 65, 0
1, 22833, Note_off_c, 1, 63, 0
1, 22833, Note_off_c, 1, 58, 0
1, 22833, Note_off_c, 1, 51, 0
1, 22848, Note_on_c, 1, 61, 127
1, 22848, Note_on_c, 1, 63, 127
1, 22848, Note_on_c, 1, 58, 127
1, 22848, Note_on_c, 1, 39, 127
1, 22854, Note_off_c, 1, 63, 0
1, 22854, Note_on_c, 1, 65, 127
1, 22856, Note_off_c, 1, 61, 0
1, 22860, Note_off_c, 1, 65, 0
1, 22896, Note_on_c, 1, 60, 127
1, 22941, Note_off_c, 1, 60, 0
1, 23025, Note_off_c, 1, 58, 0
1, 23025, Note_off_c, 1, 39, 0
1, 23040, Note_on_c, 1, 68, 127
1, 23040, Note_on_c, 1, 44, 127
1, 23129, Note_off_c, 1, 68, 0
1, 23136, Note_on_c, 1, 66, 127
1, 23181, Note_off_c, 1, 66, 0
1, 23184, Note_on_c, 1, 70, 127
1, 23217, Note_off_c, 1, 44, 0
1, 23229, Note_off_c, 1, 70, 0
1, 23232, Note_on_c, 1, 68, 127
1, 23232, Note_on_c, 1, 48, 127
1, 23328, Note_on_c, 1, 63, 127
1, 23409, Note_off_c, 1, 68, 0
1, 23409, Note_off_c, 1, 48, 0
1, 23417, Note_off_c, 1, 63, 0
1, 23424, Note_on_c, 1, 66, 127
1, 23424, Note_on_c, 1, 60, 127
1, 23424, Note_on_c, 1, 44, 127
1, 23432, Note_off_c, 1, 66, 0
1, 23432, Note_on_c, 1, 68, 127
1, 23440, Note_off_c, 1, 68, 0
1, 23472, Note_on_c, 1, 65, 127
1, 23513, Note_off_c, 1, 60, 0
1, 23517, Note_off_c, 1, 65, 0
1, 23520, Note_on_c, 1, 58, 127
1, 23565, Note_off_c, 1, 58, 0
1, 23568, Note_on_c, 1, 56, 127
1, 23601, Note_off_c, 1, 44, 0
1, 23613, Note_off_c, 1, 56, 0
1, 23616, Note_on_c, 1, 65, 127
1, 23616, Note_on_c, 1, 49, 127
1, 23712, Note_on_c, 1, 68, 127
1, 23793, Note_off_c, 1, 49, 0
1, 23801, Note_off_c, 1, 68, 0
1, 23808, Note_on_c, 1, 73, 127
1, 23808, Note_on_c, 1, 53, 127
1, 23897, Note_off_c, 1, 73, 0
1, 23985, Note_off_c, 1, 53, 0
1, 23993, Note_off_c, 1, 65, 0
1, 24000, Note_on_c, 1, 66, 127
1, 24000, Note_on_c, 1, 63, 127
1, 24000, Note_on_c, 1, 56, 127
1, 24089, Note_off_c, 1, 66, 0
1, 24089, Note_off_c, 1, 63, 0
1, 24096, Note_on_c, 1, 65, 127
1, 24096, Note_on_c, 1, 61, 127
1, 24141, Note_off_c, 1, 65, 0
1, 24141, Note_off_c, 1, 61, 0
1, 24144, Note_on_c, 1, 60, 127
1, 24177, Note_off_c, 1, 56, 0
1, 24189, Note_off_c, 1, 60, 0
1, 24192, Note_on_c, 1, 61, 127
1, 24192, Note_on_c, 1, 65, 127
1, 24192, Note_on_c, 1, 49, 127
1, 24281, Note_off_c, 1, 61, 0
1, 24288, Note_on_c, 1, 56, 127
1, 24369, Note_off_c, 1, 65, 0
1, 24369, Note_off_c, 1, 49, 0
1, 24377, Note_off_c, 1, 56, 0
1, 24384, Note_on_c, 1, 61, 127
1, 24384, Note_on_c, 1, 41, 127
1, 24473, Note_off_c, 1, 61, 0
1, 24480, Note_on_c, 1, 65, 127
1, 24480, Note_on_c, 1, 56, 127
1, 24561, Note_off_c, 1, 41, 0
1, 24569, Note_off_c, 1, 65, 0
1, 24569, Note_off_c, 1, 56, 0
1, 24576, Note_on_c, 1, 63, 127
1, 24576, Note_on_c, 1, 54, 127
1, 24576, Note_on_c, 1, 44, 127
1, 24665, Note_off_c, 1, 63, 0
1, 24665, Note_off_c, 1, 54, 0
1, 24672, Note_on_c, 1, 61, 127
1, 24672, Note_on_c, 1, 53, 127
1, 24717, Note_off_c, 1, 61, 0
1, 24717, Note_off_c, 1, 53, 0
1, 24720, Note_on_c, 1, 60, 127
1, 24720, Note_on_c, 1, 51, 127
1, 24753, Note_off_c, 1, 44, 0
1, 24765, Note_off_c, 1, 60, 0
1, 24765, Note_off_c, 1, 51, 0
1, 24768, Note_on_c, 1, 61, 127
1, 24768, Note_on_c, 1, 53, 127
1, 24768, Note_on_c, 1, 37, 127
1, 24857, Note_off_c, 1, 37, 0
1, 24864, Note_on_c, 1, 44, 127
1, 24945, Note_off_c, 1, 61, 0
1, 24945, Note_off_c, 1, 53, 0
1, 24953, Note_off_c, 1, 44, 0
1, 24960, Note_on_c, 1, 65, 127
1, 24960, Note_on_c, 1, 49, 127
1, 25049, Note_off_c, 1, 49, 0
1, 25056, Note_on_c, 1, 43, 127
1, 25137, Note_off_c, 1, 65, 0
1, 25145, Note_off_c, 1, 43, 0
1, 25152, Note_on_c, 1, 63, 127
1, 25152, Note_on_c, 1, 46, 127
1, 25160, Note_off_c, 1, 63, 0
1, 25160, Note_on_c, 1, 65, 127
1, 25168, Note_off_c, 1, 65, 0
1, 25197, Note_off_c, 1, 46, 0
1, 25200, Note_on_c, 1, 62, 127
1, 25200, Note_on_c, 1, 45, 127
1, 25245, Note_off_c, 1, 62, 0
1, 25245, Note_off_c, 1, 45, 0
1, 25248, Note_on_c, 1, 63, 127
1, 25248, Note_on_c, 1, 43, 127
1, 25293, Note_off_c, 1, 43, 0
1, 25296, Note_on_c, 1, 41, 127
1, 25337, Note_off_c, 1, 63, 0
1, 25341, Note_off_c, 1, 41, 0
1, 25344, Note_on_c, 1, 62, 127
1, 25344, Note_on_c, 1, 46, 127
1, 25389, Note_off_c, 1, 62, 0
1, 25392, Note_on_c, 1, 65, 127
1, 25437, Note_off_c, 1, 65, 0
1, 25440, Note_on_c, 1, 68, 127
1, 25485, Note_off_c, 1, 68, 0
1, 25488, Note_on_c, 1, 72, 127
1, 25521, Note_off_c, 1, 46, 0
1, 25533, Note_off_c, 1, 72, 0
1, 25536, Note_on_c, 1, 70, 127
1, 25536, Note_on_c, 1, 50, 127
1, 25632, Note_on_c, 1, 65, 127
1, 25713, Note_off_c, 1, 70, 0
1, 25713, Note_off_c, 1, 50, 0
1, 25721, Note_off_c, 1, 65, 0
1, 25728, Note_on_c, 1, 68, 127
1, 25728, Note_on_c, 1, 62, 127
1, 25728, Note_on_c, 1, 46, 127
1, 25736, Note_off_c, 1, 68, 0
1, 25736, Note_on_c, 1, 70, 127
1, 25744, Note_off_c, 1, 70, 0
1, 25776, Note_on_c, 1, 67, 127
1, 25817, Note_off_c, 1, 62, 0
1, 25821, Note_off_c, 1, 67, 0
1, 25824, Note_on_c, 1, 60, 127
1, 25869, Note_off_c, 1, 60, 0
1, 25872, Note_on_c, 1, 58, 127
1, 25905, Note_off_c, 1, 46, 0
1, 25917, Note_off_c, 1, 58, 0
1, 25920, Note_on_c, 1, 67, 127
1, 25920, Note_on_c, 1, 51, 127
1, 26016, Note_on_c, 1, 70, 127
1, 26097, Note_off_c, 1, 51, 0
1, 26105, Note_off_c, 1, 70, 0
1, 26112, Note_on_c, 1, 75, 127
1, 26112, Note_on_c, 1, 55, 127
1, 26201, Note_off_c, 1, 75, 0
1, 26289, Note_off_c, 1, 55, 0
1, 26297, Note_off_c, 1, 67, 0
1, 26304, Note_on_c, 1, 68, 127
1, 26304, Note_on_c, 1, 65, 127
1, 26304, Note_on_c, 1, 58, 127
1, 26393, Note_off_c, 1, 68, 0
1, 26393, Note_off_c, 1, 65, 0
1, 26400, Note_on_c, 1, 67, 127
1, 26400, Note_on_c, 1, 63, 127
1, 26445, Note_off_c, 1, 67, 0
1, 26445, Note_off_c, 1, 63, 0
1, 26448, Note_on_c, 1, 62, 127
1, 26481, Note_off_c, 1, 58, 0
1, 26493, Note_off_c, 1, 62, 0
1, 26496, Note_on_c, 1, 63, 127
1, 26496, Note_on_c, 1, 67, 127
1, 26496, Note_on_c, 1, 51, 127
1, 26585, Note_off_c, 1, 63, 0
1, 26592, Note_on_c, 1, 58, 127
1, 26673, Note_off_c, 1, 67, 0
1, 26673, Note_off_c, 1, 51, 0
1, 26681, Note_off_c, 1, 58, 0
1, 26688, Note_on_c, 1, 63, 127
1, 26688, Note_on_c, 1, 43, 127
1, 26777, Note_off_c, 1, 63, 0
1, 26784, Note_on_c, 1, 67, 127
1, 26784, Note_on_c, 1, 58, 127
1, 26865, Note_off_c, 1, 43, 0
1, 26873, Note_off_c, 1, 67, 0
1, 26873, Note_off_c, 1, 58, 0
1, 26880, Note_on_c, 1, 65, 127
1, 26880, Note_on_c, 1, 56, 127
1, 26880, Note_on_c, 1, 46, 127
1, 26969, Note_off_c, 1, 65, 0
1, 26969, Note_off_c, 1, 56, 0
1, 26976, Note_on_c, 1, 63, 127
1, 26976, Note_on_c, 1, 55, 127
1, 27021, Note_off_c, 1, 63, 0
1, 27021, Note_off_c, 1, 55, 0
1, 27024, Note_on_c, 1, 62, 127
1, 27024, Note_on_c, 1, 53, 127
1, 27057, Note_off_c, 1, 46, 0
1, 27069, Note_off_c, 1, 62, 0
1, 27069, Note_off_c, 1, 53, 0
1, 27072, Note_on_c, 1, 63, 127
1, 27072, Note_on_c, 1, 55, 127
1, 27072, Note_on_c, 1, 39, 127
1, 27161, Note_off_c, 1, 39, 0
1, 27168, Note_on_c, 1, 46, 127
1, 27249, Note_off_c, 1, 63, 0
1, 27249, Note_off_c, 1, 55, 0
1, 27257, Note_off_c, 1, 46, 0
1, 27264, Note_on_c, 1, 67, 127
1, 27264, Note_on_c, 1, 51, 127
1, 27353, Note_off_c, 1, 51, 0
1, 27360, Note_on_c, 1, 45, 127
1, 27441, Note_off_c, 1, 67, 0
1, 27449, Note_off_c, 1, 45, 0
1, 27456, Note_on_c, 1, 65, 127
1, 27456, Note_on_c, 1, 48, 127
1, 27464, Note_off_c, 1, 65, 0
1, 27464, Note_on_c, 1, 67, 127
1, 27472, Note_off_c, 1, 67, 0
1, 27501, Note_off_c, 1, 48, 0
1, 27504, Note_on_c, 1, 64, 127
1, 27504, Note_on_c, 1, 47, 127
1, 27549, Note_off_c, 1, 64, 0
1, 27549, Note_off_c, 1, 47, 0
1, 27552, Note_on_c, 1, 65, 127
1, 27552, Note_on_c, 1, 45, 127
1, 27597, Note_off_c, 1, 45, 0
1, 27600, Note_on_c, 1, 43, 127
1, 27641, Note_off_c, 1, 65, 0
1, 27645, Note_off_c, 1, 43, 0
1, 27648, Note_on_c, 1, 64, 127
1, 27648, Note_on_c, 1, 48, 127
1, 27693, Note_off_c, 1, 64, 0
1, 27696, Note_on_c, 1, 67, 127
1, 27741, Note_off_c, 1, 67, 0
1, 27744, Note_on_c, 1, 70, 127
1, 27789, Note_off_c, 1, 70, 0
1, 27792, Note_on_c, 1, 73, 127
1, 27825, Note_off_c, 1, 48, 0
1, 27837, Note_off_c, 1, 73, 0
1, 27840, Note_on_c, 1, 72, 127
1, 27840, Note_on_c, 1, 52, 127
1, 27936, Note_on_c, 1, 67, 127
1, 28017, Note_off_c, 1, 72, 0
1, 28017, Note_off_c, 1, 52, 0
1, 28025, Note_off_c, 1, 67, 0
1, 28032, Note_on_c, 1, 70, 127
1, 28032, Note_on_c, 1, 64, 127
1, 28032, Note_on_c, 1, 48, 127
1, 28040, Note_off_c, 1, 70, 0
1, 28040, Note_on_c, 1, 72, 127
1, 28048, Note_off_c, 1, 72, 0
1, 28080, Note_on_c, 1, 68, 127
1, 28121, Note_off_c, 1, 64, 0
1, 28125, Note_off_c, 1, 68, 0
1, 28128, Note_on_c, 1, 62, 127
1, 28173, Note_off_c, 1, 62, 0
1, 28176, Note_on_c, 1, 60, 127
1, 28209, Note_off_c, 1, 48, 0
1, 28221, Note_off_c, 1, 60, 0
1, 28224, Note_on_c, 1, 68, 127
1, 28224, Note_on_c, 1, 53, 127
1, 28320, Note_on_c, 1, 72, 127
1, 28401, Note_off_c, 1, 53, 0
1, 28409, Note_off_c, 1, 72, 0
1, 28416, Note_on_c, 1, 77, 127
1, 28416, Note_on_c, 1, 56, 127
1, 28505, Note_off_c, 1, 77, 0
1, 28593, Note_off_c, 1, 56, 0
1, 28601, Note_off_c, 1, 68, 0
1, 28608, Note_on_c, 1, 70, 127
1, 28608, Note_on_c, 1, 67, 127
1, 28608, Note_on_c, 1, 60, 127
1, 28697, Note_off_c, 1, 70, 0
1, 28697, Note_off_c, 1, 67, 0
1, 28704, Note_on_c, 1, 68, 127
1, 28704, Note_on_c, 1, 65, 127
1, 28749, Note_off_c, 1, 68, 0
1, 28749, Note_off_c, 1, 65, 0
1, 28752, Note_on_c, 1, 64, 127
1, 28785, Note_off_c, 1, 60, 0
1, 28797, Note_off_c, 1, 64, 0
1, 28800, Note_on_c, 1, 65, 127
1, 28800, Note_on_c, 1, 68, 127
1, 28800, Note_on_c, 1, 53, 127
1, 28889, Note_off_c, 1, 65, 0
1, 28896, Note_on_c, 1, 60, 127
1, 28977, Note_off_c, 1, 68, 0
1, 28977, Note_off_c, 1, 53, 0
1, 28985, Note_off_c, 1, 60, 0
1, 28992, Note_on_c, 1, 65, 127
1, 28992, Note_on_c, 1, 44, 127
1, 29081, Note_off_c, 1, 65, 0
1, 29088, Note_on_c, 1, 68, 127
1, 29088, Note_on_c, 1, 60, 127
1, 29169, Note_off_c, 1, 44, 0
1, 29177, Note_off_c, 1, 68, 0
1, 29177, Note_off_c, 1, 60, 0
1, 29184, Note_on_c, 1, 67, 127
1, 29184, Note_on_c, 1, 58, 127
1, 29184, Note_on_c, 1, 48, 127
1, 29273, Note_off_c, 1, 67, 0
1, 29273, Note_off_c, 1, 58, 0
1, 29280, Note_on_c, 1, 65, 127
1, 29280, Note_on_c, 1, 56, 127
1, 29325, Note_off_c, 1, 65, 0
1, 29325, Note_off_c, 1, 56, 0
1, 29328, Note_on_c, 1, 64, 127
1, 29328, Note_on_c, 1, 55, 127
1, 29361, Note_off_c, 1, 48, 0
1, 29373, Note_off_c, 1, 64, 0
1, 29373, Note_off_c, 1, 55, 0
1, 29376, Note_on_c, 1, 65, 127
1, 29376, Note_on_c, 1, 60, 127
1, 29376, Note_on_c, 1, 41, 127
1, 29465, Note_off_c, 1, 41, 0
1, 29472, Note_on_c, 1, 48, 127
1, 29553, Note_off_c, 1, 65, 0
1, 29553, Note_off_c, 1, 60, 0
1, 29561, Note_off_c, 1, 48, 0
1, 29568, Note_on_c, 1, 60, 127
1, 29568, Note_on_c, 1, 53, 127
1, 29657, Note_off_c, 1, 53, 0
1, 29664, Note_on_c, 1, 48, 127
1, 29745, Note_off_c, 1, 60, 0
1, 29753, Note_off_c, 1, 48, 0
1, 29760, Note_on_c, 1, 65, 127
1, 29760, Note_on_c, 1, 44, 127
1, 29849, Note_off_c, 1, 44, 0
1, 29856, Note_on_c, 1, 43, 127
1, 29901, Note_off_c, 1, 43, 0
1, 29904, Note_on_c, 1, 41, 127
1, 29949, Note_off_c, 1, 41, 0
1, 29952, Note_on_c, 1, 47, 127
1, 30048, Note_on_c, 1, 67, 127
1, 30129, Note_off_c, 1, 65, 0
1, 30129, Note_off_c, 1, 47, 0
1, 30137, Note_off_c, 1, 67, 0
1, 30144, Note_on_c, 1, 63, 127
1, 30144, Note_on_c, 1, 72, 127
1, 30144, Note_on_c, 1, 48, 127
1, 30233, Note_off_c, 1, 72, 0
1, 30240, Note_on_c, 1, 67, 127
1, 30321, Note_off_c, 1, 63, 0
1, 30321, Note_off_c, 1, 48, 0
1, 30329, Note_off_c, 1, 67, 0
1, 30336, Note_on_c, 1, 67, 127
1, 30336, Note_on_c, 1, 63, 127
1, 30336, Note_on_c, 1, 36, 127
1, 30425, Note_off_c, 1, 63, 0
1, 30432, Note_on_c, 1, 62, 127
1, 30477, Note_off_c, 1, 62, 0
1, 30480, Note_on_c, 1, 60, 127
1, 30513, Note_off_c, 1, 36, 0
1, 30525, Note_off_c, 1, 60, 0
1, 30528, Note_on_c, 1, 41, 127
1, 30624, Note_on_c, 1, 72, 127
1, 30705, Note_off_c, 1, 67, 0
1, 30705, Note_off_c, 1, 41, 0
1, 30713, Note_off_c, 1, 72, 0
1, 30720, Note_on_c, 1, 65, 127
1, 30720, Note_on_c, 1, 77, 127
1, 30720, Note_on_c, 1, 44, 127
1, 30809, Note_off_c, 1, 77, 0
1, 30816, Note_on_c, 1, 72, 127
1, 30897, Note_off_c, 1, 65, 0
1, 30897, Note_off_c, 1, 44, 0
1, 30905, Note_off_c, 1, 72, 0
1, 30912, Note_on_c, 1, 68, 127
1, 30912, Note_on_c, 1, 41, 127
1, 31008, Note_on_c, 1, 67, 127
1, 31053, Note_off_c, 1, 67, 0
1, 31056, Note_on_c, 1, 65, 127
1, 31089, Note_off_c, 1, 41, 0
1, 31101, Note_off_c, 1, 65, 0
1, 31104, Note_on_c, 1, 74, 127
1, 31104, Note_on_c, 1, 47, 127
1, 31149, Note_off_c, 1, 74, 0
1, 31152, Note_on_c, 1, 72, 127
1, 31193, Note_off_c, 1, 68, 0
1, 31197, Note_off_c, 1, 72, 0
1, 31200, Note_on_c, 1, 71, 127
1, 31245, Note_off_c, 1, 71, 0
1, 31281, Note_off_c, 1, 47, 0
1, 31296, Note_on_c, 1, 74, 127
1, 31344, Note_on_c, 1, 72, 127
1, 31385, Note_off_c, 1, 74, 0
1, 31389, Note_off_c, 1, 72, 0
1, 31392, Note_on_c, 1, 67, 127
1, 31392, Note_on_c, 1, 74, 127
1, 31437, Note_off_c, 1, 74, 0
1, 31440, Note_on_c, 1, 77, 127
1, 31481, Note_off_c, 1, 67, 0
1, 31485, Note_off_c, 1, 77, 0
1, 31488, Note_on_c, 1, 65, 127
1, 31488, Note_on_c, 1, 75, 127
1, 31488, Note_on_c, 1, 43, 127
1, 31533, Note_off_c, 1, 75, 0
1, 31536, Note_on_c, 1, 74, 127
1, 31577, Note_off_c, 1, 65, 0
1, 31581, Note_off_c, 1, 74, 0
1, 31584, Note_on_c, 1, 63, 127
1, 31584, Note_on_c, 1, 72, 127
1, 31629, Note_off_c, 1, 63, 0
1, 31629, Note_off_c, 1, 72, 0
1, 31632, Note_on_c, 1, 62, 127
1, 31632, Note_on_c, 1, 71, 127
1, 31665, Note_off_c, 1, 43, 0
1, 31677, Note_off_c, 1, 62, 0
1, 31677, Note_off_c, 1, 71, 0
1, 31680, Note_on_c, 1, 63, 127
1, 31680, Note_on_c, 1, 48, 127
1, 31725, Note_off_c, 1, 63, 0
1, 31728, Note_on_c, 1, 67, 127
1, 31728, Note_on_c, 1, 60, 127
1, 31773, Note_off_c, 1, 67, 0
1, 31773, Note_off_c, 1, 60, 0
1, 31776, Note_on_c, 1, 72, 127
1, 31821, Note_off_c, 1, 72, 0
1, 31824, Note_on_c, 1, 75, 127
1, 31857, Note_off_c, 1, 48, 0
1, 31869, Note_off_c, 1, 75, 0
1, 31872, Note_on_c, 1, 79, 127
1, 31872, Note_on_c, 1, 70, 127
1, 31917, Note_off_c, 1, 70, 0
1, 31920, Note_on_c, 1, 68, 127
1, 31961, Note_off_c, 1, 79, 0
1, 31965, Note_off_c, 1, 68, 0
1, 31968, Note_on_c, 1, 72, 127
1, 31968, Note_on_c, 1, 67, 127
1, 32013, Note_off_c, 1, 67, 0
1, 32016, Note_on_c, 1, 65, 127
1, 32057, Note_off_c, 1, 72, 0
1, 32061, Note_off_c, 1, 65, 0
1, 32064, Note_on_c, 1, 70, 127
1, 32064, Note_on_c, 1, 68, 127
1, 32064, Note_on_c, 1, 48, 127
1, 32109, Note_off_c, 1, 68, 0
1, 32112, Note_on_c, 1, 67, 127
1, 32153, Note_off_c, 1, 70, 0
1, 32157, Note_off_c, 1, 67, 0
1, 32160, Note_on_c, 1, 65, 127
1, 32205, Note_off_c, 1, 65, 0
1, 32208, Note_on_c, 1, 64, 127
1, 32241, Note_off_c, 1, 48, 0
1, 32253, Note_off_c, 1, 64, 0
1, 32256, Note_on_c, 1, 68, 127
1, 32256, Note_on_c, 1, 72, 127
1, 32256, Note_on_c, 1, 65, 127
1, 32256, Note_on_c, 1, 41, 127
1, 32301, Note_off_c, 1, 68, 0
1, 32345, Note_off_c, 1, 41, 0
1, 32352, Note_on_c, 1, 64, 127
1, 32352, Note_on_c, 1, 53, 127
1, 32397, Note_off_c, 1, 64, 0
1, 32433, Note_off_c, 1, 72, 0
1, 32441, Note_off_c, 1, 53, 0
1, 32445, Note_off_c, 1, 65, 0
1, 32448, Note_on_c, 1, 71, 127
1, 32448, Note_on_c, 1, 56, 127
1, 32537, Note_off_c, 1, 56, 0
1, 32544, Note_on_c, 1, 53, 127
1, 32633, Note_off_c, 1, 53, 0
1, 32640, Note_on_c, 1, 50, 127
1, 32713, Note_off_c, 1, 71, 0
1, 32729, Note_off_c, 1, 50, 0
1, 32736, Note_on_c, 1, 72, 127
1, 32736, Note_on_c, 1, 48, 127
1, 32781, Note_off_c, 1, 72, 0
1, 32781, Note_off_c, 1, 48, 0
1, 32784, Note_on_c, 1, 74, 127
1, 32784, Note_on_c, 1, 47, 127
1, 32829, Note_off_c, 1, 74, 0
1, 32829, Note_off_c, 1, 47, 0
1, 32832, Note_on_c, 1, 67, 127
1, 32832, Note_on_c, 1, 51, 127
1, 32877, Note_off_c, 1, 67, 0
1, 32880, Note_on_c, 1, 77, 127
1, 32921, Note_off_c, 1, 51, 0
1, 32925, Note_off_c, 1, 77, 0
1, 32928, Note_on_c, 1, 75, 127
1, 32928, Note_on_c, 1, 48, 127
1, 32973, Note_off_c, 1, 75, 0
1, 32976, Note_on_c, 1, 74, 127
1, 33017, Note_off_c, 1, 48, 0
1, 33021, Note_off_c, 1, 74, 0
1, 33024, Note_on_c, 1, 71, 127
1, 33024, Note_on_c, 1, 55, 127
1, 33032, Note_off_c, 1, 71, 0
1, 33032, Note_on_c, 1, 72, 127
1, 33040, Note_off_c, 1, 72, 0
1, 33201, Note_off_c, 1, 55, 0
1, 33216, Note_on_c, 1, 43, 127
1, 33393, Note_off_c, 1, 43, 0
1, 33408, Note_on_c, 1, 72, 127
1, 33408, Note_on_c, 1, 48, 127
1, 33504, Note_on_c, 1, 79, 127
1, 33585, Note_off_c, 1, 48, 0
1, 33593, Note_off_c, 1, 79, 0
1, 33600, Note_on_c, 1, 84, 127
1, 33600, Note_on_c, 1, 51, 127
1, 33689, Note_off_c, 1, 84, 0
1, 33762, Note_off_c, 1, 72, 0
1, 33777, Note_off_c, 1, 51, 0
1, 33792, Note_on_c, 1, 77, 127
1, 33792, Note_on_c, 1, 55, 127
1, 33881, Note_off_c, 1, 77, 0
1, 33888, Note_on_c, 1, 75, 127
1, 33933, Note_off_c, 1, 75, 0
1, 33936, Note_on_c, 1, 74, 127
1, 33969, Note_off_c, 1, 55, 0
1, 33981, Note_off_c, 1, 74, 0
1, 33984, Note_on_c, 1, 75, 127
1, 33984, Note_on_c, 1, 60, 127
1, 34080, Note_on_c, 1, 67, 127
1, 34161, Note_off_c, 1, 75, 0
1, 34161, Note_off_c, 1, 60, 0
1, 34169, Note_off_c, 1, 67, 0
1, 34176, Note_on_c, 1, 72, 127
1, 34176, Note_on_c, 1, 51, 127
1, 34265, Note_off_c, 1, 72, 0
1, 34272, Note_on_c, 1, 75, 127
1, 34272, Note_on_c, 1, 67, 127
1, 34353, Note_off_c, 1, 51, 0
1, 34361, Note_off_c, 1, 75, 0
1, 34361, Note_off_c, 1, 67, 0
1, 34368, Note_on_c, 1, 74, 127
1, 34368, Note_on_c, 1, 65, 127
1, 34368, Note_on_c, 1, 55, 127
1, 34457, Note_off_c, 1, 74, 0
1, 34457, Note_off_c, 1, 65, 0
1, 34464, Note_on_c, 1, 72, 127
1, 34464, Note_on_c, 1, 63, 127
1, 34509, Note_off_c, 1, 72, 0
1, 34509, Note_off_c, 1, 63, 0
1, 34512, Note_on_c, 1, 71, 127
1, 34512, Note_on_c, 1, 62, 127
1, 34545, Note_off_c, 1, 55, 0
1, 34557, Note_off_c, 1, 71, 0
1, 34557, Note_off_c, 1, 62, 0
1, 34560, Note_on_c, 1, 72, 127
1, 34560, Note_on_c, 1, 63, 127
1, 34560, Note_on_c, 1, 48, 127
1, 34649, Note_off_c, 1, 48, 0
1, 34656, Note_on_c, 1, 60, 127
1, 34737, Note_off_c, 1, 72, 0
1, 34737, Note_off_c, 1, 63, 0
1, 34745, Note_off_c, 1, 60, 0
1, 34752, Note_on_c, 1, 67, 127
1, 34752, Note_on_c, 1, 63, 127
1, 34841, Note_off_c, 1, 63, 0
1, 34848, Note_on_c, 1, 75, 127
1, 34848, Note_on_c, 1, 60, 127
1, 34893, Note_off_c, 1, 75, 0
1, 34896, Note_on_c, 1, 74, 127
1, 34929, Note_off_c, 1, 67, 0
1, 34937, Note_off_c, 1, 60, 0
1, 34941, Note_off_c, 1, 74, 0
1, 34944, Note_on_c, 1, 75, 127
1, 34944, Note_on_c, 1, 72, 127
1, 34944, Note_on_c, 1, 56, 127
1, 35033, Note_off_c, 1, 75, 0
1, 35033, Note_off_c, 1, 56, 0
1, 35040, Note_on_c, 1, 80, 127
1, 35040, Note_on_c, 1, 55, 127
1, 35085, Note_off_c, 1, 55, 0
1, 35088, Note_on_c, 1, 53, 127
1, 35129, Note_off_c, 1, 80, 0
1, 35133, Note_off_c, 1, 53, 0
1, 35136, Note_on_c, 1, 74, 127
1, 35136, Note_on_c, 1, 46, 127
1, 35225, Note_off_c, 1, 46, 0
1, 35232, Note_on_c, 1, 58, 127
1, 35313, Note_off_c, 1, 72, 0
1, 35313, Note_off_c, 1, 74, 0
1, 35321, Note_off_c, 1, 58, 0
1, 35328, Note_on_c, 1, 65, 127
1, 35328, Note_on_c, 1, 62, 127
1, 35417, Note_off_c, 1, 62, 0
1, 35424, Note_on_c, 1, 74, 127
1, 35424, Note_on_c, 1, 58, 127
1, 35469, Note_off_c, 1, 74, 0
1, 35472, Note_on_c, 1, 72, 127
1, 35505, Note_off_c, 1, 65, 0
1, 35513, Note_off_c, 1, 58, 0
1, 35517, Note_off_c, 1, 72, 0
1, 35520, Note_on_c, 1, 74, 127
1, 35520, Note_on_c, 1, 70, 127
1, 35520, Note_on_c, 1, 55, 127
1, 35609, Note_off_c, 1, 74, 0
1, 35609, Note_off_c, 1, 55, 0
1, 35616, Note_on_c, 1, 79, 127
1, 35616, Note_on_c, 1, 53, 127
1, 35661, Note_off_c, 1, 53, 0
1, 35664, Note_on_c, 1, 51, 127
1, 35705, Note_off_c, 1, 79, 0
1, 35709, Note_off_c, 1, 51, 0
1, 35712, Note_on_c, 1, 72, 127
1, 35712, Note_on_c, 1, 44, 127
1, 35801, Note_off_c, 1, 44, 0
1, 35808, Note_on_c, 1, 56, 127
1, 35889, Note_off_c, 1, 70, 0
1, 35889, Note_off_c, 1, 72, 0
1, 35897, Note_off_c, 1, 56, 0
1, 35904, Note_on_c, 1, 63, 127
1, 35904, Note_on_c, 1, 60, 127
1, 35993, Note_off_c, 1, 60, 0
1, 36000, Note_on_c, 1, 72, 127
1, 36000, Note_on_c, 1, 56, 127
1, 36045, Note_off_c, 1, 72, 0
1, 36048, Note_on_c, 1, 71, 127
1, 36081, Note_off_c, 1, 63, 0
1, 36089, Note_off_c, 1, 56, 0
1, 36093, Note_off_c, 1, 71, 0
1, 36096, Note_on_c, 1, 72, 127
1, 36096, Note_on_c, 1, 68, 127
1, 36096, Note_on_c, 1, 53, 127
1, 36185, Note_off_c, 1, 72, 0
1, 36185, Note_off_c, 1, 53, 0
1, 36192, Note_on_c, 1, 77, 127
1, 36192, Note_on_c, 1, 51, 127
1, 36237, Note_off_c, 1, 51, 0
1, 36240, Note_on_c, 1, 50, 127
1, 36281, Note_off_c, 1, 77, 0
1, 36285, Note_off_c, 1, 50, 0
1, 36288, Note_on_c, 1, 71, 127
1, 36377, Note_off_c, 1, 68, 0
1, 36377, Note_off_c, 1, 71, 0
1, 36384, Note_on_c, 1, 79, 127
1, 36384, Note_on_c, 1, 67, 127
1, 36384, Note_on_c, 1, 48, 127
1, 36429, Note_off_c, 1, 48, 0
1, 36432, Note_on_c, 1, 50, 127
1, 36473, Note_off_c, 1, 79, 0
1, 36473, Note_off_c, 1, 67, 0
1, 36477, Note_off_c, 1, 50, 0
1, 36480, Note_on_c, 1, 67, 127
1, 36480, Note_on_c, 1, 72, 127
1, 36480, Note_on_c, 1, 75, 127
1, 36480, Note_on_c, 1, 51, 127
1, 36569, Note_off_c, 1, 72, 0
1, 36569, Note_off_c, 1, 51, 0
1, 36576, Note_on_c, 1, 53, 127
1, 36665, Note_off_c, 1, 53, 0
1, 36672, Note_on_c, 1, 65, 127
1, 36672, Note_on_c, 1, 55, 127
1, 36717, Note_off_c, 1, 75, 0
1, 36720, Note_on_c, 1, 74, 127
1, 36761, Note_off_c, 1, 65, 0
1, 36761, Note_off_c, 1, 55, 0
1, 36765, Note_off_c, 1, 74, 0
1, 36768, Note_on_c, 1, 63, 127
1, 36768, Note_on_c, 1, 43, 127
1, 36813, Note_off_c, 1, 63, 0
1, 36816, Note_on_c, 1, 71, 127
1, 36816, Note_on_c, 1, 62, 127
1, 36857, Note_off_c, 1, 43, 0
1, 36861, Note_off_c, 1, 71, 0
1, 36861, Note_off_c, 1, 62, 0
1, 36864, Note_on_c, 1, 48, 127
1, 36953, Note_off_c, 1, 67, 0
1, 37041, Note_off_c, 1, 48, 0
1, 37056, Note_on_c, 1, 72, 127
1, 37056, Note_on_c, 1, 51, 127
1, 37145, Note_off_c, 1, 72, 0
1, 37152, Note_on_c, 1, 67, 127
1, 37233, Note_off_c, 1, 51, 0
1, 37241, Note_off_c, 1, 67, 0
1, 37248, Note_on_c, 1, 63, 127
1, 37248, Note_on_c, 1, 48, 127
1, 37337, Note_off_c, 1, 63, 0
1, 37344, Note_on_c, 1, 62, 127
1, 37389, Note_off_c, 1, 62, 0
1, 37392, Note_on_c, 1, 60, 127
1, 37425, Note_off_c, 1, 48, 0
1, 37437, Note_off_c, 1, 60, 0
1, 37440, Note_on_c, 1, 68, 127
1, 37440, Note_on_c, 1, 53, 127
1, 37617, Note_off_c, 1, 53, 0
1, 37632, Note_on_c, 1, 73, 127
1, 37721, Note_off_c, 1, 73, 0
1, 37824, Note_on_c, 1, 66, 127
1, 37824, Note_on_c, 1, 56, 127
1, 37913, Note_off_c, 1, 66, 0
1, 37920, Note_on_c, 1, 65, 127
1, 37965, Note_off_c, 1, 65, 0
1, 37968, Note_on_c, 1, 63, 127
1, 38001, Note_off_c, 1, 56, 0
1, 38013, Note_off_c, 1, 63, 0
1, 38016, Note_on_c, 1, 49, 127
1, 38193, Note_off_c, 1, 49, 0
1, 38208, Note_on_c, 1, 61, 127
1, 38208, Note_on_c, 1, 41, 127
1, 38297, Note_off_c, 1, 61, 0
1, 38385, Note_off_c, 1, 41, 0
1, 38400, Note_on_c, 1, 54, 127
1, 38400, Note_on_c, 1, 44, 127
1, 38489, Note_off_c, 1, 54, 0
1, 38544, Note_on_c, 1, 60, 127
1, 38544, Note_on_c, 1, 51, 127
1, 38577, Note_off_c, 1, 44, 0
1, 38589, Note_off_c, 1, 60, 0
1, 38589, Note_off_c, 1, 51, 0
1, 38592, Note_on_c, 1, 37, 127
1, 38681, Note_off_c, 1, 68, 0
1, 38769, Note_off_c, 1, 37, 0
1, 38784, Note_on_c, 1, 65, 127
1, 38873, Note_off_c, 1, 65, 0
1, 38880, Note_on_c, 1, 68, 127
1, 38969, Note_off_c, 1, 68, 0
1, 38976, Note_on_c, 1, 72, 127
1, 39072, Note_off_c, 1, 72, 0
1, 39072, Note_on_c, 1, 70, 127
1, 39161, Note_off_c, 1, 70, 0
1, 39168, Note_on_c, 1, 70, 127
1, 39168, Note_on_c, 1, 50, 127
1, 39345, Note_off_c, 1, 50, 0
1, 39360, Note_on_c, 1, 77, 127
1, 39360, Note_on_c, 1, 46, 127
1, 39449, Note_off_c, 1, 77, 0
1, 39537, Note_off_c, 1, 46, 0
1, 39552, Note_on_c, 1, 68, 127
1, 39641, Note_off_c, 1, 68, 0
1, 39648, Note_on_c, 1, 67, 127
1, 39693, Note_off_c, 1, 67, 0
1, 39696, Note_on_c, 1, 65, 127
1, 39741, Note_off_c, 1, 65, 0
1, 39744, Note_on_c, 1, 51, 127
1, 39840, Note_on_c, 1, 58, 127
1, 39921, Note_off_c, 1, 51, 0
1, 39929, Note_off_c, 1, 58, 0
1, 39936, Note_on_c, 1, 63, 127
1, 39936, Note_on_c, 1, 43, 127
1, 40025, Note_off_c, 1, 63, 0
1, 40113, Note_off_c, 1, 43, 0
1, 40128, Note_on_c, 1, 56, 127
1, 40217, Note_off_c, 1, 56, 0
1, 40224, Note_on_c, 1, 55, 127
1, 40269, Note_off_c, 1, 55, 0
1, 40272, Note_on_c, 1, 62, 127
1, 40272, Note_on_c, 1, 53, 127
1, 40317, Note_off_c, 1, 62, 0
1, 40317, Note_off_c, 1, 53, 0
1, 40320, Note_on_c, 1, 39, 127
1, 40409, Note_off_c, 1, 70, 0
1, 40497, Note_off_c, 1, 39, 0
1, 40512, Note_on_c, 1, 67, 127
1, 40601, Note_off_c, 1, 67, 0
1, 40608, Note_on_c, 1, 70, 127
1, 40697, Note_off_c, 1, 70, 0
1, 40704, Note_on_c, 1, 73, 127
1, 40800, Note_off_c, 1, 73, 0
1, 40800, Note_on_c, 1, 72, 127
1, 40889, Note_off_c, 1, 72, 0
1, 40896, Note_on_c, 1, 72, 127
1, 40896, Note_on_c, 1, 52, 127
1, 41073, Note_off_c, 1, 52, 0
1, 41088, Note_on_c, 1, 79, 127
1, 41088, Note_on_c, 1, 48, 127
1, 41177, Note_off_c, 1, 79, 0
1, 41265, Note_off_c, 1, 48, 0
1, 41280, Note_on_c, 1, 70, 127
1, 41369, Note_off_c, 1, 70, 0
1, 41376, Note_on_c, 1, 68, 127
1, 41421, Note_off_c, 1, 68, 0
1, 41424, Note_on_c, 1, 67, 127
1, 41469, Note_off_c, 1, 67, 0
1, 41472, Note_on_c, 1, 53, 127
1, 41568, Note_on_c, 1, 60, 127
1, 41649, Note_off_c, 1, 53, 0
1, 41657, Note_off_c, 1, 60, 0
1, 41664, Note_on_c, 1, 65, 127
1, 41664, Note_on_c, 1, 44, 127
1, 41753, Note_off_c, 1, 65, 0
1, 41841, Note_off_c, 1, 44, 0
1, 41856, Note_on_c, 1, 58, 127
1, 41945, Note_off_c, 1, 58, 0
1, 41952, Note_on_c, 1, 56, 127
1, 41997, Note_off_c, 1, 56, 0
1, 42000, Note_on_c, 1, 64, 127
1, 42000, Note_on_c, 1, 55, 127
1, 42045, Note_off_c, 1, 64, 0
1, 42045, Note_off_c, 1, 55, 0
1, 42048, Note_on_c, 1, 41, 127
1, 42137, Note_off_c, 1, 72, 0
1, 42225, Note_off_c, 1, 41, 0
1, 42240, Note_on_c, 1, 68, 127
1, 42240, Note_on_c, 1, 77, 127
1, 42329, Note_off_c, 1, 68, 0
1, 42329, Note_off_c, 1, 77, 0
1, 42336, Note_on_c, 1, 72, 127
1, 42425, Note_off_c, 1, 72, 0
1, 42432, Note_on_c, 1, 80, 127
1, 42432, Note_on_c, 1, 70, 127
1, 42432, Note_on_c, 1, 60, 127
1, 42432, Note_on_c, 1, 53, 127
1, 42477, Note_off_c, 1, 70, 0
1, 42480, Note_on_c, 1, 68, 127
1, 42525, Note_off_c, 1, 68, 0
1, 42528, Note_on_c, 1, 67, 127
1, 42573, Note_off_c, 1, 67, 0
1, 42576, Note_on_c, 1, 65, 127
1, 42609, Note_off_c, 1, 60, 0
1, 42609, Note_off_c, 1, 53, 0
1, 42621, Note_off_c, 1, 65, 0
1, 42624, Note_on_c, 1, 58, 127
1, 42624, Note_on_c, 1, 73, 127
1, 42624, Note_on_c, 1, 46, 127
1, 42713, Note_off_c, 1, 80, 0
1, 42713, Note_off_c, 1, 58, 0
1, 42720, Note_on_c, 1, 77, 127
1, 42801, Note_off_c, 1, 46, 0
1, 42809, Note_off_c, 1, 77, 0
1, 43008, Note_on_c, 1, 63, 127
1, 43053, Note_off_c, 1, 63, 0
1, 43104, Note_on_c, 1, 61, 127
1, 43149, Note_off_c, 1, 61, 0
1, 43200, Note_on_c, 1, 51, 127
1, 43289, Note_off_c, 1, 73, 0
1, 43377, Note_off_c, 1, 51, 0
1, 43392, Note_on_c, 1, 67, 127
1, 43392, Note_on_c, 1, 75, 127
1, 43481, Note_off_c, 1, 67, 0
1, 43481, Note_off_c, 1, 75, 0
1, 43488, Note_on_c, 1, 70, 127
1, 43577, Note_off_c, 1, 70, 0
1, 43584, Note_on_c, 1, 79, 127
1, 43584, Note_on_c, 1, 68, 127
1, 43584, Note_on_c, 1, 51, 127
1, 43629, Note_off_c, 1, 68, 0
1, 43632, Note_on_c, 1, 67, 127
1, 43677, Note_off_c, 1, 67, 0
1, 43680, Note_on_c, 1, 65, 127
1, 43725, Note_off_c, 1, 65, 0
1, 43728, Note_on_c, 1, 63, 127
1, 43761, Note_off_c, 1, 51, 0
1, 43773, Note_off_c, 1, 63, 0
1, 43776, Note_on_c, 1, 56, 127
1, 43776, Note_on_c, 1, 72, 127
1, 43776, Note_on_c, 1, 44, 127
1, 43865, Note_off_c, 1, 79, 0
1, 43865, Note_off_c, 1, 56, 0
1, 43872, Note_on_c, 1, 75, 127
1, 43953, Note_off_c, 1, 44, 0
1, 43961, Note_off_c, 1, 75, 0
1, 44160, Note_on_c, 1, 66, 127
1, 44160, Note_on_c, 1, 61, 127
1, 44205, Note_off_c, 1, 61, 0
1, 44208, Note_on_c, 1, 58, 127
1, 44249, Note_off_c, 1, 66, 0
1, 44253, Note_off_c, 1, 58, 0
1, 44256, Note_on_c, 1, 60, 127
1, 44301, Note_off_c, 1, 60, 0
1, 44352, Note_on_c, 1, 49, 127
1, 44441, Note_off_c, 1, 72, 0
1, 44441, Note_off_c, 1, 49, 0
1, 44544, Note_on_c, 1, 77, 127
1, 44633, Note_off_c, 1, 77, 0
1, 44736, Note_on_c, 1, 70, 127
1, 44736, Note_on_c, 1, 53, 127
1, 44781, Note_off_c, 1, 70, 0
1, 44825, Note_off_c, 1, 53, 0
1, 44928, Note_on_c, 1, 55, 127
1, 45408, Note_on_c, 1, 64, 127
1, 45453, Note_off_c, 1, 64, 0
1, 45504, Note_on_c, 1, 73, 127
1, 45593, Note_off_c, 1, 55, 0
1, 45888, Note_on_c, 1, 52, 127
1, 45977, Note_off_c, 1, 52, 0
1, 46080, Note_on_c, 1, 46, 127
1, 46257, Note_off_c, 1, 73, 0
1, 46257, Note_off_c, 1, 46, 0
1, 46272, Note_on_c, 1, 67, 127
1, 46272, Note_on_c, 1, 70, 127
1, 46272, Note_on_c, 1, 48, 127
1, 46361, Note_off_c, 1, 70, 0
1, 46449, Note_off_c, 1, 48, 0
1, 46457, Note_off_c, 1, 67, 0
1, 46464, Note_on_c, 1, 70, 127
1, 46464, Note_on_c, 1, 64, 127
1, 46464, Note_on_c, 1, 49, 127
1, 46553, Note_off_c, 1, 64, 0
1, 46560, Note_on_c, 1, 65, 127
1, 46605, Note_off_c, 1, 65, 0
1, 46608, Note_on_c, 1, 67, 127
1, 46641, Note_off_c, 1, 70, 0
1, 46641, Note_off_c, 1, 49, 0
1, 46656, Note_on_c, 1, 58, 127
1, 46656, Note_on_c, 1, 48, 127
1, 46701, Note_off_c, 1, 67, 0
1, 46745, Note_off_c, 1, 58, 0
1, 46745, Note_off_c, 1, 48, 0
1, 46752, Note_on_c, 1, 73, 127
1, 46797, Note_off_c, 1, 73, 0
1, 46800, Note_on_c, 1, 72, 127
1, 46845, Note_off_c, 1, 72, 0
1, 46848, Note_on_c, 1, 63, 127
1, 46848, Note_on_c, 1, 70, 127
1, 46848, Note_on_c, 1, 53, 127
1, 46893, Note_off_c, 1, 70, 0
1, 46896, Note_on_c, 1, 69, 127
1, 46937, Note_off_c, 1, 53, 0
1, 46941, Note_off_c, 1, 69, 0
1, 46944, Note_on_c, 1, 72, 127
1, 46944, Note_on_c, 1, 48, 127
1, 46989, Note_off_c, 1, 72, 0
1, 47033, Note_off_c, 1, 48, 0
1, 47040, Note_on_c, 1, 45, 127
1, 47129, Note_off_c, 1, 45, 0
1, 47136, Note_on_c, 1, 43, 127
1, 47181, Note_off_c, 1, 43, 0
1, 47184, Note_on_c, 1, 41, 127
1, 47229, Note_off_c, 1, 41, 0
1, 47232, Note_on_c, 1, 46, 127
1, 47365, Note_off_c, 1, 63, 0
1, 47376, Note_on_c, 1, 65, 127
1, 47376, Note_on_c, 1, 73, 127
1, 47399, Note_off_c, 1, 65, 0
1, 47399, Note_off_c, 1, 73, 0
1, 47400, Note_on_c, 1, 66, 127
1, 47400, Note_on_c, 1, 75, 127
1, 47423, Note_off_c, 1, 66, 0
1, 47423, Note_off_c, 1, 75, 0
1, 47424, Note_on_c, 1, 58, 127
1, 47513, Note_off_c, 1, 58, 0
1, 47616, Note_on_c, 1, 61, 127
1, 47616, Note_on_c, 1, 49, 127
1, 47705, Note_off_c, 1, 61, 0
1, 47705, Note_off_c, 1, 49, 0
1, 47760, Note_on_c, 1, 60, 127
1, 47805, Note_off_c, 1, 60, 0
1, 47985, Note_off_c, 1, 46, 0
1, 48000, Note_on_c, 1, 70, 127
1, 48000, Note_on_c, 1, 49, 127
1, 48096, Note_on_c, 1, 65, 127
1, 48177, Note_off_c, 1, 49, 0
1, 48185, Note_off_c, 1, 65, 0
1, 48192, Note_on_c, 1, 61, 127
1, 48192, Note_on_c, 1, 46, 127
1, 48281, Note_off_c, 1, 61, 0
1, 48288, Note_on_c, 1, 60, 127
1, 48333, Note_off_c, 1, 60, 0
1, 48336, Note_on_c, 1, 58, 127
1, 48369, Note_off_c, 1, 46, 0
1, 48381, Note_off_c, 1, 58, 0
1, 48384, Note_on_c, 1, 67, 127
1, 48384, Note_on_c, 1, 52, 127
1, 48480, Note_on_c, 1, 55, 127
1, 48517, Note_off_c, 1, 70, 0
1, 48528, Note_on_c, 1, 72, 127
1, 48551, Note_off_c, 1, 72, 0
1, 48552, Note_on_c, 1, 73, 127
1, 48561, Note_off_c, 1, 52, 0
1, 48569, Note_off_c, 1, 55, 0
1, 48575, Note_off_c, 1, 73, 0
1, 48768, Note_on_c, 1, 68, 127
1, 48768, Note_on_c, 1, 48, 127
1, 48857, Note_off_c, 1, 68, 0
1, 48864, Note_on_c, 1, 50, 127
1, 48909, Note_off_c, 1, 50, 0
1, 48957, Note_off_c, 1, 48, 0
1, 48960, Note_on_c, 1, 56, 127
1, 48960, Note_on_c, 1, 53, 127
1, 49005, Note_off_c, 1, 67, 0
1, 49049, Note_off_c, 1, 53, 0
1, 49056, Note_on_c, 1, 62, 127
1, 49056, Note_on_c, 1, 44, 127
1, 49101, Note_off_c, 1, 62, 0
1, 49104, Note_on_c, 1, 64, 127
1, 49137, Note_off_c, 1, 56, 0
1, 49145, Note_off_c, 1, 44, 0
1, 49149, Note_off_c, 1, 64, 0
1, 49152, Note_on_c, 1, 70, 127
1, 49152, Note_on_c, 1, 65, 127
1, 49152, Note_on_c, 1, 49, 127
1, 49160, Note_off_c, 1, 70, 0
1, 49160, Note_on_c, 1, 72, 127
1, 49168, Note_off_c, 1, 72, 0
1, 49197, Note_off_c, 1, 65, 0
1, 49200, Note_on_c, 1, 67, 127
1, 49241, Note_off_c, 1, 49, 0
1, 49245, Note_off_c, 1, 67, 0
1, 49248, Note_on_c, 1, 68, 127
1, 49248, Note_on_c, 1, 46, 127
1, 49293, Note_off_c, 1, 68, 0
1, 49337, Note_off_c, 1, 46, 0
1, 49344, Note_on_c, 1, 43, 127
1, 49392, Note_on_c, 1, 64, 127
1, 49433, Note_off_c, 1, 43, 0
1, 49437, Note_off_c, 1, 64, 0
1, 49440, Note_on_c, 1, 41, 127
1, 49485, Note_off_c, 1, 41, 0
1, 49488, Note_on_c, 1, 40, 127
1, 49533, Note_off_c, 1, 40, 0
1, 49536, Note_on_c, 1, 72, 127
1, 49536, Note_on_c, 1, 60, 127
1, 49536, Note_on_c, 1, 44, 127
1, 49625, Note_off_c, 1, 72, 0
1, 49625, Note_off_c, 1, 60, 0
1, 49625, Note_off_c, 1, 44, 0
1, 49632, Note_on_c, 1, 65, 127
1, 49632, Note_on_c, 1, 46, 127
1, 49721, Note_off_c, 1, 65, 0
1, 49721, Note_off_c, 1, 46, 0
1, 49728, Note_on_c, 1, 64, 127
1, 49728, Note_on_c, 1, 48, 127
1, 49817, Note_off_c, 1, 64, 0
1, 49824, Note_on_c, 1, 65, 127
1, 49905, Note_off_c, 1, 48, 0
1, 49913, Note_off_c, 1, 65, 0
1, 49920, Note_on_c, 1, 70, 127
1, 49920, Note_on_c, 1, 36, 127
1, 50009, Note_off_c, 1, 70, 0
1, 50016, Note_on_c, 1, 68, 127
1, 50097, Note_off_c, 1, 36, 0
1, 50105, Note_off_c, 1, 68, 0
1, 50112, Note_on_c, 1, 65, 127
1, 50112, Note_on_c, 1, 41, 127
1, 50208, Note_on_c, 1, 72, 127
1, 50289, Note_off_c, 1, 41, 0
1, 50297, Note_off_c, 1, 72, 0
1, 50304, Note_on_c, 1, 77, 127
1, 50304, Note_on_c, 1, 44, 127
1, 50393, Note_off_c, 1, 77, 0
1, 50466, Note_off_c, 1, 65, 0
1, 50481, Note_off_c, 1, 44, 0
1, 50496, Note_on_c, 1, 70, 127
1, 50496, Note_on_c, 1, 48, 127
1, 50585, Note_off_c, 1, 70, 0
1, 50592, Note_on_c, 1, 68, 127
1, 50637, Note_off_c, 1, 68, 0
1, 50640, Note_on_c, 1, 67, 127
1, 50673, Note_off_c, 1, 48, 0
1, 50685, Note_off_c, 1, 67, 0
1, 50688, Note_on_c, 1, 68, 127
1, 50688, Note_on_c, 1, 53, 127
1, 50784, Note_on_c, 1, 60, 127
1, 50865, Note_off_c, 1, 68, 0
1, 50865, Note_off_c, 1, 53, 0
1, 50873, Note_off_c, 1, 60, 0
1, 50880, Note_on_c, 1, 65, 127
1, 50880, Note_on_c, 1, 44, 127
1, 50969, Note_off_c, 1, 65, 0
1, 50976, Note_on_c, 1, 68, 127
1, 50976, Note_on_c, 1, 60, 127
1, 51057, Note_off_c, 1, 44, 0
1, 51065, Note_off_c, 1, 68, 0
1, 51065, Note_off_c, 1, 60, 0
1, 51072, Note_on_c, 1, 67, 127
1, 51072, Note_on_c, 1, 58, 127
1, 51072, Note_on_c, 1, 48, 127
1, 51161, Note_off_c, 1, 67, 0
1, 51161, Note_off_c, 1, 58, 0
1, 51168, Note_on_c, 1, 65, 127
1, 51168, Note_on_c, 1, 56, 127
1, 51213, Note_off_c, 1, 65, 0
1, 51213, Note_off_c, 1, 56, 0
1, 51216, Note_on_c, 1, 64, 127
1, 51216, Note_on_c, 1, 55, 127
1, 51249, Note_off_c, 1, 48, 0
1, 51261, Note_off_c, 1, 64, 0
1, 51261, Note_off_c, 1, 55, 0
1, 51264, Note_on_c, 1, 65, 127
1, 51264, Note_on_c, 1, 56, 127
1, 51264, Note_on_c, 1, 41, 127
1, 51353, Note_off_c, 1, 41, 0
1, 51360, Note_on_c, 1, 53, 127
1, 51441, Note_off_c, 1, 65, 0
1, 51441, Note_off_c, 1, 56, 0
1, 51449, Note_off_c, 1, 53, 0
1, 51456, Note_on_c, 1, 68, 127
1, 51456, Note_on_c, 1, 72, 127
1, 51456, Note_on_c, 1, 56, 127
1, 51545, Note_off_c, 1, 56, 0
1, 51552, Note_on_c, 1, 53, 127
1, 51600, Note_on_c, 1, 67, 127
1, 51633, Note_off_c, 1, 68, 0
1, 51633, Note_off_c, 1, 72, 0
1, 51641, Note_off_c, 1, 53, 0
1, 51645, Note_off_c, 1, 67, 0
1, 51648, Note_on_c, 1, 58, 127
1, 51648, Note_on_c, 1, 68, 127
1, 51648, Note_on_c, 1, 77, 127
1, 51648, Note_on_c, 1, 49, 127
1, 51737, Note_off_c, 1, 68, 0
1, 51737, Note_off_c, 1, 49, 0
1, 51744, Note_on_c, 1, 73, 127
1, 51744, Note_on_c, 1, 48, 127
1, 51789, Note_off_c, 1, 48, 0
1, 51792, Note_on_c, 1, 46, 127
1, 51833, Note_off_c, 1, 73, 0
1, 51837, Note_off_c, 1, 46, 0
1, 51840, Note_on_c, 1, 67, 127
1, 51840, Note_on_c, 1, 39, 127
1, 51929, Note_off_c, 1, 39, 0
1, 51936, Note_on_c, 1, 51, 127
1, 52017, Note_off_c, 1, 58, 0
1, 52017, Note_off_c, 1, 77, 0
1, 52017, Note_off_c, 1, 67, 0
1, 52025, Note_off_c, 1, 51, 0
1, 52032, Note_on_c, 1, 67, 127
1, 52032, Note_on_c, 1, 70, 127
1, 52032, Note_on_c, 1, 55, 127
1, 52121, Note_off_c, 1, 55, 0
1, 52128, Note_on_c, 1, 51, 127
1, 52176, Note_on_c, 1, 65, 127
1, 52209, Note_off_c, 1, 67, 0
1, 52209, Note_off_c, 1, 70, 0
1, 52217, Note_off_c, 1, 51, 0
1, 52221, Note_off_c, 1, 65, 0
1, 52224, Note_on_c, 1, 56, 127
1, 52224, Note_on_c, 1, 67, 127
1, 52224, Note_on_c, 1, 75, 127
1, 52224, Note_on_c, 1, 48, 127
1, 52313, Note_off_c, 1, 67, 0
1, 52313, Note_off_c, 1, 48, 0
1, 52320, Note_on_c, 1, 72, 127
1, 52320, Note_on_c, 1, 46, 127
1, 52365, Note_off_c, 1, 46, 0
1, 52368, Note_on_c, 1, 44, 127
1, 52409, Note_off_c, 1, 72, 0
1, 52413, Note_off_c, 1, 44, 0
1, 52416, Note_on_c, 1, 65, 127
1, 52416, Note_on_c, 1, 37, 127
1, 52505, Note_off_c, 1, 37, 0
1, 52512, Note_on_c, 1, 49, 127
1, 52593, Note_off_c, 1, 56, 0
1, 52593, Note_off_c, 1, 75, 0
1, 52593, Note_off_c, 1, 65, 0
1, 52601, Note_off_c, 1, 49, 0
1, 52608, Note_on_c, 1, 65, 127
1, 52608, Note_on_c, 1, 68, 127
1, 52608, Note_on_c, 1, 53, 127
1, 52697, Note_off_c, 1, 53, 0
1, 52704, Note_on_c, 1, 49, 127
1, 52752, Note_on_c, 1, 64, 127
1, 52785, Note_off_c, 1, 65, 0
1, 52785, Note_off_c, 1, 68, 0
1, 52793, Note_off_c, 1, 49, 0
1, 52797, Note_off_c, 1, 64, 0
1, 52800, Note_on_c, 1, 55, 127
1, 52800, Note_on_c, 1, 65, 127
1, 52800, Note_on_c, 1, 73, 127
1, 52800, Note_on_c, 1, 46, 127
1, 52889, Note_off_c, 1, 65, 0
1, 52889, Note_off_c, 1, 46, 0
1, 52896, Note_on_c, 1, 70, 127
1, 52896, Note_on_c, 1, 44, 127
1, 52941, Note_off_c, 1, 44, 0
1, 52944, Note_on_c, 1, 43, 127
1, 52985, Note_off_c, 1, 70, 0
1, 52989, Note_off_c, 1, 43, 0
1, 52992, Note_on_c, 1, 64, 127
1, 53081, Note_off_c, 1, 55, 0
1, 53081, Note_off_c, 1, 73, 0
1, 53088, Note_on_c, 1, 58, 127
1, 53088, Note_on_c, 1, 72, 127
1, 53169, Note_off_c, 1, 64, 0
1, 53177, Note_off_c, 1, 58, 0
1, 53177, Note_off_c, 1, 72, 0
1, 53184, Note_on_c, 1, 61, 127
1, 53184, Note_on_c, 1, 77, 127
1, 53184, Note_on_c, 1, 44, 127
1, 53273, Note_off_c, 1, 77, 0
1, 53273, Note_off_c, 1, 44, 0
1, 53280, Note_off_c, 1, 61, 0
1, 53280, Note_on_c, 1, 60, 127
1, 53280, Note_on_c, 1, 72, 127
1, 53280, Note_on_c, 1, 41, 127
1, 53369, Note_off_c, 1, 60, 0
1, 53369, Note_off_c, 1, 72, 0
1, 53369, Note_off_c, 1, 41, 0
1, 53376, Note_on_c, 1, 65, 127
1, 53376, Note_on_c, 1, 70, 127
1, 53376, Note_on_c, 1, 48, 127
1, 53465, Note_off_c, 1, 70, 0
1, 53465, Note_off_c, 1, 48, 0
1, 53472, Note_off_c, 1, 65, 0
1, 53472, Note_on_c, 1, 64, 127
1, 53472, Note_on_c, 1, 68, 127
1, 53472, Note_on_c, 1, 36, 127
1, 53517, Note_off_c, 1, 68, 0
1, 53520, Note_on_c, 1, 67, 127
1, 53561, Note_off_c, 1, 64, 0
1, 53561, Note_off_c, 1, 36, 0
1, 53565, Note_off_c, 1, 67, 0
1, 53568, Note_on_c, 1, 68, 127
1, 53568, Note_on_c, 1, 41, 127
1, 53616, Note_on_c, 1, 67, 127
1, 53657, Note_off_c, 1, 41, 0
1, 53661, Note_off_c, 1, 67, 0
1, 53664, Note_on_c, 1, 65, 127
1, 53664, Note_on_c, 1, 48, 127
1, 53709, Note_off_c, 1, 65, 0
1, 53753, Note_off_c, 1, 48, 0
1, 53760, Note_on_c, 1, 53, 127
1, 53808, Note_on_c, 1, 70, 127
1, 53849, Note_off_c, 1, 53, 0
1, 53853, Note_off_c, 1, 70, 0
1, 53856, Note_on_c, 1, 72, 127
1, 53901, Note_off_c, 1, 72, 0
1, 53904, Note_on_c, 1, 73, 127
1, 53949, Note_off_c, 1, 73, 0
1, 53952, Note_on_c, 1, 75, 127
1, 53952, Note_on_c, 1, 44, 127
1, 53997, Note_off_c, 1, 75, 0
1, 54000, Note_on_c, 1, 77, 127
1, 54023, Note_off_c, 1, 77, 0
1, 54024, Note_on_c, 1, 78, 127
1, 54041, Note_off_c, 1, 44, 0
1, 54047, Note_off_c, 1, 78, 0
1, 54048, Note_on_c, 1, 43, 127
1, 54093, Note_off_c, 1, 43, 0
1, 54144, Note_on_c, 1, 46, 127
1, 54233, Note_off_c, 1, 68, 0
1, 54321, Note_off_c, 1, 46, 0
1, 54528, Note_on_c, 1, 61, 127
1, 54617, Note_off_c, 1, 61, 0
1, 54624, Note_on_c, 1, 76, 127
1, 54624, Note_on_c, 1, 60, 127
1, 54669, Note_off_c, 1, 60, 0
1, 54672, Note_on_c, 1, 58, 127
1, 54713, Note_off_c, 1, 76, 0
1, 54717, Note_off_c, 1, 58, 0
1, 54720, Note_on_c, 1, 82, 127
1, 54720, Note_on_c, 1, 64, 127
1, 54897, Note_off_c, 1, 64, 0
1, 55248, Note_on_c, 1, 62, 127
1, 55293, Note_off_c, 1, 62, 0
1, 55385, Note_off_c, 1, 82, 0
1, 55392, Note_on_c, 1, 79, 127
1, 55392, Note_on_c, 1, 55, 127
1, 55481, Note_off_c, 1, 79, 0
1, 55481, Note_off_c, 1, 55, 0
1, 55488, Note_on_c, 1, 76, 127
1, 55488, Note_on_c, 1, 60, 127
1, 55488, Note_on_c, 1, 67, 127
1, 55577, Note_off_c, 1, 76, 0
1, 55577, Note_off_c, 1, 60, 0
1, 55584, Note_on_c, 1, 72, 127
1, 55584, Note_on_c, 1, 55, 127
1, 55665, Note_off_c, 1, 67, 0
1, 55673, Note_off_c, 1, 72, 0
1, 55673, Note_off_c, 1, 55, 0
1, 55680, Note_on_c, 1, 68, 127
1, 55680, Note_on_c, 1, 52, 127
1, 55680, Note_on_c, 1, 72, 127
1, 55680, Note_on_c, 1, 48, 127
1, 55769, Note_off_c, 1, 68, 0
1, 55769, Note_off_c, 1, 52, 0
1, 55776, Note_on_c, 1, 70, 127
1, 55776, Note_on_c, 1, 50, 127
1, 55821, Note_off_c, 1, 70, 0
1, 55821, Note_off_c, 1, 50, 0
1, 55824, Note_on_c, 1, 67, 127
1, 55869, Note_off_c, 1, 48, 0
1, 55869, Note_off_c, 1, 67, 0
1, 55872, Note_on_c, 1, 56, 127
1, 55872, Note_on_c, 1, 53, 127
1, 55961, Note_off_c, 1, 72, 0
1, 55968, Note_on_c, 1, 77, 127
1, 56049, Note_off_c, 1, 56, 0
1, 56049, Note_off_c, 1, 53, 0
1, 56057, Note_off_c, 1, 77, 0
1, 56064, Note_on_c, 1, 70, 127
1, 56064, Note_on_c, 1, 84, 127
1, 56064, Note_on_c, 1, 55, 127
1, 56153, Note_off_c, 1, 84, 0
1, 56160, Note_on_c, 1, 77, 127
1, 56241, Note_off_c, 1, 70, 0
1, 56241, Note_off_c, 1, 55, 0
1, 56249, Note_off_c, 1, 77, 0
1, 56256, Note_on_c, 1, 72, 127
1, 56256, Note_on_c, 1, 75, 127
1, 56256, Note_on_c, 1, 57, 127
1, 56345, Note_off_c, 1, 75, 0
1, 56352, Note_on_c, 1, 73, 127
1, 56397, Note_off_c, 1, 73, 0
1, 56433, Note_off_c, 1, 57, 0
1, 56448, Note_on_c, 1, 58, 127
1, 56544, Note_on_c, 1, 65, 127
1, 56625, Note_off_c, 1, 72, 0
1, 56625, Note_off_c, 1, 58, 0
1, 56633, Note_off_c, 1, 65, 0
1, 56640, Note_on_c, 1, 65, 127
1, 56640, Note_on_c, 1, 70, 127
1, 56729, Note_off_c, 1, 70, 0
1, 56736, Note_on_c, 1, 73, 127
1, 56825, Note_off_c, 1, 65, 0
1, 56825, Note_off_c, 1, 73, 0
1, 56832, Note_on_c, 1, 70, 127
1, 56832, Note_on_c, 1, 77, 127
1, 56832, Note_on_c, 1, 61, 127
1, 56921, Note_off_c, 1, 77, 0
1, 56921, Note_off_c, 1, 61, 0
1, 56928, Note_on_c, 1, 60, 127
1, 56928, Note_on_c, 1, 82, 127
1, 56973, Note_off_c, 1, 60, 0
1, 56976, Note_on_c, 1, 58, 127
1, 57017, Note_off_c, 1, 82, 0
1, 57021, Note_off_c, 1, 58, 0
1, 57024, Note_on_c, 1, 73, 127
1, 57024, Note_on_c, 1, 79, 127
1, 57024, Note_on_c, 1, 64, 127
1, 57113, Note_off_c, 1, 70, 0
1, 57113, Note_off_c, 1, 73, 0
1, 57113, Note_off_c, 1, 64, 0
1, 57120, Note_on_c, 1, 72, 127
1, 57120, Note_on_c, 1, 76, 127
1, 57209, Note_off_c, 1, 72, 0
1, 57209, Note_off_c, 1, 76, 0
1, 57216, Note_on_c, 1, 68, 127
1, 57216, Note_on_c, 1, 65, 127
1, 57289, Note_off_c, 1, 79, 0
1, 57305, Note_off_c, 1, 65, 0
1, 57408, Note_on_c, 1, 56, 127
1, 57453, Note_off_c, 1, 68, 0
1, 57497, Note_off_c, 1, 56, 0
1, 57504, Note_on_c, 1, 64, 127
1, 57504, Note_on_c, 1, 83, 127
1, 57504, Note_on_c, 1, 74, 127
1, 57504, Note_on_c, 1, 55, 127
1, 57549, Note_off_c, 1, 64, 0
1, 57549, Note_off_c, 1, 55, 0
1, 57552, Note_on_c, 1, 65, 127
1, 57552, Note_on_c, 1, 53, 127
1, 57593, Note_off_c, 1, 83, 0
1, 57593, Note_off_c, 1, 74, 0
1, 57597, Note_off_c, 1, 65, 0
1, 57597, Note_off_c, 1, 53, 0
1, 57600, Note_on_c, 1, 67, 127
1, 57600, Note_on_c, 1, 84, 127
1, 57600, Note_on_c, 1, 76, 127
1, 57600, Note_on_c, 1, 60, 127
1, 57689, Note_off_c, 1, 84, 0
1, 57696, Note_on_c, 1, 72, 127
1, 57777, Note_off_c, 1, 76, 0
1, 57777, Note_off_c, 1, 60, 0
1, 57785, Note_off_c, 1, 72, 0
1, 57792, Note_on_c, 1, 79, 127
1, 57792, Note_on_c, 1, 52, 127
1, 57954, Note_off_c, 1, 67, 0
1, 57969, Note_off_c, 1, 52, 0
1, 57984, Note_on_c, 1, 70, 127
1, 57984, Note_on_c, 1, 48, 127
1, 58073, Note_off_c, 1, 70, 0
1, 58080, Note_on_c, 1, 68, 127
1, 58125, Note_off_c, 1, 68, 0
1, 58161, Note_off_c, 1, 48, 0
1, 58176, Note_on_c, 1, 53, 127
1, 58265, Note_off_c, 1, 79, 0
1, 58353, Note_off_c, 1, 53, 0
1, 58368, Note_on_c, 1, 72, 127
1, 58368, Note_on_c, 1, 77, 127
1, 58368, Note_on_c, 1, 44, 127
1, 58457, Note_off_c, 1, 77, 0
1, 58545, Note_off_c, 1, 44, 0
1, 58553, Note_off_c, 1, 72, 0
1, 58560, Note_on_c, 1, 74, 127
1, 58560, Note_on_c, 1, 68, 127
1, 58560, Note_on_c, 1, 41, 127
1, 58649, Note_off_c, 1, 74, 0
1, 58656, Note_on_c, 1, 75, 127
1, 58656, Note_on_c, 1, 67, 127
1, 58701, Note_off_c, 1, 67, 0
1, 58704, Note_on_c, 1, 65, 127
1, 58737, Note_off_c, 1, 41, 0
1, 58745, Note_off_c, 1, 75, 0
1, 58749, Note_off_c, 1, 65, 0
1, 58752, Note_on_c, 1, 46, 127
1, 58841, Note_off_c, 1, 68, 0
1, 58944, Note_on_c, 1, 79, 127
1, 58944, Note_on_c, 1, 70, 127
1, 58944, Note_on_c, 1, 73, 127
1, 59033, Note_off_c, 1, 70, 0
1, 59121, Note_off_c, 1, 79, 0
1, 59136, Note_on_c, 1, 80, 127
1, 59136, Note_on_c, 1, 61, 127
1, 59225, Note_off_c, 1, 80, 0
1, 59225, Note_off_c, 1, 61, 0
1, 59232, Note_on_c, 1, 82, 127
1, 59232, Note_on_c, 1, 60, 127
1, 59277, Note_off_c, 1, 60, 0
1, 59280, Note_on_c, 1, 58, 127
1, 59298, Note_off_c, 1, 73, 0
1, 59321, Note_off_c, 1, 82, 0
1, 59325, Note_off_c, 1, 58, 0
1, 59328, Note_on_c, 1, 72, 127
1, 59328, Note_on_c, 1, 55, 127
1, 59505, Note_off_c, 1, 46, 0
1, 59505, Note_off_c, 1, 55, 0
1, 59520, Note_on_c, 1, 53, 127
1, 59520, Note_on_c, 1, 44, 127
1, 59520, Note_on_c, 1, 56, 127
1, 59609, Note_off_c, 1, 72, 0
1, 59616, Note_on_c, 1, 77, 127
1, 59697, Note_off_c, 1, 53, 0
1, 59697, Note_off_c, 1, 44, 0
1, 59705, Note_off_c, 1, 77, 0
1, 59712, Note_off_c, 1, 56, 0
1, 59712, Note_on_c, 1, 66, 127
1, 59757, Note_off_c, 1, 66, 0
1, 59808, Note_on_c, 1, 64, 127
1, 59853, Note_off_c, 1, 64, 0
1, 59904, Note_on_c, 1, 43, 127
1, 60258, Note_off_c, 1, 43, 0
1, 60288, Note_on_c, 1, 67, 127
1, 60288, Note_on_c, 1, 64, 127
1, 60288, Note_on_c, 1, 60, 127
1, 60288, Note_on_c, 1, 36, 127
1, 60294, Note_off_c, 1, 64, 0
1, 60294, Note_on_c, 1, 65, 127
1, 60296, Note_off_c, 1, 67, 0
1, 60296, Note_on_c, 1, 68, 127
1, 60300, Note_off_c, 1, 65, 0
1, 60304, Note_off_c, 1, 68, 0
1, 60465, Note_off_c, 1, 60, 0
1, 60465, Note_off_c, 1, 36, 0
1, 60480, Note_on_c, 1, 65, 127
1, 60480, Note_on_c, 1, 60, 127
1, 60480, Note_on_c, 1, 37, 127
1, 60480, Note_on_c, 1, 56, 127
1, 60576, Note_on_c, 1, 77, 127
1, 60657, Note_off_c, 1, 65, 0
1, 60657, Note_off_c, 1, 60, 0
1, 60657, Note_off_c, 1, 37, 0
1, 60665, Note_off_c, 1, 77, 0
1, 60672, Note_off_c, 1, 56, 0
1, 60672, Note_on_c, 1, 78, 127
1, 60768, Note_off_c, 1, 78, 0
1, 60768, Note_on_c, 1, 76, 127
1, 60857, Note_off_c, 1, 76, 0
1, 60864, Note_on_c, 1, 77, 127
1, 60960, Note_off_c, 1, 77, 0
1, 60960, Note_on_c, 1, 73, 127
1, 61049, Note_off_c, 1, 73, 0
1, 61056, Note_on_c, 1, 71, 127
1, 61104, Note_on_c, 1, 77, 127
1, 61149, Note_off_c, 1, 77, 0
1, 61152, Note_off_c, 1, 71, 0
1, 61152, Note_on_c, 1, 72, 127
1, 61152, Note_on_c, 1, 80, 127
1, 61197, Note_off_c, 1, 80, 0
1, 61200, Note_on_c, 1, 79, 127
1, 61241, Note_off_c, 1, 72, 0
1, 61245, Note_off_c, 1, 79, 0
1, 61248, Note_on_c, 1, 65, 127
1, 61248, Note_on_c, 1, 77, 127
1, 61248, Note_on_c, 1, 38, 127
1, 61293, Note_off_c, 1, 77, 0
1, 61296, Note_on_c, 1, 75, 127
1, 61341, Note_off_c, 1, 75, 0
1, 61344, Note_on_c, 1, 74, 127
1, 61389, Note_off_c, 1, 74, 0
1, 61392, Note_on_c, 1, 72, 127
1, 61437, Note_off_c, 1, 72, 0
1, 61440, Note_on_c, 1, 71, 127
1, 61488, Note_on_c, 1, 68, 127
1, 61513, Note_off_c, 1, 65, 0
1, 61533, Note_off_c, 1, 68, 0
1, 61536, Note_on_c, 1, 64, 127
1, 61536, Note_on_c, 1, 67, 127
1, 61581, Note_off_c, 1, 64, 0
1, 61581, Note_off_c, 1, 67, 0
1, 61602, Note_off_c, 1, 38, 0
1, 61617, Note_off_c, 1, 71, 0
1, 61632, Note_on_c, 1, 67, 127
1, 61632, Note_on_c, 1, 64, 127
1, 61632, Note_on_c, 1, 36, 127
1, 62162, Note_off_c, 1, 67, 0
1, 62162, Note_off_c, 1, 64, 0
1, 62162, Note_off_c, 1, 36, 0
1, 62162, End_track
0, 0, End_of_file