0, 0, Header, 1, 1, 480
1, 0, Start_track
1, 0, Title_t, "Test"
1, 0, Tempo, 500000
1, 0, Instrument_name_t, "Church Organ"
1, 0, Note_on_c, 1, 74, 127
1, 0, Note_on_c, 1, 59, 127
1, 23, Note_off_c, 1, 74, 0
1, 24, Note_on_c, 1, 73, 127
1, 47, Note_off_c, 1, 73, 0
1, 48, Note_on_c, 1, 78, 127
1, 48, Note_on_c, 1, 71, 127
1, 71, Note_off_c, 1, 71, 0
1, 89, Note_off_c, 1, 59, 0
1, 93, Note_off_c, 1, 78, 0
1, 96, Note_on_c, 1, 78, 127
1, 96, Note_on_c, 1, 74, 127
1, 119, Note_off_c, 1, 74, 0
1, 143, Note_off_c, 1, 78, 0
1, 144, Note_on_c, 1, 78, 127
1, 144, Note_on_c, 1, 83, 127
1, 144, Note_on_c, 1, 47, 127
1, 167, Note_off_c, 1, 83, 0
1, 189, Note_off_c, 1, 47, 0
1, 191, Note_off_c, 1, 78, 0
1, 192, Note_on_c, 1, 78, 127
1, 192, Note_on_c, 1, 74, 127
1, 192, Note_on_c, 1, 59, 127
1, 215, Note_off_c, 1, 74, 0
1, 237, Note_off_c, 1, 59, 0
1, 239, Note_off_c, 1, 78, 0
1, 240, Note_on_c, 1, 78, 127
1, 240, Note_on_c, 1, 73, 127
1, 240, Note_on_c, 1, 58, 127
1, 263, Note_off_c, 1, 73, 0
1, 285, Note_off_c, 1, 58, 0
1, 287, Note_off_c, 1, 78, 0
1, 288, Note_on_c, 1, 78, 127
1, 288, Note_on_c, 1, 74, 127
1, 288, Note_on_c, 1, 59, 127
1, 311, Note_off_c, 1, 74, 0
1, 312, Note_on_c, 1, 73, 127
1, 333, Note_off_c, 1, 78, 0
1, 335, Note_off_c, 1, 73, 0
1, 336, Note_on_c, 1, 83, 127
1, 336, Note_on_c, 1, 71, 127
1, 359, Note_off_c, 1, 83, 0
1, 359, Note_off_c, 1, 71, 0
1, 360, Note_on_c, 1, 82, 127
1, 377, Note_off_c, 1, 59, 0
1, 383, Note_off_c, 1, 82, 0
1, 384, Note_on_c, 1, 83, 127
1, 384, Note_on_c, 1, 74, 127
1, 407, Note_off_c, 1, 74, 0
1, 408, Note_on_c, 1, 78, 127
1, 429, Note_off_c, 1, 83, 0
1, 431, Note_off_c, 1, 78, 0
1, 432, Note_on_c, 1, 78, 127
1, 432, Note_on_c, 1, 83, 127
1, 432, Note_on_c, 1, 47, 127
1, 455, Note_off_c, 1, 83, 0
1, 455, Note_off_c, 1, 47, 0
1, 456, Note_on_c, 1, 49, 127
1, 479, Note_off_c, 1, 78, 0
1, 479, Note_off_c, 1, 49, 0
1, 480, Note_on_c, 1, 78, 127
1, 480, Note_on_c, 1, 76, 127
1, 480, Note_on_c, 1, 50, 127
1, 503, Note_off_c, 1, 76, 0
1, 504, Note_on_c, 1, 74, 127
1, 525, Note_off_c, 1, 78, 0
1, 525, Note_off_c, 1, 50, 0
1, 527, Note_off_c, 1, 74, 0
1, 528, Note_on_c, 1, 78, 127
1, 528, Note_on_c, 1, 73, 127
1, 528, Note_on_c, 1, 52, 127
1, 551, Note_off_c, 1, 73, 0
1, 552, Note_on_c, 1, 71, 127
1, 573, Note_off_c, 1, 78, 0
1, 573, Note_off_c, 1, 52, 0
1, 575, Note_off_c, 1, 71, 0
1, 576, Note_on_c, 1, 78, 127
1, 576, Note_on_c, 1, 70, 127
1, 576, Note_on_c, 1, 54, 127
1, 599, Note_off_c, 1, 70, 0
1, 600, Note_on_c, 1, 68, 127
1, 621, Note_off_c, 1, 78, 0
1, 623, Note_off_c, 1, 68, 0
1, 624, Note_on_c, 1, 85, 127
1, 624, Note_on_c, 1, 66, 127
1, 647, Note_off_c, 1, 66, 0
1, 648, Note_off_c, 1, 85, 0
1, 648, Note_on_c, 1, 83, 127
1, 665, Note_off_c, 1, 54, 0
1, 671, Note_off_c, 1, 83, 0
1, 672, Note_on_c, 1, 85, 127
1, 672, Note_on_c, 1, 70, 127
1, 695, Note_off_c, 1, 70, 0
1, 696, Note_on_c, 1, 71, 127
1, 717, Note_off_c, 1, 85, 0
1, 719, Note_off_c, 1, 71, 0
1, 720, Note_on_c, 1, 78, 127
1, 720, Note_on_c, 1, 73, 127
1, 720, Note_on_c, 1, 58, 127
1, 743, Note_off_c, 1, 73, 0
1, 743, Note_off_c, 1, 58, 0
1, 744, Note_on_c, 1, 74, 127
1, 744, Note_on_c, 1, 56, 127
1, 765, Note_off_c, 1, 78, 0
1, 767, Note_off_c, 1, 74, 0
1, 767, Note_off_c, 1, 56, 0
1, 768, Note_on_c, 1, 78, 127
1, 768, Note_on_c, 1, 76, 127
1, 768, Note_on_c, 1, 58, 127
1, 791, Note_off_c, 1, 76, 0
1, 792, Note_on_c, 1, 74, 127
1, 813, Note_off_c, 1, 78, 0
1, 813, Note_off_c, 1, 58, 0
1, 815, Note_off_c, 1, 74, 0
1, 816, Note_on_c, 1, 78, 127
1, 816, Note_on_c, 1, 76, 127
1, 816, Note_on_c, 1, 54, 127
1, 839, Note_off_c, 1, 76, 0
1, 840, Note_on_c, 1, 73, 127
1, 861, Note_off_c, 1, 78, 0
1, 861, Note_off_c, 1, 54, 0
1, 863, Note_off_c, 1, 73, 0
1, 864, Note_on_c, 1, 78, 127
1, 864, Note_on_c, 1, 74, 127
1, 864, Note_on_c, 1, 47, 127
1, 909, Note_off_c, 1, 78, 0
1, 909, Note_off_c, 1, 74, 0
1, 909, Note_off_c, 1, 47, 0
1, 912, Note_on_c, 1, 86, 127
1, 912, Note_on_c, 1, 71, 127
1, 912, Note_on_c, 1, 54, 127
1, 924, Note_off_c, 1, 86, 0
1, 924, Note_on_c, 1, 85, 127
1, 936, Note_off_c, 1, 85, 0
1, 936, Note_on_c, 1, 83, 127
1, 957, Note_off_c, 1, 71, 0
1, 957, Note_off_c, 1, 54, 0
1, 959, Note_off_c, 1, 83, 0
1, 960, Note_on_c, 1, 85, 127
1, 960, Note_on_c, 1, 45, 127
1, 1005, Note_off_c, 1, 85, 0
1, 1005, Note_off_c, 1, 45, 0
1, 1008, Note_on_c, 1, 85, 127
1, 1008, Note_on_c, 1, 54, 127
1, 1020, Note_off_c, 1, 85, 0
1, 1020, Note_on_c, 1, 83, 127
1, 1032, Note_off_c, 1, 83, 0
1, 1032, Note_on_c, 1, 81, 127
1, 1053, Note_off_c, 1, 54, 0
1, 1055, Note_off_c, 1, 81, 0
1, 1056, Note_on_c, 1, 83, 127
1, 1056, Note_on_c, 1, 44, 127
1, 1101, Note_off_c, 1, 83, 0
1, 1101, Note_off_c, 1, 44, 0
1, 1104, Note_on_c, 1, 83, 127
1, 1104, Note_on_c, 1, 53, 127
1, 1116, Note_off_c, 1, 83, 0
1, 1116, Note_on_c, 1, 81, 127
1, 1128, Note_off_c, 1, 81, 0
1, 1128, Note_on_c, 1, 80, 127
1, 1149, Note_off_c, 1, 53, 0
1, 1151, Note_off_c, 1, 80, 0
1, 1152, Note_on_c, 1, 81, 127
1, 1152, Note_on_c, 1, 42, 127
1, 1197, Note_off_c, 1, 81, 0
1, 1200, Note_on_c, 1, 66, 127
1, 1200, Note_on_c, 1, 73, 127
1, 1223, Note_off_c, 1, 66, 0
1, 1224, Note_on_c, 1, 68, 127
1, 1241, Note_off_c, 1, 42, 0
1, 1245, Note_off_c, 1, 73, 0
1, 1247, Note_off_c, 1, 68, 0
1, 1248, Note_on_c, 1, 69, 127
1, 1248, Note_on_c, 1, 73, 127
1, 1271, Note_off_c, 1, 69, 0
1, 1295, Note_off_c, 1, 73, 0
1, 1296, Note_on_c, 1, 78, 127
1, 1296, Note_on_c, 1, 73, 127
1, 1296, Note_on_c, 1, 42, 127
1, 1319, Note_off_c, 1, 78, 0
1, 1341, Note_off_c, 1, 42, 0
1, 1343, Note_off_c, 1, 73, 0
1, 1344, Note_on_c, 1, 69, 127
1, 1344, Note_on_c, 1, 73, 127
1, 1344, Note_on_c, 1, 54, 127
1, 1367, Note_off_c, 1, 69, 0
1, 1389, Note_off_c, 1, 54, 0
1, 1391, Note_off_c, 1, 73, 0
1, 1392, Note_on_c, 1, 68, 127
1, 1392, Note_on_c, 1, 73, 127
1, 1392, Note_on_c, 1, 53, 127
1, 1415, Note_off_c, 1, 68, 0
1, 1437, Note_off_c, 1, 53, 0
1, 1439, Note_off_c, 1, 73, 0
1, 1440, Note_on_c, 1, 69, 127
1, 1440, Note_on_c, 1, 73, 127
1, 1440, Note_on_c, 1, 54, 127
1, 1463, Note_off_c, 1, 69, 0
1, 1464, Note_on_c, 1, 68, 127
1, 1485, Note_off_c, 1, 73, 0
1, 1487, Note_off_c, 1, 68, 0
1, 1488, Note_on_c, 1, 66, 127
1, 1488, Note_on_c, 1, 78, 127
1, 1511, Note_off_c, 1, 66, 0
1, 1511, Note_off_c, 1, 78, 0
1, 1512, Note_on_c, 1, 77, 127
1, 1529, Note_off_c, 1, 54, 0
1, 1535, Note_off_c, 1, 77, 0
1, 1536, Note_on_c, 1, 69, 127
1, 1536, Note_on_c, 1, 78, 127
1, 1559, Note_off_c, 1, 69, 0
1, 1560, Note_on_c, 1, 73, 127
1, 1581, Note_off_c, 1, 78, 0
1, 1583, Note_off_c, 1, 73, 0
1, 1584, Note_on_c, 1, 78, 127
1, 1584, Note_on_c, 1, 73, 127
1, 1584, Note_on_c, 1, 42, 127
1, 1607, Note_off_c, 1, 78, 0
1, 1607, Note_off_c, 1, 42, 0
1, 1608, Note_on_c, 1, 44, 127
1, 1631, Note_off_c, 1, 73, 0
1, 1631, Note_off_c, 1, 44, 0
1, 1632, Note_on_c, 1, 71, 127
1, 1632, Note_on_c, 1, 73, 127
1, 1632, Note_on_c, 1, 45, 127
1, 1655, Note_off_c, 1, 71, 0
1, 1656, Note_on_c, 1, 69, 127
1, 1677, Note_off_c, 1, 73, 0
1, 1677, Note_off_c, 1, 45, 0
1, 1679, Note_off_c, 1, 69, 0
1, 1680, Note_on_c, 1, 68, 127
1, 1680, Note_on_c, 1, 73, 127
1, 1680, Note_on_c, 1, 47, 127
1, 1703, Note_off_c, 1, 68, 0
1, 1704, Note_on_c, 1, 66, 127
1, 1725, Note_off_c, 1, 73, 0
1, 1725, Note_off_c, 1, 47, 0
1, 1727, Note_off_c, 1, 66, 0
1, 1728, Note_on_c, 1, 65, 127
1, 1728, Note_on_c, 1, 73, 127
1, 1728, Note_on_c, 1, 49, 127
1, 1751, Note_off_c, 1, 65, 0
1, 1752, Note_on_c, 1, 63, 127
1, 1773, Note_off_c, 1, 73, 0
1, 1775, Note_off_c, 1, 63, 0
1, 1776, Note_on_c, 1, 61, 127
1, 1776, Note_on_c, 1, 80, 127
1, 1799, Note_off_c, 1, 61, 0
1, 1799, Note_off_c, 1, 80, 0
1, 1800, Note_on_c, 1, 78, 127
1, 1817, Note_off_c, 1, 49, 0
1, 1823, Note_off_c, 1, 78, 0
1, 1824, Note_on_c, 1, 65, 127
1, 1824, Note_on_c, 1, 80, 127
1, 1847, Note_off_c, 1, 65, 0
1, 1848, Note_on_c, 1, 66, 127
1, 1869, Note_off_c, 1, 80, 0
1, 1871, Note_off_c, 1, 66, 0
1, 1872, Note_on_c, 1, 68, 127
1, 1872, Note_on_c, 1, 73, 127
1, 1872, Note_on_c, 1, 53, 127
1, 1895, Note_off_c, 1, 68, 0
1, 1895, Note_off_c, 1, 53, 0
1, 1896, Note_on_c, 1, 69, 127
1, 1896, Note_on_c, 1, 51, 127
1, 1917, Note_off_c, 1, 73, 0
1, 1919, Note_off_c, 1, 69, 0
1, 1919, Note_off_c, 1, 51, 0
1, 1920, Note_on_c, 1, 71, 127
1, 1920, Note_on_c, 1, 73, 127
1, 1920, Note_on_c, 1, 53, 127
1, 1943, Note_off_c, 1, 71, 0
1, 1944, Note_on_c, 1, 69, 127
1, 1965, Note_off_c, 1, 73, 0
1, 1965, Note_off_c, 1, 53, 0
1, 1967, Note_off_c, 1, 69, 0
1, 1968, Note_on_c, 1, 71, 127
1, 1968, Note_on_c, 1, 73, 127
1, 1968, Note_on_c, 1, 49, 127
1, 1991, Note_off_c, 1, 71, 0
1, 1992, Note_on_c, 1, 68, 127
1, 2013, Note_off_c, 1, 73, 0
1, 2013, Note_off_c, 1, 49, 0
1, 2015, Note_off_c, 1, 68, 0
1, 2016, Note_on_c, 1, 69, 127
1, 2016, Note_on_c, 1, 73, 127
1, 2016, Note_on_c, 1, 54, 127
1, 2061, Note_off_c, 1, 69, 0
1, 2061, Note_off_c, 1, 73, 0
1, 2061, Note_off_c, 1, 54, 0
1, 2064, Note_on_c, 1, 66, 127
1, 2064, Note_on_c, 1, 81, 127
1, 2064, Note_on_c, 1, 61, 127
1, 2076, Note_off_c, 1, 81, 0
1, 2076, Note_on_c, 1, 80, 127
1, 2088, Note_off_c, 1, 80, 0
1, 2088, Note_on_c, 1, 78, 127
1, 2109, Note_off_c, 1, 66, 0
1, 2109, Note_off_c, 1, 61, 0
1, 2111, Note_off_c, 1, 78, 0
1, 2112, Note_on_c, 1, 80, 127
1, 2112, Note_on_c, 1, 52, 127
1, 2157, Note_off_c, 1, 80, 0
1, 2157, Note_off_c, 1, 52, 0
1, 2160, Note_on_c, 1, 80, 127
1, 2160, Note_on_c, 1, 61, 127
1, 2172, Note_off_c, 1, 80, 0
1, 2172, Note_on_c, 1, 78, 127
1, 2184, Note_off_c, 1, 78, 0
1, 2184, Note_on_c, 1, 77, 127
1, 2205, Note_off_c, 1, 61, 0
1, 2207, Note_off_c, 1, 77, 0
1, 2208, Note_on_c, 1, 71, 127
1, 2208, Note_on_c, 1, 78, 127
1, 2208, Note_on_c, 1, 50, 127
1, 2253, Note_off_c, 1, 78, 0
1, 2253, Note_off_c, 1, 50, 0
1, 2256, Note_on_c, 1, 59, 127
1, 2268, Note_on_c, 1, 77, 127
1, 2280, Note_off_c, 1, 77, 0
1, 2280, Note_on_c, 1, 75, 127
1, 2301, Note_off_c, 1, 59, 0
1, 2303, Note_off_c, 1, 75, 0
1, 2304, Note_on_c, 1, 49, 127
1, 2349, Note_off_c, 1, 71, 0
1, 2349, Note_off_c, 1, 49, 0
1, 2352, Note_on_c, 1, 73, 127
1, 2352, Note_on_c, 1, 57, 127
1, 2376, Note_off_c, 1, 73, 0
1, 2376, Note_on_c, 1, 71, 127
1, 2376, Note_on_c, 1, 75, 127
1, 2397, Note_off_c, 1, 57, 0
1, 2399, Note_off_c, 1, 71, 0
1, 2399, Note_off_c, 1, 75, 0
1, 2400, Note_on_c, 1, 74, 127
1, 2400, Note_on_c, 1, 77, 127
1, 2400, Note_on_c, 1, 56, 127
1, 2423, Note_off_c, 1, 74, 0
1, 2423, Note_off_c, 1, 77, 0
1, 2424, Note_on_c, 1, 73, 127
1, 2424, Note_on_c, 1, 78, 127
1, 2445, Note_off_c, 1, 56, 0
1, 2447, Note_off_c, 1, 73, 0
1, 2447, Note_off_c, 1, 78, 0
1, 2448, Note_on_c, 1, 71, 127
1, 2448, Note_on_c, 1, 80, 127
1, 2448, Note_on_c, 1, 54, 127
1, 2471, Note_off_c, 1, 71, 0
1, 2471, Note_off_c, 1, 80, 0
1, 2472, Note_on_c, 1, 69, 127
1, 2472, Note_on_c, 1, 81, 127
1, 2493, Note_off_c, 1, 54, 0
1, 2495, Note_off_c, 1, 69, 0
1, 2495, Note_off_c, 1, 81, 0
1, 2496, Note_on_c, 1, 68, 127
1, 2496, Note_on_c, 1, 83, 127
1, 2496, Note_on_c, 1, 61, 127
1, 2519, Note_off_c, 1, 83, 0
1, 2520, Note_on_c, 1, 81, 127
1, 2541, Note_off_c, 1, 61, 0
1, 2543, Note_off_c, 1, 81, 0
1, 2544, Note_on_c, 1, 49, 127
1, 2563, Note_off_c, 1, 68, 0
1, 2568, Note_on_c, 1, 66, 127
1, 2568, Note_on_c, 1, 80, 127
1, 2589, Note_off_c, 1, 49, 0
1, 2591, Note_off_c, 1, 66, 0
1, 2591, Note_off_c, 1, 80, 0
1, 2592, Note_on_c, 1, 66, 127
1, 2592, Note_on_c, 1, 81, 127
1, 2592, Note_on_c, 1, 42, 127
1, 2615, Note_off_c, 1, 66, 0
1, 2616, Note_on_c, 1, 65, 127
1, 2637, Note_off_c, 1, 81, 0
1, 2637, Note_off_c, 1, 42, 0
1, 2639, Note_off_c, 1, 65, 0
1, 2640, Note_on_c, 1, 66, 127
1, 2640, Note_on_c, 1, 78, 127
1, 2640, Note_on_c, 1, 54, 127
1, 2663, Note_off_c, 1, 66, 0
1, 2664, Note_on_c, 1, 68, 127
1, 2685, Note_off_c, 1, 78, 0
1, 2685, Note_off_c, 1, 54, 0
1, 2687, Note_off_c, 1, 68, 0
1, 2688, Note_on_c, 1, 69, 127
1, 2688, Note_on_c, 1, 73, 127
1, 2688, Note_on_c, 1, 54, 127
1, 2711, Note_off_c, 1, 69, 0
1, 2712, Note_on_c, 1, 71, 127
1, 2733, Note_off_c, 1, 73, 0
1, 2733, Note_off_c, 1, 54, 0
1, 2735, Note_off_c, 1, 71, 0
1, 2736, Note_on_c, 1, 73, 127
1, 2736, Note_on_c, 1, 78, 127
1, 2736, Note_on_c, 1, 54, 127
1, 2759, Note_off_c, 1, 73, 0
1, 2760, Note_on_c, 1, 74, 127
1, 2781, Note_off_c, 1, 78, 0
1, 2781, Note_off_c, 1, 54, 0
1, 2783, Note_off_c, 1, 74, 0
1, 2784, Note_on_c, 1, 76, 127
1, 2784, Note_on_c, 1, 82, 127
1, 2784, Note_on_c, 1, 54, 127
1, 2807, Note_off_c, 1, 76, 0
1, 2808, Note_on_c, 1, 74, 127
1, 2829, Note_off_c, 1, 54, 0
1, 2831, Note_off_c, 1, 74, 0
1, 2851, Note_off_c, 1, 82, 0
1, 2856, Note_on_c, 1, 73, 127
1, 2856, Note_on_c, 1, 80, 127
1, 2868, Note_off_c, 1, 80, 0
1, 2879, Note_off_c, 1, 73, 0
1, 2880, Note_on_c, 1, 83, 127
1, 2925, Note_off_c, 1, 83, 0
1, 2928, Note_on_c, 1, 71, 127
1, 2928, Note_on_c, 1, 78, 127
1, 2928, Note_on_c, 1, 59, 127
1, 2951, Note_off_c, 1, 71, 0
1, 2951, Note_off_c, 1, 59, 0
1, 2952, Note_on_c, 1, 73, 127
1, 2952, Note_on_c, 1, 58, 127
1, 2973, Note_off_c, 1, 78, 0
1, 2975, Note_off_c, 1, 73, 0
1, 2975, Note_off_c, 1, 58, 0
1, 2976, Note_on_c, 1, 74, 127
1, 2976, Note_on_c, 1, 59, 127
1, 3000, Note_on_c, 1, 78, 127
1, 3021, Note_off_c, 1, 74, 0
1, 3021, Note_off_c, 1, 59, 0
1, 3023, Note_off_c, 1, 78, 0
1, 3024, Note_on_c, 1, 83, 127
1, 3024, Note_on_c, 1, 78, 127
1, 3024, Note_on_c, 1, 54, 127
1, 3047, Note_off_c, 1, 83, 0
1, 3069, Note_off_c, 1, 54, 0
1, 3071, Note_off_c, 1, 78, 0
1, 3072, Note_on_c, 1, 76, 127
1, 3072, Note_on_c, 1, 83, 127
1, 3072, Note_on_c, 1, 54, 127
1, 3095, Note_off_c, 1, 76, 0
1, 3096, Note_on_c, 1, 74, 127
1, 3117, Note_off_c, 1, 54, 0
1, 3119, Note_off_c, 1, 74, 0
1, 3120, Note_on_c, 1, 73, 127
1, 3139, Note_off_c, 1, 83, 0
1, 3143, Note_off_c, 1, 73, 0
1, 3144, Note_on_c, 1, 71, 127
1, 3144, Note_on_c, 1, 82, 127
1, 3156, Note_off_c, 1, 82, 0
1, 3167, Note_off_c, 1, 71, 0
1, 3168, Note_on_c, 1, 70, 127
1, 3168, Note_on_c, 1, 85, 127
1, 3191, Note_off_c, 1, 70, 0
1, 3192, Note_on_c, 1, 68, 127
1, 3215, Note_off_c, 1, 68, 0
1, 3216, Note_on_c, 1, 66, 127
1, 3216, Note_on_c, 1, 61, 127
1, 3239, Note_off_c, 1, 66, 0
1, 3239, Note_off_c, 1, 61, 0
1, 3240, Note_on_c, 1, 59, 127
1, 3257, Note_off_c, 1, 85, 0
1, 3263, Note_off_c, 1, 59, 0
1, 3264, Note_on_c, 1, 70, 127
1, 3264, Note_on_c, 1, 61, 127
1, 3287, Note_off_c, 1, 70, 0
1, 3288, Note_on_c, 1, 71, 127
1, 3309, Note_off_c, 1, 61, 0
1, 3311, Note_off_c, 1, 71, 0
1, 3312, Note_on_c, 1, 73, 127
1, 3312, Note_on_c, 1, 70, 127
1, 3312, Note_on_c, 1, 54, 127
1, 3335, Note_off_c, 1, 73, 0
1, 3335, Note_off_c, 1, 70, 0
1, 3336, Note_on_c, 1, 74, 127
1, 3336, Note_on_c, 1, 71, 127
1, 3357, Note_off_c, 1, 54, 0
1, 3359, Note_off_c, 1, 74, 0
1, 3359, Note_off_c, 1, 71, 0
1, 3360, Note_on_c, 1, 76, 127
1, 3360, Note_on_c, 1, 73, 127
1, 3360, Note_on_c, 1, 54, 127
1, 3383, Note_off_c, 1, 76, 0
1, 3383, Note_off_c, 1, 73, 0
1, 3384, Note_on_c, 1, 74, 127
1, 3384, Note_on_c, 1, 71, 127
1, 3405, Note_off_c, 1, 54, 0
1, 3407, Note_off_c, 1, 74, 0
1, 3407, Note_off_c, 1, 71, 0
1, 3408, Note_on_c, 1, 76, 127
1, 3408, Note_on_c, 1, 73, 127
1, 3408, Note_on_c, 1, 54, 127
1, 3431, Note_off_c, 1, 76, 0
1, 3431, Note_off_c, 1, 73, 0
1, 3432, Note_on_c, 1, 70, 127
1, 3453, Note_off_c, 1, 54, 0
1, 3455, Note_off_c, 1, 70, 0
1, 3456, Note_on_c, 1, 74, 127
1, 3456, Note_on_c, 1, 71, 127
1, 3456, Note_on_c, 1, 54, 127
1, 3479, Note_off_c, 1, 71, 0
1, 3501, Note_off_c, 1, 54, 0
1, 3503, Note_off_c, 1, 74, 0
1, 3504, Note_on_c, 1, 83, 127
1, 3504, Note_on_c, 1, 78, 127
1, 3504, Note_on_c, 1, 62, 127
1, 3516, Note_off_c, 1, 62, 0
1, 3516, Note_on_c, 1, 61, 127
1, 3527, Note_off_c, 1, 78, 0
1, 3528, Note_off_c, 1, 61, 0
1, 3528, Note_on_c, 1, 59, 127
1, 3551, Note_off_c, 1, 59, 0
1, 3552, Note_on_c, 1, 76, 127
1, 3575, Note_off_c, 1, 76, 0
1, 3576, Note_on_c, 1, 74, 127
1, 3593, Note_off_c, 1, 83, 0
1, 3599, Note_off_c, 1, 74, 0
1, 3600, Note_on_c, 1, 81, 127
1, 3600, Note_on_c, 1, 76, 127
1, 3600, Note_on_c, 1, 61, 127
1, 3612, Note_off_c, 1, 61, 0
1, 3612, Note_on_c, 1, 59, 127
1, 3623, Note_off_c, 1, 76, 0
1, 3624, Note_off_c, 1, 59, 0
1, 3624, Note_on_c, 1, 57, 127
1, 3647, Note_off_c, 1, 57, 0
1, 3648, Note_on_c, 1, 74, 127
1, 3671, Note_off_c, 1, 74, 0
1, 3672, Note_on_c, 1, 73, 127
1, 3689, Note_off_c, 1, 81, 0
1, 3695, Note_off_c, 1, 73, 0
1, 3696, Note_on_c, 1, 79, 127
1, 3696, Note_on_c, 1, 74, 127
1, 3696, Note_on_c, 1, 59, 127
1, 3708, Note_off_c, 1, 59, 0
1, 3708, Note_on_c, 1, 57, 127
1, 3719, Note_off_c, 1, 74, 0
1, 3720, Note_off_c, 1, 57, 0
1, 3720, Note_on_c, 1, 55, 127
1, 3743, Note_off_c, 1, 79, 0
1, 3743, Note_off_c, 1, 55, 0
1, 3744, Note_on_c, 1, 85, 127
1, 3744, Note_on_c, 1, 78, 127
1, 3744, Note_on_c, 1, 57, 127
1, 3767, Note_off_c, 1, 78, 0
1, 3768, Note_on_c, 1, 76, 127
1, 3789, Note_off_c, 1, 85, 0
1, 3789, Note_off_c, 1, 57, 0
1, 3791, Note_off_c, 1, 76, 0
1, 3792, Note_on_c, 1, 79, 127
1, 3792, Note_on_c, 1, 74, 127
1, 3792, Note_on_c, 1, 59, 127
1, 3804, Note_off_c, 1, 59, 0
1, 3804, Note_on_c, 1, 57, 127
1, 3815, Note_off_c, 1, 74, 0
1, 3816, Note_off_c, 1, 57, 0
1, 3816, Note_on_c, 1, 55, 127
1, 3839, Note_off_c, 1, 55, 0
1, 3840, Note_on_c, 1, 73, 127
1, 3863, Note_off_c, 1, 73, 0
1, 3864, Note_on_c, 1, 71, 127
1, 3881, Note_off_c, 1, 79, 0
1, 3887, Note_off_c, 1, 71, 0
1, 3888, Note_on_c, 1, 78, 127
1, 3888, Note_on_c, 1, 73, 127
1, 3888, Note_on_c, 1, 57, 127
1, 3900, Note_off_c, 1, 57, 0
1, 3900, Note_on_c, 1, 55, 127
1, 3911, Note_off_c, 1, 73, 0
1, 3912, Note_off_c, 1, 55, 0
1, 3912, Note_on_c, 1, 54, 127
1, 3935, Note_off_c, 1, 54, 0
1, 3936, Note_on_c, 1, 71, 127
1, 3959, Note_off_c, 1, 71, 0
1, 3960, Note_on_c, 1, 69, 127
1, 3977, Note_off_c, 1, 78, 0
1, 3983, Note_off_c, 1, 69, 0
1, 3984, Note_on_c, 1, 76, 127
1, 3984, Note_on_c, 1, 71, 127
1, 3984, Note_on_c, 1, 55, 127
1, 3996, Note_off_c, 1, 55, 0
1, 3996, Note_on_c, 1, 54, 127
1, 4007, Note_off_c, 1, 71, 0
1, 4008, Note_off_c, 1, 54, 0
1, 4008, Note_on_c, 1, 52, 127
1, 4031, Note_off_c, 1, 76, 0
1, 4031, Note_off_c, 1, 52, 0
1, 4032, Note_on_c, 1, 81, 127
1, 4032, Note_on_c, 1, 74, 127
1, 4032, Note_on_c, 1, 54, 127
1, 4055, Note_off_c, 1, 74, 0
1, 4056, Note_on_c, 1, 73, 127
1, 4077, Note_off_c, 1, 81, 0
1, 4077, Note_off_c, 1, 54, 0
1, 4079, Note_off_c, 1, 73, 0
1, 4080, Note_on_c, 1, 76, 127
1, 4080, Note_on_c, 1, 71, 127
1, 4080, Note_on_c, 1, 55, 127
1, 4092, Note_off_c, 1, 55, 0
1, 4092, Note_on_c, 1, 54, 127
1, 4103, Note_off_c, 1, 71, 0
1, 4104, Note_off_c, 1, 54, 0
1, 4104, Note_on_c, 1, 52, 127
1, 4127, Note_off_c, 1, 52, 0
1, 4128, Note_on_c, 1, 69, 127
1, 4151, Note_off_c, 1, 69, 0
1, 4152, Note_on_c, 1, 67, 127
1, 4169, Note_off_c, 1, 76, 0
1, 4175, Note_off_c, 1, 67, 0
1, 4176, Note_on_c, 1, 74, 127
1, 4176, Note_on_c, 1, 69, 127
1, 4176, Note_on_c, 1, 54, 127
1, 4188, Note_off_c, 1, 54, 0
1, 4188, Note_on_c, 1, 52, 127
1, 4199, Note_off_c, 1, 69, 0
1, 4200, Note_off_c, 1, 52, 0
1, 4200, Note_on_c, 1, 50, 127
1, 4223, Note_off_c, 1, 50, 0
1, 4224, Note_on_c, 1, 67, 127
1, 4247, Note_off_c, 1, 67, 0
1, 4248, Note_on_c, 1, 66, 127
1, 4265, Note_off_c, 1, 74, 0
1, 4271, Note_off_c, 1, 66, 0
1, 4272, Note_on_c, 1, 73, 127
1, 4272, Note_on_c, 1, 67, 127
1, 4272, Note_on_c, 1, 52, 127
1, 4284, Note_off_c, 1, 52, 0
1, 4284, Note_on_c, 1, 50, 127
1, 4295, Note_off_c, 1, 67, 0
1, 4296, Note_off_c, 1, 50, 0
1, 4296, Note_on_c, 1, 49, 127
1, 4319, Note_off_c, 1, 73, 0
1, 4319, Note_off_c, 1, 49, 0
1, 4320, Note_on_c, 1, 78, 127
1, 4320, Note_on_c, 1, 66, 127
1, 4320, Note_on_c, 1, 50, 127
1, 4343, Note_off_c, 1, 78, 0
1, 4343, Note_off_c, 1, 50, 0
1, 4344, Note_on_c, 1, 76, 127
1, 4344, Note_on_c, 1, 49, 127
1, 4365, Note_off_c, 1, 66, 0
1, 4367, Note_off_c, 1, 76, 0
1, 4367, Note_off_c, 1, 49, 0
1, 4368, Note_on_c, 1, 74, 127
1, 4368, Note_on_c, 1, 66, 127
1, 4368, Note_on_c, 1, 47, 127
1, 4391, Note_off_c, 1, 74, 0
1, 4391, Note_off_c, 1, 47, 0
1, 4392, Note_on_c, 1, 73, 127
1, 4392, Note_on_c, 1, 49, 127
1, 4413, Note_off_c, 1, 66, 0
1, 4415, Note_off_c, 1, 73, 0
1, 4415, Note_off_c, 1, 49, 0
1, 4416, Note_on_c, 1, 71, 127
1, 4416, Note_on_c, 1, 66, 127
1, 4416, Note_on_c, 1, 50, 127
1, 4439, Note_off_c, 1, 71, 0
1, 4439, Note_off_c, 1, 50, 0
1, 4440, Note_on_c, 1, 73, 127
1, 4440, Note_on_c, 1, 54, 127
1, 4461, Note_off_c, 1, 66, 0
1, 4463, Note_off_c, 1, 73, 0
1, 4463, Note_off_c, 1, 54, 0
1, 4464, Note_on_c, 1, 74, 127
1, 4464, Note_on_c, 1, 66, 127
1, 4464, Note_on_c, 1, 59, 127
1, 4487, Note_off_c, 1, 74, 0
1, 4487, Note_off_c, 1, 59, 0
1, 4488, Note_on_c, 1, 76, 127
1, 4488, Note_on_c, 1, 54, 127
1, 4509, Note_off_c, 1, 66, 0
1, 4511, Note_off_c, 1, 76, 0
1, 4511, Note_off_c, 1, 54, 0
1, 4512, Note_on_c, 1, 78, 127
1, 4512, Note_on_c, 1, 66, 127
1, 4512, Note_on_c, 1, 50, 127
1, 4535, Note_off_c, 1, 50, 0
1, 4536, Note_on_c, 1, 54, 127
1, 4557, Note_off_c, 1, 78, 0
1, 4557, Note_off_c, 1, 66, 0
1, 4559, Note_off_c, 1, 54, 0
1, 4560, Note_on_c, 1, 82, 127
1, 4560, Note_on_c, 1, 66, 127
1, 4560, Note_on_c, 1, 49, 127
1, 4583, Note_off_c, 1, 49, 0
1, 4584, Note_on_c, 1, 54, 127
1, 4605, Note_off_c, 1, 82, 0
1, 4605, Note_off_c, 1, 66, 0
1, 4607, Note_off_c, 1, 54, 0
1, 4608, Note_on_c, 1, 83, 127
1, 4608, Note_on_c, 1, 66, 127
1, 4608, Note_on_c, 1, 50, 127
1, 4631, Note_off_c, 1, 50, 0
1, 4632, Note_on_c, 1, 49, 127
1, 4653, Note_off_c, 1, 83, 0
1, 4653, Note_off_c, 1, 66, 0
1, 4655, Note_off_c, 1, 49, 0
1, 4656, Note_on_c, 1, 78, 127
1, 4656, Note_on_c, 1, 71, 127
1, 4656, Note_on_c, 1, 47, 127
1, 4679, Note_off_c, 1, 71, 0
1, 4679, Note_off_c, 1, 47, 0
1, 4680, Note_on_c, 1, 70, 127
1, 4680, Note_on_c, 1, 49, 127
1, 4701, Note_off_c, 1, 78, 0
1, 4703, Note_off_c, 1, 70, 0
1, 4703, Note_off_c, 1, 49, 0
1, 4704, Note_on_c, 1, 74, 127
1, 4704, Note_on_c, 1, 71, 127
1, 4704, Note_on_c, 1, 50, 127
1, 4727, Note_off_c, 1, 50, 0
1, 4728, Note_on_c, 1, 54, 127
1, 4749, Note_off_c, 1, 74, 0
1, 4749, Note_off_c, 1, 71, 0
1, 4751, Note_off_c, 1, 54, 0
1, 4752, Note_on_c, 1, 78, 127
1, 4752, Note_on_c, 1, 66, 127
1, 4752, Note_on_c, 1, 59, 127
1, 4775, Note_off_c, 1, 59, 0
1, 4776, Note_on_c, 1, 54, 127
1, 4797, Note_off_c, 1, 78, 0
1, 4797, Note_off_c, 1, 66, 0
1, 4799, Note_off_c, 1, 54, 0
1, 4800, Note_on_c, 1, 83, 127
1, 4800, Note_on_c, 1, 66, 127
1, 4800, Note_on_c, 1, 52, 127
1, 4823, Note_off_c, 1, 52, 0
1, 4824, Note_on_c, 1, 50, 127
1, 4845, Note_off_c, 1, 66, 0
1, 4847, Note_off_c, 1, 50, 0
1, 4848, Note_on_c, 1, 49, 127
1, 4867, Note_off_c, 1, 83, 0
1, 4871, Note_off_c, 1, 49, 0
1, 4872, Note_on_c, 1, 82, 127
1, 4872, Note_on_c, 1, 47, 127
1, 4884, Note_off_c, 1, 82, 0
1, 4895, Note_off_c, 1, 47, 0
1, 4896, Note_on_c, 1, 85, 127
1, 4896, Note_on_c, 1, 46, 127
1, 4919, Note_off_c, 1, 85, 0
1, 4919, Note_off_c, 1, 46, 0
1, 4920, Note_on_c, 1, 44, 127
1, 4943, Note_off_c, 1, 44, 0
1, 4944, Note_on_c, 1, 82, 127
1, 4944, Note_on_c, 1, 73, 127
1, 4944, Note_on_c, 1, 42, 127
1, 4967, Note_off_c, 1, 82, 0
1, 4967, Note_off_c, 1, 73, 0
1, 4967, Note_off_c, 1, 42, 0
1, 4968, Note_on_c, 1, 80, 127
1, 4968, Note_on_c, 1, 71, 127
1, 4968, Note_on_c, 1, 44, 127
1, 4991, Note_off_c, 1, 80, 0
1, 4991, Note_off_c, 1, 71, 0
1, 4991, Note_off_c, 1, 44, 0
1, 4992, Note_on_c, 1, 78, 127
1, 4992, Note_on_c, 1, 73, 127
1, 4992, Note_on_c, 1, 46, 127
1, 5015, Note_off_c, 1, 78, 0
1, 5015, Note_off_c, 1, 46, 0
1, 5016, Note_on_c, 1, 80, 127
1, 5016, Note_on_c, 1, 47, 127
1, 5037, Note_off_c, 1, 73, 0
1, 5039, Note_off_c, 1, 80, 0
1, 5039, Note_off_c, 1, 47, 0
1, 5040, Note_on_c, 1, 82, 127
1, 5040, Note_on_c, 1, 66, 127
1, 5040, Note_on_c, 1, 49, 127
1, 5063, Note_off_c, 1, 82, 0
1, 5063, Note_off_c, 1, 49, 0
1, 5064, Note_on_c, 1, 83, 127
1, 5064, Note_on_c, 1, 50, 127
1, 5085, Note_off_c, 1, 66, 0
1, 5087, Note_off_c, 1, 83, 0
1, 5087, Note_off_c, 1, 50, 0
1, 5088, Note_on_c, 1, 85, 127
1, 5088, Note_on_c, 1, 66, 127
1, 5088, Note_on_c, 1, 52, 127
1, 5111, Note_off_c, 1, 85, 0
1, 5111, Note_off_c, 1, 52, 0
1, 5112, Note_on_c, 1, 83, 127
1, 5112, Note_on_c, 1, 50, 127
1, 5133, Note_off_c, 1, 66, 0
1, 5135, Note_off_c, 1, 83, 0
1, 5135, Note_off_c, 1, 50, 0
1, 5136, Note_on_c, 1, 85, 127
1, 5136, Note_on_c, 1, 66, 127
1, 5136, Note_on_c, 1, 52, 127
1, 5159, Note_off_c, 1, 85, 0
1, 5159, Note_off_c, 1, 52, 0
1, 5160, Note_on_c, 1, 82, 127
1, 5160, Note_on_c, 1, 49, 127
1, 5181, Note_off_c, 1, 66, 0
1, 5183, Note_off_c, 1, 82, 0
1, 5183, Note_off_c, 1, 49, 0
1, 5184, Note_on_c, 1, 83, 127
1, 5184, Note_on_c, 1, 66, 127
1, 5184, Note_on_c, 1, 50, 127
1, 5207, Note_off_c, 1, 50, 0
1, 5208, Note_on_c, 1, 49, 127
1, 5229, Note_off_c, 1, 83, 0
1, 5229, Note_off_c, 1, 66, 0
1, 5231, Note_off_c, 1, 49, 0
1, 5232, Note_on_c, 1, 79, 127
1, 5232, Note_on_c, 1, 74, 127
1, 5232, Note_on_c, 1, 47, 127
1, 5244, Note_off_c, 1, 74, 0
1, 5244, Note_on_c, 1, 73, 127
1, 5255, Note_off_c, 1, 47, 0
1, 5256, Note_off_c, 1, 73, 0
1, 5256, Note_on_c, 1, 71, 127
1, 5256, Note_on_c, 1, 55, 127
1, 5279, Note_off_c, 1, 71, 0
1, 5279, Note_off_c, 1, 55, 0
1, 5280, Note_on_c, 1, 45, 127
1, 5303, Note_off_c, 1, 45, 0
1, 5304, Note_on_c, 1, 54, 127
1, 5321, Note_off_c, 1, 79, 0
1, 5327, Note_off_c, 1, 54, 0
1, 5328, Note_on_c, 1, 78, 127
1, 5328, Note_on_c, 1, 73, 127
1, 5328, Note_on_c, 1, 52, 127
1, 5340, Note_off_c, 1, 73, 0
1, 5340, Note_on_c, 1, 71, 127
1, 5351, Note_off_c, 1, 52, 0
1, 5352, Note_off_c, 1, 71, 0
1, 5352, Note_on_c, 1, 70, 127
1, 5352, Note_on_c, 1, 54, 127
1, 5375, Note_off_c, 1, 70, 0
1, 5375, Note_off_c, 1, 54, 0
1, 5376, Note_on_c, 1, 43, 127
1, 5399, Note_off_c, 1, 43, 0
1, 5417, Note_off_c, 1, 78, 0
1, 5424, Note_on_c, 1, 76, 127
1, 5424, Note_on_c, 1, 71, 127
1, 5424, Note_on_c, 1, 50, 127
1, 5436, Note_off_c, 1, 71, 0
1, 5436, Note_on_c, 1, 70, 127
1, 5447, Note_off_c, 1, 50, 0
1, 5448, Note_off_c, 1, 70, 0
1, 5448, Note_on_c, 1, 68, 127
1, 5448, Note_on_c, 1, 52, 127
1, 5471, Note_off_c, 1, 68, 0
1, 5471, Note_off_c, 1, 52, 0
1, 5472, Note_on_c, 1, 42, 127
1, 5495, Note_off_c, 1, 76, 0
1, 5496, Note_on_c, 1, 79, 127
1, 5519, Note_off_c, 1, 79, 0
1, 5520, Note_on_c, 1, 78, 127
1, 5543, Note_off_c, 1, 78, 0
1, 5568, Note_on_c, 1, 85, 127
1, 5591, Note_off_c, 1, 85, 0
1, 5592, Note_on_c, 1, 83, 127
1, 5605, Note_off_c, 1, 42, 0
1, 5615, Note_off_c, 1, 83, 0
1, 5616, Note_on_c, 1, 82, 127
1, 5616, Note_on_c, 1, 66, 127
1, 5616, Note_on_c, 1, 52, 127
1, 5639, Note_off_c, 1, 82, 0
1, 5640, Note_on_c, 1, 80, 127
1, 5661, Note_off_c, 1, 66, 0
1, 5661, Note_off_c, 1, 52, 0
1, 5663, Note_off_c, 1, 80, 0
1, 5664, Note_on_c, 1, 78, 127
1, 5664, Note_on_c, 1, 71, 127
1, 5664, Note_on_c, 1, 50, 127
1, 5687, Note_off_c, 1, 78, 0
1, 5688, Note_on_c, 1, 76, 127
1, 5709, Note_off_c, 1, 50, 0
1, 5711, Note_off_c, 1, 76, 0
1, 5712, Note_on_c, 1, 74, 127
1, 5712, Note_on_c, 1, 49, 127
1, 5735, Note_off_c, 1, 74, 0
1, 5736, Note_on_c, 1, 73, 127
1, 5757, Note_off_c, 1, 49, 0
1, 5759, Note_off_c, 1, 73, 0
1, 5760, Note_on_c, 1, 55, 127
1, 5784, Note_on_c, 1, 70, 127
1, 5805, Note_off_c, 1, 71, 0
1, 5805, Note_off_c, 1, 55, 0
1, 5807, Note_off_c, 1, 70, 0
1, 5808, Note_on_c, 1, 71, 127
1, 5808, Note_on_c, 1, 79, 127
1, 5808, Note_on_c, 1, 52, 127
1, 5831, Note_off_c, 1, 71, 0
1, 5832, Note_on_c, 1, 76, 127
1, 5853, Note_off_c, 1, 79, 0
1, 5853, Note_off_c, 1, 52, 0
1, 5855, Note_off_c, 1, 76, 0
1, 5856, Note_on_c, 1, 73, 127
1, 5856, Note_on_c, 1, 70, 127
1, 5856, Note_on_c, 1, 54, 127
1, 5901, Note_off_c, 1, 54, 0
1, 5904, Note_on_c, 1, 52, 127
1, 5949, Note_off_c, 1, 52, 0
1, 5989, Note_off_c, 1, 73, 0
1, 5989, Note_off_c, 1, 70, 0
1, 6000, Note_on_c, 1, 71, 127
1, 6000, Note_on_c, 1, 42, 127
1, 6045, Note_off_c, 1, 71, 0
1, 6045, Note_off_c, 1, 42, 0
1, 6048, Note_on_c, 1, 71, 127
1, 6048, Note_on_c, 1, 47, 127
1, 6072, Note_on_c, 1, 66, 127
1, 6095, Note_off_c, 1, 66, 0
1, 6096, Note_on_c, 1, 68, 127
1, 6119, Note_off_c, 1, 68, 0
1, 6120, Note_on_c, 1, 70, 127
1, 6137, Note_off_c, 1, 71, 0
1, 6137, Note_off_c, 1, 47, 0
1, 6143, Note_off_c, 1, 70, 0
1, 6144, Note_on_c, 1, 71, 127
1, 6167, Note_off_c, 1, 71, 0
1, 6168, Note_on_c, 1, 73, 127
1, 6191, Note_off_c, 1, 73, 0
1, 6192, Note_on_c, 1, 71, 127
1, 6192, Note_on_c, 1, 74, 127
1, 6192, Note_on_c, 1, 59, 127
1, 6215, Note_off_c, 1, 71, 0
1, 6215, Note_off_c, 1, 74, 0
1, 6216, Note_on_c, 1, 73, 127
1, 6216, Note_on_c, 1, 76, 127
1, 6237, Note_off_c, 1, 59, 0
1, 6239, Note_off_c, 1, 73, 0
1, 6239, Note_off_c, 1, 76, 0
1, 6240, Note_on_c, 1, 74, 127
1, 6240, Note_on_c, 1, 78, 127
1, 6240, Note_on_c, 1, 57, 127
1, 6263, Note_off_c, 1, 74, 0
1, 6263, Note_off_c, 1, 78, 0
1, 6264, Note_on_c, 1, 76, 127
1, 6264, Note_on_c, 1, 71, 127
1, 6285, Note_off_c, 1, 57, 0
1, 6287, Note_off_c, 1, 76, 0
1, 6287, Note_off_c, 1, 71, 0
1, 6288, Note_on_c, 1, 76, 127
1, 6288, Note_on_c, 1, 83, 127
1, 6288, Note_on_c, 1, 55, 127
1, 6294, Note_off_c, 1, 76, 0
1, 6294, Note_on_c, 1, 78, 127
1, 6300, Note_off_c, 1, 78, 0
1, 6312, Note_on_c, 1, 74, 127
1, 6324, Note_off_c, 1, 74, 0
1, 6333, Note_off_c, 1, 83, 0
1, 6333, Note_off_c, 1, 55, 0
1, 6336, Note_on_c, 1, 82, 127
1, 6336, Note_on_c, 1, 54, 127
1, 6601, Note_off_c, 1, 82, 0
1, 6601, Note_off_c, 1, 54, 0
1, 6624, Note_on_c, 1, 74, 127
1, 6624, Note_on_c, 1, 59, 127
1, 6647, Note_off_c, 1, 74, 0
1, 6648, Note_on_c, 1, 73, 127
1, 6671, Note_off_c, 1, 73, 0
1, 6672, Note_on_c, 1, 78, 127
1, 6672, Note_on_c, 1, 71, 127
1, 6695, Note_off_c, 1, 71, 0
1, 6713, Note_off_c, 1, 59, 0
1, 6717, Note_off_c, 1, 78, 0
1, 6720, Note_on_c, 1, 78, 127
1, 6720, Note_on_c, 1, 74, 127
1, 6743, Note_off_c, 1, 74, 0
1, 6767, Note_off_c, 1, 78, 0
1, 6768, Note_on_c, 1, 78, 127
1, 6768, Note_on_c, 1, 83, 127
1, 6768, Note_on_c, 1, 47, 127
1, 6791, Note_off_c, 1, 83, 0
1, 6813, Note_off_c, 1, 47, 0
1, 6815, Note_off_c, 1, 78, 0
1, 6816, Note_on_c, 1, 78, 127
1, 6816, Note_on_c, 1, 74, 127
1, 6816, Note_on_c, 1, 59, 127
1, 6839, Note_off_c, 1, 74, 0
1, 6861, Note_off_c, 1, 59, 0
1, 6863, Note_off_c, 1, 78, 0
1, 6864, Note_on_c, 1, 78, 127
1, 6864, Note_on_c, 1, 73, 127
1, 6864, Note_on_c, 1, 58, 127
1, 6887, Note_off_c, 1, 73, 0
1, 6909, Note_off_c, 1, 58, 0
1, 6911, Note_off_c, 1, 78, 0
1, 6912, Note_on_c, 1, 78, 127
1, 6912, Note_on_c, 1, 74, 127
1, 6912, Note_on_c, 1, 59, 127
1, 6935, Note_off_c, 1, 74, 0
1, 6936, Note_on_c, 1, 73, 127
1, 6957, Note_off_c, 1, 78, 0
1, 6959, Note_off_c, 1, 73, 0
1, 6960, Note_on_c, 1, 83, 127
1, 6960, Note_on_c, 1, 71, 127
1, 6983, Note_off_c, 1, 83, 0
1, 6983, Note_off_c, 1, 71, 0
1, 6984, Note_on_c, 1, 82, 127
1, 7001, Note_off_c, 1, 59, 0
1, 7007, Note_off_c, 1, 82, 0
1, 7008, Note_on_c, 1, 83, 127
1, 7008, Note_on_c, 1, 74, 127
1, 7031, Note_off_c, 1, 74, 0
1, 7032, Note_on_c, 1, 78, 127
1, 7053, Note_off_c, 1, 83, 0
1, 7055, Note_off_c, 1, 78, 0
1, 7056, Note_on_c, 1, 78, 127
1, 7056, Note_on_c, 1, 83, 127
1, 7056, Note_on_c, 1, 47, 127
1, 7079, Note_off_c, 1, 83, 0
1, 7079, Note_off_c, 1, 47, 0
1, 7080, Note_on_c, 1, 49, 127
1, 7103, Note_off_c, 1, 78, 0
1, 7103, Note_off_c, 1, 49, 0
1, 7104, Note_on_c, 1, 78, 127
1, 7104, Note_on_c, 1, 76, 127
1, 7104, Note_on_c, 1, 50, 127
1, 7127, Note_off_c, 1, 76, 0
1, 7128, Note_on_c, 1, 74, 127
1, 7149, Note_off_c, 1, 78, 0
1, 7149, Note_off_c, 1, 50, 0
1, 7151, Note_off_c, 1, 74, 0
1, 7152, Note_on_c, 1, 78, 127
1, 7152, Note_on_c, 1, 73, 127
1, 7152, Note_on_c, 1, 52, 127
1, 7175, Note_off_c, 1, 73, 0
1, 7176, Note_on_c, 1, 71, 127
1, 7197, Note_off_c, 1, 78, 0
1, 7197, Note_off_c, 1, 52, 0
1, 7199, Note_off_c, 1, 71, 0
1, 7200, Note_on_c, 1, 78, 127
1, 7200, Note_on_c, 1, 70, 127
1, 7200, Note_on_c, 1, 54, 127
1, 7223, Note_off_c, 1, 70, 0
1, 7224, Note_on_c, 1, 68, 127
1, 7245, Note_off_c, 1, 78, 0
1, 7247, Note_off_c, 1, 68, 0
1, 7248, Note_on_c, 1, 85, 127
1, 7248, Note_on_c, 1, 66, 127
1, 7271, Note_off_c, 1, 66, 0
1, 7272, Note_off_c, 1, 85, 0
1, 7272, Note_on_c, 1, 83, 127
1, 7289, Note_off_c, 1, 54, 0
1, 7295, Note_off_c, 1, 83, 0
1, 7296, Note_on_c, 1, 85, 127
1, 7296, Note_on_c, 1, 70, 127
1, 7319, Note_off_c, 1, 70, 0
1, 7320, Note_on_c, 1, 71, 127
1, 7341, Note_off_c, 1, 85, 0
1, 7343, Note_off_c, 1, 71, 0
1, 7344, Note_on_c, 1, 78, 127
1, 7344, Note_on_c, 1, 73, 127
1, 7344, Note_on_c, 1, 58, 127
1, 7367, Note_off_c, 1, 73, 0
1, 7367, Note_off_c, 1, 58, 0
1, 7368, Note_on_c, 1, 74, 127
1, 7368, Note_on_c, 1, 56, 127
1, 7389, Note_off_c, 1, 78, 0
1, 7391, Note_off_c, 1, 74, 0
1, 7391, Note_off_c, 1, 56, 0
1, 7392, Note_on_c, 1, 78, 127
1, 7392, Note_on_c, 1, 76, 127
1, 7392, Note_on_c, 1, 58, 127
1, 7415, Note_off_c, 1, 76, 0
1, 7416, Note_on_c, 1, 74, 127
1, 7437, Note_off_c, 1, 78, 0
1, 7437, Note_off_c, 1, 58, 0
1, 7439, Note_off_c, 1, 74, 0
1, 7440, Note_on_c, 1, 78, 127
1, 7440, Note_on_c, 1, 76, 127
1, 7440, Note_on_c, 1, 54, 127
1, 7463, Note_off_c, 1, 76, 0
1, 7464, Note_on_c, 1, 73, 127
1, 7485, Note_off_c, 1, 78, 0
1, 7485, Note_off_c, 1, 54, 0
1, 7487, Note_off_c, 1, 73, 0
1, 7488, Note_on_c, 1, 78, 127
1, 7488, Note_on_c, 1, 74, 127
1, 7488, Note_on_c, 1, 47, 127
1, 7533, Note_off_c, 1, 78, 0
1, 7533, Note_off_c, 1, 74, 0
1, 7533, Note_off_c, 1, 47, 0
1, 7536, Note_on_c, 1, 86, 127
1, 7536, Note_on_c, 1, 71, 127
1, 7536, Note_on_c, 1, 54, 127
1, 7548, Note_off_c, 1, 86, 0
1, 7548, Note_on_c, 1, 85, 127
1, 7560, Note_off_c, 1, 85, 0
1, 7560, Note_on_c, 1, 83, 127
1, 7581, Note_off_c, 1, 71, 0
1, 7581, Note_off_c, 1, 54, 0
1, 7583, Note_off_c, 1, 83, 0
1, 7584, Note_on_c, 1, 85, 127
1, 7584, Note_on_c, 1, 45, 127
1, 7629, Note_off_c, 1, 85, 0
1, 7629, Note_off_c, 1, 45, 0
1, 7632, Note_on_c, 1, 85, 127
1, 7632, Note_on_c, 1, 54, 127
1, 7644, Note_off_c, 1, 85, 0
1, 7644, Note_on_c, 1, 83, 127
1, 7656, Note_off_c, 1, 83, 0
1, 7656, Note_on_c, 1, 81, 127
1, 7677, Note_off_c, 1, 54, 0
1, 7679, Note_off_c, 1, 81, 0
1, 7680, Note_on_c, 1, 83, 127
1, 7680, Note_on_c, 1, 44, 127
1, 7725, Note_off_c, 1, 83, 0
1, 7725, Note_off_c, 1, 44, 0
1, 7728, Note_on_c, 1, 83, 127
1, 7728, Note_on_c, 1, 53, 127
1, 7740, Note_off_c, 1, 83, 0
1, 7740, Note_on_c, 1, 81, 127
1, 7752, Note_off_c, 1, 81, 0
1, 7752, Note_on_c, 1, 80, 127
1, 7773, Note_off_c, 1, 53, 0
1, 7775, Note_off_c, 1, 80, 0
1, 7776, Note_on_c, 1, 81, 127
1, 7776, Note_on_c, 1, 42, 127
1, 7821, Note_off_c, 1, 81, 0
1, 7824, Note_on_c, 1, 66, 127
1, 7824, Note_on_c, 1, 73, 127
1, 7847, Note_off_c, 1, 66, 0
1, 7848, Note_on_c, 1, 68, 127
1, 7865, Note_off_c, 1, 42, 0
1, 7869, Note_off_c, 1, 73, 0
1, 7871, Note_off_c, 1, 68, 0
1, 7872, Note_on_c, 1, 69, 127
1, 7872, Note_on_c, 1, 73, 127
1, 7895, Note_off_c, 1, 69, 0
1, 7919, Note_off_c, 1, 73, 0
1, 7920, Note_on_c, 1, 78, 127
1, 7920, Note_on_c, 1, 73, 127
1, 7920, Note_on_c, 1, 42, 127
1, 7943, Note_off_c, 1, 78, 0
1, 7965, Note_off_c, 1, 42, 0
1, 7967, Note_off_c, 1, 73, 0
1, 7968, Note_on_c, 1, 69, 127
1, 7968, Note_on_c, 1, 73, 127
1, 7968, Note_on_c, 1, 54, 127
1, 7991, Note_off_c, 1, 69, 0
1, 8013, Note_off_c, 1, 54, 0
1, 8015, Note_off_c, 1, 73, 0
1, 8016, Note_on_c, 1, 68, 127
1, 8016, Note_on_c, 1, 73, 127
1, 8016, Note_on_c, 1, 53, 127
1, 8039, Note_off_c, 1, 68, 0
1, 8061, Note_off_c, 1, 53, 0
1, 8063, Note_off_c, 1, 73, 0
1, 8064, Note_on_c, 1, 69, 127
1, 8064, Note_on_c, 1, 73, 127
1, 8064, Note_on_c, 1, 54, 127
1, 8087, Note_off_c, 1, 69, 0
1, 8088, Note_on_c, 1, 68, 127
1, 8109, Note_off_c, 1, 73, 0
1, 8111, Note_off_c, 1, 68, 0
1, 8112, Note_on_c, 1, 66, 127
1, 8112, Note_on_c, 1, 78, 127
1, 8135, Note_off_c, 1, 66, 0
1, 8135, Note_off_c, 1, 78, 0
1, 8136, Note_on_c, 1, 77, 127
1, 8153, Note_off_c, 1, 54, 0
1, 8159, Note_off_c, 1, 77, 0
1, 8160, Note_on_c, 1, 69, 127
1, 8160, Note_on_c, 1, 78, 127
1, 8183, Note_off_c, 1, 69, 0
1, 8184, Note_on_c, 1, 73, 127
1, 8205, Note_off_c, 1, 78, 0
1, 8207, Note_off_c, 1, 73, 0
1, 8208, Note_on_c, 1, 78, 127
1, 8208, Note_on_c, 1, 73, 127
1, 8208, Note_on_c, 1, 42, 127
1, 8231, Note_off_c, 1, 78, 0
1, 8231, Note_off_c, 1, 42, 0
1, 8232, Note_on_c, 1, 44, 127
1, 8255, Note_off_c, 1, 73, 0
1, 8255, Note_off_c, 1, 44, 0
1, 8256, Note_on_c, 1, 71, 127
1, 8256, Note_on_c, 1, 73, 127
1, 8256, Note_on_c, 1, 45, 127
1, 8279, Note_off_c, 1, 71, 0
1, 8280, Note_on_c, 1, 69, 127
1, 8301, Note_off_c, 1, 73, 0
1, 8301, Note_off_c, 1, 45, 0
1, 8303, Note_off_c, 1, 69, 0
1, 8304, Note_on_c, 1, 68, 127
1, 8304, Note_on_c, 1, 73, 127
1, 8304, Note_on_c, 1, 47, 127
1, 8327, Note_off_c, 1, 68, 0
1, 8328, Note_on_c, 1, 66, 127
1, 8349, Note_off_c, 1, 73, 0
1, 8349, Note_off_c, 1, 47, 0
1, 8351, Note_off_c, 1, 66, 0
1, 8352, Note_on_c, 1, 65, 127
1, 8352, Note_on_c, 1, 73, 127
1, 8352, Note_on_c, 1, 49, 127
1, 8375, Note_off_c, 1, 65, 0
1, 8376, Note_on_c, 1, 63, 127
1, 8397, Note_off_c, 1, 73, 0
1, 8399, Note_off_c, 1, 63, 0
1, 8400, Note_on_c, 1, 61, 127
1, 8400, Note_on_c, 1, 80, 127
1, 8423, Note_off_c, 1, 61, 0
1, 8423, Note_off_c, 1, 80, 0
1, 8424, Note_on_c, 1, 78, 127
1, 8441, Note_off_c, 1, 49, 0
1, 8447, Note_off_c, 1, 78, 0
1, 8448, Note_on_c, 1, 65, 127
1, 8448, Note_on_c, 1, 80, 127
1, 8471, Note_off_c, 1, 65, 0
1, 8472, Note_on_c, 1, 66, 127
1, 8493, Note_off_c, 1, 80, 0
1, 8495, Note_off_c, 1, 66, 0
1, 8496, Note_on_c, 1, 68, 127
1, 8496, Note_on_c, 1, 73, 127
1, 8496, Note_on_c, 1, 53, 127
1, 8519, Note_off_c, 1, 68, 0
1, 8519, Note_off_c, 1, 53, 0
1, 8520, Note_on_c, 1, 69, 127
1, 8520, Note_on_c, 1, 51, 127
1, 8541, Note_off_c, 1, 73, 0
1, 8543, Note_off_c, 1, 69, 0
1, 8543, Note_off_c, 1, 51, 0
1, 8544, Note_on_c, 1, 71, 127
1, 8544, Note_on_c, 1, 73, 127
1, 8544, Note_on_c, 1, 53, 127
1, 8567, Note_off_c, 1, 71, 0
1, 8568, Note_on_c, 1, 69, 127
1, 8589, Note_off_c, 1, 73, 0
1, 8589, Note_off_c, 1, 53, 0
1, 8591, Note_off_c, 1, 69, 0
1, 8592, Note_on_c, 1, 71, 127
1, 8592, Note_on_c, 1, 73, 127
1, 8592, Note_on_c, 1, 49, 127
1, 8615, Note_off_c, 1, 71, 0
1, 8616, Note_on_c, 1, 68, 127
1, 8637, Note_off_c, 1, 73, 0
1, 8637, Note_off_c, 1, 49, 0
1, 8639, Note_off_c, 1, 68, 0
1, 8640, Note_on_c, 1, 69, 127
1, 8640, Note_on_c, 1, 73, 127
1, 8640, Note_on_c, 1, 54, 127
1, 8685, Note_off_c, 1, 69, 0
1, 8685, Note_off_c, 1, 73, 0
1, 8685, Note_off_c, 1, 54, 0
1, 8688, Note_on_c, 1, 66, 127
1, 8688, Note_on_c, 1, 81, 127
1, 8688, Note_on_c, 1, 61, 127
1, 8700, Note_off_c, 1, 81, 0
1, 8700, Note_on_c, 1, 80, 127
1, 8712, Note_off_c, 1, 80, 0
1, 8712, Note_on_c, 1, 78, 127
1, 8733, Note_off_c, 1, 66, 0
1, 8733, Note_off_c, 1, 61, 0
1, 8735, Note_off_c, 1, 78, 0
1, 8736, Note_on_c, 1, 80, 127
1, 8736, Note_on_c, 1, 52, 127
1, 8781, Note_off_c, 1, 80, 0
1, 8781, Note_off_c, 1, 52, 0
1, 8784, Note_on_c, 1, 80, 127
1, 8784, Note_on_c, 1, 61, 127
1, 8796, Note_off_c, 1, 80, 0
1, 8796, Note_on_c, 1, 78, 127
1, 8808, Note_off_c, 1, 78, 0
1, 8808, Note_on_c, 1, 77, 127
1, 8829, Note_off_c, 1, 61, 0
1, 8831, Note_off_c, 1, 77, 0
1, 8832, Note_on_c, 1, 71, 127
1, 8832, Note_on_c, 1, 78, 127
1, 8832, Note_on_c, 1, 50, 127
1, 8877, Note_off_c, 1, 78, 0
1, 8877, Note_off_c, 1, 50, 0
1, 8880, Note_on_c, 1, 59, 127
1, 8892, Note_on_c, 1, 77, 127
1, 8904, Note_off_c, 1, 77, 0
1, 8904, Note_on_c, 1, 75, 127
1, 8925, Note_off_c, 1, 59, 0
1, 8927, Note_off_c, 1, 75, 0
1, 8928, Note_on_c, 1, 49, 127
1, 8973, Note_off_c, 1, 71, 0
1, 8973, Note_off_c, 1, 49, 0
1, 8976, Note_on_c, 1, 73, 127
1, 8976, Note_on_c, 1, 57, 127
1, 9000, Note_off_c, 1, 73, 0
1, 9000, Note_on_c, 1, 71, 127
1, 9000, Note_on_c, 1, 75, 127
1, 9021, Note_off_c, 1, 57, 0
1, 9023, Note_off_c, 1, 71, 0
1, 9023, Note_off_c, 1, 75, 0
1, 9024, Note_on_c, 1, 74, 127
1, 9024, Note_on_c, 1, 77, 127
1, 9024, Note_on_c, 1, 56, 127
1, 9047, Note_off_c, 1, 74, 0
1, 9047, Note_off_c, 1, 77, 0
1, 9048, Note_on_c, 1, 73, 127
1, 9048, Note_on_c, 1, 78, 127
1, 9069, Note_off_c, 1, 56, 0
1, 9071, Note_off_c, 1, 73, 0
1, 9071, Note_off_c, 1, 78, 0
1, 9072, Note_on_c, 1, 71, 127
1, 9072, Note_on_c, 1, 80, 127
1, 9072, Note_on_c, 1, 54, 127
1, 9095, Note_off_c, 1, 71, 0
1, 9095, Note_off_c, 1, 80, 0
1, 9096, Note_on_c, 1, 69, 127
1, 9096, Note_on_c, 1, 81, 127
1, 9117, Note_off_c, 1, 54, 0
1, 9119, Note_off_c, 1, 69, 0
1, 9119, Note_off_c, 1, 81, 0
1, 9120, Note_on_c, 1, 68, 127
1, 9120, Note_on_c, 1, 83, 127
1, 9120, Note_on_c, 1, 61, 127
1, 9143, Note_off_c, 1, 83, 0
1, 9144, Note_on_c, 1, 81, 127
1, 9165, Note_off_c, 1, 61, 0
1, 9167, Note_off_c, 1, 81, 0
1, 9168, Note_on_c, 1, 49, 127
1, 9187, Note_off_c, 1, 68, 0
1, 9192, Note_on_c, 1, 66, 127
1, 9192, Note_on_c, 1, 80, 127
1, 9213, Note_off_c, 1, 49, 0
1, 9215, Note_off_c, 1, 66, 0
1, 9215, Note_off_c, 1, 80, 0
1, 9216, Note_on_c, 1, 66, 127
1, 9216, Note_on_c, 1, 81, 127
1, 9216, Note_on_c, 1, 42, 127
1, 9239, Note_off_c, 1, 66, 0
1, 9240, Note_on_c, 1, 65, 127
1, 9261, Note_off_c, 1, 81, 0
1, 9261, Note_off_c, 1, 42, 0
1, 9263, Note_off_c, 1, 65, 0
1, 9264, Note_on_c, 1, 66, 127
1, 9264, Note_on_c, 1, 78, 127
1, 9264, Note_on_c, 1, 54, 127
1, 9287, Note_off_c, 1, 66, 0
1, 9288, Note_on_c, 1, 68, 127
1, 9309, Note_off_c, 1, 78, 0
1, 9309, Note_off_c, 1, 54, 0
1, 9311, Note_off_c, 1, 68, 0
1, 9312, Note_on_c, 1, 69, 127
1, 9312, Note_on_c, 1, 73, 127
1, 9312, Note_on_c, 1, 54, 127
1, 9335, Note_off_c, 1, 69, 0
1, 9336, Note_on_c, 1, 71, 127
1, 9357, Note_off_c, 1, 73, 0
1, 9357, Note_off_c, 1, 54, 0
1, 9359, Note_off_c, 1, 71, 0
1, 9360, Note_on_c, 1, 73, 127
1, 9360, Note_on_c, 1, 78, 127
1, 9360, Note_on_c, 1, 54, 127
1, 9383, Note_off_c, 1, 73, 0
1, 9384, Note_on_c, 1, 74, 127
1, 9405, Note_off_c, 1, 78, 0
1, 9405, Note_off_c, 1, 54, 0
1, 9407, Note_off_c, 1, 74, 0
1, 9408, Note_on_c, 1, 76, 127
1, 9408, Note_on_c, 1, 82, 127
1, 9408, Note_on_c, 1, 54, 127
1, 9431, Note_off_c, 1, 76, 0
1, 9432, Note_on_c, 1, 74, 127
1, 9453, Note_off_c, 1, 54, 0
1, 9455, Note_off_c, 1, 74, 0
1, 9475, Note_off_c, 1, 82, 0
1, 9480, Note_on_c, 1, 73, 127
1, 9480, Note_on_c, 1, 80, 127
1, 9492, Note_off_c, 1, 80, 0
1, 9503, Note_off_c, 1, 73, 0
1, 9504, Note_on_c, 1, 83, 127
1, 9549, Note_off_c, 1, 83, 0
1, 9552, Note_on_c, 1, 71, 127
1, 9552, Note_on_c, 1, 78, 127
1, 9552, Note_on_c, 1, 59, 127
1, 9575, Note_off_c, 1, 71, 0
1, 9575, Note_off_c, 1, 59, 0
1, 9576, Note_on_c, 1, 73, 127
1, 9576, Note_on_c, 1, 58, 127
1, 9597, Note_off_c, 1, 78, 0
1, 9599, Note_off_c, 1, 73, 0
1, 9599, Note_off_c, 1, 58, 0
1, 9600, Note_on_c, 1, 74, 127
1, 9600, Note_on_c, 1, 59, 127
1, 9624, Note_on_c, 1, 78, 127
1, 9645, Note_off_c, 1, 74, 0
1, 9645, Note_off_c, 1, 59, 0
1, 9647, Note_off_c, 1, 78, 0
1, 9648, Note_on_c, 1, 83, 127
1, 9648, Note_on_c, 1, 78, 127
1, 9648, Note_on_c, 1, 54, 127
1, 9671, Note_off_c, 1, 83, 0
1, 9693, Note_off_c, 1, 54, 0
1, 9695, Note_off_c, 1, 78, 0
1, 9696, Note_on_c, 1, 76, 127
1, 9696, Note_on_c, 1, 83, 127
1, 9696, Note_on_c, 1, 54, 127
1, 9719, Note_off_c, 1, 76, 0
1, 9720, Note_on_c, 1, 74, 127
1, 9741, Note_off_c, 1, 54, 0
1, 9743, Note_off_c, 1, 74, 0
1, 9744, Note_on_c, 1, 73, 127
1, 9763, Note_off_c, 1, 83, 0
1, 9767, Note_off_c, 1, 73, 0
1, 9768, Note_on_c, 1, 71, 127
1, 9768, Note_on_c, 1, 82, 127
1, 9780, Note_off_c, 1, 82, 0
1, 9791, Note_off_c, 1, 71, 0
1, 9792, Note_on_c, 1, 70, 127
1, 9792, Note_on_c, 1, 85, 127
1, 9815, Note_off_c, 1, 70, 0
1, 9816, Note_on_c, 1, 68, 127
1, 9839, Note_off_c, 1, 68, 0
1, 9840, Note_on_c, 1, 66, 127
1, 9840, Note_on_c, 1, 61, 127
1, 9863, Note_off_c, 1, 66, 0
1, 9863, Note_off_c, 1, 61, 0
1, 9864, Note_on_c, 1, 59, 127
1, 9881, Note_off_c, 1, 85, 0
1, 9887, Note_off_c, 1, 59, 0
1, 9888, Note_on_c, 1, 70, 127
1, 9888, Note_on_c, 1, 61, 127
1, 9911, Note_off_c, 1, 70, 0
1, 9912, Note_on_c, 1, 71, 127
1, 9933, Note_off_c, 1, 61, 0
1, 9935, Note_off_c, 1, 71, 0
1, 9936, Note_on_c, 1, 73, 127
1, 9936, Note_on_c, 1, 70, 127
1, 9936, Note_on_c, 1, 54, 127
1, 9959, Note_off_c, 1, 73, 0
1, 9959, Note_off_c, 1, 70, 0
1, 9960, Note_on_c, 1, 74, 127
1, 9960, Note_on_c, 1, 71, 127
1, 9981, Note_off_c, 1, 54, 0
1, 9983, Note_off_c, 1, 74, 0
1, 9983, Note_off_c, 1, 71, 0
1, 9984, Note_on_c, 1, 76, 127
1, 9984, Note_on_c, 1, 73, 127
1, 9984, Note_on_c, 1, 54, 127
1, 10007, Note_off_c, 1, 76, 0
1, 10007, Note_off_c, 1, 73, 0
1, 10008, Note_on_c, 1, 74, 127
1, 10008, Note_on_c, 1, 71, 127
1, 10029, Note_off_c, 1, 54, 0
1, 10031, Note_off_c, 1, 74, 0
1, 10031, Note_off_c, 1, 71, 0
1, 10032, Note_on_c, 1, 76, 127
1, 10032, Note_on_c, 1, 73, 127
1, 10032, Note_on_c, 1, 54, 127
1, 10055, Note_off_c, 1, 76, 0
1, 10055, Note_off_c, 1, 73, 0
1, 10056, Note_on_c, 1, 70, 127
1, 10077, Note_off_c, 1, 54, 0
1, 10079, Note_off_c, 1, 70, 0
1, 10080, Note_on_c, 1, 74, 127
1, 10080, Note_on_c, 1, 71, 127
1, 10080, Note_on_c, 1, 54, 127
1, 10103, Note_off_c, 1, 71, 0
1, 10125, Note_off_c, 1, 54, 0
1, 10127, Note_off_c, 1, 74, 0
1, 10128, Note_on_c, 1, 83, 127
1, 10128, Note_on_c, 1, 78, 127
1, 10128, Note_on_c, 1, 62, 127
1, 10140, Note_off_c, 1, 62, 0
1, 10140, Note_on_c, 1, 61, 127
1, 10151, Note_off_c, 1, 78, 0
1, 10152, Note_off_c, 1, 61, 0
1, 10152, Note_on_c, 1, 59, 127
1, 10175, Note_off_c, 1, 59, 0
1, 10176, Note_on_c, 1, 76, 127
1, 10199, Note_off_c, 1, 76, 0
1, 10200, Note_on_c, 1, 74, 127
1, 10217, Note_off_c, 1, 83, 0
1, 10223, Note_off_c, 1, 74, 0
1, 10224, Note_on_c, 1, 81, 127
1, 10224, Note_on_c, 1, 76, 127
1, 10224, Note_on_c, 1, 61, 127
1, 10236, Note_off_c, 1, 61, 0
1, 10236, Note_on_c, 1, 59, 127
1, 10247, Note_off_c, 1, 76, 0
1, 10248, Note_off_c, 1, 59, 0
1, 10248, Note_on_c, 1, 57, 127
1, 10271, Note_off_c, 1, 57, 0
1, 10272, Note_on_c, 1, 74, 127
1, 10295, Note_off_c, 1, 74, 0
1, 10296, Note_on_c, 1, 73, 127
1, 10313, Note_off_c, 1, 81, 0
1, 10319, Note_off_c, 1, 73, 0
1, 10320, Note_on_c, 1, 79, 127
1, 10320, Note_on_c, 1, 74, 127
1, 10320, Note_on_c, 1, 59, 127
1, 10332, Note_off_c, 1, 59, 0
1, 10332, Note_on_c, 1, 57, 127
1, 10343, Note_off_c, 1, 74, 0
1, 10344, Note_off_c, 1, 57, 0
1, 10344, Note_on_c, 1, 55, 127
1, 10367, Note_off_c, 1, 79, 0
1, 10367, Note_off_c, 1, 55, 0
1, 10368, Note_on_c, 1, 85, 127
1, 10368, Note_on_c, 1, 78, 127
1, 10368, Note_on_c, 1, 57, 127
1, 10391, Note_off_c, 1, 78, 0
1, 10392, Note_on_c, 1, 76, 127
1, 10413, Note_off_c, 1, 85, 0
1, 10413, Note_off_c, 1, 57, 0
1, 10415, Note_off_c, 1, 76, 0
1, 10416, Note_on_c, 1, 79, 127
1, 10416, Note_on_c, 1, 74, 127
1, 10416, Note_on_c, 1, 59, 127
1, 10428, Note_off_c, 1, 59, 0
1, 10428, Note_on_c, 1, 57, 127
1, 10439, Note_off_c, 1, 74, 0
1, 10440, Note_off_c, 1, 57, 0
1, 10440, Note_on_c, 1, 55, 127
1, 10463, Note_off_c, 1, 55, 0
1, 10464, Note_on_c, 1, 73, 127
1, 10487, Note_off_c, 1, 73, 0
1, 10488, Note_on_c, 1, 71, 127
1, 10505, Note_off_c, 1, 79, 0
1, 10511, Note_off_c, 1, 71, 0
1, 10512, Note_on_c, 1, 78, 127
1, 10512, Note_on_c, 1, 73, 127
1, 10512, Note_on_c, 1, 57, 127
1, 10524, Note_off_c, 1, 57, 0
1, 10524, Note_on_c, 1, 55, 127
1, 10535, Note_off_c, 1, 73, 0
1, 10536, Note_off_c, 1, 55, 0
1, 10536, Note_on_c, 1, 54, 127
1, 10559, Note_off_c, 1, 54, 0
1, 10560, Note_on_c, 1, 71, 127
1, 10583, Note_off_c, 1, 71, 0
1, 10584, Note_on_c, 1, 69, 127
1, 10601, Note_off_c, 1, 78, 0
1, 10607, Note_off_c, 1, 69, 0
1, 10608, Note_on_c, 1, 76, 127
1, 10608, Note_on_c, 1, 71, 127
1, 10608, Note_on_c, 1, 55, 127
1, 10620, Note_off_c, 1, 55, 0
1, 10620, Note_on_c, 1, 54, 127
1, 10631, Note_off_c, 1, 71, 0
1, 10632, Note_off_c, 1, 54, 0
1, 10632, Note_on_c, 1, 52, 127
1, 10655, Note_off_c, 1, 76, 0
1, 10655, Note_off_c, 1, 52, 0
1, 10656, Note_on_c, 1, 81, 127
1, 10656, Note_on_c, 1, 74, 127
1, 10656, Note_on_c, 1, 54, 127
1, 10679, Note_off_c, 1, 74, 0
1, 10680, Note_on_c, 1, 73, 127
1, 10701, Note_off_c, 1, 81, 0
1, 10701, Note_off_c, 1, 54, 0
1, 10703, Note_off_c, 1, 73, 0
1, 10704, Note_on_c, 1, 76, 127
1, 10704, Note_on_c, 1, 71, 127
1, 10704, Note_on_c, 1, 55, 127
1, 10716, Note_off_c, 1, 55, 0
1, 10716, Note_on_c, 1, 54, 127
1, 10727, Note_off_c, 1, 71, 0
1, 10728, Note_off_c, 1, 54, 0
1, 10728, Note_on_c, 1, 52, 127
1, 10751, Note_off_c, 1, 52, 0
1, 10752, Note_on_c, 1, 69, 127
1, 10775, Note_off_c, 1, 69, 0
1, 10776, Note_on_c, 1, 67, 127
1, 10793, Note_off_c, 1, 76, 0
1, 10799, Note_off_c, 1, 67, 0
1, 10800, Note_on_c, 1, 74, 127
1, 10800, Note_on_c, 1, 69, 127
1, 10800, Note_on_c, 1, 54, 127
1, 10812, Note_off_c, 1, 54, 0
1, 10812, Note_on_c, 1, 52, 127
1, 10823, Note_off_c, 1, 69, 0
1, 10824, Note_off_c, 1, 52, 0
1, 10824, Note_on_c, 1, 50, 127
1, 10847, Note_off_c, 1, 50, 0
1, 10848, Note_on_c, 1, 67, 127
1, 10871, Note_off_c, 1, 67, 0
1, 10872, Note_on_c, 1, 66, 127
1, 10889, Note_off_c, 1, 74, 0
1, 10895, Note_off_c, 1, 66, 0
1, 10896, Note_on_c, 1, 73, 127
1, 10896, Note_on_c, 1, 67, 127
1, 10896, Note_on_c, 1, 52, 127
1, 10908, Note_off_c, 1, 52, 0
1, 10908, Note_on_c, 1, 50, 127
1, 10919, Note_off_c, 1, 67, 0
1, 10920, Note_off_c, 1, 50, 0
1, 10920, Note_on_c, 1, 49, 127
1, 10943, Note_off_c, 1, 73, 0
1, 10943, Note_off_c, 1, 49, 0
1, 10944, Note_on_c, 1, 78, 127
1, 10944, Note_on_c, 1, 66, 127
1, 10944, Note_on_c, 1, 50, 127
1, 10967, Note_off_c, 1, 78, 0
1, 10967, Note_off_c, 1, 50, 0
1, 10968, Note_on_c, 1, 76, 127
1, 10968, Note_on_c, 1, 49, 127
1, 10989, Note_off_c, 1, 66, 0
1, 10991, Note_off_c, 1, 76, 0
1, 10991, Note_off_c, 1, 49, 0
1, 10992, Note_on_c, 1, 74, 127
1, 10992, Note_on_c, 1, 66, 127
1, 10992, Note_on_c, 1, 47, 127
1, 11015, Note_off_c, 1, 74, 0
1, 11015, Note_off_c, 1, 47, 0
1, 11016, Note_on_c, 1, 73, 127
1, 11016, Note_on_c, 1, 49, 127
1, 11037, Note_off_c, 1, 66, 0
1, 11039, Note_off_c, 1, 73, 0
1, 11039, Note_off_c, 1, 49, 0
1, 11040, Note_on_c, 1, 71, 127
1, 11040, Note_on_c, 1, 66, 127
1, 11040, Note_on_c, 1, 50, 127
1, 11063, Note_off_c, 1, 71, 0
1, 11063, Note_off_c, 1, 50, 0
1, 11064, Note_on_c, 1, 73, 127
1, 11064, Note_on_c, 1, 54, 127
1, 11085, Note_off_c, 1, 66, 0
1, 11087, Note_off_c, 1, 73, 0
1, 11087, Note_off_c, 1, 54, 0
1, 11088, Note_on_c, 1, 74, 127
1, 11088, Note_on_c, 1, 66, 127
1, 11088, Note_on_c, 1, 59, 127
1, 11111, Note_off_c, 1, 74, 0
1, 11111, Note_off_c, 1, 59, 0
1, 11112, Note_on_c, 1, 76, 127
1, 11112, Note_on_c, 1, 54, 127
1, 11133, Note_off_c, 1, 66, 0
1, 11135, Note_off_c, 1, 76, 0
1, 11135, Note_off_c, 1, 54, 0
1, 11136, Note_on_c, 1, 78, 127
1, 11136, Note_on_c, 1, 66, 127
1, 11136, Note_on_c, 1, 50, 127
1, 11159, Note_off_c, 1, 50, 0
1, 11160, Note_on_c, 1, 54, 127
1, 11181, Note_off_c, 1, 78, 0
1, 11181, Note_off_c, 1, 66, 0
1, 11183, Note_off_c, 1, 54, 0
1, 11184, Note_on_c, 1, 82, 127
1, 11184, Note_on_c, 1, 66, 127
1, 11184, Note_on_c, 1, 49, 127
1, 11207, Note_off_c, 1, 49, 0
1, 11208, Note_on_c, 1, 54, 127
1, 11229, Note_off_c, 1, 82, 0
1, 11229, Note_off_c, 1, 66, 0
1, 11231, Note_off_c, 1, 54, 0
1, 11232, Note_on_c, 1, 83, 127
1, 11232, Note_on_c, 1, 66, 127
1, 11232, Note_on_c, 1, 50, 127
1, 11255, Note_off_c, 1, 50, 0
1, 11256, Note_on_c, 1, 49, 127
1, 11277, Note_off_c, 1, 83, 0
1, 11277, Note_off_c, 1, 66, 0
1, 11279, Note_off_c, 1, 49, 0
1, 11280, Note_on_c, 1, 78, 127
1, 11280, Note_on_c, 1, 71, 127
1, 11280, Note_on_c, 1, 47, 127
1, 11303, Note_off_c, 1, 71, 0
1, 11303, Note_off_c, 1, 47, 0
1, 11304, Note_on_c, 1, 70, 127
1, 11304, Note_on_c, 1, 49, 127
1, 11325, Note_off_c, 1, 78, 0
1, 11327, Note_off_c, 1, 70, 0
1, 11327, Note_off_c, 1, 49, 0
1, 11328, Note_on_c, 1, 74, 127
1, 11328, Note_on_c, 1, 71, 127
1, 11328, Note_on_c, 1, 50, 127
1, 11351, Note_off_c, 1, 50, 0
1, 11352, Note_on_c, 1, 54, 127
1, 11373, Note_off_c, 1, 74, 0
1, 11373, Note_off_c, 1, 71, 0
1, 11375, Note_off_c, 1, 54, 0
1, 11376, Note_on_c, 1, 78, 127
1, 11376, Note_on_c, 1, 66, 127
1, 11376, Note_on_c, 1, 59, 127
1, 11399, Note_off_c, 1, 59, 0
1, 11400, Note_on_c, 1, 54, 127
1, 11421, Note_off_c, 1, 78, 0
1, 11421, Note_off_c, 1, 66, 0
1, 11423, Note_off_c, 1, 54, 0
1, 11424, Note_on_c, 1, 83, 127
1, 11424, Note_on_c, 1, 66, 127
1, 11424, Note_on_c, 1, 52, 127
1, 11447, Note_off_c, 1, 52, 0
1, 11448, Note_on_c, 1, 50, 127
1, 11469, Note_off_c, 1, 66, 0
1, 11471, Note_off_c, 1, 50, 0
1, 11472, Note_on_c, 1, 49, 127
1, 11491, Note_off_c, 1, 83, 0
1, 11495, Note_off_c, 1, 49, 0
1, 11496, Note_on_c, 1, 82, 127
1, 11496, Note_on_c, 1, 47, 127
1, 11508, Note_off_c, 1, 82, 0
1, 11519, Note_off_c, 1, 47, 0
1, 11520, Note_on_c, 1, 85, 127
1, 11520, Note_on_c, 1, 46, 127
1, 11543, Note_off_c, 1, 85, 0
1, 11543, Note_off_c, 1, 46, 0
1, 11544, Note_on_c, 1, 44, 127
1, 11567, Note_off_c, 1, 44, 0
1, 11568, Note_on_c, 1, 82, 127
1, 11568, Note_on_c, 1, 73, 127
1, 11568, Note_on_c, 1, 42, 127
1, 11591, Note_off_c, 1, 82, 0
1, 11591, Note_off_c, 1, 73, 0
1, 11591, Note_off_c, 1, 42, 0
1, 11592, Note_on_c, 1, 80, 127
1, 11592, Note_on_c, 1, 71, 127
1, 11592, Note_on_c, 1, 44, 127
1, 11615, Note_off_c, 1, 80, 0
1, 11615, Note_off_c, 1, 71, 0
1, 11615, Note_off_c, 1, 44, 0
1, 11616, Note_on_c, 1, 78, 127
1, 11616, Note_on_c, 1, 73, 127
1, 11616, Note_on_c, 1, 46, 127
1, 11639, Note_off_c, 1, 78, 0
1, 11639, Note_off_c, 1, 46, 0
1, 11640, Note_on_c, 1, 80, 127
1, 11640, Note_on_c, 1, 47, 127
1, 11661, Note_off_c, 1, 73, 0
1, 11663, Note_off_c, 1, 80, 0
1, 11663, Note_off_c, 1, 47, 0
1, 11664, Note_on_c, 1, 82, 127
1, 11664, Note_on_c, 1, 66, 127
1, 11664, Note_on_c, 1, 49, 127
1, 11687, Note_off_c, 1, 82, 0
1, 11687, Note_off_c, 1, 49, 0
1, 11688, Note_on_c, 1, 83, 127
1, 11688, Note_on_c, 1, 50, 127
1, 11709, Note_off_c, 1, 66, 0
1, 11711, Note_off_c, 1, 83, 0
1, 11711, Note_off_c, 1, 50, 0
1, 11712, Note_on_c, 1, 85, 127
1, 11712, Note_on_c, 1, 66, 127
1, 11712, Note_on_c, 1, 52, 127
1, 11735, Note_off_c, 1, 85, 0
1, 11735, Note_off_c, 1, 52, 0
1, 11736, Note_on_c, 1, 83, 127
1, 11736, Note_on_c, 1, 50, 127
1, 11757, Note_off_c, 1, 66, 0
1, 11759, Note_off_c, 1, 83, 0
1, 11759, Note_off_c, 1, 50, 0
1, 11760, Note_on_c, 1, 85, 127
1, 11760, Note_on_c, 1, 66, 127
1, 11760, Note_on_c, 1, 52, 127
1, 11783, Note_off_c, 1, 85, 0
1, 11783, Note_off_c, 1, 52, 0
1, 11784, Note_on_c, 1, 82, 127
1, 11784, Note_on_c, 1, 49, 127
1, 11805, Note_off_c, 1, 66, 0
1, 11807, Note_off_c, 1, 82, 0
1, 11807, Note_off_c, 1, 49, 0
1, 11808, Note_on_c, 1, 83, 127
1, 11808, Note_on_c, 1, 66, 127
1, 11808, Note_on_c, 1, 50, 127
1, 11831, Note_off_c, 1, 50, 0
1, 11832, Note_on_c, 1, 49, 127
1, 11853, Note_off_c, 1, 83, 0
1, 11853, Note_off_c, 1, 66, 0
1, 11855, Note_off_c, 1, 49, 0
1, 11856, Note_on_c, 1, 79, 127
1, 11856, Note_on_c, 1, 74, 127
1, 11856, Note_on_c, 1, 47, 127
1, 11868, Note_off_c, 1, 74, 0
1, 11868, Note_on_c, 1, 73, 127
1, 11879, Note_off_c, 1, 47, 0
1, 11880, Note_off_c, 1, 73, 0
1, 11880, Note_on_c, 1, 71, 127
1, 11880, Note_on_c, 1, 55, 127
1, 11903, Note_off_c, 1, 71, 0
1, 11903, Note_off_c, 1, 55, 0
1, 11904, Note_on_c, 1, 45, 127
1, 11927, Note_off_c, 1, 45, 0
1, 11928, Note_on_c, 1, 54, 127
1, 11945, Note_off_c, 1, 79, 0
1, 11951, Note_off_c, 1, 54, 0
1, 11952, Note_on_c, 1, 78, 127
1, 11952, Note_on_c, 1, 73, 127
1, 11952, Note_on_c, 1, 52, 127
1, 11964, Note_off_c, 1, 73, 0
1, 11964, Note_on_c, 1, 71, 127
1, 11975, Note_off_c, 1, 52, 0
1, 11976, Note_off_c, 1, 71, 0
1, 11976, Note_on_c, 1, 70, 127
1, 11976, Note_on_c, 1, 54, 127
1, 11999, Note_off_c, 1, 70, 0
1, 11999, Note_off_c, 1, 54, 0
1, 12000, Note_on_c, 1, 43, 127
1, 12023, Note_off_c, 1, 43, 0
1, 12041, Note_off_c, 1, 78, 0
1, 12048, Note_on_c, 1, 76, 127
1, 12048, Note_on_c, 1, 71, 127
1, 12048, Note_on_c, 1, 50, 127
1, 12060, Note_off_c, 1, 71, 0
1, 12060, Note_on_c, 1, 70, 127
1, 12071, Note_off_c, 1, 50, 0
1, 12072, Note_off_c, 1, 70, 0
1, 12072, Note_on_c, 1, 68, 127
1, 12072, Note_on_c, 1, 52, 127
1, 12095, Note_off_c, 1, 68, 0
1, 12095, Note_off_c, 1, 52, 0
1, 12096, Note_on_c, 1, 42, 127
1, 12119, Note_off_c, 1, 76, 0
1, 12120, Note_on_c, 1, 79, 127
1, 12143, Note_off_c, 1, 79, 0
1, 12144, Note_on_c, 1, 78, 127
1, 12167, Note_off_c, 1, 78, 0
1, 12192, Note_on_c, 1, 85, 127
1, 12215, Note_off_c, 1, 85, 0
1, 12216, Note_on_c, 1, 83, 127
1, 12229, Note_off_c, 1, 42, 0
1, 12239, Note_off_c, 1, 83, 0
1, 12240, Note_on_c, 1, 82, 127
1, 12240, Note_on_c, 1, 66, 127
1, 12240, Note_on_c, 1, 52, 127
1, 12263, Note_off_c, 1, 82, 0
1, 12264, Note_on_c, 1, 80, 127
1, 12285, Note_off_c, 1, 66, 0
1, 12285, Note_off_c, 1, 52, 0
1, 12287, Note_off_c, 1, 80, 0
1, 12288, Note_on_c, 1, 78, 127
1, 12288, Note_on_c, 1, 71, 127
1, 12288, Note_on_c, 1, 50, 127
1, 12311, Note_off_c, 1, 78, 0
1, 12312, Note_on_c, 1, 76, 127
1, 12333, Note_off_c, 1, 50, 0
1, 12335, Note_off_c, 1, 76, 0
1, 12336, Note_on_c, 1, 74, 127
1, 12336, Note_on_c, 1, 49, 127
1, 12359, Note_off_c, 1, 74, 0
1, 12360, Note_on_c, 1, 73, 127
1, 12381, Note_off_c, 1, 49, 0
1, 12383, Note_off_c, 1, 73, 0
1, 12384, Note_on_c, 1, 55, 127
1, 12408, Note_on_c, 1, 70, 127
1, 12429, Note_off_c, 1, 71, 0
1, 12429, Note_off_c, 1, 55, 0
1, 12431, Note_off_c, 1, 70, 0
1, 12432, Note_on_c, 1, 71, 127
1, 12432, Note_on_c, 1, 79, 127
1, 12432, Note_on_c, 1, 52, 127
1, 12455, Note_off_c, 1, 71, 0
1, 12456, Note_on_c, 1, 76, 127
1, 12477, Note_off_c, 1, 79, 0
1, 12477, Note_off_c, 1, 52, 0
1, 12479, Note_off_c, 1, 76, 0
1, 12480, Note_on_c, 1, 73, 127
1, 12480, Note_on_c, 1, 70, 127
1, 12480, Note_on_c, 1, 54, 127
1, 12525, Note_off_c, 1, 54, 0
1, 12528, Note_on_c, 1, 52, 127
1, 12573, Note_off_c, 1, 52, 0
1, 12613, Note_off_c, 1, 73, 0
1, 12613, Note_off_c, 1, 70, 0
1, 12624, Note_on_c, 1, 71, 127
1, 12624, Note_on_c, 1, 42, 127
1, 12669, Note_off_c, 1, 71, 0
1, 12669, Note_off_c, 1, 42, 0
1, 12672, Note_on_c, 1, 71, 127
1, 12672, Note_on_c, 1, 47, 127
1, 12696, Note_on_c, 1, 66, 127
1, 12719, Note_off_c, 1, 66, 0
1, 12720, Note_on_c, 1, 68, 127
1, 12743, Note_off_c, 1, 68, 0
1, 12744, Note_on_c, 1, 70, 127
1, 12761, Note_off_c, 1, 71, 0
1, 12761, Note_off_c, 1, 47, 0
1, 12767, Note_off_c, 1, 70, 0
1, 12768, Note_on_c, 1, 71, 127
1, 12791, Note_off_c, 1, 71, 0
1, 12792, Note_on_c, 1, 73, 127
1, 12815, Note_off_c, 1, 73, 0
1, 12816, Note_on_c, 1, 71, 127
1, 12816, Note_on_c, 1, 74, 127
1, 12816, Note_on_c, 1, 59, 127
1, 12839, Note_off_c, 1, 71, 0
1, 12839, Note_off_c, 1, 74, 0
1, 12840, Note_on_c, 1, 73, 127
1, 12840, Note_on_c, 1, 76, 127
1, 12861, Note_off_c, 1, 59, 0
1, 12863, Note_off_c, 1, 73, 0
1, 12863, Note_off_c, 1, 76, 0
1, 12864, Note_on_c, 1, 74, 127
1, 12864, Note_on_c, 1, 78, 127
1, 12864, Note_on_c, 1, 57, 127
1, 12887, Note_off_c, 1, 74, 0
1, 12887, Note_off_c, 1, 78, 0
1, 12888, Note_on_c, 1, 76, 127
1, 12888, Note_on_c, 1, 71, 127
1, 12909, Note_off_c, 1, 57, 0
1, 12911, Note_off_c, 1, 76, 0
1, 12911, Note_off_c, 1, 71, 0
1, 12912, Note_on_c, 1, 76, 127
1, 12912, Note_on_c, 1, 83, 127
1, 12912, Note_on_c, 1, 55, 127
1, 12918, Note_off_c, 1, 76, 0
1, 12918, Note_on_c, 1, 78, 127
1, 12924, Note_off_c, 1, 78, 0
1, 12936, Note_on_c, 1, 74, 127
1, 12948, Note_off_c, 1, 74, 0
1, 12957, Note_off_c, 1, 83, 0
1, 12957, Note_off_c, 1, 55, 0
1, 12960, Note_on_c, 1, 82, 127
1, 12960, Note_on_c, 1, 54, 127
1, 13225, Note_off_c, 1, 82, 0
1, 13225, Note_off_c, 1, 54, 0
1, 13248, Note_on_c, 1, 81, 127
1, 13248, Note_on_c, 1, 54, 127
1, 13271, Note_off_c, 1, 81, 0
1, 13272, Note_on_c, 1, 79, 127
1, 13295, Note_off_c, 1, 79, 0
1, 13296, Note_on_c, 1, 78, 127
1, 13319, Note_off_c, 1, 78, 0
1, 13337, Note_off_c, 1, 54, 0
1, 13344, Note_on_c, 1, 81, 127
1, 13368, Note_on_c, 1, 83, 127
1, 13389, Note_off_c, 1, 81, 0
1, 13391, Note_off_c, 1, 83, 0
1, 13392, Note_on_c, 1, 81, 127
1, 13392, Note_on_c, 1, 84, 127
1, 13392, Note_on_c, 1, 57, 127
1, 13415, Note_off_c, 1, 84, 0
1, 13415, Note_off_c, 1, 57, 0
1, 13416, Note_on_c, 1, 83, 127
1, 13416, Note_on_c, 1, 55, 127
1, 13437, Note_off_c, 1, 81, 0
1, 13439, Note_off_c, 1, 83, 0
1, 13439, Note_off_c, 1, 55, 0
1, 13440, Note_on_c, 1, 81, 127
1, 13440, Note_on_c, 1, 54, 127
1, 13464, Note_on_c, 1, 84, 127
1, 13485, Note_off_c, 1, 81, 0
1, 13485, Note_off_c, 1, 54, 0
1, 13487, Note_off_c, 1, 84, 0
1, 13488, Note_on_c, 1, 81, 127
1, 13488, Note_on_c, 1, 79, 127
1, 13488, Note_on_c, 1, 52, 127
1, 13511, Note_off_c, 1, 79, 0
1, 13512, Note_on_c, 1, 84, 127
1, 13533, Note_off_c, 1, 81, 0
1, 13533, Note_off_c, 1, 52, 0
1, 13535, Note_off_c, 1, 84, 0
1, 13536, Note_on_c, 1, 81, 127
1, 13536, Note_on_c, 1, 78, 127
1, 13536, Note_on_c, 1, 51, 127
1, 13559, Note_off_c, 1, 78, 0
1, 13560, Note_on_c, 1, 76, 127
1, 13581, Note_off_c, 1, 81, 0
1, 13583, Note_off_c, 1, 76, 0
1, 13584, Note_on_c, 1, 84, 127
1, 13584, Note_on_c, 1, 75, 127
1, 13607, Note_off_c, 1, 84, 0
1, 13607, Note_off_c, 1, 75, 0
1, 13608, Note_on_c, 1, 83, 127
1, 13625, Note_off_c, 1, 51, 0
1, 13631, Note_off_c, 1, 83, 0
1, 13632, Note_on_c, 1, 81, 127
1, 13632, Note_on_c, 1, 78, 127
1, 13655, Note_off_c, 1, 78, 0
1, 13656, Note_on_c, 1, 79, 127
1, 13677, Note_off_c, 1, 81, 0
1, 13679, Note_off_c, 1, 79, 0
1, 13680, Note_on_c, 1, 81, 127
1, 13680, Note_on_c, 1, 54, 127
1, 13703, Note_off_c, 1, 54, 0
1, 13704, Note_on_c, 1, 79, 127
1, 13704, Note_on_c, 1, 52, 127
1, 13725, Note_off_c, 1, 81, 0
1, 13727, Note_off_c, 1, 79, 0
1, 13727, Note_off_c, 1, 52, 0
1, 13728, Note_on_c, 1, 81, 127
1, 13728, Note_on_c, 1, 78, 127
1, 13728, Note_on_c, 1, 51, 127
1, 13751, Note_off_c, 1, 78, 0
1, 13773, Note_off_c, 1, 51, 0
1, 13775, Note_off_c, 1, 81, 0
1, 13776, Note_on_c, 1, 81, 127
1, 13776, Note_on_c, 1, 76, 127
1, 13776, Note_on_c, 1, 49, 127
1, 13799, Note_off_c, 1, 76, 0
1, 13821, Note_off_c, 1, 49, 0
1, 13823, Note_off_c, 1, 81, 0
1, 13824, Note_on_c, 1, 81, 127
1, 13824, Note_on_c, 1, 75, 127
1, 13824, Note_on_c, 1, 47, 127
1, 13847, Note_off_c, 1, 75, 0
1, 13848, Note_on_c, 1, 76, 127
1, 13869, Note_off_c, 1, 81, 0
1, 13869, Note_off_c, 1, 47, 0
1, 13871, Note_off_c, 1, 76, 0
1, 13872, Note_on_c, 1, 78, 127
1, 13872, Note_on_c, 1, 57, 127
1, 13895, Note_off_c, 1, 78, 0
1, 13896, Note_on_c, 1, 79, 127
1, 13896, Note_on_c, 1, 76, 127
1, 13917, Note_off_c, 1, 57, 0
1, 13919, Note_off_c, 1, 79, 0
1, 13919, Note_off_c, 1, 76, 0
1, 13920, Note_on_c, 1, 81, 127
1, 13920, Note_on_c, 1, 75, 127
1, 13920, Note_on_c, 1, 54, 127
1, 13943, Note_off_c, 1, 75, 0
1, 13944, Note_on_c, 1, 73, 127
1, 13965, Note_off_c, 1, 81, 0
1, 13965, Note_off_c, 1, 54, 0
1, 13967, Note_off_c, 1, 73, 0
1, 13968, Note_on_c, 1, 79, 127
1, 13968, Note_on_c, 1, 71, 127
1, 13968, Note_on_c, 1, 51, 127
1, 13991, Note_off_c, 1, 79, 0
1, 13991, Note_off_c, 1, 71, 0
1, 13992, Note_on_c, 1, 81, 127
1, 13992, Note_on_c, 1, 69, 127
1, 14013, Note_off_c, 1, 51, 0
1, 14015, Note_off_c, 1, 81, 0
1, 14015, Note_off_c, 1, 69, 0
1, 14016, Note_on_c, 1, 83, 127
1, 14016, Note_on_c, 1, 67, 127
1, 14016, Note_on_c, 1, 47, 127
1, 14039, Note_off_c, 1, 67, 0
1, 14040, Note_on_c, 1, 66, 127
1, 14061, Note_off_c, 1, 83, 0
1, 14061, Note_off_c, 1, 47, 0
1, 14063, Note_off_c, 1, 66, 0
1, 14064, Note_on_c, 1, 78, 127
1, 14064, Note_on_c, 1, 64, 127
1, 14064, Note_on_c, 1, 59, 127
1, 14087, Note_off_c, 1, 64, 0
1, 14088, Note_on_c, 1, 63, 127
1, 14109, Note_off_c, 1, 78, 0
1, 14109, Note_off_c, 1, 59, 0
1, 14111, Note_off_c, 1, 63, 0
1, 14112, Note_on_c, 1, 79, 127
1, 14112, Note_on_c, 1, 62, 127
1, 14112, Note_on_c, 1, 52, 127
1, 14135, Note_off_c, 1, 79, 0
1, 14136, Note_on_c, 1, 78, 127
1, 14157, Note_off_c, 1, 62, 0
1, 14159, Note_off_c, 1, 78, 0
1, 14160, Note_on_c, 1, 76, 127
1, 14183, Note_off_c, 1, 76, 0
1, 14201, Note_off_c, 1, 52, 0
1, 14208, Note_on_c, 1, 79, 127
1, 14232, Note_on_c, 1, 81, 127
1, 14253, Note_off_c, 1, 79, 0
1, 14255, Note_off_c, 1, 81, 0
1, 14256, Note_on_c, 1, 83, 127
1, 14256, Note_on_c, 1, 79, 127
1, 14256, Note_on_c, 1, 55, 127
1, 14279, Note_off_c, 1, 83, 0
1, 14279, Note_off_c, 1, 55, 0
1, 14280, Note_on_c, 1, 81, 127
1, 14280, Note_on_c, 1, 54, 127
1, 14301, Note_off_c, 1, 79, 0
1, 14303, Note_off_c, 1, 81, 0
1, 14303, Note_off_c, 1, 54, 0
1, 14304, Note_on_c, 1, 79, 127
1, 14304, Note_on_c, 1, 52, 127
1, 14328, Note_on_c, 1, 83, 127
1, 14349, Note_off_c, 1, 79, 0
1, 14349, Note_off_c, 1, 52, 0
1, 14351, Note_off_c, 1, 83, 0
1, 14352, Note_on_c, 1, 78, 127
1, 14352, Note_on_c, 1, 79, 127
1, 14352, Note_on_c, 1, 50, 127
1, 14375, Note_off_c, 1, 78, 0
1, 14376, Note_on_c, 1, 83, 127
1, 14397, Note_off_c, 1, 79, 0
1, 14397, Note_off_c, 1, 50, 0
1, 14399, Note_off_c, 1, 83, 0
1, 14400, Note_on_c, 1, 76, 127
1, 14400, Note_on_c, 1, 79, 127
1, 14400, Note_on_c, 1, 49, 127
1, 14423, Note_off_c, 1, 76, 0
1, 14424, Note_on_c, 1, 74, 127
1, 14445, Note_off_c, 1, 79, 0
1, 14447, Note_off_c, 1, 74, 0
1, 14448, Note_on_c, 1, 73, 127
1, 14448, Note_on_c, 1, 83, 127
1, 14471, Note_off_c, 1, 73, 0
1, 14471, Note_off_c, 1, 83, 0
1, 14472, Note_on_c, 1, 81, 127
1, 14489, Note_off_c, 1, 49, 0
1, 14495, Note_off_c, 1, 81, 0
1, 14496, Note_on_c, 1, 76, 127
1, 14496, Note_on_c, 1, 79, 127
1, 14519, Note_off_c, 1, 76, 0
1, 14520, Note_on_c, 1, 78, 127
1, 14541, Note_off_c, 1, 79, 0
1, 14543, Note_off_c, 1, 78, 0
1, 14544, Note_on_c, 1, 79, 127
1, 14544, Note_on_c, 1, 52, 127
1, 14567, Note_off_c, 1, 52, 0
1, 14568, Note_on_c, 1, 78, 127
1, 14568, Note_on_c, 1, 50, 127
1, 14589, Note_off_c, 1, 79, 0
1, 14591, Note_off_c, 1, 78, 0
1, 14591, Note_off_c, 1, 50, 0
1, 14592, Note_on_c, 1, 76, 127
1, 14592, Note_on_c, 1, 79, 127
1, 14592, Note_on_c, 1, 49, 127
1, 14615, Note_off_c, 1, 76, 0
1, 14637, Note_off_c, 1, 49, 0
1, 14639, Note_off_c, 1, 79, 0
1, 14640, Note_on_c, 1, 74, 127
1, 14640, Note_on_c, 1, 79, 127
1, 14640, Note_on_c, 1, 47, 127
1, 14663, Note_off_c, 1, 74, 0
1, 14685, Note_off_c, 1, 47, 0
1, 14687, Note_off_c, 1, 79, 0
1, 14688, Note_on_c, 1, 73, 127
1, 14688, Note_on_c, 1, 79, 127
1, 14688, Note_on_c, 1, 45, 127
1, 14711, Note_off_c, 1, 73, 0
1, 14712, Note_on_c, 1, 74, 127
1, 14733, Note_off_c, 1, 79, 0
1, 14733, Note_off_c, 1, 45, 0
1, 14735, Note_off_c, 1, 74, 0
1, 14736, Note_on_c, 1, 76, 127
1, 14736, Note_on_c, 1, 55, 127
1, 14759, Note_off_c, 1, 76, 0
1, 14760, Note_on_c, 1, 74, 127
1, 14760, Note_on_c, 1, 78, 127
1, 14781, Note_off_c, 1, 55, 0
1, 14783, Note_off_c, 1, 74, 0
1, 14783, Note_off_c, 1, 78, 0
1, 14784, Note_on_c, 1, 73, 127
1, 14784, Note_on_c, 1, 79, 127
1, 14784, Note_on_c, 1, 52, 127
1, 14807, Note_off_c, 1, 73, 0
1, 14808, Note_on_c, 1, 71, 127
1, 14829, Note_off_c, 1, 79, 0
1, 14829, Note_off_c, 1, 52, 0
1, 14831, Note_off_c, 1, 71, 0
1, 14832, Note_on_c, 1, 69, 127
1, 14832, Note_on_c, 1, 78, 127
1, 14832, Note_on_c, 1, 49, 127
1, 14855, Note_off_c, 1, 69, 0
1, 14855, Note_off_c, 1, 78, 0
1, 14856, Note_on_c, 1, 67, 127
1, 14856, Note_on_c, 1, 79, 127
1, 14877, Note_off_c, 1, 49, 0
1, 14879, Note_off_c, 1, 67, 0
1, 14879, Note_off_c, 1, 79, 0
1, 14880, Note_on_c, 1, 66, 127
1, 14880, Note_on_c, 1, 81, 127
1, 14880, Note_on_c, 1, 45, 127
1, 14903, Note_off_c, 1, 66, 0
1, 14904, Note_on_c, 1, 64, 127
1, 14925, Note_off_c, 1, 81, 0
1, 14925, Note_off_c, 1, 45, 0
1, 14927, Note_off_c, 1, 64, 0
1, 14928, Note_on_c, 1, 62, 127
1, 14928, Note_on_c, 1, 76, 127
1, 14928, Note_on_c, 1, 57, 127
1, 14951, Note_off_c, 1, 62, 0
1, 14952, Note_on_c, 1, 61, 127
1, 14973, Note_off_c, 1, 76, 0
1, 14973, Note_off_c, 1, 57, 0
1, 14975, Note_off_c, 1, 61, 0
1, 14976, Note_on_c, 1, 62, 127
1, 14976, Note_on_c, 1, 78, 127
1, 14976, Note_on_c, 1, 50, 127
1, 14999, Note_off_c, 1, 78, 0
1, 15000, Note_on_c, 1, 76, 127
1, 15021, Note_off_c, 1, 62, 0
1, 15021, Note_off_c, 1, 50, 0
1, 15023, Note_off_c, 1, 76, 0
1, 15024, Note_on_c, 1, 78, 127
1, 15024, Note_on_c, 1, 74, 127
1, 15024, Note_on_c, 1, 50, 127
1, 15047, Note_off_c, 1, 78, 0
1, 15047, Note_off_c, 1, 74, 0
1, 15048, Note_on_c, 1, 79, 127
1, 15048, Note_on_c, 1, 76, 127
1, 15069, Note_off_c, 1, 50, 0
1, 15071, Note_off_c, 1, 79, 0
1, 15071, Note_off_c, 1, 76, 0
1, 15072, Note_on_c, 1, 81, 127
1, 15072, Note_on_c, 1, 78, 127
1, 15072, Note_on_c, 1, 50, 127
1, 15095, Note_off_c, 1, 81, 0
1, 15095, Note_off_c, 1, 78, 0
1, 15096, Note_on_c, 1, 79, 127
1, 15117, Note_off_c, 1, 50, 0
1, 15119, Note_off_c, 1, 79, 0
1, 15120, Note_on_c, 1, 78, 127
1, 15120, Note_on_c, 1, 81, 127
1, 15120, Note_on_c, 1, 50, 127
1, 15143, Note_off_c, 1, 78, 0
1, 15143, Note_off_c, 1, 81, 0
1, 15144, Note_on_c, 1, 76, 127
1, 15144, Note_on_c, 1, 79, 127
1, 15165, Note_off_c, 1, 50, 0
1, 15167, Note_off_c, 1, 76, 0
1, 15167, Note_off_c, 1, 79, 0
1, 15168, Note_on_c, 1, 74, 127
1, 15168, Note_on_c, 1, 78, 127
1, 15168, Note_on_c, 1, 50, 127
1, 15191, Note_off_c, 1, 78, 0
1, 15192, Note_on_c, 1, 81, 127
1, 15213, Note_off_c, 1, 74, 0
1, 15213, Note_off_c, 1, 50, 0
1, 15215, Note_off_c, 1, 81, 0
1, 15216, Note_on_c, 1, 73, 127
1, 15216, Note_on_c, 1, 76, 127
1, 15216, Note_on_c, 1, 50, 127
1, 15239, Note_off_c, 1, 76, 0
1, 15240, Note_on_c, 1, 81, 127
1, 15261, Note_off_c, 1, 73, 0
1, 15261, Note_off_c, 1, 50, 0
1, 15263, Note_off_c, 1, 81, 0
1, 15264, Note_on_c, 1, 71, 127
1, 15264, Note_on_c, 1, 74, 127
1, 15264, Note_on_c, 1, 50, 127
1, 15287, Note_off_c, 1, 74, 0
1, 15288, Note_on_c, 1, 73, 127
1, 15309, Note_off_c, 1, 71, 0
1, 15309, Note_off_c, 1, 50, 0
1, 15311, Note_off_c, 1, 73, 0
1, 15312, Note_on_c, 1, 74, 127
1, 15312, Note_on_c, 1, 71, 127
1, 15312, Note_on_c, 1, 54, 127
1, 15335, Note_off_c, 1, 74, 0
1, 15335, Note_off_c, 1, 71, 0
1, 15335, Note_off_c, 1, 54, 0
1, 15336, Note_on_c, 1, 76, 127
1, 15336, Note_on_c, 1, 73, 127
1, 15336, Note_on_c, 1, 52, 127
1, 15359, Note_off_c, 1, 76, 0
1, 15359, Note_off_c, 1, 73, 0
1, 15359, Note_off_c, 1, 52, 0
1, 15360, Note_on_c, 1, 78, 127
1, 15360, Note_on_c, 1, 74, 127
1, 15360, Note_on_c, 1, 50, 127
1, 15383, Note_off_c, 1, 78, 0
1, 15383, Note_off_c, 1, 74, 0
1, 15384, Note_on_c, 1, 76, 127
1, 15405, Note_off_c, 1, 50, 0
1, 15407, Note_off_c, 1, 76, 0
1, 15408, Note_on_c, 1, 74, 127
1, 15408, Note_on_c, 1, 78, 127
1, 15408, Note_on_c, 1, 50, 127
1, 15431, Note_off_c, 1, 74, 0
1, 15431, Note_off_c, 1, 78, 0
1, 15432, Note_on_c, 1, 73, 127
1, 15432, Note_on_c, 1, 76, 127
1, 15453, Note_off_c, 1, 50, 0
1, 15455, Note_off_c, 1, 73, 0
1, 15455, Note_off_c, 1, 76, 0
1, 15456, Note_on_c, 1, 71, 127
1, 15456, Note_on_c, 1, 74, 127
1, 15456, Note_on_c, 1, 50, 127
1, 15479, Note_off_c, 1, 74, 0
1, 15480, Note_on_c, 1, 78, 127
1, 15501, Note_off_c, 1, 71, 0
1, 15501, Note_off_c, 1, 50, 0
1, 15503, Note_off_c, 1, 78, 0
1, 15504, Note_on_c, 1, 69, 127
1, 15504, Note_on_c, 1, 73, 127
1, 15504, Note_on_c, 1, 50, 127
1, 15527, Note_off_c, 1, 73, 0
1, 15528, Note_on_c, 1, 78, 127
1, 15549, Note_off_c, 1, 69, 0
1, 15549, Note_off_c, 1, 50, 0
1, 15551, Note_off_c, 1, 78, 0
1, 15552, Note_on_c, 1, 68, 127
1, 15552, Note_on_c, 1, 71, 127
1, 15552, Note_on_c, 1, 50, 127
1, 15575, Note_off_c, 1, 71, 0
1, 15576, Note_on_c, 1, 73, 127
1, 15597, Note_off_c, 1, 68, 0
1, 15597, Note_off_c, 1, 50, 0
1, 15599, Note_off_c, 1, 73, 0
1, 15600, Note_on_c, 1, 80, 127
1, 15600, Note_on_c, 1, 74, 127
1, 15600, Note_on_c, 1, 47, 127
1, 15623, Note_off_c, 1, 80, 0
1, 15623, Note_off_c, 1, 74, 0
1, 15623, Note_off_c, 1, 47, 0
1, 15624, Note_on_c, 1, 78, 127
1, 15624, Note_on_c, 1, 73, 127
1, 15624, Note_on_c, 1, 49, 127
1, 15647, Note_off_c, 1, 78, 0
1, 15647, Note_off_c, 1, 73, 0
1, 15647, Note_off_c, 1, 49, 0
1, 15648, Note_on_c, 1, 80, 127
1, 15648, Note_on_c, 1, 71, 127
1, 15648, Note_on_c, 1, 50, 127
1, 15671, Note_off_c, 1, 71, 0
1, 15672, Note_on_c, 1, 69, 127
1, 15693, Note_off_c, 1, 80, 0
1, 15693, Note_off_c, 1, 50, 0
1, 15695, Note_off_c, 1, 69, 0
1, 15696, Note_on_c, 1, 83, 127
1, 15696, Note_on_c, 1, 68, 127
1, 15696, Note_on_c, 1, 52, 127
1, 15719, Note_off_c, 1, 68, 0
1, 15719, Note_off_c, 1, 52, 0
1, 15720, Note_on_c, 1, 66, 127
1, 15720, Note_on_c, 1, 54, 127
1, 15741, Note_off_c, 1, 83, 0
1, 15743, Note_off_c, 1, 66, 0
1, 15743, Note_off_c, 1, 54, 0
1, 15744, Note_on_c, 1, 76, 127
1, 15744, Note_on_c, 1, 64, 127
1, 15744, Note_on_c, 1, 56, 127
1, 15767, Note_off_c, 1, 64, 0
1, 15768, Note_on_c, 1, 62, 127
1, 15789, Note_off_c, 1, 76, 0
1, 15789, Note_off_c, 1, 56, 0
1, 15791, Note_off_c, 1, 62, 0
1, 15792, Note_on_c, 1, 80, 127
1, 15792, Note_on_c, 1, 61, 127
1, 15792, Note_on_c, 1, 52, 127
1, 15815, Note_off_c, 1, 61, 0
1, 15816, Note_on_c, 1, 59, 127
1, 15837, Note_off_c, 1, 80, 0
1, 15837, Note_off_c, 1, 52, 0
1, 15839, Note_off_c, 1, 59, 0
1, 15840, Note_on_c, 1, 81, 127
1, 15840, Note_on_c, 1, 61, 127
1, 15840, Note_on_c, 1, 57, 127
1, 15863, Note_off_c, 1, 61, 0
1, 15864, Note_on_c, 1, 64, 127
1, 15885, Note_off_c, 1, 81, 0
1, 15885, Note_off_c, 1, 57, 0
1, 15887, Note_off_c, 1, 64, 0
1, 15888, Note_on_c, 1, 76, 127
1, 15888, Note_on_c, 1, 69, 127
1, 15888, Note_on_c, 1, 45, 127
1, 15911, Note_off_c, 1, 69, 0
1, 15911, Note_off_c, 1, 45, 0
1, 15912, Note_on_c, 1, 68, 127
1, 15912, Note_on_c, 1, 47, 127
1, 15933, Note_off_c, 1, 76, 0
1, 15935, Note_off_c, 1, 68, 0
1, 15935, Note_off_c, 1, 47, 0
1, 15936, Note_on_c, 1, 76, 127
1, 15936, Note_on_c, 1, 69, 127
1, 15936, Note_on_c, 1, 49, 127
1, 15959, Note_off_c, 1, 69, 0
1, 15959, Note_off_c, 1, 49, 0
1, 15960, Note_on_c, 1, 73, 127
1, 15960, Note_on_c, 1, 52, 127
1, 15981, Note_off_c, 1, 76, 0
1, 15983, Note_off_c, 1, 73, 0
1, 15983, Note_off_c, 1, 52, 0
1, 15984, Note_on_c, 1, 76, 127
1, 15984, Note_on_c, 1, 57, 127
1, 16007, Note_off_c, 1, 57, 0
1, 16008, Note_on_c, 1, 73, 127
1, 16008, Note_on_c, 1, 52, 127
1, 16029, Note_off_c, 1, 76, 0
1, 16031, Note_off_c, 1, 73, 0
1, 16031, Note_off_c, 1, 52, 0
1, 16032, Note_on_c, 1, 76, 127
1, 16032, Note_on_c, 1, 69, 127
1, 16032, Note_on_c, 1, 49, 127
1, 16055, Note_off_c, 1, 69, 0
1, 16055, Note_off_c, 1, 49, 0
1, 16056, Note_on_c, 1, 73, 127
1, 16056, Note_on_c, 1, 52, 127
1, 16077, Note_off_c, 1, 76, 0
1, 16079, Note_off_c, 1, 73, 0
1, 16079, Note_off_c, 1, 52, 0
1, 16080, Note_on_c, 1, 76, 127
1, 16080, Note_on_c, 1, 68, 127
1, 16080, Note_on_c, 1, 47, 127
1, 16103, Note_off_c, 1, 68, 0
1, 16103, Note_off_c, 1, 47, 0
1, 16104, Note_on_c, 1, 71, 127
1, 16104, Note_on_c, 1, 52, 127
1, 16125, Note_off_c, 1, 76, 0
1, 16127, Note_off_c, 1, 71, 0
1, 16127, Note_off_c, 1, 52, 0
1, 16128, Note_on_c, 1, 76, 127
1, 16128, Note_on_c, 1, 69, 127
1, 16128, Note_on_c, 1, 49, 127
1, 16151, Note_off_c, 1, 69, 0
1, 16151, Note_off_c, 1, 49, 0
1, 16152, Note_on_c, 1, 71, 127
1, 16152, Note_on_c, 1, 47, 127
1, 16173, Note_off_c, 1, 76, 0
1, 16175, Note_off_c, 1, 71, 0
1, 16175, Note_off_c, 1, 47, 0
1, 16176, Note_on_c, 1, 81, 127
1, 16176, Note_on_c, 1, 73, 127
1, 16176, Note_on_c, 1, 45, 127
1, 16199, Note_off_c, 1, 81, 0
1, 16199, Note_off_c, 1, 73, 0
1, 16199, Note_off_c, 1, 45, 0
1, 16200, Note_on_c, 1, 80, 127
1, 16200, Note_on_c, 1, 74, 127
1, 16200, Note_on_c, 1, 47, 127
1, 16223, Note_off_c, 1, 80, 0
1, 16223, Note_off_c, 1, 74, 0
1, 16223, Note_off_c, 1, 47, 0
1, 16224, Note_on_c, 1, 81, 127
1, 16224, Note_on_c, 1, 76, 127
1, 16224, Note_on_c, 1, 49, 127
1, 16247, Note_off_c, 1, 76, 0
1, 16247, Note_off_c, 1, 49, 0
1, 16248, Note_on_c, 1, 52, 127
1, 16271, Note_off_c, 1, 81, 0
1, 16271, Note_off_c, 1, 52, 0
1, 16272, Note_on_c, 1, 76, 127
1, 16272, Note_on_c, 1, 85, 127
1, 16272, Note_on_c, 1, 57, 127
1, 16295, Note_off_c, 1, 85, 0
1, 16295, Note_off_c, 1, 57, 0
1, 16296, Note_on_c, 1, 81, 127
1, 16296, Note_on_c, 1, 52, 127
1, 16317, Note_off_c, 1, 76, 0
1, 16319, Note_off_c, 1, 81, 0
1, 16319, Note_off_c, 1, 52, 0
1, 16320, Note_on_c, 1, 76, 127
1, 16320, Note_on_c, 1, 83, 127
1, 16320, Note_on_c, 1, 50, 127
1, 16343, Note_off_c, 1, 83, 0
1, 16343, Note_off_c, 1, 50, 0
1, 16344, Note_on_c, 1, 81, 127
1, 16344, Note_on_c, 1, 49, 127
1, 16365, Note_off_c, 1, 76, 0
1, 16367, Note_off_c, 1, 81, 0
1, 16367, Note_off_c, 1, 49, 0
1, 16368, Note_on_c, 1, 76, 127
1, 16368, Note_on_c, 1, 80, 127
1, 16368, Note_on_c, 1, 47, 127
1, 16391, Note_off_c, 1, 80, 0
1, 16391, Note_off_c, 1, 47, 0
1, 16392, Note_on_c, 1, 81, 127
1, 16392, Note_on_c, 1, 45, 127
1, 16413, Note_off_c, 1, 76, 0
1, 16415, Note_off_c, 1, 81, 0
1, 16415, Note_off_c, 1, 45, 0
1, 16416, Note_on_c, 1, 76, 127
1, 16416, Note_on_c, 1, 83, 127
1, 16416, Note_on_c, 1, 44, 127
1, 16439, Note_off_c, 1, 83, 0
1, 16439, Note_off_c, 1, 44, 0
1, 16440, Note_on_c, 1, 81, 127
1, 16440, Note_on_c, 1, 42, 127
1, 16461, Note_off_c, 1, 76, 0
1, 16463, Note_off_c, 1, 81, 0
1, 16463, Note_off_c, 1, 42, 0
1, 16464, Note_on_c, 1, 83, 127
1, 16464, Note_on_c, 1, 80, 127
1, 16464, Note_on_c, 1, 40, 127
1, 16487, Note_off_c, 1, 83, 0
1, 16487, Note_off_c, 1, 80, 0
1, 16487, Note_off_c, 1, 40, 0
1, 16488, Note_on_c, 1, 81, 127
1, 16488, Note_on_c, 1, 78, 127
1, 16488, Note_on_c, 1, 42, 127
1, 16511, Note_off_c, 1, 81, 0
1, 16511, Note_off_c, 1, 78, 0
1, 16511, Note_off_c, 1, 42, 0
1, 16512, Note_on_c, 1, 83, 127
1, 16512, Note_on_c, 1, 76, 127
1, 16512, Note_on_c, 1, 44, 127
1, 16535, Note_off_c, 1, 76, 0
1, 16535, Note_off_c, 1, 44, 0
1, 16536, Note_on_c, 1, 78, 127
1, 16536, Note_on_c, 1, 45, 127
1, 16557, Note_off_c, 1, 83, 0
1, 16559, Note_off_c, 1, 78, 0
1, 16559, Note_off_c, 1, 45, 0
1, 16560, Note_on_c, 1, 76, 127
1, 16560, Note_on_c, 1, 80, 127
1, 16560, Note_on_c, 1, 47, 127
1, 16583, Note_off_c, 1, 80, 0
1, 16583, Note_off_c, 1, 47, 0
1, 16584, Note_on_c, 1, 81, 127
1, 16584, Note_on_c, 1, 49, 127
1, 16605, Note_off_c, 1, 76, 0
1, 16607, Note_off_c, 1, 81, 0
1, 16607, Note_off_c, 1, 49, 0
1, 16608, Note_on_c, 1, 76, 127
1, 16608, Note_on_c, 1, 83, 127
1, 16608, Note_on_c, 1, 50, 127
1, 16631, Note_off_c, 1, 83, 0
1, 16631, Note_off_c, 1, 50, 0
1, 16632, Note_on_c, 1, 81, 127
1, 16632, Note_on_c, 1, 49, 127
1, 16653, Note_off_c, 1, 76, 0
1, 16655, Note_off_c, 1, 81, 0
1, 16655, Note_off_c, 1, 49, 0
1, 16656, Note_on_c, 1, 76, 127
1, 16656, Note_on_c, 1, 83, 127
1, 16656, Note_on_c, 1, 50, 127
1, 16679, Note_off_c, 1, 83, 0
1, 16679, Note_off_c, 1, 50, 0
1, 16680, Note_on_c, 1, 80, 127
1, 16680, Note_on_c, 1, 47, 127
1, 16701, Note_off_c, 1, 76, 0
1, 16703, Note_off_c, 1, 80, 0
1, 16703, Note_off_c, 1, 47, 0
1, 16704, Note_on_c, 1, 76, 127
1, 16704, Note_on_c, 1, 81, 127
1, 16704, Note_on_c, 1, 49, 127
1, 16749, Note_off_c, 1, 76, 0
1, 16749, Note_off_c, 1, 81, 0
1, 16749, Note_off_c, 1, 49, 0
1, 16752, Note_on_c, 1, 81, 127
1, 16752, Note_on_c, 1, 69, 127
1, 16752, Note_on_c, 1, 54, 127
1, 16764, Note_off_c, 1, 81, 0
1, 16764, Note_on_c, 1, 83, 127
1, 16776, Note_off_c, 1, 83, 0
1, 16776, Note_on_c, 1, 84, 127
1, 16797, Note_off_c, 1, 69, 0
1, 16797, Note_off_c, 1, 54, 0
1, 16799, Note_off_c, 1, 84, 0
1, 16800, Note_on_c, 1, 83, 127
1, 16800, Note_on_c, 1, 51, 127
1, 16845, Note_off_c, 1, 83, 0
1, 16845, Note_off_c, 1, 51, 0
1, 16848, Note_on_c, 1, 83, 127
1, 16848, Note_on_c, 1, 47, 127
1, 16860, Note_off_c, 1, 83, 0
1, 16860, Note_on_c, 1, 81, 127
1, 16871, Note_off_c, 1, 47, 0
1, 16872, Note_off_c, 1, 81, 0
1, 16872, Note_on_c, 1, 79, 127
1, 16872, Note_on_c, 1, 49, 127
1, 16895, Note_off_c, 1, 79, 0
1, 16895, Note_off_c, 1, 49, 0
1, 16896, Note_on_c, 1, 81, 127
1, 16896, Note_on_c, 1, 51, 127
1, 16941, Note_off_c, 1, 81, 0
1, 16941, Note_off_c, 1, 51, 0
1, 16944, Note_on_c, 1, 81, 127
1, 16944, Note_on_c, 1, 47, 127
1, 16956, Note_off_c, 1, 81, 0
1, 16956, Note_on_c, 1, 79, 127
1, 16968, Note_off_c, 1, 79, 0
1, 16968, Note_on_c, 1, 78, 127
1, 16989, Note_off_c, 1, 47, 0
1, 16991, Note_off_c, 1, 78, 0
1, 16992, Note_on_c, 1, 79, 127
1, 16992, Note_on_c, 1, 52, 127
1, 17015, Note_off_c, 1, 79, 0
1, 17016, Note_on_c, 1, 78, 127
1, 17039, Note_off_c, 1, 78, 0
1, 17040, Note_on_c, 1, 76, 127
1, 17040, Note_on_c, 1, 71, 127
1, 17063, Note_off_c, 1, 76, 0
1, 17081, Note_off_c, 1, 52, 0
1, 17085, Note_off_c, 1, 71, 0
1, 17088, Note_on_c, 1, 79, 127
1, 17088, Note_on_c, 1, 71, 127
1, 17111, Note_off_c, 1, 79, 0
1, 17112, Note_on_c, 1, 83, 127
1, 17133, Note_off_c, 1, 71, 0
1, 17135, Note_off_c, 1, 83, 0
1, 17136, Note_on_c, 1, 88, 127
1, 17136, Note_on_c, 1, 71, 127
1, 17136, Note_on_c, 1, 52, 127
1, 17159, Note_off_c, 1, 88, 0
1, 17160, Note_on_c, 1, 83, 127
1, 17181, Note_off_c, 1, 71, 0
1, 17181, Note_off_c, 1, 52, 0
1, 17183, Note_off_c, 1, 83, 0
1, 17184, Note_on_c, 1, 79, 127
1, 17184, Note_on_c, 1, 71, 127
1, 17184, Note_on_c, 1, 64, 127
1, 17207, Note_off_c, 1, 79, 0
1, 17208, Note_on_c, 1, 83, 127
1, 17229, Note_off_c, 1, 71, 0
1, 17229, Note_off_c, 1, 64, 0
1, 17231, Note_off_c, 1, 83, 0
1, 17232, Note_on_c, 1, 78, 127
1, 17232, Note_on_c, 1, 71, 127
1, 17232, Note_on_c, 1, 63, 127
1, 17255, Note_off_c, 1, 78, 0
1, 17256, Note_on_c, 1, 83, 127
1, 17277, Note_off_c, 1, 71, 0
1, 17277, Note_off_c, 1, 63, 0
1, 17279, Note_off_c, 1, 83, 0
1, 17280, Note_on_c, 1, 79, 127
1, 17280, Note_on_c, 1, 71, 127
1, 17280, Note_on_c, 1, 64, 127
1, 17303, Note_off_c, 1, 79, 0
1, 17304, Note_on_c, 1, 78, 127
1, 17325, Note_off_c, 1, 71, 0
1, 17327, Note_off_c, 1, 78, 0
1, 17328, Note_on_c, 1, 76, 127
1, 17351, Note_off_c, 1, 76, 0
1, 17352, Note_on_c, 1, 75, 127
1, 17369, Note_off_c, 1, 64, 0
1, 17375, Note_off_c, 1, 75, 0
1, 17376, Note_on_c, 1, 79, 127
1, 17376, Note_on_c, 1, 76, 127
1, 17399, Note_off_c, 1, 79, 0
1, 17400, Note_on_c, 1, 83, 127
1, 17421, Note_off_c, 1, 76, 0
1, 17423, Note_off_c, 1, 83, 0
1, 17424, Note_on_c, 1, 88, 127
1, 17424, Note_on_c, 1, 71, 127
1, 17424, Note_on_c, 1, 52, 127
1, 17447, Note_off_c, 1, 88, 0
1, 17447, Note_off_c, 1, 52, 0
1, 17448, Note_on_c, 1, 83, 127
1, 17448, Note_on_c, 1, 54, 127
1, 17469, Note_off_c, 1, 71, 0
1, 17471, Note_off_c, 1, 83, 0
1, 17471, Note_off_c, 1, 54, 0
1, 17472, Note_on_c, 1, 81, 127
1, 17472, Note_on_c, 1, 71, 127
1, 17472, Note_on_c, 1, 55, 127
1, 17495, Note_off_c, 1, 81, 0
1, 17496, Note_on_c, 1, 79, 127
1, 17517, Note_off_c, 1, 71, 0
1, 17517, Note_off_c, 1, 55, 0
1, 17519, Note_off_c, 1, 79, 0
1, 17520, Note_on_c, 1, 78, 127
1, 17520, Note_on_c, 1, 71, 127
1, 17520, Note_on_c, 1, 57, 127
1, 17543, Note_off_c, 1, 78, 0
1, 17544, Note_on_c, 1, 76, 127
1, 17565, Note_off_c, 1, 71, 0
1, 17565, Note_off_c, 1, 57, 0
1, 17567, Note_off_c, 1, 76, 0
1, 17568, Note_on_c, 1, 75, 127
1, 17568, Note_on_c, 1, 71, 127
1, 17568, Note_on_c, 1, 59, 127
1, 17591, Note_off_c, 1, 75, 0
1, 17592, Note_on_c, 1, 73, 127
1, 17613, Note_off_c, 1, 71, 0
1, 17615, Note_off_c, 1, 73, 0
1, 17616, Note_on_c, 1, 78, 127
1, 17639, Note_off_c, 1, 78, 0
1, 17640, Note_on_c, 1, 76, 127
1, 17657, Note_off_c, 1, 59, 0
1, 17663, Note_off_c, 1, 76, 0
1, 17664, Note_on_c, 1, 75, 127
1, 17664, Note_on_c, 1, 78, 127
1, 17687, Note_off_c, 1, 75, 0
1, 17688, Note_on_c, 1, 76, 127
1, 17709, Note_off_c, 1, 78, 0
1, 17711, Note_off_c, 1, 76, 0
1, 17712, Note_on_c, 1, 78, 127
1, 17712, Note_on_c, 1, 71, 127
1, 17712, Note_on_c, 1, 63, 127
1, 17735, Note_off_c, 1, 78, 0
1, 17735, Note_off_c, 1, 63, 0
1, 17736, Note_on_c, 1, 79, 127
1, 17736, Note_on_c, 1, 61, 127
1, 17757, Note_off_c, 1, 71, 0
1, 17759, Note_off_c, 1, 79, 0
1, 17759, Note_off_c, 1, 61, 0
1, 17760, Note_on_c, 1, 81, 127
1, 17760, Note_on_c, 1, 71, 127
1, 17760, Note_on_c, 1, 63, 127
1, 17783, Note_off_c, 1, 81, 0
1, 17784, Note_on_c, 1, 79, 127
1, 17805, Note_off_c, 1, 71, 0
1, 17805, Note_off_c, 1, 63, 0
1, 17807, Note_off_c, 1, 79, 0
1, 17808, Note_on_c, 1, 81, 127
1, 17808, Note_on_c, 1, 71, 127
1, 17808, Note_on_c, 1, 59, 127
1, 17831, Note_off_c, 1, 81, 0
1, 17832, Note_on_c, 1, 78, 127
1, 17853, Note_off_c, 1, 71, 0
1, 17853, Note_off_c, 1, 59, 0
1, 17855, Note_off_c, 1, 78, 0
1, 17856, Note_on_c, 1, 79, 127
1, 17856, Note_on_c, 1, 71, 127
1, 17856, Note_on_c, 1, 52, 127
1, 17901, Note_off_c, 1, 79, 0
1, 17901, Note_off_c, 1, 71, 0
1, 17901, Note_off_c, 1, 52, 0
1, 17904, Note_on_c, 1, 84, 127
1, 17904, Note_on_c, 1, 79, 127
1, 17904, Note_on_c, 1, 60, 127
1, 17916, Note_off_c, 1, 79, 0
1, 17916, Note_on_c, 1, 78, 127
1, 17928, Note_off_c, 1, 78, 0
1, 17928, Note_on_c, 1, 76, 127
1, 17949, Note_off_c, 1, 60, 0
1, 17951, Note_off_c, 1, 76, 0
1, 17952, Note_on_c, 1, 50, 127
1, 17993, Note_off_c, 1, 84, 0
1, 17997, Note_off_c, 1, 50, 0
1, 18000, Note_on_c, 1, 83, 127
1, 18000, Note_on_c, 1, 78, 127
1, 18000, Note_on_c, 1, 59, 127
1, 18012, Note_off_c, 1, 78, 0
1, 18012, Note_on_c, 1, 76, 127
1, 18024, Note_off_c, 1, 76, 0
1, 18024, Note_on_c, 1, 75, 127
1, 18045, Note_off_c, 1, 59, 0
1, 18047, Note_off_c, 1, 75, 0
1, 18048, Note_on_c, 1, 48, 127
1, 18089, Note_off_c, 1, 83, 0
1, 18093, Note_off_c, 1, 48, 0
1, 18096, Note_on_c, 1, 81, 127
1, 18096, Note_on_c, 1, 76, 127
1, 18096, Note_on_c, 1, 57, 127
1, 18108, Note_off_c, 1, 76, 0
1, 18108, Note_on_c, 1, 75, 127
1, 18120, Note_off_c, 1, 75, 0
1, 18120, Note_on_c, 1, 73, 127
1, 18141, Note_off_c, 1, 57, 0
1, 18143, Note_off_c, 1, 73, 0
1, 18144, Note_on_c, 1, 47, 127
1, 18167, Note_off_c, 1, 81, 0
1, 18168, Note_on_c, 1, 79, 127
1, 18189, Note_off_c, 1, 47, 0
1, 18191, Note_off_c, 1, 79, 0
1, 18192, Note_on_c, 1, 78, 127
1, 18192, Note_on_c, 1, 81, 127
1, 18192, Note_on_c, 1, 57, 127
1, 18215, Note_off_c, 1, 78, 0
1, 18215, Note_off_c, 1, 81, 0
1, 18216, Note_on_c, 1, 79, 127
1, 18216, Note_on_c, 1, 83, 127
1, 18237, Note_off_c, 1, 57, 0
1, 18239, Note_off_c, 1, 79, 0
1, 18239, Note_off_c, 1, 83, 0
1, 18240, Note_on_c, 1, 81, 127
1, 18240, Note_on_c, 1, 84, 127
1, 18240, Note_on_c, 1, 57, 127
1, 18263, Note_off_c, 1, 81, 0
1, 18263, Note_off_c, 1, 84, 0
1, 18264, Note_on_c, 1, 83, 127
1, 18285, Note_off_c, 1, 57, 0
1, 18287, Note_off_c, 1, 83, 0
1, 18288, Note_on_c, 1, 84, 127
1, 18288, Note_on_c, 1, 81, 127
1, 18288, Note_on_c, 1, 57, 127
1, 18311, Note_off_c, 1, 84, 0
1, 18311, Note_off_c, 1, 81, 0
1, 18312, Note_on_c, 1, 83, 127
1, 18312, Note_on_c, 1, 79, 127
1, 18333, Note_off_c, 1, 57, 0
1, 18335, Note_off_c, 1, 83, 0
1, 18335, Note_off_c, 1, 79, 0
1, 18336, Note_on_c, 1, 81, 127
1, 18336, Note_on_c, 1, 78, 127
1, 18336, Note_on_c, 1, 57, 127
1, 18359, Note_off_c, 1, 81, 0
1, 18360, Note_on_c, 1, 84, 127
1, 18381, Note_off_c, 1, 78, 0
1, 18381, Note_off_c, 1, 57, 0
1, 18383, Note_off_c, 1, 84, 0
1, 18384, Note_on_c, 1, 79, 127
1, 18384, Note_on_c, 1, 76, 127
1, 18384, Note_on_c, 1, 57, 127
1, 18407, Note_off_c, 1, 79, 0
1, 18408, Note_on_c, 1, 84, 127
1, 18429, Note_off_c, 1, 76, 0
1, 18429, Note_off_c, 1, 57, 0
1, 18431, Note_off_c, 1, 84, 0
1, 18432, Note_on_c, 1, 78, 127
1, 18432, Note_on_c, 1, 75, 127
1, 18432, Note_on_c, 1, 57, 127
1, 18455, Note_off_c, 1, 78, 0
1, 18456, Note_on_c, 1, 76, 127
1, 18477, Note_off_c, 1, 75, 0
1, 18477, Note_off_c, 1, 57, 0
1, 18479, Note_off_c, 1, 76, 0
1, 18480, Note_on_c, 1, 75, 127
1, 18480, Note_on_c, 1, 78, 127
1, 18480, Note_on_c, 1, 60, 127
1, 18503, Note_off_c, 1, 75, 0
1, 18503, Note_off_c, 1, 78, 0
1, 18503, Note_off_c, 1, 60, 0
1, 18504, Note_on_c, 1, 76, 127
1, 18504, Note_on_c, 1, 79, 127
1, 18504, Note_on_c, 1, 59, 127
1, 18527, Note_off_c, 1, 76, 0
1, 18527, Note_off_c, 1, 79, 0
1, 18527, Note_off_c, 1, 59, 0
1, 18528, Note_on_c, 1, 78, 127
1, 18528, Note_on_c, 1, 81, 127
1, 18528, Note_on_c, 1, 57, 127
1, 18551, Note_off_c, 1, 78, 0
1, 18551, Note_off_c, 1, 81, 0
1, 18552, Note_on_c, 1, 79, 127
1, 18573, Note_off_c, 1, 57, 0
1, 18575, Note_off_c, 1, 79, 0
1, 18576, Note_on_c, 1, 81, 127
1, 18576, Note_on_c, 1, 78, 127
1, 18576, Note_on_c, 1, 57, 127
1, 18599, Note_off_c, 1, 81, 0
1, 18599, Note_off_c, 1, 78, 0
1, 18600, Note_on_c, 1, 79, 127
1, 18600, Note_on_c, 1, 76, 127
1, 18621, Note_off_c, 1, 57, 0
1, 18623, Note_off_c, 1, 79, 0
1, 18623, Note_off_c, 1, 76, 0
1, 18624, Note_on_c, 1, 78, 127
1, 18624, Note_on_c, 1, 75, 127
1, 18624, Note_on_c, 1, 57, 127
1, 18647, Note_off_c, 1, 78, 0
1, 18648, Note_on_c, 1, 81, 127
1, 18669, Note_off_c, 1, 75, 0
1, 18669, Note_off_c, 1, 57, 0
1, 18671, Note_off_c, 1, 81, 0
1, 18672, Note_on_c, 1, 76, 127
1, 18672, Note_on_c, 1, 73, 127
1, 18672, Note_on_c, 1, 57, 127
1, 18695, Note_off_c, 1, 76, 0
1, 18696, Note_on_c, 1, 81, 127
1, 18717, Note_off_c, 1, 73, 0
1, 18717, Note_off_c, 1, 57, 0
1, 18719, Note_off_c, 1, 81, 0
1, 18720, Note_on_c, 1, 75, 127
1, 18720, Note_on_c, 1, 71, 127
1, 18720, Note_on_c, 1, 57, 127
1, 18743, Note_off_c, 1, 75, 0
1, 18744, Note_on_c, 1, 76, 127
1, 18765, Note_off_c, 1, 71, 0
1, 18765, Note_off_c, 1, 57, 0
1, 18767, Note_off_c, 1, 76, 0
1, 18768, Note_on_c, 1, 78, 127
1, 18768, Note_on_c, 1, 81, 127
1, 18768, Note_on_c, 1, 54, 127
1, 18791, Note_off_c, 1, 78, 0
1, 18791, Note_off_c, 1, 54, 0
1, 18792, Note_on_c, 1, 76, 127
1, 18792, Note_on_c, 1, 55, 127
1, 18813, Note_off_c, 1, 81, 0
1, 18815, Note_off_c, 1, 76, 0
1, 18815, Note_off_c, 1, 55, 0
1, 18816, Note_on_c, 1, 75, 127
1, 18816, Note_on_c, 1, 78, 127
1, 18816, Note_on_c, 1, 57, 127
1, 18839, Note_off_c, 1, 75, 0
1, 18840, Note_on_c, 1, 73, 127
1, 18861, Note_off_c, 1, 78, 0
1, 18861, Note_off_c, 1, 57, 0
1, 18863, Note_off_c, 1, 73, 0
1, 18864, Note_on_c, 1, 71, 127
1, 18864, Note_on_c, 1, 75, 127
1, 18864, Note_on_c, 1, 55, 127
1, 18887, Note_off_c, 1, 71, 0
1, 18887, Note_off_c, 1, 55, 0
1, 18888, Note_on_c, 1, 69, 127
1, 18888, Note_on_c, 1, 57, 127
1, 18909, Note_off_c, 1, 75, 0
1, 18911, Note_off_c, 1, 69, 0
1, 18911, Note_off_c, 1, 57, 0
1, 18912, Note_on_c, 1, 67, 127
1, 18912, Note_on_c, 1, 71, 127
1, 18912, Note_on_c, 1, 59, 127
1, 18935, Note_off_c, 1, 67, 0
1, 18936, Note_on_c, 1, 66, 127
1, 18957, Note_off_c, 1, 71, 0
1, 18957, Note_off_c, 1, 59, 0
1, 18959, Note_off_c, 1, 66, 0
1, 18960, Note_on_c, 1, 64, 127
1, 18960, Note_on_c, 1, 78, 127
1, 18960, Note_on_c, 1, 54, 127
1, 18983, Note_off_c, 1, 64, 0
1, 18984, Note_on_c, 1, 63, 127
1, 19005, Note_off_c, 1, 78, 0
1, 19005, Note_off_c, 1, 54, 0
1, 19007, Note_off_c, 1, 63, 0
1, 19008, Note_on_c, 1, 64, 127
1, 19008, Note_on_c, 1, 83, 127
1, 19008, Note_on_c, 1, 55, 127
1, 19031, Note_off_c, 1, 83, 0
1, 19031, Note_off_c, 1, 55, 0
1, 19032, Note_on_c, 1, 81, 127
1, 19032, Note_on_c, 1, 54, 127
1, 19053, Note_off_c, 1, 64, 0
1, 19055, Note_off_c, 1, 81, 0
1, 19055, Note_off_c, 1, 54, 0
1, 19056, Note_on_c, 1, 67, 127
1, 19056, Note_on_c, 1, 79, 127
1, 19056, Note_on_c, 1, 52, 127
1, 19079, Note_off_c, 1, 79, 0
1, 19079, Note_off_c, 1, 52, 0
1, 19080, Note_on_c, 1, 81, 127
1, 19080, Note_on_c, 1, 54, 127
1, 19101, Note_off_c, 1, 67, 0
1, 19103, Note_off_c, 1, 81, 0
1, 19103, Note_off_c, 1, 54, 0
1, 19104, Note_on_c, 1, 67, 127
1, 19104, Note_on_c, 1, 83, 127
1, 19104, Note_on_c, 1, 55, 127
1, 19127, Note_off_c, 1, 83, 0
1, 19127, Note_off_c, 1, 55, 0
1, 19128, Note_on_c, 1, 81, 127
1, 19128, Note_on_c, 1, 57, 127
1, 19149, Note_off_c, 1, 67, 0
1, 19151, Note_off_c, 1, 81, 0
1, 19151, Note_off_c, 1, 57, 0
1, 19152, Note_on_c, 1, 67, 127
1, 19152, Note_on_c, 1, 79, 127
1, 19152, Note_on_c, 1, 59, 127
1, 19175, Note_off_c, 1, 79, 0
1, 19175, Note_off_c, 1, 59, 0
1, 19176, Note_on_c, 1, 78, 127
1, 19176, Note_on_c, 1, 57, 127
1, 19197, Note_off_c, 1, 67, 0
1, 19199, Note_off_c, 1, 78, 0
1, 19199, Note_off_c, 1, 57, 0
1, 19200, Note_on_c, 1, 67, 127
1, 19200, Note_on_c, 1, 76, 127
1, 19200, Note_on_c, 1, 55, 127
1, 19223, Note_off_c, 1, 55, 0
1, 19224, Note_on_c, 1, 59, 127
1, 19245, Note_off_c, 1, 67, 0
1, 19245, Note_off_c, 1, 76, 0
1, 19247, Note_off_c, 1, 59, 0
1, 19248, Note_on_c, 1, 67, 127
1, 19248, Note_on_c, 1, 74, 127
1, 19248, Note_on_c, 1, 54, 127
1, 19271, Note_off_c, 1, 54, 0
1, 19272, Note_on_c, 1, 59, 127
1, 19293, Note_off_c, 1, 67, 0
1, 19293, Note_off_c, 1, 74, 0
1, 19295, Note_off_c, 1, 59, 0
1, 19296, Note_on_c, 1, 67, 127
1, 19296, Note_on_c, 1, 73, 127
1, 19296, Note_on_c, 1, 52, 127
1, 19319, Note_off_c, 1, 52, 0
1, 19320, Note_on_c, 1, 50, 127
1, 19341, Note_off_c, 1, 67, 0
1, 19341, Note_off_c, 1, 73, 0
1, 19343, Note_off_c, 1, 50, 0
1, 19344, Note_on_c, 1, 71, 127
1, 19344, Note_on_c, 1, 76, 127
1, 19344, Note_on_c, 1, 49, 127
1, 19367, Note_off_c, 1, 71, 0
1, 19367, Note_off_c, 1, 76, 0
1, 19367, Note_off_c, 1, 49, 0
1, 19368, Note_on_c, 1, 69, 127
1, 19368, Note_on_c, 1, 78, 127
1, 19368, Note_on_c, 1, 50, 127
1, 19391, Note_off_c, 1, 69, 0
1, 19391, Note_off_c, 1, 78, 0
1, 19391, Note_off_c, 1, 50, 0
1, 19392, Note_on_c, 1, 67, 127
1, 19392, Note_on_c, 1, 79, 127
1, 19392, Note_on_c, 1, 52, 127
1, 19415, Note_off_c, 1, 79, 0
1, 19415, Note_off_c, 1, 52, 0
1, 19416, Note_on_c, 1, 78, 127
1, 19416, Note_on_c, 1, 54, 127
1, 19437, Note_off_c, 1, 67, 0
1, 19439, Note_off_c, 1, 78, 0
1, 19439, Note_off_c, 1, 54, 0
1, 19440, Note_on_c, 1, 67, 127
1, 19440, Note_on_c, 1, 76, 127
1, 19440, Note_on_c, 1, 55, 127
1, 19463, Note_off_c, 1, 76, 0
1, 19463, Note_off_c, 1, 55, 0
1, 19464, Note_on_c, 1, 74, 127
1, 19464, Note_on_c, 1, 54, 127
1, 19485, Note_off_c, 1, 67, 0
1, 19487, Note_off_c, 1, 74, 0
1, 19487, Note_off_c, 1, 54, 0
1, 19488, Note_on_c, 1, 67, 127
1, 19488, Note_on_c, 1, 73, 127
1, 19488, Note_on_c, 1, 52, 127
1, 19511, Note_off_c, 1, 52, 0
1, 19512, Note_on_c, 1, 55, 127
1, 19533, Note_off_c, 1, 67, 0
1, 19533, Note_off_c, 1, 73, 0
1, 19535, Note_off_c, 1, 55, 0
1, 19536, Note_on_c, 1, 67, 127
1, 19536, Note_on_c, 1, 71, 127
1, 19536, Note_on_c, 1, 50, 127
1, 19559, Note_off_c, 1, 50, 0
1, 19560, Note_on_c, 1, 55, 127
1, 19581, Note_off_c, 1, 67, 0
1, 19581, Note_off_c, 1, 71, 0
1, 19583, Note_off_c, 1, 55, 0
1, 19584, Note_on_c, 1, 67, 127
1, 19584, Note_on_c, 1, 73, 127
1, 19584, Note_on_c, 1, 49, 127
1, 19607, Note_off_c, 1, 49, 0
1, 19608, Note_on_c, 1, 50, 127
1, 19629, Note_off_c, 1, 67, 0
1, 19629, Note_off_c, 1, 73, 0
1, 19631, Note_off_c, 1, 50, 0
1, 19632, Note_on_c, 1, 64, 127
1, 19632, Note_on_c, 1, 79, 127
1, 19632, Note_on_c, 1, 52, 127
1, 19655, Note_off_c, 1, 64, 0
1, 19655, Note_off_c, 1, 52, 0
1, 19656, Note_on_c, 1, 66, 127
1, 19656, Note_on_c, 1, 50, 127
1, 19677, Note_off_c, 1, 79, 0
1, 19679, Note_off_c, 1, 66, 0
1, 19679, Note_off_c, 1, 50, 0
1, 19680, Note_on_c, 1, 67, 127
1, 19680, Note_on_c, 1, 76, 127
1, 19680, Note_on_c, 1, 49, 127
1, 19703, Note_off_c, 1, 49, 0
1, 19704, Note_on_c, 1, 47, 127
1, 19725, Note_off_c, 1, 67, 0
1, 19725, Note_off_c, 1, 76, 0
1, 19727, Note_off_c, 1, 47, 0
1, 19728, Note_on_c, 1, 66, 127
1, 19728, Note_on_c, 1, 73, 127
1, 19728, Note_on_c, 1, 45, 127
1, 19751, Note_off_c, 1, 66, 0
1, 19751, Note_off_c, 1, 45, 0
1, 19752, Note_on_c, 1, 67, 127
1, 19752, Note_on_c, 1, 43, 127
1, 19773, Note_off_c, 1, 73, 0
1, 19775, Note_off_c, 1, 67, 0
1, 19775, Note_off_c, 1, 43, 0
1, 19776, Note_on_c, 1, 69, 127
1, 19776, Note_on_c, 1, 42, 127
1, 19799, Note_off_c, 1, 42, 0
1, 19800, Note_on_c, 1, 40, 127
1, 19821, Note_off_c, 1, 69, 0
1, 19823, Note_off_c, 1, 40, 0
1, 19824, Note_on_c, 1, 64, 127
1, 19824, Note_on_c, 1, 79, 127
1, 19824, Note_on_c, 1, 38, 127
1, 19847, Note_off_c, 1, 38, 0
1, 19848, Note_on_c, 1, 37, 127
1, 19869, Note_off_c, 1, 64, 0
1, 19869, Note_off_c, 1, 79, 0
1, 19871, Note_off_c, 1, 37, 0
1, 19872, Note_on_c, 1, 66, 127
1, 19872, Note_on_c, 1, 78, 127
1, 19872, Note_on_c, 1, 38, 127
1, 19895, Note_off_c, 1, 66, 0
1, 19896, Note_on_c, 1, 64, 127
1, 19917, Note_off_c, 1, 78, 0
1, 19919, Note_off_c, 1, 64, 0
1, 19920, Note_on_c, 1, 81, 127
1, 19932, Note_off_c, 1, 81, 0
1, 19932, Note_on_c, 1, 79, 127
1, 19944, Note_off_c, 1, 79, 0
1, 19944, Note_on_c, 1, 69, 127
1, 19961, Note_off_c, 1, 38, 0
1, 19967, Note_off_c, 1, 69, 0
1, 19968, Note_on_c, 1, 64, 127
1, 19968, Note_on_c, 1, 79, 127
1, 19991, Note_off_c, 1, 64, 0
1, 19992, Note_on_c, 1, 62, 127
1, 20013, Note_off_c, 1, 79, 0
1, 20015, Note_off_c, 1, 62, 0
1, 20016, Note_on_c, 1, 64, 127
1, 20016, Note_on_c, 1, 79, 127
1, 20028, Note_off_c, 1, 79, 0
1, 20028, Note_on_c, 1, 78, 127
1, 20039, Note_off_c, 1, 64, 0
1, 20040, Note_off_c, 1, 78, 0
1, 20040, Note_on_c, 1, 69, 127
1, 20040, Note_on_c, 1, 76, 127
1, 20063, Note_off_c, 1, 69, 0
1, 20063, Note_off_c, 1, 76, 0
1, 20064, Note_on_c, 1, 62, 127
1, 20064, Note_on_c, 1, 78, 127
1, 20064, Note_on_c, 1, 50, 127
1, 20087, Note_off_c, 1, 62, 0
1, 20088, Note_on_c, 1, 61, 127
1, 20109, Note_off_c, 1, 78, 0
1, 20111, Note_off_c, 1, 61, 0
1, 20124, Note_on_c, 1, 76, 127
1, 20136, Note_off_c, 1, 76, 0
1, 20136, Note_on_c, 1, 69, 127
1, 20136, Note_on_c, 1, 74, 127
1, 20153, Note_off_c, 1, 50, 0
1, 20159, Note_off_c, 1, 69, 0
1, 20159, Note_off_c, 1, 74, 0
1, 20160, Note_on_c, 1, 61, 127
1, 20160, Note_on_c, 1, 76, 127
1, 20160, Note_on_c, 1, 57, 127
1, 20183, Note_off_c, 1, 61, 0
1, 20184, Note_on_c, 1, 59, 127
1, 20205, Note_off_c, 1, 76, 0
1, 20207, Note_off_c, 1, 59, 0
1, 20208, Note_on_c, 1, 79, 127
1, 20220, Note_off_c, 1, 79, 0
1, 20220, Note_on_c, 1, 78, 127
1, 20232, Note_off_c, 1, 78, 0
1, 20232, Note_on_c, 1, 69, 127
1, 20249, Note_off_c, 1, 57, 0
1, 20255, Note_off_c, 1, 69, 0
1, 20256, Note_on_c, 1, 62, 127
1, 20256, Note_on_c, 1, 78, 127
1, 20279, Note_off_c, 1, 62, 0
1, 20280, Note_on_c, 1, 61, 127
1, 20301, Note_off_c, 1, 78, 0
1, 20303, Note_off_c, 1, 61, 0
1, 20304, Note_on_c, 1, 62, 127
1, 20304, Note_on_c, 1, 78, 127
1, 20316, Note_off_c, 1, 78, 0
1, 20316, Note_on_c, 1, 76, 127
1, 20327, Note_off_c, 1, 62, 0
1, 20328, Note_off_c, 1, 76, 0
1, 20328, Note_on_c, 1, 69, 127
1, 20328, Note_on_c, 1, 74, 127
1, 20351, Note_off_c, 1, 69, 0
1, 20351, Note_off_c, 1, 74, 0
1, 20352, Note_on_c, 1, 61, 127
1, 20352, Note_on_c, 1, 76, 127
1, 20352, Note_on_c, 1, 58, 127
1, 20375, Note_off_c, 1, 61, 0
1, 20376, Note_on_c, 1, 59, 127
1, 20397, Note_off_c, 1, 76, 0
1, 20399, Note_off_c, 1, 59, 0
1, 20412, Note_on_c, 1, 74, 127
1, 20424, Note_off_c, 1, 74, 0
1, 20424, Note_on_c, 1, 66, 127
1, 20424, Note_on_c, 1, 73, 127
1, 20441, Note_off_c, 1, 58, 0
1, 20447, Note_off_c, 1, 66, 0
1, 20447, Note_off_c, 1, 73, 0
1, 20448, Note_on_c, 1, 59, 127
1, 20448, Note_on_c, 1, 74, 127
1, 20472, Note_on_c, 1, 58, 127
1, 20493, Note_off_c, 1, 74, 0
1, 20495, Note_off_c, 1, 58, 0
1, 20496, Note_on_c, 1, 78, 127
1, 20508, Note_off_c, 1, 78, 0
1, 20508, Note_on_c, 1, 76, 127
1, 20520, Note_off_c, 1, 76, 0
1, 20520, Note_on_c, 1, 66, 127
1, 20537, Note_off_c, 1, 59, 0
1, 20543, Note_off_c, 1, 66, 0
1, 20544, Note_on_c, 1, 61, 127
1, 20544, Note_on_c, 1, 76, 127
1, 20567, Note_off_c, 1, 61, 0
1, 20568, Note_on_c, 1, 59, 127
1, 20589, Note_off_c, 1, 76, 0
1, 20591, Note_off_c, 1, 59, 0
1, 20592, Note_on_c, 1, 61, 127
1, 20592, Note_on_c, 1, 76, 127
1, 20604, Note_off_c, 1, 76, 0
1, 20604, Note_on_c, 1, 74, 127
1, 20615, Note_off_c, 1, 61, 0
1, 20616, Note_off_c, 1, 74, 0
1, 20616, Note_on_c, 1, 66, 127
1, 20616, Note_on_c, 1, 73, 127
1, 20639, Note_off_c, 1, 66, 0
1, 20639, Note_off_c, 1, 73, 0
1, 20640, Note_on_c, 1, 59, 127
1, 20640, Note_on_c, 1, 74, 127
1, 20640, Note_on_c, 1, 47, 127
1, 20663, Note_off_c, 1, 59, 0
1, 20664, Note_on_c, 1, 58, 127
1, 20685, Note_off_c, 1, 74, 0
1, 20687, Note_off_c, 1, 58, 0
1, 20700, Note_on_c, 1, 73, 127
1, 20712, Note_off_c, 1, 73, 0
1, 20712, Note_on_c, 1, 66, 127
1, 20712, Note_on_c, 1, 71, 127
1, 20729, Note_off_c, 1, 47, 0
1, 20735, Note_off_c, 1, 66, 0
1, 20735, Note_off_c, 1, 71, 0
1, 20736, Note_on_c, 1, 58, 127
1, 20736, Note_on_c, 1, 73, 127
1, 20736, Note_on_c, 1, 42, 127
1, 20759, Note_off_c, 1, 73, 0
1, 20760, Note_on_c, 1, 70, 127
1, 20781, Note_off_c, 1, 58, 0
1, 20781, Note_off_c, 1, 42, 0
1, 20783, Note_off_c, 1, 70, 0
1, 20784, Note_on_c, 1, 61, 127
1, 20784, Note_on_c, 1, 66, 127
1, 20784, Note_on_c, 1, 54, 127
1, 20807, Note_off_c, 1, 66, 0
1, 20808, Note_on_c, 1, 68, 127
1, 20829, Note_off_c, 1, 61, 0
1, 20829, Note_off_c, 1, 54, 0
1, 20831, Note_off_c, 1, 68, 0
1, 20832, Note_on_c, 1, 66, 127
1, 20832, Note_on_c, 1, 70, 127
1, 20832, Note_on_c, 1, 54, 127
1, 20855, Note_off_c, 1, 70, 0
1, 20856, Note_on_c, 1, 71, 127
1, 20877, Note_off_c, 1, 66, 0
1, 20877, Note_off_c, 1, 54, 0
1, 20879, Note_off_c, 1, 71, 0
1, 20880, Note_on_c, 1, 70, 127
1, 20880, Note_on_c, 1, 73, 127
1, 20880, Note_on_c, 1, 54, 127
1, 20903, Note_off_c, 1, 73, 0
1, 20904, Note_on_c, 1, 74, 127
1, 20925, Note_off_c, 1, 70, 0
1, 20925, Note_off_c, 1, 54, 0
1, 20927, Note_off_c, 1, 74, 0
1, 20928, Note_on_c, 1, 70, 127
1, 20928, Note_on_c, 1, 76, 127
1, 20928, Note_on_c, 1, 54, 127
1, 20951, Note_off_c, 1, 76, 0
1, 20952, Note_on_c, 1, 74, 127
1, 20973, Note_off_c, 1, 54, 0
1, 20975, Note_off_c, 1, 74, 0
1, 20995, Note_off_c, 1, 70, 0
1, 21000, Note_on_c, 1, 68, 127
1, 21000, Note_on_c, 1, 73, 127
1, 21012, Note_off_c, 1, 68, 0
1, 21023, Note_off_c, 1, 73, 0
1, 21024, Note_on_c, 1, 71, 127
1, 21069, Note_off_c, 1, 71, 0
1, 21072, Note_on_c, 1, 66, 127
1, 21072, Note_on_c, 1, 71, 127
1, 21072, Note_on_c, 1, 59, 127
1, 21095, Note_off_c, 1, 71, 0
1, 21095, Note_off_c, 1, 59, 0
1, 21096, Note_on_c, 1, 73, 127
1, 21096, Note_on_c, 1, 58, 127
1, 21117, Note_off_c, 1, 66, 0
1, 21119, Note_off_c, 1, 73, 0
1, 21119, Note_off_c, 1, 58, 0
1, 21120, Note_on_c, 1, 62, 127
1, 21120, Note_on_c, 1, 74, 127
1, 21120, Note_on_c, 1, 59, 127
1, 21143, Note_off_c, 1, 74, 0
1, 21144, Note_on_c, 1, 78, 127
1, 21165, Note_off_c, 1, 62, 0
1, 21165, Note_off_c, 1, 59, 0
1, 21167, Note_off_c, 1, 78, 0
1, 21168, Note_on_c, 1, 66, 127
1, 21168, Note_on_c, 1, 83, 127
1, 21168, Note_on_c, 1, 54, 127
1, 21191, Note_off_c, 1, 83, 0
1, 21192, Note_on_c, 1, 78, 127
1, 21213, Note_off_c, 1, 66, 0
1, 21213, Note_off_c, 1, 54, 0
1, 21215, Note_off_c, 1, 78, 0
1, 21216, Note_on_c, 1, 71, 127
1, 21216, Note_on_c, 1, 76, 127
1, 21216, Note_on_c, 1, 54, 127
1, 21239, Note_off_c, 1, 76, 0
1, 21240, Note_on_c, 1, 74, 127
1, 21261, Note_off_c, 1, 54, 0
1, 21263, Note_off_c, 1, 74, 0
1, 21264, Note_on_c, 1, 73, 127
1, 21283, Note_off_c, 1, 71, 0
1, 21287, Note_off_c, 1, 73, 0
1, 21288, Note_on_c, 1, 70, 127
1, 21300, Note_off_c, 1, 70, 0
1, 21336, Note_on_c, 1, 68, 127
1, 21359, Note_off_c, 1, 68, 0
1, 21360, Note_on_c, 1, 70, 127
1, 21360, Note_on_c, 1, 66, 127
1, 21360, Note_on_c, 1, 61, 127
1, 21383, Note_off_c, 1, 66, 0
1, 21383, Note_off_c, 1, 61, 0
1, 21384, Note_on_c, 1, 68, 127
1, 21384, Note_on_c, 1, 59, 127
1, 21405, Note_off_c, 1, 70, 0
1, 21407, Note_off_c, 1, 68, 0
1, 21407, Note_off_c, 1, 59, 0
1, 21408, Note_on_c, 1, 66, 127
1, 21408, Note_on_c, 1, 70, 127
1, 21408, Note_on_c, 1, 61, 127
1, 21431, Note_off_c, 1, 66, 0
1, 21431, Note_off_c, 1, 70, 0
1, 21432, Note_on_c, 1, 68, 127
1, 21432, Note_on_c, 1, 71, 127
1, 21453, Note_off_c, 1, 61, 0
1, 21455, Note_off_c, 1, 68, 0
1, 21455, Note_off_c, 1, 71, 0
1, 21456, Note_on_c, 1, 70, 127
1, 21456, Note_on_c, 1, 73, 127
1, 21456, Note_on_c, 1, 54, 127
1, 21479, Note_off_c, 1, 70, 0
1, 21479, Note_off_c, 1, 73, 0
1, 21480, Note_on_c, 1, 71, 127
1, 21480, Note_on_c, 1, 74, 127
1, 21501, Note_off_c, 1, 54, 0
1, 21503, Note_off_c, 1, 71, 0
1, 21503, Note_off_c, 1, 74, 0
1, 21504, Note_on_c, 1, 73, 127
1, 21504, Note_on_c, 1, 76, 127
1, 21504, Note_on_c, 1, 54, 127
1, 21527, Note_off_c, 1, 73, 0
1, 21527, Note_off_c, 1, 76, 0
1, 21528, Note_on_c, 1, 71, 127
1, 21528, Note_on_c, 1, 74, 127
1, 21549, Note_off_c, 1, 54, 0
1, 21551, Note_off_c, 1, 71, 0
1, 21551, Note_off_c, 1, 74, 0
1, 21552, Note_on_c, 1, 73, 127
1, 21552, Note_on_c, 1, 76, 127
1, 21552, Note_on_c, 1, 54, 127
1, 21575, Note_off_c, 1, 73, 0
1, 21575, Note_off_c, 1, 76, 0
1, 21576, Note_on_c, 1, 70, 127
1, 21597, Note_off_c, 1, 54, 0
1, 21599, Note_off_c, 1, 70, 0
1, 21600, Note_on_c, 1, 71, 127
1, 21600, Note_on_c, 1, 74, 127
1, 21600, Note_on_c, 1, 54, 127
1, 21623, Note_off_c, 1, 74, 0
1, 21624, Note_on_c, 1, 73, 127
1, 21645, Note_off_c, 1, 71, 0
1, 21645, Note_off_c, 1, 54, 0
1, 21647, Note_off_c, 1, 73, 0
1, 21648, Note_on_c, 1, 79, 127
1, 21648, Note_on_c, 1, 71, 127
1, 21648, Note_on_c, 1, 62, 127
1, 21660, Note_off_c, 1, 62, 0
1, 21660, Note_on_c, 1, 61, 127
1, 21671, Note_off_c, 1, 71, 0
1, 21672, Note_off_c, 1, 61, 0
1, 21672, Note_on_c, 1, 59, 127
1, 21695, Note_off_c, 1, 59, 0
1, 21696, Note_on_c, 1, 76, 127
1, 21719, Note_off_c, 1, 76, 0
1, 21720, Note_on_c, 1, 73, 127
1, 21737, Note_off_c, 1, 79, 0
1, 21743, Note_off_c, 1, 73, 0
1, 21744, Note_on_c, 1, 78, 127
1, 21744, Note_on_c, 1, 70, 127
1, 21744, Note_on_c, 1, 61, 127
1, 21756, Note_off_c, 1, 61, 0
1, 21756, Note_on_c, 1, 59, 127
1, 21767, Note_off_c, 1, 70, 0
1, 21768, Note_off_c, 1, 59, 0
1, 21768, Note_on_c, 1, 58, 127
1, 21791, Note_off_c, 1, 58, 0
1, 21792, Note_on_c, 1, 74, 127
1, 21815, Note_off_c, 1, 74, 0
1, 21816, Note_on_c, 1, 71, 127
1, 21833, Note_off_c, 1, 78, 0
1, 21839, Note_off_c, 1, 71, 0
1, 21840, Note_on_c, 1, 76, 127
1, 21840, Note_on_c, 1, 68, 127
1, 21840, Note_on_c, 1, 59, 127
1, 21852, Note_off_c, 1, 59, 0
1, 21852, Note_on_c, 1, 58, 127
1, 21863, Note_off_c, 1, 68, 0
1, 21864, Note_off_c, 1, 58, 0
1, 21864, Note_on_c, 1, 56, 127
1, 21887, Note_off_c, 1, 76, 0
1, 21887, Note_off_c, 1, 56, 0
1, 21888, Note_on_c, 1, 76, 127
1, 21888, Note_on_c, 1, 73, 127
1, 21888, Note_on_c, 1, 58, 127
1, 21911, Note_off_c, 1, 73, 0
1, 21912, Note_on_c, 1, 79, 127
1, 21935, Note_off_c, 1, 79, 0
1, 21936, Note_on_c, 1, 78, 127
1, 21959, Note_off_c, 1, 78, 0
1, 21984, Note_on_c, 1, 85, 127
1, 22007, Note_off_c, 1, 85, 0
1, 22008, Note_on_c, 1, 83, 127
1, 22021, Note_off_c, 1, 76, 0
1, 22021, Note_off_c, 1, 58, 0
1, 22031, Note_off_c, 1, 83, 0
1, 22032, Note_on_c, 1, 78, 127
1, 22032, Note_on_c, 1, 82, 127
1, 22032, Note_on_c, 1, 54, 127
1, 22055, Note_off_c, 1, 82, 0
1, 22056, Note_on_c, 1, 80, 127
1, 22077, Note_off_c, 1, 78, 0
1, 22077, Note_off_c, 1, 54, 0
1, 22079, Note_off_c, 1, 80, 0
1, 22080, Note_on_c, 1, 74, 127
1, 22080, Note_on_c, 1, 78, 127
1, 22080, Note_on_c, 1, 59, 127
1, 22103, Note_off_c, 1, 78, 0
1, 22104, Note_on_c, 1, 76, 127
1, 22125, Note_off_c, 1, 59, 0
1, 22127, Note_off_c, 1, 76, 0
1, 22128, Note_on_c, 1, 54, 127
1, 22152, Note_on_c, 1, 73, 127
1, 22173, Note_off_c, 1, 54, 0
1, 22175, Note_off_c, 1, 73, 0
1, 22176, Note_on_c, 1, 71, 127
1, 22176, Note_on_c, 1, 55, 127
1, 22199, Note_off_c, 1, 71, 0
1, 22200, Note_on_c, 1, 70, 127
1, 22221, Note_off_c, 1, 74, 0
1, 22221, Note_off_c, 1, 55, 0
1, 22223, Note_off_c, 1, 70, 0
1, 22224, Note_on_c, 1, 79, 127
1, 22224, Note_on_c, 1, 71, 127
1, 22224, Note_on_c, 1, 52, 127
1, 22247, Note_off_c, 1, 71, 0
1, 22248, Note_on_c, 1, 76, 127
1, 22269, Note_off_c, 1, 79, 0
1, 22269, Note_off_c, 1, 52, 0
1, 22271, Note_off_c, 1, 76, 0
1, 22272, Note_on_c, 1, 73, 127
1, 22272, Note_on_c, 1, 70, 127
1, 22272, Note_on_c, 1, 54, 127
1, 22317, Note_off_c, 1, 54, 0
1, 22320, Note_on_c, 1, 52, 127
1, 22365, Note_off_c, 1, 52, 0
1, 22405, Note_off_c, 1, 73, 0
1, 22405, Note_off_c, 1, 70, 0
1, 22416, Note_on_c, 1, 71, 127
1, 22416, Note_on_c, 1, 42, 127
1, 22461, Note_off_c, 1, 71, 0
1, 22461, Note_off_c, 1, 42, 0
1, 22464, Note_on_c, 1, 71, 127
1, 22464, Note_on_c, 1, 47, 127
1, 22488, Note_on_c, 1, 66, 127
1, 22509, Note_off_c, 1, 71, 0
1, 22511, Note_off_c, 1, 66, 0
1, 22512, Note_on_c, 1, 68, 127
1, 22512, Note_on_c, 1, 78, 127
1, 22535, Note_off_c, 1, 68, 0
1, 22536, Note_on_c, 1, 70, 127
1, 22553, Note_off_c, 1, 47, 0
1, 22557, Note_off_c, 1, 78, 0
1, 22559, Note_off_c, 1, 70, 0
1, 22560, Note_on_c, 1, 71, 127
1, 22560, Note_on_c, 1, 74, 127
1, 22583, Note_off_c, 1, 71, 0
1, 22584, Note_on_c, 1, 73, 127
1, 22605, Note_off_c, 1, 74, 0
1, 22607, Note_off_c, 1, 73, 0
1, 22608, Note_on_c, 1, 74, 127
1, 22608, Note_on_c, 1, 71, 127
1, 22608, Note_on_c, 1, 59, 127
1, 22631, Note_off_c, 1, 74, 0
1, 22631, Note_off_c, 1, 59, 0
1, 22632, Note_on_c, 1, 76, 127
1, 22632, Note_on_c, 1, 61, 127
1, 22653, Note_off_c, 1, 71, 0
1, 22655, Note_off_c, 1, 76, 0
1, 22655, Note_off_c, 1, 61, 0
1, 22656, Note_on_c, 1, 78, 127
1, 22656, Note_on_c, 1, 83, 127
1, 22656, Note_on_c, 1, 59, 127
1, 22679, Note_off_c, 1, 78, 0
1, 22679, Note_off_c, 1, 59, 0
1, 22680, Note_on_c, 1, 73, 127
1, 22680, Note_on_c, 1, 57, 127
1, 22703, Note_off_c, 1, 73, 0
1, 22703, Note_off_c, 1, 57, 0
1, 22704, Note_on_c, 1, 81, 127
1, 22704, Note_on_c, 1, 55, 127
1, 22727, Note_off_c, 1, 55, 0
1, 22728, Note_on_c, 1, 54, 127
1, 22745, Note_off_c, 1, 83, 0
1, 22749, Note_off_c, 1, 81, 0
1, 22751, Note_off_c, 1, 54, 0
1, 22752, Note_on_c, 1, 79, 127
1, 22752, Note_on_c, 1, 52, 127
1, 22797, Note_off_c, 1, 79, 0
1, 22800, Note_on_c, 1, 72, 127
1, 22800, Note_on_c, 1, 64, 127
1, 22823, Note_off_c, 1, 64, 0
1, 22824, Note_on_c, 1, 66, 127
1, 22841, Note_off_c, 1, 52, 0
1, 22845, Note_off_c, 1, 72, 0
1, 22847, Note_off_c, 1, 66, 0
1, 22848, Note_on_c, 1, 72, 127
1, 22848, Note_on_c, 1, 67, 127
1, 22871, Note_off_c, 1, 67, 0
1, 22895, Note_off_c, 1, 72, 0
1, 22896, Note_on_c, 1, 72, 127
1, 22896, Note_on_c, 1, 76, 127
1, 22896, Note_on_c, 1, 40, 127
1, 22919, Note_off_c, 1, 76, 0
1, 22941, Note_off_c, 1, 40, 0
1, 22943, Note_off_c, 1, 72, 0
1, 22944, Note_on_c, 1, 72, 127
1, 22944, Note_on_c, 1, 67, 127
1, 22944, Note_on_c, 1, 52, 127
1, 22967, Note_off_c, 1, 67, 0
1, 22989, Note_off_c, 1, 52, 0
1, 22991, Note_off_c, 1, 72, 0
1, 22992, Note_on_c, 1, 72, 127
1, 22992, Note_on_c, 1, 66, 127
1, 22992, Note_on_c, 1, 51, 127
1, 23015, Note_off_c, 1, 66, 0
1, 23037, Note_off_c, 1, 51, 0
1, 23039, Note_off_c, 1, 72, 0
1, 23040, Note_on_c, 1, 72, 127
1, 23040, Note_on_c, 1, 67, 127
1, 23040, Note_on_c, 1, 52, 127
1, 23063, Note_off_c, 1, 67, 0
1, 23064, Note_on_c, 1, 66, 127
1, 23085, Note_off_c, 1, 72, 0
1, 23087, Note_off_c, 1, 66, 0
1, 23088, Note_on_c, 1, 76, 127
1, 23088, Note_on_c, 1, 64, 127
1, 23111, Note_off_c, 1, 76, 0
1, 23111, Note_off_c, 1, 64, 0
1, 23112, Note_on_c, 1, 74, 127
1, 23129, Note_off_c, 1, 52, 0
1, 23135, Note_off_c, 1, 74, 0
1, 23136, Note_on_c, 1, 72, 127
1, 23136, Note_on_c, 1, 67, 127
1, 23159, Note_off_c, 1, 67, 0
1, 23183, Note_off_c, 1, 72, 0
1, 23184, Note_on_c, 1, 72, 127
1, 23184, Note_on_c, 1, 76, 127
1, 23184, Note_on_c, 1, 52, 127
1, 23207, Note_off_c, 1, 76, 0
1, 23207, Note_off_c, 1, 52, 0
1, 23208, Note_on_c, 1, 51, 127
1, 23231, Note_off_c, 1, 72, 0
1, 23231, Note_off_c, 1, 51, 0
1, 23232, Note_on_c, 1, 72, 127
1, 23232, Note_on_c, 1, 71, 127
1, 23232, Note_on_c, 1, 52, 127
1, 23255, Note_off_c, 1, 71, 0
1, 23256, Note_on_c, 1, 69, 127
1, 23277, Note_off_c, 1, 72, 0
1, 23277, Note_off_c, 1, 52, 0
1, 23279, Note_off_c, 1, 69, 0
1, 23280, Note_on_c, 1, 72, 127
1, 23280, Note_on_c, 1, 67, 127
1, 23280, Note_on_c, 1, 54, 127
1, 23303, Note_off_c, 1, 67, 0
1, 23304, Note_on_c, 1, 66, 127
1, 23325, Note_off_c, 1, 72, 0
1, 23325, Note_off_c, 1, 54, 0
1, 23327, Note_off_c, 1, 66, 0
1, 23328, Note_on_c, 1, 73, 127
1, 23328, Note_on_c, 1, 64, 127
1, 23328, Note_on_c, 1, 55, 127
1, 23351, Note_off_c, 1, 64, 0
1, 23352, Note_on_c, 1, 62, 127
1, 23373, Note_off_c, 1, 73, 0
1, 23373, Note_off_c, 1, 55, 0
1, 23375, Note_off_c, 1, 62, 0
1, 23376, Note_on_c, 1, 70, 127
1, 23376, Note_on_c, 1, 61, 127
1, 23376, Note_on_c, 1, 52, 127
1, 23399, Note_off_c, 1, 70, 0
1, 23399, Note_off_c, 1, 61, 0
1, 23400, Note_on_c, 1, 71, 127
1, 23400, Note_on_c, 1, 62, 127
1, 23421, Note_off_c, 1, 52, 0
1, 23423, Note_off_c, 1, 71, 0
1, 23423, Note_off_c, 1, 62, 0
1, 23424, Note_on_c, 1, 73, 127
1, 23424, Note_on_c, 1, 64, 127
1, 23424, Note_on_c, 1, 58, 127
1, 23447, Note_off_c, 1, 64, 0
1, 23448, Note_on_c, 1, 66, 127
1, 23469, Note_off_c, 1, 73, 0
1, 23469, Note_off_c, 1, 58, 0
1, 23471, Note_off_c, 1, 66, 0
1, 23472, Note_on_c, 1, 71, 127
1, 23472, Note_on_c, 1, 68, 127
1, 23472, Note_on_c, 1, 54, 127
1, 23495, Note_off_c, 1, 71, 0
1, 23495, Note_off_c, 1, 68, 0
1, 23496, Note_on_c, 1, 73, 127
1, 23496, Note_on_c, 1, 70, 127
1, 23517, Note_off_c, 1, 54, 0
1, 23519, Note_off_c, 1, 73, 0
1, 23519, Note_off_c, 1, 70, 0
1, 23520, Note_on_c, 1, 74, 127
1, 23520, Note_on_c, 1, 71, 127
1, 23520, Note_on_c, 1, 59, 127
1, 23543, Note_off_c, 1, 71, 0
1, 23544, Note_on_c, 1, 73, 127
1, 23565, Note_off_c, 1, 74, 0
1, 23565, Note_off_c, 1, 59, 0
1, 23567, Note_off_c, 1, 73, 0
1, 23568, Note_on_c, 1, 70, 127
1, 23568, Note_on_c, 1, 74, 127
1, 23568, Note_on_c, 1, 54, 127
1, 23591, Note_off_c, 1, 74, 0
1, 23592, Note_on_c, 1, 76, 127
1, 23613, Note_off_c, 1, 70, 0
1, 23613, Note_off_c, 1, 54, 0
1, 23615, Note_off_c, 1, 76, 0
1, 23616, Note_on_c, 1, 71, 127
1, 23616, Note_on_c, 1, 78, 127
1, 23616, Note_on_c, 1, 50, 127
1, 23639, Note_off_c, 1, 78, 0
1, 23640, Note_on_c, 1, 76, 127
1, 23661, Note_off_c, 1, 71, 0
1, 23661, Note_off_c, 1, 50, 0
1, 23663, Note_off_c, 1, 76, 0
1, 23664, Note_on_c, 1, 73, 127
1, 23664, Note_on_c, 1, 78, 127
1, 23664, Note_on_c, 1, 52, 127
1, 23687, Note_off_c, 1, 78, 0
1, 23688, Note_on_c, 1, 79, 127
1, 23709, Note_off_c, 1, 73, 0
1, 23709, Note_off_c, 1, 52, 0
1, 23711, Note_off_c, 1, 79, 0
1, 23712, Note_on_c, 1, 70, 127
1, 23712, Note_on_c, 1, 73, 127
1, 23712, Note_on_c, 1, 54, 127
1, 23757, Note_off_c, 1, 54, 0
1, 23760, Note_on_c, 1, 52, 127
1, 23805, Note_off_c, 1, 52, 0
1, 23845, Note_off_c, 1, 70, 0
1, 23845, Note_off_c, 1, 73, 0
1, 23856, Note_on_c, 1, 71, 127
1, 23856, Note_on_c, 1, 42, 127
1, 23901, Note_off_c, 1, 71, 0
1, 23901, Note_off_c, 1, 42, 0
1, 23904, Note_on_c, 1, 71, 127
1, 23904, Note_on_c, 1, 47, 127
1, 24169, Note_off_c, 1, 71, 0
1, 24169, Note_off_c, 1, 47, 0
1, 24192, Note_on_c, 1, 81, 127
1, 24192, Note_on_c, 1, 54, 127
1, 24215, Note_off_c, 1, 81, 0
1, 24216, Note_on_c, 1, 79, 127
1, 24239, Note_off_c, 1, 79, 0
1, 24240, Note_on_c, 1, 78, 127
1, 24263, Note_off_c, 1, 78, 0
1, 24281, Note_off_c, 1, 54, 0
1, 24288, Note_on_c, 1, 81, 127
1, 24312, Note_on_c, 1, 83, 127
1, 24333, Note_off_c, 1, 81, 0
1, 24335, Note_off_c, 1, 83, 0
1, 24336, Note_on_c, 1, 81, 127
1, 24336, Note_on_c, 1, 84, 127
1, 24336, Note_on_c, 1, 57, 127
1, 24359, Note_off_c, 1, 84, 0
1, 24359, Note_off_c, 1, 57, 0
1, 24360, Note_on_c, 1, 83, 127
1, 24360, Note_on_c, 1, 55, 127
1, 24381, Note_off_c, 1, 81, 0
1, 24383, Note_off_c, 1, 83, 0
1, 24383, Note_off_c, 1, 55, 0
1, 24384, Note_on_c, 1, 81, 127
1, 24384, Note_on_c, 1, 54, 127
1, 24408, Note_on_c, 1, 84, 127
1, 24429, Note_off_c, 1, 81, 0
1, 24429, Note_off_c, 1, 54, 0
1, 24431, Note_off_c, 1, 84, 0
1, 24432, Note_on_c, 1, 81, 127
1, 24432, Note_on_c, 1, 79, 127
1, 24432, Note_on_c, 1, 52, 127
1, 24455, Note_off_c, 1, 79, 0
1, 24456, Note_on_c, 1, 84, 127
1, 24477, Note_off_c, 1, 81, 0
1, 24477, Note_off_c, 1, 52, 0
1, 24479, Note_off_c, 1, 84, 0
1, 24480, Note_on_c, 1, 81, 127
1, 24480, Note_on_c, 1, 78, 127
1, 24480, Note_on_c, 1, 51, 127
1, 24503, Note_off_c, 1, 78, 0
1, 24504, Note_on_c, 1, 76, 127
1, 24525, Note_off_c, 1, 81, 0
1, 24527, Note_off_c, 1, 76, 0
1, 24528, Note_on_c, 1, 84, 127
1, 24528, Note_on_c, 1, 75, 127
1, 24551, Note_off_c, 1, 84, 0
1, 24551, Note_off_c, 1, 75, 0
1, 24552, Note_on_c, 1, 83, 127
1, 24569, Note_off_c, 1, 51, 0
1, 24575, Note_off_c, 1, 83, 0
1, 24576, Note_on_c, 1, 81, 127
1, 24576, Note_on_c, 1, 78, 127
1, 24599, Note_off_c, 1, 78, 0
1, 24600, Note_on_c, 1, 79, 127
1, 24621, Note_off_c, 1, 81, 0
1, 24623, Note_off_c, 1, 79, 0
1, 24624, Note_on_c, 1, 81, 127
1, 24624, Note_on_c, 1, 54, 127
1, 24647, Note_off_c, 1, 54, 0
1, 24648, Note_on_c, 1, 79, 127
1, 24648, Note_on_c, 1, 52, 127
1, 24669, Note_off_c, 1, 81, 0
1, 24671, Note_off_c, 1, 79, 0
1, 24671, Note_off_c, 1, 52, 0
1, 24672, Note_on_c, 1, 81, 127
1, 24672, Note_on_c, 1, 78, 127
1, 24672, Note_on_c, 1, 51, 127
1, 24695, Note_off_c, 1, 78, 0
1, 24717, Note_off_c, 1, 51, 0
1, 24719, Note_off_c, 1, 81, 0
1, 24720, Note_on_c, 1, 81, 127
1, 24720, Note_on_c, 1, 76, 127
1, 24720, Note_on_c, 1, 49, 127
1, 24743, Note_off_c, 1, 76, 0
1, 24765, Note_off_c, 1, 49, 0
1, 24767, Note_off_c, 1, 81, 0
1, 24768, Note_on_c, 1, 81, 127
1, 24768, Note_on_c, 1, 75, 127
1, 24768, Note_on_c, 1, 47, 127
1, 24791, Note_off_c, 1, 75, 0
1, 24792, Note_on_c, 1, 76, 127
1, 24813, Note_off_c, 1, 81, 0
1, 24813, Note_off_c, 1, 47, 0
1, 24815, Note_off_c, 1, 76, 0
1, 24816, Note_on_c, 1, 78, 127
1, 24816, Note_on_c, 1, 57, 127
1, 24839, Note_off_c, 1, 78, 0
1, 24840, Note_on_c, 1, 79, 127
1, 24840, Note_on_c, 1, 76, 127
1, 24861, Note_off_c, 1, 57, 0
1, 24863, Note_off_c, 1, 79, 0
1, 24863, Note_off_c, 1, 76, 0
1, 24864, Note_on_c, 1, 81, 127
1, 24864, Note_on_c, 1, 75, 127
1, 24864, Note_on_c, 1, 54, 127
1, 24887, Note_off_c, 1, 75, 0
1, 24888, Note_on_c, 1, 73, 127
1, 24909, Note_off_c, 1, 81, 0
1, 24909, Note_off_c, 1, 54, 0
1, 24911, Note_off_c, 1, 73, 0
1, 24912, Note_on_c, 1, 79, 127
1, 24912, Note_on_c, 1, 71, 127
1, 24912, Note_on_c, 1, 51, 127
1, 24935, Note_off_c, 1, 79, 0
1, 24935, Note_off_c, 1, 71, 0
1, 24936, Note_on_c, 1, 81, 127
1, 24936, Note_on_c, 1, 69, 127
1, 24957, Note_off_c, 1, 51, 0
1, 24959, Note_off_c, 1, 81, 0
1, 24959, Note_off_c, 1, 69, 0
1, 24960, Note_on_c, 1, 83, 127
1, 24960, Note_on_c, 1, 67, 127
1, 24960, Note_on_c, 1, 47, 127
1, 24983, Note_off_c, 1, 67, 0
1, 24984, Note_on_c, 1, 66, 127
1, 25005, Note_off_c, 1, 83, 0
1, 25005, Note_off_c, 1, 47, 0
1, 25007, Note_off_c, 1, 66, 0
1, 25008, Note_on_c, 1, 78, 127
1, 25008, Note_on_c, 1, 64, 127
1, 25008, Note_on_c, 1, 59, 127
1, 25031, Note_off_c, 1, 64, 0
1, 25032, Note_on_c, 1, 63, 127
1, 25053, Note_off_c, 1, 78, 0
1, 25053, Note_off_c, 1, 59, 0
1, 25055, Note_off_c, 1, 63, 0
1, 25056, Note_on_c, 1, 79, 127
1, 25056, Note_on_c, 1, 62, 127
1, 25056, Note_on_c, 1, 52, 127
1, 25079, Note_off_c, 1, 79, 0
1, 25080, Note_on_c, 1, 78, 127
1, 25101, Note_off_c, 1, 62, 0
1, 25103, Note_off_c, 1, 78, 0
1, 25104, Note_on_c, 1, 76, 127
1, 25127, Note_off_c, 1, 76, 0
1, 25145, Note_off_c, 1, 52, 0
1, 25152, Note_on_c, 1, 79, 127
1, 25176, Note_on_c, 1, 81, 127
1, 25197, Note_off_c, 1, 79, 0
1, 25199, Note_off_c, 1, 81, 0
1, 25200, Note_on_c, 1, 83, 127
1, 25200, Note_on_c, 1, 79, 127
1, 25200, Note_on_c, 1, 55, 127
1, 25223, Note_off_c, 1, 83, 0
1, 25223, Note_off_c, 1, 55, 0
1, 25224, Note_on_c, 1, 81, 127
1, 25224, Note_on_c, 1, 54, 127
1, 25245, Note_off_c, 1, 79, 0
1, 25247, Note_off_c, 1, 81, 0
1, 25247, Note_off_c, 1, 54, 0
1, 25248, Note_on_c, 1, 79, 127
1, 25248, Note_on_c, 1, 52, 127
1, 25272, Note_on_c, 1, 83, 127
1, 25293, Note_off_c, 1, 79, 0
1, 25293, Note_off_c, 1, 52, 0
1, 25295, Note_off_c, 1, 83, 0
1, 25296, Note_on_c, 1, 78, 127
1, 25296, Note_on_c, 1, 79, 127
1, 25296, Note_on_c, 1, 50, 127
1, 25319, Note_off_c, 1, 78, 0
1, 25320, Note_on_c, 1, 83, 127
1, 25341, Note_off_c, 1, 79, 0
1, 25341, Note_off_c, 1, 50, 0
1, 25343, Note_off_c, 1, 83, 0
1, 25344, Note_on_c, 1, 76, 127
1, 25344, Note_on_c, 1, 79, 127
1, 25344, Note_on_c, 1, 49, 127
1, 25367, Note_off_c, 1, 76, 0
1, 25368, Note_on_c, 1, 74, 127
1, 25389, Note_off_c, 1, 79, 0
1, 25391, Note_off_c, 1, 74, 0
1, 25392, Note_on_c, 1, 73, 127
1, 25392, Note_on_c, 1, 83, 127
1, 25415, Note_off_c, 1, 73, 0
1, 25415, Note_off_c, 1, 83, 0
1, 25416, Note_on_c, 1, 81, 127
1, 25433, Note_off_c, 1, 49, 0
1, 25439, Note_off_c, 1, 81, 0
1, 25440, Note_on_c, 1, 76, 127
1, 25440, Note_on_c, 1, 79, 127
1, 25463, Note_off_c, 1, 76, 0
1, 25464, Note_on_c, 1, 78, 127
1, 25485, Note_off_c, 1, 79, 0
1, 25487, Note_off_c, 1, 78, 0
1, 25488, Note_on_c, 1, 79, 127
1, 25488, Note_on_c, 1, 52, 127
1, 25511, Note_off_c, 1, 52, 0
1, 25512, Note_on_c, 1, 78, 127
1, 25512, Note_on_c, 1, 50, 127
1, 25533, Note_off_c, 1, 79, 0
1, 25535, Note_off_c, 1, 78, 0
1, 25535, Note_off_c, 1, 50, 0
1, 25536, Note_on_c, 1, 76, 127
1, 25536, Note_on_c, 1, 79, 127
1, 25536, Note_on_c, 1, 49, 127
1, 25559, Note_off_c, 1, 76, 0
1, 25581, Note_off_c, 1, 49, 0
1, 25583, Note_off_c, 1, 79, 0
1, 25584, Note_on_c, 1, 74, 127
1, 25584, Note_on_c, 1, 79, 127
1, 25584, Note_on_c, 1, 47, 127
1, 25607, Note_off_c, 1, 74, 0
1, 25629, Note_off_c, 1, 47, 0
1, 25631, Note_off_c, 1, 79, 0
1, 25632, Note_on_c, 1, 73, 127
1, 25632, Note_on_c, 1, 79, 127
1, 25632, Note_on_c, 1, 45, 127
1, 25655, Note_off_c, 1, 73, 0
1, 25656, Note_on_c, 1, 74, 127
1, 25677, Note_off_c, 1, 79, 0
1, 25677, Note_off_c, 1, 45, 0
1, 25679, Note_off_c, 1, 74, 0
1, 25680, Note_on_c, 1, 76, 127
1, 25680, Note_on_c, 1, 55, 127
1, 25703, Note_off_c, 1, 76, 0
1, 25704, Note_on_c, 1, 74, 127
1, 25704, Note_on_c, 1, 78, 127
1, 25725, Note_off_c, 1, 55, 0
1, 25727, Note_off_c, 1, 74, 0
1, 25727, Note_off_c, 1, 78, 0
1, 25728, Note_on_c, 1, 73, 127
1, 25728, Note_on_c, 1, 79, 127
1, 25728, Note_on_c, 1, 52, 127
1, 25751, Note_off_c, 1, 73, 0
1, 25752, Note_on_c, 1, 71, 127
1, 25773, Note_off_c, 1, 79, 0
1, 25773, Note_off_c, 1, 52, 0
1, 25775, Note_off_c, 1, 71, 0
1, 25776, Note_on_c, 1, 69, 127
1, 25776, Note_on_c, 1, 78, 127
1, 25776, Note_on_c, 1, 49, 127
1, 25799, Note_off_c, 1, 69, 0
1, 25799, Note_off_c, 1, 78, 0
1, 25800, Note_on_c, 1, 67, 127
1, 25800, Note_on_c, 1, 79, 127
1, 25821, Note_off_c, 1, 49, 0
1, 25823, Note_off_c, 1, 67, 0
1, 25823, Note_off_c, 1, 79, 0
1, 25824, Note_on_c, 1, 66, 127
1, 25824, Note_on_c, 1, 81, 127
1, 25824, Note_on_c, 1, 45, 127
1, 25847, Note_off_c, 1, 66, 0
1, 25848, Note_on_c, 1, 64, 127
1, 25869, Note_off_c, 1, 81, 0
1, 25869, Note_off_c, 1, 45, 0
1, 25871, Note_off_c, 1, 64, 0
1, 25872, Note_on_c, 1, 62, 127
1, 25872, Note_on_c, 1, 76, 127
1, 25872, Note_on_c, 1, 57, 127
1, 25895, Note_off_c, 1, 62, 0
1, 25896, Note_on_c, 1, 61, 127
1, 25917, Note_off_c, 1, 76, 0
1, 25917, Note_off_c, 1, 57, 0
1, 25919, Note_off_c, 1, 61, 0
1, 25920, Note_on_c, 1, 62, 127
1, 25920, Note_on_c, 1, 78, 127
1, 25920, Note_on_c, 1, 50, 127
1, 25943, Note_off_c, 1, 78, 0
1, 25944, Note_on_c, 1, 76, 127
1, 25965, Note_off_c, 1, 62, 0
1, 25965, Note_off_c, 1, 50, 0
1, 25967, Note_off_c, 1, 76, 0
1, 25968, Note_on_c, 1, 78, 127
1, 25968, Note_on_c, 1, 74, 127
1, 25968, Note_on_c, 1, 50, 127
1, 25991, Note_off_c, 1, 78, 0
1, 25991, Note_off_c, 1, 74, 0
1, 25992, Note_on_c, 1, 79, 127
1, 25992, Note_on_c, 1, 76, 127
1, 26013, Note_off_c, 1, 50, 0
1, 26015, Note_off_c, 1, 79, 0
1, 26015, Note_off_c, 1, 76, 0
1, 26016, Note_on_c, 1, 81, 127
1, 26016, Note_on_c, 1, 78, 127
1, 26016, Note_on_c, 1, 50, 127
1, 26039, Note_off_c, 1, 81, 0
1, 26039, Note_off_c, 1, 78, 0
1, 26040, Note_on_c, 1, 79, 127
1, 26061, Note_off_c, 1, 50, 0
1, 26063, Note_off_c, 1, 79, 0
1, 26064, Note_on_c, 1, 78, 127
1, 26064, Note_on_c, 1, 81, 127
1, 26064, Note_on_c, 1, 50, 127
1, 26087, Note_off_c, 1, 78, 0
1, 26087, Note_off_c, 1, 81, 0
1, 26088, Note_on_c, 1, 76, 127
1, 26088, Note_on_c, 1, 79, 127
1, 26109, Note_off_c, 1, 50, 0
1, 26111, Note_off_c, 1, 76, 0
1, 26111, Note_off_c, 1, 79, 0
1, 26112, Note_on_c, 1, 74, 127
1, 26112, Note_on_c, 1, 78, 127
1, 26112, Note_on_c, 1, 50, 127
1, 26135, Note_off_c, 1, 78, 0
1, 26136, Note_on_c, 1, 81, 127
1, 26157, Note_off_c, 1, 74, 0
1, 26157, Note_off_c, 1, 50, 0
1, 26159, Note_off_c, 1, 81, 0
1, 26160, Note_on_c, 1, 73, 127
1, 26160, Note_on_c, 1, 76, 127
1, 26160, Note_on_c, 1, 50, 127
1, 26183, Note_off_c, 1, 76, 0
1, 26184, Note_on_c, 1, 81, 127
1, 26205, Note_off_c, 1, 73, 0
1, 26205, Note_off_c, 1, 50, 0
1, 26207, Note_off_c, 1, 81, 0
1, 26208, Note_on_c, 1, 71, 127
1, 26208, Note_on_c, 1, 74, 127
1, 26208, Note_on_c, 1, 50, 127
1, 26231, Note_off_c, 1, 74, 0
1, 26232, Note_on_c, 1, 73, 127
1, 26253, Note_off_c, 1, 71, 0
1, 26253, Note_off_c, 1, 50, 0
1, 26255, Note_off_c, 1, 73, 0
1, 26256, Note_on_c, 1, 74, 127
1, 26256, Note_on_c, 1, 71, 127
1, 26256, Note_on_c, 1, 54, 127
1, 26279, Note_off_c, 1, 74, 0
1, 26279, Note_off_c, 1, 71, 0
1, 26279, Note_off_c, 1, 54, 0
1, 26280, Note_on_c, 1, 76, 127
1, 26280, Note_on_c, 1, 73, 127
1, 26280, Note_on_c, 1, 52, 127
1, 26303, Note_off_c, 1, 76, 0
1, 26303, Note_off_c, 1, 73, 0
1, 26303, Note_off_c, 1, 52, 0
1, 26304, Note_on_c, 1, 78, 127
1, 26304, Note_on_c, 1, 74, 127
1, 26304, Note_on_c, 1, 50, 127
1, 26327, Note_off_c, 1, 78, 0
1, 26327, Note_off_c, 1, 74, 0
1, 26328, Note_on_c, 1, 76, 127
1, 26349, Note_off_c, 1, 50, 0
1, 26351, Note_off_c, 1, 76, 0
1, 26352, Note_on_c, 1, 74, 127
1, 26352, Note_on_c, 1, 78, 127
1, 26352, Note_on_c, 1, 50, 127
1, 26375, Note_off_c, 1, 74, 0
1, 26375, Note_off_c, 1, 78, 0
1, 26376, Note_on_c, 1, 73, 127
1, 26376, Note_on_c, 1, 76, 127
1, 26397, Note_off_c, 1, 50, 0
1, 26399, Note_off_c, 1, 73, 0
1, 26399, Note_off_c, 1, 76, 0
1, 26400, Note_on_c, 1, 71, 127
1, 26400, Note_on_c, 1, 74, 127
1, 26400, Note_on_c, 1, 50, 127
1, 26423, Note_off_c, 1, 74, 0
1, 26424, Note_on_c, 1, 78, 127
1, 26445, Note_off_c, 1, 71, 0
1, 26445, Note_off_c, 1, 50, 0
1, 26447, Note_off_c, 1, 78, 0
1, 26448, Note_on_c, 1, 69, 127
1, 26448, Note_on_c, 1, 73, 127
1, 26448, Note_on_c, 1, 50, 127
1, 26471, Note_off_c, 1, 73, 0
1, 26472, Note_on_c, 1, 78, 127
1, 26493, Note_off_c, 1, 69, 0
1, 26493, Note_off_c, 1, 50, 0
1, 26495, Note_off_c, 1, 78, 0
1, 26496, Note_on_c, 1, 68, 127
1, 26496, Note_on_c, 1, 71, 127
1, 26496, Note_on_c, 1, 50, 127
1, 26519, Note_off_c, 1, 71, 0
1, 26520, Note_on_c, 1, 73, 127
1, 26541, Note_off_c, 1, 68, 0
1, 26541, Note_off_c, 1, 50, 0
1, 26543, Note_off_c, 1, 73, 0
1, 26544, Note_on_c, 1, 80, 127
1, 26544, Note_on_c, 1, 74, 127
1, 26544, Note_on_c, 1, 47, 127
1, 26567, Note_off_c, 1, 80, 0
1, 26567, Note_off_c, 1, 74, 0
1, 26567, Note_off_c, 1, 47, 0
1, 26568, Note_on_c, 1, 78, 127
1, 26568, Note_on_c, 1, 73, 127
1, 26568, Note_on_c, 1, 49, 127
1, 26591, Note_off_c, 1, 78, 0
1, 26591, Note_off_c, 1, 73, 0
1, 26591, Note_off_c, 1, 49, 0
1, 26592, Note_on_c, 1, 80, 127
1, 26592, Note_on_c, 1, 71, 127
1, 26592, Note_on_c, 1, 50, 127
1, 26615, Note_off_c, 1, 71, 0
1, 26616, Note_on_c, 1, 69, 127
1, 26637, Note_off_c, 1, 80, 0
1, 26637, Note_off_c, 1, 50, 0
1, 26639, Note_off_c, 1, 69, 0
1, 26640, Note_on_c, 1, 83, 127
1, 26640, Note_on_c, 1, 68, 127
1, 26640, Note_on_c, 1, 52, 127
1, 26663, Note_off_c, 1, 68, 0
1, 26663, Note_off_c, 1, 52, 0
1, 26664, Note_on_c, 1, 66, 127
1, 26664, Note_on_c, 1, 54, 127
1, 26685, Note_off_c, 1, 83, 0
1, 26687, Note_off_c, 1, 66, 0
1, 26687, Note_off_c, 1, 54, 0
1, 26688, Note_on_c, 1, 76, 127
1, 26688, Note_on_c, 1, 64, 127
1, 26688, Note_on_c, 1, 56, 127
1, 26711, Note_off_c, 1, 64, 0
1, 26712, Note_on_c, 1, 62, 127
1, 26733, Note_off_c, 1, 76, 0
1, 26733, Note_off_c, 1, 56, 0
1, 26735, Note_off_c, 1, 62, 0
1, 26736, Note_on_c, 1, 80, 127
1, 26736, Note_on_c, 1, 61, 127
1, 26736, Note_on_c, 1, 52, 127
1, 26759, Note_off_c, 1, 61, 0
1, 26760, Note_on_c, 1, 59, 127
1, 26781, Note_off_c, 1, 80, 0
1, 26781, Note_off_c, 1, 52, 0
1, 26783, Note_off_c, 1, 59, 0
1, 26784, Note_on_c, 1, 81, 127
1, 26784, Note_on_c, 1, 61, 127
1, 26784, Note_on_c, 1, 57, 127
1, 26807, Note_off_c, 1, 61, 0
1, 26808, Note_on_c, 1, 64, 127
1, 26829, Note_off_c, 1, 81, 0
1, 26829, Note_off_c, 1, 57, 0
1, 26831, Note_off_c, 1, 64, 0
1, 26832, Note_on_c, 1, 76, 127
1, 26832, Note_on_c, 1, 69, 127
1, 26832, Note_on_c, 1, 45, 127
1, 26855, Note_off_c, 1, 69, 0
1, 26855, Note_off_c, 1, 45, 0
1, 26856, Note_on_c, 1, 68, 127
1, 26856, Note_on_c, 1, 47, 127
1, 26877, Note_off_c, 1, 76, 0
1, 26879, Note_off_c, 1, 68, 0
1, 26879, Note_off_c, 1, 47, 0
1, 26880, Note_on_c, 1, 76, 127
1, 26880, Note_on_c, 1, 69, 127
1, 26880, Note_on_c, 1, 49, 127
1, 26903, Note_off_c, 1, 69, 0
1, 26903, Note_off_c, 1, 49, 0
1, 26904, Note_on_c, 1, 73, 127
1, 26904, Note_on_c, 1, 52, 127
1, 26925, Note_off_c, 1, 76, 0
1, 26927, Note_off_c, 1, 73, 0
1, 26927, Note_off_c, 1, 52, 0
1, 26928, Note_on_c, 1, 76, 127
1, 26928, Note_on_c, 1, 57, 127
1, 26951, Note_off_c, 1, 57, 0
1, 26952, Note_on_c, 1, 73, 127
1, 26952, Note_on_c, 1, 52, 127
1, 26973, Note_off_c, 1, 76, 0
1, 26975, Note_off_c, 1, 73, 0
1, 26975, Note_off_c, 1, 52, 0
1, 26976, Note_on_c, 1, 76, 127
1, 26976, Note_on_c, 1, 69, 127
1, 26976, Note_on_c, 1, 49, 127
1, 26999, Note_off_c, 1, 69, 0
1, 26999, Note_off_c, 1, 49, 0
1, 27000, Note_on_c, 1, 73, 127
1, 27000, Note_on_c, 1, 52, 127
1, 27021, Note_off_c, 1, 76, 0
1, 27023, Note_off_c, 1, 73, 0
1, 27023, Note_off_c, 1, 52, 0
1, 27024, Note_on_c, 1, 76, 127
1, 27024, Note_on_c, 1, 68, 127
1, 27024, Note_on_c, 1, 47, 127
1, 27047, Note_off_c, 1, 68, 0
1, 27047, Note_off_c, 1, 47, 0
1, 27048, Note_on_c, 1, 71, 127
1, 27048, Note_on_c, 1, 52, 127
1, 27069, Note_off_c, 1, 76, 0
1, 27071, Note_off_c, 1, 71, 0
1, 27071, Note_off_c, 1, 52, 0
1, 27072, Note_on_c, 1, 76, 127
1, 27072, Note_on_c, 1, 69, 127
1, 27072, Note_on_c, 1, 49, 127
1, 27095, Note_off_c, 1, 69, 0
1, 27095, Note_off_c, 1, 49, 0
1, 27096, Note_on_c, 1, 71, 127
1, 27096, Note_on_c, 1, 47, 127
1, 27117, Note_off_c, 1, 76, 0
1, 27119, Note_off_c, 1, 71, 0
1, 27119, Note_off_c, 1, 47, 0
1, 27120, Note_on_c, 1, 81, 127
1, 27120, Note_on_c, 1, 73, 127
1, 27120, Note_on_c, 1, 45, 127
1, 27143, Note_off_c, 1, 81, 0
1, 27143, Note_off_c, 1, 73, 0
1, 27143, Note_off_c, 1, 45, 0
1, 27144, Note_on_c, 1, 80, 127
1, 27144, Note_on_c, 1, 74, 127
1, 27144, Note_on_c, 1, 47, 127
1, 27167, Note_off_c, 1, 80, 0
1, 27167, Note_off_c, 1, 74, 0
1, 27167, Note_off_c, 1, 47, 0
1, 27168, Note_on_c, 1, 81, 127
1, 27168, Note_on_c, 1, 76, 127
1, 27168, Note_on_c, 1, 49, 127
1, 27191, Note_off_c, 1, 76, 0
1, 27191, Note_off_c, 1, 49, 0
1, 27192, Note_on_c, 1, 52, 127
1, 27215, Note_off_c, 1, 81, 0
1, 27215, Note_off_c, 1, 52, 0
1, 27216, Note_on_c, 1, 76, 127
1, 27216, Note_on_c, 1, 85, 127
1, 27216, Note_on_c, 1, 57, 127
1, 27239, Note_off_c, 1, 85, 0
1, 27239, Note_off_c, 1, 57, 0
1, 27240, Note_on_c, 1, 81, 127
1, 27240, Note_on_c, 1, 52, 127
1, 27261, Note_off_c, 1, 76, 0
1, 27263, Note_off_c, 1, 81, 0
1, 27263, Note_off_c, 1, 52, 0
1, 27264, Note_on_c, 1, 76, 127
1, 27264, Note_on_c, 1, 83, 127
1, 27264, Note_on_c, 1, 50, 127
1, 27287, Note_off_c, 1, 83, 0
1, 27287, Note_off_c, 1, 50, 0
1, 27288, Note_on_c, 1, 81, 127
1, 27288, Note_on_c, 1, 49, 127
1, 27309, Note_off_c, 1, 76, 0
1, 27311, Note_off_c, 1, 81, 0
1, 27311, Note_off_c, 1, 49, 0
1, 27312, Note_on_c, 1, 76, 127
1, 27312, Note_on_c, 1, 80, 127
1, 27312, Note_on_c, 1, 47, 127
1, 27335, Note_off_c, 1, 80, 0
1, 27335, Note_off_c, 1, 47, 0
1, 27336, Note_on_c, 1, 81, 127
1, 27336, Note_on_c, 1, 45, 127
1, 27357, Note_off_c, 1, 76, 0
1, 27359, Note_off_c, 1, 81, 0
1, 27359, Note_off_c, 1, 45, 0
1, 27360, Note_on_c, 1, 76, 127
1, 27360, Note_on_c, 1, 83, 127
1, 27360, Note_on_c, 1, 44, 127
1, 27383, Note_off_c, 1, 83, 0
1, 27383, Note_off_c, 1, 44, 0
1, 27384, Note_on_c, 1, 81, 127
1, 27384, Note_on_c, 1, 42, 127
1, 27405, Note_off_c, 1, 76, 0
1, 27407, Note_off_c, 1, 81, 0
1, 27407, Note_off_c, 1, 42, 0
1, 27408, Note_on_c, 1, 83, 127
1, 27408, Note_on_c, 1, 80, 127
1, 27408, Note_on_c, 1, 40, 127
1, 27431, Note_off_c, 1, 83, 0
1, 27431, Note_off_c, 1, 80, 0
1, 27431, Note_off_c, 1, 40, 0
1, 27432, Note_on_c, 1, 81, 127
1, 27432, Note_on_c, 1, 78, 127
1, 27432, Note_on_c, 1, 42, 127
1, 27455, Note_off_c, 1, 81, 0
1, 27455, Note_off_c, 1, 78, 0
1, 27455, Note_off_c, 1, 42, 0
1, 27456, Note_on_c, 1, 83, 127
1, 27456, Note_on_c, 1, 76, 127
1, 27456, Note_on_c, 1, 44, 127
1, 27479, Note_off_c, 1, 76, 0
1, 27479, Note_off_c, 1, 44, 0
1, 27480, Note_on_c, 1, 78, 127
1, 27480, Note_on_c, 1, 45, 127
1, 27501, Note_off_c, 1, 83, 0
1, 27503, Note_off_c, 1, 78, 0
1, 27503, Note_off_c, 1, 45, 0
1, 27504, Note_on_c, 1, 76, 127
1, 27504, Note_on_c, 1, 80, 127
1, 27504, Note_on_c, 1, 47, 127
1, 27527, Note_off_c, 1, 80, 0
1, 27527, Note_off_c, 1, 47, 0
1, 27528, Note_on_c, 1, 81, 127
1, 27528, Note_on_c, 1, 49, 127
1, 27549, Note_off_c, 1, 76, 0
1, 27551, Note_off_c, 1, 81, 0
1, 27551, Note_off_c, 1, 49, 0
1, 27552, Note_on_c, 1, 76, 127
1, 27552, Note_on_c, 1, 83, 127
1, 27552, Note_on_c, 1, 50, 127
1, 27575, Note_off_c, 1, 83, 0
1, 27575, Note_off_c, 1, 50, 0
1, 27576, Note_on_c, 1, 81, 127
1, 27576, Note_on_c, 1, 49, 127
1, 27597, Note_off_c, 1, 76, 0
1, 27599, Note_off_c, 1, 81, 0
1, 27599, Note_off_c, 1, 49, 0
1, 27600, Note_on_c, 1, 76, 127
1, 27600, Note_on_c, 1, 83, 127
1, 27600, Note_on_c, 1, 50, 127
1, 27623, Note_off_c, 1, 83, 0
1, 27623, Note_off_c, 1, 50, 0
1, 27624, Note_on_c, 1, 80, 127
1, 27624, Note_on_c, 1, 47, 127
1, 27645, Note_off_c, 1, 76, 0
1, 27647, Note_off_c, 1, 80, 0
1, 27647, Note_off_c, 1, 47, 0
1, 27648, Note_on_c, 1, 76, 127
1, 27648, Note_on_c, 1, 81, 127
1, 27648, Note_on_c, 1, 49, 127
1, 27693, Note_off_c, 1, 76, 0
1, 27693, Note_off_c, 1, 81, 0
1, 27693, Note_off_c, 1, 49, 0
1, 27696, Note_on_c, 1, 81, 127
1, 27696, Note_on_c, 1, 69, 127
1, 27696, Note_on_c, 1, 54, 127
1, 27708, Note_off_c, 1, 81, 0
1, 27708, Note_on_c, 1, 83, 127
1, 27720, Note_off_c, 1, 83, 0
1, 27720, Note_on_c, 1, 84, 127
1, 27741, Note_off_c, 1, 69, 0
1, 27741, Note_off_c, 1, 54, 0
1, 27743, Note_off_c, 1, 84, 0
1, 27744, Note_on_c, 1, 83, 127
1, 27744, Note_on_c, 1, 51, 127
1, 27789, Note_off_c, 1, 83, 0
1, 27789, Note_off_c, 1, 51, 0
1, 27792, Note_on_c, 1, 83, 127
1, 27792, Note_on_c, 1, 47, 127
1, 27804, Note_off_c, 1, 83, 0
1, 27804, Note_on_c, 1, 81, 127
1, 27815, Note_off_c, 1, 47, 0
1, 27816, Note_off_c, 1, 81, 0
1, 27816, Note_on_c, 1, 79, 127
1, 27816, Note_on_c, 1, 49, 127
1, 27839, Note_off_c, 1, 79, 0
1, 27839, Note_off_c, 1, 49, 0
1, 27840, Note_on_c, 1, 81, 127
1, 27840, Note_on_c, 1, 51, 127
1, 27885, Note_off_c, 1, 81, 0
1, 27885, Note_off_c, 1, 51, 0
1, 27888, Note_on_c, 1, 81, 127
1, 27888, Note_on_c, 1, 47, 127
1, 27900, Note_off_c, 1, 81, 0
1, 27900, Note_on_c, 1, 79, 127
1, 27912, Note_off_c, 1, 79, 0
1, 27912, Note_on_c, 1, 78, 127
1, 27933, Note_off_c, 1, 47, 0
1, 27935, Note_off_c, 1, 78, 0
1, 27936, Note_on_c, 1, 79, 127
1, 27936, Note_on_c, 1, 52, 127
1, 27959, Note_off_c, 1, 79, 0
1, 27960, Note_on_c, 1, 78, 127
1, 27983, Note_off_c, 1, 78, 0
1, 27984, Note_on_c, 1, 76, 127
1, 27984, Note_on_c, 1, 71, 127
1, 28007, Note_off_c, 1, 76, 0
1, 28025, Note_off_c, 1, 52, 0
1, 28029, Note_off_c, 1, 71, 0
1, 28032, Note_on_c, 1, 79, 127
1, 28032, Note_on_c, 1, 71, 127
1, 28055, Note_off_c, 1, 79, 0
1, 28056, Note_on_c, 1, 83, 127
1, 28077, Note_off_c, 1, 71, 0
1, 28079, Note_off_c, 1, 83, 0
1, 28080, Note_on_c, 1, 88, 127
1, 28080, Note_on_c, 1, 71, 127
1, 28080, Note_on_c, 1, 52, 127
1, 28103, Note_off_c, 1, 88, 0
1, 28104, Note_on_c, 1, 83, 127
1, 28125, Note_off_c, 1, 71, 0
1, 28125, Note_off_c, 1, 52, 0
1, 28127, Note_off_c, 1, 83, 0
1, 28128, Note_on_c, 1, 79, 127
1, 28128, Note_on_c, 1, 71, 127
1, 28128, Note_on_c, 1, 64, 127
1, 28151, Note_off_c, 1, 79, 0
1, 28152, Note_on_c, 1, 83, 127
1, 28173, Note_off_c, 1, 71, 0
1, 28173, Note_off_c, 1, 64, 0
1, 28175, Note_off_c, 1, 83, 0
1, 28176, Note_on_c, 1, 78, 127
1, 28176, Note_on_c, 1, 71, 127
1, 28176, Note_on_c, 1, 63, 127
1, 28199, Note_off_c, 1, 78, 0
1, 28200, Note_on_c, 1, 83, 127
1, 28221, Note_off_c, 1, 71, 0
1, 28221, Note_off_c, 1, 63, 0
1, 28223, Note_off_c, 1, 83, 0
1, 28224, Note_on_c, 1, 79, 127
1, 28224, Note_on_c, 1, 71, 127
1, 28224, Note_on_c, 1, 64, 127
1, 28247, Note_off_c, 1, 79, 0
1, 28248, Note_on_c, 1, 78, 127
1, 28269, Note_off_c, 1, 71, 0
1, 28271, Note_off_c, 1, 78, 0
1, 28272, Note_on_c, 1, 76, 127
1, 28295, Note_off_c, 1, 76, 0
1, 28296, Note_on_c, 1, 75, 127
1, 28313, Note_off_c, 1, 64, 0
1, 28319, Note_off_c, 1, 75, 0
1, 28320, Note_on_c, 1, 79, 127
1, 28320, Note_on_c, 1, 76, 127
1, 28343, Note_off_c, 1, 79, 0
1, 28344, Note_on_c, 1, 83, 127
1, 28365, Note_off_c, 1, 76, 0
1, 28367, Note_off_c, 1, 83, 0
1, 28368, Note_on_c, 1, 88, 127
1, 28368, Note_on_c, 1, 71, 127
1, 28368, Note_on_c, 1, 52, 127
1, 28391, Note_off_c, 1, 88, 0
1, 28391, Note_off_c, 1, 52, 0
1, 28392, Note_on_c, 1, 83, 127
1, 28392, Note_on_c, 1, 54, 127
1, 28413, Note_off_c, 1, 71, 0
1, 28415, Note_off_c, 1, 83, 0
1, 28415, Note_off_c, 1, 54, 0
1, 28416, Note_on_c, 1, 81, 127
1, 28416, Note_on_c, 1, 71, 127
1, 28416, Note_on_c, 1, 55, 127
1, 28439, Note_off_c, 1, 81, 0
1, 28440, Note_on_c, 1, 79, 127
1, 28461, Note_off_c, 1, 71, 0
1, 28461, Note_off_c, 1, 55, 0
1, 28463, Note_off_c, 1, 79, 0
1, 28464, Note_on_c, 1, 78, 127
1, 28464, Note_on_c, 1, 71, 127
1, 28464, Note_on_c, 1, 57, 127
1, 28487, Note_off_c, 1, 78, 0
1, 28488, Note_on_c, 1, 76, 127
1, 28509, Note_off_c, 1, 71, 0
1, 28509, Note_off_c, 1, 57, 0
1, 28511, Note_off_c, 1, 76, 0
1, 28512, Note_on_c, 1, 75, 127
1, 28512, Note_on_c, 1, 71, 127
1, 28512, Note_on_c, 1, 59, 127
1, 28535, Note_off_c, 1, 75, 0
1, 28536, Note_on_c, 1, 73, 127
1, 28557, Note_off_c, 1, 71, 0
1, 28559, Note_off_c, 1, 73, 0
1, 28560, Note_on_c, 1, 78, 127
1, 28583, Note_off_c, 1, 78, 0
1, 28584, Note_on_c, 1, 76, 127
1, 28601, Note_off_c, 1, 59, 0
1, 28607, Note_off_c, 1, 76, 0
1, 28608, Note_on_c, 1, 75, 127
1, 28608, Note_on_c, 1, 78, 127
1, 28631, Note_off_c, 1, 75, 0
1, 28632, Note_on_c, 1, 76, 127
1, 28653, Note_off_c, 1, 78, 0
1, 28655, Note_off_c, 1, 76, 0
1, 28656, Note_on_c, 1, 78, 127
1, 28656, Note_on_c, 1, 71, 127
1, 28656, Note_on_c, 1, 63, 127
1, 28679, Note_off_c, 1, 78, 0
1, 28679, Note_off_c, 1, 63, 0
1, 28680, Note_on_c, 1, 79, 127
1, 28680, Note_on_c, 1, 61, 127
1, 28701, Note_off_c, 1, 71, 0
1, 28703, Note_off_c, 1, 79, 0
1, 28703, Note_off_c, 1, 61, 0
1, 28704, Note_on_c, 1, 81, 127
1, 28704, Note_on_c, 1, 71, 127
1, 28704, Note_on_c, 1, 63, 127
1, 28727, Note_off_c, 1, 81, 0
1, 28728, Note_on_c, 1, 79, 127
1, 28749, Note_off_c, 1, 71, 0
1, 28749, Note_off_c, 1, 63, 0
1, 28751, Note_off_c, 1, 79, 0
1, 28752, Note_on_c, 1, 81, 127
1, 28752, Note_on_c, 1, 71, 127
1, 28752, Note_on_c, 1, 59, 127
1, 28775, Note_off_c, 1, 81, 0
1, 28776, Note_on_c, 1, 78, 127
1, 28797, Note_off_c, 1, 71, 0
1, 28797, Note_off_c, 1, 59, 0
1, 28799, Note_off_c, 1, 78, 0
1, 28800, Note_on_c, 1, 79, 127
1, 28800, Note_on_c, 1, 71, 127
1, 28800, Note_on_c, 1, 52, 127
1, 28845, Note_off_c, 1, 79, 0
1, 28845, Note_off_c, 1, 71, 0
1, 28845, Note_off_c, 1, 52, 0
1, 28848, Note_on_c, 1, 84, 127
1, 28848, Note_on_c, 1, 79, 127
1, 28848, Note_on_c, 1, 60, 127
1, 28860, Note_off_c, 1, 79, 0
1, 28860, Note_on_c, 1, 78, 127
1, 28872, Note_off_c, 1, 78, 0
1, 28872, Note_on_c, 1, 76, 127
1, 28893, Note_off_c, 1, 60, 0
1, 28895, Note_off_c, 1, 76, 0
1, 28896, Note_on_c, 1, 50, 127
1, 28937, Note_off_c, 1, 84, 0
1, 28941, Note_off_c, 1, 50, 0
1, 28944, Note_on_c, 1, 83, 127
1, 28944, Note_on_c, 1, 78, 127
1, 28944, Note_on_c, 1, 59, 127
1, 28956, Note_off_c, 1, 78, 0
1, 28956, Note_on_c, 1, 76, 127
1, 28968, Note_off_c, 1, 76, 0
1, 28968, Note_on_c, 1, 75, 127
1, 28989, Note_off_c, 1, 59, 0
1, 28991, Note_off_c, 1, 75, 0
1, 28992, Note_on_c, 1, 48, 127
1, 29033, Note_off_c, 1, 83, 0
1, 29037, Note_off_c, 1, 48, 0
1, 29040, Note_on_c, 1, 81, 127
1, 29040, Note_on_c, 1, 76, 127
1, 29040, Note_on_c, 1, 57, 127
1, 29052, Note_off_c, 1, 76, 0
1, 29052, Note_on_c, 1, 75, 127
1, 29064, Note_off_c, 1, 75, 0
1, 29064, Note_on_c, 1, 73, 127
1, 29085, Note_off_c, 1, 57, 0
1, 29087, Note_off_c, 1, 73, 0
1, 29088, Note_on_c, 1, 47, 127
1, 29111, Note_off_c, 1, 81, 0
1, 29112, Note_on_c, 1, 79, 127
1, 29133, Note_off_c, 1, 47, 0
1, 29135, Note_off_c, 1, 79, 0
1, 29136, Note_on_c, 1, 78, 127
1, 29136, Note_on_c, 1, 81, 127
1, 29136, Note_on_c, 1, 57, 127
1, 29159, Note_off_c, 1, 78, 0
1, 29159, Note_off_c, 1, 81, 0
1, 29160, Note_on_c, 1, 79, 127
1, 29160, Note_on_c, 1, 83, 127
1, 29181, Note_off_c, 1, 57, 0
1, 29183, Note_off_c, 1, 79, 0
1, 29183, Note_off_c, 1, 83, 0
1, 29184, Note_on_c, 1, 81, 127
1, 29184, Note_on_c, 1, 84, 127
1, 29184, Note_on_c, 1, 57, 127
1, 29207, Note_off_c, 1, 81, 0
1, 29207, Note_off_c, 1, 84, 0
1, 29208, Note_on_c, 1, 83, 127
1, 29229, Note_off_c, 1, 57, 0
1, 29231, Note_off_c, 1, 83, 0
1, 29232, Note_on_c, 1, 84, 127
1, 29232, Note_on_c, 1, 81, 127
1, 29232, Note_on_c, 1, 57, 127
1, 29255, Note_off_c, 1, 84, 0
1, 29255, Note_off_c, 1, 81, 0
1, 29256, Note_on_c, 1, 83, 127
1, 29256, Note_on_c, 1, 79, 127
1, 29277, Note_off_c, 1, 57, 0
1, 29279, Note_off_c, 1, 83, 0
1, 29279, Note_off_c, 1, 79, 0
1, 29280, Note_on_c, 1, 81, 127
1, 29280, Note_on_c, 1, 78, 127
1, 29280, Note_on_c, 1, 57, 127
1, 29303, Note_off_c, 1, 81, 0
1, 29304, Note_on_c, 1, 84, 127
1, 29325, Note_off_c, 1, 78, 0
1, 29325, Note_off_c, 1, 57, 0
1, 29327, Note_off_c, 1, 84, 0
1, 29328, Note_on_c, 1, 79, 127
1, 29328, Note_on_c, 1, 76, 127
1, 29328, Note_on_c, 1, 57, 127
1, 29351, Note_off_c, 1, 79, 0
1, 29352, Note_on_c, 1, 84, 127
1, 29373, Note_off_c, 1, 76, 0
1, 29373, Note_off_c, 1, 57, 0
1, 29375, Note_off_c, 1, 84, 0
1, 29376, Note_on_c, 1, 78, 127
1, 29376, Note_on_c, 1, 75, 127
1, 29376, Note_on_c, 1, 57, 127
1, 29399, Note_off_c, 1, 78, 0
1, 29400, Note_on_c, 1, 76, 127
1, 29421, Note_off_c, 1, 75, 0
1, 29421, Note_off_c, 1, 57, 0
1, 29423, Note_off_c, 1, 76, 0
1, 29424, Note_on_c, 1, 75, 127
1, 29424, Note_on_c, 1, 78, 127
1, 29424, Note_on_c, 1, 60, 127
1, 29447, Note_off_c, 1, 75, 0
1, 29447, Note_off_c, 1, 78, 0
1, 29447, Note_off_c, 1, 60, 0
1, 29448, Note_on_c, 1, 76, 127
1, 29448, Note_on_c, 1, 79, 127
1, 29448, Note_on_c, 1, 59, 127
1, 29471, Note_off_c, 1, 76, 0
1, 29471, Note_off_c, 1, 79, 0
1, 29471, Note_off_c, 1, 59, 0
1, 29472, Note_on_c, 1, 78, 127
1, 29472, Note_on_c, 1, 81, 127
1, 29472, Note_on_c, 1, 57, 127
1, 29495, Note_off_c, 1, 78, 0
1, 29495, Note_off_c, 1, 81, 0
1, 29496, Note_on_c, 1, 79, 127
1, 29517, Note_off_c, 1, 57, 0
1, 29519, Note_off_c, 1, 79, 0
1, 29520, Note_on_c, 1, 81, 127
1, 29520, Note_on_c, 1, 78, 127
1, 29520, Note_on_c, 1, 57, 127
1, 29543, Note_off_c, 1, 81, 0
1, 29543, Note_off_c, 1, 78, 0
1, 29544, Note_on_c, 1, 79, 127
1, 29544, Note_on_c, 1, 76, 127
1, 29565, Note_off_c, 1, 57, 0
1, 29567, Note_off_c, 1, 79, 0
1, 29567, Note_off_c, 1, 76, 0
1, 29568, Note_on_c, 1, 78, 127
1, 29568, Note_on_c, 1, 75, 127
1, 29568, Note_on_c, 1, 57, 127
1, 29591, Note_off_c, 1, 78, 0
1, 29592, Note_on_c, 1, 81, 127
1, 29613, Note_off_c, 1, 75, 0
1, 29613, Note_off_c, 1, 57, 0
1, 29615, Note_off_c, 1, 81, 0
1, 29616, Note_on_c, 1, 76, 127
1, 29616, Note_on_c, 1, 73, 127
1, 29616, Note_on_c, 1, 57, 127
1, 29639, Note_off_c, 1, 76, 0
1, 29640, Note_on_c, 1, 81, 127
1, 29661, Note_off_c, 1, 73, 0
1, 29661, Note_off_c, 1, 57, 0
1, 29663, Note_off_c, 1, 81, 0
1, 29664, Note_on_c, 1, 75, 127
1, 29664, Note_on_c, 1, 71, 127
1, 29664, Note_on_c, 1, 57, 127
1, 29687, Note_off_c, 1, 75, 0
1, 29688, Note_on_c, 1, 76, 127
1, 29709, Note_off_c, 1, 71, 0
1, 29709, Note_off_c, 1, 57, 0
1, 29711, Note_off_c, 1, 76, 0
1, 29712, Note_on_c, 1, 78, 127
1, 29712, Note_on_c, 1, 81, 127
1, 29712, Note_on_c, 1, 54, 127
1, 29735, Note_off_c, 1, 78, 0
1, 29735, Note_off_c, 1, 54, 0
1, 29736, Note_on_c, 1, 76, 127
1, 29736, Note_on_c, 1, 55, 127
1, 29757, Note_off_c, 1, 81, 0
1, 29759, Note_off_c, 1, 76, 0
1, 29759, Note_off_c, 1, 55, 0
1, 29760, Note_on_c, 1, 75, 127
1, 29760, Note_on_c, 1, 78, 127
1, 29760, Note_on_c, 1, 57, 127
1, 29783, Note_off_c, 1, 75, 0
1, 29784, Note_on_c, 1, 73, 127
1, 29805, Note_off_c, 1, 78, 0
1, 29805, Note_off_c, 1, 57, 0
1, 29807, Note_off_c, 1, 73, 0
1, 29808, Note_on_c, 1, 71, 127
1, 29808, Note_on_c, 1, 75, 127
1, 29808, Note_on_c, 1, 55, 127
1, 29831, Note_off_c, 1, 71, 0
1, 29831, Note_off_c, 1, 55, 0
1, 29832, Note_on_c, 1, 69, 127
1, 29832, Note_on_c, 1, 57, 127
1, 29853, Note_off_c, 1, 75, 0
1, 29855, Note_off_c, 1, 69, 0
1, 29855, Note_off_c, 1, 57, 0
1, 29856, Note_on_c, 1, 67, 127
1, 29856, Note_on_c, 1, 71, 127
1, 29856, Note_on_c, 1, 59, 127
1, 29879, Note_off_c, 1, 67, 0
1, 29880, Note_on_c, 1, 66, 127
1, 29901, Note_off_c, 1, 71, 0
1, 29901, Note_off_c, 1, 59, 0
1, 29903, Note_off_c, 1, 66, 0
1, 29904, Note_on_c, 1, 64, 127
1, 29904, Note_on_c, 1, 78, 127
1, 29904, Note_on_c, 1, 54, 127
1, 29927, Note_off_c, 1, 64, 0
1, 29928, Note_on_c, 1, 63, 127
1, 29949, Note_off_c, 1, 78, 0
1, 29949, Note_off_c, 1, 54, 0
1, 29951, Note_off_c, 1, 63, 0
1, 29952, Note_on_c, 1, 64, 127
1, 29952, Note_on_c, 1, 83, 127
1, 29952, Note_on_c, 1, 55, 127
1, 29975, Note_off_c, 1, 83, 0
1, 29975, Note_off_c, 1, 55, 0
1, 29976, Note_on_c, 1, 81, 127
1, 29976, Note_on_c, 1, 54, 127
1, 29997, Note_off_c, 1, 64, 0
1, 29999, Note_off_c, 1, 81, 0
1, 29999, Note_off_c, 1, 54, 0
1, 30000, Note_on_c, 1, 67, 127
1, 30000, Note_on_c, 1, 79, 127
1, 30000, Note_on_c, 1, 52, 127
1, 30023, Note_off_c, 1, 79, 0
1, 30023, Note_off_c, 1, 52, 0
1, 30024, Note_on_c, 1, 81, 127
1, 30024, Note_on_c, 1, 54, 127
1, 30045, Note_off_c, 1, 67, 0
1, 30047, Note_off_c, 1, 81, 0
1, 30047, Note_off_c, 1, 54, 0
1, 30048, Note_on_c, 1, 67, 127
1, 30048, Note_on_c, 1, 83, 127
1, 30048, Note_on_c, 1, 55, 127
1, 30071, Note_off_c, 1, 83, 0
1, 30071, Note_off_c, 1, 55, 0
1, 30072, Note_on_c, 1, 81, 127
1, 30072, Note_on_c, 1, 57, 127
1, 30093, Note_off_c, 1, 67, 0
1, 30095, Note_off_c, 1, 81, 0
1, 30095, Note_off_c, 1, 57, 0
1, 30096, Note_on_c, 1, 67, 127
1, 30096, Note_on_c, 1, 79, 127
1, 30096, Note_on_c, 1, 59, 127
1, 30119, Note_off_c, 1, 79, 0
1, 30119, Note_off_c, 1, 59, 0
1, 30120, Note_on_c, 1, 78, 127
1, 30120, Note_on_c, 1, 57, 127
1, 30141, Note_off_c, 1, 67, 0
1, 30143, Note_off_c, 1, 78, 0
1, 30143, Note_off_c, 1, 57, 0
1, 30144, Note_on_c, 1, 67, 127
1, 30144, Note_on_c, 1, 76, 127
1, 30144, Note_on_c, 1, 55, 127
1, 30167, Note_off_c, 1, 55, 0
1, 30168, Note_on_c, 1, 59, 127
1, 30189, Note_off_c, 1, 67, 0
1, 30189, Note_off_c, 1, 76, 0
1, 30191, Note_off_c, 1, 59, 0
1, 30192, Note_on_c, 1, 67, 127
1, 30192, Note_on_c, 1, 74, 127
1, 30192, Note_on_c, 1, 54, 127
1, 30215, Note_off_c, 1, 54, 0
1, 30216, Note_on_c, 1, 59, 127
1, 30237, Note_off_c, 1, 67, 0
1, 30237, Note_off_c, 1, 74, 0
1, 30239, Note_off_c, 1, 59, 0
1, 30240, Note_on_c, 1, 67, 127
1, 30240, Note_on_c, 1, 73, 127
1, 30240, Note_on_c, 1, 52, 127
1, 30263, Note_off_c, 1, 52, 0
1, 30264, Note_on_c, 1, 50, 127
1, 30285, Note_off_c, 1, 67, 0
1, 30285, Note_off_c, 1, 73, 0
1, 30287, Note_off_c, 1, 50, 0
1, 30288, Note_on_c, 1, 71, 127
1, 30288, Note_on_c, 1, 76, 127
1, 30288, Note_on_c, 1, 49, 127
1, 30311, Note_off_c, 1, 71, 0
1, 30311, Note_off_c, 1, 76, 0
1, 30311, Note_off_c, 1, 49, 0
1, 30312, Note_on_c, 1, 69, 127
1, 30312, Note_on_c, 1, 78, 127
1, 30312, Note_on_c, 1, 50, 127
1, 30335, Note_off_c, 1, 69, 0
1, 30335, Note_off_c, 1, 78, 0
1, 30335, Note_off_c, 1, 50, 0
1, 30336, Note_on_c, 1, 67, 127
1, 30336, Note_on_c, 1, 79, 127
1, 30336, Note_on_c, 1, 52, 127
1, 30359, Note_off_c, 1, 79, 0
1, 30359, Note_off_c, 1, 52, 0
1, 30360, Note_on_c, 1, 78, 127
1, 30360, Note_on_c, 1, 54, 127
1, 30381, Note_off_c, 1, 67, 0
1, 30383, Note_off_c, 1, 78, 0
1, 30383, Note_off_c, 1, 54, 0
1, 30384, Note_on_c, 1, 67, 127
1, 30384, Note_on_c, 1, 76, 127
1, 30384, Note_on_c, 1, 55, 127
1, 30407, Note_off_c, 1, 76, 0
1, 30407, Note_off_c, 1, 55, 0
1, 30408, Note_on_c, 1, 74, 127
1, 30408, Note_on_c, 1, 54, 127
1, 30429, Note_off_c, 1, 67, 0
1, 30431, Note_off_c, 1, 74, 0
1, 30431, Note_off_c, 1, 54, 0
1, 30432, Note_on_c, 1, 67, 127
1, 30432, Note_on_c, 1, 73, 127
1, 30432, Note_on_c, 1, 52, 127
1, 30455, Note_off_c, 1, 52, 0
1, 30456, Note_on_c, 1, 55, 127
1, 30477, Note_off_c, 1, 67, 0
1, 30477, Note_off_c, 1, 73, 0
1, 30479, Note_off_c, 1, 55, 0
1, 30480, Note_on_c, 1, 67, 127
1, 30480, Note_on_c, 1, 71, 127
1, 30480, Note_on_c, 1, 50, 127
1, 30503, Note_off_c, 1, 50, 0
1, 30504, Note_on_c, 1, 55, 127
1, 30525, Note_off_c, 1, 67, 0
1, 30525, Note_off_c, 1, 71, 0
1, 30527, Note_off_c, 1, 55, 0
1, 30528, Note_on_c, 1, 67, 127
1, 30528, Note_on_c, 1, 73, 127
1, 30528, Note_on_c, 1, 49, 127
1, 30551, Note_off_c, 1, 49, 0
1, 30552, Note_on_c, 1, 50, 127
1, 30573, Note_off_c, 1, 67, 0
1, 30573, Note_off_c, 1, 73, 0
1, 30575, Note_off_c, 1, 50, 0
1, 30576, Note_on_c, 1, 64, 127
1, 30576, Note_on_c, 1, 79, 127
1, 30576, Note_on_c, 1, 52, 127
1, 30599, Note_off_c, 1, 64, 0
1, 30599, Note_off_c, 1, 52, 0
1, 30600, Note_on_c, 1, 66, 127
1, 30600, Note_on_c, 1, 50, 127
1, 30621, Note_off_c, 1, 79, 0
1, 30623, Note_off_c, 1, 66, 0
1, 30623, Note_off_c, 1, 50, 0
1, 30624, Note_on_c, 1, 67, 127
1, 30624, Note_on_c, 1, 76, 127
1, 30624, Note_on_c, 1, 49, 127
1, 30647, Note_off_c, 1, 49, 0
1, 30648, Note_on_c, 1, 47, 127
1, 30669, Note_off_c, 1, 67, 0
1, 30669, Note_off_c, 1, 76, 0
1, 30671, Note_off_c, 1, 47, 0
1, 30672, Note_on_c, 1, 66, 127
1, 30672, Note_on_c, 1, 73, 127
1, 30672, Note_on_c, 1, 45, 127
1, 30695, Note_off_c, 1, 66, 0
1, 30695, Note_off_c, 1, 45, 0
1, 30696, Note_on_c, 1, 67, 127
1, 30696, Note_on_c, 1, 43, 127
1, 30717, Note_off_c, 1, 73, 0
1, 30719, Note_off_c, 1, 67, 0
1, 30719, Note_off_c, 1, 43, 0
1, 30720, Note_on_c, 1, 69, 127
1, 30720, Note_on_c, 1, 42, 127
1, 30743, Note_off_c, 1, 42, 0
1, 30744, Note_on_c, 1, 40, 127
1, 30765, Note_off_c, 1, 69, 0
1, 30767, Note_off_c, 1, 40, 0
1, 30768, Note_on_c, 1, 64, 127
1, 30768, Note_on_c, 1, 79, 127
1, 30768, Note_on_c, 1, 38, 127
1, 30791, Note_off_c, 1, 38, 0
1, 30792, Note_on_c, 1, 37, 127
1, 30813, Note_off_c, 1, 64, 0
1, 30813, Note_off_c, 1, 79, 0
1, 30815, Note_off_c, 1, 37, 0
1, 30816, Note_on_c, 1, 66, 127
1, 30816, Note_on_c, 1, 78, 127
1, 30816, Note_on_c, 1, 38, 127
1, 30839, Note_off_c, 1, 66, 0
1, 30840, Note_on_c, 1, 64, 127
1, 30861, Note_off_c, 1, 78, 0
1, 30863, Note_off_c, 1, 64, 0
1, 30864, Note_on_c, 1, 81, 127
1, 30876, Note_off_c, 1, 81, 0
1, 30876, Note_on_c, 1, 79, 127
1, 30888, Note_off_c, 1, 79, 0
1, 30888, Note_on_c, 1, 69, 127
1, 30905, Note_off_c, 1, 38, 0
1, 30911, Note_off_c, 1, 69, 0
1, 30912, Note_on_c, 1, 64, 127
1, 30912, Note_on_c, 1, 79, 127
1, 30935, Note_off_c, 1, 64, 0
1, 30936, Note_on_c, 1, 62, 127
1, 30957, Note_off_c, 1, 79, 0
1, 30959, Note_off_c, 1, 62, 0
1, 30960, Note_on_c, 1, 64, 127
1, 30960, Note_on_c, 1, 79, 127
1, 30972, Note_off_c, 1, 79, 0
1, 30972, Note_on_c, 1, 78, 127
1, 30983, Note_off_c, 1, 64, 0
1, 30984, Note_off_c, 1, 78, 0
1, 30984, Note_on_c, 1, 69, 127
1, 30984, Note_on_c, 1, 76, 127
1, 31007, Note_off_c, 1, 69, 0
1, 31007, Note_off_c, 1, 76, 0
1, 31008, Note_on_c, 1, 62, 127
1, 31008, Note_on_c, 1, 78, 127
1, 31008, Note_on_c, 1, 50, 127
1, 31031, Note_off_c, 1, 62, 0
1, 31032, Note_on_c, 1, 61, 127
1, 31053, Note_off_c, 1, 78, 0
1, 31055, Note_off_c, 1, 61, 0
1, 31068, Note_on_c, 1, 76, 127
1, 31080, Note_off_c, 1, 76, 0
1, 31080, Note_on_c, 1, 69, 127
1, 31080, Note_on_c, 1, 74, 127
1, 31097, Note_off_c, 1, 50, 0
1, 31103, Note_off_c, 1, 69, 0
1, 31103, Note_off_c, 1, 74, 0
1, 31104, Note_on_c, 1, 61, 127
1, 31104, Note_on_c, 1, 76, 127
1, 31104, Note_on_c, 1, 57, 127
1, 31127, Note_off_c, 1, 61, 0
1, 31128, Note_on_c, 1, 59, 127
1, 31149, Note_off_c, 1, 76, 0
1, 31151, Note_off_c, 1, 59, 0
1, 31152, Note_on_c, 1, 79, 127
1, 31164, Note_off_c, 1, 79, 0
1, 31164, Note_on_c, 1, 78, 127
1, 31176, Note_off_c, 1, 78, 0
1, 31176, Note_on_c, 1, 69, 127
1, 31193, Note_off_c, 1, 57, 0
1, 31199, Note_off_c, 1, 69, 0
1, 31200, Note_on_c, 1, 62, 127
1, 31200, Note_on_c, 1, 78, 127
1, 31223, Note_off_c, 1, 62, 0
1, 31224, Note_on_c, 1, 61, 127
1, 31245, Note_off_c, 1, 78, 0
1, 31247, Note_off_c, 1, 61, 0
1, 31248, Note_on_c, 1, 62, 127
1, 31248, Note_on_c, 1, 78, 127
1, 31260, Note_off_c, 1, 78, 0
1, 31260, Note_on_c, 1, 76, 127
1, 31271, Note_off_c, 1, 62, 0
1, 31272, Note_off_c, 1, 76, 0
1, 31272, Note_on_c, 1, 69, 127
1, 31272, Note_on_c, 1, 74, 127
1, 31295, Note_off_c, 1, 69, 0
1, 31295, Note_off_c, 1, 74, 0
1, 31296, Note_on_c, 1, 61, 127
1, 31296, Note_on_c, 1, 76, 127
1, 31296, Note_on_c, 1, 58, 127
1, 31319, Note_off_c, 1, 61, 0
1, 31320, Note_on_c, 1, 59, 127
1, 31341, Note_off_c, 1, 76, 0
1, 31343, Note_off_c, 1, 59, 0
1, 31356, Note_on_c, 1, 74, 127
1, 31368, Note_off_c, 1, 74, 0
1, 31368, Note_on_c, 1, 66, 127
1, 31368, Note_on_c, 1, 73, 127
1, 31385, Note_off_c, 1, 58, 0
1, 31391, Note_off_c, 1, 66, 0
1, 31391, Note_off_c, 1, 73, 0
1, 31392, Note_on_c, 1, 59, 127
1, 31392, Note_on_c, 1, 74, 127
1, 31416, Note_on_c, 1, 58, 127
1, 31437, Note_off_c, 1, 74, 0
1, 31439, Note_off_c, 1, 58, 0
1, 31440, Note_on_c, 1, 78, 127
1, 31452, Note_off_c, 1, 78, 0
1, 31452, Note_on_c, 1, 76, 127
1, 31464, Note_off_c, 1, 76, 0
1, 31464, Note_on_c, 1, 66, 127
1, 31481, Note_off_c, 1, 59, 0
1, 31487, Note_off_c, 1, 66, 0
1, 31488, Note_on_c, 1, 61, 127
1, 31488, Note_on_c, 1, 76, 127
1, 31511, Note_off_c, 1, 61, 0
1, 31512, Note_on_c, 1, 59, 127
1, 31533, Note_off_c, 1, 76, 0
1, 31535, Note_off_c, 1, 59, 0
1, 31536, Note_on_c, 1, 61, 127
1, 31536, Note_on_c, 1, 76, 127
1, 31548, Note_off_c, 1, 76, 0
1, 31548, Note_on_c, 1, 74, 127
1, 31559, Note_off_c, 1, 61, 0
1, 31560, Note_off_c, 1, 74, 0
1, 31560, Note_on_c, 1, 66, 127
1, 31560, Note_on_c, 1, 73, 127
1, 31583, Note_off_c, 1, 66, 0
1, 31583, Note_off_c, 1, 73, 0
1, 31584, Note_on_c, 1, 59, 127
1, 31584, Note_on_c, 1, 74, 127
1, 31584, Note_on_c, 1, 47, 127
1, 31607, Note_off_c, 1, 59, 0
1, 31608, Note_on_c, 1, 58, 127
1, 31629, Note_off_c, 1, 74, 0
1, 31631, Note_off_c, 1, 58, 0
1, 31644, Note_on_c, 1, 73, 127
1, 31656, Note_off_c, 1, 73, 0
1, 31656, Note_on_c, 1, 66, 127
1, 31656, Note_on_c, 1, 71, 127
1, 31673, Note_off_c, 1, 47, 0
1, 31679, Note_off_c, 1, 66, 0
1, 31679, Note_off_c, 1, 71, 0
1, 31680, Note_on_c, 1, 58, 127
1, 31680, Note_on_c, 1, 73, 127
1, 31680, Note_on_c, 1, 42, 127
1, 31703, Note_off_c, 1, 73, 0
1, 31704, Note_on_c, 1, 70, 127
1, 31725, Note_off_c, 1, 58, 0
1, 31725, Note_off_c, 1, 42, 0
1, 31727, Note_off_c, 1, 70, 0
1, 31728, Note_on_c, 1, 61, 127
1, 31728, Note_on_c, 1, 66, 127
1, 31728, Note_on_c, 1, 54, 127
1, 31751, Note_off_c, 1, 66, 0
1, 31752, Note_on_c, 1, 68, 127
1, 31773, Note_off_c, 1, 61, 0
1, 31773, Note_off_c, 1, 54, 0
1, 31775, Note_off_c, 1, 68, 0
1, 31776, Note_on_c, 1, 66, 127
1, 31776, Note_on_c, 1, 70, 127
1, 31776, Note_on_c, 1, 54, 127
1, 31799, Note_off_c, 1, 70, 0
1, 31800, Note_on_c, 1, 71, 127
1, 31821, Note_off_c, 1, 66, 0
1, 31821, Note_off_c, 1, 54, 0
1, 31823, Note_off_c, 1, 71, 0
1, 31824, Note_on_c, 1, 70, 127
1, 31824, Note_on_c, 1, 73, 127
1, 31824, Note_on_c, 1, 54, 127
1, 31847, Note_off_c, 1, 73, 0
1, 31848, Note_on_c, 1, 74, 127
1, 31869, Note_off_c, 1, 70, 0
1, 31869, Note_off_c, 1, 54, 0
1, 31871, Note_off_c, 1, 74, 0
1, 31872, Note_on_c, 1, 70, 127
1, 31872, Note_on_c, 1, 76, 127
1, 31872, Note_on_c, 1, 54, 127
1, 31895, Note_off_c, 1, 76, 0
1, 31896, Note_on_c, 1, 74, 127
1, 31917, Note_off_c, 1, 54, 0
1, 31919, Note_off_c, 1, 74, 0
1, 31939, Note_off_c, 1, 70, 0
1, 31944, Note_on_c, 1, 68, 127
1, 31944, Note_on_c, 1, 73, 127
1, 31956, Note_off_c, 1, 68, 0
1, 31967, Note_off_c, 1, 73, 0
1, 31968, Note_on_c, 1, 71, 127
1, 32013, Note_off_c, 1, 71, 0
1, 32016, Note_on_c, 1, 66, 127
1, 32016, Note_on_c, 1, 71, 127
1, 32016, Note_on_c, 1, 59, 127
1, 32039, Note_off_c, 1, 71, 0
1, 32039, Note_off_c, 1, 59, 0
1, 32040, Note_on_c, 1, 73, 127
1, 32040, Note_on_c, 1, 58, 127
1, 32061, Note_off_c, 1, 66, 0
1, 32063, Note_off_c, 1, 73, 0
1, 32063, Note_off_c, 1, 58, 0
1, 32064, Note_on_c, 1, 62, 127
1, 32064, Note_on_c, 1, 74, 127
1, 32064, Note_on_c, 1, 59, 127
1, 32087, Note_off_c, 1, 74, 0
1, 32088, Note_on_c, 1, 78, 127
1, 32109, Note_off_c, 1, 62, 0
1, 32109, Note_off_c, 1, 59, 0
1, 32111, Note_off_c, 1, 78, 0
1, 32112, Note_on_c, 1, 66, 127
1, 32112, Note_on_c, 1, 83, 127
1, 32112, Note_on_c, 1, 54, 127
1, 32135, Note_off_c, 1, 83, 0
1, 32136, Note_on_c, 1, 78, 127
1, 32157, Note_off_c, 1, 66, 0
1, 32157, Note_off_c, 1, 54, 0
1, 32159, Note_off_c, 1, 78, 0
1, 32160, Note_on_c, 1, 71, 127
1, 32160, Note_on_c, 1, 76, 127
1, 32160, Note_on_c, 1, 54, 127
1, 32183, Note_off_c, 1, 76, 0
1, 32184, Note_on_c, 1, 74, 127
1, 32205, Note_off_c, 1, 54, 0
1, 32207, Note_off_c, 1, 74, 0
1, 32208, Note_on_c, 1, 73, 127
1, 32227, Note_off_c, 1, 71, 0
1, 32231, Note_off_c, 1, 73, 0
1, 32232, Note_on_c, 1, 70, 127
1, 32244, Note_off_c, 1, 70, 0
1, 32280, Note_on_c, 1, 68, 127
1, 32303, Note_off_c, 1, 68, 0
1, 32304, Note_on_c, 1, 70, 127
1, 32304, Note_on_c, 1, 66, 127
1, 32304, Note_on_c, 1, 61, 127
1, 32327, Note_off_c, 1, 66, 0
1, 32327, Note_off_c, 1, 61, 0
1, 32328, Note_on_c, 1, 68, 127
1, 32328, Note_on_c, 1, 59, 127
1, 32349, Note_off_c, 1, 70, 0
1, 32351, Note_off_c, 1, 68, 0
1, 32351, Note_off_c, 1, 59, 0
1, 32352, Note_on_c, 1, 66, 127
1, 32352, Note_on_c, 1, 70, 127
1, 32352, Note_on_c, 1, 61, 127
1, 32375, Note_off_c, 1, 66, 0
1, 32375, Note_off_c, 1, 70, 0
1, 32376, Note_on_c, 1, 68, 127
1, 32376, Note_on_c, 1, 71, 127
1, 32397, Note_off_c, 1, 61, 0
1, 32399, Note_off_c, 1, 68, 0
1, 32399, Note_off_c, 1, 71, 0
1, 32400, Note_on_c, 1, 70, 127
1, 32400, Note_on_c, 1, 73, 127
1, 32400, Note_on_c, 1, 54, 127
1, 32423, Note_off_c, 1, 70, 0
1, 32423, Note_off_c, 1, 73, 0
1, 32424, Note_on_c, 1, 71, 127
1, 32424, Note_on_c, 1, 74, 127
1, 32445, Note_off_c, 1, 54, 0
1, 32447, Note_off_c, 1, 71, 0
1, 32447, Note_off_c, 1, 74, 0
1, 32448, Note_on_c, 1, 73, 127
1, 32448, Note_on_c, 1, 76, 127
1, 32448, Note_on_c, 1, 54, 127
1, 32471, Note_off_c, 1, 73, 0
1, 32471, Note_off_c, 1, 76, 0
1, 32472, Note_on_c, 1, 71, 127
1, 32472, Note_on_c, 1, 74, 127
1, 32493, Note_off_c, 1, 54, 0
1, 32495, Note_off_c, 1, 71, 0
1, 32495, Note_off_c, 1, 74, 0
1, 32496, Note_on_c, 1, 73, 127
1, 32496, Note_on_c, 1, 76, 127
1, 32496, Note_on_c, 1, 54, 127
1, 32519, Note_off_c, 1, 73, 0
1, 32519, Note_off_c, 1, 76, 0
1, 32520, Note_on_c, 1, 70, 127
1, 32541, Note_off_c, 1, 54, 0
1, 32543, Note_off_c, 1, 70, 0
1, 32544, Note_on_c, 1, 71, 127
1, 32544, Note_on_c, 1, 74, 127
1, 32544, Note_on_c, 1, 54, 127
1, 32567, Note_off_c, 1, 74, 0
1, 32568, Note_on_c, 1, 73, 127
1, 32589, Note_off_c, 1, 71, 0
1, 32589, Note_off_c, 1, 54, 0
1, 32591, Note_off_c, 1, 73, 0
1, 32592, Note_on_c, 1, 79, 127
1, 32592, Note_on_c, 1, 71, 127
1, 32592, Note_on_c, 1, 62, 127
1, 32604, Note_off_c, 1, 62, 0
1, 32604, Note_on_c, 1, 61, 127
1, 32615, Note_off_c, 1, 71, 0
1, 32616, Note_off_c, 1, 61, 0
1, 32616, Note_on_c, 1, 59, 127
1, 32639, Note_off_c, 1, 59, 0
1, 32640, Note_on_c, 1, 76, 127
1, 32663, Note_off_c, 1, 76, 0
1, 32664, Note_on_c, 1, 73, 127
1, 32681, Note_off_c, 1, 79, 0
1, 32687, Note_off_c, 1, 73, 0
1, 32688, Note_on_c, 1, 78, 127
1, 32688, Note_on_c, 1, 70, 127
1, 32688, Note_on_c, 1, 61, 127
1, 32700, Note_off_c, 1, 61, 0
1, 32700, Note_on_c, 1, 59, 127
1, 32711, Note_off_c, 1, 70, 0
1, 32712, Note_off_c, 1, 59, 0
1, 32712, Note_on_c, 1, 58, 127
1, 32735, Note_off_c, 1, 58, 0
1, 32736, Note_on_c, 1, 74, 127
1, 32759, Note_off_c, 1, 74, 0
1, 32760, Note_on_c, 1, 71, 127
1, 32777, Note_off_c, 1, 78, 0
1, 32783, Note_off_c, 1, 71, 0
1, 32784, Note_on_c, 1, 76, 127
1, 32784, Note_on_c, 1, 68, 127
1, 32784, Note_on_c, 1, 59, 127
1, 32796, Note_off_c, 1, 59, 0
1, 32796, Note_on_c, 1, 58, 127
1, 32807, Note_off_c, 1, 68, 0
1, 32808, Note_off_c, 1, 58, 0
1, 32808, Note_on_c, 1, 56, 127
1, 32831, Note_off_c, 1, 76, 0
1, 32831, Note_off_c, 1, 56, 0
1, 32832, Note_on_c, 1, 76, 127
1, 32832, Note_on_c, 1, 73, 127
1, 32832, Note_on_c, 1, 58, 127
1, 32855, Note_off_c, 1, 73, 0
1, 32856, Note_on_c, 1, 79, 127
1, 32879, Note_off_c, 1, 79, 0
1, 32880, Note_on_c, 1, 78, 127
1, 32903, Note_off_c, 1, 78, 0
1, 32928, Note_on_c, 1, 85, 127
1, 32951, Note_off_c, 1, 85, 0
1, 32952, Note_on_c, 1, 83, 127
1, 32965, Note_off_c, 1, 76, 0
1, 32965, Note_off_c, 1, 58, 0
1, 32975, Note_off_c, 1, 83, 0
1, 32976, Note_on_c, 1, 78, 127
1, 32976, Note_on_c, 1, 82, 127
1, 32976, Note_on_c, 1, 54, 127
1, 32999, Note_off_c, 1, 82, 0
1, 33000, Note_on_c, 1, 80, 127
1, 33021, Note_off_c, 1, 78, 0
1, 33021, Note_off_c, 1, 54, 0
1, 33023, Note_off_c, 1, 80, 0
1, 33024, Note_on_c, 1, 74, 127
1, 33024, Note_on_c, 1, 78, 127
1, 33024, Note_on_c, 1, 59, 127
1, 33047, Note_off_c, 1, 78, 0
1, 33048, Note_on_c, 1, 76, 127
1, 33069, Note_off_c, 1, 59, 0
1, 33071, Note_off_c, 1, 76, 0
1, 33072, Note_on_c, 1, 54, 127
1, 33096, Note_on_c, 1, 73, 127
1, 33117, Note_off_c, 1, 54, 0
1, 33119, Note_off_c, 1, 73, 0
1, 33120, Note_on_c, 1, 71, 127
1, 33120, Note_on_c, 1, 55, 127
1, 33143, Note_off_c, 1, 71, 0
1, 33144, Note_on_c, 1, 70, 127
1, 33165, Note_off_c, 1, 74, 0
1, 33165, Note_off_c, 1, 55, 0
1, 33167, Note_off_c, 1, 70, 0
1, 33168, Note_on_c, 1, 79, 127
1, 33168, Note_on_c, 1, 71, 127
1, 33168, Note_on_c, 1, 52, 127
1, 33191, Note_off_c, 1, 71, 0
1, 33192, Note_on_c, 1, 76, 127
1, 33213, Note_off_c, 1, 79, 0
1, 33213, Note_off_c, 1, 52, 0
1, 33215, Note_off_c, 1, 76, 0
1, 33216, Note_on_c, 1, 73, 127
1, 33216, Note_on_c, 1, 70, 127
1, 33216, Note_on_c, 1, 54, 127
1, 33261, Note_off_c, 1, 54, 0
1, 33264, Note_on_c, 1, 52, 127
1, 33309, Note_off_c, 1, 52, 0
1, 33349, Note_off_c, 1, 73, 0
1, 33349, Note_off_c, 1, 70, 0
1, 33360, Note_on_c, 1, 71, 127
1, 33360, Note_on_c, 1, 42, 127
1, 33405, Note_off_c, 1, 71, 0
1, 33405, Note_off_c, 1, 42, 0
1, 33408, Note_on_c, 1, 71, 127
1, 33408, Note_on_c, 1, 47, 127
1, 33432, Note_on_c, 1, 66, 127
1, 33453, Note_off_c, 1, 71, 0
1, 33455, Note_off_c, 1, 66, 0
1, 33456, Note_on_c, 1, 68, 127
1, 33456, Note_on_c, 1, 78, 127
1, 33479, Note_off_c, 1, 68, 0
1, 33480, Note_on_c, 1, 70, 127
1, 33497, Note_off_c, 1, 47, 0
1, 33501, Note_off_c, 1, 78, 0
1, 33503, Note_off_c, 1, 70, 0
1, 33504, Note_on_c, 1, 71, 127
1, 33504, Note_on_c, 1, 74, 127
1, 33527, Note_off_c, 1, 71, 0
1, 33528, Note_on_c, 1, 73, 127
1, 33549, Note_off_c, 1, 74, 0
1, 33551, Note_off_c, 1, 73, 0
1, 33552, Note_on_c, 1, 74, 127
1, 33552, Note_on_c, 1, 71, 127
1, 33552, Note_on_c, 1, 59, 127
1, 33575, Note_off_c, 1, 74, 0
1, 33575, Note_off_c, 1, 59, 0
1, 33576, Note_on_c, 1, 76, 127
1, 33576, Note_on_c, 1, 61, 127
1, 33597, Note_off_c, 1, 71, 0
1, 33599, Note_off_c, 1, 76, 0
1, 33599, Note_off_c, 1, 61, 0
1, 33600, Note_on_c, 1, 78, 127
1, 33600, Note_on_c, 1, 83, 127
1, 33600, Note_on_c, 1, 59, 127
1, 33623, Note_off_c, 1, 78, 0
1, 33623, Note_off_c, 1, 59, 0
1, 33624, Note_on_c, 1, 73, 127
1, 33624, Note_on_c, 1, 57, 127
1, 33647, Note_off_c, 1, 73, 0
1, 33647, Note_off_c, 1, 57, 0
1, 33648, Note_on_c, 1, 81, 127
1, 33648, Note_on_c, 1, 55, 127
1, 33671, Note_off_c, 1, 55, 0
1, 33672, Note_on_c, 1, 54, 127
1, 33689, Note_off_c, 1, 83, 0
1, 33693, Note_off_c, 1, 81, 0
1, 33695, Note_off_c, 1, 54, 0
1, 33696, Note_on_c, 1, 79, 127
1, 33696, Note_on_c, 1, 52, 127
1, 33741, Note_off_c, 1, 79, 0
1, 33744, Note_on_c, 1, 72, 127
1, 33744, Note_on_c, 1, 64, 127
1, 33767, Note_off_c, 1, 64, 0
1, 33768, Note_on_c, 1, 66, 127
1, 33785, Note_off_c, 1, 52, 0
1, 33789, Note_off_c, 1, 72, 0
1, 33791, Note_off_c, 1, 66, 0
1, 33792, Note_on_c, 1, 72, 127
1, 33792, Note_on_c, 1, 67, 127
1, 33815, Note_off_c, 1, 67, 0
1, 33839, Note_off_c, 1, 72, 0
1, 33840, Note_on_c, 1, 72, 127
1, 33840, Note_on_c, 1, 76, 127
1, 33840, Note_on_c, 1, 40, 127
1, 33863, Note_off_c, 1, 76, 0
1, 33885, Note_off_c, 1, 40, 0
1, 33887, Note_off_c, 1, 72, 0
1, 33888, Note_on_c, 1, 72, 127
1, 33888, Note_on_c, 1, 67, 127
1, 33888, Note_on_c, 1, 52, 127
1, 33911, Note_off_c, 1, 67, 0
1, 33933, Note_off_c, 1, 52, 0
1, 33935, Note_off_c, 1, 72, 0
1, 33936, Note_on_c, 1, 72, 127
1, 33936, Note_on_c, 1, 66, 127
1, 33936, Note_on_c, 1, 51, 127
1, 33959, Note_off_c, 1, 66, 0
1, 33981, Note_off_c, 1, 51, 0
1, 33983, Note_off_c, 1, 72, 0
1, 33984, Note_on_c, 1, 72, 127
1, 33984, Note_on_c, 1, 67, 127
1, 33984, Note_on_c, 1, 52, 127
1, 34007, Note_off_c, 1, 67, 0
1, 34008, Note_on_c, 1, 66, 127
1, 34029, Note_off_c, 1, 72, 0
1, 34031, Note_off_c, 1, 66, 0
1, 34032, Note_on_c, 1, 76, 127
1, 34032, Note_on_c, 1, 64, 127
1, 34055, Note_off_c, 1, 76, 0
1, 34055, Note_off_c, 1, 64, 0
1, 34056, Note_on_c, 1, 74, 127
1, 34073, Note_off_c, 1, 52, 0
1, 34079, Note_off_c, 1, 74, 0
1, 34080, Note_on_c, 1, 72, 127
1, 34080, Note_on_c, 1, 67, 127
1, 34103, Note_off_c, 1, 67, 0
1, 34127, Note_off_c, 1, 72, 0
1, 34128, Note_on_c, 1, 72, 127
1, 34128, Note_on_c, 1, 76, 127
1, 34128, Note_on_c, 1, 52, 127
1, 34151, Note_off_c, 1, 76, 0
1, 34151, Note_off_c, 1, 52, 0
1, 34152, Note_on_c, 1, 51, 127
1, 34175, Note_off_c, 1, 72, 0
1, 34175, Note_off_c, 1, 51, 0
1, 34176, Note_on_c, 1, 72, 127
1, 34176, Note_on_c, 1, 71, 127
1, 34176, Note_on_c, 1, 52, 127
1, 34199, Note_off_c, 1, 71, 0
1, 34200, Note_on_c, 1, 69, 127
1, 34221, Note_off_c, 1, 72, 0
1, 34221, Note_off_c, 1, 52, 0
1, 34223, Note_off_c, 1, 69, 0
1, 34224, Note_on_c, 1, 72, 127
1, 34224, Note_on_c, 1, 67, 127
1, 34224, Note_on_c, 1, 54, 127
1, 34247, Note_off_c, 1, 67, 0
1, 34248, Note_on_c, 1, 66, 127
1, 34269, Note_off_c, 1, 72, 0
1, 34269, Note_off_c, 1, 54, 0
1, 34271, Note_off_c, 1, 66, 0
1, 34272, Note_on_c, 1, 73, 127
1, 34272, Note_on_c, 1, 64, 127
1, 34272, Note_on_c, 1, 55, 127
1, 34295, Note_off_c, 1, 64, 0
1, 34296, Note_on_c, 1, 62, 127
1, 34317, Note_off_c, 1, 73, 0
1, 34317, Note_off_c, 1, 55, 0
1, 34319, Note_off_c, 1, 62, 0
1, 34320, Note_on_c, 1, 70, 127
1, 34320, Note_on_c, 1, 61, 127
1, 34320, Note_on_c, 1, 52, 127
1, 34343, Note_off_c, 1, 70, 0
1, 34343, Note_off_c, 1, 61, 0
1, 34344, Note_on_c, 1, 71, 127
1, 34344, Note_on_c, 1, 62, 127
1, 34365, Note_off_c, 1, 52, 0
1, 34367, Note_off_c, 1, 71, 0
1, 34367, Note_off_c, 1, 62, 0
1, 34368, Note_on_c, 1, 73, 127
1, 34368, Note_on_c, 1, 64, 127
1, 34368, Note_on_c, 1, 58, 127
1, 34391, Note_off_c, 1, 64, 0
1, 34392, Note_on_c, 1, 66, 127
1, 34413, Note_off_c, 1, 73, 0
1, 34413, Note_off_c, 1, 58, 0
1, 34415, Note_off_c, 1, 66, 0
1, 34416, Note_on_c, 1, 71, 127
1, 34416, Note_on_c, 1, 68, 127
1, 34416, Note_on_c, 1, 54, 127
1, 34439, Note_off_c, 1, 71, 0
1, 34439, Note_off_c, 1, 68, 0
1, 34440, Note_on_c, 1, 73, 127
1, 34440, Note_on_c, 1, 70, 127
1, 34461, Note_off_c, 1, 54, 0
1, 34463, Note_off_c, 1, 73, 0
1, 34463, Note_off_c, 1, 70, 0
1, 34464, Note_on_c, 1, 74, 127
1, 34464, Note_on_c, 1, 71, 127
1, 34464, Note_on_c, 1, 59, 127
1, 34487, Note_off_c, 1, 71, 0
1, 34488, Note_on_c, 1, 73, 127
1, 34509, Note_off_c, 1, 74, 0
1, 34509, Note_off_c, 1, 59, 0
1, 34511, Note_off_c, 1, 73, 0
1, 34512, Note_on_c, 1, 70, 127
1, 34512, Note_on_c, 1, 74, 127
1, 34512, Note_on_c, 1, 54, 127
1, 34535, Note_off_c, 1, 74, 0
1, 34536, Note_on_c, 1, 76, 127
1, 34557, Note_off_c, 1, 70, 0
1, 34557, Note_off_c, 1, 54, 0
1, 34559, Note_off_c, 1, 76, 0
1, 34560, Note_on_c, 1, 71, 127
1, 34560, Note_on_c, 1, 78, 127
1, 34560, Note_on_c, 1, 50, 127
1, 34583, Note_off_c, 1, 78, 0
1, 34584, Note_on_c, 1, 76, 127
1, 34605, Note_off_c, 1, 71, 0
1, 34605, Note_off_c, 1, 50, 0
1, 34607, Note_off_c, 1, 76, 0
1, 34608, Note_on_c, 1, 73, 127
1, 34608, Note_on_c, 1, 78, 127
1, 34608, Note_on_c, 1, 52, 127
1, 34631, Note_off_c, 1, 78, 0
1, 34632, Note_on_c, 1, 79, 127
1, 34653, Note_off_c, 1, 73, 0
1, 34653, Note_off_c, 1, 52, 0
1, 34655, Note_off_c, 1, 79, 0
1, 34656, Note_on_c, 1, 70, 127
1, 34656, Note_on_c, 1, 73, 127
1, 34656, Note_on_c, 1, 54, 127
1, 34701, Note_off_c, 1, 54, 0
1, 34704, Note_on_c, 1, 52, 127
1, 34749, Note_off_c, 1, 52, 0
1, 34789, Note_off_c, 1, 70, 0
1, 34789, Note_off_c, 1, 73, 0
1, 34800, Note_on_c, 1, 71, 127
1, 34800, Note_on_c, 1, 42, 127
1, 34845, Note_off_c, 1, 71, 0
1, 34845, Note_off_c, 1, 42, 0
1, 34848, Note_on_c, 1, 71, 127
1, 34848, Note_on_c, 1, 47, 127
1, 35113, Note_off_c, 1, 71, 0
1, 35113, Note_off_c, 1, 47, 0
1, 35113, End_track
0, 0, End_of_file