0, 0, Header, 1, 1, 480
1, 0, Start_track
1, 0, Title_t, "Test"
1, 0, Tempo, 500000
1, 0, Instrument_name_t, "Church Organ"
1, 0, Note_on_c, 1, 42, 127
1, 6, Note_off_c, 1, 42, 0
1, 24, Note_on_c, 1, 54, 127
1, 30, Note_off_c, 1, 54, 0
1, 48, Note_on_c, 1, 73, 127
1, 48, Note_on_c, 1, 57, 127
1, 54, Note_off_c, 1, 57, 0
1, 72, Note_on_c, 1, 54, 127
1, 78, Note_off_c, 1, 54, 0
1, 93, Note_off_c, 1, 73, 0
1, 96, Note_on_c, 1, 71, 127
1, 96, Note_on_c, 1, 53, 127
1, 102, Note_off_c, 1, 53, 0
1, 120, Note_on_c, 1, 56, 127
1, 126, Note_off_c, 1, 56, 0
1, 141, Note_off_c, 1, 71, 0
1, 144, Note_on_c, 1, 69, 127
1, 144, Note_on_c, 1, 49, 127
1, 150, Note_off_c, 1, 49, 0
1, 167, Note_off_c, 1, 69, 0
1, 168, Note_on_c, 1, 68, 127
1, 168, Note_on_c, 1, 53, 127
1, 174, Note_off_c, 1, 53, 0
1, 191, Note_off_c, 1, 68, 0
1, 192, Note_on_c, 1, 69, 127
1, 192, Note_on_c, 1, 42, 127
1, 198, Note_off_c, 1, 42, 0
1, 216, Note_on_c, 1, 54, 127
1, 222, Note_off_c, 1, 54, 0
1, 237, Note_off_c, 1, 69, 0
1, 240, Note_on_c, 1, 68, 127
1, 240, Note_on_c, 1, 57, 127
1, 246, Note_off_c, 1, 57, 0
1, 263, Note_off_c, 1, 68, 0
1, 264, Note_on_c, 1, 66, 127
1, 264, Note_on_c, 1, 54, 127
1, 270, Note_off_c, 1, 54, 0
1, 287, Note_off_c, 1, 66, 0
1, 288, Note_on_c, 1, 74, 127
1, 288, Note_on_c, 1, 56, 127
1, 294, Note_off_c, 1, 56, 0
1, 312, Note_on_c, 1, 59, 127
1, 318, Note_off_c, 1, 59, 0
1, 333, Note_off_c, 1, 74, 0
1, 336, Note_on_c, 1, 74, 127
1, 336, Note_on_c, 1, 52, 127
1, 342, Note_off_c, 1, 52, 0
1, 360, Note_on_c, 1, 56, 127
1, 366, Note_off_c, 1, 56, 0
1, 381, Note_off_c, 1, 74, 0
1, 384, Note_on_c, 1, 74, 127
1, 384, Note_on_c, 1, 45, 127
1, 390, Note_off_c, 1, 45, 0
1, 408, Note_on_c, 1, 57, 127
1, 414, Note_off_c, 1, 57, 0
1, 429, Note_off_c, 1, 74, 0
1, 432, Note_on_c, 1, 73, 127
1, 432, Note_on_c, 1, 61, 127
1, 438, Note_off_c, 1, 61, 0
1, 456, Note_on_c, 1, 57, 127
1, 462, Note_off_c, 1, 57, 0
1, 477, Note_off_c, 1, 73, 0
1, 480, Note_on_c, 1, 75, 127
1, 480, Note_on_c, 1, 71, 127
1, 480, Note_on_c, 1, 56, 127
1, 486, Note_off_c, 1, 56, 0
1, 504, Note_on_c, 1, 59, 127
1, 510, Note_off_c, 1, 59, 0
1, 525, Note_off_c, 1, 75, 0
1, 525, Note_off_c, 1, 71, 0
1, 528, Note_on_c, 1, 77, 127
1, 528, Note_on_c, 1, 69, 127
1, 528, Note_on_c, 1, 49, 127
1, 534, Note_off_c, 1, 49, 0
1, 551, Note_off_c, 1, 69, 0
1, 552, Note_on_c, 1, 68, 127
1, 552, Note_on_c, 1, 61, 127
1, 558, Note_off_c, 1, 61, 0
1, 573, Note_off_c, 1, 77, 0
1, 575, Note_off_c, 1, 68, 0
1, 576, Note_on_c, 1, 78, 127
1, 576, Note_on_c, 1, 69, 127
1, 576, Note_on_c, 1, 42, 127
1, 582, Note_off_c, 1, 42, 0
1, 600, Note_on_c, 1, 54, 127
1, 606, Note_off_c, 1, 54, 0
1, 621, Note_off_c, 1, 69, 0
1, 624, Note_on_c, 1, 68, 127
1, 624, Note_on_c, 1, 57, 127
1, 630, Note_off_c, 1, 57, 0
1, 647, Note_off_c, 1, 68, 0
1, 648, Note_on_c, 1, 66, 127
1, 671, Note_off_c, 1, 66, 0
1, 672, Note_on_c, 1, 74, 127
1, 672, Note_on_c, 1, 47, 127
1, 678, Note_off_c, 1, 47, 0
1, 695, Note_off_c, 1, 78, 0
1, 696, Note_on_c, 1, 77, 127
1, 696, Note_on_c, 1, 50, 127
1, 702, Note_off_c, 1, 50, 0
1, 717, Note_off_c, 1, 74, 0
1, 719, Note_off_c, 1, 77, 0
1, 720, Note_on_c, 1, 78, 127
1, 720, Note_on_c, 1, 74, 127
1, 720, Note_on_c, 1, 44, 127
1, 726, Note_off_c, 1, 44, 0
1, 743, Note_off_c, 1, 78, 0
1, 744, Note_on_c, 1, 80, 127
1, 744, Note_on_c, 1, 47, 127
1, 750, Note_off_c, 1, 47, 0
1, 765, Note_off_c, 1, 74, 0
1, 767, Note_off_c, 1, 80, 0
1, 768, Note_on_c, 1, 77, 127
1, 768, Note_on_c, 1, 74, 127
1, 768, Note_on_c, 1, 37, 127
1, 774, Note_off_c, 1, 77, 0
1, 774, Note_on_c, 1, 78, 127
1, 780, Note_off_c, 1, 78, 0
1, 792, Note_off_c, 1, 37, 0
1, 813, Note_off_c, 1, 74, 0
1, 816, Note_on_c, 1, 73, 127
1, 861, Note_off_c, 1, 73, 0
1, 864, Note_on_c, 1, 75, 127
1, 909, Note_off_c, 1, 75, 0
1, 912, Note_on_c, 1, 80, 127
1, 912, Note_on_c, 1, 77, 127
1, 957, Note_off_c, 1, 80, 0
1, 957, Note_off_c, 1, 77, 0
1, 960, Note_on_c, 1, 81, 127
1, 960, Note_on_c, 1, 78, 127
1, 984, Note_on_c, 1, 54, 127
1, 990, Note_off_c, 1, 54, 0
1, 1008, Note_on_c, 1, 57, 127
1, 1014, Note_off_c, 1, 57, 0
1, 1027, Note_off_c, 1, 81, 0
1, 1032, Note_on_c, 1, 83, 127
1, 1055, Note_off_c, 1, 83, 0
1, 1056, Note_on_c, 1, 62, 127
1, 1062, Note_off_c, 1, 62, 0
1, 1079, Note_off_c, 1, 78, 0
1, 1080, Note_on_c, 1, 77, 127
1, 1080, Note_on_c, 1, 61, 127
1, 1086, Note_off_c, 1, 61, 0
1, 1103, Note_off_c, 1, 77, 0
1, 1128, Note_on_c, 1, 85, 127
1, 1128, Note_on_c, 1, 80, 127
1, 1128, Note_on_c, 1, 50, 127
1, 1134, Note_off_c, 1, 50, 0
1, 1151, Note_off_c, 1, 85, 0
1, 1151, Note_off_c, 1, 80, 0
1, 1152, Note_on_c, 1, 85, 127
1, 1152, Note_on_c, 1, 77, 127
1, 1152, Note_on_c, 1, 49, 127
1, 1158, Note_off_c, 1, 77, 0
1, 1158, Note_off_c, 1, 49, 0
1, 1158, Note_on_c, 1, 78, 127
1, 1164, Note_off_c, 1, 78, 0
1, 1176, Note_on_c, 1, 56, 127
1, 1182, Note_off_c, 1, 56, 0
1, 1200, Note_on_c, 1, 59, 127
1, 1206, Note_off_c, 1, 59, 0
1, 1241, Note_off_c, 1, 85, 0
1, 1248, Note_on_c, 1, 57, 127
1, 1254, Note_off_c, 1, 57, 0
1, 1272, Note_on_c, 1, 61, 127
1, 1278, Note_off_c, 1, 61, 0
1, 1296, Note_on_c, 1, 80, 127
1, 1296, Note_on_c, 1, 53, 127
1, 1302, Note_off_c, 1, 53, 0
1, 1320, Note_on_c, 1, 56, 127
1, 1326, Note_off_c, 1, 56, 0
1, 1341, Note_off_c, 1, 80, 0
1, 1344, Note_on_c, 1, 81, 127
1, 1344, Note_on_c, 1, 42, 127
1, 1350, Note_off_c, 1, 42, 0
1, 1368, Note_on_c, 1, 54, 127
1, 1374, Note_off_c, 1, 54, 0
1, 1392, Note_on_c, 1, 57, 127
1, 1398, Note_off_c, 1, 57, 0
1, 1411, Note_off_c, 1, 81, 0
1, 1416, Note_on_c, 1, 83, 127
1, 1416, Note_on_c, 1, 54, 127
1, 1422, Note_off_c, 1, 54, 0
1, 1439, Note_off_c, 1, 83, 0
1, 1440, Note_on_c, 1, 76, 127
1, 1440, Note_on_c, 1, 83, 127
1, 1440, Note_on_c, 1, 56, 127
1, 1446, Note_off_c, 1, 56, 0
1, 1464, Note_on_c, 1, 59, 127
1, 1470, Note_off_c, 1, 59, 0
1, 1488, Note_on_c, 1, 52, 127
1, 1494, Note_off_c, 1, 52, 0
1, 1507, Note_off_c, 1, 83, 0
1, 1512, Note_on_c, 1, 85, 127
1, 1535, Note_off_c, 1, 85, 0
1, 1536, Note_on_c, 1, 45, 127
1, 1542, Note_off_c, 1, 45, 0
1, 1560, Note_on_c, 1, 57, 127
1, 1566, Note_off_c, 1, 57, 0
1, 1581, Note_off_c, 1, 76, 0
1, 1584, Note_on_c, 1, 81, 127
1, 1584, Note_on_c, 1, 61, 127
1, 1590, Note_off_c, 1, 61, 0
1, 1607, Note_off_c, 1, 81, 0
1, 1608, Note_on_c, 1, 80, 127
1, 1631, Note_off_c, 1, 80, 0
1, 1632, Note_on_c, 1, 81, 127
1, 1632, Note_on_c, 1, 54, 127
1, 1638, Note_off_c, 1, 54, 0
1, 1656, Note_on_c, 1, 57, 127
1, 1662, Note_off_c, 1, 57, 0
1, 1677, Note_off_c, 1, 81, 0
1, 1680, Note_on_c, 1, 78, 127
1, 1680, Note_on_c, 1, 50, 127
1, 1686, Note_off_c, 1, 50, 0
1, 1704, Note_on_c, 1, 54, 127
1, 1710, Note_off_c, 1, 54, 0
1, 1725, Note_off_c, 1, 78, 0
1, 1728, Note_on_c, 1, 74, 127
1, 1728, Note_on_c, 1, 47, 127
1, 1734, Note_off_c, 1, 47, 0
1, 1752, Note_on_c, 1, 56, 127
1, 1758, Note_off_c, 1, 56, 0
1, 1776, Note_on_c, 1, 59, 127
1, 1782, Note_off_c, 1, 59, 0
1, 1795, Note_off_c, 1, 74, 0
1, 1800, Note_on_c, 1, 76, 127
1, 1800, Note_on_c, 1, 56, 127
1, 1806, Note_off_c, 1, 56, 0
1, 1823, Note_off_c, 1, 76, 0
1, 1824, Note_on_c, 1, 73, 127
1, 1824, Note_on_c, 1, 76, 127
1, 1824, Note_on_c, 1, 57, 127
1, 1830, Note_off_c, 1, 57, 0
1, 1848, Note_on_c, 1, 61, 127
1, 1854, Note_off_c, 1, 61, 0
1, 1872, Note_on_c, 1, 52, 127
1, 1878, Note_off_c, 1, 52, 0
1, 1891, Note_off_c, 1, 73, 0
1, 1896, Note_on_c, 1, 71, 127
1, 1919, Note_off_c, 1, 71, 0
1, 1920, Note_on_c, 1, 56, 127
1, 1926, Note_off_c, 1, 56, 0
1, 1944, Note_on_c, 1, 59, 127
1, 1950, Note_off_c, 1, 59, 0
1, 1965, Note_off_c, 1, 76, 0
1, 1968, Note_on_c, 1, 73, 127
1, 1968, Note_on_c, 1, 81, 127
1, 1968, Note_on_c, 1, 62, 127
1, 1974, Note_off_c, 1, 62, 0
1, 1991, Note_off_c, 1, 73, 0
1, 1991, Note_off_c, 1, 81, 0
1, 1992, Note_on_c, 1, 74, 127
1, 1992, Note_on_c, 1, 80, 127
1, 1992, Note_on_c, 1, 59, 127
1, 1998, Note_off_c, 1, 59, 0
1, 2015, Note_off_c, 1, 74, 0
1, 2015, Note_off_c, 1, 80, 0
1, 2016, Note_on_c, 1, 73, 127
1, 2016, Note_on_c, 1, 81, 127
1, 2016, Note_on_c, 1, 61, 127
1, 2039, Note_off_c, 1, 73, 0
1, 2040, Note_on_c, 1, 71, 127
1, 2061, Note_off_c, 1, 81, 0
1, 2063, Note_off_c, 1, 71, 0
1, 2064, Note_on_c, 1, 69, 127
1, 2064, Note_on_c, 1, 78, 127
1, 2087, Note_off_c, 1, 69, 0
1, 2088, Note_on_c, 1, 68, 127
1, 2109, Note_off_c, 1, 78, 0
1, 2111, Note_off_c, 1, 68, 0
1, 2112, Note_on_c, 1, 66, 127
1, 2112, Note_on_c, 1, 74, 127
1, 2118, Note_off_c, 1, 61, 0
1, 2136, Note_on_c, 1, 59, 127
1, 2142, Note_off_c, 1, 59, 0
1, 2157, Note_off_c, 1, 66, 0
1, 2160, Note_on_c, 1, 56, 127
1, 2166, Note_off_c, 1, 56, 0
1, 2179, Note_off_c, 1, 74, 0
1, 2184, Note_on_c, 1, 76, 127
1, 2184, Note_on_c, 1, 52, 127
1, 2190, Note_off_c, 1, 52, 0
1, 2207, Note_off_c, 1, 76, 0
1, 2208, Note_on_c, 1, 69, 127
1, 2208, Note_on_c, 1, 73, 127
1, 2208, Note_on_c, 1, 57, 127
1, 2214, Note_off_c, 1, 57, 0
1, 2231, Note_off_c, 1, 69, 0
1, 2232, Note_on_c, 1, 68, 127
1, 2232, Note_on_c, 1, 52, 127
1, 2238, Note_off_c, 1, 52, 0
1, 2255, Note_off_c, 1, 68, 0
1, 2256, Note_on_c, 1, 49, 127
1, 2262, Note_off_c, 1, 49, 0
1, 2275, Note_off_c, 1, 73, 0
1, 2280, Note_on_c, 1, 71, 127
1, 2280, Note_on_c, 1, 45, 127
1, 2286, Note_off_c, 1, 45, 0
1, 2303, Note_off_c, 1, 71, 0
1, 2304, Note_on_c, 1, 68, 127
1, 2304, Note_on_c, 1, 71, 127
1, 2304, Note_on_c, 1, 40, 127
1, 2310, Note_off_c, 1, 40, 0
1, 2327, Note_off_c, 1, 68, 0
1, 2328, Note_on_c, 1, 66, 127
1, 2328, Note_on_c, 1, 52, 127
1, 2334, Note_off_c, 1, 52, 0
1, 2349, Note_off_c, 1, 71, 0
1, 2351, Note_off_c, 1, 66, 0
1, 2352, Note_on_c, 1, 64, 127
1, 2352, Note_on_c, 1, 73, 127
1, 2352, Note_on_c, 1, 56, 127
1, 2358, Note_off_c, 1, 56, 0
1, 2375, Note_off_c, 1, 73, 0
1, 2376, Note_on_c, 1, 74, 127
1, 2376, Note_on_c, 1, 52, 127
1, 2382, Note_off_c, 1, 52, 0
1, 2397, Note_off_c, 1, 64, 0
1, 2399, Note_off_c, 1, 74, 0
1, 2400, Note_on_c, 1, 73, 127
1, 2400, Note_on_c, 1, 57, 127
1, 2406, Note_off_c, 1, 57, 0
1, 2423, Note_off_c, 1, 73, 0
1, 2424, Note_on_c, 1, 71, 127
1, 2424, Note_on_c, 1, 61, 127
1, 2430, Note_off_c, 1, 61, 0
1, 2447, Note_off_c, 1, 71, 0
1, 2448, Note_on_c, 1, 73, 127
1, 2448, Note_on_c, 1, 69, 127
1, 2448, Note_on_c, 1, 54, 127
1, 2454, Note_off_c, 1, 54, 0
1, 2471, Note_off_c, 1, 69, 0
1, 2472, Note_on_c, 1, 68, 127
1, 2472, Note_on_c, 1, 57, 127
1, 2478, Note_off_c, 1, 57, 0
1, 2495, Note_off_c, 1, 68, 0
1, 2496, Note_on_c, 1, 66, 127
1, 2496, Note_on_c, 1, 51, 127
1, 2502, Note_off_c, 1, 51, 0
1, 2541, Note_off_c, 1, 73, 0
1, 2541, Note_off_c, 1, 66, 0
1, 2544, Note_on_c, 1, 76, 127
1, 2544, Note_on_c, 1, 68, 127
1, 2544, Note_on_c, 1, 61, 127
1, 2550, Note_off_c, 1, 61, 0
1, 2567, Note_off_c, 1, 76, 0
1, 2568, Note_on_c, 1, 75, 127
1, 2568, Note_on_c, 1, 57, 127
1, 2574, Note_off_c, 1, 57, 0
1, 2589, Note_off_c, 1, 68, 0
1, 2591, Note_off_c, 1, 75, 0
1, 2592, Note_on_c, 1, 75, 127
1, 2592, Note_on_c, 1, 69, 127
1, 2592, Note_on_c, 1, 54, 127
1, 2598, Note_off_c, 1, 54, 0
1, 2615, Note_off_c, 1, 69, 0
1, 2616, Note_on_c, 1, 68, 127
1, 2616, Note_on_c, 1, 57, 127
1, 2622, Note_off_c, 1, 57, 0
1, 2639, Note_off_c, 1, 68, 0
1, 2640, Note_on_c, 1, 51, 127
1, 2646, Note_off_c, 1, 51, 0
1, 2664, Note_on_c, 1, 71, 127
1, 2687, Note_off_c, 1, 71, 0
1, 2688, Note_on_c, 1, 48, 127
1, 2694, Note_off_c, 1, 48, 0
1, 2712, Note_on_c, 1, 66, 127
1, 2712, Note_on_c, 1, 56, 127
1, 2718, Note_off_c, 1, 56, 0
1, 2733, Note_off_c, 1, 75, 0
1, 2735, Note_off_c, 1, 66, 0
1, 2736, Note_on_c, 1, 76, 127
1, 2736, Note_on_c, 1, 64, 127
1, 2736, Note_on_c, 1, 60, 127
1, 2742, Note_off_c, 1, 60, 0
1, 2759, Note_off_c, 1, 76, 0
1, 2760, Note_on_c, 1, 78, 127
1, 2760, Note_on_c, 1, 56, 127
1, 2766, Note_off_c, 1, 56, 0
1, 2781, Note_off_c, 1, 64, 0
1, 2783, Note_off_c, 1, 78, 0
1, 2784, Note_on_c, 1, 76, 127
1, 2784, Note_on_c, 1, 61, 127
1, 2790, Note_off_c, 1, 61, 0
1, 2808, Note_off_c, 1, 76, 0
1, 2808, Note_on_c, 1, 75, 127
1, 2808, Note_on_c, 1, 64, 127
1, 2814, Note_off_c, 1, 64, 0
1, 2831, Note_off_c, 1, 75, 0
1, 2832, Note_on_c, 1, 76, 127
1, 2832, Note_on_c, 1, 73, 127
1, 2832, Note_on_c, 1, 57, 127
1, 2838, Note_off_c, 1, 57, 0
1, 2856, Note_off_c, 1, 76, 0
1, 2856, Note_on_c, 1, 61, 127
1, 2862, Note_off_c, 1, 61, 0
1, 2880, Note_on_c, 1, 81, 127
1, 2880, Note_on_c, 1, 54, 127
1, 2886, Note_off_c, 1, 54, 0
1, 2925, Note_off_c, 1, 73, 0
1, 2952, Note_on_c, 1, 75, 127
1, 2975, Note_off_c, 1, 75, 0
1, 2999, Note_off_c, 1, 81, 0
1, 3024, Note_on_c, 1, 51, 127
1, 3030, Note_off_c, 1, 51, 0
1, 3048, Note_on_c, 1, 78, 127
1, 3071, Note_off_c, 1, 78, 0
1, 3072, Note_on_c, 1, 72, 127
1, 3072, Note_on_c, 1, 44, 127
1, 3078, Note_off_c, 1, 44, 0
1, 3096, Note_on_c, 1, 56, 127
1, 3102, Note_off_c, 1, 56, 0
1, 3117, Note_off_c, 1, 72, 0
1, 3120, Note_on_c, 1, 70, 127
1, 3120, Note_on_c, 1, 76, 127
1, 3120, Note_on_c, 1, 60, 127
1, 3126, Note_off_c, 1, 60, 0
1, 3143, Note_off_c, 1, 70, 0
1, 3143, Note_off_c, 1, 76, 0
1, 3144, Note_on_c, 1, 68, 127
1, 3144, Note_on_c, 1, 78, 127
1, 3144, Note_on_c, 1, 56, 127
1, 3150, Note_off_c, 1, 56, 0
1, 3167, Note_off_c, 1, 68, 0
1, 3167, Note_off_c, 1, 78, 0
1, 3168, Note_on_c, 1, 76, 127
1, 3168, Note_on_c, 1, 61, 127
1, 3174, Note_off_c, 1, 61, 0
1, 3191, Note_off_c, 1, 76, 0
1, 3192, Note_on_c, 1, 75, 127
1, 3192, Note_on_c, 1, 64, 127
1, 3198, Note_off_c, 1, 64, 0
1, 3215, Note_off_c, 1, 75, 0
1, 3216, Note_on_c, 1, 80, 127
1, 3216, Note_on_c, 1, 76, 127
1, 3216, Note_on_c, 1, 57, 127
1, 3222, Note_off_c, 1, 57, 0
1, 3239, Note_off_c, 1, 76, 0
1, 3240, Note_on_c, 1, 73, 127
1, 3240, Note_on_c, 1, 61, 127
1, 3246, Note_off_c, 1, 61, 0
1, 3263, Note_off_c, 1, 73, 0
1, 3264, Note_on_c, 1, 81, 127
1, 3264, Note_on_c, 1, 42, 127
1, 3270, Note_off_c, 1, 42, 0
1, 3287, Note_off_c, 1, 80, 0
1, 3288, Note_on_c, 1, 54, 127
1, 3294, Note_off_c, 1, 54, 0
1, 3312, Note_on_c, 1, 75, 127
1, 3335, Note_off_c, 1, 75, 0
1, 3360, Note_on_c, 1, 78, 127
1, 3360, Note_on_c, 1, 51, 127
1, 3366, Note_off_c, 1, 51, 0
1, 3383, Note_off_c, 1, 81, 0
1, 3408, Note_on_c, 1, 48, 127
1, 3414, Note_off_c, 1, 48, 0
1, 3456, Note_on_c, 1, 72, 127
1, 3456, Note_on_c, 1, 44, 127
1, 3462, Note_off_c, 1, 44, 0
1, 3479, Note_off_c, 1, 78, 0
1, 3480, Note_on_c, 1, 56, 127
1, 3486, Note_off_c, 1, 56, 0
1, 3503, Note_off_c, 1, 72, 0
1, 3504, Note_on_c, 1, 73, 127
1, 3504, Note_on_c, 1, 70, 127
1, 3504, Note_on_c, 1, 60, 127
1, 3510, Note_off_c, 1, 60, 0
1, 3527, Note_off_c, 1, 73, 0
1, 3527, Note_off_c, 1, 70, 0
1, 3528, Note_on_c, 1, 75, 127
1, 3528, Note_on_c, 1, 68, 127
1, 3528, Note_on_c, 1, 56, 127
1, 3534, Note_off_c, 1, 56, 0
1, 3551, Note_off_c, 1, 75, 0
1, 3551, Note_off_c, 1, 68, 0
1, 3552, Note_on_c, 1, 76, 127
1, 3552, Note_on_c, 1, 61, 127
1, 3558, Note_off_c, 1, 61, 0
1, 3576, Note_off_c, 1, 76, 0
1, 3576, Note_on_c, 1, 75, 127
1, 3576, Note_on_c, 1, 64, 127
1, 3582, Note_off_c, 1, 64, 0
1, 3599, Note_off_c, 1, 75, 0
1, 3600, Note_on_c, 1, 78, 127
1, 3600, Note_on_c, 1, 80, 127
1, 3600, Note_on_c, 1, 56, 127
1, 3606, Note_off_c, 1, 56, 0
1, 3624, Note_off_c, 1, 78, 0
1, 3624, Note_on_c, 1, 76, 127
1, 3624, Note_on_c, 1, 59, 127
1, 3630, Note_off_c, 1, 59, 0
1, 3647, Note_off_c, 1, 76, 0
1, 3648, Note_on_c, 1, 75, 127
1, 3648, Note_on_c, 1, 57, 127
1, 3654, Note_off_c, 1, 57, 0
1, 3671, Note_off_c, 1, 80, 0
1, 3672, Note_off_c, 1, 75, 0
1, 3672, Note_on_c, 1, 73, 127
1, 3672, Note_on_c, 1, 61, 127
1, 3678, Note_off_c, 1, 61, 0
1, 3695, Note_off_c, 1, 73, 0
1, 3696, Note_on_c, 1, 72, 127
1, 3696, Note_on_c, 1, 75, 127
1, 3696, Note_on_c, 1, 54, 127
1, 3702, Note_off_c, 1, 54, 0
1, 3719, Note_off_c, 1, 75, 0
1, 3720, Note_off_c, 1, 72, 0
1, 3720, Note_on_c, 1, 73, 127
1, 3720, Note_on_c, 1, 57, 127
1, 3726, Note_off_c, 1, 57, 0
1, 3743, Note_off_c, 1, 73, 0
1, 3744, Note_on_c, 1, 72, 127
1, 3744, Note_on_c, 1, 78, 127
1, 3744, Note_on_c, 1, 56, 127
1, 3756, Note_off_c, 1, 56, 0
1, 3792, Note_on_c, 1, 44, 127
1, 3804, Note_off_c, 1, 44, 0
1, 3811, Note_off_c, 1, 72, 0
1, 3816, Note_on_c, 1, 73, 127
1, 3839, Note_off_c, 1, 73, 0
1, 3840, Note_on_c, 1, 49, 127
1, 3846, Note_off_c, 1, 49, 0
1, 3863, Note_off_c, 1, 78, 0
1, 3864, Note_on_c, 1, 52, 127
1, 3870, Note_off_c, 1, 52, 0
1, 3912, Note_on_c, 1, 75, 127
1, 3935, Note_off_c, 1, 75, 0
1, 3936, Note_on_c, 1, 76, 127
1, 3936, Note_on_c, 1, 49, 127
1, 3942, Note_off_c, 1, 49, 0
1, 3960, Note_off_c, 1, 76, 0
1, 3960, Note_on_c, 1, 75, 127
1, 3960, Note_on_c, 1, 52, 127
1, 3966, Note_off_c, 1, 52, 0
1, 3983, Note_off_c, 1, 75, 0
1, 3984, Note_on_c, 1, 78, 127
1, 3984, Note_on_c, 1, 45, 127
1, 3990, Note_off_c, 1, 45, 0
1, 4008, Note_off_c, 1, 78, 0
1, 4008, Note_on_c, 1, 76, 127
1, 4008, Note_on_c, 1, 49, 127
1, 4014, Note_off_c, 1, 49, 0
1, 4031, Note_off_c, 1, 76, 0
1, 4032, Note_on_c, 1, 75, 127
1, 4032, Note_on_c, 1, 42, 127
1, 4038, Note_off_c, 1, 42, 0
1, 4055, Note_off_c, 1, 75, 0
1, 4056, Note_on_c, 1, 73, 127
1, 4056, Note_on_c, 1, 45, 127
1, 4062, Note_off_c, 1, 45, 0
1, 4079, Note_off_c, 1, 73, 0
1, 4080, Note_on_c, 1, 68, 127
1, 4080, Note_on_c, 1, 72, 127
1, 4080, Note_on_c, 1, 39, 127
1, 4086, Note_off_c, 1, 39, 0
1, 4103, Note_off_c, 1, 72, 0
1, 4104, Note_on_c, 1, 73, 127
1, 4104, Note_on_c, 1, 42, 127
1, 4110, Note_off_c, 1, 42, 0
1, 4125, Note_off_c, 1, 68, 0
1, 4127, Note_off_c, 1, 73, 0
1, 4128, Note_on_c, 1, 66, 127
1, 4128, Note_on_c, 1, 72, 127
1, 4128, Note_on_c, 1, 44, 127
1, 4140, Note_off_c, 1, 44, 0
1, 4173, Note_off_c, 1, 66, 0
1, 4176, Note_on_c, 1, 64, 127
1, 4195, Note_off_c, 1, 72, 0
1, 4199, Note_off_c, 1, 64, 0
1, 4200, Note_on_c, 1, 63, 127
1, 4200, Note_on_c, 1, 73, 127
1, 4223, Note_off_c, 1, 63, 0
1, 4223, Note_off_c, 1, 73, 0
1, 4224, Note_on_c, 1, 64, 127
1, 4224, Note_on_c, 1, 73, 127
1, 4224, Note_on_c, 1, 37, 127
1, 4230, Note_off_c, 1, 37, 0
1, 4248, Note_on_c, 1, 49, 127
1, 4254, Note_off_c, 1, 49, 0
1, 4269, Note_off_c, 1, 64, 0
1, 4272, Note_on_c, 1, 63, 127
1, 4272, Note_on_c, 1, 52, 127
1, 4278, Note_off_c, 1, 52, 0
1, 4295, Note_off_c, 1, 63, 0
1, 4296, Note_on_c, 1, 61, 127
1, 4313, Note_off_c, 1, 73, 0
1, 4319, Note_off_c, 1, 61, 0
1, 4320, Note_on_c, 1, 69, 127
1, 4320, Note_on_c, 1, 51, 127
1, 4326, Note_off_c, 1, 51, 0
1, 4344, Note_on_c, 1, 54, 127
1, 4350, Note_off_c, 1, 54, 0
1, 4365, Note_off_c, 1, 69, 0
1, 4368, Note_on_c, 1, 69, 127
1, 4368, Note_on_c, 1, 47, 127
1, 4374, Note_off_c, 1, 47, 0
1, 4392, Note_on_c, 1, 51, 127
1, 4398, Note_off_c, 1, 51, 0
1, 4413, Note_off_c, 1, 69, 0
1, 4416, Note_on_c, 1, 69, 127
1, 4416, Note_on_c, 1, 40, 127
1, 4422, Note_off_c, 1, 40, 0
1, 4440, Note_on_c, 1, 52, 127
1, 4446, Note_off_c, 1, 52, 0
1, 4461, Note_off_c, 1, 69, 0
1, 4464, Note_on_c, 1, 68, 127
1, 4464, Note_on_c, 1, 56, 127
1, 4470, Note_off_c, 1, 56, 0
1, 4488, Note_on_c, 1, 52, 127
1, 4494, Note_off_c, 1, 52, 0
1, 4509, Note_off_c, 1, 68, 0
1, 4512, Note_on_c, 1, 70, 127
1, 4512, Note_on_c, 1, 66, 127
1, 4512, Note_on_c, 1, 51, 127
1, 4518, Note_off_c, 1, 51, 0
1, 4536, Note_on_c, 1, 54, 127
1, 4542, Note_off_c, 1, 54, 0
1, 4557, Note_off_c, 1, 70, 0
1, 4557, Note_off_c, 1, 66, 0
1, 4560, Note_on_c, 1, 72, 127
1, 4560, Note_on_c, 1, 64, 127
1, 4560, Note_on_c, 1, 44, 127
1, 4566, Note_off_c, 1, 44, 0
1, 4583, Note_off_c, 1, 64, 0
1, 4584, Note_on_c, 1, 63, 127
1, 4584, Note_on_c, 1, 56, 127
1, 4590, Note_off_c, 1, 56, 0
1, 4605, Note_off_c, 1, 72, 0
1, 4607, Note_off_c, 1, 63, 0
1, 4608, Note_on_c, 1, 73, 127
1, 4608, Note_on_c, 1, 64, 127
1, 4608, Note_on_c, 1, 37, 127
1, 4614, Note_off_c, 1, 37, 0
1, 4632, Note_on_c, 1, 49, 127
1, 4638, Note_off_c, 1, 49, 0
1, 4653, Note_off_c, 1, 64, 0
1, 4656, Note_on_c, 1, 63, 127
1, 4656, Note_on_c, 1, 52, 127
1, 4662, Note_off_c, 1, 52, 0
1, 4679, Note_off_c, 1, 63, 0
1, 4680, Note_on_c, 1, 61, 127
1, 4703, Note_off_c, 1, 61, 0
1, 4704, Note_on_c, 1, 69, 127
1, 4704, Note_on_c, 1, 54, 127
1, 4710, Note_off_c, 1, 54, 0
1, 4727, Note_off_c, 1, 73, 0
1, 4728, Note_on_c, 1, 72, 127
1, 4728, Note_on_c, 1, 57, 127
1, 4734, Note_off_c, 1, 57, 0
1, 4749, Note_off_c, 1, 69, 0
1, 4751, Note_off_c, 1, 72, 0
1, 4752, Note_on_c, 1, 73, 127
1, 4752, Note_on_c, 1, 69, 127
1, 4752, Note_on_c, 1, 51, 127
1, 4758, Note_off_c, 1, 51, 0
1, 4775, Note_off_c, 1, 73, 0
1, 4776, Note_on_c, 1, 75, 127
1, 4776, Note_on_c, 1, 54, 127
1, 4782, Note_off_c, 1, 54, 0
1, 4797, Note_off_c, 1, 69, 0
1, 4799, Note_off_c, 1, 75, 0
1, 4800, Note_on_c, 1, 72, 127
1, 4800, Note_on_c, 1, 69, 127
1, 4800, Note_on_c, 1, 44, 127
1, 4806, Note_off_c, 1, 72, 0
1, 4806, Note_on_c, 1, 73, 127
1, 4812, Note_off_c, 1, 73, 0
1, 4824, Note_off_c, 1, 44, 0
1, 4845, Note_off_c, 1, 69, 0
1, 4848, Note_on_c, 1, 68, 127
1, 4893, Note_off_c, 1, 68, 0
1, 4896, Note_on_c, 1, 70, 127
1, 4941, Note_off_c, 1, 70, 0
1, 4944, Note_on_c, 1, 75, 127
1, 4944, Note_on_c, 1, 72, 127
1, 4989, Note_off_c, 1, 75, 0
1, 4989, Note_off_c, 1, 72, 0
1, 4992, Note_on_c, 1, 76, 127
1, 4992, Note_on_c, 1, 73, 127
1, 5016, Note_on_c, 1, 49, 127
1, 5022, Note_off_c, 1, 49, 0
1, 5040, Note_on_c, 1, 52, 127
1, 5046, Note_off_c, 1, 52, 0
1, 5059, Note_off_c, 1, 76, 0
1, 5064, Note_on_c, 1, 78, 127
1, 5087, Note_off_c, 1, 78, 0
1, 5088, Note_on_c, 1, 57, 127
1, 5094, Note_off_c, 1, 57, 0
1, 5111, Note_off_c, 1, 73, 0
1, 5112, Note_on_c, 1, 72, 127
1, 5112, Note_on_c, 1, 56, 127
1, 5118, Note_off_c, 1, 56, 0
1, 5135, Note_off_c, 1, 72, 0
1, 5160, Note_on_c, 1, 80, 127
1, 5160, Note_on_c, 1, 75, 127
1, 5160, Note_on_c, 1, 45, 127
1, 5166, Note_off_c, 1, 45, 0
1, 5183, Note_off_c, 1, 80, 0
1, 5183, Note_off_c, 1, 75, 0
1, 5184, Note_on_c, 1, 80, 127
1, 5184, Note_on_c, 1, 72, 127
1, 5184, Note_on_c, 1, 44, 127
1, 5190, Note_off_c, 1, 72, 0
1, 5190, Note_off_c, 1, 44, 0
1, 5190, Note_on_c, 1, 73, 127
1, 5196, Note_off_c, 1, 73, 0
1, 5208, Note_on_c, 1, 51, 127
1, 5214, Note_off_c, 1, 51, 0
1, 5232, Note_on_c, 1, 54, 127
1, 5238, Note_off_c, 1, 54, 0
1, 5273, Note_off_c, 1, 80, 0
1, 5280, Note_on_c, 1, 52, 127
1, 5286, Note_off_c, 1, 52, 0
1, 5304, Note_on_c, 1, 56, 127
1, 5310, Note_off_c, 1, 56, 0
1, 5328, Note_on_c, 1, 75, 127
1, 5328, Note_on_c, 1, 48, 127
1, 5334, Note_off_c, 1, 48, 0
1, 5352, Note_on_c, 1, 51, 127
1, 5358, Note_off_c, 1, 51, 0
1, 5373, Note_off_c, 1, 75, 0
1, 5376, Note_on_c, 1, 76, 127
1, 5376, Note_on_c, 1, 37, 127
1, 5382, Note_off_c, 1, 37, 0
1, 5400, Note_on_c, 1, 49, 127
1, 5406, Note_off_c, 1, 49, 0
1, 5424, Note_on_c, 1, 52, 127
1, 5430, Note_off_c, 1, 52, 0
1, 5443, Note_off_c, 1, 76, 0
1, 5448, Note_on_c, 1, 78, 127
1, 5448, Note_on_c, 1, 49, 127
1, 5454, Note_off_c, 1, 49, 0
1, 5471, Note_off_c, 1, 78, 0
1, 5472, Note_on_c, 1, 71, 127
1, 5472, Note_on_c, 1, 78, 127
1, 5472, Note_on_c, 1, 51, 127
1, 5478, Note_off_c, 1, 51, 0
1, 5496, Note_on_c, 1, 54, 127
1, 5502, Note_off_c, 1, 54, 0
1, 5520, Note_on_c, 1, 47, 127
1, 5526, Note_off_c, 1, 47, 0
1, 5539, Note_off_c, 1, 78, 0
1, 5544, Note_on_c, 1, 80, 127
1, 5567, Note_off_c, 1, 80, 0
1, 5568, Note_on_c, 1, 40, 127
1, 5574, Note_off_c, 1, 40, 0
1, 5592, Note_on_c, 1, 52, 127
1, 5598, Note_off_c, 1, 52, 0
1, 5613, Note_off_c, 1, 71, 0
1, 5616, Note_on_c, 1, 76, 127
1, 5616, Note_on_c, 1, 56, 127
1, 5622, Note_off_c, 1, 56, 0
1, 5639, Note_off_c, 1, 76, 0
1, 5640, Note_on_c, 1, 75, 127
1, 5663, Note_off_c, 1, 75, 0
1, 5664, Note_on_c, 1, 76, 127
1, 5664, Note_on_c, 1, 49, 127
1, 5670, Note_off_c, 1, 49, 0
1, 5688, Note_on_c, 1, 52, 127
1, 5694, Note_off_c, 1, 52, 0
1, 5709, Note_off_c, 1, 76, 0
1, 5712, Note_on_c, 1, 73, 127
1, 5712, Note_on_c, 1, 45, 127
1, 5718, Note_off_c, 1, 45, 0
1, 5736, Note_on_c, 1, 49, 127
1, 5742, Note_off_c, 1, 49, 0
1, 5757, Note_off_c, 1, 73, 0
1, 5760, Note_on_c, 1, 69, 127
1, 5760, Note_on_c, 1, 42, 127
1, 5766, Note_off_c, 1, 42, 0
1, 5784, Note_on_c, 1, 51, 127
1, 5790, Note_off_c, 1, 51, 0
1, 5808, Note_on_c, 1, 54, 127
1, 5814, Note_off_c, 1, 54, 0
1, 5827, Note_off_c, 1, 69, 0
1, 5832, Note_on_c, 1, 71, 127
1, 5832, Note_on_c, 1, 51, 127
1, 5838, Note_off_c, 1, 51, 0
1, 5855, Note_off_c, 1, 71, 0
1, 5856, Note_on_c, 1, 68, 127
1, 5856, Note_on_c, 1, 71, 127
1, 5856, Note_on_c, 1, 52, 127
1, 5862, Note_off_c, 1, 52, 0
1, 5880, Note_on_c, 1, 56, 127
1, 5886, Note_off_c, 1, 56, 0
1, 5904, Note_on_c, 1, 47, 127
1, 5910, Note_off_c, 1, 47, 0
1, 5923, Note_off_c, 1, 68, 0
1, 5928, Note_on_c, 1, 66, 127
1, 5945, Note_off_c, 1, 71, 0
1, 5951, Note_off_c, 1, 66, 0
1, 5952, Note_on_c, 1, 66, 127
1, 5952, Note_on_c, 1, 71, 127
1, 5952, Note_on_c, 1, 51, 127
1, 5958, Note_off_c, 1, 51, 0
1, 5976, Note_on_c, 1, 54, 127
1, 5982, Note_off_c, 1, 54, 0
1, 5997, Note_off_c, 1, 71, 0
1, 6000, Note_on_c, 1, 76, 127
1, 6000, Note_on_c, 1, 57, 127
1, 6006, Note_off_c, 1, 57, 0
1, 6023, Note_off_c, 1, 76, 0
1, 6024, Note_on_c, 1, 75, 127
1, 6041, Note_off_c, 1, 66, 0
1, 6047, Note_off_c, 1, 75, 0
1, 6048, Note_on_c, 1, 76, 127
1, 6048, Note_on_c, 1, 56, 127
1, 6054, Note_off_c, 1, 56, 0
1, 6072, Note_on_c, 1, 59, 127
1, 6078, Note_off_c, 1, 59, 0
1, 6093, Note_off_c, 1, 76, 0
1, 6096, Note_on_c, 1, 73, 127
1, 6096, Note_on_c, 1, 52, 127
1, 6102, Note_off_c, 1, 52, 0
1, 6120, Note_on_c, 1, 56, 127
1, 6126, Note_off_c, 1, 56, 0
1, 6141, Note_off_c, 1, 73, 0
1, 6144, Note_on_c, 1, 69, 127
1, 6144, Note_on_c, 1, 49, 127
1, 6150, Note_off_c, 1, 49, 0
1, 6168, Note_on_c, 1, 54, 127
1, 6174, Note_off_c, 1, 54, 0
1, 6192, Note_on_c, 1, 51, 127
1, 6198, Note_off_c, 1, 51, 0
1, 6211, Note_off_c, 1, 69, 0
1, 6216, Note_on_c, 1, 71, 127
1, 6216, Note_on_c, 1, 47, 127
1, 6222, Note_off_c, 1, 47, 0
1, 6239, Note_off_c, 1, 71, 0
1, 6240, Note_on_c, 1, 76, 127
1, 6240, Note_on_c, 1, 68, 127
1, 6240, Note_on_c, 1, 52, 127
1, 6246, Note_off_c, 1, 52, 0
1, 6264, Note_on_c, 1, 56, 127
1, 6270, Note_off_c, 1, 56, 0
1, 6288, Note_on_c, 1, 49, 127
1, 6294, Note_off_c, 1, 49, 0
1, 6307, Note_off_c, 1, 68, 0
1, 6312, Note_on_c, 1, 66, 127
1, 6335, Note_off_c, 1, 66, 0
1, 6336, Note_on_c, 1, 46, 127
1, 6342, Note_off_c, 1, 46, 0
1, 6360, Note_on_c, 1, 61, 127
1, 6366, Note_off_c, 1, 61, 0
1, 6381, Note_off_c, 1, 76, 0
1, 6384, Note_on_c, 1, 78, 127
1, 6384, Note_on_c, 1, 64, 127
1, 6390, Note_off_c, 1, 64, 0
1, 6408, Note_off_c, 1, 78, 0
1, 6408, Note_on_c, 1, 79, 127
1, 6431, Note_off_c, 1, 79, 0
1, 6432, Note_on_c, 1, 78, 127
1, 6432, Note_on_c, 1, 58, 127
1, 6438, Note_off_c, 1, 58, 0
1, 6456, Note_off_c, 1, 78, 0
1, 6456, Note_on_c, 1, 76, 127
1, 6456, Note_on_c, 1, 61, 127
1, 6462, Note_off_c, 1, 61, 0
1, 6479, Note_off_c, 1, 76, 0
1, 6480, Note_on_c, 1, 74, 127
1, 6480, Note_on_c, 1, 54, 127
1, 6486, Note_off_c, 1, 54, 0
1, 6504, Note_off_c, 1, 74, 0
1, 6504, Note_on_c, 1, 73, 127
1, 6504, Note_on_c, 1, 58, 127
1, 6510, Note_off_c, 1, 58, 0
1, 6527, Note_off_c, 1, 73, 0
1, 6528, Note_on_c, 1, 74, 127
1, 6528, Note_on_c, 1, 59, 127
1, 6534, Note_off_c, 1, 59, 0
1, 6552, Note_on_c, 1, 47, 127
1, 6558, Note_off_c, 1, 47, 0
1, 6573, Note_off_c, 1, 74, 0
1, 6576, Note_on_c, 1, 71, 127
1, 6576, Note_on_c, 1, 50, 127
1, 6582, Note_off_c, 1, 50, 0
1, 6600, Note_on_c, 1, 47, 127
1, 6606, Note_off_c, 1, 47, 0
1, 6621, Note_off_c, 1, 71, 0
1, 6624, Note_on_c, 1, 68, 127
1, 6624, Note_on_c, 1, 76, 127
1, 6624, Note_on_c, 1, 52, 127
1, 6630, Note_off_c, 1, 52, 0
1, 6648, Note_on_c, 1, 56, 127
1, 6654, Note_off_c, 1, 56, 0
1, 6669, Note_off_c, 1, 68, 0
1, 6672, Note_on_c, 1, 49, 127
1, 6678, Note_off_c, 1, 49, 0
1, 6696, Note_on_c, 1, 73, 127
1, 6719, Note_off_c, 1, 73, 0
1, 6720, Note_on_c, 1, 70, 127
1, 6720, Note_on_c, 1, 42, 127
1, 6726, Note_off_c, 1, 42, 0
1, 6765, Note_off_c, 1, 76, 0
1, 6765, Note_off_c, 1, 70, 0
1, 6768, Note_on_c, 1, 66, 127
1, 6768, Note_on_c, 1, 78, 127
1, 6768, Note_on_c, 1, 52, 127
1, 6774, Note_off_c, 1, 52, 0
1, 6791, Note_off_c, 1, 78, 0
1, 6792, Note_on_c, 1, 79, 127
1, 6792, Note_on_c, 1, 49, 127
1, 6798, Note_off_c, 1, 49, 0
1, 6813, Note_off_c, 1, 66, 0
1, 6815, Note_off_c, 1, 79, 0
1, 6816, Note_on_c, 1, 78, 127
1, 6816, Note_on_c, 1, 46, 127
1, 6822, Note_off_c, 1, 46, 0
1, 6839, Note_off_c, 1, 78, 0
1, 6840, Note_on_c, 1, 76, 127
1, 6840, Note_on_c, 1, 49, 127
1, 6846, Note_off_c, 1, 49, 0
1, 6863, Note_off_c, 1, 76, 0
1, 6864, Note_on_c, 1, 74, 127
1, 6864, Note_on_c, 1, 42, 127
1, 6870, Note_off_c, 1, 42, 0
1, 6887, Note_off_c, 1, 74, 0
1, 6888, Note_on_c, 1, 73, 127
1, 6888, Note_on_c, 1, 46, 127
1, 6894, Note_off_c, 1, 46, 0
1, 6911, Note_off_c, 1, 73, 0
1, 6912, Note_on_c, 1, 74, 127
1, 6912, Note_on_c, 1, 47, 127
1, 6918, Note_off_c, 1, 47, 0
1, 6936, Note_on_c, 1, 59, 127
1, 6942, Note_off_c, 1, 59, 0
1, 6957, Note_off_c, 1, 74, 0
1, 6960, Note_on_c, 1, 71, 127
1, 6960, Note_on_c, 1, 62, 127
1, 6966, Note_off_c, 1, 62, 0
1, 6984, Note_on_c, 1, 59, 127
1, 6990, Note_off_c, 1, 59, 0
1, 7005, Note_off_c, 1, 71, 0
1, 7008, Note_on_c, 1, 73, 127
1, 7008, Note_on_c, 1, 68, 127
1, 7008, Note_on_c, 1, 52, 127
1, 7014, Note_off_c, 1, 52, 0
1, 7032, Note_on_c, 1, 56, 127
1, 7038, Note_off_c, 1, 56, 0
1, 7053, Note_off_c, 1, 68, 0
1, 7056, Note_on_c, 1, 76, 127
1, 7056, Note_on_c, 1, 49, 127
1, 7062, Note_off_c, 1, 49, 0
1, 7080, Note_off_c, 1, 76, 0
1, 7104, Note_on_c, 1, 70, 127
1, 7104, Note_on_c, 1, 40, 127
1, 7110, Note_off_c, 1, 40, 0
1, 7149, Note_off_c, 1, 73, 0
1, 7149, Note_off_c, 1, 70, 0
1, 7152, Note_on_c, 1, 78, 127
1, 7152, Note_on_c, 1, 66, 127
1, 7152, Note_on_c, 1, 52, 127
1, 7158, Note_off_c, 1, 52, 0
1, 7175, Note_off_c, 1, 78, 0
1, 7176, Note_on_c, 1, 77, 127
1, 7176, Note_on_c, 1, 49, 127
1, 7182, Note_off_c, 1, 49, 0
1, 7197, Note_off_c, 1, 66, 0
1, 7199, Note_off_c, 1, 77, 0
1, 7200, Note_on_c, 1, 78, 127
1, 7200, Note_on_c, 1, 50, 127
1, 7206, Note_off_c, 1, 50, 0
1, 7224, Note_on_c, 1, 54, 127
1, 7230, Note_off_c, 1, 54, 0
1, 7245, Note_off_c, 1, 78, 0
1, 7248, Note_on_c, 1, 74, 127
1, 7248, Note_on_c, 1, 47, 127
1, 7254, Note_off_c, 1, 47, 0
1, 7272, Note_on_c, 1, 50, 127
1, 7278, Note_off_c, 1, 50, 0
1, 7293, Note_off_c, 1, 74, 0
1, 7296, Note_on_c, 1, 71, 127
1, 7296, Note_on_c, 1, 44, 127
1, 7302, Note_off_c, 1, 44, 0
1, 7320, Note_on_c, 1, 53, 127
1, 7326, Note_off_c, 1, 53, 0
1, 7344, Note_on_c, 1, 56, 127
1, 7350, Note_off_c, 1, 56, 0
1, 7363, Note_off_c, 1, 71, 0
1, 7368, Note_on_c, 1, 73, 127
1, 7368, Note_on_c, 1, 53, 127
1, 7374, Note_off_c, 1, 53, 0
1, 7391, Note_off_c, 1, 73, 0
1, 7392, Note_on_c, 1, 69, 127
1, 7392, Note_on_c, 1, 73, 127
1, 7392, Note_on_c, 1, 54, 127
1, 7398, Note_off_c, 1, 54, 0
1, 7416, Note_on_c, 1, 57, 127
1, 7422, Note_off_c, 1, 57, 0
1, 7440, Note_on_c, 1, 49, 127
1, 7446, Note_off_c, 1, 49, 0
1, 7459, Note_off_c, 1, 69, 0
1, 7464, Note_on_c, 1, 68, 127
1, 7487, Note_off_c, 1, 68, 0
1, 7488, Note_on_c, 1, 53, 127
1, 7494, Note_off_c, 1, 53, 0
1, 7512, Note_on_c, 1, 56, 127
1, 7518, Note_off_c, 1, 56, 0
1, 7533, Note_off_c, 1, 73, 0
1, 7536, Note_on_c, 1, 78, 127
1, 7536, Note_on_c, 1, 59, 127
1, 7542, Note_off_c, 1, 59, 0
1, 7559, Note_off_c, 1, 78, 0
1, 7560, Note_on_c, 1, 77, 127
1, 7583, Note_off_c, 1, 77, 0
1, 7584, Note_on_c, 1, 78, 127
1, 7584, Note_on_c, 1, 57, 127
1, 7590, Note_off_c, 1, 57, 0
1, 7608, Note_on_c, 1, 61, 127
1, 7614, Note_off_c, 1, 61, 0
1, 7629, Note_off_c, 1, 78, 0
1, 7632, Note_on_c, 1, 74, 127
1, 7632, Note_on_c, 1, 54, 127
1, 7638, Note_off_c, 1, 54, 0
1, 7656, Note_on_c, 1, 57, 127
1, 7662, Note_off_c, 1, 57, 0
1, 7677, Note_off_c, 1, 74, 0
1, 7680, Note_on_c, 1, 71, 127
1, 7680, Note_on_c, 1, 51, 127
1, 7686, Note_off_c, 1, 51, 0
1, 7704, Note_on_c, 1, 56, 127
1, 7710, Note_off_c, 1, 56, 0
1, 7728, Note_on_c, 1, 53, 127
1, 7734, Note_off_c, 1, 53, 0
1, 7747, Note_off_c, 1, 71, 0
1, 7752, Note_on_c, 1, 73, 127
1, 7752, Note_on_c, 1, 49, 127
1, 7758, Note_off_c, 1, 49, 0
1, 7775, Note_off_c, 1, 73, 0
1, 7776, Note_on_c, 1, 69, 127
1, 7776, Note_on_c, 1, 54, 127
1, 7782, Note_off_c, 1, 54, 0
1, 7800, Note_on_c, 1, 57, 127
1, 7806, Note_off_c, 1, 57, 0
1, 7824, Note_on_c, 1, 66, 127
1, 7824, Note_on_c, 1, 50, 127
1, 7830, Note_off_c, 1, 50, 0
1, 7843, Note_off_c, 1, 69, 0
1, 7848, Note_on_c, 1, 68, 127
1, 7871, Note_off_c, 1, 68, 0
1, 7872, Note_on_c, 1, 47, 127
1, 7878, Note_off_c, 1, 47, 0
1, 7917, Note_off_c, 1, 66, 0
1, 7968, Note_on_c, 1, 68, 127
1, 7968, Note_on_c, 1, 47, 127
1, 7974, Note_off_c, 1, 47, 0
1, 7992, Note_on_c, 1, 50, 127
1, 7998, Note_off_c, 1, 50, 0
1, 8016, Note_on_c, 1, 44, 127
1, 8022, Note_off_c, 1, 44, 0
1, 8064, Note_on_c, 1, 41, 127
1, 8070, Note_off_c, 1, 41, 0
1, 8088, Note_on_c, 1, 49, 127
1, 8094, Note_off_c, 1, 49, 0
1, 8109, Note_off_c, 1, 68, 0
1, 8112, Note_on_c, 1, 69, 127
1, 8112, Note_on_c, 1, 53, 127
1, 8118, Note_off_c, 1, 53, 0
1, 8135, Note_off_c, 1, 69, 0
1, 8136, Note_on_c, 1, 71, 127
1, 8136, Note_on_c, 1, 49, 127
1, 8142, Note_off_c, 1, 49, 0
1, 8159, Note_off_c, 1, 71, 0
1, 8160, Note_on_c, 1, 69, 127
1, 8160, Note_on_c, 1, 54, 127
1, 8166, Note_off_c, 1, 54, 0
1, 8183, Note_off_c, 1, 69, 0
1, 8184, Note_on_c, 1, 68, 127
1, 8184, Note_on_c, 1, 57, 127
1, 8190, Note_off_c, 1, 57, 0
1, 8207, Note_off_c, 1, 68, 0
1, 8208, Note_on_c, 1, 69, 127
1, 8208, Note_on_c, 1, 66, 127
1, 8208, Note_on_c, 1, 50, 127
1, 8214, Note_off_c, 1, 50, 0
1, 8231, Note_off_c, 1, 69, 0
1, 8232, Note_on_c, 1, 54, 127
1, 8238, Note_off_c, 1, 54, 0
1, 8256, Note_on_c, 1, 74, 127
1, 8256, Note_on_c, 1, 47, 127
1, 8262, Note_off_c, 1, 47, 0
1, 8301, Note_off_c, 1, 66, 0
1, 8328, Note_on_c, 1, 68, 127
1, 8351, Note_off_c, 1, 68, 0
1, 8375, Note_off_c, 1, 74, 0
1, 8400, Note_on_c, 1, 44, 127
1, 8406, Note_off_c, 1, 44, 0
1, 8424, Note_on_c, 1, 71, 127
1, 8447, Note_off_c, 1, 71, 0
1, 8448, Note_on_c, 1, 65, 127
1, 8448, Note_on_c, 1, 37, 127
1, 8454, Note_off_c, 1, 37, 0
1, 8472, Note_on_c, 1, 49, 127
1, 8478, Note_off_c, 1, 49, 0
1, 8493, Note_off_c, 1, 65, 0
1, 8496, Note_on_c, 1, 63, 127
1, 8496, Note_on_c, 1, 69, 127
1, 8496, Note_on_c, 1, 53, 127
1, 8502, Note_off_c, 1, 53, 0
1, 8519, Note_off_c, 1, 63, 0
1, 8519, Note_off_c, 1, 69, 0
1, 8520, Note_on_c, 1, 61, 127
1, 8520, Note_on_c, 1, 71, 127
1, 8520, Note_on_c, 1, 49, 127
1, 8526, Note_off_c, 1, 49, 0
1, 8543, Note_off_c, 1, 61, 0
1, 8543, Note_off_c, 1, 71, 0
1, 8544, Note_on_c, 1, 69, 127
1, 8544, Note_on_c, 1, 54, 127
1, 8550, Note_off_c, 1, 54, 0
1, 8567, Note_off_c, 1, 69, 0
1, 8568, Note_on_c, 1, 68, 127
1, 8568, Note_on_c, 1, 57, 127
1, 8574, Note_off_c, 1, 57, 0
1, 8591, Note_off_c, 1, 68, 0
1, 8592, Note_on_c, 1, 73, 127
1, 8592, Note_on_c, 1, 69, 127
1, 8592, Note_on_c, 1, 50, 127
1, 8598, Note_off_c, 1, 50, 0
1, 8615, Note_off_c, 1, 69, 0
1, 8616, Note_on_c, 1, 66, 127
1, 8616, Note_on_c, 1, 54, 127
1, 8622, Note_off_c, 1, 54, 0
1, 8639, Note_off_c, 1, 66, 0
1, 8640, Note_on_c, 1, 74, 127
1, 8640, Note_on_c, 1, 47, 127
1, 8646, Note_off_c, 1, 47, 0
1, 8663, Note_off_c, 1, 73, 0
1, 8664, Note_on_c, 1, 59, 127
1, 8670, Note_off_c, 1, 59, 0
1, 8688, Note_on_c, 1, 68, 127
1, 8688, Note_on_c, 1, 62, 127
1, 8694, Note_off_c, 1, 62, 0
1, 8711, Note_off_c, 1, 68, 0
1, 8729, Note_off_c, 1, 74, 0
1, 8736, Note_on_c, 1, 71, 127
1, 8736, Note_on_c, 1, 74, 127
1, 8736, Note_on_c, 1, 56, 127
1, 8742, Note_off_c, 1, 56, 0
1, 8759, Note_off_c, 1, 74, 0
1, 8760, Note_on_c, 1, 68, 127
1, 8760, Note_on_c, 1, 59, 127
1, 8766, Note_off_c, 1, 59, 0
1, 8783, Note_off_c, 1, 68, 0
1, 8784, Note_on_c, 1, 69, 127
1, 8784, Note_on_c, 1, 53, 127
1, 8790, Note_off_c, 1, 53, 0
1, 8807, Note_off_c, 1, 69, 0
1, 8832, Note_on_c, 1, 65, 127
1, 8832, Note_on_c, 1, 37, 127
1, 8838, Note_off_c, 1, 37, 0
1, 8855, Note_off_c, 1, 71, 0
1, 8856, Note_on_c, 1, 49, 127
1, 8862, Note_off_c, 1, 49, 0
1, 8879, Note_off_c, 1, 65, 0
1, 8880, Note_on_c, 1, 66, 127
1, 8880, Note_on_c, 1, 63, 127
1, 8880, Note_on_c, 1, 53, 127
1, 8886, Note_off_c, 1, 53, 0
1, 8903, Note_off_c, 1, 66, 0
1, 8903, Note_off_c, 1, 63, 0
1, 8904, Note_on_c, 1, 68, 127
1, 8904, Note_on_c, 1, 61, 127
1, 8904, Note_on_c, 1, 49, 127
1, 8910, Note_off_c, 1, 49, 0
1, 8927, Note_off_c, 1, 68, 0
1, 8927, Note_off_c, 1, 61, 0
1, 8928, Note_on_c, 1, 69, 127
1, 8928, Note_on_c, 1, 54, 127
1, 8934, Note_off_c, 1, 54, 0
1, 8952, Note_off_c, 1, 69, 0
1, 8952, Note_on_c, 1, 68, 127
1, 8952, Note_on_c, 1, 57, 127
1, 8958, Note_off_c, 1, 57, 0
1, 8975, Note_off_c, 1, 68, 0
1, 8976, Note_on_c, 1, 71, 127
1, 8976, Note_on_c, 1, 73, 127
1, 8976, Note_on_c, 1, 49, 127
1, 8982, Note_off_c, 1, 49, 0
1, 9000, Note_off_c, 1, 71, 0
1, 9000, Note_on_c, 1, 69, 127
1, 9000, Note_on_c, 1, 52, 127
1, 9006, Note_off_c, 1, 52, 0
1, 9023, Note_off_c, 1, 69, 0
1, 9024, Note_on_c, 1, 68, 127
1, 9024, Note_on_c, 1, 50, 127
1, 9030, Note_off_c, 1, 50, 0
1, 9047, Note_off_c, 1, 73, 0
1, 9047, Note_off_c, 1, 68, 0
1, 9048, Note_on_c, 1, 66, 127
1, 9048, Note_on_c, 1, 69, 127
1, 9048, Note_on_c, 1, 54, 127
1, 9054, Note_off_c, 1, 54, 0
1, 9071, Note_off_c, 1, 66, 0
1, 9071, Note_off_c, 1, 69, 0
1, 9072, Note_on_c, 1, 65, 127
1, 9072, Note_on_c, 1, 68, 127
1, 9072, Note_on_c, 1, 47, 127
1, 9078, Note_off_c, 1, 47, 0
1, 9095, Note_off_c, 1, 65, 0
1, 9095, Note_off_c, 1, 68, 0
1, 9096, Note_on_c, 1, 66, 127
1, 9096, Note_on_c, 1, 50, 127
1, 9102, Note_off_c, 1, 50, 0
1, 9119, Note_off_c, 1, 66, 0
1, 9120, Note_on_c, 1, 65, 127
1, 9120, Note_on_c, 1, 71, 127
1, 9120, Note_on_c, 1, 49, 127
1, 9132, Note_off_c, 1, 49, 0
1, 9168, Note_on_c, 1, 37, 127
1, 9180, Note_off_c, 1, 37, 0
1, 9187, Note_off_c, 1, 65, 0
1, 9192, Note_on_c, 1, 66, 127
1, 9215, Note_off_c, 1, 66, 0
1, 9216, Note_on_c, 1, 42, 127
1, 9222, Note_off_c, 1, 42, 0
1, 9239, Note_off_c, 1, 71, 0
1, 9240, Note_on_c, 1, 57, 127
1, 9246, Note_off_c, 1, 57, 0
1, 9264, Note_on_c, 1, 61, 127
1, 9270, Note_off_c, 1, 61, 0
1, 9288, Note_on_c, 1, 68, 127
1, 9311, Note_off_c, 1, 68, 0
1, 9312, Note_on_c, 1, 69, 127
1, 9312, Note_on_c, 1, 54, 127
1, 9318, Note_off_c, 1, 54, 0
1, 9336, Note_off_c, 1, 69, 0
1, 9336, Note_on_c, 1, 68, 127
1, 9336, Note_on_c, 1, 57, 127
1, 9342, Note_off_c, 1, 57, 0
1, 9359, Note_off_c, 1, 68, 0
1, 9360, Note_on_c, 1, 71, 127
1, 9360, Note_on_c, 1, 50, 127
1, 9366, Note_off_c, 1, 50, 0
1, 9384, Note_off_c, 1, 71, 0
1, 9384, Note_on_c, 1, 69, 127
1, 9384, Note_on_c, 1, 54, 127
1, 9390, Note_off_c, 1, 54, 0
1, 9407, Note_off_c, 1, 69, 0
1, 9408, Note_on_c, 1, 68, 127
1, 9408, Note_on_c, 1, 47, 127
1, 9414, Note_off_c, 1, 47, 0
1, 9431, Note_off_c, 1, 68, 0
1, 9432, Note_on_c, 1, 66, 127
1, 9432, Note_on_c, 1, 50, 127
1, 9438, Note_off_c, 1, 50, 0
1, 9455, Note_off_c, 1, 66, 0
1, 9456, Note_on_c, 1, 73, 127
1, 9456, Note_on_c, 1, 65, 127
1, 9456, Note_on_c, 1, 44, 127
1, 9462, Note_off_c, 1, 44, 0
1, 9479, Note_off_c, 1, 65, 0
1, 9480, Note_on_c, 1, 66, 127
1, 9480, Note_on_c, 1, 47, 127
1, 9486, Note_off_c, 1, 47, 0
1, 9501, Note_off_c, 1, 73, 0
1, 9503, Note_off_c, 1, 66, 0
1, 9504, Note_on_c, 1, 71, 127
1, 9504, Note_on_c, 1, 65, 127
1, 9504, Note_on_c, 1, 49, 127
1, 9516, Note_off_c, 1, 49, 0
1, 9549, Note_off_c, 1, 71, 0
1, 9552, Note_on_c, 1, 69, 127
1, 9552, Note_on_c, 1, 37, 127
1, 9564, Note_off_c, 1, 37, 0
1, 9571, Note_off_c, 1, 65, 0
1, 9575, Note_off_c, 1, 69, 0
1, 9576, Note_on_c, 1, 68, 127
1, 9576, Note_on_c, 1, 66, 127
1, 9599, Note_off_c, 1, 68, 0
1, 9599, Note_off_c, 1, 66, 0
1, 9600, Note_on_c, 1, 69, 127
1, 9600, Note_on_c, 1, 66, 127
1, 9600, Note_on_c, 1, 42, 127
1, 9606, Note_off_c, 1, 42, 0
1, 9624, Note_on_c, 1, 54, 127
1, 9630, Note_off_c, 1, 54, 0
1, 9645, Note_off_c, 1, 69, 0
1, 9648, Note_on_c, 1, 68, 127
1, 9648, Note_on_c, 1, 57, 127
1, 9654, Note_off_c, 1, 57, 0
1, 9671, Note_off_c, 1, 68, 0
1, 9695, Note_off_c, 1, 66, 0
1, 9696, Note_on_c, 1, 74, 127
1, 9696, Note_on_c, 1, 56, 127
1, 9702, Note_off_c, 1, 56, 0
1, 9720, Note_on_c, 1, 59, 127
1, 9726, Note_off_c, 1, 59, 0
1, 9741, Note_off_c, 1, 74, 0
1, 9744, Note_on_c, 1, 74, 127
1, 9744, Note_on_c, 1, 52, 127
1, 9750, Note_off_c, 1, 52, 0
1, 9768, Note_on_c, 1, 56, 127
1, 9774, Note_off_c, 1, 56, 0
1, 9789, Note_off_c, 1, 74, 0
1, 9792, Note_on_c, 1, 74, 127
1, 9792, Note_on_c, 1, 45, 127
1, 9798, Note_off_c, 1, 45, 0
1, 9816, Note_on_c, 1, 57, 127
1, 9822, Note_off_c, 1, 57, 0
1, 9837, Note_off_c, 1, 74, 0
1, 9840, Note_on_c, 1, 73, 127
1, 9840, Note_on_c, 1, 61, 127
1, 9846, Note_off_c, 1, 61, 0
1, 9864, Note_on_c, 1, 57, 127
1, 9870, Note_off_c, 1, 57, 0
1, 9885, Note_off_c, 1, 73, 0
1, 9888, Note_on_c, 1, 75, 127
1, 9888, Note_on_c, 1, 71, 127
1, 9888, Note_on_c, 1, 56, 127
1, 9894, Note_off_c, 1, 56, 0
1, 9912, Note_on_c, 1, 59, 127
1, 9918, Note_off_c, 1, 59, 0
1, 9933, Note_off_c, 1, 75, 0
1, 9933, Note_off_c, 1, 71, 0
1, 9936, Note_on_c, 1, 77, 127
1, 9936, Note_on_c, 1, 69, 127
1, 9936, Note_on_c, 1, 49, 127
1, 9942, Note_off_c, 1, 49, 0
1, 9959, Note_off_c, 1, 69, 0
1, 9960, Note_on_c, 1, 68, 127
1, 9960, Note_on_c, 1, 61, 127
1, 9966, Note_off_c, 1, 61, 0
1, 9981, Note_off_c, 1, 77, 0
1, 9983, Note_off_c, 1, 68, 0
1, 9984, Note_on_c, 1, 78, 127
1, 9984, Note_on_c, 1, 69, 127
1, 9984, Note_on_c, 1, 42, 127
1, 9990, Note_off_c, 1, 42, 0
1, 10008, Note_on_c, 1, 54, 127
1, 10014, Note_off_c, 1, 54, 0
1, 10029, Note_off_c, 1, 69, 0
1, 10032, Note_on_c, 1, 68, 127
1, 10032, Note_on_c, 1, 57, 127
1, 10038, Note_off_c, 1, 57, 0
1, 10055, Note_off_c, 1, 68, 0
1, 10056, Note_on_c, 1, 66, 127
1, 10079, Note_off_c, 1, 66, 0
1, 10080, Note_on_c, 1, 74, 127
1, 10080, Note_on_c, 1, 47, 127
1, 10086, Note_off_c, 1, 47, 0
1, 10103, Note_off_c, 1, 78, 0
1, 10104, Note_on_c, 1, 77, 127
1, 10104, Note_on_c, 1, 50, 127
1, 10110, Note_off_c, 1, 50, 0
1, 10125, Note_off_c, 1, 74, 0
1, 10127, Note_off_c, 1, 77, 0
1, 10128, Note_on_c, 1, 78, 127
1, 10128, Note_on_c, 1, 74, 127
1, 10128, Note_on_c, 1, 44, 127
1, 10134, Note_off_c, 1, 44, 0
1, 10151, Note_off_c, 1, 78, 0
1, 10152, Note_on_c, 1, 80, 127
1, 10152, Note_on_c, 1, 47, 127
1, 10158, Note_off_c, 1, 47, 0
1, 10173, Note_off_c, 1, 74, 0
1, 10175, Note_off_c, 1, 80, 0
1, 10176, Note_on_c, 1, 77, 127
1, 10176, Note_on_c, 1, 74, 127
1, 10176, Note_on_c, 1, 37, 127
1, 10182, Note_off_c, 1, 77, 0
1, 10182, Note_on_c, 1, 78, 127
1, 10188, Note_off_c, 1, 78, 0
1, 10200, Note_off_c, 1, 37, 0
1, 10221, Note_off_c, 1, 74, 0
1, 10224, Note_on_c, 1, 73, 127
1, 10269, Note_off_c, 1, 73, 0
1, 10272, Note_on_c, 1, 75, 127
1, 10317, Note_off_c, 1, 75, 0
1, 10320, Note_on_c, 1, 80, 127
1, 10320, Note_on_c, 1, 77, 127
1, 10365, Note_off_c, 1, 80, 0
1, 10365, Note_off_c, 1, 77, 0
1, 10368, Note_on_c, 1, 81, 127
1, 10368, Note_on_c, 1, 78, 127
1, 10392, Note_on_c, 1, 54, 127
1, 10398, Note_off_c, 1, 54, 0
1, 10416, Note_on_c, 1, 57, 127
1, 10422, Note_off_c, 1, 57, 0
1, 10435, Note_off_c, 1, 81, 0
1, 10440, Note_on_c, 1, 83, 127
1, 10463, Note_off_c, 1, 83, 0
1, 10464, Note_on_c, 1, 62, 127
1, 10470, Note_off_c, 1, 62, 0
1, 10487, Note_off_c, 1, 78, 0
1, 10488, Note_on_c, 1, 77, 127
1, 10488, Note_on_c, 1, 61, 127
1, 10494, Note_off_c, 1, 61, 0
1, 10511, Note_off_c, 1, 77, 0
1, 10536, Note_on_c, 1, 85, 127
1, 10536, Note_on_c, 1, 80, 127
1, 10536, Note_on_c, 1, 50, 127
1, 10542, Note_off_c, 1, 50, 0
1, 10559, Note_off_c, 1, 85, 0
1, 10559, Note_off_c, 1, 80, 0
1, 10560, Note_on_c, 1, 85, 127
1, 10560, Note_on_c, 1, 77, 127
1, 10560, Note_on_c, 1, 49, 127
1, 10566, Note_off_c, 1, 77, 0
1, 10566, Note_off_c, 1, 49, 0
1, 10566, Note_on_c, 1, 78, 127
1, 10572, Note_off_c, 1, 78, 0
1, 10584, Note_on_c, 1, 56, 127
1, 10590, Note_off_c, 1, 56, 0
1, 10608, Note_on_c, 1, 59, 127
1, 10614, Note_off_c, 1, 59, 0
1, 10656, Note_on_c, 1, 57, 127
1, 10662, Note_off_c, 1, 57, 0
1, 10680, Note_on_c, 1, 61, 127
1, 10686, Note_off_c, 1, 61, 0
1, 10704, Note_on_c, 1, 80, 127
1, 10704, Note_on_c, 1, 53, 127
1, 10710, Note_off_c, 1, 53, 0
1, 10749, Note_off_c, 1, 80, 0
1, 10752, Note_on_c, 1, 81, 127
1, 10752, Note_on_c, 1, 42, 127
1, 10758, Note_off_c, 1, 42, 0
1, 10775, Note_off_c, 1, 85, 0
1, 10776, Note_on_c, 1, 45, 127
1, 10782, Note_off_c, 1, 45, 0
1, 10823, Note_off_c, 1, 81, 0
1, 10824, Note_on_c, 1, 77, 127
1, 10824, Note_on_c, 1, 83, 127
1, 10824, Note_on_c, 1, 45, 127
1, 10830, Note_off_c, 1, 45, 0
1, 10847, Note_off_c, 1, 77, 0
1, 10847, Note_off_c, 1, 83, 0
1, 10848, Note_on_c, 1, 78, 127
1, 10848, Note_on_c, 1, 83, 127
1, 10848, Note_on_c, 1, 50, 127
1, 10860, Note_off_c, 1, 50, 0
1, 10871, Note_off_c, 1, 78, 0
1, 10872, Note_on_c, 1, 81, 127
1, 10895, Note_off_c, 1, 81, 0
1, 10896, Note_on_c, 1, 80, 127
1, 10896, Note_on_c, 1, 38, 127
1, 10908, Note_off_c, 1, 38, 0
1, 10915, Note_off_c, 1, 83, 0
1, 10919, Note_off_c, 1, 80, 0
1, 10920, Note_on_c, 1, 81, 127
1, 10920, Note_on_c, 1, 85, 127
1, 10932, Note_off_c, 1, 81, 0
1, 10932, Note_on_c, 1, 78, 127
1, 10943, Note_off_c, 1, 85, 0
1, 10944, Note_off_c, 1, 78, 0
1, 10944, Note_on_c, 1, 77, 127
1, 10944, Note_on_c, 1, 37, 127
1, 10992, Note_off_c, 1, 37, 0
1, 11121, Note_off_c, 1, 77, 0
1, 11121, End_track
0, 0, End_of_file