0, 0, Header, 1, 1, 480
1, 0, Start_track
1, 0, Title_t, "Test"
1, 0, Tempo, 500000
1, 0, Instrument_name_t, "Church Organ"
1, 0, Note_on_c, 1, 81, 127
1, 0, Note_on_c, 1, 50, 127
1, 24, Note_on_c, 1, 74, 127
1, 45, Note_off_c, 1, 50, 0
1, 47, Note_off_c, 1, 74, 0
1, 48, Note_on_c, 1, 76, 127
1, 48, Note_on_c, 1, 62, 127
1, 71, Note_off_c, 1, 76, 0
1, 72, Note_on_c, 1, 78, 127
1, 93, Note_off_c, 1, 62, 0
1, 95, Note_off_c, 1, 78, 0
1, 96, Note_on_c, 1, 67, 127
1, 96, Note_on_c, 1, 61, 127
1, 119, Note_off_c, 1, 67, 0
1, 141, Note_off_c, 1, 61, 0
1, 144, Note_on_c, 1, 66, 127
1, 167, Note_off_c, 1, 66, 0
1, 192, Note_on_c, 1, 73, 127
1, 192, Note_on_c, 1, 57, 127
1, 215, Note_off_c, 1, 73, 0
1, 216, Note_on_c, 1, 69, 127
1, 237, Note_off_c, 1, 57, 0
1, 239, Note_off_c, 1, 69, 0
1, 240, Note_on_c, 1, 55, 127
1, 285, Note_off_c, 1, 55, 0
1, 288, Note_on_c, 1, 54, 127
1, 333, Note_off_c, 1, 54, 0
1, 336, Note_on_c, 1, 52, 127
1, 360, Note_on_c, 1, 79, 127
1, 381, Note_off_c, 1, 52, 0
1, 383, Note_off_c, 1, 79, 0
1, 407, Note_off_c, 1, 81, 0
1, 432, Note_on_c, 1, 83, 127
1, 432, Note_on_c, 1, 79, 127
1, 432, Note_on_c, 1, 62, 127
1, 455, Note_off_c, 1, 79, 0
1, 456, Note_off_c, 1, 83, 0
1, 456, Note_on_c, 1, 81, 127
1, 456, Note_on_c, 1, 78, 127
1, 477, Note_off_c, 1, 62, 0
1, 479, Note_off_c, 1, 81, 0
1, 479, Note_off_c, 1, 78, 0
1, 480, Note_on_c, 1, 79, 127
1, 480, Note_on_c, 1, 76, 127
1, 480, Note_on_c, 1, 61, 127
1, 503, Note_off_c, 1, 76, 0
1, 504, Note_off_c, 1, 79, 0
1, 504, Note_on_c, 1, 78, 127
1, 504, Note_on_c, 1, 69, 127
1, 525, Note_off_c, 1, 61, 0
1, 527, Note_off_c, 1, 78, 0
1, 527, Note_off_c, 1, 69, 0
1, 528, Note_on_c, 1, 76, 127
1, 528, Note_on_c, 1, 67, 127
1, 528, Note_on_c, 1, 62, 127
1, 551, Note_off_c, 1, 67, 0
1, 552, Note_off_c, 1, 76, 0
1, 552, Note_on_c, 1, 74, 127
1, 552, Note_on_c, 1, 66, 127
1, 573, Note_off_c, 1, 62, 0
1, 575, Note_off_c, 1, 74, 0
1, 575, Note_off_c, 1, 66, 0
1, 576, Note_on_c, 1, 73, 127
1, 576, Note_on_c, 1, 64, 127
1, 576, Note_on_c, 1, 57, 127
1, 599, Note_off_c, 1, 64, 0
1, 621, Note_off_c, 1, 57, 0
1, 623, Note_off_c, 1, 73, 0
1, 624, Note_on_c, 1, 71, 127
1, 624, Note_on_c, 1, 74, 127
1, 624, Note_on_c, 1, 55, 127
1, 647, Note_off_c, 1, 74, 0
1, 648, Note_off_c, 1, 71, 0
1, 648, Note_on_c, 1, 69, 127
1, 648, Note_on_c, 1, 76, 127
1, 669, Note_off_c, 1, 55, 0
1, 671, Note_off_c, 1, 69, 0
1, 671, Note_off_c, 1, 76, 0
1, 672, Note_on_c, 1, 69, 127
1, 672, Note_on_c, 1, 54, 127
1, 695, Note_off_c, 1, 69, 0
1, 696, Note_on_c, 1, 74, 127
1, 717, Note_off_c, 1, 54, 0
1, 719, Note_off_c, 1, 74, 0
1, 720, Note_on_c, 1, 76, 127
1, 720, Note_on_c, 1, 67, 127
1, 720, Note_on_c, 1, 52, 127
1, 743, Note_off_c, 1, 67, 0
1, 744, Note_on_c, 1, 73, 127
1, 765, Note_off_c, 1, 76, 0
1, 765, Note_off_c, 1, 52, 0
1, 767, Note_off_c, 1, 73, 0
1, 768, Note_on_c, 1, 78, 127
1, 768, Note_on_c, 1, 74, 127
1, 768, Note_on_c, 1, 50, 127
1, 791, Note_off_c, 1, 78, 0
1, 792, Note_off_c, 1, 74, 0
1, 792, Note_on_c, 1, 76, 127
1, 813, Note_off_c, 1, 50, 0
1, 815, Note_off_c, 1, 76, 0
1, 816, Note_on_c, 1, 79, 127
1, 816, Note_on_c, 1, 83, 127
1, 816, Note_on_c, 1, 62, 127
1, 839, Note_off_c, 1, 79, 0
1, 840, Note_off_c, 1, 83, 0
1, 840, Note_on_c, 1, 78, 127
1, 840, Note_on_c, 1, 81, 127
1, 861, Note_off_c, 1, 62, 0
1, 863, Note_off_c, 1, 78, 0
1, 863, Note_off_c, 1, 81, 0
1, 864, Note_on_c, 1, 79, 127
1, 864, Note_on_c, 1, 61, 127
1, 888, Note_off_c, 1, 79, 0
1, 888, Note_on_c, 1, 81, 127
1, 888, Note_on_c, 1, 78, 127
1, 909, Note_off_c, 1, 61, 0
1, 911, Note_off_c, 1, 81, 0
1, 911, Note_off_c, 1, 78, 0
1, 912, Note_on_c, 1, 79, 127
1, 912, Note_on_c, 1, 76, 127
1, 912, Note_on_c, 1, 62, 127
1, 935, Note_off_c, 1, 79, 0
1, 936, Note_off_c, 1, 76, 0
1, 936, Note_on_c, 1, 78, 127
1, 936, Note_on_c, 1, 74, 127
1, 957, Note_off_c, 1, 62, 0
1, 959, Note_off_c, 1, 78, 0
1, 959, Note_off_c, 1, 74, 0
1, 960, Note_on_c, 1, 79, 127
1, 960, Note_on_c, 1, 73, 127
1, 960, Note_on_c, 1, 57, 127
1, 966, Note_off_c, 1, 73, 0
1, 966, Note_on_c, 1, 74, 127
1, 972, Note_off_c, 1, 74, 0
1, 984, Note_off_c, 1, 79, 0
1, 984, Note_on_c, 1, 78, 127
1, 1005, Note_off_c, 1, 57, 0
1, 1007, Note_off_c, 1, 78, 0
1, 1008, Note_on_c, 1, 83, 127
1, 1008, Note_on_c, 1, 55, 127
1, 1032, Note_off_c, 1, 83, 0
1, 1032, Note_on_c, 1, 81, 127
1, 1053, Note_off_c, 1, 55, 0
1, 1055, Note_off_c, 1, 81, 0
1, 1056, Note_on_c, 1, 76, 127
1, 1056, Note_on_c, 1, 54, 127
1, 1080, Note_off_c, 1, 76, 0
1, 1080, Note_on_c, 1, 81, 127
1, 1080, Note_on_c, 1, 74, 127
1, 1101, Note_off_c, 1, 54, 0
1, 1103, Note_off_c, 1, 81, 0
1, 1103, Note_off_c, 1, 74, 0
1, 1104, Note_on_c, 1, 86, 127
1, 1104, Note_on_c, 1, 78, 127
1, 1104, Note_on_c, 1, 52, 127
1, 1127, Note_off_c, 1, 86, 0
1, 1128, Note_off_c, 1, 78, 0
1, 1128, Note_on_c, 1, 85, 127
1, 1128, Note_on_c, 1, 76, 127
1, 1149, Note_off_c, 1, 52, 0
1, 1151, Note_off_c, 1, 85, 0
1, 1151, Note_off_c, 1, 76, 0
1, 1152, Note_on_c, 1, 86, 127
1, 1152, Note_on_c, 1, 78, 127
1, 1152, Note_on_c, 1, 50, 127
1, 1175, Note_off_c, 1, 86, 0
1, 1176, Note_on_c, 1, 85, 127
1, 1188, Note_off_c, 1, 85, 0
1, 1188, Note_on_c, 1, 83, 127
1, 1197, Note_off_c, 1, 50, 0
1, 1200, Note_off_c, 1, 83, 0
1, 1200, Note_on_c, 1, 81, 127
1, 1200, Note_on_c, 1, 55, 127
1, 1219, Note_off_c, 1, 78, 0
1, 1223, Note_off_c, 1, 81, 0
1, 1224, Note_on_c, 1, 79, 127
1, 1245, Note_off_c, 1, 55, 0
1, 1247, Note_off_c, 1, 79, 0
1, 1248, Note_on_c, 1, 78, 127
1, 1248, Note_on_c, 1, 81, 127
1, 1248, Note_on_c, 1, 57, 127
1, 1271, Note_off_c, 1, 81, 0
1, 1272, Note_on_c, 1, 74, 127
1, 1293, Note_off_c, 1, 78, 0
1, 1293, Note_off_c, 1, 57, 0
1, 1295, Note_off_c, 1, 74, 0
1, 1296, Note_on_c, 1, 76, 127
1, 1296, Note_on_c, 1, 73, 127
1, 1296, Note_on_c, 1, 45, 127
1, 1302, Note_off_c, 1, 76, 0
1, 1302, Note_on_c, 1, 78, 127
1, 1308, Note_off_c, 1, 78, 0
1, 1319, Note_off_c, 1, 73, 0
1, 1320, Note_on_c, 1, 74, 127
1, 1320, Note_on_c, 1, 79, 127
1, 1341, Note_off_c, 1, 45, 0
1, 1343, Note_off_c, 1, 74, 0
1, 1343, Note_off_c, 1, 79, 0
1, 1344, Note_on_c, 1, 74, 127
1, 1344, Note_on_c, 1, 78, 127
1, 1344, Note_on_c, 1, 38, 127
1, 1367, Note_off_c, 1, 74, 0
1, 1368, Note_on_c, 1, 76, 127
1, 1389, Note_off_c, 1, 38, 0
1, 1391, Note_off_c, 1, 76, 0
1, 1392, Note_on_c, 1, 50, 127
1, 1416, Note_on_c, 1, 80, 127
1, 1433, Note_off_c, 1, 78, 0
1, 1437, Note_off_c, 1, 50, 0
1, 1439, Note_off_c, 1, 80, 0
1, 1440, Note_on_c, 1, 81, 127
1, 1440, Note_on_c, 1, 49, 127
1, 1463, Note_off_c, 1, 81, 0
1, 1464, Note_on_c, 1, 80, 127
1, 1485, Note_off_c, 1, 49, 0
1, 1487, Note_off_c, 1, 80, 0
1, 1488, Note_on_c, 1, 81, 127
1, 1488, Note_on_c, 1, 47, 127
1, 1511, Note_off_c, 1, 81, 0
1, 1512, Note_on_c, 1, 83, 127
1, 1533, Note_off_c, 1, 47, 0
1, 1535, Note_off_c, 1, 83, 0
1, 1536, Note_on_c, 1, 73, 127
1, 1536, Note_on_c, 1, 76, 127
1, 1536, Note_on_c, 1, 45, 127
1, 1581, Note_off_c, 1, 45, 0
1, 1584, Note_on_c, 1, 57, 127
1, 1603, Note_off_c, 1, 73, 0
1, 1608, Note_on_c, 1, 71, 127
1, 1629, Note_off_c, 1, 57, 0
1, 1631, Note_off_c, 1, 71, 0
1, 1632, Note_on_c, 1, 74, 127
1, 1632, Note_on_c, 1, 56, 127
1, 1656, Note_off_c, 1, 74, 0
1, 1677, Note_off_c, 1, 56, 0
1, 1704, Note_on_c, 1, 69, 127
1, 1727, Note_off_c, 1, 69, 0
1, 1728, Note_on_c, 1, 52, 127
1, 1752, Note_on_c, 1, 64, 127
1, 1773, Note_off_c, 1, 52, 0
1, 1775, Note_off_c, 1, 64, 0
1, 1776, Note_on_c, 1, 68, 127
1, 1776, Note_on_c, 1, 50, 127
1, 1799, Note_off_c, 1, 68, 0
1, 1821, Note_off_c, 1, 50, 0
1, 1824, Note_on_c, 1, 49, 127
1, 1869, Note_off_c, 1, 49, 0
1, 1872, Note_on_c, 1, 47, 127
1, 1917, Note_off_c, 1, 47, 0
1, 1943, Note_off_c, 1, 76, 0
1, 1968, Note_on_c, 1, 78, 127
1, 1968, Note_on_c, 1, 74, 127
1, 1968, Note_on_c, 1, 57, 127
1, 1991, Note_off_c, 1, 74, 0
1, 1992, Note_off_c, 1, 78, 0
1, 1992, Note_on_c, 1, 76, 127
1, 1992, Note_on_c, 1, 73, 127
1, 2013, Note_off_c, 1, 57, 0
1, 2015, Note_off_c, 1, 76, 0
1, 2015, Note_off_c, 1, 73, 0
1, 2016, Note_on_c, 1, 74, 127
1, 2016, Note_on_c, 1, 78, 127
1, 2016, Note_on_c, 1, 56, 127
1, 2039, Note_off_c, 1, 78, 0
1, 2040, Note_off_c, 1, 74, 0
1, 2040, Note_on_c, 1, 73, 127
1, 2040, Note_on_c, 1, 76, 127
1, 2061, Note_off_c, 1, 56, 0
1, 2063, Note_off_c, 1, 73, 0
1, 2063, Note_off_c, 1, 76, 0
1, 2064, Note_on_c, 1, 71, 127
1, 2064, Note_on_c, 1, 74, 127
1, 2064, Note_on_c, 1, 57, 127
1, 2087, Note_off_c, 1, 74, 0
1, 2088, Note_off_c, 1, 71, 0
1, 2088, Note_on_c, 1, 69, 127
1, 2088, Note_on_c, 1, 73, 127
1, 2109, Note_off_c, 1, 57, 0
1, 2111, Note_off_c, 1, 69, 0
1, 2111, Note_off_c, 1, 73, 0
1, 2112, Note_on_c, 1, 68, 127
1, 2112, Note_on_c, 1, 71, 127
1, 2112, Note_on_c, 1, 52, 127
1, 2135, Note_off_c, 1, 71, 0
1, 2157, Note_off_c, 1, 52, 0
1, 2159, Note_off_c, 1, 68, 0
1, 2160, Note_on_c, 1, 66, 127
1, 2160, Note_on_c, 1, 69, 127
1, 2160, Note_on_c, 1, 50, 127
1, 2183, Note_off_c, 1, 66, 0
1, 2183, Note_off_c, 1, 69, 0
1, 2184, Note_on_c, 1, 64, 127
1, 2184, Note_on_c, 1, 71, 127
1, 2205, Note_off_c, 1, 50, 0
1, 2207, Note_off_c, 1, 64, 0
1, 2207, Note_off_c, 1, 71, 0
1, 2208, Note_on_c, 1, 64, 127
1, 2208, Note_on_c, 1, 49, 127
1, 2231, Note_off_c, 1, 64, 0
1, 2232, Note_on_c, 1, 69, 127
1, 2253, Note_off_c, 1, 49, 0
1, 2255, Note_off_c, 1, 69, 0
1, 2256, Note_on_c, 1, 71, 127
1, 2256, Note_on_c, 1, 62, 127
1, 2256, Note_on_c, 1, 47, 127
1, 2279, Note_off_c, 1, 62, 0
1, 2280, Note_on_c, 1, 68, 127
1, 2301, Note_off_c, 1, 71, 0
1, 2301, Note_off_c, 1, 47, 0
1, 2303, Note_off_c, 1, 68, 0
1, 2304, Note_on_c, 1, 73, 127
1, 2304, Note_on_c, 1, 69, 127
1, 2304, Note_on_c, 1, 45, 127
1, 2327, Note_off_c, 1, 73, 0
1, 2327, Note_off_c, 1, 69, 0
1, 2328, Note_on_c, 1, 71, 127
1, 2328, Note_on_c, 1, 68, 127
1, 2349, Note_off_c, 1, 45, 0
1, 2351, Note_off_c, 1, 71, 0
1, 2351, Note_off_c, 1, 68, 0
1, 2352, Note_on_c, 1, 74, 127
1, 2352, Note_on_c, 1, 66, 127
1, 2352, Note_on_c, 1, 45, 127
1, 2375, Note_off_c, 1, 74, 0
1, 2375, Note_off_c, 1, 66, 0
1, 2376, Note_on_c, 1, 73, 127
1, 2376, Note_on_c, 1, 64, 127
1, 2397, Note_off_c, 1, 45, 0
1, 2399, Note_off_c, 1, 73, 0
1, 2399, Note_off_c, 1, 64, 0
1, 2400, Note_on_c, 1, 62, 127
1, 2400, Note_on_c, 1, 44, 127
1, 2423, Note_off_c, 1, 62, 0
1, 2424, Note_on_c, 1, 76, 127
1, 2424, Note_on_c, 1, 61, 127
1, 2445, Note_off_c, 1, 44, 0
1, 2447, Note_off_c, 1, 76, 0
1, 2447, Note_off_c, 1, 61, 0
1, 2448, Note_on_c, 1, 74, 127
1, 2448, Note_on_c, 1, 59, 127
1, 2448, Note_on_c, 1, 45, 127
1, 2471, Note_off_c, 1, 74, 0
1, 2471, Note_off_c, 1, 59, 0
1, 2472, Note_on_c, 1, 73, 127
1, 2472, Note_on_c, 1, 57, 127
1, 2493, Note_off_c, 1, 45, 0
1, 2495, Note_off_c, 1, 73, 0
1, 2495, Note_off_c, 1, 57, 0
1, 2496, Note_on_c, 1, 74, 127
1, 2496, Note_on_c, 1, 56, 127
1, 2496, Note_on_c, 1, 40, 127
1, 2519, Note_off_c, 1, 74, 0
1, 2520, Note_on_c, 1, 73, 127
1, 2541, Note_off_c, 1, 56, 0
1, 2541, Note_off_c, 1, 40, 0
1, 2543, Note_off_c, 1, 73, 0
1, 2544, Note_on_c, 1, 78, 127
1, 2544, Note_on_c, 1, 57, 127
1, 2544, Note_on_c, 1, 50, 127
1, 2567, Note_off_c, 1, 78, 0
1, 2567, Note_off_c, 1, 57, 0
1, 2568, Note_on_c, 1, 76, 127
1, 2568, Note_on_c, 1, 56, 127
1, 2589, Note_off_c, 1, 50, 0
1, 2591, Note_off_c, 1, 76, 0
1, 2591, Note_off_c, 1, 56, 0
1, 2592, Note_on_c, 1, 59, 127
1, 2592, Note_on_c, 1, 49, 127
1, 2615, Note_off_c, 1, 59, 0
1, 2616, Note_on_c, 1, 76, 127
1, 2616, Note_on_c, 1, 57, 127
1, 2637, Note_off_c, 1, 49, 0
1, 2639, Note_off_c, 1, 76, 0
1, 2639, Note_off_c, 1, 57, 0
1, 2640, Note_on_c, 1, 81, 127
1, 2640, Note_on_c, 1, 61, 127
1, 2640, Note_on_c, 1, 47, 127
1, 2663, Note_off_c, 1, 81, 0
1, 2663, Note_off_c, 1, 61, 0
1, 2664, Note_on_c, 1, 80, 127
1, 2664, Note_on_c, 1, 59, 127
1, 2685, Note_off_c, 1, 47, 0
1, 2687, Note_off_c, 1, 80, 0
1, 2687, Note_off_c, 1, 59, 0
1, 2688, Note_on_c, 1, 81, 127
1, 2688, Note_on_c, 1, 61, 127
1, 2688, Note_on_c, 1, 45, 127
1, 2711, Note_off_c, 1, 81, 0
1, 2712, Note_on_c, 1, 80, 127
1, 2724, Note_off_c, 1, 80, 0
1, 2724, Note_on_c, 1, 78, 127
1, 2733, Note_off_c, 1, 45, 0
1, 2736, Note_off_c, 1, 78, 0
1, 2736, Note_on_c, 1, 76, 127
1, 2736, Note_on_c, 1, 50, 127
1, 2755, Note_off_c, 1, 61, 0
1, 2759, Note_off_c, 1, 76, 0
1, 2760, Note_on_c, 1, 74, 127
1, 2760, Note_on_c, 1, 66, 127
1, 2781, Note_off_c, 1, 50, 0
1, 2783, Note_off_c, 1, 74, 0
1, 2783, Note_off_c, 1, 66, 0
1, 2784, Note_on_c, 1, 73, 127
1, 2784, Note_on_c, 1, 64, 127
1, 2784, Note_on_c, 1, 52, 127
1, 2790, Note_off_c, 1, 73, 0
1, 2790, Note_on_c, 1, 74, 127
1, 2796, Note_off_c, 1, 74, 0
1, 2807, Note_off_c, 1, 64, 0
1, 2808, Note_on_c, 1, 57, 127
1, 2829, Note_off_c, 1, 52, 0
1, 2831, Note_off_c, 1, 57, 0
1, 2832, Note_on_c, 1, 71, 127
1, 2832, Note_on_c, 1, 56, 127
1, 2832, Note_on_c, 1, 40, 127
1, 2855, Note_off_c, 1, 56, 0
1, 2856, Note_off_c, 1, 71, 0
1, 2856, Note_on_c, 1, 69, 127
1, 2856, Note_on_c, 1, 62, 127
1, 2877, Note_off_c, 1, 40, 0
1, 2879, Note_off_c, 1, 69, 0
1, 2879, Note_off_c, 1, 62, 0
1, 2880, Note_on_c, 1, 69, 127
1, 2880, Note_on_c, 1, 61, 127
1, 2880, Note_on_c, 1, 45, 127
1, 2903, Note_off_c, 1, 61, 0
1, 2904, Note_on_c, 1, 64, 127
1, 2925, Note_off_c, 1, 45, 0
1, 2927, Note_off_c, 1, 64, 0
1, 2928, Note_on_c, 1, 66, 127
1, 2928, Note_on_c, 1, 57, 127
1, 2951, Note_off_c, 1, 66, 0
1, 2952, Note_on_c, 1, 67, 127
1, 2969, Note_off_c, 1, 69, 0
1, 2973, Note_off_c, 1, 57, 0
1, 2975, Note_off_c, 1, 67, 0
1, 2976, Note_on_c, 1, 69, 127
1, 2976, Note_on_c, 1, 55, 127
1, 2999, Note_off_c, 1, 69, 0
1, 3000, Note_on_c, 1, 61, 127
1, 3021, Note_off_c, 1, 55, 0
1, 3023, Note_off_c, 1, 61, 0
1, 3024, Note_on_c, 1, 72, 127
1, 3024, Note_on_c, 1, 63, 127
1, 3024, Note_on_c, 1, 54, 127
1, 3047, Note_off_c, 1, 63, 0
1, 3048, Note_on_c, 1, 71, 127
1, 3069, Note_off_c, 1, 54, 0
1, 3071, Note_off_c, 1, 71, 0
1, 3072, Note_on_c, 1, 69, 127
1, 3072, Note_on_c, 1, 52, 127
1, 3095, Note_off_c, 1, 72, 0
1, 3095, Note_off_c, 1, 69, 0
1, 3096, Note_on_c, 1, 67, 127
1, 3117, Note_off_c, 1, 52, 0
1, 3119, Note_off_c, 1, 67, 0
1, 3120, Note_on_c, 1, 70, 127
1, 3120, Note_on_c, 1, 66, 127
1, 3120, Note_on_c, 1, 55, 127
1, 3143, Note_off_c, 1, 70, 0
1, 3143, Note_off_c, 1, 66, 0
1, 3144, Note_on_c, 1, 71, 127
1, 3144, Note_on_c, 1, 64, 127
1, 3165, Note_off_c, 1, 55, 0
1, 3167, Note_off_c, 1, 71, 0
1, 3167, Note_off_c, 1, 64, 0
1, 3168, Note_on_c, 1, 76, 127
1, 3168, Note_on_c, 1, 49, 127
1, 3213, Note_off_c, 1, 49, 0
1, 3216, Note_on_c, 1, 78, 127
1, 3216, Note_on_c, 1, 52, 127
1, 3239, Note_off_c, 1, 78, 0
1, 3240, Note_on_c, 1, 79, 127
1, 3261, Note_off_c, 1, 52, 0
1, 3263, Note_off_c, 1, 79, 0
1, 3264, Note_on_c, 1, 46, 127
1, 3309, Note_off_c, 1, 46, 0
1, 3312, Note_on_c, 1, 74, 127
1, 3312, Note_on_c, 1, 42, 127
1, 3331, Note_off_c, 1, 76, 0
1, 3335, Note_off_c, 1, 74, 0
1, 3336, Note_on_c, 1, 73, 127
1, 3357, Note_off_c, 1, 42, 0
1, 3359, Note_off_c, 1, 73, 0
1, 3360, Note_on_c, 1, 71, 127
1, 3360, Note_on_c, 1, 44, 127
1, 3383, Note_off_c, 1, 71, 0
1, 3384, Note_on_c, 1, 70, 127
1, 3405, Note_off_c, 1, 44, 0
1, 3407, Note_off_c, 1, 70, 0
1, 3408, Note_on_c, 1, 74, 127
1, 3408, Note_on_c, 1, 71, 127
1, 3408, Note_on_c, 1, 46, 127
1, 3431, Note_off_c, 1, 74, 0
1, 3431, Note_off_c, 1, 71, 0
1, 3432, Note_on_c, 1, 76, 127
1, 3432, Note_on_c, 1, 73, 127
1, 3444, Note_off_c, 1, 76, 0
1, 3453, Note_off_c, 1, 46, 0
1, 3456, Note_off_c, 1, 73, 0
1, 3456, Note_on_c, 1, 66, 127
1, 3456, Note_on_c, 1, 47, 127
1, 3479, Note_off_c, 1, 66, 0
1, 3501, Note_off_c, 1, 47, 0
1, 3504, Note_on_c, 1, 76, 127
1, 3504, Note_on_c, 1, 73, 127
1, 3504, Note_on_c, 1, 59, 127
1, 3510, Note_off_c, 1, 76, 0
1, 3510, Note_on_c, 1, 78, 127
1, 3516, Note_off_c, 1, 78, 0
1, 3527, Note_off_c, 1, 73, 0
1, 3528, Note_on_c, 1, 74, 127
1, 3549, Note_off_c, 1, 59, 0
1, 3551, Note_off_c, 1, 74, 0
1, 3552, Note_on_c, 1, 64, 127
1, 3552, Note_on_c, 1, 58, 127
1, 3575, Note_off_c, 1, 64, 0
1, 3597, Note_off_c, 1, 58, 0
1, 3600, Note_on_c, 1, 62, 127
1, 3623, Note_off_c, 1, 62, 0
1, 3624, Note_on_c, 1, 71, 127
1, 3647, Note_off_c, 1, 71, 0
1, 3648, Note_on_c, 1, 70, 127
1, 3648, Note_on_c, 1, 54, 127
1, 3671, Note_off_c, 1, 70, 0
1, 3672, Note_on_c, 1, 66, 127
1, 3693, Note_off_c, 1, 54, 0
1, 3695, Note_off_c, 1, 66, 0
1, 3696, Note_on_c, 1, 79, 127
1, 3696, Note_on_c, 1, 70, 127
1, 3696, Note_on_c, 1, 52, 127
1, 3719, Note_off_c, 1, 70, 0
1, 3720, Note_off_c, 1, 79, 0
1, 3720, Note_on_c, 1, 78, 127
1, 3720, Note_on_c, 1, 73, 127
1, 3741, Note_off_c, 1, 52, 0
1, 3743, Note_off_c, 1, 78, 0
1, 3743, Note_off_c, 1, 73, 0
1, 3744, Note_on_c, 1, 83, 127
1, 3744, Note_on_c, 1, 78, 127
1, 3744, Note_on_c, 1, 50, 127
1, 3767, Note_off_c, 1, 78, 0
1, 3768, Note_off_c, 1, 83, 0
1, 3768, Note_on_c, 1, 82, 127
1, 3768, Note_on_c, 1, 76, 127
1, 3789, Note_off_c, 1, 50, 0
1, 3791, Note_off_c, 1, 82, 0
1, 3791, Note_off_c, 1, 76, 0
1, 3792, Note_on_c, 1, 85, 127
1, 3792, Note_on_c, 1, 79, 127
1, 3792, Note_on_c, 1, 49, 127
1, 3816, Note_off_c, 1, 85, 0
1, 3816, Note_on_c, 1, 76, 127
1, 3837, Note_off_c, 1, 49, 0
1, 3839, Note_off_c, 1, 76, 0
1, 3840, Note_on_c, 1, 74, 127
1, 3840, Note_on_c, 1, 47, 127
1, 3863, Note_off_c, 1, 79, 0
1, 3864, Note_on_c, 1, 78, 127
1, 3885, Note_off_c, 1, 74, 0
1, 3885, Note_off_c, 1, 47, 0
1, 3887, Note_off_c, 1, 78, 0
1, 3888, Note_on_c, 1, 76, 127
1, 3888, Note_on_c, 1, 59, 127
1, 3900, Note_on_c, 1, 78, 127
1, 3911, Note_off_c, 1, 76, 0
1, 3912, Note_off_c, 1, 78, 0
1, 3912, Note_on_c, 1, 79, 127
1, 3912, Note_on_c, 1, 74, 127
1, 3933, Note_off_c, 1, 59, 0
1, 3935, Note_off_c, 1, 74, 0
1, 3936, Note_on_c, 1, 73, 127
1, 3936, Note_on_c, 1, 58, 127
1, 3959, Note_off_c, 1, 79, 0
1, 3960, Note_off_c, 1, 73, 0
1, 3981, Note_off_c, 1, 58, 0
1, 3984, Note_on_c, 1, 76, 127
1, 3984, Note_on_c, 1, 70, 127
1, 3984, Note_on_c, 1, 59, 127
1, 4007, Note_off_c, 1, 76, 0
1, 4008, Note_off_c, 1, 70, 0
1, 4008, Note_on_c, 1, 74, 127
1, 4008, Note_on_c, 1, 71, 127
1, 4029, Note_off_c, 1, 59, 0
1, 4031, Note_off_c, 1, 74, 0
1, 4031, Note_off_c, 1, 71, 0
1, 4032, Note_on_c, 1, 73, 127
1, 4032, Note_on_c, 1, 70, 127
1, 4032, Note_on_c, 1, 54, 127
1, 4055, Note_off_c, 1, 73, 0
1, 4056, Note_on_c, 1, 71, 127
1, 4077, Note_off_c, 1, 70, 0
1, 4077, Note_off_c, 1, 54, 0
1, 4079, Note_off_c, 1, 71, 0
1, 4080, Note_on_c, 1, 74, 127
1, 4080, Note_on_c, 1, 71, 127
1, 4080, Note_on_c, 1, 52, 127
1, 4104, Note_off_c, 1, 74, 0
1, 4104, Note_off_c, 1, 71, 0
1, 4104, Note_on_c, 1, 73, 127
1, 4104, Note_on_c, 1, 70, 127
1, 4125, Note_off_c, 1, 52, 0
1, 4127, Note_off_c, 1, 73, 0
1, 4127, Note_off_c, 1, 70, 0
1, 4128, Note_on_c, 1, 76, 127
1, 4128, Note_on_c, 1, 73, 127
1, 4128, Note_on_c, 1, 50, 127
1, 4152, Note_off_c, 1, 76, 0
1, 4152, Note_off_c, 1, 73, 0
1, 4152, Note_on_c, 1, 74, 127
1, 4152, Note_on_c, 1, 71, 127
1, 4173, Note_off_c, 1, 50, 0
1, 4175, Note_off_c, 1, 74, 0
1, 4175, Note_off_c, 1, 71, 0
1, 4176, Note_on_c, 1, 78, 127
1, 4176, Note_on_c, 1, 74, 127
1, 4176, Note_on_c, 1, 49, 127
1, 4200, Note_off_c, 1, 78, 0
1, 4200, Note_off_c, 1, 74, 0
1, 4200, Note_on_c, 1, 76, 127
1, 4200, Note_on_c, 1, 73, 127
1, 4221, Note_off_c, 1, 49, 0
1, 4223, Note_off_c, 1, 76, 0
1, 4223, Note_off_c, 1, 73, 0
1, 4224, Note_on_c, 1, 78, 127
1, 4224, Note_on_c, 1, 74, 127
1, 4224, Note_on_c, 1, 47, 127
1, 4247, Note_off_c, 1, 74, 0
1, 4248, Note_on_c, 1, 76, 127
1, 4260, Note_off_c, 1, 76, 0
1, 4269, Note_off_c, 1, 47, 0
1, 4272, Note_on_c, 1, 73, 127
1, 4272, Note_on_c, 1, 52, 127
1, 4284, Note_off_c, 1, 73, 0
1, 4291, Note_off_c, 1, 78, 0
1, 4296, Note_on_c, 1, 79, 127
1, 4296, Note_on_c, 1, 71, 127
1, 4317, Note_off_c, 1, 52, 0
1, 4319, Note_off_c, 1, 79, 0
1, 4319, Note_off_c, 1, 71, 0
1, 4320, Note_on_c, 1, 74, 127
1, 4320, Note_on_c, 1, 70, 127
1, 4320, Note_on_c, 1, 54, 127
1, 4326, Note_off_c, 1, 70, 0
1, 4326, Note_on_c, 1, 71, 127
1, 4332, Note_off_c, 1, 71, 0
1, 4365, Note_off_c, 1, 74, 0
1, 4365, Note_off_c, 1, 54, 0
1, 4368, Note_on_c, 1, 73, 127
1, 4368, Note_on_c, 1, 42, 127
1, 4392, Note_off_c, 1, 73, 0
1, 4413, Note_off_c, 1, 42, 0
1, 4416, Note_on_c, 1, 71, 127
1, 4416, Note_on_c, 1, 47, 127
1, 4461, Note_off_c, 1, 71, 0
1, 4461, Note_off_c, 1, 47, 0
1, 4464, Note_on_c, 1, 78, 127
1, 4464, Note_on_c, 1, 75, 127
1, 4464, Note_on_c, 1, 59, 127
1, 4488, Note_off_c, 1, 78, 0
1, 4488, Note_off_c, 1, 75, 0
1, 4488, Note_on_c, 1, 79, 127
1, 4488, Note_on_c, 1, 76, 127
1, 4509, Note_off_c, 1, 59, 0
1, 4511, Note_off_c, 1, 79, 0
1, 4511, Note_off_c, 1, 76, 0
1, 4512, Note_on_c, 1, 81, 127
1, 4512, Note_on_c, 1, 78, 127
1, 4512, Note_on_c, 1, 54, 127
1, 4536, Note_off_c, 1, 81, 0
1, 4536, Note_off_c, 1, 78, 0
1, 4536, Note_on_c, 1, 79, 127
1, 4536, Note_on_c, 1, 76, 127
1, 4557, Note_off_c, 1, 54, 0
1, 4559, Note_off_c, 1, 79, 0
1, 4559, Note_off_c, 1, 76, 0
1, 4560, Note_on_c, 1, 83, 127
1, 4560, Note_on_c, 1, 79, 127
1, 4560, Note_on_c, 1, 51, 127
1, 4584, Note_off_c, 1, 83, 0
1, 4584, Note_off_c, 1, 79, 0
1, 4584, Note_on_c, 1, 81, 127
1, 4584, Note_on_c, 1, 78, 127
1, 4605, Note_off_c, 1, 51, 0
1, 4607, Note_off_c, 1, 81, 0
1, 4607, Note_off_c, 1, 78, 0
1, 4608, Note_on_c, 1, 47, 127
1, 4653, Note_off_c, 1, 47, 0
1, 4656, Note_on_c, 1, 81, 127
1, 4656, Note_on_c, 1, 78, 127
1, 4656, Note_on_c, 1, 59, 127
1, 4679, Note_off_c, 1, 81, 0
1, 4679, Note_off_c, 1, 78, 0
1, 4680, Note_on_c, 1, 83, 127
1, 4680, Note_on_c, 1, 79, 127
1, 4692, Note_off_c, 1, 83, 0
1, 4692, Note_off_c, 1, 79, 0
1, 4692, Note_on_c, 1, 84, 127
1, 4701, Note_off_c, 1, 59, 0
1, 4704, Note_off_c, 1, 84, 0
1, 4704, Note_on_c, 1, 57, 127
1, 4749, Note_off_c, 1, 57, 0
1, 4752, Note_on_c, 1, 79, 127
1, 4752, Note_on_c, 1, 76, 127
1, 4752, Note_on_c, 1, 59, 127
1, 4775, Note_off_c, 1, 76, 0
1, 4776, Note_off_c, 1, 79, 0
1, 4776, Note_on_c, 1, 78, 127
1, 4776, Note_on_c, 1, 75, 127
1, 4797, Note_off_c, 1, 59, 0
1, 4799, Note_off_c, 1, 78, 0
1, 4799, Note_off_c, 1, 75, 0
1, 4800, Note_on_c, 1, 79, 127
1, 4800, Note_on_c, 1, 76, 127
1, 4800, Note_on_c, 1, 52, 127
1, 4845, Note_off_c, 1, 79, 0
1, 4845, Note_off_c, 1, 76, 0
1, 4845, Note_off_c, 1, 52, 0
1, 4848, Note_on_c, 1, 76, 127
1, 4848, Note_on_c, 1, 73, 127
1, 4848, Note_on_c, 1, 57, 127
1, 4872, Note_off_c, 1, 76, 0
1, 4872, Note_off_c, 1, 73, 0
1, 4872, Note_on_c, 1, 78, 127
1, 4872, Note_on_c, 1, 74, 127
1, 4893, Note_off_c, 1, 57, 0
1, 4895, Note_off_c, 1, 78, 0
1, 4895, Note_off_c, 1, 74, 0
1, 4896, Note_on_c, 1, 79, 127
1, 4896, Note_on_c, 1, 76, 127
1, 4896, Note_on_c, 1, 52, 127
1, 4920, Note_off_c, 1, 79, 0
1, 4920, Note_off_c, 1, 76, 0
1, 4920, Note_on_c, 1, 78, 127
1, 4920, Note_on_c, 1, 74, 127
1, 4941, Note_off_c, 1, 52, 0
1, 4943, Note_off_c, 1, 78, 0
1, 4943, Note_off_c, 1, 74, 0
1, 4944, Note_on_c, 1, 81, 127
1, 4944, Note_on_c, 1, 78, 127
1, 4944, Note_on_c, 1, 49, 127
1, 4968, Note_off_c, 1, 81, 0
1, 4968, Note_off_c, 1, 78, 0
1, 4968, Note_on_c, 1, 79, 127
1, 4968, Note_on_c, 1, 76, 127
1, 4989, Note_off_c, 1, 49, 0
1, 4991, Note_off_c, 1, 79, 0
1, 4991, Note_off_c, 1, 76, 0
1, 4992, Note_on_c, 1, 45, 127
1, 5037, Note_off_c, 1, 45, 0
1, 5040, Note_on_c, 1, 79, 127
1, 5040, Note_on_c, 1, 76, 127
1, 5040, Note_on_c, 1, 57, 127
1, 5063, Note_off_c, 1, 79, 0
1, 5063, Note_off_c, 1, 76, 0
1, 5064, Note_on_c, 1, 81, 127
1, 5064, Note_on_c, 1, 78, 127
1, 5076, Note_off_c, 1, 81, 0
1, 5076, Note_off_c, 1, 78, 0
1, 5076, Note_on_c, 1, 83, 127
1, 5085, Note_off_c, 1, 57, 0
1, 5088, Note_off_c, 1, 83, 0
1, 5088, Note_on_c, 1, 55, 127
1, 5133, Note_off_c, 1, 55, 0
1, 5136, Note_on_c, 1, 78, 127
1, 5136, Note_on_c, 1, 74, 127
1, 5136, Note_on_c, 1, 57, 127
1, 5159, Note_off_c, 1, 78, 0
1, 5159, Note_off_c, 1, 74, 0
1, 5160, Note_on_c, 1, 79, 127
1, 5160, Note_on_c, 1, 76, 127
1, 5172, Note_off_c, 1, 79, 0
1, 5172, Note_on_c, 1, 73, 127
1, 5181, Note_off_c, 1, 57, 0
1, 5184, Note_off_c, 1, 76, 0
1, 5184, Note_off_c, 1, 73, 0
1, 5184, Note_on_c, 1, 50, 127
1, 5229, Note_off_c, 1, 50, 0
1, 5232, Note_on_c, 1, 76, 127
1, 5232, Note_on_c, 1, 71, 127
1, 5232, Note_on_c, 1, 49, 127
1, 5256, Note_off_c, 1, 71, 0
1, 5256, Note_on_c, 1, 69, 127
1, 5277, Note_off_c, 1, 76, 0
1, 5277, Note_off_c, 1, 49, 0
1, 5279, Note_off_c, 1, 69, 0
1, 5280, Note_on_c, 1, 74, 127
1, 5280, Note_on_c, 1, 68, 127
1, 5280, Note_on_c, 1, 47, 127
1, 5304, Note_off_c, 1, 68, 0
1, 5304, Note_on_c, 1, 66, 127
1, 5325, Note_off_c, 1, 47, 0
1, 5327, Note_off_c, 1, 66, 0
1, 5328, Note_on_c, 1, 65, 127
1, 5328, Note_on_c, 1, 45, 127
1, 5352, Note_off_c, 1, 65, 0
1, 5373, Note_off_c, 1, 45, 0
1, 5376, Note_on_c, 1, 44, 127
1, 5399, Note_off_c, 1, 74, 0
1, 5400, Note_on_c, 1, 73, 127
1, 5421, Note_off_c, 1, 44, 0
1, 5423, Note_off_c, 1, 73, 0
1, 5424, Note_on_c, 1, 71, 127
1, 5424, Note_on_c, 1, 74, 127
1, 5424, Note_on_c, 1, 42, 127
1, 5447, Note_off_c, 1, 71, 0
1, 5448, Note_on_c, 1, 69, 127
1, 5469, Note_off_c, 1, 74, 0
1, 5469, Note_off_c, 1, 42, 0
1, 5471, Note_off_c, 1, 69, 0
1, 5472, Note_on_c, 1, 68, 127
1, 5472, Note_on_c, 1, 80, 127
1, 5472, Note_on_c, 1, 41, 127
1, 5495, Note_off_c, 1, 68, 0
1, 5496, Note_on_c, 1, 66, 127
1, 5517, Note_off_c, 1, 41, 0
1, 5519, Note_off_c, 1, 66, 0
1, 5520, Note_on_c, 1, 65, 127
1, 5520, Note_on_c, 1, 44, 127
1, 5543, Note_off_c, 1, 65, 0
1, 5565, Note_off_c, 1, 44, 0
1, 5568, Note_on_c, 1, 49, 127
1, 5591, Note_off_c, 1, 80, 0
1, 5592, Note_on_c, 1, 78, 127
1, 5613, Note_off_c, 1, 49, 0
1, 5615, Note_off_c, 1, 78, 0
1, 5616, Note_on_c, 1, 71, 127
1, 5616, Note_on_c, 1, 77, 127
1, 5616, Note_on_c, 1, 51, 127
1, 5639, Note_off_c, 1, 77, 0
1, 5640, Note_on_c, 1, 78, 127
1, 5652, Note_off_c, 1, 78, 0
1, 5652, Note_on_c, 1, 80, 127
1, 5661, Note_off_c, 1, 71, 0
1, 5661, Note_off_c, 1, 51, 0
1, 5664, Note_on_c, 1, 53, 127
1, 5688, Note_on_c, 1, 69, 127
1, 5709, Note_off_c, 1, 53, 0
1, 5711, Note_off_c, 1, 69, 0
1, 5712, Note_on_c, 1, 49, 127
1, 5736, Note_on_c, 1, 68, 127
1, 5757, Note_off_c, 1, 49, 0
1, 5759, Note_off_c, 1, 68, 0
1, 5760, Note_on_c, 1, 42, 127
1, 5783, Note_off_c, 1, 80, 0
1, 5805, Note_off_c, 1, 42, 0
1, 5808, Note_on_c, 1, 81, 127
1, 5808, Note_on_c, 1, 73, 127
1, 5808, Note_on_c, 1, 54, 127
1, 5831, Note_off_c, 1, 73, 0
1, 5832, Note_off_c, 1, 81, 0
1, 5832, Note_on_c, 1, 80, 127
1, 5832, Note_on_c, 1, 71, 127
1, 5853, Note_off_c, 1, 54, 0
1, 5855, Note_off_c, 1, 80, 0
1, 5855, Note_off_c, 1, 71, 0
1, 5856, Note_on_c, 1, 83, 127
1, 5856, Note_on_c, 1, 74, 127
1, 5856, Note_on_c, 1, 53, 127
1, 5879, Note_off_c, 1, 74, 0
1, 5880, Note_off_c, 1, 83, 0
1, 5880, Note_on_c, 1, 81, 127
1, 5880, Note_on_c, 1, 73, 127
1, 5901, Note_off_c, 1, 53, 0
1, 5903, Note_off_c, 1, 81, 0
1, 5903, Note_off_c, 1, 73, 0
1, 5904, Note_on_c, 1, 80, 127
1, 5904, Note_on_c, 1, 71, 127
1, 5904, Note_on_c, 1, 54, 127
1, 5927, Note_off_c, 1, 80, 0
1, 5927, Note_off_c, 1, 71, 0
1, 5928, Note_on_c, 1, 81, 127
1, 5928, Note_on_c, 1, 73, 127
1, 5949, Note_off_c, 1, 54, 0
1, 5951, Note_off_c, 1, 81, 0
1, 5951, Note_off_c, 1, 73, 0
1, 5952, Note_on_c, 1, 78, 127
1, 5952, Note_on_c, 1, 68, 127
1, 5952, Note_on_c, 1, 50, 127
1, 5975, Note_off_c, 1, 78, 0
1, 5975, Note_off_c, 1, 68, 0
1, 5976, Note_on_c, 1, 77, 127
1, 5976, Note_on_c, 1, 83, 127
1, 5997, Note_off_c, 1, 50, 0
1, 5999, Note_off_c, 1, 77, 0
1, 5999, Note_off_c, 1, 83, 0
1, 6000, Note_on_c, 1, 78, 127
1, 6000, Note_on_c, 1, 81, 127
1, 6000, Note_on_c, 1, 47, 127
1, 6023, Note_off_c, 1, 78, 0
1, 6023, Note_off_c, 1, 81, 0
1, 6024, Note_on_c, 1, 71, 127
1, 6045, Note_off_c, 1, 47, 0
1, 6047, Note_off_c, 1, 71, 0
1, 6048, Note_on_c, 1, 69, 127
1, 6048, Note_on_c, 1, 77, 127
1, 6048, Note_on_c, 1, 49, 127
1, 6054, Note_off_c, 1, 77, 0
1, 6054, Note_on_c, 1, 78, 127
1, 6060, Note_off_c, 1, 78, 0
1, 6093, Note_off_c, 1, 69, 0
1, 6093, Note_off_c, 1, 49, 0
1, 6096, Note_on_c, 1, 68, 127
1, 6096, Note_on_c, 1, 37, 127
1, 6119, Note_off_c, 1, 68, 0
1, 6120, Note_on_c, 1, 66, 127
1, 6141, Note_off_c, 1, 37, 0
1, 6143, Note_off_c, 1, 66, 0
1, 6144, Note_on_c, 1, 66, 127
1, 6144, Note_on_c, 1, 78, 127
1, 6144, Note_on_c, 1, 42, 127
1, 6189, Note_off_c, 1, 66, 0
1, 6189, Note_off_c, 1, 78, 0
1, 6189, Note_off_c, 1, 42, 0
1, 6192, Note_on_c, 1, 73, 127
1, 6192, Note_on_c, 1, 81, 127
1, 6192, Note_on_c, 1, 54, 127
1, 6215, Note_off_c, 1, 81, 0
1, 6216, Note_on_c, 1, 79, 127
1, 6237, Note_off_c, 1, 73, 0
1, 6237, Note_off_c, 1, 54, 0
1, 6239, Note_off_c, 1, 79, 0
1, 6240, Note_on_c, 1, 81, 127
1, 6240, Note_on_c, 1, 78, 127
1, 6240, Note_on_c, 1, 52, 127
1, 6263, Note_off_c, 1, 78, 0
1, 6264, Note_on_c, 1, 76, 127
1, 6285, Note_off_c, 1, 52, 0
1, 6287, Note_off_c, 1, 76, 0
1, 6288, Note_on_c, 1, 75, 127
1, 6288, Note_on_c, 1, 54, 127
1, 6311, Note_off_c, 1, 75, 0
1, 6333, Note_off_c, 1, 54, 0
1, 6336, Note_on_c, 1, 47, 127
1, 6359, Note_off_c, 1, 81, 0
1, 6360, Note_on_c, 1, 71, 127
1, 6381, Note_off_c, 1, 47, 0
1, 6383, Note_off_c, 1, 71, 0
1, 6384, Note_on_c, 1, 45, 127
1, 6429, Note_off_c, 1, 45, 0
1, 6432, Note_on_c, 1, 78, 127
1, 6432, Note_on_c, 1, 43, 127
1, 6456, Note_off_c, 1, 78, 0
1, 6456, Note_on_c, 1, 76, 127
1, 6477, Note_off_c, 1, 43, 0
1, 6479, Note_off_c, 1, 76, 0
1, 6480, Note_on_c, 1, 79, 127
1, 6480, Note_on_c, 1, 42, 127
1, 6504, Note_off_c, 1, 79, 0
1, 6504, Note_on_c, 1, 78, 127
1, 6525, Note_off_c, 1, 42, 0
1, 6527, Note_off_c, 1, 78, 0
1, 6528, Note_on_c, 1, 79, 127
1, 6528, Note_on_c, 1, 40, 127
1, 6573, Note_off_c, 1, 40, 0
1, 6576, Note_on_c, 1, 52, 127
1, 6600, Note_on_c, 1, 78, 127
1, 6621, Note_off_c, 1, 52, 0
1, 6623, Note_off_c, 1, 78, 0
1, 6624, Note_on_c, 1, 76, 127
1, 6624, Note_on_c, 1, 50, 127
1, 6648, Note_off_c, 1, 76, 0
1, 6648, Note_on_c, 1, 74, 127
1, 6669, Note_off_c, 1, 50, 0
1, 6671, Note_off_c, 1, 74, 0
1, 6672, Note_on_c, 1, 73, 127
1, 6696, Note_off_c, 1, 73, 0
1, 6720, Note_on_c, 1, 45, 127
1, 6743, Note_off_c, 1, 79, 0
1, 6744, Note_on_c, 1, 69, 127
1, 6765, Note_off_c, 1, 45, 0
1, 6767, Note_off_c, 1, 69, 0
1, 6768, Note_on_c, 1, 43, 127
1, 6813, Note_off_c, 1, 43, 0
1, 6816, Note_on_c, 1, 76, 127
1, 6816, Note_on_c, 1, 42, 127
1, 6840, Note_off_c, 1, 76, 0
1, 6840, Note_on_c, 1, 74, 127
1, 6861, Note_off_c, 1, 42, 0
1, 6863, Note_off_c, 1, 74, 0
1, 6864, Note_on_c, 1, 78, 127
1, 6864, Note_on_c, 1, 40, 127
1, 6888, Note_off_c, 1, 78, 0
1, 6888, Note_on_c, 1, 76, 127
1, 6909, Note_off_c, 1, 40, 0
1, 6911, Note_off_c, 1, 76, 0
1, 6912, Note_on_c, 1, 78, 127
1, 6912, Note_on_c, 1, 38, 127
1, 6936, Note_on_c, 1, 69, 127
1, 6957, Note_off_c, 1, 38, 0
1, 6959, Note_off_c, 1, 69, 0
1, 6960, Note_on_c, 1, 74, 127
1, 6960, Note_on_c, 1, 62, 127
1, 6983, Note_off_c, 1, 74, 0
1, 6984, Note_off_c, 1, 78, 0
1, 6984, Note_on_c, 1, 79, 127
1, 6984, Note_on_c, 1, 73, 127
1, 6996, Note_off_c, 1, 79, 0
1, 6996, Note_on_c, 1, 81, 127
1, 7005, Note_off_c, 1, 62, 0
1, 7007, Note_off_c, 1, 73, 0
1, 7008, Note_off_c, 1, 81, 0
1, 7008, Note_on_c, 1, 71, 127
1, 7008, Note_on_c, 1, 61, 127
1, 7031, Note_off_c, 1, 71, 0
1, 7053, Note_off_c, 1, 61, 0
1, 7056, Note_on_c, 1, 76, 127
1, 7056, Note_on_c, 1, 67, 127
1, 7056, Note_on_c, 1, 62, 127
1, 7079, Note_off_c, 1, 67, 0
1, 7080, Note_off_c, 1, 76, 0
1, 7080, Note_on_c, 1, 74, 127
1, 7080, Note_on_c, 1, 66, 127
1, 7101, Note_off_c, 1, 62, 0
1, 7103, Note_off_c, 1, 74, 0
1, 7103, Note_off_c, 1, 66, 0
1, 7104, Note_on_c, 1, 81, 127
1, 7104, Note_on_c, 1, 64, 127
1, 7104, Note_on_c, 1, 57, 127
1, 7127, Note_off_c, 1, 64, 0
1, 7128, Note_on_c, 1, 69, 127
1, 7149, Note_off_c, 1, 57, 0
1, 7151, Note_off_c, 1, 69, 0
1, 7152, Note_on_c, 1, 73, 127
1, 7152, Note_on_c, 1, 55, 127
1, 7175, Note_off_c, 1, 73, 0
1, 7176, Note_on_c, 1, 76, 127
1, 7197, Note_off_c, 1, 55, 0
1, 7199, Note_off_c, 1, 76, 0
1, 7200, Note_on_c, 1, 54, 127
1, 7224, Note_on_c, 1, 74, 127
1, 7245, Note_off_c, 1, 54, 0
1, 7247, Note_off_c, 1, 74, 0
1, 7248, Note_on_c, 1, 52, 127
1, 7272, Note_on_c, 1, 79, 127
1, 7293, Note_off_c, 1, 52, 0
1, 7295, Note_off_c, 1, 79, 0
1, 7296, Note_on_c, 1, 78, 127
1, 7296, Note_on_c, 1, 50, 127
1, 7319, Note_off_c, 1, 81, 0
1, 7320, Note_off_c, 1, 78, 0
1, 7341, Note_off_c, 1, 50, 0
1, 7344, Note_on_c, 1, 83, 127
1, 7344, Note_on_c, 1, 79, 127
1, 7344, Note_on_c, 1, 62, 127
1, 7368, Note_off_c, 1, 83, 0
1, 7368, Note_off_c, 1, 79, 0
1, 7368, Note_on_c, 1, 81, 127
1, 7368, Note_on_c, 1, 78, 127
1, 7389, Note_off_c, 1, 62, 0
1, 7391, Note_off_c, 1, 81, 0
1, 7391, Note_off_c, 1, 78, 0
1, 7392, Note_on_c, 1, 79, 127
1, 7392, Note_on_c, 1, 83, 127
1, 7392, Note_on_c, 1, 61, 127
1, 7416, Note_off_c, 1, 79, 0
1, 7416, Note_off_c, 1, 83, 0
1, 7416, Note_on_c, 1, 78, 127
1, 7416, Note_on_c, 1, 81, 127
1, 7437, Note_off_c, 1, 61, 0
1, 7439, Note_off_c, 1, 78, 0
1, 7439, Note_off_c, 1, 81, 0
1, 7440, Note_on_c, 1, 76, 127
1, 7440, Note_on_c, 1, 79, 127
1, 7440, Note_on_c, 1, 62, 127
1, 7464, Note_off_c, 1, 76, 0
1, 7464, Note_off_c, 1, 79, 0
1, 7464, Note_on_c, 1, 74, 127
1, 7464, Note_on_c, 1, 78, 127
1, 7485, Note_off_c, 1, 62, 0
1, 7487, Note_off_c, 1, 74, 0
1, 7487, Note_off_c, 1, 78, 0
1, 7488, Note_on_c, 1, 73, 127
1, 7488, Note_on_c, 1, 76, 127
1, 7488, Note_on_c, 1, 57, 127
1, 7512, Note_off_c, 1, 76, 0
1, 7533, Note_off_c, 1, 57, 0
1, 7535, Note_off_c, 1, 73, 0
1, 7536, Note_on_c, 1, 71, 127
1, 7536, Note_on_c, 1, 74, 127
1, 7536, Note_on_c, 1, 55, 127
1, 7560, Note_off_c, 1, 71, 0
1, 7560, Note_off_c, 1, 74, 0
1, 7560, Note_on_c, 1, 69, 127
1, 7560, Note_on_c, 1, 76, 127
1, 7581, Note_off_c, 1, 55, 0
1, 7583, Note_off_c, 1, 69, 0
1, 7583, Note_off_c, 1, 76, 0
1, 7584, Note_on_c, 1, 69, 127
1, 7584, Note_on_c, 1, 54, 127
1, 7607, Note_off_c, 1, 69, 0
1, 7608, Note_on_c, 1, 74, 127
1, 7629, Note_off_c, 1, 54, 0
1, 7631, Note_off_c, 1, 74, 0
1, 7632, Note_on_c, 1, 76, 127
1, 7632, Note_on_c, 1, 67, 127
1, 7632, Note_on_c, 1, 52, 127
1, 7656, Note_off_c, 1, 67, 0
1, 7656, Note_on_c, 1, 73, 127
1, 7677, Note_off_c, 1, 76, 0
1, 7677, Note_off_c, 1, 52, 0
1, 7679, Note_off_c, 1, 73, 0
1, 7680, Note_on_c, 1, 78, 127
1, 7680, Note_on_c, 1, 74, 127
1, 7680, Note_on_c, 1, 50, 127
1, 7703, Note_off_c, 1, 78, 0
1, 7703, Note_off_c, 1, 74, 0
1, 7704, Note_on_c, 1, 76, 127
1, 7704, Note_on_c, 1, 73, 127
1, 7725, Note_off_c, 1, 50, 0
1, 7727, Note_off_c, 1, 76, 0
1, 7727, Note_off_c, 1, 73, 0
1, 7728, Note_on_c, 1, 79, 127
1, 7728, Note_on_c, 1, 71, 127
1, 7728, Note_on_c, 1, 50, 127
1, 7751, Note_off_c, 1, 79, 0
1, 7751, Note_off_c, 1, 71, 0
1, 7752, Note_on_c, 1, 78, 127
1, 7752, Note_on_c, 1, 69, 127
1, 7773, Note_off_c, 1, 50, 0
1, 7775, Note_off_c, 1, 78, 0
1, 7775, Note_off_c, 1, 69, 0
1, 7776, Note_on_c, 1, 67, 127
1, 7776, Note_on_c, 1, 49, 127
1, 7799, Note_off_c, 1, 67, 0
1, 7800, Note_on_c, 1, 81, 127
1, 7800, Note_on_c, 1, 66, 127
1, 7821, Note_off_c, 1, 49, 0
1, 7823, Note_off_c, 1, 81, 0
1, 7823, Note_off_c, 1, 66, 0
1, 7824, Note_on_c, 1, 79, 127
1, 7824, Note_on_c, 1, 64, 127
1, 7824, Note_on_c, 1, 50, 127
1, 7847, Note_off_c, 1, 79, 0
1, 7847, Note_off_c, 1, 64, 0
1, 7848, Note_on_c, 1, 78, 127
1, 7848, Note_on_c, 1, 66, 127
1, 7860, Note_off_c, 1, 66, 0
1, 7860, Note_on_c, 1, 62, 127
1, 7869, Note_off_c, 1, 50, 0
1, 7871, Note_off_c, 1, 78, 0
1, 7872, Note_off_c, 1, 62, 0
1, 7872, Note_on_c, 1, 61, 127
1, 7872, Note_on_c, 1, 45, 127
1, 7917, Note_off_c, 1, 61, 0
1, 7917, Note_off_c, 1, 45, 0
1, 7920, Note_on_c, 1, 83, 127
1, 7920, Note_on_c, 1, 62, 127
1, 7920, Note_on_c, 1, 55, 127
1, 7943, Note_off_c, 1, 83, 0
1, 7944, Note_off_c, 1, 62, 0
1, 7944, Note_on_c, 1, 81, 127
1, 7944, Note_on_c, 1, 61, 127
1, 7965, Note_off_c, 1, 55, 0
1, 7967, Note_off_c, 1, 81, 0
1, 7967, Note_off_c, 1, 61, 0
1, 7968, Note_on_c, 1, 64, 127
1, 7968, Note_on_c, 1, 54, 127
1, 7992, Note_off_c, 1, 64, 0
1, 7992, Note_on_c, 1, 81, 127
1, 7992, Note_on_c, 1, 62, 127
1, 8013, Note_off_c, 1, 54, 0
1, 8015, Note_off_c, 1, 81, 0
1, 8015, Note_off_c, 1, 62, 0
1, 8016, Note_on_c, 1, 86, 127
1, 8016, Note_on_c, 1, 66, 127
1, 8016, Note_on_c, 1, 52, 127
1, 8039, Note_off_c, 1, 86, 0
1, 8040, Note_off_c, 1, 66, 0
1, 8040, Note_on_c, 1, 85, 127
1, 8040, Note_on_c, 1, 64, 127
1, 8061, Note_off_c, 1, 52, 0
1, 8063, Note_off_c, 1, 85, 0
1, 8063, Note_off_c, 1, 64, 0
1, 8064, Note_on_c, 1, 86, 127
1, 8064, Note_on_c, 1, 66, 127
1, 8064, Note_on_c, 1, 50, 127
1, 8087, Note_off_c, 1, 86, 0
1, 8088, Note_on_c, 1, 85, 127
1, 8100, Note_off_c, 1, 85, 0
1, 8100, Note_on_c, 1, 83, 127
1, 8109, Note_off_c, 1, 50, 0
1, 8112, Note_off_c, 1, 83, 0
1, 8112, Note_on_c, 1, 81, 127
1, 8112, Note_on_c, 1, 55, 127
1, 8131, Note_off_c, 1, 66, 0
1, 8135, Note_off_c, 1, 81, 0
1, 8136, Note_on_c, 1, 79, 127
1, 8136, Note_on_c, 1, 71, 127
1, 8157, Note_off_c, 1, 55, 0
1, 8159, Note_off_c, 1, 79, 0
1, 8159, Note_off_c, 1, 71, 0
1, 8160, Note_on_c, 1, 78, 127
1, 8160, Note_on_c, 1, 69, 127
1, 8160, Note_on_c, 1, 57, 127
1, 8183, Note_off_c, 1, 69, 0
1, 8184, Note_on_c, 1, 62, 127
1, 8205, Note_off_c, 1, 78, 0
1, 8205, Note_off_c, 1, 57, 0
1, 8207, Note_off_c, 1, 62, 0
1, 8208, Note_on_c, 1, 76, 127
1, 8208, Note_on_c, 1, 61, 127
1, 8208, Note_on_c, 1, 45, 127
1, 8214, Note_off_c, 1, 76, 0
1, 8214, Note_on_c, 1, 78, 127
1, 8220, Note_off_c, 1, 78, 0
1, 8231, Note_off_c, 1, 61, 0
1, 8232, Note_on_c, 1, 74, 127
1, 8232, Note_on_c, 1, 67, 127
1, 8253, Note_off_c, 1, 45, 0
1, 8255, Note_off_c, 1, 74, 0
1, 8255, Note_off_c, 1, 67, 0
1, 8256, Note_on_c, 1, 74, 127
1, 8256, Note_on_c, 1, 66, 127
1, 8256, Note_on_c, 1, 50, 127
1, 8279, Note_off_c, 1, 66, 0
1, 8280, Note_on_c, 1, 64, 127
1, 8301, Note_off_c, 1, 74, 0
1, 8301, Note_off_c, 1, 50, 0
1, 8303, Note_off_c, 1, 64, 0
1, 8304, Note_on_c, 1, 69, 127
1, 8304, Note_on_c, 1, 66, 127
1, 8304, Note_on_c, 1, 50, 127
1, 8327, Note_off_c, 1, 66, 0
1, 8328, Note_off_c, 1, 69, 0
1, 8328, Note_on_c, 1, 71, 127
1, 8328, Note_on_c, 1, 67, 127
1, 8349, Note_off_c, 1, 50, 0
1, 8351, Note_off_c, 1, 71, 0
1, 8351, Note_off_c, 1, 67, 0
1, 8352, Note_on_c, 1, 72, 127
1, 8352, Note_on_c, 1, 69, 127
1, 8352, Note_on_c, 1, 45, 127
1, 8376, Note_off_c, 1, 72, 0
1, 8376, Note_off_c, 1, 69, 0
1, 8376, Note_on_c, 1, 71, 127
1, 8376, Note_on_c, 1, 67, 127
1, 8397, Note_off_c, 1, 45, 0
1, 8399, Note_off_c, 1, 71, 0
1, 8399, Note_off_c, 1, 67, 0
1, 8400, Note_on_c, 1, 74, 127
1, 8400, Note_on_c, 1, 71, 127
1, 8400, Note_on_c, 1, 42, 127
1, 8424, Note_off_c, 1, 74, 0
1, 8424, Note_off_c, 1, 71, 0
1, 8424, Note_on_c, 1, 72, 127
1, 8424, Note_on_c, 1, 69, 127
1, 8445, Note_off_c, 1, 42, 0
1, 8447, Note_off_c, 1, 72, 0
1, 8447, Note_off_c, 1, 69, 0
1, 8448, Note_on_c, 1, 38, 127
1, 8493, Note_off_c, 1, 38, 0
1, 8496, Note_on_c, 1, 72, 127
1, 8496, Note_on_c, 1, 69, 127
1, 8496, Note_on_c, 1, 50, 127
1, 8519, Note_off_c, 1, 72, 0
1, 8519, Note_off_c, 1, 69, 0
1, 8520, Note_on_c, 1, 74, 127
1, 8520, Note_on_c, 1, 71, 127
1, 8532, Note_off_c, 1, 74, 0
1, 8532, Note_off_c, 1, 71, 0
1, 8532, Note_on_c, 1, 76, 127
1, 8541, Note_off_c, 1, 50, 0
1, 8544, Note_off_c, 1, 76, 0
1, 8544, Note_on_c, 1, 48, 127
1, 8589, Note_off_c, 1, 48, 0
1, 8592, Note_on_c, 1, 71, 127
1, 8592, Note_on_c, 1, 67, 127
1, 8592, Note_on_c, 1, 50, 127
1, 8615, Note_off_c, 1, 67, 0
1, 8616, Note_off_c, 1, 71, 0
1, 8616, Note_on_c, 1, 69, 127
1, 8616, Note_on_c, 1, 66, 127
1, 8637, Note_off_c, 1, 50, 0
1, 8639, Note_off_c, 1, 69, 0
1, 8639, Note_off_c, 1, 66, 0
1, 8640, Note_on_c, 1, 71, 127
1, 8640, Note_on_c, 1, 67, 127
1, 8640, Note_on_c, 1, 43, 127
1, 8663, Note_off_c, 1, 67, 0
1, 8685, Note_off_c, 1, 71, 0
1, 8685, Note_off_c, 1, 43, 0
1, 8688, Note_on_c, 1, 71, 127
1, 8688, Note_on_c, 1, 68, 127
1, 8688, Note_on_c, 1, 52, 127
1, 8712, Note_off_c, 1, 71, 0
1, 8712, Note_off_c, 1, 68, 0
1, 8712, Note_on_c, 1, 73, 127
1, 8712, Note_on_c, 1, 69, 127
1, 8733, Note_off_c, 1, 52, 0
1, 8735, Note_off_c, 1, 73, 0
1, 8735, Note_off_c, 1, 69, 0
1, 8736, Note_on_c, 1, 74, 127
1, 8736, Note_on_c, 1, 71, 127
1, 8736, Note_on_c, 1, 47, 127
1, 8760, Note_off_c, 1, 74, 0
1, 8760, Note_off_c, 1, 71, 0
1, 8760, Note_on_c, 1, 73, 127
1, 8760, Note_on_c, 1, 69, 127
1, 8781, Note_off_c, 1, 47, 0
1, 8783, Note_off_c, 1, 73, 0
1, 8783, Note_off_c, 1, 69, 0
1, 8784, Note_on_c, 1, 76, 127
1, 8784, Note_on_c, 1, 73, 127
1, 8784, Note_on_c, 1, 44, 127
1, 8808, Note_off_c, 1, 76, 0
1, 8808, Note_off_c, 1, 73, 0
1, 8808, Note_on_c, 1, 74, 127
1, 8808, Note_on_c, 1, 71, 127
1, 8829, Note_off_c, 1, 44, 0
1, 8831, Note_off_c, 1, 74, 0
1, 8831, Note_off_c, 1, 71, 0
1, 8832, Note_on_c, 1, 40, 127
1, 8877, Note_off_c, 1, 40, 0
1, 8880, Note_on_c, 1, 74, 127
1, 8880, Note_on_c, 1, 71, 127
1, 8880, Note_on_c, 1, 52, 127
1, 8903, Note_off_c, 1, 74, 0
1, 8903, Note_off_c, 1, 71, 0
1, 8904, Note_on_c, 1, 76, 127
1, 8904, Note_on_c, 1, 73, 127
1, 8916, Note_off_c, 1, 76, 0
1, 8916, Note_off_c, 1, 73, 0
1, 8916, Note_on_c, 1, 78, 127
1, 8925, Note_off_c, 1, 52, 0
1, 8928, Note_off_c, 1, 78, 0
1, 8928, Note_on_c, 1, 50, 127
1, 8973, Note_off_c, 1, 50, 0
1, 8976, Note_on_c, 1, 73, 127
1, 8976, Note_on_c, 1, 69, 127
1, 8976, Note_on_c, 1, 52, 127
1, 8999, Note_off_c, 1, 73, 0
1, 8999, Note_off_c, 1, 69, 0
1, 9000, Note_on_c, 1, 71, 127
1, 9000, Note_on_c, 1, 68, 127
1, 9021, Note_off_c, 1, 52, 0
1, 9023, Note_off_c, 1, 71, 0
1, 9023, Note_off_c, 1, 68, 0
1, 9024, Note_on_c, 1, 73, 127
1, 9024, Note_on_c, 1, 69, 127
1, 9024, Note_on_c, 1, 45, 127
1, 9069, Note_off_c, 1, 73, 0
1, 9069, Note_off_c, 1, 69, 0
1, 9069, Note_off_c, 1, 45, 0
1, 9072, Note_on_c, 1, 73, 127
1, 9072, Note_on_c, 1, 64, 127
1, 9072, Note_on_c, 1, 57, 127
1, 9096, Note_off_c, 1, 73, 0
1, 9096, Note_off_c, 1, 64, 0
1, 9096, Note_on_c, 1, 74, 127
1, 9096, Note_on_c, 1, 66, 127
1, 9117, Note_off_c, 1, 57, 0
1, 9119, Note_off_c, 1, 74, 0
1, 9119, Note_off_c, 1, 66, 0
1, 9120, Note_on_c, 1, 76, 127
1, 9120, Note_on_c, 1, 67, 127
1, 9120, Note_on_c, 1, 52, 127
1, 9144, Note_off_c, 1, 76, 0
1, 9144, Note_off_c, 1, 67, 0
1, 9144, Note_on_c, 1, 74, 127
1, 9144, Note_on_c, 1, 66, 127
1, 9165, Note_off_c, 1, 52, 0
1, 9167, Note_off_c, 1, 74, 0
1, 9167, Note_off_c, 1, 66, 0
1, 9168, Note_on_c, 1, 78, 127
1, 9168, Note_on_c, 1, 69, 127
1, 9168, Note_on_c, 1, 49, 127
1, 9192, Note_off_c, 1, 78, 0
1, 9192, Note_off_c, 1, 69, 0
1, 9192, Note_on_c, 1, 76, 127
1, 9192, Note_on_c, 1, 67, 127
1, 9213, Note_off_c, 1, 49, 0
1, 9215, Note_off_c, 1, 76, 0
1, 9215, Note_off_c, 1, 67, 0
1, 9216, Note_on_c, 1, 45, 127
1, 9261, Note_off_c, 1, 45, 0
1, 9264, Note_on_c, 1, 76, 127
1, 9264, Note_on_c, 1, 67, 127
1, 9264, Note_on_c, 1, 57, 127
1, 9287, Note_off_c, 1, 76, 0
1, 9287, Note_off_c, 1, 67, 0
1, 9288, Note_on_c, 1, 78, 127
1, 9288, Note_on_c, 1, 69, 127
1, 9300, Note_off_c, 1, 78, 0
1, 9300, Note_off_c, 1, 69, 0
1, 9300, Note_on_c, 1, 79, 127
1, 9300, Note_on_c, 1, 71, 127
1, 9309, Note_off_c, 1, 57, 0
1, 9312, Note_off_c, 1, 79, 0
1, 9312, Note_off_c, 1, 71, 0
1, 9312, Note_on_c, 1, 55, 127
1, 9357, Note_off_c, 1, 55, 0
1, 9360, Note_on_c, 1, 74, 127
1, 9360, Note_on_c, 1, 66, 127
1, 9360, Note_on_c, 1, 57, 127
1, 9383, Note_off_c, 1, 66, 0
1, 9384, Note_off_c, 1, 74, 0
1, 9384, Note_on_c, 1, 73, 127
1, 9384, Note_on_c, 1, 64, 127
1, 9405, Note_off_c, 1, 57, 0
1, 9407, Note_off_c, 1, 73, 0
1, 9407, Note_off_c, 1, 64, 0
1, 9408, Note_on_c, 1, 74, 127
1, 9408, Note_on_c, 1, 66, 127
1, 9408, Note_on_c, 1, 50, 127
1, 9431, Note_off_c, 1, 74, 0
1, 9431, Note_off_c, 1, 66, 0
1, 9432, Note_on_c, 1, 73, 127
1, 9432, Note_on_c, 1, 69, 127
1, 9453, Note_off_c, 1, 50, 0
1, 9455, Note_off_c, 1, 73, 0
1, 9455, Note_off_c, 1, 69, 0
1, 9456, Note_on_c, 1, 71, 127
1, 9456, Note_on_c, 1, 49, 127
1, 9479, Note_off_c, 1, 71, 0
1, 9480, Note_on_c, 1, 69, 127
1, 9480, Note_on_c, 1, 73, 127
1, 9501, Note_off_c, 1, 49, 0
1, 9503, Note_off_c, 1, 69, 0
1, 9503, Note_off_c, 1, 73, 0
1, 9504, Note_on_c, 1, 67, 127
1, 9504, Note_on_c, 1, 74, 127
1, 9504, Note_on_c, 1, 47, 127
1, 9527, Note_off_c, 1, 67, 0
1, 9528, Note_on_c, 1, 66, 127
1, 9549, Note_off_c, 1, 47, 0
1, 9551, Note_off_c, 1, 66, 0
1, 9552, Note_on_c, 1, 64, 127
1, 9552, Note_on_c, 1, 50, 127
1, 9575, Note_off_c, 1, 64, 0
1, 9597, Note_off_c, 1, 50, 0
1, 9600, Note_on_c, 1, 43, 127
1, 9623, Note_off_c, 1, 74, 0
1, 9624, Note_on_c, 1, 73, 127
1, 9645, Note_off_c, 1, 43, 0
1, 9647, Note_off_c, 1, 73, 0
1, 9648, Note_on_c, 1, 74, 127
1, 9648, Note_on_c, 1, 71, 127
1, 9648, Note_on_c, 1, 42, 127
1, 9671, Note_off_c, 1, 71, 0
1, 9672, Note_on_c, 1, 69, 127
1, 9693, Note_off_c, 1, 74, 0
1, 9693, Note_off_c, 1, 42, 0
1, 9695, Note_off_c, 1, 69, 0
1, 9696, Note_on_c, 1, 79, 127
1, 9696, Note_on_c, 1, 67, 127
1, 9696, Note_on_c, 1, 40, 127
1, 9719, Note_off_c, 1, 67, 0
1, 9720, Note_on_c, 1, 66, 127
1, 9741, Note_off_c, 1, 40, 0
1, 9743, Note_off_c, 1, 66, 0
1, 9744, Note_on_c, 1, 64, 127
1, 9744, Note_on_c, 1, 38, 127
1, 9767, Note_off_c, 1, 64, 0
1, 9789, Note_off_c, 1, 38, 0
1, 9792, Note_on_c, 1, 37, 127
1, 9815, Note_off_c, 1, 79, 0
1, 9816, Note_on_c, 1, 78, 127
1, 9837, Note_off_c, 1, 37, 0
1, 9839, Note_off_c, 1, 78, 0
1, 9840, Note_on_c, 1, 76, 127
1, 9840, Note_on_c, 1, 71, 127
1, 9840, Note_on_c, 1, 40, 127
1, 9863, Note_off_c, 1, 76, 0
1, 9864, Note_on_c, 1, 74, 127
1, 9885, Note_off_c, 1, 71, 0
1, 9885, Note_off_c, 1, 40, 0
1, 9887, Note_off_c, 1, 74, 0
1, 9888, Note_on_c, 1, 73, 127
1, 9888, Note_on_c, 1, 79, 127
1, 9888, Note_on_c, 1, 45, 127
1, 9911, Note_off_c, 1, 73, 0
1, 9912, Note_on_c, 1, 71, 127
1, 9933, Note_off_c, 1, 45, 0
1, 9935, Note_off_c, 1, 71, 0
1, 9936, Note_on_c, 1, 69, 127
1, 9936, Note_on_c, 1, 47, 127
1, 9959, Note_off_c, 1, 69, 0
1, 9981, Note_off_c, 1, 47, 0
1, 9984, Note_on_c, 1, 49, 127
1, 10007, Note_off_c, 1, 79, 0
1, 10008, Note_on_c, 1, 78, 127
1, 10029, Note_off_c, 1, 49, 0
1, 10031, Note_off_c, 1, 78, 0
1, 10032, Note_on_c, 1, 79, 127
1, 10032, Note_on_c, 1, 76, 127
1, 10032, Note_on_c, 1, 50, 127
1, 10055, Note_off_c, 1, 76, 0
1, 10056, Note_on_c, 1, 74, 127
1, 10077, Note_off_c, 1, 79, 0
1, 10077, Note_off_c, 1, 50, 0
1, 10079, Note_off_c, 1, 74, 0
1, 10080, Note_on_c, 1, 88, 127
1, 10080, Note_on_c, 1, 73, 127
1, 10080, Note_on_c, 1, 52, 127
1, 10103, Note_off_c, 1, 73, 0
1, 10104, Note_on_c, 1, 71, 127
1, 10125, Note_off_c, 1, 52, 0
1, 10127, Note_off_c, 1, 71, 0
1, 10128, Note_on_c, 1, 69, 127
1, 10128, Note_on_c, 1, 54, 127
1, 10151, Note_off_c, 1, 69, 0
1, 10173, Note_off_c, 1, 54, 0
1, 10176, Note_on_c, 1, 55, 127
1, 10199, Note_off_c, 1, 88, 0
1, 10200, Note_on_c, 1, 86, 127
1, 10221, Note_off_c, 1, 55, 0
1, 10223, Note_off_c, 1, 86, 0
1, 10224, Note_on_c, 1, 85, 127
1, 10224, Note_on_c, 1, 76, 127
1, 10224, Note_on_c, 1, 57, 127
1, 10247, Note_off_c, 1, 85, 0
1, 10247, Note_off_c, 1, 76, 0
1, 10248, Note_on_c, 1, 83, 127
1, 10248, Note_on_c, 1, 74, 127
1, 10269, Note_off_c, 1, 57, 0
1, 10271, Note_off_c, 1, 83, 0
1, 10271, Note_off_c, 1, 74, 0
1, 10272, Note_on_c, 1, 81, 127
1, 10272, Note_on_c, 1, 76, 127
1, 10272, Note_on_c, 1, 59, 127
1, 10295, Note_off_c, 1, 81, 0
1, 10296, Note_on_c, 1, 79, 127
1, 10317, Note_off_c, 1, 59, 0
1, 10319, Note_off_c, 1, 79, 0
1, 10320, Note_on_c, 1, 78, 127
1, 10320, Note_on_c, 1, 61, 127
1, 10343, Note_off_c, 1, 78, 0
1, 10365, Note_off_c, 1, 61, 0
1, 10368, Note_on_c, 1, 62, 127
1, 10391, Note_off_c, 1, 76, 0
1, 10391, Note_off_c, 1, 62, 0
1, 10392, Note_on_c, 1, 69, 127
1, 10415, Note_off_c, 1, 69, 0
1, 10416, Note_on_c, 1, 79, 127
1, 10416, Note_on_c, 1, 74, 127
1, 10416, Note_on_c, 1, 59, 127
1, 10439, Note_off_c, 1, 74, 0
1, 10439, Note_off_c, 1, 59, 0
1, 10440, Note_off_c, 1, 79, 0
1, 10440, Note_on_c, 1, 78, 127
1, 10440, Note_on_c, 1, 73, 127
1, 10440, Note_on_c, 1, 57, 127
1, 10463, Note_off_c, 1, 78, 0
1, 10463, Note_off_c, 1, 73, 0
1, 10463, Note_off_c, 1, 57, 0
1, 10464, Note_on_c, 1, 76, 127
1, 10464, Note_on_c, 1, 71, 127
1, 10464, Note_on_c, 1, 55, 127
1, 10487, Note_off_c, 1, 71, 0
1, 10487, Note_off_c, 1, 55, 0
1, 10488, Note_off_c, 1, 76, 0
1, 10488, Note_on_c, 1, 74, 127
1, 10488, Note_on_c, 1, 69, 127
1, 10488, Note_on_c, 1, 54, 127
1, 10511, Note_off_c, 1, 74, 0
1, 10511, Note_off_c, 1, 69, 0
1, 10511, Note_off_c, 1, 54, 0
1, 10512, Note_on_c, 1, 73, 127
1, 10512, Note_on_c, 1, 67, 127
1, 10512, Note_on_c, 1, 52, 127
1, 10535, Note_off_c, 1, 67, 0
1, 10535, Note_off_c, 1, 52, 0
1, 10536, Note_off_c, 1, 73, 0
1, 10536, Note_on_c, 1, 74, 127
1, 10536, Note_on_c, 1, 66, 127
1, 10536, Note_on_c, 1, 50, 127
1, 10559, Note_off_c, 1, 74, 0
1, 10559, Note_off_c, 1, 66, 0
1, 10559, Note_off_c, 1, 50, 0
1, 10560, Note_on_c, 1, 73, 127
1, 10560, Note_on_c, 1, 64, 127
1, 10560, Note_on_c, 1, 43, 127
1, 10583, Note_off_c, 1, 64, 0
1, 10584, Note_on_c, 1, 67, 127
1, 10607, Note_off_c, 1, 67, 0
1, 10608, Note_on_c, 1, 69, 127
1, 10631, Note_off_c, 1, 69, 0
1, 10649, Note_off_c, 1, 43, 0
1, 10655, Note_off_c, 1, 73, 0
1, 10656, Note_on_c, 1, 76, 127
1, 10679, Note_off_c, 1, 76, 0
1, 10680, Note_on_c, 1, 79, 127
1, 10703, Note_off_c, 1, 79, 0
1, 10704, Note_on_c, 1, 81, 127
1, 10704, Note_on_c, 1, 42, 127
1, 10728, Note_on_c, 1, 73, 127
1, 10749, Note_off_c, 1, 81, 0
1, 10749, Note_off_c, 1, 42, 0
1, 10751, Note_off_c, 1, 73, 0
1, 10752, Note_on_c, 1, 79, 127
1, 10752, Note_on_c, 1, 74, 127
1, 10752, Note_on_c, 1, 47, 127
1, 10776, Note_off_c, 1, 79, 0
1, 10776, Note_on_c, 1, 78, 127
1, 10797, Note_off_c, 1, 47, 0
1, 10799, Note_off_c, 1, 78, 0
1, 10800, Note_on_c, 1, 83, 127
1, 10800, Note_on_c, 1, 43, 127
1, 10819, Note_off_c, 1, 74, 0
1, 10824, Note_off_c, 1, 83, 0
1, 10824, Note_on_c, 1, 81, 127
1, 10824, Note_on_c, 1, 76, 127
1, 10845, Note_off_c, 1, 43, 0
1, 10847, Note_off_c, 1, 81, 0
1, 10847, Note_off_c, 1, 76, 0
1, 10848, Note_on_c, 1, 78, 127
1, 10848, Note_on_c, 1, 73, 127
1, 10848, Note_on_c, 1, 45, 127
1, 10854, Note_off_c, 1, 78, 0
1, 10854, Note_off_c, 1, 73, 0
1, 10854, Note_on_c, 1, 79, 127
1, 10854, Note_on_c, 1, 74, 127
1, 10860, Note_off_c, 1, 79, 0
1, 10860, Note_off_c, 1, 74, 0
1, 10893, Note_off_c, 1, 45, 0
1, 10896, Note_on_c, 1, 76, 127
1, 10920, Note_off_c, 1, 76, 0
1, 10944, Note_on_c, 1, 74, 127
1, 10944, Note_on_c, 1, 38, 127
1, 11121, Note_off_c, 1, 74, 0
1, 11121, Note_off_c, 1, 38, 0
1, 11121, End_track
0, 0, End_of_file