0, 0, Header, 1, 1, 480
1, 0, Start_track
1, 0, Title_t, "Test"
1, 0, Tempo, 500000
1, 0, Instrument_name_t, "Church Organ"
1, 0, Note_on_c, 1, 78, 127
1, 0, Note_on_c, 1, 47, 127
1, 89, Note_off_c, 1, 78, 0
1, 96, Note_on_c, 1, 79, 127
1, 141, Note_off_c, 1, 79, 0
1, 177, Note_off_c, 1, 47, 0
1, 192, Note_on_c, 1, 76, 127
1, 192, Note_on_c, 1, 59, 127
1, 237, Note_off_c, 1, 76, 0
1, 240, Note_on_c, 1, 78, 127
1, 285, Note_off_c, 1, 78, 0
1, 288, Note_on_c, 1, 79, 127
1, 369, Note_off_c, 1, 59, 0
1, 377, Note_off_c, 1, 79, 0
1, 384, Note_on_c, 1, 79, 127
1, 384, Note_on_c, 1, 58, 127
1, 407, Note_off_c, 1, 79, 0
1, 408, Note_on_c, 1, 81, 127
1, 431, Note_off_c, 1, 81, 0
1, 473, Note_off_c, 1, 58, 0
1, 480, Note_on_c, 1, 78, 127
1, 480, Note_on_c, 1, 61, 127
1, 569, Note_off_c, 1, 78, 0
1, 569, Note_off_c, 1, 61, 0
1, 576, Note_on_c, 1, 58, 127
1, 665, Note_off_c, 1, 58, 0
1, 672, Note_on_c, 1, 76, 127
1, 672, Note_on_c, 1, 54, 127
1, 761, Note_off_c, 1, 76, 0
1, 761, Note_off_c, 1, 54, 0
1, 768, Note_on_c, 1, 74, 127
1, 768, Note_on_c, 1, 59, 127
1, 813, Note_off_c, 1, 74, 0
1, 816, Note_on_c, 1, 76, 127
1, 857, Note_off_c, 1, 59, 0
1, 861, Note_off_c, 1, 76, 0
1, 864, Note_on_c, 1, 78, 127
1, 864, Note_on_c, 1, 50, 127
1, 909, Note_off_c, 1, 78, 0
1, 912, Note_on_c, 1, 71, 127
1, 953, Note_off_c, 1, 50, 0
1, 957, Note_off_c, 1, 71, 0
1, 960, Note_on_c, 1, 74, 127
1, 960, Note_on_c, 1, 52, 127
1, 1049, Note_off_c, 1, 74, 0
1, 1049, Note_off_c, 1, 52, 0
1, 1056, Note_on_c, 1, 73, 127
1, 1056, Note_on_c, 1, 54, 127
1, 1079, Note_off_c, 1, 73, 0
1, 1080, Note_on_c, 1, 74, 127
1, 1103, Note_off_c, 1, 74, 0
1, 1145, Note_off_c, 1, 54, 0
1, 1152, Note_on_c, 1, 71, 127
1, 1152, Note_on_c, 1, 47, 127
1, 1197, Note_off_c, 1, 71, 0
1, 1200, Note_on_c, 1, 74, 127
1, 1241, Note_off_c, 1, 47, 0
1, 1245, Note_off_c, 1, 74, 0
1, 1248, Note_on_c, 1, 73, 127
1, 1248, Note_on_c, 1, 59, 127
1, 1293, Note_off_c, 1, 73, 0
1, 1296, Note_on_c, 1, 71, 127
1, 1337, Note_off_c, 1, 59, 0
1, 1341, Note_off_c, 1, 71, 0
1, 1344, Note_on_c, 1, 78, 127
1, 1344, Note_on_c, 1, 57, 127
1, 1389, Note_off_c, 1, 78, 0
1, 1392, Note_on_c, 1, 71, 127
1, 1433, Note_off_c, 1, 57, 0
1, 1437, Note_off_c, 1, 71, 0
1, 1440, Note_on_c, 1, 80, 127
1, 1440, Note_on_c, 1, 56, 127
1, 1485, Note_off_c, 1, 80, 0
1, 1488, Note_on_c, 1, 71, 127
1, 1529, Note_off_c, 1, 56, 0
1, 1533, Note_off_c, 1, 71, 0
1, 1536, Note_on_c, 1, 81, 127
1, 1536, Note_on_c, 1, 73, 127
1, 1536, Note_on_c, 1, 54, 127
1, 1581, Note_off_c, 1, 81, 0
1, 1584, Note_on_c, 1, 80, 127
1, 1625, Note_off_c, 1, 73, 0
1, 1629, Note_off_c, 1, 80, 0
1, 1632, Note_on_c, 1, 83, 127
1, 1632, Note_on_c, 1, 74, 127
1, 1677, Note_off_c, 1, 83, 0
1, 1677, Note_off_c, 1, 74, 0
1, 1713, Note_off_c, 1, 54, 0
1, 1728, Note_on_c, 1, 80, 127
1, 1728, Note_on_c, 1, 71, 127
1, 1728, Note_on_c, 1, 66, 127
1, 1773, Note_off_c, 1, 80, 0
1, 1773, Note_off_c, 1, 71, 0
1, 1776, Note_on_c, 1, 78, 127
1, 1776, Note_on_c, 1, 73, 127
1, 1821, Note_off_c, 1, 78, 0
1, 1821, Note_off_c, 1, 73, 0
1, 1824, Note_on_c, 1, 77, 127
1, 1824, Note_on_c, 1, 74, 127
1, 1869, Note_off_c, 1, 77, 0
1, 1905, Note_off_c, 1, 66, 0
1, 1913, Note_off_c, 1, 74, 0
1, 1920, Note_on_c, 1, 80, 127
1, 1920, Note_on_c, 1, 74, 127
1, 1920, Note_on_c, 1, 65, 127
1, 1943, Note_off_c, 1, 74, 0
1, 1944, Note_on_c, 1, 76, 127
1, 1965, Note_off_c, 1, 80, 0
1, 1967, Note_off_c, 1, 76, 0
1, 1968, Note_on_c, 1, 78, 127
1, 2009, Note_off_c, 1, 65, 0
1, 2013, Note_off_c, 1, 78, 0
1, 2016, Note_on_c, 1, 77, 127
1, 2016, Note_on_c, 1, 73, 127
1, 2016, Note_on_c, 1, 68, 127
1, 2061, Note_off_c, 1, 77, 0
1, 2064, Note_on_c, 1, 75, 127
1, 2105, Note_off_c, 1, 73, 0
1, 2105, Note_off_c, 1, 68, 0
1, 2109, Note_off_c, 1, 75, 0
1, 2112, Note_on_c, 1, 73, 127
1, 2112, Note_on_c, 1, 65, 127
1, 2157, Note_off_c, 1, 73, 0
1, 2160, Note_on_c, 1, 71, 127
1, 2201, Note_off_c, 1, 65, 0
1, 2205, Note_off_c, 1, 71, 0
1, 2208, Note_on_c, 1, 69, 127
1, 2208, Note_on_c, 1, 71, 127
1, 2208, Note_on_c, 1, 61, 127
1, 2253, Note_off_c, 1, 69, 0
1, 2256, Note_on_c, 1, 68, 127
1, 2297, Note_off_c, 1, 71, 0
1, 2297, Note_off_c, 1, 61, 0
1, 2301, Note_off_c, 1, 68, 0
1, 2304, Note_on_c, 1, 66, 127
1, 2304, Note_on_c, 1, 69, 127
1, 2349, Note_off_c, 1, 69, 0
1, 2352, Note_on_c, 1, 71, 127
1, 2393, Note_off_c, 1, 66, 0
1, 2397, Note_off_c, 1, 71, 0
1, 2400, Note_on_c, 1, 78, 127
1, 2400, Note_on_c, 1, 73, 127
1, 2400, Note_on_c, 1, 57, 127
1, 2445, Note_off_c, 1, 73, 0
1, 2448, Note_on_c, 1, 66, 127
1, 2489, Note_off_c, 1, 57, 0
1, 2493, Note_off_c, 1, 66, 0
1, 2496, Note_on_c, 1, 69, 127
1, 2496, Note_on_c, 1, 59, 127
1, 2577, Note_off_c, 1, 78, 0
1, 2585, Note_off_c, 1, 69, 0
1, 2585, Note_off_c, 1, 59, 0
1, 2592, Note_on_c, 1, 77, 127
1, 2592, Note_on_c, 1, 68, 127
1, 2592, Note_on_c, 1, 61, 127
1, 2615, Note_off_c, 1, 68, 0
1, 2616, Note_on_c, 1, 69, 127
1, 2639, Note_off_c, 1, 69, 0
1, 2681, Note_off_c, 1, 77, 0
1, 2681, Note_off_c, 1, 61, 0
1, 2688, Note_on_c, 1, 81, 127
1, 2688, Note_on_c, 1, 66, 127
1, 2688, Note_on_c, 1, 54, 127
1, 2733, Note_off_c, 1, 66, 0
1, 2736, Note_on_c, 1, 69, 127
1, 2781, Note_off_c, 1, 69, 0
1, 2784, Note_on_c, 1, 68, 127
1, 2829, Note_off_c, 1, 68, 0
1, 2865, Note_off_c, 1, 54, 0
1, 2880, Note_on_c, 1, 73, 127
1, 2925, Note_off_c, 1, 73, 0
1, 2976, Note_on_c, 1, 75, 127
1, 2976, Note_on_c, 1, 59, 127
1, 3021, Note_off_c, 1, 75, 0
1, 3042, Note_off_c, 1, 81, 0
1, 3065, Note_off_c, 1, 59, 0
1, 3072, Note_on_c, 1, 79, 127
1, 3072, Note_on_c, 1, 64, 127
1, 3072, Note_on_c, 1, 52, 127
1, 3117, Note_off_c, 1, 64, 0
1, 3120, Note_on_c, 1, 67, 127
1, 3165, Note_off_c, 1, 67, 0
1, 3168, Note_on_c, 1, 66, 127
1, 3213, Note_off_c, 1, 66, 0
1, 3249, Note_off_c, 1, 52, 0
1, 3264, Note_on_c, 1, 71, 127
1, 3309, Note_off_c, 1, 71, 0
1, 3360, Note_on_c, 1, 73, 127
1, 3360, Note_on_c, 1, 57, 127
1, 3405, Note_off_c, 1, 73, 0
1, 3426, Note_off_c, 1, 79, 0
1, 3449, Note_off_c, 1, 57, 0
1, 3456, Note_on_c, 1, 78, 127
1, 3456, Note_on_c, 1, 74, 127
1, 3456, Note_on_c, 1, 50, 127
1, 3501, Note_off_c, 1, 78, 0
1, 3545, Note_off_c, 1, 50, 0
1, 3552, Note_on_c, 1, 76, 127
1, 3552, Note_on_c, 1, 47, 127
1, 3597, Note_off_c, 1, 76, 0
1, 3641, Note_off_c, 1, 47, 0
1, 3648, Note_on_c, 1, 71, 127
1, 3648, Note_on_c, 1, 44, 127
1, 3693, Note_off_c, 1, 71, 0
1, 3737, Note_off_c, 1, 44, 0
1, 3744, Note_on_c, 1, 68, 127
1, 3789, Note_off_c, 1, 68, 0
1, 3840, Note_on_c, 1, 49, 127
1, 3885, Note_off_c, 1, 74, 0
1, 3888, Note_on_c, 1, 73, 127
1, 3929, Note_off_c, 1, 49, 0
1, 3933, Note_off_c, 1, 73, 0
1, 3936, Note_on_c, 1, 74, 127
1, 3936, Note_on_c, 1, 78, 127
1, 3936, Note_on_c, 1, 46, 127
1, 3981, Note_off_c, 1, 74, 0
1, 3981, Note_off_c, 1, 78, 0
1, 3984, Note_on_c, 1, 76, 127
1, 3984, Note_on_c, 1, 79, 127
1, 4025, Note_off_c, 1, 46, 0
1, 4029, Note_off_c, 1, 76, 0
1, 4029, Note_off_c, 1, 79, 0
1, 4032, Note_on_c, 1, 70, 127
1, 4032, Note_on_c, 1, 74, 127
1, 4032, Note_on_c, 1, 42, 127
1, 4056, Note_off_c, 1, 74, 0
1, 4056, Note_on_c, 1, 73, 127
1, 4077, Note_off_c, 1, 70, 0
1, 4080, Note_on_c, 1, 76, 127
1, 4121, Note_off_c, 1, 42, 0
1, 4125, Note_off_c, 1, 76, 0
1, 4128, Note_on_c, 1, 66, 127
1, 4128, Note_on_c, 1, 46, 127
1, 4173, Note_off_c, 1, 66, 0
1, 4211, Note_off_c, 1, 73, 0
1, 4217, Note_off_c, 1, 46, 0
1, 4224, Note_on_c, 1, 74, 127
1, 4224, Note_on_c, 1, 73, 127
1, 4224, Note_on_c, 1, 47, 127
1, 4269, Note_off_c, 1, 73, 0
1, 4272, Note_on_c, 1, 71, 127
1, 4313, Note_off_c, 1, 74, 0
1, 4313, Note_off_c, 1, 47, 0
1, 4317, Note_off_c, 1, 71, 0
1, 4320, Note_on_c, 1, 71, 127
1, 4320, Note_on_c, 1, 76, 127
1, 4320, Note_on_c, 1, 55, 127
1, 4365, Note_off_c, 1, 76, 0
1, 4365, Note_off_c, 1, 55, 0
1, 4368, Note_on_c, 1, 74, 127
1, 4368, Note_on_c, 1, 54, 127
1, 4409, Note_off_c, 1, 71, 0
1, 4413, Note_off_c, 1, 74, 0
1, 4413, Note_off_c, 1, 54, 0
1, 4416, Note_on_c, 1, 79, 127
1, 4416, Note_on_c, 1, 73, 127
1, 4416, Note_on_c, 1, 52, 127
1, 4461, Note_off_c, 1, 73, 0
1, 4461, Note_off_c, 1, 52, 0
1, 4464, Note_on_c, 1, 71, 127
1, 4464, Note_on_c, 1, 54, 127
1, 4505, Note_off_c, 1, 79, 0
1, 4509, Note_off_c, 1, 71, 0
1, 4509, Note_off_c, 1, 54, 0
1, 4512, Note_on_c, 1, 76, 127
1, 4512, Note_on_c, 1, 70, 127
1, 4512, Note_on_c, 1, 55, 127
1, 4557, Note_off_c, 1, 70, 0
1, 4560, Note_on_c, 1, 71, 127
1, 4601, Note_off_c, 1, 76, 0
1, 4601, Note_off_c, 1, 55, 0
1, 4605, Note_off_c, 1, 71, 0
1, 4608, Note_on_c, 1, 82, 127
1, 4608, Note_on_c, 1, 73, 127
1, 4608, Note_on_c, 1, 55, 127
1, 4631, Note_off_c, 1, 55, 0
1, 4632, Note_on_c, 1, 57, 127
1, 4653, Note_off_c, 1, 73, 0
1, 4655, Note_off_c, 1, 57, 0
1, 4656, Note_on_c, 1, 71, 127
1, 4697, Note_off_c, 1, 82, 0
1, 4701, Note_off_c, 1, 71, 0
1, 4704, Note_on_c, 1, 85, 127
1, 4704, Note_on_c, 1, 70, 127
1, 4704, Note_on_c, 1, 54, 127
1, 4749, Note_off_c, 1, 70, 0
1, 4752, Note_on_c, 1, 68, 127
1, 4793, Note_off_c, 1, 85, 0
1, 4793, Note_off_c, 1, 54, 0
1, 4797, Note_off_c, 1, 68, 0
1, 4800, Note_on_c, 1, 82, 127
1, 4800, Note_on_c, 1, 66, 127
1, 4845, Note_off_c, 1, 66, 0
1, 4848, Note_on_c, 1, 64, 127
1, 4889, Note_off_c, 1, 82, 0
1, 4893, Note_off_c, 1, 64, 0
1, 4896, Note_on_c, 1, 78, 127
1, 4896, Note_on_c, 1, 62, 127
1, 4896, Note_on_c, 1, 52, 127
1, 4941, Note_off_c, 1, 62, 0
1, 4944, Note_on_c, 1, 61, 127
1, 4985, Note_off_c, 1, 52, 0
1, 4989, Note_off_c, 1, 61, 0
1, 4992, Note_on_c, 1, 59, 127
1, 4992, Note_on_c, 1, 50, 127
1, 5037, Note_off_c, 1, 78, 0
1, 5037, Note_off_c, 1, 50, 0
1, 5040, Note_on_c, 1, 73, 127
1, 5081, Note_off_c, 1, 59, 0
1, 5085, Note_off_c, 1, 73, 0
1, 5088, Note_on_c, 1, 74, 127
1, 5088, Note_on_c, 1, 71, 127
1, 5088, Note_on_c, 1, 54, 127
1, 5133, Note_off_c, 1, 74, 0
1, 5133, Note_off_c, 1, 54, 0
1, 5136, Note_on_c, 1, 76, 127
1, 5136, Note_on_c, 1, 47, 127
1, 5181, Note_off_c, 1, 76, 0
1, 5181, Note_off_c, 1, 47, 0
1, 5184, Note_on_c, 1, 68, 127
1, 5184, Note_on_c, 1, 50, 127
1, 5229, Note_off_c, 1, 68, 0
1, 5265, Note_off_c, 1, 71, 0
1, 5273, Note_off_c, 1, 50, 0
1, 5280, Note_on_c, 1, 70, 127
1, 5280, Note_on_c, 1, 49, 127
1, 5303, Note_off_c, 1, 49, 0
1, 5304, Note_on_c, 1, 50, 127
1, 5327, Note_off_c, 1, 50, 0
1, 5328, Note_on_c, 1, 76, 127
1, 5369, Note_off_c, 1, 70, 0
1, 5373, Note_off_c, 1, 76, 0
1, 5376, Note_on_c, 1, 74, 127
1, 5376, Note_on_c, 1, 71, 127
1, 5376, Note_on_c, 1, 47, 127
1, 5421, Note_off_c, 1, 47, 0
1, 5424, Note_on_c, 1, 50, 127
1, 5465, Note_off_c, 1, 71, 0
1, 5469, Note_off_c, 1, 50, 0
1, 5472, Note_on_c, 1, 66, 127
1, 5472, Note_on_c, 1, 49, 127
1, 5517, Note_off_c, 1, 49, 0
1, 5553, Note_off_c, 1, 74, 0
1, 5561, Note_off_c, 1, 66, 0
1, 5568, Note_on_c, 1, 74, 127
1, 5568, Note_on_c, 1, 54, 127
1, 5613, Note_off_c, 1, 54, 0
1, 5616, Note_on_c, 1, 47, 127
1, 5661, Note_off_c, 1, 47, 0
1, 5664, Note_on_c, 1, 83, 127
1, 5664, Note_on_c, 1, 56, 127
1, 5709, Note_off_c, 1, 56, 0
1, 5753, Note_off_c, 1, 83, 0
1, 5760, Note_on_c, 1, 76, 127
1, 5760, Note_on_c, 1, 57, 127
1, 5805, Note_off_c, 1, 76, 0
1, 5808, Note_on_c, 1, 73, 127
1, 5849, Note_off_c, 1, 74, 0
1, 5849, Note_off_c, 1, 57, 0
1, 5853, Note_off_c, 1, 73, 0
1, 5856, Note_on_c, 1, 71, 127
1, 5856, Note_on_c, 1, 64, 127
1, 5856, Note_on_c, 1, 45, 127
1, 5901, Note_off_c, 1, 71, 0
1, 5904, Note_on_c, 1, 69, 127
1, 5945, Note_off_c, 1, 64, 0
1, 5945, Note_off_c, 1, 45, 0
1, 5949, Note_off_c, 1, 69, 0
1, 5952, Note_on_c, 1, 76, 127
1, 5952, Note_on_c, 1, 73, 127
1, 5952, Note_on_c, 1, 43, 127
1, 6000, Note_off_c, 1, 76, 0
1, 6000, Note_on_c, 1, 69, 127
1, 6041, Note_off_c, 1, 73, 0
1, 6041, Note_off_c, 1, 43, 0
1, 6045, Note_off_c, 1, 69, 0
1, 6048, Note_on_c, 1, 78, 127
1, 6048, Note_on_c, 1, 75, 127
1, 6048, Note_on_c, 1, 42, 127
1, 6096, Note_off_c, 1, 78, 0
1, 6096, Note_on_c, 1, 69, 127
1, 6137, Note_off_c, 1, 75, 0
1, 6137, Note_off_c, 1, 42, 0
1, 6141, Note_off_c, 1, 69, 0
1, 6144, Note_on_c, 1, 79, 127
1, 6144, Note_on_c, 1, 64, 127
1, 6144, Note_on_c, 1, 40, 127
1, 6189, Note_off_c, 1, 64, 0
1, 6192, Note_on_c, 1, 67, 127
1, 6233, Note_off_c, 1, 79, 0
1, 6233, Note_off_c, 1, 40, 0
1, 6237, Note_off_c, 1, 67, 0
1, 6240, Note_on_c, 1, 71, 127
1, 6240, Note_on_c, 1, 66, 127
1, 6240, Note_on_c, 1, 47, 127
1, 6285, Note_off_c, 1, 66, 0
1, 6288, Note_on_c, 1, 64, 127
1, 6329, Note_off_c, 1, 71, 0
1, 6329, Note_off_c, 1, 47, 0
1, 6333, Note_off_c, 1, 64, 0
1, 6336, Note_on_c, 1, 79, 127
1, 6336, Note_on_c, 1, 71, 127
1, 6336, Note_on_c, 1, 43, 127
1, 6381, Note_off_c, 1, 71, 0
1, 6384, Note_on_c, 1, 64, 127
1, 6425, Note_off_c, 1, 43, 0
1, 6429, Note_off_c, 1, 64, 0
1, 6432, Note_on_c, 1, 73, 127
1, 6432, Note_on_c, 1, 40, 127
1, 6477, Note_off_c, 1, 73, 0
1, 6513, Note_off_c, 1, 79, 0
1, 6521, Note_off_c, 1, 40, 0
1, 6528, Note_on_c, 1, 78, 127
1, 6528, Note_on_c, 1, 74, 127
1, 6528, Note_on_c, 1, 47, 127
1, 6573, Note_off_c, 1, 78, 0
1, 6617, Note_off_c, 1, 47, 0
1, 6621, Note_off_c, 1, 74, 0
1, 6624, Note_on_c, 1, 73, 127
1, 6624, Note_on_c, 1, 66, 127
1, 6624, Note_on_c, 1, 54, 127
1, 6669, Note_off_c, 1, 73, 0
1, 6672, Note_on_c, 1, 71, 127
1, 6713, Note_off_c, 1, 66, 0
1, 6713, Note_off_c, 1, 54, 0
1, 6717, Note_off_c, 1, 71, 0
1, 6720, Note_on_c, 1, 78, 127
1, 6720, Note_on_c, 1, 74, 127
1, 6720, Note_on_c, 1, 50, 127
1, 6765, Note_off_c, 1, 78, 0
1, 6768, Note_on_c, 1, 71, 127
1, 6809, Note_off_c, 1, 50, 0
1, 6813, Note_off_c, 1, 71, 0
1, 6816, Note_on_c, 1, 80, 127
1, 6816, Note_on_c, 1, 47, 127
1, 6864, Note_off_c, 1, 80, 0
1, 6897, Note_off_c, 1, 74, 0
1, 6905, Note_off_c, 1, 47, 0
1, 6912, Note_on_c, 1, 81, 127
1, 6912, Note_on_c, 1, 73, 127
1, 6912, Note_on_c, 1, 42, 127
1, 6957, Note_off_c, 1, 73, 0
1, 6960, Note_on_c, 1, 69, 127
1, 7001, Note_off_c, 1, 42, 0
1, 7005, Note_off_c, 1, 69, 0
1, 7008, Note_on_c, 1, 71, 127
1, 7008, Note_on_c, 1, 54, 127
1, 7053, Note_off_c, 1, 71, 0
1, 7097, Note_off_c, 1, 54, 0
1, 7104, Note_on_c, 1, 66, 127
1, 7104, Note_on_c, 1, 51, 127
1, 7149, Note_off_c, 1, 66, 0
1, 7193, Note_off_c, 1, 51, 0
1, 7200, Note_on_c, 1, 63, 127
1, 7245, Note_off_c, 1, 63, 0
1, 7296, Note_on_c, 1, 44, 127
1, 7341, Note_off_c, 1, 81, 0
1, 7344, Note_on_c, 1, 83, 127
1, 7344, Note_on_c, 1, 68, 127
1, 7385, Note_off_c, 1, 44, 0
1, 7389, Note_off_c, 1, 83, 0
1, 7389, Note_off_c, 1, 68, 0
1, 7392, Note_on_c, 1, 85, 127
1, 7392, Note_on_c, 1, 69, 127
1, 7392, Note_on_c, 1, 53, 127
1, 7437, Note_off_c, 1, 85, 0
1, 7437, Note_off_c, 1, 69, 0
1, 7440, Note_on_c, 1, 86, 127
1, 7440, Note_on_c, 1, 71, 127
1, 7481, Note_off_c, 1, 53, 0
1, 7485, Note_off_c, 1, 86, 0
1, 7485, Note_off_c, 1, 71, 0
1, 7488, Note_on_c, 1, 80, 127
1, 7488, Note_on_c, 1, 65, 127
1, 7488, Note_on_c, 1, 49, 127
1, 7533, Note_off_c, 1, 65, 0
1, 7536, Note_on_c, 1, 71, 127
1, 7577, Note_off_c, 1, 49, 0
1, 7581, Note_off_c, 1, 71, 0
1, 7584, Note_on_c, 1, 61, 127
1, 7584, Note_on_c, 1, 53, 127
1, 7629, Note_off_c, 1, 61, 0
1, 7673, Note_off_c, 1, 53, 0
1, 7680, Note_on_c, 1, 69, 127
1, 7680, Note_on_c, 1, 42, 127
1, 7725, Note_off_c, 1, 80, 0
1, 7728, Note_on_c, 1, 78, 127
1, 7769, Note_off_c, 1, 69, 0
1, 7769, Note_off_c, 1, 42, 0
1, 7773, Note_off_c, 1, 78, 0
1, 7776, Note_on_c, 1, 83, 127
1, 7776, Note_on_c, 1, 66, 127
1, 7776, Note_on_c, 1, 50, 127
1, 7821, Note_off_c, 1, 83, 0
1, 7821, Note_off_c, 1, 50, 0
1, 7824, Note_on_c, 1, 81, 127
1, 7824, Note_on_c, 1, 49, 127
1, 7865, Note_off_c, 1, 66, 0
1, 7869, Note_off_c, 1, 81, 0
1, 7869, Note_off_c, 1, 49, 0
1, 7872, Note_on_c, 1, 80, 127
1, 7872, Note_on_c, 1, 78, 127
1, 7872, Note_on_c, 1, 47, 127
1, 7917, Note_off_c, 1, 80, 0
1, 7917, Note_off_c, 1, 47, 0
1, 7920, Note_on_c, 1, 49, 127
1, 7965, Note_off_c, 1, 49, 0
1, 7968, Note_on_c, 1, 77, 127
1, 7968, Note_on_c, 1, 50, 127
1, 8013, Note_off_c, 1, 77, 0
1, 8057, Note_off_c, 1, 50, 0
1, 8061, Note_off_c, 1, 78, 0
1, 8064, Note_on_c, 1, 80, 127
1, 8064, Note_on_c, 1, 77, 127
1, 8064, Note_on_c, 1, 50, 127
1, 8087, Note_off_c, 1, 50, 0
1, 8088, Note_on_c, 1, 52, 127
1, 8109, Note_off_c, 1, 80, 0
1, 8111, Note_off_c, 1, 52, 0
1, 8112, Note_on_c, 1, 78, 127
1, 8153, Note_off_c, 1, 77, 0
1, 8157, Note_off_c, 1, 78, 0
1, 8160, Note_on_c, 1, 77, 127
1, 8160, Note_on_c, 1, 80, 127
1, 8160, Note_on_c, 1, 49, 127
1, 8205, Note_off_c, 1, 77, 0
1, 8208, Note_on_c, 1, 75, 127
1, 8249, Note_off_c, 1, 80, 0
1, 8249, Note_off_c, 1, 49, 0
1, 8253, Note_off_c, 1, 75, 0
1, 8256, Note_on_c, 1, 73, 127
1, 8256, Note_on_c, 1, 77, 127
1, 8301, Note_off_c, 1, 73, 0
1, 8304, Note_on_c, 1, 71, 127
1, 8345, Note_off_c, 1, 77, 0
1, 8349, Note_off_c, 1, 71, 0
1, 8352, Note_on_c, 1, 69, 127
1, 8352, Note_on_c, 1, 73, 127
1, 8352, Note_on_c, 1, 47, 127
1, 8397, Note_off_c, 1, 69, 0
1, 8400, Note_on_c, 1, 68, 127
1, 8441, Note_off_c, 1, 73, 0
1, 8441, Note_off_c, 1, 47, 0
1, 8445, Note_off_c, 1, 68, 0
1, 8448, Note_on_c, 1, 66, 127
1, 8448, Note_on_c, 1, 45, 127
1, 8493, Note_off_c, 1, 45, 0
1, 8496, Note_on_c, 1, 68, 127
1, 8496, Note_on_c, 1, 47, 127
1, 8537, Note_off_c, 1, 66, 0
1, 8541, Note_off_c, 1, 68, 0
1, 8541, Note_off_c, 1, 47, 0
1, 8544, Note_on_c, 1, 78, 127
1, 8544, Note_on_c, 1, 69, 127
1, 8544, Note_on_c, 1, 49, 127
1, 8589, Note_off_c, 1, 69, 0
1, 8589, Note_off_c, 1, 49, 0
1, 8592, Note_on_c, 1, 71, 127
1, 8592, Note_on_c, 1, 42, 127
1, 8637, Note_off_c, 1, 71, 0
1, 8637, Note_off_c, 1, 42, 0
1, 8640, Note_on_c, 1, 73, 127
1, 8640, Note_on_c, 1, 45, 127
1, 8685, Note_off_c, 1, 73, 0
1, 8729, Note_off_c, 1, 45, 0
1, 8733, Note_off_c, 1, 78, 0
1, 8736, Note_on_c, 1, 77, 127
1, 8736, Note_on_c, 1, 71, 127
1, 8736, Note_on_c, 1, 44, 127
1, 8781, Note_off_c, 1, 71, 0
1, 8784, Note_on_c, 1, 80, 127
1, 8825, Note_off_c, 1, 77, 0
1, 8825, Note_off_c, 1, 44, 0
1, 8829, Note_off_c, 1, 80, 0
1, 8832, Note_on_c, 1, 78, 127
1, 8832, Note_on_c, 1, 81, 127
1, 8832, Note_on_c, 1, 42, 127
1, 8877, Note_off_c, 1, 81, 0
1, 8877, Note_off_c, 1, 42, 0
1, 8880, Note_on_c, 1, 69, 127
1, 8880, Note_on_c, 1, 54, 127
1, 8921, Note_off_c, 1, 78, 0
1, 8925, Note_off_c, 1, 69, 0
1, 8925, Note_off_c, 1, 54, 0
1, 8928, Note_on_c, 1, 73, 127
1, 8928, Note_on_c, 1, 71, 127
1, 8928, Note_on_c, 1, 56, 127
1, 8973, Note_off_c, 1, 71, 0
1, 8973, Note_off_c, 1, 56, 0
1, 8976, Note_on_c, 1, 57, 127
1, 9021, Note_off_c, 1, 73, 0
1, 9021, Note_off_c, 1, 57, 0
1, 9024, Note_on_c, 1, 78, 127
1, 9024, Note_on_c, 1, 66, 127
1, 9024, Note_on_c, 1, 51, 127
1, 9069, Note_off_c, 1, 66, 0
1, 9069, Note_off_c, 1, 51, 0
1, 9072, Note_on_c, 1, 71, 127
1, 9072, Note_on_c, 1, 57, 127
1, 9117, Note_off_c, 1, 71, 0
1, 9117, Note_off_c, 1, 57, 0
1, 9120, Note_on_c, 1, 63, 127
1, 9120, Note_on_c, 1, 47, 127
1, 9165, Note_off_c, 1, 63, 0
1, 9165, Note_off_c, 1, 47, 0
1, 9216, Note_on_c, 1, 55, 127
1, 9261, Note_off_c, 1, 55, 0
1, 9264, Note_on_c, 1, 67, 127
1, 9264, Note_on_c, 1, 52, 127
1, 9305, Note_off_c, 1, 78, 0
1, 9309, Note_off_c, 1, 67, 0
1, 9309, Note_off_c, 1, 52, 0
1, 9312, Note_on_c, 1, 71, 127
1, 9312, Note_on_c, 1, 69, 127
1, 9312, Note_on_c, 1, 54, 127
1, 9357, Note_off_c, 1, 69, 0
1, 9357, Note_off_c, 1, 54, 0
1, 9360, Note_on_c, 1, 55, 127
1, 9405, Note_off_c, 1, 71, 0
1, 9405, Note_off_c, 1, 55, 0
1, 9408, Note_on_c, 1, 76, 127
1, 9408, Note_on_c, 1, 64, 127
1, 9408, Note_on_c, 1, 49, 127
1, 9453, Note_off_c, 1, 64, 0
1, 9453, Note_off_c, 1, 49, 0
1, 9456, Note_on_c, 1, 69, 127
1, 9456, Note_on_c, 1, 55, 127
1, 9501, Note_off_c, 1, 69, 0
1, 9501, Note_off_c, 1, 55, 0
1, 9504, Note_on_c, 1, 61, 127
1, 9504, Note_on_c, 1, 45, 127
1, 9549, Note_off_c, 1, 61, 0
1, 9549, Note_off_c, 1, 45, 0
1, 9600, Note_on_c, 1, 54, 127
1, 9645, Note_off_c, 1, 76, 0
1, 9648, Note_on_c, 1, 78, 127
1, 9648, Note_on_c, 1, 74, 127
1, 9689, Note_off_c, 1, 54, 0
1, 9693, Note_off_c, 1, 78, 0
1, 9693, Note_off_c, 1, 74, 0
1, 9696, Note_on_c, 1, 79, 127
1, 9696, Note_on_c, 1, 76, 127
1, 9696, Note_on_c, 1, 59, 127
1, 9741, Note_off_c, 1, 79, 0
1, 9741, Note_off_c, 1, 76, 0
1, 9744, Note_on_c, 1, 81, 127
1, 9744, Note_on_c, 1, 78, 127
1, 9785, Note_off_c, 1, 59, 0
1, 9789, Note_off_c, 1, 81, 0
1, 9789, Note_off_c, 1, 78, 0
1, 9792, Note_on_c, 1, 74, 127
1, 9792, Note_on_c, 1, 71, 127
1, 9792, Note_on_c, 1, 56, 127
1, 9837, Note_off_c, 1, 71, 0
1, 9840, Note_on_c, 1, 78, 127
1, 9881, Note_off_c, 1, 56, 0
1, 9885, Note_off_c, 1, 78, 0
1, 9888, Note_on_c, 1, 68, 127
1, 9888, Note_on_c, 1, 59, 127
1, 9933, Note_off_c, 1, 68, 0
1, 9977, Note_off_c, 1, 59, 0
1, 9984, Note_on_c, 1, 76, 127
1, 9984, Note_on_c, 1, 61, 127
1, 10029, Note_off_c, 1, 74, 0
1, 10029, Note_off_c, 1, 76, 0
1, 10032, Note_on_c, 1, 73, 127
1, 10073, Note_off_c, 1, 61, 0
1, 10077, Note_off_c, 1, 73, 0
1, 10080, Note_on_c, 1, 78, 127
1, 10080, Note_on_c, 1, 74, 127
1, 10080, Note_on_c, 1, 58, 127
1, 10125, Note_off_c, 1, 78, 0
1, 10125, Note_off_c, 1, 74, 0
1, 10128, Note_on_c, 1, 79, 127
1, 10128, Note_on_c, 1, 76, 127
1, 10169, Note_off_c, 1, 58, 0
1, 10173, Note_off_c, 1, 79, 0
1, 10173, Note_off_c, 1, 76, 0
1, 10176, Note_on_c, 1, 73, 127
1, 10176, Note_on_c, 1, 70, 127
1, 10176, Note_on_c, 1, 54, 127
1, 10221, Note_off_c, 1, 70, 0
1, 10224, Note_on_c, 1, 76, 127
1, 10265, Note_off_c, 1, 73, 0
1, 10265, Note_off_c, 1, 54, 0
1, 10269, Note_off_c, 1, 76, 0
1, 10272, Note_on_c, 1, 66, 127
1, 10272, Note_on_c, 1, 58, 127
1, 10317, Note_off_c, 1, 66, 0
1, 10320, Note_on_c, 1, 76, 127
1, 10361, Note_off_c, 1, 58, 0
1, 10365, Note_off_c, 1, 76, 0
1, 10368, Note_on_c, 1, 78, 127
1, 10368, Note_on_c, 1, 74, 127
1, 10368, Note_on_c, 1, 59, 127
1, 10413, Note_off_c, 1, 59, 0
1, 10416, Note_on_c, 1, 61, 127
1, 10457, Note_off_c, 1, 78, 0
1, 10457, Note_off_c, 1, 74, 0
1, 10461, Note_off_c, 1, 61, 0
1, 10464, Note_on_c, 1, 79, 127
1, 10464, Note_on_c, 1, 73, 127
1, 10464, Note_on_c, 1, 64, 127
1, 10509, Note_off_c, 1, 79, 0
1, 10509, Note_off_c, 1, 73, 0
1, 10509, Note_off_c, 1, 64, 0
1, 10512, Note_on_c, 1, 78, 127
1, 10512, Note_on_c, 1, 74, 127
1, 10512, Note_on_c, 1, 62, 127
1, 10557, Note_off_c, 1, 78, 0
1, 10557, Note_off_c, 1, 74, 0
1, 10557, Note_off_c, 1, 62, 0
1, 10560, Note_on_c, 1, 76, 127
1, 10560, Note_on_c, 1, 61, 127
1, 10605, Note_off_c, 1, 76, 0
1, 10605, Note_off_c, 1, 61, 0
1, 10608, Note_on_c, 1, 78, 127
1, 10608, Note_on_c, 1, 74, 127
1, 10608, Note_on_c, 1, 59, 127
1, 10653, Note_off_c, 1, 78, 0
1, 10653, Note_off_c, 1, 74, 0
1, 10653, Note_off_c, 1, 59, 0
1, 10656, Note_on_c, 1, 79, 127
1, 10656, Note_on_c, 1, 73, 127
1, 10656, Note_on_c, 1, 58, 127
1, 10701, Note_off_c, 1, 73, 0
1, 10701, Note_off_c, 1, 58, 0
1, 10704, Note_on_c, 1, 71, 127
1, 10704, Note_on_c, 1, 59, 127
1, 10745, Note_off_c, 1, 79, 0
1, 10749, Note_off_c, 1, 71, 0
1, 10749, Note_off_c, 1, 59, 0
1, 10752, Note_on_c, 1, 79, 127
1, 10752, Note_on_c, 1, 70, 127
1, 10752, Note_on_c, 1, 61, 127
1, 10775, Note_off_c, 1, 79, 0
1, 10776, Note_on_c, 1, 81, 127
1, 10797, Note_off_c, 1, 61, 0
1, 10799, Note_off_c, 1, 81, 0
1, 10800, Note_on_c, 1, 59, 127
1, 10841, Note_off_c, 1, 70, 0
1, 10845, Note_off_c, 1, 59, 0
1, 10848, Note_on_c, 1, 78, 127
1, 10848, Note_on_c, 1, 73, 127
1, 10848, Note_on_c, 1, 58, 127
1, 10893, Note_off_c, 1, 58, 0
1, 10896, Note_on_c, 1, 56, 127
1, 10937, Note_off_c, 1, 78, 0
1, 10937, Note_off_c, 1, 73, 0
1, 10941, Note_off_c, 1, 56, 0
1, 10944, Note_on_c, 1, 70, 127
1, 10944, Note_on_c, 1, 54, 127
1, 10989, Note_off_c, 1, 54, 0
1, 10992, Note_on_c, 1, 52, 127
1, 11033, Note_off_c, 1, 70, 0
1, 11037, Note_off_c, 1, 52, 0
1, 11040, Note_on_c, 1, 76, 127
1, 11040, Note_on_c, 1, 66, 127
1, 11040, Note_on_c, 1, 50, 127
1, 11085, Note_off_c, 1, 50, 0
1, 11088, Note_on_c, 1, 49, 127
1, 11129, Note_off_c, 1, 76, 0
1, 11129, Note_off_c, 1, 66, 0
1, 11133, Note_off_c, 1, 49, 0
1, 11136, Note_on_c, 1, 74, 127
1, 11136, Note_on_c, 1, 71, 127
1, 11136, Note_on_c, 1, 47, 127
1, 11181, Note_off_c, 1, 74, 0
1, 11184, Note_on_c, 1, 76, 127
1, 11225, Note_off_c, 1, 71, 0
1, 11225, Note_off_c, 1, 47, 0
1, 11229, Note_off_c, 1, 76, 0
1, 11232, Note_on_c, 1, 78, 127
1, 11232, Note_on_c, 1, 83, 127
1, 11232, Note_on_c, 1, 50, 127
1, 11277, Note_off_c, 1, 78, 0
1, 11280, Note_on_c, 1, 71, 127
1, 11321, Note_off_c, 1, 50, 0
1, 11325, Note_off_c, 1, 71, 0
1, 11328, Note_on_c, 1, 74, 127
1, 11328, Note_on_c, 1, 52, 127
1, 11409, Note_off_c, 1, 83, 0
1, 11417, Note_off_c, 1, 74, 0
1, 11417, Note_off_c, 1, 52, 0
1, 11424, Note_on_c, 1, 73, 127
1, 11424, Note_on_c, 1, 82, 127
1, 11424, Note_on_c, 1, 54, 127
1, 11447, Note_off_c, 1, 73, 0
1, 11448, Note_on_c, 1, 74, 127
1, 11471, Note_off_c, 1, 74, 0
1, 11513, Note_off_c, 1, 82, 0
1, 11513, Note_off_c, 1, 54, 0
1, 11520, Note_on_c, 1, 71, 127
1, 11520, Note_on_c, 1, 81, 127
1, 11520, Note_on_c, 1, 55, 127
1, 11565, Note_off_c, 1, 71, 0
1, 11568, Note_on_c, 1, 74, 127
1, 11609, Note_off_c, 1, 55, 0
1, 11613, Note_off_c, 1, 74, 0
1, 11616, Note_on_c, 1, 73, 127
1, 11616, Note_on_c, 1, 57, 127
1, 11661, Note_off_c, 1, 73, 0
1, 11705, Note_off_c, 1, 57, 0
1, 11712, Note_on_c, 1, 76, 127
1, 11760, Note_off_c, 1, 76, 0
1, 11808, Note_on_c, 1, 78, 127
1, 11808, Note_on_c, 1, 54, 127
1, 11856, Note_off_c, 1, 78, 0
1, 11897, Note_off_c, 1, 54, 0
1, 11904, Note_on_c, 1, 79, 127
1, 11904, Note_on_c, 1, 52, 127
1, 11952, Note_off_c, 1, 79, 0
1, 11993, Note_off_c, 1, 52, 0
1, 12000, Note_on_c, 1, 50, 127
1, 12089, Note_off_c, 1, 50, 0
1, 12096, Note_on_c, 1, 49, 127
1, 12185, Note_off_c, 1, 49, 0
1, 12480, Note_on_c, 1, 47, 127
1, 12569, Note_off_c, 1, 47, 0
1, 12761, Note_off_c, 1, 81, 0
1, 12768, Note_on_c, 1, 78, 127
1, 12768, Note_on_c, 1, 71, 127
1, 12768, Note_on_c, 1, 50, 127
1, 12816, Note_off_c, 1, 78, 0
1, 12816, Note_on_c, 1, 76, 127
1, 12857, Note_off_c, 1, 71, 0
1, 12857, Note_off_c, 1, 50, 0
1, 12861, Note_off_c, 1, 76, 0
1, 12864, Note_on_c, 1, 82, 127
1, 12864, Note_on_c, 1, 76, 127
1, 12864, Note_on_c, 1, 49, 127
1, 12912, Note_off_c, 1, 82, 0
1, 12953, Note_off_c, 1, 49, 0
1, 12960, Note_on_c, 1, 83, 127
1, 12960, Note_on_c, 1, 47, 127
1, 13008, Note_off_c, 1, 83, 0
1, 13049, Note_off_c, 1, 47, 0
1, 13056, Note_on_c, 1, 85, 127
1, 13056, Note_on_c, 1, 46, 127
1, 13101, Note_off_c, 1, 76, 0
1, 13104, Note_on_c, 1, 73, 127
1, 13145, Note_off_c, 1, 46, 0
1, 13149, Note_off_c, 1, 73, 0
1, 13152, Note_on_c, 1, 74, 127
1, 13152, Note_on_c, 1, 58, 127
1, 13197, Note_off_c, 1, 74, 0
1, 13241, Note_off_c, 1, 58, 0
1, 13248, Note_on_c, 1, 70, 127
1, 13248, Note_on_c, 1, 54, 127
1, 13293, Note_off_c, 1, 70, 0
1, 13337, Note_off_c, 1, 54, 0
1, 13344, Note_on_c, 1, 66, 127
1, 13389, Note_off_c, 1, 66, 0
1, 13440, Note_on_c, 1, 59, 127
1, 13485, Note_off_c, 1, 59, 0
1, 13488, Note_on_c, 1, 61, 127
1, 13529, Note_off_c, 1, 85, 0
1, 13533, Note_off_c, 1, 61, 0
1, 13536, Note_on_c, 1, 78, 127
1, 13584, Note_on_c, 1, 57, 127
1, 13625, Note_off_c, 1, 78, 0
1, 13629, Note_off_c, 1, 57, 0
1, 13632, Note_on_c, 1, 55, 127
1, 13677, Note_off_c, 1, 55, 0
1, 13728, Note_on_c, 1, 81, 127
1, 13728, Note_on_c, 1, 75, 127
1, 13728, Note_on_c, 1, 54, 127
1, 13773, Note_off_c, 1, 54, 0
1, 13776, Note_on_c, 1, 59, 127
1, 13817, Note_off_c, 1, 81, 0
1, 13817, Note_off_c, 1, 75, 0
1, 13821, Note_off_c, 1, 59, 0
1, 13824, Note_on_c, 1, 79, 127
1, 13824, Note_on_c, 1, 76, 127
1, 13824, Note_on_c, 1, 52, 127
1, 13869, Note_off_c, 1, 76, 0
1, 13869, Note_off_c, 1, 52, 0
1, 13872, Note_on_c, 1, 73, 127
1, 13872, Note_on_c, 1, 54, 127
1, 13913, Note_off_c, 1, 79, 0
1, 13917, Note_off_c, 1, 73, 0
1, 13917, Note_off_c, 1, 54, 0
1, 13920, Note_on_c, 1, 78, 127
1, 13920, Note_on_c, 1, 73, 127
1, 13920, Note_on_c, 1, 52, 127
1, 13965, Note_off_c, 1, 73, 0
1, 13965, Note_off_c, 1, 52, 0
1, 13968, Note_on_c, 1, 71, 127
1, 13968, Note_on_c, 1, 50, 127
1, 14009, Note_off_c, 1, 78, 0
1, 14013, Note_off_c, 1, 71, 0
1, 14013, Note_off_c, 1, 50, 0
1, 14016, Note_on_c, 1, 76, 127
1, 14016, Note_on_c, 1, 70, 127
1, 14016, Note_on_c, 1, 49, 127
1, 14061, Note_off_c, 1, 70, 0
1, 14061, Note_off_c, 1, 49, 0
1, 14064, Note_on_c, 1, 79, 127
1, 14064, Note_on_c, 1, 52, 127
1, 14109, Note_off_c, 1, 79, 0
1, 14109, Note_off_c, 1, 52, 0
1, 14112, Note_on_c, 1, 71, 127
1, 14112, Note_on_c, 1, 47, 127
1, 14157, Note_off_c, 1, 71, 0
1, 14157, Note_off_c, 1, 47, 0
1, 14208, Note_on_c, 1, 73, 127
1, 14208, Note_on_c, 1, 46, 127
1, 14253, Note_off_c, 1, 76, 0
1, 14253, Note_off_c, 1, 73, 0
1, 14297, Note_off_c, 1, 46, 0
1, 14304, Note_on_c, 1, 78, 127
1, 14304, Note_on_c, 1, 74, 127
1, 14304, Note_on_c, 1, 42, 127
1, 14349, Note_off_c, 1, 78, 0
1, 14349, Note_off_c, 1, 74, 0
1, 14352, Note_on_c, 1, 76, 127
1, 14352, Note_on_c, 1, 73, 127
1, 14393, Note_off_c, 1, 42, 0
1, 14397, Note_off_c, 1, 76, 0
1, 14397, Note_off_c, 1, 73, 0
1, 14400, Note_on_c, 1, 74, 127
1, 14400, Note_on_c, 1, 71, 127
1, 14400, Note_on_c, 1, 47, 127
1, 14448, Note_off_c, 1, 74, 0
1, 14489, Note_off_c, 1, 47, 0
1, 14493, Note_off_c, 1, 71, 0
1, 14496, Note_on_c, 1, 76, 127
1, 14496, Note_on_c, 1, 83, 127
1, 14496, Note_on_c, 1, 43, 127
1, 14541, Note_off_c, 1, 83, 0
1, 14544, Note_off_c, 1, 76, 0
1, 14544, Note_on_c, 1, 71, 127
1, 14544, Note_on_c, 1, 82, 127
1, 14585, Note_off_c, 1, 43, 0
1, 14589, Note_off_c, 1, 71, 0
1, 14589, Note_off_c, 1, 82, 0
1, 14592, Note_on_c, 1, 78, 127
1, 14592, Note_on_c, 1, 83, 127
1, 14592, Note_on_c, 1, 38, 127
1, 14637, Note_off_c, 1, 78, 0
1, 14637, Note_off_c, 1, 83, 0
1, 14640, Note_on_c, 1, 71, 127
1, 14640, Note_on_c, 1, 74, 127
1, 14681, Note_off_c, 1, 38, 0
1, 14685, Note_off_c, 1, 71, 0
1, 14685, Note_off_c, 1, 74, 0
1, 14688, Note_on_c, 1, 79, 127
1, 14688, Note_on_c, 1, 73, 127
1, 14688, Note_on_c, 1, 40, 127
1, 14733, Note_off_c, 1, 73, 0
1, 14736, Note_on_c, 1, 71, 127
1, 14777, Note_off_c, 1, 79, 0
1, 14777, Note_off_c, 1, 40, 0
1, 14781, Note_off_c, 1, 71, 0
1, 14784, Note_on_c, 1, 74, 127
1, 14784, Note_on_c, 1, 70, 127
1, 14784, Note_on_c, 1, 42, 127
1, 14807, Note_off_c, 1, 74, 0
1, 14808, Note_on_c, 1, 76, 127
1, 14831, Note_off_c, 1, 76, 0
1, 14880, Note_on_c, 1, 73, 127
1, 14917, Note_off_c, 1, 70, 0
1, 14925, Note_off_c, 1, 73, 0
1, 14928, Note_on_c, 1, 71, 127
1, 14961, Note_off_c, 1, 42, 0
1, 14973, Note_off_c, 1, 71, 0
1, 14976, Note_on_c, 1, 71, 127
1, 14976, Note_on_c, 1, 47, 127
1, 15021, Note_off_c, 1, 47, 0
1, 15024, Note_on_c, 1, 59, 127
1, 15069, Note_off_c, 1, 59, 0
1, 15072, Note_on_c, 1, 57, 127
1, 15117, Note_off_c, 1, 57, 0
1, 15120, Note_on_c, 1, 55, 127
1, 15153, Note_off_c, 1, 71, 0
1, 15165, Note_off_c, 1, 55, 0
1, 15168, Note_on_c, 1, 54, 127
1, 15213, Note_off_c, 1, 54, 0
1, 15216, Note_on_c, 1, 57, 127
1, 15261, Note_off_c, 1, 57, 0
1, 15264, Note_on_c, 1, 52, 127
1, 15309, Note_off_c, 1, 52, 0
1, 15312, Note_on_c, 1, 57, 127
1, 15357, Note_off_c, 1, 57, 0
1, 15360, Note_on_c, 1, 69, 127
1, 15360, Note_on_c, 1, 66, 127
1, 15360, Note_on_c, 1, 50, 127
1, 15449, Note_off_c, 1, 69, 0
1, 15449, Note_off_c, 1, 66, 0
1, 15456, Note_on_c, 1, 71, 127
1, 15456, Note_on_c, 1, 67, 127
1, 15501, Note_off_c, 1, 71, 0
1, 15501, Note_off_c, 1, 67, 0
1, 15552, Note_on_c, 1, 64, 127
1, 15597, Note_off_c, 1, 64, 0
1, 15714, Note_off_c, 1, 50, 0
1, 15744, Note_on_c, 1, 71, 127
1, 15744, Note_on_c, 1, 67, 127
1, 15744, Note_on_c, 1, 49, 127
1, 15767, Note_off_c, 1, 71, 0
1, 15768, Note_on_c, 1, 73, 127
1, 15791, Note_off_c, 1, 73, 0
1, 15833, Note_off_c, 1, 67, 0
1, 15840, Note_on_c, 1, 69, 127
1, 15929, Note_off_c, 1, 69, 0
1, 15936, Note_on_c, 1, 66, 127
1, 15981, Note_off_c, 1, 66, 0
1, 16098, Note_off_c, 1, 49, 0
1, 16128, Note_on_c, 1, 66, 127
1, 16128, Note_on_c, 1, 69, 127
1, 16128, Note_on_c, 1, 50, 127
1, 16173, Note_off_c, 1, 66, 0
1, 16176, Note_on_c, 1, 67, 127
1, 16217, Note_off_c, 1, 69, 0
1, 16217, Note_off_c, 1, 50, 0
1, 16221, Note_off_c, 1, 67, 0
1, 16224, Note_on_c, 1, 69, 127
1, 16224, Note_on_c, 1, 74, 127
1, 16224, Note_on_c, 1, 54, 127
1, 16269, Note_off_c, 1, 69, 0
1, 16272, Note_on_c, 1, 62, 127
1, 16313, Note_off_c, 1, 74, 0
1, 16313, Note_off_c, 1, 54, 0
1, 16317, Note_off_c, 1, 62, 0
1, 16320, Note_on_c, 1, 67, 127
1, 16320, Note_on_c, 1, 73, 127
1, 16320, Note_on_c, 1, 52, 127
1, 16409, Note_off_c, 1, 67, 0
1, 16409, Note_off_c, 1, 73, 0
1, 16409, Note_off_c, 1, 52, 0
1, 16416, Note_on_c, 1, 66, 127
1, 16416, Note_on_c, 1, 74, 127
1, 16416, Note_on_c, 1, 50, 127
1, 16439, Note_off_c, 1, 66, 0
1, 16440, Note_on_c, 1, 67, 127
1, 16463, Note_off_c, 1, 67, 0
1, 16505, Note_off_c, 1, 50, 0
1, 16512, Note_on_c, 1, 64, 127
1, 16512, Note_on_c, 1, 45, 127
1, 16557, Note_off_c, 1, 64, 0
1, 16560, Note_on_c, 1, 62, 127
1, 16601, Note_off_c, 1, 74, 0
1, 16601, Note_off_c, 1, 45, 0
1, 16605, Note_off_c, 1, 62, 0
1, 16608, Note_on_c, 1, 64, 127
1, 16608, Note_on_c, 1, 73, 127
1, 16608, Note_on_c, 1, 57, 127
1, 16653, Note_off_c, 1, 64, 0
1, 16653, Note_off_c, 1, 73, 0
1, 16656, Note_on_c, 1, 66, 127
1, 16656, Note_on_c, 1, 71, 127
1, 16697, Note_off_c, 1, 57, 0
1, 16701, Note_off_c, 1, 66, 0
1, 16701, Note_off_c, 1, 71, 0
1, 16704, Note_on_c, 1, 64, 127
1, 16704, Note_on_c, 1, 73, 127
1, 16704, Note_on_c, 1, 55, 127
1, 16749, Note_off_c, 1, 64, 0
1, 16749, Note_off_c, 1, 73, 0
1, 16752, Note_on_c, 1, 66, 127
1, 16752, Note_on_c, 1, 76, 127
1, 16793, Note_off_c, 1, 55, 0
1, 16797, Note_off_c, 1, 66, 0
1, 16797, Note_off_c, 1, 76, 0
1, 16800, Note_on_c, 1, 67, 127
1, 16800, Note_on_c, 1, 64, 127
1, 16800, Note_on_c, 1, 54, 127
1, 16845, Note_off_c, 1, 67, 0
1, 16845, Note_off_c, 1, 64, 0
1, 16848, Note_on_c, 1, 69, 127
1, 16848, Note_on_c, 1, 66, 127
1, 16889, Note_off_c, 1, 54, 0
1, 16893, Note_off_c, 1, 69, 0
1, 16893, Note_off_c, 1, 66, 0
1, 16896, Note_on_c, 1, 71, 127
1, 16896, Note_on_c, 1, 67, 127
1, 16896, Note_on_c, 1, 52, 127
1, 16985, Note_off_c, 1, 71, 0
1, 16985, Note_off_c, 1, 67, 0
1, 16992, Note_on_c, 1, 72, 127
1, 16992, Note_on_c, 1, 69, 127
1, 17037, Note_off_c, 1, 72, 0
1, 17037, Note_off_c, 1, 69, 0
1, 17088, Note_on_c, 1, 66, 127
1, 17133, Note_off_c, 1, 66, 0
1, 17250, Note_off_c, 1, 52, 0
1, 17280, Note_on_c, 1, 72, 127
1, 17280, Note_on_c, 1, 69, 127
1, 17280, Note_on_c, 1, 51, 127
1, 17303, Note_off_c, 1, 72, 0
1, 17304, Note_on_c, 1, 74, 127
1, 17327, Note_off_c, 1, 74, 0
1, 17369, Note_off_c, 1, 69, 0
1, 17376, Note_on_c, 1, 71, 127
1, 17465, Note_off_c, 1, 71, 0
1, 17472, Note_on_c, 1, 67, 127
1, 17517, Note_off_c, 1, 67, 0
1, 17634, Note_off_c, 1, 51, 0
1, 17664, Note_on_c, 1, 67, 127
1, 17664, Note_on_c, 1, 71, 127
1, 17664, Note_on_c, 1, 52, 127
1, 17709, Note_off_c, 1, 67, 0
1, 17712, Note_on_c, 1, 69, 127
1, 17753, Note_off_c, 1, 71, 0
1, 17753, Note_off_c, 1, 52, 0
1, 17757, Note_off_c, 1, 69, 0
1, 17760, Note_on_c, 1, 71, 127
1, 17760, Note_on_c, 1, 76, 127
1, 17760, Note_on_c, 1, 55, 127
1, 17805, Note_off_c, 1, 71, 0
1, 17808, Note_on_c, 1, 64, 127
1, 17849, Note_off_c, 1, 76, 0
1, 17849, Note_off_c, 1, 55, 0
1, 17853, Note_off_c, 1, 64, 0
1, 17856, Note_on_c, 1, 69, 127
1, 17856, Note_on_c, 1, 75, 127
1, 17856, Note_on_c, 1, 54, 127
1, 17945, Note_off_c, 1, 69, 0
1, 17945, Note_off_c, 1, 75, 0
1, 17945, Note_off_c, 1, 54, 0
1, 17952, Note_on_c, 1, 67, 127
1, 17952, Note_on_c, 1, 76, 127
1, 17952, Note_on_c, 1, 52, 127
1, 17975, Note_off_c, 1, 67, 0
1, 17976, Note_on_c, 1, 69, 127
1, 17999, Note_off_c, 1, 69, 0
1, 18041, Note_off_c, 1, 52, 0
1, 18048, Note_on_c, 1, 66, 127
1, 18048, Note_on_c, 1, 47, 127
1, 18093, Note_off_c, 1, 66, 0
1, 18096, Note_on_c, 1, 64, 127
1, 18137, Note_off_c, 1, 76, 0
1, 18137, Note_off_c, 1, 47, 0
1, 18141, Note_off_c, 1, 64, 0
1, 18144, Note_on_c, 1, 66, 127
1, 18144, Note_on_c, 1, 74, 127
1, 18144, Note_on_c, 1, 59, 127
1, 18189, Note_off_c, 1, 66, 0
1, 18189, Note_off_c, 1, 74, 0
1, 18192, Note_on_c, 1, 67, 127
1, 18192, Note_on_c, 1, 73, 127
1, 18233, Note_off_c, 1, 59, 0
1, 18237, Note_off_c, 1, 67, 0
1, 18237, Note_off_c, 1, 73, 0
1, 18240, Note_on_c, 1, 66, 127
1, 18240, Note_on_c, 1, 74, 127
1, 18240, Note_on_c, 1, 57, 127
1, 18285, Note_off_c, 1, 66, 0
1, 18285, Note_off_c, 1, 74, 0
1, 18288, Note_on_c, 1, 67, 127
1, 18288, Note_on_c, 1, 78, 127
1, 18329, Note_off_c, 1, 57, 0
1, 18333, Note_off_c, 1, 67, 0
1, 18333, Note_off_c, 1, 78, 0
1, 18336, Note_on_c, 1, 69, 127
1, 18336, Note_on_c, 1, 66, 127
1, 18336, Note_on_c, 1, 55, 127
1, 18381, Note_off_c, 1, 69, 0
1, 18381, Note_off_c, 1, 66, 0
1, 18384, Note_on_c, 1, 71, 127
1, 18384, Note_on_c, 1, 67, 127
1, 18425, Note_off_c, 1, 55, 0
1, 18429, Note_off_c, 1, 71, 0
1, 18429, Note_off_c, 1, 67, 0
1, 18432, Note_on_c, 1, 72, 127
1, 18432, Note_on_c, 1, 69, 127
1, 18432, Note_on_c, 1, 54, 127
1, 18521, Note_off_c, 1, 72, 0
1, 18521, Note_off_c, 1, 69, 0
1, 18521, Note_off_c, 1, 54, 0
1, 18528, Note_on_c, 1, 74, 127
1, 18528, Note_on_c, 1, 66, 127
1, 18528, Note_on_c, 1, 52, 127
1, 18573, Note_off_c, 1, 74, 0
1, 18573, Note_off_c, 1, 66, 0
1, 18576, Note_on_c, 1, 72, 127
1, 18576, Note_on_c, 1, 62, 127
1, 18617, Note_off_c, 1, 52, 0
1, 18621, Note_off_c, 1, 72, 0
1, 18621, Note_off_c, 1, 62, 0
1, 18624, Note_on_c, 1, 71, 127
1, 18624, Note_on_c, 1, 74, 127
1, 18624, Note_on_c, 1, 54, 127
1, 18669, Note_off_c, 1, 71, 0
1, 18672, Note_on_c, 1, 72, 127
1, 18713, Note_off_c, 1, 54, 0
1, 18717, Note_off_c, 1, 72, 0
1, 18720, Note_on_c, 1, 50, 127
1, 18809, Note_off_c, 1, 50, 0
1, 18816, Note_on_c, 1, 55, 127
1, 18905, Note_off_c, 1, 74, 0
1, 18905, Note_off_c, 1, 55, 0
1, 18912, Note_on_c, 1, 76, 127
1, 18912, Note_on_c, 1, 71, 127
1, 18912, Note_on_c, 1, 54, 127
1, 18957, Note_off_c, 1, 76, 0
1, 18957, Note_off_c, 1, 71, 0
1, 18960, Note_on_c, 1, 74, 127
1, 18960, Note_on_c, 1, 67, 127
1, 19001, Note_off_c, 1, 54, 0
1, 19005, Note_off_c, 1, 74, 0
1, 19005, Note_off_c, 1, 67, 0
1, 19008, Note_on_c, 1, 73, 127
1, 19008, Note_on_c, 1, 79, 127
1, 19008, Note_on_c, 1, 52, 127
1, 19053, Note_off_c, 1, 73, 0
1, 19056, Note_on_c, 1, 74, 127
1, 19097, Note_off_c, 1, 52, 0
1, 19101, Note_off_c, 1, 74, 0
1, 19104, Note_on_c, 1, 76, 127
1, 19104, Note_on_c, 1, 50, 127
1, 19193, Note_off_c, 1, 76, 0
1, 19193, Note_off_c, 1, 50, 0
1, 19200, Note_on_c, 1, 69, 127
1, 19200, Note_on_c, 1, 49, 127
1, 19245, Note_off_c, 1, 79, 0
1, 19289, Note_off_c, 1, 49, 0
1, 19296, Note_on_c, 1, 78, 127
1, 19333, Note_off_c, 1, 69, 0
1, 19341, Note_off_c, 1, 78, 0
1, 19344, Note_on_c, 1, 71, 127
1, 19389, Note_off_c, 1, 71, 0
1, 19392, Note_on_c, 1, 66, 127
1, 19392, Note_on_c, 1, 73, 127
1, 19392, Note_on_c, 1, 57, 127
1, 19415, Note_off_c, 1, 73, 0
1, 19416, Note_on_c, 1, 74, 127
1, 19439, Note_off_c, 1, 74, 0
1, 19481, Note_off_c, 1, 66, 0
1, 19481, Note_off_c, 1, 57, 0
1, 19488, Note_on_c, 1, 64, 127
1, 19488, Note_on_c, 1, 73, 127
1, 19488, Note_on_c, 1, 45, 127
1, 19511, Note_off_c, 1, 73, 0
1, 19512, Note_on_c, 1, 74, 127
1, 19533, Note_off_c, 1, 64, 0
1, 19535, Note_off_c, 1, 74, 0
1, 19536, Note_on_c, 1, 62, 127
1, 19577, Note_off_c, 1, 45, 0
1, 19581, Note_off_c, 1, 62, 0
1, 19584, Note_on_c, 1, 62, 127
1, 19584, Note_on_c, 1, 74, 127
1, 19629, Note_off_c, 1, 74, 0
1, 19632, Note_on_c, 1, 81, 127
1, 19673, Note_off_c, 1, 62, 0
1, 19677, Note_off_c, 1, 81, 0
1, 19680, Note_on_c, 1, 69, 127
1, 19680, Note_on_c, 1, 86, 127
1, 19680, Note_on_c, 1, 66, 127
1, 19725, Note_off_c, 1, 86, 0
1, 19725, Note_off_c, 1, 66, 0
1, 19728, Note_on_c, 1, 85, 127
1, 19728, Note_on_c, 1, 64, 127
1, 19769, Note_off_c, 1, 69, 0
1, 19773, Note_off_c, 1, 85, 0
1, 19773, Note_off_c, 1, 64, 0
1, 19776, Note_on_c, 1, 74, 127
1, 19776, Note_on_c, 1, 83, 127
1, 19776, Note_on_c, 1, 62, 127
1, 19821, Note_off_c, 1, 83, 0
1, 19821, Note_off_c, 1, 62, 0
1, 19824, Note_on_c, 1, 81, 127
1, 19824, Note_on_c, 1, 64, 127
1, 19865, Note_off_c, 1, 74, 0
1, 19869, Note_off_c, 1, 81, 0
1, 19869, Note_off_c, 1, 64, 0
1, 19872, Note_on_c, 1, 71, 127
1, 19872, Note_on_c, 1, 80, 127
1, 19872, Note_on_c, 1, 66, 127
1, 19917, Note_off_c, 1, 80, 0
1, 19920, Note_on_c, 1, 81, 127
1, 19961, Note_off_c, 1, 71, 0
1, 19961, Note_off_c, 1, 66, 0
1, 19965, Note_off_c, 1, 81, 0
1, 19968, Note_on_c, 1, 68, 127
1, 19968, Note_on_c, 1, 83, 127
1, 19968, Note_on_c, 1, 66, 127
1, 19991, Note_off_c, 1, 66, 0
1, 19992, Note_on_c, 1, 67, 127
1, 20013, Note_off_c, 1, 83, 0
1, 20015, Note_off_c, 1, 67, 0
1, 20016, Note_on_c, 1, 81, 127
1, 20057, Note_off_c, 1, 68, 0
1, 20061, Note_off_c, 1, 81, 0
1, 20064, Note_on_c, 1, 71, 127
1, 20064, Note_on_c, 1, 80, 127
1, 20064, Note_on_c, 1, 64, 127
1, 20109, Note_off_c, 1, 80, 0
1, 20112, Note_on_c, 1, 78, 127
1, 20153, Note_off_c, 1, 71, 0
1, 20153, Note_off_c, 1, 64, 0
1, 20157, Note_off_c, 1, 78, 0
1, 20160, Note_on_c, 1, 68, 127
1, 20160, Note_on_c, 1, 76, 127
1, 20205, Note_off_c, 1, 76, 0
1, 20208, Note_on_c, 1, 74, 127
1, 20249, Note_off_c, 1, 68, 0
1, 20253, Note_off_c, 1, 74, 0
1, 20256, Note_on_c, 1, 64, 127
1, 20256, Note_on_c, 1, 73, 127
1, 20256, Note_on_c, 1, 62, 127
1, 20301, Note_off_c, 1, 73, 0
1, 20304, Note_on_c, 1, 71, 127
1, 20345, Note_off_c, 1, 62, 0
1, 20349, Note_off_c, 1, 71, 0
1, 20352, Note_on_c, 1, 69, 127
1, 20352, Note_on_c, 1, 61, 127
1, 20397, Note_off_c, 1, 64, 0
1, 20397, Note_off_c, 1, 61, 0
1, 20441, Note_off_c, 1, 69, 0
1, 20448, Note_on_c, 1, 73, 127
1, 20448, Note_on_c, 1, 81, 127
1, 20448, Note_on_c, 1, 64, 127
1, 20493, Note_off_c, 1, 73, 0
1, 20493, Note_off_c, 1, 64, 0
1, 20496, Note_on_c, 1, 74, 127
1, 20496, Note_on_c, 1, 57, 127
1, 20541, Note_off_c, 1, 74, 0
1, 20541, Note_off_c, 1, 57, 0
1, 20544, Note_on_c, 1, 66, 127
1, 20544, Note_on_c, 1, 61, 127
1, 20589, Note_off_c, 1, 66, 0
1, 20625, Note_off_c, 1, 81, 0
1, 20633, Note_off_c, 1, 61, 0
1, 20640, Note_on_c, 1, 68, 127
1, 20640, Note_on_c, 1, 80, 127
1, 20640, Note_on_c, 1, 59, 127
1, 20663, Note_off_c, 1, 59, 0
1, 20664, Note_on_c, 1, 61, 127
1, 20685, Note_off_c, 1, 68, 0
1, 20687, Note_off_c, 1, 61, 0
1, 20688, Note_on_c, 1, 73, 127
1, 20729, Note_off_c, 1, 80, 0
1, 20733, Note_off_c, 1, 73, 0
1, 20736, Note_on_c, 1, 73, 127
1, 20736, Note_on_c, 1, 81, 127
1, 20736, Note_on_c, 1, 57, 127
1, 20781, Note_off_c, 1, 73, 0
1, 20784, Note_on_c, 1, 76, 127
1, 20825, Note_off_c, 1, 81, 0
1, 20825, Note_off_c, 1, 57, 0
1, 20829, Note_off_c, 1, 76, 0
1, 20832, Note_on_c, 1, 81, 127
1, 20832, Note_on_c, 1, 84, 127
1, 20832, Note_on_c, 1, 54, 127
1, 20877, Note_off_c, 1, 81, 0
1, 20877, Note_off_c, 1, 84, 0
1, 20877, Note_off_c, 1, 54, 0
1, 20880, Note_on_c, 1, 79, 127
1, 20880, Note_on_c, 1, 83, 127
1, 20880, Note_on_c, 1, 55, 127
1, 20925, Note_off_c, 1, 79, 0
1, 20925, Note_off_c, 1, 83, 0
1, 20925, Note_off_c, 1, 55, 0
1, 20928, Note_on_c, 1, 78, 127
1, 20928, Note_on_c, 1, 81, 127
1, 20928, Note_on_c, 1, 57, 127
1, 20973, Note_off_c, 1, 78, 0
1, 20973, Note_off_c, 1, 81, 0
1, 20976, Note_on_c, 1, 76, 127
1, 20976, Note_on_c, 1, 83, 127
1, 21017, Note_off_c, 1, 57, 0
1, 21021, Note_off_c, 1, 76, 0
1, 21021, Note_off_c, 1, 83, 0
1, 21024, Note_on_c, 1, 75, 127
1, 21024, Note_on_c, 1, 84, 127
1, 21024, Note_on_c, 1, 54, 127
1, 21069, Note_off_c, 1, 75, 0
1, 21072, Note_on_c, 1, 76, 127
1, 21113, Note_off_c, 1, 84, 0
1, 21113, Note_off_c, 1, 54, 0
1, 21117, Note_off_c, 1, 76, 0
1, 21120, Note_on_c, 1, 78, 127
1, 21120, Note_on_c, 1, 84, 127
1, 21120, Note_on_c, 1, 51, 127
1, 21143, Note_off_c, 1, 84, 0
1, 21144, Note_on_c, 1, 86, 127
1, 21165, Note_off_c, 1, 78, 0
1, 21167, Note_off_c, 1, 86, 0
1, 21168, Note_on_c, 1, 76, 127
1, 21209, Note_off_c, 1, 51, 0
1, 21213, Note_off_c, 1, 76, 0
1, 21216, Note_on_c, 1, 75, 127
1, 21216, Note_on_c, 1, 83, 127
1, 21216, Note_on_c, 1, 54, 127
1, 21261, Note_off_c, 1, 75, 0
1, 21264, Note_on_c, 1, 73, 127
1, 21305, Note_off_c, 1, 83, 0
1, 21305, Note_off_c, 1, 54, 0
1, 21309, Note_off_c, 1, 73, 0
1, 21312, Note_on_c, 1, 71, 127
1, 21312, Note_on_c, 1, 51, 127
1, 21357, Note_off_c, 1, 71, 0
1, 21360, Note_on_c, 1, 69, 127
1, 21401, Note_off_c, 1, 51, 0
1, 21405, Note_off_c, 1, 69, 0
1, 21408, Note_on_c, 1, 67, 127
1, 21408, Note_on_c, 1, 81, 127
1, 21408, Note_on_c, 1, 47, 127
1, 21453, Note_off_c, 1, 67, 0
1, 21456, Note_on_c, 1, 66, 127
1, 21497, Note_off_c, 1, 81, 0
1, 21497, Note_off_c, 1, 47, 0
1, 21501, Note_off_c, 1, 66, 0
1, 21504, Note_on_c, 1, 64, 127
1, 21504, Note_on_c, 1, 79, 127
1, 21504, Note_on_c, 1, 52, 127
1, 21549, Note_off_c, 1, 79, 0
1, 21552, Note_on_c, 1, 81, 127
1, 21593, Note_off_c, 1, 64, 0
1, 21593, Note_off_c, 1, 52, 0
1, 21597, Note_off_c, 1, 81, 0
1, 21600, Note_on_c, 1, 76, 127
1, 21600, Note_on_c, 1, 83, 127
1, 21600, Note_on_c, 1, 43, 127
1, 21645, Note_off_c, 1, 83, 0
1, 21689, Note_off_c, 1, 43, 0
1, 21696, Note_on_c, 1, 79, 127
1, 21696, Note_on_c, 1, 45, 127
1, 21777, Note_off_c, 1, 76, 0
1, 21785, Note_off_c, 1, 79, 0
1, 21785, Note_off_c, 1, 45, 0
1, 21792, Note_on_c, 1, 75, 127
1, 21792, Note_on_c, 1, 78, 127
1, 21792, Note_on_c, 1, 47, 127
1, 21815, Note_off_c, 1, 78, 0
1, 21816, Note_on_c, 1, 79, 127
1, 21839, Note_off_c, 1, 79, 0
1, 21881, Note_off_c, 1, 75, 0
1, 21881, Note_off_c, 1, 47, 0
1, 21888, Note_on_c, 1, 76, 127
1, 21888, Note_on_c, 1, 52, 127
1, 21933, Note_off_c, 1, 52, 0
1, 21936, Note_on_c, 1, 74, 127
1, 21936, Note_on_c, 1, 59, 127
1, 21977, Note_off_c, 1, 76, 0
1, 21981, Note_off_c, 1, 74, 0
1, 21981, Note_off_c, 1, 59, 0
1, 21984, Note_on_c, 1, 79, 127
1, 21984, Note_on_c, 1, 73, 127
1, 21984, Note_on_c, 1, 64, 127
1, 22029, Note_off_c, 1, 79, 0
1, 22029, Note_off_c, 1, 73, 0
1, 22029, Note_off_c, 1, 64, 0
1, 22032, Note_on_c, 1, 78, 127
1, 22032, Note_on_c, 1, 74, 127
1, 22032, Note_on_c, 1, 62, 127
1, 22077, Note_off_c, 1, 78, 0
1, 22077, Note_off_c, 1, 74, 0
1, 22077, Note_off_c, 1, 62, 0
1, 22080, Note_on_c, 1, 76, 127
1, 22080, Note_on_c, 1, 61, 127
1, 22125, Note_off_c, 1, 76, 0
1, 22125, Note_off_c, 1, 61, 0
1, 22128, Note_on_c, 1, 78, 127
1, 22128, Note_on_c, 1, 74, 127
1, 22128, Note_on_c, 1, 59, 127
1, 22173, Note_off_c, 1, 78, 0
1, 22173, Note_off_c, 1, 74, 0
1, 22173, Note_off_c, 1, 59, 0
1, 22176, Note_on_c, 1, 79, 127
1, 22176, Note_on_c, 1, 73, 127
1, 22176, Note_on_c, 1, 58, 127
1, 22221, Note_off_c, 1, 73, 0
1, 22221, Note_off_c, 1, 58, 0
1, 22224, Note_on_c, 1, 71, 127
1, 22224, Note_on_c, 1, 59, 127
1, 22265, Note_off_c, 1, 79, 0
1, 22269, Note_off_c, 1, 71, 0
1, 22269, Note_off_c, 1, 59, 0
1, 22272, Note_on_c, 1, 79, 127
1, 22272, Note_on_c, 1, 70, 127
1, 22272, Note_on_c, 1, 61, 127
1, 22295, Note_off_c, 1, 79, 0
1, 22296, Note_on_c, 1, 81, 127
1, 22317, Note_off_c, 1, 61, 0
1, 22319, Note_off_c, 1, 81, 0
1, 22320, Note_on_c, 1, 59, 127
1, 22361, Note_off_c, 1, 70, 0
1, 22365, Note_off_c, 1, 59, 0
1, 22368, Note_on_c, 1, 78, 127
1, 22368, Note_on_c, 1, 73, 127
1, 22368, Note_on_c, 1, 58, 127
1, 22413, Note_off_c, 1, 58, 0
1, 22416, Note_on_c, 1, 56, 127
1, 22457, Note_off_c, 1, 78, 0
1, 22457, Note_off_c, 1, 73, 0
1, 22461, Note_off_c, 1, 56, 0
1, 22464, Note_on_c, 1, 70, 127
1, 22464, Note_on_c, 1, 54, 127
1, 22509, Note_off_c, 1, 54, 0
1, 22512, Note_on_c, 1, 52, 127
1, 22553, Note_off_c, 1, 70, 0
1, 22557, Note_off_c, 1, 52, 0
1, 22560, Note_on_c, 1, 76, 127
1, 22560, Note_on_c, 1, 66, 127
1, 22560, Note_on_c, 1, 50, 127
1, 22605, Note_off_c, 1, 50, 0
1, 22608, Note_on_c, 1, 49, 127
1, 22649, Note_off_c, 1, 76, 0
1, 22649, Note_off_c, 1, 66, 0
1, 22653, Note_off_c, 1, 49, 0
1, 22656, Note_on_c, 1, 74, 127
1, 22656, Note_on_c, 1, 71, 127
1, 22656, Note_on_c, 1, 47, 127
1, 22701, Note_off_c, 1, 74, 0
1, 22704, Note_on_c, 1, 76, 127
1, 22745, Note_off_c, 1, 71, 0
1, 22745, Note_off_c, 1, 47, 0
1, 22749, Note_off_c, 1, 76, 0
1, 22752, Note_on_c, 1, 78, 127
1, 22752, Note_on_c, 1, 83, 127
1, 22752, Note_on_c, 1, 50, 127
1, 22797, Note_off_c, 1, 78, 0
1, 22800, Note_on_c, 1, 71, 127
1, 22841, Note_off_c, 1, 50, 0
1, 22845, Note_off_c, 1, 71, 0
1, 22848, Note_on_c, 1, 74, 127
1, 22848, Note_on_c, 1, 52, 127
1, 22929, Note_off_c, 1, 83, 0
1, 22937, Note_off_c, 1, 74, 0
1, 22937, Note_off_c, 1, 52, 0
1, 22944, Note_on_c, 1, 73, 127
1, 22944, Note_on_c, 1, 82, 127
1, 22944, Note_on_c, 1, 54, 127
1, 22967, Note_off_c, 1, 73, 0
1, 22968, Note_on_c, 1, 74, 127
1, 22991, Note_off_c, 1, 74, 0
1, 23033, Note_off_c, 1, 82, 0
1, 23033, Note_off_c, 1, 54, 0
1, 23040, Note_on_c, 1, 71, 127
1, 23040, Note_on_c, 1, 83, 127
1, 23040, Note_on_c, 1, 59, 127
1, 23085, Note_off_c, 1, 71, 0
1, 23085, Note_off_c, 1, 83, 0
1, 23088, Note_on_c, 1, 78, 127
1, 23088, Note_on_c, 1, 73, 127
1, 23129, Note_off_c, 1, 59, 0
1, 23133, Note_off_c, 1, 78, 0
1, 23133, Note_off_c, 1, 73, 0
1, 23136, Note_on_c, 1, 80, 127
1, 23136, Note_on_c, 1, 71, 127
1, 23136, Note_on_c, 1, 62, 127
1, 23181, Note_off_c, 1, 80, 0
1, 23181, Note_off_c, 1, 71, 0
1, 23181, Note_off_c, 1, 62, 0
1, 23184, Note_on_c, 1, 81, 127
1, 23184, Note_on_c, 1, 73, 127
1, 23184, Note_on_c, 1, 61, 127
1, 23229, Note_off_c, 1, 81, 0
1, 23229, Note_off_c, 1, 73, 0
1, 23229, Note_off_c, 1, 61, 0
1, 23232, Note_on_c, 1, 83, 127
1, 23232, Note_on_c, 1, 74, 127
1, 23232, Note_on_c, 1, 59, 127
1, 23277, Note_off_c, 1, 83, 0
1, 23277, Note_off_c, 1, 74, 0
1, 23277, Note_off_c, 1, 59, 0
1, 23280, Note_on_c, 1, 81, 127
1, 23280, Note_on_c, 1, 73, 127
1, 23280, Note_on_c, 1, 61, 127
1, 23325, Note_off_c, 1, 81, 0
1, 23325, Note_off_c, 1, 73, 0
1, 23325, Note_off_c, 1, 61, 0
1, 23328, Note_on_c, 1, 80, 127
1, 23328, Note_on_c, 1, 71, 127
1, 23328, Note_on_c, 1, 62, 127
1, 23373, Note_off_c, 1, 80, 0
1, 23373, Note_off_c, 1, 71, 0
1, 23376, Note_on_c, 1, 78, 127
1, 23376, Note_on_c, 1, 69, 127
1, 23417, Note_off_c, 1, 62, 0
1, 23421, Note_off_c, 1, 78, 0
1, 23421, Note_off_c, 1, 69, 0
1, 23424, Note_on_c, 1, 76, 127
1, 23424, Note_on_c, 1, 68, 127
1, 23424, Note_on_c, 1, 62, 127
1, 23469, Note_off_c, 1, 76, 0
1, 23469, Note_off_c, 1, 68, 0
1, 23472, Note_on_c, 1, 74, 127
1, 23472, Note_on_c, 1, 66, 127
1, 23513, Note_off_c, 1, 62, 0
1, 23517, Note_off_c, 1, 74, 0
1, 23517, Note_off_c, 1, 66, 0
1, 23520, Note_on_c, 1, 76, 127
1, 23520, Note_on_c, 1, 68, 127
1, 23520, Note_on_c, 1, 61, 127
1, 23565, Note_off_c, 1, 76, 0
1, 23565, Note_off_c, 1, 68, 0
1, 23568, Note_on_c, 1, 78, 127
1, 23568, Note_on_c, 1, 69, 127
1, 23609, Note_off_c, 1, 61, 0
1, 23613, Note_off_c, 1, 78, 0
1, 23613, Note_off_c, 1, 69, 0
1, 23616, Note_on_c, 1, 80, 127
1, 23616, Note_on_c, 1, 71, 127
1, 23616, Note_on_c, 1, 59, 127
1, 23661, Note_off_c, 1, 80, 0
1, 23661, Note_off_c, 1, 71, 0
1, 23664, Note_on_c, 1, 81, 127
1, 23664, Note_on_c, 1, 73, 127
1, 23705, Note_off_c, 1, 59, 0
1, 23709, Note_off_c, 1, 81, 0
1, 23709, Note_off_c, 1, 73, 0
1, 23712, Note_on_c, 1, 78, 127
1, 23712, Note_on_c, 1, 69, 127
1, 23712, Note_on_c, 1, 62, 127
1, 23757, Note_off_c, 1, 78, 0
1, 23757, Note_off_c, 1, 69, 0
1, 23760, Note_on_c, 1, 80, 127
1, 23760, Note_on_c, 1, 71, 127
1, 23801, Note_off_c, 1, 62, 0
1, 23805, Note_off_c, 1, 80, 0
1, 23805, Note_off_c, 1, 71, 0
1, 23808, Note_on_c, 1, 81, 127
1, 23808, Note_on_c, 1, 73, 127
1, 23808, Note_on_c, 1, 61, 127
1, 23853, Note_off_c, 1, 81, 0
1, 23853, Note_off_c, 1, 73, 0
1, 23856, Note_on_c, 1, 80, 127
1, 23856, Note_on_c, 1, 71, 127
1, 23897, Note_off_c, 1, 61, 0
1, 23901, Note_off_c, 1, 80, 0
1, 23901, Note_off_c, 1, 71, 0
1, 23904, Note_on_c, 1, 81, 127
1, 23904, Note_on_c, 1, 73, 127
1, 23904, Note_on_c, 1, 64, 127
1, 23949, Note_off_c, 1, 81, 0
1, 23949, Note_off_c, 1, 73, 0
1, 23949, Note_off_c, 1, 64, 0
1, 23952, Note_on_c, 1, 83, 127
1, 23952, Note_on_c, 1, 74, 127
1, 23952, Note_on_c, 1, 62, 127
1, 23997, Note_off_c, 1, 83, 0
1, 23997, Note_off_c, 1, 74, 0
1, 23997, Note_off_c, 1, 62, 0
1, 24000, Note_on_c, 1, 85, 127
1, 24000, Note_on_c, 1, 76, 127
1, 24000, Note_on_c, 1, 61, 127
1, 24045, Note_off_c, 1, 85, 0
1, 24045, Note_off_c, 1, 76, 0
1, 24045, Note_off_c, 1, 61, 0
1, 24048, Note_on_c, 1, 83, 127
1, 24048, Note_on_c, 1, 74, 127
1, 24048, Note_on_c, 1, 62, 127
1, 24093, Note_off_c, 1, 83, 0
1, 24093, Note_off_c, 1, 74, 0
1, 24093, Note_off_c, 1, 62, 0
1, 24096, Note_on_c, 1, 82, 127
1, 24096, Note_on_c, 1, 73, 127
1, 24096, Note_on_c, 1, 64, 127
1, 24141, Note_off_c, 1, 82, 0
1, 24141, Note_off_c, 1, 73, 0
1, 24144, Note_on_c, 1, 80, 127
1, 24144, Note_on_c, 1, 71, 127
1, 24185, Note_off_c, 1, 64, 0
1, 24189, Note_off_c, 1, 80, 0
1, 24189, Note_off_c, 1, 71, 0
1, 24192, Note_on_c, 1, 78, 127
1, 24192, Note_on_c, 1, 70, 127
1, 24192, Note_on_c, 1, 64, 127
1, 24237, Note_off_c, 1, 78, 0
1, 24237, Note_off_c, 1, 70, 0
1, 24240, Note_on_c, 1, 76, 127
1, 24240, Note_on_c, 1, 68, 127
1, 24281, Note_off_c, 1, 64, 0
1, 24285, Note_off_c, 1, 76, 0
1, 24285, Note_off_c, 1, 68, 0
1, 24288, Note_on_c, 1, 78, 127
1, 24288, Note_on_c, 1, 70, 127
1, 24288, Note_on_c, 1, 62, 127
1, 24333, Note_off_c, 1, 78, 0
1, 24333, Note_off_c, 1, 70, 0
1, 24336, Note_on_c, 1, 80, 127
1, 24336, Note_on_c, 1, 71, 127
1, 24377, Note_off_c, 1, 62, 0
1, 24381, Note_off_c, 1, 80, 0
1, 24381, Note_off_c, 1, 71, 0
1, 24384, Note_on_c, 1, 82, 127
1, 24384, Note_on_c, 1, 73, 127
1, 24384, Note_on_c, 1, 61, 127
1, 24429, Note_off_c, 1, 82, 0
1, 24429, Note_off_c, 1, 73, 0
1, 24432, Note_on_c, 1, 83, 127
1, 24432, Note_on_c, 1, 74, 127
1, 24473, Note_off_c, 1, 61, 0
1, 24477, Note_off_c, 1, 83, 0
1, 24477, Note_off_c, 1, 74, 0
1, 24480, Note_on_c, 1, 80, 127
1, 24480, Note_on_c, 1, 71, 127
1, 24480, Note_on_c, 1, 64, 127
1, 24525, Note_off_c, 1, 80, 0
1, 24525, Note_off_c, 1, 71, 0
1, 24528, Note_on_c, 1, 82, 127
1, 24528, Note_on_c, 1, 73, 127
1, 24569, Note_off_c, 1, 64, 0
1, 24573, Note_off_c, 1, 82, 0
1, 24573, Note_off_c, 1, 73, 0
1, 24576, Note_on_c, 1, 83, 127
1, 24576, Note_on_c, 1, 74, 127
1, 24576, Note_on_c, 1, 62, 127
1, 24621, Note_off_c, 1, 83, 0
1, 24621, Note_off_c, 1, 74, 0
1, 24624, Note_on_c, 1, 82, 127
1, 24624, Note_on_c, 1, 73, 127
1, 24665, Note_off_c, 1, 62, 0
1, 24669, Note_off_c, 1, 82, 0
1, 24669, Note_off_c, 1, 73, 0
1, 24672, Note_on_c, 1, 83, 127
1, 24672, Note_on_c, 1, 74, 127
1, 24672, Note_on_c, 1, 66, 127
1, 24717, Note_off_c, 1, 83, 0
1, 24717, Note_off_c, 1, 74, 0
1, 24717, Note_off_c, 1, 66, 0
1, 24720, Note_on_c, 1, 85, 127
1, 24720, Note_on_c, 1, 76, 127
1, 24720, Note_on_c, 1, 64, 127
1, 24765, Note_off_c, 1, 85, 0
1, 24765, Note_off_c, 1, 76, 0
1, 24765, Note_off_c, 1, 64, 0
1, 24768, Note_on_c, 1, 86, 127
1, 24768, Note_on_c, 1, 78, 127
1, 24768, Note_on_c, 1, 62, 127
1, 24813, Note_off_c, 1, 86, 0
1, 24813, Note_off_c, 1, 78, 0
1, 24813, Note_off_c, 1, 62, 0
1, 24816, Note_on_c, 1, 85, 127
1, 24816, Note_on_c, 1, 76, 127
1, 24816, Note_on_c, 1, 64, 127
1, 24861, Note_off_c, 1, 85, 0
1, 24861, Note_off_c, 1, 76, 0
1, 24861, Note_off_c, 1, 64, 0
1, 24864, Note_on_c, 1, 83, 127
1, 24864, Note_on_c, 1, 74, 127
1, 24864, Note_on_c, 1, 66, 127
1, 24909, Note_off_c, 1, 83, 0
1, 24909, Note_off_c, 1, 74, 0
1, 24912, Note_on_c, 1, 81, 127
1, 24912, Note_on_c, 1, 73, 127
1, 24953, Note_off_c, 1, 66, 0
1, 24957, Note_off_c, 1, 81, 0
1, 24957, Note_off_c, 1, 73, 0
1, 24960, Note_on_c, 1, 80, 127
1, 24960, Note_on_c, 1, 71, 127
1, 24960, Note_on_c, 1, 66, 127
1, 25005, Note_off_c, 1, 80, 0
1, 25005, Note_off_c, 1, 71, 0
1, 25008, Note_on_c, 1, 78, 127
1, 25008, Note_on_c, 1, 69, 127
1, 25049, Note_off_c, 1, 66, 0
1, 25053, Note_off_c, 1, 78, 0
1, 25053, Note_off_c, 1, 69, 0
1, 25056, Note_on_c, 1, 80, 127
1, 25056, Note_on_c, 1, 71, 127
1, 25056, Note_on_c, 1, 64, 127
1, 25101, Note_off_c, 1, 80, 0
1, 25101, Note_off_c, 1, 71, 0
1, 25104, Note_on_c, 1, 81, 127
1, 25104, Note_on_c, 1, 73, 127
1, 25145, Note_off_c, 1, 64, 0
1, 25149, Note_off_c, 1, 81, 0
1, 25149, Note_off_c, 1, 73, 0
1, 25152, Note_on_c, 1, 83, 127
1, 25152, Note_on_c, 1, 74, 127
1, 25152, Note_on_c, 1, 62, 127
1, 25197, Note_off_c, 1, 74, 0
1, 25200, Note_on_c, 1, 73, 127
1, 25241, Note_off_c, 1, 83, 0
1, 25241, Note_off_c, 1, 62, 0
1, 25245, Note_off_c, 1, 73, 0
1, 25248, Note_on_c, 1, 74, 127
1, 25248, Note_on_c, 1, 71, 127
1, 25248, Note_on_c, 1, 66, 127
1, 25293, Note_off_c, 1, 71, 0
1, 25296, Note_on_c, 1, 69, 127
1, 25337, Note_off_c, 1, 66, 0
1, 25341, Note_off_c, 1, 69, 0
1, 25344, Note_on_c, 1, 68, 127
1, 25344, Note_on_c, 1, 64, 127
1, 25389, Note_off_c, 1, 74, 0
1, 25389, Note_off_c, 1, 68, 0
1, 25392, Note_on_c, 1, 73, 127
1, 25433, Note_off_c, 1, 64, 0
1, 25437, Note_off_c, 1, 73, 0
1, 25440, Note_on_c, 1, 71, 127
1, 25440, Note_on_c, 1, 68, 127
1, 25440, Note_on_c, 1, 62, 127
1, 25485, Note_off_c, 1, 71, 0
1, 25485, Note_off_c, 1, 68, 0
1, 25485, Note_off_c, 1, 62, 0
1, 25488, Note_on_c, 1, 73, 127
1, 25488, Note_on_c, 1, 69, 127
1, 25488, Note_on_c, 1, 61, 127
1, 25533, Note_off_c, 1, 73, 0
1, 25533, Note_off_c, 1, 69, 0
1, 25533, Note_off_c, 1, 61, 0
1, 25536, Note_on_c, 1, 74, 127
1, 25536, Note_on_c, 1, 71, 127
1, 25536, Note_on_c, 1, 59, 127
1, 25581, Note_off_c, 1, 71, 0
1, 25584, Note_on_c, 1, 69, 127
1, 25625, Note_off_c, 1, 59, 0
1, 25629, Note_off_c, 1, 69, 0
1, 25632, Note_on_c, 1, 68, 127
1, 25632, Note_on_c, 1, 57, 127
1, 25677, Note_off_c, 1, 68, 0
1, 25680, Note_on_c, 1, 66, 127
1, 25721, Note_off_c, 1, 57, 0
1, 25725, Note_off_c, 1, 66, 0
1, 25728, Note_on_c, 1, 64, 127
1, 25728, Note_on_c, 1, 56, 127
1, 25773, Note_off_c, 1, 74, 0
1, 25773, Note_off_c, 1, 56, 0
1, 25776, Note_on_c, 1, 73, 127
1, 25821, Note_off_c, 1, 73, 0
1, 25872, Note_on_c, 1, 54, 127
1, 25917, Note_off_c, 1, 54, 0
1, 25920, Note_on_c, 1, 52, 127
1, 25965, Note_off_c, 1, 52, 0
1, 25968, Note_on_c, 1, 78, 127
1, 25968, Note_on_c, 1, 50, 127
1, 26013, Note_off_c, 1, 78, 0
1, 26013, Note_off_c, 1, 50, 0
1, 26016, Note_on_c, 1, 76, 127
1, 26016, Note_on_c, 1, 49, 127
1, 26061, Note_off_c, 1, 76, 0
1, 26061, Note_off_c, 1, 49, 0
1, 26064, Note_on_c, 1, 47, 127
1, 26109, Note_off_c, 1, 47, 0
1, 26112, Note_on_c, 1, 45, 127
1, 26201, Note_off_c, 1, 64, 0
1, 26304, Note_on_c, 1, 62, 127
1, 26349, Note_off_c, 1, 62, 0
1, 26466, Note_off_c, 1, 45, 0
1, 26496, Note_on_c, 1, 74, 127
1, 26496, Note_on_c, 1, 66, 127
1, 26496, Note_on_c, 1, 44, 127
1, 26519, Note_off_c, 1, 66, 0
1, 26520, Note_on_c, 1, 67, 127
1, 26543, Note_off_c, 1, 67, 0
1, 26585, Note_off_c, 1, 74, 0
1, 26592, Note_on_c, 1, 76, 127
1, 26592, Note_on_c, 1, 64, 127
1, 26637, Note_off_c, 1, 76, 0
1, 26681, Note_off_c, 1, 64, 0
1, 26688, Note_on_c, 1, 73, 127
1, 26733, Note_off_c, 1, 73, 0
1, 26784, Note_on_c, 1, 62, 127
1, 26850, Note_off_c, 1, 44, 0
1, 26873, Note_off_c, 1, 62, 0
1, 26880, Note_on_c, 1, 76, 127
1, 26880, Note_on_c, 1, 61, 127
1, 26880, Note_on_c, 1, 45, 127
1, 26925, Note_off_c, 1, 61, 0
1, 26928, Note_on_c, 1, 62, 127
1, 26969, Note_off_c, 1, 76, 0
1, 26969, Note_off_c, 1, 45, 0
1, 26973, Note_off_c, 1, 62, 0
1, 26976, Note_on_c, 1, 81, 127
1, 26976, Note_on_c, 1, 64, 127
1, 26976, Note_on_c, 1, 49, 127
1, 27021, Note_off_c, 1, 64, 0
1, 27024, Note_on_c, 1, 57, 127
1, 27065, Note_off_c, 1, 81, 0
1, 27065, Note_off_c, 1, 49, 0
1, 27069, Note_off_c, 1, 57, 0
1, 27072, Note_on_c, 1, 80, 127
1, 27072, Note_on_c, 1, 62, 127
1, 27072, Note_on_c, 1, 47, 127
1, 27161, Note_off_c, 1, 80, 0
1, 27161, Note_off_c, 1, 62, 0
1, 27161, Note_off_c, 1, 47, 0
1, 27168, Note_on_c, 1, 81, 127
1, 27168, Note_on_c, 1, 61, 127
1, 27168, Note_on_c, 1, 45, 127
1, 27257, Note_off_c, 1, 61, 0
1, 27257, Note_off_c, 1, 45, 0
1, 27264, Note_on_c, 1, 59, 127
1, 27264, Note_on_c, 1, 40, 127
1, 27309, Note_off_c, 1, 59, 0
1, 27312, Note_on_c, 1, 57, 127
1, 27353, Note_off_c, 1, 81, 0
1, 27353, Note_off_c, 1, 40, 0
1, 27357, Note_off_c, 1, 57, 0
1, 27360, Note_on_c, 1, 80, 127
1, 27360, Note_on_c, 1, 59, 127
1, 27360, Note_on_c, 1, 52, 127
1, 27405, Note_off_c, 1, 80, 0
1, 27405, Note_off_c, 1, 59, 0
1, 27408, Note_on_c, 1, 78, 127
1, 27408, Note_on_c, 1, 61, 127
1, 27449, Note_off_c, 1, 52, 0
1, 27453, Note_off_c, 1, 78, 0
1, 27453, Note_off_c, 1, 61, 0
1, 27456, Note_on_c, 1, 80, 127
1, 27456, Note_on_c, 1, 59, 127
1, 27456, Note_on_c, 1, 50, 127
1, 27501, Note_off_c, 1, 80, 0
1, 27501, Note_off_c, 1, 59, 0
1, 27504, Note_on_c, 1, 83, 127
1, 27504, Note_on_c, 1, 61, 127
1, 27545, Note_off_c, 1, 50, 0
1, 27549, Note_off_c, 1, 83, 0
1, 27549, Note_off_c, 1, 61, 0
1, 27552, Note_on_c, 1, 71, 127
1, 27552, Note_on_c, 1, 62, 127
1, 27552, Note_on_c, 1, 49, 127
1, 27597, Note_off_c, 1, 71, 0
1, 27597, Note_off_c, 1, 62, 0
1, 27600, Note_on_c, 1, 73, 127
1, 27600, Note_on_c, 1, 64, 127
1, 27641, Note_off_c, 1, 49, 0
1, 27645, Note_off_c, 1, 73, 0
1, 27645, Note_off_c, 1, 64, 0
1, 27648, Note_on_c, 1, 74, 127
1, 27648, Note_on_c, 1, 66, 127
1, 27648, Note_on_c, 1, 47, 127
1, 27737, Note_off_c, 1, 74, 0
1, 27737, Note_off_c, 1, 66, 0
1, 27744, Note_on_c, 1, 76, 127
1, 27744, Note_on_c, 1, 67, 127
1, 27789, Note_off_c, 1, 76, 0
1, 27789, Note_off_c, 1, 67, 0
1, 27840, Note_on_c, 1, 73, 127
1, 27840, Note_on_c, 1, 64, 127
1, 27885, Note_off_c, 1, 73, 0
1, 27885, Note_off_c, 1, 64, 0
1, 28002, Note_off_c, 1, 47, 0
1, 28032, Note_on_c, 1, 76, 127
1, 28032, Note_on_c, 1, 67, 127
1, 28032, Note_on_c, 1, 46, 127
1, 28055, Note_off_c, 1, 67, 0
1, 28056, Note_on_c, 1, 69, 127
1, 28079, Note_off_c, 1, 69, 0
1, 28121, Note_off_c, 1, 76, 0
1, 28128, Note_on_c, 1, 78, 127
1, 28128, Note_on_c, 1, 66, 127
1, 28173, Note_off_c, 1, 78, 0
1, 28217, Note_off_c, 1, 66, 0
1, 28224, Note_on_c, 1, 74, 127
1, 28269, Note_off_c, 1, 74, 0
1, 28320, Note_on_c, 1, 64, 127
1, 28386, Note_off_c, 1, 46, 0
1, 28409, Note_off_c, 1, 64, 0
1, 28416, Note_on_c, 1, 78, 127
1, 28416, Note_on_c, 1, 62, 127
1, 28416, Note_on_c, 1, 47, 127
1, 28461, Note_off_c, 1, 62, 0
1, 28464, Note_on_c, 1, 64, 127
1, 28505, Note_off_c, 1, 78, 0
1, 28505, Note_off_c, 1, 47, 0
1, 28509, Note_off_c, 1, 64, 0
1, 28512, Note_on_c, 1, 83, 127
1, 28512, Note_on_c, 1, 66, 127
1, 28512, Note_on_c, 1, 50, 127
1, 28557, Note_off_c, 1, 66, 0
1, 28560, Note_on_c, 1, 59, 127
1, 28601, Note_off_c, 1, 83, 0
1, 28601, Note_off_c, 1, 50, 0
1, 28605, Note_off_c, 1, 59, 0
1, 28608, Note_on_c, 1, 82, 127
1, 28608, Note_on_c, 1, 64, 127
1, 28608, Note_on_c, 1, 49, 127
1, 28697, Note_off_c, 1, 82, 0
1, 28697, Note_off_c, 1, 64, 0
1, 28697, Note_off_c, 1, 49, 0
1, 28704, Note_on_c, 1, 83, 127
1, 28704, Note_on_c, 1, 62, 127
1, 28704, Note_on_c, 1, 47, 127
1, 28793, Note_off_c, 1, 62, 0
1, 28793, Note_off_c, 1, 47, 0
1, 28800, Note_on_c, 1, 61, 127
1, 28800, Note_on_c, 1, 42, 127
1, 28845, Note_off_c, 1, 61, 0
1, 28848, Note_on_c, 1, 59, 127
1, 28889, Note_off_c, 1, 83, 0
1, 28889, Note_off_c, 1, 42, 0
1, 28893, Note_off_c, 1, 59, 0
1, 28896, Note_on_c, 1, 81, 127
1, 28896, Note_on_c, 1, 61, 127
1, 28896, Note_on_c, 1, 54, 127
1, 28941, Note_off_c, 1, 81, 0
1, 28941, Note_off_c, 1, 61, 0
1, 28944, Note_on_c, 1, 80, 127
1, 28944, Note_on_c, 1, 62, 127
1, 28985, Note_off_c, 1, 54, 0
1, 28989, Note_off_c, 1, 80, 0
1, 28989, Note_off_c, 1, 62, 0
1, 28992, Note_on_c, 1, 81, 127
1, 28992, Note_on_c, 1, 61, 127
1, 28992, Note_on_c, 1, 52, 127
1, 29037, Note_off_c, 1, 81, 0
1, 29037, Note_off_c, 1, 61, 0
1, 29040, Note_on_c, 1, 85, 127
1, 29040, Note_on_c, 1, 62, 127
1, 29081, Note_off_c, 1, 52, 0
1, 29085, Note_off_c, 1, 85, 0
1, 29085, Note_off_c, 1, 62, 0
1, 29088, Note_on_c, 1, 73, 127
1, 29088, Note_on_c, 1, 64, 127
1, 29088, Note_on_c, 1, 50, 127
1, 29133, Note_off_c, 1, 73, 0
1, 29133, Note_off_c, 1, 64, 0
1, 29136, Note_on_c, 1, 74, 127
1, 29136, Note_on_c, 1, 66, 127
1, 29177, Note_off_c, 1, 50, 0
1, 29181, Note_off_c, 1, 74, 0
1, 29181, Note_off_c, 1, 66, 0
1, 29184, Note_on_c, 1, 76, 127
1, 29184, Note_on_c, 1, 67, 127
1, 29184, Note_on_c, 1, 49, 127
1, 29273, Note_off_c, 1, 76, 0
1, 29273, Note_off_c, 1, 67, 0
1, 29273, Note_off_c, 1, 49, 0
1, 29280, Note_on_c, 1, 73, 127
1, 29280, Note_on_c, 1, 69, 127
1, 29280, Note_on_c, 1, 47, 127
1, 29325, Note_off_c, 1, 73, 0
1, 29325, Note_off_c, 1, 69, 0
1, 29328, Note_on_c, 1, 67, 127
1, 29369, Note_off_c, 1, 47, 0
1, 29373, Note_off_c, 1, 67, 0
1, 29376, Note_on_c, 1, 81, 127
1, 29376, Note_on_c, 1, 66, 127
1, 29376, Note_on_c, 1, 49, 127
1, 29421, Note_off_c, 1, 66, 0
1, 29424, Note_on_c, 1, 67, 127
1, 29465, Note_off_c, 1, 49, 0
1, 29469, Note_off_c, 1, 67, 0
1, 29472, Note_on_c, 1, 69, 127
1, 29472, Note_on_c, 1, 45, 127
1, 29561, Note_off_c, 1, 69, 0
1, 29561, Note_off_c, 1, 45, 0
1, 29568, Note_on_c, 1, 50, 127
1, 29657, Note_off_c, 1, 81, 0
1, 29657, Note_off_c, 1, 50, 0
1, 29664, Note_on_c, 1, 78, 127
1, 29664, Note_on_c, 1, 71, 127
1, 29664, Note_on_c, 1, 49, 127
1, 29709, Note_off_c, 1, 78, 0
1, 29709, Note_off_c, 1, 71, 0
1, 29712, Note_on_c, 1, 74, 127
1, 29712, Note_on_c, 1, 69, 127
1, 29753, Note_off_c, 1, 49, 0
1, 29757, Note_off_c, 1, 74, 0
1, 29757, Note_off_c, 1, 69, 0
1, 29760, Note_on_c, 1, 86, 127
1, 29760, Note_on_c, 1, 68, 127
1, 29760, Note_on_c, 1, 47, 127
1, 29805, Note_off_c, 1, 68, 0
1, 29808, Note_on_c, 1, 69, 127
1, 29849, Note_off_c, 1, 47, 0
1, 29853, Note_off_c, 1, 69, 0
1, 29856, Note_on_c, 1, 71, 127
1, 29856, Note_on_c, 1, 45, 127
1, 29945, Note_off_c, 1, 71, 0
1, 29945, Note_off_c, 1, 45, 0
1, 29952, Note_on_c, 1, 64, 127
1, 29952, Note_on_c, 1, 44, 127
1, 29997, Note_off_c, 1, 86, 0
1, 30000, Note_on_c, 1, 83, 127
1, 30041, Note_off_c, 1, 44, 0
1, 30045, Note_off_c, 1, 83, 0
1, 30048, Note_on_c, 1, 85, 127
1, 30085, Note_off_c, 1, 64, 0
1, 30093, Note_off_c, 1, 85, 0
1, 30096, Note_on_c, 1, 66, 127
1, 30141, Note_off_c, 1, 66, 0
1, 30144, Note_on_c, 1, 80, 127
1, 30144, Note_on_c, 1, 59, 127
1, 30144, Note_on_c, 1, 52, 127
1, 30167, Note_off_c, 1, 59, 0
1, 30168, Note_on_c, 1, 61, 127
1, 30191, Note_off_c, 1, 61, 0
1, 30233, Note_off_c, 1, 52, 0
1, 30240, Note_on_c, 1, 40, 127
1, 30277, Note_off_c, 1, 80, 0
1, 30288, Note_on_c, 1, 81, 127
1, 30288, Note_on_c, 1, 57, 127
1, 30329, Note_off_c, 1, 40, 0
1, 30333, Note_off_c, 1, 81, 0
1, 30333, Note_off_c, 1, 57, 0
1, 30336, Note_on_c, 1, 81, 127
1, 30336, Note_on_c, 1, 57, 127
1, 30336, Note_on_c, 1, 45, 127
1, 30381, Note_off_c, 1, 57, 0
1, 30384, Note_on_c, 1, 61, 127
1, 30425, Note_off_c, 1, 45, 0
1, 30429, Note_off_c, 1, 61, 0
1, 30432, Note_on_c, 1, 59, 127
1, 30477, Note_off_c, 1, 59, 0
1, 30528, Note_on_c, 1, 62, 127
1, 30528, Note_on_c, 1, 47, 127
1, 30573, Note_off_c, 1, 62, 0
1, 30617, Note_off_c, 1, 47, 0
1, 30624, Note_on_c, 1, 64, 127
1, 30624, Note_on_c, 1, 49, 127
1, 30669, Note_off_c, 1, 64, 0
1, 30713, Note_off_c, 1, 49, 0
1, 30720, Note_on_c, 1, 66, 127
1, 30720, Note_on_c, 1, 50, 127
1, 30765, Note_off_c, 1, 66, 0
1, 30809, Note_off_c, 1, 50, 0
1, 31577, Note_off_c, 1, 81, 0
1, 31584, Note_on_c, 1, 69, 127
1, 31584, Note_on_c, 1, 64, 127
1, 31584, Note_on_c, 1, 49, 127
1, 31629, Note_off_c, 1, 64, 0
1, 31632, Note_on_c, 1, 62, 127
1, 31673, Note_off_c, 1, 69, 0
1, 31673, Note_off_c, 1, 49, 0
1, 31677, Note_off_c, 1, 62, 0
1, 31680, Note_on_c, 1, 74, 127
1, 31680, Note_on_c, 1, 68, 127
1, 31680, Note_on_c, 1, 47, 127
1, 31725, Note_off_c, 1, 68, 0
1, 31728, Note_on_c, 1, 62, 127
1, 31769, Note_off_c, 1, 47, 0
1, 31773, Note_off_c, 1, 62, 0
1, 31776, Note_on_c, 1, 69, 127
1, 31776, Note_on_c, 1, 45, 127
1, 31821, Note_off_c, 1, 69, 0
1, 31865, Note_off_c, 1, 45, 0
1, 31872, Note_on_c, 1, 71, 127
1, 31872, Note_on_c, 1, 44, 127
1, 31917, Note_off_c, 1, 74, 0
1, 31961, Note_off_c, 1, 44, 0
1, 31968, Note_on_c, 1, 73, 127
1, 31968, Note_on_c, 1, 56, 127
1, 32013, Note_off_c, 1, 73, 0
1, 32057, Note_off_c, 1, 56, 0
1, 32064, Note_on_c, 1, 52, 127
1, 32153, Note_off_c, 1, 52, 0
1, 32160, Note_on_c, 1, 64, 127
1, 32205, Note_off_c, 1, 64, 0
1, 32256, Note_on_c, 1, 57, 127
1, 32301, Note_off_c, 1, 71, 0
1, 32301, Note_off_c, 1, 57, 0
1, 32304, Note_on_c, 1, 76, 127
1, 32304, Note_on_c, 1, 59, 127
1, 32349, Note_off_c, 1, 76, 0
1, 32349, Note_off_c, 1, 59, 0
1, 32352, Note_on_c, 1, 78, 127
1, 32397, Note_off_c, 1, 78, 0
1, 32400, Note_on_c, 1, 80, 127
1, 32445, Note_off_c, 1, 80, 0
1, 32448, Note_on_c, 1, 81, 127
1, 32448, Note_on_c, 1, 54, 127
1, 32493, Note_off_c, 1, 54, 0
1, 32544, Note_on_c, 1, 51, 127
1, 32589, Note_off_c, 1, 51, 0
1, 32640, Note_on_c, 1, 83, 127
1, 32685, Note_off_c, 1, 81, 0
1, 32688, Note_on_c, 1, 75, 127
1, 32733, Note_off_c, 1, 75, 0
1, 32736, Note_on_c, 1, 77, 127
1, 32781, Note_off_c, 1, 77, 0
1, 32832, Note_on_c, 1, 53, 127
1, 32877, Note_off_c, 1, 83, 0
1, 32877, Note_off_c, 1, 53, 0
1, 32928, Note_on_c, 1, 49, 127
1, 32973, Note_off_c, 1, 49, 0
1, 33216, Note_on_c, 1, 50, 127
1, 33261, Note_off_c, 1, 50, 0
1, 33312, Note_on_c, 1, 86, 127
1, 33312, Note_on_c, 1, 78, 127
1, 33312, Note_on_c, 1, 47, 127
1, 33357, Note_off_c, 1, 78, 0
1, 33357, Note_off_c, 1, 47, 0
1, 33360, Note_on_c, 1, 80, 127
1, 33360, Note_on_c, 1, 50, 127
1, 33405, Note_off_c, 1, 80, 0
1, 33405, Note_off_c, 1, 50, 0
1, 33408, Note_on_c, 1, 77, 127
1, 33408, Note_on_c, 1, 49, 127
1, 33453, Note_off_c, 1, 49, 0
1, 33497, Note_off_c, 1, 86, 0
1, 33585, Note_off_c, 1, 77, 0
1, 33600, Note_on_c, 1, 85, 127
1, 33600, Note_on_c, 1, 45, 127
1, 33645, Note_off_c, 1, 45, 0
1, 33648, Note_on_c, 1, 49, 127
1, 33689, Note_off_c, 1, 85, 0
1, 33693, Note_off_c, 1, 49, 0
1, 33696, Note_on_c, 1, 83, 127
1, 33696, Note_on_c, 1, 44, 127
1, 33741, Note_off_c, 1, 44, 0
1, 33744, Note_on_c, 1, 49, 127
1, 33785, Note_off_c, 1, 83, 0
1, 33789, Note_off_c, 1, 49, 0
1, 33792, Note_on_c, 1, 81, 127
1, 33792, Note_on_c, 1, 73, 127
1, 33792, Note_on_c, 1, 42, 127
1, 33837, Note_off_c, 1, 81, 0
1, 33840, Note_on_c, 1, 80, 127
1, 33881, Note_off_c, 1, 73, 0
1, 33885, Note_off_c, 1, 80, 0
1, 33888, Note_on_c, 1, 83, 127
1, 33888, Note_on_c, 1, 74, 127
1, 33933, Note_off_c, 1, 83, 0
1, 33933, Note_off_c, 1, 74, 0
1, 33969, Note_off_c, 1, 42, 0
1, 33984, Note_on_c, 1, 80, 127
1, 33984, Note_on_c, 1, 71, 127
1, 33984, Note_on_c, 1, 54, 127
1, 34029, Note_off_c, 1, 80, 0
1, 34029, Note_off_c, 1, 71, 0
1, 34032, Note_on_c, 1, 78, 127
1, 34032, Note_on_c, 1, 73, 127
1, 34077, Note_off_c, 1, 78, 0
1, 34077, Note_off_c, 1, 73, 0
1, 34080, Note_on_c, 1, 77, 127
1, 34080, Note_on_c, 1, 74, 127
1, 34125, Note_off_c, 1, 77, 0
1, 34161, Note_off_c, 1, 54, 0
1, 34169, Note_off_c, 1, 74, 0
1, 34176, Note_on_c, 1, 80, 127
1, 34176, Note_on_c, 1, 74, 127
1, 34176, Note_on_c, 1, 53, 127
1, 34199, Note_off_c, 1, 74, 0
1, 34200, Note_on_c, 1, 76, 127
1, 34221, Note_off_c, 1, 80, 0
1, 34223, Note_off_c, 1, 76, 0
1, 34224, Note_on_c, 1, 78, 127
1, 34265, Note_off_c, 1, 53, 0
1, 34269, Note_off_c, 1, 78, 0
1, 34272, Note_on_c, 1, 77, 127
1, 34272, Note_on_c, 1, 73, 127
1, 34272, Note_on_c, 1, 56, 127
1, 34317, Note_off_c, 1, 77, 0
1, 34320, Note_on_c, 1, 75, 127
1, 34361, Note_off_c, 1, 73, 0
1, 34361, Note_off_c, 1, 56, 0
1, 34365, Note_off_c, 1, 75, 0
1, 34368, Note_on_c, 1, 73, 127
1, 34368, Note_on_c, 1, 53, 127
1, 34457, Note_off_c, 1, 73, 0
1, 34457, Note_off_c, 1, 53, 0
1, 34464, Note_on_c, 1, 71, 127
1, 34464, Note_on_c, 1, 49, 127
1, 34553, Note_off_c, 1, 71, 0
1, 34553, Note_off_c, 1, 49, 0
1, 34560, Note_on_c, 1, 69, 127
1, 34560, Note_on_c, 1, 54, 127
1, 34605, Note_off_c, 1, 69, 0
1, 34608, Note_on_c, 1, 71, 127
1, 34649, Note_off_c, 1, 54, 0
1, 34653, Note_off_c, 1, 71, 0
1, 34656, Note_on_c, 1, 73, 127
1, 34656, Note_on_c, 1, 45, 127
1, 34701, Note_off_c, 1, 73, 0
1, 34704, Note_on_c, 1, 66, 127
1, 34745, Note_off_c, 1, 45, 0
1, 34749, Note_off_c, 1, 66, 0
1, 34752, Note_on_c, 1, 69, 127
1, 34752, Note_on_c, 1, 47, 127
1, 34841, Note_off_c, 1, 69, 0
1, 34841, Note_off_c, 1, 47, 0
1, 34848, Note_on_c, 1, 68, 127
1, 34848, Note_on_c, 1, 49, 127
1, 34871, Note_off_c, 1, 68, 0
1, 34872, Note_on_c, 1, 69, 127
1, 34895, Note_off_c, 1, 69, 0
1, 34937, Note_off_c, 1, 49, 0
1, 34944, Note_on_c, 1, 73, 127
1, 34944, Note_on_c, 1, 66, 127
1, 34944, Note_on_c, 1, 54, 127
1, 34989, Note_off_c, 1, 54, 0
1, 34992, Note_on_c, 1, 56, 127
1, 35033, Note_off_c, 1, 73, 0
1, 35033, Note_off_c, 1, 66, 0
1, 35037, Note_off_c, 1, 56, 0
1, 35040, Note_on_c, 1, 74, 127
1, 35040, Note_on_c, 1, 68, 127
1, 35040, Note_on_c, 1, 59, 127
1, 35085, Note_off_c, 1, 74, 0
1, 35085, Note_off_c, 1, 68, 0
1, 35085, Note_off_c, 1, 59, 0
1, 35088, Note_on_c, 1, 73, 127
1, 35088, Note_on_c, 1, 69, 127
1, 35088, Note_on_c, 1, 57, 127
1, 35133, Note_off_c, 1, 73, 0
1, 35133, Note_off_c, 1, 69, 0
1, 35133, Note_off_c, 1, 57, 0
1, 35136, Note_on_c, 1, 71, 127
1, 35136, Note_on_c, 1, 56, 127
1, 35181, Note_off_c, 1, 71, 0
1, 35181, Note_off_c, 1, 56, 0
1, 35184, Note_on_c, 1, 73, 127
1, 35184, Note_on_c, 1, 69, 127
1, 35184, Note_on_c, 1, 54, 127
1, 35229, Note_off_c, 1, 73, 0
1, 35229, Note_off_c, 1, 69, 0
1, 35229, Note_off_c, 1, 54, 0
1, 35232, Note_on_c, 1, 74, 127
1, 35232, Note_on_c, 1, 68, 127
1, 35232, Note_on_c, 1, 53, 127
1, 35277, Note_off_c, 1, 68, 0
1, 35277, Note_off_c, 1, 53, 0
1, 35280, Note_on_c, 1, 66, 127
1, 35280, Note_on_c, 1, 54, 127
1, 35321, Note_off_c, 1, 74, 0
1, 35325, Note_off_c, 1, 66, 0
1, 35325, Note_off_c, 1, 54, 0
1, 35328, Note_on_c, 1, 74, 127
1, 35328, Note_on_c, 1, 65, 127
1, 35328, Note_on_c, 1, 56, 127
1, 35351, Note_off_c, 1, 74, 0
1, 35352, Note_on_c, 1, 76, 127
1, 35373, Note_off_c, 1, 56, 0
1, 35375, Note_off_c, 1, 76, 0
1, 35376, Note_on_c, 1, 54, 127
1, 35417, Note_off_c, 1, 65, 0
1, 35421, Note_off_c, 1, 54, 0
1, 35424, Note_on_c, 1, 73, 127
1, 35424, Note_on_c, 1, 68, 127
1, 35424, Note_on_c, 1, 53, 127
1, 35469, Note_off_c, 1, 53, 0
1, 35472, Note_on_c, 1, 50, 127
1, 35513, Note_off_c, 1, 73, 0
1, 35513, Note_off_c, 1, 68, 0
1, 35517, Note_off_c, 1, 50, 0
1, 35520, Note_on_c, 1, 65, 127
1, 35520, Note_on_c, 1, 49, 127
1, 35565, Note_off_c, 1, 49, 0
1, 35568, Note_on_c, 1, 47, 127
1, 35609, Note_off_c, 1, 65, 0
1, 35613, Note_off_c, 1, 47, 0
1, 35616, Note_on_c, 1, 71, 127
1, 35616, Note_on_c, 1, 61, 127
1, 35616, Note_on_c, 1, 45, 127
1, 35661, Note_off_c, 1, 45, 0
1, 35664, Note_on_c, 1, 44, 127
1, 35705, Note_off_c, 1, 71, 0
1, 35705, Note_off_c, 1, 61, 0
1, 35709, Note_off_c, 1, 44, 0
1, 35712, Note_on_c, 1, 69, 127
1, 35712, Note_on_c, 1, 66, 127
1, 35712, Note_on_c, 1, 42, 127
1, 35757, Note_off_c, 1, 69, 0
1, 35760, Note_on_c, 1, 71, 127
1, 35801, Note_off_c, 1, 66, 0
1, 35801, Note_off_c, 1, 42, 0
1, 35805, Note_off_c, 1, 71, 0
1, 35808, Note_on_c, 1, 73, 127
1, 35808, Note_on_c, 1, 78, 127
1, 35808, Note_on_c, 1, 45, 127
1, 35853, Note_off_c, 1, 73, 0
1, 35856, Note_on_c, 1, 66, 127
1, 35897, Note_off_c, 1, 45, 0
1, 35901, Note_off_c, 1, 66, 0
1, 35904, Note_on_c, 1, 69, 127
1, 35904, Note_on_c, 1, 47, 127
1, 35985, Note_off_c, 1, 78, 0
1, 35993, Note_off_c, 1, 69, 0
1, 35993, Note_off_c, 1, 47, 0
1, 36000, Note_on_c, 1, 68, 127
1, 36000, Note_on_c, 1, 77, 127
1, 36000, Note_on_c, 1, 49, 127
1, 36023, Note_off_c, 1, 68, 0
1, 36024, Note_on_c, 1, 69, 127
1, 36047, Note_off_c, 1, 69, 0
1, 36089, Note_off_c, 1, 77, 0
1, 36089, Note_off_c, 1, 49, 0
1, 36096, Note_on_c, 1, 66, 127
1, 36096, Note_on_c, 1, 78, 127
1, 36096, Note_on_c, 1, 54, 127
1, 36119, Note_off_c, 1, 78, 0
1, 36120, Note_on_c, 1, 79, 127
1, 36141, Note_off_c, 1, 54, 0
1, 36143, Note_off_c, 1, 79, 0
1, 36144, Note_on_c, 1, 57, 127
1, 36185, Note_off_c, 1, 66, 0
1, 36189, Note_off_c, 1, 57, 0
1, 36192, Note_on_c, 1, 73, 127
1, 36192, Note_on_c, 1, 78, 127
1, 36192, Note_on_c, 1, 56, 127
1, 36215, Note_off_c, 1, 78, 0
1, 36216, Note_on_c, 1, 79, 127
1, 36237, Note_off_c, 1, 56, 0
1, 36239, Note_off_c, 1, 79, 0
1, 36240, Note_on_c, 1, 54, 127
1, 36281, Note_off_c, 1, 73, 0
1, 36285, Note_off_c, 1, 54, 0
1, 36288, Note_on_c, 1, 74, 127
1, 36288, Note_on_c, 1, 78, 127
1, 36288, Note_on_c, 1, 59, 127
1, 36311, Note_off_c, 1, 78, 0
1, 36312, Note_on_c, 1, 79, 127
1, 36333, Note_off_c, 1, 59, 0
1, 36335, Note_off_c, 1, 79, 0
1, 36336, Note_off_c, 1, 74, 0
1, 36336, Note_on_c, 1, 73, 127
1, 36336, Note_on_c, 1, 54, 127
1, 36381, Note_off_c, 1, 73, 0
1, 36381, Note_off_c, 1, 54, 0
1, 36384, Note_on_c, 1, 71, 127
1, 36384, Note_on_c, 1, 78, 127
1, 36384, Note_on_c, 1, 61, 127
1, 36407, Note_off_c, 1, 78, 0
1, 36408, Note_on_c, 1, 79, 127
1, 36429, Note_off_c, 1, 61, 0
1, 36431, Note_off_c, 1, 79, 0
1, 36432, Note_off_c, 1, 71, 0
1, 36432, Note_on_c, 1, 70, 127
1, 36432, Note_on_c, 1, 54, 127
1, 36477, Note_off_c, 1, 70, 0
1, 36477, Note_off_c, 1, 54, 0
1, 36480, Note_on_c, 1, 71, 127
1, 36480, Note_on_c, 1, 78, 127
1, 36480, Note_on_c, 1, 62, 127
1, 36503, Note_off_c, 1, 78, 0
1, 36504, Note_on_c, 1, 79, 127
1, 36525, Note_off_c, 1, 62, 0
1, 36527, Note_off_c, 1, 79, 0
1, 36528, Note_on_c, 1, 54, 127
1, 36573, Note_off_c, 1, 54, 0
1, 36576, Note_on_c, 1, 61, 127
1, 36613, Note_off_c, 1, 71, 0
1, 36621, Note_off_c, 1, 61, 0
1, 36624, Note_on_c, 1, 78, 127
1, 36624, Note_on_c, 1, 54, 127
1, 36648, Note_on_c, 1, 79, 127
1, 36669, Note_off_c, 1, 78, 0
1, 36669, Note_off_c, 1, 54, 0
1, 36671, Note_off_c, 1, 79, 0
1, 36672, Note_on_c, 1, 78, 127
1, 36672, Note_on_c, 1, 59, 127
1, 36696, Note_on_c, 1, 79, 127
1, 36717, Note_off_c, 1, 59, 0
1, 36719, Note_off_c, 1, 79, 0
1, 36720, Note_on_c, 1, 77, 127
1, 36720, Note_on_c, 1, 54, 127
1, 36743, Note_off_c, 1, 78, 0
1, 36765, Note_off_c, 1, 77, 0
1, 36765, Note_off_c, 1, 54, 0
1, 36768, Note_on_c, 1, 78, 127
1, 36768, Note_on_c, 1, 62, 127
1, 36792, Note_on_c, 1, 79, 127
1, 36813, Note_off_c, 1, 62, 0
1, 36815, Note_off_c, 1, 79, 0
1, 36816, Note_on_c, 1, 80, 127
1, 36816, Note_on_c, 1, 54, 127
1, 36839, Note_off_c, 1, 78, 0
1, 36861, Note_off_c, 1, 80, 0
1, 36861, Note_off_c, 1, 54, 0
1, 36864, Note_on_c, 1, 71, 127
1, 36864, Note_on_c, 1, 78, 127
1, 36864, Note_on_c, 1, 61, 127
1, 36887, Note_off_c, 1, 71, 0
1, 36887, Note_off_c, 1, 78, 0
1, 36888, Note_on_c, 1, 69, 127
1, 36888, Note_on_c, 1, 79, 127
1, 36909, Note_off_c, 1, 61, 0
1, 36911, Note_off_c, 1, 79, 0
1, 36912, Note_on_c, 1, 54, 127
1, 36957, Note_off_c, 1, 54, 0
1, 36960, Note_on_c, 1, 59, 127
1, 37005, Note_off_c, 1, 59, 0
1, 37007, Note_off_c, 1, 69, 0
1, 37008, Note_on_c, 1, 78, 127
1, 37008, Note_on_c, 1, 54, 127
1, 37032, Note_on_c, 1, 79, 127
1, 37053, Note_off_c, 1, 78, 0
1, 37053, Note_off_c, 1, 54, 0
1, 37055, Note_off_c, 1, 79, 0
1, 37056, Note_on_c, 1, 78, 127
1, 37056, Note_on_c, 1, 57, 127
1, 37080, Note_on_c, 1, 79, 127
1, 37101, Note_off_c, 1, 57, 0
1, 37103, Note_off_c, 1, 79, 0
1, 37104, Note_on_c, 1, 77, 127
1, 37104, Note_on_c, 1, 54, 127
1, 37127, Note_off_c, 1, 78, 0
1, 37149, Note_off_c, 1, 77, 0
1, 37149, Note_off_c, 1, 54, 0
1, 37152, Note_on_c, 1, 78, 127
1, 37152, Note_on_c, 1, 61, 127
1, 37176, Note_on_c, 1, 79, 127
1, 37197, Note_off_c, 1, 61, 0
1, 37199, Note_off_c, 1, 79, 0
1, 37200, Note_on_c, 1, 80, 127
1, 37200, Note_on_c, 1, 54, 127
1, 37223, Note_off_c, 1, 78, 0
1, 37245, Note_off_c, 1, 80, 0
1, 37245, Note_off_c, 1, 54, 0
1, 37248, Note_on_c, 1, 69, 127
1, 37248, Note_on_c, 1, 59, 127
1, 37271, Note_off_c, 1, 69, 0
1, 37272, Note_on_c, 1, 68, 127
1, 37293, Note_off_c, 1, 59, 0
1, 37296, Note_on_c, 1, 76, 127
1, 37296, Note_on_c, 1, 56, 127
1, 37341, Note_off_c, 1, 76, 0
1, 37341, Note_off_c, 1, 56, 0
1, 37344, Note_on_c, 1, 74, 127
1, 37344, Note_on_c, 1, 57, 127
1, 37389, Note_off_c, 1, 74, 0
1, 37389, Note_off_c, 1, 57, 0
1, 37391, Note_off_c, 1, 68, 0
1, 37392, Note_on_c, 1, 69, 127
1, 37392, Note_on_c, 1, 73, 127
1, 37392, Note_on_c, 1, 59, 127
1, 37437, Note_off_c, 1, 69, 0
1, 37437, Note_off_c, 1, 73, 0
1, 37437, Note_off_c, 1, 59, 0
1, 37440, Note_on_c, 1, 71, 127
1, 37440, Note_on_c, 1, 74, 127
1, 37440, Note_on_c, 1, 53, 127
1, 37485, Note_off_c, 1, 71, 0
1, 37485, Note_off_c, 1, 53, 0
1, 37488, Note_on_c, 1, 59, 127
1, 37533, Note_off_c, 1, 59, 0
1, 37536, Note_on_c, 1, 73, 127
1, 37536, Note_on_c, 1, 56, 127
1, 37581, Note_off_c, 1, 73, 0
1, 37581, Note_off_c, 1, 56, 0
1, 37632, Note_on_c, 1, 77, 127
1, 37632, Note_on_c, 1, 49, 127
1, 37677, Note_off_c, 1, 49, 0
1, 37721, Note_off_c, 1, 74, 0
1, 37809, Note_off_c, 1, 77, 0
1, 37824, Note_on_c, 1, 73, 127
1, 37824, Note_on_c, 1, 45, 127
1, 37869, Note_off_c, 1, 73, 0
1, 37869, Note_off_c, 1, 45, 0
1, 37872, Note_on_c, 1, 71, 127
1, 37872, Note_on_c, 1, 53, 127
1, 37917, Note_off_c, 1, 71, 0
1, 37917, Note_off_c, 1, 53, 0
1, 37920, Note_on_c, 1, 77, 127
1, 37920, Note_on_c, 1, 69, 127
1, 37920, Note_on_c, 1, 49, 127
1, 37965, Note_off_c, 1, 69, 0
1, 37965, Note_off_c, 1, 49, 0
1, 37968, Note_on_c, 1, 68, 127
1, 37968, Note_on_c, 1, 53, 127
1, 38009, Note_off_c, 1, 77, 0
1, 38013, Note_off_c, 1, 68, 0
1, 38013, Note_off_c, 1, 53, 0
1, 38016, Note_on_c, 1, 78, 127
1, 38016, Note_on_c, 1, 69, 127
1, 38016, Note_on_c, 1, 42, 127
1, 38105, Note_off_c, 1, 42, 0
1, 38112, Note_on_c, 1, 47, 127
1, 38149, Note_off_c, 1, 78, 0
1, 38149, Note_off_c, 1, 69, 0
1, 38160, Note_on_c, 1, 80, 127
1, 38160, Note_on_c, 1, 71, 127
1, 38201, Note_off_c, 1, 47, 0
1, 38205, Note_off_c, 1, 80, 0
1, 38205, Note_off_c, 1, 71, 0
1, 38208, Note_on_c, 1, 77, 127
1, 38208, Note_on_c, 1, 68, 127
1, 38208, Note_on_c, 1, 49, 127
1, 38231, Note_off_c, 1, 77, 0
1, 38231, Note_off_c, 1, 68, 0
1, 38232, Note_on_c, 1, 78, 127
1, 38232, Note_on_c, 1, 69, 127
1, 38255, Note_off_c, 1, 78, 0
1, 38255, Note_off_c, 1, 69, 0
1, 38297, Note_off_c, 1, 49, 0
1, 38304, Note_on_c, 1, 77, 127
1, 38304, Note_on_c, 1, 68, 127
1, 38304, Note_on_c, 1, 37, 127
1, 38327, Note_off_c, 1, 77, 0
1, 38327, Note_off_c, 1, 68, 0
1, 38328, Note_on_c, 1, 78, 127
1, 38328, Note_on_c, 1, 69, 127
1, 38351, Note_off_c, 1, 78, 0
1, 38351, Note_off_c, 1, 69, 0
1, 38352, Note_on_c, 1, 66, 127
1, 38393, Note_off_c, 1, 37, 0
1, 38397, Note_off_c, 1, 66, 0
1, 38400, Note_on_c, 1, 78, 127
1, 38400, Note_on_c, 1, 66, 127
1, 38400, Note_on_c, 1, 42, 127
1, 38489, Note_off_c, 1, 42, 0
1, 38496, Note_on_c, 1, 54, 127
1, 38541, Note_off_c, 1, 54, 0
1, 38544, Note_on_c, 1, 55, 127
1, 38577, Note_off_c, 1, 78, 0
1, 38577, Note_off_c, 1, 66, 0
1, 38589, Note_off_c, 1, 55, 0
1, 38592, Note_on_c, 1, 54, 127
1, 38637, Note_off_c, 1, 54, 0
1, 38640, Note_on_c, 1, 52, 127
1, 38685, Note_off_c, 1, 52, 0
1, 38688, Note_on_c, 1, 50, 127
1, 38733, Note_off_c, 1, 50, 0
1, 38736, Note_on_c, 1, 49, 127
1, 38781, Note_off_c, 1, 49, 0
1, 38784, Note_on_c, 1, 78, 127
1, 38784, Note_on_c, 1, 47, 127
1, 38873, Note_off_c, 1, 78, 0
1, 38880, Note_on_c, 1, 79, 127
1, 38925, Note_off_c, 1, 79, 0
1, 38961, Note_off_c, 1, 47, 0
1, 38976, Note_on_c, 1, 76, 127
1, 38976, Note_on_c, 1, 59, 127
1, 39021, Note_off_c, 1, 76, 0
1, 39024, Note_on_c, 1, 78, 127
1, 39069, Note_off_c, 1, 78, 0
1, 39072, Note_on_c, 1, 79, 127
1, 39153, Note_off_c, 1, 59, 0
1, 39161, Note_off_c, 1, 79, 0
1, 39168, Note_on_c, 1, 79, 127
1, 39168, Note_on_c, 1, 58, 127
1, 39191, Note_off_c, 1, 79, 0
1, 39192, Note_on_c, 1, 81, 127
1, 39215, Note_off_c, 1, 81, 0
1, 39257, Note_off_c, 1, 58, 0
1, 39264, Note_on_c, 1, 78, 127
1, 39264, Note_on_c, 1, 61, 127
1, 39353, Note_off_c, 1, 78, 0
1, 39353, Note_off_c, 1, 61, 0
1, 39360, Note_on_c, 1, 58, 127
1, 39449, Note_off_c, 1, 58, 0
1, 39456, Note_on_c, 1, 76, 127
1, 39456, Note_on_c, 1, 54, 127
1, 39545, Note_off_c, 1, 76, 0
1, 39545, Note_off_c, 1, 54, 0
1, 39552, Note_on_c, 1, 74, 127
1, 39552, Note_on_c, 1, 59, 127
1, 39597, Note_off_c, 1, 74, 0
1, 39600, Note_on_c, 1, 76, 127
1, 39641, Note_off_c, 1, 59, 0
1, 39645, Note_off_c, 1, 76, 0
1, 39648, Note_on_c, 1, 78, 127
1, 39648, Note_on_c, 1, 50, 127
1, 39693, Note_off_c, 1, 78, 0
1, 39696, Note_on_c, 1, 71, 127
1, 39737, Note_off_c, 1, 50, 0
1, 39741, Note_off_c, 1, 71, 0
1, 39744, Note_on_c, 1, 74, 127
1, 39744, Note_on_c, 1, 52, 127
1, 39833, Note_off_c, 1, 74, 0
1, 39833, Note_off_c, 1, 52, 0
1, 39840, Note_on_c, 1, 73, 127
1, 39840, Note_on_c, 1, 54, 127
1, 39863, Note_off_c, 1, 73, 0
1, 39864, Note_on_c, 1, 74, 127
1, 39887, Note_off_c, 1, 74, 0
1, 39929, Note_off_c, 1, 54, 0
1, 39936, Note_on_c, 1, 71, 127
1, 39936, Note_on_c, 1, 47, 127
1, 39981, Note_off_c, 1, 71, 0
1, 39984, Note_on_c, 1, 74, 127
1, 40025, Note_off_c, 1, 47, 0
1, 40029, Note_off_c, 1, 74, 0
1, 40032, Note_on_c, 1, 73, 127
1, 40032, Note_on_c, 1, 59, 127
1, 40077, Note_off_c, 1, 73, 0
1, 40080, Note_on_c, 1, 71, 127
1, 40121, Note_off_c, 1, 59, 0
1, 40125, Note_off_c, 1, 71, 0
1, 40128, Note_on_c, 1, 78, 127
1, 40128, Note_on_c, 1, 57, 127
1, 40173, Note_off_c, 1, 78, 0
1, 40176, Note_on_c, 1, 71, 127
1, 40217, Note_off_c, 1, 57, 0
1, 40221, Note_off_c, 1, 71, 0
1, 40224, Note_on_c, 1, 80, 127
1, 40224, Note_on_c, 1, 56, 127
1, 40269, Note_off_c, 1, 80, 0
1, 40272, Note_on_c, 1, 71, 127
1, 40313, Note_off_c, 1, 56, 0
1, 40317, Note_off_c, 1, 71, 0
1, 40320, Note_on_c, 1, 81, 127
1, 40320, Note_on_c, 1, 73, 127
1, 40320, Note_on_c, 1, 54, 127
1, 40365, Note_off_c, 1, 81, 0
1, 40368, Note_on_c, 1, 80, 127
1, 40409, Note_off_c, 1, 73, 0
1, 40413, Note_off_c, 1, 80, 0
1, 40416, Note_on_c, 1, 83, 127
1, 40416, Note_on_c, 1, 74, 127
1, 40461, Note_off_c, 1, 83, 0
1, 40461, Note_off_c, 1, 74, 0
1, 40497, Note_off_c, 1, 54, 0
1, 40512, Note_on_c, 1, 80, 127
1, 40512, Note_on_c, 1, 71, 127
1, 40512, Note_on_c, 1, 66, 127
1, 40557, Note_off_c, 1, 80, 0
1, 40557, Note_off_c, 1, 71, 0
1, 40560, Note_on_c, 1, 78, 127
1, 40560, Note_on_c, 1, 73, 127
1, 40605, Note_off_c, 1, 78, 0
1, 40605, Note_off_c, 1, 73, 0
1, 40608, Note_on_c, 1, 77, 127
1, 40608, Note_on_c, 1, 74, 127
1, 40653, Note_off_c, 1, 77, 0
1, 40689, Note_off_c, 1, 66, 0
1, 40697, Note_off_c, 1, 74, 0
1, 40704, Note_on_c, 1, 80, 127
1, 40704, Note_on_c, 1, 74, 127
1, 40704, Note_on_c, 1, 65, 127
1, 40727, Note_off_c, 1, 74, 0
1, 40728, Note_on_c, 1, 76, 127
1, 40749, Note_off_c, 1, 80, 0
1, 40751, Note_off_c, 1, 76, 0
1, 40752, Note_on_c, 1, 78, 127
1, 40793, Note_off_c, 1, 65, 0
1, 40797, Note_off_c, 1, 78, 0
1, 40800, Note_on_c, 1, 77, 127
1, 40800, Note_on_c, 1, 73, 127
1, 40800, Note_on_c, 1, 68, 127
1, 40845, Note_off_c, 1, 77, 0
1, 40848, Note_on_c, 1, 75, 127
1, 40889, Note_off_c, 1, 73, 0
1, 40889, Note_off_c, 1, 68, 0
1, 40893, Note_off_c, 1, 75, 0
1, 40896, Note_on_c, 1, 73, 127
1, 40896, Note_on_c, 1, 65, 127
1, 40941, Note_off_c, 1, 73, 0
1, 40944, Note_on_c, 1, 71, 127
1, 40985, Note_off_c, 1, 65, 0
1, 40989, Note_off_c, 1, 71, 0
1, 40992, Note_on_c, 1, 69, 127
1, 40992, Note_on_c, 1, 71, 127
1, 40992, Note_on_c, 1, 61, 127
1, 41037, Note_off_c, 1, 69, 0
1, 41040, Note_on_c, 1, 68, 127
1, 41081, Note_off_c, 1, 71, 0
1, 41081, Note_off_c, 1, 61, 0
1, 41085, Note_off_c, 1, 68, 0
1, 41088, Note_on_c, 1, 66, 127
1, 41088, Note_on_c, 1, 69, 127
1, 41133, Note_off_c, 1, 69, 0
1, 41136, Note_on_c, 1, 71, 127
1, 41177, Note_off_c, 1, 66, 0
1, 41181, Note_off_c, 1, 71, 0
1, 41184, Note_on_c, 1, 78, 127
1, 41184, Note_on_c, 1, 73, 127
1, 41184, Note_on_c, 1, 57, 127
1, 41229, Note_off_c, 1, 73, 0
1, 41232, Note_on_c, 1, 66, 127
1, 41273, Note_off_c, 1, 57, 0
1, 41277, Note_off_c, 1, 66, 0
1, 41280, Note_on_c, 1, 69, 127
1, 41280, Note_on_c, 1, 59, 127
1, 41361, Note_off_c, 1, 78, 0
1, 41369, Note_off_c, 1, 69, 0
1, 41369, Note_off_c, 1, 59, 0
1, 41376, Note_on_c, 1, 77, 127
1, 41376, Note_on_c, 1, 68, 127
1, 41376, Note_on_c, 1, 61, 127
1, 41399, Note_off_c, 1, 68, 0
1, 41400, Note_on_c, 1, 69, 127
1, 41423, Note_off_c, 1, 69, 0
1, 41465, Note_off_c, 1, 77, 0
1, 41465, Note_off_c, 1, 61, 0
1, 41472, Note_on_c, 1, 81, 127
1, 41472, Note_on_c, 1, 66, 127
1, 41472, Note_on_c, 1, 54, 127
1, 41517, Note_off_c, 1, 66, 0
1, 41520, Note_on_c, 1, 69, 127
1, 41565, Note_off_c, 1, 69, 0
1, 41568, Note_on_c, 1, 68, 127
1, 41613, Note_off_c, 1, 68, 0
1, 41649, Note_off_c, 1, 54, 0
1, 41664, Note_on_c, 1, 73, 127
1, 41709, Note_off_c, 1, 73, 0
1, 41760, Note_on_c, 1, 75, 127
1, 41760, Note_on_c, 1, 59, 127
1, 41805, Note_off_c, 1, 75, 0
1, 41826, Note_off_c, 1, 81, 0
1, 41849, Note_off_c, 1, 59, 0
1, 41856, Note_on_c, 1, 79, 127
1, 41856, Note_on_c, 1, 64, 127
1, 41856, Note_on_c, 1, 52, 127
1, 41901, Note_off_c, 1, 64, 0
1, 41904, Note_on_c, 1, 67, 127
1, 41949, Note_off_c, 1, 67, 0
1, 41952, Note_on_c, 1, 66, 127
1, 41997, Note_off_c, 1, 66, 0
1, 42033, Note_off_c, 1, 52, 0
1, 42048, Note_on_c, 1, 71, 127
1, 42093, Note_off_c, 1, 71, 0
1, 42144, Note_on_c, 1, 73, 127
1, 42144, Note_on_c, 1, 57, 127
1, 42189, Note_off_c, 1, 73, 0
1, 42210, Note_off_c, 1, 79, 0
1, 42233, Note_off_c, 1, 57, 0
1, 42240, Note_on_c, 1, 78, 127
1, 42240, Note_on_c, 1, 74, 127
1, 42240, Note_on_c, 1, 50, 127
1, 42285, Note_off_c, 1, 78, 0
1, 42329, Note_off_c, 1, 50, 0
1, 42336, Note_on_c, 1, 76, 127
1, 42336, Note_on_c, 1, 47, 127
1, 42381, Note_off_c, 1, 76, 0
1, 42425, Note_off_c, 1, 47, 0
1, 42432, Note_on_c, 1, 71, 127
1, 42432, Note_on_c, 1, 44, 127
1, 42477, Note_off_c, 1, 71, 0
1, 42521, Note_off_c, 1, 44, 0
1, 42528, Note_on_c, 1, 68, 127
1, 42573, Note_off_c, 1, 68, 0
1, 42624, Note_on_c, 1, 49, 127
1, 42669, Note_off_c, 1, 74, 0
1, 42672, Note_on_c, 1, 73, 127
1, 42713, Note_off_c, 1, 49, 0
1, 42717, Note_off_c, 1, 73, 0
1, 42720, Note_on_c, 1, 74, 127
1, 42720, Note_on_c, 1, 78, 127
1, 42720, Note_on_c, 1, 46, 127
1, 42765, Note_off_c, 1, 74, 0
1, 42765, Note_off_c, 1, 78, 0
1, 42768, Note_on_c, 1, 76, 127
1, 42768, Note_on_c, 1, 79, 127
1, 42809, Note_off_c, 1, 46, 0
1, 42813, Note_off_c, 1, 76, 0
1, 42813, Note_off_c, 1, 79, 0
1, 42816, Note_on_c, 1, 70, 127
1, 42816, Note_on_c, 1, 74, 127
1, 42816, Note_on_c, 1, 42, 127
1, 42840, Note_off_c, 1, 74, 0
1, 42840, Note_on_c, 1, 73, 127
1, 42861, Note_off_c, 1, 70, 0
1, 42864, Note_on_c, 1, 76, 127
1, 42905, Note_off_c, 1, 42, 0
1, 42909, Note_off_c, 1, 76, 0
1, 42912, Note_on_c, 1, 66, 127
1, 42912, Note_on_c, 1, 46, 127
1, 42957, Note_off_c, 1, 66, 0
1, 43001, Note_off_c, 1, 46, 0
1, 43008, Note_on_c, 1, 47, 127
1, 43053, Note_off_c, 1, 73, 0
1, 43056, Note_on_c, 1, 71, 127
1, 43097, Note_off_c, 1, 47, 0
1, 43101, Note_off_c, 1, 71, 0
1, 43104, Note_on_c, 1, 71, 127
1, 43104, Note_on_c, 1, 76, 127
1, 43104, Note_on_c, 1, 55, 127
1, 43149, Note_off_c, 1, 76, 0
1, 43149, Note_off_c, 1, 55, 0
1, 43152, Note_on_c, 1, 74, 127
1, 43152, Note_on_c, 1, 54, 127
1, 43193, Note_off_c, 1, 71, 0
1, 43197, Note_off_c, 1, 74, 0
1, 43197, Note_off_c, 1, 54, 0
1, 43200, Note_on_c, 1, 79, 127
1, 43200, Note_on_c, 1, 73, 127
1, 43200, Note_on_c, 1, 52, 127
1, 43245, Note_off_c, 1, 73, 0
1, 43245, Note_off_c, 1, 52, 0
1, 43248, Note_on_c, 1, 71, 127
1, 43248, Note_on_c, 1, 54, 127
1, 43289, Note_off_c, 1, 79, 0
1, 43293, Note_off_c, 1, 71, 0
1, 43293, Note_off_c, 1, 54, 0
1, 43296, Note_on_c, 1, 76, 127
1, 43296, Note_on_c, 1, 70, 127
1, 43296, Note_on_c, 1, 55, 127
1, 43341, Note_off_c, 1, 70, 0
1, 43344, Note_on_c, 1, 71, 127
1, 43385, Note_off_c, 1, 76, 0
1, 43385, Note_off_c, 1, 55, 0
1, 43389, Note_off_c, 1, 71, 0
1, 43392, Note_on_c, 1, 82, 127
1, 43392, Note_on_c, 1, 73, 127
1, 43392, Note_on_c, 1, 55, 127
1, 43415, Note_off_c, 1, 55, 0
1, 43416, Note_on_c, 1, 57, 127
1, 43437, Note_off_c, 1, 73, 0
1, 43439, Note_off_c, 1, 57, 0
1, 43440, Note_on_c, 1, 71, 127
1, 43481, Note_off_c, 1, 82, 0
1, 43485, Note_off_c, 1, 71, 0
1, 43488, Note_on_c, 1, 85, 127
1, 43488, Note_on_c, 1, 70, 127
1, 43488, Note_on_c, 1, 54, 127
1, 43533, Note_off_c, 1, 70, 0
1, 43536, Note_on_c, 1, 68, 127
1, 43577, Note_off_c, 1, 85, 0
1, 43577, Note_off_c, 1, 54, 0
1, 43581, Note_off_c, 1, 68, 0
1, 43584, Note_on_c, 1, 82, 127
1, 43584, Note_on_c, 1, 66, 127
1, 43629, Note_off_c, 1, 66, 0
1, 43632, Note_on_c, 1, 64, 127
1, 43673, Note_off_c, 1, 82, 0
1, 43677, Note_off_c, 1, 64, 0
1, 43680, Note_on_c, 1, 78, 127
1, 43680, Note_on_c, 1, 62, 127
1, 43680, Note_on_c, 1, 52, 127
1, 43725, Note_off_c, 1, 62, 0
1, 43728, Note_on_c, 1, 61, 127
1, 43769, Note_off_c, 1, 52, 0
1, 43773, Note_off_c, 1, 61, 0
1, 43776, Note_on_c, 1, 59, 127
1, 43776, Note_on_c, 1, 50, 127
1, 43821, Note_off_c, 1, 78, 0
1, 43821, Note_off_c, 1, 50, 0
1, 43824, Note_on_c, 1, 73, 127
1, 43865, Note_off_c, 1, 59, 0
1, 43869, Note_off_c, 1, 73, 0
1, 43872, Note_on_c, 1, 74, 127
1, 43872, Note_on_c, 1, 71, 127
1, 43872, Note_on_c, 1, 54, 127
1, 43917, Note_off_c, 1, 74, 0
1, 43917, Note_off_c, 1, 54, 0
1, 43920, Note_on_c, 1, 76, 127
1, 43920, Note_on_c, 1, 47, 127
1, 43965, Note_off_c, 1, 76, 0
1, 43965, Note_off_c, 1, 47, 0
1, 43968, Note_on_c, 1, 68, 127
1, 43968, Note_on_c, 1, 50, 127
1, 44013, Note_off_c, 1, 68, 0
1, 44049, Note_off_c, 1, 71, 0
1, 44057, Note_off_c, 1, 50, 0
1, 44064, Note_on_c, 1, 70, 127
1, 44064, Note_on_c, 1, 49, 127
1, 44087, Note_off_c, 1, 49, 0
1, 44088, Note_on_c, 1, 50, 127
1, 44111, Note_off_c, 1, 50, 0
1, 44112, Note_on_c, 1, 76, 127
1, 44153, Note_off_c, 1, 70, 0
1, 44157, Note_off_c, 1, 76, 0
1, 44160, Note_on_c, 1, 74, 127
1, 44160, Note_on_c, 1, 71, 127
1, 44160, Note_on_c, 1, 47, 127
1, 44205, Note_off_c, 1, 47, 0
1, 44208, Note_on_c, 1, 50, 127
1, 44249, Note_off_c, 1, 71, 0
1, 44253, Note_off_c, 1, 50, 0
1, 44256, Note_on_c, 1, 66, 127
1, 44256, Note_on_c, 1, 49, 127
1, 44301, Note_off_c, 1, 49, 0
1, 44337, Note_off_c, 1, 74, 0
1, 44345, Note_off_c, 1, 66, 0
1, 44352, Note_on_c, 1, 74, 127
1, 44352, Note_on_c, 1, 54, 127
1, 44397, Note_off_c, 1, 54, 0
1, 44400, Note_on_c, 1, 47, 127
1, 44445, Note_off_c, 1, 47, 0
1, 44448, Note_on_c, 1, 83, 127
1, 44448, Note_on_c, 1, 56, 127
1, 44493, Note_off_c, 1, 56, 0
1, 44537, Note_off_c, 1, 83, 0
1, 44544, Note_on_c, 1, 76, 127
1, 44544, Note_on_c, 1, 57, 127
1, 44589, Note_off_c, 1, 76, 0
1, 44592, Note_on_c, 1, 73, 127
1, 44633, Note_off_c, 1, 74, 0
1, 44633, Note_off_c, 1, 57, 0
1, 44637, Note_off_c, 1, 73, 0
1, 44640, Note_on_c, 1, 71, 127
1, 44640, Note_on_c, 1, 64, 127
1, 44640, Note_on_c, 1, 45, 127
1, 44685, Note_off_c, 1, 71, 0
1, 44688, Note_on_c, 1, 69, 127
1, 44729, Note_off_c, 1, 64, 0
1, 44729, Note_off_c, 1, 45, 0
1, 44733, Note_off_c, 1, 69, 0
1, 44736, Note_on_c, 1, 76, 127
1, 44736, Note_on_c, 1, 73, 127
1, 44736, Note_on_c, 1, 43, 127
1, 44784, Note_off_c, 1, 76, 0
1, 44784, Note_on_c, 1, 69, 127
1, 44825, Note_off_c, 1, 73, 0
1, 44825, Note_off_c, 1, 43, 0
1, 44829, Note_off_c, 1, 69, 0
1, 44832, Note_on_c, 1, 78, 127
1, 44832, Note_on_c, 1, 75, 127
1, 44832, Note_on_c, 1, 42, 127
1, 44880, Note_off_c, 1, 78, 0
1, 44880, Note_on_c, 1, 69, 127
1, 44921, Note_off_c, 1, 75, 0
1, 44921, Note_off_c, 1, 42, 0
1, 44925, Note_off_c, 1, 69, 0
1, 44928, Note_on_c, 1, 79, 127
1, 44928, Note_on_c, 1, 64, 127
1, 44928, Note_on_c, 1, 40, 127
1, 44973, Note_off_c, 1, 64, 0
1, 44976, Note_on_c, 1, 67, 127
1, 45017, Note_off_c, 1, 79, 0
1, 45017, Note_off_c, 1, 40, 0
1, 45021, Note_off_c, 1, 67, 0
1, 45024, Note_on_c, 1, 71, 127
1, 45024, Note_on_c, 1, 66, 127
1, 45024, Note_on_c, 1, 47, 127
1, 45069, Note_off_c, 1, 66, 0
1, 45072, Note_on_c, 1, 64, 127
1, 45113, Note_off_c, 1, 71, 0
1, 45113, Note_off_c, 1, 47, 0
1, 45117, Note_off_c, 1, 64, 0
1, 45120, Note_on_c, 1, 79, 127
1, 45120, Note_on_c, 1, 71, 127
1, 45120, Note_on_c, 1, 43, 127
1, 45165, Note_off_c, 1, 71, 0
1, 45168, Note_on_c, 1, 64, 127
1, 45209, Note_off_c, 1, 43, 0
1, 45213, Note_off_c, 1, 64, 0
1, 45216, Note_on_c, 1, 73, 127
1, 45216, Note_on_c, 1, 40, 127
1, 45261, Note_off_c, 1, 73, 0
1, 45297, Note_off_c, 1, 79, 0
1, 45305, Note_off_c, 1, 40, 0
1, 45312, Note_on_c, 1, 78, 127
1, 45312, Note_on_c, 1, 74, 127
1, 45312, Note_on_c, 1, 47, 127
1, 45357, Note_off_c, 1, 78, 0
1, 45401, Note_off_c, 1, 47, 0
1, 45405, Note_off_c, 1, 74, 0
1, 45408, Note_on_c, 1, 73, 127
1, 45408, Note_on_c, 1, 66, 127
1, 45408, Note_on_c, 1, 54, 127
1, 45453, Note_off_c, 1, 73, 0
1, 45456, Note_on_c, 1, 71, 127
1, 45497, Note_off_c, 1, 66, 0
1, 45497, Note_off_c, 1, 54, 0
1, 45501, Note_off_c, 1, 71, 0
1, 45504, Note_on_c, 1, 78, 127
1, 45504, Note_on_c, 1, 74, 127
1, 45504, Note_on_c, 1, 50, 127
1, 45552, Note_off_c, 1, 78, 0
1, 45552, Note_on_c, 1, 71, 127
1, 45593, Note_off_c, 1, 50, 0
1, 45597, Note_off_c, 1, 71, 0
1, 45600, Note_on_c, 1, 80, 127
1, 45600, Note_on_c, 1, 47, 127
1, 45648, Note_off_c, 1, 80, 0
1, 45681, Note_off_c, 1, 74, 0
1, 45689, Note_off_c, 1, 47, 0
1, 45696, Note_on_c, 1, 81, 127
1, 45696, Note_on_c, 1, 73, 127
1, 45696, Note_on_c, 1, 42, 127
1, 45741, Note_off_c, 1, 73, 0
1, 45744, Note_on_c, 1, 69, 127
1, 45785, Note_off_c, 1, 42, 0
1, 45789, Note_off_c, 1, 69, 0
1, 45792, Note_on_c, 1, 71, 127
1, 45792, Note_on_c, 1, 54, 127
1, 45837, Note_off_c, 1, 71, 0
1, 45881, Note_off_c, 1, 54, 0
1, 45888, Note_on_c, 1, 66, 127
1, 45888, Note_on_c, 1, 51, 127
1, 45933, Note_off_c, 1, 66, 0
1, 45977, Note_off_c, 1, 51, 0
1, 45984, Note_on_c, 1, 63, 127
1, 46029, Note_off_c, 1, 63, 0
1, 46080, Note_on_c, 1, 44, 127
1, 46125, Note_off_c, 1, 81, 0
1, 46128, Note_on_c, 1, 83, 127
1, 46128, Note_on_c, 1, 68, 127
1, 46169, Note_off_c, 1, 44, 0
1, 46173, Note_off_c, 1, 83, 0
1, 46173, Note_off_c, 1, 68, 0
1, 46176, Note_on_c, 1, 85, 127
1, 46176, Note_on_c, 1, 69, 127
1, 46176, Note_on_c, 1, 53, 127
1, 46221, Note_off_c, 1, 85, 0
1, 46221, Note_off_c, 1, 69, 0
1, 46224, Note_on_c, 1, 86, 127
1, 46224, Note_on_c, 1, 71, 127
1, 46265, Note_off_c, 1, 53, 0
1, 46269, Note_off_c, 1, 86, 0
1, 46269, Note_off_c, 1, 71, 0
1, 46272, Note_on_c, 1, 80, 127
1, 46272, Note_on_c, 1, 65, 127
1, 46272, Note_on_c, 1, 49, 127
1, 46317, Note_off_c, 1, 65, 0
1, 46320, Note_on_c, 1, 71, 127
1, 46361, Note_off_c, 1, 49, 0
1, 46365, Note_off_c, 1, 71, 0
1, 46368, Note_on_c, 1, 61, 127
1, 46368, Note_on_c, 1, 53, 127
1, 46413, Note_off_c, 1, 61, 0
1, 46457, Note_off_c, 1, 53, 0
1, 46464, Note_on_c, 1, 69, 127
1, 46464, Note_on_c, 1, 42, 127
1, 46509, Note_off_c, 1, 80, 0
1, 46512, Note_on_c, 1, 78, 127
1, 46553, Note_off_c, 1, 69, 0
1, 46553, Note_off_c, 1, 42, 0
1, 46557, Note_off_c, 1, 78, 0
1, 46560, Note_on_c, 1, 83, 127
1, 46560, Note_on_c, 1, 66, 127
1, 46560, Note_on_c, 1, 50, 127
1, 46605, Note_off_c, 1, 83, 0
1, 46605, Note_off_c, 1, 50, 0
1, 46608, Note_on_c, 1, 81, 127
1, 46608, Note_on_c, 1, 49, 127
1, 46649, Note_off_c, 1, 66, 0
1, 46653, Note_off_c, 1, 81, 0
1, 46653, Note_off_c, 1, 49, 0
1, 46656, Note_on_c, 1, 80, 127
1, 46656, Note_on_c, 1, 78, 127
1, 46656, Note_on_c, 1, 47, 127
1, 46701, Note_off_c, 1, 80, 0
1, 46701, Note_off_c, 1, 47, 0
1, 46704, Note_on_c, 1, 49, 127
1, 46749, Note_off_c, 1, 49, 0
1, 46752, Note_on_c, 1, 77, 127
1, 46752, Note_on_c, 1, 50, 127
1, 46797, Note_off_c, 1, 77, 0
1, 46841, Note_off_c, 1, 50, 0
1, 46845, Note_off_c, 1, 78, 0
1, 46848, Note_on_c, 1, 80, 127
1, 46848, Note_on_c, 1, 77, 127
1, 46848, Note_on_c, 1, 50, 127
1, 46871, Note_off_c, 1, 50, 0
1, 46872, Note_on_c, 1, 52, 127
1, 46893, Note_off_c, 1, 80, 0
1, 46895, Note_off_c, 1, 52, 0
1, 46896, Note_on_c, 1, 78, 127
1, 46937, Note_off_c, 1, 77, 0
1, 46941, Note_off_c, 1, 78, 0
1, 46944, Note_on_c, 1, 77, 127
1, 46944, Note_on_c, 1, 80, 127
1, 46944, Note_on_c, 1, 49, 127
1, 46989, Note_off_c, 1, 77, 0
1, 46992, Note_on_c, 1, 75, 127
1, 47033, Note_off_c, 1, 80, 0
1, 47033, Note_off_c, 1, 49, 0
1, 47037, Note_off_c, 1, 75, 0
1, 47040, Note_on_c, 1, 73, 127
1, 47040, Note_on_c, 1, 77, 127
1, 47085, Note_off_c, 1, 73, 0
1, 47088, Note_on_c, 1, 71, 127
1, 47129, Note_off_c, 1, 77, 0
1, 47133, Note_off_c, 1, 71, 0
1, 47136, Note_on_c, 1, 69, 127
1, 47136, Note_on_c, 1, 73, 127
1, 47136, Note_on_c, 1, 47, 127
1, 47181, Note_off_c, 1, 69, 0
1, 47184, Note_on_c, 1, 68, 127
1, 47225, Note_off_c, 1, 73, 0
1, 47225, Note_off_c, 1, 47, 0
1, 47229, Note_off_c, 1, 68, 0
1, 47232, Note_on_c, 1, 66, 127
1, 47232, Note_on_c, 1, 45, 127
1, 47277, Note_off_c, 1, 45, 0
1, 47280, Note_on_c, 1, 68, 127
1, 47280, Note_on_c, 1, 47, 127
1, 47321, Note_off_c, 1, 66, 0
1, 47325, Note_off_c, 1, 68, 0
1, 47325, Note_off_c, 1, 47, 0
1, 47328, Note_on_c, 1, 78, 127
1, 47328, Note_on_c, 1, 69, 127
1, 47328, Note_on_c, 1, 49, 127
1, 47373, Note_off_c, 1, 69, 0
1, 47373, Note_off_c, 1, 49, 0
1, 47376, Note_on_c, 1, 71, 127
1, 47376, Note_on_c, 1, 42, 127
1, 47421, Note_off_c, 1, 71, 0
1, 47421, Note_off_c, 1, 42, 0
1, 47424, Note_on_c, 1, 73, 127
1, 47424, Note_on_c, 1, 45, 127
1, 47469, Note_off_c, 1, 73, 0
1, 47513, Note_off_c, 1, 45, 0
1, 47517, Note_off_c, 1, 78, 0
1, 47520, Note_on_c, 1, 77, 127
1, 47520, Note_on_c, 1, 71, 127
1, 47520, Note_on_c, 1, 44, 127
1, 47565, Note_off_c, 1, 71, 0
1, 47568, Note_on_c, 1, 80, 127
1, 47609, Note_off_c, 1, 77, 0
1, 47609, Note_off_c, 1, 44, 0
1, 47613, Note_off_c, 1, 80, 0
1, 47616, Note_on_c, 1, 78, 127
1, 47616, Note_on_c, 1, 81, 127
1, 47616, Note_on_c, 1, 42, 127
1, 47661, Note_off_c, 1, 81, 0
1, 47661, Note_off_c, 1, 42, 0
1, 47664, Note_on_c, 1, 69, 127
1, 47664, Note_on_c, 1, 54, 127
1, 47705, Note_off_c, 1, 78, 0
1, 47709, Note_off_c, 1, 69, 0
1, 47709, Note_off_c, 1, 54, 0
1, 47712, Note_on_c, 1, 73, 127
1, 47712, Note_on_c, 1, 71, 127
1, 47712, Note_on_c, 1, 56, 127
1, 47757, Note_off_c, 1, 71, 0
1, 47757, Note_off_c, 1, 56, 0
1, 47760, Note_on_c, 1, 57, 127
1, 47805, Note_off_c, 1, 73, 0
1, 47805, Note_off_c, 1, 57, 0
1, 47808, Note_on_c, 1, 78, 127
1, 47808, Note_on_c, 1, 66, 127
1, 47808, Note_on_c, 1, 51, 127
1, 47853, Note_off_c, 1, 66, 0
1, 47853, Note_off_c, 1, 51, 0
1, 47856, Note_on_c, 1, 71, 127
1, 47856, Note_on_c, 1, 57, 127
1, 47901, Note_off_c, 1, 71, 0
1, 47901, Note_off_c, 1, 57, 0
1, 47904, Note_on_c, 1, 63, 127
1, 47904, Note_on_c, 1, 47, 127
1, 47949, Note_off_c, 1, 63, 0
1, 47949, Note_off_c, 1, 47, 0
1, 48000, Note_on_c, 1, 55, 127
1, 48045, Note_off_c, 1, 55, 0
1, 48048, Note_on_c, 1, 67, 127
1, 48048, Note_on_c, 1, 52, 127
1, 48089, Note_off_c, 1, 78, 0
1, 48093, Note_off_c, 1, 67, 0
1, 48093, Note_off_c, 1, 52, 0
1, 48096, Note_on_c, 1, 71, 127
1, 48096, Note_on_c, 1, 69, 127
1, 48096, Note_on_c, 1, 54, 127
1, 48141, Note_off_c, 1, 69, 0
1, 48141, Note_off_c, 1, 54, 0
1, 48144, Note_on_c, 1, 55, 127
1, 48189, Note_off_c, 1, 71, 0
1, 48189, Note_off_c, 1, 55, 0
1, 48192, Note_on_c, 1, 76, 127
1, 48192, Note_on_c, 1, 64, 127
1, 48192, Note_on_c, 1, 49, 127
1, 48237, Note_off_c, 1, 64, 0
1, 48237, Note_off_c, 1, 49, 0
1, 48240, Note_on_c, 1, 69, 127
1, 48240, Note_on_c, 1, 55, 127
1, 48285, Note_off_c, 1, 69, 0
1, 48285, Note_off_c, 1, 55, 0
1, 48288, Note_on_c, 1, 61, 127
1, 48288, Note_on_c, 1, 45, 127
1, 48333, Note_off_c, 1, 61, 0
1, 48333, Note_off_c, 1, 45, 0
1, 48384, Note_on_c, 1, 54, 127
1, 48429, Note_off_c, 1, 76, 0
1, 48432, Note_on_c, 1, 78, 127
1, 48432, Note_on_c, 1, 74, 127
1, 48473, Note_off_c, 1, 54, 0
1, 48477, Note_off_c, 1, 78, 0
1, 48477, Note_off_c, 1, 74, 0
1, 48480, Note_on_c, 1, 79, 127
1, 48480, Note_on_c, 1, 76, 127
1, 48480, Note_on_c, 1, 59, 127
1, 48525, Note_off_c, 1, 79, 0
1, 48525, Note_off_c, 1, 76, 0
1, 48528, Note_on_c, 1, 81, 127
1, 48528, Note_on_c, 1, 78, 127
1, 48569, Note_off_c, 1, 59, 0
1, 48573, Note_off_c, 1, 81, 0
1, 48573, Note_off_c, 1, 78, 0
1, 48576, Note_on_c, 1, 74, 127
1, 48576, Note_on_c, 1, 71, 127
1, 48576, Note_on_c, 1, 56, 127
1, 48621, Note_off_c, 1, 71, 0
1, 48624, Note_on_c, 1, 78, 127
1, 48665, Note_off_c, 1, 56, 0
1, 48669, Note_off_c, 1, 78, 0
1, 48672, Note_on_c, 1, 68, 127
1, 48672, Note_on_c, 1, 59, 127
1, 48717, Note_off_c, 1, 68, 0
1, 48761, Note_off_c, 1, 59, 0
1, 48768, Note_on_c, 1, 76, 127
1, 48768, Note_on_c, 1, 61, 127
1, 48813, Note_off_c, 1, 74, 0
1, 48813, Note_off_c, 1, 76, 0
1, 48816, Note_on_c, 1, 73, 127
1, 48857, Note_off_c, 1, 61, 0
1, 48861, Note_off_c, 1, 73, 0
1, 48864, Note_on_c, 1, 78, 127
1, 48864, Note_on_c, 1, 74, 127
1, 48864, Note_on_c, 1, 58, 127
1, 48909, Note_off_c, 1, 78, 0
1, 48909, Note_off_c, 1, 74, 0
1, 48912, Note_on_c, 1, 79, 127
1, 48912, Note_on_c, 1, 76, 127
1, 48953, Note_off_c, 1, 58, 0
1, 48957, Note_off_c, 1, 79, 0
1, 48957, Note_off_c, 1, 76, 0
1, 48960, Note_on_c, 1, 73, 127
1, 48960, Note_on_c, 1, 70, 127
1, 48960, Note_on_c, 1, 54, 127
1, 49005, Note_off_c, 1, 70, 0
1, 49008, Note_on_c, 1, 76, 127
1, 49049, Note_off_c, 1, 73, 0
1, 49049, Note_off_c, 1, 54, 0
1, 49053, Note_off_c, 1, 76, 0
1, 49056, Note_on_c, 1, 66, 127
1, 49056, Note_on_c, 1, 58, 127
1, 49101, Note_off_c, 1, 66, 0
1, 49104, Note_on_c, 1, 76, 127
1, 49145, Note_off_c, 1, 58, 0
1, 49149, Note_off_c, 1, 76, 0
1, 49152, Note_on_c, 1, 78, 127
1, 49152, Note_on_c, 1, 74, 127
1, 49152, Note_on_c, 1, 59, 127
1, 49197, Note_off_c, 1, 59, 0
1, 49200, Note_on_c, 1, 61, 127
1, 49241, Note_off_c, 1, 78, 0
1, 49241, Note_off_c, 1, 74, 0
1, 49245, Note_off_c, 1, 61, 0
1, 49248, Note_on_c, 1, 79, 127
1, 49248, Note_on_c, 1, 73, 127
1, 49248, Note_on_c, 1, 64, 127
1, 49293, Note_off_c, 1, 79, 0
1, 49293, Note_off_c, 1, 73, 0
1, 49293, Note_off_c, 1, 64, 0
1, 49296, Note_on_c, 1, 78, 127
1, 49296, Note_on_c, 1, 74, 127
1, 49296, Note_on_c, 1, 62, 127
1, 49341, Note_off_c, 1, 78, 0
1, 49341, Note_off_c, 1, 74, 0
1, 49341, Note_off_c, 1, 62, 0
1, 49344, Note_on_c, 1, 76, 127
1, 49344, Note_on_c, 1, 61, 127
1, 49389, Note_off_c, 1, 76, 0
1, 49389, Note_off_c, 1, 61, 0
1, 49392, Note_on_c, 1, 78, 127
1, 49392, Note_on_c, 1, 74, 127
1, 49392, Note_on_c, 1, 59, 127
1, 49437, Note_off_c, 1, 78, 0
1, 49437, Note_off_c, 1, 74, 0
1, 49437, Note_off_c, 1, 59, 0
1, 49440, Note_on_c, 1, 79, 127
1, 49440, Note_on_c, 1, 73, 127
1, 49440, Note_on_c, 1, 58, 127
1, 49485, Note_off_c, 1, 73, 0
1, 49485, Note_off_c, 1, 58, 0
1, 49488, Note_on_c, 1, 71, 127
1, 49488, Note_on_c, 1, 59, 127
1, 49529, Note_off_c, 1, 79, 0
1, 49533, Note_off_c, 1, 71, 0
1, 49533, Note_off_c, 1, 59, 0
1, 49536, Note_on_c, 1, 79, 127
1, 49536, Note_on_c, 1, 70, 127
1, 49536, Note_on_c, 1, 61, 127
1, 49559, Note_off_c, 1, 79, 0
1, 49560, Note_on_c, 1, 81, 127
1, 49581, Note_off_c, 1, 61, 0
1, 49583, Note_off_c, 1, 81, 0
1, 49584, Note_on_c, 1, 59, 127
1, 49625, Note_off_c, 1, 70, 0
1, 49629, Note_off_c, 1, 59, 0
1, 49632, Note_on_c, 1, 78, 127
1, 49632, Note_on_c, 1, 73, 127
1, 49632, Note_on_c, 1, 58, 127
1, 49677, Note_off_c, 1, 58, 0
1, 49680, Note_on_c, 1, 56, 127
1, 49721, Note_off_c, 1, 78, 0
1, 49721, Note_off_c, 1, 73, 0
1, 49725, Note_off_c, 1, 56, 0
1, 49728, Note_on_c, 1, 70, 127
1, 49728, Note_on_c, 1, 54, 127
1, 49773, Note_off_c, 1, 54, 0
1, 49776, Note_on_c, 1, 52, 127
1, 49817, Note_off_c, 1, 70, 0
1, 49821, Note_off_c, 1, 52, 0
1, 49824, Note_on_c, 1, 76, 127
1, 49824, Note_on_c, 1, 66, 127
1, 49824, Note_on_c, 1, 50, 127
1, 49869, Note_off_c, 1, 50, 0
1, 49872, Note_on_c, 1, 49, 127
1, 49913, Note_off_c, 1, 76, 0
1, 49913, Note_off_c, 1, 66, 0
1, 49917, Note_off_c, 1, 49, 0
1, 49920, Note_on_c, 1, 74, 127
1, 49920, Note_on_c, 1, 71, 127
1, 49920, Note_on_c, 1, 47, 127
1, 49965, Note_off_c, 1, 74, 0
1, 49968, Note_on_c, 1, 76, 127
1, 50009, Note_off_c, 1, 71, 0
1, 50009, Note_off_c, 1, 47, 0
1, 50013, Note_off_c, 1, 76, 0
1, 50016, Note_on_c, 1, 78, 127
1, 50016, Note_on_c, 1, 83, 127
1, 50016, Note_on_c, 1, 50, 127
1, 50061, Note_off_c, 1, 78, 0
1, 50064, Note_on_c, 1, 71, 127
1, 50105, Note_off_c, 1, 50, 0
1, 50109, Note_off_c, 1, 71, 0
1, 50112, Note_on_c, 1, 74, 127
1, 50112, Note_on_c, 1, 52, 127
1, 50193, Note_off_c, 1, 83, 0
1, 50201, Note_off_c, 1, 74, 0
1, 50201, Note_off_c, 1, 52, 0
1, 50208, Note_on_c, 1, 73, 127
1, 50208, Note_on_c, 1, 82, 127
1, 50208, Note_on_c, 1, 54, 127
1, 50231, Note_off_c, 1, 73, 0
1, 50232, Note_on_c, 1, 74, 127
1, 50255, Note_off_c, 1, 74, 0
1, 50297, Note_off_c, 1, 82, 0
1, 50297, Note_off_c, 1, 54, 0
1, 50304, Note_on_c, 1, 71, 127
1, 50304, Note_on_c, 1, 83, 127
1, 50304, Note_on_c, 1, 55, 127
1, 50349, Note_off_c, 1, 71, 0
1, 50352, Note_on_c, 1, 74, 127
1, 50393, Note_off_c, 1, 55, 0
1, 50397, Note_off_c, 1, 74, 0
1, 50400, Note_on_c, 1, 73, 127
1, 50400, Note_on_c, 1, 57, 127
1, 50445, Note_off_c, 1, 73, 0
1, 50489, Note_off_c, 1, 57, 0
1, 50496, Note_on_c, 1, 76, 127
1, 50544, Note_off_c, 1, 76, 0
1, 50592, Note_on_c, 1, 78, 127
1, 50592, Note_on_c, 1, 54, 127
1, 50640, Note_off_c, 1, 78, 0
1, 50681, Note_off_c, 1, 54, 0
1, 50688, Note_on_c, 1, 79, 127
1, 50688, Note_on_c, 1, 52, 127
1, 50736, Note_off_c, 1, 79, 0
1, 50777, Note_off_c, 1, 52, 0
1, 50784, Note_on_c, 1, 50, 127
1, 50873, Note_off_c, 1, 50, 0
1, 50880, Note_on_c, 1, 49, 127
1, 50969, Note_off_c, 1, 49, 0
1, 51264, Note_on_c, 1, 47, 127
1, 51353, Note_off_c, 1, 47, 0
1, 51545, Note_off_c, 1, 83, 0
1, 51552, Note_on_c, 1, 78, 127
1, 51552, Note_on_c, 1, 71, 127
1, 51552, Note_on_c, 1, 50, 127
1, 51597, Note_off_c, 1, 78, 0
1, 51600, Note_on_c, 1, 76, 127
1, 51641, Note_off_c, 1, 71, 0
1, 51641, Note_off_c, 1, 50, 0
1, 51645, Note_off_c, 1, 76, 0
1, 51648, Note_on_c, 1, 82, 127
1, 51648, Note_on_c, 1, 76, 127
1, 51648, Note_on_c, 1, 49, 127
1, 51696, Note_off_c, 1, 82, 0
1, 51737, Note_off_c, 1, 49, 0
1, 51744, Note_on_c, 1, 83, 127
1, 51744, Note_on_c, 1, 47, 127
1, 51792, Note_off_c, 1, 83, 0
1, 51833, Note_off_c, 1, 47, 0
1, 51840, Note_on_c, 1, 85, 127
1, 51840, Note_on_c, 1, 46, 127
1, 51885, Note_off_c, 1, 76, 0
1, 51888, Note_on_c, 1, 73, 127
1, 51929, Note_off_c, 1, 46, 0
1, 51933, Note_off_c, 1, 73, 0
1, 51936, Note_on_c, 1, 74, 127
1, 51936, Note_on_c, 1, 58, 127
1, 51981, Note_off_c, 1, 74, 0
1, 52025, Note_off_c, 1, 58, 0
1, 52032, Note_on_c, 1, 70, 127
1, 52032, Note_on_c, 1, 54, 127
1, 52077, Note_off_c, 1, 70, 0
1, 52121, Note_off_c, 1, 54, 0
1, 52128, Note_on_c, 1, 66, 127
1, 52173, Note_off_c, 1, 66, 0
1, 52224, Note_on_c, 1, 59, 127
1, 52269, Note_off_c, 1, 59, 0
1, 52272, Note_on_c, 1, 61, 127
1, 52313, Note_off_c, 1, 85, 0
1, 52317, Note_off_c, 1, 61, 0
1, 52320, Note_on_c, 1, 78, 127
1, 52368, Note_on_c, 1, 57, 127
1, 52409, Note_off_c, 1, 78, 0
1, 52413, Note_off_c, 1, 57, 0
1, 52416, Note_on_c, 1, 55, 127
1, 52461, Note_off_c, 1, 55, 0
1, 52512, Note_on_c, 1, 81, 127
1, 52512, Note_on_c, 1, 75, 127
1, 52512, Note_on_c, 1, 54, 127
1, 52557, Note_off_c, 1, 54, 0
1, 52560, Note_on_c, 1, 59, 127
1, 52601, Note_off_c, 1, 81, 0
1, 52601, Note_off_c, 1, 75, 0
1, 52605, Note_off_c, 1, 59, 0
1, 52608, Note_on_c, 1, 79, 127
1, 52608, Note_on_c, 1, 76, 127
1, 52608, Note_on_c, 1, 52, 127
1, 52653, Note_off_c, 1, 76, 0
1, 52653, Note_off_c, 1, 52, 0
1, 52656, Note_on_c, 1, 74, 127
1, 52656, Note_on_c, 1, 54, 127
1, 52697, Note_off_c, 1, 79, 0
1, 52701, Note_off_c, 1, 74, 0
1, 52701, Note_off_c, 1, 54, 0
1, 52704, Note_on_c, 1, 78, 127
1, 52704, Note_on_c, 1, 73, 127
1, 52704, Note_on_c, 1, 52, 127
1, 52749, Note_off_c, 1, 73, 0
1, 52749, Note_off_c, 1, 52, 0
1, 52752, Note_on_c, 1, 71, 127
1, 52752, Note_on_c, 1, 50, 127
1, 52793, Note_off_c, 1, 78, 0
1, 52797, Note_off_c, 1, 71, 0
1, 52797, Note_off_c, 1, 50, 0
1, 52800, Note_on_c, 1, 76, 127
1, 52800, Note_on_c, 1, 70, 127
1, 52800, Note_on_c, 1, 49, 127
1, 52845, Note_off_c, 1, 70, 0
1, 52845, Note_off_c, 1, 49, 0
1, 52848, Note_on_c, 1, 79, 127
1, 52848, Note_on_c, 1, 52, 127
1, 52893, Note_off_c, 1, 79, 0
1, 52893, Note_off_c, 1, 52, 0
1, 52896, Note_on_c, 1, 71, 127
1, 52896, Note_on_c, 1, 47, 127
1, 52941, Note_off_c, 1, 71, 0
1, 52941, Note_off_c, 1, 47, 0
1, 52992, Note_on_c, 1, 73, 127
1, 52992, Note_on_c, 1, 46, 127
1, 53037, Note_off_c, 1, 76, 0
1, 53037, Note_off_c, 1, 73, 0
1, 53081, Note_off_c, 1, 46, 0
1, 53088, Note_on_c, 1, 78, 127
1, 53088, Note_on_c, 1, 74, 127
1, 53088, Note_on_c, 1, 42, 127
1, 53133, Note_off_c, 1, 78, 0
1, 53133, Note_off_c, 1, 74, 0
1, 53136, Note_on_c, 1, 76, 127
1, 53136, Note_on_c, 1, 73, 127
1, 53177, Note_off_c, 1, 42, 0
1, 53181, Note_off_c, 1, 76, 0
1, 53181, Note_off_c, 1, 73, 0
1, 53184, Note_on_c, 1, 74, 127
1, 53184, Note_on_c, 1, 71, 127
1, 53184, Note_on_c, 1, 47, 127
1, 53232, Note_off_c, 1, 74, 0
1, 53273, Note_off_c, 1, 47, 0
1, 53277, Note_off_c, 1, 71, 0
1, 53280, Note_on_c, 1, 76, 127
1, 53280, Note_on_c, 1, 83, 127
1, 53280, Note_on_c, 1, 43, 127
1, 53325, Note_off_c, 1, 83, 0
1, 53328, Note_off_c, 1, 76, 0
1, 53328, Note_on_c, 1, 71, 127
1, 53328, Note_on_c, 1, 82, 127
1, 53369, Note_off_c, 1, 43, 0
1, 53373, Note_off_c, 1, 71, 0
1, 53373, Note_off_c, 1, 82, 0
1, 53376, Note_on_c, 1, 78, 127
1, 53376, Note_on_c, 1, 83, 127
1, 53376, Note_on_c, 1, 38, 127
1, 53421, Note_off_c, 1, 83, 0
1, 53424, Note_off_c, 1, 78, 0
1, 53424, Note_on_c, 1, 71, 127
1, 53424, Note_on_c, 1, 74, 127
1, 53465, Note_off_c, 1, 38, 0
1, 53469, Note_off_c, 1, 71, 0
1, 53469, Note_off_c, 1, 74, 0
1, 53472, Note_on_c, 1, 79, 127
1, 53472, Note_on_c, 1, 73, 127
1, 53472, Note_on_c, 1, 40, 127
1, 53517, Note_off_c, 1, 73, 0
1, 53520, Note_on_c, 1, 71, 127
1, 53561, Note_off_c, 1, 79, 0
1, 53561, Note_off_c, 1, 40, 0
1, 53565, Note_off_c, 1, 71, 0
1, 53568, Note_on_c, 1, 74, 127
1, 53568, Note_on_c, 1, 70, 127
1, 53568, Note_on_c, 1, 42, 127
1, 53591, Note_off_c, 1, 74, 0
1, 53591, Note_off_c, 1, 70, 0
1, 53592, Note_on_c, 1, 76, 127
1, 53592, Note_on_c, 1, 71, 127
1, 53615, Note_off_c, 1, 76, 0
1, 53615, Note_off_c, 1, 71, 0
1, 53664, Note_on_c, 1, 73, 127
1, 53712, Note_off_c, 1, 73, 0
1, 53745, Note_off_c, 1, 42, 0
1, 53760, Note_on_c, 1, 71, 127
1, 53760, Note_on_c, 1, 47, 127
1, 53937, Note_off_c, 1, 71, 0
1, 53937, Note_off_c, 1, 47, 0
1, 53937, End_track
0, 0, End_of_file