0, 0, Header, 1, 1, 480
1, 0, Start_track
1, 0, Title_t, "Test"
1, 0, Tempo, 500000
1, 0, Instrument_name_t, "Church Organ"
1, 0, Note_on_c, 1, 52, 127
1, 24, Note_on_c, 1, 76, 127
1, 47, Note_off_c, 1, 76, 0
1, 48, Note_on_c, 1, 75, 127
1, 71, Note_off_c, 1, 75, 0
1, 89, Note_off_c, 1, 52, 0
1, 96, Note_on_c, 1, 78, 127
1, 119, Note_off_c, 1, 78, 0
1, 120, Note_on_c, 1, 76, 127
1, 143, Note_off_c, 1, 76, 0
1, 144, Note_on_c, 1, 75, 127
1, 167, Note_off_c, 1, 75, 0
1, 168, Note_on_c, 1, 76, 127
1, 191, Note_off_c, 1, 76, 0
1, 192, Note_on_c, 1, 80, 127
1, 192, Note_on_c, 1, 40, 127
1, 215, Note_off_c, 1, 80, 0
1, 216, Note_on_c, 1, 76, 127
1, 239, Note_off_c, 1, 76, 0
1, 240, Note_on_c, 1, 75, 127
1, 263, Note_off_c, 1, 75, 0
1, 281, Note_off_c, 1, 40, 0
1, 288, Note_on_c, 1, 81, 127
1, 288, Note_on_c, 1, 42, 127
1, 311, Note_off_c, 1, 81, 0
1, 312, Note_on_c, 1, 76, 127
1, 335, Note_off_c, 1, 76, 0
1, 336, Note_on_c, 1, 75, 127
1, 359, Note_off_c, 1, 75, 0
1, 377, Note_off_c, 1, 42, 0
1, 384, Note_on_c, 1, 80, 127
1, 407, Note_off_c, 1, 80, 0
1, 408, Note_on_c, 1, 76, 127
1, 431, Note_off_c, 1, 76, 0
1, 432, Note_on_c, 1, 75, 127
1, 455, Note_off_c, 1, 75, 0
1, 456, Note_on_c, 1, 76, 127
1, 479, Note_off_c, 1, 76, 0
1, 480, Note_on_c, 1, 81, 127
1, 480, Note_on_c, 1, 54, 127
1, 503, Note_off_c, 1, 81, 0
1, 504, Note_on_c, 1, 76, 127
1, 527, Note_off_c, 1, 76, 0
1, 528, Note_on_c, 1, 75, 127
1, 551, Note_off_c, 1, 75, 0
1, 569, Note_off_c, 1, 54, 0
1, 576, Note_on_c, 1, 83, 127
1, 576, Note_on_c, 1, 56, 127
1, 599, Note_off_c, 1, 83, 0
1, 600, Note_on_c, 1, 76, 127
1, 623, Note_off_c, 1, 76, 0
1, 624, Note_on_c, 1, 75, 127
1, 647, Note_off_c, 1, 75, 0
1, 665, Note_off_c, 1, 56, 0
1, 672, Note_on_c, 1, 81, 127
1, 695, Note_off_c, 1, 81, 0
1, 696, Note_on_c, 1, 76, 127
1, 719, Note_off_c, 1, 76, 0
1, 720, Note_on_c, 1, 75, 127
1, 743, Note_off_c, 1, 75, 0
1, 744, Note_on_c, 1, 76, 127
1, 767, Note_off_c, 1, 76, 0
1, 768, Note_on_c, 1, 83, 127
1, 768, Note_on_c, 1, 44, 127
1, 791, Note_off_c, 1, 83, 0
1, 792, Note_on_c, 1, 76, 127
1, 815, Note_off_c, 1, 76, 0
1, 816, Note_on_c, 1, 75, 127
1, 839, Note_off_c, 1, 75, 0
1, 857, Note_off_c, 1, 44, 0
1, 864, Note_on_c, 1, 85, 127
1, 864, Note_on_c, 1, 45, 127
1, 887, Note_off_c, 1, 85, 0
1, 888, Note_on_c, 1, 83, 127
1, 909, Note_off_c, 1, 45, 0
1, 911, Note_off_c, 1, 83, 0
1, 912, Note_on_c, 1, 85, 127
1, 912, Note_on_c, 1, 47, 127
1, 935, Note_off_c, 1, 85, 0
1, 936, Note_on_c, 1, 83, 127
1, 957, Note_off_c, 1, 47, 0
1, 959, Note_off_c, 1, 83, 0
1, 960, Note_on_c, 1, 81, 127
1, 960, Note_on_c, 1, 49, 127
1, 983, Note_off_c, 1, 81, 0
1, 984, Note_on_c, 1, 80, 127
1, 1005, Note_off_c, 1, 49, 0
1, 1007, Note_off_c, 1, 80, 0
1, 1008, Note_on_c, 1, 81, 127
1, 1008, Note_on_c, 1, 47, 127
1, 1031, Note_off_c, 1, 81, 0
1, 1032, Note_on_c, 1, 80, 127
1, 1053, Note_off_c, 1, 47, 0
1, 1055, Note_off_c, 1, 80, 0
1, 1056, Note_on_c, 1, 78, 127
1, 1056, Note_on_c, 1, 45, 127
1, 1079, Note_off_c, 1, 78, 0
1, 1080, Note_on_c, 1, 76, 127
1, 1101, Note_off_c, 1, 45, 0
1, 1103, Note_off_c, 1, 76, 0
1, 1104, Note_on_c, 1, 78, 127
1, 1104, Note_on_c, 1, 42, 127
1, 1127, Note_off_c, 1, 78, 0
1, 1128, Note_on_c, 1, 76, 127
1, 1149, Note_off_c, 1, 42, 0
1, 1151, Note_off_c, 1, 76, 0
1, 1152, Note_on_c, 1, 75, 127
1, 1152, Note_on_c, 1, 47, 127
1, 1176, Note_on_c, 1, 71, 127
1, 1197, Note_off_c, 1, 75, 0
1, 1199, Note_off_c, 1, 71, 0
1, 1200, Note_on_c, 1, 70, 127
1, 1223, Note_off_c, 1, 70, 0
1, 1241, Note_off_c, 1, 47, 0
1, 1248, Note_on_c, 1, 75, 127
1, 1248, Note_on_c, 1, 73, 127
1, 1271, Note_off_c, 1, 73, 0
1, 1272, Note_on_c, 1, 71, 127
1, 1293, Note_off_c, 1, 75, 0
1, 1295, Note_off_c, 1, 71, 0
1, 1296, Note_on_c, 1, 78, 127
1, 1296, Note_on_c, 1, 70, 127
1, 1319, Note_off_c, 1, 70, 0
1, 1320, Note_on_c, 1, 71, 127
1, 1341, Note_off_c, 1, 78, 0
1, 1343, Note_off_c, 1, 71, 0
1, 1344, Note_on_c, 1, 83, 127
1, 1344, Note_on_c, 1, 75, 127
1, 1344, Note_on_c, 1, 59, 127
1, 1367, Note_off_c, 1, 75, 0
1, 1368, Note_on_c, 1, 71, 127
1, 1391, Note_off_c, 1, 71, 0
1, 1392, Note_on_c, 1, 70, 127
1, 1415, Note_off_c, 1, 70, 0
1, 1433, Note_off_c, 1, 59, 0
1, 1440, Note_on_c, 1, 76, 127
1, 1440, Note_on_c, 1, 61, 127
1, 1463, Note_off_c, 1, 76, 0
1, 1485, Note_off_c, 1, 83, 0
1, 1488, Note_on_c, 1, 80, 127
1, 1529, Note_off_c, 1, 61, 0
1, 1533, Note_off_c, 1, 80, 0
1, 1536, Note_on_c, 1, 78, 127
1, 1536, Note_on_c, 1, 75, 127
1, 1559, Note_off_c, 1, 75, 0
1, 1560, Note_on_c, 1, 71, 127
1, 1581, Note_off_c, 1, 78, 0
1, 1583, Note_off_c, 1, 71, 0
1, 1584, Note_on_c, 1, 76, 127
1, 1584, Note_on_c, 1, 70, 127
1, 1607, Note_off_c, 1, 70, 0
1, 1608, Note_on_c, 1, 71, 127
1, 1629, Note_off_c, 1, 76, 0
1, 1631, Note_off_c, 1, 71, 0
1, 1632, Note_on_c, 1, 83, 127
1, 1632, Note_on_c, 1, 76, 127
1, 1632, Note_on_c, 1, 49, 127
1, 1655, Note_off_c, 1, 76, 0
1, 1656, Note_on_c, 1, 71, 127
1, 1679, Note_off_c, 1, 71, 0
1, 1680, Note_on_c, 1, 70, 127
1, 1703, Note_off_c, 1, 70, 0
1, 1721, Note_off_c, 1, 49, 0
1, 1728, Note_on_c, 1, 78, 127
1, 1728, Note_on_c, 1, 51, 127
1, 1751, Note_off_c, 1, 78, 0
1, 1773, Note_off_c, 1, 83, 0
1, 1776, Note_on_c, 1, 75, 127
1, 1817, Note_off_c, 1, 51, 0
1, 1821, Note_off_c, 1, 75, 0
1, 1824, Note_on_c, 1, 73, 127
1, 1824, Note_on_c, 1, 76, 127
1, 1847, Note_off_c, 1, 76, 0
1, 1848, Note_on_c, 1, 71, 127
1, 1869, Note_off_c, 1, 73, 0
1, 1871, Note_off_c, 1, 71, 0
1, 1872, Note_on_c, 1, 71, 127
1, 1872, Note_on_c, 1, 70, 127
1, 1895, Note_off_c, 1, 70, 0
1, 1919, Note_off_c, 1, 71, 0
1, 1920, Note_on_c, 1, 83, 127
1, 1920, Note_on_c, 1, 78, 127
1, 1920, Note_on_c, 1, 39, 127
1, 1943, Note_off_c, 1, 78, 0
1, 1944, Note_on_c, 1, 71, 127
1, 1967, Note_off_c, 1, 71, 0
1, 1968, Note_on_c, 1, 70, 127
1, 1991, Note_off_c, 1, 70, 0
1, 2009, Note_off_c, 1, 39, 0
1, 2016, Note_on_c, 1, 80, 127
1, 2016, Note_on_c, 1, 40, 127
1, 2039, Note_off_c, 1, 80, 0
1, 2061, Note_off_c, 1, 83, 0
1, 2061, Note_off_c, 1, 40, 0
1, 2064, Note_on_c, 1, 75, 127
1, 2064, Note_on_c, 1, 80, 127
1, 2064, Note_on_c, 1, 42, 127
1, 2087, Note_off_c, 1, 80, 0
1, 2088, Note_on_c, 1, 78, 127
1, 2109, Note_off_c, 1, 75, 0
1, 2109, Note_off_c, 1, 42, 0
1, 2111, Note_off_c, 1, 78, 0
1, 2112, Note_on_c, 1, 76, 127
1, 2112, Note_on_c, 1, 44, 127
1, 2136, Note_on_c, 1, 75, 127
1, 2157, Note_off_c, 1, 76, 0
1, 2157, Note_off_c, 1, 44, 0
1, 2159, Note_off_c, 1, 75, 0
1, 2160, Note_on_c, 1, 78, 127
1, 2160, Note_on_c, 1, 76, 127
1, 2160, Note_on_c, 1, 42, 127
1, 2183, Note_off_c, 1, 76, 0
1, 2184, Note_on_c, 1, 75, 127
1, 2205, Note_off_c, 1, 78, 0
1, 2205, Note_off_c, 1, 42, 0
1, 2207, Note_off_c, 1, 75, 0
1, 2208, Note_on_c, 1, 80, 127
1, 2208, Note_on_c, 1, 73, 127
1, 2208, Note_on_c, 1, 40, 127
1, 2231, Note_off_c, 1, 73, 0
1, 2232, Note_on_c, 1, 71, 127
1, 2253, Note_off_c, 1, 80, 0
1, 2253, Note_off_c, 1, 40, 0
1, 2255, Note_off_c, 1, 71, 0
1, 2256, Note_on_c, 1, 76, 127
1, 2256, Note_on_c, 1, 73, 127
1, 2256, Note_on_c, 1, 37, 127
1, 2279, Note_off_c, 1, 73, 0
1, 2280, Note_on_c, 1, 71, 127
1, 2301, Note_off_c, 1, 76, 0
1, 2301, Note_off_c, 1, 37, 0
1, 2303, Note_off_c, 1, 71, 0
1, 2304, Note_on_c, 1, 73, 127
1, 2304, Note_on_c, 1, 70, 127
1, 2304, Note_on_c, 1, 42, 127
1, 2327, Note_off_c, 1, 73, 0
1, 2328, Note_on_c, 1, 78, 127
1, 2349, Note_off_c, 1, 42, 0
1, 2351, Note_off_c, 1, 78, 0
1, 2352, Note_on_c, 1, 46, 127
1, 2393, Note_off_c, 1, 70, 0
1, 2397, Note_off_c, 1, 46, 0
1, 2400, Note_on_c, 1, 70, 127
1, 2400, Note_on_c, 1, 49, 127
1, 2423, Note_off_c, 1, 70, 0
1, 2424, Note_on_c, 1, 76, 127
1, 2424, Note_on_c, 1, 73, 127
1, 2445, Note_off_c, 1, 49, 0
1, 2447, Note_off_c, 1, 76, 0
1, 2447, Note_off_c, 1, 73, 0
1, 2448, Note_on_c, 1, 73, 127
1, 2448, Note_on_c, 1, 70, 127
1, 2448, Note_on_c, 1, 54, 127
1, 2471, Note_off_c, 1, 73, 0
1, 2471, Note_off_c, 1, 70, 0
1, 2472, Note_on_c, 1, 76, 127
1, 2493, Note_off_c, 1, 54, 0
1, 2495, Note_off_c, 1, 76, 0
1, 2496, Note_on_c, 1, 66, 127
1, 2496, Note_on_c, 1, 76, 127
1, 2496, Note_on_c, 1, 58, 127
1, 2519, Note_off_c, 1, 66, 0
1, 2519, Note_off_c, 1, 76, 0
1, 2520, Note_on_c, 1, 73, 127
1, 2541, Note_off_c, 1, 58, 0
1, 2543, Note_off_c, 1, 73, 0
1, 2544, Note_on_c, 1, 73, 127
1, 2544, Note_on_c, 1, 70, 127
1, 2544, Note_on_c, 1, 54, 127
1, 2567, Note_off_c, 1, 73, 0
1, 2567, Note_off_c, 1, 70, 0
1, 2568, Note_on_c, 1, 76, 127
1, 2589, Note_off_c, 1, 54, 0
1, 2591, Note_off_c, 1, 76, 0
1, 2592, Note_on_c, 1, 66, 127
1, 2592, Note_on_c, 1, 75, 127
1, 2592, Note_on_c, 1, 47, 127
1, 2615, Note_off_c, 1, 75, 0
1, 2616, Note_on_c, 1, 83, 127
1, 2637, Note_off_c, 1, 66, 0
1, 2637, Note_off_c, 1, 47, 0
1, 2639, Note_off_c, 1, 83, 0
1, 2640, Note_on_c, 1, 75, 127
1, 2640, Note_on_c, 1, 78, 127
1, 2640, Note_on_c, 1, 51, 127
1, 2663, Note_off_c, 1, 78, 0
1, 2664, Note_on_c, 1, 83, 127
1, 2685, Note_off_c, 1, 75, 0
1, 2685, Note_off_c, 1, 51, 0
1, 2687, Note_off_c, 1, 83, 0
1, 2688, Note_on_c, 1, 75, 127
1, 2688, Note_on_c, 1, 54, 127
1, 2711, Note_off_c, 1, 75, 0
1, 2712, Note_on_c, 1, 78, 127
1, 2712, Note_on_c, 1, 81, 127
1, 2733, Note_off_c, 1, 54, 0
1, 2735, Note_off_c, 1, 78, 0
1, 2735, Note_off_c, 1, 81, 0
1, 2736, Note_on_c, 1, 75, 127
1, 2736, Note_on_c, 1, 78, 127
1, 2736, Note_on_c, 1, 59, 127
1, 2759, Note_off_c, 1, 75, 0
1, 2759, Note_off_c, 1, 78, 0
1, 2760, Note_on_c, 1, 81, 127
1, 2781, Note_off_c, 1, 59, 0
1, 2783, Note_off_c, 1, 81, 0
1, 2784, Note_on_c, 1, 81, 127
1, 2784, Note_on_c, 1, 71, 127
1, 2784, Note_on_c, 1, 63, 127
1, 2807, Note_off_c, 1, 81, 0
1, 2807, Note_off_c, 1, 71, 0
1, 2808, Note_on_c, 1, 78, 127
1, 2829, Note_off_c, 1, 63, 0
1, 2831, Note_off_c, 1, 78, 0
1, 2832, Note_on_c, 1, 75, 127
1, 2832, Note_on_c, 1, 78, 127
1, 2832, Note_on_c, 1, 59, 127
1, 2855, Note_off_c, 1, 75, 0
1, 2855, Note_off_c, 1, 78, 0
1, 2856, Note_on_c, 1, 81, 127
1, 2877, Note_off_c, 1, 59, 0
1, 2879, Note_off_c, 1, 81, 0
1, 2880, Note_on_c, 1, 80, 127
1, 2880, Note_on_c, 1, 71, 127
1, 2880, Note_on_c, 1, 52, 127
1, 2903, Note_off_c, 1, 80, 0
1, 2904, Note_on_c, 1, 76, 127
1, 2925, Note_off_c, 1, 71, 0
1, 2925, Note_off_c, 1, 52, 0
1, 2927, Note_off_c, 1, 76, 0
1, 2928, Note_on_c, 1, 71, 127
1, 2928, Note_on_c, 1, 80, 127
1, 2928, Note_on_c, 1, 56, 127
1, 2951, Note_off_c, 1, 71, 0
1, 2952, Note_on_c, 1, 76, 127
1, 2973, Note_off_c, 1, 80, 0
1, 2973, Note_off_c, 1, 56, 0
1, 2975, Note_off_c, 1, 76, 0
1, 2976, Note_on_c, 1, 68, 127
1, 2976, Note_on_c, 1, 59, 127
1, 2999, Note_off_c, 1, 68, 0
1, 3000, Note_on_c, 1, 74, 127
1, 3000, Note_on_c, 1, 71, 127
1, 3021, Note_off_c, 1, 59, 0
1, 3023, Note_off_c, 1, 74, 0
1, 3023, Note_off_c, 1, 71, 0
1, 3024, Note_on_c, 1, 71, 127
1, 3024, Note_on_c, 1, 68, 127
1, 3024, Note_on_c, 1, 64, 127
1, 3047, Note_off_c, 1, 71, 0
1, 3047, Note_off_c, 1, 68, 0
1, 3048, Note_on_c, 1, 74, 127
1, 3069, Note_off_c, 1, 64, 0
1, 3071, Note_off_c, 1, 74, 0
1, 3072, Note_on_c, 1, 64, 127
1, 3072, Note_on_c, 1, 74, 127
1, 3072, Note_on_c, 1, 66, 127
1, 3095, Note_off_c, 1, 64, 0
1, 3095, Note_off_c, 1, 74, 0
1, 3096, Note_on_c, 1, 71, 127
1, 3117, Note_off_c, 1, 66, 0
1, 3119, Note_off_c, 1, 71, 0
1, 3120, Note_on_c, 1, 71, 127
1, 3120, Note_on_c, 1, 68, 127
1, 3120, Note_on_c, 1, 63, 127
1, 3143, Note_off_c, 1, 71, 0
1, 3143, Note_off_c, 1, 68, 0
1, 3144, Note_on_c, 1, 74, 127
1, 3165, Note_off_c, 1, 63, 0
1, 3167, Note_off_c, 1, 74, 0
1, 3168, Note_on_c, 1, 73, 127
1, 3168, Note_on_c, 1, 69, 127
1, 3191, Note_off_c, 1, 73, 0
1, 3192, Note_on_c, 1, 81, 127
1, 3192, Note_on_c, 1, 76, 127
1, 3215, Note_off_c, 1, 81, 0
1, 3215, Note_off_c, 1, 76, 0
1, 3257, Note_off_c, 1, 69, 0
1, 3264, Note_on_c, 1, 85, 127
1, 3264, Note_on_c, 1, 81, 127
1, 3287, Note_off_c, 1, 85, 0
1, 3287, Note_off_c, 1, 81, 0
1, 3288, Note_on_c, 1, 81, 127
1, 3288, Note_on_c, 1, 76, 127
1, 3311, Note_off_c, 1, 81, 0
1, 3311, Note_off_c, 1, 76, 0
1, 3312, Note_on_c, 1, 76, 127
1, 3312, Note_on_c, 1, 73, 127
1, 3312, Note_on_c, 1, 57, 127
1, 3335, Note_off_c, 1, 76, 0
1, 3335, Note_off_c, 1, 73, 0
1, 3336, Note_on_c, 1, 81, 127
1, 3357, Note_off_c, 1, 57, 0
1, 3359, Note_off_c, 1, 81, 0
1, 3360, Note_on_c, 1, 73, 127
1, 3360, Note_on_c, 1, 69, 127
1, 3360, Note_on_c, 1, 45, 127
1, 3383, Note_off_c, 1, 73, 0
1, 3383, Note_off_c, 1, 69, 0
1, 3384, Note_on_c, 1, 76, 127
1, 3405, Note_off_c, 1, 45, 0
1, 3407, Note_off_c, 1, 76, 0
1, 3408, Note_on_c, 1, 71, 127
1, 3408, Note_on_c, 1, 68, 127
1, 3408, Note_on_c, 1, 57, 127
1, 3431, Note_off_c, 1, 71, 0
1, 3431, Note_off_c, 1, 68, 0
1, 3432, Note_on_c, 1, 74, 127
1, 3453, Note_off_c, 1, 57, 0
1, 3455, Note_off_c, 1, 74, 0
1, 3456, Note_on_c, 1, 73, 127
1, 3456, Note_on_c, 1, 69, 127
1, 3456, Note_on_c, 1, 57, 127
1, 3479, Note_off_c, 1, 73, 0
1, 3479, Note_off_c, 1, 69, 0
1, 3480, Note_on_c, 1, 78, 127
1, 3503, Note_off_c, 1, 78, 0
1, 3545, Note_off_c, 1, 57, 0
1, 3552, Note_on_c, 1, 81, 127
1, 3552, Note_on_c, 1, 78, 127
1, 3575, Note_off_c, 1, 81, 0
1, 3575, Note_off_c, 1, 78, 0
1, 3576, Note_on_c, 1, 78, 127
1, 3576, Note_on_c, 1, 73, 127
1, 3599, Note_off_c, 1, 78, 0
1, 3599, Note_off_c, 1, 73, 0
1, 3600, Note_on_c, 1, 73, 127
1, 3600, Note_on_c, 1, 69, 127
1, 3600, Note_on_c, 1, 57, 127
1, 3623, Note_off_c, 1, 73, 0
1, 3623, Note_off_c, 1, 69, 0
1, 3624, Note_on_c, 1, 78, 127
1, 3645, Note_off_c, 1, 57, 0
1, 3647, Note_off_c, 1, 78, 0
1, 3648, Note_on_c, 1, 69, 127
1, 3648, Note_on_c, 1, 66, 127
1, 3648, Note_on_c, 1, 45, 127
1, 3671, Note_off_c, 1, 69, 0
1, 3671, Note_off_c, 1, 66, 0
1, 3672, Note_on_c, 1, 73, 127
1, 3693, Note_off_c, 1, 45, 0
1, 3695, Note_off_c, 1, 73, 0
1, 3696, Note_on_c, 1, 68, 127
1, 3696, Note_on_c, 1, 65, 127
1, 3696, Note_on_c, 1, 57, 127
1, 3719, Note_off_c, 1, 68, 0
1, 3719, Note_off_c, 1, 65, 0
1, 3720, Note_on_c, 1, 71, 127
1, 3741, Note_off_c, 1, 57, 0
1, 3743, Note_off_c, 1, 71, 0
1, 3744, Note_on_c, 1, 69, 127
1, 3744, Note_on_c, 1, 66, 127
1, 3744, Note_on_c, 1, 57, 127
1, 3767, Note_off_c, 1, 69, 0
1, 3767, Note_off_c, 1, 66, 0
1, 3768, Note_on_c, 1, 73, 127
1, 3791, Note_off_c, 1, 73, 0
1, 3833, Note_off_c, 1, 57, 0
1, 3840, Note_on_c, 1, 78, 127
1, 3840, Note_on_c, 1, 73, 127
1, 3863, Note_off_c, 1, 78, 0
1, 3863, Note_off_c, 1, 73, 0
1, 3864, Note_on_c, 1, 73, 127
1, 3864, Note_on_c, 1, 69, 127
1, 3887, Note_off_c, 1, 73, 0
1, 3887, Note_off_c, 1, 69, 0
1, 3888, Note_on_c, 1, 69, 127
1, 3888, Note_on_c, 1, 66, 127
1, 3888, Note_on_c, 1, 57, 127
1, 3911, Note_off_c, 1, 69, 0
1, 3911, Note_off_c, 1, 66, 0
1, 3912, Note_on_c, 1, 73, 127
1, 3933, Note_off_c, 1, 57, 0
1, 3935, Note_off_c, 1, 73, 0
1, 3936, Note_on_c, 1, 66, 127
1, 3936, Note_on_c, 1, 73, 127
1, 3936, Note_on_c, 1, 45, 127
1, 3959, Note_off_c, 1, 66, 0
1, 3959, Note_off_c, 1, 73, 0
1, 3960, Note_on_c, 1, 69, 127
1, 3981, Note_off_c, 1, 45, 0
1, 3983, Note_off_c, 1, 69, 0
1, 3984, Note_on_c, 1, 64, 127
1, 3984, Note_on_c, 1, 69, 127
1, 3984, Note_on_c, 1, 57, 127
1, 4007, Note_off_c, 1, 64, 0
1, 4007, Note_off_c, 1, 69, 0
1, 4008, Note_on_c, 1, 73, 127
1, 4029, Note_off_c, 1, 57, 0
1, 4031, Note_off_c, 1, 73, 0
1, 4032, Note_on_c, 1, 63, 127
1, 4032, Note_on_c, 1, 69, 127
1, 4032, Note_on_c, 1, 59, 127
1, 4055, Note_off_c, 1, 63, 0
1, 4055, Note_off_c, 1, 69, 0
1, 4055, Note_off_c, 1, 59, 0
1, 4056, Note_on_c, 1, 66, 127
1, 4056, Note_on_c, 1, 75, 127
1, 4056, Note_on_c, 1, 57, 127
1, 4079, Note_off_c, 1, 66, 0
1, 4079, Note_off_c, 1, 75, 0
1, 4079, Note_off_c, 1, 57, 0
1, 4080, Note_on_c, 1, 63, 127
1, 4080, Note_on_c, 1, 78, 127
1, 4080, Note_on_c, 1, 54, 127
1, 4103, Note_off_c, 1, 63, 0
1, 4103, Note_off_c, 1, 78, 0
1, 4103, Note_off_c, 1, 54, 0
1, 4104, Note_on_c, 1, 66, 127
1, 4104, Note_on_c, 1, 75, 127
1, 4104, Note_on_c, 1, 57, 127
1, 4127, Note_off_c, 1, 66, 0
1, 4127, Note_off_c, 1, 75, 0
1, 4127, Note_off_c, 1, 57, 0
1, 4128, Note_on_c, 1, 69, 127
1, 4128, Note_on_c, 1, 59, 127
1, 4151, Note_off_c, 1, 69, 0
1, 4151, Note_off_c, 1, 59, 0
1, 4152, Note_on_c, 1, 66, 127
1, 4152, Note_on_c, 1, 75, 127
1, 4152, Note_on_c, 1, 57, 127
1, 4175, Note_off_c, 1, 66, 0
1, 4175, Note_off_c, 1, 75, 0
1, 4175, Note_off_c, 1, 57, 0
1, 4176, Note_on_c, 1, 63, 127
1, 4176, Note_on_c, 1, 78, 127
1, 4176, Note_on_c, 1, 54, 127
1, 4199, Note_off_c, 1, 63, 0
1, 4199, Note_off_c, 1, 78, 0
1, 4199, Note_off_c, 1, 54, 0
1, 4200, Note_on_c, 1, 66, 127
1, 4200, Note_on_c, 1, 75, 127
1, 4200, Note_on_c, 1, 57, 127
1, 4223, Note_off_c, 1, 66, 0
1, 4223, Note_off_c, 1, 75, 0
1, 4223, Note_off_c, 1, 57, 0
1, 4224, Note_on_c, 1, 59, 127
1, 4224, Note_on_c, 1, 69, 127
1, 4224, Note_on_c, 1, 51, 127
1, 4247, Note_off_c, 1, 69, 0
1, 4247, Note_off_c, 1, 51, 0
1, 4248, Note_on_c, 1, 75, 127
1, 4248, Note_on_c, 1, 54, 127
1, 4269, Note_off_c, 1, 59, 0
1, 4271, Note_off_c, 1, 75, 0
1, 4271, Note_off_c, 1, 54, 0
1, 4272, Note_on_c, 1, 75, 127
1, 4272, Note_on_c, 1, 78, 127
1, 4272, Note_on_c, 1, 47, 127
1, 4295, Note_off_c, 1, 78, 0
1, 4295, Note_off_c, 1, 47, 0
1, 4296, Note_on_c, 1, 69, 127
1, 4296, Note_on_c, 1, 51, 127
1, 4317, Note_off_c, 1, 75, 0
1, 4319, Note_off_c, 1, 69, 0
1, 4319, Note_off_c, 1, 51, 0
1, 4320, Note_on_c, 1, 76, 127
1, 4320, Note_on_c, 1, 68, 127
1, 4320, Note_on_c, 1, 40, 127
1, 4343, Note_off_c, 1, 40, 0
1, 4344, Note_on_c, 1, 52, 127
1, 4365, Note_off_c, 1, 68, 0
1, 4367, Note_off_c, 1, 52, 0
1, 4368, Note_on_c, 1, 64, 127
1, 4368, Note_on_c, 1, 51, 127
1, 4391, Note_off_c, 1, 51, 0
1, 4409, Note_off_c, 1, 76, 0
1, 4413, Note_off_c, 1, 64, 0
1, 4416, Note_on_c, 1, 68, 127
1, 4416, Note_on_c, 1, 54, 127
1, 4439, Note_off_c, 1, 54, 0
1, 4440, Note_on_c, 1, 52, 127
1, 4461, Note_off_c, 1, 68, 0
1, 4463, Note_off_c, 1, 52, 0
1, 4464, Note_on_c, 1, 68, 127
1, 4464, Note_on_c, 1, 71, 127
1, 4464, Note_on_c, 1, 51, 127
1, 4487, Note_off_c, 1, 51, 0
1, 4488, Note_on_c, 1, 52, 127
1, 4509, Note_off_c, 1, 68, 0
1, 4509, Note_off_c, 1, 71, 0
1, 4511, Note_off_c, 1, 52, 0
1, 4512, Note_on_c, 1, 71, 127
1, 4512, Note_on_c, 1, 76, 127
1, 4512, Note_on_c, 1, 56, 127
1, 4535, Note_off_c, 1, 56, 0
1, 4536, Note_on_c, 1, 52, 127
1, 4557, Note_off_c, 1, 71, 0
1, 4559, Note_off_c, 1, 52, 0
1, 4560, Note_on_c, 1, 51, 127
1, 4583, Note_off_c, 1, 51, 0
1, 4608, Note_on_c, 1, 78, 127
1, 4608, Note_on_c, 1, 57, 127
1, 4631, Note_off_c, 1, 57, 0
1, 4653, Note_off_c, 1, 76, 0
1, 4656, Note_on_c, 1, 73, 127
1, 4697, Note_off_c, 1, 78, 0
1, 4701, Note_off_c, 1, 73, 0
1, 4704, Note_on_c, 1, 71, 127
1, 4704, Note_on_c, 1, 56, 127
1, 4727, Note_off_c, 1, 56, 0
1, 4728, Note_on_c, 1, 52, 127
1, 4749, Note_off_c, 1, 71, 0
1, 4751, Note_off_c, 1, 52, 0
1, 4752, Note_on_c, 1, 69, 127
1, 4752, Note_on_c, 1, 51, 127
1, 4775, Note_off_c, 1, 51, 0
1, 4776, Note_on_c, 1, 52, 127
1, 4797, Note_off_c, 1, 69, 0
1, 4799, Note_off_c, 1, 52, 0
1, 4800, Note_on_c, 1, 73, 127
1, 4800, Note_on_c, 1, 76, 127
1, 4800, Note_on_c, 1, 57, 127
1, 4823, Note_off_c, 1, 57, 0
1, 4824, Note_on_c, 1, 52, 127
1, 4845, Note_off_c, 1, 73, 0
1, 4847, Note_off_c, 1, 52, 0
1, 4848, Note_on_c, 1, 78, 127
1, 4848, Note_on_c, 1, 51, 127
1, 4871, Note_off_c, 1, 51, 0
1, 4893, Note_off_c, 1, 78, 0
1, 4896, Note_on_c, 1, 80, 127
1, 4896, Note_on_c, 1, 59, 127
1, 4919, Note_off_c, 1, 59, 0
1, 4941, Note_off_c, 1, 76, 0
1, 4944, Note_on_c, 1, 68, 127
1, 4985, Note_off_c, 1, 80, 0
1, 4989, Note_off_c, 1, 68, 0
1, 4992, Note_on_c, 1, 66, 127
1, 4992, Note_on_c, 1, 57, 127
1, 5015, Note_off_c, 1, 57, 0
1, 5016, Note_on_c, 1, 52, 127
1, 5037, Note_off_c, 1, 66, 0
1, 5039, Note_off_c, 1, 52, 0
1, 5040, Note_on_c, 1, 71, 127
1, 5040, Note_on_c, 1, 64, 127
1, 5040, Note_on_c, 1, 51, 127
1, 5063, Note_off_c, 1, 51, 0
1, 5064, Note_on_c, 1, 52, 127
1, 5085, Note_off_c, 1, 71, 0
1, 5085, Note_off_c, 1, 64, 0
1, 5087, Note_off_c, 1, 52, 0
1, 5088, Note_on_c, 1, 76, 127
1, 5088, Note_on_c, 1, 59, 127
1, 5111, Note_off_c, 1, 59, 0
1, 5112, Note_on_c, 1, 51, 127
1, 5135, Note_off_c, 1, 51, 0
1, 5136, Note_on_c, 1, 80, 127
1, 5136, Note_on_c, 1, 49, 127
1, 5159, Note_off_c, 1, 49, 0
1, 5181, Note_off_c, 1, 80, 0
1, 5184, Note_on_c, 1, 81, 127
1, 5184, Note_on_c, 1, 61, 127
1, 5207, Note_off_c, 1, 61, 0
1, 5229, Note_off_c, 1, 76, 0
1, 5280, Note_on_c, 1, 78, 127
1, 5280, Note_on_c, 1, 57, 127
1, 5303, Note_off_c, 1, 57, 0
1, 5304, Note_on_c, 1, 56, 127
1, 5325, Note_off_c, 1, 78, 0
1, 5327, Note_off_c, 1, 56, 0
1, 5376, Note_on_c, 1, 75, 127
1, 5376, Note_on_c, 1, 54, 127
1, 5399, Note_off_c, 1, 54, 0
1, 5400, Note_on_c, 1, 52, 127
1, 5421, Note_off_c, 1, 75, 0
1, 5423, Note_off_c, 1, 52, 0
1, 5424, Note_on_c, 1, 73, 127
1, 5469, Note_off_c, 1, 73, 0
1, 5472, Note_on_c, 1, 71, 127
1, 5517, Note_off_c, 1, 81, 0
1, 5568, Note_on_c, 1, 47, 127
1, 5591, Note_off_c, 1, 47, 0
1, 5592, Note_on_c, 1, 45, 127
1, 5615, Note_off_c, 1, 45, 0
1, 5664, Note_on_c, 1, 44, 127
1, 5687, Note_off_c, 1, 44, 0
1, 5688, Note_on_c, 1, 42, 127
1, 5711, Note_off_c, 1, 42, 0
1, 5760, Note_on_c, 1, 40, 127
1, 5783, Note_off_c, 1, 71, 0
1, 5784, Note_on_c, 1, 69, 127
1, 5805, Note_off_c, 1, 40, 0
1, 5807, Note_off_c, 1, 69, 0
1, 5856, Note_on_c, 1, 68, 127
1, 5879, Note_off_c, 1, 68, 0
1, 5880, Note_on_c, 1, 66, 127
1, 5903, Note_off_c, 1, 66, 0
1, 5952, Note_on_c, 1, 64, 127
1, 5975, Note_off_c, 1, 64, 0
1, 5976, Note_on_c, 1, 62, 127
1, 5999, Note_off_c, 1, 62, 0
1, 6336, Note_on_c, 1, 83, 127
1, 6359, Note_off_c, 1, 83, 0
1, 6384, Note_on_c, 1, 70, 127
1, 6407, Note_off_c, 1, 70, 0
1, 6432, Note_on_c, 1, 75, 127
1, 6432, Note_on_c, 1, 73, 127
1, 6432, Note_on_c, 1, 57, 127
1, 6455, Note_off_c, 1, 73, 0
1, 6456, Note_on_c, 1, 71, 127
1, 6477, Note_off_c, 1, 75, 0
1, 6477, Note_off_c, 1, 57, 0
1, 6479, Note_off_c, 1, 71, 0
1, 6480, Note_on_c, 1, 78, 127
1, 6480, Note_on_c, 1, 70, 127
1, 6480, Note_on_c, 1, 61, 127
1, 6503, Note_off_c, 1, 70, 0
1, 6504, Note_on_c, 1, 71, 127
1, 6525, Note_off_c, 1, 78, 0
1, 6525, Note_off_c, 1, 61, 0
1, 6527, Note_off_c, 1, 71, 0
1, 6528, Note_on_c, 1, 83, 127
1, 6528, Note_on_c, 1, 75, 127
1, 6528, Note_on_c, 1, 59, 127
1, 6551, Note_off_c, 1, 75, 0
1, 6552, Note_on_c, 1, 71, 127
1, 6573, Note_off_c, 1, 59, 0
1, 6575, Note_off_c, 1, 71, 0
1, 6576, Note_on_c, 1, 70, 127
1, 6576, Note_on_c, 1, 57, 127
1, 6599, Note_off_c, 1, 70, 0
1, 6621, Note_off_c, 1, 57, 0
1, 6624, Note_on_c, 1, 76, 127
1, 6624, Note_on_c, 1, 56, 127
1, 6647, Note_off_c, 1, 76, 0
1, 6669, Note_off_c, 1, 83, 0
1, 6672, Note_on_c, 1, 80, 127
1, 6713, Note_off_c, 1, 56, 0
1, 6717, Note_off_c, 1, 80, 0
1, 6720, Note_on_c, 1, 78, 127
1, 6720, Note_on_c, 1, 75, 127
1, 6743, Note_off_c, 1, 75, 0
1, 6744, Note_on_c, 1, 71, 127
1, 6765, Note_off_c, 1, 78, 0
1, 6767, Note_off_c, 1, 71, 0
1, 6768, Note_on_c, 1, 76, 127
1, 6768, Note_on_c, 1, 70, 127
1, 6768, Note_on_c, 1, 56, 127
1, 6791, Note_off_c, 1, 70, 0
1, 6792, Note_on_c, 1, 71, 127
1, 6813, Note_off_c, 1, 76, 0
1, 6813, Note_off_c, 1, 56, 0
1, 6815, Note_off_c, 1, 71, 0
1, 6816, Note_on_c, 1, 83, 127
1, 6816, Note_on_c, 1, 76, 127
1, 6816, Note_on_c, 1, 54, 127
1, 6839, Note_off_c, 1, 76, 0
1, 6840, Note_on_c, 1, 71, 127
1, 6861, Note_off_c, 1, 54, 0
1, 6863, Note_off_c, 1, 71, 0
1, 6864, Note_on_c, 1, 70, 127
1, 6864, Note_on_c, 1, 52, 127
1, 6887, Note_off_c, 1, 70, 0
1, 6909, Note_off_c, 1, 52, 0
1, 6912, Note_on_c, 1, 78, 127
1, 6912, Note_on_c, 1, 51, 127
1, 6935, Note_off_c, 1, 78, 0
1, 6957, Note_off_c, 1, 83, 0
1, 6960, Note_on_c, 1, 75, 127
1, 7001, Note_off_c, 1, 51, 0
1, 7005, Note_off_c, 1, 75, 0
1, 7008, Note_on_c, 1, 73, 127
1, 7008, Note_on_c, 1, 76, 127
1, 7031, Note_off_c, 1, 76, 0
1, 7032, Note_on_c, 1, 71, 127
1, 7053, Note_off_c, 1, 73, 0
1, 7055, Note_off_c, 1, 71, 0
1, 7056, Note_on_c, 1, 71, 127
1, 7056, Note_on_c, 1, 70, 127
1, 7056, Note_on_c, 1, 51, 127
1, 7079, Note_off_c, 1, 70, 0
1, 7101, Note_off_c, 1, 51, 0
1, 7103, Note_off_c, 1, 71, 0
1, 7104, Note_on_c, 1, 83, 127
1, 7104, Note_on_c, 1, 78, 127
1, 7104, Note_on_c, 1, 49, 127
1, 7127, Note_off_c, 1, 78, 0
1, 7128, Note_on_c, 1, 71, 127
1, 7149, Note_off_c, 1, 49, 0
1, 7151, Note_off_c, 1, 71, 0
1, 7152, Note_on_c, 1, 70, 127
1, 7152, Note_on_c, 1, 47, 127
1, 7175, Note_off_c, 1, 70, 0
1, 7197, Note_off_c, 1, 47, 0
1, 7200, Note_on_c, 1, 80, 127
1, 7200, Note_on_c, 1, 52, 127
1, 7223, Note_off_c, 1, 83, 0
1, 7224, Note_on_c, 1, 76, 127
1, 7245, Note_off_c, 1, 80, 0
1, 7247, Note_off_c, 1, 76, 0
1, 7248, Note_on_c, 1, 75, 127
1, 7248, Note_on_c, 1, 64, 127
1, 7271, Note_off_c, 1, 75, 0
1, 7289, Note_off_c, 1, 52, 0
1, 7293, Note_off_c, 1, 64, 0
1, 7296, Note_on_c, 1, 78, 127
1, 7296, Note_on_c, 1, 68, 127
1, 7319, Note_off_c, 1, 78, 0
1, 7320, Note_on_c, 1, 76, 127
1, 7341, Note_off_c, 1, 68, 0
1, 7343, Note_off_c, 1, 76, 0
1, 7344, Note_on_c, 1, 75, 127
1, 7344, Note_on_c, 1, 71, 127
1, 7344, Note_on_c, 1, 54, 127
1, 7367, Note_off_c, 1, 75, 0
1, 7368, Note_on_c, 1, 76, 127
1, 7389, Note_off_c, 1, 71, 0
1, 7389, Note_off_c, 1, 54, 0
1, 7391, Note_off_c, 1, 76, 0
1, 7392, Note_on_c, 1, 80, 127
1, 7392, Note_on_c, 1, 76, 127
1, 7392, Note_on_c, 1, 52, 127
1, 7415, Note_off_c, 1, 80, 0
1, 7437, Note_off_c, 1, 52, 0
1, 7440, Note_on_c, 1, 75, 127
1, 7440, Note_on_c, 1, 50, 127
1, 7463, Note_off_c, 1, 75, 0
1, 7485, Note_off_c, 1, 50, 0
1, 7488, Note_on_c, 1, 81, 127
1, 7488, Note_on_c, 1, 49, 127
1, 7511, Note_off_c, 1, 81, 0
1, 7535, Note_off_c, 1, 76, 0
1, 7536, Note_on_c, 1, 73, 127
1, 7577, Note_off_c, 1, 49, 0
1, 7581, Note_off_c, 1, 73, 0
1, 7584, Note_on_c, 1, 80, 127
1, 7584, Note_on_c, 1, 71, 127
1, 7607, Note_off_c, 1, 80, 0
1, 7608, Note_on_c, 1, 76, 127
1, 7629, Note_off_c, 1, 71, 0
1, 7631, Note_off_c, 1, 76, 0
1, 7632, Note_on_c, 1, 75, 127
1, 7632, Note_on_c, 1, 69, 127
1, 7632, Note_on_c, 1, 49, 127
1, 7655, Note_off_c, 1, 75, 0
1, 7656, Note_on_c, 1, 76, 127
1, 7677, Note_off_c, 1, 69, 0
1, 7677, Note_off_c, 1, 49, 0
1, 7679, Note_off_c, 1, 76, 0
1, 7680, Note_on_c, 1, 81, 127
1, 7680, Note_on_c, 1, 76, 127
1, 7680, Note_on_c, 1, 47, 127
1, 7703, Note_off_c, 1, 81, 0
1, 7725, Note_off_c, 1, 47, 0
1, 7728, Note_on_c, 1, 75, 127
1, 7728, Note_on_c, 1, 45, 127
1, 7751, Note_off_c, 1, 75, 0
1, 7773, Note_off_c, 1, 45, 0
1, 7776, Note_on_c, 1, 83, 127
1, 7776, Note_on_c, 1, 44, 127
1, 7799, Note_off_c, 1, 83, 0
1, 7823, Note_off_c, 1, 76, 0
1, 7824, Note_on_c, 1, 68, 127
1, 7865, Note_off_c, 1, 44, 0
1, 7869, Note_off_c, 1, 68, 0
1, 7872, Note_on_c, 1, 81, 127
1, 7872, Note_on_c, 1, 66, 127
1, 7895, Note_off_c, 1, 81, 0
1, 7896, Note_on_c, 1, 76, 127
1, 7917, Note_off_c, 1, 66, 0
1, 7919, Note_off_c, 1, 76, 0
1, 7920, Note_on_c, 1, 75, 127
1, 7920, Note_on_c, 1, 64, 127
1, 7920, Note_on_c, 1, 44, 127
1, 7943, Note_off_c, 1, 75, 0
1, 7944, Note_on_c, 1, 76, 127
1, 7965, Note_off_c, 1, 64, 0
1, 7965, Note_off_c, 1, 44, 0
1, 7967, Note_off_c, 1, 76, 0
1, 7968, Note_on_c, 1, 83, 127
1, 7968, Note_on_c, 1, 76, 127
1, 7968, Note_on_c, 1, 42, 127
1, 7991, Note_off_c, 1, 83, 0
1, 8013, Note_off_c, 1, 42, 0
1, 8016, Note_on_c, 1, 75, 127
1, 8016, Note_on_c, 1, 40, 127
1, 8039, Note_off_c, 1, 75, 0
1, 8061, Note_off_c, 1, 40, 0
1, 8064, Note_on_c, 1, 85, 127
1, 8064, Note_on_c, 1, 45, 127
1, 8087, Note_off_c, 1, 85, 0
1, 8109, Note_off_c, 1, 76, 0
1, 8109, Note_off_c, 1, 45, 0
1, 8112, Note_on_c, 1, 85, 127
1, 8112, Note_on_c, 1, 68, 127
1, 8112, Note_on_c, 1, 47, 127
1, 8135, Note_off_c, 1, 85, 0
1, 8136, Note_on_c, 1, 83, 127
1, 8157, Note_off_c, 1, 68, 0
1, 8157, Note_off_c, 1, 47, 0
1, 8159, Note_off_c, 1, 83, 0
1, 8160, Note_on_c, 1, 81, 127
1, 8160, Note_on_c, 1, 69, 127
1, 8160, Note_on_c, 1, 49, 127
1, 8183, Note_off_c, 1, 81, 0
1, 8184, Note_on_c, 1, 80, 127
1, 8205, Note_off_c, 1, 69, 0
1, 8205, Note_off_c, 1, 49, 0
1, 8207, Note_off_c, 1, 80, 0
1, 8208, Note_on_c, 1, 81, 127
1, 8208, Note_on_c, 1, 71, 127
1, 8208, Note_on_c, 1, 47, 127
1, 8231, Note_off_c, 1, 81, 0
1, 8232, Note_on_c, 1, 80, 127
1, 8253, Note_off_c, 1, 71, 0
1, 8253, Note_off_c, 1, 47, 0
1, 8255, Note_off_c, 1, 80, 0
1, 8256, Note_on_c, 1, 78, 127
1, 8256, Note_on_c, 1, 73, 127
1, 8256, Note_on_c, 1, 45, 127
1, 8279, Note_off_c, 1, 78, 0
1, 8280, Note_on_c, 1, 76, 127
1, 8301, Note_off_c, 1, 73, 0
1, 8301, Note_off_c, 1, 45, 0
1, 8303, Note_off_c, 1, 76, 0
1, 8304, Note_on_c, 1, 78, 127
1, 8304, Note_on_c, 1, 69, 127
1, 8304, Note_on_c, 1, 42, 127
1, 8327, Note_off_c, 1, 78, 0
1, 8328, Note_on_c, 1, 76, 127
1, 8349, Note_off_c, 1, 69, 0
1, 8349, Note_off_c, 1, 42, 0
1, 8351, Note_off_c, 1, 76, 0
1, 8352, Note_on_c, 1, 75, 127
1, 8352, Note_on_c, 1, 78, 127
1, 8352, Note_on_c, 1, 47, 127
1, 8375, Note_off_c, 1, 78, 0
1, 8376, Note_on_c, 1, 76, 127
1, 8397, Note_off_c, 1, 75, 0
1, 8397, Note_off_c, 1, 47, 0
1, 8399, Note_off_c, 1, 76, 0
1, 8400, Note_on_c, 1, 73, 127
1, 8400, Note_on_c, 1, 78, 127
1, 8400, Note_on_c, 1, 46, 127
1, 8423, Note_off_c, 1, 78, 0
1, 8424, Note_on_c, 1, 76, 127
1, 8445, Note_off_c, 1, 73, 0
1, 8445, Note_off_c, 1, 46, 0
1, 8447, Note_off_c, 1, 76, 0
1, 8448, Note_on_c, 1, 75, 127
1, 8448, Note_on_c, 1, 47, 127
1, 8472, Note_on_c, 1, 73, 127
1, 8493, Note_off_c, 1, 75, 0
1, 8493, Note_off_c, 1, 47, 0
1, 8495, Note_off_c, 1, 73, 0
1, 8496, Note_on_c, 1, 76, 127
1, 8496, Note_on_c, 1, 75, 127
1, 8496, Note_on_c, 1, 49, 127
1, 8519, Note_off_c, 1, 75, 0
1, 8520, Note_on_c, 1, 73, 127
1, 8541, Note_off_c, 1, 76, 0
1, 8541, Note_off_c, 1, 49, 0
1, 8543, Note_off_c, 1, 73, 0
1, 8544, Note_on_c, 1, 78, 127
1, 8544, Note_on_c, 1, 71, 127
1, 8544, Note_on_c, 1, 51, 127
1, 8567, Note_off_c, 1, 71, 0
1, 8568, Note_on_c, 1, 69, 127
1, 8589, Note_off_c, 1, 78, 0
1, 8589, Note_off_c, 1, 51, 0
1, 8591, Note_off_c, 1, 69, 0
1, 8592, Note_on_c, 1, 75, 127
1, 8592, Note_on_c, 1, 71, 127
1, 8592, Note_on_c, 1, 47, 127
1, 8615, Note_off_c, 1, 71, 0
1, 8616, Note_on_c, 1, 69, 127
1, 8637, Note_off_c, 1, 75, 0
1, 8637, Note_off_c, 1, 47, 0
1, 8639, Note_off_c, 1, 69, 0
1, 8640, Note_on_c, 1, 83, 127
1, 8640, Note_on_c, 1, 68, 127
1, 8640, Note_on_c, 1, 52, 127
1, 8663, Note_off_c, 1, 83, 0
1, 8664, Note_on_c, 1, 81, 127
1, 8685, Note_off_c, 1, 68, 0
1, 8685, Note_off_c, 1, 52, 0
1, 8687, Note_off_c, 1, 81, 0
1, 8688, Note_on_c, 1, 83, 127
1, 8688, Note_on_c, 1, 66, 127
1, 8688, Note_on_c, 1, 51, 127
1, 8711, Note_off_c, 1, 83, 0
1, 8712, Note_on_c, 1, 81, 127
1, 8733, Note_off_c, 1, 66, 0
1, 8733, Note_off_c, 1, 51, 0
1, 8735, Note_off_c, 1, 81, 0
1, 8736, Note_on_c, 1, 80, 127
1, 8736, Note_on_c, 1, 68, 127
1, 8736, Note_on_c, 1, 52, 127
1, 8759, Note_off_c, 1, 80, 0
1, 8760, Note_on_c, 1, 78, 127
1, 8781, Note_off_c, 1, 68, 0
1, 8781, Note_off_c, 1, 52, 0
1, 8783, Note_off_c, 1, 78, 0
1, 8784, Note_on_c, 1, 80, 127
1, 8784, Note_on_c, 1, 69, 127
1, 8784, Note_on_c, 1, 54, 127
1, 8807, Note_off_c, 1, 80, 0
1, 8808, Note_on_c, 1, 78, 127
1, 8829, Note_off_c, 1, 69, 0
1, 8829, Note_off_c, 1, 54, 0
1, 8831, Note_off_c, 1, 78, 0
1, 8832, Note_on_c, 1, 76, 127
1, 8832, Note_on_c, 1, 71, 127
1, 8832, Note_on_c, 1, 56, 127
1, 8855, Note_off_c, 1, 76, 0
1, 8856, Note_on_c, 1, 74, 127
1, 8877, Note_off_c, 1, 71, 0
1, 8877, Note_off_c, 1, 56, 0
1, 8879, Note_off_c, 1, 74, 0
1, 8880, Note_on_c, 1, 76, 127
1, 8880, Note_on_c, 1, 68, 127
1, 8880, Note_on_c, 1, 52, 127
1, 8903, Note_off_c, 1, 76, 0
1, 8904, Note_on_c, 1, 74, 127
1, 8925, Note_off_c, 1, 68, 0
1, 8925, Note_off_c, 1, 52, 0
1, 8927, Note_off_c, 1, 74, 0
1, 8928, Note_on_c, 1, 73, 127
1, 8928, Note_on_c, 1, 76, 127
1, 8928, Note_on_c, 1, 57, 127
1, 8951, Note_off_c, 1, 73, 0
1, 8951, Note_off_c, 1, 76, 0
1, 8952, Note_on_c, 1, 71, 127
1, 8952, Note_on_c, 1, 74, 127
1, 8973, Note_off_c, 1, 57, 0
1, 8975, Note_off_c, 1, 71, 0
1, 8975, Note_off_c, 1, 74, 0
1, 8976, Note_on_c, 1, 73, 127
1, 8976, Note_on_c, 1, 76, 127
1, 8976, Note_on_c, 1, 56, 127
1, 8999, Note_off_c, 1, 73, 0
1, 8999, Note_off_c, 1, 76, 0
1, 9000, Note_on_c, 1, 71, 127
1, 9000, Note_on_c, 1, 74, 127
1, 9021, Note_off_c, 1, 56, 0
1, 9023, Note_off_c, 1, 71, 0
1, 9023, Note_off_c, 1, 74, 0
1, 9024, Note_on_c, 1, 69, 127
1, 9024, Note_on_c, 1, 73, 127
1, 9024, Note_on_c, 1, 57, 127
1, 9047, Note_off_c, 1, 69, 0
1, 9047, Note_off_c, 1, 73, 0
1, 9048, Note_on_c, 1, 68, 127
1, 9048, Note_on_c, 1, 71, 127
1, 9069, Note_off_c, 1, 57, 0
1, 9071, Note_off_c, 1, 68, 0
1, 9071, Note_off_c, 1, 71, 0
1, 9072, Note_on_c, 1, 69, 127
1, 9072, Note_on_c, 1, 73, 127
1, 9072, Note_on_c, 1, 59, 127
1, 9095, Note_off_c, 1, 69, 0
1, 9095, Note_off_c, 1, 73, 0
1, 9096, Note_on_c, 1, 68, 127
1, 9096, Note_on_c, 1, 71, 127
1, 9117, Note_off_c, 1, 59, 0
1, 9119, Note_off_c, 1, 68, 0
1, 9119, Note_off_c, 1, 71, 0
1, 9120, Note_on_c, 1, 66, 127
1, 9120, Note_on_c, 1, 69, 127
1, 9120, Note_on_c, 1, 61, 127
1, 9143, Note_off_c, 1, 66, 0
1, 9143, Note_off_c, 1, 69, 0
1, 9144, Note_on_c, 1, 64, 127
1, 9144, Note_on_c, 1, 68, 127
1, 9165, Note_off_c, 1, 61, 0
1, 9167, Note_off_c, 1, 64, 0
1, 9167, Note_off_c, 1, 68, 0
1, 9168, Note_on_c, 1, 66, 127
1, 9168, Note_on_c, 1, 69, 127
1, 9168, Note_on_c, 1, 57, 127
1, 9191, Note_off_c, 1, 66, 0
1, 9191, Note_off_c, 1, 69, 0
1, 9192, Note_on_c, 1, 64, 127
1, 9192, Note_on_c, 1, 68, 127
1, 9213, Note_off_c, 1, 57, 0
1, 9215, Note_off_c, 1, 64, 0
1, 9215, Note_off_c, 1, 68, 0
1, 9216, Note_on_c, 1, 75, 127
1, 9216, Note_on_c, 1, 66, 127
1, 9216, Note_on_c, 1, 59, 127
1, 9239, Note_off_c, 1, 59, 0
1, 9240, Note_on_c, 1, 57, 127
1, 9261, Note_off_c, 1, 66, 0
1, 9263, Note_off_c, 1, 57, 0
1, 9312, Note_on_c, 1, 71, 127
1, 9312, Note_on_c, 1, 56, 127
1, 9335, Note_off_c, 1, 56, 0
1, 9336, Note_on_c, 1, 54, 127
1, 9349, Note_off_c, 1, 75, 0
1, 9357, Note_off_c, 1, 71, 0
1, 9359, Note_off_c, 1, 54, 0
1, 9360, Note_on_c, 1, 71, 127
1, 9360, Note_on_c, 1, 69, 127
1, 9360, Note_on_c, 1, 56, 127
1, 9383, Note_off_c, 1, 56, 0
1, 9384, Note_on_c, 1, 54, 127
1, 9405, Note_off_c, 1, 71, 0
1, 9405, Note_off_c, 1, 69, 0
1, 9407, Note_off_c, 1, 54, 0
1, 9408, Note_on_c, 1, 76, 127
1, 9408, Note_on_c, 1, 68, 127
1, 9408, Note_on_c, 1, 52, 127
1, 9431, Note_off_c, 1, 52, 0
1, 9432, Note_on_c, 1, 51, 127
1, 9453, Note_off_c, 1, 76, 0
1, 9453, Note_off_c, 1, 68, 0
1, 9455, Note_off_c, 1, 51, 0
1, 9456, Note_on_c, 1, 75, 127
1, 9456, Note_on_c, 1, 66, 127
1, 9456, Note_on_c, 1, 52, 127
1, 9479, Note_off_c, 1, 52, 0
1, 9480, Note_on_c, 1, 51, 127
1, 9501, Note_off_c, 1, 75, 0
1, 9501, Note_off_c, 1, 66, 0
1, 9503, Note_off_c, 1, 51, 0
1, 9504, Note_on_c, 1, 76, 127
1, 9504, Note_on_c, 1, 68, 127
1, 9504, Note_on_c, 1, 49, 127
1, 9527, Note_off_c, 1, 49, 0
1, 9528, Note_on_c, 1, 47, 127
1, 9549, Note_off_c, 1, 76, 0
1, 9549, Note_off_c, 1, 68, 0
1, 9551, Note_off_c, 1, 47, 0
1, 9552, Note_on_c, 1, 78, 127
1, 9552, Note_on_c, 1, 69, 127
1, 9552, Note_on_c, 1, 49, 127
1, 9575, Note_off_c, 1, 49, 0
1, 9576, Note_on_c, 1, 45, 127
1, 9597, Note_off_c, 1, 78, 0
1, 9597, Note_off_c, 1, 69, 0
1, 9599, Note_off_c, 1, 45, 0
1, 9600, Note_on_c, 1, 75, 127
1, 9600, Note_on_c, 1, 66, 127
1, 9600, Note_on_c, 1, 47, 127
1, 9689, Note_off_c, 1, 47, 0
1, 9733, Note_off_c, 1, 75, 0
1, 9733, Note_off_c, 1, 66, 0
1, 9744, Note_on_c, 1, 76, 127
1, 9744, Note_on_c, 1, 64, 127
1, 9789, Note_off_c, 1, 76, 0
1, 9789, Note_off_c, 1, 64, 0
1, 9792, Note_on_c, 1, 76, 127
1, 9792, Note_on_c, 1, 64, 127
1, 9792, Note_on_c, 1, 40, 127
1, 9822, Note_off_c, 1, 76, 0
1, 9824, Note_on_c, 1, 71, 127
1, 9854, Note_off_c, 1, 71, 0
1, 9856, Note_on_c, 1, 69, 127
1, 9881, Note_off_c, 1, 64, 0
1, 9881, Note_off_c, 1, 40, 0
1, 9886, Note_off_c, 1, 69, 0
1, 9888, Note_on_c, 1, 71, 127
1, 9918, Note_off_c, 1, 71, 0
1, 9920, Note_on_c, 1, 68, 127
1, 9936, Note_on_c, 1, 59, 127
1, 9950, Note_off_c, 1, 68, 0
1, 9952, Note_on_c, 1, 66, 127
1, 9981, Note_off_c, 1, 59, 0
1, 9982, Note_off_c, 1, 66, 0
1, 9984, Note_on_c, 1, 68, 127
1, 9984, Note_on_c, 1, 64, 127
1, 10014, Note_off_c, 1, 68, 0
1, 10032, Note_on_c, 1, 59, 127
1, 10046, Note_off_c, 1, 64, 0
1, 10048, Note_on_c, 1, 76, 127
1, 10077, Note_off_c, 1, 59, 0
1, 10078, Note_off_c, 1, 76, 0
1, 10080, Note_on_c, 1, 64, 127
1, 10080, Note_on_c, 1, 56, 127
1, 10110, Note_off_c, 1, 64, 0
1, 10112, Note_on_c, 1, 68, 127
1, 10142, Note_off_c, 1, 68, 0
1, 10144, Note_on_c, 1, 66, 127
1, 10169, Note_off_c, 1, 56, 0
1, 10174, Note_off_c, 1, 66, 0
1, 10176, Note_on_c, 1, 68, 127
1, 10206, Note_off_c, 1, 68, 0
1, 10208, Note_on_c, 1, 71, 127
1, 10224, Note_on_c, 1, 59, 127
1, 10238, Note_off_c, 1, 71, 0
1, 10240, Note_on_c, 1, 69, 127
1, 10269, Note_off_c, 1, 59, 0
1, 10270, Note_off_c, 1, 69, 0
1, 10272, Note_on_c, 1, 71, 127
1, 10272, Note_on_c, 1, 64, 127
1, 10302, Note_off_c, 1, 71, 0
1, 10304, Note_on_c, 1, 76, 127
1, 10317, Note_off_c, 1, 64, 0
1, 10320, Note_on_c, 1, 59, 127
1, 10334, Note_off_c, 1, 76, 0
1, 10336, Note_on_c, 1, 75, 127
1, 10365, Note_off_c, 1, 59, 0
1, 10366, Note_off_c, 1, 75, 0
1, 10368, Note_on_c, 1, 76, 127
1, 10368, Note_on_c, 1, 56, 127
1, 10398, Note_off_c, 1, 76, 0
1, 10400, Note_on_c, 1, 71, 127
1, 10430, Note_off_c, 1, 71, 0
1, 10432, Note_on_c, 1, 81, 127
1, 10457, Note_off_c, 1, 56, 0
1, 10462, Note_off_c, 1, 81, 0
1, 10464, Note_on_c, 1, 80, 127
1, 10494, Note_off_c, 1, 80, 0
1, 10496, Note_on_c, 1, 71, 127
1, 10512, Note_on_c, 1, 56, 127
1, 10526, Note_off_c, 1, 71, 0
1, 10528, Note_on_c, 1, 83, 127
1, 10535, Note_off_c, 1, 56, 0
1, 10536, Note_on_c, 1, 57, 127
1, 10558, Note_off_c, 1, 83, 0
1, 10559, Note_off_c, 1, 57, 0
1, 10560, Note_on_c, 1, 78, 127
1, 10560, Note_on_c, 1, 59, 127
1, 10590, Note_off_c, 1, 78, 0
1, 10592, Note_on_c, 1, 71, 127
1, 10605, Note_off_c, 1, 59, 0
1, 10608, Note_on_c, 1, 56, 127
1, 10622, Note_off_c, 1, 71, 0
1, 10624, Note_on_c, 1, 81, 127
1, 10653, Note_off_c, 1, 56, 0
1, 10654, Note_off_c, 1, 81, 0
1, 10656, Note_on_c, 1, 80, 127
1, 10656, Note_on_c, 1, 52, 127
1, 10668, Note_off_c, 1, 80, 0
1, 10668, Note_on_c, 1, 81, 127
1, 10680, Note_off_c, 1, 81, 0
1, 10680, Note_on_c, 1, 71, 127
1, 10701, Note_off_c, 1, 52, 0
1, 10703, Note_off_c, 1, 71, 0
1, 10704, Note_on_c, 1, 70, 127
1, 10704, Note_on_c, 1, 56, 127
1, 10727, Note_off_c, 1, 70, 0
1, 10749, Note_off_c, 1, 56, 0
1, 10752, Note_on_c, 1, 73, 127
1, 10752, Note_on_c, 1, 54, 127
1, 10775, Note_off_c, 1, 73, 0
1, 10797, Note_off_c, 1, 54, 0
1, 10848, Note_on_c, 1, 78, 127
1, 10848, Note_on_c, 1, 75, 127
1, 10848, Note_on_c, 1, 59, 127
1, 10871, Note_off_c, 1, 75, 0
1, 10893, Note_off_c, 1, 59, 0
1, 10937, Note_off_c, 1, 78, 0
1, 10944, Note_on_c, 1, 76, 127
1, 10944, Note_on_c, 1, 61, 127
1, 10976, Note_on_c, 1, 73, 127
1, 11006, Note_off_c, 1, 73, 0
1, 11008, Note_on_c, 1, 75, 127
1, 11033, Note_off_c, 1, 76, 0
1, 11033, Note_off_c, 1, 61, 0
1, 11038, Note_off_c, 1, 75, 0
1, 11040, Note_on_c, 1, 76, 127
1, 11070, Note_off_c, 1, 76, 0
1, 11072, Note_on_c, 1, 78, 127
1, 11088, Note_on_c, 1, 49, 127
1, 11102, Note_off_c, 1, 78, 0
1, 11104, Note_on_c, 1, 80, 127
1, 11133, Note_off_c, 1, 49, 0
1, 11134, Note_off_c, 1, 80, 0
1, 11136, Note_on_c, 1, 71, 127
1, 11136, Note_on_c, 1, 51, 127
1, 11166, Note_off_c, 1, 71, 0
1, 11168, Note_on_c, 1, 70, 127
1, 11181, Note_off_c, 1, 51, 0
1, 11184, Note_on_c, 1, 52, 127
1, 11198, Note_off_c, 1, 70, 0
1, 11200, Note_on_c, 1, 68, 127
1, 11229, Note_off_c, 1, 52, 0
1, 11230, Note_off_c, 1, 68, 0
1, 11232, Note_on_c, 1, 70, 127
1, 11232, Note_on_c, 1, 54, 127
1, 11262, Note_off_c, 1, 70, 0
1, 11264, Note_on_c, 1, 66, 127
1, 11294, Note_off_c, 1, 66, 0
1, 11296, Note_on_c, 1, 68, 127
1, 11321, Note_off_c, 1, 54, 0
1, 11326, Note_off_c, 1, 68, 0
1, 11328, Note_on_c, 1, 70, 127
1, 11358, Note_off_c, 1, 70, 0
1, 11360, Note_on_c, 1, 71, 127
1, 11376, Note_on_c, 1, 54, 127
1, 11390, Note_off_c, 1, 71, 0
1, 11392, Note_on_c, 1, 73, 127
1, 11421, Note_off_c, 1, 54, 0
1, 11422, Note_off_c, 1, 73, 0
1, 11424, Note_on_c, 1, 64, 127
1, 11424, Note_on_c, 1, 56, 127
1, 11454, Note_off_c, 1, 64, 0
1, 11456, Note_on_c, 1, 63, 127
1, 11469, Note_off_c, 1, 56, 0
1, 11472, Note_on_c, 1, 58, 127
1, 11486, Note_off_c, 1, 63, 0
1, 11488, Note_on_c, 1, 61, 127
1, 11517, Note_off_c, 1, 58, 0
1, 11518, Note_off_c, 1, 61, 0
1, 11520, Note_on_c, 1, 63, 127
1, 11520, Note_on_c, 1, 59, 127
1, 11550, Note_off_c, 1, 63, 0
1, 11552, Note_on_c, 1, 71, 127
1, 11582, Note_off_c, 1, 71, 0
1, 11584, Note_on_c, 1, 73, 127
1, 11609, Note_off_c, 1, 59, 0
1, 11614, Note_off_c, 1, 73, 0
1, 11616, Note_on_c, 1, 75, 127
1, 11646, Note_off_c, 1, 75, 0
1, 11648, Note_on_c, 1, 76, 127
1, 11664, Note_on_c, 1, 47, 127
1, 11678, Note_off_c, 1, 76, 0
1, 11680, Note_on_c, 1, 78, 127
1, 11709, Note_off_c, 1, 47, 0
1, 11710, Note_off_c, 1, 78, 0
1, 11712, Note_on_c, 1, 69, 127
1, 11712, Note_on_c, 1, 49, 127
1, 11742, Note_off_c, 1, 69, 0
1, 11744, Note_on_c, 1, 68, 127
1, 11757, Note_off_c, 1, 49, 0
1, 11760, Note_on_c, 1, 51, 127
1, 11774, Note_off_c, 1, 68, 0
1, 11776, Note_on_c, 1, 66, 127
1, 11805, Note_off_c, 1, 51, 0
1, 11806, Note_off_c, 1, 66, 0
1, 11808, Note_on_c, 1, 68, 127
1, 11808, Note_on_c, 1, 52, 127
1, 11838, Note_off_c, 1, 68, 0
1, 11840, Note_on_c, 1, 64, 127
1, 11870, Note_off_c, 1, 64, 0
1, 11872, Note_on_c, 1, 66, 127
1, 11897, Note_off_c, 1, 52, 0
1, 11902, Note_off_c, 1, 66, 0
1, 11904, Note_on_c, 1, 68, 127
1, 11904, Note_on_c, 1, 40, 127
1, 11934, Note_off_c, 1, 68, 0
1, 11936, Note_on_c, 1, 70, 127
1, 11966, Note_off_c, 1, 70, 0
1, 11968, Note_on_c, 1, 71, 127
1, 11993, Note_off_c, 1, 40, 0
1, 11998, Note_off_c, 1, 71, 0
1, 12000, Note_on_c, 1, 63, 127
1, 12030, Note_off_c, 1, 63, 0
1, 12032, Note_on_c, 1, 61, 127
1, 12062, Note_off_c, 1, 61, 0
1, 12064, Note_on_c, 1, 59, 127
1, 12094, Note_off_c, 1, 59, 0
1, 12096, Note_on_c, 1, 61, 127
1, 12096, Note_on_c, 1, 52, 127
1, 12120, Note_on_c, 1, 76, 127
1, 12141, Note_off_c, 1, 52, 0
1, 12143, Note_off_c, 1, 76, 0
1, 12144, Note_on_c, 1, 75, 127
1, 12144, Note_on_c, 1, 56, 127
1, 12167, Note_off_c, 1, 75, 0
1, 12189, Note_off_c, 1, 56, 0
1, 12192, Note_on_c, 1, 78, 127
1, 12215, Note_off_c, 1, 78, 0
1, 12288, Note_on_c, 1, 80, 127
1, 12311, Note_off_c, 1, 80, 0
1, 12336, Note_on_c, 1, 49, 127
1, 12381, Note_off_c, 1, 49, 0
1, 12384, Note_on_c, 1, 82, 127
1, 12384, Note_on_c, 1, 54, 127
1, 12414, Note_off_c, 1, 61, 0
1, 12416, Note_on_c, 1, 66, 127
1, 12446, Note_off_c, 1, 66, 0
1, 12448, Note_on_c, 1, 68, 127
1, 12473, Note_off_c, 1, 82, 0
1, 12473, Note_off_c, 1, 54, 0
1, 12478, Note_off_c, 1, 68, 0
1, 12480, Note_on_c, 1, 70, 127
1, 12480, Note_on_c, 1, 42, 127
1, 12510, Note_off_c, 1, 70, 0
1, 12512, Note_on_c, 1, 71, 127
1, 12542, Note_off_c, 1, 71, 0
1, 12544, Note_on_c, 1, 73, 127
1, 12569, Note_off_c, 1, 42, 0
1, 12574, Note_off_c, 1, 73, 0
1, 12576, Note_on_c, 1, 64, 127
1, 12606, Note_off_c, 1, 64, 0
1, 12608, Note_on_c, 1, 63, 127
1, 12638, Note_off_c, 1, 63, 0
1, 12640, Note_on_c, 1, 61, 127
1, 12670, Note_off_c, 1, 61, 0
1, 12672, Note_on_c, 1, 63, 127
1, 12672, Note_on_c, 1, 54, 127
1, 12696, Note_on_c, 1, 78, 127
1, 12717, Note_off_c, 1, 54, 0
1, 12719, Note_off_c, 1, 78, 0
1, 12720, Note_on_c, 1, 77, 127
1, 12720, Note_on_c, 1, 58, 127
1, 12743, Note_off_c, 1, 77, 0
1, 12765, Note_off_c, 1, 58, 0
1, 12768, Note_on_c, 1, 80, 127
1, 12791, Note_off_c, 1, 80, 0
1, 12864, Note_on_c, 1, 82, 127
1, 12887, Note_off_c, 1, 82, 0
1, 12912, Note_on_c, 1, 51, 127
1, 12957, Note_off_c, 1, 51, 0
1, 12960, Note_on_c, 1, 83, 127
1, 12960, Note_on_c, 1, 56, 127
1, 12990, Note_off_c, 1, 63, 0
1, 12992, Note_on_c, 1, 68, 127
1, 13022, Note_off_c, 1, 68, 0
1, 13024, Note_on_c, 1, 70, 127
1, 13049, Note_off_c, 1, 83, 0
1, 13049, Note_off_c, 1, 56, 0
1, 13054, Note_off_c, 1, 70, 0
1, 13056, Note_on_c, 1, 71, 127
1, 13086, Note_off_c, 1, 71, 0
1, 13088, Note_on_c, 1, 73, 127
1, 13104, Note_on_c, 1, 44, 127
1, 13118, Note_off_c, 1, 73, 0
1, 13120, Note_on_c, 1, 75, 127
1, 13149, Note_off_c, 1, 44, 0
1, 13150, Note_off_c, 1, 75, 0
1, 13152, Note_on_c, 1, 66, 127
1, 13152, Note_on_c, 1, 46, 127
1, 13182, Note_off_c, 1, 66, 0
1, 13184, Note_on_c, 1, 64, 127
1, 13197, Note_off_c, 1, 46, 0
1, 13200, Note_on_c, 1, 47, 127
1, 13214, Note_off_c, 1, 64, 0
1, 13216, Note_on_c, 1, 63, 127
1, 13245, Note_off_c, 1, 47, 0
1, 13246, Note_off_c, 1, 63, 0
1, 13248, Note_on_c, 1, 64, 127
1, 13248, Note_on_c, 1, 49, 127
1, 13278, Note_off_c, 1, 64, 0
1, 13280, Note_on_c, 1, 73, 127
1, 13310, Note_off_c, 1, 73, 0
1, 13312, Note_on_c, 1, 75, 127
1, 13337, Note_off_c, 1, 49, 0
1, 13342, Note_off_c, 1, 75, 0
1, 13344, Note_on_c, 1, 76, 127
1, 13374, Note_off_c, 1, 76, 0
1, 13376, Note_on_c, 1, 78, 127
1, 13392, Note_on_c, 1, 49, 127
1, 13406, Note_off_c, 1, 78, 0
1, 13408, Note_on_c, 1, 80, 127
1, 13437, Note_off_c, 1, 49, 0
1, 13438, Note_off_c, 1, 80, 0
1, 13440, Note_on_c, 1, 71, 127
1, 13440, Note_on_c, 1, 51, 127
1, 13470, Note_off_c, 1, 71, 0
1, 13472, Note_on_c, 1, 70, 127
1, 13485, Note_off_c, 1, 51, 0
1, 13488, Note_on_c, 1, 52, 127
1, 13502, Note_off_c, 1, 70, 0
1, 13504, Note_on_c, 1, 68, 127
1, 13533, Note_off_c, 1, 52, 0
1, 13534, Note_off_c, 1, 68, 0
1, 13536, Note_on_c, 1, 70, 127
1, 13536, Note_on_c, 1, 54, 127
1, 13566, Note_off_c, 1, 70, 0
1, 13568, Note_on_c, 1, 66, 127
1, 13598, Note_off_c, 1, 66, 0
1, 13600, Note_on_c, 1, 76, 127
1, 13625, Note_off_c, 1, 54, 0
1, 13630, Note_off_c, 1, 76, 0
1, 13632, Note_on_c, 1, 71, 127
1, 13662, Note_off_c, 1, 71, 0
1, 13664, Note_on_c, 1, 68, 127
1, 13680, Note_on_c, 1, 56, 127
1, 13694, Note_off_c, 1, 68, 0
1, 13696, Note_on_c, 1, 76, 127
1, 13725, Note_off_c, 1, 56, 0
1, 13726, Note_off_c, 1, 76, 0
1, 13728, Note_on_c, 1, 73, 127
1, 13728, Note_on_c, 1, 58, 127
1, 13758, Note_off_c, 1, 73, 0
1, 13760, Note_on_c, 1, 70, 127
1, 13773, Note_off_c, 1, 58, 0
1, 13776, Note_on_c, 1, 54, 127
1, 13790, Note_off_c, 1, 70, 0
1, 13792, Note_on_c, 1, 76, 127
1, 13821, Note_off_c, 1, 54, 0
1, 13822, Note_off_c, 1, 76, 0
1, 13824, Note_on_c, 1, 75, 127
1, 13824, Note_on_c, 1, 59, 127
1, 13854, Note_off_c, 1, 75, 0
1, 13856, Note_on_c, 1, 71, 127
1, 13886, Note_off_c, 1, 71, 0
1, 13888, Note_on_c, 1, 73, 127
1, 13913, Note_off_c, 1, 59, 0
1, 13918, Note_off_c, 1, 73, 0
1, 13920, Note_on_c, 1, 75, 127
1, 13950, Note_off_c, 1, 75, 0
1, 13952, Note_on_c, 1, 76, 127
1, 13968, Note_on_c, 1, 47, 127
1, 13982, Note_off_c, 1, 76, 0
1, 13984, Note_on_c, 1, 78, 127
1, 14013, Note_off_c, 1, 47, 0
1, 14014, Note_off_c, 1, 78, 0
1, 14016, Note_on_c, 1, 69, 127
1, 14016, Note_on_c, 1, 49, 127
1, 14046, Note_off_c, 1, 69, 0
1, 14048, Note_on_c, 1, 68, 127
1, 14061, Note_off_c, 1, 49, 0
1, 14064, Note_on_c, 1, 51, 127
1, 14078, Note_off_c, 1, 68, 0
1, 14080, Note_on_c, 1, 66, 127
1, 14109, Note_off_c, 1, 51, 0
1, 14110, Note_off_c, 1, 66, 0
1, 14112, Note_on_c, 1, 68, 127
1, 14112, Note_on_c, 1, 52, 127
1, 14136, Note_on_c, 1, 66, 127
1, 14157, Note_off_c, 1, 68, 0
1, 14157, Note_off_c, 1, 52, 0
1, 14159, Note_off_c, 1, 66, 0
1, 14160, Note_on_c, 1, 76, 127
1, 14160, Note_on_c, 1, 64, 127
1, 14160, Note_on_c, 1, 49, 127
1, 14183, Note_off_c, 1, 64, 0
1, 14183, Note_off_c, 1, 49, 0
1, 14184, Note_on_c, 1, 66, 127
1, 14184, Note_on_c, 1, 51, 127
1, 14205, Note_off_c, 1, 76, 0
1, 14207, Note_off_c, 1, 66, 0
1, 14207, Note_off_c, 1, 51, 0
1, 14208, Note_on_c, 1, 73, 127
1, 14208, Note_on_c, 1, 68, 127
1, 14208, Note_on_c, 1, 52, 127
1, 14231, Note_off_c, 1, 68, 0
1, 14232, Note_on_c, 1, 66, 127
1, 14253, Note_off_c, 1, 52, 0
1, 14255, Note_off_c, 1, 66, 0
1, 14256, Note_on_c, 1, 64, 127
1, 14256, Note_on_c, 1, 49, 127
1, 14279, Note_off_c, 1, 64, 0
1, 14301, Note_off_c, 1, 49, 0
1, 14304, Note_on_c, 1, 70, 127
1, 14304, Note_on_c, 1, 54, 127
1, 14327, Note_off_c, 1, 70, 0
1, 14341, Note_off_c, 1, 73, 0
1, 14349, Note_off_c, 1, 54, 0
1, 14352, Note_on_c, 1, 71, 127
1, 14352, Note_on_c, 1, 64, 127
1, 14352, Note_on_c, 1, 42, 127
1, 14375, Note_off_c, 1, 64, 0
1, 14376, Note_on_c, 1, 66, 127
1, 14397, Note_off_c, 1, 71, 0
1, 14397, Note_off_c, 1, 42, 0
1, 14399, Note_off_c, 1, 66, 0
1, 14400, Note_on_c, 1, 71, 127
1, 14400, Note_on_c, 1, 47, 127
1, 14432, Note_on_c, 1, 66, 127
1, 14462, Note_off_c, 1, 66, 0
1, 14464, Note_on_c, 1, 64, 127
1, 14489, Note_off_c, 1, 71, 0
1, 14489, Note_off_c, 1, 47, 0
1, 14494, Note_off_c, 1, 64, 0
1, 14496, Note_on_c, 1, 66, 127
1, 14526, Note_off_c, 1, 66, 0
1, 14528, Note_on_c, 1, 63, 127
1, 14544, Note_on_c, 1, 42, 127
1, 14558, Note_off_c, 1, 63, 0
1, 14560, Note_on_c, 1, 61, 127
1, 14589, Note_off_c, 1, 42, 0
1, 14590, Note_off_c, 1, 61, 0
1, 14592, Note_on_c, 1, 63, 127
1, 14592, Note_on_c, 1, 47, 127
1, 14622, Note_off_c, 1, 63, 0
1, 14624, Note_on_c, 1, 59, 127
1, 14637, Note_off_c, 1, 47, 0
1, 14640, Note_on_c, 1, 42, 127
1, 14654, Note_off_c, 1, 59, 0
1, 14656, Note_on_c, 1, 58, 127
1, 14685, Note_off_c, 1, 42, 0
1, 14686, Note_off_c, 1, 58, 0
1, 14688, Note_on_c, 1, 59, 127
1, 14688, Note_on_c, 1, 39, 127
1, 14718, Note_off_c, 1, 59, 0
1, 14720, Note_on_c, 1, 63, 127
1, 14750, Note_off_c, 1, 63, 0
1, 14752, Note_on_c, 1, 61, 127
1, 14777, Note_off_c, 1, 39, 0
1, 14782, Note_off_c, 1, 61, 0
1, 14784, Note_on_c, 1, 63, 127
1, 14814, Note_off_c, 1, 63, 0
1, 14816, Note_on_c, 1, 66, 127
1, 14832, Note_on_c, 1, 54, 127
1, 14846, Note_off_c, 1, 66, 0
1, 14848, Note_on_c, 1, 64, 127
1, 14877, Note_off_c, 1, 54, 0
1, 14878, Note_off_c, 1, 64, 0
1, 14880, Note_on_c, 1, 66, 127
1, 14880, Note_on_c, 1, 59, 127
1, 14910, Note_off_c, 1, 66, 0
1, 14912, Note_on_c, 1, 71, 127
1, 14925, Note_off_c, 1, 59, 0
1, 14928, Note_on_c, 1, 54, 127
1, 14942, Note_off_c, 1, 71, 0
1, 14944, Note_on_c, 1, 70, 127
1, 14973, Note_off_c, 1, 54, 0
1, 14974, Note_off_c, 1, 70, 0
1, 14976, Note_on_c, 1, 71, 127
1, 14976, Note_on_c, 1, 51, 127
1, 15006, Note_off_c, 1, 71, 0
1, 15008, Note_on_c, 1, 66, 127
1, 15038, Note_off_c, 1, 66, 0
1, 15040, Note_on_c, 1, 76, 127
1, 15065, Note_off_c, 1, 51, 0
1, 15070, Note_off_c, 1, 76, 0
1, 15072, Note_on_c, 1, 75, 127
1, 15102, Note_off_c, 1, 75, 0
1, 15104, Note_on_c, 1, 66, 127
1, 15120, Note_on_c, 1, 51, 127
1, 15134, Note_off_c, 1, 66, 0
1, 15136, Note_on_c, 1, 78, 127
1, 15143, Note_off_c, 1, 51, 0
1, 15144, Note_on_c, 1, 52, 127
1, 15166, Note_off_c, 1, 78, 0
1, 15167, Note_off_c, 1, 52, 0
1, 15168, Note_on_c, 1, 73, 127
1, 15168, Note_on_c, 1, 54, 127
1, 15198, Note_off_c, 1, 73, 0
1, 15200, Note_on_c, 1, 66, 127
1, 15213, Note_off_c, 1, 54, 0
1, 15216, Note_on_c, 1, 51, 127
1, 15230, Note_off_c, 1, 66, 0
1, 15232, Note_on_c, 1, 76, 127
1, 15261, Note_off_c, 1, 51, 0
1, 15262, Note_off_c, 1, 76, 0
1, 15264, Note_on_c, 1, 75, 127
1, 15264, Note_on_c, 1, 47, 127
1, 15276, Note_off_c, 1, 75, 0
1, 15276, Note_on_c, 1, 76, 127
1, 15288, Note_off_c, 1, 76, 0
1, 15288, Note_on_c, 1, 78, 127
1, 15309, Note_off_c, 1, 47, 0
1, 15311, Note_off_c, 1, 78, 0
1, 15312, Note_on_c, 1, 51, 127
1, 15357, Note_off_c, 1, 51, 0
1, 15360, Note_on_c, 1, 80, 127
1, 15360, Note_on_c, 1, 49, 127
1, 15383, Note_off_c, 1, 80, 0
1, 15405, Note_off_c, 1, 49, 0
1, 15456, Note_on_c, 1, 82, 127
1, 15456, Note_on_c, 1, 73, 127
1, 15456, Note_on_c, 1, 54, 127
1, 15479, Note_off_c, 1, 82, 0
1, 15501, Note_off_c, 1, 54, 0
1, 15545, Note_off_c, 1, 73, 0
1, 15552, Note_on_c, 1, 83, 127
1, 15552, Note_on_c, 1, 71, 127
1, 15552, Note_on_c, 1, 56, 127
1, 15582, Note_off_c, 1, 71, 0
1, 15584, Note_on_c, 1, 68, 127
1, 15614, Note_off_c, 1, 68, 0
1, 15616, Note_on_c, 1, 70, 127
1, 15641, Note_off_c, 1, 83, 0
1, 15641, Note_off_c, 1, 56, 0
1, 15646, Note_off_c, 1, 70, 0
1, 15648, Note_on_c, 1, 71, 127
1, 15678, Note_off_c, 1, 71, 0
1, 15680, Note_on_c, 1, 73, 127
1, 15696, Note_on_c, 1, 44, 127
1, 15710, Note_off_c, 1, 73, 0
1, 15712, Note_on_c, 1, 75, 127
1, 15741, Note_off_c, 1, 44, 0
1, 15742, Note_off_c, 1, 75, 0
1, 15744, Note_on_c, 1, 66, 127
1, 15744, Note_on_c, 1, 46, 127
1, 15774, Note_off_c, 1, 66, 0
1, 15776, Note_on_c, 1, 65, 127
1, 15789, Note_off_c, 1, 46, 0
1, 15792, Note_on_c, 1, 48, 127
1, 15806, Note_off_c, 1, 65, 0
1, 15808, Note_on_c, 1, 63, 127
1, 15837, Note_off_c, 1, 48, 0
1, 15838, Note_off_c, 1, 63, 0
1, 15840, Note_on_c, 1, 65, 127
1, 15840, Note_on_c, 1, 49, 127
1, 15870, Note_off_c, 1, 65, 0
1, 15872, Note_on_c, 1, 73, 127
1, 15902, Note_off_c, 1, 73, 0
1, 15904, Note_on_c, 1, 75, 127
1, 15929, Note_off_c, 1, 49, 0
1, 15934, Note_off_c, 1, 75, 0
1, 15936, Note_on_c, 1, 77, 127
1, 15966, Note_off_c, 1, 77, 0
1, 15968, Note_on_c, 1, 78, 127
1, 15984, Note_on_c, 1, 49, 127
1, 15998, Note_off_c, 1, 78, 0
1, 16000, Note_on_c, 1, 80, 127
1, 16029, Note_off_c, 1, 49, 0
1, 16030, Note_off_c, 1, 80, 0
1, 16032, Note_on_c, 1, 71, 127
1, 16032, Note_on_c, 1, 51, 127
1, 16062, Note_off_c, 1, 71, 0
1, 16064, Note_on_c, 1, 70, 127
1, 16077, Note_off_c, 1, 51, 0
1, 16080, Note_on_c, 1, 53, 127
1, 16094, Note_off_c, 1, 70, 0
1, 16096, Note_on_c, 1, 68, 127
1, 16125, Note_off_c, 1, 53, 0
1, 16126, Note_off_c, 1, 68, 0
1, 16128, Note_on_c, 1, 70, 127
1, 16128, Note_on_c, 1, 54, 127
1, 16158, Note_off_c, 1, 70, 0
1, 16160, Note_on_c, 1, 66, 127
1, 16190, Note_off_c, 1, 66, 0
1, 16192, Note_on_c, 1, 68, 127
1, 16217, Note_off_c, 1, 54, 0
1, 16222, Note_off_c, 1, 68, 0
1, 16224, Note_on_c, 1, 70, 127
1, 16254, Note_off_c, 1, 70, 0
1, 16256, Note_on_c, 1, 71, 127
1, 16272, Note_on_c, 1, 42, 127
1, 16286, Note_off_c, 1, 71, 0
1, 16288, Note_on_c, 1, 73, 127
1, 16317, Note_off_c, 1, 42, 0
1, 16318, Note_off_c, 1, 73, 0
1, 16320, Note_on_c, 1, 64, 127
1, 16320, Note_on_c, 1, 44, 127
1, 16350, Note_off_c, 1, 64, 0
1, 16352, Note_on_c, 1, 63, 127
1, 16365, Note_off_c, 1, 44, 0
1, 16368, Note_on_c, 1, 46, 127
1, 16382, Note_off_c, 1, 63, 0
1, 16384, Note_on_c, 1, 61, 127
1, 16413, Note_off_c, 1, 46, 0
1, 16414, Note_off_c, 1, 61, 0
1, 16416, Note_on_c, 1, 63, 127
1, 16416, Note_on_c, 1, 47, 127
1, 16446, Note_off_c, 1, 63, 0
1, 16448, Note_on_c, 1, 71, 127
1, 16478, Note_off_c, 1, 71, 0
1, 16480, Note_on_c, 1, 73, 127
1, 16505, Note_off_c, 1, 47, 0
1, 16510, Note_off_c, 1, 73, 0
1, 16512, Note_on_c, 1, 75, 127
1, 16512, Note_on_c, 1, 35, 127
1, 16542, Note_off_c, 1, 75, 0
1, 16544, Note_on_c, 1, 77, 127
1, 16574, Note_off_c, 1, 77, 0
1, 16576, Note_on_c, 1, 78, 127
1, 16601, Note_off_c, 1, 35, 0
1, 16606, Note_off_c, 1, 78, 0
1, 16608, Note_on_c, 1, 70, 127
1, 16638, Note_off_c, 1, 70, 0
1, 16640, Note_on_c, 1, 68, 127
1, 16670, Note_off_c, 1, 68, 0
1, 16672, Note_on_c, 1, 66, 127
1, 16702, Note_off_c, 1, 66, 0
1, 16704, Note_on_c, 1, 68, 127
1, 16728, Note_on_c, 1, 71, 127
1, 16751, Note_off_c, 1, 71, 0
1, 16752, Note_on_c, 1, 70, 127
1, 16752, Note_on_c, 1, 51, 127
1, 16775, Note_off_c, 1, 70, 0
1, 16797, Note_off_c, 1, 51, 0
1, 16800, Note_on_c, 1, 73, 127
1, 16800, Note_on_c, 1, 56, 127
1, 16823, Note_off_c, 1, 73, 0
1, 16845, Note_off_c, 1, 56, 0
1, 16896, Note_on_c, 1, 75, 127
1, 16896, Note_on_c, 1, 47, 127
1, 16919, Note_off_c, 1, 75, 0
1, 16941, Note_off_c, 1, 47, 0
1, 16944, Note_on_c, 1, 44, 127
1, 16989, Note_off_c, 1, 44, 0
1, 16992, Note_on_c, 1, 77, 127
1, 16992, Note_on_c, 1, 49, 127
1, 17022, Note_off_c, 1, 68, 0
1, 17081, Note_off_c, 1, 77, 0
1, 17081, Note_off_c, 1, 49, 0
1, 17088, Note_on_c, 1, 77, 127
1, 17088, Note_on_c, 1, 37, 127
1, 17118, Note_off_c, 1, 77, 0
1, 17120, Note_on_c, 1, 78, 127
1, 17150, Note_off_c, 1, 78, 0
1, 17152, Note_on_c, 1, 80, 127
1, 17177, Note_off_c, 1, 37, 0
1, 17182, Note_off_c, 1, 80, 0
1, 17184, Note_on_c, 1, 71, 127
1, 17214, Note_off_c, 1, 71, 0
1, 17216, Note_on_c, 1, 70, 127
1, 17246, Note_off_c, 1, 70, 0
1, 17248, Note_on_c, 1, 68, 127
1, 17278, Note_off_c, 1, 68, 0
1, 17280, Note_on_c, 1, 70, 127
1, 17304, Note_on_c, 1, 73, 127
1, 17327, Note_off_c, 1, 73, 0
1, 17328, Note_on_c, 1, 72, 127
1, 17328, Note_on_c, 1, 53, 127
1, 17351, Note_off_c, 1, 72, 0
1, 17373, Note_off_c, 1, 53, 0
1, 17376, Note_on_c, 1, 75, 127
1, 17376, Note_on_c, 1, 58, 127
1, 17399, Note_off_c, 1, 75, 0
1, 17421, Note_off_c, 1, 58, 0
1, 17472, Note_on_c, 1, 76, 127
1, 17472, Note_on_c, 1, 49, 127
1, 17495, Note_off_c, 1, 76, 0
1, 17517, Note_off_c, 1, 49, 0
1, 17520, Note_on_c, 1, 46, 127
1, 17565, Note_off_c, 1, 46, 0
1, 17568, Note_on_c, 1, 78, 127
1, 17568, Note_on_c, 1, 51, 127
1, 17598, Note_off_c, 1, 70, 0
1, 17632, Note_on_c, 1, 77, 127
1, 17657, Note_off_c, 1, 78, 0
1, 17657, Note_off_c, 1, 51, 0
1, 17662, Note_off_c, 1, 77, 0
1, 17664, Note_on_c, 1, 78, 127
1, 17694, Note_off_c, 1, 78, 0
1, 17696, Note_on_c, 1, 80, 127
1, 17712, Note_on_c, 1, 39, 127
1, 17726, Note_off_c, 1, 80, 0
1, 17728, Note_on_c, 1, 82, 127
1, 17757, Note_off_c, 1, 39, 0
1, 17758, Note_off_c, 1, 82, 0
1, 17760, Note_on_c, 1, 73, 127
1, 17760, Note_on_c, 1, 41, 127
1, 17790, Note_off_c, 1, 73, 0
1, 17792, Note_on_c, 1, 71, 127
1, 17805, Note_off_c, 1, 41, 0
1, 17808, Note_on_c, 1, 42, 127
1, 17822, Note_off_c, 1, 71, 0
1, 17824, Note_on_c, 1, 70, 127
1, 17853, Note_off_c, 1, 42, 0
1, 17854, Note_off_c, 1, 70, 0
1, 17856, Note_on_c, 1, 71, 127
1, 17856, Note_on_c, 1, 44, 127
1, 17886, Note_off_c, 1, 71, 0
1, 17888, Note_on_c, 1, 68, 127
1, 17918, Note_off_c, 1, 68, 0
1, 17920, Note_on_c, 1, 70, 127
1, 17945, Note_off_c, 1, 44, 0
1, 17950, Note_off_c, 1, 70, 0
1, 17952, Note_on_c, 1, 71, 127
1, 17982, Note_off_c, 1, 71, 0
1, 17984, Note_on_c, 1, 73, 127
1, 18000, Note_on_c, 1, 44, 127
1, 18014, Note_off_c, 1, 73, 0
1, 18016, Note_on_c, 1, 75, 127
1, 18045, Note_off_c, 1, 44, 0
1, 18046, Note_off_c, 1, 75, 0
1, 18048, Note_on_c, 1, 66, 127
1, 18048, Note_on_c, 1, 46, 127
1, 18078, Note_off_c, 1, 66, 0
1, 18080, Note_on_c, 1, 65, 127
1, 18093, Note_off_c, 1, 46, 0
1, 18096, Note_on_c, 1, 47, 127
1, 18110, Note_off_c, 1, 65, 0
1, 18112, Note_on_c, 1, 63, 127
1, 18141, Note_off_c, 1, 47, 0
1, 18142, Note_off_c, 1, 63, 0
1, 18144, Note_on_c, 1, 65, 127
1, 18144, Note_on_c, 1, 49, 127
1, 18174, Note_off_c, 1, 65, 0
1, 18176, Note_on_c, 1, 61, 127
1, 18206, Note_off_c, 1, 61, 0
1, 18208, Note_on_c, 1, 71, 127
1, 18233, Note_off_c, 1, 49, 0
1, 18238, Note_off_c, 1, 71, 0
1, 18240, Note_on_c, 1, 66, 127
1, 18270, Note_off_c, 1, 66, 0
1, 18272, Note_on_c, 1, 63, 127
1, 18288, Note_on_c, 1, 51, 127
1, 18302, Note_off_c, 1, 63, 0
1, 18304, Note_on_c, 1, 71, 127
1, 18333, Note_off_c, 1, 51, 0
1, 18334, Note_off_c, 1, 71, 0
1, 18336, Note_on_c, 1, 68, 127
1, 18336, Note_on_c, 1, 53, 127
1, 18366, Note_off_c, 1, 68, 0
1, 18368, Note_on_c, 1, 65, 127
1, 18381, Note_off_c, 1, 53, 0
1, 18384, Note_on_c, 1, 49, 127
1, 18398, Note_off_c, 1, 65, 0
1, 18400, Note_on_c, 1, 71, 127
1, 18429, Note_off_c, 1, 49, 0
1, 18430, Note_off_c, 1, 71, 0
1, 18432, Note_on_c, 1, 70, 127
1, 18432, Note_on_c, 1, 54, 127
1, 18462, Note_off_c, 1, 70, 0
1, 18464, Note_on_c, 1, 66, 127
1, 18494, Note_off_c, 1, 66, 0
1, 18496, Note_on_c, 1, 68, 127
1, 18521, Note_off_c, 1, 54, 0
1, 18526, Note_off_c, 1, 68, 0
1, 18528, Note_on_c, 1, 70, 127
1, 18558, Note_off_c, 1, 70, 0
1, 18560, Note_on_c, 1, 71, 127
1, 18576, Note_on_c, 1, 42, 127
1, 18590, Note_off_c, 1, 71, 0
1, 18592, Note_on_c, 1, 73, 127
1, 18621, Note_off_c, 1, 42, 0
1, 18622, Note_off_c, 1, 73, 0
1, 18624, Note_on_c, 1, 64, 127
1, 18624, Note_on_c, 1, 44, 127
1, 18654, Note_off_c, 1, 64, 0
1, 18656, Note_on_c, 1, 63, 127
1, 18669, Note_off_c, 1, 44, 0
1, 18672, Note_on_c, 1, 46, 127
1, 18686, Note_off_c, 1, 63, 0
1, 18688, Note_on_c, 1, 61, 127
1, 18717, Note_off_c, 1, 46, 0
1, 18718, Note_off_c, 1, 61, 0
1, 18720, Note_on_c, 1, 63, 127
1, 18720, Note_on_c, 1, 47, 127
1, 18744, Note_on_c, 1, 61, 127
1, 18765, Note_off_c, 1, 63, 0
1, 18765, Note_off_c, 1, 47, 0
1, 18767, Note_off_c, 1, 61, 0
1, 18768, Note_on_c, 1, 59, 127
1, 18768, Note_on_c, 1, 71, 127
1, 18768, Note_on_c, 1, 44, 127
1, 18791, Note_off_c, 1, 59, 0
1, 18791, Note_off_c, 1, 44, 0
1, 18792, Note_on_c, 1, 61, 127
1, 18792, Note_on_c, 1, 46, 127
1, 18813, Note_off_c, 1, 71, 0
1, 18815, Note_off_c, 1, 61, 0
1, 18815, Note_off_c, 1, 46, 0
1, 18816, Note_on_c, 1, 63, 127
1, 18816, Note_on_c, 1, 68, 127
1, 18816, Note_on_c, 1, 47, 127
1, 18828, Note_off_c, 1, 68, 0
1, 18828, Note_on_c, 1, 69, 127
1, 18839, Note_off_c, 1, 63, 0
1, 18840, Note_off_c, 1, 69, 0
1, 18840, Note_on_c, 1, 61, 127
1, 18861, Note_off_c, 1, 47, 0
1, 18863, Note_off_c, 1, 61, 0
1, 18864, Note_on_c, 1, 59, 127
1, 18864, Note_on_c, 1, 44, 127
1, 18887, Note_off_c, 1, 59, 0
1, 18909, Note_off_c, 1, 44, 0
1, 18912, Note_on_c, 1, 65, 127
1, 18912, Note_on_c, 1, 49, 127
1, 18935, Note_off_c, 1, 65, 0
1, 18957, Note_off_c, 1, 49, 0
1, 18960, Note_on_c, 1, 66, 127
1, 18960, Note_on_c, 1, 37, 127
1, 19005, Note_off_c, 1, 66, 0
1, 19005, Note_off_c, 1, 37, 0
1, 19008, Note_on_c, 1, 66, 127
1, 19008, Note_on_c, 1, 42, 127
1, 19040, Note_on_c, 1, 61, 127
1, 19070, Note_off_c, 1, 61, 0
1, 19072, Note_on_c, 1, 71, 127
1, 19097, Note_off_c, 1, 66, 0
1, 19097, Note_off_c, 1, 42, 0
1, 19102, Note_off_c, 1, 71, 0
1, 19104, Note_on_c, 1, 70, 127
1, 19134, Note_off_c, 1, 70, 0
1, 19136, Note_on_c, 1, 61, 127
1, 19152, Note_on_c, 1, 54, 127
1, 19166, Note_off_c, 1, 61, 0
1, 19168, Note_on_c, 1, 73, 127
1, 19197, Note_off_c, 1, 54, 0
1, 19198, Note_off_c, 1, 73, 0
1, 19200, Note_on_c, 1, 68, 127
1, 19200, Note_on_c, 1, 53, 127
1, 19230, Note_off_c, 1, 68, 0
1, 19232, Note_on_c, 1, 61, 127
1, 19245, Note_off_c, 1, 53, 0
1, 19248, Note_on_c, 1, 49, 127
1, 19262, Note_off_c, 1, 61, 0
1, 19264, Note_on_c, 1, 71, 127
1, 19293, Note_off_c, 1, 49, 0
1, 19294, Note_off_c, 1, 71, 0
1, 19296, Note_on_c, 1, 70, 127
1, 19296, Note_on_c, 1, 66, 127
1, 19296, Note_on_c, 1, 54, 127
1, 19326, Note_off_c, 1, 66, 0
1, 19328, Note_on_c, 1, 61, 127
1, 19358, Note_off_c, 1, 61, 0
1, 19360, Note_on_c, 1, 71, 127
1, 19385, Note_off_c, 1, 70, 0
1, 19385, Note_off_c, 1, 54, 0
1, 19390, Note_off_c, 1, 71, 0
1, 19392, Note_on_c, 1, 70, 127
1, 19422, Note_off_c, 1, 70, 0
1, 19424, Note_on_c, 1, 61, 127
1, 19440, Note_on_c, 1, 54, 127
1, 19454, Note_off_c, 1, 61, 0
1, 19456, Note_on_c, 1, 73, 127
1, 19485, Note_off_c, 1, 54, 0
1, 19486, Note_off_c, 1, 73, 0
1, 19488, Note_on_c, 1, 68, 127
1, 19488, Note_on_c, 1, 53, 127
1, 19518, Note_off_c, 1, 68, 0
1, 19520, Note_on_c, 1, 61, 127
1, 19533, Note_off_c, 1, 53, 0
1, 19536, Note_on_c, 1, 49, 127
1, 19550, Note_off_c, 1, 61, 0
1, 19552, Note_on_c, 1, 71, 127
1, 19581, Note_off_c, 1, 49, 0
1, 19582, Note_off_c, 1, 71, 0
1, 19584, Note_on_c, 1, 66, 127
1, 19584, Note_on_c, 1, 70, 127
1, 19584, Note_on_c, 1, 54, 127
1, 19614, Note_off_c, 1, 66, 0
1, 19648, Note_on_c, 1, 68, 127
1, 19673, Note_off_c, 1, 70, 0
1, 19673, Note_off_c, 1, 54, 0
1, 19678, Note_off_c, 1, 68, 0
1, 19680, Note_on_c, 1, 70, 127
1, 19710, Note_off_c, 1, 70, 0
1, 19712, Note_on_c, 1, 73, 127
1, 19728, Note_on_c, 1, 56, 127
1, 19742, Note_off_c, 1, 73, 0
1, 19744, Note_on_c, 1, 71, 127
1, 19773, Note_off_c, 1, 56, 0
1, 19774, Note_off_c, 1, 71, 0
1, 19776, Note_on_c, 1, 73, 127
1, 19776, Note_on_c, 1, 58, 127
1, 19806, Note_off_c, 1, 73, 0
1, 19808, Note_on_c, 1, 76, 127
1, 19821, Note_off_c, 1, 58, 0
1, 19824, Note_on_c, 1, 54, 127
1, 19838, Note_off_c, 1, 76, 0
1, 19840, Note_on_c, 1, 75, 127
1, 19869, Note_off_c, 1, 54, 0
1, 19870, Note_off_c, 1, 75, 0
1, 19872, Note_on_c, 1, 76, 127
1, 19872, Note_on_c, 1, 61, 127
1, 19872, Note_on_c, 1, 49, 127
1, 19902, Note_off_c, 1, 61, 0
1, 19904, Note_on_c, 1, 64, 127
1, 19934, Note_off_c, 1, 64, 0
1, 19936, Note_on_c, 1, 63, 127
1, 19961, Note_off_c, 1, 49, 0
1, 19966, Note_off_c, 1, 63, 0
1, 20000, Note_on_c, 1, 68, 127
1, 20016, Note_on_c, 1, 51, 127
1, 20030, Note_off_c, 1, 68, 0
1, 20032, Note_on_c, 1, 66, 127
1, 20061, Note_off_c, 1, 51, 0
1, 20062, Note_off_c, 1, 66, 0
1, 20064, Note_on_c, 1, 52, 127
1, 20096, Note_on_c, 1, 71, 127
1, 20109, Note_off_c, 1, 52, 0
1, 20126, Note_off_c, 1, 71, 0
1, 20128, Note_on_c, 1, 70, 127
1, 20137, Note_off_c, 1, 76, 0
1, 20158, Note_off_c, 1, 70, 0
1, 20160, Note_on_c, 1, 76, 127
1, 20160, Note_on_c, 1, 70, 127
1, 20160, Note_on_c, 1, 42, 127
1, 20183, Note_off_c, 1, 70, 0
1, 20184, Note_on_c, 1, 66, 127
1, 20205, Note_off_c, 1, 76, 0
1, 20207, Note_off_c, 1, 66, 0
1, 20208, Note_on_c, 1, 65, 127
1, 20231, Note_off_c, 1, 65, 0
1, 20249, Note_off_c, 1, 42, 0
1, 20256, Note_on_c, 1, 70, 127
1, 20256, Note_on_c, 1, 68, 127
1, 20279, Note_off_c, 1, 68, 0
1, 20280, Note_on_c, 1, 66, 127
1, 20301, Note_off_c, 1, 70, 0
1, 20303, Note_off_c, 1, 66, 0
1, 20304, Note_on_c, 1, 73, 127
1, 20304, Note_on_c, 1, 65, 127
1, 20304, Note_on_c, 1, 56, 127
1, 20327, Note_off_c, 1, 65, 0
1, 20328, Note_on_c, 1, 66, 127
1, 20349, Note_off_c, 1, 73, 0
1, 20349, Note_off_c, 1, 56, 0
1, 20351, Note_off_c, 1, 66, 0
1, 20352, Note_on_c, 1, 78, 127
1, 20352, Note_on_c, 1, 70, 127
1, 20352, Note_on_c, 1, 54, 127
1, 20375, Note_off_c, 1, 70, 0
1, 20376, Note_on_c, 1, 66, 127
1, 20397, Note_off_c, 1, 54, 0
1, 20399, Note_off_c, 1, 66, 0
1, 20400, Note_on_c, 1, 65, 127
1, 20400, Note_on_c, 1, 52, 127
1, 20423, Note_off_c, 1, 65, 0
1, 20445, Note_off_c, 1, 52, 0
1, 20448, Note_on_c, 1, 71, 127
1, 20448, Note_on_c, 1, 51, 127
1, 20471, Note_off_c, 1, 71, 0
1, 20493, Note_off_c, 1, 78, 0
1, 20496, Note_on_c, 1, 75, 127
1, 20537, Note_off_c, 1, 51, 0
1, 20541, Note_off_c, 1, 75, 0
1, 20544, Note_on_c, 1, 73, 127
1, 20544, Note_on_c, 1, 70, 127
1, 20567, Note_off_c, 1, 70, 0
1, 20568, Note_on_c, 1, 66, 127
1, 20589, Note_off_c, 1, 73, 0
1, 20591, Note_off_c, 1, 66, 0
1, 20592, Note_on_c, 1, 71, 127
1, 20592, Note_on_c, 1, 65, 127
1, 20592, Note_on_c, 1, 51, 127
1, 20615, Note_off_c, 1, 65, 0
1, 20616, Note_on_c, 1, 66, 127
1, 20637, Note_off_c, 1, 71, 0
1, 20637, Note_off_c, 1, 51, 0
1, 20639, Note_off_c, 1, 66, 0
1, 20640, Note_on_c, 1, 78, 127
1, 20640, Note_on_c, 1, 71, 127
1, 20640, Note_on_c, 1, 49, 127
1, 20663, Note_off_c, 1, 71, 0
1, 20664, Note_on_c, 1, 66, 127
1, 20685, Note_off_c, 1, 49, 0
1, 20687, Note_off_c, 1, 66, 0
1, 20688, Note_on_c, 1, 65, 127
1, 20688, Note_on_c, 1, 47, 127
1, 20711, Note_off_c, 1, 65, 0
1, 20733, Note_off_c, 1, 47, 0
1, 20736, Note_on_c, 1, 73, 127
1, 20736, Note_on_c, 1, 46, 127
1, 20759, Note_off_c, 1, 73, 0
1, 20781, Note_off_c, 1, 78, 0
1, 20784, Note_on_c, 1, 70, 127
1, 20825, Note_off_c, 1, 46, 0
1, 20829, Note_off_c, 1, 70, 0
1, 20832, Note_on_c, 1, 68, 127
1, 20832, Note_on_c, 1, 71, 127
1, 20855, Note_off_c, 1, 71, 0
1, 20856, Note_on_c, 1, 66, 127
1, 20877, Note_off_c, 1, 68, 0
1, 20879, Note_off_c, 1, 66, 0
1, 20880, Note_on_c, 1, 66, 127
1, 20880, Note_on_c, 1, 65, 127
1, 20880, Note_on_c, 1, 46, 127
1, 20903, Note_off_c, 1, 65, 0
1, 20925, Note_off_c, 1, 46, 0
1, 20927, Note_off_c, 1, 66, 0
1, 20928, Note_on_c, 1, 76, 127
1, 20928, Note_on_c, 1, 73, 127
1, 20928, Note_on_c, 1, 44, 127
1, 20951, Note_off_c, 1, 73, 0
1, 20952, Note_on_c, 1, 66, 127
1, 20973, Note_off_c, 1, 44, 0
1, 20975, Note_off_c, 1, 66, 0
1, 20976, Note_on_c, 1, 65, 127
1, 20976, Note_on_c, 1, 42, 127
1, 20999, Note_off_c, 1, 65, 0
1, 21017, Note_off_c, 1, 76, 0
1, 21021, Note_off_c, 1, 42, 0
1, 21024, Note_on_c, 1, 75, 127
1, 21024, Note_on_c, 1, 71, 127
1, 21024, Note_on_c, 1, 47, 127
1, 21054, Note_off_c, 1, 71, 0
1, 21056, Note_on_c, 1, 66, 127
1, 21086, Note_off_c, 1, 66, 0
1, 21088, Note_on_c, 1, 76, 127
1, 21113, Note_off_c, 1, 75, 0
1, 21113, Note_off_c, 1, 47, 0
1, 21118, Note_off_c, 1, 76, 0
1, 21120, Note_on_c, 1, 75, 127
1, 21150, Note_off_c, 1, 75, 0
1, 21152, Note_on_c, 1, 66, 127
1, 21168, Note_on_c, 1, 59, 127
1, 21182, Note_off_c, 1, 66, 0
1, 21184, Note_on_c, 1, 78, 127
1, 21213, Note_off_c, 1, 59, 0
1, 21214, Note_off_c, 1, 78, 0
1, 21216, Note_on_c, 1, 73, 127
1, 21216, Note_on_c, 1, 58, 127
1, 21246, Note_off_c, 1, 73, 0
1, 21248, Note_on_c, 1, 66, 127
1, 21261, Note_off_c, 1, 58, 0
1, 21264, Note_on_c, 1, 54, 127
1, 21278, Note_off_c, 1, 66, 0
1, 21280, Note_on_c, 1, 76, 127
1, 21309, Note_off_c, 1, 54, 0
1, 21310, Note_off_c, 1, 76, 0
1, 21312, Note_on_c, 1, 71, 127
1, 21312, Note_on_c, 1, 75, 127
1, 21312, Note_on_c, 1, 59, 127
1, 21342, Note_off_c, 1, 71, 0
1, 21344, Note_on_c, 1, 66, 127
1, 21374, Note_off_c, 1, 66, 0
1, 21376, Note_on_c, 1, 76, 127
1, 21401, Note_off_c, 1, 75, 0
1, 21401, Note_off_c, 1, 59, 0
1, 21406, Note_off_c, 1, 76, 0
1, 21408, Note_on_c, 1, 75, 127
1, 21438, Note_off_c, 1, 75, 0
1, 21440, Note_on_c, 1, 66, 127
1, 21456, Note_on_c, 1, 59, 127
1, 21470, Note_off_c, 1, 66, 0
1, 21472, Note_on_c, 1, 78, 127
1, 21501, Note_off_c, 1, 59, 0
1, 21502, Note_off_c, 1, 78, 0
1, 21504, Note_on_c, 1, 73, 127
1, 21504, Note_on_c, 1, 58, 127
1, 21534, Note_off_c, 1, 73, 0
1, 21536, Note_on_c, 1, 66, 127
1, 21549, Note_off_c, 1, 58, 0
1, 21552, Note_on_c, 1, 54, 127
1, 21566, Note_off_c, 1, 66, 0
1, 21568, Note_on_c, 1, 76, 127
1, 21597, Note_off_c, 1, 54, 0
1, 21598, Note_off_c, 1, 76, 0
1, 21600, Note_on_c, 1, 75, 127
1, 21600, Note_on_c, 1, 71, 127
1, 21600, Note_on_c, 1, 59, 127
1, 21630, Note_off_c, 1, 71, 0
1, 21664, Note_on_c, 1, 73, 127
1, 21689, Note_off_c, 1, 75, 0
1, 21689, Note_off_c, 1, 59, 0
1, 21694, Note_off_c, 1, 73, 0
1, 21696, Note_on_c, 1, 75, 127
1, 21726, Note_off_c, 1, 75, 0
1, 21728, Note_on_c, 1, 78, 127
1, 21744, Note_on_c, 1, 61, 127
1, 21758, Note_off_c, 1, 78, 0
1, 21760, Note_on_c, 1, 76, 127
1, 21789, Note_off_c, 1, 61, 0
1, 21790, Note_off_c, 1, 76, 0
1, 21792, Note_on_c, 1, 78, 127
1, 21792, Note_on_c, 1, 63, 127
1, 21822, Note_off_c, 1, 78, 0
1, 21824, Note_on_c, 1, 81, 127
1, 21837, Note_off_c, 1, 63, 0
1, 21840, Note_on_c, 1, 59, 127
1, 21854, Note_off_c, 1, 81, 0
1, 21856, Note_on_c, 1, 80, 127
1, 21885, Note_off_c, 1, 59, 0
1, 21886, Note_off_c, 1, 80, 0
1, 21888, Note_on_c, 1, 66, 127
1, 21888, Note_on_c, 1, 81, 127
1, 21888, Note_on_c, 1, 54, 127
1, 21918, Note_off_c, 1, 66, 0
1, 21920, Note_on_c, 1, 69, 127
1, 21950, Note_off_c, 1, 69, 0
1, 21952, Note_on_c, 1, 68, 127
1, 21977, Note_off_c, 1, 54, 0
1, 21982, Note_off_c, 1, 68, 0
1, 22016, Note_on_c, 1, 73, 127
1, 22032, Note_on_c, 1, 56, 127
1, 22046, Note_off_c, 1, 73, 0
1, 22048, Note_on_c, 1, 71, 127
1, 22077, Note_off_c, 1, 56, 0
1, 22078, Note_off_c, 1, 71, 0
1, 22080, Note_on_c, 1, 57, 127
1, 22112, Note_on_c, 1, 76, 127
1, 22125, Note_off_c, 1, 57, 0
1, 22142, Note_off_c, 1, 76, 0
1, 22144, Note_on_c, 1, 75, 127
1, 22174, Note_off_c, 1, 75, 0
1, 22176, Note_on_c, 1, 47, 127
1, 22221, Note_off_c, 1, 81, 0
1, 22224, Note_on_c, 1, 70, 127
1, 22247, Note_off_c, 1, 70, 0
1, 22265, Note_off_c, 1, 47, 0
1, 22272, Note_on_c, 1, 73, 127
1, 22272, Note_on_c, 1, 75, 127
1, 22295, Note_off_c, 1, 73, 0
1, 22296, Note_on_c, 1, 71, 127
1, 22317, Note_off_c, 1, 75, 0
1, 22319, Note_off_c, 1, 71, 0
1, 22320, Note_on_c, 1, 70, 127
1, 22320, Note_on_c, 1, 78, 127
1, 22320, Note_on_c, 1, 61, 127
1, 22343, Note_off_c, 1, 70, 0
1, 22344, Note_on_c, 1, 71, 127
1, 22365, Note_off_c, 1, 78, 0
1, 22365, Note_off_c, 1, 61, 0
1, 22367, Note_off_c, 1, 71, 0
1, 22368, Note_on_c, 1, 75, 127
1, 22368, Note_on_c, 1, 83, 127
1, 22368, Note_on_c, 1, 59, 127
1, 22391, Note_off_c, 1, 75, 0
1, 22392, Note_on_c, 1, 71, 127
1, 22413, Note_off_c, 1, 59, 0
1, 22415, Note_off_c, 1, 71, 0
1, 22416, Note_on_c, 1, 70, 127
1, 22416, Note_on_c, 1, 57, 127
1, 22439, Note_off_c, 1, 70, 0
1, 22461, Note_off_c, 1, 57, 0
1, 22464, Note_on_c, 1, 76, 127
1, 22464, Note_on_c, 1, 56, 127
1, 22487, Note_off_c, 1, 76, 0
1, 22509, Note_off_c, 1, 83, 0
1, 22512, Note_on_c, 1, 80, 127
1, 22553, Note_off_c, 1, 56, 0
1, 22557, Note_off_c, 1, 80, 0
1, 22560, Note_on_c, 1, 75, 127
1, 22560, Note_on_c, 1, 78, 127
1, 22583, Note_off_c, 1, 75, 0
1, 22584, Note_on_c, 1, 71, 127
1, 22605, Note_off_c, 1, 78, 0
1, 22607, Note_off_c, 1, 71, 0
1, 22608, Note_on_c, 1, 70, 127
1, 22608, Note_on_c, 1, 76, 127
1, 22608, Note_on_c, 1, 56, 127
1, 22631, Note_off_c, 1, 70, 0
1, 22632, Note_on_c, 1, 71, 127
1, 22653, Note_off_c, 1, 76, 0
1, 22653, Note_off_c, 1, 56, 0
1, 22655, Note_off_c, 1, 71, 0
1, 22656, Note_on_c, 1, 76, 127
1, 22656, Note_on_c, 1, 83, 127
1, 22656, Note_on_c, 1, 54, 127
1, 22679, Note_off_c, 1, 76, 0
1, 22680, Note_on_c, 1, 71, 127
1, 22701, Note_off_c, 1, 54, 0
1, 22703, Note_off_c, 1, 71, 0
1, 22704, Note_on_c, 1, 70, 127
1, 22704, Note_on_c, 1, 52, 127
1, 22727, Note_off_c, 1, 70, 0
1, 22749, Note_off_c, 1, 52, 0
1, 22752, Note_on_c, 1, 78, 127
1, 22752, Note_on_c, 1, 51, 127
1, 22775, Note_off_c, 1, 78, 0
1, 22797, Note_off_c, 1, 83, 0
1, 22800, Note_on_c, 1, 75, 127
1, 22841, Note_off_c, 1, 51, 0
1, 22845, Note_off_c, 1, 75, 0
1, 22848, Note_on_c, 1, 76, 127
1, 22848, Note_on_c, 1, 73, 127
1, 22871, Note_off_c, 1, 76, 0
1, 22872, Note_on_c, 1, 71, 127
1, 22893, Note_off_c, 1, 73, 0
1, 22895, Note_off_c, 1, 71, 0
1, 22896, Note_on_c, 1, 70, 127
1, 22896, Note_on_c, 1, 71, 127
1, 22896, Note_on_c, 1, 51, 127
1, 22919, Note_off_c, 1, 70, 0
1, 22941, Note_off_c, 1, 51, 0
1, 22943, Note_off_c, 1, 71, 0
1, 22944, Note_on_c, 1, 78, 127
1, 22944, Note_on_c, 1, 81, 127
1, 22944, Note_on_c, 1, 49, 127
1, 22967, Note_off_c, 1, 78, 0
1, 22968, Note_on_c, 1, 71, 127
1, 22989, Note_off_c, 1, 49, 0
1, 22991, Note_off_c, 1, 71, 0
1, 22992, Note_on_c, 1, 70, 127
1, 22992, Note_on_c, 1, 47, 127
1, 23015, Note_off_c, 1, 70, 0
1, 23033, Note_off_c, 1, 81, 0
1, 23037, Note_off_c, 1, 47, 0
1, 23040, Note_on_c, 1, 80, 127
1, 23040, Note_on_c, 1, 52, 127
1, 23063, Note_off_c, 1, 52, 0
1, 23064, Note_on_c, 1, 44, 127
1, 23087, Note_off_c, 1, 44, 0
1, 23088, Note_on_c, 1, 88, 127
1, 23088, Note_on_c, 1, 43, 127
1, 23111, Note_off_c, 1, 43, 0
1, 23129, Note_off_c, 1, 80, 0
1, 23136, Note_on_c, 1, 78, 127
1, 23136, Note_on_c, 1, 46, 127
1, 23148, Note_off_c, 1, 78, 0
1, 23159, Note_off_c, 1, 46, 0
1, 23177, Note_off_c, 1, 88, 0
1, 23184, Note_on_c, 1, 87, 127
1, 23207, Note_off_c, 1, 87, 0
1, 23208, Note_on_c, 1, 85, 127
1, 23231, Note_off_c, 1, 85, 0
1, 23232, Note_on_c, 1, 48, 127
1, 23255, Note_off_c, 1, 48, 0
1, 23256, Note_on_c, 1, 76, 127
1, 23279, Note_off_c, 1, 76, 0
1, 23280, Note_on_c, 1, 80, 127
1, 23280, Note_on_c, 1, 78, 127
1, 23280, Note_on_c, 1, 43, 127
1, 23303, Note_off_c, 1, 78, 0
1, 23303, Note_off_c, 1, 43, 0
1, 23304, Note_on_c, 1, 75, 127
1, 23304, Note_on_c, 1, 44, 127
1, 23327, Note_off_c, 1, 75, 0
1, 23327, Note_off_c, 1, 44, 0
1, 23328, Note_on_c, 1, 76, 127
1, 23328, Note_on_c, 1, 49, 127
1, 23351, Note_off_c, 1, 76, 0
1, 23351, Note_off_c, 1, 49, 0
1, 23373, Note_off_c, 1, 80, 0
1, 23376, Note_on_c, 1, 85, 127
1, 23376, Note_on_c, 1, 76, 127
1, 23376, Note_on_c, 1, 43, 127
1, 23399, Note_off_c, 1, 76, 0
1, 23399, Note_off_c, 1, 43, 0
1, 23400, Note_on_c, 1, 73, 127
1, 23400, Note_on_c, 1, 44, 127
1, 23421, Note_off_c, 1, 85, 0
1, 23423, Note_off_c, 1, 73, 0
1, 23423, Note_off_c, 1, 44, 0
1, 23424, Note_on_c, 1, 78, 127
1, 23424, Note_on_c, 1, 75, 127
1, 23424, Note_on_c, 1, 48, 127
1, 23447, Note_off_c, 1, 78, 0
1, 23447, Note_off_c, 1, 75, 0
1, 23447, Note_off_c, 1, 48, 0
1, 23448, Note_on_c, 1, 76, 127
1, 23448, Note_on_c, 1, 73, 127
1, 23448, Note_on_c, 1, 44, 127
1, 23471, Note_off_c, 1, 76, 0
1, 23471, Note_off_c, 1, 73, 0
1, 23471, Note_off_c, 1, 44, 0
1, 23472, Note_on_c, 1, 78, 127
1, 23472, Note_on_c, 1, 75, 127
1, 23472, Note_on_c, 1, 43, 127
1, 23495, Note_off_c, 1, 78, 0
1, 23495, Note_off_c, 1, 75, 0
1, 23495, Note_off_c, 1, 43, 0
1, 23496, Note_on_c, 1, 75, 127
1, 23496, Note_on_c, 1, 72, 127
1, 23496, Note_on_c, 1, 44, 127
1, 23519, Note_off_c, 1, 75, 0
1, 23519, Note_off_c, 1, 72, 0
1, 23519, Note_off_c, 1, 44, 0
1, 23520, Note_on_c, 1, 76, 127
1, 23520, Note_on_c, 1, 73, 127
1, 23520, Note_on_c, 1, 49, 127
1, 23543, Note_off_c, 1, 76, 0
1, 23543, Note_off_c, 1, 49, 0
1, 23544, Note_on_c, 1, 75, 127
1, 23544, Note_on_c, 1, 44, 127
1, 23567, Note_off_c, 1, 75, 0
1, 23567, Note_off_c, 1, 44, 0
1, 23568, Note_on_c, 1, 43, 127
1, 23591, Note_off_c, 1, 43, 0
1, 23616, Note_on_c, 1, 78, 127
1, 23616, Note_on_c, 1, 51, 127
1, 23639, Note_off_c, 1, 51, 0
1, 23661, Note_off_c, 1, 73, 0
1, 23749, Note_off_c, 1, 78, 0
1, 23760, Note_on_c, 1, 76, 127
1, 23760, Note_on_c, 1, 73, 127
1, 23760, Note_on_c, 1, 43, 127
1, 23783, Note_off_c, 1, 76, 0
1, 23783, Note_off_c, 1, 43, 0
1, 23784, Note_on_c, 1, 75, 127
1, 23784, Note_on_c, 1, 44, 127
1, 23805, Note_off_c, 1, 73, 0
1, 23807, Note_off_c, 1, 75, 0
1, 23807, Note_off_c, 1, 44, 0
1, 23808, Note_on_c, 1, 78, 127
1, 23808, Note_on_c, 1, 72, 127
1, 23808, Note_on_c, 1, 51, 127
1, 23831, Note_off_c, 1, 78, 0
1, 23831, Note_off_c, 1, 51, 0
1, 23832, Note_on_c, 1, 76, 127
1, 23832, Note_on_c, 1, 44, 127
1, 23855, Note_off_c, 1, 76, 0
1, 23855, Note_off_c, 1, 44, 0
1, 23856, Note_on_c, 1, 75, 127
1, 23856, Note_on_c, 1, 43, 127
1, 23879, Note_off_c, 1, 75, 0
1, 23879, Note_off_c, 1, 43, 0
1, 23880, Note_on_c, 1, 73, 127
1, 23903, Note_off_c, 1, 73, 0
1, 23904, Note_on_c, 1, 80, 127
1, 23904, Note_on_c, 1, 53, 127
1, 23927, Note_off_c, 1, 72, 0
1, 23949, Note_off_c, 1, 53, 0
1, 23952, Note_on_c, 1, 49, 127
1, 23993, Note_off_c, 1, 80, 0
1, 23997, Note_off_c, 1, 49, 0
1, 24000, Note_on_c, 1, 74, 127
1, 24000, Note_on_c, 1, 53, 127
1, 24023, Note_off_c, 1, 74, 0
1, 24024, Note_on_c, 1, 73, 127
1, 24045, Note_off_c, 1, 53, 0
1, 24047, Note_off_c, 1, 73, 0
1, 24048, Note_on_c, 1, 65, 127
1, 24048, Note_on_c, 1, 72, 127
1, 24048, Note_on_c, 1, 56, 127
1, 24071, Note_off_c, 1, 72, 0
1, 24072, Note_on_c, 1, 73, 127
1, 24093, Note_off_c, 1, 65, 0
1, 24093, Note_off_c, 1, 56, 0
1, 24095, Note_off_c, 1, 73, 0
1, 24096, Note_on_c, 1, 68, 127
1, 24096, Note_on_c, 1, 77, 127
1, 24096, Note_on_c, 1, 61, 127
1, 24119, Note_off_c, 1, 77, 0
1, 24120, Note_on_c, 1, 73, 127
1, 24141, Note_off_c, 1, 68, 0
1, 24143, Note_off_c, 1, 73, 0
1, 24144, Note_on_c, 1, 72, 127
1, 24167, Note_off_c, 1, 72, 0
1, 24192, Note_on_c, 1, 74, 127
1, 24192, Note_on_c, 1, 78, 127
1, 24215, Note_off_c, 1, 78, 0
1, 24237, Note_off_c, 1, 61, 0
1, 24240, Note_on_c, 1, 57, 127
1, 24281, Note_off_c, 1, 74, 0
1, 24285, Note_off_c, 1, 57, 0
1, 24288, Note_on_c, 1, 77, 127
1, 24288, Note_on_c, 1, 56, 127
1, 24311, Note_off_c, 1, 77, 0
1, 24312, Note_on_c, 1, 73, 127
1, 24333, Note_off_c, 1, 56, 0
1, 24335, Note_off_c, 1, 73, 0
1, 24336, Note_on_c, 1, 66, 127
1, 24336, Note_on_c, 1, 72, 127
1, 24336, Note_on_c, 1, 54, 127
1, 24359, Note_off_c, 1, 72, 0
1, 24360, Note_on_c, 1, 73, 127
1, 24381, Note_off_c, 1, 66, 0
1, 24381, Note_off_c, 1, 54, 0
1, 24383, Note_off_c, 1, 73, 0
1, 24384, Note_on_c, 1, 69, 127
1, 24384, Note_on_c, 1, 78, 127
1, 24384, Note_on_c, 1, 61, 127
1, 24407, Note_off_c, 1, 78, 0
1, 24408, Note_on_c, 1, 73, 127
1, 24429, Note_off_c, 1, 69, 0
1, 24431, Note_off_c, 1, 73, 0
1, 24432, Note_on_c, 1, 75, 127
1, 24432, Note_on_c, 1, 72, 127
1, 24455, Note_off_c, 1, 72, 0
1, 24477, Note_off_c, 1, 75, 0
1, 24480, Note_on_c, 1, 77, 127
1, 24480, Note_on_c, 1, 80, 127
1, 24503, Note_off_c, 1, 80, 0
1, 24525, Note_off_c, 1, 61, 0
1, 24528, Note_on_c, 1, 53, 127
1, 24569, Note_off_c, 1, 77, 0
1, 24573, Note_off_c, 1, 53, 0
1, 24576, Note_on_c, 1, 78, 127
1, 24576, Note_on_c, 1, 51, 127
1, 24599, Note_off_c, 1, 78, 0
1, 24600, Note_on_c, 1, 73, 127
1, 24621, Note_off_c, 1, 51, 0
1, 24623, Note_off_c, 1, 73, 0
1, 24624, Note_on_c, 1, 68, 127
1, 24624, Note_on_c, 1, 72, 127
1, 24624, Note_on_c, 1, 49, 127
1, 24647, Note_off_c, 1, 72, 0
1, 24648, Note_on_c, 1, 73, 127
1, 24669, Note_off_c, 1, 68, 0
1, 24669, Note_off_c, 1, 49, 0
1, 24671, Note_off_c, 1, 73, 0
1, 24672, Note_on_c, 1, 73, 127
1, 24672, Note_on_c, 1, 80, 127
1, 24672, Note_on_c, 1, 61, 127
1, 24695, Note_off_c, 1, 80, 0
1, 24717, Note_off_c, 1, 61, 0
1, 24719, Note_off_c, 1, 73, 0
1, 24720, Note_on_c, 1, 77, 127
1, 24720, Note_on_c, 1, 72, 127
1, 24720, Note_on_c, 1, 49, 127
1, 24743, Note_off_c, 1, 72, 0
1, 24744, Note_on_c, 1, 73, 127
1, 24765, Note_off_c, 1, 77, 0
1, 24765, Note_off_c, 1, 49, 0
1, 24767, Note_off_c, 1, 73, 0
1, 24768, Note_on_c, 1, 78, 127
1, 24768, Note_on_c, 1, 81, 127
1, 24768, Note_on_c, 1, 54, 127
1, 24791, Note_off_c, 1, 78, 0
1, 24791, Note_off_c, 1, 81, 0
1, 24792, Note_on_c, 1, 73, 127
1, 24815, Note_off_c, 1, 73, 0
1, 24816, Note_on_c, 1, 69, 127
1, 24839, Note_off_c, 1, 69, 0
1, 24857, Note_off_c, 1, 54, 0
1, 24864, Note_on_c, 1, 78, 127
1, 24864, Note_on_c, 1, 81, 127
1, 24887, Note_off_c, 1, 78, 0
1, 24887, Note_off_c, 1, 81, 0
1, 24888, Note_on_c, 1, 73, 127
1, 24888, Note_on_c, 1, 78, 127
1, 24911, Note_off_c, 1, 73, 0
1, 24911, Note_off_c, 1, 78, 0
1, 24912, Note_on_c, 1, 69, 127
1, 24912, Note_on_c, 1, 73, 127
1, 24912, Note_on_c, 1, 54, 127
1, 24935, Note_off_c, 1, 69, 0
1, 24935, Note_off_c, 1, 73, 0
1, 24936, Note_on_c, 1, 78, 127
1, 24957, Note_off_c, 1, 54, 0
1, 24959, Note_off_c, 1, 78, 0
1, 24960, Note_on_c, 1, 66, 127
1, 24960, Note_on_c, 1, 69, 127
1, 24960, Note_on_c, 1, 42, 127
1, 24983, Note_off_c, 1, 66, 0
1, 24983, Note_off_c, 1, 69, 0
1, 24984, Note_on_c, 1, 73, 127
1, 25005, Note_off_c, 1, 42, 0
1, 25007, Note_off_c, 1, 73, 0
1, 25008, Note_on_c, 1, 65, 127
1, 25008, Note_on_c, 1, 68, 127
1, 25008, Note_on_c, 1, 54, 127
1, 25031, Note_off_c, 1, 65, 0
1, 25031, Note_off_c, 1, 68, 0
1, 25032, Note_on_c, 1, 71, 127
1, 25053, Note_off_c, 1, 54, 0
1, 25055, Note_off_c, 1, 71, 0
1, 25056, Note_on_c, 1, 66, 127
1, 25056, Note_on_c, 1, 69, 127
1, 25056, Note_on_c, 1, 54, 127
1, 25079, Note_off_c, 1, 66, 0
1, 25079, Note_off_c, 1, 69, 0
1, 25080, Note_on_c, 1, 81, 127
1, 25080, Note_on_c, 1, 74, 127
1, 25103, Note_off_c, 1, 81, 0
1, 25103, Note_off_c, 1, 74, 0
1, 25104, Note_on_c, 1, 78, 127
1, 25127, Note_off_c, 1, 78, 0
1, 25128, Note_on_c, 1, 76, 127
1, 25145, Note_off_c, 1, 54, 0
1, 25151, Note_off_c, 1, 76, 0
1, 25152, Note_on_c, 1, 86, 127
1, 25152, Note_on_c, 1, 80, 127
1, 25175, Note_off_c, 1, 86, 0
1, 25175, Note_off_c, 1, 80, 0
1, 25176, Note_on_c, 1, 81, 127
1, 25176, Note_on_c, 1, 76, 127
1, 25199, Note_off_c, 1, 81, 0
1, 25199, Note_off_c, 1, 76, 0
1, 25200, Note_on_c, 1, 78, 127
1, 25200, Note_on_c, 1, 71, 127
1, 25200, Note_on_c, 1, 54, 127
1, 25223, Note_off_c, 1, 78, 0
1, 25223, Note_off_c, 1, 71, 0
1, 25224, Note_on_c, 1, 81, 127
1, 25224, Note_on_c, 1, 76, 127
1, 25245, Note_off_c, 1, 54, 0
1, 25247, Note_off_c, 1, 81, 0
1, 25247, Note_off_c, 1, 76, 0
1, 25248, Note_on_c, 1, 74, 127
1, 25248, Note_on_c, 1, 66, 127
1, 25248, Note_on_c, 1, 42, 127
1, 25271, Note_off_c, 1, 74, 0
1, 25271, Note_off_c, 1, 66, 0
1, 25272, Note_on_c, 1, 78, 127
1, 25272, Note_on_c, 1, 69, 127
1, 25293, Note_off_c, 1, 42, 0
1, 25295, Note_off_c, 1, 78, 0
1, 25295, Note_off_c, 1, 69, 0
1, 25296, Note_on_c, 1, 73, 127
1, 25296, Note_on_c, 1, 64, 127
1, 25296, Note_on_c, 1, 54, 127
1, 25319, Note_off_c, 1, 73, 0
1, 25319, Note_off_c, 1, 64, 0
1, 25320, Note_on_c, 1, 76, 127
1, 25320, Note_on_c, 1, 67, 127
1, 25341, Note_off_c, 1, 54, 0
1, 25343, Note_off_c, 1, 76, 0
1, 25343, Note_off_c, 1, 67, 0
1, 25344, Note_on_c, 1, 74, 127
1, 25344, Note_on_c, 1, 66, 127
1, 25344, Note_on_c, 1, 54, 127
1, 25367, Note_off_c, 1, 74, 0
1, 25367, Note_off_c, 1, 66, 0
1, 25368, Note_on_c, 1, 78, 127
1, 25368, Note_on_c, 1, 69, 127
1, 25391, Note_off_c, 1, 78, 0
1, 25391, Note_off_c, 1, 69, 0
1, 25433, Note_off_c, 1, 54, 0
1, 25440, Note_on_c, 1, 81, 127
1, 25440, Note_on_c, 1, 74, 127
1, 25463, Note_off_c, 1, 81, 0
1, 25463, Note_off_c, 1, 74, 0
1, 25464, Note_on_c, 1, 78, 127
1, 25464, Note_on_c, 1, 69, 127
1, 25487, Note_off_c, 1, 78, 0
1, 25487, Note_off_c, 1, 69, 0
1, 25488, Note_on_c, 1, 74, 127
1, 25488, Note_on_c, 1, 66, 127
1, 25488, Note_on_c, 1, 54, 127
1, 25511, Note_off_c, 1, 74, 0
1, 25511, Note_off_c, 1, 66, 0
1, 25512, Note_on_c, 1, 78, 127
1, 25512, Note_on_c, 1, 69, 127
1, 25533, Note_off_c, 1, 54, 0
1, 25535, Note_off_c, 1, 78, 0
1, 25535, Note_off_c, 1, 69, 0
1, 25536, Note_on_c, 1, 69, 127
1, 25536, Note_on_c, 1, 62, 127
1, 25536, Note_on_c, 1, 42, 127
1, 25559, Note_off_c, 1, 69, 0
1, 25559, Note_off_c, 1, 62, 0
1, 25560, Note_on_c, 1, 74, 127
1, 25560, Note_on_c, 1, 66, 127
1, 25581, Note_off_c, 1, 42, 0
1, 25583, Note_off_c, 1, 74, 0
1, 25583, Note_off_c, 1, 66, 0
1, 25584, Note_on_c, 1, 76, 127
1, 25584, Note_on_c, 1, 61, 127
1, 25584, Note_on_c, 1, 54, 127
1, 25607, Note_off_c, 1, 76, 0
1, 25607, Note_off_c, 1, 61, 0
1, 25608, Note_on_c, 1, 73, 127
1, 25608, Note_on_c, 1, 66, 127
1, 25629, Note_off_c, 1, 54, 0
1, 25631, Note_off_c, 1, 73, 0
1, 25631, Note_off_c, 1, 66, 0
1, 25632, Note_on_c, 1, 66, 127
1, 25632, Note_on_c, 1, 60, 127
1, 25632, Note_on_c, 1, 56, 127
1, 25655, Note_off_c, 1, 66, 0
1, 25655, Note_off_c, 1, 60, 0
1, 25655, Note_off_c, 1, 56, 0
1, 25656, Note_on_c, 1, 72, 127
1, 25656, Note_on_c, 1, 63, 127
1, 25656, Note_on_c, 1, 54, 127
1, 25679, Note_off_c, 1, 72, 0
1, 25679, Note_off_c, 1, 63, 0
1, 25679, Note_off_c, 1, 54, 0
1, 25680, Note_on_c, 1, 75, 127
1, 25680, Note_on_c, 1, 60, 127
1, 25680, Note_on_c, 1, 51, 127
1, 25703, Note_off_c, 1, 75, 0
1, 25703, Note_off_c, 1, 60, 0
1, 25703, Note_off_c, 1, 51, 0
1, 25704, Note_on_c, 1, 72, 127
1, 25704, Note_on_c, 1, 63, 127
1, 25704, Note_on_c, 1, 54, 127
1, 25727, Note_off_c, 1, 72, 0
1, 25727, Note_off_c, 1, 63, 0
1, 25727, Note_off_c, 1, 54, 0
1, 25728, Note_on_c, 1, 66, 127
1, 25728, Note_on_c, 1, 56, 127
1, 25751, Note_off_c, 1, 66, 0
1, 25751, Note_off_c, 1, 56, 0
1, 25752, Note_on_c, 1, 72, 127
1, 25752, Note_on_c, 1, 63, 127
1, 25752, Note_on_c, 1, 54, 127
1, 25775, Note_off_c, 1, 72, 0
1, 25775, Note_off_c, 1, 63, 0
1, 25775, Note_off_c, 1, 54, 0
1, 25776, Note_on_c, 1, 75, 127
1, 25776, Note_on_c, 1, 60, 127
1, 25776, Note_on_c, 1, 51, 127
1, 25799, Note_off_c, 1, 75, 0
1, 25799, Note_off_c, 1, 60, 0
1, 25799, Note_off_c, 1, 51, 0
1, 25800, Note_on_c, 1, 72, 127
1, 25800, Note_on_c, 1, 63, 127
1, 25800, Note_on_c, 1, 54, 127
1, 25823, Note_off_c, 1, 72, 0
1, 25823, Note_off_c, 1, 63, 0
1, 25823, Note_off_c, 1, 54, 0
1, 25824, Note_on_c, 1, 66, 127
1, 25824, Note_on_c, 1, 56, 127
1, 25824, Note_on_c, 1, 48, 127
1, 25847, Note_off_c, 1, 66, 0
1, 25847, Note_off_c, 1, 48, 0
1, 25848, Note_on_c, 1, 72, 127
1, 25848, Note_on_c, 1, 51, 127
1, 25869, Note_off_c, 1, 56, 0
1, 25871, Note_off_c, 1, 72, 0
1, 25871, Note_off_c, 1, 51, 0
1, 25872, Note_on_c, 1, 75, 127
1, 25872, Note_on_c, 1, 72, 127
1, 25872, Note_on_c, 1, 44, 127
1, 25895, Note_off_c, 1, 75, 0
1, 25895, Note_off_c, 1, 44, 0
1, 25896, Note_on_c, 1, 48, 127
1, 25919, Note_off_c, 1, 72, 0
1, 25919, Note_off_c, 1, 48, 0
1, 25920, Note_on_c, 1, 64, 127
1, 25920, Note_on_c, 1, 80, 127
1, 25920, Note_on_c, 1, 49, 127
1, 25943, Note_off_c, 1, 64, 0
1, 25943, Note_off_c, 1, 80, 0
1, 25944, Note_on_c, 1, 69, 127
1, 25944, Note_on_c, 1, 75, 127
1, 25965, Note_off_c, 1, 49, 0
1, 25967, Note_off_c, 1, 69, 0
1, 25967, Note_off_c, 1, 75, 0
1, 25968, Note_on_c, 1, 68, 127
1, 25968, Note_on_c, 1, 76, 127
1, 25968, Note_on_c, 1, 54, 127
1, 25991, Note_off_c, 1, 68, 0
1, 25991, Note_off_c, 1, 76, 0
1, 25992, Note_on_c, 1, 66, 127
1, 25992, Note_on_c, 1, 73, 127
1, 26013, Note_off_c, 1, 54, 0
1, 26015, Note_off_c, 1, 66, 0
1, 26015, Note_off_c, 1, 73, 0
1, 26016, Note_on_c, 1, 64, 127
1, 26016, Note_on_c, 1, 72, 127
1, 26016, Note_on_c, 1, 56, 127
1, 26061, Note_off_c, 1, 56, 0
1, 26064, Note_on_c, 1, 54, 127
1, 26105, Note_off_c, 1, 64, 0
1, 26109, Note_off_c, 1, 54, 0
1, 26112, Note_on_c, 1, 63, 127
1, 26124, Note_off_c, 1, 63, 0
1, 26149, Note_off_c, 1, 72, 0
1, 26160, Note_on_c, 1, 73, 127
1, 26160, Note_on_c, 1, 44, 127
1, 26184, Note_on_c, 1, 61, 127
1, 26205, Note_off_c, 1, 73, 0
1, 26205, Note_off_c, 1, 44, 0
1, 26207, Note_off_c, 1, 61, 0
1, 26208, Note_on_c, 1, 61, 127
1, 26208, Note_on_c, 1, 73, 127
1, 26208, Note_on_c, 1, 49, 127
1, 26231, Note_off_c, 1, 73, 0
1, 26232, Note_on_c, 1, 80, 127
1, 26255, Note_off_c, 1, 80, 0
1, 26256, Note_on_c, 1, 81, 127
1, 26279, Note_off_c, 1, 81, 0
1, 26297, Note_off_c, 1, 61, 0
1, 26297, Note_off_c, 1, 49, 0
1, 26304, Note_on_c, 1, 76, 127
1, 26304, Note_on_c, 1, 61, 127
1, 26327, Note_off_c, 1, 76, 0
1, 26328, Note_on_c, 1, 80, 127
1, 26349, Note_off_c, 1, 61, 0
1, 26351, Note_off_c, 1, 80, 0
1, 26352, Note_on_c, 1, 81, 127
1, 26352, Note_on_c, 1, 61, 127
1, 26375, Note_off_c, 1, 81, 0
1, 26376, Note_on_c, 1, 80, 127
1, 26397, Note_off_c, 1, 61, 0
1, 26399, Note_off_c, 1, 80, 0
1, 26400, Note_on_c, 1, 75, 127
1, 26400, Note_on_c, 1, 59, 127
1, 26423, Note_off_c, 1, 75, 0
1, 26424, Note_on_c, 1, 80, 127
1, 26445, Note_off_c, 1, 59, 0
1, 26447, Note_off_c, 1, 80, 0
1, 26448, Note_on_c, 1, 81, 127
1, 26448, Note_on_c, 1, 59, 127
1, 26471, Note_off_c, 1, 81, 0
1, 26472, Note_on_c, 1, 80, 127
1, 26493, Note_off_c, 1, 59, 0
1, 26495, Note_off_c, 1, 80, 0
1, 26496, Note_on_c, 1, 73, 127
1, 26496, Note_on_c, 1, 58, 127
1, 26519, Note_off_c, 1, 73, 0
1, 26520, Note_on_c, 1, 78, 127
1, 26543, Note_off_c, 1, 78, 0
1, 26544, Note_on_c, 1, 80, 127
1, 26567, Note_off_c, 1, 80, 0
1, 26585, Note_off_c, 1, 58, 0
1, 26592, Note_on_c, 1, 75, 127
1, 26592, Note_on_c, 1, 59, 127
1, 26615, Note_off_c, 1, 75, 0
1, 26616, Note_on_c, 1, 78, 127
1, 26637, Note_off_c, 1, 59, 0
1, 26639, Note_off_c, 1, 78, 0
1, 26640, Note_on_c, 1, 80, 127
1, 26640, Note_on_c, 1, 59, 127
1, 26663, Note_off_c, 1, 80, 0
1, 26664, Note_on_c, 1, 78, 127
1, 26685, Note_off_c, 1, 59, 0
1, 26687, Note_off_c, 1, 78, 0
1, 26688, Note_on_c, 1, 73, 127
1, 26688, Note_on_c, 1, 58, 127
1, 26711, Note_off_c, 1, 73, 0
1, 26712, Note_on_c, 1, 78, 127
1, 26733, Note_off_c, 1, 58, 0
1, 26735, Note_off_c, 1, 78, 0
1, 26736, Note_on_c, 1, 80, 127
1, 26736, Note_on_c, 1, 58, 127
1, 26759, Note_off_c, 1, 80, 0
1, 26760, Note_on_c, 1, 78, 127
1, 26781, Note_off_c, 1, 58, 0
1, 26783, Note_off_c, 1, 78, 0
1, 26784, Note_on_c, 1, 71, 127
1, 26784, Note_on_c, 1, 56, 127
1, 26807, Note_off_c, 1, 71, 0
1, 26808, Note_on_c, 1, 76, 127
1, 26831, Note_off_c, 1, 76, 0
1, 26832, Note_on_c, 1, 78, 127
1, 26855, Note_off_c, 1, 78, 0
1, 26873, Note_off_c, 1, 56, 0
1, 26880, Note_on_c, 1, 76, 127
1, 26880, Note_on_c, 1, 73, 127
1, 26880, Note_on_c, 1, 58, 127
1, 26903, Note_off_c, 1, 73, 0
1, 26925, Note_off_c, 1, 58, 0
1, 26928, Note_on_c, 1, 78, 127
1, 26928, Note_on_c, 1, 59, 127
1, 26951, Note_off_c, 1, 78, 0
1, 26973, Note_off_c, 1, 59, 0
1, 26976, Note_on_c, 1, 71, 127
1, 26976, Note_on_c, 1, 61, 127
1, 26999, Note_off_c, 1, 71, 0
1, 27065, Note_off_c, 1, 61, 0
1, 27072, Note_on_c, 1, 70, 127
1, 27084, Note_off_c, 1, 76, 0
1, 27095, Note_off_c, 1, 70, 0
1, 27096, Note_on_c, 1, 54, 127
1, 27119, Note_off_c, 1, 54, 0
1, 27120, Note_on_c, 1, 68, 127
1, 27120, Note_on_c, 1, 53, 127
1, 27143, Note_off_c, 1, 68, 0
1, 27143, Note_off_c, 1, 53, 0
1, 27168, Note_on_c, 1, 56, 127
1, 27191, Note_off_c, 1, 56, 0
1, 27360, Note_on_c, 1, 75, 127
1, 27360, Note_on_c, 1, 66, 127
1, 27383, Note_off_c, 1, 75, 0
1, 27405, Note_off_c, 1, 66, 0
1, 27408, Note_on_c, 1, 80, 127
1, 27408, Note_on_c, 1, 75, 127
1, 27408, Note_on_c, 1, 47, 127
1, 27431, Note_off_c, 1, 80, 0
1, 27432, Note_on_c, 1, 78, 127
1, 27453, Note_off_c, 1, 75, 0
1, 27453, Note_off_c, 1, 47, 0
1, 27455, Note_off_c, 1, 78, 0
1, 27456, Note_on_c, 1, 75, 127
1, 27456, Note_on_c, 1, 59, 127
1, 27479, Note_off_c, 1, 75, 0
1, 27480, Note_on_c, 1, 78, 127
1, 27501, Note_off_c, 1, 59, 0
1, 27503, Note_off_c, 1, 78, 0
1, 27504, Note_on_c, 1, 80, 127
1, 27504, Note_on_c, 1, 59, 127
1, 27527, Note_off_c, 1, 80, 0
1, 27528, Note_on_c, 1, 78, 127
1, 27549, Note_off_c, 1, 59, 0
1, 27551, Note_off_c, 1, 78, 0
1, 27552, Note_on_c, 1, 75, 127
1, 27552, Note_on_c, 1, 57, 127
1, 27575, Note_off_c, 1, 75, 0
1, 27576, Note_on_c, 1, 78, 127
1, 27597, Note_off_c, 1, 57, 0
1, 27599, Note_off_c, 1, 78, 0
1, 27600, Note_on_c, 1, 80, 127
1, 27600, Note_on_c, 1, 57, 127
1, 27623, Note_off_c, 1, 80, 0
1, 27624, Note_on_c, 1, 78, 127
1, 27645, Note_off_c, 1, 57, 0
1, 27647, Note_off_c, 1, 78, 0
1, 27648, Note_on_c, 1, 74, 127
1, 27648, Note_on_c, 1, 56, 127
1, 27671, Note_off_c, 1, 74, 0
1, 27672, Note_on_c, 1, 76, 127
1, 27695, Note_off_c, 1, 76, 0
1, 27696, Note_on_c, 1, 78, 127
1, 27719, Note_off_c, 1, 78, 0
1, 27737, Note_off_c, 1, 56, 0
1, 27744, Note_on_c, 1, 73, 127
1, 27744, Note_on_c, 1, 57, 127
1, 27767, Note_off_c, 1, 73, 0
1, 27768, Note_on_c, 1, 76, 127
1, 27789, Note_off_c, 1, 57, 0
1, 27791, Note_off_c, 1, 76, 0
1, 27792, Note_on_c, 1, 78, 127
1, 27792, Note_on_c, 1, 57, 127
1, 27815, Note_off_c, 1, 78, 0
1, 27816, Note_on_c, 1, 76, 127
1, 27837, Note_off_c, 1, 57, 0
1, 27839, Note_off_c, 1, 76, 0
1, 27840, Note_on_c, 1, 71, 127
1, 27840, Note_on_c, 1, 56, 127
1, 27863, Note_off_c, 1, 71, 0
1, 27864, Note_on_c, 1, 76, 127
1, 27885, Note_off_c, 1, 56, 0
1, 27887, Note_off_c, 1, 76, 0
1, 27888, Note_on_c, 1, 78, 127
1, 27888, Note_on_c, 1, 56, 127
1, 27911, Note_off_c, 1, 78, 0
1, 27912, Note_on_c, 1, 76, 127
1, 27933, Note_off_c, 1, 56, 0
1, 27935, Note_off_c, 1, 76, 0
1, 27936, Note_on_c, 1, 69, 127
1, 27936, Note_on_c, 1, 54, 127
1, 27959, Note_off_c, 1, 69, 0
1, 27960, Note_on_c, 1, 74, 127
1, 27983, Note_off_c, 1, 74, 0
1, 27984, Note_on_c, 1, 76, 127
1, 28007, Note_off_c, 1, 76, 0
1, 28025, Note_off_c, 1, 54, 0
1, 28032, Note_on_c, 1, 71, 127
1, 28032, Note_on_c, 1, 74, 127
1, 28032, Note_on_c, 1, 56, 127
1, 28055, Note_off_c, 1, 71, 0
1, 28077, Note_off_c, 1, 56, 0
1, 28080, Note_on_c, 1, 76, 127
1, 28080, Note_on_c, 1, 57, 127
1, 28103, Note_off_c, 1, 76, 0
1, 28125, Note_off_c, 1, 57, 0
1, 28128, Note_on_c, 1, 69, 127
1, 28128, Note_on_c, 1, 59, 127
1, 28151, Note_off_c, 1, 69, 0
1, 28217, Note_off_c, 1, 59, 0
1, 28223, Note_off_c, 1, 74, 0
1, 28224, Note_on_c, 1, 68, 127
1, 28224, Note_on_c, 1, 74, 127
1, 28236, Note_off_c, 1, 74, 0
1, 28236, Note_on_c, 1, 76, 127
1, 28247, Note_off_c, 1, 68, 0
1, 28248, Note_off_c, 1, 76, 0
1, 28248, Note_on_c, 1, 80, 127
1, 28248, Note_on_c, 1, 52, 127
1, 28271, Note_off_c, 1, 80, 0
1, 28271, Note_off_c, 1, 52, 0
1, 28272, Note_on_c, 1, 78, 127
1, 28272, Note_on_c, 1, 51, 127
1, 28295, Note_off_c, 1, 78, 0
1, 28295, Note_off_c, 1, 51, 0
1, 28320, Note_on_c, 1, 81, 127
1, 28320, Note_on_c, 1, 54, 127
1, 28343, Note_off_c, 1, 81, 0
1, 28343, Note_off_c, 1, 54, 0
1, 28416, Note_on_c, 1, 83, 127
1, 28416, Note_on_c, 1, 56, 127
1, 28439, Note_off_c, 1, 83, 0
1, 28439, Note_off_c, 1, 56, 0
1, 28512, Note_on_c, 1, 73, 127
1, 28512, Note_on_c, 1, 57, 127
1, 28524, Note_off_c, 1, 73, 0
1, 28524, Note_on_c, 1, 75, 127
1, 28535, Note_off_c, 1, 57, 0
1, 28536, Note_off_c, 1, 75, 0
1, 28560, Note_on_c, 1, 85, 127
1, 28560, Note_on_c, 1, 49, 127
1, 28583, Note_off_c, 1, 49, 0
1, 28605, Note_off_c, 1, 85, 0
1, 28800, Note_on_c, 1, 71, 127
1, 28812, Note_off_c, 1, 71, 0
1, 28848, Note_on_c, 1, 47, 127
1, 28871, Note_off_c, 1, 47, 0
1, 29088, Note_on_c, 1, 69, 127
1, 29100, Note_off_c, 1, 69, 0
1, 29136, Note_on_c, 1, 45, 127
1, 29159, Note_off_c, 1, 45, 0
1, 29400, Note_on_c, 1, 64, 127
1, 29423, Note_off_c, 1, 64, 0
1, 29424, Note_on_c, 1, 63, 127
1, 29447, Note_off_c, 1, 63, 0
1, 29472, Note_on_c, 1, 80, 127
1, 29472, Note_on_c, 1, 66, 127
1, 29495, Note_off_c, 1, 66, 0
1, 29496, Note_on_c, 1, 64, 127
1, 29517, Note_off_c, 1, 80, 0
1, 29519, Note_off_c, 1, 64, 0
1, 29520, Note_on_c, 1, 83, 127
1, 29520, Note_on_c, 1, 63, 127
1, 29520, Note_on_c, 1, 44, 127
1, 29543, Note_off_c, 1, 63, 0
1, 29544, Note_on_c, 1, 64, 127
1, 29565, Note_off_c, 1, 83, 0
1, 29565, Note_off_c, 1, 44, 0
1, 29567, Note_off_c, 1, 64, 0
1, 29568, Note_on_c, 1, 88, 127
1, 29568, Note_on_c, 1, 68, 127
1, 29568, Note_on_c, 1, 47, 127
1, 29591, Note_off_c, 1, 68, 0
1, 29592, Note_on_c, 1, 64, 127
1, 29613, Note_off_c, 1, 47, 0
1, 29615, Note_off_c, 1, 64, 0
1, 29616, Note_on_c, 1, 63, 127
1, 29616, Note_on_c, 1, 52, 127
1, 29639, Note_off_c, 1, 63, 0
1, 29661, Note_off_c, 1, 52, 0
1, 29664, Note_on_c, 1, 69, 127
1, 29664, Note_on_c, 1, 54, 127
1, 29687, Note_off_c, 1, 69, 0
1, 29709, Note_off_c, 1, 88, 0
1, 29712, Note_on_c, 1, 85, 127
1, 29753, Note_off_c, 1, 54, 0
1, 29757, Note_off_c, 1, 85, 0
1, 29760, Note_on_c, 1, 83, 127
1, 29760, Note_on_c, 1, 68, 127
1, 29783, Note_off_c, 1, 68, 0
1, 29784, Note_on_c, 1, 64, 127
1, 29805, Note_off_c, 1, 83, 0
1, 29807, Note_off_c, 1, 64, 0
1, 29808, Note_on_c, 1, 81, 127
1, 29808, Note_on_c, 1, 63, 127
1, 29808, Note_on_c, 1, 45, 127
1, 29831, Note_off_c, 1, 63, 0
1, 29832, Note_on_c, 1, 64, 127
1, 29853, Note_off_c, 1, 81, 0
1, 29853, Note_off_c, 1, 45, 0
1, 29855, Note_off_c, 1, 64, 0
1, 29856, Note_on_c, 1, 88, 127
1, 29856, Note_on_c, 1, 69, 127
1, 29856, Note_on_c, 1, 49, 127
1, 29879, Note_off_c, 1, 69, 0
1, 29880, Note_on_c, 1, 64, 127
1, 29901, Note_off_c, 1, 49, 0
1, 29903, Note_off_c, 1, 64, 0
1, 29904, Note_on_c, 1, 63, 127
1, 29904, Note_on_c, 1, 54, 127
1, 29927, Note_off_c, 1, 63, 0
1, 29949, Note_off_c, 1, 54, 0
1, 29952, Note_on_c, 1, 71, 127
1, 29952, Note_on_c, 1, 56, 127
1, 29975, Note_off_c, 1, 71, 0
1, 29997, Note_off_c, 1, 88, 0
1, 30000, Note_on_c, 1, 80, 127
1, 30041, Note_off_c, 1, 56, 0
1, 30045, Note_off_c, 1, 80, 0
1, 30048, Note_on_c, 1, 78, 127
1, 30048, Note_on_c, 1, 69, 127
1, 30071, Note_off_c, 1, 69, 0
1, 30072, Note_on_c, 1, 64, 127
1, 30093, Note_off_c, 1, 78, 0
1, 30095, Note_off_c, 1, 64, 0
1, 30096, Note_on_c, 1, 76, 127
1, 30096, Note_on_c, 1, 63, 127
1, 30096, Note_on_c, 1, 47, 127
1, 30119, Note_off_c, 1, 63, 0
1, 30120, Note_on_c, 1, 64, 127
1, 30141, Note_off_c, 1, 76, 0
1, 30141, Note_off_c, 1, 47, 0
1, 30143, Note_off_c, 1, 64, 0
1, 30144, Note_on_c, 1, 88, 127
1, 30144, Note_on_c, 1, 71, 127
1, 30144, Note_on_c, 1, 52, 127
1, 30167, Note_off_c, 1, 71, 0
1, 30168, Note_on_c, 1, 64, 127
1, 30189, Note_off_c, 1, 52, 0
1, 30191, Note_off_c, 1, 64, 0
1, 30192, Note_on_c, 1, 63, 127
1, 30192, Note_on_c, 1, 56, 127
1, 30215, Note_off_c, 1, 63, 0
1, 30237, Note_off_c, 1, 56, 0
1, 30240, Note_on_c, 1, 73, 127
1, 30240, Note_on_c, 1, 57, 127
1, 30263, Note_off_c, 1, 73, 0
1, 30285, Note_off_c, 1, 88, 0
1, 30288, Note_on_c, 1, 86, 127
1, 30333, Note_off_c, 1, 86, 0
1, 30336, Note_on_c, 1, 85, 127
1, 30336, Note_on_c, 1, 69, 127
1, 30359, Note_off_c, 1, 69, 0
1, 30360, Note_on_c, 1, 68, 127
1, 30381, Note_off_c, 1, 85, 0
1, 30383, Note_off_c, 1, 68, 0
1, 30384, Note_on_c, 1, 83, 127
1, 30429, Note_off_c, 1, 83, 0
1, 30432, Note_on_c, 1, 81, 127
1, 30432, Note_on_c, 1, 66, 127
1, 30455, Note_off_c, 1, 66, 0
1, 30477, Note_off_c, 1, 81, 0
1, 30480, Note_on_c, 1, 80, 127
1, 30525, Note_off_c, 1, 80, 0
1, 30528, Note_on_c, 1, 78, 127
1, 30528, Note_on_c, 1, 75, 127
1, 30551, Note_off_c, 1, 75, 0
1, 30573, Note_off_c, 1, 57, 0
1, 30573, Note_off_c, 1, 78, 0
1, 30576, Note_on_c, 1, 71, 127
1, 30576, Note_on_c, 1, 75, 127
1, 30576, Note_on_c, 1, 57, 127
1, 30599, Note_off_c, 1, 75, 0
1, 30600, Note_on_c, 1, 73, 127
1, 30621, Note_off_c, 1, 71, 0
1, 30621, Note_off_c, 1, 57, 0
1, 30623, Note_off_c, 1, 73, 0
1, 30624, Note_on_c, 1, 83, 127
1, 30624, Note_on_c, 1, 71, 127
1, 30624, Note_on_c, 1, 56, 127
1, 30647, Note_off_c, 1, 71, 0
1, 30648, Note_on_c, 1, 69, 127
1, 30669, Note_off_c, 1, 56, 0
1, 30671, Note_off_c, 1, 69, 0
1, 30672, Note_on_c, 1, 54, 127
1, 30717, Note_off_c, 1, 54, 0
1, 30720, Note_on_c, 1, 68, 127
1, 30720, Note_on_c, 1, 52, 127
1, 30743, Note_off_c, 1, 68, 0
1, 30744, Note_on_c, 1, 66, 127
1, 30765, Note_off_c, 1, 52, 0
1, 30767, Note_off_c, 1, 66, 0
1, 30768, Note_on_c, 1, 51, 127
1, 30813, Note_off_c, 1, 51, 0
1, 30816, Note_on_c, 1, 64, 127
1, 30839, Note_off_c, 1, 83, 0
1, 30840, Note_on_c, 1, 81, 127
1, 30861, Note_off_c, 1, 64, 0
1, 30863, Note_off_c, 1, 81, 0
1, 30912, Note_on_c, 1, 80, 127
1, 30912, Note_on_c, 1, 76, 127
1, 30935, Note_off_c, 1, 80, 0
1, 30936, Note_on_c, 1, 78, 127
1, 30957, Note_off_c, 1, 76, 0
1, 30959, Note_off_c, 1, 78, 0
1, 31008, Note_on_c, 1, 73, 127
1, 31032, Note_on_c, 1, 75, 127
1, 31053, Note_off_c, 1, 73, 0
1, 31055, Note_off_c, 1, 75, 0
1, 31152, Note_on_c, 1, 57, 127
1, 31175, Note_off_c, 1, 57, 0
1, 31200, Note_on_c, 1, 81, 127
1, 31200, Note_on_c, 1, 54, 127
1, 31223, Note_off_c, 1, 54, 0
1, 31224, Note_on_c, 1, 52, 127
1, 31247, Note_off_c, 1, 52, 0
1, 31248, Note_on_c, 1, 85, 127
1, 31293, Note_off_c, 1, 85, 0
1, 31296, Note_on_c, 1, 78, 127
1, 31296, Note_on_c, 1, 51, 127
1, 31319, Note_off_c, 1, 51, 0
1, 31320, Note_on_c, 1, 49, 127
1, 31341, Note_off_c, 1, 78, 0
1, 31343, Note_off_c, 1, 49, 0
1, 31392, Note_on_c, 1, 75, 127
1, 31392, Note_on_c, 1, 47, 127
1, 31415, Note_off_c, 1, 75, 0
1, 31416, Note_on_c, 1, 71, 127
1, 31437, Note_off_c, 1, 81, 0
1, 31439, Note_off_c, 1, 71, 0
1, 31440, Note_on_c, 1, 70, 127
1, 31463, Note_off_c, 1, 70, 0
1, 31481, Note_off_c, 1, 47, 0
1, 31488, Note_on_c, 1, 73, 127
1, 31488, Note_on_c, 1, 75, 127
1, 31511, Note_off_c, 1, 73, 0
1, 31512, Note_on_c, 1, 71, 127
1, 31533, Note_off_c, 1, 75, 0
1, 31535, Note_off_c, 1, 71, 0
1, 31536, Note_on_c, 1, 70, 127
1, 31536, Note_on_c, 1, 78, 127
1, 31536, Note_on_c, 1, 61, 127
1, 31559, Note_off_c, 1, 70, 0
1, 31560, Note_on_c, 1, 71, 127
1, 31581, Note_off_c, 1, 78, 0
1, 31581, Note_off_c, 1, 61, 0
1, 31583, Note_off_c, 1, 71, 0
1, 31584, Note_on_c, 1, 75, 127
1, 31584, Note_on_c, 1, 83, 127
1, 31584, Note_on_c, 1, 59, 127
1, 31607, Note_off_c, 1, 75, 0
1, 31608, Note_on_c, 1, 71, 127
1, 31629, Note_off_c, 1, 59, 0
1, 31631, Note_off_c, 1, 71, 0
1, 31632, Note_on_c, 1, 70, 127
1, 31632, Note_on_c, 1, 57, 127
1, 31655, Note_off_c, 1, 70, 0
1, 31673, Note_off_c, 1, 83, 0
1, 31677, Note_off_c, 1, 57, 0
1, 31680, Note_on_c, 1, 76, 127
1, 31680, Note_on_c, 1, 83, 127
1, 31680, Note_on_c, 1, 56, 127
1, 31703, Note_off_c, 1, 76, 0
1, 31704, Note_on_c, 1, 71, 127
1, 31725, Note_off_c, 1, 83, 0
1, 31727, Note_off_c, 1, 71, 0
1, 31728, Note_on_c, 1, 70, 127
1, 31728, Note_on_c, 1, 80, 127
1, 31751, Note_off_c, 1, 70, 0
1, 31769, Note_off_c, 1, 56, 0
1, 31773, Note_off_c, 1, 80, 0
1, 31776, Note_on_c, 1, 75, 127
1, 31776, Note_on_c, 1, 78, 127
1, 31799, Note_off_c, 1, 75, 0
1, 31800, Note_on_c, 1, 71, 127
1, 31821, Note_off_c, 1, 78, 0
1, 31823, Note_off_c, 1, 71, 0
1, 31824, Note_on_c, 1, 70, 127
1, 31824, Note_on_c, 1, 76, 127
1, 31824, Note_on_c, 1, 56, 127
1, 31847, Note_off_c, 1, 70, 0
1, 31848, Note_on_c, 1, 71, 127
1, 31869, Note_off_c, 1, 76, 0
1, 31869, Note_off_c, 1, 56, 0
1, 31871, Note_off_c, 1, 71, 0
1, 31872, Note_on_c, 1, 76, 127
1, 31872, Note_on_c, 1, 83, 127
1, 31872, Note_on_c, 1, 54, 127
1, 31895, Note_off_c, 1, 76, 0
1, 31896, Note_on_c, 1, 71, 127
1, 31917, Note_off_c, 1, 54, 0
1, 31919, Note_off_c, 1, 71, 0
1, 31920, Note_on_c, 1, 70, 127
1, 31920, Note_on_c, 1, 52, 127
1, 31943, Note_off_c, 1, 70, 0
1, 31961, Note_off_c, 1, 83, 0
1, 31965, Note_off_c, 1, 52, 0
1, 31968, Note_on_c, 1, 78, 127
1, 31968, Note_on_c, 1, 83, 127
1, 31968, Note_on_c, 1, 51, 127
1, 31991, Note_off_c, 1, 78, 0
1, 31992, Note_on_c, 1, 71, 127
1, 32013, Note_off_c, 1, 83, 0
1, 32015, Note_off_c, 1, 71, 0
1, 32016, Note_on_c, 1, 70, 127
1, 32016, Note_on_c, 1, 75, 127
1, 32039, Note_off_c, 1, 70, 0
1, 32057, Note_off_c, 1, 51, 0
1, 32061, Note_off_c, 1, 75, 0
1, 32064, Note_on_c, 1, 76, 127
1, 32064, Note_on_c, 1, 73, 127
1, 32087, Note_off_c, 1, 76, 0
1, 32088, Note_on_c, 1, 71, 127
1, 32109, Note_off_c, 1, 73, 0
1, 32111, Note_off_c, 1, 71, 0
1, 32112, Note_on_c, 1, 70, 127
1, 32112, Note_on_c, 1, 71, 127
1, 32112, Note_on_c, 1, 51, 127
1, 32135, Note_off_c, 1, 70, 0
1, 32157, Note_off_c, 1, 51, 0
1, 32159, Note_off_c, 1, 71, 0
1, 32160, Note_on_c, 1, 78, 127
1, 32160, Note_on_c, 1, 83, 127
1, 32160, Note_on_c, 1, 49, 127
1, 32183, Note_off_c, 1, 78, 0
1, 32184, Note_on_c, 1, 71, 127
1, 32205, Note_off_c, 1, 49, 0
1, 32207, Note_off_c, 1, 71, 0
1, 32208, Note_on_c, 1, 70, 127
1, 32208, Note_on_c, 1, 47, 127
1, 32231, Note_off_c, 1, 70, 0
1, 32253, Note_off_c, 1, 47, 0
1, 32256, Note_on_c, 1, 80, 127
1, 32256, Note_on_c, 1, 52, 127
1, 32279, Note_off_c, 1, 80, 0
1, 32301, Note_off_c, 1, 83, 0
1, 32301, Note_off_c, 1, 52, 0
1, 32304, Note_on_c, 1, 80, 127
1, 32304, Note_on_c, 1, 75, 127
1, 32304, Note_on_c, 1, 54, 127
1, 32327, Note_off_c, 1, 80, 0
1, 32328, Note_on_c, 1, 78, 127
1, 32349, Note_off_c, 1, 75, 0
1, 32349, Note_off_c, 1, 54, 0
1, 32351, Note_off_c, 1, 78, 0
1, 32352, Note_on_c, 1, 76, 127
1, 32352, Note_on_c, 1, 56, 127
1, 32376, Note_on_c, 1, 75, 127
1, 32397, Note_off_c, 1, 76, 0
1, 32397, Note_off_c, 1, 56, 0
1, 32399, Note_off_c, 1, 75, 0
1, 32400, Note_on_c, 1, 76, 127
1, 32400, Note_on_c, 1, 78, 127
1, 32400, Note_on_c, 1, 54, 127
1, 32423, Note_off_c, 1, 76, 0
1, 32424, Note_on_c, 1, 75, 127
1, 32445, Note_off_c, 1, 78, 0
1, 32445, Note_off_c, 1, 54, 0
1, 32447, Note_off_c, 1, 75, 0
1, 32448, Note_on_c, 1, 73, 127
1, 32448, Note_on_c, 1, 80, 127
1, 32448, Note_on_c, 1, 52, 127
1, 32471, Note_off_c, 1, 73, 0
1, 32472, Note_on_c, 1, 71, 127
1, 32493, Note_off_c, 1, 80, 0
1, 32493, Note_off_c, 1, 52, 0
1, 32495, Note_off_c, 1, 71, 0
1, 32496, Note_on_c, 1, 73, 127
1, 32496, Note_on_c, 1, 76, 127
1, 32496, Note_on_c, 1, 49, 127
1, 32519, Note_off_c, 1, 73, 0
1, 32520, Note_on_c, 1, 71, 127
1, 32541, Note_off_c, 1, 76, 0
1, 32541, Note_off_c, 1, 49, 0
1, 32543, Note_off_c, 1, 71, 0
1, 32544, Note_on_c, 1, 70, 127
1, 32544, Note_on_c, 1, 85, 127
1, 32544, Note_on_c, 1, 54, 127
1, 32567, Note_off_c, 1, 85, 0
1, 32568, Note_on_c, 1, 83, 127
1, 32589, Note_off_c, 1, 70, 0
1, 32589, Note_off_c, 1, 54, 0
1, 32591, Note_off_c, 1, 83, 0
1, 32592, Note_on_c, 1, 68, 127
1, 32592, Note_on_c, 1, 85, 127
1, 32592, Note_on_c, 1, 53, 127
1, 32615, Note_off_c, 1, 85, 0
1, 32616, Note_on_c, 1, 83, 127
1, 32637, Note_off_c, 1, 68, 0
1, 32637, Note_off_c, 1, 53, 0
1, 32639, Note_off_c, 1, 83, 0
1, 32640, Note_on_c, 1, 70, 127
1, 32640, Note_on_c, 1, 82, 127
1, 32640, Note_on_c, 1, 54, 127
1, 32663, Note_off_c, 1, 82, 0
1, 32664, Note_on_c, 1, 80, 127
1, 32685, Note_off_c, 1, 70, 0
1, 32685, Note_off_c, 1, 54, 0
1, 32687, Note_off_c, 1, 80, 0
1, 32688, Note_on_c, 1, 71, 127
1, 32688, Note_on_c, 1, 82, 127
1, 32688, Note_on_c, 1, 56, 127
1, 32711, Note_off_c, 1, 82, 0
1, 32712, Note_on_c, 1, 80, 127
1, 32733, Note_off_c, 1, 71, 0
1, 32733, Note_off_c, 1, 56, 0
1, 32735, Note_off_c, 1, 80, 0
1, 32736, Note_on_c, 1, 73, 127
1, 32736, Note_on_c, 1, 78, 127
1, 32736, Note_on_c, 1, 58, 127
1, 32759, Note_off_c, 1, 78, 0
1, 32760, Note_on_c, 1, 76, 127
1, 32781, Note_off_c, 1, 73, 0
1, 32781, Note_off_c, 1, 58, 0
1, 32783, Note_off_c, 1, 76, 0
1, 32784, Note_on_c, 1, 70, 127
1, 32784, Note_on_c, 1, 78, 127
1, 32784, Note_on_c, 1, 54, 127
1, 32807, Note_off_c, 1, 78, 0
1, 32808, Note_on_c, 1, 76, 127
1, 32829, Note_off_c, 1, 70, 0
1, 32829, Note_off_c, 1, 54, 0
1, 32831, Note_off_c, 1, 76, 0
1, 32832, Note_on_c, 1, 78, 127
1, 32832, Note_on_c, 1, 75, 127
1, 32832, Note_on_c, 1, 47, 127
1, 32855, Note_off_c, 1, 78, 0
1, 32856, Note_on_c, 1, 76, 127
1, 32877, Note_off_c, 1, 75, 0
1, 32877, Note_off_c, 1, 47, 0
1, 32879, Note_off_c, 1, 76, 0
1, 32880, Note_on_c, 1, 78, 127
1, 32880, Note_on_c, 1, 73, 127
1, 32880, Note_on_c, 1, 46, 127
1, 32903, Note_off_c, 1, 78, 0
1, 32904, Note_on_c, 1, 76, 127
1, 32925, Note_off_c, 1, 73, 0
1, 32925, Note_off_c, 1, 46, 0
1, 32927, Note_off_c, 1, 76, 0
1, 32928, Note_on_c, 1, 75, 127
1, 32928, Note_on_c, 1, 47, 127
1, 32952, Note_on_c, 1, 73, 127
1, 32973, Note_off_c, 1, 75, 0
1, 32973, Note_off_c, 1, 47, 0
1, 32975, Note_off_c, 1, 73, 0
1, 32976, Note_on_c, 1, 75, 127
1, 32976, Note_on_c, 1, 76, 127
1, 32976, Note_on_c, 1, 49, 127
1, 32999, Note_off_c, 1, 75, 0
1, 33000, Note_on_c, 1, 73, 127
1, 33021, Note_off_c, 1, 76, 0
1, 33021, Note_off_c, 1, 49, 0
1, 33023, Note_off_c, 1, 73, 0
1, 33024, Note_on_c, 1, 71, 127
1, 33024, Note_on_c, 1, 78, 127
1, 33024, Note_on_c, 1, 51, 127
1, 33047, Note_off_c, 1, 71, 0
1, 33048, Note_on_c, 1, 70, 127
1, 33069, Note_off_c, 1, 78, 0
1, 33069, Note_off_c, 1, 51, 0
1, 33071, Note_off_c, 1, 70, 0
1, 33072, Note_on_c, 1, 71, 127
1, 33072, Note_on_c, 1, 75, 127
1, 33072, Note_on_c, 1, 47, 127
1, 33095, Note_off_c, 1, 71, 0
1, 33096, Note_on_c, 1, 70, 127
1, 33117, Note_off_c, 1, 75, 0
1, 33117, Note_off_c, 1, 47, 0
1, 33119, Note_off_c, 1, 70, 0
1, 33120, Note_on_c, 1, 68, 127
1, 33120, Note_on_c, 1, 83, 127
1, 33120, Note_on_c, 1, 52, 127
1, 33143, Note_off_c, 1, 68, 0
1, 33143, Note_off_c, 1, 83, 0
1, 33144, Note_on_c, 1, 66, 127
1, 33144, Note_on_c, 1, 81, 127
1, 33165, Note_off_c, 1, 52, 0
1, 33167, Note_off_c, 1, 66, 0
1, 33167, Note_off_c, 1, 81, 0
1, 33168, Note_on_c, 1, 68, 127
1, 33168, Note_on_c, 1, 83, 127
1, 33168, Note_on_c, 1, 51, 127
1, 33191, Note_off_c, 1, 68, 0
1, 33191, Note_off_c, 1, 83, 0
1, 33192, Note_on_c, 1, 66, 127
1, 33192, Note_on_c, 1, 81, 127
1, 33213, Note_off_c, 1, 51, 0
1, 33215, Note_off_c, 1, 66, 0
1, 33215, Note_off_c, 1, 81, 0
1, 33216, Note_on_c, 1, 64, 127
1, 33216, Note_on_c, 1, 80, 127
1, 33216, Note_on_c, 1, 52, 127
1, 33239, Note_off_c, 1, 64, 0
1, 33239, Note_off_c, 1, 80, 0
1, 33240, Note_on_c, 1, 63, 127
1, 33240, Note_on_c, 1, 78, 127
1, 33261, Note_off_c, 1, 52, 0
1, 33263, Note_off_c, 1, 63, 0
1, 33263, Note_off_c, 1, 78, 0
1, 33264, Note_on_c, 1, 64, 127
1, 33264, Note_on_c, 1, 80, 127
1, 33264, Note_on_c, 1, 54, 127
1, 33287, Note_off_c, 1, 64, 0
1, 33287, Note_off_c, 1, 80, 0
1, 33288, Note_on_c, 1, 63, 127
1, 33288, Note_on_c, 1, 78, 127
1, 33309, Note_off_c, 1, 54, 0
1, 33311, Note_off_c, 1, 63, 0
1, 33311, Note_off_c, 1, 78, 0
1, 33312, Note_on_c, 1, 61, 127
1, 33312, Note_on_c, 1, 76, 127
1, 33312, Note_on_c, 1, 56, 127
1, 33335, Note_off_c, 1, 61, 0
1, 33335, Note_off_c, 1, 76, 0
1, 33336, Note_on_c, 1, 59, 127
1, 33336, Note_on_c, 1, 75, 127
1, 33357, Note_off_c, 1, 56, 0
1, 33359, Note_off_c, 1, 59, 0
1, 33359, Note_off_c, 1, 75, 0
1, 33360, Note_on_c, 1, 61, 127
1, 33360, Note_on_c, 1, 76, 127
1, 33360, Note_on_c, 1, 52, 127
1, 33383, Note_off_c, 1, 61, 0
1, 33383, Note_off_c, 1, 76, 0
1, 33384, Note_on_c, 1, 59, 127
1, 33384, Note_on_c, 1, 75, 127
1, 33405, Note_off_c, 1, 52, 0
1, 33407, Note_off_c, 1, 59, 0
1, 33407, Note_off_c, 1, 75, 0
1, 33408, Note_on_c, 1, 70, 127
1, 33408, Note_on_c, 1, 73, 127
1, 33408, Note_on_c, 1, 54, 127
1, 33431, Note_off_c, 1, 54, 0
1, 33432, Note_on_c, 1, 52, 127
1, 33453, Note_off_c, 1, 73, 0
1, 33455, Note_off_c, 1, 52, 0
1, 33504, Note_on_c, 1, 78, 127
1, 33504, Note_on_c, 1, 51, 127
1, 33527, Note_off_c, 1, 51, 0
1, 33528, Note_on_c, 1, 49, 127
1, 33541, Note_off_c, 1, 70, 0
1, 33549, Note_off_c, 1, 78, 0
1, 33551, Note_off_c, 1, 49, 0
1, 33552, Note_on_c, 1, 66, 127
1, 33552, Note_on_c, 1, 76, 127
1, 33552, Note_on_c, 1, 51, 127
1, 33575, Note_off_c, 1, 51, 0
1, 33576, Note_on_c, 1, 49, 127
1, 33597, Note_off_c, 1, 66, 0
1, 33597, Note_off_c, 1, 76, 0
1, 33599, Note_off_c, 1, 49, 0
1, 33600, Note_on_c, 1, 71, 127
1, 33600, Note_on_c, 1, 75, 127
1, 33600, Note_on_c, 1, 47, 127
1, 33623, Note_off_c, 1, 47, 0
1, 33624, Note_on_c, 1, 46, 127
1, 33645, Note_off_c, 1, 71, 0
1, 33645, Note_off_c, 1, 75, 0
1, 33647, Note_off_c, 1, 46, 0
1, 33648, Note_on_c, 1, 70, 127
1, 33648, Note_on_c, 1, 73, 127
1, 33648, Note_on_c, 1, 47, 127
1, 33671, Note_off_c, 1, 47, 0
1, 33672, Note_on_c, 1, 46, 127
1, 33693, Note_off_c, 1, 70, 0
1, 33693, Note_off_c, 1, 73, 0
1, 33695, Note_off_c, 1, 46, 0
1, 33696, Note_on_c, 1, 71, 127
1, 33696, Note_on_c, 1, 75, 127
1, 33696, Note_on_c, 1, 44, 127
1, 33719, Note_off_c, 1, 44, 0
1, 33720, Note_on_c, 1, 42, 127
1, 33741, Note_off_c, 1, 71, 0
1, 33741, Note_off_c, 1, 75, 0
1, 33743, Note_off_c, 1, 42, 0
1, 33744, Note_on_c, 1, 73, 127
1, 33744, Note_on_c, 1, 76, 127
1, 33744, Note_on_c, 1, 44, 127
1, 33767, Note_off_c, 1, 44, 0
1, 33768, Note_on_c, 1, 40, 127
1, 33789, Note_off_c, 1, 73, 0
1, 33789, Note_off_c, 1, 76, 0
1, 33791, Note_off_c, 1, 40, 0
1, 33792, Note_on_c, 1, 70, 127
1, 33792, Note_on_c, 1, 73, 127
1, 33792, Note_on_c, 1, 42, 127
1, 33881, Note_off_c, 1, 42, 0
1, 33925, Note_off_c, 1, 70, 0
1, 33925, Note_off_c, 1, 73, 0
1, 33936, Note_on_c, 1, 71, 127
1, 33981, Note_off_c, 1, 71, 0
1, 33984, Note_on_c, 1, 71, 127
1, 34008, Note_on_c, 1, 47, 127
1, 34031, Note_off_c, 1, 47, 0
1, 34032, Note_on_c, 1, 46, 127
1, 34055, Note_off_c, 1, 46, 0
1, 34073, Note_off_c, 1, 71, 0
1, 34080, Note_on_c, 1, 49, 127
1, 34103, Note_off_c, 1, 49, 0
1, 34104, Note_on_c, 1, 47, 127
1, 34127, Note_off_c, 1, 47, 0
1, 34128, Note_on_c, 1, 46, 127
1, 34151, Note_off_c, 1, 46, 0
1, 34152, Note_on_c, 1, 47, 127
1, 34175, Note_off_c, 1, 47, 0
1, 34176, Note_on_c, 1, 51, 127
1, 34199, Note_off_c, 1, 51, 0
1, 34200, Note_on_c, 1, 47, 127
1, 34223, Note_off_c, 1, 47, 0
1, 34224, Note_on_c, 1, 46, 127
1, 34247, Note_off_c, 1, 46, 0
1, 34248, Note_on_c, 1, 47, 127
1, 34271, Note_off_c, 1, 47, 0
1, 34272, Note_on_c, 1, 52, 127
1, 34296, Note_on_c, 1, 76, 127
1, 34319, Note_off_c, 1, 76, 0
1, 34320, Note_on_c, 1, 75, 127
1, 34343, Note_off_c, 1, 75, 0
1, 34361, Note_off_c, 1, 52, 0
1, 34368, Note_on_c, 1, 78, 127
1, 34391, Note_off_c, 1, 78, 0
1, 34392, Note_on_c, 1, 76, 127
1, 34415, Note_off_c, 1, 76, 0
1, 34416, Note_on_c, 1, 75, 127
1, 34439, Note_off_c, 1, 75, 0
1, 34440, Note_on_c, 1, 76, 127
1, 34463, Note_off_c, 1, 76, 0
1, 34464, Note_on_c, 1, 80, 127
1, 34464, Note_on_c, 1, 40, 127
1, 34487, Note_off_c, 1, 80, 0
1, 34488, Note_on_c, 1, 76, 127
1, 34511, Note_off_c, 1, 76, 0
1, 34512, Note_on_c, 1, 75, 127
1, 34535, Note_off_c, 1, 75, 0
1, 34553, Note_off_c, 1, 40, 0
1, 34560, Note_on_c, 1, 81, 127
1, 34560, Note_on_c, 1, 42, 127
1, 34583, Note_off_c, 1, 81, 0
1, 34584, Note_on_c, 1, 76, 127
1, 34607, Note_off_c, 1, 76, 0
1, 34608, Note_on_c, 1, 75, 127
1, 34631, Note_off_c, 1, 75, 0
1, 34649, Note_off_c, 1, 42, 0
1, 34656, Note_on_c, 1, 80, 127
1, 34679, Note_off_c, 1, 80, 0
1, 34680, Note_on_c, 1, 76, 127
1, 34703, Note_off_c, 1, 76, 0
1, 34704, Note_on_c, 1, 75, 127
1, 34727, Note_off_c, 1, 75, 0
1, 34728, Note_on_c, 1, 76, 127
1, 34751, Note_off_c, 1, 76, 0
1, 34752, Note_on_c, 1, 81, 127
1, 34752, Note_on_c, 1, 54, 127
1, 34775, Note_off_c, 1, 81, 0
1, 34776, Note_on_c, 1, 76, 127
1, 34799, Note_off_c, 1, 76, 0
1, 34800, Note_on_c, 1, 75, 127
1, 34823, Note_off_c, 1, 75, 0
1, 34841, Note_off_c, 1, 54, 0
1, 34848, Note_on_c, 1, 83, 127
1, 34848, Note_on_c, 1, 56, 127
1, 34871, Note_off_c, 1, 83, 0
1, 34872, Note_on_c, 1, 76, 127
1, 34895, Note_off_c, 1, 76, 0
1, 34896, Note_on_c, 1, 75, 127
1, 34919, Note_off_c, 1, 75, 0
1, 34937, Note_off_c, 1, 56, 0
1, 34944, Note_on_c, 1, 81, 127
1, 34967, Note_off_c, 1, 81, 0
1, 34968, Note_on_c, 1, 76, 127
1, 34991, Note_off_c, 1, 76, 0
1, 34992, Note_on_c, 1, 75, 127
1, 35015, Note_off_c, 1, 75, 0
1, 35016, Note_on_c, 1, 76, 127
1, 35039, Note_off_c, 1, 76, 0
1, 35040, Note_on_c, 1, 83, 127
1, 35040, Note_on_c, 1, 44, 127
1, 35063, Note_off_c, 1, 83, 0
1, 35064, Note_on_c, 1, 76, 127
1, 35087, Note_off_c, 1, 76, 0
1, 35088, Note_on_c, 1, 75, 127
1, 35111, Note_off_c, 1, 75, 0
1, 35129, Note_off_c, 1, 44, 0
1, 35136, Note_on_c, 1, 85, 127
1, 35136, Note_on_c, 1, 45, 127
1, 35159, Note_off_c, 1, 85, 0
1, 35160, Note_on_c, 1, 83, 127
1, 35181, Note_off_c, 1, 45, 0
1, 35183, Note_off_c, 1, 83, 0
1, 35184, Note_on_c, 1, 85, 127
1, 35184, Note_on_c, 1, 47, 127
1, 35207, Note_off_c, 1, 85, 0
1, 35208, Note_on_c, 1, 83, 127
1, 35229, Note_off_c, 1, 47, 0
1, 35231, Note_off_c, 1, 83, 0
1, 35232, Note_on_c, 1, 81, 127
1, 35232, Note_on_c, 1, 49, 127
1, 35255, Note_off_c, 1, 81, 0
1, 35256, Note_on_c, 1, 80, 127
1, 35277, Note_off_c, 1, 49, 0
1, 35279, Note_off_c, 1, 80, 0
1, 35280, Note_on_c, 1, 81, 127
1, 35280, Note_on_c, 1, 47, 127
1, 35303, Note_off_c, 1, 81, 0
1, 35304, Note_on_c, 1, 80, 127
1, 35325, Note_off_c, 1, 47, 0
1, 35327, Note_off_c, 1, 80, 0
1, 35328, Note_on_c, 1, 78, 127
1, 35328, Note_on_c, 1, 45, 127
1, 35351, Note_off_c, 1, 78, 0
1, 35352, Note_on_c, 1, 76, 127
1, 35373, Note_off_c, 1, 45, 0
1, 35375, Note_off_c, 1, 76, 0
1, 35376, Note_on_c, 1, 78, 127
1, 35376, Note_on_c, 1, 42, 127
1, 35399, Note_off_c, 1, 78, 0
1, 35400, Note_on_c, 1, 76, 127
1, 35421, Note_off_c, 1, 42, 0
1, 35423, Note_off_c, 1, 76, 0
1, 35424, Note_on_c, 1, 75, 127
1, 35424, Note_on_c, 1, 47, 127
1, 35448, Note_on_c, 1, 71, 127
1, 35469, Note_off_c, 1, 75, 0
1, 35471, Note_off_c, 1, 71, 0
1, 35472, Note_on_c, 1, 70, 127
1, 35495, Note_off_c, 1, 70, 0
1, 35513, Note_off_c, 1, 47, 0
1, 35520, Note_on_c, 1, 75, 127
1, 35520, Note_on_c, 1, 73, 127
1, 35543, Note_off_c, 1, 73, 0
1, 35544, Note_on_c, 1, 71, 127
1, 35565, Note_off_c, 1, 75, 0
1, 35567, Note_off_c, 1, 71, 0
1, 35568, Note_on_c, 1, 78, 127
1, 35568, Note_on_c, 1, 70, 127
1, 35591, Note_off_c, 1, 70, 0
1, 35592, Note_on_c, 1, 71, 127
1, 35613, Note_off_c, 1, 78, 0
1, 35615, Note_off_c, 1, 71, 0
1, 35616, Note_on_c, 1, 83, 127
1, 35616, Note_on_c, 1, 75, 127
1, 35616, Note_on_c, 1, 59, 127
1, 35639, Note_off_c, 1, 75, 0
1, 35640, Note_on_c, 1, 71, 127
1, 35663, Note_off_c, 1, 71, 0
1, 35664, Note_on_c, 1, 70, 127
1, 35687, Note_off_c, 1, 70, 0
1, 35705, Note_off_c, 1, 59, 0
1, 35712, Note_on_c, 1, 76, 127
1, 35712, Note_on_c, 1, 61, 127
1, 35735, Note_off_c, 1, 76, 0
1, 35757, Note_off_c, 1, 83, 0
1, 35760, Note_on_c, 1, 80, 127
1, 35801, Note_off_c, 1, 61, 0
1, 35805, Note_off_c, 1, 80, 0
1, 35808, Note_on_c, 1, 78, 127
1, 35808, Note_on_c, 1, 75, 127
1, 35831, Note_off_c, 1, 75, 0
1, 35832, Note_on_c, 1, 71, 127
1, 35853, Note_off_c, 1, 78, 0
1, 35855, Note_off_c, 1, 71, 0
1, 35856, Note_on_c, 1, 76, 127
1, 35856, Note_on_c, 1, 70, 127
1, 35879, Note_off_c, 1, 70, 0
1, 35880, Note_on_c, 1, 71, 127
1, 35901, Note_off_c, 1, 76, 0
1, 35903, Note_off_c, 1, 71, 0
1, 35904, Note_on_c, 1, 83, 127
1, 35904, Note_on_c, 1, 76, 127
1, 35904, Note_on_c, 1, 49, 127
1, 35927, Note_off_c, 1, 76, 0
1, 35928, Note_on_c, 1, 71, 127
1, 35951, Note_off_c, 1, 71, 0
1, 35952, Note_on_c, 1, 70, 127
1, 35975, Note_off_c, 1, 70, 0
1, 35993, Note_off_c, 1, 49, 0
1, 36000, Note_on_c, 1, 78, 127
1, 36000, Note_on_c, 1, 51, 127
1, 36023, Note_off_c, 1, 78, 0
1, 36045, Note_off_c, 1, 83, 0
1, 36048, Note_on_c, 1, 75, 127
1, 36089, Note_off_c, 1, 51, 0
1, 36093, Note_off_c, 1, 75, 0
1, 36096, Note_on_c, 1, 73, 127
1, 36096, Note_on_c, 1, 76, 127
1, 36119, Note_off_c, 1, 76, 0
1, 36120, Note_on_c, 1, 71, 127
1, 36141, Note_off_c, 1, 73, 0
1, 36143, Note_off_c, 1, 71, 0
1, 36144, Note_on_c, 1, 71, 127
1, 36144, Note_on_c, 1, 70, 127
1, 36167, Note_off_c, 1, 70, 0
1, 36191, Note_off_c, 1, 71, 0
1, 36192, Note_on_c, 1, 83, 127
1, 36192, Note_on_c, 1, 78, 127
1, 36192, Note_on_c, 1, 39, 127
1, 36215, Note_off_c, 1, 78, 0
1, 36216, Note_on_c, 1, 71, 127
1, 36239, Note_off_c, 1, 71, 0
1, 36240, Note_on_c, 1, 70, 127
1, 36263, Note_off_c, 1, 70, 0
1, 36281, Note_off_c, 1, 39, 0
1, 36288, Note_on_c, 1, 80, 127
1, 36288, Note_on_c, 1, 40, 127
1, 36311, Note_off_c, 1, 80, 0
1, 36333, Note_off_c, 1, 83, 0
1, 36333, Note_off_c, 1, 40, 0
1, 36336, Note_on_c, 1, 75, 127
1, 36336, Note_on_c, 1, 80, 127
1, 36336, Note_on_c, 1, 42, 127
1, 36359, Note_off_c, 1, 80, 0
1, 36360, Note_on_c, 1, 78, 127
1, 36381, Note_off_c, 1, 75, 0
1, 36381, Note_off_c, 1, 42, 0
1, 36383, Note_off_c, 1, 78, 0
1, 36384, Note_on_c, 1, 76, 127
1, 36384, Note_on_c, 1, 44, 127
1, 36408, Note_on_c, 1, 75, 127
1, 36429, Note_off_c, 1, 76, 0
1, 36429, Note_off_c, 1, 44, 0
1, 36431, Note_off_c, 1, 75, 0
1, 36432, Note_on_c, 1, 78, 127
1, 36432, Note_on_c, 1, 76, 127
1, 36432, Note_on_c, 1, 42, 127
1, 36455, Note_off_c, 1, 76, 0
1, 36456, Note_on_c, 1, 75, 127
1, 36477, Note_off_c, 1, 78, 0
1, 36477, Note_off_c, 1, 42, 0
1, 36479, Note_off_c, 1, 75, 0
1, 36480, Note_on_c, 1, 80, 127
1, 36480, Note_on_c, 1, 73, 127
1, 36480, Note_on_c, 1, 40, 127
1, 36503, Note_off_c, 1, 73, 0
1, 36504, Note_on_c, 1, 71, 127
1, 36525, Note_off_c, 1, 80, 0
1, 36525, Note_off_c, 1, 40, 0
1, 36527, Note_off_c, 1, 71, 0
1, 36528, Note_on_c, 1, 76, 127
1, 36528, Note_on_c, 1, 73, 127
1, 36528, Note_on_c, 1, 39, 127
1, 36551, Note_off_c, 1, 73, 0
1, 36552, Note_on_c, 1, 71, 127
1, 36573, Note_off_c, 1, 76, 0
1, 36573, Note_off_c, 1, 39, 0
1, 36575, Note_off_c, 1, 71, 0
1, 36576, Note_on_c, 1, 73, 127
1, 36576, Note_on_c, 1, 70, 127
1, 36576, Note_on_c, 1, 42, 127
1, 36599, Note_off_c, 1, 73, 0
1, 36600, Note_on_c, 1, 78, 127
1, 36621, Note_off_c, 1, 42, 0
1, 36623, Note_off_c, 1, 78, 0
1, 36624, Note_on_c, 1, 46, 127
1, 36665, Note_off_c, 1, 70, 0
1, 36669, Note_off_c, 1, 46, 0
1, 36672, Note_on_c, 1, 70, 127
1, 36672, Note_on_c, 1, 49, 127
1, 36695, Note_off_c, 1, 70, 0
1, 36696, Note_on_c, 1, 76, 127
1, 36696, Note_on_c, 1, 73, 127
1, 36717, Note_off_c, 1, 49, 0
1, 36719, Note_off_c, 1, 76, 0
1, 36719, Note_off_c, 1, 73, 0
1, 36720, Note_on_c, 1, 73, 127
1, 36720, Note_on_c, 1, 70, 127
1, 36720, Note_on_c, 1, 54, 127
1, 36743, Note_off_c, 1, 73, 0
1, 36743, Note_off_c, 1, 70, 0
1, 36744, Note_on_c, 1, 76, 127
1, 36765, Note_off_c, 1, 54, 0
1, 36767, Note_off_c, 1, 76, 0
1, 36768, Note_on_c, 1, 66, 127
1, 36768, Note_on_c, 1, 76, 127
1, 36768, Note_on_c, 1, 58, 127
1, 36791, Note_off_c, 1, 66, 0
1, 36791, Note_off_c, 1, 76, 0
1, 36792, Note_on_c, 1, 73, 127
1, 36813, Note_off_c, 1, 58, 0
1, 36815, Note_off_c, 1, 73, 0
1, 36816, Note_on_c, 1, 73, 127
1, 36816, Note_on_c, 1, 70, 127
1, 36816, Note_on_c, 1, 54, 127
1, 36839, Note_off_c, 1, 73, 0
1, 36839, Note_off_c, 1, 70, 0
1, 36840, Note_on_c, 1, 76, 127
1, 36861, Note_off_c, 1, 54, 0
1, 36863, Note_off_c, 1, 76, 0
1, 36864, Note_on_c, 1, 66, 127
1, 36864, Note_on_c, 1, 75, 127
1, 36864, Note_on_c, 1, 47, 127
1, 36887, Note_off_c, 1, 75, 0
1, 36888, Note_on_c, 1, 83, 127
1, 36909, Note_off_c, 1, 66, 0
1, 36909, Note_off_c, 1, 47, 0
1, 36911, Note_off_c, 1, 83, 0
1, 36912, Note_on_c, 1, 75, 127
1, 36912, Note_on_c, 1, 78, 127
1, 36912, Note_on_c, 1, 51, 127
1, 36935, Note_off_c, 1, 78, 0
1, 36936, Note_on_c, 1, 83, 127
1, 36957, Note_off_c, 1, 75, 0
1, 36957, Note_off_c, 1, 51, 0
1, 36959, Note_off_c, 1, 83, 0
1, 36960, Note_on_c, 1, 75, 127
1, 36960, Note_on_c, 1, 54, 127
1, 36983, Note_off_c, 1, 75, 0
1, 36984, Note_on_c, 1, 78, 127
1, 36984, Note_on_c, 1, 81, 127
1, 37005, Note_off_c, 1, 54, 0
1, 37007, Note_off_c, 1, 78, 0
1, 37007, Note_off_c, 1, 81, 0
1, 37008, Note_on_c, 1, 75, 127
1, 37008, Note_on_c, 1, 78, 127
1, 37008, Note_on_c, 1, 59, 127
1, 37031, Note_off_c, 1, 75, 0
1, 37031, Note_off_c, 1, 78, 0
1, 37032, Note_on_c, 1, 81, 127
1, 37053, Note_off_c, 1, 59, 0
1, 37055, Note_off_c, 1, 81, 0
1, 37056, Note_on_c, 1, 81, 127
1, 37056, Note_on_c, 1, 71, 127
1, 37056, Note_on_c, 1, 63, 127
1, 37079, Note_off_c, 1, 81, 0
1, 37079, Note_off_c, 1, 71, 0
1, 37080, Note_on_c, 1, 78, 127
1, 37101, Note_off_c, 1, 63, 0
1, 37103, Note_off_c, 1, 78, 0
1, 37104, Note_on_c, 1, 75, 127
1, 37104, Note_on_c, 1, 78, 127
1, 37104, Note_on_c, 1, 59, 127
1, 37127, Note_off_c, 1, 75, 0
1, 37127, Note_off_c, 1, 78, 0
1, 37128, Note_on_c, 1, 81, 127
1, 37149, Note_off_c, 1, 59, 0
1, 37151, Note_off_c, 1, 81, 0
1, 37152, Note_on_c, 1, 80, 127
1, 37152, Note_on_c, 1, 71, 127
1, 37152, Note_on_c, 1, 52, 127
1, 37175, Note_off_c, 1, 80, 0
1, 37176, Note_on_c, 1, 76, 127
1, 37197, Note_off_c, 1, 71, 0
1, 37197, Note_off_c, 1, 52, 0
1, 37199, Note_off_c, 1, 76, 0
1, 37200, Note_on_c, 1, 71, 127
1, 37200, Note_on_c, 1, 80, 127
1, 37200, Note_on_c, 1, 56, 127
1, 37223, Note_off_c, 1, 71, 0
1, 37224, Note_on_c, 1, 76, 127
1, 37245, Note_off_c, 1, 80, 0
1, 37245, Note_off_c, 1, 56, 0
1, 37247, Note_off_c, 1, 76, 0
1, 37248, Note_on_c, 1, 68, 127
1, 37248, Note_on_c, 1, 59, 127
1, 37271, Note_off_c, 1, 68, 0
1, 37272, Note_on_c, 1, 74, 127
1, 37272, Note_on_c, 1, 71, 127
1, 37293, Note_off_c, 1, 59, 0
1, 37295, Note_off_c, 1, 74, 0
1, 37295, Note_off_c, 1, 71, 0
1, 37296, Note_on_c, 1, 71, 127
1, 37296, Note_on_c, 1, 68, 127
1, 37296, Note_on_c, 1, 64, 127
1, 37319, Note_off_c, 1, 71, 0
1, 37319, Note_off_c, 1, 68, 0
1, 37320, Note_on_c, 1, 74, 127
1, 37341, Note_off_c, 1, 64, 0
1, 37343, Note_off_c, 1, 74, 0
1, 37344, Note_on_c, 1, 64, 127
1, 37344, Note_on_c, 1, 74, 127
1, 37344, Note_on_c, 1, 68, 127
1, 37367, Note_off_c, 1, 64, 0
1, 37367, Note_off_c, 1, 74, 0
1, 37368, Note_on_c, 1, 71, 127
1, 37389, Note_off_c, 1, 68, 0
1, 37391, Note_off_c, 1, 71, 0
1, 37392, Note_on_c, 1, 71, 127
1, 37392, Note_on_c, 1, 68, 127
1, 37392, Note_on_c, 1, 64, 127
1, 37415, Note_off_c, 1, 71, 0
1, 37415, Note_off_c, 1, 68, 0
1, 37416, Note_on_c, 1, 74, 127
1, 37437, Note_off_c, 1, 64, 0
1, 37439, Note_off_c, 1, 74, 0
1, 37440, Note_on_c, 1, 73, 127
1, 37440, Note_on_c, 1, 69, 127
1, 37463, Note_off_c, 1, 73, 0
1, 37464, Note_on_c, 1, 81, 127
1, 37464, Note_on_c, 1, 76, 127
1, 37487, Note_off_c, 1, 81, 0
1, 37487, Note_off_c, 1, 76, 0
1, 37529, Note_off_c, 1, 69, 0
1, 37536, Note_on_c, 1, 85, 127
1, 37536, Note_on_c, 1, 81, 127
1, 37559, Note_off_c, 1, 85, 0
1, 37559, Note_off_c, 1, 81, 0
1, 37560, Note_on_c, 1, 81, 127
1, 37560, Note_on_c, 1, 76, 127
1, 37583, Note_off_c, 1, 81, 0
1, 37583, Note_off_c, 1, 76, 0
1, 37584, Note_on_c, 1, 76, 127
1, 37584, Note_on_c, 1, 73, 127
1, 37584, Note_on_c, 1, 57, 127
1, 37607, Note_off_c, 1, 76, 0
1, 37607, Note_off_c, 1, 73, 0
1, 37608, Note_on_c, 1, 81, 127
1, 37629, Note_off_c, 1, 57, 0
1, 37631, Note_off_c, 1, 81, 0
1, 37632, Note_on_c, 1, 73, 127
1, 37632, Note_on_c, 1, 69, 127
1, 37632, Note_on_c, 1, 45, 127
1, 37655, Note_off_c, 1, 73, 0
1, 37655, Note_off_c, 1, 69, 0
1, 37656, Note_on_c, 1, 76, 127
1, 37677, Note_off_c, 1, 45, 0
1, 37679, Note_off_c, 1, 76, 0
1, 37680, Note_on_c, 1, 71, 127
1, 37680, Note_on_c, 1, 68, 127
1, 37680, Note_on_c, 1, 57, 127
1, 37703, Note_off_c, 1, 71, 0
1, 37703, Note_off_c, 1, 68, 0
1, 37704, Note_on_c, 1, 74, 127
1, 37725, Note_off_c, 1, 57, 0
1, 37727, Note_off_c, 1, 74, 0
1, 37728, Note_on_c, 1, 73, 127
1, 37728, Note_on_c, 1, 69, 127
1, 37728, Note_on_c, 1, 57, 127
1, 37751, Note_off_c, 1, 73, 0
1, 37751, Note_off_c, 1, 69, 0
1, 37752, Note_on_c, 1, 78, 127
1, 37775, Note_off_c, 1, 78, 0
1, 37817, Note_off_c, 1, 57, 0
1, 37824, Note_on_c, 1, 81, 127
1, 37824, Note_on_c, 1, 78, 127
1, 37847, Note_off_c, 1, 81, 0
1, 37847, Note_off_c, 1, 78, 0
1, 37848, Note_on_c, 1, 78, 127
1, 37848, Note_on_c, 1, 73, 127
1, 37871, Note_off_c, 1, 78, 0
1, 37871, Note_off_c, 1, 73, 0
1, 37872, Note_on_c, 1, 73, 127
1, 37872, Note_on_c, 1, 69, 127
1, 37872, Note_on_c, 1, 57, 127
1, 37895, Note_off_c, 1, 73, 0
1, 37895, Note_off_c, 1, 69, 0
1, 37896, Note_on_c, 1, 78, 127
1, 37917, Note_off_c, 1, 57, 0
1, 37919, Note_off_c, 1, 78, 0
1, 37920, Note_on_c, 1, 69, 127
1, 37920, Note_on_c, 1, 66, 127
1, 37920, Note_on_c, 1, 45, 127
1, 37943, Note_off_c, 1, 69, 0
1, 37943, Note_off_c, 1, 66, 0
1, 37944, Note_on_c, 1, 73, 127
1, 37965, Note_off_c, 1, 45, 0
1, 37967, Note_off_c, 1, 73, 0
1, 37968, Note_on_c, 1, 68, 127
1, 37968, Note_on_c, 1, 65, 127
1, 37968, Note_on_c, 1, 57, 127
1, 37991, Note_off_c, 1, 68, 0
1, 37991, Note_off_c, 1, 65, 0
1, 37992, Note_on_c, 1, 71, 127
1, 38013, Note_off_c, 1, 57, 0
1, 38015, Note_off_c, 1, 71, 0
1, 38016, Note_on_c, 1, 69, 127
1, 38016, Note_on_c, 1, 66, 127
1, 38016, Note_on_c, 1, 57, 127
1, 38039, Note_off_c, 1, 69, 0
1, 38039, Note_off_c, 1, 66, 0
1, 38040, Note_on_c, 1, 73, 127
1, 38063, Note_off_c, 1, 73, 0
1, 38105, Note_off_c, 1, 57, 0
1, 38112, Note_on_c, 1, 78, 127
1, 38112, Note_on_c, 1, 73, 127
1, 38135, Note_off_c, 1, 78, 0
1, 38135, Note_off_c, 1, 73, 0
1, 38136, Note_on_c, 1, 73, 127
1, 38136, Note_on_c, 1, 69, 127
1, 38159, Note_off_c, 1, 73, 0
1, 38159, Note_off_c, 1, 69, 0
1, 38160, Note_on_c, 1, 69, 127
1, 38160, Note_on_c, 1, 66, 127
1, 38160, Note_on_c, 1, 57, 127
1, 38183, Note_off_c, 1, 69, 0
1, 38183, Note_off_c, 1, 66, 0
1, 38184, Note_on_c, 1, 73, 127
1, 38205, Note_off_c, 1, 57, 0
1, 38207, Note_off_c, 1, 73, 0
1, 38208, Note_on_c, 1, 66, 127
1, 38208, Note_on_c, 1, 73, 127
1, 38208, Note_on_c, 1, 45, 127
1, 38231, Note_off_c, 1, 66, 0
1, 38231, Note_off_c, 1, 73, 0
1, 38232, Note_on_c, 1, 69, 127
1, 38253, Note_off_c, 1, 45, 0
1, 38255, Note_off_c, 1, 69, 0
1, 38256, Note_on_c, 1, 64, 127
1, 38256, Note_on_c, 1, 69, 127
1, 38256, Note_on_c, 1, 57, 127
1, 38279, Note_off_c, 1, 64, 0
1, 38279, Note_off_c, 1, 69, 0
1, 38280, Note_on_c, 1, 73, 127
1, 38301, Note_off_c, 1, 57, 0
1, 38303, Note_off_c, 1, 73, 0
1, 38304, Note_on_c, 1, 63, 127
1, 38304, Note_on_c, 1, 69, 127
1, 38304, Note_on_c, 1, 59, 127
1, 38327, Note_off_c, 1, 63, 0
1, 38327, Note_off_c, 1, 69, 0
1, 38327, Note_off_c, 1, 59, 0
1, 38328, Note_on_c, 1, 66, 127
1, 38328, Note_on_c, 1, 75, 127
1, 38328, Note_on_c, 1, 57, 127
1, 38351, Note_off_c, 1, 66, 0
1, 38351, Note_off_c, 1, 75, 0
1, 38351, Note_off_c, 1, 57, 0
1, 38352, Note_on_c, 1, 63, 127
1, 38352, Note_on_c, 1, 78, 127
1, 38352, Note_on_c, 1, 54, 127
1, 38375, Note_off_c, 1, 63, 0
1, 38375, Note_off_c, 1, 78, 0
1, 38375, Note_off_c, 1, 54, 0
1, 38376, Note_on_c, 1, 66, 127
1, 38376, Note_on_c, 1, 75, 127
1, 38376, Note_on_c, 1, 57, 127
1, 38399, Note_off_c, 1, 66, 0
1, 38399, Note_off_c, 1, 75, 0
1, 38399, Note_off_c, 1, 57, 0
1, 38400, Note_on_c, 1, 69, 127
1, 38400, Note_on_c, 1, 59, 127
1, 38423, Note_off_c, 1, 69, 0
1, 38423, Note_off_c, 1, 59, 0
1, 38424, Note_on_c, 1, 66, 127
1, 38424, Note_on_c, 1, 75, 127
1, 38424, Note_on_c, 1, 57, 127
1, 38447, Note_off_c, 1, 66, 0
1, 38447, Note_off_c, 1, 75, 0
1, 38447, Note_off_c, 1, 57, 0
1, 38448, Note_on_c, 1, 63, 127
1, 38448, Note_on_c, 1, 78, 127
1, 38448, Note_on_c, 1, 54, 127
1, 38471, Note_off_c, 1, 63, 0
1, 38471, Note_off_c, 1, 78, 0
1, 38471, Note_off_c, 1, 54, 0
1, 38472, Note_on_c, 1, 66, 127
1, 38472, Note_on_c, 1, 75, 127
1, 38472, Note_on_c, 1, 57, 127
1, 38495, Note_off_c, 1, 66, 0
1, 38495, Note_off_c, 1, 75, 0
1, 38495, Note_off_c, 1, 57, 0
1, 38496, Note_on_c, 1, 59, 127
1, 38496, Note_on_c, 1, 69, 127
1, 38496, Note_on_c, 1, 51, 127
1, 38519, Note_off_c, 1, 69, 0
1, 38519, Note_off_c, 1, 51, 0
1, 38520, Note_on_c, 1, 75, 127
1, 38520, Note_on_c, 1, 54, 127
1, 38541, Note_off_c, 1, 59, 0
1, 38543, Note_off_c, 1, 75, 0
1, 38543, Note_off_c, 1, 54, 0
1, 38544, Note_on_c, 1, 75, 127
1, 38544, Note_on_c, 1, 78, 127
1, 38544, Note_on_c, 1, 47, 127
1, 38567, Note_off_c, 1, 78, 0
1, 38567, Note_off_c, 1, 47, 0
1, 38568, Note_on_c, 1, 69, 127
1, 38568, Note_on_c, 1, 51, 127
1, 38589, Note_off_c, 1, 75, 0
1, 38591, Note_off_c, 1, 69, 0
1, 38591, Note_off_c, 1, 51, 0
1, 38592, Note_on_c, 1, 76, 127
1, 38592, Note_on_c, 1, 68, 127
1, 38592, Note_on_c, 1, 40, 127
1, 38615, Note_off_c, 1, 40, 0
1, 38616, Note_on_c, 1, 52, 127
1, 38637, Note_off_c, 1, 68, 0
1, 38639, Note_off_c, 1, 52, 0
1, 38640, Note_on_c, 1, 64, 127
1, 38640, Note_on_c, 1, 51, 127
1, 38663, Note_off_c, 1, 51, 0
1, 38681, Note_off_c, 1, 76, 0
1, 38685, Note_off_c, 1, 64, 0
1, 38688, Note_on_c, 1, 68, 127
1, 38688, Note_on_c, 1, 54, 127
1, 38711, Note_off_c, 1, 54, 0
1, 38712, Note_on_c, 1, 52, 127
1, 38733, Note_off_c, 1, 68, 0
1, 38735, Note_off_c, 1, 52, 0
1, 38736, Note_on_c, 1, 68, 127
1, 38736, Note_on_c, 1, 71, 127
1, 38736, Note_on_c, 1, 51, 127
1, 38759, Note_off_c, 1, 51, 0
1, 38760, Note_on_c, 1, 52, 127
1, 38781, Note_off_c, 1, 68, 0
1, 38781, Note_off_c, 1, 71, 0
1, 38783, Note_off_c, 1, 52, 0
1, 38784, Note_on_c, 1, 71, 127
1, 38784, Note_on_c, 1, 76, 127
1, 38784, Note_on_c, 1, 56, 127
1, 38807, Note_off_c, 1, 56, 0
1, 38808, Note_on_c, 1, 52, 127
1, 38829, Note_off_c, 1, 71, 0
1, 38831, Note_off_c, 1, 52, 0
1, 38832, Note_on_c, 1, 51, 127
1, 38855, Note_off_c, 1, 51, 0
1, 38880, Note_on_c, 1, 78, 127
1, 38880, Note_on_c, 1, 57, 127
1, 38903, Note_off_c, 1, 57, 0
1, 38925, Note_off_c, 1, 76, 0
1, 38928, Note_on_c, 1, 73, 127
1, 38969, Note_off_c, 1, 78, 0
1, 38973, Note_off_c, 1, 73, 0
1, 38976, Note_on_c, 1, 71, 127
1, 38976, Note_on_c, 1, 56, 127
1, 38999, Note_off_c, 1, 56, 0
1, 39000, Note_on_c, 1, 52, 127
1, 39021, Note_off_c, 1, 71, 0
1, 39023, Note_off_c, 1, 52, 0
1, 39024, Note_on_c, 1, 69, 127
1, 39024, Note_on_c, 1, 51, 127
1, 39047, Note_off_c, 1, 51, 0
1, 39048, Note_on_c, 1, 52, 127
1, 39069, Note_off_c, 1, 69, 0
1, 39071, Note_off_c, 1, 52, 0
1, 39072, Note_on_c, 1, 73, 127
1, 39072, Note_on_c, 1, 76, 127
1, 39072, Note_on_c, 1, 57, 127
1, 39095, Note_off_c, 1, 57, 0
1, 39096, Note_on_c, 1, 52, 127
1, 39117, Note_off_c, 1, 73, 0
1, 39119, Note_off_c, 1, 52, 0
1, 39120, Note_on_c, 1, 78, 127
1, 39120, Note_on_c, 1, 51, 127
1, 39143, Note_off_c, 1, 51, 0
1, 39165, Note_off_c, 1, 78, 0
1, 39168, Note_on_c, 1, 80, 127
1, 39168, Note_on_c, 1, 59, 127
1, 39191, Note_off_c, 1, 59, 0
1, 39213, Note_off_c, 1, 76, 0
1, 39216, Note_on_c, 1, 68, 127
1, 39257, Note_off_c, 1, 80, 0
1, 39261, Note_off_c, 1, 68, 0
1, 39264, Note_on_c, 1, 66, 127
1, 39264, Note_on_c, 1, 57, 127
1, 39287, Note_off_c, 1, 57, 0
1, 39288, Note_on_c, 1, 52, 127
1, 39309, Note_off_c, 1, 66, 0
1, 39311, Note_off_c, 1, 52, 0
1, 39312, Note_on_c, 1, 71, 127
1, 39312, Note_on_c, 1, 64, 127
1, 39312, Note_on_c, 1, 51, 127
1, 39335, Note_off_c, 1, 51, 0
1, 39336, Note_on_c, 1, 52, 127
1, 39357, Note_off_c, 1, 71, 0
1, 39357, Note_off_c, 1, 64, 0
1, 39359, Note_off_c, 1, 52, 0
1, 39360, Note_on_c, 1, 76, 127
1, 39360, Note_on_c, 1, 59, 127
1, 39383, Note_off_c, 1, 59, 0
1, 39384, Note_on_c, 1, 52, 127
1, 39407, Note_off_c, 1, 52, 0
1, 39408, Note_on_c, 1, 80, 127
1, 39408, Note_on_c, 1, 51, 127
1, 39431, Note_off_c, 1, 51, 0
1, 39453, Note_off_c, 1, 80, 0
1, 39456, Note_on_c, 1, 81, 127
1, 39456, Note_on_c, 1, 61, 127
1, 39479, Note_off_c, 1, 61, 0
1, 39501, Note_off_c, 1, 76, 0
1, 39552, Note_on_c, 1, 78, 127
1, 39552, Note_on_c, 1, 57, 127
1, 39575, Note_off_c, 1, 57, 0
1, 39576, Note_on_c, 1, 56, 127
1, 39597, Note_off_c, 1, 78, 0
1, 39599, Note_off_c, 1, 56, 0
1, 39648, Note_on_c, 1, 75, 127
1, 39648, Note_on_c, 1, 54, 127
1, 39671, Note_off_c, 1, 54, 0
1, 39693, Note_off_c, 1, 75, 0
1, 39696, Note_on_c, 1, 73, 127
1, 39741, Note_off_c, 1, 73, 0
1, 39744, Note_on_c, 1, 71, 127
1, 39768, Note_on_c, 1, 49, 127
1, 39789, Note_off_c, 1, 81, 0
1, 39791, Note_off_c, 1, 49, 0
1, 39840, Note_on_c, 1, 47, 127
1, 39863, Note_off_c, 1, 47, 0
1, 39864, Note_on_c, 1, 45, 127
1, 39887, Note_off_c, 1, 45, 0
1, 39936, Note_on_c, 1, 44, 127
1, 39959, Note_off_c, 1, 44, 0
1, 39960, Note_on_c, 1, 42, 127
1, 39983, Note_off_c, 1, 42, 0
1, 40032, Note_on_c, 1, 40, 127
1, 40055, Note_off_c, 1, 71, 0
1, 40056, Note_on_c, 1, 69, 127
1, 40077, Note_off_c, 1, 40, 0
1, 40079, Note_off_c, 1, 69, 0
1, 40128, Note_on_c, 1, 68, 127
1, 40151, Note_off_c, 1, 68, 0
1, 40152, Note_on_c, 1, 66, 127
1, 40175, Note_off_c, 1, 66, 0
1, 40224, Note_on_c, 1, 64, 127
1, 40247, Note_off_c, 1, 64, 0
1, 40248, Note_on_c, 1, 62, 127
1, 40271, Note_off_c, 1, 62, 0
1, 40608, Note_on_c, 1, 83, 127
1, 40631, Note_off_c, 1, 83, 0
1, 40656, Note_on_c, 1, 70, 127
1, 40679, Note_off_c, 1, 70, 0
1, 40704, Note_on_c, 1, 75, 127
1, 40704, Note_on_c, 1, 73, 127
1, 40727, Note_off_c, 1, 73, 0
1, 40728, Note_on_c, 1, 71, 127
1, 40749, Note_off_c, 1, 75, 0
1, 40751, Note_off_c, 1, 71, 0
1, 40752, Note_on_c, 1, 78, 127
1, 40752, Note_on_c, 1, 70, 127
1, 40752, Note_on_c, 1, 61, 127
1, 40775, Note_off_c, 1, 70, 0
1, 40776, Note_on_c, 1, 71, 127
1, 40797, Note_off_c, 1, 78, 0
1, 40797, Note_off_c, 1, 61, 0
1, 40799, Note_off_c, 1, 71, 0
1, 40800, Note_on_c, 1, 83, 127
1, 40800, Note_on_c, 1, 75, 127
1, 40800, Note_on_c, 1, 59, 127
1, 40823, Note_off_c, 1, 75, 0
1, 40824, Note_on_c, 1, 71, 127
1, 40845, Note_off_c, 1, 59, 0
1, 40847, Note_off_c, 1, 71, 0
1, 40848, Note_on_c, 1, 70, 127
1, 40848, Note_on_c, 1, 57, 127
1, 40871, Note_off_c, 1, 70, 0
1, 40893, Note_off_c, 1, 57, 0
1, 40896, Note_on_c, 1, 76, 127
1, 40896, Note_on_c, 1, 56, 127
1, 40919, Note_off_c, 1, 76, 0
1, 40941, Note_off_c, 1, 83, 0
1, 40944, Note_on_c, 1, 80, 127
1, 40985, Note_off_c, 1, 56, 0
1, 40989, Note_off_c, 1, 80, 0
1, 40992, Note_on_c, 1, 78, 127
1, 40992, Note_on_c, 1, 75, 127
1, 41015, Note_off_c, 1, 75, 0
1, 41016, Note_on_c, 1, 71, 127
1, 41037, Note_off_c, 1, 78, 0
1, 41039, Note_off_c, 1, 71, 0
1, 41040, Note_on_c, 1, 76, 127
1, 41040, Note_on_c, 1, 70, 127
1, 41040, Note_on_c, 1, 56, 127
1, 41063, Note_off_c, 1, 70, 0
1, 41064, Note_on_c, 1, 71, 127
1, 41085, Note_off_c, 1, 76, 0
1, 41085, Note_off_c, 1, 56, 0
1, 41087, Note_off_c, 1, 71, 0
1, 41088, Note_on_c, 1, 83, 127
1, 41088, Note_on_c, 1, 76, 127
1, 41088, Note_on_c, 1, 54, 127
1, 41111, Note_off_c, 1, 76, 0
1, 41112, Note_on_c, 1, 71, 127
1, 41133, Note_off_c, 1, 54, 0
1, 41135, Note_off_c, 1, 71, 0
1, 41136, Note_on_c, 1, 70, 127
1, 41136, Note_on_c, 1, 52, 127
1, 41159, Note_off_c, 1, 70, 0
1, 41181, Note_off_c, 1, 52, 0
1, 41184, Note_on_c, 1, 78, 127
1, 41184, Note_on_c, 1, 51, 127
1, 41207, Note_off_c, 1, 78, 0
1, 41229, Note_off_c, 1, 83, 0
1, 41232, Note_on_c, 1, 75, 127
1, 41273, Note_off_c, 1, 51, 0
1, 41277, Note_off_c, 1, 75, 0
1, 41280, Note_on_c, 1, 73, 127
1, 41280, Note_on_c, 1, 76, 127
1, 41303, Note_off_c, 1, 76, 0
1, 41304, Note_on_c, 1, 71, 127
1, 41325, Note_off_c, 1, 73, 0
1, 41327, Note_off_c, 1, 71, 0
1, 41328, Note_on_c, 1, 71, 127
1, 41328, Note_on_c, 1, 70, 127
1, 41328, Note_on_c, 1, 51, 127
1, 41351, Note_off_c, 1, 70, 0
1, 41373, Note_off_c, 1, 51, 0
1, 41375, Note_off_c, 1, 71, 0
1, 41376, Note_on_c, 1, 83, 127
1, 41376, Note_on_c, 1, 78, 127
1, 41376, Note_on_c, 1, 49, 127
1, 41399, Note_off_c, 1, 78, 0
1, 41400, Note_on_c, 1, 71, 127
1, 41421, Note_off_c, 1, 49, 0
1, 41423, Note_off_c, 1, 71, 0
1, 41424, Note_on_c, 1, 70, 127
1, 41424, Note_on_c, 1, 47, 127
1, 41447, Note_off_c, 1, 70, 0
1, 41469, Note_off_c, 1, 47, 0
1, 41472, Note_on_c, 1, 80, 127
1, 41472, Note_on_c, 1, 52, 127
1, 41495, Note_off_c, 1, 83, 0
1, 41496, Note_on_c, 1, 76, 127
1, 41517, Note_off_c, 1, 80, 0
1, 41519, Note_off_c, 1, 76, 0
1, 41520, Note_on_c, 1, 75, 127
1, 41520, Note_on_c, 1, 64, 127
1, 41543, Note_off_c, 1, 75, 0
1, 41561, Note_off_c, 1, 52, 0
1, 41565, Note_off_c, 1, 64, 0
1, 41568, Note_on_c, 1, 78, 127
1, 41568, Note_on_c, 1, 68, 127
1, 41591, Note_off_c, 1, 78, 0
1, 41592, Note_on_c, 1, 76, 127
1, 41613, Note_off_c, 1, 68, 0
1, 41615, Note_off_c, 1, 76, 0
1, 41616, Note_on_c, 1, 75, 127
1, 41616, Note_on_c, 1, 71, 127
1, 41616, Note_on_c, 1, 54, 127
1, 41639, Note_off_c, 1, 75, 0
1, 41640, Note_on_c, 1, 76, 127
1, 41661, Note_off_c, 1, 71, 0
1, 41661, Note_off_c, 1, 54, 0
1, 41663, Note_off_c, 1, 76, 0
1, 41664, Note_on_c, 1, 80, 127
1, 41664, Note_on_c, 1, 76, 127
1, 41664, Note_on_c, 1, 52, 127
1, 41687, Note_off_c, 1, 80, 0
1, 41709, Note_off_c, 1, 52, 0
1, 41712, Note_on_c, 1, 75, 127
1, 41712, Note_on_c, 1, 50, 127
1, 41735, Note_off_c, 1, 75, 0
1, 41757, Note_off_c, 1, 50, 0
1, 41760, Note_on_c, 1, 81, 127
1, 41760, Note_on_c, 1, 49, 127
1, 41783, Note_off_c, 1, 81, 0
1, 41807, Note_off_c, 1, 76, 0
1, 41808, Note_on_c, 1, 73, 127
1, 41849, Note_off_c, 1, 49, 0
1, 41853, Note_off_c, 1, 73, 0
1, 41856, Note_on_c, 1, 80, 127
1, 41856, Note_on_c, 1, 71, 127
1, 41879, Note_off_c, 1, 80, 0
1, 41880, Note_on_c, 1, 76, 127
1, 41901, Note_off_c, 1, 71, 0
1, 41903, Note_off_c, 1, 76, 0
1, 41904, Note_on_c, 1, 75, 127
1, 41904, Note_on_c, 1, 68, 127
1, 41904, Note_on_c, 1, 49, 127
1, 41927, Note_off_c, 1, 75, 0
1, 41928, Note_on_c, 1, 76, 127
1, 41949, Note_off_c, 1, 68, 0
1, 41949, Note_off_c, 1, 49, 0
1, 41951, Note_off_c, 1, 76, 0
1, 41952, Note_on_c, 1, 81, 127
1, 41952, Note_on_c, 1, 76, 127
1, 41952, Note_on_c, 1, 47, 127
1, 41975, Note_off_c, 1, 81, 0
1, 41997, Note_off_c, 1, 47, 0
1, 42000, Note_on_c, 1, 75, 127
1, 42000, Note_on_c, 1, 45, 127
1, 42023, Note_off_c, 1, 75, 0
1, 42045, Note_off_c, 1, 45, 0
1, 42048, Note_on_c, 1, 83, 127
1, 42048, Note_on_c, 1, 44, 127
1, 42071, Note_off_c, 1, 83, 0
1, 42095, Note_off_c, 1, 76, 0
1, 42096, Note_on_c, 1, 68, 127
1, 42137, Note_off_c, 1, 44, 0
1, 42141, Note_off_c, 1, 68, 0
1, 42144, Note_on_c, 1, 81, 127
1, 42144, Note_on_c, 1, 66, 127
1, 42167, Note_off_c, 1, 81, 0
1, 42168, Note_on_c, 1, 76, 127
1, 42189, Note_off_c, 1, 66, 0
1, 42191, Note_off_c, 1, 76, 0
1, 42192, Note_on_c, 1, 75, 127
1, 42192, Note_on_c, 1, 64, 127
1, 42192, Note_on_c, 1, 44, 127
1, 42215, Note_off_c, 1, 75, 0
1, 42216, Note_on_c, 1, 76, 127
1, 42237, Note_off_c, 1, 64, 0
1, 42237, Note_off_c, 1, 44, 0
1, 42239, Note_off_c, 1, 76, 0
1, 42240, Note_on_c, 1, 83, 127
1, 42240, Note_on_c, 1, 76, 127
1, 42240, Note_on_c, 1, 42, 127
1, 42263, Note_off_c, 1, 83, 0
1, 42285, Note_off_c, 1, 42, 0
1, 42288, Note_on_c, 1, 75, 127
1, 42288, Note_on_c, 1, 40, 127
1, 42311, Note_off_c, 1, 75, 0
1, 42333, Note_off_c, 1, 40, 0
1, 42336, Note_on_c, 1, 85, 127
1, 42336, Note_on_c, 1, 45, 127
1, 42359, Note_off_c, 1, 85, 0
1, 42381, Note_off_c, 1, 76, 0
1, 42381, Note_off_c, 1, 45, 0
1, 42384, Note_on_c, 1, 85, 127
1, 42384, Note_on_c, 1, 68, 127
1, 42384, Note_on_c, 1, 47, 127
1, 42407, Note_off_c, 1, 85, 0
1, 42408, Note_on_c, 1, 83, 127
1, 42429, Note_off_c, 1, 68, 0
1, 42429, Note_off_c, 1, 47, 0
1, 42431, Note_off_c, 1, 83, 0
1, 42432, Note_on_c, 1, 81, 127
1, 42432, Note_on_c, 1, 69, 127
1, 42432, Note_on_c, 1, 49, 127
1, 42455, Note_off_c, 1, 81, 0
1, 42456, Note_on_c, 1, 80, 127
1, 42477, Note_off_c, 1, 69, 0
1, 42477, Note_off_c, 1, 49, 0
1, 42479, Note_off_c, 1, 80, 0
1, 42480, Note_on_c, 1, 81, 127
1, 42480, Note_on_c, 1, 71, 127
1, 42480, Note_on_c, 1, 47, 127
1, 42503, Note_off_c, 1, 81, 0
1, 42504, Note_on_c, 1, 80, 127
1, 42525, Note_off_c, 1, 71, 0
1, 42525, Note_off_c, 1, 47, 0
1, 42527, Note_off_c, 1, 80, 0
1, 42528, Note_on_c, 1, 78, 127
1, 42528, Note_on_c, 1, 73, 127
1, 42528, Note_on_c, 1, 45, 127
1, 42551, Note_off_c, 1, 78, 0
1, 42552, Note_on_c, 1, 76, 127
1, 42573, Note_off_c, 1, 73, 0
1, 42573, Note_off_c, 1, 45, 0
1, 42575, Note_off_c, 1, 76, 0
1, 42576, Note_on_c, 1, 78, 127
1, 42576, Note_on_c, 1, 69, 127
1, 42576, Note_on_c, 1, 42, 127
1, 42599, Note_off_c, 1, 78, 0
1, 42600, Note_on_c, 1, 76, 127
1, 42621, Note_off_c, 1, 69, 0
1, 42621, Note_off_c, 1, 42, 0
1, 42623, Note_off_c, 1, 76, 0
1, 42624, Note_on_c, 1, 75, 127
1, 42624, Note_on_c, 1, 78, 127
1, 42624, Note_on_c, 1, 47, 127
1, 42647, Note_off_c, 1, 78, 0
1, 42648, Note_on_c, 1, 76, 127
1, 42669, Note_off_c, 1, 75, 0
1, 42669, Note_off_c, 1, 47, 0
1, 42671, Note_off_c, 1, 76, 0
1, 42672, Note_on_c, 1, 73, 127
1, 42672, Note_on_c, 1, 78, 127
1, 42672, Note_on_c, 1, 46, 127
1, 42695, Note_off_c, 1, 78, 0
1, 42696, Note_on_c, 1, 76, 127
1, 42717, Note_off_c, 1, 73, 0
1, 42717, Note_off_c, 1, 46, 0
1, 42719, Note_off_c, 1, 76, 0
1, 42720, Note_on_c, 1, 75, 127
1, 42720, Note_on_c, 1, 47, 127
1, 42744, Note_on_c, 1, 73, 127
1, 42765, Note_off_c, 1, 75, 0
1, 42765, Note_off_c, 1, 47, 0
1, 42767, Note_off_c, 1, 73, 0
1, 42768, Note_on_c, 1, 76, 127
1, 42768, Note_on_c, 1, 75, 127
1, 42768, Note_on_c, 1, 49, 127
1, 42791, Note_off_c, 1, 75, 0
1, 42792, Note_on_c, 1, 73, 127
1, 42813, Note_off_c, 1, 76, 0
1, 42813, Note_off_c, 1, 49, 0
1, 42815, Note_off_c, 1, 73, 0
1, 42816, Note_on_c, 1, 78, 127
1, 42816, Note_on_c, 1, 71, 127
1, 42816, Note_on_c, 1, 51, 127
1, 42839, Note_off_c, 1, 71, 0
1, 42840, Note_on_c, 1, 69, 127
1, 42861, Note_off_c, 1, 78, 0
1, 42861, Note_off_c, 1, 51, 0
1, 42863, Note_off_c, 1, 69, 0
1, 42864, Note_on_c, 1, 75, 127
1, 42864, Note_on_c, 1, 71, 127
1, 42864, Note_on_c, 1, 47, 127
1, 42887, Note_off_c, 1, 71, 0
1, 42888, Note_on_c, 1, 69, 127
1, 42909, Note_off_c, 1, 75, 0
1, 42909, Note_off_c, 1, 47, 0
1, 42911, Note_off_c, 1, 69, 0
1, 42912, Note_on_c, 1, 83, 127
1, 42912, Note_on_c, 1, 68, 127
1, 42912, Note_on_c, 1, 52, 127
1, 42935, Note_off_c, 1, 83, 0
1, 42936, Note_on_c, 1, 81, 127
1, 42957, Note_off_c, 1, 68, 0
1, 42957, Note_off_c, 1, 52, 0
1, 42959, Note_off_c, 1, 81, 0
1, 42960, Note_on_c, 1, 83, 127
1, 42960, Note_on_c, 1, 66, 127
1, 42960, Note_on_c, 1, 51, 127
1, 42983, Note_off_c, 1, 83, 0
1, 42984, Note_on_c, 1, 81, 127
1, 43005, Note_off_c, 1, 66, 0
1, 43005, Note_off_c, 1, 51, 0
1, 43007, Note_off_c, 1, 81, 0
1, 43008, Note_on_c, 1, 80, 127
1, 43008, Note_on_c, 1, 68, 127
1, 43008, Note_on_c, 1, 52, 127
1, 43031, Note_off_c, 1, 80, 0
1, 43032, Note_on_c, 1, 78, 127
1, 43053, Note_off_c, 1, 68, 0
1, 43053, Note_off_c, 1, 52, 0
1, 43055, Note_off_c, 1, 78, 0
1, 43056, Note_on_c, 1, 80, 127
1, 43056, Note_on_c, 1, 69, 127
1, 43056, Note_on_c, 1, 54, 127
1, 43079, Note_off_c, 1, 80, 0
1, 43080, Note_on_c, 1, 78, 127
1, 43101, Note_off_c, 1, 69, 0
1, 43101, Note_off_c, 1, 54, 0
1, 43103, Note_off_c, 1, 78, 0
1, 43104, Note_on_c, 1, 76, 127
1, 43104, Note_on_c, 1, 71, 127
1, 43104, Note_on_c, 1, 56, 127
1, 43127, Note_off_c, 1, 76, 0
1, 43128, Note_on_c, 1, 74, 127
1, 43149, Note_off_c, 1, 71, 0
1, 43149, Note_off_c, 1, 56, 0
1, 43151, Note_off_c, 1, 74, 0
1, 43152, Note_on_c, 1, 76, 127
1, 43152, Note_on_c, 1, 68, 127
1, 43152, Note_on_c, 1, 52, 127
1, 43175, Note_off_c, 1, 76, 0
1, 43176, Note_on_c, 1, 74, 127
1, 43197, Note_off_c, 1, 68, 0
1, 43197, Note_off_c, 1, 52, 0
1, 43199, Note_off_c, 1, 74, 0
1, 43200, Note_on_c, 1, 73, 127
1, 43200, Note_on_c, 1, 76, 127
1, 43200, Note_on_c, 1, 57, 127
1, 43223, Note_off_c, 1, 73, 0
1, 43223, Note_off_c, 1, 76, 0
1, 43224, Note_on_c, 1, 71, 127
1, 43224, Note_on_c, 1, 74, 127
1, 43245, Note_off_c, 1, 57, 0
1, 43247, Note_off_c, 1, 71, 0
1, 43247, Note_off_c, 1, 74, 0
1, 43248, Note_on_c, 1, 73, 127
1, 43248, Note_on_c, 1, 76, 127
1, 43248, Note_on_c, 1, 56, 127
1, 43271, Note_off_c, 1, 73, 0
1, 43271, Note_off_c, 1, 76, 0
1, 43272, Note_on_c, 1, 71, 127
1, 43272, Note_on_c, 1, 74, 127
1, 43293, Note_off_c, 1, 56, 0
1, 43295, Note_off_c, 1, 71, 0
1, 43295, Note_off_c, 1, 74, 0
1, 43296, Note_on_c, 1, 69, 127
1, 43296, Note_on_c, 1, 73, 127
1, 43296, Note_on_c, 1, 57, 127
1, 43319, Note_off_c, 1, 69, 0
1, 43319, Note_off_c, 1, 73, 0
1, 43320, Note_on_c, 1, 68, 127
1, 43320, Note_on_c, 1, 71, 127
1, 43341, Note_off_c, 1, 57, 0
1, 43343, Note_off_c, 1, 68, 0
1, 43343, Note_off_c, 1, 71, 0
1, 43344, Note_on_c, 1, 69, 127
1, 43344, Note_on_c, 1, 73, 127
1, 43344, Note_on_c, 1, 59, 127
1, 43367, Note_off_c, 1, 69, 0
1, 43367, Note_off_c, 1, 73, 0
1, 43368, Note_on_c, 1, 68, 127
1, 43368, Note_on_c, 1, 71, 127
1, 43389, Note_off_c, 1, 59, 0
1, 43391, Note_off_c, 1, 68, 0
1, 43391, Note_off_c, 1, 71, 0
1, 43392, Note_on_c, 1, 66, 127
1, 43392, Note_on_c, 1, 69, 127
1, 43392, Note_on_c, 1, 61, 127
1, 43415, Note_off_c, 1, 66, 0
1, 43415, Note_off_c, 1, 69, 0
1, 43416, Note_on_c, 1, 64, 127
1, 43416, Note_on_c, 1, 68, 127
1, 43437, Note_off_c, 1, 61, 0
1, 43439, Note_off_c, 1, 64, 0
1, 43439, Note_off_c, 1, 68, 0
1, 43440, Note_on_c, 1, 66, 127
1, 43440, Note_on_c, 1, 69, 127
1, 43440, Note_on_c, 1, 57, 127
1, 43463, Note_off_c, 1, 66, 0
1, 43463, Note_off_c, 1, 69, 0
1, 43464, Note_on_c, 1, 64, 127
1, 43464, Note_on_c, 1, 68, 127
1, 43485, Note_off_c, 1, 57, 0
1, 43487, Note_off_c, 1, 64, 0
1, 43487, Note_off_c, 1, 68, 0
1, 43488, Note_on_c, 1, 75, 127
1, 43488, Note_on_c, 1, 66, 127
1, 43488, Note_on_c, 1, 59, 127
1, 43511, Note_off_c, 1, 59, 0
1, 43512, Note_on_c, 1, 57, 127
1, 43533, Note_off_c, 1, 66, 0
1, 43535, Note_off_c, 1, 57, 0
1, 43584, Note_on_c, 1, 71, 127
1, 43584, Note_on_c, 1, 56, 127
1, 43607, Note_off_c, 1, 56, 0
1, 43608, Note_on_c, 1, 54, 127
1, 43621, Note_off_c, 1, 75, 0
1, 43629, Note_off_c, 1, 71, 0
1, 43631, Note_off_c, 1, 54, 0
1, 43632, Note_on_c, 1, 71, 127
1, 43632, Note_on_c, 1, 69, 127
1, 43632, Note_on_c, 1, 56, 127
1, 43655, Note_off_c, 1, 56, 0
1, 43656, Note_on_c, 1, 54, 127
1, 43677, Note_off_c, 1, 71, 0
1, 43677, Note_off_c, 1, 69, 0
1, 43679, Note_off_c, 1, 54, 0
1, 43680, Note_on_c, 1, 76, 127
1, 43680, Note_on_c, 1, 68, 127
1, 43680, Note_on_c, 1, 52, 127
1, 43703, Note_off_c, 1, 52, 0
1, 43704, Note_on_c, 1, 51, 127
1, 43725, Note_off_c, 1, 76, 0
1, 43725, Note_off_c, 1, 68, 0
1, 43727, Note_off_c, 1, 51, 0
1, 43728, Note_on_c, 1, 75, 127
1, 43728, Note_on_c, 1, 66, 127
1, 43728, Note_on_c, 1, 52, 127
1, 43751, Note_off_c, 1, 52, 0
1, 43752, Note_on_c, 1, 51, 127
1, 43773, Note_off_c, 1, 75, 0
1, 43773, Note_off_c, 1, 66, 0
1, 43775, Note_off_c, 1, 51, 0
1, 43776, Note_on_c, 1, 76, 127
1, 43776, Note_on_c, 1, 68, 127
1, 43776, Note_on_c, 1, 49, 127
1, 43799, Note_off_c, 1, 49, 0
1, 43800, Note_on_c, 1, 47, 127
1, 43821, Note_off_c, 1, 76, 0
1, 43821, Note_off_c, 1, 68, 0
1, 43823, Note_off_c, 1, 47, 0
1, 43824, Note_on_c, 1, 78, 127
1, 43824, Note_on_c, 1, 69, 127
1, 43824, Note_on_c, 1, 49, 127
1, 43847, Note_off_c, 1, 49, 0
1, 43848, Note_on_c, 1, 45, 127
1, 43869, Note_off_c, 1, 78, 0
1, 43869, Note_off_c, 1, 69, 0
1, 43871, Note_off_c, 1, 45, 0
1, 43872, Note_on_c, 1, 75, 127
1, 43872, Note_on_c, 1, 66, 127
1, 43872, Note_on_c, 1, 47, 127
1, 43961, Note_off_c, 1, 47, 0
1, 44005, Note_off_c, 1, 75, 0
1, 44005, Note_off_c, 1, 66, 0
1, 44016, Note_on_c, 1, 76, 127
1, 44016, Note_on_c, 1, 64, 127
1, 44061, Note_off_c, 1, 76, 0
1, 44061, Note_off_c, 1, 64, 0
1, 44064, Note_on_c, 1, 76, 127
1, 44064, Note_on_c, 1, 64, 127
1, 44064, Note_on_c, 1, 40, 127
1, 44153, Note_off_c, 1, 76, 0
1, 44153, Note_off_c, 1, 64, 0
1, 44153, Note_off_c, 1, 40, 0
1, 44153, End_track
0, 0, End_of_file