0, 0, Header, 1, 1, 480
1, 0, Start_track
1, 0, Title_t, "Test"
1, 0, Tempo, 500000
1, 0, Instrument_name_t, "Church Organ"
1, 0, Note_on_c, 1, 67, 127
1, 0, Note_on_c, 1, 64, 127
1, 0, Note_on_c, 1, 59, 127
1, 0, Note_on_c, 1, 40, 127
1, 45, Note_off_c, 1, 67, 0
1, 45, Note_off_c, 1, 64, 0
1, 45, Note_off_c, 1, 40, 0
1, 48, Note_off_c, 1, 59, 0
1, 48, Note_on_c, 1, 69, 127
1, 48, Note_on_c, 1, 52, 127
1, 93, Note_off_c, 1, 69, 0
1, 93, Note_off_c, 1, 52, 0
1, 96, Note_on_c, 1, 71, 127
1, 96, Note_on_c, 1, 42, 127
1, 119, Note_off_c, 1, 71, 0
1, 120, Note_on_c, 1, 69, 127
1, 141, Note_off_c, 1, 42, 0
1, 143, Note_off_c, 1, 69, 0
1, 144, Note_on_c, 1, 67, 127
1, 144, Note_on_c, 1, 51, 127
1, 167, Note_off_c, 1, 67, 0
1, 168, Note_on_c, 1, 69, 127
1, 189, Note_off_c, 1, 51, 0
1, 191, Note_off_c, 1, 69, 0
1, 192, Note_on_c, 1, 71, 127
1, 192, Note_on_c, 1, 43, 127
1, 237, Note_off_c, 1, 43, 0
1, 240, Note_on_c, 1, 52, 127
1, 281, Note_off_c, 1, 71, 0
1, 285, Note_off_c, 1, 52, 0
1, 288, Note_on_c, 1, 64, 127
1, 288, Note_on_c, 1, 60, 127
1, 288, Note_on_c, 1, 45, 127
1, 333, Note_off_c, 1, 45, 0
1, 336, Note_on_c, 1, 55, 127
1, 377, Note_off_c, 1, 64, 0
1, 377, Note_off_c, 1, 60, 0
1, 381, Note_off_c, 1, 55, 0
1, 384, Note_on_c, 1, 64, 127
1, 384, Note_on_c, 1, 60, 127
1, 384, Note_on_c, 1, 47, 127
1, 429, Note_off_c, 1, 64, 0
1, 429, Note_off_c, 1, 60, 0
1, 429, Note_off_c, 1, 47, 0
1, 432, Note_on_c, 1, 63, 127
1, 432, Note_on_c, 1, 54, 127
1, 455, Note_off_c, 1, 63, 0
1, 456, Note_on_c, 1, 64, 127
1, 477, Note_off_c, 1, 54, 0
1, 479, Note_off_c, 1, 64, 0
1, 480, Note_on_c, 1, 66, 127
1, 480, Note_on_c, 1, 49, 127
1, 503, Note_off_c, 1, 66, 0
1, 504, Note_on_c, 1, 64, 127
1, 525, Note_off_c, 1, 49, 0
1, 527, Note_off_c, 1, 64, 0
1, 528, Note_on_c, 1, 63, 127
1, 528, Note_on_c, 1, 54, 127
1, 551, Note_off_c, 1, 63, 0
1, 552, Note_on_c, 1, 61, 127
1, 573, Note_off_c, 1, 54, 0
1, 575, Note_off_c, 1, 61, 0
1, 576, Note_on_c, 1, 59, 127
1, 576, Note_on_c, 1, 51, 127
1, 621, Note_off_c, 1, 59, 0
1, 621, Note_off_c, 1, 51, 0
1, 624, Note_on_c, 1, 63, 127
1, 624, Note_on_c, 1, 52, 127
1, 647, Note_off_c, 1, 52, 0
1, 648, Note_on_c, 1, 54, 127
1, 669, Note_off_c, 1, 63, 0
1, 671, Note_off_c, 1, 54, 0
1, 672, Note_on_c, 1, 66, 127
1, 672, Note_on_c, 1, 52, 127
1, 695, Note_off_c, 1, 52, 0
1, 696, Note_on_c, 1, 51, 127
1, 717, Note_off_c, 1, 66, 0
1, 719, Note_off_c, 1, 51, 0
1, 720, Note_on_c, 1, 69, 127
1, 720, Note_on_c, 1, 49, 127
1, 743, Note_off_c, 1, 49, 0
1, 744, Note_on_c, 1, 47, 127
1, 767, Note_off_c, 1, 47, 0
1, 768, Note_on_c, 1, 52, 127
1, 813, Note_off_c, 1, 69, 0
1, 813, Note_off_c, 1, 52, 0
1, 816, Note_on_c, 1, 67, 127
1, 816, Note_on_c, 1, 47, 127
1, 839, Note_off_c, 1, 67, 0
1, 840, Note_on_c, 1, 69, 127
1, 861, Note_off_c, 1, 47, 0
1, 863, Note_off_c, 1, 69, 0
1, 864, Note_on_c, 1, 71, 127
1, 864, Note_on_c, 1, 54, 127
1, 887, Note_off_c, 1, 71, 0
1, 888, Note_on_c, 1, 69, 127
1, 909, Note_off_c, 1, 54, 0
1, 911, Note_off_c, 1, 69, 0
1, 912, Note_on_c, 1, 67, 127
1, 912, Note_on_c, 1, 47, 127
1, 935, Note_off_c, 1, 67, 0
1, 936, Note_on_c, 1, 66, 127
1, 957, Note_off_c, 1, 47, 0
1, 959, Note_off_c, 1, 66, 0
1, 960, Note_on_c, 1, 64, 127
1, 960, Note_on_c, 1, 55, 127
1, 1005, Note_off_c, 1, 64, 0
1, 1005, Note_off_c, 1, 55, 0
1, 1008, Note_on_c, 1, 67, 127
1, 1008, Note_on_c, 1, 57, 127
1, 1031, Note_off_c, 1, 57, 0
1, 1032, Note_on_c, 1, 59, 127
1, 1053, Note_off_c, 1, 67, 0
1, 1055, Note_off_c, 1, 59, 0
1, 1056, Note_on_c, 1, 71, 127
1, 1056, Note_on_c, 1, 57, 127
1, 1079, Note_off_c, 1, 57, 0
1, 1080, Note_on_c, 1, 55, 127
1, 1101, Note_off_c, 1, 71, 0
1, 1103, Note_off_c, 1, 55, 0
1, 1104, Note_on_c, 1, 76, 127
1, 1104, Note_on_c, 1, 54, 127
1, 1127, Note_off_c, 1, 54, 0
1, 1128, Note_on_c, 1, 52, 127
1, 1151, Note_off_c, 1, 52, 0
1, 1152, Note_on_c, 1, 59, 127
1, 1197, Note_off_c, 1, 76, 0
1, 1197, Note_off_c, 1, 59, 0
1, 1200, Note_on_c, 1, 75, 127
1, 1200, Note_on_c, 1, 47, 127
1, 1223, Note_off_c, 1, 75, 0
1, 1224, Note_on_c, 1, 76, 127
1, 1245, Note_off_c, 1, 47, 0
1, 1247, Note_off_c, 1, 76, 0
1, 1248, Note_on_c, 1, 78, 127
1, 1248, Note_on_c, 1, 59, 127
1, 1271, Note_off_c, 1, 78, 0
1, 1272, Note_on_c, 1, 76, 127
1, 1293, Note_off_c, 1, 59, 0
1, 1295, Note_off_c, 1, 76, 0
1, 1296, Note_on_c, 1, 75, 127
1, 1296, Note_on_c, 1, 61, 127
1, 1319, Note_off_c, 1, 75, 0
1, 1320, Note_on_c, 1, 73, 127
1, 1341, Note_off_c, 1, 61, 0
1, 1343, Note_off_c, 1, 73, 0
1, 1344, Note_on_c, 1, 71, 127
1, 1344, Note_on_c, 1, 63, 127
1, 1389, Note_off_c, 1, 63, 0
1, 1392, Note_on_c, 1, 64, 127
1, 1415, Note_off_c, 1, 64, 0
1, 1416, Note_on_c, 1, 66, 127
1, 1439, Note_off_c, 1, 66, 0
1, 1488, Note_on_c, 1, 61, 127
1, 1511, Note_off_c, 1, 61, 0
1, 1512, Note_on_c, 1, 59, 127
1, 1521, Note_off_c, 1, 71, 0
1, 1535, Note_off_c, 1, 59, 0
1, 1536, Note_on_c, 1, 79, 127
1, 1536, Note_on_c, 1, 64, 127
1, 1581, Note_off_c, 1, 64, 0
1, 1584, Note_on_c, 1, 52, 127
1, 1629, Note_off_c, 1, 52, 0
1, 1632, Note_on_c, 1, 71, 127
1, 1680, Note_on_c, 1, 62, 127
1, 1721, Note_off_c, 1, 71, 0
1, 1725, Note_off_c, 1, 62, 0
1, 1728, Note_on_c, 1, 69, 127
1, 1728, Note_on_c, 1, 60, 127
1, 1773, Note_off_c, 1, 60, 0
1, 1801, Note_off_c, 1, 79, 0
1, 1872, Note_on_c, 1, 59, 127
1, 1895, Note_off_c, 1, 59, 0
1, 1896, Note_on_c, 1, 57, 127
1, 1919, Note_off_c, 1, 57, 0
1, 1920, Note_on_c, 1, 78, 127
1, 1968, Note_on_c, 1, 50, 127
1, 2009, Note_off_c, 1, 69, 0
1, 2013, Note_off_c, 1, 50, 0
1, 2112, Note_on_c, 1, 67, 127
1, 2185, Note_off_c, 1, 78, 0
1, 2280, Note_on_c, 1, 55, 127
1, 2303, Note_off_c, 1, 55, 0
1, 2304, Note_on_c, 1, 76, 127
1, 2352, Note_on_c, 1, 48, 127
1, 2393, Note_off_c, 1, 67, 0
1, 2397, Note_off_c, 1, 48, 0
1, 2496, Note_on_c, 1, 72, 127
1, 2541, Note_off_c, 1, 76, 0
1, 2592, Note_on_c, 1, 81, 127
1, 2592, Note_on_c, 1, 54, 127
1, 2637, Note_off_c, 1, 81, 0
1, 2637, Note_off_c, 1, 54, 0
1, 2640, Note_on_c, 1, 83, 127
1, 2663, Note_off_c, 1, 83, 0
1, 2664, Note_on_c, 1, 84, 127
1, 2673, Note_off_c, 1, 72, 0
1, 2687, Note_off_c, 1, 84, 0
1, 2688, Note_on_c, 1, 76, 127
1, 2688, Note_on_c, 1, 72, 127
1, 2688, Note_on_c, 1, 59, 127
1, 2700, Note_off_c, 1, 76, 0
1, 2700, Note_on_c, 1, 75, 127
1, 2711, Note_off_c, 1, 59, 0
1, 2712, Note_on_c, 1, 47, 127
1, 2735, Note_off_c, 1, 47, 0
1, 2736, Note_on_c, 1, 49, 127
1, 2759, Note_off_c, 1, 49, 0
1, 2760, Note_on_c, 1, 51, 127
1, 2777, Note_off_c, 1, 72, 0
1, 2778, Note_off_c, 1, 75, 0
1, 2783, Note_off_c, 1, 51, 0
1, 2784, Note_on_c, 1, 75, 127
1, 2784, Note_on_c, 1, 71, 127
1, 2784, Note_on_c, 1, 52, 127
1, 2807, Note_off_c, 1, 52, 0
1, 2808, Note_on_c, 1, 54, 127
1, 2831, Note_off_c, 1, 54, 0
1, 2832, Note_on_c, 1, 55, 127
1, 2855, Note_off_c, 1, 55, 0
1, 2856, Note_on_c, 1, 57, 127
1, 2873, Note_off_c, 1, 75, 0
1, 2873, Note_off_c, 1, 71, 0
1, 2879, Note_off_c, 1, 57, 0
1, 2880, Note_on_c, 1, 59, 127
1, 2903, Note_off_c, 1, 59, 0
1, 2904, Note_on_c, 1, 57, 127
1, 2927, Note_off_c, 1, 57, 0
1, 2928, Note_on_c, 1, 59, 127
1, 2951, Note_off_c, 1, 59, 0
1, 2952, Note_on_c, 1, 60, 127
1, 2975, Note_off_c, 1, 60, 0
1, 2976, Note_on_c, 1, 75, 127
1, 2976, Note_on_c, 1, 59, 127
1, 2999, Note_off_c, 1, 59, 0
1, 3000, Note_on_c, 1, 57, 127
1, 3023, Note_off_c, 1, 57, 0
1, 3024, Note_on_c, 1, 55, 127
1, 3047, Note_off_c, 1, 55, 0
1, 3048, Note_on_c, 1, 54, 127
1, 3071, Note_off_c, 1, 54, 0
1, 3072, Note_off_c, 1, 75, 0
1, 3072, Note_on_c, 1, 76, 127
1, 3117, Note_off_c, 1, 76, 0
1, 3120, Note_on_c, 1, 71, 127
1, 3120, Note_on_c, 1, 55, 127
1, 3143, Note_off_c, 1, 55, 0
1, 3144, Note_on_c, 1, 57, 127
1, 3165, Note_off_c, 1, 71, 0
1, 3167, Note_off_c, 1, 57, 0
1, 3168, Note_on_c, 1, 78, 127
1, 3168, Note_on_c, 1, 55, 127
1, 3191, Note_off_c, 1, 55, 0
1, 3192, Note_on_c, 1, 54, 127
1, 3213, Note_off_c, 1, 78, 0
1, 3215, Note_off_c, 1, 54, 0
1, 3216, Note_on_c, 1, 71, 127
1, 3216, Note_on_c, 1, 52, 127
1, 3239, Note_off_c, 1, 52, 0
1, 3240, Note_on_c, 1, 51, 127
1, 3261, Note_off_c, 1, 71, 0
1, 3263, Note_off_c, 1, 51, 0
1, 3264, Note_on_c, 1, 79, 127
1, 3264, Note_on_c, 1, 52, 127
1, 3287, Note_off_c, 1, 52, 0
1, 3288, Note_on_c, 1, 51, 127
1, 3311, Note_off_c, 1, 51, 0
1, 3336, Note_on_c, 1, 54, 127
1, 3359, Note_off_c, 1, 54, 0
1, 3360, Note_on_c, 1, 74, 127
1, 3384, Note_on_c, 1, 50, 127
1, 3407, Note_off_c, 1, 50, 0
1, 3408, Note_on_c, 1, 49, 127
1, 3431, Note_off_c, 1, 49, 0
1, 3432, Note_on_c, 1, 47, 127
1, 3449, Note_off_c, 1, 74, 0
1, 3455, Note_off_c, 1, 47, 0
1, 3456, Note_on_c, 1, 73, 127
1, 3456, Note_on_c, 1, 45, 127
1, 3501, Note_off_c, 1, 73, 0
1, 3501, Note_off_c, 1, 45, 0
1, 3504, Note_on_c, 1, 57, 127
1, 3528, Note_on_c, 1, 76, 127
1, 3549, Note_off_c, 1, 57, 0
1, 3551, Note_off_c, 1, 76, 0
1, 3624, Note_on_c, 1, 78, 127
1, 3633, Note_off_c, 1, 79, 0
1, 3647, Note_off_c, 1, 78, 0
1, 3648, Note_on_c, 1, 79, 127
1, 3648, Note_on_c, 1, 49, 127
1, 3693, Note_off_c, 1, 79, 0
1, 3693, Note_off_c, 1, 49, 0
1, 3696, Note_on_c, 1, 78, 127
1, 3696, Note_on_c, 1, 57, 127
1, 3719, Note_off_c, 1, 78, 0
1, 3720, Note_on_c, 1, 79, 127
1, 3741, Note_off_c, 1, 57, 0
1, 3743, Note_off_c, 1, 79, 0
1, 3744, Note_on_c, 1, 81, 127
1, 3744, Note_on_c, 1, 45, 127
1, 3767, Note_off_c, 1, 81, 0
1, 3768, Note_on_c, 1, 79, 127
1, 3789, Note_off_c, 1, 45, 0
1, 3791, Note_off_c, 1, 79, 0
1, 3792, Note_on_c, 1, 78, 127
1, 3792, Note_on_c, 1, 57, 127
1, 3815, Note_off_c, 1, 78, 0
1, 3816, Note_on_c, 1, 76, 127
1, 3837, Note_off_c, 1, 57, 0
1, 3840, Note_on_c, 1, 50, 127
1, 3885, Note_off_c, 1, 50, 0
1, 3888, Note_on_c, 1, 79, 127
1, 3933, Note_off_c, 1, 79, 0
1, 3936, Note_on_c, 1, 81, 127
1, 3936, Note_on_c, 1, 52, 127
1, 3959, Note_off_c, 1, 81, 0
1, 3981, Note_off_c, 1, 52, 0
1, 4017, Note_off_c, 1, 76, 0
1, 4032, Note_on_c, 1, 76, 127
1, 4032, Note_on_c, 1, 81, 127
1, 4032, Note_on_c, 1, 54, 127
1, 4077, Note_off_c, 1, 76, 0
1, 4077, Note_off_c, 1, 54, 0
1, 4080, Note_on_c, 1, 75, 127
1, 4080, Note_on_c, 1, 57, 127
1, 4103, Note_off_c, 1, 75, 0
1, 4103, Note_off_c, 1, 57, 0
1, 4104, Note_on_c, 1, 55, 127
1, 4127, Note_off_c, 1, 55, 0
1, 4128, Note_on_c, 1, 78, 127
1, 4151, Note_off_c, 1, 78, 0
1, 4200, Note_on_c, 1, 73, 127
1, 4209, Note_off_c, 1, 81, 0
1, 4223, Note_off_c, 1, 73, 0
1, 4224, Note_on_c, 1, 75, 127
1, 4224, Note_on_c, 1, 81, 127
1, 4224, Note_on_c, 1, 47, 127
1, 4269, Note_off_c, 1, 75, 0
1, 4269, Note_off_c, 1, 47, 0
1, 4272, Note_on_c, 1, 76, 127
1, 4272, Note_on_c, 1, 59, 127
1, 4317, Note_off_c, 1, 76, 0
1, 4317, Note_off_c, 1, 59, 0
1, 4320, Note_on_c, 1, 78, 127
1, 4320, Note_on_c, 1, 49, 127
1, 4343, Note_off_c, 1, 78, 0
1, 4365, Note_off_c, 1, 49, 0
1, 4401, Note_off_c, 1, 81, 0
1, 4416, Note_on_c, 1, 81, 127
1, 4416, Note_on_c, 1, 51, 127
1, 4461, Note_off_c, 1, 81, 0
1, 4461, Note_off_c, 1, 51, 0
1, 4464, Note_on_c, 1, 79, 127
1, 4464, Note_on_c, 1, 59, 127
1, 4487, Note_off_c, 1, 79, 0
1, 4488, Note_on_c, 1, 81, 127
1, 4509, Note_off_c, 1, 59, 0
1, 4511, Note_off_c, 1, 81, 0
1, 4512, Note_on_c, 1, 83, 127
1, 4512, Note_on_c, 1, 47, 127
1, 4535, Note_off_c, 1, 83, 0
1, 4536, Note_on_c, 1, 81, 127
1, 4557, Note_off_c, 1, 47, 0
1, 4559, Note_off_c, 1, 81, 0
1, 4560, Note_on_c, 1, 79, 127
1, 4560, Note_on_c, 1, 59, 127
1, 4583, Note_off_c, 1, 79, 0
1, 4584, Note_on_c, 1, 78, 127
1, 4605, Note_off_c, 1, 59, 0
1, 4608, Note_on_c, 1, 52, 127
1, 4631, Note_off_c, 1, 78, 0
1, 4653, Note_off_c, 1, 52, 0
1, 4656, Note_on_c, 1, 76, 127
1, 4656, Note_on_c, 1, 54, 127
1, 4679, Note_off_c, 1, 76, 0
1, 4680, Note_on_c, 1, 75, 127
1, 4701, Note_off_c, 1, 54, 0
1, 4703, Note_off_c, 1, 75, 0
1, 4704, Note_on_c, 1, 76, 127
1, 4704, Note_on_c, 1, 55, 127
1, 4727, Note_off_c, 1, 76, 0
1, 4728, Note_on_c, 1, 74, 127
1, 4749, Note_off_c, 1, 55, 0
1, 4751, Note_off_c, 1, 74, 0
1, 4752, Note_on_c, 1, 73, 127
1, 4752, Note_on_c, 1, 54, 127
1, 4775, Note_off_c, 1, 73, 0
1, 4776, Note_on_c, 1, 71, 127
1, 4797, Note_off_c, 1, 54, 0
1, 4799, Note_off_c, 1, 71, 0
1, 4800, Note_on_c, 1, 74, 127
1, 4800, Note_on_c, 1, 57, 127
1, 4823, Note_off_c, 1, 74, 0
1, 4824, Note_on_c, 1, 73, 127
1, 4845, Note_off_c, 1, 57, 0
1, 4847, Note_off_c, 1, 73, 0
1, 4848, Note_on_c, 1, 71, 127
1, 4848, Note_on_c, 1, 52, 127
1, 4871, Note_off_c, 1, 71, 0
1, 4872, Note_on_c, 1, 69, 127
1, 4893, Note_off_c, 1, 52, 0
1, 4895, Note_off_c, 1, 69, 0
1, 4896, Note_on_c, 1, 81, 127
1, 4896, Note_on_c, 1, 49, 127
1, 4919, Note_off_c, 1, 81, 0
1, 4920, Note_on_c, 1, 79, 127
1, 4941, Note_off_c, 1, 49, 0
1, 4943, Note_off_c, 1, 79, 0
1, 4944, Note_on_c, 1, 78, 127
1, 4944, Note_on_c, 1, 45, 127
1, 4967, Note_off_c, 1, 78, 0
1, 4968, Note_on_c, 1, 76, 127
1, 4989, Note_off_c, 1, 45, 0
1, 4991, Note_off_c, 1, 76, 0
1, 4992, Note_on_c, 1, 78, 127
1, 4992, Note_on_c, 1, 50, 127
1, 5016, Note_on_c, 1, 76, 127
1, 5037, Note_off_c, 1, 78, 0
1, 5037, Note_off_c, 1, 50, 0
1, 5039, Note_off_c, 1, 76, 0
1, 5040, Note_on_c, 1, 74, 127
1, 5040, Note_on_c, 1, 52, 127
1, 5063, Note_off_c, 1, 74, 0
1, 5064, Note_on_c, 1, 73, 127
1, 5085, Note_off_c, 1, 52, 0
1, 5087, Note_off_c, 1, 73, 0
1, 5088, Note_on_c, 1, 74, 127
1, 5088, Note_on_c, 1, 54, 127
1, 5111, Note_off_c, 1, 74, 0
1, 5112, Note_on_c, 1, 72, 127
1, 5133, Note_off_c, 1, 54, 0
1, 5135, Note_off_c, 1, 72, 0
1, 5136, Note_on_c, 1, 71, 127
1, 5136, Note_on_c, 1, 50, 127
1, 5159, Note_off_c, 1, 71, 0
1, 5160, Note_on_c, 1, 69, 127
1, 5181, Note_off_c, 1, 50, 0
1, 5183, Note_off_c, 1, 69, 0
1, 5184, Note_on_c, 1, 72, 127
1, 5184, Note_on_c, 1, 55, 127
1, 5207, Note_off_c, 1, 72, 0
1, 5208, Note_on_c, 1, 71, 127
1, 5229, Note_off_c, 1, 55, 0
1, 5231, Note_off_c, 1, 71, 0
1, 5232, Note_on_c, 1, 69, 127
1, 5232, Note_on_c, 1, 50, 127
1, 5255, Note_off_c, 1, 69, 0
1, 5256, Note_on_c, 1, 67, 127
1, 5277, Note_off_c, 1, 50, 0
1, 5279, Note_off_c, 1, 67, 0
1, 5280, Note_on_c, 1, 79, 127
1, 5280, Note_on_c, 1, 47, 127
1, 5303, Note_off_c, 1, 79, 0
1, 5304, Note_on_c, 1, 78, 127
1, 5325, Note_off_c, 1, 47, 0
1, 5327, Note_off_c, 1, 78, 0
1, 5328, Note_on_c, 1, 76, 127
1, 5328, Note_on_c, 1, 43, 127
1, 5351, Note_off_c, 1, 76, 0
1, 5352, Note_on_c, 1, 74, 127
1, 5373, Note_off_c, 1, 43, 0
1, 5375, Note_off_c, 1, 74, 0
1, 5376, Note_on_c, 1, 76, 127
1, 5376, Note_on_c, 1, 48, 127
1, 5400, Note_on_c, 1, 72, 127
1, 5421, Note_off_c, 1, 48, 0
1, 5423, Note_off_c, 1, 72, 0
1, 5424, Note_on_c, 1, 71, 127
1, 5424, Note_on_c, 1, 52, 127
1, 5447, Note_off_c, 1, 71, 0
1, 5465, Note_off_c, 1, 76, 0
1, 5469, Note_off_c, 1, 52, 0
1, 5472, Note_on_c, 1, 74, 127
1, 5472, Note_on_c, 1, 57, 127
1, 5484, Note_off_c, 1, 57, 0
1, 5484, Note_on_c, 1, 59, 127
1, 5495, Note_off_c, 1, 74, 0
1, 5496, Note_off_c, 1, 59, 0
1, 5496, Note_on_c, 1, 72, 127
1, 5519, Note_off_c, 1, 72, 0
1, 5520, Note_on_c, 1, 71, 127
1, 5543, Note_off_c, 1, 71, 0
1, 5568, Note_on_c, 1, 78, 127
1, 5568, Note_on_c, 1, 50, 127
1, 5592, Note_on_c, 1, 72, 127
1, 5613, Note_off_c, 1, 50, 0
1, 5615, Note_off_c, 1, 72, 0
1, 5616, Note_on_c, 1, 71, 127
1, 5616, Note_on_c, 1, 54, 127
1, 5639, Note_off_c, 1, 71, 0
1, 5657, Note_off_c, 1, 78, 0
1, 5661, Note_off_c, 1, 54, 0
1, 5664, Note_on_c, 1, 74, 127
1, 5664, Note_on_c, 1, 59, 127
1, 5676, Note_off_c, 1, 59, 0
1, 5676, Note_on_c, 1, 60, 127
1, 5687, Note_off_c, 1, 74, 0
1, 5688, Note_off_c, 1, 60, 0
1, 5688, Note_on_c, 1, 72, 127
1, 5711, Note_off_c, 1, 72, 0
1, 5712, Note_on_c, 1, 71, 127
1, 5735, Note_off_c, 1, 71, 0
1, 5760, Note_on_c, 1, 79, 127
1, 5760, Note_on_c, 1, 52, 127
1, 5784, Note_on_c, 1, 72, 127
1, 5805, Note_off_c, 1, 52, 0
1, 5807, Note_off_c, 1, 72, 0
1, 5808, Note_on_c, 1, 71, 127
1, 5808, Note_on_c, 1, 55, 127
1, 5831, Note_off_c, 1, 71, 0
1, 5849, Note_off_c, 1, 79, 0
1, 5853, Note_off_c, 1, 55, 0
1, 5856, Note_on_c, 1, 74, 127
1, 5856, Note_on_c, 1, 60, 127
1, 5868, Note_off_c, 1, 60, 0
1, 5868, Note_on_c, 1, 62, 127
1, 5879, Note_off_c, 1, 74, 0
1, 5880, Note_off_c, 1, 62, 0
1, 5880, Note_on_c, 1, 72, 127
1, 5903, Note_off_c, 1, 72, 0
1, 5904, Note_on_c, 1, 71, 127
1, 5927, Note_off_c, 1, 71, 0
1, 5952, Note_on_c, 1, 81, 127
1, 5952, Note_on_c, 1, 54, 127
1, 5976, Note_on_c, 1, 72, 127
1, 5997, Note_off_c, 1, 54, 0
1, 5999, Note_off_c, 1, 72, 0
1, 6000, Note_on_c, 1, 71, 127
1, 6000, Note_on_c, 1, 57, 127
1, 6023, Note_off_c, 1, 71, 0
1, 6041, Note_off_c, 1, 81, 0
1, 6045, Note_off_c, 1, 57, 0
1, 6048, Note_on_c, 1, 74, 127
1, 6048, Note_on_c, 1, 54, 127
1, 6071, Note_off_c, 1, 74, 0
1, 6072, Note_on_c, 1, 72, 127
1, 6093, Note_off_c, 1, 54, 0
1, 6095, Note_off_c, 1, 72, 0
1, 6096, Note_on_c, 1, 71, 127
1, 6096, Note_on_c, 1, 50, 127
1, 6119, Note_off_c, 1, 71, 0
1, 6120, Note_on_c, 1, 69, 127
1, 6141, Note_off_c, 1, 50, 0
1, 6143, Note_off_c, 1, 69, 0
1, 6144, Note_on_c, 1, 74, 127
1, 6144, Note_on_c, 1, 43, 127
1, 6156, Note_off_c, 1, 74, 0
1, 6156, Note_on_c, 1, 76, 127
1, 6167, Note_off_c, 1, 43, 0
1, 6168, Note_off_c, 1, 76, 0
1, 6168, Note_on_c, 1, 55, 127
1, 6191, Note_off_c, 1, 55, 0
1, 6192, Note_on_c, 1, 54, 127
1, 6215, Note_off_c, 1, 54, 0
1, 6240, Note_on_c, 1, 67, 127
1, 6240, Note_on_c, 1, 57, 127
1, 6263, Note_off_c, 1, 57, 0
1, 6264, Note_on_c, 1, 55, 127
1, 6287, Note_off_c, 1, 55, 0
1, 6288, Note_on_c, 1, 54, 127
1, 6307, Note_off_c, 1, 67, 0
1, 6311, Note_off_c, 1, 54, 0
1, 6312, Note_on_c, 1, 69, 127
1, 6312, Note_on_c, 1, 55, 127
1, 6335, Note_off_c, 1, 69, 0
1, 6335, Note_off_c, 1, 55, 0
1, 6336, Note_on_c, 1, 72, 127
1, 6336, Note_on_c, 1, 45, 127
1, 6348, Note_off_c, 1, 72, 0
1, 6348, Note_on_c, 1, 74, 127
1, 6359, Note_off_c, 1, 45, 0
1, 6360, Note_off_c, 1, 74, 0
1, 6360, Note_on_c, 1, 55, 127
1, 6383, Note_off_c, 1, 55, 0
1, 6384, Note_on_c, 1, 54, 127
1, 6407, Note_off_c, 1, 54, 0
1, 6432, Note_on_c, 1, 67, 127
1, 6432, Note_on_c, 1, 57, 127
1, 6455, Note_off_c, 1, 57, 0
1, 6456, Note_on_c, 1, 55, 127
1, 6479, Note_off_c, 1, 55, 0
1, 6480, Note_on_c, 1, 54, 127
1, 6499, Note_off_c, 1, 67, 0
1, 6503, Note_off_c, 1, 54, 0
1, 6504, Note_on_c, 1, 72, 127
1, 6504, Note_on_c, 1, 55, 127
1, 6527, Note_off_c, 1, 72, 0
1, 6527, Note_off_c, 1, 55, 0
1, 6528, Note_on_c, 1, 74, 127
1, 6528, Note_on_c, 1, 47, 127
1, 6540, Note_off_c, 1, 74, 0
1, 6540, Note_on_c, 1, 76, 127
1, 6551, Note_off_c, 1, 47, 0
1, 6552, Note_off_c, 1, 76, 0
1, 6552, Note_on_c, 1, 55, 127
1, 6575, Note_off_c, 1, 55, 0
1, 6576, Note_on_c, 1, 54, 127
1, 6599, Note_off_c, 1, 54, 0
1, 6624, Note_on_c, 1, 67, 127
1, 6624, Note_on_c, 1, 57, 127
1, 6647, Note_off_c, 1, 57, 0
1, 6648, Note_on_c, 1, 55, 127
1, 6671, Note_off_c, 1, 55, 0
1, 6672, Note_on_c, 1, 54, 127
1, 6691, Note_off_c, 1, 67, 0
1, 6695, Note_off_c, 1, 54, 0
1, 6696, Note_on_c, 1, 74, 127
1, 6696, Note_on_c, 1, 55, 127
1, 6719, Note_off_c, 1, 74, 0
1, 6719, Note_off_c, 1, 55, 0
1, 6720, Note_on_c, 1, 76, 127
1, 6720, Note_on_c, 1, 48, 127
1, 6743, Note_off_c, 1, 48, 0
1, 6744, Note_on_c, 1, 55, 127
1, 6767, Note_off_c, 1, 55, 0
1, 6768, Note_on_c, 1, 54, 127
1, 6791, Note_off_c, 1, 54, 0
1, 6792, Note_on_c, 1, 74, 127
1, 6815, Note_off_c, 1, 74, 0
1, 6816, Note_on_c, 1, 72, 127
1, 6816, Note_on_c, 1, 57, 127
1, 6839, Note_off_c, 1, 72, 0
1, 6839, Note_off_c, 1, 57, 0
1, 6840, Note_on_c, 1, 71, 127
1, 6863, Note_off_c, 1, 71, 0
1, 6864, Note_on_c, 1, 69, 127
1, 6887, Note_off_c, 1, 69, 0
1, 6888, Note_on_c, 1, 67, 127
1, 6911, Note_off_c, 1, 67, 0
1, 6912, Note_on_c, 1, 66, 127
1, 6912, Note_on_c, 1, 50, 127
1, 6935, Note_off_c, 1, 76, 0
1, 7001, Note_off_c, 1, 66, 0
1, 7008, Note_on_c, 1, 59, 127
1, 7089, Note_off_c, 1, 50, 0
1, 7097, Note_off_c, 1, 59, 0
1, 7104, Note_on_c, 1, 64, 127
1, 7104, Note_on_c, 1, 50, 127
1, 7128, Note_on_c, 1, 74, 127
1, 7151, Note_off_c, 1, 74, 0
1, 7152, Note_on_c, 1, 72, 127
1, 7175, Note_off_c, 1, 72, 0
1, 7176, Note_on_c, 1, 71, 127
1, 7193, Note_off_c, 1, 64, 0
1, 7199, Note_off_c, 1, 71, 0
1, 7200, Note_on_c, 1, 57, 127
1, 7248, Note_on_c, 1, 69, 127
1, 7271, Note_off_c, 1, 69, 0
1, 7272, Note_on_c, 1, 67, 127
1, 7281, Note_off_c, 1, 50, 0
1, 7289, Note_off_c, 1, 57, 0
1, 7295, Note_off_c, 1, 67, 0
1, 7296, Note_on_c, 1, 62, 127
1, 7296, Note_on_c, 1, 54, 127
1, 7320, Note_on_c, 1, 72, 127
1, 7343, Note_off_c, 1, 72, 0
1, 7344, Note_on_c, 1, 71, 127
1, 7367, Note_off_c, 1, 71, 0
1, 7368, Note_on_c, 1, 69, 127
1, 7385, Note_off_c, 1, 62, 0
1, 7385, Note_off_c, 1, 54, 0
1, 7391, Note_off_c, 1, 69, 0
1, 7392, Note_on_c, 1, 71, 127
1, 7392, Note_on_c, 1, 55, 127
1, 7415, Note_off_c, 1, 71, 0
1, 7416, Note_on_c, 1, 69, 127
1, 7439, Note_off_c, 1, 69, 0
1, 7440, Note_on_c, 1, 67, 127
1, 7463, Note_off_c, 1, 67, 0
1, 7464, Note_on_c, 1, 66, 127
1, 7481, Note_off_c, 1, 55, 0
1, 7487, Note_off_c, 1, 66, 0
1, 7488, Note_on_c, 1, 61, 127
1, 7488, Note_on_c, 1, 52, 127
1, 7512, Note_on_c, 1, 71, 127
1, 7535, Note_off_c, 1, 71, 0
1, 7536, Note_on_c, 1, 69, 127
1, 7559, Note_off_c, 1, 69, 0
1, 7560, Note_on_c, 1, 67, 127
1, 7577, Note_off_c, 1, 52, 0
1, 7583, Note_off_c, 1, 67, 0
1, 7584, Note_on_c, 1, 55, 127
1, 7632, Note_on_c, 1, 66, 127
1, 7655, Note_off_c, 1, 66, 0
1, 7656, Note_on_c, 1, 64, 127
1, 7665, Note_off_c, 1, 61, 0
1, 7673, Note_off_c, 1, 55, 0
1, 7679, Note_off_c, 1, 64, 0
1, 7680, Note_on_c, 1, 66, 127
1, 7680, Note_on_c, 1, 62, 127
1, 7680, Note_on_c, 1, 50, 127
1, 7680, Note_on_c, 1, 57, 127
1, 7703, Note_off_c, 1, 66, 0
1, 7704, Note_on_c, 1, 64, 127
1, 7725, Note_off_c, 1, 62, 0
1, 7725, Note_off_c, 1, 50, 0
1, 7727, Note_off_c, 1, 64, 0
1, 7728, Note_on_c, 1, 54, 127
1, 7773, Note_off_c, 1, 54, 0
1, 7776, Note_off_c, 1, 57, 0
1, 7776, Note_on_c, 1, 45, 127
1, 7821, Note_off_c, 1, 45, 0
1, 7824, Note_on_c, 1, 66, 127
1, 7824, Note_on_c, 1, 50, 127
1, 7847, Note_off_c, 1, 66, 0
1, 7848, Note_on_c, 1, 67, 127
1, 7869, Note_off_c, 1, 50, 0
1, 7871, Note_off_c, 1, 67, 0
1, 7872, Note_on_c, 1, 69, 127
1, 7872, Note_on_c, 1, 42, 127
1, 7895, Note_off_c, 1, 69, 0
1, 7896, Note_on_c, 1, 67, 127
1, 7917, Note_off_c, 1, 42, 0
1, 7919, Note_off_c, 1, 67, 0
1, 7920, Note_on_c, 1, 66, 127
1, 7920, Note_on_c, 1, 50, 127
1, 7965, Note_off_c, 1, 50, 0
1, 7968, Note_on_c, 1, 45, 127
1, 7991, Note_off_c, 1, 66, 0
1, 7992, Note_on_c, 1, 67, 127
1, 8013, Note_off_c, 1, 45, 0
1, 8015, Note_off_c, 1, 67, 0
1, 8016, Note_on_c, 1, 69, 127
1, 8016, Note_on_c, 1, 42, 127
1, 8039, Note_off_c, 1, 69, 0
1, 8040, Note_on_c, 1, 71, 127
1, 8061, Note_off_c, 1, 42, 0
1, 8063, Note_off_c, 1, 71, 0
1, 8064, Note_on_c, 1, 72, 127
1, 8064, Note_on_c, 1, 38, 127
1, 8087, Note_off_c, 1, 72, 0
1, 8088, Note_on_c, 1, 71, 127
1, 8109, Note_off_c, 1, 38, 0
1, 8111, Note_off_c, 1, 71, 0
1, 8112, Note_on_c, 1, 69, 127
1, 8112, Note_on_c, 1, 42, 127
1, 8135, Note_off_c, 1, 69, 0
1, 8136, Note_on_c, 1, 71, 127
1, 8157, Note_off_c, 1, 42, 0
1, 8159, Note_off_c, 1, 71, 0
1, 8160, Note_on_c, 1, 72, 127
1, 8160, Note_on_c, 1, 45, 127
1, 8183, Note_off_c, 1, 72, 0
1, 8184, Note_on_c, 1, 74, 127
1, 8205, Note_off_c, 1, 45, 0
1, 8207, Note_off_c, 1, 74, 0
1, 8208, Note_on_c, 1, 76, 127
1, 8208, Note_on_c, 1, 50, 127
1, 8231, Note_off_c, 1, 76, 0
1, 8232, Note_on_c, 1, 78, 127
1, 8253, Note_off_c, 1, 50, 0
1, 8255, Note_off_c, 1, 78, 0
1, 8256, Note_on_c, 1, 79, 127
1, 8256, Note_on_c, 1, 52, 127
1, 8279, Note_off_c, 1, 79, 0
1, 8280, Note_on_c, 1, 78, 127
1, 8301, Note_off_c, 1, 52, 0
1, 8303, Note_off_c, 1, 78, 0
1, 8304, Note_on_c, 1, 81, 127
1, 8304, Note_on_c, 1, 48, 127
1, 8327, Note_off_c, 1, 81, 0
1, 8328, Note_on_c, 1, 79, 127
1, 8349, Note_off_c, 1, 48, 0
1, 8351, Note_off_c, 1, 79, 0
1, 8352, Note_on_c, 1, 78, 127
1, 8352, Note_on_c, 1, 45, 127
1, 8375, Note_off_c, 1, 78, 0
1, 8376, Note_on_c, 1, 76, 127
1, 8397, Note_off_c, 1, 45, 0
1, 8399, Note_off_c, 1, 76, 0
1, 8400, Note_on_c, 1, 74, 127
1, 8400, Note_on_c, 1, 50, 127
1, 8423, Note_off_c, 1, 74, 0
1, 8424, Note_on_c, 1, 72, 127
1, 8445, Note_off_c, 1, 50, 0
1, 8447, Note_off_c, 1, 72, 0
1, 8448, Note_on_c, 1, 71, 127
1, 8448, Note_on_c, 1, 55, 127
1, 8493, Note_off_c, 1, 71, 0
1, 8493, Note_off_c, 1, 55, 0
1, 8496, Note_on_c, 1, 72, 127
1, 8496, Note_on_c, 1, 59, 127
1, 8519, Note_off_c, 1, 72, 0
1, 8520, Note_on_c, 1, 74, 127
1, 8541, Note_off_c, 1, 59, 0
1, 8543, Note_off_c, 1, 74, 0
1, 8544, Note_on_c, 1, 72, 127
1, 8544, Note_on_c, 1, 52, 127
1, 8567, Note_off_c, 1, 72, 0
1, 8568, Note_on_c, 1, 71, 127
1, 8589, Note_off_c, 1, 52, 0
1, 8591, Note_off_c, 1, 71, 0
1, 8592, Note_on_c, 1, 69, 127
1, 8592, Note_on_c, 1, 55, 127
1, 8615, Note_off_c, 1, 69, 0
1, 8616, Note_on_c, 1, 67, 127
1, 8637, Note_off_c, 1, 55, 0
1, 8639, Note_off_c, 1, 67, 0
1, 8640, Note_on_c, 1, 71, 127
1, 8640, Note_on_c, 1, 48, 127
1, 8688, Note_on_c, 1, 62, 127
1, 8729, Note_off_c, 1, 71, 0
1, 8729, Note_off_c, 1, 48, 0
1, 8736, Note_on_c, 1, 69, 127
1, 8736, Note_on_c, 1, 50, 127
1, 8777, Note_off_c, 1, 62, 0
1, 8784, Note_on_c, 1, 60, 127
1, 8825, Note_off_c, 1, 69, 0
1, 8825, Note_off_c, 1, 50, 0
1, 8829, Note_off_c, 1, 60, 0
1, 8832, Note_on_c, 1, 59, 127
1, 8832, Note_on_c, 1, 55, 127
1, 8855, Note_off_c, 1, 59, 0
1, 8856, Note_on_c, 1, 67, 127
1, 8879, Note_off_c, 1, 67, 0
1, 8880, Note_on_c, 1, 66, 127
1, 8903, Note_off_c, 1, 66, 0
1, 8904, Note_on_c, 1, 64, 127
1, 8927, Note_off_c, 1, 64, 0
1, 8928, Note_on_c, 1, 62, 127
1, 8951, Note_off_c, 1, 62, 0
1, 8952, Note_on_c, 1, 60, 127
1, 8975, Note_off_c, 1, 60, 0
1, 9000, Note_on_c, 1, 57, 127
1, 9009, Note_off_c, 1, 55, 0
1, 9023, Note_off_c, 1, 57, 0
1, 9024, Note_on_c, 1, 55, 127
1, 9048, Note_on_c, 1, 50, 127
1, 9071, Note_off_c, 1, 50, 0
1, 9072, Note_on_c, 1, 47, 127
1, 9095, Note_off_c, 1, 47, 0
1, 9113, Note_off_c, 1, 55, 0
1, 9120, Note_on_c, 1, 43, 127
1, 9209, Note_off_c, 1, 43, 0
1, 9216, Note_on_c, 1, 67, 127
1, 9216, Note_on_c, 1, 64, 127
1, 9216, Note_on_c, 1, 40, 127
1, 9261, Note_off_c, 1, 67, 0
1, 9261, Note_off_c, 1, 64, 0
1, 9261, Note_off_c, 1, 40, 0
1, 9264, Note_on_c, 1, 69, 127
1, 9264, Note_on_c, 1, 52, 127
1, 9309, Note_off_c, 1, 69, 0
1, 9309, Note_off_c, 1, 52, 0
1, 9312, Note_on_c, 1, 71, 127
1, 9312, Note_on_c, 1, 42, 127
1, 9335, Note_off_c, 1, 71, 0
1, 9336, Note_on_c, 1, 69, 127
1, 9357, Note_off_c, 1, 42, 0
1, 9359, Note_off_c, 1, 69, 0
1, 9360, Note_on_c, 1, 67, 127
1, 9360, Note_on_c, 1, 51, 127
1, 9383, Note_off_c, 1, 67, 0
1, 9384, Note_on_c, 1, 69, 127
1, 9405, Note_off_c, 1, 51, 0
1, 9407, Note_off_c, 1, 69, 0
1, 9408, Note_on_c, 1, 71, 127
1, 9408, Note_on_c, 1, 43, 127
1, 9453, Note_off_c, 1, 43, 0
1, 9456, Note_on_c, 1, 52, 127
1, 9497, Note_off_c, 1, 71, 0
1, 9501, Note_off_c, 1, 52, 0
1, 9504, Note_on_c, 1, 64, 127
1, 9504, Note_on_c, 1, 60, 127
1, 9504, Note_on_c, 1, 45, 127
1, 9549, Note_off_c, 1, 45, 0
1, 9552, Note_on_c, 1, 55, 127
1, 9593, Note_off_c, 1, 64, 0
1, 9593, Note_off_c, 1, 60, 0
1, 9597, Note_off_c, 1, 55, 0
1, 9600, Note_on_c, 1, 64, 127
1, 9600, Note_on_c, 1, 60, 127
1, 9600, Note_on_c, 1, 47, 127
1, 9645, Note_off_c, 1, 64, 0
1, 9645, Note_off_c, 1, 60, 0
1, 9645, Note_off_c, 1, 47, 0
1, 9648, Note_on_c, 1, 63, 127
1, 9648, Note_on_c, 1, 54, 127
1, 9671, Note_off_c, 1, 63, 0
1, 9672, Note_on_c, 1, 64, 127
1, 9693, Note_off_c, 1, 54, 0
1, 9695, Note_off_c, 1, 64, 0
1, 9696, Note_on_c, 1, 66, 127
1, 9696, Note_on_c, 1, 49, 127
1, 9719, Note_off_c, 1, 66, 0
1, 9720, Note_on_c, 1, 64, 127
1, 9741, Note_off_c, 1, 49, 0
1, 9743, Note_off_c, 1, 64, 0
1, 9744, Note_on_c, 1, 63, 127
1, 9744, Note_on_c, 1, 54, 127
1, 9767, Note_off_c, 1, 63, 0
1, 9768, Note_on_c, 1, 61, 127
1, 9789, Note_off_c, 1, 54, 0
1, 9791, Note_off_c, 1, 61, 0
1, 9792, Note_on_c, 1, 59, 127
1, 9792, Note_on_c, 1, 51, 127
1, 9837, Note_off_c, 1, 59, 0
1, 9837, Note_off_c, 1, 51, 0
1, 9840, Note_on_c, 1, 63, 127
1, 9840, Note_on_c, 1, 52, 127
1, 9863, Note_off_c, 1, 52, 0
1, 9864, Note_on_c, 1, 54, 127
1, 9885, Note_off_c, 1, 63, 0
1, 9887, Note_off_c, 1, 54, 0
1, 9888, Note_on_c, 1, 66, 127
1, 9888, Note_on_c, 1, 52, 127
1, 9911, Note_off_c, 1, 52, 0
1, 9912, Note_on_c, 1, 51, 127
1, 9933, Note_off_c, 1, 66, 0
1, 9935, Note_off_c, 1, 51, 0
1, 9936, Note_on_c, 1, 69, 127
1, 9936, Note_on_c, 1, 49, 127
1, 9959, Note_off_c, 1, 49, 0
1, 9960, Note_on_c, 1, 47, 127
1, 9983, Note_off_c, 1, 47, 0
1, 9984, Note_on_c, 1, 52, 127
1, 10029, Note_off_c, 1, 69, 0
1, 10029, Note_off_c, 1, 52, 0
1, 10032, Note_on_c, 1, 67, 127
1, 10032, Note_on_c, 1, 47, 127
1, 10055, Note_off_c, 1, 67, 0
1, 10056, Note_on_c, 1, 69, 127
1, 10077, Note_off_c, 1, 47, 0
1, 10079, Note_off_c, 1, 69, 0
1, 10080, Note_on_c, 1, 71, 127
1, 10080, Note_on_c, 1, 54, 127
1, 10103, Note_off_c, 1, 71, 0
1, 10104, Note_on_c, 1, 69, 127
1, 10125, Note_off_c, 1, 54, 0
1, 10127, Note_off_c, 1, 69, 0
1, 10128, Note_on_c, 1, 67, 127
1, 10128, Note_on_c, 1, 47, 127
1, 10151, Note_off_c, 1, 67, 0
1, 10152, Note_on_c, 1, 66, 127
1, 10173, Note_off_c, 1, 47, 0
1, 10175, Note_off_c, 1, 66, 0
1, 10176, Note_on_c, 1, 64, 127
1, 10176, Note_on_c, 1, 55, 127
1, 10221, Note_off_c, 1, 64, 0
1, 10221, Note_off_c, 1, 55, 0
1, 10224, Note_on_c, 1, 67, 127
1, 10224, Note_on_c, 1, 57, 127
1, 10247, Note_off_c, 1, 57, 0
1, 10248, Note_on_c, 1, 59, 127
1, 10269, Note_off_c, 1, 67, 0
1, 10271, Note_off_c, 1, 59, 0
1, 10272, Note_on_c, 1, 71, 127
1, 10272, Note_on_c, 1, 57, 127
1, 10295, Note_off_c, 1, 57, 0
1, 10296, Note_on_c, 1, 55, 127
1, 10317, Note_off_c, 1, 71, 0
1, 10319, Note_off_c, 1, 55, 0
1, 10320, Note_on_c, 1, 76, 127
1, 10320, Note_on_c, 1, 54, 127
1, 10343, Note_off_c, 1, 54, 0
1, 10344, Note_on_c, 1, 52, 127
1, 10367, Note_off_c, 1, 52, 0
1, 10368, Note_on_c, 1, 59, 127
1, 10413, Note_off_c, 1, 76, 0
1, 10413, Note_off_c, 1, 59, 0
1, 10416, Note_on_c, 1, 75, 127
1, 10416, Note_on_c, 1, 47, 127
1, 10439, Note_off_c, 1, 75, 0
1, 10440, Note_on_c, 1, 76, 127
1, 10461, Note_off_c, 1, 47, 0
1, 10463, Note_off_c, 1, 76, 0
1, 10464, Note_on_c, 1, 78, 127
1, 10464, Note_on_c, 1, 59, 127
1, 10487, Note_off_c, 1, 78, 0
1, 10488, Note_on_c, 1, 76, 127
1, 10509, Note_off_c, 1, 59, 0
1, 10511, Note_off_c, 1, 76, 0
1, 10512, Note_on_c, 1, 75, 127
1, 10512, Note_on_c, 1, 61, 127
1, 10535, Note_off_c, 1, 75, 0
1, 10536, Note_on_c, 1, 73, 127
1, 10557, Note_off_c, 1, 61, 0
1, 10559, Note_off_c, 1, 73, 0
1, 10560, Note_on_c, 1, 71, 127
1, 10560, Note_on_c, 1, 63, 127
1, 10605, Note_off_c, 1, 63, 0
1, 10608, Note_on_c, 1, 64, 127
1, 10631, Note_off_c, 1, 64, 0
1, 10632, Note_on_c, 1, 66, 127
1, 10655, Note_off_c, 1, 66, 0
1, 10704, Note_on_c, 1, 61, 127
1, 10727, Note_off_c, 1, 61, 0
1, 10728, Note_on_c, 1, 59, 127
1, 10737, Note_off_c, 1, 71, 0
1, 10751, Note_off_c, 1, 59, 0
1, 10752, Note_on_c, 1, 79, 127
1, 10752, Note_on_c, 1, 64, 127
1, 10797, Note_off_c, 1, 64, 0
1, 10800, Note_on_c, 1, 52, 127
1, 10845, Note_off_c, 1, 52, 0
1, 10848, Note_on_c, 1, 71, 127
1, 10896, Note_on_c, 1, 62, 127
1, 10937, Note_off_c, 1, 71, 0
1, 10941, Note_off_c, 1, 62, 0
1, 10944, Note_on_c, 1, 69, 127
1, 10944, Note_on_c, 1, 60, 127
1, 10989, Note_off_c, 1, 60, 0
1, 11017, Note_off_c, 1, 79, 0
1, 11088, Note_on_c, 1, 59, 127
1, 11111, Note_off_c, 1, 59, 0
1, 11112, Note_on_c, 1, 57, 127
1, 11135, Note_off_c, 1, 57, 0
1, 11136, Note_on_c, 1, 78, 127
1, 11184, Note_on_c, 1, 50, 127
1, 11225, Note_off_c, 1, 69, 0
1, 11229, Note_off_c, 1, 50, 0
1, 11328, Note_on_c, 1, 67, 127
1, 11401, Note_off_c, 1, 78, 0
1, 11496, Note_on_c, 1, 55, 127
1, 11519, Note_off_c, 1, 55, 0
1, 11520, Note_on_c, 1, 76, 127
1, 11568, Note_on_c, 1, 48, 127
1, 11609, Note_off_c, 1, 67, 0
1, 11613, Note_off_c, 1, 48, 0
1, 11712, Note_on_c, 1, 72, 127
1, 11757, Note_off_c, 1, 76, 0
1, 11808, Note_on_c, 1, 81, 127
1, 11808, Note_on_c, 1, 54, 127
1, 11853, Note_off_c, 1, 81, 0
1, 11853, Note_off_c, 1, 54, 0
1, 11856, Note_on_c, 1, 83, 127
1, 11879, Note_off_c, 1, 83, 0
1, 11880, Note_on_c, 1, 84, 127
1, 11889, Note_off_c, 1, 72, 0
1, 11903, Note_off_c, 1, 84, 0
1, 11904, Note_on_c, 1, 76, 127
1, 11904, Note_on_c, 1, 72, 127
1, 11904, Note_on_c, 1, 59, 127
1, 11916, Note_off_c, 1, 76, 0
1, 11916, Note_on_c, 1, 75, 127
1, 11927, Note_off_c, 1, 59, 0
1, 11928, Note_on_c, 1, 47, 127
1, 11951, Note_off_c, 1, 47, 0
1, 11952, Note_on_c, 1, 49, 127
1, 11975, Note_off_c, 1, 49, 0
1, 11976, Note_on_c, 1, 51, 127
1, 11993, Note_off_c, 1, 72, 0
1, 11994, Note_off_c, 1, 75, 0
1, 11999, Note_off_c, 1, 51, 0
1, 12000, Note_on_c, 1, 75, 127
1, 12000, Note_on_c, 1, 71, 127
1, 12000, Note_on_c, 1, 52, 127
1, 12023, Note_off_c, 1, 52, 0
1, 12024, Note_on_c, 1, 54, 127
1, 12047, Note_off_c, 1, 54, 0
1, 12048, Note_on_c, 1, 55, 127
1, 12071, Note_off_c, 1, 55, 0
1, 12072, Note_on_c, 1, 57, 127
1, 12089, Note_off_c, 1, 75, 0
1, 12089, Note_off_c, 1, 71, 0
1, 12095, Note_off_c, 1, 57, 0
1, 12096, Note_on_c, 1, 59, 127
1, 12119, Note_off_c, 1, 59, 0
1, 12120, Note_on_c, 1, 57, 127
1, 12143, Note_off_c, 1, 57, 0
1, 12144, Note_on_c, 1, 59, 127
1, 12167, Note_off_c, 1, 59, 0
1, 12168, Note_on_c, 1, 60, 127
1, 12191, Note_off_c, 1, 60, 0
1, 12192, Note_on_c, 1, 75, 127
1, 12192, Note_on_c, 1, 59, 127
1, 12215, Note_off_c, 1, 59, 0
1, 12216, Note_on_c, 1, 57, 127
1, 12239, Note_off_c, 1, 57, 0
1, 12240, Note_on_c, 1, 55, 127
1, 12263, Note_off_c, 1, 55, 0
1, 12264, Note_on_c, 1, 54, 127
1, 12287, Note_off_c, 1, 54, 0
1, 12288, Note_off_c, 1, 75, 0
1, 12288, Note_on_c, 1, 76, 127
1, 12333, Note_off_c, 1, 76, 0
1, 12336, Note_on_c, 1, 71, 127
1, 12336, Note_on_c, 1, 55, 127
1, 12359, Note_off_c, 1, 55, 0
1, 12360, Note_on_c, 1, 57, 127
1, 12381, Note_off_c, 1, 71, 0
1, 12383, Note_off_c, 1, 57, 0
1, 12384, Note_on_c, 1, 78, 127
1, 12384, Note_on_c, 1, 55, 127
1, 12407, Note_off_c, 1, 55, 0
1, 12408, Note_on_c, 1, 54, 127
1, 12429, Note_off_c, 1, 78, 0
1, 12431, Note_off_c, 1, 54, 0
1, 12432, Note_on_c, 1, 71, 127
1, 12432, Note_on_c, 1, 52, 127
1, 12455, Note_off_c, 1, 52, 0
1, 12456, Note_on_c, 1, 51, 127
1, 12477, Note_off_c, 1, 71, 0
1, 12479, Note_off_c, 1, 51, 0
1, 12480, Note_on_c, 1, 79, 127
1, 12480, Note_on_c, 1, 52, 127
1, 12503, Note_off_c, 1, 52, 0
1, 12504, Note_on_c, 1, 51, 127
1, 12527, Note_off_c, 1, 51, 0
1, 12552, Note_on_c, 1, 54, 127
1, 12575, Note_off_c, 1, 54, 0
1, 12576, Note_on_c, 1, 74, 127
1, 12600, Note_on_c, 1, 50, 127
1, 12623, Note_off_c, 1, 50, 0
1, 12624, Note_on_c, 1, 49, 127
1, 12647, Note_off_c, 1, 49, 0
1, 12648, Note_on_c, 1, 47, 127
1, 12665, Note_off_c, 1, 74, 0
1, 12671, Note_off_c, 1, 47, 0
1, 12672, Note_on_c, 1, 73, 127
1, 12672, Note_on_c, 1, 45, 127
1, 12717, Note_off_c, 1, 73, 0
1, 12717, Note_off_c, 1, 45, 0
1, 12720, Note_on_c, 1, 57, 127
1, 12744, Note_on_c, 1, 76, 127
1, 12765, Note_off_c, 1, 57, 0
1, 12767, Note_off_c, 1, 76, 0
1, 12840, Note_on_c, 1, 78, 127
1, 12849, Note_off_c, 1, 79, 0
1, 12863, Note_off_c, 1, 78, 0
1, 12864, Note_on_c, 1, 79, 127
1, 12864, Note_on_c, 1, 49, 127
1, 12909, Note_off_c, 1, 79, 0
1, 12909, Note_off_c, 1, 49, 0
1, 12912, Note_on_c, 1, 78, 127
1, 12912, Note_on_c, 1, 57, 127
1, 12935, Note_off_c, 1, 78, 0
1, 12936, Note_on_c, 1, 79, 127
1, 12957, Note_off_c, 1, 57, 0
1, 12959, Note_off_c, 1, 79, 0
1, 12960, Note_on_c, 1, 81, 127
1, 12960, Note_on_c, 1, 45, 127
1, 12983, Note_off_c, 1, 81, 0
1, 12984, Note_on_c, 1, 79, 127
1, 13005, Note_off_c, 1, 45, 0
1, 13007, Note_off_c, 1, 79, 0
1, 13008, Note_on_c, 1, 78, 127
1, 13008, Note_on_c, 1, 57, 127
1, 13031, Note_off_c, 1, 78, 0
1, 13032, Note_on_c, 1, 76, 127
1, 13053, Note_off_c, 1, 57, 0
1, 13056, Note_on_c, 1, 50, 127
1, 13101, Note_off_c, 1, 50, 0
1, 13104, Note_on_c, 1, 79, 127
1, 13149, Note_off_c, 1, 79, 0
1, 13152, Note_on_c, 1, 81, 127
1, 13152, Note_on_c, 1, 52, 127
1, 13175, Note_off_c, 1, 81, 0
1, 13197, Note_off_c, 1, 52, 0
1, 13233, Note_off_c, 1, 76, 0
1, 13248, Note_on_c, 1, 76, 127
1, 13248, Note_on_c, 1, 81, 127
1, 13248, Note_on_c, 1, 54, 127
1, 13293, Note_off_c, 1, 76, 0
1, 13293, Note_off_c, 1, 54, 0
1, 13296, Note_on_c, 1, 75, 127
1, 13296, Note_on_c, 1, 57, 127
1, 13319, Note_off_c, 1, 75, 0
1, 13319, Note_off_c, 1, 57, 0
1, 13320, Note_on_c, 1, 55, 127
1, 13343, Note_off_c, 1, 55, 0
1, 13344, Note_on_c, 1, 78, 127
1, 13367, Note_off_c, 1, 78, 0
1, 13416, Note_on_c, 1, 73, 127
1, 13425, Note_off_c, 1, 81, 0
1, 13439, Note_off_c, 1, 73, 0
1, 13440, Note_on_c, 1, 75, 127
1, 13440, Note_on_c, 1, 81, 127
1, 13440, Note_on_c, 1, 47, 127
1, 13485, Note_off_c, 1, 75, 0
1, 13485, Note_off_c, 1, 47, 0
1, 13488, Note_on_c, 1, 76, 127
1, 13488, Note_on_c, 1, 59, 127
1, 13533, Note_off_c, 1, 76, 0
1, 13533, Note_off_c, 1, 59, 0
1, 13536, Note_on_c, 1, 78, 127
1, 13536, Note_on_c, 1, 49, 127
1, 13559, Note_off_c, 1, 78, 0
1, 13581, Note_off_c, 1, 49, 0
1, 13617, Note_off_c, 1, 81, 0
1, 13632, Note_on_c, 1, 81, 127
1, 13632, Note_on_c, 1, 51, 127
1, 13677, Note_off_c, 1, 81, 0
1, 13677, Note_off_c, 1, 51, 0
1, 13680, Note_on_c, 1, 79, 127
1, 13680, Note_on_c, 1, 59, 127
1, 13703, Note_off_c, 1, 79, 0
1, 13704, Note_on_c, 1, 81, 127
1, 13725, Note_off_c, 1, 59, 0
1, 13727, Note_off_c, 1, 81, 0
1, 13728, Note_on_c, 1, 83, 127
1, 13728, Note_on_c, 1, 47, 127
1, 13751, Note_off_c, 1, 83, 0
1, 13752, Note_on_c, 1, 81, 127
1, 13773, Note_off_c, 1, 47, 0
1, 13775, Note_off_c, 1, 81, 0
1, 13776, Note_on_c, 1, 79, 127
1, 13776, Note_on_c, 1, 59, 127
1, 13799, Note_off_c, 1, 79, 0
1, 13800, Note_on_c, 1, 78, 127
1, 13821, Note_off_c, 1, 59, 0
1, 13824, Note_on_c, 1, 52, 127
1, 13847, Note_off_c, 1, 78, 0
1, 13869, Note_off_c, 1, 52, 0
1, 13872, Note_on_c, 1, 76, 127
1, 13872, Note_on_c, 1, 54, 127
1, 13895, Note_off_c, 1, 76, 0
1, 13896, Note_on_c, 1, 75, 127
1, 13917, Note_off_c, 1, 54, 0
1, 13919, Note_off_c, 1, 75, 0
1, 13920, Note_on_c, 1, 76, 127
1, 13920, Note_on_c, 1, 55, 127
1, 13943, Note_off_c, 1, 76, 0
1, 13944, Note_on_c, 1, 74, 127
1, 13965, Note_off_c, 1, 55, 0
1, 13967, Note_off_c, 1, 74, 0
1, 13968, Note_on_c, 1, 73, 127
1, 13968, Note_on_c, 1, 54, 127
1, 13991, Note_off_c, 1, 73, 0
1, 13992, Note_on_c, 1, 71, 127
1, 14013, Note_off_c, 1, 54, 0
1, 14015, Note_off_c, 1, 71, 0
1, 14016, Note_on_c, 1, 74, 127
1, 14016, Note_on_c, 1, 57, 127
1, 14039, Note_off_c, 1, 74, 0
1, 14040, Note_on_c, 1, 73, 127
1, 14061, Note_off_c, 1, 57, 0
1, 14063, Note_off_c, 1, 73, 0
1, 14064, Note_on_c, 1, 71, 127
1, 14064, Note_on_c, 1, 52, 127
1, 14087, Note_off_c, 1, 71, 0
1, 14088, Note_on_c, 1, 69, 127
1, 14109, Note_off_c, 1, 52, 0
1, 14111, Note_off_c, 1, 69, 0
1, 14112, Note_on_c, 1, 81, 127
1, 14112, Note_on_c, 1, 49, 127
1, 14135, Note_off_c, 1, 81, 0
1, 14136, Note_on_c, 1, 79, 127
1, 14157, Note_off_c, 1, 49, 0
1, 14159, Note_off_c, 1, 79, 0
1, 14160, Note_on_c, 1, 78, 127
1, 14160, Note_on_c, 1, 45, 127
1, 14183, Note_off_c, 1, 78, 0
1, 14184, Note_on_c, 1, 76, 127
1, 14205, Note_off_c, 1, 45, 0
1, 14207, Note_off_c, 1, 76, 0
1, 14208, Note_on_c, 1, 78, 127
1, 14208, Note_on_c, 1, 50, 127
1, 14232, Note_on_c, 1, 76, 127
1, 14253, Note_off_c, 1, 78, 0
1, 14253, Note_off_c, 1, 50, 0
1, 14255, Note_off_c, 1, 76, 0
1, 14256, Note_on_c, 1, 74, 127
1, 14256, Note_on_c, 1, 52, 127
1, 14279, Note_off_c, 1, 74, 0
1, 14280, Note_on_c, 1, 73, 127
1, 14301, Note_off_c, 1, 52, 0
1, 14303, Note_off_c, 1, 73, 0
1, 14304, Note_on_c, 1, 74, 127
1, 14304, Note_on_c, 1, 54, 127
1, 14327, Note_off_c, 1, 74, 0
1, 14328, Note_on_c, 1, 72, 127
1, 14349, Note_off_c, 1, 54, 0
1, 14351, Note_off_c, 1, 72, 0
1, 14352, Note_on_c, 1, 71, 127
1, 14352, Note_on_c, 1, 50, 127
1, 14375, Note_off_c, 1, 71, 0
1, 14376, Note_on_c, 1, 69, 127
1, 14397, Note_off_c, 1, 50, 0
1, 14399, Note_off_c, 1, 69, 0
1, 14400, Note_on_c, 1, 72, 127
1, 14400, Note_on_c, 1, 55, 127
1, 14423, Note_off_c, 1, 72, 0
1, 14424, Note_on_c, 1, 71, 127
1, 14445, Note_off_c, 1, 55, 0
1, 14447, Note_off_c, 1, 71, 0
1, 14448, Note_on_c, 1, 69, 127
1, 14448, Note_on_c, 1, 50, 127
1, 14471, Note_off_c, 1, 69, 0
1, 14472, Note_on_c, 1, 67, 127
1, 14493, Note_off_c, 1, 50, 0
1, 14495, Note_off_c, 1, 67, 0
1, 14496, Note_on_c, 1, 79, 127
1, 14496, Note_on_c, 1, 47, 127
1, 14519, Note_off_c, 1, 79, 0
1, 14520, Note_on_c, 1, 78, 127
1, 14541, Note_off_c, 1, 47, 0
1, 14543, Note_off_c, 1, 78, 0
1, 14544, Note_on_c, 1, 76, 127
1, 14544, Note_on_c, 1, 43, 127
1, 14567, Note_off_c, 1, 76, 0
1, 14568, Note_on_c, 1, 74, 127
1, 14589, Note_off_c, 1, 43, 0
1, 14591, Note_off_c, 1, 74, 0
1, 14592, Note_on_c, 1, 76, 127
1, 14592, Note_on_c, 1, 48, 127
1, 14616, Note_on_c, 1, 72, 127
1, 14637, Note_off_c, 1, 48, 0
1, 14639, Note_off_c, 1, 72, 0
1, 14640, Note_on_c, 1, 71, 127
1, 14640, Note_on_c, 1, 52, 127
1, 14663, Note_off_c, 1, 71, 0
1, 14681, Note_off_c, 1, 76, 0
1, 14685, Note_off_c, 1, 52, 0
1, 14688, Note_on_c, 1, 74, 127
1, 14688, Note_on_c, 1, 57, 127
1, 14700, Note_off_c, 1, 57, 0
1, 14700, Note_on_c, 1, 59, 127
1, 14711, Note_off_c, 1, 74, 0
1, 14712, Note_off_c, 1, 59, 0
1, 14712, Note_on_c, 1, 72, 127
1, 14735, Note_off_c, 1, 72, 0
1, 14736, Note_on_c, 1, 71, 127
1, 14759, Note_off_c, 1, 71, 0
1, 14784, Note_on_c, 1, 78, 127
1, 14784, Note_on_c, 1, 50, 127
1, 14808, Note_on_c, 1, 72, 127
1, 14829, Note_off_c, 1, 50, 0
1, 14831, Note_off_c, 1, 72, 0
1, 14832, Note_on_c, 1, 71, 127
1, 14832, Note_on_c, 1, 54, 127
1, 14855, Note_off_c, 1, 71, 0
1, 14873, Note_off_c, 1, 78, 0
1, 14877, Note_off_c, 1, 54, 0
1, 14880, Note_on_c, 1, 74, 127
1, 14880, Note_on_c, 1, 59, 127
1, 14892, Note_off_c, 1, 59, 0
1, 14892, Note_on_c, 1, 60, 127
1, 14903, Note_off_c, 1, 74, 0
1, 14904, Note_off_c, 1, 60, 0
1, 14904, Note_on_c, 1, 72, 127
1, 14927, Note_off_c, 1, 72, 0
1, 14928, Note_on_c, 1, 71, 127
1, 14951, Note_off_c, 1, 71, 0
1, 14976, Note_on_c, 1, 79, 127
1, 14976, Note_on_c, 1, 52, 127
1, 15000, Note_on_c, 1, 72, 127
1, 15021, Note_off_c, 1, 52, 0
1, 15023, Note_off_c, 1, 72, 0
1, 15024, Note_on_c, 1, 71, 127
1, 15024, Note_on_c, 1, 55, 127
1, 15047, Note_off_c, 1, 71, 0
1, 15065, Note_off_c, 1, 79, 0
1, 15069, Note_off_c, 1, 55, 0
1, 15072, Note_on_c, 1, 74, 127
1, 15072, Note_on_c, 1, 60, 127
1, 15084, Note_off_c, 1, 60, 0
1, 15084, Note_on_c, 1, 62, 127
1, 15095, Note_off_c, 1, 74, 0
1, 15096, Note_off_c, 1, 62, 0
1, 15096, Note_on_c, 1, 72, 127
1, 15119, Note_off_c, 1, 72, 0
1, 15120, Note_on_c, 1, 71, 127
1, 15143, Note_off_c, 1, 71, 0
1, 15168, Note_on_c, 1, 81, 127
1, 15168, Note_on_c, 1, 54, 127
1, 15192, Note_on_c, 1, 72, 127
1, 15213, Note_off_c, 1, 54, 0
1, 15215, Note_off_c, 1, 72, 0
1, 15216, Note_on_c, 1, 71, 127
1, 15216, Note_on_c, 1, 57, 127
1, 15239, Note_off_c, 1, 71, 0
1, 15257, Note_off_c, 1, 81, 0
1, 15261, Note_off_c, 1, 57, 0
1, 15264, Note_on_c, 1, 74, 127
1, 15264, Note_on_c, 1, 54, 127
1, 15287, Note_off_c, 1, 74, 0
1, 15288, Note_on_c, 1, 72, 127
1, 15309, Note_off_c, 1, 54, 0
1, 15311, Note_off_c, 1, 72, 0
1, 15312, Note_on_c, 1, 71, 127
1, 15312, Note_on_c, 1, 50, 127
1, 15335, Note_off_c, 1, 71, 0
1, 15336, Note_on_c, 1, 69, 127
1, 15357, Note_off_c, 1, 50, 0
1, 15359, Note_off_c, 1, 69, 0
1, 15360, Note_on_c, 1, 74, 127
1, 15360, Note_on_c, 1, 43, 127
1, 15372, Note_off_c, 1, 74, 0
1, 15372, Note_on_c, 1, 76, 127
1, 15383, Note_off_c, 1, 43, 0
1, 15384, Note_off_c, 1, 76, 0
1, 15384, Note_on_c, 1, 55, 127
1, 15407, Note_off_c, 1, 55, 0
1, 15408, Note_on_c, 1, 54, 127
1, 15431, Note_off_c, 1, 54, 0
1, 15456, Note_on_c, 1, 67, 127
1, 15456, Note_on_c, 1, 57, 127
1, 15479, Note_off_c, 1, 57, 0
1, 15480, Note_on_c, 1, 55, 127
1, 15503, Note_off_c, 1, 55, 0
1, 15504, Note_on_c, 1, 54, 127
1, 15523, Note_off_c, 1, 67, 0
1, 15527, Note_off_c, 1, 54, 0
1, 15528, Note_on_c, 1, 69, 127
1, 15528, Note_on_c, 1, 55, 127
1, 15551, Note_off_c, 1, 69, 0
1, 15551, Note_off_c, 1, 55, 0
1, 15552, Note_on_c, 1, 72, 127
1, 15552, Note_on_c, 1, 45, 127
1, 15564, Note_off_c, 1, 72, 0
1, 15564, Note_on_c, 1, 74, 127
1, 15575, Note_off_c, 1, 45, 0
1, 15576, Note_off_c, 1, 74, 0
1, 15576, Note_on_c, 1, 55, 127
1, 15599, Note_off_c, 1, 55, 0
1, 15600, Note_on_c, 1, 54, 127
1, 15623, Note_off_c, 1, 54, 0
1, 15648, Note_on_c, 1, 67, 127
1, 15648, Note_on_c, 1, 57, 127
1, 15671, Note_off_c, 1, 57, 0
1, 15672, Note_on_c, 1, 55, 127
1, 15695, Note_off_c, 1, 55, 0
1, 15696, Note_on_c, 1, 54, 127
1, 15715, Note_off_c, 1, 67, 0
1, 15719, Note_off_c, 1, 54, 0
1, 15720, Note_on_c, 1, 72, 127
1, 15720, Note_on_c, 1, 55, 127
1, 15743, Note_off_c, 1, 72, 0
1, 15743, Note_off_c, 1, 55, 0
1, 15744, Note_on_c, 1, 74, 127
1, 15744, Note_on_c, 1, 47, 127
1, 15756, Note_off_c, 1, 74, 0
1, 15756, Note_on_c, 1, 76, 127
1, 15767, Note_off_c, 1, 47, 0
1, 15768, Note_off_c, 1, 76, 0
1, 15768, Note_on_c, 1, 55, 127
1, 15791, Note_off_c, 1, 55, 0
1, 15792, Note_on_c, 1, 54, 127
1, 15815, Note_off_c, 1, 54, 0
1, 15840, Note_on_c, 1, 67, 127
1, 15840, Note_on_c, 1, 57, 127
1, 15863, Note_off_c, 1, 57, 0
1, 15864, Note_on_c, 1, 55, 127
1, 15887, Note_off_c, 1, 55, 0
1, 15888, Note_on_c, 1, 54, 127
1, 15907, Note_off_c, 1, 67, 0
1, 15911, Note_off_c, 1, 54, 0
1, 15912, Note_on_c, 1, 74, 127
1, 15912, Note_on_c, 1, 55, 127
1, 15935, Note_off_c, 1, 74, 0
1, 15935, Note_off_c, 1, 55, 0
1, 15936, Note_on_c, 1, 76, 127
1, 15936, Note_on_c, 1, 48, 127
1, 15959, Note_off_c, 1, 48, 0
1, 15960, Note_on_c, 1, 55, 127
1, 15983, Note_off_c, 1, 55, 0
1, 15984, Note_on_c, 1, 54, 127
1, 16007, Note_off_c, 1, 54, 0
1, 16008, Note_on_c, 1, 74, 127
1, 16031, Note_off_c, 1, 74, 0
1, 16032, Note_on_c, 1, 72, 127
1, 16032, Note_on_c, 1, 57, 127
1, 16055, Note_off_c, 1, 72, 0
1, 16055, Note_off_c, 1, 57, 0
1, 16056, Note_on_c, 1, 71, 127
1, 16079, Note_off_c, 1, 71, 0
1, 16080, Note_on_c, 1, 69, 127
1, 16103, Note_off_c, 1, 69, 0
1, 16104, Note_on_c, 1, 67, 127
1, 16127, Note_off_c, 1, 67, 0
1, 16128, Note_on_c, 1, 66, 127
1, 16128, Note_on_c, 1, 50, 127
1, 16151, Note_off_c, 1, 76, 0
1, 16217, Note_off_c, 1, 66, 0
1, 16224, Note_on_c, 1, 59, 127
1, 16305, Note_off_c, 1, 50, 0
1, 16313, Note_off_c, 1, 59, 0
1, 16320, Note_on_c, 1, 64, 127
1, 16320, Note_on_c, 1, 50, 127
1, 16344, Note_on_c, 1, 74, 127
1, 16367, Note_off_c, 1, 74, 0
1, 16368, Note_on_c, 1, 72, 127
1, 16391, Note_off_c, 1, 72, 0
1, 16392, Note_on_c, 1, 71, 127
1, 16409, Note_off_c, 1, 64, 0
1, 16415, Note_off_c, 1, 71, 0
1, 16416, Note_on_c, 1, 57, 127
1, 16464, Note_on_c, 1, 69, 127
1, 16487, Note_off_c, 1, 69, 0
1, 16488, Note_on_c, 1, 67, 127
1, 16497, Note_off_c, 1, 50, 0
1, 16505, Note_off_c, 1, 57, 0
1, 16511, Note_off_c, 1, 67, 0
1, 16512, Note_on_c, 1, 62, 127
1, 16512, Note_on_c, 1, 54, 127
1, 16536, Note_on_c, 1, 72, 127
1, 16559, Note_off_c, 1, 72, 0
1, 16560, Note_on_c, 1, 71, 127
1, 16583, Note_off_c, 1, 71, 0
1, 16584, Note_on_c, 1, 69, 127
1, 16601, Note_off_c, 1, 62, 0
1, 16601, Note_off_c, 1, 54, 0
1, 16607, Note_off_c, 1, 69, 0
1, 16608, Note_on_c, 1, 71, 127
1, 16608, Note_on_c, 1, 55, 127
1, 16631, Note_off_c, 1, 71, 0
1, 16632, Note_on_c, 1, 69, 127
1, 16655, Note_off_c, 1, 69, 0
1, 16656, Note_on_c, 1, 67, 127
1, 16679, Note_off_c, 1, 67, 0
1, 16680, Note_on_c, 1, 66, 127
1, 16697, Note_off_c, 1, 55, 0
1, 16703, Note_off_c, 1, 66, 0
1, 16704, Note_on_c, 1, 61, 127
1, 16704, Note_on_c, 1, 52, 127
1, 16728, Note_on_c, 1, 71, 127
1, 16751, Note_off_c, 1, 71, 0
1, 16752, Note_on_c, 1, 69, 127
1, 16775, Note_off_c, 1, 69, 0
1, 16776, Note_on_c, 1, 67, 127
1, 16793, Note_off_c, 1, 52, 0
1, 16799, Note_off_c, 1, 67, 0
1, 16800, Note_on_c, 1, 55, 127
1, 16848, Note_on_c, 1, 66, 127
1, 16871, Note_off_c, 1, 66, 0
1, 16872, Note_on_c, 1, 64, 127
1, 16881, Note_off_c, 1, 61, 0
1, 16889, Note_off_c, 1, 55, 0
1, 16895, Note_off_c, 1, 64, 0
1, 16896, Note_on_c, 1, 66, 127
1, 16896, Note_on_c, 1, 62, 127
1, 16896, Note_on_c, 1, 50, 127
1, 16919, Note_off_c, 1, 66, 0
1, 16920, Note_on_c, 1, 64, 127
1, 16941, Note_off_c, 1, 62, 0
1, 16941, Note_off_c, 1, 50, 0
1, 16943, Note_off_c, 1, 64, 0
1, 16944, Note_on_c, 1, 62, 127
1, 16944, Note_on_c, 1, 54, 127
1, 16989, Note_off_c, 1, 54, 0
1, 16992, Note_on_c, 1, 45, 127
1, 17015, Note_off_c, 1, 62, 0
1, 17016, Note_on_c, 1, 64, 127
1, 17037, Note_off_c, 1, 45, 0
1, 17039, Note_off_c, 1, 64, 0
1, 17040, Note_on_c, 1, 66, 127
1, 17040, Note_on_c, 1, 50, 127
1, 17063, Note_off_c, 1, 66, 0
1, 17064, Note_on_c, 1, 67, 127
1, 17085, Note_off_c, 1, 50, 0
1, 17087, Note_off_c, 1, 67, 0
1, 17088, Note_on_c, 1, 69, 127
1, 17088, Note_on_c, 1, 42, 127
1, 17111, Note_off_c, 1, 69, 0
1, 17112, Note_on_c, 1, 67, 127
1, 17133, Note_off_c, 1, 42, 0
1, 17135, Note_off_c, 1, 67, 0
1, 17136, Note_on_c, 1, 66, 127
1, 17136, Note_on_c, 1, 50, 127
1, 17181, Note_off_c, 1, 50, 0
1, 17184, Note_on_c, 1, 45, 127
1, 17207, Note_off_c, 1, 66, 0
1, 17208, Note_on_c, 1, 67, 127
1, 17229, Note_off_c, 1, 45, 0
1, 17231, Note_off_c, 1, 67, 0
1, 17232, Note_on_c, 1, 69, 127
1, 17232, Note_on_c, 1, 42, 127
1, 17255, Note_off_c, 1, 69, 0
1, 17256, Note_on_c, 1, 71, 127
1, 17277, Note_off_c, 1, 42, 0
1, 17279, Note_off_c, 1, 71, 0
1, 17280, Note_on_c, 1, 72, 127
1, 17280, Note_on_c, 1, 38, 127
1, 17303, Note_off_c, 1, 72, 0
1, 17304, Note_on_c, 1, 71, 127
1, 17325, Note_off_c, 1, 38, 0
1, 17327, Note_off_c, 1, 71, 0
1, 17328, Note_on_c, 1, 69, 127
1, 17328, Note_on_c, 1, 42, 127
1, 17351, Note_off_c, 1, 69, 0
1, 17352, Note_on_c, 1, 71, 127
1, 17373, Note_off_c, 1, 42, 0
1, 17375, Note_off_c, 1, 71, 0
1, 17376, Note_on_c, 1, 72, 127
1, 17376, Note_on_c, 1, 45, 127
1, 17399, Note_off_c, 1, 72, 0
1, 17400, Note_on_c, 1, 74, 127
1, 17421, Note_off_c, 1, 45, 0
1, 17423, Note_off_c, 1, 74, 0
1, 17424, Note_on_c, 1, 76, 127
1, 17424, Note_on_c, 1, 50, 127
1, 17447, Note_off_c, 1, 76, 0
1, 17448, Note_on_c, 1, 78, 127
1, 17469, Note_off_c, 1, 50, 0
1, 17471, Note_off_c, 1, 78, 0
1, 17472, Note_on_c, 1, 79, 127
1, 17472, Note_on_c, 1, 52, 127
1, 17495, Note_off_c, 1, 79, 0
1, 17496, Note_on_c, 1, 78, 127
1, 17517, Note_off_c, 1, 52, 0
1, 17519, Note_off_c, 1, 78, 0
1, 17520, Note_on_c, 1, 81, 127
1, 17520, Note_on_c, 1, 48, 127
1, 17543, Note_off_c, 1, 81, 0
1, 17544, Note_on_c, 1, 79, 127
1, 17565, Note_off_c, 1, 48, 0
1, 17567, Note_off_c, 1, 79, 0
1, 17568, Note_on_c, 1, 78, 127
1, 17568, Note_on_c, 1, 45, 127
1, 17591, Note_off_c, 1, 78, 0
1, 17592, Note_on_c, 1, 76, 127
1, 17613, Note_off_c, 1, 45, 0
1, 17615, Note_off_c, 1, 76, 0
1, 17616, Note_on_c, 1, 74, 127
1, 17616, Note_on_c, 1, 50, 127
1, 17639, Note_off_c, 1, 74, 0
1, 17640, Note_on_c, 1, 72, 127
1, 17661, Note_off_c, 1, 50, 0
1, 17663, Note_off_c, 1, 72, 0
1, 17664, Note_on_c, 1, 71, 127
1, 17664, Note_on_c, 1, 55, 127
1, 17709, Note_off_c, 1, 71, 0
1, 17709, Note_off_c, 1, 55, 0
1, 17712, Note_on_c, 1, 72, 127
1, 17712, Note_on_c, 1, 59, 127
1, 17735, Note_off_c, 1, 72, 0
1, 17736, Note_on_c, 1, 74, 127
1, 17757, Note_off_c, 1, 59, 0
1, 17759, Note_off_c, 1, 74, 0
1, 17760, Note_on_c, 1, 72, 127
1, 17760, Note_on_c, 1, 52, 127
1, 17783, Note_off_c, 1, 72, 0
1, 17784, Note_on_c, 1, 71, 127
1, 17805, Note_off_c, 1, 52, 0
1, 17807, Note_off_c, 1, 71, 0
1, 17808, Note_on_c, 1, 69, 127
1, 17808, Note_on_c, 1, 55, 127
1, 17831, Note_off_c, 1, 69, 0
1, 17832, Note_on_c, 1, 67, 127
1, 17853, Note_off_c, 1, 55, 0
1, 17855, Note_off_c, 1, 67, 0
1, 17856, Note_on_c, 1, 71, 127
1, 17856, Note_on_c, 1, 48, 127
1, 17904, Note_on_c, 1, 62, 127
1, 17945, Note_off_c, 1, 71, 0
1, 17945, Note_off_c, 1, 48, 0
1, 17952, Note_on_c, 1, 69, 127
1, 17952, Note_on_c, 1, 50, 127
1, 17993, Note_off_c, 1, 62, 0
1, 18000, Note_on_c, 1, 60, 127
1, 18041, Note_off_c, 1, 69, 0
1, 18041, Note_off_c, 1, 50, 0
1, 18045, Note_off_c, 1, 60, 0
1, 18048, Note_on_c, 1, 59, 127
1, 18048, Note_on_c, 1, 55, 127
1, 18071, Note_off_c, 1, 59, 0
1, 18072, Note_on_c, 1, 67, 127
1, 18095, Note_off_c, 1, 67, 0
1, 18096, Note_on_c, 1, 66, 127
1, 18119, Note_off_c, 1, 66, 0
1, 18120, Note_on_c, 1, 64, 127
1, 18143, Note_off_c, 1, 64, 0
1, 18144, Note_on_c, 1, 62, 127
1, 18167, Note_off_c, 1, 62, 0
1, 18168, Note_on_c, 1, 60, 127
1, 18191, Note_off_c, 1, 60, 0
1, 18216, Note_on_c, 1, 57, 127
1, 18225, Note_off_c, 1, 55, 0
1, 18239, Note_off_c, 1, 57, 0
1, 18240, Note_on_c, 1, 55, 127
1, 18264, Note_on_c, 1, 50, 127
1, 18287, Note_off_c, 1, 50, 0
1, 18288, Note_on_c, 1, 47, 127
1, 18311, Note_off_c, 1, 47, 0
1, 18329, Note_off_c, 1, 55, 0
1, 18336, Note_on_c, 1, 43, 127
1, 18425, Note_off_c, 1, 43, 0
1, 18432, Note_on_c, 1, 71, 127
1, 18432, Note_on_c, 1, 67, 127
1, 18432, Note_on_c, 1, 62, 127
1, 18432, Note_on_c, 1, 43, 127
1, 18477, Note_off_c, 1, 71, 0
1, 18477, Note_off_c, 1, 43, 0
1, 18480, Note_off_c, 1, 67, 0
1, 18480, Note_off_c, 1, 62, 0
1, 18480, Note_on_c, 1, 72, 127
1, 18480, Note_on_c, 1, 55, 127
1, 18525, Note_off_c, 1, 72, 0
1, 18525, Note_off_c, 1, 55, 0
1, 18528, Note_on_c, 1, 74, 127
1, 18528, Note_on_c, 1, 45, 127
1, 18551, Note_off_c, 1, 74, 0
1, 18552, Note_on_c, 1, 72, 127
1, 18573, Note_off_c, 1, 45, 0
1, 18575, Note_off_c, 1, 72, 0
1, 18576, Note_on_c, 1, 71, 127
1, 18576, Note_on_c, 1, 54, 127
1, 18599, Note_off_c, 1, 71, 0
1, 18600, Note_on_c, 1, 72, 127
1, 18621, Note_off_c, 1, 54, 0
1, 18623, Note_off_c, 1, 72, 0
1, 18624, Note_on_c, 1, 74, 127
1, 18624, Note_on_c, 1, 47, 127
1, 18669, Note_off_c, 1, 47, 0
1, 18672, Note_on_c, 1, 55, 127
1, 18713, Note_off_c, 1, 74, 0
1, 18717, Note_off_c, 1, 55, 0
1, 18720, Note_on_c, 1, 69, 127
1, 18720, Note_on_c, 1, 79, 127
1, 18720, Note_on_c, 1, 76, 127
1, 18720, Note_on_c, 1, 49, 127
1, 18765, Note_off_c, 1, 49, 0
1, 18768, Note_on_c, 1, 57, 127
1, 18809, Note_off_c, 1, 69, 0
1, 18809, Note_off_c, 1, 79, 0
1, 18813, Note_off_c, 1, 57, 0
1, 18816, Note_on_c, 1, 50, 127
1, 18861, Note_off_c, 1, 50, 0
1, 18864, Note_off_c, 1, 76, 0
1, 18864, Note_on_c, 1, 78, 127
1, 18887, Note_off_c, 1, 78, 0
1, 18912, Note_on_c, 1, 81, 127
1, 18912, Note_on_c, 1, 52, 127
1, 18935, Note_off_c, 1, 81, 0
1, 18936, Note_on_c, 1, 79, 127
1, 18957, Note_off_c, 1, 52, 0
1, 18959, Note_off_c, 1, 79, 0
1, 18960, Note_on_c, 1, 78, 127
1, 18960, Note_on_c, 1, 57, 127
1, 18983, Note_off_c, 1, 78, 0
1, 18984, Note_on_c, 1, 76, 127
1, 19005, Note_off_c, 1, 57, 0
1, 19007, Note_off_c, 1, 76, 0
1, 19008, Note_on_c, 1, 74, 127
1, 19008, Note_on_c, 1, 54, 127
1, 19031, Note_off_c, 1, 54, 0
1, 19032, Note_on_c, 1, 59, 127
1, 19053, Note_off_c, 1, 74, 0
1, 19055, Note_off_c, 1, 59, 0
1, 19056, Note_on_c, 1, 83, 127
1, 19056, Note_on_c, 1, 57, 127
1, 19079, Note_off_c, 1, 57, 0
1, 19080, Note_on_c, 1, 56, 127
1, 19103, Note_off_c, 1, 56, 0
1, 19145, Note_off_c, 1, 83, 0
1, 19152, Note_on_c, 1, 74, 127
1, 19152, Note_on_c, 1, 54, 127
1, 19175, Note_off_c, 1, 54, 0
1, 19176, Note_on_c, 1, 52, 127
1, 19199, Note_off_c, 1, 52, 0
1, 19200, Note_on_c, 1, 57, 127
1, 19223, Note_off_c, 1, 74, 0
1, 19224, Note_on_c, 1, 71, 127
1, 19245, Note_off_c, 1, 57, 0
1, 19247, Note_off_c, 1, 71, 0
1, 19248, Note_on_c, 1, 72, 127
1, 19248, Note_on_c, 1, 45, 127
1, 19271, Note_off_c, 1, 72, 0
1, 19272, Note_on_c, 1, 74, 127
1, 19293, Note_off_c, 1, 45, 0
1, 19295, Note_off_c, 1, 74, 0
1, 19296, Note_on_c, 1, 76, 127
1, 19296, Note_on_c, 1, 47, 127
1, 19319, Note_off_c, 1, 76, 0
1, 19320, Note_on_c, 1, 74, 127
1, 19341, Note_off_c, 1, 47, 0
1, 19343, Note_off_c, 1, 74, 0
1, 19344, Note_on_c, 1, 72, 127
1, 19344, Note_on_c, 1, 56, 127
1, 19367, Note_off_c, 1, 72, 0
1, 19368, Note_on_c, 1, 74, 127
1, 19389, Note_off_c, 1, 56, 0
1, 19391, Note_off_c, 1, 74, 0
1, 19392, Note_on_c, 1, 76, 127
1, 19392, Note_on_c, 1, 48, 127
1, 19415, Note_off_c, 1, 76, 0
1, 19416, Note_on_c, 1, 72, 127
1, 19437, Note_off_c, 1, 48, 0
1, 19439, Note_off_c, 1, 72, 0
1, 19440, Note_on_c, 1, 71, 127
1, 19440, Note_on_c, 1, 57, 127
1, 19463, Note_off_c, 1, 71, 0
1, 19464, Note_on_c, 1, 69, 127
1, 19485, Note_off_c, 1, 57, 0
1, 19487, Note_off_c, 1, 69, 0
1, 19488, Note_on_c, 1, 81, 127
1, 19488, Note_on_c, 1, 53, 127
1, 19533, Note_off_c, 1, 53, 0
1, 19536, Note_on_c, 1, 72, 127
1, 19536, Note_on_c, 1, 51, 127
1, 19581, Note_off_c, 1, 72, 0
1, 19581, Note_off_c, 1, 51, 0
1, 19584, Note_on_c, 1, 71, 127
1, 19584, Note_on_c, 1, 52, 127
1, 19629, Note_off_c, 1, 81, 0
1, 19629, Note_off_c, 1, 71, 0
1, 19629, Note_off_c, 1, 52, 0
1, 19632, Note_on_c, 1, 80, 127
1, 19632, Note_on_c, 1, 40, 127
1, 19655, Note_off_c, 1, 80, 0
1, 19656, Note_on_c, 1, 81, 127
1, 19677, Note_off_c, 1, 40, 0
1, 19679, Note_off_c, 1, 81, 0
1, 19680, Note_on_c, 1, 83, 127
1, 19680, Note_on_c, 1, 52, 127
1, 19703, Note_off_c, 1, 83, 0
1, 19704, Note_on_c, 1, 81, 127
1, 19725, Note_off_c, 1, 52, 0
1, 19727, Note_off_c, 1, 81, 0
1, 19728, Note_on_c, 1, 80, 127
1, 19728, Note_on_c, 1, 54, 127
1, 19751, Note_off_c, 1, 80, 0
1, 19752, Note_on_c, 1, 78, 127
1, 19773, Note_off_c, 1, 54, 0
1, 19775, Note_off_c, 1, 78, 0
1, 19776, Note_on_c, 1, 76, 127
1, 19776, Note_on_c, 1, 56, 127
1, 19821, Note_off_c, 1, 56, 0
1, 19824, Note_on_c, 1, 59, 127
1, 19869, Note_off_c, 1, 59, 0
1, 19872, Note_on_c, 1, 52, 127
1, 19895, Note_off_c, 1, 76, 0
1, 19896, Note_on_c, 1, 74, 127
1, 19917, Note_off_c, 1, 52, 0
1, 19919, Note_off_c, 1, 74, 0
1, 19920, Note_on_c, 1, 72, 127
1, 19920, Note_on_c, 1, 56, 127
1, 19943, Note_off_c, 1, 72, 0
1, 19944, Note_on_c, 1, 71, 127
1, 19965, Note_off_c, 1, 56, 0
1, 19967, Note_off_c, 1, 71, 0
1, 19968, Note_on_c, 1, 72, 127
1, 19968, Note_on_c, 1, 57, 127
1, 19991, Note_off_c, 1, 72, 0
1, 19992, Note_on_c, 1, 76, 127
1, 20013, Note_off_c, 1, 57, 0
1, 20015, Note_off_c, 1, 76, 0
1, 20016, Note_on_c, 1, 74, 127
1, 20016, Note_on_c, 1, 45, 127
1, 20039, Note_off_c, 1, 74, 0
1, 20040, Note_on_c, 1, 72, 127
1, 20061, Note_off_c, 1, 45, 0
1, 20063, Note_off_c, 1, 72, 0
1, 20064, Note_on_c, 1, 74, 127
1, 20064, Note_on_c, 1, 57, 127
1, 20087, Note_off_c, 1, 74, 0
1, 20088, Note_on_c, 1, 72, 127
1, 20109, Note_off_c, 1, 57, 0
1, 20111, Note_off_c, 1, 72, 0
1, 20112, Note_on_c, 1, 71, 127
1, 20112, Note_on_c, 1, 55, 127
1, 20135, Note_off_c, 1, 71, 0
1, 20136, Note_on_c, 1, 69, 127
1, 20157, Note_off_c, 1, 55, 0
1, 20159, Note_off_c, 1, 69, 0
1, 20160, Note_on_c, 1, 81, 127
1, 20160, Note_on_c, 1, 53, 127
1, 20183, Note_off_c, 1, 81, 0
1, 20184, Note_on_c, 1, 79, 127
1, 20205, Note_off_c, 1, 53, 0
1, 20207, Note_off_c, 1, 79, 0
1, 20208, Note_on_c, 1, 77, 127
1, 20208, Note_on_c, 1, 57, 127
1, 20231, Note_off_c, 1, 77, 0
1, 20232, Note_on_c, 1, 76, 127
1, 20253, Note_off_c, 1, 57, 0
1, 20255, Note_off_c, 1, 76, 0
1, 20256, Note_on_c, 1, 74, 127
1, 20256, Note_on_c, 1, 53, 127
1, 20279, Note_off_c, 1, 74, 0
1, 20280, Note_on_c, 1, 72, 127
1, 20301, Note_off_c, 1, 53, 0
1, 20303, Note_off_c, 1, 72, 0
1, 20304, Note_on_c, 1, 71, 127
1, 20304, Note_on_c, 1, 50, 127
1, 20327, Note_off_c, 1, 71, 0
1, 20328, Note_on_c, 1, 69, 127
1, 20349, Note_off_c, 1, 50, 0
1, 20351, Note_off_c, 1, 69, 0
1, 20352, Note_on_c, 1, 71, 127
1, 20352, Note_on_c, 1, 55, 127
1, 20375, Note_off_c, 1, 71, 0
1, 20376, Note_on_c, 1, 74, 127
1, 20397, Note_off_c, 1, 55, 0
1, 20399, Note_off_c, 1, 74, 0
1, 20400, Note_on_c, 1, 72, 127
1, 20400, Note_on_c, 1, 43, 127
1, 20423, Note_off_c, 1, 72, 0
1, 20424, Note_on_c, 1, 71, 127
1, 20445, Note_off_c, 1, 43, 0
1, 20447, Note_off_c, 1, 71, 0
1, 20448, Note_on_c, 1, 72, 127
1, 20448, Note_on_c, 1, 55, 127
1, 20471, Note_off_c, 1, 72, 0
1, 20472, Note_on_c, 1, 71, 127
1, 20493, Note_off_c, 1, 55, 0
1, 20495, Note_off_c, 1, 71, 0
1, 20496, Note_on_c, 1, 69, 127
1, 20496, Note_on_c, 1, 53, 127
1, 20519, Note_off_c, 1, 69, 0
1, 20520, Note_on_c, 1, 67, 127
1, 20541, Note_off_c, 1, 53, 0
1, 20543, Note_off_c, 1, 67, 0
1, 20544, Note_on_c, 1, 79, 127
1, 20544, Note_on_c, 1, 52, 127
1, 20567, Note_off_c, 1, 79, 0
1, 20568, Note_on_c, 1, 77, 127
1, 20589, Note_off_c, 1, 52, 0
1, 20591, Note_off_c, 1, 77, 0
1, 20592, Note_on_c, 1, 76, 127
1, 20592, Note_on_c, 1, 55, 127
1, 20615, Note_off_c, 1, 76, 0
1, 20616, Note_on_c, 1, 74, 127
1, 20637, Note_off_c, 1, 55, 0
1, 20639, Note_off_c, 1, 74, 0
1, 20640, Note_on_c, 1, 72, 127
1, 20640, Note_on_c, 1, 52, 127
1, 20663, Note_off_c, 1, 72, 0
1, 20664, Note_on_c, 1, 71, 127
1, 20685, Note_off_c, 1, 52, 0
1, 20687, Note_off_c, 1, 71, 0
1, 20688, Note_on_c, 1, 69, 127
1, 20688, Note_on_c, 1, 48, 127
1, 20711, Note_off_c, 1, 69, 0
1, 20712, Note_on_c, 1, 68, 127
1, 20733, Note_off_c, 1, 48, 0
1, 20735, Note_off_c, 1, 68, 0
1, 20736, Note_on_c, 1, 69, 127
1, 20736, Note_on_c, 1, 53, 127
1, 20759, Note_off_c, 1, 53, 0
1, 20760, Note_on_c, 1, 55, 127
1, 20781, Note_off_c, 1, 69, 0
1, 20783, Note_off_c, 1, 55, 0
1, 20784, Note_on_c, 1, 74, 127
1, 20784, Note_on_c, 1, 53, 127
1, 20807, Note_off_c, 1, 53, 0
1, 20808, Note_on_c, 1, 52, 127
1, 20831, Note_off_c, 1, 52, 0
1, 20873, Note_off_c, 1, 74, 0
1, 20880, Note_on_c, 1, 72, 127
1, 20880, Note_on_c, 1, 50, 127
1, 20903, Note_off_c, 1, 50, 0
1, 20904, Note_on_c, 1, 48, 127
1, 20925, Note_off_c, 1, 72, 0
1, 20927, Note_off_c, 1, 48, 0
1, 20928, Note_on_c, 1, 71, 127
1, 20928, Note_on_c, 1, 50, 127
1, 20951, Note_off_c, 1, 50, 0
1, 20952, Note_on_c, 1, 52, 127
1, 20973, Note_off_c, 1, 71, 0
1, 20975, Note_off_c, 1, 52, 0
1, 20976, Note_on_c, 1, 77, 127
1, 20976, Note_on_c, 1, 50, 127
1, 20999, Note_off_c, 1, 50, 0
1, 21000, Note_on_c, 1, 48, 127
1, 21023, Note_off_c, 1, 48, 0
1, 21065, Note_off_c, 1, 77, 0
1, 21072, Note_on_c, 1, 69, 127
1, 21072, Note_on_c, 1, 47, 127
1, 21095, Note_off_c, 1, 47, 0
1, 21096, Note_on_c, 1, 45, 127
1, 21117, Note_off_c, 1, 69, 0
1, 21119, Note_off_c, 1, 45, 0
1, 21120, Note_on_c, 1, 68, 127
1, 21120, Note_on_c, 1, 47, 127
1, 21143, Note_off_c, 1, 47, 0
1, 21144, Note_on_c, 1, 48, 127
1, 21165, Note_off_c, 1, 68, 0
1, 21167, Note_off_c, 1, 48, 0
1, 21168, Note_on_c, 1, 71, 127
1, 21168, Note_on_c, 1, 50, 127
1, 21191, Note_off_c, 1, 50, 0
1, 21192, Note_on_c, 1, 52, 127
1, 21215, Note_off_c, 1, 52, 0
1, 21240, Note_on_c, 1, 48, 127
1, 21257, Note_off_c, 1, 71, 0
1, 21263, Note_off_c, 1, 48, 0
1, 21264, Note_on_c, 1, 65, 127
1, 21264, Note_on_c, 1, 47, 127
1, 21287, Note_off_c, 1, 47, 0
1, 21288, Note_on_c, 1, 45, 127
1, 21309, Note_off_c, 1, 65, 0
1, 21311, Note_off_c, 1, 45, 0
1, 21312, Note_on_c, 1, 67, 127
1, 21312, Note_on_c, 1, 44, 127
1, 21318, Note_off_c, 1, 67, 0
1, 21318, Note_on_c, 1, 65, 127
1, 21335, Note_off_c, 1, 44, 0
1, 21336, Note_on_c, 1, 45, 127
1, 21357, Note_off_c, 1, 65, 0
1, 21359, Note_off_c, 1, 45, 0
1, 21360, Note_on_c, 1, 64, 127
1, 21360, Note_on_c, 1, 47, 127
1, 21383, Note_off_c, 1, 47, 0
1, 21384, Note_on_c, 1, 48, 127
1, 21407, Note_off_c, 1, 48, 0
1, 21408, Note_on_c, 1, 50, 127
1, 21431, Note_off_c, 1, 50, 0
1, 21432, Note_on_c, 1, 52, 127
1, 21449, Note_off_c, 1, 64, 0
1, 21455, Note_off_c, 1, 52, 0
1, 21456, Note_on_c, 1, 62, 127
1, 21456, Note_on_c, 1, 54, 127
1, 21479, Note_off_c, 1, 54, 0
1, 21480, Note_on_c, 1, 56, 127
1, 21501, Note_off_c, 1, 62, 0
1, 21503, Note_off_c, 1, 56, 0
1, 21504, Note_on_c, 1, 62, 127
1, 21504, Note_on_c, 1, 57, 127
1, 21527, Note_off_c, 1, 62, 0
1, 21528, Note_on_c, 1, 59, 127
1, 21549, Note_off_c, 1, 57, 0
1, 21551, Note_off_c, 1, 59, 0
1, 21552, Note_on_c, 1, 60, 127
1, 21552, Note_on_c, 1, 45, 127
1, 21575, Note_off_c, 1, 60, 0
1, 21576, Note_on_c, 1, 62, 127
1, 21597, Note_off_c, 1, 45, 0
1, 21599, Note_off_c, 1, 62, 0
1, 21600, Note_on_c, 1, 64, 127
1, 21623, Note_off_c, 1, 64, 0
1, 21624, Note_on_c, 1, 65, 127
1, 21647, Note_off_c, 1, 65, 0
1, 21648, Note_on_c, 1, 67, 127
1, 21648, Note_on_c, 1, 52, 127
1, 21671, Note_off_c, 1, 67, 0
1, 21671, Note_off_c, 1, 52, 0
1, 21672, Note_on_c, 1, 69, 127
1, 21672, Note_on_c, 1, 53, 127
1, 21695, Note_off_c, 1, 69, 0
1, 21695, Note_off_c, 1, 53, 0
1, 21696, Note_on_c, 1, 61, 127
1, 21696, Note_on_c, 1, 55, 127
1, 21708, Note_off_c, 1, 61, 0
1, 21719, Note_off_c, 1, 55, 0
1, 21720, Note_on_c, 1, 58, 127
1, 21743, Note_off_c, 1, 58, 0
1, 21744, Note_on_c, 1, 57, 127
1, 21767, Note_off_c, 1, 57, 0
1, 21768, Note_on_c, 1, 55, 127
1, 21791, Note_off_c, 1, 55, 0
1, 21792, Note_on_c, 1, 57, 127
1, 21815, Note_off_c, 1, 57, 0
1, 21816, Note_on_c, 1, 55, 127
1, 21839, Note_off_c, 1, 55, 0
1, 21840, Note_on_c, 1, 59, 127
1, 21840, Note_on_c, 1, 53, 127
1, 21863, Note_off_c, 1, 59, 0
1, 21863, Note_off_c, 1, 53, 0
1, 21864, Note_on_c, 1, 61, 127
1, 21864, Note_on_c, 1, 52, 127
1, 21887, Note_off_c, 1, 61, 0
1, 21887, Note_off_c, 1, 52, 0
1, 21888, Note_on_c, 1, 62, 127
1, 21888, Note_on_c, 1, 53, 127
1, 21911, Note_off_c, 1, 62, 0
1, 21912, Note_on_c, 1, 61, 127
1, 21933, Note_off_c, 1, 53, 0
1, 21935, Note_off_c, 1, 61, 0
1, 21936, Note_on_c, 1, 62, 127
1, 21936, Note_on_c, 1, 41, 127
1, 21959, Note_off_c, 1, 62, 0
1, 21960, Note_on_c, 1, 64, 127
1, 21981, Note_off_c, 1, 41, 0
1, 21983, Note_off_c, 1, 64, 0
1, 21984, Note_on_c, 1, 65, 127
1, 22007, Note_off_c, 1, 65, 0
1, 22008, Note_on_c, 1, 67, 127
1, 22031, Note_off_c, 1, 67, 0
1, 22032, Note_on_c, 1, 69, 127
1, 22032, Note_on_c, 1, 54, 127
1, 22055, Note_off_c, 1, 69, 0
1, 22055, Note_off_c, 1, 54, 0
1, 22056, Note_on_c, 1, 71, 127
1, 22056, Note_on_c, 1, 56, 127
1, 22079, Note_off_c, 1, 71, 0
1, 22079, Note_off_c, 1, 56, 0
1, 22080, Note_on_c, 1, 72, 127
1, 22080, Note_on_c, 1, 57, 127
1, 22103, Note_off_c, 1, 57, 0
1, 22104, Note_on_c, 1, 60, 127
1, 22125, Note_off_c, 1, 72, 0
1, 22127, Note_off_c, 1, 60, 0
1, 22128, Note_on_c, 1, 63, 127
1, 22128, Note_on_c, 1, 59, 127
1, 22151, Note_off_c, 1, 59, 0
1, 22152, Note_on_c, 1, 57, 127
1, 22175, Note_off_c, 1, 57, 0
1, 22217, Note_off_c, 1, 63, 0
1, 22224, Note_on_c, 1, 64, 127
1, 22224, Note_on_c, 1, 56, 127
1, 22247, Note_off_c, 1, 56, 0
1, 22248, Note_off_c, 1, 64, 0
1, 22248, Note_on_c, 1, 66, 127
1, 22248, Note_on_c, 1, 54, 127
1, 22271, Note_off_c, 1, 66, 0
1, 22271, Note_off_c, 1, 54, 0
1, 22272, Note_on_c, 1, 64, 127
1, 22272, Note_on_c, 1, 55, 127
1, 22295, Note_off_c, 1, 64, 0
1, 22296, Note_on_c, 1, 74, 127
1, 22317, Note_off_c, 1, 55, 0
1, 22319, Note_off_c, 1, 74, 0
1, 22320, Note_on_c, 1, 72, 127
1, 22320, Note_on_c, 1, 52, 127
1, 22343, Note_off_c, 1, 72, 0
1, 22344, Note_on_c, 1, 71, 127
1, 22365, Note_off_c, 1, 52, 0
1, 22367, Note_off_c, 1, 71, 0
1, 22368, Note_on_c, 1, 76, 127
1, 22368, Note_on_c, 1, 48, 127
1, 22391, Note_off_c, 1, 76, 0
1, 22392, Note_on_c, 1, 72, 127
1, 22413, Note_off_c, 1, 48, 0
1, 22415, Note_off_c, 1, 72, 0
1, 22416, Note_on_c, 1, 71, 127
1, 22416, Note_on_c, 1, 50, 127
1, 22439, Note_off_c, 1, 71, 0
1, 22440, Note_on_c, 1, 69, 127
1, 22461, Note_off_c, 1, 50, 0
1, 22463, Note_off_c, 1, 69, 0
1, 22464, Note_on_c, 1, 72, 127
1, 22464, Note_on_c, 1, 52, 127
1, 22512, Note_on_c, 1, 64, 127
1, 22553, Note_off_c, 1, 72, 0
1, 22553, Note_off_c, 1, 52, 0
1, 22560, Note_on_c, 1, 71, 127
1, 22560, Note_on_c, 1, 40, 127
1, 22601, Note_off_c, 1, 64, 0
1, 22608, Note_on_c, 1, 62, 127
1, 22649, Note_off_c, 1, 71, 0
1, 22649, Note_off_c, 1, 40, 0
1, 22653, Note_off_c, 1, 62, 0
1, 22656, Note_on_c, 1, 69, 127
1, 22656, Note_on_c, 1, 60, 127
1, 22656, Note_on_c, 1, 45, 127
1, 22679, Note_off_c, 1, 69, 0
1, 22680, Note_on_c, 1, 65, 127
1, 22701, Note_off_c, 1, 60, 0
1, 22703, Note_off_c, 1, 65, 0
1, 22704, Note_on_c, 1, 64, 127
1, 22727, Note_off_c, 1, 64, 0
1, 22728, Note_on_c, 1, 62, 127
1, 22751, Note_off_c, 1, 62, 0
1, 22824, Note_on_c, 1, 59, 127
1, 22833, Note_off_c, 1, 45, 0
1, 22847, Note_off_c, 1, 59, 0
1, 22848, Note_on_c, 1, 57, 127
1, 22848, Note_on_c, 1, 45, 127
1, 22871, Note_off_c, 1, 57, 0
1, 22872, Note_on_c, 1, 60, 127
1, 22893, Note_off_c, 1, 45, 0
1, 22895, Note_off_c, 1, 60, 0
1, 22896, Note_on_c, 1, 64, 127
1, 22896, Note_on_c, 1, 48, 127
1, 22919, Note_off_c, 1, 64, 0
1, 22920, Note_on_c, 1, 69, 127
1, 22941, Note_off_c, 1, 48, 0
1, 22943, Note_off_c, 1, 69, 0
1, 22944, Note_on_c, 1, 72, 127
1, 22944, Note_on_c, 1, 52, 127
1, 22989, Note_off_c, 1, 52, 0
1, 22992, Note_on_c, 1, 55, 127
1, 23037, Note_off_c, 1, 55, 0
1, 23040, Note_on_c, 1, 54, 127
1, 23063, Note_off_c, 1, 72, 0
1, 23064, Note_on_c, 1, 62, 127
1, 23085, Note_off_c, 1, 54, 0
1, 23087, Note_off_c, 1, 62, 0
1, 23088, Note_on_c, 1, 66, 127
1, 23088, Note_on_c, 1, 50, 127
1, 23111, Note_off_c, 1, 66, 0
1, 23112, Note_on_c, 1, 69, 127
1, 23133, Note_off_c, 1, 50, 0
1, 23135, Note_off_c, 1, 69, 0
1, 23136, Note_on_c, 1, 72, 127
1, 23136, Note_on_c, 1, 54, 127
1, 23159, Note_off_c, 1, 72, 0
1, 23160, Note_on_c, 1, 69, 127
1, 23181, Note_off_c, 1, 54, 0
1, 23183, Note_off_c, 1, 69, 0
1, 23184, Note_on_c, 1, 72, 127
1, 23184, Note_on_c, 1, 57, 127
1, 23207, Note_off_c, 1, 72, 0
1, 23208, Note_on_c, 1, 78, 127
1, 23229, Note_off_c, 1, 57, 0
1, 23231, Note_off_c, 1, 78, 0
1, 23232, Note_on_c, 1, 81, 127
1, 23232, Note_on_c, 1, 62, 127
1, 23255, Note_off_c, 1, 81, 0
1, 23256, Note_on_c, 1, 79, 127
1, 23277, Note_off_c, 1, 62, 0
1, 23279, Note_off_c, 1, 79, 0
1, 23280, Note_on_c, 1, 78, 127
1, 23280, Note_on_c, 1, 57, 127
1, 23303, Note_off_c, 1, 78, 0
1, 23304, Note_on_c, 1, 76, 127
1, 23325, Note_off_c, 1, 57, 0
1, 23327, Note_off_c, 1, 76, 0
1, 23328, Note_on_c, 1, 74, 127
1, 23328, Note_on_c, 1, 54, 127
1, 23351, Note_off_c, 1, 74, 0
1, 23352, Note_on_c, 1, 72, 127
1, 23373, Note_off_c, 1, 54, 0
1, 23375, Note_off_c, 1, 72, 0
1, 23376, Note_on_c, 1, 71, 127
1, 23376, Note_on_c, 1, 50, 127
1, 23399, Note_off_c, 1, 71, 0
1, 23400, Note_on_c, 1, 69, 127
1, 23421, Note_off_c, 1, 50, 0
1, 23423, Note_off_c, 1, 69, 0
1, 23424, Note_on_c, 1, 72, 127
1, 23424, Note_on_c, 1, 55, 127
1, 23447, Note_off_c, 1, 72, 0
1, 23448, Note_on_c, 1, 71, 127
1, 23469, Note_off_c, 1, 55, 0
1, 23471, Note_off_c, 1, 71, 0
1, 23472, Note_on_c, 1, 69, 127
1, 23472, Note_on_c, 1, 43, 127
1, 23495, Note_off_c, 1, 69, 0
1, 23496, Note_on_c, 1, 67, 127
1, 23519, Note_off_c, 1, 67, 0
1, 23520, Note_on_c, 1, 71, 127
1, 23543, Note_off_c, 1, 43, 0
1, 23544, Note_on_c, 1, 45, 127
1, 23567, Note_off_c, 1, 45, 0
1, 23592, Note_on_c, 1, 42, 127
1, 23615, Note_off_c, 1, 42, 0
1, 23639, Note_off_c, 1, 71, 0
1, 23664, Note_on_c, 1, 71, 127
1, 23664, Note_on_c, 1, 55, 127
1, 23687, Note_off_c, 1, 71, 0
1, 23688, Note_on_c, 1, 73, 127
1, 23709, Note_off_c, 1, 55, 0
1, 23711, Note_off_c, 1, 73, 0
1, 23712, Note_on_c, 1, 75, 127
1, 23712, Note_on_c, 1, 54, 127
1, 23735, Note_off_c, 1, 75, 0
1, 23736, Note_on_c, 1, 76, 127
1, 23757, Note_off_c, 1, 54, 0
1, 23759, Note_off_c, 1, 76, 0
1, 23760, Note_on_c, 1, 78, 127
1, 23760, Note_on_c, 1, 52, 127
1, 23783, Note_off_c, 1, 78, 0
1, 23784, Note_on_c, 1, 79, 127
1, 23805, Note_off_c, 1, 52, 0
1, 23807, Note_off_c, 1, 79, 0
1, 23808, Note_on_c, 1, 81, 127
1, 23808, Note_on_c, 1, 54, 127
1, 23831, Note_off_c, 1, 81, 0
1, 23832, Note_on_c, 1, 83, 127
1, 23853, Note_off_c, 1, 54, 0
1, 23855, Note_off_c, 1, 83, 0
1, 23856, Note_on_c, 1, 81, 127
1, 23856, Note_on_c, 1, 47, 127
1, 23879, Note_off_c, 1, 81, 0
1, 23880, Note_on_c, 1, 79, 127
1, 23901, Note_off_c, 1, 47, 0
1, 23903, Note_off_c, 1, 79, 0
1, 23904, Note_on_c, 1, 81, 127
1, 23904, Note_on_c, 1, 51, 127
1, 23927, Note_off_c, 1, 81, 0
1, 23928, Note_on_c, 1, 79, 127
1, 23949, Note_off_c, 1, 51, 0
1, 23951, Note_off_c, 1, 79, 0
1, 23952, Note_on_c, 1, 78, 127
1, 23952, Note_on_c, 1, 54, 127
1, 23975, Note_off_c, 1, 78, 0
1, 23976, Note_on_c, 1, 76, 127
1, 23997, Note_off_c, 1, 54, 0
1, 23999, Note_off_c, 1, 76, 0
1, 24000, Note_on_c, 1, 75, 127
1, 24000, Note_on_c, 1, 59, 127
1, 24023, Note_off_c, 1, 75, 0
1, 24024, Note_on_c, 1, 76, 127
1, 24045, Note_off_c, 1, 59, 0
1, 24047, Note_off_c, 1, 76, 0
1, 24048, Note_on_c, 1, 75, 127
1, 24048, Note_on_c, 1, 54, 127
1, 24071, Note_off_c, 1, 75, 0
1, 24072, Note_on_c, 1, 73, 127
1, 24093, Note_off_c, 1, 54, 0
1, 24095, Note_off_c, 1, 73, 0
1, 24096, Note_on_c, 1, 75, 127
1, 24096, Note_on_c, 1, 47, 127
1, 24119, Note_off_c, 1, 75, 0
1, 24120, Note_on_c, 1, 73, 127
1, 24141, Note_off_c, 1, 47, 0
1, 24143, Note_off_c, 1, 73, 0
1, 24144, Note_on_c, 1, 71, 127
1, 24144, Note_on_c, 1, 51, 127
1, 24167, Note_off_c, 1, 71, 0
1, 24168, Note_on_c, 1, 69, 127
1, 24189, Note_off_c, 1, 51, 0
1, 24191, Note_off_c, 1, 69, 0
1, 24192, Note_on_c, 1, 67, 127
1, 24192, Note_on_c, 1, 52, 127
1, 24215, Note_off_c, 1, 67, 0
1, 24216, Note_on_c, 1, 69, 127
1, 24237, Note_off_c, 1, 52, 0
1, 24239, Note_off_c, 1, 69, 0
1, 24240, Note_on_c, 1, 67, 127
1, 24240, Note_on_c, 1, 40, 127
1, 24263, Note_off_c, 1, 67, 0
1, 24264, Note_on_c, 1, 66, 127
1, 24285, Note_off_c, 1, 40, 0
1, 24287, Note_off_c, 1, 66, 0
1, 24288, Note_on_c, 1, 67, 127
1, 24288, Note_on_c, 1, 52, 127
1, 24311, Note_off_c, 1, 67, 0
1, 24312, Note_on_c, 1, 66, 127
1, 24333, Note_off_c, 1, 52, 0
1, 24335, Note_off_c, 1, 66, 0
1, 24336, Note_on_c, 1, 64, 127
1, 24336, Note_on_c, 1, 54, 127
1, 24359, Note_off_c, 1, 64, 0
1, 24360, Note_on_c, 1, 63, 127
1, 24381, Note_off_c, 1, 54, 0
1, 24383, Note_off_c, 1, 63, 0
1, 24384, Note_on_c, 1, 64, 127
1, 24384, Note_on_c, 1, 55, 127
1, 24407, Note_off_c, 1, 55, 0
1, 24408, Note_on_c, 1, 59, 127
1, 24429, Note_off_c, 1, 64, 0
1, 24431, Note_off_c, 1, 59, 0
1, 24432, Note_on_c, 1, 76, 127
1, 24432, Note_on_c, 1, 57, 127
1, 24455, Note_off_c, 1, 57, 0
1, 24456, Note_on_c, 1, 55, 127
1, 24479, Note_off_c, 1, 55, 0
1, 24521, Note_off_c, 1, 76, 0
1, 24528, Note_on_c, 1, 74, 127
1, 24528, Note_on_c, 1, 54, 127
1, 24551, Note_off_c, 1, 54, 0
1, 24552, Note_on_c, 1, 52, 127
1, 24573, Note_off_c, 1, 74, 0
1, 24575, Note_off_c, 1, 52, 0
1, 24576, Note_on_c, 1, 72, 127
1, 24576, Note_on_c, 1, 57, 127
1, 24599, Note_off_c, 1, 72, 0
1, 24600, Note_on_c, 1, 69, 127
1, 24621, Note_off_c, 1, 57, 0
1, 24623, Note_off_c, 1, 69, 0
1, 24624, Note_on_c, 1, 67, 127
1, 24624, Note_on_c, 1, 60, 127
1, 24647, Note_off_c, 1, 67, 0
1, 24648, Note_on_c, 1, 66, 127
1, 24669, Note_off_c, 1, 60, 0
1, 24671, Note_off_c, 1, 66, 0
1, 24672, Note_on_c, 1, 67, 127
1, 24672, Note_on_c, 1, 50, 127
1, 24695, Note_off_c, 1, 67, 0
1, 24696, Note_on_c, 1, 66, 127
1, 24717, Note_off_c, 1, 50, 0
1, 24719, Note_off_c, 1, 66, 0
1, 24720, Note_on_c, 1, 64, 127
1, 24720, Note_on_c, 1, 54, 127
1, 24743, Note_off_c, 1, 64, 0
1, 24744, Note_on_c, 1, 62, 127
1, 24765, Note_off_c, 1, 54, 0
1, 24767, Note_off_c, 1, 62, 0
1, 24768, Note_on_c, 1, 71, 127
1, 24768, Note_on_c, 1, 55, 127
1, 24791, Note_off_c, 1, 71, 0
1, 24792, Note_on_c, 1, 67, 127
1, 24813, Note_off_c, 1, 55, 0
1, 24815, Note_off_c, 1, 67, 0
1, 24816, Note_on_c, 1, 66, 127
1, 24816, Note_on_c, 1, 59, 127
1, 24839, Note_off_c, 1, 66, 0
1, 24840, Note_on_c, 1, 64, 127
1, 24861, Note_off_c, 1, 59, 0
1, 24863, Note_off_c, 1, 64, 0
1, 24864, Note_on_c, 1, 66, 127
1, 24864, Note_on_c, 1, 48, 127
1, 24887, Note_off_c, 1, 66, 0
1, 24888, Note_on_c, 1, 64, 127
1, 24909, Note_off_c, 1, 48, 0
1, 24911, Note_off_c, 1, 64, 0
1, 24912, Note_on_c, 1, 62, 127
1, 24912, Note_on_c, 1, 52, 127
1, 24935, Note_off_c, 1, 62, 0
1, 24936, Note_on_c, 1, 60, 127
1, 24957, Note_off_c, 1, 52, 0
1, 24959, Note_off_c, 1, 60, 0
1, 24960, Note_on_c, 1, 69, 127
1, 24960, Note_on_c, 1, 54, 127
1, 24983, Note_off_c, 1, 69, 0
1, 24984, Note_on_c, 1, 66, 127
1, 25005, Note_off_c, 1, 54, 0
1, 25007, Note_off_c, 1, 66, 0
1, 25008, Note_on_c, 1, 64, 127
1, 25008, Note_on_c, 1, 57, 127
1, 25031, Note_off_c, 1, 64, 0
1, 25032, Note_on_c, 1, 63, 127
1, 25053, Note_off_c, 1, 57, 0
1, 25055, Note_off_c, 1, 63, 0
1, 25056, Note_on_c, 1, 64, 127
1, 25056, Note_on_c, 1, 47, 127
1, 25079, Note_off_c, 1, 64, 0
1, 25080, Note_on_c, 1, 63, 127
1, 25101, Note_off_c, 1, 47, 0
1, 25103, Note_off_c, 1, 63, 0
1, 25104, Note_on_c, 1, 61, 127
1, 25104, Note_on_c, 1, 51, 127
1, 25127, Note_off_c, 1, 61, 0
1, 25128, Note_on_c, 1, 59, 127
1, 25149, Note_off_c, 1, 51, 0
1, 25151, Note_off_c, 1, 59, 0
1, 25152, Note_on_c, 1, 67, 127
1, 25152, Note_on_c, 1, 52, 127
1, 25175, Note_off_c, 1, 52, 0
1, 25176, Note_on_c, 1, 47, 127
1, 25199, Note_off_c, 1, 47, 0
1, 25200, Note_on_c, 1, 45, 127
1, 25223, Note_off_c, 1, 45, 0
1, 25224, Note_on_c, 1, 43, 127
1, 25247, Note_off_c, 1, 43, 0
1, 25296, Note_on_c, 1, 42, 127
1, 25319, Note_off_c, 1, 42, 0
1, 25320, Note_on_c, 1, 40, 127
1, 25343, Note_off_c, 1, 40, 0
1, 25367, Note_off_c, 1, 67, 0
1, 25368, Note_on_c, 1, 64, 127
1, 25391, Note_off_c, 1, 64, 0
1, 25392, Note_on_c, 1, 63, 127
1, 25392, Note_on_c, 1, 47, 127
1, 25415, Note_off_c, 1, 63, 0
1, 25416, Note_on_c, 1, 64, 127
1, 25437, Note_off_c, 1, 47, 0
1, 25439, Note_off_c, 1, 64, 0
1, 25440, Note_on_c, 1, 66, 127
1, 25440, Note_on_c, 1, 48, 127
1, 25463, Note_off_c, 1, 66, 0
1, 25464, Note_on_c, 1, 67, 127
1, 25485, Note_off_c, 1, 48, 0
1, 25487, Note_off_c, 1, 67, 0
1, 25488, Note_on_c, 1, 69, 127
1, 25488, Note_on_c, 1, 47, 127
1, 25511, Note_off_c, 1, 69, 0
1, 25512, Note_on_c, 1, 71, 127
1, 25533, Note_off_c, 1, 47, 0
1, 25535, Note_off_c, 1, 71, 0
1, 25536, Note_on_c, 1, 72, 127
1, 25536, Note_on_c, 1, 45, 127
1, 25559, Note_off_c, 1, 72, 0
1, 25560, Note_on_c, 1, 71, 127
1, 25581, Note_off_c, 1, 45, 0
1, 25583, Note_off_c, 1, 71, 0
1, 25584, Note_on_c, 1, 69, 127
1, 25584, Note_on_c, 1, 48, 127
1, 25607, Note_off_c, 1, 69, 0
1, 25608, Note_on_c, 1, 67, 127
1, 25629, Note_off_c, 1, 48, 0
1, 25631, Note_off_c, 1, 67, 0
1, 25632, Note_on_c, 1, 66, 127
1, 25632, Note_on_c, 1, 46, 127
1, 25677, Note_off_c, 1, 66, 0
1, 25677, Note_off_c, 1, 46, 0
1, 25680, Note_on_c, 1, 64, 127
1, 25680, Note_on_c, 1, 42, 127
1, 25725, Note_off_c, 1, 42, 0
1, 25728, Note_on_c, 1, 47, 127
1, 25751, Note_off_c, 1, 64, 0
1, 25752, Note_on_c, 1, 72, 127
1, 25775, Note_off_c, 1, 72, 0
1, 25776, Note_on_c, 1, 71, 127
1, 25776, Note_on_c, 1, 49, 127
1, 25799, Note_off_c, 1, 71, 0
1, 25800, Note_on_c, 1, 70, 127
1, 25823, Note_off_c, 1, 70, 0
1, 25824, Note_off_c, 1, 49, 0
1, 25824, Note_on_c, 1, 51, 127
1, 25848, Note_on_c, 1, 67, 127
1, 25871, Note_off_c, 1, 67, 0
1, 25872, Note_off_c, 1, 51, 0
1, 25872, Note_on_c, 1, 66, 127
1, 25872, Note_on_c, 1, 52, 127
1, 25895, Note_off_c, 1, 66, 0
1, 25920, Note_off_c, 1, 52, 0
1, 25920, Note_on_c, 1, 63, 127
1, 25920, Note_on_c, 1, 54, 127
1, 25943, Note_off_c, 1, 63, 0
1, 25944, Note_on_c, 1, 61, 127
1, 25967, Note_off_c, 1, 61, 0
1, 25968, Note_off_c, 1, 54, 0
1, 25968, Note_on_c, 1, 59, 127
1, 26009, Note_off_c, 1, 47, 0
1, 26013, Note_off_c, 1, 59, 0
1, 26112, Note_on_c, 1, 55, 127
1, 26112, Note_on_c, 1, 40, 127
1, 26157, Note_off_c, 1, 55, 0
1, 26157, Note_off_c, 1, 40, 0
1, 26160, Note_on_c, 1, 57, 127
1, 26160, Note_on_c, 1, 52, 127
1, 26205, Note_off_c, 1, 57, 0
1, 26205, Note_off_c, 1, 52, 0
1, 26208, Note_on_c, 1, 59, 127
1, 26208, Note_on_c, 1, 42, 127
1, 26231, Note_off_c, 1, 59, 0
1, 26232, Note_on_c, 1, 57, 127
1, 26253, Note_off_c, 1, 42, 0
1, 26255, Note_off_c, 1, 57, 0
1, 26256, Note_on_c, 1, 55, 127
1, 26256, Note_on_c, 1, 51, 127
1, 26279, Note_off_c, 1, 55, 0
1, 26280, Note_on_c, 1, 57, 127
1, 26301, Note_off_c, 1, 51, 0
1, 26303, Note_off_c, 1, 57, 0
1, 26304, Note_on_c, 1, 59, 127
1, 26304, Note_on_c, 1, 43, 127
1, 26349, Note_off_c, 1, 59, 0
1, 26349, Note_off_c, 1, 43, 0
1, 26352, Note_on_c, 1, 52, 127
1, 26352, Note_on_c, 1, 45, 127
1, 26375, Note_off_c, 1, 45, 0
1, 26376, Note_on_c, 1, 47, 127
1, 26397, Note_off_c, 1, 52, 0
1, 26399, Note_off_c, 1, 47, 0
1, 26400, Note_on_c, 1, 64, 127
1, 26400, Note_on_c, 1, 45, 127
1, 26423, Note_off_c, 1, 45, 0
1, 26424, Note_on_c, 1, 43, 127
1, 26447, Note_off_c, 1, 43, 0
1, 26448, Note_on_c, 1, 42, 127
1, 26471, Note_off_c, 1, 42, 0
1, 26472, Note_on_c, 1, 40, 127
1, 26495, Note_off_c, 1, 40, 0
1, 26496, Note_on_c, 1, 47, 127
1, 26541, Note_off_c, 1, 64, 0
1, 26541, Note_off_c, 1, 47, 0
1, 26544, Note_on_c, 1, 63, 127
1, 26544, Note_on_c, 1, 54, 127
1, 26567, Note_off_c, 1, 63, 0
1, 26568, Note_on_c, 1, 64, 127
1, 26589, Note_off_c, 1, 54, 0
1, 26591, Note_off_c, 1, 64, 0
1, 26592, Note_on_c, 1, 66, 127
1, 26592, Note_on_c, 1, 49, 127
1, 26615, Note_off_c, 1, 66, 0
1, 26616, Note_on_c, 1, 64, 127
1, 26637, Note_off_c, 1, 49, 0
1, 26639, Note_off_c, 1, 64, 0
1, 26640, Note_on_c, 1, 63, 127
1, 26640, Note_on_c, 1, 54, 127
1, 26663, Note_off_c, 1, 63, 0
1, 26664, Note_on_c, 1, 61, 127
1, 26685, Note_off_c, 1, 54, 0
1, 26687, Note_off_c, 1, 61, 0
1, 26688, Note_on_c, 1, 59, 127
1, 26688, Note_on_c, 1, 51, 127
1, 26733, Note_off_c, 1, 59, 0
1, 26733, Note_off_c, 1, 51, 0
1, 26736, Note_on_c, 1, 63, 127
1, 26736, Note_on_c, 1, 52, 127
1, 26759, Note_off_c, 1, 52, 0
1, 26760, Note_on_c, 1, 54, 127
1, 26781, Note_off_c, 1, 63, 0
1, 26783, Note_off_c, 1, 54, 0
1, 26784, Note_on_c, 1, 66, 127
1, 26784, Note_on_c, 1, 52, 127
1, 26807, Note_off_c, 1, 52, 0
1, 26808, Note_on_c, 1, 51, 127
1, 26829, Note_off_c, 1, 66, 0
1, 26831, Note_off_c, 1, 51, 0
1, 26832, Note_on_c, 1, 69, 127
1, 26832, Note_on_c, 1, 49, 127
1, 26855, Note_off_c, 1, 49, 0
1, 26856, Note_on_c, 1, 47, 127
1, 26879, Note_off_c, 1, 47, 0
1, 26880, Note_on_c, 1, 52, 127
1, 26925, Note_off_c, 1, 69, 0
1, 26925, Note_off_c, 1, 52, 0
1, 26928, Note_on_c, 1, 67, 127
1, 26928, Note_on_c, 1, 47, 127
1, 26951, Note_off_c, 1, 67, 0
1, 26952, Note_on_c, 1, 69, 127
1, 26973, Note_off_c, 1, 47, 0
1, 26975, Note_off_c, 1, 69, 0
1, 26976, Note_on_c, 1, 71, 127
1, 26976, Note_on_c, 1, 54, 127
1, 26999, Note_off_c, 1, 71, 0
1, 27000, Note_on_c, 1, 69, 127
1, 27021, Note_off_c, 1, 54, 0
1, 27023, Note_off_c, 1, 69, 0
1, 27024, Note_on_c, 1, 67, 127
1, 27024, Note_on_c, 1, 47, 127
1, 27047, Note_off_c, 1, 67, 0
1, 27048, Note_on_c, 1, 66, 127
1, 27069, Note_off_c, 1, 47, 0
1, 27071, Note_off_c, 1, 66, 0
1, 27072, Note_on_c, 1, 64, 127
1, 27072, Note_on_c, 1, 55, 127
1, 27117, Note_off_c, 1, 64, 0
1, 27117, Note_off_c, 1, 55, 0
1, 27120, Note_on_c, 1, 67, 127
1, 27120, Note_on_c, 1, 57, 127
1, 27143, Note_off_c, 1, 57, 0
1, 27144, Note_on_c, 1, 59, 127
1, 27165, Note_off_c, 1, 67, 0
1, 27167, Note_off_c, 1, 59, 0
1, 27168, Note_on_c, 1, 71, 127
1, 27168, Note_on_c, 1, 57, 127
1, 27191, Note_off_c, 1, 57, 0
1, 27192, Note_on_c, 1, 55, 127
1, 27213, Note_off_c, 1, 71, 0
1, 27215, Note_off_c, 1, 55, 0
1, 27216, Note_on_c, 1, 76, 127
1, 27216, Note_on_c, 1, 54, 127
1, 27239, Note_off_c, 1, 54, 0
1, 27240, Note_on_c, 1, 52, 127
1, 27263, Note_off_c, 1, 52, 0
1, 27264, Note_on_c, 1, 59, 127
1, 27309, Note_off_c, 1, 76, 0
1, 27309, Note_off_c, 1, 59, 0
1, 27312, Note_on_c, 1, 75, 127
1, 27312, Note_on_c, 1, 47, 127
1, 27335, Note_off_c, 1, 75, 0
1, 27336, Note_on_c, 1, 76, 127
1, 27357, Note_off_c, 1, 47, 0
1, 27359, Note_off_c, 1, 76, 0
1, 27360, Note_on_c, 1, 78, 127
1, 27360, Note_on_c, 1, 59, 127
1, 27383, Note_off_c, 1, 78, 0
1, 27384, Note_on_c, 1, 76, 127
1, 27405, Note_off_c, 1, 59, 0
1, 27407, Note_off_c, 1, 76, 0
1, 27408, Note_on_c, 1, 75, 127
1, 27408, Note_on_c, 1, 61, 127
1, 27431, Note_off_c, 1, 75, 0
1, 27432, Note_on_c, 1, 73, 127
1, 27453, Note_off_c, 1, 61, 0
1, 27455, Note_off_c, 1, 73, 0
1, 27456, Note_on_c, 1, 71, 127
1, 27456, Note_on_c, 1, 63, 127
1, 27501, Note_off_c, 1, 63, 0
1, 27504, Note_on_c, 1, 64, 127
1, 27527, Note_off_c, 1, 64, 0
1, 27528, Note_on_c, 1, 66, 127
1, 27551, Note_off_c, 1, 66, 0
1, 27600, Note_on_c, 1, 61, 127
1, 27623, Note_off_c, 1, 61, 0
1, 27624, Note_on_c, 1, 59, 127
1, 27633, Note_off_c, 1, 71, 0
1, 27647, Note_off_c, 1, 59, 0
1, 27648, Note_on_c, 1, 79, 127
1, 27648, Note_on_c, 1, 64, 127
1, 27693, Note_off_c, 1, 64, 0
1, 27696, Note_on_c, 1, 52, 127
1, 27741, Note_off_c, 1, 52, 0
1, 27744, Note_on_c, 1, 71, 127
1, 27792, Note_on_c, 1, 62, 127
1, 27833, Note_off_c, 1, 71, 0
1, 27837, Note_off_c, 1, 62, 0
1, 27840, Note_on_c, 1, 69, 127
1, 27840, Note_on_c, 1, 60, 127
1, 27885, Note_off_c, 1, 60, 0
1, 27913, Note_off_c, 1, 79, 0
1, 27984, Note_on_c, 1, 59, 127
1, 28007, Note_off_c, 1, 59, 0
1, 28008, Note_on_c, 1, 57, 127
1, 28031, Note_off_c, 1, 57, 0
1, 28032, Note_on_c, 1, 78, 127
1, 28080, Note_on_c, 1, 50, 127
1, 28121, Note_off_c, 1, 69, 0
1, 28125, Note_off_c, 1, 50, 0
1, 28224, Note_on_c, 1, 67, 127
1, 28297, Note_off_c, 1, 78, 0
1, 28320, Note_on_c, 1, 77, 127
1, 28392, Note_on_c, 1, 55, 127
1, 28409, Note_off_c, 1, 77, 0
1, 28415, Note_off_c, 1, 55, 0
1, 28440, Note_on_c, 1, 76, 127
1, 28461, Note_off_c, 1, 67, 0
1, 28463, Note_off_c, 1, 76, 0
1, 28464, Note_on_c, 1, 74, 127
1, 28464, Note_on_c, 1, 48, 127
1, 28487, Note_off_c, 1, 74, 0
1, 28488, Note_on_c, 1, 72, 127
1, 28509, Note_off_c, 1, 48, 0
1, 28511, Note_off_c, 1, 72, 0
1, 28512, Note_on_c, 1, 74, 127
1, 28535, Note_off_c, 1, 74, 0
1, 28536, Note_on_c, 1, 72, 127
1, 28536, Note_on_c, 1, 52, 127
1, 28559, Note_off_c, 1, 72, 0
1, 28559, Note_off_c, 1, 52, 0
1, 28560, Note_on_c, 1, 71, 127
1, 28560, Note_on_c, 1, 50, 127
1, 28583, Note_off_c, 1, 71, 0
1, 28583, Note_off_c, 1, 50, 0
1, 28584, Note_on_c, 1, 69, 127
1, 28584, Note_on_c, 1, 48, 127
1, 28607, Note_off_c, 1, 69, 0
1, 28607, Note_off_c, 1, 48, 0
1, 28608, Note_on_c, 1, 68, 127
1, 28608, Note_on_c, 1, 47, 127
1, 28631, Note_off_c, 1, 68, 0
1, 28632, Note_on_c, 1, 77, 127
1, 28653, Note_off_c, 1, 47, 0
1, 28655, Note_off_c, 1, 77, 0
1, 28656, Note_on_c, 1, 76, 127
1, 28656, Note_on_c, 1, 59, 127
1, 28679, Note_off_c, 1, 76, 0
1, 28680, Note_on_c, 1, 74, 127
1, 28701, Note_off_c, 1, 59, 0
1, 28703, Note_off_c, 1, 74, 0
1, 28704, Note_on_c, 1, 76, 127
1, 28704, Note_on_c, 1, 56, 127
1, 28727, Note_off_c, 1, 76, 0
1, 28728, Note_on_c, 1, 74, 127
1, 28749, Note_off_c, 1, 56, 0
1, 28751, Note_off_c, 1, 74, 0
1, 28752, Note_on_c, 1, 72, 127
1, 28752, Note_on_c, 1, 52, 127
1, 28775, Note_off_c, 1, 72, 0
1, 28776, Note_on_c, 1, 71, 127
1, 28797, Note_off_c, 1, 52, 0
1, 28799, Note_off_c, 1, 71, 0
1, 28800, Note_on_c, 1, 72, 127
1, 28800, Note_on_c, 1, 57, 127
1, 28823, Note_off_c, 1, 72, 0
1, 28823, Note_off_c, 1, 57, 0
1, 28824, Note_on_c, 1, 71, 127
1, 28824, Note_on_c, 1, 59, 127
1, 28847, Note_off_c, 1, 71, 0
1, 28847, Note_off_c, 1, 59, 0
1, 28848, Note_on_c, 1, 69, 127
1, 28848, Note_on_c, 1, 60, 127
1, 28871, Note_off_c, 1, 69, 0
1, 28872, Note_on_c, 1, 67, 127
1, 28895, Note_off_c, 1, 67, 0
1, 28919, Note_off_c, 1, 60, 0
1, 28920, Note_on_c, 1, 67, 127
1, 28920, Note_on_c, 1, 59, 127
1, 28943, Note_off_c, 1, 67, 0
1, 28943, Note_off_c, 1, 59, 0
1, 28944, Note_on_c, 1, 66, 127
1, 28944, Note_on_c, 1, 57, 127
1, 28967, Note_off_c, 1, 66, 0
1, 28967, Note_off_c, 1, 57, 0
1, 28968, Note_on_c, 1, 64, 127
1, 28968, Note_on_c, 1, 55, 127
1, 28991, Note_off_c, 1, 64, 0
1, 28991, Note_off_c, 1, 55, 0
1, 28992, Note_on_c, 1, 63, 127
1, 28992, Note_on_c, 1, 54, 127
1, 29015, Note_off_c, 1, 63, 0
1, 29016, Note_on_c, 1, 72, 127
1, 29037, Note_off_c, 1, 54, 0
1, 29039, Note_off_c, 1, 72, 0
1, 29040, Note_on_c, 1, 71, 127
1, 29040, Note_on_c, 1, 57, 127
1, 29063, Note_off_c, 1, 71, 0
1, 29064, Note_on_c, 1, 69, 127
1, 29085, Note_off_c, 1, 57, 0
1, 29087, Note_off_c, 1, 69, 0
1, 29088, Note_on_c, 1, 71, 127
1, 29088, Note_on_c, 1, 51, 127
1, 29111, Note_off_c, 1, 71, 0
1, 29112, Note_on_c, 1, 69, 127
1, 29133, Note_off_c, 1, 51, 0
1, 29135, Note_off_c, 1, 69, 0
1, 29136, Note_on_c, 1, 67, 127
1, 29136, Note_on_c, 1, 59, 127
1, 29159, Note_off_c, 1, 67, 0
1, 29160, Note_on_c, 1, 66, 127
1, 29181, Note_off_c, 1, 59, 0
1, 29183, Note_off_c, 1, 66, 0
1, 29184, Note_on_c, 1, 67, 127
1, 29184, Note_on_c, 1, 52, 127
1, 29207, Note_off_c, 1, 67, 0
1, 29207, Note_off_c, 1, 52, 0
1, 29208, Note_on_c, 1, 66, 127
1, 29208, Note_on_c, 1, 54, 127
1, 29231, Note_off_c, 1, 66, 0
1, 29231, Note_off_c, 1, 54, 0
1, 29232, Note_on_c, 1, 64, 127
1, 29232, Note_on_c, 1, 55, 127
1, 29255, Note_off_c, 1, 64, 0
1, 29256, Note_on_c, 1, 62, 127
1, 29279, Note_off_c, 1, 62, 0
1, 29303, Note_off_c, 1, 55, 0
1, 29304, Note_on_c, 1, 62, 127
1, 29304, Note_on_c, 1, 54, 127
1, 29327, Note_off_c, 1, 62, 0
1, 29327, Note_off_c, 1, 54, 0
1, 29328, Note_on_c, 1, 61, 127
1, 29328, Note_on_c, 1, 52, 127
1, 29351, Note_off_c, 1, 61, 0
1, 29351, Note_off_c, 1, 52, 0
1, 29352, Note_on_c, 1, 59, 127
1, 29352, Note_on_c, 1, 50, 127
1, 29375, Note_off_c, 1, 59, 0
1, 29375, Note_off_c, 1, 50, 0
1, 29376, Note_on_c, 1, 58, 127
1, 29376, Note_on_c, 1, 49, 127
1, 29399, Note_off_c, 1, 58, 0
1, 29400, Note_on_c, 1, 67, 127
1, 29421, Note_off_c, 1, 49, 0
1, 29423, Note_off_c, 1, 67, 0
1, 29424, Note_on_c, 1, 66, 127
1, 29424, Note_on_c, 1, 59, 127
1, 29447, Note_off_c, 1, 66, 0
1, 29448, Note_on_c, 1, 64, 127
1, 29469, Note_off_c, 1, 59, 0
1, 29471, Note_off_c, 1, 64, 0
1, 29472, Note_on_c, 1, 66, 127
1, 29472, Note_on_c, 1, 58, 127
1, 29495, Note_off_c, 1, 66, 0
1, 29496, Note_on_c, 1, 64, 127
1, 29517, Note_off_c, 1, 58, 0
1, 29519, Note_off_c, 1, 64, 0
1, 29520, Note_on_c, 1, 63, 127
1, 29520, Note_on_c, 1, 50, 127
1, 29543, Note_off_c, 1, 63, 0
1, 29544, Note_on_c, 1, 61, 127
1, 29565, Note_off_c, 1, 50, 0
1, 29567, Note_off_c, 1, 61, 0
1, 29568, Note_on_c, 1, 63, 127
1, 29568, Note_on_c, 1, 47, 127
1, 29592, Note_on_c, 1, 60, 127
1, 29616, Note_off_c, 1, 60, 0
1, 29616, Note_on_c, 1, 59, 127
1, 29640, Note_off_c, 1, 59, 0
1, 29640, Note_on_c, 1, 57, 127
1, 29664, Note_off_c, 1, 57, 0
1, 29712, Note_on_c, 1, 55, 127
1, 29736, Note_off_c, 1, 55, 0
1, 29736, Note_on_c, 1, 54, 127
1, 29760, Note_off_c, 1, 54, 0
1, 29783, Note_off_c, 1, 63, 0
1, 29784, Note_on_c, 1, 71, 127
1, 29807, Note_off_c, 1, 71, 0
1, 29808, Note_on_c, 1, 69, 127
1, 29831, Note_off_c, 1, 69, 0
1, 29832, Note_on_c, 1, 67, 127
1, 29855, Note_off_c, 1, 67, 0
1, 29856, Note_on_c, 1, 52, 127
1, 29904, Note_on_c, 1, 66, 127
1, 29927, Note_off_c, 1, 66, 0
1, 29928, Note_on_c, 1, 64, 127
1, 29951, Note_off_c, 1, 64, 0
1, 29952, Note_on_c, 1, 72, 127
1, 29976, Note_off_c, 1, 52, 0
1, 30041, Note_off_c, 1, 72, 0
1, 30048, Note_on_c, 1, 81, 127
1, 30096, Note_on_c, 1, 51, 127
1, 30120, Note_off_c, 1, 51, 0
1, 30120, Note_on_c, 1, 49, 127
1, 30129, Note_off_c, 1, 47, 0
1, 30144, Note_off_c, 1, 49, 0
1, 30167, Note_off_c, 1, 81, 0
1, 30168, Note_on_c, 1, 78, 127
1, 30191, Note_off_c, 1, 78, 0
1, 30192, Note_on_c, 1, 80, 127
1, 30192, Note_on_c, 1, 48, 127
1, 30215, Note_off_c, 1, 80, 0
1, 30237, Note_off_c, 1, 48, 0
1, 30240, Note_on_c, 1, 83, 127
1, 30240, Note_on_c, 1, 47, 127
1, 30263, Note_off_c, 1, 83, 0
1, 30264, Note_on_c, 1, 81, 127
1, 30285, Note_off_c, 1, 47, 0
1, 30287, Note_off_c, 1, 81, 0
1, 30288, Note_on_c, 1, 80, 127
1, 30288, Note_on_c, 1, 45, 127
1, 30311, Note_off_c, 1, 80, 0
1, 30312, Note_on_c, 1, 81, 127
1, 30333, Note_off_c, 1, 45, 0
1, 30335, Note_off_c, 1, 81, 0
1, 30336, Note_on_c, 1, 83, 127
1, 30336, Note_on_c, 1, 44, 127
1, 30381, Note_off_c, 1, 83, 0
1, 30381, Note_off_c, 1, 44, 0
1, 30384, Note_on_c, 1, 74, 127
1, 30384, Note_on_c, 1, 45, 127
1, 30407, Note_off_c, 1, 45, 0
1, 30408, Note_on_c, 1, 47, 127
1, 30431, Note_off_c, 1, 47, 0
1, 30456, Note_on_c, 1, 44, 127
1, 30473, Note_off_c, 1, 74, 0
1, 30479, Note_off_c, 1, 44, 0
1, 30480, Note_on_c, 1, 73, 127
1, 30480, Note_on_c, 1, 42, 127
1, 30503, Note_off_c, 1, 42, 0
1, 30504, Note_on_c, 1, 40, 127
1, 30525, Note_off_c, 1, 73, 0
1, 30527, Note_off_c, 1, 40, 0
1, 30528, Note_on_c, 1, 72, 127
1, 30528, Note_on_c, 1, 45, 127
1, 30551, Note_off_c, 1, 72, 0
1, 30552, Note_on_c, 1, 76, 127
1, 30573, Note_off_c, 1, 45, 0
1, 30575, Note_off_c, 1, 76, 0
1, 30576, Note_on_c, 1, 78, 127
1, 30576, Note_on_c, 1, 57, 127
1, 30599, Note_off_c, 1, 78, 0
1, 30600, Note_on_c, 1, 79, 127
1, 30623, Note_off_c, 1, 79, 0
1, 30647, Note_off_c, 1, 57, 0
1, 30648, Note_on_c, 1, 76, 127
1, 30648, Note_on_c, 1, 55, 127
1, 30671, Note_off_c, 1, 76, 0
1, 30671, Note_off_c, 1, 55, 0
1, 30672, Note_on_c, 1, 75, 127
1, 30672, Note_on_c, 1, 54, 127
1, 30695, Note_off_c, 1, 75, 0
1, 30695, Note_off_c, 1, 54, 0
1, 30696, Note_on_c, 1, 76, 127
1, 30696, Note_on_c, 1, 52, 127
1, 30719, Note_off_c, 1, 76, 0
1, 30719, Note_off_c, 1, 52, 0
1, 30720, Note_on_c, 1, 78, 127
1, 30720, Note_on_c, 1, 51, 127
1, 30743, Note_off_c, 1, 51, 0
1, 30744, Note_on_c, 1, 54, 127
1, 30765, Note_off_c, 1, 78, 0
1, 30767, Note_off_c, 1, 54, 0
1, 30768, Note_on_c, 1, 69, 127
1, 30768, Note_on_c, 1, 52, 127
1, 30791, Note_off_c, 1, 52, 0
1, 30792, Note_on_c, 1, 51, 127
1, 30815, Note_off_c, 1, 51, 0
1, 30857, Note_off_c, 1, 69, 0
1, 30864, Note_on_c, 1, 68, 127
1, 30864, Note_on_c, 1, 49, 127
1, 30887, Note_off_c, 1, 49, 0
1, 30888, Note_on_c, 1, 47, 127
1, 30909, Note_off_c, 1, 68, 0
1, 30911, Note_off_c, 1, 47, 0
1, 30912, Note_on_c, 1, 67, 127
1, 30912, Note_on_c, 1, 52, 127
1, 30935, Note_off_c, 1, 67, 0
1, 30936, Note_on_c, 1, 71, 127
1, 30957, Note_off_c, 1, 52, 0
1, 30959, Note_off_c, 1, 71, 0
1, 30960, Note_on_c, 1, 72, 127
1, 30960, Note_on_c, 1, 64, 127
1, 30983, Note_off_c, 1, 72, 0
1, 30984, Note_on_c, 1, 74, 127
1, 31007, Note_off_c, 1, 74, 0
1, 31031, Note_off_c, 1, 64, 0
1, 31032, Note_on_c, 1, 71, 127
1, 31032, Note_on_c, 1, 62, 127
1, 31055, Note_off_c, 1, 71, 0
1, 31055, Note_off_c, 1, 62, 0
1, 31056, Note_on_c, 1, 69, 127
1, 31056, Note_on_c, 1, 60, 127
1, 31079, Note_off_c, 1, 69, 0
1, 31079, Note_off_c, 1, 60, 0
1, 31080, Note_on_c, 1, 71, 127
1, 31080, Note_on_c, 1, 59, 127
1, 31103, Note_off_c, 1, 71, 0
1, 31103, Note_off_c, 1, 59, 0
1, 31104, Note_on_c, 1, 72, 127
1, 31104, Note_on_c, 1, 57, 127
1, 31127, Note_off_c, 1, 57, 0
1, 31128, Note_on_c, 1, 59, 127
1, 31149, Note_off_c, 1, 72, 0
1, 31151, Note_off_c, 1, 59, 0
1, 31152, Note_on_c, 1, 77, 127
1, 31152, Note_on_c, 1, 57, 127
1, 31175, Note_off_c, 1, 57, 0
1, 31176, Note_on_c, 1, 56, 127
1, 31199, Note_off_c, 1, 56, 0
1, 31224, Note_on_c, 1, 55, 127
1, 31241, Note_off_c, 1, 77, 0
1, 31247, Note_off_c, 1, 55, 0
1, 31248, Note_on_c, 1, 76, 127
1, 31248, Note_on_c, 1, 54, 127
1, 31271, Note_off_c, 1, 54, 0
1, 31272, Note_on_c, 1, 52, 127
1, 31293, Note_off_c, 1, 76, 0
1, 31295, Note_off_c, 1, 52, 0
1, 31296, Note_on_c, 1, 75, 127
1, 31296, Note_on_c, 1, 54, 127
1, 31319, Note_off_c, 1, 75, 0
1, 31319, Note_off_c, 1, 54, 0
1, 31320, Note_on_c, 1, 84, 127
1, 31320, Note_on_c, 1, 52, 127
1, 31343, Note_off_c, 1, 84, 0
1, 31343, Note_off_c, 1, 52, 0
1, 31344, Note_on_c, 1, 83, 127
1, 31344, Note_on_c, 1, 51, 127
1, 31367, Note_off_c, 1, 83, 0
1, 31367, Note_off_c, 1, 51, 0
1, 31368, Note_on_c, 1, 81, 127
1, 31368, Note_on_c, 1, 49, 127
1, 31391, Note_off_c, 1, 81, 0
1, 31391, Note_off_c, 1, 49, 0
1, 31392, Note_on_c, 1, 83, 127
1, 31392, Note_on_c, 1, 51, 127
1, 31415, Note_off_c, 1, 83, 0
1, 31415, Note_off_c, 1, 51, 0
1, 31416, Note_on_c, 1, 81, 127
1, 31416, Note_on_c, 1, 47, 127
1, 31439, Note_off_c, 1, 81, 0
1, 31439, Note_off_c, 1, 47, 0
1, 31440, Note_on_c, 1, 79, 127
1, 31440, Note_on_c, 1, 49, 127
1, 31463, Note_off_c, 1, 79, 0
1, 31463, Note_off_c, 1, 49, 0
1, 31464, Note_on_c, 1, 78, 127
1, 31464, Note_on_c, 1, 51, 127
1, 31487, Note_off_c, 1, 78, 0
1, 31487, Note_off_c, 1, 51, 0
1, 31488, Note_on_c, 1, 79, 127
1, 31488, Note_on_c, 1, 52, 127
1, 31511, Note_off_c, 1, 79, 0
1, 31511, Note_off_c, 1, 52, 0
1, 31512, Note_on_c, 1, 76, 127
1, 31512, Note_on_c, 1, 60, 127
1, 31535, Note_off_c, 1, 76, 0
1, 31535, Note_off_c, 1, 60, 0
1, 31536, Note_on_c, 1, 75, 127
1, 31536, Note_on_c, 1, 59, 127
1, 31559, Note_off_c, 1, 75, 0
1, 31559, Note_off_c, 1, 59, 0
1, 31560, Note_on_c, 1, 76, 127
1, 31560, Note_on_c, 1, 60, 127
1, 31583, Note_off_c, 1, 76, 0
1, 31583, Note_off_c, 1, 60, 0
1, 31584, Note_on_c, 1, 78, 127
1, 31584, Note_on_c, 1, 50, 127
1, 31607, Note_off_c, 1, 78, 0
1, 31607, Note_off_c, 1, 50, 0
1, 31608, Note_on_c, 1, 74, 127
1, 31608, Note_on_c, 1, 59, 127
1, 31631, Note_off_c, 1, 74, 0
1, 31631, Note_off_c, 1, 59, 0
1, 31632, Note_on_c, 1, 73, 127
1, 31632, Note_on_c, 1, 57, 127
1, 31655, Note_off_c, 1, 73, 0
1, 31655, Note_off_c, 1, 57, 0
1, 31656, Note_on_c, 1, 74, 127
1, 31656, Note_on_c, 1, 59, 127
1, 31679, Note_off_c, 1, 74, 0
1, 31679, Note_off_c, 1, 59, 0
1, 31680, Note_on_c, 1, 76, 127
1, 31680, Note_on_c, 1, 48, 127
1, 31703, Note_off_c, 1, 76, 0
1, 31703, Note_off_c, 1, 48, 0
1, 31704, Note_on_c, 1, 72, 127
1, 31704, Note_on_c, 1, 57, 127
1, 31727, Note_off_c, 1, 72, 0
1, 31727, Note_off_c, 1, 57, 0
1, 31728, Note_on_c, 1, 71, 127
1, 31728, Note_on_c, 1, 55, 127
1, 31751, Note_off_c, 1, 71, 0
1, 31751, Note_off_c, 1, 55, 0
1, 31752, Note_on_c, 1, 72, 127
1, 31752, Note_on_c, 1, 57, 127
1, 31775, Note_off_c, 1, 72, 0
1, 31775, Note_off_c, 1, 57, 0
1, 31776, Note_on_c, 1, 76, 127
1, 31776, Note_on_c, 1, 47, 127
1, 31799, Note_off_c, 1, 76, 0
1, 31799, Note_off_c, 1, 47, 0
1, 31800, Note_on_c, 1, 71, 127
1, 31800, Note_on_c, 1, 55, 127
1, 31823, Note_off_c, 1, 71, 0
1, 31823, Note_off_c, 1, 55, 0
1, 31824, Note_on_c, 1, 70, 127
1, 31824, Note_on_c, 1, 54, 127
1, 31847, Note_off_c, 1, 70, 0
1, 31847, Note_off_c, 1, 54, 0
1, 31848, Note_on_c, 1, 71, 127
1, 31848, Note_on_c, 1, 55, 127
1, 31871, Note_off_c, 1, 71, 0
1, 31871, Note_off_c, 1, 55, 0
1, 31872, Note_on_c, 1, 76, 127
1, 31872, Note_on_c, 1, 46, 127
1, 31895, Note_off_c, 1, 46, 0
1, 31896, Note_on_c, 1, 55, 127
1, 31919, Note_off_c, 1, 55, 0
1, 31920, Note_on_c, 1, 54, 127
1, 31943, Note_off_c, 1, 54, 0
1, 31944, Note_on_c, 1, 52, 127
1, 31967, Note_off_c, 1, 52, 0
1, 31991, Note_off_c, 1, 76, 0
1, 31992, Note_on_c, 1, 73, 127
1, 31992, Note_on_c, 1, 52, 127
1, 32015, Note_off_c, 1, 73, 0
1, 32015, Note_off_c, 1, 52, 0
1, 32016, Note_on_c, 1, 75, 127
1, 32016, Note_on_c, 1, 51, 127
1, 32039, Note_off_c, 1, 75, 0
1, 32039, Note_off_c, 1, 51, 0
1, 32040, Note_on_c, 1, 76, 127
1, 32040, Note_on_c, 1, 49, 127
1, 32063, Note_off_c, 1, 76, 0
1, 32063, Note_off_c, 1, 49, 0
1, 32064, Note_on_c, 1, 75, 127
1, 32064, Note_on_c, 1, 47, 127
1, 32087, Note_off_c, 1, 75, 0
1, 32087, Note_off_c, 1, 47, 0
1, 32088, Note_on_c, 1, 78, 127
1, 32088, Note_on_c, 1, 57, 127
1, 32111, Note_off_c, 1, 78, 0
1, 32111, Note_off_c, 1, 57, 0
1, 32112, Note_on_c, 1, 76, 127
1, 32112, Note_on_c, 1, 55, 127
1, 32135, Note_off_c, 1, 76, 0
1, 32135, Note_off_c, 1, 55, 0
1, 32136, Note_on_c, 1, 75, 127
1, 32136, Note_on_c, 1, 54, 127
1, 32159, Note_off_c, 1, 75, 0
1, 32159, Note_off_c, 1, 54, 0
1, 32160, Note_on_c, 1, 76, 127
1, 32160, Note_on_c, 1, 55, 127
1, 32183, Note_off_c, 1, 76, 0
1, 32183, Note_off_c, 1, 55, 0
1, 32184, Note_on_c, 1, 74, 127
1, 32184, Note_on_c, 1, 54, 127
1, 32207, Note_off_c, 1, 74, 0
1, 32207, Note_off_c, 1, 54, 0
1, 32208, Note_on_c, 1, 72, 127
1, 32208, Note_on_c, 1, 52, 127
1, 32231, Note_off_c, 1, 72, 0
1, 32231, Note_off_c, 1, 52, 0
1, 32232, Note_on_c, 1, 71, 127
1, 32232, Note_on_c, 1, 50, 127
1, 32255, Note_off_c, 1, 71, 0
1, 32255, Note_off_c, 1, 50, 0
1, 32256, Note_on_c, 1, 70, 127
1, 32256, Note_on_c, 1, 49, 127
1, 32279, Note_off_c, 1, 70, 0
1, 32280, Note_on_c, 1, 67, 127
1, 32280, Note_on_c, 1, 52, 127
1, 32303, Note_off_c, 1, 67, 0
1, 32303, Note_off_c, 1, 52, 0
1, 32304, Note_on_c, 1, 66, 127
1, 32304, Note_on_c, 1, 54, 127
1, 32327, Note_off_c, 1, 66, 0
1, 32327, Note_off_c, 1, 54, 0
1, 32328, Note_on_c, 1, 64, 127
1, 32328, Note_on_c, 1, 55, 127
1, 32351, Note_off_c, 1, 64, 0
1, 32351, Note_off_c, 1, 55, 0
1, 32352, Note_off_c, 1, 49, 0
1, 32352, Note_on_c, 1, 69, 127
1, 32352, Note_on_c, 1, 48, 127
1, 32375, Note_off_c, 1, 69, 0
1, 32424, Note_on_c, 1, 63, 127
1, 32424, Note_on_c, 1, 57, 127
1, 32447, Note_off_c, 1, 63, 0
1, 32447, Note_off_c, 1, 57, 0
1, 32448, Note_off_c, 1, 48, 0
1, 32496, Note_on_c, 1, 59, 127
1, 32585, Note_off_c, 1, 59, 0
1, 32760, Note_on_c, 1, 71, 127
1, 32783, Note_off_c, 1, 71, 0
1, 32784, Note_on_c, 1, 73, 127
1, 32807, Note_off_c, 1, 73, 0
1, 32808, Note_on_c, 1, 75, 127
1, 32831, Note_off_c, 1, 75, 0
1, 32832, Note_on_c, 1, 76, 127
1, 33009, Note_off_c, 1, 76, 0
1, 33024, Note_on_c, 1, 71, 127
1, 33024, Note_on_c, 1, 67, 127
1, 33024, Note_on_c, 1, 43, 127
1, 33069, Note_off_c, 1, 71, 0
1, 33069, Note_off_c, 1, 67, 0
1, 33069, Note_off_c, 1, 43, 0
1, 33072, Note_on_c, 1, 72, 127
1, 33072, Note_on_c, 1, 55, 127
1, 33117, Note_off_c, 1, 72, 0
1, 33117, Note_off_c, 1, 55, 0
1, 33120, Note_on_c, 1, 74, 127
1, 33120, Note_on_c, 1, 45, 127
1, 33143, Note_off_c, 1, 74, 0
1, 33144, Note_on_c, 1, 72, 127
1, 33165, Note_off_c, 1, 45, 0
1, 33167, Note_off_c, 1, 72, 0
1, 33168, Note_on_c, 1, 71, 127
1, 33168, Note_on_c, 1, 54, 127
1, 33191, Note_off_c, 1, 71, 0
1, 33192, Note_on_c, 1, 72, 127
1, 33213, Note_off_c, 1, 54, 0
1, 33215, Note_off_c, 1, 72, 0
1, 33216, Note_on_c, 1, 74, 127
1, 33216, Note_on_c, 1, 47, 127
1, 33261, Note_off_c, 1, 47, 0
1, 33264, Note_on_c, 1, 55, 127
1, 33305, Note_off_c, 1, 74, 0
1, 33309, Note_off_c, 1, 55, 0
1, 33312, Note_on_c, 1, 79, 127
1, 33312, Note_on_c, 1, 69, 127
1, 33312, Note_on_c, 1, 49, 127
1, 33357, Note_off_c, 1, 49, 0
1, 33360, Note_on_c, 1, 57, 127
1, 33401, Note_off_c, 1, 79, 0
1, 33401, Note_off_c, 1, 69, 0
1, 33405, Note_off_c, 1, 57, 0
1, 33408, Note_on_c, 1, 79, 127
1, 33408, Note_on_c, 1, 69, 127
1, 33408, Note_on_c, 1, 50, 127
1, 33453, Note_off_c, 1, 79, 0
1, 33453, Note_off_c, 1, 69, 0
1, 33453, Note_off_c, 1, 50, 0
1, 33456, Note_on_c, 1, 78, 127
1, 33456, Note_on_c, 1, 57, 127
1, 33479, Note_off_c, 1, 78, 0
1, 33480, Note_on_c, 1, 79, 127
1, 33501, Note_off_c, 1, 57, 0
1, 33503, Note_off_c, 1, 79, 0
1, 33504, Note_on_c, 1, 81, 127
1, 33504, Note_on_c, 1, 52, 127
1, 33527, Note_off_c, 1, 81, 0
1, 33528, Note_on_c, 1, 79, 127
1, 33549, Note_off_c, 1, 52, 0
1, 33551, Note_off_c, 1, 79, 0
1, 33552, Note_on_c, 1, 78, 127
1, 33552, Note_on_c, 1, 57, 127
1, 33575, Note_off_c, 1, 78, 0
1, 33576, Note_on_c, 1, 76, 127
1, 33597, Note_off_c, 1, 57, 0
1, 33599, Note_off_c, 1, 76, 0
1, 33600, Note_on_c, 1, 74, 127
1, 33600, Note_on_c, 1, 54, 127
1, 33623, Note_off_c, 1, 54, 0
1, 33624, Note_on_c, 1, 59, 127
1, 33645, Note_off_c, 1, 74, 0
1, 33647, Note_off_c, 1, 59, 0
1, 33648, Note_on_c, 1, 83, 127
1, 33648, Note_on_c, 1, 57, 127
1, 33671, Note_off_c, 1, 57, 0
1, 33672, Note_on_c, 1, 56, 127
1, 33695, Note_off_c, 1, 56, 0
1, 33737, Note_off_c, 1, 83, 0
1, 33744, Note_on_c, 1, 74, 127
1, 33744, Note_on_c, 1, 54, 127
1, 33767, Note_off_c, 1, 54, 0
1, 33768, Note_on_c, 1, 52, 127
1, 33791, Note_off_c, 1, 52, 0
1, 33792, Note_on_c, 1, 57, 127
1, 33815, Note_off_c, 1, 74, 0
1, 33816, Note_on_c, 1, 71, 127
1, 33837, Note_off_c, 1, 57, 0
1, 33839, Note_off_c, 1, 71, 0
1, 33840, Note_on_c, 1, 72, 127
1, 33840, Note_on_c, 1, 45, 127
1, 33863, Note_off_c, 1, 72, 0
1, 33864, Note_on_c, 1, 74, 127
1, 33885, Note_off_c, 1, 45, 0
1, 33887, Note_off_c, 1, 74, 0
1, 33888, Note_on_c, 1, 76, 127
1, 33888, Note_on_c, 1, 47, 127
1, 33911, Note_off_c, 1, 76, 0
1, 33912, Note_on_c, 1, 74, 127
1, 33933, Note_off_c, 1, 47, 0
1, 33935, Note_off_c, 1, 74, 0
1, 33936, Note_on_c, 1, 72, 127
1, 33936, Note_on_c, 1, 56, 127
1, 33959, Note_off_c, 1, 72, 0
1, 33960, Note_on_c, 1, 74, 127
1, 33981, Note_off_c, 1, 56, 0
1, 33983, Note_off_c, 1, 74, 0
1, 33984, Note_on_c, 1, 76, 127
1, 33984, Note_on_c, 1, 48, 127
1, 34007, Note_off_c, 1, 76, 0
1, 34008, Note_on_c, 1, 72, 127
1, 34029, Note_off_c, 1, 48, 0
1, 34031, Note_off_c, 1, 72, 0
1, 34032, Note_on_c, 1, 71, 127
1, 34032, Note_on_c, 1, 57, 127
1, 34055, Note_off_c, 1, 71, 0
1, 34056, Note_on_c, 1, 69, 127
1, 34077, Note_off_c, 1, 57, 0
1, 34079, Note_off_c, 1, 69, 0
1, 34080, Note_on_c, 1, 81, 127
1, 34080, Note_on_c, 1, 53, 127
1, 34125, Note_off_c, 1, 53, 0
1, 34128, Note_on_c, 1, 72, 127
1, 34128, Note_on_c, 1, 51, 127
1, 34173, Note_off_c, 1, 72, 0
1, 34173, Note_off_c, 1, 51, 0
1, 34176, Note_on_c, 1, 71, 127
1, 34176, Note_on_c, 1, 52, 127
1, 34221, Note_off_c, 1, 81, 0
1, 34221, Note_off_c, 1, 71, 0
1, 34221, Note_off_c, 1, 52, 0
1, 34224, Note_on_c, 1, 80, 127
1, 34224, Note_on_c, 1, 40, 127
1, 34247, Note_off_c, 1, 80, 0
1, 34248, Note_on_c, 1, 81, 127
1, 34269, Note_off_c, 1, 40, 0
1, 34271, Note_off_c, 1, 81, 0
1, 34272, Note_on_c, 1, 83, 127
1, 34272, Note_on_c, 1, 52, 127
1, 34295, Note_off_c, 1, 83, 0
1, 34296, Note_on_c, 1, 81, 127
1, 34317, Note_off_c, 1, 52, 0
1, 34319, Note_off_c, 1, 81, 0
1, 34320, Note_on_c, 1, 80, 127
1, 34320, Note_on_c, 1, 54, 127
1, 34343, Note_off_c, 1, 80, 0
1, 34344, Note_on_c, 1, 78, 127
1, 34365, Note_off_c, 1, 54, 0
1, 34367, Note_off_c, 1, 78, 0
1, 34368, Note_on_c, 1, 76, 127
1, 34368, Note_on_c, 1, 56, 127
1, 34413, Note_off_c, 1, 56, 0
1, 34416, Note_on_c, 1, 59, 127
1, 34461, Note_off_c, 1, 59, 0
1, 34464, Note_on_c, 1, 52, 127
1, 34487, Note_off_c, 1, 76, 0
1, 34488, Note_on_c, 1, 74, 127
1, 34509, Note_off_c, 1, 52, 0
1, 34511, Note_off_c, 1, 74, 0
1, 34512, Note_on_c, 1, 72, 127
1, 34512, Note_on_c, 1, 56, 127
1, 34535, Note_off_c, 1, 72, 0
1, 34536, Note_on_c, 1, 71, 127
1, 34557, Note_off_c, 1, 56, 0
1, 34559, Note_off_c, 1, 71, 0
1, 34560, Note_on_c, 1, 72, 127
1, 34560, Note_on_c, 1, 57, 127
1, 34583, Note_off_c, 1, 72, 0
1, 34584, Note_on_c, 1, 76, 127
1, 34605, Note_off_c, 1, 57, 0
1, 34607, Note_off_c, 1, 76, 0
1, 34608, Note_on_c, 1, 74, 127
1, 34608, Note_on_c, 1, 45, 127
1, 34631, Note_off_c, 1, 74, 0
1, 34632, Note_on_c, 1, 72, 127
1, 34653, Note_off_c, 1, 45, 0
1, 34655, Note_off_c, 1, 72, 0
1, 34656, Note_on_c, 1, 74, 127
1, 34656, Note_on_c, 1, 57, 127
1, 34679, Note_off_c, 1, 74, 0
1, 34680, Note_on_c, 1, 72, 127
1, 34701, Note_off_c, 1, 57, 0
1, 34703, Note_off_c, 1, 72, 0
1, 34704, Note_on_c, 1, 71, 127
1, 34704, Note_on_c, 1, 55, 127
1, 34727, Note_off_c, 1, 71, 0
1, 34728, Note_on_c, 1, 69, 127
1, 34749, Note_off_c, 1, 55, 0
1, 34751, Note_off_c, 1, 69, 0
1, 34752, Note_on_c, 1, 81, 127
1, 34752, Note_on_c, 1, 53, 127
1, 34775, Note_off_c, 1, 81, 0
1, 34776, Note_on_c, 1, 79, 127
1, 34797, Note_off_c, 1, 53, 0
1, 34799, Note_off_c, 1, 79, 0
1, 34800, Note_on_c, 1, 77, 127
1, 34800, Note_on_c, 1, 57, 127
1, 34823, Note_off_c, 1, 77, 0
1, 34824, Note_on_c, 1, 76, 127
1, 34845, Note_off_c, 1, 57, 0
1, 34847, Note_off_c, 1, 76, 0
1, 34848, Note_on_c, 1, 74, 127
1, 34848, Note_on_c, 1, 53, 127
1, 34871, Note_off_c, 1, 74, 0
1, 34872, Note_on_c, 1, 72, 127
1, 34893, Note_off_c, 1, 53, 0
1, 34895, Note_off_c, 1, 72, 0
1, 34896, Note_on_c, 1, 71, 127
1, 34896, Note_on_c, 1, 50, 127
1, 34919, Note_off_c, 1, 71, 0
1, 34920, Note_on_c, 1, 69, 127
1, 34941, Note_off_c, 1, 50, 0
1, 34943, Note_off_c, 1, 69, 0
1, 34944, Note_on_c, 1, 71, 127
1, 34944, Note_on_c, 1, 55, 127
1, 34967, Note_off_c, 1, 71, 0
1, 34968, Note_on_c, 1, 74, 127
1, 34989, Note_off_c, 1, 55, 0
1, 34991, Note_off_c, 1, 74, 0
1, 34992, Note_on_c, 1, 72, 127
1, 34992, Note_on_c, 1, 43, 127
1, 35015, Note_off_c, 1, 72, 0
1, 35016, Note_on_c, 1, 71, 127
1, 35037, Note_off_c, 1, 43, 0
1, 35039, Note_off_c, 1, 71, 0
1, 35040, Note_on_c, 1, 72, 127
1, 35040, Note_on_c, 1, 55, 127
1, 35063, Note_off_c, 1, 72, 0
1, 35064, Note_on_c, 1, 71, 127
1, 35085, Note_off_c, 1, 55, 0
1, 35087, Note_off_c, 1, 71, 0
1, 35088, Note_on_c, 1, 69, 127
1, 35088, Note_on_c, 1, 53, 127
1, 35111, Note_off_c, 1, 69, 0
1, 35112, Note_on_c, 1, 67, 127
1, 35133, Note_off_c, 1, 53, 0
1, 35135, Note_off_c, 1, 67, 0
1, 35136, Note_on_c, 1, 79, 127
1, 35136, Note_on_c, 1, 52, 127
1, 35159, Note_off_c, 1, 79, 0
1, 35160, Note_on_c, 1, 77, 127
1, 35181, Note_off_c, 1, 52, 0
1, 35183, Note_off_c, 1, 77, 0
1, 35184, Note_on_c, 1, 76, 127
1, 35184, Note_on_c, 1, 55, 127
1, 35207, Note_off_c, 1, 76, 0
1, 35208, Note_on_c, 1, 74, 127
1, 35229, Note_off_c, 1, 55, 0
1, 35231, Note_off_c, 1, 74, 0
1, 35232, Note_on_c, 1, 72, 127
1, 35232, Note_on_c, 1, 52, 127
1, 35255, Note_off_c, 1, 72, 0
1, 35256, Note_on_c, 1, 71, 127
1, 35277, Note_off_c, 1, 52, 0
1, 35279, Note_off_c, 1, 71, 0
1, 35280, Note_on_c, 1, 69, 127
1, 35280, Note_on_c, 1, 48, 127
1, 35303, Note_off_c, 1, 69, 0
1, 35304, Note_on_c, 1, 68, 127
1, 35325, Note_off_c, 1, 48, 0
1, 35327, Note_off_c, 1, 68, 0
1, 35328, Note_on_c, 1, 69, 127
1, 35328, Note_on_c, 1, 53, 127
1, 35351, Note_off_c, 1, 53, 0
1, 35352, Note_on_c, 1, 55, 127
1, 35373, Note_off_c, 1, 69, 0
1, 35375, Note_off_c, 1, 55, 0
1, 35376, Note_on_c, 1, 74, 127
1, 35376, Note_on_c, 1, 53, 127
1, 35399, Note_off_c, 1, 53, 0
1, 35400, Note_on_c, 1, 52, 127
1, 35423, Note_off_c, 1, 52, 0
1, 35465, Note_off_c, 1, 74, 0
1, 35472, Note_on_c, 1, 72, 127
1, 35472, Note_on_c, 1, 50, 127
1, 35495, Note_off_c, 1, 50, 0
1, 35496, Note_on_c, 1, 48, 127
1, 35517, Note_off_c, 1, 72, 0
1, 35519, Note_off_c, 1, 48, 0
1, 35520, Note_on_c, 1, 71, 127
1, 35520, Note_on_c, 1, 50, 127
1, 35543, Note_off_c, 1, 50, 0
1, 35544, Note_on_c, 1, 52, 127
1, 35565, Note_off_c, 1, 71, 0
1, 35567, Note_off_c, 1, 52, 0
1, 35568, Note_on_c, 1, 77, 127
1, 35568, Note_on_c, 1, 50, 127
1, 35591, Note_off_c, 1, 50, 0
1, 35592, Note_on_c, 1, 48, 127
1, 35615, Note_off_c, 1, 48, 0
1, 35657, Note_off_c, 1, 77, 0
1, 35664, Note_on_c, 1, 69, 127
1, 35664, Note_on_c, 1, 47, 127
1, 35687, Note_off_c, 1, 47, 0
1, 35688, Note_on_c, 1, 45, 127
1, 35709, Note_off_c, 1, 69, 0
1, 35711, Note_off_c, 1, 45, 0
1, 35712, Note_on_c, 1, 68, 127
1, 35712, Note_on_c, 1, 47, 127
1, 35735, Note_off_c, 1, 47, 0
1, 35736, Note_on_c, 1, 48, 127
1, 35757, Note_off_c, 1, 68, 0
1, 35759, Note_off_c, 1, 48, 0
1, 35760, Note_on_c, 1, 71, 127
1, 35760, Note_on_c, 1, 50, 127
1, 35783, Note_off_c, 1, 50, 0
1, 35784, Note_on_c, 1, 52, 127
1, 35807, Note_off_c, 1, 52, 0
1, 35832, Note_on_c, 1, 48, 127
1, 35849, Note_off_c, 1, 71, 0
1, 35855, Note_off_c, 1, 48, 0
1, 35856, Note_on_c, 1, 65, 127
1, 35856, Note_on_c, 1, 47, 127
1, 35879, Note_off_c, 1, 47, 0
1, 35880, Note_on_c, 1, 45, 127
1, 35901, Note_off_c, 1, 65, 0
1, 35903, Note_off_c, 1, 45, 0
1, 35904, Note_on_c, 1, 67, 127
1, 35904, Note_on_c, 1, 44, 127
1, 35910, Note_off_c, 1, 67, 0
1, 35910, Note_on_c, 1, 65, 127
1, 35927, Note_off_c, 1, 44, 0
1, 35928, Note_on_c, 1, 45, 127
1, 35949, Note_off_c, 1, 65, 0
1, 35951, Note_off_c, 1, 45, 0
1, 35952, Note_on_c, 1, 64, 127
1, 35952, Note_on_c, 1, 47, 127
1, 35975, Note_off_c, 1, 47, 0
1, 35976, Note_on_c, 1, 48, 127
1, 35999, Note_off_c, 1, 48, 0
1, 36000, Note_on_c, 1, 50, 127
1, 36023, Note_off_c, 1, 50, 0
1, 36024, Note_on_c, 1, 52, 127
1, 36041, Note_off_c, 1, 64, 0
1, 36047, Note_off_c, 1, 52, 0
1, 36048, Note_on_c, 1, 62, 127
1, 36048, Note_on_c, 1, 54, 127
1, 36071, Note_off_c, 1, 54, 0
1, 36072, Note_on_c, 1, 56, 127
1, 36093, Note_off_c, 1, 62, 0
1, 36095, Note_off_c, 1, 56, 0
1, 36096, Note_on_c, 1, 62, 127
1, 36096, Note_on_c, 1, 57, 127
1, 36119, Note_off_c, 1, 62, 0
1, 36120, Note_on_c, 1, 59, 127
1, 36141, Note_off_c, 1, 57, 0
1, 36143, Note_off_c, 1, 59, 0
1, 36144, Note_on_c, 1, 60, 127
1, 36144, Note_on_c, 1, 45, 127
1, 36167, Note_off_c, 1, 60, 0
1, 36168, Note_on_c, 1, 62, 127
1, 36189, Note_off_c, 1, 45, 0
1, 36191, Note_off_c, 1, 62, 0
1, 36192, Note_on_c, 1, 64, 127
1, 36215, Note_off_c, 1, 64, 0
1, 36216, Note_on_c, 1, 65, 127
1, 36239, Note_off_c, 1, 65, 0
1, 36240, Note_on_c, 1, 67, 127
1, 36240, Note_on_c, 1, 52, 127
1, 36263, Note_off_c, 1, 67, 0
1, 36263, Note_off_c, 1, 52, 0
1, 36264, Note_on_c, 1, 69, 127
1, 36264, Note_on_c, 1, 53, 127
1, 36287, Note_off_c, 1, 69, 0
1, 36287, Note_off_c, 1, 53, 0
1, 36288, Note_on_c, 1, 61, 127
1, 36288, Note_on_c, 1, 55, 127
1, 36311, Note_off_c, 1, 55, 0
1, 36312, Note_on_c, 1, 58, 127
1, 36335, Note_off_c, 1, 58, 0
1, 36336, Note_on_c, 1, 57, 127
1, 36359, Note_off_c, 1, 57, 0
1, 36421, Note_off_c, 1, 61, 0
1, 36432, Note_on_c, 1, 59, 127
1, 36432, Note_on_c, 1, 53, 127
1, 36455, Note_off_c, 1, 59, 0
1, 36455, Note_off_c, 1, 53, 0
1, 36456, Note_on_c, 1, 61, 127
1, 36456, Note_on_c, 1, 52, 127
1, 36479, Note_off_c, 1, 61, 0
1, 36479, Note_off_c, 1, 52, 0
1, 36480, Note_on_c, 1, 62, 127
1, 36480, Note_on_c, 1, 53, 127
1, 36503, Note_off_c, 1, 62, 0
1, 36504, Note_on_c, 1, 61, 127
1, 36525, Note_off_c, 1, 53, 0
1, 36527, Note_off_c, 1, 61, 0
1, 36528, Note_on_c, 1, 62, 127
1, 36528, Note_on_c, 1, 41, 127
1, 36551, Note_off_c, 1, 62, 0
1, 36552, Note_on_c, 1, 64, 127
1, 36573, Note_off_c, 1, 41, 0
1, 36575, Note_off_c, 1, 64, 0
1, 36576, Note_on_c, 1, 65, 127
1, 36599, Note_off_c, 1, 65, 0
1, 36600, Note_on_c, 1, 67, 127
1, 36623, Note_off_c, 1, 67, 0
1, 36624, Note_on_c, 1, 69, 127
1, 36624, Note_on_c, 1, 54, 127
1, 36647, Note_off_c, 1, 69, 0
1, 36647, Note_off_c, 1, 54, 0
1, 36648, Note_on_c, 1, 71, 127
1, 36648, Note_on_c, 1, 56, 127
1, 36671, Note_off_c, 1, 71, 0
1, 36671, Note_off_c, 1, 56, 0
1, 36672, Note_on_c, 1, 72, 127
1, 36672, Note_on_c, 1, 57, 127
1, 36695, Note_off_c, 1, 57, 0
1, 36696, Note_on_c, 1, 60, 127
1, 36717, Note_off_c, 1, 72, 0
1, 36719, Note_off_c, 1, 60, 0
1, 36720, Note_on_c, 1, 63, 127
1, 36720, Note_on_c, 1, 59, 127
1, 36743, Note_off_c, 1, 59, 0
1, 36744, Note_on_c, 1, 57, 127
1, 36767, Note_off_c, 1, 57, 0
1, 36809, Note_off_c, 1, 63, 0
1, 36816, Note_on_c, 1, 64, 127
1, 36816, Note_on_c, 1, 56, 127
1, 36839, Note_off_c, 1, 56, 0
1, 36840, Note_off_c, 1, 64, 0
1, 36840, Note_on_c, 1, 66, 127
1, 36840, Note_on_c, 1, 54, 127
1, 36863, Note_off_c, 1, 66, 0
1, 36863, Note_off_c, 1, 54, 0
1, 36864, Note_on_c, 1, 64, 127
1, 36864, Note_on_c, 1, 55, 127
1, 36887, Note_off_c, 1, 64, 0
1, 36888, Note_on_c, 1, 74, 127
1, 36909, Note_off_c, 1, 55, 0
1, 36911, Note_off_c, 1, 74, 0
1, 36912, Note_on_c, 1, 72, 127
1, 36912, Note_on_c, 1, 52, 127
1, 36935, Note_off_c, 1, 72, 0
1, 36936, Note_on_c, 1, 71, 127
1, 36957, Note_off_c, 1, 52, 0
1, 36959, Note_off_c, 1, 71, 0
1, 36960, Note_on_c, 1, 76, 127
1, 36960, Note_on_c, 1, 48, 127
1, 36983, Note_off_c, 1, 76, 0
1, 36984, Note_on_c, 1, 72, 127
1, 37005, Note_off_c, 1, 48, 0
1, 37007, Note_off_c, 1, 72, 0
1, 37008, Note_on_c, 1, 71, 127
1, 37008, Note_on_c, 1, 50, 127
1, 37031, Note_off_c, 1, 71, 0
1, 37032, Note_on_c, 1, 69, 127
1, 37053, Note_off_c, 1, 50, 0
1, 37055, Note_off_c, 1, 69, 0
1, 37056, Note_on_c, 1, 72, 127
1, 37056, Note_on_c, 1, 52, 127
1, 37104, Note_on_c, 1, 64, 127
1, 37145, Note_off_c, 1, 72, 0
1, 37145, Note_off_c, 1, 52, 0
1, 37152, Note_on_c, 1, 71, 127
1, 37152, Note_on_c, 1, 40, 127
1, 37193, Note_off_c, 1, 64, 0
1, 37200, Note_on_c, 1, 62, 127
1, 37241, Note_off_c, 1, 71, 0
1, 37241, Note_off_c, 1, 40, 0
1, 37245, Note_off_c, 1, 62, 0
1, 37248, Note_on_c, 1, 69, 127
1, 37248, Note_on_c, 1, 60, 127
1, 37248, Note_on_c, 1, 45, 127
1, 37271, Note_off_c, 1, 69, 0
1, 37272, Note_on_c, 1, 65, 127
1, 37293, Note_off_c, 1, 60, 0
1, 37295, Note_off_c, 1, 65, 0
1, 37296, Note_on_c, 1, 64, 127
1, 37319, Note_off_c, 1, 64, 0
1, 37320, Note_on_c, 1, 62, 127
1, 37343, Note_off_c, 1, 62, 0
1, 37416, Note_on_c, 1, 59, 127
1, 37425, Note_off_c, 1, 45, 0
1, 37439, Note_off_c, 1, 59, 0
1, 37440, Note_on_c, 1, 57, 127
1, 37440, Note_on_c, 1, 45, 127
1, 37463, Note_off_c, 1, 57, 0
1, 37464, Note_on_c, 1, 60, 127
1, 37485, Note_off_c, 1, 45, 0
1, 37487, Note_off_c, 1, 60, 0
1, 37488, Note_on_c, 1, 64, 127
1, 37488, Note_on_c, 1, 48, 127
1, 37511, Note_off_c, 1, 64, 0
1, 37512, Note_on_c, 1, 69, 127
1, 37533, Note_off_c, 1, 48, 0
1, 37535, Note_off_c, 1, 69, 0
1, 37536, Note_on_c, 1, 72, 127
1, 37536, Note_on_c, 1, 52, 127
1, 37581, Note_off_c, 1, 52, 0
1, 37584, Note_on_c, 1, 55, 127
1, 37629, Note_off_c, 1, 55, 0
1, 37632, Note_on_c, 1, 54, 127
1, 37655, Note_off_c, 1, 72, 0
1, 37656, Note_on_c, 1, 62, 127
1, 37677, Note_off_c, 1, 54, 0
1, 37679, Note_off_c, 1, 62, 0
1, 37680, Note_on_c, 1, 66, 127
1, 37680, Note_on_c, 1, 50, 127
1, 37703, Note_off_c, 1, 66, 0
1, 37704, Note_on_c, 1, 69, 127
1, 37725, Note_off_c, 1, 50, 0
1, 37727, Note_off_c, 1, 69, 0
1, 37728, Note_on_c, 1, 72, 127
1, 37728, Note_on_c, 1, 54, 127
1, 37751, Note_off_c, 1, 72, 0
1, 37752, Note_on_c, 1, 69, 127
1, 37773, Note_off_c, 1, 54, 0
1, 37775, Note_off_c, 1, 69, 0
1, 37776, Note_on_c, 1, 72, 127
1, 37776, Note_on_c, 1, 57, 127
1, 37799, Note_off_c, 1, 72, 0
1, 37800, Note_on_c, 1, 78, 127
1, 37821, Note_off_c, 1, 57, 0
1, 37823, Note_off_c, 1, 78, 0
1, 37824, Note_on_c, 1, 81, 127
1, 37824, Note_on_c, 1, 62, 127
1, 37847, Note_off_c, 1, 81, 0
1, 37848, Note_on_c, 1, 79, 127
1, 37869, Note_off_c, 1, 62, 0
1, 37871, Note_off_c, 1, 79, 0
1, 37872, Note_on_c, 1, 78, 127
1, 37872, Note_on_c, 1, 57, 127
1, 37895, Note_off_c, 1, 78, 0
1, 37896, Note_on_c, 1, 76, 127
1, 37917, Note_off_c, 1, 57, 0
1, 37919, Note_off_c, 1, 76, 0
1, 37920, Note_on_c, 1, 74, 127
1, 37920, Note_on_c, 1, 54, 127
1, 37943, Note_off_c, 1, 74, 0
1, 37944, Note_on_c, 1, 72, 127
1, 37965, Note_off_c, 1, 54, 0
1, 37967, Note_off_c, 1, 72, 0
1, 37968, Note_on_c, 1, 71, 127
1, 37968, Note_on_c, 1, 50, 127
1, 37991, Note_off_c, 1, 71, 0
1, 37992, Note_on_c, 1, 69, 127
1, 38013, Note_off_c, 1, 50, 0
1, 38015, Note_off_c, 1, 69, 0
1, 38016, Note_on_c, 1, 72, 127
1, 38016, Note_on_c, 1, 55, 127
1, 38039, Note_off_c, 1, 72, 0
1, 38040, Note_on_c, 1, 71, 127
1, 38061, Note_off_c, 1, 55, 0
1, 38063, Note_off_c, 1, 71, 0
1, 38064, Note_on_c, 1, 69, 127
1, 38064, Note_on_c, 1, 43, 127
1, 38087, Note_off_c, 1, 69, 0
1, 38088, Note_on_c, 1, 67, 127
1, 38111, Note_off_c, 1, 67, 0
1, 38112, Note_on_c, 1, 71, 127
1, 38135, Note_off_c, 1, 43, 0
1, 38136, Note_on_c, 1, 45, 127
1, 38159, Note_off_c, 1, 45, 0
1, 38184, Note_on_c, 1, 42, 127
1, 38207, Note_off_c, 1, 42, 0
1, 38231, Note_off_c, 1, 71, 0
1, 38256, Note_on_c, 1, 71, 127
1, 38256, Note_on_c, 1, 55, 127
1, 38279, Note_off_c, 1, 71, 0
1, 38280, Note_on_c, 1, 73, 127
1, 38301, Note_off_c, 1, 55, 0
1, 38303, Note_off_c, 1, 73, 0
1, 38304, Note_on_c, 1, 75, 127
1, 38304, Note_on_c, 1, 54, 127
1, 38327, Note_off_c, 1, 75, 0
1, 38328, Note_on_c, 1, 76, 127
1, 38349, Note_off_c, 1, 54, 0
1, 38351, Note_off_c, 1, 76, 0
1, 38352, Note_on_c, 1, 78, 127
1, 38352, Note_on_c, 1, 52, 127
1, 38375, Note_off_c, 1, 78, 0
1, 38376, Note_on_c, 1, 79, 127
1, 38397, Note_off_c, 1, 52, 0
1, 38399, Note_off_c, 1, 79, 0
1, 38400, Note_on_c, 1, 81, 127
1, 38400, Note_on_c, 1, 54, 127
1, 38423, Note_off_c, 1, 81, 0
1, 38424, Note_on_c, 1, 83, 127
1, 38445, Note_off_c, 1, 54, 0
1, 38447, Note_off_c, 1, 83, 0
1, 38448, Note_on_c, 1, 81, 127
1, 38448, Note_on_c, 1, 47, 127
1, 38471, Note_off_c, 1, 81, 0
1, 38472, Note_on_c, 1, 79, 127
1, 38493, Note_off_c, 1, 47, 0
1, 38495, Note_off_c, 1, 79, 0
1, 38496, Note_on_c, 1, 81, 127
1, 38496, Note_on_c, 1, 51, 127
1, 38519, Note_off_c, 1, 81, 0
1, 38520, Note_on_c, 1, 79, 127
1, 38541, Note_off_c, 1, 51, 0
1, 38543, Note_off_c, 1, 79, 0
1, 38544, Note_on_c, 1, 78, 127
1, 38544, Note_on_c, 1, 54, 127
1, 38567, Note_off_c, 1, 78, 0
1, 38568, Note_on_c, 1, 76, 127
1, 38589, Note_off_c, 1, 54, 0
1, 38591, Note_off_c, 1, 76, 0
1, 38592, Note_on_c, 1, 75, 127
1, 38592, Note_on_c, 1, 59, 127
1, 38615, Note_off_c, 1, 75, 0
1, 38616, Note_on_c, 1, 76, 127
1, 38637, Note_off_c, 1, 59, 0
1, 38639, Note_off_c, 1, 76, 0
1, 38640, Note_on_c, 1, 75, 127
1, 38640, Note_on_c, 1, 54, 127
1, 38663, Note_off_c, 1, 75, 0
1, 38664, Note_on_c, 1, 73, 127
1, 38685, Note_off_c, 1, 54, 0
1, 38687, Note_off_c, 1, 73, 0
1, 38688, Note_on_c, 1, 75, 127
1, 38688, Note_on_c, 1, 47, 127
1, 38711, Note_off_c, 1, 75, 0
1, 38712, Note_on_c, 1, 73, 127
1, 38733, Note_off_c, 1, 47, 0
1, 38735, Note_off_c, 1, 73, 0
1, 38736, Note_on_c, 1, 71, 127
1, 38736, Note_on_c, 1, 51, 127
1, 38759, Note_off_c, 1, 71, 0
1, 38760, Note_on_c, 1, 69, 127
1, 38781, Note_off_c, 1, 51, 0
1, 38783, Note_off_c, 1, 69, 0
1, 38784, Note_on_c, 1, 67, 127
1, 38784, Note_on_c, 1, 52, 127
1, 38807, Note_off_c, 1, 67, 0
1, 38808, Note_on_c, 1, 69, 127
1, 38829, Note_off_c, 1, 52, 0
1, 38831, Note_off_c, 1, 69, 0
1, 38832, Note_on_c, 1, 67, 127
1, 38832, Note_on_c, 1, 40, 127
1, 38855, Note_off_c, 1, 67, 0
1, 38856, Note_on_c, 1, 66, 127
1, 38877, Note_off_c, 1, 40, 0
1, 38879, Note_off_c, 1, 66, 0
1, 38880, Note_on_c, 1, 67, 127
1, 38880, Note_on_c, 1, 52, 127
1, 38903, Note_off_c, 1, 67, 0
1, 38904, Note_on_c, 1, 66, 127
1, 38925, Note_off_c, 1, 52, 0
1, 38927, Note_off_c, 1, 66, 0
1, 38928, Note_on_c, 1, 64, 127
1, 38928, Note_on_c, 1, 54, 127
1, 38951, Note_off_c, 1, 64, 0
1, 38952, Note_on_c, 1, 63, 127
1, 38973, Note_off_c, 1, 54, 0
1, 38975, Note_off_c, 1, 63, 0
1, 38976, Note_on_c, 1, 64, 127
1, 38976, Note_on_c, 1, 55, 127
1, 38999, Note_off_c, 1, 55, 0
1, 39000, Note_on_c, 1, 59, 127
1, 39021, Note_off_c, 1, 64, 0
1, 39023, Note_off_c, 1, 59, 0
1, 39024, Note_on_c, 1, 76, 127
1, 39024, Note_on_c, 1, 57, 127
1, 39047, Note_off_c, 1, 57, 0
1, 39048, Note_on_c, 1, 55, 127
1, 39071, Note_off_c, 1, 55, 0
1, 39113, Note_off_c, 1, 76, 0
1, 39120, Note_on_c, 1, 74, 127
1, 39120, Note_on_c, 1, 54, 127
1, 39143, Note_off_c, 1, 54, 0
1, 39144, Note_on_c, 1, 52, 127
1, 39165, Note_off_c, 1, 74, 0
1, 39167, Note_off_c, 1, 52, 0
1, 39168, Note_on_c, 1, 72, 127
1, 39168, Note_on_c, 1, 57, 127
1, 39191, Note_off_c, 1, 72, 0
1, 39192, Note_on_c, 1, 69, 127
1, 39213, Note_off_c, 1, 57, 0
1, 39215, Note_off_c, 1, 69, 0
1, 39216, Note_on_c, 1, 67, 127
1, 39216, Note_on_c, 1, 60, 127
1, 39239, Note_off_c, 1, 67, 0
1, 39240, Note_on_c, 1, 66, 127
1, 39261, Note_off_c, 1, 60, 0
1, 39263, Note_off_c, 1, 66, 0
1, 39264, Note_on_c, 1, 67, 127
1, 39264, Note_on_c, 1, 50, 127
1, 39287, Note_off_c, 1, 67, 0
1, 39288, Note_on_c, 1, 66, 127
1, 39309, Note_off_c, 1, 50, 0
1, 39311, Note_off_c, 1, 66, 0
1, 39312, Note_on_c, 1, 64, 127
1, 39312, Note_on_c, 1, 54, 127
1, 39335, Note_off_c, 1, 64, 0
1, 39336, Note_on_c, 1, 62, 127
1, 39357, Note_off_c, 1, 54, 0
1, 39359, Note_off_c, 1, 62, 0
1, 39360, Note_on_c, 1, 71, 127
1, 39360, Note_on_c, 1, 55, 127
1, 39383, Note_off_c, 1, 71, 0
1, 39384, Note_on_c, 1, 67, 127
1, 39405, Note_off_c, 1, 55, 0
1, 39407, Note_off_c, 1, 67, 0
1, 39408, Note_on_c, 1, 66, 127
1, 39408, Note_on_c, 1, 59, 127
1, 39431, Note_off_c, 1, 66, 0
1, 39432, Note_on_c, 1, 64, 127
1, 39453, Note_off_c, 1, 59, 0
1, 39455, Note_off_c, 1, 64, 0
1, 39456, Note_on_c, 1, 66, 127
1, 39456, Note_on_c, 1, 48, 127
1, 39479, Note_off_c, 1, 66, 0
1, 39480, Note_on_c, 1, 64, 127
1, 39501, Note_off_c, 1, 48, 0
1, 39503, Note_off_c, 1, 64, 0
1, 39504, Note_on_c, 1, 62, 127
1, 39504, Note_on_c, 1, 52, 127
1, 39527, Note_off_c, 1, 62, 0
1, 39528, Note_on_c, 1, 60, 127
1, 39549, Note_off_c, 1, 52, 0
1, 39551, Note_off_c, 1, 60, 0
1, 39552, Note_on_c, 1, 69, 127
1, 39552, Note_on_c, 1, 54, 127
1, 39575, Note_off_c, 1, 69, 0
1, 39576, Note_on_c, 1, 66, 127
1, 39597, Note_off_c, 1, 54, 0
1, 39599, Note_off_c, 1, 66, 0
1, 39600, Note_on_c, 1, 64, 127
1, 39600, Note_on_c, 1, 57, 127
1, 39623, Note_off_c, 1, 64, 0
1, 39624, Note_on_c, 1, 63, 127
1, 39645, Note_off_c, 1, 57, 0
1, 39647, Note_off_c, 1, 63, 0
1, 39648, Note_on_c, 1, 64, 127
1, 39648, Note_on_c, 1, 47, 127
1, 39671, Note_off_c, 1, 64, 0
1, 39672, Note_on_c, 1, 63, 127
1, 39693, Note_off_c, 1, 47, 0
1, 39695, Note_off_c, 1, 63, 0
1, 39696, Note_on_c, 1, 61, 127
1, 39696, Note_on_c, 1, 51, 127
1, 39719, Note_off_c, 1, 61, 0
1, 39720, Note_on_c, 1, 59, 127
1, 39741, Note_off_c, 1, 51, 0
1, 39743, Note_off_c, 1, 59, 0
1, 39744, Note_on_c, 1, 67, 127
1, 39744, Note_on_c, 1, 52, 127
1, 39767, Note_off_c, 1, 52, 0
1, 39768, Note_on_c, 1, 47, 127
1, 39791, Note_off_c, 1, 47, 0
1, 39792, Note_on_c, 1, 45, 127
1, 39815, Note_off_c, 1, 45, 0
1, 39816, Note_on_c, 1, 43, 127
1, 39839, Note_off_c, 1, 43, 0
1, 39888, Note_on_c, 1, 42, 127
1, 39911, Note_off_c, 1, 42, 0
1, 39912, Note_on_c, 1, 40, 127
1, 39935, Note_off_c, 1, 40, 0
1, 39959, Note_off_c, 1, 67, 0
1, 39960, Note_on_c, 1, 64, 127
1, 39983, Note_off_c, 1, 64, 0
1, 39984, Note_on_c, 1, 63, 127
1, 39984, Note_on_c, 1, 47, 127
1, 40007, Note_off_c, 1, 63, 0
1, 40008, Note_on_c, 1, 64, 127
1, 40029, Note_off_c, 1, 47, 0
1, 40031, Note_off_c, 1, 64, 0
1, 40032, Note_on_c, 1, 66, 127
1, 40032, Note_on_c, 1, 48, 127
1, 40055, Note_off_c, 1, 66, 0
1, 40056, Note_on_c, 1, 67, 127
1, 40077, Note_off_c, 1, 48, 0
1, 40079, Note_off_c, 1, 67, 0
1, 40080, Note_on_c, 1, 69, 127
1, 40080, Note_on_c, 1, 47, 127
1, 40103, Note_off_c, 1, 69, 0
1, 40104, Note_on_c, 1, 71, 127
1, 40125, Note_off_c, 1, 47, 0
1, 40127, Note_off_c, 1, 71, 0
1, 40128, Note_on_c, 1, 72, 127
1, 40128, Note_on_c, 1, 45, 127
1, 40151, Note_off_c, 1, 72, 0
1, 40152, Note_on_c, 1, 71, 127
1, 40173, Note_off_c, 1, 45, 0
1, 40175, Note_off_c, 1, 71, 0
1, 40176, Note_on_c, 1, 69, 127
1, 40176, Note_on_c, 1, 48, 127
1, 40199, Note_off_c, 1, 69, 0
1, 40200, Note_on_c, 1, 67, 127
1, 40221, Note_off_c, 1, 48, 0
1, 40223, Note_off_c, 1, 67, 0
1, 40224, Note_on_c, 1, 66, 127
1, 40224, Note_on_c, 1, 46, 127
1, 40269, Note_off_c, 1, 66, 0
1, 40269, Note_off_c, 1, 46, 0
1, 40272, Note_on_c, 1, 64, 127
1, 40272, Note_on_c, 1, 42, 127
1, 40317, Note_off_c, 1, 42, 0
1, 40320, Note_on_c, 1, 47, 127
1, 40343, Note_off_c, 1, 64, 0
1, 40344, Note_on_c, 1, 72, 127
1, 40367, Note_off_c, 1, 72, 0
1, 40368, Note_on_c, 1, 71, 127
1, 40391, Note_off_c, 1, 71, 0
1, 40392, Note_on_c, 1, 70, 127
1, 40415, Note_off_c, 1, 70, 0
1, 40440, Note_on_c, 1, 67, 127
1, 40463, Note_off_c, 1, 67, 0
1, 40464, Note_on_c, 1, 66, 127
1, 40487, Note_off_c, 1, 66, 0
1, 40512, Note_on_c, 1, 63, 127
1, 40535, Note_off_c, 1, 63, 0
1, 40536, Note_on_c, 1, 61, 127
1, 40559, Note_off_c, 1, 61, 0
1, 40560, Note_on_c, 1, 59, 127
1, 40601, Note_off_c, 1, 47, 0
1, 40605, Note_off_c, 1, 59, 0
1, 40608, Note_on_c, 1, 59, 127
1, 40608, Note_on_c, 1, 47, 127
1, 40631, Note_off_c, 1, 59, 0
1, 40697, Note_off_c, 1, 47, 0
1, 40704, Note_on_c, 1, 55, 127
1, 40704, Note_on_c, 1, 40, 127
1, 40749, Note_off_c, 1, 55, 0
1, 40749, Note_off_c, 1, 40, 0
1, 40752, Note_on_c, 1, 57, 127
1, 40752, Note_on_c, 1, 52, 127
1, 40797, Note_off_c, 1, 57, 0
1, 40797, Note_off_c, 1, 52, 0
1, 40800, Note_on_c, 1, 59, 127
1, 40800, Note_on_c, 1, 42, 127
1, 40823, Note_off_c, 1, 59, 0
1, 40824, Note_on_c, 1, 57, 127
1, 40845, Note_off_c, 1, 42, 0
1, 40847, Note_off_c, 1, 57, 0
1, 40848, Note_on_c, 1, 55, 127
1, 40848, Note_on_c, 1, 51, 127
1, 40871, Note_off_c, 1, 55, 0
1, 40872, Note_on_c, 1, 57, 127
1, 40893, Note_off_c, 1, 51, 0
1, 40895, Note_off_c, 1, 57, 0
1, 40896, Note_on_c, 1, 59, 127
1, 40896, Note_on_c, 1, 43, 127
1, 40941, Note_off_c, 1, 59, 0
1, 40941, Note_off_c, 1, 43, 0
1, 40944, Note_on_c, 1, 52, 127
1, 40944, Note_on_c, 1, 45, 127
1, 40967, Note_off_c, 1, 45, 0
1, 40968, Note_on_c, 1, 47, 127
1, 40989, Note_off_c, 1, 52, 0
1, 40991, Note_off_c, 1, 47, 0
1, 40992, Note_on_c, 1, 64, 127
1, 40992, Note_on_c, 1, 45, 127
1, 41015, Note_off_c, 1, 45, 0
1, 41016, Note_on_c, 1, 43, 127
1, 41039, Note_off_c, 1, 43, 0
1, 41040, Note_on_c, 1, 42, 127
1, 41063, Note_off_c, 1, 42, 0
1, 41064, Note_on_c, 1, 40, 127
1, 41087, Note_off_c, 1, 40, 0
1, 41088, Note_on_c, 1, 47, 127
1, 41133, Note_off_c, 1, 64, 0
1, 41133, Note_off_c, 1, 47, 0
1, 41136, Note_on_c, 1, 63, 127
1, 41136, Note_on_c, 1, 54, 127
1, 41159, Note_off_c, 1, 63, 0
1, 41160, Note_on_c, 1, 64, 127
1, 41181, Note_off_c, 1, 54, 0
1, 41183, Note_off_c, 1, 64, 0
1, 41184, Note_on_c, 1, 66, 127
1, 41184, Note_on_c, 1, 49, 127
1, 41207, Note_off_c, 1, 66, 0
1, 41208, Note_on_c, 1, 64, 127
1, 41229, Note_off_c, 1, 49, 0
1, 41231, Note_off_c, 1, 64, 0
1, 41232, Note_on_c, 1, 63, 127
1, 41232, Note_on_c, 1, 54, 127
1, 41255, Note_off_c, 1, 63, 0
1, 41256, Note_on_c, 1, 61, 127
1, 41277, Note_off_c, 1, 54, 0
1, 41279, Note_off_c, 1, 61, 0
1, 41280, Note_on_c, 1, 59, 127
1, 41280, Note_on_c, 1, 51, 127
1, 41325, Note_off_c, 1, 59, 0
1, 41325, Note_off_c, 1, 51, 0
1, 41328, Note_on_c, 1, 63, 127
1, 41328, Note_on_c, 1, 52, 127
1, 41351, Note_off_c, 1, 52, 0
1, 41352, Note_on_c, 1, 54, 127
1, 41373, Note_off_c, 1, 63, 0
1, 41375, Note_off_c, 1, 54, 0
1, 41376, Note_on_c, 1, 66, 127
1, 41376, Note_on_c, 1, 52, 127
1, 41399, Note_off_c, 1, 52, 0
1, 41400, Note_on_c, 1, 51, 127
1, 41421, Note_off_c, 1, 66, 0
1, 41423, Note_off_c, 1, 51, 0
1, 41424, Note_on_c, 1, 69, 127
1, 41424, Note_on_c, 1, 49, 127
1, 41447, Note_off_c, 1, 49, 0
1, 41448, Note_on_c, 1, 47, 127
1, 41471, Note_off_c, 1, 47, 0
1, 41472, Note_on_c, 1, 52, 127
1, 41517, Note_off_c, 1, 69, 0
1, 41517, Note_off_c, 1, 52, 0
1, 41520, Note_on_c, 1, 67, 127
1, 41520, Note_on_c, 1, 47, 127
1, 41543, Note_off_c, 1, 67, 0
1, 41544, Note_on_c, 1, 69, 127
1, 41565, Note_off_c, 1, 47, 0
1, 41567, Note_off_c, 1, 69, 0
1, 41568, Note_on_c, 1, 71, 127
1, 41568, Note_on_c, 1, 54, 127
1, 41591, Note_off_c, 1, 71, 0
1, 41592, Note_on_c, 1, 69, 127
1, 41613, Note_off_c, 1, 54, 0
1, 41615, Note_off_c, 1, 69, 0
1, 41616, Note_on_c, 1, 67, 127
1, 41616, Note_on_c, 1, 47, 127
1, 41639, Note_off_c, 1, 67, 0
1, 41640, Note_on_c, 1, 66, 127
1, 41661, Note_off_c, 1, 47, 0
1, 41663, Note_off_c, 1, 66, 0
1, 41664, Note_on_c, 1, 64, 127
1, 41664, Note_on_c, 1, 55, 127
1, 41709, Note_off_c, 1, 64, 0
1, 41709, Note_off_c, 1, 55, 0
1, 41712, Note_on_c, 1, 67, 127
1, 41712, Note_on_c, 1, 57, 127
1, 41735, Note_off_c, 1, 57, 0
1, 41736, Note_on_c, 1, 59, 127
1, 41757, Note_off_c, 1, 67, 0
1, 41759, Note_off_c, 1, 59, 0
1, 41760, Note_on_c, 1, 71, 127
1, 41760, Note_on_c, 1, 57, 127
1, 41783, Note_off_c, 1, 57, 0
1, 41784, Note_on_c, 1, 55, 127
1, 41805, Note_off_c, 1, 71, 0
1, 41807, Note_off_c, 1, 55, 0
1, 41808, Note_on_c, 1, 76, 127
1, 41808, Note_on_c, 1, 54, 127
1, 41831, Note_off_c, 1, 54, 0
1, 41832, Note_on_c, 1, 52, 127
1, 41855, Note_off_c, 1, 52, 0
1, 41856, Note_on_c, 1, 59, 127
1, 41901, Note_off_c, 1, 76, 0
1, 41901, Note_off_c, 1, 59, 0
1, 41904, Note_on_c, 1, 75, 127
1, 41904, Note_on_c, 1, 47, 127
1, 41927, Note_off_c, 1, 75, 0
1, 41928, Note_on_c, 1, 76, 127
1, 41949, Note_off_c, 1, 47, 0
1, 41951, Note_off_c, 1, 76, 0
1, 41952, Note_on_c, 1, 78, 127
1, 41952, Note_on_c, 1, 59, 127
1, 41975, Note_off_c, 1, 78, 0
1, 41976, Note_on_c, 1, 76, 127
1, 41997, Note_off_c, 1, 59, 0
1, 41999, Note_off_c, 1, 76, 0
1, 42000, Note_on_c, 1, 75, 127
1, 42000, Note_on_c, 1, 61, 127
1, 42023, Note_off_c, 1, 75, 0
1, 42024, Note_on_c, 1, 73, 127
1, 42045, Note_off_c, 1, 61, 0
1, 42047, Note_off_c, 1, 73, 0
1, 42048, Note_on_c, 1, 71, 127
1, 42048, Note_on_c, 1, 63, 127
1, 42093, Note_off_c, 1, 63, 0
1, 42096, Note_on_c, 1, 64, 127
1, 42119, Note_off_c, 1, 64, 0
1, 42120, Note_on_c, 1, 66, 127
1, 42143, Note_off_c, 1, 66, 0
1, 42192, Note_on_c, 1, 61, 127
1, 42215, Note_off_c, 1, 61, 0
1, 42216, Note_on_c, 1, 59, 127
1, 42225, Note_off_c, 1, 71, 0
1, 42239, Note_off_c, 1, 59, 0
1, 42240, Note_on_c, 1, 79, 127
1, 42240, Note_on_c, 1, 64, 127
1, 42285, Note_off_c, 1, 64, 0
1, 42288, Note_on_c, 1, 52, 127
1, 42333, Note_off_c, 1, 52, 0
1, 42336, Note_on_c, 1, 71, 127
1, 42384, Note_on_c, 1, 62, 127
1, 42425, Note_off_c, 1, 71, 0
1, 42429, Note_off_c, 1, 62, 0
1, 42432, Note_on_c, 1, 69, 127
1, 42432, Note_on_c, 1, 60, 127
1, 42477, Note_off_c, 1, 60, 0
1, 42505, Note_off_c, 1, 79, 0
1, 42576, Note_on_c, 1, 59, 127
1, 42599, Note_off_c, 1, 59, 0
1, 42600, Note_on_c, 1, 57, 127
1, 42623, Note_off_c, 1, 57, 0
1, 42624, Note_on_c, 1, 78, 127
1, 42672, Note_on_c, 1, 50, 127
1, 42713, Note_off_c, 1, 69, 0
1, 42717, Note_off_c, 1, 50, 0
1, 42816, Note_on_c, 1, 67, 127
1, 42889, Note_off_c, 1, 78, 0
1, 42912, Note_on_c, 1, 77, 127
1, 42984, Note_on_c, 1, 55, 127
1, 43001, Note_off_c, 1, 77, 0
1, 43007, Note_off_c, 1, 55, 0
1, 43032, Note_on_c, 1, 76, 127
1, 43053, Note_off_c, 1, 67, 0
1, 43055, Note_off_c, 1, 76, 0
1, 43056, Note_on_c, 1, 74, 127
1, 43056, Note_on_c, 1, 48, 127
1, 43079, Note_off_c, 1, 74, 0
1, 43080, Note_on_c, 1, 72, 127
1, 43101, Note_off_c, 1, 48, 0
1, 43103, Note_off_c, 1, 72, 0
1, 43104, Note_on_c, 1, 74, 127
1, 43127, Note_off_c, 1, 74, 0
1, 43128, Note_on_c, 1, 72, 127
1, 43128, Note_on_c, 1, 52, 127
1, 43151, Note_off_c, 1, 72, 0
1, 43151, Note_off_c, 1, 52, 0
1, 43152, Note_on_c, 1, 71, 127
1, 43152, Note_on_c, 1, 50, 127
1, 43175, Note_off_c, 1, 71, 0
1, 43175, Note_off_c, 1, 50, 0
1, 43176, Note_on_c, 1, 69, 127
1, 43176, Note_on_c, 1, 48, 127
1, 43199, Note_off_c, 1, 69, 0
1, 43199, Note_off_c, 1, 48, 0
1, 43200, Note_on_c, 1, 68, 127
1, 43200, Note_on_c, 1, 47, 127
1, 43223, Note_off_c, 1, 68, 0
1, 43224, Note_on_c, 1, 77, 127
1, 43245, Note_off_c, 1, 47, 0
1, 43247, Note_off_c, 1, 77, 0
1, 43248, Note_on_c, 1, 76, 127
1, 43248, Note_on_c, 1, 59, 127
1, 43271, Note_off_c, 1, 76, 0
1, 43272, Note_on_c, 1, 74, 127
1, 43293, Note_off_c, 1, 59, 0
1, 43295, Note_off_c, 1, 74, 0
1, 43296, Note_on_c, 1, 76, 127
1, 43296, Note_on_c, 1, 56, 127
1, 43319, Note_off_c, 1, 76, 0
1, 43320, Note_on_c, 1, 74, 127
1, 43341, Note_off_c, 1, 56, 0
1, 43343, Note_off_c, 1, 74, 0
1, 43344, Note_on_c, 1, 72, 127
1, 43344, Note_on_c, 1, 52, 127
1, 43367, Note_off_c, 1, 72, 0
1, 43368, Note_on_c, 1, 71, 127
1, 43389, Note_off_c, 1, 52, 0
1, 43391, Note_off_c, 1, 71, 0
1, 43392, Note_on_c, 1, 72, 127
1, 43392, Note_on_c, 1, 57, 127
1, 43415, Note_off_c, 1, 72, 0
1, 43415, Note_off_c, 1, 57, 0
1, 43416, Note_on_c, 1, 71, 127
1, 43416, Note_on_c, 1, 59, 127
1, 43439, Note_off_c, 1, 71, 0
1, 43439, Note_off_c, 1, 59, 0
1, 43440, Note_on_c, 1, 69, 127
1, 43440, Note_on_c, 1, 60, 127
1, 43463, Note_off_c, 1, 69, 0
1, 43464, Note_on_c, 1, 67, 127
1, 43487, Note_off_c, 1, 67, 0
1, 43511, Note_off_c, 1, 60, 0
1, 43512, Note_on_c, 1, 67, 127
1, 43512, Note_on_c, 1, 59, 127
1, 43535, Note_off_c, 1, 67, 0
1, 43535, Note_off_c, 1, 59, 0
1, 43536, Note_on_c, 1, 66, 127
1, 43536, Note_on_c, 1, 57, 127
1, 43559, Note_off_c, 1, 66, 0
1, 43559, Note_off_c, 1, 57, 0
1, 43560, Note_on_c, 1, 64, 127
1, 43560, Note_on_c, 1, 55, 127
1, 43583, Note_off_c, 1, 64, 0
1, 43583, Note_off_c, 1, 55, 0
1, 43584, Note_on_c, 1, 63, 127
1, 43584, Note_on_c, 1, 54, 127
1, 43607, Note_off_c, 1, 63, 0
1, 43608, Note_on_c, 1, 72, 127
1, 43629, Note_off_c, 1, 54, 0
1, 43631, Note_off_c, 1, 72, 0
1, 43632, Note_on_c, 1, 71, 127
1, 43632, Note_on_c, 1, 57, 127
1, 43655, Note_off_c, 1, 71, 0
1, 43656, Note_on_c, 1, 69, 127
1, 43677, Note_off_c, 1, 57, 0
1, 43679, Note_off_c, 1, 69, 0
1, 43680, Note_on_c, 1, 71, 127
1, 43680, Note_on_c, 1, 51, 127
1, 43703, Note_off_c, 1, 71, 0
1, 43704, Note_on_c, 1, 69, 127
1, 43725, Note_off_c, 1, 51, 0
1, 43727, Note_off_c, 1, 69, 0
1, 43728, Note_on_c, 1, 67, 127
1, 43728, Note_on_c, 1, 59, 127
1, 43751, Note_off_c, 1, 67, 0
1, 43752, Note_on_c, 1, 66, 127
1, 43773, Note_off_c, 1, 59, 0
1, 43775, Note_off_c, 1, 66, 0
1, 43776, Note_on_c, 1, 67, 127
1, 43776, Note_on_c, 1, 52, 127
1, 43799, Note_off_c, 1, 67, 0
1, 43799, Note_off_c, 1, 52, 0
1, 43800, Note_on_c, 1, 66, 127
1, 43800, Note_on_c, 1, 54, 127
1, 43823, Note_off_c, 1, 66, 0
1, 43823, Note_off_c, 1, 54, 0
1, 43824, Note_on_c, 1, 64, 127
1, 43824, Note_on_c, 1, 55, 127
1, 43847, Note_off_c, 1, 64, 0
1, 43848, Note_on_c, 1, 62, 127
1, 43871, Note_off_c, 1, 62, 0
1, 43895, Note_off_c, 1, 55, 0
1, 43896, Note_on_c, 1, 62, 127
1, 43896, Note_on_c, 1, 54, 127
1, 43919, Note_off_c, 1, 62, 0
1, 43919, Note_off_c, 1, 54, 0
1, 43920, Note_on_c, 1, 61, 127
1, 43920, Note_on_c, 1, 52, 127
1, 43943, Note_off_c, 1, 61, 0
1, 43943, Note_off_c, 1, 52, 0
1, 43944, Note_on_c, 1, 59, 127
1, 43944, Note_on_c, 1, 50, 127
1, 43967, Note_off_c, 1, 59, 0
1, 43967, Note_off_c, 1, 50, 0
1, 43968, Note_on_c, 1, 58, 127
1, 43968, Note_on_c, 1, 49, 127
1, 43991, Note_off_c, 1, 58, 0
1, 43992, Note_on_c, 1, 67, 127
1, 44013, Note_off_c, 1, 49, 0
1, 44015, Note_off_c, 1, 67, 0
1, 44016, Note_on_c, 1, 66, 127
1, 44016, Note_on_c, 1, 59, 127
1, 44039, Note_off_c, 1, 66, 0
1, 44040, Note_on_c, 1, 64, 127
1, 44061, Note_off_c, 1, 59, 0
1, 44063, Note_off_c, 1, 64, 0
1, 44064, Note_on_c, 1, 66, 127
1, 44064, Note_on_c, 1, 58, 127
1, 44087, Note_off_c, 1, 66, 0
1, 44088, Note_on_c, 1, 64, 127
1, 44109, Note_off_c, 1, 58, 0
1, 44111, Note_off_c, 1, 64, 0
1, 44112, Note_on_c, 1, 63, 127
1, 44112, Note_on_c, 1, 50, 127
1, 44135, Note_off_c, 1, 63, 0
1, 44136, Note_on_c, 1, 61, 127
1, 44157, Note_off_c, 1, 50, 0
1, 44159, Note_off_c, 1, 61, 0
1, 44160, Note_on_c, 1, 63, 127
1, 44160, Note_on_c, 1, 47, 127
1, 44184, Note_on_c, 1, 60, 127
1, 44208, Note_off_c, 1, 60, 0
1, 44208, Note_on_c, 1, 59, 127
1, 44232, Note_off_c, 1, 59, 0
1, 44232, Note_on_c, 1, 57, 127
1, 44256, Note_off_c, 1, 57, 0
1, 44304, Note_on_c, 1, 55, 127
1, 44328, Note_off_c, 1, 55, 0
1, 44328, Note_on_c, 1, 54, 127
1, 44352, Note_off_c, 1, 54, 0
1, 44375, Note_off_c, 1, 63, 0
1, 44376, Note_on_c, 1, 71, 127
1, 44399, Note_off_c, 1, 71, 0
1, 44400, Note_on_c, 1, 69, 127
1, 44423, Note_off_c, 1, 69, 0
1, 44424, Note_on_c, 1, 67, 127
1, 44447, Note_off_c, 1, 67, 0
1, 44448, Note_on_c, 1, 52, 127
1, 44496, Note_on_c, 1, 66, 127
1, 44519, Note_off_c, 1, 66, 0
1, 44520, Note_on_c, 1, 64, 127
1, 44543, Note_off_c, 1, 64, 0
1, 44544, Note_on_c, 1, 72, 127
1, 44568, Note_off_c, 1, 52, 0
1, 44633, Note_off_c, 1, 72, 0
1, 44640, Note_on_c, 1, 81, 127
1, 44688, Note_on_c, 1, 51, 127
1, 44712, Note_off_c, 1, 51, 0
1, 44712, Note_on_c, 1, 49, 127
1, 44721, Note_off_c, 1, 47, 0
1, 44736, Note_off_c, 1, 49, 0
1, 44759, Note_off_c, 1, 81, 0
1, 44760, Note_on_c, 1, 78, 127
1, 44783, Note_off_c, 1, 78, 0
1, 44784, Note_on_c, 1, 80, 127
1, 44784, Note_on_c, 1, 48, 127
1, 44807, Note_off_c, 1, 80, 0
1, 44829, Note_off_c, 1, 48, 0
1, 44832, Note_on_c, 1, 83, 127
1, 44832, Note_on_c, 1, 47, 127
1, 44855, Note_off_c, 1, 83, 0
1, 44856, Note_on_c, 1, 81, 127
1, 44877, Note_off_c, 1, 47, 0
1, 44879, Note_off_c, 1, 81, 0
1, 44880, Note_on_c, 1, 80, 127
1, 44880, Note_on_c, 1, 45, 127
1, 44903, Note_off_c, 1, 80, 0
1, 44904, Note_on_c, 1, 81, 127
1, 44925, Note_off_c, 1, 45, 0
1, 44927, Note_off_c, 1, 81, 0
1, 44928, Note_on_c, 1, 83, 127
1, 44928, Note_on_c, 1, 44, 127
1, 44973, Note_off_c, 1, 83, 0
1, 44973, Note_off_c, 1, 44, 0
1, 44976, Note_on_c, 1, 74, 127
1, 44976, Note_on_c, 1, 45, 127
1, 44999, Note_off_c, 1, 45, 0
1, 45000, Note_on_c, 1, 47, 127
1, 45023, Note_off_c, 1, 47, 0
1, 45048, Note_on_c, 1, 44, 127
1, 45065, Note_off_c, 1, 74, 0
1, 45071, Note_off_c, 1, 44, 0
1, 45072, Note_on_c, 1, 73, 127
1, 45072, Note_on_c, 1, 42, 127
1, 45095, Note_off_c, 1, 42, 0
1, 45096, Note_on_c, 1, 40, 127
1, 45117, Note_off_c, 1, 73, 0
1, 45119, Note_off_c, 1, 40, 0
1, 45120, Note_on_c, 1, 72, 127
1, 45120, Note_on_c, 1, 45, 127
1, 45143, Note_off_c, 1, 72, 0
1, 45144, Note_on_c, 1, 76, 127
1, 45165, Note_off_c, 1, 45, 0
1, 45167, Note_off_c, 1, 76, 0
1, 45168, Note_on_c, 1, 78, 127
1, 45168, Note_on_c, 1, 57, 127
1, 45191, Note_off_c, 1, 78, 0
1, 45192, Note_on_c, 1, 79, 127
1, 45215, Note_off_c, 1, 79, 0
1, 45239, Note_off_c, 1, 57, 0
1, 45240, Note_on_c, 1, 76, 127
1, 45240, Note_on_c, 1, 55, 127
1, 45263, Note_off_c, 1, 76, 0
1, 45263, Note_off_c, 1, 55, 0
1, 45264, Note_on_c, 1, 75, 127
1, 45264, Note_on_c, 1, 54, 127
1, 45287, Note_off_c, 1, 75, 0
1, 45287, Note_off_c, 1, 54, 0
1, 45288, Note_on_c, 1, 76, 127
1, 45288, Note_on_c, 1, 52, 127
1, 45311, Note_off_c, 1, 76, 0
1, 45311, Note_off_c, 1, 52, 0
1, 45312, Note_on_c, 1, 78, 127
1, 45312, Note_on_c, 1, 51, 127
1, 45335, Note_off_c, 1, 51, 0
1, 45336, Note_on_c, 1, 54, 127
1, 45357, Note_off_c, 1, 78, 0
1, 45359, Note_off_c, 1, 54, 0
1, 45360, Note_on_c, 1, 69, 127
1, 45360, Note_on_c, 1, 52, 127
1, 45383, Note_off_c, 1, 52, 0
1, 45384, Note_on_c, 1, 51, 127
1, 45407, Note_off_c, 1, 51, 0
1, 45449, Note_off_c, 1, 69, 0
1, 45456, Note_on_c, 1, 68, 127
1, 45456, Note_on_c, 1, 49, 127
1, 45479, Note_off_c, 1, 49, 0
1, 45480, Note_on_c, 1, 47, 127
1, 45501, Note_off_c, 1, 68, 0
1, 45503, Note_off_c, 1, 47, 0
1, 45504, Note_on_c, 1, 67, 127
1, 45504, Note_on_c, 1, 52, 127
1, 45527, Note_off_c, 1, 67, 0
1, 45528, Note_on_c, 1, 71, 127
1, 45549, Note_off_c, 1, 52, 0
1, 45551, Note_off_c, 1, 71, 0
1, 45552, Note_on_c, 1, 72, 127
1, 45552, Note_on_c, 1, 64, 127
1, 45575, Note_off_c, 1, 72, 0
1, 45576, Note_on_c, 1, 74, 127
1, 45599, Note_off_c, 1, 74, 0
1, 45623, Note_off_c, 1, 64, 0
1, 45624, Note_on_c, 1, 71, 127
1, 45624, Note_on_c, 1, 62, 127
1, 45647, Note_off_c, 1, 71, 0
1, 45647, Note_off_c, 1, 62, 0
1, 45648, Note_on_c, 1, 69, 127
1, 45648, Note_on_c, 1, 60, 127
1, 45671, Note_off_c, 1, 69, 0
1, 45671, Note_off_c, 1, 60, 0
1, 45672, Note_on_c, 1, 71, 127
1, 45672, Note_on_c, 1, 59, 127
1, 45695, Note_off_c, 1, 71, 0
1, 45695, Note_off_c, 1, 59, 0
1, 45696, Note_on_c, 1, 72, 127
1, 45696, Note_on_c, 1, 57, 127
1, 45719, Note_off_c, 1, 57, 0
1, 45720, Note_on_c, 1, 59, 127
1, 45741, Note_off_c, 1, 72, 0
1, 45743, Note_off_c, 1, 59, 0
1, 45744, Note_on_c, 1, 77, 127
1, 45744, Note_on_c, 1, 57, 127
1, 45767, Note_off_c, 1, 57, 0
1, 45768, Note_on_c, 1, 56, 127
1, 45791, Note_off_c, 1, 56, 0
1, 45816, Note_on_c, 1, 55, 127
1, 45833, Note_off_c, 1, 77, 0
1, 45839, Note_off_c, 1, 55, 0
1, 45840, Note_on_c, 1, 76, 127
1, 45840, Note_on_c, 1, 54, 127
1, 45863, Note_off_c, 1, 54, 0
1, 45864, Note_on_c, 1, 52, 127
1, 45885, Note_off_c, 1, 76, 0
1, 45887, Note_off_c, 1, 52, 0
1, 45888, Note_on_c, 1, 75, 127
1, 45888, Note_on_c, 1, 54, 127
1, 45911, Note_off_c, 1, 75, 0
1, 45911, Note_off_c, 1, 54, 0
1, 45912, Note_on_c, 1, 84, 127
1, 45912, Note_on_c, 1, 52, 127
1, 45935, Note_off_c, 1, 84, 0
1, 45935, Note_off_c, 1, 52, 0
1, 45936, Note_on_c, 1, 83, 127
1, 45936, Note_on_c, 1, 51, 127
1, 45959, Note_off_c, 1, 83, 0
1, 45959, Note_off_c, 1, 51, 0
1, 45960, Note_on_c, 1, 81, 127
1, 45960, Note_on_c, 1, 49, 127
1, 45983, Note_off_c, 1, 81, 0
1, 45983, Note_off_c, 1, 49, 0
1, 45984, Note_on_c, 1, 83, 127
1, 45984, Note_on_c, 1, 51, 127
1, 46007, Note_off_c, 1, 83, 0
1, 46007, Note_off_c, 1, 51, 0
1, 46008, Note_on_c, 1, 81, 127
1, 46008, Note_on_c, 1, 47, 127
1, 46031, Note_off_c, 1, 81, 0
1, 46031, Note_off_c, 1, 47, 0
1, 46032, Note_on_c, 1, 79, 127
1, 46032, Note_on_c, 1, 49, 127
1, 46055, Note_off_c, 1, 79, 0
1, 46055, Note_off_c, 1, 49, 0
1, 46056, Note_on_c, 1, 78, 127
1, 46056, Note_on_c, 1, 51, 127
1, 46079, Note_off_c, 1, 78, 0
1, 46079, Note_off_c, 1, 51, 0
1, 46080, Note_on_c, 1, 79, 127
1, 46080, Note_on_c, 1, 52, 127
1, 46103, Note_off_c, 1, 79, 0
1, 46103, Note_off_c, 1, 52, 0
1, 46104, Note_on_c, 1, 76, 127
1, 46104, Note_on_c, 1, 60, 127
1, 46127, Note_off_c, 1, 76, 0
1, 46127, Note_off_c, 1, 60, 0
1, 46128, Note_on_c, 1, 75, 127
1, 46128, Note_on_c, 1, 59, 127
1, 46151, Note_off_c, 1, 75, 0
1, 46151, Note_off_c, 1, 59, 0
1, 46152, Note_on_c, 1, 76, 127
1, 46152, Note_on_c, 1, 60, 127
1, 46175, Note_off_c, 1, 76, 0
1, 46175, Note_off_c, 1, 60, 0
1, 46176, Note_on_c, 1, 78, 127
1, 46176, Note_on_c, 1, 50, 127
1, 46199, Note_off_c, 1, 78, 0
1, 46199, Note_off_c, 1, 50, 0
1, 46200, Note_on_c, 1, 74, 127
1, 46200, Note_on_c, 1, 59, 127
1, 46223, Note_off_c, 1, 74, 0
1, 46223, Note_off_c, 1, 59, 0
1, 46224, Note_on_c, 1, 73, 127
1, 46224, Note_on_c, 1, 57, 127
1, 46247, Note_off_c, 1, 73, 0
1, 46247, Note_off_c, 1, 57, 0
1, 46248, Note_on_c, 1, 74, 127
1, 46248, Note_on_c, 1, 59, 127
1, 46271, Note_off_c, 1, 74, 0
1, 46271, Note_off_c, 1, 59, 0
1, 46272, Note_on_c, 1, 76, 127
1, 46272, Note_on_c, 1, 48, 127
1, 46295, Note_off_c, 1, 76, 0
1, 46295, Note_off_c, 1, 48, 0
1, 46296, Note_on_c, 1, 72, 127
1, 46296, Note_on_c, 1, 57, 127
1, 46319, Note_off_c, 1, 72, 0
1, 46319, Note_off_c, 1, 57, 0
1, 46320, Note_on_c, 1, 71, 127
1, 46320, Note_on_c, 1, 55, 127
1, 46343, Note_off_c, 1, 71, 0
1, 46343, Note_off_c, 1, 55, 0
1, 46344, Note_on_c, 1, 72, 127
1, 46344, Note_on_c, 1, 57, 127
1, 46367, Note_off_c, 1, 72, 0
1, 46367, Note_off_c, 1, 57, 0
1, 46368, Note_on_c, 1, 76, 127
1, 46368, Note_on_c, 1, 47, 127
1, 46391, Note_off_c, 1, 76, 0
1, 46391, Note_off_c, 1, 47, 0
1, 46392, Note_on_c, 1, 71, 127
1, 46392, Note_on_c, 1, 55, 127
1, 46415, Note_off_c, 1, 71, 0
1, 46415, Note_off_c, 1, 55, 0
1, 46416, Note_on_c, 1, 70, 127
1, 46416, Note_on_c, 1, 54, 127
1, 46439, Note_off_c, 1, 70, 0
1, 46439, Note_off_c, 1, 54, 0
1, 46440, Note_on_c, 1, 71, 127
1, 46440, Note_on_c, 1, 55, 127
1, 46463, Note_off_c, 1, 71, 0
1, 46463, Note_off_c, 1, 55, 0
1, 46464, Note_on_c, 1, 76, 127
1, 46464, Note_on_c, 1, 46, 127
1, 46487, Note_off_c, 1, 46, 0
1, 46488, Note_on_c, 1, 55, 127
1, 46511, Note_off_c, 1, 55, 0
1, 46512, Note_on_c, 1, 54, 127
1, 46535, Note_off_c, 1, 54, 0
1, 46536, Note_on_c, 1, 52, 127
1, 46559, Note_off_c, 1, 52, 0
1, 46583, Note_off_c, 1, 76, 0
1, 46584, Note_on_c, 1, 73, 127
1, 46584, Note_on_c, 1, 52, 127
1, 46607, Note_off_c, 1, 73, 0
1, 46607, Note_off_c, 1, 52, 0
1, 46608, Note_on_c, 1, 75, 127
1, 46608, Note_on_c, 1, 51, 127
1, 46631, Note_off_c, 1, 75, 0
1, 46631, Note_off_c, 1, 51, 0
1, 46632, Note_on_c, 1, 76, 127
1, 46632, Note_on_c, 1, 49, 127
1, 46655, Note_off_c, 1, 76, 0
1, 46655, Note_off_c, 1, 49, 0
1, 46656, Note_on_c, 1, 75, 127
1, 46656, Note_on_c, 1, 47, 127
1, 46679, Note_off_c, 1, 75, 0
1, 46679, Note_off_c, 1, 47, 0
1, 46680, Note_on_c, 1, 78, 127
1, 46680, Note_on_c, 1, 57, 127
1, 46703, Note_off_c, 1, 78, 0
1, 46703, Note_off_c, 1, 57, 0
1, 46704, Note_on_c, 1, 76, 127
1, 46704, Note_on_c, 1, 55, 127
1, 46727, Note_off_c, 1, 76, 0
1, 46727, Note_off_c, 1, 55, 0
1, 46728, Note_on_c, 1, 75, 127
1, 46728, Note_on_c, 1, 54, 127
1, 46751, Note_off_c, 1, 75, 0
1, 46751, Note_off_c, 1, 54, 0
1, 46752, Note_on_c, 1, 76, 127
1, 46752, Note_on_c, 1, 55, 127
1, 46775, Note_off_c, 1, 76, 0
1, 46775, Note_off_c, 1, 55, 0
1, 46776, Note_on_c, 1, 74, 127
1, 46776, Note_on_c, 1, 54, 127
1, 46799, Note_off_c, 1, 74, 0
1, 46799, Note_off_c, 1, 54, 0
1, 46800, Note_on_c, 1, 72, 127
1, 46800, Note_on_c, 1, 52, 127
1, 46823, Note_off_c, 1, 72, 0
1, 46823, Note_off_c, 1, 52, 0
1, 46824, Note_on_c, 1, 71, 127
1, 46824, Note_on_c, 1, 50, 127
1, 46847, Note_off_c, 1, 71, 0
1, 46847, Note_off_c, 1, 50, 0
1, 46848, Note_on_c, 1, 70, 127
1, 46848, Note_on_c, 1, 49, 127
1, 46871, Note_off_c, 1, 70, 0
1, 46872, Note_on_c, 1, 67, 127
1, 46872, Note_on_c, 1, 52, 127
1, 46895, Note_off_c, 1, 67, 0
1, 46895, Note_off_c, 1, 52, 0
1, 46896, Note_on_c, 1, 66, 127
1, 46896, Note_on_c, 1, 54, 127
1, 46919, Note_off_c, 1, 66, 0
1, 46919, Note_off_c, 1, 54, 0
1, 46920, Note_on_c, 1, 64, 127
1, 46920, Note_on_c, 1, 55, 127
1, 46943, Note_off_c, 1, 64, 0
1, 46943, Note_off_c, 1, 55, 0
1, 46944, Note_off_c, 1, 49, 0
1, 46944, Note_on_c, 1, 69, 127
1, 46967, Note_off_c, 1, 69, 0
1, 46968, Note_on_c, 1, 66, 127
1, 46968, Note_on_c, 1, 54, 127
1, 46991, Note_off_c, 1, 66, 0
1, 46991, Note_off_c, 1, 54, 0
1, 46992, Note_on_c, 1, 64, 127
1, 46992, Note_on_c, 1, 55, 127
1, 47015, Note_off_c, 1, 64, 0
1, 47015, Note_off_c, 1, 55, 0
1, 47016, Note_on_c, 1, 63, 127
1, 47016, Note_on_c, 1, 57, 127
1, 47039, Note_off_c, 1, 63, 0
1, 47039, Note_off_c, 1, 57, 0
1, 47040, Note_on_c, 1, 67, 127
1, 47040, Note_on_c, 1, 64, 127
1, 47040, Note_on_c, 1, 48, 127
1, 47088, Note_on_c, 1, 59, 127
1, 47129, Note_off_c, 1, 67, 0
1, 47129, Note_off_c, 1, 64, 0
1, 47136, Note_off_c, 1, 48, 0
1, 47136, Note_on_c, 1, 66, 127
1, 47136, Note_on_c, 1, 63, 127
1, 47177, Note_off_c, 1, 59, 0
1, 47184, Note_on_c, 1, 57, 127
1, 47225, Note_off_c, 1, 66, 0
1, 47225, Note_off_c, 1, 63, 0
1, 47232, Note_on_c, 1, 52, 127
1, 47321, Note_off_c, 1, 57, 0
1, 47328, Note_on_c, 1, 69, 127
1, 47328, Note_on_c, 1, 55, 127
1, 47351, Note_off_c, 1, 69, 0
1, 47352, Note_on_c, 1, 71, 127
1, 47373, Note_off_c, 1, 55, 0
1, 47375, Note_off_c, 1, 71, 0
1, 47376, Note_on_c, 1, 73, 127
1, 47376, Note_on_c, 1, 54, 127
1, 47399, Note_off_c, 1, 73, 0
1, 47400, Note_on_c, 1, 75, 127
1, 47421, Note_off_c, 1, 54, 0
1, 47423, Note_off_c, 1, 75, 0
1, 47424, Note_off_c, 1, 52, 0
1, 47424, Note_on_c, 1, 76, 127
1, 47601, Note_off_c, 1, 76, 0
1, 47601, End_track
0, 0, End_of_file