0, 0, Header, 1, 1, 480
1, 0, Start_track
1, 0, Title_t, "Test"
1, 0, Tempo, 500000
1, 0, Note_on_c, 1, 46, 64
1, 4552, Note_on_c, 1, 62, 64
1, 5004, Note_off_c, 1, 46, 0
1, 5134, Note_off_c, 1, 62, 0
1, 5139, Note_on_c, 1, 46, 64
1, 6323, Note_on_c, 1, 62, 64
1, 6666, Note_on_c, 1, 53, 64
1, 6725, Note_off_c, 1, 46, 0
1, 6739, Note_off_c, 1, 53, 0
1, 7050, Note_off_c, 1, 62, 0
1, 7053, Note_on_c, 1, 60, 64
1, 7713, Note_off_c, 1, 60, 0
1, 7717, Note_on_c, 1, 62, 64
1, 8160, Note_off_c, 1, 62, 0
1, 8967, Note_on_c, 1, 65, 64
1, 9445, Note_off_c, 1, 65, 0
1, 11477, Note_on_c, 1, 52, 64
1, 16319, Note_off_c, 1, 52, 0
1, 18741, Note_on_c, 1, 50, 64
1, 18811, Note_off_c, 1, 50, 0
1, 19364, Note_on_c, 1, 53, 64
1, 19572, Note_off_c, 1, 53, 0
1, 19749, Note_on_c, 1, 50, 64
1, 20153, Note_off_c, 1, 50, 0
1, 29613, Note_on_c, 1, 41, 64
1, 29877, Note_on_c, 1, 60, 64
1, 30021, Note_off_c, 1, 60, 0
1, 30110, Note_on_c, 1, 72, 64
1, 30466, Note_off_c, 1, 41, 0
1, 30992, Note_off_c, 1, 72, 0
1, 30998, Note_on_c, 1, 79, 64
1, 31663, Note_off_c, 1, 79, 0
1, 31670, Note_on_c, 1, 79, 64
1, 31694, Note_off_c, 1, 79, 0
1, 32959, Note_on_c, 1, 65, 64
1, 33079, Note_off_c, 1, 65, 0
1, 34659, Note_on_c, 1, 65, 64
1, 35782, Note_off_c, 1, 65, 0
1, 36580, Note_on_c, 1, 52, 64
1, 37712, Note_off_c, 1, 52, 0
1, 39467, Note_on_c, 1, 50, 64
1, 39566, Note_off_c, 1, 50, 0
1, 39580, Note_on_c, 1, 57, 64
1, 42103, Note_off_c, 1, 57, 0
1, 42116, Note_on_c, 1, 58, 64
1, 42381, Note_off_c, 1, 58, 0
1, 42389, Note_on_c, 1, 57, 64
1, 42477, Note_off_c, 1, 57, 0
1, 42513, Note_on_c, 1, 60, 64
1, 42543, Note_off_c, 1, 60, 0
1, 43195, Note_on_c, 1, 41, 64
1, 43354, Note_on_c, 1, 81, 64
1, 43436, Note_off_c, 1, 81, 0
1, 43541, Note_off_c, 1, 41, 0
1, 43545, Note_on_c, 1, 59, 64
1, 45315, Note_off_c, 1, 59, 0
1, 45320, Note_on_c, 1, 69, 64
1, 45762, Note_off_c, 1, 69, 0
1, 48189, Note_on_c, 1, 74, 64
1, 48788, Note_off_c, 1, 74, 0
1, 48798, Note_on_c, 1, 77, 64
1, 49002, Note_off_c, 1, 77, 0
1, 49618, Note_on_c, 1, 53, 64
1, 49799, Note_off_c, 1, 53, 0
1, 49882, Note_on_c, 1, 77, 64
1, 49883, Note_on_c, 1, 60, 64
1, 51334, Note_off_c, 1, 77, 0
1, 52634, Note_off_c, 1, 60, 0
1, 52638, Note_on_c, 1, 62, 64
1, 52716, Note_off_c, 1, 62, 0
1, 55595, Note_on_c, 1, 62, 64
1, 55798, Note_off_c, 1, 62, 0
1, 57848, Note_on_c, 1, 65, 64
1, 58543, Note_off_c, 1, 65, 0
1, 60915, Note_on_c, 1, 48, 64
1, 61644, Note_on_c, 1, 55, 64
1, 61647, Note_off_c, 1, 55, 0
1, 63396, Note_off_c, 1, 48, 0
1, 64616, Note_on_c, 1, 65, 64
1, 65127, Note_on_c, 1, 63, 64
1, 67802, Note_off_c, 1, 63, 0
1, 68485, Note_off_c, 1, 65, 0
1, 69049, Note_on_c, 1, 48, 64
1, 71643, Note_off_c, 1, 48, 0
1, 71651, Note_on_c, 1, 65, 64
1, 75067, Note_off_c, 1, 65, 0
1, 76744, Note_on_c, 1, 65, 64
1, 76762, Note_off_c, 1, 65, 0
1, 77744, Note_on_c, 1, 62, 64
1, 77801, Note_off_c, 1, 62, 0
1, 78031, Note_on_c, 1, 65, 64
1, 78641, Note_off_c, 1, 65, 0
1, 78817, Note_on_c, 1, 62, 64
1, 80323, Note_off_c, 1, 62, 0
1, 80327, Note_on_c, 1, 60, 64
1, 80350, Note_off_c, 1, 60, 0
1, 80368, Note_on_c, 1, 60, 64
1, 80891, Note_off_c, 1, 60, 0
1, 81098, Note_on_c, 1, 51, 64
1, 81157, Note_off_c, 1, 51, 0
1, 81173, Note_on_c, 1, 53, 64
1, 81534, Note_off_c, 1, 53, 0
1, 82036, Note_on_c, 1, 57, 64
1, 82097, Note_off_c, 1, 57, 0
1, 82111, Note_on_c, 1, 53, 64
1, 82184, Note_off_c, 1, 53, 0
1, 82365, Note_on_c, 1, 62, 64
1, 82804, Note_off_c, 1, 62, 0
1, 85063, Note_on_c, 1, 50, 64
1, 85233, Note_off_c, 1, 50, 0
1, 85251, Note_on_c, 1, 53, 64
1, 85357, Note_off_c, 1, 53, 0
1, 85765, Note_on_c, 1, 69, 64
1, 86090, Note_off_c, 1, 69, 0
1, 86097, Note_on_c, 1, 67, 64
1, 87757, Note_off_c, 1, 67, 0
1, 87760, Note_on_c, 1, 60, 64
1, 88372, Note_off_c, 1, 60, 0
1, 88376, Note_on_c, 1, 62, 64
1, 88755, Note_off_c, 1, 62, 0
1, 88759, Note_on_c, 1, 60, 64
1, 88791, Note_off_c, 1, 60, 0
1, 91449, Note_on_c, 1, 60, 64
1, 94113, Note_off_c, 1, 60, 0
1, 95477, Note_on_c, 1, 65, 64
1, 95690, Note_off_c, 1, 65, 0
1, 95708, Note_on_c, 1, 48, 64
1, 95910, Note_off_c, 1, 48, 0
1, 100917, Note_on_c, 1, 53, 64
1, 101121, Note_off_c, 1, 53, 0
1, 104064, Note_on_c, 1, 53, 64
1, 104187, Note_off_c, 1, 53, 0
1, 107660, Note_on_c, 1, 53, 64
1, 107829, Note_off_c, 1, 53, 0
1, 107832, Note_on_c, 1, 79, 64
1, 107843, Note_off_c, 1, 79, 0
1, 113015, Note_on_c, 1, 62, 64
1, 113687, Note_off_c, 1, 62, 0
1, 114703, Note_on_c, 1, 69, 64
1, 115038, Note_off_c, 1, 69, 0
1, 115045, Note_on_c, 1, 50, 64
1, 115441, Note_off_c, 1, 50, 0
1, 115774, Note_on_c, 1, 38, 64
1, 117635, Note_on_c, 1, 69, 64
1, 117686, Note_off_c, 1, 38, 0
1, 117818, Note_off_c, 1, 69, 0
1, 117836, Note_on_c, 1, 65, 64
1, 120155, Note_off_c, 1, 65, 0
1, 120176, Note_on_c, 1, 62, 64
1, 120753, Note_off_c, 1, 62, 0
1, 120762, Note_on_c, 1, 58, 64
1, 120821, Note_off_c, 1, 58, 0
1, 120834, Note_on_c, 1, 74, 64
1, 120981, Note_off_c, 1, 74, 0
1, 120989, Note_on_c, 1, 72, 64
1, 121746, Note_off_c, 1, 72, 0
1, 121761, Note_on_c, 1, 71, 64
1, 123194, Note_off_c, 1, 71, 0
1, 123549, Note_on_c, 1, 48, 64
1, 126528, Note_off_c, 1, 48, 0
1, 126550, Note_on_c, 1, 47, 64
1, 127285, Note_on_c, 1, 55, 64
1, 127445, Note_off_c, 1, 47, 0
1, 128377, Note_on_c, 1, 9, 64
1, 128377, Note_on_c, 1, 10, 64
1, 128378, Note_off_c, 1, 55, 0
1, 128378, Note_off_c, 1, 9, 0
1, 128378, Note_off_c, 1, 10, 0
1, 128378, End_track
0, 0, End_of_file