0, 0, Header, 1, 1, 480
1, 0, Start_track
1, 0, Title_t, "Test"
1, 0, Tempo, 500000
1, 0, Note_on_c, 1, 54, 64
1, 0, Note_on_c, 1, 71, 64
1, 0, Note_on_c, 1, 62, 64
1, 1, Note_off_c, 1, 62, 0
1, 1, Note_on_c, 1, 79, 64
1, 2, Note_off_c, 1, 71, 0
1, 51, Note_off_c, 1, 54, 0
1, 52, Note_off_c, 1, 79, 0
1, 91, Note_on_c, 1, 58, 64
1, 307, Note_off_c, 1, 58, 0
1, 579, Note_on_c, 1, 62, 64
1, 661, Note_off_c, 1, 62, 0
1, 664, Note_on_c, 1, 60, 64
1, 784, Note_off_c, 1, 60, 0
1, 787, Note_on_c, 1, 53, 64
1, 787, Note_on_c, 1, 65, 64
1, 848, Note_off_c, 1, 53, 0
1, 849, Note_off_c, 1, 65, 0
1, 852, Note_on_c, 1, 63, 64
1, 852, Note_on_c, 1, 55, 64
1, 1532, Note_off_c, 1, 63, 0
1, 1534, Note_on_c, 1, 64, 64
1, 2281, Note_off_c, 1, 55, 0
1, 2282, Note_off_c, 1, 64, 0
1, 2285, Note_on_c, 1, 60, 64
1, 2285, Note_on_c, 1, 53, 64
1, 2654, Note_on_c, 1, 68, 64
1, 3184, Note_off_c, 1, 60, 0
1, 3186, Note_off_c, 1, 53, 0
1, 3187, Note_off_c, 1, 68, 0
1, 3187, Note_on_c, 1, 65, 64
1, 3390, Note_off_c, 1, 65, 0
1, 3394, Note_on_c, 1, 63, 64
1, 3394, Note_on_c, 1, 55, 64
1, 3785, Note_off_c, 1, 63, 0
1, 3790, Note_on_c, 1, 60, 64
1, 4037, Note_off_c, 1, 60, 0
1, 4129, Note_off_c, 1, 55, 0
1, 4152, Note_on_c, 1, 53, 64
1, 4266, Note_off_c, 1, 53, 0
1, 4307, Note_on_c, 1, 50, 64
1, 4344, Note_off_c, 1, 50, 0
1, 4357, Note_on_c, 1, 53, 64
1, 4424, Note_off_c, 1, 53, 0
1, 4554, Note_on_c, 1, 50, 64
1, 4565, Note_off_c, 1, 50, 0
1, 5285, Note_on_c, 1, 69, 64
1, 5492, Note_off_c, 1, 69, 0
1, 5496, Note_on_c, 1, 70, 64
1, 5665, Note_off_c, 1, 70, 0
1, 5679, Note_on_c, 1, 74, 64
1, 5746, Note_off_c, 1, 74, 0
1, 5760, Note_on_c, 1, 58, 64
1, 5928, Note_off_c, 1, 58, 0
1, 5941, Note_on_c, 1, 75, 64
1, 5942, Note_off_c, 1, 75, 0
1, 5942, Note_on_c, 1, 57, 64
1, 5942, Note_on_c, 1, 46, 64
1, 6029, Note_off_c, 1, 57, 0
1, 6029, Note_on_c, 1, 62, 64
1, 6083, Note_on_c, 1, 67, 64
1, 6100, Note_off_c, 1, 62, 0
1, 6338, Note_on_c, 1, 73, 64
1, 6698, Note_off_c, 1, 73, 0
1, 6699, Note_off_c, 1, 46, 0
1, 6702, Note_on_c, 1, 70, 64
1, 7498, Note_off_c, 1, 67, 0
1, 7498, Note_off_c, 1, 70, 0
1, 7502, Note_on_c, 1, 69, 64
1, 7502, Note_on_c, 1, 41, 64
1, 7769, Note_off_c, 1, 69, 0
1, 7989, Note_on_c, 1, 63, 64
1, 8065, Note_off_c, 1, 41, 0
1, 8942, Note_on_c, 1, 46, 64
1, 8982, Note_off_c, 1, 63, 0
1, 8988, Note_on_c, 1, 50, 64
1, 9027, Note_off_c, 1, 46, 0
1, 9027, Note_on_c, 1, 66, 64
1, 9258, Note_off_c, 1, 66, 0
1, 9292, Note_off_c, 1, 50, 0
1, 9294, Note_on_c, 1, 51, 64
1, 9294, Note_on_c, 1, 72, 64
1, 9908, Note_off_c, 1, 51, 0
1, 9911, Note_on_c, 1, 45, 64
1, 9911, Note_on_c, 1, 53, 64
1, 9914, Note_off_c, 1, 45, 0
1, 9918, Note_on_c, 1, 63, 64
1, 10794, Note_off_c, 1, 63, 0
1, 10836, Note_off_c, 1, 53, 0
1, 10839, Note_on_c, 1, 62, 64
1, 10902, Note_off_c, 1, 62, 0
1, 11558, Note_off_c, 1, 72, 0
1, 11562, Note_on_c, 1, 78, 64
1, 11563, Note_on_c, 1, 75, 64
1, 11580, Note_off_c, 1, 78, 0
1, 11584, Note_on_c, 1, 62, 64
1, 11670, Note_off_c, 1, 75, 0
1, 11874, Note_off_c, 1, 62, 0
1, 11879, Note_on_c, 1, 62, 64
1, 12200, Note_off_c, 1, 62, 0
1, 12258, Note_on_c, 1, 65, 64
1, 12454, Note_off_c, 1, 65, 0
1, 12463, Note_on_c, 1, 57, 64
1, 13598, Note_off_c, 1, 57, 0
1, 13607, Note_on_c, 1, 58, 64
1, 13689, Note_off_c, 1, 58, 0
1, 13841, Note_on_c, 1, 50, 64
1, 13974, Note_off_c, 1, 50, 0
1, 13993, Note_on_c, 1, 53, 64
1, 14054, Note_off_c, 1, 53, 0
1, 15639, Note_on_c, 1, 41, 64
1, 15654, Note_off_c, 1, 41, 0
1, 16126, Note_on_c, 1, 65, 64
1, 16508, Note_off_c, 1, 65, 0
1, 17174, Note_on_c, 1, 58, 64
1, 17269, Note_off_c, 1, 58, 0
1, 17278, Note_on_c, 1, 57, 64
1, 17785, Note_off_c, 1, 57, 0
1, 17798, Note_on_c, 1, 53, 64
1, 17868, Note_off_c, 1, 53, 0
1, 18732, Note_on_c, 1, 53, 64
1, 18846, Note_off_c, 1, 53, 0
1, 18912, Note_on_c, 1, 69, 64
1, 19293, Note_on_c, 1, 65, 64
1, 19303, Note_off_c, 1, 69, 0
1, 19303, Note_off_c, 1, 65, 0
1, 19308, Note_on_c, 1, 70, 64
1, 19308, Note_on_c, 1, 72, 64
1, 19421, Note_off_c, 1, 70, 0
1, 19422, Note_on_c, 1, 69, 64
1, 19665, Note_off_c, 1, 72, 0
1, 19665, Note_off_c, 1, 69, 0
1, 19669, Note_on_c, 1, 67, 64
1, 19669, Note_on_c, 1, 70, 64
1, 19751, Note_off_c, 1, 67, 0
1, 19757, Note_on_c, 1, 72, 64
1, 19882, Note_off_c, 1, 70, 0
1, 19883, Note_on_c, 1, 69, 64
1, 20594, Note_off_c, 1, 69, 0
1, 20818, Note_off_c, 1, 72, 0
1, 20822, Note_on_c, 1, 74, 64
1, 21214, Note_off_c, 1, 74, 0
1, 21275, Note_on_c, 1, 50, 64
1, 21331, Note_off_c, 1, 50, 0
1, 22214, Note_on_c, 1, 70, 64
1, 22456, Note_off_c, 1, 70, 0
1, 22510, Note_on_c, 1, 62, 64
1, 23198, Note_off_c, 1, 62, 0
1, 23207, Note_on_c, 1, 60, 64
1, 23403, Note_off_c, 1, 60, 0
1, 24160, Note_on_c, 1, 53, 64
1, 24260, Note_off_c, 1, 53, 0
1, 25032, Note_on_c, 1, 63, 64
1, 25211, Note_off_c, 1, 63, 0
1, 25219, Note_on_c, 1, 62, 64
1, 25455, Note_off_c, 1, 62, 0
1, 25479, Note_on_c, 1, 48, 64
1, 26204, Note_off_c, 1, 48, 0
1, 26888, Note_on_c, 1, 60, 64
1, 27156, Note_off_c, 1, 60, 0
1, 27160, Note_on_c, 1, 62, 64
1, 27620, Note_off_c, 1, 62, 0
1, 27704, Note_on_c, 1, 62, 64
1, 27930, Note_off_c, 1, 62, 0
1, 28468, Note_on_c, 1, 65, 64
1, 28484, Note_off_c, 1, 65, 0
1, 28493, Note_on_c, 1, 58, 64
1, 28625, Note_off_c, 1, 58, 0
1, 28766, Note_on_c, 1, 60, 64
1, 29012, Note_off_c, 1, 60, 0
1, 29020, Note_on_c, 1, 58, 64
1, 29149, Note_off_c, 1, 58, 0
1, 29158, Note_on_c, 1, 53, 64
1, 29297, Note_off_c, 1, 53, 0
1, 29416, Note_on_c, 1, 44, 64
1, 29440, Note_off_c, 1, 44, 0
1, 29440, Note_on_c, 1, 82, 64
1, 29441, Note_off_c, 1, 82, 0
1, 29497, Note_on_c, 1, 53, 64
1, 29571, Note_off_c, 1, 53, 0
1, 29790, Note_on_c, 1, 65, 64
1, 30035, Note_off_c, 1, 65, 0
1, 30048, Note_on_c, 1, 65, 64
1, 30070, Note_off_c, 1, 65, 0
1, 30100, Note_on_c, 1, 57, 64
1, 30448, Note_off_c, 1, 57, 0
1, 30492, Note_on_c, 1, 80, 64
1, 30560, Note_off_c, 1, 80, 0
1, 30858, Note_on_c, 1, 65, 64
1, 30995, Note_off_c, 1, 65, 0
1, 30999, Note_on_c, 1, 55, 64
1, 31006, Note_off_c, 1, 55, 0
1, 31114, Note_on_c, 1, 62, 64
1, 31368, Note_off_c, 1, 62, 0
1, 31381, Note_on_c, 1, 63, 64
1, 31386, Note_off_c, 1, 63, 0
1, 31699, Note_on_c, 1, 84, 64
1, 31700, Note_off_c, 1, 84, 0
1, 31700, Note_on_c, 1, 71, 64
1, 31700, Note_on_c, 1, 61, 64
1, 32574, Note_off_c, 1, 71, 0
1, 32583, Note_on_c, 1, 80, 64
1, 32585, Note_off_c, 1, 61, 0
1, 32876, Note_off_c, 1, 80, 0
1, 33415, Note_on_c, 1, 62, 64
1, 33611, Note_off_c, 1, 62, 0
1, 34207, Note_on_c, 1, 62, 64
1, 34345, Note_off_c, 1, 62, 0
1, 34378, Note_on_c, 1, 65, 64
1, 34943, Note_off_c, 1, 65, 0
1, 35347, Note_on_c, 1, 62, 64
1, 35625, Note_off_c, 1, 62, 0
1, 35835, Note_on_c, 1, 57, 64
1, 35924, Note_off_c, 1, 57, 0
1, 36078, Note_on_c, 1, 60, 64
1, 36623, Note_off_c, 1, 60, 0
1, 37016, Note_on_c, 1, 70, 64
1, 37046, Note_off_c, 1, 70, 0
1, 37112, Note_on_c, 1, 48, 64
1, 37112, Note_on_c, 1, 41, 64
1, 37112, Note_on_c, 1, 68, 64
1, 37114, Note_off_c, 1, 68, 0
1, 37115, Note_off_c, 1, 48, 0
1, 37115, Note_off_c, 1, 41, 0
1, 37116, Note_on_c, 1, 53, 64
1, 37211, Note_off_c, 1, 53, 0
1, 37520, Note_on_c, 1, 62, 64
1, 38529, Note_off_c, 1, 62, 0
1, 38986, Note_on_c, 1, 65, 64
1, 39294, Note_off_c, 1, 65, 0
1, 39319, Note_on_c, 1, 69, 64
1, 39521, Note_off_c, 1, 69, 0
1, 40656, Note_on_c, 1, 41, 64
1, 40843, Note_on_c, 1, 81, 64
1, 42564, Note_on_c, 1, 60, 64
1, 42565, Note_off_c, 1, 60, 0
1, 42882, Note_off_c, 1, 41, 0
1, 42882, Note_off_c, 1, 81, 0
1, 42887, Note_on_c, 1, 76, 64
1, 42887, Note_on_c, 1, 56, 64
1, 43297, Note_off_c, 1, 76, 0
1, 43298, Note_off_c, 1, 56, 0
1, 43302, Note_on_c, 1, 56, 64
1, 43302, Note_on_c, 1, 57, 64
1, 43303, Note_off_c, 1, 57, 0
1, 43303, Note_on_c, 1, 76, 64
1, 44704, Note_off_c, 1, 56, 0
1, 44704, Note_off_c, 1, 76, 0
1, 44709, Note_on_c, 1, 74, 64
1, 44709, Note_on_c, 1, 46, 64
1, 45288, Note_off_c, 1, 74, 0
1, 45293, Note_on_c, 1, 57, 64
1, 45295, Note_off_c, 1, 57, 0
1, 45313, Note_on_c, 1, 53, 64
1, 45432, Note_off_c, 1, 53, 0
1, 45442, Note_on_c, 1, 62, 64
1, 45569, Note_off_c, 1, 46, 0
1, 45671, Note_on_c, 1, 55, 64
1, 46046, Note_off_c, 1, 55, 0
1, 46046, Note_on_c, 1, 48, 64
1, 46047, Note_off_c, 1, 48, 0
1, 46161, Note_off_c, 1, 62, 0
1, 46165, Note_on_c, 1, 60, 64
1, 46547, Note_off_c, 1, 60, 0
1, 46556, Note_on_c, 1, 62, 64
1, 46901, Note_off_c, 1, 62, 0
1, 46943, Note_on_c, 1, 45, 64
1, 46971, Note_off_c, 1, 45, 0
1, 46974, Note_on_c, 1, 46, 64
1, 47179, Note_on_c, 1, 68, 64
1, 47240, Note_on_c, 1, 62, 64
1, 47513, Note_off_c, 1, 68, 0
1, 47674, Note_off_c, 1, 46, 0
1, 47678, Note_on_c, 1, 58, 64
1, 47679, Note_off_c, 1, 58, 0
1, 47679, Note_on_c, 1, 59, 64
1, 47787, Note_off_c, 1, 59, 0
1, 47787, Note_on_c, 1, 66, 64
1, 47788, Note_off_c, 1, 66, 0
1, 48318, Note_on_c, 1, 9, 64
1, 48318, Note_on_c, 1, 10, 64
1, 48319, Note_off_c, 1, 62, 0
1, 48319, Note_off_c, 1, 9, 0
1, 48319, Note_off_c, 1, 10, 0
1, 48319, End_track
0, 0, End_of_file