0, 0, Header, 1, 1, 480
1, 0, Start_track
1, 0, Title_t, "Test"
1, 0, Tempo, 500000
1, 0, Note_on_c, 1, 81, 64
1, 0, Note_on_c, 1, 66, 64
1, 0, Note_on_c, 1, 55, 64
1, 0, Note_on_c, 1, 62, 64
1, 1, Note_off_c, 1, 81, 0
1, 1, Note_off_c, 1, 66, 0
1, 1, Note_on_c, 1, 41, 64
1, 1, Note_on_c, 1, 46, 64
1, 2, Note_off_c, 1, 41, 0
1, 2, Note_off_c, 1, 46, 0
1, 1131, Note_off_c, 1, 55, 0
1, 1135, Note_off_c, 1, 62, 0
1, 1135, Note_on_c, 1, 72, 64
1, 1135, Note_on_c, 1, 57, 64
1, 1136, Note_on_c, 1, 64, 64
1, 1681, Note_off_c, 1, 72, 0
1, 1681, Note_off_c, 1, 57, 0
1, 2571, Note_off_c, 1, 64, 0
1, 2576, Note_on_c, 1, 71, 64
1, 2630, Note_off_c, 1, 71, 0
1, 2698, Note_on_c, 1, 53, 64
1, 2980, Note_on_c, 1, 71, 64
1, 3194, Note_off_c, 1, 71, 0
1, 3388, Note_off_c, 1, 53, 0
1, 3450, Note_on_c, 1, 71, 64
1, 5590, Note_off_c, 1, 71, 0
1, 5599, Note_on_c, 1, 64, 64
1, 5787, Note_on_c, 1, 62, 64
1, 5869, Note_off_c, 1, 62, 0
1, 5945, Note_off_c, 1, 64, 0
1, 5972, Note_on_c, 1, 65, 64
1, 6353, Note_off_c, 1, 65, 0
1, 6356, Note_on_c, 1, 74, 64
1, 6356, Note_on_c, 1, 58, 64
1, 6391, Note_off_c, 1, 58, 0
1, 6392, Note_off_c, 1, 74, 0
1, 6395, Note_on_c, 1, 65, 64
1, 6395, Note_on_c, 1, 50, 64
1, 6643, Note_off_c, 1, 65, 0
1, 6646, Note_off_c, 1, 50, 0
1, 6740, Note_on_c, 1, 48, 64
1, 6874, Note_on_c, 1, 71, 64
1, 7792, Note_off_c, 1, 71, 0
1, 7792, Note_on_c, 1, 43, 64
1, 7793, Note_off_c, 1, 48, 0
1, 7794, Note_off_c, 1, 43, 0
1, 7802, Note_on_c, 1, 71, 64
1, 10080, Note_off_c, 1, 71, 0
1, 10080, Note_on_c, 1, 63, 64
1, 10081, Note_off_c, 1, 63, 0
1, 10089, Note_on_c, 1, 65, 64
1, 10187, Note_off_c, 1, 65, 0
1, 10187, Note_on_c, 1, 60, 64
1, 10316, Note_off_c, 1, 60, 0
1, 10392, Note_on_c, 1, 62, 64
1, 11044, Note_off_c, 1, 62, 0
1, 11048, Note_on_c, 1, 57, 64
1, 11233, Note_off_c, 1, 57, 0
1, 11242, Note_on_c, 1, 64, 64
1, 13197, Note_off_c, 1, 64, 0
1, 13210, Note_on_c, 1, 60, 64
1, 13213, Note_off_c, 1, 60, 0
1, 13218, Note_on_c, 1, 55, 64
1, 16531, Note_off_c, 1, 55, 0
1, 16571, Note_on_c, 1, 63, 64
1, 19787, Note_off_c, 1, 63, 0
1, 19790, Note_on_c, 1, 64, 64
1, 19790, Note_on_c, 1, 55, 64
1, 20234, Note_off_c, 1, 64, 0
1, 20880, Note_off_c, 1, 55, 0
1, 20898, Note_on_c, 1, 48, 64
1, 21775, Note_on_c, 1, 64, 64
1, 22124, Note_on_c, 1, 72, 64
1, 25845, Note_off_c, 1, 48, 0
1, 25845, Note_off_c, 1, 64, 0
1, 25851, Note_on_c, 1, 52, 64
1, 25937, Note_off_c, 1, 52, 0
1, 25943, Note_off_c, 1, 72, 0
1, 25943, Note_on_c, 1, 50, 64
1, 25944, Note_on_c, 1, 44, 64
1, 25945, Note_off_c, 1, 44, 0
1, 25945, Note_on_c, 1, 71, 64
1, 25946, Note_off_c, 1, 71, 0
1, 26025, Note_on_c, 1, 60, 64
1, 27776, Note_off_c, 1, 50, 0
1, 27940, Note_off_c, 1, 60, 0
1, 27945, Note_on_c, 1, 57, 64
1, 29908, Note_off_c, 1, 57, 0
1, 29912, Note_on_c, 1, 53, 64
1, 30370, Note_off_c, 1, 53, 0
1, 30379, Note_on_c, 1, 75, 64
1, 30544, Note_off_c, 1, 75, 0
1, 30628, Note_on_c, 1, 57, 64
1, 30629, Note_on_c, 1, 64, 64
1, 30920, Note_off_c, 1, 57, 0
1, 31283, Note_off_c, 1, 64, 0
1, 31413, Note_on_c, 1, 63, 64
1, 31758, Note_on_c, 1, 48, 64
1, 31995, Note_on_c, 1, 72, 64
1, 32037, Note_on_c, 1, 64, 64
1, 32039, Note_off_c, 1, 63, 0
1, 36885, Note_off_c, 1, 48, 0
1, 36885, Note_on_c, 1, 56, 64
1, 36886, Note_off_c, 1, 56, 0
1, 40563, Note_off_c, 1, 72, 0
1, 41551, Note_on_c, 1, 62, 64
1, 45301, Note_off_c, 1, 64, 0
1, 45301, Note_off_c, 1, 62, 0
1, 45302, Note_on_c, 1, 64, 64
1, 45302, Note_on_c, 1, 48, 64
1, 48149, Note_on_c, 1, 72, 64
1, 48595, Note_off_c, 1, 72, 0
1, 49571, Note_on_c, 1, 76, 64
1, 52490, Note_on_c, 1, 53, 64
1, 53273, Note_off_c, 1, 64, 0
1, 53273, Note_off_c, 1, 48, 0
1, 53557, Note_off_c, 1, 53, 0
1, 53560, Note_on_c, 1, 73, 64
1, 55822, Note_off_c, 1, 76, 0
1, 55822, Note_off_c, 1, 73, 0
1, 55833, Note_on_c, 1, 57, 64
1, 55833, Note_on_c, 1, 53, 64
1, 55833, Note_on_c, 1, 62, 64
1, 57294, Note_off_c, 1, 53, 0
1, 57294, Note_on_c, 1, 68, 64
1, 57312, Note_off_c, 1, 57, 0
1, 57312, Note_off_c, 1, 62, 0
1, 57313, Note_off_c, 1, 68, 0
1, 58986, Note_on_c, 1, 62, 64
1, 59113, Note_off_c, 1, 62, 0
1, 59154, Note_on_c, 1, 65, 64
1, 60284, Note_off_c, 1, 65, 0
1, 60297, Note_on_c, 1, 64, 64
1, 61094, Note_off_c, 1, 64, 0
1, 61097, Note_on_c, 1, 65, 64
1, 61746, Note_off_c, 1, 65, 0
1, 61831, Note_on_c, 1, 57, 64
1, 62906, Note_off_c, 1, 57, 0
1, 62986, Note_on_c, 1, 53, 64
1, 63307, Note_off_c, 1, 53, 0
1, 63334, Note_on_c, 1, 71, 64
1, 63539, Note_off_c, 1, 71, 0
1, 63539, Note_on_c, 1, 65, 64
1, 63541, Note_on_c, 1, 50, 64
1, 63588, Note_off_c, 1, 50, 0
1, 63848, Note_off_c, 1, 65, 0
1, 63879, Note_on_c, 1, 64, 64
1, 65436, Note_off_c, 1, 64, 0
1, 65436, Note_on_c, 1, 50, 64
1, 65437, Note_off_c, 1, 50, 0
1, 65506, Note_on_c, 1, 62, 64
1, 65678, Note_off_c, 1, 62, 0
1, 65693, Note_on_c, 1, 50, 64
1, 65804, Note_on_c, 1, 64, 64
1, 66052, Note_off_c, 1, 50, 0
1, 66661, Note_off_c, 1, 64, 0
1, 66683, Note_on_c, 1, 65, 64
1, 67482, Note_off_c, 1, 65, 0
1, 67490, Note_on_c, 1, 63, 64
1, 69665, Note_on_c, 1, 9, 64
1, 69665, Note_on_c, 1, 10, 64
1, 69666, Note_off_c, 1, 63, 0
1, 69666, Note_off_c, 1, 9, 0
1, 69666, Note_off_c, 1, 10, 0
1, 69666, End_track
0, 0, End_of_file