0, 0, Header, 1, 1, 480
1, 0, Start_track
1, 0, Title_t, "Test"
1, 0, Tempo, 500000
1, 0, Note_on_c, 1, 53, 64
1, 1, Note_off_c, 1, 53, 0
1, 2, Note_on_c, 1, 76, 64
1, 2, Note_on_c, 1, 52, 64
1, 2, Note_on_c, 1, 48, 64
1, 237, Note_off_c, 1, 52, 0
1, 242, Note_on_c, 1, 72, 64
1, 282, Note_off_c, 1, 72, 0
1, 492, Note_off_c, 1, 76, 0
1, 496, Note_on_c, 1, 77, 64
1, 698, Note_off_c, 1, 48, 0
1, 698, Note_off_c, 1, 77, 0
1, 702, Note_on_c, 1, 77, 64
1, 702, Note_on_c, 1, 48, 64
1, 894, Note_off_c, 1, 77, 0
1, 894, Note_off_c, 1, 48, 0
1, 898, Note_on_c, 1, 79, 64
1, 898, Note_on_c, 1, 59, 64
1, 1511, Note_off_c, 1, 79, 0
1, 1511, Note_off_c, 1, 59, 0
1, 1516, Note_on_c, 1, 81, 64
1, 1516, Note_on_c, 1, 64, 64
1, 1516, Note_on_c, 1, 76, 64
1, 1542, Note_off_c, 1, 81, 0
1, 1542, Note_on_c, 1, 61, 64
1, 1543, Note_off_c, 1, 61, 0
1, 1546, Note_off_c, 1, 76, 0
1, 1735, Note_off_c, 1, 64, 0
1, 1739, Note_on_c, 1, 77, 64
1, 1739, Note_on_c, 1, 50, 64
1, 1802, Note_off_c, 1, 77, 0
1, 1815, Note_on_c, 1, 60, 64
1, 2206, Note_off_c, 1, 50, 0
1, 2211, Note_on_c, 1, 72, 64
1, 2211, Note_on_c, 1, 52, 64
1, 2425, Note_off_c, 1, 72, 0
1, 2425, Note_off_c, 1, 52, 0
1, 2966, Note_off_c, 1, 60, 0
1, 2970, Note_on_c, 1, 62, 64
1, 3197, Note_off_c, 1, 62, 0
1, 3224, Note_on_c, 1, 53, 64
1, 3277, Note_off_c, 1, 53, 0
1, 3658, Note_on_c, 1, 74, 64
1, 3670, Note_off_c, 1, 74, 0
1, 3674, Note_on_c, 1, 57, 64
1, 3798, Note_off_c, 1, 57, 0
1, 3802, Note_on_c, 1, 55, 64
1, 3876, Note_off_c, 1, 55, 0
1, 3885, Note_on_c, 1, 53, 64
1, 3984, Note_off_c, 1, 53, 0
1, 4000, Note_on_c, 1, 77, 64
1, 4012, Note_off_c, 1, 77, 0
1, 4168, Note_on_c, 1, 65, 64
1, 4243, Note_off_c, 1, 65, 0
1, 4265, Note_on_c, 1, 67, 64
1, 4437, Note_off_c, 1, 67, 0
1, 4465, Note_on_c, 1, 60, 64
1, 4866, Note_off_c, 1, 60, 0
1, 4885, Note_on_c, 1, 62, 64
1, 4967, Note_off_c, 1, 62, 0
1, 4972, Note_on_c, 1, 60, 64
1, 4980, Note_off_c, 1, 60, 0
1, 5349, Note_on_c, 1, 57, 64
1, 5621, Note_off_c, 1, 57, 0
1, 5630, Note_on_c, 1, 62, 64
1, 5664, Note_off_c, 1, 62, 0
1, 5672, Note_on_c, 1, 59, 64
1, 6889, Note_off_c, 1, 59, 0
1, 6893, Note_on_c, 1, 60, 64
1, 7160, Note_off_c, 1, 60, 0
1, 7165, Note_on_c, 1, 74, 64
1, 7165, Note_on_c, 1, 58, 64
1, 8140, Note_off_c, 1, 74, 0
1, 8145, Note_on_c, 1, 75, 64
1, 8311, Note_off_c, 1, 58, 0
1, 8311, Note_off_c, 1, 75, 0
1, 8315, Note_on_c, 1, 77, 64
1, 8315, Note_on_c, 1, 50, 64
1, 8315, Note_on_c, 1, 58, 64
1, 8483, Note_off_c, 1, 77, 0
1, 8483, Note_off_c, 1, 50, 0
1, 8487, Note_off_c, 1, 58, 0
1, 8487, Note_on_c, 1, 79, 64
1, 8487, Note_on_c, 1, 68, 64
1, 8487, Note_on_c, 1, 51, 64
1, 8490, Note_off_c, 1, 79, 0
1, 8490, Note_off_c, 1, 68, 0
1, 8490, Note_on_c, 1, 75, 64
1, 8491, Note_off_c, 1, 75, 0
1, 8712, Note_off_c, 1, 51, 0
1, 8720, Note_on_c, 1, 60, 64
1, 9272, Note_off_c, 1, 60, 0
1, 9276, Note_on_c, 1, 50, 64
1, 9295, Note_off_c, 1, 50, 0
1, 9314, Note_on_c, 1, 48, 64
1, 9835, Note_off_c, 1, 48, 0
1, 9848, Note_on_c, 1, 65, 64
1, 10017, Note_on_c, 1, 62, 64
1, 10499, Note_off_c, 1, 62, 0
1, 10506, Note_off_c, 1, 65, 0
1, 10514, Note_on_c, 1, 60, 64
1, 10515, Note_on_c, 1, 72, 64
1, 10519, Note_off_c, 1, 60, 0
1, 10519, Note_off_c, 1, 72, 0
1, 10523, Note_on_c, 1, 66, 64
1, 10523, Note_on_c, 1, 74, 64
1, 10760, Note_off_c, 1, 66, 0
1, 10770, Note_off_c, 1, 74, 0
1, 10788, Note_on_c, 1, 53, 64
1, 10805, Note_off_c, 1, 53, 0
1, 10868, Note_on_c, 1, 62, 64
1, 11037, Note_off_c, 1, 62, 0
1, 11051, Note_on_c, 1, 59, 64
1, 11270, Note_off_c, 1, 59, 0
1, 11274, Note_on_c, 1, 60, 64
1, 11279, Note_off_c, 1, 60, 0
1, 11282, Note_on_c, 1, 57, 64
1, 11282, Note_on_c, 1, 64, 64
1, 11336, Note_off_c, 1, 57, 0
1, 11611, Note_off_c, 1, 64, 0
1, 11622, Note_on_c, 1, 74, 64
1, 11753, Note_off_c, 1, 74, 0
1, 11757, Note_on_c, 1, 72, 64
1, 11800, Note_off_c, 1, 72, 0
1, 11806, Note_on_c, 1, 70, 64
1, 12068, Note_off_c, 1, 70, 0
1, 12073, Note_on_c, 1, 53, 64
1, 12092, Note_off_c, 1, 53, 0
1, 12386, Note_on_c, 1, 65, 64
1, 12417, Note_off_c, 1, 65, 0
1, 12438, Note_on_c, 1, 70, 64
1, 12454, Note_off_c, 1, 70, 0
1, 12640, Note_on_c, 1, 53, 64
1, 12737, Note_off_c, 1, 53, 0
1, 12742, Note_on_c, 1, 70, 64
1, 13336, Note_off_c, 1, 70, 0
1, 13340, Note_on_c, 1, 72, 64
1, 13395, Note_off_c, 1, 72, 0
1, 13405, Note_on_c, 1, 52, 64
1, 13440, Note_off_c, 1, 52, 0
1, 13444, Note_on_c, 1, 53, 64
1, 13501, Note_off_c, 1, 53, 0
1, 14186, Note_on_c, 1, 65, 64
1, 14319, Note_off_c, 1, 65, 0
1, 14347, Note_on_c, 1, 78, 64
1, 14398, Note_off_c, 1, 78, 0
1, 14542, Note_on_c, 1, 41, 64
1, 14574, Note_on_c, 1, 80, 64
1, 14587, Note_off_c, 1, 41, 0
1, 14591, Note_on_c, 1, 56, 64
1, 14591, Note_on_c, 1, 53, 64
1, 14593, Note_off_c, 1, 56, 0
1, 14594, Note_off_c, 1, 80, 0
1, 14690, Note_off_c, 1, 53, 0
1, 14700, Note_on_c, 1, 55, 64
1, 14885, Note_off_c, 1, 55, 0
1, 14893, Note_on_c, 1, 62, 64
1, 14991, Note_off_c, 1, 62, 0
1, 14996, Note_on_c, 1, 45, 64
1, 15117, Note_off_c, 1, 45, 0
1, 15130, Note_on_c, 1, 79, 64
1, 15136, Note_off_c, 1, 79, 0
1, 15182, Note_on_c, 1, 74, 64
1, 15361, Note_off_c, 1, 74, 0
1, 15372, Note_on_c, 1, 80, 64
1, 15380, Note_on_c, 1, 53, 64
1, 15381, Note_off_c, 1, 80, 0
1, 15382, Note_off_c, 1, 53, 0
1, 15455, Note_on_c, 1, 62, 64
1, 15578, Note_off_c, 1, 62, 0
1, 15619, Note_on_c, 1, 36, 64
1, 16968, Note_off_c, 1, 36, 0
1, 17066, Note_on_c, 1, 62, 64
1, 17096, Note_off_c, 1, 62, 0
1, 17279, Note_on_c, 1, 71, 64
1, 17763, Note_on_c, 1, 56, 64
1, 17843, Note_off_c, 1, 71, 0
1, 17850, Note_on_c, 1, 63, 64
1, 18259, Note_off_c, 1, 63, 0
1, 18261, Note_on_c, 1, 58, 64
1, 18896, Note_off_c, 1, 58, 0
1, 18896, Note_on_c, 1, 65, 64
1, 18911, Note_off_c, 1, 56, 0
1, 18911, Note_off_c, 1, 65, 0
1, 18913, Note_on_c, 1, 70, 64
1, 18913, Note_on_c, 1, 62, 64
1, 20199, Note_off_c, 1, 70, 0
1, 20201, Note_on_c, 1, 74, 64
1, 20262, Note_off_c, 1, 62, 0
1, 20262, Note_off_c, 1, 74, 0
1, 20265, Note_on_c, 1, 69, 64
1, 20265, Note_on_c, 1, 74, 64
1, 20474, Note_on_c, 1, 76, 64
1, 20476, Note_off_c, 1, 74, 0
1, 20476, Note_off_c, 1, 76, 0
1, 20501, Note_off_c, 1, 69, 0
1, 20505, Note_on_c, 1, 67, 64
1, 20505, Note_on_c, 1, 74, 64
1, 20792, Note_off_c, 1, 67, 0
1, 20796, Note_on_c, 1, 60, 64
1, 20796, Note_on_c, 1, 45, 64
1, 20846, Note_on_c, 1, 50, 64
1, 20870, Note_off_c, 1, 60, 0
1, 20870, Note_off_c, 1, 45, 0
1, 20870, Note_on_c, 1, 55, 64
1, 20870, Note_on_c, 1, 65, 64
1, 20871, Note_off_c, 1, 55, 0
1, 20873, Note_off_c, 1, 74, 0
1, 20873, Note_off_c, 1, 50, 0
1, 20873, Note_on_c, 1, 78, 64
1, 20874, Note_off_c, 1, 78, 0
1, 20877, Note_on_c, 1, 64, 64
1, 20878, Note_off_c, 1, 64, 0
1, 20878, Note_on_c, 1, 62, 64
1, 20960, Note_off_c, 1, 62, 0
1, 21254, Note_on_c, 1, 72, 64
1, 22164, Note_off_c, 1, 72, 0
1, 22167, Note_on_c, 1, 53, 64
1, 22612, Note_off_c, 1, 65, 0
1, 22612, Note_off_c, 1, 53, 0
1, 22614, Note_on_c, 1, 58, 64
1, 22615, Note_on_c, 1, 68, 64
1, 22742, Note_off_c, 1, 68, 0
1, 22743, Note_off_c, 1, 58, 0
1, 22746, Note_on_c, 1, 70, 64
1, 22746, Note_on_c, 1, 62, 64
1, 23190, Note_off_c, 1, 70, 0
1, 23191, Note_off_c, 1, 62, 0
1, 23193, Note_on_c, 1, 60, 64
1, 23193, Note_on_c, 1, 41, 64
1, 23320, Note_off_c, 1, 60, 0
1, 23343, Note_on_c, 1, 63, 64
1, 23352, Note_off_c, 1, 41, 0
1, 23797, Note_off_c, 1, 63, 0
1, 23797, Note_on_c, 1, 46, 64
1, 24116, Note_on_c, 1, 50, 64
1, 24163, Note_on_c, 1, 70, 64
1, 24165, Note_off_c, 1, 46, 0
1, 24167, Note_on_c, 1, 65, 64
1, 24622, Note_off_c, 1, 70, 0
1, 24640, Note_off_c, 1, 50, 0
1, 24640, Note_off_c, 1, 65, 0
1, 24643, Note_on_c, 1, 63, 64
1, 24643, Note_on_c, 1, 67, 64
1, 24784, Note_off_c, 1, 63, 0
1, 24785, Note_on_c, 1, 62, 64
1, 25071, Note_off_c, 1, 67, 0
1, 25090, Note_on_c, 1, 68, 64
1, 25124, Note_off_c, 1, 62, 0
1, 25128, Note_off_c, 1, 68, 0
1, 25128, Note_on_c, 1, 56, 64
1, 25128, Note_on_c, 1, 65, 64
1, 25128, Note_on_c, 1, 59, 64
1, 25129, Note_off_c, 1, 56, 0
1, 25130, Note_off_c, 1, 59, 0
1, 25131, Note_off_c, 1, 65, 0
1, 25134, Note_on_c, 1, 60, 64
1, 25134, Note_on_c, 1, 62, 64
1, 25135, Note_on_c, 1, 53, 64
1, 25276, Note_off_c, 1, 60, 0
1, 25276, Note_on_c, 1, 67, 64
1, 25461, Note_off_c, 1, 67, 0
1, 25465, Note_off_c, 1, 53, 0
1, 25465, Note_on_c, 1, 43, 64
1, 25467, Note_off_c, 1, 62, 0
1, 25468, Note_on_c, 1, 52, 64
1, 25468, Note_on_c, 1, 70, 64
1, 25718, Note_off_c, 1, 52, 0
1, 25845, Note_on_c, 1, 72, 64
1, 25852, Note_on_c, 1, 55, 64
1, 25856, Note_off_c, 1, 43, 0
1, 26201, Note_off_c, 1, 70, 0
1, 26201, Note_off_c, 1, 55, 0
1, 26203, Note_on_c, 1, 50, 64
1, 26224, Note_off_c, 1, 72, 0
1, 26224, Note_off_c, 1, 50, 0
1, 26228, Note_on_c, 1, 72, 64
1, 26228, Note_on_c, 1, 57, 64
1, 26455, Note_off_c, 1, 72, 0
1, 26459, Note_on_c, 1, 65, 64
1, 26773, Note_off_c, 1, 65, 0
1, 26998, Note_off_c, 1, 57, 0
1, 27003, Note_on_c, 1, 55, 64
1, 27023, Note_off_c, 1, 55, 0
1, 27023, Note_on_c, 1, 67, 64
1, 27025, Note_off_c, 1, 67, 0
1, 27071, Note_on_c, 1, 76, 64
1, 27071, Note_on_c, 1, 48, 64
1, 28204, Note_off_c, 1, 76, 0
1, 28208, Note_on_c, 1, 81, 64
1, 28210, Note_on_c, 1, 64, 64
1, 28212, Note_off_c, 1, 48, 0
1, 28225, Note_off_c, 1, 81, 0
1, 28225, Note_on_c, 1, 61, 64
1, 28226, Note_off_c, 1, 64, 0
1, 28227, Note_off_c, 1, 61, 0
1, 28320, Note_on_c, 1, 71, 64
1, 28320, Note_on_c, 1, 79, 64
1, 28606, Note_off_c, 1, 71, 0
1, 28610, Note_on_c, 1, 72, 64
1, 28610, Note_on_c, 1, 76, 64
1, 28614, Note_off_c, 1, 72, 0
1, 28619, Note_on_c, 1, 65, 64
1, 28642, Note_off_c, 1, 79, 0
1, 28642, Note_off_c, 1, 65, 0
1, 28642, Note_on_c, 1, 62, 64
1, 28642, Note_on_c, 1, 45, 64
1, 28643, Note_off_c, 1, 45, 0
1, 28644, Note_off_c, 1, 76, 0
1, 28644, Note_on_c, 1, 53, 64
1, 28649, Note_off_c, 1, 53, 0
1, 28653, Note_on_c, 1, 43, 64
1, 28659, Note_off_c, 1, 43, 0
1, 28678, Note_off_c, 1, 62, 0
1, 28678, Note_on_c, 1, 81, 64
1, 28686, Note_on_c, 1, 64, 64
1, 28713, Note_off_c, 1, 81, 0
1, 28714, Note_off_c, 1, 64, 0
1, 28722, Note_on_c, 1, 41, 64
1, 28739, Note_on_c, 1, 57, 64
1, 28749, Note_off_c, 1, 41, 0
1, 28752, Note_off_c, 1, 57, 0
1, 28760, Note_on_c, 1, 58, 64
1, 28847, Note_off_c, 1, 58, 0
1, 28861, Note_on_c, 1, 60, 64
1, 28879, Note_off_c, 1, 60, 0
1, 28929, Note_on_c, 1, 57, 64
1, 29229, Note_off_c, 1, 57, 0
1, 29242, Note_on_c, 1, 58, 64
1, 29314, Note_off_c, 1, 58, 0
1, 29318, Note_on_c, 1, 58, 64
1, 29396, Note_off_c, 1, 58, 0
1, 29400, Note_on_c, 1, 53, 64
1, 29515, Note_off_c, 1, 53, 0
1, 29529, Note_on_c, 1, 65, 64
1, 29693, Note_off_c, 1, 65, 0
1, 29710, Note_on_c, 1, 62, 64
1, 29929, Note_off_c, 1, 62, 0
1, 29942, Note_on_c, 1, 60, 64
1, 30129, Note_off_c, 1, 60, 0
1, 30135, Note_on_c, 1, 75, 64
1, 30136, Note_off_c, 1, 75, 0
1, 30136, Note_on_c, 1, 57, 64
1, 30136, Note_on_c, 1, 60, 64
1, 30211, Note_off_c, 1, 57, 0
1, 30217, Note_on_c, 1, 72, 64
1, 30891, Note_off_c, 1, 72, 0
1, 31047, Note_off_c, 1, 60, 0
1, 31056, Note_on_c, 1, 78, 64
1, 31234, Note_off_c, 1, 78, 0
1, 31238, Note_on_c, 1, 75, 64
1, 31238, Note_on_c, 1, 60, 64
1, 31559, Note_off_c, 1, 75, 0
1, 31561, Note_on_c, 1, 76, 64
1, 31561, Note_on_c, 1, 65, 64
1, 31575, Note_off_c, 1, 60, 0
1, 31765, Note_off_c, 1, 76, 0
1, 31765, Note_off_c, 1, 65, 0
1, 31772, Note_on_c, 1, 75, 64
1, 31812, Note_off_c, 1, 75, 0
1, 31836, Note_on_c, 1, 82, 64
1, 31883, Note_off_c, 1, 82, 0
1, 32043, Note_on_c, 1, 70, 64
1, 32187, Note_off_c, 1, 70, 0
1, 32545, Note_on_c, 1, 60, 64
1, 32590, Note_off_c, 1, 60, 0
1, 32594, Note_on_c, 1, 57, 64
1, 32856, Note_off_c, 1, 57, 0
1, 32869, Note_on_c, 1, 46, 64
1, 32949, Note_on_c, 1, 68, 64
1, 32962, Note_off_c, 1, 46, 0
1, 32962, Note_on_c, 1, 65, 64
1, 33087, Note_off_c, 1, 68, 0
1, 33087, Note_off_c, 1, 65, 0
1, 33091, Note_on_c, 1, 68, 64
1, 33091, Note_on_c, 1, 65, 64
1, 34408, Note_off_c, 1, 68, 0
1, 34408, Note_off_c, 1, 65, 0
1, 34411, Note_on_c, 1, 60, 64
1, 34411, Note_on_c, 1, 55, 64
1, 34511, Note_off_c, 1, 60, 0
1, 34526, Note_off_c, 1, 55, 0
1, 34531, Note_on_c, 1, 78, 64
1, 34653, Note_off_c, 1, 78, 0
1, 34683, Note_on_c, 1, 65, 64
1, 34917, Note_off_c, 1, 65, 0
1, 34928, Note_on_c, 1, 65, 64
1, 34946, Note_off_c, 1, 65, 0
1, 34950, Note_on_c, 1, 77, 64
1, 35021, Note_off_c, 1, 77, 0
1, 35029, Note_on_c, 1, 53, 64
1, 35095, Note_off_c, 1, 53, 0
1, 35277, Note_on_c, 1, 58, 64
1, 35355, Note_off_c, 1, 58, 0
1, 35364, Note_on_c, 1, 53, 64
1, 35378, Note_on_c, 1, 60, 64
1, 35433, Note_on_c, 1, 63, 64
1, 35592, Note_off_c, 1, 53, 0
1, 35628, Note_on_c, 1, 55, 64
1, 35629, Note_off_c, 1, 55, 0
1, 35630, Note_on_c, 1, 48, 64
1, 35649, Note_off_c, 1, 60, 0
1, 35649, Note_off_c, 1, 63, 0
1, 35655, Note_on_c, 1, 65, 64
1, 35692, Note_off_c, 1, 65, 0
1, 35696, Note_on_c, 1, 71, 64
1, 36045, Note_off_c, 1, 71, 0
1, 36049, Note_on_c, 1, 72, 64
1, 36193, Note_off_c, 1, 72, 0
1, 36504, Note_on_c, 1, 66, 64
1, 37434, Note_off_c, 1, 66, 0
1, 37434, Note_on_c, 1, 58, 64
1, 37435, Note_off_c, 1, 58, 0
1, 37435, Note_on_c, 1, 70, 64
1, 37839, Note_off_c, 1, 48, 0
1, 37839, Note_off_c, 1, 70, 0
1, 37843, Note_on_c, 1, 75, 64
1, 37843, Note_on_c, 1, 62, 64
1, 37843, Note_on_c, 1, 50, 64
1, 38740, Note_off_c, 1, 75, 0
1, 38740, Note_off_c, 1, 62, 0
1, 38740, Note_off_c, 1, 50, 0
1, 38744, Note_on_c, 1, 72, 64
1, 38744, Note_on_c, 1, 64, 64
1, 38744, Note_on_c, 1, 56, 64
1, 39018, Note_off_c, 1, 64, 0
1, 39077, Note_off_c, 1, 72, 0
1, 39081, Note_on_c, 1, 70, 64
1, 39345, Note_off_c, 1, 70, 0
1, 39346, Note_off_c, 1, 56, 0
1, 39348, Note_on_c, 1, 70, 64
1, 39348, Note_on_c, 1, 74, 64
1, 39552, Note_off_c, 1, 70, 0
1, 39557, Note_on_c, 1, 52, 64
1, 39966, Note_off_c, 1, 74, 0
1, 39974, Note_on_c, 1, 72, 64
1, 40156, Note_off_c, 1, 72, 0
1, 40161, Note_on_c, 1, 69, 64
1, 40161, Note_on_c, 1, 62, 64
1, 40741, Note_off_c, 1, 52, 0
1, 40741, Note_off_c, 1, 69, 0
1, 40742, Note_off_c, 1, 62, 0
1, 40750, Note_on_c, 1, 45, 64
1, 40750, Note_on_c, 1, 48, 64
1, 40764, Note_on_c, 1, 76, 64
1, 40765, Note_off_c, 1, 76, 0
1, 40765, Note_on_c, 1, 67, 64
1, 40766, Note_off_c, 1, 48, 0
1, 40766, Note_on_c, 1, 54, 64
1, 41207, Note_off_c, 1, 54, 0
1, 41234, Note_off_c, 1, 67, 0
1, 41235, Note_off_c, 1, 45, 0
1, 41239, Note_on_c, 1, 72, 64
1, 41239, Note_on_c, 1, 57, 64
1, 41239, Note_on_c, 1, 45, 64
1, 41308, Note_off_c, 1, 72, 0
1, 41308, Note_off_c, 1, 45, 0
1, 41313, Note_off_c, 1, 57, 0
1, 41313, Note_on_c, 1, 52, 64
1, 41313, Note_on_c, 1, 55, 64
1, 41324, Note_off_c, 1, 55, 0
1, 41324, Note_on_c, 1, 76, 64
1, 41326, Note_off_c, 1, 76, 0
1, 41330, Note_on_c, 1, 71, 64
1, 41330, Note_on_c, 1, 68, 64
1, 41363, Note_off_c, 1, 52, 0
1, 41363, Note_off_c, 1, 71, 0
1, 41363, Note_off_c, 1, 68, 0
1, 41368, Note_on_c, 1, 69, 64
1, 41368, Note_on_c, 1, 45, 64
1, 41544, Note_off_c, 1, 45, 0
1, 41548, Note_on_c, 1, 44, 64
1, 41743, Note_off_c, 1, 69, 0
1, 41744, Note_off_c, 1, 44, 0
1, 41744, Note_on_c, 1, 70, 64
1, 41744, Note_on_c, 1, 65, 64
1, 43715, Note_off_c, 1, 65, 0
1, 43715, Note_on_c, 1, 68, 64
1, 43716, Note_off_c, 1, 70, 0
1, 43718, Note_on_c, 1, 67, 64
1, 43719, Note_off_c, 1, 67, 0
1, 43724, Note_on_c, 1, 56, 64
1, 43935, Note_off_c, 1, 68, 0
1, 44024, Note_off_c, 1, 56, 0
1, 44024, Note_on_c, 1, 50, 64
1, 44611, Note_on_c, 1, 77, 64
1, 44660, Note_off_c, 1, 77, 0
1, 44667, Note_on_c, 1, 57, 64
1, 44668, Note_off_c, 1, 57, 0
1, 44671, Note_on_c, 1, 60, 64
1, 45331, Note_off_c, 1, 50, 0
1, 45331, Note_off_c, 1, 60, 0
1, 45335, Note_on_c, 1, 62, 64
1, 45335, Note_on_c, 1, 50, 64
1, 45700, Note_off_c, 1, 62, 0
1, 45700, Note_off_c, 1, 50, 0
1, 45704, Note_on_c, 1, 53, 64
1, 45705, Note_on_c, 1, 76, 64
1, 45706, Note_off_c, 1, 53, 0
1, 45706, Note_off_c, 1, 76, 0
1, 45706, Note_on_c, 1, 57, 64
1, 45710, Note_on_c, 1, 52, 64
1, 45710, Note_on_c, 1, 72, 64
1, 45726, Note_off_c, 1, 52, 0
1, 45726, Note_off_c, 1, 72, 0
1, 46027, Note_off_c, 1, 57, 0
1, 46031, Note_on_c, 1, 63, 64
1, 46031, Note_on_c, 1, 55, 64
1, 46177, Note_off_c, 1, 63, 0
1, 46177, Note_off_c, 1, 55, 0
1, 46180, Note_on_c, 1, 56, 64
1, 46180, Note_on_c, 1, 71, 64
1, 46588, Note_off_c, 1, 56, 0
1, 46588, Note_off_c, 1, 71, 0
1, 46593, Note_on_c, 1, 57, 64
1, 46593, Note_on_c, 1, 69, 64
1, 46815, Note_off_c, 1, 57, 0
1, 46825, Note_off_c, 1, 69, 0
1, 46829, Note_on_c, 1, 70, 64
1, 46843, Note_off_c, 1, 70, 0
1, 46847, Note_on_c, 1, 72, 64
1, 47431, Note_off_c, 1, 72, 0
1, 47435, Note_on_c, 1, 77, 64
1, 47435, Note_on_c, 1, 62, 64
1, 48046, Note_off_c, 1, 77, 0
1, 48046, Note_off_c, 1, 62, 0
1, 48050, Note_on_c, 1, 60, 64
1, 48050, Note_on_c, 1, 41, 64
1, 48154, Note_off_c, 1, 60, 0
1, 48247, Note_on_c, 1, 45, 64
1, 48279, Note_on_c, 1, 73, 64
1, 48279, Note_on_c, 1, 82, 64
1, 48281, Note_off_c, 1, 45, 0
1, 48282, Note_off_c, 1, 73, 0
1, 48301, Note_off_c, 1, 41, 0
1, 48301, Note_off_c, 1, 82, 0
1, 48306, Note_on_c, 1, 58, 64
1, 48306, Note_on_c, 1, 42, 64
1, 48307, Note_off_c, 1, 42, 0
1, 48307, Note_on_c, 1, 82, 64
1, 48313, Note_on_c, 1, 62, 64
1, 48317, Note_off_c, 1, 82, 0
1, 48317, Note_on_c, 1, 70, 64
1, 48858, Note_off_c, 1, 58, 0
1, 48858, Note_off_c, 1, 62, 0
1, 48862, Note_on_c, 1, 60, 64
1, 48952, Note_off_c, 1, 60, 0
1, 48952, Note_on_c, 1, 65, 64
1, 49080, Note_off_c, 1, 65, 0
1, 49099, Note_off_c, 1, 70, 0
1, 49103, Note_on_c, 1, 69, 64
1, 49377, Note_off_c, 1, 69, 0
1, 49381, Note_on_c, 1, 70, 64
1, 49612, Note_off_c, 1, 70, 0
1, 49616, Note_on_c, 1, 69, 64
1, 49672, Note_off_c, 1, 69, 0
1, 50027, Note_on_c, 1, 75, 64
1, 50393, Note_on_c, 1, 43, 64
1, 50573, Note_off_c, 1, 75, 0
1, 50573, Note_off_c, 1, 43, 0
1, 50581, Note_on_c, 1, 70, 64
1, 50679, Note_on_c, 1, 60, 64
1, 50861, Note_off_c, 1, 60, 0
1, 50873, Note_on_c, 1, 63, 64
1, 50917, Note_off_c, 1, 70, 0
1, 50921, Note_on_c, 1, 36, 64
1, 51106, Note_off_c, 1, 63, 0
1, 51106, Note_off_c, 1, 36, 0
1, 51106, Note_on_c, 1, 44, 64
1, 51106, Note_on_c, 1, 67, 64
1, 51107, Note_off_c, 1, 67, 0
1, 51385, Note_off_c, 1, 44, 0
1, 51390, Note_on_c, 1, 41, 64
1, 51488, Note_on_c, 1, 62, 64
1, 51762, Note_off_c, 1, 62, 0
1, 51767, Note_on_c, 1, 72, 64
1, 51791, Note_off_c, 1, 72, 0
1, 51795, Note_on_c, 1, 81, 64
1, 51824, Note_off_c, 1, 81, 0
1, 51833, Note_on_c, 1, 63, 64
1, 51873, Note_off_c, 1, 41, 0
1, 51880, Note_on_c, 1, 46, 64
1, 51936, Note_off_c, 1, 63, 0
1, 52114, Note_on_c, 1, 65, 64
1, 52647, Note_off_c, 1, 46, 0
1, 52647, Note_off_c, 1, 65, 0
1, 52650, Note_on_c, 1, 63, 64
1, 52650, Note_on_c, 1, 67, 64
1, 52673, Note_off_c, 1, 63, 0
1, 52673, Note_off_c, 1, 67, 0
1, 52676, Note_on_c, 1, 50, 64
1, 52676, Note_on_c, 1, 60, 64
1, 52935, Note_off_c, 1, 50, 0
1, 52941, Note_on_c, 1, 71, 64
1, 53486, Note_off_c, 1, 71, 0
1, 53486, Note_on_c, 1, 67, 64
1, 53627, Note_off_c, 1, 67, 0
1, 53632, Note_on_c, 1, 66, 64
1, 53635, Note_off_c, 1, 66, 0
1, 53641, Note_on_c, 1, 55, 64
1, 53979, Note_off_c, 1, 60, 0
1, 53979, Note_off_c, 1, 55, 0
1, 53984, Note_on_c, 1, 60, 64
1, 53984, Note_on_c, 1, 48, 64
1, 54067, Note_on_c, 1, 67, 64
1, 54485, Note_off_c, 1, 67, 0
1, 54489, Note_on_c, 1, 72, 64
1, 54717, Note_off_c, 1, 60, 0
1, 54728, Note_off_c, 1, 48, 0
1, 54771, Note_off_c, 1, 72, 0
1, 54774, Note_on_c, 1, 67, 64
1, 54774, Note_on_c, 1, 74, 64
1, 54775, Note_off_c, 1, 67, 0
1, 54975, Note_off_c, 1, 74, 0
1, 55016, Note_on_c, 1, 72, 64
1, 55155, Note_off_c, 1, 72, 0
1, 55165, Note_on_c, 1, 56, 64
1, 55446, Note_off_c, 1, 56, 0
1, 55747, Note_on_c, 1, 79, 64
1, 55748, Note_on_c, 1, 57, 64
1, 55910, Note_off_c, 1, 57, 0
1, 55967, Note_off_c, 1, 79, 0
1, 55974, Note_on_c, 1, 41, 64
1, 55975, Note_on_c, 1, 81, 64
1, 56769, Note_off_c, 1, 41, 0
1, 56769, Note_off_c, 1, 81, 0
1, 56774, Note_on_c, 1, 57, 64
1, 56774, Note_on_c, 1, 84, 64
1, 56947, Note_off_c, 1, 84, 0
1, 56947, Note_on_c, 1, 71, 64
1, 56960, Note_off_c, 1, 57, 0
1, 56967, Note_on_c, 1, 53, 64
1, 57150, Note_off_c, 1, 71, 0
1, 57165, Note_off_c, 1, 53, 0
1, 57171, Note_on_c, 1, 58, 64
1, 57250, Note_off_c, 1, 58, 0
1, 57258, Note_on_c, 1, 55, 64
1, 57314, Note_off_c, 1, 55, 0
1, 57322, Note_on_c, 1, 57, 64
1, 57536, Note_off_c, 1, 57, 0
1, 57553, Note_on_c, 1, 58, 64
1, 57652, Note_off_c, 1, 58, 0
1, 57725, Note_on_c, 1, 50, 64
1, 57805, Note_off_c, 1, 50, 0
1, 57811, Note_on_c, 1, 55, 64
1, 57811, Note_on_c, 1, 73, 64
1, 58223, Note_on_c, 1, 63, 64
1, 58292, Note_off_c, 1, 63, 0
1, 58293, Note_off_c, 1, 55, 0
1, 58295, Note_on_c, 1, 62, 64
1, 58297, Note_off_c, 1, 62, 0
1, 58297, Note_on_c, 1, 64, 64
1, 58326, Note_on_c, 1, 69, 64
1, 58349, Note_off_c, 1, 64, 0
1, 58349, Note_off_c, 1, 69, 0
1, 58349, Note_on_c, 1, 76, 64
1, 58350, Note_off_c, 1, 73, 0
1, 58350, Note_off_c, 1, 76, 0
1, 58350, Note_on_c, 1, 67, 64
1, 58351, Note_off_c, 1, 67, 0
1, 58352, Note_on_c, 1, 50, 64
1, 58356, Note_on_c, 1, 57, 64
1, 58356, Note_on_c, 1, 65, 64
1, 58356, Note_on_c, 1, 74, 64
1, 58761, Note_off_c, 1, 57, 0
1, 58761, Note_off_c, 1, 65, 0
1, 58761, Note_off_c, 1, 74, 0
1, 58767, Note_on_c, 1, 72, 64
1, 58767, Note_on_c, 1, 75, 64
1, 58768, Note_off_c, 1, 50, 0
1, 58768, Note_off_c, 1, 75, 0
1, 58769, Note_on_c, 1, 45, 64
1, 58800, Note_on_c, 1, 52, 64
1, 58929, Note_off_c, 1, 45, 0
1, 58929, Note_off_c, 1, 52, 0
1, 58935, Note_on_c, 1, 48, 64
1, 59716, Note_off_c, 1, 72, 0
1, 59719, Note_off_c, 1, 48, 0
1, 59721, Note_on_c, 1, 74, 64
1, 59721, Note_on_c, 1, 58, 64
1, 59721, Note_on_c, 1, 71, 64
1, 61440, Note_off_c, 1, 58, 0
1, 61440, Note_off_c, 1, 71, 0
1, 61440, Note_on_c, 1, 66, 64
1, 61440, Note_on_c, 1, 46, 64
1, 61942, Note_off_c, 1, 66, 0
1, 61951, Note_off_c, 1, 74, 0
1, 61951, Note_off_c, 1, 46, 0
1, 61955, Note_on_c, 1, 79, 64
1, 61955, Note_on_c, 1, 58, 64
1, 61955, Note_on_c, 1, 48, 64
1, 62300, Note_off_c, 1, 48, 0
1, 62300, Note_on_c, 1, 56, 64
1, 62301, Note_off_c, 1, 56, 0
1, 62366, Note_on_c, 1, 65, 64
1, 62409, Note_off_c, 1, 58, 0
1, 62411, Note_off_c, 1, 65, 0
1, 62641, Note_off_c, 1, 79, 0
1, 62834, Note_on_c, 1, 53, 64
1, 62905, Note_off_c, 1, 53, 0
1, 62917, Note_on_c, 1, 58, 64
1, 62985, Note_off_c, 1, 58, 0
1, 63008, Note_on_c, 1, 74, 64
1, 63074, Note_off_c, 1, 74, 0
1, 63085, Note_on_c, 1, 46, 64
1, 63122, Note_off_c, 1, 46, 0
1, 63127, Note_on_c, 1, 50, 64
1, 63192, Note_off_c, 1, 50, 0
1, 63213, Note_on_c, 1, 65, 64
1, 63256, Note_off_c, 1, 65, 0
1, 63264, Note_on_c, 1, 55, 64
1, 63530, Note_off_c, 1, 55, 0
1, 63548, Note_on_c, 1, 48, 64
1, 63863, Note_off_c, 1, 48, 0
1, 63886, Note_on_c, 1, 65, 64
1, 64001, Note_off_c, 1, 65, 0
1, 64006, Note_on_c, 1, 64, 64
1, 64434, Note_off_c, 1, 64, 0
1, 64449, Note_on_c, 1, 62, 64
1, 64707, Note_off_c, 1, 62, 0
1, 64714, Note_on_c, 1, 60, 64
1, 64834, Note_off_c, 1, 60, 0
1, 64837, Note_on_c, 1, 58, 64
1, 64919, Note_off_c, 1, 58, 0
1, 65188, Note_on_c, 1, 57, 64
1, 65311, Note_off_c, 1, 57, 0
1, 65328, Note_on_c, 1, 58, 64
1, 65405, Note_off_c, 1, 58, 0
1, 65419, Note_on_c, 1, 62, 64
1, 65490, Note_off_c, 1, 62, 0
1, 65505, Note_on_c, 1, 54, 64
1, 65505, Note_on_c, 1, 53, 64
1, 65506, Note_off_c, 1, 53, 0
1, 65506, Note_on_c, 1, 81, 64
1, 66093, Note_on_c, 1, 69, 64
1, 66151, Note_off_c, 1, 54, 0
1, 66151, Note_off_c, 1, 69, 0
1, 66155, Note_on_c, 1, 70, 64
1, 66155, Note_on_c, 1, 74, 64
1, 66156, Note_off_c, 1, 70, 0
1, 66157, Note_off_c, 1, 74, 0
1, 66160, Note_off_c, 1, 81, 0
1, 66160, Note_on_c, 1, 59, 64
1, 66160, Note_on_c, 1, 64, 64
1, 66251, Note_on_c, 1, 57, 64
1, 66252, Note_off_c, 1, 57, 0
1, 66781, Note_off_c, 1, 59, 0
1, 66781, Note_off_c, 1, 64, 0
1, 66786, Note_on_c, 1, 65, 64
1, 66786, Note_on_c, 1, 50, 64
1, 66786, Note_on_c, 1, 81, 64
1, 66787, Note_off_c, 1, 81, 0
1, 66787, Note_on_c, 1, 62, 64
1, 66787, Note_on_c, 1, 59, 64
1, 66789, Note_off_c, 1, 59, 0
1, 66789, Note_on_c, 1, 77, 64
1, 67274, Note_off_c, 1, 65, 0
1, 67274, Note_off_c, 1, 77, 0
1, 67274, Note_on_c, 1, 58, 64
1, 67275, Note_off_c, 1, 50, 0
1, 67275, Note_off_c, 1, 58, 0
1, 67277, Note_off_c, 1, 62, 0
1, 67280, Note_on_c, 1, 55, 64
1, 67280, Note_on_c, 1, 59, 64
1, 67374, Note_off_c, 1, 55, 0
1, 67378, Note_on_c, 1, 70, 64
1, 67378, Note_on_c, 1, 57, 64
1, 67383, Note_off_c, 1, 59, 0
1, 67383, Note_off_c, 1, 70, 0
1, 67383, Note_off_c, 1, 57, 0
1, 67387, Note_on_c, 1, 57, 64
1, 67387, Note_on_c, 1, 52, 64
1, 67387, Note_on_c, 1, 50, 64
1, 67388, Note_off_c, 1, 52, 0
1, 67388, Note_on_c, 1, 81, 64
1, 67388, Note_on_c, 1, 76, 64
1, 67393, Note_off_c, 1, 50, 0
1, 67393, Note_off_c, 1, 81, 0
1, 67393, Note_on_c, 1, 73, 64
1, 67393, Note_on_c, 1, 62, 64
1, 67395, Note_off_c, 1, 62, 0
1, 67428, Note_off_c, 1, 57, 0
1, 67428, Note_on_c, 1, 55, 64
1, 67472, Note_off_c, 1, 76, 0
1, 67479, Note_off_c, 1, 73, 0
1, 67479, Note_on_c, 1, 59, 64
1, 67488, Note_off_c, 1, 59, 0
1, 67490, Note_on_c, 1, 70, 64
1, 68184, Note_off_c, 1, 55, 0
1, 68184, Note_on_c, 1, 77, 64
1, 68186, Note_off_c, 1, 77, 0
1, 68187, Note_on_c, 1, 74, 64
1, 68598, Note_off_c, 1, 70, 0
1, 68598, Note_on_c, 1, 49, 64
1, 68638, Note_off_c, 1, 49, 0
1, 68639, Note_off_c, 1, 74, 0
1, 68646, Note_on_c, 1, 75, 64
1, 68677, Note_off_c, 1, 75, 0
1, 68680, Note_on_c, 1, 58, 64
1, 69212, Note_on_c, 1, 65, 64
1, 69212, Note_on_c, 1, 67, 64
1, 69223, Note_off_c, 1, 58, 0
1, 69223, Note_off_c, 1, 67, 0
1, 69223, Note_on_c, 1, 46, 64
1, 69298, Note_on_c, 1, 53, 64
1, 69398, Note_on_c, 1, 56, 64
1, 69671, Note_off_c, 1, 56, 0
1, 69672, Note_off_c, 1, 46, 0
1, 69672, Note_on_c, 1, 71, 64
1, 69677, Note_off_c, 1, 65, 0
1, 69824, Note_off_c, 1, 53, 0
1, 69824, Note_on_c, 1, 54, 64
1, 69968, Note_on_c, 1, 9, 64
1, 69968, Note_on_c, 1, 10, 64
1, 69969, Note_off_c, 1, 71, 0
1, 69969, Note_off_c, 1, 54, 0
1, 69969, Note_off_c, 1, 9, 0
1, 69969, Note_off_c, 1, 10, 0
1, 69969, End_track
0, 0, End_of_file