0, 0, Header, 1, 1, 480
1, 0, Start_track
1, 0, Title_t, "Test"
1, 0, Tempo, 500000
1, 0, Note_on_c, 1, 83, 64
1, 1, Note_off_c, 1, 83, 0
1, 1, Note_on_c, 1, 79, 64
1, 1, Note_on_c, 1, 64, 64
1, 165, Note_off_c, 1, 79, 0
1, 165, Note_off_c, 1, 64, 0
1, 170, Note_on_c, 1, 74, 64
1, 170, Note_on_c, 1, 56, 64
1, 235, Note_off_c, 1, 74, 0
1, 240, Note_on_c, 1, 71, 64
1, 266, Note_off_c, 1, 71, 0
1, 273, Note_on_c, 1, 70, 64
1, 607, Note_off_c, 1, 70, 0
1, 609, Note_on_c, 1, 68, 64
1, 861, Note_off_c, 1, 68, 0
1, 863, Note_on_c, 1, 75, 64
1, 950, Note_off_c, 1, 56, 0
1, 950, Note_off_c, 1, 75, 0
1, 953, Note_on_c, 1, 74, 64
1, 953, Note_on_c, 1, 56, 64
1, 1464, Note_off_c, 1, 74, 0
1, 1465, Note_off_c, 1, 56, 0
1, 1469, Note_on_c, 1, 57, 64
1, 1469, Note_on_c, 1, 69, 64
1, 1624, Note_off_c, 1, 57, 0
1, 1624, Note_off_c, 1, 69, 0
1, 1629, Note_on_c, 1, 70, 64
1, 1629, Note_on_c, 1, 72, 64
1, 2583, Note_off_c, 1, 70, 0
1, 2587, Note_on_c, 1, 69, 64
1, 2878, Note_off_c, 1, 72, 0
1, 2878, Note_off_c, 1, 69, 0
1, 2882, Note_on_c, 1, 74, 64
1, 2882, Note_on_c, 1, 63, 64
1, 2894, Note_off_c, 1, 74, 0
1, 2897, Note_on_c, 1, 72, 64
1, 2897, Note_on_c, 1, 65, 64
1, 3212, Note_off_c, 1, 63, 0
1, 3212, Note_off_c, 1, 72, 0
1, 3212, Note_off_c, 1, 65, 0
1, 3217, Note_on_c, 1, 57, 64
1, 3217, Note_on_c, 1, 53, 64
1, 3217, Note_on_c, 1, 69, 64
1, 3220, Note_off_c, 1, 53, 0
1, 3220, Note_on_c, 1, 72, 64
1, 4131, Note_off_c, 1, 72, 0
1, 4803, Note_off_c, 1, 57, 0
1, 4803, Note_off_c, 1, 69, 0
1, 4808, Note_on_c, 1, 53, 64
1, 4808, Note_on_c, 1, 59, 64
1, 5630, Note_off_c, 1, 53, 0
1, 5630, Note_on_c, 1, 72, 64
1, 5684, Note_off_c, 1, 72, 0
1, 5685, Note_off_c, 1, 59, 0
1, 5689, Note_on_c, 1, 81, 64
1, 5689, Note_on_c, 1, 76, 64
1, 6129, Note_on_c, 1, 64, 64
1, 6164, Note_on_c, 1, 69, 64
1, 6166, Note_off_c, 1, 64, 0
1, 6167, Note_off_c, 1, 76, 0
1, 6168, Note_off_c, 1, 69, 0
1, 6814, Note_off_c, 1, 81, 0
1, 6814, Note_on_c, 1, 57, 64
1, 6883, Note_on_c, 1, 71, 64
1, 7340, Note_off_c, 1, 57, 0
1, 7340, Note_off_c, 1, 71, 0
1, 7345, Note_on_c, 1, 52, 64
1, 7345, Note_on_c, 1, 48, 64
1, 7511, Note_off_c, 1, 48, 0
1, 7511, Note_on_c, 1, 59, 64
1, 7512, Note_off_c, 1, 59, 0
1, 7513, Note_off_c, 1, 52, 0
1, 7579, Note_on_c, 1, 62, 64
1, 7710, Note_off_c, 1, 62, 0
1, 7716, Note_on_c, 1, 71, 64
1, 7716, Note_on_c, 1, 68, 64
1, 7717, Note_off_c, 1, 71, 0
1, 7717, Note_on_c, 1, 52, 64
1, 7717, Note_on_c, 1, 72, 64
1, 7799, Note_off_c, 1, 68, 0
1, 7799, Note_off_c, 1, 52, 0
1, 7802, Note_on_c, 1, 67, 64
1, 7802, Note_on_c, 1, 50, 64
1, 8654, Note_off_c, 1, 67, 0
1, 8654, Note_off_c, 1, 50, 0
1, 8658, Note_on_c, 1, 65, 64
1, 9333, Note_on_c, 1, 53, 64
1, 10971, Note_off_c, 1, 65, 0
1, 10971, Note_off_c, 1, 53, 0
1, 10976, Note_on_c, 1, 63, 64
1, 10976, Note_on_c, 1, 62, 64
1, 12041, Note_off_c, 1, 62, 0
1, 12042, Note_on_c, 1, 75, 64
1, 13768, Note_off_c, 1, 72, 0
1, 13768, Note_off_c, 1, 63, 0
1, 13768, Note_off_c, 1, 75, 0
1, 13772, Note_on_c, 1, 70, 64
1, 13772, Note_on_c, 1, 67, 64
1, 13772, Note_on_c, 1, 76, 64
1, 17520, Note_off_c, 1, 70, 0
1, 17520, Note_off_c, 1, 67, 0
1, 17520, Note_off_c, 1, 76, 0
1, 17520, Note_on_c, 1, 73, 64
1, 17521, Note_off_c, 1, 73, 0
1, 17525, Note_on_c, 1, 52, 64
1, 17525, Note_on_c, 1, 69, 64
1, 17525, Note_on_c, 1, 57, 64
1, 18063, Note_off_c, 1, 52, 0
1, 18068, Note_off_c, 1, 57, 0
1, 18068, Note_on_c, 1, 59, 64
1, 18068, Note_on_c, 1, 74, 64
1, 18077, Note_off_c, 1, 59, 0
1, 18077, Note_on_c, 1, 54, 64
1, 18157, Note_off_c, 1, 54, 0
1, 18157, Note_on_c, 1, 56, 64
1, 18158, Note_off_c, 1, 56, 0
1, 18192, Note_off_c, 1, 74, 0
1, 18283, Note_off_c, 1, 69, 0
1, 18293, Note_on_c, 1, 67, 64
1, 18293, Note_on_c, 1, 70, 64
1, 18663, Note_off_c, 1, 67, 0
1, 18663, Note_off_c, 1, 70, 0
1, 18667, Note_on_c, 1, 62, 64
1, 18667, Note_on_c, 1, 72, 64
1, 19646, Note_off_c, 1, 62, 0
1, 19650, Note_on_c, 1, 77, 64
1, 20213, Note_off_c, 1, 77, 0
1, 20217, Note_on_c, 1, 60, 64
1, 20217, Note_on_c, 1, 59, 64
1, 20219, Note_off_c, 1, 60, 0
1, 20308, Note_off_c, 1, 72, 0
1, 20308, Note_off_c, 1, 59, 0
1, 20313, Note_on_c, 1, 66, 64
1, 20313, Note_on_c, 1, 57, 64
1, 20313, Note_on_c, 1, 50, 64
1, 20489, Note_on_c, 1, 64, 64
1, 20491, Note_off_c, 1, 64, 0
1, 20491, Note_on_c, 1, 72, 64
1, 20690, Note_off_c, 1, 66, 0
1, 20690, Note_off_c, 1, 57, 0
1, 20694, Note_on_c, 1, 65, 64
1, 20694, Note_on_c, 1, 67, 64
1, 20695, Note_off_c, 1, 65, 0
1, 20695, Note_off_c, 1, 67, 0
1, 20695, Note_on_c, 1, 60, 64
1, 20697, Note_on_c, 1, 53, 64
1, 20767, Note_off_c, 1, 50, 0
1, 20931, Note_off_c, 1, 60, 0
1, 20931, Note_off_c, 1, 53, 0
1, 23069, Note_off_c, 1, 72, 0
1, 23074, Note_on_c, 1, 69, 64
1, 23569, Note_on_c, 1, 71, 64
1, 23574, Note_off_c, 1, 71, 0
1, 25876, Note_on_c, 1, 9, 64
1, 25876, Note_on_c, 1, 10, 64
1, 25877, Note_off_c, 1, 69, 0
1, 25877, Note_off_c, 1, 9, 0
1, 25877, Note_off_c, 1, 10, 0
1, 25877, End_track
0, 0, End_of_file