0, 0, Header, 1, 1, 480
1, 0, Start_track
1, 0, Title_t, "Test"
1, 0, Tempo, 500000
1, 0, Note_on_c, 1, 44, 64
1, 0, Note_on_c, 1, 52, 64
1, 0, Note_on_c, 1, 76, 64
1, 0, Note_on_c, 1, 36, 64
1, 0, Note_on_c, 1, 64, 64
1, 0, Note_on_c, 1, 57, 64
1, 0, Note_on_c, 1, 82, 64
1, 1, Note_off_c, 1, 44, 0
1, 1, Note_off_c, 1, 52, 0
1, 1, Note_off_c, 1, 57, 0
1, 1, Note_off_c, 1, 82, 0
1, 2, Note_off_c, 1, 36, 0
1, 2, Note_off_c, 1, 64, 0
1, 5, Note_on_c, 1, 69, 64
1, 5, Note_on_c, 1, 45, 64
1, 6, Note_off_c, 1, 76, 0
1, 602, Note_on_c, 1, 74, 64
1, 1300, Note_off_c, 1, 74, 0
1, 1304, Note_on_c, 1, 55, 64
1, 1304, Note_on_c, 1, 72, 64
1, 1312, Note_off_c, 1, 55, 0
1, 1368, Note_off_c, 1, 69, 0
1, 2020, Note_off_c, 1, 72, 0
1, 2023, Note_on_c, 1, 53, 64
1, 2028, Note_off_c, 1, 53, 0
1, 2086, Note_on_c, 1, 60, 64
1, 2236, Note_off_c, 1, 60, 0
1, 2554, Note_off_c, 1, 45, 0
1, 2571, Note_on_c, 1, 70, 64
1, 2742, Note_off_c, 1, 70, 0
1, 2746, Note_on_c, 1, 73, 64
1, 3452, Note_on_c, 1, 69, 64
1, 3904, Note_off_c, 1, 73, 0
1, 3904, Note_on_c, 1, 77, 64
1, 3904, Note_on_c, 1, 58, 64
1, 3995, Note_off_c, 1, 69, 0
1, 3997, Note_on_c, 1, 70, 64
1, 4104, Note_off_c, 1, 58, 0
1, 4118, Note_off_c, 1, 77, 0
1, 4118, Note_on_c, 1, 62, 64
1, 9542, Note_off_c, 1, 62, 0
1, 9543, Note_off_c, 1, 70, 0
1, 9548, Note_on_c, 1, 46, 64
1, 10549, Note_off_c, 1, 46, 0
1, 11105, Note_on_c, 1, 55, 64
1, 11262, Note_off_c, 1, 55, 0
1, 11310, Note_on_c, 1, 84, 64
1, 11340, Note_off_c, 1, 84, 0
1, 11511, Note_on_c, 1, 44, 64
1, 11549, Note_off_c, 1, 44, 0
1, 11549, Note_on_c, 1, 82, 64
1, 15217, Note_off_c, 1, 82, 0
1, 15262, Note_on_c, 1, 82, 64
1, 16993, Note_off_c, 1, 82, 0
1, 17384, Note_on_c, 1, 57, 64
1, 17850, Note_off_c, 1, 57, 0
1, 17864, Note_on_c, 1, 55, 64
1, 21583, Note_off_c, 1, 55, 0
1, 21879, Note_on_c, 1, 81, 64
1, 21938, Note_off_c, 1, 81, 0
1, 22397, Note_on_c, 1, 53, 64
1, 22695, Note_off_c, 1, 53, 0
1, 22800, Note_on_c, 1, 53, 64
1, 22993, Note_off_c, 1, 53, 0
1, 23660, Note_on_c, 1, 46, 64
1, 23734, Note_off_c, 1, 46, 0
1, 24465, Note_on_c, 1, 69, 64
1, 24751, Note_off_c, 1, 69, 0
1, 24755, Note_on_c, 1, 70, 64
1, 24941, Note_on_c, 1, 60, 64
1, 24954, Note_off_c, 1, 60, 0
1, 24973, Note_on_c, 1, 63, 64
1, 25661, Note_off_c, 1, 70, 0
1, 25668, Note_on_c, 1, 68, 64
1, 26442, Note_off_c, 1, 63, 0
1, 26442, Note_off_c, 1, 68, 0
1, 26446, Note_on_c, 1, 68, 64
1, 26446, Note_on_c, 1, 65, 64
1, 26535, Note_off_c, 1, 68, 0
1, 26535, Note_off_c, 1, 65, 0
1, 26540, Note_on_c, 1, 63, 64
1, 26540, Note_on_c, 1, 67, 64
1, 27297, Note_off_c, 1, 63, 0
1, 27519, Note_off_c, 1, 67, 0
1, 27522, Note_on_c, 1, 68, 64
1, 27522, Note_on_c, 1, 65, 64
1, 27697, Note_off_c, 1, 68, 0
1, 27697, Note_off_c, 1, 65, 0
1, 27700, Note_on_c, 1, 64, 64
1, 27700, Note_on_c, 1, 67, 64
1, 28544, Note_off_c, 1, 64, 0
1, 28548, Note_off_c, 1, 67, 0
1, 28548, Note_on_c, 1, 63, 64
1, 28548, Note_on_c, 1, 43, 64
1, 28549, Note_off_c, 1, 43, 0
1, 28826, Note_off_c, 1, 63, 0
1, 28828, Note_on_c, 1, 68, 64
1, 28828, Note_on_c, 1, 65, 64
1, 28858, Note_off_c, 1, 68, 0
1, 28858, Note_off_c, 1, 65, 0
1, 28863, Note_on_c, 1, 57, 64
1, 28863, Note_on_c, 1, 69, 64
1, 29198, Note_off_c, 1, 57, 0
1, 29768, Note_off_c, 1, 69, 0
1, 29771, Note_on_c, 1, 70, 64
1, 30044, Note_off_c, 1, 70, 0
1, 30138, Note_on_c, 1, 53, 64
1, 30459, Note_off_c, 1, 53, 0
1, 30500, Note_on_c, 1, 69, 64
1, 30803, Note_off_c, 1, 69, 0
1, 30810, Note_on_c, 1, 74, 64
1, 30810, Note_on_c, 1, 58, 64
1, 31522, Note_off_c, 1, 74, 0
1, 31533, Note_on_c, 1, 75, 64
1, 32591, Note_off_c, 1, 75, 0
1, 32631, Note_off_c, 1, 58, 0
1, 32633, Note_on_c, 1, 60, 64
1, 32633, Note_on_c, 1, 51, 64
1, 33045, Note_off_c, 1, 60, 0
1, 33046, Note_off_c, 1, 51, 0
1, 33048, Note_on_c, 1, 48, 64
1, 33531, Note_on_c, 1, 73, 64
1, 33754, Note_off_c, 1, 48, 0
1, 33754, Note_off_c, 1, 73, 0
1, 33758, Note_on_c, 1, 50, 64
1, 33758, Note_on_c, 1, 62, 64
1, 33758, Note_on_c, 1, 71, 64
1, 35350, Note_on_c, 1, 53, 64
1, 35582, Note_off_c, 1, 50, 0
1, 35582, Note_off_c, 1, 62, 0
1, 35582, Note_off_c, 1, 71, 0
1, 35582, Note_off_c, 1, 53, 0
1, 35583, Note_on_c, 1, 71, 64
1, 35583, Note_on_c, 1, 62, 64
1, 35583, Note_on_c, 1, 53, 64
1, 35587, Note_off_c, 1, 71, 0
1, 35587, Note_on_c, 1, 68, 64
1, 35729, Note_off_c, 1, 68, 0
1, 35735, Note_off_c, 1, 53, 0
1, 36016, Note_on_c, 1, 79, 64
1, 36036, Note_off_c, 1, 62, 0
1, 36036, Note_off_c, 1, 79, 0
1, 36039, Note_on_c, 1, 57, 64
1, 36039, Note_on_c, 1, 53, 64
1, 36361, Note_off_c, 1, 57, 0
1, 36361, Note_on_c, 1, 74, 64
1, 36472, Note_off_c, 1, 53, 0
1, 36472, Note_on_c, 1, 43, 64
1, 36482, Note_off_c, 1, 74, 0
1, 36488, Note_on_c, 1, 67, 64
1, 36489, Note_off_c, 1, 67, 0
1, 36497, Note_on_c, 1, 71, 64
1, 37485, Note_off_c, 1, 71, 0
1, 37486, Note_off_c, 1, 43, 0
1, 37491, Note_on_c, 1, 57, 64
1, 37501, Note_on_c, 1, 9, 64
1, 37501, Note_on_c, 1, 10, 64
1, 37502, Note_off_c, 1, 57, 0
1, 37502, Note_off_c, 1, 9, 0
1, 37502, Note_off_c, 1, 10, 0
1, 37502, End_track
0, 0, End_of_file