0, 0, Header, 1, 1, 480
1, 0, Start_track
1, 0, Title_t, "Test"
1, 0, Tempo, 500000
1, 0, Note_on_c, 1, 59, 64
1, 0, Note_on_c, 1, 52, 64
1, 1, Note_on_c, 1, 60, 64
1, 479, Note_on_c, 1, 71, 64
1, 481, Note_off_c, 1, 59, 0
1, 2546, Note_off_c, 1, 60, 0
1, 2551, Note_off_c, 1, 71, 0
1, 2552, Note_on_c, 1, 72, 64
1, 2980, Note_off_c, 1, 72, 0
1, 2982, Note_on_c, 1, 64, 64
1, 3045, Note_off_c, 1, 52, 0
1, 3045, Note_off_c, 1, 64, 0
1, 3049, Note_on_c, 1, 48, 64
1, 3049, Note_on_c, 1, 57, 64
1, 5211, Note_off_c, 1, 48, 0
1, 5211, Note_off_c, 1, 57, 0
1, 5220, Note_on_c, 1, 56, 64
1, 5220, Note_on_c, 1, 59, 64
1, 5221, Note_off_c, 1, 56, 0
1, 5221, Note_on_c, 1, 48, 64
1, 5233, Note_off_c, 1, 48, 0
1, 5256, Note_on_c, 1, 50, 64
1, 5792, Note_off_c, 1, 59, 0
1, 5792, Note_off_c, 1, 50, 0
1, 5797, Note_on_c, 1, 72, 64
1, 5814, Note_on_c, 1, 57, 64
1, 6001, Note_off_c, 1, 57, 0
1, 6005, Note_on_c, 1, 56, 64
1, 7039, Note_off_c, 1, 72, 0
1, 7040, Note_off_c, 1, 56, 0
1, 7044, Note_on_c, 1, 57, 64
1, 7044, Note_on_c, 1, 65, 64
1, 7211, Note_off_c, 1, 57, 0
1, 7379, Note_off_c, 1, 65, 0
1, 7393, Note_on_c, 1, 62, 64
1, 7515, Note_off_c, 1, 62, 0
1, 7701, Note_on_c, 1, 50, 64
1, 7772, Note_off_c, 1, 50, 0
1, 8212, Note_on_c, 1, 74, 64
1, 8279, Note_off_c, 1, 74, 0
1, 8292, Note_on_c, 1, 70, 64
1, 8343, Note_off_c, 1, 70, 0
1, 8450, Note_on_c, 1, 62, 64
1, 8575, Note_off_c, 1, 62, 0
1, 8583, Note_on_c, 1, 60, 64
1, 9217, Note_off_c, 1, 60, 0
1, 9231, Note_on_c, 1, 52, 64
1, 9345, Note_off_c, 1, 52, 0
1, 9377, Note_on_c, 1, 65, 64
1, 10183, Note_on_c, 1, 53, 64
1, 10239, Note_off_c, 1, 65, 0
1, 10242, Note_off_c, 1, 53, 0
1, 10244, Note_on_c, 1, 51, 64
1, 10244, Note_on_c, 1, 47, 64
1, 10245, Note_off_c, 1, 47, 0
1, 10544, Note_off_c, 1, 51, 0
1, 10548, Note_on_c, 1, 57, 64
1, 10700, Note_off_c, 1, 57, 0
1, 10713, Note_on_c, 1, 57, 64
1, 10758, Note_off_c, 1, 57, 0
1, 10775, Note_on_c, 1, 55, 64
1, 10964, Note_off_c, 1, 55, 0
1, 11061, Note_on_c, 1, 53, 64
1, 11266, Note_off_c, 1, 53, 0
1, 11269, Note_on_c, 1, 55, 64
1, 11318, Note_off_c, 1, 55, 0
1, 11335, Note_on_c, 1, 57, 64
1, 11517, Note_off_c, 1, 57, 0
1, 11530, Note_on_c, 1, 58, 64
1, 11582, Note_off_c, 1, 58, 0
1, 11586, Note_on_c, 1, 53, 64
1, 11724, Note_off_c, 1, 53, 0
1, 11851, Note_on_c, 1, 62, 64
1, 12152, Note_off_c, 1, 62, 0
1, 12296, Note_on_c, 1, 62, 64
1, 12573, Note_off_c, 1, 62, 0
1, 13049, Note_on_c, 1, 48, 64
1, 13531, Note_off_c, 1, 48, 0
1, 13535, Note_on_c, 1, 57, 64
1, 14268, Note_off_c, 1, 57, 0
1, 14281, Note_on_c, 1, 60, 64
1, 14326, Note_off_c, 1, 60, 0
1, 14339, Note_on_c, 1, 60, 64
1, 14646, Note_off_c, 1, 60, 0
1, 14738, Note_on_c, 1, 62, 64
1, 15158, Note_off_c, 1, 62, 0
1, 15162, Note_on_c, 1, 60, 64
1, 15208, Note_off_c, 1, 60, 0
1, 15222, Note_on_c, 1, 59, 64
1, 15416, Note_on_c, 1, 56, 64
1, 15796, Note_off_c, 1, 59, 0
1, 15796, Note_off_c, 1, 56, 0
1, 15801, Note_on_c, 1, 74, 64
1, 15801, Note_on_c, 1, 64, 64
1, 16262, Note_off_c, 1, 74, 0
1, 16642, Note_off_c, 1, 64, 0
1, 16648, Note_on_c, 1, 55, 64
1, 16734, Note_off_c, 1, 55, 0
1, 16762, Note_on_c, 1, 65, 64
1, 16988, Note_off_c, 1, 65, 0
1, 17002, Note_on_c, 1, 41, 64
1, 17047, Note_on_c, 1, 60, 64
1, 17115, Note_off_c, 1, 60, 0
1, 17126, Note_on_c, 1, 69, 64
1, 17190, Note_off_c, 1, 41, 0
1, 17194, Note_off_c, 1, 69, 0
1, 17194, Note_on_c, 1, 72, 64
1, 17194, Note_on_c, 1, 80, 64
1, 17195, Note_off_c, 1, 80, 0
1, 17195, Note_on_c, 1, 70, 64
1, 17195, Note_on_c, 1, 68, 64
1, 17215, Note_off_c, 1, 72, 0
1, 17215, Note_on_c, 1, 64, 64
1, 18022, Note_off_c, 1, 68, 0
1, 18022, Note_off_c, 1, 64, 0
1, 18022, Note_on_c, 1, 65, 64
1, 18063, Note_off_c, 1, 70, 0
1, 18063, Note_on_c, 1, 53, 64
1, 18285, Note_off_c, 1, 53, 0
1, 18287, Note_on_c, 1, 73, 64
1, 18288, Note_off_c, 1, 73, 0
1, 18288, Note_on_c, 1, 67, 64
1, 18443, Note_off_c, 1, 65, 0
1, 18450, Note_on_c, 1, 55, 64
1, 18649, Note_off_c, 1, 67, 0
1, 18651, Note_on_c, 1, 71, 64
1, 18652, Note_on_c, 1, 66, 64
1, 18656, Note_off_c, 1, 66, 0
1, 18793, Note_off_c, 1, 55, 0
1, 18793, Note_off_c, 1, 71, 0
1, 18797, Note_on_c, 1, 54, 64
1, 19080, Note_off_c, 1, 54, 0
1, 19433, Note_on_c, 1, 48, 64
1, 19525, Note_on_c, 1, 67, 64
1, 19542, Note_off_c, 1, 67, 0
1, 19546, Note_off_c, 1, 48, 0
1, 19548, Note_on_c, 1, 57, 64
1, 19552, Note_on_c, 1, 81, 64
1, 20602, Note_off_c, 1, 57, 0
1, 20607, Note_off_c, 1, 81, 0
1, 20607, Note_on_c, 1, 59, 64
1, 20607, Note_on_c, 1, 64, 64
1, 20608, Note_off_c, 1, 59, 0
1, 20610, Note_on_c, 1, 55, 64
1, 21492, Note_off_c, 1, 64, 0
1, 21496, Note_on_c, 1, 71, 64
1, 21496, Note_on_c, 1, 62, 64
1, 21502, Note_on_c, 1, 45, 64
1, 21921, Note_off_c, 1, 45, 0
1, 21921, Note_on_c, 1, 65, 64
1, 21922, Note_off_c, 1, 65, 0
1, 22078, Note_off_c, 1, 71, 0
1, 22078, Note_off_c, 1, 62, 0
1, 22083, Note_on_c, 1, 72, 64
1, 22275, Note_off_c, 1, 72, 0
1, 22293, Note_off_c, 1, 55, 0
1, 22302, Note_on_c, 1, 57, 64
1, 22330, Note_off_c, 1, 57, 0
1, 22344, Note_on_c, 1, 57, 64
1, 22376, Note_off_c, 1, 57, 0
1, 22380, Note_on_c, 1, 59, 64
1, 23478, Note_off_c, 1, 59, 0
1, 23483, Note_on_c, 1, 60, 64
1, 23656, Note_off_c, 1, 60, 0
1, 23670, Note_on_c, 1, 59, 64
1, 23943, Note_off_c, 1, 59, 0
1, 23948, Note_on_c, 1, 60, 64
1, 24128, Note_off_c, 1, 60, 0
1, 24142, Note_on_c, 1, 81, 64
1, 24142, Note_on_c, 1, 45, 64
1, 27373, Note_on_c, 1, 53, 64
1, 27687, Note_off_c, 1, 81, 0
1, 27687, Note_off_c, 1, 45, 0
1, 27687, Note_off_c, 1, 53, 0
1, 27691, Note_on_c, 1, 50, 64
1, 27691, Note_on_c, 1, 46, 64
1, 27691, Note_on_c, 1, 62, 64
1, 27805, Note_off_c, 1, 50, 0
1, 27805, Note_off_c, 1, 46, 0
1, 27805, Note_off_c, 1, 62, 0
1, 27809, Note_on_c, 1, 55, 64
1, 27809, Note_on_c, 1, 79, 64
1, 28089, Note_off_c, 1, 55, 0
1, 28089, Note_off_c, 1, 79, 0
1, 28094, Note_on_c, 1, 81, 64
1, 28094, Note_on_c, 1, 57, 64
1, 28552, Note_off_c, 1, 81, 0
1, 29471, Note_off_c, 1, 57, 0
1, 29479, Note_on_c, 1, 58, 64
1, 29571, Note_off_c, 1, 58, 0
1, 29585, Note_on_c, 1, 53, 64
1, 29708, Note_off_c, 1, 53, 0
1, 30549, Note_on_c, 1, 65, 64
1, 30597, Note_off_c, 1, 65, 0
1, 30605, Note_on_c, 1, 57, 64
1, 31416, Note_off_c, 1, 57, 0
1, 31429, Note_on_c, 1, 55, 64
1, 31521, Note_off_c, 1, 55, 0
1, 31547, Note_on_c, 1, 53, 64
1, 31769, Note_off_c, 1, 53, 0
1, 31771, Note_on_c, 1, 55, 64
1, 31828, Note_off_c, 1, 55, 0
1, 31854, Note_on_c, 1, 53, 64
1, 31963, Note_off_c, 1, 53, 0
1, 32498, Note_on_c, 1, 62, 64
1, 32643, Note_off_c, 1, 62, 0
1, 32816, Note_on_c, 1, 57, 64
1, 33334, Note_off_c, 1, 57, 0
1, 33352, Note_on_c, 1, 56, 64
1, 33608, Note_off_c, 1, 56, 0
1, 33615, Note_on_c, 1, 63, 64
1, 33715, Note_on_c, 1, 46, 64
1, 33727, Note_off_c, 1, 63, 0
1, 34358, Note_on_c, 1, 65, 64
1, 34415, Note_on_c, 1, 74, 64
1, 34567, Note_off_c, 1, 46, 0
1, 34567, Note_off_c, 1, 65, 0
1, 34567, Note_off_c, 1, 74, 0
1, 34571, Note_on_c, 1, 72, 64
1, 34571, Note_on_c, 1, 54, 64
1, 34571, Note_on_c, 1, 60, 64
1, 35018, Note_off_c, 1, 54, 0
1, 35018, Note_on_c, 1, 59, 64
1, 35019, Note_off_c, 1, 60, 0
1, 35068, Note_off_c, 1, 72, 0
1, 35068, Note_off_c, 1, 59, 0
1, 35073, Note_on_c, 1, 67, 64
1, 35073, Note_on_c, 1, 57, 64
1, 35082, Note_off_c, 1, 57, 0
1, 35086, Note_on_c, 1, 63, 64
1, 35311, Note_off_c, 1, 67, 0
1, 35311, Note_off_c, 1, 63, 0
1, 35313, Note_on_c, 1, 68, 64
1, 35313, Note_on_c, 1, 65, 64
1, 35874, Note_off_c, 1, 68, 0
1, 35874, Note_off_c, 1, 65, 0
1, 35878, Note_on_c, 1, 63, 64
1, 35878, Note_on_c, 1, 67, 64
1, 36637, Note_off_c, 1, 63, 0
1, 36639, Note_on_c, 1, 48, 64
1, 36650, Note_off_c, 1, 67, 0
1, 37359, Note_off_c, 1, 48, 0
1, 37364, Note_on_c, 1, 57, 64
1, 37364, Note_on_c, 1, 50, 64
1, 37564, Note_off_c, 1, 57, 0
1, 37581, Note_off_c, 1, 50, 0
1, 37595, Note_on_c, 1, 53, 64
1, 37595, Note_on_c, 1, 65, 64
1, 38229, Note_on_c, 1, 9, 64
1, 38229, Note_on_c, 1, 10, 64
1, 38230, Note_off_c, 1, 53, 0
1, 38230, Note_off_c, 1, 65, 0
1, 38230, Note_off_c, 1, 9, 0
1, 38230, Note_off_c, 1, 10, 0
1, 38230, End_track
0, 0, End_of_file