0, 0, Header, 1, 1, 480
1, 0, Start_track
1, 0, Title_t, "Test"
1, 0, Tempo, 500000
1, 0, Note_on_c, 1, 57, 64
1, 1, Note_off_c, 1, 57, 0
1, 1, Note_on_c, 1, 41, 64
1, 41, Note_on_c, 1, 53, 64
1, 209, Note_off_c, 1, 53, 0
1, 243, Note_on_c, 1, 64, 64
1, 244, Note_off_c, 1, 64, 0
1, 276, Note_on_c, 1, 71, 64
1, 1322, Note_off_c, 1, 71, 0
1, 1645, Note_on_c, 1, 63, 64
1, 1646, Note_off_c, 1, 63, 0
1, 1654, Note_off_c, 1, 41, 0
1, 1680, Note_on_c, 1, 55, 64
1, 1869, Note_off_c, 1, 55, 0
1, 1872, Note_on_c, 1, 57, 64
1, 2179, Note_off_c, 1, 57, 0
1, 2210, Note_on_c, 1, 55, 64
1, 2381, Note_off_c, 1, 55, 0
1, 2395, Note_on_c, 1, 60, 64
1, 4927, Note_off_c, 1, 60, 0
1, 4931, Note_on_c, 1, 58, 64
1, 5019, Note_off_c, 1, 58, 0
1, 5033, Note_on_c, 1, 70, 64
1, 5562, Note_off_c, 1, 70, 0
1, 7131, Note_on_c, 1, 65, 64
1, 7290, Note_off_c, 1, 65, 0
1, 7304, Note_on_c, 1, 62, 64
1, 7468, Note_off_c, 1, 62, 0
1, 7477, Note_on_c, 1, 62, 64
1, 7489, Note_off_c, 1, 62, 0
1, 7694, Note_on_c, 1, 62, 64
1, 7826, Note_off_c, 1, 62, 0
1, 7830, Note_on_c, 1, 60, 64
1, 8817, Note_off_c, 1, 60, 0
1, 8835, Note_on_c, 1, 62, 64
1, 9064, Note_off_c, 1, 62, 0
1, 9069, Note_on_c, 1, 46, 64
1, 9849, Note_on_c, 1, 62, 64
1, 9941, Note_on_c, 1, 53, 64
1, 9989, Note_off_c, 1, 46, 0
1, 9996, Note_off_c, 1, 53, 0
1, 9999, Note_on_c, 1, 55, 64
1, 10130, Note_off_c, 1, 55, 0
1, 10522, Note_off_c, 1, 62, 0
1, 10527, Note_on_c, 1, 64, 64
1, 12902, Note_off_c, 1, 64, 0
1, 12913, Note_on_c, 1, 65, 64
1, 13875, Note_off_c, 1, 65, 0
1, 13879, Note_on_c, 1, 72, 64
1, 14109, Note_off_c, 1, 72, 0
1, 14120, Note_on_c, 1, 53, 64
1, 14121, Note_on_c, 1, 62, 64
1, 14426, Note_off_c, 1, 53, 0
1, 14426, Note_off_c, 1, 62, 0
1, 14435, Note_on_c, 1, 82, 64
1, 17118, Note_off_c, 1, 82, 0
1, 17427, Note_on_c, 1, 80, 64
1, 17431, Note_off_c, 1, 80, 0
1, 17542, Note_on_c, 1, 48, 64
1, 17785, Note_off_c, 1, 48, 0
1, 17832, Note_on_c, 1, 50, 64
1, 17867, Note_off_c, 1, 50, 0
1, 18071, Note_on_c, 1, 50, 64
1, 18186, Note_off_c, 1, 50, 0
1, 19628, Note_on_c, 1, 62, 64
1, 19899, Note_off_c, 1, 62, 0
1, 20035, Note_on_c, 1, 48, 64
1, 20178, Note_off_c, 1, 48, 0
1, 22967, Note_on_c, 1, 65, 64
1, 22971, Note_off_c, 1, 65, 0
1, 22979, Note_on_c, 1, 57, 64
1, 23349, Note_off_c, 1, 57, 0
1, 23357, Note_on_c, 1, 55, 64
1, 24669, Note_off_c, 1, 55, 0
1, 24699, Note_on_c, 1, 62, 64
1, 25156, Note_off_c, 1, 62, 0
1, 27625, Note_on_c, 1, 53, 64
1, 27891, Note_off_c, 1, 53, 0
1, 28209, Note_on_c, 1, 65, 64
1, 28331, Note_off_c, 1, 65, 0
1, 28335, Note_on_c, 1, 63, 64
1, 28806, Note_off_c, 1, 63, 0
1, 28806, Note_on_c, 1, 44, 64
1, 29022, Note_off_c, 1, 44, 0
1, 29423, Note_on_c, 1, 65, 64
1, 29734, Note_off_c, 1, 65, 0
1, 29747, Note_on_c, 1, 63, 64
1, 29991, Note_off_c, 1, 63, 0
1, 29995, Note_on_c, 1, 62, 64
1, 30087, Note_off_c, 1, 62, 0
1, 30101, Note_on_c, 1, 79, 64
1, 30167, Note_off_c, 1, 79, 0
1, 31125, Note_on_c, 1, 53, 64
1, 31267, Note_off_c, 1, 53, 0
1, 31272, Note_on_c, 1, 56, 64
1, 31637, Note_off_c, 1, 56, 0
1, 31943, Note_on_c, 1, 62, 64
1, 32077, Note_off_c, 1, 62, 0
1, 34873, Note_on_c, 1, 57, 64
1, 34918, Note_on_c, 1, 62, 64
1, 35135, Note_off_c, 1, 62, 0
1, 35152, Note_on_c, 1, 69, 64
1, 35293, Note_off_c, 1, 57, 0
1, 35355, Note_off_c, 1, 69, 0
1, 35366, Note_on_c, 1, 72, 64
1, 35892, Note_off_c, 1, 72, 0
1, 35896, Note_on_c, 1, 70, 64
1, 36348, Note_off_c, 1, 70, 0
1, 36352, Note_on_c, 1, 50, 64
1, 36363, Note_off_c, 1, 50, 0
1, 36377, Note_on_c, 1, 53, 64
1, 36579, Note_off_c, 1, 53, 0
1, 39126, Note_on_c, 1, 53, 64
1, 39307, Note_off_c, 1, 53, 0
1, 40341, Note_on_c, 1, 65, 64
1, 40509, Note_off_c, 1, 65, 0
1, 41190, Note_on_c, 1, 72, 64
1, 42085, Note_off_c, 1, 72, 0
1, 42089, Note_on_c, 1, 71, 64
1, 42143, Note_off_c, 1, 71, 0
1, 42166, Note_on_c, 1, 65, 64
1, 43068, Note_off_c, 1, 65, 0
1, 43085, Note_on_c, 1, 71, 64
1, 44175, Note_off_c, 1, 71, 0
1, 45064, Note_on_c, 1, 65, 64
1, 45289, Note_off_c, 1, 65, 0
1, 45297, Note_on_c, 1, 63, 64
1, 45806, Note_off_c, 1, 63, 0
1, 47287, Note_on_c, 1, 65, 64
1, 47641, Note_off_c, 1, 65, 0
1, 48535, Note_on_c, 1, 60, 64
1, 48626, Note_off_c, 1, 60, 0
1, 48765, Note_on_c, 1, 52, 64
1, 48939, Note_off_c, 1, 52, 0
1, 50210, Note_on_c, 1, 65, 64
1, 50489, Note_off_c, 1, 65, 0
1, 50505, Note_on_c, 1, 70, 64
1, 51323, Note_off_c, 1, 70, 0
1, 51327, Note_on_c, 1, 69, 64
1, 51548, Note_off_c, 1, 69, 0
1, 51556, Note_on_c, 1, 74, 64
1, 51896, Note_off_c, 1, 74, 0
1, 51904, Note_on_c, 1, 75, 64
1, 52133, Note_off_c, 1, 75, 0
1, 52136, Note_on_c, 1, 75, 64
1, 52196, Note_off_c, 1, 75, 0
1, 52264, Note_on_c, 1, 77, 64
1, 52391, Note_off_c, 1, 77, 0
1, 52396, Note_on_c, 1, 53, 64
1, 52419, Note_off_c, 1, 53, 0
1, 53277, Note_on_c, 1, 65, 64
1, 54041, Note_off_c, 1, 65, 0
1, 54091, Note_on_c, 1, 57, 64
1, 54566, Note_off_c, 1, 57, 0
1, 55846, Note_on_c, 1, 62, 64
1, 55972, Note_off_c, 1, 62, 0
1, 55982, Note_on_c, 1, 65, 64
1, 56970, Note_off_c, 1, 65, 0
1, 57014, Note_on_c, 1, 57, 64
1, 57199, Note_off_c, 1, 57, 0
1, 57208, Note_on_c, 1, 53, 64
1, 57450, Note_off_c, 1, 53, 0
1, 58810, Note_on_c, 1, 74, 64
1, 59776, Note_on_c, 1, 58, 64
1, 60273, Note_off_c, 1, 74, 0
1, 60275, Note_on_c, 1, 70, 64
1, 60666, Note_off_c, 1, 70, 0
1, 60670, Note_off_c, 1, 58, 0
1, 60688, Note_on_c, 1, 57, 64
1, 61405, Note_off_c, 1, 57, 0
1, 61418, Note_on_c, 1, 59, 64
1, 62384, Note_off_c, 1, 59, 0
1, 62389, Note_on_c, 1, 60, 64
1, 62618, Note_off_c, 1, 60, 0
1, 63085, Note_on_c, 1, 81, 64
1, 63150, Note_off_c, 1, 81, 0
1, 63181, Note_on_c, 1, 65, 64
1, 63284, Note_off_c, 1, 65, 0
1, 63296, Note_on_c, 1, 65, 64
1, 63511, Note_off_c, 1, 65, 0
1, 63724, Note_on_c, 1, 62, 64
1, 63999, Note_off_c, 1, 62, 0
1, 65743, Note_on_c, 1, 53, 64
1, 65891, Note_off_c, 1, 53, 0
1, 66081, Note_on_c, 1, 57, 64
1, 68797, Note_off_c, 1, 57, 0
1, 68802, Note_on_c, 1, 60, 64
1, 70234, Note_off_c, 1, 60, 0
1, 70238, Note_on_c, 1, 60, 64
1, 70671, Note_off_c, 1, 60, 0
1, 70675, Note_on_c, 1, 62, 64
1, 70970, Note_off_c, 1, 62, 0
1, 72870, Note_on_c, 1, 51, 64
1, 73337, Note_off_c, 1, 51, 0
1, 73345, Note_on_c, 1, 50, 64
1, 73450, Note_on_c, 1, 74, 64
1, 74793, Note_off_c, 1, 50, 0
1, 74793, Note_off_c, 1, 74, 0
1, 74796, Note_on_c, 1, 76, 64
1, 74796, Note_on_c, 1, 52, 64
1, 75049, Note_off_c, 1, 76, 0
1, 75051, Note_on_c, 1, 75, 64
1, 75065, Note_off_c, 1, 52, 0
1, 75065, Note_off_c, 1, 75, 0
1, 75069, Note_on_c, 1, 77, 64
1, 75069, Note_on_c, 1, 50, 64
1, 75070, Note_on_c, 1, 67, 64
1, 78625, Note_on_c, 1, 55, 64
1, 78626, Note_off_c, 1, 77, 0
1, 78627, Note_off_c, 1, 50, 0
1, 78681, Note_off_c, 1, 55, 0
1, 78682, Note_off_c, 1, 67, 0
1, 78686, Note_on_c, 1, 57, 64
1, 78686, Note_on_c, 1, 64, 64
1, 78686, Note_on_c, 1, 66, 64
1, 78703, Note_off_c, 1, 66, 0
1, 79140, Note_off_c, 1, 57, 0
1, 79332, Note_off_c, 1, 64, 0
1, 79336, Note_on_c, 1, 57, 64
1, 79336, Note_on_c, 1, 74, 64
1, 80619, Note_off_c, 1, 57, 0
1, 80619, Note_off_c, 1, 74, 0
1, 80624, Note_on_c, 1, 72, 64
1, 80624, Note_on_c, 1, 57, 64
1, 81240, Note_off_c, 1, 72, 0
1, 81240, Note_off_c, 1, 57, 0
1, 81245, Note_on_c, 1, 76, 64
1, 81245, Note_on_c, 1, 55, 64
1, 81492, Note_off_c, 1, 76, 0
1, 81492, Note_off_c, 1, 55, 0
1, 81497, Note_on_c, 1, 57, 64
1, 81497, Note_on_c, 1, 72, 64
1, 81707, Note_off_c, 1, 57, 0
1, 81711, Note_on_c, 1, 56, 64
1, 81820, Note_off_c, 1, 56, 0
1, 81822, Note_on_c, 1, 51, 64
1, 81902, Note_off_c, 1, 51, 0
1, 81905, Note_on_c, 1, 60, 64
1, 82033, Note_off_c, 1, 72, 0
1, 82033, Note_off_c, 1, 60, 0
1, 82036, Note_on_c, 1, 74, 64
1, 82036, Note_on_c, 1, 58, 64
1, 85514, Note_off_c, 1, 74, 0
1, 85520, Note_on_c, 1, 75, 64
1, 85818, Note_off_c, 1, 75, 0
1, 85904, Note_off_c, 1, 58, 0
1, 85917, Note_on_c, 1, 46, 64
1, 86320, Note_on_c, 1, 62, 64
1, 86576, Note_off_c, 1, 62, 0
1, 86772, Note_on_c, 1, 53, 64
1, 86827, Note_off_c, 1, 46, 0
1, 86833, Note_off_c, 1, 53, 0
1, 86837, Note_on_c, 1, 51, 64
1, 86837, Note_on_c, 1, 67, 64
1, 87514, Note_on_c, 1, 58, 64
1, 87637, Note_off_c, 1, 51, 0
1, 88737, Note_off_c, 1, 67, 0
1, 88737, Note_off_c, 1, 58, 0
1, 88739, Note_on_c, 1, 72, 64
1, 88739, Note_on_c, 1, 56, 64
1, 89357, Note_off_c, 1, 72, 0
1, 89357, Note_off_c, 1, 56, 0
1, 89361, Note_on_c, 1, 70, 64
1, 89361, Note_on_c, 1, 57, 64
1, 89361, Note_on_c, 1, 67, 64
1, 94169, Note_off_c, 1, 70, 0
1, 94169, Note_off_c, 1, 57, 0
1, 94169, Note_on_c, 1, 52, 64
1, 94169, Note_on_c, 1, 50, 64
1, 94170, Note_off_c, 1, 50, 0
1, 95853, Note_on_c, 1, 48, 64
1, 95893, Note_off_c, 1, 52, 0
1, 95895, Note_off_c, 1, 48, 0
1, 95916, Note_off_c, 1, 67, 0
1, 95916, Note_on_c, 1, 72, 64
1, 95934, Note_off_c, 1, 72, 0
1, 95938, Note_on_c, 1, 43, 64
1, 95938, Note_on_c, 1, 70, 64
1, 95954, Note_on_c, 1, 62, 64
1, 96246, Note_off_c, 1, 62, 0
1, 96247, Note_off_c, 1, 43, 0
1, 96302, Note_on_c, 1, 64, 64
1, 96574, Note_off_c, 1, 70, 0
1, 96948, Note_on_c, 1, 68, 64
1, 97015, Note_off_c, 1, 64, 0
1, 97020, Note_on_c, 1, 65, 64
1, 97072, Note_off_c, 1, 68, 0
1, 97072, Note_off_c, 1, 65, 0
1, 97075, Note_on_c, 1, 70, 64
1, 97075, Note_on_c, 1, 67, 64
1, 97075, Note_on_c, 1, 58, 64
1, 97316, Note_on_c, 1, 9, 64
1, 97316, Note_on_c, 1, 10, 64
1, 97317, Note_off_c, 1, 70, 0
1, 97317, Note_off_c, 1, 67, 0
1, 97317, Note_off_c, 1, 58, 0
1, 97317, Note_off_c, 1, 9, 0
1, 97317, Note_off_c, 1, 10, 0
1, 97317, End_track
0, 0, End_of_file