0, 0, Header, 1, 1, 480
1, 0, Start_track
1, 0, Title_t, "Test"
1, 0, Tempo, 500000
1, 0, Note_on_c, 1, 38, 64
1, 0, Note_on_c, 1, 45, 64
1, 0, Note_on_c, 1, 84, 64
1, 0, Note_on_c, 1, 79, 64
1, 0, Note_on_c, 1, 54, 64
1, 0, Note_on_c, 1, 69, 64
1, 1, Note_off_c, 1, 38, 0
1, 1, Note_off_c, 1, 45, 0
1, 1, Note_off_c, 1, 84, 0
1, 1, Note_off_c, 1, 54, 0
1, 1, Note_on_c, 1, 47, 64
1, 1, Note_on_c, 1, 73, 64
1, 2, Note_off_c, 1, 47, 0
1, 2, Note_on_c, 1, 57, 64
1, 3, Note_off_c, 1, 79, 0
1, 4, Note_off_c, 1, 69, 0
1, 4, Note_off_c, 1, 57, 0
1, 6, Note_on_c, 1, 55, 64
1, 29, Note_off_c, 1, 73, 0
1, 29, Note_on_c, 1, 70, 64
1, 208, Note_on_c, 1, 63, 64
1, 488, Note_off_c, 1, 63, 0
1, 490, Note_on_c, 1, 62, 64
1, 497, Note_off_c, 1, 55, 0
1, 497, Note_on_c, 1, 48, 64
1, 1517, Note_off_c, 1, 62, 0
1, 1517, Note_off_c, 1, 48, 0
1, 1521, Note_on_c, 1, 60, 64
1, 1521, Note_on_c, 1, 64, 64
1, 2681, Note_off_c, 1, 70, 0
1, 2681, Note_off_c, 1, 64, 0
1, 3074, Note_off_c, 1, 60, 0
1, 3079, Note_on_c, 1, 57, 64
1, 3098, Note_off_c, 1, 57, 0
1, 3111, Note_on_c, 1, 53, 64
1, 3112, Note_on_c, 1, 60, 64
1, 3447, Note_off_c, 1, 53, 0
1, 3447, Note_on_c, 1, 41, 64
1, 3471, Note_off_c, 1, 60, 0
1, 3488, Note_on_c, 1, 81, 64
1, 3493, Note_off_c, 1, 81, 0
1, 3493, Note_on_c, 1, 52, 64
1, 4274, Note_off_c, 1, 41, 0
1, 4274, Note_on_c, 1, 57, 64
1, 4275, Note_off_c, 1, 52, 0
1, 4275, Note_off_c, 1, 57, 0
1, 4607, Note_on_c, 1, 64, 64
1, 4983, Note_off_c, 1, 64, 0
1, 4988, Note_on_c, 1, 65, 64
1, 5142, Note_off_c, 1, 65, 0
1, 5142, Note_on_c, 1, 62, 64
1, 5142, Note_on_c, 1, 60, 64
1, 5403, Note_off_c, 1, 62, 0
1, 5412, Note_off_c, 1, 60, 0
1, 5443, Note_on_c, 1, 60, 64
1, 5592, Note_off_c, 1, 60, 0
1, 5700, Note_on_c, 1, 60, 64
1, 5902, Note_off_c, 1, 60, 0
1, 6332, Note_on_c, 1, 50, 64
1, 6414, Note_off_c, 1, 50, 0
1, 6429, Note_on_c, 1, 53, 64
1, 6504, Note_off_c, 1, 53, 0
1, 7089, Note_on_c, 1, 62, 64
1, 7148, Note_off_c, 1, 62, 0
1, 7357, Note_on_c, 1, 53, 64
1, 7452, Note_off_c, 1, 53, 0
1, 7724, Note_on_c, 1, 58, 64
1, 7770, Note_off_c, 1, 58, 0
1, 7783, Note_on_c, 1, 57, 64
1, 7913, Note_off_c, 1, 57, 0
1, 7917, Note_on_c, 1, 58, 64
1, 8023, Note_off_c, 1, 58, 0
1, 8031, Note_on_c, 1, 57, 64
1, 8181, Note_off_c, 1, 57, 0
1, 8189, Note_on_c, 1, 55, 64
1, 8230, Note_off_c, 1, 55, 0
1, 8234, Note_on_c, 1, 70, 64
1, 8299, Note_off_c, 1, 70, 0
1, 8857, Note_on_c, 1, 65, 64
1, 9373, Note_off_c, 1, 65, 0
1, 9412, Note_on_c, 1, 65, 64
1, 9509, Note_off_c, 1, 65, 0
1, 9523, Note_on_c, 1, 65, 64
1, 9648, Note_off_c, 1, 65, 0
1, 9662, Note_on_c, 1, 65, 64
1, 10110, Note_off_c, 1, 65, 0
1, 10129, Note_on_c, 1, 50, 64
1, 10157, Note_off_c, 1, 50, 0
1, 10164, Note_on_c, 1, 48, 64
1, 10371, Note_off_c, 1, 48, 0
1, 10423, Note_on_c, 1, 65, 64
1, 10502, Note_off_c, 1, 65, 0
1, 10506, Note_on_c, 1, 55, 64
1, 10514, Note_off_c, 1, 55, 0
1, 10537, Note_on_c, 1, 48, 64
1, 11093, Note_off_c, 1, 48, 0
1, 11114, Note_on_c, 1, 58, 64
1, 11162, Note_off_c, 1, 58, 0
1, 11170, Note_on_c, 1, 53, 64
1, 11296, Note_on_c, 1, 57, 64
1, 11473, Note_off_c, 1, 57, 0
1, 11502, Note_off_c, 1, 53, 0
1, 11515, Note_on_c, 1, 59, 64
1, 11933, Note_off_c, 1, 59, 0
1, 12630, Note_on_c, 1, 67, 64
1, 13058, Note_off_c, 1, 67, 0
1, 13076, Note_on_c, 1, 60, 64
1, 13871, Note_off_c, 1, 60, 0
1, 13889, Note_on_c, 1, 62, 64
1, 14207, Note_off_c, 1, 62, 0
1, 14654, Note_on_c, 1, 60, 64
1, 14671, Note_off_c, 1, 60, 0
1, 14675, Note_on_c, 1, 62, 64
1, 14947, Note_off_c, 1, 62, 0
1, 15254, Note_on_c, 1, 72, 64
1, 16107, Note_on_c, 1, 71, 64
1, 16108, Note_off_c, 1, 71, 0
1, 16115, Note_off_c, 1, 72, 0
1, 16121, Note_on_c, 1, 67, 64
1, 16121, Note_on_c, 1, 60, 64
1, 16284, Note_off_c, 1, 67, 0
1, 16304, Note_on_c, 1, 66, 64
1, 16464, Note_off_c, 1, 60, 0
1, 16465, Note_off_c, 1, 66, 0
1, 16469, Note_on_c, 1, 74, 64
1, 16469, Note_on_c, 1, 58, 64
1, 16856, Note_off_c, 1, 74, 0
1, 16972, Note_off_c, 1, 58, 0
1, 17013, Note_on_c, 1, 62, 64
1, 17057, Note_off_c, 1, 62, 0
1, 17086, Note_on_c, 1, 65, 64
1, 17641, Note_off_c, 1, 65, 0
1, 17655, Note_on_c, 1, 64, 64
1, 17921, Note_off_c, 1, 64, 0
1, 17926, Note_on_c, 1, 57, 64
1, 17926, Note_on_c, 1, 65, 64
1, 18361, Note_off_c, 1, 57, 0
1, 18363, Note_on_c, 1, 72, 64
1, 19712, Note_off_c, 1, 65, 0
1, 19712, Note_off_c, 1, 72, 0
1, 19716, Note_on_c, 1, 67, 64
1, 19716, Note_on_c, 1, 74, 64
1, 19926, Note_off_c, 1, 67, 0
1, 19929, Note_on_c, 1, 60, 64
1, 21023, Note_off_c, 1, 74, 0
1, 21026, Note_on_c, 1, 76, 64
1, 21388, Note_off_c, 1, 60, 0
1, 21389, Note_off_c, 1, 76, 0
1, 21393, Note_on_c, 1, 59, 64
1, 21393, Note_on_c, 1, 76, 64
1, 21485, Note_off_c, 1, 59, 0
1, 21485, Note_off_c, 1, 76, 0
1, 21490, Note_on_c, 1, 69, 64
1, 21490, Note_on_c, 1, 57, 64
1, 22101, Note_off_c, 1, 69, 0
1, 22101, Note_off_c, 1, 57, 0
1, 22105, Note_on_c, 1, 67, 64
1, 22105, Note_on_c, 1, 59, 64
1, 22799, Note_off_c, 1, 67, 0
1, 22803, Note_on_c, 1, 69, 64
1, 23393, Note_off_c, 1, 59, 0
1, 23393, Note_off_c, 1, 69, 0
1, 23398, Note_on_c, 1, 64, 64
1, 23398, Note_on_c, 1, 52, 64
1, 23401, Note_on_c, 1, 53, 64
1, 23404, Note_off_c, 1, 52, 0
1, 24722, Note_off_c, 1, 53, 0
1, 24725, Note_on_c, 1, 82, 64
1, 24725, Note_on_c, 1, 56, 64
1, 24727, Note_off_c, 1, 64, 0
1, 24727, Note_off_c, 1, 56, 0
1, 24728, Note_off_c, 1, 82, 0
1, 24733, Note_on_c, 1, 52, 64
1, 24733, Note_on_c, 1, 73, 64
1, 25413, Note_on_c, 1, 55, 64
1, 25506, Note_off_c, 1, 52, 0
1, 25600, Note_off_c, 1, 73, 0
1, 25600, Note_on_c, 1, 59, 64
1, 25605, Note_off_c, 1, 59, 0
1, 25627, Note_off_c, 1, 55, 0
1, 25634, Note_on_c, 1, 69, 64
1, 25826, Note_off_c, 1, 69, 0
1, 25832, Note_on_c, 1, 65, 64
1, 26121, Note_off_c, 1, 65, 0
1, 26675, Note_on_c, 1, 62, 64
1, 27011, Note_off_c, 1, 62, 0
1, 27240, Note_on_c, 1, 60, 64
1, 27269, Note_off_c, 1, 60, 0
1, 27464, Note_on_c, 1, 62, 64
1, 27648, Note_off_c, 1, 62, 0
1, 27724, Note_on_c, 1, 78, 64
1, 28172, Note_on_c, 1, 77, 64
1, 28177, Note_off_c, 1, 78, 0
1, 28193, Note_on_c, 1, 64, 64
1, 28194, Note_off_c, 1, 64, 0
1, 28352, Note_on_c, 1, 58, 64
1, 29661, Note_on_c, 1, 67, 64
1, 30861, Note_off_c, 1, 77, 0
1, 30861, Note_off_c, 1, 58, 0
1, 30861, Note_off_c, 1, 67, 0
1, 30865, Note_on_c, 1, 67, 64
1, 30865, Note_on_c, 1, 79, 64
1, 30865, Note_on_c, 1, 61, 64
1, 30865, Note_on_c, 1, 60, 64
1, 30866, Note_off_c, 1, 67, 0
1, 30901, Note_off_c, 1, 61, 0
1, 30902, Note_off_c, 1, 79, 0
1, 30902, Note_off_c, 1, 60, 0
1, 30904, Note_on_c, 1, 77, 64
1, 30904, Note_on_c, 1, 50, 64
1, 30904, Note_on_c, 1, 58, 64
1, 30974, Note_off_c, 1, 77, 0
1, 30974, Note_off_c, 1, 50, 0
1, 30978, Note_on_c, 1, 79, 64
1, 31095, Note_off_c, 1, 58, 0
1, 31100, Note_off_c, 1, 79, 0
1, 31100, Note_on_c, 1, 53, 64
1, 31100, Note_on_c, 1, 69, 64
1, 31100, Note_on_c, 1, 62, 64
1, 31101, Note_off_c, 1, 53, 0
1, 31101, Note_on_c, 1, 84, 64
1, 33165, Note_off_c, 1, 84, 0
1, 33165, Note_on_c, 1, 52, 64
1, 34842, Note_off_c, 1, 52, 0
1, 34909, Note_on_c, 1, 55, 64
1, 35226, Note_off_c, 1, 62, 0
1, 35471, Note_off_c, 1, 69, 0
1, 35471, Note_off_c, 1, 55, 0
1, 35476, Note_on_c, 1, 74, 64
1, 35476, Note_on_c, 1, 46, 64
1, 35821, Note_off_c, 1, 46, 0
1, 35824, Note_on_c, 1, 58, 64
1, 36244, Note_off_c, 1, 58, 0
1, 36249, Note_on_c, 1, 56, 64
1, 36411, Note_off_c, 1, 74, 0
1, 36412, Note_off_c, 1, 56, 0
1, 36416, Note_on_c, 1, 69, 64
1, 36416, Note_on_c, 1, 57, 64
1, 37140, Note_off_c, 1, 69, 0
1, 37140, Note_off_c, 1, 57, 0
1, 37145, Note_on_c, 1, 71, 64
1, 37145, Note_on_c, 1, 62, 64
1, 37417, Note_off_c, 1, 71, 0
1, 37436, Note_on_c, 1, 65, 64
1, 37439, Note_off_c, 1, 62, 0
1, 37499, Note_off_c, 1, 65, 0
1, 37518, Note_on_c, 1, 65, 64
1, 37537, Note_on_c, 1, 9, 64
1, 37537, Note_on_c, 1, 10, 64
1, 37538, Note_off_c, 1, 65, 0
1, 37538, Note_off_c, 1, 9, 0
1, 37538, Note_off_c, 1, 10, 0
1, 37538, End_track
0, 0, End_of_file