0, 0, Header, 1, 1, 480
1, 0, Start_track
1, 0, Title_t, "Test"
1, 0, Tempo, 500000
1, 0, Note_on_c, 1, 36, 64
1, 1, Note_off_c, 1, 36, 0
1, 1, Note_on_c, 1, 52, 64
1, 1, Note_on_c, 1, 74, 64
1, 1, Note_on_c, 1, 65, 64
1, 151, Note_off_c, 1, 74, 0
1, 158, Note_off_c, 1, 52, 0
1, 1014, Note_off_c, 1, 65, 0
1, 1014, Note_on_c, 1, 45, 64
1, 1015, Note_off_c, 1, 45, 0
1, 2347, Note_on_c, 1, 68, 64
1, 2348, Note_off_c, 1, 68, 0
1, 2355, Note_on_c, 1, 60, 64
1, 2427, Note_off_c, 1, 60, 0
1, 2435, Note_on_c, 1, 62, 64
1, 2788, Note_off_c, 1, 62, 0
1, 2800, Note_on_c, 1, 59, 64
1, 2804, Note_on_c, 1, 53, 64
1, 3168, Note_off_c, 1, 59, 0
1, 3171, Note_off_c, 1, 53, 0
1, 3171, Note_on_c, 1, 65, 64
1, 3171, Note_on_c, 1, 44, 64
1, 3171, Note_on_c, 1, 79, 64
1, 3172, Note_off_c, 1, 79, 0
1, 7791, Note_off_c, 1, 44, 0
1, 7791, Note_on_c, 1, 55, 64
1, 7791, Note_on_c, 1, 63, 64
1, 7933, Note_off_c, 1, 65, 0
1, 8241, Note_off_c, 1, 55, 0
1, 9725, Note_off_c, 1, 63, 0
1, 9729, Note_on_c, 1, 65, 64
1, 10523, Note_on_c, 1, 60, 64
1, 10738, Note_off_c, 1, 60, 0
1, 10740, Note_on_c, 1, 59, 64
1, 10744, Note_off_c, 1, 65, 0
1, 11028, Note_off_c, 1, 59, 0
1, 11036, Note_on_c, 1, 63, 64
1, 11142, Note_off_c, 1, 63, 0
1, 11188, Note_on_c, 1, 65, 64
1, 11425, Note_off_c, 1, 65, 0
1, 11437, Note_on_c, 1, 62, 64
1, 11938, Note_off_c, 1, 62, 0
1, 12096, Note_on_c, 1, 55, 64
1, 12154, Note_off_c, 1, 55, 0
1, 12173, Note_on_c, 1, 58, 64
1, 12565, Note_off_c, 1, 58, 0
1, 12569, Note_on_c, 1, 74, 64
1, 13098, Note_off_c, 1, 74, 0
1, 13115, Note_on_c, 1, 61, 64
1, 13115, Note_on_c, 1, 45, 64
1, 13322, Note_off_c, 1, 61, 0
1, 13338, Note_off_c, 1, 45, 0
1, 13342, Note_on_c, 1, 81, 64
1, 13342, Note_on_c, 1, 41, 64
1, 14438, Note_off_c, 1, 81, 0
1, 14438, Note_off_c, 1, 41, 0
1, 14443, Note_on_c, 1, 79, 64
1, 14443, Note_on_c, 1, 50, 64
1, 14475, Note_off_c, 1, 79, 0
1, 14480, Note_on_c, 1, 69, 64
1, 14540, Note_off_c, 1, 50, 0
1, 14540, Note_off_c, 1, 69, 0
1, 14545, Note_on_c, 1, 72, 64
1, 14548, Note_off_c, 1, 72, 0
1, 14557, Note_on_c, 1, 72, 64
1, 14868, Note_on_c, 1, 43, 64
1, 14892, Note_off_c, 1, 72, 0
1, 15266, Note_on_c, 1, 53, 64
1, 15318, Note_off_c, 1, 43, 0
1, 15318, Note_off_c, 1, 53, 0
1, 15320, Note_on_c, 1, 43, 64
1, 15448, Note_on_c, 1, 53, 64
1, 15992, Note_off_c, 1, 53, 0
1, 16001, Note_on_c, 1, 70, 64
1, 16916, Note_off_c, 1, 70, 0
1, 16917, Note_off_c, 1, 43, 0
1, 16919, Note_on_c, 1, 66, 64
1, 16919, Note_on_c, 1, 72, 64
1, 17205, Note_off_c, 1, 66, 0
1, 17209, Note_on_c, 1, 62, 64
1, 17759, Note_off_c, 1, 72, 0
1, 17759, Note_off_c, 1, 62, 0
1, 17763, Note_on_c, 1, 77, 64
1, 17763, Note_on_c, 1, 59, 64
1, 18086, Note_off_c, 1, 77, 0
1, 18090, Note_on_c, 1, 50, 64
1, 18581, Note_off_c, 1, 59, 0
1, 18581, Note_off_c, 1, 50, 0
1, 18586, Note_on_c, 1, 45, 64
1, 18602, Note_on_c, 1, 53, 64
1, 18635, Note_off_c, 1, 53, 0
1, 18697, Note_on_c, 1, 67, 64
1, 18940, Note_off_c, 1, 45, 0
1, 18940, Note_on_c, 1, 73, 64
1, 20342, Note_off_c, 1, 73, 0
1, 21333, Note_off_c, 1, 67, 0
1, 21336, Note_on_c, 1, 65, 64
1, 21487, Note_off_c, 1, 65, 0
1, 21503, Note_on_c, 1, 41, 64
1, 21612, Note_on_c, 1, 63, 64
1, 21627, Note_off_c, 1, 41, 0
1, 22469, Note_off_c, 1, 63, 0
1, 22474, Note_on_c, 1, 52, 64
1, 23069, Note_on_c, 1, 62, 64
1, 24178, Note_off_c, 1, 52, 0
1, 24178, Note_off_c, 1, 62, 0
1, 24182, Note_on_c, 1, 57, 64
1, 24186, Note_on_c, 1, 52, 64
1, 24657, Note_off_c, 1, 57, 0
1, 24658, Note_off_c, 1, 52, 0
1, 24661, Note_on_c, 1, 79, 64
1, 24661, Note_on_c, 1, 51, 64
1, 24661, Note_on_c, 1, 67, 64
1, 24662, Note_off_c, 1, 67, 0
1, 24662, Note_on_c, 1, 59, 64
1, 24678, Note_off_c, 1, 79, 0
1, 24678, Note_off_c, 1, 59, 0
1, 24680, Note_off_c, 1, 51, 0
1, 24683, Note_on_c, 1, 62, 64
1, 24683, Note_on_c, 1, 70, 64
1, 24712, Note_on_c, 1, 72, 64
1, 25176, Note_off_c, 1, 62, 0
1, 25178, Note_off_c, 1, 70, 0
1, 25180, Note_on_c, 1, 65, 64
1, 25933, Note_on_c, 1, 52, 64
1, 26213, Note_off_c, 1, 72, 0
1, 26213, Note_off_c, 1, 65, 0
1, 26217, Note_on_c, 1, 50, 64
1, 28314, Note_off_c, 1, 52, 0
1, 28314, Note_off_c, 1, 50, 0
1, 28318, Note_on_c, 1, 59, 64
1, 28318, Note_on_c, 1, 64, 64
1, 28429, Note_on_c, 1, 71, 64
1, 28670, Note_on_c, 1, 76, 64
1, 29186, Note_on_c, 1, 80, 64
1, 29187, Note_off_c, 1, 71, 0
1, 29187, Note_off_c, 1, 80, 0
1, 32585, Note_off_c, 1, 59, 0
1, 32585, Note_off_c, 1, 64, 0
1, 32585, Note_off_c, 1, 76, 0
1, 32590, Note_on_c, 1, 57, 64
1, 32590, Note_on_c, 1, 45, 64
1, 32590, Note_on_c, 1, 69, 64
1, 32591, Note_off_c, 1, 45, 0
1, 32591, Note_on_c, 1, 75, 64
1, 32592, Note_off_c, 1, 75, 0
1, 32632, Note_off_c, 1, 69, 0
1, 32632, Note_on_c, 1, 68, 64
1, 32674, Note_off_c, 1, 68, 0
1, 32953, Note_off_c, 1, 57, 0
1, 33053, Note_on_c, 1, 74, 64
1, 33553, Note_on_c, 1, 9, 64
1, 33553, Note_on_c, 1, 10, 64
1, 33554, Note_off_c, 1, 74, 0
1, 33554, Note_off_c, 1, 9, 0
1, 33554, Note_off_c, 1, 10, 0
1, 33554, End_track
0, 0, End_of_file