0, 0, Header, 1, 1, 480
1, 0, Start_track
1, 0, Title_t, "Test"
1, 0, Tempo, 500000
1, 0, Note_on_c, 1, 64, 64
1, 525, Note_off_c, 1, 64, 0
1, 529, Note_on_c, 1, 63, 64
1, 1299, Note_off_c, 1, 63, 0
1, 1306, Note_on_c, 1, 52, 64
1, 1392, Note_on_c, 1, 67, 64
1, 1498, Note_off_c, 1, 52, 0
1, 1502, Note_on_c, 1, 53, 64
1, 1502, Note_on_c, 1, 69, 64
1, 1702, Note_off_c, 1, 53, 0
1, 1712, Note_off_c, 1, 67, 0
1, 1910, Note_off_c, 1, 69, 0
1, 1917, Note_on_c, 1, 70, 64
1, 1972, Note_off_c, 1, 70, 0
1, 1976, Note_on_c, 1, 72, 64
1, 2084, Note_off_c, 1, 72, 0
1, 2096, Note_on_c, 1, 74, 64
1, 2096, Note_on_c, 1, 58, 64
1, 2526, Note_off_c, 1, 74, 0
1, 2528, Note_on_c, 1, 52, 64
1, 3134, Note_off_c, 1, 58, 0
1, 3134, Note_off_c, 1, 52, 0
1, 3138, Note_on_c, 1, 75, 64
1, 3138, Note_on_c, 1, 60, 64
1, 3378, Note_off_c, 1, 75, 0
1, 3380, Note_on_c, 1, 74, 64
1, 3380, Note_on_c, 1, 68, 64
1, 3800, Note_off_c, 1, 60, 0
1, 3800, Note_off_c, 1, 74, 0
1, 3800, Note_off_c, 1, 68, 0
1, 3803, Note_on_c, 1, 55, 64
1, 3803, Note_on_c, 1, 70, 64
1, 3803, Note_on_c, 1, 67, 64
1, 3803, Note_on_c, 1, 68, 64
1, 3804, Note_off_c, 1, 67, 0
1, 3804, Note_off_c, 1, 68, 0
1, 3804, Note_on_c, 1, 58, 64
1, 3805, Note_off_c, 1, 58, 0
1, 3805, Note_on_c, 1, 56, 64
1, 3807, Note_off_c, 1, 56, 0
1, 4231, Note_on_c, 1, 60, 64
1, 4275, Note_off_c, 1, 70, 0
1, 4279, Note_on_c, 1, 80, 64
1, 4280, Note_off_c, 1, 60, 0
1, 4281, Note_on_c, 1, 59, 64
1, 4282, Note_off_c, 1, 80, 0
1, 4282, Note_on_c, 1, 69, 64
1, 4283, Note_off_c, 1, 59, 0
1, 4283, Note_off_c, 1, 69, 0
1, 4288, Note_off_c, 1, 55, 0
1, 4288, Note_on_c, 1, 77, 64
1, 4289, Note_off_c, 1, 77, 0
1, 4517, Note_on_c, 1, 48, 64
1, 4520, Note_on_c, 1, 67, 64
1, 4713, Note_off_c, 1, 67, 0
1, 5973, Note_off_c, 1, 48, 0
1, 6295, Note_on_c, 1, 69, 64
1, 6463, Note_off_c, 1, 69, 0
1, 6627, Note_on_c, 1, 60, 64
1, 6953, Note_off_c, 1, 60, 0
1, 7242, Note_on_c, 1, 82, 64
1, 7263, Note_off_c, 1, 82, 0
1, 7847, Note_on_c, 1, 65, 64
1, 9930, Note_off_c, 1, 65, 0
1, 9941, Note_on_c, 1, 56, 64
1, 10142, Note_off_c, 1, 56, 0
1, 10168, Note_on_c, 1, 65, 64
1, 11263, Note_off_c, 1, 65, 0
1, 11270, Note_on_c, 1, 57, 64
1, 11807, Note_off_c, 1, 57, 0
1, 11811, Note_on_c, 1, 67, 64
1, 11910, Note_off_c, 1, 67, 0
1, 11910, Note_on_c, 1, 60, 64
1, 12103, Note_off_c, 1, 60, 0
1, 12145, Note_on_c, 1, 44, 64
1, 12149, Note_off_c, 1, 44, 0
1, 12149, Note_on_c, 1, 82, 64
1, 12150, Note_off_c, 1, 82, 0
1, 12426, Note_on_c, 1, 74, 64
1, 12905, Note_on_c, 1, 75, 64
1, 12913, Note_off_c, 1, 74, 0
1, 12992, Note_off_c, 1, 75, 0
1, 13042, Note_on_c, 1, 58, 64
1, 13333, Note_off_c, 1, 58, 0
1, 13337, Note_on_c, 1, 63, 64
1, 13577, Note_off_c, 1, 63, 0
1, 13581, Note_on_c, 1, 74, 64
1, 13581, Note_on_c, 1, 65, 64
1, 13794, Note_off_c, 1, 74, 0
1, 13866, Note_off_c, 1, 65, 0
1, 13877, Note_on_c, 1, 57, 64
1, 13994, Note_off_c, 1, 57, 0
1, 13998, Note_on_c, 1, 57, 64
1, 14361, Note_off_c, 1, 57, 0
1, 14365, Note_on_c, 1, 57, 64
1, 15408, Note_off_c, 1, 57, 0
1, 15418, Note_on_c, 1, 53, 64
1, 15609, Note_off_c, 1, 53, 0
1, 15680, Note_on_c, 1, 53, 64
1, 15886, Note_off_c, 1, 53, 0
1, 16205, Note_on_c, 1, 69, 64
1, 16520, Note_off_c, 1, 69, 0
1, 16546, Note_on_c, 1, 65, 64
1, 16711, Note_off_c, 1, 65, 0
1, 16728, Note_on_c, 1, 65, 64
1, 17117, Note_off_c, 1, 65, 0
1, 17122, Note_on_c, 1, 64, 64
1, 17275, Note_off_c, 1, 64, 0
1, 17279, Note_on_c, 1, 62, 64
1, 17729, Note_off_c, 1, 62, 0
1, 17732, Note_on_c, 1, 60, 64
1, 17785, Note_off_c, 1, 60, 0
1, 17790, Note_on_c, 1, 65, 64
1, 17955, Note_off_c, 1, 65, 0
1, 18433, Note_on_c, 1, 53, 64
1, 18507, Note_off_c, 1, 53, 0
1, 18792, Note_on_c, 1, 58, 64
1, 18825, Note_off_c, 1, 58, 0
1, 18829, Note_on_c, 1, 77, 64
1, 19125, Note_off_c, 1, 77, 0
1, 19138, Note_on_c, 1, 75, 64
1, 19139, Note_off_c, 1, 75, 0
1, 19139, Note_on_c, 1, 57, 64
1, 19139, Note_on_c, 1, 46, 64
1, 19140, Note_off_c, 1, 46, 0
1, 19140, Note_on_c, 1, 66, 64
1, 19479, Note_off_c, 1, 57, 0
1, 19480, Note_off_c, 1, 66, 0
1, 19484, Note_on_c, 1, 72, 64
1, 19484, Note_on_c, 1, 57, 64
1, 19484, Note_on_c, 1, 66, 64
1, 19834, Note_off_c, 1, 72, 0
1, 19834, Note_off_c, 1, 57, 0
1, 19834, Note_off_c, 1, 66, 0
1, 19834, Note_on_c, 1, 50, 64
1, 19835, Note_off_c, 1, 50, 0
1, 19838, Note_on_c, 1, 71, 64
1, 19838, Note_on_c, 1, 52, 64
1, 19838, Note_on_c, 1, 47, 64
1, 20325, Note_off_c, 1, 52, 0
1, 20325, Note_off_c, 1, 47, 0
1, 20326, Note_off_c, 1, 71, 0
1, 20329, Note_on_c, 1, 72, 64
1, 20329, Note_on_c, 1, 52, 64
1, 20337, Note_on_c, 1, 65, 64
1, 20338, Note_off_c, 1, 72, 0
1, 20338, Note_off_c, 1, 65, 0
1, 20343, Note_on_c, 1, 73, 64
1, 20370, Note_off_c, 1, 73, 0
1, 20370, Note_on_c, 1, 60, 64
1, 20371, Note_off_c, 1, 60, 0
1, 21408, Note_off_c, 1, 52, 0
1, 21413, Note_on_c, 1, 67, 64
1, 21413, Note_on_c, 1, 51, 64
1, 21602, Note_off_c, 1, 67, 0
1, 21603, Note_off_c, 1, 51, 0
1, 21605, Note_on_c, 1, 65, 64
1, 21605, Note_on_c, 1, 56, 64
1, 21905, Note_off_c, 1, 65, 0
1, 21905, Note_off_c, 1, 56, 0
1, 21908, Note_on_c, 1, 63, 64
1, 21908, Note_on_c, 1, 67, 64
1, 22465, Note_off_c, 1, 63, 0
1, 22465, Note_off_c, 1, 67, 0
1, 22470, Note_on_c, 1, 69, 64
1, 22470, Note_on_c, 1, 72, 64
1, 23755, Note_off_c, 1, 69, 0
1, 23755, Note_off_c, 1, 72, 0
1, 23760, Note_on_c, 1, 60, 64
1, 23760, Note_on_c, 1, 69, 64
1, 24036, Note_off_c, 1, 60, 0
1, 24059, Note_on_c, 1, 53, 64
1, 24569, Note_off_c, 1, 69, 0
1, 24572, Note_off_c, 1, 53, 0
1, 24573, Note_on_c, 1, 74, 64
1, 24573, Note_on_c, 1, 46, 64
1, 24737, Note_off_c, 1, 74, 0
1, 24751, Note_off_c, 1, 46, 0
1, 24766, Note_on_c, 1, 64, 64
1, 25479, Note_off_c, 1, 64, 0
1, 25487, Note_on_c, 1, 66, 64
1, 25501, Note_off_c, 1, 66, 0
1, 25505, Note_on_c, 1, 56, 64
1, 25505, Note_on_c, 1, 47, 64
1, 25547, Note_off_c, 1, 56, 0
1, 25547, Note_off_c, 1, 47, 0
1, 25551, Note_on_c, 1, 64, 64
1, 25551, Note_on_c, 1, 72, 64
1, 25599, Note_off_c, 1, 64, 0
1, 25603, Note_on_c, 1, 56, 64
1, 26149, Note_off_c, 1, 72, 0
1, 26149, Note_off_c, 1, 56, 0
1, 26153, Note_on_c, 1, 52, 64
1, 26153, Note_on_c, 1, 45, 64
1, 26338, Note_off_c, 1, 52, 0
1, 26346, Note_on_c, 1, 73, 64
1, 27930, Note_on_c, 1, 55, 64
1, 27932, Note_off_c, 1, 45, 0
1, 27932, Note_on_c, 1, 76, 64
1, 27963, Note_off_c, 1, 73, 0
1, 28007, Note_off_c, 1, 55, 0
1, 28007, Note_off_c, 1, 76, 0
1, 28012, Note_on_c, 1, 74, 64
1, 28012, Note_on_c, 1, 62, 64
1, 28470, Note_off_c, 1, 74, 0
1, 28533, Note_off_c, 1, 62, 0
1, 28814, Note_on_c, 1, 41, 64
1, 28866, Note_off_c, 1, 41, 0
1, 28932, Note_on_c, 1, 69, 64
1, 29244, Note_off_c, 1, 69, 0
1, 29248, Note_on_c, 1, 70, 64
1, 29352, Note_off_c, 1, 70, 0
1, 29356, Note_on_c, 1, 69, 64
1, 29627, Note_off_c, 1, 69, 0
1, 29631, Note_on_c, 1, 70, 64
1, 29729, Note_on_c, 1, 60, 64
1, 30018, Note_off_c, 1, 70, 0
1, 30018, Note_off_c, 1, 60, 0
1, 30022, Note_on_c, 1, 72, 64
1, 30022, Note_on_c, 1, 62, 64
1, 30480, Note_off_c, 1, 72, 0
1, 30480, Note_off_c, 1, 62, 0
1, 30484, Note_on_c, 1, 75, 64
1, 30484, Note_on_c, 1, 57, 64
1, 30810, Note_off_c, 1, 75, 0
1, 30966, Note_off_c, 1, 57, 0
1, 30983, Note_on_c, 1, 55, 64
1, 31204, Note_off_c, 1, 55, 0
1, 31204, Note_on_c, 1, 69, 64
1, 31511, Note_off_c, 1, 69, 0
1, 31515, Note_on_c, 1, 67, 64
1, 31617, Note_on_c, 1, 57, 64
1, 31720, Note_off_c, 1, 57, 0
1, 32116, Note_off_c, 1, 67, 0
1, 32153, Note_on_c, 1, 60, 64
1, 32242, Note_off_c, 1, 60, 0
1, 32246, Note_on_c, 1, 62, 64
1, 32409, Note_off_c, 1, 62, 0
1, 32413, Note_on_c, 1, 60, 64
1, 32415, Note_off_c, 1, 60, 0
1, 32460, Note_on_c, 1, 64, 64
1, 32553, Note_off_c, 1, 64, 0
1, 32561, Note_on_c, 1, 65, 64
1, 32823, Note_off_c, 1, 65, 0
1, 32835, Note_on_c, 1, 67, 64
1, 32911, Note_off_c, 1, 67, 0
1, 32915, Note_on_c, 1, 69, 64
1, 33013, Note_off_c, 1, 69, 0
1, 33017, Note_on_c, 1, 69, 64
1, 33047, Note_off_c, 1, 69, 0
1, 33674, Note_on_c, 1, 48, 64
1, 35204, Note_on_c, 1, 67, 64
1, 35323, Note_off_c, 1, 67, 0
1, 35326, Note_on_c, 1, 60, 64
1, 35460, Note_off_c, 1, 60, 0
1, 35461, Note_off_c, 1, 48, 0
1, 35468, Note_on_c, 1, 77, 64
1, 35468, Note_on_c, 1, 50, 64
1, 35650, Note_off_c, 1, 77, 0
1, 35859, Note_off_c, 1, 50, 0
1, 35871, Note_on_c, 1, 48, 64
1, 36230, Note_on_c, 1, 72, 64
1, 38255, Note_off_c, 1, 48, 0
1, 38593, Note_off_c, 1, 72, 0
1, 38597, Note_on_c, 1, 74, 64
1, 38706, Note_off_c, 1, 74, 0
1, 38748, Note_on_c, 1, 72, 64
1, 40147, Note_off_c, 1, 72, 0
1, 40155, Note_on_c, 1, 63, 64
1, 40273, Note_off_c, 1, 63, 0
1, 40276, Note_on_c, 1, 62, 64
1, 40410, Note_off_c, 1, 62, 0
1, 40464, Note_on_c, 1, 62, 64
1, 40874, Note_off_c, 1, 62, 0
1, 40878, Note_on_c, 1, 45, 64
1, 41020, Note_on_c, 1, 53, 64
1, 41029, Note_off_c, 1, 53, 0
1, 41162, Note_on_c, 1, 60, 64
1, 41857, Note_on_c, 1, 63, 64
1, 42081, Note_off_c, 1, 45, 0
1, 42081, Note_on_c, 1, 72, 64
1, 42208, Note_on_c, 1, 9, 64
1, 42208, Note_on_c, 1, 10, 64
1, 42209, Note_off_c, 1, 60, 0
1, 42209, Note_off_c, 1, 63, 0
1, 42209, Note_off_c, 1, 72, 0
1, 42209, Note_off_c, 1, 9, 0
1, 42209, Note_off_c, 1, 10, 0
1, 42209, End_track
0, 0, End_of_file