0, 0, Header, 1, 1, 480
1, 0, Start_track
1, 0, Title_t, "Test"
1, 0, Tempo, 500000
1, 0, Instrument_name_t, "Church Organ"
1, 1200, Note_on_c, 1, 71, 127
1, 1680, Note_off_c, 1, 71, 0
1, 1680, Note_on_c, 1, 59, 127
1, 1920, Note_off_c, 1, 59, 0
1, 1920, Note_on_c, 1, 62, 127
1, 2160, Note_off_c, 1, 62, 0
1, 2160, Note_on_c, 1, 66, 127
1, 2400, Note_off_c, 1, 66, 0
1, 2640, Note_on_c, 1, 74, 127
1, 2880, Note_off_c, 1, 74, 0
1, 2880, Note_on_c, 1, 73, 127
1, 3120, Note_off_c, 1, 73, 0
1, 3360, Note_on_c, 1, 58, 127
1, 3600, Note_off_c, 1, 58, 0
1, 3600, Note_on_c, 1, 64, 127
1, 3840, Note_off_c, 1, 64, 0
1, 4080, Note_on_c, 1, 61, 127
1, 4320, Note_off_c, 1, 61, 0
1, 5520, Note_on_c, 1, 78, 127
1, 5760, Note_off_c, 1, 78, 0
1, 5760, Note_on_c, 1, 76, 127
1, 6000, Note_off_c, 1, 76, 0
1, 6000, Note_on_c, 1, 69, 127
1, 6240, Note_off_c, 1, 69, 0
1, 6480, Note_on_c, 1, 67, 127
1, 6720, Note_off_c, 1, 67, 0
1, 8400, Note_on_c, 1, 81, 127
1, 8640, Note_off_c, 1, 81, 0
1, 8640, Note_on_c, 1, 79, 127
1, 8880, Note_off_c, 1, 79, 0
1, 10080, Note_on_c, 1, 70, 127
1, 10320, Note_off_c, 1, 70, 0
1, 11040, Note_on_c, 1, 63, 127
1, 11280, Note_off_c, 1, 63, 0
1, 11520, Note_on_c, 1, 68, 127
1, 11760, Note_off_c, 1, 68, 0
1, 17040, Note_on_c, 1, 83, 127
1, 17280, Note_off_c, 1, 83, 0
1, 19200, Note_on_c, 1, 57, 127
1, 19440, Note_off_c, 1, 57, 0
1, 21360, Note_on_c, 1, 72, 127
1, 21600, Note_off_c, 1, 72, 0
1, 23040, Note_on_c, 1, 85, 127
1, 23280, Note_off_c, 1, 85, 0
1, 24480, Note_on_c, 1, 86, 127
1, 24720, Note_off_c, 1, 86, 0
1, 26880, Note_on_c, 1, 82, 127
1, 27120, Note_off_c, 1, 82, 0
1, 29520, Note_on_c, 1, 80, 127
1, 29760, Note_off_c, 1, 80, 0
1, 30240, Note_on_c, 1, 77, 127
1, 30480, Note_off_c, 1, 77, 0
1, 33120, Note_on_c, 1, 75, 127
1, 33360, Note_off_c, 1, 75, 0
1, 36000, Note_on_c, 1, 65, 127
1, 36240, Note_off_c, 1, 65, 0
1, 42240, Note_on_c, 1, 56, 127
1, 42480, Note_off_c, 1, 56, 0
1, 104400, Note_on_c, 1, 84, 127
1, 104640, Note_off_c, 1, 84, 0
1, 108960, Note_on_c, 1, 60, 127
1, 109200, Note_off_c, 1, 60, 0
1, 129600, Note_on_c, 1, 55, 127
1, 129840, Note_off_c, 1, 55, 0
1, 162480, Note_on_c, 1, 73, 127
1, 162960, Note_off_c, 1, 73, 0
1, 162960, Note_on_c, 1, 78, 127
1, 163200, Note_off_c, 1, 78, 0
1, 163440, Note_on_c, 1, 70, 127
1, 163680, Note_off_c, 1, 70, 0
1, 163680, Note_on_c, 1, 66, 127
1, 163920, Note_off_c, 1, 66, 0
1, 163920, Note_on_c, 1, 62, 127
1, 164160, Note_off_c, 1, 62, 0
1, 164160, Note_on_c, 1, 56, 127
1, 164400, Note_off_c, 1, 56, 0
1, 164400, Note_on_c, 1, 64, 127
1, 164640, Note_off_c, 1, 64, 0
1, 164640, Note_on_c, 1, 58, 127
1, 164880, Note_off_c, 1, 58, 0
1, 165360, Note_on_c, 1, 76, 127
1, 165600, Note_off_c, 1, 76, 0
1, 165600, Note_on_c, 1, 74, 127
1, 165840, Note_off_c, 1, 74, 0
1, 166080, Note_on_c, 1, 59, 127
1, 166320, Note_off_c, 1, 59, 0
1, 166560, Note_on_c, 1, 71, 127
1, 166800, Note_off_c, 1, 71, 0
1, 167280, Note_on_c, 1, 69, 127
1, 167520, Note_off_c, 1, 69, 0
1, 167520, Note_on_c, 1, 63, 127
1, 167760, Note_off_c, 1, 63, 0
1, 168480, Note_on_c, 1, 67, 127
1, 168720, Note_off_c, 1, 67, 0
1, 169680, Note_on_c, 1, 79, 127
1, 169920, Note_off_c, 1, 79, 0
1, 169920, Note_on_c, 1, 81, 127
1, 170160, Note_off_c, 1, 81, 0
1, 170400, Note_on_c, 1, 68, 127
1, 170640, Note_off_c, 1, 68, 0
1, 170880, Note_on_c, 1, 83, 127
1, 171120, Note_off_c, 1, 83, 0
1, 171360, Note_on_c, 1, 72, 127
1, 171600, Note_off_c, 1, 72, 0
1, 172800, Note_on_c, 1, 75, 127
1, 173040, Note_off_c, 1, 75, 0
1, 173520, Note_on_c, 1, 84, 127
1, 173760, Note_off_c, 1, 84, 0
1, 178080, Note_on_c, 1, 60, 127
1, 178320, Note_off_c, 1, 60, 0
1, 179280, Note_on_c, 1, 77, 127
1, 179520, Note_off_c, 1, 77, 0
1, 181920, Note_on_c, 1, 57, 127
1, 182160, Note_off_c, 1, 57, 0
1, 185760, Note_on_c, 1, 80, 127
1, 186000, Note_off_c, 1, 80, 0
1, 193440, Note_on_c, 1, 61, 127
1, 193680, Note_off_c, 1, 61, 0
1, 198720, Note_on_c, 1, 55, 127
1, 198960, Note_off_c, 1, 55, 0
1, 205920, Note_on_c, 1, 65, 127
1, 206160, Note_off_c, 1, 65, 0
1, 207360, Note_on_c, 1, 82, 127
1, 207600, Note_off_c, 1, 82, 0
1, 207600, Note_on_c, 1, 85, 127
1, 207840, Note_off_c, 1, 85, 0
1, 207840, End_track
0, 0, End_of_file