0, 0, Header, 1, 1, 480
1, 0, Start_track
1, 0, Title_t, "Test"
1, 0, Tempo, 500000
1, 0, Instrument_name_t, "Church Organ"
1, 1320, Note_on_c, 1, 69, 127
1, 1440, Note_on_c, 1, 65, 127
1, 1440, Note_on_c, 1, 62, 127
1, 1920, Note_off_c, 1, 69, 0
1, 1920, Note_off_c, 1, 65, 0
1, 1920, Note_off_c, 1, 62, 0
1, 1920, Note_on_c, 1, 61, 127
1, 2080, Note_off_c, 1, 61, 0
1, 2080, Note_on_c, 1, 70, 127
1, 2240, Note_off_c, 1, 70, 0
1, 2400, Note_on_c, 1, 67, 127
1, 2560, Note_off_c, 1, 67, 0
1, 2720, Note_on_c, 1, 64, 127
1, 2880, Note_off_c, 1, 64, 0
1, 3360, Note_on_c, 1, 57, 127
1, 3520, Note_off_c, 1, 57, 0
1, 4680, Note_on_c, 1, 58, 127
1, 4800, Note_off_c, 1, 58, 0
1, 4800, Note_on_c, 1, 55, 127
1, 5160, Note_off_c, 1, 55, 0
1, 8320, Note_on_c, 1, 72, 127
1, 8480, Note_off_c, 1, 72, 0
1, 8480, Note_on_c, 1, 74, 127
1, 8640, Note_off_c, 1, 74, 0
1, 9480, Note_on_c, 1, 60, 127
1, 9600, Note_off_c, 1, 60, 0
1, 9960, Note_on_c, 1, 63, 127
1, 10080, Note_off_c, 1, 63, 0
1, 12640, Note_on_c, 1, 75, 127
1, 12800, Note_off_c, 1, 75, 0
1, 13600, Note_on_c, 1, 76, 127
1, 13760, Note_off_c, 1, 76, 0
1, 13760, Note_on_c, 1, 77, 127
1, 13920, Note_off_c, 1, 77, 0
1, 13920, Note_on_c, 1, 79, 127
1, 14080, Note_off_c, 1, 79, 0
1, 14080, Note_on_c, 1, 81, 127
1, 14240, Note_off_c, 1, 81, 0
1, 14240, Note_on_c, 1, 82, 127
1, 14400, Note_off_c, 1, 82, 0
1, 19080, Note_on_c, 1, 66, 127
1, 19200, Note_off_c, 1, 66, 0
1, 24160, Note_on_c, 1, 59, 127
1, 24320, Note_off_c, 1, 59, 0
1, 24480, Note_on_c, 1, 56, 127
1, 24640, Note_off_c, 1, 56, 0
1, 25760, Note_on_c, 1, 71, 127
1, 25920, Note_off_c, 1, 71, 0
1, 27360, Note_on_c, 1, 68, 127
1, 27520, Note_off_c, 1, 68, 0
1, 29760, Note_on_c, 1, 83, 127
1, 29920, Note_off_c, 1, 83, 0
1, 29920, Note_on_c, 1, 80, 127
1, 30080, Note_off_c, 1, 80, 0
1, 30400, Note_on_c, 1, 73, 127
1, 30560, Note_off_c, 1, 73, 0
1, 79360, Note_on_c, 1, 84, 127
1, 79520, Note_off_c, 1, 84, 0
1, 80000, Note_on_c, 1, 78, 127
1, 80160, Note_off_c, 1, 78, 0
1, 105120, Note_on_c, 1, 85, 127
1, 105720, Note_off_c, 1, 85, 0
1, 105740, Note_on_c, 1, 86, 127
1, 105880, Note_on_c, 1, 85, 127
1, 105900, Note_off_c, 1, 86, 0
1, 106040, Note_off_c, 1, 85, 0
1, 106060, Note_on_c, 1, 86, 127
1, 106220, Note_off_c, 1, 86, 0
1, 106220, Note_on_c, 1, 84, 127
1, 106380, Note_off_c, 1, 84, 0
1, 106380, Note_on_c, 1, 82, 127
1, 106540, Note_off_c, 1, 82, 0
1, 106560, Note_on_c, 1, 81, 127
1, 106720, Note_off_c, 1, 81, 0
1, 106720, Note_on_c, 1, 79, 127
1, 106880, Note_off_c, 1, 79, 0
1, 106880, Note_on_c, 1, 77, 127
1, 107040, Note_off_c, 1, 77, 0
1, 107040, Note_on_c, 1, 76, 127
1, 107200, Note_off_c, 1, 76, 0
1, 107360, Note_on_c, 1, 74, 127
1, 107520, Note_off_c, 1, 74, 0
1, 107520, Note_on_c, 1, 69, 127
1, 107680, Note_off_c, 1, 69, 0
1, 107840, Note_on_c, 1, 73, 127
1, 108000, Note_off_c, 1, 73, 0
1, 108360, Note_on_c, 1, 70, 127
1, 108480, Note_off_c, 1, 70, 0
1, 108480, Note_on_c, 1, 68, 127
1, 109120, Note_off_c, 1, 68, 0
1, 109280, Note_on_c, 1, 71, 127
1, 109440, Note_off_c, 1, 71, 0
1, 109440, Note_on_c, 1, 61, 127
1, 109600, Note_off_c, 1, 61, 0
1, 109600, Note_on_c, 1, 64, 127
1, 109760, Note_off_c, 1, 64, 0
1, 109760, Note_on_c, 1, 67, 127
1, 109920, Note_off_c, 1, 67, 0
1, 110880, Note_on_c, 1, 65, 127
1, 111040, Note_off_c, 1, 65, 0
1, 111840, Note_on_c, 1, 57, 127
1, 112000, Note_off_c, 1, 57, 0
1, 112000, Note_on_c, 1, 62, 127
1, 112160, Note_off_c, 1, 62, 0
1, 119680, Note_on_c, 1, 75, 127
1, 119840, Note_off_c, 1, 75, 0
1, 120000, Note_on_c, 1, 72, 127
1, 120160, Note_off_c, 1, 72, 0
1, 121920, Note_on_c, 1, 58, 127
1, 122280, Note_off_c, 1, 58, 0
1, 122400, Note_on_c, 1, 66, 127
1, 122560, Note_off_c, 1, 66, 0
1, 122560, Note_on_c, 1, 84, 127
1, 122720, Note_off_c, 1, 84, 0
1, 122720, Note_on_c, 1, 82, 127
1, 122880, Note_off_c, 1, 82, 0
1, 123200, Note_on_c, 1, 78, 127
1, 123360, Note_off_c, 1, 78, 0
1, 126720, Note_on_c, 1, 63, 127
1, 127080, Note_off_c, 1, 63, 0
1, 129120, Note_on_c, 1, 60, 127
1, 129280, Note_off_c, 1, 60, 0
1, 140960, Note_on_c, 1, 83, 127
1, 141120, Note_off_c, 1, 83, 0
1, 148320, Note_on_c, 1, 85, 127
1, 148920, Note_off_c, 1, 85, 0
1, 148940, Note_on_c, 1, 86, 127
1, 149080, Note_on_c, 1, 85, 127
1, 149100, Note_off_c, 1, 86, 0
1, 149240, Note_off_c, 1, 85, 0
1, 149260, Note_on_c, 1, 86, 127
1, 149420, Note_off_c, 1, 86, 0
1, 149420, Note_on_c, 1, 84, 127
1, 149580, Note_off_c, 1, 84, 0
1, 149580, Note_on_c, 1, 82, 127
1, 149740, Note_off_c, 1, 82, 0
1, 149760, Note_on_c, 1, 81, 127
1, 149920, Note_off_c, 1, 81, 0
1, 149920, Note_on_c, 1, 79, 127
1, 150080, Note_off_c, 1, 79, 0
1, 150080, Note_on_c, 1, 77, 127
1, 150240, Note_off_c, 1, 77, 0
1, 150240, Note_on_c, 1, 76, 127
1, 150400, Note_off_c, 1, 76, 0
1, 150560, Note_on_c, 1, 74, 127
1, 150720, Note_off_c, 1, 74, 0
1, 150720, Note_on_c, 1, 69, 127
1, 150880, Note_off_c, 1, 69, 0
1, 151040, Note_on_c, 1, 73, 127
1, 151200, Note_off_c, 1, 73, 0
1, 151560, Note_on_c, 1, 70, 127
1, 151680, Note_off_c, 1, 70, 0
1, 151680, Note_on_c, 1, 68, 127
1, 152320, Note_off_c, 1, 68, 0
1, 152480, Note_on_c, 1, 71, 127
1, 152640, Note_off_c, 1, 71, 0
1, 152640, Note_on_c, 1, 61, 127
1, 152800, Note_off_c, 1, 61, 0
1, 152800, Note_on_c, 1, 64, 127
1, 152960, Note_off_c, 1, 64, 0
1, 152960, Note_on_c, 1, 67, 127
1, 153120, Note_off_c, 1, 67, 0
1, 154080, Note_on_c, 1, 65, 127
1, 154240, Note_off_c, 1, 65, 0
1, 155040, Note_on_c, 1, 57, 127
1, 155200, Note_off_c, 1, 57, 0
1, 155200, Note_on_c, 1, 62, 127
1, 155360, Note_off_c, 1, 62, 0
1, 155360, End_track
0, 0, End_of_file