0, 0, Header, 1, 1, 480
1, 0, Start_track
1, 0, Title_t, "Test"
1, 0, Tempo, 500000
1, 0, Instrument_name_t, "Church Organ"
1, 245, Note_on_c, 1, 65, 127
1, 310, Note_on_c, 1, 66, 127
1, 314, Note_off_c, 1, 65, 0
1, 344, Note_off_c, 1, 66, 0
1, 400, Note_on_c, 1, 65, 127
1, 424, Note_off_c, 1, 65, 0
1, 425, Note_on_c, 1, 63, 127
1, 451, Note_off_c, 1, 63, 0
1, 455, Note_on_c, 1, 65, 127
1, 481, Note_off_c, 1, 65, 0
1, 485, Note_on_c, 1, 66, 127
1, 590, Note_off_c, 1, 66, 0
1, 725, Note_on_c, 1, 61, 127
1, 830, Note_off_c, 1, 61, 0
1, 845, Note_on_c, 1, 63, 127
1, 950, Note_off_c, 1, 63, 0
1, 965, Note_on_c, 1, 64, 127
1, 1130, Note_off_c, 1, 64, 0
1, 1145, Note_on_c, 1, 63, 127
1, 1171, Note_off_c, 1, 63, 0
1, 1175, Note_on_c, 1, 61, 127
1, 1201, Note_off_c, 1, 61, 0
1, 1205, Note_on_c, 1, 59, 127
1, 1257, Note_off_c, 1, 59, 0
1, 1265, Note_on_c, 1, 58, 127
1, 1317, Note_off_c, 1, 58, 0
1, 1325, Note_on_c, 1, 59, 127
1, 1377, Note_off_c, 1, 59, 0
1, 1385, Note_on_c, 1, 61, 127
1, 1437, Note_off_c, 1, 61, 0
1, 1445, Note_on_c, 1, 63, 127
1, 1497, Note_off_c, 1, 63, 0
1, 1505, Note_on_c, 1, 65, 127
1, 1557, Note_off_c, 1, 65, 0
1, 1565, Note_on_c, 1, 66, 127
1, 1617, Note_off_c, 1, 66, 0
1, 1625, Note_on_c, 1, 63, 127
1, 1677, Note_off_c, 1, 63, 0
1, 1685, Note_on_c, 1, 68, 127
1, 1790, Note_off_c, 1, 68, 0
1, 1805, Note_on_c, 1, 59, 127
1, 1910, Note_off_c, 1, 59, 0
1, 1925, Note_on_c, 1, 61, 127
1, 1940, Note_on_c, 1, 59, 127
1, 1959, Note_off_c, 1, 61, 0
1, 1974, Note_off_c, 1, 59, 0
1, 2045, Note_on_c, 1, 58, 127
1, 2097, Note_off_c, 1, 58, 0
1, 2105, Note_on_c, 1, 56, 127
1, 2157, Note_off_c, 1, 56, 0
1, 2160, Note_on_c, 1, 72, 127
1, 2165, Note_on_c, 1, 54, 127
1, 2230, Note_on_c, 1, 73, 127
1, 2234, Note_off_c, 1, 72, 0
1, 2264, Note_off_c, 1, 73, 0
1, 2285, Note_off_c, 1, 54, 0
1, 2285, Note_on_c, 1, 66, 127
1, 2345, Note_on_c, 1, 70, 127
1, 2371, Note_off_c, 1, 70, 0
1, 2390, Note_off_c, 1, 66, 0
1, 2405, Note_on_c, 1, 66, 127
1, 2405, Note_on_c, 1, 73, 127
1, 2510, Note_off_c, 1, 66, 0
1, 2510, Note_off_c, 1, 73, 0
1, 2525, Note_on_c, 1, 65, 127
1, 2630, Note_off_c, 1, 65, 0
1, 2645, Note_on_c, 1, 68, 127
1, 2750, Note_off_c, 1, 68, 0
1, 2765, Note_on_c, 1, 64, 127
1, 2765, Note_on_c, 1, 70, 127
1, 2870, Note_off_c, 1, 64, 0
1, 2870, Note_off_c, 1, 70, 0
1, 2885, Note_on_c, 1, 64, 127
1, 2885, Note_on_c, 1, 71, 127
1, 2990, Note_off_c, 1, 64, 0
1, 3005, Note_on_c, 1, 63, 127
1, 3050, Note_off_c, 1, 71, 0
1, 3065, Note_on_c, 1, 70, 127
1, 3091, Note_off_c, 1, 70, 0
1, 3095, Note_on_c, 1, 68, 127
1, 3110, Note_off_c, 1, 63, 0
1, 3121, Note_off_c, 1, 68, 0
1, 3125, Note_on_c, 1, 66, 127
1, 3177, Note_off_c, 1, 66, 0
1, 3185, Note_on_c, 1, 65, 127
1, 3237, Note_off_c, 1, 65, 0
1, 3245, Note_on_c, 1, 63, 127
1, 3245, Note_on_c, 1, 66, 127
1, 3297, Note_off_c, 1, 63, 0
1, 3297, Note_off_c, 1, 66, 0
1, 3305, Note_on_c, 1, 65, 127
1, 3305, Note_on_c, 1, 68, 127
1, 3357, Note_off_c, 1, 65, 0
1, 3357, Note_off_c, 1, 68, 0
1, 3365, Note_on_c, 1, 70, 127
1, 3365, Note_on_c, 1, 66, 127
1, 3417, Note_off_c, 1, 70, 0
1, 3425, Note_on_c, 1, 72, 127
1, 3470, Note_off_c, 1, 66, 0
1, 3477, Note_off_c, 1, 72, 0
1, 3485, Note_on_c, 1, 73, 127
1, 3485, Note_on_c, 1, 58, 127
1, 3537, Note_off_c, 1, 73, 0
1, 3545, Note_on_c, 1, 70, 127
1, 3590, Note_off_c, 1, 58, 0
1, 3597, Note_off_c, 1, 70, 0
1, 3605, Note_on_c, 1, 61, 127
1, 3605, Note_on_c, 1, 75, 127
1, 3635, Note_on_c, 1, 60, 127
1, 3644, Note_off_c, 1, 61, 0
1, 3664, Note_off_c, 1, 60, 0
1, 3710, Note_off_c, 1, 75, 0
1, 3725, Note_on_c, 1, 66, 127
1, 3795, Note_on_c, 1, 58, 127
1, 3824, Note_off_c, 1, 58, 0
1, 3830, Note_off_c, 1, 66, 0
1, 3845, Note_on_c, 1, 61, 127
1, 3845, Note_on_c, 1, 66, 127
1, 3950, Note_off_c, 1, 61, 0
1, 3950, Note_off_c, 1, 66, 0
1, 3965, Note_on_c, 1, 65, 127
1, 3965, Note_on_c, 1, 56, 127
1, 4017, Note_off_c, 1, 65, 0
1, 4025, Note_on_c, 1, 63, 127
1, 4070, Note_off_c, 1, 56, 0
1, 4077, Note_off_c, 1, 63, 0
1, 4085, Note_on_c, 1, 53, 127
1, 4085, Note_on_c, 1, 61, 127
1, 4145, Note_off_c, 1, 53, 0
1, 4145, Note_on_c, 1, 54, 127
1, 4175, Note_off_c, 1, 54, 0
1, 4205, Note_on_c, 1, 71, 127
1, 4265, Note_on_c, 1, 51, 127
1, 4291, Note_off_c, 1, 51, 0
1, 4310, Note_off_c, 1, 71, 0
1, 4445, Note_on_c, 1, 70, 127
1, 4505, Note_off_c, 1, 61, 0
1, 4505, Note_on_c, 1, 63, 127
1, 4550, Note_off_c, 1, 70, 0
1, 4557, Note_off_c, 1, 63, 0
1, 4565, Note_on_c, 1, 49, 127
1, 4565, Note_on_c, 1, 64, 127
1, 4670, Note_off_c, 1, 49, 0
1, 4670, Note_off_c, 1, 64, 0
1, 4685, Note_on_c, 1, 51, 127
1, 4685, Note_on_c, 1, 66, 127
1, 4685, Note_on_c, 1, 69, 127
1, 4790, Note_off_c, 1, 51, 0
1, 4790, Note_off_c, 1, 66, 0
1, 4790, Note_off_c, 1, 69, 0
1, 4805, Note_on_c, 1, 69, 127
1, 4805, Note_on_c, 1, 52, 127
1, 4805, Note_on_c, 1, 59, 127
1, 4910, Note_off_c, 1, 69, 0
1, 4925, Note_on_c, 1, 68, 127
1, 4970, Note_off_c, 1, 52, 0
1, 4970, Note_off_c, 1, 59, 0
1, 4985, Note_on_c, 1, 51, 127
1, 4985, Note_on_c, 1, 61, 127
1, 5011, Note_off_c, 1, 51, 0
1, 5015, Note_on_c, 1, 49, 127
1, 5030, Note_off_c, 1, 68, 0
1, 5037, Note_off_c, 1, 61, 0
1, 5041, Note_off_c, 1, 49, 0
1, 5045, Note_on_c, 1, 47, 127
1, 5045, Note_on_c, 1, 63, 127
1, 5097, Note_off_c, 1, 47, 0
1, 5105, Note_on_c, 1, 46, 127
1, 5150, Note_off_c, 1, 63, 0
1, 5157, Note_off_c, 1, 46, 0
1, 5165, Note_on_c, 1, 47, 127
1, 5165, Note_on_c, 1, 68, 127
1, 5165, Note_on_c, 1, 65, 127
1, 5217, Note_off_c, 1, 47, 0
1, 5217, Note_off_c, 1, 68, 0
1, 5225, Note_on_c, 1, 49, 127
1, 5225, Note_on_c, 1, 70, 127
1, 5270, Note_off_c, 1, 65, 0
1, 5277, Note_off_c, 1, 49, 0
1, 5277, Note_off_c, 1, 70, 0
1, 5285, Note_on_c, 1, 51, 127
1, 5285, Note_on_c, 1, 66, 127
1, 5285, Note_on_c, 1, 71, 127
1, 5337, Note_off_c, 1, 51, 0
1, 5345, Note_on_c, 1, 53, 127
1, 5390, Note_off_c, 1, 66, 0
1, 5390, Note_off_c, 1, 71, 0
1, 5397, Note_off_c, 1, 53, 0
1, 5405, Note_on_c, 1, 54, 127
1, 5405, Note_on_c, 1, 63, 127
1, 5405, Note_on_c, 1, 59, 127
1, 5457, Note_off_c, 1, 54, 0
1, 5465, Note_on_c, 1, 51, 127
1, 5510, Note_off_c, 1, 63, 0
1, 5517, Note_off_c, 1, 51, 0
1, 5525, Note_on_c, 1, 56, 127
1, 5525, Note_on_c, 1, 65, 127
1, 5630, Note_off_c, 1, 59, 0
1, 5630, Note_off_c, 1, 56, 0
1, 5645, Note_on_c, 1, 58, 127
1, 5645, Note_on_c, 1, 47, 127
1, 5697, Note_off_c, 1, 58, 0
1, 5750, Note_off_c, 1, 65, 0
1, 5750, Note_off_c, 1, 47, 0
1, 5765, Note_on_c, 1, 66, 127
1, 5765, Note_on_c, 1, 47, 127
1, 5765, Note_on_c, 1, 54, 127
1, 5817, Note_off_c, 1, 66, 0
1, 5825, Note_on_c, 1, 65, 127
1, 5870, Note_off_c, 1, 47, 0
1, 5877, Note_off_c, 1, 65, 0
1, 5885, Note_on_c, 1, 46, 127
1, 5937, Note_off_c, 1, 46, 0
1, 5945, Note_on_c, 1, 44, 127
1, 5945, Note_on_c, 1, 68, 127
1, 5990, Note_off_c, 1, 54, 0
1, 5997, Note_off_c, 1, 44, 0
1, 5997, Note_off_c, 1, 68, 0
1, 6005, Note_on_c, 1, 70, 127
1, 6005, Note_on_c, 1, 42, 127
1, 6057, Note_off_c, 1, 70, 0
1, 6065, Note_on_c, 1, 68, 127
1, 6110, Note_off_c, 1, 42, 0
1, 6117, Note_off_c, 1, 68, 0
1, 6125, Note_on_c, 1, 70, 127
1, 6125, Note_on_c, 1, 61, 127
1, 6125, Note_on_c, 1, 54, 127
1, 6177, Note_off_c, 1, 70, 0
1, 6185, Note_on_c, 1, 66, 127
1, 6230, Note_off_c, 1, 61, 0
1, 6237, Note_off_c, 1, 66, 0
1, 6245, Note_on_c, 1, 63, 127
1, 6245, Note_on_c, 1, 60, 127
1, 6350, Note_off_c, 1, 54, 0
1, 6350, Note_off_c, 1, 63, 0
1, 6365, Note_on_c, 1, 53, 127
1, 6365, Note_on_c, 1, 68, 127
1, 6417, Note_off_c, 1, 53, 0
1, 6425, Note_on_c, 1, 51, 127
1, 6470, Note_off_c, 1, 60, 0
1, 6477, Note_off_c, 1, 51, 0
1, 6485, Note_on_c, 1, 62, 127
1, 6537, Note_off_c, 1, 68, 0
1, 6605, Note_on_c, 1, 46, 127
1, 6665, Note_on_c, 1, 65, 127
1, 6710, Note_off_c, 1, 62, 0
1, 6710, Note_off_c, 1, 46, 0
1, 6717, Note_off_c, 1, 65, 0
1, 6725, Note_on_c, 1, 66, 127
1, 6725, Note_on_c, 1, 39, 127
1, 6725, Note_on_c, 1, 63, 127
1, 6777, Note_off_c, 1, 66, 0
1, 6785, Note_on_c, 1, 70, 127
1, 6830, Note_off_c, 1, 39, 0
1, 6837, Note_off_c, 1, 70, 0
1, 6845, Note_on_c, 1, 72, 127
1, 6845, Note_on_c, 1, 51, 127
1, 6897, Note_off_c, 1, 72, 0
1, 6905, Note_on_c, 1, 74, 127
1, 6950, Note_off_c, 1, 63, 0
1, 6957, Note_off_c, 1, 74, 0
1, 6965, Note_on_c, 1, 75, 127
1, 7017, Note_off_c, 1, 51, 0
1, 7017, Note_off_c, 1, 75, 0
1, 7025, Note_on_c, 1, 50, 127
1, 7025, Note_on_c, 1, 77, 127
1, 7077, Note_off_c, 1, 50, 0
1, 7077, Note_off_c, 1, 77, 0
1, 7085, Note_on_c, 1, 51, 127
1, 7085, Note_on_c, 1, 78, 127
1, 7085, Note_on_c, 1, 71, 127
1, 7137, Note_off_c, 1, 51, 0
1, 7137, Note_off_c, 1, 78, 0
1, 7145, Note_on_c, 1, 47, 127
1, 7145, Note_on_c, 1, 75, 127
1, 7197, Note_off_c, 1, 47, 0
1, 7197, Note_off_c, 1, 75, 0
1, 7205, Note_on_c, 1, 44, 127
1, 7205, Note_on_c, 1, 77, 127
1, 7310, Note_off_c, 1, 71, 0
1, 7310, Note_off_c, 1, 44, 0
1, 7325, Note_on_c, 1, 70, 127
1, 7325, Note_on_c, 1, 49, 127
1, 7377, Note_off_c, 1, 70, 0
1, 7385, Note_on_c, 1, 68, 127
1, 7430, Note_off_c, 1, 77, 0
1, 7437, Note_off_c, 1, 68, 0
1, 7445, Note_on_c, 1, 79, 127
1, 7497, Note_off_c, 1, 49, 0
1, 7625, Note_on_c, 1, 46, 127
1, 7670, Note_off_c, 1, 79, 0
1, 7677, Note_off_c, 1, 46, 0
1, 7685, Note_on_c, 1, 80, 127
1, 7745, Note_on_c, 1, 73, 127
1, 7790, Note_off_c, 1, 80, 0
1, 7797, Note_off_c, 1, 73, 0
1, 7805, Note_on_c, 1, 53, 127
1, 7805, Note_on_c, 1, 71, 127
1, 7805, Note_on_c, 1, 75, 127
1, 7857, Note_off_c, 1, 53, 0
1, 7857, Note_off_c, 1, 71, 0
1, 7857, Note_off_c, 1, 75, 0
1, 7865, Note_on_c, 1, 55, 127
1, 7865, Note_on_c, 1, 70, 127
1, 7865, Note_on_c, 1, 73, 127
1, 7917, Note_off_c, 1, 55, 0
1, 7917, Note_off_c, 1, 70, 0
1, 7917, Note_off_c, 1, 73, 0
1, 7925, Note_on_c, 1, 68, 127
1, 7925, Note_on_c, 1, 56, 127
1, 7925, Note_on_c, 1, 71, 127
1, 7977, Note_off_c, 1, 68, 0
1, 7985, Note_on_c, 1, 67, 127
1, 8030, Note_off_c, 1, 56, 0
1, 8030, Note_off_c, 1, 71, 0
1, 8037, Note_off_c, 1, 67, 0
1, 8045, Note_on_c, 1, 68, 127
1, 8045, Note_on_c, 1, 61, 127
1, 8045, Note_on_c, 1, 76, 127
1, 8097, Note_off_c, 1, 68, 0
1, 8105, Note_on_c, 1, 64, 127
1, 8150, Note_off_c, 1, 61, 0
1, 8157, Note_off_c, 1, 64, 0
1, 8165, Note_on_c, 1, 58, 127
1, 8270, Note_off_c, 1, 76, 0
1, 8285, Note_on_c, 1, 75, 127
1, 8285, Note_on_c, 1, 66, 127
1, 8337, Note_off_c, 1, 75, 0
1, 8345, Note_on_c, 1, 73, 127
1, 8390, Note_off_c, 1, 58, 0
1, 8397, Note_off_c, 1, 73, 0
1, 8405, Note_on_c, 1, 60, 127
1, 8457, Note_off_c, 1, 66, 0
1, 8465, Note_on_c, 1, 65, 127
1, 8517, Note_off_c, 1, 65, 0
1, 8525, Note_on_c, 1, 80, 127
1, 8585, Note_on_c, 1, 63, 127
1, 8630, Note_off_c, 1, 60, 0
1, 8637, Note_off_c, 1, 63, 0
1, 8697, Note_off_c, 1, 80, 0
1, 8705, Note_on_c, 1, 78, 127
1, 8757, Note_off_c, 1, 78, 0
1, 8765, Note_on_c, 1, 77, 127
1, 8765, Note_on_c, 1, 59, 127
1, 8765, Note_on_c, 1, 61, 127
1, 8817, Note_off_c, 1, 77, 0
1, 8825, Note_on_c, 1, 75, 127
1, 8870, Note_off_c, 1, 59, 0
1, 8870, Note_off_c, 1, 61, 0
1, 8877, Note_off_c, 1, 75, 0
1, 8885, Note_on_c, 1, 73, 127
1, 8885, Note_on_c, 1, 66, 127
1, 8885, Note_on_c, 1, 58, 127
1, 8937, Note_off_c, 1, 73, 0
1, 8945, Note_on_c, 1, 71, 127
1, 8990, Note_off_c, 1, 66, 0
1, 8997, Note_off_c, 1, 71, 0
1, 9005, Note_on_c, 1, 64, 127
1, 9065, Note_on_c, 1, 70, 127
1, 9110, Note_off_c, 1, 64, 0
1, 9117, Note_off_c, 1, 70, 0
1, 9125, Note_on_c, 1, 63, 127
1, 9230, Note_off_c, 1, 58, 0
1, 9245, Note_on_c, 1, 56, 127
1, 9297, Note_off_c, 1, 56, 0
1, 9305, Note_on_c, 1, 54, 127
1, 9350, Note_off_c, 1, 63, 0
1, 9357, Note_off_c, 1, 54, 0
1, 9365, Note_on_c, 1, 65, 127
1, 9485, Note_on_c, 1, 61, 127
1, 9545, Note_on_c, 1, 68, 127
1, 9590, Note_off_c, 1, 65, 0
1, 9590, Note_off_c, 1, 61, 0
1, 9597, Note_off_c, 1, 68, 0
1, 9605, Note_on_c, 1, 70, 127
1, 9605, Note_on_c, 1, 54, 127
1, 9605, Note_on_c, 1, 66, 127
1, 9657, Note_off_c, 1, 70, 0
1, 9665, Note_on_c, 1, 71, 127
1, 9710, Note_off_c, 1, 54, 0
1, 9710, Note_off_c, 1, 66, 0
1, 9717, Note_off_c, 1, 71, 0
1, 9725, Note_on_c, 1, 53, 127
1, 9725, Note_on_c, 1, 73, 127
1, 9777, Note_off_c, 1, 53, 0
1, 9777, Note_off_c, 1, 73, 0
1, 9785, Note_on_c, 1, 51, 127
1, 9785, Note_on_c, 1, 75, 127
1, 9837, Note_off_c, 1, 51, 0
1, 9837, Note_off_c, 1, 75, 0
1, 9845, Note_on_c, 1, 77, 127
1, 9845, Note_on_c, 1, 49, 127
1, 9845, Note_on_c, 1, 68, 127
1, 9897, Note_off_c, 1, 77, 0
1, 9905, Note_on_c, 1, 78, 127
1, 9931, Note_off_c, 1, 78, 0
1, 9950, Note_off_c, 1, 49, 0
1, 9965, Note_on_c, 1, 75, 127
1, 9965, Note_on_c, 1, 59, 127
1, 10017, Note_off_c, 1, 75, 0
1, 10070, Note_off_c, 1, 68, 0
1, 10070, Note_off_c, 1, 59, 0
1, 10085, Note_on_c, 1, 59, 127
1, 10085, Note_on_c, 1, 78, 127
1, 10085, Note_on_c, 1, 61, 127
1, 10190, Note_off_c, 1, 59, 0
1, 10190, Note_off_c, 1, 78, 0
1, 10205, Note_on_c, 1, 58, 127
1, 10250, Note_off_c, 1, 61, 0
1, 10310, Note_off_c, 1, 58, 0
1, 10325, Note_on_c, 1, 73, 127
1, 10325, Note_on_c, 1, 66, 127
1, 10430, Note_off_c, 1, 73, 0
1, 10445, Note_on_c, 1, 57, 127
1, 10445, Note_on_c, 1, 75, 127
1, 10550, Note_off_c, 1, 66, 0
1, 10550, Note_off_c, 1, 57, 0
1, 10550, Note_off_c, 1, 75, 0
1, 10565, Note_on_c, 1, 57, 127
1, 10565, Note_on_c, 1, 59, 127
1, 10565, Note_on_c, 1, 76, 127
1, 10670, Note_off_c, 1, 57, 0
1, 10685, Note_on_c, 1, 56, 127
1, 10730, Note_off_c, 1, 59, 0
1, 10730, Note_off_c, 1, 76, 0
1, 10745, Note_on_c, 1, 75, 127
1, 10771, Note_off_c, 1, 75, 0
1, 10775, Note_on_c, 1, 73, 127
1, 10790, Note_off_c, 1, 56, 0
1, 10801, Note_off_c, 1, 73, 0
1, 10805, Note_on_c, 1, 71, 127
1, 10805, Note_on_c, 1, 64, 127
1, 10857, Note_off_c, 1, 71, 0
1, 10865, Note_on_c, 1, 70, 127
1, 10917, Note_off_c, 1, 70, 0
1, 10925, Note_on_c, 1, 56, 127
1, 10977, Note_off_c, 1, 56, 0
1, 10985, Note_on_c, 1, 58, 127
1, 10985, Note_on_c, 1, 73, 127
1, 11030, Note_off_c, 1, 64, 0
1, 11037, Note_off_c, 1, 58, 0
1, 11037, Note_off_c, 1, 73, 0
1, 11045, Note_on_c, 1, 75, 127
1, 11045, Note_on_c, 1, 59, 127
1, 11045, Note_on_c, 1, 63, 127
1, 11097, Note_off_c, 1, 75, 0
1, 11105, Note_on_c, 1, 77, 127
1, 11150, Note_off_c, 1, 59, 0
1, 11157, Note_off_c, 1, 77, 0
1, 11165, Note_on_c, 1, 78, 127
1, 11165, Note_on_c, 1, 51, 127
1, 11217, Note_off_c, 1, 78, 0
1, 11270, Note_off_c, 1, 63, 0
1, 11270, Note_off_c, 1, 51, 0
1, 11285, Note_on_c, 1, 80, 127
1, 11285, Note_on_c, 1, 53, 127
1, 11285, Note_on_c, 1, 61, 127
1, 11390, Note_off_c, 1, 80, 0
1, 11405, Note_on_c, 1, 71, 127
1, 11510, Note_off_c, 1, 53, 0
1, 11510, Note_off_c, 1, 71, 0
1, 11525, Note_on_c, 1, 73, 127
1, 11525, Note_on_c, 1, 54, 127
1, 11549, Note_off_c, 1, 73, 0
1, 11577, Note_off_c, 1, 54, 0
1, 11645, Note_on_c, 1, 70, 127
1, 11705, Note_on_c, 1, 56, 127
1, 11750, Note_off_c, 1, 61, 0
1, 11750, Note_off_c, 1, 70, 0
1, 11757, Note_off_c, 1, 56, 0
1, 11765, Note_on_c, 1, 58, 127
1, 11765, Note_on_c, 1, 78, 127
1, 11817, Note_off_c, 1, 58, 0
1, 11825, Note_on_c, 1, 54, 127
1, 11870, Note_off_c, 1, 78, 0
1, 11877, Note_off_c, 1, 54, 0
1, 11885, Note_on_c, 1, 51, 127
1, 11885, Note_on_c, 1, 66, 127
1, 11885, Note_on_c, 1, 70, 127
1, 11937, Note_off_c, 1, 51, 0
1, 11945, Note_on_c, 1, 54, 127
1, 11990, Note_off_c, 1, 66, 0
1, 11990, Note_off_c, 1, 70, 0
1, 11997, Note_off_c, 1, 54, 0
1, 12005, Note_on_c, 1, 71, 127
1, 12005, Note_on_c, 1, 59, 127
1, 12005, Note_on_c, 1, 66, 127
1, 12025, Note_on_c, 1, 70, 127
1, 12039, Note_off_c, 1, 71, 0
1, 12057, Note_off_c, 1, 59, 0
1, 12059, Note_off_c, 1, 70, 0
1, 12065, Note_on_c, 1, 58, 127
1, 12110, Note_off_c, 1, 66, 0
1, 12117, Note_off_c, 1, 58, 0
1, 12125, Note_on_c, 1, 59, 127
1, 12125, Note_on_c, 1, 65, 127
1, 12125, Note_on_c, 1, 68, 127
1, 12177, Note_off_c, 1, 59, 0
1, 12185, Note_on_c, 1, 56, 127
1, 12230, Note_off_c, 1, 65, 0
1, 12230, Note_off_c, 1, 68, 0
1, 12237, Note_off_c, 1, 56, 0
1, 12245, Note_on_c, 1, 62, 127
1, 12245, Note_on_c, 1, 77, 127
1, 12297, Note_off_c, 1, 62, 0
1, 12305, Note_on_c, 1, 60, 127
1, 12350, Note_off_c, 1, 77, 0
1, 12357, Note_off_c, 1, 60, 0
1, 12365, Note_on_c, 1, 62, 127
1, 12365, Note_on_c, 1, 65, 127
1, 12365, Note_on_c, 1, 68, 127
1, 12417, Note_off_c, 1, 62, 0
1, 12425, Note_on_c, 1, 58, 127
1, 12470, Note_off_c, 1, 65, 0
1, 12470, Note_off_c, 1, 68, 0
1, 12477, Note_off_c, 1, 58, 0
1, 12485, Note_on_c, 1, 70, 127
1, 12485, Note_on_c, 1, 63, 127
1, 12485, Note_on_c, 1, 65, 127
1, 12510, Note_on_c, 1, 68, 127
1, 12524, Note_off_c, 1, 70, 0
1, 12537, Note_off_c, 1, 63, 0
1, 12545, Note_on_c, 1, 58, 127
1, 12549, Note_off_c, 1, 68, 0
1, 12590, Note_off_c, 1, 65, 0
1, 12597, Note_off_c, 1, 58, 0
1, 12605, Note_on_c, 1, 51, 127
1, 12605, Note_on_c, 1, 63, 127
1, 12605, Note_on_c, 1, 66, 127
1, 12657, Note_off_c, 1, 51, 0
1, 12665, Note_on_c, 1, 50, 127
1, 12710, Note_off_c, 1, 63, 0
1, 12710, Note_off_c, 1, 66, 0
1, 12717, Note_off_c, 1, 50, 0
1, 12725, Note_on_c, 1, 51, 127
1, 12725, Note_on_c, 1, 71, 127
1, 12777, Note_off_c, 1, 51, 0
1, 12785, Note_on_c, 1, 47, 127
1, 12830, Note_off_c, 1, 71, 0
1, 12837, Note_off_c, 1, 47, 0
1, 12845, Note_on_c, 1, 44, 127
1, 12845, Note_on_c, 1, 63, 127
1, 12845, Note_on_c, 1, 71, 127
1, 12897, Note_off_c, 1, 44, 0
1, 12905, Note_on_c, 1, 47, 127
1, 12950, Note_off_c, 1, 63, 0
1, 12950, Note_off_c, 1, 71, 0
1, 12957, Note_off_c, 1, 47, 0
1, 12965, Note_on_c, 1, 52, 127
1, 12965, Note_on_c, 1, 63, 127
1, 12965, Note_on_c, 1, 71, 127
1, 13017, Note_off_c, 1, 52, 0
1, 13025, Note_on_c, 1, 51, 127
1, 13070, Note_off_c, 1, 63, 0
1, 13070, Note_off_c, 1, 71, 0
1, 13077, Note_off_c, 1, 51, 0
1, 13085, Note_on_c, 1, 52, 127
1, 13085, Note_on_c, 1, 61, 127
1, 13085, Note_on_c, 1, 70, 127
1, 13137, Note_off_c, 1, 52, 0
1, 13145, Note_on_c, 1, 49, 127
1, 13190, Note_off_c, 1, 61, 0
1, 13190, Note_off_c, 1, 70, 0
1, 13197, Note_off_c, 1, 49, 0
1, 13205, Note_on_c, 1, 55, 127
1, 13205, Note_on_c, 1, 70, 127
1, 13257, Note_off_c, 1, 55, 0
1, 13265, Note_on_c, 1, 53, 127
1, 13310, Note_off_c, 1, 70, 0
1, 13317, Note_off_c, 1, 53, 0
1, 13325, Note_on_c, 1, 55, 127
1, 13325, Note_on_c, 1, 61, 127
1, 13325, Note_on_c, 1, 70, 127
1, 13377, Note_off_c, 1, 55, 0
1, 13385, Note_on_c, 1, 51, 127
1, 13430, Note_off_c, 1, 61, 0
1, 13430, Note_off_c, 1, 70, 0
1, 13437, Note_off_c, 1, 51, 0
1, 13445, Note_on_c, 1, 56, 127
1, 13445, Note_on_c, 1, 61, 127
1, 13445, Note_on_c, 1, 70, 127
1, 13497, Note_off_c, 1, 56, 0
1, 13505, Note_on_c, 1, 55, 127
1, 13550, Note_off_c, 1, 61, 0
1, 13550, Note_off_c, 1, 70, 0
1, 13557, Note_off_c, 1, 55, 0
1, 13565, Note_on_c, 1, 56, 127
1, 13565, Note_on_c, 1, 60, 127
1, 13565, Note_on_c, 1, 68, 127
1, 13617, Note_off_c, 1, 56, 0
1, 13625, Note_on_c, 1, 58, 127
1, 13670, Note_off_c, 1, 60, 0
1, 13670, Note_off_c, 1, 68, 0
1, 13677, Note_off_c, 1, 58, 0
1, 13685, Note_on_c, 1, 60, 127
1, 13685, Note_on_c, 1, 80, 127
1, 13737, Note_off_c, 1, 60, 0
1, 13745, Note_on_c, 1, 58, 127
1, 13790, Note_off_c, 1, 80, 0
1, 13797, Note_off_c, 1, 58, 0
1, 13805, Note_on_c, 1, 60, 127
1, 13805, Note_on_c, 1, 68, 127
1, 13805, Note_on_c, 1, 72, 127
1, 13857, Note_off_c, 1, 60, 0
1, 13865, Note_on_c, 1, 56, 127
1, 13910, Note_off_c, 1, 68, 0
1, 13910, Note_off_c, 1, 72, 0
1, 13917, Note_off_c, 1, 56, 0
1, 13925, Note_on_c, 1, 73, 127
1, 13925, Note_on_c, 1, 61, 127
1, 13925, Note_on_c, 1, 68, 127
1, 13950, Note_on_c, 1, 72, 127
1, 13959, Note_off_c, 1, 73, 0
1, 13977, Note_off_c, 1, 61, 0
1, 13984, Note_off_c, 1, 72, 0
1, 13985, Note_on_c, 1, 60, 127
1, 14030, Note_off_c, 1, 68, 0
1, 14037, Note_off_c, 1, 60, 0
1, 14045, Note_on_c, 1, 61, 127
1, 14045, Note_on_c, 1, 67, 127
1, 14045, Note_on_c, 1, 70, 127
1, 14097, Note_off_c, 1, 61, 0
1, 14105, Note_on_c, 1, 58, 127
1, 14150, Note_off_c, 1, 67, 0
1, 14150, Note_off_c, 1, 70, 0
1, 14157, Note_off_c, 1, 58, 0
1, 14165, Note_on_c, 1, 64, 127
1, 14165, Note_on_c, 1, 79, 127
1, 14217, Note_off_c, 1, 64, 0
1, 14225, Note_on_c, 1, 62, 127
1, 14270, Note_off_c, 1, 79, 0
1, 14277, Note_off_c, 1, 62, 0
1, 14285, Note_on_c, 1, 64, 127
1, 14285, Note_on_c, 1, 67, 127
1, 14285, Note_on_c, 1, 70, 127
1, 14337, Note_off_c, 1, 64, 0
1, 14345, Note_on_c, 1, 60, 127
1, 14390, Note_off_c, 1, 67, 0
1, 14390, Note_off_c, 1, 70, 0
1, 14397, Note_off_c, 1, 60, 0
1, 14405, Note_on_c, 1, 72, 127
1, 14405, Note_on_c, 1, 65, 127
1, 14405, Note_on_c, 1, 67, 127
1, 14420, Note_on_c, 1, 70, 127
1, 14439, Note_off_c, 1, 72, 0
1, 14454, Note_off_c, 1, 70, 0
1, 14457, Note_off_c, 1, 65, 0
1, 14465, Note_on_c, 1, 60, 127
1, 14510, Note_off_c, 1, 67, 0
1, 14517, Note_off_c, 1, 60, 0
1, 14525, Note_on_c, 1, 53, 127
1, 14525, Note_on_c, 1, 65, 127
1, 14525, Note_on_c, 1, 68, 127
1, 14577, Note_off_c, 1, 53, 0
1, 14585, Note_on_c, 1, 52, 127
1, 14630, Note_off_c, 1, 65, 0
1, 14630, Note_off_c, 1, 68, 0
1, 14637, Note_off_c, 1, 52, 0
1, 14645, Note_on_c, 1, 53, 127
1, 14645, Note_on_c, 1, 73, 127
1, 14697, Note_off_c, 1, 53, 0
1, 14705, Note_on_c, 1, 49, 127
1, 14750, Note_off_c, 1, 73, 0
1, 14757, Note_off_c, 1, 49, 0
1, 14765, Note_on_c, 1, 46, 127
1, 14765, Note_on_c, 1, 65, 127
1, 14765, Note_on_c, 1, 73, 127
1, 14817, Note_off_c, 1, 46, 0
1, 14825, Note_on_c, 1, 49, 127
1, 14870, Note_off_c, 1, 65, 0
1, 14870, Note_off_c, 1, 73, 0
1, 14877, Note_off_c, 1, 49, 0
1, 14885, Note_on_c, 1, 54, 127
1, 14885, Note_on_c, 1, 65, 127
1, 14885, Note_on_c, 1, 73, 127
1, 14937, Note_off_c, 1, 54, 0
1, 14945, Note_on_c, 1, 53, 127
1, 14990, Note_off_c, 1, 65, 0
1, 14990, Note_off_c, 1, 73, 0
1, 14997, Note_off_c, 1, 53, 0
1, 15005, Note_on_c, 1, 54, 127
1, 15005, Note_on_c, 1, 63, 127
1, 15057, Note_off_c, 1, 54, 0
1, 15065, Note_on_c, 1, 51, 127
1, 15110, Note_off_c, 1, 63, 0
1, 15117, Note_off_c, 1, 51, 0
1, 15125, Note_on_c, 1, 57, 127
1, 15125, Note_on_c, 1, 72, 127
1, 15177, Note_off_c, 1, 57, 0
1, 15185, Note_on_c, 1, 55, 127
1, 15230, Note_off_c, 1, 72, 0
1, 15237, Note_off_c, 1, 55, 0
1, 15245, Note_on_c, 1, 57, 127
1, 15245, Note_on_c, 1, 63, 127
1, 15245, Note_on_c, 1, 72, 127
1, 15297, Note_off_c, 1, 57, 0
1, 15305, Note_on_c, 1, 53, 127
1, 15350, Note_off_c, 1, 63, 0
1, 15350, Note_off_c, 1, 72, 0
1, 15357, Note_off_c, 1, 53, 0
1, 15365, Note_on_c, 1, 58, 127
1, 15365, Note_on_c, 1, 63, 127
1, 15365, Note_on_c, 1, 72, 127
1, 15417, Note_off_c, 1, 58, 0
1, 15425, Note_on_c, 1, 57, 127
1, 15470, Note_off_c, 1, 63, 0
1, 15470, Note_off_c, 1, 72, 0
1, 15477, Note_off_c, 1, 57, 0
1, 15485, Note_on_c, 1, 58, 127
1, 15485, Note_on_c, 1, 61, 127
1, 15485, Note_on_c, 1, 70, 127
1, 15537, Note_off_c, 1, 58, 0
1, 15545, Note_on_c, 1, 60, 127
1, 15590, Note_off_c, 1, 61, 0
1, 15590, Note_off_c, 1, 70, 0
1, 15597, Note_off_c, 1, 60, 0
1, 15605, Note_on_c, 1, 75, 127
1, 15605, Note_on_c, 1, 60, 127
1, 15657, Note_off_c, 1, 75, 0
1, 15665, Note_on_c, 1, 73, 127
1, 15669, Note_off_c, 1, 60, 0
1, 15670, Note_on_c, 1, 61, 127
1, 15699, Note_off_c, 1, 61, 0
1, 15717, Note_off_c, 1, 73, 0
1, 15725, Note_on_c, 1, 66, 127
1, 15785, Note_on_c, 1, 58, 127
1, 15811, Note_off_c, 1, 58, 0
1, 15830, Note_off_c, 1, 66, 0
1, 15845, Note_on_c, 1, 61, 127
1, 15845, Note_on_c, 1, 66, 127
1, 15845, Note_on_c, 1, 68, 127
1, 15950, Note_off_c, 1, 61, 0
1, 15950, Note_off_c, 1, 66, 0
1, 15965, Note_on_c, 1, 65, 127
1, 16010, Note_off_c, 1, 68, 0
1, 16025, Note_on_c, 1, 70, 127
1, 16070, Note_off_c, 1, 65, 0
1, 16077, Note_off_c, 1, 70, 0
1, 16085, Note_on_c, 1, 56, 127
1, 16085, Note_on_c, 1, 71, 127
1, 16190, Note_off_c, 1, 56, 0
1, 16190, Note_off_c, 1, 71, 0
1, 16205, Note_on_c, 1, 58, 127
1, 16205, Note_on_c, 1, 64, 127
1, 16205, Note_on_c, 1, 73, 127
1, 16310, Note_off_c, 1, 58, 0
1, 16310, Note_off_c, 1, 64, 0
1, 16310, Note_off_c, 1, 73, 0
1, 16325, Note_on_c, 1, 64, 127
1, 16325, Note_on_c, 1, 59, 127
1, 16325, Note_on_c, 1, 66, 127
1, 16430, Note_off_c, 1, 64, 0
1, 16445, Note_on_c, 1, 63, 127
1, 16490, Note_off_c, 1, 59, 0
1, 16490, Note_off_c, 1, 66, 0
1, 16505, Note_on_c, 1, 58, 127
1, 16505, Note_on_c, 1, 68, 127
1, 16531, Note_off_c, 1, 58, 0
1, 16535, Note_on_c, 1, 56, 127
1, 16550, Note_off_c, 1, 63, 0
1, 16557, Note_off_c, 1, 68, 0
1, 16561, Note_off_c, 1, 56, 0
1, 16565, Note_on_c, 1, 54, 127
1, 16565, Note_on_c, 1, 70, 127
1, 16617, Note_off_c, 1, 54, 0
1, 16617, Note_off_c, 1, 70, 0
1, 16625, Note_on_c, 1, 53, 127
1, 16625, Note_on_c, 1, 68, 127
1, 16677, Note_off_c, 1, 53, 0
1, 16677, Note_off_c, 1, 68, 0
1, 16685, Note_on_c, 1, 54, 127
1, 16685, Note_on_c, 1, 70, 127
1, 16685, Note_on_c, 1, 63, 127
1, 16737, Note_off_c, 1, 54, 0
1, 16737, Note_off_c, 1, 70, 0
1, 16745, Note_on_c, 1, 56, 127
1, 16745, Note_on_c, 1, 72, 127
1, 16790, Note_off_c, 1, 63, 0
1, 16797, Note_off_c, 1, 56, 0
1, 16797, Note_off_c, 1, 72, 0
1, 16805, Note_on_c, 1, 58, 127
1, 16805, Note_on_c, 1, 61, 127
1, 16805, Note_on_c, 1, 73, 127
1, 16857, Note_off_c, 1, 58, 0
1, 16865, Note_on_c, 1, 60, 127
1, 16910, Note_off_c, 1, 61, 0
1, 16910, Note_off_c, 1, 73, 0
1, 16917, Note_off_c, 1, 60, 0
1, 16925, Note_on_c, 1, 61, 127
1, 16925, Note_on_c, 1, 70, 127
1, 16925, Note_on_c, 1, 66, 127
1, 16977, Note_off_c, 1, 61, 0
1, 16985, Note_on_c, 1, 58, 127
1, 17030, Note_off_c, 1, 70, 0
1, 17037, Note_off_c, 1, 58, 0
1, 17045, Note_on_c, 1, 63, 127
1, 17045, Note_on_c, 1, 72, 127
1, 17150, Note_off_c, 1, 66, 0
1, 17150, Note_off_c, 1, 63, 0
1, 17165, Note_on_c, 1, 65, 127
1, 17165, Note_on_c, 1, 54, 127
1, 17217, Note_off_c, 1, 65, 0
1, 17270, Note_off_c, 1, 72, 0
1, 17270, Note_off_c, 1, 54, 0
1, 17285, Note_on_c, 1, 68, 127
1, 17285, Note_on_c, 1, 54, 127
1, 17285, Note_on_c, 1, 73, 127
1, 17337, Note_off_c, 1, 68, 0
1, 17345, Note_on_c, 1, 66, 127
1, 17390, Note_off_c, 1, 54, 0
1, 17390, Note_off_c, 1, 73, 0
1, 17397, Note_off_c, 1, 66, 0
1, 17405, Note_on_c, 1, 53, 127
1, 17405, Note_on_c, 1, 68, 127
1, 17457, Note_off_c, 1, 53, 0
1, 17457, Note_off_c, 1, 68, 0
1, 17465, Note_on_c, 1, 51, 127
1, 17465, Note_on_c, 1, 71, 127
1, 17517, Note_off_c, 1, 51, 0
1, 17517, Note_off_c, 1, 71, 0
1, 17525, Note_on_c, 1, 49, 127
1, 17525, Note_on_c, 1, 65, 127
1, 17577, Note_off_c, 1, 49, 0
1, 17584, Note_off_c, 1, 65, 0
1, 17585, Note_on_c, 1, 66, 127
1, 17585, Note_on_c, 1, 53, 127
1, 17614, Note_off_c, 1, 66, 0
1, 17615, Note_on_c, 1, 65, 127
1, 17637, Note_off_c, 1, 53, 0
1, 17644, Note_off_c, 1, 65, 0
1, 17645, Note_on_c, 1, 66, 127
1, 17645, Note_on_c, 1, 56, 127
1, 17674, Note_off_c, 1, 66, 0
1, 17675, Note_on_c, 1, 65, 127
1, 17697, Note_off_c, 1, 56, 0
1, 17704, Note_off_c, 1, 65, 0
1, 17705, Note_on_c, 1, 63, 127
1, 17705, Note_on_c, 1, 59, 127
1, 17731, Note_off_c, 1, 63, 0
1, 17735, Note_on_c, 1, 65, 127
1, 17757, Note_off_c, 1, 59, 0
1, 17761, Note_off_c, 1, 65, 0
1, 17765, Note_on_c, 1, 59, 127
1, 17765, Note_on_c, 1, 66, 127
1, 17870, Note_off_c, 1, 59, 0
1, 17870, Note_off_c, 1, 66, 0
1, 17885, Note_on_c, 1, 73, 127
1, 17885, Note_on_c, 1, 58, 127
1, 17937, Note_off_c, 1, 73, 0
1, 17945, Note_on_c, 1, 75, 127
1, 17990, Note_off_c, 1, 58, 0
1, 17997, Note_off_c, 1, 75, 0
1, 18005, Note_on_c, 1, 76, 127
1, 18005, Note_on_c, 1, 61, 127
1, 18057, Note_off_c, 1, 76, 0
1, 18065, Note_on_c, 1, 75, 127
1, 18110, Note_off_c, 1, 61, 0
1, 18117, Note_off_c, 1, 75, 0
1, 18125, Note_on_c, 1, 78, 127
1, 18125, Note_on_c, 1, 57, 127
1, 18125, Note_on_c, 1, 63, 127
1, 18177, Note_off_c, 1, 78, 0
1, 18185, Note_on_c, 1, 73, 127
1, 18230, Note_off_c, 1, 57, 0
1, 18230, Note_off_c, 1, 63, 0
1, 18237, Note_off_c, 1, 73, 0
1, 18245, Note_on_c, 1, 71, 127
1, 18245, Note_on_c, 1, 57, 127
1, 18245, Note_on_c, 1, 64, 127
1, 18297, Note_off_c, 1, 71, 0
1, 18305, Note_on_c, 1, 70, 127
1, 18350, Note_off_c, 1, 57, 0
1, 18357, Note_off_c, 1, 70, 0
1, 18365, Note_on_c, 1, 56, 127
1, 18410, Note_off_c, 1, 64, 0
1, 18425, Note_on_c, 1, 63, 127
1, 18425, Note_on_c, 1, 73, 127
1, 18451, Note_off_c, 1, 63, 0
1, 18455, Note_on_c, 1, 61, 127
1, 18470, Note_off_c, 1, 56, 0
1, 18477, Note_off_c, 1, 73, 0
1, 18481, Note_off_c, 1, 61, 0
1, 18485, Note_on_c, 1, 59, 127
1, 18485, Note_on_c, 1, 75, 127
1, 18537, Note_off_c, 1, 59, 0
1, 18537, Note_off_c, 1, 75, 0
1, 18545, Note_on_c, 1, 58, 127
1, 18545, Note_on_c, 1, 73, 127
1, 18597, Note_off_c, 1, 58, 0
1, 18597, Note_off_c, 1, 73, 0
1, 18605, Note_on_c, 1, 56, 127
1, 18605, Note_on_c, 1, 59, 127
1, 18605, Note_on_c, 1, 76, 127
1, 18657, Note_off_c, 1, 56, 0
1, 18657, Note_off_c, 1, 59, 0
1, 18657, Note_off_c, 1, 76, 0
1, 18665, Note_on_c, 1, 58, 127
1, 18665, Note_on_c, 1, 61, 127
1, 18665, Note_on_c, 1, 68, 127
1, 18717, Note_off_c, 1, 58, 0
1, 18717, Note_off_c, 1, 61, 0
1, 18717, Note_off_c, 1, 68, 0
1, 18725, Note_on_c, 1, 63, 127
1, 18725, Note_on_c, 1, 59, 127
1, 18725, Note_on_c, 1, 66, 127
1, 18777, Note_off_c, 1, 63, 0
1, 18785, Note_on_c, 1, 65, 127
1, 18830, Note_off_c, 1, 59, 0
1, 18830, Note_off_c, 1, 66, 0
1, 18837, Note_off_c, 1, 65, 0
1, 18845, Note_on_c, 1, 66, 127
1, 18845, Note_on_c, 1, 51, 127
1, 18845, Note_on_c, 1, 71, 127
1, 18897, Note_off_c, 1, 66, 0
1, 18905, Note_on_c, 1, 63, 127
1, 18950, Note_off_c, 1, 51, 0
1, 18957, Note_off_c, 1, 63, 0
1, 18965, Note_on_c, 1, 68, 127
1, 18965, Note_on_c, 1, 53, 127
1, 19017, Note_off_c, 1, 71, 0
1, 19025, Note_on_c, 1, 70, 127
1, 19070, Note_off_c, 1, 68, 0
1, 19077, Note_off_c, 1, 70, 0
1, 19085, Note_on_c, 1, 59, 127
1, 19145, Note_on_c, 1, 80, 127
1, 19190, Note_off_c, 1, 53, 0
1, 19190, Note_off_c, 1, 59, 0
1, 19197, Note_off_c, 1, 80, 0
1, 19205, Note_on_c, 1, 61, 127
1, 19205, Note_on_c, 1, 73, 127
1, 19205, Note_on_c, 1, 54, 127
1, 19225, Note_on_c, 1, 59, 127
1, 19239, Note_off_c, 1, 61, 0
1, 19257, Note_off_c, 1, 73, 0
1, 19259, Note_off_c, 1, 59, 0
1, 19265, Note_on_c, 1, 77, 127
1, 19317, Note_off_c, 1, 77, 0
1, 19325, Note_on_c, 1, 78, 127
1, 19325, Note_on_c, 1, 58, 127
1, 19370, Note_off_c, 1, 54, 0
1, 19377, Note_off_c, 1, 78, 0
1, 19385, Note_on_c, 1, 82, 127
1, 19430, Note_off_c, 1, 58, 0
1, 19437, Note_off_c, 1, 82, 0
1, 19445, Note_on_c, 1, 53, 127
1, 19445, Note_on_c, 1, 74, 127
1, 19497, Note_off_c, 1, 53, 0
1, 19500, Note_on_c, 1, 75, 127
1, 19504, Note_off_c, 1, 74, 0
1, 19505, Note_on_c, 1, 51, 127
1, 19534, Note_off_c, 1, 75, 0
1, 19557, Note_off_c, 1, 51, 0
1, 19565, Note_on_c, 1, 68, 127
1, 19625, Note_on_c, 1, 72, 127
1, 19625, Note_on_c, 1, 46, 127
1, 19651, Note_off_c, 1, 72, 0
1, 19670, Note_off_c, 1, 68, 0
1, 19677, Note_off_c, 1, 46, 0
1, 19685, Note_on_c, 1, 51, 127
1, 19685, Note_on_c, 1, 68, 127
1, 19685, Note_on_c, 1, 75, 127
1, 19737, Note_off_c, 1, 51, 0
1, 19745, Note_on_c, 1, 50, 127
1, 19790, Note_off_c, 1, 68, 0
1, 19797, Note_off_c, 1, 50, 0
1, 19805, Note_on_c, 1, 67, 127
1, 19865, Note_on_c, 1, 53, 127
1, 19910, Note_off_c, 1, 75, 0
1, 19910, Note_off_c, 1, 67, 0
1, 19917, Note_off_c, 1, 53, 0
1, 19925, Note_on_c, 1, 54, 127
1, 19925, Note_on_c, 1, 70, 127
1, 19977, Note_off_c, 1, 54, 0
1, 19985, Note_on_c, 1, 51, 127
1, 20030, Note_off_c, 1, 70, 0
1, 20037, Note_off_c, 1, 51, 0
1, 20045, Note_on_c, 1, 45, 127
1, 20045, Note_on_c, 1, 66, 127
1, 20045, Note_on_c, 1, 72, 127
1, 20097, Note_off_c, 1, 45, 0
1, 20105, Note_on_c, 1, 57, 127
1, 20150, Note_off_c, 1, 66, 0
1, 20150, Note_off_c, 1, 72, 0
1, 20157, Note_off_c, 1, 57, 0
1, 20165, Note_on_c, 1, 58, 127
1, 20165, Note_on_c, 1, 66, 127
1, 20165, Note_on_c, 1, 73, 127
1, 20217, Note_off_c, 1, 58, 0
1, 20225, Note_on_c, 1, 57, 127
1, 20270, Note_off_c, 1, 66, 0
1, 20277, Note_off_c, 1, 57, 0
1, 20285, Note_on_c, 1, 65, 127
1, 20330, Note_off_c, 1, 73, 0
1, 20345, Note_on_c, 1, 72, 127
1, 20345, Note_on_c, 1, 60, 127
1, 20371, Note_off_c, 1, 72, 0
1, 20375, Note_on_c, 1, 70, 127
1, 20390, Note_off_c, 1, 65, 0
1, 20397, Note_off_c, 1, 60, 0
1, 20401, Note_off_c, 1, 70, 0
1, 20405, Note_on_c, 1, 68, 127
1, 20405, Note_on_c, 1, 61, 127
1, 20457, Note_off_c, 1, 68, 0
1, 20465, Note_on_c, 1, 67, 127
1, 20517, Note_off_c, 1, 67, 0
1, 20525, Note_on_c, 1, 65, 127
1, 20570, Note_off_c, 1, 61, 0
1, 20577, Note_off_c, 1, 65, 0
1, 20585, Note_on_c, 1, 59, 127
1, 20585, Note_on_c, 1, 67, 127
1, 20585, Note_on_c, 1, 70, 127
1, 20611, Note_off_c, 1, 59, 0
1, 20615, Note_on_c, 1, 58, 127
1, 20637, Note_off_c, 1, 67, 0
1, 20637, Note_off_c, 1, 70, 0
1, 20641, Note_off_c, 1, 58, 0
1, 20645, Note_on_c, 1, 72, 127
1, 20645, Note_on_c, 1, 68, 127
1, 20645, Note_on_c, 1, 56, 127
1, 20697, Note_off_c, 1, 72, 0
1, 20705, Note_on_c, 1, 74, 127
1, 20750, Note_off_c, 1, 68, 0
1, 20757, Note_off_c, 1, 74, 0
1, 20765, Note_on_c, 1, 75, 127
1, 20765, Note_on_c, 1, 60, 127
1, 20810, Note_off_c, 1, 56, 0
1, 20817, Note_off_c, 1, 75, 0
1, 20825, Note_on_c, 1, 54, 127
1, 20870, Note_off_c, 1, 60, 0
1, 20877, Note_off_c, 1, 54, 0
1, 20885, Note_on_c, 1, 53, 127
1, 20885, Note_on_c, 1, 77, 127
1, 20885, Note_on_c, 1, 62, 127
1, 20937, Note_off_c, 1, 53, 0
1, 20945, Note_on_c, 1, 51, 127
1, 20990, Note_off_c, 1, 77, 0
1, 20997, Note_off_c, 1, 51, 0
1, 21005, Note_on_c, 1, 68, 127
1, 21065, Note_on_c, 1, 58, 127
1, 21110, Note_off_c, 1, 62, 0
1, 21110, Note_off_c, 1, 68, 0
1, 21117, Note_off_c, 1, 58, 0
1, 21125, Note_on_c, 1, 70, 127
1, 21125, Note_on_c, 1, 63, 127
1, 21125, Note_on_c, 1, 51, 127
1, 21145, Note_on_c, 1, 68, 127
1, 21154, Note_off_c, 1, 70, 0
1, 21174, Note_off_c, 1, 68, 0
1, 21177, Note_off_c, 1, 63, 0
1, 21185, Note_on_c, 1, 58, 127
1, 21237, Note_off_c, 1, 58, 0
1, 21245, Note_on_c, 1, 60, 127
1, 21245, Note_on_c, 1, 66, 127
1, 21297, Note_off_c, 1, 60, 0
1, 21297, Note_off_c, 1, 66, 0
1, 21305, Note_on_c, 1, 62, 127
1, 21305, Note_on_c, 1, 65, 127
1, 21350, Note_off_c, 1, 51, 0
1, 21357, Note_off_c, 1, 62, 0
1, 21357, Note_off_c, 1, 65, 0
1, 21365, Note_on_c, 1, 63, 127
1, 21365, Note_on_c, 1, 66, 127
1, 21417, Note_off_c, 1, 63, 0
1, 21425, Note_on_c, 1, 62, 127
1, 21470, Note_off_c, 1, 66, 0
1, 21477, Note_off_c, 1, 62, 0
1, 21485, Note_on_c, 1, 63, 127
1, 21485, Note_on_c, 1, 47, 127
1, 21485, Note_on_c, 1, 68, 127
1, 21537, Note_off_c, 1, 63, 0
1, 21545, Note_on_c, 1, 59, 127
1, 21590, Note_off_c, 1, 47, 0
1, 21590, Note_off_c, 1, 68, 0
1, 21597, Note_off_c, 1, 59, 0
1, 21605, Note_on_c, 1, 56, 127
1, 21605, Note_on_c, 1, 65, 127
1, 21710, Note_off_c, 1, 56, 0
1, 21725, Note_on_c, 1, 46, 127
1, 21725, Note_on_c, 1, 61, 127
1, 21777, Note_off_c, 1, 46, 0
1, 21785, Note_on_c, 1, 44, 127
1, 21830, Note_off_c, 1, 65, 0
1, 21837, Note_off_c, 1, 44, 0
1, 21845, Note_on_c, 1, 67, 127
1, 21897, Note_off_c, 1, 61, 0
1, 21905, Note_on_c, 1, 59, 127
1, 21957, Note_off_c, 1, 59, 0
1, 21965, Note_on_c, 1, 39, 127
1, 22025, Note_on_c, 1, 58, 127
1, 22070, Note_off_c, 1, 67, 0
1, 22070, Note_off_c, 1, 39, 0
1, 22077, Note_off_c, 1, 58, 0
1, 22085, Note_on_c, 1, 59, 127
1, 22085, Note_on_c, 1, 44, 127
1, 22085, Note_on_c, 1, 68, 127
1, 22137, Note_off_c, 1, 59, 0
1, 22145, Note_on_c, 1, 63, 127
1, 22190, Note_off_c, 1, 44, 0
1, 22197, Note_off_c, 1, 63, 0
1, 22205, Note_on_c, 1, 65, 127
1, 22205, Note_on_c, 1, 56, 127
1, 22257, Note_off_c, 1, 65, 0
1, 22265, Note_on_c, 1, 67, 127
1, 22310, Note_off_c, 1, 68, 0
1, 22317, Note_off_c, 1, 67, 0
1, 22377, Note_off_c, 1, 56, 0
1, 22385, Note_on_c, 1, 55, 127
1, 22385, Note_on_c, 1, 70, 127
1, 22437, Note_off_c, 1, 55, 0
1, 22437, Note_off_c, 1, 70, 0
1, 22445, Note_on_c, 1, 56, 127
1, 22445, Note_on_c, 1, 71, 127
1, 22445, Note_on_c, 1, 76, 127
1, 22497, Note_off_c, 1, 56, 0
1, 22497, Note_off_c, 1, 71, 0
1, 22505, Note_on_c, 1, 52, 127
1, 22505, Note_on_c, 1, 68, 127
1, 22557, Note_off_c, 1, 52, 0
1, 22557, Note_off_c, 1, 68, 0
1, 22565, Note_on_c, 1, 49, 127
1, 22565, Note_on_c, 1, 70, 127
1, 22670, Note_off_c, 1, 76, 0
1, 22670, Note_off_c, 1, 49, 0
1, 22685, Note_on_c, 1, 75, 127
1, 22685, Note_on_c, 1, 54, 127
1, 22737, Note_off_c, 1, 75, 0
1, 22745, Note_on_c, 1, 73, 127
1, 22790, Note_off_c, 1, 70, 0
1, 22797, Note_off_c, 1, 73, 0
1, 22805, Note_on_c, 1, 72, 127
1, 22857, Note_off_c, 1, 54, 0
1, 22865, Note_on_c, 1, 53, 127
1, 22917, Note_off_c, 1, 53, 0
1, 22925, Note_on_c, 1, 80, 127
1, 22985, Note_on_c, 1, 51, 127
1, 23030, Note_off_c, 1, 72, 0
1, 23037, Note_off_c, 1, 51, 0
1, 23097, Note_off_c, 1, 80, 0
1, 23105, Note_on_c, 1, 78, 127
1, 23157, Note_off_c, 1, 78, 0
1, 23165, Note_on_c, 1, 58, 127
1, 23165, Note_on_c, 1, 68, 127
1, 23165, Note_on_c, 1, 77, 127
1, 23217, Note_off_c, 1, 58, 0
1, 23217, Note_off_c, 1, 68, 0
1, 23217, Note_off_c, 1, 77, 0
1, 23225, Note_on_c, 1, 60, 127
1, 23225, Note_on_c, 1, 66, 127
1, 23225, Note_on_c, 1, 75, 127
1, 23277, Note_off_c, 1, 60, 0
1, 23277, Note_off_c, 1, 66, 0
1, 23277, Note_off_c, 1, 75, 0
1, 23285, Note_on_c, 1, 73, 127
1, 23285, Note_on_c, 1, 65, 127
1, 23285, Note_on_c, 1, 61, 127
1, 23337, Note_off_c, 1, 73, 0
1, 23345, Note_on_c, 1, 72, 127
1, 23390, Note_off_c, 1, 65, 0
1, 23397, Note_off_c, 1, 72, 0
1, 23405, Note_on_c, 1, 70, 127
1, 23465, Note_on_c, 1, 77, 127
1, 23510, Note_off_c, 1, 61, 0
1, 23517, Note_off_c, 1, 77, 0
1, 23525, Note_on_c, 1, 78, 127
1, 23525, Note_on_c, 1, 63, 127
1, 23577, Note_off_c, 1, 78, 0
1, 23585, Note_on_c, 1, 71, 127
1, 23630, Note_off_c, 1, 70, 0
1, 23637, Note_off_c, 1, 71, 0
1, 23645, Note_on_c, 1, 68, 127
1, 23645, Note_on_c, 1, 83, 127
1, 23697, Note_off_c, 1, 68, 0
1, 23705, Note_on_c, 1, 66, 127
1, 23750, Note_off_c, 1, 63, 0
1, 23757, Note_off_c, 1, 66, 0
1, 23817, Note_off_c, 1, 83, 0
1, 23825, Note_on_c, 1, 82, 127
1, 23877, Note_off_c, 1, 82, 0
1, 23945, Note_on_c, 1, 80, 127
1, 23997, Note_off_c, 1, 80, 0
1, 24125, Note_on_c, 1, 70, 127
1, 24125, Note_on_c, 1, 64, 127
1, 24125, Note_on_c, 1, 78, 127
1, 24177, Note_off_c, 1, 70, 0
1, 24185, Note_on_c, 1, 68, 127
1, 24230, Note_off_c, 1, 64, 0
1, 24230, Note_off_c, 1, 78, 0
1, 24237, Note_off_c, 1, 68, 0
1, 24245, Note_on_c, 1, 66, 127
1, 24245, Note_on_c, 1, 83, 127
1, 24245, Note_on_c, 1, 63, 127
1, 24297, Note_off_c, 1, 66, 0
1, 24305, Note_on_c, 1, 64, 127
1, 24357, Note_off_c, 1, 64, 0
1, 24410, Note_off_c, 1, 83, 0
1, 24425, Note_on_c, 1, 70, 127
1, 24425, Note_on_c, 1, 78, 127
1, 24477, Note_off_c, 1, 70, 0
1, 24477, Note_off_c, 1, 78, 0
1, 24485, Note_on_c, 1, 71, 127
1, 24485, Note_on_c, 1, 80, 127
1, 24537, Note_off_c, 1, 71, 0
1, 24590, Note_off_c, 1, 63, 0
1, 24605, Note_on_c, 1, 61, 127
1, 24605, Note_on_c, 1, 76, 127
1, 24657, Note_off_c, 1, 61, 0
1, 24665, Note_on_c, 1, 59, 127
1, 24710, Note_off_c, 1, 80, 0
1, 24717, Note_off_c, 1, 59, 0
1, 24725, Note_on_c, 1, 82, 127
1, 24777, Note_off_c, 1, 76, 0
1, 24785, Note_on_c, 1, 75, 127
1, 24837, Note_off_c, 1, 75, 0
1, 24845, Note_on_c, 1, 54, 127
1, 24905, Note_on_c, 1, 73, 127
1, 24950, Note_off_c, 1, 82, 0
1, 24950, Note_off_c, 1, 54, 0
1, 24957, Note_off_c, 1, 73, 0
1, 24965, Note_on_c, 1, 75, 127
1, 24965, Note_on_c, 1, 83, 127
1, 24965, Note_on_c, 1, 59, 127
1, 25017, Note_off_c, 1, 75, 0
1, 25025, Note_on_c, 1, 71, 127
1, 25070, Note_off_c, 1, 83, 0
1, 25077, Note_off_c, 1, 71, 0
1, 25085, Note_on_c, 1, 66, 127
1, 25137, Note_off_c, 1, 66, 0
1, 25145, Note_on_c, 1, 68, 127
1, 25190, Note_off_c, 1, 59, 0
1, 25197, Note_off_c, 1, 68, 0
1, 25205, Note_on_c, 1, 73, 127
1, 25205, Note_on_c, 1, 70, 127
1, 25257, Note_off_c, 1, 73, 0
1, 25264, Note_off_c, 1, 70, 0
1, 25265, Note_on_c, 1, 71, 127
1, 25265, Note_on_c, 1, 75, 127
1, 25294, Note_off_c, 1, 71, 0
1, 25295, Note_on_c, 1, 70, 127
1, 25317, Note_off_c, 1, 75, 0
1, 25324, Note_off_c, 1, 70, 0
1, 25325, Note_on_c, 1, 71, 127
1, 25325, Note_on_c, 1, 76, 127
1, 25354, Note_off_c, 1, 71, 0
1, 25355, Note_on_c, 1, 70, 127
1, 25384, Note_off_c, 1, 70, 0
1, 25385, Note_on_c, 1, 68, 127
1, 25411, Note_off_c, 1, 68, 0
1, 25430, Note_off_c, 1, 76, 0
1, 25445, Note_on_c, 1, 71, 127
1, 25445, Note_on_c, 1, 76, 127
1, 25505, Note_on_c, 1, 58, 127
1, 25550, Note_off_c, 1, 71, 0
1, 25550, Note_off_c, 1, 76, 0
1, 25557, Note_off_c, 1, 58, 0
1, 25565, Note_on_c, 1, 59, 127
1, 25565, Note_on_c, 1, 75, 127
1, 25617, Note_off_c, 1, 59, 0
1, 25625, Note_on_c, 1, 61, 127
1, 25670, Note_off_c, 1, 75, 0
1, 25677, Note_off_c, 1, 61, 0
1, 25685, Note_on_c, 1, 63, 127
1, 25685, Note_on_c, 1, 66, 127
1, 25737, Note_off_c, 1, 63, 0
1, 25745, Note_on_c, 1, 59, 127
1, 25790, Note_off_c, 1, 66, 0
1, 25797, Note_off_c, 1, 59, 0
1, 25805, Note_on_c, 1, 53, 127
1, 25805, Note_on_c, 1, 68, 127
1, 25805, Note_on_c, 1, 74, 127
1, 25857, Note_off_c, 1, 53, 0
1, 25865, Note_on_c, 1, 65, 127
1, 25910, Note_off_c, 1, 68, 0
1, 25910, Note_off_c, 1, 74, 0
1, 25917, Note_off_c, 1, 65, 0
1, 25925, Note_on_c, 1, 66, 127
1, 25925, Note_on_c, 1, 74, 127
1, 25925, Note_on_c, 1, 69, 127
1, 25977, Note_off_c, 1, 66, 0
1, 25985, Note_on_c, 1, 53, 127
1, 26030, Note_off_c, 1, 74, 0
1, 26037, Note_off_c, 1, 53, 0
1, 26045, Note_on_c, 1, 54, 127
1, 26045, Note_on_c, 1, 73, 127
1, 26090, Note_off_c, 1, 69, 0
1, 26097, Note_off_c, 1, 54, 0
1, 26105, Note_on_c, 1, 68, 127
1, 26105, Note_on_c, 1, 56, 127
1, 26131, Note_off_c, 1, 68, 0
1, 26150, Note_off_c, 1, 73, 0
1, 26157, Note_off_c, 1, 56, 0
1, 26165, Note_on_c, 1, 64, 127
1, 26165, Note_on_c, 1, 57, 127
1, 26217, Note_off_c, 1, 64, 0
1, 26225, Note_on_c, 1, 63, 127
1, 26277, Note_off_c, 1, 63, 0
1, 26285, Note_on_c, 1, 73, 127
1, 26330, Note_off_c, 1, 57, 0
1, 26337, Note_off_c, 1, 73, 0
1, 26345, Note_on_c, 1, 56, 127
1, 26345, Note_on_c, 1, 66, 127
1, 26345, Note_on_c, 1, 75, 127
1, 26371, Note_off_c, 1, 56, 0
1, 26375, Note_on_c, 1, 54, 127
1, 26397, Note_off_c, 1, 66, 0
1, 26397, Note_off_c, 1, 75, 0
1, 26401, Note_off_c, 1, 54, 0
1, 26405, Note_on_c, 1, 68, 127
1, 26405, Note_on_c, 1, 61, 127
1, 26405, Note_on_c, 1, 76, 127
1, 26457, Note_off_c, 1, 68, 0
1, 26465, Note_on_c, 1, 70, 127
1, 26510, Note_off_c, 1, 61, 0
1, 26517, Note_off_c, 1, 70, 0
1, 26525, Note_on_c, 1, 71, 127
1, 26525, Note_on_c, 1, 56, 127
1, 26577, Note_off_c, 1, 71, 0
1, 26630, Note_off_c, 1, 56, 0
1, 26645, Note_on_c, 1, 58, 127
1, 26645, Note_on_c, 1, 73, 127
1, 26697, Note_off_c, 1, 76, 0
1, 26750, Note_off_c, 1, 58, 0
1, 26750, Note_off_c, 1, 73, 0
1, 26765, Note_on_c, 1, 70, 127
1, 26765, Note_on_c, 1, 54, 127
1, 26765, Note_on_c, 1, 64, 127
1, 26817, Note_off_c, 1, 70, 0
1, 26825, Note_on_c, 1, 73, 127
1, 26870, Note_off_c, 1, 54, 0
1, 26870, Note_off_c, 1, 64, 0
1, 26885, Note_on_c, 1, 59, 127
1, 26937, Note_off_c, 1, 73, 0
1, 26945, Note_on_c, 1, 66, 127
1, 26990, Note_off_c, 1, 59, 0
1, 26997, Note_off_c, 1, 66, 0
1, 27005, Note_on_c, 1, 47, 127
1, 27005, Note_on_c, 1, 71, 127
1, 27005, Note_on_c, 1, 63, 127
1, 27057, Note_off_c, 1, 47, 0
1, 27057, Note_off_c, 1, 71, 0
1, 27065, Note_on_c, 1, 49, 127
1, 27065, Note_on_c, 1, 70, 127
1, 27110, Note_off_c, 1, 63, 0
1, 27117, Note_off_c, 1, 49, 0
1, 27117, Note_off_c, 1, 70, 0
1, 27125, Note_on_c, 1, 51, 127
1, 27125, Note_on_c, 1, 71, 127
1, 27177, Note_off_c, 1, 51, 0
1, 27185, Note_on_c, 1, 47, 127
1, 27230, Note_off_c, 1, 71, 0
1, 27237, Note_off_c, 1, 47, 0
1, 27245, Note_on_c, 1, 44, 127
1, 27245, Note_on_c, 1, 63, 127
1, 27245, Note_on_c, 1, 71, 127
1, 27297, Note_off_c, 1, 44, 0
1, 27305, Note_on_c, 1, 47, 127
1, 27350, Note_off_c, 1, 63, 0
1, 27350, Note_off_c, 1, 71, 0
1, 27357, Note_off_c, 1, 47, 0
1, 27365, Note_on_c, 1, 52, 127
1, 27365, Note_on_c, 1, 63, 127
1, 27365, Note_on_c, 1, 71, 127
1, 27417, Note_off_c, 1, 52, 0
1, 27425, Note_on_c, 1, 51, 127
1, 27470, Note_off_c, 1, 63, 0
1, 27470, Note_off_c, 1, 71, 0
1, 27477, Note_off_c, 1, 51, 0
1, 27485, Note_on_c, 1, 52, 127
1, 27485, Note_on_c, 1, 61, 127
1, 27485, Note_on_c, 1, 70, 127
1, 27537, Note_off_c, 1, 52, 0
1, 27545, Note_on_c, 1, 49, 127
1, 27590, Note_off_c, 1, 61, 0
1, 27590, Note_off_c, 1, 70, 0
1, 27597, Note_off_c, 1, 49, 0
1, 27605, Note_on_c, 1, 55, 127
1, 27605, Note_on_c, 1, 70, 127
1, 27657, Note_off_c, 1, 55, 0
1, 27665, Note_on_c, 1, 53, 127
1, 27710, Note_off_c, 1, 70, 0
1, 27717, Note_off_c, 1, 53, 0
1, 27725, Note_on_c, 1, 55, 127
1, 27725, Note_on_c, 1, 61, 127
1, 27725, Note_on_c, 1, 70, 127
1, 27777, Note_off_c, 1, 55, 0
1, 27785, Note_on_c, 1, 51, 127
1, 27830, Note_off_c, 1, 61, 0
1, 27830, Note_off_c, 1, 70, 0
1, 27837, Note_off_c, 1, 51, 0
1, 27845, Note_on_c, 1, 56, 127
1, 27845, Note_on_c, 1, 61, 127
1, 27845, Note_on_c, 1, 70, 127
1, 27897, Note_off_c, 1, 56, 0
1, 27905, Note_on_c, 1, 55, 127
1, 27950, Note_off_c, 1, 61, 0
1, 27950, Note_off_c, 1, 70, 0
1, 27957, Note_off_c, 1, 55, 0
1, 27965, Note_on_c, 1, 56, 127
1, 27965, Note_on_c, 1, 59, 127
1, 27965, Note_on_c, 1, 68, 127
1, 28017, Note_off_c, 1, 56, 0
1, 28025, Note_on_c, 1, 55, 127
1, 28070, Note_off_c, 1, 59, 0
1, 28070, Note_off_c, 1, 68, 0
1, 28077, Note_off_c, 1, 55, 0
1, 28085, Note_on_c, 1, 56, 127
1, 28085, Note_on_c, 1, 76, 127
1, 28137, Note_off_c, 1, 56, 0
1, 28145, Note_on_c, 1, 52, 127
1, 28190, Note_off_c, 1, 76, 0
1, 28197, Note_off_c, 1, 52, 0
1, 28205, Note_on_c, 1, 49, 127
1, 28205, Note_on_c, 1, 64, 127
1, 28205, Note_on_c, 1, 68, 127
1, 28257, Note_off_c, 1, 49, 0
1, 28265, Note_on_c, 1, 52, 127
1, 28310, Note_off_c, 1, 64, 0
1, 28310, Note_off_c, 1, 68, 0
1, 28317, Note_off_c, 1, 52, 0
1, 28325, Note_on_c, 1, 57, 127
1, 28325, Note_on_c, 1, 64, 127
1, 28325, Note_on_c, 1, 68, 127
1, 28377, Note_off_c, 1, 57, 0
1, 28385, Note_on_c, 1, 56, 127
1, 28430, Note_off_c, 1, 64, 0
1, 28430, Note_off_c, 1, 68, 0
1, 28437, Note_off_c, 1, 56, 0
1, 28445, Note_on_c, 1, 57, 127
1, 28445, Note_on_c, 1, 63, 127
1, 28445, Note_on_c, 1, 66, 127
1, 28497, Note_off_c, 1, 57, 0
1, 28505, Note_on_c, 1, 54, 127
1, 28550, Note_off_c, 1, 63, 0
1, 28550, Note_off_c, 1, 66, 0
1, 28557, Note_off_c, 1, 54, 0
1, 28565, Note_on_c, 1, 60, 127
1, 28565, Note_on_c, 1, 75, 127
1, 28617, Note_off_c, 1, 60, 0
1, 28625, Note_on_c, 1, 58, 127
1, 28670, Note_off_c, 1, 75, 0
1, 28677, Note_off_c, 1, 58, 0
1, 28685, Note_on_c, 1, 60, 127
1, 28685, Note_on_c, 1, 63, 127
1, 28685, Note_on_c, 1, 66, 127
1, 28737, Note_off_c, 1, 60, 0
1, 28745, Note_on_c, 1, 56, 127
1, 28790, Note_off_c, 1, 63, 0
1, 28790, Note_off_c, 1, 66, 0
1, 28797, Note_off_c, 1, 56, 0
1, 28805, Note_on_c, 1, 61, 127
1, 28805, Note_on_c, 1, 63, 127
1, 28805, Note_on_c, 1, 66, 127
1, 28857, Note_off_c, 1, 61, 0
1, 28865, Note_on_c, 1, 56, 127
1, 28910, Note_off_c, 1, 63, 0
1, 28910, Note_off_c, 1, 66, 0
1, 28917, Note_off_c, 1, 56, 0
1, 28925, Note_on_c, 1, 49, 127
1, 28925, Note_on_c, 1, 61, 127
1, 28925, Note_on_c, 1, 65, 127
1, 28977, Note_off_c, 1, 49, 0
1, 28985, Note_on_c, 1, 51, 127
1, 29030, Note_off_c, 1, 61, 0
1, 29030, Note_off_c, 1, 65, 0
1, 29037, Note_off_c, 1, 51, 0
1, 29045, Note_on_c, 1, 53, 127
1, 29045, Note_on_c, 1, 73, 127
1, 29097, Note_off_c, 1, 53, 0
1, 29105, Note_on_c, 1, 49, 127
1, 29150, Note_off_c, 1, 73, 0
1, 29157, Note_off_c, 1, 49, 0
1, 29165, Note_on_c, 1, 46, 127
1, 29165, Note_on_c, 1, 65, 127
1, 29165, Note_on_c, 1, 73, 127
1, 29217, Note_off_c, 1, 46, 0
1, 29225, Note_on_c, 1, 49, 127
1, 29270, Note_off_c, 1, 65, 0
1, 29270, Note_off_c, 1, 73, 0
1, 29277, Note_off_c, 1, 49, 0
1, 29285, Note_on_c, 1, 54, 127
1, 29285, Note_on_c, 1, 65, 127
1, 29285, Note_on_c, 1, 73, 127
1, 29337, Note_off_c, 1, 54, 0
1, 29345, Note_on_c, 1, 53, 127
1, 29390, Note_off_c, 1, 65, 0
1, 29390, Note_off_c, 1, 73, 0
1, 29397, Note_off_c, 1, 53, 0
1, 29405, Note_on_c, 1, 54, 127
1, 29405, Note_on_c, 1, 63, 127
1, 29405, Note_on_c, 1, 72, 127
1, 29457, Note_off_c, 1, 54, 0
1, 29465, Note_on_c, 1, 51, 127
1, 29510, Note_off_c, 1, 63, 0
1, 29510, Note_off_c, 1, 72, 0
1, 29517, Note_off_c, 1, 51, 0
1, 29525, Note_on_c, 1, 57, 127
1, 29525, Note_on_c, 1, 72, 127
1, 29577, Note_off_c, 1, 57, 0
1, 29585, Note_on_c, 1, 55, 127
1, 29630, Note_off_c, 1, 72, 0
1, 29637, Note_off_c, 1, 55, 0
1, 29645, Note_on_c, 1, 57, 127
1, 29645, Note_on_c, 1, 63, 127
1, 29645, Note_on_c, 1, 72, 127
1, 29697, Note_off_c, 1, 57, 0
1, 29705, Note_on_c, 1, 53, 127
1, 29750, Note_off_c, 1, 63, 0
1, 29750, Note_off_c, 1, 72, 0
1, 29757, Note_off_c, 1, 53, 0
1, 29765, Note_on_c, 1, 58, 127
1, 29765, Note_on_c, 1, 63, 127
1, 29765, Note_on_c, 1, 72, 127
1, 29817, Note_off_c, 1, 58, 0
1, 29825, Note_on_c, 1, 57, 127
1, 29870, Note_off_c, 1, 63, 0
1, 29870, Note_off_c, 1, 72, 0
1, 29877, Note_off_c, 1, 57, 0
1, 29885, Note_on_c, 1, 58, 127
1, 29885, Note_on_c, 1, 61, 127
1, 29885, Note_on_c, 1, 70, 127
1, 29937, Note_off_c, 1, 58, 0
1, 29945, Note_on_c, 1, 57, 127
1, 29990, Note_off_c, 1, 61, 0
1, 29990, Note_off_c, 1, 70, 0
1, 29997, Note_off_c, 1, 57, 0
1, 30005, Note_on_c, 1, 58, 127
1, 30005, Note_on_c, 1, 78, 127
1, 30057, Note_off_c, 1, 58, 0
1, 30065, Note_on_c, 1, 54, 127
1, 30110, Note_off_c, 1, 78, 0
1, 30117, Note_off_c, 1, 54, 0
1, 30125, Note_on_c, 1, 51, 127
1, 30125, Note_on_c, 1, 66, 127
1, 30125, Note_on_c, 1, 70, 127
1, 30177, Note_off_c, 1, 51, 0
1, 30185, Note_on_c, 1, 54, 127
1, 30230, Note_off_c, 1, 66, 0
1, 30230, Note_off_c, 1, 70, 0
1, 30237, Note_off_c, 1, 54, 0
1, 30245, Note_on_c, 1, 59, 127
1, 30245, Note_on_c, 1, 66, 127
1, 30245, Note_on_c, 1, 70, 127
1, 30297, Note_off_c, 1, 59, 0
1, 30305, Note_on_c, 1, 58, 127
1, 30350, Note_off_c, 1, 66, 0
1, 30350, Note_off_c, 1, 70, 0
1, 30357, Note_off_c, 1, 58, 0
1, 30365, Note_on_c, 1, 59, 127
1, 30365, Note_on_c, 1, 65, 127
1, 30365, Note_on_c, 1, 68, 127
1, 30417, Note_off_c, 1, 59, 0
1, 30425, Note_on_c, 1, 56, 127
1, 30470, Note_off_c, 1, 65, 0
1, 30470, Note_off_c, 1, 68, 0
1, 30477, Note_off_c, 1, 56, 0
1, 30485, Note_on_c, 1, 62, 127
1, 30485, Note_on_c, 1, 77, 127
1, 30537, Note_off_c, 1, 62, 0
1, 30545, Note_on_c, 1, 60, 127
1, 30590, Note_off_c, 1, 77, 0
1, 30597, Note_off_c, 1, 60, 0
1, 30605, Note_on_c, 1, 62, 127
1, 30605, Note_on_c, 1, 65, 127
1, 30605, Note_on_c, 1, 68, 127
1, 30657, Note_off_c, 1, 62, 0
1, 30665, Note_on_c, 1, 58, 127
1, 30710, Note_off_c, 1, 65, 0
1, 30710, Note_off_c, 1, 68, 0
1, 30717, Note_off_c, 1, 58, 0
1, 30725, Note_on_c, 1, 63, 127
1, 30725, Note_on_c, 1, 65, 127
1, 30725, Note_on_c, 1, 68, 127
1, 30777, Note_off_c, 1, 63, 0
1, 30785, Note_on_c, 1, 58, 127
1, 30830, Note_off_c, 1, 65, 0
1, 30830, Note_off_c, 1, 68, 0
1, 30837, Note_off_c, 1, 58, 0
1, 30845, Note_on_c, 1, 51, 127
1, 30845, Note_on_c, 1, 63, 127
1, 30845, Note_on_c, 1, 66, 127
1, 30897, Note_off_c, 1, 51, 0
1, 30905, Note_on_c, 1, 53, 127
1, 30950, Note_off_c, 1, 63, 0
1, 30950, Note_off_c, 1, 66, 0
1, 30957, Note_off_c, 1, 53, 0
1, 30965, Note_on_c, 1, 68, 127
1, 30965, Note_on_c, 1, 53, 127
1, 31017, Note_off_c, 1, 68, 0
1, 31025, Note_on_c, 1, 66, 127
1, 31029, Note_off_c, 1, 53, 0
1, 31030, Note_on_c, 1, 54, 127
1, 31059, Note_off_c, 1, 54, 0
1, 31077, Note_off_c, 1, 66, 0
1, 31085, Note_on_c, 1, 71, 127
1, 31145, Note_on_c, 1, 51, 127
1, 31171, Note_off_c, 1, 51, 0
1, 31190, Note_off_c, 1, 71, 0
1, 31205, Note_on_c, 1, 54, 127
1, 31205, Note_on_c, 1, 71, 127
1, 31205, Note_on_c, 1, 61, 127
1, 31310, Note_off_c, 1, 54, 0
1, 31310, Note_off_c, 1, 71, 0
1, 31325, Note_on_c, 1, 70, 127
1, 31370, Note_off_c, 1, 61, 0
1, 31385, Note_on_c, 1, 63, 127
1, 31430, Note_off_c, 1, 70, 0
1, 31437, Note_off_c, 1, 63, 0
1, 31445, Note_on_c, 1, 49, 127
1, 31445, Note_on_c, 1, 64, 127
1, 31550, Note_off_c, 1, 49, 0
1, 31550, Note_off_c, 1, 64, 0
1, 31565, Note_on_c, 1, 51, 127
1, 31565, Note_on_c, 1, 66, 127
1, 31565, Note_on_c, 1, 69, 127
1, 31670, Note_off_c, 1, 51, 0
1, 31670, Note_off_c, 1, 66, 0
1, 31670, Note_off_c, 1, 69, 0
1, 31685, Note_on_c, 1, 69, 127
1, 31685, Note_on_c, 1, 52, 127
1, 31685, Note_on_c, 1, 59, 127
1, 31790, Note_off_c, 1, 69, 0
1, 31805, Note_on_c, 1, 68, 127
1, 31850, Note_off_c, 1, 52, 0
1, 31850, Note_off_c, 1, 59, 0
1, 31865, Note_on_c, 1, 51, 127
1, 31865, Note_on_c, 1, 61, 127
1, 31891, Note_off_c, 1, 51, 0
1, 31895, Note_on_c, 1, 49, 127
1, 31910, Note_off_c, 1, 68, 0
1, 31917, Note_off_c, 1, 61, 0
1, 31921, Note_off_c, 1, 49, 0
1, 31925, Note_on_c, 1, 47, 127
1, 31925, Note_on_c, 1, 63, 127
1, 31977, Note_off_c, 1, 47, 0
1, 31977, Note_off_c, 1, 63, 0
1, 31985, Note_on_c, 1, 46, 127
1, 31985, Note_on_c, 1, 61, 127
1, 32037, Note_off_c, 1, 46, 0
1, 32037, Note_off_c, 1, 61, 0
1, 32045, Note_on_c, 1, 47, 127
1, 32045, Note_on_c, 1, 63, 127
1, 32045, Note_on_c, 1, 68, 127
1, 32097, Note_off_c, 1, 47, 0
1, 32097, Note_off_c, 1, 63, 0
1, 32105, Note_on_c, 1, 49, 127
1, 32105, Note_on_c, 1, 65, 127
1, 32150, Note_off_c, 1, 68, 0
1, 32157, Note_off_c, 1, 49, 0
1, 32157, Note_off_c, 1, 65, 0
1, 32165, Note_on_c, 1, 51, 127
1, 32165, Note_on_c, 1, 66, 127
1, 32217, Note_off_c, 1, 51, 0
1, 32225, Note_on_c, 1, 53, 127
1, 32270, Note_off_c, 1, 66, 0
1, 32277, Note_off_c, 1, 53, 0
1, 32285, Note_on_c, 1, 54, 127
1, 32285, Note_on_c, 1, 63, 127
1, 32285, Note_on_c, 1, 71, 127
1, 32337, Note_off_c, 1, 54, 0
1, 32345, Note_on_c, 1, 51, 127
1, 32390, Note_off_c, 1, 63, 0
1, 32397, Note_off_c, 1, 51, 0
1, 32405, Note_on_c, 1, 56, 127
1, 32405, Note_on_c, 1, 65, 127
1, 32510, Note_off_c, 1, 71, 0
1, 32510, Note_off_c, 1, 56, 0
1, 32525, Note_on_c, 1, 70, 127
1, 32525, Note_on_c, 1, 47, 127
1, 32577, Note_off_c, 1, 70, 0
1, 32585, Note_on_c, 1, 68, 127
1, 32630, Note_off_c, 1, 65, 0
1, 32630, Note_off_c, 1, 47, 0
1, 32637, Note_off_c, 1, 68, 0
1, 32645, Note_on_c, 1, 66, 127
1, 32645, Note_on_c, 1, 47, 127
1, 32705, Note_on_c, 1, 65, 127
1, 32750, Note_off_c, 1, 66, 0
1, 32750, Note_off_c, 1, 47, 0
1, 32757, Note_off_c, 1, 65, 0
1, 32765, Note_on_c, 1, 66, 127
1, 32765, Note_on_c, 1, 46, 127
1, 32817, Note_off_c, 1, 66, 0
1, 32825, Note_on_c, 1, 70, 127
1, 32870, Note_off_c, 1, 46, 0
1, 32877, Note_off_c, 1, 70, 0
1, 32885, Note_on_c, 1, 73, 127
1, 32885, Note_on_c, 1, 58, 127
1, 32937, Note_off_c, 1, 73, 0
1, 32945, Note_on_c, 1, 70, 127
1, 32990, Note_off_c, 1, 58, 0
1, 32997, Note_off_c, 1, 70, 0
1, 33005, Note_on_c, 1, 66, 127
1, 33005, Note_on_c, 1, 49, 127
1, 33057, Note_off_c, 1, 66, 0
1, 33065, Note_on_c, 1, 64, 127
1, 33110, Note_off_c, 1, 49, 0
1, 33117, Note_off_c, 1, 64, 0
1, 33125, Note_on_c, 1, 63, 127
1, 33125, Note_on_c, 1, 49, 127
1, 33177, Note_off_c, 1, 63, 0
1, 33185, Note_on_c, 1, 61, 127
1, 33230, Note_off_c, 1, 49, 0
1, 33237, Note_off_c, 1, 61, 0
1, 33245, Note_on_c, 1, 63, 127
1, 33245, Note_on_c, 1, 47, 127
1, 33297, Note_off_c, 1, 63, 0
1, 33305, Note_on_c, 1, 66, 127
1, 33350, Note_off_c, 1, 47, 0
1, 33357, Note_off_c, 1, 66, 0
1, 33365, Note_on_c, 1, 68, 127
1, 33365, Note_on_c, 1, 59, 127
1, 33417, Note_off_c, 1, 68, 0
1, 33425, Note_on_c, 1, 70, 127
1, 33470, Note_off_c, 1, 59, 0
1, 33477, Note_off_c, 1, 70, 0
1, 33485, Note_on_c, 1, 71, 127
1, 33485, Note_on_c, 1, 51, 127
1, 33537, Note_off_c, 1, 71, 0
1, 33545, Note_on_c, 1, 66, 127
1, 33590, Note_off_c, 1, 51, 0
1, 33597, Note_off_c, 1, 66, 0
1, 33605, Note_on_c, 1, 65, 127
1, 33605, Note_on_c, 1, 51, 127
1, 33657, Note_off_c, 1, 65, 0
1, 33665, Note_on_c, 1, 63, 127
1, 33710, Note_off_c, 1, 51, 0
1, 33717, Note_off_c, 1, 63, 0
1, 33725, Note_on_c, 1, 49, 127
1, 33725, Note_on_c, 1, 65, 127
1, 33777, Note_off_c, 1, 49, 0
1, 33777, Note_off_c, 1, 65, 0
1, 33785, Note_on_c, 1, 51, 127
1, 33785, Note_on_c, 1, 68, 127
1, 33837, Note_off_c, 1, 51, 0
1, 33837, Note_off_c, 1, 68, 0
1, 33845, Note_on_c, 1, 72, 127
1, 33845, Note_on_c, 1, 51, 127
1, 33897, Note_off_c, 1, 72, 0
1, 33904, Note_off_c, 1, 51, 0
1, 33905, Note_on_c, 1, 73, 127
1, 33910, Note_on_c, 1, 53, 127
1, 33931, Note_off_c, 1, 73, 0
1, 33934, Note_off_c, 1, 53, 0
1, 33935, Note_on_c, 1, 51, 127
1, 33935, Note_on_c, 1, 72, 127
1, 33959, Note_off_c, 1, 51, 0
1, 33960, Note_on_c, 1, 53, 127
1, 33961, Note_off_c, 1, 72, 0
1, 33965, Note_on_c, 1, 70, 127
1, 33984, Note_off_c, 1, 53, 0
1, 34017, Note_off_c, 1, 70, 0
1, 34025, Note_on_c, 1, 49, 127
1, 34025, Note_on_c, 1, 72, 127
1, 34051, Note_off_c, 1, 49, 0
1, 34055, Note_on_c, 1, 51, 127
1, 34077, Note_off_c, 1, 72, 0
1, 34081, Note_off_c, 1, 51, 0
1, 34085, Note_on_c, 1, 53, 127
1, 34085, Note_on_c, 1, 73, 127
1, 34137, Note_off_c, 1, 53, 0
1, 34145, Note_on_c, 1, 56, 127
1, 34190, Note_off_c, 1, 73, 0
1, 34197, Note_off_c, 1, 56, 0
1, 34205, Note_on_c, 1, 58, 127
1, 34257, Note_off_c, 1, 58, 0
1, 34265, Note_on_c, 1, 59, 127
1, 34317, Note_off_c, 1, 59, 0
1, 34325, Note_on_c, 1, 61, 127
1, 34325, Note_on_c, 1, 68, 127
1, 34377, Note_off_c, 1, 61, 0
1, 34385, Note_on_c, 1, 52, 127
1, 34430, Note_off_c, 1, 68, 0
1, 34437, Note_off_c, 1, 52, 0
1, 34445, Note_on_c, 1, 51, 127
1, 34445, Note_on_c, 1, 70, 127
1, 34497, Note_off_c, 1, 51, 0
1, 34505, Note_on_c, 1, 49, 127
1, 34550, Note_off_c, 1, 70, 0
1, 34557, Note_off_c, 1, 49, 0
1, 34565, Note_on_c, 1, 51, 127
1, 34565, Note_on_c, 1, 71, 127
1, 34617, Note_off_c, 1, 51, 0
1, 34625, Note_on_c, 1, 54, 127
1, 34677, Note_off_c, 1, 54, 0
1, 34685, Note_on_c, 1, 56, 127
1, 34730, Note_off_c, 1, 71, 0
1, 34737, Note_off_c, 1, 56, 0
1, 34745, Note_on_c, 1, 70, 127
1, 34745, Note_on_c, 1, 58, 127
1, 34771, Note_off_c, 1, 70, 0
1, 34775, Note_on_c, 1, 68, 127
1, 34797, Note_off_c, 1, 58, 0
1, 34801, Note_off_c, 1, 68, 0
1, 34805, Note_on_c, 1, 59, 127
1, 34805, Note_on_c, 1, 66, 127
1, 34857, Note_off_c, 1, 59, 0
1, 34857, Note_off_c, 1, 66, 0
1, 34865, Note_on_c, 1, 61, 127
1, 34865, Note_on_c, 1, 65, 127
1, 34891, Note_off_c, 1, 61, 0
1, 34895, Note_on_c, 1, 59, 127
1, 34917, Note_off_c, 1, 65, 0
1, 34921, Note_off_c, 1, 59, 0
1, 34925, Note_on_c, 1, 58, 127
1, 34925, Note_on_c, 1, 66, 127
1, 34977, Note_off_c, 1, 58, 0
1, 34977, Note_off_c, 1, 66, 0
1, 34985, Note_on_c, 1, 59, 127
1, 34985, Note_on_c, 1, 68, 127
1, 35037, Note_off_c, 1, 59, 0
1, 35037, Note_off_c, 1, 68, 0
1, 35045, Note_on_c, 1, 61, 127
1, 35045, Note_on_c, 1, 70, 127
1, 35097, Note_off_c, 1, 61, 0
1, 35097, Note_off_c, 1, 70, 0
1, 35105, Note_on_c, 1, 63, 127
1, 35105, Note_on_c, 1, 72, 127
1, 35157, Note_off_c, 1, 63, 0
1, 35157, Note_off_c, 1, 72, 0
1, 35165, Note_on_c, 1, 65, 127
1, 35165, Note_on_c, 1, 73, 127
1, 35217, Note_off_c, 1, 65, 0
1, 35217, Note_off_c, 1, 73, 0
1, 35225, Note_on_c, 1, 66, 127
1, 35225, Note_on_c, 1, 70, 127
1, 35277, Note_off_c, 1, 66, 0
1, 35277, Note_off_c, 1, 70, 0
1, 35285, Note_on_c, 1, 65, 127
1, 35285, Note_on_c, 1, 75, 127
1, 35337, Note_off_c, 1, 65, 0
1, 35345, Note_on_c, 1, 63, 127
1, 35390, Note_off_c, 1, 75, 0
1, 35397, Note_off_c, 1, 63, 0
1, 35405, Note_on_c, 1, 61, 127
1, 35405, Note_on_c, 1, 66, 127
1, 35457, Note_off_c, 1, 61, 0
1, 35465, Note_on_c, 1, 60, 127
1, 35510, Note_off_c, 1, 66, 0
1, 35517, Note_off_c, 1, 60, 0
1, 35525, Note_on_c, 1, 68, 127
1, 35525, Note_on_c, 1, 61, 127
1, 35540, Note_on_c, 1, 66, 127
1, 35549, Note_off_c, 1, 68, 0
1, 35564, Note_off_c, 1, 66, 0
1, 35577, Note_off_c, 1, 61, 0
1, 35585, Note_on_c, 1, 49, 127
1, 35637, Note_off_c, 1, 49, 0
1, 35645, Note_on_c, 1, 61, 127
1, 35645, Note_on_c, 1, 65, 127
1, 35697, Note_off_c, 1, 61, 0
1, 35705, Note_on_c, 1, 59, 127
1, 35750, Note_off_c, 1, 65, 0
1, 35757, Note_off_c, 1, 59, 0
1, 35765, Note_on_c, 1, 58, 127
1, 35765, Note_on_c, 1, 73, 127
1, 35817, Note_off_c, 1, 58, 0
1, 35825, Note_on_c, 1, 59, 127
1, 35870, Note_off_c, 1, 73, 0
1, 35877, Note_off_c, 1, 59, 0
1, 35885, Note_on_c, 1, 61, 127
1, 35885, Note_on_c, 1, 64, 127
1, 35937, Note_off_c, 1, 61, 0
1, 35945, Note_on_c, 1, 58, 127
1, 35990, Note_off_c, 1, 64, 0
1, 35997, Note_off_c, 1, 58, 0
1, 36005, Note_on_c, 1, 66, 127
1, 36005, Note_on_c, 1, 59, 127
1, 36025, Note_on_c, 1, 64, 127
1, 36039, Note_off_c, 1, 66, 0
1, 36057, Note_off_c, 1, 59, 0
1, 36059, Note_off_c, 1, 64, 0
1, 36065, Note_on_c, 1, 47, 127
1, 36117, Note_off_c, 1, 47, 0
1, 36125, Note_on_c, 1, 59, 127
1, 36125, Note_on_c, 1, 63, 127
1, 36177, Note_off_c, 1, 59, 0
1, 36185, Note_on_c, 1, 58, 127
1, 36230, Note_off_c, 1, 63, 0
1, 36237, Note_off_c, 1, 58, 0
1, 36245, Note_on_c, 1, 56, 127
1, 36245, Note_on_c, 1, 71, 127
1, 36297, Note_off_c, 1, 56, 0
1, 36305, Note_on_c, 1, 58, 127
1, 36350, Note_off_c, 1, 71, 0
1, 36357, Note_off_c, 1, 58, 0
1, 36365, Note_on_c, 1, 59, 127
1, 36365, Note_on_c, 1, 63, 127
1, 36417, Note_off_c, 1, 59, 0
1, 36425, Note_on_c, 1, 56, 127
1, 36470, Note_off_c, 1, 63, 0
1, 36477, Note_off_c, 1, 56, 0
1, 36485, Note_on_c, 1, 65, 127
1, 36485, Note_on_c, 1, 53, 127
1, 36505, Note_on_c, 1, 63, 127
1, 36519, Note_off_c, 1, 65, 0
1, 36537, Note_off_c, 1, 53, 0
1, 36539, Note_off_c, 1, 63, 0
1, 36545, Note_on_c, 1, 54, 127
1, 36597, Note_off_c, 1, 54, 0
1, 36605, Note_on_c, 1, 56, 127
1, 36605, Note_on_c, 1, 61, 127
1, 36657, Note_off_c, 1, 56, 0
1, 36665, Note_on_c, 1, 53, 127
1, 36710, Note_off_c, 1, 61, 0
1, 36717, Note_off_c, 1, 53, 0
1, 36725, Note_on_c, 1, 49, 127
1, 36725, Note_on_c, 1, 77, 127
1, 36777, Note_off_c, 1, 49, 0
1, 36779, Note_off_c, 1, 77, 0
1, 36780, Note_on_c, 1, 78, 127
1, 36785, Note_on_c, 1, 53, 127
1, 36814, Note_off_c, 1, 78, 0
1, 36815, Note_on_c, 1, 77, 127
1, 36837, Note_off_c, 1, 53, 0
1, 36845, Note_on_c, 1, 56, 127
1, 36845, Note_on_c, 1, 71, 127
1, 36849, Note_off_c, 1, 77, 0
1, 36897, Note_off_c, 1, 56, 0
1, 36905, Note_on_c, 1, 75, 127
1, 36905, Note_on_c, 1, 61, 127
1, 36931, Note_off_c, 1, 75, 0
1, 36950, Note_off_c, 1, 71, 0
1, 36957, Note_off_c, 1, 61, 0
1, 36965, Note_on_c, 1, 54, 127
1, 36965, Note_on_c, 1, 71, 127
1, 36965, Note_on_c, 1, 78, 127
1, 37017, Note_off_c, 1, 54, 0
1, 37025, Note_on_c, 1, 53, 127
1, 37070, Note_off_c, 1, 71, 0
1, 37070, Note_off_c, 1, 78, 0
1, 37077, Note_off_c, 1, 53, 0
1, 37085, Note_on_c, 1, 54, 127
1, 37085, Note_on_c, 1, 70, 127
1, 37137, Note_off_c, 1, 54, 0
1, 37145, Note_on_c, 1, 56, 127
1, 37190, Note_off_c, 1, 70, 0
1, 37197, Note_off_c, 1, 56, 0
1, 37205, Note_on_c, 1, 57, 127
1, 37205, Note_on_c, 1, 73, 127
1, 37257, Note_off_c, 1, 57, 0
1, 37265, Note_on_c, 1, 54, 127
1, 37310, Note_off_c, 1, 73, 0
1, 37317, Note_off_c, 1, 54, 0
1, 37325, Note_on_c, 1, 48, 127
1, 37325, Note_on_c, 1, 69, 127
1, 37325, Note_on_c, 1, 75, 127
1, 37377, Note_off_c, 1, 48, 0
1, 37385, Note_on_c, 1, 60, 127
1, 37430, Note_off_c, 1, 69, 0
1, 37430, Note_off_c, 1, 75, 0
1, 37437, Note_off_c, 1, 60, 0
1, 37445, Note_on_c, 1, 61, 127
1, 37445, Note_on_c, 1, 69, 127
1, 37445, Note_on_c, 1, 76, 127
1, 37497, Note_off_c, 1, 61, 0
1, 37505, Note_on_c, 1, 60, 127
1, 37550, Note_off_c, 1, 69, 0
1, 37557, Note_off_c, 1, 60, 0
1, 37565, Note_on_c, 1, 68, 127
1, 37610, Note_off_c, 1, 76, 0
1, 37625, Note_on_c, 1, 75, 127
1, 37625, Note_on_c, 1, 63, 127
1, 37651, Note_off_c, 1, 75, 0
1, 37655, Note_on_c, 1, 73, 127
1, 37670, Note_off_c, 1, 68, 0
1, 37677, Note_off_c, 1, 63, 0
1, 37681, Note_off_c, 1, 73, 0
1, 37685, Note_on_c, 1, 64, 127
1, 37685, Note_on_c, 1, 71, 127
1, 37737, Note_off_c, 1, 64, 0
1, 37737, Note_off_c, 1, 71, 0
1, 37745, Note_on_c, 1, 52, 127
1, 37745, Note_on_c, 1, 70, 127
1, 37797, Note_off_c, 1, 52, 0
1, 37797, Note_off_c, 1, 70, 0
1, 37805, Note_on_c, 1, 51, 127
1, 37805, Note_on_c, 1, 68, 127
1, 37805, Note_on_c, 1, 71, 127
1, 37857, Note_off_c, 1, 51, 0
1, 37857, Note_off_c, 1, 68, 0
1, 37857, Note_off_c, 1, 71, 0
1, 37865, Note_on_c, 1, 49, 127
1, 37865, Note_on_c, 1, 70, 127
1, 37865, Note_on_c, 1, 73, 127
1, 37917, Note_off_c, 1, 49, 0
1, 37917, Note_off_c, 1, 70, 0
1, 37917, Note_off_c, 1, 73, 0
1, 37925, Note_on_c, 1, 47, 127
1, 37925, Note_on_c, 1, 75, 127
1, 37925, Note_on_c, 1, 71, 127
1, 37977, Note_off_c, 1, 47, 0
1, 37977, Note_off_c, 1, 75, 0
1, 37985, Note_on_c, 1, 49, 127
1, 37985, Note_on_c, 1, 77, 127
1, 38030, Note_off_c, 1, 71, 0
1, 38037, Note_off_c, 1, 49, 0
1, 38037, Note_off_c, 1, 77, 0
1, 38045, Note_on_c, 1, 47, 127
1, 38045, Note_on_c, 1, 78, 127
1, 38097, Note_off_c, 1, 47, 0
1, 38097, Note_off_c, 1, 78, 0
1, 38105, Note_on_c, 1, 46, 127
1, 38105, Note_on_c, 1, 75, 127
1, 38157, Note_off_c, 1, 46, 0
1, 38157, Note_off_c, 1, 75, 0
1, 38165, Note_on_c, 1, 44, 127
1, 38165, Note_on_c, 1, 80, 127
1, 38165, Note_on_c, 1, 77, 127
1, 38217, Note_off_c, 1, 44, 0
1, 38225, Note_on_c, 1, 42, 127
1, 38270, Note_off_c, 1, 80, 0
1, 38277, Note_off_c, 1, 42, 0
1, 38285, Note_on_c, 1, 71, 127
1, 38345, Note_on_c, 1, 49, 127
1, 38390, Note_off_c, 1, 77, 0
1, 38390, Note_off_c, 1, 71, 0
1, 38397, Note_off_c, 1, 49, 0
1, 38405, Note_on_c, 1, 42, 127
1, 38405, Note_on_c, 1, 71, 127
1, 38405, Note_on_c, 1, 78, 127
1, 38457, Note_off_c, 1, 42, 0
1, 38465, Note_on_c, 1, 41, 127
1, 38510, Note_off_c, 1, 71, 0
1, 38517, Note_off_c, 1, 41, 0
1, 38525, Note_on_c, 1, 70, 127
1, 38585, Note_on_c, 1, 46, 127
1, 38630, Note_off_c, 1, 78, 0
1, 38630, Note_off_c, 1, 70, 0
1, 38637, Note_off_c, 1, 46, 0
1, 38645, Note_on_c, 1, 49, 127
1, 38645, Note_on_c, 1, 82, 127
1, 38697, Note_off_c, 1, 49, 0
1, 38705, Note_on_c, 1, 46, 127
1, 38750, Note_off_c, 1, 82, 0
1, 38757, Note_off_c, 1, 46, 0
1, 38765, Note_on_c, 1, 54, 127
1, 38765, Note_on_c, 1, 70, 127
1, 38765, Note_on_c, 1, 73, 127
1, 38817, Note_off_c, 1, 54, 0
1, 38825, Note_on_c, 1, 53, 127
1, 38870, Note_off_c, 1, 70, 0
1, 38870, Note_off_c, 1, 73, 0
1, 38877, Note_off_c, 1, 53, 0
1, 38885, Note_on_c, 1, 75, 127
1, 38885, Note_on_c, 1, 51, 127
1, 38885, Note_on_c, 1, 70, 127
1, 38905, Note_on_c, 1, 73, 127
1, 38919, Note_off_c, 1, 75, 0
1, 38937, Note_off_c, 1, 51, 0
1, 38939, Note_off_c, 1, 73, 0
1, 38945, Note_on_c, 1, 49, 127
1, 38990, Note_off_c, 1, 70, 0
1, 38997, Note_off_c, 1, 49, 0
1, 39005, Note_on_c, 1, 51, 127
1, 39005, Note_on_c, 1, 71, 127
1, 39057, Note_off_c, 1, 51, 0
1, 39065, Note_on_c, 1, 54, 127
1, 39110, Note_off_c, 1, 71, 0
1, 39117, Note_off_c, 1, 54, 0
1, 39125, Note_on_c, 1, 56, 127
1, 39125, Note_on_c, 1, 83, 127
1, 39177, Note_off_c, 1, 56, 0
1, 39185, Note_on_c, 1, 51, 127
1, 39230, Note_off_c, 1, 83, 0
1, 39237, Note_off_c, 1, 51, 0
1, 39245, Note_on_c, 1, 59, 127
1, 39245, Note_on_c, 1, 71, 127
1, 39245, Note_on_c, 1, 75, 127
1, 39297, Note_off_c, 1, 59, 0
1, 39305, Note_on_c, 1, 56, 127
1, 39350, Note_off_c, 1, 71, 0
1, 39350, Note_off_c, 1, 75, 0
1, 39357, Note_off_c, 1, 56, 0
1, 39365, Note_on_c, 1, 53, 127
1, 39365, Note_on_c, 1, 72, 127
1, 39365, Note_on_c, 1, 75, 127
1, 39417, Note_off_c, 1, 53, 0
1, 39425, Note_on_c, 1, 51, 127
1, 39470, Note_off_c, 1, 72, 0
1, 39470, Note_off_c, 1, 75, 0
1, 39477, Note_off_c, 1, 51, 0
1, 39485, Note_on_c, 1, 53, 127
1, 39485, Note_on_c, 1, 73, 127
1, 39537, Note_off_c, 1, 53, 0
1, 39545, Note_on_c, 1, 56, 127
1, 39545, Note_on_c, 1, 75, 127
1, 39590, Note_off_c, 1, 73, 0
1, 39597, Note_off_c, 1, 56, 0
1, 39597, Note_off_c, 1, 75, 0
1, 39605, Note_on_c, 1, 61, 127
1, 39605, Note_on_c, 1, 77, 127
1, 39657, Note_off_c, 1, 61, 0
1, 39657, Note_off_c, 1, 77, 0
1, 39665, Note_on_c, 1, 56, 127
1, 39665, Note_on_c, 1, 78, 127
1, 39717, Note_off_c, 1, 56, 0
1, 39717, Note_off_c, 1, 78, 0
1, 39725, Note_on_c, 1, 65, 127
1, 39725, Note_on_c, 1, 80, 127
1, 39725, Note_on_c, 1, 71, 127
1, 39777, Note_off_c, 1, 65, 0
1, 39777, Note_off_c, 1, 80, 0
1, 39785, Note_on_c, 1, 61, 127
1, 39785, Note_on_c, 1, 77, 127
1, 39830, Note_off_c, 1, 71, 0
1, 39837, Note_off_c, 1, 61, 0
1, 39837, Note_off_c, 1, 77, 0
1, 39845, Note_on_c, 1, 63, 127
1, 39845, Note_on_c, 1, 70, 127
1, 39845, Note_on_c, 1, 78, 127
1, 39950, Note_off_c, 1, 63, 0
1, 39965, Note_on_c, 1, 59, 127
1, 40010, Note_off_c, 1, 70, 0
1, 40010, Note_off_c, 1, 78, 0
1, 40025, Note_on_c, 1, 71, 127
1, 40025, Note_on_c, 1, 80, 127
1, 40070, Note_off_c, 1, 59, 0
1, 40077, Note_off_c, 1, 71, 0
1, 40077, Note_off_c, 1, 80, 0
1, 40085, Note_on_c, 1, 61, 127
1, 40085, Note_on_c, 1, 68, 127
1, 40085, Note_on_c, 1, 77, 127
1, 40190, Note_off_c, 1, 61, 0
1, 40205, Note_on_c, 1, 49, 127
1, 40250, Note_off_c, 1, 68, 0
1, 40250, Note_off_c, 1, 77, 0
1, 40265, Note_on_c, 1, 70, 127
1, 40265, Note_on_c, 1, 78, 127
1, 40310, Note_off_c, 1, 49, 0
1, 40317, Note_off_c, 1, 70, 0
1, 40317, Note_off_c, 1, 78, 0
1, 40325, Note_on_c, 1, 42, 127
1, 40325, Note_on_c, 1, 70, 127
1, 40325, Note_on_c, 1, 78, 127
1, 40550, Note_off_c, 1, 42, 0
1, 40550, Note_off_c, 1, 70, 0
1, 40550, Note_off_c, 1, 78, 0
1, 40550, End_track
0, 0, End_of_file