0, 0, Header, 1, 1, 480
1, 0, Start_track
1, 0, Title_t, "Test"
1, 0, Tempo, 500000
1, 0, Instrument_name_t, "Church Organ"
1, 4, Note_on_c, 1, 58, 127
1, 34, Note_on_c, 1, 82, 127
1, 60, Note_off_c, 1, 82, 0
1, 64, Note_on_c, 1, 81, 127
1, 90, Note_off_c, 1, 81, 0
1, 94, Note_on_c, 1, 79, 127
1, 120, Note_off_c, 1, 79, 0
1, 124, Note_on_c, 1, 77, 127
1, 150, Note_off_c, 1, 77, 0
1, 154, Note_on_c, 1, 75, 127
1, 180, Note_off_c, 1, 75, 0
1, 184, Note_on_c, 1, 74, 127
1, 214, Note_on_c, 1, 70, 127
1, 240, Note_off_c, 1, 70, 0
1, 244, Note_on_c, 1, 69, 127
1, 262, Note_off_c, 1, 74, 0
1, 270, Note_off_c, 1, 69, 0
1, 274, Note_on_c, 1, 67, 127
1, 300, Note_off_c, 1, 67, 0
1, 304, Note_on_c, 1, 65, 127
1, 330, Note_off_c, 1, 65, 0
1, 334, Note_on_c, 1, 63, 127
1, 360, Note_off_c, 1, 63, 0
1, 364, Note_on_c, 1, 62, 127
1, 390, Note_off_c, 1, 58, 0
1, 416, Note_off_c, 1, 62, 0
1, 424, Note_on_c, 1, 74, 127
1, 424, Note_on_c, 1, 65, 127
1, 424, Note_on_c, 1, 56, 127
1, 450, Note_off_c, 1, 74, 0
1, 450, Note_off_c, 1, 65, 0
1, 450, Note_off_c, 1, 56, 0
1, 454, Note_on_c, 1, 75, 127
1, 454, Note_on_c, 1, 70, 127
1, 454, Note_on_c, 1, 55, 127
1, 480, Note_off_c, 1, 55, 0
1, 484, Note_on_c, 1, 53, 127
1, 506, Note_off_c, 1, 75, 0
1, 506, Note_off_c, 1, 70, 0
1, 510, Note_off_c, 1, 53, 0
1, 514, Note_on_c, 1, 79, 127
1, 514, Note_on_c, 1, 75, 127
1, 514, Note_on_c, 1, 51, 127
1, 540, Note_off_c, 1, 79, 0
1, 540, Note_off_c, 1, 75, 0
1, 540, Note_off_c, 1, 51, 0
1, 544, Note_on_c, 1, 79, 127
1, 544, Note_on_c, 1, 75, 127
1, 544, Note_on_c, 1, 58, 127
1, 570, Note_off_c, 1, 79, 0
1, 570, Note_off_c, 1, 58, 0
1, 574, Note_on_c, 1, 77, 127
1, 574, Note_on_c, 1, 57, 127
1, 600, Note_off_c, 1, 77, 0
1, 600, Note_off_c, 1, 57, 0
1, 634, Note_on_c, 1, 46, 127
1, 660, Note_off_c, 1, 75, 0
1, 664, Note_on_c, 1, 74, 127
1, 690, Note_off_c, 1, 74, 0
1, 694, Note_on_c, 1, 72, 127
1, 720, Note_off_c, 1, 72, 0
1, 750, Note_off_c, 1, 46, 0
1, 754, Note_on_c, 1, 50, 127
1, 780, Note_off_c, 1, 50, 0
1, 784, Note_on_c, 1, 70, 127
1, 784, Note_on_c, 1, 51, 127
1, 810, Note_off_c, 1, 70, 0
1, 810, Note_off_c, 1, 51, 0
1, 814, Note_on_c, 1, 69, 127
1, 814, Note_on_c, 1, 72, 127
1, 814, Note_on_c, 1, 53, 127
1, 840, Note_off_c, 1, 53, 0
1, 844, Note_on_c, 1, 55, 127
1, 866, Note_off_c, 1, 69, 0
1, 870, Note_off_c, 1, 55, 0
1, 874, Note_on_c, 1, 75, 127
1, 874, Note_on_c, 1, 57, 127
1, 892, Note_off_c, 1, 72, 0
1, 900, Note_off_c, 1, 75, 0
1, 900, Note_off_c, 1, 57, 0
1, 904, Note_on_c, 1, 74, 127
1, 904, Note_on_c, 1, 70, 127
1, 904, Note_on_c, 1, 58, 127
1, 930, Note_off_c, 1, 70, 0
1, 934, Note_on_c, 1, 62, 127
1, 960, Note_off_c, 1, 62, 0
1, 964, Note_on_c, 1, 63, 127
1, 982, Note_off_c, 1, 74, 0
1, 982, Note_off_c, 1, 58, 0
1, 990, Note_off_c, 1, 63, 0
1, 994, Note_on_c, 1, 72, 127
1, 994, Note_on_c, 1, 65, 127
1, 994, Note_on_c, 1, 57, 127
1, 1020, Note_off_c, 1, 65, 0
1, 1024, Note_on_c, 1, 67, 127
1, 1050, Note_off_c, 1, 67, 0
1, 1054, Note_on_c, 1, 69, 127
1, 1072, Note_off_c, 1, 72, 0
1, 1072, Note_off_c, 1, 57, 0
1, 1080, Note_off_c, 1, 69, 0
1, 1084, Note_on_c, 1, 70, 127
1, 1084, Note_on_c, 1, 55, 127
1, 1114, Note_on_c, 1, 72, 127
1, 1136, Note_off_c, 1, 55, 0
1, 1140, Note_off_c, 1, 72, 0
1, 1144, Note_on_c, 1, 74, 127
1, 1144, Note_on_c, 1, 53, 127
1, 1170, Note_off_c, 1, 74, 0
1, 1170, Note_off_c, 1, 53, 0
1, 1174, Note_on_c, 1, 75, 127
1, 1200, Note_off_c, 1, 75, 0
1, 1204, Note_on_c, 1, 77, 127
1, 1230, Note_off_c, 1, 77, 0
1, 1234, Note_on_c, 1, 79, 127
1, 1234, Note_on_c, 1, 51, 127
1, 1260, Note_off_c, 1, 79, 0
1, 1260, Note_off_c, 1, 51, 0
1, 1290, Note_off_c, 1, 70, 0
1, 1294, Note_on_c, 1, 69, 127
1, 1320, Note_off_c, 1, 69, 0
1, 1324, Note_on_c, 1, 67, 127
1, 1350, Note_off_c, 1, 67, 0
1, 1384, Note_on_c, 1, 57, 127
1, 1410, Note_off_c, 1, 57, 0
1, 1414, Note_on_c, 1, 60, 127
1, 1440, Note_off_c, 1, 60, 0
1, 1444, Note_on_c, 1, 65, 127
1, 1522, Note_off_c, 1, 65, 0
1, 1534, Note_on_c, 1, 72, 127
1, 1534, Note_on_c, 1, 63, 127
1, 1560, Note_off_c, 1, 72, 0
1, 1564, Note_on_c, 1, 74, 127
1, 1590, Note_off_c, 1, 74, 0
1, 1594, Note_on_c, 1, 75, 127
1, 1612, Note_off_c, 1, 63, 0
1, 1620, Note_off_c, 1, 75, 0
1, 1624, Note_on_c, 1, 77, 127
1, 1624, Note_on_c, 1, 62, 127
1, 1654, Note_on_c, 1, 65, 127
1, 1680, Note_off_c, 1, 65, 0
1, 1684, Note_on_c, 1, 67, 127
1, 1702, Note_off_c, 1, 77, 0
1, 1702, Note_off_c, 1, 62, 0
1, 1710, Note_off_c, 1, 67, 0
1, 1714, Note_on_c, 1, 75, 127
1, 1714, Note_on_c, 1, 69, 127
1, 1714, Note_on_c, 1, 60, 127
1, 1740, Note_off_c, 1, 69, 0
1, 1744, Note_on_c, 1, 70, 127
1, 1770, Note_off_c, 1, 70, 0
1, 1774, Note_on_c, 1, 72, 127
1, 1792, Note_off_c, 1, 75, 0
1, 1792, Note_off_c, 1, 60, 0
1, 1800, Note_off_c, 1, 72, 0
1, 1804, Note_on_c, 1, 74, 127
1, 1804, Note_on_c, 1, 58, 127
1, 1830, Note_off_c, 1, 58, 0
1, 1834, Note_on_c, 1, 46, 127
1, 1860, Note_off_c, 1, 46, 0
1, 1864, Note_on_c, 1, 67, 127
1, 1864, Note_on_c, 1, 48, 127
1, 1890, Note_off_c, 1, 67, 0
1, 1890, Note_off_c, 1, 48, 0
1, 1894, Note_on_c, 1, 66, 127
1, 1894, Note_on_c, 1, 50, 127
1, 1920, Note_off_c, 1, 50, 0
1, 1924, Note_on_c, 1, 52, 127
1, 1946, Note_off_c, 1, 74, 0
1, 1946, Note_off_c, 1, 66, 0
1, 1950, Note_off_c, 1, 52, 0
1, 1954, Note_on_c, 1, 72, 127
1, 1954, Note_on_c, 1, 69, 127
1, 1954, Note_on_c, 1, 54, 127
1, 1980, Note_off_c, 1, 72, 0
1, 1980, Note_off_c, 1, 54, 0
1, 1984, Note_on_c, 1, 70, 127
1, 1984, Note_on_c, 1, 55, 127
1, 2010, Note_off_c, 1, 69, 0
1, 2014, Note_on_c, 1, 62, 127
1, 2040, Note_off_c, 1, 62, 0
1, 2044, Note_on_c, 1, 66, 127
1, 2070, Note_off_c, 1, 66, 0
1, 2074, Note_on_c, 1, 67, 127
1, 2100, Note_off_c, 1, 55, 0
1, 2104, Note_on_c, 1, 58, 127
1, 2130, Note_off_c, 1, 58, 0
1, 2134, Note_on_c, 1, 50, 127
1, 2160, Note_off_c, 1, 50, 0
1, 2164, Note_on_c, 1, 52, 127
1, 2190, Note_off_c, 1, 70, 0
1, 2242, Note_off_c, 1, 52, 0
1, 2254, Note_on_c, 1, 53, 127
1, 2280, Note_off_c, 1, 67, 0
1, 2284, Note_on_c, 1, 60, 127
1, 2310, Note_off_c, 1, 60, 0
1, 2314, Note_on_c, 1, 64, 127
1, 2340, Note_off_c, 1, 64, 0
1, 2344, Note_on_c, 1, 65, 127
1, 2370, Note_off_c, 1, 53, 0
1, 2464, Note_on_c, 1, 48, 127
1, 2490, Note_off_c, 1, 48, 0
1, 2494, Note_on_c, 1, 46, 127
1, 2520, Note_off_c, 1, 46, 0
1, 2524, Note_on_c, 1, 45, 127
1, 2554, Note_on_c, 1, 77, 127
1, 2580, Note_off_c, 1, 77, 0
1, 2584, Note_on_c, 1, 76, 127
1, 2602, Note_off_c, 1, 45, 0
1, 2610, Note_off_c, 1, 76, 0
1, 2614, Note_on_c, 1, 74, 127
1, 2640, Note_off_c, 1, 74, 0
1, 2782, Note_off_c, 1, 65, 0
1, 2884, Note_on_c, 1, 60, 127
1, 2884, Note_on_c, 1, 58, 127
1, 2910, Note_off_c, 1, 60, 0
1, 2910, Note_off_c, 1, 58, 0
1, 2914, Note_on_c, 1, 64, 127
1, 2914, Note_on_c, 1, 57, 127
1, 2940, Note_off_c, 1, 64, 0
1, 2940, Note_off_c, 1, 57, 0
1, 2944, Note_on_c, 1, 67, 127
1, 2944, Note_on_c, 1, 58, 127
1, 2970, Note_off_c, 1, 67, 0
1, 2970, Note_off_c, 1, 58, 0
1, 2974, Note_on_c, 1, 70, 127
1, 2974, Note_on_c, 1, 48, 127
1, 3000, Note_off_c, 1, 70, 0
1, 3000, Note_off_c, 1, 48, 0
1, 3004, Note_on_c, 1, 69, 127
1, 3004, Note_on_c, 1, 52, 127
1, 3030, Note_off_c, 1, 69, 0
1, 3030, Note_off_c, 1, 52, 0
1, 3034, Note_on_c, 1, 70, 127
1, 3034, Note_on_c, 1, 55, 127
1, 3060, Note_off_c, 1, 70, 0
1, 3060, Note_off_c, 1, 55, 0
1, 3064, Note_on_c, 1, 60, 127
1, 3064, Note_on_c, 1, 57, 127
1, 3090, Note_off_c, 1, 60, 0
1, 3090, Note_off_c, 1, 57, 0
1, 3094, Note_on_c, 1, 64, 127
1, 3094, Note_on_c, 1, 55, 127
1, 3120, Note_off_c, 1, 64, 0
1, 3120, Note_off_c, 1, 55, 0
1, 3124, Note_on_c, 1, 65, 127
1, 3124, Note_on_c, 1, 57, 127
1, 3150, Note_off_c, 1, 65, 0
1, 3150, Note_off_c, 1, 57, 0
1, 3154, Note_on_c, 1, 69, 127
1, 3154, Note_on_c, 1, 48, 127
1, 3180, Note_off_c, 1, 69, 0
1, 3180, Note_off_c, 1, 48, 0
1, 3184, Note_on_c, 1, 67, 127
1, 3184, Note_on_c, 1, 52, 127
1, 3210, Note_off_c, 1, 67, 0
1, 3210, Note_off_c, 1, 52, 0
1, 3214, Note_on_c, 1, 69, 127
1, 3214, Note_on_c, 1, 53, 127
1, 3240, Note_off_c, 1, 69, 0
1, 3240, Note_off_c, 1, 53, 0
1, 3244, Note_on_c, 1, 58, 127
1, 3244, Note_on_c, 1, 55, 127
1, 3270, Note_off_c, 1, 58, 0
1, 3270, Note_off_c, 1, 55, 0
1, 3274, Note_on_c, 1, 62, 127
1, 3274, Note_on_c, 1, 53, 127
1, 3300, Note_off_c, 1, 62, 0
1, 3300, Note_off_c, 1, 53, 0
1, 3304, Note_on_c, 1, 64, 127
1, 3304, Note_on_c, 1, 55, 127
1, 3330, Note_off_c, 1, 64, 0
1, 3330, Note_off_c, 1, 55, 0
1, 3334, Note_on_c, 1, 67, 127
1, 3334, Note_on_c, 1, 48, 127
1, 3360, Note_off_c, 1, 67, 0
1, 3360, Note_off_c, 1, 48, 0
1, 3364, Note_on_c, 1, 65, 127
1, 3364, Note_on_c, 1, 50, 127
1, 3390, Note_off_c, 1, 65, 0
1, 3390, Note_off_c, 1, 50, 0
1, 3394, Note_on_c, 1, 67, 127
1, 3394, Note_on_c, 1, 52, 127
1, 3420, Note_off_c, 1, 67, 0
1, 3420, Note_off_c, 1, 52, 0
1, 3424, Note_on_c, 1, 58, 127
1, 3424, Note_on_c, 1, 53, 127
1, 3450, Note_off_c, 1, 58, 0
1, 3454, Note_on_c, 1, 57, 127
1, 3480, Note_off_c, 1, 57, 0
1, 3484, Note_on_c, 1, 60, 127
1, 3510, Note_off_c, 1, 60, 0
1, 3514, Note_on_c, 1, 65, 127
1, 3540, Note_off_c, 1, 53, 0
1, 3540, Note_off_c, 1, 65, 0
1, 3544, Note_on_c, 1, 69, 127
1, 3544, Note_on_c, 1, 48, 127
1, 3570, Note_off_c, 1, 69, 0
1, 3570, Note_off_c, 1, 48, 0
1, 3574, Note_on_c, 1, 72, 127
1, 3574, Note_on_c, 1, 45, 127
1, 3600, Note_off_c, 1, 72, 0
1, 3600, Note_off_c, 1, 45, 0
1, 3604, Note_on_c, 1, 75, 127
1, 3604, Note_on_c, 1, 41, 127
1, 3630, Note_off_c, 1, 75, 0
1, 3630, Note_off_c, 1, 41, 0
1, 3634, Note_on_c, 1, 74, 127
1, 3634, Note_on_c, 1, 45, 127
1, 3660, Note_off_c, 1, 74, 0
1, 3660, Note_off_c, 1, 45, 0
1, 3664, Note_on_c, 1, 75, 127
1, 3664, Note_on_c, 1, 48, 127
1, 3690, Note_off_c, 1, 75, 0
1, 3690, Note_off_c, 1, 48, 0
1, 3694, Note_on_c, 1, 65, 127
1, 3694, Note_on_c, 1, 51, 127
1, 3720, Note_off_c, 1, 65, 0
1, 3720, Note_off_c, 1, 51, 0
1, 3724, Note_on_c, 1, 69, 127
1, 3724, Note_on_c, 1, 50, 127
1, 3750, Note_off_c, 1, 69, 0
1, 3750, Note_off_c, 1, 50, 0
1, 3754, Note_on_c, 1, 72, 127
1, 3754, Note_on_c, 1, 51, 127
1, 3780, Note_off_c, 1, 72, 0
1, 3780, Note_off_c, 1, 51, 0
1, 3784, Note_on_c, 1, 74, 127
1, 3784, Note_on_c, 1, 41, 127
1, 3810, Note_off_c, 1, 74, 0
1, 3810, Note_off_c, 1, 41, 0
1, 3814, Note_on_c, 1, 72, 127
1, 3814, Note_on_c, 1, 45, 127
1, 3840, Note_off_c, 1, 72, 0
1, 3840, Note_off_c, 1, 45, 0
1, 3844, Note_on_c, 1, 74, 127
1, 3844, Note_on_c, 1, 46, 127
1, 3870, Note_off_c, 1, 74, 0
1, 3870, Note_off_c, 1, 46, 0
1, 3874, Note_on_c, 1, 65, 127
1, 3874, Note_on_c, 1, 50, 127
1, 3900, Note_off_c, 1, 65, 0
1, 3900, Note_off_c, 1, 50, 0
1, 3904, Note_on_c, 1, 69, 127
1, 3904, Note_on_c, 1, 48, 127
1, 3930, Note_off_c, 1, 69, 0
1, 3930, Note_off_c, 1, 48, 0
1, 3934, Note_on_c, 1, 70, 127
1, 3934, Note_on_c, 1, 50, 127
1, 3960, Note_off_c, 1, 70, 0
1, 3960, Note_off_c, 1, 50, 0
1, 3964, Note_on_c, 1, 72, 127
1, 3964, Note_on_c, 1, 39, 127
1, 3990, Note_off_c, 1, 72, 0
1, 3990, Note_off_c, 1, 39, 0
1, 3994, Note_on_c, 1, 70, 127
1, 3994, Note_on_c, 1, 43, 127
1, 4020, Note_off_c, 1, 70, 0
1, 4020, Note_off_c, 1, 43, 0
1, 4024, Note_on_c, 1, 72, 127
1, 4024, Note_on_c, 1, 45, 127
1, 4050, Note_off_c, 1, 72, 0
1, 4050, Note_off_c, 1, 45, 0
1, 4054, Note_on_c, 1, 63, 127
1, 4054, Note_on_c, 1, 48, 127
1, 4080, Note_off_c, 1, 63, 0
1, 4080, Note_off_c, 1, 48, 0
1, 4084, Note_on_c, 1, 67, 127
1, 4084, Note_on_c, 1, 46, 127
1, 4110, Note_off_c, 1, 67, 0
1, 4110, Note_off_c, 1, 46, 0
1, 4114, Note_on_c, 1, 69, 127
1, 4114, Note_on_c, 1, 48, 127
1, 4140, Note_off_c, 1, 69, 0
1, 4140, Note_off_c, 1, 48, 0
1, 4144, Note_on_c, 1, 69, 127
1, 4144, Note_on_c, 1, 39, 127
1, 4170, Note_off_c, 1, 69, 0
1, 4170, Note_off_c, 1, 39, 0
1, 4174, Note_on_c, 1, 70, 127
1, 4174, Note_on_c, 1, 38, 127
1, 4200, Note_off_c, 1, 70, 0
1, 4200, Note_off_c, 1, 38, 0
1, 4204, Note_on_c, 1, 65, 127
1, 4204, Note_on_c, 1, 41, 127
1, 4230, Note_off_c, 1, 65, 0
1, 4230, Note_off_c, 1, 41, 0
1, 4234, Note_on_c, 1, 62, 127
1, 4234, Note_on_c, 1, 46, 127
1, 4260, Note_off_c, 1, 46, 0
1, 4264, Note_on_c, 1, 50, 127
1, 4290, Note_off_c, 1, 50, 0
1, 4294, Note_on_c, 1, 53, 127
1, 4320, Note_off_c, 1, 53, 0
1, 4324, Note_on_c, 1, 58, 127
1, 4350, Note_off_c, 1, 62, 0
1, 4354, Note_on_c, 1, 60, 127
1, 4380, Note_off_c, 1, 60, 0
1, 4402, Note_off_c, 1, 58, 0
1, 4414, Note_on_c, 1, 57, 127
1, 4414, Note_on_c, 1, 65, 127
1, 4440, Note_off_c, 1, 57, 0
1, 4444, Note_on_c, 1, 62, 127
1, 4470, Note_off_c, 1, 62, 0
1, 4474, Note_on_c, 1, 58, 127
1, 4492, Note_off_c, 1, 65, 0
1, 4500, Note_off_c, 1, 58, 0
1, 4504, Note_on_c, 1, 55, 127
1, 4504, Note_on_c, 1, 70, 127
1, 4530, Note_off_c, 1, 55, 0
1, 4534, Note_on_c, 1, 62, 127
1, 4560, Note_off_c, 1, 62, 0
1, 4564, Note_on_c, 1, 58, 127
1, 4582, Note_off_c, 1, 70, 0
1, 4590, Note_off_c, 1, 58, 0
1, 4594, Note_on_c, 1, 55, 127
1, 4594, Note_on_c, 1, 51, 127
1, 4620, Note_off_c, 1, 55, 0
1, 4624, Note_on_c, 1, 62, 127
1, 4650, Note_off_c, 1, 62, 0
1, 4654, Note_on_c, 1, 70, 127
1, 4672, Note_off_c, 1, 51, 0
1, 4680, Note_off_c, 1, 70, 0
1, 4684, Note_on_c, 1, 60, 127
1, 4684, Note_on_c, 1, 45, 127
1, 4710, Note_off_c, 1, 60, 0
1, 4714, Note_on_c, 1, 58, 127
1, 4740, Note_off_c, 1, 58, 0
1, 4762, Note_off_c, 1, 45, 0
1, 4774, Note_on_c, 1, 55, 127
1, 4774, Note_on_c, 1, 63, 127
1, 4800, Note_off_c, 1, 55, 0
1, 4804, Note_on_c, 1, 60, 127
1, 4830, Note_off_c, 1, 60, 0
1, 4834, Note_on_c, 1, 57, 127
1, 4852, Note_off_c, 1, 63, 0
1, 4860, Note_off_c, 1, 57, 0
1, 4864, Note_on_c, 1, 54, 127
1, 4864, Note_on_c, 1, 69, 127
1, 4890, Note_off_c, 1, 54, 0
1, 4894, Note_on_c, 1, 60, 127
1, 4920, Note_off_c, 1, 60, 0
1, 4924, Note_on_c, 1, 57, 127
1, 4942, Note_off_c, 1, 69, 0
1, 4950, Note_off_c, 1, 57, 0
1, 4954, Note_on_c, 1, 54, 127
1, 4954, Note_on_c, 1, 50, 127
1, 4980, Note_off_c, 1, 54, 0
1, 4984, Note_on_c, 1, 60, 127
1, 5010, Note_off_c, 1, 60, 0
1, 5014, Note_on_c, 1, 69, 127
1, 5032, Note_off_c, 1, 50, 0
1, 5040, Note_off_c, 1, 69, 0
1, 5044, Note_on_c, 1, 58, 127
1, 5044, Note_on_c, 1, 43, 127
1, 5070, Note_off_c, 1, 58, 0
1, 5074, Note_on_c, 1, 57, 127
1, 5100, Note_off_c, 1, 57, 0
1, 5122, Note_off_c, 1, 43, 0
1, 5134, Note_on_c, 1, 62, 127
1, 5134, Note_on_c, 1, 53, 127
1, 5160, Note_off_c, 1, 53, 0
1, 5164, Note_on_c, 1, 58, 127
1, 5190, Note_off_c, 1, 58, 0
1, 5194, Note_on_c, 1, 55, 127
1, 5212, Note_off_c, 1, 62, 0
1, 5220, Note_off_c, 1, 55, 0
1, 5224, Note_on_c, 1, 67, 127
1, 5224, Note_on_c, 1, 52, 127
1, 5250, Note_off_c, 1, 52, 0
1, 5254, Note_on_c, 1, 58, 127
1, 5280, Note_off_c, 1, 58, 0
1, 5284, Note_on_c, 1, 55, 127
1, 5302, Note_off_c, 1, 67, 0
1, 5310, Note_off_c, 1, 55, 0
1, 5314, Note_on_c, 1, 48, 127
1, 5314, Note_on_c, 1, 52, 127
1, 5340, Note_off_c, 1, 52, 0
1, 5344, Note_on_c, 1, 58, 127
1, 5370, Note_off_c, 1, 58, 0
1, 5374, Note_on_c, 1, 67, 127
1, 5392, Note_off_c, 1, 48, 0
1, 5400, Note_off_c, 1, 67, 0
1, 5404, Note_on_c, 1, 41, 127
1, 5404, Note_on_c, 1, 56, 127
1, 5430, Note_off_c, 1, 56, 0
1, 5434, Note_on_c, 1, 55, 127
1, 5460, Note_off_c, 1, 55, 0
1, 5482, Note_off_c, 1, 41, 0
1, 5494, Note_on_c, 1, 60, 127
1, 5494, Note_on_c, 1, 51, 127
1, 5520, Note_off_c, 1, 51, 0
1, 5524, Note_on_c, 1, 56, 127
1, 5550, Note_off_c, 1, 56, 0
1, 5554, Note_on_c, 1, 53, 127
1, 5572, Note_off_c, 1, 60, 0
1, 5580, Note_off_c, 1, 53, 0
1, 5584, Note_on_c, 1, 65, 127
1, 5584, Note_on_c, 1, 50, 127
1, 5610, Note_off_c, 1, 50, 0
1, 5614, Note_on_c, 1, 56, 127
1, 5640, Note_off_c, 1, 56, 0
1, 5644, Note_on_c, 1, 53, 127
1, 5662, Note_off_c, 1, 65, 0
1, 5670, Note_off_c, 1, 53, 0
1, 5674, Note_on_c, 1, 46, 127
1, 5674, Note_on_c, 1, 50, 127
1, 5700, Note_off_c, 1, 50, 0
1, 5704, Note_on_c, 1, 56, 127
1, 5730, Note_off_c, 1, 56, 0
1, 5734, Note_on_c, 1, 65, 127
1, 5752, Note_off_c, 1, 46, 0
1, 5760, Note_off_c, 1, 65, 0
1, 5764, Note_on_c, 1, 39, 127
1, 5764, Note_on_c, 1, 55, 127
1, 5790, Note_off_c, 1, 55, 0
1, 5794, Note_on_c, 1, 65, 127
1, 5820, Note_off_c, 1, 65, 0
1, 5824, Note_on_c, 1, 63, 127
1, 5842, Note_off_c, 1, 39, 0
1, 5850, Note_off_c, 1, 63, 0
1, 5854, Note_on_c, 1, 63, 127
1, 5854, Note_on_c, 1, 62, 127
1, 5880, Note_off_c, 1, 62, 0
1, 5884, Note_on_c, 1, 60, 127
1, 5910, Note_off_c, 1, 60, 0
1, 5914, Note_on_c, 1, 58, 127
1, 5940, Note_off_c, 1, 58, 0
1, 5944, Note_on_c, 1, 57, 127
1, 5970, Note_off_c, 1, 63, 0
1, 5974, Note_on_c, 1, 72, 127
1, 6000, Note_off_c, 1, 72, 0
1, 6004, Note_on_c, 1, 70, 127
1, 6022, Note_off_c, 1, 57, 0
1, 6030, Note_off_c, 1, 70, 0
1, 6034, Note_on_c, 1, 69, 127
1, 6034, Note_on_c, 1, 53, 127
1, 6060, Note_off_c, 1, 69, 0
1, 6064, Note_on_c, 1, 67, 127
1, 6090, Note_off_c, 1, 67, 0
1, 6094, Note_on_c, 1, 65, 127
1, 6112, Note_off_c, 1, 53, 0
1, 6120, Note_off_c, 1, 65, 0
1, 6124, Note_on_c, 1, 63, 127
1, 6124, Note_on_c, 1, 46, 127
1, 6154, Note_on_c, 1, 60, 127
1, 6176, Note_off_c, 1, 63, 0
1, 6180, Note_off_c, 1, 60, 0
1, 6184, Note_on_c, 1, 62, 127
1, 6184, Note_on_c, 1, 58, 127
1, 6210, Note_off_c, 1, 62, 0
1, 6210, Note_off_c, 1, 58, 0
1, 6214, Note_on_c, 1, 70, 127
1, 6214, Note_on_c, 1, 57, 127
1, 6240, Note_off_c, 1, 57, 0
1, 6244, Note_on_c, 1, 55, 127
1, 6270, Note_off_c, 1, 55, 0
1, 6274, Note_on_c, 1, 53, 127
1, 6289, Note_off_c, 1, 46, 0
1, 6300, Note_off_c, 1, 53, 0
1, 6304, Note_on_c, 1, 52, 127
1, 6304, Note_on_c, 1, 48, 127
1, 6330, Note_off_c, 1, 70, 0
1, 6334, Note_on_c, 1, 74, 127
1, 6356, Note_off_c, 1, 52, 0
1, 6360, Note_off_c, 1, 74, 0
1, 6364, Note_on_c, 1, 72, 127
1, 6390, Note_off_c, 1, 72, 0
1, 6424, Note_on_c, 1, 69, 127
1, 6450, Note_off_c, 1, 69, 0
1, 6454, Note_on_c, 1, 67, 127
1, 6469, Note_off_c, 1, 48, 0
1, 6480, Note_off_c, 1, 67, 0
1, 6484, Note_on_c, 1, 65, 127
1, 6484, Note_on_c, 1, 50, 127
1, 6510, Note_off_c, 1, 65, 0
1, 6649, Note_off_c, 1, 50, 0
1, 6964, Note_on_c, 1, 76, 127
1, 6990, Note_off_c, 1, 76, 0
1, 6994, Note_on_c, 1, 77, 127
1, 7102, Note_off_c, 1, 77, 0
1, 7204, Note_on_c, 1, 72, 127
1, 7204, Note_on_c, 1, 57, 127
1, 7230, Note_off_c, 1, 57, 0
1, 7234, Note_on_c, 1, 77, 127
1, 7234, Note_on_c, 1, 55, 127
1, 7256, Note_off_c, 1, 72, 0
1, 7260, Note_off_c, 1, 77, 0
1, 7260, Note_off_c, 1, 55, 0
1, 7264, Note_on_c, 1, 76, 127
1, 7264, Note_on_c, 1, 57, 127
1, 7290, Note_off_c, 1, 76, 0
1, 7290, Note_off_c, 1, 57, 0
1, 7294, Note_on_c, 1, 74, 127
1, 7294, Note_on_c, 1, 58, 127
1, 7320, Note_off_c, 1, 74, 0
1, 7320, Note_off_c, 1, 58, 0
1, 7324, Note_on_c, 1, 72, 127
1, 7324, Note_on_c, 1, 57, 127
1, 7350, Note_off_c, 1, 72, 0
1, 7350, Note_off_c, 1, 57, 0
1, 7354, Note_on_c, 1, 70, 127
1, 7354, Note_on_c, 1, 55, 127
1, 7380, Note_off_c, 1, 70, 0
1, 7380, Note_off_c, 1, 55, 0
1, 7384, Note_on_c, 1, 69, 127
1, 7384, Note_on_c, 1, 53, 127
1, 7410, Note_off_c, 1, 69, 0
1, 7414, Note_on_c, 1, 67, 127
1, 7414, Note_on_c, 1, 65, 127
1, 7440, Note_off_c, 1, 67, 0
1, 7440, Note_off_c, 1, 65, 0
1, 7444, Note_on_c, 1, 64, 127
1, 7470, Note_off_c, 1, 64, 0
1, 7474, Note_on_c, 1, 70, 127
1, 7474, Note_on_c, 1, 62, 127
1, 7500, Note_off_c, 1, 70, 0
1, 7500, Note_off_c, 1, 62, 0
1, 7504, Note_on_c, 1, 60, 127
1, 7530, Note_off_c, 1, 60, 0
1, 7534, Note_on_c, 1, 58, 127
1, 7560, Note_off_c, 1, 58, 0
1, 7564, Note_off_c, 1, 53, 0
1, 7564, Note_on_c, 1, 57, 127
1, 7616, Note_off_c, 1, 57, 0
1, 7624, Note_on_c, 1, 69, 127
1, 7624, Note_on_c, 1, 51, 127
1, 7650, Note_off_c, 1, 69, 0
1, 7650, Note_off_c, 1, 51, 0
1, 7654, Note_on_c, 1, 70, 127
1, 7654, Note_on_c, 1, 65, 127
1, 7654, Note_on_c, 1, 50, 127
1, 7680, Note_off_c, 1, 70, 0
1, 7680, Note_off_c, 1, 50, 0
1, 7684, Note_on_c, 1, 72, 127
1, 7684, Note_on_c, 1, 48, 127
1, 7710, Note_off_c, 1, 72, 0
1, 7710, Note_off_c, 1, 48, 0
1, 7714, Note_on_c, 1, 74, 127
1, 7714, Note_on_c, 1, 46, 127
1, 7740, Note_off_c, 1, 74, 0
1, 7740, Note_off_c, 1, 46, 0
1, 7770, Note_off_c, 1, 65, 0
1, 7774, Note_on_c, 1, 64, 127
1, 7800, Note_off_c, 1, 64, 0
1, 7804, Note_on_c, 1, 67, 127
1, 7804, Note_on_c, 1, 62, 127
1, 7830, Note_off_c, 1, 67, 0
1, 7830, Note_off_c, 1, 62, 0
1, 7834, Note_on_c, 1, 69, 127
1, 7834, Note_on_c, 1, 60, 127
1, 7860, Note_off_c, 1, 69, 0
1, 7860, Note_off_c, 1, 60, 0
1, 7864, Note_on_c, 1, 70, 127
1, 7864, Note_on_c, 1, 58, 127
1, 7890, Note_off_c, 1, 70, 0
1, 7890, Note_off_c, 1, 58, 0
1, 7894, Note_on_c, 1, 72, 127
1, 7894, Note_on_c, 1, 57, 127
1, 7920, Note_off_c, 1, 72, 0
1, 7920, Note_off_c, 1, 57, 0
1, 7924, Note_on_c, 1, 72, 127
1, 7924, Note_on_c, 1, 62, 127
1, 7954, Note_on_c, 1, 50, 127
1, 7976, Note_off_c, 1, 72, 0
1, 7980, Note_off_c, 1, 50, 0
1, 7984, Note_on_c, 1, 65, 127
1, 7984, Note_on_c, 1, 48, 127
1, 8010, Note_off_c, 1, 65, 0
1, 8010, Note_off_c, 1, 48, 0
1, 8014, Note_on_c, 1, 67, 127
1, 8014, Note_on_c, 1, 46, 127
1, 8040, Note_off_c, 1, 67, 0
1, 8040, Note_off_c, 1, 46, 0
1, 8044, Note_on_c, 1, 69, 127
1, 8044, Note_on_c, 1, 45, 127
1, 8070, Note_off_c, 1, 69, 0
1, 8070, Note_off_c, 1, 45, 0
1, 8074, Note_on_c, 1, 70, 127
1, 8074, Note_on_c, 1, 43, 127
1, 8100, Note_off_c, 1, 70, 0
1, 8100, Note_off_c, 1, 43, 0
1, 8130, Note_off_c, 1, 62, 0
1, 8134, Note_on_c, 1, 60, 127
1, 8160, Note_off_c, 1, 60, 0
1, 8164, Note_on_c, 1, 62, 127
1, 8164, Note_on_c, 1, 46, 127
1, 8190, Note_off_c, 1, 62, 0
1, 8190, Note_off_c, 1, 46, 0
1, 8194, Note_on_c, 1, 64, 127
1, 8194, Note_on_c, 1, 45, 127
1, 8220, Note_off_c, 1, 64, 0
1, 8224, Note_on_c, 1, 65, 127
1, 8246, Note_off_c, 1, 45, 0
1, 8250, Note_off_c, 1, 65, 0
1, 8254, Note_on_c, 1, 67, 127
1, 8254, Note_on_c, 1, 43, 127
1, 8280, Note_off_c, 1, 67, 0
1, 8280, Note_off_c, 1, 43, 0
1, 8284, Note_on_c, 1, 69, 127
1, 8284, Note_on_c, 1, 41, 127
1, 8314, Note_on_c, 1, 65, 127
1, 8336, Note_off_c, 1, 69, 0
1, 8336, Note_off_c, 1, 41, 0
1, 8340, Note_off_c, 1, 65, 0
1, 8344, Note_on_c, 1, 67, 127
1, 8344, Note_on_c, 1, 51, 127
1, 8370, Note_off_c, 1, 67, 0
1, 8370, Note_off_c, 1, 51, 0
1, 8374, Note_on_c, 1, 69, 127
1, 8374, Note_on_c, 1, 50, 127
1, 8400, Note_off_c, 1, 69, 0
1, 8404, Note_on_c, 1, 70, 127
1, 8426, Note_off_c, 1, 50, 0
1, 8430, Note_off_c, 1, 70, 0
1, 8434, Note_on_c, 1, 72, 127
1, 8434, Note_on_c, 1, 48, 127
1, 8460, Note_off_c, 1, 72, 0
1, 8460, Note_off_c, 1, 48, 0
1, 8464, Note_on_c, 1, 74, 127
1, 8464, Note_on_c, 1, 46, 127
1, 8490, Note_off_c, 1, 74, 0
1, 8494, Note_on_c, 1, 70, 127
1, 8516, Note_off_c, 1, 46, 0
1, 8520, Note_off_c, 1, 70, 0
1, 8524, Note_on_c, 1, 72, 127
1, 8524, Note_on_c, 1, 57, 127
1, 8550, Note_off_c, 1, 72, 0
1, 8550, Note_off_c, 1, 57, 0
1, 8554, Note_on_c, 1, 74, 127
1, 8554, Note_on_c, 1, 55, 127
1, 8580, Note_off_c, 1, 74, 0
1, 8584, Note_on_c, 1, 76, 127
1, 8606, Note_off_c, 1, 55, 0
1, 8610, Note_off_c, 1, 76, 0
1, 8614, Note_on_c, 1, 77, 127
1, 8614, Note_on_c, 1, 53, 127
1, 8640, Note_off_c, 1, 77, 0
1, 8640, Note_off_c, 1, 53, 0
1, 8644, Note_on_c, 1, 79, 127
1, 8644, Note_on_c, 1, 52, 127
1, 8674, Note_on_c, 1, 77, 127
1, 8696, Note_off_c, 1, 52, 0
1, 8700, Note_off_c, 1, 77, 0
1, 8704, Note_on_c, 1, 76, 127
1, 8704, Note_on_c, 1, 55, 127
1, 8730, Note_off_c, 1, 76, 0
1, 8730, Note_off_c, 1, 55, 0
1, 8734, Note_on_c, 1, 74, 127
1, 8760, Note_off_c, 1, 74, 0
1, 8764, Note_on_c, 1, 72, 127
1, 8790, Note_off_c, 1, 72, 0
1, 8794, Note_on_c, 1, 70, 127
1, 8794, Note_on_c, 1, 48, 127
1, 8820, Note_off_c, 1, 70, 0
1, 8820, Note_off_c, 1, 48, 0
1, 8824, Note_on_c, 1, 69, 127
1, 8824, Note_on_c, 1, 53, 127
1, 8850, Note_off_c, 1, 53, 0
1, 8854, Note_on_c, 1, 67, 127
1, 8876, Note_off_c, 1, 79, 0
1, 8880, Note_off_c, 1, 67, 0
1, 8884, Note_on_c, 1, 65, 127
1, 8910, Note_off_c, 1, 65, 0
1, 8914, Note_on_c, 1, 63, 127
1, 8940, Note_off_c, 1, 63, 0
1, 8944, Note_on_c, 1, 62, 127
1, 8970, Note_off_c, 1, 62, 0
1, 8974, Note_on_c, 1, 75, 127
1, 8974, Note_on_c, 1, 60, 127
1, 9000, Note_off_c, 1, 75, 0
1, 9000, Note_off_c, 1, 60, 0
1, 9004, Note_on_c, 1, 58, 127
1, 9030, Note_off_c, 1, 69, 0
1, 9082, Note_off_c, 1, 58, 0
1, 9094, Note_on_c, 1, 59, 127
1, 9172, Note_off_c, 1, 59, 0
1, 9184, Note_on_c, 1, 64, 127
1, 9304, Note_on_c, 1, 57, 127
1, 9330, Note_off_c, 1, 57, 0
1, 9349, Note_off_c, 1, 64, 0
1, 9364, Note_on_c, 1, 69, 127
1, 9364, Note_on_c, 1, 53, 127
1, 9390, Note_off_c, 1, 53, 0
1, 9394, Note_on_c, 1, 55, 127
1, 9420, Note_off_c, 1, 55, 0
1, 9424, Note_on_c, 1, 60, 127
1, 9450, Note_off_c, 1, 60, 0
1, 9454, Note_on_c, 1, 65, 127
1, 9454, Note_on_c, 1, 51, 127
1, 9480, Note_off_c, 1, 69, 0
1, 9480, Note_off_c, 1, 51, 0
1, 9484, Note_on_c, 1, 71, 127
1, 9484, Note_on_c, 1, 50, 127
1, 9510, Note_off_c, 1, 71, 0
1, 9510, Note_off_c, 1, 50, 0
1, 9514, Note_on_c, 1, 72, 127
1, 9514, Note_on_c, 1, 48, 127
1, 9532, Note_off_c, 1, 65, 0
1, 9540, Note_off_c, 1, 72, 0
1, 9540, Note_off_c, 1, 48, 0
1, 9544, Note_on_c, 1, 74, 127
1, 9544, Note_on_c, 1, 47, 127
1, 9570, Note_off_c, 1, 74, 0
1, 9574, Note_on_c, 1, 65, 127
1, 9600, Note_off_c, 1, 65, 0
1, 9604, Note_on_c, 1, 67, 127
1, 9604, Note_on_c, 1, 50, 127
1, 9630, Note_off_c, 1, 67, 0
1, 9630, Note_off_c, 1, 50, 0
1, 9634, Note_on_c, 1, 68, 127
1, 9634, Note_on_c, 1, 53, 127
1, 9660, Note_off_c, 1, 68, 0
1, 9686, Note_off_c, 1, 53, 0
1, 9694, Note_on_c, 1, 56, 127
1, 9709, Note_off_c, 1, 47, 0
1, 9720, Note_off_c, 1, 56, 0
1, 9724, Note_on_c, 1, 64, 127
1, 9724, Note_on_c, 1, 55, 127
1, 9724, Note_on_c, 1, 48, 127
1, 9750, Note_off_c, 1, 64, 0
1, 9754, Note_on_c, 1, 60, 127
1, 9780, Note_off_c, 1, 60, 0
1, 9784, Note_on_c, 1, 59, 127
1, 9810, Note_off_c, 1, 59, 0
1, 9844, Note_on_c, 1, 62, 127
1, 9866, Note_off_c, 1, 55, 0
1, 9866, Note_off_c, 1, 48, 0
1, 9870, Note_off_c, 1, 62, 0
1, 9874, Note_on_c, 1, 64, 127
1, 9874, Note_on_c, 1, 58, 127
1, 9900, Note_off_c, 1, 64, 0
1, 9900, Note_off_c, 1, 58, 0
1, 9904, Note_on_c, 1, 65, 127
1, 9904, Note_on_c, 1, 56, 127
1, 9930, Note_off_c, 1, 65, 0
1, 9934, Note_on_c, 1, 60, 127
1, 9956, Note_off_c, 1, 56, 0
1, 9960, Note_off_c, 1, 60, 0
1, 9964, Note_on_c, 1, 59, 127
1, 9964, Note_on_c, 1, 55, 127
1, 9990, Note_off_c, 1, 59, 0
1, 9990, Note_off_c, 1, 55, 0
1, 9994, Note_on_c, 1, 60, 127
1, 9994, Note_on_c, 1, 56, 127
1, 10020, Note_off_c, 1, 60, 0
1, 10020, Note_off_c, 1, 56, 0
1, 10024, Note_on_c, 1, 64, 127
1, 10024, Note_on_c, 1, 60, 127
1, 10050, Note_off_c, 1, 64, 0
1, 10050, Note_off_c, 1, 60, 0
1, 10054, Note_on_c, 1, 65, 127
1, 10054, Note_on_c, 1, 53, 127
1, 10080, Note_off_c, 1, 65, 0
1, 10080, Note_off_c, 1, 53, 0
1, 10084, Note_on_c, 1, 67, 127
1, 10084, Note_on_c, 1, 52, 127
1, 10110, Note_off_c, 1, 67, 0
1, 10114, Note_on_c, 1, 60, 127
1, 10136, Note_off_c, 1, 52, 0
1, 10140, Note_off_c, 1, 60, 0
1, 10144, Note_on_c, 1, 59, 127
1, 10144, Note_on_c, 1, 50, 127
1, 10170, Note_off_c, 1, 59, 0
1, 10170, Note_off_c, 1, 50, 0
1, 10174, Note_on_c, 1, 60, 127
1, 10174, Note_on_c, 1, 52, 127
1, 10200, Note_off_c, 1, 60, 0
1, 10200, Note_off_c, 1, 52, 0
1, 10204, Note_on_c, 1, 65, 127
1, 10204, Note_on_c, 1, 55, 127
1, 10230, Note_off_c, 1, 65, 0
1, 10230, Note_off_c, 1, 55, 0
1, 10234, Note_on_c, 1, 67, 127
1, 10234, Note_on_c, 1, 48, 127
1, 10260, Note_off_c, 1, 67, 0
1, 10260, Note_off_c, 1, 48, 0
1, 10264, Note_on_c, 1, 68, 127
1, 10264, Note_on_c, 1, 53, 127
1, 10290, Note_off_c, 1, 68, 0
1, 10290, Note_off_c, 1, 53, 0
1, 10294, Note_on_c, 1, 65, 127
1, 10294, Note_on_c, 1, 56, 127
1, 10320, Note_off_c, 1, 65, 0
1, 10320, Note_off_c, 1, 56, 0
1, 10324, Note_on_c, 1, 67, 127
1, 10324, Note_on_c, 1, 51, 127
1, 10350, Note_off_c, 1, 67, 0
1, 10350, Note_off_c, 1, 51, 0
1, 10354, Note_on_c, 1, 68, 127
1, 10354, Note_on_c, 1, 49, 127
1, 10380, Note_off_c, 1, 68, 0
1, 10380, Note_off_c, 1, 49, 0
1, 10384, Note_on_c, 1, 70, 127
1, 10384, Note_on_c, 1, 53, 127
1, 10410, Note_off_c, 1, 70, 0
1, 10410, Note_off_c, 1, 53, 0
1, 10414, Note_on_c, 1, 72, 127
1, 10414, Note_on_c, 1, 48, 127
1, 10440, Note_off_c, 1, 72, 0
1, 10440, Note_off_c, 1, 48, 0
1, 10444, Note_on_c, 1, 73, 127
1, 10444, Note_on_c, 1, 46, 127
1, 10470, Note_off_c, 1, 73, 0
1, 10470, Note_off_c, 1, 46, 0
1, 10474, Note_on_c, 1, 70, 127
1, 10474, Note_on_c, 1, 49, 127
1, 10500, Note_off_c, 1, 70, 0
1, 10500, Note_off_c, 1, 49, 0
1, 10504, Note_on_c, 1, 72, 127
1, 10504, Note_on_c, 1, 53, 127
1, 10530, Note_off_c, 1, 72, 0
1, 10530, Note_off_c, 1, 53, 0
1, 10534, Note_on_c, 1, 73, 127
1, 10534, Note_on_c, 1, 58, 127
1, 10560, Note_off_c, 1, 73, 0
1, 10564, Note_on_c, 1, 75, 127
1, 10590, Note_off_c, 1, 75, 0
1, 10594, Note_on_c, 1, 77, 127
1, 10620, Note_off_c, 1, 77, 0
1, 10624, Note_on_c, 1, 78, 127
1, 10650, Note_off_c, 1, 78, 0
1, 10654, Note_on_c, 1, 80, 127
1, 10676, Note_off_c, 1, 58, 0
1, 10680, Note_off_c, 1, 80, 0
1, 10684, Note_on_c, 1, 82, 127
1, 10684, Note_on_c, 1, 46, 127
1, 10710, Note_off_c, 1, 82, 0
1, 10710, Note_off_c, 1, 46, 0
1, 10714, Note_on_c, 1, 80, 127
1, 10714, Note_on_c, 1, 58, 127
1, 10740, Note_off_c, 1, 80, 0
1, 10744, Note_on_c, 1, 78, 127
1, 10766, Note_off_c, 1, 58, 0
1, 10770, Note_off_c, 1, 78, 0
1, 10774, Note_on_c, 1, 77, 127
1, 10774, Note_on_c, 1, 59, 127
1, 10800, Note_off_c, 1, 77, 0
1, 10800, Note_off_c, 1, 59, 0
1, 10804, Note_on_c, 1, 76, 127
1, 10804, Note_on_c, 1, 60, 127
1, 10830, Note_off_c, 1, 76, 0
1, 10830, Note_off_c, 1, 60, 0
1, 10834, Note_on_c, 1, 79, 127
1, 10834, Note_on_c, 1, 48, 127
1, 10860, Note_off_c, 1, 79, 0
1, 10860, Note_off_c, 1, 48, 0
1, 10864, Note_on_c, 1, 70, 127
1, 10864, Note_on_c, 1, 50, 127
1, 10890, Note_off_c, 1, 70, 0
1, 10890, Note_off_c, 1, 50, 0
1, 10894, Note_on_c, 1, 73, 127
1, 10894, Note_on_c, 1, 52, 127
1, 10920, Note_off_c, 1, 73, 0
1, 10920, Note_off_c, 1, 52, 0
1, 10924, Note_on_c, 1, 72, 127
1, 10924, Note_on_c, 1, 53, 127
1, 10950, Note_off_c, 1, 72, 0
1, 10950, Note_off_c, 1, 53, 0
1, 10954, Note_on_c, 1, 70, 127
1, 10954, Note_on_c, 1, 55, 127
1, 10980, Note_off_c, 1, 70, 0
1, 10980, Note_off_c, 1, 55, 0
1, 10984, Note_on_c, 1, 72, 127
1, 10984, Note_on_c, 1, 57, 127
1, 11010, Note_off_c, 1, 72, 0
1, 11010, Note_off_c, 1, 57, 0
1, 11014, Note_on_c, 1, 77, 127
1, 11014, Note_on_c, 1, 58, 127
1, 11040, Note_off_c, 1, 77, 0
1, 11040, Note_off_c, 1, 58, 0
1, 11044, Note_on_c, 1, 69, 127
1, 11044, Note_on_c, 1, 60, 127
1, 11070, Note_off_c, 1, 69, 0
1, 11070, Note_off_c, 1, 60, 0
1, 11074, Note_on_c, 1, 70, 127
1, 11074, Note_on_c, 1, 62, 127
1, 11100, Note_off_c, 1, 70, 0
1, 11100, Note_off_c, 1, 62, 0
1, 11104, Note_on_c, 1, 72, 127
1, 11104, Note_on_c, 1, 60, 127
1, 11130, Note_off_c, 1, 72, 0
1, 11130, Note_off_c, 1, 60, 0
1, 11134, Note_on_c, 1, 74, 127
1, 11134, Note_on_c, 1, 58, 127
1, 11160, Note_off_c, 1, 74, 0
1, 11160, Note_off_c, 1, 58, 0
1, 11164, Note_on_c, 1, 72, 127
1, 11164, Note_on_c, 1, 57, 127
1, 11190, Note_off_c, 1, 72, 0
1, 11190, Note_off_c, 1, 57, 0
1, 11194, Note_on_c, 1, 70, 127
1, 11194, Note_on_c, 1, 55, 127
1, 11220, Note_off_c, 1, 70, 0
1, 11220, Note_off_c, 1, 55, 0
1, 11224, Note_on_c, 1, 69, 127
1, 11224, Note_on_c, 1, 53, 127
1, 11250, Note_off_c, 1, 69, 0
1, 11250, Note_off_c, 1, 53, 0
1, 11254, Note_on_c, 1, 67, 127
1, 11254, Note_on_c, 1, 60, 127
1, 11280, Note_off_c, 1, 67, 0
1, 11280, Note_off_c, 1, 60, 0
1, 11284, Note_on_c, 1, 77, 127
1, 11284, Note_on_c, 1, 48, 127
1, 11310, Note_off_c, 1, 77, 0
1, 11314, Note_on_c, 1, 76, 127
1, 11336, Note_off_c, 1, 48, 0
1, 11340, Note_off_c, 1, 76, 0
1, 11344, Note_on_c, 1, 77, 127
1, 11344, Note_on_c, 1, 41, 127
1, 11370, Note_off_c, 1, 77, 0
1, 11370, Note_off_c, 1, 41, 0
1, 11374, Note_on_c, 1, 72, 127
1, 11374, Note_on_c, 1, 45, 127
1, 11400, Note_off_c, 1, 72, 0
1, 11400, Note_off_c, 1, 45, 0
1, 11404, Note_on_c, 1, 69, 127
1, 11404, Note_on_c, 1, 48, 127
1, 11430, Note_off_c, 1, 69, 0
1, 11430, Note_off_c, 1, 48, 0
1, 11434, Note_on_c, 1, 65, 127
1, 11434, Note_on_c, 1, 53, 127
1, 11512, Note_off_c, 1, 65, 0
1, 11512, Note_off_c, 1, 53, 0
1, 11524, Note_on_c, 1, 58, 127
1, 11554, Note_on_c, 1, 82, 127
1, 11580, Note_off_c, 1, 82, 0
1, 11584, Note_on_c, 1, 81, 127
1, 11610, Note_off_c, 1, 81, 0
1, 11614, Note_on_c, 1, 79, 127
1, 11640, Note_off_c, 1, 79, 0
1, 11644, Note_on_c, 1, 77, 127
1, 11670, Note_off_c, 1, 77, 0
1, 11674, Note_on_c, 1, 75, 127
1, 11700, Note_off_c, 1, 75, 0
1, 11704, Note_on_c, 1, 74, 127
1, 11734, Note_on_c, 1, 70, 127
1, 11760, Note_off_c, 1, 70, 0
1, 11764, Note_on_c, 1, 69, 127
1, 11782, Note_off_c, 1, 74, 0
1, 11790, Note_off_c, 1, 69, 0
1, 11794, Note_on_c, 1, 67, 127
1, 11820, Note_off_c, 1, 67, 0
1, 11824, Note_on_c, 1, 65, 127
1, 11850, Note_off_c, 1, 65, 0
1, 11854, Note_on_c, 1, 63, 127
1, 11880, Note_off_c, 1, 63, 0
1, 11884, Note_on_c, 1, 62, 127
1, 11910, Note_off_c, 1, 58, 0
1, 11936, Note_off_c, 1, 62, 0
1, 11944, Note_on_c, 1, 74, 127
1, 11944, Note_on_c, 1, 65, 127
1, 11944, Note_on_c, 1, 56, 127
1, 11970, Note_off_c, 1, 74, 0
1, 11970, Note_off_c, 1, 65, 0
1, 11970, Note_off_c, 1, 56, 0
1, 11974, Note_on_c, 1, 75, 127
1, 11974, Note_on_c, 1, 70, 127
1, 11974, Note_on_c, 1, 55, 127
1, 12000, Note_off_c, 1, 55, 0
1, 12004, Note_on_c, 1, 53, 127
1, 12026, Note_off_c, 1, 75, 0
1, 12026, Note_off_c, 1, 70, 0
1, 12030, Note_off_c, 1, 53, 0
1, 12034, Note_on_c, 1, 79, 127
1, 12034, Note_on_c, 1, 75, 127
1, 12034, Note_on_c, 1, 51, 127
1, 12060, Note_off_c, 1, 79, 0
1, 12060, Note_off_c, 1, 75, 0
1, 12060, Note_off_c, 1, 51, 0
1, 12064, Note_on_c, 1, 79, 127
1, 12064, Note_on_c, 1, 75, 127
1, 12064, Note_on_c, 1, 58, 127
1, 12090, Note_off_c, 1, 79, 0
1, 12090, Note_off_c, 1, 58, 0
1, 12094, Note_on_c, 1, 77, 127
1, 12094, Note_on_c, 1, 57, 127
1, 12120, Note_off_c, 1, 77, 0
1, 12120, Note_off_c, 1, 57, 0
1, 12154, Note_on_c, 1, 46, 127
1, 12180, Note_off_c, 1, 75, 0
1, 12184, Note_on_c, 1, 74, 127
1, 12210, Note_off_c, 1, 74, 0
1, 12214, Note_on_c, 1, 72, 127
1, 12240, Note_off_c, 1, 72, 0
1, 12270, Note_off_c, 1, 46, 0
1, 12274, Note_on_c, 1, 50, 127
1, 12300, Note_off_c, 1, 50, 0
1, 12304, Note_on_c, 1, 70, 127
1, 12304, Note_on_c, 1, 51, 127
1, 12330, Note_off_c, 1, 70, 0
1, 12330, Note_off_c, 1, 51, 0
1, 12334, Note_on_c, 1, 69, 127
1, 12334, Note_on_c, 1, 72, 127
1, 12334, Note_on_c, 1, 53, 127
1, 12360, Note_off_c, 1, 53, 0
1, 12364, Note_on_c, 1, 55, 127
1, 12386, Note_off_c, 1, 69, 0
1, 12390, Note_off_c, 1, 55, 0
1, 12394, Note_on_c, 1, 75, 127
1, 12394, Note_on_c, 1, 57, 127
1, 12412, Note_off_c, 1, 72, 0
1, 12420, Note_off_c, 1, 75, 0
1, 12420, Note_off_c, 1, 57, 0
1, 12424, Note_on_c, 1, 74, 127
1, 12424, Note_on_c, 1, 70, 127
1, 12424, Note_on_c, 1, 58, 127
1, 12450, Note_off_c, 1, 70, 0
1, 12454, Note_on_c, 1, 62, 127
1, 12480, Note_off_c, 1, 62, 0
1, 12484, Note_on_c, 1, 63, 127
1, 12502, Note_off_c, 1, 74, 0
1, 12502, Note_off_c, 1, 58, 0
1, 12510, Note_off_c, 1, 63, 0
1, 12514, Note_on_c, 1, 72, 127
1, 12514, Note_on_c, 1, 65, 127
1, 12514, Note_on_c, 1, 57, 127
1, 12540, Note_off_c, 1, 65, 0
1, 12544, Note_on_c, 1, 67, 127
1, 12570, Note_off_c, 1, 67, 0
1, 12574, Note_on_c, 1, 69, 127
1, 12592, Note_off_c, 1, 72, 0
1, 12592, Note_off_c, 1, 57, 0
1, 12600, Note_off_c, 1, 69, 0
1, 12604, Note_on_c, 1, 70, 127
1, 12604, Note_on_c, 1, 55, 127
1, 12634, Note_on_c, 1, 72, 127
1, 12656, Note_off_c, 1, 55, 0
1, 12660, Note_off_c, 1, 72, 0
1, 12664, Note_on_c, 1, 74, 127
1, 12664, Note_on_c, 1, 53, 127
1, 12690, Note_off_c, 1, 74, 0
1, 12690, Note_off_c, 1, 53, 0
1, 12694, Note_on_c, 1, 75, 127
1, 12720, Note_off_c, 1, 75, 0
1, 12724, Note_on_c, 1, 77, 127
1, 12750, Note_off_c, 1, 77, 0
1, 12754, Note_on_c, 1, 79, 127
1, 12754, Note_on_c, 1, 51, 127
1, 12780, Note_off_c, 1, 79, 0
1, 12780, Note_off_c, 1, 51, 0
1, 12810, Note_off_c, 1, 70, 0
1, 12814, Note_on_c, 1, 69, 127
1, 12840, Note_off_c, 1, 69, 0
1, 12844, Note_on_c, 1, 67, 127
1, 12870, Note_off_c, 1, 67, 0
1, 12904, Note_on_c, 1, 57, 127
1, 12930, Note_off_c, 1, 57, 0
1, 12934, Note_on_c, 1, 60, 127
1, 12960, Note_off_c, 1, 60, 0
1, 12964, Note_on_c, 1, 65, 127
1, 13042, Note_off_c, 1, 65, 0
1, 13054, Note_on_c, 1, 72, 127
1, 13054, Note_on_c, 1, 63, 127
1, 13080, Note_off_c, 1, 72, 0
1, 13084, Note_on_c, 1, 74, 127
1, 13110, Note_off_c, 1, 74, 0
1, 13114, Note_on_c, 1, 75, 127
1, 13132, Note_off_c, 1, 63, 0
1, 13140, Note_off_c, 1, 75, 0
1, 13144, Note_on_c, 1, 77, 127
1, 13144, Note_on_c, 1, 62, 127
1, 13174, Note_on_c, 1, 65, 127
1, 13200, Note_off_c, 1, 65, 0
1, 13204, Note_on_c, 1, 67, 127
1, 13222, Note_off_c, 1, 77, 0
1, 13222, Note_off_c, 1, 62, 0
1, 13230, Note_off_c, 1, 67, 0
1, 13234, Note_on_c, 1, 75, 127
1, 13234, Note_on_c, 1, 69, 127
1, 13234, Note_on_c, 1, 60, 127
1, 13260, Note_off_c, 1, 69, 0
1, 13264, Note_on_c, 1, 70, 127
1, 13290, Note_off_c, 1, 70, 0
1, 13294, Note_on_c, 1, 72, 127
1, 13312, Note_off_c, 1, 75, 0
1, 13312, Note_off_c, 1, 60, 0
1, 13320, Note_off_c, 1, 72, 0
1, 13324, Note_on_c, 1, 74, 127
1, 13324, Note_on_c, 1, 58, 127
1, 13350, Note_off_c, 1, 58, 0
1, 13354, Note_on_c, 1, 46, 127
1, 13380, Note_off_c, 1, 46, 0
1, 13384, Note_on_c, 1, 67, 127
1, 13384, Note_on_c, 1, 48, 127
1, 13410, Note_off_c, 1, 67, 0
1, 13410, Note_off_c, 1, 48, 0
1, 13414, Note_on_c, 1, 66, 127
1, 13414, Note_on_c, 1, 50, 127
1, 13440, Note_off_c, 1, 50, 0
1, 13444, Note_on_c, 1, 52, 127
1, 13466, Note_off_c, 1, 74, 0
1, 13466, Note_off_c, 1, 66, 0
1, 13470, Note_off_c, 1, 52, 0
1, 13474, Note_on_c, 1, 72, 127
1, 13474, Note_on_c, 1, 69, 127
1, 13474, Note_on_c, 1, 54, 127
1, 13500, Note_off_c, 1, 72, 0
1, 13500, Note_off_c, 1, 54, 0
1, 13504, Note_on_c, 1, 70, 127
1, 13504, Note_on_c, 1, 55, 127
1, 13530, Note_off_c, 1, 69, 0
1, 13534, Note_on_c, 1, 62, 127
1, 13560, Note_off_c, 1, 62, 0
1, 13564, Note_on_c, 1, 66, 127
1, 13590, Note_off_c, 1, 66, 0
1, 13594, Note_on_c, 1, 67, 127
1, 13620, Note_off_c, 1, 55, 0
1, 13624, Note_on_c, 1, 58, 127
1, 13650, Note_off_c, 1, 58, 0
1, 13654, Note_on_c, 1, 50, 127
1, 13680, Note_off_c, 1, 50, 0
1, 13684, Note_on_c, 1, 52, 127
1, 13710, Note_off_c, 1, 70, 0
1, 13762, Note_off_c, 1, 52, 0
1, 13774, Note_on_c, 1, 53, 127
1, 13800, Note_off_c, 1, 67, 0
1, 13804, Note_on_c, 1, 60, 127
1, 13830, Note_off_c, 1, 60, 0
1, 13834, Note_on_c, 1, 64, 127
1, 13860, Note_off_c, 1, 64, 0
1, 13864, Note_on_c, 1, 65, 127
1, 13890, Note_off_c, 1, 53, 0
1, 13984, Note_on_c, 1, 48, 127
1, 14010, Note_off_c, 1, 48, 0
1, 14014, Note_on_c, 1, 46, 127
1, 14040, Note_off_c, 1, 46, 0
1, 14044, Note_on_c, 1, 45, 127
1, 14074, Note_on_c, 1, 77, 127
1, 14100, Note_off_c, 1, 77, 0
1, 14104, Note_on_c, 1, 76, 127
1, 14122, Note_off_c, 1, 45, 0
1, 14130, Note_off_c, 1, 76, 0
1, 14134, Note_on_c, 1, 74, 127
1, 14160, Note_off_c, 1, 74, 0
1, 14302, Note_off_c, 1, 65, 0
1, 14404, Note_on_c, 1, 60, 127
1, 14404, Note_on_c, 1, 58, 127
1, 14430, Note_off_c, 1, 60, 0
1, 14430, Note_off_c, 1, 58, 0
1, 14434, Note_on_c, 1, 64, 127
1, 14434, Note_on_c, 1, 57, 127
1, 14460, Note_off_c, 1, 64, 0
1, 14460, Note_off_c, 1, 57, 0
1, 14464, Note_on_c, 1, 67, 127
1, 14464, Note_on_c, 1, 58, 127
1, 14490, Note_off_c, 1, 67, 0
1, 14490, Note_off_c, 1, 58, 0
1, 14494, Note_on_c, 1, 70, 127
1, 14494, Note_on_c, 1, 48, 127
1, 14520, Note_off_c, 1, 70, 0
1, 14520, Note_off_c, 1, 48, 0
1, 14524, Note_on_c, 1, 69, 127
1, 14524, Note_on_c, 1, 52, 127
1, 14550, Note_off_c, 1, 69, 0
1, 14550, Note_off_c, 1, 52, 0
1, 14554, Note_on_c, 1, 70, 127
1, 14554, Note_on_c, 1, 55, 127
1, 14580, Note_off_c, 1, 70, 0
1, 14580, Note_off_c, 1, 55, 0
1, 14584, Note_on_c, 1, 60, 127
1, 14584, Note_on_c, 1, 57, 127
1, 14610, Note_off_c, 1, 60, 0
1, 14610, Note_off_c, 1, 57, 0
1, 14614, Note_on_c, 1, 64, 127
1, 14614, Note_on_c, 1, 55, 127
1, 14640, Note_off_c, 1, 64, 0
1, 14640, Note_off_c, 1, 55, 0
1, 14644, Note_on_c, 1, 65, 127
1, 14644, Note_on_c, 1, 57, 127
1, 14670, Note_off_c, 1, 65, 0
1, 14670, Note_off_c, 1, 57, 0
1, 14674, Note_on_c, 1, 69, 127
1, 14674, Note_on_c, 1, 48, 127
1, 14700, Note_off_c, 1, 69, 0
1, 14700, Note_off_c, 1, 48, 0
1, 14704, Note_on_c, 1, 67, 127
1, 14704, Note_on_c, 1, 52, 127
1, 14730, Note_off_c, 1, 67, 0
1, 14730, Note_off_c, 1, 52, 0
1, 14734, Note_on_c, 1, 69, 127
1, 14734, Note_on_c, 1, 53, 127
1, 14760, Note_off_c, 1, 69, 0
1, 14760, Note_off_c, 1, 53, 0
1, 14764, Note_on_c, 1, 58, 127
1, 14764, Note_on_c, 1, 55, 127
1, 14790, Note_off_c, 1, 58, 0
1, 14790, Note_off_c, 1, 55, 0
1, 14794, Note_on_c, 1, 62, 127
1, 14794, Note_on_c, 1, 53, 127
1, 14820, Note_off_c, 1, 62, 0
1, 14820, Note_off_c, 1, 53, 0
1, 14824, Note_on_c, 1, 64, 127
1, 14824, Note_on_c, 1, 55, 127
1, 14850, Note_off_c, 1, 64, 0
1, 14850, Note_off_c, 1, 55, 0
1, 14854, Note_on_c, 1, 67, 127
1, 14854, Note_on_c, 1, 48, 127
1, 14880, Note_off_c, 1, 67, 0
1, 14880, Note_off_c, 1, 48, 0
1, 14884, Note_on_c, 1, 65, 127
1, 14884, Note_on_c, 1, 50, 127
1, 14910, Note_off_c, 1, 65, 0
1, 14910, Note_off_c, 1, 50, 0
1, 14914, Note_on_c, 1, 67, 127
1, 14914, Note_on_c, 1, 52, 127
1, 14940, Note_off_c, 1, 67, 0
1, 14940, Note_off_c, 1, 52, 0
1, 14944, Note_on_c, 1, 58, 127
1, 14944, Note_on_c, 1, 53, 127
1, 14970, Note_off_c, 1, 58, 0
1, 14974, Note_on_c, 1, 57, 127
1, 15000, Note_off_c, 1, 57, 0
1, 15004, Note_on_c, 1, 60, 127
1, 15030, Note_off_c, 1, 60, 0
1, 15034, Note_on_c, 1, 65, 127
1, 15060, Note_off_c, 1, 53, 0
1, 15060, Note_off_c, 1, 65, 0
1, 15064, Note_on_c, 1, 69, 127
1, 15064, Note_on_c, 1, 48, 127
1, 15090, Note_off_c, 1, 69, 0
1, 15090, Note_off_c, 1, 48, 0
1, 15094, Note_on_c, 1, 72, 127
1, 15094, Note_on_c, 1, 45, 127
1, 15120, Note_off_c, 1, 72, 0
1, 15120, Note_off_c, 1, 45, 0
1, 15124, Note_on_c, 1, 75, 127
1, 15124, Note_on_c, 1, 41, 127
1, 15150, Note_off_c, 1, 75, 0
1, 15150, Note_off_c, 1, 41, 0
1, 15154, Note_on_c, 1, 74, 127
1, 15154, Note_on_c, 1, 45, 127
1, 15180, Note_off_c, 1, 74, 0
1, 15180, Note_off_c, 1, 45, 0
1, 15184, Note_on_c, 1, 75, 127
1, 15184, Note_on_c, 1, 48, 127
1, 15210, Note_off_c, 1, 75, 0
1, 15210, Note_off_c, 1, 48, 0
1, 15214, Note_on_c, 1, 65, 127
1, 15214, Note_on_c, 1, 51, 127
1, 15240, Note_off_c, 1, 65, 0
1, 15240, Note_off_c, 1, 51, 0
1, 15244, Note_on_c, 1, 69, 127
1, 15244, Note_on_c, 1, 50, 127
1, 15270, Note_off_c, 1, 69, 0
1, 15270, Note_off_c, 1, 50, 0
1, 15274, Note_on_c, 1, 72, 127
1, 15274, Note_on_c, 1, 51, 127
1, 15300, Note_off_c, 1, 72, 0
1, 15300, Note_off_c, 1, 51, 0
1, 15304, Note_on_c, 1, 74, 127
1, 15304, Note_on_c, 1, 41, 127
1, 15330, Note_off_c, 1, 74, 0
1, 15330, Note_off_c, 1, 41, 0
1, 15334, Note_on_c, 1, 72, 127
1, 15334, Note_on_c, 1, 45, 127
1, 15360, Note_off_c, 1, 72, 0
1, 15360, Note_off_c, 1, 45, 0
1, 15364, Note_on_c, 1, 74, 127
1, 15364, Note_on_c, 1, 46, 127
1, 15390, Note_off_c, 1, 74, 0
1, 15390, Note_off_c, 1, 46, 0
1, 15394, Note_on_c, 1, 65, 127
1, 15394, Note_on_c, 1, 50, 127
1, 15420, Note_off_c, 1, 65, 0
1, 15420, Note_off_c, 1, 50, 0
1, 15424, Note_on_c, 1, 69, 127
1, 15424, Note_on_c, 1, 48, 127
1, 15450, Note_off_c, 1, 69, 0
1, 15450, Note_off_c, 1, 48, 0
1, 15454, Note_on_c, 1, 70, 127
1, 15454, Note_on_c, 1, 50, 127
1, 15480, Note_off_c, 1, 70, 0
1, 15480, Note_off_c, 1, 50, 0
1, 15484, Note_on_c, 1, 72, 127
1, 15484, Note_on_c, 1, 39, 127
1, 15510, Note_off_c, 1, 72, 0
1, 15510, Note_off_c, 1, 39, 0
1, 15514, Note_on_c, 1, 70, 127
1, 15514, Note_on_c, 1, 43, 127
1, 15540, Note_off_c, 1, 70, 0
1, 15540, Note_off_c, 1, 43, 0
1, 15544, Note_on_c, 1, 72, 127
1, 15544, Note_on_c, 1, 45, 127
1, 15570, Note_off_c, 1, 72, 0
1, 15570, Note_off_c, 1, 45, 0
1, 15574, Note_on_c, 1, 63, 127
1, 15574, Note_on_c, 1, 48, 127
1, 15600, Note_off_c, 1, 63, 0
1, 15600, Note_off_c, 1, 48, 0
1, 15604, Note_on_c, 1, 67, 127
1, 15604, Note_on_c, 1, 46, 127
1, 15630, Note_off_c, 1, 67, 0
1, 15630, Note_off_c, 1, 46, 0
1, 15634, Note_on_c, 1, 69, 127
1, 15634, Note_on_c, 1, 48, 127
1, 15660, Note_off_c, 1, 69, 0
1, 15660, Note_off_c, 1, 48, 0
1, 15664, Note_on_c, 1, 69, 127
1, 15664, Note_on_c, 1, 39, 127
1, 15690, Note_off_c, 1, 69, 0
1, 15690, Note_off_c, 1, 39, 0
1, 15694, Note_on_c, 1, 70, 127
1, 15694, Note_on_c, 1, 38, 127
1, 15720, Note_off_c, 1, 70, 0
1, 15720, Note_off_c, 1, 38, 0
1, 15724, Note_on_c, 1, 65, 127
1, 15724, Note_on_c, 1, 41, 127
1, 15750, Note_off_c, 1, 65, 0
1, 15750, Note_off_c, 1, 41, 0
1, 15754, Note_on_c, 1, 62, 127
1, 15754, Note_on_c, 1, 46, 127
1, 15780, Note_off_c, 1, 46, 0
1, 15784, Note_on_c, 1, 50, 127
1, 15810, Note_off_c, 1, 50, 0
1, 15814, Note_on_c, 1, 53, 127
1, 15840, Note_off_c, 1, 53, 0
1, 15844, Note_on_c, 1, 58, 127
1, 15870, Note_off_c, 1, 62, 0
1, 15874, Note_on_c, 1, 60, 127
1, 15900, Note_off_c, 1, 60, 0
1, 15922, Note_off_c, 1, 58, 0
1, 15934, Note_on_c, 1, 57, 127
1, 15934, Note_on_c, 1, 65, 127
1, 15960, Note_off_c, 1, 57, 0
1, 15964, Note_on_c, 1, 62, 127
1, 15990, Note_off_c, 1, 62, 0
1, 15994, Note_on_c, 1, 58, 127
1, 16012, Note_off_c, 1, 65, 0
1, 16020, Note_off_c, 1, 58, 0
1, 16024, Note_on_c, 1, 55, 127
1, 16024, Note_on_c, 1, 70, 127
1, 16050, Note_off_c, 1, 55, 0
1, 16054, Note_on_c, 1, 62, 127
1, 16080, Note_off_c, 1, 62, 0
1, 16084, Note_on_c, 1, 58, 127
1, 16102, Note_off_c, 1, 70, 0
1, 16110, Note_off_c, 1, 58, 0
1, 16114, Note_on_c, 1, 55, 127
1, 16114, Note_on_c, 1, 51, 127
1, 16140, Note_off_c, 1, 55, 0
1, 16144, Note_on_c, 1, 62, 127
1, 16170, Note_off_c, 1, 62, 0
1, 16174, Note_on_c, 1, 70, 127
1, 16192, Note_off_c, 1, 51, 0
1, 16200, Note_off_c, 1, 70, 0
1, 16204, Note_on_c, 1, 60, 127
1, 16204, Note_on_c, 1, 45, 127
1, 16230, Note_off_c, 1, 60, 0
1, 16234, Note_on_c, 1, 58, 127
1, 16260, Note_off_c, 1, 58, 0
1, 16282, Note_off_c, 1, 45, 0
1, 16294, Note_on_c, 1, 55, 127
1, 16294, Note_on_c, 1, 63, 127
1, 16320, Note_off_c, 1, 55, 0
1, 16324, Note_on_c, 1, 60, 127
1, 16350, Note_off_c, 1, 60, 0
1, 16354, Note_on_c, 1, 57, 127
1, 16372, Note_off_c, 1, 63, 0
1, 16380, Note_off_c, 1, 57, 0
1, 16384, Note_on_c, 1, 54, 127
1, 16384, Note_on_c, 1, 69, 127
1, 16410, Note_off_c, 1, 54, 0
1, 16414, Note_on_c, 1, 60, 127
1, 16440, Note_off_c, 1, 60, 0
1, 16444, Note_on_c, 1, 57, 127
1, 16462, Note_off_c, 1, 69, 0
1, 16470, Note_off_c, 1, 57, 0
1, 16474, Note_on_c, 1, 54, 127
1, 16474, Note_on_c, 1, 50, 127
1, 16500, Note_off_c, 1, 54, 0
1, 16504, Note_on_c, 1, 60, 127
1, 16530, Note_off_c, 1, 60, 0
1, 16534, Note_on_c, 1, 69, 127
1, 16552, Note_off_c, 1, 50, 0
1, 16560, Note_off_c, 1, 69, 0
1, 16564, Note_on_c, 1, 58, 127
1, 16564, Note_on_c, 1, 43, 127
1, 16590, Note_off_c, 1, 58, 0
1, 16594, Note_on_c, 1, 57, 127
1, 16620, Note_off_c, 1, 57, 0
1, 16642, Note_off_c, 1, 43, 0
1, 16654, Note_on_c, 1, 62, 127
1, 16654, Note_on_c, 1, 53, 127
1, 16680, Note_off_c, 1, 53, 0
1, 16684, Note_on_c, 1, 58, 127
1, 16710, Note_off_c, 1, 58, 0
1, 16714, Note_on_c, 1, 55, 127
1, 16732, Note_off_c, 1, 62, 0
1, 16740, Note_off_c, 1, 55, 0
1, 16744, Note_on_c, 1, 67, 127
1, 16744, Note_on_c, 1, 52, 127
1, 16770, Note_off_c, 1, 52, 0
1, 16774, Note_on_c, 1, 58, 127
1, 16800, Note_off_c, 1, 58, 0
1, 16804, Note_on_c, 1, 55, 127
1, 16822, Note_off_c, 1, 67, 0
1, 16830, Note_off_c, 1, 55, 0
1, 16834, Note_on_c, 1, 48, 127
1, 16834, Note_on_c, 1, 52, 127
1, 16860, Note_off_c, 1, 52, 0
1, 16864, Note_on_c, 1, 58, 127
1, 16890, Note_off_c, 1, 58, 0
1, 16894, Note_on_c, 1, 67, 127
1, 16912, Note_off_c, 1, 48, 0
1, 16920, Note_off_c, 1, 67, 0
1, 16924, Note_on_c, 1, 41, 127
1, 16924, Note_on_c, 1, 56, 127
1, 16950, Note_off_c, 1, 56, 0
1, 16954, Note_on_c, 1, 55, 127
1, 16980, Note_off_c, 1, 55, 0
1, 17002, Note_off_c, 1, 41, 0
1, 17014, Note_on_c, 1, 60, 127
1, 17014, Note_on_c, 1, 51, 127
1, 17040, Note_off_c, 1, 51, 0
1, 17044, Note_on_c, 1, 56, 127
1, 17070, Note_off_c, 1, 56, 0
1, 17074, Note_on_c, 1, 53, 127
1, 17092, Note_off_c, 1, 60, 0
1, 17100, Note_off_c, 1, 53, 0
1, 17104, Note_on_c, 1, 65, 127
1, 17104, Note_on_c, 1, 50, 127
1, 17130, Note_off_c, 1, 50, 0
1, 17134, Note_on_c, 1, 56, 127
1, 17160, Note_off_c, 1, 56, 0
1, 17164, Note_on_c, 1, 53, 127
1, 17182, Note_off_c, 1, 65, 0
1, 17190, Note_off_c, 1, 53, 0
1, 17194, Note_on_c, 1, 46, 127
1, 17194, Note_on_c, 1, 50, 127
1, 17220, Note_off_c, 1, 50, 0
1, 17224, Note_on_c, 1, 56, 127
1, 17250, Note_off_c, 1, 56, 0
1, 17254, Note_on_c, 1, 65, 127
1, 17272, Note_off_c, 1, 46, 0
1, 17280, Note_off_c, 1, 65, 0
1, 17284, Note_on_c, 1, 39, 127
1, 17284, Note_on_c, 1, 55, 127
1, 17310, Note_off_c, 1, 55, 0
1, 17314, Note_on_c, 1, 65, 127
1, 17340, Note_off_c, 1, 65, 0
1, 17344, Note_on_c, 1, 63, 127
1, 17362, Note_off_c, 1, 39, 0
1, 17370, Note_off_c, 1, 63, 0
1, 17374, Note_on_c, 1, 63, 127
1, 17374, Note_on_c, 1, 62, 127
1, 17400, Note_off_c, 1, 62, 0
1, 17404, Note_on_c, 1, 60, 127
1, 17430, Note_off_c, 1, 60, 0
1, 17434, Note_on_c, 1, 58, 127
1, 17460, Note_off_c, 1, 58, 0
1, 17464, Note_on_c, 1, 57, 127
1, 17490, Note_off_c, 1, 63, 0
1, 17494, Note_on_c, 1, 72, 127
1, 17520, Note_off_c, 1, 72, 0
1, 17524, Note_on_c, 1, 70, 127
1, 17542, Note_off_c, 1, 57, 0
1, 17550, Note_off_c, 1, 70, 0
1, 17554, Note_on_c, 1, 69, 127
1, 17554, Note_on_c, 1, 53, 127
1, 17580, Note_off_c, 1, 69, 0
1, 17584, Note_on_c, 1, 67, 127
1, 17610, Note_off_c, 1, 67, 0
1, 17614, Note_on_c, 1, 65, 127
1, 17632, Note_off_c, 1, 53, 0
1, 17640, Note_off_c, 1, 65, 0
1, 17644, Note_on_c, 1, 63, 127
1, 17644, Note_on_c, 1, 46, 127
1, 17674, Note_on_c, 1, 60, 127
1, 17696, Note_off_c, 1, 63, 0
1, 17700, Note_off_c, 1, 60, 0
1, 17704, Note_on_c, 1, 62, 127
1, 17704, Note_on_c, 1, 58, 127
1, 17730, Note_off_c, 1, 62, 0
1, 17730, Note_off_c, 1, 58, 0
1, 17734, Note_on_c, 1, 70, 127
1, 17734, Note_on_c, 1, 57, 127
1, 17760, Note_off_c, 1, 57, 0
1, 17764, Note_on_c, 1, 55, 127
1, 17790, Note_off_c, 1, 55, 0
1, 17794, Note_on_c, 1, 53, 127
1, 17809, Note_off_c, 1, 46, 0
1, 17820, Note_off_c, 1, 53, 0
1, 17824, Note_on_c, 1, 52, 127
1, 17824, Note_on_c, 1, 48, 127
1, 17850, Note_off_c, 1, 70, 0
1, 17854, Note_on_c, 1, 74, 127
1, 17876, Note_off_c, 1, 52, 0
1, 17880, Note_off_c, 1, 74, 0
1, 17884, Note_on_c, 1, 72, 127
1, 17910, Note_off_c, 1, 72, 0
1, 17944, Note_on_c, 1, 69, 127
1, 17970, Note_off_c, 1, 69, 0
1, 17974, Note_on_c, 1, 67, 127
1, 17989, Note_off_c, 1, 48, 0
1, 18000, Note_off_c, 1, 67, 0
1, 18004, Note_on_c, 1, 65, 127
1, 18004, Note_on_c, 1, 50, 127
1, 18030, Note_off_c, 1, 65, 0
1, 18169, Note_off_c, 1, 50, 0
1, 18484, Note_on_c, 1, 76, 127
1, 18510, Note_off_c, 1, 76, 0
1, 18514, Note_on_c, 1, 77, 127
1, 18622, Note_off_c, 1, 77, 0
1, 18724, Note_on_c, 1, 72, 127
1, 18724, Note_on_c, 1, 57, 127
1, 18750, Note_off_c, 1, 57, 0
1, 18754, Note_on_c, 1, 77, 127
1, 18754, Note_on_c, 1, 55, 127
1, 18776, Note_off_c, 1, 72, 0
1, 18780, Note_off_c, 1, 77, 0
1, 18780, Note_off_c, 1, 55, 0
1, 18784, Note_on_c, 1, 76, 127
1, 18784, Note_on_c, 1, 57, 127
1, 18810, Note_off_c, 1, 76, 0
1, 18810, Note_off_c, 1, 57, 0
1, 18814, Note_on_c, 1, 74, 127
1, 18814, Note_on_c, 1, 58, 127
1, 18840, Note_off_c, 1, 74, 0
1, 18840, Note_off_c, 1, 58, 0
1, 18844, Note_on_c, 1, 72, 127
1, 18844, Note_on_c, 1, 57, 127
1, 18870, Note_off_c, 1, 72, 0
1, 18870, Note_off_c, 1, 57, 0
1, 18874, Note_on_c, 1, 70, 127
1, 18874, Note_on_c, 1, 55, 127
1, 18900, Note_off_c, 1, 70, 0
1, 18900, Note_off_c, 1, 55, 0
1, 18904, Note_on_c, 1, 69, 127
1, 18904, Note_on_c, 1, 53, 127
1, 18930, Note_off_c, 1, 69, 0
1, 18934, Note_on_c, 1, 67, 127
1, 18934, Note_on_c, 1, 65, 127
1, 18960, Note_off_c, 1, 67, 0
1, 18960, Note_off_c, 1, 65, 0
1, 18964, Note_on_c, 1, 64, 127
1, 18990, Note_off_c, 1, 64, 0
1, 18994, Note_on_c, 1, 70, 127
1, 18994, Note_on_c, 1, 62, 127
1, 19020, Note_off_c, 1, 70, 0
1, 19020, Note_off_c, 1, 62, 0
1, 19024, Note_on_c, 1, 60, 127
1, 19050, Note_off_c, 1, 60, 0
1, 19054, Note_on_c, 1, 58, 127
1, 19080, Note_off_c, 1, 58, 0
1, 19084, Note_off_c, 1, 53, 0
1, 19084, Note_on_c, 1, 57, 127
1, 19136, Note_off_c, 1, 57, 0
1, 19144, Note_on_c, 1, 69, 127
1, 19144, Note_on_c, 1, 51, 127
1, 19170, Note_off_c, 1, 69, 0
1, 19170, Note_off_c, 1, 51, 0
1, 19174, Note_on_c, 1, 70, 127
1, 19174, Note_on_c, 1, 65, 127
1, 19174, Note_on_c, 1, 50, 127
1, 19200, Note_off_c, 1, 70, 0
1, 19200, Note_off_c, 1, 50, 0
1, 19204, Note_on_c, 1, 72, 127
1, 19204, Note_on_c, 1, 48, 127
1, 19230, Note_off_c, 1, 72, 0
1, 19230, Note_off_c, 1, 48, 0
1, 19234, Note_on_c, 1, 74, 127
1, 19234, Note_on_c, 1, 46, 127
1, 19260, Note_off_c, 1, 74, 0
1, 19260, Note_off_c, 1, 46, 0
1, 19290, Note_off_c, 1, 65, 0
1, 19294, Note_on_c, 1, 64, 127
1, 19320, Note_off_c, 1, 64, 0
1, 19324, Note_on_c, 1, 67, 127
1, 19324, Note_on_c, 1, 62, 127
1, 19350, Note_off_c, 1, 67, 0
1, 19350, Note_off_c, 1, 62, 0
1, 19354, Note_on_c, 1, 69, 127
1, 19354, Note_on_c, 1, 60, 127
1, 19380, Note_off_c, 1, 69, 0
1, 19380, Note_off_c, 1, 60, 0
1, 19384, Note_on_c, 1, 70, 127
1, 19384, Note_on_c, 1, 58, 127
1, 19410, Note_off_c, 1, 70, 0
1, 19410, Note_off_c, 1, 58, 0
1, 19414, Note_on_c, 1, 72, 127
1, 19414, Note_on_c, 1, 57, 127
1, 19440, Note_off_c, 1, 72, 0
1, 19440, Note_off_c, 1, 57, 0
1, 19444, Note_on_c, 1, 72, 127
1, 19444, Note_on_c, 1, 62, 127
1, 19474, Note_on_c, 1, 50, 127
1, 19496, Note_off_c, 1, 72, 0
1, 19500, Note_off_c, 1, 50, 0
1, 19504, Note_on_c, 1, 65, 127
1, 19504, Note_on_c, 1, 48, 127
1, 19530, Note_off_c, 1, 65, 0
1, 19530, Note_off_c, 1, 48, 0
1, 19534, Note_on_c, 1, 67, 127
1, 19534, Note_on_c, 1, 46, 127
1, 19560, Note_off_c, 1, 67, 0
1, 19560, Note_off_c, 1, 46, 0
1, 19564, Note_on_c, 1, 69, 127
1, 19564, Note_on_c, 1, 45, 127
1, 19590, Note_off_c, 1, 69, 0
1, 19590, Note_off_c, 1, 45, 0
1, 19594, Note_on_c, 1, 70, 127
1, 19594, Note_on_c, 1, 43, 127
1, 19620, Note_off_c, 1, 70, 0
1, 19620, Note_off_c, 1, 43, 0
1, 19650, Note_off_c, 1, 62, 0
1, 19654, Note_on_c, 1, 60, 127
1, 19680, Note_off_c, 1, 60, 0
1, 19684, Note_on_c, 1, 62, 127
1, 19684, Note_on_c, 1, 46, 127
1, 19710, Note_off_c, 1, 62, 0
1, 19710, Note_off_c, 1, 46, 0
1, 19714, Note_on_c, 1, 64, 127
1, 19714, Note_on_c, 1, 45, 127
1, 19740, Note_off_c, 1, 64, 0
1, 19744, Note_on_c, 1, 65, 127
1, 19766, Note_off_c, 1, 45, 0
1, 19770, Note_off_c, 1, 65, 0
1, 19774, Note_on_c, 1, 67, 127
1, 19774, Note_on_c, 1, 43, 127
1, 19800, Note_off_c, 1, 67, 0
1, 19800, Note_off_c, 1, 43, 0
1, 19804, Note_on_c, 1, 69, 127
1, 19804, Note_on_c, 1, 41, 127
1, 19834, Note_on_c, 1, 65, 127
1, 19856, Note_off_c, 1, 69, 0
1, 19856, Note_off_c, 1, 41, 0
1, 19860, Note_off_c, 1, 65, 0
1, 19864, Note_on_c, 1, 67, 127
1, 19864, Note_on_c, 1, 51, 127
1, 19890, Note_off_c, 1, 67, 0
1, 19890, Note_off_c, 1, 51, 0
1, 19894, Note_on_c, 1, 69, 127
1, 19894, Note_on_c, 1, 50, 127
1, 19920, Note_off_c, 1, 69, 0
1, 19924, Note_on_c, 1, 70, 127
1, 19946, Note_off_c, 1, 50, 0
1, 19950, Note_off_c, 1, 70, 0
1, 19954, Note_on_c, 1, 72, 127
1, 19954, Note_on_c, 1, 48, 127
1, 19980, Note_off_c, 1, 72, 0
1, 19980, Note_off_c, 1, 48, 0
1, 19984, Note_on_c, 1, 74, 127
1, 19984, Note_on_c, 1, 46, 127
1, 20010, Note_off_c, 1, 74, 0
1, 20014, Note_on_c, 1, 70, 127
1, 20036, Note_off_c, 1, 46, 0
1, 20040, Note_off_c, 1, 70, 0
1, 20044, Note_on_c, 1, 72, 127
1, 20044, Note_on_c, 1, 57, 127
1, 20070, Note_off_c, 1, 72, 0
1, 20070, Note_off_c, 1, 57, 0
1, 20074, Note_on_c, 1, 74, 127
1, 20074, Note_on_c, 1, 55, 127
1, 20100, Note_off_c, 1, 74, 0
1, 20104, Note_on_c, 1, 76, 127
1, 20126, Note_off_c, 1, 55, 0
1, 20130, Note_off_c, 1, 76, 0
1, 20134, Note_on_c, 1, 77, 127
1, 20134, Note_on_c, 1, 53, 127
1, 20160, Note_off_c, 1, 77, 0
1, 20160, Note_off_c, 1, 53, 0
1, 20164, Note_on_c, 1, 79, 127
1, 20164, Note_on_c, 1, 52, 127
1, 20194, Note_on_c, 1, 77, 127
1, 20216, Note_off_c, 1, 52, 0
1, 20220, Note_off_c, 1, 77, 0
1, 20224, Note_on_c, 1, 76, 127
1, 20224, Note_on_c, 1, 55, 127
1, 20250, Note_off_c, 1, 76, 0
1, 20250, Note_off_c, 1, 55, 0
1, 20254, Note_on_c, 1, 74, 127
1, 20280, Note_off_c, 1, 74, 0
1, 20284, Note_on_c, 1, 72, 127
1, 20310, Note_off_c, 1, 72, 0
1, 20314, Note_on_c, 1, 70, 127
1, 20314, Note_on_c, 1, 48, 127
1, 20340, Note_off_c, 1, 70, 0
1, 20340, Note_off_c, 1, 48, 0
1, 20344, Note_on_c, 1, 69, 127
1, 20344, Note_on_c, 1, 53, 127
1, 20370, Note_off_c, 1, 53, 0
1, 20374, Note_on_c, 1, 67, 127
1, 20396, Note_off_c, 1, 79, 0
1, 20400, Note_off_c, 1, 67, 0
1, 20404, Note_on_c, 1, 65, 127
1, 20430, Note_off_c, 1, 65, 0
1, 20434, Note_on_c, 1, 63, 127
1, 20460, Note_off_c, 1, 63, 0
1, 20464, Note_on_c, 1, 62, 127
1, 20490, Note_off_c, 1, 62, 0
1, 20494, Note_on_c, 1, 75, 127
1, 20494, Note_on_c, 1, 60, 127
1, 20520, Note_off_c, 1, 75, 0
1, 20520, Note_off_c, 1, 60, 0
1, 20524, Note_on_c, 1, 58, 127
1, 20550, Note_off_c, 1, 69, 0
1, 20602, Note_off_c, 1, 58, 0
1, 20614, Note_on_c, 1, 59, 127
1, 20692, Note_off_c, 1, 59, 0
1, 20704, Note_on_c, 1, 64, 127
1, 20824, Note_on_c, 1, 57, 127
1, 20850, Note_off_c, 1, 57, 0
1, 20869, Note_off_c, 1, 64, 0
1, 20884, Note_on_c, 1, 69, 127
1, 20884, Note_on_c, 1, 53, 127
1, 20910, Note_off_c, 1, 53, 0
1, 20914, Note_on_c, 1, 55, 127
1, 20940, Note_off_c, 1, 55, 0
1, 20944, Note_on_c, 1, 60, 127
1, 20970, Note_off_c, 1, 60, 0
1, 20974, Note_on_c, 1, 65, 127
1, 20974, Note_on_c, 1, 51, 127
1, 21000, Note_off_c, 1, 69, 0
1, 21000, Note_off_c, 1, 51, 0
1, 21004, Note_on_c, 1, 71, 127
1, 21004, Note_on_c, 1, 50, 127
1, 21030, Note_off_c, 1, 71, 0
1, 21030, Note_off_c, 1, 50, 0
1, 21034, Note_on_c, 1, 72, 127
1, 21034, Note_on_c, 1, 48, 127
1, 21052, Note_off_c, 1, 65, 0
1, 21060, Note_off_c, 1, 72, 0
1, 21060, Note_off_c, 1, 48, 0
1, 21064, Note_on_c, 1, 74, 127
1, 21064, Note_on_c, 1, 47, 127
1, 21090, Note_off_c, 1, 74, 0
1, 21094, Note_on_c, 1, 65, 127
1, 21120, Note_off_c, 1, 65, 0
1, 21124, Note_on_c, 1, 67, 127
1, 21124, Note_on_c, 1, 50, 127
1, 21150, Note_off_c, 1, 67, 0
1, 21150, Note_off_c, 1, 50, 0
1, 21154, Note_on_c, 1, 68, 127
1, 21154, Note_on_c, 1, 53, 127
1, 21180, Note_off_c, 1, 68, 0
1, 21206, Note_off_c, 1, 53, 0
1, 21214, Note_on_c, 1, 56, 127
1, 21229, Note_off_c, 1, 47, 0
1, 21240, Note_off_c, 1, 56, 0
1, 21244, Note_on_c, 1, 64, 127
1, 21244, Note_on_c, 1, 55, 127
1, 21244, Note_on_c, 1, 48, 127
1, 21270, Note_off_c, 1, 64, 0
1, 21274, Note_on_c, 1, 60, 127
1, 21300, Note_off_c, 1, 60, 0
1, 21304, Note_on_c, 1, 59, 127
1, 21330, Note_off_c, 1, 59, 0
1, 21364, Note_on_c, 1, 62, 127
1, 21386, Note_off_c, 1, 55, 0
1, 21386, Note_off_c, 1, 48, 0
1, 21390, Note_off_c, 1, 62, 0
1, 21394, Note_on_c, 1, 64, 127
1, 21394, Note_on_c, 1, 58, 127
1, 21420, Note_off_c, 1, 64, 0
1, 21420, Note_off_c, 1, 58, 0
1, 21424, Note_on_c, 1, 65, 127
1, 21424, Note_on_c, 1, 56, 127
1, 21450, Note_off_c, 1, 65, 0
1, 21454, Note_on_c, 1, 60, 127
1, 21476, Note_off_c, 1, 56, 0
1, 21480, Note_off_c, 1, 60, 0
1, 21484, Note_on_c, 1, 59, 127
1, 21484, Note_on_c, 1, 55, 127
1, 21510, Note_off_c, 1, 59, 0
1, 21510, Note_off_c, 1, 55, 0
1, 21514, Note_on_c, 1, 60, 127
1, 21514, Note_on_c, 1, 56, 127
1, 21540, Note_off_c, 1, 60, 0
1, 21540, Note_off_c, 1, 56, 0
1, 21544, Note_on_c, 1, 64, 127
1, 21544, Note_on_c, 1, 60, 127
1, 21570, Note_off_c, 1, 64, 0
1, 21570, Note_off_c, 1, 60, 0
1, 21574, Note_on_c, 1, 65, 127
1, 21574, Note_on_c, 1, 53, 127
1, 21600, Note_off_c, 1, 65, 0
1, 21600, Note_off_c, 1, 53, 0
1, 21604, Note_on_c, 1, 67, 127
1, 21604, Note_on_c, 1, 52, 127
1, 21630, Note_off_c, 1, 67, 0
1, 21634, Note_on_c, 1, 60, 127
1, 21656, Note_off_c, 1, 52, 0
1, 21660, Note_off_c, 1, 60, 0
1, 21664, Note_on_c, 1, 59, 127
1, 21664, Note_on_c, 1, 50, 127
1, 21690, Note_off_c, 1, 59, 0
1, 21690, Note_off_c, 1, 50, 0
1, 21694, Note_on_c, 1, 60, 127
1, 21694, Note_on_c, 1, 52, 127
1, 21720, Note_off_c, 1, 60, 0
1, 21720, Note_off_c, 1, 52, 0
1, 21724, Note_on_c, 1, 65, 127
1, 21724, Note_on_c, 1, 55, 127
1, 21750, Note_off_c, 1, 65, 0
1, 21750, Note_off_c, 1, 55, 0
1, 21754, Note_on_c, 1, 67, 127
1, 21754, Note_on_c, 1, 48, 127
1, 21780, Note_off_c, 1, 67, 0
1, 21780, Note_off_c, 1, 48, 0
1, 21784, Note_on_c, 1, 68, 127
1, 21784, Note_on_c, 1, 53, 127
1, 21810, Note_off_c, 1, 68, 0
1, 21810, Note_off_c, 1, 53, 0
1, 21814, Note_on_c, 1, 65, 127
1, 21814, Note_on_c, 1, 56, 127
1, 21840, Note_off_c, 1, 65, 0
1, 21840, Note_off_c, 1, 56, 0
1, 21844, Note_on_c, 1, 67, 127
1, 21844, Note_on_c, 1, 51, 127
1, 21870, Note_off_c, 1, 67, 0
1, 21870, Note_off_c, 1, 51, 0
1, 21874, Note_on_c, 1, 68, 127
1, 21874, Note_on_c, 1, 49, 127
1, 21900, Note_off_c, 1, 68, 0
1, 21900, Note_off_c, 1, 49, 0
1, 21904, Note_on_c, 1, 70, 127
1, 21904, Note_on_c, 1, 53, 127
1, 21930, Note_off_c, 1, 70, 0
1, 21930, Note_off_c, 1, 53, 0
1, 21934, Note_on_c, 1, 72, 127
1, 21934, Note_on_c, 1, 48, 127
1, 21960, Note_off_c, 1, 72, 0
1, 21960, Note_off_c, 1, 48, 0
1, 21964, Note_on_c, 1, 73, 127
1, 21964, Note_on_c, 1, 46, 127
1, 21990, Note_off_c, 1, 73, 0
1, 21990, Note_off_c, 1, 46, 0
1, 21994, Note_on_c, 1, 70, 127
1, 21994, Note_on_c, 1, 49, 127
1, 22020, Note_off_c, 1, 70, 0
1, 22020, Note_off_c, 1, 49, 0
1, 22024, Note_on_c, 1, 72, 127
1, 22024, Note_on_c, 1, 53, 127
1, 22050, Note_off_c, 1, 72, 0
1, 22050, Note_off_c, 1, 53, 0
1, 22054, Note_on_c, 1, 73, 127
1, 22054, Note_on_c, 1, 58, 127
1, 22080, Note_off_c, 1, 73, 0
1, 22084, Note_on_c, 1, 75, 127
1, 22110, Note_off_c, 1, 75, 0
1, 22114, Note_on_c, 1, 77, 127
1, 22140, Note_off_c, 1, 77, 0
1, 22144, Note_on_c, 1, 78, 127
1, 22170, Note_off_c, 1, 78, 0
1, 22174, Note_on_c, 1, 80, 127
1, 22196, Note_off_c, 1, 58, 0
1, 22200, Note_off_c, 1, 80, 0
1, 22204, Note_on_c, 1, 82, 127
1, 22204, Note_on_c, 1, 46, 127
1, 22230, Note_off_c, 1, 82, 0
1, 22230, Note_off_c, 1, 46, 0
1, 22234, Note_on_c, 1, 80, 127
1, 22234, Note_on_c, 1, 58, 127
1, 22260, Note_off_c, 1, 80, 0
1, 22264, Note_on_c, 1, 78, 127
1, 22286, Note_off_c, 1, 58, 0
1, 22290, Note_off_c, 1, 78, 0
1, 22294, Note_on_c, 1, 77, 127
1, 22294, Note_on_c, 1, 59, 127
1, 22320, Note_off_c, 1, 77, 0
1, 22320, Note_off_c, 1, 59, 0
1, 22324, Note_on_c, 1, 76, 127
1, 22324, Note_on_c, 1, 60, 127
1, 22350, Note_off_c, 1, 76, 0
1, 22350, Note_off_c, 1, 60, 0
1, 22354, Note_on_c, 1, 79, 127
1, 22354, Note_on_c, 1, 48, 127
1, 22380, Note_off_c, 1, 79, 0
1, 22380, Note_off_c, 1, 48, 0
1, 22384, Note_on_c, 1, 70, 127
1, 22384, Note_on_c, 1, 50, 127
1, 22410, Note_off_c, 1, 70, 0
1, 22410, Note_off_c, 1, 50, 0
1, 22414, Note_on_c, 1, 73, 127
1, 22414, Note_on_c, 1, 52, 127
1, 22440, Note_off_c, 1, 73, 0
1, 22440, Note_off_c, 1, 52, 0
1, 22444, Note_on_c, 1, 72, 127
1, 22444, Note_on_c, 1, 53, 127
1, 22470, Note_off_c, 1, 72, 0
1, 22470, Note_off_c, 1, 53, 0
1, 22474, Note_on_c, 1, 70, 127
1, 22474, Note_on_c, 1, 55, 127
1, 22500, Note_off_c, 1, 70, 0
1, 22500, Note_off_c, 1, 55, 0
1, 22504, Note_on_c, 1, 72, 127
1, 22504, Note_on_c, 1, 57, 127
1, 22530, Note_off_c, 1, 72, 0
1, 22530, Note_off_c, 1, 57, 0
1, 22534, Note_on_c, 1, 77, 127
1, 22534, Note_on_c, 1, 58, 127
1, 22560, Note_off_c, 1, 77, 0
1, 22560, Note_off_c, 1, 58, 0
1, 22564, Note_on_c, 1, 69, 127
1, 22564, Note_on_c, 1, 60, 127
1, 22590, Note_off_c, 1, 69, 0
1, 22590, Note_off_c, 1, 60, 0
1, 22594, Note_on_c, 1, 70, 127
1, 22594, Note_on_c, 1, 62, 127
1, 22620, Note_off_c, 1, 70, 0
1, 22620, Note_off_c, 1, 62, 0
1, 22624, Note_on_c, 1, 72, 127
1, 22624, Note_on_c, 1, 60, 127
1, 22650, Note_off_c, 1, 72, 0
1, 22650, Note_off_c, 1, 60, 0
1, 22654, Note_on_c, 1, 74, 127
1, 22654, Note_on_c, 1, 58, 127
1, 22680, Note_off_c, 1, 74, 0
1, 22680, Note_off_c, 1, 58, 0
1, 22684, Note_on_c, 1, 72, 127
1, 22684, Note_on_c, 1, 57, 127
1, 22710, Note_off_c, 1, 72, 0
1, 22710, Note_off_c, 1, 57, 0
1, 22714, Note_on_c, 1, 70, 127
1, 22714, Note_on_c, 1, 55, 127
1, 22740, Note_off_c, 1, 70, 0
1, 22740, Note_off_c, 1, 55, 0
1, 22744, Note_on_c, 1, 69, 127
1, 22744, Note_on_c, 1, 53, 127
1, 22770, Note_off_c, 1, 69, 0
1, 22770, Note_off_c, 1, 53, 0
1, 22774, Note_on_c, 1, 67, 127
1, 22774, Note_on_c, 1, 60, 127
1, 22800, Note_off_c, 1, 67, 0
1, 22800, Note_off_c, 1, 60, 0
1, 22804, Note_on_c, 1, 77, 127
1, 22804, Note_on_c, 1, 48, 127
1, 22830, Note_off_c, 1, 77, 0
1, 22834, Note_on_c, 1, 76, 127
1, 22856, Note_off_c, 1, 48, 0
1, 22860, Note_off_c, 1, 76, 0
1, 22864, Note_on_c, 1, 77, 127
1, 22864, Note_on_c, 1, 41, 127
1, 22890, Note_off_c, 1, 77, 0
1, 22890, Note_off_c, 1, 41, 0
1, 22894, Note_on_c, 1, 72, 127
1, 22894, Note_on_c, 1, 45, 127
1, 22920, Note_off_c, 1, 72, 0
1, 22920, Note_off_c, 1, 45, 0
1, 22924, Note_on_c, 1, 69, 127
1, 22924, Note_on_c, 1, 48, 127
1, 22950, Note_off_c, 1, 69, 0
1, 22950, Note_off_c, 1, 48, 0
1, 22954, Note_on_c, 1, 65, 127
1, 22954, Note_on_c, 1, 53, 127
1, 23032, Note_off_c, 1, 65, 0
1, 23032, Note_off_c, 1, 53, 0
1, 23044, Note_on_c, 1, 69, 127
1, 23044, Note_on_c, 1, 41, 127
1, 23070, Note_off_c, 1, 69, 0
1, 23070, Note_off_c, 1, 41, 0
1, 23074, Note_on_c, 1, 65, 127
1, 23074, Note_on_c, 1, 57, 127
1, 23100, Note_off_c, 1, 65, 0
1, 23100, Note_off_c, 1, 57, 0
1, 23104, Note_on_c, 1, 64, 127
1, 23104, Note_on_c, 1, 55, 127
1, 23130, Note_off_c, 1, 64, 0
1, 23130, Note_off_c, 1, 55, 0
1, 23134, Note_on_c, 1, 65, 127
1, 23134, Note_on_c, 1, 57, 127
1, 23160, Note_off_c, 1, 65, 0
1, 23160, Note_off_c, 1, 57, 0
1, 23164, Note_on_c, 1, 67, 127
1, 23164, Note_on_c, 1, 58, 127
1, 23190, Note_off_c, 1, 67, 0
1, 23190, Note_off_c, 1, 58, 0
1, 23194, Note_on_c, 1, 69, 127
1, 23194, Note_on_c, 1, 60, 127
1, 23220, Note_off_c, 1, 69, 0
1, 23220, Note_off_c, 1, 60, 0
1, 23224, Note_on_c, 1, 70, 127
1, 23224, Note_on_c, 1, 43, 127
1, 23250, Note_off_c, 1, 70, 0
1, 23250, Note_off_c, 1, 43, 0
1, 23254, Note_on_c, 1, 65, 127
1, 23254, Note_on_c, 1, 62, 127
1, 23280, Note_off_c, 1, 65, 0
1, 23280, Note_off_c, 1, 62, 0
1, 23284, Note_on_c, 1, 64, 127
1, 23284, Note_on_c, 1, 60, 127
1, 23310, Note_off_c, 1, 64, 0
1, 23310, Note_off_c, 1, 60, 0
1, 23314, Note_on_c, 1, 65, 127
1, 23314, Note_on_c, 1, 58, 127
1, 23340, Note_off_c, 1, 65, 0
1, 23340, Note_off_c, 1, 58, 0
1, 23344, Note_on_c, 1, 69, 127
1, 23344, Note_on_c, 1, 57, 127
1, 23370, Note_off_c, 1, 69, 0
1, 23370, Note_off_c, 1, 57, 0
1, 23374, Note_on_c, 1, 70, 127
1, 23374, Note_on_c, 1, 55, 127
1, 23400, Note_off_c, 1, 70, 0
1, 23400, Note_off_c, 1, 55, 0
1, 23404, Note_on_c, 1, 72, 127
1, 23404, Note_on_c, 1, 45, 127
1, 23430, Note_off_c, 1, 72, 0
1, 23430, Note_off_c, 1, 45, 0
1, 23434, Note_on_c, 1, 65, 127
1, 23434, Note_on_c, 1, 57, 127
1, 23460, Note_off_c, 1, 65, 0
1, 23460, Note_off_c, 1, 57, 0
1, 23464, Note_on_c, 1, 64, 127
1, 23464, Note_on_c, 1, 58, 127
1, 23490, Note_off_c, 1, 64, 0
1, 23490, Note_off_c, 1, 58, 0
1, 23494, Note_on_c, 1, 65, 127
1, 23494, Note_on_c, 1, 57, 127
1, 23520, Note_off_c, 1, 65, 0
1, 23520, Note_off_c, 1, 57, 0
1, 23524, Note_on_c, 1, 70, 127
1, 23524, Note_on_c, 1, 55, 127
1, 23550, Note_off_c, 1, 70, 0
1, 23550, Note_off_c, 1, 55, 0
1, 23554, Note_on_c, 1, 72, 127
1, 23554, Note_on_c, 1, 53, 127
1, 23580, Note_off_c, 1, 72, 0
1, 23580, Note_off_c, 1, 53, 0
1, 23584, Note_on_c, 1, 74, 127
1, 23584, Note_on_c, 1, 46, 127
1, 23610, Note_off_c, 1, 46, 0
1, 23614, Note_on_c, 1, 70, 127
1, 23614, Note_on_c, 1, 50, 127
1, 23640, Note_off_c, 1, 50, 0
1, 23644, Note_on_c, 1, 65, 127
1, 23644, Note_on_c, 1, 51, 127
1, 23670, Note_off_c, 1, 51, 0
1, 23674, Note_on_c, 1, 62, 127
1, 23674, Note_on_c, 1, 53, 127
1, 23700, Note_off_c, 1, 53, 0
1, 23704, Note_on_c, 1, 55, 127
1, 23726, Note_off_c, 1, 74, 0
1, 23726, Note_off_c, 1, 70, 0
1, 23726, Note_off_c, 1, 65, 0
1, 23730, Note_off_c, 1, 55, 0
1, 23734, Note_on_c, 1, 72, 127
1, 23734, Note_on_c, 1, 56, 127
1, 23760, Note_off_c, 1, 72, 0
1, 23760, Note_off_c, 1, 56, 0
1, 23764, Note_on_c, 1, 71, 127
1, 23764, Note_on_c, 1, 43, 127
1, 23790, Note_off_c, 1, 62, 0
1, 23790, Note_off_c, 1, 71, 0
1, 23790, Note_off_c, 1, 43, 0
1, 23794, Note_on_c, 1, 67, 127
1, 23794, Note_on_c, 1, 59, 127
1, 23820, Note_off_c, 1, 67, 0
1, 23820, Note_off_c, 1, 59, 0
1, 23824, Note_on_c, 1, 66, 127
1, 23824, Note_on_c, 1, 57, 127
1, 23850, Note_off_c, 1, 66, 0
1, 23850, Note_off_c, 1, 57, 0
1, 23854, Note_on_c, 1, 67, 127
1, 23854, Note_on_c, 1, 59, 127
1, 23880, Note_off_c, 1, 67, 0
1, 23880, Note_off_c, 1, 59, 0
1, 23884, Note_on_c, 1, 69, 127
1, 23884, Note_on_c, 1, 60, 127
1, 23910, Note_off_c, 1, 69, 0
1, 23910, Note_off_c, 1, 60, 0
1, 23914, Note_on_c, 1, 71, 127
1, 23914, Note_on_c, 1, 62, 127
1, 23940, Note_off_c, 1, 71, 0
1, 23940, Note_off_c, 1, 62, 0
1, 23944, Note_on_c, 1, 72, 127
1, 23944, Note_on_c, 1, 45, 127
1, 23970, Note_off_c, 1, 72, 0
1, 23970, Note_off_c, 1, 45, 0
1, 23974, Note_on_c, 1, 67, 127
1, 23974, Note_on_c, 1, 63, 127
1, 24000, Note_off_c, 1, 67, 0
1, 24000, Note_off_c, 1, 63, 0
1, 24004, Note_on_c, 1, 66, 127
1, 24004, Note_on_c, 1, 62, 127
1, 24030, Note_off_c, 1, 66, 0
1, 24030, Note_off_c, 1, 62, 0
1, 24034, Note_on_c, 1, 67, 127
1, 24034, Note_on_c, 1, 60, 127
1, 24060, Note_off_c, 1, 67, 0
1, 24060, Note_off_c, 1, 60, 0
1, 24064, Note_on_c, 1, 71, 127
1, 24064, Note_on_c, 1, 59, 127
1, 24090, Note_off_c, 1, 71, 0
1, 24090, Note_off_c, 1, 59, 0
1, 24094, Note_on_c, 1, 72, 127
1, 24094, Note_on_c, 1, 57, 127
1, 24120, Note_off_c, 1, 72, 0
1, 24120, Note_off_c, 1, 57, 0
1, 24124, Note_on_c, 1, 74, 127
1, 24124, Note_on_c, 1, 47, 127
1, 24150, Note_off_c, 1, 74, 0
1, 24150, Note_off_c, 1, 47, 0
1, 24154, Note_on_c, 1, 67, 127
1, 24154, Note_on_c, 1, 59, 127
1, 24180, Note_off_c, 1, 67, 0
1, 24180, Note_off_c, 1, 59, 0
1, 24184, Note_on_c, 1, 66, 127
1, 24184, Note_on_c, 1, 60, 127
1, 24210, Note_off_c, 1, 66, 0
1, 24210, Note_off_c, 1, 60, 0
1, 24214, Note_on_c, 1, 67, 127
1, 24214, Note_on_c, 1, 59, 127
1, 24240, Note_off_c, 1, 67, 0
1, 24240, Note_off_c, 1, 59, 0
1, 24244, Note_on_c, 1, 72, 127
1, 24244, Note_on_c, 1, 57, 127
1, 24270, Note_off_c, 1, 72, 0
1, 24270, Note_off_c, 1, 57, 0
1, 24274, Note_on_c, 1, 74, 127
1, 24274, Note_on_c, 1, 55, 127
1, 24300, Note_off_c, 1, 74, 0
1, 24300, Note_off_c, 1, 55, 0
1, 24304, Note_on_c, 1, 75, 127
1, 24304, Note_on_c, 1, 48, 127
1, 24330, Note_off_c, 1, 75, 0
1, 24330, Note_off_c, 1, 48, 0
1, 24334, Note_on_c, 1, 72, 127
1, 24334, Note_on_c, 1, 51, 127
1, 24360, Note_off_c, 1, 72, 0
1, 24360, Note_off_c, 1, 51, 0
1, 24364, Note_on_c, 1, 67, 127
1, 24364, Note_on_c, 1, 53, 127
1, 24390, Note_off_c, 1, 53, 0
1, 24394, Note_on_c, 1, 55, 127
1, 24420, Note_off_c, 1, 67, 0
1, 24420, Note_off_c, 1, 55, 0
1, 24424, Note_on_c, 1, 79, 127
1, 24424, Note_on_c, 1, 57, 127
1, 24450, Note_off_c, 1, 79, 0
1, 24450, Note_off_c, 1, 57, 0
1, 24454, Note_on_c, 1, 77, 127
1, 24454, Note_on_c, 1, 59, 127
1, 24480, Note_off_c, 1, 77, 0
1, 24480, Note_off_c, 1, 59, 0
1, 24484, Note_on_c, 1, 75, 127
1, 24484, Note_on_c, 1, 60, 127
1, 24510, Note_off_c, 1, 75, 0
1, 24514, Note_on_c, 1, 74, 127
1, 24540, Note_off_c, 1, 74, 0
1, 24544, Note_on_c, 1, 72, 127
1, 24562, Note_off_c, 1, 60, 0
1, 24570, Note_off_c, 1, 72, 0
1, 24574, Note_on_c, 1, 70, 127
1, 24574, Note_on_c, 1, 79, 127
1, 24600, Note_off_c, 1, 70, 0
1, 24604, Note_on_c, 1, 75, 127
1, 24630, Note_off_c, 1, 75, 0
1, 24634, Note_on_c, 1, 72, 127
1, 24652, Note_off_c, 1, 79, 0
1, 24660, Note_off_c, 1, 72, 0
1, 24664, Note_on_c, 1, 68, 127
1, 24664, Note_on_c, 1, 84, 127
1, 24690, Note_off_c, 1, 68, 0
1, 24694, Note_on_c, 1, 75, 127
1, 24720, Note_off_c, 1, 75, 0
1, 24724, Note_on_c, 1, 72, 127
1, 24742, Note_off_c, 1, 84, 0
1, 24750, Note_off_c, 1, 72, 0
1, 24754, Note_on_c, 1, 65, 127
1, 24754, Note_on_c, 1, 56, 127
1, 24780, Note_off_c, 1, 65, 0
1, 24784, Note_on_c, 1, 72, 127
1, 24810, Note_off_c, 1, 72, 0
1, 24814, Note_on_c, 1, 75, 127
1, 24832, Note_off_c, 1, 56, 0
1, 24840, Note_off_c, 1, 75, 0
1, 24844, Note_on_c, 1, 74, 127
1, 24844, Note_on_c, 1, 58, 127
1, 24870, Note_off_c, 1, 74, 0
1, 24874, Note_on_c, 1, 72, 127
1, 24900, Note_off_c, 1, 72, 0
1, 24904, Note_on_c, 1, 70, 127
1, 24922, Note_off_c, 1, 58, 0
1, 24930, Note_off_c, 1, 70, 0
1, 24934, Note_on_c, 1, 68, 127
1, 24934, Note_on_c, 1, 77, 127
1, 24960, Note_off_c, 1, 68, 0
1, 24964, Note_on_c, 1, 74, 127
1, 24990, Note_off_c, 1, 74, 0
1, 24994, Note_on_c, 1, 70, 127
1, 25012, Note_off_c, 1, 77, 0
1, 25020, Note_off_c, 1, 70, 0
1, 25024, Note_on_c, 1, 67, 127
1, 25024, Note_on_c, 1, 82, 127
1, 25050, Note_off_c, 1, 67, 0
1, 25054, Note_on_c, 1, 73, 127
1, 25080, Note_off_c, 1, 73, 0
1, 25084, Note_on_c, 1, 70, 127
1, 25102, Note_off_c, 1, 82, 0
1, 25110, Note_off_c, 1, 70, 0
1, 25114, Note_on_c, 1, 63, 127
1, 25114, Note_on_c, 1, 55, 127
1, 25140, Note_off_c, 1, 63, 0
1, 25144, Note_on_c, 1, 70, 127
1, 25170, Note_off_c, 1, 70, 0
1, 25174, Note_on_c, 1, 73, 127
1, 25192, Note_off_c, 1, 55, 0
1, 25200, Note_off_c, 1, 73, 0
1, 25204, Note_on_c, 1, 72, 127
1, 25204, Note_on_c, 1, 56, 127
1, 25230, Note_off_c, 1, 72, 0
1, 25234, Note_on_c, 1, 71, 127
1, 25260, Note_off_c, 1, 71, 0
1, 25282, Note_off_c, 1, 56, 0
1, 25294, Note_on_c, 1, 75, 127
1, 25294, Note_on_c, 1, 67, 127
1, 25320, Note_off_c, 1, 67, 0
1, 25324, Note_on_c, 1, 72, 127
1, 25350, Note_off_c, 1, 72, 0
1, 25354, Note_on_c, 1, 68, 127
1, 25372, Note_off_c, 1, 75, 0
1, 25380, Note_off_c, 1, 68, 0
1, 25384, Note_on_c, 1, 80, 127
1, 25384, Note_on_c, 1, 65, 127
1, 25410, Note_off_c, 1, 65, 0
1, 25414, Note_on_c, 1, 72, 127
1, 25440, Note_off_c, 1, 72, 0
1, 25444, Note_on_c, 1, 68, 127
1, 25462, Note_off_c, 1, 80, 0
1, 25470, Note_off_c, 1, 68, 0
1, 25474, Note_on_c, 1, 53, 127
1, 25474, Note_on_c, 1, 62, 127
1, 25500, Note_off_c, 1, 62, 0
1, 25504, Note_on_c, 1, 68, 127
1, 25530, Note_off_c, 1, 68, 0
1, 25534, Note_on_c, 1, 72, 127
1, 25552, Note_off_c, 1, 53, 0
1, 25560, Note_off_c, 1, 72, 0
1, 25564, Note_on_c, 1, 55, 127
1, 25564, Note_on_c, 1, 71, 127
1, 25590, Note_off_c, 1, 71, 0
1, 25594, Note_on_c, 1, 69, 127
1, 25620, Note_off_c, 1, 69, 0
1, 25624, Note_on_c, 1, 67, 127
1, 25642, Note_off_c, 1, 55, 0
1, 25650, Note_off_c, 1, 67, 0
1, 25654, Note_on_c, 1, 74, 127
1, 25654, Note_on_c, 1, 65, 127
1, 25680, Note_off_c, 1, 65, 0
1, 25684, Note_on_c, 1, 71, 127
1, 25710, Note_off_c, 1, 71, 0
1, 25714, Note_on_c, 1, 67, 127
1, 25732, Note_off_c, 1, 74, 0
1, 25740, Note_off_c, 1, 67, 0
1, 25744, Note_on_c, 1, 79, 127
1, 25744, Note_on_c, 1, 64, 127
1, 25770, Note_off_c, 1, 64, 0
1, 25774, Note_on_c, 1, 70, 127
1, 25800, Note_off_c, 1, 70, 0
1, 25804, Note_on_c, 1, 67, 127
1, 25822, Note_off_c, 1, 79, 0
1, 25830, Note_off_c, 1, 67, 0
1, 25834, Note_on_c, 1, 52, 127
1, 25834, Note_on_c, 1, 60, 127
1, 25860, Note_off_c, 1, 60, 0
1, 25864, Note_on_c, 1, 67, 127
1, 25890, Note_off_c, 1, 67, 0
1, 25894, Note_on_c, 1, 70, 127
1, 25912, Note_off_c, 1, 52, 0
1, 25920, Note_off_c, 1, 70, 0
1, 25924, Note_on_c, 1, 53, 127
1, 25924, Note_on_c, 1, 68, 127
1, 25950, Note_off_c, 1, 68, 0
1, 25954, Note_on_c, 1, 67, 127
1, 25980, Note_off_c, 1, 67, 0
1, 25984, Note_on_c, 1, 65, 127
1, 26002, Note_off_c, 1, 53, 0
1, 26010, Note_off_c, 1, 65, 0
1, 26014, Note_on_c, 1, 77, 127
1, 26014, Note_on_c, 1, 63, 127
1, 26040, Note_off_c, 1, 63, 0
1, 26044, Note_on_c, 1, 62, 127
1, 26070, Note_off_c, 1, 62, 0
1, 26074, Note_on_c, 1, 60, 127
1, 26100, Note_off_c, 1, 60, 0
1, 26104, Note_on_c, 1, 59, 127
1, 26130, Note_off_c, 1, 77, 0
1, 26134, Note_on_c, 1, 67, 127
1, 26160, Note_off_c, 1, 67, 0
1, 26164, Note_on_c, 1, 69, 127
1, 26182, Note_off_c, 1, 59, 0
1, 26190, Note_off_c, 1, 69, 0
1, 26194, Note_on_c, 1, 71, 127
1, 26194, Note_on_c, 1, 55, 127
1, 26220, Note_off_c, 1, 71, 0
1, 26224, Note_on_c, 1, 72, 127
1, 26250, Note_off_c, 1, 72, 0
1, 26254, Note_on_c, 1, 74, 127
1, 26272, Note_off_c, 1, 55, 0
1, 26280, Note_off_c, 1, 74, 0
1, 26284, Note_on_c, 1, 75, 127
1, 26284, Note_on_c, 1, 60, 127
1, 26310, Note_off_c, 1, 75, 0
1, 26314, Note_on_c, 1, 74, 127
1, 26340, Note_off_c, 1, 74, 0
1, 26344, Note_on_c, 1, 72, 127
1, 26362, Note_off_c, 1, 60, 0
1, 26370, Note_off_c, 1, 72, 0
1, 26374, Note_on_c, 1, 70, 127
1, 26374, Note_on_c, 1, 61, 127
1, 26400, Note_off_c, 1, 70, 0
1, 26404, Note_on_c, 1, 69, 127
1, 26430, Note_off_c, 1, 69, 0
1, 26434, Note_on_c, 1, 67, 127
1, 26452, Note_off_c, 1, 61, 0
1, 26460, Note_off_c, 1, 67, 0
1, 26464, Note_on_c, 1, 66, 127
1, 26464, Note_on_c, 1, 62, 127
1, 26490, Note_off_c, 1, 66, 0
1, 26494, Note_on_c, 1, 74, 127
1, 26520, Note_off_c, 1, 74, 0
1, 26524, Note_on_c, 1, 76, 127
1, 26550, Note_off_c, 1, 76, 0
1, 26554, Note_on_c, 1, 78, 127
1, 26580, Note_off_c, 1, 62, 0
1, 26580, Note_off_c, 1, 78, 0
1, 26584, Note_on_c, 1, 79, 127
1, 26584, Note_on_c, 1, 60, 127
1, 26610, Note_off_c, 1, 79, 0
1, 26610, Note_off_c, 1, 60, 0
1, 26614, Note_on_c, 1, 81, 127
1, 26614, Note_on_c, 1, 58, 127
1, 26640, Note_off_c, 1, 81, 0
1, 26640, Note_off_c, 1, 58, 0
1, 26644, Note_on_c, 1, 79, 127
1, 26644, Note_on_c, 1, 63, 127
1, 26670, Note_off_c, 1, 63, 0
1, 26674, Note_on_c, 1, 62, 127
1, 26696, Note_off_c, 1, 79, 0
1, 26700, Note_off_c, 1, 62, 0
1, 26704, Note_on_c, 1, 67, 127
1, 26704, Note_on_c, 1, 60, 127
1, 26730, Note_off_c, 1, 67, 0
1, 26730, Note_off_c, 1, 60, 0
1, 26734, Note_on_c, 1, 72, 127
1, 26734, Note_on_c, 1, 58, 127
1, 26760, Note_off_c, 1, 58, 0
1, 26764, Note_on_c, 1, 57, 127
1, 26790, Note_off_c, 1, 57, 0
1, 26794, Note_on_c, 1, 63, 127
1, 26794, Note_on_c, 1, 55, 127
1, 26820, Note_off_c, 1, 63, 0
1, 26820, Note_off_c, 1, 55, 0
1, 26824, Note_on_c, 1, 62, 127
1, 26824, Note_on_c, 1, 54, 127
1, 26850, Note_off_c, 1, 54, 0
1, 26876, Note_off_c, 1, 72, 0
1, 26884, Note_on_c, 1, 69, 127
1, 26910, Note_off_c, 1, 69, 0
1, 26914, Note_on_c, 1, 74, 127
1, 26944, Note_on_c, 1, 52, 127
1, 26966, Note_off_c, 1, 74, 0
1, 26970, Note_off_c, 1, 52, 0
1, 26974, Note_on_c, 1, 50, 127
1, 27000, Note_off_c, 1, 50, 0
1, 27004, Note_on_c, 1, 70, 127
1, 27030, Note_off_c, 1, 62, 0
1, 27082, Note_off_c, 1, 70, 0
1, 27094, Note_on_c, 1, 75, 127
1, 27154, Note_on_c, 1, 67, 127
1, 27180, Note_off_c, 1, 67, 0
1, 27184, Note_on_c, 1, 65, 127
1, 27210, Note_off_c, 1, 75, 0
1, 27214, Note_on_c, 1, 60, 127
1, 27240, Note_off_c, 1, 60, 0
1, 27300, Note_off_c, 1, 65, 0
1, 27304, Note_on_c, 1, 74, 127
1, 27304, Note_on_c, 1, 55, 127
1, 27330, Note_off_c, 1, 74, 0
1, 27330, Note_off_c, 1, 55, 0
1, 27334, Note_on_c, 1, 75, 127
1, 27334, Note_on_c, 1, 53, 127
1, 27360, Note_off_c, 1, 75, 0
1, 27360, Note_off_c, 1, 53, 0
1, 27364, Note_on_c, 1, 74, 127
1, 27364, Note_on_c, 1, 58, 127
1, 27390, Note_off_c, 1, 74, 0
1, 27390, Note_off_c, 1, 58, 0
1, 27394, Note_on_c, 1, 79, 127
1, 27394, Note_on_c, 1, 57, 127
1, 27420, Note_off_c, 1, 79, 0
1, 27420, Note_off_c, 1, 57, 0
1, 27424, Note_on_c, 1, 77, 127
1, 27424, Note_on_c, 1, 58, 127
1, 27450, Note_off_c, 1, 77, 0
1, 27450, Note_off_c, 1, 58, 0
1, 27454, Note_on_c, 1, 75, 127
1, 27454, Note_on_c, 1, 60, 127
1, 27480, Note_off_c, 1, 75, 0
1, 27480, Note_off_c, 1, 60, 0
1, 27484, Note_on_c, 1, 74, 127
1, 27484, Note_on_c, 1, 66, 127
1, 27510, Note_off_c, 1, 74, 0
1, 27510, Note_off_c, 1, 66, 0
1, 27514, Note_on_c, 1, 72, 127
1, 27514, Note_on_c, 1, 69, 127
1, 27540, Note_off_c, 1, 72, 0
1, 27540, Note_off_c, 1, 69, 0
1, 27544, Note_on_c, 1, 70, 127
1, 27544, Note_on_c, 1, 62, 127
1, 27570, Note_off_c, 1, 70, 0
1, 27570, Note_off_c, 1, 62, 0
1, 27574, Note_on_c, 1, 69, 127
1, 27574, Note_on_c, 1, 67, 127
1, 27600, Note_off_c, 1, 69, 0
1, 27600, Note_off_c, 1, 67, 0
1, 27604, Note_on_c, 1, 70, 127
1, 27604, Note_on_c, 1, 65, 127
1, 27630, Note_off_c, 1, 70, 0
1, 27630, Note_off_c, 1, 65, 0
1, 27634, Note_on_c, 1, 72, 127
1, 27634, Note_on_c, 1, 63, 127
1, 27660, Note_off_c, 1, 72, 0
1, 27660, Note_off_c, 1, 63, 0
1, 27664, Note_on_c, 1, 78, 127
1, 27664, Note_on_c, 1, 62, 127
1, 27690, Note_off_c, 1, 78, 0
1, 27690, Note_off_c, 1, 62, 0
1, 27694, Note_on_c, 1, 81, 127
1, 27694, Note_on_c, 1, 60, 127
1, 27720, Note_off_c, 1, 81, 0
1, 27720, Note_off_c, 1, 60, 0
1, 27724, Note_on_c, 1, 74, 127
1, 27724, Note_on_c, 1, 58, 127
1, 27754, Note_on_c, 1, 55, 127
1, 27776, Note_off_c, 1, 74, 0
1, 27776, Note_off_c, 1, 58, 0
1, 27780, Note_off_c, 1, 55, 0
1, 27784, Note_on_c, 1, 70, 127
1, 27784, Note_on_c, 1, 62, 127
1, 27784, Note_on_c, 1, 53, 127
1, 27810, Note_off_c, 1, 70, 0
1, 27810, Note_off_c, 1, 62, 0
1, 27810, Note_off_c, 1, 53, 0
1, 27814, Note_on_c, 1, 72, 127
1, 27814, Note_on_c, 1, 67, 127
1, 27814, Note_on_c, 1, 51, 127
1, 27840, Note_off_c, 1, 72, 0
1, 27840, Note_off_c, 1, 51, 0
1, 27844, Note_on_c, 1, 74, 127
1, 27844, Note_on_c, 1, 50, 127
1, 27870, Note_off_c, 1, 74, 0
1, 27870, Note_off_c, 1, 50, 0
1, 27874, Note_on_c, 1, 75, 127
1, 27874, Note_on_c, 1, 48, 127
1, 27900, Note_off_c, 1, 75, 0
1, 27900, Note_off_c, 1, 48, 0
1, 27904, Note_on_c, 1, 53, 127
1, 27930, Note_off_c, 1, 67, 0
1, 27934, Note_on_c, 1, 65, 127
1, 27956, Note_off_c, 1, 53, 0
1, 27960, Note_off_c, 1, 65, 0
1, 27964, Note_on_c, 1, 69, 127
1, 27964, Note_on_c, 1, 63, 127
1, 27990, Note_off_c, 1, 69, 0
1, 27990, Note_off_c, 1, 63, 0
1, 27994, Note_on_c, 1, 70, 127
1, 27994, Note_on_c, 1, 62, 127
1, 28020, Note_off_c, 1, 70, 0
1, 28020, Note_off_c, 1, 62, 0
1, 28024, Note_on_c, 1, 72, 127
1, 28024, Note_on_c, 1, 60, 127
1, 28050, Note_off_c, 1, 72, 0
1, 28050, Note_off_c, 1, 60, 0
1, 28054, Note_on_c, 1, 74, 127
1, 28054, Note_on_c, 1, 58, 127
1, 28080, Note_off_c, 1, 74, 0
1, 28080, Note_off_c, 1, 58, 0
1, 28084, Note_on_c, 1, 74, 127
1, 28084, Note_on_c, 1, 63, 127
1, 28114, Note_on_c, 1, 51, 127
1, 28136, Note_off_c, 1, 74, 0
1, 28140, Note_off_c, 1, 51, 0
1, 28144, Note_on_c, 1, 67, 127
1, 28144, Note_on_c, 1, 50, 127
1, 28170, Note_off_c, 1, 67, 0
1, 28170, Note_off_c, 1, 50, 0
1, 28174, Note_on_c, 1, 69, 127
1, 28174, Note_on_c, 1, 48, 127
1, 28200, Note_off_c, 1, 69, 0
1, 28200, Note_off_c, 1, 48, 0
1, 28204, Note_on_c, 1, 70, 127
1, 28204, Note_on_c, 1, 46, 127
1, 28230, Note_off_c, 1, 70, 0
1, 28230, Note_off_c, 1, 46, 0
1, 28234, Note_on_c, 1, 72, 127
1, 28234, Note_on_c, 1, 45, 127
1, 28260, Note_off_c, 1, 72, 0
1, 28260, Note_off_c, 1, 45, 0
1, 28290, Note_off_c, 1, 63, 0
1, 28294, Note_on_c, 1, 66, 127
1, 28324, Note_on_c, 1, 62, 127
1, 28350, Note_off_c, 1, 62, 0
1, 28354, Note_on_c, 1, 60, 127
1, 28380, Note_off_c, 1, 66, 0
1, 28380, Note_off_c, 1, 60, 0
1, 28384, Note_on_c, 1, 58, 127
1, 28410, Note_off_c, 1, 58, 0
1, 28414, Note_on_c, 1, 57, 127
1, 28440, Note_off_c, 1, 57, 0
1, 28444, Note_on_c, 1, 55, 127
1, 28470, Note_off_c, 1, 55, 0
1, 28474, Note_on_c, 1, 75, 127
1, 28474, Note_on_c, 1, 54, 127
1, 28500, Note_off_c, 1, 75, 0
1, 28500, Note_off_c, 1, 54, 0
1, 28504, Note_on_c, 1, 74, 127
1, 28504, Note_on_c, 1, 70, 127
1, 28504, Note_on_c, 1, 55, 127
1, 28504, Note_on_c, 1, 46, 127
1, 28530, Note_off_c, 1, 74, 0
1, 28530, Note_off_c, 1, 70, 0
1, 28530, Note_off_c, 1, 55, 0
1, 28530, Note_off_c, 1, 46, 0
1, 28534, Note_on_c, 1, 72, 127
1, 28534, Note_on_c, 1, 69, 127
1, 28534, Note_on_c, 1, 57, 127
1, 28534, Note_on_c, 1, 48, 127
1, 28560, Note_off_c, 1, 72, 0
1, 28560, Note_off_c, 1, 69, 0
1, 28560, Note_off_c, 1, 57, 0
1, 28564, Note_on_c, 1, 70, 127
1, 28564, Note_on_c, 1, 67, 127
1, 28564, Note_on_c, 1, 58, 127
1, 28586, Note_off_c, 1, 48, 0
1, 28590, Note_off_c, 1, 70, 0
1, 28590, Note_off_c, 1, 67, 0
1, 28590, Note_off_c, 1, 58, 0
1, 28594, Note_on_c, 1, 69, 127
1, 28594, Note_on_c, 1, 66, 127
1, 28594, Note_on_c, 1, 60, 127
1, 28594, Note_on_c, 1, 50, 127
1, 28620, Note_off_c, 1, 69, 0
1, 28620, Note_off_c, 1, 66, 0
1, 28620, Note_off_c, 1, 50, 0
1, 28624, Note_on_c, 1, 67, 127
1, 28624, Note_on_c, 1, 55, 127
1, 28650, Note_off_c, 1, 60, 0
1, 28654, Note_on_c, 1, 58, 127
1, 28680, Note_off_c, 1, 58, 0
1, 28684, Note_on_c, 1, 57, 127
1, 28702, Note_off_c, 1, 67, 0
1, 28710, Note_off_c, 1, 57, 0
1, 28740, Note_off_c, 1, 55, 0
1, 28744, Note_on_c, 1, 53, 127
1, 28770, Note_off_c, 1, 53, 0
1, 28774, Note_on_c, 1, 51, 127
1, 28800, Note_off_c, 1, 51, 0
1, 28804, Note_on_c, 1, 50, 127
1, 28834, Note_on_c, 1, 82, 127
1, 28860, Note_off_c, 1, 82, 0
1, 28864, Note_on_c, 1, 81, 127
1, 28882, Note_off_c, 1, 50, 0
1, 28890, Note_off_c, 1, 81, 0
1, 28894, Note_on_c, 1, 79, 127
1, 28894, Note_on_c, 1, 51, 127
1, 28920, Note_off_c, 1, 79, 0
1, 28924, Note_on_c, 1, 77, 127
1, 28950, Note_off_c, 1, 77, 0
1, 28954, Note_on_c, 1, 75, 127
1, 28972, Note_off_c, 1, 51, 0
1, 28980, Note_off_c, 1, 75, 0
1, 28984, Note_on_c, 1, 74, 127
1, 28984, Note_on_c, 1, 53, 127
1, 29014, Note_on_c, 1, 70, 127
1, 29040, Note_off_c, 1, 70, 0
1, 29044, Note_on_c, 1, 68, 127
1, 29062, Note_off_c, 1, 74, 0
1, 29062, Note_off_c, 1, 53, 0
1, 29070, Note_off_c, 1, 68, 0
1, 29074, Note_on_c, 1, 75, 127
1, 29074, Note_on_c, 1, 67, 127
1, 29074, Note_on_c, 1, 55, 127
1, 29100, Note_off_c, 1, 67, 0
1, 29104, Note_on_c, 1, 65, 127
1, 29130, Note_off_c, 1, 65, 0
1, 29134, Note_on_c, 1, 63, 127
1, 29152, Note_off_c, 1, 75, 0
1, 29152, Note_off_c, 1, 55, 0
1, 29160, Note_off_c, 1, 63, 0
1, 29164, Note_on_c, 1, 77, 127
1, 29164, Note_on_c, 1, 62, 127
1, 29164, Note_on_c, 1, 56, 127
1, 29190, Note_off_c, 1, 56, 0
1, 29194, Note_on_c, 1, 58, 127
1, 29216, Note_off_c, 1, 77, 0
1, 29216, Note_off_c, 1, 62, 0
1, 29220, Note_off_c, 1, 58, 0
1, 29224, Note_on_c, 1, 74, 127
1, 29224, Note_on_c, 1, 65, 127
1, 29224, Note_on_c, 1, 56, 127
1, 29250, Note_off_c, 1, 74, 0
1, 29250, Note_off_c, 1, 65, 0
1, 29250, Note_off_c, 1, 56, 0
1, 29254, Note_on_c, 1, 75, 127
1, 29254, Note_on_c, 1, 70, 127
1, 29254, Note_on_c, 1, 55, 127
1, 29280, Note_off_c, 1, 55, 0
1, 29284, Note_on_c, 1, 53, 127
1, 29306, Note_off_c, 1, 75, 0
1, 29310, Note_off_c, 1, 53, 0
1, 29314, Note_on_c, 1, 79, 127
1, 29314, Note_on_c, 1, 51, 127
1, 29340, Note_off_c, 1, 79, 0
1, 29340, Note_off_c, 1, 51, 0
1, 29344, Note_on_c, 1, 72, 127
1, 29396, Note_off_c, 1, 70, 0
1, 29404, Note_on_c, 1, 69, 127
1, 29422, Note_off_c, 1, 72, 0
1, 29434, Note_on_c, 1, 77, 127
1, 29464, Note_on_c, 1, 50, 127
1, 29486, Note_off_c, 1, 69, 0
1, 29490, Note_off_c, 1, 50, 0
1, 29494, Note_on_c, 1, 68, 127
1, 29494, Note_on_c, 1, 48, 127
1, 29520, Note_off_c, 1, 68, 0
1, 29520, Note_off_c, 1, 48, 0
1, 29524, Note_on_c, 1, 67, 127
1, 29524, Note_on_c, 1, 47, 127
1, 29550, Note_off_c, 1, 77, 0
1, 29576, Note_off_c, 1, 47, 0
1, 29584, Note_on_c, 1, 74, 127
1, 29610, Note_off_c, 1, 74, 0
1, 29640, Note_off_c, 1, 67, 0
1, 29704, Note_on_c, 1, 65, 127
1, 29704, Note_on_c, 1, 45, 127
1, 29756, Note_off_c, 1, 45, 0
1, 29794, Note_on_c, 1, 46, 127
1, 29820, Note_off_c, 1, 65, 0
1, 29820, Note_off_c, 1, 46, 0
1, 29824, Note_on_c, 1, 58, 127
1, 29850, Note_off_c, 1, 58, 0
1, 29854, Note_on_c, 1, 57, 127
1, 29880, Note_off_c, 1, 57, 0
1, 30004, Note_on_c, 1, 81, 127
1, 30004, Note_on_c, 1, 72, 127
1, 30004, Note_on_c, 1, 48, 127
1, 30030, Note_off_c, 1, 81, 0
1, 30030, Note_off_c, 1, 72, 0
1, 30030, Note_off_c, 1, 48, 0
1, 30034, Note_on_c, 1, 82, 127
1, 30034, Note_on_c, 1, 74, 127
1, 30034, Note_on_c, 1, 46, 127
1, 30060, Note_off_c, 1, 82, 0
1, 30060, Note_off_c, 1, 74, 0
1, 30060, Note_off_c, 1, 46, 0
1, 30064, Note_on_c, 1, 70, 127
1, 30064, Note_on_c, 1, 74, 127
1, 30064, Note_on_c, 1, 53, 127
1, 30090, Note_off_c, 1, 74, 0
1, 30094, Note_on_c, 1, 72, 127
1, 30120, Note_off_c, 1, 72, 0
1, 30142, Note_off_c, 1, 70, 0
1, 30154, Note_on_c, 1, 69, 127
1, 30180, Note_off_c, 1, 53, 0
1, 30184, Note_on_c, 1, 57, 127
1, 30210, Note_off_c, 1, 57, 0
1, 30214, Note_on_c, 1, 60, 127
1, 30232, Note_off_c, 1, 69, 0
1, 30240, Note_off_c, 1, 60, 0
1, 30244, Note_on_c, 1, 65, 127
1, 30244, Note_on_c, 1, 63, 127
1, 30270, Note_off_c, 1, 65, 0
1, 30270, Note_off_c, 1, 63, 0
1, 30274, Note_on_c, 1, 69, 127
1, 30274, Note_on_c, 1, 62, 127
1, 30300, Note_off_c, 1, 69, 0
1, 30300, Note_off_c, 1, 62, 0
1, 30304, Note_on_c, 1, 72, 127
1, 30304, Note_on_c, 1, 63, 127
1, 30330, Note_off_c, 1, 72, 0
1, 30330, Note_off_c, 1, 63, 0
1, 30334, Note_on_c, 1, 75, 127
1, 30334, Note_on_c, 1, 53, 127
1, 30360, Note_off_c, 1, 75, 0
1, 30360, Note_off_c, 1, 53, 0
1, 30364, Note_on_c, 1, 74, 127
1, 30364, Note_on_c, 1, 57, 127
1, 30390, Note_off_c, 1, 74, 0
1, 30390, Note_off_c, 1, 57, 0
1, 30394, Note_on_c, 1, 75, 127
1, 30394, Note_on_c, 1, 60, 127
1, 30420, Note_off_c, 1, 75, 0
1, 30420, Note_off_c, 1, 60, 0
1, 30424, Note_on_c, 1, 65, 127
1, 30424, Note_on_c, 1, 62, 127
1, 30450, Note_off_c, 1, 65, 0
1, 30450, Note_off_c, 1, 62, 0
1, 30454, Note_on_c, 1, 69, 127
1, 30454, Note_on_c, 1, 60, 127
1, 30480, Note_off_c, 1, 69, 0
1, 30480, Note_off_c, 1, 60, 0
1, 30484, Note_on_c, 1, 70, 127
1, 30484, Note_on_c, 1, 62, 127
1, 30510, Note_off_c, 1, 70, 0
1, 30510, Note_off_c, 1, 62, 0
1, 30514, Note_on_c, 1, 74, 127
1, 30514, Note_on_c, 1, 53, 127
1, 30540, Note_off_c, 1, 74, 0
1, 30540, Note_off_c, 1, 53, 0
1, 30544, Note_on_c, 1, 72, 127
1, 30544, Note_on_c, 1, 57, 127
1, 30570, Note_off_c, 1, 72, 0
1, 30570, Note_off_c, 1, 57, 0
1, 30574, Note_on_c, 1, 74, 127
1, 30574, Note_on_c, 1, 58, 127
1, 30600, Note_off_c, 1, 74, 0
1, 30600, Note_off_c, 1, 58, 0
1, 30604, Note_on_c, 1, 63, 127
1, 30604, Note_on_c, 1, 60, 127
1, 30630, Note_off_c, 1, 63, 0
1, 30630, Note_off_c, 1, 60, 0
1, 30634, Note_on_c, 1, 67, 127
1, 30634, Note_on_c, 1, 58, 127
1, 30660, Note_off_c, 1, 67, 0
1, 30660, Note_off_c, 1, 58, 0
1, 30664, Note_on_c, 1, 69, 127
1, 30664, Note_on_c, 1, 60, 127
1, 30690, Note_off_c, 1, 69, 0
1, 30690, Note_off_c, 1, 60, 0
1, 30694, Note_on_c, 1, 72, 127
1, 30694, Note_on_c, 1, 53, 127
1, 30720, Note_off_c, 1, 72, 0
1, 30720, Note_off_c, 1, 53, 0
1, 30724, Note_on_c, 1, 70, 127
1, 30724, Note_on_c, 1, 55, 127
1, 30750, Note_off_c, 1, 70, 0
1, 30750, Note_off_c, 1, 55, 0
1, 30754, Note_on_c, 1, 72, 127
1, 30754, Note_on_c, 1, 57, 127
1, 30780, Note_off_c, 1, 72, 0
1, 30780, Note_off_c, 1, 57, 0
1, 30784, Note_on_c, 1, 63, 127
1, 30784, Note_on_c, 1, 58, 127
1, 30810, Note_off_c, 1, 63, 0
1, 30810, Note_off_c, 1, 58, 0
1, 30814, Note_on_c, 1, 62, 127
1, 30814, Note_on_c, 1, 53, 127
1, 30840, Note_off_c, 1, 62, 0
1, 30840, Note_off_c, 1, 53, 0
1, 30844, Note_on_c, 1, 65, 127
1, 30844, Note_on_c, 1, 50, 127
1, 30870, Note_off_c, 1, 65, 0
1, 30870, Note_off_c, 1, 50, 0
1, 30874, Note_on_c, 1, 70, 127
1, 30874, Note_on_c, 1, 46, 127
1, 30900, Note_off_c, 1, 70, 0
1, 30900, Note_off_c, 1, 46, 0
1, 30904, Note_on_c, 1, 74, 127
1, 30904, Note_on_c, 1, 53, 127
1, 30930, Note_off_c, 1, 74, 0
1, 30930, Note_off_c, 1, 53, 0
1, 30934, Note_on_c, 1, 75, 127
1, 30934, Note_on_c, 1, 44, 127
1, 30960, Note_off_c, 1, 75, 0
1, 30960, Note_off_c, 1, 44, 0
1, 30964, Note_on_c, 1, 77, 127
1, 30964, Note_on_c, 1, 43, 127
1, 30990, Note_off_c, 1, 77, 0
1, 30990, Note_off_c, 1, 43, 0
1, 30994, Note_on_c, 1, 75, 127
1, 30994, Note_on_c, 1, 47, 127
1, 31020, Note_off_c, 1, 75, 0
1, 31020, Note_off_c, 1, 47, 0
1, 31024, Note_on_c, 1, 77, 127
1, 31024, Note_on_c, 1, 50, 127
1, 31050, Note_off_c, 1, 77, 0
1, 31050, Note_off_c, 1, 50, 0
1, 31054, Note_on_c, 1, 67, 127
1, 31054, Note_on_c, 1, 53, 127
1, 31080, Note_off_c, 1, 67, 0
1, 31080, Note_off_c, 1, 53, 0
1, 31084, Note_on_c, 1, 71, 127
1, 31084, Note_on_c, 1, 51, 127
1, 31110, Note_off_c, 1, 71, 0
1, 31110, Note_off_c, 1, 51, 0
1, 31114, Note_on_c, 1, 74, 127
1, 31114, Note_on_c, 1, 53, 127
1, 31140, Note_off_c, 1, 74, 0
1, 31140, Note_off_c, 1, 53, 0
1, 31144, Note_on_c, 1, 75, 127
1, 31144, Note_on_c, 1, 43, 127
1, 31170, Note_off_c, 1, 75, 0
1, 31170, Note_off_c, 1, 43, 0
1, 31174, Note_on_c, 1, 74, 127
1, 31174, Note_on_c, 1, 47, 127
1, 31200, Note_off_c, 1, 74, 0
1, 31200, Note_off_c, 1, 47, 0
1, 31204, Note_on_c, 1, 75, 127
1, 31204, Note_on_c, 1, 48, 127
1, 31230, Note_off_c, 1, 75, 0
1, 31230, Note_off_c, 1, 48, 0
1, 31234, Note_on_c, 1, 67, 127
1, 31234, Note_on_c, 1, 51, 127
1, 31260, Note_off_c, 1, 67, 0
1, 31260, Note_off_c, 1, 51, 0
1, 31264, Note_on_c, 1, 71, 127
1, 31264, Note_on_c, 1, 50, 127
1, 31290, Note_off_c, 1, 71, 0
1, 31290, Note_off_c, 1, 50, 0
1, 31294, Note_on_c, 1, 72, 127
1, 31294, Note_on_c, 1, 51, 127
1, 31320, Note_off_c, 1, 72, 0
1, 31320, Note_off_c, 1, 51, 0
1, 31324, Note_on_c, 1, 74, 127
1, 31324, Note_on_c, 1, 41, 127
1, 31350, Note_off_c, 1, 74, 0
1, 31350, Note_off_c, 1, 41, 0
1, 31354, Note_on_c, 1, 72, 127
1, 31354, Note_on_c, 1, 44, 127
1, 31380, Note_off_c, 1, 72, 0
1, 31380, Note_off_c, 1, 44, 0
1, 31384, Note_on_c, 1, 74, 127
1, 31384, Note_on_c, 1, 47, 127
1, 31410, Note_off_c, 1, 74, 0
1, 31410, Note_off_c, 1, 47, 0
1, 31414, Note_on_c, 1, 65, 127
1, 31414, Note_on_c, 1, 50, 127
1, 31440, Note_off_c, 1, 65, 0
1, 31440, Note_off_c, 1, 50, 0
1, 31444, Note_on_c, 1, 68, 127
1, 31444, Note_on_c, 1, 48, 127
1, 31470, Note_off_c, 1, 68, 0
1, 31470, Note_off_c, 1, 48, 0
1, 31474, Note_on_c, 1, 71, 127
1, 31474, Note_on_c, 1, 50, 127
1, 31500, Note_off_c, 1, 71, 0
1, 31500, Note_off_c, 1, 50, 0
1, 31504, Note_on_c, 1, 71, 127
1, 31504, Note_on_c, 1, 41, 127
1, 31530, Note_off_c, 1, 71, 0
1, 31530, Note_off_c, 1, 41, 0
1, 31534, Note_on_c, 1, 72, 127
1, 31534, Note_on_c, 1, 39, 127
1, 31560, Note_off_c, 1, 72, 0
1, 31560, Note_off_c, 1, 39, 0
1, 31564, Note_on_c, 1, 67, 127
1, 31564, Note_on_c, 1, 43, 127
1, 31590, Note_off_c, 1, 67, 0
1, 31590, Note_off_c, 1, 43, 0
1, 31594, Note_on_c, 1, 63, 127
1, 31594, Note_on_c, 1, 48, 127
1, 31620, Note_off_c, 1, 48, 0
1, 31624, Note_on_c, 1, 51, 127
1, 31650, Note_off_c, 1, 51, 0
1, 31654, Note_on_c, 1, 55, 127
1, 31680, Note_off_c, 1, 55, 0
1, 31684, Note_on_c, 1, 60, 127
1, 31710, Note_off_c, 1, 63, 0
1, 31714, Note_on_c, 1, 75, 127
1, 31740, Note_off_c, 1, 75, 0
1, 31744, Note_on_c, 1, 74, 127
1, 31770, Note_off_c, 1, 74, 0
1, 31774, Note_on_c, 1, 72, 127
1, 31800, Note_off_c, 1, 60, 0
1, 31800, Note_off_c, 1, 72, 0
1, 31804, Note_on_c, 1, 70, 127
1, 31804, Note_on_c, 1, 62, 127
1, 31830, Note_off_c, 1, 70, 0
1, 31830, Note_off_c, 1, 62, 0
1, 31834, Note_on_c, 1, 68, 127
1, 31834, Note_on_c, 1, 63, 127
1, 31860, Note_off_c, 1, 63, 0
1, 31864, Note_on_c, 1, 77, 127
1, 31864, Note_on_c, 1, 62, 127
1, 31890, Note_off_c, 1, 62, 0
1, 31894, Note_on_c, 1, 58, 127
1, 31920, Note_off_c, 1, 58, 0
1, 31924, Note_on_c, 1, 60, 127
1, 31950, Note_off_c, 1, 60, 0
1, 32014, Note_on_c, 1, 65, 127
1, 32040, Note_off_c, 1, 65, 0
1, 32044, Note_on_c, 1, 55, 127
1, 32070, Note_off_c, 1, 77, 0
1, 32074, Note_on_c, 1, 70, 127
1, 32100, Note_off_c, 1, 70, 0
1, 32104, Note_on_c, 1, 74, 127
1, 32122, Note_off_c, 1, 68, 0
1, 32130, Note_off_c, 1, 74, 0
1, 32134, Note_on_c, 1, 75, 127
1, 32134, Note_on_c, 1, 67, 127
1, 32160, Note_off_c, 1, 55, 0
1, 32160, Note_off_c, 1, 75, 0
1, 32164, Note_on_c, 1, 57, 127
1, 32190, Note_off_c, 1, 57, 0
1, 32212, Note_off_c, 1, 67, 0
1, 32224, Note_on_c, 1, 75, 127
1, 32224, Note_on_c, 1, 65, 127
1, 32224, Note_on_c, 1, 57, 127
1, 32250, Note_off_c, 1, 57, 0
1, 32254, Note_on_c, 1, 53, 127
1, 32280, Note_off_c, 1, 53, 0
1, 32284, Note_on_c, 1, 55, 127
1, 32310, Note_off_c, 1, 55, 0
1, 32344, Note_on_c, 1, 58, 127
1, 32370, Note_off_c, 1, 58, 0
1, 32374, Note_on_c, 1, 60, 127
1, 32400, Note_off_c, 1, 60, 0
1, 32404, Note_on_c, 1, 50, 127
1, 32430, Note_off_c, 1, 65, 0
1, 32464, Note_on_c, 1, 69, 127
1, 32482, Note_off_c, 1, 75, 0
1, 32490, Note_off_c, 1, 69, 0
1, 32494, Note_on_c, 1, 74, 127
1, 32494, Note_on_c, 1, 70, 127
1, 32520, Note_off_c, 1, 50, 0
1, 32520, Note_off_c, 1, 70, 0
1, 32524, Note_on_c, 1, 72, 127
1, 32524, Note_on_c, 1, 52, 127
1, 32550, Note_off_c, 1, 72, 0
1, 32550, Note_off_c, 1, 52, 0
1, 32572, Note_off_c, 1, 74, 0
1, 32584, Note_on_c, 1, 79, 127
1, 32584, Note_on_c, 1, 70, 127
1, 32584, Note_on_c, 1, 52, 127
1, 32610, Note_off_c, 1, 52, 0
1, 32614, Note_on_c, 1, 48, 127
1, 32640, Note_off_c, 1, 48, 0
1, 32644, Note_on_c, 1, 50, 127
1, 32670, Note_off_c, 1, 50, 0
1, 32704, Note_on_c, 1, 53, 127
1, 32730, Note_off_c, 1, 53, 0
1, 32734, Note_on_c, 1, 55, 127
1, 32760, Note_off_c, 1, 55, 0
1, 32764, Note_on_c, 1, 44, 127
1, 32790, Note_off_c, 1, 79, 0
1, 32794, Note_on_c, 1, 72, 127
1, 32820, Note_off_c, 1, 72, 0
1, 32824, Note_on_c, 1, 76, 127
1, 32842, Note_off_c, 1, 70, 0
1, 32850, Note_off_c, 1, 76, 0
1, 32854, Note_on_c, 1, 77, 127
1, 32854, Note_on_c, 1, 68, 127
1, 32880, Note_off_c, 1, 44, 0
1, 32880, Note_off_c, 1, 77, 0
1, 32884, Note_on_c, 1, 46, 127
1, 32910, Note_off_c, 1, 46, 0
1, 32932, Note_off_c, 1, 68, 0
1, 32944, Note_on_c, 1, 77, 127
1, 32944, Note_on_c, 1, 67, 127
1, 32944, Note_on_c, 1, 47, 127
1, 32970, Note_off_c, 1, 47, 0
1, 32974, Note_on_c, 1, 43, 127
1, 33000, Note_off_c, 1, 43, 0
1, 33004, Note_on_c, 1, 45, 127
1, 33030, Note_off_c, 1, 45, 0
1, 33064, Note_on_c, 1, 48, 127
1, 33090, Note_off_c, 1, 48, 0
1, 33094, Note_on_c, 1, 50, 127
1, 33120, Note_off_c, 1, 50, 0
1, 33124, Note_on_c, 1, 39, 127
1, 33150, Note_off_c, 1, 67, 0
1, 33184, Note_on_c, 1, 71, 127
1, 33202, Note_off_c, 1, 77, 0
1, 33210, Note_off_c, 1, 71, 0
1, 33214, Note_on_c, 1, 75, 127
1, 33214, Note_on_c, 1, 72, 127
1, 33240, Note_off_c, 1, 39, 0
1, 33240, Note_off_c, 1, 72, 0
1, 33244, Note_on_c, 1, 74, 127
1, 33244, Note_on_c, 1, 41, 127
1, 33270, Note_off_c, 1, 74, 0
1, 33270, Note_off_c, 1, 41, 0
1, 33292, Note_off_c, 1, 75, 0
1, 33304, Note_on_c, 1, 74, 127
1, 33304, Note_on_c, 1, 72, 127
1, 33304, Note_on_c, 1, 42, 127
1, 33330, Note_off_c, 1, 42, 0
1, 33334, Note_on_c, 1, 38, 127
1, 33360, Note_off_c, 1, 38, 0
1, 33364, Note_on_c, 1, 40, 127
1, 33390, Note_off_c, 1, 40, 0
1, 33424, Note_on_c, 1, 43, 127
1, 33450, Note_off_c, 1, 43, 0
1, 33454, Note_on_c, 1, 45, 127
1, 33480, Note_off_c, 1, 45, 0
1, 33484, Note_on_c, 1, 46, 127
1, 33510, Note_off_c, 1, 72, 0
1, 33510, Note_off_c, 1, 46, 0
1, 33514, Note_on_c, 1, 70, 127
1, 33540, Note_off_c, 1, 70, 0
1, 33544, Note_on_c, 1, 69, 127
1, 33570, Note_off_c, 1, 69, 0
1, 33574, Note_on_c, 1, 67, 127
1, 33600, Note_off_c, 1, 67, 0
1, 33604, Note_on_c, 1, 48, 127
1, 33630, Note_off_c, 1, 48, 0
1, 33634, Note_on_c, 1, 66, 127
1, 33634, Note_on_c, 1, 50, 127
1, 33660, Note_off_c, 1, 66, 0
1, 33660, Note_off_c, 1, 50, 0
1, 33664, Note_on_c, 1, 51, 127
1, 33690, Note_off_c, 1, 74, 0
1, 33690, Note_off_c, 1, 51, 0
1, 33694, Note_on_c, 1, 75, 127
1, 33720, Note_off_c, 1, 75, 0
1, 33784, Note_on_c, 1, 53, 127
1, 33810, Note_off_c, 1, 53, 0
1, 33814, Note_on_c, 1, 55, 127
1, 33840, Note_off_c, 1, 55, 0
1, 33874, Note_on_c, 1, 41, 127
1, 33900, Note_off_c, 1, 41, 0
1, 33934, Note_on_c, 1, 65, 127
1, 33960, Note_off_c, 1, 65, 0
1, 33994, Note_on_c, 1, 63, 127
1, 34020, Note_off_c, 1, 63, 0
1, 34024, Note_on_c, 1, 49, 127
1, 34050, Note_off_c, 1, 49, 0
1, 34054, Note_on_c, 1, 73, 127
1, 34080, Note_off_c, 1, 73, 0
1, 34294, Note_on_c, 1, 64, 127
1, 34372, Note_off_c, 1, 64, 0
1, 34534, Note_on_c, 1, 51, 127
1, 34560, Note_off_c, 1, 51, 0
1, 34564, Note_on_c, 1, 53, 127
1, 34594, Note_on_c, 1, 57, 127
1, 34620, Note_off_c, 1, 57, 0
1, 34624, Note_on_c, 1, 58, 127
1, 34642, Note_off_c, 1, 53, 0
1, 34650, Note_off_c, 1, 58, 0
1, 34654, Note_on_c, 1, 60, 127
1, 34654, Note_on_c, 1, 51, 127
1, 34680, Note_off_c, 1, 60, 0
1, 34684, Note_on_c, 1, 62, 127
1, 34710, Note_off_c, 1, 62, 0
1, 34714, Note_on_c, 1, 63, 127
1, 34732, Note_off_c, 1, 51, 0
1, 34740, Note_off_c, 1, 63, 0
1, 34744, Note_on_c, 1, 65, 127
1, 34744, Note_on_c, 1, 50, 127
1, 34774, Note_on_c, 1, 53, 127
1, 34800, Note_off_c, 1, 53, 0
1, 34804, Note_on_c, 1, 55, 127
1, 34822, Note_off_c, 1, 65, 0
1, 34822, Note_off_c, 1, 50, 0
1, 34830, Note_off_c, 1, 55, 0
1, 34834, Note_on_c, 1, 63, 127
1, 34834, Note_on_c, 1, 57, 127
1, 34834, Note_on_c, 1, 48, 127
1, 34860, Note_off_c, 1, 57, 0
1, 34864, Note_on_c, 1, 58, 127
1, 34890, Note_off_c, 1, 58, 0
1, 34894, Note_on_c, 1, 60, 127
1, 34912, Note_off_c, 1, 63, 0
1, 34912, Note_off_c, 1, 48, 0
1, 34920, Note_off_c, 1, 60, 0
1, 34924, Note_on_c, 1, 62, 127
1, 34924, Note_on_c, 1, 46, 127
1, 34950, Note_off_c, 1, 46, 0
1, 34954, Note_on_c, 1, 60, 127
1, 34980, Note_off_c, 1, 60, 0
1, 34984, Note_on_c, 1, 67, 127
1, 34984, Note_on_c, 1, 58, 127
1, 35010, Note_off_c, 1, 67, 0
1, 35010, Note_off_c, 1, 58, 0
1, 35014, Note_on_c, 1, 66, 127
1, 35014, Note_on_c, 1, 57, 127
1, 35040, Note_off_c, 1, 57, 0
1, 35044, Note_on_c, 1, 55, 127
1, 35066, Note_off_c, 1, 66, 0
1, 35070, Note_off_c, 1, 55, 0
1, 35074, Note_on_c, 1, 72, 127
1, 35074, Note_on_c, 1, 54, 127
1, 35100, Note_off_c, 1, 72, 0
1, 35100, Note_off_c, 1, 54, 0
1, 35104, Note_on_c, 1, 70, 127
1, 35130, Note_off_c, 1, 62, 0
1, 35134, Note_on_c, 1, 69, 127
1, 35160, Note_off_c, 1, 69, 0
1, 35182, Note_off_c, 1, 70, 0
1, 35194, Note_on_c, 1, 68, 127
1, 35194, Note_on_c, 1, 65, 127
1, 35194, Note_on_c, 1, 58, 127
1, 35220, Note_off_c, 1, 65, 0
1, 35224, Note_on_c, 1, 63, 127
1, 35250, Note_off_c, 1, 63, 0
1, 35254, Note_on_c, 1, 62, 127
1, 35272, Note_off_c, 1, 58, 0
1, 35280, Note_off_c, 1, 62, 0
1, 35284, Note_on_c, 1, 51, 127
1, 35310, Note_off_c, 1, 68, 0
1, 35314, Note_on_c, 1, 67, 127
1, 35340, Note_off_c, 1, 67, 0
1, 35344, Note_on_c, 1, 69, 127
1, 35362, Note_off_c, 1, 51, 0
1, 35370, Note_off_c, 1, 69, 0
1, 35374, Note_on_c, 1, 71, 127
1, 35374, Note_on_c, 1, 50, 127
1, 35400, Note_off_c, 1, 71, 0
1, 35404, Note_on_c, 1, 72, 127
1, 35430, Note_off_c, 1, 72, 0
1, 35434, Note_on_c, 1, 74, 127
1, 35452, Note_off_c, 1, 50, 0
1, 35460, Note_off_c, 1, 74, 0
1, 35464, Note_on_c, 1, 75, 127
1, 35464, Note_on_c, 1, 48, 127
1, 35494, Note_on_c, 1, 63, 127
1, 35520, Note_off_c, 1, 63, 0
1, 35524, Note_on_c, 1, 65, 127
1, 35542, Note_off_c, 1, 75, 0
1, 35542, Note_off_c, 1, 48, 0
1, 35550, Note_off_c, 1, 65, 0
1, 35554, Note_on_c, 1, 74, 127
1, 35554, Note_on_c, 1, 67, 127
1, 35554, Note_on_c, 1, 46, 127
1, 35580, Note_off_c, 1, 67, 0
1, 35584, Note_on_c, 1, 69, 127
1, 35610, Note_off_c, 1, 69, 0
1, 35614, Note_on_c, 1, 70, 127
1, 35632, Note_off_c, 1, 74, 0
1, 35632, Note_off_c, 1, 46, 0
1, 35640, Note_off_c, 1, 70, 0
1, 35644, Note_on_c, 1, 72, 127
1, 35644, Note_on_c, 1, 45, 127
1, 35670, Note_off_c, 1, 45, 0
1, 35674, Note_on_c, 1, 58, 127
1, 35700, Note_off_c, 1, 58, 0
1, 35704, Note_on_c, 1, 65, 127
1, 35704, Note_on_c, 1, 57, 127
1, 35730, Note_off_c, 1, 65, 0
1, 35730, Note_off_c, 1, 57, 0
1, 35734, Note_on_c, 1, 64, 127
1, 35734, Note_on_c, 1, 55, 127
1, 35760, Note_off_c, 1, 55, 0
1, 35764, Note_on_c, 1, 53, 127
1, 35786, Note_off_c, 1, 64, 0
1, 35790, Note_off_c, 1, 53, 0
1, 35794, Note_on_c, 1, 70, 127
1, 35794, Note_on_c, 1, 52, 127
1, 35820, Note_off_c, 1, 70, 0
1, 35820, Note_off_c, 1, 52, 0
1, 35824, Note_on_c, 1, 69, 127
1, 35850, Note_off_c, 1, 69, 0
1, 35854, Note_on_c, 1, 41, 127
1, 35880, Note_off_c, 1, 41, 0
1, 35884, Note_on_c, 1, 43, 127
1, 35910, Note_off_c, 1, 43, 0
1, 35914, Note_on_c, 1, 67, 127
1, 35940, Note_off_c, 1, 67, 0
1, 35944, Note_on_c, 1, 46, 127
1, 35970, Note_off_c, 1, 46, 0
1, 35974, Note_on_c, 1, 63, 127
1, 35974, Note_on_c, 1, 48, 127
1, 36000, Note_off_c, 1, 63, 0
1, 36000, Note_off_c, 1, 48, 0
1, 36004, Note_on_c, 1, 50, 127
1, 36030, Note_off_c, 1, 72, 0
1, 36082, Note_off_c, 1, 50, 0
1, 36154, Note_on_c, 1, 75, 127
1, 36180, Note_off_c, 1, 75, 0
1, 36184, Note_on_c, 1, 74, 127
1, 36184, Note_on_c, 1, 46, 127
1, 36214, Note_on_c, 1, 62, 127
1, 36240, Note_off_c, 1, 62, 0
1, 36244, Note_on_c, 1, 67, 127
1, 36262, Note_off_c, 1, 46, 0
1, 36274, Note_on_c, 1, 45, 127
1, 36300, Note_off_c, 1, 67, 0
1, 36304, Note_on_c, 1, 66, 127
1, 36330, Note_off_c, 1, 66, 0
1, 36334, Note_on_c, 1, 72, 127
1, 36352, Note_off_c, 1, 45, 0
1, 36360, Note_off_c, 1, 72, 0
1, 36364, Note_on_c, 1, 70, 127
1, 36364, Note_on_c, 1, 43, 127
1, 36390, Note_off_c, 1, 43, 0
1, 36394, Note_on_c, 1, 68, 127
1, 36420, Note_off_c, 1, 68, 0
1, 36442, Note_off_c, 1, 74, 0
1, 36442, Note_off_c, 1, 70, 0
1, 36454, Note_on_c, 1, 80, 127
1, 36454, Note_on_c, 1, 71, 127
1, 36454, Note_on_c, 1, 65, 127
1, 36480, Note_off_c, 1, 65, 0
1, 36484, Note_on_c, 1, 63, 127
1, 36510, Note_off_c, 1, 63, 0
1, 36514, Note_on_c, 1, 62, 127
1, 36532, Note_off_c, 1, 80, 0
1, 36532, Note_off_c, 1, 71, 0
1, 36540, Note_off_c, 1, 62, 0
1, 36544, Note_on_c, 1, 79, 127
1, 36544, Note_on_c, 1, 72, 127
1, 36544, Note_on_c, 1, 63, 127
1, 36570, Note_off_c, 1, 63, 0
1, 36574, Note_on_c, 1, 65, 127
1, 36596, Note_off_c, 1, 72, 0
1, 36600, Note_off_c, 1, 65, 0
1, 36604, Note_on_c, 1, 69, 127
1, 36622, Note_off_c, 1, 79, 0
1, 36630, Note_off_c, 1, 69, 0
1, 36634, Note_on_c, 1, 77, 127
1, 36634, Note_on_c, 1, 71, 127
1, 36634, Note_on_c, 1, 62, 127
1, 36660, Note_off_c, 1, 62, 0
1, 36664, Note_on_c, 1, 60, 127
1, 36686, Note_off_c, 1, 71, 0
1, 36690, Note_off_c, 1, 60, 0
1, 36694, Note_on_c, 1, 74, 127
1, 36694, Note_on_c, 1, 59, 127
1, 36712, Note_off_c, 1, 77, 0
1, 36720, Note_off_c, 1, 74, 0
1, 36720, Note_off_c, 1, 59, 0
1, 36724, Note_on_c, 1, 75, 127
1, 36724, Note_on_c, 1, 67, 127
1, 36724, Note_on_c, 1, 60, 127
1, 36750, Note_off_c, 1, 60, 0
1, 36754, Note_on_c, 1, 62, 127
1, 36780, Note_off_c, 1, 62, 0
1, 36802, Note_off_c, 1, 75, 0
1, 36802, Note_off_c, 1, 67, 0
1, 36814, Note_on_c, 1, 76, 127
1, 36814, Note_on_c, 1, 73, 127
1, 36814, Note_on_c, 1, 58, 127
1, 36840, Note_off_c, 1, 58, 0
1, 36844, Note_on_c, 1, 57, 127
1, 36870, Note_off_c, 1, 57, 0
1, 36874, Note_on_c, 1, 55, 127
1, 36892, Note_off_c, 1, 76, 0
1, 36892, Note_off_c, 1, 73, 0
1, 36900, Note_off_c, 1, 55, 0
1, 36904, Note_on_c, 1, 77, 127
1, 36904, Note_on_c, 1, 72, 127
1, 36904, Note_on_c, 1, 57, 127
1, 36930, Note_off_c, 1, 57, 0
1, 36934, Note_on_c, 1, 58, 127
1, 36956, Note_off_c, 1, 77, 0
1, 36960, Note_off_c, 1, 58, 0
1, 36964, Note_on_c, 1, 74, 127
1, 36982, Note_off_c, 1, 72, 0
1, 36990, Note_off_c, 1, 74, 0
1, 36994, Note_on_c, 1, 76, 127
1, 36994, Note_on_c, 1, 70, 127
1, 36994, Note_on_c, 1, 55, 127
1, 37020, Note_off_c, 1, 55, 0
1, 37024, Note_on_c, 1, 53, 127
1, 37046, Note_off_c, 1, 76, 0
1, 37050, Note_off_c, 1, 53, 0
1, 37054, Note_on_c, 1, 79, 127
1, 37054, Note_on_c, 1, 52, 127
1, 37080, Note_off_c, 1, 79, 0
1, 37080, Note_off_c, 1, 52, 0
1, 37084, Note_on_c, 1, 72, 127
1, 37136, Note_off_c, 1, 70, 0
1, 37144, Note_on_c, 1, 69, 127
1, 37170, Note_off_c, 1, 69, 0
1, 37174, Note_on_c, 1, 67, 127
1, 37174, Note_on_c, 1, 51, 127
1, 37200, Note_off_c, 1, 51, 0
1, 37204, Note_on_c, 1, 50, 127
1, 37226, Note_off_c, 1, 67, 0
1, 37230, Note_off_c, 1, 50, 0
1, 37234, Note_on_c, 1, 48, 127
1, 37260, Note_off_c, 1, 48, 0
1, 37264, Note_on_c, 1, 65, 127
1, 37316, Note_off_c, 1, 72, 0
1, 37384, Note_on_c, 1, 46, 127
1, 37410, Note_off_c, 1, 46, 0
1, 37414, Note_on_c, 1, 75, 127
1, 37414, Note_on_c, 1, 45, 127
1, 37440, Note_off_c, 1, 75, 0
1, 37440, Note_off_c, 1, 45, 0
1, 37444, Note_on_c, 1, 74, 127
1, 37496, Note_off_c, 1, 65, 0
1, 37534, Note_on_c, 1, 66, 127
1, 37564, Note_on_c, 1, 43, 127
1, 37586, Note_off_c, 1, 66, 0
1, 37590, Note_off_c, 1, 43, 0
1, 37594, Note_on_c, 1, 42, 127
1, 37620, Note_off_c, 1, 42, 0
1, 37676, Note_off_c, 1, 74, 0
1, 37714, Note_on_c, 1, 41, 127
1, 37740, Note_off_c, 1, 41, 0
1, 37744, Note_on_c, 1, 39, 127
1, 37770, Note_off_c, 1, 39, 0
1, 37774, Note_on_c, 1, 80, 127
1, 37774, Note_on_c, 1, 38, 127
1, 37800, Note_off_c, 1, 80, 0
1, 37800, Note_off_c, 1, 38, 0
1, 37834, Note_on_c, 1, 77, 127
1, 37860, Note_off_c, 1, 77, 0
1, 37894, Note_on_c, 1, 68, 127
1, 37972, Note_off_c, 1, 68, 0
1, 38164, Note_on_c, 1, 63, 127
1, 38242, Note_off_c, 1, 63, 0
1, 38254, Note_on_c, 1, 61, 127
1, 38332, Note_off_c, 1, 61, 0
1, 38344, Note_on_c, 1, 60, 127
1, 38422, Note_off_c, 1, 60, 0
1, 38434, Note_on_c, 1, 58, 127
1, 38512, Note_off_c, 1, 58, 0
1, 38524, Note_on_c, 1, 65, 127
1, 38524, Note_on_c, 1, 60, 127
1, 38524, Note_on_c, 1, 57, 127
1, 38524, Note_on_c, 1, 51, 127
1, 38602, Note_off_c, 1, 65, 0
1, 38602, Note_off_c, 1, 60, 0
1, 38602, Note_off_c, 1, 57, 0
1, 38602, Note_off_c, 1, 51, 0
1, 38734, Note_on_c, 1, 53, 127
1, 38734, Note_on_c, 1, 51, 127
1, 38760, Note_off_c, 1, 53, 0
1, 38760, Note_off_c, 1, 51, 0
1, 38764, Note_on_c, 1, 55, 127
1, 38764, Note_on_c, 1, 50, 127
1, 38790, Note_off_c, 1, 55, 0
1, 38790, Note_off_c, 1, 50, 0
1, 38794, Note_on_c, 1, 57, 127
1, 38794, Note_on_c, 1, 48, 127
1, 38820, Note_off_c, 1, 57, 0
1, 38820, Note_off_c, 1, 48, 0
1, 38824, Note_on_c, 1, 58, 127
1, 38824, Note_on_c, 1, 46, 127
1, 38850, Note_off_c, 1, 58, 0
1, 38850, Note_off_c, 1, 46, 0
1, 38854, Note_on_c, 1, 60, 127
1, 38854, Note_on_c, 1, 45, 127
1, 38880, Note_off_c, 1, 60, 0
1, 38880, Note_off_c, 1, 45, 0
1, 38884, Note_on_c, 1, 62, 127
1, 38884, Note_on_c, 1, 46, 127
1, 38910, Note_off_c, 1, 62, 0
1, 38910, Note_off_c, 1, 46, 0
1, 38914, Note_on_c, 1, 63, 127
1, 38914, Note_on_c, 1, 41, 127
1, 38940, Note_off_c, 1, 63, 0
1, 38940, Note_off_c, 1, 41, 0
1, 38944, Note_on_c, 1, 62, 127
1, 38944, Note_on_c, 1, 43, 127
1, 38970, Note_off_c, 1, 62, 0
1, 38970, Note_off_c, 1, 43, 0
1, 38974, Note_on_c, 1, 60, 127
1, 38974, Note_on_c, 1, 45, 127
1, 39000, Note_off_c, 1, 60, 0
1, 39000, Note_off_c, 1, 45, 0
1, 39004, Note_on_c, 1, 58, 127
1, 39004, Note_on_c, 1, 46, 127
1, 39030, Note_off_c, 1, 58, 0
1, 39030, Note_off_c, 1, 46, 0
1, 39034, Note_on_c, 1, 57, 127
1, 39034, Note_on_c, 1, 48, 127
1, 39060, Note_off_c, 1, 57, 0
1, 39060, Note_off_c, 1, 48, 0
1, 39064, Note_on_c, 1, 58, 127
1, 39064, Note_on_c, 1, 50, 127
1, 39090, Note_off_c, 1, 58, 0
1, 39090, Note_off_c, 1, 50, 0
1, 39094, Note_on_c, 1, 68, 127
1, 39094, Note_on_c, 1, 46, 127
1, 39120, Note_off_c, 1, 68, 0
1, 39120, Note_off_c, 1, 46, 0
1, 39124, Note_on_c, 1, 67, 127
1, 39124, Note_on_c, 1, 48, 127
1, 39150, Note_off_c, 1, 67, 0
1, 39150, Note_off_c, 1, 48, 0
1, 39154, Note_on_c, 1, 65, 127
1, 39154, Note_on_c, 1, 50, 127
1, 39180, Note_off_c, 1, 65, 0
1, 39180, Note_off_c, 1, 50, 0
1, 39184, Note_on_c, 1, 63, 127
1, 39184, Note_on_c, 1, 51, 127
1, 39210, Note_off_c, 1, 63, 0
1, 39210, Note_off_c, 1, 51, 0
1, 39214, Note_on_c, 1, 62, 127
1, 39214, Note_on_c, 1, 53, 127
1, 39240, Note_off_c, 1, 62, 0
1, 39240, Note_off_c, 1, 53, 0
1, 39244, Note_on_c, 1, 63, 127
1, 39244, Note_on_c, 1, 55, 127
1, 39270, Note_off_c, 1, 63, 0
1, 39270, Note_off_c, 1, 55, 0
1, 39274, Note_on_c, 1, 58, 127
1, 39274, Note_on_c, 1, 56, 127
1, 39300, Note_off_c, 1, 58, 0
1, 39300, Note_off_c, 1, 56, 0
1, 39304, Note_on_c, 1, 60, 127
1, 39304, Note_on_c, 1, 55, 127
1, 39330, Note_off_c, 1, 60, 0
1, 39330, Note_off_c, 1, 55, 0
1, 39334, Note_on_c, 1, 62, 127
1, 39334, Note_on_c, 1, 53, 127
1, 39360, Note_off_c, 1, 62, 0
1, 39360, Note_off_c, 1, 53, 0
1, 39364, Note_on_c, 1, 63, 127
1, 39364, Note_on_c, 1, 51, 127
1, 39390, Note_off_c, 1, 63, 0
1, 39390, Note_off_c, 1, 51, 0
1, 39394, Note_on_c, 1, 65, 127
1, 39394, Note_on_c, 1, 50, 127
1, 39420, Note_off_c, 1, 65, 0
1, 39420, Note_off_c, 1, 50, 0
1, 39424, Note_on_c, 1, 67, 127
1, 39424, Note_on_c, 1, 51, 127
1, 39450, Note_off_c, 1, 67, 0
1, 39450, Note_off_c, 1, 51, 0
1, 39454, Note_on_c, 1, 63, 127
1, 39454, Note_on_c, 1, 62, 127
1, 39480, Note_off_c, 1, 63, 0
1, 39480, Note_off_c, 1, 62, 0
1, 39484, Note_on_c, 1, 65, 127
1, 39484, Note_on_c, 1, 60, 127
1, 39510, Note_off_c, 1, 65, 0
1, 39510, Note_off_c, 1, 60, 0
1, 39514, Note_on_c, 1, 67, 127
1, 39514, Note_on_c, 1, 58, 127
1, 39540, Note_off_c, 1, 67, 0
1, 39540, Note_off_c, 1, 58, 0
1, 39544, Note_on_c, 1, 69, 127
1, 39544, Note_on_c, 1, 57, 127
1, 39570, Note_off_c, 1, 69, 0
1, 39570, Note_off_c, 1, 57, 0
1, 39574, Note_on_c, 1, 70, 127
1, 39574, Note_on_c, 1, 55, 127
1, 39600, Note_off_c, 1, 70, 0
1, 39600, Note_off_c, 1, 55, 0
1, 39604, Note_on_c, 1, 72, 127
1, 39604, Note_on_c, 1, 57, 127
1, 39630, Note_off_c, 1, 72, 0
1, 39630, Note_off_c, 1, 57, 0
1, 39634, Note_on_c, 1, 74, 127
1, 39634, Note_on_c, 1, 52, 127
1, 39660, Note_off_c, 1, 74, 0
1, 39660, Note_off_c, 1, 52, 0
1, 39664, Note_on_c, 1, 72, 127
1, 39664, Note_on_c, 1, 53, 127
1, 39690, Note_off_c, 1, 72, 0
1, 39690, Note_off_c, 1, 53, 0
1, 39694, Note_on_c, 1, 70, 127
1, 39694, Note_on_c, 1, 55, 127
1, 39720, Note_off_c, 1, 70, 0
1, 39720, Note_off_c, 1, 55, 0
1, 39724, Note_on_c, 1, 69, 127
1, 39724, Note_on_c, 1, 57, 127
1, 39750, Note_off_c, 1, 69, 0
1, 39750, Note_off_c, 1, 57, 0
1, 39754, Note_on_c, 1, 67, 127
1, 39754, Note_on_c, 1, 58, 127
1, 39780, Note_off_c, 1, 67, 0
1, 39780, Note_off_c, 1, 58, 0
1, 39784, Note_on_c, 1, 69, 127
1, 39784, Note_on_c, 1, 60, 127
1, 39810, Note_off_c, 1, 69, 0
1, 39810, Note_off_c, 1, 60, 0
1, 39814, Note_on_c, 1, 79, 127
1, 39814, Note_on_c, 1, 57, 127
1, 39840, Note_off_c, 1, 79, 0
1, 39840, Note_off_c, 1, 57, 0
1, 39844, Note_on_c, 1, 77, 127
1, 39844, Note_on_c, 1, 58, 127
1, 39870, Note_off_c, 1, 77, 0
1, 39870, Note_off_c, 1, 58, 0
1, 39874, Note_on_c, 1, 75, 127
1, 39874, Note_on_c, 1, 60, 127
1, 39900, Note_off_c, 1, 75, 0
1, 39900, Note_off_c, 1, 60, 0
1, 39904, Note_on_c, 1, 74, 127
1, 39904, Note_on_c, 1, 62, 127
1, 39930, Note_off_c, 1, 74, 0
1, 39930, Note_off_c, 1, 62, 0
1, 39934, Note_on_c, 1, 72, 127
1, 39934, Note_on_c, 1, 63, 127
1, 39960, Note_off_c, 1, 72, 0
1, 39960, Note_off_c, 1, 63, 0
1, 39964, Note_on_c, 1, 74, 127
1, 39964, Note_on_c, 1, 65, 127
1, 39990, Note_off_c, 1, 74, 0
1, 39990, Note_off_c, 1, 65, 0
1, 39994, Note_on_c, 1, 69, 127
1, 39994, Note_on_c, 1, 67, 127
1, 40020, Note_off_c, 1, 69, 0
1, 40020, Note_off_c, 1, 67, 0
1, 40024, Note_on_c, 1, 70, 127
1, 40024, Note_on_c, 1, 65, 127
1, 40050, Note_off_c, 1, 70, 0
1, 40050, Note_off_c, 1, 65, 0
1, 40054, Note_on_c, 1, 72, 127
1, 40054, Note_on_c, 1, 63, 127
1, 40080, Note_off_c, 1, 72, 0
1, 40080, Note_off_c, 1, 63, 0
1, 40084, Note_on_c, 1, 74, 127
1, 40084, Note_on_c, 1, 62, 127
1, 40110, Note_off_c, 1, 74, 0
1, 40110, Note_off_c, 1, 62, 0
1, 40114, Note_on_c, 1, 75, 127
1, 40114, Note_on_c, 1, 60, 127
1, 40140, Note_off_c, 1, 75, 0
1, 40140, Note_off_c, 1, 60, 0
1, 40144, Note_on_c, 1, 77, 127
1, 40144, Note_on_c, 1, 62, 127
1, 40170, Note_off_c, 1, 77, 0
1, 40170, Note_off_c, 1, 62, 0
1, 40174, Note_on_c, 1, 74, 127
1, 40174, Note_on_c, 1, 72, 127
1, 40200, Note_off_c, 1, 74, 0
1, 40200, Note_off_c, 1, 72, 0
1, 40204, Note_on_c, 1, 75, 127
1, 40204, Note_on_c, 1, 70, 127
1, 40230, Note_off_c, 1, 75, 0
1, 40230, Note_off_c, 1, 70, 0
1, 40234, Note_on_c, 1, 77, 127
1, 40234, Note_on_c, 1, 68, 127
1, 40260, Note_off_c, 1, 77, 0
1, 40260, Note_off_c, 1, 68, 0
1, 40264, Note_on_c, 1, 79, 127
1, 40264, Note_on_c, 1, 67, 127
1, 40290, Note_off_c, 1, 79, 0
1, 40290, Note_off_c, 1, 67, 0
1, 40294, Note_on_c, 1, 80, 127
1, 40294, Note_on_c, 1, 65, 127
1, 40320, Note_off_c, 1, 80, 0
1, 40320, Note_off_c, 1, 65, 0
1, 40324, Note_on_c, 1, 82, 127
1, 40324, Note_on_c, 1, 67, 127
1, 40350, Note_off_c, 1, 82, 0
1, 40350, Note_off_c, 1, 67, 0
1, 40354, Note_on_c, 1, 84, 127
1, 40354, Note_on_c, 1, 68, 127
1, 40380, Note_off_c, 1, 84, 0
1, 40380, Note_off_c, 1, 68, 0
1, 40384, Note_on_c, 1, 82, 127
1, 40384, Note_on_c, 1, 67, 127
1, 40410, Note_off_c, 1, 82, 0
1, 40410, Note_off_c, 1, 67, 0
1, 40414, Note_on_c, 1, 80, 127
1, 40414, Note_on_c, 1, 65, 127
1, 40440, Note_off_c, 1, 80, 0
1, 40440, Note_off_c, 1, 65, 0
1, 40444, Note_on_c, 1, 79, 127
1, 40444, Note_on_c, 1, 63, 127
1, 40470, Note_off_c, 1, 79, 0
1, 40470, Note_off_c, 1, 63, 0
1, 40474, Note_on_c, 1, 77, 127
1, 40474, Note_on_c, 1, 62, 127
1, 40500, Note_off_c, 1, 77, 0
1, 40500, Note_off_c, 1, 62, 0
1, 40504, Note_on_c, 1, 79, 127
1, 40504, Note_on_c, 1, 63, 127
1, 40530, Note_off_c, 1, 79, 0
1, 40530, Note_off_c, 1, 63, 0
1, 40534, Note_on_c, 1, 80, 127
1, 40534, Note_on_c, 1, 65, 127
1, 40560, Note_off_c, 1, 80, 0
1, 40560, Note_off_c, 1, 65, 0
1, 40564, Note_on_c, 1, 79, 127
1, 40564, Note_on_c, 1, 63, 127
1, 40590, Note_off_c, 1, 79, 0
1, 40590, Note_off_c, 1, 63, 0
1, 40594, Note_on_c, 1, 77, 127
1, 40594, Note_on_c, 1, 62, 127
1, 40620, Note_off_c, 1, 77, 0
1, 40620, Note_off_c, 1, 62, 0
1, 40624, Note_on_c, 1, 75, 127
1, 40624, Note_on_c, 1, 60, 127
1, 40650, Note_off_c, 1, 75, 0
1, 40650, Note_off_c, 1, 60, 0
1, 40654, Note_on_c, 1, 74, 127
1, 40654, Note_on_c, 1, 59, 127
1, 40680, Note_off_c, 1, 74, 0
1, 40680, Note_off_c, 1, 59, 0
1, 40684, Note_on_c, 1, 75, 127
1, 40684, Note_on_c, 1, 60, 127
1, 40710, Note_off_c, 1, 60, 0
1, 40714, Note_on_c, 1, 62, 127
1, 40740, Note_off_c, 1, 62, 0
1, 40774, Note_on_c, 1, 74, 127
1, 40774, Note_on_c, 1, 58, 127
1, 40800, Note_off_c, 1, 58, 0
1, 40804, Note_on_c, 1, 57, 127
1, 40830, Note_off_c, 1, 57, 0
1, 40834, Note_on_c, 1, 55, 127
1, 40852, Note_off_c, 1, 74, 0
1, 40860, Note_off_c, 1, 55, 0
1, 40864, Note_on_c, 1, 72, 127
1, 40894, Note_on_c, 1, 45, 127
1, 40920, Note_off_c, 1, 45, 0
1, 40924, Note_on_c, 1, 46, 127
1, 40942, Note_off_c, 1, 72, 0
1, 40950, Note_off_c, 1, 46, 0
1, 40954, Note_on_c, 1, 70, 127
1, 40954, Note_on_c, 1, 48, 127
1, 40980, Note_off_c, 1, 48, 0
1, 40984, Note_on_c, 1, 50, 127
1, 41010, Note_off_c, 1, 50, 0
1, 41014, Note_on_c, 1, 51, 127
1, 41032, Note_off_c, 1, 70, 0
1, 41040, Note_off_c, 1, 51, 0
1, 41044, Note_on_c, 1, 69, 127
1, 41044, Note_on_c, 1, 41, 127
1, 41070, Note_off_c, 1, 75, 0
1, 41074, Note_on_c, 1, 65, 127
1, 41096, Note_off_c, 1, 69, 0
1, 41100, Note_off_c, 1, 65, 0
1, 41104, Note_on_c, 1, 64, 127
1, 41130, Note_off_c, 1, 64, 0
1, 41164, Note_on_c, 1, 67, 127
1, 41186, Note_off_c, 1, 41, 0
1, 41190, Note_off_c, 1, 67, 0
1, 41194, Note_on_c, 1, 69, 127
1, 41194, Note_on_c, 1, 63, 127
1, 41220, Note_off_c, 1, 69, 0
1, 41220, Note_off_c, 1, 63, 0
1, 41224, Note_on_c, 1, 70, 127
1, 41224, Note_on_c, 1, 61, 127
1, 41250, Note_off_c, 1, 70, 0
1, 41254, Note_on_c, 1, 65, 127
1, 41276, Note_off_c, 1, 61, 0
1, 41280, Note_off_c, 1, 65, 0
1, 41284, Note_on_c, 1, 64, 127
1, 41284, Note_on_c, 1, 60, 127
1, 41310, Note_off_c, 1, 64, 0
1, 41310, Note_off_c, 1, 60, 0
1, 41314, Note_on_c, 1, 65, 127
1, 41314, Note_on_c, 1, 61, 127
1, 41340, Note_off_c, 1, 65, 0
1, 41340, Note_off_c, 1, 61, 0
1, 41344, Note_on_c, 1, 69, 127
1, 41344, Note_on_c, 1, 65, 127
1, 41370, Note_off_c, 1, 69, 0
1, 41370, Note_off_c, 1, 65, 0
1, 41374, Note_on_c, 1, 70, 127
1, 41374, Note_on_c, 1, 58, 127
1, 41400, Note_off_c, 1, 70, 0
1, 41400, Note_off_c, 1, 58, 0
1, 41404, Note_on_c, 1, 72, 127
1, 41404, Note_on_c, 1, 57, 127
1, 41430, Note_off_c, 1, 72, 0
1, 41434, Note_on_c, 1, 65, 127
1, 41456, Note_off_c, 1, 57, 0
1, 41460, Note_off_c, 1, 65, 0
1, 41464, Note_on_c, 1, 64, 127
1, 41464, Note_on_c, 1, 55, 127
1, 41490, Note_off_c, 1, 64, 0
1, 41490, Note_off_c, 1, 55, 0
1, 41494, Note_on_c, 1, 65, 127
1, 41494, Note_on_c, 1, 57, 127
1, 41520, Note_off_c, 1, 65, 0
1, 41520, Note_off_c, 1, 57, 0
1, 41524, Note_on_c, 1, 70, 127
1, 41524, Note_on_c, 1, 60, 127
1, 41550, Note_off_c, 1, 70, 0
1, 41550, Note_off_c, 1, 60, 0
1, 41554, Note_on_c, 1, 72, 127
1, 41554, Note_on_c, 1, 53, 127
1, 41580, Note_off_c, 1, 72, 0
1, 41580, Note_off_c, 1, 53, 0
1, 41584, Note_on_c, 1, 73, 127
1, 41584, Note_on_c, 1, 58, 127
1, 41610, Note_off_c, 1, 73, 0
1, 41610, Note_off_c, 1, 58, 0
1, 41614, Note_on_c, 1, 70, 127
1, 41614, Note_on_c, 1, 61, 127
1, 41640, Note_off_c, 1, 70, 0
1, 41640, Note_off_c, 1, 61, 0
1, 41644, Note_on_c, 1, 72, 127
1, 41644, Note_on_c, 1, 56, 127
1, 41670, Note_off_c, 1, 72, 0
1, 41670, Note_off_c, 1, 56, 0
1, 41674, Note_on_c, 1, 73, 127
1, 41674, Note_on_c, 1, 54, 127
1, 41700, Note_off_c, 1, 73, 0
1, 41700, Note_off_c, 1, 54, 0
1, 41704, Note_on_c, 1, 75, 127
1, 41704, Note_on_c, 1, 58, 127
1, 41730, Note_off_c, 1, 75, 0
1, 41730, Note_off_c, 1, 58, 0
1, 41734, Note_on_c, 1, 77, 127
1, 41734, Note_on_c, 1, 53, 127
1, 41760, Note_off_c, 1, 77, 0
1, 41760, Note_off_c, 1, 53, 0
1, 41764, Note_on_c, 1, 78, 127
1, 41764, Note_on_c, 1, 51, 127
1, 41790, Note_off_c, 1, 78, 0
1, 41794, Note_on_c, 1, 75, 127
1, 41820, Note_off_c, 1, 75, 0
1, 41824, Note_on_c, 1, 77, 127
1, 41850, Note_off_c, 1, 77, 0
1, 41880, Note_off_c, 1, 51, 0
1, 41884, Note_on_c, 1, 80, 127
1, 41884, Note_on_c, 1, 46, 127
1, 41910, Note_off_c, 1, 80, 0
1, 41910, Note_off_c, 1, 46, 0
1, 41914, Note_on_c, 1, 82, 127
1, 41914, Note_on_c, 1, 42, 127
1, 41940, Note_off_c, 1, 82, 0
1, 41940, Note_off_c, 1, 42, 0
1, 41944, Note_on_c, 1, 83, 127
1, 41944, Note_on_c, 1, 39, 127
1, 41970, Note_off_c, 1, 83, 0
1, 41970, Note_off_c, 1, 39, 0
1, 41974, Note_on_c, 1, 82, 127
1, 41974, Note_on_c, 1, 42, 127
1, 42000, Note_off_c, 1, 82, 0
1, 42000, Note_off_c, 1, 42, 0
1, 42004, Note_on_c, 1, 80, 127
1, 42004, Note_on_c, 1, 46, 127
1, 42030, Note_off_c, 1, 80, 0
1, 42030, Note_off_c, 1, 46, 0
1, 42034, Note_on_c, 1, 78, 127
1, 42034, Note_on_c, 1, 51, 127
1, 42060, Note_off_c, 1, 78, 0
1, 42060, Note_off_c, 1, 51, 0
1, 42064, Note_on_c, 1, 77, 127
1, 42064, Note_on_c, 1, 53, 127
1, 42090, Note_off_c, 1, 77, 0
1, 42090, Note_off_c, 1, 53, 0
1, 42094, Note_on_c, 1, 75, 127
1, 42094, Note_on_c, 1, 54, 127
1, 42120, Note_off_c, 1, 75, 0
1, 42124, Note_on_c, 1, 81, 127
1, 42150, Note_off_c, 1, 54, 0
1, 42150, Note_off_c, 1, 81, 0
1, 42154, Note_on_c, 1, 84, 127
1, 42154, Note_on_c, 1, 53, 127
1, 42180, Note_off_c, 1, 84, 0
1, 42180, Note_off_c, 1, 53, 0
1, 42184, Note_on_c, 1, 75, 127
1, 42184, Note_on_c, 1, 55, 127
1, 42210, Note_off_c, 1, 75, 0
1, 42210, Note_off_c, 1, 55, 0
1, 42214, Note_on_c, 1, 78, 127
1, 42214, Note_on_c, 1, 57, 127
1, 42240, Note_off_c, 1, 78, 0
1, 42240, Note_off_c, 1, 57, 0
1, 42244, Note_on_c, 1, 77, 127
1, 42244, Note_on_c, 1, 58, 127
1, 42270, Note_off_c, 1, 77, 0
1, 42270, Note_off_c, 1, 58, 0
1, 42274, Note_on_c, 1, 75, 127
1, 42274, Note_on_c, 1, 60, 127
1, 42300, Note_off_c, 1, 75, 0
1, 42300, Note_off_c, 1, 60, 0
1, 42304, Note_on_c, 1, 77, 127
1, 42304, Note_on_c, 1, 62, 127
1, 42330, Note_off_c, 1, 77, 0
1, 42330, Note_off_c, 1, 62, 0
1, 42334, Note_on_c, 1, 82, 127
1, 42334, Note_on_c, 1, 63, 127
1, 42360, Note_off_c, 1, 82, 0
1, 42360, Note_off_c, 1, 63, 0
1, 42364, Note_on_c, 1, 74, 127
1, 42364, Note_on_c, 1, 65, 127
1, 42390, Note_off_c, 1, 74, 0
1, 42390, Note_off_c, 1, 65, 0
1, 42394, Note_on_c, 1, 75, 127
1, 42394, Note_on_c, 1, 67, 127
1, 42420, Note_off_c, 1, 75, 0
1, 42420, Note_off_c, 1, 67, 0
1, 42424, Note_on_c, 1, 77, 127
1, 42424, Note_on_c, 1, 65, 127
1, 42450, Note_off_c, 1, 77, 0
1, 42450, Note_off_c, 1, 65, 0
1, 42454, Note_on_c, 1, 79, 127
1, 42454, Note_on_c, 1, 63, 127
1, 42480, Note_off_c, 1, 79, 0
1, 42480, Note_off_c, 1, 63, 0
1, 42484, Note_on_c, 1, 77, 127
1, 42484, Note_on_c, 1, 62, 127
1, 42510, Note_off_c, 1, 77, 0
1, 42510, Note_off_c, 1, 62, 0
1, 42514, Note_on_c, 1, 75, 127
1, 42514, Note_on_c, 1, 60, 127
1, 42540, Note_off_c, 1, 75, 0
1, 42540, Note_off_c, 1, 60, 0
1, 42544, Note_on_c, 1, 74, 127
1, 42544, Note_on_c, 1, 58, 127
1, 42570, Note_off_c, 1, 74, 0
1, 42570, Note_off_c, 1, 58, 0
1, 42574, Note_on_c, 1, 72, 127
1, 42574, Note_on_c, 1, 65, 127
1, 42600, Note_off_c, 1, 72, 0
1, 42604, Note_on_c, 1, 82, 127
1, 42626, Note_off_c, 1, 65, 0
1, 42630, Note_off_c, 1, 82, 0
1, 42634, Note_on_c, 1, 81, 127
1, 42634, Note_on_c, 1, 53, 127
1, 42660, Note_off_c, 1, 81, 0
1, 42660, Note_off_c, 1, 53, 0
1, 42664, Note_on_c, 1, 82, 127
1, 42664, Note_on_c, 1, 46, 127
1, 42690, Note_off_c, 1, 82, 0
1, 42690, Note_off_c, 1, 46, 0
1, 42694, Note_on_c, 1, 77, 127
1, 42694, Note_on_c, 1, 50, 127
1, 42720, Note_off_c, 1, 77, 0
1, 42720, Note_off_c, 1, 50, 0
1, 42724, Note_on_c, 1, 74, 127
1, 42724, Note_on_c, 1, 53, 127
1, 42750, Note_off_c, 1, 74, 0
1, 42750, Note_off_c, 1, 53, 0
1, 42754, Note_on_c, 1, 70, 127
1, 42754, Note_on_c, 1, 58, 127
1, 42832, Note_off_c, 1, 70, 0
1, 42832, Note_off_c, 1, 58, 0
1, 42844, Note_on_c, 1, 69, 127
1, 42844, Note_on_c, 1, 41, 127
1, 42870, Note_off_c, 1, 69, 0
1, 42870, Note_off_c, 1, 41, 0
1, 42874, Note_on_c, 1, 65, 127
1, 42874, Note_on_c, 1, 57, 127
1, 42900, Note_off_c, 1, 65, 0
1, 42900, Note_off_c, 1, 57, 0
1, 42904, Note_on_c, 1, 64, 127
1, 42904, Note_on_c, 1, 55, 127
1, 42930, Note_off_c, 1, 64, 0
1, 42930, Note_off_c, 1, 55, 0
1, 42934, Note_on_c, 1, 65, 127
1, 42934, Note_on_c, 1, 57, 127
1, 42960, Note_off_c, 1, 65, 0
1, 42960, Note_off_c, 1, 57, 0
1, 42964, Note_on_c, 1, 67, 127
1, 42964, Note_on_c, 1, 58, 127
1, 42990, Note_off_c, 1, 67, 0
1, 42990, Note_off_c, 1, 58, 0
1, 42994, Note_on_c, 1, 69, 127
1, 42994, Note_on_c, 1, 60, 127
1, 43020, Note_off_c, 1, 69, 0
1, 43020, Note_off_c, 1, 60, 0
1, 43024, Note_on_c, 1, 70, 127
1, 43024, Note_on_c, 1, 43, 127
1, 43050, Note_off_c, 1, 70, 0
1, 43050, Note_off_c, 1, 43, 0
1, 43054, Note_on_c, 1, 65, 127
1, 43054, Note_on_c, 1, 62, 127
1, 43080, Note_off_c, 1, 65, 0
1, 43080, Note_off_c, 1, 62, 0
1, 43084, Note_on_c, 1, 64, 127
1, 43084, Note_on_c, 1, 60, 127
1, 43110, Note_off_c, 1, 64, 0
1, 43110, Note_off_c, 1, 60, 0
1, 43114, Note_on_c, 1, 65, 127
1, 43114, Note_on_c, 1, 58, 127
1, 43140, Note_off_c, 1, 65, 0
1, 43140, Note_off_c, 1, 58, 0
1, 43144, Note_on_c, 1, 69, 127
1, 43144, Note_on_c, 1, 57, 127
1, 43170, Note_off_c, 1, 69, 0
1, 43170, Note_off_c, 1, 57, 0
1, 43174, Note_on_c, 1, 70, 127
1, 43174, Note_on_c, 1, 55, 127
1, 43200, Note_off_c, 1, 70, 0
1, 43200, Note_off_c, 1, 55, 0
1, 43204, Note_on_c, 1, 72, 127
1, 43204, Note_on_c, 1, 45, 127
1, 43230, Note_off_c, 1, 72, 0
1, 43230, Note_off_c, 1, 45, 0
1, 43234, Note_on_c, 1, 65, 127
1, 43234, Note_on_c, 1, 57, 127
1, 43260, Note_off_c, 1, 65, 0
1, 43260, Note_off_c, 1, 57, 0
1, 43264, Note_on_c, 1, 64, 127
1, 43264, Note_on_c, 1, 58, 127
1, 43290, Note_off_c, 1, 64, 0
1, 43290, Note_off_c, 1, 58, 0
1, 43294, Note_on_c, 1, 65, 127
1, 43294, Note_on_c, 1, 57, 127
1, 43320, Note_off_c, 1, 65, 0
1, 43320, Note_off_c, 1, 57, 0
1, 43324, Note_on_c, 1, 70, 127
1, 43324, Note_on_c, 1, 55, 127
1, 43350, Note_off_c, 1, 70, 0
1, 43350, Note_off_c, 1, 55, 0
1, 43354, Note_on_c, 1, 72, 127
1, 43354, Note_on_c, 1, 53, 127
1, 43380, Note_off_c, 1, 72, 0
1, 43380, Note_off_c, 1, 53, 0
1, 43384, Note_on_c, 1, 74, 127
1, 43384, Note_on_c, 1, 46, 127
1, 43410, Note_off_c, 1, 46, 0
1, 43414, Note_on_c, 1, 70, 127
1, 43414, Note_on_c, 1, 50, 127
1, 43440, Note_off_c, 1, 50, 0
1, 43444, Note_on_c, 1, 65, 127
1, 43444, Note_on_c, 1, 51, 127
1, 43470, Note_off_c, 1, 51, 0
1, 43474, Note_on_c, 1, 62, 127
1, 43474, Note_on_c, 1, 53, 127
1, 43500, Note_off_c, 1, 53, 0
1, 43504, Note_on_c, 1, 55, 127
1, 43526, Note_off_c, 1, 74, 0
1, 43526, Note_off_c, 1, 70, 0
1, 43526, Note_off_c, 1, 65, 0
1, 43530, Note_off_c, 1, 55, 0
1, 43534, Note_on_c, 1, 72, 127
1, 43534, Note_on_c, 1, 56, 127
1, 43560, Note_off_c, 1, 72, 0
1, 43560, Note_off_c, 1, 56, 0
1, 43564, Note_on_c, 1, 71, 127
1, 43564, Note_on_c, 1, 43, 127
1, 43590, Note_off_c, 1, 62, 0
1, 43590, Note_off_c, 1, 71, 0
1, 43590, Note_off_c, 1, 43, 0
1, 43594, Note_on_c, 1, 67, 127
1, 43594, Note_on_c, 1, 59, 127
1, 43620, Note_off_c, 1, 67, 0
1, 43620, Note_off_c, 1, 59, 0
1, 43624, Note_on_c, 1, 66, 127
1, 43624, Note_on_c, 1, 57, 127
1, 43650, Note_off_c, 1, 66, 0
1, 43650, Note_off_c, 1, 57, 0
1, 43654, Note_on_c, 1, 67, 127
1, 43654, Note_on_c, 1, 59, 127
1, 43680, Note_off_c, 1, 67, 0
1, 43680, Note_off_c, 1, 59, 0
1, 43684, Note_on_c, 1, 69, 127
1, 43684, Note_on_c, 1, 60, 127
1, 43710, Note_off_c, 1, 69, 0
1, 43710, Note_off_c, 1, 60, 0
1, 43714, Note_on_c, 1, 71, 127
1, 43714, Note_on_c, 1, 62, 127
1, 43740, Note_off_c, 1, 71, 0
1, 43740, Note_off_c, 1, 62, 0
1, 43744, Note_on_c, 1, 72, 127
1, 43744, Note_on_c, 1, 45, 127
1, 43770, Note_off_c, 1, 72, 0
1, 43770, Note_off_c, 1, 45, 0
1, 43774, Note_on_c, 1, 67, 127
1, 43774, Note_on_c, 1, 63, 127
1, 43800, Note_off_c, 1, 67, 0
1, 43800, Note_off_c, 1, 63, 0
1, 43804, Note_on_c, 1, 66, 127
1, 43804, Note_on_c, 1, 62, 127
1, 43830, Note_off_c, 1, 66, 0
1, 43830, Note_off_c, 1, 62, 0
1, 43834, Note_on_c, 1, 67, 127
1, 43834, Note_on_c, 1, 60, 127
1, 43860, Note_off_c, 1, 67, 0
1, 43860, Note_off_c, 1, 60, 0
1, 43864, Note_on_c, 1, 71, 127
1, 43864, Note_on_c, 1, 59, 127
1, 43890, Note_off_c, 1, 71, 0
1, 43890, Note_off_c, 1, 59, 0
1, 43894, Note_on_c, 1, 72, 127
1, 43894, Note_on_c, 1, 57, 127
1, 43920, Note_off_c, 1, 72, 0
1, 43920, Note_off_c, 1, 57, 0
1, 43924, Note_on_c, 1, 74, 127
1, 43924, Note_on_c, 1, 47, 127
1, 43950, Note_off_c, 1, 74, 0
1, 43950, Note_off_c, 1, 47, 0
1, 43954, Note_on_c, 1, 67, 127
1, 43954, Note_on_c, 1, 59, 127
1, 43980, Note_off_c, 1, 67, 0
1, 43980, Note_off_c, 1, 59, 0
1, 43984, Note_on_c, 1, 66, 127
1, 43984, Note_on_c, 1, 60, 127
1, 44010, Note_off_c, 1, 66, 0
1, 44010, Note_off_c, 1, 60, 0
1, 44014, Note_on_c, 1, 67, 127
1, 44014, Note_on_c, 1, 59, 127
1, 44040, Note_off_c, 1, 67, 0
1, 44040, Note_off_c, 1, 59, 0
1, 44044, Note_on_c, 1, 72, 127
1, 44044, Note_on_c, 1, 57, 127
1, 44070, Note_off_c, 1, 72, 0
1, 44070, Note_off_c, 1, 57, 0
1, 44074, Note_on_c, 1, 74, 127
1, 44074, Note_on_c, 1, 55, 127
1, 44100, Note_off_c, 1, 74, 0
1, 44100, Note_off_c, 1, 55, 0
1, 44104, Note_on_c, 1, 75, 127
1, 44104, Note_on_c, 1, 48, 127
1, 44130, Note_off_c, 1, 75, 0
1, 44130, Note_off_c, 1, 48, 0
1, 44134, Note_on_c, 1, 72, 127
1, 44134, Note_on_c, 1, 51, 127
1, 44160, Note_off_c, 1, 72, 0
1, 44160, Note_off_c, 1, 51, 0
1, 44164, Note_on_c, 1, 67, 127
1, 44164, Note_on_c, 1, 53, 127
1, 44190, Note_off_c, 1, 53, 0
1, 44194, Note_on_c, 1, 55, 127
1, 44220, Note_off_c, 1, 67, 0
1, 44220, Note_off_c, 1, 55, 0
1, 44224, Note_on_c, 1, 79, 127
1, 44224, Note_on_c, 1, 57, 127
1, 44250, Note_off_c, 1, 79, 0
1, 44250, Note_off_c, 1, 57, 0
1, 44254, Note_on_c, 1, 77, 127
1, 44254, Note_on_c, 1, 59, 127
1, 44280, Note_off_c, 1, 77, 0
1, 44280, Note_off_c, 1, 59, 0
1, 44284, Note_on_c, 1, 75, 127
1, 44284, Note_on_c, 1, 60, 127
1, 44310, Note_off_c, 1, 75, 0
1, 44314, Note_on_c, 1, 74, 127
1, 44340, Note_off_c, 1, 74, 0
1, 44344, Note_on_c, 1, 72, 127
1, 44362, Note_off_c, 1, 60, 0
1, 44370, Note_off_c, 1, 72, 0
1, 44374, Note_on_c, 1, 70, 127
1, 44374, Note_on_c, 1, 79, 127
1, 44400, Note_off_c, 1, 70, 0
1, 44404, Note_on_c, 1, 75, 127
1, 44430, Note_off_c, 1, 75, 0
1, 44434, Note_on_c, 1, 72, 127
1, 44452, Note_off_c, 1, 79, 0
1, 44460, Note_off_c, 1, 72, 0
1, 44464, Note_on_c, 1, 68, 127
1, 44464, Note_on_c, 1, 84, 127
1, 44490, Note_off_c, 1, 68, 0
1, 44494, Note_on_c, 1, 75, 127
1, 44520, Note_off_c, 1, 75, 0
1, 44524, Note_on_c, 1, 72, 127
1, 44542, Note_off_c, 1, 84, 0
1, 44550, Note_off_c, 1, 72, 0
1, 44554, Note_on_c, 1, 65, 127
1, 44554, Note_on_c, 1, 56, 127
1, 44580, Note_off_c, 1, 65, 0
1, 44584, Note_on_c, 1, 72, 127
1, 44610, Note_off_c, 1, 72, 0
1, 44614, Note_on_c, 1, 75, 127
1, 44632, Note_off_c, 1, 56, 0
1, 44640, Note_off_c, 1, 75, 0
1, 44644, Note_on_c, 1, 74, 127
1, 44644, Note_on_c, 1, 58, 127
1, 44670, Note_off_c, 1, 74, 0
1, 44674, Note_on_c, 1, 72, 127
1, 44700, Note_off_c, 1, 72, 0
1, 44704, Note_on_c, 1, 70, 127
1, 44722, Note_off_c, 1, 58, 0
1, 44730, Note_off_c, 1, 70, 0
1, 44734, Note_on_c, 1, 68, 127
1, 44734, Note_on_c, 1, 77, 127
1, 44760, Note_off_c, 1, 68, 0
1, 44764, Note_on_c, 1, 74, 127
1, 44790, Note_off_c, 1, 74, 0
1, 44794, Note_on_c, 1, 70, 127
1, 44812, Note_off_c, 1, 77, 0
1, 44820, Note_off_c, 1, 70, 0
1, 44824, Note_on_c, 1, 67, 127
1, 44824, Note_on_c, 1, 82, 127
1, 44850, Note_off_c, 1, 67, 0
1, 44854, Note_on_c, 1, 73, 127
1, 44880, Note_off_c, 1, 73, 0
1, 44884, Note_on_c, 1, 70, 127
1, 44902, Note_off_c, 1, 82, 0
1, 44910, Note_off_c, 1, 70, 0
1, 44914, Note_on_c, 1, 63, 127
1, 44914, Note_on_c, 1, 55, 127
1, 44940, Note_off_c, 1, 63, 0
1, 44944, Note_on_c, 1, 70, 127
1, 44970, Note_off_c, 1, 70, 0
1, 44974, Note_on_c, 1, 73, 127
1, 44992, Note_off_c, 1, 55, 0
1, 45000, Note_off_c, 1, 73, 0
1, 45004, Note_on_c, 1, 72, 127
1, 45004, Note_on_c, 1, 56, 127
1, 45030, Note_off_c, 1, 72, 0
1, 45034, Note_on_c, 1, 71, 127
1, 45060, Note_off_c, 1, 71, 0
1, 45082, Note_off_c, 1, 56, 0
1, 45094, Note_on_c, 1, 75, 127
1, 45094, Note_on_c, 1, 67, 127
1, 45120, Note_off_c, 1, 67, 0
1, 45124, Note_on_c, 1, 72, 127
1, 45150, Note_off_c, 1, 72, 0
1, 45154, Note_on_c, 1, 68, 127
1, 45172, Note_off_c, 1, 75, 0
1, 45180, Note_off_c, 1, 68, 0
1, 45184, Note_on_c, 1, 80, 127
1, 45184, Note_on_c, 1, 65, 127
1, 45210, Note_off_c, 1, 65, 0
1, 45214, Note_on_c, 1, 72, 127
1, 45240, Note_off_c, 1, 72, 0
1, 45244, Note_on_c, 1, 68, 127
1, 45262, Note_off_c, 1, 80, 0
1, 45270, Note_off_c, 1, 68, 0
1, 45274, Note_on_c, 1, 53, 127
1, 45274, Note_on_c, 1, 62, 127
1, 45300, Note_off_c, 1, 62, 0
1, 45304, Note_on_c, 1, 68, 127
1, 45330, Note_off_c, 1, 68, 0
1, 45334, Note_on_c, 1, 72, 127
1, 45352, Note_off_c, 1, 53, 0
1, 45360, Note_off_c, 1, 72, 0
1, 45364, Note_on_c, 1, 55, 127
1, 45364, Note_on_c, 1, 71, 127
1, 45390, Note_off_c, 1, 71, 0
1, 45394, Note_on_c, 1, 69, 127
1, 45420, Note_off_c, 1, 69, 0
1, 45424, Note_on_c, 1, 67, 127
1, 45442, Note_off_c, 1, 55, 0
1, 45450, Note_off_c, 1, 67, 0
1, 45454, Note_on_c, 1, 74, 127
1, 45454, Note_on_c, 1, 65, 127
1, 45480, Note_off_c, 1, 65, 0
1, 45484, Note_on_c, 1, 71, 127
1, 45510, Note_off_c, 1, 71, 0
1, 45514, Note_on_c, 1, 67, 127
1, 45532, Note_off_c, 1, 74, 0
1, 45540, Note_off_c, 1, 67, 0
1, 45544, Note_on_c, 1, 79, 127
1, 45544, Note_on_c, 1, 64, 127
1, 45570, Note_off_c, 1, 64, 0
1, 45574, Note_on_c, 1, 70, 127
1, 45600, Note_off_c, 1, 70, 0
1, 45604, Note_on_c, 1, 67, 127
1, 45622, Note_off_c, 1, 79, 0
1, 45630, Note_off_c, 1, 67, 0
1, 45634, Note_on_c, 1, 52, 127
1, 45634, Note_on_c, 1, 60, 127
1, 45660, Note_off_c, 1, 60, 0
1, 45664, Note_on_c, 1, 67, 127
1, 45690, Note_off_c, 1, 67, 0
1, 45694, Note_on_c, 1, 70, 127
1, 45712, Note_off_c, 1, 52, 0
1, 45720, Note_off_c, 1, 70, 0
1, 45724, Note_on_c, 1, 53, 127
1, 45724, Note_on_c, 1, 68, 127
1, 45750, Note_off_c, 1, 68, 0
1, 45754, Note_on_c, 1, 67, 127
1, 45780, Note_off_c, 1, 67, 0
1, 45784, Note_on_c, 1, 65, 127
1, 45802, Note_off_c, 1, 53, 0
1, 45810, Note_off_c, 1, 65, 0
1, 45814, Note_on_c, 1, 77, 127
1, 45814, Note_on_c, 1, 63, 127
1, 45840, Note_off_c, 1, 63, 0
1, 45844, Note_on_c, 1, 62, 127
1, 45870, Note_off_c, 1, 62, 0
1, 45874, Note_on_c, 1, 60, 127
1, 45900, Note_off_c, 1, 60, 0
1, 45904, Note_on_c, 1, 59, 127
1, 45930, Note_off_c, 1, 77, 0
1, 45934, Note_on_c, 1, 67, 127
1, 45960, Note_off_c, 1, 67, 0
1, 45964, Note_on_c, 1, 69, 127
1, 45982, Note_off_c, 1, 59, 0
1, 45990, Note_off_c, 1, 69, 0
1, 45994, Note_on_c, 1, 71, 127
1, 45994, Note_on_c, 1, 55, 127
1, 46020, Note_off_c, 1, 71, 0
1, 46024, Note_on_c, 1, 72, 127
1, 46050, Note_off_c, 1, 72, 0
1, 46054, Note_on_c, 1, 74, 127
1, 46072, Note_off_c, 1, 55, 0
1, 46080, Note_off_c, 1, 74, 0
1, 46084, Note_on_c, 1, 75, 127
1, 46084, Note_on_c, 1, 60, 127
1, 46110, Note_off_c, 1, 75, 0
1, 46114, Note_on_c, 1, 74, 127
1, 46140, Note_off_c, 1, 74, 0
1, 46144, Note_on_c, 1, 72, 127
1, 46162, Note_off_c, 1, 60, 0
1, 46170, Note_off_c, 1, 72, 0
1, 46174, Note_on_c, 1, 70, 127
1, 46174, Note_on_c, 1, 61, 127
1, 46200, Note_off_c, 1, 70, 0
1, 46204, Note_on_c, 1, 69, 127
1, 46230, Note_off_c, 1, 69, 0
1, 46234, Note_on_c, 1, 67, 127
1, 46252, Note_off_c, 1, 61, 0
1, 46260, Note_off_c, 1, 67, 0
1, 46264, Note_on_c, 1, 66, 127
1, 46264, Note_on_c, 1, 62, 127
1, 46290, Note_off_c, 1, 66, 0
1, 46294, Note_on_c, 1, 74, 127
1, 46320, Note_off_c, 1, 74, 0
1, 46324, Note_on_c, 1, 76, 127
1, 46350, Note_off_c, 1, 76, 0
1, 46354, Note_on_c, 1, 78, 127
1, 46380, Note_off_c, 1, 62, 0
1, 46380, Note_off_c, 1, 78, 0
1, 46384, Note_on_c, 1, 79, 127
1, 46384, Note_on_c, 1, 60, 127
1, 46410, Note_off_c, 1, 79, 0
1, 46410, Note_off_c, 1, 60, 0
1, 46414, Note_on_c, 1, 81, 127
1, 46414, Note_on_c, 1, 58, 127
1, 46440, Note_off_c, 1, 81, 0
1, 46440, Note_off_c, 1, 58, 0
1, 46444, Note_on_c, 1, 79, 127
1, 46444, Note_on_c, 1, 63, 127
1, 46470, Note_off_c, 1, 63, 0
1, 46474, Note_on_c, 1, 62, 127
1, 46496, Note_off_c, 1, 79, 0
1, 46500, Note_off_c, 1, 62, 0
1, 46504, Note_on_c, 1, 67, 127
1, 46504, Note_on_c, 1, 60, 127
1, 46530, Note_off_c, 1, 67, 0
1, 46530, Note_off_c, 1, 60, 0
1, 46534, Note_on_c, 1, 72, 127
1, 46534, Note_on_c, 1, 58, 127
1, 46560, Note_off_c, 1, 58, 0
1, 46564, Note_on_c, 1, 57, 127
1, 46590, Note_off_c, 1, 57, 0
1, 46594, Note_on_c, 1, 63, 127
1, 46594, Note_on_c, 1, 55, 127
1, 46620, Note_off_c, 1, 63, 0
1, 46620, Note_off_c, 1, 55, 0
1, 46624, Note_on_c, 1, 62, 127
1, 46624, Note_on_c, 1, 54, 127
1, 46650, Note_off_c, 1, 54, 0
1, 46676, Note_off_c, 1, 72, 0
1, 46684, Note_on_c, 1, 69, 127
1, 46710, Note_off_c, 1, 69, 0
1, 46714, Note_on_c, 1, 74, 127
1, 46744, Note_on_c, 1, 52, 127
1, 46766, Note_off_c, 1, 74, 0
1, 46770, Note_off_c, 1, 52, 0
1, 46774, Note_on_c, 1, 50, 127
1, 46800, Note_off_c, 1, 50, 0
1, 46804, Note_on_c, 1, 70, 127
1, 46830, Note_off_c, 1, 62, 0
1, 46882, Note_off_c, 1, 70, 0
1, 46894, Note_on_c, 1, 75, 127
1, 46954, Note_on_c, 1, 67, 127
1, 46980, Note_off_c, 1, 67, 0
1, 46984, Note_on_c, 1, 65, 127
1, 47010, Note_off_c, 1, 75, 0
1, 47014, Note_on_c, 1, 60, 127
1, 47040, Note_off_c, 1, 60, 0
1, 47100, Note_off_c, 1, 65, 0
1, 47104, Note_on_c, 1, 74, 127
1, 47104, Note_on_c, 1, 55, 127
1, 47130, Note_off_c, 1, 74, 0
1, 47130, Note_off_c, 1, 55, 0
1, 47134, Note_on_c, 1, 75, 127
1, 47134, Note_on_c, 1, 53, 127
1, 47160, Note_off_c, 1, 75, 0
1, 47160, Note_off_c, 1, 53, 0
1, 47164, Note_on_c, 1, 74, 127
1, 47164, Note_on_c, 1, 58, 127
1, 47190, Note_off_c, 1, 74, 0
1, 47190, Note_off_c, 1, 58, 0
1, 47194, Note_on_c, 1, 79, 127
1, 47194, Note_on_c, 1, 57, 127
1, 47220, Note_off_c, 1, 79, 0
1, 47220, Note_off_c, 1, 57, 0
1, 47224, Note_on_c, 1, 77, 127
1, 47224, Note_on_c, 1, 58, 127
1, 47250, Note_off_c, 1, 77, 0
1, 47250, Note_off_c, 1, 58, 0
1, 47254, Note_on_c, 1, 75, 127
1, 47254, Note_on_c, 1, 60, 127
1, 47280, Note_off_c, 1, 75, 0
1, 47280, Note_off_c, 1, 60, 0
1, 47284, Note_on_c, 1, 74, 127
1, 47284, Note_on_c, 1, 66, 127
1, 47310, Note_off_c, 1, 74, 0
1, 47310, Note_off_c, 1, 66, 0
1, 47314, Note_on_c, 1, 72, 127
1, 47314, Note_on_c, 1, 69, 127
1, 47340, Note_off_c, 1, 72, 0
1, 47340, Note_off_c, 1, 69, 0
1, 47344, Note_on_c, 1, 70, 127
1, 47344, Note_on_c, 1, 62, 127
1, 47370, Note_off_c, 1, 70, 0
1, 47370, Note_off_c, 1, 62, 0
1, 47374, Note_on_c, 1, 69, 127
1, 47374, Note_on_c, 1, 67, 127
1, 47400, Note_off_c, 1, 69, 0
1, 47400, Note_off_c, 1, 67, 0
1, 47404, Note_on_c, 1, 70, 127
1, 47404, Note_on_c, 1, 65, 127
1, 47430, Note_off_c, 1, 70, 0
1, 47430, Note_off_c, 1, 65, 0
1, 47434, Note_on_c, 1, 72, 127
1, 47434, Note_on_c, 1, 63, 127
1, 47460, Note_off_c, 1, 72, 0
1, 47460, Note_off_c, 1, 63, 0
1, 47464, Note_on_c, 1, 78, 127
1, 47464, Note_on_c, 1, 62, 127
1, 47490, Note_off_c, 1, 78, 0
1, 47490, Note_off_c, 1, 62, 0
1, 47494, Note_on_c, 1, 81, 127
1, 47494, Note_on_c, 1, 60, 127
1, 47520, Note_off_c, 1, 81, 0
1, 47520, Note_off_c, 1, 60, 0
1, 47524, Note_on_c, 1, 74, 127
1, 47524, Note_on_c, 1, 58, 127
1, 47554, Note_on_c, 1, 55, 127
1, 47576, Note_off_c, 1, 74, 0
1, 47576, Note_off_c, 1, 58, 0
1, 47580, Note_off_c, 1, 55, 0
1, 47584, Note_on_c, 1, 70, 127
1, 47584, Note_on_c, 1, 62, 127
1, 47584, Note_on_c, 1, 53, 127
1, 47610, Note_off_c, 1, 70, 0
1, 47610, Note_off_c, 1, 62, 0
1, 47610, Note_off_c, 1, 53, 0
1, 47614, Note_on_c, 1, 72, 127
1, 47614, Note_on_c, 1, 67, 127
1, 47614, Note_on_c, 1, 51, 127
1, 47640, Note_off_c, 1, 72, 0
1, 47640, Note_off_c, 1, 51, 0
1, 47644, Note_on_c, 1, 74, 127
1, 47644, Note_on_c, 1, 50, 127
1, 47670, Note_off_c, 1, 74, 0
1, 47670, Note_off_c, 1, 50, 0
1, 47674, Note_on_c, 1, 75, 127
1, 47674, Note_on_c, 1, 48, 127
1, 47700, Note_off_c, 1, 75, 0
1, 47700, Note_off_c, 1, 48, 0
1, 47704, Note_on_c, 1, 53, 127
1, 47730, Note_off_c, 1, 67, 0
1, 47734, Note_on_c, 1, 65, 127
1, 47756, Note_off_c, 1, 53, 0
1, 47760, Note_off_c, 1, 65, 0
1, 47764, Note_on_c, 1, 69, 127
1, 47764, Note_on_c, 1, 63, 127
1, 47790, Note_off_c, 1, 69, 0
1, 47790, Note_off_c, 1, 63, 0
1, 47794, Note_on_c, 1, 70, 127
1, 47794, Note_on_c, 1, 62, 127
1, 47820, Note_off_c, 1, 70, 0
1, 47820, Note_off_c, 1, 62, 0
1, 47824, Note_on_c, 1, 72, 127
1, 47824, Note_on_c, 1, 60, 127
1, 47850, Note_off_c, 1, 72, 0
1, 47850, Note_off_c, 1, 60, 0
1, 47854, Note_on_c, 1, 74, 127
1, 47854, Note_on_c, 1, 58, 127
1, 47880, Note_off_c, 1, 74, 0
1, 47880, Note_off_c, 1, 58, 0
1, 47884, Note_on_c, 1, 74, 127
1, 47884, Note_on_c, 1, 63, 127
1, 47914, Note_on_c, 1, 51, 127
1, 47936, Note_off_c, 1, 74, 0
1, 47940, Note_off_c, 1, 51, 0
1, 47944, Note_on_c, 1, 67, 127
1, 47944, Note_on_c, 1, 50, 127
1, 47970, Note_off_c, 1, 67, 0
1, 47970, Note_off_c, 1, 50, 0
1, 47974, Note_on_c, 1, 69, 127
1, 47974, Note_on_c, 1, 48, 127
1, 48000, Note_off_c, 1, 69, 0
1, 48000, Note_off_c, 1, 48, 0
1, 48004, Note_on_c, 1, 70, 127
1, 48004, Note_on_c, 1, 46, 127
1, 48030, Note_off_c, 1, 70, 0
1, 48030, Note_off_c, 1, 46, 0
1, 48034, Note_on_c, 1, 72, 127
1, 48034, Note_on_c, 1, 45, 127
1, 48060, Note_off_c, 1, 72, 0
1, 48060, Note_off_c, 1, 45, 0
1, 48090, Note_off_c, 1, 63, 0
1, 48094, Note_on_c, 1, 66, 127
1, 48124, Note_on_c, 1, 62, 127
1, 48150, Note_off_c, 1, 62, 0
1, 48154, Note_on_c, 1, 60, 127
1, 48180, Note_off_c, 1, 66, 0
1, 48180, Note_off_c, 1, 60, 0
1, 48184, Note_on_c, 1, 58, 127
1, 48210, Note_off_c, 1, 58, 0
1, 48214, Note_on_c, 1, 57, 127
1, 48240, Note_off_c, 1, 57, 0
1, 48244, Note_on_c, 1, 55, 127
1, 48270, Note_off_c, 1, 55, 0
1, 48274, Note_on_c, 1, 75, 127
1, 48274, Note_on_c, 1, 54, 127
1, 48300, Note_off_c, 1, 75, 0
1, 48300, Note_off_c, 1, 54, 0
1, 48304, Note_on_c, 1, 74, 127
1, 48304, Note_on_c, 1, 70, 127
1, 48304, Note_on_c, 1, 55, 127
1, 48304, Note_on_c, 1, 46, 127
1, 48330, Note_off_c, 1, 74, 0
1, 48330, Note_off_c, 1, 70, 0
1, 48330, Note_off_c, 1, 55, 0
1, 48330, Note_off_c, 1, 46, 0
1, 48334, Note_on_c, 1, 72, 127
1, 48334, Note_on_c, 1, 69, 127
1, 48334, Note_on_c, 1, 57, 127
1, 48334, Note_on_c, 1, 48, 127
1, 48360, Note_off_c, 1, 72, 0
1, 48360, Note_off_c, 1, 69, 0
1, 48360, Note_off_c, 1, 57, 0
1, 48364, Note_on_c, 1, 70, 127
1, 48364, Note_on_c, 1, 67, 127
1, 48364, Note_on_c, 1, 58, 127
1, 48386, Note_off_c, 1, 48, 0
1, 48390, Note_off_c, 1, 70, 0
1, 48390, Note_off_c, 1, 67, 0
1, 48390, Note_off_c, 1, 58, 0
1, 48394, Note_on_c, 1, 69, 127
1, 48394, Note_on_c, 1, 66, 127
1, 48394, Note_on_c, 1, 60, 127
1, 48394, Note_on_c, 1, 50, 127
1, 48420, Note_off_c, 1, 69, 0
1, 48420, Note_off_c, 1, 66, 0
1, 48420, Note_off_c, 1, 50, 0
1, 48424, Note_on_c, 1, 67, 127
1, 48424, Note_on_c, 1, 55, 127
1, 48450, Note_off_c, 1, 60, 0
1, 48454, Note_on_c, 1, 58, 127
1, 48480, Note_off_c, 1, 58, 0
1, 48484, Note_on_c, 1, 57, 127
1, 48502, Note_off_c, 1, 67, 0
1, 48510, Note_off_c, 1, 57, 0
1, 48540, Note_off_c, 1, 55, 0
1, 48544, Note_on_c, 1, 53, 127
1, 48570, Note_off_c, 1, 53, 0
1, 48574, Note_on_c, 1, 51, 127
1, 48600, Note_off_c, 1, 51, 0
1, 48604, Note_on_c, 1, 50, 127
1, 48634, Note_on_c, 1, 82, 127
1, 48660, Note_off_c, 1, 82, 0
1, 48664, Note_on_c, 1, 81, 127
1, 48682, Note_off_c, 1, 50, 0
1, 48690, Note_off_c, 1, 81, 0
1, 48694, Note_on_c, 1, 79, 127
1, 48694, Note_on_c, 1, 51, 127
1, 48720, Note_off_c, 1, 79, 0
1, 48724, Note_on_c, 1, 77, 127
1, 48750, Note_off_c, 1, 77, 0
1, 48754, Note_on_c, 1, 75, 127
1, 48772, Note_off_c, 1, 51, 0
1, 48780, Note_off_c, 1, 75, 0
1, 48784, Note_on_c, 1, 74, 127
1, 48784, Note_on_c, 1, 53, 127
1, 48814, Note_on_c, 1, 70, 127
1, 48840, Note_off_c, 1, 70, 0
1, 48844, Note_on_c, 1, 68, 127
1, 48862, Note_off_c, 1, 74, 0
1, 48862, Note_off_c, 1, 53, 0
1, 48870, Note_off_c, 1, 68, 0
1, 48874, Note_on_c, 1, 75, 127
1, 48874, Note_on_c, 1, 67, 127
1, 48874, Note_on_c, 1, 55, 127
1, 48900, Note_off_c, 1, 67, 0
1, 48904, Note_on_c, 1, 65, 127
1, 48930, Note_off_c, 1, 65, 0
1, 48934, Note_on_c, 1, 63, 127
1, 48952, Note_off_c, 1, 75, 0
1, 48952, Note_off_c, 1, 55, 0
1, 48960, Note_off_c, 1, 63, 0
1, 48964, Note_on_c, 1, 77, 127
1, 48964, Note_on_c, 1, 62, 127
1, 48964, Note_on_c, 1, 56, 127
1, 48990, Note_off_c, 1, 56, 0
1, 48994, Note_on_c, 1, 58, 127
1, 49016, Note_off_c, 1, 77, 0
1, 49016, Note_off_c, 1, 62, 0
1, 49020, Note_off_c, 1, 58, 0
1, 49024, Note_on_c, 1, 74, 127
1, 49024, Note_on_c, 1, 65, 127
1, 49024, Note_on_c, 1, 56, 127
1, 49050, Note_off_c, 1, 74, 0
1, 49050, Note_off_c, 1, 65, 0
1, 49050, Note_off_c, 1, 56, 0
1, 49054, Note_on_c, 1, 75, 127
1, 49054, Note_on_c, 1, 70, 127
1, 49054, Note_on_c, 1, 55, 127
1, 49080, Note_off_c, 1, 55, 0
1, 49084, Note_on_c, 1, 53, 127
1, 49106, Note_off_c, 1, 75, 0
1, 49110, Note_off_c, 1, 53, 0
1, 49114, Note_on_c, 1, 79, 127
1, 49114, Note_on_c, 1, 51, 127
1, 49140, Note_off_c, 1, 79, 0
1, 49140, Note_off_c, 1, 51, 0
1, 49144, Note_on_c, 1, 72, 127
1, 49196, Note_off_c, 1, 70, 0
1, 49204, Note_on_c, 1, 69, 127
1, 49222, Note_off_c, 1, 72, 0
1, 49234, Note_on_c, 1, 77, 127
1, 49264, Note_on_c, 1, 50, 127
1, 49286, Note_off_c, 1, 69, 0
1, 49290, Note_off_c, 1, 50, 0
1, 49294, Note_on_c, 1, 68, 127
1, 49294, Note_on_c, 1, 48, 127
1, 49320, Note_off_c, 1, 68, 0
1, 49320, Note_off_c, 1, 48, 0
1, 49324, Note_on_c, 1, 67, 127
1, 49324, Note_on_c, 1, 47, 127
1, 49350, Note_off_c, 1, 77, 0
1, 49376, Note_off_c, 1, 47, 0
1, 49384, Note_on_c, 1, 74, 127
1, 49410, Note_off_c, 1, 74, 0
1, 49440, Note_off_c, 1, 67, 0
1, 49504, Note_on_c, 1, 65, 127
1, 49504, Note_on_c, 1, 45, 127
1, 49556, Note_off_c, 1, 45, 0
1, 49594, Note_on_c, 1, 46, 127
1, 49620, Note_off_c, 1, 65, 0
1, 49620, Note_off_c, 1, 46, 0
1, 49624, Note_on_c, 1, 58, 127
1, 49650, Note_off_c, 1, 58, 0
1, 49654, Note_on_c, 1, 57, 127
1, 49680, Note_off_c, 1, 57, 0
1, 49804, Note_on_c, 1, 81, 127
1, 49804, Note_on_c, 1, 72, 127
1, 49804, Note_on_c, 1, 48, 127
1, 49830, Note_off_c, 1, 81, 0
1, 49830, Note_off_c, 1, 72, 0
1, 49830, Note_off_c, 1, 48, 0
1, 49834, Note_on_c, 1, 82, 127
1, 49834, Note_on_c, 1, 74, 127
1, 49834, Note_on_c, 1, 46, 127
1, 49860, Note_off_c, 1, 82, 0
1, 49860, Note_off_c, 1, 74, 0
1, 49860, Note_off_c, 1, 46, 0
1, 49864, Note_on_c, 1, 70, 127
1, 49864, Note_on_c, 1, 74, 127
1, 49864, Note_on_c, 1, 53, 127
1, 49890, Note_off_c, 1, 74, 0
1, 49894, Note_on_c, 1, 72, 127
1, 49920, Note_off_c, 1, 72, 0
1, 49942, Note_off_c, 1, 70, 0
1, 49954, Note_on_c, 1, 69, 127
1, 49980, Note_off_c, 1, 53, 0
1, 49984, Note_on_c, 1, 57, 127
1, 50010, Note_off_c, 1, 57, 0
1, 50014, Note_on_c, 1, 60, 127
1, 50032, Note_off_c, 1, 69, 0
1, 50040, Note_off_c, 1, 60, 0
1, 50044, Note_on_c, 1, 65, 127
1, 50044, Note_on_c, 1, 63, 127
1, 50070, Note_off_c, 1, 65, 0
1, 50070, Note_off_c, 1, 63, 0
1, 50074, Note_on_c, 1, 69, 127
1, 50074, Note_on_c, 1, 62, 127
1, 50100, Note_off_c, 1, 69, 0
1, 50100, Note_off_c, 1, 62, 0
1, 50104, Note_on_c, 1, 72, 127
1, 50104, Note_on_c, 1, 63, 127
1, 50130, Note_off_c, 1, 72, 0
1, 50130, Note_off_c, 1, 63, 0
1, 50134, Note_on_c, 1, 75, 127
1, 50134, Note_on_c, 1, 53, 127
1, 50160, Note_off_c, 1, 75, 0
1, 50160, Note_off_c, 1, 53, 0
1, 50164, Note_on_c, 1, 74, 127
1, 50164, Note_on_c, 1, 57, 127
1, 50190, Note_off_c, 1, 74, 0
1, 50190, Note_off_c, 1, 57, 0
1, 50194, Note_on_c, 1, 75, 127
1, 50194, Note_on_c, 1, 60, 127
1, 50220, Note_off_c, 1, 75, 0
1, 50220, Note_off_c, 1, 60, 0
1, 50224, Note_on_c, 1, 65, 127
1, 50224, Note_on_c, 1, 62, 127
1, 50250, Note_off_c, 1, 65, 0
1, 50250, Note_off_c, 1, 62, 0
1, 50254, Note_on_c, 1, 69, 127
1, 50254, Note_on_c, 1, 60, 127
1, 50280, Note_off_c, 1, 69, 0
1, 50280, Note_off_c, 1, 60, 0
1, 50284, Note_on_c, 1, 70, 127
1, 50284, Note_on_c, 1, 62, 127
1, 50310, Note_off_c, 1, 70, 0
1, 50310, Note_off_c, 1, 62, 0
1, 50314, Note_on_c, 1, 74, 127
1, 50314, Note_on_c, 1, 53, 127
1, 50340, Note_off_c, 1, 74, 0
1, 50340, Note_off_c, 1, 53, 0
1, 50344, Note_on_c, 1, 72, 127
1, 50344, Note_on_c, 1, 57, 127
1, 50370, Note_off_c, 1, 72, 0
1, 50370, Note_off_c, 1, 57, 0
1, 50374, Note_on_c, 1, 74, 127
1, 50374, Note_on_c, 1, 58, 127
1, 50400, Note_off_c, 1, 74, 0
1, 50400, Note_off_c, 1, 58, 0
1, 50404, Note_on_c, 1, 63, 127
1, 50404, Note_on_c, 1, 60, 127
1, 50430, Note_off_c, 1, 63, 0
1, 50430, Note_off_c, 1, 60, 0
1, 50434, Note_on_c, 1, 67, 127
1, 50434, Note_on_c, 1, 58, 127
1, 50460, Note_off_c, 1, 67, 0
1, 50460, Note_off_c, 1, 58, 0
1, 50464, Note_on_c, 1, 69, 127
1, 50464, Note_on_c, 1, 60, 127
1, 50490, Note_off_c, 1, 69, 0
1, 50490, Note_off_c, 1, 60, 0
1, 50494, Note_on_c, 1, 72, 127
1, 50494, Note_on_c, 1, 53, 127
1, 50520, Note_off_c, 1, 72, 0
1, 50520, Note_off_c, 1, 53, 0
1, 50524, Note_on_c, 1, 70, 127
1, 50524, Note_on_c, 1, 55, 127
1, 50550, Note_off_c, 1, 70, 0
1, 50550, Note_off_c, 1, 55, 0
1, 50554, Note_on_c, 1, 72, 127
1, 50554, Note_on_c, 1, 57, 127
1, 50580, Note_off_c, 1, 72, 0
1, 50580, Note_off_c, 1, 57, 0
1, 50584, Note_on_c, 1, 63, 127
1, 50584, Note_on_c, 1, 58, 127
1, 50610, Note_off_c, 1, 63, 0
1, 50610, Note_off_c, 1, 58, 0
1, 50614, Note_on_c, 1, 62, 127
1, 50614, Note_on_c, 1, 53, 127
1, 50640, Note_off_c, 1, 62, 0
1, 50640, Note_off_c, 1, 53, 0
1, 50644, Note_on_c, 1, 65, 127
1, 50644, Note_on_c, 1, 50, 127
1, 50670, Note_off_c, 1, 65, 0
1, 50670, Note_off_c, 1, 50, 0
1, 50674, Note_on_c, 1, 70, 127
1, 50674, Note_on_c, 1, 46, 127
1, 50700, Note_off_c, 1, 70, 0
1, 50700, Note_off_c, 1, 46, 0
1, 50704, Note_on_c, 1, 74, 127
1, 50704, Note_on_c, 1, 53, 127
1, 50730, Note_off_c, 1, 74, 0
1, 50730, Note_off_c, 1, 53, 0
1, 50734, Note_on_c, 1, 75, 127
1, 50734, Note_on_c, 1, 44, 127
1, 50760, Note_off_c, 1, 75, 0
1, 50760, Note_off_c, 1, 44, 0
1, 50764, Note_on_c, 1, 77, 127
1, 50764, Note_on_c, 1, 43, 127
1, 50790, Note_off_c, 1, 77, 0
1, 50790, Note_off_c, 1, 43, 0
1, 50794, Note_on_c, 1, 75, 127
1, 50794, Note_on_c, 1, 47, 127
1, 50820, Note_off_c, 1, 75, 0
1, 50820, Note_off_c, 1, 47, 0
1, 50824, Note_on_c, 1, 77, 127
1, 50824, Note_on_c, 1, 50, 127
1, 50850, Note_off_c, 1, 77, 0
1, 50850, Note_off_c, 1, 50, 0
1, 50854, Note_on_c, 1, 67, 127
1, 50854, Note_on_c, 1, 53, 127
1, 50880, Note_off_c, 1, 67, 0
1, 50880, Note_off_c, 1, 53, 0
1, 50884, Note_on_c, 1, 71, 127
1, 50884, Note_on_c, 1, 51, 127
1, 50910, Note_off_c, 1, 71, 0
1, 50910, Note_off_c, 1, 51, 0
1, 50914, Note_on_c, 1, 74, 127
1, 50914, Note_on_c, 1, 53, 127
1, 50940, Note_off_c, 1, 74, 0
1, 50940, Note_off_c, 1, 53, 0
1, 50944, Note_on_c, 1, 75, 127
1, 50944, Note_on_c, 1, 43, 127
1, 50970, Note_off_c, 1, 75, 0
1, 50970, Note_off_c, 1, 43, 0
1, 50974, Note_on_c, 1, 74, 127
1, 50974, Note_on_c, 1, 47, 127
1, 51000, Note_off_c, 1, 74, 0
1, 51000, Note_off_c, 1, 47, 0
1, 51004, Note_on_c, 1, 75, 127
1, 51004, Note_on_c, 1, 48, 127
1, 51030, Note_off_c, 1, 75, 0
1, 51030, Note_off_c, 1, 48, 0
1, 51034, Note_on_c, 1, 67, 127
1, 51034, Note_on_c, 1, 51, 127
1, 51060, Note_off_c, 1, 67, 0
1, 51060, Note_off_c, 1, 51, 0
1, 51064, Note_on_c, 1, 71, 127
1, 51064, Note_on_c, 1, 50, 127
1, 51090, Note_off_c, 1, 71, 0
1, 51090, Note_off_c, 1, 50, 0
1, 51094, Note_on_c, 1, 72, 127
1, 51094, Note_on_c, 1, 51, 127
1, 51120, Note_off_c, 1, 72, 0
1, 51120, Note_off_c, 1, 51, 0
1, 51124, Note_on_c, 1, 74, 127
1, 51124, Note_on_c, 1, 41, 127
1, 51150, Note_off_c, 1, 74, 0
1, 51150, Note_off_c, 1, 41, 0
1, 51154, Note_on_c, 1, 72, 127
1, 51154, Note_on_c, 1, 44, 127
1, 51180, Note_off_c, 1, 72, 0
1, 51180, Note_off_c, 1, 44, 0
1, 51184, Note_on_c, 1, 74, 127
1, 51184, Note_on_c, 1, 47, 127
1, 51210, Note_off_c, 1, 74, 0
1, 51210, Note_off_c, 1, 47, 0
1, 51214, Note_on_c, 1, 65, 127
1, 51214, Note_on_c, 1, 50, 127
1, 51240, Note_off_c, 1, 65, 0
1, 51240, Note_off_c, 1, 50, 0
1, 51244, Note_on_c, 1, 68, 127
1, 51244, Note_on_c, 1, 48, 127
1, 51270, Note_off_c, 1, 68, 0
1, 51270, Note_off_c, 1, 48, 0
1, 51274, Note_on_c, 1, 71, 127
1, 51274, Note_on_c, 1, 50, 127
1, 51300, Note_off_c, 1, 71, 0
1, 51300, Note_off_c, 1, 50, 0
1, 51304, Note_on_c, 1, 71, 127
1, 51304, Note_on_c, 1, 41, 127
1, 51330, Note_off_c, 1, 71, 0
1, 51330, Note_off_c, 1, 41, 0
1, 51334, Note_on_c, 1, 72, 127
1, 51334, Note_on_c, 1, 39, 127
1, 51360, Note_off_c, 1, 72, 0
1, 51360, Note_off_c, 1, 39, 0
1, 51364, Note_on_c, 1, 67, 127
1, 51364, Note_on_c, 1, 43, 127
1, 51390, Note_off_c, 1, 67, 0
1, 51390, Note_off_c, 1, 43, 0
1, 51394, Note_on_c, 1, 63, 127
1, 51394, Note_on_c, 1, 48, 127
1, 51420, Note_off_c, 1, 48, 0
1, 51424, Note_on_c, 1, 51, 127
1, 51450, Note_off_c, 1, 51, 0
1, 51454, Note_on_c, 1, 55, 127
1, 51480, Note_off_c, 1, 55, 0
1, 51484, Note_on_c, 1, 60, 127
1, 51510, Note_off_c, 1, 63, 0
1, 51514, Note_on_c, 1, 75, 127
1, 51540, Note_off_c, 1, 75, 0
1, 51544, Note_on_c, 1, 74, 127
1, 51570, Note_off_c, 1, 74, 0
1, 51574, Note_on_c, 1, 72, 127
1, 51600, Note_off_c, 1, 60, 0
1, 51600, Note_off_c, 1, 72, 0
1, 51604, Note_on_c, 1, 70, 127
1, 51604, Note_on_c, 1, 62, 127
1, 51630, Note_off_c, 1, 70, 0
1, 51630, Note_off_c, 1, 62, 0
1, 51634, Note_on_c, 1, 68, 127
1, 51634, Note_on_c, 1, 63, 127
1, 51660, Note_off_c, 1, 63, 0
1, 51664, Note_on_c, 1, 77, 127
1, 51664, Note_on_c, 1, 62, 127
1, 51690, Note_off_c, 1, 62, 0
1, 51694, Note_on_c, 1, 58, 127
1, 51720, Note_off_c, 1, 58, 0
1, 51724, Note_on_c, 1, 60, 127
1, 51750, Note_off_c, 1, 60, 0
1, 51814, Note_on_c, 1, 65, 127
1, 51840, Note_off_c, 1, 65, 0
1, 51844, Note_on_c, 1, 55, 127
1, 51870, Note_off_c, 1, 77, 0
1, 51874, Note_on_c, 1, 70, 127
1, 51900, Note_off_c, 1, 70, 0
1, 51904, Note_on_c, 1, 74, 127
1, 51922, Note_off_c, 1, 68, 0
1, 51930, Note_off_c, 1, 74, 0
1, 51934, Note_on_c, 1, 75, 127
1, 51934, Note_on_c, 1, 67, 127
1, 51960, Note_off_c, 1, 55, 0
1, 51960, Note_off_c, 1, 75, 0
1, 51964, Note_on_c, 1, 57, 127
1, 51990, Note_off_c, 1, 57, 0
1, 52012, Note_off_c, 1, 67, 0
1, 52024, Note_on_c, 1, 75, 127
1, 52024, Note_on_c, 1, 65, 127
1, 52024, Note_on_c, 1, 57, 127
1, 52050, Note_off_c, 1, 57, 0
1, 52054, Note_on_c, 1, 53, 127
1, 52080, Note_off_c, 1, 53, 0
1, 52084, Note_on_c, 1, 55, 127
1, 52110, Note_off_c, 1, 55, 0
1, 52144, Note_on_c, 1, 58, 127
1, 52170, Note_off_c, 1, 58, 0
1, 52174, Note_on_c, 1, 60, 127
1, 52200, Note_off_c, 1, 60, 0
1, 52204, Note_on_c, 1, 50, 127
1, 52230, Note_off_c, 1, 65, 0
1, 52264, Note_on_c, 1, 69, 127
1, 52282, Note_off_c, 1, 75, 0
1, 52290, Note_off_c, 1, 69, 0
1, 52294, Note_on_c, 1, 74, 127
1, 52294, Note_on_c, 1, 70, 127
1, 52320, Note_off_c, 1, 50, 0
1, 52320, Note_off_c, 1, 70, 0
1, 52324, Note_on_c, 1, 72, 127
1, 52324, Note_on_c, 1, 52, 127
1, 52350, Note_off_c, 1, 72, 0
1, 52350, Note_off_c, 1, 52, 0
1, 52372, Note_off_c, 1, 74, 0
1, 52384, Note_on_c, 1, 79, 127
1, 52384, Note_on_c, 1, 70, 127
1, 52384, Note_on_c, 1, 52, 127
1, 52410, Note_off_c, 1, 52, 0
1, 52414, Note_on_c, 1, 48, 127
1, 52440, Note_off_c, 1, 48, 0
1, 52444, Note_on_c, 1, 50, 127
1, 52470, Note_off_c, 1, 50, 0
1, 52504, Note_on_c, 1, 53, 127
1, 52530, Note_off_c, 1, 53, 0
1, 52534, Note_on_c, 1, 55, 127
1, 52560, Note_off_c, 1, 55, 0
1, 52564, Note_on_c, 1, 44, 127
1, 52590, Note_off_c, 1, 79, 0
1, 52594, Note_on_c, 1, 72, 127
1, 52620, Note_off_c, 1, 72, 0
1, 52624, Note_on_c, 1, 76, 127
1, 52642, Note_off_c, 1, 70, 0
1, 52650, Note_off_c, 1, 76, 0
1, 52654, Note_on_c, 1, 77, 127
1, 52654, Note_on_c, 1, 68, 127
1, 52680, Note_off_c, 1, 44, 0
1, 52680, Note_off_c, 1, 77, 0
1, 52684, Note_on_c, 1, 46, 127
1, 52710, Note_off_c, 1, 46, 0
1, 52732, Note_off_c, 1, 68, 0
1, 52744, Note_on_c, 1, 77, 127
1, 52744, Note_on_c, 1, 67, 127
1, 52744, Note_on_c, 1, 47, 127
1, 52770, Note_off_c, 1, 47, 0
1, 52774, Note_on_c, 1, 43, 127
1, 52800, Note_off_c, 1, 43, 0
1, 52804, Note_on_c, 1, 45, 127
1, 52830, Note_off_c, 1, 45, 0
1, 52864, Note_on_c, 1, 48, 127
1, 52890, Note_off_c, 1, 48, 0
1, 52894, Note_on_c, 1, 50, 127
1, 52920, Note_off_c, 1, 50, 0
1, 52924, Note_on_c, 1, 39, 127
1, 52950, Note_off_c, 1, 67, 0
1, 52984, Note_on_c, 1, 71, 127
1, 53002, Note_off_c, 1, 77, 0
1, 53010, Note_off_c, 1, 71, 0
1, 53014, Note_on_c, 1, 75, 127
1, 53014, Note_on_c, 1, 72, 127
1, 53040, Note_off_c, 1, 39, 0
1, 53040, Note_off_c, 1, 72, 0
1, 53044, Note_on_c, 1, 74, 127
1, 53044, Note_on_c, 1, 41, 127
1, 53070, Note_off_c, 1, 74, 0
1, 53070, Note_off_c, 1, 41, 0
1, 53092, Note_off_c, 1, 75, 0
1, 53104, Note_on_c, 1, 74, 127
1, 53104, Note_on_c, 1, 72, 127
1, 53104, Note_on_c, 1, 42, 127
1, 53130, Note_off_c, 1, 42, 0
1, 53134, Note_on_c, 1, 38, 127
1, 53160, Note_off_c, 1, 38, 0
1, 53164, Note_on_c, 1, 40, 127
1, 53190, Note_off_c, 1, 40, 0
1, 53224, Note_on_c, 1, 43, 127
1, 53250, Note_off_c, 1, 43, 0
1, 53254, Note_on_c, 1, 45, 127
1, 53280, Note_off_c, 1, 45, 0
1, 53284, Note_on_c, 1, 46, 127
1, 53310, Note_off_c, 1, 72, 0
1, 53310, Note_off_c, 1, 46, 0
1, 53314, Note_on_c, 1, 70, 127
1, 53340, Note_off_c, 1, 70, 0
1, 53344, Note_on_c, 1, 69, 127
1, 53370, Note_off_c, 1, 69, 0
1, 53374, Note_on_c, 1, 67, 127
1, 53400, Note_off_c, 1, 67, 0
1, 53404, Note_on_c, 1, 48, 127
1, 53430, Note_off_c, 1, 48, 0
1, 53434, Note_on_c, 1, 66, 127
1, 53434, Note_on_c, 1, 50, 127
1, 53460, Note_off_c, 1, 66, 0
1, 53460, Note_off_c, 1, 50, 0
1, 53464, Note_on_c, 1, 51, 127
1, 53490, Note_off_c, 1, 74, 0
1, 53490, Note_off_c, 1, 51, 0
1, 53494, Note_on_c, 1, 75, 127
1, 53520, Note_off_c, 1, 75, 0
1, 53584, Note_on_c, 1, 53, 127
1, 53610, Note_off_c, 1, 53, 0
1, 53614, Note_on_c, 1, 55, 127
1, 53640, Note_off_c, 1, 55, 0
1, 53674, Note_on_c, 1, 41, 127
1, 53700, Note_off_c, 1, 41, 0
1, 53734, Note_on_c, 1, 65, 127
1, 53760, Note_off_c, 1, 65, 0
1, 53794, Note_on_c, 1, 63, 127
1, 53820, Note_off_c, 1, 63, 0
1, 53824, Note_on_c, 1, 49, 127
1, 53850, Note_off_c, 1, 49, 0
1, 53854, Note_on_c, 1, 73, 127
1, 53880, Note_off_c, 1, 73, 0
1, 54094, Note_on_c, 1, 64, 127
1, 54172, Note_off_c, 1, 64, 0
1, 54334, Note_on_c, 1, 51, 127
1, 54360, Note_off_c, 1, 51, 0
1, 54364, Note_on_c, 1, 53, 127
1, 54394, Note_on_c, 1, 57, 127
1, 54420, Note_off_c, 1, 57, 0
1, 54424, Note_on_c, 1, 58, 127
1, 54442, Note_off_c, 1, 53, 0
1, 54450, Note_off_c, 1, 58, 0
1, 54454, Note_on_c, 1, 60, 127
1, 54454, Note_on_c, 1, 51, 127
1, 54480, Note_off_c, 1, 60, 0
1, 54484, Note_on_c, 1, 62, 127
1, 54510, Note_off_c, 1, 62, 0
1, 54514, Note_on_c, 1, 63, 127
1, 54532, Note_off_c, 1, 51, 0
1, 54540, Note_off_c, 1, 63, 0
1, 54544, Note_on_c, 1, 65, 127
1, 54544, Note_on_c, 1, 50, 127
1, 54574, Note_on_c, 1, 53, 127
1, 54600, Note_off_c, 1, 53, 0
1, 54604, Note_on_c, 1, 55, 127
1, 54622, Note_off_c, 1, 65, 0
1, 54622, Note_off_c, 1, 50, 0
1, 54630, Note_off_c, 1, 55, 0
1, 54634, Note_on_c, 1, 63, 127
1, 54634, Note_on_c, 1, 57, 127
1, 54634, Note_on_c, 1, 48, 127
1, 54660, Note_off_c, 1, 57, 0
1, 54664, Note_on_c, 1, 58, 127
1, 54690, Note_off_c, 1, 58, 0
1, 54694, Note_on_c, 1, 60, 127
1, 54712, Note_off_c, 1, 63, 0
1, 54712, Note_off_c, 1, 48, 0
1, 54720, Note_off_c, 1, 60, 0
1, 54724, Note_on_c, 1, 62, 127
1, 54724, Note_on_c, 1, 46, 127
1, 54750, Note_off_c, 1, 46, 0
1, 54754, Note_on_c, 1, 60, 127
1, 54780, Note_off_c, 1, 60, 0
1, 54784, Note_on_c, 1, 67, 127
1, 54784, Note_on_c, 1, 58, 127
1, 54810, Note_off_c, 1, 67, 0
1, 54810, Note_off_c, 1, 58, 0
1, 54814, Note_on_c, 1, 66, 127
1, 54814, Note_on_c, 1, 57, 127
1, 54840, Note_off_c, 1, 57, 0
1, 54844, Note_on_c, 1, 55, 127
1, 54866, Note_off_c, 1, 66, 0
1, 54870, Note_off_c, 1, 55, 0
1, 54874, Note_on_c, 1, 72, 127
1, 54874, Note_on_c, 1, 54, 127
1, 54900, Note_off_c, 1, 72, 0
1, 54900, Note_off_c, 1, 54, 0
1, 54904, Note_on_c, 1, 70, 127
1, 54930, Note_off_c, 1, 62, 0
1, 54934, Note_on_c, 1, 69, 127
1, 54960, Note_off_c, 1, 69, 0
1, 54982, Note_off_c, 1, 70, 0
1, 54994, Note_on_c, 1, 68, 127
1, 54994, Note_on_c, 1, 65, 127
1, 54994, Note_on_c, 1, 58, 127
1, 55020, Note_off_c, 1, 65, 0
1, 55024, Note_on_c, 1, 63, 127
1, 55050, Note_off_c, 1, 63, 0
1, 55054, Note_on_c, 1, 62, 127
1, 55072, Note_off_c, 1, 58, 0
1, 55080, Note_off_c, 1, 62, 0
1, 55084, Note_on_c, 1, 51, 127
1, 55110, Note_off_c, 1, 68, 0
1, 55114, Note_on_c, 1, 67, 127
1, 55140, Note_off_c, 1, 67, 0
1, 55144, Note_on_c, 1, 69, 127
1, 55162, Note_off_c, 1, 51, 0
1, 55170, Note_off_c, 1, 69, 0
1, 55174, Note_on_c, 1, 71, 127
1, 55174, Note_on_c, 1, 50, 127
1, 55200, Note_off_c, 1, 71, 0
1, 55204, Note_on_c, 1, 72, 127
1, 55230, Note_off_c, 1, 72, 0
1, 55234, Note_on_c, 1, 74, 127
1, 55252, Note_off_c, 1, 50, 0
1, 55260, Note_off_c, 1, 74, 0
1, 55264, Note_on_c, 1, 75, 127
1, 55264, Note_on_c, 1, 48, 127
1, 55294, Note_on_c, 1, 63, 127
1, 55320, Note_off_c, 1, 63, 0
1, 55324, Note_on_c, 1, 65, 127
1, 55342, Note_off_c, 1, 75, 0
1, 55342, Note_off_c, 1, 48, 0
1, 55350, Note_off_c, 1, 65, 0
1, 55354, Note_on_c, 1, 74, 127
1, 55354, Note_on_c, 1, 67, 127
1, 55354, Note_on_c, 1, 46, 127
1, 55380, Note_off_c, 1, 67, 0
1, 55384, Note_on_c, 1, 69, 127
1, 55410, Note_off_c, 1, 69, 0
1, 55414, Note_on_c, 1, 70, 127
1, 55432, Note_off_c, 1, 74, 0
1, 55432, Note_off_c, 1, 46, 0
1, 55440, Note_off_c, 1, 70, 0
1, 55444, Note_on_c, 1, 72, 127
1, 55444, Note_on_c, 1, 45, 127
1, 55470, Note_off_c, 1, 45, 0
1, 55474, Note_on_c, 1, 58, 127
1, 55500, Note_off_c, 1, 58, 0
1, 55504, Note_on_c, 1, 65, 127
1, 55504, Note_on_c, 1, 57, 127
1, 55530, Note_off_c, 1, 65, 0
1, 55530, Note_off_c, 1, 57, 0
1, 55534, Note_on_c, 1, 64, 127
1, 55534, Note_on_c, 1, 55, 127
1, 55560, Note_off_c, 1, 55, 0
1, 55564, Note_on_c, 1, 53, 127
1, 55586, Note_off_c, 1, 64, 0
1, 55590, Note_off_c, 1, 53, 0
1, 55594, Note_on_c, 1, 70, 127
1, 55594, Note_on_c, 1, 52, 127
1, 55620, Note_off_c, 1, 70, 0
1, 55620, Note_off_c, 1, 52, 0
1, 55624, Note_on_c, 1, 69, 127
1, 55650, Note_off_c, 1, 69, 0
1, 55654, Note_on_c, 1, 41, 127
1, 55680, Note_off_c, 1, 41, 0
1, 55684, Note_on_c, 1, 43, 127
1, 55710, Note_off_c, 1, 43, 0
1, 55714, Note_on_c, 1, 67, 127
1, 55740, Note_off_c, 1, 67, 0
1, 55744, Note_on_c, 1, 46, 127
1, 55770, Note_off_c, 1, 46, 0
1, 55774, Note_on_c, 1, 63, 127
1, 55774, Note_on_c, 1, 48, 127
1, 55800, Note_off_c, 1, 63, 0
1, 55800, Note_off_c, 1, 48, 0
1, 55804, Note_on_c, 1, 50, 127
1, 55830, Note_off_c, 1, 72, 0
1, 55882, Note_off_c, 1, 50, 0
1, 55954, Note_on_c, 1, 75, 127
1, 55980, Note_off_c, 1, 75, 0
1, 55984, Note_on_c, 1, 74, 127
1, 55984, Note_on_c, 1, 46, 127
1, 56014, Note_on_c, 1, 62, 127
1, 56040, Note_off_c, 1, 62, 0
1, 56044, Note_on_c, 1, 67, 127
1, 56062, Note_off_c, 1, 46, 0
1, 56074, Note_on_c, 1, 45, 127
1, 56100, Note_off_c, 1, 67, 0
1, 56104, Note_on_c, 1, 66, 127
1, 56130, Note_off_c, 1, 66, 0
1, 56134, Note_on_c, 1, 72, 127
1, 56152, Note_off_c, 1, 45, 0
1, 56160, Note_off_c, 1, 72, 0
1, 56164, Note_on_c, 1, 70, 127
1, 56164, Note_on_c, 1, 43, 127
1, 56190, Note_off_c, 1, 43, 0
1, 56194, Note_on_c, 1, 68, 127
1, 56220, Note_off_c, 1, 68, 0
1, 56242, Note_off_c, 1, 74, 0
1, 56242, Note_off_c, 1, 70, 0
1, 56254, Note_on_c, 1, 80, 127
1, 56254, Note_on_c, 1, 71, 127
1, 56254, Note_on_c, 1, 65, 127
1, 56280, Note_off_c, 1, 65, 0
1, 56284, Note_on_c, 1, 63, 127
1, 56310, Note_off_c, 1, 63, 0
1, 56314, Note_on_c, 1, 62, 127
1, 56332, Note_off_c, 1, 80, 0
1, 56332, Note_off_c, 1, 71, 0
1, 56340, Note_off_c, 1, 62, 0
1, 56344, Note_on_c, 1, 79, 127
1, 56344, Note_on_c, 1, 72, 127
1, 56344, Note_on_c, 1, 63, 127
1, 56370, Note_off_c, 1, 63, 0
1, 56374, Note_on_c, 1, 65, 127
1, 56396, Note_off_c, 1, 72, 0
1, 56400, Note_off_c, 1, 65, 0
1, 56404, Note_on_c, 1, 69, 127
1, 56422, Note_off_c, 1, 79, 0
1, 56430, Note_off_c, 1, 69, 0
1, 56434, Note_on_c, 1, 77, 127
1, 56434, Note_on_c, 1, 71, 127
1, 56434, Note_on_c, 1, 62, 127
1, 56460, Note_off_c, 1, 62, 0
1, 56464, Note_on_c, 1, 60, 127
1, 56486, Note_off_c, 1, 71, 0
1, 56490, Note_off_c, 1, 60, 0
1, 56494, Note_on_c, 1, 74, 127
1, 56494, Note_on_c, 1, 59, 127
1, 56512, Note_off_c, 1, 77, 0
1, 56520, Note_off_c, 1, 74, 0
1, 56520, Note_off_c, 1, 59, 0
1, 56524, Note_on_c, 1, 75, 127
1, 56524, Note_on_c, 1, 67, 127
1, 56524, Note_on_c, 1, 60, 127
1, 56550, Note_off_c, 1, 60, 0
1, 56554, Note_on_c, 1, 62, 127
1, 56580, Note_off_c, 1, 62, 0
1, 56602, Note_off_c, 1, 75, 0
1, 56602, Note_off_c, 1, 67, 0
1, 56614, Note_on_c, 1, 76, 127
1, 56614, Note_on_c, 1, 73, 127
1, 56614, Note_on_c, 1, 58, 127
1, 56640, Note_off_c, 1, 58, 0
1, 56644, Note_on_c, 1, 57, 127
1, 56670, Note_off_c, 1, 57, 0
1, 56674, Note_on_c, 1, 55, 127
1, 56692, Note_off_c, 1, 76, 0
1, 56692, Note_off_c, 1, 73, 0
1, 56700, Note_off_c, 1, 55, 0
1, 56704, Note_on_c, 1, 77, 127
1, 56704, Note_on_c, 1, 72, 127
1, 56704, Note_on_c, 1, 57, 127
1, 56730, Note_off_c, 1, 57, 0
1, 56734, Note_on_c, 1, 58, 127
1, 56756, Note_off_c, 1, 77, 0
1, 56760, Note_off_c, 1, 58, 0
1, 56764, Note_on_c, 1, 74, 127
1, 56782, Note_off_c, 1, 72, 0
1, 56790, Note_off_c, 1, 74, 0
1, 56794, Note_on_c, 1, 76, 127
1, 56794, Note_on_c, 1, 70, 127
1, 56794, Note_on_c, 1, 55, 127
1, 56820, Note_off_c, 1, 55, 0
1, 56824, Note_on_c, 1, 53, 127
1, 56846, Note_off_c, 1, 76, 0
1, 56850, Note_off_c, 1, 53, 0
1, 56854, Note_on_c, 1, 79, 127
1, 56854, Note_on_c, 1, 52, 127
1, 56880, Note_off_c, 1, 79, 0
1, 56880, Note_off_c, 1, 52, 0
1, 56884, Note_on_c, 1, 72, 127
1, 56936, Note_off_c, 1, 70, 0
1, 56944, Note_on_c, 1, 69, 127
1, 56970, Note_off_c, 1, 69, 0
1, 56974, Note_on_c, 1, 67, 127
1, 56974, Note_on_c, 1, 51, 127
1, 57000, Note_off_c, 1, 51, 0
1, 57004, Note_on_c, 1, 50, 127
1, 57026, Note_off_c, 1, 67, 0
1, 57030, Note_off_c, 1, 50, 0
1, 57034, Note_on_c, 1, 48, 127
1, 57060, Note_off_c, 1, 48, 0
1, 57064, Note_on_c, 1, 65, 127
1, 57116, Note_off_c, 1, 72, 0
1, 57184, Note_on_c, 1, 46, 127
1, 57210, Note_off_c, 1, 46, 0
1, 57214, Note_on_c, 1, 75, 127
1, 57214, Note_on_c, 1, 45, 127
1, 57240, Note_off_c, 1, 75, 0
1, 57240, Note_off_c, 1, 45, 0
1, 57244, Note_on_c, 1, 74, 127
1, 57296, Note_off_c, 1, 65, 0
1, 57334, Note_on_c, 1, 66, 127
1, 57364, Note_on_c, 1, 43, 127
1, 57386, Note_off_c, 1, 66, 0
1, 57390, Note_off_c, 1, 43, 0
1, 57394, Note_on_c, 1, 42, 127
1, 57420, Note_off_c, 1, 42, 0
1, 57476, Note_off_c, 1, 74, 0
1, 57514, Note_on_c, 1, 41, 127
1, 57540, Note_off_c, 1, 41, 0
1, 57544, Note_on_c, 1, 39, 127
1, 57570, Note_off_c, 1, 39, 0
1, 57574, Note_on_c, 1, 80, 127
1, 57574, Note_on_c, 1, 38, 127
1, 57600, Note_off_c, 1, 80, 0
1, 57600, Note_off_c, 1, 38, 0
1, 57634, Note_on_c, 1, 77, 127
1, 57660, Note_off_c, 1, 77, 0
1, 57694, Note_on_c, 1, 68, 127
1, 57772, Note_off_c, 1, 68, 0
1, 57964, Note_on_c, 1, 63, 127
1, 58042, Note_off_c, 1, 63, 0
1, 58054, Note_on_c, 1, 61, 127
1, 58132, Note_off_c, 1, 61, 0
1, 58144, Note_on_c, 1, 60, 127
1, 58222, Note_off_c, 1, 60, 0
1, 58234, Note_on_c, 1, 58, 127
1, 58312, Note_off_c, 1, 58, 0
1, 58324, Note_on_c, 1, 65, 127
1, 58324, Note_on_c, 1, 60, 127
1, 58324, Note_on_c, 1, 57, 127
1, 58324, Note_on_c, 1, 51, 127
1, 58402, Note_off_c, 1, 65, 0
1, 58402, Note_off_c, 1, 60, 0
1, 58402, Note_off_c, 1, 57, 0
1, 58402, Note_off_c, 1, 51, 0
1, 58534, Note_on_c, 1, 53, 127
1, 58534, Note_on_c, 1, 51, 127
1, 58560, Note_off_c, 1, 53, 0
1, 58560, Note_off_c, 1, 51, 0
1, 58564, Note_on_c, 1, 55, 127
1, 58564, Note_on_c, 1, 50, 127
1, 58590, Note_off_c, 1, 55, 0
1, 58590, Note_off_c, 1, 50, 0
1, 58594, Note_on_c, 1, 57, 127
1, 58594, Note_on_c, 1, 48, 127
1, 58620, Note_off_c, 1, 57, 0
1, 58620, Note_off_c, 1, 48, 0
1, 58624, Note_on_c, 1, 58, 127
1, 58624, Note_on_c, 1, 46, 127
1, 58650, Note_off_c, 1, 58, 0
1, 58650, Note_off_c, 1, 46, 0
1, 58654, Note_on_c, 1, 60, 127
1, 58654, Note_on_c, 1, 45, 127
1, 58680, Note_off_c, 1, 60, 0
1, 58680, Note_off_c, 1, 45, 0
1, 58684, Note_on_c, 1, 62, 127
1, 58684, Note_on_c, 1, 46, 127
1, 58710, Note_off_c, 1, 62, 0
1, 58710, Note_off_c, 1, 46, 0
1, 58714, Note_on_c, 1, 63, 127
1, 58714, Note_on_c, 1, 41, 127
1, 58740, Note_off_c, 1, 63, 0
1, 58740, Note_off_c, 1, 41, 0
1, 58744, Note_on_c, 1, 62, 127
1, 58744, Note_on_c, 1, 43, 127
1, 58770, Note_off_c, 1, 62, 0
1, 58770, Note_off_c, 1, 43, 0
1, 58774, Note_on_c, 1, 60, 127
1, 58774, Note_on_c, 1, 45, 127
1, 58800, Note_off_c, 1, 60, 0
1, 58800, Note_off_c, 1, 45, 0
1, 58804, Note_on_c, 1, 58, 127
1, 58804, Note_on_c, 1, 46, 127
1, 58830, Note_off_c, 1, 58, 0
1, 58830, Note_off_c, 1, 46, 0
1, 58834, Note_on_c, 1, 57, 127
1, 58834, Note_on_c, 1, 48, 127
1, 58860, Note_off_c, 1, 57, 0
1, 58860, Note_off_c, 1, 48, 0
1, 58864, Note_on_c, 1, 58, 127
1, 58864, Note_on_c, 1, 50, 127
1, 58890, Note_off_c, 1, 58, 0
1, 58890, Note_off_c, 1, 50, 0
1, 58894, Note_on_c, 1, 68, 127
1, 58894, Note_on_c, 1, 46, 127
1, 58920, Note_off_c, 1, 68, 0
1, 58920, Note_off_c, 1, 46, 0
1, 58924, Note_on_c, 1, 67, 127
1, 58924, Note_on_c, 1, 48, 127
1, 58950, Note_off_c, 1, 67, 0
1, 58950, Note_off_c, 1, 48, 0
1, 58954, Note_on_c, 1, 65, 127
1, 58954, Note_on_c, 1, 50, 127
1, 58980, Note_off_c, 1, 65, 0
1, 58980, Note_off_c, 1, 50, 0
1, 58984, Note_on_c, 1, 63, 127
1, 58984, Note_on_c, 1, 51, 127
1, 59010, Note_off_c, 1, 63, 0
1, 59010, Note_off_c, 1, 51, 0
1, 59014, Note_on_c, 1, 62, 127
1, 59014, Note_on_c, 1, 53, 127
1, 59040, Note_off_c, 1, 62, 0
1, 59040, Note_off_c, 1, 53, 0
1, 59044, Note_on_c, 1, 63, 127
1, 59044, Note_on_c, 1, 55, 127
1, 59070, Note_off_c, 1, 63, 0
1, 59070, Note_off_c, 1, 55, 0
1, 59074, Note_on_c, 1, 58, 127
1, 59074, Note_on_c, 1, 56, 127
1, 59100, Note_off_c, 1, 58, 0
1, 59100, Note_off_c, 1, 56, 0
1, 59104, Note_on_c, 1, 60, 127
1, 59104, Note_on_c, 1, 55, 127
1, 59130, Note_off_c, 1, 60, 0
1, 59130, Note_off_c, 1, 55, 0
1, 59134, Note_on_c, 1, 62, 127
1, 59134, Note_on_c, 1, 53, 127
1, 59160, Note_off_c, 1, 62, 0
1, 59160, Note_off_c, 1, 53, 0
1, 59164, Note_on_c, 1, 63, 127
1, 59164, Note_on_c, 1, 51, 127
1, 59190, Note_off_c, 1, 63, 0
1, 59190, Note_off_c, 1, 51, 0
1, 59194, Note_on_c, 1, 65, 127
1, 59194, Note_on_c, 1, 50, 127
1, 59220, Note_off_c, 1, 65, 0
1, 59220, Note_off_c, 1, 50, 0
1, 59224, Note_on_c, 1, 67, 127
1, 59224, Note_on_c, 1, 51, 127
1, 59250, Note_off_c, 1, 67, 0
1, 59250, Note_off_c, 1, 51, 0
1, 59254, Note_on_c, 1, 63, 127
1, 59254, Note_on_c, 1, 62, 127
1, 59280, Note_off_c, 1, 63, 0
1, 59280, Note_off_c, 1, 62, 0
1, 59284, Note_on_c, 1, 65, 127
1, 59284, Note_on_c, 1, 60, 127
1, 59310, Note_off_c, 1, 65, 0
1, 59310, Note_off_c, 1, 60, 0
1, 59314, Note_on_c, 1, 67, 127
1, 59314, Note_on_c, 1, 58, 127
1, 59340, Note_off_c, 1, 67, 0
1, 59340, Note_off_c, 1, 58, 0
1, 59344, Note_on_c, 1, 69, 127
1, 59344, Note_on_c, 1, 57, 127
1, 59370, Note_off_c, 1, 69, 0
1, 59370, Note_off_c, 1, 57, 0
1, 59374, Note_on_c, 1, 70, 127
1, 59374, Note_on_c, 1, 55, 127
1, 59400, Note_off_c, 1, 70, 0
1, 59400, Note_off_c, 1, 55, 0
1, 59404, Note_on_c, 1, 72, 127
1, 59404, Note_on_c, 1, 57, 127
1, 59430, Note_off_c, 1, 72, 0
1, 59430, Note_off_c, 1, 57, 0
1, 59434, Note_on_c, 1, 74, 127
1, 59434, Note_on_c, 1, 52, 127
1, 59460, Note_off_c, 1, 74, 0
1, 59460, Note_off_c, 1, 52, 0
1, 59464, Note_on_c, 1, 72, 127
1, 59464, Note_on_c, 1, 53, 127
1, 59490, Note_off_c, 1, 72, 0
1, 59490, Note_off_c, 1, 53, 0
1, 59494, Note_on_c, 1, 70, 127
1, 59494, Note_on_c, 1, 55, 127
1, 59520, Note_off_c, 1, 70, 0
1, 59520, Note_off_c, 1, 55, 0
1, 59524, Note_on_c, 1, 69, 127
1, 59524, Note_on_c, 1, 57, 127
1, 59550, Note_off_c, 1, 69, 0
1, 59550, Note_off_c, 1, 57, 0
1, 59554, Note_on_c, 1, 67, 127
1, 59554, Note_on_c, 1, 58, 127
1, 59580, Note_off_c, 1, 67, 0
1, 59580, Note_off_c, 1, 58, 0
1, 59584, Note_on_c, 1, 69, 127
1, 59584, Note_on_c, 1, 60, 127
1, 59610, Note_off_c, 1, 69, 0
1, 59610, Note_off_c, 1, 60, 0
1, 59614, Note_on_c, 1, 79, 127
1, 59614, Note_on_c, 1, 57, 127
1, 59640, Note_off_c, 1, 79, 0
1, 59640, Note_off_c, 1, 57, 0
1, 59644, Note_on_c, 1, 77, 127
1, 59644, Note_on_c, 1, 58, 127
1, 59670, Note_off_c, 1, 77, 0
1, 59670, Note_off_c, 1, 58, 0
1, 59674, Note_on_c, 1, 75, 127
1, 59674, Note_on_c, 1, 60, 127
1, 59700, Note_off_c, 1, 75, 0
1, 59700, Note_off_c, 1, 60, 0
1, 59704, Note_on_c, 1, 74, 127
1, 59704, Note_on_c, 1, 62, 127
1, 59730, Note_off_c, 1, 74, 0
1, 59730, Note_off_c, 1, 62, 0
1, 59734, Note_on_c, 1, 72, 127
1, 59734, Note_on_c, 1, 63, 127
1, 59760, Note_off_c, 1, 72, 0
1, 59760, Note_off_c, 1, 63, 0
1, 59764, Note_on_c, 1, 74, 127
1, 59764, Note_on_c, 1, 65, 127
1, 59790, Note_off_c, 1, 74, 0
1, 59790, Note_off_c, 1, 65, 0
1, 59794, Note_on_c, 1, 69, 127
1, 59794, Note_on_c, 1, 67, 127
1, 59820, Note_off_c, 1, 69, 0
1, 59820, Note_off_c, 1, 67, 0
1, 59824, Note_on_c, 1, 70, 127
1, 59824, Note_on_c, 1, 65, 127
1, 59850, Note_off_c, 1, 70, 0
1, 59850, Note_off_c, 1, 65, 0
1, 59854, Note_on_c, 1, 72, 127
1, 59854, Note_on_c, 1, 63, 127
1, 59880, Note_off_c, 1, 72, 0
1, 59880, Note_off_c, 1, 63, 0
1, 59884, Note_on_c, 1, 74, 127
1, 59884, Note_on_c, 1, 62, 127
1, 59910, Note_off_c, 1, 74, 0
1, 59910, Note_off_c, 1, 62, 0
1, 59914, Note_on_c, 1, 75, 127
1, 59914, Note_on_c, 1, 60, 127
1, 59940, Note_off_c, 1, 75, 0
1, 59940, Note_off_c, 1, 60, 0
1, 59944, Note_on_c, 1, 77, 127
1, 59944, Note_on_c, 1, 62, 127
1, 59970, Note_off_c, 1, 77, 0
1, 59970, Note_off_c, 1, 62, 0
1, 59974, Note_on_c, 1, 74, 127
1, 59974, Note_on_c, 1, 72, 127
1, 60000, Note_off_c, 1, 74, 0
1, 60000, Note_off_c, 1, 72, 0
1, 60004, Note_on_c, 1, 75, 127
1, 60004, Note_on_c, 1, 70, 127
1, 60030, Note_off_c, 1, 75, 0
1, 60030, Note_off_c, 1, 70, 0
1, 60034, Note_on_c, 1, 77, 127
1, 60034, Note_on_c, 1, 68, 127
1, 60060, Note_off_c, 1, 77, 0
1, 60060, Note_off_c, 1, 68, 0
1, 60064, Note_on_c, 1, 79, 127
1, 60064, Note_on_c, 1, 67, 127
1, 60090, Note_off_c, 1, 79, 0
1, 60090, Note_off_c, 1, 67, 0
1, 60094, Note_on_c, 1, 80, 127
1, 60094, Note_on_c, 1, 65, 127
1, 60120, Note_off_c, 1, 80, 0
1, 60120, Note_off_c, 1, 65, 0
1, 60124, Note_on_c, 1, 82, 127
1, 60124, Note_on_c, 1, 67, 127
1, 60150, Note_off_c, 1, 82, 0
1, 60150, Note_off_c, 1, 67, 0
1, 60154, Note_on_c, 1, 84, 127
1, 60154, Note_on_c, 1, 68, 127
1, 60180, Note_off_c, 1, 84, 0
1, 60180, Note_off_c, 1, 68, 0
1, 60184, Note_on_c, 1, 82, 127
1, 60184, Note_on_c, 1, 67, 127
1, 60210, Note_off_c, 1, 82, 0
1, 60210, Note_off_c, 1, 67, 0
1, 60214, Note_on_c, 1, 80, 127
1, 60214, Note_on_c, 1, 65, 127
1, 60240, Note_off_c, 1, 80, 0
1, 60240, Note_off_c, 1, 65, 0
1, 60244, Note_on_c, 1, 79, 127
1, 60244, Note_on_c, 1, 63, 127
1, 60270, Note_off_c, 1, 79, 0
1, 60270, Note_off_c, 1, 63, 0
1, 60274, Note_on_c, 1, 77, 127
1, 60274, Note_on_c, 1, 62, 127
1, 60300, Note_off_c, 1, 77, 0
1, 60300, Note_off_c, 1, 62, 0
1, 60304, Note_on_c, 1, 79, 127
1, 60304, Note_on_c, 1, 63, 127
1, 60330, Note_off_c, 1, 79, 0
1, 60330, Note_off_c, 1, 63, 0
1, 60334, Note_on_c, 1, 80, 127
1, 60334, Note_on_c, 1, 65, 127
1, 60360, Note_off_c, 1, 80, 0
1, 60360, Note_off_c, 1, 65, 0
1, 60364, Note_on_c, 1, 79, 127
1, 60364, Note_on_c, 1, 63, 127
1, 60390, Note_off_c, 1, 79, 0
1, 60390, Note_off_c, 1, 63, 0
1, 60394, Note_on_c, 1, 77, 127
1, 60394, Note_on_c, 1, 62, 127
1, 60420, Note_off_c, 1, 77, 0
1, 60420, Note_off_c, 1, 62, 0
1, 60424, Note_on_c, 1, 75, 127
1, 60424, Note_on_c, 1, 60, 127
1, 60450, Note_off_c, 1, 75, 0
1, 60450, Note_off_c, 1, 60, 0
1, 60454, Note_on_c, 1, 74, 127
1, 60454, Note_on_c, 1, 59, 127
1, 60480, Note_off_c, 1, 74, 0
1, 60480, Note_off_c, 1, 59, 0
1, 60484, Note_on_c, 1, 75, 127
1, 60484, Note_on_c, 1, 60, 127
1, 60510, Note_off_c, 1, 60, 0
1, 60514, Note_on_c, 1, 62, 127
1, 60540, Note_off_c, 1, 62, 0
1, 60574, Note_on_c, 1, 74, 127
1, 60574, Note_on_c, 1, 58, 127
1, 60600, Note_off_c, 1, 58, 0
1, 60604, Note_on_c, 1, 57, 127
1, 60630, Note_off_c, 1, 57, 0
1, 60634, Note_on_c, 1, 55, 127
1, 60652, Note_off_c, 1, 74, 0
1, 60660, Note_off_c, 1, 55, 0
1, 60664, Note_on_c, 1, 72, 127
1, 60694, Note_on_c, 1, 45, 127
1, 60720, Note_off_c, 1, 45, 0
1, 60724, Note_on_c, 1, 46, 127
1, 60742, Note_off_c, 1, 72, 0
1, 60750, Note_off_c, 1, 46, 0
1, 60754, Note_on_c, 1, 70, 127
1, 60754, Note_on_c, 1, 48, 127
1, 60780, Note_off_c, 1, 48, 0
1, 60784, Note_on_c, 1, 50, 127
1, 60810, Note_off_c, 1, 50, 0
1, 60814, Note_on_c, 1, 51, 127
1, 60832, Note_off_c, 1, 70, 0
1, 60840, Note_off_c, 1, 51, 0
1, 60844, Note_on_c, 1, 69, 127
1, 60844, Note_on_c, 1, 41, 127
1, 60870, Note_off_c, 1, 75, 0
1, 60874, Note_on_c, 1, 65, 127
1, 60896, Note_off_c, 1, 69, 0
1, 60900, Note_off_c, 1, 65, 0
1, 60904, Note_on_c, 1, 64, 127
1, 60930, Note_off_c, 1, 64, 0
1, 60964, Note_on_c, 1, 67, 127
1, 60986, Note_off_c, 1, 41, 0
1, 60990, Note_off_c, 1, 67, 0
1, 60994, Note_on_c, 1, 69, 127
1, 60994, Note_on_c, 1, 63, 127
1, 61020, Note_off_c, 1, 69, 0
1, 61020, Note_off_c, 1, 63, 0
1, 61024, Note_on_c, 1, 70, 127
1, 61024, Note_on_c, 1, 61, 127
1, 61050, Note_off_c, 1, 70, 0
1, 61054, Note_on_c, 1, 65, 127
1, 61076, Note_off_c, 1, 61, 0
1, 61080, Note_off_c, 1, 65, 0
1, 61084, Note_on_c, 1, 64, 127
1, 61084, Note_on_c, 1, 60, 127
1, 61110, Note_off_c, 1, 64, 0
1, 61110, Note_off_c, 1, 60, 0
1, 61114, Note_on_c, 1, 65, 127
1, 61114, Note_on_c, 1, 61, 127
1, 61140, Note_off_c, 1, 65, 0
1, 61140, Note_off_c, 1, 61, 0
1, 61144, Note_on_c, 1, 69, 127
1, 61144, Note_on_c, 1, 65, 127
1, 61170, Note_off_c, 1, 69, 0
1, 61170, Note_off_c, 1, 65, 0
1, 61174, Note_on_c, 1, 70, 127
1, 61174, Note_on_c, 1, 58, 127
1, 61200, Note_off_c, 1, 70, 0
1, 61200, Note_off_c, 1, 58, 0
1, 61204, Note_on_c, 1, 72, 127
1, 61204, Note_on_c, 1, 57, 127
1, 61230, Note_off_c, 1, 72, 0
1, 61234, Note_on_c, 1, 65, 127
1, 61256, Note_off_c, 1, 57, 0
1, 61260, Note_off_c, 1, 65, 0
1, 61264, Note_on_c, 1, 64, 127
1, 61264, Note_on_c, 1, 55, 127
1, 61290, Note_off_c, 1, 64, 0
1, 61290, Note_off_c, 1, 55, 0
1, 61294, Note_on_c, 1, 65, 127
1, 61294, Note_on_c, 1, 57, 127
1, 61320, Note_off_c, 1, 65, 0
1, 61320, Note_off_c, 1, 57, 0
1, 61324, Note_on_c, 1, 70, 127
1, 61324, Note_on_c, 1, 60, 127
1, 61350, Note_off_c, 1, 70, 0
1, 61350, Note_off_c, 1, 60, 0
1, 61354, Note_on_c, 1, 72, 127
1, 61354, Note_on_c, 1, 53, 127
1, 61380, Note_off_c, 1, 72, 0
1, 61380, Note_off_c, 1, 53, 0
1, 61384, Note_on_c, 1, 73, 127
1, 61384, Note_on_c, 1, 58, 127
1, 61410, Note_off_c, 1, 73, 0
1, 61410, Note_off_c, 1, 58, 0
1, 61414, Note_on_c, 1, 70, 127
1, 61414, Note_on_c, 1, 61, 127
1, 61440, Note_off_c, 1, 70, 0
1, 61440, Note_off_c, 1, 61, 0
1, 61444, Note_on_c, 1, 72, 127
1, 61444, Note_on_c, 1, 56, 127
1, 61470, Note_off_c, 1, 72, 0
1, 61470, Note_off_c, 1, 56, 0
1, 61474, Note_on_c, 1, 73, 127
1, 61474, Note_on_c, 1, 54, 127
1, 61500, Note_off_c, 1, 73, 0
1, 61500, Note_off_c, 1, 54, 0
1, 61504, Note_on_c, 1, 75, 127
1, 61504, Note_on_c, 1, 58, 127
1, 61530, Note_off_c, 1, 75, 0
1, 61530, Note_off_c, 1, 58, 0
1, 61534, Note_on_c, 1, 77, 127
1, 61534, Note_on_c, 1, 53, 127
1, 61560, Note_off_c, 1, 77, 0
1, 61560, Note_off_c, 1, 53, 0
1, 61564, Note_on_c, 1, 78, 127
1, 61564, Note_on_c, 1, 51, 127
1, 61590, Note_off_c, 1, 78, 0
1, 61594, Note_on_c, 1, 75, 127
1, 61620, Note_off_c, 1, 75, 0
1, 61624, Note_on_c, 1, 77, 127
1, 61650, Note_off_c, 1, 77, 0
1, 61680, Note_off_c, 1, 51, 0
1, 61684, Note_on_c, 1, 80, 127
1, 61684, Note_on_c, 1, 46, 127
1, 61710, Note_off_c, 1, 80, 0
1, 61710, Note_off_c, 1, 46, 0
1, 61714, Note_on_c, 1, 82, 127
1, 61714, Note_on_c, 1, 42, 127
1, 61740, Note_off_c, 1, 82, 0
1, 61740, Note_off_c, 1, 42, 0
1, 61744, Note_on_c, 1, 83, 127
1, 61744, Note_on_c, 1, 39, 127
1, 61770, Note_off_c, 1, 83, 0
1, 61770, Note_off_c, 1, 39, 0
1, 61774, Note_on_c, 1, 82, 127
1, 61774, Note_on_c, 1, 42, 127
1, 61800, Note_off_c, 1, 82, 0
1, 61800, Note_off_c, 1, 42, 0
1, 61804, Note_on_c, 1, 80, 127
1, 61804, Note_on_c, 1, 46, 127
1, 61830, Note_off_c, 1, 80, 0
1, 61830, Note_off_c, 1, 46, 0
1, 61834, Note_on_c, 1, 78, 127
1, 61834, Note_on_c, 1, 51, 127
1, 61860, Note_off_c, 1, 78, 0
1, 61860, Note_off_c, 1, 51, 0
1, 61864, Note_on_c, 1, 77, 127
1, 61864, Note_on_c, 1, 53, 127
1, 61890, Note_off_c, 1, 77, 0
1, 61890, Note_off_c, 1, 53, 0
1, 61894, Note_on_c, 1, 75, 127
1, 61894, Note_on_c, 1, 54, 127
1, 61920, Note_off_c, 1, 75, 0
1, 61924, Note_on_c, 1, 81, 127
1, 61950, Note_off_c, 1, 54, 0
1, 61950, Note_off_c, 1, 81, 0
1, 61954, Note_on_c, 1, 84, 127
1, 61954, Note_on_c, 1, 53, 127
1, 61980, Note_off_c, 1, 84, 0
1, 61980, Note_off_c, 1, 53, 0
1, 61984, Note_on_c, 1, 75, 127
1, 61984, Note_on_c, 1, 55, 127
1, 62010, Note_off_c, 1, 75, 0
1, 62010, Note_off_c, 1, 55, 0
1, 62014, Note_on_c, 1, 78, 127
1, 62014, Note_on_c, 1, 57, 127
1, 62040, Note_off_c, 1, 78, 0
1, 62040, Note_off_c, 1, 57, 0
1, 62044, Note_on_c, 1, 77, 127
1, 62044, Note_on_c, 1, 58, 127
1, 62070, Note_off_c, 1, 77, 0
1, 62070, Note_off_c, 1, 58, 0
1, 62074, Note_on_c, 1, 75, 127
1, 62074, Note_on_c, 1, 60, 127
1, 62100, Note_off_c, 1, 75, 0
1, 62100, Note_off_c, 1, 60, 0
1, 62104, Note_on_c, 1, 77, 127
1, 62104, Note_on_c, 1, 62, 127
1, 62130, Note_off_c, 1, 77, 0
1, 62130, Note_off_c, 1, 62, 0
1, 62134, Note_on_c, 1, 82, 127
1, 62134, Note_on_c, 1, 63, 127
1, 62160, Note_off_c, 1, 82, 0
1, 62160, Note_off_c, 1, 63, 0
1, 62164, Note_on_c, 1, 74, 127
1, 62164, Note_on_c, 1, 65, 127
1, 62190, Note_off_c, 1, 74, 0
1, 62190, Note_off_c, 1, 65, 0
1, 62194, Note_on_c, 1, 75, 127
1, 62194, Note_on_c, 1, 67, 127
1, 62220, Note_off_c, 1, 75, 0
1, 62220, Note_off_c, 1, 67, 0
1, 62224, Note_on_c, 1, 77, 127
1, 62224, Note_on_c, 1, 65, 127
1, 62250, Note_off_c, 1, 77, 0
1, 62250, Note_off_c, 1, 65, 0
1, 62254, Note_on_c, 1, 79, 127
1, 62254, Note_on_c, 1, 63, 127
1, 62280, Note_off_c, 1, 79, 0
1, 62280, Note_off_c, 1, 63, 0
1, 62284, Note_on_c, 1, 77, 127
1, 62284, Note_on_c, 1, 62, 127
1, 62310, Note_off_c, 1, 77, 0
1, 62310, Note_off_c, 1, 62, 0
1, 62314, Note_on_c, 1, 75, 127
1, 62314, Note_on_c, 1, 60, 127
1, 62340, Note_off_c, 1, 75, 0
1, 62340, Note_off_c, 1, 60, 0
1, 62344, Note_on_c, 1, 74, 127
1, 62344, Note_on_c, 1, 58, 127
1, 62370, Note_off_c, 1, 74, 0
1, 62370, Note_off_c, 1, 58, 0
1, 62374, Note_on_c, 1, 72, 127
1, 62374, Note_on_c, 1, 65, 127
1, 62400, Note_off_c, 1, 72, 0
1, 62404, Note_on_c, 1, 82, 127
1, 62426, Note_off_c, 1, 65, 0
1, 62430, Note_off_c, 1, 82, 0
1, 62434, Note_on_c, 1, 81, 127
1, 62434, Note_on_c, 1, 53, 127
1, 62460, Note_off_c, 1, 81, 0
1, 62460, Note_off_c, 1, 53, 0
1, 62464, Note_on_c, 1, 82, 127
1, 62464, Note_on_c, 1, 46, 127
1, 62490, Note_off_c, 1, 82, 0
1, 62490, Note_off_c, 1, 46, 0
1, 62494, Note_on_c, 1, 77, 127
1, 62494, Note_on_c, 1, 50, 127
1, 62520, Note_off_c, 1, 77, 0
1, 62520, Note_off_c, 1, 50, 0
1, 62524, Note_on_c, 1, 74, 127
1, 62524, Note_on_c, 1, 53, 127
1, 62550, Note_off_c, 1, 74, 0
1, 62550, Note_off_c, 1, 53, 0
1, 62554, Note_on_c, 1, 70, 127
1, 62554, Note_on_c, 1, 58, 127
1, 62632, Note_off_c, 1, 70, 0
1, 62632, Note_off_c, 1, 58, 0
1, 62632, End_track
0, 0, End_of_file