0, 0, Header, 1, 1, 480
1, 0, Start_track
1, 0, Title_t, "Test"
1, 0, Tempo, 500000
1, 0, Instrument_name_t, "Church Organ"
1, 4, Note_on_c, 1, 43, 127
1, 49, Note_on_c, 1, 67, 127
1, 62, Note_off_c, 1, 67, 0
1, 64, Note_on_c, 1, 62, 127
1, 103, Note_off_c, 1, 62, 0
1, 109, Note_on_c, 1, 65, 127
1, 122, Note_off_c, 1, 65, 0
1, 124, Note_on_c, 1, 63, 127
1, 169, Note_on_c, 1, 58, 127
1, 182, Note_off_c, 1, 58, 0
1, 184, Note_on_c, 1, 57, 127
1, 223, Note_off_c, 1, 57, 0
1, 229, Note_on_c, 1, 60, 127
1, 242, Note_off_c, 1, 60, 0
1, 244, Note_on_c, 1, 54, 127
1, 283, Note_off_c, 1, 63, 0
1, 364, Note_on_c, 1, 69, 127
1, 403, Note_off_c, 1, 69, 0
1, 469, Note_off_c, 1, 43, 0
1, 469, Note_off_c, 1, 54, 0
1, 484, Note_on_c, 1, 58, 127
1, 484, Note_on_c, 1, 55, 127
1, 529, Note_on_c, 1, 74, 127
1, 536, Note_off_c, 1, 58, 0
1, 542, Note_off_c, 1, 74, 0
1, 544, Note_on_c, 1, 69, 127
1, 544, Note_on_c, 1, 60, 127
1, 583, Note_off_c, 1, 69, 0
1, 589, Note_on_c, 1, 72, 127
1, 596, Note_off_c, 1, 60, 0
1, 602, Note_off_c, 1, 72, 0
1, 604, Note_on_c, 1, 70, 127
1, 604, Note_on_c, 1, 62, 127
1, 643, Note_off_c, 1, 62, 0
1, 649, Note_on_c, 1, 65, 127
1, 662, Note_off_c, 1, 65, 0
1, 664, Note_on_c, 1, 64, 127
1, 703, Note_off_c, 1, 64, 0
1, 709, Note_on_c, 1, 67, 127
1, 722, Note_off_c, 1, 67, 0
1, 724, Note_on_c, 1, 61, 127
1, 763, Note_off_c, 1, 70, 0
1, 844, Note_on_c, 1, 76, 127
1, 883, Note_off_c, 1, 76, 0
1, 904, Note_on_c, 1, 66, 127
1, 943, Note_off_c, 1, 66, 0
1, 949, Note_off_c, 1, 55, 0
1, 949, Note_off_c, 1, 61, 0
1, 964, Note_on_c, 1, 66, 127
1, 964, Note_on_c, 1, 62, 127
1, 964, Note_on_c, 1, 50, 127
1, 1003, Note_off_c, 1, 66, 0
1, 1009, Note_on_c, 1, 67, 127
1, 1022, Note_off_c, 1, 67, 0
1, 1024, Note_on_c, 1, 69, 127
1, 1055, Note_off_c, 1, 62, 0
1, 1069, Note_on_c, 1, 60, 127
1, 1082, Note_off_c, 1, 60, 0
1, 1084, Note_on_c, 1, 58, 127
1, 1123, Note_off_c, 1, 69, 0
1, 1189, Note_off_c, 1, 58, 0
1, 1189, Note_on_c, 1, 70, 127
1, 1202, Note_off_c, 1, 70, 0
1, 1204, Note_on_c, 1, 72, 127
1, 1204, Note_on_c, 1, 57, 127
1, 1309, Note_on_c, 1, 64, 127
1, 1322, Note_off_c, 1, 64, 0
1, 1363, Note_off_c, 1, 72, 0
1, 1369, Note_off_c, 1, 57, 0
1, 1369, Note_on_c, 1, 74, 127
1, 1382, Note_off_c, 1, 74, 0
1, 1415, Note_off_c, 1, 50, 0
1, 1429, Note_on_c, 1, 51, 127
1, 1442, Note_off_c, 1, 51, 0
1, 1444, Note_on_c, 1, 71, 127
1, 1444, Note_on_c, 1, 53, 127
1, 1483, Note_off_c, 1, 71, 0
1, 1549, Note_off_c, 1, 53, 0
1, 1549, Note_on_c, 1, 59, 127
1, 1562, Note_off_c, 1, 59, 0
1, 1564, Note_on_c, 1, 55, 127
1, 1616, Note_off_c, 1, 55, 0
1, 1624, Note_on_c, 1, 63, 127
1, 1669, Note_on_c, 1, 75, 127
1, 1676, Note_off_c, 1, 63, 0
1, 1682, Note_off_c, 1, 75, 0
1, 1684, Note_on_c, 1, 77, 127
1, 1684, Note_on_c, 1, 56, 127
1, 1736, Note_off_c, 1, 56, 0
1, 1843, Note_off_c, 1, 77, 0
1, 1849, Note_on_c, 1, 79, 127
1, 1862, Note_off_c, 1, 79, 0
1, 1864, Note_on_c, 1, 43, 127
1, 1916, Note_off_c, 1, 43, 0
1, 1924, Note_on_c, 1, 48, 127
1, 2044, Note_on_c, 1, 68, 127
1, 2149, Note_on_c, 1, 65, 127
1, 2162, Note_off_c, 1, 65, 0
1, 2203, Note_off_c, 1, 68, 0
1, 2389, Note_off_c, 1, 48, 0
1, 2644, Note_on_c, 1, 54, 127
1, 2764, Note_on_c, 1, 81, 127
1, 2869, Note_off_c, 1, 54, 0
1, 2923, Note_off_c, 1, 81, 0
1, 3124, Note_on_c, 1, 73, 127
1, 3184, Note_on_c, 1, 52, 127
1, 3223, Note_off_c, 1, 52, 0
1, 3229, Note_off_c, 1, 73, 0
1, 3304, Note_on_c, 1, 45, 127
1, 3343, Note_off_c, 1, 45, 0
1, 3364, Note_on_c, 1, 46, 127
1, 3469, Note_off_c, 1, 46, 0
1, 3484, Note_on_c, 1, 47, 127
1, 3529, Note_on_c, 1, 49, 127
1, 3542, Note_off_c, 1, 49, 0
1, 3589, Note_off_c, 1, 47, 0
1, 3664, Note_on_c, 1, 76, 127
1, 3703, Note_off_c, 1, 76, 0
1, 4084, Note_on_c, 1, 61, 127
1, 4309, Note_off_c, 1, 61, 0
1, 4324, Note_on_c, 1, 66, 127
1, 4324, Note_on_c, 1, 62, 127
1, 4324, Note_on_c, 1, 57, 127
1, 4324, Note_on_c, 1, 48, 127
1, 4363, Note_off_c, 1, 66, 0
1, 4369, Note_on_c, 1, 67, 127
1, 4382, Note_off_c, 1, 67, 0
1, 4384, Note_on_c, 1, 69, 127
1, 4415, Note_off_c, 1, 57, 0
1, 4429, Note_off_c, 1, 62, 0
1, 4429, Note_off_c, 1, 48, 0
1, 4429, Note_on_c, 1, 54, 127
1, 4442, Note_off_c, 1, 54, 0
1, 4444, Note_on_c, 1, 50, 127
1, 4444, Note_on_c, 1, 46, 127
1, 4483, Note_off_c, 1, 69, 0
1, 4496, Note_off_c, 1, 50, 0
1, 4504, Note_on_c, 1, 58, 127
1, 4549, Note_off_c, 1, 46, 0
1, 4549, Note_on_c, 1, 70, 127
1, 4556, Note_off_c, 1, 58, 0
1, 4562, Note_off_c, 1, 70, 0
1, 4564, Note_on_c, 1, 72, 127
1, 4564, Note_on_c, 1, 51, 127
1, 4564, Note_on_c, 1, 45, 127
1, 4616, Note_off_c, 1, 51, 0
1, 4669, Note_off_c, 1, 45, 0
1, 4669, Note_on_c, 1, 64, 127
1, 4682, Note_off_c, 1, 64, 0
1, 4723, Note_off_c, 1, 72, 0
1, 4729, Note_on_c, 1, 74, 127
1, 4742, Note_off_c, 1, 74, 0
1, 4744, Note_on_c, 1, 38, 127
1, 4796, Note_off_c, 1, 38, 0
1, 4804, Note_on_c, 1, 43, 127
1, 4856, Note_off_c, 1, 43, 0
1, 4909, Note_on_c, 1, 65, 127
1, 4922, Note_off_c, 1, 65, 0
1, 4924, Note_on_c, 1, 63, 127
1, 4924, Note_on_c, 1, 55, 127
1, 4976, Note_off_c, 1, 63, 0
1, 4984, Note_on_c, 1, 75, 127
1, 5023, Note_off_c, 1, 75, 0
1, 5029, Note_on_c, 1, 79, 127
1, 5042, Note_off_c, 1, 79, 0
1, 5044, Note_on_c, 1, 68, 127
1, 5044, Note_on_c, 1, 60, 127
1, 5083, Note_off_c, 1, 55, 0
1, 5083, Note_off_c, 1, 60, 0
1, 5089, Note_on_c, 1, 53, 127
1, 5102, Note_off_c, 1, 53, 0
1, 5224, Note_on_c, 1, 41, 127
1, 5263, Note_off_c, 1, 41, 0
1, 5269, Note_on_c, 1, 44, 127
1, 5282, Note_off_c, 1, 44, 0
1, 5323, Note_off_c, 1, 68, 0
1, 5644, Note_on_c, 1, 47, 127
1, 5749, Note_off_c, 1, 47, 0
1, 5809, Note_on_c, 1, 59, 127
1, 5822, Note_off_c, 1, 59, 0
1, 5944, Note_on_c, 1, 69, 127
1, 5944, Note_on_c, 1, 48, 127
1, 5983, Note_off_c, 1, 69, 0
1, 5989, Note_on_c, 1, 72, 127
1, 5989, Note_on_c, 1, 51, 127
1, 6002, Note_off_c, 1, 72, 0
1, 6002, Note_off_c, 1, 51, 0
1, 6004, Note_on_c, 1, 66, 127
1, 6004, Note_on_c, 1, 50, 127
1, 6043, Note_off_c, 1, 66, 0
1, 6043, Note_off_c, 1, 50, 0
1, 6049, Note_on_c, 1, 62, 127
1, 6049, Note_on_c, 1, 54, 127
1, 6062, Note_off_c, 1, 62, 0
1, 6062, Note_off_c, 1, 54, 0
1, 6064, Note_on_c, 1, 57, 127
1, 6095, Note_off_c, 1, 48, 0
1, 6124, Note_on_c, 1, 74, 127
1, 6124, Note_on_c, 1, 46, 127
1, 6163, Note_off_c, 1, 57, 0
1, 6184, Note_on_c, 1, 70, 127
1, 6184, Note_on_c, 1, 55, 127
1, 6223, Note_off_c, 1, 70, 0
1, 6223, Note_off_c, 1, 55, 0
1, 6244, Note_on_c, 1, 67, 127
1, 6244, Note_on_c, 1, 58, 127
1, 6283, Note_off_c, 1, 46, 0
1, 6403, Note_off_c, 1, 74, 0
1, 6403, Note_off_c, 1, 58, 0
1, 6409, Note_on_c, 1, 79, 127
1, 6422, Note_off_c, 1, 79, 0
1, 6469, Note_off_c, 1, 67, 0
1, 6469, Note_on_c, 1, 75, 127
1, 6482, Note_off_c, 1, 75, 0
1, 6484, Note_on_c, 1, 65, 127
1, 6484, Note_on_c, 1, 60, 127
1, 6510, Note_off_c, 1, 65, 0
1, 6523, Note_off_c, 1, 60, 0
1, 6544, Note_on_c, 1, 53, 127
1, 6583, Note_off_c, 1, 53, 0
1, 6604, Note_on_c, 1, 77, 127
1, 6604, Note_on_c, 1, 62, 127
1, 6649, Note_on_c, 1, 65, 127
1, 6649, Note_on_c, 1, 50, 127
1, 6662, Note_off_c, 1, 65, 0
1, 6662, Note_off_c, 1, 50, 0
1, 6664, Note_on_c, 1, 67, 127
1, 6664, Note_on_c, 1, 51, 127
1, 6703, Note_off_c, 1, 67, 0
1, 6703, Note_off_c, 1, 51, 0
1, 6709, Note_on_c, 1, 69, 127
1, 6709, Note_on_c, 1, 53, 127
1, 6722, Note_off_c, 1, 69, 0
1, 6722, Note_off_c, 1, 53, 0
1, 6724, Note_off_c, 1, 77, 0
1, 6724, Note_on_c, 1, 70, 127
1, 6724, Note_on_c, 1, 55, 127
1, 6769, Note_on_c, 1, 82, 127
1, 6782, Note_off_c, 1, 82, 0
1, 6784, Note_on_c, 1, 79, 127
1, 6823, Note_off_c, 1, 79, 0
1, 6829, Note_on_c, 1, 74, 127
1, 6842, Note_off_c, 1, 74, 0
1, 6844, Note_on_c, 1, 76, 127
1, 6883, Note_off_c, 1, 62, 0
1, 6889, Note_on_c, 1, 61, 127
1, 6902, Note_off_c, 1, 61, 0
1, 6904, Note_on_c, 1, 60, 127
1, 6935, Note_off_c, 1, 76, 0
1, 6943, Note_off_c, 1, 60, 0
1, 6949, Note_off_c, 1, 55, 0
1, 6949, Note_on_c, 1, 58, 127
1, 6962, Note_off_c, 1, 58, 0
1, 7003, Note_off_c, 1, 70, 0
1, 7024, Note_on_c, 1, 68, 127
1, 7063, Note_off_c, 1, 68, 0
1, 7129, Note_on_c, 1, 75, 127
1, 7142, Note_off_c, 1, 75, 0
1, 7189, Note_on_c, 1, 63, 127
1, 7202, Note_off_c, 1, 63, 0
1, 7204, Note_on_c, 1, 71, 127
1, 7309, Note_off_c, 1, 71, 0
1, 7324, Note_on_c, 1, 72, 127
1, 7369, Note_on_c, 1, 48, 127
1, 7382, Note_off_c, 1, 48, 0
1, 7384, Note_on_c, 1, 43, 127
1, 7423, Note_off_c, 1, 43, 0
1, 7429, Note_on_c, 1, 46, 127
1, 7442, Note_off_c, 1, 46, 0
1, 7444, Note_on_c, 1, 45, 127
1, 7483, Note_off_c, 1, 72, 0
1, 7564, Note_on_c, 1, 54, 127
1, 7616, Note_off_c, 1, 54, 0
1, 7624, Note_on_c, 1, 66, 127
1, 7624, Note_on_c, 1, 57, 127
1, 7663, Note_off_c, 1, 66, 0
1, 7669, Note_off_c, 1, 45, 0
1, 7736, Note_off_c, 1, 57, 0
1, 8344, Note_on_c, 1, 38, 127
1, 8383, Note_off_c, 1, 38, 0
1, 8389, Note_on_c, 1, 41, 127
1, 8402, Note_off_c, 1, 41, 0
1, 8404, Note_on_c, 1, 39, 127
1, 8456, Note_off_c, 1, 39, 0
1, 8584, Note_on_c, 1, 52, 127
1, 8636, Note_off_c, 1, 52, 0
1, 8644, Note_on_c, 1, 66, 127
1, 8644, Note_on_c, 1, 62, 127
1, 8644, Note_on_c, 1, 58, 127
1, 8644, Note_on_c, 1, 50, 127
1, 8683, Note_off_c, 1, 62, 0
1, 8689, Note_on_c, 1, 61, 127
1, 8702, Note_off_c, 1, 61, 0
1, 8735, Note_off_c, 1, 66, 0
1, 8764, Note_on_c, 1, 67, 127
1, 8803, Note_off_c, 1, 58, 0
1, 8824, Note_on_c, 1, 57, 127
1, 8863, Note_off_c, 1, 57, 0
1, 8869, Note_on_c, 1, 55, 127
1, 8882, Note_off_c, 1, 55, 0
1, 8923, Note_off_c, 1, 67, 0
1, 8929, Note_on_c, 1, 70, 127
1, 8942, Note_off_c, 1, 70, 0
1, 8944, Note_on_c, 1, 69, 127
1, 8944, Note_on_c, 1, 60, 127
1, 8983, Note_off_c, 1, 69, 0
1, 8989, Note_on_c, 1, 72, 127
1, 9002, Note_off_c, 1, 72, 0
1, 9043, Note_off_c, 1, 60, 0
1, 9049, Note_on_c, 1, 63, 127
1, 9062, Note_off_c, 1, 63, 0
1, 9109, Note_off_c, 1, 50, 0
1, 9124, Note_on_c, 1, 43, 127
1, 9184, Note_on_c, 1, 59, 127
1, 9229, Note_on_c, 1, 65, 127
1, 9242, Note_off_c, 1, 65, 0
1, 9283, Note_off_c, 1, 59, 0
1, 9349, Note_on_c, 1, 54, 127
1, 9362, Note_off_c, 1, 54, 0
1, 9469, Note_on_c, 1, 53, 127
1, 9475, Note_off_c, 1, 53, 0
1, 9476, Note_on_c, 1, 51, 127
1, 9483, Note_off_c, 1, 51, 0
1, 9484, Note_on_c, 1, 77, 127
1, 9544, Note_on_c, 1, 71, 127
1, 9575, Note_off_c, 1, 77, 0
1, 9589, Note_on_c, 1, 74, 127
1, 9602, Note_off_c, 1, 74, 0
1, 9604, Note_on_c, 1, 75, 127
1, 9643, Note_off_c, 1, 71, 0
1, 9695, Note_off_c, 1, 75, 0
1, 9724, Note_on_c, 1, 48, 127
1, 9763, Note_off_c, 1, 48, 0
1, 9784, Note_on_c, 1, 79, 127
1, 9823, Note_off_c, 1, 79, 0
1, 9829, Note_on_c, 1, 78, 127
1, 9842, Note_off_c, 1, 78, 0
1, 10069, Note_off_c, 1, 43, 0
1, 10069, End_track
0, 0, End_of_file