0, 0, Header, 1, 1, 480
1, 0, Start_track
1, 0, Title_t, "Test"
1, 0, Tempo, 500000
1, 0, Instrument_name_t, "Church Organ"
1, 5, Note_on_c, 1, 62, 127
1, 5, Note_on_c, 1, 47, 127
1, 64, Note_off_c, 1, 62, 0
1, 65, Note_on_c, 1, 66, 127
1, 94, Note_off_c, 1, 47, 0
1, 117, Note_off_c, 1, 66, 0
1, 125, Note_on_c, 1, 59, 127
1, 125, Note_on_c, 1, 50, 127
1, 185, Note_on_c, 1, 61, 127
1, 186, Note_off_c, 1, 59, 0
1, 214, Note_off_c, 1, 50, 0
1, 237, Note_off_c, 1, 61, 0
1, 245, Note_on_c, 1, 62, 127
1, 245, Note_on_c, 1, 54, 127
1, 304, Note_off_c, 1, 62, 0
1, 305, Note_on_c, 1, 66, 127
1, 357, Note_off_c, 1, 66, 0
1, 365, Note_on_c, 1, 59, 127
1, 395, Note_on_c, 1, 55, 127
1, 402, Note_off_c, 1, 54, 0
1, 424, Note_off_c, 1, 59, 0
1, 438, Note_off_c, 1, 55, 0
1, 455, Note_on_c, 1, 53, 127
1, 485, Note_on_c, 1, 61, 127
1, 494, Note_off_c, 1, 53, 0
1, 540, Note_off_c, 1, 61, 0
1, 605, Note_on_c, 1, 67, 127
1, 605, Note_on_c, 1, 46, 127
1, 642, Note_off_c, 1, 67, 0
1, 665, Note_on_c, 1, 65, 127
1, 694, Note_off_c, 1, 46, 0
1, 702, Note_off_c, 1, 65, 0
1, 725, Note_on_c, 1, 70, 127
1, 725, Note_on_c, 1, 49, 127
1, 777, Note_off_c, 1, 70, 0
1, 814, Note_off_c, 1, 49, 0
1, 845, Note_on_c, 1, 73, 127
1, 845, Note_on_c, 1, 54, 127
1, 889, Note_off_c, 1, 73, 0
1, 905, Note_on_c, 1, 64, 127
1, 934, Note_off_c, 1, 54, 0
1, 949, Note_off_c, 1, 64, 0
1, 965, Note_on_c, 1, 62, 127
1, 965, Note_on_c, 1, 47, 127
1, 1025, Note_on_c, 1, 66, 127
1, 1028, Note_off_c, 1, 62, 0
1, 1054, Note_off_c, 1, 47, 0
1, 1077, Note_off_c, 1, 66, 0
1, 1085, Note_on_c, 1, 59, 127
1, 1085, Note_on_c, 1, 50, 127
1, 1145, Note_on_c, 1, 61, 127
1, 1146, Note_off_c, 1, 59, 0
1, 1174, Note_off_c, 1, 50, 0
1, 1197, Note_off_c, 1, 61, 0
1, 1205, Note_on_c, 1, 62, 127
1, 1205, Note_on_c, 1, 54, 127
1, 1257, Note_off_c, 1, 62, 0
1, 1265, Note_on_c, 1, 66, 127
1, 1317, Note_off_c, 1, 66, 0
1, 1325, Note_on_c, 1, 59, 127
1, 1355, Note_on_c, 1, 55, 127
1, 1369, Note_off_c, 1, 54, 0
1, 1386, Note_off_c, 1, 59, 0
1, 1390, Note_off_c, 1, 55, 0
1, 1415, Note_on_c, 1, 53, 127
1, 1445, Note_on_c, 1, 61, 127
1, 1450, Note_off_c, 1, 53, 0
1, 1510, Note_off_c, 1, 61, 0
1, 1565, Note_on_c, 1, 61, 127
1, 1565, Note_on_c, 1, 42, 127
1, 1617, Note_off_c, 1, 61, 0
1, 1625, Note_on_c, 1, 58, 127
1, 1639, Note_off_c, 1, 42, 0
1, 1677, Note_off_c, 1, 58, 0
1, 1685, Note_on_c, 1, 54, 127
1, 1737, Note_off_c, 1, 54, 0
1, 1745, Note_on_c, 1, 52, 127
1, 1797, Note_off_c, 1, 52, 0
1, 1805, Note_on_c, 1, 50, 127
1, 1857, Note_off_c, 1, 50, 0
1, 1865, Note_on_c, 1, 49, 127
1, 1917, Note_off_c, 1, 49, 0
1, 1925, Note_on_c, 1, 50, 127
1, 1985, Note_on_c, 1, 54, 127
1, 1988, Note_off_c, 1, 50, 0
1, 2037, Note_off_c, 1, 54, 0
1, 2045, Note_on_c, 1, 74, 127
1, 2045, Note_on_c, 1, 47, 127
1, 2105, Note_on_c, 1, 49, 127
1, 2106, Note_off_c, 1, 47, 0
1, 2128, Note_off_c, 1, 74, 0
1, 2157, Note_off_c, 1, 49, 0
1, 2165, Note_on_c, 1, 71, 127
1, 2165, Note_on_c, 1, 50, 127
1, 2225, Note_on_c, 1, 54, 127
1, 2228, Note_off_c, 1, 50, 0
1, 2256, Note_off_c, 1, 71, 0
1, 2277, Note_off_c, 1, 54, 0
1, 2285, Note_on_c, 1, 66, 127
1, 2285, Note_on_c, 1, 47, 127
1, 2345, Note_on_c, 1, 50, 127
1, 2346, Note_off_c, 1, 47, 0
1, 2366, Note_off_c, 1, 66, 0
1, 2397, Note_off_c, 1, 50, 0
1, 2405, Note_on_c, 1, 49, 127
1, 2465, Note_on_c, 1, 54, 127
1, 2468, Note_off_c, 1, 49, 0
1, 2525, Note_on_c, 1, 76, 127
1, 2525, Note_on_c, 1, 55, 127
1, 2539, Note_off_c, 1, 54, 0
1, 2569, Note_off_c, 1, 55, 0
1, 2585, Note_on_c, 1, 53, 127
1, 2612, Note_off_c, 1, 76, 0
1, 2629, Note_off_c, 1, 53, 0
1, 2645, Note_on_c, 1, 73, 127
1, 2645, Note_on_c, 1, 58, 127
1, 2697, Note_off_c, 1, 58, 0
1, 2734, Note_off_c, 1, 73, 0
1, 2765, Note_on_c, 1, 66, 127
1, 2765, Note_on_c, 1, 61, 127
1, 2817, Note_off_c, 1, 61, 0
1, 2825, Note_on_c, 1, 52, 127
1, 2846, Note_off_c, 1, 66, 0
1, 2877, Note_off_c, 1, 52, 0
1, 2885, Note_on_c, 1, 50, 127
1, 2945, Note_on_c, 1, 54, 127
1, 2946, Note_off_c, 1, 50, 0
1, 2997, Note_off_c, 1, 54, 0
1, 3005, Note_on_c, 1, 78, 127
1, 3005, Note_on_c, 1, 47, 127
1, 3064, Note_off_c, 1, 47, 0
1, 3065, Note_on_c, 1, 49, 127
1, 3117, Note_off_c, 1, 49, 0
1, 3125, Note_on_c, 1, 50, 127
1, 3177, Note_off_c, 1, 50, 0
1, 3185, Note_on_c, 1, 76, 127
1, 3185, Note_on_c, 1, 54, 127
1, 3199, Note_off_c, 1, 78, 0
1, 3215, Note_on_c, 1, 74, 127
1, 3229, Note_off_c, 1, 76, 0
1, 3237, Note_off_c, 1, 54, 0
1, 3259, Note_off_c, 1, 74, 0
1, 3305, Note_on_c, 1, 73, 127
1, 3335, Note_on_c, 1, 71, 127
1, 3349, Note_off_c, 1, 73, 0
1, 3361, Note_off_c, 1, 71, 0
1, 3365, Note_on_c, 1, 71, 127
1, 3365, Note_on_c, 1, 49, 127
1, 3425, Note_on_c, 1, 54, 127
1, 3426, Note_off_c, 1, 49, 0
1, 3470, Note_off_c, 1, 71, 0
1, 3477, Note_off_c, 1, 54, 0
1, 3494, Note_on_c, 1, 70, 127
1, 3517, Note_off_c, 1, 70, 0
1, 3545, Note_on_c, 1, 46, 127
1, 3597, Note_off_c, 1, 46, 0
1, 3605, Note_on_c, 1, 42, 127
1, 3665, Note_on_c, 1, 64, 127
1, 3684, Note_off_c, 1, 42, 0
1, 3695, Note_on_c, 1, 62, 127
1, 3700, Note_off_c, 1, 64, 0
1, 3725, Note_on_c, 1, 61, 127
1, 3725, Note_on_c, 1, 58, 127
1, 3730, Note_off_c, 1, 62, 0
1, 3760, Note_off_c, 1, 61, 0
1, 3802, Note_off_c, 1, 58, 0
1, 3845, Note_on_c, 1, 62, 127
1, 3845, Note_on_c, 1, 47, 127
1, 3888, Note_off_c, 1, 62, 0
1, 3910, Note_on_c, 1, 71, 127
1, 3926, Note_off_c, 1, 47, 0
1, 3935, Note_on_c, 1, 73, 127
1, 3945, Note_off_c, 1, 71, 0
1, 3965, Note_on_c, 1, 74, 127
1, 3965, Note_on_c, 1, 59, 127
1, 3970, Note_off_c, 1, 73, 0
1, 4000, Note_off_c, 1, 74, 0
1, 4072, Note_off_c, 1, 59, 0
1, 4085, Note_on_c, 1, 61, 127
1, 4150, Note_on_c, 1, 78, 127
1, 4200, Note_off_c, 1, 61, 0
1, 4205, Note_on_c, 1, 63, 127
1, 4243, Note_off_c, 1, 78, 0
1, 4270, Note_on_c, 1, 69, 127
1, 4316, Note_off_c, 1, 63, 0
1, 4325, Note_on_c, 1, 64, 127
1, 4373, Note_off_c, 1, 69, 0
1, 4396, Note_off_c, 1, 64, 0
1, 4445, Note_on_c, 1, 68, 127
1, 4445, Note_on_c, 1, 52, 127
1, 4480, Note_off_c, 1, 68, 0
1, 4556, Note_off_c, 1, 52, 0
1, 4565, Note_on_c, 1, 54, 127
1, 4680, Note_off_c, 1, 54, 0
1, 4685, Note_on_c, 1, 56, 127
1, 4796, Note_off_c, 1, 56, 0
1, 4805, Note_on_c, 1, 61, 127
1, 4805, Note_on_c, 1, 45, 127
1, 4840, Note_off_c, 1, 61, 0
1, 4872, Note_on_c, 1, 69, 127
1, 4878, Note_off_c, 1, 45, 0
1, 4895, Note_on_c, 1, 71, 127
1, 4907, Note_off_c, 1, 69, 0
1, 4925, Note_on_c, 1, 73, 127
1, 4925, Note_on_c, 1, 57, 127
1, 4930, Note_off_c, 1, 71, 0
1, 4958, Note_off_c, 1, 73, 0
1, 5030, Note_off_c, 1, 57, 0
1, 5045, Note_on_c, 1, 59, 127
1, 5110, Note_on_c, 1, 76, 127
1, 5150, Note_off_c, 1, 59, 0
1, 5215, Note_off_c, 1, 76, 0
1, 5230, Note_on_c, 1, 67, 127
1, 5285, Note_on_c, 1, 62, 127
1, 5331, Note_off_c, 1, 67, 0
1, 5380, Note_off_c, 1, 62, 0
1, 5405, Note_on_c, 1, 66, 127
1, 5405, Note_on_c, 1, 50, 127
1, 5440, Note_off_c, 1, 66, 0
1, 5510, Note_off_c, 1, 50, 0
1, 5525, Note_on_c, 1, 52, 127
1, 5630, Note_off_c, 1, 52, 0
1, 5645, Note_on_c, 1, 54, 127
1, 5750, Note_off_c, 1, 54, 0
1, 5765, Note_on_c, 1, 59, 127
1, 5765, Note_on_c, 1, 43, 127
1, 5802, Note_off_c, 1, 59, 0
1, 5832, Note_on_c, 1, 66, 127
1, 5854, Note_off_c, 1, 43, 0
1, 5885, Note_on_c, 1, 47, 127
1, 5937, Note_off_c, 1, 66, 0
1, 5950, Note_on_c, 1, 69, 127
1, 5976, Note_off_c, 1, 47, 0
1, 6005, Note_on_c, 1, 50, 127
1, 6062, Note_off_c, 1, 69, 0
1, 6070, Note_on_c, 1, 67, 127
1, 6096, Note_off_c, 1, 50, 0
1, 6101, Note_off_c, 1, 67, 0
1, 6125, Note_on_c, 1, 52, 127
1, 6185, Note_on_c, 1, 64, 127
1, 6215, Note_on_c, 1, 62, 127
1, 6216, Note_off_c, 1, 52, 0
1, 6220, Note_off_c, 1, 64, 0
1, 6245, Note_on_c, 1, 61, 127
1, 6245, Note_on_c, 1, 45, 127
1, 6256, Note_off_c, 1, 62, 0
1, 6282, Note_off_c, 1, 61, 0
1, 6328, Note_off_c, 1, 45, 0
1, 6365, Note_on_c, 1, 49, 127
1, 6425, Note_on_c, 1, 71, 127
1, 6452, Note_off_c, 1, 49, 0
1, 6537, Note_off_c, 1, 71, 0
1, 6605, Note_on_c, 1, 54, 127
1, 6694, Note_off_c, 1, 54, 0
1, 6910, Note_on_c, 1, 72, 127
1, 7022, Note_off_c, 1, 72, 0
1, 7085, Note_on_c, 1, 55, 127
1, 7190, Note_off_c, 1, 55, 0
1, 7396, Note_on_c, 1, 74, 127
1, 7508, Note_off_c, 1, 74, 0
1, 7516, Note_on_c, 1, 73, 127
1, 7542, Note_off_c, 1, 73, 0
1, 7565, Note_on_c, 1, 57, 127
1, 7670, Note_off_c, 1, 57, 0
1, 7685, Note_on_c, 1, 66, 127
1, 7685, Note_on_c, 1, 50, 127
1, 7745, Note_on_c, 1, 69, 127
1, 7746, Note_off_c, 1, 66, 0
1, 7780, Note_off_c, 1, 50, 0
1, 7797, Note_off_c, 1, 69, 0
1, 7805, Note_on_c, 1, 62, 127
1, 7805, Note_on_c, 1, 54, 127
1, 7865, Note_on_c, 1, 64, 127
1, 7868, Note_off_c, 1, 62, 0
1, 7896, Note_off_c, 1, 54, 0
1, 7917, Note_off_c, 1, 64, 0
1, 7925, Note_on_c, 1, 66, 127
1, 7925, Note_on_c, 1, 57, 127
1, 7985, Note_on_c, 1, 69, 127
1, 7986, Note_off_c, 1, 66, 0
1, 8037, Note_off_c, 1, 69, 0
1, 8045, Note_on_c, 1, 62, 127
1, 8078, Note_off_c, 1, 57, 0
1, 8078, Note_on_c, 1, 59, 127
1, 8097, Note_off_c, 1, 62, 0
1, 8113, Note_off_c, 1, 59, 0
1, 8135, Note_on_c, 1, 56, 127
1, 8161, Note_off_c, 1, 56, 0
1, 8165, Note_on_c, 1, 64, 127
1, 8165, Note_on_c, 1, 57, 127
1, 8225, Note_on_c, 1, 69, 127
1, 8226, Note_off_c, 1, 64, 0
1, 8252, Note_off_c, 1, 57, 0
1, 8277, Note_off_c, 1, 69, 0
1, 8285, Note_on_c, 1, 71, 127
1, 8285, Note_on_c, 1, 49, 127
1, 8315, Note_on_c, 1, 69, 127
1, 8320, Note_off_c, 1, 71, 0
1, 8345, Note_on_c, 1, 68, 127
1, 8352, Note_off_c, 1, 69, 0
1, 8376, Note_off_c, 1, 49, 0
1, 8382, Note_off_c, 1, 68, 0
1, 8405, Note_on_c, 1, 73, 127
1, 8405, Note_on_c, 1, 52, 127
1, 8457, Note_off_c, 1, 73, 0
1, 8490, Note_off_c, 1, 52, 0
1, 8525, Note_on_c, 1, 76, 127
1, 8525, Note_on_c, 1, 57, 127
1, 8577, Note_off_c, 1, 76, 0
1, 8585, Note_on_c, 1, 67, 127
1, 8630, Note_off_c, 1, 57, 0
1, 8637, Note_off_c, 1, 67, 0
1, 8645, Note_on_c, 1, 66, 127
1, 8645, Note_on_c, 1, 50, 127
1, 8705, Note_on_c, 1, 69, 127
1, 8708, Note_off_c, 1, 66, 0
1, 8730, Note_off_c, 1, 50, 0
1, 8757, Note_off_c, 1, 69, 0
1, 8765, Note_on_c, 1, 62, 127
1, 8765, Note_on_c, 1, 54, 127
1, 8825, Note_on_c, 1, 64, 127
1, 8832, Note_off_c, 1, 62, 0
1, 8850, Note_off_c, 1, 54, 0
1, 8877, Note_off_c, 1, 64, 0
1, 8885, Note_on_c, 1, 66, 127
1, 8885, Note_on_c, 1, 57, 127
1, 8945, Note_on_c, 1, 69, 127
1, 8948, Note_off_c, 1, 66, 0
1, 8997, Note_off_c, 1, 69, 0
1, 9005, Note_on_c, 1, 62, 127
1, 9031, Note_off_c, 1, 57, 0
1, 9035, Note_on_c, 1, 59, 127
1, 9057, Note_off_c, 1, 62, 0
1, 9072, Note_off_c, 1, 59, 0
1, 9095, Note_on_c, 1, 56, 127
1, 9121, Note_off_c, 1, 56, 0
1, 9125, Note_on_c, 1, 64, 127
1, 9125, Note_on_c, 1, 57, 127
1, 9177, Note_off_c, 1, 64, 0
1, 9185, Note_on_c, 1, 69, 127
1, 9230, Note_off_c, 1, 57, 0
1, 9237, Note_off_c, 1, 69, 0
1, 9245, Note_on_c, 1, 64, 127
1, 9245, Note_on_c, 1, 45, 127
1, 9297, Note_off_c, 1, 64, 0
1, 9305, Note_on_c, 1, 61, 127
1, 9350, Note_off_c, 1, 45, 0
1, 9357, Note_off_c, 1, 61, 0
1, 9365, Note_on_c, 1, 57, 127
1, 9417, Note_off_c, 1, 57, 0
1, 9425, Note_on_c, 1, 55, 127
1, 9477, Note_off_c, 1, 55, 0
1, 9485, Note_on_c, 1, 54, 127
1, 9537, Note_off_c, 1, 54, 0
1, 9545, Note_on_c, 1, 52, 127
1, 9597, Note_off_c, 1, 52, 0
1, 9605, Note_on_c, 1, 54, 127
1, 9665, Note_on_c, 1, 57, 127
1, 9672, Note_off_c, 1, 54, 0
1, 9717, Note_off_c, 1, 57, 0
1, 9725, Note_on_c, 1, 69, 127
1, 9725, Note_on_c, 1, 50, 127
1, 9785, Note_on_c, 1, 52, 127
1, 9788, Note_off_c, 1, 50, 0
1, 9830, Note_off_c, 1, 69, 0
1, 9837, Note_off_c, 1, 52, 0
1, 9845, Note_on_c, 1, 71, 127
1, 9845, Note_on_c, 1, 54, 127
1, 9875, Note_on_c, 1, 69, 127
1, 9882, Note_off_c, 1, 71, 0
1, 9905, Note_on_c, 1, 68, 127
1, 9905, Note_on_c, 1, 57, 127
1, 9910, Note_off_c, 1, 69, 0
1, 9914, Note_off_c, 1, 54, 0
1, 9942, Note_off_c, 1, 68, 0
1, 9957, Note_off_c, 1, 57, 0
1, 9965, Note_on_c, 1, 78, 127
1, 9965, Note_on_c, 1, 50, 127
1, 10020, Note_off_c, 1, 78, 0
1, 10025, Note_on_c, 1, 54, 127
1, 10034, Note_off_c, 1, 50, 0
1, 10077, Note_off_c, 1, 54, 0
1, 10085, Note_on_c, 1, 52, 127
1, 10145, Note_on_c, 1, 57, 127
1, 10154, Note_off_c, 1, 52, 0
1, 10197, Note_off_c, 1, 57, 0
1, 10205, Note_on_c, 1, 69, 127
1, 10205, Note_on_c, 1, 59, 127
1, 10235, Note_on_c, 1, 57, 127
1, 10242, Note_off_c, 1, 59, 0
1, 10265, Note_on_c, 1, 56, 127
1, 10274, Note_off_c, 1, 57, 0
1, 10302, Note_off_c, 1, 56, 0
1, 10325, Note_on_c, 1, 71, 127
1, 10325, Note_on_c, 1, 61, 127
1, 10328, Note_off_c, 1, 69, 0
1, 10362, Note_off_c, 1, 71, 0
1, 10385, Note_on_c, 1, 68, 127
1, 10392, Note_off_c, 1, 61, 0
1, 10422, Note_off_c, 1, 68, 0
1, 10445, Note_on_c, 1, 79, 127
1, 10445, Note_on_c, 1, 64, 127
1, 10497, Note_off_c, 1, 64, 0
1, 10502, Note_off_c, 1, 79, 0
1, 10505, Note_on_c, 1, 55, 127
1, 10552, Note_off_c, 1, 55, 0
1, 10565, Note_on_c, 1, 54, 127
1, 10625, Note_on_c, 1, 57, 127
1, 10636, Note_off_c, 1, 54, 0
1, 10677, Note_off_c, 1, 57, 0
1, 10685, Note_on_c, 1, 69, 127
1, 10685, Note_on_c, 1, 50, 127
1, 10745, Note_on_c, 1, 52, 127
1, 10750, Note_off_c, 1, 50, 0
1, 10797, Note_off_c, 1, 52, 0
1, 10805, Note_on_c, 1, 71, 127
1, 10805, Note_on_c, 1, 54, 127
1, 10812, Note_off_c, 1, 69, 0
1, 10840, Note_off_c, 1, 71, 0
1, 10865, Note_on_c, 1, 68, 127
1, 10865, Note_on_c, 1, 57, 127
1, 10878, Note_off_c, 1, 54, 0
1, 10900, Note_off_c, 1, 68, 0
1, 10917, Note_off_c, 1, 57, 0
1, 10925, Note_on_c, 1, 81, 127
1, 10925, Note_on_c, 1, 50, 127
1, 10977, Note_off_c, 1, 81, 0
1, 10985, Note_on_c, 1, 74, 127
1, 10985, Note_on_c, 1, 54, 127
1, 10996, Note_off_c, 1, 50, 0
1, 11026, Note_off_c, 1, 74, 0
1, 11037, Note_off_c, 1, 54, 0
1, 11045, Note_on_c, 1, 74, 127
1, 11045, Note_on_c, 1, 52, 127
1, 11097, Note_off_c, 1, 52, 0
1, 11105, Note_on_c, 1, 57, 127
1, 11150, Note_off_c, 1, 74, 0
1, 11157, Note_off_c, 1, 57, 0
1, 11158, Note_on_c, 1, 73, 127
1, 11165, Note_on_c, 1, 52, 127
1, 11178, Note_on_c, 1, 74, 127
1, 11189, Note_off_c, 1, 73, 0
1, 11201, Note_off_c, 1, 74, 0
1, 11217, Note_off_c, 1, 52, 0
1, 11225, Note_on_c, 1, 49, 127
1, 11277, Note_off_c, 1, 49, 0
1, 11285, Note_on_c, 1, 45, 127
1, 11315, Note_on_c, 1, 71, 127
1, 11337, Note_off_c, 1, 45, 0
1, 11345, Note_on_c, 1, 73, 127
1, 11345, Note_on_c, 1, 57, 127
1, 11352, Note_off_c, 1, 71, 0
1, 11375, Note_on_c, 1, 75, 127
1, 11382, Note_off_c, 1, 73, 0
1, 11397, Note_off_c, 1, 57, 0
1, 11405, Note_on_c, 1, 76, 127
1, 11405, Note_on_c, 1, 55, 127
1, 11414, Note_off_c, 1, 75, 0
1, 11442, Note_off_c, 1, 76, 0
1, 11457, Note_off_c, 1, 55, 0
1, 11465, Note_on_c, 1, 54, 127
1, 11517, Note_off_c, 1, 54, 0
1, 11525, Note_on_c, 1, 76, 127
1, 11525, Note_on_c, 1, 55, 127
1, 11577, Note_off_c, 1, 55, 0
1, 11585, Note_on_c, 1, 79, 127
1, 11585, Note_on_c, 1, 59, 127
1, 11592, Note_off_c, 1, 76, 0
1, 11637, Note_off_c, 1, 79, 0
1, 11637, Note_off_c, 1, 59, 0
1, 11645, Note_on_c, 1, 71, 127
1, 11645, Note_on_c, 1, 52, 127
1, 11697, Note_off_c, 1, 52, 0
1, 11705, Note_on_c, 1, 75, 127
1, 11705, Note_on_c, 1, 54, 127
1, 11712, Note_off_c, 1, 71, 0
1, 11757, Note_off_c, 1, 75, 0
1, 11757, Note_off_c, 1, 54, 0
1, 11765, Note_on_c, 1, 76, 127
1, 11765, Note_on_c, 1, 55, 127
1, 11817, Note_off_c, 1, 55, 0
1, 11825, Note_on_c, 1, 79, 127
1, 11825, Note_on_c, 1, 59, 127
1, 11834, Note_off_c, 1, 76, 0
1, 11877, Note_off_c, 1, 79, 0
1, 11877, Note_off_c, 1, 59, 0
1, 11885, Note_on_c, 1, 71, 127
1, 11885, Note_on_c, 1, 52, 127
1, 11937, Note_off_c, 1, 52, 0
1, 11945, Note_on_c, 1, 76, 127
1, 11945, Note_on_c, 1, 55, 127
1, 11948, Note_off_c, 1, 71, 0
1, 11984, Note_off_c, 1, 76, 0
1, 11997, Note_off_c, 1, 55, 0
1, 12005, Note_on_c, 1, 76, 127
1, 12005, Note_on_c, 1, 54, 127
1, 12057, Note_off_c, 1, 54, 0
1, 12065, Note_on_c, 1, 59, 127
1, 12117, Note_off_c, 1, 59, 0
1, 12125, Note_on_c, 1, 75, 127
1, 12125, Note_on_c, 1, 60, 127
1, 12138, Note_off_c, 1, 76, 0
1, 12151, Note_off_c, 1, 60, 0
1, 12177, Note_off_c, 1, 75, 0
1, 12185, Note_on_c, 1, 78, 127
1, 12185, Note_on_c, 1, 58, 127
1, 12211, Note_off_c, 1, 58, 0
1, 12215, Note_on_c, 1, 59, 127
1, 12232, Note_off_c, 1, 78, 0
1, 12241, Note_off_c, 1, 59, 0
1, 12245, Note_on_c, 1, 71, 127
1, 12245, Note_on_c, 1, 63, 127
1, 12297, Note_off_c, 1, 63, 0
1, 12305, Note_on_c, 1, 59, 127
1, 12357, Note_off_c, 1, 59, 0
1, 12365, Note_on_c, 1, 69, 127
1, 12365, Note_on_c, 1, 66, 127
1, 12372, Note_off_c, 1, 71, 0
1, 12417, Note_off_c, 1, 69, 0
1, 12417, Note_off_c, 1, 66, 0
1, 12425, Note_on_c, 1, 78, 127
1, 12425, Note_on_c, 1, 57, 127
1, 12477, Note_off_c, 1, 78, 0
1, 12477, Note_off_c, 1, 57, 0
1, 12485, Note_on_c, 1, 78, 127
1, 12485, Note_on_c, 1, 55, 127
1, 12515, Note_on_c, 1, 76, 127
1, 12524, Note_off_c, 1, 78, 0
1, 12537, Note_off_c, 1, 55, 0
1, 12545, Note_on_c, 1, 75, 127
1, 12545, Note_on_c, 1, 59, 127
1, 12556, Note_off_c, 1, 76, 0
1, 12597, Note_off_c, 1, 59, 0
1, 12605, Note_on_c, 1, 52, 127
1, 12616, Note_off_c, 1, 75, 0
1, 12657, Note_off_c, 1, 52, 0
1, 12665, Note_on_c, 1, 69, 127
1, 12665, Note_on_c, 1, 54, 127
1, 12706, Note_off_c, 1, 69, 0
1, 12717, Note_off_c, 1, 54, 0
1, 12725, Note_on_c, 1, 69, 127
1, 12725, Note_on_c, 1, 55, 127
1, 12777, Note_off_c, 1, 55, 0
1, 12785, Note_on_c, 1, 59, 127
1, 12837, Note_off_c, 1, 59, 0
1, 12845, Note_on_c, 1, 67, 127
1, 12845, Note_on_c, 1, 52, 127
1, 12854, Note_off_c, 1, 69, 0
1, 12897, Note_off_c, 1, 67, 0
1, 12897, Note_off_c, 1, 52, 0
1, 12905, Note_on_c, 1, 76, 127
1, 12905, Note_on_c, 1, 55, 127
1, 12950, Note_off_c, 1, 76, 0
1, 12957, Note_off_c, 1, 55, 0
1, 12965, Note_on_c, 1, 76, 127
1, 12965, Note_on_c, 1, 54, 127
1, 13017, Note_off_c, 1, 54, 0
1, 13025, Note_on_c, 1, 75, 127
1, 13025, Note_on_c, 1, 59, 127
1, 13028, Note_off_c, 1, 76, 0
1, 13066, Note_off_c, 1, 75, 0
1, 13077, Note_off_c, 1, 59, 0
1, 13085, Note_on_c, 1, 81, 127
1, 13085, Note_on_c, 1, 54, 127
1, 13137, Note_off_c, 1, 54, 0
1, 13145, Note_on_c, 1, 51, 127
1, 13197, Note_off_c, 1, 51, 0
1, 13205, Note_on_c, 1, 47, 127
1, 13240, Note_on_c, 1, 79, 127
1, 13248, Note_off_c, 1, 81, 0
1, 13265, Note_on_c, 1, 78, 127
1, 13283, Note_off_c, 1, 79, 0
1, 13295, Note_on_c, 1, 76, 127
1, 13306, Note_off_c, 1, 78, 0
1, 13310, Note_off_c, 1, 47, 0
1, 13325, Note_on_c, 1, 75, 127
1, 13342, Note_off_c, 1, 76, 0
1, 13355, Note_on_c, 1, 73, 127
1, 13364, Note_off_c, 1, 75, 0
1, 13385, Note_on_c, 1, 71, 127
1, 13390, Note_off_c, 1, 73, 0
1, 13415, Note_on_c, 1, 69, 127
1, 13418, Note_off_c, 1, 71, 0
1, 13441, Note_off_c, 1, 69, 0
1, 13445, Note_on_c, 1, 67, 127
1, 13505, Note_on_c, 1, 71, 127
1, 13514, Note_off_c, 1, 67, 0
1, 13557, Note_off_c, 1, 71, 0
1, 13565, Note_on_c, 1, 64, 127
1, 13565, Note_on_c, 1, 55, 127
1, 13625, Note_on_c, 1, 66, 127
1, 13628, Note_off_c, 1, 64, 0
1, 13648, Note_off_c, 1, 55, 0
1, 13677, Note_off_c, 1, 66, 0
1, 13685, Note_on_c, 1, 67, 127
1, 13685, Note_on_c, 1, 52, 127
1, 13745, Note_on_c, 1, 71, 127
1, 13754, Note_off_c, 1, 67, 0
1, 13772, Note_off_c, 1, 52, 0
1, 13797, Note_off_c, 1, 71, 0
1, 13805, Note_on_c, 1, 64, 127
1, 13805, Note_on_c, 1, 47, 127
1, 13865, Note_on_c, 1, 67, 127
1, 13870, Note_off_c, 1, 64, 0
1, 13894, Note_off_c, 1, 47, 0
1, 13917, Note_off_c, 1, 67, 0
1, 13925, Note_on_c, 1, 66, 127
1, 13985, Note_on_c, 1, 71, 127
1, 13992, Note_off_c, 1, 66, 0
1, 14037, Note_off_c, 1, 71, 0
1, 14045, Note_on_c, 1, 72, 127
1, 14045, Note_on_c, 1, 57, 127
1, 14075, Note_on_c, 1, 71, 127
1, 14084, Note_off_c, 1, 72, 0
1, 14105, Note_on_c, 1, 70, 127
1, 14116, Note_off_c, 1, 71, 0
1, 14128, Note_off_c, 1, 57, 0
1, 14142, Note_off_c, 1, 70, 0
1, 14165, Note_on_c, 1, 75, 127
1, 14165, Note_on_c, 1, 54, 127
1, 14225, Note_on_c, 1, 71, 127
1, 14230, Note_off_c, 1, 75, 0
1, 14250, Note_off_c, 1, 54, 0
1, 14277, Note_off_c, 1, 71, 0
1, 14285, Note_on_c, 1, 78, 127
1, 14285, Note_on_c, 1, 47, 127
1, 14337, Note_off_c, 1, 78, 0
1, 14345, Note_on_c, 1, 69, 127
1, 14364, Note_off_c, 1, 47, 0
1, 14397, Note_off_c, 1, 69, 0
1, 14405, Note_on_c, 1, 67, 127
1, 14465, Note_on_c, 1, 71, 127
1, 14470, Note_off_c, 1, 67, 0
1, 14517, Note_off_c, 1, 71, 0
1, 14525, Note_on_c, 1, 64, 127
1, 14525, Note_on_c, 1, 59, 127
1, 14542, Note_on_c, 1, 58, 127
1, 14546, Note_off_c, 1, 59, 0
1, 14563, Note_off_c, 1, 58, 0
1, 14584, Note_off_c, 1, 64, 0
1, 14585, Note_on_c, 1, 66, 127
1, 14637, Note_off_c, 1, 66, 0
1, 14645, Note_on_c, 1, 67, 127
1, 14705, Note_on_c, 1, 71, 127
1, 14705, Note_on_c, 1, 57, 127
1, 14710, Note_off_c, 1, 67, 0
1, 14731, Note_off_c, 1, 57, 0
1, 14735, Note_on_c, 1, 55, 127
1, 14757, Note_off_c, 1, 71, 0
1, 14761, Note_off_c, 1, 55, 0
1, 14765, Note_on_c, 1, 64, 127
1, 14765, Note_on_c, 1, 57, 127
1, 14791, Note_off_c, 1, 57, 0
1, 14795, Note_on_c, 1, 55, 127
1, 14817, Note_off_c, 1, 64, 0
1, 14821, Note_off_c, 1, 55, 0
1, 14825, Note_on_c, 1, 67, 127
1, 14825, Note_on_c, 1, 54, 127
1, 14851, Note_off_c, 1, 54, 0
1, 14855, Note_on_c, 1, 52, 127
1, 14877, Note_off_c, 1, 67, 0
1, 14881, Note_off_c, 1, 52, 0
1, 14885, Note_on_c, 1, 66, 127
1, 14885, Note_on_c, 1, 52, 127
1, 14937, Note_off_c, 1, 66, 0
1, 14945, Note_on_c, 1, 71, 127
1, 14990, Note_off_c, 1, 52, 0
1, 14997, Note_off_c, 1, 71, 0
1, 15002, Note_on_c, 1, 51, 127
1, 15005, Note_on_c, 1, 66, 127
1, 15014, Note_on_c, 1, 52, 127
1, 15027, Note_off_c, 1, 51, 0
1, 15039, Note_off_c, 1, 52, 0
1, 15057, Note_off_c, 1, 66, 0
1, 15065, Note_on_c, 1, 63, 127
1, 15117, Note_off_c, 1, 63, 0
1, 15125, Note_on_c, 1, 59, 127
1, 15185, Note_on_c, 1, 57, 127
1, 15208, Note_off_c, 1, 59, 0
1, 15211, Note_off_c, 1, 57, 0
1, 15215, Note_on_c, 1, 55, 127
1, 15241, Note_off_c, 1, 55, 0
1, 15245, Note_on_c, 1, 75, 127
1, 15245, Note_on_c, 1, 54, 127
1, 15266, Note_on_c, 1, 76, 127
1, 15271, Note_off_c, 1, 54, 0
1, 15275, Note_on_c, 1, 55, 127
1, 15276, Note_off_c, 1, 75, 0
1, 15297, Note_off_c, 1, 76, 0
1, 15301, Note_off_c, 1, 55, 0
1, 15305, Note_on_c, 1, 57, 127
1, 15308, Note_on_c, 1, 73, 127
1, 15339, Note_off_c, 1, 73, 0
1, 15357, Note_off_c, 1, 57, 0
1, 15365, Note_on_c, 1, 76, 127
1, 15365, Note_on_c, 1, 55, 127
1, 15417, Note_off_c, 1, 55, 0
1, 15425, Note_on_c, 1, 64, 127
1, 15451, Note_off_c, 1, 64, 0
1, 15455, Note_on_c, 1, 66, 127
1, 15470, Note_off_c, 1, 76, 0
1, 15481, Note_off_c, 1, 66, 0
1, 15485, Note_on_c, 1, 71, 127
1, 15485, Note_on_c, 1, 67, 127
1, 15511, Note_off_c, 1, 67, 0
1, 15515, Note_on_c, 1, 66, 127
1, 15541, Note_off_c, 1, 66, 0
1, 15545, Note_on_c, 1, 64, 127
1, 15590, Note_off_c, 1, 71, 0
1, 15605, Note_on_c, 1, 79, 127
1, 15631, Note_off_c, 1, 79, 0
1, 15635, Note_on_c, 1, 78, 127
1, 15657, Note_off_c, 1, 64, 0
1, 15661, Note_off_c, 1, 78, 0
1, 15665, Note_on_c, 1, 76, 127
1, 15665, Note_on_c, 1, 71, 127
1, 15691, Note_off_c, 1, 76, 0
1, 15695, Note_on_c, 1, 78, 127
1, 15721, Note_off_c, 1, 78, 0
1, 15725, Note_on_c, 1, 79, 127
1, 15770, Note_off_c, 1, 71, 0
1, 15777, Note_off_c, 1, 79, 0
1, 15785, Note_on_c, 1, 71, 127
1, 15785, Note_on_c, 1, 62, 127
1, 15837, Note_off_c, 1, 71, 0
1, 15856, Note_on_c, 1, 69, 127
1, 15875, Note_off_c, 1, 69, 0
1, 15897, Note_off_c, 1, 62, 0
1, 15905, Note_on_c, 1, 68, 127
1, 15905, Note_on_c, 1, 64, 127
1, 15931, Note_off_c, 1, 64, 0
1, 15957, Note_off_c, 1, 68, 0
1, 15965, Note_on_c, 1, 69, 127
1, 15965, Note_on_c, 1, 61, 127
1, 15991, Note_off_c, 1, 61, 0
1, 15995, Note_on_c, 1, 62, 127
1, 16017, Note_off_c, 1, 69, 0
1, 16021, Note_off_c, 1, 62, 0
1, 16025, Note_on_c, 1, 73, 127
1, 16025, Note_on_c, 1, 64, 127
1, 16077, Note_off_c, 1, 73, 0
1, 16137, Note_off_c, 1, 64, 0
1, 16145, Note_on_c, 1, 76, 127
1, 16145, Note_on_c, 1, 55, 127
1, 16197, Note_off_c, 1, 76, 0
1, 16205, Note_on_c, 1, 81, 127
1, 16250, Note_off_c, 1, 55, 0
1, 16257, Note_off_c, 1, 81, 0
1, 16265, Note_on_c, 1, 73, 127
1, 16265, Note_on_c, 1, 64, 127
1, 16317, Note_off_c, 1, 73, 0
1, 16317, Note_off_c, 1, 64, 0
1, 16325, Note_on_c, 1, 74, 127
1, 16325, Note_on_c, 1, 54, 127
1, 16377, Note_off_c, 1, 54, 0
1, 16385, Note_on_c, 1, 62, 127
1, 16411, Note_off_c, 1, 62, 0
1, 16415, Note_on_c, 1, 64, 127
1, 16430, Note_off_c, 1, 74, 0
1, 16441, Note_off_c, 1, 64, 0
1, 16445, Note_on_c, 1, 69, 127
1, 16445, Note_on_c, 1, 66, 127
1, 16471, Note_off_c, 1, 66, 0
1, 16475, Note_on_c, 1, 64, 127
1, 16501, Note_off_c, 1, 64, 0
1, 16505, Note_on_c, 1, 62, 127
1, 16550, Note_off_c, 1, 69, 0
1, 16565, Note_on_c, 1, 78, 127
1, 16591, Note_off_c, 1, 78, 0
1, 16595, Note_on_c, 1, 76, 127
1, 16617, Note_off_c, 1, 62, 0
1, 16621, Note_off_c, 1, 76, 0
1, 16625, Note_on_c, 1, 74, 127
1, 16625, Note_on_c, 1, 69, 127
1, 16651, Note_off_c, 1, 74, 0
1, 16655, Note_on_c, 1, 76, 127
1, 16681, Note_off_c, 1, 76, 0
1, 16685, Note_on_c, 1, 78, 127
1, 16730, Note_off_c, 1, 69, 0
1, 16737, Note_off_c, 1, 78, 0
1, 16745, Note_on_c, 1, 69, 127
1, 16745, Note_on_c, 1, 60, 127
1, 16797, Note_off_c, 1, 69, 0
1, 16814, Note_on_c, 1, 67, 127
1, 16833, Note_off_c, 1, 67, 0
1, 16857, Note_off_c, 1, 60, 0
1, 16865, Note_on_c, 1, 66, 127
1, 16865, Note_on_c, 1, 62, 127
1, 16891, Note_off_c, 1, 62, 0
1, 16895, Note_on_c, 1, 60, 127
1, 16917, Note_off_c, 1, 66, 0
1, 16921, Note_off_c, 1, 60, 0
1, 16925, Note_on_c, 1, 67, 127
1, 16925, Note_on_c, 1, 59, 127
1, 16951, Note_off_c, 1, 59, 0
1, 16955, Note_on_c, 1, 60, 127
1, 16977, Note_off_c, 1, 67, 0
1, 16981, Note_off_c, 1, 60, 0
1, 16985, Note_on_c, 1, 71, 127
1, 16985, Note_on_c, 1, 62, 127
1, 17037, Note_off_c, 1, 71, 0
1, 17097, Note_off_c, 1, 62, 0
1, 17105, Note_on_c, 1, 74, 127
1, 17105, Note_on_c, 1, 54, 127
1, 17157, Note_off_c, 1, 74, 0
1, 17165, Note_on_c, 1, 79, 127
1, 17210, Note_off_c, 1, 54, 0
1, 17217, Note_off_c, 1, 79, 0
1, 17225, Note_on_c, 1, 71, 127
1, 17225, Note_on_c, 1, 62, 127
1, 17277, Note_off_c, 1, 71, 0
1, 17277, Note_off_c, 1, 62, 0
1, 17285, Note_on_c, 1, 73, 127
1, 17285, Note_on_c, 1, 52, 127
1, 17337, Note_off_c, 1, 73, 0
1, 17345, Note_on_c, 1, 79, 127
1, 17390, Note_off_c, 1, 52, 0
1, 17405, Note_on_c, 1, 50, 127
1, 17450, Note_off_c, 1, 79, 0
1, 17465, Note_on_c, 1, 78, 127
1, 17510, Note_off_c, 1, 50, 0
1, 17517, Note_off_c, 1, 78, 0
1, 17525, Note_on_c, 1, 70, 127
1, 17525, Note_on_c, 1, 49, 127
1, 17577, Note_off_c, 1, 70, 0
1, 17585, Note_on_c, 1, 76, 127
1, 17630, Note_off_c, 1, 49, 0
1, 17645, Note_on_c, 1, 47, 127
1, 17690, Note_off_c, 1, 76, 0
1, 17705, Note_on_c, 1, 74, 127
1, 17750, Note_off_c, 1, 47, 0
1, 17757, Note_off_c, 1, 74, 0
1, 17765, Note_on_c, 1, 65, 127
1, 17828, Note_on_c, 1, 62, 127
1, 17870, Note_off_c, 1, 65, 0
1, 17885, Note_on_c, 1, 66, 127
1, 17933, Note_off_c, 1, 62, 0
1, 17952, Note_on_c, 1, 61, 127
1, 17990, Note_off_c, 1, 66, 0
1, 17991, Note_off_c, 1, 61, 0
1, 18005, Note_on_c, 1, 68, 127
1, 18005, Note_on_c, 1, 53, 127
1, 18057, Note_off_c, 1, 53, 0
1, 18068, Note_on_c, 1, 59, 127
1, 18110, Note_off_c, 1, 68, 0
1, 18125, Note_on_c, 1, 69, 127
1, 18173, Note_off_c, 1, 59, 0
1, 18188, Note_on_c, 1, 57, 127
1, 18225, Note_off_c, 1, 57, 0
1, 18230, Note_off_c, 1, 69, 0
1, 18245, Note_on_c, 1, 71, 127
1, 18245, Note_on_c, 1, 50, 127
1, 18297, Note_off_c, 1, 50, 0
1, 18305, Note_on_c, 1, 56, 127
1, 18350, Note_off_c, 1, 71, 0
1, 18365, Note_on_c, 1, 73, 127
1, 18410, Note_off_c, 1, 56, 0
1, 18425, Note_on_c, 1, 54, 127
1, 18470, Note_off_c, 1, 73, 0
1, 18477, Note_off_c, 1, 54, 0
1, 18485, Note_on_c, 1, 74, 127
1, 18485, Note_on_c, 1, 47, 127
1, 18537, Note_off_c, 1, 74, 0
1, 18545, Note_on_c, 1, 65, 127
1, 18560, Note_off_c, 1, 47, 0
1, 18605, Note_on_c, 1, 59, 127
1, 18650, Note_off_c, 1, 65, 0
1, 18665, Note_on_c, 1, 66, 127
1, 18682, Note_off_c, 1, 59, 0
1, 18717, Note_off_c, 1, 66, 0
1, 18725, Note_on_c, 1, 68, 127
1, 18725, Note_on_c, 1, 53, 127
1, 18777, Note_off_c, 1, 68, 0
1, 18785, Note_on_c, 1, 59, 127
1, 18802, Note_off_c, 1, 53, 0
1, 18845, Note_on_c, 1, 56, 127
1, 18890, Note_off_c, 1, 59, 0
1, 18905, Note_on_c, 1, 62, 127
1, 18924, Note_off_c, 1, 56, 0
1, 18965, Note_on_c, 1, 49, 127
1, 19017, Note_off_c, 1, 62, 0
1, 19025, Note_on_c, 1, 61, 127
1, 19044, Note_off_c, 1, 49, 0
1, 19130, Note_off_c, 1, 61, 0
1, 19205, Note_on_c, 1, 57, 127
1, 19205, Note_on_c, 1, 42, 127
1, 19264, Note_off_c, 1, 57, 0
1, 19265, Note_on_c, 1, 61, 127
1, 19298, Note_off_c, 1, 42, 0
1, 19317, Note_off_c, 1, 61, 0
1, 19325, Note_on_c, 1, 54, 127
1, 19325, Note_on_c, 1, 45, 127
1, 19385, Note_on_c, 1, 56, 127
1, 19386, Note_off_c, 1, 54, 0
1, 19418, Note_off_c, 1, 45, 0
1, 19437, Note_off_c, 1, 56, 0
1, 19445, Note_on_c, 1, 57, 127
1, 19445, Note_on_c, 1, 49, 127
1, 19505, Note_on_c, 1, 61, 127
1, 19506, Note_off_c, 1, 57, 0
1, 19557, Note_off_c, 1, 61, 0
1, 19565, Note_on_c, 1, 54, 127
1, 19598, Note_on_c, 1, 50, 127
1, 19604, Note_off_c, 1, 49, 0
1, 19630, Note_off_c, 1, 54, 0
1, 19631, Note_off_c, 1, 50, 0
1, 19655, Note_on_c, 1, 48, 127
1, 19681, Note_off_c, 1, 48, 0
1, 19685, Note_on_c, 1, 56, 127
1, 19685, Note_on_c, 1, 49, 127
1, 19737, Note_off_c, 1, 56, 0
1, 19745, Note_on_c, 1, 61, 127
1, 19790, Note_off_c, 1, 49, 0
1, 19805, Note_on_c, 1, 62, 127
1, 19805, Note_on_c, 1, 41, 127
1, 19808, Note_off_c, 1, 61, 0
1, 19842, Note_off_c, 1, 62, 0
1, 19865, Note_on_c, 1, 60, 127
1, 19886, Note_off_c, 1, 41, 0
1, 19900, Note_off_c, 1, 60, 0
1, 19925, Note_on_c, 1, 65, 127
1, 19925, Note_on_c, 1, 44, 127
1, 19977, Note_off_c, 1, 65, 0
1, 19985, Note_on_c, 1, 61, 127
1, 20010, Note_off_c, 1, 44, 0
1, 20037, Note_off_c, 1, 61, 0
1, 20045, Note_on_c, 1, 68, 127
1, 20045, Note_on_c, 1, 49, 127
1, 20097, Note_off_c, 1, 68, 0
1, 20105, Note_on_c, 1, 59, 127
1, 20134, Note_off_c, 1, 49, 0
1, 20157, Note_off_c, 1, 59, 0
1, 20165, Note_on_c, 1, 57, 127
1, 20165, Note_on_c, 1, 42, 127
1, 20217, Note_off_c, 1, 42, 0
1, 20225, Note_on_c, 1, 49, 127
1, 20254, Note_off_c, 1, 57, 0
1, 20277, Note_off_c, 1, 49, 0
1, 20285, Note_on_c, 1, 61, 127
1, 20285, Note_on_c, 1, 54, 127
1, 20337, Note_off_c, 1, 54, 0
1, 20345, Note_on_c, 1, 56, 127
1, 20374, Note_off_c, 1, 61, 0
1, 20397, Note_off_c, 1, 56, 0
1, 20405, Note_on_c, 1, 66, 127
1, 20405, Note_on_c, 1, 57, 127
1, 20457, Note_off_c, 1, 57, 0
1, 20465, Note_on_c, 1, 61, 127
1, 20486, Note_off_c, 1, 66, 0
1, 20517, Note_off_c, 1, 61, 0
1, 20525, Note_on_c, 1, 69, 127
1, 20525, Note_on_c, 1, 54, 127
1, 20577, Note_off_c, 1, 54, 0
1, 20585, Note_on_c, 1, 57, 127
1, 20604, Note_off_c, 1, 69, 0
1, 20637, Note_off_c, 1, 57, 0
1, 20645, Note_on_c, 1, 65, 127
1, 20645, Note_on_c, 1, 56, 127
1, 20697, Note_off_c, 1, 56, 0
1, 20705, Note_on_c, 1, 61, 127
1, 20728, Note_off_c, 1, 65, 0
1, 20765, Note_on_c, 1, 68, 127
1, 20765, Note_on_c, 1, 62, 127
1, 20770, Note_off_c, 1, 61, 0
1, 20802, Note_off_c, 1, 62, 0
1, 20825, Note_on_c, 1, 60, 127
1, 20844, Note_off_c, 1, 68, 0
1, 20858, Note_off_c, 1, 60, 0
1, 20885, Note_on_c, 1, 71, 127
1, 20885, Note_on_c, 1, 65, 127
1, 20945, Note_on_c, 1, 61, 127
1, 20946, Note_off_c, 1, 65, 0
1, 20968, Note_off_c, 1, 71, 0
1, 20997, Note_off_c, 1, 61, 0
1, 21005, Note_on_c, 1, 74, 127
1, 21005, Note_on_c, 1, 68, 127
1, 21065, Note_on_c, 1, 59, 127
1, 21068, Note_off_c, 1, 68, 0
1, 21082, Note_off_c, 1, 74, 0
1, 21117, Note_off_c, 1, 59, 0
1, 21125, Note_on_c, 1, 73, 127
1, 21125, Note_on_c, 1, 57, 127
1, 21177, Note_off_c, 1, 73, 0
1, 21185, Note_on_c, 1, 66, 127
1, 21212, Note_off_c, 1, 57, 0
1, 21215, Note_on_c, 1, 68, 127
1, 21216, Note_off_c, 1, 66, 0
1, 21245, Note_on_c, 1, 69, 127
1, 21245, Note_on_c, 1, 54, 127
1, 21248, Note_off_c, 1, 68, 0
1, 21276, Note_off_c, 1, 69, 0
1, 21350, Note_off_c, 1, 54, 0
1, 21365, Note_on_c, 1, 56, 127
1, 21470, Note_off_c, 1, 56, 0
1, 21485, Note_on_c, 1, 58, 127
1, 21545, Note_on_c, 1, 64, 127
1, 21590, Note_off_c, 1, 58, 0
1, 21605, Note_on_c, 1, 59, 127
1, 21666, Note_off_c, 1, 64, 0
1, 21710, Note_off_c, 1, 59, 0
1, 21725, Note_on_c, 1, 62, 127
1, 21725, Note_on_c, 1, 47, 127
1, 21762, Note_off_c, 1, 62, 0
1, 21830, Note_off_c, 1, 47, 0
1, 21845, Note_on_c, 1, 49, 127
1, 21950, Note_off_c, 1, 49, 0
1, 21965, Note_on_c, 1, 51, 127
1, 22070, Note_off_c, 1, 51, 0
1, 22085, Note_on_c, 1, 55, 127
1, 22085, Note_on_c, 1, 40, 127
1, 22124, Note_off_c, 1, 55, 0
1, 22146, Note_on_c, 1, 64, 127
1, 22175, Note_on_c, 1, 66, 127
1, 22177, Note_off_c, 1, 64, 0
1, 22190, Note_off_c, 1, 40, 0
1, 22205, Note_on_c, 1, 67, 127
1, 22205, Note_on_c, 1, 52, 127
1, 22210, Note_off_c, 1, 66, 0
1, 22242, Note_off_c, 1, 67, 0
1, 22310, Note_off_c, 1, 52, 0
1, 22325, Note_on_c, 1, 54, 127
1, 22385, Note_on_c, 1, 71, 127
1, 22430, Note_off_c, 1, 54, 0
1, 22472, Note_off_c, 1, 71, 0
1, 22505, Note_on_c, 1, 62, 127
1, 22565, Note_on_c, 1, 57, 127
1, 22602, Note_off_c, 1, 62, 0
1, 22670, Note_off_c, 1, 57, 0
1, 22685, Note_on_c, 1, 61, 127
1, 22685, Note_on_c, 1, 45, 127
1, 22720, Note_off_c, 1, 61, 0
1, 22790, Note_off_c, 1, 45, 0
1, 22805, Note_on_c, 1, 47, 127
1, 22910, Note_off_c, 1, 47, 0
1, 22925, Note_on_c, 1, 49, 127
1, 23030, Note_off_c, 1, 49, 0
1, 23045, Note_on_c, 1, 54, 127
1, 23045, Note_on_c, 1, 38, 127
1, 23086, Note_off_c, 1, 54, 0
1, 23105, Note_on_c, 1, 61, 127
1, 23150, Note_off_c, 1, 38, 0
1, 23165, Note_on_c, 1, 42, 127
1, 23210, Note_off_c, 1, 61, 0
1, 23225, Note_on_c, 1, 64, 127
1, 23270, Note_off_c, 1, 42, 0
1, 23285, Note_on_c, 1, 45, 127
1, 23346, Note_on_c, 1, 62, 127
1, 23354, Note_off_c, 1, 64, 0
1, 23377, Note_off_c, 1, 62, 0
1, 23390, Note_off_c, 1, 45, 0
1, 23405, Note_on_c, 1, 50, 127
1, 23465, Note_on_c, 1, 59, 127
1, 23495, Note_on_c, 1, 58, 127
1, 23500, Note_off_c, 1, 59, 0
1, 23510, Note_off_c, 1, 50, 0
1, 23521, Note_off_c, 1, 58, 0
1, 23525, Note_on_c, 1, 59, 127
1, 23525, Note_on_c, 1, 43, 127
1, 23566, Note_off_c, 1, 59, 0
1, 23585, Note_on_c, 1, 66, 127
1, 23630, Note_off_c, 1, 43, 0
1, 23645, Note_on_c, 1, 47, 127
1, 23678, Note_off_c, 1, 66, 0
1, 23705, Note_on_c, 1, 69, 127
1, 23750, Note_off_c, 1, 47, 0
1, 23765, Note_on_c, 1, 50, 127
1, 23802, Note_off_c, 1, 69, 0
1, 23830, Note_on_c, 1, 67, 127
1, 23861, Note_off_c, 1, 67, 0
1, 23870, Note_off_c, 1, 50, 0
1, 23885, Note_on_c, 1, 55, 127
1, 23945, Note_on_c, 1, 64, 127
1, 23975, Note_on_c, 1, 62, 127
1, 23980, Note_off_c, 1, 64, 0
1, 23990, Note_off_c, 1, 55, 0
1, 24001, Note_off_c, 1, 62, 0
1, 24005, Note_on_c, 1, 64, 127
1, 24005, Note_on_c, 1, 49, 127
1, 24042, Note_off_c, 1, 64, 0
1, 24065, Note_on_c, 1, 71, 127
1, 24110, Note_off_c, 1, 49, 0
1, 24125, Note_on_c, 1, 52, 127
1, 24154, Note_off_c, 1, 71, 0
1, 24185, Note_on_c, 1, 74, 127
1, 24230, Note_off_c, 1, 52, 0
1, 24245, Note_on_c, 1, 55, 127
1, 24308, Note_on_c, 1, 73, 127
1, 24312, Note_off_c, 1, 74, 0
1, 24334, Note_off_c, 1, 73, 0
1, 24350, Note_off_c, 1, 55, 0
1, 24365, Note_on_c, 1, 61, 127
1, 24425, Note_on_c, 1, 70, 127
1, 24455, Note_on_c, 1, 68, 127
1, 24458, Note_off_c, 1, 70, 0
1, 24470, Note_off_c, 1, 61, 0
1, 24481, Note_off_c, 1, 68, 0
1, 24485, Note_on_c, 1, 70, 127
1, 24485, Note_on_c, 1, 54, 127
1, 24526, Note_off_c, 1, 70, 0
1, 24545, Note_on_c, 1, 76, 127
1, 24590, Note_off_c, 1, 54, 0
1, 24605, Note_on_c, 1, 58, 127
1, 24650, Note_off_c, 1, 76, 0
1, 24665, Note_on_c, 1, 79, 127
1, 24710, Note_off_c, 1, 58, 0
1, 24725, Note_on_c, 1, 61, 127
1, 24792, Note_on_c, 1, 78, 127
1, 24802, Note_off_c, 1, 79, 0
1, 24825, Note_off_c, 1, 78, 0
1, 24830, Note_off_c, 1, 61, 0
1, 24845, Note_on_c, 1, 66, 127
1, 24905, Note_on_c, 1, 74, 127
1, 24935, Note_on_c, 1, 73, 127
1, 24940, Note_off_c, 1, 74, 0
1, 24950, Note_off_c, 1, 66, 0
1, 24961, Note_off_c, 1, 73, 0
1, 24965, Note_on_c, 1, 74, 127
1, 24965, Note_on_c, 1, 59, 127
1, 25004, Note_off_c, 1, 74, 0
1, 25025, Note_on_c, 1, 70, 127
1, 25070, Note_off_c, 1, 59, 0
1, 25085, Note_on_c, 1, 67, 127
1, 25118, Note_off_c, 1, 70, 0
1, 25145, Note_on_c, 1, 71, 127
1, 25190, Note_off_c, 1, 67, 0
1, 25205, Note_on_c, 1, 73, 127
1, 25205, Note_on_c, 1, 57, 127
1, 25206, Note_off_c, 1, 71, 0
1, 25257, Note_off_c, 1, 57, 0
1, 25294, Note_on_c, 1, 75, 127
1, 25298, Note_off_c, 1, 73, 0
1, 25325, Note_on_c, 1, 76, 127
1, 25325, Note_on_c, 1, 66, 127
1, 25327, Note_off_c, 1, 75, 0
1, 25364, Note_off_c, 1, 76, 0
1, 25377, Note_off_c, 1, 66, 0
1, 25445, Note_on_c, 1, 55, 127
1, 25550, Note_off_c, 1, 55, 0
1, 25565, Note_on_c, 1, 64, 127
1, 25670, Note_off_c, 1, 64, 0
1, 25685, Note_on_c, 1, 74, 127
1, 25685, Note_on_c, 1, 54, 127
1, 25726, Note_off_c, 1, 74, 0
1, 25737, Note_off_c, 1, 54, 0
1, 25745, Note_on_c, 1, 64, 127
1, 25746, Note_on_c, 1, 70, 127
1, 25797, Note_off_c, 1, 64, 0
1, 25805, Note_on_c, 1, 62, 127
1, 25851, Note_off_c, 1, 70, 0
1, 25857, Note_off_c, 1, 62, 0
1, 25865, Note_on_c, 1, 71, 127
1, 25865, Note_on_c, 1, 54, 127
1, 25910, Note_off_c, 1, 71, 0
1, 25917, Note_off_c, 1, 54, 0
1, 25925, Note_on_c, 1, 79, 127
1, 25925, Note_on_c, 1, 52, 127
1, 25955, Note_on_c, 1, 78, 127
1, 25960, Note_off_c, 1, 79, 0
1, 25977, Note_off_c, 1, 52, 0
1, 25985, Note_on_c, 1, 76, 127
1, 25985, Note_on_c, 1, 62, 127
1, 25992, Note_off_c, 1, 78, 0
1, 26037, Note_off_c, 1, 62, 0
1, 26045, Note_on_c, 1, 60, 127
1, 26090, Note_off_c, 1, 76, 0
1, 26097, Note_off_c, 1, 60, 0
1, 26105, Note_on_c, 1, 76, 127
1, 26105, Note_on_c, 1, 52, 127
1, 26157, Note_off_c, 1, 52, 0
1, 26165, Note_on_c, 1, 50, 127
1, 26195, Note_on_c, 1, 78, 127
1, 26198, Note_off_c, 1, 76, 0
1, 26217, Note_off_c, 1, 50, 0
1, 26225, Note_on_c, 1, 60, 127
1, 26230, Note_off_c, 1, 78, 0
1, 26255, Note_on_c, 1, 75, 127
1, 26277, Note_off_c, 1, 60, 0
1, 26285, Note_on_c, 1, 59, 127
1, 26294, Note_off_c, 1, 75, 0
1, 26337, Note_off_c, 1, 59, 0
1, 26345, Note_on_c, 1, 76, 127
1, 26345, Note_on_c, 1, 50, 127
1, 26397, Note_off_c, 1, 50, 0
1, 26405, Note_on_c, 1, 49, 127
1, 26431, Note_off_c, 1, 76, 0
1, 26435, Note_on_c, 1, 69, 127
1, 26457, Note_off_c, 1, 49, 0
1, 26465, Note_on_c, 1, 67, 127
1, 26465, Note_on_c, 1, 59, 127
1, 26476, Note_off_c, 1, 69, 0
1, 26495, Note_on_c, 1, 66, 127
1, 26502, Note_off_c, 1, 67, 0
1, 26517, Note_off_c, 1, 59, 0
1, 26525, Note_on_c, 1, 58, 127
1, 26530, Note_off_c, 1, 66, 0
1, 26577, Note_off_c, 1, 58, 0
1, 26585, Note_on_c, 1, 49, 127
1, 26586, Note_on_c, 1, 76, 127
1, 26637, Note_off_c, 1, 49, 0
1, 26645, Note_on_c, 1, 47, 127
1, 26697, Note_off_c, 1, 47, 0
1, 26698, Note_off_c, 1, 76, 0
1, 26705, Note_on_c, 1, 64, 127
1, 26705, Note_on_c, 1, 67, 127
1, 26705, Note_on_c, 1, 58, 127
1, 26757, Note_off_c, 1, 58, 0
1, 26765, Note_on_c, 1, 59, 127
1, 26810, Note_off_c, 1, 64, 0
1, 26810, Note_off_c, 1, 67, 0
1, 26817, Note_off_c, 1, 59, 0
1, 26825, Note_on_c, 1, 67, 127
1, 26825, Note_on_c, 1, 64, 127
1, 26825, Note_on_c, 1, 47, 127
1, 26877, Note_off_c, 1, 47, 0
1, 26885, Note_on_c, 1, 46, 127
1, 26937, Note_off_c, 1, 67, 0
1, 26945, Note_on_c, 1, 66, 127
1, 26971, Note_off_c, 1, 66, 0
1, 26975, Note_on_c, 1, 74, 127
1, 27001, Note_off_c, 1, 74, 0
1, 27056, Note_on_c, 1, 73, 127
1, 27109, Note_off_c, 1, 73, 0
1, 27110, Note_off_c, 1, 64, 0
1, 27110, Note_off_c, 1, 46, 0
1, 27190, Note_on_c, 1, 64, 127
1, 27214, Note_on_c, 1, 66, 127
1, 27223, Note_off_c, 1, 64, 0
1, 27245, Note_on_c, 1, 67, 127
1, 27245, Note_on_c, 1, 58, 127
1, 27249, Note_off_c, 1, 66, 0
1, 27282, Note_off_c, 1, 67, 0
1, 27350, Note_off_c, 1, 58, 0
1, 27365, Note_on_c, 1, 62, 127
1, 27365, Note_on_c, 1, 59, 127
1, 27425, Note_on_c, 1, 66, 127
1, 27434, Note_off_c, 1, 62, 0
1, 27470, Note_off_c, 1, 59, 0
1, 27485, Note_on_c, 1, 70, 127
1, 27485, Note_on_c, 1, 55, 127
1, 27490, Note_off_c, 1, 66, 0
1, 27545, Note_on_c, 1, 71, 127
1, 27556, Note_off_c, 1, 70, 0
1, 27590, Note_off_c, 1, 55, 0
1, 27598, Note_off_c, 1, 71, 0
1, 27605, Note_on_c, 1, 74, 127
1, 27605, Note_on_c, 1, 52, 127
1, 27665, Note_on_c, 1, 73, 127
1, 27676, Note_off_c, 1, 74, 0
1, 27710, Note_off_c, 1, 52, 0
1, 27725, Note_on_c, 1, 71, 127
1, 27725, Note_on_c, 1, 54, 127
1, 27732, Note_off_c, 1, 73, 0
1, 27785, Note_on_c, 1, 70, 127
1, 27792, Note_off_c, 1, 71, 0
1, 27830, Note_off_c, 1, 54, 0
1, 27830, Note_off_c, 1, 70, 0
1, 27845, Note_on_c, 1, 71, 127
1, 27845, Note_on_c, 1, 50, 127
1, 27897, Note_off_c, 1, 50, 0
1, 27905, Note_on_c, 1, 54, 127
1, 27938, Note_off_c, 1, 71, 0
1, 27957, Note_off_c, 1, 54, 0
1, 27965, Note_on_c, 1, 66, 127
1, 27965, Note_on_c, 1, 47, 127
1, 28017, Note_off_c, 1, 47, 0
1, 28025, Note_on_c, 1, 49, 127
1, 28052, Note_off_c, 1, 66, 0
1, 28077, Note_off_c, 1, 49, 0
1, 28085, Note_on_c, 1, 67, 127
1, 28085, Note_on_c, 1, 50, 127
1, 28115, Note_on_c, 1, 66, 127
1, 28124, Note_off_c, 1, 67, 0
1, 28137, Note_off_c, 1, 50, 0
1, 28145, Note_on_c, 1, 65, 127
1, 28145, Note_on_c, 1, 54, 127
1, 28152, Note_off_c, 1, 66, 0
1, 28182, Note_off_c, 1, 65, 0
1, 28197, Note_off_c, 1, 54, 0
1, 28205, Note_on_c, 1, 74, 127
1, 28205, Note_on_c, 1, 47, 127
1, 28257, Note_off_c, 1, 47, 0
1, 28258, Note_off_c, 1, 74, 0
1, 28265, Note_on_c, 1, 50, 127
1, 28317, Note_off_c, 1, 50, 0
1, 28325, Note_on_c, 1, 49, 127
1, 28377, Note_off_c, 1, 49, 0
1, 28385, Note_on_c, 1, 54, 127
1, 28437, Note_off_c, 1, 54, 0
1, 28445, Note_on_c, 1, 66, 127
1, 28445, Note_on_c, 1, 55, 127
1, 28471, Note_off_c, 1, 55, 0
1, 28475, Note_on_c, 1, 54, 127
1, 28501, Note_off_c, 1, 54, 0
1, 28505, Note_on_c, 1, 53, 127
1, 28531, Note_off_c, 1, 53, 0
1, 28538, Note_off_c, 1, 66, 0
1, 28565, Note_on_c, 1, 67, 127
1, 28565, Note_on_c, 1, 58, 127
1, 28595, Note_on_c, 1, 66, 127
1, 28612, Note_off_c, 1, 67, 0
1, 28617, Note_off_c, 1, 58, 0
1, 28625, Note_on_c, 1, 65, 127
1, 28625, Note_on_c, 1, 54, 127
1, 28632, Note_off_c, 1, 66, 0
1, 28662, Note_off_c, 1, 65, 0
1, 28677, Note_off_c, 1, 54, 0
1, 28685, Note_on_c, 1, 61, 127
1, 28686, Note_on_c, 1, 76, 127
1, 28737, Note_off_c, 1, 61, 0
1, 28743, Note_off_c, 1, 76, 0
1, 28745, Note_on_c, 1, 52, 127
1, 28797, Note_off_c, 1, 52, 0
1, 28805, Note_on_c, 1, 50, 127
1, 28857, Note_off_c, 1, 50, 0
1, 28865, Note_on_c, 1, 54, 127
1, 28917, Note_off_c, 1, 54, 0
1, 28925, Note_on_c, 1, 66, 127
1, 28925, Note_on_c, 1, 47, 127
1, 28977, Note_off_c, 1, 47, 0
1, 28985, Note_on_c, 1, 49, 127
1, 29024, Note_off_c, 1, 66, 0
1, 29037, Note_off_c, 1, 49, 0
1, 29045, Note_on_c, 1, 67, 127
1, 29045, Note_on_c, 1, 50, 127
1, 29075, Note_on_c, 1, 66, 127
1, 29086, Note_off_c, 1, 67, 0
1, 29097, Note_off_c, 1, 50, 0
1, 29105, Note_on_c, 1, 65, 127
1, 29105, Note_on_c, 1, 54, 127
1, 29110, Note_off_c, 1, 66, 0
1, 29140, Note_off_c, 1, 65, 0
1, 29157, Note_off_c, 1, 54, 0
1, 29165, Note_on_c, 1, 47, 127
1, 29166, Note_on_c, 1, 78, 127
1, 29201, Note_off_c, 1, 78, 0
1, 29217, Note_off_c, 1, 47, 0
1, 29225, Note_on_c, 1, 69, 127
1, 29225, Note_on_c, 1, 49, 127
1, 29256, Note_off_c, 1, 69, 0
1, 29277, Note_off_c, 1, 49, 0
1, 29285, Note_on_c, 1, 69, 127
1, 29285, Note_on_c, 1, 64, 127
1, 29285, Note_on_c, 1, 59, 127
1, 29285, Note_on_c, 1, 50, 127
1, 29390, Note_off_c, 1, 69, 0
1, 29390, Note_off_c, 1, 50, 0
1, 29405, Note_on_c, 1, 68, 127
1, 29405, Note_on_c, 1, 38, 127
1, 29510, Note_off_c, 1, 64, 0
1, 29510, Note_off_c, 1, 59, 0
1, 29510, Note_off_c, 1, 68, 0
1, 29510, Note_off_c, 1, 38, 0
1, 29585, Note_on_c, 1, 68, 127
1, 29615, Note_on_c, 1, 70, 127
1, 29626, Note_off_c, 1, 68, 0
1, 29645, Note_on_c, 1, 71, 127
1, 29645, Note_on_c, 1, 50, 127
1, 29658, Note_off_c, 1, 70, 0
1, 29675, Note_on_c, 1, 73, 127
1, 29680, Note_off_c, 1, 71, 0
1, 29705, Note_on_c, 1, 74, 127
1, 29714, Note_off_c, 1, 73, 0
1, 29735, Note_on_c, 1, 76, 127
1, 29746, Note_off_c, 1, 74, 0
1, 29750, Note_off_c, 1, 50, 0
1, 29761, Note_off_c, 1, 76, 0
1, 29765, Note_on_c, 1, 71, 127
1, 29765, Note_on_c, 1, 67, 127
1, 29765, Note_on_c, 1, 64, 127
1, 29765, Note_on_c, 1, 49, 127
1, 29870, Note_off_c, 1, 71, 0
1, 29870, Note_off_c, 1, 49, 0
1, 29885, Note_on_c, 1, 70, 127
1, 29885, Note_on_c, 1, 61, 127
1, 29990, Note_off_c, 1, 67, 0
1, 29990, Note_off_c, 1, 64, 0
1, 29990, Note_off_c, 1, 70, 0
1, 29990, Note_off_c, 1, 61, 0
1, 30065, Note_on_c, 1, 70, 127
1, 30065, Note_on_c, 1, 61, 127
1, 30091, Note_off_c, 1, 70, 0
1, 30091, Note_off_c, 1, 61, 0
1, 30095, Note_on_c, 1, 71, 127
1, 30095, Note_on_c, 1, 62, 127
1, 30121, Note_off_c, 1, 71, 0
1, 30121, Note_off_c, 1, 62, 0
1, 30125, Note_on_c, 1, 73, 127
1, 30125, Note_on_c, 1, 64, 127
1, 30151, Note_off_c, 1, 73, 0
1, 30151, Note_off_c, 1, 64, 0
1, 30155, Note_on_c, 1, 71, 127
1, 30155, Note_on_c, 1, 62, 127
1, 30181, Note_off_c, 1, 71, 0
1, 30181, Note_off_c, 1, 62, 0
1, 30185, Note_on_c, 1, 70, 127
1, 30185, Note_on_c, 1, 61, 127
1, 30237, Note_off_c, 1, 70, 0
1, 30237, Note_off_c, 1, 61, 0
1, 30245, Note_on_c, 1, 74, 127
1, 30245, Note_on_c, 1, 71, 127
1, 30245, Note_on_c, 1, 77, 127
1, 30245, Note_on_c, 1, 59, 127
1, 30245, Note_on_c, 1, 68, 127
1, 30304, Note_off_c, 1, 74, 0
1, 30304, Note_off_c, 1, 71, 0
1, 30304, Note_off_c, 1, 77, 0
1, 30319, Note_off_c, 1, 59, 0
1, 30319, Note_off_c, 1, 68, 0
1, 30365, Note_on_c, 1, 73, 127
1, 30365, Note_on_c, 1, 66, 127
1, 30365, Note_on_c, 1, 78, 127
1, 30365, Note_on_c, 1, 58, 127
1, 30365, Note_on_c, 1, 61, 127
1, 30424, Note_off_c, 1, 73, 0
1, 30424, Note_off_c, 1, 66, 0
1, 30424, Note_off_c, 1, 78, 0
1, 30439, Note_off_c, 1, 58, 0
1, 30439, Note_off_c, 1, 61, 0
1, 30545, Note_on_c, 1, 54, 127
1, 30571, Note_off_c, 1, 54, 0
1, 30575, Note_on_c, 1, 56, 127
1, 30601, Note_off_c, 1, 56, 0
1, 30605, Note_on_c, 1, 58, 127
1, 30631, Note_off_c, 1, 58, 0
1, 30635, Note_on_c, 1, 59, 127
1, 30661, Note_off_c, 1, 59, 0
1, 30665, Note_on_c, 1, 61, 127
1, 30706, Note_off_c, 1, 61, 0
1, 30725, Note_on_c, 1, 50, 127
1, 30785, Note_on_c, 1, 71, 127
1, 30815, Note_on_c, 1, 69, 127
1, 30826, Note_off_c, 1, 71, 0
1, 30830, Note_off_c, 1, 50, 0
1, 30845, Note_on_c, 1, 67, 127
1, 30845, Note_on_c, 1, 52, 127
1, 30856, Note_off_c, 1, 69, 0
1, 30875, Note_on_c, 1, 66, 127
1, 30886, Note_off_c, 1, 67, 0
1, 30905, Note_on_c, 1, 64, 127
1, 30910, Note_off_c, 1, 66, 0
1, 30950, Note_off_c, 1, 52, 0
1, 30950, Note_off_c, 1, 64, 0
1, 30965, Note_on_c, 1, 62, 127
1, 30965, Note_on_c, 1, 54, 127
1, 31025, Note_on_c, 1, 71, 127
1, 31070, Note_off_c, 1, 62, 0
1, 31070, Note_off_c, 1, 54, 0
1, 31085, Note_on_c, 1, 64, 127
1, 31085, Note_on_c, 1, 61, 127
1, 31085, Note_on_c, 1, 42, 127
1, 31130, Note_off_c, 1, 71, 0
1, 31145, Note_on_c, 1, 70, 127
1, 31190, Note_off_c, 1, 64, 0
1, 31190, Note_off_c, 1, 61, 0
1, 31190, Note_off_c, 1, 42, 0
1, 31197, Note_off_c, 1, 70, 0
1, 31205, Note_on_c, 1, 47, 127
1, 31212, Note_on_c, 1, 59, 127
1, 31218, Note_on_c, 1, 62, 127
1, 31224, Note_on_c, 1, 66, 127
1, 31238, Note_on_c, 1, 71, 127
1, 31670, Note_off_c, 1, 47, 0
1, 31677, Note_off_c, 1, 59, 0
1, 31677, Note_off_c, 1, 62, 0
1, 31677, Note_off_c, 1, 66, 0
1, 31677, Note_off_c, 1, 71, 0
1, 31677, End_track
0, 0, End_of_file