0, 0, Header, 1, 1, 480
1, 0, Start_track
1, 0, Title_t, "Test"
1, 0, Tempo, 500000
1, 0, Instrument_name_t, "Church Organ"
1, 3, Note_on_c, 1, 73, 127
1, 3, Note_on_c, 1, 54, 127
1, 76, Note_off_c, 1, 73, 0
1, 78, Note_on_c, 1, 71, 127
1, 81, Note_off_c, 1, 54, 0
1, 91, Note_off_c, 1, 71, 0
1, 93, Note_on_c, 1, 70, 127
1, 93, Note_on_c, 1, 56, 127
1, 106, Note_off_c, 1, 70, 0
1, 108, Note_on_c, 1, 68, 127
1, 119, Note_off_c, 1, 56, 0
1, 121, Note_off_c, 1, 68, 0
1, 123, Note_on_c, 1, 58, 127
1, 123, Note_on_c, 1, 66, 127
1, 201, Note_off_c, 1, 58, 0
1, 213, Note_on_c, 1, 56, 127
1, 239, Note_off_c, 1, 56, 0
1, 288, Note_off_c, 1, 66, 0
1, 333, Note_on_c, 1, 54, 127
1, 333, Note_on_c, 1, 78, 127
1, 359, Note_off_c, 1, 54, 0
1, 359, Note_off_c, 1, 78, 0
1, 363, Note_on_c, 1, 61, 127
1, 363, Note_on_c, 1, 77, 127
1, 441, Note_off_c, 1, 61, 0
1, 441, Note_off_c, 1, 77, 0
1, 453, Note_on_c, 1, 78, 127
1, 453, Note_on_c, 1, 59, 127
1, 466, Note_off_c, 1, 78, 0
1, 468, Note_on_c, 1, 80, 127
1, 479, Note_off_c, 1, 59, 0
1, 481, Note_off_c, 1, 80, 0
1, 483, Note_on_c, 1, 58, 127
1, 483, Note_on_c, 1, 73, 127
1, 561, Note_off_c, 1, 58, 0
1, 573, Note_on_c, 1, 63, 127
1, 599, Note_off_c, 1, 63, 0
1, 603, Note_on_c, 1, 61, 127
1, 648, Note_off_c, 1, 73, 0
1, 681, Note_off_c, 1, 61, 0
1, 693, Note_on_c, 1, 63, 127
1, 693, Note_on_c, 1, 78, 127
1, 719, Note_off_c, 1, 63, 0
1, 719, Note_off_c, 1, 78, 0
1, 723, Note_on_c, 1, 56, 127
1, 723, Note_on_c, 1, 71, 127
1, 801, Note_off_c, 1, 56, 0
1, 801, Note_off_c, 1, 71, 0
1, 813, Note_on_c, 1, 58, 127
1, 813, Note_on_c, 1, 75, 127
1, 839, Note_off_c, 1, 58, 0
1, 839, Note_off_c, 1, 75, 0
1, 843, Note_on_c, 1, 59, 127
1, 843, Note_on_c, 1, 68, 127
1, 921, Note_off_c, 1, 59, 0
1, 921, Note_off_c, 1, 68, 0
1, 933, Note_on_c, 1, 56, 127
1, 933, Note_on_c, 1, 71, 127
1, 959, Note_off_c, 1, 56, 0
1, 959, Note_off_c, 1, 71, 0
1, 963, Note_on_c, 1, 61, 127
1, 963, Note_on_c, 1, 65, 127
1, 1041, Note_off_c, 1, 61, 0
1, 1041, Note_off_c, 1, 65, 0
1, 1053, Note_on_c, 1, 49, 127
1, 1053, Note_on_c, 1, 73, 127
1, 1079, Note_off_c, 1, 49, 0
1, 1079, Note_off_c, 1, 73, 0
1, 1083, Note_on_c, 1, 70, 127
1, 1083, Note_on_c, 1, 54, 127
1, 1109, Note_off_c, 1, 70, 0
1, 1113, Note_on_c, 1, 73, 127
1, 1139, Note_off_c, 1, 73, 0
1, 1143, Note_on_c, 1, 66, 127
1, 1161, Note_off_c, 1, 54, 0
1, 1169, Note_off_c, 1, 66, 0
1, 1173, Note_on_c, 1, 61, 127
1, 1173, Note_on_c, 1, 68, 127
1, 1199, Note_off_c, 1, 61, 0
1, 1199, Note_off_c, 1, 68, 0
1, 1203, Note_on_c, 1, 70, 127
1, 1203, Note_on_c, 1, 61, 127
1, 1229, Note_off_c, 1, 70, 0
1, 1233, Note_on_c, 1, 66, 127
1, 1259, Note_off_c, 1, 66, 0
1, 1263, Note_on_c, 1, 73, 127
1, 1281, Note_off_c, 1, 61, 0
1, 1289, Note_off_c, 1, 73, 0
1, 1293, Note_on_c, 1, 61, 127
1, 1293, Note_on_c, 1, 70, 127
1, 1319, Note_off_c, 1, 61, 0
1, 1319, Note_off_c, 1, 70, 0
1, 1323, Note_on_c, 1, 66, 127
1, 1323, Note_on_c, 1, 58, 127
1, 1349, Note_off_c, 1, 66, 0
1, 1353, Note_on_c, 1, 70, 127
1, 1379, Note_off_c, 1, 70, 0
1, 1383, Note_on_c, 1, 68, 127
1, 1401, Note_off_c, 1, 58, 0
1, 1409, Note_off_c, 1, 68, 0
1, 1413, Note_on_c, 1, 61, 127
1, 1413, Note_on_c, 1, 66, 127
1, 1439, Note_off_c, 1, 61, 0
1, 1439, Note_off_c, 1, 66, 0
1, 1443, Note_on_c, 1, 68, 127
1, 1443, Note_on_c, 1, 53, 127
1, 1469, Note_off_c, 1, 68, 0
1, 1473, Note_on_c, 1, 73, 127
1, 1499, Note_off_c, 1, 73, 0
1, 1503, Note_on_c, 1, 65, 127
1, 1521, Note_off_c, 1, 53, 0
1, 1529, Note_off_c, 1, 65, 0
1, 1533, Note_on_c, 1, 61, 127
1, 1533, Note_on_c, 1, 66, 127
1, 1559, Note_off_c, 1, 61, 0
1, 1559, Note_off_c, 1, 66, 0
1, 1563, Note_on_c, 1, 68, 127
1, 1563, Note_on_c, 1, 61, 127
1, 1589, Note_off_c, 1, 68, 0
1, 1593, Note_on_c, 1, 65, 127
1, 1619, Note_off_c, 1, 65, 0
1, 1623, Note_on_c, 1, 73, 127
1, 1641, Note_off_c, 1, 61, 0
1, 1649, Note_off_c, 1, 73, 0
1, 1653, Note_on_c, 1, 61, 127
1, 1653, Note_on_c, 1, 68, 127
1, 1679, Note_off_c, 1, 61, 0
1, 1679, Note_off_c, 1, 68, 0
1, 1683, Note_on_c, 1, 65, 127
1, 1683, Note_on_c, 1, 56, 127
1, 1709, Note_off_c, 1, 65, 0
1, 1713, Note_on_c, 1, 68, 127
1, 1739, Note_off_c, 1, 68, 0
1, 1743, Note_on_c, 1, 66, 127
1, 1761, Note_off_c, 1, 56, 0
1, 1769, Note_off_c, 1, 66, 0
1, 1773, Note_on_c, 1, 61, 127
1, 1773, Note_on_c, 1, 65, 127
1, 1799, Note_off_c, 1, 61, 0
1, 1799, Note_off_c, 1, 65, 0
1, 1803, Note_on_c, 1, 66, 127
1, 1803, Note_on_c, 1, 51, 127
1, 1829, Note_off_c, 1, 66, 0
1, 1833, Note_on_c, 1, 70, 127
1, 1859, Note_off_c, 1, 70, 0
1, 1863, Note_on_c, 1, 63, 127
1, 1881, Note_off_c, 1, 51, 0
1, 1889, Note_off_c, 1, 63, 0
1, 1893, Note_on_c, 1, 61, 127
1, 1893, Note_on_c, 1, 65, 127
1, 1919, Note_off_c, 1, 61, 0
1, 1919, Note_off_c, 1, 65, 0
1, 1923, Note_on_c, 1, 66, 127
1, 1923, Note_on_c, 1, 61, 127
1, 1949, Note_off_c, 1, 66, 0
1, 1953, Note_on_c, 1, 63, 127
1, 1979, Note_off_c, 1, 63, 0
1, 1983, Note_on_c, 1, 70, 127
1, 2001, Note_off_c, 1, 61, 0
1, 2009, Note_off_c, 1, 70, 0
1, 2013, Note_on_c, 1, 61, 127
1, 2013, Note_on_c, 1, 66, 127
1, 2039, Note_off_c, 1, 61, 0
1, 2039, Note_off_c, 1, 66, 0
1, 2043, Note_on_c, 1, 63, 127
1, 2043, Note_on_c, 1, 54, 127
1, 2069, Note_off_c, 1, 63, 0
1, 2073, Note_on_c, 1, 66, 127
1, 2099, Note_off_c, 1, 66, 0
1, 2103, Note_on_c, 1, 65, 127
1, 2121, Note_off_c, 1, 54, 0
1, 2129, Note_off_c, 1, 65, 0
1, 2133, Note_on_c, 1, 60, 127
1, 2133, Note_on_c, 1, 63, 127
1, 2159, Note_off_c, 1, 60, 0
1, 2159, Note_off_c, 1, 63, 0
1, 2163, Note_on_c, 1, 65, 127
1, 2163, Note_on_c, 1, 49, 127
1, 2189, Note_off_c, 1, 65, 0
1, 2193, Note_on_c, 1, 68, 127
1, 2219, Note_off_c, 1, 68, 0
1, 2223, Note_on_c, 1, 61, 127
1, 2241, Note_off_c, 1, 49, 0
1, 2249, Note_off_c, 1, 61, 0
1, 2253, Note_on_c, 1, 56, 127
1, 2253, Note_on_c, 1, 63, 127
1, 2266, Note_off_c, 1, 56, 0
1, 2268, Note_on_c, 1, 58, 127
1, 2279, Note_off_c, 1, 63, 0
1, 2281, Note_off_c, 1, 58, 0
1, 2283, Note_on_c, 1, 65, 127
1, 2283, Note_on_c, 1, 59, 127
1, 2309, Note_off_c, 1, 65, 0
1, 2313, Note_on_c, 1, 61, 127
1, 2339, Note_off_c, 1, 61, 0
1, 2343, Note_on_c, 1, 68, 127
1, 2361, Note_off_c, 1, 59, 0
1, 2369, Note_off_c, 1, 68, 0
1, 2373, Note_on_c, 1, 56, 127
1, 2373, Note_on_c, 1, 65, 127
1, 2399, Note_off_c, 1, 56, 0
1, 2399, Note_off_c, 1, 65, 0
1, 2403, Note_on_c, 1, 61, 127
1, 2403, Note_on_c, 1, 53, 127
1, 2429, Note_off_c, 1, 61, 0
1, 2433, Note_on_c, 1, 71, 127
1, 2459, Note_off_c, 1, 71, 0
1, 2463, Note_on_c, 1, 70, 127
1, 2481, Note_off_c, 1, 53, 0
1, 2489, Note_off_c, 1, 70, 0
1, 2493, Note_on_c, 1, 49, 127
1, 2493, Note_on_c, 1, 68, 127
1, 2519, Note_off_c, 1, 49, 0
1, 2519, Note_off_c, 1, 68, 0
1, 2523, Note_on_c, 1, 70, 127
1, 2523, Note_on_c, 1, 54, 127
1, 2549, Note_off_c, 1, 70, 0
1, 2553, Note_on_c, 1, 73, 127
1, 2579, Note_off_c, 1, 73, 0
1, 2583, Note_on_c, 1, 66, 127
1, 2601, Note_off_c, 1, 54, 0
1, 2609, Note_off_c, 1, 66, 0
1, 2613, Note_on_c, 1, 49, 127
1, 2613, Note_on_c, 1, 68, 127
1, 2639, Note_off_c, 1, 49, 0
1, 2639, Note_off_c, 1, 68, 0
1, 2643, Note_on_c, 1, 70, 127
1, 2643, Note_on_c, 1, 42, 127
1, 2669, Note_off_c, 1, 70, 0
1, 2673, Note_on_c, 1, 66, 127
1, 2699, Note_off_c, 1, 66, 0
1, 2703, Note_on_c, 1, 73, 127
1, 2729, Note_off_c, 1, 73, 0
1, 2748, Note_off_c, 1, 42, 0
1, 2763, Note_on_c, 1, 66, 127
1, 2789, Note_off_c, 1, 66, 0
1, 2793, Note_on_c, 1, 68, 127
1, 2819, Note_off_c, 1, 68, 0
1, 2823, Note_on_c, 1, 66, 127
1, 2849, Note_off_c, 1, 66, 0
1, 2853, Note_on_c, 1, 65, 127
1, 2879, Note_off_c, 1, 65, 0
1, 2883, Note_on_c, 1, 63, 127
1, 2883, Note_on_c, 1, 55, 127
1, 2909, Note_off_c, 1, 63, 0
1, 2913, Note_on_c, 1, 70, 127
1, 2939, Note_off_c, 1, 70, 0
1, 2961, Note_off_c, 1, 55, 0
1, 2973, Note_on_c, 1, 58, 127
1, 2973, Note_on_c, 1, 65, 127
1, 2986, Note_off_c, 1, 58, 0
1, 2988, Note_on_c, 1, 59, 127
1, 2999, Note_off_c, 1, 65, 0
1, 3001, Note_off_c, 1, 59, 0
1, 3003, Note_on_c, 1, 67, 127
1, 3003, Note_on_c, 1, 61, 127
1, 3029, Note_off_c, 1, 67, 0
1, 3033, Note_on_c, 1, 63, 127
1, 3059, Note_off_c, 1, 63, 0
1, 3063, Note_on_c, 1, 70, 127
1, 3081, Note_off_c, 1, 61, 0
1, 3089, Note_off_c, 1, 70, 0
1, 3093, Note_on_c, 1, 58, 127
1, 3093, Note_on_c, 1, 67, 127
1, 3119, Note_off_c, 1, 58, 0
1, 3119, Note_off_c, 1, 67, 0
1, 3123, Note_on_c, 1, 63, 127
1, 3123, Note_on_c, 1, 55, 127
1, 3149, Note_off_c, 1, 63, 0
1, 3153, Note_on_c, 1, 73, 127
1, 3179, Note_off_c, 1, 73, 0
1, 3183, Note_on_c, 1, 72, 127
1, 3201, Note_off_c, 1, 55, 0
1, 3209, Note_off_c, 1, 72, 0
1, 3213, Note_on_c, 1, 51, 127
1, 3213, Note_on_c, 1, 70, 127
1, 3239, Note_off_c, 1, 51, 0
1, 3239, Note_off_c, 1, 70, 0
1, 3243, Note_on_c, 1, 72, 127
1, 3243, Note_on_c, 1, 56, 127
1, 3269, Note_off_c, 1, 72, 0
1, 3273, Note_on_c, 1, 75, 127
1, 3299, Note_off_c, 1, 75, 0
1, 3303, Note_on_c, 1, 68, 127
1, 3321, Note_off_c, 1, 56, 0
1, 3329, Note_off_c, 1, 68, 0
1, 3333, Note_on_c, 1, 51, 127
1, 3333, Note_on_c, 1, 70, 127
1, 3359, Note_off_c, 1, 51, 0
1, 3359, Note_off_c, 1, 70, 0
1, 3363, Note_on_c, 1, 72, 127
1, 3363, Note_on_c, 1, 44, 127
1, 3389, Note_off_c, 1, 72, 0
1, 3393, Note_on_c, 1, 68, 127
1, 3419, Note_off_c, 1, 68, 0
1, 3423, Note_on_c, 1, 75, 127
1, 3449, Note_off_c, 1, 75, 0
1, 3468, Note_off_c, 1, 44, 0
1, 3483, Note_on_c, 1, 68, 127
1, 3509, Note_off_c, 1, 68, 0
1, 3513, Note_on_c, 1, 70, 127
1, 3539, Note_off_c, 1, 70, 0
1, 3543, Note_on_c, 1, 68, 127
1, 3569, Note_off_c, 1, 68, 0
1, 3573, Note_on_c, 1, 66, 127
1, 3599, Note_off_c, 1, 66, 0
1, 3603, Note_on_c, 1, 65, 127
1, 3603, Note_on_c, 1, 57, 127
1, 3629, Note_off_c, 1, 65, 0
1, 3633, Note_on_c, 1, 72, 127
1, 3659, Note_off_c, 1, 72, 0
1, 3681, Note_off_c, 1, 57, 0
1, 3693, Note_on_c, 1, 60, 127
1, 3693, Note_on_c, 1, 67, 127
1, 3706, Note_off_c, 1, 60, 0
1, 3708, Note_on_c, 1, 61, 127
1, 3719, Note_off_c, 1, 67, 0
1, 3721, Note_off_c, 1, 61, 0
1, 3723, Note_on_c, 1, 69, 127
1, 3723, Note_on_c, 1, 63, 127
1, 3749, Note_off_c, 1, 69, 0
1, 3753, Note_on_c, 1, 65, 127
1, 3779, Note_off_c, 1, 65, 0
1, 3783, Note_on_c, 1, 72, 127
1, 3801, Note_off_c, 1, 63, 0
1, 3809, Note_off_c, 1, 72, 0
1, 3813, Note_on_c, 1, 60, 127
1, 3813, Note_on_c, 1, 69, 127
1, 3839, Note_off_c, 1, 60, 0
1, 3839, Note_off_c, 1, 69, 0
1, 3843, Note_on_c, 1, 65, 127
1, 3843, Note_on_c, 1, 57, 127
1, 3869, Note_off_c, 1, 65, 0
1, 3873, Note_on_c, 1, 75, 127
1, 3899, Note_off_c, 1, 75, 0
1, 3903, Note_on_c, 1, 73, 127
1, 3921, Note_off_c, 1, 57, 0
1, 3929, Note_off_c, 1, 73, 0
1, 3933, Note_on_c, 1, 53, 127
1, 3933, Note_on_c, 1, 72, 127
1, 3959, Note_off_c, 1, 53, 0
1, 3959, Note_off_c, 1, 72, 0
1, 3963, Note_on_c, 1, 73, 127
1, 3963, Note_on_c, 1, 58, 127
1, 4041, Note_off_c, 1, 73, 0
1, 4053, Note_on_c, 1, 70, 127
1, 4079, Note_off_c, 1, 70, 0
1, 4083, Note_on_c, 1, 78, 127
1, 4156, Note_off_c, 1, 58, 0
1, 4173, Note_on_c, 1, 60, 127
1, 4186, Note_off_c, 1, 60, 0
1, 4188, Note_on_c, 1, 61, 127
1, 4201, Note_off_c, 1, 61, 0
1, 4203, Note_on_c, 1, 63, 127
1, 4276, Note_off_c, 1, 78, 0
1, 4278, Note_on_c, 1, 77, 127
1, 4281, Note_off_c, 1, 63, 0
1, 4291, Note_off_c, 1, 77, 0
1, 4293, Note_on_c, 1, 75, 127
1, 4293, Note_on_c, 1, 66, 127
1, 4306, Note_off_c, 1, 75, 0
1, 4308, Note_on_c, 1, 73, 127
1, 4319, Note_off_c, 1, 66, 0
1, 4321, Note_off_c, 1, 73, 0
1, 4323, Note_on_c, 1, 75, 127
1, 4323, Note_on_c, 1, 60, 127
1, 4401, Note_off_c, 1, 75, 0
1, 4413, Note_on_c, 1, 72, 127
1, 4439, Note_off_c, 1, 72, 0
1, 4443, Note_on_c, 1, 80, 127
1, 4516, Note_off_c, 1, 60, 0
1, 4518, Note_on_c, 1, 61, 127
1, 4531, Note_off_c, 1, 61, 0
1, 4548, Note_on_c, 1, 58, 127
1, 4561, Note_off_c, 1, 58, 0
1, 4636, Note_off_c, 1, 80, 0
1, 4638, Note_on_c, 1, 78, 127
1, 4651, Note_off_c, 1, 78, 0
1, 4653, Note_on_c, 1, 77, 127
1, 4653, Note_on_c, 1, 56, 127
1, 4666, Note_off_c, 1, 77, 0
1, 4668, Note_on_c, 1, 75, 127
1, 4679, Note_off_c, 1, 56, 0
1, 4681, Note_off_c, 1, 75, 0
1, 4683, Note_on_c, 1, 61, 127
1, 4683, Note_on_c, 1, 77, 127
1, 4709, Note_off_c, 1, 61, 0
1, 4713, Note_on_c, 1, 49, 127
1, 4739, Note_off_c, 1, 49, 0
1, 4743, Note_on_c, 1, 51, 127
1, 4761, Note_off_c, 1, 77, 0
1, 4769, Note_off_c, 1, 51, 0
1, 4773, Note_on_c, 1, 53, 127
1, 4773, Note_on_c, 1, 73, 127
1, 4799, Note_off_c, 1, 53, 0
1, 4799, Note_off_c, 1, 73, 0
1, 4803, Note_on_c, 1, 54, 127
1, 4803, Note_on_c, 1, 82, 127
1, 4829, Note_off_c, 1, 54, 0
1, 4833, Note_on_c, 1, 42, 127
1, 4859, Note_off_c, 1, 42, 0
1, 4876, Note_off_c, 1, 82, 0
1, 4878, Note_on_c, 1, 80, 127
1, 4891, Note_off_c, 1, 80, 0
1, 4893, Note_on_c, 1, 78, 127
1, 4893, Note_on_c, 1, 53, 127
1, 4906, Note_off_c, 1, 78, 0
1, 4908, Note_on_c, 1, 77, 127
1, 4919, Note_off_c, 1, 53, 0
1, 4921, Note_off_c, 1, 77, 0
1, 4923, Note_on_c, 1, 54, 127
1, 4923, Note_on_c, 1, 75, 127
1, 4949, Note_off_c, 1, 54, 0
1, 4953, Note_on_c, 1, 42, 127
1, 4979, Note_off_c, 1, 42, 0
1, 5001, Note_off_c, 1, 75, 0
1, 5013, Note_on_c, 1, 53, 127
1, 5013, Note_on_c, 1, 78, 127
1, 5039, Note_off_c, 1, 53, 0
1, 5039, Note_off_c, 1, 78, 0
1, 5043, Note_on_c, 1, 72, 127
1, 5043, Note_on_c, 1, 54, 127
1, 5116, Note_off_c, 1, 72, 0
1, 5118, Note_on_c, 1, 75, 127
1, 5131, Note_off_c, 1, 75, 0
1, 5133, Note_on_c, 1, 77, 127
1, 5146, Note_off_c, 1, 77, 0
1, 5148, Note_on_c, 1, 78, 127
1, 5161, Note_off_c, 1, 78, 0
1, 5163, Note_on_c, 1, 80, 127
1, 5236, Note_off_c, 1, 54, 0
1, 5238, Note_on_c, 1, 51, 127
1, 5241, Note_off_c, 1, 80, 0
1, 5251, Note_off_c, 1, 51, 0
1, 5253, Note_on_c, 1, 53, 127
1, 5253, Note_on_c, 1, 72, 127
1, 5266, Note_off_c, 1, 53, 0
1, 5268, Note_on_c, 1, 54, 127
1, 5279, Note_off_c, 1, 72, 0
1, 5281, Note_off_c, 1, 54, 0
1, 5283, Note_on_c, 1, 53, 127
1, 5283, Note_on_c, 1, 73, 127
1, 5356, Note_off_c, 1, 53, 0
1, 5358, Note_on_c, 1, 49, 127
1, 5361, Note_off_c, 1, 73, 0
1, 5371, Note_off_c, 1, 49, 0
1, 5373, Note_on_c, 1, 51, 127
1, 5373, Note_on_c, 1, 68, 127
1, 5386, Note_off_c, 1, 51, 0
1, 5388, Note_on_c, 1, 53, 127
1, 5399, Note_off_c, 1, 68, 0
1, 5401, Note_off_c, 1, 53, 0
1, 5403, Note_on_c, 1, 70, 127
1, 5403, Note_on_c, 1, 54, 127
1, 5476, Note_off_c, 1, 70, 0
1, 5478, Note_on_c, 1, 68, 127
1, 5481, Note_off_c, 1, 54, 0
1, 5491, Note_off_c, 1, 68, 0
1, 5493, Note_on_c, 1, 66, 127
1, 5493, Note_on_c, 1, 51, 127
1, 5506, Note_off_c, 1, 66, 0
1, 5508, Note_on_c, 1, 65, 127
1, 5519, Note_off_c, 1, 51, 0
1, 5521, Note_off_c, 1, 65, 0
1, 5523, Note_on_c, 1, 56, 127
1, 5523, Note_on_c, 1, 63, 127
1, 5596, Note_off_c, 1, 56, 0
1, 5598, Note_on_c, 1, 58, 127
1, 5601, Note_off_c, 1, 63, 0
1, 5611, Note_off_c, 1, 58, 0
1, 5613, Note_on_c, 1, 56, 127
1, 5613, Note_on_c, 1, 73, 127
1, 5626, Note_off_c, 1, 56, 0
1, 5628, Note_on_c, 1, 54, 127
1, 5639, Note_off_c, 1, 73, 0
1, 5641, Note_off_c, 1, 54, 0
1, 5643, Note_on_c, 1, 56, 127
1, 5643, Note_on_c, 1, 68, 127
1, 5721, Note_off_c, 1, 56, 0
1, 5721, Note_off_c, 1, 68, 0
1, 5733, Note_on_c, 1, 44, 127
1, 5733, Note_on_c, 1, 72, 127
1, 5759, Note_off_c, 1, 44, 0
1, 5759, Note_off_c, 1, 72, 0
1, 5763, Note_on_c, 1, 73, 127
1, 5763, Note_on_c, 1, 49, 127
1, 5789, Note_off_c, 1, 73, 0
1, 5793, Note_on_c, 1, 68, 127
1, 5819, Note_off_c, 1, 68, 0
1, 5836, Note_off_c, 1, 49, 0
1, 5838, Note_on_c, 1, 53, 127
1, 5851, Note_off_c, 1, 53, 0
1, 5853, Note_on_c, 1, 51, 127
1, 5853, Note_on_c, 1, 75, 127
1, 5866, Note_off_c, 1, 51, 0
1, 5868, Note_on_c, 1, 49, 127
1, 5879, Note_off_c, 1, 75, 0
1, 5881, Note_off_c, 1, 49, 0
1, 5883, Note_on_c, 1, 77, 127
1, 5883, Note_on_c, 1, 56, 127
1, 5909, Note_off_c, 1, 77, 0
1, 5913, Note_on_c, 1, 73, 127
1, 5939, Note_off_c, 1, 73, 0
1, 5943, Note_on_c, 1, 80, 127
1, 5969, Note_off_c, 1, 80, 0
1, 6048, Note_off_c, 1, 56, 0
1, 6063, Note_on_c, 1, 75, 127
1, 6089, Note_off_c, 1, 75, 0
1, 6093, Note_on_c, 1, 61, 127
1, 6093, Note_on_c, 1, 73, 127
1, 6119, Note_off_c, 1, 61, 0
1, 6119, Note_off_c, 1, 73, 0
1, 6123, Note_on_c, 1, 75, 127
1, 6123, Note_on_c, 1, 60, 127
1, 6149, Note_off_c, 1, 75, 0
1, 6153, Note_on_c, 1, 80, 127
1, 6179, Note_off_c, 1, 80, 0
1, 6183, Note_on_c, 1, 68, 127
1, 6201, Note_off_c, 1, 60, 0
1, 6209, Note_off_c, 1, 68, 0
1, 6213, Note_on_c, 1, 61, 127
1, 6213, Note_on_c, 1, 70, 127
1, 6226, Note_off_c, 1, 61, 0
1, 6228, Note_on_c, 1, 63, 127
1, 6239, Note_off_c, 1, 70, 0
1, 6241, Note_off_c, 1, 63, 0
1, 6243, Note_on_c, 1, 72, 127
1, 6243, Note_on_c, 1, 56, 127
1, 6269, Note_off_c, 1, 72, 0
1, 6273, Note_on_c, 1, 68, 127
1, 6299, Note_off_c, 1, 68, 0
1, 6303, Note_on_c, 1, 75, 127
1, 6329, Note_off_c, 1, 75, 0
1, 6389, Note_off_c, 1, 56, 0
1, 6393, Note_on_c, 1, 58, 127
1, 6393, Note_on_c, 1, 78, 127
1, 6419, Note_off_c, 1, 58, 0
1, 6419, Note_off_c, 1, 78, 0
1, 6423, Note_on_c, 1, 56, 127
1, 6423, Note_on_c, 1, 77, 127
1, 6449, Note_off_c, 1, 56, 0
1, 6449, Note_off_c, 1, 77, 0
1, 6453, Note_on_c, 1, 54, 127
1, 6453, Note_on_c, 1, 75, 127
1, 6479, Note_off_c, 1, 54, 0
1, 6479, Note_off_c, 1, 75, 0
1, 6483, Note_on_c, 1, 73, 127
1, 6483, Note_on_c, 1, 53, 127
1, 6509, Note_off_c, 1, 73, 0
1, 6513, Note_on_c, 1, 68, 127
1, 6539, Note_off_c, 1, 68, 0
1, 6561, Note_off_c, 1, 53, 0
1, 6573, Note_on_c, 1, 51, 127
1, 6573, Note_on_c, 1, 75, 127
1, 6586, Note_off_c, 1, 51, 0
1, 6588, Note_on_c, 1, 49, 127
1, 6599, Note_off_c, 1, 75, 0
1, 6601, Note_off_c, 1, 49, 0
1, 6603, Note_on_c, 1, 77, 127
1, 6603, Note_on_c, 1, 59, 127
1, 6629, Note_off_c, 1, 77, 0
1, 6633, Note_on_c, 1, 73, 127
1, 6659, Note_off_c, 1, 73, 0
1, 6663, Note_on_c, 1, 80, 127
1, 6681, Note_off_c, 1, 59, 0
1, 6689, Note_off_c, 1, 80, 0
1, 6693, Note_on_c, 1, 56, 127
1, 6693, Note_on_c, 1, 77, 127
1, 6719, Note_off_c, 1, 56, 0
1, 6719, Note_off_c, 1, 77, 0
1, 6723, Note_on_c, 1, 73, 127
1, 6723, Note_on_c, 1, 53, 127
1, 6749, Note_off_c, 1, 73, 0
1, 6753, Note_on_c, 1, 83, 127
1, 6779, Note_off_c, 1, 83, 0
1, 6783, Note_on_c, 1, 82, 127
1, 6801, Note_off_c, 1, 53, 0
1, 6809, Note_off_c, 1, 82, 0
1, 6813, Note_on_c, 1, 59, 127
1, 6813, Note_on_c, 1, 80, 127
1, 6839, Note_off_c, 1, 59, 0
1, 6839, Note_off_c, 1, 80, 0
1, 6843, Note_on_c, 1, 58, 127
1, 6843, Note_on_c, 1, 78, 127
1, 6869, Note_off_c, 1, 58, 0
1, 6873, Note_on_c, 1, 61, 127
1, 6899, Note_off_c, 1, 61, 0
1, 6903, Note_on_c, 1, 54, 127
1, 6916, Note_off_c, 1, 78, 0
1, 6918, Note_on_c, 1, 71, 127
1, 6929, Note_off_c, 1, 54, 0
1, 6931, Note_off_c, 1, 71, 0
1, 6933, Note_on_c, 1, 70, 127
1, 6933, Note_on_c, 1, 56, 127
1, 6946, Note_off_c, 1, 70, 0
1, 6948, Note_on_c, 1, 68, 127
1, 6959, Note_off_c, 1, 56, 0
1, 6961, Note_off_c, 1, 68, 0
1, 6963, Note_on_c, 1, 58, 127
1, 6963, Note_on_c, 1, 66, 127
1, 6989, Note_off_c, 1, 58, 0
1, 6993, Note_on_c, 1, 54, 127
1, 7019, Note_off_c, 1, 54, 0
1, 7023, Note_on_c, 1, 61, 127
1, 7049, Note_off_c, 1, 61, 0
1, 7128, Note_off_c, 1, 66, 0
1, 7143, Note_on_c, 1, 56, 127
1, 7169, Note_off_c, 1, 56, 0
1, 7173, Note_on_c, 1, 54, 127
1, 7173, Note_on_c, 1, 78, 127
1, 7199, Note_off_c, 1, 54, 0
1, 7199, Note_off_c, 1, 78, 0
1, 7203, Note_on_c, 1, 56, 127
1, 7203, Note_on_c, 1, 77, 127
1, 7229, Note_off_c, 1, 56, 0
1, 7233, Note_on_c, 1, 61, 127
1, 7259, Note_off_c, 1, 61, 0
1, 7263, Note_on_c, 1, 49, 127
1, 7281, Note_off_c, 1, 77, 0
1, 7289, Note_off_c, 1, 49, 0
1, 7293, Note_on_c, 1, 78, 127
1, 7293, Note_on_c, 1, 51, 127
1, 7306, Note_off_c, 1, 78, 0
1, 7308, Note_on_c, 1, 80, 127
1, 7319, Note_off_c, 1, 51, 0
1, 7321, Note_off_c, 1, 80, 0
1, 7323, Note_on_c, 1, 53, 127
1, 7323, Note_on_c, 1, 73, 127
1, 7349, Note_off_c, 1, 53, 0
1, 7353, Note_on_c, 1, 49, 127
1, 7379, Note_off_c, 1, 49, 0
1, 7383, Note_on_c, 1, 56, 127
1, 7409, Note_off_c, 1, 56, 0
1, 7469, Note_off_c, 1, 73, 0
1, 7473, Note_on_c, 1, 59, 127
1, 7473, Note_on_c, 1, 75, 127
1, 7499, Note_off_c, 1, 59, 0
1, 7499, Note_off_c, 1, 75, 0
1, 7503, Note_on_c, 1, 58, 127
1, 7503, Note_on_c, 1, 73, 127
1, 7529, Note_off_c, 1, 58, 0
1, 7529, Note_off_c, 1, 73, 0
1, 7533, Note_on_c, 1, 56, 127
1, 7533, Note_on_c, 1, 71, 127
1, 7559, Note_off_c, 1, 56, 0
1, 7559, Note_off_c, 1, 71, 0
1, 7563, Note_on_c, 1, 54, 127
1, 7563, Note_on_c, 1, 70, 127
1, 7589, Note_off_c, 1, 54, 0
1, 7593, Note_on_c, 1, 49, 127
1, 7619, Note_off_c, 1, 49, 0
1, 7641, Note_off_c, 1, 70, 0
1, 7653, Note_on_c, 1, 68, 127
1, 7653, Note_on_c, 1, 56, 127
1, 7666, Note_off_c, 1, 68, 0
1, 7668, Note_on_c, 1, 66, 127
1, 7679, Note_off_c, 1, 56, 0
1, 7681, Note_off_c, 1, 66, 0
1, 7683, Note_on_c, 1, 58, 127
1, 7683, Note_on_c, 1, 76, 127
1, 7709, Note_off_c, 1, 58, 0
1, 7713, Note_on_c, 1, 54, 127
1, 7739, Note_off_c, 1, 54, 0
1, 7743, Note_on_c, 1, 61, 127
1, 7761, Note_off_c, 1, 76, 0
1, 7769, Note_off_c, 1, 61, 0
1, 7773, Note_on_c, 1, 58, 127
1, 7773, Note_on_c, 1, 73, 127
1, 7799, Note_off_c, 1, 58, 0
1, 7799, Note_off_c, 1, 73, 0
1, 7803, Note_on_c, 1, 54, 127
1, 7803, Note_on_c, 1, 70, 127
1, 7829, Note_off_c, 1, 54, 0
1, 7833, Note_on_c, 1, 64, 127
1, 7859, Note_off_c, 1, 64, 0
1, 7863, Note_on_c, 1, 63, 127
1, 7881, Note_off_c, 1, 70, 0
1, 7889, Note_off_c, 1, 63, 0
1, 7893, Note_on_c, 1, 61, 127
1, 7893, Note_on_c, 1, 76, 127
1, 7919, Note_off_c, 1, 61, 0
1, 7919, Note_off_c, 1, 76, 0
1, 7923, Note_on_c, 1, 75, 127
1, 7923, Note_on_c, 1, 59, 127
1, 7949, Note_off_c, 1, 75, 0
1, 7953, Note_on_c, 1, 78, 127
1, 7979, Note_off_c, 1, 78, 0
1, 7983, Note_on_c, 1, 71, 127
1, 8001, Note_off_c, 1, 59, 0
1, 8009, Note_off_c, 1, 71, 0
1, 8013, Note_on_c, 1, 54, 127
1, 8013, Note_on_c, 1, 73, 127
1, 8039, Note_off_c, 1, 54, 0
1, 8039, Note_off_c, 1, 73, 0
1, 8043, Note_on_c, 1, 75, 127
1, 8043, Note_on_c, 1, 54, 127
1, 8069, Note_off_c, 1, 75, 0
1, 8073, Note_on_c, 1, 71, 127
1, 8099, Note_off_c, 1, 71, 0
1, 8103, Note_on_c, 1, 78, 127
1, 8121, Note_off_c, 1, 54, 0
1, 8129, Note_off_c, 1, 78, 0
1, 8133, Note_on_c, 1, 59, 127
1, 8133, Note_on_c, 1, 75, 127
1, 8159, Note_off_c, 1, 59, 0
1, 8159, Note_off_c, 1, 75, 0
1, 8163, Note_on_c, 1, 71, 127
1, 8163, Note_on_c, 1, 63, 127
1, 8189, Note_off_c, 1, 71, 0
1, 8193, Note_on_c, 1, 75, 127
1, 8219, Note_off_c, 1, 75, 0
1, 8223, Note_on_c, 1, 73, 127
1, 8241, Note_off_c, 1, 63, 0
1, 8249, Note_off_c, 1, 73, 0
1, 8253, Note_on_c, 1, 54, 127
1, 8253, Note_on_c, 1, 71, 127
1, 8279, Note_off_c, 1, 54, 0
1, 8279, Note_off_c, 1, 71, 0
1, 8283, Note_on_c, 1, 73, 127
1, 8283, Note_on_c, 1, 58, 127
1, 8309, Note_off_c, 1, 73, 0
1, 8313, Note_on_c, 1, 78, 127
1, 8339, Note_off_c, 1, 78, 0
1, 8343, Note_on_c, 1, 70, 127
1, 8361, Note_off_c, 1, 58, 0
1, 8369, Note_off_c, 1, 70, 0
1, 8373, Note_on_c, 1, 54, 127
1, 8373, Note_on_c, 1, 71, 127
1, 8399, Note_off_c, 1, 54, 0
1, 8399, Note_off_c, 1, 71, 0
1, 8403, Note_on_c, 1, 73, 127
1, 8403, Note_on_c, 1, 54, 127
1, 8429, Note_off_c, 1, 73, 0
1, 8433, Note_on_c, 1, 70, 127
1, 8459, Note_off_c, 1, 70, 0
1, 8463, Note_on_c, 1, 78, 127
1, 8481, Note_off_c, 1, 54, 0
1, 8489, Note_off_c, 1, 78, 0
1, 8493, Note_on_c, 1, 58, 127
1, 8493, Note_on_c, 1, 73, 127
1, 8519, Note_off_c, 1, 58, 0
1, 8519, Note_off_c, 1, 73, 0
1, 8523, Note_on_c, 1, 70, 127
1, 8523, Note_on_c, 1, 61, 127
1, 8549, Note_off_c, 1, 70, 0
1, 8553, Note_on_c, 1, 73, 127
1, 8579, Note_off_c, 1, 73, 0
1, 8583, Note_on_c, 1, 71, 127
1, 8601, Note_off_c, 1, 61, 0
1, 8609, Note_off_c, 1, 71, 0
1, 8613, Note_on_c, 1, 54, 127
1, 8613, Note_on_c, 1, 70, 127
1, 8639, Note_off_c, 1, 54, 0
1, 8639, Note_off_c, 1, 70, 0
1, 8643, Note_on_c, 1, 71, 127
1, 8643, Note_on_c, 1, 56, 127
1, 8669, Note_off_c, 1, 71, 0
1, 8673, Note_on_c, 1, 75, 127
1, 8699, Note_off_c, 1, 75, 0
1, 8703, Note_on_c, 1, 68, 127
1, 8721, Note_off_c, 1, 56, 0
1, 8729, Note_off_c, 1, 68, 0
1, 8733, Note_on_c, 1, 54, 127
1, 8733, Note_on_c, 1, 70, 127
1, 8759, Note_off_c, 1, 54, 0
1, 8759, Note_off_c, 1, 70, 0
1, 8763, Note_on_c, 1, 71, 127
1, 8763, Note_on_c, 1, 54, 127
1, 8789, Note_off_c, 1, 71, 0
1, 8793, Note_on_c, 1, 68, 127
1, 8819, Note_off_c, 1, 68, 0
1, 8823, Note_on_c, 1, 75, 127
1, 8841, Note_off_c, 1, 54, 0
1, 8849, Note_off_c, 1, 75, 0
1, 8853, Note_on_c, 1, 56, 127
1, 8853, Note_on_c, 1, 71, 127
1, 8879, Note_off_c, 1, 56, 0
1, 8879, Note_off_c, 1, 71, 0
1, 8883, Note_on_c, 1, 68, 127
1, 8883, Note_on_c, 1, 59, 127
1, 8909, Note_off_c, 1, 68, 0
1, 8913, Note_on_c, 1, 71, 127
1, 8939, Note_off_c, 1, 71, 0
1, 8943, Note_on_c, 1, 70, 127
1, 8961, Note_off_c, 1, 59, 0
1, 8969, Note_off_c, 1, 70, 0
1, 8973, Note_on_c, 1, 53, 127
1, 8973, Note_on_c, 1, 68, 127
1, 8999, Note_off_c, 1, 53, 0
1, 8999, Note_off_c, 1, 68, 0
1, 9003, Note_on_c, 1, 54, 127
1, 9003, Note_on_c, 1, 70, 127
1, 9029, Note_off_c, 1, 54, 0
1, 9033, Note_on_c, 1, 61, 127
1, 9059, Note_off_c, 1, 61, 0
1, 9081, Note_off_c, 1, 70, 0
1, 9093, Note_on_c, 1, 56, 127
1, 9093, Note_on_c, 1, 73, 127
1, 9119, Note_off_c, 1, 56, 0
1, 9119, Note_off_c, 1, 73, 0
1, 9123, Note_on_c, 1, 58, 127
1, 9123, Note_on_c, 1, 73, 127
1, 9149, Note_off_c, 1, 58, 0
1, 9153, Note_on_c, 1, 54, 127
1, 9179, Note_off_c, 1, 54, 0
1, 9183, Note_on_c, 1, 61, 127
1, 9201, Note_off_c, 1, 73, 0
1, 9209, Note_off_c, 1, 61, 0
1, 9213, Note_on_c, 1, 72, 127
1, 9213, Note_on_c, 1, 58, 127
1, 9226, Note_off_c, 1, 72, 0
1, 9228, Note_on_c, 1, 73, 127
1, 9239, Note_off_c, 1, 58, 0
1, 9241, Note_off_c, 1, 73, 0
1, 9243, Note_on_c, 1, 54, 127
1, 9243, Note_on_c, 1, 73, 127
1, 9269, Note_off_c, 1, 54, 0
1, 9273, Note_on_c, 1, 58, 127
1, 9299, Note_off_c, 1, 58, 0
1, 9303, Note_on_c, 1, 56, 127
1, 9321, Note_off_c, 1, 73, 0
1, 9329, Note_off_c, 1, 56, 0
1, 9333, Note_on_c, 1, 72, 127
1, 9333, Note_on_c, 1, 54, 127
1, 9346, Note_off_c, 1, 72, 0
1, 9348, Note_on_c, 1, 73, 127
1, 9359, Note_off_c, 1, 54, 0
1, 9361, Note_off_c, 1, 73, 0
1, 9363, Note_on_c, 1, 53, 127
1, 9363, Note_on_c, 1, 68, 127
1, 9389, Note_off_c, 1, 53, 0
1, 9393, Note_on_c, 1, 61, 127
1, 9419, Note_off_c, 1, 61, 0
1, 9441, Note_off_c, 1, 68, 0
1, 9453, Note_on_c, 1, 54, 127
1, 9453, Note_on_c, 1, 73, 127
1, 9479, Note_off_c, 1, 54, 0
1, 9479, Note_off_c, 1, 73, 0
1, 9483, Note_on_c, 1, 56, 127
1, 9483, Note_on_c, 1, 73, 127
1, 9509, Note_off_c, 1, 56, 0
1, 9513, Note_on_c, 1, 53, 127
1, 9539, Note_off_c, 1, 53, 0
1, 9543, Note_on_c, 1, 61, 127
1, 9561, Note_off_c, 1, 73, 0
1, 9569, Note_off_c, 1, 61, 0
1, 9573, Note_on_c, 1, 72, 127
1, 9573, Note_on_c, 1, 56, 127
1, 9586, Note_off_c, 1, 72, 0
1, 9588, Note_on_c, 1, 73, 127
1, 9599, Note_off_c, 1, 56, 0
1, 9601, Note_off_c, 1, 73, 0
1, 9603, Note_on_c, 1, 53, 127
1, 9603, Note_on_c, 1, 73, 127
1, 9629, Note_off_c, 1, 53, 0
1, 9633, Note_on_c, 1, 56, 127
1, 9659, Note_off_c, 1, 56, 0
1, 9663, Note_on_c, 1, 54, 127
1, 9681, Note_off_c, 1, 73, 0
1, 9689, Note_off_c, 1, 54, 0
1, 9693, Note_on_c, 1, 72, 127
1, 9693, Note_on_c, 1, 53, 127
1, 9706, Note_off_c, 1, 72, 0
1, 9708, Note_on_c, 1, 73, 127
1, 9719, Note_off_c, 1, 53, 0
1, 9721, Note_off_c, 1, 73, 0
1, 9723, Note_on_c, 1, 51, 127
1, 9723, Note_on_c, 1, 66, 127
1, 9749, Note_off_c, 1, 51, 0
1, 9753, Note_on_c, 1, 61, 127
1, 9779, Note_off_c, 1, 61, 0
1, 9801, Note_off_c, 1, 66, 0
1, 9813, Note_on_c, 1, 53, 127
1, 9813, Note_on_c, 1, 73, 127
1, 9839, Note_off_c, 1, 53, 0
1, 9839, Note_off_c, 1, 73, 0
1, 9843, Note_on_c, 1, 54, 127
1, 9843, Note_on_c, 1, 82, 127
1, 9869, Note_off_c, 1, 54, 0
1, 9873, Note_on_c, 1, 51, 127
1, 9899, Note_off_c, 1, 51, 0
1, 9903, Note_on_c, 1, 61, 127
1, 9921, Note_off_c, 1, 82, 0
1, 9929, Note_off_c, 1, 61, 0
1, 9933, Note_on_c, 1, 54, 127
1, 9933, Note_on_c, 1, 73, 127
1, 9959, Note_off_c, 1, 54, 0
1, 9959, Note_off_c, 1, 73, 0
1, 9963, Note_on_c, 1, 51, 127
1, 9963, Note_on_c, 1, 72, 127
1, 9989, Note_off_c, 1, 51, 0
1, 9993, Note_on_c, 1, 54, 127
1, 10019, Note_off_c, 1, 54, 0
1, 10023, Note_on_c, 1, 53, 127
1, 10041, Note_off_c, 1, 72, 0
1, 10049, Note_off_c, 1, 53, 0
1, 10053, Note_on_c, 1, 51, 127
1, 10053, Note_on_c, 1, 73, 127
1, 10079, Note_off_c, 1, 51, 0
1, 10079, Note_off_c, 1, 73, 0
1, 10083, Note_on_c, 1, 49, 127
1, 10083, Note_on_c, 1, 73, 127
1, 10109, Note_off_c, 1, 49, 0
1, 10113, Note_on_c, 1, 61, 127
1, 10139, Note_off_c, 1, 61, 0
1, 10173, Note_on_c, 1, 51, 127
1, 10199, Note_off_c, 1, 51, 0
1, 10203, Note_on_c, 1, 53, 127
1, 10229, Note_off_c, 1, 53, 0
1, 10248, Note_off_c, 1, 73, 0
1, 10263, Note_on_c, 1, 56, 127
1, 10278, Note_on_c, 1, 73, 127
1, 10289, Note_off_c, 1, 56, 0
1, 10291, Note_off_c, 1, 73, 0
1, 10293, Note_on_c, 1, 75, 127
1, 10293, Note_on_c, 1, 53, 127
1, 10306, Note_off_c, 1, 75, 0
1, 10308, Note_on_c, 1, 77, 127
1, 10319, Note_off_c, 1, 53, 0
1, 10321, Note_off_c, 1, 77, 0
1, 10323, Note_on_c, 1, 47, 127
1, 10323, Note_on_c, 1, 77, 127
1, 10349, Note_off_c, 1, 47, 0
1, 10353, Note_on_c, 1, 51, 127
1, 10379, Note_off_c, 1, 51, 0
1, 10383, Note_on_c, 1, 49, 127
1, 10401, Note_off_c, 1, 77, 0
1, 10409, Note_off_c, 1, 49, 0
1, 10413, Note_on_c, 1, 75, 127
1, 10413, Note_on_c, 1, 47, 127
1, 10426, Note_off_c, 1, 75, 0
1, 10428, Note_on_c, 1, 77, 127
1, 10439, Note_off_c, 1, 47, 0
1, 10441, Note_off_c, 1, 77, 0
1, 10443, Note_on_c, 1, 78, 127
1, 10443, Note_on_c, 1, 46, 127
1, 10469, Note_off_c, 1, 78, 0
1, 10473, Note_on_c, 1, 73, 127
1, 10499, Note_off_c, 1, 73, 0
1, 10503, Note_on_c, 1, 66, 127
1, 10529, Note_off_c, 1, 66, 0
1, 10533, Note_on_c, 1, 68, 127
1, 10559, Note_off_c, 1, 68, 0
1, 10563, Note_on_c, 1, 70, 127
1, 10589, Note_off_c, 1, 70, 0
1, 10608, Note_off_c, 1, 46, 0
1, 10623, Note_on_c, 1, 73, 127
1, 10638, Note_on_c, 1, 54, 127
1, 10649, Note_off_c, 1, 73, 0
1, 10651, Note_off_c, 1, 54, 0
1, 10653, Note_on_c, 1, 56, 127
1, 10653, Note_on_c, 1, 70, 127
1, 10666, Note_off_c, 1, 56, 0
1, 10668, Note_on_c, 1, 58, 127
1, 10679, Note_off_c, 1, 70, 0
1, 10683, Note_on_c, 1, 64, 127
1, 10709, Note_off_c, 1, 64, 0
1, 10713, Note_on_c, 1, 68, 127
1, 10739, Note_off_c, 1, 68, 0
1, 10743, Note_on_c, 1, 66, 127
1, 10761, Note_off_c, 1, 58, 0
1, 10769, Note_off_c, 1, 66, 0
1, 10773, Note_on_c, 1, 56, 127
1, 10773, Note_on_c, 1, 64, 127
1, 10786, Note_off_c, 1, 56, 0
1, 10788, Note_on_c, 1, 58, 127
1, 10799, Note_off_c, 1, 64, 0
1, 10801, Note_off_c, 1, 58, 0
1, 10803, Note_on_c, 1, 59, 127
1, 10803, Note_on_c, 1, 63, 127
1, 10829, Note_off_c, 1, 59, 0
1, 10833, Note_on_c, 1, 54, 127
1, 10859, Note_off_c, 1, 54, 0
1, 10863, Note_on_c, 1, 47, 127
1, 10889, Note_off_c, 1, 47, 0
1, 10893, Note_on_c, 1, 49, 127
1, 10919, Note_off_c, 1, 49, 0
1, 10923, Note_on_c, 1, 51, 127
1, 10949, Note_off_c, 1, 51, 0
1, 10968, Note_off_c, 1, 63, 0
1, 10983, Note_on_c, 1, 54, 127
1, 10998, Note_on_c, 1, 75, 127
1, 11009, Note_off_c, 1, 54, 0
1, 11011, Note_off_c, 1, 75, 0
1, 11013, Note_on_c, 1, 74, 127
1, 11013, Note_on_c, 1, 51, 127
1, 11026, Note_off_c, 1, 74, 0
1, 11028, Note_on_c, 1, 75, 127
1, 11039, Note_off_c, 1, 51, 0
1, 11041, Note_off_c, 1, 75, 0
1, 11043, Note_on_c, 1, 46, 127
1, 11043, Note_on_c, 1, 75, 127
1, 11069, Note_off_c, 1, 46, 0
1, 11073, Note_on_c, 1, 49, 127
1, 11099, Note_off_c, 1, 49, 0
1, 11103, Note_on_c, 1, 47, 127
1, 11121, Note_off_c, 1, 75, 0
1, 11129, Note_off_c, 1, 47, 0
1, 11133, Note_on_c, 1, 74, 127
1, 11133, Note_on_c, 1, 46, 127
1, 11146, Note_off_c, 1, 74, 0
1, 11148, Note_on_c, 1, 75, 127
1, 11159, Note_off_c, 1, 46, 0
1, 11161, Note_off_c, 1, 75, 0
1, 11163, Note_on_c, 1, 77, 127
1, 11163, Note_on_c, 1, 44, 127
1, 11189, Note_off_c, 1, 77, 0
1, 11193, Note_on_c, 1, 71, 127
1, 11219, Note_off_c, 1, 71, 0
1, 11223, Note_on_c, 1, 65, 127
1, 11249, Note_off_c, 1, 65, 0
1, 11253, Note_on_c, 1, 66, 127
1, 11279, Note_off_c, 1, 66, 0
1, 11283, Note_on_c, 1, 68, 127
1, 11309, Note_off_c, 1, 68, 0
1, 11328, Note_off_c, 1, 44, 0
1, 11343, Note_on_c, 1, 71, 127
1, 11358, Note_on_c, 1, 56, 127
1, 11369, Note_off_c, 1, 71, 0
1, 11371, Note_off_c, 1, 56, 0
1, 11373, Note_on_c, 1, 55, 127
1, 11373, Note_on_c, 1, 68, 127
1, 11386, Note_off_c, 1, 55, 0
1, 11388, Note_on_c, 1, 56, 127
1, 11399, Note_off_c, 1, 68, 0
1, 11401, Note_off_c, 1, 56, 0
1, 11403, Note_on_c, 1, 63, 127
1, 11403, Note_on_c, 1, 57, 127
1, 11429, Note_off_c, 1, 63, 0
1, 11433, Note_on_c, 1, 66, 127
1, 11459, Note_off_c, 1, 66, 0
1, 11463, Note_on_c, 1, 65, 127
1, 11481, Note_off_c, 1, 57, 0
1, 11489, Note_off_c, 1, 65, 0
1, 11493, Note_on_c, 1, 55, 127
1, 11493, Note_on_c, 1, 63, 127
1, 11506, Note_off_c, 1, 55, 0
1, 11508, Note_on_c, 1, 57, 127
1, 11519, Note_off_c, 1, 63, 0
1, 11521, Note_off_c, 1, 57, 0
1, 11523, Note_on_c, 1, 58, 127
1, 11523, Note_on_c, 1, 62, 127
1, 11549, Note_off_c, 1, 58, 0
1, 11553, Note_on_c, 1, 53, 127
1, 11579, Note_off_c, 1, 53, 0
1, 11583, Note_on_c, 1, 46, 127
1, 11601, Note_off_c, 1, 62, 0
1, 11609, Note_off_c, 1, 46, 0
1, 11613, Note_on_c, 1, 63, 127
1, 11613, Note_on_c, 1, 48, 127
1, 11626, Note_off_c, 1, 63, 0
1, 11628, Note_on_c, 1, 65, 127
1, 11639, Note_off_c, 1, 48, 0
1, 11641, Note_off_c, 1, 65, 0
1, 11643, Note_on_c, 1, 50, 127
1, 11643, Note_on_c, 1, 58, 127
1, 11669, Note_off_c, 1, 50, 0
1, 11673, Note_on_c, 1, 46, 127
1, 11699, Note_off_c, 1, 46, 0
1, 11703, Note_on_c, 1, 53, 127
1, 11729, Note_off_c, 1, 53, 0
1, 11763, Note_on_c, 1, 44, 127
1, 11789, Note_off_c, 1, 58, 0
1, 11789, Note_off_c, 1, 44, 0
1, 11793, Note_on_c, 1, 47, 127
1, 11793, Note_on_c, 1, 68, 127
1, 11819, Note_off_c, 1, 47, 0
1, 11819, Note_off_c, 1, 68, 0
1, 11823, Note_on_c, 1, 46, 127
1, 11823, Note_on_c, 1, 66, 127
1, 11849, Note_off_c, 1, 46, 0
1, 11849, Note_off_c, 1, 66, 0
1, 11853, Note_on_c, 1, 44, 127
1, 11853, Note_on_c, 1, 65, 127
1, 11879, Note_off_c, 1, 44, 0
1, 11879, Note_off_c, 1, 65, 0
1, 11883, Note_on_c, 1, 63, 127
1, 11883, Note_on_c, 1, 42, 127
1, 11909, Note_off_c, 1, 63, 0
1, 11913, Note_on_c, 1, 66, 127
1, 11939, Note_off_c, 1, 66, 0
1, 11943, Note_on_c, 1, 70, 127
1, 11961, Note_off_c, 1, 42, 0
1, 11969, Note_off_c, 1, 70, 0
1, 11973, Note_on_c, 1, 58, 127
1, 11973, Note_on_c, 1, 66, 127
1, 11999, Note_off_c, 1, 58, 0
1, 11999, Note_off_c, 1, 66, 0
1, 12003, Note_on_c, 1, 75, 127
1, 12003, Note_on_c, 1, 58, 127
1, 12029, Note_off_c, 1, 75, 0
1, 12033, Note_on_c, 1, 70, 127
1, 12059, Note_off_c, 1, 70, 0
1, 12063, Note_on_c, 1, 78, 127
1, 12081, Note_off_c, 1, 58, 0
1, 12089, Note_off_c, 1, 78, 0
1, 12093, Note_on_c, 1, 54, 127
1, 12093, Note_on_c, 1, 75, 127
1, 12119, Note_off_c, 1, 54, 0
1, 12119, Note_off_c, 1, 75, 0
1, 12123, Note_on_c, 1, 70, 127
1, 12123, Note_on_c, 1, 54, 127
1, 12149, Note_off_c, 1, 70, 0
1, 12153, Note_on_c, 1, 75, 127
1, 12179, Note_off_c, 1, 75, 0
1, 12183, Note_on_c, 1, 74, 127
1, 12201, Note_off_c, 1, 54, 0
1, 12209, Note_off_c, 1, 74, 0
1, 12213, Note_on_c, 1, 51, 127
1, 12213, Note_on_c, 1, 72, 127
1, 12239, Note_off_c, 1, 51, 0
1, 12239, Note_off_c, 1, 72, 0
1, 12243, Note_on_c, 1, 74, 127
1, 12243, Note_on_c, 1, 41, 127
1, 12269, Note_off_c, 1, 74, 0
1, 12273, Note_on_c, 1, 77, 127
1, 12299, Note_off_c, 1, 77, 0
1, 12303, Note_on_c, 1, 70, 127
1, 12321, Note_off_c, 1, 41, 0
1, 12329, Note_off_c, 1, 70, 0
1, 12333, Note_on_c, 1, 58, 127
1, 12333, Note_on_c, 1, 72, 127
1, 12359, Note_off_c, 1, 58, 0
1, 12359, Note_off_c, 1, 72, 0
1, 12363, Note_on_c, 1, 74, 127
1, 12363, Note_on_c, 1, 58, 127
1, 12389, Note_off_c, 1, 74, 0
1, 12393, Note_on_c, 1, 70, 127
1, 12419, Note_off_c, 1, 70, 0
1, 12423, Note_on_c, 1, 80, 127
1, 12441, Note_off_c, 1, 58, 0
1, 12449, Note_off_c, 1, 80, 0
1, 12453, Note_on_c, 1, 53, 127
1, 12453, Note_on_c, 1, 77, 127
1, 12479, Note_off_c, 1, 53, 0
1, 12479, Note_off_c, 1, 77, 0
1, 12483, Note_on_c, 1, 74, 127
1, 12483, Note_on_c, 1, 53, 127
1, 12509, Note_off_c, 1, 74, 0
1, 12513, Note_on_c, 1, 83, 127
1, 12539, Note_off_c, 1, 83, 0
1, 12543, Note_on_c, 1, 82, 127
1, 12561, Note_off_c, 1, 53, 0
1, 12569, Note_off_c, 1, 82, 0
1, 12573, Note_on_c, 1, 50, 127
1, 12573, Note_on_c, 1, 80, 127
1, 12599, Note_off_c, 1, 50, 0
1, 12599, Note_off_c, 1, 80, 0
1, 12603, Note_on_c, 1, 78, 127
1, 12603, Note_on_c, 1, 39, 127
1, 12629, Note_off_c, 1, 78, 0
1, 12633, Note_on_c, 1, 82, 127
1, 12659, Note_off_c, 1, 82, 0
1, 12663, Note_on_c, 1, 75, 127
1, 12681, Note_off_c, 1, 39, 0
1, 12689, Note_off_c, 1, 75, 0
1, 12693, Note_on_c, 1, 58, 127
1, 12693, Note_on_c, 1, 77, 127
1, 12719, Note_off_c, 1, 58, 0
1, 12719, Note_off_c, 1, 77, 0
1, 12723, Note_on_c, 1, 78, 127
1, 12723, Note_on_c, 1, 58, 127
1, 12749, Note_off_c, 1, 78, 0
1, 12753, Note_on_c, 1, 75, 127
1, 12779, Note_off_c, 1, 75, 0
1, 12783, Note_on_c, 1, 82, 127
1, 12801, Note_off_c, 1, 58, 0
1, 12809, Note_off_c, 1, 82, 0
1, 12813, Note_on_c, 1, 51, 127
1, 12813, Note_on_c, 1, 78, 127
1, 12839, Note_off_c, 1, 51, 0
1, 12839, Note_off_c, 1, 78, 0
1, 12843, Note_on_c, 1, 75, 127
1, 12843, Note_on_c, 1, 51, 127
1, 12869, Note_off_c, 1, 75, 0
1, 12873, Note_on_c, 1, 78, 127
1, 12899, Note_off_c, 1, 78, 0
1, 12903, Note_on_c, 1, 77, 127
1, 12921, Note_off_c, 1, 51, 0
1, 12929, Note_off_c, 1, 77, 0
1, 12933, Note_on_c, 1, 48, 127
1, 12933, Note_on_c, 1, 75, 127
1, 12959, Note_off_c, 1, 48, 0
1, 12959, Note_off_c, 1, 75, 0
1, 12963, Note_on_c, 1, 77, 127
1, 12963, Note_on_c, 1, 38, 127
1, 12989, Note_off_c, 1, 77, 0
1, 12993, Note_on_c, 1, 82, 127
1, 13019, Note_off_c, 1, 82, 0
1, 13023, Note_on_c, 1, 70, 127
1, 13041, Note_off_c, 1, 38, 0
1, 13049, Note_off_c, 1, 70, 0
1, 13053, Note_on_c, 1, 58, 127
1, 13053, Note_on_c, 1, 72, 127
1, 13079, Note_off_c, 1, 58, 0
1, 13079, Note_off_c, 1, 72, 0
1, 13083, Note_on_c, 1, 74, 127
1, 13083, Note_on_c, 1, 58, 127
1, 13109, Note_off_c, 1, 74, 0
1, 13113, Note_on_c, 1, 70, 127
1, 13139, Note_off_c, 1, 70, 0
1, 13143, Note_on_c, 1, 77, 127
1, 13161, Note_off_c, 1, 58, 0
1, 13169, Note_off_c, 1, 77, 0
1, 13173, Note_on_c, 1, 50, 127
1, 13173, Note_on_c, 1, 74, 127
1, 13199, Note_off_c, 1, 50, 0
1, 13199, Note_off_c, 1, 74, 0
1, 13203, Note_on_c, 1, 70, 127
1, 13203, Note_on_c, 1, 50, 127
1, 13229, Note_off_c, 1, 70, 0
1, 13233, Note_on_c, 1, 80, 127
1, 13259, Note_off_c, 1, 80, 0
1, 13263, Note_on_c, 1, 78, 127
1, 13281, Note_off_c, 1, 50, 0
1, 13289, Note_off_c, 1, 78, 0
1, 13293, Note_on_c, 1, 46, 127
1, 13293, Note_on_c, 1, 77, 127
1, 13319, Note_off_c, 1, 46, 0
1, 13319, Note_off_c, 1, 77, 0
1, 13323, Note_on_c, 1, 51, 127
1, 13323, Note_on_c, 1, 78, 127
1, 13349, Note_off_c, 1, 51, 0
1, 13353, Note_on_c, 1, 58, 127
1, 13379, Note_off_c, 1, 58, 0
1, 13401, Note_off_c, 1, 78, 0
1, 13413, Note_on_c, 1, 53, 127
1, 13413, Note_on_c, 1, 74, 127
1, 13439, Note_off_c, 1, 53, 0
1, 13439, Note_off_c, 1, 74, 0
1, 13443, Note_on_c, 1, 54, 127
1, 13443, Note_on_c, 1, 75, 127
1, 13469, Note_off_c, 1, 54, 0
1, 13473, Note_on_c, 1, 51, 127
1, 13499, Note_off_c, 1, 51, 0
1, 13503, Note_on_c, 1, 58, 127
1, 13516, Note_off_c, 1, 75, 0
1, 13518, Note_on_c, 1, 66, 127
1, 13529, Note_off_c, 1, 58, 0
1, 13531, Note_off_c, 1, 66, 0
1, 13533, Note_on_c, 1, 65, 127
1, 13533, Note_on_c, 1, 54, 127
1, 13546, Note_off_c, 1, 65, 0
1, 13548, Note_on_c, 1, 63, 127
1, 13559, Note_off_c, 1, 54, 0
1, 13561, Note_off_c, 1, 63, 0
1, 13563, Note_on_c, 1, 51, 127
1, 13563, Note_on_c, 1, 69, 127
1, 13589, Note_off_c, 1, 51, 0
1, 13593, Note_on_c, 1, 54, 127
1, 13619, Note_off_c, 1, 54, 0
1, 13623, Note_on_c, 1, 53, 127
1, 13641, Note_off_c, 1, 69, 0
1, 13649, Note_off_c, 1, 53, 0
1, 13653, Note_on_c, 1, 67, 127
1, 13653, Note_on_c, 1, 51, 127
1, 13666, Note_off_c, 1, 67, 0
1, 13668, Note_on_c, 1, 69, 127
1, 13679, Note_off_c, 1, 51, 0
1, 13681, Note_off_c, 1, 69, 0
1, 13683, Note_on_c, 1, 49, 127
1, 13683, Note_on_c, 1, 70, 127
1, 13709, Note_off_c, 1, 49, 0
1, 13709, Note_off_c, 1, 70, 0
1, 13713, Note_on_c, 1, 58, 127
1, 13713, Note_on_c, 1, 65, 127
1, 13739, Note_off_c, 1, 58, 0
1, 13739, Note_off_c, 1, 65, 0
1, 13743, Note_on_c, 1, 49, 127
1, 13743, Note_on_c, 1, 70, 127
1, 13769, Note_off_c, 1, 49, 0
1, 13769, Note_off_c, 1, 70, 0
1, 13773, Note_on_c, 1, 51, 127
1, 13773, Note_on_c, 1, 72, 127
1, 13799, Note_off_c, 1, 51, 0
1, 13799, Note_off_c, 1, 72, 0
1, 13803, Note_on_c, 1, 53, 127
1, 13803, Note_on_c, 1, 73, 127
1, 13829, Note_off_c, 1, 53, 0
1, 13829, Note_off_c, 1, 73, 0
1, 13833, Note_on_c, 1, 49, 127
1, 13833, Note_on_c, 1, 70, 127
1, 13859, Note_off_c, 1, 49, 0
1, 13859, Note_off_c, 1, 70, 0
1, 13863, Note_on_c, 1, 58, 127
1, 13863, Note_on_c, 1, 77, 127
1, 13889, Note_off_c, 1, 58, 0
1, 13889, Note_off_c, 1, 77, 0
1, 13893, Note_on_c, 1, 53, 127
1, 13893, Note_on_c, 1, 73, 127
1, 13919, Note_off_c, 1, 53, 0
1, 13919, Note_off_c, 1, 73, 0
1, 13923, Note_on_c, 1, 49, 127
1, 13923, Note_on_c, 1, 82, 127
1, 13949, Note_off_c, 1, 49, 0
1, 13949, Note_off_c, 1, 82, 0
1, 13953, Note_on_c, 1, 53, 127
1, 13953, Note_on_c, 1, 80, 127
1, 13979, Note_off_c, 1, 53, 0
1, 13979, Note_off_c, 1, 80, 0
1, 13983, Note_on_c, 1, 51, 127
1, 13983, Note_on_c, 1, 78, 127
1, 14009, Note_off_c, 1, 51, 0
1, 14009, Note_off_c, 1, 78, 0
1, 14013, Note_on_c, 1, 49, 127
1, 14013, Note_on_c, 1, 77, 127
1, 14039, Note_off_c, 1, 49, 0
1, 14039, Note_off_c, 1, 77, 0
1, 14043, Note_on_c, 1, 47, 127
1, 14043, Note_on_c, 1, 75, 127
1, 14069, Note_off_c, 1, 47, 0
1, 14069, Note_off_c, 1, 75, 0
1, 14073, Note_on_c, 1, 58, 127
1, 14073, Note_on_c, 1, 74, 127
1, 14099, Note_off_c, 1, 58, 0
1, 14099, Note_off_c, 1, 74, 0
1, 14103, Note_on_c, 1, 47, 127
1, 14103, Note_on_c, 1, 75, 127
1, 14129, Note_off_c, 1, 47, 0
1, 14133, Note_on_c, 1, 49, 127
1, 14155, Note_off_c, 1, 75, 0
1, 14159, Note_off_c, 1, 49, 0
1, 14163, Note_on_c, 1, 51, 127
1, 14189, Note_off_c, 1, 51, 0
1, 14193, Note_on_c, 1, 47, 127
1, 14219, Note_off_c, 1, 47, 0
1, 14223, Note_on_c, 1, 56, 127
1, 14238, Note_on_c, 1, 75, 127
1, 14249, Note_off_c, 1, 56, 0
1, 14251, Note_off_c, 1, 75, 0
1, 14253, Note_on_c, 1, 77, 127
1, 14253, Note_on_c, 1, 51, 127
1, 14266, Note_off_c, 1, 77, 0
1, 14268, Note_on_c, 1, 79, 127
1, 14279, Note_off_c, 1, 51, 0
1, 14281, Note_off_c, 1, 79, 0
1, 14283, Note_on_c, 1, 47, 127
1, 14283, Note_on_c, 1, 80, 127
1, 14309, Note_off_c, 1, 47, 0
1, 14313, Note_on_c, 1, 51, 127
1, 14339, Note_off_c, 1, 51, 0
1, 14343, Note_on_c, 1, 49, 127
1, 14361, Note_off_c, 1, 80, 0
1, 14369, Note_off_c, 1, 49, 0
1, 14373, Note_on_c, 1, 47, 127
1, 14373, Note_on_c, 1, 80, 127
1, 14399, Note_off_c, 1, 47, 0
1, 14399, Note_off_c, 1, 80, 0
1, 14403, Note_on_c, 1, 46, 127
1, 14403, Note_on_c, 1, 80, 127
1, 14429, Note_off_c, 1, 46, 0
1, 14429, Note_off_c, 1, 80, 0
1, 14433, Note_on_c, 1, 58, 127
1, 14433, Note_on_c, 1, 77, 127
1, 14459, Note_off_c, 1, 58, 0
1, 14459, Note_off_c, 1, 77, 0
1, 14463, Note_on_c, 1, 46, 127
1, 14463, Note_on_c, 1, 74, 127
1, 14489, Note_off_c, 1, 46, 0
1, 14489, Note_off_c, 1, 74, 0
1, 14493, Note_on_c, 1, 48, 127
1, 14493, Note_on_c, 1, 75, 127
1, 14519, Note_off_c, 1, 48, 0
1, 14519, Note_off_c, 1, 75, 0
1, 14523, Note_on_c, 1, 50, 127
1, 14523, Note_on_c, 1, 77, 127
1, 14549, Note_off_c, 1, 50, 0
1, 14549, Note_off_c, 1, 77, 0
1, 14553, Note_on_c, 1, 46, 127
1, 14553, Note_on_c, 1, 74, 127
1, 14579, Note_off_c, 1, 46, 0
1, 14579, Note_off_c, 1, 74, 0
1, 14583, Note_on_c, 1, 53, 127
1, 14583, Note_on_c, 1, 68, 127
1, 14609, Note_off_c, 1, 53, 0
1, 14609, Note_off_c, 1, 68, 0
1, 14613, Note_on_c, 1, 50, 127
1, 14613, Note_on_c, 1, 71, 127
1, 14639, Note_off_c, 1, 50, 0
1, 14639, Note_off_c, 1, 71, 0
1, 14643, Note_on_c, 1, 44, 127
1, 14643, Note_on_c, 1, 62, 127
1, 14669, Note_off_c, 1, 44, 0
1, 14673, Note_on_c, 1, 47, 127
1, 14699, Note_off_c, 1, 47, 0
1, 14703, Note_on_c, 1, 46, 127
1, 14721, Note_off_c, 1, 62, 0
1, 14729, Note_off_c, 1, 46, 0
1, 14733, Note_on_c, 1, 44, 127
1, 14733, Note_on_c, 1, 71, 127
1, 14759, Note_off_c, 1, 44, 0
1, 14759, Note_off_c, 1, 71, 0
1, 14763, Note_on_c, 1, 42, 127
1, 14763, Note_on_c, 1, 70, 127
1, 14789, Note_off_c, 1, 42, 0
1, 14793, Note_on_c, 1, 46, 127
1, 14819, Note_off_c, 1, 46, 0
1, 14823, Note_on_c, 1, 51, 127
1, 14836, Note_off_c, 1, 70, 0
1, 14838, Note_on_c, 1, 68, 127
1, 14849, Note_off_c, 1, 51, 0
1, 14851, Note_off_c, 1, 68, 0
1, 14853, Note_on_c, 1, 66, 127
1, 14853, Note_on_c, 1, 53, 127
1, 14866, Note_off_c, 1, 66, 0
1, 14868, Note_on_c, 1, 65, 127
1, 14879, Note_off_c, 1, 53, 0
1, 14881, Note_off_c, 1, 65, 0
1, 14883, Note_on_c, 1, 54, 127
1, 14883, Note_on_c, 1, 63, 127
1, 14909, Note_off_c, 1, 54, 0
1, 14913, Note_on_c, 1, 51, 127
1, 14939, Note_off_c, 1, 51, 0
1, 14973, Note_on_c, 1, 56, 127
1, 14999, Note_off_c, 1, 56, 0
1, 15003, Note_on_c, 1, 58, 127
1, 15029, Note_off_c, 1, 58, 0
1, 15048, Note_off_c, 1, 63, 0
1, 15063, Note_on_c, 1, 59, 127
1, 15089, Note_off_c, 1, 59, 0
1, 15093, Note_on_c, 1, 59, 127
1, 15093, Note_on_c, 1, 75, 127
1, 15119, Note_off_c, 1, 59, 0
1, 15119, Note_off_c, 1, 75, 0
1, 15123, Note_on_c, 1, 74, 127
1, 15123, Note_on_c, 1, 59, 127
1, 15196, Note_off_c, 1, 74, 0
1, 15198, Note_on_c, 1, 75, 127
1, 15211, Note_off_c, 1, 75, 0
1, 15213, Note_on_c, 1, 77, 127
1, 15226, Note_off_c, 1, 77, 0
1, 15228, Note_on_c, 1, 78, 127
1, 15241, Note_off_c, 1, 78, 0
1, 15243, Note_on_c, 1, 80, 127
1, 15316, Note_off_c, 1, 59, 0
1, 15318, Note_on_c, 1, 58, 127
1, 15331, Note_off_c, 1, 58, 0
1, 15333, Note_on_c, 1, 56, 127
1, 15346, Note_off_c, 1, 56, 0
1, 15348, Note_on_c, 1, 54, 127
1, 15361, Note_off_c, 1, 54, 0
1, 15363, Note_on_c, 1, 53, 127
1, 15408, Note_off_c, 1, 80, 0
1, 15441, Note_off_c, 1, 53, 0
1, 15453, Note_on_c, 1, 62, 127
1, 15453, Note_on_c, 1, 82, 127
1, 15479, Note_off_c, 1, 62, 0
1, 15479, Note_off_c, 1, 82, 0
1, 15483, Note_on_c, 1, 63, 127
1, 15483, Note_on_c, 1, 78, 127
1, 15561, Note_off_c, 1, 63, 0
1, 15561, Note_off_c, 1, 78, 0
1, 15573, Note_on_c, 1, 56, 127
1, 15573, Note_on_c, 1, 77, 127
1, 15599, Note_off_c, 1, 56, 0
1, 15599, Note_off_c, 1, 77, 0
1, 15603, Note_on_c, 1, 58, 127
1, 15603, Note_on_c, 1, 74, 127
1, 15676, Note_off_c, 1, 58, 0
1, 15678, Note_on_c, 1, 59, 127
1, 15691, Note_off_c, 1, 59, 0
1, 15708, Note_on_c, 1, 56, 127
1, 15721, Note_off_c, 1, 56, 0
1, 15768, Note_off_c, 1, 74, 0
1, 15783, Note_on_c, 1, 75, 127
1, 15813, Note_on_c, 1, 46, 127
1, 15835, Note_off_c, 1, 75, 0
1, 15839, Note_off_c, 1, 46, 0
1, 15843, Note_on_c, 1, 75, 127
1, 15843, Note_on_c, 1, 51, 127
1, 15869, Note_off_c, 1, 75, 0
1, 15873, Note_on_c, 1, 70, 127
1, 15899, Note_off_c, 1, 70, 0
1, 15903, Note_on_c, 1, 66, 127
1, 15921, Note_off_c, 1, 51, 0
1, 15929, Note_off_c, 1, 66, 0
1, 15933, Note_on_c, 1, 63, 127
1, 15933, Note_on_c, 1, 68, 127
1, 15959, Note_off_c, 1, 63, 0
1, 15959, Note_off_c, 1, 68, 0
1, 15963, Note_on_c, 1, 70, 127
1, 15963, Note_on_c, 1, 63, 127
1, 15989, Note_off_c, 1, 70, 0
1, 15993, Note_on_c, 1, 66, 127
1, 16019, Note_off_c, 1, 66, 0
1, 16023, Note_on_c, 1, 75, 127
1, 16041, Note_off_c, 1, 63, 0
1, 16049, Note_off_c, 1, 75, 0
1, 16053, Note_on_c, 1, 63, 127
1, 16053, Note_on_c, 1, 70, 127
1, 16079, Note_off_c, 1, 63, 0
1, 16079, Note_off_c, 1, 70, 0
1, 16083, Note_on_c, 1, 66, 127
1, 16083, Note_on_c, 1, 58, 127
1, 16109, Note_off_c, 1, 66, 0
1, 16113, Note_on_c, 1, 68, 127
1, 16139, Note_off_c, 1, 68, 0
1, 16161, Note_off_c, 1, 58, 0
1, 16173, Note_on_c, 1, 63, 127
1, 16173, Note_on_c, 1, 65, 127
1, 16199, Note_off_c, 1, 63, 0
1, 16199, Note_off_c, 1, 65, 0
1, 16203, Note_on_c, 1, 67, 127
1, 16203, Note_on_c, 1, 49, 127
1, 16229, Note_off_c, 1, 67, 0
1, 16233, Note_on_c, 1, 75, 127
1, 16259, Note_off_c, 1, 75, 0
1, 16281, Note_off_c, 1, 49, 0
1, 16293, Note_on_c, 1, 63, 127
1, 16293, Note_on_c, 1, 68, 127
1, 16319, Note_off_c, 1, 63, 0
1, 16319, Note_off_c, 1, 68, 0
1, 16323, Note_on_c, 1, 70, 127
1, 16323, Note_on_c, 1, 63, 127
1, 16349, Note_off_c, 1, 70, 0
1, 16353, Note_on_c, 1, 67, 127
1, 16379, Note_off_c, 1, 67, 0
1, 16383, Note_on_c, 1, 75, 127
1, 16401, Note_off_c, 1, 63, 0
1, 16409, Note_off_c, 1, 75, 0
1, 16413, Note_on_c, 1, 63, 127
1, 16413, Note_on_c, 1, 70, 127
1, 16439, Note_off_c, 1, 63, 0
1, 16439, Note_off_c, 1, 70, 0
1, 16443, Note_on_c, 1, 67, 127
1, 16443, Note_on_c, 1, 58, 127
1, 16469, Note_off_c, 1, 67, 0
1, 16473, Note_on_c, 1, 70, 127
1, 16499, Note_off_c, 1, 70, 0
1, 16503, Note_on_c, 1, 68, 127
1, 16521, Note_off_c, 1, 58, 0
1, 16529, Note_off_c, 1, 68, 0
1, 16533, Note_on_c, 1, 63, 127
1, 16533, Note_on_c, 1, 67, 127
1, 16559, Note_off_c, 1, 63, 0
1, 16559, Note_off_c, 1, 67, 0
1, 16563, Note_on_c, 1, 68, 127
1, 16563, Note_on_c, 1, 47, 127
1, 16589, Note_off_c, 1, 68, 0
1, 16593, Note_on_c, 1, 75, 127
1, 16619, Note_off_c, 1, 75, 0
1, 16641, Note_off_c, 1, 47, 0
1, 16653, Note_on_c, 1, 63, 127
1, 16653, Note_on_c, 1, 70, 127
1, 16679, Note_off_c, 1, 63, 0
1, 16679, Note_off_c, 1, 70, 0
1, 16683, Note_on_c, 1, 71, 127
1, 16683, Note_on_c, 1, 63, 127
1, 16709, Note_off_c, 1, 71, 0
1, 16713, Note_on_c, 1, 68, 127
1, 16739, Note_off_c, 1, 68, 0
1, 16743, Note_on_c, 1, 75, 127
1, 16761, Note_off_c, 1, 63, 0
1, 16769, Note_off_c, 1, 75, 0
1, 16773, Note_on_c, 1, 63, 127
1, 16773, Note_on_c, 1, 71, 127
1, 16799, Note_off_c, 1, 63, 0
1, 16799, Note_off_c, 1, 71, 0
1, 16803, Note_on_c, 1, 68, 127
1, 16803, Note_on_c, 1, 59, 127
1, 16829, Note_off_c, 1, 68, 0
1, 16833, Note_on_c, 1, 71, 127
1, 16859, Note_off_c, 1, 71, 0
1, 16863, Note_on_c, 1, 70, 127
1, 16881, Note_off_c, 1, 59, 0
1, 16889, Note_off_c, 1, 70, 0
1, 16893, Note_on_c, 1, 63, 127
1, 16893, Note_on_c, 1, 68, 127
1, 16919, Note_off_c, 1, 63, 0
1, 16919, Note_off_c, 1, 68, 0
1, 16923, Note_on_c, 1, 70, 127
1, 16923, Note_on_c, 1, 55, 127
1, 16949, Note_off_c, 1, 70, 0
1, 16953, Note_on_c, 1, 75, 127
1, 16979, Note_off_c, 1, 75, 0
1, 17001, Note_off_c, 1, 55, 0
1, 17013, Note_on_c, 1, 63, 127
1, 17013, Note_on_c, 1, 71, 127
1, 17039, Note_off_c, 1, 63, 0
1, 17039, Note_off_c, 1, 71, 0
1, 17043, Note_on_c, 1, 73, 127
1, 17043, Note_on_c, 1, 63, 127
1, 17069, Note_off_c, 1, 73, 0
1, 17073, Note_on_c, 1, 70, 127
1, 17099, Note_off_c, 1, 70, 0
1, 17103, Note_on_c, 1, 76, 127
1, 17121, Note_off_c, 1, 63, 0
1, 17129, Note_off_c, 1, 76, 0
1, 17133, Note_on_c, 1, 63, 127
1, 17133, Note_on_c, 1, 73, 127
1, 17159, Note_off_c, 1, 63, 0
1, 17159, Note_off_c, 1, 73, 0
1, 17163, Note_on_c, 1, 70, 127
1, 17163, Note_on_c, 1, 61, 127
1, 17189, Note_off_c, 1, 70, 0
1, 17193, Note_on_c, 1, 73, 127
1, 17219, Note_off_c, 1, 73, 0
1, 17223, Note_on_c, 1, 71, 127
1, 17241, Note_off_c, 1, 61, 0
1, 17249, Note_off_c, 1, 71, 0
1, 17253, Note_on_c, 1, 63, 127
1, 17253, Note_on_c, 1, 70, 127
1, 17279, Note_off_c, 1, 63, 0
1, 17279, Note_off_c, 1, 70, 0
1, 17283, Note_on_c, 1, 56, 127
1, 17283, Note_on_c, 1, 71, 127
1, 17309, Note_off_c, 1, 56, 0
1, 17313, Note_on_c, 1, 51, 127
1, 17339, Note_off_c, 1, 51, 0
1, 17343, Note_on_c, 1, 44, 127
1, 17361, Note_off_c, 1, 71, 0
1, 17369, Note_off_c, 1, 44, 0
1, 17373, Note_on_c, 1, 46, 127
1, 17373, Note_on_c, 1, 67, 127
1, 17399, Note_off_c, 1, 46, 0
1, 17399, Note_off_c, 1, 67, 0
1, 17403, Note_on_c, 1, 47, 127
1, 17403, Note_on_c, 1, 68, 127
1, 17429, Note_off_c, 1, 47, 0
1, 17433, Note_on_c, 1, 44, 127
1, 17459, Note_off_c, 1, 44, 0
1, 17463, Note_on_c, 1, 51, 127
1, 17481, Note_off_c, 1, 68, 0
1, 17489, Note_off_c, 1, 51, 0
1, 17493, Note_on_c, 1, 47, 127
1, 17493, Note_on_c, 1, 71, 127
1, 17519, Note_off_c, 1, 47, 0
1, 17519, Note_off_c, 1, 71, 0
1, 17523, Note_on_c, 1, 44, 127
1, 17523, Note_on_c, 1, 75, 127
1, 17549, Note_off_c, 1, 44, 0
1, 17553, Note_on_c, 1, 49, 127
1, 17579, Note_off_c, 1, 49, 0
1, 17583, Note_on_c, 1, 47, 127
1, 17596, Note_off_c, 1, 75, 0
1, 17598, Note_on_c, 1, 80, 127
1, 17609, Note_off_c, 1, 47, 0
1, 17611, Note_off_c, 1, 80, 0
1, 17613, Note_on_c, 1, 78, 127
1, 17613, Note_on_c, 1, 46, 127
1, 17626, Note_off_c, 1, 78, 0
1, 17628, Note_on_c, 1, 77, 127
1, 17639, Note_off_c, 1, 46, 0
1, 17641, Note_off_c, 1, 77, 0
1, 17643, Note_on_c, 1, 48, 127
1, 17643, Note_on_c, 1, 78, 127
1, 17669, Note_off_c, 1, 48, 0
1, 17673, Note_on_c, 1, 56, 127
1, 17699, Note_off_c, 1, 56, 0
1, 17721, Note_off_c, 1, 78, 0
1, 17733, Note_on_c, 1, 49, 127
1, 17733, Note_on_c, 1, 67, 127
1, 17759, Note_off_c, 1, 49, 0
1, 17759, Note_off_c, 1, 67, 0
1, 17763, Note_on_c, 1, 51, 127
1, 17763, Note_on_c, 1, 68, 127
1, 17789, Note_off_c, 1, 51, 0
1, 17793, Note_on_c, 1, 48, 127
1, 17819, Note_off_c, 1, 48, 0
1, 17823, Note_on_c, 1, 56, 127
1, 17841, Note_off_c, 1, 68, 0
1, 17849, Note_off_c, 1, 56, 0
1, 17853, Note_on_c, 1, 51, 127
1, 17853, Note_on_c, 1, 72, 127
1, 17879, Note_off_c, 1, 51, 0
1, 17879, Note_off_c, 1, 72, 0
1, 17883, Note_on_c, 1, 48, 127
1, 17883, Note_on_c, 1, 75, 127
1, 17909, Note_off_c, 1, 48, 0
1, 17913, Note_on_c, 1, 51, 127
1, 17939, Note_off_c, 1, 51, 0
1, 17943, Note_on_c, 1, 49, 127
1, 17956, Note_off_c, 1, 75, 0
1, 17958, Note_on_c, 1, 78, 127
1, 17969, Note_off_c, 1, 49, 0
1, 17971, Note_off_c, 1, 78, 0
1, 17973, Note_on_c, 1, 77, 127
1, 17973, Note_on_c, 1, 48, 127
1, 17986, Note_off_c, 1, 77, 0
1, 17988, Note_on_c, 1, 75, 127
1, 17999, Note_off_c, 1, 48, 0
1, 18001, Note_off_c, 1, 75, 0
1, 18003, Note_on_c, 1, 49, 127
1, 18003, Note_on_c, 1, 77, 127
1, 18029, Note_off_c, 1, 49, 0
1, 18033, Note_on_c, 1, 56, 127
1, 18059, Note_off_c, 1, 56, 0
1, 18081, Note_off_c, 1, 77, 0
1, 18093, Note_on_c, 1, 51, 127
1, 18093, Note_on_c, 1, 67, 127
1, 18119, Note_off_c, 1, 51, 0
1, 18119, Note_off_c, 1, 67, 0
1, 18123, Note_on_c, 1, 53, 127
1, 18123, Note_on_c, 1, 68, 127
1, 18149, Note_off_c, 1, 53, 0
1, 18153, Note_on_c, 1, 49, 127
1, 18179, Note_off_c, 1, 49, 0
1, 18183, Note_on_c, 1, 56, 127
1, 18201, Note_off_c, 1, 68, 0
1, 18209, Note_off_c, 1, 56, 0
1, 18213, Note_on_c, 1, 53, 127
1, 18213, Note_on_c, 1, 73, 127
1, 18239, Note_off_c, 1, 53, 0
1, 18239, Note_off_c, 1, 73, 0
1, 18243, Note_on_c, 1, 49, 127
1, 18243, Note_on_c, 1, 77, 127
1, 18269, Note_off_c, 1, 49, 0
1, 18273, Note_on_c, 1, 53, 127
1, 18299, Note_off_c, 1, 53, 0
1, 18303, Note_on_c, 1, 51, 127
1, 18316, Note_off_c, 1, 77, 0
1, 18318, Note_on_c, 1, 68, 127
1, 18329, Note_off_c, 1, 51, 0
1, 18331, Note_off_c, 1, 68, 0
1, 18333, Note_on_c, 1, 66, 127
1, 18333, Note_on_c, 1, 49, 127
1, 18346, Note_off_c, 1, 66, 0
1, 18348, Note_on_c, 1, 65, 127
1, 18359, Note_off_c, 1, 49, 0
1, 18361, Note_off_c, 1, 65, 0
1, 18363, Note_on_c, 1, 51, 127
1, 18363, Note_on_c, 1, 66, 127
1, 18389, Note_off_c, 1, 51, 0
1, 18393, Note_on_c, 1, 56, 127
1, 18419, Note_off_c, 1, 56, 0
1, 18441, Note_off_c, 1, 66, 0
1, 18453, Note_on_c, 1, 53, 127
1, 18453, Note_on_c, 1, 70, 127
1, 18479, Note_off_c, 1, 53, 0
1, 18479, Note_off_c, 1, 70, 0
1, 18483, Note_on_c, 1, 54, 127
1, 18483, Note_on_c, 1, 63, 127
1, 18509, Note_off_c, 1, 54, 0
1, 18513, Note_on_c, 1, 51, 127
1, 18539, Note_off_c, 1, 51, 0
1, 18543, Note_on_c, 1, 58, 127
1, 18561, Note_off_c, 1, 63, 0
1, 18569, Note_off_c, 1, 58, 0
1, 18573, Note_on_c, 1, 54, 127
1, 18573, Note_on_c, 1, 73, 127
1, 18599, Note_off_c, 1, 54, 0
1, 18599, Note_off_c, 1, 73, 0
1, 18603, Note_on_c, 1, 51, 127
1, 18603, Note_on_c, 1, 72, 127
1, 18629, Note_off_c, 1, 51, 0
1, 18633, Note_on_c, 1, 54, 127
1, 18659, Note_off_c, 1, 54, 0
1, 18663, Note_on_c, 1, 53, 127
1, 18681, Note_off_c, 1, 72, 0
1, 18689, Note_off_c, 1, 53, 0
1, 18693, Note_on_c, 1, 70, 127
1, 18693, Note_on_c, 1, 51, 127
1, 18706, Note_off_c, 1, 70, 0
1, 18708, Note_on_c, 1, 72, 127
1, 18719, Note_off_c, 1, 51, 0
1, 18721, Note_off_c, 1, 72, 0
1, 18723, Note_on_c, 1, 53, 127
1, 18723, Note_on_c, 1, 73, 127
1, 18749, Note_off_c, 1, 53, 0
1, 18749, Note_off_c, 1, 73, 0
1, 18753, Note_on_c, 1, 56, 127
1, 18753, Note_on_c, 1, 68, 127
1, 18779, Note_off_c, 1, 56, 0
1, 18779, Note_off_c, 1, 68, 0
1, 18783, Note_on_c, 1, 61, 127
1, 18783, Note_on_c, 1, 65, 127
1, 18809, Note_off_c, 1, 61, 0
1, 18809, Note_off_c, 1, 65, 0
1, 18813, Note_on_c, 1, 56, 127
1, 18813, Note_on_c, 1, 66, 127
1, 18839, Note_off_c, 1, 56, 0
1, 18839, Note_off_c, 1, 66, 0
1, 18843, Note_on_c, 1, 53, 127
1, 18843, Note_on_c, 1, 68, 127
1, 18869, Note_off_c, 1, 53, 0
1, 18869, Note_off_c, 1, 68, 0
1, 18873, Note_on_c, 1, 56, 127
1, 18873, Note_on_c, 1, 65, 127
1, 18899, Note_off_c, 1, 56, 0
1, 18899, Note_off_c, 1, 65, 0
1, 18903, Note_on_c, 1, 49, 127
1, 18903, Note_on_c, 1, 73, 127
1, 18929, Note_off_c, 1, 49, 0
1, 18929, Note_off_c, 1, 73, 0
1, 18933, Note_on_c, 1, 53, 127
1, 18933, Note_on_c, 1, 68, 127
1, 18959, Note_off_c, 1, 53, 0
1, 18959, Note_off_c, 1, 68, 0
1, 18963, Note_on_c, 1, 56, 127
1, 18963, Note_on_c, 1, 65, 127
1, 18989, Note_off_c, 1, 56, 0
1, 18989, Note_off_c, 1, 65, 0
1, 18993, Note_on_c, 1, 49, 127
1, 18993, Note_on_c, 1, 66, 127
1, 19019, Note_off_c, 1, 49, 0
1, 19019, Note_off_c, 1, 66, 0
1, 19023, Note_on_c, 1, 56, 127
1, 19023, Note_on_c, 1, 65, 127
1, 19049, Note_off_c, 1, 56, 0
1, 19049, Note_off_c, 1, 65, 0
1, 19053, Note_on_c, 1, 58, 127
1, 19053, Note_on_c, 1, 63, 127
1, 19079, Note_off_c, 1, 58, 0
1, 19079, Note_off_c, 1, 63, 0
1, 19083, Note_on_c, 1, 61, 127
1, 19083, Note_on_c, 1, 59, 127
1, 19109, Note_off_c, 1, 61, 0
1, 19113, Note_on_c, 1, 68, 127
1, 19139, Note_off_c, 1, 68, 0
1, 19143, Note_on_c, 1, 65, 127
1, 19156, Note_off_c, 1, 59, 0
1, 19169, Note_off_c, 1, 65, 0
1, 19173, Note_on_c, 1, 59, 127
1, 19173, Note_on_c, 1, 66, 127
1, 19186, Note_off_c, 1, 59, 0
1, 19188, Note_on_c, 1, 58, 127
1, 19199, Note_off_c, 1, 66, 0
1, 19201, Note_off_c, 1, 58, 0
1, 19203, Note_on_c, 1, 68, 127
1, 19203, Note_on_c, 1, 59, 127
1, 19229, Note_off_c, 1, 68, 0
1, 19233, Note_on_c, 1, 65, 127
1, 19259, Note_off_c, 1, 65, 0
1, 19263, Note_on_c, 1, 73, 127
1, 19289, Note_off_c, 1, 73, 0
1, 19383, Note_on_c, 1, 66, 127
1, 19396, Note_off_c, 1, 59, 0
1, 19398, Note_on_c, 1, 56, 127
1, 19409, Note_off_c, 1, 66, 0
1, 19411, Note_off_c, 1, 56, 0
1, 19413, Note_on_c, 1, 58, 127
1, 19413, Note_on_c, 1, 65, 127
1, 19426, Note_off_c, 1, 58, 0
1, 19428, Note_on_c, 1, 59, 127
1, 19439, Note_off_c, 1, 65, 0
1, 19441, Note_off_c, 1, 59, 0
1, 19443, Note_on_c, 1, 58, 127
1, 19443, Note_on_c, 1, 66, 127
1, 19469, Note_off_c, 1, 58, 0
1, 19469, Note_off_c, 1, 66, 0
1, 19473, Note_on_c, 1, 54, 127
1, 19473, Note_on_c, 1, 73, 127
1, 19499, Note_off_c, 1, 54, 0
1, 19499, Note_off_c, 1, 73, 0
1, 19503, Note_on_c, 1, 58, 127
1, 19503, Note_on_c, 1, 66, 127
1, 19529, Note_off_c, 1, 58, 0
1, 19529, Note_off_c, 1, 66, 0
1, 19533, Note_on_c, 1, 56, 127
1, 19533, Note_on_c, 1, 68, 127
1, 19559, Note_off_c, 1, 56, 0
1, 19559, Note_off_c, 1, 68, 0
1, 19563, Note_on_c, 1, 54, 127
1, 19563, Note_on_c, 1, 70, 127
1, 19589, Note_off_c, 1, 54, 0
1, 19589, Note_off_c, 1, 70, 0
1, 19593, Note_on_c, 1, 58, 127
1, 19593, Note_on_c, 1, 66, 127
1, 19619, Note_off_c, 1, 58, 0
1, 19619, Note_off_c, 1, 66, 0
1, 19623, Note_on_c, 1, 49, 127
1, 19623, Note_on_c, 1, 73, 127
1, 19649, Note_off_c, 1, 49, 0
1, 19649, Note_off_c, 1, 73, 0
1, 19653, Note_on_c, 1, 54, 127
1, 19653, Note_on_c, 1, 70, 127
1, 19679, Note_off_c, 1, 54, 0
1, 19679, Note_off_c, 1, 70, 0
1, 19683, Note_on_c, 1, 58, 127
1, 19683, Note_on_c, 1, 66, 127
1, 19709, Note_off_c, 1, 58, 0
1, 19709, Note_off_c, 1, 66, 0
1, 19713, Note_on_c, 1, 54, 127
1, 19713, Note_on_c, 1, 70, 127
1, 19739, Note_off_c, 1, 54, 0
1, 19739, Note_off_c, 1, 70, 0
1, 19743, Note_on_c, 1, 56, 127
1, 19743, Note_on_c, 1, 68, 127
1, 19769, Note_off_c, 1, 56, 0
1, 19769, Note_off_c, 1, 68, 0
1, 19773, Note_on_c, 1, 58, 127
1, 19773, Note_on_c, 1, 66, 127
1, 19799, Note_off_c, 1, 58, 0
1, 19799, Note_off_c, 1, 66, 0
1, 19803, Note_on_c, 1, 68, 127
1, 19803, Note_on_c, 1, 53, 127
1, 19829, Note_off_c, 1, 68, 0
1, 19833, Note_on_c, 1, 73, 127
1, 19859, Note_off_c, 1, 73, 0
1, 19881, Note_off_c, 1, 53, 0
1, 19893, Note_on_c, 1, 61, 127
1, 19893, Note_on_c, 1, 70, 127
1, 19919, Note_off_c, 1, 61, 0
1, 19919, Note_off_c, 1, 70, 0
1, 19923, Note_on_c, 1, 71, 127
1, 19923, Note_on_c, 1, 49, 127
1, 19949, Note_off_c, 1, 71, 0
1, 19953, Note_on_c, 1, 68, 127
1, 19979, Note_off_c, 1, 68, 0
1, 19983, Note_on_c, 1, 75, 127
1, 19996, Note_off_c, 1, 49, 0
1, 20009, Note_off_c, 1, 75, 0
1, 20013, Note_on_c, 1, 51, 127
1, 20013, Note_on_c, 1, 71, 127
1, 20026, Note_off_c, 1, 51, 0
1, 20028, Note_on_c, 1, 53, 127
1, 20039, Note_off_c, 1, 71, 0
1, 20041, Note_off_c, 1, 53, 0
1, 20043, Note_on_c, 1, 68, 127
1, 20043, Note_on_c, 1, 53, 127
1, 20069, Note_off_c, 1, 68, 0
1, 20073, Note_on_c, 1, 71, 127
1, 20099, Note_off_c, 1, 71, 0
1, 20103, Note_on_c, 1, 70, 127
1, 20121, Note_off_c, 1, 53, 0
1, 20129, Note_off_c, 1, 70, 0
1, 20133, Note_on_c, 1, 51, 127
1, 20133, Note_on_c, 1, 68, 127
1, 20146, Note_off_c, 1, 51, 0
1, 20148, Note_on_c, 1, 53, 127
1, 20159, Note_off_c, 1, 68, 0
1, 20161, Note_off_c, 1, 53, 0
1, 20163, Note_on_c, 1, 70, 127
1, 20163, Note_on_c, 1, 54, 127
1, 20189, Note_off_c, 1, 70, 0
1, 20193, Note_on_c, 1, 73, 127
1, 20206, Note_off_c, 1, 73, 0
1, 20208, Note_on_c, 1, 71, 127
1, 20221, Note_off_c, 1, 71, 0
1, 20238, Note_on_c, 1, 68, 127
1, 20241, Note_off_c, 1, 54, 0
1, 20251, Note_off_c, 1, 68, 0
1, 20253, Note_on_c, 1, 66, 127
1, 20253, Note_on_c, 1, 56, 127
1, 20266, Note_off_c, 1, 66, 0
1, 20268, Note_on_c, 1, 65, 127
1, 20279, Note_off_c, 1, 56, 0
1, 20281, Note_off_c, 1, 65, 0
1, 20283, Note_on_c, 1, 58, 127
1, 20283, Note_on_c, 1, 66, 127
1, 20361, Note_off_c, 1, 58, 0
1, 20373, Note_on_c, 1, 56, 127
1, 20399, Note_off_c, 1, 56, 0
1, 20448, Note_off_c, 1, 66, 0
1, 20493, Note_on_c, 1, 54, 127
1, 20493, Note_on_c, 1, 78, 127
1, 20519, Note_off_c, 1, 54, 0
1, 20519, Note_off_c, 1, 78, 0
1, 20523, Note_on_c, 1, 61, 127
1, 20523, Note_on_c, 1, 77, 127
1, 20601, Note_off_c, 1, 61, 0
1, 20601, Note_off_c, 1, 77, 0
1, 20613, Note_on_c, 1, 78, 127
1, 20613, Note_on_c, 1, 59, 127
1, 20626, Note_off_c, 1, 78, 0
1, 20628, Note_on_c, 1, 80, 127
1, 20639, Note_off_c, 1, 59, 0
1, 20641, Note_off_c, 1, 80, 0
1, 20643, Note_on_c, 1, 58, 127
1, 20643, Note_on_c, 1, 73, 127
1, 20721, Note_off_c, 1, 58, 0
1, 20733, Note_on_c, 1, 63, 127
1, 20759, Note_off_c, 1, 63, 0
1, 20763, Note_on_c, 1, 61, 127
1, 20808, Note_off_c, 1, 73, 0
1, 20841, Note_off_c, 1, 61, 0
1, 20853, Note_on_c, 1, 63, 127
1, 20853, Note_on_c, 1, 78, 127
1, 20879, Note_off_c, 1, 63, 0
1, 20879, Note_off_c, 1, 78, 0
1, 20883, Note_on_c, 1, 56, 127
1, 20883, Note_on_c, 1, 71, 127
1, 20961, Note_off_c, 1, 56, 0
1, 20961, Note_off_c, 1, 71, 0
1, 20973, Note_on_c, 1, 58, 127
1, 20973, Note_on_c, 1, 75, 127
1, 20999, Note_off_c, 1, 58, 0
1, 20999, Note_off_c, 1, 75, 0
1, 21003, Note_on_c, 1, 59, 127
1, 21003, Note_on_c, 1, 68, 127
1, 21081, Note_off_c, 1, 59, 0
1, 21081, Note_off_c, 1, 68, 0
1, 21093, Note_on_c, 1, 56, 127
1, 21093, Note_on_c, 1, 71, 127
1, 21119, Note_off_c, 1, 56, 0
1, 21119, Note_off_c, 1, 71, 0
1, 21123, Note_on_c, 1, 61, 127
1, 21123, Note_on_c, 1, 65, 127
1, 21201, Note_off_c, 1, 61, 0
1, 21201, Note_off_c, 1, 65, 0
1, 21213, Note_on_c, 1, 49, 127
1, 21213, Note_on_c, 1, 73, 127
1, 21239, Note_off_c, 1, 49, 0
1, 21239, Note_off_c, 1, 73, 0
1, 21243, Note_on_c, 1, 70, 127
1, 21243, Note_on_c, 1, 54, 127
1, 21269, Note_off_c, 1, 70, 0
1, 21273, Note_on_c, 1, 73, 127
1, 21299, Note_off_c, 1, 73, 0
1, 21303, Note_on_c, 1, 66, 127
1, 21321, Note_off_c, 1, 54, 0
1, 21329, Note_off_c, 1, 66, 0
1, 21333, Note_on_c, 1, 52, 127
1, 21333, Note_on_c, 1, 68, 127
1, 21346, Note_off_c, 1, 52, 0
1, 21348, Note_on_c, 1, 51, 127
1, 21359, Note_off_c, 1, 68, 0
1, 21361, Note_off_c, 1, 51, 0
1, 21363, Note_on_c, 1, 70, 127
1, 21363, Note_on_c, 1, 52, 127
1, 21389, Note_off_c, 1, 70, 0
1, 21393, Note_on_c, 1, 66, 127
1, 21419, Note_off_c, 1, 66, 0
1, 21423, Note_on_c, 1, 73, 127
1, 21441, Note_off_c, 1, 52, 0
1, 21449, Note_off_c, 1, 73, 0
1, 21453, Note_on_c, 1, 49, 127
1, 21453, Note_on_c, 1, 70, 127
1, 21479, Note_off_c, 1, 49, 0
1, 21479, Note_off_c, 1, 70, 0
1, 21483, Note_on_c, 1, 66, 127
1, 21483, Note_on_c, 1, 46, 127
1, 21509, Note_off_c, 1, 66, 0
1, 21513, Note_on_c, 1, 76, 127
1, 21539, Note_off_c, 1, 76, 0
1, 21543, Note_on_c, 1, 75, 127
1, 21561, Note_off_c, 1, 46, 0
1, 21569, Note_off_c, 1, 75, 0
1, 21573, Note_on_c, 1, 42, 127
1, 21573, Note_on_c, 1, 73, 127
1, 21599, Note_off_c, 1, 42, 0
1, 21599, Note_off_c, 1, 73, 0
1, 21603, Note_on_c, 1, 75, 127
1, 21603, Note_on_c, 1, 47, 127
1, 21629, Note_off_c, 1, 75, 0
1, 21633, Note_on_c, 1, 78, 127
1, 21659, Note_off_c, 1, 78, 0
1, 21663, Note_on_c, 1, 71, 127
1, 21681, Note_off_c, 1, 47, 0
1, 21689, Note_off_c, 1, 71, 0
1, 21693, Note_on_c, 1, 54, 127
1, 21693, Note_on_c, 1, 73, 127
1, 21719, Note_off_c, 1, 54, 0
1, 21719, Note_off_c, 1, 73, 0
1, 21723, Note_on_c, 1, 75, 127
1, 21723, Note_on_c, 1, 59, 127
1, 21749, Note_off_c, 1, 75, 0
1, 21753, Note_on_c, 1, 71, 127
1, 21779, Note_off_c, 1, 71, 0
1, 21783, Note_on_c, 1, 78, 127
1, 21809, Note_off_c, 1, 78, 0
1, 21828, Note_off_c, 1, 59, 0
1, 21843, Note_on_c, 1, 70, 127
1, 21869, Note_off_c, 1, 70, 0
1, 21873, Note_on_c, 1, 73, 127
1, 21899, Note_off_c, 1, 73, 0
1, 21903, Note_on_c, 1, 71, 127
1, 21929, Note_off_c, 1, 71, 0
1, 21933, Note_on_c, 1, 70, 127
1, 21959, Note_off_c, 1, 70, 0
1, 21963, Note_on_c, 1, 68, 127
1, 21963, Note_on_c, 1, 48, 127
1, 21989, Note_off_c, 1, 68, 0
1, 21993, Note_on_c, 1, 75, 127
1, 22019, Note_off_c, 1, 75, 0
1, 22041, Note_off_c, 1, 48, 0
1, 22053, Note_on_c, 1, 51, 127
1, 22053, Note_on_c, 1, 70, 127
1, 22066, Note_off_c, 1, 51, 0
1, 22068, Note_on_c, 1, 53, 127
1, 22079, Note_off_c, 1, 70, 0
1, 22081, Note_off_c, 1, 53, 0
1, 22083, Note_on_c, 1, 72, 127
1, 22083, Note_on_c, 1, 54, 127
1, 22109, Note_off_c, 1, 72, 0
1, 22113, Note_on_c, 1, 68, 127
1, 22139, Note_off_c, 1, 68, 0
1, 22143, Note_on_c, 1, 75, 127
1, 22161, Note_off_c, 1, 54, 0
1, 22169, Note_off_c, 1, 75, 0
1, 22173, Note_on_c, 1, 51, 127
1, 22173, Note_on_c, 1, 72, 127
1, 22199, Note_off_c, 1, 51, 0
1, 22199, Note_off_c, 1, 72, 0
1, 22203, Note_on_c, 1, 68, 127
1, 22203, Note_on_c, 1, 48, 127
1, 22229, Note_off_c, 1, 68, 0
1, 22233, Note_on_c, 1, 78, 127
1, 22259, Note_off_c, 1, 78, 0
1, 22263, Note_on_c, 1, 77, 127
1, 22281, Note_off_c, 1, 48, 0
1, 22289, Note_off_c, 1, 77, 0
1, 22293, Note_on_c, 1, 44, 127
1, 22293, Note_on_c, 1, 75, 127
1, 22319, Note_off_c, 1, 44, 0
1, 22319, Note_off_c, 1, 75, 0
1, 22323, Note_on_c, 1, 77, 127
1, 22323, Note_on_c, 1, 49, 127
1, 22349, Note_off_c, 1, 77, 0
1, 22353, Note_on_c, 1, 80, 127
1, 22379, Note_off_c, 1, 80, 0
1, 22383, Note_on_c, 1, 73, 127
1, 22401, Note_off_c, 1, 49, 0
1, 22409, Note_off_c, 1, 73, 0
1, 22413, Note_on_c, 1, 56, 127
1, 22413, Note_on_c, 1, 75, 127
1, 22439, Note_off_c, 1, 56, 0
1, 22439, Note_off_c, 1, 75, 0
1, 22443, Note_on_c, 1, 77, 127
1, 22443, Note_on_c, 1, 61, 127
1, 22469, Note_off_c, 1, 77, 0
1, 22473, Note_on_c, 1, 73, 127
1, 22499, Note_off_c, 1, 73, 0
1, 22503, Note_on_c, 1, 80, 127
1, 22529, Note_off_c, 1, 80, 0
1, 22548, Note_off_c, 1, 61, 0
1, 22563, Note_on_c, 1, 71, 127
1, 22589, Note_off_c, 1, 71, 0
1, 22593, Note_on_c, 1, 75, 127
1, 22619, Note_off_c, 1, 75, 0
1, 22623, Note_on_c, 1, 73, 127
1, 22649, Note_off_c, 1, 73, 0
1, 22653, Note_on_c, 1, 71, 127
1, 22679, Note_off_c, 1, 71, 0
1, 22683, Note_on_c, 1, 70, 127
1, 22683, Note_on_c, 1, 50, 127
1, 22709, Note_off_c, 1, 70, 0
1, 22713, Note_on_c, 1, 77, 127
1, 22739, Note_off_c, 1, 77, 0
1, 22761, Note_off_c, 1, 50, 0
1, 22773, Note_on_c, 1, 53, 127
1, 22773, Note_on_c, 1, 72, 127
1, 22786, Note_off_c, 1, 53, 0
1, 22788, Note_on_c, 1, 54, 127
1, 22799, Note_off_c, 1, 72, 0
1, 22801, Note_off_c, 1, 54, 0
1, 22803, Note_on_c, 1, 74, 127
1, 22803, Note_on_c, 1, 56, 127
1, 22829, Note_off_c, 1, 74, 0
1, 22833, Note_on_c, 1, 70, 127
1, 22859, Note_off_c, 1, 70, 0
1, 22863, Note_on_c, 1, 77, 127
1, 22881, Note_off_c, 1, 56, 0
1, 22889, Note_off_c, 1, 77, 0
1, 22893, Note_on_c, 1, 53, 127
1, 22893, Note_on_c, 1, 74, 127
1, 22919, Note_off_c, 1, 53, 0
1, 22919, Note_off_c, 1, 74, 0
1, 22923, Note_on_c, 1, 70, 127
1, 22923, Note_on_c, 1, 50, 127
1, 22949, Note_off_c, 1, 70, 0
1, 22953, Note_on_c, 1, 80, 127
1, 22979, Note_off_c, 1, 80, 0
1, 22983, Note_on_c, 1, 78, 127
1, 23001, Note_off_c, 1, 50, 0
1, 23009, Note_off_c, 1, 78, 0
1, 23013, Note_on_c, 1, 46, 127
1, 23013, Note_on_c, 1, 77, 127
1, 23039, Note_off_c, 1, 46, 0
1, 23039, Note_off_c, 1, 77, 0
1, 23043, Note_on_c, 1, 78, 127
1, 23043, Note_on_c, 1, 51, 127
1, 23121, Note_off_c, 1, 78, 0
1, 23133, Note_on_c, 1, 75, 127
1, 23159, Note_off_c, 1, 75, 0
1, 23163, Note_on_c, 1, 83, 127
1, 23236, Note_off_c, 1, 51, 0
1, 23253, Note_on_c, 1, 53, 127
1, 23266, Note_off_c, 1, 53, 0
1, 23268, Note_on_c, 1, 54, 127
1, 23281, Note_off_c, 1, 54, 0
1, 23283, Note_on_c, 1, 56, 127
1, 23356, Note_off_c, 1, 83, 0
1, 23358, Note_on_c, 1, 82, 127
1, 23361, Note_off_c, 1, 56, 0
1, 23371, Note_off_c, 1, 82, 0
1, 23373, Note_on_c, 1, 80, 127
1, 23373, Note_on_c, 1, 59, 127
1, 23386, Note_off_c, 1, 80, 0
1, 23388, Note_on_c, 1, 78, 127
1, 23399, Note_off_c, 1, 59, 0
1, 23401, Note_off_c, 1, 78, 0
1, 23403, Note_on_c, 1, 80, 127
1, 23403, Note_on_c, 1, 53, 127
1, 23481, Note_off_c, 1, 80, 0
1, 23493, Note_on_c, 1, 83, 127
1, 23519, Note_off_c, 1, 83, 0
1, 23523, Note_on_c, 1, 73, 127
1, 23596, Note_off_c, 1, 53, 0
1, 23598, Note_on_c, 1, 54, 127
1, 23611, Note_off_c, 1, 54, 0
1, 23628, Note_on_c, 1, 51, 127
1, 23641, Note_off_c, 1, 51, 0
1, 23669, Note_off_c, 1, 73, 0
1, 23673, Note_on_c, 1, 75, 127
1, 23686, Note_off_c, 1, 75, 0
1, 23688, Note_on_c, 1, 77, 127
1, 23701, Note_off_c, 1, 77, 0
1, 23703, Note_on_c, 1, 78, 127
1, 23729, Note_off_c, 1, 78, 0
1, 23733, Note_on_c, 1, 49, 127
1, 23733, Note_on_c, 1, 80, 127
1, 23759, Note_off_c, 1, 49, 0
1, 23759, Note_off_c, 1, 80, 0
1, 23763, Note_on_c, 1, 54, 127
1, 23763, Note_on_c, 1, 82, 127
1, 23841, Note_off_c, 1, 54, 0
1, 23841, Note_off_c, 1, 82, 0
1, 23853, Note_on_c, 1, 59, 127
1, 23853, Note_on_c, 1, 80, 127
1, 23879, Note_off_c, 1, 59, 0
1, 23879, Note_off_c, 1, 80, 0
1, 23883, Note_on_c, 1, 61, 127
1, 23883, Note_on_c, 1, 77, 127
1, 23956, Note_off_c, 1, 61, 0
1, 23958, Note_on_c, 1, 56, 127
1, 23971, Note_off_c, 1, 56, 0
1, 23973, Note_on_c, 1, 58, 127
1, 23986, Note_off_c, 1, 58, 0
1, 23988, Note_on_c, 1, 59, 127
1, 24001, Note_off_c, 1, 59, 0
1, 24003, Note_on_c, 1, 49, 127
1, 24048, Note_off_c, 1, 77, 0
1, 24063, Note_on_c, 1, 78, 127
1, 24108, Note_off_c, 1, 49, 0
1, 24115, Note_off_c, 1, 78, 0
1, 24123, Note_on_c, 1, 78, 127
1, 24123, Note_on_c, 1, 58, 127
1, 24123, Note_on_c, 1, 54, 127
1, 24149, Note_off_c, 1, 78, 0
1, 24153, Note_on_c, 1, 82, 127
1, 24175, Note_off_c, 1, 58, 0
1, 24179, Note_off_c, 1, 82, 0
1, 24183, Note_on_c, 1, 73, 127
1, 24201, Note_off_c, 1, 54, 0
1, 24209, Note_off_c, 1, 73, 0
1, 24213, Note_on_c, 1, 61, 127
1, 24213, Note_on_c, 1, 77, 127
1, 24239, Note_off_c, 1, 61, 0
1, 24239, Note_off_c, 1, 77, 0
1, 24243, Note_on_c, 1, 78, 127
1, 24243, Note_on_c, 1, 61, 127
1, 24269, Note_off_c, 1, 78, 0
1, 24273, Note_on_c, 1, 73, 127
1, 24299, Note_off_c, 1, 73, 0
1, 24303, Note_on_c, 1, 82, 127
1, 24321, Note_off_c, 1, 61, 0
1, 24329, Note_off_c, 1, 82, 0
1, 24333, Note_on_c, 1, 61, 127
1, 24333, Note_on_c, 1, 78, 127
1, 24359, Note_off_c, 1, 61, 0
1, 24359, Note_off_c, 1, 78, 0
1, 24363, Note_on_c, 1, 73, 127
1, 24363, Note_on_c, 1, 58, 127
1, 24389, Note_off_c, 1, 73, 0
1, 24393, Note_on_c, 1, 80, 127
1, 24419, Note_off_c, 1, 80, 0
1, 24423, Note_on_c, 1, 78, 127
1, 24441, Note_off_c, 1, 58, 0
1, 24449, Note_off_c, 1, 78, 0
1, 24453, Note_on_c, 1, 61, 127
1, 24453, Note_on_c, 1, 77, 127
1, 24479, Note_off_c, 1, 61, 0
1, 24479, Note_off_c, 1, 77, 0
1, 24483, Note_on_c, 1, 78, 127
1, 24483, Note_on_c, 1, 52, 127
1, 24509, Note_off_c, 1, 78, 0
1, 24513, Note_on_c, 1, 73, 127
1, 24539, Note_off_c, 1, 73, 0
1, 24543, Note_on_c, 1, 70, 127
1, 24561, Note_off_c, 1, 52, 0
1, 24569, Note_off_c, 1, 70, 0
1, 24573, Note_on_c, 1, 61, 127
1, 24573, Note_on_c, 1, 71, 127
1, 24599, Note_off_c, 1, 61, 0
1, 24599, Note_off_c, 1, 71, 0
1, 24603, Note_on_c, 1, 73, 127
1, 24603, Note_on_c, 1, 58, 127
1, 24629, Note_off_c, 1, 73, 0
1, 24633, Note_on_c, 1, 70, 127
1, 24659, Note_off_c, 1, 70, 0
1, 24663, Note_on_c, 1, 78, 127
1, 24681, Note_off_c, 1, 58, 0
1, 24689, Note_off_c, 1, 78, 0
1, 24693, Note_on_c, 1, 52, 127
1, 24693, Note_on_c, 1, 73, 127
1, 24719, Note_off_c, 1, 52, 0
1, 24719, Note_off_c, 1, 73, 0
1, 24723, Note_on_c, 1, 70, 127
1, 24723, Note_on_c, 1, 52, 127
1, 24749, Note_off_c, 1, 70, 0
1, 24753, Note_on_c, 1, 71, 127
1, 24779, Note_off_c, 1, 71, 0
1, 24801, Note_off_c, 1, 52, 0
1, 24813, Note_on_c, 1, 51, 127
1, 24813, Note_on_c, 1, 68, 127
1, 24839, Note_off_c, 1, 51, 0
1, 24839, Note_off_c, 1, 68, 0
1, 24843, Note_on_c, 1, 66, 127
1, 24843, Note_on_c, 1, 51, 127
1, 24869, Note_off_c, 1, 66, 0
1, 24873, Note_on_c, 1, 69, 127
1, 24899, Note_off_c, 1, 69, 0
1, 24903, Note_on_c, 1, 60, 127
1, 24921, Note_off_c, 1, 51, 0
1, 24929, Note_off_c, 1, 60, 0
1, 24933, Note_on_c, 1, 57, 127
1, 24933, Note_on_c, 1, 65, 127
1, 24959, Note_off_c, 1, 57, 0
1, 24959, Note_off_c, 1, 65, 0
1, 24963, Note_on_c, 1, 66, 127
1, 24963, Note_on_c, 1, 57, 127
1, 24989, Note_off_c, 1, 66, 0
1, 24993, Note_on_c, 1, 60, 127
1, 25019, Note_off_c, 1, 60, 0
1, 25023, Note_on_c, 1, 69, 127
1, 25041, Note_off_c, 1, 57, 0
1, 25049, Note_off_c, 1, 69, 0
1, 25053, Note_on_c, 1, 57, 127
1, 25053, Note_on_c, 1, 66, 127
1, 25079, Note_off_c, 1, 57, 0
1, 25079, Note_off_c, 1, 66, 0
1, 25083, Note_on_c, 1, 60, 127
1, 25083, Note_on_c, 1, 54, 127
1, 25109, Note_off_c, 1, 60, 0
1, 25113, Note_on_c, 1, 68, 127
1, 25139, Note_off_c, 1, 68, 0
1, 25143, Note_on_c, 1, 66, 127
1, 25161, Note_off_c, 1, 54, 0
1, 25169, Note_off_c, 1, 66, 0
1, 25173, Note_on_c, 1, 57, 127
1, 25173, Note_on_c, 1, 65, 127
1, 25199, Note_off_c, 1, 57, 0
1, 25199, Note_off_c, 1, 65, 0
1, 25203, Note_on_c, 1, 66, 127
1, 25203, Note_on_c, 1, 49, 127
1, 25229, Note_off_c, 1, 66, 0
1, 25233, Note_on_c, 1, 69, 127
1, 25259, Note_off_c, 1, 69, 0
1, 25263, Note_on_c, 1, 73, 127
1, 25281, Note_off_c, 1, 49, 0
1, 25289, Note_off_c, 1, 73, 0
1, 25293, Note_on_c, 1, 53, 127
1, 25293, Note_on_c, 1, 71, 127
1, 25319, Note_off_c, 1, 53, 0
1, 25319, Note_off_c, 1, 71, 0
1, 25323, Note_on_c, 1, 69, 127
1, 25323, Note_on_c, 1, 54, 127
1, 25349, Note_off_c, 1, 69, 0
1, 25353, Note_on_c, 1, 73, 127
1, 25379, Note_off_c, 1, 73, 0
1, 25383, Note_on_c, 1, 66, 127
1, 25401, Note_off_c, 1, 54, 0
1, 25409, Note_off_c, 1, 66, 0
1, 25413, Note_on_c, 1, 49, 127
1, 25413, Note_on_c, 1, 69, 127
1, 25439, Note_off_c, 1, 49, 0
1, 25439, Note_off_c, 1, 69, 0
1, 25443, Note_on_c, 1, 73, 127
1, 25443, Note_on_c, 1, 49, 127
1, 25469, Note_off_c, 1, 73, 0
1, 25473, Note_on_c, 1, 69, 127
1, 25499, Note_off_c, 1, 69, 0
1, 25521, Note_off_c, 1, 49, 0
1, 25533, Note_on_c, 1, 48, 127
1, 25533, Note_on_c, 1, 77, 127
1, 25559, Note_off_c, 1, 48, 0
1, 25559, Note_off_c, 1, 77, 0
1, 25563, Note_on_c, 1, 78, 127
1, 25563, Note_on_c, 1, 48, 127
1, 25589, Note_off_c, 1, 78, 0
1, 25593, Note_on_c, 1, 81, 127
1, 25619, Note_off_c, 1, 81, 0
1, 25623, Note_on_c, 1, 75, 127
1, 25641, Note_off_c, 1, 48, 0
1, 25649, Note_off_c, 1, 75, 0
1, 25653, Note_on_c, 1, 60, 127
1, 25653, Note_on_c, 1, 77, 127
1, 25679, Note_off_c, 1, 60, 0
1, 25679, Note_off_c, 1, 77, 0
1, 25683, Note_on_c, 1, 78, 127
1, 25683, Note_on_c, 1, 60, 127
1, 25709, Note_off_c, 1, 78, 0
1, 25713, Note_on_c, 1, 75, 127
1, 25739, Note_off_c, 1, 75, 0
1, 25743, Note_on_c, 1, 81, 127
1, 25761, Note_off_c, 1, 60, 0
1, 25769, Note_off_c, 1, 81, 0
1, 25773, Note_on_c, 1, 63, 127
1, 25773, Note_on_c, 1, 78, 127
1, 25799, Note_off_c, 1, 63, 0
1, 25799, Note_off_c, 1, 78, 0
1, 25803, Note_on_c, 1, 75, 127
1, 25803, Note_on_c, 1, 56, 127
1, 25829, Note_off_c, 1, 75, 0
1, 25833, Note_on_c, 1, 78, 127
1, 25859, Note_off_c, 1, 78, 0
1, 25863, Note_on_c, 1, 77, 127
1, 25881, Note_off_c, 1, 56, 0
1, 25889, Note_off_c, 1, 77, 0
1, 25893, Note_on_c, 1, 54, 127
1, 25893, Note_on_c, 1, 75, 127
1, 25919, Note_off_c, 1, 54, 0
1, 25919, Note_off_c, 1, 75, 0
1, 25923, Note_on_c, 1, 47, 127
1, 25923, Note_on_c, 1, 73, 127
1, 25923, Note_on_c, 1, 77, 127
1, 25923, Note_on_c, 1, 68, 127
1, 25923, Note_on_c, 1, 53, 127
1, 25923, Note_on_c, 1, 80, 127
1, 26028, Note_off_c, 1, 47, 0
1, 26028, Note_off_c, 1, 73, 0
1, 26028, Note_off_c, 1, 77, 0
1, 26028, Note_off_c, 1, 68, 0
1, 26028, Note_off_c, 1, 53, 0
1, 26028, Note_off_c, 1, 80, 0
1, 26133, Note_on_c, 1, 59, 127
1, 26133, Note_on_c, 1, 68, 127
1, 26133, Note_on_c, 1, 77, 127
1, 26133, Note_on_c, 1, 73, 127
1, 26159, Note_off_c, 1, 59, 0
1, 26159, Note_off_c, 1, 68, 0
1, 26159, Note_off_c, 1, 77, 0
1, 26159, Note_off_c, 1, 73, 0
1, 26163, Note_on_c, 1, 73, 127
1, 26163, Note_on_c, 1, 66, 127
1, 26163, Note_on_c, 1, 78, 127
1, 26163, Note_on_c, 1, 58, 127
1, 26189, Note_off_c, 1, 73, 0
1, 26189, Note_off_c, 1, 66, 0
1, 26202, Note_off_c, 1, 78, 0
1, 26208, Note_on_c, 1, 77, 127
1, 26214, Note_off_c, 1, 77, 0
1, 26215, Note_off_c, 1, 58, 0
1, 26215, Note_on_c, 1, 75, 127
1, 26222, Note_off_c, 1, 75, 0
1, 26223, Note_on_c, 1, 73, 127
1, 26236, Note_off_c, 1, 73, 0
1, 26238, Note_on_c, 1, 71, 127
1, 26251, Note_off_c, 1, 71, 0
1, 26253, Note_on_c, 1, 70, 127
1, 26266, Note_off_c, 1, 70, 0
1, 26268, Note_on_c, 1, 68, 127
1, 26281, Note_off_c, 1, 68, 0
1, 26283, Note_on_c, 1, 66, 127
1, 26361, Note_off_c, 1, 66, 0
1, 26373, Note_on_c, 1, 57, 127
1, 26373, Note_on_c, 1, 66, 127
1, 26373, Note_on_c, 1, 75, 127
1, 26373, Note_on_c, 1, 48, 127
1, 26399, Note_off_c, 1, 57, 0
1, 26399, Note_off_c, 1, 66, 0
1, 26399, Note_off_c, 1, 75, 0
1, 26399, Note_off_c, 1, 48, 0
1, 26403, Note_on_c, 1, 56, 127
1, 26403, Note_on_c, 1, 66, 127
1, 26403, Note_on_c, 1, 61, 127
1, 26403, Note_on_c, 1, 49, 127
1, 26481, Note_off_c, 1, 56, 0
1, 26493, Note_on_c, 1, 58, 127
1, 26508, Note_off_c, 1, 66, 0
1, 26519, Note_off_c, 1, 58, 0
1, 26523, Note_on_c, 1, 65, 127
1, 26523, Note_on_c, 1, 59, 127
1, 26601, Note_off_c, 1, 65, 0
1, 26628, Note_off_c, 1, 61, 0
1, 26628, Note_off_c, 1, 49, 0
1, 26628, Note_off_c, 1, 59, 0
1, 26643, Note_on_c, 1, 42, 127
1, 26643, Note_on_c, 1, 58, 127
1, 26643, Note_on_c, 1, 61, 127
1, 26643, Note_on_c, 1, 66, 127
1, 26988, Note_off_c, 1, 42, 0
1, 26988, Note_off_c, 1, 58, 0
1, 26988, Note_off_c, 1, 61, 0
1, 26988, Note_off_c, 1, 66, 0
1, 26988, End_track
0, 0, End_of_file