0, 0, Header, 1, 1, 480
1, 0, Start_track
1, 0, Title_t, "Test"
1, 0, Tempo, 500000
1, 0, Instrument_name_t, "Church Organ"
1, 120, Note_on_c, 1, 66, 127
1, 154, Note_off_c, 1, 66, 0
1, 180, Note_on_c, 1, 62, 127
1, 214, Note_off_c, 1, 62, 0
1, 240, Note_on_c, 1, 59, 127
1, 274, Note_off_c, 1, 59, 0
1, 300, Note_on_c, 1, 58, 127
1, 334, Note_off_c, 1, 58, 0
1, 360, Note_on_c, 1, 59, 127
1, 419, Note_off_c, 1, 59, 0
1, 420, Note_on_c, 1, 61, 127
1, 450, Note_on_c, 1, 62, 127
1, 454, Note_off_c, 1, 61, 0
1, 480, Note_on_c, 1, 64, 127
1, 484, Note_off_c, 1, 62, 0
1, 510, Note_on_c, 1, 66, 127
1, 514, Note_off_c, 1, 64, 0
1, 540, Note_on_c, 1, 67, 127
1, 544, Note_off_c, 1, 66, 0
1, 574, Note_off_c, 1, 67, 0
1, 600, Note_on_c, 1, 55, 127
1, 634, Note_off_c, 1, 55, 0
1, 660, Note_on_c, 1, 67, 127
1, 694, Note_off_c, 1, 67, 0
1, 720, Note_on_c, 1, 66, 127
1, 754, Note_off_c, 1, 66, 0
1, 780, Note_on_c, 1, 54, 127
1, 814, Note_off_c, 1, 54, 0
1, 840, Note_on_c, 1, 66, 127
1, 874, Note_off_c, 1, 66, 0
1, 900, Note_on_c, 1, 64, 127
1, 959, Note_off_c, 1, 64, 0
1, 960, Note_on_c, 1, 66, 127
1, 986, Note_off_c, 1, 66, 0
1, 990, Note_on_c, 1, 64, 127
1, 1016, Note_off_c, 1, 64, 0
1, 1020, Note_on_c, 1, 62, 127
1, 1049, Note_off_c, 1, 62, 0
1, 1050, Note_on_c, 1, 61, 127
1, 1076, Note_off_c, 1, 61, 0
1, 1080, Note_on_c, 1, 62, 127
1, 1106, Note_off_c, 1, 62, 0
1, 1110, Note_on_c, 1, 66, 127
1, 1136, Note_off_c, 1, 66, 0
1, 1140, Note_on_c, 1, 64, 127
1, 1166, Note_off_c, 1, 64, 0
1, 1170, Note_on_c, 1, 62, 127
1, 1196, Note_off_c, 1, 62, 0
1, 1200, Note_on_c, 1, 71, 127
1, 1200, Note_on_c, 1, 61, 127
1, 1226, Note_off_c, 1, 61, 0
1, 1230, Note_on_c, 1, 59, 127
1, 1234, Note_off_c, 1, 71, 0
1, 1256, Note_off_c, 1, 59, 0
1, 1260, Note_on_c, 1, 69, 127
1, 1260, Note_on_c, 1, 61, 127
1, 1286, Note_off_c, 1, 61, 0
1, 1290, Note_on_c, 1, 59, 127
1, 1294, Note_off_c, 1, 69, 0
1, 1320, Note_on_c, 1, 66, 127
1, 1324, Note_off_c, 1, 59, 0
1, 1350, Note_on_c, 1, 62, 127
1, 1354, Note_off_c, 1, 66, 0
1, 1380, Note_on_c, 1, 65, 127
1, 1384, Note_off_c, 1, 62, 0
1, 1419, Note_off_c, 1, 65, 0
1, 1440, Note_on_c, 1, 66, 127
1, 1440, Note_on_c, 1, 57, 127
1, 1474, Note_off_c, 1, 57, 0
1, 1500, Note_on_c, 1, 68, 127
1, 1500, Note_on_c, 1, 54, 127
1, 1504, Note_off_c, 1, 66, 0
1, 1530, Note_on_c, 1, 69, 127
1, 1534, Note_off_c, 1, 68, 0
1, 1534, Note_off_c, 1, 54, 0
1, 1560, Note_on_c, 1, 71, 127
1, 1560, Note_on_c, 1, 53, 127
1, 1564, Note_off_c, 1, 69, 0
1, 1590, Note_on_c, 1, 73, 127
1, 1594, Note_off_c, 1, 71, 0
1, 1599, Note_off_c, 1, 53, 0
1, 1616, Note_off_c, 1, 73, 0
1, 1620, Note_on_c, 1, 74, 127
1, 1620, Note_on_c, 1, 54, 127
1, 1649, Note_off_c, 1, 54, 0
1, 1650, Note_on_c, 1, 56, 127
1, 1654, Note_off_c, 1, 74, 0
1, 1676, Note_off_c, 1, 56, 0
1, 1680, Note_on_c, 1, 62, 127
1, 1680, Note_on_c, 1, 57, 127
1, 1700, Note_on_c, 1, 56, 127
1, 1709, Note_off_c, 1, 57, 0
1, 1714, Note_off_c, 1, 62, 0
1, 1719, Note_off_c, 1, 56, 0
1, 1740, Note_on_c, 1, 74, 127
1, 1770, Note_on_c, 1, 54, 127
1, 1774, Note_off_c, 1, 74, 0
1, 1783, Note_off_c, 1, 54, 0
1, 1785, Note_on_c, 1, 56, 127
1, 1798, Note_off_c, 1, 56, 0
1, 1800, Note_on_c, 1, 73, 127
1, 1800, Note_on_c, 1, 57, 127
1, 1826, Note_off_c, 1, 57, 0
1, 1830, Note_on_c, 1, 59, 127
1, 1834, Note_off_c, 1, 73, 0
1, 1856, Note_off_c, 1, 59, 0
1, 1860, Note_on_c, 1, 61, 127
1, 1860, Note_on_c, 1, 57, 127
1, 1886, Note_off_c, 1, 57, 0
1, 1890, Note_on_c, 1, 56, 127
1, 1894, Note_off_c, 1, 61, 0
1, 1916, Note_off_c, 1, 56, 0
1, 1920, Note_on_c, 1, 73, 127
1, 1920, Note_on_c, 1, 54, 127
1, 1946, Note_off_c, 1, 54, 0
1, 1950, Note_on_c, 1, 52, 127
1, 1954, Note_off_c, 1, 73, 0
1, 1976, Note_off_c, 1, 52, 0
1, 1980, Note_on_c, 1, 71, 127
1, 1980, Note_on_c, 1, 51, 127
1, 2006, Note_off_c, 1, 51, 0
1, 2010, Note_on_c, 1, 53, 127
1, 2036, Note_off_c, 1, 53, 0
1, 2039, Note_off_c, 1, 71, 0
1, 2040, Note_on_c, 1, 73, 127
1, 2040, Note_on_c, 1, 54, 127
1, 2055, Note_on_c, 1, 53, 127
1, 2064, Note_off_c, 1, 54, 0
1, 2070, Note_on_c, 1, 71, 127
1, 2074, Note_off_c, 1, 73, 0
1, 2074, Note_off_c, 1, 53, 0
1, 2100, Note_on_c, 1, 69, 127
1, 2104, Note_off_c, 1, 71, 0
1, 2126, Note_off_c, 1, 69, 0
1, 2130, Note_on_c, 1, 68, 127
1, 2130, Note_on_c, 1, 51, 127
1, 2143, Note_off_c, 1, 51, 0
1, 2156, Note_off_c, 1, 68, 0
1, 2160, Note_on_c, 1, 69, 127
1, 2160, Note_on_c, 1, 54, 127
1, 2186, Note_off_c, 1, 69, 0
1, 2190, Note_on_c, 1, 73, 127
1, 2212, Note_off_c, 1, 54, 0
1, 2220, Note_on_c, 1, 71, 127
1, 2220, Note_on_c, 1, 56, 127
1, 2224, Note_off_c, 1, 73, 0
1, 2254, Note_off_c, 1, 71, 0
1, 2272, Note_off_c, 1, 56, 0
1, 2280, Note_on_c, 1, 68, 127
1, 2280, Note_on_c, 1, 57, 127
1, 2306, Note_off_c, 1, 68, 0
1, 2310, Note_on_c, 1, 66, 127
1, 2332, Note_off_c, 1, 57, 0
1, 2336, Note_off_c, 1, 66, 0
1, 2340, Note_on_c, 1, 67, 127
1, 2340, Note_on_c, 1, 59, 127
1, 2366, Note_off_c, 1, 59, 0
1, 2370, Note_on_c, 1, 61, 127
1, 2392, Note_off_c, 1, 67, 0
1, 2396, Note_off_c, 1, 61, 0
1, 2400, Note_on_c, 1, 69, 127
1, 2400, Note_on_c, 1, 62, 127
1, 2415, Note_on_c, 1, 61, 127
1, 2424, Note_off_c, 1, 62, 0
1, 2430, Note_on_c, 1, 67, 127
1, 2434, Note_off_c, 1, 69, 0
1, 2434, Note_off_c, 1, 61, 0
1, 2460, Note_on_c, 1, 66, 127
1, 2464, Note_off_c, 1, 67, 0
1, 2486, Note_off_c, 1, 66, 0
1, 2490, Note_on_c, 1, 64, 127
1, 2490, Note_on_c, 1, 59, 127
1, 2503, Note_off_c, 1, 59, 0
1, 2516, Note_off_c, 1, 64, 0
1, 2520, Note_on_c, 1, 66, 127
1, 2520, Note_on_c, 1, 62, 127
1, 2546, Note_off_c, 1, 66, 0
1, 2550, Note_on_c, 1, 69, 127
1, 2554, Note_off_c, 1, 62, 0
1, 2580, Note_on_c, 1, 67, 127
1, 2580, Note_on_c, 1, 58, 127
1, 2584, Note_off_c, 1, 69, 0
1, 2609, Note_off_c, 1, 67, 0
1, 2614, Note_off_c, 1, 58, 0
1, 2640, Note_on_c, 1, 64, 127
1, 2640, Note_on_c, 1, 59, 127
1, 2666, Note_off_c, 1, 64, 0
1, 2670, Note_on_c, 1, 62, 127
1, 2696, Note_off_c, 1, 62, 0
1, 2759, Note_off_c, 1, 59, 0
1, 2760, Note_on_c, 1, 66, 127
1, 2760, Note_on_c, 1, 58, 127
1, 2786, Note_off_c, 1, 66, 0
1, 2789, Note_off_c, 1, 58, 0
1, 2790, Note_on_c, 1, 64, 127
1, 2790, Note_on_c, 1, 56, 127
1, 2816, Note_off_c, 1, 64, 0
1, 2819, Note_off_c, 1, 56, 0
1, 2820, Note_on_c, 1, 62, 127
1, 2820, Note_on_c, 1, 58, 127
1, 2820, Note_on_c, 1, 54, 127
1, 2846, Note_off_c, 1, 62, 0
1, 2850, Note_on_c, 1, 61, 127
1, 2854, Note_off_c, 1, 54, 0
1, 2876, Note_off_c, 1, 61, 0
1, 2880, Note_on_c, 1, 59, 127
1, 2880, Note_on_c, 1, 50, 127
1, 2884, Note_off_c, 1, 58, 0
1, 2910, Note_on_c, 1, 64, 127
1, 2914, Note_off_c, 1, 50, 0
1, 2932, Note_off_c, 1, 59, 0
1, 2936, Note_off_c, 1, 64, 0
1, 2940, Note_on_c, 1, 66, 127
1, 2940, Note_on_c, 1, 47, 127
1, 2966, Note_off_c, 1, 66, 0
1, 2970, Note_on_c, 1, 67, 127
1, 2974, Note_off_c, 1, 47, 0
1, 2996, Note_off_c, 1, 67, 0
1, 3000, Note_on_c, 1, 66, 127
1, 3000, Note_on_c, 1, 46, 127
1, 3030, Note_on_c, 1, 64, 127
1, 3034, Note_off_c, 1, 46, 0
1, 3056, Note_off_c, 1, 64, 0
1, 3060, Note_on_c, 1, 62, 127
1, 3060, Note_on_c, 1, 47, 127
1, 3094, Note_off_c, 1, 62, 0
1, 3112, Note_off_c, 1, 47, 0
1, 3120, Note_on_c, 1, 59, 127
1, 3120, Note_on_c, 1, 49, 127
1, 3146, Note_off_c, 1, 49, 0
1, 3150, Note_on_c, 1, 50, 127
1, 3154, Note_off_c, 1, 59, 0
1, 3176, Note_off_c, 1, 50, 0
1, 3180, Note_on_c, 1, 58, 127
1, 3180, Note_on_c, 1, 52, 127
1, 3206, Note_off_c, 1, 52, 0
1, 3210, Note_on_c, 1, 54, 127
1, 3214, Note_off_c, 1, 58, 0
1, 3236, Note_off_c, 1, 54, 0
1, 3240, Note_on_c, 1, 55, 127
1, 3270, Note_on_c, 1, 61, 127
1, 3274, Note_off_c, 1, 55, 0
1, 3292, Note_off_c, 1, 66, 0
1, 3296, Note_off_c, 1, 61, 0
1, 3300, Note_on_c, 1, 64, 127
1, 3300, Note_on_c, 1, 62, 127
1, 3300, Note_on_c, 1, 43, 127
1, 3315, Note_on_c, 1, 61, 127
1, 3324, Note_off_c, 1, 62, 0
1, 3329, Note_off_c, 1, 43, 0
1, 3334, Note_off_c, 1, 64, 0
1, 3334, Note_off_c, 1, 61, 0
1, 3360, Note_on_c, 1, 69, 127
1, 3360, Note_on_c, 1, 55, 127
1, 3390, Note_on_c, 1, 59, 127
1, 3394, Note_off_c, 1, 55, 0
1, 3403, Note_off_c, 1, 59, 0
1, 3420, Note_on_c, 1, 54, 127
1, 3454, Note_off_c, 1, 54, 0
1, 3472, Note_off_c, 1, 69, 0
1, 3480, Note_on_c, 1, 66, 127
1, 3480, Note_on_c, 1, 42, 127
1, 3514, Note_off_c, 1, 66, 0
1, 3514, Note_off_c, 1, 42, 0
1, 3540, Note_on_c, 1, 62, 127
1, 3540, Note_on_c, 1, 59, 127
1, 3540, Note_on_c, 1, 54, 127
1, 3566, Note_off_c, 1, 59, 0
1, 3570, Note_on_c, 1, 57, 127
1, 3574, Note_off_c, 1, 54, 0
1, 3596, Note_off_c, 1, 57, 0
1, 3600, Note_on_c, 1, 56, 127
1, 3600, Note_on_c, 1, 52, 127
1, 3626, Note_off_c, 1, 56, 0
1, 3630, Note_on_c, 1, 58, 127
1, 3652, Note_off_c, 1, 62, 0
1, 3652, Note_off_c, 1, 52, 0
1, 3656, Note_off_c, 1, 58, 0
1, 3660, Note_on_c, 1, 61, 127
1, 3660, Note_on_c, 1, 59, 127
1, 3660, Note_on_c, 1, 54, 127
1, 3675, Note_on_c, 1, 58, 127
1, 3684, Note_off_c, 1, 59, 0
1, 3686, Note_off_c, 1, 54, 0
1, 3690, Note_on_c, 1, 52, 127
1, 3694, Note_off_c, 1, 61, 0
1, 3694, Note_off_c, 1, 58, 0
1, 3716, Note_off_c, 1, 52, 0
1, 3720, Note_on_c, 1, 66, 127
1, 3720, Note_on_c, 1, 50, 127
1, 3746, Note_off_c, 1, 50, 0
1, 3750, Note_on_c, 1, 56, 127
1, 3750, Note_on_c, 1, 49, 127
1, 3763, Note_off_c, 1, 56, 0
1, 3776, Note_off_c, 1, 49, 0
1, 3832, Note_off_c, 1, 66, 0
1, 3900, Note_on_c, 1, 68, 127
1, 3900, Note_on_c, 1, 49, 127
1, 3926, Note_off_c, 1, 49, 0
1, 3930, Note_on_c, 1, 47, 127
1, 3952, Note_off_c, 1, 68, 0
1, 3956, Note_off_c, 1, 47, 0
1, 3960, Note_on_c, 1, 69, 127
1, 3960, Note_on_c, 1, 49, 127
1, 3986, Note_off_c, 1, 69, 0
1, 3986, Note_off_c, 1, 49, 0
1, 3990, Note_on_c, 1, 73, 127
1, 3990, Note_on_c, 1, 51, 127
1, 4016, Note_off_c, 1, 73, 0
1, 4016, Note_off_c, 1, 51, 0
1, 4020, Note_on_c, 1, 71, 127
1, 4020, Note_on_c, 1, 52, 127
1, 4035, Note_on_c, 1, 51, 127
1, 4044, Note_off_c, 1, 52, 0
1, 4046, Note_off_c, 1, 71, 0
1, 4050, Note_on_c, 1, 69, 127
1, 4054, Note_off_c, 1, 51, 0
1, 4076, Note_off_c, 1, 69, 0
1, 4080, Note_on_c, 1, 68, 127
1, 4106, Note_off_c, 1, 68, 0
1, 4110, Note_on_c, 1, 66, 127
1, 4110, Note_on_c, 1, 49, 127
1, 4123, Note_off_c, 1, 49, 0
1, 4136, Note_off_c, 1, 66, 0
1, 4140, Note_on_c, 1, 68, 127
1, 4140, Note_on_c, 1, 52, 127
1, 4166, Note_off_c, 1, 68, 0
1, 4166, Note_off_c, 1, 52, 0
1, 4170, Note_on_c, 1, 70, 127
1, 4170, Note_on_c, 1, 55, 127
1, 4196, Note_off_c, 1, 70, 0
1, 4196, Note_off_c, 1, 55, 0
1, 4200, Note_on_c, 1, 71, 127
1, 4200, Note_on_c, 1, 54, 127
1, 4215, Note_on_c, 1, 70, 127
1, 4224, Note_off_c, 1, 71, 0
1, 4226, Note_off_c, 1, 54, 0
1, 4230, Note_on_c, 1, 52, 127
1, 4234, Note_off_c, 1, 70, 0
1, 4256, Note_off_c, 1, 52, 0
1, 4260, Note_on_c, 1, 50, 127
1, 4286, Note_off_c, 1, 50, 0
1, 4290, Note_on_c, 1, 68, 127
1, 4290, Note_on_c, 1, 49, 127
1, 4303, Note_off_c, 1, 68, 0
1, 4316, Note_off_c, 1, 49, 0
1, 4320, Note_on_c, 1, 71, 127
1, 4320, Note_on_c, 1, 51, 127
1, 4346, Note_off_c, 1, 71, 0
1, 4346, Note_off_c, 1, 51, 0
1, 4350, Note_on_c, 1, 74, 127
1, 4350, Note_on_c, 1, 53, 127
1, 4376, Note_off_c, 1, 74, 0
1, 4376, Note_off_c, 1, 53, 0
1, 4380, Note_on_c, 1, 73, 127
1, 4380, Note_on_c, 1, 54, 127
1, 4395, Note_on_c, 1, 53, 127
1, 4404, Note_off_c, 1, 54, 0
1, 4406, Note_off_c, 1, 73, 0
1, 4410, Note_on_c, 1, 71, 127
1, 4414, Note_off_c, 1, 53, 0
1, 4436, Note_off_c, 1, 71, 0
1, 4440, Note_on_c, 1, 69, 127
1, 4466, Note_off_c, 1, 69, 0
1, 4470, Note_on_c, 1, 68, 127
1, 4470, Note_on_c, 1, 51, 127
1, 4483, Note_off_c, 1, 51, 0
1, 4496, Note_off_c, 1, 68, 0
1, 4500, Note_on_c, 1, 69, 127
1, 4500, Note_on_c, 1, 54, 127
1, 4526, Note_off_c, 1, 69, 0
1, 4526, Note_off_c, 1, 54, 0
1, 4530, Note_on_c, 1, 71, 127
1, 4530, Note_on_c, 1, 57, 127
1, 4556, Note_off_c, 1, 71, 0
1, 4556, Note_off_c, 1, 57, 0
1, 4560, Note_on_c, 1, 73, 127
1, 4560, Note_on_c, 1, 56, 127
1, 4575, Note_on_c, 1, 71, 127
1, 4584, Note_off_c, 1, 73, 0
1, 4586, Note_off_c, 1, 56, 0
1, 4590, Note_on_c, 1, 54, 127
1, 4594, Note_off_c, 1, 71, 0
1, 4616, Note_off_c, 1, 54, 0
1, 4620, Note_on_c, 1, 53, 127
1, 4646, Note_off_c, 1, 53, 0
1, 4650, Note_on_c, 1, 69, 127
1, 4650, Note_on_c, 1, 51, 127
1, 4663, Note_off_c, 1, 69, 0
1, 4676, Note_off_c, 1, 51, 0
1, 4680, Note_on_c, 1, 73, 127
1, 4680, Note_on_c, 1, 53, 127
1, 4706, Note_off_c, 1, 53, 0
1, 4710, Note_on_c, 1, 56, 127
1, 4736, Note_off_c, 1, 56, 0
1, 4740, Note_on_c, 1, 54, 127
1, 4766, Note_off_c, 1, 54, 0
1, 4800, Note_on_c, 1, 61, 127
1, 4800, Note_on_c, 1, 51, 127
1, 4826, Note_off_c, 1, 51, 0
1, 4830, Note_on_c, 1, 49, 127
1, 4834, Note_off_c, 1, 61, 0
1, 4856, Note_off_c, 1, 49, 0
1, 4860, Note_on_c, 1, 57, 127
1, 4886, Note_off_c, 1, 73, 0
1, 4890, Note_on_c, 1, 74, 127
1, 4894, Note_off_c, 1, 57, 0
1, 4916, Note_off_c, 1, 74, 0
1, 4920, Note_on_c, 1, 73, 127
1, 4920, Note_on_c, 1, 54, 127
1, 4920, Note_on_c, 1, 45, 127
1, 4946, Note_off_c, 1, 73, 0
1, 4949, Note_off_c, 1, 45, 0
1, 4950, Note_on_c, 1, 71, 127
1, 4954, Note_off_c, 1, 54, 0
1, 4976, Note_off_c, 1, 71, 0
1, 4980, Note_on_c, 1, 69, 127
1, 4980, Note_on_c, 1, 53, 127
1, 4980, Note_on_c, 1, 49, 127
1, 5006, Note_off_c, 1, 69, 0
1, 5009, Note_off_c, 1, 49, 0
1, 5010, Note_on_c, 1, 68, 127
1, 5014, Note_off_c, 1, 53, 0
1, 5036, Note_off_c, 1, 68, 0
1, 5040, Note_on_c, 1, 69, 127
1, 5040, Note_on_c, 1, 54, 127
1, 5040, Note_on_c, 1, 42, 127
1, 5074, Note_off_c, 1, 69, 0
1, 5074, Note_off_c, 1, 42, 0
1, 5100, Note_on_c, 1, 66, 127
1, 5100, Note_on_c, 1, 56, 127
1, 5104, Note_off_c, 1, 54, 0
1, 5130, Note_on_c, 1, 57, 127
1, 5134, Note_off_c, 1, 66, 0
1, 5134, Note_off_c, 1, 56, 0
1, 5159, Note_off_c, 1, 57, 0
1, 5160, Note_on_c, 1, 65, 127
1, 5160, Note_on_c, 1, 59, 127
1, 5189, Note_off_c, 1, 59, 0
1, 5190, Note_on_c, 1, 61, 127
1, 5194, Note_off_c, 1, 65, 0
1, 5216, Note_off_c, 1, 61, 0
1, 5220, Note_on_c, 1, 66, 127
1, 5220, Note_on_c, 1, 62, 127
1, 5249, Note_off_c, 1, 62, 0
1, 5250, Note_on_c, 1, 57, 127
1, 5276, Note_off_c, 1, 57, 0
1, 5280, Note_on_c, 1, 50, 127
1, 5280, Note_on_c, 1, 47, 127
1, 5306, Note_off_c, 1, 47, 0
1, 5314, Note_off_c, 1, 66, 0
1, 5314, Note_off_c, 1, 50, 0
1, 5340, Note_on_c, 1, 71, 127
1, 5340, Note_on_c, 1, 62, 127
1, 5340, Note_on_c, 1, 47, 127
1, 5366, Note_off_c, 1, 47, 0
1, 5370, Note_on_c, 1, 56, 127
1, 5374, Note_off_c, 1, 62, 0
1, 5396, Note_off_c, 1, 56, 0
1, 5400, Note_on_c, 1, 61, 127
1, 5400, Note_on_c, 1, 45, 127
1, 5426, Note_off_c, 1, 45, 0
1, 5434, Note_off_c, 1, 61, 0
1, 5459, Note_off_c, 1, 71, 0
1, 5460, Note_on_c, 1, 65, 127
1, 5460, Note_on_c, 1, 49, 127
1, 5460, Note_on_c, 1, 45, 127
1, 5486, Note_off_c, 1, 45, 0
1, 5490, Note_on_c, 1, 56, 127
1, 5494, Note_off_c, 1, 65, 0
1, 5494, Note_off_c, 1, 49, 0
1, 5516, Note_off_c, 1, 56, 0
1, 5520, Note_on_c, 1, 66, 127
1, 5520, Note_on_c, 1, 61, 127
1, 5520, Note_on_c, 1, 45, 127
1, 5546, Note_off_c, 1, 45, 0
1, 5550, Note_on_c, 1, 54, 127
1, 5554, Note_off_c, 1, 66, 0
1, 5554, Note_off_c, 1, 61, 0
1, 5576, Note_off_c, 1, 54, 0
1, 5580, Note_on_c, 1, 62, 127
1, 5580, Note_on_c, 1, 59, 127
1, 5580, Note_on_c, 1, 44, 127
1, 5606, Note_off_c, 1, 44, 0
1, 5610, Note_on_c, 1, 54, 127
1, 5614, Note_off_c, 1, 62, 0
1, 5636, Note_off_c, 1, 54, 0
1, 5639, Note_off_c, 1, 59, 0
1, 5640, Note_on_c, 1, 61, 127
1, 5640, Note_on_c, 1, 53, 127
1, 5666, Note_off_c, 1, 53, 0
1, 5670, Note_on_c, 1, 59, 127
1, 5670, Note_on_c, 1, 56, 127
1, 5696, Note_off_c, 1, 56, 0
1, 5699, Note_off_c, 1, 59, 0
1, 5700, Note_on_c, 1, 57, 127
1, 5700, Note_on_c, 1, 49, 127
1, 5726, Note_off_c, 1, 57, 0
1, 5726, Note_off_c, 1, 49, 0
1, 5760, Note_on_c, 1, 42, 127
1, 5786, Note_off_c, 1, 42, 0
1, 5790, Note_on_c, 1, 54, 127
1, 5816, Note_off_c, 1, 54, 0
1, 5820, Note_on_c, 1, 44, 127
1, 5846, Note_off_c, 1, 44, 0
1, 5865, Note_off_c, 1, 61, 0
1, 5880, Note_on_c, 1, 66, 127
1, 5880, Note_on_c, 1, 61, 127
1, 5880, Note_on_c, 1, 45, 127
1, 5906, Note_off_c, 1, 45, 0
1, 5910, Note_on_c, 1, 54, 127
1, 5914, Note_off_c, 1, 66, 0
1, 5936, Note_off_c, 1, 54, 0
1, 5940, Note_on_c, 1, 62, 127
1, 5940, Note_on_c, 1, 47, 127
1, 5966, Note_off_c, 1, 47, 0
1, 5974, Note_off_c, 1, 62, 0
1, 6000, Note_on_c, 1, 64, 127
1, 6000, Note_on_c, 1, 59, 127
1, 6000, Note_on_c, 1, 49, 127
1, 6004, Note_off_c, 1, 61, 0
1, 6026, Note_off_c, 1, 49, 0
1, 6034, Note_off_c, 1, 64, 0
1, 6059, Note_off_c, 1, 59, 0
1, 6060, Note_on_c, 1, 66, 127
1, 6060, Note_on_c, 1, 57, 127
1, 6060, Note_on_c, 1, 50, 127
1, 6086, Note_off_c, 1, 50, 0
1, 6090, Note_on_c, 1, 54, 127
1, 6116, Note_off_c, 1, 54, 0
1, 6119, Note_off_c, 1, 57, 0
1, 6120, Note_on_c, 1, 55, 127
1, 6120, Note_on_c, 1, 40, 127
1, 6146, Note_off_c, 1, 40, 0
1, 6150, Note_on_c, 1, 52, 127
1, 6176, Note_off_c, 1, 52, 0
1, 6179, Note_off_c, 1, 66, 0
1, 6179, Note_off_c, 1, 55, 0
1, 6180, Note_on_c, 1, 64, 127
1, 6180, Note_on_c, 1, 57, 127
1, 6180, Note_on_c, 1, 42, 127
1, 6206, Note_off_c, 1, 42, 0
1, 6210, Note_on_c, 1, 52, 127
1, 6236, Note_off_c, 1, 52, 0
1, 6240, Note_on_c, 1, 62, 127
1, 6240, Note_on_c, 1, 59, 127
1, 6240, Note_on_c, 1, 43, 127
1, 6244, Note_off_c, 1, 64, 0
1, 6244, Note_off_c, 1, 57, 0
1, 6266, Note_off_c, 1, 43, 0
1, 6300, Note_on_c, 1, 61, 127
1, 6300, Note_on_c, 1, 45, 127
1, 6304, Note_off_c, 1, 62, 0
1, 6326, Note_off_c, 1, 45, 0
1, 6352, Note_off_c, 1, 61, 0
1, 6360, Note_on_c, 1, 47, 127
1, 6369, Note_off_c, 1, 59, 0
1, 6386, Note_off_c, 1, 47, 0
1, 6420, Note_on_c, 1, 81, 127
1, 6420, Note_on_c, 1, 49, 127
1, 6446, Note_off_c, 1, 49, 0
1, 6450, Note_on_c, 1, 52, 127
1, 6454, Note_off_c, 1, 81, 0
1, 6476, Note_off_c, 1, 52, 0
1, 6480, Note_on_c, 1, 78, 127
1, 6480, Note_on_c, 1, 50, 127
1, 6506, Note_off_c, 1, 50, 0
1, 6510, Note_on_c, 1, 52, 127
1, 6514, Note_off_c, 1, 78, 0
1, 6536, Note_off_c, 1, 52, 0
1, 6540, Note_on_c, 1, 74, 127
1, 6540, Note_on_c, 1, 54, 127
1, 6566, Note_off_c, 1, 54, 0
1, 6570, Note_on_c, 1, 55, 127
1, 6574, Note_off_c, 1, 74, 0
1, 6596, Note_off_c, 1, 55, 0
1, 6600, Note_on_c, 1, 73, 127
1, 6600, Note_on_c, 1, 57, 127
1, 6626, Note_off_c, 1, 57, 0
1, 6630, Note_on_c, 1, 55, 127
1, 6634, Note_off_c, 1, 73, 0
1, 6656, Note_off_c, 1, 55, 0
1, 6660, Note_on_c, 1, 74, 127
1, 6660, Note_on_c, 1, 54, 127
1, 6686, Note_off_c, 1, 54, 0
1, 6690, Note_on_c, 1, 57, 127
1, 6716, Note_off_c, 1, 57, 0
1, 6719, Note_off_c, 1, 74, 0
1, 6720, Note_on_c, 1, 76, 127
1, 6720, Note_on_c, 1, 55, 127
1, 6746, Note_off_c, 1, 55, 0
1, 6750, Note_on_c, 1, 78, 127
1, 6750, Note_on_c, 1, 54, 127
1, 6754, Note_off_c, 1, 76, 0
1, 6776, Note_off_c, 1, 54, 0
1, 6780, Note_on_c, 1, 79, 127
1, 6780, Note_on_c, 1, 52, 127
1, 6784, Note_off_c, 1, 78, 0
1, 6806, Note_off_c, 1, 52, 0
1, 6810, Note_on_c, 1, 81, 127
1, 6810, Note_on_c, 1, 50, 127
1, 6814, Note_off_c, 1, 79, 0
1, 6836, Note_off_c, 1, 81, 0
1, 6836, Note_off_c, 1, 50, 0
1, 6840, Note_on_c, 1, 83, 127
1, 6840, Note_on_c, 1, 55, 127
1, 6869, Note_off_c, 1, 83, 0
1, 6870, Note_on_c, 1, 66, 127
1, 6892, Note_off_c, 1, 55, 0
1, 6896, Note_off_c, 1, 66, 0
1, 6900, Note_on_c, 1, 71, 127
1, 6900, Note_on_c, 1, 55, 127
1, 6926, Note_off_c, 1, 55, 0
1, 6930, Note_on_c, 1, 66, 127
1, 6934, Note_off_c, 1, 71, 0
1, 6956, Note_off_c, 1, 66, 0
1, 6960, Note_on_c, 1, 83, 127
1, 6960, Note_on_c, 1, 55, 127
1, 6960, Note_on_c, 1, 52, 127
1, 6986, Note_off_c, 1, 55, 0
1, 6989, Note_off_c, 1, 83, 0
1, 6990, Note_on_c, 1, 64, 127
1, 6994, Note_off_c, 1, 52, 0
1, 7016, Note_off_c, 1, 64, 0
1, 7020, Note_on_c, 1, 81, 127
1, 7020, Note_on_c, 1, 54, 127
1, 7050, Note_on_c, 1, 64, 127
1, 7054, Note_off_c, 1, 81, 0
1, 7072, Note_off_c, 1, 54, 0
1, 7076, Note_off_c, 1, 64, 0
1, 7080, Note_on_c, 1, 69, 127
1, 7080, Note_on_c, 1, 54, 127
1, 7106, Note_off_c, 1, 54, 0
1, 7110, Note_on_c, 1, 64, 127
1, 7114, Note_off_c, 1, 69, 0
1, 7136, Note_off_c, 1, 64, 0
1, 7140, Note_on_c, 1, 81, 127
1, 7140, Note_on_c, 1, 54, 127
1, 7140, Note_on_c, 1, 50, 127
1, 7166, Note_off_c, 1, 54, 0
1, 7169, Note_off_c, 1, 50, 0
1, 7170, Note_on_c, 1, 62, 127
1, 7174, Note_off_c, 1, 81, 0
1, 7196, Note_off_c, 1, 62, 0
1, 7200, Note_on_c, 1, 79, 127
1, 7200, Note_on_c, 1, 52, 127
1, 7230, Note_on_c, 1, 62, 127
1, 7234, Note_off_c, 1, 52, 0
1, 7256, Note_off_c, 1, 62, 0
1, 7259, Note_off_c, 1, 79, 0
1, 7260, Note_on_c, 1, 81, 127
1, 7260, Note_on_c, 1, 61, 127
1, 7260, Note_on_c, 1, 57, 127
1, 7286, Note_off_c, 1, 61, 0
1, 7290, Note_on_c, 1, 79, 127
1, 7290, Note_on_c, 1, 64, 127
1, 7294, Note_off_c, 1, 81, 0
1, 7316, Note_off_c, 1, 64, 0
1, 7319, Note_off_c, 1, 79, 0
1, 7320, Note_on_c, 1, 78, 127
1, 7350, Note_on_c, 1, 76, 127
1, 7354, Note_off_c, 1, 78, 0
1, 7365, Note_off_c, 1, 57, 0
1, 7379, Note_off_c, 1, 76, 0
1, 7380, Note_on_c, 1, 78, 127
1, 7380, Note_on_c, 1, 62, 127
1, 7380, Note_on_c, 1, 50, 127
1, 7406, Note_off_c, 1, 78, 0
1, 7406, Note_off_c, 1, 62, 0
1, 7410, Note_on_c, 1, 81, 127
1, 7410, Note_on_c, 1, 61, 127
1, 7432, Note_off_c, 1, 50, 0
1, 7436, Note_off_c, 1, 61, 0
1, 7439, Note_off_c, 1, 81, 0
1, 7440, Note_on_c, 1, 79, 127
1, 7440, Note_on_c, 1, 62, 127
1, 7466, Note_off_c, 1, 79, 0
1, 7466, Note_off_c, 1, 62, 0
1, 7470, Note_on_c, 1, 78, 127
1, 7470, Note_on_c, 1, 64, 127
1, 7496, Note_off_c, 1, 78, 0
1, 7496, Note_off_c, 1, 64, 0
1, 7500, Note_on_c, 1, 76, 127
1, 7500, Note_on_c, 1, 66, 127
1, 7500, Note_on_c, 1, 59, 127
1, 7526, Note_off_c, 1, 76, 0
1, 7526, Note_off_c, 1, 66, 0
1, 7530, Note_on_c, 1, 74, 127
1, 7530, Note_on_c, 1, 68, 127
1, 7552, Note_off_c, 1, 59, 0
1, 7556, Note_off_c, 1, 74, 0
1, 7556, Note_off_c, 1, 68, 0
1, 7560, Note_on_c, 1, 73, 127
1, 7560, Note_on_c, 1, 69, 127
1, 7560, Note_on_c, 1, 66, 127
1, 7586, Note_off_c, 1, 69, 0
1, 7590, Note_on_c, 1, 68, 127
1, 7612, Note_off_c, 1, 66, 0
1, 7616, Note_off_c, 1, 68, 0
1, 7619, Note_off_c, 1, 73, 0
1, 7620, Note_on_c, 1, 74, 127
1, 7620, Note_on_c, 1, 69, 127
1, 7646, Note_off_c, 1, 69, 0
1, 7650, Note_on_c, 1, 71, 127
1, 7676, Note_off_c, 1, 71, 0
1, 7680, Note_on_c, 1, 76, 127
1, 7680, Note_on_c, 1, 61, 127
1, 7684, Note_off_c, 1, 74, 0
1, 7710, Note_on_c, 1, 68, 127
1, 7732, Note_off_c, 1, 61, 0
1, 7736, Note_off_c, 1, 68, 0
1, 7740, Note_on_c, 1, 66, 127
1, 7740, Note_on_c, 1, 62, 127
1, 7766, Note_off_c, 1, 66, 0
1, 7770, Note_on_c, 1, 64, 127
1, 7792, Note_off_c, 1, 62, 0
1, 7796, Note_off_c, 1, 64, 0
1, 7804, Note_off_c, 1, 76, 0
1, 7860, Note_on_c, 1, 73, 127
1, 7860, Note_on_c, 1, 69, 127
1, 7860, Note_on_c, 1, 63, 127
1, 7886, Note_off_c, 1, 69, 0
1, 7890, Note_on_c, 1, 66, 127
1, 7912, Note_off_c, 1, 63, 0
1, 7916, Note_off_c, 1, 66, 0
1, 7920, Note_on_c, 1, 71, 127
1, 7920, Note_on_c, 1, 68, 127
1, 7920, Note_on_c, 1, 64, 127
1, 7924, Note_off_c, 1, 73, 0
1, 7946, Note_off_c, 1, 68, 0
1, 7976, Note_off_c, 1, 64, 0
1, 7979, Note_off_c, 1, 71, 0
1, 7980, Note_on_c, 1, 69, 127
1, 7980, Note_on_c, 1, 66, 127
1, 8006, Note_off_c, 1, 66, 0
1, 8010, Note_on_c, 1, 64, 127
1, 8036, Note_off_c, 1, 64, 0
1, 8040, Note_on_c, 1, 71, 127
1, 8040, Note_on_c, 1, 68, 127
1, 8040, Note_on_c, 1, 52, 127
1, 8044, Note_off_c, 1, 69, 0
1, 8066, Note_off_c, 1, 68, 0
1, 8074, Note_off_c, 1, 52, 0
1, 8100, Note_on_c, 1, 73, 127
1, 8100, Note_on_c, 1, 49, 127
1, 8104, Note_off_c, 1, 71, 0
1, 8129, Note_off_c, 1, 49, 0
1, 8160, Note_on_c, 1, 76, 127
1, 8160, Note_on_c, 1, 45, 127
1, 8186, Note_off_c, 1, 73, 0
1, 8194, Note_off_c, 1, 45, 0
1, 8219, Note_off_c, 1, 76, 0
1, 8220, Note_on_c, 1, 74, 127
1, 8220, Note_on_c, 1, 71, 127
1, 8220, Note_on_c, 1, 44, 127
1, 8246, Note_off_c, 1, 71, 0
1, 8250, Note_on_c, 1, 64, 127
1, 8254, Note_off_c, 1, 44, 0
1, 8272, Note_off_c, 1, 74, 0
1, 8276, Note_off_c, 1, 64, 0
1, 8280, Note_on_c, 1, 73, 127
1, 8280, Note_on_c, 1, 69, 127
1, 8280, Note_on_c, 1, 45, 127
1, 8332, Note_off_c, 1, 45, 0
1, 8340, Note_on_c, 1, 47, 127
1, 8366, Note_off_c, 1, 47, 0
1, 8370, Note_on_c, 1, 68, 127
1, 8370, Note_on_c, 1, 49, 127
1, 8374, Note_off_c, 1, 69, 0
1, 8396, Note_off_c, 1, 49, 0
1, 8400, Note_on_c, 1, 66, 127
1, 8400, Note_on_c, 1, 50, 127
1, 8404, Note_off_c, 1, 68, 0
1, 8426, Note_off_c, 1, 50, 0
1, 8429, Note_off_c, 1, 66, 0
1, 8430, Note_on_c, 1, 64, 127
1, 8430, Note_on_c, 1, 52, 127
1, 8456, Note_off_c, 1, 64, 0
1, 8456, Note_off_c, 1, 52, 0
1, 8460, Note_on_c, 1, 62, 127
1, 8460, Note_on_c, 1, 54, 127
1, 8486, Note_off_c, 1, 73, 0
1, 8489, Note_off_c, 1, 62, 0
1, 8494, Note_off_c, 1, 54, 0
1, 8520, Note_on_c, 1, 62, 127
1, 8520, Note_on_c, 1, 69, 127
1, 8520, Note_on_c, 1, 42, 127
1, 8546, Note_off_c, 1, 62, 0
1, 8550, Note_on_c, 1, 73, 127
1, 8554, Note_off_c, 1, 69, 0
1, 8554, Note_off_c, 1, 42, 0
1, 8576, Note_off_c, 1, 73, 0
1, 8580, Note_on_c, 1, 62, 127
1, 8580, Note_on_c, 1, 68, 127
1, 8580, Note_on_c, 1, 54, 127
1, 8606, Note_off_c, 1, 62, 0
1, 8610, Note_on_c, 1, 71, 127
1, 8614, Note_off_c, 1, 68, 0
1, 8614, Note_off_c, 1, 54, 0
1, 8636, Note_off_c, 1, 71, 0
1, 8640, Note_on_c, 1, 61, 127
1, 8640, Note_on_c, 1, 52, 127
1, 8666, Note_off_c, 1, 61, 0
1, 8670, Note_on_c, 1, 71, 127
1, 8674, Note_off_c, 1, 52, 0
1, 8696, Note_off_c, 1, 71, 0
1, 8700, Note_on_c, 1, 61, 127
1, 8700, Note_on_c, 1, 68, 127
1, 8700, Note_on_c, 1, 40, 127
1, 8726, Note_off_c, 1, 61, 0
1, 8730, Note_on_c, 1, 71, 127
1, 8734, Note_off_c, 1, 68, 0
1, 8734, Note_off_c, 1, 40, 0
1, 8756, Note_off_c, 1, 71, 0
1, 8760, Note_on_c, 1, 61, 127
1, 8760, Note_on_c, 1, 66, 127
1, 8760, Note_on_c, 1, 52, 127
1, 8786, Note_off_c, 1, 61, 0
1, 8790, Note_on_c, 1, 69, 127
1, 8794, Note_off_c, 1, 66, 0
1, 8794, Note_off_c, 1, 52, 0
1, 8816, Note_off_c, 1, 69, 0
1, 8820, Note_on_c, 1, 59, 127
1, 8820, Note_on_c, 1, 50, 127
1, 8846, Note_off_c, 1, 59, 0
1, 8850, Note_on_c, 1, 69, 127
1, 8872, Note_off_c, 1, 50, 0
1, 8876, Note_off_c, 1, 69, 0
1, 8880, Note_on_c, 1, 68, 127
1, 8880, Note_on_c, 1, 64, 127
1, 8880, Note_on_c, 1, 52, 127
1, 8906, Note_off_c, 1, 68, 0
1, 8906, Note_off_c, 1, 52, 0
1, 8910, Note_on_c, 1, 71, 127
1, 8910, Note_on_c, 1, 50, 127
1, 8936, Note_off_c, 1, 71, 0
1, 8936, Note_off_c, 1, 50, 0
1, 8940, Note_on_c, 1, 62, 127
1, 8940, Note_on_c, 1, 49, 127
1, 8966, Note_off_c, 1, 64, 0
1, 8966, Note_off_c, 1, 49, 0
1, 8970, Note_on_c, 1, 47, 127
1, 8996, Note_off_c, 1, 47, 0
1, 9000, Note_on_c, 1, 69, 127
1, 9039, Note_off_c, 1, 69, 0
1, 9059, Note_off_c, 1, 62, 0
1, 9060, Note_on_c, 1, 64, 127
1, 9060, Note_on_c, 1, 61, 127
1, 9060, Note_on_c, 1, 57, 127
1, 9086, Note_off_c, 1, 57, 0
1, 9090, Note_on_c, 1, 52, 127
1, 9116, Note_off_c, 1, 52, 0
1, 9119, Note_off_c, 1, 64, 0
1, 9120, Note_on_c, 1, 66, 127
1, 9120, Note_on_c, 1, 60, 127
1, 9120, Note_on_c, 1, 51, 127
1, 9124, Note_off_c, 1, 61, 0
1, 9146, Note_off_c, 1, 51, 0
1, 9179, Note_off_c, 1, 66, 0
1, 9180, Note_on_c, 1, 67, 127
1, 9210, Note_on_c, 1, 55, 127
1, 9236, Note_off_c, 1, 55, 0
1, 9239, Note_off_c, 1, 60, 0
1, 9240, Note_on_c, 1, 68, 127
1, 9240, Note_on_c, 1, 59, 127
1, 9240, Note_on_c, 1, 54, 127
1, 9244, Note_off_c, 1, 67, 0
1, 9266, Note_off_c, 1, 54, 0
1, 9274, Note_off_c, 1, 59, 0
1, 9300, Note_on_c, 1, 70, 127
1, 9300, Note_on_c, 1, 50, 127
1, 9304, Note_off_c, 1, 68, 0
1, 9326, Note_off_c, 1, 50, 0
1, 9330, Note_on_c, 1, 49, 127
1, 9356, Note_off_c, 1, 49, 0
1, 9359, Note_off_c, 1, 70, 0
1, 9360, Note_on_c, 1, 71, 127
1, 9399, Note_off_c, 1, 71, 0
1, 9420, Note_on_c, 1, 63, 127
1, 9479, Note_off_c, 1, 63, 0
1, 9480, Note_on_c, 1, 68, 127
1, 9480, Note_on_c, 1, 62, 127
1, 9480, Note_on_c, 1, 53, 127
1, 9506, Note_off_c, 1, 53, 0
1, 9510, Note_on_c, 1, 59, 127
1, 9536, Note_off_c, 1, 59, 0
1, 9539, Note_off_c, 1, 68, 0
1, 9540, Note_on_c, 1, 69, 127
1, 9540, Note_on_c, 1, 54, 127
1, 9566, Note_off_c, 1, 54, 0
1, 9570, Note_on_c, 1, 57, 127
1, 9596, Note_off_c, 1, 57, 0
1, 9599, Note_off_c, 1, 69, 0
1, 9600, Note_on_c, 1, 70, 127
1, 9600, Note_on_c, 1, 61, 127
1, 9600, Note_on_c, 1, 56, 127
1, 9604, Note_off_c, 1, 62, 0
1, 9626, Note_off_c, 1, 56, 0
1, 9634, Note_off_c, 1, 61, 0
1, 9660, Note_on_c, 1, 72, 127
1, 9660, Note_on_c, 1, 66, 127
1, 9664, Note_off_c, 1, 70, 0
1, 9690, Note_on_c, 1, 51, 127
1, 9716, Note_off_c, 1, 51, 0
1, 9720, Note_on_c, 1, 73, 127
1, 9720, Note_on_c, 1, 49, 127
1, 9724, Note_off_c, 1, 72, 0
1, 9746, Note_off_c, 1, 49, 0
1, 9750, Note_on_c, 1, 50, 127
1, 9776, Note_off_c, 1, 50, 0
1, 9780, Note_on_c, 1, 65, 127
1, 9784, Note_off_c, 1, 66, 0
1, 9810, Note_on_c, 1, 47, 127
1, 9819, Note_off_c, 1, 65, 0
1, 9836, Note_off_c, 1, 47, 0
1, 9840, Note_on_c, 1, 45, 127
1, 9866, Note_off_c, 1, 45, 0
1, 9870, Note_on_c, 1, 44, 127
1, 9896, Note_off_c, 1, 44, 0
1, 9900, Note_on_c, 1, 42, 127
1, 9926, Note_off_c, 1, 42, 0
1, 9952, Note_off_c, 1, 73, 0
1, 9960, Note_on_c, 1, 69, 127
1, 9960, Note_on_c, 1, 66, 127
1, 9960, Note_on_c, 1, 56, 127
1, 9986, Note_off_c, 1, 56, 0
1, 9990, Note_on_c, 1, 57, 127
1, 9994, Note_off_c, 1, 69, 0
1, 9994, Note_off_c, 1, 66, 0
1, 10020, Note_on_c, 1, 68, 127
1, 10020, Note_on_c, 1, 65, 127
1, 10020, Note_on_c, 1, 59, 127
1, 10024, Note_off_c, 1, 57, 0
1, 10050, Note_on_c, 1, 61, 127
1, 10054, Note_off_c, 1, 68, 0
1, 10054, Note_off_c, 1, 65, 0
1, 10054, Note_off_c, 1, 59, 0
1, 10080, Note_on_c, 1, 62, 127
1, 10089, Note_off_c, 1, 61, 0
1, 10110, Note_on_c, 1, 64, 127
1, 10119, Note_off_c, 1, 62, 0
1, 10149, Note_off_c, 1, 64, 0
1, 10170, Note_on_c, 1, 70, 127
1, 10200, Note_on_c, 1, 71, 127
1, 10204, Note_off_c, 1, 70, 0
1, 10230, Note_on_c, 1, 73, 127
1, 10230, Note_on_c, 1, 58, 127
1, 10234, Note_off_c, 1, 71, 0
1, 10256, Note_off_c, 1, 58, 0
1, 10260, Note_on_c, 1, 74, 127
1, 10269, Note_off_c, 1, 73, 0
1, 10289, Note_off_c, 1, 74, 0
1, 10290, Note_on_c, 1, 81, 127
1, 10316, Note_off_c, 1, 81, 0
1, 10320, Note_on_c, 1, 71, 127
1, 10320, Note_on_c, 1, 62, 127
1, 10346, Note_off_c, 1, 71, 0
1, 10350, Note_on_c, 1, 81, 127
1, 10354, Note_off_c, 1, 62, 0
1, 10376, Note_off_c, 1, 81, 0
1, 10380, Note_on_c, 1, 71, 127
1, 10380, Note_on_c, 1, 74, 127
1, 10380, Note_on_c, 1, 52, 127
1, 10406, Note_off_c, 1, 71, 0
1, 10409, Note_off_c, 1, 74, 0
1, 10410, Note_on_c, 1, 80, 127
1, 10432, Note_off_c, 1, 52, 0
1, 10436, Note_off_c, 1, 80, 0
1, 10440, Note_on_c, 1, 69, 127
1, 10440, Note_on_c, 1, 73, 127
1, 10440, Note_on_c, 1, 57, 127
1, 10466, Note_off_c, 1, 69, 0
1, 10470, Note_on_c, 1, 80, 127
1, 10474, Note_off_c, 1, 73, 0
1, 10492, Note_off_c, 1, 57, 0
1, 10496, Note_off_c, 1, 80, 0
1, 10500, Note_on_c, 1, 69, 127
1, 10500, Note_on_c, 1, 61, 127
1, 10526, Note_off_c, 1, 69, 0
1, 10529, Note_off_c, 1, 61, 0
1, 10530, Note_on_c, 1, 80, 127
1, 10556, Note_off_c, 1, 80, 0
1, 10560, Note_on_c, 1, 69, 127
1, 10560, Note_on_c, 1, 73, 127
1, 10560, Note_on_c, 1, 62, 127
1, 10586, Note_off_c, 1, 69, 0
1, 10590, Note_on_c, 1, 78, 127
1, 10594, Note_off_c, 1, 73, 0
1, 10616, Note_off_c, 1, 78, 0
1, 10620, Note_on_c, 1, 68, 127
1, 10620, Note_on_c, 1, 71, 127
1, 10646, Note_off_c, 1, 68, 0
1, 10672, Note_off_c, 1, 62, 0
1, 10680, Note_on_c, 1, 77, 127
1, 10680, Note_on_c, 1, 61, 127
1, 10684, Note_off_c, 1, 71, 0
1, 10706, Note_off_c, 1, 77, 0
1, 10710, Note_on_c, 1, 80, 127
1, 10736, Note_off_c, 1, 80, 0
1, 10826, Note_off_c, 1, 61, 0
1, 10830, Note_on_c, 1, 59, 127
1, 10856, Note_off_c, 1, 59, 0
1, 10860, Note_on_c, 1, 57, 127
1, 10886, Note_off_c, 1, 57, 0
1, 10890, Note_on_c, 1, 56, 127
1, 10916, Note_off_c, 1, 56, 0
1, 10920, Note_on_c, 1, 54, 127
1, 10946, Note_off_c, 1, 54, 0
1, 10950, Note_on_c, 1, 52, 127
1, 10976, Note_off_c, 1, 52, 0
1, 10980, Note_on_c, 1, 51, 127
1, 11009, Note_off_c, 1, 51, 0
1, 11010, Note_on_c, 1, 76, 127
1, 11040, Note_on_c, 1, 75, 127
1, 11044, Note_off_c, 1, 76, 0
1, 11069, Note_off_c, 1, 75, 0
1, 11160, Note_on_c, 1, 67, 127
1, 11190, Note_on_c, 1, 66, 127
1, 11194, Note_off_c, 1, 67, 0
1, 11220, Note_on_c, 1, 64, 127
1, 11220, Note_on_c, 1, 55, 127
1, 11229, Note_off_c, 1, 66, 0
1, 11246, Note_off_c, 1, 55, 0
1, 11254, Note_off_c, 1, 64, 0
1, 11280, Note_on_c, 1, 76, 127
1, 11280, Note_on_c, 1, 67, 127
1, 11280, Note_on_c, 1, 52, 127
1, 11306, Note_off_c, 1, 52, 0
1, 11310, Note_on_c, 1, 50, 127
1, 11336, Note_off_c, 1, 50, 0
1, 11340, Note_on_c, 1, 49, 127
1, 11366, Note_off_c, 1, 76, 0
1, 11369, Note_off_c, 1, 49, 0
1, 11370, Note_on_c, 1, 74, 127
1, 11396, Note_off_c, 1, 74, 0
1, 11400, Note_on_c, 1, 73, 127
1, 11400, Note_on_c, 1, 57, 127
1, 11426, Note_off_c, 1, 73, 0
1, 11430, Note_on_c, 1, 71, 127
1, 11456, Note_off_c, 1, 71, 0
1, 11460, Note_on_c, 1, 69, 127
1, 11486, Note_off_c, 1, 67, 0
1, 11520, Note_on_c, 1, 66, 127
1, 11546, Note_off_c, 1, 57, 0
1, 11550, Note_on_c, 1, 64, 127
1, 11550, Note_on_c, 1, 55, 127
1, 11554, Note_off_c, 1, 66, 0
1, 11572, Note_off_c, 1, 69, 0
1, 11576, Note_off_c, 1, 55, 0
1, 11580, Note_on_c, 1, 62, 127
1, 11580, Note_on_c, 1, 54, 127
1, 11584, Note_off_c, 1, 64, 0
1, 11606, Note_off_c, 1, 54, 0
1, 11609, Note_off_c, 1, 62, 0
1, 11640, Note_on_c, 1, 74, 127
1, 11640, Note_on_c, 1, 66, 127
1, 11640, Note_on_c, 1, 50, 127
1, 11666, Note_off_c, 1, 50, 0
1, 11670, Note_on_c, 1, 49, 127
1, 11696, Note_off_c, 1, 49, 0
1, 11700, Note_on_c, 1, 47, 127
1, 11726, Note_off_c, 1, 66, 0
1, 11734, Note_off_c, 1, 47, 0
1, 11760, Note_on_c, 1, 64, 127
1, 11760, Note_on_c, 1, 55, 127
1, 11778, Note_off_c, 1, 74, 0
1, 11820, Note_on_c, 1, 73, 127
1, 11846, Note_off_c, 1, 73, 0
1, 11850, Note_on_c, 1, 71, 127
1, 11876, Note_off_c, 1, 71, 0
1, 11880, Note_on_c, 1, 70, 127
1, 11906, Note_off_c, 1, 64, 0
1, 11932, Note_off_c, 1, 55, 0
1, 11932, Note_off_c, 1, 70, 0
1, 11940, Note_on_c, 1, 62, 127
1, 11940, Note_on_c, 1, 54, 127
1, 11970, Note_on_c, 1, 61, 127
1, 11974, Note_off_c, 1, 62, 0
1, 12000, Note_on_c, 1, 59, 127
1, 12004, Note_off_c, 1, 61, 0
1, 12030, Note_on_c, 1, 58, 127
1, 12034, Note_off_c, 1, 59, 0
1, 12056, Note_off_c, 1, 58, 0
1, 12086, Note_off_c, 1, 54, 0
1, 12090, Note_on_c, 1, 52, 127
1, 12116, Note_off_c, 1, 52, 0
1, 12210, Note_on_c, 1, 45, 127
1, 12236, Note_off_c, 1, 45, 0
1, 12240, Note_on_c, 1, 43, 127
1, 12274, Note_off_c, 1, 43, 0
1, 12330, Note_on_c, 1, 76, 127
1, 12360, Note_on_c, 1, 78, 127
1, 12364, Note_off_c, 1, 76, 0
1, 12390, Note_on_c, 1, 79, 127
1, 12399, Note_off_c, 1, 78, 0
1, 12416, Note_off_c, 1, 79, 0
1, 12450, Note_on_c, 1, 67, 127
1, 12484, Note_off_c, 1, 67, 0
1, 12600, Note_on_c, 1, 62, 127
1, 12629, Note_off_c, 1, 62, 0
1, 12630, Note_on_c, 1, 47, 127
1, 12656, Note_off_c, 1, 47, 0
1, 12660, Note_on_c, 1, 59, 127
1, 12660, Note_on_c, 1, 49, 127
1, 12686, Note_off_c, 1, 49, 0
1, 12689, Note_off_c, 1, 59, 0
1, 12690, Note_on_c, 1, 50, 127
1, 12716, Note_off_c, 1, 50, 0
1, 12720, Note_on_c, 1, 58, 127
1, 12720, Note_on_c, 1, 52, 127
1, 12746, Note_off_c, 1, 52, 0
1, 12750, Note_on_c, 1, 54, 127
1, 12754, Note_off_c, 1, 58, 0
1, 12776, Note_off_c, 1, 54, 0
1, 12780, Note_on_c, 1, 59, 127
1, 12780, Note_on_c, 1, 55, 127
1, 12809, Note_off_c, 1, 55, 0
1, 12840, Note_on_c, 1, 61, 127
1, 12840, Note_on_c, 1, 52, 127
1, 12844, Note_off_c, 1, 59, 0
1, 12870, Note_on_c, 1, 63, 127
1, 12874, Note_off_c, 1, 61, 0
1, 12874, Note_off_c, 1, 52, 0
1, 12900, Note_on_c, 1, 64, 127
1, 12900, Note_on_c, 1, 51, 127
1, 12904, Note_off_c, 1, 63, 0
1, 12930, Note_on_c, 1, 66, 127
1, 12934, Note_off_c, 1, 64, 0
1, 12934, Note_off_c, 1, 51, 0
1, 12960, Note_on_c, 1, 67, 127
1, 12964, Note_off_c, 1, 66, 0
1, 12994, Note_off_c, 1, 67, 0
1, 13020, Note_on_c, 1, 64, 127
1, 13020, Note_on_c, 1, 54, 127
1, 13050, Note_on_c, 1, 55, 127
1, 13054, Note_off_c, 1, 64, 0
1, 13054, Note_off_c, 1, 54, 0
1, 13080, Note_on_c, 1, 63, 127
1, 13080, Note_on_c, 1, 57, 127
1, 13084, Note_off_c, 1, 55, 0
1, 13110, Note_on_c, 1, 59, 127
1, 13114, Note_off_c, 1, 63, 0
1, 13114, Note_off_c, 1, 57, 0
1, 13136, Note_off_c, 1, 59, 0
1, 13140, Note_on_c, 1, 64, 127
1, 13140, Note_on_c, 1, 60, 127
1, 13170, Note_on_c, 1, 79, 127
1, 13174, Note_off_c, 1, 64, 0
1, 13174, Note_off_c, 1, 60, 0
1, 13196, Note_off_c, 1, 79, 0
1, 13200, Note_on_c, 1, 69, 127
1, 13200, Note_on_c, 1, 48, 127
1, 13226, Note_off_c, 1, 69, 0
1, 13230, Note_on_c, 1, 79, 127
1, 13234, Note_off_c, 1, 48, 0
1, 13256, Note_off_c, 1, 79, 0
1, 13260, Note_on_c, 1, 69, 127
1, 13260, Note_on_c, 1, 64, 127
1, 13260, Note_on_c, 1, 60, 127
1, 13286, Note_off_c, 1, 69, 0
1, 13289, Note_off_c, 1, 60, 0
1, 13290, Note_on_c, 1, 78, 127
1, 13294, Note_off_c, 1, 64, 0
1, 13316, Note_off_c, 1, 78, 0
1, 13320, Note_on_c, 1, 67, 127
1, 13320, Note_on_c, 1, 63, 127
1, 13320, Note_on_c, 1, 59, 127
1, 13346, Note_off_c, 1, 67, 0
1, 13349, Note_off_c, 1, 63, 0
1, 13350, Note_on_c, 1, 78, 127
1, 13354, Note_off_c, 1, 59, 0
1, 13376, Note_off_c, 1, 78, 0
1, 13380, Note_on_c, 1, 67, 127
1, 13380, Note_on_c, 1, 47, 127
1, 13406, Note_off_c, 1, 67, 0
1, 13410, Note_on_c, 1, 78, 127
1, 13414, Note_off_c, 1, 47, 0
1, 13436, Note_off_c, 1, 78, 0
1, 13440, Note_on_c, 1, 67, 127
1, 13440, Note_on_c, 1, 64, 127
1, 13440, Note_on_c, 1, 59, 127
1, 13466, Note_off_c, 1, 67, 0
1, 13470, Note_on_c, 1, 76, 127
1, 13474, Note_off_c, 1, 64, 0
1, 13479, Note_off_c, 1, 59, 0
1, 13496, Note_off_c, 1, 76, 0
1, 13500, Note_on_c, 1, 66, 127
1, 13500, Note_on_c, 1, 57, 127
1, 13530, Note_on_c, 1, 76, 127
1, 13556, Note_off_c, 1, 76, 0
1, 13560, Note_on_c, 1, 75, 127
1, 13560, Note_on_c, 1, 59, 127
1, 13564, Note_off_c, 1, 57, 0
1, 13586, Note_off_c, 1, 75, 0
1, 13589, Note_off_c, 1, 59, 0
1, 13590, Note_on_c, 1, 78, 127
1, 13616, Note_off_c, 1, 78, 0
1, 13620, Note_on_c, 1, 71, 127
1, 13620, Note_on_c, 1, 55, 127
1, 13646, Note_off_c, 1, 71, 0
1, 13646, Note_off_c, 1, 55, 0
1, 13650, Note_on_c, 1, 54, 127
1, 13665, Note_off_c, 1, 66, 0
1, 13679, Note_off_c, 1, 54, 0
1, 13680, Note_on_c, 1, 76, 127
1, 13680, Note_on_c, 1, 59, 127
1, 13680, Note_on_c, 1, 55, 127
1, 13706, Note_off_c, 1, 76, 0
1, 13709, Note_off_c, 1, 59, 0
1, 13710, Note_on_c, 1, 75, 127
1, 13714, Note_off_c, 1, 55, 0
1, 13736, Note_off_c, 1, 75, 0
1, 13740, Note_on_c, 1, 76, 127
1, 13740, Note_on_c, 1, 43, 127
1, 13766, Note_off_c, 1, 76, 0
1, 13769, Note_off_c, 1, 43, 0
1, 13770, Note_on_c, 1, 79, 127
1, 13796, Note_off_c, 1, 79, 0
1, 13800, Note_on_c, 1, 83, 127
1, 13800, Note_on_c, 1, 64, 127
1, 13800, Note_on_c, 1, 55, 127
1, 13826, Note_off_c, 1, 83, 0
1, 13830, Note_on_c, 1, 74, 127
1, 13834, Note_off_c, 1, 64, 0
1, 13856, Note_off_c, 1, 74, 0
1, 13860, Note_on_c, 1, 73, 127
1, 13860, Note_on_c, 1, 69, 127
1, 13886, Note_off_c, 1, 73, 0
1, 13890, Note_on_c, 1, 71, 127
1, 13894, Note_off_c, 1, 69, 0
1, 13916, Note_off_c, 1, 71, 0
1, 13920, Note_on_c, 1, 57, 127
1, 13924, Note_off_c, 1, 55, 0
1, 13950, Note_on_c, 1, 76, 127
1, 13954, Note_off_c, 1, 57, 0
1, 13976, Note_off_c, 1, 76, 0
1, 13980, Note_on_c, 1, 54, 127
1, 14010, Note_on_c, 1, 52, 127
1, 14014, Note_off_c, 1, 54, 0
1, 14036, Note_off_c, 1, 52, 0
1, 14040, Note_on_c, 1, 74, 127
1, 14040, Note_on_c, 1, 57, 127
1, 14040, Note_on_c, 1, 54, 127
1, 14066, Note_off_c, 1, 74, 0
1, 14070, Note_on_c, 1, 73, 127
1, 14074, Note_off_c, 1, 57, 0
1, 14074, Note_off_c, 1, 54, 0
1, 14096, Note_off_c, 1, 73, 0
1, 14100, Note_on_c, 1, 74, 127
1, 14100, Note_on_c, 1, 42, 127
1, 14126, Note_off_c, 1, 74, 0
1, 14130, Note_on_c, 1, 78, 127
1, 14134, Note_off_c, 1, 42, 0
1, 14156, Note_off_c, 1, 78, 0
1, 14160, Note_on_c, 1, 81, 127
1, 14160, Note_on_c, 1, 62, 127
1, 14160, Note_on_c, 1, 54, 127
1, 14186, Note_off_c, 1, 81, 0
1, 14189, Note_off_c, 1, 62, 0
1, 14190, Note_on_c, 1, 73, 127
1, 14216, Note_off_c, 1, 73, 0
1, 14220, Note_on_c, 1, 71, 127
1, 14220, Note_on_c, 1, 67, 127
1, 14246, Note_off_c, 1, 71, 0
1, 14250, Note_on_c, 1, 70, 127
1, 14276, Note_off_c, 1, 70, 0
1, 14279, Note_off_c, 1, 54, 0
1, 14280, Note_on_c, 1, 52, 127
1, 14310, Note_on_c, 1, 74, 127
1, 14336, Note_off_c, 1, 74, 0
1, 14340, Note_on_c, 1, 50, 127
1, 14344, Note_off_c, 1, 52, 0
1, 14400, Note_on_c, 1, 49, 127
1, 14404, Note_off_c, 1, 50, 0
1, 14426, Note_off_c, 1, 49, 0
1, 14452, Note_off_c, 1, 67, 0
1, 14460, Note_on_c, 1, 73, 127
1, 14460, Note_on_c, 1, 52, 127
1, 14486, Note_off_c, 1, 73, 0
1, 14486, Note_off_c, 1, 52, 0
1, 14490, Note_on_c, 1, 74, 127
1, 14490, Note_on_c, 1, 54, 127
1, 14516, Note_off_c, 1, 74, 0
1, 14516, Note_off_c, 1, 54, 0
1, 14520, Note_on_c, 1, 76, 127
1, 14520, Note_on_c, 1, 55, 127
1, 14546, Note_off_c, 1, 55, 0
1, 14550, Note_on_c, 1, 67, 127
1, 14550, Note_on_c, 1, 47, 127
1, 14576, Note_off_c, 1, 47, 0
1, 14580, Note_on_c, 1, 66, 127
1, 14580, Note_on_c, 1, 46, 127
1, 14584, Note_off_c, 1, 67, 0
1, 14606, Note_off_c, 1, 46, 0
1, 14614, Note_off_c, 1, 66, 0
1, 14632, Note_off_c, 1, 76, 0
1, 14640, Note_on_c, 1, 73, 127
1, 14640, Note_on_c, 1, 70, 127
1, 14640, Note_on_c, 1, 54, 127
1, 14666, Note_off_c, 1, 54, 0
1, 14670, Note_on_c, 1, 52, 127
1, 14674, Note_off_c, 1, 73, 0
1, 14696, Note_off_c, 1, 52, 0
1, 14700, Note_on_c, 1, 78, 127
1, 14700, Note_on_c, 1, 50, 127
1, 14726, Note_off_c, 1, 50, 0
1, 14729, Note_off_c, 1, 78, 0
1, 14730, Note_on_c, 1, 49, 127
1, 14745, Note_off_c, 1, 70, 0
1, 14756, Note_off_c, 1, 49, 0
1, 14760, Note_on_c, 1, 74, 127
1, 14760, Note_on_c, 1, 71, 127
1, 14760, Note_on_c, 1, 47, 127
1, 14786, Note_off_c, 1, 47, 0
1, 14790, Note_on_c, 1, 49, 127
1, 14794, Note_off_c, 1, 74, 0
1, 14812, Note_off_c, 1, 71, 0
1, 14816, Note_off_c, 1, 49, 0
1, 14820, Note_on_c, 1, 71, 127
1, 14820, Note_on_c, 1, 50, 127
1, 14846, Note_off_c, 1, 50, 0
1, 14849, Note_off_c, 1, 71, 0
1, 14850, Note_on_c, 1, 52, 127
1, 14876, Note_off_c, 1, 52, 0
1, 14880, Note_on_c, 1, 70, 127
1, 14880, Note_on_c, 1, 54, 127
1, 14906, Note_off_c, 1, 54, 0
1, 14909, Note_off_c, 1, 70, 0
1, 14910, Note_on_c, 1, 52, 127
1, 14936, Note_off_c, 1, 52, 0
1, 14940, Note_on_c, 1, 71, 127
1, 14940, Note_on_c, 1, 50, 127
1, 14966, Note_off_c, 1, 50, 0
1, 14970, Note_on_c, 1, 54, 127
1, 14992, Note_off_c, 1, 71, 0
1, 14996, Note_off_c, 1, 54, 0
1, 15000, Note_on_c, 1, 73, 127
1, 15000, Note_on_c, 1, 52, 127
1, 15026, Note_off_c, 1, 73, 0
1, 15026, Note_off_c, 1, 52, 0
1, 15030, Note_on_c, 1, 74, 127
1, 15030, Note_on_c, 1, 50, 127
1, 15056, Note_off_c, 1, 74, 0
1, 15056, Note_off_c, 1, 50, 0
1, 15060, Note_on_c, 1, 76, 127
1, 15060, Note_on_c, 1, 49, 127
1, 15086, Note_off_c, 1, 76, 0
1, 15086, Note_off_c, 1, 49, 0
1, 15090, Note_on_c, 1, 78, 127
1, 15090, Note_on_c, 1, 47, 127
1, 15116, Note_off_c, 1, 78, 0
1, 15116, Note_off_c, 1, 47, 0
1, 15120, Note_on_c, 1, 79, 127
1, 15120, Note_on_c, 1, 52, 127
1, 15150, Note_on_c, 1, 74, 127
1, 15154, Note_off_c, 1, 79, 0
1, 15172, Note_off_c, 1, 52, 0
1, 15176, Note_off_c, 1, 74, 0
1, 15180, Note_on_c, 1, 67, 127
1, 15180, Note_on_c, 1, 64, 127
1, 15206, Note_off_c, 1, 64, 0
1, 15210, Note_on_c, 1, 74, 127
1, 15214, Note_off_c, 1, 67, 0
1, 15236, Note_off_c, 1, 74, 0
1, 15240, Note_on_c, 1, 79, 127
1, 15240, Note_on_c, 1, 64, 127
1, 15240, Note_on_c, 1, 57, 127
1, 15266, Note_off_c, 1, 64, 0
1, 15270, Note_on_c, 1, 73, 127
1, 15274, Note_off_c, 1, 79, 0
1, 15292, Note_off_c, 1, 57, 0
1, 15296, Note_off_c, 1, 73, 0
1, 15300, Note_on_c, 1, 78, 127
1, 15300, Note_on_c, 1, 62, 127
1, 15300, Note_on_c, 1, 50, 127
1, 15326, Note_off_c, 1, 62, 0
1, 15330, Note_on_c, 1, 73, 127
1, 15334, Note_off_c, 1, 78, 0
1, 15352, Note_off_c, 1, 50, 0
1, 15356, Note_off_c, 1, 73, 0
1, 15360, Note_on_c, 1, 66, 127
1, 15360, Note_on_c, 1, 62, 127
1, 15386, Note_off_c, 1, 62, 0
1, 15390, Note_on_c, 1, 73, 127
1, 15394, Note_off_c, 1, 66, 0
1, 15416, Note_off_c, 1, 73, 0
1, 15420, Note_on_c, 1, 78, 127
1, 15420, Note_on_c, 1, 62, 127
1, 15420, Note_on_c, 1, 55, 127
1, 15446, Note_off_c, 1, 62, 0
1, 15450, Note_on_c, 1, 71, 127
1, 15454, Note_off_c, 1, 78, 0
1, 15472, Note_off_c, 1, 55, 0
1, 15476, Note_off_c, 1, 71, 0
1, 15480, Note_on_c, 1, 76, 127
1, 15480, Note_on_c, 1, 61, 127
1, 15480, Note_on_c, 1, 49, 127
1, 15506, Note_off_c, 1, 49, 0
1, 15510, Note_on_c, 1, 59, 127
1, 15532, Note_off_c, 1, 76, 0
1, 15532, Note_off_c, 1, 61, 0
1, 15536, Note_off_c, 1, 59, 0
1, 15540, Note_on_c, 1, 78, 127
1, 15540, Note_on_c, 1, 73, 127
1, 15540, Note_on_c, 1, 58, 127
1, 15566, Note_off_c, 1, 78, 0
1, 15566, Note_off_c, 1, 58, 0
1, 15570, Note_on_c, 1, 76, 127
1, 15570, Note_on_c, 1, 61, 127
1, 15596, Note_off_c, 1, 76, 0
1, 15596, Note_off_c, 1, 61, 0
1, 15600, Note_on_c, 1, 74, 127
1, 15600, Note_on_c, 1, 54, 127
1, 15626, Note_off_c, 1, 74, 0
1, 15626, Note_off_c, 1, 54, 0
1, 15660, Note_on_c, 1, 47, 127
1, 15686, Note_off_c, 1, 47, 0
1, 15690, Note_on_c, 1, 59, 127
1, 15716, Note_off_c, 1, 59, 0
1, 15720, Note_on_c, 1, 71, 127
1, 15720, Note_on_c, 1, 49, 127
1, 15724, Note_off_c, 1, 73, 0
1, 15746, Note_off_c, 1, 49, 0
1, 15780, Note_on_c, 1, 69, 127
1, 15780, Note_on_c, 1, 50, 127
1, 15784, Note_off_c, 1, 71, 0
1, 15806, Note_off_c, 1, 50, 0
1, 15840, Note_on_c, 1, 67, 127
1, 15840, Note_on_c, 1, 52, 127
1, 15844, Note_off_c, 1, 69, 0
1, 15866, Note_off_c, 1, 52, 0
1, 15904, Note_off_c, 1, 67, 0
1, 15960, Note_on_c, 1, 55, 127
1, 15986, Note_off_c, 1, 55, 0
1, 16020, Note_on_c, 1, 45, 127
1, 16046, Note_off_c, 1, 45, 0
1, 16050, Note_on_c, 1, 57, 127
1, 16076, Note_off_c, 1, 57, 0
1, 16200, Note_on_c, 1, 66, 127
1, 16264, Note_off_c, 1, 66, 0
1, 16440, Note_on_c, 1, 62, 127
1, 16474, Note_off_c, 1, 62, 0
1, 16500, Note_on_c, 1, 73, 127
1, 16500, Note_on_c, 1, 67, 127
1, 16500, Note_on_c, 1, 54, 127
1, 16526, Note_off_c, 1, 54, 0
1, 16530, Note_on_c, 1, 52, 127
1, 16556, Note_off_c, 1, 52, 0
1, 16559, Note_off_c, 1, 73, 0
1, 16560, Note_on_c, 1, 74, 127
1, 16590, Note_on_c, 1, 57, 127
1, 16594, Note_off_c, 1, 74, 0
1, 16616, Note_off_c, 1, 57, 0
1, 16620, Note_on_c, 1, 69, 127
1, 16620, Note_on_c, 1, 66, 127
1, 16620, Note_on_c, 1, 62, 127
1, 16624, Note_off_c, 1, 67, 0
1, 16646, Note_off_c, 1, 62, 0
1, 16679, Note_off_c, 1, 69, 0
1, 16680, Note_on_c, 1, 71, 127
1, 16680, Note_on_c, 1, 65, 127
1, 16680, Note_on_c, 1, 56, 127
1, 16684, Note_off_c, 1, 66, 0
1, 16706, Note_off_c, 1, 56, 0
1, 16739, Note_off_c, 1, 71, 0
1, 16740, Note_on_c, 1, 72, 127
1, 16770, Note_on_c, 1, 60, 127
1, 16796, Note_off_c, 1, 60, 0
1, 16799, Note_off_c, 1, 72, 0
1, 16800, Note_on_c, 1, 64, 127
1, 16800, Note_on_c, 1, 59, 127
1, 16804, Note_off_c, 1, 65, 0
1, 16826, Note_off_c, 1, 59, 0
1, 16834, Note_off_c, 1, 64, 0
1, 16860, Note_on_c, 1, 75, 127
1, 16860, Note_on_c, 1, 69, 127
1, 16860, Note_on_c, 1, 55, 127
1, 16886, Note_off_c, 1, 55, 0
1, 16890, Note_on_c, 1, 54, 127
1, 16916, Note_off_c, 1, 54, 0
1, 16920, Note_on_c, 1, 76, 127
1, 16920, Note_on_c, 1, 56, 127
1, 16924, Note_off_c, 1, 75, 0
1, 16946, Note_off_c, 1, 56, 0
1, 16950, Note_on_c, 1, 59, 127
1, 16959, Note_off_c, 1, 76, 0
1, 16976, Note_off_c, 1, 59, 0
1, 16980, Note_on_c, 1, 71, 127
1, 16980, Note_on_c, 1, 68, 127
1, 16980, Note_on_c, 1, 64, 127
1, 16984, Note_off_c, 1, 69, 0
1, 17006, Note_off_c, 1, 64, 0
1, 17039, Note_off_c, 1, 71, 0
1, 17040, Note_on_c, 1, 73, 127
1, 17040, Note_on_c, 1, 67, 127
1, 17040, Note_on_c, 1, 58, 127
1, 17044, Note_off_c, 1, 68, 0
1, 17066, Note_off_c, 1, 58, 0
1, 17099, Note_off_c, 1, 73, 0
1, 17100, Note_on_c, 1, 74, 127
1, 17130, Note_on_c, 1, 62, 127
1, 17156, Note_off_c, 1, 62, 0
1, 17159, Note_off_c, 1, 74, 0
1, 17160, Note_on_c, 1, 66, 127
1, 17160, Note_on_c, 1, 61, 127
1, 17164, Note_off_c, 1, 67, 0
1, 17186, Note_off_c, 1, 61, 0
1, 17194, Note_off_c, 1, 66, 0
1, 17220, Note_on_c, 1, 77, 127
1, 17220, Note_on_c, 1, 71, 127
1, 17220, Note_on_c, 1, 58, 127
1, 17246, Note_off_c, 1, 58, 0
1, 17250, Note_on_c, 1, 56, 127
1, 17276, Note_off_c, 1, 56, 0
1, 17279, Note_off_c, 1, 77, 0
1, 17280, Note_on_c, 1, 78, 127
1, 17280, Note_on_c, 1, 54, 127
1, 17306, Note_off_c, 1, 54, 0
1, 17310, Note_on_c, 1, 55, 127
1, 17336, Note_off_c, 1, 55, 0
1, 17339, Note_off_c, 1, 71, 0
1, 17340, Note_on_c, 1, 70, 127
1, 17370, Note_on_c, 1, 52, 127
1, 17379, Note_off_c, 1, 70, 0
1, 17385, Note_off_c, 1, 78, 0
1, 17396, Note_off_c, 1, 52, 0
1, 17400, Note_on_c, 1, 66, 127
1, 17400, Note_on_c, 1, 50, 127
1, 17426, Note_off_c, 1, 50, 0
1, 17430, Note_on_c, 1, 49, 127
1, 17434, Note_off_c, 1, 66, 0
1, 17456, Note_off_c, 1, 49, 0
1, 17460, Note_on_c, 1, 62, 127
1, 17460, Note_on_c, 1, 47, 127
1, 17486, Note_off_c, 1, 47, 0
1, 17490, Note_on_c, 1, 49, 127
1, 17494, Note_off_c, 1, 62, 0
1, 17516, Note_off_c, 1, 49, 0
1, 17520, Note_on_c, 1, 59, 127
1, 17520, Note_on_c, 1, 50, 127
1, 17546, Note_off_c, 1, 50, 0
1, 17550, Note_on_c, 1, 52, 127
1, 17554, Note_off_c, 1, 59, 0
1, 17576, Note_off_c, 1, 52, 0
1, 17580, Note_on_c, 1, 58, 127
1, 17580, Note_on_c, 1, 54, 127
1, 17606, Note_off_c, 1, 54, 0
1, 17610, Note_on_c, 1, 52, 127
1, 17614, Note_off_c, 1, 58, 0
1, 17636, Note_off_c, 1, 52, 0
1, 17640, Note_on_c, 1, 59, 127
1, 17640, Note_on_c, 1, 50, 127
1, 17666, Note_off_c, 1, 59, 0
1, 17670, Note_on_c, 1, 71, 127
1, 17674, Note_off_c, 1, 50, 0
1, 17700, Note_on_c, 1, 70, 127
1, 17700, Note_on_c, 1, 47, 127
1, 17709, Note_off_c, 1, 71, 0
1, 17729, Note_off_c, 1, 47, 0
1, 17739, Note_off_c, 1, 70, 0
1, 17760, Note_on_c, 1, 73, 127
1, 17760, Note_on_c, 1, 46, 127
1, 17790, Note_on_c, 1, 78, 127
1, 17794, Note_off_c, 1, 46, 0
1, 17812, Note_off_c, 1, 73, 0
1, 17816, Note_off_c, 1, 78, 0
1, 17820, Note_on_c, 1, 76, 127
1, 17820, Note_on_c, 1, 47, 127
1, 17846, Note_off_c, 1, 76, 0
1, 17849, Note_off_c, 1, 47, 0
1, 17850, Note_on_c, 1, 74, 127
1, 17876, Note_off_c, 1, 74, 0
1, 17880, Note_on_c, 1, 73, 127
1, 17880, Note_on_c, 1, 66, 127
1, 17880, Note_on_c, 1, 38, 127
1, 17906, Note_off_c, 1, 73, 0
1, 17909, Note_off_c, 1, 66, 0
1, 17910, Note_on_c, 1, 71, 127
1, 17914, Note_off_c, 1, 38, 0
1, 17936, Note_off_c, 1, 71, 0
1, 17940, Note_on_c, 1, 73, 127
1, 17940, Note_on_c, 1, 64, 127
1, 17940, Note_on_c, 1, 42, 127
1, 17966, Note_off_c, 1, 73, 0
1, 17969, Note_off_c, 1, 64, 0
1, 17969, Note_off_c, 1, 42, 0
1, 17970, Note_on_c, 1, 70, 127
1, 17996, Note_off_c, 1, 70, 0
1, 18000, Note_on_c, 1, 70, 127
1, 18000, Note_on_c, 1, 64, 127
1, 18000, Note_on_c, 1, 35, 127
1, 18060, Note_on_c, 1, 71, 127
1, 18060, Note_on_c, 1, 63, 127
1, 18064, Note_off_c, 1, 70, 0
1, 18064, Note_off_c, 1, 64, 0
1, 18239, Note_off_c, 1, 35, 0
1, 18239, Note_off_c, 1, 71, 0
1, 18239, Note_off_c, 1, 63, 0
1, 18239, End_track
0, 0, End_of_file