0, 0, Header, 1, 1, 480
1, 0, Start_track
1, 0, Title_t, "Test"
1, 0, Tempo, 500000
1, 0, Instrument_name_t, "Church Organ"
1, 123, Note_on_c, 1, 64, 127
1, 194, Note_off_c, 1, 64, 0
1, 243, Note_on_c, 1, 60, 127
1, 314, Note_off_c, 1, 60, 0
1, 363, Note_on_c, 1, 65, 127
1, 434, Note_off_c, 1, 65, 0
1, 483, Note_on_c, 1, 56, 127
1, 554, Note_off_c, 1, 56, 0
1, 783, Note_on_c, 1, 62, 127
1, 814, Note_off_c, 1, 62, 0
1, 843, Note_on_c, 1, 59, 127
1, 874, Note_off_c, 1, 59, 0
1, 903, Note_on_c, 1, 64, 127
1, 934, Note_off_c, 1, 64, 0
1, 963, Note_on_c, 1, 60, 127
1, 994, Note_off_c, 1, 60, 0
1, 1023, Note_on_c, 1, 57, 127
1, 1054, Note_off_c, 1, 57, 0
1, 1083, Note_on_c, 1, 69, 127
1, 1083, Note_on_c, 1, 54, 127
1, 1110, Note_off_c, 1, 54, 0
1, 1143, Note_on_c, 1, 63, 127
1, 1154, Note_off_c, 1, 69, 0
1, 1166, Note_off_c, 1, 63, 0
1, 1203, Note_on_c, 1, 67, 127
1, 1203, Note_on_c, 1, 52, 127
1, 1230, Note_off_c, 1, 52, 0
1, 1263, Note_on_c, 1, 64, 127
1, 1274, Note_off_c, 1, 67, 0
1, 1276, Note_off_c, 1, 64, 0
1, 1278, Note_on_c, 1, 62, 127
1, 1291, Note_off_c, 1, 62, 0
1, 1293, Note_on_c, 1, 60, 127
1, 1306, Note_off_c, 1, 60, 0
1, 1308, Note_on_c, 1, 59, 127
1, 1321, Note_off_c, 1, 59, 0
1, 1323, Note_on_c, 1, 72, 127
1, 1323, Note_on_c, 1, 57, 127
1, 1350, Note_off_c, 1, 57, 0
1, 1383, Note_on_c, 1, 60, 127
1, 1390, Note_off_c, 1, 72, 0
1, 1396, Note_off_c, 1, 60, 0
1, 1398, Note_on_c, 1, 59, 127
1, 1411, Note_off_c, 1, 59, 0
1, 1413, Note_on_c, 1, 57, 127
1, 1426, Note_off_c, 1, 57, 0
1, 1428, Note_on_c, 1, 55, 127
1, 1441, Note_off_c, 1, 55, 0
1, 1443, Note_on_c, 1, 63, 127
1, 1443, Note_on_c, 1, 54, 127
1, 1456, Note_off_c, 1, 54, 0
1, 1458, Note_on_c, 1, 55, 127
1, 1471, Note_off_c, 1, 55, 0
1, 1473, Note_on_c, 1, 57, 127
1, 1512, Note_off_c, 1, 57, 0
1, 1514, Note_off_c, 1, 63, 0
1, 1518, Note_on_c, 1, 55, 127
1, 1531, Note_off_c, 1, 55, 0
1, 1533, Note_on_c, 1, 54, 127
1, 1546, Note_off_c, 1, 54, 0
1, 1548, Note_on_c, 1, 52, 127
1, 1561, Note_off_c, 1, 52, 0
1, 1563, Note_on_c, 1, 51, 127
1, 1576, Note_off_c, 1, 51, 0
1, 1578, Note_on_c, 1, 52, 127
1, 1591, Note_off_c, 1, 52, 0
1, 1593, Note_on_c, 1, 54, 127
1, 1632, Note_off_c, 1, 54, 0
1, 1638, Note_on_c, 1, 52, 127
1, 1651, Note_off_c, 1, 52, 0
1, 1653, Note_on_c, 1, 51, 127
1, 1666, Note_off_c, 1, 51, 0
1, 1668, Note_on_c, 1, 49, 127
1, 1681, Note_off_c, 1, 49, 0
1, 1683, Note_on_c, 1, 47, 127
1, 1743, Note_on_c, 1, 69, 127
1, 1766, Note_off_c, 1, 69, 0
1, 1773, Note_on_c, 1, 49, 127
1, 1774, Note_off_c, 1, 47, 0
1, 1786, Note_off_c, 1, 49, 0
1, 1788, Note_on_c, 1, 51, 127
1, 1801, Note_off_c, 1, 51, 0
1, 1803, Note_on_c, 1, 66, 127
1, 1803, Note_on_c, 1, 52, 127
1, 1830, Note_off_c, 1, 66, 0
1, 1831, Note_on_c, 1, 51, 127
1, 1838, Note_off_c, 1, 52, 0
1, 1846, Note_off_c, 1, 51, 0
1, 1863, Note_on_c, 1, 71, 127
1, 1890, Note_off_c, 1, 71, 0
1, 1893, Note_on_c, 1, 49, 127
1, 1906, Note_off_c, 1, 49, 0
1, 1908, Note_on_c, 1, 51, 127
1, 1921, Note_off_c, 1, 51, 0
1, 1923, Note_on_c, 1, 67, 127
1, 1923, Note_on_c, 1, 52, 127
1, 1950, Note_off_c, 1, 67, 0
1, 1975, Note_off_c, 1, 52, 0
1, 1983, Note_on_c, 1, 64, 127
1, 1998, Note_on_c, 1, 52, 127
1, 2006, Note_off_c, 1, 64, 0
1, 2011, Note_off_c, 1, 52, 0
1, 2013, Note_on_c, 1, 53, 127
1, 2026, Note_off_c, 1, 53, 0
1, 2028, Note_on_c, 1, 55, 127
1, 2041, Note_off_c, 1, 55, 0
1, 2043, Note_on_c, 1, 61, 127
1, 2043, Note_on_c, 1, 57, 127
1, 2070, Note_off_c, 1, 61, 0
1, 2103, Note_on_c, 1, 69, 127
1, 2114, Note_off_c, 1, 57, 0
1, 2118, Note_on_c, 1, 55, 127
1, 2130, Note_off_c, 1, 69, 0
1, 2131, Note_off_c, 1, 55, 0
1, 2133, Note_on_c, 1, 53, 127
1, 2146, Note_off_c, 1, 53, 0
1, 2148, Note_on_c, 1, 52, 127
1, 2161, Note_off_c, 1, 52, 0
1, 2163, Note_on_c, 1, 65, 127
1, 2163, Note_on_c, 1, 50, 127
1, 2186, Note_off_c, 1, 65, 0
1, 2194, Note_off_c, 1, 50, 0
1, 2223, Note_on_c, 1, 62, 127
1, 2238, Note_on_c, 1, 50, 127
1, 2246, Note_off_c, 1, 62, 0
1, 2251, Note_off_c, 1, 50, 0
1, 2253, Note_on_c, 1, 52, 127
1, 2266, Note_off_c, 1, 52, 0
1, 2268, Note_on_c, 1, 53, 127
1, 2281, Note_off_c, 1, 53, 0
1, 2283, Note_on_c, 1, 59, 127
1, 2283, Note_on_c, 1, 55, 127
1, 2306, Note_off_c, 1, 59, 0
1, 2318, Note_off_c, 1, 55, 0
1, 2343, Note_on_c, 1, 67, 127
1, 2358, Note_on_c, 1, 53, 127
1, 2366, Note_off_c, 1, 67, 0
1, 2371, Note_off_c, 1, 53, 0
1, 2373, Note_on_c, 1, 52, 127
1, 2386, Note_off_c, 1, 52, 0
1, 2388, Note_on_c, 1, 50, 127
1, 2401, Note_off_c, 1, 50, 0
1, 2403, Note_on_c, 1, 64, 127
1, 2403, Note_on_c, 1, 48, 127
1, 2430, Note_off_c, 1, 64, 0
1, 2463, Note_on_c, 1, 69, 127
1, 2481, Note_off_c, 1, 48, 0
1, 2493, Note_on_c, 1, 50, 127
1, 2519, Note_off_c, 1, 50, 0
1, 2523, Note_on_c, 1, 76, 127
1, 2523, Note_on_c, 1, 52, 127
1, 2549, Note_off_c, 1, 52, 0
1, 2553, Note_on_c, 1, 53, 127
1, 2566, Note_off_c, 1, 53, 0
1, 2568, Note_off_c, 1, 69, 0
1, 2582, Note_off_c, 1, 76, 0
1, 2583, Note_on_c, 1, 68, 127
1, 2583, Note_on_c, 1, 50, 127
1, 2609, Note_off_c, 1, 50, 0
1, 2610, Note_off_c, 1, 68, 0
1, 2613, Note_on_c, 1, 52, 127
1, 2639, Note_off_c, 1, 52, 0
1, 2643, Note_on_c, 1, 72, 127
1, 2643, Note_on_c, 1, 57, 127
1, 2643, Note_on_c, 1, 53, 127
1, 2695, Note_off_c, 1, 57, 0
1, 2702, Note_off_c, 1, 72, 0
1, 2703, Note_on_c, 1, 69, 127
1, 2716, Note_off_c, 1, 69, 0
1, 2718, Note_on_c, 1, 67, 127
1, 2731, Note_off_c, 1, 67, 0
1, 2733, Note_on_c, 1, 65, 127
1, 2746, Note_off_c, 1, 65, 0
1, 2748, Note_off_c, 1, 53, 0
1, 2748, Note_on_c, 1, 64, 127
1, 2761, Note_off_c, 1, 64, 0
1, 2763, Note_on_c, 1, 77, 127
1, 2763, Note_on_c, 1, 62, 127
1, 2790, Note_off_c, 1, 62, 0
1, 2823, Note_on_c, 1, 65, 127
1, 2826, Note_off_c, 1, 77, 0
1, 2836, Note_off_c, 1, 65, 0
1, 2838, Note_on_c, 1, 64, 127
1, 2851, Note_off_c, 1, 64, 0
1, 2853, Note_on_c, 1, 62, 127
1, 2866, Note_off_c, 1, 62, 0
1, 2868, Note_on_c, 1, 60, 127
1, 2881, Note_off_c, 1, 60, 0
1, 2883, Note_on_c, 1, 68, 127
1, 2883, Note_on_c, 1, 59, 127
1, 2896, Note_off_c, 1, 59, 0
1, 2898, Note_on_c, 1, 60, 127
1, 2911, Note_off_c, 1, 60, 0
1, 2913, Note_on_c, 1, 62, 127
1, 2943, Note_on_c, 1, 53, 127
1, 2946, Note_off_c, 1, 68, 0
1, 2960, Note_off_c, 1, 62, 0
1, 2962, Note_off_c, 1, 53, 0
1, 2973, Note_on_c, 1, 59, 127
1, 2986, Note_off_c, 1, 59, 0
1, 2988, Note_on_c, 1, 57, 127
1, 3001, Note_off_c, 1, 57, 0
1, 3003, Note_on_c, 1, 56, 127
1, 3003, Note_on_c, 1, 47, 127
1, 3016, Note_off_c, 1, 56, 0
1, 3018, Note_on_c, 1, 57, 127
1, 3030, Note_off_c, 1, 47, 0
1, 3031, Note_off_c, 1, 57, 0
1, 3033, Note_on_c, 1, 59, 127
1, 3063, Note_on_c, 1, 50, 127
1, 3078, Note_on_c, 1, 57, 127
1, 3080, Note_off_c, 1, 59, 0
1, 3086, Note_off_c, 1, 50, 0
1, 3091, Note_off_c, 1, 57, 0
1, 3093, Note_on_c, 1, 56, 127
1, 3106, Note_off_c, 1, 56, 0
1, 3108, Note_on_c, 1, 54, 127
1, 3121, Note_off_c, 1, 54, 0
1, 3123, Note_on_c, 1, 52, 127
1, 3123, Note_on_c, 1, 44, 127
1, 3150, Note_off_c, 1, 44, 0
1, 3183, Note_on_c, 1, 74, 127
1, 3183, Note_on_c, 1, 47, 127
1, 3201, Note_off_c, 1, 52, 0
1, 3210, Note_off_c, 1, 74, 0
1, 3210, Note_off_c, 1, 47, 0
1, 3213, Note_on_c, 1, 54, 127
1, 3226, Note_off_c, 1, 54, 0
1, 3228, Note_on_c, 1, 56, 127
1, 3241, Note_off_c, 1, 56, 0
1, 3243, Note_on_c, 1, 71, 127
1, 3243, Note_on_c, 1, 57, 127
1, 3243, Note_on_c, 1, 52, 127
1, 3263, Note_on_c, 1, 56, 127
1, 3266, Note_off_c, 1, 71, 0
1, 3274, Note_off_c, 1, 57, 0
1, 3282, Note_off_c, 1, 56, 0
1, 3303, Note_on_c, 1, 76, 127
1, 3326, Note_off_c, 1, 76, 0
1, 3333, Note_on_c, 1, 54, 127
1, 3346, Note_off_c, 1, 54, 0
1, 3348, Note_off_c, 1, 52, 0
1, 3363, Note_on_c, 1, 72, 127
1, 3363, Note_on_c, 1, 57, 127
1, 3363, Note_on_c, 1, 45, 127
1, 3390, Note_off_c, 1, 72, 0
1, 3415, Note_off_c, 1, 57, 0
1, 3415, Note_off_c, 1, 45, 0
1, 3423, Note_on_c, 1, 69, 127
1, 3438, Note_on_c, 1, 57, 127
1, 3446, Note_off_c, 1, 69, 0
1, 3451, Note_off_c, 1, 57, 0
1, 3453, Note_on_c, 1, 59, 127
1, 3466, Note_off_c, 1, 59, 0
1, 3468, Note_on_c, 1, 60, 127
1, 3481, Note_off_c, 1, 60, 0
1, 3483, Note_on_c, 1, 66, 127
1, 3483, Note_on_c, 1, 62, 127
1, 3506, Note_off_c, 1, 66, 0
1, 3514, Note_off_c, 1, 62, 0
1, 3543, Note_on_c, 1, 74, 127
1, 3543, Note_on_c, 1, 54, 127
1, 3558, Note_on_c, 1, 60, 127
1, 3566, Note_off_c, 1, 74, 0
1, 3571, Note_off_c, 1, 60, 0
1, 3573, Note_on_c, 1, 59, 127
1, 3586, Note_off_c, 1, 59, 0
1, 3588, Note_on_c, 1, 57, 127
1, 3595, Note_off_c, 1, 54, 0
1, 3601, Note_off_c, 1, 57, 0
1, 3603, Note_on_c, 1, 71, 127
1, 3603, Note_on_c, 1, 55, 127
1, 3626, Note_off_c, 1, 71, 0
1, 3655, Note_off_c, 1, 55, 0
1, 3663, Note_on_c, 1, 67, 127
1, 3678, Note_on_c, 1, 55, 127
1, 3686, Note_off_c, 1, 67, 0
1, 3691, Note_off_c, 1, 55, 0
1, 3693, Note_on_c, 1, 57, 127
1, 3706, Note_off_c, 1, 57, 0
1, 3708, Note_on_c, 1, 59, 127
1, 3721, Note_off_c, 1, 59, 0
1, 3723, Note_on_c, 1, 64, 127
1, 3723, Note_on_c, 1, 60, 127
1, 3742, Note_off_c, 1, 64, 0
1, 3754, Note_off_c, 1, 60, 0
1, 3783, Note_on_c, 1, 72, 127
1, 3783, Note_on_c, 1, 52, 127
1, 3798, Note_on_c, 1, 58, 127
1, 3806, Note_off_c, 1, 72, 0
1, 3811, Note_off_c, 1, 58, 0
1, 3813, Note_on_c, 1, 57, 127
1, 3826, Note_off_c, 1, 57, 0
1, 3828, Note_on_c, 1, 55, 127
1, 3835, Note_off_c, 1, 52, 0
1, 3841, Note_off_c, 1, 55, 0
1, 3843, Note_on_c, 1, 69, 127
1, 3843, Note_on_c, 1, 53, 127
1, 3873, Note_on_c, 1, 65, 127
1, 3895, Note_off_c, 1, 69, 0
1, 3895, Note_off_c, 1, 53, 0
1, 3903, Note_on_c, 1, 71, 127
1, 3903, Note_on_c, 1, 55, 127
1, 3925, Note_off_c, 1, 65, 0
1, 3955, Note_off_c, 1, 71, 0
1, 3955, Note_off_c, 1, 55, 0
1, 3963, Note_on_c, 1, 72, 127
1, 3963, Note_on_c, 1, 57, 127
1, 3978, Note_on_c, 1, 64, 127
1, 3991, Note_off_c, 1, 64, 0
1, 4008, Note_on_c, 1, 67, 127
1, 4015, Note_off_c, 1, 57, 0
1, 4021, Note_off_c, 1, 67, 0
1, 4083, Note_on_c, 1, 62, 127
1, 4096, Note_off_c, 1, 72, 0
1, 4113, Note_on_c, 1, 74, 127
1, 4126, Note_off_c, 1, 74, 0
1, 4128, Note_on_c, 1, 76, 127
1, 4141, Note_off_c, 1, 76, 0
1, 4143, Note_on_c, 1, 77, 127
1, 4143, Note_on_c, 1, 50, 127
1, 4156, Note_off_c, 1, 77, 0
1, 4195, Note_off_c, 1, 50, 0
1, 4216, Note_off_c, 1, 62, 0
1, 4323, Note_on_c, 1, 60, 127
1, 4323, Note_on_c, 1, 52, 127
1, 4342, Note_off_c, 1, 60, 0
1, 4383, Note_on_c, 1, 84, 127
1, 4383, Note_on_c, 1, 55, 127
1, 4390, Note_off_c, 1, 52, 0
1, 4396, Note_off_c, 1, 84, 0
1, 4398, Note_on_c, 1, 83, 127
1, 4410, Note_off_c, 1, 55, 0
1, 4411, Note_off_c, 1, 83, 0
1, 4413, Note_on_c, 1, 81, 127
1, 4426, Note_off_c, 1, 81, 0
1, 4428, Note_on_c, 1, 79, 127
1, 4441, Note_off_c, 1, 79, 0
1, 4443, Note_on_c, 1, 77, 127
1, 4443, Note_on_c, 1, 60, 127
1, 4443, Note_on_c, 1, 57, 127
1, 4470, Note_off_c, 1, 60, 0
1, 4495, Note_off_c, 1, 77, 0
1, 4503, Note_on_c, 1, 81, 127
1, 4503, Note_on_c, 1, 65, 127
1, 4514, Note_off_c, 1, 57, 0
1, 4516, Note_off_c, 1, 81, 0
1, 4518, Note_on_c, 1, 79, 127
1, 4526, Note_off_c, 1, 65, 0
1, 4531, Note_off_c, 1, 79, 0
1, 4533, Note_on_c, 1, 77, 127
1, 4546, Note_off_c, 1, 77, 0
1, 4548, Note_on_c, 1, 76, 127
1, 4561, Note_off_c, 1, 76, 0
1, 4563, Note_on_c, 1, 74, 127
1, 4563, Note_on_c, 1, 47, 127
1, 4576, Note_off_c, 1, 74, 0
1, 4578, Note_on_c, 1, 76, 127
1, 4591, Note_off_c, 1, 76, 0
1, 4593, Note_on_c, 1, 77, 127
1, 4623, Note_on_c, 1, 69, 127
1, 4626, Note_off_c, 1, 47, 0
1, 4632, Note_off_c, 1, 77, 0
1, 4650, Note_off_c, 1, 69, 0
1, 4653, Note_on_c, 1, 74, 127
1, 4666, Note_off_c, 1, 74, 0
1, 4668, Note_on_c, 1, 72, 127
1, 4681, Note_off_c, 1, 72, 0
1, 4683, Note_on_c, 1, 71, 127
1, 4683, Note_on_c, 1, 62, 127
1, 4696, Note_off_c, 1, 71, 0
1, 4698, Note_on_c, 1, 72, 127
1, 4710, Note_off_c, 1, 62, 0
1, 4711, Note_off_c, 1, 72, 0
1, 4713, Note_on_c, 1, 74, 127
1, 4743, Note_on_c, 1, 65, 127
1, 4752, Note_off_c, 1, 74, 0
1, 4758, Note_on_c, 1, 72, 127
1, 4770, Note_off_c, 1, 65, 0
1, 4771, Note_off_c, 1, 72, 0
1, 4773, Note_on_c, 1, 71, 127
1, 4786, Note_off_c, 1, 71, 0
1, 4788, Note_on_c, 1, 69, 127
1, 4801, Note_off_c, 1, 69, 0
1, 4803, Note_on_c, 1, 67, 127
1, 4803, Note_on_c, 1, 59, 127
1, 4834, Note_off_c, 1, 59, 0
1, 4863, Note_on_c, 1, 62, 127
1, 4863, Note_on_c, 1, 53, 127
1, 4881, Note_off_c, 1, 67, 0
1, 4890, Note_off_c, 1, 53, 0
1, 4893, Note_on_c, 1, 69, 127
1, 4894, Note_off_c, 1, 62, 0
1, 4906, Note_off_c, 1, 69, 0
1, 4908, Note_on_c, 1, 71, 127
1, 4921, Note_off_c, 1, 71, 0
1, 4923, Note_on_c, 1, 72, 127
1, 4923, Note_on_c, 1, 65, 127
1, 4923, Note_on_c, 1, 50, 127
1, 4939, Note_on_c, 1, 71, 127
1, 4946, Note_off_c, 1, 72, 0
1, 4946, Note_off_c, 1, 71, 0
1, 4950, Note_off_c, 1, 50, 0
1, 4954, Note_off_c, 1, 65, 0
1, 4955, Note_on_c, 1, 71, 127
1, 4962, Note_off_c, 1, 71, 0
1, 4963, Note_on_c, 1, 72, 127
1, 4970, Note_off_c, 1, 72, 0
1, 4971, Note_on_c, 1, 71, 127
1, 4978, Note_off_c, 1, 71, 0
1, 4979, Note_on_c, 1, 72, 127
1, 4983, Note_on_c, 1, 62, 127
1, 4983, Note_on_c, 1, 55, 127
1, 4986, Note_off_c, 1, 72, 0
1, 4987, Note_on_c, 1, 71, 127
1, 4994, Note_off_c, 1, 71, 0
1, 5006, Note_off_c, 1, 62, 0
1, 5013, Note_on_c, 1, 69, 127
1, 5014, Note_off_c, 1, 55, 0
1, 5026, Note_off_c, 1, 69, 0
1, 5028, Note_on_c, 1, 71, 127
1, 5041, Note_off_c, 1, 71, 0
1, 5043, Note_on_c, 1, 72, 127
1, 5043, Note_on_c, 1, 67, 127
1, 5043, Note_on_c, 1, 52, 127
1, 5066, Note_off_c, 1, 67, 0
1, 5103, Note_on_c, 1, 60, 127
1, 5121, Note_off_c, 1, 52, 0
1, 5122, Note_off_c, 1, 60, 0
1, 5148, Note_off_c, 1, 72, 0
1, 5148, Note_on_c, 1, 54, 127
1, 5161, Note_off_c, 1, 54, 0
1, 5163, Note_on_c, 1, 57, 127
1, 5163, Note_on_c, 1, 55, 127
1, 5183, Note_on_c, 1, 54, 127
1, 5186, Note_off_c, 1, 57, 0
1, 5190, Note_off_c, 1, 55, 0
1, 5198, Note_off_c, 1, 54, 0
1, 5223, Note_on_c, 1, 62, 127
1, 5246, Note_off_c, 1, 62, 0
1, 5253, Note_on_c, 1, 52, 127
1, 5266, Note_off_c, 1, 52, 0
1, 5268, Note_on_c, 1, 54, 127
1, 5281, Note_off_c, 1, 54, 0
1, 5283, Note_on_c, 1, 59, 127
1, 5283, Note_on_c, 1, 55, 127
1, 5335, Note_off_c, 1, 55, 0
1, 5343, Note_on_c, 1, 67, 127
1, 5343, Note_on_c, 1, 52, 127
1, 5361, Note_off_c, 1, 59, 0
1, 5370, Note_off_c, 1, 67, 0
1, 5388, Note_on_c, 1, 61, 127
1, 5395, Note_off_c, 1, 52, 0
1, 5401, Note_off_c, 1, 61, 0
1, 5403, Note_on_c, 1, 64, 127
1, 5403, Note_on_c, 1, 62, 127
1, 5403, Note_on_c, 1, 57, 127
1, 5427, Note_on_c, 1, 61, 127
1, 5430, Note_off_c, 1, 64, 0
1, 5434, Note_off_c, 1, 62, 0
1, 5442, Note_off_c, 1, 61, 0
1, 5463, Note_on_c, 1, 69, 127
1, 5490, Note_off_c, 1, 69, 0
1, 5493, Note_on_c, 1, 59, 127
1, 5506, Note_off_c, 1, 59, 0
1, 5508, Note_off_c, 1, 57, 0
1, 5523, Note_on_c, 1, 66, 127
1, 5523, Note_on_c, 1, 62, 127
1, 5583, Note_on_c, 1, 50, 127
1, 5601, Note_off_c, 1, 66, 0
1, 5606, Note_off_c, 1, 50, 0
1, 5628, Note_off_c, 1, 62, 0
1, 5628, Note_on_c, 1, 68, 127
1, 5641, Note_off_c, 1, 68, 0
1, 5643, Note_on_c, 1, 69, 127
1, 5643, Note_on_c, 1, 47, 127
1, 5663, Note_on_c, 1, 68, 127
1, 5674, Note_off_c, 1, 69, 0
1, 5674, Note_off_c, 1, 47, 0
1, 5682, Note_off_c, 1, 68, 0
1, 5703, Note_on_c, 1, 52, 127
1, 5726, Note_off_c, 1, 52, 0
1, 5733, Note_on_c, 1, 66, 127
1, 5746, Note_off_c, 1, 66, 0
1, 5748, Note_on_c, 1, 68, 127
1, 5761, Note_off_c, 1, 68, 0
1, 5763, Note_on_c, 1, 69, 127
1, 5763, Note_on_c, 1, 48, 127
1, 5789, Note_off_c, 1, 69, 0
1, 5793, Note_on_c, 1, 71, 127
1, 5794, Note_off_c, 1, 48, 0
1, 5806, Note_off_c, 1, 71, 0
1, 5808, Note_on_c, 1, 72, 127
1, 5821, Note_off_c, 1, 72, 0
1, 5823, Note_on_c, 1, 74, 127
1, 5823, Note_on_c, 1, 45, 127
1, 5836, Note_off_c, 1, 74, 0
1, 5838, Note_on_c, 1, 76, 127
1, 5850, Note_off_c, 1, 45, 0
1, 5851, Note_off_c, 1, 76, 0
1, 5853, Note_on_c, 1, 78, 127
1, 5866, Note_off_c, 1, 78, 0
1, 5868, Note_on_c, 1, 80, 127
1, 5881, Note_off_c, 1, 80, 0
1, 5883, Note_on_c, 1, 81, 127
1, 5883, Note_on_c, 1, 42, 127
1, 5913, Note_on_c, 1, 72, 127
1, 5914, Note_off_c, 1, 42, 0
1, 5939, Note_off_c, 1, 72, 0
1, 5943, Note_on_c, 1, 71, 127
1, 5943, Note_on_c, 1, 51, 127
1, 5954, Note_off_c, 1, 81, 0
1, 5966, Note_off_c, 1, 51, 0
1, 5969, Note_off_c, 1, 71, 0
1, 5973, Note_on_c, 1, 78, 127
1, 6003, Note_on_c, 1, 79, 127
1, 6003, Note_on_c, 1, 40, 127
1, 6029, Note_off_c, 1, 78, 0
1, 6030, Note_off_c, 1, 40, 0
1, 6033, Note_on_c, 1, 71, 127
1, 6059, Note_off_c, 1, 71, 0
1, 6063, Note_on_c, 1, 76, 127
1, 6070, Note_off_c, 1, 79, 0
1, 6076, Note_off_c, 1, 76, 0
1, 6078, Note_on_c, 1, 74, 127
1, 6091, Note_off_c, 1, 74, 0
1, 6093, Note_on_c, 1, 72, 127
1, 6106, Note_off_c, 1, 72, 0
1, 6108, Note_on_c, 1, 71, 127
1, 6121, Note_off_c, 1, 71, 0
1, 6123, Note_on_c, 1, 84, 127
1, 6123, Note_on_c, 1, 69, 127
1, 6150, Note_off_c, 1, 69, 0
1, 6183, Note_on_c, 1, 72, 127
1, 6190, Note_off_c, 1, 84, 0
1, 6196, Note_off_c, 1, 72, 0
1, 6198, Note_on_c, 1, 71, 127
1, 6211, Note_off_c, 1, 71, 0
1, 6213, Note_on_c, 1, 69, 127
1, 6226, Note_off_c, 1, 69, 0
1, 6228, Note_on_c, 1, 67, 127
1, 6241, Note_off_c, 1, 67, 0
1, 6243, Note_on_c, 1, 75, 127
1, 6243, Note_on_c, 1, 66, 127
1, 6256, Note_off_c, 1, 66, 0
1, 6258, Note_on_c, 1, 67, 127
1, 6271, Note_off_c, 1, 67, 0
1, 6273, Note_on_c, 1, 69, 127
1, 6303, Note_on_c, 1, 60, 127
1, 6306, Note_off_c, 1, 75, 0
1, 6312, Note_off_c, 1, 69, 0
1, 6334, Note_off_c, 1, 60, 0
1, 6348, Note_on_c, 1, 64, 127
1, 6361, Note_off_c, 1, 64, 0
1, 6363, Note_on_c, 1, 63, 127
1, 6363, Note_on_c, 1, 54, 127
1, 6376, Note_off_c, 1, 63, 0
1, 6378, Note_on_c, 1, 64, 127
1, 6391, Note_off_c, 1, 64, 0
1, 6393, Note_on_c, 1, 66, 127
1, 6394, Note_off_c, 1, 54, 0
1, 6423, Note_on_c, 1, 57, 127
1, 6432, Note_off_c, 1, 66, 0
1, 6450, Note_off_c, 1, 57, 0
1, 6453, Note_on_c, 1, 63, 127
1, 6466, Note_off_c, 1, 63, 0
1, 6468, Note_on_c, 1, 61, 127
1, 6481, Note_off_c, 1, 61, 0
1, 6483, Note_on_c, 1, 59, 127
1, 6483, Note_on_c, 1, 51, 127
1, 6510, Note_off_c, 1, 51, 0
1, 6543, Note_on_c, 1, 81, 127
1, 6543, Note_on_c, 1, 54, 127
1, 6561, Note_off_c, 1, 59, 0
1, 6570, Note_off_c, 1, 81, 0
1, 6570, Note_off_c, 1, 54, 0
1, 6573, Note_on_c, 1, 61, 127
1, 6586, Note_off_c, 1, 61, 0
1, 6588, Note_on_c, 1, 63, 127
1, 6601, Note_off_c, 1, 63, 0
1, 6603, Note_on_c, 1, 78, 127
1, 6603, Note_on_c, 1, 64, 127
1, 6603, Note_on_c, 1, 59, 127
1, 6627, Note_on_c, 1, 63, 127
1, 6630, Note_off_c, 1, 78, 0
1, 6634, Note_off_c, 1, 64, 0
1, 6642, Note_off_c, 1, 63, 0
1, 6663, Note_on_c, 1, 83, 127
1, 6682, Note_off_c, 1, 59, 0
1, 6690, Note_off_c, 1, 83, 0
1, 6693, Note_on_c, 1, 61, 127
1, 6706, Note_off_c, 1, 61, 0
1, 6708, Note_on_c, 1, 63, 127
1, 6721, Note_off_c, 1, 63, 0
1, 6723, Note_on_c, 1, 79, 127
1, 6723, Note_on_c, 1, 64, 127
1, 6723, Note_on_c, 1, 52, 127
1, 6754, Note_off_c, 1, 79, 0
1, 6758, Note_off_c, 1, 52, 0
1, 6775, Note_off_c, 1, 64, 0
1, 6783, Note_on_c, 1, 76, 127
1, 6798, Note_on_c, 1, 40, 127
1, 6811, Note_off_c, 1, 40, 0
1, 6813, Note_on_c, 1, 41, 127
1, 6814, Note_off_c, 1, 76, 0
1, 6826, Note_off_c, 1, 41, 0
1, 6828, Note_on_c, 1, 43, 127
1, 6841, Note_off_c, 1, 43, 0
1, 6843, Note_on_c, 1, 73, 127
1, 6843, Note_on_c, 1, 45, 127
1, 6870, Note_off_c, 1, 45, 0
1, 6874, Note_off_c, 1, 73, 0
1, 6903, Note_on_c, 1, 81, 127
1, 6918, Note_on_c, 1, 43, 127
1, 6931, Note_off_c, 1, 43, 0
1, 6933, Note_on_c, 1, 41, 127
1, 6934, Note_off_c, 1, 81, 0
1, 6946, Note_off_c, 1, 41, 0
1, 6948, Note_on_c, 1, 40, 127
1, 6961, Note_off_c, 1, 40, 0
1, 6963, Note_on_c, 1, 77, 127
1, 6963, Note_on_c, 1, 38, 127
1, 6990, Note_off_c, 1, 38, 0
1, 6994, Note_off_c, 1, 77, 0
1, 7023, Note_on_c, 1, 62, 127
1, 7038, Note_on_c, 1, 74, 127
1, 7051, Note_off_c, 1, 74, 0
1, 7053, Note_on_c, 1, 76, 127
1, 7054, Note_off_c, 1, 62, 0
1, 7066, Note_off_c, 1, 76, 0
1, 7068, Note_on_c, 1, 77, 127
1, 7081, Note_off_c, 1, 77, 0
1, 7083, Note_on_c, 1, 79, 127
1, 7083, Note_on_c, 1, 59, 127
1, 7110, Note_off_c, 1, 79, 0
1, 7114, Note_off_c, 1, 59, 0
1, 7143, Note_on_c, 1, 67, 127
1, 7158, Note_on_c, 1, 77, 127
1, 7171, Note_off_c, 1, 77, 0
1, 7173, Note_on_c, 1, 76, 127
1, 7174, Note_off_c, 1, 67, 0
1, 7186, Note_off_c, 1, 76, 0
1, 7188, Note_on_c, 1, 74, 127
1, 7201, Note_off_c, 1, 74, 0
1, 7203, Note_on_c, 1, 72, 127
1, 7203, Note_on_c, 1, 64, 127
1, 7230, Note_off_c, 1, 72, 0
1, 7234, Note_off_c, 1, 64, 0
1, 7263, Note_on_c, 1, 57, 127
1, 7278, Note_on_c, 1, 76, 127
1, 7291, Note_off_c, 1, 76, 0
1, 7293, Note_on_c, 1, 77, 127
1, 7294, Note_off_c, 1, 57, 0
1, 7306, Note_off_c, 1, 77, 0
1, 7308, Note_on_c, 1, 79, 127
1, 7321, Note_off_c, 1, 79, 0
1, 7323, Note_on_c, 1, 81, 127
1, 7323, Note_on_c, 1, 53, 127
1, 7336, Note_off_c, 1, 81, 0
1, 7338, Note_on_c, 1, 82, 127
1, 7351, Note_off_c, 1, 82, 0
1, 7358, Note_off_c, 1, 53, 0
1, 7368, Note_on_c, 1, 79, 127
1, 7381, Note_off_c, 1, 79, 0
1, 7383, Note_on_c, 1, 77, 127
1, 7383, Note_on_c, 1, 62, 127
1, 7396, Note_off_c, 1, 77, 0
1, 7398, Note_on_c, 1, 76, 127
1, 7411, Note_off_c, 1, 76, 0
1, 7413, Note_on_c, 1, 74, 127
1, 7414, Note_off_c, 1, 62, 0
1, 7426, Note_off_c, 1, 74, 0
1, 7428, Note_on_c, 1, 72, 127
1, 7441, Note_off_c, 1, 72, 0
1, 7443, Note_on_c, 1, 71, 127
1, 7443, Note_on_c, 1, 56, 127
1, 7456, Note_off_c, 1, 71, 0
1, 7458, Note_on_c, 1, 72, 127
1, 7471, Note_off_c, 1, 72, 0
1, 7474, Note_off_c, 1, 56, 0
1, 7488, Note_on_c, 1, 69, 127
1, 7501, Note_off_c, 1, 69, 0
1, 7503, Note_on_c, 1, 68, 127
1, 7503, Note_on_c, 1, 52, 127
1, 7516, Note_off_c, 1, 68, 0
1, 7518, Note_on_c, 1, 66, 127
1, 7531, Note_off_c, 1, 66, 0
1, 7533, Note_on_c, 1, 64, 127
1, 7542, Note_off_c, 1, 52, 0
1, 7546, Note_off_c, 1, 64, 0
1, 7548, Note_on_c, 1, 62, 127
1, 7561, Note_off_c, 1, 62, 0
1, 7563, Note_on_c, 1, 60, 127
1, 7563, Note_on_c, 1, 57, 127
1, 7578, Note_on_c, 1, 64, 127
1, 7591, Note_off_c, 1, 64, 0
1, 7593, Note_on_c, 1, 65, 127
1, 7606, Note_off_c, 1, 65, 0
1, 7608, Note_on_c, 1, 67, 127
1, 7615, Note_off_c, 1, 60, 0
1, 7621, Note_off_c, 1, 67, 0
1, 7623, Note_on_c, 1, 72, 127
1, 7623, Note_on_c, 1, 69, 127
1, 7636, Note_off_c, 1, 69, 0
1, 7675, Note_off_c, 1, 72, 0
1, 7683, Note_on_c, 1, 71, 127
1, 7683, Note_on_c, 1, 62, 127
1, 7696, Note_off_c, 1, 57, 0
1, 7713, Note_on_c, 1, 59, 127
1, 7718, Note_off_c, 1, 62, 0
1, 7726, Note_off_c, 1, 59, 0
1, 7803, Note_on_c, 1, 56, 127
1, 7816, Note_off_c, 1, 56, 0
1, 7848, Note_on_c, 1, 54, 127
1, 7861, Note_off_c, 1, 54, 0
1, 7863, Note_on_c, 1, 52, 127
1, 7876, Note_off_c, 1, 52, 0
1, 7878, Note_on_c, 1, 50, 127
1, 7891, Note_off_c, 1, 50, 0
1, 7893, Note_on_c, 1, 48, 127
1, 7906, Note_off_c, 1, 48, 0
1, 7908, Note_on_c, 1, 47, 127
1, 7921, Note_off_c, 1, 47, 0
1, 7923, Note_on_c, 1, 45, 127
1, 7949, Note_off_c, 1, 71, 0
1, 7954, Note_off_c, 1, 45, 0
1, 7998, Note_on_c, 1, 55, 127
1, 8011, Note_off_c, 1, 55, 0
1, 8013, Note_on_c, 1, 53, 127
1, 8026, Note_off_c, 1, 53, 0
1, 8223, Note_on_c, 1, 77, 127
1, 8254, Note_off_c, 1, 77, 0
1, 8268, Note_on_c, 1, 45, 127
1, 8281, Note_off_c, 1, 45, 0
1, 8283, Note_on_c, 1, 71, 127
1, 8283, Note_on_c, 1, 44, 127
1, 8296, Note_off_c, 1, 44, 0
1, 8298, Note_on_c, 1, 45, 127
1, 8311, Note_off_c, 1, 45, 0
1, 8313, Note_on_c, 1, 47, 127
1, 8314, Note_off_c, 1, 71, 0
1, 8343, Note_on_c, 1, 74, 127
1, 8352, Note_off_c, 1, 47, 0
1, 8370, Note_off_c, 1, 74, 0
1, 8373, Note_on_c, 1, 44, 127
1, 8386, Note_off_c, 1, 44, 0
1, 8388, Note_on_c, 1, 42, 127
1, 8401, Note_off_c, 1, 42, 0
1, 8403, Note_on_c, 1, 68, 127
1, 8403, Note_on_c, 1, 40, 127
1, 8463, Note_on_c, 1, 62, 127
1, 8474, Note_off_c, 1, 68, 0
1, 8481, Note_off_c, 1, 40, 0
1, 8493, Note_on_c, 1, 42, 127
1, 8494, Note_off_c, 1, 62, 0
1, 8506, Note_off_c, 1, 42, 0
1, 8508, Note_on_c, 1, 44, 127
1, 8521, Note_off_c, 1, 44, 0
1, 8523, Note_on_c, 1, 71, 127
1, 8523, Note_on_c, 1, 59, 127
1, 8523, Note_on_c, 1, 45, 127
1, 8547, Note_on_c, 1, 44, 127
1, 8550, Note_off_c, 1, 59, 0
1, 8554, Note_off_c, 1, 45, 0
1, 8566, Note_off_c, 1, 44, 0
1, 8583, Note_on_c, 1, 64, 127
1, 8610, Note_off_c, 1, 64, 0
1, 8613, Note_on_c, 1, 42, 127
1, 8626, Note_off_c, 1, 42, 0
1, 8643, Note_on_c, 1, 60, 127
1, 8674, Note_off_c, 1, 60, 0
1, 8695, Note_off_c, 1, 71, 0
1, 8703, Note_on_c, 1, 76, 127
1, 8716, Note_off_c, 1, 76, 0
1, 8718, Note_on_c, 1, 74, 127
1, 8731, Note_off_c, 1, 74, 0
1, 8733, Note_on_c, 1, 72, 127
1, 8733, Note_on_c, 1, 47, 127
1, 8746, Note_off_c, 1, 72, 0
1, 8746, Note_off_c, 1, 47, 0
1, 8748, Note_on_c, 1, 71, 127
1, 8748, Note_on_c, 1, 48, 127
1, 8761, Note_off_c, 1, 71, 0
1, 8761, Note_off_c, 1, 48, 0
1, 8763, Note_on_c, 1, 69, 127
1, 8763, Note_on_c, 1, 50, 127
1, 8789, Note_off_c, 1, 69, 0
1, 8791, Note_on_c, 1, 49, 127
1, 8793, Note_on_c, 1, 73, 127
1, 8798, Note_off_c, 1, 50, 0
1, 8798, Note_off_c, 1, 49, 0
1, 8806, Note_off_c, 1, 73, 0
1, 8807, Note_on_c, 1, 49, 127
1, 8808, Note_on_c, 1, 76, 127
1, 8814, Note_off_c, 1, 49, 0
1, 8815, Note_on_c, 1, 50, 127
1, 8821, Note_off_c, 1, 76, 0
1, 8822, Note_off_c, 1, 50, 0
1, 8823, Note_on_c, 1, 79, 127
1, 8823, Note_on_c, 1, 49, 127
1, 8830, Note_off_c, 1, 49, 0
1, 8831, Note_on_c, 1, 50, 127
1, 8838, Note_off_c, 1, 50, 0
1, 8853, Note_on_c, 1, 47, 127
1, 8866, Note_off_c, 1, 47, 0
1, 8875, Note_off_c, 1, 79, 0
1, 8883, Note_on_c, 1, 77, 127
1, 8883, Note_on_c, 1, 50, 127
1, 8935, Note_off_c, 1, 77, 0
1, 8943, Note_on_c, 1, 69, 127
1, 8956, Note_off_c, 1, 69, 0
1, 8958, Note_on_c, 1, 67, 127
1, 8961, Note_off_c, 1, 50, 0
1, 8971, Note_off_c, 1, 67, 0
1, 8973, Note_on_c, 1, 65, 127
1, 8973, Note_on_c, 1, 52, 127
1, 8986, Note_off_c, 1, 65, 0
1, 8986, Note_off_c, 1, 52, 0
1, 8988, Note_on_c, 1, 64, 127
1, 8988, Note_on_c, 1, 53, 127
1, 9001, Note_off_c, 1, 64, 0
1, 9001, Note_off_c, 1, 53, 0
1, 9003, Note_on_c, 1, 62, 127
1, 9003, Note_on_c, 1, 55, 127
1, 9029, Note_off_c, 1, 62, 0
1, 9031, Note_on_c, 1, 54, 127
1, 9033, Note_on_c, 1, 66, 127
1, 9038, Note_off_c, 1, 55, 0
1, 9042, Note_off_c, 1, 54, 0
1, 9046, Note_off_c, 1, 66, 0
1, 9048, Note_on_c, 1, 69, 127
1, 9061, Note_off_c, 1, 69, 0
1, 9063, Note_on_c, 1, 72, 127
1, 9093, Note_on_c, 1, 52, 127
1, 9106, Note_off_c, 1, 52, 0
1, 9115, Note_off_c, 1, 72, 0
1, 9123, Note_on_c, 1, 71, 127
1, 9123, Note_on_c, 1, 55, 127
1, 9153, Note_on_c, 1, 74, 127
1, 9166, Note_off_c, 1, 74, 0
1, 9168, Note_on_c, 1, 72, 127
1, 9175, Note_off_c, 1, 71, 0
1, 9181, Note_off_c, 1, 72, 0
1, 9201, Note_off_c, 1, 55, 0
1, 9213, Note_on_c, 1, 72, 127
1, 9213, Note_on_c, 1, 57, 127
1, 9226, Note_off_c, 1, 72, 0
1, 9226, Note_off_c, 1, 57, 0
1, 9228, Note_on_c, 1, 74, 127
1, 9228, Note_on_c, 1, 59, 127
1, 9241, Note_off_c, 1, 74, 0
1, 9241, Note_off_c, 1, 59, 0
1, 9243, Note_on_c, 1, 67, 127
1, 9243, Note_on_c, 1, 60, 127
1, 9267, Note_on_c, 1, 59, 127
1, 9274, Note_off_c, 1, 60, 0
1, 9278, Note_off_c, 1, 59, 0
1, 9295, Note_off_c, 1, 67, 0
1, 9303, Note_on_c, 1, 77, 127
1, 9333, Note_on_c, 1, 57, 127
1, 9346, Note_off_c, 1, 57, 0
1, 9355, Note_off_c, 1, 77, 0
1, 9363, Note_on_c, 1, 76, 127
1, 9363, Note_on_c, 1, 60, 127
1, 9393, Note_on_c, 1, 67, 127
1, 9406, Note_off_c, 1, 67, 0
1, 9408, Note_on_c, 1, 65, 127
1, 9415, Note_off_c, 1, 76, 0
1, 9421, Note_off_c, 1, 65, 0
1, 9423, Note_on_c, 1, 64, 127
1, 9441, Note_off_c, 1, 60, 0
1, 9449, Note_off_c, 1, 64, 0
1, 9453, Note_on_c, 1, 65, 127
1, 9453, Note_on_c, 1, 62, 127
1, 9466, Note_off_c, 1, 65, 0
1, 9466, Note_off_c, 1, 62, 0
1, 9468, Note_on_c, 1, 67, 127
1, 9468, Note_on_c, 1, 64, 127
1, 9481, Note_off_c, 1, 67, 0
1, 9481, Note_off_c, 1, 64, 0
1, 9483, Note_on_c, 1, 60, 127
1, 9483, Note_on_c, 1, 65, 127
1, 9507, Note_on_c, 1, 64, 127
1, 9514, Note_off_c, 1, 65, 0
1, 9522, Note_off_c, 1, 64, 0
1, 9535, Note_off_c, 1, 60, 0
1, 9543, Note_on_c, 1, 70, 127
1, 9573, Note_on_c, 1, 62, 127
1, 9586, Note_off_c, 1, 62, 0
1, 9595, Note_off_c, 1, 70, 0
1, 9603, Note_on_c, 1, 69, 127
1, 9603, Note_on_c, 1, 65, 127
1, 9629, Note_off_c, 1, 69, 0
1, 9633, Note_on_c, 1, 71, 127
1, 9646, Note_off_c, 1, 71, 0
1, 9648, Note_on_c, 1, 73, 127
1, 9661, Note_off_c, 1, 73, 0
1, 9663, Note_on_c, 1, 74, 127
1, 9681, Note_off_c, 1, 65, 0
1, 9693, Note_on_c, 1, 67, 127
1, 9706, Note_off_c, 1, 67, 0
1, 9723, Note_on_c, 1, 81, 127
1, 9723, Note_on_c, 1, 70, 127
1, 9754, Note_off_c, 1, 70, 0
1, 9775, Note_off_c, 1, 74, 0
1, 9790, Note_off_c, 1, 81, 0
1, 9843, Note_on_c, 1, 77, 127
1, 9843, Note_on_c, 1, 74, 127
1, 9843, Note_on_c, 1, 70, 127
1, 9869, Note_off_c, 1, 70, 0
1, 9873, Note_on_c, 1, 58, 127
1, 9886, Note_off_c, 1, 58, 0
1, 9888, Note_on_c, 1, 60, 127
1, 9901, Note_off_c, 1, 60, 0
1, 9903, Note_on_c, 1, 62, 127
1, 9914, Note_off_c, 1, 77, 0
1, 9916, Note_off_c, 1, 62, 0
1, 9948, Note_off_c, 1, 74, 0
1, 9948, Note_on_c, 1, 57, 127
1, 9961, Note_off_c, 1, 57, 0
1, 9963, Note_on_c, 1, 82, 127
1, 9963, Note_on_c, 1, 55, 127
1, 9976, Note_off_c, 1, 55, 0
1, 9978, Note_on_c, 1, 53, 127
1, 9991, Note_off_c, 1, 53, 0
1, 10008, Note_on_c, 1, 57, 127
1, 10021, Note_off_c, 1, 57, 0
1, 10023, Note_on_c, 1, 58, 127
1, 10034, Note_off_c, 1, 82, 0
1, 10036, Note_off_c, 1, 58, 0
1, 10038, Note_on_c, 1, 57, 127
1, 10051, Note_off_c, 1, 57, 0
1, 10053, Note_on_c, 1, 55, 127
1, 10066, Note_off_c, 1, 55, 0
1, 10068, Note_on_c, 1, 53, 127
1, 10081, Note_off_c, 1, 53, 0
1, 10083, Note_on_c, 1, 73, 127
1, 10083, Note_on_c, 1, 52, 127
1, 10096, Note_off_c, 1, 52, 0
1, 10098, Note_on_c, 1, 53, 127
1, 10111, Note_off_c, 1, 53, 0
1, 10113, Note_on_c, 1, 55, 127
1, 10143, Note_on_c, 1, 70, 127
1, 10152, Note_off_c, 1, 55, 0
1, 10154, Note_off_c, 1, 73, 0
1, 10166, Note_off_c, 1, 70, 0
1, 10173, Note_on_c, 1, 52, 127
1, 10186, Note_off_c, 1, 52, 0
1, 10188, Note_on_c, 1, 50, 127
1, 10201, Note_off_c, 1, 50, 0
1, 10203, Note_on_c, 1, 64, 127
1, 10203, Note_on_c, 1, 49, 127
1, 10216, Note_off_c, 1, 49, 0
1, 10218, Note_on_c, 1, 50, 127
1, 10231, Note_off_c, 1, 50, 0
1, 10233, Note_on_c, 1, 52, 127
1, 10234, Note_off_c, 1, 64, 0
1, 10263, Note_on_c, 1, 67, 127
1, 10272, Note_off_c, 1, 52, 0
1, 10294, Note_off_c, 1, 67, 0
1, 10308, Note_on_c, 1, 47, 127
1, 10321, Note_off_c, 1, 47, 0
1, 10323, Note_on_c, 1, 61, 127
1, 10323, Note_on_c, 1, 45, 127
1, 10358, Note_off_c, 1, 61, 0
1, 10383, Note_on_c, 1, 79, 127
1, 10383, Note_on_c, 1, 76, 127
1, 10401, Note_off_c, 1, 45, 0
1, 10410, Note_off_c, 1, 79, 0
1, 10413, Note_on_c, 1, 47, 127
1, 10414, Note_off_c, 1, 76, 0
1, 10426, Note_off_c, 1, 47, 0
1, 10428, Note_on_c, 1, 49, 127
1, 10441, Note_off_c, 1, 49, 0
1, 10443, Note_on_c, 1, 76, 127
1, 10443, Note_on_c, 1, 69, 127
1, 10443, Note_on_c, 1, 50, 127
1, 10455, Note_on_c, 1, 49, 127
1, 10462, Note_off_c, 1, 50, 0
1, 10474, Note_off_c, 1, 49, 0
1, 10478, Note_off_c, 1, 76, 0
1, 10503, Note_on_c, 1, 81, 127
1, 10533, Note_on_c, 1, 47, 127
1, 10534, Note_off_c, 1, 81, 0
1, 10546, Note_off_c, 1, 47, 0
1, 10563, Note_on_c, 1, 77, 127
1, 10578, Note_on_c, 1, 52, 127
1, 10591, Note_off_c, 1, 52, 0
1, 10593, Note_on_c, 1, 53, 127
1, 10598, Note_off_c, 1, 77, 0
1, 10615, Note_off_c, 1, 69, 0
1, 10623, Note_on_c, 1, 74, 127
1, 10632, Note_off_c, 1, 53, 0
1, 10654, Note_off_c, 1, 74, 0
1, 10668, Note_on_c, 1, 48, 127
1, 10681, Note_off_c, 1, 48, 0
1, 10683, Note_on_c, 1, 62, 127
1, 10683, Note_on_c, 1, 47, 127
1, 10696, Note_off_c, 1, 47, 0
1, 10698, Note_on_c, 1, 48, 127
1, 10711, Note_off_c, 1, 48, 0
1, 10713, Note_on_c, 1, 50, 127
1, 10735, Note_off_c, 1, 62, 0
1, 10743, Note_on_c, 1, 65, 127
1, 10752, Note_off_c, 1, 50, 0
1, 10788, Note_on_c, 1, 45, 127
1, 10795, Note_off_c, 1, 65, 0
1, 10801, Note_off_c, 1, 45, 0
1, 10803, Note_on_c, 1, 59, 127
1, 10803, Note_on_c, 1, 43, 127
1, 10855, Note_off_c, 1, 59, 0
1, 10863, Note_on_c, 1, 77, 127
1, 10863, Note_on_c, 1, 74, 127
1, 10881, Note_off_c, 1, 43, 0
1, 10893, Note_on_c, 1, 45, 127
1, 10894, Note_off_c, 1, 77, 0
1, 10906, Note_off_c, 1, 45, 0
1, 10908, Note_on_c, 1, 47, 127
1, 10915, Note_off_c, 1, 74, 0
1, 10921, Note_off_c, 1, 47, 0
1, 10923, Note_on_c, 1, 74, 127
1, 10923, Note_on_c, 1, 67, 127
1, 10923, Note_on_c, 1, 48, 127
1, 10943, Note_on_c, 1, 47, 127
1, 10950, Note_off_c, 1, 48, 0
1, 10954, Note_off_c, 1, 74, 0
1, 10958, Note_off_c, 1, 47, 0
1, 10983, Note_on_c, 1, 79, 127
1, 11010, Note_off_c, 1, 79, 0
1, 11013, Note_on_c, 1, 45, 127
1, 11026, Note_off_c, 1, 45, 0
1, 11043, Note_on_c, 1, 76, 127
1, 11070, Note_off_c, 1, 76, 0
1, 11095, Note_off_c, 1, 67, 0
1, 11103, Note_on_c, 1, 72, 127
1, 11118, Note_on_c, 1, 60, 127
1, 11131, Note_off_c, 1, 60, 0
1, 11133, Note_on_c, 1, 62, 127
1, 11134, Note_off_c, 1, 72, 0
1, 11146, Note_off_c, 1, 62, 0
1, 11148, Note_on_c, 1, 64, 127
1, 11161, Note_off_c, 1, 64, 0
1, 11163, Note_on_c, 1, 69, 127
1, 11163, Note_on_c, 1, 65, 127
1, 11194, Note_off_c, 1, 69, 0
1, 11215, Note_off_c, 1, 65, 0
1, 11223, Note_on_c, 1, 77, 127
1, 11238, Note_on_c, 1, 64, 127
1, 11251, Note_off_c, 1, 64, 0
1, 11253, Note_on_c, 1, 62, 127
1, 11254, Note_off_c, 1, 77, 0
1, 11266, Note_off_c, 1, 62, 0
1, 11268, Note_on_c, 1, 60, 127
1, 11281, Note_off_c, 1, 60, 0
1, 11283, Note_on_c, 1, 74, 127
1, 11283, Note_on_c, 1, 59, 127
1, 11310, Note_off_c, 1, 74, 0
1, 11335, Note_off_c, 1, 59, 0
1, 11343, Note_on_c, 1, 71, 127
1, 11343, Note_on_c, 1, 62, 127
1, 11358, Note_on_c, 1, 47, 127
1, 11371, Note_off_c, 1, 47, 0
1, 11373, Note_on_c, 1, 48, 127
1, 11374, Note_off_c, 1, 71, 0
1, 11386, Note_off_c, 1, 48, 0
1, 11388, Note_on_c, 1, 50, 127
1, 11395, Note_off_c, 1, 62, 0
1, 11401, Note_off_c, 1, 50, 0
1, 11403, Note_on_c, 1, 68, 127
1, 11403, Note_on_c, 1, 59, 127
1, 11403, Note_on_c, 1, 52, 127
1, 11434, Note_off_c, 1, 68, 0
1, 11455, Note_off_c, 1, 59, 0
1, 11455, Note_off_c, 1, 52, 0
1, 11463, Note_on_c, 1, 76, 127
1, 11463, Note_on_c, 1, 68, 127
1, 11478, Note_on_c, 1, 50, 127
1, 11491, Note_off_c, 1, 50, 0
1, 11493, Note_on_c, 1, 48, 127
1, 11494, Note_off_c, 1, 76, 0
1, 11506, Note_off_c, 1, 48, 0
1, 11508, Note_on_c, 1, 47, 127
1, 11515, Note_off_c, 1, 68, 0
1, 11521, Note_off_c, 1, 47, 0
1, 11523, Note_on_c, 1, 72, 127
1, 11523, Note_on_c, 1, 69, 127
1, 11523, Note_on_c, 1, 45, 127
1, 11549, Note_off_c, 1, 45, 0
1, 11553, Note_on_c, 1, 47, 127
1, 11566, Note_off_c, 1, 47, 0
1, 11568, Note_on_c, 1, 48, 127
1, 11581, Note_off_c, 1, 48, 0
1, 11583, Note_on_c, 1, 50, 127
1, 11596, Note_off_c, 1, 50, 0
1, 11598, Note_on_c, 1, 52, 127
1, 11611, Note_off_c, 1, 52, 0
1, 11613, Note_on_c, 1, 54, 127
1, 11626, Note_off_c, 1, 54, 0
1, 11628, Note_off_c, 1, 69, 0
1, 11628, Note_on_c, 1, 56, 127
1, 11641, Note_off_c, 1, 56, 0
1, 11643, Note_on_c, 1, 57, 127
1, 11658, Note_on_c, 1, 71, 127
1, 11671, Note_off_c, 1, 71, 0
1, 11688, Note_on_c, 1, 67, 127
1, 11695, Note_off_c, 1, 72, 0
1, 11701, Note_off_c, 1, 67, 0
1, 11703, Note_on_c, 1, 65, 127
1, 11716, Note_off_c, 1, 65, 0
1, 11718, Note_on_c, 1, 64, 127
1, 11731, Note_off_c, 1, 64, 0
1, 11733, Note_on_c, 1, 62, 127
1, 11746, Note_off_c, 1, 62, 0
1, 11748, Note_on_c, 1, 60, 127
1, 11761, Note_off_c, 1, 60, 0
1, 11808, Note_on_c, 1, 74, 127
1, 11815, Note_off_c, 1, 57, 0
1, 11821, Note_off_c, 1, 74, 0
1, 11823, Note_on_c, 1, 76, 127
1, 11823, Note_on_c, 1, 59, 127
1, 11823, Note_on_c, 1, 56, 127
1, 11836, Note_off_c, 1, 76, 0
1, 11838, Note_on_c, 1, 78, 127
1, 11849, Note_off_c, 1, 59, 0
1, 11849, Note_off_c, 1, 56, 0
1, 11851, Note_off_c, 1, 78, 0
1, 11853, Note_on_c, 1, 80, 127
1, 11853, Note_on_c, 1, 57, 127
1, 11853, Note_on_c, 1, 54, 127
1, 11866, Note_off_c, 1, 80, 0
1, 11868, Note_on_c, 1, 81, 127
1, 11879, Note_off_c, 1, 57, 0
1, 11879, Note_off_c, 1, 54, 0
1, 11881, Note_off_c, 1, 81, 0
1, 11883, Note_on_c, 1, 83, 127
1, 11883, Note_on_c, 1, 56, 127
1, 11883, Note_on_c, 1, 52, 127
1, 11896, Note_off_c, 1, 83, 0
1, 11898, Note_on_c, 1, 81, 127
1, 11911, Note_off_c, 1, 81, 0
1, 11913, Note_on_c, 1, 80, 127
1, 11926, Note_off_c, 1, 80, 0
1, 11928, Note_on_c, 1, 78, 127
1, 11935, Note_off_c, 1, 52, 0
1, 11941, Note_off_c, 1, 78, 0
1, 11943, Note_on_c, 1, 76, 127
1, 11943, Note_on_c, 1, 50, 127
1, 11956, Note_off_c, 1, 76, 0
1, 11958, Note_on_c, 1, 74, 127
1, 11971, Note_off_c, 1, 74, 0
1, 11973, Note_on_c, 1, 72, 127
1, 11986, Note_off_c, 1, 72, 0
1, 11988, Note_off_c, 1, 56, 0
1, 11988, Note_on_c, 1, 71, 127
1, 11995, Note_off_c, 1, 50, 0
1, 12001, Note_off_c, 1, 71, 0
1, 12003, Note_on_c, 1, 76, 127
1, 12003, Note_on_c, 1, 57, 127
1, 12003, Note_on_c, 1, 48, 127
1, 12016, Note_off_c, 1, 76, 0
1, 12018, Note_on_c, 1, 74, 127
1, 12031, Note_off_c, 1, 74, 0
1, 12033, Note_on_c, 1, 72, 127
1, 12046, Note_off_c, 1, 72, 0
1, 12048, Note_on_c, 1, 71, 127
1, 12061, Note_off_c, 1, 71, 0
1, 12063, Note_on_c, 1, 69, 127
1, 12074, Note_off_c, 1, 48, 0
1, 12076, Note_off_c, 1, 69, 0
1, 12078, Note_on_c, 1, 68, 127
1, 12091, Note_off_c, 1, 68, 0
1, 12093, Note_on_c, 1, 66, 127
1, 12106, Note_off_c, 1, 66, 0
1, 12108, Note_off_c, 1, 57, 0
1, 12108, Note_on_c, 1, 64, 127
1, 12121, Note_off_c, 1, 64, 0
1, 12123, Note_on_c, 1, 69, 127
1, 12123, Note_on_c, 1, 53, 127
1, 12136, Note_off_c, 1, 69, 0
1, 12138, Note_on_c, 1, 67, 127
1, 12151, Note_off_c, 1, 67, 0
1, 12153, Note_on_c, 1, 65, 127
1, 12166, Note_off_c, 1, 65, 0
1, 12168, Note_on_c, 1, 64, 127
1, 12181, Note_off_c, 1, 64, 0
1, 12183, Note_on_c, 1, 62, 127
1, 12194, Note_off_c, 1, 53, 0
1, 12196, Note_off_c, 1, 62, 0
1, 12198, Note_on_c, 1, 60, 127
1, 12211, Note_off_c, 1, 60, 0
1, 12213, Note_on_c, 1, 59, 127
1, 12226, Note_off_c, 1, 59, 0
1, 12228, Note_on_c, 1, 57, 127
1, 12241, Note_off_c, 1, 57, 0
1, 12243, Note_on_c, 1, 65, 127
1, 12243, Note_on_c, 1, 44, 127
1, 12256, Note_off_c, 1, 65, 0
1, 12258, Note_on_c, 1, 64, 127
1, 12271, Note_off_c, 1, 64, 0
1, 12273, Note_on_c, 1, 62, 127
1, 12286, Note_off_c, 1, 62, 0
1, 12288, Note_on_c, 1, 60, 127
1, 12301, Note_off_c, 1, 60, 0
1, 12303, Note_on_c, 1, 59, 127
1, 12310, Note_off_c, 1, 44, 0
1, 12316, Note_off_c, 1, 59, 0
1, 12318, Note_on_c, 1, 57, 127
1, 12331, Note_off_c, 1, 57, 0
1, 12333, Note_on_c, 1, 56, 127
1, 12346, Note_off_c, 1, 56, 0
1, 12348, Note_on_c, 1, 54, 127
1, 12361, Note_off_c, 1, 54, 0
1, 12363, Note_on_c, 1, 62, 127
1, 12376, Note_off_c, 1, 62, 0
1, 12378, Note_on_c, 1, 60, 127
1, 12391, Note_off_c, 1, 60, 0
1, 12393, Note_on_c, 1, 59, 127
1, 12406, Note_off_c, 1, 59, 0
1, 12408, Note_on_c, 1, 57, 127
1, 12421, Note_off_c, 1, 57, 0
1, 12423, Note_on_c, 1, 56, 127
1, 12436, Note_off_c, 1, 56, 0
1, 12438, Note_on_c, 1, 54, 127
1, 12451, Note_off_c, 1, 54, 0
1, 12453, Note_on_c, 1, 52, 127
1, 12466, Note_off_c, 1, 52, 0
1, 12468, Note_on_c, 1, 51, 127
1, 12481, Note_off_c, 1, 51, 0
1, 12483, Note_on_c, 1, 52, 127
1, 12535, Note_off_c, 1, 52, 0
1, 12543, Note_on_c, 1, 50, 127
1, 12558, Note_on_c, 1, 64, 127
1, 12570, Note_off_c, 1, 50, 0
1, 12571, Note_off_c, 1, 64, 0
1, 12573, Note_on_c, 1, 66, 127
1, 12586, Note_off_c, 1, 66, 0
1, 12588, Note_on_c, 1, 68, 127
1, 12601, Note_off_c, 1, 68, 0
1, 12603, Note_on_c, 1, 69, 127
1, 12603, Note_on_c, 1, 47, 127
1, 12623, Note_on_c, 1, 68, 127
1, 12634, Note_off_c, 1, 69, 0
1, 12634, Note_off_c, 1, 47, 0
1, 12642, Note_off_c, 1, 68, 0
1, 12663, Note_on_c, 1, 52, 127
1, 12690, Note_off_c, 1, 52, 0
1, 12693, Note_on_c, 1, 66, 127
1, 12706, Note_off_c, 1, 66, 0
1, 12708, Note_on_c, 1, 68, 127
1, 12721, Note_off_c, 1, 68, 0
1, 12723, Note_on_c, 1, 69, 127
1, 12723, Note_on_c, 1, 48, 127
1, 12746, Note_off_c, 1, 48, 0
1, 12783, Note_on_c, 1, 45, 127
1, 12798, Note_on_c, 1, 59, 127
1, 12810, Note_off_c, 1, 45, 0
1, 12811, Note_off_c, 1, 59, 0
1, 12813, Note_on_c, 1, 60, 127
1, 12826, Note_off_c, 1, 60, 0
1, 12828, Note_on_c, 1, 62, 127
1, 12841, Note_off_c, 1, 62, 0
1, 12843, Note_on_c, 1, 40, 127
1, 12859, Note_on_c, 1, 61, 127
1, 12866, Note_off_c, 1, 40, 0
1, 12874, Note_off_c, 1, 61, 0
1, 12903, Note_on_c, 1, 43, 127
1, 12930, Note_off_c, 1, 43, 0
1, 12963, Note_on_c, 1, 41, 127
1, 12976, Note_off_c, 1, 41, 0
1, 12993, Note_on_c, 1, 38, 127
1, 13015, Note_off_c, 1, 69, 0
1, 13023, Note_on_c, 1, 71, 127
1, 13023, Note_on_c, 1, 65, 127
1, 13045, Note_off_c, 1, 38, 0
1, 13046, Note_off_c, 1, 65, 0
1, 13058, Note_off_c, 1, 71, 0
1, 13068, Note_on_c, 1, 41, 127
1, 13081, Note_off_c, 1, 41, 0
1, 13083, Note_on_c, 1, 64, 127
1, 13083, Note_on_c, 1, 56, 127
1, 13083, Note_on_c, 1, 38, 127
1, 13091, Note_on_c, 1, 40, 127
1, 13098, Note_off_c, 1, 38, 0
1, 13099, Note_on_c, 1, 41, 127
1, 13106, Note_off_c, 1, 40, 0
1, 13114, Note_off_c, 1, 56, 0
1, 13114, Note_off_c, 1, 41, 0
1, 13118, Note_off_c, 1, 64, 0
1, 13143, Note_on_c, 1, 68, 127
1, 13143, Note_on_c, 1, 59, 127
1, 13174, Note_off_c, 1, 68, 0
1, 13174, Note_off_c, 1, 59, 0
1, 13179, Note_on_c, 1, 38, 127
1, 13188, Note_on_c, 1, 40, 127
1, 13192, Note_off_c, 1, 38, 0
1, 13201, Note_off_c, 1, 40, 0
1, 13203, Note_on_c, 1, 69, 127
1, 13203, Note_on_c, 1, 61, 127
1, 13203, Note_on_c, 1, 33, 127
1, 13428, Note_off_c, 1, 69, 0
1, 13428, Note_off_c, 1, 61, 0
1, 13428, Note_off_c, 1, 33, 0
1, 13428, End_track
0, 0, End_of_file