0, 0, Header, 1, 1, 480
1, 0, Start_track
1, 0, Title_t, "Test"
1, 0, Tempo, 500000
1, 0, Instrument_name_t, "Church Organ"
1, 120, Note_on_c, 1, 67, 127
1, 120, Note_on_c, 1, 79, 127
1, 180, Note_off_c, 1, 67, 0
1, 180, Note_off_c, 1, 79, 0
1, 180, Note_on_c, 1, 65, 127
1, 180, Note_on_c, 1, 77, 127
1, 240, Note_off_c, 1, 65, 0
1, 240, Note_off_c, 1, 77, 0
1, 360, Note_on_c, 1, 60, 127
1, 360, Note_on_c, 1, 72, 127
1, 419, Note_off_c, 1, 60, 0
1, 419, Note_off_c, 1, 72, 0
1, 476, Note_on_c, 1, 69, 127
1, 476, Note_on_c, 1, 81, 127
1, 504, Note_on_c, 1, 67, 127
1, 504, Note_on_c, 1, 79, 127
1, 506, Note_off_c, 1, 69, 0
1, 506, Note_off_c, 1, 81, 0
1, 534, Note_off_c, 1, 67, 0
1, 534, Note_off_c, 1, 79, 0
1, 540, Note_on_c, 1, 69, 127
1, 540, Note_on_c, 1, 81, 127
1, 720, Note_off_c, 1, 69, 0
1, 720, Note_off_c, 1, 81, 0
1, 720, Note_on_c, 1, 67, 127
1, 720, Note_on_c, 1, 79, 127
1, 960, Note_off_c, 1, 67, 0
1, 960, Note_off_c, 1, 79, 0
1, 1080, Note_on_c, 1, 65, 127
1, 1080, Note_on_c, 1, 77, 127
1, 1140, Note_off_c, 1, 65, 0
1, 1140, Note_off_c, 1, 77, 0
1, 1140, Note_on_c, 1, 64, 127
1, 1140, Note_on_c, 1, 76, 127
1, 1200, Note_off_c, 1, 64, 0
1, 1200, Note_off_c, 1, 76, 0
1, 1260, Note_on_c, 1, 67, 127
1, 1260, Note_on_c, 1, 79, 127
1, 1320, Note_off_c, 1, 67, 0
1, 1320, Note_off_c, 1, 79, 0
1, 1440, Note_on_c, 1, 62, 127
1, 1440, Note_on_c, 1, 74, 127
1, 1500, Note_off_c, 1, 62, 0
1, 1500, Note_off_c, 1, 74, 0
1, 1740, Note_on_c, 1, 69, 127
1, 1740, Note_on_c, 1, 81, 127
1, 1800, Note_off_c, 1, 69, 0
1, 1800, Note_off_c, 1, 81, 0
1, 2040, Note_on_c, 1, 72, 127
1, 2040, Note_on_c, 1, 84, 127
1, 2100, Note_off_c, 1, 72, 0
1, 2100, Note_off_c, 1, 84, 0
1, 2100, Note_on_c, 1, 71, 127
1, 2100, Note_on_c, 1, 83, 127
1, 2160, Note_off_c, 1, 71, 0
1, 2160, Note_off_c, 1, 83, 0
1, 2400, Note_on_c, 1, 60, 127
1, 2400, Note_on_c, 1, 88, 127
1, 2424, Note_on_c, 1, 86, 127
1, 2430, Note_off_c, 1, 88, 0
1, 2454, Note_off_c, 1, 86, 0
1, 2460, Note_off_c, 1, 60, 0
1, 2460, Note_on_c, 1, 59, 127
1, 2520, Note_off_c, 1, 59, 0
1, 2880, Note_on_c, 1, 57, 127
1, 2940, Note_off_c, 1, 57, 0
1, 3180, Note_on_c, 1, 66, 127
1, 3180, Note_on_c, 1, 78, 127
1, 3240, Note_off_c, 1, 66, 0
1, 3240, Note_off_c, 1, 78, 0
1, 3960, Note_on_c, 1, 55, 127
1, 4020, Note_off_c, 1, 55, 0
1, 4020, Note_on_c, 1, 53, 127
1, 4080, Note_off_c, 1, 53, 0
1, 4200, Note_on_c, 1, 48, 127
1, 4259, Note_off_c, 1, 48, 0
1, 4560, Note_on_c, 1, 70, 127
1, 4560, Note_on_c, 1, 82, 127
1, 4740, Note_off_c, 1, 70, 0
1, 4740, Note_off_c, 1, 82, 0
1, 4980, Note_on_c, 1, 52, 127
1, 5040, Note_off_c, 1, 52, 0
1, 5280, Note_on_c, 1, 50, 127
1, 5340, Note_off_c, 1, 50, 0
1, 5880, Note_on_c, 1, 91, 127
1, 5940, Note_off_c, 1, 91, 0
1, 5940, Note_on_c, 1, 89, 127
1, 6000, Note_off_c, 1, 89, 0
1, 6240, Note_on_c, 1, 93, 127
1, 6480, Note_off_c, 1, 93, 0
1, 6720, Note_on_c, 1, 90, 127
1, 6780, Note_on_c, 1, 49, 127
1, 6780, Note_on_c, 1, 61, 127
1, 6840, Note_off_c, 1, 90, 0
1, 6840, Note_off_c, 1, 49, 0
1, 6840, Note_off_c, 1, 61, 0
1, 6960, Note_on_c, 1, 54, 127
1, 7020, Note_off_c, 1, 54, 0
1, 7200, Note_on_c, 1, 95, 127
1, 7440, Note_off_c, 1, 95, 0
1, 7680, Note_on_c, 1, 80, 127
1, 7680, Note_on_c, 1, 92, 127
1, 7800, Note_off_c, 1, 80, 0
1, 7800, Note_off_c, 1, 92, 0
1, 7920, Note_on_c, 1, 56, 127
1, 7920, Note_on_c, 1, 68, 127
1, 7980, Note_off_c, 1, 56, 0
1, 7980, Note_off_c, 1, 68, 0
1, 8160, Note_on_c, 1, 96, 127
1, 8880, Note_off_c, 1, 96, 0
1, 10320, Note_on_c, 1, 73, 127
1, 10320, Note_on_c, 1, 85, 127
1, 10440, Note_off_c, 1, 73, 0
1, 10440, Note_off_c, 1, 85, 0
1, 10680, Note_on_c, 1, 94, 127
1, 10740, Note_off_c, 1, 94, 0
1, 18420, Note_on_c, 1, 47, 127
1, 18480, Note_off_c, 1, 47, 0
1, 18600, Note_on_c, 1, 43, 127
1, 18689, Note_off_c, 1, 43, 0
1, 19680, Note_on_c, 1, 45, 127
1, 19740, Note_off_c, 1, 45, 0
1, 22380, Note_on_c, 1, 46, 127
1, 22380, Note_on_c, 1, 58, 127
1, 22440, Note_off_c, 1, 46, 0
1, 22440, Note_off_c, 1, 58, 0
1, 22560, Note_on_c, 1, 41, 127
1, 22620, Note_off_c, 1, 41, 0
1, 22620, Note_on_c, 1, 40, 127
1, 22680, Note_off_c, 1, 40, 0
1, 23040, Note_on_c, 1, 38, 127
1, 23100, Note_off_c, 1, 38, 0
1, 25980, Note_on_c, 1, 42, 127
1, 26040, Note_off_c, 1, 42, 0
1, 26940, Note_on_c, 1, 44, 127
1, 27000, Note_off_c, 1, 44, 0
1, 36000, Note_on_c, 1, 36, 127
1, 36060, Note_off_c, 1, 36, 0
1, 39120, Note_on_c, 1, 65, 127
1, 39120, Note_on_c, 1, 55, 127
1, 39120, Note_on_c, 1, 62, 127
1, 39120, Note_on_c, 1, 43, 127
1, 39120, Note_on_c, 1, 67, 127
1, 39120, Note_on_c, 1, 77, 127
1, 39120, Note_on_c, 1, 74, 127
1, 39209, Note_off_c, 1, 65, 0
1, 39209, Note_off_c, 1, 62, 0
1, 39209, Note_off_c, 1, 67, 0
1, 39209, Note_off_c, 1, 77, 0
1, 39209, Note_off_c, 1, 74, 0
1, 39240, Note_off_c, 1, 55, 0
1, 39240, Note_off_c, 1, 43, 0
1, 39240, Note_on_c, 1, 71, 127
1, 39240, Note_on_c, 1, 83, 127
1, 39329, Note_off_c, 1, 71, 0
1, 39329, Note_off_c, 1, 83, 0
1, 39360, Note_on_c, 1, 72, 127
1, 39360, Note_on_c, 1, 60, 127
1, 39360, Note_on_c, 1, 64, 127
1, 39360, Note_on_c, 1, 67, 127
1, 39360, Note_on_c, 1, 36, 127
1, 39360, Note_on_c, 1, 48, 127
1, 39360, Note_on_c, 1, 76, 127
1, 39360, Note_on_c, 1, 84, 127
1, 39360, Note_on_c, 1, 79, 127
1, 39840, Note_off_c, 1, 72, 0
1, 39840, Note_off_c, 1, 60, 0
1, 39840, Note_off_c, 1, 64, 0
1, 39840, Note_off_c, 1, 67, 0
1, 39840, Note_off_c, 1, 36, 0
1, 39840, Note_off_c, 1, 48, 0
1, 39840, Note_off_c, 1, 76, 0
1, 39840, Note_off_c, 1, 84, 0
1, 39840, Note_off_c, 1, 79, 0
1, 39840, End_track
0, 0, End_of_file