0, 0, Header, 1, 1, 480
1, 0, Start_track
1, 0, Title_t, "Test"
1, 0, Tempo, 500000
1, 0, Instrument_name_t, "Church Organ"
1, 124, Note_on_c, 1, 62, 127
1, 229, Note_off_c, 1, 62, 0
1, 304, Note_on_c, 1, 58, 127
1, 356, Note_off_c, 1, 58, 0
1, 364, Note_on_c, 1, 63, 127
1, 469, Note_off_c, 1, 63, 0
1, 484, Note_on_c, 1, 60, 127
1, 589, Note_off_c, 1, 60, 0
1, 664, Note_on_c, 1, 57, 127
1, 716, Note_off_c, 1, 57, 0
1, 724, Note_on_c, 1, 62, 127
1, 829, Note_off_c, 1, 62, 0
1, 844, Note_on_c, 1, 58, 127
1, 949, Note_off_c, 1, 58, 0
1, 1024, Note_on_c, 1, 55, 127
1, 1076, Note_off_c, 1, 55, 0
1, 1084, Note_on_c, 1, 60, 127
1, 1136, Note_off_c, 1, 60, 0
1, 1144, Note_on_c, 1, 60, 127
1, 1196, Note_off_c, 1, 60, 0
1, 1204, Note_on_c, 1, 60, 127
1, 1256, Note_off_c, 1, 60, 0
1, 1264, Note_on_c, 1, 60, 127
1, 1316, Note_off_c, 1, 60, 0
1, 1324, Note_on_c, 1, 60, 127
1, 1376, Note_off_c, 1, 60, 0
1, 1384, Note_on_c, 1, 60, 127
1, 1436, Note_off_c, 1, 60, 0
1, 1444, Note_on_c, 1, 60, 127
1, 1496, Note_off_c, 1, 60, 0
1, 1504, Note_on_c, 1, 58, 127
1, 1530, Note_off_c, 1, 58, 0
1, 1534, Note_on_c, 1, 57, 127
1, 1560, Note_off_c, 1, 57, 0
1, 1564, Note_on_c, 1, 58, 127
1, 1564, Note_on_c, 1, 67, 127
1, 1590, Note_off_c, 1, 58, 0
1, 1594, Note_on_c, 1, 55, 127
1, 1620, Note_off_c, 1, 55, 0
1, 1654, Note_on_c, 1, 60, 127
1, 1669, Note_off_c, 1, 67, 0
1, 1680, Note_off_c, 1, 60, 0
1, 1684, Note_on_c, 1, 62, 127
1, 1710, Note_off_c, 1, 62, 0
1, 1714, Note_on_c, 1, 61, 127
1, 1740, Note_off_c, 1, 61, 0
1, 1744, Note_on_c, 1, 62, 127
1, 1744, Note_on_c, 1, 65, 127
1, 1796, Note_off_c, 1, 62, 0
1, 1796, Note_off_c, 1, 65, 0
1, 1804, Note_on_c, 1, 62, 127
1, 1804, Note_on_c, 1, 70, 127
1, 1843, Note_off_c, 1, 62, 0
1, 1864, Note_on_c, 1, 55, 127
1, 1903, Note_off_c, 1, 55, 0
1, 1909, Note_off_c, 1, 70, 0
1, 1924, Note_on_c, 1, 67, 127
1, 1954, Note_on_c, 1, 55, 127
1, 1980, Note_off_c, 1, 55, 0
1, 1984, Note_on_c, 1, 57, 127
1, 2010, Note_off_c, 1, 57, 0
1, 2014, Note_on_c, 1, 58, 127
1, 2029, Note_off_c, 1, 67, 0
1, 2040, Note_off_c, 1, 58, 0
1, 2044, Note_on_c, 1, 60, 127
1, 2070, Note_off_c, 1, 60, 0
1, 2074, Note_on_c, 1, 58, 127
1, 2100, Note_off_c, 1, 58, 0
1, 2104, Note_on_c, 1, 60, 127
1, 2104, Note_on_c, 1, 64, 127
1, 2156, Note_off_c, 1, 60, 0
1, 2156, Note_off_c, 1, 64, 0
1, 2164, Note_on_c, 1, 60, 127
1, 2164, Note_on_c, 1, 69, 127
1, 2203, Note_off_c, 1, 60, 0
1, 2224, Note_on_c, 1, 53, 127
1, 2259, Note_off_c, 1, 53, 0
1, 2269, Note_off_c, 1, 69, 0
1, 2284, Note_on_c, 1, 65, 127
1, 2314, Note_on_c, 1, 53, 127
1, 2340, Note_off_c, 1, 53, 0
1, 2344, Note_on_c, 1, 55, 127
1, 2370, Note_off_c, 1, 55, 0
1, 2374, Note_on_c, 1, 57, 127
1, 2389, Note_off_c, 1, 65, 0
1, 2400, Note_off_c, 1, 57, 0
1, 2404, Note_on_c, 1, 58, 127
1, 2430, Note_off_c, 1, 58, 0
1, 2434, Note_on_c, 1, 57, 127
1, 2460, Note_off_c, 1, 57, 0
1, 2464, Note_on_c, 1, 62, 127
1, 2464, Note_on_c, 1, 58, 127
1, 2516, Note_off_c, 1, 62, 0
1, 2524, Note_on_c, 1, 67, 127
1, 2550, Note_off_c, 1, 58, 0
1, 2554, Note_on_c, 1, 57, 127
1, 2576, Note_off_c, 1, 67, 0
1, 2580, Note_off_c, 1, 57, 0
1, 2584, Note_on_c, 1, 58, 127
1, 2584, Note_on_c, 1, 67, 127
1, 2610, Note_off_c, 1, 58, 0
1, 2614, Note_on_c, 1, 57, 127
1, 2636, Note_off_c, 1, 67, 0
1, 2640, Note_off_c, 1, 57, 0
1, 2644, Note_on_c, 1, 55, 127
1, 2644, Note_on_c, 1, 67, 127
1, 2670, Note_off_c, 1, 55, 0
1, 2674, Note_on_c, 1, 53, 127
1, 2696, Note_off_c, 1, 67, 0
1, 2700, Note_off_c, 1, 53, 0
1, 2704, Note_on_c, 1, 55, 127
1, 2704, Note_on_c, 1, 67, 127
1, 2730, Note_off_c, 1, 55, 0
1, 2734, Note_on_c, 1, 53, 127
1, 2756, Note_off_c, 1, 67, 0
1, 2760, Note_off_c, 1, 53, 0
1, 2764, Note_on_c, 1, 52, 127
1, 2764, Note_on_c, 1, 67, 127
1, 2790, Note_off_c, 1, 52, 0
1, 2794, Note_on_c, 1, 50, 127
1, 2816, Note_off_c, 1, 67, 0
1, 2820, Note_off_c, 1, 50, 0
1, 2824, Note_on_c, 1, 52, 127
1, 2824, Note_on_c, 1, 67, 127
1, 2850, Note_off_c, 1, 52, 0
1, 2854, Note_on_c, 1, 50, 127
1, 2876, Note_off_c, 1, 67, 0
1, 2880, Note_off_c, 1, 50, 0
1, 2884, Note_on_c, 1, 49, 127
1, 2884, Note_on_c, 1, 67, 127
1, 2923, Note_off_c, 1, 49, 0
1, 2936, Note_off_c, 1, 67, 0
1, 2944, Note_on_c, 1, 65, 127
1, 2944, Note_on_c, 1, 57, 127
1, 2970, Note_off_c, 1, 65, 0
1, 2974, Note_on_c, 1, 64, 127
1, 2983, Note_off_c, 1, 57, 0
1, 3000, Note_off_c, 1, 64, 0
1, 3004, Note_on_c, 1, 65, 127
1, 3004, Note_on_c, 1, 50, 127
1, 3004, Note_on_c, 1, 74, 127
1, 3030, Note_off_c, 1, 65, 0
1, 3034, Note_on_c, 1, 62, 127
1, 3043, Note_off_c, 1, 50, 0
1, 3060, Note_off_c, 1, 62, 0
1, 3064, Note_on_c, 1, 64, 127
1, 3064, Note_on_c, 1, 60, 127
1, 3090, Note_off_c, 1, 64, 0
1, 3094, Note_on_c, 1, 66, 127
1, 3103, Note_off_c, 1, 60, 0
1, 3109, Note_off_c, 1, 74, 0
1, 3120, Note_off_c, 1, 66, 0
1, 3124, Note_on_c, 1, 67, 127
1, 3124, Note_on_c, 1, 58, 127
1, 3150, Note_off_c, 1, 67, 0
1, 3154, Note_on_c, 1, 66, 127
1, 3167, Note_off_c, 1, 58, 0
1, 3180, Note_off_c, 1, 66, 0
1, 3184, Note_on_c, 1, 55, 127
1, 3184, Note_on_c, 1, 67, 127
1, 3184, Note_on_c, 1, 70, 127
1, 3227, Note_off_c, 1, 55, 0
1, 3236, Note_off_c, 1, 67, 0
1, 3236, Note_off_c, 1, 70, 0
1, 3244, Note_on_c, 1, 60, 127
1, 3244, Note_on_c, 1, 67, 127
1, 3244, Note_on_c, 1, 75, 127
1, 3270, Note_off_c, 1, 60, 0
1, 3274, Note_on_c, 1, 58, 127
1, 3296, Note_off_c, 1, 67, 0
1, 3300, Note_off_c, 1, 58, 0
1, 3349, Note_off_c, 1, 75, 0
1, 3364, Note_on_c, 1, 57, 127
1, 3364, Note_on_c, 1, 72, 127
1, 3394, Note_on_c, 1, 60, 127
1, 3420, Note_off_c, 1, 60, 0
1, 3424, Note_on_c, 1, 62, 127
1, 3442, Note_off_c, 1, 57, 0
1, 3450, Note_off_c, 1, 62, 0
1, 3454, Note_on_c, 1, 55, 127
1, 3454, Note_on_c, 1, 63, 127
1, 3469, Note_off_c, 1, 72, 0
1, 3480, Note_off_c, 1, 55, 0
1, 3480, Note_off_c, 1, 63, 0
1, 3484, Note_on_c, 1, 65, 127
1, 3484, Note_on_c, 1, 57, 127
1, 3510, Note_off_c, 1, 65, 0
1, 3514, Note_on_c, 1, 63, 127
1, 3536, Note_off_c, 1, 57, 0
1, 3540, Note_off_c, 1, 63, 0
1, 3544, Note_on_c, 1, 53, 127
1, 3544, Note_on_c, 1, 65, 127
1, 3544, Note_on_c, 1, 69, 127
1, 3596, Note_off_c, 1, 53, 0
1, 3596, Note_off_c, 1, 65, 0
1, 3596, Note_off_c, 1, 69, 0
1, 3604, Note_on_c, 1, 58, 127
1, 3604, Note_on_c, 1, 65, 127
1, 3604, Note_on_c, 1, 74, 127
1, 3630, Note_off_c, 1, 58, 0
1, 3634, Note_on_c, 1, 57, 127
1, 3656, Note_off_c, 1, 65, 0
1, 3660, Note_off_c, 1, 57, 0
1, 3709, Note_off_c, 1, 74, 0
1, 3724, Note_on_c, 1, 55, 127
1, 3724, Note_on_c, 1, 70, 127
1, 3754, Note_on_c, 1, 58, 127
1, 3776, Note_off_c, 1, 55, 0
1, 3780, Note_off_c, 1, 58, 0
1, 3784, Note_on_c, 1, 57, 127
1, 3784, Note_on_c, 1, 60, 127
1, 3810, Note_off_c, 1, 57, 0
1, 3810, Note_off_c, 1, 60, 0
1, 3814, Note_on_c, 1, 62, 127
1, 3829, Note_off_c, 1, 70, 0
1, 3840, Note_off_c, 1, 62, 0
1, 3844, Note_on_c, 1, 63, 127
1, 3844, Note_on_c, 1, 60, 127
1, 3870, Note_off_c, 1, 63, 0
1, 3874, Note_on_c, 1, 62, 127
1, 3900, Note_off_c, 1, 62, 0
1, 3904, Note_on_c, 1, 67, 127
1, 3922, Note_off_c, 1, 60, 0
1, 3934, Note_on_c, 1, 58, 127
1, 3956, Note_off_c, 1, 67, 0
1, 3960, Note_off_c, 1, 58, 0
1, 3964, Note_on_c, 1, 72, 127
1, 3964, Note_on_c, 1, 57, 127
1, 4016, Note_off_c, 1, 72, 0
1, 4069, Note_off_c, 1, 57, 0
1, 4084, Note_on_c, 1, 60, 127
1, 4084, Note_on_c, 1, 72, 127
1, 4110, Note_off_c, 1, 60, 0
1, 4114, Note_on_c, 1, 58, 127
1, 4136, Note_off_c, 1, 72, 0
1, 4140, Note_off_c, 1, 58, 0
1, 4144, Note_on_c, 1, 60, 127
1, 4144, Note_on_c, 1, 55, 127
1, 4144, Note_on_c, 1, 72, 127
1, 4170, Note_off_c, 1, 60, 0
1, 4174, Note_on_c, 1, 58, 127
1, 4179, Note_off_c, 1, 55, 0
1, 4196, Note_off_c, 1, 72, 0
1, 4200, Note_off_c, 1, 58, 0
1, 4204, Note_on_c, 1, 57, 127
1, 4204, Note_on_c, 1, 54, 127
1, 4204, Note_on_c, 1, 72, 127
1, 4230, Note_off_c, 1, 57, 0
1, 4234, Note_on_c, 1, 55, 127
1, 4243, Note_off_c, 1, 54, 0
1, 4256, Note_off_c, 1, 72, 0
1, 4260, Note_off_c, 1, 55, 0
1, 4264, Note_on_c, 1, 57, 127
1, 4264, Note_on_c, 1, 52, 127
1, 4264, Note_on_c, 1, 72, 127
1, 4290, Note_off_c, 1, 57, 0
1, 4294, Note_on_c, 1, 55, 127
1, 4303, Note_off_c, 1, 52, 0
1, 4316, Note_off_c, 1, 72, 0
1, 4320, Note_off_c, 1, 55, 0
1, 4324, Note_on_c, 1, 50, 127
1, 4324, Note_on_c, 1, 54, 127
1, 4324, Note_on_c, 1, 72, 127
1, 4363, Note_off_c, 1, 50, 0
1, 4376, Note_off_c, 1, 54, 0
1, 4376, Note_off_c, 1, 72, 0
1, 4384, Note_on_c, 1, 70, 127
1, 4384, Note_on_c, 1, 54, 127
1, 4384, Note_on_c, 1, 62, 127
1, 4410, Note_off_c, 1, 70, 0
1, 4414, Note_on_c, 1, 69, 127
1, 4436, Note_off_c, 1, 54, 0
1, 4440, Note_off_c, 1, 69, 0
1, 4444, Note_on_c, 1, 55, 127
1, 4474, Note_on_c, 1, 67, 127
1, 4496, Note_off_c, 1, 62, 0
1, 4500, Note_off_c, 1, 67, 0
1, 4534, Note_on_c, 1, 72, 127
1, 4534, Note_on_c, 1, 64, 127
1, 4549, Note_off_c, 1, 55, 0
1, 4560, Note_off_c, 1, 72, 0
1, 4560, Note_off_c, 1, 64, 0
1, 4564, Note_on_c, 1, 65, 127
1, 4564, Note_on_c, 1, 74, 127
1, 4590, Note_off_c, 1, 65, 0
1, 4590, Note_off_c, 1, 74, 0
1, 4594, Note_on_c, 1, 64, 127
1, 4594, Note_on_c, 1, 73, 127
1, 4620, Note_off_c, 1, 64, 0
1, 4620, Note_off_c, 1, 73, 0
1, 4624, Note_on_c, 1, 53, 127
1, 4624, Note_on_c, 1, 74, 127
1, 4624, Note_on_c, 1, 65, 127
1, 4654, Note_on_c, 1, 69, 127
1, 4676, Note_off_c, 1, 53, 0
1, 4676, Note_off_c, 1, 74, 0
1, 4676, Note_off_c, 1, 65, 0
1, 4684, Note_on_c, 1, 58, 127
1, 4684, Note_on_c, 1, 62, 127
1, 4710, Note_off_c, 1, 69, 0
1, 4744, Note_on_c, 1, 67, 127
1, 4789, Note_off_c, 1, 58, 0
1, 4796, Note_off_c, 1, 67, 0
1, 4804, Note_on_c, 1, 55, 127
1, 4804, Note_on_c, 1, 64, 127
1, 4856, Note_off_c, 1, 62, 0
1, 4864, Note_on_c, 1, 60, 127
1, 4890, Note_off_c, 1, 60, 0
1, 4894, Note_on_c, 1, 70, 127
1, 4909, Note_off_c, 1, 55, 0
1, 4909, Note_off_c, 1, 64, 0
1, 4920, Note_off_c, 1, 70, 0
1, 4924, Note_on_c, 1, 72, 127
1, 4924, Note_on_c, 1, 57, 127
1, 4950, Note_off_c, 1, 72, 0
1, 4954, Note_on_c, 1, 70, 127
1, 4976, Note_off_c, 1, 57, 0
1, 4980, Note_off_c, 1, 70, 0
1, 4984, Note_on_c, 1, 52, 127
1, 4984, Note_on_c, 1, 72, 127
1, 4984, Note_on_c, 1, 55, 127
1, 5014, Note_on_c, 1, 67, 127
1, 5036, Note_off_c, 1, 52, 0
1, 5036, Note_off_c, 1, 72, 0
1, 5036, Note_off_c, 1, 55, 0
1, 5044, Note_on_c, 1, 57, 127
1, 5044, Note_on_c, 1, 60, 127
1, 5070, Note_off_c, 1, 67, 0
1, 5104, Note_on_c, 1, 65, 127
1, 5134, Note_on_c, 1, 64, 127
1, 5149, Note_off_c, 1, 57, 0
1, 5156, Note_off_c, 1, 65, 0
1, 5160, Note_off_c, 1, 64, 0
1, 5164, Note_on_c, 1, 53, 127
1, 5164, Note_on_c, 1, 62, 127
1, 5216, Note_off_c, 1, 60, 0
1, 5224, Note_on_c, 1, 58, 127
1, 5250, Note_off_c, 1, 58, 0
1, 5254, Note_on_c, 1, 69, 127
1, 5269, Note_off_c, 1, 53, 0
1, 5269, Note_off_c, 1, 62, 0
1, 5280, Note_off_c, 1, 69, 0
1, 5284, Note_on_c, 1, 70, 127
1, 5284, Note_on_c, 1, 55, 127
1, 5310, Note_off_c, 1, 70, 0
1, 5314, Note_on_c, 1, 69, 127
1, 5336, Note_off_c, 1, 55, 0
1, 5340, Note_off_c, 1, 69, 0
1, 5344, Note_on_c, 1, 50, 127
1, 5344, Note_on_c, 1, 53, 127
1, 5344, Note_on_c, 1, 70, 127
1, 5374, Note_on_c, 1, 65, 127
1, 5396, Note_off_c, 1, 50, 0
1, 5396, Note_off_c, 1, 53, 0
1, 5400, Note_off_c, 1, 65, 0
1, 5404, Note_on_c, 1, 55, 127
1, 5404, Note_on_c, 1, 64, 127
1, 5404, Note_on_c, 1, 58, 127
1, 5430, Note_off_c, 1, 70, 0
1, 5434, Note_on_c, 1, 69, 127
1, 5456, Note_off_c, 1, 55, 0
1, 5460, Note_off_c, 1, 69, 0
1, 5482, Note_off_c, 1, 64, 0
1, 5509, Note_off_c, 1, 58, 0
1, 5524, Note_on_c, 1, 67, 127
1, 5524, Note_on_c, 1, 55, 127
1, 5524, Note_on_c, 1, 64, 127
1, 5550, Note_off_c, 1, 67, 0
1, 5554, Note_on_c, 1, 65, 127
1, 5576, Note_off_c, 1, 55, 0
1, 5580, Note_off_c, 1, 65, 0
1, 5602, Note_off_c, 1, 64, 0
1, 5614, Note_on_c, 1, 62, 127
1, 5640, Note_off_c, 1, 62, 0
1, 5644, Note_on_c, 1, 64, 127
1, 5644, Note_on_c, 1, 55, 127
1, 5644, Note_on_c, 1, 61, 127
1, 5670, Note_off_c, 1, 64, 0
1, 5674, Note_on_c, 1, 62, 127
1, 5696, Note_off_c, 1, 55, 0
1, 5700, Note_off_c, 1, 62, 0
1, 5722, Note_off_c, 1, 61, 0
1, 5764, Note_on_c, 1, 55, 127
1, 5764, Note_on_c, 1, 61, 127
1, 5764, Note_on_c, 1, 57, 127
1, 5816, Note_off_c, 1, 55, 0
1, 5816, Note_off_c, 1, 61, 0
1, 5824, Note_on_c, 1, 53, 127
1, 5824, Note_on_c, 1, 69, 127
1, 5850, Note_off_c, 1, 53, 0
1, 5854, Note_on_c, 1, 52, 127
1, 5869, Note_off_c, 1, 57, 0
1, 5876, Note_off_c, 1, 69, 0
1, 5880, Note_off_c, 1, 52, 0
1, 5884, Note_on_c, 1, 53, 127
1, 5884, Note_on_c, 1, 62, 127
1, 5910, Note_off_c, 1, 53, 0
1, 5914, Note_on_c, 1, 50, 127
1, 5936, Note_off_c, 1, 62, 0
1, 5940, Note_off_c, 1, 50, 0
1, 5944, Note_on_c, 1, 51, 127
1, 5944, Note_on_c, 1, 72, 127
1, 5970, Note_off_c, 1, 51, 0
1, 5974, Note_on_c, 1, 53, 127
1, 5996, Note_off_c, 1, 72, 0
1, 6000, Note_off_c, 1, 53, 0
1, 6004, Note_on_c, 1, 55, 127
1, 6004, Note_on_c, 1, 71, 127
1, 6030, Note_off_c, 1, 55, 0
1, 6030, Note_off_c, 1, 71, 0
1, 6034, Note_on_c, 1, 53, 127
1, 6034, Note_on_c, 1, 74, 127
1, 6060, Note_off_c, 1, 53, 0
1, 6060, Note_off_c, 1, 74, 0
1, 6064, Note_on_c, 1, 55, 127
1, 6064, Note_on_c, 1, 77, 127
1, 6094, Note_on_c, 1, 74, 127
1, 6116, Note_off_c, 1, 55, 0
1, 6116, Note_off_c, 1, 77, 0
1, 6124, Note_on_c, 1, 48, 127
1, 6124, Note_on_c, 1, 75, 127
1, 6150, Note_off_c, 1, 48, 0
1, 6154, Note_on_c, 1, 47, 127
1, 6176, Note_off_c, 1, 74, 0
1, 6180, Note_off_c, 1, 47, 0
1, 6184, Note_on_c, 1, 67, 127
1, 6214, Note_on_c, 1, 50, 127
1, 6229, Note_off_c, 1, 75, 0
1, 6236, Note_off_c, 1, 67, 0
1, 6240, Note_off_c, 1, 50, 0
1, 6244, Note_on_c, 1, 51, 127
1, 6244, Note_on_c, 1, 60, 127
1, 6270, Note_off_c, 1, 51, 0
1, 6274, Note_on_c, 1, 48, 127
1, 6296, Note_off_c, 1, 60, 0
1, 6300, Note_off_c, 1, 48, 0
1, 6304, Note_on_c, 1, 50, 127
1, 6304, Note_on_c, 1, 70, 127
1, 6330, Note_off_c, 1, 50, 0
1, 6334, Note_on_c, 1, 51, 127
1, 6356, Note_off_c, 1, 70, 0
1, 6360, Note_off_c, 1, 51, 0
1, 6364, Note_on_c, 1, 53, 127
1, 6364, Note_on_c, 1, 69, 127
1, 6390, Note_off_c, 1, 53, 0
1, 6390, Note_off_c, 1, 69, 0
1, 6394, Note_on_c, 1, 51, 127
1, 6394, Note_on_c, 1, 72, 127
1, 6420, Note_off_c, 1, 51, 0
1, 6420, Note_off_c, 1, 72, 0
1, 6424, Note_on_c, 1, 53, 127
1, 6424, Note_on_c, 1, 75, 127
1, 6454, Note_on_c, 1, 81, 127
1, 6476, Note_off_c, 1, 53, 0
1, 6480, Note_off_c, 1, 81, 0
1, 6484, Note_on_c, 1, 46, 127
1, 6484, Note_on_c, 1, 82, 127
1, 6510, Note_off_c, 1, 46, 0
1, 6536, Note_off_c, 1, 75, 0
1, 6544, Note_on_c, 1, 55, 127
1, 6544, Note_on_c, 1, 74, 127
1, 6562, Note_off_c, 1, 82, 0
1, 6570, Note_off_c, 1, 55, 0
1, 6574, Note_on_c, 1, 57, 127
1, 6596, Note_off_c, 1, 74, 0
1, 6600, Note_off_c, 1, 57, 0
1, 6604, Note_on_c, 1, 58, 127
1, 6604, Note_on_c, 1, 79, 127
1, 6630, Note_off_c, 1, 58, 0
1, 6630, Note_off_c, 1, 79, 0
1, 6634, Note_on_c, 1, 57, 127
1, 6634, Note_on_c, 1, 78, 127
1, 6660, Note_off_c, 1, 57, 0
1, 6660, Note_off_c, 1, 78, 0
1, 6664, Note_on_c, 1, 79, 127
1, 6664, Note_on_c, 1, 58, 127
1, 6690, Note_off_c, 1, 79, 0
1, 6694, Note_on_c, 1, 78, 127
1, 6716, Note_off_c, 1, 58, 0
1, 6720, Note_off_c, 1, 78, 0
1, 6724, Note_on_c, 1, 79, 127
1, 6754, Note_on_c, 1, 52, 127
1, 6780, Note_off_c, 1, 52, 0
1, 6784, Note_on_c, 1, 54, 127
1, 6810, Note_off_c, 1, 54, 0
1, 6814, Note_on_c, 1, 55, 127
1, 6814, Note_on_c, 1, 74, 127
1, 6840, Note_off_c, 1, 55, 0
1, 6840, Note_off_c, 1, 74, 0
1, 6844, Note_on_c, 1, 57, 127
1, 6844, Note_on_c, 1, 72, 127
1, 6870, Note_off_c, 1, 57, 0
1, 6870, Note_off_c, 1, 72, 0
1, 6874, Note_on_c, 1, 70, 127
1, 6900, Note_off_c, 1, 70, 0
1, 6949, Note_off_c, 1, 79, 0
1, 6964, Note_on_c, 1, 78, 127
1, 6964, Note_on_c, 1, 72, 127
1, 6964, Note_on_c, 1, 62, 127
1, 6994, Note_on_c, 1, 50, 127
1, 7020, Note_off_c, 1, 50, 0
1, 7024, Note_on_c, 1, 52, 127
1, 7042, Note_off_c, 1, 78, 0
1, 7042, Note_off_c, 1, 72, 0
1, 7050, Note_off_c, 1, 52, 0
1, 7054, Note_on_c, 1, 81, 127
1, 7054, Note_on_c, 1, 54, 127
1, 7069, Note_off_c, 1, 62, 0
1, 7080, Note_off_c, 1, 81, 0
1, 7080, Note_off_c, 1, 54, 0
1, 7084, Note_on_c, 1, 55, 127
1, 7084, Note_on_c, 1, 70, 127
1, 7084, Note_on_c, 1, 74, 127
1, 7110, Note_off_c, 1, 55, 0
1, 7110, Note_off_c, 1, 70, 0
1, 7114, Note_on_c, 1, 54, 127
1, 7114, Note_on_c, 1, 69, 127
1, 7140, Note_off_c, 1, 54, 0
1, 7140, Note_off_c, 1, 69, 0
1, 7144, Note_on_c, 1, 58, 127
1, 7162, Note_off_c, 1, 74, 0
1, 7174, Note_on_c, 1, 72, 127
1, 7196, Note_off_c, 1, 58, 0
1, 7200, Note_off_c, 1, 72, 0
1, 7204, Note_on_c, 1, 67, 127
1, 7204, Note_on_c, 1, 55, 127
1, 7204, Note_on_c, 1, 63, 127
1, 7204, Note_on_c, 1, 70, 127
1, 7230, Note_off_c, 1, 67, 0
1, 7234, Note_on_c, 1, 65, 127
1, 7256, Note_off_c, 1, 55, 0
1, 7260, Note_off_c, 1, 65, 0
1, 7264, Note_on_c, 1, 48, 127
1, 7309, Note_off_c, 1, 63, 0
1, 7316, Note_off_c, 1, 48, 0
1, 7324, Note_on_c, 1, 60, 127
1, 7384, Note_on_c, 1, 50, 127
1, 7410, Note_off_c, 1, 50, 0
1, 7414, Note_on_c, 1, 62, 127
1, 7414, Note_on_c, 1, 51, 127
1, 7429, Note_off_c, 1, 70, 0
1, 7429, Note_off_c, 1, 60, 0
1, 7440, Note_off_c, 1, 62, 0
1, 7440, Note_off_c, 1, 51, 0
1, 7444, Note_on_c, 1, 53, 127
1, 7444, Note_on_c, 1, 60, 127
1, 7444, Note_on_c, 1, 69, 127
1, 7470, Note_off_c, 1, 53, 0
1, 7474, Note_on_c, 1, 51, 127
1, 7500, Note_off_c, 1, 51, 0
1, 7504, Note_on_c, 1, 57, 127
1, 7549, Note_off_c, 1, 60, 0
1, 7556, Note_off_c, 1, 57, 0
1, 7564, Note_on_c, 1, 65, 127
1, 7564, Note_on_c, 1, 62, 127
1, 7590, Note_off_c, 1, 69, 0
1, 7624, Note_on_c, 1, 70, 127
1, 7624, Note_on_c, 1, 46, 127
1, 7650, Note_off_c, 1, 70, 0
1, 7669, Note_off_c, 1, 65, 0
1, 7669, Note_off_c, 1, 62, 0
1, 7676, Note_off_c, 1, 46, 0
1, 7684, Note_on_c, 1, 67, 127
1, 7684, Note_on_c, 1, 58, 127
1, 7684, Note_on_c, 1, 62, 127
1, 7714, Note_on_c, 1, 46, 127
1, 7740, Note_off_c, 1, 46, 0
1, 7744, Note_on_c, 1, 48, 127
1, 7762, Note_off_c, 1, 67, 0
1, 7770, Note_off_c, 1, 48, 0
1, 7774, Note_on_c, 1, 66, 127
1, 7774, Note_on_c, 1, 50, 127
1, 7789, Note_off_c, 1, 58, 0
1, 7789, Note_off_c, 1, 62, 0
1, 7800, Note_off_c, 1, 66, 0
1, 7800, Note_off_c, 1, 50, 0
1, 7804, Note_on_c, 1, 51, 127
1, 7804, Note_on_c, 1, 67, 127
1, 7830, Note_off_c, 1, 51, 0
1, 7834, Note_on_c, 1, 50, 127
1, 7860, Note_off_c, 1, 50, 0
1, 7864, Note_on_c, 1, 55, 127
1, 7916, Note_off_c, 1, 55, 0
1, 7924, Note_on_c, 1, 60, 127
1, 7976, Note_off_c, 1, 60, 0
1, 8002, Note_off_c, 1, 67, 0
1, 8014, Note_on_c, 1, 70, 127
1, 8040, Note_off_c, 1, 70, 0
1, 8044, Note_on_c, 1, 48, 127
1, 8044, Note_on_c, 1, 60, 127
1, 8044, Note_on_c, 1, 69, 127
1, 8070, Note_off_c, 1, 48, 0
1, 8074, Note_on_c, 1, 46, 127
1, 8096, Note_off_c, 1, 60, 0
1, 8100, Note_off_c, 1, 46, 0
1, 8122, Note_off_c, 1, 69, 0
1, 8134, Note_on_c, 1, 72, 127
1, 8160, Note_off_c, 1, 72, 0
1, 8164, Note_on_c, 1, 45, 127
1, 8164, Note_on_c, 1, 60, 127
1, 8164, Note_on_c, 1, 66, 127
1, 8190, Note_off_c, 1, 45, 0
1, 8194, Note_on_c, 1, 43, 127
1, 8216, Note_off_c, 1, 60, 0
1, 8220, Note_off_c, 1, 43, 0
1, 8242, Note_off_c, 1, 66, 0
1, 8254, Note_on_c, 1, 69, 127
1, 8280, Note_off_c, 1, 69, 0
1, 8284, Note_on_c, 1, 42, 127
1, 8284, Note_on_c, 1, 62, 127
1, 8336, Note_off_c, 1, 42, 0
1, 8344, Note_on_c, 1, 58, 127
1, 8344, Note_on_c, 1, 50, 127
1, 8362, Note_off_c, 1, 62, 0
1, 8370, Note_off_c, 1, 58, 0
1, 8374, Note_on_c, 1, 57, 127
1, 8396, Note_off_c, 1, 50, 0
1, 8400, Note_off_c, 1, 57, 0
1, 8404, Note_on_c, 1, 58, 127
1, 8404, Note_on_c, 1, 43, 127
1, 8404, Note_on_c, 1, 67, 127
1, 8430, Note_off_c, 1, 58, 0
1, 8434, Note_on_c, 1, 55, 127
1, 8456, Note_off_c, 1, 43, 0
1, 8460, Note_off_c, 1, 55, 0
1, 8464, Note_on_c, 1, 57, 127
1, 8464, Note_on_c, 1, 53, 127
1, 8490, Note_off_c, 1, 57, 0
1, 8509, Note_off_c, 1, 67, 0
1, 8516, Note_off_c, 1, 53, 0
1, 8524, Note_on_c, 1, 60, 127
1, 8524, Note_on_c, 1, 52, 127
1, 8550, Note_off_c, 1, 60, 0
1, 8554, Note_on_c, 1, 58, 127
1, 8576, Note_off_c, 1, 52, 0
1, 8580, Note_off_c, 1, 58, 0
1, 8584, Note_on_c, 1, 48, 127
1, 8584, Note_on_c, 1, 60, 127
1, 8614, Note_on_c, 1, 70, 127
1, 8636, Note_off_c, 1, 48, 0
1, 8636, Note_off_c, 1, 60, 0
1, 8644, Note_on_c, 1, 53, 127
1, 8670, Note_off_c, 1, 70, 0
1, 8696, Note_off_c, 1, 53, 0
1, 8704, Note_on_c, 1, 65, 127
1, 8704, Note_on_c, 1, 69, 127
1, 8704, Note_on_c, 1, 57, 127
1, 8730, Note_off_c, 1, 65, 0
1, 8730, Note_off_c, 1, 69, 0
1, 8734, Note_on_c, 1, 64, 127
1, 8734, Note_on_c, 1, 67, 127
1, 8756, Note_off_c, 1, 57, 0
1, 8760, Note_off_c, 1, 64, 0
1, 8760, Note_off_c, 1, 67, 0
1, 8764, Note_on_c, 1, 69, 127
1, 8764, Note_on_c, 1, 50, 127
1, 8764, Note_on_c, 1, 65, 127
1, 8790, Note_off_c, 1, 69, 0
1, 8816, Note_off_c, 1, 50, 0
1, 8816, Note_off_c, 1, 65, 0
1, 8824, Note_on_c, 1, 71, 127
1, 8824, Note_on_c, 1, 60, 127
1, 8850, Note_off_c, 1, 71, 0
1, 8854, Note_on_c, 1, 72, 127
1, 8876, Note_off_c, 1, 60, 0
1, 8880, Note_off_c, 1, 72, 0
1, 8884, Note_on_c, 1, 74, 127
1, 8884, Note_on_c, 1, 59, 127
1, 8910, Note_off_c, 1, 74, 0
1, 8914, Note_on_c, 1, 72, 127
1, 8936, Note_off_c, 1, 59, 0
1, 8940, Note_off_c, 1, 72, 0
1, 8944, Note_on_c, 1, 55, 127
1, 8944, Note_on_c, 1, 74, 127
1, 8974, Note_on_c, 1, 65, 127
1, 8996, Note_off_c, 1, 55, 0
1, 8996, Note_off_c, 1, 74, 0
1, 9004, Note_on_c, 1, 60, 127
1, 9030, Note_off_c, 1, 65, 0
1, 9056, Note_off_c, 1, 60, 0
1, 9064, Note_on_c, 1, 63, 127
1, 9064, Note_on_c, 1, 72, 127
1, 9064, Note_on_c, 1, 55, 127
1, 9090, Note_off_c, 1, 63, 0
1, 9090, Note_off_c, 1, 72, 0
1, 9094, Note_on_c, 1, 62, 127
1, 9094, Note_on_c, 1, 71, 127
1, 9116, Note_off_c, 1, 55, 0
1, 9120, Note_off_c, 1, 62, 0
1, 9120, Note_off_c, 1, 71, 0
1, 9124, Note_on_c, 1, 63, 127
1, 9124, Note_on_c, 1, 48, 127
1, 9124, Note_on_c, 1, 72, 127
1, 9150, Note_off_c, 1, 63, 0
1, 9154, Note_on_c, 1, 60, 127
1, 9176, Note_off_c, 1, 48, 0
1, 9180, Note_off_c, 1, 60, 0
1, 9184, Note_on_c, 1, 66, 127
1, 9184, Note_on_c, 1, 57, 127
1, 9210, Note_off_c, 1, 66, 0
1, 9214, Note_on_c, 1, 67, 127
1, 9229, Note_off_c, 1, 72, 0
1, 9236, Note_off_c, 1, 57, 0
1, 9240, Note_off_c, 1, 67, 0
1, 9244, Note_on_c, 1, 69, 127
1, 9244, Note_on_c, 1, 54, 127
1, 9270, Note_off_c, 1, 69, 0
1, 9274, Note_on_c, 1, 67, 127
1, 9296, Note_off_c, 1, 54, 0
1, 9300, Note_off_c, 1, 67, 0
1, 9304, Note_on_c, 1, 50, 127
1, 9304, Note_on_c, 1, 69, 127
1, 9334, Note_on_c, 1, 72, 127
1, 9356, Note_off_c, 1, 50, 0
1, 9356, Note_off_c, 1, 69, 0
1, 9364, Note_on_c, 1, 55, 127
1, 9390, Note_off_c, 1, 72, 0
1, 9416, Note_off_c, 1, 55, 0
1, 9424, Note_on_c, 1, 67, 127
1, 9424, Note_on_c, 1, 70, 127
1, 9424, Note_on_c, 1, 58, 127
1, 9450, Note_off_c, 1, 67, 0
1, 9450, Note_off_c, 1, 70, 0
1, 9454, Note_on_c, 1, 66, 127
1, 9454, Note_on_c, 1, 69, 127
1, 9476, Note_off_c, 1, 58, 0
1, 9480, Note_off_c, 1, 66, 0
1, 9480, Note_off_c, 1, 69, 0
1, 9484, Note_on_c, 1, 70, 127
1, 9484, Note_on_c, 1, 52, 127
1, 9484, Note_on_c, 1, 67, 127
1, 9510, Note_off_c, 1, 70, 0
1, 9514, Note_on_c, 1, 74, 127
1, 9536, Note_off_c, 1, 52, 0
1, 9536, Note_off_c, 1, 67, 0
1, 9540, Note_off_c, 1, 74, 0
1, 9544, Note_on_c, 1, 76, 127
1, 9544, Note_on_c, 1, 62, 127
1, 9570, Note_off_c, 1, 76, 0
1, 9574, Note_on_c, 1, 77, 127
1, 9596, Note_off_c, 1, 62, 0
1, 9600, Note_off_c, 1, 77, 0
1, 9604, Note_on_c, 1, 79, 127
1, 9604, Note_on_c, 1, 61, 127
1, 9630, Note_off_c, 1, 79, 0
1, 9634, Note_on_c, 1, 77, 127
1, 9656, Note_off_c, 1, 61, 0
1, 9660, Note_off_c, 1, 77, 0
1, 9664, Note_on_c, 1, 57, 127
1, 9664, Note_on_c, 1, 79, 127
1, 9694, Note_on_c, 1, 61, 127
1, 9716, Note_off_c, 1, 57, 0
1, 9720, Note_off_c, 1, 61, 0
1, 9724, Note_on_c, 1, 62, 127
1, 9750, Note_off_c, 1, 62, 0
1, 9776, Note_off_c, 1, 79, 0
1, 9784, Note_on_c, 1, 62, 127
1, 9784, Note_on_c, 1, 77, 127
1, 9810, Note_off_c, 1, 62, 0
1, 9810, Note_off_c, 1, 77, 0
1, 9814, Note_on_c, 1, 57, 127
1, 9814, Note_on_c, 1, 76, 127
1, 9840, Note_off_c, 1, 57, 0
1, 9840, Note_off_c, 1, 76, 0
1, 9844, Note_on_c, 1, 77, 127
1, 9844, Note_on_c, 1, 50, 127
1, 9844, Note_on_c, 1, 69, 127
1, 9870, Note_off_c, 1, 77, 0
1, 9874, Note_on_c, 1, 74, 127
1, 9896, Note_off_c, 1, 50, 0
1, 9900, Note_off_c, 1, 74, 0
1, 9904, Note_on_c, 1, 62, 127
1, 9930, Note_off_c, 1, 62, 0
1, 9934, Note_on_c, 1, 64, 127
1, 9934, Note_on_c, 1, 79, 127
1, 9949, Note_off_c, 1, 69, 0
1, 9960, Note_off_c, 1, 64, 0
1, 9960, Note_off_c, 1, 79, 0
1, 9964, Note_on_c, 1, 81, 127
1, 9964, Note_on_c, 1, 65, 127
1, 9990, Note_off_c, 1, 81, 0
1, 9994, Note_on_c, 1, 79, 127
1, 10016, Note_off_c, 1, 65, 0
1, 10020, Note_off_c, 1, 79, 0
1, 10024, Note_on_c, 1, 62, 127
1, 10024, Note_on_c, 1, 65, 127
1, 10024, Note_on_c, 1, 81, 127
1, 10076, Note_off_c, 1, 62, 0
1, 10076, Note_off_c, 1, 65, 0
1, 10076, Note_off_c, 1, 81, 0
1, 10084, Note_on_c, 1, 67, 127
1, 10084, Note_on_c, 1, 81, 127
1, 10084, Note_on_c, 1, 70, 127
1, 10110, Note_off_c, 1, 67, 0
1, 10114, Note_on_c, 1, 55, 127
1, 10136, Note_off_c, 1, 81, 0
1, 10140, Note_off_c, 1, 55, 0
1, 10144, Note_on_c, 1, 57, 127
1, 10144, Note_on_c, 1, 74, 127
1, 10170, Note_off_c, 1, 57, 0
1, 10174, Note_on_c, 1, 58, 127
1, 10189, Note_off_c, 1, 70, 0
1, 10196, Note_off_c, 1, 74, 0
1, 10200, Note_off_c, 1, 58, 0
1, 10204, Note_on_c, 1, 60, 127
1, 10204, Note_on_c, 1, 67, 127
1, 10230, Note_off_c, 1, 60, 0
1, 10234, Note_on_c, 1, 55, 127
1, 10234, Note_on_c, 1, 74, 127
1, 10260, Note_off_c, 1, 55, 0
1, 10260, Note_off_c, 1, 74, 0
1, 10264, Note_on_c, 1, 76, 127
1, 10290, Note_off_c, 1, 76, 0
1, 10294, Note_on_c, 1, 62, 127
1, 10294, Note_on_c, 1, 77, 127
1, 10309, Note_off_c, 1, 67, 0
1, 10320, Note_off_c, 1, 62, 0
1, 10320, Note_off_c, 1, 77, 0
1, 10324, Note_on_c, 1, 79, 127
1, 10324, Note_on_c, 1, 64, 127
1, 10350, Note_off_c, 1, 79, 0
1, 10354, Note_on_c, 1, 77, 127
1, 10376, Note_off_c, 1, 64, 0
1, 10380, Note_off_c, 1, 77, 0
1, 10384, Note_on_c, 1, 60, 127
1, 10384, Note_on_c, 1, 64, 127
1, 10384, Note_on_c, 1, 79, 127
1, 10436, Note_off_c, 1, 60, 0
1, 10436, Note_off_c, 1, 64, 0
1, 10436, Note_off_c, 1, 79, 0
1, 10444, Note_on_c, 1, 65, 127
1, 10444, Note_on_c, 1, 79, 127
1, 10444, Note_on_c, 1, 69, 127
1, 10470, Note_off_c, 1, 65, 0
1, 10474, Note_on_c, 1, 53, 127
1, 10496, Note_off_c, 1, 79, 0
1, 10500, Note_off_c, 1, 53, 0
1, 10504, Note_on_c, 1, 55, 127
1, 10504, Note_on_c, 1, 72, 127
1, 10530, Note_off_c, 1, 55, 0
1, 10534, Note_on_c, 1, 57, 127
1, 10549, Note_off_c, 1, 69, 0
1, 10556, Note_off_c, 1, 72, 0
1, 10560, Note_off_c, 1, 57, 0
1, 10564, Note_on_c, 1, 58, 127
1, 10564, Note_on_c, 1, 65, 127
1, 10590, Note_off_c, 1, 58, 0
1, 10594, Note_on_c, 1, 53, 127
1, 10594, Note_on_c, 1, 72, 127
1, 10620, Note_off_c, 1, 53, 0
1, 10620, Note_off_c, 1, 72, 0
1, 10624, Note_on_c, 1, 74, 127
1, 10650, Note_off_c, 1, 74, 0
1, 10654, Note_on_c, 1, 60, 127
1, 10654, Note_on_c, 1, 76, 127
1, 10669, Note_off_c, 1, 65, 0
1, 10680, Note_off_c, 1, 60, 0
1, 10680, Note_off_c, 1, 76, 0
1, 10684, Note_on_c, 1, 62, 127
1, 10684, Note_on_c, 1, 77, 127
1, 10710, Note_off_c, 1, 62, 0
1, 10710, Note_off_c, 1, 77, 0
1, 10714, Note_on_c, 1, 60, 127
1, 10714, Note_on_c, 1, 76, 127
1, 10740, Note_off_c, 1, 60, 0
1, 10740, Note_off_c, 1, 76, 0
1, 10744, Note_on_c, 1, 58, 127
1, 10744, Note_on_c, 1, 62, 127
1, 10744, Note_on_c, 1, 77, 127
1, 10770, Note_off_c, 1, 58, 0
1, 10774, Note_on_c, 1, 57, 127
1, 10796, Note_off_c, 1, 62, 0
1, 10800, Note_off_c, 1, 57, 0
1, 10804, Note_on_c, 1, 67, 127
1, 10856, Note_off_c, 1, 67, 0
1, 10864, Note_on_c, 1, 61, 127
1, 10882, Note_off_c, 1, 77, 0
1, 10890, Note_off_c, 1, 61, 0
1, 10924, Note_on_c, 1, 55, 127
1, 10924, Note_on_c, 1, 76, 127
1, 10924, Note_on_c, 1, 67, 127
1, 10950, Note_off_c, 1, 55, 0
1, 10950, Note_off_c, 1, 76, 0
1, 10954, Note_on_c, 1, 58, 127
1, 10954, Note_on_c, 1, 74, 127
1, 10976, Note_off_c, 1, 67, 0
1, 10980, Note_off_c, 1, 58, 0
1, 10980, Note_off_c, 1, 74, 0
1, 10984, Note_on_c, 1, 57, 127
1, 10984, Note_on_c, 1, 76, 127
1, 10984, Note_on_c, 1, 67, 127
1, 11010, Note_off_c, 1, 57, 0
1, 11010, Note_off_c, 1, 76, 0
1, 11014, Note_on_c, 1, 58, 127
1, 11014, Note_on_c, 1, 74, 127
1, 11036, Note_off_c, 1, 67, 0
1, 11040, Note_off_c, 1, 58, 0
1, 11040, Note_off_c, 1, 74, 0
1, 11044, Note_on_c, 1, 52, 127
1, 11044, Note_on_c, 1, 73, 127
1, 11044, Note_on_c, 1, 67, 127
1, 11070, Note_off_c, 1, 52, 0
1, 11070, Note_off_c, 1, 73, 0
1, 11074, Note_on_c, 1, 64, 127
1, 11074, Note_on_c, 1, 74, 127
1, 11096, Note_off_c, 1, 67, 0
1, 11100, Note_off_c, 1, 64, 0
1, 11100, Note_off_c, 1, 74, 0
1, 11104, Note_on_c, 1, 61, 127
1, 11104, Note_on_c, 1, 67, 127
1, 11104, Note_on_c, 1, 76, 127
1, 11130, Note_off_c, 1, 61, 0
1, 11134, Note_on_c, 1, 57, 127
1, 11156, Note_off_c, 1, 67, 0
1, 11160, Note_off_c, 1, 57, 0
1, 11164, Note_on_c, 1, 62, 127
1, 11190, Note_off_c, 1, 62, 0
1, 11194, Note_on_c, 1, 50, 127
1, 11216, Note_off_c, 1, 76, 0
1, 11220, Note_off_c, 1, 50, 0
1, 11224, Note_on_c, 1, 53, 127
1, 11224, Note_on_c, 1, 65, 127
1, 11224, Note_on_c, 1, 74, 127
1, 11250, Note_off_c, 1, 53, 0
1, 11254, Note_on_c, 1, 57, 127
1, 11276, Note_off_c, 1, 65, 0
1, 11276, Note_off_c, 1, 74, 0
1, 11280, Note_off_c, 1, 57, 0
1, 11284, Note_on_c, 1, 62, 127
1, 11284, Note_on_c, 1, 77, 127
1, 11310, Note_off_c, 1, 62, 0
1, 11314, Note_on_c, 1, 60, 127
1, 11314, Note_on_c, 1, 69, 127
1, 11340, Note_off_c, 1, 60, 0
1, 11340, Note_off_c, 1, 69, 0
1, 11344, Note_on_c, 1, 70, 127
1, 11370, Note_off_c, 1, 70, 0
1, 11374, Note_on_c, 1, 72, 127
1, 11389, Note_off_c, 1, 77, 0
1, 11400, Note_off_c, 1, 72, 0
1, 11404, Note_on_c, 1, 58, 127
1, 11404, Note_on_c, 1, 74, 127
1, 11430, Note_off_c, 1, 58, 0
1, 11430, Note_off_c, 1, 74, 0
1, 11434, Note_on_c, 1, 62, 127
1, 11434, Note_on_c, 1, 72, 127
1, 11460, Note_off_c, 1, 62, 0
1, 11460, Note_off_c, 1, 72, 0
1, 11464, Note_on_c, 1, 55, 127
1, 11464, Note_on_c, 1, 74, 127
1, 11490, Note_off_c, 1, 55, 0
1, 11494, Note_on_c, 1, 58, 127
1, 11516, Note_off_c, 1, 74, 0
1, 11520, Note_off_c, 1, 58, 0
1, 11524, Note_on_c, 1, 51, 127
1, 11524, Note_on_c, 1, 74, 127
1, 11524, Note_on_c, 1, 79, 127
1, 11550, Note_off_c, 1, 51, 0
1, 11554, Note_on_c, 1, 55, 127
1, 11576, Note_off_c, 1, 74, 0
1, 11580, Note_off_c, 1, 55, 0
1, 11584, Note_on_c, 1, 57, 127
1, 11584, Note_on_c, 1, 67, 127
1, 11610, Note_off_c, 1, 57, 0
1, 11614, Note_on_c, 1, 58, 127
1, 11629, Note_off_c, 1, 79, 0
1, 11636, Note_off_c, 1, 67, 0
1, 11640, Note_off_c, 1, 58, 0
1, 11644, Note_on_c, 1, 60, 127
1, 11644, Note_on_c, 1, 75, 127
1, 11670, Note_off_c, 1, 60, 0
1, 11674, Note_on_c, 1, 58, 127
1, 11674, Note_on_c, 1, 67, 127
1, 11700, Note_off_c, 1, 58, 0
1, 11700, Note_off_c, 1, 67, 0
1, 11704, Note_on_c, 1, 69, 127
1, 11730, Note_off_c, 1, 69, 0
1, 11734, Note_on_c, 1, 70, 127
1, 11749, Note_off_c, 1, 75, 0
1, 11760, Note_off_c, 1, 70, 0
1, 11764, Note_on_c, 1, 57, 127
1, 11764, Note_on_c, 1, 72, 127
1, 11790, Note_off_c, 1, 57, 0
1, 11790, Note_off_c, 1, 72, 0
1, 11794, Note_on_c, 1, 60, 127
1, 11794, Note_on_c, 1, 70, 127
1, 11820, Note_off_c, 1, 60, 0
1, 11820, Note_off_c, 1, 70, 0
1, 11824, Note_on_c, 1, 53, 127
1, 11824, Note_on_c, 1, 72, 127
1, 11850, Note_off_c, 1, 53, 0
1, 11854, Note_on_c, 1, 57, 127
1, 11876, Note_off_c, 1, 72, 0
1, 11880, Note_off_c, 1, 57, 0
1, 11884, Note_on_c, 1, 50, 127
1, 11884, Note_on_c, 1, 72, 127
1, 11884, Note_on_c, 1, 77, 127
1, 11910, Note_off_c, 1, 50, 0
1, 11914, Note_on_c, 1, 53, 127
1, 11936, Note_off_c, 1, 72, 0
1, 11940, Note_off_c, 1, 53, 0
1, 11944, Note_on_c, 1, 55, 127
1, 11944, Note_on_c, 1, 65, 127
1, 11970, Note_off_c, 1, 55, 0
1, 11974, Note_on_c, 1, 57, 127
1, 11989, Note_off_c, 1, 77, 0
1, 11996, Note_off_c, 1, 65, 0
1, 12000, Note_off_c, 1, 57, 0
1, 12004, Note_on_c, 1, 58, 127
1, 12004, Note_on_c, 1, 74, 127
1, 12030, Note_off_c, 1, 58, 0
1, 12034, Note_on_c, 1, 57, 127
1, 12034, Note_on_c, 1, 65, 127
1, 12060, Note_off_c, 1, 57, 0
1, 12060, Note_off_c, 1, 65, 0
1, 12064, Note_on_c, 1, 67, 127
1, 12090, Note_off_c, 1, 67, 0
1, 12094, Note_on_c, 1, 69, 127
1, 12109, Note_off_c, 1, 74, 0
1, 12120, Note_off_c, 1, 69, 0
1, 12124, Note_on_c, 1, 55, 127
1, 12124, Note_on_c, 1, 70, 127
1, 12150, Note_off_c, 1, 55, 0
1, 12150, Note_off_c, 1, 70, 0
1, 12154, Note_on_c, 1, 58, 127
1, 12154, Note_on_c, 1, 69, 127
1, 12180, Note_off_c, 1, 58, 0
1, 12180, Note_off_c, 1, 69, 0
1, 12184, Note_on_c, 1, 51, 127
1, 12184, Note_on_c, 1, 70, 127
1, 12210, Note_off_c, 1, 51, 0
1, 12214, Note_on_c, 1, 55, 127
1, 12240, Note_off_c, 1, 55, 0
1, 12244, Note_on_c, 1, 48, 127
1, 12244, Note_on_c, 1, 75, 127
1, 12270, Note_off_c, 1, 48, 0
1, 12296, Note_off_c, 1, 75, 0
1, 12304, Note_on_c, 1, 57, 127
1, 12322, Note_off_c, 1, 70, 0
1, 12330, Note_off_c, 1, 57, 0
1, 12334, Note_on_c, 1, 58, 127
1, 12360, Note_off_c, 1, 58, 0
1, 12364, Note_on_c, 1, 60, 127
1, 12364, Note_on_c, 1, 69, 127
1, 12364, Note_on_c, 1, 75, 127
1, 12390, Note_off_c, 1, 60, 0
1, 12390, Note_off_c, 1, 69, 0
1, 12394, Note_on_c, 1, 62, 127
1, 12394, Note_on_c, 1, 67, 127
1, 12416, Note_off_c, 1, 75, 0
1, 12420, Note_off_c, 1, 62, 0
1, 12420, Note_off_c, 1, 67, 0
1, 12424, Note_on_c, 1, 60, 127
1, 12424, Note_on_c, 1, 69, 127
1, 12424, Note_on_c, 1, 75, 127
1, 12450, Note_off_c, 1, 60, 0
1, 12450, Note_off_c, 1, 69, 0
1, 12454, Note_on_c, 1, 58, 127
1, 12454, Note_on_c, 1, 67, 127
1, 12476, Note_off_c, 1, 75, 0
1, 12480, Note_off_c, 1, 58, 0
1, 12480, Note_off_c, 1, 67, 0
1, 12484, Note_on_c, 1, 57, 127
1, 12484, Note_on_c, 1, 75, 127
1, 12484, Note_on_c, 1, 65, 127
1, 12510, Note_off_c, 1, 57, 0
1, 12514, Note_on_c, 1, 53, 127
1, 12536, Note_off_c, 1, 75, 0
1, 12540, Note_off_c, 1, 53, 0
1, 12544, Note_on_c, 1, 55, 127
1, 12570, Note_off_c, 1, 55, 0
1, 12604, Note_on_c, 1, 58, 127
1, 12630, Note_off_c, 1, 58, 0
1, 12664, Note_on_c, 1, 74, 127
1, 12690, Note_off_c, 1, 74, 0
1, 12694, Note_on_c, 1, 60, 127
1, 12709, Note_off_c, 1, 65, 0
1, 12720, Note_off_c, 1, 60, 0
1, 12724, Note_on_c, 1, 62, 127
1, 12724, Note_on_c, 1, 77, 127
1, 12724, Note_on_c, 1, 58, 127
1, 12750, Note_off_c, 1, 62, 0
1, 12750, Note_off_c, 1, 77, 0
1, 12754, Note_on_c, 1, 60, 127
1, 12754, Note_on_c, 1, 70, 127
1, 12780, Note_off_c, 1, 60, 0
1, 12780, Note_off_c, 1, 70, 0
1, 12814, Note_on_c, 1, 64, 127
1, 12814, Note_on_c, 1, 79, 127
1, 12829, Note_off_c, 1, 58, 0
1, 12840, Note_off_c, 1, 64, 0
1, 12840, Note_off_c, 1, 79, 0
1, 12844, Note_on_c, 1, 65, 127
1, 12844, Note_on_c, 1, 81, 127
1, 12870, Note_off_c, 1, 65, 0
1, 12870, Note_off_c, 1, 81, 0
1, 12874, Note_on_c, 1, 64, 127
1, 12874, Note_on_c, 1, 79, 127
1, 12900, Note_off_c, 1, 64, 0
1, 12900, Note_off_c, 1, 79, 0
1, 12904, Note_on_c, 1, 57, 127
1, 12904, Note_on_c, 1, 81, 127
1, 12904, Note_on_c, 1, 65, 127
1, 12934, Note_on_c, 1, 72, 127
1, 12956, Note_off_c, 1, 57, 0
1, 12956, Note_off_c, 1, 81, 0
1, 12960, Note_off_c, 1, 72, 0
1, 12964, Note_on_c, 1, 70, 127
1, 12964, Note_on_c, 1, 62, 127
1, 12990, Note_off_c, 1, 70, 0
1, 13024, Note_on_c, 1, 74, 127
1, 13054, Note_on_c, 1, 69, 127
1, 13069, Note_off_c, 1, 65, 0
1, 13069, Note_off_c, 1, 62, 0
1, 13076, Note_off_c, 1, 74, 0
1, 13080, Note_off_c, 1, 69, 0
1, 13084, Note_on_c, 1, 58, 127
1, 13084, Note_on_c, 1, 67, 127
1, 13084, Note_on_c, 1, 62, 127
1, 13114, Note_on_c, 1, 74, 127
1, 13140, Note_off_c, 1, 74, 0
1, 13144, Note_on_c, 1, 76, 127
1, 13170, Note_off_c, 1, 76, 0
1, 13174, Note_on_c, 1, 77, 127
1, 13189, Note_off_c, 1, 58, 0
1, 13189, Note_off_c, 1, 67, 0
1, 13189, Note_off_c, 1, 62, 0
1, 13200, Note_off_c, 1, 77, 0
1, 13204, Note_on_c, 1, 79, 127
1, 13204, Note_on_c, 1, 64, 127
1, 13230, Note_off_c, 1, 79, 0
1, 13234, Note_on_c, 1, 77, 127
1, 13260, Note_off_c, 1, 77, 0
1, 13264, Note_on_c, 1, 55, 127
1, 13294, Note_on_c, 1, 70, 127
1, 13316, Note_off_c, 1, 55, 0
1, 13320, Note_off_c, 1, 70, 0
1, 13324, Note_on_c, 1, 69, 127
1, 13324, Note_on_c, 1, 60, 127
1, 13350, Note_off_c, 1, 69, 0
1, 13384, Note_on_c, 1, 72, 127
1, 13414, Note_on_c, 1, 67, 127
1, 13429, Note_off_c, 1, 64, 0
1, 13429, Note_off_c, 1, 60, 0
1, 13436, Note_off_c, 1, 72, 0
1, 13440, Note_off_c, 1, 67, 0
1, 13444, Note_on_c, 1, 57, 127
1, 13444, Note_on_c, 1, 65, 127
1, 13444, Note_on_c, 1, 60, 127
1, 13474, Note_on_c, 1, 72, 127
1, 13500, Note_off_c, 1, 72, 0
1, 13504, Note_on_c, 1, 74, 127
1, 13530, Note_off_c, 1, 74, 0
1, 13534, Note_on_c, 1, 76, 127
1, 13549, Note_off_c, 1, 57, 0
1, 13549, Note_off_c, 1, 65, 0
1, 13549, Note_off_c, 1, 60, 0
1, 13560, Note_off_c, 1, 76, 0
1, 13564, Note_on_c, 1, 77, 127
1, 13564, Note_on_c, 1, 62, 127
1, 13590, Note_off_c, 1, 77, 0
1, 13594, Note_on_c, 1, 76, 127
1, 13620, Note_off_c, 1, 76, 0
1, 13624, Note_on_c, 1, 53, 127
1, 13654, Note_on_c, 1, 69, 127
1, 13676, Note_off_c, 1, 53, 0
1, 13680, Note_off_c, 1, 69, 0
1, 13684, Note_on_c, 1, 58, 127
1, 13684, Note_on_c, 1, 67, 127
1, 13714, Note_on_c, 1, 74, 127
1, 13736, Note_off_c, 1, 58, 0
1, 13740, Note_off_c, 1, 74, 0
1, 13804, Note_on_c, 1, 79, 127
1, 13830, Note_off_c, 1, 79, 0
1, 13834, Note_on_c, 1, 81, 127
1, 13860, Note_off_c, 1, 81, 0
1, 13864, Note_on_c, 1, 82, 127
1, 13890, Note_off_c, 1, 82, 0
1, 13909, Note_off_c, 1, 62, 0
1, 13924, Note_on_c, 1, 60, 127
1, 14014, Note_on_c, 1, 72, 127
1, 14029, Note_off_c, 1, 67, 0
1, 14040, Note_off_c, 1, 72, 0
1, 14044, Note_on_c, 1, 65, 127
1, 14104, Note_on_c, 1, 57, 127
1, 14130, Note_off_c, 1, 57, 0
1, 14134, Note_on_c, 1, 55, 127
1, 14149, Note_off_c, 1, 60, 0
1, 14149, Note_off_c, 1, 65, 0
1, 14160, Note_off_c, 1, 55, 0
1, 14164, Note_on_c, 1, 57, 127
1, 14164, Note_on_c, 1, 77, 127
1, 14190, Note_off_c, 1, 57, 0
1, 14194, Note_on_c, 1, 53, 127
1, 14216, Note_off_c, 1, 77, 0
1, 14220, Note_off_c, 1, 53, 0
1, 14224, Note_on_c, 1, 57, 127
1, 14224, Note_on_c, 1, 75, 127
1, 14250, Note_off_c, 1, 57, 0
1, 14250, Note_off_c, 1, 75, 0
1, 14254, Note_on_c, 1, 59, 127
1, 14254, Note_on_c, 1, 74, 127
1, 14280, Note_off_c, 1, 59, 0
1, 14280, Note_off_c, 1, 74, 0
1, 14284, Note_on_c, 1, 60, 127
1, 14284, Note_on_c, 1, 75, 127
1, 14310, Note_off_c, 1, 60, 0
1, 14314, Note_on_c, 1, 59, 127
1, 14314, Note_on_c, 1, 67, 127
1, 14336, Note_off_c, 1, 75, 0
1, 14340, Note_off_c, 1, 59, 0
1, 14340, Note_off_c, 1, 67, 0
1, 14344, Note_on_c, 1, 68, 127
1, 14344, Note_on_c, 1, 72, 127
1, 14344, Note_on_c, 1, 60, 127
1, 14370, Note_off_c, 1, 68, 0
1, 14374, Note_on_c, 1, 67, 127
1, 14396, Note_off_c, 1, 72, 0
1, 14400, Note_off_c, 1, 67, 0
1, 14404, Note_on_c, 1, 65, 127
1, 14404, Note_on_c, 1, 74, 127
1, 14430, Note_off_c, 1, 60, 0
1, 14456, Note_off_c, 1, 65, 0
1, 14456, Note_off_c, 1, 74, 0
1, 14464, Note_on_c, 1, 59, 127
1, 14464, Note_on_c, 1, 62, 127
1, 14464, Note_on_c, 1, 67, 127
1, 14490, Note_off_c, 1, 59, 0
1, 14494, Note_on_c, 1, 57, 127
1, 14516, Note_off_c, 1, 62, 0
1, 14516, Note_off_c, 1, 67, 0
1, 14520, Note_off_c, 1, 57, 0
1, 14524, Note_on_c, 1, 59, 127
1, 14524, Note_on_c, 1, 79, 127
1, 14550, Note_off_c, 1, 59, 0
1, 14554, Note_on_c, 1, 55, 127
1, 14576, Note_off_c, 1, 79, 0
1, 14580, Note_off_c, 1, 55, 0
1, 14584, Note_on_c, 1, 59, 127
1, 14584, Note_on_c, 1, 77, 127
1, 14610, Note_off_c, 1, 59, 0
1, 14610, Note_off_c, 1, 77, 0
1, 14614, Note_on_c, 1, 60, 127
1, 14614, Note_on_c, 1, 75, 127
1, 14640, Note_off_c, 1, 60, 0
1, 14640, Note_off_c, 1, 75, 0
1, 14644, Note_on_c, 1, 62, 127
1, 14644, Note_on_c, 1, 77, 127
1, 14670, Note_off_c, 1, 62, 0
1, 14674, Note_on_c, 1, 60, 127
1, 14674, Note_on_c, 1, 69, 127
1, 14696, Note_off_c, 1, 77, 0
1, 14700, Note_off_c, 1, 60, 0
1, 14700, Note_off_c, 1, 69, 0
1, 14704, Note_on_c, 1, 71, 127
1, 14704, Note_on_c, 1, 74, 127
1, 14704, Note_on_c, 1, 62, 127
1, 14730, Note_off_c, 1, 71, 0
1, 14734, Note_on_c, 1, 69, 127
1, 14756, Note_off_c, 1, 74, 0
1, 14760, Note_off_c, 1, 69, 0
1, 14764, Note_on_c, 1, 67, 127
1, 14764, Note_on_c, 1, 75, 127
1, 14790, Note_off_c, 1, 62, 0
1, 14794, Note_on_c, 1, 55, 127
1, 14816, Note_off_c, 1, 67, 0
1, 14816, Note_off_c, 1, 75, 0
1, 14820, Note_off_c, 1, 55, 0
1, 14824, Note_on_c, 1, 60, 127
1, 14824, Note_on_c, 1, 63, 127
1, 14824, Note_on_c, 1, 72, 127
1, 14850, Note_off_c, 1, 60, 0
1, 14854, Note_on_c, 1, 59, 127
1, 14876, Note_off_c, 1, 63, 0
1, 14876, Note_off_c, 1, 72, 0
1, 14880, Note_off_c, 1, 59, 0
1, 14884, Note_on_c, 1, 60, 127
1, 14884, Note_on_c, 1, 80, 127
1, 14910, Note_off_c, 1, 60, 0
1, 14914, Note_on_c, 1, 55, 127
1, 14936, Note_off_c, 1, 80, 0
1, 14940, Note_off_c, 1, 55, 0
1, 14944, Note_on_c, 1, 60, 127
1, 14944, Note_on_c, 1, 79, 127
1, 14970, Note_off_c, 1, 60, 0
1, 14970, Note_off_c, 1, 79, 0
1, 14974, Note_on_c, 1, 62, 127
1, 14974, Note_on_c, 1, 77, 127
1, 15000, Note_off_c, 1, 62, 0
1, 15000, Note_off_c, 1, 77, 0
1, 15004, Note_on_c, 1, 63, 127
1, 15004, Note_on_c, 1, 79, 127
1, 15030, Note_off_c, 1, 63, 0
1, 15034, Note_on_c, 1, 62, 127
1, 15034, Note_on_c, 1, 71, 127
1, 15056, Note_off_c, 1, 79, 0
1, 15060, Note_off_c, 1, 62, 0
1, 15060, Note_off_c, 1, 71, 0
1, 15064, Note_on_c, 1, 72, 127
1, 15064, Note_on_c, 1, 75, 127
1, 15064, Note_on_c, 1, 63, 127
1, 15090, Note_off_c, 1, 72, 0
1, 15094, Note_on_c, 1, 70, 127
1, 15116, Note_off_c, 1, 75, 0
1, 15120, Note_off_c, 1, 70, 0
1, 15124, Note_on_c, 1, 68, 127
1, 15124, Note_on_c, 1, 77, 127
1, 15150, Note_off_c, 1, 68, 0
1, 15154, Note_on_c, 1, 67, 127
1, 15180, Note_off_c, 1, 67, 0
1, 15202, Note_off_c, 1, 63, 0
1, 15244, Note_on_c, 1, 62, 127
1, 15322, Note_off_c, 1, 62, 0
1, 15334, Note_on_c, 1, 60, 127
1, 15360, Note_off_c, 1, 60, 0
1, 15364, Note_on_c, 1, 59, 127
1, 15390, Note_off_c, 1, 77, 0
1, 15424, Note_on_c, 1, 74, 127
1, 15442, Note_off_c, 1, 59, 0
1, 15450, Note_off_c, 1, 74, 0
1, 15484, Note_on_c, 1, 55, 127
1, 15484, Note_on_c, 1, 71, 127
1, 15536, Note_off_c, 1, 55, 0
1, 15536, Note_off_c, 1, 71, 0
1, 15544, Note_on_c, 1, 67, 127
1, 15544, Note_on_c, 1, 59, 127
1, 15544, Note_on_c, 1, 74, 127
1, 15570, Note_off_c, 1, 67, 0
1, 15574, Note_on_c, 1, 65, 127
1, 15596, Note_off_c, 1, 59, 0
1, 15600, Note_off_c, 1, 65, 0
1, 15604, Note_on_c, 1, 60, 127
1, 15604, Note_on_c, 1, 63, 127
1, 15630, Note_off_c, 1, 74, 0
1, 15656, Note_off_c, 1, 60, 0
1, 15664, Note_on_c, 1, 56, 127
1, 15664, Note_on_c, 1, 72, 127
1, 15682, Note_off_c, 1, 63, 0
1, 15716, Note_off_c, 1, 56, 0
1, 15724, Note_on_c, 1, 53, 127
1, 15724, Note_on_c, 1, 62, 127
1, 15750, Note_off_c, 1, 72, 0
1, 15776, Note_off_c, 1, 53, 0
1, 15784, Note_on_c, 1, 55, 127
1, 15784, Note_on_c, 1, 71, 127
1, 15802, Note_off_c, 1, 62, 0
1, 15836, Note_off_c, 1, 55, 0
1, 15836, Note_off_c, 1, 71, 0
1, 15844, Note_on_c, 1, 48, 127
1, 15895, Note_off_c, 1, 48, 0
1, 15908, Note_on_c, 1, 36, 127
1, 15959, Note_off_c, 1, 36, 0
1, 15964, Note_on_c, 1, 60, 127
1, 15964, Note_on_c, 1, 63, 127
1, 15994, Note_on_c, 1, 48, 127
1, 15994, Note_on_c, 1, 70, 127
1, 16020, Note_off_c, 1, 48, 0
1, 16020, Note_off_c, 1, 70, 0
1, 16024, Note_on_c, 1, 50, 127
1, 16024, Note_on_c, 1, 69, 127
1, 16050, Note_off_c, 1, 50, 0
1, 16050, Note_off_c, 1, 69, 0
1, 16054, Note_on_c, 1, 67, 127
1, 16054, Note_on_c, 1, 51, 127
1, 16069, Note_off_c, 1, 60, 0
1, 16069, Note_off_c, 1, 63, 0
1, 16080, Note_off_c, 1, 67, 0
1, 16080, Note_off_c, 1, 51, 0
1, 16084, Note_on_c, 1, 53, 127
1, 16084, Note_on_c, 1, 69, 127
1, 16110, Note_off_c, 1, 53, 0
1, 16114, Note_on_c, 1, 51, 127
1, 16140, Note_off_c, 1, 51, 0
1, 16144, Note_on_c, 1, 57, 127
1, 16144, Note_on_c, 1, 60, 127
1, 16196, Note_off_c, 1, 57, 0
1, 16196, Note_off_c, 1, 60, 0
1, 16204, Note_on_c, 1, 65, 127
1, 16204, Note_on_c, 1, 62, 127
1, 16230, Note_off_c, 1, 69, 0
1, 16234, Note_on_c, 1, 67, 127
1, 16260, Note_off_c, 1, 67, 0
1, 16264, Note_on_c, 1, 46, 127
1, 16294, Note_on_c, 1, 70, 127
1, 16309, Note_off_c, 1, 65, 0
1, 16309, Note_off_c, 1, 62, 0
1, 16316, Note_off_c, 1, 46, 0
1, 16320, Note_off_c, 1, 70, 0
1, 16324, Note_on_c, 1, 58, 127
1, 16324, Note_on_c, 1, 62, 127
1, 16324, Note_on_c, 1, 67, 127
1, 16354, Note_on_c, 1, 46, 127
1, 16380, Note_off_c, 1, 46, 0
1, 16384, Note_on_c, 1, 48, 127
1, 16410, Note_off_c, 1, 48, 0
1, 16414, Note_on_c, 1, 50, 127
1, 16429, Note_off_c, 1, 58, 0
1, 16429, Note_off_c, 1, 62, 0
1, 16440, Note_off_c, 1, 50, 0
1, 16444, Note_on_c, 1, 51, 127
1, 16470, Note_off_c, 1, 51, 0
1, 16504, Note_on_c, 1, 55, 127
1, 16556, Note_off_c, 1, 55, 0
1, 16564, Note_on_c, 1, 63, 127
1, 16564, Note_on_c, 1, 60, 127
1, 16590, Note_off_c, 1, 67, 0
1, 16594, Note_on_c, 1, 65, 127
1, 16620, Note_off_c, 1, 65, 0
1, 16624, Note_on_c, 1, 45, 127
1, 16654, Note_on_c, 1, 69, 127
1, 16669, Note_off_c, 1, 63, 0
1, 16669, Note_off_c, 1, 60, 0
1, 16676, Note_off_c, 1, 45, 0
1, 16680, Note_off_c, 1, 69, 0
1, 16684, Note_on_c, 1, 57, 127
1, 16684, Note_on_c, 1, 60, 127
1, 16684, Note_on_c, 1, 65, 127
1, 16714, Note_on_c, 1, 45, 127
1, 16740, Note_off_c, 1, 45, 0
1, 16744, Note_on_c, 1, 46, 127
1, 16770, Note_off_c, 1, 46, 0
1, 16774, Note_on_c, 1, 48, 127
1, 16789, Note_off_c, 1, 57, 0
1, 16789, Note_off_c, 1, 60, 0
1, 16800, Note_off_c, 1, 48, 0
1, 16804, Note_on_c, 1, 50, 127
1, 16830, Note_off_c, 1, 50, 0
1, 16864, Note_on_c, 1, 53, 127
1, 16916, Note_off_c, 1, 53, 0
1, 16924, Note_on_c, 1, 58, 127
1, 16924, Note_on_c, 1, 62, 127
1, 16976, Note_off_c, 1, 58, 0
1, 16976, Note_off_c, 1, 62, 0
1, 17002, Note_off_c, 1, 65, 0
1, 17014, Note_on_c, 1, 69, 127
1, 17040, Note_off_c, 1, 69, 0
1, 17044, Note_on_c, 1, 46, 127
1, 17044, Note_on_c, 1, 58, 127
1, 17044, Note_on_c, 1, 62, 127
1, 17044, Note_on_c, 1, 67, 127
1, 17070, Note_off_c, 1, 46, 0
1, 17074, Note_on_c, 1, 45, 127
1, 17096, Note_off_c, 1, 58, 0
1, 17096, Note_off_c, 1, 62, 0
1, 17100, Note_off_c, 1, 45, 0
1, 17122, Note_off_c, 1, 67, 0
1, 17134, Note_on_c, 1, 65, 127
1, 17160, Note_off_c, 1, 65, 0
1, 17164, Note_on_c, 1, 43, 127
1, 17164, Note_on_c, 1, 58, 127
1, 17164, Note_on_c, 1, 62, 127
1, 17164, Note_on_c, 1, 70, 127
1, 17190, Note_off_c, 1, 43, 0
1, 17194, Note_on_c, 1, 41, 127
1, 17216, Note_off_c, 1, 58, 0
1, 17216, Note_off_c, 1, 62, 0
1, 17220, Note_off_c, 1, 41, 0
1, 17242, Note_off_c, 1, 70, 0
1, 17254, Note_on_c, 1, 69, 127
1, 17280, Note_off_c, 1, 69, 0
1, 17284, Note_on_c, 1, 40, 127
1, 17284, Note_on_c, 1, 58, 127
1, 17284, Note_on_c, 1, 62, 127
1, 17284, Note_on_c, 1, 67, 127
1, 17310, Note_off_c, 1, 40, 0
1, 17314, Note_on_c, 1, 36, 127
1, 17336, Note_off_c, 1, 58, 0
1, 17336, Note_off_c, 1, 62, 0
1, 17340, Note_off_c, 1, 36, 0
1, 17344, Note_on_c, 1, 38, 127
1, 17344, Note_on_c, 1, 57, 127
1, 17344, Note_on_c, 1, 60, 127
1, 17370, Note_off_c, 1, 38, 0
1, 17370, Note_off_c, 1, 57, 0
1, 17374, Note_on_c, 1, 55, 127
1, 17389, Note_off_c, 1, 67, 0
1, 17396, Note_off_c, 1, 60, 0
1, 17400, Note_off_c, 1, 55, 0
1, 17404, Note_on_c, 1, 41, 127
1, 17404, Note_on_c, 1, 57, 127
1, 17404, Note_on_c, 1, 65, 127
1, 17430, Note_off_c, 1, 41, 0
1, 17430, Note_off_c, 1, 57, 0
1, 17434, Note_on_c, 1, 36, 127
1, 17434, Note_on_c, 1, 55, 127
1, 17456, Note_off_c, 1, 65, 0
1, 17460, Note_off_c, 1, 36, 0
1, 17460, Note_off_c, 1, 55, 0
1, 17464, Note_on_c, 1, 41, 127
1, 17464, Note_on_c, 1, 57, 127
1, 17490, Note_off_c, 1, 41, 0
1, 17490, Note_off_c, 1, 57, 0
1, 17494, Note_on_c, 1, 43, 127
1, 17494, Note_on_c, 1, 59, 127
1, 17520, Note_off_c, 1, 43, 0
1, 17520, Note_off_c, 1, 59, 0
1, 17524, Note_on_c, 1, 60, 127
1, 17524, Note_on_c, 1, 44, 127
1, 17550, Note_off_c, 1, 60, 0
1, 17554, Note_on_c, 1, 59, 127
1, 17576, Note_off_c, 1, 44, 0
1, 17580, Note_off_c, 1, 59, 0
1, 17584, Note_on_c, 1, 38, 127
1, 17584, Note_on_c, 1, 60, 127
1, 17614, Note_on_c, 1, 65, 127
1, 17636, Note_off_c, 1, 38, 0
1, 17640, Note_off_c, 1, 65, 0
1, 17644, Note_on_c, 1, 43, 127
1, 17644, Note_on_c, 1, 63, 127
1, 17670, Note_off_c, 1, 43, 0
1, 17674, Note_on_c, 1, 42, 127
1, 17696, Note_off_c, 1, 60, 0
1, 17696, Note_off_c, 1, 63, 0
1, 17700, Note_off_c, 1, 42, 0
1, 17704, Note_on_c, 1, 43, 127
1, 17704, Note_on_c, 1, 59, 127
1, 17704, Note_on_c, 1, 62, 127
1, 17730, Note_off_c, 1, 43, 0
1, 17730, Note_off_c, 1, 59, 0
1, 17734, Note_on_c, 1, 45, 127
1, 17734, Note_on_c, 1, 57, 127
1, 17756, Note_off_c, 1, 62, 0
1, 17760, Note_off_c, 1, 45, 0
1, 17760, Note_off_c, 1, 57, 0
1, 17764, Note_on_c, 1, 47, 127
1, 17764, Note_on_c, 1, 55, 127
1, 17790, Note_off_c, 1, 47, 0
1, 17790, Note_off_c, 1, 55, 0
1, 17794, Note_on_c, 1, 45, 127
1, 17794, Note_on_c, 1, 50, 127
1, 17820, Note_off_c, 1, 45, 0
1, 17820, Note_off_c, 1, 50, 0
1, 17824, Note_on_c, 1, 47, 127
1, 17824, Note_on_c, 1, 55, 127
1, 17850, Note_off_c, 1, 47, 0
1, 17850, Note_off_c, 1, 55, 0
1, 17854, Note_on_c, 1, 50, 127
1, 17854, Note_on_c, 1, 57, 127
1, 17880, Note_off_c, 1, 50, 0
1, 17880, Note_off_c, 1, 57, 0
1, 17884, Note_on_c, 1, 59, 127
1, 17884, Note_on_c, 1, 55, 127
1, 17910, Note_off_c, 1, 59, 0
1, 17914, Note_on_c, 1, 60, 127
1, 17936, Note_off_c, 1, 55, 0
1, 17940, Note_off_c, 1, 60, 0
1, 17944, Note_on_c, 1, 47, 127
1, 17944, Note_on_c, 1, 62, 127
1, 17974, Note_on_c, 1, 67, 127
1, 17996, Note_off_c, 1, 47, 0
1, 18000, Note_off_c, 1, 67, 0
1, 18004, Note_on_c, 1, 48, 127
1, 18004, Note_on_c, 1, 65, 127
1, 18030, Note_off_c, 1, 48, 0
1, 18034, Note_on_c, 1, 60, 127
1, 18056, Note_off_c, 1, 62, 0
1, 18056, Note_off_c, 1, 65, 0
1, 18060, Note_off_c, 1, 60, 0
1, 18064, Note_on_c, 1, 55, 127
1, 18064, Note_on_c, 1, 63, 127
1, 18064, Note_on_c, 1, 60, 127
1, 18090, Note_off_c, 1, 55, 0
1, 18090, Note_off_c, 1, 63, 0
1, 18094, Note_on_c, 1, 51, 127
1, 18094, Note_on_c, 1, 65, 127
1, 18116, Note_off_c, 1, 60, 0
1, 18120, Note_off_c, 1, 51, 0
1, 18120, Note_off_c, 1, 65, 0
1, 18124, Note_on_c, 1, 48, 127
1, 18124, Note_on_c, 1, 75, 127
1, 18124, Note_on_c, 1, 67, 127
1, 18154, Note_on_c, 1, 55, 127
1, 18180, Note_off_c, 1, 55, 0
1, 18184, Note_on_c, 1, 57, 127
1, 18210, Note_off_c, 1, 57, 0
1, 18214, Note_on_c, 1, 59, 127
1, 18229, Note_off_c, 1, 48, 0
1, 18229, Note_off_c, 1, 75, 0
1, 18229, Note_off_c, 1, 67, 0
1, 18240, Note_off_c, 1, 59, 0
1, 18244, Note_on_c, 1, 60, 127
1, 18270, Note_off_c, 1, 60, 0
1, 18274, Note_on_c, 1, 59, 127
1, 18300, Note_off_c, 1, 59, 0
1, 18304, Note_on_c, 1, 60, 127
1, 18304, Note_on_c, 1, 72, 127
1, 18304, Note_on_c, 1, 63, 127
1, 18334, Note_on_c, 1, 56, 127
1, 18356, Note_off_c, 1, 60, 0
1, 18356, Note_off_c, 1, 72, 0
1, 18356, Note_off_c, 1, 63, 0
1, 18364, Note_on_c, 1, 77, 127
1, 18364, Note_on_c, 1, 68, 127
1, 18390, Note_off_c, 1, 56, 0
1, 18394, Note_on_c, 1, 50, 127
1, 18424, Note_on_c, 1, 53, 127
1, 18446, Note_off_c, 1, 50, 0
1, 18469, Note_off_c, 1, 77, 0
1, 18469, Note_off_c, 1, 68, 0
1, 18476, Note_off_c, 1, 53, 0
1, 18484, Note_on_c, 1, 58, 127
1, 18484, Note_on_c, 1, 74, 127
1, 18484, Note_on_c, 1, 65, 127
1, 18514, Note_on_c, 1, 53, 127
1, 18540, Note_off_c, 1, 53, 0
1, 18544, Note_on_c, 1, 55, 127
1, 18570, Note_off_c, 1, 55, 0
1, 18574, Note_on_c, 1, 56, 127
1, 18589, Note_off_c, 1, 58, 0
1, 18589, Note_off_c, 1, 74, 0
1, 18589, Note_off_c, 1, 65, 0
1, 18600, Note_off_c, 1, 56, 0
1, 18604, Note_on_c, 1, 58, 127
1, 18630, Note_off_c, 1, 58, 0
1, 18634, Note_on_c, 1, 56, 127
1, 18660, Note_off_c, 1, 56, 0
1, 18664, Note_on_c, 1, 58, 127
1, 18664, Note_on_c, 1, 70, 127
1, 18664, Note_on_c, 1, 62, 127
1, 18694, Note_on_c, 1, 55, 127
1, 18716, Note_off_c, 1, 58, 0
1, 18716, Note_off_c, 1, 70, 0
1, 18716, Note_off_c, 1, 62, 0
1, 18724, Note_on_c, 1, 75, 127
1, 18724, Note_on_c, 1, 67, 127
1, 18750, Note_off_c, 1, 55, 0
1, 18754, Note_on_c, 1, 48, 127
1, 18784, Note_on_c, 1, 51, 127
1, 18806, Note_off_c, 1, 48, 0
1, 18829, Note_off_c, 1, 75, 0
1, 18829, Note_off_c, 1, 67, 0
1, 18836, Note_off_c, 1, 51, 0
1, 18844, Note_on_c, 1, 56, 127
1, 18844, Note_on_c, 1, 72, 127
1, 18844, Note_on_c, 1, 63, 127
1, 18874, Note_on_c, 1, 51, 127
1, 18900, Note_off_c, 1, 51, 0
1, 18904, Note_on_c, 1, 53, 127
1, 18930, Note_off_c, 1, 53, 0
1, 18934, Note_on_c, 1, 55, 127
1, 18949, Note_off_c, 1, 56, 0
1, 18949, Note_off_c, 1, 72, 0
1, 18949, Note_off_c, 1, 63, 0
1, 18960, Note_off_c, 1, 55, 0
1, 18964, Note_on_c, 1, 56, 127
1, 18990, Note_off_c, 1, 56, 0
1, 18994, Note_on_c, 1, 55, 127
1, 19020, Note_off_c, 1, 55, 0
1, 19024, Note_on_c, 1, 60, 127
1, 19024, Note_on_c, 1, 68, 127
1, 19024, Note_on_c, 1, 56, 127
1, 19054, Note_on_c, 1, 53, 127
1, 19076, Note_off_c, 1, 60, 0
1, 19076, Note_off_c, 1, 68, 0
1, 19080, Note_off_c, 1, 53, 0
1, 19084, Note_on_c, 1, 74, 127
1, 19084, Note_on_c, 1, 65, 127
1, 19084, Note_on_c, 1, 47, 127
1, 19110, Note_off_c, 1, 56, 0
1, 19114, Note_on_c, 1, 55, 127
1, 19136, Note_off_c, 1, 74, 0
1, 19136, Note_off_c, 1, 65, 0
1, 19140, Note_off_c, 1, 55, 0
1, 19189, Note_off_c, 1, 47, 0
1, 19204, Note_on_c, 1, 53, 127
1, 19204, Note_on_c, 1, 65, 127
1, 19204, Note_on_c, 1, 74, 127
1, 19230, Note_off_c, 1, 53, 0
1, 19234, Note_on_c, 1, 51, 127
1, 19256, Note_off_c, 1, 65, 0
1, 19256, Note_off_c, 1, 74, 0
1, 19260, Note_off_c, 1, 51, 0
1, 19264, Note_on_c, 1, 53, 127
1, 19264, Note_on_c, 1, 74, 127
1, 19264, Note_on_c, 1, 50, 127
1, 19264, Note_on_c, 1, 65, 127
1, 19290, Note_off_c, 1, 53, 0
1, 19294, Note_on_c, 1, 51, 127
1, 19316, Note_off_c, 1, 74, 0
1, 19316, Note_off_c, 1, 50, 0
1, 19316, Note_off_c, 1, 65, 0
1, 19320, Note_off_c, 1, 51, 0
1, 19324, Note_on_c, 1, 50, 127
1, 19324, Note_on_c, 1, 74, 127
1, 19324, Note_on_c, 1, 41, 127
1, 19324, Note_on_c, 1, 65, 127
1, 19350, Note_off_c, 1, 50, 0
1, 19354, Note_on_c, 1, 48, 127
1, 19376, Note_off_c, 1, 74, 0
1, 19376, Note_off_c, 1, 41, 0
1, 19376, Note_off_c, 1, 65, 0
1, 19380, Note_off_c, 1, 48, 0
1, 19384, Note_on_c, 1, 50, 127
1, 19384, Note_on_c, 1, 74, 127
1, 19384, Note_on_c, 1, 44, 127
1, 19384, Note_on_c, 1, 65, 127
1, 19410, Note_off_c, 1, 50, 0
1, 19414, Note_on_c, 1, 48, 127
1, 19436, Note_off_c, 1, 74, 0
1, 19436, Note_off_c, 1, 44, 0
1, 19436, Note_off_c, 1, 65, 0
1, 19440, Note_off_c, 1, 48, 0
1, 19444, Note_on_c, 1, 74, 127
1, 19444, Note_on_c, 1, 65, 127
1, 19444, Note_on_c, 1, 43, 127
1, 19444, Note_on_c, 1, 47, 127
1, 19470, Note_off_c, 1, 74, 0
1, 19474, Note_on_c, 1, 72, 127
1, 19496, Note_off_c, 1, 65, 0
1, 19496, Note_off_c, 1, 43, 0
1, 19496, Note_off_c, 1, 47, 0
1, 19500, Note_off_c, 1, 72, 0
1, 19504, Note_on_c, 1, 74, 127
1, 19504, Note_on_c, 1, 65, 127
1, 19504, Note_on_c, 1, 55, 127
1, 19504, Note_on_c, 1, 59, 127
1, 19530, Note_off_c, 1, 74, 0
1, 19534, Note_on_c, 1, 72, 127
1, 19556, Note_off_c, 1, 65, 0
1, 19556, Note_off_c, 1, 55, 0
1, 19556, Note_off_c, 1, 59, 0
1, 19560, Note_off_c, 1, 72, 0
1, 19564, Note_on_c, 1, 71, 127
1, 19564, Note_on_c, 1, 65, 127
1, 19564, Note_on_c, 1, 55, 127
1, 19564, Note_on_c, 1, 59, 127
1, 19590, Note_off_c, 1, 71, 0
1, 19594, Note_on_c, 1, 69, 127
1, 19616, Note_off_c, 1, 65, 0
1, 19616, Note_off_c, 1, 55, 0
1, 19616, Note_off_c, 1, 59, 0
1, 19620, Note_off_c, 1, 69, 0
1, 19624, Note_on_c, 1, 71, 127
1, 19624, Note_on_c, 1, 65, 127
1, 19624, Note_on_c, 1, 55, 127
1, 19624, Note_on_c, 1, 59, 127
1, 19650, Note_off_c, 1, 71, 0
1, 19654, Note_on_c, 1, 69, 127
1, 19676, Note_off_c, 1, 65, 0
1, 19676, Note_off_c, 1, 55, 0
1, 19676, Note_off_c, 1, 59, 0
1, 19680, Note_off_c, 1, 69, 0
1, 19684, Note_on_c, 1, 57, 127
1, 19684, Note_on_c, 1, 60, 127
1, 19714, Note_on_c, 1, 65, 127
1, 19736, Note_off_c, 1, 57, 0
1, 19736, Note_off_c, 1, 60, 0
1, 19740, Note_off_c, 1, 65, 0
1, 19744, Note_on_c, 1, 67, 127
1, 19744, Note_on_c, 1, 59, 127
1, 19744, Note_on_c, 1, 62, 127
1, 19774, Note_on_c, 1, 65, 127
1, 19796, Note_off_c, 1, 59, 0
1, 19804, Note_on_c, 1, 51, 127
1, 19830, Note_off_c, 1, 65, 0
1, 19834, Note_on_c, 1, 63, 127
1, 19856, Note_off_c, 1, 62, 0
1, 19860, Note_off_c, 1, 63, 0
1, 19864, Note_on_c, 1, 55, 127
1, 19909, Note_off_c, 1, 51, 0
1, 19916, Note_off_c, 1, 55, 0
1, 19924, Note_on_c, 1, 60, 127
1, 19950, Note_off_c, 1, 67, 0
1, 19984, Note_on_c, 1, 53, 127
1, 19984, Note_on_c, 1, 69, 127
1, 20010, Note_off_c, 1, 53, 0
1, 20010, Note_off_c, 1, 69, 0
1, 20014, Note_on_c, 1, 71, 127
1, 20040, Note_off_c, 1, 71, 0
1, 20044, Note_on_c, 1, 56, 127
1, 20044, Note_on_c, 1, 72, 127
1, 20070, Note_off_c, 1, 56, 0
1, 20096, Note_off_c, 1, 60, 0
1, 20104, Note_on_c, 1, 68, 127
1, 20156, Note_off_c, 1, 68, 0
1, 20216, Note_off_c, 1, 72, 0
1, 20224, Note_on_c, 1, 50, 127
1, 20276, Note_off_c, 1, 50, 0
1, 20404, Note_on_c, 1, 55, 127
1, 20404, Note_on_c, 1, 64, 127
1, 20404, Note_on_c, 1, 61, 127
1, 20404, Note_on_c, 1, 70, 127
1, 20430, Note_off_c, 1, 55, 0
1, 20430, Note_off_c, 1, 64, 0
1, 20434, Note_on_c, 1, 53, 127
1, 20434, Note_on_c, 1, 65, 127
1, 20460, Note_off_c, 1, 53, 0
1, 20460, Note_off_c, 1, 65, 0
1, 20509, Note_off_c, 1, 61, 0
1, 20524, Note_on_c, 1, 60, 127
1, 20576, Note_off_c, 1, 70, 0
1, 20584, Note_on_c, 1, 69, 127
1, 20584, Note_on_c, 1, 48, 127
1, 20610, Note_off_c, 1, 69, 0
1, 20614, Note_on_c, 1, 67, 127
1, 20636, Note_off_c, 1, 48, 0
1, 20640, Note_off_c, 1, 67, 0
1, 20704, Note_on_c, 1, 50, 127
1, 20730, Note_off_c, 1, 50, 0
1, 20734, Note_on_c, 1, 63, 127
1, 20734, Note_on_c, 1, 51, 127
1, 20749, Note_off_c, 1, 60, 0
1, 20760, Note_off_c, 1, 63, 0
1, 20760, Note_off_c, 1, 51, 0
1, 20764, Note_on_c, 1, 53, 127
1, 20764, Note_on_c, 1, 62, 127
1, 20764, Note_on_c, 1, 59, 127
1, 20764, Note_on_c, 1, 68, 127
1, 20790, Note_off_c, 1, 53, 0
1, 20790, Note_off_c, 1, 62, 0
1, 20794, Note_on_c, 1, 51, 127
1, 20794, Note_on_c, 1, 63, 127
1, 20820, Note_off_c, 1, 51, 0
1, 20820, Note_off_c, 1, 63, 0
1, 20869, Note_off_c, 1, 59, 0
1, 20884, Note_on_c, 1, 58, 127
1, 20936, Note_off_c, 1, 68, 0
1, 20944, Note_on_c, 1, 67, 127
1, 20944, Note_on_c, 1, 46, 127
1, 20970, Note_off_c, 1, 67, 0
1, 20974, Note_on_c, 1, 65, 127
1, 20989, Note_off_c, 1, 58, 0
1, 20996, Note_off_c, 1, 46, 0
1, 21000, Note_off_c, 1, 65, 0
1, 21004, Note_on_c, 1, 67, 127
1, 21004, Note_on_c, 1, 58, 127
1, 21004, Note_on_c, 1, 62, 127
1, 21030, Note_off_c, 1, 67, 0
1, 21034, Note_on_c, 1, 74, 127
1, 21034, Note_on_c, 1, 77, 127
1, 21060, Note_off_c, 1, 74, 0
1, 21060, Note_off_c, 1, 77, 0
1, 21064, Note_on_c, 1, 75, 127
1, 21064, Note_on_c, 1, 79, 127
1, 21090, Note_off_c, 1, 75, 0
1, 21090, Note_off_c, 1, 79, 0
1, 21094, Note_on_c, 1, 80, 127
1, 21109, Note_off_c, 1, 58, 0
1, 21109, Note_off_c, 1, 62, 0
1, 21120, Note_off_c, 1, 80, 0
1, 21124, Note_on_c, 1, 79, 127
1, 21124, Note_on_c, 1, 82, 127
1, 21150, Note_off_c, 1, 79, 0
1, 21150, Note_off_c, 1, 82, 0
1, 21154, Note_on_c, 1, 77, 127
1, 21154, Note_on_c, 1, 80, 127
1, 21180, Note_off_c, 1, 77, 0
1, 21180, Note_off_c, 1, 80, 0
1, 21184, Note_on_c, 1, 55, 127
1, 21184, Note_on_c, 1, 82, 127
1, 21184, Note_on_c, 1, 79, 127
1, 21184, Note_on_c, 1, 58, 127
1, 21236, Note_off_c, 1, 55, 0
1, 21236, Note_off_c, 1, 82, 0
1, 21236, Note_off_c, 1, 79, 0
1, 21236, Note_off_c, 1, 58, 0
1, 21244, Note_on_c, 1, 79, 127
1, 21244, Note_on_c, 1, 82, 127
1, 21244, Note_on_c, 1, 63, 127
1, 21244, Note_on_c, 1, 60, 127
1, 21296, Note_off_c, 1, 79, 0
1, 21296, Note_off_c, 1, 82, 0
1, 21304, Note_on_c, 1, 75, 127
1, 21304, Note_on_c, 1, 72, 127
1, 21349, Note_off_c, 1, 63, 0
1, 21349, Note_off_c, 1, 60, 0
1, 21356, Note_off_c, 1, 75, 0
1, 21356, Note_off_c, 1, 72, 0
1, 21364, Note_on_c, 1, 56, 127
1, 21364, Note_on_c, 1, 60, 127
1, 21394, Note_on_c, 1, 72, 127
1, 21394, Note_on_c, 1, 75, 127
1, 21420, Note_off_c, 1, 72, 0
1, 21420, Note_off_c, 1, 75, 0
1, 21424, Note_on_c, 1, 74, 127
1, 21424, Note_on_c, 1, 77, 127
1, 21450, Note_off_c, 1, 74, 0
1, 21450, Note_off_c, 1, 77, 0
1, 21454, Note_on_c, 1, 79, 127
1, 21469, Note_off_c, 1, 56, 0
1, 21469, Note_off_c, 1, 60, 0
1, 21480, Note_off_c, 1, 79, 0
1, 21484, Note_on_c, 1, 77, 127
1, 21484, Note_on_c, 1, 80, 127
1, 21510, Note_off_c, 1, 77, 0
1, 21510, Note_off_c, 1, 80, 0
1, 21514, Note_on_c, 1, 75, 127
1, 21514, Note_on_c, 1, 79, 127
1, 21540, Note_off_c, 1, 75, 0
1, 21540, Note_off_c, 1, 79, 0
1, 21544, Note_on_c, 1, 53, 127
1, 21544, Note_on_c, 1, 80, 127
1, 21544, Note_on_c, 1, 77, 127
1, 21544, Note_on_c, 1, 56, 127
1, 21596, Note_off_c, 1, 53, 0
1, 21596, Note_off_c, 1, 80, 0
1, 21596, Note_off_c, 1, 77, 0
1, 21596, Note_off_c, 1, 56, 0
1, 21604, Note_on_c, 1, 77, 127
1, 21604, Note_on_c, 1, 80, 127
1, 21604, Note_on_c, 1, 62, 127
1, 21604, Note_on_c, 1, 58, 127
1, 21656, Note_off_c, 1, 77, 0
1, 21656, Note_off_c, 1, 80, 0
1, 21664, Note_on_c, 1, 74, 127
1, 21664, Note_on_c, 1, 70, 127
1, 21709, Note_off_c, 1, 62, 0
1, 21709, Note_off_c, 1, 58, 0
1, 21716, Note_off_c, 1, 74, 0
1, 21716, Note_off_c, 1, 70, 0
1, 21724, Note_on_c, 1, 55, 127
1, 21724, Note_on_c, 1, 58, 127
1, 21754, Note_on_c, 1, 70, 127
1, 21754, Note_on_c, 1, 74, 127
1, 21780, Note_off_c, 1, 70, 0
1, 21780, Note_off_c, 1, 74, 0
1, 21784, Note_on_c, 1, 72, 127
1, 21784, Note_on_c, 1, 75, 127
1, 21810, Note_off_c, 1, 72, 0
1, 21810, Note_off_c, 1, 75, 0
1, 21814, Note_on_c, 1, 77, 127
1, 21829, Note_off_c, 1, 55, 0
1, 21829, Note_off_c, 1, 58, 0
1, 21840, Note_off_c, 1, 77, 0
1, 21844, Note_on_c, 1, 75, 127
1, 21844, Note_on_c, 1, 79, 127
1, 21870, Note_off_c, 1, 75, 0
1, 21870, Note_off_c, 1, 79, 0
1, 21874, Note_on_c, 1, 74, 127
1, 21874, Note_on_c, 1, 77, 127
1, 21900, Note_off_c, 1, 74, 0
1, 21900, Note_off_c, 1, 77, 0
1, 21904, Note_on_c, 1, 51, 127
1, 21904, Note_on_c, 1, 55, 127
1, 21904, Note_on_c, 1, 75, 127
1, 21904, Note_on_c, 1, 79, 127
1, 21956, Note_off_c, 1, 51, 0
1, 21956, Note_off_c, 1, 55, 0
1, 21964, Note_on_c, 1, 56, 127
1, 21964, Note_on_c, 1, 60, 127
1, 21990, Note_off_c, 1, 75, 0
1, 21994, Note_on_c, 1, 73, 127
1, 22016, Note_off_c, 1, 79, 0
1, 22016, Note_off_c, 1, 56, 0
1, 22016, Note_off_c, 1, 60, 0
1, 22020, Note_off_c, 1, 73, 0
1, 22024, Note_on_c, 1, 75, 127
1, 22024, Note_on_c, 1, 82, 127
1, 22024, Note_on_c, 1, 56, 127
1, 22024, Note_on_c, 1, 60, 127
1, 22050, Note_off_c, 1, 75, 0
1, 22054, Note_on_c, 1, 73, 127
1, 22076, Note_off_c, 1, 82, 0
1, 22076, Note_off_c, 1, 56, 0
1, 22076, Note_off_c, 1, 60, 0
1, 22080, Note_off_c, 1, 73, 0
1, 22084, Note_on_c, 1, 72, 127
1, 22084, Note_on_c, 1, 80, 127
1, 22084, Note_on_c, 1, 56, 127
1, 22084, Note_on_c, 1, 60, 127
1, 22110, Note_off_c, 1, 72, 0
1, 22114, Note_on_c, 1, 70, 127
1, 22136, Note_off_c, 1, 80, 0
1, 22136, Note_off_c, 1, 56, 0
1, 22136, Note_off_c, 1, 60, 0
1, 22140, Note_off_c, 1, 70, 0
1, 22144, Note_on_c, 1, 72, 127
1, 22144, Note_on_c, 1, 79, 127
1, 22144, Note_on_c, 1, 56, 127
1, 22144, Note_on_c, 1, 60, 127
1, 22170, Note_off_c, 1, 72, 0
1, 22174, Note_on_c, 1, 70, 127
1, 22196, Note_off_c, 1, 79, 0
1, 22196, Note_off_c, 1, 56, 0
1, 22196, Note_off_c, 1, 60, 0
1, 22200, Note_off_c, 1, 70, 0
1, 22204, Note_on_c, 1, 68, 127
1, 22204, Note_on_c, 1, 77, 127
1, 22204, Note_on_c, 1, 56, 127
1, 22204, Note_on_c, 1, 60, 127
1, 22230, Note_off_c, 1, 68, 0
1, 22234, Note_on_c, 1, 67, 127
1, 22256, Note_off_c, 1, 77, 0
1, 22256, Note_off_c, 1, 56, 0
1, 22256, Note_off_c, 1, 60, 0
1, 22260, Note_off_c, 1, 67, 0
1, 22264, Note_on_c, 1, 68, 127
1, 22264, Note_on_c, 1, 75, 127
1, 22264, Note_on_c, 1, 56, 127
1, 22264, Note_on_c, 1, 60, 127
1, 22290, Note_off_c, 1, 68, 0
1, 22294, Note_on_c, 1, 67, 127
1, 22316, Note_off_c, 1, 75, 0
1, 22316, Note_off_c, 1, 56, 0
1, 22316, Note_off_c, 1, 60, 0
1, 22320, Note_off_c, 1, 67, 0
1, 22324, Note_on_c, 1, 62, 127
1, 22324, Note_on_c, 1, 74, 127
1, 22324, Note_on_c, 1, 58, 127
1, 22324, Note_on_c, 1, 65, 127
1, 22350, Note_off_c, 1, 62, 0
1, 22354, Note_on_c, 1, 60, 127
1, 22376, Note_off_c, 1, 74, 0
1, 22376, Note_off_c, 1, 58, 0
1, 22376, Note_off_c, 1, 65, 0
1, 22380, Note_off_c, 1, 60, 0
1, 22384, Note_on_c, 1, 62, 127
1, 22384, Note_on_c, 1, 74, 127
1, 22384, Note_on_c, 1, 56, 127
1, 22384, Note_on_c, 1, 65, 127
1, 22410, Note_off_c, 1, 62, 0
1, 22414, Note_on_c, 1, 60, 127
1, 22436, Note_off_c, 1, 74, 0
1, 22436, Note_off_c, 1, 56, 0
1, 22436, Note_off_c, 1, 65, 0
1, 22440, Note_off_c, 1, 60, 0
1, 22444, Note_on_c, 1, 58, 127
1, 22444, Note_on_c, 1, 55, 127
1, 22444, Note_on_c, 1, 67, 127
1, 22444, Note_on_c, 1, 75, 127
1, 22470, Note_off_c, 1, 58, 0
1, 22474, Note_on_c, 1, 56, 127
1, 22496, Note_off_c, 1, 55, 0
1, 22500, Note_off_c, 1, 56, 0
1, 22504, Note_on_c, 1, 53, 127
1, 22522, Note_off_c, 1, 67, 0
1, 22522, Note_off_c, 1, 75, 0
1, 22534, Note_on_c, 1, 77, 127
1, 22534, Note_on_c, 1, 68, 127
1, 22556, Note_off_c, 1, 53, 0
1, 22560, Note_off_c, 1, 77, 0
1, 22560, Note_off_c, 1, 68, 0
1, 22564, Note_on_c, 1, 55, 127
1, 22564, Note_on_c, 1, 51, 127
1, 22564, Note_on_c, 1, 70, 127
1, 22564, Note_on_c, 1, 79, 127
1, 22590, Note_off_c, 1, 55, 0
1, 22594, Note_on_c, 1, 53, 127
1, 22616, Note_off_c, 1, 51, 0
1, 22616, Note_off_c, 1, 70, 0
1, 22620, Note_off_c, 1, 53, 0
1, 22624, Note_on_c, 1, 50, 127
1, 22624, Note_on_c, 1, 71, 127
1, 22676, Note_off_c, 1, 50, 0
1, 22676, Note_off_c, 1, 71, 0
1, 22684, Note_on_c, 1, 72, 127
1, 22684, Note_on_c, 1, 48, 127
1, 22710, Note_off_c, 1, 79, 0
1, 22710, Note_off_c, 1, 72, 0
1, 22714, Note_on_c, 1, 77, 127
1, 22714, Note_on_c, 1, 74, 127
1, 22736, Note_off_c, 1, 48, 0
1, 22740, Note_off_c, 1, 77, 0
1, 22740, Note_off_c, 1, 74, 0
1, 22744, Note_on_c, 1, 75, 127
1, 22744, Note_on_c, 1, 79, 127
1, 22744, Note_on_c, 1, 63, 127
1, 22744, Note_on_c, 1, 60, 127
1, 22770, Note_off_c, 1, 75, 0
1, 22770, Note_off_c, 1, 79, 0
1, 22774, Note_on_c, 1, 77, 127
1, 22774, Note_on_c, 1, 74, 127
1, 22796, Note_off_c, 1, 63, 0
1, 22796, Note_off_c, 1, 60, 0
1, 22800, Note_off_c, 1, 77, 0
1, 22800, Note_off_c, 1, 74, 0
1, 22804, Note_on_c, 1, 72, 127
1, 22804, Note_on_c, 1, 75, 127
1, 22804, Note_on_c, 1, 63, 127
1, 22804, Note_on_c, 1, 60, 127
1, 22830, Note_off_c, 1, 72, 0
1, 22830, Note_off_c, 1, 75, 0
1, 22834, Note_on_c, 1, 74, 127
1, 22834, Note_on_c, 1, 70, 127
1, 22856, Note_off_c, 1, 63, 0
1, 22856, Note_off_c, 1, 60, 0
1, 22860, Note_off_c, 1, 74, 0
1, 22860, Note_off_c, 1, 70, 0
1, 22864, Note_on_c, 1, 72, 127
1, 22864, Note_on_c, 1, 75, 127
1, 22864, Note_on_c, 1, 63, 127
1, 22864, Note_on_c, 1, 60, 127
1, 22890, Note_off_c, 1, 72, 0
1, 22890, Note_off_c, 1, 75, 0
1, 22894, Note_on_c, 1, 74, 127
1, 22894, Note_on_c, 1, 70, 127
1, 22916, Note_off_c, 1, 63, 0
1, 22916, Note_off_c, 1, 60, 0
1, 22920, Note_off_c, 1, 74, 0
1, 22920, Note_off_c, 1, 70, 0
1, 22924, Note_on_c, 1, 68, 127
1, 22924, Note_on_c, 1, 72, 127
1, 22924, Note_on_c, 1, 63, 127
1, 22924, Note_on_c, 1, 60, 127
1, 22950, Note_off_c, 1, 68, 0
1, 22950, Note_off_c, 1, 72, 0
1, 22954, Note_on_c, 1, 70, 127
1, 22954, Note_on_c, 1, 67, 127
1, 22976, Note_off_c, 1, 63, 0
1, 22976, Note_off_c, 1, 60, 0
1, 22980, Note_off_c, 1, 70, 0
1, 22980, Note_off_c, 1, 67, 0
1, 22984, Note_on_c, 1, 68, 127
1, 22984, Note_on_c, 1, 72, 127
1, 22984, Note_on_c, 1, 63, 127
1, 22984, Note_on_c, 1, 60, 127
1, 23010, Note_off_c, 1, 68, 0
1, 23010, Note_off_c, 1, 72, 0
1, 23014, Note_on_c, 1, 70, 127
1, 23014, Note_on_c, 1, 67, 127
1, 23036, Note_off_c, 1, 63, 0
1, 23036, Note_off_c, 1, 60, 0
1, 23040, Note_off_c, 1, 70, 0
1, 23040, Note_off_c, 1, 67, 0
1, 23044, Note_on_c, 1, 63, 127
1, 23044, Note_on_c, 1, 60, 127
1, 23044, Note_on_c, 1, 69, 127
1, 23044, Note_on_c, 1, 66, 127
1, 23070, Note_off_c, 1, 63, 0
1, 23074, Note_on_c, 1, 62, 127
1, 23096, Note_off_c, 1, 60, 0
1, 23100, Note_off_c, 1, 62, 0
1, 23104, Note_on_c, 1, 58, 127
1, 23156, Note_off_c, 1, 58, 0
1, 23164, Note_on_c, 1, 57, 127
1, 23209, Note_off_c, 1, 69, 0
1, 23209, Note_off_c, 1, 66, 0
1, 23216, Note_off_c, 1, 57, 0
1, 23224, Note_on_c, 1, 60, 127
1, 23224, Note_on_c, 1, 70, 127
1, 23224, Note_on_c, 1, 55, 127
1, 23224, Note_on_c, 1, 67, 127
1, 23250, Note_off_c, 1, 60, 0
1, 23254, Note_on_c, 1, 58, 127
1, 23276, Note_off_c, 1, 70, 0
1, 23276, Note_off_c, 1, 55, 0
1, 23276, Note_off_c, 1, 67, 0
1, 23280, Note_off_c, 1, 58, 0
1, 23284, Note_on_c, 1, 57, 127
1, 23284, Note_on_c, 1, 54, 127
1, 23284, Note_on_c, 1, 69, 127
1, 23284, Note_on_c, 1, 72, 127
1, 23310, Note_off_c, 1, 57, 0
1, 23314, Note_on_c, 1, 55, 127
1, 23336, Note_off_c, 1, 54, 0
1, 23340, Note_off_c, 1, 55, 0
1, 23344, Note_on_c, 1, 52, 127
1, 23396, Note_off_c, 1, 52, 0
1, 23404, Note_on_c, 1, 50, 127
1, 23430, Note_off_c, 1, 69, 0
1, 23434, Note_on_c, 1, 62, 127
1, 23456, Note_off_c, 1, 50, 0
1, 23460, Note_off_c, 1, 62, 0
1, 23464, Note_on_c, 1, 63, 127
1, 23490, Note_off_c, 1, 63, 0
1, 23509, Note_off_c, 1, 72, 0
1, 23524, Note_on_c, 1, 58, 127
1, 23524, Note_on_c, 1, 70, 127
1, 23576, Note_off_c, 1, 58, 0
1, 23644, Note_on_c, 1, 60, 127
1, 23644, Note_on_c, 1, 51, 127
1, 23670, Note_off_c, 1, 70, 0
1, 23696, Note_off_c, 1, 60, 0
1, 23704, Note_on_c, 1, 61, 127
1, 23734, Note_on_c, 1, 67, 127
1, 23749, Note_off_c, 1, 51, 0
1, 23756, Note_off_c, 1, 61, 0
1, 23760, Note_off_c, 1, 67, 0
1, 23764, Note_on_c, 1, 50, 127
1, 23764, Note_on_c, 1, 57, 127
1, 23764, Note_on_c, 1, 62, 127
1, 23764, Note_on_c, 1, 66, 127
1, 23816, Note_off_c, 1, 50, 0
1, 23816, Note_off_c, 1, 57, 0
1, 23824, Note_on_c, 1, 38, 127
1, 23869, Note_off_c, 1, 62, 0
1, 23869, Note_off_c, 1, 66, 0
1, 23876, Note_off_c, 1, 38, 0
1, 23884, Note_on_c, 1, 62, 127
1, 23914, Note_on_c, 1, 69, 127
1, 23940, Note_off_c, 1, 69, 0
1, 23944, Note_on_c, 1, 70, 127
1, 23970, Note_off_c, 1, 70, 0
1, 23974, Note_on_c, 1, 72, 127
1, 23989, Note_off_c, 1, 62, 0
1, 24000, Note_off_c, 1, 72, 0
1, 24004, Note_on_c, 1, 74, 127
1, 24030, Note_off_c, 1, 74, 0
1, 24034, Note_on_c, 1, 72, 127
1, 24060, Note_off_c, 1, 72, 0
1, 24064, Note_on_c, 1, 58, 127
1, 24064, Note_on_c, 1, 74, 127
1, 24116, Note_off_c, 1, 58, 0
1, 24116, Note_off_c, 1, 74, 0
1, 24124, Note_on_c, 1, 74, 127
1, 24124, Note_on_c, 1, 63, 127
1, 24176, Note_off_c, 1, 74, 0
1, 24184, Note_on_c, 1, 67, 127
1, 24229, Note_off_c, 1, 63, 0
1, 24236, Note_off_c, 1, 67, 0
1, 24244, Note_on_c, 1, 60, 127
1, 24274, Note_on_c, 1, 67, 127
1, 24300, Note_off_c, 1, 67, 0
1, 24304, Note_on_c, 1, 69, 127
1, 24330, Note_off_c, 1, 69, 0
1, 24334, Note_on_c, 1, 70, 127
1, 24349, Note_off_c, 1, 60, 0
1, 24360, Note_off_c, 1, 70, 0
1, 24364, Note_on_c, 1, 72, 127
1, 24390, Note_off_c, 1, 72, 0
1, 24394, Note_on_c, 1, 70, 127
1, 24420, Note_off_c, 1, 70, 0
1, 24424, Note_on_c, 1, 57, 127
1, 24424, Note_on_c, 1, 72, 127
1, 24476, Note_off_c, 1, 57, 0
1, 24476, Note_off_c, 1, 72, 0
1, 24484, Note_on_c, 1, 72, 127
1, 24484, Note_on_c, 1, 62, 127
1, 24536, Note_off_c, 1, 72, 0
1, 24544, Note_on_c, 1, 66, 127
1, 24589, Note_off_c, 1, 62, 0
1, 24596, Note_off_c, 1, 66, 0
1, 24604, Note_on_c, 1, 58, 127
1, 24604, Note_on_c, 1, 74, 127
1, 24634, Note_on_c, 1, 50, 127
1, 24634, Note_on_c, 1, 66, 127
1, 24660, Note_off_c, 1, 50, 0
1, 24660, Note_off_c, 1, 66, 0
1, 24664, Note_on_c, 1, 52, 127
1, 24664, Note_on_c, 1, 67, 127
1, 24690, Note_off_c, 1, 52, 0
1, 24690, Note_off_c, 1, 67, 0
1, 24694, Note_on_c, 1, 69, 127
1, 24694, Note_on_c, 1, 54, 127
1, 24709, Note_off_c, 1, 58, 0
1, 24709, Note_off_c, 1, 74, 0
1, 24720, Note_off_c, 1, 69, 0
1, 24720, Note_off_c, 1, 54, 0
1, 24724, Note_on_c, 1, 55, 127
1, 24724, Note_on_c, 1, 70, 127
1, 24750, Note_off_c, 1, 55, 0
1, 24750, Note_off_c, 1, 70, 0
1, 24754, Note_on_c, 1, 54, 127
1, 24754, Note_on_c, 1, 69, 127
1, 24780, Note_off_c, 1, 54, 0
1, 24780, Note_off_c, 1, 69, 0
1, 24784, Note_on_c, 1, 55, 127
1, 24784, Note_on_c, 1, 70, 127
1, 24836, Note_off_c, 1, 55, 0
1, 24836, Note_off_c, 1, 70, 0
1, 24844, Note_on_c, 1, 55, 127
1, 24844, Note_on_c, 1, 70, 127
1, 24844, Note_on_c, 1, 60, 127
1, 24844, Note_on_c, 1, 75, 127
1, 24896, Note_off_c, 1, 55, 0
1, 24896, Note_off_c, 1, 70, 0
1, 24904, Note_on_c, 1, 63, 127
1, 24904, Note_on_c, 1, 48, 127
1, 24949, Note_off_c, 1, 60, 0
1, 24949, Note_off_c, 1, 75, 0
1, 24956, Note_off_c, 1, 63, 0
1, 24956, Note_off_c, 1, 48, 0
1, 24964, Note_on_c, 1, 57, 127
1, 24964, Note_on_c, 1, 72, 127
1, 24994, Note_on_c, 1, 48, 127
1, 24994, Note_on_c, 1, 64, 127
1, 25020, Note_off_c, 1, 48, 0
1, 25020, Note_off_c, 1, 64, 0
1, 25024, Note_on_c, 1, 50, 127
1, 25024, Note_on_c, 1, 65, 127
1, 25050, Note_off_c, 1, 50, 0
1, 25050, Note_off_c, 1, 65, 0
1, 25054, Note_on_c, 1, 67, 127
1, 25054, Note_on_c, 1, 52, 127
1, 25069, Note_off_c, 1, 57, 0
1, 25069, Note_off_c, 1, 72, 0
1, 25080, Note_off_c, 1, 67, 0
1, 25080, Note_off_c, 1, 52, 0
1, 25084, Note_on_c, 1, 53, 127
1, 25084, Note_on_c, 1, 69, 127
1, 25110, Note_off_c, 1, 53, 0
1, 25110, Note_off_c, 1, 69, 0
1, 25114, Note_on_c, 1, 52, 127
1, 25114, Note_on_c, 1, 67, 127
1, 25140, Note_off_c, 1, 52, 0
1, 25140, Note_off_c, 1, 67, 0
1, 25144, Note_on_c, 1, 53, 127
1, 25144, Note_on_c, 1, 69, 127
1, 25196, Note_off_c, 1, 53, 0
1, 25196, Note_off_c, 1, 69, 0
1, 25204, Note_on_c, 1, 53, 127
1, 25204, Note_on_c, 1, 69, 127
1, 25204, Note_on_c, 1, 58, 127
1, 25204, Note_on_c, 1, 74, 127
1, 25256, Note_off_c, 1, 53, 0
1, 25256, Note_off_c, 1, 69, 0
1, 25264, Note_on_c, 1, 62, 127
1, 25264, Note_on_c, 1, 46, 127
1, 25309, Note_off_c, 1, 58, 0
1, 25309, Note_off_c, 1, 74, 0
1, 25316, Note_off_c, 1, 62, 0
1, 25316, Note_off_c, 1, 46, 0
1, 25324, Note_on_c, 1, 55, 127
1, 25324, Note_on_c, 1, 70, 127
1, 25354, Note_on_c, 1, 46, 127
1, 25354, Note_on_c, 1, 62, 127
1, 25380, Note_off_c, 1, 46, 0
1, 25380, Note_off_c, 1, 62, 0
1, 25384, Note_on_c, 1, 48, 127
1, 25384, Note_on_c, 1, 64, 127
1, 25410, Note_off_c, 1, 48, 0
1, 25410, Note_off_c, 1, 64, 0
1, 25414, Note_on_c, 1, 66, 127
1, 25414, Note_on_c, 1, 50, 127
1, 25429, Note_off_c, 1, 55, 0
1, 25429, Note_off_c, 1, 70, 0
1, 25440, Note_off_c, 1, 66, 0
1, 25440, Note_off_c, 1, 50, 0
1, 25444, Note_on_c, 1, 51, 127
1, 25444, Note_on_c, 1, 67, 127
1, 25470, Note_off_c, 1, 51, 0
1, 25470, Note_off_c, 1, 67, 0
1, 25474, Note_on_c, 1, 50, 127
1, 25474, Note_on_c, 1, 66, 127
1, 25500, Note_off_c, 1, 50, 0
1, 25500, Note_off_c, 1, 66, 0
1, 25504, Note_on_c, 1, 58, 127
1, 25504, Note_on_c, 1, 67, 127
1, 25504, Note_on_c, 1, 51, 127
1, 25556, Note_off_c, 1, 58, 0
1, 25564, Note_on_c, 1, 57, 127
1, 25564, Note_on_c, 1, 72, 127
1, 25590, Note_off_c, 1, 51, 0
1, 25594, Note_on_c, 1, 50, 127
1, 25616, Note_off_c, 1, 67, 0
1, 25616, Note_off_c, 1, 57, 0
1, 25616, Note_off_c, 1, 72, 0
1, 25620, Note_off_c, 1, 50, 0
1, 25624, Note_on_c, 1, 51, 127
1, 25624, Note_on_c, 1, 72, 127
1, 25624, Note_on_c, 1, 55, 127
1, 25624, Note_on_c, 1, 70, 127
1, 25650, Note_off_c, 1, 51, 0
1, 25654, Note_on_c, 1, 50, 127
1, 25676, Note_off_c, 1, 72, 0
1, 25676, Note_off_c, 1, 55, 0
1, 25676, Note_off_c, 1, 70, 0
1, 25680, Note_off_c, 1, 50, 0
1, 25684, Note_on_c, 1, 48, 127
1, 25684, Note_on_c, 1, 72, 127
1, 25684, Note_on_c, 1, 63, 127
1, 25684, Note_on_c, 1, 69, 127
1, 25710, Note_off_c, 1, 48, 0
1, 25714, Note_on_c, 1, 46, 127
1, 25736, Note_off_c, 1, 72, 0
1, 25736, Note_off_c, 1, 63, 0
1, 25736, Note_off_c, 1, 69, 0
1, 25740, Note_off_c, 1, 46, 0
1, 25744, Note_on_c, 1, 48, 127
1, 25744, Note_on_c, 1, 72, 127
1, 25744, Note_on_c, 1, 63, 127
1, 25744, Note_on_c, 1, 67, 127
1, 25770, Note_off_c, 1, 48, 0
1, 25774, Note_on_c, 1, 46, 127
1, 25796, Note_off_c, 1, 72, 0
1, 25796, Note_off_c, 1, 63, 0
1, 25796, Note_off_c, 1, 67, 0
1, 25800, Note_off_c, 1, 46, 0
1, 25804, Note_on_c, 1, 45, 127
1, 25804, Note_on_c, 1, 72, 127
1, 25804, Note_on_c, 1, 63, 127
1, 25804, Note_on_c, 1, 66, 127
1, 25830, Note_off_c, 1, 45, 0
1, 25834, Note_on_c, 1, 43, 127
1, 25856, Note_off_c, 1, 72, 0
1, 25856, Note_off_c, 1, 63, 0
1, 25856, Note_off_c, 1, 66, 0
1, 25860, Note_off_c, 1, 43, 0
1, 25864, Note_on_c, 1, 45, 127
1, 25864, Note_on_c, 1, 72, 127
1, 25864, Note_on_c, 1, 63, 127
1, 25864, Note_on_c, 1, 67, 127
1, 25890, Note_off_c, 1, 45, 0
1, 25894, Note_on_c, 1, 43, 127
1, 25916, Note_off_c, 1, 72, 0
1, 25916, Note_off_c, 1, 63, 0
1, 25916, Note_off_c, 1, 67, 0
1, 25920, Note_off_c, 1, 43, 0
1, 25924, Note_on_c, 1, 42, 127
1, 25924, Note_on_c, 1, 72, 127
1, 25924, Note_on_c, 1, 69, 127
1, 25924, Note_on_c, 1, 62, 127
1, 26029, Note_off_c, 1, 42, 0
1, 26029, Note_off_c, 1, 72, 0
1, 26029, Note_off_c, 1, 69, 0
1, 26029, Note_off_c, 1, 62, 0
1, 26104, Note_on_c, 1, 38, 127
1, 26104, Note_on_c, 1, 74, 127
1, 26104, Note_on_c, 1, 66, 127
1, 26104, Note_on_c, 1, 62, 127
1, 26156, Note_off_c, 1, 38, 0
1, 26156, Note_off_c, 1, 74, 0
1, 26156, Note_off_c, 1, 66, 0
1, 26156, Note_off_c, 1, 62, 0
1, 26164, Note_on_c, 1, 43, 127
1, 26164, Note_on_c, 1, 70, 127
1, 26164, Note_on_c, 1, 67, 127
1, 26164, Note_on_c, 1, 62, 127
1, 26269, Note_off_c, 1, 43, 0
1, 26269, Note_off_c, 1, 70, 0
1, 26269, Note_off_c, 1, 67, 0
1, 26269, Note_off_c, 1, 62, 0
1, 26344, Note_on_c, 1, 48, 127
1, 26344, Note_on_c, 1, 72, 127
1, 26344, Note_on_c, 1, 69, 127
1, 26344, Note_on_c, 1, 63, 127
1, 26396, Note_off_c, 1, 48, 0
1, 26396, Note_off_c, 1, 72, 0
1, 26396, Note_off_c, 1, 69, 0
1, 26396, Note_off_c, 1, 63, 0
1, 26404, Note_on_c, 1, 70, 127
1, 26404, Note_on_c, 1, 67, 127
1, 26404, Note_on_c, 1, 50, 127
1, 26404, Note_on_c, 1, 62, 127
1, 26456, Note_off_c, 1, 70, 0
1, 26464, Note_on_c, 1, 69, 127
1, 26509, Note_off_c, 1, 67, 0
1, 26509, Note_off_c, 1, 50, 0
1, 26509, Note_off_c, 1, 62, 0
1, 26516, Note_off_c, 1, 69, 0
1, 26524, Note_on_c, 1, 69, 127
1, 26524, Note_on_c, 1, 66, 127
1, 26524, Note_on_c, 1, 38, 127
1, 26524, Note_on_c, 1, 60, 127
1, 26576, Note_off_c, 1, 69, 0
1, 26584, Note_on_c, 1, 67, 127
1, 26629, Note_off_c, 1, 66, 0
1, 26629, Note_off_c, 1, 38, 0
1, 26629, Note_off_c, 1, 60, 0
1, 26636, Note_off_c, 1, 67, 0
1, 26644, Note_on_c, 1, 43, 127
1, 26644, Note_on_c, 1, 67, 127
1, 26644, Note_on_c, 1, 58, 127
1, 26644, Note_on_c, 1, 62, 127
1, 26670, Note_off_c, 1, 43, 0
1, 26674, Note_on_c, 1, 50, 127
1, 26700, Note_off_c, 1, 50, 0
1, 26704, Note_on_c, 1, 52, 127
1, 26730, Note_off_c, 1, 52, 0
1, 26734, Note_on_c, 1, 54, 127
1, 26749, Note_off_c, 1, 67, 0
1, 26749, Note_off_c, 1, 58, 0
1, 26749, Note_off_c, 1, 62, 0
1, 26760, Note_off_c, 1, 54, 0
1, 26764, Note_on_c, 1, 55, 127
1, 26790, Note_off_c, 1, 55, 0
1, 26794, Note_on_c, 1, 54, 127
1, 26794, Note_on_c, 1, 69, 127
1, 26820, Note_off_c, 1, 54, 0
1, 26820, Note_off_c, 1, 69, 0
1, 26824, Note_on_c, 1, 70, 127
1, 26824, Note_on_c, 1, 55, 127
1, 26850, Note_off_c, 1, 70, 0
1, 26854, Note_on_c, 1, 72, 127
1, 26876, Note_off_c, 1, 55, 0
1, 26880, Note_off_c, 1, 72, 0
1, 26884, Note_on_c, 1, 74, 127
1, 26884, Note_on_c, 1, 55, 127
1, 26910, Note_off_c, 1, 74, 0
1, 26914, Note_on_c, 1, 57, 127
1, 26914, Note_on_c, 1, 72, 127
1, 26940, Note_off_c, 1, 57, 0
1, 26940, Note_off_c, 1, 72, 0
1, 26944, Note_on_c, 1, 58, 127
1, 26970, Note_off_c, 1, 58, 0
1, 26974, Note_on_c, 1, 60, 127
1, 26974, Note_on_c, 1, 75, 127
1, 27000, Note_off_c, 1, 60, 0
1, 27000, Note_off_c, 1, 75, 0
1, 27004, Note_on_c, 1, 62, 127
1, 27004, Note_on_c, 1, 69, 127
1, 27030, Note_off_c, 1, 62, 0
1, 27034, Note_on_c, 1, 61, 127
1, 27034, Note_on_c, 1, 64, 127
1, 27056, Note_off_c, 1, 55, 0
1, 27060, Note_off_c, 1, 61, 0
1, 27060, Note_off_c, 1, 64, 0
1, 27064, Note_on_c, 1, 65, 127
1, 27064, Note_on_c, 1, 53, 127
1, 27090, Note_off_c, 1, 65, 0
1, 27094, Note_on_c, 1, 67, 127
1, 27109, Note_off_c, 1, 69, 0
1, 27116, Note_off_c, 1, 53, 0
1, 27120, Note_off_c, 1, 67, 0
1, 27154, Note_on_c, 1, 70, 127
1, 27180, Note_off_c, 1, 70, 0
1, 27214, Note_on_c, 1, 59, 127
1, 27240, Note_off_c, 1, 59, 0
1, 27304, Note_on_c, 1, 68, 127
1, 27334, Note_on_c, 1, 77, 127
1, 27356, Note_off_c, 1, 68, 0
1, 27360, Note_off_c, 1, 77, 0
1, 27364, Note_on_c, 1, 71, 127
1, 27390, Note_off_c, 1, 71, 0
1, 27394, Note_on_c, 1, 47, 127
1, 27420, Note_off_c, 1, 47, 0
1, 27424, Note_on_c, 1, 48, 127
1, 27450, Note_off_c, 1, 48, 0
1, 27454, Note_on_c, 1, 50, 127
1, 27480, Note_off_c, 1, 50, 0
1, 27484, Note_on_c, 1, 51, 127
1, 27484, Note_on_c, 1, 72, 127
1, 27510, Note_off_c, 1, 51, 0
1, 27510, Note_off_c, 1, 72, 0
1, 27514, Note_on_c, 1, 50, 127
1, 27514, Note_on_c, 1, 71, 127
1, 27540, Note_off_c, 1, 50, 0
1, 27540, Note_off_c, 1, 71, 0
1, 27544, Note_on_c, 1, 51, 127
1, 27544, Note_on_c, 1, 72, 127
1, 27574, Note_on_c, 1, 70, 127
1, 27574, Note_on_c, 1, 62, 127
1, 27596, Note_off_c, 1, 51, 0
1, 27596, Note_off_c, 1, 72, 0
1, 27600, Note_off_c, 1, 70, 0
1, 27600, Note_off_c, 1, 62, 0
1, 27604, Note_on_c, 1, 60, 127
1, 27604, Note_on_c, 1, 69, 127
1, 27604, Note_on_c, 1, 72, 127
1, 27604, Note_on_c, 1, 51, 127
1, 27630, Note_off_c, 1, 60, 0
1, 27630, Note_off_c, 1, 69, 0
1, 27634, Note_on_c, 1, 58, 127
1, 27634, Note_on_c, 1, 67, 127
1, 27656, Note_off_c, 1, 72, 0
1, 27660, Note_off_c, 1, 58, 0
1, 27660, Note_off_c, 1, 67, 0
1, 27724, Note_on_c, 1, 57, 127
1, 27724, Note_on_c, 1, 66, 127
1, 27829, Note_off_c, 1, 51, 0
1, 27829, Note_off_c, 1, 57, 0
1, 27829, Note_off_c, 1, 66, 0
1, 27904, Note_on_c, 1, 51, 127
1, 27904, Note_on_c, 1, 78, 127
1, 27904, Note_on_c, 1, 69, 127
1, 27904, Note_on_c, 1, 60, 127
1, 27956, Note_off_c, 1, 51, 0
1, 27956, Note_off_c, 1, 78, 0
1, 27956, Note_off_c, 1, 69, 0
1, 27956, Note_off_c, 1, 60, 0
1, 27964, Note_on_c, 1, 50, 127
1, 27964, Note_on_c, 1, 79, 127
1, 27964, Note_on_c, 1, 70, 127
1, 27964, Note_on_c, 1, 62, 127
1, 28069, Note_off_c, 1, 50, 0
1, 28069, Note_off_c, 1, 79, 0
1, 28069, Note_off_c, 1, 70, 0
1, 28069, Note_off_c, 1, 62, 0
1, 28114, Note_on_c, 1, 82, 127
1, 28140, Note_off_c, 1, 82, 0
1, 28144, Note_on_c, 1, 81, 127
1, 28144, Note_on_c, 1, 49, 127
1, 28170, Note_off_c, 1, 81, 0
1, 28174, Note_on_c, 1, 79, 127
1, 28196, Note_off_c, 1, 49, 0
1, 28200, Note_off_c, 1, 79, 0
1, 28204, Note_on_c, 1, 78, 127
1, 28204, Note_on_c, 1, 50, 127
1, 28230, Note_off_c, 1, 78, 0
1, 28234, Note_on_c, 1, 57, 127
1, 28234, Note_on_c, 1, 76, 127
1, 28260, Note_off_c, 1, 57, 0
1, 28260, Note_off_c, 1, 76, 0
1, 28264, Note_on_c, 1, 58, 127
1, 28264, Note_on_c, 1, 74, 127
1, 28290, Note_off_c, 1, 58, 0
1, 28290, Note_off_c, 1, 74, 0
1, 28294, Note_on_c, 1, 60, 127
1, 28294, Note_on_c, 1, 72, 127
1, 28309, Note_off_c, 1, 50, 0
1, 28320, Note_off_c, 1, 60, 0
1, 28320, Note_off_c, 1, 72, 0
1, 28324, Note_on_c, 1, 70, 127
1, 28324, Note_on_c, 1, 62, 127
1, 28350, Note_off_c, 1, 70, 0
1, 28354, Note_on_c, 1, 69, 127
1, 28380, Note_off_c, 1, 69, 0
1, 28384, Note_on_c, 1, 67, 127
1, 28384, Note_on_c, 1, 50, 127
1, 28410, Note_off_c, 1, 67, 0
1, 28414, Note_on_c, 1, 66, 127
1, 28436, Note_off_c, 1, 50, 0
1, 28440, Note_off_c, 1, 66, 0
1, 28444, Note_on_c, 1, 51, 127
1, 28470, Note_off_c, 1, 62, 0
1, 28474, Note_on_c, 1, 55, 127
1, 28474, Note_on_c, 1, 59, 127
1, 28500, Note_off_c, 1, 55, 0
1, 28500, Note_off_c, 1, 59, 0
1, 28504, Note_on_c, 1, 57, 127
1, 28504, Note_on_c, 1, 60, 127
1, 28530, Note_off_c, 1, 57, 0
1, 28530, Note_off_c, 1, 60, 0
1, 28549, Note_off_c, 1, 51, 0
1, 28564, Note_on_c, 1, 63, 127
1, 28564, Note_on_c, 1, 48, 127
1, 28590, Note_off_c, 1, 63, 0
1, 28669, Note_off_c, 1, 48, 0
1, 28714, Note_on_c, 1, 45, 127
1, 28740, Note_off_c, 1, 45, 0
1, 28744, Note_on_c, 1, 47, 127
1, 28770, Note_off_c, 1, 47, 0
1, 28924, Note_on_c, 1, 65, 127
1, 28950, Note_off_c, 1, 65, 0
1, 29074, Note_on_c, 1, 43, 127
1, 29100, Note_off_c, 1, 43, 0
1, 29224, Note_on_c, 1, 48, 127
1, 29224, Note_on_c, 1, 68, 127
1, 29224, Note_on_c, 1, 65, 127
1, 29254, Note_on_c, 1, 74, 127
1, 29276, Note_off_c, 1, 48, 0
1, 29276, Note_off_c, 1, 68, 0
1, 29276, Note_off_c, 1, 65, 0
1, 29284, Note_on_c, 1, 67, 127
1, 29284, Note_on_c, 1, 63, 127
1, 29306, Note_off_c, 1, 74, 0
1, 29314, Note_on_c, 1, 72, 127
1, 29336, Note_off_c, 1, 67, 0
1, 29336, Note_off_c, 1, 63, 0
1, 29344, Note_on_c, 1, 62, 127
1, 29366, Note_off_c, 1, 72, 0
1, 29374, Note_on_c, 1, 70, 127
1, 29396, Note_off_c, 1, 62, 0
1, 29404, Note_on_c, 1, 60, 127
1, 29426, Note_off_c, 1, 70, 0
1, 29434, Note_on_c, 1, 69, 127
1, 29456, Note_off_c, 1, 60, 0
1, 29464, Note_on_c, 1, 58, 127
1, 29486, Note_off_c, 1, 69, 0
1, 29516, Note_off_c, 1, 58, 0
1, 29524, Note_on_c, 1, 48, 127
1, 29524, Note_on_c, 1, 57, 127
1, 29524, Note_on_c, 1, 66, 127
1, 29524, Note_on_c, 1, 62, 127
1, 29576, Note_off_c, 1, 48, 0
1, 29576, Note_off_c, 1, 57, 0
1, 29576, Note_off_c, 1, 66, 0
1, 29584, Note_on_c, 1, 46, 127
1, 29584, Note_on_c, 1, 72, 127
1, 29610, Note_off_c, 1, 46, 0
1, 29610, Note_off_c, 1, 72, 0
1, 29614, Note_on_c, 1, 74, 127
1, 29614, Note_on_c, 1, 45, 127
1, 29627, Note_off_c, 1, 74, 0
1, 29629, Note_off_c, 1, 62, 0
1, 29629, Note_on_c, 1, 75, 127
1, 29640, Note_off_c, 1, 45, 0
1, 29642, Note_off_c, 1, 75, 0
1, 29644, Note_on_c, 1, 46, 127
1, 29644, Note_on_c, 1, 74, 127
1, 29696, Note_off_c, 1, 46, 0
1, 29696, Note_off_c, 1, 74, 0
1, 29704, Note_on_c, 1, 48, 127
1, 29704, Note_on_c, 1, 58, 127
1, 29704, Note_on_c, 1, 63, 127
1, 29704, Note_on_c, 1, 67, 127
1, 29756, Note_off_c, 1, 48, 0
1, 29756, Note_off_c, 1, 58, 0
1, 29756, Note_off_c, 1, 63, 0
1, 29764, Note_on_c, 1, 57, 127
1, 29764, Note_on_c, 1, 50, 127
1, 29764, Note_on_c, 1, 62, 127
1, 29790, Note_off_c, 1, 57, 0
1, 29809, Note_off_c, 1, 67, 0
1, 29816, Note_off_c, 1, 50, 0
1, 29824, Note_on_c, 1, 66, 127
1, 29824, Note_on_c, 1, 38, 127
1, 29824, Note_on_c, 1, 60, 127
1, 29869, Note_off_c, 1, 62, 0
1, 29876, Note_off_c, 1, 66, 0
1, 29876, Note_off_c, 1, 38, 0
1, 29884, Note_on_c, 1, 43, 127
1, 29936, Note_off_c, 1, 60, 0
1, 29944, Note_on_c, 1, 59, 127
1, 29989, Note_off_c, 1, 43, 0
1, 29996, Note_off_c, 1, 59, 0
1, 29996, End_track
0, 0, End_of_file