0, 0, Header, 1, 1, 480
1, 0, Start_track
1, 0, Title_t, "Test"
1, 0, Tempo, 500000
1, 0, Instrument_name_t, "Church Organ"
1, 4, Note_on_c, 1, 47, 127
1, 34, Note_on_c, 1, 59, 127
1, 56, Note_off_c, 1, 47, 0
1, 60, Note_off_c, 1, 59, 0
1, 64, Note_on_c, 1, 61, 127
1, 90, Note_off_c, 1, 61, 0
1, 94, Note_on_c, 1, 63, 127
1, 120, Note_off_c, 1, 63, 0
1, 124, Note_on_c, 1, 64, 127
1, 150, Note_off_c, 1, 64, 0
1, 154, Note_on_c, 1, 66, 127
1, 180, Note_off_c, 1, 66, 0
1, 184, Note_on_c, 1, 68, 127
1, 210, Note_off_c, 1, 68, 0
1, 214, Note_on_c, 1, 70, 127
1, 240, Note_off_c, 1, 70, 0
1, 244, Note_on_c, 1, 71, 127
1, 256, Note_on_c, 1, 70, 127
1, 263, Note_off_c, 1, 71, 0
1, 274, Note_on_c, 1, 59, 127
1, 275, Note_off_c, 1, 70, 0
1, 300, Note_off_c, 1, 59, 0
1, 304, Note_on_c, 1, 58, 127
1, 330, Note_off_c, 1, 58, 0
1, 334, Note_on_c, 1, 56, 127
1, 334, Note_on_c, 1, 73, 127
1, 360, Note_off_c, 1, 56, 0
1, 360, Note_off_c, 1, 73, 0
1, 364, Note_on_c, 1, 54, 127
1, 364, Note_on_c, 1, 75, 127
1, 380, Note_on_c, 1, 73, 127
1, 390, Note_off_c, 1, 54, 0
1, 391, Note_off_c, 1, 75, 0
1, 394, Note_on_c, 1, 52, 127
1, 399, Note_off_c, 1, 73, 0
1, 420, Note_off_c, 1, 52, 0
1, 424, Note_on_c, 1, 51, 127
1, 450, Note_off_c, 1, 51, 0
1, 454, Note_on_c, 1, 71, 127
1, 454, Note_on_c, 1, 49, 127
1, 473, Note_off_c, 1, 71, 0
1, 480, Note_off_c, 1, 49, 0
1, 484, Note_on_c, 1, 75, 127
1, 484, Note_on_c, 1, 47, 127
1, 510, Note_off_c, 1, 75, 0
1, 514, Note_on_c, 1, 70, 127
1, 536, Note_off_c, 1, 47, 0
1, 540, Note_off_c, 1, 70, 0
1, 544, Note_on_c, 1, 71, 127
1, 570, Note_off_c, 1, 71, 0
1, 574, Note_on_c, 1, 75, 127
1, 600, Note_off_c, 1, 75, 0
1, 604, Note_on_c, 1, 76, 127
1, 604, Note_on_c, 1, 51, 127
1, 628, Note_on_c, 1, 49, 127
1, 634, Note_on_c, 1, 70, 127
1, 635, Note_off_c, 1, 76, 0
1, 635, Note_off_c, 1, 51, 0
1, 647, Note_off_c, 1, 49, 0
1, 660, Note_off_c, 1, 70, 0
1, 664, Note_on_c, 1, 71, 127
1, 690, Note_off_c, 1, 71, 0
1, 694, Note_on_c, 1, 47, 127
1, 713, Note_off_c, 1, 47, 0
1, 724, Note_on_c, 1, 78, 127
1, 724, Note_on_c, 1, 51, 127
1, 750, Note_off_c, 1, 78, 0
1, 754, Note_on_c, 1, 71, 127
1, 776, Note_off_c, 1, 51, 0
1, 780, Note_off_c, 1, 71, 0
1, 784, Note_on_c, 1, 80, 127
1, 810, Note_off_c, 1, 80, 0
1, 814, Note_on_c, 1, 52, 127
1, 814, Note_on_c, 1, 78, 127
1, 840, Note_off_c, 1, 52, 0
1, 840, Note_off_c, 1, 78, 0
1, 844, Note_on_c, 1, 76, 127
1, 844, Note_on_c, 1, 54, 127
1, 860, Note_on_c, 1, 52, 127
1, 870, Note_off_c, 1, 76, 0
1, 871, Note_off_c, 1, 54, 0
1, 874, Note_on_c, 1, 75, 127
1, 879, Note_off_c, 1, 52, 0
1, 900, Note_off_c, 1, 75, 0
1, 904, Note_on_c, 1, 73, 127
1, 928, Note_on_c, 1, 51, 127
1, 930, Note_off_c, 1, 73, 0
1, 934, Note_on_c, 1, 71, 127
1, 951, Note_off_c, 1, 51, 0
1, 960, Note_off_c, 1, 71, 0
1, 964, Note_on_c, 1, 70, 127
1, 964, Note_on_c, 1, 54, 127
1, 990, Note_off_c, 1, 70, 0
1, 994, Note_on_c, 1, 65, 127
1, 1016, Note_off_c, 1, 54, 0
1, 1020, Note_off_c, 1, 65, 0
1, 1024, Note_on_c, 1, 66, 127
1, 1024, Note_on_c, 1, 58, 127
1, 1050, Note_off_c, 1, 66, 0
1, 1054, Note_on_c, 1, 73, 127
1, 1076, Note_off_c, 1, 58, 0
1, 1080, Note_off_c, 1, 73, 0
1, 1084, Note_on_c, 1, 70, 127
1, 1084, Note_on_c, 1, 61, 127
1, 1110, Note_off_c, 1, 70, 0
1, 1114, Note_on_c, 1, 73, 127
1, 1136, Note_off_c, 1, 61, 0
1, 1140, Note_off_c, 1, 73, 0
1, 1144, Note_on_c, 1, 66, 127
1, 1144, Note_on_c, 1, 58, 127
1, 1170, Note_off_c, 1, 66, 0
1, 1174, Note_on_c, 1, 73, 127
1, 1196, Note_off_c, 1, 58, 0
1, 1200, Note_off_c, 1, 73, 0
1, 1204, Note_on_c, 1, 70, 127
1, 1204, Note_on_c, 1, 54, 127
1, 1230, Note_off_c, 1, 70, 0
1, 1234, Note_on_c, 1, 65, 127
1, 1256, Note_off_c, 1, 54, 0
1, 1260, Note_off_c, 1, 65, 0
1, 1264, Note_on_c, 1, 66, 127
1, 1264, Note_on_c, 1, 58, 127
1, 1290, Note_off_c, 1, 66, 0
1, 1294, Note_on_c, 1, 73, 127
1, 1316, Note_off_c, 1, 58, 0
1, 1320, Note_off_c, 1, 73, 0
1, 1324, Note_on_c, 1, 70, 127
1, 1324, Note_on_c, 1, 61, 127
1, 1350, Note_off_c, 1, 70, 0
1, 1354, Note_on_c, 1, 73, 127
1, 1376, Note_off_c, 1, 61, 0
1, 1380, Note_off_c, 1, 73, 0
1, 1384, Note_on_c, 1, 66, 127
1, 1384, Note_on_c, 1, 52, 127
1, 1410, Note_off_c, 1, 66, 0
1, 1414, Note_on_c, 1, 73, 127
1, 1436, Note_off_c, 1, 52, 0
1, 1440, Note_off_c, 1, 73, 0
1, 1444, Note_on_c, 1, 71, 127
1, 1444, Note_on_c, 1, 51, 127
1, 1470, Note_off_c, 1, 71, 0
1, 1474, Note_on_c, 1, 65, 127
1, 1496, Note_off_c, 1, 51, 0
1, 1500, Note_off_c, 1, 65, 0
1, 1504, Note_on_c, 1, 66, 127
1, 1504, Note_on_c, 1, 59, 127
1, 1530, Note_off_c, 1, 66, 0
1, 1534, Note_on_c, 1, 75, 127
1, 1556, Note_off_c, 1, 59, 0
1, 1560, Note_off_c, 1, 75, 0
1, 1564, Note_on_c, 1, 71, 127
1, 1564, Note_on_c, 1, 63, 127
1, 1590, Note_off_c, 1, 71, 0
1, 1594, Note_on_c, 1, 75, 127
1, 1616, Note_off_c, 1, 63, 0
1, 1620, Note_off_c, 1, 75, 0
1, 1624, Note_on_c, 1, 66, 127
1, 1624, Note_on_c, 1, 59, 127
1, 1650, Note_off_c, 1, 66, 0
1, 1654, Note_on_c, 1, 75, 127
1, 1676, Note_off_c, 1, 59, 0
1, 1680, Note_off_c, 1, 75, 0
1, 1684, Note_on_c, 1, 71, 127
1, 1684, Note_on_c, 1, 54, 127
1, 1710, Note_off_c, 1, 71, 0
1, 1714, Note_on_c, 1, 65, 127
1, 1736, Note_off_c, 1, 54, 0
1, 1740, Note_off_c, 1, 65, 0
1, 1744, Note_on_c, 1, 66, 127
1, 1744, Note_on_c, 1, 59, 127
1, 1770, Note_off_c, 1, 66, 0
1, 1774, Note_on_c, 1, 75, 127
1, 1796, Note_off_c, 1, 59, 0
1, 1800, Note_off_c, 1, 75, 0
1, 1804, Note_on_c, 1, 71, 127
1, 1804, Note_on_c, 1, 63, 127
1, 1830, Note_off_c, 1, 71, 0
1, 1834, Note_on_c, 1, 75, 127
1, 1856, Note_off_c, 1, 63, 0
1, 1860, Note_off_c, 1, 75, 0
1, 1864, Note_on_c, 1, 66, 127
1, 1864, Note_on_c, 1, 59, 127
1, 1890, Note_off_c, 1, 66, 0
1, 1894, Note_on_c, 1, 75, 127
1, 1916, Note_off_c, 1, 59, 0
1, 1920, Note_off_c, 1, 75, 0
1, 1924, Note_on_c, 1, 73, 127
1, 1924, Note_on_c, 1, 46, 127
1, 1950, Note_off_c, 1, 73, 0
1, 1954, Note_on_c, 1, 65, 127
1, 1976, Note_off_c, 1, 46, 0
1, 1980, Note_off_c, 1, 65, 0
1, 1984, Note_on_c, 1, 66, 127
1, 1984, Note_on_c, 1, 61, 127
1, 2010, Note_off_c, 1, 66, 0
1, 2014, Note_on_c, 1, 76, 127
1, 2036, Note_off_c, 1, 61, 0
1, 2040, Note_off_c, 1, 76, 0
1, 2044, Note_on_c, 1, 73, 127
1, 2044, Note_on_c, 1, 64, 127
1, 2070, Note_off_c, 1, 73, 0
1, 2074, Note_on_c, 1, 76, 127
1, 2096, Note_off_c, 1, 64, 0
1, 2100, Note_off_c, 1, 76, 0
1, 2104, Note_on_c, 1, 70, 127
1, 2104, Note_on_c, 1, 61, 127
1, 2130, Note_off_c, 1, 70, 0
1, 2134, Note_on_c, 1, 76, 127
1, 2156, Note_off_c, 1, 61, 0
1, 2160, Note_off_c, 1, 76, 0
1, 2164, Note_on_c, 1, 73, 127
1, 2164, Note_on_c, 1, 58, 127
1, 2190, Note_off_c, 1, 73, 0
1, 2194, Note_on_c, 1, 65, 127
1, 2216, Note_off_c, 1, 58, 0
1, 2220, Note_off_c, 1, 65, 0
1, 2224, Note_on_c, 1, 66, 127
1, 2224, Note_on_c, 1, 61, 127
1, 2250, Note_off_c, 1, 66, 0
1, 2254, Note_on_c, 1, 76, 127
1, 2276, Note_off_c, 1, 61, 0
1, 2280, Note_off_c, 1, 76, 0
1, 2284, Note_on_c, 1, 73, 127
1, 2284, Note_on_c, 1, 58, 127
1, 2310, Note_off_c, 1, 73, 0
1, 2314, Note_on_c, 1, 76, 127
1, 2336, Note_off_c, 1, 58, 0
1, 2340, Note_off_c, 1, 76, 0
1, 2344, Note_on_c, 1, 70, 127
1, 2344, Note_on_c, 1, 54, 127
1, 2370, Note_off_c, 1, 70, 0
1, 2374, Note_on_c, 1, 76, 127
1, 2396, Note_off_c, 1, 54, 0
1, 2400, Note_off_c, 1, 76, 0
1, 2404, Note_on_c, 1, 75, 127
1, 2404, Note_on_c, 1, 47, 127
1, 2430, Note_off_c, 1, 75, 0
1, 2434, Note_on_c, 1, 70, 127
1, 2456, Note_off_c, 1, 47, 0
1, 2460, Note_off_c, 1, 70, 0
1, 2464, Note_on_c, 1, 71, 127
1, 2464, Note_on_c, 1, 63, 127
1, 2490, Note_off_c, 1, 71, 0
1, 2494, Note_on_c, 1, 78, 127
1, 2516, Note_off_c, 1, 63, 0
1, 2520, Note_off_c, 1, 78, 0
1, 2524, Note_on_c, 1, 75, 127
1, 2524, Note_on_c, 1, 66, 127
1, 2550, Note_off_c, 1, 75, 0
1, 2554, Note_on_c, 1, 78, 127
1, 2576, Note_off_c, 1, 66, 0
1, 2580, Note_off_c, 1, 78, 0
1, 2584, Note_on_c, 1, 71, 127
1, 2584, Note_on_c, 1, 63, 127
1, 2610, Note_off_c, 1, 71, 0
1, 2614, Note_on_c, 1, 78, 127
1, 2636, Note_off_c, 1, 63, 0
1, 2640, Note_off_c, 1, 78, 0
1, 2644, Note_on_c, 1, 75, 127
1, 2644, Note_on_c, 1, 59, 127
1, 2670, Note_off_c, 1, 75, 0
1, 2674, Note_on_c, 1, 70, 127
1, 2696, Note_off_c, 1, 59, 0
1, 2700, Note_off_c, 1, 70, 0
1, 2704, Note_on_c, 1, 71, 127
1, 2704, Note_on_c, 1, 63, 127
1, 2730, Note_off_c, 1, 71, 0
1, 2734, Note_on_c, 1, 78, 127
1, 2756, Note_off_c, 1, 63, 0
1, 2760, Note_off_c, 1, 78, 0
1, 2764, Note_on_c, 1, 75, 127
1, 2764, Note_on_c, 1, 59, 127
1, 2790, Note_off_c, 1, 75, 0
1, 2794, Note_on_c, 1, 78, 127
1, 2816, Note_off_c, 1, 59, 0
1, 2820, Note_off_c, 1, 78, 0
1, 2824, Note_on_c, 1, 71, 127
1, 2824, Note_on_c, 1, 54, 127
1, 2850, Note_off_c, 1, 71, 0
1, 2854, Note_on_c, 1, 78, 127
1, 2876, Note_off_c, 1, 54, 0
1, 2880, Note_off_c, 1, 78, 0
1, 2884, Note_on_c, 1, 81, 127
1, 2884, Note_on_c, 1, 51, 127
1, 2910, Note_off_c, 1, 81, 0
1, 2914, Note_on_c, 1, 76, 127
1, 2936, Note_off_c, 1, 51, 0
1, 2940, Note_off_c, 1, 76, 0
1, 2944, Note_on_c, 1, 78, 127
1, 2944, Note_on_c, 1, 59, 127
1, 2970, Note_off_c, 1, 78, 0
1, 2974, Note_on_c, 1, 81, 127
1, 2996, Note_off_c, 1, 59, 0
1, 3000, Note_off_c, 1, 81, 0
1, 3004, Note_on_c, 1, 75, 127
1, 3004, Note_on_c, 1, 54, 127
1, 3030, Note_off_c, 1, 75, 0
1, 3034, Note_on_c, 1, 78, 127
1, 3056, Note_off_c, 1, 54, 0
1, 3060, Note_off_c, 1, 78, 0
1, 3064, Note_on_c, 1, 71, 127
1, 3064, Note_on_c, 1, 51, 127
1, 3090, Note_off_c, 1, 71, 0
1, 3094, Note_on_c, 1, 78, 127
1, 3116, Note_off_c, 1, 51, 0
1, 3120, Note_off_c, 1, 78, 0
1, 3124, Note_on_c, 1, 81, 127
1, 3124, Note_on_c, 1, 47, 127
1, 3150, Note_off_c, 1, 81, 0
1, 3154, Note_on_c, 1, 78, 127
1, 3176, Note_off_c, 1, 47, 0
1, 3180, Note_off_c, 1, 78, 0
1, 3184, Note_on_c, 1, 76, 127
1, 3184, Note_on_c, 1, 54, 127
1, 3210, Note_off_c, 1, 76, 0
1, 3214, Note_on_c, 1, 75, 127
1, 3236, Note_off_c, 1, 54, 0
1, 3240, Note_off_c, 1, 75, 0
1, 3244, Note_on_c, 1, 76, 127
1, 3244, Note_on_c, 1, 59, 127
1, 3270, Note_off_c, 1, 76, 0
1, 3274, Note_on_c, 1, 75, 127
1, 3296, Note_off_c, 1, 59, 0
1, 3300, Note_off_c, 1, 75, 0
1, 3304, Note_on_c, 1, 73, 127
1, 3304, Note_on_c, 1, 51, 127
1, 3330, Note_off_c, 1, 73, 0
1, 3334, Note_on_c, 1, 71, 127
1, 3356, Note_off_c, 1, 51, 0
1, 3360, Note_off_c, 1, 71, 0
1, 3364, Note_on_c, 1, 80, 127
1, 3364, Note_on_c, 1, 52, 127
1, 3390, Note_off_c, 1, 80, 0
1, 3394, Note_on_c, 1, 76, 127
1, 3416, Note_off_c, 1, 52, 0
1, 3420, Note_off_c, 1, 76, 0
1, 3424, Note_on_c, 1, 75, 127
1, 3424, Note_on_c, 1, 56, 127
1, 3450, Note_off_c, 1, 75, 0
1, 3454, Note_on_c, 1, 73, 127
1, 3476, Note_off_c, 1, 56, 0
1, 3480, Note_off_c, 1, 73, 0
1, 3484, Note_on_c, 1, 75, 127
1, 3484, Note_on_c, 1, 46, 127
1, 3510, Note_off_c, 1, 75, 0
1, 3514, Note_on_c, 1, 73, 127
1, 3536, Note_off_c, 1, 46, 0
1, 3540, Note_off_c, 1, 73, 0
1, 3544, Note_on_c, 1, 71, 127
1, 3544, Note_on_c, 1, 56, 127
1, 3570, Note_off_c, 1, 71, 0
1, 3574, Note_on_c, 1, 70, 127
1, 3596, Note_off_c, 1, 56, 0
1, 3600, Note_off_c, 1, 70, 0
1, 3604, Note_on_c, 1, 78, 127
1, 3604, Note_on_c, 1, 51, 127
1, 3630, Note_off_c, 1, 78, 0
1, 3634, Note_on_c, 1, 75, 127
1, 3656, Note_off_c, 1, 51, 0
1, 3660, Note_off_c, 1, 75, 0
1, 3664, Note_on_c, 1, 73, 127
1, 3664, Note_on_c, 1, 54, 127
1, 3690, Note_off_c, 1, 73, 0
1, 3694, Note_on_c, 1, 71, 127
1, 3716, Note_off_c, 1, 54, 0
1, 3720, Note_off_c, 1, 71, 0
1, 3724, Note_on_c, 1, 73, 127
1, 3724, Note_on_c, 1, 44, 127
1, 3750, Note_off_c, 1, 73, 0
1, 3754, Note_on_c, 1, 71, 127
1, 3776, Note_off_c, 1, 44, 0
1, 3780, Note_off_c, 1, 71, 0
1, 3784, Note_on_c, 1, 70, 127
1, 3784, Note_on_c, 1, 54, 127
1, 3810, Note_off_c, 1, 70, 0
1, 3814, Note_on_c, 1, 68, 127
1, 3836, Note_off_c, 1, 54, 0
1, 3840, Note_off_c, 1, 68, 0
1, 3844, Note_on_c, 1, 49, 127
1, 3844, Note_on_c, 1, 76, 127
1, 3870, Note_off_c, 1, 49, 0
1, 3870, Note_off_c, 1, 76, 0
1, 3874, Note_on_c, 1, 51, 127
1, 3874, Note_on_c, 1, 75, 127
1, 3900, Note_off_c, 1, 51, 0
1, 3900, Note_off_c, 1, 75, 0
1, 3904, Note_on_c, 1, 52, 127
1, 3904, Note_on_c, 1, 73, 127
1, 3930, Note_off_c, 1, 52, 0
1, 3930, Note_off_c, 1, 73, 0
1, 3934, Note_on_c, 1, 54, 127
1, 3934, Note_on_c, 1, 75, 127
1, 3960, Note_off_c, 1, 54, 0
1, 3960, Note_off_c, 1, 75, 0
1, 3964, Note_on_c, 1, 56, 127
1, 3964, Note_on_c, 1, 76, 127
1, 3990, Note_off_c, 1, 56, 0
1, 3994, Note_on_c, 1, 58, 127
1, 4016, Note_off_c, 1, 76, 0
1, 4020, Note_off_c, 1, 58, 0
1, 4024, Note_on_c, 1, 59, 127
1, 4024, Note_on_c, 1, 68, 127
1, 4050, Note_off_c, 1, 59, 0
1, 4054, Note_on_c, 1, 56, 127
1, 4076, Note_off_c, 1, 68, 0
1, 4080, Note_off_c, 1, 56, 0
1, 4084, Note_on_c, 1, 66, 127
1, 4084, Note_on_c, 1, 58, 127
1, 4110, Note_off_c, 1, 66, 0
1, 4114, Note_on_c, 1, 68, 127
1, 4136, Note_off_c, 1, 58, 0
1, 4140, Note_off_c, 1, 68, 0
1, 4144, Note_on_c, 1, 70, 127
1, 4144, Note_on_c, 1, 61, 127
1, 4170, Note_off_c, 1, 70, 0
1, 4174, Note_on_c, 1, 71, 127
1, 4196, Note_off_c, 1, 61, 0
1, 4200, Note_off_c, 1, 71, 0
1, 4204, Note_on_c, 1, 73, 127
1, 4204, Note_on_c, 1, 58, 127
1, 4230, Note_off_c, 1, 73, 0
1, 4234, Note_on_c, 1, 75, 127
1, 4256, Note_off_c, 1, 58, 0
1, 4260, Note_off_c, 1, 75, 0
1, 4264, Note_on_c, 1, 76, 127
1, 4264, Note_on_c, 1, 54, 127
1, 4290, Note_off_c, 1, 76, 0
1, 4294, Note_on_c, 1, 73, 127
1, 4316, Note_off_c, 1, 54, 0
1, 4320, Note_off_c, 1, 73, 0
1, 4324, Note_on_c, 1, 75, 127
1, 4324, Note_on_c, 1, 59, 127
1, 4350, Note_off_c, 1, 75, 0
1, 4354, Note_on_c, 1, 76, 127
1, 4376, Note_off_c, 1, 59, 0
1, 4380, Note_off_c, 1, 76, 0
1, 4384, Note_on_c, 1, 75, 127
1, 4384, Note_on_c, 1, 47, 127
1, 4410, Note_off_c, 1, 75, 0
1, 4414, Note_on_c, 1, 73, 127
1, 4436, Note_off_c, 1, 47, 0
1, 4440, Note_off_c, 1, 73, 0
1, 4444, Note_on_c, 1, 71, 127
1, 4444, Note_on_c, 1, 59, 127
1, 4460, Note_on_c, 1, 58, 127
1, 4470, Note_off_c, 1, 71, 0
1, 4471, Note_off_c, 1, 59, 0
1, 4474, Note_on_c, 1, 70, 127
1, 4487, Note_off_c, 1, 58, 0
1, 4500, Note_off_c, 1, 70, 0
1, 4504, Note_on_c, 1, 68, 127
1, 4530, Note_off_c, 1, 68, 0
1, 4534, Note_on_c, 1, 66, 127
1, 4560, Note_off_c, 1, 66, 0
1, 4564, Note_on_c, 1, 65, 127
1, 4590, Note_off_c, 1, 65, 0
1, 4594, Note_on_c, 1, 61, 127
1, 4620, Note_off_c, 1, 61, 0
1, 4624, Note_on_c, 1, 56, 127
1, 4624, Note_on_c, 1, 65, 127
1, 4650, Note_off_c, 1, 56, 0
1, 4650, Note_off_c, 1, 65, 0
1, 4654, Note_on_c, 1, 54, 127
1, 4654, Note_on_c, 1, 68, 127
1, 4680, Note_off_c, 1, 54, 0
1, 4680, Note_off_c, 1, 68, 0
1, 4684, Note_on_c, 1, 53, 127
1, 4684, Note_on_c, 1, 73, 127
1, 4710, Note_off_c, 1, 53, 0
1, 4714, Note_on_c, 1, 49, 127
1, 4740, Note_off_c, 1, 49, 0
1, 4774, Note_on_c, 1, 56, 127
1, 4800, Note_off_c, 1, 56, 0
1, 4804, Note_on_c, 1, 58, 127
1, 4830, Note_off_c, 1, 73, 0
1, 4834, Note_on_c, 1, 71, 127
1, 4856, Note_off_c, 1, 58, 0
1, 4860, Note_off_c, 1, 71, 0
1, 4864, Note_on_c, 1, 70, 127
1, 4864, Note_on_c, 1, 61, 127
1, 4890, Note_off_c, 1, 70, 0
1, 4894, Note_on_c, 1, 68, 127
1, 4916, Note_off_c, 1, 61, 0
1, 4920, Note_off_c, 1, 68, 0
1, 4924, Note_on_c, 1, 66, 127
1, 4924, Note_on_c, 1, 51, 127
1, 4950, Note_off_c, 1, 66, 0
1, 4954, Note_on_c, 1, 65, 127
1, 4976, Note_off_c, 1, 51, 0
1, 4980, Note_off_c, 1, 65, 0
1, 4984, Note_on_c, 1, 63, 127
1, 4984, Note_on_c, 1, 54, 127
1, 5010, Note_off_c, 1, 63, 0
1, 5014, Note_on_c, 1, 73, 127
1, 5036, Note_off_c, 1, 54, 0
1, 5040, Note_off_c, 1, 73, 0
1, 5044, Note_on_c, 1, 71, 127
1, 5044, Note_on_c, 1, 56, 127
1, 5070, Note_off_c, 1, 71, 0
1, 5074, Note_on_c, 1, 70, 127
1, 5096, Note_off_c, 1, 56, 0
1, 5100, Note_off_c, 1, 70, 0
1, 5104, Note_on_c, 1, 68, 127
1, 5104, Note_on_c, 1, 59, 127
1, 5130, Note_off_c, 1, 68, 0
1, 5134, Note_on_c, 1, 66, 127
1, 5156, Note_off_c, 1, 59, 0
1, 5160, Note_off_c, 1, 66, 0
1, 5164, Note_on_c, 1, 65, 127
1, 5164, Note_on_c, 1, 49, 127
1, 5190, Note_off_c, 1, 65, 0
1, 5194, Note_on_c, 1, 63, 127
1, 5216, Note_off_c, 1, 49, 0
1, 5220, Note_off_c, 1, 63, 0
1, 5224, Note_on_c, 1, 61, 127
1, 5224, Note_on_c, 1, 53, 127
1, 5254, Note_on_c, 1, 71, 127
1, 5276, Note_off_c, 1, 53, 0
1, 5280, Note_off_c, 1, 71, 0
1, 5284, Note_on_c, 1, 54, 127
1, 5284, Note_on_c, 1, 70, 127
1, 5284, Note_on_c, 1, 66, 127
1, 5310, Note_off_c, 1, 54, 0
1, 5314, Note_on_c, 1, 42, 127
1, 5340, Note_off_c, 1, 42, 0
1, 5344, Note_on_c, 1, 44, 127
1, 5370, Note_off_c, 1, 44, 0
1, 5374, Note_on_c, 1, 46, 127
1, 5389, Note_off_c, 1, 61, 0
1, 5389, Note_off_c, 1, 70, 0
1, 5389, Note_off_c, 1, 66, 0
1, 5400, Note_off_c, 1, 46, 0
1, 5404, Note_on_c, 1, 47, 127
1, 5430, Note_off_c, 1, 47, 0
1, 5434, Note_on_c, 1, 49, 127
1, 5460, Note_off_c, 1, 49, 0
1, 5464, Note_on_c, 1, 51, 127
1, 5490, Note_off_c, 1, 51, 0
1, 5494, Note_on_c, 1, 53, 127
1, 5520, Note_off_c, 1, 53, 0
1, 5524, Note_on_c, 1, 54, 127
1, 5550, Note_off_c, 1, 54, 0
1, 5554, Note_on_c, 1, 56, 127
1, 5580, Note_off_c, 1, 56, 0
1, 5584, Note_on_c, 1, 54, 127
1, 5584, Note_on_c, 1, 70, 127
1, 5584, Note_on_c, 1, 73, 127
1, 5610, Note_off_c, 1, 54, 0
1, 5614, Note_on_c, 1, 52, 127
1, 5636, Note_off_c, 1, 70, 0
1, 5636, Note_off_c, 1, 73, 0
1, 5640, Note_off_c, 1, 52, 0
1, 5644, Note_on_c, 1, 51, 127
1, 5644, Note_on_c, 1, 78, 127
1, 5644, Note_on_c, 1, 72, 127
1, 5670, Note_off_c, 1, 51, 0
1, 5674, Note_on_c, 1, 56, 127
1, 5696, Note_off_c, 1, 78, 0
1, 5700, Note_off_c, 1, 56, 0
1, 5704, Note_on_c, 1, 54, 127
1, 5704, Note_on_c, 1, 75, 127
1, 5730, Note_off_c, 1, 54, 0
1, 5749, Note_off_c, 1, 72, 0
1, 5756, Note_off_c, 1, 75, 0
1, 5764, Note_on_c, 1, 49, 127
1, 5764, Note_on_c, 1, 73, 127
1, 5764, Note_on_c, 1, 76, 127
1, 5790, Note_off_c, 1, 49, 0
1, 5794, Note_on_c, 1, 51, 127
1, 5816, Note_off_c, 1, 73, 0
1, 5820, Note_off_c, 1, 51, 0
1, 5824, Note_on_c, 1, 52, 127
1, 5824, Note_on_c, 1, 68, 127
1, 5850, Note_off_c, 1, 52, 0
1, 5876, Note_off_c, 1, 68, 0
1, 5884, Note_on_c, 1, 54, 127
1, 5884, Note_on_c, 1, 69, 127
1, 5910, Note_off_c, 1, 54, 0
1, 5936, Note_off_c, 1, 69, 0
1, 5944, Note_on_c, 1, 70, 127
1, 5996, Note_off_c, 1, 70, 0
1, 6004, Note_on_c, 1, 47, 127
1, 6004, Note_on_c, 1, 71, 127
1, 6030, Note_off_c, 1, 47, 0
1, 6056, Note_off_c, 1, 76, 0
1, 6064, Note_on_c, 1, 75, 127
1, 6094, Note_on_c, 1, 46, 127
1, 6116, Note_off_c, 1, 75, 0
1, 6120, Note_off_c, 1, 46, 0
1, 6124, Note_on_c, 1, 44, 127
1, 6150, Note_off_c, 1, 44, 0
1, 6184, Note_on_c, 1, 77, 127
1, 6236, Note_off_c, 1, 77, 0
1, 6244, Note_on_c, 1, 42, 127
1, 6244, Note_on_c, 1, 78, 127
1, 6270, Note_off_c, 1, 42, 0
1, 6296, Note_off_c, 1, 71, 0
1, 6394, Note_on_c, 1, 56, 127
1, 6420, Note_off_c, 1, 56, 0
1, 6424, Note_on_c, 1, 72, 127
1, 6476, Note_off_c, 1, 72, 0
1, 6536, Note_off_c, 1, 78, 0
1, 6664, Note_on_c, 1, 79, 127
1, 6716, Note_off_c, 1, 79, 0
1, 6724, Note_on_c, 1, 80, 127
1, 6870, Note_off_c, 1, 80, 0
1, 6904, Note_on_c, 1, 80, 127
1, 6904, Note_on_c, 1, 47, 127
1, 6930, Note_off_c, 1, 80, 0
1, 6934, Note_on_c, 1, 78, 127
1, 6956, Note_off_c, 1, 47, 0
1, 6960, Note_off_c, 1, 78, 0
1, 6964, Note_on_c, 1, 76, 127
1, 6964, Note_on_c, 1, 49, 127
1, 6990, Note_off_c, 1, 76, 0
1, 6994, Note_on_c, 1, 75, 127
1, 7016, Note_off_c, 1, 49, 0
1, 7020, Note_off_c, 1, 75, 0
1, 7024, Note_on_c, 1, 73, 127
1, 7024, Note_on_c, 1, 51, 127
1, 7050, Note_off_c, 1, 73, 0
1, 7054, Note_on_c, 1, 71, 127
1, 7076, Note_off_c, 1, 51, 0
1, 7080, Note_off_c, 1, 71, 0
1, 7084, Note_on_c, 1, 70, 127
1, 7084, Note_on_c, 1, 52, 127
1, 7110, Note_off_c, 1, 70, 0
1, 7114, Note_on_c, 1, 71, 127
1, 7136, Note_off_c, 1, 52, 0
1, 7140, Note_off_c, 1, 71, 0
1, 7144, Note_on_c, 1, 73, 127
1, 7144, Note_on_c, 1, 46, 127
1, 7170, Note_off_c, 1, 73, 0
1, 7174, Note_on_c, 1, 68, 127
1, 7196, Note_off_c, 1, 46, 0
1, 7200, Note_off_c, 1, 68, 0
1, 7204, Note_on_c, 1, 67, 127
1, 7204, Note_on_c, 1, 51, 127
1, 7230, Note_off_c, 1, 67, 0
1, 7234, Note_on_c, 1, 68, 127
1, 7256, Note_off_c, 1, 51, 0
1, 7260, Note_off_c, 1, 68, 0
1, 7264, Note_on_c, 1, 70, 127
1, 7264, Note_on_c, 1, 49, 127
1, 7290, Note_off_c, 1, 70, 0
1, 7294, Note_on_c, 1, 64, 127
1, 7316, Note_off_c, 1, 49, 0
1, 7320, Note_off_c, 1, 64, 0
1, 7324, Note_on_c, 1, 63, 127
1, 7324, Note_on_c, 1, 47, 127
1, 7350, Note_off_c, 1, 63, 0
1, 7354, Note_on_c, 1, 61, 127
1, 7376, Note_off_c, 1, 47, 0
1, 7380, Note_off_c, 1, 61, 0
1, 7384, Note_on_c, 1, 59, 127
1, 7384, Note_on_c, 1, 43, 127
1, 7410, Note_off_c, 1, 59, 0
1, 7414, Note_on_c, 1, 58, 127
1, 7436, Note_off_c, 1, 43, 0
1, 7440, Note_off_c, 1, 58, 0
1, 7444, Note_on_c, 1, 59, 127
1, 7444, Note_on_c, 1, 44, 127
1, 7470, Note_off_c, 1, 59, 0
1, 7474, Note_on_c, 1, 63, 127
1, 7496, Note_off_c, 1, 44, 0
1, 7500, Note_off_c, 1, 63, 0
1, 7504, Note_on_c, 1, 68, 127
1, 7504, Note_on_c, 1, 40, 127
1, 7530, Note_off_c, 1, 68, 0
1, 7534, Note_on_c, 1, 59, 127
1, 7556, Note_off_c, 1, 40, 0
1, 7560, Note_off_c, 1, 59, 0
1, 7564, Note_on_c, 1, 58, 127
1, 7564, Note_on_c, 1, 37, 127
1, 7590, Note_off_c, 1, 58, 0
1, 7594, Note_on_c, 1, 68, 127
1, 7616, Note_off_c, 1, 37, 0
1, 7620, Note_off_c, 1, 68, 0
1, 7624, Note_on_c, 1, 58, 127
1, 7624, Note_on_c, 1, 39, 127
1, 7650, Note_off_c, 1, 58, 0
1, 7654, Note_on_c, 1, 67, 127
1, 7676, Note_off_c, 1, 39, 0
1, 7680, Note_off_c, 1, 67, 0
1, 7684, Note_on_c, 1, 68, 127
1, 7684, Note_on_c, 1, 44, 127
1, 7710, Note_off_c, 1, 68, 0
1, 7714, Note_on_c, 1, 59, 127
1, 7740, Note_off_c, 1, 59, 0
1, 7744, Note_on_c, 1, 61, 127
1, 7770, Note_off_c, 1, 61, 0
1, 7774, Note_on_c, 1, 63, 127
1, 7789, Note_off_c, 1, 44, 0
1, 7800, Note_off_c, 1, 63, 0
1, 7804, Note_on_c, 1, 56, 127
1, 7830, Note_off_c, 1, 56, 0
1, 7834, Note_on_c, 1, 51, 127
1, 7860, Note_off_c, 1, 51, 0
1, 7864, Note_on_c, 1, 53, 127
1, 7890, Note_off_c, 1, 53, 0
1, 7894, Note_on_c, 1, 55, 127
1, 7920, Note_off_c, 1, 55, 0
1, 7924, Note_on_c, 1, 56, 127
1, 7950, Note_off_c, 1, 56, 0
1, 7954, Note_on_c, 1, 58, 127
1, 7980, Note_off_c, 1, 58, 0
1, 7984, Note_on_c, 1, 59, 127
1, 8010, Note_off_c, 1, 59, 0
1, 8014, Note_on_c, 1, 61, 127
1, 8040, Note_off_c, 1, 61, 0
1, 8044, Note_on_c, 1, 59, 127
1, 8070, Note_off_c, 1, 59, 0
1, 8074, Note_on_c, 1, 58, 127
1, 8100, Note_off_c, 1, 58, 0
1, 8104, Note_on_c, 1, 56, 127
1, 8130, Note_off_c, 1, 56, 0
1, 8134, Note_on_c, 1, 54, 127
1, 8160, Note_off_c, 1, 54, 0
1, 8164, Note_on_c, 1, 53, 127
1, 8164, Note_on_c, 1, 37, 127
1, 8190, Note_off_c, 1, 53, 0
1, 8194, Note_on_c, 1, 56, 127
1, 8216, Note_off_c, 1, 37, 0
1, 8220, Note_off_c, 1, 56, 0
1, 8224, Note_on_c, 1, 58, 127
1, 8250, Note_off_c, 1, 58, 0
1, 8254, Note_on_c, 1, 59, 127
1, 8280, Note_off_c, 1, 59, 0
1, 8284, Note_on_c, 1, 49, 127
1, 8310, Note_off_c, 1, 49, 0
1, 8314, Note_on_c, 1, 51, 127
1, 8340, Note_off_c, 1, 51, 0
1, 8344, Note_on_c, 1, 53, 127
1, 8370, Note_off_c, 1, 53, 0
1, 8374, Note_on_c, 1, 54, 127
1, 8400, Note_off_c, 1, 54, 0
1, 8404, Note_on_c, 1, 56, 127
1, 8430, Note_off_c, 1, 56, 0
1, 8434, Note_on_c, 1, 58, 127
1, 8460, Note_off_c, 1, 58, 0
1, 8464, Note_on_c, 1, 59, 127
1, 8490, Note_off_c, 1, 59, 0
1, 8494, Note_on_c, 1, 61, 127
1, 8520, Note_off_c, 1, 61, 0
1, 8524, Note_on_c, 1, 63, 127
1, 8550, Note_off_c, 1, 63, 0
1, 8554, Note_on_c, 1, 65, 127
1, 8580, Note_off_c, 1, 65, 0
1, 8584, Note_on_c, 1, 66, 127
1, 8610, Note_off_c, 1, 66, 0
1, 8614, Note_on_c, 1, 68, 127
1, 8640, Note_off_c, 1, 68, 0
1, 8644, Note_on_c, 1, 70, 127
1, 8644, Note_on_c, 1, 42, 127
1, 8670, Note_off_c, 1, 70, 0
1, 8674, Note_on_c, 1, 66, 127
1, 8696, Note_off_c, 1, 42, 0
1, 8700, Note_off_c, 1, 66, 0
1, 8704, Note_on_c, 1, 65, 127
1, 8730, Note_off_c, 1, 65, 0
1, 8734, Note_on_c, 1, 63, 127
1, 8760, Note_off_c, 1, 63, 0
1, 8764, Note_on_c, 1, 61, 127
1, 8790, Note_off_c, 1, 61, 0
1, 8794, Note_on_c, 1, 59, 127
1, 8820, Note_off_c, 1, 59, 0
1, 8824, Note_on_c, 1, 58, 127
1, 8850, Note_off_c, 1, 58, 0
1, 8854, Note_on_c, 1, 56, 127
1, 8880, Note_off_c, 1, 56, 0
1, 8884, Note_on_c, 1, 54, 127
1, 8910, Note_off_c, 1, 54, 0
1, 8914, Note_on_c, 1, 56, 127
1, 8940, Note_off_c, 1, 56, 0
1, 8944, Note_on_c, 1, 58, 127
1, 8970, Note_off_c, 1, 58, 0
1, 8974, Note_on_c, 1, 59, 127
1, 9000, Note_off_c, 1, 59, 0
1, 9004, Note_on_c, 1, 58, 127
1, 9030, Note_off_c, 1, 58, 0
1, 9034, Note_on_c, 1, 56, 127
1, 9060, Note_off_c, 1, 56, 0
1, 9064, Note_on_c, 1, 54, 127
1, 9090, Note_off_c, 1, 54, 0
1, 9094, Note_on_c, 1, 52, 127
1, 9120, Note_off_c, 1, 52, 0
1, 9124, Note_on_c, 1, 51, 127
1, 9124, Note_on_c, 1, 35, 127
1, 9150, Note_off_c, 1, 51, 0
1, 9154, Note_on_c, 1, 54, 127
1, 9176, Note_off_c, 1, 35, 0
1, 9180, Note_off_c, 1, 54, 0
1, 9184, Note_on_c, 1, 56, 127
1, 9210, Note_off_c, 1, 56, 0
1, 9214, Note_on_c, 1, 57, 127
1, 9240, Note_off_c, 1, 57, 0
1, 9244, Note_on_c, 1, 47, 127
1, 9270, Note_off_c, 1, 47, 0
1, 9274, Note_on_c, 1, 49, 127
1, 9300, Note_off_c, 1, 49, 0
1, 9304, Note_on_c, 1, 51, 127
1, 9330, Note_off_c, 1, 51, 0
1, 9334, Note_on_c, 1, 52, 127
1, 9360, Note_off_c, 1, 52, 0
1, 9364, Note_on_c, 1, 54, 127
1, 9390, Note_off_c, 1, 54, 0
1, 9394, Note_on_c, 1, 56, 127
1, 9420, Note_off_c, 1, 56, 0
1, 9424, Note_on_c, 1, 57, 127
1, 9450, Note_off_c, 1, 57, 0
1, 9454, Note_on_c, 1, 59, 127
1, 9480, Note_off_c, 1, 59, 0
1, 9484, Note_on_c, 1, 61, 127
1, 9510, Note_off_c, 1, 61, 0
1, 9514, Note_on_c, 1, 63, 127
1, 9540, Note_off_c, 1, 63, 0
1, 9544, Note_on_c, 1, 64, 127
1, 9570, Note_off_c, 1, 64, 0
1, 9574, Note_on_c, 1, 66, 127
1, 9600, Note_off_c, 1, 66, 0
1, 9604, Note_on_c, 1, 68, 127
1, 9604, Note_on_c, 1, 40, 127
1, 9630, Note_off_c, 1, 68, 0
1, 9634, Note_on_c, 1, 64, 127
1, 9656, Note_off_c, 1, 40, 0
1, 9660, Note_off_c, 1, 64, 0
1, 9664, Note_on_c, 1, 63, 127
1, 9690, Note_off_c, 1, 63, 0
1, 9694, Note_on_c, 1, 61, 127
1, 9720, Note_off_c, 1, 61, 0
1, 9724, Note_on_c, 1, 59, 127
1, 9750, Note_off_c, 1, 59, 0
1, 9754, Note_on_c, 1, 57, 127
1, 9780, Note_off_c, 1, 57, 0
1, 9784, Note_on_c, 1, 56, 127
1, 9810, Note_off_c, 1, 56, 0
1, 9814, Note_on_c, 1, 54, 127
1, 9840, Note_off_c, 1, 54, 0
1, 9844, Note_on_c, 1, 52, 127
1, 9870, Note_off_c, 1, 52, 0
1, 9874, Note_on_c, 1, 54, 127
1, 9874, Note_on_c, 1, 63, 127
1, 9900, Note_off_c, 1, 54, 0
1, 9900, Note_off_c, 1, 63, 0
1, 9904, Note_on_c, 1, 56, 127
1, 9904, Note_on_c, 1, 64, 127
1, 9930, Note_off_c, 1, 56, 0
1, 9930, Note_off_c, 1, 64, 0
1, 9934, Note_on_c, 1, 57, 127
1, 9934, Note_on_c, 1, 66, 127
1, 9960, Note_off_c, 1, 57, 0
1, 9960, Note_off_c, 1, 66, 0
1, 9964, Note_on_c, 1, 56, 127
1, 9964, Note_on_c, 1, 64, 127
1, 9990, Note_off_c, 1, 56, 0
1, 9990, Note_off_c, 1, 64, 0
1, 9994, Note_on_c, 1, 54, 127
1, 9994, Note_on_c, 1, 63, 127
1, 10020, Note_off_c, 1, 54, 0
1, 10020, Note_off_c, 1, 63, 0
1, 10024, Note_on_c, 1, 52, 127
1, 10024, Note_on_c, 1, 61, 127
1, 10050, Note_off_c, 1, 52, 0
1, 10050, Note_off_c, 1, 61, 0
1, 10054, Note_on_c, 1, 51, 127
1, 10054, Note_on_c, 1, 59, 127
1, 10080, Note_off_c, 1, 51, 0
1, 10080, Note_off_c, 1, 59, 0
1, 10084, Note_on_c, 1, 58, 127
1, 10084, Note_on_c, 1, 42, 127
1, 10084, Note_on_c, 1, 49, 127
1, 10110, Note_off_c, 1, 58, 0
1, 10114, Note_on_c, 1, 61, 127
1, 10136, Note_off_c, 1, 42, 0
1, 10136, Note_off_c, 1, 49, 0
1, 10140, Note_off_c, 1, 61, 0
1, 10144, Note_on_c, 1, 63, 127
1, 10170, Note_off_c, 1, 63, 0
1, 10174, Note_on_c, 1, 64, 127
1, 10200, Note_off_c, 1, 64, 0
1, 10204, Note_on_c, 1, 54, 127
1, 10230, Note_off_c, 1, 54, 0
1, 10234, Note_on_c, 1, 56, 127
1, 10260, Note_off_c, 1, 56, 0
1, 10264, Note_on_c, 1, 58, 127
1, 10290, Note_off_c, 1, 58, 0
1, 10294, Note_on_c, 1, 59, 127
1, 10320, Note_off_c, 1, 59, 0
1, 10324, Note_on_c, 1, 61, 127
1, 10350, Note_off_c, 1, 61, 0
1, 10354, Note_on_c, 1, 63, 127
1, 10380, Note_off_c, 1, 63, 0
1, 10384, Note_on_c, 1, 64, 127
1, 10410, Note_off_c, 1, 64, 0
1, 10414, Note_on_c, 1, 66, 127
1, 10440, Note_off_c, 1, 66, 0
1, 10444, Note_on_c, 1, 68, 127
1, 10470, Note_off_c, 1, 68, 0
1, 10474, Note_on_c, 1, 70, 127
1, 10500, Note_off_c, 1, 70, 0
1, 10504, Note_on_c, 1, 71, 127
1, 10530, Note_off_c, 1, 71, 0
1, 10534, Note_on_c, 1, 73, 127
1, 10560, Note_off_c, 1, 73, 0
1, 10564, Note_on_c, 1, 75, 127
1, 10564, Note_on_c, 1, 47, 127
1, 10590, Note_off_c, 1, 75, 0
1, 10594, Note_on_c, 1, 71, 127
1, 10616, Note_off_c, 1, 47, 0
1, 10620, Note_off_c, 1, 71, 0
1, 10624, Note_on_c, 1, 70, 127
1, 10650, Note_off_c, 1, 70, 0
1, 10654, Note_on_c, 1, 68, 127
1, 10680, Note_off_c, 1, 68, 0
1, 10684, Note_on_c, 1, 66, 127
1, 10710, Note_off_c, 1, 66, 0
1, 10714, Note_on_c, 1, 64, 127
1, 10740, Note_off_c, 1, 64, 0
1, 10744, Note_on_c, 1, 63, 127
1, 10770, Note_off_c, 1, 63, 0
1, 10774, Note_on_c, 1, 61, 127
1, 10800, Note_off_c, 1, 61, 0
1, 10804, Note_on_c, 1, 59, 127
1, 10830, Note_off_c, 1, 59, 0
1, 10834, Note_on_c, 1, 63, 127
1, 10860, Note_off_c, 1, 63, 0
1, 10864, Note_on_c, 1, 75, 127
1, 10864, Note_on_c, 1, 54, 127
1, 10876, Note_on_c, 1, 76, 127
1, 10883, Note_off_c, 1, 75, 0
1, 10884, Note_on_c, 1, 78, 127
1, 10890, Note_off_c, 1, 54, 0
1, 10891, Note_off_c, 1, 76, 0
1, 10894, Note_on_c, 1, 63, 127
1, 10920, Note_off_c, 1, 63, 0
1, 10923, Note_off_c, 1, 78, 0
1, 10924, Note_on_c, 1, 59, 127
1, 10924, Note_on_c, 1, 76, 127
1, 10948, Note_on_c, 1, 75, 127
1, 10950, Note_off_c, 1, 59, 0
1, 10954, Note_on_c, 1, 63, 127
1, 10959, Note_off_c, 1, 76, 0
1, 10980, Note_off_c, 1, 63, 0
1, 10983, Note_off_c, 1, 75, 0
1, 10984, Note_on_c, 1, 54, 127
1, 10984, Note_on_c, 1, 73, 127
1, 11008, Note_on_c, 1, 71, 127
1, 11010, Note_off_c, 1, 54, 0
1, 11014, Note_on_c, 1, 63, 127
1, 11015, Note_off_c, 1, 73, 0
1, 11039, Note_off_c, 1, 71, 0
1, 11040, Note_off_c, 1, 63, 0
1, 11044, Note_on_c, 1, 56, 127
1, 11044, Note_on_c, 1, 83, 127
1, 11070, Note_off_c, 1, 56, 0
1, 11074, Note_on_c, 1, 59, 127
1, 11100, Note_off_c, 1, 59, 0
1, 11104, Note_on_c, 1, 51, 127
1, 11104, Note_on_c, 1, 80, 127
1, 11130, Note_off_c, 1, 51, 0
1, 11156, Note_off_c, 1, 80, 0
1, 11164, Note_on_c, 1, 75, 127
1, 11216, Note_off_c, 1, 75, 0
1, 11224, Note_on_c, 1, 78, 127
1, 11276, Note_off_c, 1, 78, 0
1, 11284, Note_on_c, 1, 77, 127
1, 11314, Note_on_c, 1, 61, 127
1, 11336, Note_off_c, 1, 83, 0
1, 11336, Note_off_c, 1, 77, 0
1, 11340, Note_off_c, 1, 61, 0
1, 11344, Note_on_c, 1, 53, 127
1, 11344, Note_on_c, 1, 80, 127
1, 11370, Note_off_c, 1, 53, 0
1, 11374, Note_on_c, 1, 61, 127
1, 11396, Note_off_c, 1, 80, 0
1, 11400, Note_off_c, 1, 61, 0
1, 11404, Note_on_c, 1, 56, 127
1, 11404, Note_on_c, 1, 78, 127
1, 11424, Note_on_c, 1, 77, 127
1, 11430, Note_off_c, 1, 56, 0
1, 11434, Note_on_c, 1, 61, 127
1, 11435, Note_off_c, 1, 78, 0
1, 11460, Note_off_c, 1, 61, 0
1, 11464, Note_on_c, 1, 53, 127
1, 11464, Note_on_c, 1, 75, 127
1, 11467, Note_off_c, 1, 77, 0
1, 11488, Note_on_c, 1, 73, 127
1, 11490, Note_off_c, 1, 53, 0
1, 11495, Note_off_c, 1, 75, 0
1, 11523, Note_off_c, 1, 73, 0
1, 11524, Note_on_c, 1, 54, 127
1, 11524, Note_on_c, 1, 82, 127
1, 11550, Note_off_c, 1, 54, 0
1, 11554, Note_on_c, 1, 58, 127
1, 11580, Note_off_c, 1, 58, 0
1, 11584, Note_on_c, 1, 49, 127
1, 11584, Note_on_c, 1, 78, 127
1, 11610, Note_off_c, 1, 49, 0
1, 11636, Note_off_c, 1, 78, 0
1, 11644, Note_on_c, 1, 73, 127
1, 11696, Note_off_c, 1, 73, 0
1, 11704, Note_on_c, 1, 76, 127
1, 11756, Note_off_c, 1, 76, 0
1, 11764, Note_on_c, 1, 75, 127
1, 11794, Note_on_c, 1, 59, 127
1, 11816, Note_off_c, 1, 82, 0
1, 11816, Note_off_c, 1, 75, 0
1, 11820, Note_off_c, 1, 59, 0
1, 11824, Note_on_c, 1, 51, 127
1, 11824, Note_on_c, 1, 78, 127
1, 11850, Note_off_c, 1, 51, 0
1, 11854, Note_on_c, 1, 59, 127
1, 11876, Note_off_c, 1, 78, 0
1, 11880, Note_off_c, 1, 59, 0
1, 11884, Note_on_c, 1, 54, 127
1, 11884, Note_on_c, 1, 76, 127
1, 11908, Note_on_c, 1, 75, 127
1, 11910, Note_off_c, 1, 54, 0
1, 11914, Note_on_c, 1, 59, 127
1, 11919, Note_off_c, 1, 76, 0
1, 11940, Note_off_c, 1, 59, 0
1, 11943, Note_off_c, 1, 75, 0
1, 11944, Note_on_c, 1, 51, 127
1, 11944, Note_on_c, 1, 73, 127
1, 11968, Note_on_c, 1, 71, 127
1, 11970, Note_off_c, 1, 51, 0
1, 11974, Note_on_c, 1, 59, 127
1, 11979, Note_off_c, 1, 73, 0
1, 12000, Note_off_c, 1, 59, 0
1, 12003, Note_off_c, 1, 71, 0
1, 12004, Note_on_c, 1, 56, 127
1, 12004, Note_on_c, 1, 77, 127
1, 12030, Note_off_c, 1, 56, 0
1, 12030, Note_off_c, 1, 77, 0
1, 12034, Note_on_c, 1, 61, 127
1, 12034, Note_on_c, 1, 78, 127
1, 12060, Note_off_c, 1, 61, 0
1, 12060, Note_off_c, 1, 78, 0
1, 12064, Note_on_c, 1, 53, 127
1, 12064, Note_on_c, 1, 71, 127
1, 12064, Note_on_c, 1, 80, 127
1, 12090, Note_off_c, 1, 53, 0
1, 12090, Note_off_c, 1, 71, 0
1, 12094, Note_on_c, 1, 61, 127
1, 12094, Note_on_c, 1, 70, 127
1, 12120, Note_off_c, 1, 61, 0
1, 12120, Note_off_c, 1, 70, 0
1, 12124, Note_on_c, 1, 56, 127
1, 12150, Note_off_c, 1, 56, 0
1, 12169, Note_off_c, 1, 80, 0
1, 12184, Note_on_c, 1, 73, 127
1, 12236, Note_off_c, 1, 73, 0
1, 12244, Note_on_c, 1, 79, 127
1, 12244, Note_on_c, 1, 58, 127
1, 12257, Note_off_c, 1, 79, 0
1, 12259, Note_on_c, 1, 80, 127
1, 12270, Note_off_c, 1, 58, 0
1, 12272, Note_off_c, 1, 80, 0
1, 12274, Note_on_c, 1, 63, 127
1, 12274, Note_on_c, 1, 82, 127
1, 12300, Note_off_c, 1, 63, 0
1, 12300, Note_off_c, 1, 82, 0
1, 12304, Note_on_c, 1, 55, 127
1, 12304, Note_on_c, 1, 70, 127
1, 12304, Note_on_c, 1, 73, 127
1, 12330, Note_off_c, 1, 55, 0
1, 12330, Note_off_c, 1, 70, 0
1, 12334, Note_on_c, 1, 63, 127
1, 12334, Note_on_c, 1, 68, 127
1, 12360, Note_off_c, 1, 63, 0
1, 12360, Note_off_c, 1, 68, 0
1, 12364, Note_on_c, 1, 58, 127
1, 12390, Note_off_c, 1, 58, 0
1, 12409, Note_off_c, 1, 73, 0
1, 12424, Note_on_c, 1, 55, 127
1, 12424, Note_on_c, 1, 73, 127
1, 12424, Note_on_c, 1, 82, 127
1, 12450, Note_off_c, 1, 55, 0
1, 12454, Note_on_c, 1, 63, 127
1, 12476, Note_off_c, 1, 73, 0
1, 12476, Note_off_c, 1, 82, 0
1, 12480, Note_off_c, 1, 63, 0
1, 12484, Note_on_c, 1, 59, 127
1, 12484, Note_on_c, 1, 73, 127
1, 12484, Note_on_c, 1, 82, 127
1, 12510, Note_off_c, 1, 59, 0
1, 12514, Note_on_c, 1, 63, 127
1, 12536, Note_off_c, 1, 73, 0
1, 12536, Note_off_c, 1, 82, 0
1, 12540, Note_off_c, 1, 63, 0
1, 12544, Note_on_c, 1, 56, 127
1, 12544, Note_on_c, 1, 71, 127
1, 12544, Note_on_c, 1, 80, 127
1, 12570, Note_off_c, 1, 56, 0
1, 12574, Note_on_c, 1, 63, 127
1, 12596, Note_off_c, 1, 71, 0
1, 12596, Note_off_c, 1, 80, 0
1, 12600, Note_off_c, 1, 63, 0
1, 12604, Note_on_c, 1, 59, 127
1, 12604, Note_on_c, 1, 75, 127
1, 12604, Note_on_c, 1, 80, 127
1, 12630, Note_off_c, 1, 59, 0
1, 12634, Note_on_c, 1, 63, 127
1, 12656, Note_off_c, 1, 75, 0
1, 12656, Note_off_c, 1, 80, 0
1, 12660, Note_off_c, 1, 63, 0
1, 12664, Note_on_c, 1, 56, 127
1, 12664, Note_on_c, 1, 75, 127
1, 12664, Note_on_c, 1, 78, 127
1, 12690, Note_off_c, 1, 56, 0
1, 12694, Note_on_c, 1, 63, 127
1, 12716, Note_off_c, 1, 75, 0
1, 12716, Note_off_c, 1, 78, 0
1, 12720, Note_off_c, 1, 63, 0
1, 12724, Note_on_c, 1, 60, 127
1, 12724, Note_on_c, 1, 80, 127
1, 12724, Note_on_c, 1, 75, 127
1, 12744, Note_on_c, 1, 78, 127
1, 12750, Note_off_c, 1, 60, 0
1, 12751, Note_off_c, 1, 80, 0
1, 12754, Note_on_c, 1, 63, 127
1, 12763, Note_off_c, 1, 78, 0
1, 12780, Note_off_c, 1, 63, 0
1, 12784, Note_on_c, 1, 57, 127
1, 12810, Note_off_c, 1, 57, 0
1, 12904, Note_on_c, 1, 77, 127
1, 12930, Note_off_c, 1, 77, 0
1, 12964, Note_on_c, 1, 58, 127
1, 12990, Note_off_c, 1, 75, 0
1, 13024, Note_on_c, 1, 74, 127
1, 13050, Note_off_c, 1, 74, 0
1, 13054, Note_on_c, 1, 72, 127
1, 13080, Note_off_c, 1, 72, 0
1, 13114, Note_on_c, 1, 70, 127
1, 13140, Note_off_c, 1, 70, 0
1, 13144, Note_on_c, 1, 71, 127
1, 13170, Note_off_c, 1, 71, 0
1, 13174, Note_on_c, 1, 68, 127
1, 13200, Note_off_c, 1, 68, 0
1, 13204, Note_on_c, 1, 65, 127
1, 13230, Note_off_c, 1, 58, 0
1, 13230, Note_off_c, 1, 65, 0
1, 13234, Note_on_c, 1, 51, 127
1, 13234, Note_on_c, 1, 66, 127
1, 13260, Note_off_c, 1, 51, 0
1, 13260, Note_off_c, 1, 66, 0
1, 13264, Note_on_c, 1, 53, 127
1, 13264, Note_on_c, 1, 68, 127
1, 13290, Note_off_c, 1, 53, 0
1, 13290, Note_off_c, 1, 68, 0
1, 13294, Note_on_c, 1, 54, 127
1, 13294, Note_on_c, 1, 70, 127
1, 13320, Note_off_c, 1, 54, 0
1, 13320, Note_off_c, 1, 70, 0
1, 13324, Note_on_c, 1, 53, 127
1, 13324, Note_on_c, 1, 68, 127
1, 13350, Note_off_c, 1, 53, 0
1, 13350, Note_off_c, 1, 68, 0
1, 13354, Note_on_c, 1, 51, 127
1, 13354, Note_on_c, 1, 66, 127
1, 13380, Note_off_c, 1, 51, 0
1, 13380, Note_off_c, 1, 66, 0
1, 13384, Note_on_c, 1, 50, 127
1, 13384, Note_on_c, 1, 65, 127
1, 13410, Note_off_c, 1, 50, 0
1, 13410, Note_off_c, 1, 65, 0
1, 13414, Note_on_c, 1, 48, 127
1, 13414, Note_on_c, 1, 63, 127
1, 13440, Note_off_c, 1, 48, 0
1, 13440, Note_off_c, 1, 63, 0
1, 13444, Note_on_c, 1, 62, 127
1, 13444, Note_on_c, 1, 46, 127
1, 13444, Note_on_c, 1, 53, 127
1, 13470, Note_off_c, 1, 62, 0
1, 13474, Note_on_c, 1, 65, 127
1, 13496, Note_off_c, 1, 46, 0
1, 13496, Note_off_c, 1, 53, 0
1, 13500, Note_off_c, 1, 65, 0
1, 13504, Note_on_c, 1, 66, 127
1, 13530, Note_off_c, 1, 66, 0
1, 13534, Note_on_c, 1, 68, 127
1, 13560, Note_off_c, 1, 68, 0
1, 13564, Note_on_c, 1, 58, 127
1, 13590, Note_off_c, 1, 58, 0
1, 13594, Note_on_c, 1, 60, 127
1, 13620, Note_off_c, 1, 60, 0
1, 13624, Note_on_c, 1, 62, 127
1, 13650, Note_off_c, 1, 62, 0
1, 13654, Note_on_c, 1, 63, 127
1, 13680, Note_off_c, 1, 63, 0
1, 13684, Note_on_c, 1, 65, 127
1, 13710, Note_off_c, 1, 65, 0
1, 13714, Note_on_c, 1, 66, 127
1, 13740, Note_off_c, 1, 66, 0
1, 13744, Note_on_c, 1, 68, 127
1, 13770, Note_off_c, 1, 68, 0
1, 13774, Note_on_c, 1, 70, 127
1, 13800, Note_off_c, 1, 70, 0
1, 13804, Note_on_c, 1, 72, 127
1, 13830, Note_off_c, 1, 72, 0
1, 13834, Note_on_c, 1, 74, 127
1, 13860, Note_off_c, 1, 74, 0
1, 13864, Note_on_c, 1, 75, 127
1, 13890, Note_off_c, 1, 75, 0
1, 13894, Note_on_c, 1, 77, 127
1, 13920, Note_off_c, 1, 77, 0
1, 13924, Note_on_c, 1, 78, 127
1, 13924, Note_on_c, 1, 51, 127
1, 13950, Note_off_c, 1, 78, 0
1, 13954, Note_on_c, 1, 75, 127
1, 13976, Note_off_c, 1, 51, 0
1, 13980, Note_off_c, 1, 75, 0
1, 13984, Note_on_c, 1, 70, 127
1, 14010, Note_off_c, 1, 70, 0
1, 14014, Note_on_c, 1, 66, 127
1, 14040, Note_off_c, 1, 66, 0
1, 14044, Note_on_c, 1, 63, 127
1, 14070, Note_off_c, 1, 63, 0
1, 14074, Note_on_c, 1, 61, 127
1, 14100, Note_off_c, 1, 61, 0
1, 14104, Note_on_c, 1, 60, 127
1, 14130, Note_off_c, 1, 60, 0
1, 14134, Note_on_c, 1, 58, 127
1, 14160, Note_off_c, 1, 58, 0
1, 14164, Note_on_c, 1, 60, 127
1, 14164, Note_on_c, 1, 56, 127
1, 14190, Note_off_c, 1, 60, 0
1, 14194, Note_on_c, 1, 63, 127
1, 14216, Note_off_c, 1, 56, 0
1, 14220, Note_off_c, 1, 63, 0
1, 14224, Note_on_c, 1, 68, 127
1, 14250, Note_off_c, 1, 68, 0
1, 14254, Note_on_c, 1, 72, 127
1, 14280, Note_off_c, 1, 72, 0
1, 14284, Note_on_c, 1, 75, 127
1, 14310, Note_off_c, 1, 75, 0
1, 14314, Note_on_c, 1, 78, 127
1, 14340, Note_off_c, 1, 78, 0
1, 14344, Note_on_c, 1, 76, 127
1, 14370, Note_off_c, 1, 76, 0
1, 14374, Note_on_c, 1, 75, 127
1, 14400, Note_off_c, 1, 75, 0
1, 14404, Note_on_c, 1, 76, 127
1, 14404, Note_on_c, 1, 49, 127
1, 14430, Note_off_c, 1, 76, 0
1, 14434, Note_on_c, 1, 73, 127
1, 14456, Note_off_c, 1, 49, 0
1, 14460, Note_off_c, 1, 73, 0
1, 14464, Note_on_c, 1, 68, 127
1, 14490, Note_off_c, 1, 68, 0
1, 14494, Note_on_c, 1, 64, 127
1, 14520, Note_off_c, 1, 64, 0
1, 14524, Note_on_c, 1, 61, 127
1, 14550, Note_off_c, 1, 61, 0
1, 14554, Note_on_c, 1, 59, 127
1, 14580, Note_off_c, 1, 59, 0
1, 14584, Note_on_c, 1, 58, 127
1, 14610, Note_off_c, 1, 58, 0
1, 14614, Note_on_c, 1, 56, 127
1, 14640, Note_off_c, 1, 56, 0
1, 14644, Note_on_c, 1, 58, 127
1, 14644, Note_on_c, 1, 54, 127
1, 14670, Note_off_c, 1, 58, 0
1, 14674, Note_on_c, 1, 61, 127
1, 14696, Note_off_c, 1, 54, 0
1, 14700, Note_off_c, 1, 61, 0
1, 14704, Note_on_c, 1, 66, 127
1, 14730, Note_off_c, 1, 66, 0
1, 14734, Note_on_c, 1, 70, 127
1, 14760, Note_off_c, 1, 70, 0
1, 14764, Note_on_c, 1, 73, 127
1, 14790, Note_off_c, 1, 73, 0
1, 14794, Note_on_c, 1, 76, 127
1, 14820, Note_off_c, 1, 76, 0
1, 14824, Note_on_c, 1, 75, 127
1, 14850, Note_off_c, 1, 75, 0
1, 14854, Note_on_c, 1, 73, 127
1, 14880, Note_off_c, 1, 73, 0
1, 14884, Note_on_c, 1, 75, 127
1, 14884, Note_on_c, 1, 47, 127
1, 14884, Note_on_c, 1, 54, 127
1, 14910, Note_off_c, 1, 75, 0
1, 14914, Note_on_c, 1, 71, 127
1, 14936, Note_off_c, 1, 47, 0
1, 14936, Note_off_c, 1, 54, 0
1, 14940, Note_off_c, 1, 71, 0
1, 14944, Note_on_c, 1, 66, 127
1, 14970, Note_off_c, 1, 66, 0
1, 14974, Note_on_c, 1, 63, 127
1, 15000, Note_off_c, 1, 63, 0
1, 15004, Note_on_c, 1, 59, 127
1, 15030, Note_off_c, 1, 59, 0
1, 15034, Note_on_c, 1, 57, 127
1, 15060, Note_off_c, 1, 57, 0
1, 15064, Note_on_c, 1, 56, 127
1, 15090, Note_off_c, 1, 56, 0
1, 15094, Note_on_c, 1, 54, 127
1, 15120, Note_off_c, 1, 54, 0
1, 15124, Note_on_c, 1, 56, 127
1, 15124, Note_on_c, 1, 53, 127
1, 15150, Note_off_c, 1, 56, 0
1, 15154, Note_on_c, 1, 59, 127
1, 15176, Note_off_c, 1, 53, 0
1, 15180, Note_off_c, 1, 59, 0
1, 15184, Note_on_c, 1, 62, 127
1, 15210, Note_off_c, 1, 62, 0
1, 15214, Note_on_c, 1, 65, 127
1, 15240, Note_off_c, 1, 65, 0
1, 15244, Note_on_c, 1, 68, 127
1, 15270, Note_off_c, 1, 68, 0
1, 15274, Note_on_c, 1, 71, 127
1, 15300, Note_off_c, 1, 71, 0
1, 15304, Note_on_c, 1, 70, 127
1, 15330, Note_off_c, 1, 70, 0
1, 15334, Note_on_c, 1, 68, 127
1, 15360, Note_off_c, 1, 68, 0
1, 15364, Note_on_c, 1, 70, 127
1, 15364, Note_on_c, 1, 54, 127
1, 15390, Note_off_c, 1, 70, 0
1, 15394, Note_on_c, 1, 63, 127
1, 15416, Note_off_c, 1, 54, 0
1, 15420, Note_off_c, 1, 63, 0
1, 15424, Note_on_c, 1, 64, 127
1, 15424, Note_on_c, 1, 42, 127
1, 15450, Note_off_c, 1, 64, 0
1, 15454, Note_on_c, 1, 73, 127
1, 15476, Note_off_c, 1, 42, 0
1, 15480, Note_off_c, 1, 73, 0
1, 15484, Note_on_c, 1, 70, 127
1, 15484, Note_on_c, 1, 46, 127
1, 15510, Note_off_c, 1, 70, 0
1, 15514, Note_on_c, 1, 73, 127
1, 15536, Note_off_c, 1, 46, 0
1, 15540, Note_off_c, 1, 73, 0
1, 15544, Note_on_c, 1, 64, 127
1, 15544, Note_on_c, 1, 49, 127
1, 15570, Note_off_c, 1, 64, 0
1, 15574, Note_on_c, 1, 73, 127
1, 15596, Note_off_c, 1, 49, 0
1, 15600, Note_off_c, 1, 73, 0
1, 15604, Note_on_c, 1, 70, 127
1, 15604, Note_on_c, 1, 54, 127
1, 15630, Note_off_c, 1, 70, 0
1, 15634, Note_on_c, 1, 63, 127
1, 15656, Note_off_c, 1, 54, 0
1, 15660, Note_off_c, 1, 63, 0
1, 15664, Note_on_c, 1, 64, 127
1, 15664, Note_on_c, 1, 58, 127
1, 15690, Note_off_c, 1, 64, 0
1, 15694, Note_on_c, 1, 73, 127
1, 15716, Note_off_c, 1, 58, 0
1, 15720, Note_off_c, 1, 73, 0
1, 15724, Note_on_c, 1, 70, 127
1, 15724, Note_on_c, 1, 61, 127
1, 15750, Note_off_c, 1, 70, 0
1, 15754, Note_on_c, 1, 73, 127
1, 15776, Note_off_c, 1, 61, 0
1, 15780, Note_off_c, 1, 73, 0
1, 15784, Note_on_c, 1, 64, 127
1, 15784, Note_on_c, 1, 58, 127
1, 15810, Note_off_c, 1, 64, 0
1, 15814, Note_on_c, 1, 73, 127
1, 15836, Note_off_c, 1, 58, 0
1, 15840, Note_off_c, 1, 73, 0
1, 15844, Note_on_c, 1, 66, 127
1, 15844, Note_on_c, 1, 59, 127
1, 15870, Note_off_c, 1, 66, 0
1, 15874, Note_on_c, 1, 61, 127
1, 15896, Note_off_c, 1, 59, 0
1, 15900, Note_off_c, 1, 61, 0
1, 15904, Note_on_c, 1, 62, 127
1, 15904, Note_on_c, 1, 54, 127
1, 15930, Note_off_c, 1, 62, 0
1, 15934, Note_on_c, 1, 73, 127
1, 15956, Note_off_c, 1, 54, 0
1, 15960, Note_off_c, 1, 73, 0
1, 15964, Note_on_c, 1, 66, 127
1, 15964, Note_on_c, 1, 50, 127
1, 15990, Note_off_c, 1, 66, 0
1, 15994, Note_on_c, 1, 73, 127
1, 16016, Note_off_c, 1, 50, 0
1, 16020, Note_off_c, 1, 73, 0
1, 16024, Note_on_c, 1, 62, 127
1, 16024, Note_on_c, 1, 54, 127
1, 16050, Note_off_c, 1, 62, 0
1, 16054, Note_on_c, 1, 73, 127
1, 16076, Note_off_c, 1, 54, 0
1, 16080, Note_off_c, 1, 73, 0
1, 16084, Note_on_c, 1, 66, 127
1, 16084, Note_on_c, 1, 50, 127
1, 16110, Note_off_c, 1, 66, 0
1, 16114, Note_on_c, 1, 61, 127
1, 16136, Note_off_c, 1, 50, 0
1, 16140, Note_off_c, 1, 61, 0
1, 16144, Note_on_c, 1, 62, 127
1, 16144, Note_on_c, 1, 47, 127
1, 16170, Note_off_c, 1, 62, 0
1, 16174, Note_on_c, 1, 71, 127
1, 16196, Note_off_c, 1, 47, 0
1, 16200, Note_off_c, 1, 71, 0
1, 16204, Note_on_c, 1, 66, 127
1, 16204, Note_on_c, 1, 50, 127
1, 16230, Note_off_c, 1, 66, 0
1, 16234, Note_on_c, 1, 71, 127
1, 16256, Note_off_c, 1, 50, 0
1, 16260, Note_off_c, 1, 71, 0
1, 16264, Note_on_c, 1, 62, 127
1, 16264, Note_on_c, 1, 54, 127
1, 16290, Note_off_c, 1, 62, 0
1, 16294, Note_on_c, 1, 71, 127
1, 16316, Note_off_c, 1, 54, 0
1, 16320, Note_off_c, 1, 71, 0
1, 16324, Note_on_c, 1, 62, 127
1, 16324, Note_on_c, 1, 42, 127
1, 16350, Note_off_c, 1, 62, 0
1, 16354, Note_on_c, 1, 58, 127
1, 16376, Note_off_c, 1, 42, 0
1, 16380, Note_off_c, 1, 58, 0
1, 16384, Note_on_c, 1, 59, 127
1, 16384, Note_on_c, 1, 42, 127
1, 16384, Note_on_c, 1, 56, 127
1, 16410, Note_off_c, 1, 59, 0
1, 16414, Note_on_c, 1, 65, 127
1, 16436, Note_off_c, 1, 42, 0
1, 16436, Note_off_c, 1, 56, 0
1, 16440, Note_off_c, 1, 65, 0
1, 16444, Note_on_c, 1, 62, 127
1, 16444, Note_on_c, 1, 42, 127
1, 16444, Note_on_c, 1, 56, 127
1, 16470, Note_off_c, 1, 62, 0
1, 16474, Note_on_c, 1, 65, 127
1, 16496, Note_off_c, 1, 42, 0
1, 16496, Note_off_c, 1, 56, 0
1, 16500, Note_off_c, 1, 65, 0
1, 16504, Note_on_c, 1, 59, 127
1, 16504, Note_on_c, 1, 42, 127
1, 16504, Note_on_c, 1, 56, 127
1, 16530, Note_off_c, 1, 59, 0
1, 16534, Note_on_c, 1, 65, 127
1, 16556, Note_off_c, 1, 42, 0
1, 16556, Note_off_c, 1, 56, 0
1, 16560, Note_off_c, 1, 65, 0
1, 16564, Note_on_c, 1, 62, 127
1, 16564, Note_on_c, 1, 42, 127
1, 16564, Note_on_c, 1, 56, 127
1, 16590, Note_off_c, 1, 62, 0
1, 16594, Note_on_c, 1, 58, 127
1, 16616, Note_off_c, 1, 42, 0
1, 16616, Note_off_c, 1, 56, 0
1, 16620, Note_off_c, 1, 58, 0
1, 16624, Note_on_c, 1, 59, 127
1, 16624, Note_on_c, 1, 42, 127
1, 16624, Note_on_c, 1, 56, 127
1, 16650, Note_off_c, 1, 59, 0
1, 16654, Note_on_c, 1, 65, 127
1, 16676, Note_off_c, 1, 42, 0
1, 16676, Note_off_c, 1, 56, 0
1, 16680, Note_off_c, 1, 65, 0
1, 16684, Note_on_c, 1, 62, 127
1, 16684, Note_on_c, 1, 42, 127
1, 16684, Note_on_c, 1, 56, 127
1, 16710, Note_off_c, 1, 62, 0
1, 16714, Note_on_c, 1, 65, 127
1, 16736, Note_off_c, 1, 42, 0
1, 16736, Note_off_c, 1, 56, 0
1, 16740, Note_off_c, 1, 65, 0
1, 16744, Note_on_c, 1, 59, 127
1, 16744, Note_on_c, 1, 42, 127
1, 16744, Note_on_c, 1, 56, 127
1, 16770, Note_off_c, 1, 59, 0
1, 16774, Note_on_c, 1, 65, 127
1, 16796, Note_off_c, 1, 42, 0
1, 16796, Note_off_c, 1, 56, 0
1, 16800, Note_off_c, 1, 65, 0
1, 16804, Note_on_c, 1, 62, 127
1, 16804, Note_on_c, 1, 42, 127
1, 16804, Note_on_c, 1, 54, 127
1, 16834, Note_on_c, 1, 58, 127
1, 16860, Note_off_c, 1, 58, 0
1, 16864, Note_on_c, 1, 59, 127
1, 16890, Note_off_c, 1, 59, 0
1, 16894, Note_on_c, 1, 66, 127
1, 16909, Note_off_c, 1, 62, 0
1, 16920, Note_off_c, 1, 66, 0
1, 16924, Note_on_c, 1, 61, 127
1, 16950, Note_off_c, 1, 61, 0
1, 16984, Note_on_c, 1, 56, 127
1, 17014, Note_on_c, 1, 65, 127
1, 17036, Note_off_c, 1, 56, 0
1, 17040, Note_off_c, 1, 65, 0
1, 17070, Note_off_c, 1, 42, 0
1, 17074, Note_on_c, 1, 44, 127
1, 17096, Note_off_c, 1, 54, 0
1, 17100, Note_off_c, 1, 44, 0
1, 17104, Note_on_c, 1, 46, 127
1, 17130, Note_off_c, 1, 46, 0
1, 17134, Note_on_c, 1, 47, 127
1, 17160, Note_off_c, 1, 47, 0
1, 17164, Note_on_c, 1, 49, 127
1, 17190, Note_off_c, 1, 49, 0
1, 17194, Note_on_c, 1, 51, 127
1, 17220, Note_off_c, 1, 51, 0
1, 17224, Note_on_c, 1, 52, 127
1, 17250, Note_off_c, 1, 52, 0
1, 17254, Note_on_c, 1, 49, 127
1, 17280, Note_off_c, 1, 49, 0
1, 17284, Note_on_c, 1, 51, 127
1, 17310, Note_off_c, 1, 51, 0
1, 17314, Note_on_c, 1, 47, 127
1, 17314, Note_on_c, 1, 71, 127
1, 17340, Note_off_c, 1, 47, 0
1, 17340, Note_off_c, 1, 71, 0
1, 17344, Note_on_c, 1, 49, 127
1, 17344, Note_on_c, 1, 70, 127
1, 17370, Note_off_c, 1, 49, 0
1, 17370, Note_off_c, 1, 70, 0
1, 17374, Note_on_c, 1, 51, 127
1, 17374, Note_on_c, 1, 68, 127
1, 17400, Note_off_c, 1, 51, 0
1, 17400, Note_off_c, 1, 68, 0
1, 17404, Note_on_c, 1, 52, 127
1, 17404, Note_on_c, 1, 66, 127
1, 17430, Note_off_c, 1, 52, 0
1, 17430, Note_off_c, 1, 66, 0
1, 17434, Note_on_c, 1, 54, 127
1, 17434, Note_on_c, 1, 64, 127
1, 17460, Note_off_c, 1, 54, 0
1, 17460, Note_off_c, 1, 64, 0
1, 17464, Note_on_c, 1, 56, 127
1, 17464, Note_on_c, 1, 63, 127
1, 17490, Note_off_c, 1, 56, 0
1, 17490, Note_off_c, 1, 63, 0
1, 17494, Note_on_c, 1, 58, 127
1, 17494, Note_on_c, 1, 61, 127
1, 17520, Note_off_c, 1, 58, 0
1, 17520, Note_off_c, 1, 61, 0
1, 17524, Note_on_c, 1, 63, 127
1, 17524, Note_on_c, 1, 59, 127
1, 17550, Note_off_c, 1, 63, 0
1, 17554, Note_on_c, 1, 71, 127
1, 17576, Note_off_c, 1, 59, 0
1, 17580, Note_off_c, 1, 71, 0
1, 17584, Note_on_c, 1, 73, 127
1, 17610, Note_off_c, 1, 73, 0
1, 17614, Note_on_c, 1, 75, 127
1, 17640, Note_off_c, 1, 75, 0
1, 17644, Note_on_c, 1, 63, 127
1, 17644, Note_on_c, 1, 76, 127
1, 17660, Note_on_c, 1, 61, 127
1, 17667, Note_off_c, 1, 63, 0
1, 17670, Note_off_c, 1, 76, 0
1, 17674, Note_on_c, 1, 78, 127
1, 17675, Note_off_c, 1, 61, 0
1, 17700, Note_off_c, 1, 78, 0
1, 17704, Note_on_c, 1, 80, 127
1, 17730, Note_off_c, 1, 80, 0
1, 17734, Note_on_c, 1, 59, 127
1, 17734, Note_on_c, 1, 82, 127
1, 17747, Note_off_c, 1, 59, 0
1, 17760, Note_off_c, 1, 82, 0
1, 17764, Note_on_c, 1, 83, 127
1, 17764, Note_on_c, 1, 63, 127
1, 17790, Note_off_c, 1, 83, 0
1, 17794, Note_on_c, 1, 78, 127
1, 17816, Note_off_c, 1, 63, 0
1, 17820, Note_off_c, 1, 78, 0
1, 17824, Note_on_c, 1, 75, 127
1, 17850, Note_off_c, 1, 75, 0
1, 17854, Note_on_c, 1, 71, 127
1, 17880, Note_off_c, 1, 71, 0
1, 17884, Note_on_c, 1, 73, 127
1, 17884, Note_on_c, 1, 66, 127
1, 17904, Note_on_c, 1, 65, 127
1, 17910, Note_off_c, 1, 73, 0
1, 17914, Note_on_c, 1, 83, 127
1, 17915, Note_off_c, 1, 66, 0
1, 17923, Note_off_c, 1, 65, 0
1, 17940, Note_off_c, 1, 83, 0
1, 17944, Note_on_c, 1, 81, 127
1, 17970, Note_off_c, 1, 81, 0
1, 17974, Note_on_c, 1, 63, 127
1, 17974, Note_on_c, 1, 80, 127
1, 17987, Note_off_c, 1, 63, 0
1, 18000, Note_off_c, 1, 80, 0
1, 18004, Note_on_c, 1, 66, 127
1, 18004, Note_on_c, 1, 81, 127
1, 18030, Note_off_c, 1, 66, 0
1, 18034, Note_on_c, 1, 64, 127
1, 18056, Note_off_c, 1, 81, 0
1, 18060, Note_off_c, 1, 64, 0
1, 18064, Note_on_c, 1, 63, 127
1, 18064, Note_on_c, 1, 78, 127
1, 18090, Note_off_c, 1, 63, 0
1, 18094, Note_on_c, 1, 61, 127
1, 18116, Note_off_c, 1, 78, 0
1, 18120, Note_off_c, 1, 61, 0
1, 18124, Note_on_c, 1, 59, 127
1, 18124, Note_on_c, 1, 75, 127
1, 18150, Note_off_c, 1, 59, 0
1, 18154, Note_on_c, 1, 57, 127
1, 18176, Note_off_c, 1, 75, 0
1, 18180, Note_off_c, 1, 57, 0
1, 18184, Note_on_c, 1, 56, 127
1, 18184, Note_on_c, 1, 81, 127
1, 18210, Note_off_c, 1, 56, 0
1, 18214, Note_on_c, 1, 54, 127
1, 18236, Note_off_c, 1, 81, 0
1, 18240, Note_off_c, 1, 54, 0
1, 18244, Note_on_c, 1, 80, 127
1, 18244, Note_on_c, 1, 52, 127
1, 18270, Note_off_c, 1, 80, 0
1, 18274, Note_on_c, 1, 76, 127
1, 18296, Note_off_c, 1, 52, 0
1, 18300, Note_off_c, 1, 76, 0
1, 18304, Note_on_c, 1, 71, 127
1, 18304, Note_on_c, 1, 63, 127
1, 18330, Note_off_c, 1, 71, 0
1, 18334, Note_on_c, 1, 68, 127
1, 18356, Note_off_c, 1, 63, 0
1, 18360, Note_off_c, 1, 68, 0
1, 18364, Note_on_c, 1, 70, 127
1, 18364, Note_on_c, 1, 61, 127
1, 18390, Note_off_c, 1, 70, 0
1, 18394, Note_on_c, 1, 80, 127
1, 18416, Note_off_c, 1, 61, 0
1, 18420, Note_off_c, 1, 80, 0
1, 18424, Note_on_c, 1, 78, 127
1, 18424, Note_on_c, 1, 58, 127
1, 18450, Note_off_c, 1, 78, 0
1, 18454, Note_on_c, 1, 76, 127
1, 18476, Note_off_c, 1, 58, 0
1, 18480, Note_off_c, 1, 76, 0
1, 18484, Note_on_c, 1, 63, 127
1, 18484, Note_on_c, 1, 78, 127
1, 18510, Note_off_c, 1, 63, 0
1, 18514, Note_on_c, 1, 61, 127
1, 18536, Note_off_c, 1, 78, 0
1, 18540, Note_off_c, 1, 61, 0
1, 18544, Note_on_c, 1, 60, 127
1, 18544, Note_on_c, 1, 75, 127
1, 18570, Note_off_c, 1, 60, 0
1, 18574, Note_on_c, 1, 58, 127
1, 18596, Note_off_c, 1, 75, 0
1, 18600, Note_off_c, 1, 58, 0
1, 18604, Note_on_c, 1, 56, 127
1, 18604, Note_on_c, 1, 72, 127
1, 18630, Note_off_c, 1, 56, 0
1, 18634, Note_on_c, 1, 54, 127
1, 18656, Note_off_c, 1, 72, 0
1, 18660, Note_off_c, 1, 54, 0
1, 18664, Note_on_c, 1, 52, 127
1, 18664, Note_on_c, 1, 78, 127
1, 18690, Note_off_c, 1, 52, 0
1, 18694, Note_on_c, 1, 51, 127
1, 18716, Note_off_c, 1, 78, 0
1, 18720, Note_off_c, 1, 51, 0
1, 18724, Note_on_c, 1, 76, 127
1, 18724, Note_on_c, 1, 49, 127
1, 18750, Note_off_c, 1, 76, 0
1, 18754, Note_on_c, 1, 73, 127
1, 18776, Note_off_c, 1, 49, 0
1, 18780, Note_off_c, 1, 73, 0
1, 18784, Note_on_c, 1, 68, 127
1, 18784, Note_on_c, 1, 59, 127
1, 18810, Note_off_c, 1, 68, 0
1, 18814, Note_on_c, 1, 64, 127
1, 18836, Note_off_c, 1, 59, 0
1, 18840, Note_off_c, 1, 64, 0
1, 18844, Note_on_c, 1, 66, 127
1, 18844, Note_on_c, 1, 58, 127
1, 18870, Note_off_c, 1, 66, 0
1, 18874, Note_on_c, 1, 76, 127
1, 18896, Note_off_c, 1, 58, 0
1, 18900, Note_off_c, 1, 76, 0
1, 18904, Note_on_c, 1, 75, 127
1, 18904, Note_on_c, 1, 54, 127
1, 18930, Note_off_c, 1, 75, 0
1, 18934, Note_on_c, 1, 73, 127
1, 18956, Note_off_c, 1, 54, 0
1, 18960, Note_off_c, 1, 73, 0
1, 18964, Note_on_c, 1, 75, 127
1, 18964, Note_on_c, 1, 47, 127
1, 18990, Note_off_c, 1, 75, 0
1, 18994, Note_on_c, 1, 71, 127
1, 19016, Note_off_c, 1, 47, 0
1, 19020, Note_off_c, 1, 71, 0
1, 19024, Note_on_c, 1, 70, 127
1, 19024, Note_on_c, 1, 51, 127
1, 19050, Note_off_c, 1, 70, 0
1, 19054, Note_on_c, 1, 68, 127
1, 19076, Note_off_c, 1, 51, 0
1, 19080, Note_off_c, 1, 68, 0
1, 19084, Note_on_c, 1, 70, 127
1, 19084, Note_on_c, 1, 53, 127
1, 19110, Note_off_c, 1, 70, 0
1, 19114, Note_on_c, 1, 68, 127
1, 19136, Note_off_c, 1, 53, 0
1, 19140, Note_off_c, 1, 68, 0
1, 19144, Note_on_c, 1, 66, 127
1, 19144, Note_on_c, 1, 56, 127
1, 19170, Note_off_c, 1, 66, 0
1, 19174, Note_on_c, 1, 65, 127
1, 19196, Note_off_c, 1, 56, 0
1, 19200, Note_off_c, 1, 65, 0
1, 19204, Note_on_c, 1, 73, 127
1, 19204, Note_on_c, 1, 46, 127
1, 19230, Note_off_c, 1, 73, 0
1, 19234, Note_on_c, 1, 70, 127
1, 19256, Note_off_c, 1, 46, 0
1, 19260, Note_off_c, 1, 70, 0
1, 19264, Note_on_c, 1, 68, 127
1, 19264, Note_on_c, 1, 49, 127
1, 19290, Note_off_c, 1, 68, 0
1, 19294, Note_on_c, 1, 66, 127
1, 19316, Note_off_c, 1, 49, 0
1, 19320, Note_off_c, 1, 66, 0
1, 19324, Note_on_c, 1, 68, 127
1, 19324, Note_on_c, 1, 51, 127
1, 19350, Note_off_c, 1, 68, 0
1, 19354, Note_on_c, 1, 66, 127
1, 19376, Note_off_c, 1, 51, 0
1, 19380, Note_off_c, 1, 66, 0
1, 19384, Note_on_c, 1, 65, 127
1, 19384, Note_on_c, 1, 54, 127
1, 19410, Note_off_c, 1, 65, 0
1, 19414, Note_on_c, 1, 63, 127
1, 19436, Note_off_c, 1, 54, 0
1, 19440, Note_off_c, 1, 63, 0
1, 19444, Note_on_c, 1, 71, 127
1, 19444, Note_on_c, 1, 44, 127
1, 19470, Note_off_c, 1, 71, 0
1, 19474, Note_on_c, 1, 68, 127
1, 19496, Note_off_c, 1, 44, 0
1, 19500, Note_off_c, 1, 68, 0
1, 19504, Note_on_c, 1, 66, 127
1, 19504, Note_on_c, 1, 47, 127
1, 19530, Note_off_c, 1, 66, 0
1, 19534, Note_on_c, 1, 65, 127
1, 19556, Note_off_c, 1, 47, 0
1, 19560, Note_off_c, 1, 65, 0
1, 19564, Note_on_c, 1, 66, 127
1, 19564, Note_on_c, 1, 49, 127
1, 19590, Note_off_c, 1, 66, 0
1, 19594, Note_on_c, 1, 65, 127
1, 19616, Note_off_c, 1, 49, 0
1, 19620, Note_off_c, 1, 65, 0
1, 19624, Note_on_c, 1, 63, 127
1, 19624, Note_on_c, 1, 53, 127
1, 19650, Note_off_c, 1, 63, 0
1, 19654, Note_on_c, 1, 61, 127
1, 19676, Note_off_c, 1, 53, 0
1, 19680, Note_off_c, 1, 61, 0
1, 19684, Note_on_c, 1, 42, 127
1, 19684, Note_on_c, 1, 70, 127
1, 19710, Note_off_c, 1, 42, 0
1, 19710, Note_off_c, 1, 70, 0
1, 19714, Note_on_c, 1, 44, 127
1, 19714, Note_on_c, 1, 68, 127
1, 19740, Note_off_c, 1, 44, 0
1, 19740, Note_off_c, 1, 68, 0
1, 19744, Note_on_c, 1, 46, 127
1, 19744, Note_on_c, 1, 66, 127
1, 19770, Note_off_c, 1, 46, 0
1, 19770, Note_off_c, 1, 66, 0
1, 19774, Note_on_c, 1, 47, 127
1, 19774, Note_on_c, 1, 68, 127
1, 19800, Note_off_c, 1, 47, 0
1, 19800, Note_off_c, 1, 68, 0
1, 19804, Note_on_c, 1, 49, 127
1, 19804, Note_on_c, 1, 70, 127
1, 19830, Note_off_c, 1, 49, 0
1, 19834, Note_on_c, 1, 51, 127
1, 19856, Note_off_c, 1, 70, 0
1, 19860, Note_off_c, 1, 51, 0
1, 19864, Note_on_c, 1, 52, 127
1, 19864, Note_on_c, 1, 61, 127
1, 19890, Note_off_c, 1, 52, 0
1, 19894, Note_on_c, 1, 49, 127
1, 19916, Note_off_c, 1, 61, 0
1, 19920, Note_off_c, 1, 49, 0
1, 19924, Note_on_c, 1, 59, 127
1, 19924, Note_on_c, 1, 51, 127
1, 19950, Note_off_c, 1, 59, 0
1, 19954, Note_on_c, 1, 61, 127
1, 19976, Note_off_c, 1, 51, 0
1, 19980, Note_off_c, 1, 61, 0
1, 19984, Note_on_c, 1, 63, 127
1, 19984, Note_on_c, 1, 54, 127
1, 20010, Note_off_c, 1, 63, 0
1, 20014, Note_on_c, 1, 64, 127
1, 20036, Note_off_c, 1, 54, 0
1, 20040, Note_off_c, 1, 64, 0
1, 20044, Note_on_c, 1, 66, 127
1, 20044, Note_on_c, 1, 51, 127
1, 20070, Note_off_c, 1, 66, 0
1, 20074, Note_on_c, 1, 68, 127
1, 20096, Note_off_c, 1, 51, 0
1, 20100, Note_off_c, 1, 68, 0
1, 20104, Note_on_c, 1, 69, 127
1, 20104, Note_on_c, 1, 47, 127
1, 20130, Note_off_c, 1, 69, 0
1, 20134, Note_on_c, 1, 66, 127
1, 20156, Note_off_c, 1, 47, 0
1, 20160, Note_off_c, 1, 66, 0
1, 20164, Note_on_c, 1, 68, 127
1, 20164, Note_on_c, 1, 52, 127
1, 20190, Note_off_c, 1, 68, 0
1, 20194, Note_on_c, 1, 69, 127
1, 20216, Note_off_c, 1, 52, 0
1, 20220, Note_off_c, 1, 69, 0
1, 20224, Note_on_c, 1, 68, 127
1, 20224, Note_on_c, 1, 40, 127
1, 20250, Note_off_c, 1, 68, 0
1, 20254, Note_on_c, 1, 66, 127
1, 20276, Note_off_c, 1, 40, 0
1, 20280, Note_off_c, 1, 66, 0
1, 20284, Note_on_c, 1, 52, 127
1, 20284, Note_on_c, 1, 64, 127
1, 20296, Note_on_c, 1, 51, 127
1, 20307, Note_off_c, 1, 52, 0
1, 20310, Note_off_c, 1, 64, 0
1, 20314, Note_on_c, 1, 63, 127
1, 20319, Note_off_c, 1, 51, 0
1, 20340, Note_off_c, 1, 63, 0
1, 20344, Note_on_c, 1, 61, 127
1, 20370, Note_off_c, 1, 61, 0
1, 20374, Note_on_c, 1, 59, 127
1, 20400, Note_off_c, 1, 59, 0
1, 20404, Note_on_c, 1, 58, 127
1, 20430, Note_off_c, 1, 58, 0
1, 20434, Note_on_c, 1, 66, 127
1, 20460, Note_off_c, 1, 66, 0
1, 20464, Note_on_c, 1, 59, 127
1, 20464, Note_on_c, 1, 51, 127
1, 20490, Note_off_c, 1, 59, 0
1, 20494, Note_on_c, 1, 66, 127
1, 20516, Note_off_c, 1, 51, 0
1, 20520, Note_off_c, 1, 66, 0
1, 20524, Note_on_c, 1, 64, 127
1, 20524, Note_on_c, 1, 49, 127
1, 20550, Note_off_c, 1, 64, 0
1, 20554, Note_on_c, 1, 59, 127
1, 20576, Note_off_c, 1, 49, 0
1, 20580, Note_off_c, 1, 59, 0
1, 20584, Note_on_c, 1, 58, 127
1, 20584, Note_on_c, 1, 54, 127
1, 20610, Note_off_c, 1, 58, 0
1, 20614, Note_on_c, 1, 64, 127
1, 20636, Note_off_c, 1, 54, 0
1, 20640, Note_off_c, 1, 64, 0
1, 20644, Note_on_c, 1, 63, 127
1, 20644, Note_on_c, 1, 47, 127
1, 20670, Note_off_c, 1, 63, 0
1, 20674, Note_on_c, 1, 61, 127
1, 20696, Note_off_c, 1, 47, 0
1, 20700, Note_off_c, 1, 61, 0
1, 20704, Note_on_c, 1, 59, 127
1, 20704, Note_on_c, 1, 49, 127
1, 20730, Note_off_c, 1, 59, 0
1, 20734, Note_on_c, 1, 58, 127
1, 20756, Note_off_c, 1, 49, 0
1, 20760, Note_off_c, 1, 58, 0
1, 20764, Note_on_c, 1, 59, 127
1, 20764, Note_on_c, 1, 51, 127
1, 20790, Note_off_c, 1, 59, 0
1, 20794, Note_on_c, 1, 63, 127
1, 20816, Note_off_c, 1, 51, 0
1, 20820, Note_off_c, 1, 63, 0
1, 20824, Note_on_c, 1, 66, 127
1, 20824, Note_on_c, 1, 47, 127
1, 20850, Note_off_c, 1, 66, 0
1, 20854, Note_on_c, 1, 57, 127
1, 20876, Note_off_c, 1, 47, 0
1, 20880, Note_off_c, 1, 57, 0
1, 20884, Note_on_c, 1, 56, 127
1, 20884, Note_on_c, 1, 40, 127
1, 20910, Note_off_c, 1, 56, 0
1, 20914, Note_on_c, 1, 66, 127
1, 20936, Note_off_c, 1, 40, 0
1, 20940, Note_off_c, 1, 66, 0
1, 20944, Note_on_c, 1, 64, 127
1, 20944, Note_on_c, 1, 44, 127
1, 20970, Note_off_c, 1, 64, 0
1, 20974, Note_on_c, 1, 63, 127
1, 20996, Note_off_c, 1, 44, 0
1, 21000, Note_off_c, 1, 63, 0
1, 21004, Note_on_c, 1, 61, 127
1, 21004, Note_on_c, 1, 40, 127
1, 21030, Note_off_c, 1, 61, 0
1, 21034, Note_on_c, 1, 63, 127
1, 21056, Note_off_c, 1, 40, 0
1, 21060, Note_off_c, 1, 63, 0
1, 21064, Note_on_c, 1, 64, 127
1, 21064, Note_on_c, 1, 37, 127
1, 21090, Note_off_c, 1, 64, 0
1, 21094, Note_on_c, 1, 59, 127
1, 21116, Note_off_c, 1, 37, 0
1, 21120, Note_off_c, 1, 59, 0
1, 21124, Note_on_c, 1, 58, 127
1, 21124, Note_on_c, 1, 42, 127
1, 21150, Note_off_c, 1, 58, 0
1, 21154, Note_on_c, 1, 59, 127
1, 21176, Note_off_c, 1, 42, 0
1, 21180, Note_off_c, 1, 59, 0
1, 21184, Note_on_c, 1, 61, 127
1, 21184, Note_on_c, 1, 40, 127
1, 21210, Note_off_c, 1, 61, 0
1, 21214, Note_on_c, 1, 56, 127
1, 21236, Note_off_c, 1, 40, 0
1, 21240, Note_off_c, 1, 56, 0
1, 21244, Note_on_c, 1, 54, 127
1, 21244, Note_on_c, 1, 39, 127
1, 21270, Note_off_c, 1, 54, 0
1, 21274, Note_on_c, 1, 52, 127
1, 21296, Note_off_c, 1, 39, 0
1, 21300, Note_off_c, 1, 52, 0
1, 21304, Note_on_c, 1, 51, 127
1, 21304, Note_on_c, 1, 46, 127
1, 21330, Note_off_c, 1, 51, 0
1, 21334, Note_on_c, 1, 49, 127
1, 21356, Note_off_c, 1, 46, 0
1, 21360, Note_off_c, 1, 49, 0
1, 21364, Note_on_c, 1, 51, 127
1, 21364, Note_on_c, 1, 47, 127
1, 21390, Note_off_c, 1, 51, 0
1, 21394, Note_on_c, 1, 54, 127
1, 21416, Note_off_c, 1, 47, 0
1, 21420, Note_off_c, 1, 54, 0
1, 21424, Note_on_c, 1, 59, 127
1, 21424, Note_on_c, 1, 44, 127
1, 21450, Note_off_c, 1, 59, 0
1, 21454, Note_on_c, 1, 51, 127
1, 21476, Note_off_c, 1, 44, 0
1, 21480, Note_off_c, 1, 51, 0
1, 21484, Note_on_c, 1, 49, 127
1, 21484, Note_on_c, 1, 40, 127
1, 21510, Note_off_c, 1, 49, 0
1, 21514, Note_on_c, 1, 59, 127
1, 21536, Note_off_c, 1, 40, 0
1, 21540, Note_off_c, 1, 59, 0
1, 21544, Note_on_c, 1, 52, 127
1, 21544, Note_on_c, 1, 42, 127
1, 21570, Note_off_c, 1, 52, 0
1, 21574, Note_on_c, 1, 58, 127
1, 21596, Note_off_c, 1, 42, 0
1, 21600, Note_off_c, 1, 58, 0
1, 21604, Note_on_c, 1, 35, 127
1, 21612, Note_on_c, 1, 47, 127
1, 21620, Note_on_c, 1, 51, 127
1, 21628, Note_on_c, 1, 54, 127
1, 21636, Note_on_c, 1, 59, 127
1, 21651, Note_off_c, 1, 47, 0
1, 21655, Note_off_c, 1, 51, 0
1, 21656, Note_off_c, 1, 35, 0
1, 21659, Note_off_c, 1, 54, 0
1, 21667, Note_off_c, 1, 59, 0
1, 21667, End_track
0, 0, End_of_file