0, 0, Header, 1, 1, 480
1, 0, Start_track
1, 0, Title_t, "Test"
1, 0, Tempo, 500000
1, 0, Instrument_name_t, "Church Organ"
1, 6, Note_on_c, 1, 68, 127
1, 6, Note_on_c, 1, 59, 127
1, 6, Note_on_c, 1, 56, 127
1, 6, Note_on_c, 1, 63, 127
1, 32, Note_off_c, 1, 68, 0
1, 36, Note_on_c, 1, 70, 127
1, 62, Note_off_c, 1, 70, 0
1, 66, Note_on_c, 1, 71, 127
1, 92, Note_off_c, 1, 71, 0
1, 96, Note_on_c, 1, 73, 127
1, 111, Note_off_c, 1, 59, 0
1, 111, Note_off_c, 1, 56, 0
1, 111, Note_off_c, 1, 63, 0
1, 122, Note_off_c, 1, 73, 0
1, 126, Note_on_c, 1, 75, 127
1, 152, Note_off_c, 1, 75, 0
1, 156, Note_on_c, 1, 71, 127
1, 182, Note_off_c, 1, 71, 0
1, 186, Note_on_c, 1, 70, 127
1, 212, Note_off_c, 1, 70, 0
1, 216, Note_on_c, 1, 68, 127
1, 242, Note_off_c, 1, 68, 0
1, 246, Note_on_c, 1, 67, 127
1, 246, Note_on_c, 1, 58, 127
1, 246, Note_on_c, 1, 56, 127
1, 246, Note_on_c, 1, 61, 127
1, 272, Note_off_c, 1, 67, 0
1, 276, Note_on_c, 1, 68, 127
1, 302, Note_off_c, 1, 68, 0
1, 306, Note_on_c, 1, 70, 127
1, 332, Note_off_c, 1, 70, 0
1, 336, Note_on_c, 1, 64, 127
1, 351, Note_off_c, 1, 58, 0
1, 351, Note_off_c, 1, 56, 0
1, 351, Note_off_c, 1, 61, 0
1, 362, Note_off_c, 1, 64, 0
1, 366, Note_on_c, 1, 63, 127
1, 392, Note_off_c, 1, 63, 0
1, 396, Note_on_c, 1, 61, 127
1, 422, Note_off_c, 1, 61, 0
1, 426, Note_on_c, 1, 59, 127
1, 452, Note_off_c, 1, 59, 0
1, 456, Note_on_c, 1, 58, 127
1, 482, Note_off_c, 1, 58, 0
1, 486, Note_on_c, 1, 56, 127
1, 512, Note_off_c, 1, 56, 0
1, 516, Note_on_c, 1, 63, 127
1, 542, Note_off_c, 1, 63, 0
1, 546, Note_on_c, 1, 56, 127
1, 546, Note_on_c, 1, 68, 127
1, 546, Note_on_c, 1, 71, 127
1, 572, Note_off_c, 1, 56, 0
1, 576, Note_on_c, 1, 63, 127
1, 598, Note_off_c, 1, 68, 0
1, 598, Note_off_c, 1, 71, 0
1, 602, Note_off_c, 1, 63, 0
1, 606, Note_on_c, 1, 55, 127
1, 608, Note_on_c, 1, 71, 127
1, 608, Note_on_c, 1, 68, 127
1, 632, Note_off_c, 1, 55, 0
1, 636, Note_on_c, 1, 63, 127
1, 662, Note_off_c, 1, 63, 0
1, 668, Note_on_c, 1, 70, 127
1, 668, Note_on_c, 1, 73, 127
1, 673, Note_off_c, 1, 71, 0
1, 673, Note_off_c, 1, 68, 0
1, 699, Note_off_c, 1, 70, 0
1, 699, Note_off_c, 1, 73, 0
1, 726, Note_on_c, 1, 56, 127
1, 752, Note_off_c, 1, 56, 0
1, 756, Note_on_c, 1, 63, 127
1, 782, Note_off_c, 1, 63, 0
1, 786, Note_on_c, 1, 56, 127
1, 786, Note_on_c, 1, 68, 127
1, 786, Note_on_c, 1, 71, 127
1, 812, Note_off_c, 1, 56, 0
1, 816, Note_on_c, 1, 63, 127
1, 838, Note_off_c, 1, 68, 0
1, 838, Note_off_c, 1, 71, 0
1, 842, Note_off_c, 1, 63, 0
1, 846, Note_on_c, 1, 51, 127
1, 848, Note_on_c, 1, 71, 127
1, 848, Note_on_c, 1, 68, 127
1, 872, Note_off_c, 1, 51, 0
1, 876, Note_on_c, 1, 63, 127
1, 902, Note_off_c, 1, 63, 0
1, 906, Note_on_c, 1, 67, 127
1, 906, Note_on_c, 1, 70, 127
1, 913, Note_off_c, 1, 71, 0
1, 913, Note_off_c, 1, 68, 0
1, 949, Note_off_c, 1, 67, 0
1, 949, Note_off_c, 1, 70, 0
1, 966, Note_on_c, 1, 68, 127
1, 966, Note_on_c, 1, 59, 127
1, 966, Note_on_c, 1, 56, 127
1, 966, Note_on_c, 1, 63, 127
1, 992, Note_off_c, 1, 68, 0
1, 996, Note_on_c, 1, 70, 127
1, 1022, Note_off_c, 1, 70, 0
1, 1026, Note_on_c, 1, 71, 127
1, 1052, Note_off_c, 1, 71, 0
1, 1056, Note_on_c, 1, 73, 127
1, 1071, Note_off_c, 1, 59, 0
1, 1071, Note_off_c, 1, 56, 0
1, 1071, Note_off_c, 1, 63, 0
1, 1082, Note_off_c, 1, 73, 0
1, 1086, Note_on_c, 1, 75, 127
1, 1112, Note_off_c, 1, 75, 0
1, 1116, Note_on_c, 1, 71, 127
1, 1142, Note_off_c, 1, 71, 0
1, 1146, Note_on_c, 1, 70, 127
1, 1172, Note_off_c, 1, 70, 0
1, 1176, Note_on_c, 1, 68, 127
1, 1202, Note_off_c, 1, 68, 0
1, 1206, Note_on_c, 1, 67, 127
1, 1206, Note_on_c, 1, 58, 127
1, 1206, Note_on_c, 1, 56, 127
1, 1206, Note_on_c, 1, 61, 127
1, 1232, Note_off_c, 1, 67, 0
1, 1236, Note_on_c, 1, 68, 127
1, 1262, Note_off_c, 1, 68, 0
1, 1266, Note_on_c, 1, 70, 127
1, 1292, Note_off_c, 1, 70, 0
1, 1296, Note_on_c, 1, 64, 127
1, 1311, Note_off_c, 1, 58, 0
1, 1311, Note_off_c, 1, 56, 0
1, 1311, Note_off_c, 1, 61, 0
1, 1322, Note_off_c, 1, 64, 0
1, 1326, Note_on_c, 1, 63, 127
1, 1352, Note_off_c, 1, 63, 0
1, 1356, Note_on_c, 1, 61, 127
1, 1382, Note_off_c, 1, 61, 0
1, 1386, Note_on_c, 1, 59, 127
1, 1412, Note_off_c, 1, 59, 0
1, 1416, Note_on_c, 1, 58, 127
1, 1442, Note_off_c, 1, 58, 0
1, 1446, Note_on_c, 1, 56, 127
1, 1472, Note_off_c, 1, 56, 0
1, 1476, Note_on_c, 1, 63, 127
1, 1502, Note_off_c, 1, 63, 0
1, 1506, Note_on_c, 1, 56, 127
1, 1506, Note_on_c, 1, 71, 127
1, 1506, Note_on_c, 1, 80, 127
1, 1532, Note_off_c, 1, 56, 0
1, 1536, Note_on_c, 1, 63, 127
1, 1558, Note_off_c, 1, 71, 0
1, 1558, Note_off_c, 1, 80, 0
1, 1562, Note_off_c, 1, 63, 0
1, 1566, Note_on_c, 1, 55, 127
1, 1566, Note_on_c, 1, 80, 127
1, 1566, Note_on_c, 1, 71, 127
1, 1592, Note_off_c, 1, 55, 0
1, 1596, Note_on_c, 1, 63, 127
1, 1622, Note_off_c, 1, 63, 0
1, 1625, Note_off_c, 1, 80, 0
1, 1625, Note_off_c, 1, 71, 0
1, 1626, Note_on_c, 1, 55, 127
1, 1626, Note_on_c, 1, 73, 127
1, 1626, Note_on_c, 1, 82, 127
1, 1652, Note_off_c, 1, 55, 0
1, 1656, Note_on_c, 1, 63, 127
1, 1682, Note_off_c, 1, 63, 0
1, 1685, Note_off_c, 1, 73, 0
1, 1685, Note_off_c, 1, 82, 0
1, 1686, Note_on_c, 1, 56, 127
1, 1712, Note_off_c, 1, 56, 0
1, 1716, Note_on_c, 1, 63, 127
1, 1742, Note_off_c, 1, 63, 0
1, 1746, Note_on_c, 1, 56, 127
1, 1746, Note_on_c, 1, 71, 127
1, 1746, Note_on_c, 1, 80, 127
1, 1772, Note_off_c, 1, 56, 0
1, 1776, Note_on_c, 1, 63, 127
1, 1798, Note_off_c, 1, 71, 0
1, 1798, Note_off_c, 1, 80, 0
1, 1802, Note_off_c, 1, 63, 0
1, 1806, Note_on_c, 1, 51, 127
1, 1806, Note_on_c, 1, 71, 127
1, 1806, Note_on_c, 1, 80, 127
1, 1832, Note_off_c, 1, 51, 0
1, 1836, Note_on_c, 1, 63, 127
1, 1862, Note_off_c, 1, 63, 0
1, 1865, Note_off_c, 1, 71, 0
1, 1865, Note_off_c, 1, 80, 0
1, 1866, Note_on_c, 1, 51, 127
1, 1866, Note_on_c, 1, 79, 127
1, 1866, Note_on_c, 1, 70, 127
1, 1892, Note_off_c, 1, 51, 0
1, 1896, Note_on_c, 1, 63, 127
1, 1922, Note_off_c, 1, 63, 0
1, 1925, Note_off_c, 1, 79, 0
1, 1925, Note_off_c, 1, 70, 0
1, 1926, Note_on_c, 1, 56, 127
1, 1952, Note_off_c, 1, 56, 0
1, 1956, Note_on_c, 1, 63, 127
1, 1982, Note_off_c, 1, 63, 0
1, 1986, Note_on_c, 1, 56, 127
1, 1986, Note_on_c, 1, 68, 127
1, 1986, Note_on_c, 1, 71, 127
1, 2012, Note_off_c, 1, 56, 0
1, 2012, Note_off_c, 1, 68, 0
1, 2012, Note_off_c, 1, 71, 0
1, 2016, Note_on_c, 1, 63, 127
1, 2016, Note_on_c, 1, 67, 127
1, 2016, Note_on_c, 1, 70, 127
1, 2042, Note_off_c, 1, 63, 0
1, 2042, Note_off_c, 1, 67, 0
1, 2042, Note_off_c, 1, 70, 0
1, 2046, Note_on_c, 1, 54, 127
1, 2046, Note_on_c, 1, 68, 127
1, 2046, Note_on_c, 1, 71, 127
1, 2072, Note_off_c, 1, 54, 0
1, 2076, Note_on_c, 1, 63, 127
1, 2098, Note_off_c, 1, 68, 0
1, 2098, Note_off_c, 1, 71, 0
1, 2102, Note_off_c, 1, 63, 0
1, 2106, Note_on_c, 1, 54, 127
1, 2106, Note_on_c, 1, 71, 127
1, 2106, Note_on_c, 1, 80, 127
1, 2132, Note_off_c, 1, 54, 0
1, 2136, Note_on_c, 1, 63, 127
1, 2158, Note_off_c, 1, 71, 0
1, 2158, Note_off_c, 1, 80, 0
1, 2162, Note_off_c, 1, 63, 0
1, 2166, Note_on_c, 1, 53, 127
1, 2192, Note_off_c, 1, 53, 0
1, 2196, Note_on_c, 1, 61, 127
1, 2222, Note_off_c, 1, 61, 0
1, 2226, Note_on_c, 1, 53, 127
1, 2226, Note_on_c, 1, 68, 127
1, 2226, Note_on_c, 1, 71, 127
1, 2252, Note_off_c, 1, 53, 0
1, 2256, Note_on_c, 1, 61, 127
1, 2278, Note_off_c, 1, 68, 0
1, 2278, Note_off_c, 1, 71, 0
1, 2282, Note_off_c, 1, 61, 0
1, 2286, Note_on_c, 1, 49, 127
1, 2312, Note_off_c, 1, 49, 0
1, 2316, Note_on_c, 1, 61, 127
1, 2342, Note_off_c, 1, 61, 0
1, 2346, Note_on_c, 1, 49, 127
1, 2346, Note_on_c, 1, 70, 127
1, 2346, Note_on_c, 1, 65, 127
1, 2372, Note_off_c, 1, 49, 0
1, 2372, Note_off_c, 1, 70, 0
1, 2376, Note_on_c, 1, 61, 127
1, 2376, Note_on_c, 1, 68, 127
1, 2398, Note_off_c, 1, 65, 0
1, 2402, Note_off_c, 1, 61, 0
1, 2402, Note_off_c, 1, 68, 0
1, 2406, Note_on_c, 1, 54, 127
1, 2432, Note_off_c, 1, 54, 0
1, 2436, Note_on_c, 1, 61, 127
1, 2462, Note_off_c, 1, 61, 0
1, 2466, Note_on_c, 1, 54, 127
1, 2466, Note_on_c, 1, 66, 127
1, 2466, Note_on_c, 1, 70, 127
1, 2492, Note_off_c, 1, 54, 0
1, 2492, Note_off_c, 1, 66, 0
1, 2492, Note_off_c, 1, 70, 0
1, 2496, Note_on_c, 1, 61, 127
1, 2496, Note_on_c, 1, 65, 127
1, 2496, Note_on_c, 1, 68, 127
1, 2522, Note_off_c, 1, 61, 0
1, 2522, Note_off_c, 1, 65, 0
1, 2522, Note_off_c, 1, 68, 0
1, 2526, Note_on_c, 1, 52, 127
1, 2526, Note_on_c, 1, 66, 127
1, 2526, Note_on_c, 1, 70, 127
1, 2552, Note_off_c, 1, 52, 0
1, 2556, Note_on_c, 1, 61, 127
1, 2578, Note_off_c, 1, 66, 0
1, 2578, Note_off_c, 1, 70, 0
1, 2582, Note_off_c, 1, 61, 0
1, 2586, Note_on_c, 1, 52, 127
1, 2586, Note_on_c, 1, 70, 127
1, 2586, Note_on_c, 1, 78, 127
1, 2612, Note_off_c, 1, 52, 0
1, 2616, Note_on_c, 1, 61, 127
1, 2638, Note_off_c, 1, 70, 0
1, 2638, Note_off_c, 1, 78, 0
1, 2642, Note_off_c, 1, 61, 0
1, 2646, Note_on_c, 1, 51, 127
1, 2672, Note_off_c, 1, 51, 0
1, 2676, Note_on_c, 1, 59, 127
1, 2702, Note_off_c, 1, 59, 0
1, 2706, Note_on_c, 1, 51, 127
1, 2706, Note_on_c, 1, 66, 127
1, 2706, Note_on_c, 1, 70, 127
1, 2732, Note_off_c, 1, 51, 0
1, 2736, Note_on_c, 1, 59, 127
1, 2758, Note_off_c, 1, 66, 0
1, 2758, Note_off_c, 1, 70, 0
1, 2762, Note_off_c, 1, 59, 0
1, 2766, Note_on_c, 1, 47, 127
1, 2792, Note_off_c, 1, 47, 0
1, 2796, Note_on_c, 1, 59, 127
1, 2822, Note_off_c, 1, 59, 0
1, 2826, Note_on_c, 1, 47, 127
1, 2826, Note_on_c, 1, 68, 127
1, 2826, Note_on_c, 1, 63, 127
1, 2852, Note_off_c, 1, 47, 0
1, 2852, Note_off_c, 1, 68, 0
1, 2856, Note_on_c, 1, 59, 127
1, 2856, Note_on_c, 1, 66, 127
1, 2878, Note_off_c, 1, 63, 0
1, 2882, Note_off_c, 1, 59, 0
1, 2882, Note_off_c, 1, 66, 0
1, 2886, Note_on_c, 1, 53, 127
1, 2912, Note_off_c, 1, 53, 0
1, 2916, Note_on_c, 1, 59, 127
1, 2942, Note_off_c, 1, 59, 0
1, 2946, Note_on_c, 1, 53, 127
1, 2946, Note_on_c, 1, 62, 127
1, 2946, Note_on_c, 1, 68, 127
1, 2972, Note_off_c, 1, 53, 0
1, 2972, Note_off_c, 1, 62, 0
1, 2972, Note_off_c, 1, 68, 0
1, 2976, Note_on_c, 1, 59, 127
1, 2976, Note_on_c, 1, 63, 127
1, 2976, Note_on_c, 1, 66, 127
1, 3002, Note_off_c, 1, 59, 0
1, 3002, Note_off_c, 1, 63, 0
1, 3002, Note_off_c, 1, 66, 0
1, 3006, Note_on_c, 1, 51, 127
1, 3006, Note_on_c, 1, 65, 127
1, 3006, Note_on_c, 1, 68, 127
1, 3032, Note_off_c, 1, 51, 0
1, 3036, Note_on_c, 1, 59, 127
1, 3058, Note_off_c, 1, 65, 0
1, 3058, Note_off_c, 1, 68, 0
1, 3062, Note_off_c, 1, 59, 0
1, 3066, Note_on_c, 1, 51, 127
1, 3066, Note_on_c, 1, 68, 127
1, 3066, Note_on_c, 1, 77, 127
1, 3092, Note_off_c, 1, 51, 0
1, 3096, Note_on_c, 1, 59, 127
1, 3118, Note_off_c, 1, 68, 0
1, 3118, Note_off_c, 1, 77, 0
1, 3122, Note_off_c, 1, 59, 0
1, 3126, Note_on_c, 1, 50, 127
1, 3152, Note_off_c, 1, 50, 0
1, 3156, Note_on_c, 1, 58, 127
1, 3182, Note_off_c, 1, 58, 0
1, 3186, Note_on_c, 1, 50, 127
1, 3186, Note_on_c, 1, 65, 127
1, 3186, Note_on_c, 1, 68, 127
1, 3212, Note_off_c, 1, 50, 0
1, 3216, Note_on_c, 1, 58, 127
1, 3238, Note_off_c, 1, 65, 0
1, 3238, Note_off_c, 1, 68, 0
1, 3242, Note_off_c, 1, 58, 0
1, 3246, Note_on_c, 1, 46, 127
1, 3272, Note_off_c, 1, 46, 0
1, 3276, Note_on_c, 1, 58, 127
1, 3302, Note_off_c, 1, 58, 0
1, 3306, Note_on_c, 1, 46, 127
1, 3306, Note_on_c, 1, 66, 127
1, 3306, Note_on_c, 1, 62, 127
1, 3332, Note_off_c, 1, 46, 0
1, 3332, Note_off_c, 1, 66, 0
1, 3336, Note_on_c, 1, 58, 127
1, 3336, Note_on_c, 1, 65, 127
1, 3358, Note_off_c, 1, 62, 0
1, 3362, Note_off_c, 1, 58, 0
1, 3362, Note_off_c, 1, 65, 0
1, 3366, Note_on_c, 1, 51, 127
1, 3366, Note_on_c, 1, 63, 127
1, 3366, Note_on_c, 1, 66, 127
1, 3392, Note_off_c, 1, 51, 0
1, 3396, Note_on_c, 1, 54, 127
1, 3422, Note_off_c, 1, 54, 0
1, 3426, Note_on_c, 1, 56, 127
1, 3452, Note_off_c, 1, 56, 0
1, 3456, Note_on_c, 1, 58, 127
1, 3471, Note_off_c, 1, 63, 0
1, 3471, Note_off_c, 1, 66, 0
1, 3482, Note_off_c, 1, 58, 0
1, 3486, Note_on_c, 1, 59, 127
1, 3516, Note_on_c, 1, 70, 127
1, 3538, Note_off_c, 1, 59, 0
1, 3542, Note_off_c, 1, 70, 0
1, 3546, Note_on_c, 1, 68, 127
1, 3546, Note_on_c, 1, 51, 127
1, 3572, Note_off_c, 1, 68, 0
1, 3576, Note_on_c, 1, 66, 127
1, 3598, Note_off_c, 1, 51, 0
1, 3602, Note_off_c, 1, 66, 0
1, 3606, Note_on_c, 1, 65, 127
1, 3606, Note_on_c, 1, 50, 127
1, 3632, Note_off_c, 1, 65, 0
1, 3636, Note_on_c, 1, 63, 127
1, 3658, Note_off_c, 1, 50, 0
1, 3662, Note_off_c, 1, 63, 0
1, 3666, Note_on_c, 1, 65, 127
1, 3666, Note_on_c, 1, 59, 127
1, 3692, Note_off_c, 1, 65, 0
1, 3696, Note_on_c, 1, 68, 127
1, 3718, Note_off_c, 1, 59, 0
1, 3722, Note_off_c, 1, 68, 0
1, 3726, Note_on_c, 1, 67, 127
1, 3726, Note_on_c, 1, 58, 127
1, 3752, Note_off_c, 1, 67, 0
1, 3756, Note_on_c, 1, 65, 127
1, 3778, Note_off_c, 1, 58, 0
1, 3782, Note_off_c, 1, 65, 0
1, 3786, Note_on_c, 1, 67, 127
1, 3786, Note_on_c, 1, 49, 127
1, 3812, Note_off_c, 1, 67, 0
1, 3816, Note_on_c, 1, 70, 127
1, 3838, Note_off_c, 1, 49, 0
1, 3842, Note_off_c, 1, 70, 0
1, 3846, Note_on_c, 1, 48, 127
1, 3846, Note_on_c, 1, 70, 127
1, 3872, Note_off_c, 1, 48, 0
1, 3876, Note_on_c, 1, 51, 127
1, 3898, Note_off_c, 1, 70, 0
1, 3902, Note_off_c, 1, 51, 0
1, 3906, Note_on_c, 1, 53, 127
1, 3906, Note_on_c, 1, 68, 127
1, 3932, Note_off_c, 1, 53, 0
1, 3936, Note_on_c, 1, 55, 127
1, 3958, Note_off_c, 1, 68, 0
1, 3962, Note_off_c, 1, 55, 0
1, 3966, Note_on_c, 1, 56, 127
1, 3996, Note_on_c, 1, 66, 127
1, 4018, Note_off_c, 1, 56, 0
1, 4022, Note_off_c, 1, 66, 0
1, 4026, Note_on_c, 1, 64, 127
1, 4026, Note_on_c, 1, 47, 127
1, 4052, Note_off_c, 1, 64, 0
1, 4056, Note_on_c, 1, 63, 127
1, 4078, Note_off_c, 1, 47, 0
1, 4082, Note_off_c, 1, 63, 0
1, 4086, Note_on_c, 1, 61, 127
1, 4086, Note_on_c, 1, 46, 127
1, 4112, Note_off_c, 1, 61, 0
1, 4116, Note_on_c, 1, 60, 127
1, 4138, Note_off_c, 1, 46, 0
1, 4142, Note_off_c, 1, 60, 0
1, 4146, Note_on_c, 1, 61, 127
1, 4146, Note_on_c, 1, 55, 127
1, 4172, Note_off_c, 1, 61, 0
1, 4176, Note_on_c, 1, 64, 127
1, 4198, Note_off_c, 1, 55, 0
1, 4202, Note_off_c, 1, 64, 0
1, 4206, Note_on_c, 1, 63, 127
1, 4206, Note_on_c, 1, 54, 127
1, 4232, Note_off_c, 1, 63, 0
1, 4236, Note_on_c, 1, 61, 127
1, 4258, Note_off_c, 1, 54, 0
1, 4262, Note_off_c, 1, 61, 0
1, 4266, Note_on_c, 1, 63, 127
1, 4266, Note_on_c, 1, 45, 127
1, 4292, Note_off_c, 1, 63, 0
1, 4296, Note_on_c, 1, 66, 127
1, 4318, Note_off_c, 1, 45, 0
1, 4322, Note_off_c, 1, 66, 0
1, 4326, Note_on_c, 1, 44, 127
1, 4326, Note_on_c, 1, 66, 127
1, 4352, Note_off_c, 1, 44, 0
1, 4356, Note_on_c, 1, 48, 127
1, 4378, Note_off_c, 1, 66, 0
1, 4382, Note_off_c, 1, 48, 0
1, 4386, Note_on_c, 1, 49, 127
1, 4386, Note_on_c, 1, 64, 127
1, 4412, Note_off_c, 1, 49, 0
1, 4416, Note_on_c, 1, 51, 127
1, 4438, Note_off_c, 1, 64, 0
1, 4442, Note_off_c, 1, 51, 0
1, 4446, Note_on_c, 1, 52, 127
1, 4476, Note_on_c, 1, 63, 127
1, 4498, Note_off_c, 1, 52, 0
1, 4502, Note_off_c, 1, 63, 0
1, 4506, Note_on_c, 1, 61, 127
1, 4506, Note_on_c, 1, 44, 127
1, 4532, Note_off_c, 1, 61, 0
1, 4536, Note_on_c, 1, 59, 127
1, 4558, Note_off_c, 1, 44, 0
1, 4562, Note_off_c, 1, 59, 0
1, 4566, Note_on_c, 1, 58, 127
1, 4566, Note_on_c, 1, 43, 127
1, 4592, Note_off_c, 1, 58, 0
1, 4596, Note_on_c, 1, 56, 127
1, 4618, Note_off_c, 1, 43, 0
1, 4622, Note_off_c, 1, 56, 0
1, 4626, Note_on_c, 1, 58, 127
1, 4626, Note_on_c, 1, 52, 127
1, 4652, Note_off_c, 1, 58, 0
1, 4656, Note_on_c, 1, 61, 127
1, 4678, Note_off_c, 1, 52, 0
1, 4682, Note_off_c, 1, 61, 0
1, 4686, Note_on_c, 1, 60, 127
1, 4686, Note_on_c, 1, 51, 127
1, 4712, Note_off_c, 1, 60, 0
1, 4716, Note_on_c, 1, 58, 127
1, 4738, Note_off_c, 1, 51, 0
1, 4742, Note_off_c, 1, 58, 0
1, 4746, Note_on_c, 1, 60, 127
1, 4746, Note_on_c, 1, 42, 127
1, 4772, Note_off_c, 1, 60, 0
1, 4776, Note_on_c, 1, 63, 127
1, 4798, Note_off_c, 1, 42, 0
1, 4802, Note_off_c, 1, 63, 0
1, 4806, Note_on_c, 1, 56, 127
1, 4806, Note_on_c, 1, 41, 127
1, 4832, Note_off_c, 1, 56, 0
1, 4836, Note_on_c, 1, 55, 127
1, 4858, Note_off_c, 1, 41, 0
1, 4862, Note_off_c, 1, 55, 0
1, 4866, Note_on_c, 1, 56, 127
1, 4866, Note_on_c, 1, 50, 127
1, 4892, Note_off_c, 1, 56, 0
1, 4896, Note_on_c, 1, 59, 127
1, 4918, Note_off_c, 1, 50, 0
1, 4922, Note_off_c, 1, 59, 0
1, 4926, Note_on_c, 1, 58, 127
1, 4926, Note_on_c, 1, 49, 127
1, 4952, Note_off_c, 1, 58, 0
1, 4956, Note_on_c, 1, 56, 127
1, 4978, Note_off_c, 1, 49, 0
1, 4982, Note_off_c, 1, 56, 0
1, 4986, Note_on_c, 1, 58, 127
1, 4986, Note_on_c, 1, 40, 127
1, 5012, Note_off_c, 1, 58, 0
1, 5016, Note_on_c, 1, 61, 127
1, 5038, Note_off_c, 1, 40, 0
1, 5042, Note_off_c, 1, 61, 0
1, 5046, Note_on_c, 1, 55, 127
1, 5046, Note_on_c, 1, 39, 127
1, 5072, Note_off_c, 1, 55, 0
1, 5076, Note_on_c, 1, 64, 127
1, 5098, Note_off_c, 1, 39, 0
1, 5102, Note_off_c, 1, 64, 0
1, 5106, Note_on_c, 1, 63, 127
1, 5106, Note_on_c, 1, 41, 127
1, 5132, Note_off_c, 1, 63, 0
1, 5136, Note_on_c, 1, 61, 127
1, 5158, Note_off_c, 1, 41, 0
1, 5162, Note_off_c, 1, 61, 0
1, 5166, Note_on_c, 1, 70, 127
1, 5166, Note_on_c, 1, 43, 127
1, 5192, Note_off_c, 1, 70, 0
1, 5196, Note_on_c, 1, 61, 127
1, 5218, Note_off_c, 1, 43, 0
1, 5222, Note_off_c, 1, 61, 0
1, 5226, Note_on_c, 1, 70, 127
1, 5226, Note_on_c, 1, 39, 127
1, 5252, Note_off_c, 1, 70, 0
1, 5256, Note_on_c, 1, 61, 127
1, 5278, Note_off_c, 1, 39, 0
1, 5282, Note_off_c, 1, 61, 0
1, 5286, Note_on_c, 1, 60, 127
1, 5286, Note_on_c, 1, 44, 127
1, 5312, Note_off_c, 1, 60, 0
1, 5316, Note_on_c, 1, 69, 127
1, 5338, Note_off_c, 1, 44, 0
1, 5342, Note_off_c, 1, 69, 0
1, 5346, Note_on_c, 1, 68, 127
1, 5346, Note_on_c, 1, 46, 127
1, 5372, Note_off_c, 1, 68, 0
1, 5376, Note_on_c, 1, 66, 127
1, 5398, Note_off_c, 1, 46, 0
1, 5402, Note_off_c, 1, 66, 0
1, 5406, Note_on_c, 1, 75, 127
1, 5406, Note_on_c, 1, 48, 127
1, 5432, Note_off_c, 1, 75, 0
1, 5436, Note_on_c, 1, 66, 127
1, 5458, Note_off_c, 1, 48, 0
1, 5462, Note_off_c, 1, 66, 0
1, 5466, Note_on_c, 1, 75, 127
1, 5466, Note_on_c, 1, 44, 127
1, 5492, Note_off_c, 1, 75, 0
1, 5496, Note_on_c, 1, 66, 127
1, 5518, Note_off_c, 1, 44, 0
1, 5522, Note_off_c, 1, 66, 0
1, 5526, Note_on_c, 1, 65, 127
1, 5526, Note_on_c, 1, 49, 127
1, 5552, Note_off_c, 1, 65, 0
1, 5556, Note_on_c, 1, 62, 127
1, 5578, Note_off_c, 1, 49, 0
1, 5582, Note_off_c, 1, 62, 0
1, 5586, Note_on_c, 1, 61, 127
1, 5586, Note_on_c, 1, 51, 127
1, 5612, Note_off_c, 1, 61, 0
1, 5616, Note_on_c, 1, 59, 127
1, 5638, Note_off_c, 1, 51, 0
1, 5642, Note_off_c, 1, 59, 0
1, 5646, Note_on_c, 1, 68, 127
1, 5646, Note_on_c, 1, 53, 127
1, 5672, Note_off_c, 1, 68, 0
1, 5676, Note_on_c, 1, 59, 127
1, 5698, Note_off_c, 1, 53, 0
1, 5702, Note_off_c, 1, 59, 0
1, 5706, Note_on_c, 1, 68, 127
1, 5706, Note_on_c, 1, 49, 127
1, 5732, Note_off_c, 1, 68, 0
1, 5736, Note_on_c, 1, 59, 127
1, 5758, Note_off_c, 1, 49, 0
1, 5762, Note_off_c, 1, 59, 0
1, 5766, Note_on_c, 1, 58, 127
1, 5766, Note_on_c, 1, 54, 127
1, 5792, Note_off_c, 1, 58, 0
1, 5796, Note_on_c, 1, 67, 127
1, 5818, Note_off_c, 1, 54, 0
1, 5822, Note_off_c, 1, 67, 0
1, 5826, Note_on_c, 1, 66, 127
1, 5826, Note_on_c, 1, 56, 127
1, 5852, Note_off_c, 1, 66, 0
1, 5856, Note_on_c, 1, 64, 127
1, 5878, Note_off_c, 1, 56, 0
1, 5882, Note_off_c, 1, 64, 0
1, 5886, Note_on_c, 1, 73, 127
1, 5886, Note_on_c, 1, 58, 127
1, 5912, Note_off_c, 1, 73, 0
1, 5916, Note_on_c, 1, 64, 127
1, 5938, Note_off_c, 1, 58, 0
1, 5942, Note_off_c, 1, 64, 0
1, 5946, Note_on_c, 1, 73, 127
1, 5946, Note_on_c, 1, 54, 127
1, 5972, Note_off_c, 1, 73, 0
1, 5976, Note_on_c, 1, 64, 127
1, 5998, Note_off_c, 1, 54, 0
1, 6002, Note_off_c, 1, 64, 0
1, 6006, Note_on_c, 1, 63, 127
1, 6006, Note_on_c, 1, 59, 127
1, 6032, Note_off_c, 1, 63, 0
1, 6036, Note_on_c, 1, 66, 127
1, 6058, Note_off_c, 1, 59, 0
1, 6062, Note_off_c, 1, 66, 0
1, 6066, Note_on_c, 1, 68, 127
1, 6066, Note_on_c, 1, 58, 127
1, 6092, Note_off_c, 1, 68, 0
1, 6096, Note_on_c, 1, 70, 127
1, 6118, Note_off_c, 1, 58, 0
1, 6122, Note_off_c, 1, 70, 0
1, 6126, Note_on_c, 1, 71, 127
1, 6126, Note_on_c, 1, 56, 127
1, 6152, Note_off_c, 1, 71, 0
1, 6156, Note_on_c, 1, 66, 127
1, 6178, Note_off_c, 1, 56, 0
1, 6182, Note_off_c, 1, 66, 0
1, 6186, Note_on_c, 1, 65, 127
1, 6186, Note_on_c, 1, 54, 127
1, 6212, Note_off_c, 1, 65, 0
1, 6216, Note_on_c, 1, 63, 127
1, 6238, Note_off_c, 1, 54, 0
1, 6242, Note_off_c, 1, 63, 0
1, 6246, Note_on_c, 1, 62, 127
1, 6246, Note_on_c, 1, 53, 127
1, 6272, Note_off_c, 1, 62, 0
1, 6276, Note_on_c, 1, 71, 127
1, 6298, Note_off_c, 1, 53, 0
1, 6302, Note_off_c, 1, 71, 0
1, 6306, Note_on_c, 1, 70, 127
1, 6306, Note_on_c, 1, 56, 127
1, 6332, Note_off_c, 1, 70, 0
1, 6336, Note_on_c, 1, 68, 127
1, 6358, Note_off_c, 1, 56, 0
1, 6362, Note_off_c, 1, 68, 0
1, 6366, Note_on_c, 1, 77, 127
1, 6366, Note_on_c, 1, 50, 127
1, 6392, Note_off_c, 1, 77, 0
1, 6396, Note_on_c, 1, 68, 127
1, 6418, Note_off_c, 1, 50, 0
1, 6422, Note_off_c, 1, 68, 0
1, 6426, Note_on_c, 1, 77, 127
1, 6426, Note_on_c, 1, 46, 127
1, 6452, Note_off_c, 1, 77, 0
1, 6456, Note_on_c, 1, 68, 127
1, 6478, Note_off_c, 1, 46, 0
1, 6482, Note_off_c, 1, 68, 0
1, 6486, Note_on_c, 1, 66, 127
1, 6486, Note_on_c, 1, 51, 127
1, 6512, Note_off_c, 1, 66, 0
1, 6516, Note_on_c, 1, 70, 127
1, 6538, Note_off_c, 1, 51, 0
1, 6542, Note_off_c, 1, 70, 0
1, 6546, Note_on_c, 1, 75, 127
1, 6546, Note_on_c, 1, 49, 127
1, 6572, Note_off_c, 1, 75, 0
1, 6576, Note_on_c, 1, 77, 127
1, 6598, Note_off_c, 1, 49, 0
1, 6602, Note_off_c, 1, 77, 0
1, 6606, Note_on_c, 1, 78, 127
1, 6606, Note_on_c, 1, 48, 127
1, 6632, Note_off_c, 1, 78, 0
1, 6636, Note_on_c, 1, 75, 127
1, 6658, Note_off_c, 1, 48, 0
1, 6662, Note_off_c, 1, 75, 0
1, 6666, Note_on_c, 1, 72, 127
1, 6666, Note_on_c, 1, 46, 127
1, 6692, Note_off_c, 1, 72, 0
1, 6696, Note_on_c, 1, 75, 127
1, 6718, Note_off_c, 1, 46, 0
1, 6722, Note_off_c, 1, 75, 0
1, 6726, Note_on_c, 1, 69, 127
1, 6726, Note_on_c, 1, 48, 127
1, 6752, Note_off_c, 1, 69, 0
1, 6756, Note_on_c, 1, 78, 127
1, 6778, Note_off_c, 1, 48, 0
1, 6782, Note_off_c, 1, 78, 0
1, 6786, Note_on_c, 1, 77, 127
1, 6786, Note_on_c, 1, 51, 127
1, 6812, Note_off_c, 1, 77, 0
1, 6816, Note_on_c, 1, 75, 127
1, 6838, Note_off_c, 1, 51, 0
1, 6842, Note_off_c, 1, 75, 0
1, 6846, Note_on_c, 1, 84, 127
1, 6846, Note_on_c, 1, 45, 127
1, 6872, Note_off_c, 1, 84, 0
1, 6876, Note_on_c, 1, 75, 127
1, 6898, Note_off_c, 1, 45, 0
1, 6902, Note_off_c, 1, 75, 0
1, 6906, Note_on_c, 1, 84, 127
1, 6906, Note_on_c, 1, 41, 127
1, 6932, Note_off_c, 1, 84, 0
1, 6936, Note_on_c, 1, 75, 127
1, 6958, Note_off_c, 1, 41, 0
1, 6962, Note_off_c, 1, 75, 0
1, 6966, Note_on_c, 1, 74, 127
1, 6966, Note_on_c, 1, 46, 127
1, 6992, Note_off_c, 1, 74, 0
1, 6996, Note_on_c, 1, 75, 127
1, 7018, Note_off_c, 1, 46, 0
1, 7022, Note_off_c, 1, 75, 0
1, 7026, Note_on_c, 1, 77, 127
1, 7052, Note_off_c, 1, 77, 0
1, 7056, Note_on_c, 1, 82, 127
1, 7082, Note_off_c, 1, 82, 0
1, 7086, Note_on_c, 1, 70, 127
1, 7112, Note_off_c, 1, 70, 0
1, 7116, Note_on_c, 1, 68, 127
1, 7142, Note_off_c, 1, 68, 0
1, 7146, Note_on_c, 1, 66, 127
1, 7172, Note_off_c, 1, 66, 0
1, 7176, Note_on_c, 1, 65, 127
1, 7202, Note_off_c, 1, 65, 0
1, 7206, Note_on_c, 1, 63, 127
1, 7232, Note_off_c, 1, 63, 0
1, 7236, Note_on_c, 1, 65, 127
1, 7236, Note_on_c, 1, 74, 127
1, 7262, Note_off_c, 1, 65, 0
1, 7262, Note_off_c, 1, 74, 0
1, 7266, Note_on_c, 1, 66, 127
1, 7266, Note_on_c, 1, 75, 127
1, 7292, Note_off_c, 1, 66, 0
1, 7292, Note_off_c, 1, 75, 0
1, 7296, Note_on_c, 1, 68, 127
1, 7296, Note_on_c, 1, 77, 127
1, 7322, Note_off_c, 1, 68, 0
1, 7322, Note_off_c, 1, 77, 0
1, 7326, Note_on_c, 1, 78, 127
1, 7326, Note_on_c, 1, 70, 127
1, 7339, Note_off_c, 1, 78, 0
1, 7341, Note_on_c, 1, 77, 127
1, 7352, Note_off_c, 1, 70, 0
1, 7354, Note_off_c, 1, 77, 0
1, 7356, Note_on_c, 1, 66, 127
1, 7356, Note_on_c, 1, 75, 127
1, 7382, Note_off_c, 1, 66, 0
1, 7382, Note_off_c, 1, 75, 0
1, 7386, Note_on_c, 1, 65, 127
1, 7386, Note_on_c, 1, 80, 127
1, 7386, Note_on_c, 1, 83, 127
1, 7412, Note_off_c, 1, 65, 0
1, 7416, Note_on_c, 1, 63, 127
1, 7438, Note_off_c, 1, 80, 0
1, 7438, Note_off_c, 1, 83, 0
1, 7442, Note_off_c, 1, 63, 0
1, 7446, Note_on_c, 1, 62, 127
1, 7446, Note_on_c, 1, 80, 127
1, 7446, Note_on_c, 1, 83, 127
1, 7472, Note_off_c, 1, 62, 0
1, 7476, Note_on_c, 1, 63, 127
1, 7498, Note_off_c, 1, 80, 0
1, 7498, Note_off_c, 1, 83, 0
1, 7502, Note_off_c, 1, 63, 0
1, 7506, Note_on_c, 1, 65, 127
1, 7506, Note_on_c, 1, 74, 127
1, 7506, Note_on_c, 1, 82, 127
1, 7532, Note_off_c, 1, 65, 0
1, 7536, Note_on_c, 1, 59, 127
1, 7558, Note_off_c, 1, 74, 0
1, 7558, Note_off_c, 1, 82, 0
1, 7562, Note_off_c, 1, 59, 0
1, 7566, Note_on_c, 1, 58, 127
1, 7592, Note_off_c, 1, 58, 0
1, 7596, Note_on_c, 1, 56, 127
1, 7622, Note_off_c, 1, 56, 0
1, 7626, Note_on_c, 1, 54, 127
1, 7652, Note_off_c, 1, 54, 0
1, 7656, Note_on_c, 1, 53, 127
1, 7682, Note_off_c, 1, 53, 0
1, 7686, Note_on_c, 1, 51, 127
1, 7712, Note_off_c, 1, 51, 0
1, 7716, Note_on_c, 1, 58, 127
1, 7742, Note_off_c, 1, 58, 0
1, 7746, Note_on_c, 1, 51, 127
1, 7746, Note_on_c, 1, 75, 127
1, 7746, Note_on_c, 1, 78, 127
1, 7772, Note_off_c, 1, 51, 0
1, 7776, Note_on_c, 1, 58, 127
1, 7798, Note_off_c, 1, 75, 0
1, 7798, Note_off_c, 1, 78, 0
1, 7802, Note_off_c, 1, 58, 0
1, 7806, Note_on_c, 1, 50, 127
1, 7806, Note_on_c, 1, 78, 127
1, 7806, Note_on_c, 1, 75, 127
1, 7832, Note_off_c, 1, 50, 0
1, 7836, Note_on_c, 1, 58, 127
1, 7862, Note_off_c, 1, 58, 0
1, 7865, Note_off_c, 1, 78, 0
1, 7865, Note_off_c, 1, 75, 0
1, 7866, Note_on_c, 1, 50, 127
1, 7866, Note_on_c, 1, 80, 127
1, 7866, Note_on_c, 1, 77, 127
1, 7892, Note_off_c, 1, 50, 0
1, 7896, Note_on_c, 1, 58, 127
1, 7922, Note_off_c, 1, 58, 0
1, 7925, Note_off_c, 1, 80, 0
1, 7925, Note_off_c, 1, 77, 0
1, 7926, Note_on_c, 1, 51, 127
1, 7952, Note_off_c, 1, 51, 0
1, 7956, Note_on_c, 1, 58, 127
1, 7982, Note_off_c, 1, 58, 0
1, 7986, Note_on_c, 1, 51, 127
1, 7986, Note_on_c, 1, 75, 127
1, 7986, Note_on_c, 1, 78, 127
1, 8012, Note_off_c, 1, 51, 0
1, 8016, Note_on_c, 1, 58, 127
1, 8038, Note_off_c, 1, 75, 0
1, 8038, Note_off_c, 1, 78, 0
1, 8042, Note_off_c, 1, 58, 0
1, 8046, Note_on_c, 1, 46, 127
1, 8046, Note_on_c, 1, 78, 127
1, 8046, Note_on_c, 1, 75, 127
1, 8072, Note_off_c, 1, 46, 0
1, 8076, Note_on_c, 1, 56, 127
1, 8102, Note_off_c, 1, 56, 0
1, 8105, Note_off_c, 1, 78, 0
1, 8105, Note_off_c, 1, 75, 0
1, 8106, Note_on_c, 1, 46, 127
1, 8106, Note_on_c, 1, 77, 127
1, 8106, Note_on_c, 1, 74, 127
1, 8132, Note_off_c, 1, 46, 0
1, 8136, Note_on_c, 1, 56, 127
1, 8162, Note_off_c, 1, 56, 0
1, 8165, Note_off_c, 1, 77, 0
1, 8165, Note_off_c, 1, 74, 0
1, 8166, Note_on_c, 1, 47, 127
1, 8192, Note_off_c, 1, 47, 0
1, 8196, Note_on_c, 1, 54, 127
1, 8222, Note_off_c, 1, 54, 0
1, 8226, Note_on_c, 1, 47, 127
1, 8226, Note_on_c, 1, 75, 127
1, 8252, Note_off_c, 1, 47, 0
1, 8256, Note_on_c, 1, 54, 127
1, 8278, Note_off_c, 1, 75, 0
1, 8282, Note_off_c, 1, 54, 0
1, 8286, Note_on_c, 1, 77, 127
1, 8286, Note_on_c, 1, 46, 127
1, 8296, Note_on_c, 1, 75, 127
1, 8301, Note_off_c, 1, 77, 0
1, 8311, Note_off_c, 1, 75, 0
1, 8312, Note_off_c, 1, 46, 0
1, 8316, Note_on_c, 1, 54, 127
1, 8334, Note_on_c, 1, 74, 127
1, 8342, Note_off_c, 1, 54, 0
1, 8343, Note_off_c, 1, 74, 0
1, 8346, Note_on_c, 1, 46, 127
1, 8346, Note_on_c, 1, 75, 127
1, 8372, Note_off_c, 1, 46, 0
1, 8376, Note_on_c, 1, 54, 127
1, 8398, Note_off_c, 1, 75, 0
1, 8402, Note_off_c, 1, 54, 0
1, 8406, Note_on_c, 1, 47, 127
1, 8432, Note_off_c, 1, 47, 0
1, 8436, Note_on_c, 1, 54, 127
1, 8462, Note_off_c, 1, 54, 0
1, 8466, Note_on_c, 1, 47, 127
1, 8466, Note_on_c, 1, 75, 127
1, 8492, Note_off_c, 1, 47, 0
1, 8496, Note_on_c, 1, 54, 127
1, 8518, Note_off_c, 1, 75, 0
1, 8522, Note_off_c, 1, 54, 0
1, 8526, Note_on_c, 1, 75, 127
1, 8526, Note_on_c, 1, 43, 127
1, 8529, Note_off_c, 1, 75, 0
1, 8534, Note_on_c, 1, 73, 127
1, 8539, Note_off_c, 1, 73, 0
1, 8552, Note_off_c, 1, 43, 0
1, 8556, Note_on_c, 1, 52, 127
1, 8560, Note_on_c, 1, 71, 127
1, 8579, Note_off_c, 1, 71, 0
1, 8582, Note_off_c, 1, 52, 0
1, 8586, Note_on_c, 1, 43, 127
1, 8586, Note_on_c, 1, 73, 127
1, 8612, Note_off_c, 1, 43, 0
1, 8612, Note_off_c, 1, 73, 0
1, 8616, Note_on_c, 1, 52, 127
1, 8616, Note_on_c, 1, 82, 127
1, 8642, Note_off_c, 1, 52, 0
1, 8642, Note_off_c, 1, 82, 0
1, 8646, Note_on_c, 1, 44, 127
1, 8646, Note_on_c, 1, 71, 127
1, 8672, Note_off_c, 1, 44, 0
1, 8676, Note_on_c, 1, 51, 127
1, 8698, Note_off_c, 1, 71, 0
1, 8702, Note_off_c, 1, 51, 0
1, 8706, Note_on_c, 1, 44, 127
1, 8706, Note_on_c, 1, 63, 127
1, 8732, Note_off_c, 1, 44, 0
1, 8736, Note_on_c, 1, 51, 127
1, 8758, Note_off_c, 1, 63, 0
1, 8762, Note_off_c, 1, 51, 0
1, 8766, Note_on_c, 1, 64, 127
1, 8766, Note_on_c, 1, 43, 127
1, 8766, Note_on_c, 1, 73, 127
1, 8776, Note_on_c, 1, 63, 127
1, 8781, Note_off_c, 1, 64, 0
1, 8791, Note_off_c, 1, 63, 0
1, 8792, Note_off_c, 1, 43, 0
1, 8796, Note_on_c, 1, 51, 127
1, 8802, Note_on_c, 1, 62, 127
1, 8818, Note_off_c, 1, 73, 0
1, 8822, Note_off_c, 1, 51, 0
1, 8828, Note_off_c, 1, 62, 0
1, 8886, Note_on_c, 1, 44, 127
1, 8886, Note_on_c, 1, 71, 127
1, 8912, Note_off_c, 1, 44, 0
1, 8916, Note_on_c, 1, 51, 127
1, 8938, Note_off_c, 1, 71, 0
1, 8942, Note_off_c, 1, 51, 0
1, 8946, Note_on_c, 1, 64, 127
1, 8946, Note_on_c, 1, 44, 127
1, 8959, Note_off_c, 1, 64, 0
1, 8961, Note_on_c, 1, 63, 127
1, 8972, Note_off_c, 1, 44, 0
1, 8974, Note_off_c, 1, 63, 0
1, 8976, Note_on_c, 1, 51, 127
1, 8976, Note_on_c, 1, 62, 127
1, 9002, Note_off_c, 1, 51, 0
1, 9002, Note_off_c, 1, 62, 0
1, 9006, Note_on_c, 1, 42, 127
1, 9006, Note_on_c, 1, 63, 127
1, 9006, Note_on_c, 1, 70, 127
1, 9032, Note_off_c, 1, 42, 0
1, 9036, Note_on_c, 1, 51, 127
1, 9058, Note_off_c, 1, 63, 0
1, 9058, Note_off_c, 1, 70, 0
1, 9062, Note_off_c, 1, 51, 0
1, 9066, Note_on_c, 1, 42, 127
1, 9066, Note_on_c, 1, 75, 127
1, 9092, Note_off_c, 1, 42, 0
1, 9096, Note_on_c, 1, 51, 127
1, 9118, Note_off_c, 1, 75, 0
1, 9122, Note_off_c, 1, 51, 0
1, 9126, Note_on_c, 1, 41, 127
1, 9126, Note_on_c, 1, 68, 127
1, 9152, Note_off_c, 1, 41, 0
1, 9156, Note_on_c, 1, 51, 127
1, 9182, Note_off_c, 1, 51, 0
1, 9186, Note_on_c, 1, 50, 127
1, 9186, Note_on_c, 1, 77, 127
1, 9212, Note_off_c, 1, 50, 0
1, 9212, Note_off_c, 1, 77, 0
1, 9216, Note_on_c, 1, 48, 127
1, 9216, Note_on_c, 1, 75, 127
1, 9242, Note_off_c, 1, 48, 0
1, 9242, Note_off_c, 1, 75, 0
1, 9276, Note_on_c, 1, 56, 127
1, 9302, Note_off_c, 1, 56, 0
1, 9306, Note_on_c, 1, 53, 127
1, 9306, Note_on_c, 1, 80, 127
1, 9332, Note_off_c, 1, 53, 0
1, 9358, Note_off_c, 1, 80, 0
1, 9366, Note_on_c, 1, 46, 127
1, 9366, Note_on_c, 1, 74, 127
1, 9392, Note_off_c, 1, 68, 0
1, 9392, Note_off_c, 1, 46, 0
1, 9396, Note_on_c, 1, 58, 127
1, 9396, Note_on_c, 1, 70, 127
1, 9418, Note_off_c, 1, 74, 0
1, 9422, Note_off_c, 1, 58, 0
1, 9422, Note_off_c, 1, 70, 0
1, 9426, Note_on_c, 1, 48, 127
1, 9426, Note_on_c, 1, 68, 127
1, 9426, Note_on_c, 1, 77, 127
1, 9452, Note_off_c, 1, 48, 0
1, 9452, Note_off_c, 1, 68, 0
1, 9456, Note_on_c, 1, 58, 127
1, 9456, Note_on_c, 1, 66, 127
1, 9478, Note_off_c, 1, 77, 0
1, 9482, Note_off_c, 1, 58, 0
1, 9482, Note_off_c, 1, 66, 0
1, 9486, Note_on_c, 1, 50, 127
1, 9486, Note_on_c, 1, 65, 127
1, 9486, Note_on_c, 1, 70, 127
1, 9512, Note_off_c, 1, 50, 0
1, 9512, Note_off_c, 1, 65, 0
1, 9516, Note_on_c, 1, 58, 127
1, 9516, Note_on_c, 1, 63, 127
1, 9542, Note_off_c, 1, 58, 0
1, 9542, Note_off_c, 1, 63, 0
1, 9546, Note_on_c, 1, 46, 127
1, 9572, Note_off_c, 1, 46, 0
1, 9576, Note_on_c, 1, 56, 127
1, 9576, Note_on_c, 1, 62, 127
1, 9602, Note_off_c, 1, 56, 0
1, 9602, Note_off_c, 1, 62, 0
1, 9606, Note_on_c, 1, 51, 127
1, 9632, Note_off_c, 1, 51, 0
1, 9636, Note_on_c, 1, 54, 127
1, 9658, Note_off_c, 1, 70, 0
1, 9662, Note_off_c, 1, 54, 0
1, 9666, Note_on_c, 1, 51, 127
1, 9666, Note_on_c, 1, 66, 127
1, 9666, Note_on_c, 1, 70, 127
1, 9692, Note_off_c, 1, 51, 0
1, 9692, Note_off_c, 1, 66, 0
1, 9692, Note_off_c, 1, 70, 0
1, 9696, Note_on_c, 1, 54, 127
1, 9696, Note_on_c, 1, 65, 127
1, 9696, Note_on_c, 1, 68, 127
1, 9722, Note_off_c, 1, 54, 0
1, 9722, Note_off_c, 1, 65, 0
1, 9722, Note_off_c, 1, 68, 0
1, 9726, Note_on_c, 1, 49, 127
1, 9726, Note_on_c, 1, 66, 127
1, 9726, Note_on_c, 1, 70, 127
1, 9752, Note_off_c, 1, 49, 0
1, 9756, Note_on_c, 1, 58, 127
1, 9778, Note_off_c, 1, 66, 0
1, 9778, Note_off_c, 1, 70, 0
1, 9782, Note_off_c, 1, 58, 0
1, 9786, Note_on_c, 1, 49, 127
1, 9786, Note_on_c, 1, 70, 127
1, 9786, Note_on_c, 1, 78, 127
1, 9812, Note_off_c, 1, 49, 0
1, 9816, Note_on_c, 1, 58, 127
1, 9838, Note_off_c, 1, 70, 0
1, 9838, Note_off_c, 1, 78, 0
1, 9842, Note_off_c, 1, 58, 0
1, 9846, Note_on_c, 1, 48, 127
1, 9872, Note_off_c, 1, 48, 0
1, 9876, Note_on_c, 1, 56, 127
1, 9902, Note_off_c, 1, 56, 0
1, 9906, Note_on_c, 1, 48, 127
1, 9906, Note_on_c, 1, 66, 127
1, 9906, Note_on_c, 1, 75, 127
1, 9932, Note_off_c, 1, 48, 0
1, 9936, Note_on_c, 1, 56, 127
1, 9958, Note_off_c, 1, 66, 0
1, 9958, Note_off_c, 1, 75, 0
1, 9962, Note_off_c, 1, 56, 0
1, 9966, Note_on_c, 1, 44, 127
1, 9992, Note_off_c, 1, 44, 0
1, 9996, Note_on_c, 1, 56, 127
1, 10022, Note_off_c, 1, 56, 0
1, 10026, Note_on_c, 1, 44, 127
1, 10026, Note_on_c, 1, 65, 127
1, 10026, Note_on_c, 1, 72, 127
1, 10052, Note_off_c, 1, 44, 0
1, 10052, Note_off_c, 1, 65, 0
1, 10056, Note_on_c, 1, 54, 127
1, 10056, Note_on_c, 1, 63, 127
1, 10078, Note_off_c, 1, 72, 0
1, 10082, Note_off_c, 1, 54, 0
1, 10082, Note_off_c, 1, 63, 0
1, 10086, Note_on_c, 1, 49, 127
1, 10112, Note_off_c, 1, 49, 0
1, 10116, Note_on_c, 1, 53, 127
1, 10142, Note_off_c, 1, 53, 0
1, 10146, Note_on_c, 1, 49, 127
1, 10146, Note_on_c, 1, 65, 127
1, 10146, Note_on_c, 1, 68, 127
1, 10172, Note_off_c, 1, 49, 0
1, 10172, Note_off_c, 1, 65, 0
1, 10172, Note_off_c, 1, 68, 0
1, 10176, Note_on_c, 1, 53, 127
1, 10176, Note_on_c, 1, 63, 127
1, 10176, Note_on_c, 1, 66, 127
1, 10202, Note_off_c, 1, 53, 0
1, 10202, Note_off_c, 1, 63, 0
1, 10202, Note_off_c, 1, 66, 0
1, 10206, Note_on_c, 1, 48, 127
1, 10206, Note_on_c, 1, 65, 127
1, 10206, Note_on_c, 1, 68, 127
1, 10232, Note_off_c, 1, 48, 0
1, 10236, Note_on_c, 1, 56, 127
1, 10258, Note_off_c, 1, 65, 0
1, 10258, Note_off_c, 1, 68, 0
1, 10262, Note_off_c, 1, 56, 0
1, 10266, Note_on_c, 1, 48, 127
1, 10266, Note_on_c, 1, 68, 127
1, 10266, Note_on_c, 1, 77, 127
1, 10292, Note_off_c, 1, 48, 0
1, 10296, Note_on_c, 1, 56, 127
1, 10318, Note_off_c, 1, 68, 0
1, 10318, Note_off_c, 1, 77, 0
1, 10322, Note_off_c, 1, 56, 0
1, 10326, Note_on_c, 1, 46, 127
1, 10352, Note_off_c, 1, 46, 0
1, 10356, Note_on_c, 1, 54, 127
1, 10382, Note_off_c, 1, 54, 0
1, 10386, Note_on_c, 1, 46, 127
1, 10386, Note_on_c, 1, 65, 127
1, 10386, Note_on_c, 1, 73, 127
1, 10412, Note_off_c, 1, 46, 0
1, 10416, Note_on_c, 1, 54, 127
1, 10438, Note_off_c, 1, 65, 0
1, 10438, Note_off_c, 1, 73, 0
1, 10442, Note_off_c, 1, 54, 0
1, 10446, Note_on_c, 1, 42, 127
1, 10472, Note_off_c, 1, 42, 0
1, 10476, Note_on_c, 1, 54, 127
1, 10502, Note_off_c, 1, 54, 0
1, 10506, Note_on_c, 1, 42, 127
1, 10506, Note_on_c, 1, 63, 127
1, 10506, Note_on_c, 1, 70, 127
1, 10532, Note_off_c, 1, 42, 0
1, 10532, Note_off_c, 1, 63, 0
1, 10536, Note_on_c, 1, 53, 127
1, 10536, Note_on_c, 1, 62, 127
1, 10558, Note_off_c, 1, 70, 0
1, 10562, Note_off_c, 1, 53, 0
1, 10562, Note_off_c, 1, 62, 0
1, 10566, Note_on_c, 1, 48, 127
1, 10592, Note_off_c, 1, 48, 0
1, 10596, Note_on_c, 1, 51, 127
1, 10622, Note_off_c, 1, 51, 0
1, 10626, Note_on_c, 1, 48, 127
1, 10626, Note_on_c, 1, 66, 127
1, 10626, Note_on_c, 1, 69, 127
1, 10652, Note_off_c, 1, 48, 0
1, 10652, Note_off_c, 1, 66, 0
1, 10656, Note_on_c, 1, 51, 127
1, 10656, Note_on_c, 1, 65, 127
1, 10678, Note_off_c, 1, 69, 0
1, 10682, Note_off_c, 1, 51, 0
1, 10682, Note_off_c, 1, 65, 0
1, 10686, Note_on_c, 1, 46, 127
1, 10686, Note_on_c, 1, 66, 127
1, 10686, Note_on_c, 1, 70, 127
1, 10712, Note_off_c, 1, 46, 0
1, 10712, Note_off_c, 1, 66, 0
1, 10716, Note_on_c, 1, 54, 127
1, 10716, Note_on_c, 1, 63, 127
1, 10738, Note_off_c, 1, 70, 0
1, 10742, Note_off_c, 1, 54, 0
1, 10742, Note_off_c, 1, 63, 0
1, 10746, Note_on_c, 1, 46, 127
1, 10746, Note_on_c, 1, 72, 127
1, 10746, Note_on_c, 1, 75, 127
1, 10772, Note_off_c, 1, 46, 0
1, 10776, Note_on_c, 1, 54, 127
1, 10798, Note_off_c, 1, 72, 0
1, 10798, Note_off_c, 1, 75, 0
1, 10802, Note_off_c, 1, 54, 0
1, 10806, Note_on_c, 1, 45, 127
1, 10832, Note_off_c, 1, 45, 0
1, 10836, Note_on_c, 1, 53, 127
1, 10862, Note_off_c, 1, 53, 0
1, 10866, Note_on_c, 1, 45, 127
1, 10866, Note_on_c, 1, 72, 127
1, 10866, Note_on_c, 1, 75, 127
1, 10892, Note_off_c, 1, 45, 0
1, 10892, Note_off_c, 1, 72, 0
1, 10896, Note_on_c, 1, 53, 127
1, 10896, Note_on_c, 1, 70, 127
1, 10918, Note_off_c, 1, 75, 0
1, 10922, Note_off_c, 1, 53, 0
1, 10922, Note_off_c, 1, 70, 0
1, 10926, Note_on_c, 1, 41, 127
1, 10926, Note_on_c, 1, 71, 127
1, 10926, Note_on_c, 1, 74, 127
1, 10952, Note_off_c, 1, 41, 0
1, 10952, Note_off_c, 1, 71, 0
1, 10956, Note_on_c, 1, 53, 127
1, 10956, Note_on_c, 1, 68, 127
1, 10978, Note_off_c, 1, 74, 0
1, 10982, Note_off_c, 1, 53, 0
1, 10982, Note_off_c, 1, 68, 0
1, 10986, Note_on_c, 1, 41, 127
1, 10986, Note_on_c, 1, 83, 127
1, 10986, Note_on_c, 1, 80, 127
1, 11012, Note_off_c, 1, 41, 0
1, 11016, Note_on_c, 1, 51, 127
1, 11038, Note_off_c, 1, 83, 0
1, 11042, Note_off_c, 1, 51, 0
1, 11046, Note_on_c, 1, 50, 127
1, 11046, Note_on_c, 1, 82, 127
1, 11072, Note_off_c, 1, 50, 0
1, 11076, Note_on_c, 1, 46, 127
1, 11098, Note_off_c, 1, 80, 0
1, 11102, Note_off_c, 1, 46, 0
1, 11106, Note_on_c, 1, 78, 127
1, 11119, Note_off_c, 1, 78, 0
1, 11121, Note_on_c, 1, 77, 127
1, 11134, Note_off_c, 1, 77, 0
1, 11136, Note_on_c, 1, 54, 127
1, 11136, Note_on_c, 1, 75, 127
1, 11151, Note_off_c, 1, 82, 0
1, 11162, Note_off_c, 1, 54, 0
1, 11162, Note_off_c, 1, 75, 0
1, 11166, Note_on_c, 1, 58, 127
1, 11166, Note_on_c, 1, 74, 127
1, 11196, Note_on_c, 1, 82, 127
1, 11218, Note_off_c, 1, 58, 0
1, 11222, Note_off_c, 1, 82, 0
1, 11226, Note_on_c, 1, 77, 127
1, 11226, Note_on_c, 1, 46, 127
1, 11252, Note_off_c, 1, 77, 0
1, 11256, Note_on_c, 1, 80, 127
1, 11278, Note_off_c, 1, 46, 0
1, 11286, Note_on_c, 1, 39, 127
1, 11338, Note_off_c, 1, 74, 0
1, 11338, Note_off_c, 1, 80, 0
1, 11346, Note_on_c, 1, 75, 127
1, 11346, Note_on_c, 1, 79, 127
1, 11364, Note_off_c, 1, 39, 0
1, 11376, Note_on_c, 1, 43, 127
1, 11389, Note_off_c, 1, 43, 0
1, 11398, Note_off_c, 1, 75, 0
1, 11398, Note_off_c, 1, 79, 0
1, 11406, Note_on_c, 1, 51, 127
1, 11511, Note_off_c, 1, 51, 0
1, 11526, Note_on_c, 1, 68, 127
1, 11526, Note_on_c, 1, 59, 127
1, 11526, Note_on_c, 1, 56, 127
1, 11526, Note_on_c, 1, 63, 127
1, 11552, Note_off_c, 1, 68, 0
1, 11556, Note_on_c, 1, 70, 127
1, 11582, Note_off_c, 1, 70, 0
1, 11586, Note_on_c, 1, 71, 127
1, 11612, Note_off_c, 1, 71, 0
1, 11616, Note_on_c, 1, 73, 127
1, 11631, Note_off_c, 1, 59, 0
1, 11631, Note_off_c, 1, 56, 0
1, 11631, Note_off_c, 1, 63, 0
1, 11642, Note_off_c, 1, 73, 0
1, 11646, Note_on_c, 1, 75, 127
1, 11672, Note_off_c, 1, 75, 0
1, 11676, Note_on_c, 1, 71, 127
1, 11702, Note_off_c, 1, 71, 0
1, 11706, Note_on_c, 1, 70, 127
1, 11732, Note_off_c, 1, 70, 0
1, 11736, Note_on_c, 1, 68, 127
1, 11762, Note_off_c, 1, 68, 0
1, 11766, Note_on_c, 1, 67, 127
1, 11766, Note_on_c, 1, 58, 127
1, 11766, Note_on_c, 1, 56, 127
1, 11766, Note_on_c, 1, 61, 127
1, 11792, Note_off_c, 1, 67, 0
1, 11796, Note_on_c, 1, 68, 127
1, 11822, Note_off_c, 1, 68, 0
1, 11826, Note_on_c, 1, 70, 127
1, 11852, Note_off_c, 1, 70, 0
1, 11856, Note_on_c, 1, 64, 127
1, 11871, Note_off_c, 1, 58, 0
1, 11871, Note_off_c, 1, 56, 0
1, 11871, Note_off_c, 1, 61, 0
1, 11882, Note_off_c, 1, 64, 0
1, 11886, Note_on_c, 1, 63, 127
1, 11912, Note_off_c, 1, 63, 0
1, 11916, Note_on_c, 1, 61, 127
1, 11942, Note_off_c, 1, 61, 0
1, 11946, Note_on_c, 1, 59, 127
1, 11972, Note_off_c, 1, 59, 0
1, 11976, Note_on_c, 1, 58, 127
1, 12002, Note_off_c, 1, 58, 0
1, 12006, Note_on_c, 1, 56, 127
1, 12032, Note_off_c, 1, 56, 0
1, 12036, Note_on_c, 1, 63, 127
1, 12062, Note_off_c, 1, 63, 0
1, 12066, Note_on_c, 1, 56, 127
1, 12066, Note_on_c, 1, 68, 127
1, 12066, Note_on_c, 1, 71, 127
1, 12092, Note_off_c, 1, 56, 0
1, 12096, Note_on_c, 1, 63, 127
1, 12118, Note_off_c, 1, 68, 0
1, 12118, Note_off_c, 1, 71, 0
1, 12122, Note_off_c, 1, 63, 0
1, 12126, Note_on_c, 1, 55, 127
1, 12128, Note_on_c, 1, 71, 127
1, 12128, Note_on_c, 1, 68, 127
1, 12152, Note_off_c, 1, 55, 0
1, 12156, Note_on_c, 1, 63, 127
1, 12182, Note_off_c, 1, 63, 0
1, 12188, Note_on_c, 1, 70, 127
1, 12188, Note_on_c, 1, 73, 127
1, 12193, Note_off_c, 1, 71, 0
1, 12193, Note_off_c, 1, 68, 0
1, 12219, Note_off_c, 1, 70, 0
1, 12219, Note_off_c, 1, 73, 0
1, 12246, Note_on_c, 1, 56, 127
1, 12272, Note_off_c, 1, 56, 0
1, 12276, Note_on_c, 1, 63, 127
1, 12302, Note_off_c, 1, 63, 0
1, 12306, Note_on_c, 1, 56, 127
1, 12306, Note_on_c, 1, 68, 127
1, 12306, Note_on_c, 1, 71, 127
1, 12332, Note_off_c, 1, 56, 0
1, 12336, Note_on_c, 1, 63, 127
1, 12358, Note_off_c, 1, 68, 0
1, 12358, Note_off_c, 1, 71, 0
1, 12362, Note_off_c, 1, 63, 0
1, 12366, Note_on_c, 1, 51, 127
1, 12368, Note_on_c, 1, 71, 127
1, 12368, Note_on_c, 1, 68, 127
1, 12392, Note_off_c, 1, 51, 0
1, 12396, Note_on_c, 1, 63, 127
1, 12422, Note_off_c, 1, 63, 0
1, 12426, Note_on_c, 1, 67, 127
1, 12426, Note_on_c, 1, 70, 127
1, 12433, Note_off_c, 1, 71, 0
1, 12433, Note_off_c, 1, 68, 0
1, 12469, Note_off_c, 1, 67, 0
1, 12469, Note_off_c, 1, 70, 0
1, 12486, Note_on_c, 1, 68, 127
1, 12486, Note_on_c, 1, 59, 127
1, 12486, Note_on_c, 1, 56, 127
1, 12486, Note_on_c, 1, 63, 127
1, 12512, Note_off_c, 1, 68, 0
1, 12516, Note_on_c, 1, 70, 127
1, 12542, Note_off_c, 1, 70, 0
1, 12546, Note_on_c, 1, 71, 127
1, 12572, Note_off_c, 1, 71, 0
1, 12576, Note_on_c, 1, 73, 127
1, 12591, Note_off_c, 1, 59, 0
1, 12591, Note_off_c, 1, 56, 0
1, 12591, Note_off_c, 1, 63, 0
1, 12602, Note_off_c, 1, 73, 0
1, 12606, Note_on_c, 1, 75, 127
1, 12632, Note_off_c, 1, 75, 0
1, 12636, Note_on_c, 1, 71, 127
1, 12662, Note_off_c, 1, 71, 0
1, 12666, Note_on_c, 1, 70, 127
1, 12692, Note_off_c, 1, 70, 0
1, 12696, Note_on_c, 1, 68, 127
1, 12722, Note_off_c, 1, 68, 0
1, 12726, Note_on_c, 1, 67, 127
1, 12726, Note_on_c, 1, 58, 127
1, 12726, Note_on_c, 1, 56, 127
1, 12726, Note_on_c, 1, 61, 127
1, 12752, Note_off_c, 1, 67, 0
1, 12756, Note_on_c, 1, 68, 127
1, 12782, Note_off_c, 1, 68, 0
1, 12786, Note_on_c, 1, 70, 127
1, 12812, Note_off_c, 1, 70, 0
1, 12816, Note_on_c, 1, 64, 127
1, 12831, Note_off_c, 1, 58, 0
1, 12831, Note_off_c, 1, 56, 0
1, 12831, Note_off_c, 1, 61, 0
1, 12842, Note_off_c, 1, 64, 0
1, 12846, Note_on_c, 1, 63, 127
1, 12872, Note_off_c, 1, 63, 0
1, 12876, Note_on_c, 1, 61, 127
1, 12902, Note_off_c, 1, 61, 0
1, 12906, Note_on_c, 1, 59, 127
1, 12932, Note_off_c, 1, 59, 0
1, 12936, Note_on_c, 1, 58, 127
1, 12962, Note_off_c, 1, 58, 0
1, 12966, Note_on_c, 1, 56, 127
1, 12992, Note_off_c, 1, 56, 0
1, 12996, Note_on_c, 1, 63, 127
1, 13022, Note_off_c, 1, 63, 0
1, 13026, Note_on_c, 1, 56, 127
1, 13026, Note_on_c, 1, 71, 127
1, 13026, Note_on_c, 1, 80, 127
1, 13052, Note_off_c, 1, 56, 0
1, 13056, Note_on_c, 1, 63, 127
1, 13078, Note_off_c, 1, 71, 0
1, 13078, Note_off_c, 1, 80, 0
1, 13082, Note_off_c, 1, 63, 0
1, 13086, Note_on_c, 1, 55, 127
1, 13086, Note_on_c, 1, 80, 127
1, 13086, Note_on_c, 1, 71, 127
1, 13112, Note_off_c, 1, 55, 0
1, 13116, Note_on_c, 1, 63, 127
1, 13142, Note_off_c, 1, 63, 0
1, 13145, Note_off_c, 1, 80, 0
1, 13145, Note_off_c, 1, 71, 0
1, 13146, Note_on_c, 1, 55, 127
1, 13146, Note_on_c, 1, 73, 127
1, 13146, Note_on_c, 1, 82, 127
1, 13172, Note_off_c, 1, 55, 0
1, 13176, Note_on_c, 1, 63, 127
1, 13202, Note_off_c, 1, 63, 0
1, 13205, Note_off_c, 1, 73, 0
1, 13205, Note_off_c, 1, 82, 0
1, 13206, Note_on_c, 1, 56, 127
1, 13232, Note_off_c, 1, 56, 0
1, 13236, Note_on_c, 1, 63, 127
1, 13262, Note_off_c, 1, 63, 0
1, 13266, Note_on_c, 1, 56, 127
1, 13266, Note_on_c, 1, 71, 127
1, 13266, Note_on_c, 1, 80, 127
1, 13292, Note_off_c, 1, 56, 0
1, 13296, Note_on_c, 1, 63, 127
1, 13318, Note_off_c, 1, 71, 0
1, 13318, Note_off_c, 1, 80, 0
1, 13322, Note_off_c, 1, 63, 0
1, 13326, Note_on_c, 1, 51, 127
1, 13326, Note_on_c, 1, 71, 127
1, 13326, Note_on_c, 1, 80, 127
1, 13352, Note_off_c, 1, 51, 0
1, 13356, Note_on_c, 1, 63, 127
1, 13382, Note_off_c, 1, 63, 0
1, 13385, Note_off_c, 1, 71, 0
1, 13385, Note_off_c, 1, 80, 0
1, 13386, Note_on_c, 1, 51, 127
1, 13386, Note_on_c, 1, 79, 127
1, 13386, Note_on_c, 1, 70, 127
1, 13412, Note_off_c, 1, 51, 0
1, 13416, Note_on_c, 1, 63, 127
1, 13442, Note_off_c, 1, 63, 0
1, 13445, Note_off_c, 1, 79, 0
1, 13445, Note_off_c, 1, 70, 0
1, 13446, Note_on_c, 1, 56, 127
1, 13472, Note_off_c, 1, 56, 0
1, 13476, Note_on_c, 1, 63, 127
1, 13502, Note_off_c, 1, 63, 0
1, 13506, Note_on_c, 1, 56, 127
1, 13506, Note_on_c, 1, 68, 127
1, 13506, Note_on_c, 1, 71, 127
1, 13532, Note_off_c, 1, 56, 0
1, 13532, Note_off_c, 1, 68, 0
1, 13532, Note_off_c, 1, 71, 0
1, 13536, Note_on_c, 1, 63, 127
1, 13536, Note_on_c, 1, 67, 127
1, 13536, Note_on_c, 1, 70, 127
1, 13562, Note_off_c, 1, 63, 0
1, 13562, Note_off_c, 1, 67, 0
1, 13562, Note_off_c, 1, 70, 0
1, 13566, Note_on_c, 1, 54, 127
1, 13566, Note_on_c, 1, 68, 127
1, 13566, Note_on_c, 1, 71, 127
1, 13592, Note_off_c, 1, 54, 0
1, 13596, Note_on_c, 1, 63, 127
1, 13618, Note_off_c, 1, 68, 0
1, 13618, Note_off_c, 1, 71, 0
1, 13622, Note_off_c, 1, 63, 0
1, 13626, Note_on_c, 1, 54, 127
1, 13626, Note_on_c, 1, 71, 127
1, 13626, Note_on_c, 1, 80, 127
1, 13652, Note_off_c, 1, 54, 0
1, 13656, Note_on_c, 1, 63, 127
1, 13678, Note_off_c, 1, 71, 0
1, 13678, Note_off_c, 1, 80, 0
1, 13682, Note_off_c, 1, 63, 0
1, 13686, Note_on_c, 1, 53, 127
1, 13712, Note_off_c, 1, 53, 0
1, 13716, Note_on_c, 1, 61, 127
1, 13742, Note_off_c, 1, 61, 0
1, 13746, Note_on_c, 1, 53, 127
1, 13746, Note_on_c, 1, 68, 127
1, 13746, Note_on_c, 1, 71, 127
1, 13772, Note_off_c, 1, 53, 0
1, 13776, Note_on_c, 1, 61, 127
1, 13798, Note_off_c, 1, 68, 0
1, 13798, Note_off_c, 1, 71, 0
1, 13802, Note_off_c, 1, 61, 0
1, 13806, Note_on_c, 1, 49, 127
1, 13832, Note_off_c, 1, 49, 0
1, 13836, Note_on_c, 1, 61, 127
1, 13862, Note_off_c, 1, 61, 0
1, 13866, Note_on_c, 1, 49, 127
1, 13866, Note_on_c, 1, 70, 127
1, 13866, Note_on_c, 1, 65, 127
1, 13892, Note_off_c, 1, 49, 0
1, 13892, Note_off_c, 1, 70, 0
1, 13896, Note_on_c, 1, 61, 127
1, 13896, Note_on_c, 1, 68, 127
1, 13918, Note_off_c, 1, 65, 0
1, 13922, Note_off_c, 1, 61, 0
1, 13922, Note_off_c, 1, 68, 0
1, 13926, Note_on_c, 1, 54, 127
1, 13952, Note_off_c, 1, 54, 0
1, 13956, Note_on_c, 1, 61, 127
1, 13982, Note_off_c, 1, 61, 0
1, 13986, Note_on_c, 1, 54, 127
1, 13986, Note_on_c, 1, 66, 127
1, 13986, Note_on_c, 1, 70, 127
1, 14012, Note_off_c, 1, 54, 0
1, 14012, Note_off_c, 1, 66, 0
1, 14012, Note_off_c, 1, 70, 0
1, 14016, Note_on_c, 1, 61, 127
1, 14016, Note_on_c, 1, 65, 127
1, 14016, Note_on_c, 1, 68, 127
1, 14042, Note_off_c, 1, 61, 0
1, 14042, Note_off_c, 1, 65, 0
1, 14042, Note_off_c, 1, 68, 0
1, 14046, Note_on_c, 1, 52, 127
1, 14046, Note_on_c, 1, 66, 127
1, 14046, Note_on_c, 1, 70, 127
1, 14072, Note_off_c, 1, 52, 0
1, 14076, Note_on_c, 1, 61, 127
1, 14098, Note_off_c, 1, 66, 0
1, 14098, Note_off_c, 1, 70, 0
1, 14102, Note_off_c, 1, 61, 0
1, 14106, Note_on_c, 1, 52, 127
1, 14106, Note_on_c, 1, 70, 127
1, 14106, Note_on_c, 1, 78, 127
1, 14132, Note_off_c, 1, 52, 0
1, 14136, Note_on_c, 1, 61, 127
1, 14158, Note_off_c, 1, 70, 0
1, 14158, Note_off_c, 1, 78, 0
1, 14162, Note_off_c, 1, 61, 0
1, 14166, Note_on_c, 1, 51, 127
1, 14192, Note_off_c, 1, 51, 0
1, 14196, Note_on_c, 1, 59, 127
1, 14222, Note_off_c, 1, 59, 0
1, 14226, Note_on_c, 1, 51, 127
1, 14226, Note_on_c, 1, 66, 127
1, 14226, Note_on_c, 1, 70, 127
1, 14252, Note_off_c, 1, 51, 0
1, 14256, Note_on_c, 1, 59, 127
1, 14278, Note_off_c, 1, 66, 0
1, 14278, Note_off_c, 1, 70, 0
1, 14282, Note_off_c, 1, 59, 0
1, 14286, Note_on_c, 1, 47, 127
1, 14312, Note_off_c, 1, 47, 0
1, 14316, Note_on_c, 1, 59, 127
1, 14342, Note_off_c, 1, 59, 0
1, 14346, Note_on_c, 1, 47, 127
1, 14346, Note_on_c, 1, 68, 127
1, 14346, Note_on_c, 1, 63, 127
1, 14372, Note_off_c, 1, 47, 0
1, 14372, Note_off_c, 1, 68, 0
1, 14376, Note_on_c, 1, 59, 127
1, 14376, Note_on_c, 1, 66, 127
1, 14398, Note_off_c, 1, 63, 0
1, 14402, Note_off_c, 1, 59, 0
1, 14402, Note_off_c, 1, 66, 0
1, 14406, Note_on_c, 1, 53, 127
1, 14432, Note_off_c, 1, 53, 0
1, 14436, Note_on_c, 1, 59, 127
1, 14462, Note_off_c, 1, 59, 0
1, 14466, Note_on_c, 1, 53, 127
1, 14466, Note_on_c, 1, 62, 127
1, 14466, Note_on_c, 1, 68, 127
1, 14492, Note_off_c, 1, 53, 0
1, 14492, Note_off_c, 1, 62, 0
1, 14492, Note_off_c, 1, 68, 0
1, 14496, Note_on_c, 1, 59, 127
1, 14496, Note_on_c, 1, 63, 127
1, 14496, Note_on_c, 1, 66, 127
1, 14522, Note_off_c, 1, 59, 0
1, 14522, Note_off_c, 1, 63, 0
1, 14522, Note_off_c, 1, 66, 0
1, 14526, Note_on_c, 1, 51, 127
1, 14526, Note_on_c, 1, 65, 127
1, 14526, Note_on_c, 1, 68, 127
1, 14552, Note_off_c, 1, 51, 0
1, 14556, Note_on_c, 1, 59, 127
1, 14578, Note_off_c, 1, 65, 0
1, 14578, Note_off_c, 1, 68, 0
1, 14582, Note_off_c, 1, 59, 0
1, 14586, Note_on_c, 1, 51, 127
1, 14586, Note_on_c, 1, 68, 127
1, 14586, Note_on_c, 1, 77, 127
1, 14612, Note_off_c, 1, 51, 0
1, 14616, Note_on_c, 1, 59, 127
1, 14638, Note_off_c, 1, 68, 0
1, 14638, Note_off_c, 1, 77, 0
1, 14642, Note_off_c, 1, 59, 0
1, 14646, Note_on_c, 1, 50, 127
1, 14672, Note_off_c, 1, 50, 0
1, 14676, Note_on_c, 1, 58, 127
1, 14702, Note_off_c, 1, 58, 0
1, 14706, Note_on_c, 1, 50, 127
1, 14706, Note_on_c, 1, 65, 127
1, 14706, Note_on_c, 1, 68, 127
1, 14732, Note_off_c, 1, 50, 0
1, 14736, Note_on_c, 1, 58, 127
1, 14758, Note_off_c, 1, 65, 0
1, 14758, Note_off_c, 1, 68, 0
1, 14762, Note_off_c, 1, 58, 0
1, 14766, Note_on_c, 1, 46, 127
1, 14792, Note_off_c, 1, 46, 0
1, 14796, Note_on_c, 1, 58, 127
1, 14822, Note_off_c, 1, 58, 0
1, 14826, Note_on_c, 1, 46, 127
1, 14826, Note_on_c, 1, 66, 127
1, 14826, Note_on_c, 1, 62, 127
1, 14852, Note_off_c, 1, 46, 0
1, 14852, Note_off_c, 1, 66, 0
1, 14856, Note_on_c, 1, 58, 127
1, 14856, Note_on_c, 1, 65, 127
1, 14878, Note_off_c, 1, 62, 0
1, 14882, Note_off_c, 1, 58, 0
1, 14882, Note_off_c, 1, 65, 0
1, 14886, Note_on_c, 1, 51, 127
1, 14886, Note_on_c, 1, 63, 127
1, 14886, Note_on_c, 1, 66, 127
1, 14912, Note_off_c, 1, 51, 0
1, 14916, Note_on_c, 1, 54, 127
1, 14942, Note_off_c, 1, 54, 0
1, 14946, Note_on_c, 1, 56, 127
1, 14972, Note_off_c, 1, 56, 0
1, 14976, Note_on_c, 1, 58, 127
1, 14991, Note_off_c, 1, 63, 0
1, 14991, Note_off_c, 1, 66, 0
1, 15002, Note_off_c, 1, 58, 0
1, 15006, Note_on_c, 1, 59, 127
1, 15036, Note_on_c, 1, 70, 127
1, 15058, Note_off_c, 1, 59, 0
1, 15062, Note_off_c, 1, 70, 0
1, 15066, Note_on_c, 1, 68, 127
1, 15066, Note_on_c, 1, 51, 127
1, 15092, Note_off_c, 1, 68, 0
1, 15096, Note_on_c, 1, 66, 127
1, 15118, Note_off_c, 1, 51, 0
1, 15122, Note_off_c, 1, 66, 0
1, 15126, Note_on_c, 1, 65, 127
1, 15126, Note_on_c, 1, 50, 127
1, 15152, Note_off_c, 1, 65, 0
1, 15156, Note_on_c, 1, 63, 127
1, 15178, Note_off_c, 1, 50, 0
1, 15182, Note_off_c, 1, 63, 0
1, 15186, Note_on_c, 1, 65, 127
1, 15186, Note_on_c, 1, 59, 127
1, 15212, Note_off_c, 1, 65, 0
1, 15216, Note_on_c, 1, 68, 127
1, 15238, Note_off_c, 1, 59, 0
1, 15242, Note_off_c, 1, 68, 0
1, 15246, Note_on_c, 1, 67, 127
1, 15246, Note_on_c, 1, 58, 127
1, 15272, Note_off_c, 1, 67, 0
1, 15276, Note_on_c, 1, 65, 127
1, 15298, Note_off_c, 1, 58, 0
1, 15302, Note_off_c, 1, 65, 0
1, 15306, Note_on_c, 1, 67, 127
1, 15306, Note_on_c, 1, 49, 127
1, 15332, Note_off_c, 1, 67, 0
1, 15336, Note_on_c, 1, 70, 127
1, 15358, Note_off_c, 1, 49, 0
1, 15362, Note_off_c, 1, 70, 0
1, 15366, Note_on_c, 1, 48, 127
1, 15366, Note_on_c, 1, 70, 127
1, 15392, Note_off_c, 1, 48, 0
1, 15396, Note_on_c, 1, 51, 127
1, 15418, Note_off_c, 1, 70, 0
1, 15422, Note_off_c, 1, 51, 0
1, 15426, Note_on_c, 1, 53, 127
1, 15426, Note_on_c, 1, 68, 127
1, 15452, Note_off_c, 1, 53, 0
1, 15456, Note_on_c, 1, 55, 127
1, 15478, Note_off_c, 1, 68, 0
1, 15482, Note_off_c, 1, 55, 0
1, 15486, Note_on_c, 1, 56, 127
1, 15516, Note_on_c, 1, 66, 127
1, 15538, Note_off_c, 1, 56, 0
1, 15542, Note_off_c, 1, 66, 0
1, 15546, Note_on_c, 1, 64, 127
1, 15546, Note_on_c, 1, 47, 127
1, 15572, Note_off_c, 1, 64, 0
1, 15576, Note_on_c, 1, 63, 127
1, 15598, Note_off_c, 1, 47, 0
1, 15602, Note_off_c, 1, 63, 0
1, 15606, Note_on_c, 1, 61, 127
1, 15606, Note_on_c, 1, 46, 127
1, 15632, Note_off_c, 1, 61, 0
1, 15636, Note_on_c, 1, 60, 127
1, 15658, Note_off_c, 1, 46, 0
1, 15662, Note_off_c, 1, 60, 0
1, 15666, Note_on_c, 1, 61, 127
1, 15666, Note_on_c, 1, 55, 127
1, 15692, Note_off_c, 1, 61, 0
1, 15696, Note_on_c, 1, 64, 127
1, 15718, Note_off_c, 1, 55, 0
1, 15722, Note_off_c, 1, 64, 0
1, 15726, Note_on_c, 1, 63, 127
1, 15726, Note_on_c, 1, 54, 127
1, 15752, Note_off_c, 1, 63, 0
1, 15756, Note_on_c, 1, 61, 127
1, 15778, Note_off_c, 1, 54, 0
1, 15782, Note_off_c, 1, 61, 0
1, 15786, Note_on_c, 1, 63, 127
1, 15786, Note_on_c, 1, 45, 127
1, 15812, Note_off_c, 1, 63, 0
1, 15816, Note_on_c, 1, 66, 127
1, 15838, Note_off_c, 1, 45, 0
1, 15842, Note_off_c, 1, 66, 0
1, 15846, Note_on_c, 1, 44, 127
1, 15846, Note_on_c, 1, 66, 127
1, 15872, Note_off_c, 1, 44, 0
1, 15876, Note_on_c, 1, 48, 127
1, 15898, Note_off_c, 1, 66, 0
1, 15902, Note_off_c, 1, 48, 0
1, 15906, Note_on_c, 1, 49, 127
1, 15906, Note_on_c, 1, 64, 127
1, 15932, Note_off_c, 1, 49, 0
1, 15936, Note_on_c, 1, 51, 127
1, 15958, Note_off_c, 1, 64, 0
1, 15962, Note_off_c, 1, 51, 0
1, 15966, Note_on_c, 1, 52, 127
1, 15996, Note_on_c, 1, 63, 127
1, 16018, Note_off_c, 1, 52, 0
1, 16022, Note_off_c, 1, 63, 0
1, 16026, Note_on_c, 1, 61, 127
1, 16026, Note_on_c, 1, 44, 127
1, 16052, Note_off_c, 1, 61, 0
1, 16056, Note_on_c, 1, 59, 127
1, 16078, Note_off_c, 1, 44, 0
1, 16082, Note_off_c, 1, 59, 0
1, 16086, Note_on_c, 1, 58, 127
1, 16086, Note_on_c, 1, 43, 127
1, 16112, Note_off_c, 1, 58, 0
1, 16116, Note_on_c, 1, 56, 127
1, 16138, Note_off_c, 1, 43, 0
1, 16142, Note_off_c, 1, 56, 0
1, 16146, Note_on_c, 1, 58, 127
1, 16146, Note_on_c, 1, 52, 127
1, 16172, Note_off_c, 1, 58, 0
1, 16176, Note_on_c, 1, 61, 127
1, 16198, Note_off_c, 1, 52, 0
1, 16202, Note_off_c, 1, 61, 0
1, 16206, Note_on_c, 1, 60, 127
1, 16206, Note_on_c, 1, 51, 127
1, 16232, Note_off_c, 1, 60, 0
1, 16236, Note_on_c, 1, 58, 127
1, 16258, Note_off_c, 1, 51, 0
1, 16262, Note_off_c, 1, 58, 0
1, 16266, Note_on_c, 1, 60, 127
1, 16266, Note_on_c, 1, 42, 127
1, 16292, Note_off_c, 1, 60, 0
1, 16296, Note_on_c, 1, 63, 127
1, 16318, Note_off_c, 1, 42, 0
1, 16322, Note_off_c, 1, 63, 0
1, 16326, Note_on_c, 1, 56, 127
1, 16326, Note_on_c, 1, 41, 127
1, 16352, Note_off_c, 1, 56, 0
1, 16356, Note_on_c, 1, 55, 127
1, 16378, Note_off_c, 1, 41, 0
1, 16382, Note_off_c, 1, 55, 0
1, 16386, Note_on_c, 1, 56, 127
1, 16386, Note_on_c, 1, 50, 127
1, 16412, Note_off_c, 1, 56, 0
1, 16416, Note_on_c, 1, 59, 127
1, 16438, Note_off_c, 1, 50, 0
1, 16442, Note_off_c, 1, 59, 0
1, 16446, Note_on_c, 1, 58, 127
1, 16446, Note_on_c, 1, 49, 127
1, 16472, Note_off_c, 1, 58, 0
1, 16476, Note_on_c, 1, 56, 127
1, 16498, Note_off_c, 1, 49, 0
1, 16502, Note_off_c, 1, 56, 0
1, 16506, Note_on_c, 1, 58, 127
1, 16506, Note_on_c, 1, 40, 127
1, 16532, Note_off_c, 1, 58, 0
1, 16536, Note_on_c, 1, 61, 127
1, 16558, Note_off_c, 1, 40, 0
1, 16562, Note_off_c, 1, 61, 0
1, 16566, Note_on_c, 1, 55, 127
1, 16566, Note_on_c, 1, 39, 127
1, 16592, Note_off_c, 1, 55, 0
1, 16596, Note_on_c, 1, 64, 127
1, 16618, Note_off_c, 1, 39, 0
1, 16622, Note_off_c, 1, 64, 0
1, 16626, Note_on_c, 1, 63, 127
1, 16626, Note_on_c, 1, 41, 127
1, 16652, Note_off_c, 1, 63, 0
1, 16656, Note_on_c, 1, 61, 127
1, 16678, Note_off_c, 1, 41, 0
1, 16682, Note_off_c, 1, 61, 0
1, 16686, Note_on_c, 1, 70, 127
1, 16686, Note_on_c, 1, 43, 127
1, 16712, Note_off_c, 1, 70, 0
1, 16716, Note_on_c, 1, 61, 127
1, 16738, Note_off_c, 1, 43, 0
1, 16742, Note_off_c, 1, 61, 0
1, 16746, Note_on_c, 1, 70, 127
1, 16746, Note_on_c, 1, 39, 127
1, 16772, Note_off_c, 1, 70, 0
1, 16776, Note_on_c, 1, 61, 127
1, 16798, Note_off_c, 1, 39, 0
1, 16802, Note_off_c, 1, 61, 0
1, 16806, Note_on_c, 1, 60, 127
1, 16806, Note_on_c, 1, 44, 127
1, 16832, Note_off_c, 1, 60, 0
1, 16836, Note_on_c, 1, 69, 127
1, 16858, Note_off_c, 1, 44, 0
1, 16862, Note_off_c, 1, 69, 0
1, 16866, Note_on_c, 1, 68, 127
1, 16866, Note_on_c, 1, 46, 127
1, 16892, Note_off_c, 1, 68, 0
1, 16896, Note_on_c, 1, 66, 127
1, 16918, Note_off_c, 1, 46, 0
1, 16922, Note_off_c, 1, 66, 0
1, 16926, Note_on_c, 1, 75, 127
1, 16926, Note_on_c, 1, 48, 127
1, 16952, Note_off_c, 1, 75, 0
1, 16956, Note_on_c, 1, 66, 127
1, 16978, Note_off_c, 1, 48, 0
1, 16982, Note_off_c, 1, 66, 0
1, 16986, Note_on_c, 1, 75, 127
1, 16986, Note_on_c, 1, 44, 127
1, 17012, Note_off_c, 1, 75, 0
1, 17016, Note_on_c, 1, 66, 127
1, 17038, Note_off_c, 1, 44, 0
1, 17042, Note_off_c, 1, 66, 0
1, 17046, Note_on_c, 1, 65, 127
1, 17046, Note_on_c, 1, 49, 127
1, 17072, Note_off_c, 1, 65, 0
1, 17076, Note_on_c, 1, 62, 127
1, 17098, Note_off_c, 1, 49, 0
1, 17102, Note_off_c, 1, 62, 0
1, 17106, Note_on_c, 1, 61, 127
1, 17106, Note_on_c, 1, 51, 127
1, 17132, Note_off_c, 1, 61, 0
1, 17136, Note_on_c, 1, 59, 127
1, 17158, Note_off_c, 1, 51, 0
1, 17162, Note_off_c, 1, 59, 0
1, 17166, Note_on_c, 1, 68, 127
1, 17166, Note_on_c, 1, 53, 127
1, 17192, Note_off_c, 1, 68, 0
1, 17196, Note_on_c, 1, 59, 127
1, 17218, Note_off_c, 1, 53, 0
1, 17222, Note_off_c, 1, 59, 0
1, 17226, Note_on_c, 1, 68, 127
1, 17226, Note_on_c, 1, 49, 127
1, 17252, Note_off_c, 1, 68, 0
1, 17256, Note_on_c, 1, 59, 127
1, 17278, Note_off_c, 1, 49, 0
1, 17282, Note_off_c, 1, 59, 0
1, 17286, Note_on_c, 1, 58, 127
1, 17286, Note_on_c, 1, 54, 127
1, 17312, Note_off_c, 1, 58, 0
1, 17316, Note_on_c, 1, 67, 127
1, 17338, Note_off_c, 1, 54, 0
1, 17342, Note_off_c, 1, 67, 0
1, 17346, Note_on_c, 1, 66, 127
1, 17346, Note_on_c, 1, 56, 127
1, 17372, Note_off_c, 1, 66, 0
1, 17376, Note_on_c, 1, 64, 127
1, 17398, Note_off_c, 1, 56, 0
1, 17402, Note_off_c, 1, 64, 0
1, 17406, Note_on_c, 1, 73, 127
1, 17406, Note_on_c, 1, 58, 127
1, 17432, Note_off_c, 1, 73, 0
1, 17436, Note_on_c, 1, 64, 127
1, 17458, Note_off_c, 1, 58, 0
1, 17462, Note_off_c, 1, 64, 0
1, 17466, Note_on_c, 1, 73, 127
1, 17466, Note_on_c, 1, 54, 127
1, 17492, Note_off_c, 1, 73, 0
1, 17496, Note_on_c, 1, 64, 127
1, 17518, Note_off_c, 1, 54, 0
1, 17522, Note_off_c, 1, 64, 0
1, 17526, Note_on_c, 1, 63, 127
1, 17526, Note_on_c, 1, 59, 127
1, 17552, Note_off_c, 1, 63, 0
1, 17556, Note_on_c, 1, 66, 127
1, 17578, Note_off_c, 1, 59, 0
1, 17582, Note_off_c, 1, 66, 0
1, 17586, Note_on_c, 1, 68, 127
1, 17586, Note_on_c, 1, 58, 127
1, 17612, Note_off_c, 1, 68, 0
1, 17616, Note_on_c, 1, 70, 127
1, 17638, Note_off_c, 1, 58, 0
1, 17642, Note_off_c, 1, 70, 0
1, 17646, Note_on_c, 1, 71, 127
1, 17646, Note_on_c, 1, 56, 127
1, 17672, Note_off_c, 1, 71, 0
1, 17676, Note_on_c, 1, 66, 127
1, 17698, Note_off_c, 1, 56, 0
1, 17702, Note_off_c, 1, 66, 0
1, 17706, Note_on_c, 1, 65, 127
1, 17706, Note_on_c, 1, 54, 127
1, 17732, Note_off_c, 1, 65, 0
1, 17736, Note_on_c, 1, 63, 127
1, 17758, Note_off_c, 1, 54, 0
1, 17762, Note_off_c, 1, 63, 0
1, 17766, Note_on_c, 1, 62, 127
1, 17766, Note_on_c, 1, 53, 127
1, 17792, Note_off_c, 1, 62, 0
1, 17796, Note_on_c, 1, 71, 127
1, 17818, Note_off_c, 1, 53, 0
1, 17822, Note_off_c, 1, 71, 0
1, 17826, Note_on_c, 1, 70, 127
1, 17826, Note_on_c, 1, 56, 127
1, 17852, Note_off_c, 1, 70, 0
1, 17856, Note_on_c, 1, 68, 127
1, 17878, Note_off_c, 1, 56, 0
1, 17882, Note_off_c, 1, 68, 0
1, 17886, Note_on_c, 1, 77, 127
1, 17886, Note_on_c, 1, 50, 127
1, 17912, Note_off_c, 1, 77, 0
1, 17916, Note_on_c, 1, 68, 127
1, 17938, Note_off_c, 1, 50, 0
1, 17942, Note_off_c, 1, 68, 0
1, 17946, Note_on_c, 1, 77, 127
1, 17946, Note_on_c, 1, 46, 127
1, 17972, Note_off_c, 1, 77, 0
1, 17976, Note_on_c, 1, 68, 127
1, 17998, Note_off_c, 1, 46, 0
1, 18002, Note_off_c, 1, 68, 0
1, 18006, Note_on_c, 1, 66, 127
1, 18006, Note_on_c, 1, 51, 127
1, 18032, Note_off_c, 1, 66, 0
1, 18036, Note_on_c, 1, 70, 127
1, 18058, Note_off_c, 1, 51, 0
1, 18062, Note_off_c, 1, 70, 0
1, 18066, Note_on_c, 1, 75, 127
1, 18066, Note_on_c, 1, 49, 127
1, 18092, Note_off_c, 1, 75, 0
1, 18096, Note_on_c, 1, 77, 127
1, 18118, Note_off_c, 1, 49, 0
1, 18122, Note_off_c, 1, 77, 0
1, 18126, Note_on_c, 1, 78, 127
1, 18126, Note_on_c, 1, 48, 127
1, 18152, Note_off_c, 1, 78, 0
1, 18156, Note_on_c, 1, 75, 127
1, 18178, Note_off_c, 1, 48, 0
1, 18182, Note_off_c, 1, 75, 0
1, 18186, Note_on_c, 1, 72, 127
1, 18186, Note_on_c, 1, 46, 127
1, 18212, Note_off_c, 1, 72, 0
1, 18216, Note_on_c, 1, 75, 127
1, 18238, Note_off_c, 1, 46, 0
1, 18242, Note_off_c, 1, 75, 0
1, 18246, Note_on_c, 1, 69, 127
1, 18246, Note_on_c, 1, 48, 127
1, 18272, Note_off_c, 1, 69, 0
1, 18276, Note_on_c, 1, 78, 127
1, 18298, Note_off_c, 1, 48, 0
1, 18302, Note_off_c, 1, 78, 0
1, 18306, Note_on_c, 1, 77, 127
1, 18306, Note_on_c, 1, 51, 127
1, 18332, Note_off_c, 1, 77, 0
1, 18336, Note_on_c, 1, 75, 127
1, 18358, Note_off_c, 1, 51, 0
1, 18362, Note_off_c, 1, 75, 0
1, 18366, Note_on_c, 1, 84, 127
1, 18366, Note_on_c, 1, 45, 127
1, 18392, Note_off_c, 1, 84, 0
1, 18396, Note_on_c, 1, 75, 127
1, 18418, Note_off_c, 1, 45, 0
1, 18422, Note_off_c, 1, 75, 0
1, 18426, Note_on_c, 1, 84, 127
1, 18426, Note_on_c, 1, 41, 127
1, 18452, Note_off_c, 1, 84, 0
1, 18456, Note_on_c, 1, 75, 127
1, 18478, Note_off_c, 1, 41, 0
1, 18482, Note_off_c, 1, 75, 0
1, 18486, Note_on_c, 1, 74, 127
1, 18486, Note_on_c, 1, 46, 127
1, 18512, Note_off_c, 1, 74, 0
1, 18516, Note_on_c, 1, 75, 127
1, 18538, Note_off_c, 1, 46, 0
1, 18542, Note_off_c, 1, 75, 0
1, 18546, Note_on_c, 1, 77, 127
1, 18572, Note_off_c, 1, 77, 0
1, 18576, Note_on_c, 1, 82, 127
1, 18602, Note_off_c, 1, 82, 0
1, 18606, Note_on_c, 1, 70, 127
1, 18632, Note_off_c, 1, 70, 0
1, 18636, Note_on_c, 1, 68, 127
1, 18662, Note_off_c, 1, 68, 0
1, 18666, Note_on_c, 1, 66, 127
1, 18692, Note_off_c, 1, 66, 0
1, 18696, Note_on_c, 1, 65, 127
1, 18722, Note_off_c, 1, 65, 0
1, 18726, Note_on_c, 1, 63, 127
1, 18752, Note_off_c, 1, 63, 0
1, 18756, Note_on_c, 1, 65, 127
1, 18756, Note_on_c, 1, 74, 127
1, 18782, Note_off_c, 1, 65, 0
1, 18782, Note_off_c, 1, 74, 0
1, 18786, Note_on_c, 1, 66, 127
1, 18786, Note_on_c, 1, 75, 127
1, 18812, Note_off_c, 1, 66, 0
1, 18812, Note_off_c, 1, 75, 0
1, 18816, Note_on_c, 1, 68, 127
1, 18816, Note_on_c, 1, 77, 127
1, 18842, Note_off_c, 1, 68, 0
1, 18842, Note_off_c, 1, 77, 0
1, 18846, Note_on_c, 1, 78, 127
1, 18846, Note_on_c, 1, 70, 127
1, 18859, Note_off_c, 1, 78, 0
1, 18861, Note_on_c, 1, 77, 127
1, 18872, Note_off_c, 1, 70, 0
1, 18874, Note_off_c, 1, 77, 0
1, 18876, Note_on_c, 1, 66, 127
1, 18876, Note_on_c, 1, 75, 127
1, 18902, Note_off_c, 1, 66, 0
1, 18902, Note_off_c, 1, 75, 0
1, 18906, Note_on_c, 1, 65, 127
1, 18906, Note_on_c, 1, 80, 127
1, 18906, Note_on_c, 1, 83, 127
1, 18932, Note_off_c, 1, 65, 0
1, 18936, Note_on_c, 1, 63, 127
1, 18958, Note_off_c, 1, 80, 0
1, 18958, Note_off_c, 1, 83, 0
1, 18962, Note_off_c, 1, 63, 0
1, 18966, Note_on_c, 1, 62, 127
1, 18966, Note_on_c, 1, 80, 127
1, 18966, Note_on_c, 1, 83, 127
1, 18992, Note_off_c, 1, 62, 0
1, 18996, Note_on_c, 1, 63, 127
1, 19018, Note_off_c, 1, 80, 0
1, 19018, Note_off_c, 1, 83, 0
1, 19022, Note_off_c, 1, 63, 0
1, 19026, Note_on_c, 1, 65, 127
1, 19026, Note_on_c, 1, 74, 127
1, 19026, Note_on_c, 1, 82, 127
1, 19052, Note_off_c, 1, 65, 0
1, 19056, Note_on_c, 1, 59, 127
1, 19078, Note_off_c, 1, 74, 0
1, 19078, Note_off_c, 1, 82, 0
1, 19082, Note_off_c, 1, 59, 0
1, 19086, Note_on_c, 1, 58, 127
1, 19112, Note_off_c, 1, 58, 0
1, 19116, Note_on_c, 1, 56, 127
1, 19142, Note_off_c, 1, 56, 0
1, 19146, Note_on_c, 1, 54, 127
1, 19172, Note_off_c, 1, 54, 0
1, 19176, Note_on_c, 1, 53, 127
1, 19202, Note_off_c, 1, 53, 0
1, 19206, Note_on_c, 1, 51, 127
1, 19232, Note_off_c, 1, 51, 0
1, 19236, Note_on_c, 1, 58, 127
1, 19262, Note_off_c, 1, 58, 0
1, 19266, Note_on_c, 1, 51, 127
1, 19266, Note_on_c, 1, 75, 127
1, 19266, Note_on_c, 1, 78, 127
1, 19292, Note_off_c, 1, 51, 0
1, 19296, Note_on_c, 1, 58, 127
1, 19318, Note_off_c, 1, 75, 0
1, 19318, Note_off_c, 1, 78, 0
1, 19322, Note_off_c, 1, 58, 0
1, 19326, Note_on_c, 1, 50, 127
1, 19326, Note_on_c, 1, 78, 127
1, 19326, Note_on_c, 1, 75, 127
1, 19352, Note_off_c, 1, 50, 0
1, 19356, Note_on_c, 1, 58, 127
1, 19382, Note_off_c, 1, 58, 0
1, 19385, Note_off_c, 1, 78, 0
1, 19385, Note_off_c, 1, 75, 0
1, 19386, Note_on_c, 1, 50, 127
1, 19386, Note_on_c, 1, 80, 127
1, 19386, Note_on_c, 1, 77, 127
1, 19412, Note_off_c, 1, 50, 0
1, 19416, Note_on_c, 1, 58, 127
1, 19442, Note_off_c, 1, 58, 0
1, 19445, Note_off_c, 1, 80, 0
1, 19445, Note_off_c, 1, 77, 0
1, 19446, Note_on_c, 1, 51, 127
1, 19472, Note_off_c, 1, 51, 0
1, 19476, Note_on_c, 1, 58, 127
1, 19502, Note_off_c, 1, 58, 0
1, 19506, Note_on_c, 1, 51, 127
1, 19506, Note_on_c, 1, 75, 127
1, 19506, Note_on_c, 1, 78, 127
1, 19532, Note_off_c, 1, 51, 0
1, 19536, Note_on_c, 1, 58, 127
1, 19558, Note_off_c, 1, 75, 0
1, 19558, Note_off_c, 1, 78, 0
1, 19562, Note_off_c, 1, 58, 0
1, 19566, Note_on_c, 1, 46, 127
1, 19566, Note_on_c, 1, 78, 127
1, 19566, Note_on_c, 1, 75, 127
1, 19592, Note_off_c, 1, 46, 0
1, 19596, Note_on_c, 1, 56, 127
1, 19622, Note_off_c, 1, 56, 0
1, 19625, Note_off_c, 1, 78, 0
1, 19625, Note_off_c, 1, 75, 0
1, 19626, Note_on_c, 1, 46, 127
1, 19626, Note_on_c, 1, 77, 127
1, 19626, Note_on_c, 1, 74, 127
1, 19652, Note_off_c, 1, 46, 0
1, 19656, Note_on_c, 1, 56, 127
1, 19682, Note_off_c, 1, 56, 0
1, 19685, Note_off_c, 1, 77, 0
1, 19685, Note_off_c, 1, 74, 0
1, 19686, Note_on_c, 1, 47, 127
1, 19712, Note_off_c, 1, 47, 0
1, 19716, Note_on_c, 1, 54, 127
1, 19742, Note_off_c, 1, 54, 0
1, 19746, Note_on_c, 1, 47, 127
1, 19746, Note_on_c, 1, 75, 127
1, 19772, Note_off_c, 1, 47, 0
1, 19776, Note_on_c, 1, 54, 127
1, 19798, Note_off_c, 1, 75, 0
1, 19802, Note_off_c, 1, 54, 0
1, 19806, Note_on_c, 1, 77, 127
1, 19806, Note_on_c, 1, 46, 127
1, 19816, Note_on_c, 1, 75, 127
1, 19821, Note_off_c, 1, 77, 0
1, 19831, Note_off_c, 1, 75, 0
1, 19832, Note_off_c, 1, 46, 0
1, 19836, Note_on_c, 1, 54, 127
1, 19854, Note_on_c, 1, 74, 127
1, 19862, Note_off_c, 1, 54, 0
1, 19863, Note_off_c, 1, 74, 0
1, 19866, Note_on_c, 1, 46, 127
1, 19866, Note_on_c, 1, 75, 127
1, 19892, Note_off_c, 1, 46, 0
1, 19896, Note_on_c, 1, 54, 127
1, 19918, Note_off_c, 1, 75, 0
1, 19922, Note_off_c, 1, 54, 0
1, 19926, Note_on_c, 1, 47, 127
1, 19952, Note_off_c, 1, 47, 0
1, 19956, Note_on_c, 1, 54, 127
1, 19982, Note_off_c, 1, 54, 0
1, 19986, Note_on_c, 1, 47, 127
1, 19986, Note_on_c, 1, 75, 127
1, 20012, Note_off_c, 1, 47, 0
1, 20016, Note_on_c, 1, 54, 127
1, 20038, Note_off_c, 1, 75, 0
1, 20042, Note_off_c, 1, 54, 0
1, 20046, Note_on_c, 1, 75, 127
1, 20046, Note_on_c, 1, 43, 127
1, 20049, Note_off_c, 1, 75, 0
1, 20054, Note_on_c, 1, 73, 127
1, 20059, Note_off_c, 1, 73, 0
1, 20072, Note_off_c, 1, 43, 0
1, 20076, Note_on_c, 1, 52, 127
1, 20080, Note_on_c, 1, 71, 127
1, 20099, Note_off_c, 1, 71, 0
1, 20102, Note_off_c, 1, 52, 0
1, 20106, Note_on_c, 1, 43, 127
1, 20106, Note_on_c, 1, 73, 127
1, 20132, Note_off_c, 1, 43, 0
1, 20132, Note_off_c, 1, 73, 0
1, 20136, Note_on_c, 1, 52, 127
1, 20136, Note_on_c, 1, 82, 127
1, 20162, Note_off_c, 1, 52, 0
1, 20162, Note_off_c, 1, 82, 0
1, 20166, Note_on_c, 1, 44, 127
1, 20166, Note_on_c, 1, 71, 127
1, 20192, Note_off_c, 1, 44, 0
1, 20196, Note_on_c, 1, 51, 127
1, 20218, Note_off_c, 1, 71, 0
1, 20222, Note_off_c, 1, 51, 0
1, 20226, Note_on_c, 1, 44, 127
1, 20226, Note_on_c, 1, 63, 127
1, 20252, Note_off_c, 1, 44, 0
1, 20256, Note_on_c, 1, 51, 127
1, 20278, Note_off_c, 1, 63, 0
1, 20282, Note_off_c, 1, 51, 0
1, 20286, Note_on_c, 1, 64, 127
1, 20286, Note_on_c, 1, 43, 127
1, 20286, Note_on_c, 1, 73, 127
1, 20296, Note_on_c, 1, 63, 127
1, 20301, Note_off_c, 1, 64, 0
1, 20311, Note_off_c, 1, 63, 0
1, 20312, Note_off_c, 1, 43, 0
1, 20316, Note_on_c, 1, 51, 127
1, 20322, Note_on_c, 1, 62, 127
1, 20338, Note_off_c, 1, 73, 0
1, 20342, Note_off_c, 1, 51, 0
1, 20348, Note_off_c, 1, 62, 0
1, 20406, Note_on_c, 1, 44, 127
1, 20406, Note_on_c, 1, 71, 127
1, 20432, Note_off_c, 1, 44, 0
1, 20436, Note_on_c, 1, 51, 127
1, 20458, Note_off_c, 1, 71, 0
1, 20462, Note_off_c, 1, 51, 0
1, 20466, Note_on_c, 1, 64, 127
1, 20466, Note_on_c, 1, 44, 127
1, 20479, Note_off_c, 1, 64, 0
1, 20481, Note_on_c, 1, 63, 127
1, 20492, Note_off_c, 1, 44, 0
1, 20494, Note_off_c, 1, 63, 0
1, 20496, Note_on_c, 1, 51, 127
1, 20496, Note_on_c, 1, 62, 127
1, 20522, Note_off_c, 1, 51, 0
1, 20522, Note_off_c, 1, 62, 0
1, 20526, Note_on_c, 1, 42, 127
1, 20526, Note_on_c, 1, 63, 127
1, 20526, Note_on_c, 1, 70, 127
1, 20552, Note_off_c, 1, 42, 0
1, 20556, Note_on_c, 1, 51, 127
1, 20578, Note_off_c, 1, 63, 0
1, 20578, Note_off_c, 1, 70, 0
1, 20582, Note_off_c, 1, 51, 0
1, 20586, Note_on_c, 1, 42, 127
1, 20586, Note_on_c, 1, 75, 127
1, 20612, Note_off_c, 1, 42, 0
1, 20616, Note_on_c, 1, 51, 127
1, 20638, Note_off_c, 1, 75, 0
1, 20642, Note_off_c, 1, 51, 0
1, 20646, Note_on_c, 1, 41, 127
1, 20646, Note_on_c, 1, 68, 127
1, 20672, Note_off_c, 1, 41, 0
1, 20676, Note_on_c, 1, 51, 127
1, 20702, Note_off_c, 1, 51, 0
1, 20706, Note_on_c, 1, 50, 127
1, 20706, Note_on_c, 1, 77, 127
1, 20732, Note_off_c, 1, 50, 0
1, 20732, Note_off_c, 1, 77, 0
1, 20736, Note_on_c, 1, 48, 127
1, 20736, Note_on_c, 1, 75, 127
1, 20762, Note_off_c, 1, 48, 0
1, 20762, Note_off_c, 1, 75, 0
1, 20796, Note_on_c, 1, 56, 127
1, 20822, Note_off_c, 1, 56, 0
1, 20826, Note_on_c, 1, 53, 127
1, 20826, Note_on_c, 1, 80, 127
1, 20852, Note_off_c, 1, 53, 0
1, 20878, Note_off_c, 1, 80, 0
1, 20886, Note_on_c, 1, 46, 127
1, 20886, Note_on_c, 1, 74, 127
1, 20912, Note_off_c, 1, 68, 0
1, 20912, Note_off_c, 1, 46, 0
1, 20916, Note_on_c, 1, 58, 127
1, 20916, Note_on_c, 1, 70, 127
1, 20938, Note_off_c, 1, 74, 0
1, 20942, Note_off_c, 1, 58, 0
1, 20942, Note_off_c, 1, 70, 0
1, 20946, Note_on_c, 1, 48, 127
1, 20946, Note_on_c, 1, 68, 127
1, 20946, Note_on_c, 1, 77, 127
1, 20972, Note_off_c, 1, 48, 0
1, 20972, Note_off_c, 1, 68, 0
1, 20976, Note_on_c, 1, 58, 127
1, 20976, Note_on_c, 1, 66, 127
1, 20998, Note_off_c, 1, 77, 0
1, 21002, Note_off_c, 1, 58, 0
1, 21002, Note_off_c, 1, 66, 0
1, 21006, Note_on_c, 1, 50, 127
1, 21006, Note_on_c, 1, 65, 127
1, 21006, Note_on_c, 1, 70, 127
1, 21032, Note_off_c, 1, 50, 0
1, 21032, Note_off_c, 1, 65, 0
1, 21036, Note_on_c, 1, 58, 127
1, 21036, Note_on_c, 1, 63, 127
1, 21062, Note_off_c, 1, 58, 0
1, 21062, Note_off_c, 1, 63, 0
1, 21066, Note_on_c, 1, 46, 127
1, 21092, Note_off_c, 1, 46, 0
1, 21096, Note_on_c, 1, 56, 127
1, 21096, Note_on_c, 1, 62, 127
1, 21122, Note_off_c, 1, 56, 0
1, 21122, Note_off_c, 1, 62, 0
1, 21126, Note_on_c, 1, 51, 127
1, 21152, Note_off_c, 1, 51, 0
1, 21156, Note_on_c, 1, 54, 127
1, 21178, Note_off_c, 1, 70, 0
1, 21182, Note_off_c, 1, 54, 0
1, 21186, Note_on_c, 1, 51, 127
1, 21186, Note_on_c, 1, 66, 127
1, 21186, Note_on_c, 1, 70, 127
1, 21212, Note_off_c, 1, 51, 0
1, 21212, Note_off_c, 1, 66, 0
1, 21212, Note_off_c, 1, 70, 0
1, 21216, Note_on_c, 1, 54, 127
1, 21216, Note_on_c, 1, 65, 127
1, 21216, Note_on_c, 1, 68, 127
1, 21242, Note_off_c, 1, 54, 0
1, 21242, Note_off_c, 1, 65, 0
1, 21242, Note_off_c, 1, 68, 0
1, 21246, Note_on_c, 1, 49, 127
1, 21246, Note_on_c, 1, 66, 127
1, 21246, Note_on_c, 1, 70, 127
1, 21272, Note_off_c, 1, 49, 0
1, 21276, Note_on_c, 1, 58, 127
1, 21298, Note_off_c, 1, 66, 0
1, 21298, Note_off_c, 1, 70, 0
1, 21302, Note_off_c, 1, 58, 0
1, 21306, Note_on_c, 1, 49, 127
1, 21306, Note_on_c, 1, 70, 127
1, 21306, Note_on_c, 1, 78, 127
1, 21332, Note_off_c, 1, 49, 0
1, 21336, Note_on_c, 1, 58, 127
1, 21358, Note_off_c, 1, 70, 0
1, 21358, Note_off_c, 1, 78, 0
1, 21362, Note_off_c, 1, 58, 0
1, 21366, Note_on_c, 1, 48, 127
1, 21392, Note_off_c, 1, 48, 0
1, 21396, Note_on_c, 1, 56, 127
1, 21422, Note_off_c, 1, 56, 0
1, 21426, Note_on_c, 1, 48, 127
1, 21426, Note_on_c, 1, 66, 127
1, 21426, Note_on_c, 1, 75, 127
1, 21452, Note_off_c, 1, 48, 0
1, 21456, Note_on_c, 1, 56, 127
1, 21478, Note_off_c, 1, 66, 0
1, 21478, Note_off_c, 1, 75, 0
1, 21482, Note_off_c, 1, 56, 0
1, 21486, Note_on_c, 1, 44, 127
1, 21512, Note_off_c, 1, 44, 0
1, 21516, Note_on_c, 1, 56, 127
1, 21542, Note_off_c, 1, 56, 0
1, 21546, Note_on_c, 1, 44, 127
1, 21546, Note_on_c, 1, 65, 127
1, 21546, Note_on_c, 1, 72, 127
1, 21572, Note_off_c, 1, 44, 0
1, 21572, Note_off_c, 1, 65, 0
1, 21576, Note_on_c, 1, 54, 127
1, 21576, Note_on_c, 1, 63, 127
1, 21598, Note_off_c, 1, 72, 0
1, 21602, Note_off_c, 1, 54, 0
1, 21602, Note_off_c, 1, 63, 0
1, 21606, Note_on_c, 1, 49, 127
1, 21632, Note_off_c, 1, 49, 0
1, 21636, Note_on_c, 1, 53, 127
1, 21662, Note_off_c, 1, 53, 0
1, 21666, Note_on_c, 1, 49, 127
1, 21666, Note_on_c, 1, 65, 127
1, 21666, Note_on_c, 1, 68, 127
1, 21692, Note_off_c, 1, 49, 0
1, 21692, Note_off_c, 1, 65, 0
1, 21692, Note_off_c, 1, 68, 0
1, 21696, Note_on_c, 1, 53, 127
1, 21696, Note_on_c, 1, 63, 127
1, 21696, Note_on_c, 1, 66, 127
1, 21722, Note_off_c, 1, 53, 0
1, 21722, Note_off_c, 1, 63, 0
1, 21722, Note_off_c, 1, 66, 0
1, 21726, Note_on_c, 1, 48, 127
1, 21726, Note_on_c, 1, 65, 127
1, 21726, Note_on_c, 1, 68, 127
1, 21752, Note_off_c, 1, 48, 0
1, 21756, Note_on_c, 1, 56, 127
1, 21778, Note_off_c, 1, 65, 0
1, 21778, Note_off_c, 1, 68, 0
1, 21782, Note_off_c, 1, 56, 0
1, 21786, Note_on_c, 1, 48, 127
1, 21786, Note_on_c, 1, 68, 127
1, 21786, Note_on_c, 1, 77, 127
1, 21812, Note_off_c, 1, 48, 0
1, 21816, Note_on_c, 1, 56, 127
1, 21838, Note_off_c, 1, 68, 0
1, 21838, Note_off_c, 1, 77, 0
1, 21842, Note_off_c, 1, 56, 0
1, 21846, Note_on_c, 1, 46, 127
1, 21872, Note_off_c, 1, 46, 0
1, 21876, Note_on_c, 1, 54, 127
1, 21902, Note_off_c, 1, 54, 0
1, 21906, Note_on_c, 1, 46, 127
1, 21906, Note_on_c, 1, 65, 127
1, 21906, Note_on_c, 1, 73, 127
1, 21932, Note_off_c, 1, 46, 0
1, 21936, Note_on_c, 1, 54, 127
1, 21958, Note_off_c, 1, 65, 0
1, 21958, Note_off_c, 1, 73, 0
1, 21962, Note_off_c, 1, 54, 0
1, 21966, Note_on_c, 1, 42, 127
1, 21992, Note_off_c, 1, 42, 0
1, 21996, Note_on_c, 1, 54, 127
1, 22022, Note_off_c, 1, 54, 0
1, 22026, Note_on_c, 1, 42, 127
1, 22026, Note_on_c, 1, 63, 127
1, 22026, Note_on_c, 1, 70, 127
1, 22052, Note_off_c, 1, 42, 0
1, 22052, Note_off_c, 1, 63, 0
1, 22056, Note_on_c, 1, 53, 127
1, 22056, Note_on_c, 1, 62, 127
1, 22078, Note_off_c, 1, 70, 0
1, 22082, Note_off_c, 1, 53, 0
1, 22082, Note_off_c, 1, 62, 0
1, 22086, Note_on_c, 1, 48, 127
1, 22112, Note_off_c, 1, 48, 0
1, 22116, Note_on_c, 1, 51, 127
1, 22142, Note_off_c, 1, 51, 0
1, 22146, Note_on_c, 1, 48, 127
1, 22146, Note_on_c, 1, 66, 127
1, 22146, Note_on_c, 1, 69, 127
1, 22172, Note_off_c, 1, 48, 0
1, 22172, Note_off_c, 1, 66, 0
1, 22176, Note_on_c, 1, 51, 127
1, 22176, Note_on_c, 1, 65, 127
1, 22198, Note_off_c, 1, 69, 0
1, 22202, Note_off_c, 1, 51, 0
1, 22202, Note_off_c, 1, 65, 0
1, 22206, Note_on_c, 1, 46, 127
1, 22206, Note_on_c, 1, 66, 127
1, 22206, Note_on_c, 1, 70, 127
1, 22232, Note_off_c, 1, 46, 0
1, 22232, Note_off_c, 1, 66, 0
1, 22236, Note_on_c, 1, 54, 127
1, 22236, Note_on_c, 1, 63, 127
1, 22258, Note_off_c, 1, 70, 0
1, 22262, Note_off_c, 1, 54, 0
1, 22262, Note_off_c, 1, 63, 0
1, 22266, Note_on_c, 1, 46, 127
1, 22266, Note_on_c, 1, 72, 127
1, 22266, Note_on_c, 1, 75, 127
1, 22292, Note_off_c, 1, 46, 0
1, 22296, Note_on_c, 1, 54, 127
1, 22318, Note_off_c, 1, 72, 0
1, 22318, Note_off_c, 1, 75, 0
1, 22322, Note_off_c, 1, 54, 0
1, 22326, Note_on_c, 1, 45, 127
1, 22352, Note_off_c, 1, 45, 0
1, 22356, Note_on_c, 1, 53, 127
1, 22382, Note_off_c, 1, 53, 0
1, 22386, Note_on_c, 1, 45, 127
1, 22386, Note_on_c, 1, 72, 127
1, 22386, Note_on_c, 1, 75, 127
1, 22412, Note_off_c, 1, 45, 0
1, 22412, Note_off_c, 1, 72, 0
1, 22416, Note_on_c, 1, 53, 127
1, 22416, Note_on_c, 1, 70, 127
1, 22438, Note_off_c, 1, 75, 0
1, 22442, Note_off_c, 1, 53, 0
1, 22442, Note_off_c, 1, 70, 0
1, 22446, Note_on_c, 1, 41, 127
1, 22446, Note_on_c, 1, 71, 127
1, 22446, Note_on_c, 1, 74, 127
1, 22472, Note_off_c, 1, 41, 0
1, 22472, Note_off_c, 1, 71, 0
1, 22476, Note_on_c, 1, 53, 127
1, 22476, Note_on_c, 1, 68, 127
1, 22498, Note_off_c, 1, 74, 0
1, 22502, Note_off_c, 1, 53, 0
1, 22502, Note_off_c, 1, 68, 0
1, 22506, Note_on_c, 1, 41, 127
1, 22506, Note_on_c, 1, 83, 127
1, 22506, Note_on_c, 1, 80, 127
1, 22532, Note_off_c, 1, 41, 0
1, 22536, Note_on_c, 1, 51, 127
1, 22558, Note_off_c, 1, 83, 0
1, 22562, Note_off_c, 1, 51, 0
1, 22566, Note_on_c, 1, 50, 127
1, 22566, Note_on_c, 1, 82, 127
1, 22592, Note_off_c, 1, 50, 0
1, 22596, Note_on_c, 1, 46, 127
1, 22618, Note_off_c, 1, 80, 0
1, 22622, Note_off_c, 1, 46, 0
1, 22626, Note_on_c, 1, 78, 127
1, 22639, Note_off_c, 1, 78, 0
1, 22641, Note_on_c, 1, 77, 127
1, 22654, Note_off_c, 1, 77, 0
1, 22656, Note_on_c, 1, 54, 127
1, 22656, Note_on_c, 1, 75, 127
1, 22671, Note_off_c, 1, 82, 0
1, 22682, Note_off_c, 1, 54, 0
1, 22682, Note_off_c, 1, 75, 0
1, 22686, Note_on_c, 1, 58, 127
1, 22686, Note_on_c, 1, 74, 127
1, 22716, Note_on_c, 1, 82, 127
1, 22738, Note_off_c, 1, 58, 0
1, 22742, Note_off_c, 1, 82, 0
1, 22746, Note_on_c, 1, 77, 127
1, 22746, Note_on_c, 1, 46, 127
1, 22772, Note_off_c, 1, 77, 0
1, 22776, Note_on_c, 1, 80, 127
1, 22798, Note_off_c, 1, 46, 0
1, 22806, Note_on_c, 1, 39, 127
1, 22858, Note_off_c, 1, 74, 0
1, 22858, Note_off_c, 1, 80, 0
1, 22866, Note_on_c, 1, 75, 127
1, 22866, Note_on_c, 1, 79, 127
1, 22884, Note_off_c, 1, 39, 0
1, 22896, Note_on_c, 1, 43, 127
1, 22909, Note_off_c, 1, 43, 0
1, 22918, Note_off_c, 1, 75, 0
1, 22918, Note_off_c, 1, 79, 0
1, 22926, Note_on_c, 1, 51, 127
1, 23031, Note_off_c, 1, 51, 0
1, 23046, Note_on_c, 1, 75, 127
1, 23072, Note_off_c, 1, 75, 0
1, 23076, Note_on_c, 1, 77, 127
1, 23102, Note_off_c, 1, 77, 0
1, 23106, Note_on_c, 1, 51, 127
1, 23106, Note_on_c, 1, 79, 127
1, 23132, Note_off_c, 1, 51, 0
1, 23132, Note_off_c, 1, 79, 0
1, 23136, Note_on_c, 1, 53, 127
1, 23136, Note_on_c, 1, 80, 127
1, 23162, Note_off_c, 1, 53, 0
1, 23162, Note_off_c, 1, 80, 0
1, 23166, Note_on_c, 1, 82, 127
1, 23166, Note_on_c, 1, 55, 127
1, 23192, Note_off_c, 1, 82, 0
1, 23196, Note_on_c, 1, 76, 127
1, 23218, Note_off_c, 1, 55, 0
1, 23222, Note_off_c, 1, 76, 0
1, 23226, Note_on_c, 1, 75, 127
1, 23226, Note_on_c, 1, 58, 127
1, 23252, Note_off_c, 1, 75, 0
1, 23256, Note_on_c, 1, 73, 127
1, 23278, Note_off_c, 1, 58, 0
1, 23282, Note_off_c, 1, 73, 0
1, 23286, Note_on_c, 1, 72, 127
1, 23286, Note_on_c, 1, 63, 127
1, 23312, Note_off_c, 1, 72, 0
1, 23316, Note_on_c, 1, 73, 127
1, 23338, Note_off_c, 1, 63, 0
1, 23342, Note_off_c, 1, 73, 0
1, 23346, Note_on_c, 1, 75, 127
1, 23346, Note_on_c, 1, 61, 127
1, 23372, Note_off_c, 1, 75, 0
1, 23376, Note_on_c, 1, 69, 127
1, 23398, Note_off_c, 1, 61, 0
1, 23402, Note_off_c, 1, 69, 0
1, 23406, Note_on_c, 1, 68, 127
1, 23406, Note_on_c, 1, 60, 127
1, 23432, Note_off_c, 1, 68, 0
1, 23436, Note_on_c, 1, 66, 127
1, 23458, Note_off_c, 1, 60, 0
1, 23462, Note_off_c, 1, 66, 0
1, 23466, Note_on_c, 1, 64, 127
1, 23466, Note_on_c, 1, 56, 127
1, 23492, Note_off_c, 1, 64, 0
1, 23496, Note_on_c, 1, 63, 127
1, 23518, Note_off_c, 1, 56, 0
1, 23522, Note_off_c, 1, 63, 0
1, 23526, Note_on_c, 1, 64, 127
1, 23526, Note_on_c, 1, 61, 127
1, 23552, Note_off_c, 1, 64, 0
1, 23556, Note_on_c, 1, 73, 127
1, 23578, Note_off_c, 1, 61, 0
1, 23582, Note_off_c, 1, 73, 0
1, 23586, Note_on_c, 1, 64, 127
1, 23586, Note_on_c, 1, 49, 127
1, 23612, Note_off_c, 1, 64, 0
1, 23616, Note_on_c, 1, 73, 127
1, 23638, Note_off_c, 1, 49, 0
1, 23642, Note_off_c, 1, 73, 0
1, 23646, Note_on_c, 1, 65, 127
1, 23646, Note_on_c, 1, 47, 127
1, 23672, Note_off_c, 1, 65, 0
1, 23676, Note_on_c, 1, 74, 127
1, 23698, Note_off_c, 1, 47, 0
1, 23702, Note_off_c, 1, 74, 0
1, 23706, Note_on_c, 1, 65, 127
1, 23706, Note_on_c, 1, 59, 127
1, 23732, Note_off_c, 1, 65, 0
1, 23736, Note_on_c, 1, 74, 127
1, 23758, Note_off_c, 1, 59, 0
1, 23762, Note_off_c, 1, 74, 0
1, 23766, Note_on_c, 1, 73, 127
1, 23766, Note_on_c, 1, 57, 127
1, 23792, Note_off_c, 1, 73, 0
1, 23796, Note_on_c, 1, 69, 127
1, 23818, Note_off_c, 1, 57, 0
1, 23822, Note_off_c, 1, 69, 0
1, 23826, Note_on_c, 1, 68, 127
1, 23826, Note_on_c, 1, 45, 127
1, 23852, Note_off_c, 1, 68, 0
1, 23856, Note_on_c, 1, 66, 127
1, 23878, Note_off_c, 1, 45, 0
1, 23882, Note_off_c, 1, 66, 0
1, 23886, Note_on_c, 1, 65, 127
1, 23886, Note_on_c, 1, 44, 127
1, 23912, Note_off_c, 1, 65, 0
1, 23916, Note_on_c, 1, 74, 127
1, 23938, Note_off_c, 1, 44, 0
1, 23942, Note_off_c, 1, 74, 0
1, 23946, Note_on_c, 1, 73, 127
1, 23946, Note_on_c, 1, 56, 127
1, 23972, Note_off_c, 1, 73, 0
1, 23976, Note_on_c, 1, 71, 127
1, 23998, Note_off_c, 1, 56, 0
1, 24002, Note_off_c, 1, 71, 0
1, 24006, Note_on_c, 1, 70, 127
1, 24006, Note_on_c, 1, 54, 127
1, 24032, Note_off_c, 1, 70, 0
1, 24036, Note_on_c, 1, 71, 127
1, 24058, Note_off_c, 1, 54, 0
1, 24062, Note_off_c, 1, 71, 0
1, 24066, Note_on_c, 1, 73, 127
1, 24066, Note_on_c, 1, 42, 127
1, 24092, Note_off_c, 1, 73, 0
1, 24096, Note_on_c, 1, 75, 127
1, 24118, Note_off_c, 1, 42, 0
1, 24122, Note_off_c, 1, 75, 0
1, 24126, Note_on_c, 1, 76, 127
1, 24126, Note_on_c, 1, 49, 127
1, 24152, Note_off_c, 1, 76, 0
1, 24156, Note_on_c, 1, 71, 127
1, 24178, Note_off_c, 1, 49, 0
1, 24182, Note_off_c, 1, 71, 0
1, 24186, Note_on_c, 1, 69, 127
1, 24186, Note_on_c, 1, 52, 127
1, 24212, Note_off_c, 1, 69, 0
1, 24216, Note_on_c, 1, 68, 127
1, 24238, Note_off_c, 1, 52, 0
1, 24242, Note_off_c, 1, 68, 0
1, 24246, Note_on_c, 1, 67, 127
1, 24246, Note_on_c, 1, 46, 127
1, 24272, Note_off_c, 1, 67, 0
1, 24276, Note_on_c, 1, 68, 127
1, 24298, Note_off_c, 1, 46, 0
1, 24302, Note_off_c, 1, 68, 0
1, 24306, Note_on_c, 1, 70, 127
1, 24306, Note_on_c, 1, 49, 127
1, 24332, Note_off_c, 1, 70, 0
1, 24336, Note_on_c, 1, 64, 127
1, 24358, Note_off_c, 1, 49, 0
1, 24362, Note_off_c, 1, 64, 0
1, 24366, Note_on_c, 1, 63, 127
1, 24366, Note_on_c, 1, 43, 127
1, 24392, Note_off_c, 1, 63, 0
1, 24396, Note_on_c, 1, 61, 127
1, 24418, Note_off_c, 1, 43, 0
1, 24422, Note_off_c, 1, 61, 0
1, 24426, Note_on_c, 1, 59, 127
1, 24426, Note_on_c, 1, 51, 127
1, 24452, Note_off_c, 1, 59, 0
1, 24456, Note_on_c, 1, 58, 127
1, 24478, Note_off_c, 1, 51, 0
1, 24482, Note_off_c, 1, 58, 0
1, 24486, Note_on_c, 1, 59, 127
1, 24486, Note_on_c, 1, 56, 127
1, 24512, Note_off_c, 1, 59, 0
1, 24516, Note_on_c, 1, 68, 127
1, 24538, Note_off_c, 1, 56, 0
1, 24542, Note_off_c, 1, 68, 0
1, 24546, Note_on_c, 1, 59, 127
1, 24546, Note_on_c, 1, 44, 127
1, 24572, Note_off_c, 1, 59, 0
1, 24576, Note_on_c, 1, 68, 127
1, 24598, Note_off_c, 1, 44, 0
1, 24602, Note_off_c, 1, 68, 0
1, 24606, Note_on_c, 1, 60, 127
1, 24606, Note_on_c, 1, 42, 127
1, 24632, Note_off_c, 1, 60, 0
1, 24636, Note_on_c, 1, 69, 127
1, 24658, Note_off_c, 1, 42, 0
1, 24662, Note_off_c, 1, 69, 0
1, 24666, Note_on_c, 1, 60, 127
1, 24666, Note_on_c, 1, 54, 127
1, 24692, Note_off_c, 1, 60, 0
1, 24696, Note_on_c, 1, 69, 127
1, 24718, Note_off_c, 1, 54, 0
1, 24722, Note_off_c, 1, 69, 0
1, 24726, Note_on_c, 1, 68, 127
1, 24726, Note_on_c, 1, 52, 127
1, 24752, Note_off_c, 1, 68, 0
1, 24756, Note_on_c, 1, 64, 127
1, 24778, Note_off_c, 1, 52, 0
1, 24782, Note_off_c, 1, 64, 0
1, 24786, Note_on_c, 1, 63, 127
1, 24786, Note_on_c, 1, 40, 127
1, 24812, Note_off_c, 1, 63, 0
1, 24816, Note_on_c, 1, 61, 127
1, 24838, Note_off_c, 1, 40, 0
1, 24842, Note_off_c, 1, 61, 0
1, 24846, Note_on_c, 1, 60, 127
1, 24846, Note_on_c, 1, 39, 127
1, 24872, Note_off_c, 1, 60, 0
1, 24876, Note_on_c, 1, 69, 127
1, 24898, Note_off_c, 1, 39, 0
1, 24902, Note_off_c, 1, 69, 0
1, 24906, Note_on_c, 1, 68, 127
1, 24906, Note_on_c, 1, 51, 127
1, 24932, Note_off_c, 1, 68, 0
1, 24936, Note_on_c, 1, 66, 127
1, 24958, Note_off_c, 1, 51, 0
1, 24962, Note_off_c, 1, 66, 0
1, 24966, Note_on_c, 1, 65, 127
1, 24966, Note_on_c, 1, 49, 127
1, 24992, Note_off_c, 1, 65, 0
1, 24996, Note_on_c, 1, 66, 127
1, 25018, Note_off_c, 1, 49, 0
1, 25022, Note_off_c, 1, 66, 0
1, 25026, Note_on_c, 1, 68, 127
1, 25026, Note_on_c, 1, 37, 127
1, 25052, Note_off_c, 1, 68, 0
1, 25056, Note_on_c, 1, 70, 127
1, 25078, Note_off_c, 1, 37, 0
1, 25082, Note_off_c, 1, 70, 0
1, 25086, Note_on_c, 1, 71, 127
1, 25112, Note_off_c, 1, 71, 0
1, 25116, Note_on_c, 1, 61, 127
1, 25116, Note_on_c, 1, 74, 127
1, 25142, Note_off_c, 1, 61, 0
1, 25142, Note_off_c, 1, 74, 0
1, 25146, Note_on_c, 1, 63, 127
1, 25146, Note_on_c, 1, 73, 127
1, 25172, Note_off_c, 1, 63, 0
1, 25172, Note_off_c, 1, 73, 0
1, 25176, Note_on_c, 1, 65, 127
1, 25176, Note_on_c, 1, 71, 127
1, 25202, Note_off_c, 1, 65, 0
1, 25202, Note_off_c, 1, 71, 0
1, 25206, Note_on_c, 1, 70, 127
1, 25206, Note_on_c, 1, 66, 127
1, 25232, Note_off_c, 1, 70, 0
1, 25236, Note_on_c, 1, 71, 127
1, 25258, Note_off_c, 1, 66, 0
1, 25262, Note_off_c, 1, 71, 0
1, 25266, Note_on_c, 1, 73, 127
1, 25266, Note_on_c, 1, 54, 127
1, 25292, Note_off_c, 1, 73, 0
1, 25296, Note_on_c, 1, 67, 127
1, 25318, Note_off_c, 1, 54, 0
1, 25322, Note_off_c, 1, 67, 0
1, 25326, Note_on_c, 1, 66, 127
1, 25352, Note_off_c, 1, 66, 0
1, 25356, Note_on_c, 1, 54, 127
1, 25356, Note_on_c, 1, 64, 127
1, 25382, Note_off_c, 1, 54, 0
1, 25382, Note_off_c, 1, 64, 0
1, 25386, Note_on_c, 1, 56, 127
1, 25386, Note_on_c, 1, 63, 127
1, 25412, Note_off_c, 1, 56, 0
1, 25412, Note_off_c, 1, 63, 0
1, 25416, Note_on_c, 1, 58, 127
1, 25416, Note_on_c, 1, 61, 127
1, 25442, Note_off_c, 1, 58, 0
1, 25442, Note_off_c, 1, 61, 0
1, 25446, Note_on_c, 1, 63, 127
1, 25446, Note_on_c, 1, 59, 127
1, 25472, Note_off_c, 1, 63, 0
1, 25476, Note_on_c, 1, 64, 127
1, 25498, Note_off_c, 1, 59, 0
1, 25502, Note_off_c, 1, 64, 0
1, 25506, Note_on_c, 1, 66, 127
1, 25506, Note_on_c, 1, 47, 127
1, 25532, Note_off_c, 1, 66, 0
1, 25536, Note_on_c, 1, 68, 127
1, 25558, Note_off_c, 1, 47, 0
1, 25562, Note_off_c, 1, 68, 0
1, 25566, Note_on_c, 1, 69, 127
1, 25592, Note_off_c, 1, 69, 0
1, 25596, Note_on_c, 1, 47, 127
1, 25596, Note_on_c, 1, 73, 127
1, 25622, Note_off_c, 1, 47, 0
1, 25622, Note_off_c, 1, 73, 0
1, 25626, Note_on_c, 1, 49, 127
1, 25626, Note_on_c, 1, 71, 127
1, 25652, Note_off_c, 1, 49, 0
1, 25652, Note_off_c, 1, 71, 0
1, 25656, Note_on_c, 1, 51, 127
1, 25656, Note_on_c, 1, 69, 127
1, 25682, Note_off_c, 1, 51, 0
1, 25682, Note_off_c, 1, 69, 0
1, 25686, Note_on_c, 1, 68, 127
1, 25686, Note_on_c, 1, 52, 127
1, 25712, Note_off_c, 1, 68, 0
1, 25716, Note_on_c, 1, 69, 127
1, 25738, Note_off_c, 1, 52, 0
1, 25742, Note_off_c, 1, 69, 0
1, 25746, Note_on_c, 1, 71, 127
1, 25746, Note_on_c, 1, 40, 127
1, 25772, Note_off_c, 1, 71, 0
1, 25776, Note_on_c, 1, 66, 127
1, 25798, Note_off_c, 1, 40, 0
1, 25802, Note_off_c, 1, 66, 0
1, 25806, Note_on_c, 1, 64, 127
1, 25832, Note_off_c, 1, 64, 0
1, 25836, Note_on_c, 1, 40, 127
1, 25836, Note_on_c, 1, 62, 127
1, 25862, Note_off_c, 1, 40, 0
1, 25862, Note_off_c, 1, 62, 0
1, 25866, Note_on_c, 1, 42, 127
1, 25866, Note_on_c, 1, 61, 127
1, 25892, Note_off_c, 1, 42, 0
1, 25892, Note_off_c, 1, 61, 0
1, 25896, Note_on_c, 1, 44, 127
1, 25896, Note_on_c, 1, 59, 127
1, 25922, Note_off_c, 1, 44, 0
1, 25922, Note_off_c, 1, 59, 0
1, 25926, Note_on_c, 1, 45, 127
1, 25926, Note_on_c, 1, 61, 127
1, 25952, Note_off_c, 1, 45, 0
1, 25956, Note_on_c, 1, 52, 127
1, 25978, Note_off_c, 1, 61, 0
1, 25982, Note_off_c, 1, 52, 0
1, 25986, Note_on_c, 1, 45, 127
1, 25986, Note_on_c, 1, 61, 127
1, 25986, Note_on_c, 1, 69, 127
1, 26012, Note_off_c, 1, 45, 0
1, 26016, Note_on_c, 1, 52, 127
1, 26038, Note_off_c, 1, 61, 0
1, 26038, Note_off_c, 1, 69, 0
1, 26042, Note_off_c, 1, 52, 0
1, 26046, Note_on_c, 1, 44, 127
1, 26046, Note_on_c, 1, 62, 127
1, 26046, Note_on_c, 1, 71, 127
1, 26072, Note_off_c, 1, 44, 0
1, 26076, Note_on_c, 1, 52, 127
1, 26102, Note_off_c, 1, 52, 0
1, 26151, Note_off_c, 1, 62, 0
1, 26151, Note_off_c, 1, 71, 0
1, 26166, Note_on_c, 1, 45, 127
1, 26192, Note_off_c, 1, 45, 0
1, 26196, Note_on_c, 1, 52, 127
1, 26222, Note_off_c, 1, 52, 0
1, 26226, Note_on_c, 1, 45, 127
1, 26226, Note_on_c, 1, 61, 127
1, 26226, Note_on_c, 1, 69, 127
1, 26252, Note_off_c, 1, 45, 0
1, 26256, Note_on_c, 1, 52, 127
1, 26278, Note_off_c, 1, 61, 0
1, 26278, Note_off_c, 1, 69, 0
1, 26282, Note_off_c, 1, 52, 0
1, 26286, Note_on_c, 1, 41, 127
1, 26286, Note_on_c, 1, 59, 127
1, 26286, Note_on_c, 1, 68, 127
1, 26312, Note_off_c, 1, 41, 0
1, 26316, Note_on_c, 1, 50, 127
1, 26342, Note_off_c, 1, 50, 0
1, 26391, Note_off_c, 1, 59, 0
1, 26391, Note_off_c, 1, 68, 0
1, 26406, Note_on_c, 1, 42, 127
1, 26432, Note_off_c, 1, 42, 0
1, 26436, Note_on_c, 1, 49, 127
1, 26462, Note_off_c, 1, 49, 0
1, 26466, Note_on_c, 1, 42, 127
1, 26466, Note_on_c, 1, 57, 127
1, 26466, Note_on_c, 1, 66, 127
1, 26492, Note_off_c, 1, 42, 0
1, 26492, Note_off_c, 1, 57, 0
1, 26492, Note_off_c, 1, 66, 0
1, 26496, Note_on_c, 1, 49, 127
1, 26496, Note_on_c, 1, 59, 127
1, 26496, Note_on_c, 1, 68, 127
1, 26522, Note_off_c, 1, 49, 0
1, 26522, Note_off_c, 1, 59, 0
1, 26522, Note_off_c, 1, 68, 0
1, 26526, Note_on_c, 1, 40, 127
1, 26526, Note_on_c, 1, 61, 127
1, 26526, Note_on_c, 1, 69, 127
1, 26552, Note_off_c, 1, 40, 0
1, 26556, Note_on_c, 1, 49, 127
1, 26578, Note_off_c, 1, 61, 0
1, 26578, Note_off_c, 1, 69, 0
1, 26582, Note_off_c, 1, 49, 0
1, 26586, Note_on_c, 1, 40, 127
1, 26586, Note_on_c, 1, 68, 127
1, 26586, Note_on_c, 1, 73, 127
1, 26612, Note_off_c, 1, 40, 0
1, 26616, Note_on_c, 1, 49, 127
1, 26638, Note_off_c, 1, 68, 0
1, 26638, Note_off_c, 1, 73, 0
1, 26642, Note_off_c, 1, 49, 0
1, 26646, Note_on_c, 1, 39, 127
1, 26672, Note_off_c, 1, 39, 0
1, 26676, Note_on_c, 1, 43, 127
1, 26702, Note_off_c, 1, 43, 0
1, 26706, Note_on_c, 1, 46, 127
1, 26706, Note_on_c, 1, 67, 127
1, 26706, Note_on_c, 1, 76, 127
1, 26732, Note_off_c, 1, 46, 0
1, 26736, Note_on_c, 1, 49, 127
1, 26758, Note_off_c, 1, 67, 0
1, 26758, Note_off_c, 1, 76, 0
1, 26762, Note_off_c, 1, 49, 0
1, 26766, Note_on_c, 1, 47, 127
1, 26766, Note_on_c, 1, 68, 127
1, 26766, Note_on_c, 1, 75, 127
1, 26792, Note_off_c, 1, 47, 0
1, 26796, Note_on_c, 1, 46, 127
1, 26818, Note_off_c, 1, 68, 0
1, 26818, Note_off_c, 1, 75, 0
1, 26822, Note_off_c, 1, 46, 0
1, 26826, Note_on_c, 1, 44, 127
1, 26826, Note_on_c, 1, 70, 127
1, 26826, Note_on_c, 1, 73, 127
1, 26852, Note_off_c, 1, 44, 0
1, 26856, Note_on_c, 1, 43, 127
1, 26878, Note_off_c, 1, 70, 0
1, 26878, Note_off_c, 1, 73, 0
1, 26882, Note_off_c, 1, 43, 0
1, 26886, Note_on_c, 1, 44, 127
1, 26912, Note_off_c, 1, 44, 0
1, 26916, Note_on_c, 1, 51, 127
1, 26942, Note_off_c, 1, 51, 0
1, 26946, Note_on_c, 1, 44, 127
1, 26946, Note_on_c, 1, 68, 127
1, 26946, Note_on_c, 1, 71, 127
1, 26972, Note_off_c, 1, 44, 0
1, 26972, Note_off_c, 1, 68, 0
1, 26972, Note_off_c, 1, 71, 0
1, 26976, Note_on_c, 1, 51, 127
1, 26976, Note_on_c, 1, 67, 127
1, 26976, Note_on_c, 1, 70, 127
1, 27002, Note_off_c, 1, 51, 0
1, 27002, Note_off_c, 1, 67, 0
1, 27002, Note_off_c, 1, 70, 0
1, 27006, Note_on_c, 1, 42, 127
1, 27006, Note_on_c, 1, 68, 127
1, 27006, Note_on_c, 1, 71, 127
1, 27032, Note_off_c, 1, 42, 0
1, 27036, Note_on_c, 1, 51, 127
1, 27058, Note_off_c, 1, 68, 0
1, 27058, Note_off_c, 1, 71, 0
1, 27062, Note_off_c, 1, 51, 0
1, 27066, Note_on_c, 1, 42, 127
1, 27066, Note_on_c, 1, 70, 127
1, 27066, Note_on_c, 1, 75, 127
1, 27092, Note_off_c, 1, 42, 0
1, 27096, Note_on_c, 1, 51, 127
1, 27118, Note_off_c, 1, 70, 0
1, 27118, Note_off_c, 1, 75, 0
1, 27122, Note_off_c, 1, 51, 0
1, 27126, Note_on_c, 1, 41, 127
1, 27152, Note_off_c, 1, 41, 0
1, 27156, Note_on_c, 1, 45, 127
1, 27182, Note_off_c, 1, 45, 0
1, 27186, Note_on_c, 1, 48, 127
1, 27186, Note_on_c, 1, 69, 127
1, 27186, Note_on_c, 1, 78, 127
1, 27212, Note_off_c, 1, 48, 0
1, 27216, Note_on_c, 1, 51, 127
1, 27238, Note_off_c, 1, 69, 0
1, 27238, Note_off_c, 1, 78, 0
1, 27242, Note_off_c, 1, 51, 0
1, 27246, Note_on_c, 1, 49, 127
1, 27246, Note_on_c, 1, 70, 127
1, 27246, Note_on_c, 1, 77, 127
1, 27272, Note_off_c, 1, 49, 0
1, 27276, Note_on_c, 1, 48, 127
1, 27298, Note_off_c, 1, 70, 0
1, 27298, Note_off_c, 1, 77, 0
1, 27302, Note_off_c, 1, 48, 0
1, 27306, Note_on_c, 1, 46, 127
1, 27306, Note_on_c, 1, 72, 127
1, 27306, Note_on_c, 1, 75, 127
1, 27332, Note_off_c, 1, 46, 0
1, 27336, Note_on_c, 1, 45, 127
1, 27358, Note_off_c, 1, 72, 0
1, 27358, Note_off_c, 1, 75, 0
1, 27362, Note_off_c, 1, 45, 0
1, 27366, Note_on_c, 1, 74, 127
1, 27366, Note_on_c, 1, 65, 127
1, 27366, Note_on_c, 1, 46, 127
1, 27392, Note_off_c, 1, 74, 0
1, 27392, Note_off_c, 1, 65, 0
1, 27396, Note_on_c, 1, 71, 127
1, 27418, Note_off_c, 1, 46, 0
1, 27422, Note_off_c, 1, 71, 0
1, 27426, Note_on_c, 1, 70, 127
1, 27426, Note_on_c, 1, 48, 127
1, 27452, Note_off_c, 1, 70, 0
1, 27456, Note_on_c, 1, 68, 127
1, 27478, Note_off_c, 1, 48, 0
1, 27482, Note_off_c, 1, 68, 0
1, 27486, Note_on_c, 1, 77, 127
1, 27486, Note_on_c, 1, 50, 127
1, 27512, Note_off_c, 1, 77, 0
1, 27516, Note_on_c, 1, 68, 127
1, 27538, Note_off_c, 1, 50, 0
1, 27542, Note_off_c, 1, 68, 0
1, 27546, Note_on_c, 1, 77, 127
1, 27546, Note_on_c, 1, 46, 127
1, 27572, Note_off_c, 1, 77, 0
1, 27576, Note_on_c, 1, 68, 127
1, 27598, Note_off_c, 1, 46, 0
1, 27602, Note_off_c, 1, 68, 0
1, 27606, Note_on_c, 1, 67, 127
1, 27606, Note_on_c, 1, 51, 127
1, 27632, Note_off_c, 1, 67, 0
1, 27636, Note_on_c, 1, 76, 127
1, 27658, Note_off_c, 1, 51, 0
1, 27662, Note_off_c, 1, 76, 0
1, 27666, Note_on_c, 1, 75, 127
1, 27666, Note_on_c, 1, 53, 127
1, 27692, Note_off_c, 1, 75, 0
1, 27696, Note_on_c, 1, 73, 127
1, 27718, Note_off_c, 1, 53, 0
1, 27722, Note_off_c, 1, 73, 0
1, 27726, Note_on_c, 1, 82, 127
1, 27726, Note_on_c, 1, 55, 127
1, 27752, Note_off_c, 1, 82, 0
1, 27756, Note_on_c, 1, 73, 127
1, 27778, Note_off_c, 1, 55, 0
1, 27782, Note_off_c, 1, 73, 0
1, 27786, Note_on_c, 1, 82, 127
1, 27786, Note_on_c, 1, 51, 127
1, 27812, Note_off_c, 1, 82, 0
1, 27816, Note_on_c, 1, 73, 127
1, 27838, Note_off_c, 1, 51, 0
1, 27842, Note_off_c, 1, 73, 0
1, 27846, Note_on_c, 1, 72, 127
1, 27846, Note_on_c, 1, 56, 127
1, 27872, Note_off_c, 1, 72, 0
1, 27876, Note_on_c, 1, 69, 127
1, 27898, Note_off_c, 1, 56, 0
1, 27902, Note_off_c, 1, 69, 0
1, 27906, Note_on_c, 1, 68, 127
1, 27906, Note_on_c, 1, 58, 127
1, 27932, Note_off_c, 1, 68, 0
1, 27936, Note_on_c, 1, 66, 127
1, 27958, Note_off_c, 1, 58, 0
1, 27962, Note_off_c, 1, 66, 0
1, 27966, Note_on_c, 1, 75, 127
1, 27966, Note_on_c, 1, 60, 127
1, 27992, Note_off_c, 1, 75, 0
1, 27996, Note_on_c, 1, 66, 127
1, 28018, Note_off_c, 1, 60, 0
1, 28022, Note_off_c, 1, 66, 0
1, 28026, Note_on_c, 1, 75, 127
1, 28026, Note_on_c, 1, 56, 127
1, 28052, Note_off_c, 1, 75, 0
1, 28056, Note_on_c, 1, 66, 127
1, 28078, Note_off_c, 1, 56, 0
1, 28082, Note_off_c, 1, 66, 0
1, 28086, Note_on_c, 1, 65, 127
1, 28086, Note_on_c, 1, 61, 127
1, 28112, Note_off_c, 1, 65, 0
1, 28116, Note_on_c, 1, 74, 127
1, 28138, Note_off_c, 1, 61, 0
1, 28142, Note_off_c, 1, 74, 0
1, 28146, Note_on_c, 1, 73, 127
1, 28146, Note_on_c, 1, 63, 127
1, 28172, Note_off_c, 1, 73, 0
1, 28176, Note_on_c, 1, 71, 127
1, 28198, Note_off_c, 1, 63, 0
1, 28202, Note_off_c, 1, 71, 0
1, 28206, Note_on_c, 1, 80, 127
1, 28206, Note_on_c, 1, 65, 127
1, 28232, Note_off_c, 1, 80, 0
1, 28236, Note_on_c, 1, 71, 127
1, 28258, Note_off_c, 1, 65, 0
1, 28262, Note_off_c, 1, 71, 0
1, 28266, Note_on_c, 1, 80, 127
1, 28266, Note_on_c, 1, 61, 127
1, 28292, Note_off_c, 1, 80, 0
1, 28296, Note_on_c, 1, 71, 127
1, 28318, Note_off_c, 1, 61, 0
1, 28322, Note_off_c, 1, 71, 0
1, 28326, Note_on_c, 1, 70, 127
1, 28326, Note_on_c, 1, 66, 127
1, 28352, Note_off_c, 1, 70, 0
1, 28356, Note_on_c, 1, 73, 127
1, 28382, Note_off_c, 1, 73, 0
1, 28386, Note_on_c, 1, 75, 127
1, 28412, Note_off_c, 1, 75, 0
1, 28416, Note_on_c, 1, 77, 127
1, 28431, Note_off_c, 1, 66, 0
1, 28442, Note_off_c, 1, 77, 0
1, 28446, Note_on_c, 1, 78, 127
1, 28476, Note_on_c, 1, 65, 127
1, 28498, Note_off_c, 1, 78, 0
1, 28502, Note_off_c, 1, 65, 0
1, 28506, Note_on_c, 1, 63, 127
1, 28506, Note_on_c, 1, 70, 127
1, 28532, Note_off_c, 1, 63, 0
1, 28536, Note_on_c, 1, 61, 127
1, 28558, Note_off_c, 1, 70, 0
1, 28562, Note_off_c, 1, 61, 0
1, 28566, Note_on_c, 1, 60, 127
1, 28566, Note_on_c, 1, 69, 127
1, 28592, Note_off_c, 1, 60, 0
1, 28596, Note_on_c, 1, 58, 127
1, 28618, Note_off_c, 1, 69, 0
1, 28622, Note_off_c, 1, 58, 0
1, 28626, Note_on_c, 1, 60, 127
1, 28626, Note_on_c, 1, 78, 127
1, 28652, Note_off_c, 1, 60, 0
1, 28656, Note_on_c, 1, 63, 127
1, 28678, Note_off_c, 1, 78, 0
1, 28682, Note_off_c, 1, 63, 0
1, 28686, Note_on_c, 1, 62, 127
1, 28686, Note_on_c, 1, 77, 127
1, 28712, Note_off_c, 1, 62, 0
1, 28716, Note_on_c, 1, 60, 127
1, 28738, Note_off_c, 1, 77, 0
1, 28742, Note_off_c, 1, 60, 0
1, 28746, Note_on_c, 1, 62, 127
1, 28746, Note_on_c, 1, 68, 127
1, 28772, Note_off_c, 1, 62, 0
1, 28776, Note_on_c, 1, 65, 127
1, 28798, Note_off_c, 1, 68, 0
1, 28802, Note_off_c, 1, 65, 0
1, 28806, Note_on_c, 1, 67, 127
1, 28806, Note_on_c, 1, 65, 127
1, 28832, Note_off_c, 1, 67, 0
1, 28836, Note_on_c, 1, 70, 127
1, 28858, Note_off_c, 1, 65, 0
1, 28862, Note_off_c, 1, 70, 0
1, 28866, Note_on_c, 1, 72, 127
1, 28866, Note_on_c, 1, 63, 127
1, 28892, Note_off_c, 1, 72, 0
1, 28896, Note_on_c, 1, 74, 127
1, 28918, Note_off_c, 1, 63, 0
1, 28922, Note_off_c, 1, 74, 0
1, 28926, Note_on_c, 1, 75, 127
1, 28956, Note_on_c, 1, 61, 127
1, 28978, Note_off_c, 1, 75, 0
1, 28982, Note_off_c, 1, 61, 0
1, 28986, Note_on_c, 1, 59, 127
1, 28986, Note_on_c, 1, 66, 127
1, 29012, Note_off_c, 1, 59, 0
1, 29016, Note_on_c, 1, 58, 127
1, 29038, Note_off_c, 1, 66, 0
1, 29042, Note_off_c, 1, 58, 0
1, 29046, Note_on_c, 1, 56, 127
1, 29046, Note_on_c, 1, 65, 127
1, 29072, Note_off_c, 1, 56, 0
1, 29076, Note_on_c, 1, 55, 127
1, 29098, Note_off_c, 1, 65, 0
1, 29102, Note_off_c, 1, 55, 0
1, 29106, Note_on_c, 1, 56, 127
1, 29106, Note_on_c, 1, 74, 127
1, 29132, Note_off_c, 1, 56, 0
1, 29136, Note_on_c, 1, 59, 127
1, 29158, Note_off_c, 1, 74, 0
1, 29162, Note_off_c, 1, 59, 0
1, 29166, Note_on_c, 1, 58, 127
1, 29166, Note_on_c, 1, 73, 127
1, 29192, Note_off_c, 1, 58, 0
1, 29196, Note_on_c, 1, 56, 127
1, 29218, Note_off_c, 1, 73, 0
1, 29222, Note_off_c, 1, 56, 0
1, 29226, Note_on_c, 1, 58, 127
1, 29226, Note_on_c, 1, 64, 127
1, 29252, Note_off_c, 1, 58, 0
1, 29256, Note_on_c, 1, 61, 127
1, 29278, Note_off_c, 1, 64, 0
1, 29282, Note_off_c, 1, 61, 0
1, 29286, Note_on_c, 1, 63, 127
1, 29286, Note_on_c, 1, 61, 127
1, 29312, Note_off_c, 1, 63, 0
1, 29316, Note_on_c, 1, 67, 127
1, 29338, Note_off_c, 1, 61, 0
1, 29342, Note_off_c, 1, 67, 0
1, 29346, Note_on_c, 1, 68, 127
1, 29346, Note_on_c, 1, 59, 127
1, 29372, Note_off_c, 1, 68, 0
1, 29376, Note_on_c, 1, 70, 127
1, 29398, Note_off_c, 1, 59, 0
1, 29402, Note_off_c, 1, 70, 0
1, 29406, Note_on_c, 1, 71, 127
1, 29436, Note_on_c, 1, 58, 127
1, 29458, Note_off_c, 1, 71, 0
1, 29462, Note_off_c, 1, 58, 0
1, 29466, Note_on_c, 1, 56, 127
1, 29466, Note_on_c, 1, 63, 127
1, 29492, Note_off_c, 1, 56, 0
1, 29496, Note_on_c, 1, 54, 127
1, 29518, Note_off_c, 1, 63, 0
1, 29522, Note_off_c, 1, 54, 0
1, 29526, Note_on_c, 1, 53, 127
1, 29526, Note_on_c, 1, 62, 127
1, 29552, Note_off_c, 1, 53, 0
1, 29556, Note_on_c, 1, 51, 127
1, 29578, Note_off_c, 1, 62, 0
1, 29582, Note_off_c, 1, 51, 0
1, 29586, Note_on_c, 1, 53, 127
1, 29586, Note_on_c, 1, 71, 127
1, 29612, Note_off_c, 1, 53, 0
1, 29616, Note_on_c, 1, 56, 127
1, 29638, Note_off_c, 1, 71, 0
1, 29642, Note_off_c, 1, 56, 0
1, 29646, Note_on_c, 1, 55, 127
1, 29646, Note_on_c, 1, 70, 127
1, 29672, Note_off_c, 1, 55, 0
1, 29676, Note_on_c, 1, 53, 127
1, 29698, Note_off_c, 1, 70, 0
1, 29702, Note_off_c, 1, 53, 0
1, 29706, Note_on_c, 1, 55, 127
1, 29706, Note_on_c, 1, 61, 127
1, 29732, Note_off_c, 1, 55, 0
1, 29736, Note_on_c, 1, 58, 127
1, 29758, Note_off_c, 1, 61, 0
1, 29762, Note_off_c, 1, 58, 0
1, 29766, Note_on_c, 1, 51, 127
1, 29766, Note_on_c, 1, 60, 127
1, 29792, Note_off_c, 1, 51, 0
1, 29796, Note_on_c, 1, 50, 127
1, 29818, Note_off_c, 1, 60, 0
1, 29822, Note_off_c, 1, 50, 0
1, 29826, Note_on_c, 1, 51, 127
1, 29826, Note_on_c, 1, 69, 127
1, 29852, Note_off_c, 1, 51, 0
1, 29856, Note_on_c, 1, 54, 127
1, 29878, Note_off_c, 1, 69, 0
1, 29882, Note_off_c, 1, 54, 0
1, 29886, Note_on_c, 1, 52, 127
1, 29886, Note_on_c, 1, 68, 127
1, 29912, Note_off_c, 1, 52, 0
1, 29916, Note_on_c, 1, 51, 127
1, 29938, Note_off_c, 1, 68, 0
1, 29942, Note_off_c, 1, 51, 0
1, 29946, Note_on_c, 1, 52, 127
1, 29946, Note_on_c, 1, 59, 127
1, 29972, Note_off_c, 1, 52, 0
1, 29976, Note_on_c, 1, 56, 127
1, 29998, Note_off_c, 1, 59, 0
1, 30002, Note_off_c, 1, 56, 0
1, 30006, Note_on_c, 1, 50, 127
1, 30006, Note_on_c, 1, 58, 127
1, 30032, Note_off_c, 1, 50, 0
1, 30036, Note_on_c, 1, 48, 127
1, 30058, Note_off_c, 1, 58, 0
1, 30062, Note_off_c, 1, 48, 0
1, 30066, Note_on_c, 1, 50, 127
1, 30066, Note_on_c, 1, 68, 127
1, 30092, Note_off_c, 1, 50, 0
1, 30096, Note_on_c, 1, 53, 127
1, 30118, Note_off_c, 1, 68, 0
1, 30122, Note_off_c, 1, 53, 0
1, 30126, Note_on_c, 1, 51, 127
1, 30126, Note_on_c, 1, 67, 127
1, 30152, Note_off_c, 1, 51, 0
1, 30156, Note_on_c, 1, 50, 127
1, 30178, Note_off_c, 1, 67, 0
1, 30182, Note_off_c, 1, 50, 0
1, 30186, Note_on_c, 1, 51, 127
1, 30186, Note_on_c, 1, 57, 127
1, 30212, Note_off_c, 1, 51, 0
1, 30216, Note_on_c, 1, 54, 127
1, 30238, Note_off_c, 1, 57, 0
1, 30242, Note_off_c, 1, 54, 0
1, 30246, Note_on_c, 1, 48, 127
1, 30246, Note_on_c, 1, 56, 127
1, 30272, Note_off_c, 1, 48, 0
1, 30276, Note_on_c, 1, 46, 127
1, 30298, Note_off_c, 1, 56, 0
1, 30302, Note_off_c, 1, 46, 0
1, 30306, Note_on_c, 1, 48, 127
1, 30306, Note_on_c, 1, 66, 127
1, 30332, Note_off_c, 1, 48, 0
1, 30336, Note_on_c, 1, 51, 127
1, 30358, Note_off_c, 1, 66, 0
1, 30362, Note_off_c, 1, 51, 0
1, 30366, Note_on_c, 1, 49, 127
1, 30366, Note_on_c, 1, 65, 127
1, 30392, Note_off_c, 1, 49, 0
1, 30396, Note_on_c, 1, 48, 127
1, 30418, Note_off_c, 1, 65, 0
1, 30422, Note_off_c, 1, 48, 0
1, 30426, Note_on_c, 1, 49, 127
1, 30426, Note_on_c, 1, 56, 127
1, 30426, Note_on_c, 1, 64, 127
1, 30452, Note_off_c, 1, 49, 0
1, 30456, Note_on_c, 1, 52, 127
1, 30478, Note_off_c, 1, 56, 0
1, 30478, Note_off_c, 1, 64, 0
1, 30482, Note_off_c, 1, 52, 0
1, 30486, Note_on_c, 1, 46, 127
1, 30486, Note_on_c, 1, 56, 127
1, 30486, Note_on_c, 1, 64, 127
1, 30512, Note_off_c, 1, 46, 0
1, 30516, Note_on_c, 1, 47, 127
1, 30538, Note_off_c, 1, 56, 0
1, 30538, Note_off_c, 1, 64, 0
1, 30542, Note_off_c, 1, 47, 0
1, 30546, Note_on_c, 1, 49, 127
1, 30546, Note_on_c, 1, 55, 127
1, 30546, Note_on_c, 1, 63, 127
1, 30572, Note_off_c, 1, 49, 0
1, 30576, Note_on_c, 1, 47, 127
1, 30598, Note_off_c, 1, 55, 0
1, 30598, Note_off_c, 1, 63, 0
1, 30602, Note_off_c, 1, 47, 0
1, 30606, Note_on_c, 1, 49, 127
1, 30632, Note_off_c, 1, 49, 0
1, 30636, Note_on_c, 1, 55, 127
1, 30662, Note_off_c, 1, 55, 0
1, 30666, Note_on_c, 1, 58, 127
1, 30692, Note_off_c, 1, 58, 0
1, 30696, Note_on_c, 1, 49, 127
1, 30722, Note_off_c, 1, 49, 0
1, 30726, Note_on_c, 1, 47, 127
1, 30726, Note_on_c, 1, 68, 127
1, 30752, Note_off_c, 1, 47, 0
1, 30752, Note_off_c, 1, 68, 0
1, 30756, Note_on_c, 1, 46, 127
1, 30756, Note_on_c, 1, 70, 127
1, 30782, Note_off_c, 1, 46, 0
1, 30782, Note_off_c, 1, 70, 0
1, 30786, Note_on_c, 1, 44, 127
1, 30786, Note_on_c, 1, 71, 127
1, 30812, Note_off_c, 1, 44, 0
1, 30812, Note_off_c, 1, 71, 0
1, 30816, Note_on_c, 1, 46, 127
1, 30816, Note_on_c, 1, 73, 127
1, 30842, Note_off_c, 1, 46, 0
1, 30842, Note_off_c, 1, 73, 0
1, 30846, Note_on_c, 1, 47, 127
1, 30846, Note_on_c, 1, 75, 127
1, 30872, Note_off_c, 1, 47, 0
1, 30872, Note_off_c, 1, 75, 0
1, 30876, Note_on_c, 1, 49, 127
1, 30876, Note_on_c, 1, 71, 127
1, 30902, Note_off_c, 1, 49, 0
1, 30902, Note_off_c, 1, 71, 0
1, 30906, Note_on_c, 1, 51, 127
1, 30906, Note_on_c, 1, 70, 127
1, 30932, Note_off_c, 1, 51, 0
1, 30932, Note_off_c, 1, 70, 0
1, 30936, Note_on_c, 1, 52, 127
1, 30936, Note_on_c, 1, 68, 127
1, 30962, Note_off_c, 1, 52, 0
1, 30962, Note_off_c, 1, 68, 0
1, 30966, Note_on_c, 1, 67, 127
1, 30966, Note_on_c, 1, 52, 127
1, 30992, Note_off_c, 1, 67, 0
1, 30996, Note_on_c, 1, 68, 127
1, 31018, Note_off_c, 1, 52, 0
1, 31022, Note_off_c, 1, 68, 0
1, 31026, Note_on_c, 1, 70, 127
1, 31026, Note_on_c, 1, 43, 127
1, 31052, Note_off_c, 1, 70, 0
1, 31056, Note_on_c, 1, 64, 127
1, 31078, Note_off_c, 1, 43, 0
1, 31082, Note_off_c, 1, 64, 0
1, 31086, Note_on_c, 1, 63, 127
1, 31116, Note_on_c, 1, 61, 127
1, 31142, Note_off_c, 1, 61, 0
1, 31146, Note_on_c, 1, 59, 127
1, 31172, Note_off_c, 1, 59, 0
1, 31176, Note_on_c, 1, 58, 127
1, 31191, Note_off_c, 1, 63, 0
1, 31202, Note_off_c, 1, 58, 0
1, 31206, Note_on_c, 1, 56, 127
1, 31232, Note_off_c, 1, 56, 0
1, 31236, Note_on_c, 1, 63, 127
1, 31262, Note_off_c, 1, 63, 0
1, 31266, Note_on_c, 1, 56, 127
1, 31266, Note_on_c, 1, 71, 127
1, 31266, Note_on_c, 1, 80, 127
1, 31292, Note_off_c, 1, 56, 0
1, 31296, Note_on_c, 1, 63, 127
1, 31318, Note_off_c, 1, 71, 0
1, 31318, Note_off_c, 1, 80, 0
1, 31322, Note_off_c, 1, 63, 0
1, 31324, Note_on_c, 1, 80, 127
1, 31324, Note_on_c, 1, 71, 127
1, 31326, Note_on_c, 1, 55, 127
1, 31352, Note_off_c, 1, 55, 0
1, 31356, Note_on_c, 1, 63, 127
1, 31379, Note_off_c, 1, 80, 0
1, 31379, Note_off_c, 1, 71, 0
1, 31382, Note_off_c, 1, 63, 0
1, 31384, Note_on_c, 1, 73, 127
1, 31386, Note_on_c, 1, 55, 127
1, 31386, Note_on_c, 1, 82, 127
1, 31412, Note_off_c, 1, 55, 0
1, 31416, Note_on_c, 1, 63, 127
1, 31439, Note_off_c, 1, 73, 0
1, 31439, Note_off_c, 1, 82, 0
1, 31442, Note_off_c, 1, 63, 0
1, 31446, Note_on_c, 1, 56, 127
1, 31472, Note_off_c, 1, 56, 0
1, 31476, Note_on_c, 1, 63, 127
1, 31502, Note_off_c, 1, 63, 0
1, 31506, Note_on_c, 1, 56, 127
1, 31506, Note_on_c, 1, 71, 127
1, 31506, Note_on_c, 1, 80, 127
1, 31532, Note_off_c, 1, 56, 0
1, 31536, Note_on_c, 1, 63, 127
1, 31558, Note_off_c, 1, 71, 0
1, 31558, Note_off_c, 1, 80, 0
1, 31562, Note_off_c, 1, 63, 0
1, 31564, Note_on_c, 1, 80, 127
1, 31564, Note_on_c, 1, 71, 127
1, 31566, Note_on_c, 1, 51, 127
1, 31592, Note_off_c, 1, 51, 0
1, 31596, Note_on_c, 1, 63, 127
1, 31622, Note_off_c, 1, 63, 0
1, 31623, Note_off_c, 1, 80, 0
1, 31623, Note_off_c, 1, 71, 0
1, 31624, Note_on_c, 1, 70, 127
1, 31624, Note_on_c, 1, 79, 127
1, 31626, Note_on_c, 1, 51, 127
1, 31652, Note_off_c, 1, 51, 0
1, 31656, Note_on_c, 1, 63, 127
1, 31682, Note_off_c, 1, 63, 0
1, 31683, Note_off_c, 1, 70, 0
1, 31683, Note_off_c, 1, 79, 0
1, 31686, Note_on_c, 1, 56, 127
1, 31712, Note_off_c, 1, 56, 0
1, 31716, Note_on_c, 1, 58, 127
1, 31716, Note_on_c, 1, 67, 127
1, 31742, Note_off_c, 1, 58, 0
1, 31742, Note_off_c, 1, 67, 0
1, 31746, Note_on_c, 1, 59, 127
1, 31746, Note_on_c, 1, 68, 127
1, 31772, Note_off_c, 1, 59, 0
1, 31772, Note_off_c, 1, 68, 0
1, 31776, Note_on_c, 1, 61, 127
1, 31776, Note_on_c, 1, 70, 127
1, 31802, Note_off_c, 1, 61, 0
1, 31802, Note_off_c, 1, 70, 0
1, 31806, Note_on_c, 1, 71, 127
1, 31806, Note_on_c, 1, 63, 127
1, 31819, Note_off_c, 1, 71, 0
1, 31821, Note_on_c, 1, 70, 127
1, 31832, Note_off_c, 1, 63, 0
1, 31834, Note_off_c, 1, 70, 0
1, 31836, Note_on_c, 1, 59, 127
1, 31836, Note_on_c, 1, 68, 127
1, 31862, Note_off_c, 1, 59, 0
1, 31862, Note_off_c, 1, 68, 0
1, 31866, Note_on_c, 1, 58, 127
1, 31866, Note_on_c, 1, 73, 127
1, 31866, Note_on_c, 1, 76, 127
1, 31892, Note_off_c, 1, 58, 0
1, 31896, Note_on_c, 1, 56, 127
1, 31918, Note_off_c, 1, 73, 0
1, 31918, Note_off_c, 1, 76, 0
1, 31922, Note_off_c, 1, 56, 0
1, 31926, Note_on_c, 1, 55, 127
1, 31926, Note_on_c, 1, 73, 127
1, 31926, Note_on_c, 1, 76, 127
1, 31952, Note_off_c, 1, 55, 0
1, 31956, Note_on_c, 1, 56, 127
1, 31978, Note_off_c, 1, 73, 0
1, 31978, Note_off_c, 1, 76, 0
1, 31982, Note_off_c, 1, 56, 0
1, 31986, Note_on_c, 1, 58, 127
1, 31986, Note_on_c, 1, 67, 127
1, 31986, Note_on_c, 1, 75, 127
1, 32012, Note_off_c, 1, 58, 0
1, 32016, Note_on_c, 1, 52, 127
1, 32038, Note_off_c, 1, 67, 0
1, 32038, Note_off_c, 1, 75, 0
1, 32042, Note_off_c, 1, 52, 0
1, 32046, Note_on_c, 1, 51, 127
1, 32072, Note_off_c, 1, 51, 0
1, 32076, Note_on_c, 1, 49, 127
1, 32102, Note_off_c, 1, 49, 0
1, 32106, Note_on_c, 1, 47, 127
1, 32132, Note_off_c, 1, 47, 0
1, 32136, Note_on_c, 1, 46, 127
1, 32162, Note_off_c, 1, 46, 0
1, 32166, Note_on_c, 1, 44, 127
1, 32192, Note_off_c, 1, 44, 0
1, 32196, Note_on_c, 1, 56, 127
1, 32222, Note_off_c, 1, 56, 0
1, 32226, Note_on_c, 1, 44, 127
1, 32226, Note_on_c, 1, 68, 127
1, 32226, Note_on_c, 1, 71, 127
1, 32252, Note_off_c, 1, 44, 0
1, 32256, Note_on_c, 1, 56, 127
1, 32278, Note_off_c, 1, 68, 0
1, 32278, Note_off_c, 1, 71, 0
1, 32282, Note_off_c, 1, 56, 0
1, 32286, Note_on_c, 1, 54, 127
1, 32286, Note_on_c, 1, 69, 127
1, 32286, Note_on_c, 1, 73, 127
1, 32312, Note_off_c, 1, 54, 0
1, 32316, Note_on_c, 1, 63, 127
1, 32338, Note_off_c, 1, 69, 0
1, 32338, Note_off_c, 1, 73, 0
1, 32342, Note_off_c, 1, 63, 0
1, 32346, Note_on_c, 1, 54, 127
1, 32346, Note_on_c, 1, 68, 127
1, 32346, Note_on_c, 1, 72, 127
1, 32372, Note_off_c, 1, 54, 0
1, 32376, Note_on_c, 1, 63, 127
1, 32398, Note_off_c, 1, 68, 0
1, 32398, Note_off_c, 1, 72, 0
1, 32402, Note_off_c, 1, 63, 0
1, 32406, Note_on_c, 1, 52, 127
1, 32432, Note_off_c, 1, 52, 0
1, 32436, Note_on_c, 1, 61, 127
1, 32462, Note_off_c, 1, 61, 0
1, 32466, Note_on_c, 1, 52, 127
1, 32466, Note_on_c, 1, 68, 127
1, 32466, Note_on_c, 1, 73, 127
1, 32492, Note_off_c, 1, 52, 0
1, 32496, Note_on_c, 1, 61, 127
1, 32518, Note_off_c, 1, 68, 0
1, 32518, Note_off_c, 1, 73, 0
1, 32522, Note_off_c, 1, 61, 0
1, 32526, Note_on_c, 1, 51, 127
1, 32526, Note_on_c, 1, 69, 127
1, 32526, Note_on_c, 1, 78, 127
1, 32552, Note_off_c, 1, 51, 0
1, 32556, Note_on_c, 1, 60, 127
1, 32578, Note_off_c, 1, 69, 0
1, 32578, Note_off_c, 1, 78, 0
1, 32582, Note_off_c, 1, 60, 0
1, 32586, Note_on_c, 1, 51, 127
1, 32586, Note_on_c, 1, 66, 127
1, 32586, Note_on_c, 1, 75, 127
1, 32612, Note_off_c, 1, 51, 0
1, 32616, Note_on_c, 1, 60, 127
1, 32638, Note_off_c, 1, 66, 0
1, 32638, Note_off_c, 1, 75, 0
1, 32642, Note_off_c, 1, 60, 0
1, 32646, Note_on_c, 1, 49, 127
1, 32672, Note_off_c, 1, 49, 0
1, 32676, Note_on_c, 1, 61, 127
1, 32702, Note_off_c, 1, 61, 0
1, 32706, Note_on_c, 1, 49, 127
1, 32706, Note_on_c, 1, 68, 127
1, 32706, Note_on_c, 1, 76, 127
1, 32732, Note_off_c, 1, 49, 0
1, 32736, Note_on_c, 1, 61, 127
1, 32758, Note_off_c, 1, 68, 0
1, 32758, Note_off_c, 1, 76, 0
1, 32762, Note_off_c, 1, 61, 0
1, 32766, Note_on_c, 1, 59, 127
1, 32766, Note_on_c, 1, 74, 127
1, 32766, Note_on_c, 1, 78, 127
1, 32792, Note_off_c, 1, 59, 0
1, 32796, Note_on_c, 1, 68, 127
1, 32818, Note_off_c, 1, 74, 0
1, 32818, Note_off_c, 1, 78, 0
1, 32822, Note_off_c, 1, 68, 0
1, 32826, Note_on_c, 1, 59, 127
1, 32826, Note_on_c, 1, 73, 127
1, 32826, Note_on_c, 1, 77, 127
1, 32852, Note_off_c, 1, 59, 0
1, 32856, Note_on_c, 1, 68, 127
1, 32878, Note_off_c, 1, 73, 0
1, 32878, Note_off_c, 1, 77, 0
1, 32882, Note_off_c, 1, 68, 0
1, 32886, Note_on_c, 1, 58, 127
1, 32912, Note_off_c, 1, 58, 0
1, 32916, Note_on_c, 1, 67, 127
1, 32942, Note_off_c, 1, 67, 0
1, 32946, Note_on_c, 1, 58, 127
1, 32946, Note_on_c, 1, 76, 127
1, 32946, Note_on_c, 1, 73, 127
1, 32946, Note_on_c, 1, 82, 127
1, 32972, Note_off_c, 1, 58, 0
1, 32972, Note_off_c, 1, 76, 0
1, 32976, Note_on_c, 1, 75, 127
1, 32976, Note_on_c, 1, 67, 127
1, 32998, Note_off_c, 1, 73, 0
1, 32998, Note_off_c, 1, 82, 0
1, 33002, Note_off_c, 1, 75, 0
1, 33002, Note_off_c, 1, 67, 0
1, 33006, Note_on_c, 1, 56, 127
1, 33006, Note_on_c, 1, 82, 127
1, 33006, Note_on_c, 1, 76, 127
1, 33006, Note_on_c, 1, 73, 127
1, 33032, Note_off_c, 1, 56, 0
1, 33036, Note_on_c, 1, 68, 127
1, 33058, Note_off_c, 1, 82, 0
1, 33058, Note_off_c, 1, 76, 0
1, 33058, Note_off_c, 1, 73, 0
1, 33062, Note_off_c, 1, 68, 0
1, 33066, Note_on_c, 1, 56, 127
1, 33066, Note_on_c, 1, 82, 127
1, 33066, Note_on_c, 1, 76, 127
1, 33066, Note_on_c, 1, 73, 127
1, 33092, Note_off_c, 1, 56, 0
1, 33096, Note_on_c, 1, 68, 127
1, 33118, Note_off_c, 1, 82, 0
1, 33118, Note_off_c, 1, 76, 0
1, 33118, Note_off_c, 1, 73, 0
1, 33122, Note_off_c, 1, 68, 0
1, 33126, Note_on_c, 1, 67, 127
1, 33126, Note_on_c, 1, 82, 127
1, 33126, Note_on_c, 1, 73, 127
1, 33126, Note_on_c, 1, 76, 127
1, 33152, Note_off_c, 1, 67, 0
1, 33156, Note_on_c, 1, 68, 127
1, 33182, Note_off_c, 1, 68, 0
1, 33186, Note_on_c, 1, 70, 127
1, 33212, Note_off_c, 1, 70, 0
1, 33216, Note_on_c, 1, 64, 127
1, 33231, Note_off_c, 1, 82, 0
1, 33231, Note_off_c, 1, 73, 0
1, 33231, Note_off_c, 1, 76, 0
1, 33242, Note_off_c, 1, 64, 0
1, 33246, Note_on_c, 1, 63, 127
1, 33272, Note_off_c, 1, 63, 0
1, 33276, Note_on_c, 1, 61, 127
1, 33276, Note_on_c, 1, 76, 127
1, 33302, Note_off_c, 1, 61, 0
1, 33302, Note_off_c, 1, 76, 0
1, 33306, Note_on_c, 1, 59, 127
1, 33306, Note_on_c, 1, 75, 127
1, 33332, Note_off_c, 1, 59, 0
1, 33332, Note_off_c, 1, 75, 0
1, 33336, Note_on_c, 1, 58, 127
1, 33336, Note_on_c, 1, 73, 127
1, 33362, Note_off_c, 1, 58, 0
1, 33362, Note_off_c, 1, 73, 0
1, 33366, Note_on_c, 1, 71, 127
1, 33366, Note_on_c, 1, 56, 127
1, 33392, Note_off_c, 1, 71, 0
1, 33396, Note_on_c, 1, 73, 127
1, 33418, Note_off_c, 1, 56, 0
1, 33422, Note_off_c, 1, 73, 0
1, 33426, Note_on_c, 1, 75, 127
1, 33426, Note_on_c, 1, 59, 127
1, 33452, Note_off_c, 1, 75, 0
1, 33456, Note_on_c, 1, 68, 127
1, 33478, Note_off_c, 1, 59, 0
1, 33482, Note_off_c, 1, 68, 0
1, 33486, Note_on_c, 1, 71, 127
1, 33486, Note_on_c, 1, 61, 127
1, 33512, Note_off_c, 1, 71, 0
1, 33516, Note_on_c, 1, 70, 127
1, 33538, Note_off_c, 1, 61, 0
1, 33542, Note_off_c, 1, 70, 0
1, 33546, Note_on_c, 1, 68, 127
1, 33546, Note_on_c, 1, 63, 127
1, 33572, Note_off_c, 1, 68, 0
1, 33576, Note_on_c, 1, 67, 127
1, 33598, Note_off_c, 1, 63, 0
1, 33602, Note_off_c, 1, 67, 0
1, 33606, Note_on_c, 1, 68, 127
1, 33606, Note_on_c, 1, 64, 127
1, 33632, Note_off_c, 1, 68, 0
1, 33636, Note_on_c, 1, 71, 127
1, 33658, Note_off_c, 1, 64, 0
1, 33662, Note_off_c, 1, 71, 0
1, 33666, Note_on_c, 1, 68, 127
1, 33666, Note_on_c, 1, 52, 127
1, 33692, Note_off_c, 1, 68, 0
1, 33696, Note_on_c, 1, 71, 127
1, 33718, Note_off_c, 1, 52, 0
1, 33722, Note_off_c, 1, 71, 0
1, 33726, Note_on_c, 1, 66, 127
1, 33752, Note_off_c, 1, 66, 0
1, 33756, Note_on_c, 1, 75, 127
1, 33782, Note_off_c, 1, 75, 0
1, 33786, Note_on_c, 1, 66, 127
1, 33786, Note_on_c, 1, 57, 127
1, 33786, Note_on_c, 1, 48, 127
1, 33786, Note_on_c, 1, 51, 127
1, 33812, Note_off_c, 1, 66, 0
1, 33816, Note_on_c, 1, 75, 127
1, 33838, Note_off_c, 1, 57, 0
1, 33838, Note_off_c, 1, 48, 0
1, 33838, Note_off_c, 1, 51, 0
1, 33842, Note_off_c, 1, 75, 0
1, 33846, Note_on_c, 1, 65, 127
1, 33872, Note_off_c, 1, 65, 0
1, 33876, Note_on_c, 1, 73, 127
1, 33902, Note_off_c, 1, 73, 0
1, 33906, Note_on_c, 1, 49, 127
1, 33906, Note_on_c, 1, 65, 127
1, 33906, Note_on_c, 1, 56, 127
1, 33932, Note_off_c, 1, 49, 0
1, 33932, Note_off_c, 1, 65, 0
1, 33936, Note_on_c, 1, 51, 127
1, 33936, Note_on_c, 1, 73, 127
1, 33958, Note_off_c, 1, 56, 0
1, 33962, Note_off_c, 1, 51, 0
1, 33962, Note_off_c, 1, 73, 0
1, 33966, Note_on_c, 1, 61, 127
1, 33966, Note_on_c, 1, 53, 127
1, 33966, Note_on_c, 1, 56, 127
1, 33992, Note_off_c, 1, 61, 0
1, 33996, Note_on_c, 1, 71, 127
1, 34018, Note_off_c, 1, 53, 0
1, 34018, Note_off_c, 1, 56, 0
1, 34022, Note_off_c, 1, 71, 0
1, 34026, Note_on_c, 1, 61, 127
1, 34026, Note_on_c, 1, 53, 127
1, 34026, Note_on_c, 1, 56, 127
1, 34052, Note_off_c, 1, 61, 0
1, 34056, Note_on_c, 1, 71, 127
1, 34078, Note_off_c, 1, 53, 0
1, 34078, Note_off_c, 1, 56, 0
1, 34082, Note_off_c, 1, 71, 0
1, 34086, Note_on_c, 1, 66, 127
1, 34086, Note_on_c, 1, 52, 127
1, 34086, Note_on_c, 1, 54, 127
1, 34112, Note_off_c, 1, 66, 0
1, 34116, Note_on_c, 1, 70, 127
1, 34138, Note_off_c, 1, 52, 0
1, 34142, Note_off_c, 1, 70, 0
1, 34146, Note_on_c, 1, 42, 127
1, 34191, Note_off_c, 1, 54, 0
1, 34198, Note_off_c, 1, 42, 0
1, 34206, Note_on_c, 1, 64, 127
1, 34232, Note_off_c, 1, 64, 0
1, 34236, Note_on_c, 1, 73, 127
1, 34262, Note_off_c, 1, 73, 0
1, 34266, Note_on_c, 1, 64, 127
1, 34266, Note_on_c, 1, 55, 127
1, 34266, Note_on_c, 1, 49, 127
1, 34266, Note_on_c, 1, 46, 127
1, 34292, Note_off_c, 1, 64, 0
1, 34296, Note_on_c, 1, 73, 127
1, 34318, Note_off_c, 1, 55, 0
1, 34318, Note_off_c, 1, 49, 0
1, 34318, Note_off_c, 1, 46, 0
1, 34322, Note_off_c, 1, 73, 0
1, 34326, Note_on_c, 1, 63, 127
1, 34352, Note_off_c, 1, 63, 0
1, 34356, Note_on_c, 1, 71, 127
1, 34382, Note_off_c, 1, 71, 0
1, 34386, Note_on_c, 1, 47, 127
1, 34386, Note_on_c, 1, 63, 127
1, 34386, Note_on_c, 1, 54, 127
1, 34412, Note_off_c, 1, 47, 0
1, 34412, Note_off_c, 1, 63, 0
1, 34416, Note_on_c, 1, 49, 127
1, 34416, Note_on_c, 1, 71, 127
1, 34438, Note_off_c, 1, 54, 0
1, 34442, Note_off_c, 1, 49, 0
1, 34442, Note_off_c, 1, 71, 0
1, 34446, Note_on_c, 1, 59, 127
1, 34446, Note_on_c, 1, 51, 127
1, 34446, Note_on_c, 1, 54, 127
1, 34472, Note_off_c, 1, 59, 0
1, 34476, Note_on_c, 1, 70, 127
1, 34498, Note_off_c, 1, 51, 0
1, 34498, Note_off_c, 1, 54, 0
1, 34502, Note_off_c, 1, 70, 0
1, 34506, Note_on_c, 1, 59, 127
1, 34506, Note_on_c, 1, 51, 127
1, 34506, Note_on_c, 1, 54, 127
1, 34532, Note_off_c, 1, 59, 0
1, 34536, Note_on_c, 1, 70, 127
1, 34558, Note_off_c, 1, 51, 0
1, 34558, Note_off_c, 1, 54, 0
1, 34562, Note_off_c, 1, 70, 0
1, 34566, Note_on_c, 1, 64, 127
1, 34566, Note_on_c, 1, 51, 127
1, 34566, Note_on_c, 1, 52, 127
1, 34592, Note_off_c, 1, 64, 0
1, 34596, Note_on_c, 1, 68, 127
1, 34618, Note_off_c, 1, 51, 0
1, 34622, Note_off_c, 1, 68, 0
1, 34626, Note_on_c, 1, 40, 127
1, 34671, Note_off_c, 1, 52, 0
1, 34678, Note_off_c, 1, 40, 0
1, 34686, Note_on_c, 1, 63, 127
1, 34712, Note_off_c, 1, 63, 0
1, 34716, Note_on_c, 1, 71, 127
1, 34742, Note_off_c, 1, 71, 0
1, 34746, Note_on_c, 1, 63, 127
1, 34746, Note_on_c, 1, 54, 127
1, 34746, Note_on_c, 1, 47, 127
1, 34746, Note_on_c, 1, 44, 127
1, 34772, Note_off_c, 1, 63, 0
1, 34776, Note_on_c, 1, 71, 127
1, 34798, Note_off_c, 1, 54, 0
1, 34798, Note_off_c, 1, 47, 0
1, 34798, Note_off_c, 1, 44, 0
1, 34802, Note_off_c, 1, 71, 0
1, 34806, Note_on_c, 1, 62, 127
1, 34832, Note_off_c, 1, 62, 0
1, 34836, Note_on_c, 1, 70, 127
1, 34862, Note_off_c, 1, 70, 0
1, 34866, Note_on_c, 1, 46, 127
1, 34866, Note_on_c, 1, 62, 127
1, 34866, Note_on_c, 1, 53, 127
1, 34892, Note_off_c, 1, 46, 0
1, 34892, Note_off_c, 1, 62, 0
1, 34896, Note_on_c, 1, 48, 127
1, 34896, Note_on_c, 1, 70, 127
1, 34918, Note_off_c, 1, 53, 0
1, 34922, Note_off_c, 1, 48, 0
1, 34922, Note_off_c, 1, 70, 0
1, 34926, Note_on_c, 1, 58, 127
1, 34926, Note_on_c, 1, 50, 127
1, 34926, Note_on_c, 1, 53, 127
1, 34952, Note_off_c, 1, 58, 0
1, 34956, Note_on_c, 1, 68, 127
1, 34978, Note_off_c, 1, 50, 0
1, 34978, Note_off_c, 1, 53, 0
1, 34982, Note_off_c, 1, 68, 0
1, 34986, Note_on_c, 1, 58, 127
1, 34986, Note_on_c, 1, 52, 127
1, 34986, Note_on_c, 1, 49, 127
1, 35012, Note_off_c, 1, 58, 0
1, 35016, Note_on_c, 1, 68, 127
1, 35038, Note_off_c, 1, 52, 0
1, 35042, Note_off_c, 1, 68, 0
1, 35046, Note_on_c, 1, 67, 127
1, 35046, Note_on_c, 1, 51, 127
1, 35072, Note_off_c, 1, 67, 0
1, 35076, Note_on_c, 1, 63, 127
1, 35098, Note_off_c, 1, 49, 0
1, 35098, Note_off_c, 1, 51, 0
1, 35106, Note_on_c, 1, 47, 127
1, 35132, Note_off_c, 1, 47, 0
1, 35136, Note_on_c, 1, 70, 127
1, 35162, Note_off_c, 1, 70, 0
1, 35166, Note_on_c, 1, 71, 127
1, 35192, Note_off_c, 1, 63, 0
1, 35218, Note_off_c, 1, 71, 0
1, 35226, Note_on_c, 1, 39, 127
1, 35256, Note_on_c, 1, 61, 127
1, 35278, Note_off_c, 1, 39, 0
1, 35286, Note_on_c, 1, 44, 127
1, 35338, Note_off_c, 1, 61, 0
1, 35346, Note_on_c, 1, 59, 127
1, 35364, Note_off_c, 1, 44, 0
1, 35398, Note_off_c, 1, 59, 0
1, 35406, Note_on_c, 1, 56, 127
1, 35511, Note_off_c, 1, 56, 0
1, 35526, Note_on_c, 1, 75, 127
1, 35552, Note_off_c, 1, 75, 0
1, 35556, Note_on_c, 1, 77, 127
1, 35582, Note_off_c, 1, 77, 0
1, 35586, Note_on_c, 1, 51, 127
1, 35586, Note_on_c, 1, 79, 127
1, 35612, Note_off_c, 1, 51, 0
1, 35612, Note_off_c, 1, 79, 0
1, 35616, Note_on_c, 1, 53, 127
1, 35616, Note_on_c, 1, 80, 127
1, 35642, Note_off_c, 1, 53, 0
1, 35642, Note_off_c, 1, 80, 0
1, 35646, Note_on_c, 1, 82, 127
1, 35646, Note_on_c, 1, 55, 127
1, 35672, Note_off_c, 1, 82, 0
1, 35676, Note_on_c, 1, 76, 127
1, 35698, Note_off_c, 1, 55, 0
1, 35702, Note_off_c, 1, 76, 0
1, 35706, Note_on_c, 1, 75, 127
1, 35706, Note_on_c, 1, 58, 127
1, 35732, Note_off_c, 1, 75, 0
1, 35736, Note_on_c, 1, 73, 127
1, 35758, Note_off_c, 1, 58, 0
1, 35762, Note_off_c, 1, 73, 0
1, 35766, Note_on_c, 1, 72, 127
1, 35766, Note_on_c, 1, 63, 127
1, 35792, Note_off_c, 1, 72, 0
1, 35796, Note_on_c, 1, 73, 127
1, 35818, Note_off_c, 1, 63, 0
1, 35822, Note_off_c, 1, 73, 0
1, 35826, Note_on_c, 1, 75, 127
1, 35826, Note_on_c, 1, 61, 127
1, 35852, Note_off_c, 1, 75, 0
1, 35856, Note_on_c, 1, 69, 127
1, 35878, Note_off_c, 1, 61, 0
1, 35882, Note_off_c, 1, 69, 0
1, 35886, Note_on_c, 1, 68, 127
1, 35886, Note_on_c, 1, 60, 127
1, 35912, Note_off_c, 1, 68, 0
1, 35916, Note_on_c, 1, 66, 127
1, 35938, Note_off_c, 1, 60, 0
1, 35942, Note_off_c, 1, 66, 0
1, 35946, Note_on_c, 1, 64, 127
1, 35946, Note_on_c, 1, 56, 127
1, 35972, Note_off_c, 1, 64, 0
1, 35976, Note_on_c, 1, 63, 127
1, 35998, Note_off_c, 1, 56, 0
1, 36002, Note_off_c, 1, 63, 0
1, 36006, Note_on_c, 1, 64, 127
1, 36006, Note_on_c, 1, 61, 127
1, 36032, Note_off_c, 1, 64, 0
1, 36036, Note_on_c, 1, 73, 127
1, 36058, Note_off_c, 1, 61, 0
1, 36062, Note_off_c, 1, 73, 0
1, 36066, Note_on_c, 1, 64, 127
1, 36066, Note_on_c, 1, 49, 127
1, 36092, Note_off_c, 1, 64, 0
1, 36096, Note_on_c, 1, 73, 127
1, 36118, Note_off_c, 1, 49, 0
1, 36122, Note_off_c, 1, 73, 0
1, 36126, Note_on_c, 1, 65, 127
1, 36126, Note_on_c, 1, 47, 127
1, 36152, Note_off_c, 1, 65, 0
1, 36156, Note_on_c, 1, 74, 127
1, 36178, Note_off_c, 1, 47, 0
1, 36182, Note_off_c, 1, 74, 0
1, 36186, Note_on_c, 1, 65, 127
1, 36186, Note_on_c, 1, 59, 127
1, 36212, Note_off_c, 1, 65, 0
1, 36216, Note_on_c, 1, 74, 127
1, 36238, Note_off_c, 1, 59, 0
1, 36242, Note_off_c, 1, 74, 0
1, 36246, Note_on_c, 1, 73, 127
1, 36246, Note_on_c, 1, 57, 127
1, 36272, Note_off_c, 1, 73, 0
1, 36276, Note_on_c, 1, 69, 127
1, 36298, Note_off_c, 1, 57, 0
1, 36302, Note_off_c, 1, 69, 0
1, 36306, Note_on_c, 1, 68, 127
1, 36306, Note_on_c, 1, 45, 127
1, 36332, Note_off_c, 1, 68, 0
1, 36336, Note_on_c, 1, 66, 127
1, 36358, Note_off_c, 1, 45, 0
1, 36362, Note_off_c, 1, 66, 0
1, 36366, Note_on_c, 1, 65, 127
1, 36366, Note_on_c, 1, 44, 127
1, 36392, Note_off_c, 1, 65, 0
1, 36396, Note_on_c, 1, 74, 127
1, 36418, Note_off_c, 1, 44, 0
1, 36422, Note_off_c, 1, 74, 0
1, 36426, Note_on_c, 1, 73, 127
1, 36426, Note_on_c, 1, 56, 127
1, 36452, Note_off_c, 1, 73, 0
1, 36456, Note_on_c, 1, 71, 127
1, 36478, Note_off_c, 1, 56, 0
1, 36482, Note_off_c, 1, 71, 0
1, 36486, Note_on_c, 1, 70, 127
1, 36486, Note_on_c, 1, 54, 127
1, 36512, Note_off_c, 1, 70, 0
1, 36516, Note_on_c, 1, 71, 127
1, 36538, Note_off_c, 1, 54, 0
1, 36542, Note_off_c, 1, 71, 0
1, 36546, Note_on_c, 1, 73, 127
1, 36546, Note_on_c, 1, 42, 127
1, 36572, Note_off_c, 1, 73, 0
1, 36576, Note_on_c, 1, 75, 127
1, 36598, Note_off_c, 1, 42, 0
1, 36602, Note_off_c, 1, 75, 0
1, 36606, Note_on_c, 1, 76, 127
1, 36606, Note_on_c, 1, 49, 127
1, 36632, Note_off_c, 1, 76, 0
1, 36636, Note_on_c, 1, 71, 127
1, 36658, Note_off_c, 1, 49, 0
1, 36662, Note_off_c, 1, 71, 0
1, 36666, Note_on_c, 1, 69, 127
1, 36666, Note_on_c, 1, 52, 127
1, 36692, Note_off_c, 1, 69, 0
1, 36696, Note_on_c, 1, 68, 127
1, 36718, Note_off_c, 1, 52, 0
1, 36722, Note_off_c, 1, 68, 0
1, 36726, Note_on_c, 1, 67, 127
1, 36726, Note_on_c, 1, 46, 127
1, 36752, Note_off_c, 1, 67, 0
1, 36756, Note_on_c, 1, 68, 127
1, 36778, Note_off_c, 1, 46, 0
1, 36782, Note_off_c, 1, 68, 0
1, 36786, Note_on_c, 1, 70, 127
1, 36786, Note_on_c, 1, 49, 127
1, 36812, Note_off_c, 1, 70, 0
1, 36816, Note_on_c, 1, 64, 127
1, 36838, Note_off_c, 1, 49, 0
1, 36842, Note_off_c, 1, 64, 0
1, 36846, Note_on_c, 1, 63, 127
1, 36846, Note_on_c, 1, 43, 127
1, 36872, Note_off_c, 1, 63, 0
1, 36876, Note_on_c, 1, 61, 127
1, 36898, Note_off_c, 1, 43, 0
1, 36902, Note_off_c, 1, 61, 0
1, 36906, Note_on_c, 1, 59, 127
1, 36906, Note_on_c, 1, 51, 127
1, 36932, Note_off_c, 1, 59, 0
1, 36936, Note_on_c, 1, 58, 127
1, 36958, Note_off_c, 1, 51, 0
1, 36962, Note_off_c, 1, 58, 0
1, 36966, Note_on_c, 1, 59, 127
1, 36966, Note_on_c, 1, 56, 127
1, 36992, Note_off_c, 1, 59, 0
1, 36996, Note_on_c, 1, 68, 127
1, 37018, Note_off_c, 1, 56, 0
1, 37022, Note_off_c, 1, 68, 0
1, 37026, Note_on_c, 1, 59, 127
1, 37026, Note_on_c, 1, 44, 127
1, 37052, Note_off_c, 1, 59, 0
1, 37056, Note_on_c, 1, 68, 127
1, 37078, Note_off_c, 1, 44, 0
1, 37082, Note_off_c, 1, 68, 0
1, 37086, Note_on_c, 1, 60, 127
1, 37086, Note_on_c, 1, 42, 127
1, 37112, Note_off_c, 1, 60, 0
1, 37116, Note_on_c, 1, 69, 127
1, 37138, Note_off_c, 1, 42, 0
1, 37142, Note_off_c, 1, 69, 0
1, 37146, Note_on_c, 1, 60, 127
1, 37146, Note_on_c, 1, 54, 127
1, 37172, Note_off_c, 1, 60, 0
1, 37176, Note_on_c, 1, 69, 127
1, 37198, Note_off_c, 1, 54, 0
1, 37202, Note_off_c, 1, 69, 0
1, 37206, Note_on_c, 1, 68, 127
1, 37206, Note_on_c, 1, 52, 127
1, 37232, Note_off_c, 1, 68, 0
1, 37236, Note_on_c, 1, 64, 127
1, 37258, Note_off_c, 1, 52, 0
1, 37262, Note_off_c, 1, 64, 0
1, 37266, Note_on_c, 1, 63, 127
1, 37266, Note_on_c, 1, 40, 127
1, 37292, Note_off_c, 1, 63, 0
1, 37296, Note_on_c, 1, 61, 127
1, 37318, Note_off_c, 1, 40, 0
1, 37322, Note_off_c, 1, 61, 0
1, 37326, Note_on_c, 1, 60, 127
1, 37326, Note_on_c, 1, 39, 127
1, 37352, Note_off_c, 1, 60, 0
1, 37356, Note_on_c, 1, 69, 127
1, 37378, Note_off_c, 1, 39, 0
1, 37382, Note_off_c, 1, 69, 0
1, 37386, Note_on_c, 1, 68, 127
1, 37386, Note_on_c, 1, 51, 127
1, 37412, Note_off_c, 1, 68, 0
1, 37416, Note_on_c, 1, 66, 127
1, 37438, Note_off_c, 1, 51, 0
1, 37442, Note_off_c, 1, 66, 0
1, 37446, Note_on_c, 1, 65, 127
1, 37446, Note_on_c, 1, 49, 127
1, 37472, Note_off_c, 1, 65, 0
1, 37476, Note_on_c, 1, 66, 127
1, 37498, Note_off_c, 1, 49, 0
1, 37502, Note_off_c, 1, 66, 0
1, 37506, Note_on_c, 1, 68, 127
1, 37506, Note_on_c, 1, 37, 127
1, 37532, Note_off_c, 1, 68, 0
1, 37536, Note_on_c, 1, 70, 127
1, 37558, Note_off_c, 1, 37, 0
1, 37562, Note_off_c, 1, 70, 0
1, 37566, Note_on_c, 1, 71, 127
1, 37592, Note_off_c, 1, 71, 0
1, 37596, Note_on_c, 1, 61, 127
1, 37596, Note_on_c, 1, 74, 127
1, 37622, Note_off_c, 1, 61, 0
1, 37622, Note_off_c, 1, 74, 0
1, 37626, Note_on_c, 1, 63, 127
1, 37626, Note_on_c, 1, 73, 127
1, 37652, Note_off_c, 1, 63, 0
1, 37652, Note_off_c, 1, 73, 0
1, 37656, Note_on_c, 1, 65, 127
1, 37656, Note_on_c, 1, 71, 127
1, 37682, Note_off_c, 1, 65, 0
1, 37682, Note_off_c, 1, 71, 0
1, 37686, Note_on_c, 1, 70, 127
1, 37686, Note_on_c, 1, 66, 127
1, 37712, Note_off_c, 1, 70, 0
1, 37716, Note_on_c, 1, 71, 127
1, 37738, Note_off_c, 1, 66, 0
1, 37742, Note_off_c, 1, 71, 0
1, 37746, Note_on_c, 1, 73, 127
1, 37746, Note_on_c, 1, 54, 127
1, 37772, Note_off_c, 1, 73, 0
1, 37776, Note_on_c, 1, 67, 127
1, 37798, Note_off_c, 1, 54, 0
1, 37802, Note_off_c, 1, 67, 0
1, 37806, Note_on_c, 1, 66, 127
1, 37832, Note_off_c, 1, 66, 0
1, 37836, Note_on_c, 1, 54, 127
1, 37836, Note_on_c, 1, 64, 127
1, 37862, Note_off_c, 1, 54, 0
1, 37862, Note_off_c, 1, 64, 0
1, 37866, Note_on_c, 1, 56, 127
1, 37866, Note_on_c, 1, 63, 127
1, 37892, Note_off_c, 1, 56, 0
1, 37892, Note_off_c, 1, 63, 0
1, 37896, Note_on_c, 1, 58, 127
1, 37896, Note_on_c, 1, 61, 127
1, 37922, Note_off_c, 1, 58, 0
1, 37922, Note_off_c, 1, 61, 0
1, 37926, Note_on_c, 1, 63, 127
1, 37926, Note_on_c, 1, 59, 127
1, 37952, Note_off_c, 1, 63, 0
1, 37956, Note_on_c, 1, 64, 127
1, 37978, Note_off_c, 1, 59, 0
1, 37982, Note_off_c, 1, 64, 0
1, 37986, Note_on_c, 1, 66, 127
1, 37986, Note_on_c, 1, 47, 127
1, 38012, Note_off_c, 1, 66, 0
1, 38016, Note_on_c, 1, 68, 127
1, 38038, Note_off_c, 1, 47, 0
1, 38042, Note_off_c, 1, 68, 0
1, 38046, Note_on_c, 1, 69, 127
1, 38072, Note_off_c, 1, 69, 0
1, 38076, Note_on_c, 1, 47, 127
1, 38076, Note_on_c, 1, 73, 127
1, 38102, Note_off_c, 1, 47, 0
1, 38102, Note_off_c, 1, 73, 0
1, 38106, Note_on_c, 1, 49, 127
1, 38106, Note_on_c, 1, 71, 127
1, 38132, Note_off_c, 1, 49, 0
1, 38132, Note_off_c, 1, 71, 0
1, 38136, Note_on_c, 1, 51, 127
1, 38136, Note_on_c, 1, 69, 127
1, 38162, Note_off_c, 1, 51, 0
1, 38162, Note_off_c, 1, 69, 0
1, 38166, Note_on_c, 1, 68, 127
1, 38166, Note_on_c, 1, 52, 127
1, 38192, Note_off_c, 1, 68, 0
1, 38196, Note_on_c, 1, 69, 127
1, 38218, Note_off_c, 1, 52, 0
1, 38222, Note_off_c, 1, 69, 0
1, 38226, Note_on_c, 1, 71, 127
1, 38226, Note_on_c, 1, 40, 127
1, 38252, Note_off_c, 1, 71, 0
1, 38256, Note_on_c, 1, 66, 127
1, 38278, Note_off_c, 1, 40, 0
1, 38282, Note_off_c, 1, 66, 0
1, 38286, Note_on_c, 1, 64, 127
1, 38312, Note_off_c, 1, 64, 0
1, 38316, Note_on_c, 1, 40, 127
1, 38316, Note_on_c, 1, 62, 127
1, 38342, Note_off_c, 1, 40, 0
1, 38342, Note_off_c, 1, 62, 0
1, 38346, Note_on_c, 1, 42, 127
1, 38346, Note_on_c, 1, 61, 127
1, 38372, Note_off_c, 1, 42, 0
1, 38372, Note_off_c, 1, 61, 0
1, 38376, Note_on_c, 1, 44, 127
1, 38376, Note_on_c, 1, 59, 127
1, 38402, Note_off_c, 1, 44, 0
1, 38402, Note_off_c, 1, 59, 0
1, 38406, Note_on_c, 1, 45, 127
1, 38406, Note_on_c, 1, 61, 127
1, 38432, Note_off_c, 1, 45, 0
1, 38436, Note_on_c, 1, 52, 127
1, 38458, Note_off_c, 1, 61, 0
1, 38462, Note_off_c, 1, 52, 0
1, 38466, Note_on_c, 1, 45, 127
1, 38466, Note_on_c, 1, 61, 127
1, 38466, Note_on_c, 1, 69, 127
1, 38492, Note_off_c, 1, 45, 0
1, 38496, Note_on_c, 1, 52, 127
1, 38518, Note_off_c, 1, 61, 0
1, 38518, Note_off_c, 1, 69, 0
1, 38522, Note_off_c, 1, 52, 0
1, 38526, Note_on_c, 1, 44, 127
1, 38552, Note_off_c, 1, 44, 0
1, 38584, Note_on_c, 1, 62, 127
1, 38584, Note_on_c, 1, 71, 127
1, 38639, Note_off_c, 1, 62, 0
1, 38643, Note_off_c, 1, 71, 0
1, 38646, Note_on_c, 1, 45, 127
1, 38672, Note_off_c, 1, 45, 0
1, 38676, Note_on_c, 1, 52, 127
1, 38702, Note_off_c, 1, 52, 0
1, 38706, Note_on_c, 1, 45, 127
1, 38706, Note_on_c, 1, 61, 127
1, 38706, Note_on_c, 1, 69, 127
1, 38732, Note_off_c, 1, 45, 0
1, 38736, Note_on_c, 1, 52, 127
1, 38758, Note_off_c, 1, 61, 0
1, 38758, Note_off_c, 1, 69, 0
1, 38762, Note_off_c, 1, 52, 0
1, 38764, Note_on_c, 1, 61, 127
1, 38764, Note_on_c, 1, 69, 127
1, 38766, Note_on_c, 1, 41, 127
1, 38792, Note_off_c, 1, 41, 0
1, 38796, Note_on_c, 1, 50, 127
1, 38820, Note_on_c, 1, 68, 127
1, 38822, Note_off_c, 1, 50, 0
1, 38823, Note_off_c, 1, 61, 0
1, 38823, Note_off_c, 1, 69, 0
1, 38824, Note_on_c, 1, 59, 127
1, 38883, Note_off_c, 1, 68, 0
1, 38883, Note_off_c, 1, 59, 0
1, 38886, Note_on_c, 1, 42, 127
1, 38912, Note_off_c, 1, 42, 0
1, 38916, Note_on_c, 1, 49, 127
1, 38942, Note_off_c, 1, 49, 0
1, 38946, Note_on_c, 1, 42, 127
1, 38946, Note_on_c, 1, 57, 127
1, 38946, Note_on_c, 1, 66, 127
1, 38972, Note_off_c, 1, 42, 0
1, 38972, Note_off_c, 1, 57, 0
1, 38972, Note_off_c, 1, 66, 0
1, 38976, Note_on_c, 1, 49, 127
1, 38976, Note_on_c, 1, 59, 127
1, 38976, Note_on_c, 1, 68, 127
1, 39002, Note_off_c, 1, 49, 0
1, 39002, Note_off_c, 1, 59, 0
1, 39002, Note_off_c, 1, 68, 0
1, 39006, Note_on_c, 1, 40, 127
1, 39006, Note_on_c, 1, 61, 127
1, 39006, Note_on_c, 1, 69, 127
1, 39032, Note_off_c, 1, 40, 0
1, 39036, Note_on_c, 1, 49, 127
1, 39058, Note_off_c, 1, 61, 0
1, 39058, Note_off_c, 1, 69, 0
1, 39062, Note_off_c, 1, 49, 0
1, 39066, Note_on_c, 1, 40, 127
1, 39066, Note_on_c, 1, 68, 127
1, 39066, Note_on_c, 1, 73, 127
1, 39092, Note_off_c, 1, 40, 0
1, 39096, Note_on_c, 1, 49, 127
1, 39118, Note_off_c, 1, 68, 0
1, 39118, Note_off_c, 1, 73, 0
1, 39122, Note_off_c, 1, 49, 0
1, 39126, Note_on_c, 1, 39, 127
1, 39152, Note_off_c, 1, 39, 0
1, 39156, Note_on_c, 1, 43, 127
1, 39182, Note_off_c, 1, 43, 0
1, 39186, Note_on_c, 1, 46, 127
1, 39186, Note_on_c, 1, 67, 127
1, 39186, Note_on_c, 1, 76, 127
1, 39212, Note_off_c, 1, 46, 0
1, 39216, Note_on_c, 1, 49, 127
1, 39238, Note_off_c, 1, 67, 0
1, 39238, Note_off_c, 1, 76, 0
1, 39242, Note_off_c, 1, 49, 0
1, 39246, Note_on_c, 1, 47, 127
1, 39246, Note_on_c, 1, 68, 127
1, 39246, Note_on_c, 1, 75, 127
1, 39272, Note_off_c, 1, 47, 0
1, 39276, Note_on_c, 1, 46, 127
1, 39298, Note_off_c, 1, 68, 0
1, 39298, Note_off_c, 1, 75, 0
1, 39302, Note_off_c, 1, 46, 0
1, 39306, Note_on_c, 1, 44, 127
1, 39306, Note_on_c, 1, 70, 127
1, 39306, Note_on_c, 1, 73, 127
1, 39332, Note_off_c, 1, 44, 0
1, 39336, Note_on_c, 1, 43, 127
1, 39358, Note_off_c, 1, 70, 0
1, 39358, Note_off_c, 1, 73, 0
1, 39362, Note_off_c, 1, 43, 0
1, 39366, Note_on_c, 1, 44, 127
1, 39392, Note_off_c, 1, 44, 0
1, 39396, Note_on_c, 1, 51, 127
1, 39422, Note_off_c, 1, 51, 0
1, 39426, Note_on_c, 1, 44, 127
1, 39426, Note_on_c, 1, 68, 127
1, 39426, Note_on_c, 1, 71, 127
1, 39452, Note_off_c, 1, 44, 0
1, 39452, Note_off_c, 1, 68, 0
1, 39452, Note_off_c, 1, 71, 0
1, 39456, Note_on_c, 1, 51, 127
1, 39456, Note_on_c, 1, 67, 127
1, 39456, Note_on_c, 1, 70, 127
1, 39482, Note_off_c, 1, 51, 0
1, 39482, Note_off_c, 1, 67, 0
1, 39482, Note_off_c, 1, 70, 0
1, 39486, Note_on_c, 1, 42, 127
1, 39486, Note_on_c, 1, 68, 127
1, 39486, Note_on_c, 1, 71, 127
1, 39512, Note_off_c, 1, 42, 0
1, 39516, Note_on_c, 1, 51, 127
1, 39538, Note_off_c, 1, 68, 0
1, 39538, Note_off_c, 1, 71, 0
1, 39542, Note_off_c, 1, 51, 0
1, 39546, Note_on_c, 1, 42, 127
1, 39546, Note_on_c, 1, 70, 127
1, 39546, Note_on_c, 1, 75, 127
1, 39572, Note_off_c, 1, 42, 0
1, 39576, Note_on_c, 1, 51, 127
1, 39598, Note_off_c, 1, 70, 0
1, 39598, Note_off_c, 1, 75, 0
1, 39602, Note_off_c, 1, 51, 0
1, 39606, Note_on_c, 1, 41, 127
1, 39632, Note_off_c, 1, 41, 0
1, 39636, Note_on_c, 1, 45, 127
1, 39662, Note_off_c, 1, 45, 0
1, 39666, Note_on_c, 1, 48, 127
1, 39666, Note_on_c, 1, 69, 127
1, 39666, Note_on_c, 1, 78, 127
1, 39692, Note_off_c, 1, 48, 0
1, 39696, Note_on_c, 1, 51, 127
1, 39718, Note_off_c, 1, 69, 0
1, 39718, Note_off_c, 1, 78, 0
1, 39722, Note_off_c, 1, 51, 0
1, 39726, Note_on_c, 1, 49, 127
1, 39726, Note_on_c, 1, 70, 127
1, 39726, Note_on_c, 1, 77, 127
1, 39752, Note_off_c, 1, 49, 0
1, 39756, Note_on_c, 1, 48, 127
1, 39778, Note_off_c, 1, 70, 0
1, 39778, Note_off_c, 1, 77, 0
1, 39782, Note_off_c, 1, 48, 0
1, 39786, Note_on_c, 1, 46, 127
1, 39786, Note_on_c, 1, 72, 127
1, 39786, Note_on_c, 1, 75, 127
1, 39812, Note_off_c, 1, 46, 0
1, 39816, Note_on_c, 1, 45, 127
1, 39838, Note_off_c, 1, 72, 0
1, 39838, Note_off_c, 1, 75, 0
1, 39842, Note_off_c, 1, 45, 0
1, 39846, Note_on_c, 1, 74, 127
1, 39846, Note_on_c, 1, 65, 127
1, 39846, Note_on_c, 1, 46, 127
1, 39872, Note_off_c, 1, 74, 0
1, 39872, Note_off_c, 1, 65, 0
1, 39876, Note_on_c, 1, 71, 127
1, 39898, Note_off_c, 1, 46, 0
1, 39902, Note_off_c, 1, 71, 0
1, 39906, Note_on_c, 1, 70, 127
1, 39906, Note_on_c, 1, 48, 127
1, 39932, Note_off_c, 1, 70, 0
1, 39936, Note_on_c, 1, 68, 127
1, 39958, Note_off_c, 1, 48, 0
1, 39962, Note_off_c, 1, 68, 0
1, 39966, Note_on_c, 1, 77, 127
1, 39966, Note_on_c, 1, 50, 127
1, 39992, Note_off_c, 1, 77, 0
1, 39996, Note_on_c, 1, 68, 127
1, 40018, Note_off_c, 1, 50, 0
1, 40022, Note_off_c, 1, 68, 0
1, 40026, Note_on_c, 1, 77, 127
1, 40026, Note_on_c, 1, 46, 127
1, 40052, Note_off_c, 1, 77, 0
1, 40056, Note_on_c, 1, 68, 127
1, 40078, Note_off_c, 1, 46, 0
1, 40082, Note_off_c, 1, 68, 0
1, 40086, Note_on_c, 1, 67, 127
1, 40086, Note_on_c, 1, 51, 127
1, 40112, Note_off_c, 1, 67, 0
1, 40116, Note_on_c, 1, 76, 127
1, 40138, Note_off_c, 1, 51, 0
1, 40142, Note_off_c, 1, 76, 0
1, 40146, Note_on_c, 1, 75, 127
1, 40146, Note_on_c, 1, 53, 127
1, 40172, Note_off_c, 1, 75, 0
1, 40176, Note_on_c, 1, 73, 127
1, 40198, Note_off_c, 1, 53, 0
1, 40202, Note_off_c, 1, 73, 0
1, 40206, Note_on_c, 1, 82, 127
1, 40206, Note_on_c, 1, 55, 127
1, 40232, Note_off_c, 1, 82, 0
1, 40236, Note_on_c, 1, 73, 127
1, 40258, Note_off_c, 1, 55, 0
1, 40262, Note_off_c, 1, 73, 0
1, 40266, Note_on_c, 1, 82, 127
1, 40266, Note_on_c, 1, 51, 127
1, 40292, Note_off_c, 1, 82, 0
1, 40296, Note_on_c, 1, 73, 127
1, 40318, Note_off_c, 1, 51, 0
1, 40322, Note_off_c, 1, 73, 0
1, 40326, Note_on_c, 1, 72, 127
1, 40326, Note_on_c, 1, 56, 127
1, 40352, Note_off_c, 1, 72, 0
1, 40356, Note_on_c, 1, 69, 127
1, 40378, Note_off_c, 1, 56, 0
1, 40382, Note_off_c, 1, 69, 0
1, 40386, Note_on_c, 1, 68, 127
1, 40386, Note_on_c, 1, 58, 127
1, 40412, Note_off_c, 1, 68, 0
1, 40416, Note_on_c, 1, 66, 127
1, 40438, Note_off_c, 1, 58, 0
1, 40442, Note_off_c, 1, 66, 0
1, 40446, Note_on_c, 1, 75, 127
1, 40446, Note_on_c, 1, 60, 127
1, 40472, Note_off_c, 1, 75, 0
1, 40476, Note_on_c, 1, 66, 127
1, 40498, Note_off_c, 1, 60, 0
1, 40502, Note_off_c, 1, 66, 0
1, 40506, Note_on_c, 1, 75, 127
1, 40506, Note_on_c, 1, 56, 127
1, 40532, Note_off_c, 1, 75, 0
1, 40536, Note_on_c, 1, 66, 127
1, 40558, Note_off_c, 1, 56, 0
1, 40562, Note_off_c, 1, 66, 0
1, 40566, Note_on_c, 1, 65, 127
1, 40566, Note_on_c, 1, 61, 127
1, 40592, Note_off_c, 1, 65, 0
1, 40596, Note_on_c, 1, 74, 127
1, 40618, Note_off_c, 1, 61, 0
1, 40622, Note_off_c, 1, 74, 0
1, 40626, Note_on_c, 1, 73, 127
1, 40626, Note_on_c, 1, 63, 127
1, 40652, Note_off_c, 1, 73, 0
1, 40656, Note_on_c, 1, 71, 127
1, 40678, Note_off_c, 1, 63, 0
1, 40682, Note_off_c, 1, 71, 0
1, 40686, Note_on_c, 1, 80, 127
1, 40686, Note_on_c, 1, 65, 127
1, 40712, Note_off_c, 1, 80, 0
1, 40716, Note_on_c, 1, 71, 127
1, 40738, Note_off_c, 1, 65, 0
1, 40742, Note_off_c, 1, 71, 0
1, 40746, Note_on_c, 1, 80, 127
1, 40746, Note_on_c, 1, 61, 127
1, 40772, Note_off_c, 1, 80, 0
1, 40776, Note_on_c, 1, 71, 127
1, 40798, Note_off_c, 1, 61, 0
1, 40802, Note_off_c, 1, 71, 0
1, 40806, Note_on_c, 1, 70, 127
1, 40806, Note_on_c, 1, 66, 127
1, 40832, Note_off_c, 1, 70, 0
1, 40836, Note_on_c, 1, 73, 127
1, 40862, Note_off_c, 1, 73, 0
1, 40866, Note_on_c, 1, 75, 127
1, 40892, Note_off_c, 1, 75, 0
1, 40896, Note_on_c, 1, 77, 127
1, 40911, Note_off_c, 1, 66, 0
1, 40922, Note_off_c, 1, 77, 0
1, 40926, Note_on_c, 1, 78, 127
1, 40956, Note_on_c, 1, 65, 127
1, 40978, Note_off_c, 1, 78, 0
1, 40982, Note_off_c, 1, 65, 0
1, 40986, Note_on_c, 1, 63, 127
1, 40986, Note_on_c, 1, 70, 127
1, 41012, Note_off_c, 1, 63, 0
1, 41016, Note_on_c, 1, 61, 127
1, 41038, Note_off_c, 1, 70, 0
1, 41042, Note_off_c, 1, 61, 0
1, 41046, Note_on_c, 1, 60, 127
1, 41046, Note_on_c, 1, 69, 127
1, 41072, Note_off_c, 1, 60, 0
1, 41076, Note_on_c, 1, 58, 127
1, 41098, Note_off_c, 1, 69, 0
1, 41102, Note_off_c, 1, 58, 0
1, 41106, Note_on_c, 1, 60, 127
1, 41106, Note_on_c, 1, 78, 127
1, 41132, Note_off_c, 1, 60, 0
1, 41136, Note_on_c, 1, 63, 127
1, 41158, Note_off_c, 1, 78, 0
1, 41162, Note_off_c, 1, 63, 0
1, 41166, Note_on_c, 1, 62, 127
1, 41166, Note_on_c, 1, 77, 127
1, 41192, Note_off_c, 1, 62, 0
1, 41196, Note_on_c, 1, 60, 127
1, 41218, Note_off_c, 1, 77, 0
1, 41222, Note_off_c, 1, 60, 0
1, 41226, Note_on_c, 1, 62, 127
1, 41226, Note_on_c, 1, 68, 127
1, 41252, Note_off_c, 1, 62, 0
1, 41256, Note_on_c, 1, 65, 127
1, 41278, Note_off_c, 1, 68, 0
1, 41282, Note_off_c, 1, 65, 0
1, 41286, Note_on_c, 1, 67, 127
1, 41286, Note_on_c, 1, 65, 127
1, 41312, Note_off_c, 1, 67, 0
1, 41316, Note_on_c, 1, 70, 127
1, 41338, Note_off_c, 1, 65, 0
1, 41342, Note_off_c, 1, 70, 0
1, 41346, Note_on_c, 1, 72, 127
1, 41346, Note_on_c, 1, 63, 127
1, 41372, Note_off_c, 1, 72, 0
1, 41376, Note_on_c, 1, 74, 127
1, 41398, Note_off_c, 1, 63, 0
1, 41402, Note_off_c, 1, 74, 0
1, 41406, Note_on_c, 1, 75, 127
1, 41436, Note_on_c, 1, 61, 127
1, 41458, Note_off_c, 1, 75, 0
1, 41462, Note_off_c, 1, 61, 0
1, 41466, Note_on_c, 1, 59, 127
1, 41466, Note_on_c, 1, 66, 127
1, 41492, Note_off_c, 1, 59, 0
1, 41496, Note_on_c, 1, 58, 127
1, 41518, Note_off_c, 1, 66, 0
1, 41522, Note_off_c, 1, 58, 0
1, 41526, Note_on_c, 1, 56, 127
1, 41526, Note_on_c, 1, 65, 127
1, 41552, Note_off_c, 1, 56, 0
1, 41556, Note_on_c, 1, 55, 127
1, 41578, Note_off_c, 1, 65, 0
1, 41582, Note_off_c, 1, 55, 0
1, 41586, Note_on_c, 1, 56, 127
1, 41586, Note_on_c, 1, 74, 127
1, 41612, Note_off_c, 1, 56, 0
1, 41616, Note_on_c, 1, 59, 127
1, 41638, Note_off_c, 1, 74, 0
1, 41642, Note_off_c, 1, 59, 0
1, 41646, Note_on_c, 1, 58, 127
1, 41646, Note_on_c, 1, 73, 127
1, 41672, Note_off_c, 1, 58, 0
1, 41676, Note_on_c, 1, 56, 127
1, 41698, Note_off_c, 1, 73, 0
1, 41702, Note_off_c, 1, 56, 0
1, 41706, Note_on_c, 1, 58, 127
1, 41706, Note_on_c, 1, 64, 127
1, 41732, Note_off_c, 1, 58, 0
1, 41736, Note_on_c, 1, 61, 127
1, 41758, Note_off_c, 1, 64, 0
1, 41762, Note_off_c, 1, 61, 0
1, 41766, Note_on_c, 1, 63, 127
1, 41766, Note_on_c, 1, 61, 127
1, 41792, Note_off_c, 1, 63, 0
1, 41796, Note_on_c, 1, 67, 127
1, 41818, Note_off_c, 1, 61, 0
1, 41822, Note_off_c, 1, 67, 0
1, 41826, Note_on_c, 1, 68, 127
1, 41826, Note_on_c, 1, 59, 127
1, 41852, Note_off_c, 1, 68, 0
1, 41856, Note_on_c, 1, 70, 127
1, 41878, Note_off_c, 1, 59, 0
1, 41882, Note_off_c, 1, 70, 0
1, 41886, Note_on_c, 1, 71, 127
1, 41916, Note_on_c, 1, 58, 127
1, 41938, Note_off_c, 1, 71, 0
1, 41942, Note_off_c, 1, 58, 0
1, 41946, Note_on_c, 1, 56, 127
1, 41946, Note_on_c, 1, 63, 127
1, 41972, Note_off_c, 1, 56, 0
1, 41976, Note_on_c, 1, 54, 127
1, 41998, Note_off_c, 1, 63, 0
1, 42002, Note_off_c, 1, 54, 0
1, 42006, Note_on_c, 1, 53, 127
1, 42006, Note_on_c, 1, 62, 127
1, 42032, Note_off_c, 1, 53, 0
1, 42036, Note_on_c, 1, 51, 127
1, 42058, Note_off_c, 1, 62, 0
1, 42062, Note_off_c, 1, 51, 0
1, 42066, Note_on_c, 1, 53, 127
1, 42066, Note_on_c, 1, 71, 127
1, 42092, Note_off_c, 1, 53, 0
1, 42096, Note_on_c, 1, 56, 127
1, 42118, Note_off_c, 1, 71, 0
1, 42122, Note_off_c, 1, 56, 0
1, 42126, Note_on_c, 1, 55, 127
1, 42126, Note_on_c, 1, 70, 127
1, 42152, Note_off_c, 1, 55, 0
1, 42156, Note_on_c, 1, 53, 127
1, 42178, Note_off_c, 1, 70, 0
1, 42182, Note_off_c, 1, 53, 0
1, 42186, Note_on_c, 1, 55, 127
1, 42186, Note_on_c, 1, 61, 127
1, 42212, Note_off_c, 1, 55, 0
1, 42216, Note_on_c, 1, 58, 127
1, 42238, Note_off_c, 1, 61, 0
1, 42242, Note_off_c, 1, 58, 0
1, 42246, Note_on_c, 1, 51, 127
1, 42246, Note_on_c, 1, 60, 127
1, 42272, Note_off_c, 1, 51, 0
1, 42276, Note_on_c, 1, 50, 127
1, 42298, Note_off_c, 1, 60, 0
1, 42302, Note_off_c, 1, 50, 0
1, 42306, Note_on_c, 1, 51, 127
1, 42306, Note_on_c, 1, 69, 127
1, 42332, Note_off_c, 1, 51, 0
1, 42336, Note_on_c, 1, 54, 127
1, 42358, Note_off_c, 1, 69, 0
1, 42362, Note_off_c, 1, 54, 0
1, 42366, Note_on_c, 1, 52, 127
1, 42366, Note_on_c, 1, 68, 127
1, 42392, Note_off_c, 1, 52, 0
1, 42396, Note_on_c, 1, 51, 127
1, 42418, Note_off_c, 1, 68, 0
1, 42422, Note_off_c, 1, 51, 0
1, 42426, Note_on_c, 1, 52, 127
1, 42426, Note_on_c, 1, 59, 127
1, 42452, Note_off_c, 1, 52, 0
1, 42456, Note_on_c, 1, 56, 127
1, 42478, Note_off_c, 1, 59, 0
1, 42482, Note_off_c, 1, 56, 0
1, 42486, Note_on_c, 1, 50, 127
1, 42486, Note_on_c, 1, 58, 127
1, 42512, Note_off_c, 1, 50, 0
1, 42516, Note_on_c, 1, 48, 127
1, 42538, Note_off_c, 1, 58, 0
1, 42542, Note_off_c, 1, 48, 0
1, 42546, Note_on_c, 1, 50, 127
1, 42546, Note_on_c, 1, 68, 127
1, 42572, Note_off_c, 1, 50, 0
1, 42576, Note_on_c, 1, 53, 127
1, 42598, Note_off_c, 1, 68, 0
1, 42602, Note_off_c, 1, 53, 0
1, 42606, Note_on_c, 1, 51, 127
1, 42606, Note_on_c, 1, 67, 127
1, 42632, Note_off_c, 1, 51, 0
1, 42636, Note_on_c, 1, 50, 127
1, 42658, Note_off_c, 1, 67, 0
1, 42662, Note_off_c, 1, 50, 0
1, 42666, Note_on_c, 1, 51, 127
1, 42666, Note_on_c, 1, 57, 127
1, 42692, Note_off_c, 1, 51, 0
1, 42696, Note_on_c, 1, 54, 127
1, 42718, Note_off_c, 1, 57, 0
1, 42722, Note_off_c, 1, 54, 0
1, 42726, Note_on_c, 1, 48, 127
1, 42726, Note_on_c, 1, 56, 127
1, 42752, Note_off_c, 1, 48, 0
1, 42756, Note_on_c, 1, 46, 127
1, 42778, Note_off_c, 1, 56, 0
1, 42782, Note_off_c, 1, 46, 0
1, 42786, Note_on_c, 1, 48, 127
1, 42786, Note_on_c, 1, 66, 127
1, 42812, Note_off_c, 1, 48, 0
1, 42816, Note_on_c, 1, 51, 127
1, 42838, Note_off_c, 1, 66, 0
1, 42842, Note_off_c, 1, 51, 0
1, 42846, Note_on_c, 1, 49, 127
1, 42846, Note_on_c, 1, 65, 127
1, 42872, Note_off_c, 1, 49, 0
1, 42876, Note_on_c, 1, 48, 127
1, 42898, Note_off_c, 1, 65, 0
1, 42902, Note_off_c, 1, 48, 0
1, 42906, Note_on_c, 1, 49, 127
1, 42906, Note_on_c, 1, 56, 127
1, 42906, Note_on_c, 1, 64, 127
1, 42932, Note_off_c, 1, 49, 0
1, 42936, Note_on_c, 1, 52, 127
1, 42958, Note_off_c, 1, 56, 0
1, 42958, Note_off_c, 1, 64, 0
1, 42962, Note_off_c, 1, 52, 0
1, 42966, Note_on_c, 1, 46, 127
1, 42966, Note_on_c, 1, 56, 127
1, 42966, Note_on_c, 1, 64, 127
1, 42992, Note_off_c, 1, 46, 0
1, 42996, Note_on_c, 1, 47, 127
1, 43018, Note_off_c, 1, 56, 0
1, 43018, Note_off_c, 1, 64, 0
1, 43022, Note_off_c, 1, 47, 0
1, 43026, Note_on_c, 1, 49, 127
1, 43026, Note_on_c, 1, 55, 127
1, 43026, Note_on_c, 1, 63, 127
1, 43052, Note_off_c, 1, 49, 0
1, 43056, Note_on_c, 1, 47, 127
1, 43078, Note_off_c, 1, 55, 0
1, 43078, Note_off_c, 1, 63, 0
1, 43082, Note_off_c, 1, 47, 0
1, 43086, Note_on_c, 1, 49, 127
1, 43112, Note_off_c, 1, 49, 0
1, 43116, Note_on_c, 1, 55, 127
1, 43142, Note_off_c, 1, 55, 0
1, 43146, Note_on_c, 1, 58, 127
1, 43172, Note_off_c, 1, 58, 0
1, 43176, Note_on_c, 1, 49, 127
1, 43202, Note_off_c, 1, 49, 0
1, 43206, Note_on_c, 1, 47, 127
1, 43206, Note_on_c, 1, 68, 127
1, 43232, Note_off_c, 1, 47, 0
1, 43232, Note_off_c, 1, 68, 0
1, 43236, Note_on_c, 1, 46, 127
1, 43236, Note_on_c, 1, 70, 127
1, 43262, Note_off_c, 1, 46, 0
1, 43262, Note_off_c, 1, 70, 0
1, 43266, Note_on_c, 1, 44, 127
1, 43266, Note_on_c, 1, 71, 127
1, 43292, Note_off_c, 1, 44, 0
1, 43292, Note_off_c, 1, 71, 0
1, 43296, Note_on_c, 1, 46, 127
1, 43296, Note_on_c, 1, 73, 127
1, 43322, Note_off_c, 1, 46, 0
1, 43322, Note_off_c, 1, 73, 0
1, 43326, Note_on_c, 1, 47, 127
1, 43326, Note_on_c, 1, 75, 127
1, 43352, Note_off_c, 1, 47, 0
1, 43352, Note_off_c, 1, 75, 0
1, 43356, Note_on_c, 1, 49, 127
1, 43356, Note_on_c, 1, 71, 127
1, 43382, Note_off_c, 1, 49, 0
1, 43382, Note_off_c, 1, 71, 0
1, 43386, Note_on_c, 1, 51, 127
1, 43386, Note_on_c, 1, 70, 127
1, 43412, Note_off_c, 1, 51, 0
1, 43412, Note_off_c, 1, 70, 0
1, 43416, Note_on_c, 1, 52, 127
1, 43416, Note_on_c, 1, 68, 127
1, 43442, Note_off_c, 1, 52, 0
1, 43442, Note_off_c, 1, 68, 0
1, 43446, Note_on_c, 1, 67, 127
1, 43446, Note_on_c, 1, 52, 127
1, 43472, Note_off_c, 1, 67, 0
1, 43476, Note_on_c, 1, 68, 127
1, 43498, Note_off_c, 1, 52, 0
1, 43502, Note_off_c, 1, 68, 0
1, 43506, Note_on_c, 1, 70, 127
1, 43506, Note_on_c, 1, 43, 127
1, 43532, Note_off_c, 1, 70, 0
1, 43536, Note_on_c, 1, 64, 127
1, 43558, Note_off_c, 1, 43, 0
1, 43562, Note_off_c, 1, 64, 0
1, 43566, Note_on_c, 1, 63, 127
1, 43596, Note_on_c, 1, 61, 127
1, 43622, Note_off_c, 1, 61, 0
1, 43626, Note_on_c, 1, 59, 127
1, 43652, Note_off_c, 1, 59, 0
1, 43656, Note_on_c, 1, 58, 127
1, 43671, Note_off_c, 1, 63, 0
1, 43682, Note_off_c, 1, 58, 0
1, 43686, Note_on_c, 1, 56, 127
1, 43712, Note_off_c, 1, 56, 0
1, 43716, Note_on_c, 1, 63, 127
1, 43742, Note_off_c, 1, 63, 0
1, 43746, Note_on_c, 1, 56, 127
1, 43746, Note_on_c, 1, 71, 127
1, 43746, Note_on_c, 1, 80, 127
1, 43772, Note_off_c, 1, 56, 0
1, 43776, Note_on_c, 1, 63, 127
1, 43798, Note_off_c, 1, 71, 0
1, 43798, Note_off_c, 1, 80, 0
1, 43802, Note_off_c, 1, 63, 0
1, 43806, Note_on_c, 1, 55, 127
1, 43806, Note_on_c, 1, 73, 127
1, 43806, Note_on_c, 1, 82, 127
1, 43832, Note_off_c, 1, 55, 0
1, 43836, Note_on_c, 1, 63, 127
1, 43862, Note_off_c, 1, 63, 0
1, 43911, Note_off_c, 1, 73, 0
1, 43911, Note_off_c, 1, 82, 0
1, 43926, Note_on_c, 1, 56, 127
1, 43952, Note_off_c, 1, 56, 0
1, 43956, Note_on_c, 1, 63, 127
1, 43982, Note_off_c, 1, 63, 0
1, 43986, Note_on_c, 1, 56, 127
1, 43986, Note_on_c, 1, 71, 127
1, 43986, Note_on_c, 1, 80, 127
1, 44012, Note_off_c, 1, 56, 0
1, 44016, Note_on_c, 1, 63, 127
1, 44038, Note_off_c, 1, 71, 0
1, 44038, Note_off_c, 1, 80, 0
1, 44042, Note_off_c, 1, 63, 0
1, 44046, Note_on_c, 1, 51, 127
1, 44046, Note_on_c, 1, 70, 127
1, 44046, Note_on_c, 1, 79, 127
1, 44072, Note_off_c, 1, 51, 0
1, 44076, Note_on_c, 1, 63, 127
1, 44102, Note_off_c, 1, 63, 0
1, 44151, Note_off_c, 1, 70, 0
1, 44151, Note_off_c, 1, 79, 0
1, 44166, Note_on_c, 1, 56, 127
1, 44192, Note_off_c, 1, 56, 0
1, 44196, Note_on_c, 1, 58, 127
1, 44196, Note_on_c, 1, 67, 127
1, 44222, Note_off_c, 1, 58, 0
1, 44222, Note_off_c, 1, 67, 0
1, 44226, Note_on_c, 1, 59, 127
1, 44226, Note_on_c, 1, 68, 127
1, 44252, Note_off_c, 1, 59, 0
1, 44252, Note_off_c, 1, 68, 0
1, 44256, Note_on_c, 1, 61, 127
1, 44256, Note_on_c, 1, 70, 127
1, 44282, Note_off_c, 1, 61, 0
1, 44282, Note_off_c, 1, 70, 0
1, 44286, Note_on_c, 1, 71, 127
1, 44286, Note_on_c, 1, 63, 127
1, 44299, Note_off_c, 1, 71, 0
1, 44301, Note_on_c, 1, 70, 127
1, 44312, Note_off_c, 1, 63, 0
1, 44314, Note_off_c, 1, 70, 0
1, 44316, Note_on_c, 1, 59, 127
1, 44316, Note_on_c, 1, 68, 127
1, 44342, Note_off_c, 1, 59, 0
1, 44342, Note_off_c, 1, 68, 0
1, 44346, Note_on_c, 1, 58, 127
1, 44346, Note_on_c, 1, 73, 127
1, 44346, Note_on_c, 1, 76, 127
1, 44372, Note_off_c, 1, 58, 0
1, 44376, Note_on_c, 1, 56, 127
1, 44398, Note_off_c, 1, 73, 0
1, 44398, Note_off_c, 1, 76, 0
1, 44402, Note_off_c, 1, 56, 0
1, 44406, Note_on_c, 1, 55, 127
1, 44406, Note_on_c, 1, 73, 127
1, 44406, Note_on_c, 1, 76, 127
1, 44432, Note_off_c, 1, 55, 0
1, 44436, Note_on_c, 1, 56, 127
1, 44458, Note_off_c, 1, 73, 0
1, 44458, Note_off_c, 1, 76, 0
1, 44462, Note_off_c, 1, 56, 0
1, 44466, Note_on_c, 1, 58, 127
1, 44466, Note_on_c, 1, 67, 127
1, 44466, Note_on_c, 1, 75, 127
1, 44492, Note_off_c, 1, 58, 0
1, 44496, Note_on_c, 1, 52, 127
1, 44518, Note_off_c, 1, 67, 0
1, 44518, Note_off_c, 1, 75, 0
1, 44522, Note_off_c, 1, 52, 0
1, 44526, Note_on_c, 1, 51, 127
1, 44552, Note_off_c, 1, 51, 0
1, 44556, Note_on_c, 1, 49, 127
1, 44582, Note_off_c, 1, 49, 0
1, 44586, Note_on_c, 1, 47, 127
1, 44612, Note_off_c, 1, 47, 0
1, 44616, Note_on_c, 1, 46, 127
1, 44642, Note_off_c, 1, 46, 0
1, 44646, Note_on_c, 1, 44, 127
1, 44672, Note_off_c, 1, 44, 0
1, 44676, Note_on_c, 1, 56, 127
1, 44702, Note_off_c, 1, 56, 0
1, 44706, Note_on_c, 1, 44, 127
1, 44706, Note_on_c, 1, 68, 127
1, 44706, Note_on_c, 1, 71, 127
1, 44732, Note_off_c, 1, 44, 0
1, 44736, Note_on_c, 1, 56, 127
1, 44758, Note_off_c, 1, 68, 0
1, 44758, Note_off_c, 1, 71, 0
1, 44762, Note_off_c, 1, 56, 0
1, 44766, Note_on_c, 1, 54, 127
1, 44766, Note_on_c, 1, 69, 127
1, 44766, Note_on_c, 1, 73, 127
1, 44792, Note_off_c, 1, 54, 0
1, 44796, Note_on_c, 1, 63, 127
1, 44818, Note_off_c, 1, 69, 0
1, 44818, Note_off_c, 1, 73, 0
1, 44822, Note_off_c, 1, 63, 0
1, 44826, Note_on_c, 1, 54, 127
1, 44826, Note_on_c, 1, 68, 127
1, 44826, Note_on_c, 1, 72, 127
1, 44852, Note_off_c, 1, 54, 0
1, 44856, Note_on_c, 1, 63, 127
1, 44878, Note_off_c, 1, 68, 0
1, 44878, Note_off_c, 1, 72, 0
1, 44882, Note_off_c, 1, 63, 0
1, 44886, Note_on_c, 1, 52, 127
1, 44912, Note_off_c, 1, 52, 0
1, 44916, Note_on_c, 1, 61, 127
1, 44942, Note_off_c, 1, 61, 0
1, 44946, Note_on_c, 1, 52, 127
1, 44946, Note_on_c, 1, 68, 127
1, 44946, Note_on_c, 1, 73, 127
1, 44972, Note_off_c, 1, 52, 0
1, 44976, Note_on_c, 1, 61, 127
1, 44998, Note_off_c, 1, 68, 0
1, 44998, Note_off_c, 1, 73, 0
1, 45002, Note_off_c, 1, 61, 0
1, 45006, Note_on_c, 1, 51, 127
1, 45006, Note_on_c, 1, 69, 127
1, 45006, Note_on_c, 1, 78, 127
1, 45032, Note_off_c, 1, 51, 0
1, 45036, Note_on_c, 1, 60, 127
1, 45058, Note_off_c, 1, 69, 0
1, 45058, Note_off_c, 1, 78, 0
1, 45062, Note_off_c, 1, 60, 0
1, 45066, Note_on_c, 1, 51, 127
1, 45066, Note_on_c, 1, 66, 127
1, 45066, Note_on_c, 1, 75, 127
1, 45092, Note_off_c, 1, 51, 0
1, 45096, Note_on_c, 1, 60, 127
1, 45118, Note_off_c, 1, 66, 0
1, 45118, Note_off_c, 1, 75, 0
1, 45122, Note_off_c, 1, 60, 0
1, 45126, Note_on_c, 1, 49, 127
1, 45152, Note_off_c, 1, 49, 0
1, 45156, Note_on_c, 1, 61, 127
1, 45182, Note_off_c, 1, 61, 0
1, 45186, Note_on_c, 1, 49, 127
1, 45186, Note_on_c, 1, 68, 127
1, 45186, Note_on_c, 1, 76, 127
1, 45212, Note_off_c, 1, 49, 0
1, 45216, Note_on_c, 1, 61, 127
1, 45238, Note_off_c, 1, 68, 0
1, 45238, Note_off_c, 1, 76, 0
1, 45242, Note_off_c, 1, 61, 0
1, 45246, Note_on_c, 1, 59, 127
1, 45246, Note_on_c, 1, 74, 127
1, 45246, Note_on_c, 1, 78, 127
1, 45272, Note_off_c, 1, 59, 0
1, 45276, Note_on_c, 1, 68, 127
1, 45298, Note_off_c, 1, 74, 0
1, 45298, Note_off_c, 1, 78, 0
1, 45302, Note_off_c, 1, 68, 0
1, 45306, Note_on_c, 1, 59, 127
1, 45306, Note_on_c, 1, 73, 127
1, 45306, Note_on_c, 1, 77, 127
1, 45332, Note_off_c, 1, 59, 0
1, 45336, Note_on_c, 1, 68, 127
1, 45358, Note_off_c, 1, 73, 0
1, 45358, Note_off_c, 1, 77, 0
1, 45362, Note_off_c, 1, 68, 0
1, 45366, Note_on_c, 1, 58, 127
1, 45392, Note_off_c, 1, 58, 0
1, 45396, Note_on_c, 1, 67, 127
1, 45422, Note_off_c, 1, 67, 0
1, 45426, Note_on_c, 1, 58, 127
1, 45426, Note_on_c, 1, 76, 127
1, 45426, Note_on_c, 1, 73, 127
1, 45426, Note_on_c, 1, 82, 127
1, 45452, Note_off_c, 1, 58, 0
1, 45452, Note_off_c, 1, 76, 0
1, 45456, Note_on_c, 1, 75, 127
1, 45456, Note_on_c, 1, 67, 127
1, 45478, Note_off_c, 1, 73, 0
1, 45478, Note_off_c, 1, 82, 0
1, 45482, Note_off_c, 1, 75, 0
1, 45482, Note_off_c, 1, 67, 0
1, 45486, Note_on_c, 1, 56, 127
1, 45486, Note_on_c, 1, 82, 127
1, 45486, Note_on_c, 1, 76, 127
1, 45486, Note_on_c, 1, 73, 127
1, 45512, Note_off_c, 1, 56, 0
1, 45516, Note_on_c, 1, 68, 127
1, 45538, Note_off_c, 1, 82, 0
1, 45538, Note_off_c, 1, 76, 0
1, 45538, Note_off_c, 1, 73, 0
1, 45542, Note_off_c, 1, 68, 0
1, 45546, Note_on_c, 1, 56, 127
1, 45546, Note_on_c, 1, 82, 127
1, 45546, Note_on_c, 1, 76, 127
1, 45546, Note_on_c, 1, 73, 127
1, 45572, Note_off_c, 1, 56, 0
1, 45576, Note_on_c, 1, 68, 127
1, 45598, Note_off_c, 1, 82, 0
1, 45598, Note_off_c, 1, 76, 0
1, 45598, Note_off_c, 1, 73, 0
1, 45602, Note_off_c, 1, 68, 0
1, 45606, Note_on_c, 1, 67, 127
1, 45606, Note_on_c, 1, 82, 127
1, 45606, Note_on_c, 1, 73, 127
1, 45606, Note_on_c, 1, 76, 127
1, 45632, Note_off_c, 1, 67, 0
1, 45636, Note_on_c, 1, 68, 127
1, 45662, Note_off_c, 1, 68, 0
1, 45666, Note_on_c, 1, 70, 127
1, 45692, Note_off_c, 1, 70, 0
1, 45696, Note_on_c, 1, 64, 127
1, 45711, Note_off_c, 1, 82, 0
1, 45711, Note_off_c, 1, 73, 0
1, 45711, Note_off_c, 1, 76, 0
1, 45722, Note_off_c, 1, 64, 0
1, 45726, Note_on_c, 1, 63, 127
1, 45752, Note_off_c, 1, 63, 0
1, 45756, Note_on_c, 1, 61, 127
1, 45756, Note_on_c, 1, 76, 127
1, 45782, Note_off_c, 1, 61, 0
1, 45782, Note_off_c, 1, 76, 0
1, 45786, Note_on_c, 1, 59, 127
1, 45786, Note_on_c, 1, 75, 127
1, 45812, Note_off_c, 1, 59, 0
1, 45812, Note_off_c, 1, 75, 0
1, 45816, Note_on_c, 1, 58, 127
1, 45816, Note_on_c, 1, 73, 127
1, 45842, Note_off_c, 1, 58, 0
1, 45842, Note_off_c, 1, 73, 0
1, 45846, Note_on_c, 1, 71, 127
1, 45846, Note_on_c, 1, 56, 127
1, 45872, Note_off_c, 1, 71, 0
1, 45876, Note_on_c, 1, 73, 127
1, 45898, Note_off_c, 1, 56, 0
1, 45902, Note_off_c, 1, 73, 0
1, 45906, Note_on_c, 1, 75, 127
1, 45906, Note_on_c, 1, 59, 127
1, 45932, Note_off_c, 1, 75, 0
1, 45936, Note_on_c, 1, 68, 127
1, 45958, Note_off_c, 1, 59, 0
1, 45962, Note_off_c, 1, 68, 0
1, 45966, Note_on_c, 1, 71, 127
1, 45966, Note_on_c, 1, 61, 127
1, 45992, Note_off_c, 1, 71, 0
1, 45996, Note_on_c, 1, 70, 127
1, 46018, Note_off_c, 1, 61, 0
1, 46022, Note_off_c, 1, 70, 0
1, 46026, Note_on_c, 1, 68, 127
1, 46026, Note_on_c, 1, 63, 127
1, 46052, Note_off_c, 1, 68, 0
1, 46056, Note_on_c, 1, 67, 127
1, 46078, Note_off_c, 1, 63, 0
1, 46082, Note_off_c, 1, 67, 0
1, 46086, Note_on_c, 1, 68, 127
1, 46086, Note_on_c, 1, 64, 127
1, 46112, Note_off_c, 1, 68, 0
1, 46116, Note_on_c, 1, 71, 127
1, 46138, Note_off_c, 1, 64, 0
1, 46142, Note_off_c, 1, 71, 0
1, 46146, Note_on_c, 1, 68, 127
1, 46146, Note_on_c, 1, 52, 127
1, 46172, Note_off_c, 1, 68, 0
1, 46176, Note_on_c, 1, 71, 127
1, 46198, Note_off_c, 1, 52, 0
1, 46202, Note_off_c, 1, 71, 0
1, 46206, Note_on_c, 1, 66, 127
1, 46232, Note_off_c, 1, 66, 0
1, 46236, Note_on_c, 1, 75, 127
1, 46262, Note_off_c, 1, 75, 0
1, 46266, Note_on_c, 1, 66, 127
1, 46266, Note_on_c, 1, 57, 127
1, 46266, Note_on_c, 1, 48, 127
1, 46266, Note_on_c, 1, 51, 127
1, 46292, Note_off_c, 1, 66, 0
1, 46296, Note_on_c, 1, 75, 127
1, 46318, Note_off_c, 1, 57, 0
1, 46318, Note_off_c, 1, 48, 0
1, 46318, Note_off_c, 1, 51, 0
1, 46322, Note_off_c, 1, 75, 0
1, 46326, Note_on_c, 1, 65, 127
1, 46352, Note_off_c, 1, 65, 0
1, 46356, Note_on_c, 1, 73, 127
1, 46382, Note_off_c, 1, 73, 0
1, 46386, Note_on_c, 1, 49, 127
1, 46386, Note_on_c, 1, 65, 127
1, 46386, Note_on_c, 1, 56, 127
1, 46412, Note_off_c, 1, 49, 0
1, 46412, Note_off_c, 1, 65, 0
1, 46416, Note_on_c, 1, 51, 127
1, 46416, Note_on_c, 1, 73, 127
1, 46438, Note_off_c, 1, 56, 0
1, 46442, Note_off_c, 1, 51, 0
1, 46442, Note_off_c, 1, 73, 0
1, 46446, Note_on_c, 1, 61, 127
1, 46446, Note_on_c, 1, 53, 127
1, 46446, Note_on_c, 1, 56, 127
1, 46472, Note_off_c, 1, 61, 0
1, 46476, Note_on_c, 1, 71, 127
1, 46498, Note_off_c, 1, 53, 0
1, 46498, Note_off_c, 1, 56, 0
1, 46502, Note_off_c, 1, 71, 0
1, 46506, Note_on_c, 1, 61, 127
1, 46506, Note_on_c, 1, 53, 127
1, 46506, Note_on_c, 1, 56, 127
1, 46532, Note_off_c, 1, 61, 0
1, 46536, Note_on_c, 1, 71, 127
1, 46558, Note_off_c, 1, 53, 0
1, 46558, Note_off_c, 1, 56, 0
1, 46562, Note_off_c, 1, 71, 0
1, 46566, Note_on_c, 1, 66, 127
1, 46566, Note_on_c, 1, 52, 127
1, 46566, Note_on_c, 1, 54, 127
1, 46592, Note_off_c, 1, 66, 0
1, 46596, Note_on_c, 1, 70, 127
1, 46618, Note_off_c, 1, 52, 0
1, 46622, Note_off_c, 1, 70, 0
1, 46626, Note_on_c, 1, 42, 127
1, 46671, Note_off_c, 1, 54, 0
1, 46678, Note_off_c, 1, 42, 0
1, 46686, Note_on_c, 1, 64, 127
1, 46712, Note_off_c, 1, 64, 0
1, 46716, Note_on_c, 1, 73, 127
1, 46742, Note_off_c, 1, 73, 0
1, 46746, Note_on_c, 1, 64, 127
1, 46746, Note_on_c, 1, 55, 127
1, 46746, Note_on_c, 1, 49, 127
1, 46746, Note_on_c, 1, 46, 127
1, 46772, Note_off_c, 1, 64, 0
1, 46776, Note_on_c, 1, 73, 127
1, 46798, Note_off_c, 1, 55, 0
1, 46798, Note_off_c, 1, 49, 0
1, 46798, Note_off_c, 1, 46, 0
1, 46802, Note_off_c, 1, 73, 0
1, 46806, Note_on_c, 1, 63, 127
1, 46832, Note_off_c, 1, 63, 0
1, 46836, Note_on_c, 1, 71, 127
1, 46862, Note_off_c, 1, 71, 0
1, 46866, Note_on_c, 1, 47, 127
1, 46866, Note_on_c, 1, 63, 127
1, 46866, Note_on_c, 1, 54, 127
1, 46892, Note_off_c, 1, 47, 0
1, 46892, Note_off_c, 1, 63, 0
1, 46896, Note_on_c, 1, 49, 127
1, 46896, Note_on_c, 1, 71, 127
1, 46918, Note_off_c, 1, 54, 0
1, 46922, Note_off_c, 1, 49, 0
1, 46922, Note_off_c, 1, 71, 0
1, 46926, Note_on_c, 1, 59, 127
1, 46926, Note_on_c, 1, 51, 127
1, 46926, Note_on_c, 1, 54, 127
1, 46952, Note_off_c, 1, 59, 0
1, 46956, Note_on_c, 1, 70, 127
1, 46978, Note_off_c, 1, 51, 0
1, 46978, Note_off_c, 1, 54, 0
1, 46982, Note_off_c, 1, 70, 0
1, 46986, Note_on_c, 1, 59, 127
1, 46986, Note_on_c, 1, 51, 127
1, 46986, Note_on_c, 1, 54, 127
1, 47012, Note_off_c, 1, 59, 0
1, 47016, Note_on_c, 1, 70, 127
1, 47038, Note_off_c, 1, 51, 0
1, 47038, Note_off_c, 1, 54, 0
1, 47042, Note_off_c, 1, 70, 0
1, 47046, Note_on_c, 1, 64, 127
1, 47046, Note_on_c, 1, 51, 127
1, 47046, Note_on_c, 1, 52, 127
1, 47072, Note_off_c, 1, 64, 0
1, 47076, Note_on_c, 1, 68, 127
1, 47098, Note_off_c, 1, 51, 0
1, 47102, Note_off_c, 1, 68, 0
1, 47106, Note_on_c, 1, 40, 127
1, 47151, Note_off_c, 1, 52, 0
1, 47158, Note_off_c, 1, 40, 0
1, 47166, Note_on_c, 1, 63, 127
1, 47192, Note_off_c, 1, 63, 0
1, 47196, Note_on_c, 1, 71, 127
1, 47222, Note_off_c, 1, 71, 0
1, 47226, Note_on_c, 1, 63, 127
1, 47226, Note_on_c, 1, 54, 127
1, 47226, Note_on_c, 1, 47, 127
1, 47226, Note_on_c, 1, 44, 127
1, 47252, Note_off_c, 1, 63, 0
1, 47256, Note_on_c, 1, 71, 127
1, 47278, Note_off_c, 1, 54, 0
1, 47278, Note_off_c, 1, 47, 0
1, 47278, Note_off_c, 1, 44, 0
1, 47282, Note_off_c, 1, 71, 0
1, 47286, Note_on_c, 1, 62, 127
1, 47312, Note_off_c, 1, 62, 0
1, 47316, Note_on_c, 1, 70, 127
1, 47342, Note_off_c, 1, 70, 0
1, 47346, Note_on_c, 1, 46, 127
1, 47346, Note_on_c, 1, 62, 127
1, 47346, Note_on_c, 1, 53, 127
1, 47372, Note_off_c, 1, 46, 0
1, 47372, Note_off_c, 1, 62, 0
1, 47376, Note_on_c, 1, 48, 127
1, 47376, Note_on_c, 1, 70, 127
1, 47398, Note_off_c, 1, 53, 0
1, 47402, Note_off_c, 1, 48, 0
1, 47402, Note_off_c, 1, 70, 0
1, 47406, Note_on_c, 1, 58, 127
1, 47406, Note_on_c, 1, 50, 127
1, 47406, Note_on_c, 1, 53, 127
1, 47432, Note_off_c, 1, 58, 0
1, 47436, Note_on_c, 1, 68, 127
1, 47458, Note_off_c, 1, 50, 0
1, 47458, Note_off_c, 1, 53, 0
1, 47462, Note_off_c, 1, 68, 0
1, 47466, Note_on_c, 1, 58, 127
1, 47466, Note_on_c, 1, 52, 127
1, 47466, Note_on_c, 1, 49, 127
1, 47492, Note_off_c, 1, 58, 0
1, 47496, Note_on_c, 1, 68, 127
1, 47518, Note_off_c, 1, 52, 0
1, 47522, Note_off_c, 1, 68, 0
1, 47526, Note_on_c, 1, 67, 127
1, 47526, Note_on_c, 1, 51, 127
1, 47552, Note_off_c, 1, 67, 0
1, 47556, Note_on_c, 1, 63, 127
1, 47578, Note_off_c, 1, 49, 0
1, 47578, Note_off_c, 1, 51, 0
1, 47586, Note_on_c, 1, 47, 127
1, 47612, Note_off_c, 1, 47, 0
1, 47616, Note_on_c, 1, 70, 127
1, 47642, Note_off_c, 1, 70, 0
1, 47646, Note_on_c, 1, 71, 127
1, 47672, Note_off_c, 1, 63, 0
1, 47698, Note_off_c, 1, 71, 0
1, 47706, Note_on_c, 1, 39, 127
1, 47736, Note_on_c, 1, 61, 127
1, 47758, Note_off_c, 1, 39, 0
1, 47766, Note_on_c, 1, 44, 127
1, 47818, Note_off_c, 1, 61, 0
1, 47826, Note_on_c, 1, 59, 127
1, 47844, Note_off_c, 1, 44, 0
1, 47878, Note_off_c, 1, 59, 0
1, 47886, Note_on_c, 1, 56, 127
1, 47991, Note_off_c, 1, 56, 0
1, 47991, End_track
0, 0, End_of_file