0, 0, Header, 1, 1, 480
1, 0, Start_track
1, 0, Title_t, "Test"
1, 0, Tempo, 500000
1, 0, Instrument_name_t, "Church Organ"
1, 7, Note_on_c, 1, 73, 127
1, 7, Note_on_c, 1, 46, 127
1, 59, Note_off_c, 1, 73, 0
1, 67, Note_on_c, 1, 72, 127
1, 119, Note_off_c, 1, 72, 0
1, 127, Note_on_c, 1, 70, 127
1, 179, Note_off_c, 1, 70, 0
1, 187, Note_on_c, 1, 69, 127
1, 232, Note_off_c, 1, 46, 0
1, 239, Note_off_c, 1, 69, 0
1, 247, Note_on_c, 1, 70, 127
1, 247, Note_on_c, 1, 58, 127
1, 352, Note_off_c, 1, 70, 0
1, 367, Note_on_c, 1, 65, 127
1, 472, Note_off_c, 1, 65, 0
1, 487, Note_on_c, 1, 66, 127
1, 592, Note_off_c, 1, 66, 0
1, 607, Note_on_c, 1, 63, 127
1, 712, Note_off_c, 1, 58, 0
1, 712, Note_off_c, 1, 63, 0
1, 727, Note_on_c, 1, 60, 127
1, 727, Note_on_c, 1, 57, 127
1, 832, Note_off_c, 1, 60, 0
1, 847, Note_on_c, 1, 65, 127
1, 952, Note_off_c, 1, 57, 0
1, 952, Note_off_c, 1, 65, 0
1, 967, Note_on_c, 1, 61, 127
1, 967, Note_on_c, 1, 58, 127
1, 1019, Note_off_c, 1, 58, 0
1, 1027, Note_on_c, 1, 56, 127
1, 1072, Note_off_c, 1, 61, 0
1, 1079, Note_off_c, 1, 56, 0
1, 1087, Note_on_c, 1, 58, 127
1, 1087, Note_on_c, 1, 54, 127
1, 1139, Note_off_c, 1, 54, 0
1, 1147, Note_on_c, 1, 53, 127
1, 1192, Note_off_c, 1, 58, 0
1, 1199, Note_off_c, 1, 53, 0
1, 1207, Note_on_c, 1, 82, 127
1, 1207, Note_on_c, 1, 70, 127
1, 1207, Note_on_c, 1, 54, 127
1, 1259, Note_off_c, 1, 82, 0
1, 1259, Note_off_c, 1, 54, 0
1, 1267, Note_on_c, 1, 80, 127
1, 1267, Note_on_c, 1, 53, 127
1, 1312, Note_off_c, 1, 70, 0
1, 1319, Note_off_c, 1, 80, 0
1, 1319, Note_off_c, 1, 53, 0
1, 1327, Note_on_c, 1, 78, 127
1, 1327, Note_on_c, 1, 70, 127
1, 1327, Note_on_c, 1, 51, 127
1, 1379, Note_off_c, 1, 78, 0
1, 1379, Note_off_c, 1, 51, 0
1, 1387, Note_on_c, 1, 77, 127
1, 1387, Note_on_c, 1, 49, 127
1, 1432, Note_off_c, 1, 70, 0
1, 1439, Note_off_c, 1, 77, 0
1, 1439, Note_off_c, 1, 49, 0
1, 1447, Note_on_c, 1, 78, 127
1, 1447, Note_on_c, 1, 70, 127
1, 1447, Note_on_c, 1, 51, 127
1, 1499, Note_off_c, 1, 78, 0
1, 1499, Note_off_c, 1, 51, 0
1, 1507, Note_on_c, 1, 77, 127
1, 1507, Note_on_c, 1, 49, 127
1, 1552, Note_off_c, 1, 70, 0
1, 1559, Note_off_c, 1, 77, 0
1, 1559, Note_off_c, 1, 49, 0
1, 1567, Note_on_c, 1, 75, 127
1, 1567, Note_on_c, 1, 69, 127
1, 1567, Note_on_c, 1, 48, 127
1, 1619, Note_off_c, 1, 75, 0
1, 1619, Note_off_c, 1, 69, 0
1, 1619, Note_off_c, 1, 48, 0
1, 1627, Note_on_c, 1, 73, 127
1, 1627, Note_on_c, 1, 70, 127
1, 1627, Note_on_c, 1, 46, 127
1, 1679, Note_off_c, 1, 73, 0
1, 1679, Note_off_c, 1, 70, 0
1, 1679, Note_off_c, 1, 46, 0
1, 1687, Note_on_c, 1, 72, 127
1, 1687, Note_on_c, 1, 45, 127
1, 1739, Note_off_c, 1, 45, 0
1, 1747, Note_on_c, 1, 77, 127
1, 1747, Note_on_c, 1, 41, 127
1, 1792, Note_off_c, 1, 72, 0
1, 1799, Note_off_c, 1, 77, 0
1, 1799, Note_off_c, 1, 41, 0
1, 1807, Note_on_c, 1, 75, 127
1, 1807, Note_on_c, 1, 72, 127
1, 1807, Note_on_c, 1, 43, 127
1, 1859, Note_off_c, 1, 75, 0
1, 1859, Note_off_c, 1, 43, 0
1, 1867, Note_on_c, 1, 77, 127
1, 1867, Note_on_c, 1, 45, 127
1, 1912, Note_off_c, 1, 72, 0
1, 1919, Note_off_c, 1, 77, 0
1, 1919, Note_off_c, 1, 45, 0
1, 1927, Note_on_c, 1, 73, 127
1, 1927, Note_on_c, 1, 72, 127
1, 1927, Note_on_c, 1, 46, 127
1, 1979, Note_off_c, 1, 46, 0
1, 1987, Note_on_c, 1, 48, 127
1, 2032, Note_off_c, 1, 73, 0
1, 2032, Note_off_c, 1, 72, 0
1, 2039, Note_off_c, 1, 48, 0
1, 2047, Note_on_c, 1, 65, 127
1, 2047, Note_on_c, 1, 70, 127
1, 2047, Note_on_c, 1, 49, 127
1, 2099, Note_off_c, 1, 70, 0
1, 2099, Note_off_c, 1, 49, 0
1, 2107, Note_on_c, 1, 69, 127
1, 2107, Note_on_c, 1, 51, 127
1, 2152, Note_off_c, 1, 65, 0
1, 2159, Note_off_c, 1, 69, 0
1, 2159, Note_off_c, 1, 51, 0
1, 2167, Note_on_c, 1, 70, 127
1, 2167, Note_on_c, 1, 49, 127
1, 2227, Note_on_c, 1, 73, 127
1, 2272, Note_off_c, 1, 49, 0
1, 2279, Note_off_c, 1, 73, 0
1, 2287, Note_on_c, 1, 72, 127
1, 2287, Note_on_c, 1, 54, 127
1, 2339, Note_off_c, 1, 72, 0
1, 2392, Note_off_c, 1, 54, 0
1, 2407, Note_on_c, 1, 75, 127
1, 2407, Note_on_c, 1, 48, 127
1, 2459, Note_off_c, 1, 70, 0
1, 2459, Note_off_c, 1, 48, 0
1, 2467, Note_on_c, 1, 68, 127
1, 2512, Note_off_c, 1, 75, 0
1, 2519, Note_off_c, 1, 68, 0
1, 2527, Note_on_c, 1, 70, 127
1, 2527, Note_on_c, 1, 66, 127
1, 2527, Note_on_c, 1, 51, 127
1, 2579, Note_off_c, 1, 66, 0
1, 2579, Note_off_c, 1, 51, 0
1, 2587, Note_on_c, 1, 65, 127
1, 2587, Note_on_c, 1, 53, 127
1, 2632, Note_off_c, 1, 70, 0
1, 2639, Note_off_c, 1, 65, 0
1, 2639, Note_off_c, 1, 53, 0
1, 2647, Note_on_c, 1, 72, 127
1, 2647, Note_on_c, 1, 66, 127
1, 2647, Note_on_c, 1, 51, 127
1, 2699, Note_off_c, 1, 66, 0
1, 2707, Note_on_c, 1, 63, 127
1, 2752, Note_off_c, 1, 51, 0
1, 2759, Note_off_c, 1, 63, 0
1, 2767, Note_on_c, 1, 65, 127
1, 2767, Note_on_c, 1, 56, 127
1, 2819, Note_off_c, 1, 65, 0
1, 2872, Note_off_c, 1, 72, 0
1, 2872, Note_off_c, 1, 56, 0
1, 2887, Note_on_c, 1, 73, 127
1, 2887, Note_on_c, 1, 49, 127
1, 2992, Note_off_c, 1, 73, 0
1, 2992, Note_off_c, 1, 49, 0
1, 3007, Note_on_c, 1, 67, 127
1, 3007, Note_on_c, 1, 48, 127
1, 3059, Note_off_c, 1, 67, 0
1, 3067, Note_on_c, 1, 69, 127
1, 3112, Note_off_c, 1, 48, 0
1, 3119, Note_off_c, 1, 69, 0
1, 3127, Note_on_c, 1, 70, 127
1, 3127, Note_on_c, 1, 49, 127
1, 3179, Note_off_c, 1, 70, 0
1, 3187, Note_on_c, 1, 72, 127
1, 3232, Note_off_c, 1, 49, 0
1, 3239, Note_off_c, 1, 72, 0
1, 3247, Note_on_c, 1, 73, 127
1, 3247, Note_on_c, 1, 46, 127
1, 3299, Note_off_c, 1, 73, 0
1, 3307, Note_on_c, 1, 70, 127
1, 3352, Note_off_c, 1, 46, 0
1, 3359, Note_off_c, 1, 70, 0
1, 3367, Note_on_c, 1, 80, 127
1, 3367, Note_on_c, 1, 72, 127
1, 3367, Note_on_c, 1, 53, 127
1, 3419, Note_off_c, 1, 80, 0
1, 3427, Note_on_c, 1, 79, 127
1, 3472, Note_off_c, 1, 72, 0
1, 3472, Note_off_c, 1, 53, 0
1, 3479, Note_off_c, 1, 79, 0
1, 3487, Note_on_c, 1, 77, 127
1, 3487, Note_on_c, 1, 60, 127
1, 3487, Note_on_c, 1, 56, 127
1, 3539, Note_off_c, 1, 77, 0
1, 3547, Note_on_c, 1, 76, 127
1, 3592, Note_off_c, 1, 60, 0
1, 3592, Note_off_c, 1, 56, 0
1, 3599, Note_off_c, 1, 76, 0
1, 3607, Note_on_c, 1, 77, 127
1, 3607, Note_on_c, 1, 65, 127
1, 3607, Note_on_c, 1, 61, 127
1, 3659, Note_off_c, 1, 61, 0
1, 3667, Note_on_c, 1, 60, 127
1, 3712, Note_off_c, 1, 77, 0
1, 3719, Note_off_c, 1, 60, 0
1, 3727, Note_on_c, 1, 72, 127
1, 3727, Note_on_c, 1, 58, 127
1, 3779, Note_off_c, 1, 58, 0
1, 3787, Note_on_c, 1, 56, 127
1, 3832, Note_off_c, 1, 72, 0
1, 3839, Note_off_c, 1, 56, 0
1, 3847, Note_on_c, 1, 73, 127
1, 3907, Note_on_c, 1, 55, 127
1, 3952, Note_off_c, 1, 73, 0
1, 3959, Note_off_c, 1, 55, 0
1, 3967, Note_on_c, 1, 70, 127
1, 4072, Note_off_c, 1, 65, 0
1, 4072, Note_off_c, 1, 70, 0
1, 4087, Note_on_c, 1, 67, 127
1, 4087, Note_on_c, 1, 64, 127
1, 4087, Note_on_c, 1, 60, 127
1, 4139, Note_off_c, 1, 60, 0
1, 4147, Note_on_c, 1, 58, 127
1, 4192, Note_off_c, 1, 67, 0
1, 4199, Note_off_c, 1, 58, 0
1, 4207, Note_on_c, 1, 72, 127
1, 4207, Note_on_c, 1, 56, 127
1, 4259, Note_off_c, 1, 56, 0
1, 4267, Note_on_c, 1, 55, 127
1, 4312, Note_off_c, 1, 64, 0
1, 4312, Note_off_c, 1, 72, 0
1, 4319, Note_off_c, 1, 55, 0
1, 4327, Note_on_c, 1, 68, 127
1, 4327, Note_on_c, 1, 65, 127
1, 4327, Note_on_c, 1, 53, 127
1, 4379, Note_off_c, 1, 65, 0
1, 4387, Note_on_c, 1, 64, 127
1, 4432, Note_off_c, 1, 68, 0
1, 4439, Note_off_c, 1, 64, 0
1, 4507, Note_on_c, 1, 67, 127
1, 4559, Note_off_c, 1, 67, 0
1, 4567, Note_on_c, 1, 77, 127
1, 4619, Note_off_c, 1, 53, 0
1, 4627, Note_on_c, 1, 70, 127
1, 4627, Note_on_c, 1, 55, 127
1, 4672, Note_off_c, 1, 77, 0
1, 4679, Note_off_c, 1, 70, 0
1, 4679, Note_off_c, 1, 55, 0
1, 4687, Note_on_c, 1, 77, 127
1, 4687, Note_on_c, 1, 72, 127
1, 4687, Note_on_c, 1, 56, 127
1, 4739, Note_off_c, 1, 72, 0
1, 4739, Note_off_c, 1, 56, 0
1, 4747, Note_on_c, 1, 68, 127
1, 4747, Note_on_c, 1, 53, 127
1, 4792, Note_off_c, 1, 77, 0
1, 4799, Note_off_c, 1, 68, 0
1, 4799, Note_off_c, 1, 53, 0
1, 4807, Note_on_c, 1, 77, 127
1, 4807, Note_on_c, 1, 70, 127
1, 4807, Note_on_c, 1, 55, 127
1, 4859, Note_off_c, 1, 70, 0
1, 4859, Note_off_c, 1, 55, 0
1, 4867, Note_on_c, 1, 68, 127
1, 4867, Note_on_c, 1, 56, 127
1, 4912, Note_off_c, 1, 77, 0
1, 4919, Note_off_c, 1, 68, 0
1, 4919, Note_off_c, 1, 56, 0
1, 4927, Note_on_c, 1, 76, 127
1, 4927, Note_on_c, 1, 67, 127
1, 4927, Note_on_c, 1, 58, 127
1, 4979, Note_off_c, 1, 76, 0
1, 4979, Note_off_c, 1, 67, 0
1, 4987, Note_on_c, 1, 77, 127
1, 4987, Note_on_c, 1, 68, 127
1, 5032, Note_off_c, 1, 58, 0
1, 5039, Note_off_c, 1, 77, 0
1, 5039, Note_off_c, 1, 68, 0
1, 5047, Note_on_c, 1, 79, 127
1, 5047, Note_on_c, 1, 70, 127
1, 5047, Note_on_c, 1, 52, 127
1, 5099, Note_off_c, 1, 70, 0
1, 5107, Note_on_c, 1, 72, 127
1, 5152, Note_off_c, 1, 79, 0
1, 5152, Note_off_c, 1, 52, 0
1, 5159, Note_off_c, 1, 72, 0
1, 5167, Note_on_c, 1, 79, 127
1, 5167, Note_on_c, 1, 73, 127
1, 5167, Note_on_c, 1, 53, 127
1, 5219, Note_off_c, 1, 73, 0
1, 5219, Note_off_c, 1, 53, 0
1, 5227, Note_on_c, 1, 70, 127
1, 5227, Note_on_c, 1, 55, 127
1, 5272, Note_off_c, 1, 79, 0
1, 5279, Note_off_c, 1, 70, 0
1, 5279, Note_off_c, 1, 55, 0
1, 5287, Note_on_c, 1, 79, 127
1, 5287, Note_on_c, 1, 72, 127
1, 5287, Note_on_c, 1, 56, 127
1, 5339, Note_off_c, 1, 56, 0
1, 5347, Note_on_c, 1, 58, 127
1, 5392, Note_off_c, 1, 79, 0
1, 5399, Note_off_c, 1, 58, 0
1, 5407, Note_on_c, 1, 77, 127
1, 5459, Note_off_c, 1, 77, 0
1, 5467, Note_on_c, 1, 55, 127
1, 5512, Note_off_c, 1, 72, 0
1, 5519, Note_off_c, 1, 55, 0
1, 5527, Note_on_c, 1, 80, 127
1, 5527, Note_on_c, 1, 53, 127
1, 5579, Note_off_c, 1, 53, 0
1, 5587, Note_on_c, 1, 51, 127
1, 5632, Note_off_c, 1, 80, 0
1, 5639, Note_off_c, 1, 51, 0
1, 5647, Note_on_c, 1, 80, 127
1, 5647, Note_on_c, 1, 77, 127
1, 5647, Note_on_c, 1, 49, 127
1, 5699, Note_off_c, 1, 77, 0
1, 5699, Note_off_c, 1, 49, 0
1, 5707, Note_on_c, 1, 72, 127
1, 5707, Note_on_c, 1, 53, 127
1, 5752, Note_off_c, 1, 80, 0
1, 5759, Note_off_c, 1, 72, 0
1, 5759, Note_off_c, 1, 53, 0
1, 5767, Note_on_c, 1, 80, 127
1, 5767, Note_on_c, 1, 73, 127
1, 5767, Note_on_c, 1, 46, 127
1, 5819, Note_off_c, 1, 73, 0
1, 5827, Note_on_c, 1, 75, 127
1, 5872, Note_off_c, 1, 80, 0
1, 5879, Note_off_c, 1, 75, 0
1, 5887, Note_on_c, 1, 77, 127
1, 5947, Note_on_c, 1, 72, 127
1, 5992, Note_off_c, 1, 46, 0
1, 5992, Note_off_c, 1, 77, 0
1, 5999, Note_off_c, 1, 72, 0
1, 6007, Note_on_c, 1, 79, 127
1, 6007, Note_on_c, 1, 70, 127
1, 6059, Note_off_c, 1, 70, 0
1, 6067, Note_on_c, 1, 68, 127
1, 6112, Note_off_c, 1, 79, 0
1, 6119, Note_off_c, 1, 68, 0
1, 6127, Note_on_c, 1, 82, 127
1, 6127, Note_on_c, 1, 67, 127
1, 6179, Note_off_c, 1, 67, 0
1, 6187, Note_on_c, 1, 70, 127
1, 6232, Note_off_c, 1, 82, 0
1, 6239, Note_off_c, 1, 70, 0
1, 6247, Note_on_c, 1, 82, 127
1, 6247, Note_on_c, 1, 64, 127
1, 6307, Note_on_c, 1, 61, 127
1, 6352, Note_off_c, 1, 82, 0
1, 6352, Note_off_c, 1, 64, 0
1, 6359, Note_off_c, 1, 61, 0
1, 6367, Note_on_c, 1, 76, 127
1, 6367, Note_on_c, 1, 67, 127
1, 6367, Note_on_c, 1, 60, 127
1, 6419, Note_off_c, 1, 60, 0
1, 6427, Note_on_c, 1, 58, 127
1, 6472, Note_off_c, 1, 76, 0
1, 6472, Note_off_c, 1, 67, 0
1, 6479, Note_off_c, 1, 58, 0
1, 6487, Note_on_c, 1, 77, 127
1, 6487, Note_on_c, 1, 60, 127
1, 6487, Note_on_c, 1, 56, 127
1, 6539, Note_off_c, 1, 56, 0
1, 6547, Note_on_c, 1, 55, 127
1, 6592, Note_off_c, 1, 60, 0
1, 6599, Note_off_c, 1, 55, 0
1, 6607, Note_on_c, 1, 72, 127
1, 6607, Note_on_c, 1, 53, 127
1, 6659, Note_off_c, 1, 53, 0
1, 6712, Note_off_c, 1, 72, 0
1, 6727, Note_on_c, 1, 70, 127
1, 6727, Note_on_c, 1, 49, 127
1, 6779, Note_off_c, 1, 70, 0
1, 6832, Note_off_c, 1, 49, 0
1, 6847, Note_on_c, 1, 73, 127
1, 6847, Note_on_c, 1, 46, 127
1, 6899, Note_off_c, 1, 73, 0
1, 6952, Note_off_c, 1, 77, 0
1, 6952, Note_off_c, 1, 46, 0
1, 6967, Note_on_c, 1, 76, 127
1, 6967, Note_on_c, 1, 67, 127
1, 6967, Note_on_c, 1, 48, 127
1, 7019, Note_off_c, 1, 67, 0
1, 7027, Note_on_c, 1, 73, 127
1, 7072, Note_off_c, 1, 48, 0
1, 7079, Note_off_c, 1, 73, 0
1, 7087, Note_on_c, 1, 72, 127
1, 7087, Note_on_c, 1, 36, 127
1, 7139, Note_off_c, 1, 72, 0
1, 7147, Note_on_c, 1, 70, 127
1, 7192, Note_off_c, 1, 76, 0
1, 7192, Note_off_c, 1, 36, 0
1, 7199, Note_off_c, 1, 70, 0
1, 7207, Note_on_c, 1, 77, 127
1, 7207, Note_on_c, 1, 68, 127
1, 7207, Note_on_c, 1, 41, 127
1, 7259, Note_off_c, 1, 41, 0
1, 7267, Note_on_c, 1, 48, 127
1, 7312, Note_off_c, 1, 77, 0
1, 7319, Note_off_c, 1, 48, 0
1, 7327, Note_on_c, 1, 72, 127
1, 7327, Note_on_c, 1, 50, 127
1, 7379, Note_off_c, 1, 50, 0
1, 7387, Note_on_c, 1, 52, 127
1, 7432, Note_off_c, 1, 68, 0
1, 7432, Note_off_c, 1, 72, 0
1, 7439, Note_off_c, 1, 52, 0
1, 7447, Note_on_c, 1, 68, 127
1, 7447, Note_on_c, 1, 53, 127
1, 7499, Note_off_c, 1, 68, 0
1, 7499, Note_off_c, 1, 53, 0
1, 7507, Note_on_c, 1, 75, 127
1, 7507, Note_on_c, 1, 54, 127
1, 7559, Note_off_c, 1, 75, 0
1, 7559, Note_off_c, 1, 54, 0
1, 7567, Note_on_c, 1, 74, 127
1, 7567, Note_on_c, 1, 59, 127
1, 7567, Note_on_c, 1, 56, 127
1, 7619, Note_off_c, 1, 74, 0
1, 7619, Note_off_c, 1, 56, 0
1, 7627, Note_on_c, 1, 75, 127
1, 7627, Note_on_c, 1, 53, 127
1, 7672, Note_off_c, 1, 59, 0
1, 7679, Note_off_c, 1, 75, 0
1, 7679, Note_off_c, 1, 53, 0
1, 7687, Note_on_c, 1, 77, 127
1, 7687, Note_on_c, 1, 58, 127
1, 7687, Note_on_c, 1, 50, 127
1, 7739, Note_off_c, 1, 58, 0
1, 7747, Note_on_c, 1, 60, 127
1, 7792, Note_off_c, 1, 77, 0
1, 7799, Note_off_c, 1, 60, 0
1, 7807, Note_on_c, 1, 70, 127
1, 7807, Note_on_c, 1, 62, 127
1, 7859, Note_off_c, 1, 62, 0
1, 7867, Note_on_c, 1, 63, 127
1, 7912, Note_off_c, 1, 50, 0
1, 7912, Note_off_c, 1, 70, 0
1, 7919, Note_off_c, 1, 63, 0
1, 7927, Note_on_c, 1, 68, 127
1, 7927, Note_on_c, 1, 65, 127
1, 7979, Note_off_c, 1, 65, 0
1, 7987, Note_on_c, 1, 66, 127
1, 8032, Note_off_c, 1, 68, 0
1, 8039, Note_off_c, 1, 66, 0
1, 8047, Note_on_c, 1, 77, 127
1, 8047, Note_on_c, 1, 68, 127
1, 8047, Note_on_c, 1, 46, 127
1, 8099, Note_off_c, 1, 68, 0
1, 8107, Note_on_c, 1, 65, 127
1, 8152, Note_off_c, 1, 46, 0
1, 8159, Note_off_c, 1, 65, 0
1, 8167, Note_on_c, 1, 66, 127
1, 8167, Note_on_c, 1, 39, 127
1, 8219, Note_off_c, 1, 39, 0
1, 8272, Note_off_c, 1, 77, 0
1, 8287, Note_on_c, 1, 75, 127
1, 8287, Note_on_c, 1, 48, 127
1, 8339, Note_off_c, 1, 75, 0
1, 8339, Note_off_c, 1, 48, 0
1, 8347, Note_on_c, 1, 50, 127
1, 8392, Note_off_c, 1, 66, 0
1, 8399, Note_off_c, 1, 50, 0
1, 8407, Note_on_c, 1, 78, 127
1, 8407, Note_on_c, 1, 51, 127
1, 8459, Note_off_c, 1, 51, 0
1, 8467, Note_on_c, 1, 53, 127
1, 8512, Note_off_c, 1, 78, 0
1, 8519, Note_off_c, 1, 53, 0
1, 8527, Note_on_c, 1, 70, 127
1, 8527, Note_on_c, 1, 66, 127
1, 8527, Note_on_c, 1, 54, 127
1, 8579, Note_off_c, 1, 54, 0
1, 8587, Note_on_c, 1, 51, 127
1, 8632, Note_off_c, 1, 70, 0
1, 8639, Note_off_c, 1, 51, 0
1, 8647, Note_on_c, 1, 68, 127
1, 8647, Note_on_c, 1, 48, 127
1, 8699, Note_off_c, 1, 68, 0
1, 8752, Note_off_c, 1, 66, 0
1, 8752, Note_off_c, 1, 48, 0
1, 8767, Note_on_c, 1, 72, 127
1, 8767, Note_on_c, 1, 57, 127
1, 8767, Note_on_c, 1, 51, 127
1, 8819, Note_off_c, 1, 72, 0
1, 8827, Note_on_c, 1, 73, 127
1, 8872, Note_off_c, 1, 57, 0
1, 8872, Note_off_c, 1, 51, 0
1, 8879, Note_off_c, 1, 73, 0
1, 8887, Note_on_c, 1, 75, 127
1, 8887, Note_on_c, 1, 56, 127
1, 8887, Note_on_c, 1, 48, 127
1, 8939, Note_off_c, 1, 75, 0
1, 8947, Note_on_c, 1, 77, 127
1, 8992, Note_off_c, 1, 56, 0
1, 8992, Note_off_c, 1, 48, 0
1, 8999, Note_off_c, 1, 77, 0
1, 9007, Note_on_c, 1, 78, 127
1, 9007, Note_on_c, 1, 72, 127
1, 9007, Note_on_c, 1, 44, 127
1, 9059, Note_off_c, 1, 78, 0
1, 9067, Note_on_c, 1, 75, 127
1, 9112, Note_off_c, 1, 72, 0
1, 9112, Note_off_c, 1, 44, 0
1, 9119, Note_off_c, 1, 75, 0
1, 9127, Note_on_c, 1, 77, 127
1, 9127, Note_on_c, 1, 73, 127
1, 9127, Note_on_c, 1, 37, 127
1, 9179, Note_off_c, 1, 37, 0
1, 9187, Note_on_c, 1, 44, 127
1, 9232, Note_off_c, 1, 77, 0
1, 9232, Note_off_c, 1, 73, 0
1, 9239, Note_off_c, 1, 44, 0
1, 9247, Note_on_c, 1, 66, 127
1, 9247, Note_on_c, 1, 63, 127
1, 9247, Note_on_c, 1, 46, 127
1, 9299, Note_off_c, 1, 46, 0
1, 9307, Note_on_c, 1, 48, 127
1, 9352, Note_off_c, 1, 66, 0
1, 9352, Note_off_c, 1, 63, 0
1, 9359, Note_off_c, 1, 48, 0
1, 9367, Note_on_c, 1, 65, 127
1, 9367, Note_on_c, 1, 61, 127
1, 9367, Note_on_c, 1, 49, 127
1, 9419, Note_off_c, 1, 49, 0
1, 9427, Note_on_c, 1, 51, 127
1, 9472, Note_off_c, 1, 65, 0
1, 9472, Note_off_c, 1, 61, 0
1, 9479, Note_off_c, 1, 51, 0
1, 9487, Note_on_c, 1, 73, 127
1, 9487, Note_on_c, 1, 53, 127
1, 9539, Note_off_c, 1, 53, 0
1, 9547, Note_on_c, 1, 49, 127
1, 9592, Note_off_c, 1, 73, 0
1, 9599, Note_off_c, 1, 49, 0
1, 9607, Note_on_c, 1, 70, 127
1, 9607, Note_on_c, 1, 54, 127
1, 9659, Note_off_c, 1, 54, 0
1, 9667, Note_on_c, 1, 56, 127
1, 9719, Note_off_c, 1, 56, 0
1, 9727, Note_on_c, 1, 61, 127
1, 9787, Note_on_c, 1, 53, 127
1, 9832, Note_off_c, 1, 61, 0
1, 9839, Note_off_c, 1, 53, 0
1, 9847, Note_on_c, 1, 66, 127
1, 9847, Note_on_c, 1, 51, 127
1, 9899, Note_off_c, 1, 51, 0
1, 9907, Note_on_c, 1, 49, 127
1, 9952, Note_off_c, 1, 70, 0
1, 9959, Note_off_c, 1, 49, 0
1, 9967, Note_on_c, 1, 75, 127
1, 9967, Note_on_c, 1, 48, 127
1, 10019, Note_off_c, 1, 75, 0
1, 10019, Note_off_c, 1, 48, 0
1, 10027, Note_on_c, 1, 73, 127
1, 10079, Note_off_c, 1, 73, 0
1, 10087, Note_on_c, 1, 72, 127
1, 10087, Note_on_c, 1, 45, 127
1, 10139, Note_off_c, 1, 45, 0
1, 10147, Note_on_c, 1, 41, 127
1, 10192, Note_off_c, 1, 66, 0
1, 10199, Note_off_c, 1, 41, 0
1, 10207, Note_on_c, 1, 65, 127
1, 10207, Note_on_c, 1, 43, 127
1, 10259, Note_off_c, 1, 65, 0
1, 10259, Note_off_c, 1, 43, 0
1, 10267, Note_on_c, 1, 63, 127
1, 10319, Note_off_c, 1, 63, 0
1, 10327, Note_on_c, 1, 46, 127
1, 10379, Note_off_c, 1, 46, 0
1, 10432, Note_off_c, 1, 72, 0
1, 10567, Note_on_c, 1, 60, 127
1, 10792, Note_off_c, 1, 60, 0
1, 10807, Note_on_c, 1, 69, 127
1, 10807, Note_on_c, 1, 53, 127
1, 10859, Note_off_c, 1, 69, 0
1, 10867, Note_on_c, 1, 78, 127
1, 10912, Note_off_c, 1, 53, 0
1, 10919, Note_off_c, 1, 78, 0
1, 10927, Note_on_c, 1, 77, 127
1, 10927, Note_on_c, 1, 41, 127
1, 10979, Note_off_c, 1, 77, 0
1, 10987, Note_on_c, 1, 75, 127
1, 11032, Note_off_c, 1, 41, 0
1, 11039, Note_off_c, 1, 75, 0
1, 11047, Note_on_c, 1, 73, 127
1, 11047, Note_on_c, 1, 46, 127
1, 11099, Note_off_c, 1, 73, 0
1, 11107, Note_on_c, 1, 77, 127
1, 11107, Note_on_c, 1, 58, 127
1, 11152, Note_off_c, 1, 46, 0
1, 11159, Note_off_c, 1, 77, 0
1, 11159, Note_off_c, 1, 58, 0
1, 11167, Note_on_c, 1, 75, 127
1, 11167, Note_on_c, 1, 60, 127
1, 11219, Note_off_c, 1, 75, 0
1, 11219, Note_off_c, 1, 60, 0
1, 11227, Note_on_c, 1, 73, 127
1, 11227, Note_on_c, 1, 61, 127
1, 11279, Note_off_c, 1, 73, 0
1, 11279, Note_off_c, 1, 61, 0
1, 11287, Note_on_c, 1, 72, 127
1, 11287, Note_on_c, 1, 63, 127
1, 11339, Note_off_c, 1, 72, 0
1, 11339, Note_off_c, 1, 63, 0
1, 11347, Note_on_c, 1, 70, 127
1, 11347, Note_on_c, 1, 65, 127
1, 11399, Note_off_c, 1, 70, 0
1, 11399, Note_off_c, 1, 65, 0
1, 11407, Note_on_c, 1, 69, 127
1, 11407, Note_on_c, 1, 66, 127
1, 11407, Note_on_c, 1, 60, 127
1, 11459, Note_off_c, 1, 69, 0
1, 11459, Note_off_c, 1, 66, 0
1, 11467, Note_on_c, 1, 72, 127
1, 11467, Note_on_c, 1, 63, 127
1, 11512, Note_off_c, 1, 60, 0
1, 11519, Note_off_c, 1, 72, 0
1, 11519, Note_off_c, 1, 63, 0
1, 11527, Note_on_c, 1, 70, 127
1, 11527, Note_on_c, 1, 65, 127
1, 11527, Note_on_c, 1, 61, 127
1, 11579, Note_off_c, 1, 61, 0
1, 11587, Note_on_c, 1, 60, 127
1, 11632, Note_off_c, 1, 70, 0
1, 11632, Note_off_c, 1, 65, 0
1, 11639, Note_off_c, 1, 60, 0
1, 11647, Note_on_c, 1, 73, 127
1, 11647, Note_on_c, 1, 58, 127
1, 11699, Note_off_c, 1, 73, 0
1, 11699, Note_off_c, 1, 58, 0
1, 11707, Note_on_c, 1, 72, 127
1, 11707, Note_on_c, 1, 57, 127
1, 11759, Note_off_c, 1, 72, 0
1, 11759, Note_off_c, 1, 57, 0
1, 11767, Note_on_c, 1, 73, 127
1, 11767, Note_on_c, 1, 58, 127
1, 11827, Note_on_c, 1, 72, 127
1, 11872, Note_off_c, 1, 73, 0
1, 11872, Note_off_c, 1, 58, 0
1, 11879, Note_off_c, 1, 72, 0
1, 11887, Note_on_c, 1, 73, 127
1, 11887, Note_on_c, 1, 70, 127
1, 11887, Note_on_c, 1, 53, 127
1, 11939, Note_off_c, 1, 70, 0
1, 11947, Note_on_c, 1, 69, 127
1, 11992, Note_off_c, 1, 73, 0
1, 11992, Note_off_c, 1, 53, 0
1, 11999, Note_off_c, 1, 69, 0
1, 12007, Note_on_c, 1, 73, 127
1, 12007, Note_on_c, 1, 70, 127
1, 12007, Note_on_c, 1, 54, 127
1, 12112, Note_off_c, 1, 73, 0
1, 12112, Note_off_c, 1, 54, 0
1, 12127, Note_on_c, 1, 72, 127
1, 12127, Note_on_c, 1, 51, 127
1, 12179, Note_off_c, 1, 72, 0
1, 12232, Note_off_c, 1, 51, 0
1, 12247, Note_on_c, 1, 75, 127
1, 12247, Note_on_c, 1, 48, 127
1, 12299, Note_off_c, 1, 70, 0
1, 12307, Note_on_c, 1, 69, 127
1, 12352, Note_off_c, 1, 75, 0
1, 12352, Note_off_c, 1, 48, 0
1, 12359, Note_off_c, 1, 69, 0
1, 12367, Note_on_c, 1, 75, 127
1, 12367, Note_on_c, 1, 67, 127
1, 12367, Note_on_c, 1, 53, 127
1, 12419, Note_off_c, 1, 67, 0
1, 12427, Note_on_c, 1, 69, 127
1, 12472, Note_off_c, 1, 75, 0
1, 12472, Note_off_c, 1, 53, 0
1, 12479, Note_off_c, 1, 69, 0
1, 12487, Note_on_c, 1, 75, 127
1, 12487, Note_on_c, 1, 70, 127
1, 12487, Note_on_c, 1, 49, 127
1, 12592, Note_off_c, 1, 75, 0
1, 12592, Note_off_c, 1, 70, 0
1, 12592, Note_off_c, 1, 49, 0
1, 12607, Note_on_c, 1, 73, 127
1, 12607, Note_on_c, 1, 65, 127
1, 12607, Note_on_c, 1, 46, 127
1, 12659, Note_off_c, 1, 73, 0
1, 12667, Note_on_c, 1, 75, 127
1, 12712, Note_off_c, 1, 65, 0
1, 12712, Note_off_c, 1, 46, 0
1, 12719, Note_off_c, 1, 75, 0
1, 12727, Note_on_c, 1, 77, 127
1, 12727, Note_on_c, 1, 61, 127
1, 12727, Note_on_c, 1, 58, 127
1, 12779, Note_off_c, 1, 77, 0
1, 12787, Note_on_c, 1, 80, 127
1, 12832, Note_off_c, 1, 61, 0
1, 12832, Note_off_c, 1, 58, 0
1, 12839, Note_off_c, 1, 80, 0
1, 12847, Note_on_c, 1, 78, 127
1, 12847, Note_on_c, 1, 63, 127
1, 12847, Note_on_c, 1, 58, 127
1, 12899, Note_off_c, 1, 78, 0
1, 12899, Note_off_c, 1, 63, 0
1, 12907, Note_on_c, 1, 77, 127
1, 12907, Note_on_c, 1, 65, 127
1, 12952, Note_off_c, 1, 58, 0
1, 12959, Note_off_c, 1, 77, 0
1, 12959, Note_off_c, 1, 65, 0
1, 12967, Note_on_c, 1, 75, 127
1, 12967, Note_on_c, 1, 66, 127
1, 12967, Note_on_c, 1, 58, 127
1, 13019, Note_off_c, 1, 75, 0
1, 13027, Note_on_c, 1, 73, 127
1, 13072, Note_off_c, 1, 58, 0
1, 13079, Note_off_c, 1, 73, 0
1, 13087, Note_on_c, 1, 72, 127
1, 13087, Note_on_c, 1, 56, 127
1, 13139, Note_off_c, 1, 72, 0
1, 13139, Note_off_c, 1, 56, 0
1, 13207, Note_on_c, 1, 68, 127
1, 13207, Note_on_c, 1, 60, 127
1, 13259, Note_off_c, 1, 66, 0
1, 13267, Note_on_c, 1, 65, 127
1, 13312, Note_off_c, 1, 60, 0
1, 13319, Note_off_c, 1, 65, 0
1, 13327, Note_on_c, 1, 63, 127
1, 13379, Note_off_c, 1, 63, 0
1, 13432, Note_off_c, 1, 68, 0
1, 13447, Note_on_c, 1, 73, 127
1, 13447, Note_on_c, 1, 65, 127
1, 13447, Note_on_c, 1, 60, 127
1, 13499, Note_off_c, 1, 65, 0
1, 13507, Note_on_c, 1, 63, 127
1, 13552, Note_off_c, 1, 60, 0
1, 13559, Note_off_c, 1, 63, 0
1, 13567, Note_on_c, 1, 61, 127
1, 13567, Note_on_c, 1, 58, 127
1, 13619, Note_off_c, 1, 61, 0
1, 13619, Note_off_c, 1, 58, 0
1, 13672, Note_off_c, 1, 73, 0
1, 13687, Note_on_c, 1, 65, 127
1, 13687, Note_on_c, 1, 61, 127
1, 13739, Note_off_c, 1, 65, 0
1, 13747, Note_on_c, 1, 66, 127
1, 13792, Note_off_c, 1, 61, 0
1, 13799, Note_off_c, 1, 66, 0
1, 13807, Note_on_c, 1, 68, 127
1, 13807, Note_on_c, 1, 61, 127
1, 13859, Note_off_c, 1, 68, 0
1, 13867, Note_on_c, 1, 65, 127
1, 13912, Note_off_c, 1, 61, 0
1, 13919, Note_off_c, 1, 65, 0
1, 13927, Note_on_c, 1, 66, 127
1, 13927, Note_on_c, 1, 61, 127
1, 13987, Note_on_c, 1, 70, 127
1, 14032, Note_off_c, 1, 61, 0
1, 14039, Note_off_c, 1, 70, 0
1, 14047, Note_on_c, 1, 72, 127
1, 14047, Note_on_c, 1, 60, 127
1, 14099, Note_off_c, 1, 72, 0
1, 14099, Note_off_c, 1, 60, 0
1, 14107, Note_on_c, 1, 73, 127
1, 14107, Note_on_c, 1, 58, 127
1, 14152, Note_off_c, 1, 66, 0
1, 14159, Note_off_c, 1, 73, 0
1, 14159, Note_off_c, 1, 58, 0
1, 14167, Note_on_c, 1, 75, 127
1, 14167, Note_on_c, 1, 60, 127
1, 14219, Note_off_c, 1, 75, 0
1, 14227, Note_on_c, 1, 77, 127
1, 14272, Note_off_c, 1, 60, 0
1, 14279, Note_off_c, 1, 77, 0
1, 14287, Note_on_c, 1, 78, 127
1, 14287, Note_on_c, 1, 61, 127
1, 14287, Note_on_c, 1, 63, 127
1, 14339, Note_off_c, 1, 78, 0
1, 14347, Note_on_c, 1, 75, 127
1, 14392, Note_off_c, 1, 61, 0
1, 14392, Note_off_c, 1, 63, 0
1, 14399, Note_off_c, 1, 75, 0
1, 14407, Note_on_c, 1, 77, 127
1, 14407, Note_on_c, 1, 60, 127
1, 14407, Note_on_c, 1, 56, 127
1, 14459, Note_off_c, 1, 77, 0
1, 14459, Note_off_c, 1, 60, 0
1, 14467, Note_on_c, 1, 75, 127
1, 14467, Note_on_c, 1, 66, 127
1, 14519, Note_off_c, 1, 75, 0
1, 14519, Note_off_c, 1, 66, 0
1, 14527, Note_on_c, 1, 73, 127
1, 14527, Note_on_c, 1, 65, 127
1, 14579, Note_off_c, 1, 73, 0
1, 14579, Note_off_c, 1, 65, 0
1, 14587, Note_on_c, 1, 72, 127
1, 14587, Note_on_c, 1, 63, 127
1, 14632, Note_off_c, 1, 56, 0
1, 14639, Note_off_c, 1, 72, 0
1, 14639, Note_off_c, 1, 63, 0
1, 14647, Note_on_c, 1, 73, 127
1, 14647, Note_on_c, 1, 65, 127
1, 14707, Note_on_c, 1, 49, 127
1, 14752, Note_off_c, 1, 73, 0
1, 14759, Note_off_c, 1, 49, 0
1, 14767, Note_on_c, 1, 68, 127
1, 14767, Note_on_c, 1, 51, 127
1, 14819, Note_off_c, 1, 51, 0
1, 14827, Note_on_c, 1, 53, 127
1, 14872, Note_off_c, 1, 68, 0
1, 14879, Note_off_c, 1, 53, 0
1, 14887, Note_on_c, 1, 70, 127
1, 14887, Note_on_c, 1, 54, 127
1, 14939, Note_off_c, 1, 54, 0
1, 14947, Note_on_c, 1, 56, 127
1, 14992, Note_off_c, 1, 65, 0
1, 14992, Note_off_c, 1, 70, 0
1, 14999, Note_off_c, 1, 56, 0
1, 15007, Note_on_c, 1, 66, 127
1, 15007, Note_on_c, 1, 63, 127
1, 15007, Note_on_c, 1, 58, 127
1, 15059, Note_off_c, 1, 63, 0
1, 15059, Note_off_c, 1, 58, 0
1, 15067, Note_on_c, 1, 61, 127
1, 15067, Note_on_c, 1, 54, 127
1, 15112, Note_off_c, 1, 66, 0
1, 15119, Note_off_c, 1, 61, 0
1, 15119, Note_off_c, 1, 54, 0
1, 15127, Note_on_c, 1, 63, 127
1, 15127, Note_on_c, 1, 60, 127
1, 15127, Note_on_c, 1, 56, 127
1, 15179, Note_off_c, 1, 60, 0
1, 15187, Note_on_c, 1, 61, 127
1, 15232, Note_off_c, 1, 63, 0
1, 15239, Note_off_c, 1, 61, 0
1, 15247, Note_on_c, 1, 68, 127
1, 15247, Note_on_c, 1, 58, 127
1, 15299, Note_off_c, 1, 58, 0
1, 15352, Note_off_c, 1, 56, 0
1, 15352, Note_off_c, 1, 68, 0
1, 15367, Note_on_c, 1, 65, 127
1, 15367, Note_on_c, 1, 61, 127
1, 15367, Note_on_c, 1, 49, 127
1, 15419, Note_off_c, 1, 49, 0
1, 15427, Note_on_c, 1, 53, 127
1, 15472, Note_off_c, 1, 65, 0
1, 15472, Note_off_c, 1, 61, 0
1, 15479, Note_off_c, 1, 53, 0
1, 15487, Note_on_c, 1, 61, 127
1, 15487, Note_on_c, 1, 54, 127
1, 15539, Note_off_c, 1, 54, 0
1, 15547, Note_on_c, 1, 56, 127
1, 15592, Note_off_c, 1, 61, 0
1, 15599, Note_off_c, 1, 56, 0
1, 15607, Note_on_c, 1, 73, 127
1, 15607, Note_on_c, 1, 70, 127
1, 15607, Note_on_c, 1, 58, 127
1, 15659, Note_off_c, 1, 70, 0
1, 15659, Note_off_c, 1, 58, 0
1, 15667, Note_on_c, 1, 68, 127
1, 15667, Note_on_c, 1, 60, 127
1, 15712, Note_off_c, 1, 73, 0
1, 15719, Note_off_c, 1, 68, 0
1, 15719, Note_off_c, 1, 60, 0
1, 15727, Note_on_c, 1, 73, 127
1, 15727, Note_on_c, 1, 66, 127
1, 15727, Note_on_c, 1, 61, 127
1, 15779, Note_off_c, 1, 66, 0
1, 15779, Note_off_c, 1, 61, 0
1, 15787, Note_on_c, 1, 65, 127
1, 15787, Note_on_c, 1, 58, 127
1, 15832, Note_off_c, 1, 73, 0
1, 15839, Note_off_c, 1, 65, 0
1, 15839, Note_off_c, 1, 58, 0
1, 15847, Note_on_c, 1, 73, 127
1, 15847, Note_on_c, 1, 66, 127
1, 15847, Note_on_c, 1, 63, 127
1, 15899, Note_off_c, 1, 63, 0
1, 15907, Note_on_c, 1, 65, 127
1, 15952, Note_off_c, 1, 73, 0
1, 15952, Note_off_c, 1, 66, 0
1, 15959, Note_off_c, 1, 65, 0
1, 15967, Note_on_c, 1, 72, 127
1, 15967, Note_on_c, 1, 63, 127
1, 16019, Note_off_c, 1, 72, 0
1, 16027, Note_on_c, 1, 73, 127
1, 16027, Note_on_c, 1, 61, 127
1, 16072, Note_off_c, 1, 63, 0
1, 16079, Note_off_c, 1, 73, 0
1, 16079, Note_off_c, 1, 61, 0
1, 16087, Note_on_c, 1, 75, 127
1, 16087, Note_on_c, 1, 68, 127
1, 16087, Note_on_c, 1, 60, 127
1, 16139, Note_off_c, 1, 68, 0
1, 16147, Note_on_c, 1, 66, 127
1, 16192, Note_off_c, 1, 75, 0
1, 16192, Note_off_c, 1, 60, 0
1, 16199, Note_off_c, 1, 66, 0
1, 16207, Note_on_c, 1, 75, 127
1, 16207, Note_on_c, 1, 65, 127
1, 16207, Note_on_c, 1, 56, 127
1, 16259, Note_off_c, 1, 65, 0
1, 16267, Note_on_c, 1, 63, 127
1, 16312, Note_off_c, 1, 75, 0
1, 16312, Note_off_c, 1, 56, 0
1, 16319, Note_off_c, 1, 63, 0
1, 16327, Note_on_c, 1, 75, 127
1, 16327, Note_on_c, 1, 65, 127
1, 16327, Note_on_c, 1, 61, 127
1, 16379, Note_off_c, 1, 65, 0
1, 16387, Note_on_c, 1, 63, 127
1, 16432, Note_off_c, 1, 75, 0
1, 16439, Note_off_c, 1, 63, 0
1, 16447, Note_on_c, 1, 73, 127
1, 16499, Note_off_c, 1, 73, 0
1, 16507, Note_on_c, 1, 66, 127
1, 16552, Note_off_c, 1, 61, 0
1, 16559, Note_off_c, 1, 66, 0
1, 16567, Note_on_c, 1, 77, 127
1, 16567, Note_on_c, 1, 68, 127
1, 16619, Note_off_c, 1, 68, 0
1, 16627, Note_on_c, 1, 70, 127
1, 16672, Note_off_c, 1, 77, 0
1, 16679, Note_off_c, 1, 70, 0
1, 16687, Note_on_c, 1, 77, 127
1, 16687, Note_on_c, 1, 72, 127
1, 16687, Note_on_c, 1, 56, 127
1, 16739, Note_off_c, 1, 72, 0
1, 16747, Note_on_c, 1, 68, 127
1, 16792, Note_off_c, 1, 77, 0
1, 16792, Note_off_c, 1, 56, 0
1, 16799, Note_off_c, 1, 68, 0
1, 16807, Note_on_c, 1, 77, 127
1, 16807, Note_on_c, 1, 73, 127
1, 16807, Note_on_c, 1, 58, 127
1, 16859, Note_off_c, 1, 58, 0
1, 16867, Note_on_c, 1, 56, 127
1, 16912, Note_off_c, 1, 77, 0
1, 16919, Note_off_c, 1, 56, 0
1, 16927, Note_on_c, 1, 75, 127
1, 16927, Note_on_c, 1, 55, 127
1, 16979, Note_off_c, 1, 75, 0
1, 16979, Note_off_c, 1, 55, 0
1, 16987, Note_on_c, 1, 53, 127
1, 17039, Note_off_c, 1, 53, 0
1, 17047, Note_on_c, 1, 79, 127
1, 17047, Note_on_c, 1, 51, 127
1, 17099, Note_off_c, 1, 79, 0
1, 17099, Note_off_c, 1, 51, 0
1, 17107, Note_on_c, 1, 80, 127
1, 17107, Note_on_c, 1, 49, 127
1, 17159, Note_off_c, 1, 80, 0
1, 17159, Note_off_c, 1, 49, 0
1, 17167, Note_on_c, 1, 82, 127
1, 17167, Note_on_c, 1, 48, 127
1, 17219, Note_off_c, 1, 82, 0
1, 17219, Note_off_c, 1, 48, 0
1, 17227, Note_on_c, 1, 46, 127
1, 17279, Note_off_c, 1, 46, 0
1, 17287, Note_on_c, 1, 44, 127
1, 17339, Note_off_c, 1, 44, 0
1, 17392, Note_off_c, 1, 73, 0
1, 17527, Note_on_c, 1, 72, 127
1, 17632, Note_off_c, 1, 72, 0
1, 17647, Note_on_c, 1, 54, 127
1, 17699, Note_off_c, 1, 54, 0
1, 17767, Note_on_c, 1, 68, 127
1, 17872, Note_off_c, 1, 68, 0
1, 18247, Note_on_c, 1, 70, 127
1, 18247, Note_on_c, 1, 61, 127
1, 18299, Note_off_c, 1, 61, 0
1, 18307, Note_on_c, 1, 60, 127
1, 18359, Note_off_c, 1, 60, 0
1, 18472, Note_off_c, 1, 70, 0
1, 18487, Note_on_c, 1, 82, 127
1, 18487, Note_on_c, 1, 55, 127
1, 18539, Note_off_c, 1, 55, 0
1, 18547, Note_on_c, 1, 53, 127
1, 18592, Note_off_c, 1, 82, 0
1, 18599, Note_off_c, 1, 53, 0
1, 18607, Note_on_c, 1, 73, 127
1, 18607, Note_on_c, 1, 70, 127
1, 18607, Note_on_c, 1, 51, 127
1, 18659, Note_off_c, 1, 51, 0
1, 18667, Note_on_c, 1, 55, 127
1, 18719, Note_off_c, 1, 55, 0
1, 18727, Note_on_c, 1, 48, 127
1, 18779, Note_off_c, 1, 48, 0
1, 18787, Note_on_c, 1, 53, 127
1, 18832, Note_off_c, 1, 73, 0
1, 18832, Note_off_c, 1, 70, 0
1, 18839, Note_off_c, 1, 53, 0
1, 18847, Note_on_c, 1, 72, 127
1, 18847, Note_on_c, 1, 68, 127
1, 18847, Note_on_c, 1, 51, 127
1, 18899, Note_off_c, 1, 72, 0
1, 18899, Note_off_c, 1, 51, 0
1, 18907, Note_on_c, 1, 73, 127
1, 18907, Note_on_c, 1, 49, 127
1, 18952, Note_off_c, 1, 68, 0
1, 18959, Note_off_c, 1, 73, 0
1, 18959, Note_off_c, 1, 49, 0
1, 18967, Note_on_c, 1, 75, 127
1, 18967, Note_on_c, 1, 48, 127
1, 19019, Note_off_c, 1, 48, 0
1, 19027, Note_on_c, 1, 46, 127
1, 19072, Note_off_c, 1, 75, 0
1, 19079, Note_off_c, 1, 46, 0
1, 19087, Note_on_c, 1, 66, 127
1, 19087, Note_on_c, 1, 63, 127
1, 19087, Note_on_c, 1, 44, 127
1, 19139, Note_off_c, 1, 44, 0
1, 19147, Note_on_c, 1, 48, 127
1, 19199, Note_off_c, 1, 48, 0
1, 19207, Note_on_c, 1, 37, 127
1, 19259, Note_off_c, 1, 66, 0
1, 19267, Note_on_c, 1, 65, 127
1, 19312, Note_off_c, 1, 63, 0
1, 19312, Note_off_c, 1, 37, 0
1, 19319, Note_off_c, 1, 65, 0
1, 19327, Note_on_c, 1, 67, 127
1, 19327, Note_on_c, 1, 61, 127
1, 19327, Note_on_c, 1, 53, 127
1, 19379, Note_off_c, 1, 67, 0
1, 19379, Note_off_c, 1, 61, 0
1, 19387, Note_on_c, 1, 68, 127
1, 19387, Note_on_c, 1, 60, 127
1, 19432, Note_off_c, 1, 53, 0
1, 19439, Note_off_c, 1, 68, 0
1, 19439, Note_off_c, 1, 60, 0
1, 19447, Note_on_c, 1, 70, 127
1, 19447, Note_on_c, 1, 58, 127
1, 19447, Note_on_c, 1, 49, 127
1, 19499, Note_off_c, 1, 70, 0
1, 19499, Note_off_c, 1, 58, 0
1, 19507, Note_on_c, 1, 72, 127
1, 19507, Note_on_c, 1, 56, 127
1, 19552, Note_off_c, 1, 49, 0
1, 19559, Note_off_c, 1, 72, 0
1, 19559, Note_off_c, 1, 56, 0
1, 19567, Note_on_c, 1, 73, 127
1, 19567, Note_on_c, 1, 55, 127
1, 19567, Note_on_c, 1, 51, 127
1, 19619, Note_off_c, 1, 73, 0
1, 19619, Note_off_c, 1, 55, 0
1, 19627, Note_on_c, 1, 70, 127
1, 19627, Note_on_c, 1, 58, 127
1, 19672, Note_off_c, 1, 51, 0
1, 19679, Note_off_c, 1, 70, 0
1, 19679, Note_off_c, 1, 58, 0
1, 19687, Note_on_c, 1, 72, 127
1, 19687, Note_on_c, 1, 56, 127
1, 19739, Note_off_c, 1, 56, 0
1, 19747, Note_on_c, 1, 63, 127
1, 19747, Note_on_c, 1, 55, 127
1, 19799, Note_off_c, 1, 63, 0
1, 19799, Note_off_c, 1, 55, 0
1, 19807, Note_on_c, 1, 65, 127
1, 19807, Note_on_c, 1, 53, 127
1, 19859, Note_off_c, 1, 65, 0
1, 19859, Note_off_c, 1, 53, 0
1, 19867, Note_on_c, 1, 67, 127
1, 19867, Note_on_c, 1, 51, 127
1, 19912, Note_off_c, 1, 72, 0
1, 19919, Note_off_c, 1, 67, 0
1, 19919, Note_off_c, 1, 51, 0
1, 19927, Note_on_c, 1, 68, 127
1, 19927, Note_on_c, 1, 53, 127
1, 19979, Note_off_c, 1, 68, 0
1, 19987, Note_on_c, 1, 70, 127
1, 20032, Note_off_c, 1, 53, 0
1, 20039, Note_off_c, 1, 70, 0
1, 20047, Note_on_c, 1, 72, 127
1, 20047, Note_on_c, 1, 48, 127
1, 20099, Note_off_c, 1, 72, 0
1, 20107, Note_on_c, 1, 68, 127
1, 20152, Note_off_c, 1, 48, 0
1, 20159, Note_off_c, 1, 68, 0
1, 20167, Note_on_c, 1, 77, 127
1, 20167, Note_on_c, 1, 49, 127
1, 20227, Note_on_c, 1, 75, 127
1, 20272, Note_off_c, 1, 77, 0
1, 20272, Note_off_c, 1, 49, 0
1, 20279, Note_off_c, 1, 75, 0
1, 20287, Note_on_c, 1, 73, 127
1, 20287, Note_on_c, 1, 46, 127
1, 20339, Note_off_c, 1, 73, 0
1, 20347, Note_on_c, 1, 72, 127
1, 20392, Note_off_c, 1, 46, 0
1, 20399, Note_off_c, 1, 72, 0
1, 20407, Note_on_c, 1, 70, 127
1, 20407, Note_on_c, 1, 43, 127
1, 20459, Note_off_c, 1, 70, 0
1, 20467, Note_on_c, 1, 68, 127
1, 20512, Note_off_c, 1, 43, 0
1, 20519, Note_off_c, 1, 68, 0
1, 20527, Note_on_c, 1, 67, 127
1, 20527, Note_on_c, 1, 51, 127
1, 20579, Note_off_c, 1, 67, 0
1, 20587, Note_on_c, 1, 70, 127
1, 20632, Note_off_c, 1, 51, 0
1, 20639, Note_off_c, 1, 70, 0
1, 20647, Note_on_c, 1, 63, 127
1, 20647, Note_on_c, 1, 48, 127
1, 20699, Note_off_c, 1, 48, 0
1, 20707, Note_on_c, 1, 46, 127
1, 20759, Note_off_c, 1, 46, 0
1, 20767, Note_on_c, 1, 56, 127
1, 20767, Note_on_c, 1, 44, 127
1, 20819, Note_off_c, 1, 44, 0
1, 20872, Note_off_c, 1, 63, 0
1, 20872, Note_off_c, 1, 56, 0
1, 20887, Note_on_c, 1, 63, 127
1, 20887, Note_on_c, 1, 48, 127
1, 20939, Note_off_c, 1, 48, 0
1, 20947, Note_on_c, 1, 50, 127
1, 20992, Note_off_c, 1, 63, 0
1, 20999, Note_off_c, 1, 50, 0
1, 21007, Note_on_c, 1, 66, 127
1, 21007, Note_on_c, 1, 63, 127
1, 21007, Note_on_c, 1, 51, 127
1, 21059, Note_off_c, 1, 51, 0
1, 21067, Note_on_c, 1, 48, 127
1, 21112, Note_off_c, 1, 66, 0
1, 21112, Note_off_c, 1, 63, 0
1, 21119, Note_off_c, 1, 48, 0
1, 21127, Note_on_c, 1, 65, 127
1, 21127, Note_on_c, 1, 63, 127
1, 21127, Note_on_c, 1, 50, 127
1, 21179, Note_off_c, 1, 50, 0
1, 21187, Note_on_c, 1, 48, 127
1, 21232, Note_off_c, 1, 65, 0
1, 21232, Note_off_c, 1, 63, 0
1, 21239, Note_off_c, 1, 48, 0
1, 21247, Note_on_c, 1, 70, 127
1, 21247, Note_on_c, 1, 62, 127
1, 21247, Note_on_c, 1, 46, 127
1, 21299, Note_off_c, 1, 62, 0
1, 21299, Note_off_c, 1, 46, 0
1, 21307, Note_on_c, 1, 63, 127
1, 21307, Note_on_c, 1, 48, 127
1, 21352, Note_off_c, 1, 70, 0
1, 21359, Note_off_c, 1, 63, 0
1, 21359, Note_off_c, 1, 48, 0
1, 21367, Note_on_c, 1, 65, 127
1, 21367, Note_on_c, 1, 50, 127
1, 21419, Note_off_c, 1, 50, 0
1, 21427, Note_on_c, 1, 51, 127
1, 21472, Note_off_c, 1, 65, 0
1, 21479, Note_off_c, 1, 51, 0
1, 21487, Note_on_c, 1, 68, 127
1, 21487, Note_on_c, 1, 65, 127
1, 21487, Note_on_c, 1, 53, 127
1, 21539, Note_off_c, 1, 53, 0
1, 21547, Note_on_c, 1, 50, 127
1, 21592, Note_off_c, 1, 68, 0
1, 21592, Note_off_c, 1, 65, 0
1, 21599, Note_off_c, 1, 50, 0
1, 21607, Note_on_c, 1, 66, 127
1, 21607, Note_on_c, 1, 65, 127
1, 21607, Note_on_c, 1, 51, 127
1, 21659, Note_off_c, 1, 51, 0
1, 21667, Note_on_c, 1, 53, 127
1, 21712, Note_off_c, 1, 66, 0
1, 21712, Note_off_c, 1, 65, 0
1, 21719, Note_off_c, 1, 53, 0
1, 21727, Note_on_c, 1, 71, 127
1, 21727, Note_on_c, 1, 63, 127
1, 21727, Note_on_c, 1, 54, 127
1, 21779, Note_off_c, 1, 63, 0
1, 21779, Note_off_c, 1, 54, 0
1, 21787, Note_on_c, 1, 65, 127
1, 21787, Note_on_c, 1, 53, 127
1, 21832, Note_off_c, 1, 71, 0
1, 21839, Note_off_c, 1, 65, 0
1, 21839, Note_off_c, 1, 53, 0
1, 21847, Note_on_c, 1, 66, 127
1, 21847, Note_on_c, 1, 51, 127
1, 21899, Note_off_c, 1, 51, 0
1, 21907, Note_on_c, 1, 49, 127
1, 21952, Note_off_c, 1, 66, 0
1, 21959, Note_off_c, 1, 49, 0
1, 21967, Note_on_c, 1, 70, 127
1, 21967, Note_on_c, 1, 66, 127
1, 21967, Note_on_c, 1, 47, 127
1, 22019, Note_off_c, 1, 47, 0
1, 22027, Note_on_c, 1, 46, 127
1, 22072, Note_off_c, 1, 70, 0
1, 22072, Note_off_c, 1, 66, 0
1, 22079, Note_off_c, 1, 46, 0
1, 22087, Note_on_c, 1, 68, 127
1, 22087, Note_on_c, 1, 66, 127
1, 22087, Note_on_c, 1, 47, 127
1, 22139, Note_off_c, 1, 47, 0
1, 22147, Note_on_c, 1, 51, 127
1, 22192, Note_off_c, 1, 68, 0
1, 22192, Note_off_c, 1, 66, 0
1, 22199, Note_off_c, 1, 51, 0
1, 22207, Note_on_c, 1, 73, 127
1, 22207, Note_on_c, 1, 65, 127
1, 22207, Note_on_c, 1, 49, 127
1, 22259, Note_off_c, 1, 65, 0
1, 22259, Note_off_c, 1, 49, 0
1, 22267, Note_on_c, 1, 66, 127
1, 22267, Note_on_c, 1, 47, 127
1, 22312, Note_off_c, 1, 73, 0
1, 22319, Note_off_c, 1, 66, 0
1, 22319, Note_off_c, 1, 47, 0
1, 22327, Note_on_c, 1, 68, 127
1, 22327, Note_on_c, 1, 46, 127
1, 22379, Note_off_c, 1, 46, 0
1, 22387, Note_on_c, 1, 44, 127
1, 22432, Note_off_c, 1, 68, 0
1, 22439, Note_off_c, 1, 44, 0
1, 22447, Note_on_c, 1, 71, 127
1, 22447, Note_on_c, 1, 68, 127
1, 22447, Note_on_c, 1, 42, 127
1, 22499, Note_off_c, 1, 42, 0
1, 22507, Note_on_c, 1, 41, 127
1, 22552, Note_off_c, 1, 71, 0
1, 22559, Note_off_c, 1, 41, 0
1, 22567, Note_on_c, 1, 70, 127
1, 22619, Note_off_c, 1, 68, 0
1, 22687, Note_on_c, 1, 66, 127
1, 22687, Note_on_c, 1, 44, 127
1, 22739, Note_off_c, 1, 66, 0
1, 22747, Note_on_c, 1, 65, 127
1, 22792, Note_off_c, 1, 70, 0
1, 22792, Note_off_c, 1, 44, 0
1, 22799, Note_off_c, 1, 65, 0
1, 22807, Note_on_c, 1, 66, 127
1, 22807, Note_on_c, 1, 46, 127
1, 22859, Note_off_c, 1, 46, 0
1, 22867, Note_on_c, 1, 42, 127
1, 22912, Note_off_c, 1, 66, 0
1, 22919, Note_off_c, 1, 42, 0
1, 22927, Note_on_c, 1, 61, 127
1, 22927, Note_on_c, 1, 44, 127
1, 22979, Note_off_c, 1, 44, 0
1, 22987, Note_on_c, 1, 46, 127
1, 23032, Note_off_c, 1, 61, 0
1, 23039, Note_off_c, 1, 46, 0
1, 23047, Note_on_c, 1, 63, 127
1, 23047, Note_on_c, 1, 47, 127
1, 23099, Note_off_c, 1, 47, 0
1, 23107, Note_on_c, 1, 49, 127
1, 23152, Note_off_c, 1, 63, 0
1, 23159, Note_off_c, 1, 49, 0
1, 23167, Note_on_c, 1, 59, 127
1, 23167, Note_on_c, 1, 51, 127
1, 23219, Note_off_c, 1, 51, 0
1, 23227, Note_on_c, 1, 47, 127
1, 23272, Note_off_c, 1, 59, 0
1, 23279, Note_off_c, 1, 47, 0
1, 23287, Note_on_c, 1, 56, 127
1, 23287, Note_on_c, 1, 49, 127
1, 23339, Note_off_c, 1, 49, 0
1, 23347, Note_on_c, 1, 51, 127
1, 23392, Note_off_c, 1, 56, 0
1, 23399, Note_off_c, 1, 51, 0
1, 23407, Note_on_c, 1, 61, 127
1, 23407, Note_on_c, 1, 53, 127
1, 23459, Note_off_c, 1, 53, 0
1, 23467, Note_on_c, 1, 49, 127
1, 23512, Note_off_c, 1, 61, 0
1, 23519, Note_off_c, 1, 49, 0
1, 23527, Note_on_c, 1, 58, 127
1, 23527, Note_on_c, 1, 54, 127
1, 23579, Note_off_c, 1, 54, 0
1, 23587, Note_on_c, 1, 56, 127
1, 23639, Note_off_c, 1, 56, 0
1, 23647, Note_on_c, 1, 73, 127
1, 23707, Note_on_c, 1, 53, 127
1, 23752, Note_off_c, 1, 58, 0
1, 23752, Note_off_c, 1, 73, 0
1, 23759, Note_off_c, 1, 53, 0
1, 23767, Note_on_c, 1, 78, 127
1, 23767, Note_on_c, 1, 51, 127
1, 23819, Note_off_c, 1, 51, 0
1, 23827, Note_on_c, 1, 53, 127
1, 23872, Note_off_c, 1, 78, 0
1, 23879, Note_off_c, 1, 53, 0
1, 23887, Note_on_c, 1, 78, 127
1, 23887, Note_on_c, 1, 70, 127
1, 23887, Note_on_c, 1, 54, 127
1, 23939, Note_off_c, 1, 54, 0
1, 23947, Note_on_c, 1, 51, 127
1, 23992, Note_off_c, 1, 78, 0
1, 23992, Note_off_c, 1, 70, 0
1, 23999, Note_off_c, 1, 51, 0
1, 24007, Note_on_c, 1, 78, 127
1, 24007, Note_on_c, 1, 71, 127
1, 24007, Note_on_c, 1, 56, 127
1, 24059, Note_off_c, 1, 56, 0
1, 24067, Note_on_c, 1, 58, 127
1, 24112, Note_off_c, 1, 78, 0
1, 24119, Note_off_c, 1, 58, 0
1, 24127, Note_on_c, 1, 77, 127
1, 24179, Note_off_c, 1, 77, 0
1, 24187, Note_on_c, 1, 54, 127
1, 24232, Note_off_c, 1, 71, 0
1, 24239, Note_off_c, 1, 54, 0
1, 24247, Note_on_c, 1, 80, 127
1, 24247, Note_on_c, 1, 53, 127
1, 24299, Note_off_c, 1, 53, 0
1, 24307, Note_on_c, 1, 54, 127
1, 24352, Note_off_c, 1, 80, 0
1, 24359, Note_off_c, 1, 54, 0
1, 24367, Note_on_c, 1, 80, 127
1, 24367, Note_on_c, 1, 71, 127
1, 24367, Note_on_c, 1, 56, 127
1, 24419, Note_off_c, 1, 56, 0
1, 24427, Note_on_c, 1, 53, 127
1, 24472, Note_off_c, 1, 80, 0
1, 24472, Note_off_c, 1, 71, 0
1, 24479, Note_off_c, 1, 53, 0
1, 24487, Note_on_c, 1, 80, 127
1, 24487, Note_on_c, 1, 70, 127
1, 24487, Note_on_c, 1, 50, 127
1, 24539, Note_off_c, 1, 50, 0
1, 24547, Note_on_c, 1, 46, 127
1, 24592, Note_off_c, 1, 80, 0
1, 24599, Note_off_c, 1, 46, 0
1, 24607, Note_on_c, 1, 78, 127
1, 24607, Note_on_c, 1, 48, 127
1, 24659, Note_off_c, 1, 78, 0
1, 24659, Note_off_c, 1, 48, 0
1, 24667, Note_on_c, 1, 77, 127
1, 24719, Note_off_c, 1, 77, 0
1, 24727, Note_on_c, 1, 51, 127
1, 24779, Note_off_c, 1, 51, 0
1, 24787, Note_on_c, 1, 53, 127
1, 24832, Note_off_c, 1, 70, 0
1, 24839, Note_off_c, 1, 53, 0
1, 24847, Note_on_c, 1, 75, 127
1, 24847, Note_on_c, 1, 54, 127
1, 24899, Note_off_c, 1, 54, 0
1, 24952, Note_off_c, 1, 75, 0
1, 24967, Note_on_c, 1, 68, 127
1, 24967, Note_on_c, 1, 59, 127
1, 25019, Note_off_c, 1, 59, 0
1, 25027, Note_on_c, 1, 58, 127
1, 25072, Note_off_c, 1, 68, 0
1, 25079, Note_off_c, 1, 58, 0
1, 25087, Note_on_c, 1, 83, 127
1, 25087, Note_on_c, 1, 56, 127
1, 25139, Note_off_c, 1, 83, 0
1, 25139, Note_off_c, 1, 56, 0
1, 25147, Note_on_c, 1, 82, 127
1, 25147, Note_on_c, 1, 58, 127
1, 25199, Note_off_c, 1, 82, 0
1, 25199, Note_off_c, 1, 58, 0
1, 25207, Note_on_c, 1, 80, 127
1, 25207, Note_on_c, 1, 59, 127
1, 25259, Note_off_c, 1, 80, 0
1, 25267, Note_on_c, 1, 78, 127
1, 25319, Note_off_c, 1, 78, 0
1, 25327, Note_on_c, 1, 77, 127
1, 25327, Note_on_c, 1, 68, 127
1, 25379, Note_off_c, 1, 77, 0
1, 25432, Note_off_c, 1, 59, 0
1, 25447, Note_on_c, 1, 74, 127
1, 25447, Note_on_c, 1, 58, 127
1, 25499, Note_off_c, 1, 68, 0
1, 25499, Note_off_c, 1, 74, 0
1, 25507, Note_on_c, 1, 72, 127
1, 25507, Note_on_c, 1, 70, 127
1, 25559, Note_off_c, 1, 72, 0
1, 25559, Note_off_c, 1, 70, 0
1, 25627, Note_on_c, 1, 75, 127
1, 25627, Note_on_c, 1, 66, 127
1, 25679, Note_off_c, 1, 75, 0
1, 25679, Note_off_c, 1, 66, 0
1, 25687, Note_on_c, 1, 65, 127
1, 25739, Note_off_c, 1, 65, 0
1, 25747, Note_on_c, 1, 63, 127
1, 25799, Note_off_c, 1, 63, 0
1, 25807, Note_on_c, 1, 62, 127
1, 25859, Note_off_c, 1, 62, 0
1, 25912, Note_off_c, 1, 58, 0
1, 25927, Note_on_c, 1, 78, 127
1, 25927, Note_on_c, 1, 63, 127
1, 25979, Note_off_c, 1, 78, 0
1, 25987, Note_on_c, 1, 77, 127
1, 26032, Note_off_c, 1, 63, 0
1, 26039, Note_off_c, 1, 77, 0
1, 26047, Note_on_c, 1, 75, 127
1, 26047, Note_on_c, 1, 51, 127
1, 26099, Note_off_c, 1, 75, 0
1, 26099, Note_off_c, 1, 51, 0
1, 26107, Note_on_c, 1, 74, 127
1, 26107, Note_on_c, 1, 53, 127
1, 26159, Note_off_c, 1, 74, 0
1, 26159, Note_off_c, 1, 53, 0
1, 26167, Note_on_c, 1, 75, 127
1, 26167, Note_on_c, 1, 54, 127
1, 26219, Note_off_c, 1, 54, 0
1, 26227, Note_on_c, 1, 51, 127
1, 26272, Note_off_c, 1, 75, 0
1, 26279, Note_off_c, 1, 51, 0
1, 26287, Note_on_c, 1, 70, 127
1, 26287, Note_on_c, 1, 54, 127
1, 26339, Note_off_c, 1, 54, 0
1, 26347, Note_on_c, 1, 58, 127
1, 26392, Note_off_c, 1, 70, 0
1, 26399, Note_off_c, 1, 58, 0
1, 26407, Note_on_c, 1, 71, 127
1, 26407, Note_on_c, 1, 63, 127
1, 26459, Note_off_c, 1, 63, 0
1, 26467, Note_on_c, 1, 62, 127
1, 26512, Note_off_c, 1, 71, 0
1, 26519, Note_off_c, 1, 62, 0
1, 26527, Note_on_c, 1, 68, 127
1, 26527, Note_on_c, 1, 63, 127
1, 26632, Note_off_c, 1, 68, 0
1, 26647, Note_on_c, 1, 65, 127
1, 26752, Note_off_c, 1, 63, 0
1, 26752, Note_off_c, 1, 65, 0
1, 26767, Note_on_c, 1, 70, 127
1, 26767, Note_on_c, 1, 62, 127
1, 26872, Note_off_c, 1, 70, 0
1, 26872, Note_off_c, 1, 62, 0
1, 26887, Note_on_c, 1, 66, 127
1, 26887, Note_on_c, 1, 63, 127
1, 26939, Note_off_c, 1, 63, 0
1, 26947, Note_on_c, 1, 61, 127
1, 26992, Note_off_c, 1, 66, 0
1, 26999, Note_off_c, 1, 61, 0
1, 27007, Note_on_c, 1, 63, 127
1, 27007, Note_on_c, 1, 59, 127
1, 27059, Note_off_c, 1, 59, 0
1, 27067, Note_on_c, 1, 58, 127
1, 27112, Note_off_c, 1, 63, 0
1, 27119, Note_off_c, 1, 58, 0
1, 27127, Note_on_c, 1, 75, 127
1, 27127, Note_on_c, 1, 59, 127
1, 27179, Note_off_c, 1, 59, 0
1, 27187, Note_on_c, 1, 73, 127
1, 27187, Note_on_c, 1, 58, 127
1, 27232, Note_off_c, 1, 75, 0
1, 27239, Note_off_c, 1, 73, 0
1, 27239, Note_off_c, 1, 58, 0
1, 27247, Note_on_c, 1, 75, 127
1, 27247, Note_on_c, 1, 71, 127
1, 27247, Note_on_c, 1, 56, 127
1, 27299, Note_off_c, 1, 71, 0
1, 27299, Note_off_c, 1, 56, 0
1, 27307, Note_on_c, 1, 70, 127
1, 27307, Note_on_c, 1, 54, 127
1, 27352, Note_off_c, 1, 75, 0
1, 27359, Note_off_c, 1, 70, 0
1, 27359, Note_off_c, 1, 54, 0
1, 27367, Note_on_c, 1, 75, 127
1, 27367, Note_on_c, 1, 71, 127
1, 27367, Note_on_c, 1, 56, 127
1, 27419, Note_off_c, 1, 71, 0
1, 27419, Note_off_c, 1, 56, 0
1, 27427, Note_on_c, 1, 70, 127
1, 27427, Note_on_c, 1, 54, 127
1, 27472, Note_off_c, 1, 75, 0
1, 27479, Note_off_c, 1, 70, 0
1, 27479, Note_off_c, 1, 54, 0
1, 27487, Note_on_c, 1, 74, 127
1, 27487, Note_on_c, 1, 68, 127
1, 27487, Note_on_c, 1, 53, 127
1, 27539, Note_off_c, 1, 74, 0
1, 27539, Note_off_c, 1, 68, 0
1, 27539, Note_off_c, 1, 53, 0
1, 27547, Note_on_c, 1, 75, 127
1, 27547, Note_on_c, 1, 66, 127
1, 27547, Note_on_c, 1, 51, 127
1, 27599, Note_off_c, 1, 75, 0
1, 27599, Note_off_c, 1, 66, 0
1, 27599, Note_off_c, 1, 51, 0
1, 27607, Note_on_c, 1, 77, 127
1, 27607, Note_on_c, 1, 65, 127
1, 27607, Note_on_c, 1, 50, 127
1, 27659, Note_off_c, 1, 50, 0
1, 27667, Note_on_c, 1, 46, 127
1, 27712, Note_off_c, 1, 77, 0
1, 27712, Note_off_c, 1, 65, 0
1, 27719, Note_off_c, 1, 46, 0
1, 27727, Note_on_c, 1, 77, 127
1, 27727, Note_on_c, 1, 70, 127
1, 27727, Note_on_c, 1, 48, 127
1, 27779, Note_off_c, 1, 48, 0
1, 27787, Note_on_c, 1, 50, 127
1, 27832, Note_off_c, 1, 77, 0
1, 27832, Note_off_c, 1, 70, 0
1, 27839, Note_off_c, 1, 50, 0
1, 27847, Note_on_c, 1, 77, 127
1, 27847, Note_on_c, 1, 66, 127
1, 27847, Note_on_c, 1, 51, 127
1, 27899, Note_off_c, 1, 51, 0
1, 27907, Note_on_c, 1, 53, 127
1, 27952, Note_off_c, 1, 77, 0
1, 27952, Note_off_c, 1, 66, 0
1, 27959, Note_off_c, 1, 53, 0
1, 27967, Note_on_c, 1, 75, 127
1, 27967, Note_on_c, 1, 70, 127
1, 27967, Note_on_c, 1, 54, 127
1, 28019, Note_off_c, 1, 75, 0
1, 28019, Note_off_c, 1, 54, 0
1, 28027, Note_on_c, 1, 74, 127
1, 28027, Note_on_c, 1, 56, 127
1, 28072, Note_off_c, 1, 70, 0
1, 28079, Note_off_c, 1, 74, 0
1, 28079, Note_off_c, 1, 56, 0
1, 28087, Note_on_c, 1, 75, 127
1, 28087, Note_on_c, 1, 54, 127
1, 28147, Note_on_c, 1, 66, 127
1, 28192, Note_off_c, 1, 54, 0
1, 28199, Note_off_c, 1, 66, 0
1, 28207, Note_on_c, 1, 65, 127
1, 28207, Note_on_c, 1, 59, 127
1, 28259, Note_off_c, 1, 65, 0
1, 28312, Note_off_c, 1, 59, 0
1, 28327, Note_on_c, 1, 68, 127
1, 28327, Note_on_c, 1, 53, 127
1, 28379, Note_off_c, 1, 75, 0
1, 28379, Note_off_c, 1, 53, 0
1, 28387, Note_on_c, 1, 73, 127
1, 28432, Note_off_c, 1, 68, 0
1, 28439, Note_off_c, 1, 73, 0
1, 28447, Note_on_c, 1, 71, 127
1, 28447, Note_on_c, 1, 63, 127
1, 28447, Note_on_c, 1, 56, 127
1, 28499, Note_off_c, 1, 71, 0
1, 28499, Note_off_c, 1, 56, 0
1, 28507, Note_on_c, 1, 70, 127
1, 28507, Note_on_c, 1, 58, 127
1, 28552, Note_off_c, 1, 63, 0
1, 28559, Note_off_c, 1, 70, 0
1, 28559, Note_off_c, 1, 58, 0
1, 28567, Note_on_c, 1, 71, 127
1, 28567, Note_on_c, 1, 65, 127
1, 28567, Note_on_c, 1, 56, 127
1, 28619, Note_off_c, 1, 71, 0
1, 28627, Note_on_c, 1, 68, 127
1, 28672, Note_off_c, 1, 56, 0
1, 28679, Note_off_c, 1, 68, 0
1, 28687, Note_on_c, 1, 70, 127
1, 28687, Note_on_c, 1, 61, 127
1, 28739, Note_off_c, 1, 70, 0
1, 28792, Note_off_c, 1, 65, 0
1, 28792, Note_off_c, 1, 61, 0
1, 28807, Note_on_c, 1, 66, 127
1, 28807, Note_on_c, 1, 54, 127
1, 28912, Note_off_c, 1, 54, 0
1, 28927, Note_on_c, 1, 72, 127
1, 28927, Note_on_c, 1, 53, 127
1, 28979, Note_off_c, 1, 72, 0
1, 28987, Note_on_c, 1, 74, 127
1, 29032, Note_off_c, 1, 66, 0
1, 29032, Note_off_c, 1, 53, 0
1, 29039, Note_off_c, 1, 74, 0
1, 29047, Note_on_c, 1, 75, 127
1, 29047, Note_on_c, 1, 54, 127
1, 29099, Note_off_c, 1, 75, 0
1, 29107, Note_on_c, 1, 77, 127
1, 29152, Note_off_c, 1, 54, 0
1, 29159, Note_off_c, 1, 77, 0
1, 29167, Note_on_c, 1, 78, 127
1, 29167, Note_on_c, 1, 72, 127
1, 29167, Note_on_c, 1, 51, 127
1, 29219, Note_off_c, 1, 78, 0
1, 29227, Note_on_c, 1, 75, 127
1, 29272, Note_off_c, 1, 72, 0
1, 29272, Note_off_c, 1, 51, 0
1, 29279, Note_off_c, 1, 75, 0
1, 29287, Note_on_c, 1, 77, 127
1, 29287, Note_on_c, 1, 73, 127
1, 29287, Note_on_c, 1, 58, 127
1, 29339, Note_off_c, 1, 73, 0
1, 29347, Note_on_c, 1, 72, 127
1, 29392, Note_off_c, 1, 77, 0
1, 29392, Note_off_c, 1, 58, 0
1, 29399, Note_off_c, 1, 72, 0
1, 29407, Note_on_c, 1, 65, 127
1, 29407, Note_on_c, 1, 70, 127
1, 29407, Note_on_c, 1, 61, 127
1, 29459, Note_off_c, 1, 70, 0
1, 29467, Note_on_c, 1, 69, 127
1, 29512, Note_off_c, 1, 65, 0
1, 29512, Note_off_c, 1, 61, 0
1, 29519, Note_off_c, 1, 69, 0
1, 29527, Note_on_c, 1, 70, 127
1, 29527, Note_on_c, 1, 54, 127
1, 29579, Note_off_c, 1, 54, 0
1, 29587, Note_on_c, 1, 53, 127
1, 29639, Note_off_c, 1, 53, 0
1, 29647, Note_on_c, 1, 65, 127
1, 29647, Note_on_c, 1, 51, 127
1, 29699, Note_off_c, 1, 51, 0
1, 29707, Note_on_c, 1, 49, 127
1, 29752, Note_off_c, 1, 65, 0
1, 29759, Note_off_c, 1, 49, 0
1, 29767, Note_on_c, 1, 66, 127
1, 29827, Note_on_c, 1, 48, 127
1, 29872, Note_off_c, 1, 66, 0
1, 29879, Note_off_c, 1, 48, 0
1, 29887, Note_on_c, 1, 63, 127
1, 29992, Note_off_c, 1, 70, 0
1, 29992, Note_off_c, 1, 63, 0
1, 30007, Note_on_c, 1, 69, 127
1, 30007, Note_on_c, 1, 60, 127
1, 30007, Note_on_c, 1, 53, 127
1, 30059, Note_off_c, 1, 53, 0
1, 30067, Note_on_c, 1, 51, 127
1, 30112, Note_off_c, 1, 60, 0
1, 30119, Note_off_c, 1, 51, 0
1, 30127, Note_on_c, 1, 65, 127
1, 30127, Note_on_c, 1, 49, 127
1, 30179, Note_off_c, 1, 49, 0
1, 30187, Note_on_c, 1, 48, 127
1, 30232, Note_off_c, 1, 69, 0
1, 30232, Note_off_c, 1, 65, 0
1, 30239, Note_off_c, 1, 48, 0
1, 30247, Note_on_c, 1, 70, 127
1, 30247, Note_on_c, 1, 61, 127
1, 30247, Note_on_c, 1, 46, 127
1, 30299, Note_off_c, 1, 70, 0
1, 30307, Note_on_c, 1, 69, 127
1, 30352, Note_off_c, 1, 61, 0
1, 30359, Note_off_c, 1, 69, 0
1, 30367, Note_on_c, 1, 58, 127
1, 30427, Note_on_c, 1, 72, 127
1, 30472, Note_off_c, 1, 58, 0
1, 30479, Note_off_c, 1, 72, 0
1, 30487, Note_on_c, 1, 73, 127
1, 30539, Note_off_c, 1, 46, 0
1, 30539, Note_off_c, 1, 73, 0
1, 30547, Note_on_c, 1, 75, 127
1, 30547, Note_on_c, 1, 48, 127
1, 30599, Note_off_c, 1, 75, 0
1, 30599, Note_off_c, 1, 48, 0
1, 30607, Note_on_c, 1, 77, 127
1, 30607, Note_on_c, 1, 70, 127
1, 30607, Note_on_c, 1, 49, 127
1, 30659, Note_off_c, 1, 77, 0
1, 30659, Note_off_c, 1, 49, 0
1, 30667, Note_on_c, 1, 73, 127
1, 30667, Note_on_c, 1, 46, 127
1, 30712, Note_off_c, 1, 70, 0
1, 30719, Note_off_c, 1, 73, 0
1, 30719, Note_off_c, 1, 46, 0
1, 30727, Note_on_c, 1, 75, 127
1, 30727, Note_on_c, 1, 70, 127
1, 30727, Note_on_c, 1, 48, 127
1, 30779, Note_off_c, 1, 75, 0
1, 30779, Note_off_c, 1, 48, 0
1, 30787, Note_on_c, 1, 73, 127
1, 30787, Note_on_c, 1, 49, 127
1, 30832, Note_off_c, 1, 70, 0
1, 30839, Note_off_c, 1, 73, 0
1, 30839, Note_off_c, 1, 49, 0
1, 30847, Note_on_c, 1, 72, 127
1, 30847, Note_on_c, 1, 69, 127
1, 30847, Note_on_c, 1, 51, 127
1, 30899, Note_off_c, 1, 72, 0
1, 30899, Note_off_c, 1, 69, 0
1, 30907, Note_on_c, 1, 73, 127
1, 30907, Note_on_c, 1, 70, 127
1, 30952, Note_off_c, 1, 51, 0
1, 30959, Note_off_c, 1, 73, 0
1, 30959, Note_off_c, 1, 70, 0
1, 30967, Note_on_c, 1, 75, 127
1, 30967, Note_on_c, 1, 72, 127
1, 30967, Note_on_c, 1, 45, 127
1, 31019, Note_off_c, 1, 75, 0
1, 31027, Note_on_c, 1, 77, 127
1, 31072, Note_off_c, 1, 72, 0
1, 31072, Note_off_c, 1, 45, 0
1, 31079, Note_off_c, 1, 77, 0
1, 31087, Note_on_c, 1, 78, 127
1, 31087, Note_on_c, 1, 72, 127
1, 31087, Note_on_c, 1, 46, 127
1, 31139, Note_off_c, 1, 78, 0
1, 31139, Note_off_c, 1, 46, 0
1, 31147, Note_on_c, 1, 75, 127
1, 31147, Note_on_c, 1, 48, 127
1, 31192, Note_off_c, 1, 72, 0
1, 31199, Note_off_c, 1, 75, 0
1, 31199, Note_off_c, 1, 48, 0
1, 31207, Note_on_c, 1, 77, 127
1, 31207, Note_on_c, 1, 72, 127
1, 31207, Note_on_c, 1, 49, 127
1, 31259, Note_off_c, 1, 49, 0
1, 31267, Note_on_c, 1, 51, 127
1, 31312, Note_off_c, 1, 72, 0
1, 31319, Note_off_c, 1, 51, 0
1, 31327, Note_on_c, 1, 70, 127
1, 31379, Note_off_c, 1, 70, 0
1, 31387, Note_on_c, 1, 48, 127
1, 31432, Note_off_c, 1, 77, 0
1, 31439, Note_off_c, 1, 48, 0
1, 31447, Note_on_c, 1, 73, 127
1, 31447, Note_on_c, 1, 46, 127
1, 31499, Note_off_c, 1, 46, 0
1, 31507, Note_on_c, 1, 44, 127
1, 31552, Note_off_c, 1, 73, 0
1, 31559, Note_off_c, 1, 44, 0
1, 31567, Note_on_c, 1, 82, 127
1, 31567, Note_on_c, 1, 73, 127
1, 31567, Note_on_c, 1, 42, 127
1, 31619, Note_off_c, 1, 82, 0
1, 31619, Note_off_c, 1, 42, 0
1, 31627, Note_on_c, 1, 77, 127
1, 31627, Note_on_c, 1, 46, 127
1, 31672, Note_off_c, 1, 73, 0
1, 31679, Note_off_c, 1, 77, 0
1, 31679, Note_off_c, 1, 46, 0
1, 31687, Note_on_c, 1, 78, 127
1, 31687, Note_on_c, 1, 73, 127
1, 31687, Note_on_c, 1, 39, 127
1, 31739, Note_off_c, 1, 78, 0
1, 31747, Note_on_c, 1, 80, 127
1, 31792, Note_off_c, 1, 73, 0
1, 31792, Note_off_c, 1, 39, 0
1, 31799, Note_off_c, 1, 80, 0
1, 31807, Note_on_c, 1, 78, 127
1, 31807, Note_on_c, 1, 58, 127
1, 31859, Note_off_c, 1, 78, 0
1, 31867, Note_on_c, 1, 77, 127
1, 31912, Note_off_c, 1, 58, 0
1, 31919, Note_off_c, 1, 77, 0
1, 31927, Note_on_c, 1, 75, 127
1, 31927, Note_on_c, 1, 60, 127
1, 31979, Note_off_c, 1, 75, 0
1, 31987, Note_on_c, 1, 73, 127
1, 32032, Note_off_c, 1, 60, 0
1, 32039, Note_off_c, 1, 73, 0
1, 32047, Note_on_c, 1, 72, 127
1, 32047, Note_on_c, 1, 63, 127
1, 32099, Note_off_c, 1, 72, 0
1, 32107, Note_on_c, 1, 75, 127
1, 32152, Note_off_c, 1, 63, 0
1, 32159, Note_off_c, 1, 75, 0
1, 32167, Note_on_c, 1, 69, 127
1, 32167, Note_on_c, 1, 63, 127
1, 32227, Note_on_c, 1, 54, 127
1, 32272, Note_off_c, 1, 69, 0
1, 32272, Note_off_c, 1, 63, 0
1, 32279, Note_off_c, 1, 54, 0
1, 32287, Note_on_c, 1, 72, 127
1, 32287, Note_on_c, 1, 57, 127
1, 32287, Note_on_c, 1, 53, 127
1, 32339, Note_off_c, 1, 53, 0
1, 32347, Note_on_c, 1, 51, 127
1, 32392, Note_off_c, 1, 72, 0
1, 32392, Note_off_c, 1, 57, 0
1, 32399, Note_off_c, 1, 51, 0
1, 32407, Note_on_c, 1, 77, 127
1, 32407, Note_on_c, 1, 58, 127
1, 32407, Note_on_c, 1, 49, 127
1, 32459, Note_off_c, 1, 49, 0
1, 32467, Note_on_c, 1, 48, 127
1, 32512, Note_off_c, 1, 77, 0
1, 32512, Note_off_c, 1, 58, 0
1, 32519, Note_off_c, 1, 48, 0
1, 32527, Note_on_c, 1, 73, 127
1, 32527, Note_on_c, 1, 70, 127
1, 32527, Note_on_c, 1, 46, 127
1, 32579, Note_off_c, 1, 46, 0
1, 32587, Note_on_c, 1, 49, 127
1, 32632, Note_off_c, 1, 73, 0
1, 32632, Note_off_c, 1, 70, 0
1, 32639, Note_off_c, 1, 49, 0
1, 32647, Note_on_c, 1, 75, 127
1, 32647, Note_on_c, 1, 70, 127
1, 32647, Note_on_c, 1, 42, 127
1, 32699, Note_off_c, 1, 75, 0
1, 32707, Note_on_c, 1, 77, 127
1, 32752, Note_off_c, 1, 42, 0
1, 32759, Note_off_c, 1, 77, 0
1, 32767, Note_on_c, 1, 78, 127
1, 32767, Note_on_c, 1, 39, 127
1, 32819, Note_off_c, 1, 78, 0
1, 32872, Note_off_c, 1, 70, 0
1, 32872, Note_off_c, 1, 39, 0
1, 32887, Note_on_c, 1, 72, 127
1, 32887, Note_on_c, 1, 69, 127
1, 32887, Note_on_c, 1, 41, 127
1, 32939, Note_off_c, 1, 72, 0
1, 32947, Note_on_c, 1, 78, 127
1, 32992, Note_off_c, 1, 41, 0
1, 32999, Note_off_c, 1, 78, 0
1, 33007, Note_on_c, 1, 77, 127
1, 33007, Note_on_c, 1, 53, 127
1, 33059, Note_off_c, 1, 77, 0
1, 33067, Note_on_c, 1, 75, 127
1, 33112, Note_off_c, 1, 69, 0
1, 33112, Note_off_c, 1, 53, 0
1, 33119, Note_off_c, 1, 75, 0
1, 33127, Note_on_c, 1, 73, 127
1, 33127, Note_on_c, 1, 70, 127
1, 33127, Note_on_c, 1, 46, 127
1, 33179, Note_off_c, 1, 70, 0
1, 33179, Note_off_c, 1, 46, 0
1, 33187, Note_on_c, 1, 65, 127
1, 33187, Note_on_c, 1, 48, 127
1, 33239, Note_off_c, 1, 65, 0
1, 33239, Note_off_c, 1, 48, 0
1, 33247, Note_on_c, 1, 49, 127
1, 33299, Note_off_c, 1, 49, 0
1, 33307, Note_on_c, 1, 51, 127
1, 33352, Note_off_c, 1, 73, 0
1, 33359, Note_off_c, 1, 51, 0
1, 33367, Note_on_c, 1, 72, 127
1, 33367, Note_on_c, 1, 53, 127
1, 33419, Note_off_c, 1, 53, 0
1, 33427, Note_on_c, 1, 54, 127
1, 33472, Note_off_c, 1, 72, 0
1, 33479, Note_off_c, 1, 54, 0
1, 33487, Note_on_c, 1, 77, 127
1, 33487, Note_on_c, 1, 68, 127
1, 33487, Note_on_c, 1, 56, 127
1, 33539, Note_off_c, 1, 56, 0
1, 33547, Note_on_c, 1, 53, 127
1, 33592, Note_off_c, 1, 77, 0
1, 33599, Note_off_c, 1, 53, 0
1, 33607, Note_on_c, 1, 70, 127
1, 33607, Note_on_c, 1, 54, 127
1, 33659, Note_off_c, 1, 68, 0
1, 33659, Note_off_c, 1, 54, 0
1, 33667, Note_on_c, 1, 61, 127
1, 33719, Note_off_c, 1, 61, 0
1, 33727, Note_on_c, 1, 66, 127
1, 33727, Note_on_c, 1, 58, 127
1, 33779, Note_off_c, 1, 58, 0
1, 33787, Note_on_c, 1, 60, 127
1, 33832, Note_off_c, 1, 70, 0
1, 33839, Note_off_c, 1, 60, 0
1, 33907, Note_on_c, 1, 63, 127
1, 33952, Note_off_c, 1, 66, 0
1, 33959, Note_off_c, 1, 63, 0
1, 33967, Note_on_c, 1, 73, 127
1, 33967, Note_on_c, 1, 65, 127
1, 33967, Note_on_c, 1, 61, 127
1, 34019, Note_off_c, 1, 61, 0
1, 34027, Note_on_c, 1, 60, 127
1, 34072, Note_off_c, 1, 73, 0
1, 34079, Note_off_c, 1, 60, 0
1, 34087, Note_on_c, 1, 66, 127
1, 34087, Note_on_c, 1, 58, 127
1, 34139, Note_off_c, 1, 58, 0
1, 34147, Note_on_c, 1, 56, 127
1, 34192, Note_off_c, 1, 65, 0
1, 34199, Note_off_c, 1, 56, 0
1, 34207, Note_on_c, 1, 63, 127
1, 34207, Note_on_c, 1, 54, 127
1, 34259, Note_off_c, 1, 63, 0
1, 34259, Note_off_c, 1, 54, 0
1, 34267, Note_on_c, 1, 53, 127
1, 34319, Note_off_c, 1, 53, 0
1, 34327, Note_on_c, 1, 51, 127
1, 34379, Note_off_c, 1, 51, 0
1, 34567, Note_on_c, 1, 57, 127
1, 34619, Note_off_c, 1, 66, 0
1, 34672, Note_off_c, 1, 57, 0
1, 35227, Note_on_c, 1, 67, 127
1, 35279, Note_off_c, 1, 67, 0
1, 35287, Note_on_c, 1, 69, 127
1, 35339, Note_off_c, 1, 69, 0
1, 35347, Note_on_c, 1, 70, 127
1, 35399, Note_off_c, 1, 70, 0
1, 35407, Note_on_c, 1, 72, 127
1, 35459, Note_off_c, 1, 72, 0
1, 35767, Note_on_c, 1, 72, 127
1, 35767, Note_on_c, 1, 69, 127
1, 35767, Note_on_c, 1, 65, 127
1, 35819, Note_off_c, 1, 72, 0
1, 35819, Note_off_c, 1, 69, 0
1, 35827, Note_on_c, 1, 73, 127
1, 35827, Note_on_c, 1, 70, 127
1, 35879, Note_off_c, 1, 73, 0
1, 35879, Note_off_c, 1, 70, 0
1, 35887, Note_on_c, 1, 75, 127
1, 35939, Note_off_c, 1, 75, 0
1, 36127, Note_on_c, 1, 77, 127
1, 36179, Note_off_c, 1, 77, 0
1, 36187, Note_on_c, 1, 79, 127
1, 36239, Note_off_c, 1, 79, 0
1, 36247, Note_on_c, 1, 81, 127
1, 36299, Note_off_c, 1, 81, 0
1, 36307, Note_on_c, 1, 82, 127
1, 36359, Note_off_c, 1, 82, 0
1, 36367, Note_on_c, 1, 84, 127
1, 36419, Note_off_c, 1, 84, 0
1, 36487, Note_on_c, 1, 74, 127
1, 36539, Note_off_c, 1, 65, 0
1, 36539, Note_off_c, 1, 74, 0
1, 36547, Note_on_c, 1, 66, 127
1, 36599, Note_off_c, 1, 66, 0
1, 36667, Note_on_c, 1, 63, 127
1, 36719, Note_off_c, 1, 63, 0
1, 36727, Note_on_c, 1, 62, 127
1, 36779, Note_off_c, 1, 62, 0
1, 36787, Note_on_c, 1, 78, 127
1, 36787, Note_on_c, 1, 60, 127
1, 36839, Note_off_c, 1, 78, 0
1, 36839, Note_off_c, 1, 60, 0
1, 36847, Note_on_c, 1, 80, 127
1, 36847, Note_on_c, 1, 58, 127
1, 36899, Note_off_c, 1, 80, 0
1, 36899, Note_off_c, 1, 58, 0
1, 36967, Note_on_c, 1, 51, 127
1, 37019, Note_off_c, 1, 51, 0
1, 37027, Note_on_c, 1, 53, 127
1, 37079, Note_off_c, 1, 53, 0
1, 37087, Note_on_c, 1, 54, 127
1, 37139, Note_off_c, 1, 54, 0
1, 37147, Note_on_c, 1, 56, 127
1, 37199, Note_off_c, 1, 56, 0
1, 37747, Note_on_c, 1, 68, 127
1, 37799, Note_off_c, 1, 68, 0
1, 37987, Note_on_c, 1, 61, 127
1, 38039, Note_off_c, 1, 61, 0
1, 38167, Note_on_c, 1, 84, 127
1, 38167, Note_on_c, 1, 57, 127
1, 38219, Note_off_c, 1, 57, 0
1, 38227, Note_on_c, 1, 55, 127
1, 38272, Note_off_c, 1, 84, 0
1, 38279, Note_off_c, 1, 55, 0
1, 38287, Note_on_c, 1, 75, 127
1, 38287, Note_on_c, 1, 72, 127
1, 38287, Note_on_c, 1, 53, 127
1, 38339, Note_off_c, 1, 53, 0
1, 38347, Note_on_c, 1, 57, 127
1, 38399, Note_off_c, 1, 57, 0
1, 38407, Note_on_c, 1, 49, 127
1, 38459, Note_off_c, 1, 49, 0
1, 38467, Note_on_c, 1, 54, 127
1, 38512, Note_off_c, 1, 75, 0
1, 38512, Note_off_c, 1, 72, 0
1, 38519, Note_off_c, 1, 54, 0
1, 38527, Note_on_c, 1, 73, 127
1, 38527, Note_on_c, 1, 70, 127
1, 38527, Note_on_c, 1, 53, 127
1, 38579, Note_off_c, 1, 73, 0
1, 38579, Note_off_c, 1, 53, 0
1, 38587, Note_on_c, 1, 75, 127
1, 38587, Note_on_c, 1, 51, 127
1, 38632, Note_off_c, 1, 70, 0
1, 38639, Note_off_c, 1, 75, 0
1, 38639, Note_off_c, 1, 51, 0
1, 38647, Note_on_c, 1, 77, 127
1, 38647, Note_on_c, 1, 49, 127
1, 38699, Note_off_c, 1, 77, 0
1, 38699, Note_off_c, 1, 49, 0
1, 38707, Note_on_c, 1, 75, 127
1, 38707, Note_on_c, 1, 48, 127
1, 38733, Note_off_c, 1, 75, 0
1, 38737, Note_on_c, 1, 73, 127
1, 38759, Note_off_c, 1, 48, 0
1, 38763, Note_off_c, 1, 73, 0
1, 38767, Note_on_c, 1, 75, 127
1, 38767, Note_on_c, 1, 66, 127
1, 38767, Note_on_c, 1, 46, 127
1, 38819, Note_off_c, 1, 75, 0
1, 38819, Note_off_c, 1, 46, 0
1, 38827, Note_on_c, 1, 69, 127
1, 38827, Note_on_c, 1, 48, 127
1, 38872, Note_off_c, 1, 66, 0
1, 38879, Note_off_c, 1, 69, 0
1, 38879, Note_off_c, 1, 48, 0
1, 38887, Note_on_c, 1, 70, 127
1, 38887, Note_on_c, 1, 65, 127
1, 38887, Note_on_c, 1, 49, 127
1, 38939, Note_off_c, 1, 49, 0
1, 38947, Note_on_c, 1, 48, 127
1, 38999, Note_off_c, 1, 48, 0
1, 39052, Note_off_c, 1, 70, 0
1, 39052, Note_off_c, 1, 65, 0
1, 39067, Note_on_c, 1, 72, 127
1, 39067, Note_on_c, 1, 66, 127
1, 39067, Note_on_c, 1, 51, 127
1, 39119, Note_off_c, 1, 72, 0
1, 39119, Note_off_c, 1, 66, 0
1, 39119, Note_off_c, 1, 51, 0
1, 39127, Note_on_c, 1, 69, 127
1, 39127, Note_on_c, 1, 60, 127
1, 39127, Note_on_c, 1, 53, 127
1, 39179, Note_off_c, 1, 53, 0
1, 39187, Note_on_c, 1, 51, 127
1, 39239, Note_off_c, 1, 51, 0
1, 39292, Note_off_c, 1, 69, 0
1, 39307, Note_on_c, 1, 70, 127
1, 39307, Note_on_c, 1, 41, 127
1, 39352, Note_off_c, 1, 60, 0
1, 39359, Note_off_c, 1, 70, 0
1, 39359, Note_off_c, 1, 41, 0
1, 39367, Note_on_c, 1, 70, 127
1, 39367, Note_on_c, 1, 62, 127
1, 39367, Note_on_c, 1, 46, 127
1, 39832, Note_off_c, 1, 70, 0
1, 39832, Note_off_c, 1, 62, 0
1, 39832, Note_off_c, 1, 46, 0
1, 39832, End_track
0, 0, End_of_file