0, 0, Header, 1, 1, 480
1, 0, Start_track
1, 0, Title_t, "Test"
1, 0, Tempo, 500000
1, 0, Instrument_name_t, "Church Organ"
1, 5, Note_on_c, 1, 68, 127
1, 57, Note_off_c, 1, 68, 0
1, 65, Note_on_c, 1, 70, 127
1, 117, Note_off_c, 1, 70, 0
1, 125, Note_on_c, 1, 71, 127
1, 177, Note_off_c, 1, 71, 0
1, 185, Note_on_c, 1, 70, 127
1, 237, Note_off_c, 1, 70, 0
1, 245, Note_on_c, 1, 75, 127
1, 297, Note_off_c, 1, 75, 0
1, 305, Note_on_c, 1, 63, 127
1, 357, Note_off_c, 1, 63, 0
1, 365, Note_on_c, 1, 68, 127
1, 417, Note_off_c, 1, 68, 0
1, 425, Note_on_c, 1, 71, 127
1, 477, Note_off_c, 1, 71, 0
1, 485, Note_on_c, 1, 70, 127
1, 537, Note_off_c, 1, 70, 0
1, 545, Note_on_c, 1, 71, 127
1, 597, Note_off_c, 1, 71, 0
1, 605, Note_on_c, 1, 70, 127
1, 657, Note_off_c, 1, 70, 0
1, 665, Note_on_c, 1, 68, 127
1, 717, Note_off_c, 1, 68, 0
1, 725, Note_on_c, 1, 70, 127
1, 777, Note_off_c, 1, 70, 0
1, 785, Note_on_c, 1, 71, 127
1, 837, Note_off_c, 1, 71, 0
1, 845, Note_on_c, 1, 73, 127
1, 897, Note_off_c, 1, 73, 0
1, 905, Note_on_c, 1, 71, 127
1, 957, Note_off_c, 1, 71, 0
1, 965, Note_on_c, 1, 76, 127
1, 1017, Note_off_c, 1, 76, 0
1, 1025, Note_on_c, 1, 68, 127
1, 1077, Note_off_c, 1, 68, 0
1, 1085, Note_on_c, 1, 70, 127
1, 1137, Note_off_c, 1, 70, 0
1, 1145, Note_on_c, 1, 73, 127
1, 1197, Note_off_c, 1, 73, 0
1, 1205, Note_on_c, 1, 71, 127
1, 1257, Note_off_c, 1, 71, 0
1, 1265, Note_on_c, 1, 73, 127
1, 1317, Note_off_c, 1, 73, 0
1, 1325, Note_on_c, 1, 71, 127
1, 1377, Note_off_c, 1, 71, 0
1, 1385, Note_on_c, 1, 70, 127
1, 1437, Note_off_c, 1, 70, 0
1, 1445, Note_on_c, 1, 71, 127
1, 1445, Note_on_c, 1, 63, 127
1, 1497, Note_off_c, 1, 63, 0
1, 1505, Note_on_c, 1, 65, 127
1, 1550, Note_off_c, 1, 71, 0
1, 1557, Note_off_c, 1, 65, 0
1, 1565, Note_on_c, 1, 72, 127
1, 1565, Note_on_c, 1, 66, 127
1, 1617, Note_off_c, 1, 72, 0
1, 1617, Note_off_c, 1, 66, 0
1, 1625, Note_on_c, 1, 73, 127
1, 1625, Note_on_c, 1, 65, 127
1, 1677, Note_off_c, 1, 65, 0
1, 1685, Note_on_c, 1, 70, 127
1, 1737, Note_off_c, 1, 70, 0
1, 1745, Note_on_c, 1, 58, 127
1, 1797, Note_off_c, 1, 58, 0
1, 1805, Note_on_c, 1, 63, 127
1, 1857, Note_off_c, 1, 63, 0
1, 1865, Note_on_c, 1, 66, 127
1, 1917, Note_off_c, 1, 66, 0
1, 1970, Note_off_c, 1, 73, 0
1, 1985, Note_on_c, 1, 72, 127
1, 1985, Note_on_c, 1, 66, 127
1, 2037, Note_off_c, 1, 66, 0
1, 2045, Note_on_c, 1, 65, 127
1, 2097, Note_off_c, 1, 65, 0
1, 2105, Note_on_c, 1, 63, 127
1, 2150, Note_off_c, 1, 72, 0
1, 2157, Note_off_c, 1, 63, 0
1, 2165, Note_on_c, 1, 73, 127
1, 2165, Note_on_c, 1, 65, 127
1, 2217, Note_off_c, 1, 65, 0
1, 2225, Note_on_c, 1, 66, 127
1, 2270, Note_off_c, 1, 73, 0
1, 2277, Note_off_c, 1, 66, 0
1, 2285, Note_on_c, 1, 74, 127
1, 2285, Note_on_c, 1, 68, 127
1, 2337, Note_off_c, 1, 74, 0
1, 2337, Note_off_c, 1, 68, 0
1, 2345, Note_on_c, 1, 75, 127
1, 2345, Note_on_c, 1, 66, 127
1, 2397, Note_off_c, 1, 66, 0
1, 2405, Note_on_c, 1, 71, 127
1, 2457, Note_off_c, 1, 71, 0
1, 2465, Note_on_c, 1, 63, 127
1, 2517, Note_off_c, 1, 63, 0
1, 2525, Note_on_c, 1, 65, 127
1, 2577, Note_off_c, 1, 65, 0
1, 2585, Note_on_c, 1, 68, 127
1, 2637, Note_off_c, 1, 68, 0
1, 2690, Note_off_c, 1, 75, 0
1, 2705, Note_on_c, 1, 74, 127
1, 2705, Note_on_c, 1, 68, 127
1, 2757, Note_off_c, 1, 68, 0
1, 2765, Note_on_c, 1, 66, 127
1, 2817, Note_off_c, 1, 66, 0
1, 2825, Note_on_c, 1, 65, 127
1, 2870, Note_off_c, 1, 74, 0
1, 2877, Note_off_c, 1, 65, 0
1, 2885, Note_on_c, 1, 75, 127
1, 2885, Note_on_c, 1, 66, 127
1, 2937, Note_off_c, 1, 75, 0
1, 2945, Note_on_c, 1, 73, 127
1, 2990, Note_off_c, 1, 66, 0
1, 3005, Note_on_c, 1, 67, 127
1, 3057, Note_off_c, 1, 67, 0
1, 3065, Note_on_c, 1, 68, 127
1, 3117, Note_off_c, 1, 73, 0
1, 3125, Note_on_c, 1, 70, 127
1, 3170, Note_off_c, 1, 68, 0
1, 3177, Note_off_c, 1, 70, 0
1, 3185, Note_on_c, 1, 72, 127
1, 3185, Note_on_c, 1, 66, 127
1, 3237, Note_off_c, 1, 72, 0
1, 3237, Note_off_c, 1, 66, 0
1, 3245, Note_on_c, 1, 73, 127
1, 3245, Note_on_c, 1, 64, 127
1, 3297, Note_off_c, 1, 73, 0
1, 3305, Note_on_c, 1, 71, 127
1, 3350, Note_off_c, 1, 64, 0
1, 3365, Note_on_c, 1, 65, 127
1, 3417, Note_off_c, 1, 65, 0
1, 3425, Note_on_c, 1, 66, 127
1, 3477, Note_off_c, 1, 71, 0
1, 3485, Note_on_c, 1, 68, 127
1, 3530, Note_off_c, 1, 66, 0
1, 3537, Note_off_c, 1, 68, 0
1, 3545, Note_on_c, 1, 70, 127
1, 3545, Note_on_c, 1, 64, 127
1, 3597, Note_off_c, 1, 70, 0
1, 3597, Note_off_c, 1, 64, 0
1, 3605, Note_on_c, 1, 71, 127
1, 3605, Note_on_c, 1, 63, 127
1, 3657, Note_off_c, 1, 63, 0
1, 3665, Note_on_c, 1, 68, 127
1, 3717, Note_off_c, 1, 68, 0
1, 3725, Note_on_c, 1, 56, 127
1, 3777, Note_off_c, 1, 56, 0
1, 3785, Note_on_c, 1, 61, 127
1, 3837, Note_off_c, 1, 71, 0
1, 3845, Note_on_c, 1, 70, 127
1, 3897, Note_off_c, 1, 70, 0
1, 3905, Note_on_c, 1, 73, 127
1, 3957, Note_off_c, 1, 73, 0
1, 3965, Note_on_c, 1, 67, 127
1, 4017, Note_off_c, 1, 67, 0
1, 4025, Note_on_c, 1, 75, 127
1, 4070, Note_off_c, 1, 61, 0
1, 4077, Note_off_c, 1, 75, 0
1, 4085, Note_on_c, 1, 68, 127
1, 4085, Note_on_c, 1, 59, 127
1, 4137, Note_off_c, 1, 68, 0
1, 4137, Note_off_c, 1, 59, 0
1, 4145, Note_on_c, 1, 73, 127
1, 4145, Note_on_c, 1, 58, 127
1, 4197, Note_off_c, 1, 58, 0
1, 4205, Note_on_c, 1, 68, 127
1, 4257, Note_off_c, 1, 68, 0
1, 4265, Note_on_c, 1, 67, 127
1, 4317, Note_off_c, 1, 67, 0
1, 4325, Note_on_c, 1, 56, 127
1, 4377, Note_off_c, 1, 73, 0
1, 4377, Note_off_c, 1, 56, 0
1, 4385, Note_on_c, 1, 76, 127
1, 4437, Note_off_c, 1, 76, 0
1, 4445, Note_on_c, 1, 75, 127
1, 4445, Note_on_c, 1, 59, 127
1, 4497, Note_off_c, 1, 75, 0
1, 4497, Note_off_c, 1, 59, 0
1, 4565, Note_on_c, 1, 71, 127
1, 4565, Note_on_c, 1, 63, 127
1, 4617, Note_off_c, 1, 71, 0
1, 4617, Note_off_c, 1, 63, 0
1, 4625, Note_on_c, 1, 70, 127
1, 4625, Note_on_c, 1, 67, 127
1, 4625, Note_on_c, 1, 51, 127
1, 4677, Note_off_c, 1, 70, 0
1, 4677, Note_off_c, 1, 67, 0
1, 4677, Note_off_c, 1, 51, 0
1, 4685, Note_on_c, 1, 71, 127
1, 4685, Note_on_c, 1, 68, 127
1, 4685, Note_on_c, 1, 56, 127
1, 4737, Note_off_c, 1, 56, 0
1, 4745, Note_on_c, 1, 59, 127
1, 4790, Note_off_c, 1, 71, 0
1, 4790, Note_off_c, 1, 68, 0
1, 4797, Note_off_c, 1, 59, 0
1, 4805, Note_on_c, 1, 75, 127
1, 4805, Note_on_c, 1, 58, 127
1, 4857, Note_off_c, 1, 75, 0
1, 4857, Note_off_c, 1, 58, 0
1, 4865, Note_on_c, 1, 80, 127
1, 4865, Note_on_c, 1, 59, 127
1, 4917, Note_off_c, 1, 59, 0
1, 4925, Note_on_c, 1, 58, 127
1, 4977, Note_off_c, 1, 58, 0
1, 4985, Note_on_c, 1, 71, 127
1, 4985, Note_on_c, 1, 56, 127
1, 5037, Note_off_c, 1, 71, 0
1, 5037, Note_off_c, 1, 56, 0
1, 5045, Note_on_c, 1, 73, 127
1, 5097, Note_off_c, 1, 73, 0
1, 5105, Note_on_c, 1, 75, 127
1, 5150, Note_off_c, 1, 80, 0
1, 5157, Note_off_c, 1, 75, 0
1, 5165, Note_on_c, 1, 79, 127
1, 5165, Note_on_c, 1, 76, 127
1, 5165, Note_on_c, 1, 61, 127
1, 5217, Note_off_c, 1, 79, 0
1, 5217, Note_off_c, 1, 76, 0
1, 5217, Note_off_c, 1, 61, 0
1, 5225, Note_on_c, 1, 80, 127
1, 5225, Note_on_c, 1, 75, 127
1, 5225, Note_on_c, 1, 59, 127
1, 5277, Note_off_c, 1, 75, 0
1, 5277, Note_off_c, 1, 59, 0
1, 5285, Note_on_c, 1, 73, 127
1, 5285, Note_on_c, 1, 64, 127
1, 5330, Note_off_c, 1, 80, 0
1, 5337, Note_off_c, 1, 73, 0
1, 5337, Note_off_c, 1, 64, 0
1, 5345, Note_on_c, 1, 83, 127
1, 5345, Note_on_c, 1, 71, 127
1, 5345, Note_on_c, 1, 56, 127
1, 5397, Note_off_c, 1, 83, 0
1, 5397, Note_off_c, 1, 56, 0
1, 5405, Note_on_c, 1, 73, 127
1, 5405, Note_on_c, 1, 58, 127
1, 5457, Note_off_c, 1, 71, 0
1, 5457, Note_off_c, 1, 58, 0
1, 5465, Note_on_c, 1, 70, 127
1, 5465, Note_on_c, 1, 61, 127
1, 5510, Note_off_c, 1, 73, 0
1, 5517, Note_off_c, 1, 70, 0
1, 5517, Note_off_c, 1, 61, 0
1, 5525, Note_on_c, 1, 75, 127
1, 5525, Note_on_c, 1, 68, 127
1, 5525, Note_on_c, 1, 59, 127
1, 5577, Note_off_c, 1, 75, 0
1, 5577, Note_off_c, 1, 68, 0
1, 5577, Note_off_c, 1, 59, 0
1, 5585, Note_on_c, 1, 76, 127
1, 5585, Note_on_c, 1, 66, 127
1, 5585, Note_on_c, 1, 61, 127
1, 5637, Note_off_c, 1, 76, 0
1, 5637, Note_off_c, 1, 61, 0
1, 5645, Note_on_c, 1, 75, 127
1, 5645, Note_on_c, 1, 59, 127
1, 5697, Note_off_c, 1, 75, 0
1, 5697, Note_off_c, 1, 59, 0
1, 5705, Note_on_c, 1, 73, 127
1, 5705, Note_on_c, 1, 58, 127
1, 5757, Note_off_c, 1, 73, 0
1, 5757, Note_off_c, 1, 58, 0
1, 5817, Note_off_c, 1, 66, 0
1, 5885, Note_on_c, 1, 71, 127
1, 5885, Note_on_c, 1, 56, 127
1, 5937, Note_off_c, 1, 56, 0
1, 5945, Note_on_c, 1, 53, 127
1, 5997, Note_off_c, 1, 71, 0
1, 6005, Note_on_c, 1, 68, 127
1, 6050, Note_off_c, 1, 53, 0
1, 6057, Note_off_c, 1, 68, 0
1, 6065, Note_on_c, 1, 70, 127
1, 6065, Note_on_c, 1, 55, 127
1, 6117, Note_off_c, 1, 55, 0
1, 6177, Note_off_c, 1, 70, 0
1, 6185, Note_on_c, 1, 63, 127
1, 6237, Note_off_c, 1, 63, 0
1, 6245, Note_on_c, 1, 52, 127
1, 6297, Note_off_c, 1, 52, 0
1, 6305, Note_on_c, 1, 49, 127
1, 6365, Note_on_c, 1, 65, 127
1, 6410, Note_off_c, 1, 49, 0
1, 6417, Note_off_c, 1, 65, 0
1, 6425, Note_on_c, 1, 67, 127
1, 6425, Note_on_c, 1, 51, 127
1, 6477, Note_off_c, 1, 67, 0
1, 6477, Note_off_c, 1, 51, 0
1, 6485, Note_on_c, 1, 68, 127
1, 6485, Note_on_c, 1, 52, 127
1, 6537, Note_off_c, 1, 68, 0
1, 6545, Note_on_c, 1, 70, 127
1, 6590, Note_off_c, 1, 52, 0
1, 6597, Note_off_c, 1, 70, 0
1, 6605, Note_on_c, 1, 71, 127
1, 6605, Note_on_c, 1, 53, 127
1, 6657, Note_off_c, 1, 71, 0
1, 6657, Note_off_c, 1, 53, 0
1, 6665, Note_on_c, 1, 70, 127
1, 6665, Note_on_c, 1, 54, 127
1, 6717, Note_off_c, 1, 70, 0
1, 6725, Note_on_c, 1, 75, 127
1, 6777, Note_off_c, 1, 75, 0
1, 6785, Note_on_c, 1, 63, 127
1, 6837, Note_off_c, 1, 63, 0
1, 6845, Note_on_c, 1, 68, 127
1, 6897, Note_off_c, 1, 68, 0
1, 6905, Note_on_c, 1, 71, 127
1, 6957, Note_off_c, 1, 71, 0
1, 7010, Note_off_c, 1, 54, 0
1, 7025, Note_on_c, 1, 75, 127
1, 7025, Note_on_c, 1, 71, 127
1, 7025, Note_on_c, 1, 53, 127
1, 7077, Note_off_c, 1, 71, 0
1, 7085, Note_on_c, 1, 70, 127
1, 7130, Note_off_c, 1, 75, 0
1, 7137, Note_off_c, 1, 70, 0
1, 7145, Note_on_c, 1, 74, 127
1, 7145, Note_on_c, 1, 68, 127
1, 7190, Note_off_c, 1, 53, 0
1, 7197, Note_off_c, 1, 74, 0
1, 7197, Note_off_c, 1, 68, 0
1, 7205, Note_on_c, 1, 75, 127
1, 7205, Note_on_c, 1, 70, 127
1, 7205, Note_on_c, 1, 54, 127
1, 7257, Note_off_c, 1, 70, 0
1, 7265, Note_on_c, 1, 71, 127
1, 7310, Note_off_c, 1, 75, 0
1, 7310, Note_off_c, 1, 54, 0
1, 7317, Note_off_c, 1, 71, 0
1, 7325, Note_on_c, 1, 73, 127
1, 7325, Note_on_c, 1, 55, 127
1, 7377, Note_off_c, 1, 73, 0
1, 7377, Note_off_c, 1, 55, 0
1, 7385, Note_on_c, 1, 71, 127
1, 7385, Note_on_c, 1, 56, 127
1, 7437, Note_off_c, 1, 71, 0
1, 7445, Note_on_c, 1, 76, 127
1, 7497, Note_off_c, 1, 76, 0
1, 7505, Note_on_c, 1, 68, 127
1, 7557, Note_off_c, 1, 68, 0
1, 7565, Note_on_c, 1, 70, 127
1, 7617, Note_off_c, 1, 70, 0
1, 7625, Note_on_c, 1, 73, 127
1, 7677, Note_off_c, 1, 73, 0
1, 7730, Note_off_c, 1, 56, 0
1, 7745, Note_on_c, 1, 75, 127
1, 7745, Note_on_c, 1, 73, 127
1, 7745, Note_on_c, 1, 55, 127
1, 7797, Note_off_c, 1, 73, 0
1, 7805, Note_on_c, 1, 71, 127
1, 7850, Note_off_c, 1, 75, 0
1, 7857, Note_off_c, 1, 71, 0
1, 7865, Note_on_c, 1, 70, 127
1, 7910, Note_off_c, 1, 55, 0
1, 7917, Note_off_c, 1, 70, 0
1, 7925, Note_on_c, 1, 71, 127
1, 7925, Note_on_c, 1, 56, 127
1, 7985, Note_on_c, 1, 59, 127
1, 8030, Note_off_c, 1, 71, 0
1, 8037, Note_off_c, 1, 59, 0
1, 8045, Note_on_c, 1, 68, 127
1, 8045, Note_on_c, 1, 64, 127
1, 8090, Note_off_c, 1, 56, 0
1, 8097, Note_off_c, 1, 68, 0
1, 8105, Note_on_c, 1, 70, 127
1, 8105, Note_on_c, 1, 54, 127
1, 8157, Note_off_c, 1, 64, 0
1, 8165, Note_on_c, 1, 61, 127
1, 8210, Note_off_c, 1, 70, 0
1, 8217, Note_off_c, 1, 61, 0
1, 8225, Note_on_c, 1, 72, 127
1, 8225, Note_on_c, 1, 63, 127
1, 8270, Note_off_c, 1, 54, 0
1, 8277, Note_off_c, 1, 72, 0
1, 8277, Note_off_c, 1, 63, 0
1, 8285, Note_on_c, 1, 73, 127
1, 8285, Note_on_c, 1, 56, 127
1, 8285, Note_on_c, 1, 52, 127
1, 8337, Note_off_c, 1, 73, 0
1, 8345, Note_on_c, 1, 68, 127
1, 8397, Note_off_c, 1, 68, 0
1, 8450, Note_off_c, 1, 56, 0
1, 8450, Note_off_c, 1, 52, 0
1, 8465, Note_on_c, 1, 51, 127
1, 8525, Note_on_c, 1, 70, 127
1, 8577, Note_off_c, 1, 70, 0
1, 8585, Note_on_c, 1, 72, 127
1, 8630, Note_off_c, 1, 51, 0
1, 8637, Note_off_c, 1, 72, 0
1, 8645, Note_on_c, 1, 76, 127
1, 8645, Note_on_c, 1, 49, 127
1, 8697, Note_off_c, 1, 49, 0
1, 8705, Note_on_c, 1, 56, 127
1, 8757, Note_off_c, 1, 56, 0
1, 8765, Note_on_c, 1, 69, 127
1, 8765, Note_on_c, 1, 61, 127
1, 8810, Note_off_c, 1, 76, 0
1, 8817, Note_off_c, 1, 69, 0
1, 8825, Note_on_c, 1, 75, 127
1, 8825, Note_on_c, 1, 66, 127
1, 8877, Note_off_c, 1, 61, 0
1, 8885, Note_on_c, 1, 58, 127
1, 8930, Note_off_c, 1, 66, 0
1, 8937, Note_off_c, 1, 58, 0
1, 8945, Note_on_c, 1, 68, 127
1, 8945, Note_on_c, 1, 60, 127
1, 8997, Note_off_c, 1, 68, 0
1, 8997, Note_off_c, 1, 60, 0
1, 9005, Note_on_c, 1, 64, 127
1, 9057, Note_off_c, 1, 75, 0
1, 9065, Note_on_c, 1, 73, 127
1, 9117, Note_off_c, 1, 73, 0
1, 9125, Note_on_c, 1, 81, 127
1, 9170, Note_off_c, 1, 64, 0
1, 9185, Note_on_c, 1, 63, 127
1, 9185, Note_on_c, 1, 59, 127
1, 9237, Note_off_c, 1, 81, 0
1, 9245, Note_on_c, 1, 79, 127
1, 9297, Note_off_c, 1, 79, 0
1, 9305, Note_on_c, 1, 80, 127
1, 9350, Note_off_c, 1, 63, 0
1, 9357, Note_off_c, 1, 80, 0
1, 9365, Note_on_c, 1, 65, 127
1, 9417, Note_off_c, 1, 59, 0
1, 9417, Note_off_c, 1, 65, 0
1, 9425, Note_on_c, 1, 67, 127
1, 9477, Note_off_c, 1, 67, 0
1, 9545, Note_on_c, 1, 70, 127
1, 9545, Note_on_c, 1, 55, 127
1, 9597, Note_off_c, 1, 55, 0
1, 9665, Note_on_c, 1, 51, 127
1, 9717, Note_off_c, 1, 51, 0
1, 9725, Note_on_c, 1, 71, 127
1, 9777, Note_off_c, 1, 70, 0
1, 9845, Note_on_c, 1, 44, 127
1, 9897, Note_off_c, 1, 44, 0
1, 10070, Note_off_c, 1, 71, 0
1, 10085, Note_on_c, 1, 62, 127
1, 10137, Note_off_c, 1, 62, 0
1, 10145, Note_on_c, 1, 54, 127
1, 10197, Note_off_c, 1, 54, 0
1, 10205, Note_on_c, 1, 53, 127
1, 10257, Note_off_c, 1, 53, 0
1, 10385, Note_on_c, 1, 74, 127
1, 10385, Note_on_c, 1, 46, 127
1, 10437, Note_off_c, 1, 74, 0
1, 10437, Note_off_c, 1, 46, 0
1, 10469, Note_on_c, 1, 47, 127
1, 10484, Note_off_c, 1, 47, 0
1, 10505, Note_on_c, 1, 77, 127
1, 10557, Note_off_c, 1, 77, 0
1, 10565, Note_on_c, 1, 78, 127
1, 10677, Note_off_c, 1, 78, 0
1, 11525, Note_on_c, 1, 75, 127
1, 11525, Note_on_c, 1, 66, 127
1, 11525, Note_on_c, 1, 51, 127
1, 11577, Note_off_c, 1, 66, 0
1, 11577, Note_off_c, 1, 51, 0
1, 11585, Note_on_c, 1, 65, 127
1, 11585, Note_on_c, 1, 53, 127
1, 11630, Note_off_c, 1, 75, 0
1, 11637, Note_off_c, 1, 65, 0
1, 11637, Note_off_c, 1, 53, 0
1, 11645, Note_on_c, 1, 63, 127
1, 11645, Note_on_c, 1, 54, 127
1, 11697, Note_off_c, 1, 54, 0
1, 11705, Note_on_c, 1, 68, 127
1, 11705, Note_on_c, 1, 53, 127
1, 11757, Note_off_c, 1, 63, 0
1, 11757, Note_off_c, 1, 53, 0
1, 11765, Note_on_c, 1, 62, 127
1, 11765, Note_on_c, 1, 58, 127
1, 11810, Note_off_c, 1, 68, 0
1, 11817, Note_off_c, 1, 62, 0
1, 11817, Note_off_c, 1, 58, 0
1, 11825, Note_on_c, 1, 65, 127
1, 11825, Note_on_c, 1, 46, 127
1, 11877, Note_off_c, 1, 46, 0
1, 11885, Note_on_c, 1, 66, 127
1, 11885, Note_on_c, 1, 51, 127
1, 11937, Note_off_c, 1, 65, 0
1, 11937, Note_off_c, 1, 51, 0
1, 11945, Note_on_c, 1, 63, 127
1, 11945, Note_on_c, 1, 54, 127
1, 11990, Note_off_c, 1, 66, 0
1, 11997, Note_off_c, 1, 63, 0
1, 11997, Note_off_c, 1, 54, 0
1, 12005, Note_on_c, 1, 62, 127
1, 12005, Note_on_c, 1, 53, 127
1, 12057, Note_off_c, 1, 62, 0
1, 12057, Note_off_c, 1, 53, 0
1, 12065, Note_on_c, 1, 63, 127
1, 12065, Note_on_c, 1, 54, 127
1, 12117, Note_off_c, 1, 54, 0
1, 12125, Note_on_c, 1, 53, 127
1, 12170, Note_off_c, 1, 63, 0
1, 12177, Note_off_c, 1, 53, 0
1, 12185, Note_on_c, 1, 71, 127
1, 12185, Note_on_c, 1, 51, 127
1, 12237, Note_off_c, 1, 71, 0
1, 12237, Note_off_c, 1, 51, 0
1, 12245, Note_on_c, 1, 61, 127
1, 12245, Note_on_c, 1, 53, 127
1, 12297, Note_off_c, 1, 53, 0
1, 12305, Note_on_c, 1, 54, 127
1, 12350, Note_off_c, 1, 61, 0
1, 12357, Note_off_c, 1, 54, 0
1, 12365, Note_on_c, 1, 71, 127
1, 12365, Note_on_c, 1, 56, 127
1, 12417, Note_off_c, 1, 71, 0
1, 12417, Note_off_c, 1, 56, 0
1, 12425, Note_on_c, 1, 70, 127
1, 12425, Note_on_c, 1, 54, 127
1, 12477, Note_off_c, 1, 70, 0
1, 12477, Note_off_c, 1, 54, 0
1, 12485, Note_on_c, 1, 68, 127
1, 12485, Note_on_c, 1, 59, 127
1, 12537, Note_off_c, 1, 68, 0
1, 12537, Note_off_c, 1, 59, 0
1, 12545, Note_on_c, 1, 66, 127
1, 12545, Note_on_c, 1, 51, 127
1, 12597, Note_off_c, 1, 66, 0
1, 12597, Note_off_c, 1, 51, 0
1, 12605, Note_on_c, 1, 68, 127
1, 12605, Note_on_c, 1, 53, 127
1, 12657, Note_off_c, 1, 68, 0
1, 12657, Note_off_c, 1, 53, 0
1, 12665, Note_on_c, 1, 59, 127
1, 12665, Note_on_c, 1, 56, 127
1, 12717, Note_off_c, 1, 59, 0
1, 12717, Note_off_c, 1, 56, 0
1, 12725, Note_on_c, 1, 58, 127
1, 12725, Note_on_c, 1, 54, 127
1, 12777, Note_off_c, 1, 58, 0
1, 12777, Note_off_c, 1, 54, 0
1, 12785, Note_on_c, 1, 59, 127
1, 12785, Note_on_c, 1, 56, 127
1, 12837, Note_off_c, 1, 59, 0
1, 12837, Note_off_c, 1, 56, 0
1, 12845, Note_on_c, 1, 68, 127
1, 12845, Note_on_c, 1, 54, 127
1, 12897, Note_off_c, 1, 68, 0
1, 12897, Note_off_c, 1, 54, 0
1, 12905, Note_on_c, 1, 59, 127
1, 12905, Note_on_c, 1, 53, 127
1, 12957, Note_off_c, 1, 59, 0
1, 12957, Note_off_c, 1, 53, 0
1, 12965, Note_on_c, 1, 58, 127
1, 12965, Note_on_c, 1, 54, 127
1, 13017, Note_off_c, 1, 54, 0
1, 13025, Note_on_c, 1, 52, 127
1, 13070, Note_off_c, 1, 58, 0
1, 13077, Note_off_c, 1, 52, 0
1, 13085, Note_on_c, 1, 60, 127
1, 13085, Note_on_c, 1, 51, 127
1, 13137, Note_off_c, 1, 60, 0
1, 13137, Note_off_c, 1, 51, 0
1, 13145, Note_on_c, 1, 61, 127
1, 13145, Note_on_c, 1, 52, 127
1, 13197, Note_off_c, 1, 52, 0
1, 13205, Note_on_c, 1, 57, 127
1, 13257, Note_off_c, 1, 57, 0
1, 13265, Note_on_c, 1, 64, 127
1, 13265, Note_on_c, 1, 49, 127
1, 13317, Note_off_c, 1, 64, 0
1, 13317, Note_off_c, 1, 49, 0
1, 13325, Note_on_c, 1, 66, 127
1, 13325, Note_on_c, 1, 51, 127
1, 13377, Note_off_c, 1, 66, 0
1, 13385, Note_on_c, 1, 69, 127
1, 13430, Note_off_c, 1, 51, 0
1, 13437, Note_off_c, 1, 69, 0
1, 13445, Note_on_c, 1, 68, 127
1, 13490, Note_off_c, 1, 61, 0
1, 13497, Note_off_c, 1, 68, 0
1, 13505, Note_on_c, 1, 69, 127
1, 13505, Note_on_c, 1, 60, 127
1, 13505, Note_on_c, 1, 44, 127
1, 13557, Note_off_c, 1, 69, 0
1, 13565, Note_on_c, 1, 68, 127
1, 13610, Note_off_c, 1, 44, 0
1, 13617, Note_off_c, 1, 68, 0
1, 13625, Note_on_c, 1, 66, 127
1, 13670, Note_off_c, 1, 60, 0
1, 13677, Note_off_c, 1, 66, 0
1, 13685, Note_on_c, 1, 64, 127
1, 13685, Note_on_c, 1, 61, 127
1, 13685, Note_on_c, 1, 49, 127
1, 13737, Note_off_c, 1, 64, 0
1, 13737, Note_off_c, 1, 49, 0
1, 13745, Note_on_c, 1, 68, 127
1, 13745, Note_on_c, 1, 52, 127
1, 13771, Note_off_c, 1, 68, 0
1, 13775, Note_on_c, 1, 66, 127
1, 13790, Note_off_c, 1, 61, 0
1, 13797, Note_off_c, 1, 52, 0
1, 13801, Note_off_c, 1, 66, 0
1, 13805, Note_on_c, 1, 68, 127
1, 13805, Note_on_c, 1, 49, 127
1, 13831, Note_off_c, 1, 68, 0
1, 13835, Note_on_c, 1, 70, 127
1, 13857, Note_off_c, 1, 49, 0
1, 13861, Note_off_c, 1, 70, 0
1, 13865, Note_on_c, 1, 71, 127
1, 13865, Note_on_c, 1, 56, 127
1, 13925, Note_on_c, 1, 63, 127
1, 13970, Note_off_c, 1, 56, 0
1, 13977, Note_off_c, 1, 63, 0
1, 13985, Note_on_c, 1, 68, 127
1, 13985, Note_on_c, 1, 54, 127
1, 14037, Note_off_c, 1, 68, 0
1, 14037, Note_off_c, 1, 54, 0
1, 14045, Note_on_c, 1, 61, 127
1, 14045, Note_on_c, 1, 52, 127
1, 14097, Note_off_c, 1, 61, 0
1, 14097, Note_off_c, 1, 52, 0
1, 14105, Note_on_c, 1, 64, 127
1, 14157, Note_off_c, 1, 64, 0
1, 14210, Note_off_c, 1, 71, 0
1, 14225, Note_on_c, 1, 70, 127
1, 14225, Note_on_c, 1, 64, 127
1, 14225, Note_on_c, 1, 49, 127
1, 14277, Note_off_c, 1, 64, 0
1, 14285, Note_on_c, 1, 63, 127
1, 14330, Note_off_c, 1, 49, 0
1, 14337, Note_off_c, 1, 63, 0
1, 14345, Note_on_c, 1, 61, 127
1, 14345, Note_on_c, 1, 54, 127
1, 14390, Note_off_c, 1, 70, 0
1, 14397, Note_off_c, 1, 61, 0
1, 14397, Note_off_c, 1, 54, 0
1, 14405, Note_on_c, 1, 71, 127
1, 14405, Note_on_c, 1, 63, 127
1, 14405, Note_on_c, 1, 47, 127
1, 14457, Note_off_c, 1, 47, 0
1, 14465, Note_on_c, 1, 54, 127
1, 14510, Note_off_c, 1, 63, 0
1, 14517, Note_off_c, 1, 54, 0
1, 14525, Note_on_c, 1, 68, 127
1, 14525, Note_on_c, 1, 59, 127
1, 14570, Note_off_c, 1, 71, 0
1, 14577, Note_off_c, 1, 68, 0
1, 14585, Note_on_c, 1, 73, 127
1, 14585, Note_on_c, 1, 65, 127
1, 14637, Note_off_c, 1, 59, 0
1, 14645, Note_on_c, 1, 56, 127
1, 14690, Note_off_c, 1, 65, 0
1, 14697, Note_off_c, 1, 56, 0
1, 14705, Note_on_c, 1, 67, 127
1, 14705, Note_on_c, 1, 58, 127
1, 14750, Note_off_c, 1, 73, 0
1, 14757, Note_off_c, 1, 67, 0
1, 14765, Note_on_c, 1, 75, 127
1, 14817, Note_off_c, 1, 58, 0
1, 14825, Note_on_c, 1, 51, 127
1, 14877, Note_off_c, 1, 51, 0
1, 14930, Note_off_c, 1, 75, 0
1, 14945, Note_on_c, 1, 76, 127
1, 14945, Note_on_c, 1, 70, 127
1, 14997, Note_off_c, 1, 76, 0
1, 15005, Note_on_c, 1, 53, 127
1, 15057, Note_off_c, 1, 53, 0
1, 15065, Note_on_c, 1, 55, 127
1, 15110, Note_off_c, 1, 70, 0
1, 15117, Note_off_c, 1, 55, 0
1, 15125, Note_on_c, 1, 71, 127
1, 15125, Note_on_c, 1, 63, 127
1, 15125, Note_on_c, 1, 56, 127
1, 15177, Note_off_c, 1, 71, 0
1, 15185, Note_on_c, 1, 75, 127
1, 15230, Note_off_c, 1, 63, 0
1, 15230, Note_off_c, 1, 56, 0
1, 15237, Note_off_c, 1, 75, 0
1, 15245, Note_on_c, 1, 78, 127
1, 15245, Note_on_c, 1, 62, 127
1, 15245, Note_on_c, 1, 58, 127
1, 15297, Note_off_c, 1, 62, 0
1, 15297, Note_off_c, 1, 58, 0
1, 15305, Note_on_c, 1, 63, 127
1, 15305, Note_on_c, 1, 59, 127
1, 15357, Note_off_c, 1, 78, 0
1, 15365, Note_on_c, 1, 75, 127
1, 15410, Note_off_c, 1, 63, 0
1, 15410, Note_off_c, 1, 59, 0
1, 15417, Note_off_c, 1, 75, 0
1, 15425, Note_on_c, 1, 77, 127
1, 15425, Note_on_c, 1, 68, 127
1, 15425, Note_on_c, 1, 50, 127
1, 15477, Note_off_c, 1, 68, 0
1, 15477, Note_off_c, 1, 50, 0
1, 15485, Note_on_c, 1, 66, 127
1, 15485, Note_on_c, 1, 51, 127
1, 15537, Note_off_c, 1, 77, 0
1, 15545, Note_on_c, 1, 70, 127
1, 15590, Note_off_c, 1, 51, 0
1, 15597, Note_off_c, 1, 70, 0
1, 15605, Note_on_c, 1, 75, 127
1, 15605, Note_on_c, 1, 47, 127
1, 15650, Note_off_c, 1, 66, 0
1, 15657, Note_off_c, 1, 47, 0
1, 15665, Note_on_c, 1, 65, 127
1, 15665, Note_on_c, 1, 44, 127
1, 15717, Note_off_c, 1, 75, 0
1, 15725, Note_on_c, 1, 72, 127
1, 15770, Note_off_c, 1, 44, 0
1, 15777, Note_off_c, 1, 72, 0
1, 15785, Note_on_c, 1, 74, 127
1, 15785, Note_on_c, 1, 46, 127
1, 15830, Note_off_c, 1, 65, 0
1, 15837, Note_off_c, 1, 74, 0
1, 15837, Note_off_c, 1, 46, 0
1, 15845, Note_on_c, 1, 75, 127
1, 15845, Note_on_c, 1, 63, 127
1, 15845, Note_on_c, 1, 51, 127
1, 15897, Note_off_c, 1, 75, 0
1, 15897, Note_off_c, 1, 63, 0
1, 15905, Note_on_c, 1, 77, 127
1, 15905, Note_on_c, 1, 62, 127
1, 15957, Note_off_c, 1, 77, 0
1, 15957, Note_off_c, 1, 62, 0
1, 15965, Note_on_c, 1, 78, 127
1, 15965, Note_on_c, 1, 60, 127
1, 16010, Note_off_c, 1, 51, 0
1, 16017, Note_off_c, 1, 78, 0
1, 16017, Note_off_c, 1, 60, 0
1, 16025, Note_on_c, 1, 77, 127
1, 16025, Note_on_c, 1, 62, 127
1, 16077, Note_off_c, 1, 77, 0
1, 16077, Note_off_c, 1, 62, 0
1, 16085, Note_on_c, 1, 82, 127
1, 16085, Note_on_c, 1, 66, 127
1, 16137, Note_off_c, 1, 82, 0
1, 16145, Note_on_c, 1, 70, 127
1, 16145, Note_on_c, 1, 54, 127
1, 16197, Note_off_c, 1, 70, 0
1, 16197, Note_off_c, 1, 54, 0
1, 16205, Note_on_c, 1, 75, 127
1, 16205, Note_on_c, 1, 59, 127
1, 16257, Note_off_c, 1, 66, 0
1, 16257, Note_off_c, 1, 75, 0
1, 16265, Note_on_c, 1, 78, 127
1, 16265, Note_on_c, 1, 63, 127
1, 16317, Note_off_c, 1, 78, 0
1, 16317, Note_off_c, 1, 63, 0
1, 16325, Note_on_c, 1, 77, 127
1, 16325, Note_on_c, 1, 62, 127
1, 16370, Note_off_c, 1, 59, 0
1, 16377, Note_off_c, 1, 77, 0
1, 16377, Note_off_c, 1, 62, 0
1, 16385, Note_on_c, 1, 78, 127
1, 16385, Note_on_c, 1, 63, 127
1, 16437, Note_off_c, 1, 78, 0
1, 16437, Note_off_c, 1, 63, 0
1, 16445, Note_on_c, 1, 77, 127
1, 16445, Note_on_c, 1, 68, 127
1, 16497, Note_off_c, 1, 77, 0
1, 16505, Note_on_c, 1, 75, 127
1, 16505, Note_on_c, 1, 60, 127
1, 16557, Note_off_c, 1, 75, 0
1, 16557, Note_off_c, 1, 60, 0
1, 16565, Note_on_c, 1, 61, 127
1, 16625, Note_on_c, 1, 78, 127
1, 16670, Note_off_c, 1, 68, 0
1, 16670, Note_off_c, 1, 61, 0
1, 16677, Note_off_c, 1, 78, 0
1, 16685, Note_on_c, 1, 80, 127
1, 16685, Note_on_c, 1, 65, 127
1, 16685, Note_on_c, 1, 59, 127
1, 16737, Note_off_c, 1, 80, 0
1, 16737, Note_off_c, 1, 65, 0
1, 16737, Note_off_c, 1, 59, 0
1, 16745, Note_on_c, 1, 78, 127
1, 16745, Note_on_c, 1, 61, 127
1, 16745, Note_on_c, 1, 58, 127
1, 16797, Note_off_c, 1, 78, 0
1, 16797, Note_off_c, 1, 61, 0
1, 16805, Note_on_c, 1, 83, 127
1, 16805, Note_on_c, 1, 63, 127
1, 16850, Note_off_c, 1, 58, 0
1, 16857, Note_off_c, 1, 83, 0
1, 16857, Note_off_c, 1, 63, 0
1, 16865, Note_on_c, 1, 75, 127
1, 16865, Note_on_c, 1, 66, 127
1, 16865, Note_on_c, 1, 57, 127
1, 16917, Note_off_c, 1, 75, 0
1, 16917, Note_off_c, 1, 66, 0
1, 16917, Note_off_c, 1, 57, 0
1, 16925, Note_on_c, 1, 77, 127
1, 16925, Note_on_c, 1, 71, 127
1, 16925, Note_on_c, 1, 56, 127
1, 16977, Note_off_c, 1, 77, 0
1, 16977, Note_off_c, 1, 56, 0
1, 16985, Note_on_c, 1, 80, 127
1, 16985, Note_on_c, 1, 59, 127
1, 17037, Note_off_c, 1, 80, 0
1, 17037, Note_off_c, 1, 59, 0
1, 17045, Note_on_c, 1, 78, 127
1, 17045, Note_on_c, 1, 51, 127
1, 17090, Note_off_c, 1, 71, 0
1, 17097, Note_off_c, 1, 78, 0
1, 17097, Note_off_c, 1, 51, 0
1, 17105, Note_on_c, 1, 80, 127
1, 17105, Note_on_c, 1, 70, 127
1, 17105, Note_on_c, 1, 50, 127
1, 17157, Note_off_c, 1, 80, 0
1, 17157, Note_off_c, 1, 50, 0
1, 17165, Note_on_c, 1, 78, 127
1, 17165, Note_on_c, 1, 46, 127
1, 17217, Note_off_c, 1, 78, 0
1, 17217, Note_off_c, 1, 46, 0
1, 17225, Note_on_c, 1, 77, 127
1, 17277, Note_off_c, 1, 77, 0
1, 17285, Note_on_c, 1, 51, 127
1, 17337, Note_off_c, 1, 70, 0
1, 17345, Note_on_c, 1, 73, 127
1, 17390, Note_off_c, 1, 51, 0
1, 17405, Note_on_c, 1, 79, 127
1, 17457, Note_off_c, 1, 79, 0
1, 17465, Note_on_c, 1, 44, 127
1, 17517, Note_off_c, 1, 73, 0
1, 17570, Note_off_c, 1, 44, 0
1, 17585, Note_on_c, 1, 78, 127
1, 17585, Note_on_c, 1, 72, 127
1, 17637, Note_off_c, 1, 78, 0
1, 17637, Note_off_c, 1, 72, 0
1, 17645, Note_on_c, 1, 76, 127
1, 17645, Note_on_c, 1, 73, 127
1, 17645, Note_on_c, 1, 49, 127
1, 17697, Note_off_c, 1, 73, 0
1, 17705, Note_on_c, 1, 71, 127
1, 17750, Note_off_c, 1, 76, 0
1, 17750, Note_off_c, 1, 49, 0
1, 17765, Note_on_c, 1, 77, 127
1, 17817, Note_off_c, 1, 77, 0
1, 17825, Note_on_c, 1, 78, 127
1, 17825, Note_on_c, 1, 42, 127
1, 17877, Note_off_c, 1, 71, 0
1, 17885, Note_on_c, 1, 68, 127
1, 17930, Note_off_c, 1, 78, 0
1, 17930, Note_off_c, 1, 42, 0
1, 17937, Note_off_c, 1, 68, 0
1, 17945, Note_on_c, 1, 76, 127
1, 17945, Note_on_c, 1, 70, 127
1, 17997, Note_off_c, 1, 76, 0
1, 17997, Note_off_c, 1, 70, 0
1, 18005, Note_on_c, 1, 75, 127
1, 18005, Note_on_c, 1, 71, 127
1, 18005, Note_on_c, 1, 47, 127
1, 18057, Note_off_c, 1, 47, 0
1, 18065, Note_on_c, 1, 51, 127
1, 18117, Note_off_c, 1, 51, 0
1, 18125, Note_on_c, 1, 56, 127
1, 18170, Note_off_c, 1, 75, 0
1, 18170, Note_off_c, 1, 71, 0
1, 18185, Note_on_c, 1, 73, 127
1, 18185, Note_on_c, 1, 70, 127
1, 18237, Note_off_c, 1, 56, 0
1, 18245, Note_on_c, 1, 55, 127
1, 18297, Note_off_c, 1, 55, 0
1, 18305, Note_on_c, 1, 58, 127
1, 18357, Note_off_c, 1, 58, 0
1, 18417, Note_off_c, 1, 70, 0
1, 18425, Note_on_c, 1, 63, 127
1, 18470, Note_off_c, 1, 73, 0
1, 18477, Note_off_c, 1, 63, 0
1, 18485, Note_on_c, 1, 71, 127
1, 18485, Note_on_c, 1, 68, 127
1, 18537, Note_off_c, 1, 68, 0
1, 18545, Note_on_c, 1, 64, 127
1, 18545, Note_on_c, 1, 49, 127
1, 18597, Note_off_c, 1, 71, 0
1, 18605, Note_on_c, 1, 70, 127
1, 18650, Note_off_c, 1, 49, 0
1, 18657, Note_off_c, 1, 70, 0
1, 18665, Note_on_c, 1, 73, 127
1, 18717, Note_off_c, 1, 73, 0
1, 18725, Note_on_c, 1, 67, 127
1, 18725, Note_on_c, 1, 51, 127
1, 18777, Note_off_c, 1, 64, 0
1, 18785, Note_on_c, 1, 63, 127
1, 18830, Note_off_c, 1, 67, 0
1, 18830, Note_off_c, 1, 51, 0
1, 18837, Note_off_c, 1, 63, 0
1, 18845, Note_on_c, 1, 70, 127
1, 18845, Note_on_c, 1, 61, 127
1, 18845, Note_on_c, 1, 43, 127
1, 18897, Note_off_c, 1, 61, 0
1, 18897, Note_off_c, 1, 43, 0
1, 18905, Note_on_c, 1, 59, 127
1, 18905, Note_on_c, 1, 44, 127
1, 18957, Note_off_c, 1, 70, 0
1, 18965, Note_on_c, 1, 63, 127
1, 19010, Note_off_c, 1, 44, 0
1, 19017, Note_off_c, 1, 63, 0
1, 19025, Note_on_c, 1, 68, 127
1, 19025, Note_on_c, 1, 47, 127
1, 19070, Note_off_c, 1, 59, 0
1, 19077, Note_off_c, 1, 47, 0
1, 19085, Note_on_c, 1, 58, 127
1, 19085, Note_on_c, 1, 49, 127
1, 19137, Note_off_c, 1, 58, 0
1, 19137, Note_off_c, 1, 49, 0
1, 19145, Note_on_c, 1, 52, 127
1, 19190, Note_off_c, 1, 68, 0
1, 19197, Note_off_c, 1, 52, 0
1, 19205, Note_on_c, 1, 73, 127
1, 19205, Note_on_c, 1, 64, 127
1, 19205, Note_on_c, 1, 46, 127
1, 19257, Note_off_c, 1, 73, 0
1, 19257, Note_off_c, 1, 46, 0
1, 19265, Note_on_c, 1, 67, 127
1, 19265, Note_on_c, 1, 51, 127
1, 19317, Note_off_c, 1, 64, 0
1, 19325, Note_on_c, 1, 63, 127
1, 19370, Note_off_c, 1, 51, 0
1, 19377, Note_off_c, 1, 63, 0
1, 19385, Note_on_c, 1, 61, 127
1, 19385, Note_on_c, 1, 39, 127
1, 19430, Note_off_c, 1, 67, 0
1, 19437, Note_off_c, 1, 61, 0
1, 19437, Note_off_c, 1, 39, 0
1, 19445, Note_on_c, 1, 68, 127
1, 19445, Note_on_c, 1, 59, 127
1, 19445, Note_on_c, 1, 44, 127
1, 19497, Note_off_c, 1, 59, 0
1, 19497, Note_off_c, 1, 44, 0
1, 19505, Note_on_c, 1, 58, 127
1, 19505, Note_on_c, 1, 46, 127
1, 19550, Note_off_c, 1, 68, 0
1, 19557, Note_off_c, 1, 58, 0
1, 19557, Note_off_c, 1, 46, 0
1, 19565, Note_on_c, 1, 63, 127
1, 19565, Note_on_c, 1, 56, 127
1, 19565, Note_on_c, 1, 47, 127
1, 19617, Note_off_c, 1, 63, 0
1, 19617, Note_off_c, 1, 47, 0
1, 19625, Note_on_c, 1, 61, 127
1, 19625, Note_on_c, 1, 46, 127
1, 19677, Note_off_c, 1, 61, 0
1, 19677, Note_off_c, 1, 46, 0
1, 19685, Note_on_c, 1, 59, 127
1, 19685, Note_on_c, 1, 51, 127
1, 19730, Note_off_c, 1, 56, 0
1, 19737, Note_off_c, 1, 59, 0
1, 19737, Note_off_c, 1, 51, 0
1, 19745, Note_on_c, 1, 58, 127
1, 19745, Note_on_c, 1, 55, 127
1, 19745, Note_on_c, 1, 39, 127
1, 19797, Note_off_c, 1, 58, 0
1, 19797, Note_off_c, 1, 55, 0
1, 19797, Note_off_c, 1, 39, 0
1, 19805, Note_on_c, 1, 59, 127
1, 19805, Note_on_c, 1, 56, 127
1, 19805, Note_on_c, 1, 44, 127
1, 19857, Note_off_c, 1, 44, 0
1, 19865, Note_on_c, 1, 47, 127
1, 19910, Note_off_c, 1, 59, 0
1, 19910, Note_off_c, 1, 56, 0
1, 19917, Note_off_c, 1, 47, 0
1, 19925, Note_on_c, 1, 63, 127
1, 19925, Note_on_c, 1, 46, 127
1, 19977, Note_off_c, 1, 63, 0
1, 19977, Note_off_c, 1, 46, 0
1, 19985, Note_on_c, 1, 68, 127
1, 19985, Note_on_c, 1, 47, 127
1, 20037, Note_off_c, 1, 47, 0
1, 20045, Note_on_c, 1, 46, 127
1, 20097, Note_off_c, 1, 46, 0
1, 20105, Note_on_c, 1, 71, 127
1, 20105, Note_on_c, 1, 44, 127
1, 20157, Note_off_c, 1, 71, 0
1, 20157, Note_off_c, 1, 44, 0
1, 20165, Note_on_c, 1, 73, 127
1, 20217, Note_off_c, 1, 73, 0
1, 20225, Note_on_c, 1, 75, 127
1, 20270, Note_off_c, 1, 68, 0
1, 20277, Note_off_c, 1, 75, 0
1, 20285, Note_on_c, 1, 76, 127
1, 20285, Note_on_c, 1, 67, 127
1, 20285, Note_on_c, 1, 49, 127
1, 20337, Note_off_c, 1, 76, 0
1, 20337, Note_off_c, 1, 67, 0
1, 20337, Note_off_c, 1, 49, 0
1, 20345, Note_on_c, 1, 75, 127
1, 20345, Note_on_c, 1, 68, 127
1, 20345, Note_on_c, 1, 47, 127
1, 20397, Note_off_c, 1, 75, 0
1, 20397, Note_off_c, 1, 47, 0
1, 20405, Note_on_c, 1, 73, 127
1, 20405, Note_on_c, 1, 52, 127
1, 20457, Note_off_c, 1, 73, 0
1, 20457, Note_off_c, 1, 52, 0
1, 20465, Note_on_c, 1, 71, 127
1, 20465, Note_on_c, 1, 44, 127
1, 20517, Note_off_c, 1, 71, 0
1, 20517, Note_off_c, 1, 44, 0
1, 20525, Note_on_c, 1, 46, 127
1, 20577, Note_off_c, 1, 46, 0
1, 20585, Note_on_c, 1, 70, 127
1, 20585, Note_on_c, 1, 49, 127
1, 20630, Note_off_c, 1, 68, 0
1, 20637, Note_off_c, 1, 49, 0
1, 20705, Note_on_c, 1, 67, 127
1, 20810, Note_off_c, 1, 70, 0
1, 20810, Note_off_c, 1, 67, 0
1, 20825, Note_on_c, 1, 75, 127
1, 20825, Note_on_c, 1, 46, 127
1, 20877, Note_off_c, 1, 75, 0
1, 20877, Note_off_c, 1, 46, 0
1, 20885, Note_on_c, 1, 75, 127
1, 20885, Note_on_c, 1, 47, 127
1, 20937, Note_off_c, 1, 47, 0
1, 20945, Note_on_c, 1, 51, 127
1, 20997, Note_off_c, 1, 51, 0
1, 21005, Note_on_c, 1, 70, 127
1, 21005, Note_on_c, 1, 43, 127
1, 21057, Note_off_c, 1, 70, 0
1, 21057, Note_off_c, 1, 43, 0
1, 21065, Note_on_c, 1, 71, 127
1, 21065, Note_on_c, 1, 44, 127
1, 21117, Note_off_c, 1, 44, 0
1, 21170, Note_off_c, 1, 71, 0
1, 21185, Note_on_c, 1, 67, 127
1, 21185, Note_on_c, 1, 39, 127
1, 21237, Note_off_c, 1, 67, 0
1, 21237, Note_off_c, 1, 39, 0
1, 21245, Note_on_c, 1, 68, 127
1, 21245, Note_on_c, 1, 42, 127
1, 21269, Note_on_c, 1, 40, 127
1, 21280, Note_off_c, 1, 42, 0
1, 21292, Note_off_c, 1, 40, 0
1, 21297, Note_off_c, 1, 68, 0
1, 21410, Note_off_c, 1, 75, 0
1, 21425, Note_on_c, 1, 74, 127
1, 21590, Note_off_c, 1, 74, 0
1, 21725, Note_on_c, 1, 75, 127
1, 21725, Note_on_c, 1, 51, 127
1, 21777, Note_off_c, 1, 75, 0
1, 21777, Note_off_c, 1, 51, 0
1, 21785, Note_on_c, 1, 74, 127
1, 21785, Note_on_c, 1, 53, 127
1, 21837, Note_off_c, 1, 53, 0
1, 21845, Note_on_c, 1, 56, 127
1, 21890, Note_off_c, 1, 74, 0
1, 21897, Note_off_c, 1, 56, 0
1, 21905, Note_on_c, 1, 73, 127
1, 21905, Note_on_c, 1, 55, 127
1, 21957, Note_off_c, 1, 73, 0
1, 21957, Note_off_c, 1, 55, 0
1, 21965, Note_on_c, 1, 72, 127
1, 21965, Note_on_c, 1, 56, 127
1, 22017, Note_off_c, 1, 56, 0
1, 22025, Note_on_c, 1, 51, 127
1, 22070, Note_off_c, 1, 72, 0
1, 22077, Note_off_c, 1, 51, 0
1, 22085, Note_on_c, 1, 71, 127
1, 22085, Note_on_c, 1, 56, 127
1, 22137, Note_off_c, 1, 71, 0
1, 22145, Note_on_c, 1, 70, 127
1, 22197, Note_off_c, 1, 56, 0
1, 22205, Note_on_c, 1, 54, 127
1, 22231, Note_off_c, 1, 54, 0
1, 22235, Note_on_c, 1, 53, 127
1, 22250, Note_off_c, 1, 70, 0
1, 22261, Note_off_c, 1, 53, 0
1, 22265, Note_on_c, 1, 72, 127
1, 22265, Note_on_c, 1, 54, 127
1, 22317, Note_off_c, 1, 72, 0
1, 22317, Note_off_c, 1, 54, 0
1, 22325, Note_on_c, 1, 73, 127
1, 22325, Note_on_c, 1, 53, 127
1, 22377, Note_off_c, 1, 53, 0
1, 22385, Note_on_c, 1, 58, 127
1, 22430, Note_off_c, 1, 73, 0
1, 22437, Note_off_c, 1, 58, 0
1, 22445, Note_on_c, 1, 74, 127
1, 22445, Note_on_c, 1, 56, 127
1, 22497, Note_off_c, 1, 74, 0
1, 22497, Note_off_c, 1, 56, 0
1, 22505, Note_on_c, 1, 75, 127
1, 22505, Note_on_c, 1, 54, 127
1, 22557, Note_off_c, 1, 54, 0
1, 22565, Note_on_c, 1, 59, 127
1, 22617, Note_off_c, 1, 59, 0
1, 22625, Note_on_c, 1, 58, 127
1, 22677, Note_off_c, 1, 58, 0
1, 22685, Note_on_c, 1, 56, 127
1, 22737, Note_off_c, 1, 56, 0
1, 22850, Note_off_c, 1, 75, 0
1, 22865, Note_on_c, 1, 75, 127
1, 22865, Note_on_c, 1, 53, 127
1, 22893, Note_on_c, 1, 74, 127
1, 22900, Note_off_c, 1, 75, 0
1, 22912, Note_off_c, 1, 74, 0
1, 22917, Note_off_c, 1, 53, 0
1, 22925, Note_on_c, 1, 58, 127
1, 22977, Note_off_c, 1, 58, 0
1, 22985, Note_on_c, 1, 56, 127
1, 23013, Note_on_c, 1, 72, 127
1, 23032, Note_off_c, 1, 72, 0
1, 23037, Note_off_c, 1, 56, 0
1, 23045, Note_on_c, 1, 75, 127
1, 23045, Note_on_c, 1, 55, 127
1, 23097, Note_off_c, 1, 55, 0
1, 23105, Note_on_c, 1, 56, 127
1, 23150, Note_off_c, 1, 75, 0
1, 23157, Note_off_c, 1, 56, 0
1, 23165, Note_on_c, 1, 73, 127
1, 23165, Note_on_c, 1, 58, 127
1, 23217, Note_off_c, 1, 73, 0
1, 23217, Note_off_c, 1, 58, 0
1, 23225, Note_on_c, 1, 71, 127
1, 23225, Note_on_c, 1, 51, 127
1, 23277, Note_off_c, 1, 51, 0
1, 23285, Note_on_c, 1, 56, 127
1, 23330, Note_off_c, 1, 71, 0
1, 23337, Note_off_c, 1, 56, 0
1, 23345, Note_on_c, 1, 70, 127
1, 23345, Note_on_c, 1, 54, 127
1, 23397, Note_off_c, 1, 70, 0
1, 23397, Note_off_c, 1, 54, 0
1, 23405, Note_on_c, 1, 68, 127
1, 23405, Note_on_c, 1, 52, 127
1, 23457, Note_off_c, 1, 52, 0
1, 23465, Note_on_c, 1, 54, 127
1, 23510, Note_off_c, 1, 68, 0
1, 23517, Note_off_c, 1, 54, 0
1, 23525, Note_on_c, 1, 73, 127
1, 23525, Note_on_c, 1, 68, 127
1, 23525, Note_on_c, 1, 52, 127
1, 23577, Note_off_c, 1, 68, 0
1, 23577, Note_off_c, 1, 52, 0
1, 23585, Note_on_c, 1, 67, 127
1, 23585, Note_on_c, 1, 51, 127
1, 23637, Note_off_c, 1, 73, 0
1, 23637, Note_off_c, 1, 51, 0
1, 23645, Note_on_c, 1, 70, 127
1, 23690, Note_off_c, 1, 67, 0
1, 23697, Note_off_c, 1, 70, 0
1, 23705, Note_on_c, 1, 72, 127
1, 23705, Note_on_c, 1, 66, 127
1, 23705, Note_on_c, 1, 51, 127
1, 23757, Note_off_c, 1, 72, 0
1, 23757, Note_off_c, 1, 66, 0
1, 23757, Note_off_c, 1, 51, 0
1, 23765, Note_on_c, 1, 73, 127
1, 23765, Note_on_c, 1, 65, 127
1, 23765, Note_on_c, 1, 49, 127
1, 23817, Note_off_c, 1, 73, 0
1, 23825, Note_on_c, 1, 68, 127
1, 23870, Note_off_c, 1, 65, 0
1, 23870, Note_off_c, 1, 49, 0
1, 23877, Note_off_c, 1, 68, 0
1, 23885, Note_on_c, 1, 70, 127
1, 23885, Note_on_c, 1, 64, 127
1, 23885, Note_on_c, 1, 37, 127
1, 23937, Note_off_c, 1, 70, 0
1, 23937, Note_off_c, 1, 64, 0
1, 23937, Note_off_c, 1, 37, 0
1, 23945, Note_on_c, 1, 71, 127
1, 23945, Note_on_c, 1, 63, 127
1, 23945, Note_on_c, 1, 44, 127
1, 23997, Note_off_c, 1, 71, 0
1, 23997, Note_off_c, 1, 44, 0
1, 24005, Note_on_c, 1, 73, 127
1, 24005, Note_on_c, 1, 43, 127
1, 24050, Note_off_c, 1, 63, 0
1, 24057, Note_off_c, 1, 73, 0
1, 24057, Note_off_c, 1, 43, 0
1, 24065, Note_on_c, 1, 71, 127
1, 24065, Note_on_c, 1, 65, 127
1, 24065, Note_on_c, 1, 44, 127
1, 24117, Note_off_c, 1, 71, 0
1, 24117, Note_off_c, 1, 65, 0
1, 24117, Note_off_c, 1, 44, 0
1, 24125, Note_on_c, 1, 70, 127
1, 24125, Note_on_c, 1, 66, 127
1, 24125, Note_on_c, 1, 39, 127
1, 24177, Note_off_c, 1, 70, 0
1, 24185, Note_on_c, 1, 75, 127
1, 24230, Note_off_c, 1, 66, 0
1, 24230, Note_off_c, 1, 39, 0
1, 24237, Note_off_c, 1, 75, 0
1, 24245, Note_on_c, 1, 73, 127
1, 24245, Note_on_c, 1, 67, 127
1, 24297, Note_off_c, 1, 73, 0
1, 24297, Note_off_c, 1, 67, 0
1, 24305, Note_on_c, 1, 71, 127
1, 24305, Note_on_c, 1, 68, 127
1, 24357, Note_off_c, 1, 71, 0
1, 24365, Note_on_c, 1, 76, 127
1, 24417, Note_off_c, 1, 76, 0
1, 24425, Note_on_c, 1, 75, 127
1, 24477, Note_off_c, 1, 75, 0
1, 24485, Note_on_c, 1, 73, 127
1, 24537, Note_off_c, 1, 73, 0
1, 24650, Note_off_c, 1, 68, 0
1, 24665, Note_on_c, 1, 70, 127
1, 24665, Note_on_c, 1, 68, 127
1, 24693, Note_on_c, 1, 67, 127
1, 24700, Note_off_c, 1, 68, 0
1, 24708, Note_off_c, 1, 67, 0
1, 24717, Note_off_c, 1, 70, 0
1, 24725, Note_on_c, 1, 75, 127
1, 24777, Note_off_c, 1, 75, 0
1, 24785, Note_on_c, 1, 73, 127
1, 24837, Note_off_c, 1, 73, 0
1, 24845, Note_on_c, 1, 71, 127
1, 24845, Note_on_c, 1, 68, 127
1, 24897, Note_off_c, 1, 71, 0
1, 24905, Note_on_c, 1, 73, 127
1, 24950, Note_off_c, 1, 68, 0
1, 24957, Note_off_c, 1, 73, 0
1, 24965, Note_on_c, 1, 75, 127
1, 24965, Note_on_c, 1, 66, 127
1, 25017, Note_off_c, 1, 75, 0
1, 25017, Note_off_c, 1, 66, 0
1, 25025, Note_on_c, 1, 68, 127
1, 25025, Note_on_c, 1, 64, 127
1, 25077, Note_off_c, 1, 68, 0
1, 25085, Note_on_c, 1, 73, 127
1, 25130, Note_off_c, 1, 64, 0
1, 25137, Note_off_c, 1, 73, 0
1, 25145, Note_on_c, 1, 75, 127
1, 25145, Note_on_c, 1, 63, 127
1, 25197, Note_off_c, 1, 75, 0
1, 25197, Note_off_c, 1, 63, 0
1, 25205, Note_on_c, 1, 76, 127
1, 25205, Note_on_c, 1, 61, 127
1, 25257, Note_off_c, 1, 61, 0
1, 25265, Note_on_c, 1, 64, 127
1, 25317, Note_off_c, 1, 64, 0
1, 25325, Note_on_c, 1, 69, 127
1, 25370, Note_off_c, 1, 76, 0
1, 25385, Note_on_c, 1, 75, 127
1, 25385, Note_on_c, 1, 60, 127
1, 25437, Note_off_c, 1, 69, 0
1, 25445, Note_on_c, 1, 68, 127
1, 25471, Note_off_c, 1, 68, 0
1, 25475, Note_on_c, 1, 66, 127
1, 25490, Note_off_c, 1, 60, 0
1, 25501, Note_off_c, 1, 66, 0
1, 25505, Note_on_c, 1, 59, 127
1, 25550, Note_off_c, 1, 75, 0
1, 25557, Note_off_c, 1, 59, 0
1, 25565, Note_on_c, 1, 73, 127
1, 25565, Note_on_c, 1, 58, 127
1, 25670, Note_off_c, 1, 58, 0
1, 25685, Note_on_c, 1, 57, 127
1, 25730, Note_off_c, 1, 73, 0
1, 25737, Note_off_c, 1, 57, 0
1, 25745, Note_on_c, 1, 71, 127
1, 25745, Note_on_c, 1, 56, 127
1, 25797, Note_off_c, 1, 71, 0
1, 25805, Note_on_c, 1, 80, 127
1, 25835, Note_on_c, 1, 63, 127
1, 25850, Note_off_c, 1, 56, 0
1, 25861, Note_off_c, 1, 63, 0
1, 25910, Note_off_c, 1, 80, 0
1, 25925, Note_on_c, 1, 78, 127
1, 25925, Note_on_c, 1, 63, 127
1, 25925, Note_on_c, 1, 59, 127
1, 25977, Note_off_c, 1, 78, 0
1, 25977, Note_off_c, 1, 63, 0
1, 25985, Note_on_c, 1, 76, 127
1, 25985, Note_on_c, 1, 68, 127
1, 26030, Note_off_c, 1, 59, 0
1, 26037, Note_off_c, 1, 76, 0
1, 26037, Note_off_c, 1, 68, 0
1, 26045, Note_on_c, 1, 75, 127
1, 26045, Note_on_c, 1, 66, 127
1, 26045, Note_on_c, 1, 60, 127
1, 26097, Note_off_c, 1, 66, 0
1, 26097, Note_off_c, 1, 60, 0
1, 26105, Note_on_c, 1, 64, 127
1, 26105, Note_on_c, 1, 61, 127
1, 26157, Note_off_c, 1, 75, 0
1, 26157, Note_off_c, 1, 64, 0
1, 26165, Note_on_c, 1, 73, 127
1, 26165, Note_on_c, 1, 69, 127
1, 26191, Note_off_c, 1, 73, 0
1, 26195, Note_on_c, 1, 72, 127
1, 26217, Note_off_c, 1, 69, 0
1, 26221, Note_off_c, 1, 72, 0
1, 26225, Note_on_c, 1, 68, 127
1, 26277, Note_off_c, 1, 68, 0
1, 26450, Note_off_c, 1, 61, 0
1, 26465, Note_on_c, 1, 63, 127
1, 26517, Note_off_c, 1, 63, 0
1, 26765, Note_on_c, 1, 59, 127
1, 26817, Note_off_c, 1, 59, 0
1, 26825, Note_on_c, 1, 58, 127
1, 26885, Note_on_c, 1, 71, 127
1, 26911, Note_off_c, 1, 71, 0
1, 26915, Note_on_c, 1, 70, 127
1, 26930, Note_off_c, 1, 58, 0
1, 26941, Note_off_c, 1, 70, 0
1, 26945, Note_on_c, 1, 56, 127
1, 26997, Note_off_c, 1, 56, 0
1, 27005, Note_on_c, 1, 54, 127
1, 27110, Note_off_c, 1, 54, 0
1, 27125, Note_on_c, 1, 52, 127
1, 27177, Note_off_c, 1, 52, 0
1, 27185, Note_on_c, 1, 51, 127
1, 27290, Note_off_c, 1, 51, 0
1, 27305, Note_on_c, 1, 49, 127
1, 27357, Note_off_c, 1, 49, 0
1, 27365, Note_on_c, 1, 47, 127
1, 27417, Note_off_c, 1, 47, 0
1, 27965, Note_on_c, 1, 55, 127
1, 27991, Note_off_c, 1, 55, 0
1, 27995, Note_on_c, 1, 53, 127
1, 28021, Note_off_c, 1, 53, 0
1, 28205, Note_on_c, 1, 80, 127
1, 28205, Note_on_c, 1, 61, 127
1, 28205, Note_on_c, 1, 52, 127
1, 28257, Note_off_c, 1, 80, 0
1, 28257, Note_off_c, 1, 52, 0
1, 28265, Note_on_c, 1, 79, 127
1, 28265, Note_on_c, 1, 51, 127
1, 28317, Note_off_c, 1, 61, 0
1, 28325, Note_on_c, 1, 58, 127
1, 28370, Note_off_c, 1, 79, 0
1, 28377, Note_off_c, 1, 58, 0
1, 28385, Note_on_c, 1, 78, 127
1, 28385, Note_on_c, 1, 60, 127
1, 28430, Note_off_c, 1, 51, 0
1, 28437, Note_off_c, 1, 78, 0
1, 28437, Note_off_c, 1, 60, 0
1, 28445, Note_on_c, 1, 77, 127
1, 28445, Note_on_c, 1, 61, 127
1, 28445, Note_on_c, 1, 58, 127
1, 28497, Note_off_c, 1, 58, 0
1, 28505, Note_on_c, 1, 56, 127
1, 28550, Note_off_c, 1, 77, 0
1, 28557, Note_off_c, 1, 56, 0
1, 28565, Note_on_c, 1, 76, 127
1, 28565, Note_on_c, 1, 55, 127
1, 28617, Note_off_c, 1, 76, 0
1, 28617, Note_off_c, 1, 55, 0
1, 28625, Note_on_c, 1, 75, 127
1, 28677, Note_off_c, 1, 61, 0
1, 28685, Note_on_c, 1, 59, 127
1, 28730, Note_off_c, 1, 75, 0
1, 28745, Note_on_c, 1, 50, 127
1, 28797, Note_off_c, 1, 50, 0
1, 28805, Note_on_c, 1, 78, 127
1, 28805, Note_on_c, 1, 51, 127
1, 28857, Note_off_c, 1, 59, 0
1, 28910, Note_off_c, 1, 78, 0
1, 28910, Note_off_c, 1, 51, 0
1, 28925, Note_on_c, 1, 79, 127
1, 28925, Note_on_c, 1, 46, 127
1, 28977, Note_off_c, 1, 79, 0
1, 28977, Note_off_c, 1, 46, 0
1, 28985, Note_on_c, 1, 80, 127
1, 28985, Note_on_c, 1, 47, 127
1, 29045, Note_on_c, 1, 51, 127
1, 29090, Note_off_c, 1, 47, 0
1, 29097, Note_off_c, 1, 51, 0
1, 29105, Note_on_c, 1, 54, 127
1, 29105, Note_on_c, 1, 48, 127
1, 29157, Note_off_c, 1, 48, 0
1, 29165, Note_on_c, 1, 49, 127
1, 29217, Note_off_c, 1, 54, 0
1, 29225, Note_on_c, 1, 53, 127
1, 29270, Note_off_c, 1, 49, 0
1, 29277, Note_off_c, 1, 53, 0
1, 29285, Note_on_c, 1, 59, 127
1, 29285, Note_on_c, 1, 50, 127
1, 29330, Note_off_c, 1, 80, 0
1, 29337, Note_off_c, 1, 50, 0
1, 29345, Note_on_c, 1, 79, 127
1, 29397, Note_off_c, 1, 59, 0
1, 29405, Note_on_c, 1, 58, 127
1, 29431, Note_off_c, 1, 58, 0
1, 29435, Note_on_c, 1, 56, 127
1, 29461, Note_off_c, 1, 56, 0
1, 29465, Note_on_c, 1, 52, 127
1, 29495, Note_on_c, 1, 55, 127
1, 29517, Note_off_c, 1, 52, 0
1, 29521, Note_off_c, 1, 55, 0
1, 29577, Note_off_c, 1, 79, 0
1, 29585, Note_on_c, 1, 77, 127
1, 29637, Note_off_c, 1, 77, 0
1, 29645, Note_on_c, 1, 60, 127
1, 29697, Note_off_c, 1, 60, 0
1, 29705, Note_on_c, 1, 80, 127
1, 29705, Note_on_c, 1, 65, 127
1, 29765, Note_on_c, 1, 53, 127
1, 29810, Note_off_c, 1, 80, 0
1, 29810, Note_off_c, 1, 65, 0
1, 29817, Note_off_c, 1, 53, 0
1, 29825, Note_on_c, 1, 81, 127
1, 29825, Note_on_c, 1, 51, 127
1, 29877, Note_off_c, 1, 81, 0
1, 29877, Note_off_c, 1, 51, 0
1, 29885, Note_on_c, 1, 82, 127
1, 29885, Note_on_c, 1, 49, 127
1, 29937, Note_off_c, 1, 49, 0
1, 29945, Note_on_c, 1, 70, 127
1, 29945, Note_on_c, 1, 61, 127
1, 29997, Note_off_c, 1, 70, 0
1, 29997, Note_off_c, 1, 61, 0
1, 30005, Note_on_c, 1, 72, 127
1, 30005, Note_on_c, 1, 60, 127
1, 30057, Note_off_c, 1, 72, 0
1, 30057, Note_off_c, 1, 60, 0
1, 30065, Note_on_c, 1, 73, 127
1, 30065, Note_on_c, 1, 58, 127
1, 30117, Note_off_c, 1, 58, 0
1, 30170, Note_off_c, 1, 73, 0
1, 30185, Note_on_c, 1, 74, 127
1, 30185, Note_on_c, 1, 68, 127
1, 30237, Note_off_c, 1, 74, 0
1, 30237, Note_off_c, 1, 68, 0
1, 30245, Note_on_c, 1, 75, 127
1, 30245, Note_on_c, 1, 66, 127
1, 30297, Note_off_c, 1, 82, 0
1, 30297, Note_off_c, 1, 66, 0
1, 30305, Note_on_c, 1, 78, 127
1, 30305, Note_on_c, 1, 63, 127
1, 30357, Note_off_c, 1, 78, 0
1, 30357, Note_off_c, 1, 63, 0
1, 30365, Note_on_c, 1, 80, 127
1, 30365, Note_on_c, 1, 65, 127
1, 30417, Note_off_c, 1, 80, 0
1, 30417, Note_off_c, 1, 65, 0
1, 30477, Note_off_c, 1, 75, 0
1, 30545, Note_on_c, 1, 67, 127
1, 30597, Note_off_c, 1, 67, 0
1, 30665, Note_on_c, 1, 56, 127
1, 30717, Note_off_c, 1, 56, 0
1, 30785, Note_on_c, 1, 59, 127
1, 30845, Note_on_c, 1, 77, 127
1, 30890, Note_off_c, 1, 59, 0
1, 30897, Note_off_c, 1, 77, 0
1, 31085, Note_on_c, 1, 51, 127
1, 31137, Note_off_c, 1, 51, 0
1, 31145, Note_on_c, 1, 52, 127
1, 31250, Note_off_c, 1, 52, 0
1, 31265, Note_on_c, 1, 71, 127
1, 31265, Note_on_c, 1, 53, 127
1, 31317, Note_off_c, 1, 71, 0
1, 31317, Note_off_c, 1, 53, 0
1, 31325, Note_on_c, 1, 54, 127
1, 31377, Note_off_c, 1, 54, 0
1, 31385, Note_on_c, 1, 42, 127
1, 31437, Note_off_c, 1, 42, 0
1, 31445, Note_on_c, 1, 44, 127
1, 31497, Note_off_c, 1, 44, 0
1, 31505, Note_on_c, 1, 45, 127
1, 31610, Note_off_c, 1, 45, 0
1, 31625, Note_on_c, 1, 76, 127
1, 31625, Note_on_c, 1, 46, 127
1, 31677, Note_off_c, 1, 76, 0
1, 31677, Note_off_c, 1, 46, 0
1, 31685, Note_on_c, 1, 47, 127
1, 31790, Note_off_c, 1, 47, 0
1, 31805, Note_on_c, 1, 73, 127
1, 31805, Note_on_c, 1, 70, 127
1, 31805, Note_on_c, 1, 49, 127
1, 31857, Note_off_c, 1, 73, 0
1, 31857, Note_off_c, 1, 49, 0
1, 31865, Note_on_c, 1, 71, 127
1, 31865, Note_on_c, 1, 51, 127
1, 31917, Note_off_c, 1, 70, 0
1, 31925, Note_on_c, 1, 66, 127
1, 31970, Note_off_c, 1, 51, 0
1, 31977, Note_off_c, 1, 66, 0
1, 31985, Note_on_c, 1, 68, 127
1, 31985, Note_on_c, 1, 53, 127
1, 32030, Note_off_c, 1, 71, 0
1, 32037, Note_off_c, 1, 53, 0
1, 32045, Note_on_c, 1, 54, 127
1, 32097, Note_off_c, 1, 68, 0
1, 32150, Note_off_c, 1, 54, 0
1, 32165, Note_on_c, 1, 72, 127
1, 32165, Note_on_c, 1, 56, 127
1, 32217, Note_off_c, 1, 72, 0
1, 32217, Note_off_c, 1, 56, 0
1, 32225, Note_on_c, 1, 58, 127
1, 32255, Note_on_c, 1, 75, 127
1, 32281, Note_off_c, 1, 75, 0
1, 32285, Note_on_c, 1, 76, 127
1, 32330, Note_off_c, 1, 58, 0
1, 32337, Note_off_c, 1, 76, 0
1, 32345, Note_on_c, 1, 60, 127
1, 32397, Note_off_c, 1, 60, 0
1, 32405, Note_on_c, 1, 61, 127
1, 32457, Note_off_c, 1, 61, 0
1, 32465, Note_on_c, 1, 65, 127
1, 32517, Note_off_c, 1, 65, 0
1, 32525, Note_on_c, 1, 67, 127
1, 32577, Note_off_c, 1, 67, 0
1, 32585, Note_on_c, 1, 73, 127
1, 32585, Note_on_c, 1, 68, 127
1, 32585, Note_on_c, 1, 53, 127
1, 32611, Note_off_c, 1, 68, 0
1, 32615, Note_on_c, 1, 70, 127
1, 32641, Note_off_c, 1, 70, 0
1, 32645, Note_on_c, 1, 71, 127
1, 32690, Note_off_c, 1, 53, 0
1, 32697, Note_off_c, 1, 71, 0
1, 32705, Note_on_c, 1, 55, 127
1, 32757, Note_off_c, 1, 55, 0
1, 32765, Note_on_c, 1, 63, 127
1, 32765, Note_on_c, 1, 56, 127
1, 32817, Note_off_c, 1, 73, 0
1, 32870, Note_off_c, 1, 56, 0
1, 32885, Note_on_c, 1, 58, 127
1, 32930, Note_off_c, 1, 63, 0
1, 32937, Note_off_c, 1, 58, 0
1, 32945, Note_on_c, 1, 75, 127
1, 32945, Note_on_c, 1, 68, 127
1, 32945, Note_on_c, 1, 59, 127
1, 32971, Note_off_c, 1, 75, 0
1, 32971, Note_off_c, 1, 59, 0
1, 32975, Note_on_c, 1, 73, 127
1, 32975, Note_on_c, 1, 61, 127
1, 33001, Note_off_c, 1, 73, 0
1, 33001, Note_off_c, 1, 61, 0
1, 33005, Note_on_c, 1, 71, 127
1, 33005, Note_on_c, 1, 63, 127
1, 33031, Note_off_c, 1, 71, 0
1, 33035, Note_on_c, 1, 70, 127
1, 33057, Note_off_c, 1, 63, 0
1, 33061, Note_off_c, 1, 70, 0
1, 33095, Note_on_c, 1, 76, 127
1, 33121, Note_off_c, 1, 76, 0
1, 33177, Note_off_c, 1, 68, 0
1, 33185, Note_on_c, 1, 67, 127
1, 33237, Note_off_c, 1, 67, 0
1, 33425, Note_on_c, 1, 82, 127
1, 33477, Note_off_c, 1, 82, 0
1, 33605, Note_on_c, 1, 80, 127
1, 33657, Note_off_c, 1, 80, 0
1, 33935, Note_on_c, 1, 66, 127
1, 33961, Note_off_c, 1, 66, 0
1, 33965, Note_on_c, 1, 64, 127
1, 33991, Note_off_c, 1, 64, 0
1, 34175, Note_on_c, 1, 65, 127
1, 34201, Note_off_c, 1, 65, 0
1, 34325, Note_on_c, 1, 68, 127
1, 34325, Note_on_c, 1, 59, 127
1, 34377, Note_off_c, 1, 59, 0
1, 34385, Note_on_c, 1, 58, 127
1, 34411, Note_off_c, 1, 58, 0
1, 34415, Note_on_c, 1, 56, 127
1, 34437, Note_off_c, 1, 68, 0
1, 34441, Note_off_c, 1, 56, 0
1, 34445, Note_on_c, 1, 67, 127
1, 34445, Note_on_c, 1, 58, 127
1, 34497, Note_off_c, 1, 67, 0
1, 34497, Note_off_c, 1, 58, 0
1, 34505, Note_on_c, 1, 73, 127
1, 34505, Note_on_c, 1, 51, 127
1, 34557, Note_off_c, 1, 73, 0
1, 34557, Note_off_c, 1, 51, 0
1, 34565, Note_on_c, 1, 71, 127
1, 34565, Note_on_c, 1, 56, 127
1, 34565, Note_on_c, 1, 44, 127
1, 34617, Note_off_c, 1, 44, 0
1, 34625, Note_on_c, 1, 46, 127
1, 34670, Note_off_c, 1, 71, 0
1, 34670, Note_off_c, 1, 56, 0
1, 34677, Note_off_c, 1, 46, 0
1, 34685, Note_on_c, 1, 68, 127
1, 34685, Note_on_c, 1, 47, 127
1, 34737, Note_off_c, 1, 68, 0
1, 34737, Note_off_c, 1, 47, 0
1, 34745, Note_on_c, 1, 67, 127
1, 34745, Note_on_c, 1, 46, 127
1, 34797, Note_off_c, 1, 46, 0
1, 34805, Note_on_c, 1, 51, 127
1, 34850, Note_off_c, 1, 67, 0
1, 34857, Note_off_c, 1, 51, 0
1, 34865, Note_on_c, 1, 66, 127
1, 34865, Note_on_c, 1, 39, 127
1, 34917, Note_off_c, 1, 66, 0
1, 34917, Note_off_c, 1, 39, 0
1, 34925, Note_on_c, 1, 65, 127
1, 34925, Note_on_c, 1, 44, 127
1, 34977, Note_off_c, 1, 44, 0
1, 34985, Note_on_c, 1, 47, 127
1, 35030, Note_off_c, 1, 65, 0
1, 35037, Note_off_c, 1, 47, 0
1, 35045, Note_on_c, 1, 64, 127
1, 35045, Note_on_c, 1, 46, 127
1, 35097, Note_off_c, 1, 64, 0
1, 35097, Note_off_c, 1, 46, 0
1, 35105, Note_on_c, 1, 63, 127
1, 35105, Note_on_c, 1, 47, 127
1, 35157, Note_off_c, 1, 47, 0
1, 35165, Note_on_c, 1, 46, 127
1, 35210, Note_off_c, 1, 63, 0
1, 35217, Note_off_c, 1, 46, 0
1, 35225, Note_on_c, 1, 65, 127
1, 35225, Note_on_c, 1, 44, 127
1, 35277, Note_off_c, 1, 65, 0
1, 35277, Note_off_c, 1, 44, 0
1, 35285, Note_on_c, 1, 66, 127
1, 35285, Note_on_c, 1, 46, 127
1, 35337, Note_off_c, 1, 46, 0
1, 35345, Note_on_c, 1, 47, 127
1, 35390, Note_off_c, 1, 66, 0
1, 35397, Note_off_c, 1, 47, 0
1, 35405, Note_on_c, 1, 67, 127
1, 35405, Note_on_c, 1, 49, 127
1, 35457, Note_off_c, 1, 67, 0
1, 35457, Note_off_c, 1, 49, 0
1, 35465, Note_on_c, 1, 68, 127
1, 35465, Note_on_c, 1, 47, 127
1, 35517, Note_off_c, 1, 47, 0
1, 35525, Note_on_c, 1, 52, 127
1, 35577, Note_off_c, 1, 52, 0
1, 35585, Note_on_c, 1, 44, 127
1, 35637, Note_off_c, 1, 44, 0
1, 35645, Note_on_c, 1, 46, 127
1, 35697, Note_off_c, 1, 46, 0
1, 35705, Note_on_c, 1, 49, 127
1, 35757, Note_off_c, 1, 49, 0
1, 35810, Note_off_c, 1, 68, 0
1, 35825, Note_on_c, 1, 67, 127
1, 35825, Note_on_c, 1, 49, 127
1, 35877, Note_off_c, 1, 49, 0
1, 35885, Note_on_c, 1, 47, 127
1, 35937, Note_off_c, 1, 47, 0
1, 35945, Note_on_c, 1, 46, 127
1, 35990, Note_off_c, 1, 67, 0
1, 35997, Note_off_c, 1, 46, 0
1, 36005, Note_on_c, 1, 68, 127
1, 36005, Note_on_c, 1, 47, 127
1, 36057, Note_off_c, 1, 68, 0
1, 36057, Note_off_c, 1, 47, 0
1, 36065, Note_on_c, 1, 71, 127
1, 36065, Note_on_c, 1, 51, 127
1, 36117, Note_off_c, 1, 71, 0
1, 36117, Note_off_c, 1, 51, 0
1, 36125, Note_on_c, 1, 63, 127
1, 36125, Note_on_c, 1, 56, 127
1, 36177, Note_off_c, 1, 63, 0
1, 36185, Note_on_c, 1, 64, 127
1, 36237, Note_off_c, 1, 56, 0
1, 36237, Note_off_c, 1, 64, 0
1, 36245, Note_on_c, 1, 63, 127
1, 36245, Note_on_c, 1, 55, 127
1, 36271, Note_off_c, 1, 55, 0
1, 36275, Note_on_c, 1, 53, 127
1, 36297, Note_off_c, 1, 63, 0
1, 36301, Note_off_c, 1, 53, 0
1, 36305, Note_on_c, 1, 61, 127
1, 36305, Note_on_c, 1, 55, 127
1, 36357, Note_off_c, 1, 61, 0
1, 36357, Note_off_c, 1, 55, 0
1, 36365, Note_on_c, 1, 59, 127
1, 36365, Note_on_c, 1, 56, 127
1, 36391, Note_off_c, 1, 59, 0
1, 36395, Note_on_c, 1, 63, 127
1, 36417, Note_off_c, 1, 56, 0
1, 36421, Note_off_c, 1, 63, 0
1, 36425, Note_on_c, 1, 68, 127
1, 36425, Note_on_c, 1, 59, 127
1, 36477, Note_off_c, 1, 68, 0
1, 36477, Note_off_c, 1, 59, 0
1, 36485, Note_on_c, 1, 66, 127
1, 36485, Note_on_c, 1, 63, 127
1, 36537, Note_off_c, 1, 66, 0
1, 36545, Note_on_c, 1, 65, 127
1, 36597, Note_off_c, 1, 63, 0
1, 36597, Note_off_c, 1, 65, 0
1, 36605, Note_on_c, 1, 70, 127
1, 36605, Note_on_c, 1, 62, 127
1, 36631, Note_off_c, 1, 62, 0
1, 36635, Note_on_c, 1, 60, 127
1, 36657, Note_off_c, 1, 70, 0
1, 36661, Note_off_c, 1, 60, 0
1, 36665, Note_on_c, 1, 68, 127
1, 36665, Note_on_c, 1, 62, 127
1, 36717, Note_off_c, 1, 68, 0
1, 36717, Note_off_c, 1, 62, 0
1, 36725, Note_on_c, 1, 75, 127
1, 36725, Note_on_c, 1, 66, 127
1, 36725, Note_on_c, 1, 63, 127
1, 36777, Note_off_c, 1, 75, 0
1, 36785, Note_on_c, 1, 77, 127
1, 36830, Note_off_c, 1, 66, 0
1, 36830, Note_off_c, 1, 63, 0
1, 36837, Note_off_c, 1, 77, 0
1, 36845, Note_on_c, 1, 78, 127
1, 36845, Note_on_c, 1, 63, 127
1, 36845, Note_on_c, 1, 51, 127
1, 36897, Note_off_c, 1, 78, 0
1, 36897, Note_off_c, 1, 63, 0
1, 36897, Note_off_c, 1, 51, 0
1, 36905, Note_on_c, 1, 77, 127
1, 36905, Note_on_c, 1, 62, 127
1, 36905, Note_on_c, 1, 58, 127
1, 36957, Note_off_c, 1, 77, 0
1, 36965, Note_on_c, 1, 82, 127
1, 37010, Note_off_c, 1, 62, 0
1, 37010, Note_off_c, 1, 58, 0
1, 37017, Note_off_c, 1, 82, 0
1, 37025, Note_on_c, 1, 70, 127
1, 37025, Note_on_c, 1, 61, 127
1, 37025, Note_on_c, 1, 55, 127
1, 37077, Note_off_c, 1, 70, 0
1, 37077, Note_off_c, 1, 61, 0
1, 37077, Note_off_c, 1, 55, 0
1, 37085, Note_on_c, 1, 75, 127
1, 37085, Note_on_c, 1, 60, 127
1, 37085, Note_on_c, 1, 56, 127
1, 37137, Note_off_c, 1, 75, 0
1, 37145, Note_on_c, 1, 78, 127
1, 37190, Note_off_c, 1, 60, 0
1, 37190, Note_off_c, 1, 56, 0
1, 37197, Note_off_c, 1, 78, 0
1, 37205, Note_on_c, 1, 77, 127
1, 37205, Note_on_c, 1, 59, 127
1, 37205, Note_on_c, 1, 50, 127
1, 37257, Note_off_c, 1, 77, 0
1, 37257, Note_off_c, 1, 59, 0
1, 37257, Note_off_c, 1, 50, 0
1, 37265, Note_on_c, 1, 78, 127
1, 37265, Note_on_c, 1, 58, 127
1, 37265, Note_on_c, 1, 51, 127
1, 37317, Note_off_c, 1, 78, 0
1, 37325, Note_on_c, 1, 77, 127
1, 37370, Note_off_c, 1, 58, 0
1, 37377, Note_off_c, 1, 77, 0
1, 37385, Note_on_c, 1, 75, 127
1, 37385, Note_on_c, 1, 60, 127
1, 37430, Note_off_c, 1, 51, 0
1, 37437, Note_off_c, 1, 75, 0
1, 37437, Note_off_c, 1, 60, 0
1, 37445, Note_on_c, 1, 77, 127
1, 37445, Note_on_c, 1, 61, 127
1, 37445, Note_on_c, 1, 58, 127
1, 37497, Note_off_c, 1, 77, 0
1, 37505, Note_on_c, 1, 78, 127
1, 37550, Note_off_c, 1, 61, 0
1, 37557, Note_off_c, 1, 78, 0
1, 37565, Note_on_c, 1, 80, 127
1, 37565, Note_on_c, 1, 62, 127
1, 37617, Note_off_c, 1, 80, 0
1, 37617, Note_off_c, 1, 62, 0
1, 37625, Note_on_c, 1, 63, 127
1, 37677, Note_off_c, 1, 58, 0
1, 37685, Note_on_c, 1, 83, 127
1, 37685, Note_on_c, 1, 56, 127
1, 37737, Note_off_c, 1, 83, 0
1, 37737, Note_off_c, 1, 56, 0
1, 37745, Note_on_c, 1, 75, 127
1, 37745, Note_on_c, 1, 54, 127
1, 37797, Note_off_c, 1, 75, 0
1, 37797, Note_off_c, 1, 54, 0
1, 37970, Note_off_c, 1, 63, 0
1, 37985, Note_on_c, 1, 80, 127
1, 37985, Note_on_c, 1, 62, 127
1, 37985, Note_on_c, 1, 58, 127
1, 38037, Note_off_c, 1, 80, 0
1, 38045, Note_on_c, 1, 78, 127
1, 38097, Note_off_c, 1, 78, 0
1, 38105, Note_on_c, 1, 77, 127
1, 38150, Note_off_c, 1, 62, 0
1, 38150, Note_off_c, 1, 58, 0
1, 38157, Note_off_c, 1, 77, 0
1, 38165, Note_on_c, 1, 78, 127
1, 38165, Note_on_c, 1, 63, 127
1, 38165, Note_on_c, 1, 51, 127
1, 38217, Note_off_c, 1, 63, 0
1, 38225, Note_on_c, 1, 70, 127
1, 38270, Note_off_c, 1, 51, 0
1, 38277, Note_off_c, 1, 70, 0
1, 38285, Note_on_c, 1, 75, 127
1, 38285, Note_on_c, 1, 47, 127
1, 38330, Note_off_c, 1, 78, 0
1, 38337, Note_off_c, 1, 47, 0
1, 38345, Note_on_c, 1, 77, 127
1, 38345, Note_on_c, 1, 44, 127
1, 38397, Note_off_c, 1, 75, 0
1, 38405, Note_on_c, 1, 73, 127
1, 38431, Note_off_c, 1, 73, 0
1, 38435, Note_on_c, 1, 71, 127
1, 38450, Note_off_c, 1, 77, 0
1, 38450, Note_off_c, 1, 44, 0
1, 38461, Note_off_c, 1, 71, 0
1, 38465, Note_on_c, 1, 76, 127
1, 38465, Note_on_c, 1, 73, 127
1, 38465, Note_on_c, 1, 46, 127
1, 38517, Note_off_c, 1, 76, 0
1, 38517, Note_off_c, 1, 46, 0
1, 38525, Note_on_c, 1, 75, 127
1, 38525, Note_on_c, 1, 47, 127
1, 38577, Note_off_c, 1, 73, 0
1, 38585, Note_on_c, 1, 66, 127
1, 38630, Note_off_c, 1, 47, 0
1, 38637, Note_off_c, 1, 66, 0
1, 38645, Note_on_c, 1, 71, 127
1, 38645, Note_on_c, 1, 51, 127
1, 38690, Note_off_c, 1, 75, 0
1, 38697, Note_off_c, 1, 51, 0
1, 38705, Note_on_c, 1, 74, 127
1, 38705, Note_on_c, 1, 53, 127
1, 38757, Note_off_c, 1, 71, 0
1, 38765, Note_on_c, 1, 70, 127
1, 38791, Note_off_c, 1, 70, 0
1, 38795, Note_on_c, 1, 68, 127
1, 38810, Note_off_c, 1, 74, 0
1, 38810, Note_off_c, 1, 53, 0
1, 38821, Note_off_c, 1, 68, 0
1, 38825, Note_on_c, 1, 73, 127
1, 38825, Note_on_c, 1, 70, 127
1, 38825, Note_on_c, 1, 55, 127
1, 38877, Note_off_c, 1, 73, 0
1, 38877, Note_off_c, 1, 70, 0
1, 38877, Note_off_c, 1, 55, 0
1, 38885, Note_on_c, 1, 71, 127
1, 38885, Note_on_c, 1, 56, 127
1, 38945, Note_on_c, 1, 75, 127
1, 38990, Note_off_c, 1, 56, 0
1, 38997, Note_off_c, 1, 75, 0
1, 39005, Note_on_c, 1, 80, 127
1, 39005, Note_on_c, 1, 59, 127
1, 39050, Note_off_c, 1, 71, 0
1, 39057, Note_off_c, 1, 59, 0
1, 39065, Note_on_c, 1, 70, 127
1, 39065, Note_on_c, 1, 61, 127
1, 39117, Note_off_c, 1, 80, 0
1, 39125, Note_on_c, 1, 78, 127
1, 39151, Note_off_c, 1, 78, 0
1, 39155, Note_on_c, 1, 76, 127
1, 39170, Note_off_c, 1, 70, 0
1, 39170, Note_off_c, 1, 61, 0
1, 39181, Note_off_c, 1, 76, 0
1, 39185, Note_on_c, 1, 78, 127
1, 39185, Note_on_c, 1, 69, 127
1, 39185, Note_on_c, 1, 63, 127
1, 39237, Note_off_c, 1, 69, 0
1, 39237, Note_off_c, 1, 63, 0
1, 39245, Note_on_c, 1, 68, 127
1, 39245, Note_on_c, 1, 64, 127
1, 39297, Note_off_c, 1, 78, 0
1, 39305, Note_on_c, 1, 71, 127
1, 39350, Note_off_c, 1, 64, 0
1, 39357, Note_off_c, 1, 71, 0
1, 39365, Note_on_c, 1, 76, 127
1, 39365, Note_on_c, 1, 61, 127
1, 39410, Note_off_c, 1, 68, 0
1, 39417, Note_off_c, 1, 61, 0
1, 39425, Note_on_c, 1, 67, 127
1, 39425, Note_on_c, 1, 58, 127
1, 39477, Note_off_c, 1, 76, 0
1, 39485, Note_on_c, 1, 75, 127
1, 39511, Note_off_c, 1, 75, 0
1, 39515, Note_on_c, 1, 73, 127
1, 39530, Note_off_c, 1, 67, 0
1, 39530, Note_off_c, 1, 58, 0
1, 39541, Note_off_c, 1, 73, 0
1, 39545, Note_on_c, 1, 75, 127
1, 39545, Note_on_c, 1, 66, 127
1, 39545, Note_on_c, 1, 60, 127
1, 39597, Note_off_c, 1, 75, 0
1, 39597, Note_off_c, 1, 66, 0
1, 39597, Note_off_c, 1, 60, 0
1, 39605, Note_on_c, 1, 73, 127
1, 39605, Note_on_c, 1, 64, 127
1, 39605, Note_on_c, 1, 61, 127
1, 39657, Note_off_c, 1, 73, 0
1, 39657, Note_off_c, 1, 64, 0
1, 39657, Note_off_c, 1, 61, 0
1, 39665, Note_on_c, 1, 75, 127
1, 39665, Note_on_c, 1, 66, 127
1, 39665, Note_on_c, 1, 60, 127
1, 39717, Note_off_c, 1, 75, 0
1, 39717, Note_off_c, 1, 66, 0
1, 39717, Note_off_c, 1, 60, 0
1, 39725, Note_on_c, 1, 76, 127
1, 39725, Note_on_c, 1, 68, 127
1, 39725, Note_on_c, 1, 58, 127
1, 39777, Note_off_c, 1, 76, 0
1, 39777, Note_off_c, 1, 68, 0
1, 39777, Note_off_c, 1, 58, 0
1, 39785, Note_on_c, 1, 75, 127
1, 39785, Note_on_c, 1, 66, 127
1, 39785, Note_on_c, 1, 59, 127
1, 39837, Note_off_c, 1, 66, 0
1, 39837, Note_off_c, 1, 59, 0
1, 39845, Note_on_c, 1, 71, 127
1, 39845, Note_on_c, 1, 58, 127
1, 39890, Note_off_c, 1, 75, 0
1, 39897, Note_off_c, 1, 71, 0
1, 39897, Note_off_c, 1, 58, 0
1, 39905, Note_on_c, 1, 74, 127
1, 39905, Note_on_c, 1, 59, 127
1, 39905, Note_on_c, 1, 56, 127
1, 39957, Note_off_c, 1, 74, 0
1, 39957, Note_off_c, 1, 59, 0
1, 39957, Note_off_c, 1, 56, 0
1, 39965, Note_on_c, 1, 73, 127
1, 39965, Note_on_c, 1, 64, 127
1, 39965, Note_on_c, 1, 57, 127
1, 40017, Note_off_c, 1, 64, 0
1, 40025, Note_on_c, 1, 68, 127
1, 40070, Note_off_c, 1, 73, 0
1, 40070, Note_off_c, 1, 57, 0
1, 40077, Note_off_c, 1, 68, 0
1, 40085, Note_on_c, 1, 72, 127
1, 40085, Note_on_c, 1, 66, 127
1, 40085, Note_on_c, 1, 51, 127
1, 40137, Note_off_c, 1, 72, 0
1, 40137, Note_off_c, 1, 66, 0
1, 40137, Note_off_c, 1, 51, 0
1, 40145, Note_on_c, 1, 71, 127
1, 40145, Note_on_c, 1, 68, 127
1, 40145, Note_on_c, 1, 52, 127
1, 40197, Note_off_c, 1, 68, 0
1, 40205, Note_on_c, 1, 66, 127
1, 40250, Note_off_c, 1, 71, 0
1, 40250, Note_off_c, 1, 52, 0
1, 40257, Note_off_c, 1, 66, 0
1, 40265, Note_on_c, 1, 73, 127
1, 40265, Note_on_c, 1, 64, 127
1, 40265, Note_on_c, 1, 40, 127
1, 40317, Note_off_c, 1, 73, 0
1, 40317, Note_off_c, 1, 64, 0
1, 40317, Note_off_c, 1, 40, 0
1, 40325, Note_on_c, 1, 74, 127
1, 40325, Note_on_c, 1, 66, 127
1, 40325, Note_on_c, 1, 47, 127
1, 40377, Note_off_c, 1, 66, 0
1, 40385, Note_on_c, 1, 68, 127
1, 40430, Note_off_c, 1, 74, 0
1, 40430, Note_off_c, 1, 47, 0
1, 40437, Note_off_c, 1, 68, 0
1, 40445, Note_on_c, 1, 75, 127
1, 40445, Note_on_c, 1, 69, 127
1, 40445, Note_on_c, 1, 48, 127
1, 40497, Note_off_c, 1, 75, 0
1, 40497, Note_off_c, 1, 69, 0
1, 40497, Note_off_c, 1, 48, 0
1, 40505, Note_on_c, 1, 76, 127
1, 40505, Note_on_c, 1, 68, 127
1, 40505, Note_on_c, 1, 49, 127
1, 40557, Note_off_c, 1, 68, 0
1, 40565, Note_on_c, 1, 73, 127
1, 40610, Note_off_c, 1, 49, 0
1, 40617, Note_off_c, 1, 73, 0
1, 40625, Note_on_c, 1, 64, 127
1, 40625, Note_on_c, 1, 56, 127
1, 40677, Note_off_c, 1, 64, 0
1, 40677, Note_off_c, 1, 56, 0
1, 40685, Note_on_c, 1, 66, 127
1, 40685, Note_on_c, 1, 57, 127
1, 40737, Note_off_c, 1, 66, 0
1, 40745, Note_on_c, 1, 69, 127
1, 40790, Note_off_c, 1, 57, 0
1, 40797, Note_off_c, 1, 69, 0
1, 40805, Note_on_c, 1, 61, 127
1, 40850, Note_off_c, 1, 76, 0
1, 40857, Note_off_c, 1, 61, 0
1, 40865, Note_on_c, 1, 75, 127
1, 40865, Note_on_c, 1, 69, 127
1, 40865, Note_on_c, 1, 54, 127
1, 40917, Note_off_c, 1, 69, 0
1, 40925, Note_on_c, 1, 68, 127
1, 40970, Note_off_c, 1, 54, 0
1, 40977, Note_off_c, 1, 68, 0
1, 40985, Note_on_c, 1, 66, 127
1, 40985, Note_on_c, 1, 59, 127
1, 41030, Note_off_c, 1, 75, 0
1, 41037, Note_off_c, 1, 66, 0
1, 41037, Note_off_c, 1, 59, 0
1, 41045, Note_on_c, 1, 76, 127
1, 41045, Note_on_c, 1, 68, 127
1, 41045, Note_on_c, 1, 52, 127
1, 41097, Note_off_c, 1, 52, 0
1, 41105, Note_on_c, 1, 59, 127
1, 41150, Note_off_c, 1, 76, 0
1, 41150, Note_off_c, 1, 68, 0
1, 41157, Note_off_c, 1, 59, 0
1, 41165, Note_on_c, 1, 68, 127
1, 41165, Note_on_c, 1, 64, 127
1, 41217, Note_off_c, 1, 68, 0
1, 41225, Note_on_c, 1, 70, 127
1, 41225, Note_on_c, 1, 67, 127
1, 41277, Note_off_c, 1, 64, 0
1, 41285, Note_on_c, 1, 63, 127
1, 41311, Note_off_c, 1, 63, 0
1, 41315, Note_on_c, 1, 61, 127
1, 41330, Note_off_c, 1, 70, 0
1, 41330, Note_off_c, 1, 67, 0
1, 41341, Note_off_c, 1, 61, 0
1, 41345, Note_on_c, 1, 72, 127
1, 41345, Note_on_c, 1, 66, 127
1, 41345, Note_on_c, 1, 63, 127
1, 41397, Note_off_c, 1, 72, 0
1, 41397, Note_off_c, 1, 66, 0
1, 41405, Note_on_c, 1, 73, 127
1, 41405, Note_on_c, 1, 65, 127
1, 41457, Note_off_c, 1, 63, 0
1, 41465, Note_on_c, 1, 56, 127
1, 41510, Note_off_c, 1, 73, 0
1, 41510, Note_off_c, 1, 65, 0
1, 41517, Note_off_c, 1, 56, 0
1, 41525, Note_on_c, 1, 69, 127
1, 41525, Note_on_c, 1, 64, 127
1, 41525, Note_on_c, 1, 61, 127
1, 41577, Note_off_c, 1, 69, 0
1, 41577, Note_off_c, 1, 64, 0
1, 41585, Note_on_c, 1, 66, 127
1, 41585, Note_on_c, 1, 63, 127
1, 41637, Note_off_c, 1, 61, 0
1, 41645, Note_on_c, 1, 60, 127
1, 41671, Note_off_c, 1, 60, 0
1, 41675, Note_on_c, 1, 58, 127
1, 41690, Note_off_c, 1, 66, 0
1, 41701, Note_off_c, 1, 58, 0
1, 41705, Note_on_c, 1, 68, 127
1, 41757, Note_off_c, 1, 68, 0
1, 41817, Note_off_c, 1, 63, 0
1, 41825, Note_on_c, 1, 49, 127
1, 41877, Note_off_c, 1, 49, 0
1, 41885, Note_on_c, 1, 69, 127
1, 41885, Note_on_c, 1, 61, 127
1, 41937, Note_off_c, 1, 61, 0
1, 41945, Note_on_c, 1, 60, 127
1, 41997, Note_off_c, 1, 69, 0
1, 42005, Note_on_c, 1, 68, 127
1, 42031, Note_off_c, 1, 68, 0
1, 42035, Note_on_c, 1, 66, 127
1, 42050, Note_off_c, 1, 60, 0
1, 42061, Note_off_c, 1, 66, 0
1, 42065, Note_on_c, 1, 68, 127
1, 42065, Note_on_c, 1, 59, 127
1, 42117, Note_off_c, 1, 59, 0
1, 42125, Note_on_c, 1, 58, 127
1, 42177, Note_off_c, 1, 68, 0
1, 42185, Note_on_c, 1, 61, 127
1, 42230, Note_off_c, 1, 58, 0
1, 42237, Note_off_c, 1, 61, 0
1, 42245, Note_on_c, 1, 66, 127
1, 42245, Note_on_c, 1, 57, 127
1, 42297, Note_off_c, 1, 57, 0
1, 42305, Note_on_c, 1, 56, 127
1, 42357, Note_off_c, 1, 66, 0
1, 42365, Note_on_c, 1, 65, 127
1, 42391, Note_off_c, 1, 65, 0
1, 42395, Note_on_c, 1, 63, 127
1, 42410, Note_off_c, 1, 56, 0
1, 42421, Note_off_c, 1, 63, 0
1, 42425, Note_on_c, 1, 71, 127
1, 42425, Note_on_c, 1, 65, 127
1, 42425, Note_on_c, 1, 61, 127
1, 42477, Note_off_c, 1, 65, 0
1, 42477, Note_off_c, 1, 61, 0
1, 42485, Note_on_c, 1, 66, 127
1, 42485, Note_on_c, 1, 54, 127
1, 42537, Note_off_c, 1, 71, 0
1, 42537, Note_off_c, 1, 54, 0
1, 42545, Note_on_c, 1, 70, 127
1, 42545, Note_on_c, 1, 52, 127
1, 42597, Note_off_c, 1, 70, 0
1, 42597, Note_off_c, 1, 52, 0
1, 42605, Note_on_c, 1, 72, 127
1, 42605, Note_on_c, 1, 51, 127
1, 42657, Note_off_c, 1, 72, 0
1, 42657, Note_off_c, 1, 51, 0
1, 42665, Note_on_c, 1, 73, 127
1, 42665, Note_on_c, 1, 49, 127
1, 42717, Note_off_c, 1, 66, 0
1, 42717, Note_off_c, 1, 49, 0
1, 42725, Note_on_c, 1, 47, 127
1, 42777, Note_off_c, 1, 47, 0
1, 42785, Note_on_c, 1, 67, 127
1, 42785, Note_on_c, 1, 46, 127
1, 42837, Note_off_c, 1, 67, 0
1, 42837, Note_off_c, 1, 46, 0
1, 42845, Note_on_c, 1, 68, 127
1, 42845, Note_on_c, 1, 44, 127
1, 42897, Note_off_c, 1, 73, 0
1, 42897, Note_off_c, 1, 44, 0
1, 42905, Note_on_c, 1, 56, 127
1, 42957, Note_off_c, 1, 56, 0
1, 42965, Note_on_c, 1, 74, 127
1, 42965, Note_on_c, 1, 58, 127
1, 43017, Note_off_c, 1, 74, 0
1, 43017, Note_off_c, 1, 58, 0
1, 43025, Note_on_c, 1, 75, 127
1, 43025, Note_on_c, 1, 59, 127
1, 43077, Note_off_c, 1, 68, 0
1, 43077, Note_off_c, 1, 59, 0
1, 43145, Note_on_c, 1, 69, 127
1, 43197, Note_off_c, 1, 69, 0
1, 43257, Note_off_c, 1, 75, 0
1, 43325, Note_on_c, 1, 48, 127
1, 43377, Note_off_c, 1, 48, 0
1, 43385, Note_on_c, 1, 77, 127
1, 43385, Note_on_c, 1, 50, 127
1, 43437, Note_off_c, 1, 50, 0
1, 43617, Note_off_c, 1, 77, 0
1, 43625, Note_on_c, 1, 75, 127
1, 43625, Note_on_c, 1, 56, 127
1, 43651, Note_off_c, 1, 75, 0
1, 43655, Note_on_c, 1, 74, 127
1, 43677, Note_off_c, 1, 56, 0
1, 43681, Note_off_c, 1, 74, 0
1, 43685, Note_on_c, 1, 75, 127
1, 43685, Note_on_c, 1, 54, 127
1, 43737, Note_off_c, 1, 54, 0
1, 43745, Note_on_c, 1, 53, 127
1, 43797, Note_off_c, 1, 75, 0
1, 43797, Note_off_c, 1, 53, 0
1, 43805, Note_on_c, 1, 73, 127
1, 43805, Note_on_c, 1, 58, 127
1, 43831, Note_off_c, 1, 73, 0
1, 43835, Note_on_c, 1, 71, 127
1, 43857, Note_off_c, 1, 58, 0
1, 43861, Note_off_c, 1, 71, 0
1, 43865, Note_on_c, 1, 73, 127
1, 43865, Note_on_c, 1, 70, 127
1, 43865, Note_on_c, 1, 56, 127
1, 43917, Note_off_c, 1, 70, 0
1, 43917, Note_off_c, 1, 56, 0
1, 43925, Note_on_c, 1, 63, 127
1, 43925, Note_on_c, 1, 55, 127
1, 43977, Note_off_c, 1, 73, 0
1, 43977, Note_off_c, 1, 55, 0
1, 43985, Note_on_c, 1, 75, 127
1, 43985, Note_on_c, 1, 51, 127
1, 44037, Note_off_c, 1, 75, 0
1, 44037, Note_off_c, 1, 51, 0
1, 44105, Note_on_c, 1, 71, 127
1, 44157, Note_off_c, 1, 63, 0
1, 44157, Note_off_c, 1, 71, 0
1, 44165, Note_on_c, 1, 76, 127
1, 44165, Note_on_c, 1, 61, 127
1, 44217, Note_off_c, 1, 76, 0
1, 44217, Note_off_c, 1, 61, 0
1, 44225, Note_on_c, 1, 59, 127
1, 44277, Note_off_c, 1, 59, 0
1, 44285, Note_on_c, 1, 58, 127
1, 44337, Note_off_c, 1, 58, 0
1, 44465, Note_on_c, 1, 70, 127
1, 44465, Note_on_c, 1, 63, 127
1, 44465, Note_on_c, 1, 55, 127
1, 44517, Note_off_c, 1, 70, 0
1, 44525, Note_on_c, 1, 75, 127
1, 44570, Note_off_c, 1, 63, 0
1, 44577, Note_off_c, 1, 75, 0
1, 44585, Note_on_c, 1, 73, 127
1, 44585, Note_on_c, 1, 51, 127
1, 44630, Note_off_c, 1, 55, 0
1, 44637, Note_off_c, 1, 73, 0
1, 44637, Note_off_c, 1, 51, 0
1, 44645, Note_on_c, 1, 71, 127
1, 44645, Note_on_c, 1, 56, 127
1, 44705, Note_on_c, 1, 58, 127
1, 44750, Note_off_c, 1, 71, 0
1, 44750, Note_off_c, 1, 56, 0
1, 44757, Note_off_c, 1, 58, 0
1, 44765, Note_on_c, 1, 59, 127
1, 44765, Note_on_c, 1, 44, 127
1, 44817, Note_off_c, 1, 59, 0
1, 44817, Note_off_c, 1, 44, 0
1, 44825, Note_on_c, 1, 58, 127
1, 44825, Note_on_c, 1, 43, 127
1, 44877, Note_off_c, 1, 58, 0
1, 44885, Note_on_c, 1, 63, 127
1, 44930, Note_off_c, 1, 43, 0
1, 44937, Note_off_c, 1, 63, 0
1, 44945, Note_on_c, 1, 51, 127
1, 44945, Note_on_c, 1, 42, 127
1, 44997, Note_off_c, 1, 51, 0
1, 44997, Note_off_c, 1, 42, 0
1, 45005, Note_on_c, 1, 56, 127
1, 45005, Note_on_c, 1, 41, 127
1, 45057, Note_off_c, 1, 56, 0
1, 45065, Note_on_c, 1, 59, 127
1, 45110, Note_off_c, 1, 41, 0
1, 45117, Note_off_c, 1, 59, 0
1, 45125, Note_on_c, 1, 61, 127
1, 45125, Note_on_c, 1, 58, 127
1, 45125, Note_on_c, 1, 40, 127
1, 45177, Note_off_c, 1, 61, 0
1, 45177, Note_off_c, 1, 58, 0
1, 45177, Note_off_c, 1, 40, 0
1, 45185, Note_on_c, 1, 66, 127
1, 45185, Note_on_c, 1, 59, 127
1, 45185, Note_on_c, 1, 39, 127
1, 45237, Note_off_c, 1, 59, 0
1, 45245, Note_on_c, 1, 58, 127
1, 45290, Note_off_c, 1, 66, 0
1, 45290, Note_off_c, 1, 39, 0
1, 45297, Note_off_c, 1, 58, 0
1, 45305, Note_on_c, 1, 68, 127
1, 45305, Note_on_c, 1, 56, 127
1, 45305, Note_on_c, 1, 41, 127
1, 45357, Note_off_c, 1, 56, 0
1, 45357, Note_off_c, 1, 41, 0
1, 45365, Note_on_c, 1, 58, 127
1, 45365, Note_on_c, 1, 42, 127
1, 45417, Note_off_c, 1, 68, 0
1, 45417, Note_off_c, 1, 58, 0
1, 45425, Note_on_c, 1, 66, 127
1, 45425, Note_on_c, 1, 59, 127
1, 45470, Note_off_c, 1, 42, 0
1, 45477, Note_off_c, 1, 66, 0
1, 45477, Note_off_c, 1, 59, 0
1, 45485, Note_on_c, 1, 64, 127
1, 45485, Note_on_c, 1, 61, 127
1, 45485, Note_on_c, 1, 43, 127
1, 45537, Note_off_c, 1, 64, 0
1, 45537, Note_off_c, 1, 61, 0
1, 45537, Note_off_c, 1, 43, 0
1, 45545, Note_on_c, 1, 63, 127
1, 45545, Note_on_c, 1, 59, 127
1, 45545, Note_on_c, 1, 44, 127
1, 45597, Note_off_c, 1, 63, 0
1, 45597, Note_off_c, 1, 59, 0
1, 45605, Note_on_c, 1, 68, 127
1, 45605, Note_on_c, 1, 64, 127
1, 45657, Note_off_c, 1, 68, 0
1, 45657, Note_off_c, 1, 64, 0
1, 45665, Note_on_c, 1, 71, 127
1, 45665, Note_on_c, 1, 56, 127
1, 45717, Note_off_c, 1, 71, 0
1, 45717, Note_off_c, 1, 56, 0
1, 45725, Note_on_c, 1, 65, 127
1, 45725, Note_on_c, 1, 58, 127
1, 45777, Note_off_c, 1, 58, 0
1, 45785, Note_on_c, 1, 61, 127
1, 45837, Note_off_c, 1, 61, 0
1, 45890, Note_off_c, 1, 44, 0
1, 45890, Note_off_c, 1, 65, 0
1, 45905, Note_on_c, 1, 70, 127
1, 45905, Note_on_c, 1, 61, 127
1, 45905, Note_on_c, 1, 43, 127
1, 45957, Note_off_c, 1, 61, 0
1, 45957, Note_off_c, 1, 43, 0
1, 45965, Note_on_c, 1, 59, 127
1, 45965, Note_on_c, 1, 51, 127
1, 46017, Note_off_c, 1, 59, 0
1, 46017, Note_off_c, 1, 51, 0
1, 46025, Note_on_c, 1, 58, 127
1, 46025, Note_on_c, 1, 49, 127
1, 46077, Note_off_c, 1, 58, 0
1, 46077, Note_off_c, 1, 49, 0
1, 46190, Note_off_c, 1, 70, 0
1, 46205, Note_on_c, 1, 68, 127
1, 46205, Note_on_c, 1, 47, 127
1, 46257, Note_off_c, 1, 47, 0
1, 46325, Note_on_c, 1, 63, 127
1, 46370, Note_off_c, 1, 68, 0
1, 46377, Note_off_c, 1, 63, 0
1, 46385, Note_on_c, 1, 67, 127
1, 46385, Note_on_c, 1, 61, 127
1, 46385, Note_on_c, 1, 46, 127
1, 46437, Note_off_c, 1, 67, 0
1, 46437, Note_off_c, 1, 61, 0
1, 46437, Note_off_c, 1, 46, 0
1, 46445, Note_on_c, 1, 68, 127
1, 46445, Note_on_c, 1, 63, 127
1, 46445, Note_on_c, 1, 47, 127
1, 46497, Note_off_c, 1, 63, 0
1, 46497, Note_off_c, 1, 47, 0
1, 46505, Note_on_c, 1, 61, 127
1, 46505, Note_on_c, 1, 46, 127
1, 46550, Note_off_c, 1, 68, 0
1, 46557, Note_off_c, 1, 61, 0
1, 46557, Note_off_c, 1, 46, 0
1, 46565, Note_on_c, 1, 59, 127
1, 46565, Note_on_c, 1, 44, 127
1, 46617, Note_off_c, 1, 59, 0
1, 46617, Note_off_c, 1, 44, 0
1, 46625, Note_on_c, 1, 61, 127
1, 46625, Note_on_c, 1, 51, 127
1, 46677, Note_off_c, 1, 61, 0
1, 46685, Note_on_c, 1, 75, 127
1, 46685, Note_on_c, 1, 59, 127
1, 46737, Note_off_c, 1, 75, 0
1, 46737, Note_off_c, 1, 59, 0
1, 46745, Note_on_c, 1, 73, 127
1, 46745, Note_on_c, 1, 58, 127
1, 46797, Note_off_c, 1, 73, 0
1, 46797, Note_off_c, 1, 58, 0
1, 46910, Note_off_c, 1, 51, 0
1, 46925, Note_on_c, 1, 71, 127
1, 46925, Note_on_c, 1, 56, 127
1, 46925, Note_on_c, 1, 44, 127
1, 46977, Note_off_c, 1, 71, 0
1, 46977, Note_off_c, 1, 56, 0
1, 46977, Note_off_c, 1, 44, 0
1, 46985, Note_on_c, 1, 73, 127
1, 46985, Note_on_c, 1, 58, 127
1, 46985, Note_on_c, 1, 52, 127
1, 47037, Note_off_c, 1, 73, 0
1, 47037, Note_off_c, 1, 58, 0
1, 47045, Note_on_c, 1, 71, 127
1, 47045, Note_on_c, 1, 56, 127
1, 47097, Note_off_c, 1, 71, 0
1, 47097, Note_off_c, 1, 56, 0
1, 47105, Note_on_c, 1, 70, 127
1, 47105, Note_on_c, 1, 55, 127
1, 47157, Note_off_c, 1, 70, 0
1, 47157, Note_off_c, 1, 55, 0
1, 47217, Note_off_c, 1, 52, 0
1, 47225, Note_on_c, 1, 51, 127
1, 47277, Note_off_c, 1, 51, 0
1, 47285, Note_on_c, 1, 50, 127
1, 47337, Note_off_c, 1, 50, 0
1, 47405, Note_on_c, 1, 61, 127
1, 47457, Note_off_c, 1, 61, 0
1, 47465, Note_on_c, 1, 68, 127
1, 47465, Note_on_c, 1, 59, 127
1, 47517, Note_off_c, 1, 68, 0
1, 47517, Note_off_c, 1, 59, 0
1, 47825, Note_on_c, 1, 67, 127
1, 47877, Note_off_c, 1, 67, 0
1, 47945, Note_on_c, 1, 49, 127
1, 47997, Note_off_c, 1, 49, 0
1, 48005, Note_on_c, 1, 47, 127
1, 48057, Note_off_c, 1, 47, 0
1, 48125, Note_on_c, 1, 65, 127
1, 48177, Note_off_c, 1, 65, 0
1, 48185, Note_on_c, 1, 46, 127
1, 48237, Note_off_c, 1, 46, 0
1, 48245, Note_on_c, 1, 68, 127
1, 48245, Note_on_c, 1, 51, 127
1, 48245, Note_on_c, 1, 47, 127
1, 48297, Note_off_c, 1, 68, 0
1, 48297, Note_off_c, 1, 47, 0
1, 48305, Note_on_c, 1, 70, 127
1, 48305, Note_on_c, 1, 49, 127
1, 48331, Note_off_c, 1, 49, 0
1, 48350, Note_off_c, 1, 51, 0
1, 48357, Note_off_c, 1, 70, 0
1, 48365, Note_on_c, 1, 71, 127
1, 48365, Note_on_c, 1, 68, 127
1, 48365, Note_on_c, 1, 46, 127
1, 48391, Note_off_c, 1, 46, 0
1, 48395, Note_on_c, 1, 44, 127
1, 48417, Note_off_c, 1, 71, 0
1, 48417, Note_off_c, 1, 68, 0
1, 48421, Note_off_c, 1, 44, 0
1, 48425, Note_on_c, 1, 70, 127
1, 48425, Note_on_c, 1, 67, 127
1, 48425, Note_on_c, 1, 39, 127
1, 48477, Note_off_c, 1, 70, 0
1, 48485, Note_on_c, 1, 75, 127
1, 48530, Note_off_c, 1, 67, 0
1, 48537, Note_off_c, 1, 75, 0
1, 48545, Note_on_c, 1, 63, 127
1, 48545, Note_on_c, 1, 66, 127
1, 48597, Note_off_c, 1, 63, 0
1, 48597, Note_off_c, 1, 66, 0
1, 48605, Note_on_c, 1, 68, 127
1, 48605, Note_on_c, 1, 65, 127
1, 48657, Note_off_c, 1, 68, 0
1, 48665, Note_on_c, 1, 71, 127
1, 48710, Note_off_c, 1, 39, 0
1, 48710, Note_off_c, 1, 65, 0
1, 48717, Note_off_c, 1, 71, 0
1, 48725, Note_on_c, 1, 70, 127
1, 48725, Note_on_c, 1, 64, 127
1, 48725, Note_on_c, 1, 37, 127
1, 48777, Note_off_c, 1, 70, 0
1, 48777, Note_off_c, 1, 64, 0
1, 48777, Note_off_c, 1, 37, 0
1, 48785, Note_on_c, 1, 71, 127
1, 48785, Note_on_c, 1, 63, 127
1, 48785, Note_on_c, 1, 44, 127
1, 48837, Note_off_c, 1, 71, 0
1, 48845, Note_on_c, 1, 70, 127
1, 48890, Note_off_c, 1, 63, 0
1, 48890, Note_off_c, 1, 44, 0
1, 48897, Note_off_c, 1, 70, 0
1, 48905, Note_on_c, 1, 68, 127
1, 48905, Note_on_c, 1, 65, 127
1, 48905, Note_on_c, 1, 37, 127
1, 48957, Note_off_c, 1, 68, 0
1, 48957, Note_off_c, 1, 65, 0
1, 48957, Note_off_c, 1, 37, 0
1, 48965, Note_on_c, 1, 70, 127
1, 48965, Note_on_c, 1, 66, 127
1, 48965, Note_on_c, 1, 42, 127
1, 49017, Note_off_c, 1, 70, 0
1, 49025, Note_on_c, 1, 71, 127
1, 49070, Note_off_c, 1, 66, 0
1, 49070, Note_off_c, 1, 42, 0
1, 49077, Note_off_c, 1, 71, 0
1, 49085, Note_on_c, 1, 73, 127
1, 49085, Note_on_c, 1, 67, 127
1, 49085, Note_on_c, 1, 39, 127
1, 49137, Note_off_c, 1, 73, 0
1, 49137, Note_off_c, 1, 67, 0
1, 49137, Note_off_c, 1, 39, 0
1, 49145, Note_on_c, 1, 71, 127
1, 49145, Note_on_c, 1, 68, 127
1, 49145, Note_on_c, 1, 44, 127
1, 49197, Note_off_c, 1, 71, 0
1, 49205, Note_on_c, 1, 76, 127
1, 49250, Note_off_c, 1, 44, 0
1, 49257, Note_off_c, 1, 76, 0
1, 49265, Note_on_c, 1, 47, 127
1, 49317, Note_off_c, 1, 47, 0
1, 49325, Note_on_c, 1, 70, 127
1, 49325, Note_on_c, 1, 52, 127
1, 49377, Note_off_c, 1, 70, 0
1, 49385, Note_on_c, 1, 73, 127
1, 49430, Note_off_c, 1, 52, 0
1, 49437, Note_off_c, 1, 73, 0
1, 49445, Note_on_c, 1, 49, 127
1, 49490, Note_off_c, 1, 68, 0
1, 49497, Note_off_c, 1, 49, 0
1, 49505, Note_on_c, 1, 73, 127
1, 49505, Note_on_c, 1, 67, 127
1, 49505, Note_on_c, 1, 46, 127
1, 49557, Note_off_c, 1, 73, 0
1, 49565, Note_on_c, 1, 71, 127
1, 49610, Note_off_c, 1, 46, 0
1, 49617, Note_off_c, 1, 71, 0
1, 49625, Note_on_c, 1, 70, 127
1, 49625, Note_on_c, 1, 51, 127
1, 49670, Note_off_c, 1, 67, 0
1, 49677, Note_off_c, 1, 70, 0
1, 49677, Note_off_c, 1, 51, 0
1, 49685, Note_on_c, 1, 71, 127
1, 49685, Note_on_c, 1, 68, 127
1, 49685, Note_on_c, 1, 44, 127
1, 49737, Note_off_c, 1, 71, 0
1, 49745, Note_on_c, 1, 73, 127
1, 49790, Note_off_c, 1, 44, 0
1, 49797, Note_off_c, 1, 73, 0
1, 49805, Note_on_c, 1, 75, 127
1, 49805, Note_on_c, 1, 47, 127
1, 49857, Note_off_c, 1, 47, 0
1, 49865, Note_on_c, 1, 40, 127
1, 49917, Note_off_c, 1, 75, 0
1, 49917, Note_off_c, 1, 40, 0
1, 49925, Note_on_c, 1, 52, 127
1, 49977, Note_off_c, 1, 52, 0
1, 49985, Note_on_c, 1, 51, 127
1, 50037, Note_off_c, 1, 51, 0
1, 50045, Note_on_c, 1, 70, 127
1, 50045, Note_on_c, 1, 50, 127
1, 50097, Note_off_c, 1, 70, 0
1, 50105, Note_on_c, 1, 77, 127
1, 50157, Note_off_c, 1, 77, 0
1, 50277, Note_off_c, 1, 68, 0
1, 50277, Note_off_c, 1, 50, 0
1, 50285, Note_on_c, 1, 67, 127
1, 50285, Note_on_c, 1, 46, 127
1, 50337, Note_off_c, 1, 67, 0
1, 50337, Note_off_c, 1, 46, 0
1, 50345, Note_on_c, 1, 65, 127
1, 50345, Note_on_c, 1, 48, 127
1, 50397, Note_off_c, 1, 65, 0
1, 50397, Note_off_c, 1, 48, 0
1, 50405, Note_on_c, 1, 49, 127
1, 50465, Note_on_c, 1, 76, 127
1, 50517, Note_off_c, 1, 76, 0
1, 50637, Note_off_c, 1, 49, 0
1, 51065, Note_on_c, 1, 70, 127
1, 51065, Note_on_c, 1, 67, 127
1, 51065, Note_on_c, 1, 39, 127
1, 51117, Note_off_c, 1, 70, 0
1, 51117, Note_off_c, 1, 67, 0
1, 51117, Note_off_c, 1, 39, 0
1, 51125, Note_on_c, 1, 68, 127
1, 51125, Note_on_c, 1, 44, 127
1, 51470, Note_off_c, 1, 68, 0
1, 51470, Note_off_c, 1, 44, 0
1, 51470, End_track
0, 0, End_of_file