0, 0, Header, 1, 1, 480
1, 0, Start_track
1, 0, Title_t, "Test"
1, 0, Tempo, 500000
1, 0, Instrument_name_t, "Church Organ"
1, 4, Note_on_c, 1, 47, 127
1, 229, Note_off_c, 1, 47, 0
1, 244, Note_on_c, 1, 51, 127
1, 469, Note_off_c, 1, 51, 0
1, 484, Note_on_c, 1, 56, 127
1, 709, Note_off_c, 1, 56, 0
1, 724, Note_on_c, 1, 52, 127
1, 949, Note_off_c, 1, 52, 0
1, 964, Note_on_c, 1, 49, 127
1, 1189, Note_off_c, 1, 49, 0
1, 1204, Note_on_c, 1, 58, 127
1, 1429, Note_off_c, 1, 58, 0
1, 1444, Note_on_c, 1, 59, 127
1, 1549, Note_off_c, 1, 59, 0
1, 1564, Note_on_c, 1, 58, 127
1, 1616, Note_off_c, 1, 58, 0
1, 1624, Note_on_c, 1, 56, 127
1, 1676, Note_off_c, 1, 56, 0
1, 1684, Note_on_c, 1, 54, 127
1, 1789, Note_off_c, 1, 54, 0
1, 1804, Note_on_c, 1, 52, 127
1, 1909, Note_off_c, 1, 52, 0
1, 1924, Note_on_c, 1, 54, 127
1, 1924, Note_on_c, 1, 51, 127
1, 1976, Note_off_c, 1, 51, 0
1, 1984, Note_on_c, 1, 49, 127
1, 2036, Note_off_c, 1, 49, 0
1, 2044, Note_on_c, 1, 52, 127
1, 2149, Note_off_c, 1, 54, 0
1, 2164, Note_on_c, 1, 58, 127
1, 2269, Note_off_c, 1, 52, 0
1, 2389, Note_off_c, 1, 58, 0
1, 2404, Note_on_c, 1, 63, 127
1, 2404, Note_on_c, 1, 47, 127
1, 2456, Note_off_c, 1, 47, 0
1, 2464, Note_on_c, 1, 54, 127
1, 2516, Note_off_c, 1, 54, 0
1, 2524, Note_on_c, 1, 58, 127
1, 2629, Note_off_c, 1, 63, 0
1, 2644, Note_on_c, 1, 59, 127
1, 2749, Note_off_c, 1, 58, 0
1, 2764, Note_on_c, 1, 56, 127
1, 2816, Note_off_c, 1, 56, 0
1, 2869, Note_off_c, 1, 59, 0
1, 2884, Note_on_c, 1, 56, 127
1, 2884, Note_on_c, 1, 53, 127
1, 2936, Note_off_c, 1, 53, 0
1, 2944, Note_on_c, 1, 59, 127
1, 2996, Note_off_c, 1, 59, 0
1, 3004, Note_on_c, 1, 63, 127
1, 3109, Note_off_c, 1, 56, 0
1, 3124, Note_on_c, 1, 65, 127
1, 3229, Note_off_c, 1, 63, 0
1, 3244, Note_on_c, 1, 61, 127
1, 3296, Note_off_c, 1, 61, 0
1, 3349, Note_off_c, 1, 65, 0
1, 3364, Note_on_c, 1, 66, 127
1, 3364, Note_on_c, 1, 58, 127
1, 3469, Note_off_c, 1, 66, 0
1, 3469, Note_off_c, 1, 58, 0
1, 3484, Note_on_c, 1, 65, 127
1, 3484, Note_on_c, 1, 59, 127
1, 3536, Note_off_c, 1, 65, 0
1, 3544, Note_on_c, 1, 63, 127
1, 3589, Note_off_c, 1, 59, 0
1, 3596, Note_off_c, 1, 63, 0
1, 3604, Note_on_c, 1, 61, 127
1, 3604, Note_on_c, 1, 58, 127
1, 3709, Note_off_c, 1, 61, 0
1, 3709, Note_off_c, 1, 58, 0
1, 3724, Note_on_c, 1, 59, 127
1, 3724, Note_on_c, 1, 56, 127
1, 3829, Note_off_c, 1, 59, 0
1, 3829, Note_off_c, 1, 56, 0
1, 3844, Note_on_c, 1, 58, 127
1, 3844, Note_on_c, 1, 54, 127
1, 3896, Note_off_c, 1, 58, 0
1, 3904, Note_on_c, 1, 56, 127
1, 3949, Note_off_c, 1, 54, 0
1, 3956, Note_off_c, 1, 56, 0
1, 3964, Note_on_c, 1, 59, 127
1, 3964, Note_on_c, 1, 53, 127
1, 4016, Note_off_c, 1, 53, 0
1, 4024, Note_on_c, 1, 51, 127
1, 4076, Note_off_c, 1, 51, 0
1, 4084, Note_on_c, 1, 49, 127
1, 4136, Note_off_c, 1, 49, 0
1, 4189, Note_off_c, 1, 59, 0
1, 4204, Note_on_c, 1, 58, 127
1, 4204, Note_on_c, 1, 52, 127
1, 4256, Note_off_c, 1, 58, 0
1, 4264, Note_on_c, 1, 56, 127
1, 4316, Note_off_c, 1, 56, 0
1, 4324, Note_on_c, 1, 59, 127
1, 4324, Note_on_c, 1, 54, 127
1, 4376, Note_off_c, 1, 54, 0
1, 4429, Note_off_c, 1, 52, 0
1, 4444, Note_on_c, 1, 57, 127
1, 4444, Note_on_c, 1, 51, 127
1, 4496, Note_off_c, 1, 51, 0
1, 4504, Note_on_c, 1, 49, 127
1, 4549, Note_off_c, 1, 59, 0
1, 4556, Note_off_c, 1, 49, 0
1, 4564, Note_on_c, 1, 63, 127
1, 4564, Note_on_c, 1, 47, 127
1, 4669, Note_off_c, 1, 57, 0
1, 4789, Note_off_c, 1, 63, 0
1, 4804, Note_on_c, 1, 68, 127
1, 4969, Note_off_c, 1, 47, 0
1, 4984, Note_on_c, 1, 48, 127
1, 5029, Note_off_c, 1, 68, 0
1, 5036, Note_off_c, 1, 48, 0
1, 5044, Note_on_c, 1, 64, 127
1, 5164, Note_on_c, 1, 61, 127
1, 5216, Note_off_c, 1, 61, 0
1, 5269, Note_off_c, 1, 64, 0
1, 5284, Note_on_c, 1, 61, 127
1, 5284, Note_on_c, 1, 58, 127
1, 5284, Note_on_c, 1, 54, 127
1, 5336, Note_off_c, 1, 58, 0
1, 5344, Note_on_c, 1, 64, 127
1, 5396, Note_off_c, 1, 64, 0
1, 5404, Note_on_c, 1, 68, 127
1, 5449, Note_off_c, 1, 54, 0
1, 5464, Note_on_c, 1, 52, 127
1, 5509, Note_off_c, 1, 61, 0
1, 5516, Note_off_c, 1, 52, 0
1, 5524, Note_on_c, 1, 70, 127
1, 5524, Note_on_c, 1, 51, 127
1, 5576, Note_off_c, 1, 51, 0
1, 5584, Note_on_c, 1, 49, 127
1, 5629, Note_off_c, 1, 68, 0
1, 5636, Note_off_c, 1, 49, 0
1, 5644, Note_on_c, 1, 66, 127
1, 5696, Note_off_c, 1, 66, 0
1, 5749, Note_off_c, 1, 70, 0
1, 5764, Note_on_c, 1, 71, 127
1, 5764, Note_on_c, 1, 63, 127
1, 5764, Note_on_c, 1, 56, 127
1, 5869, Note_off_c, 1, 71, 0
1, 5869, Note_off_c, 1, 63, 0
1, 5869, Note_off_c, 1, 56, 0
1, 5884, Note_on_c, 1, 70, 127
1, 5884, Note_on_c, 1, 64, 127
1, 5884, Note_on_c, 1, 44, 127
1, 5936, Note_off_c, 1, 70, 0
1, 5944, Note_on_c, 1, 68, 127
1, 5989, Note_off_c, 1, 64, 0
1, 5996, Note_off_c, 1, 68, 0
1, 6004, Note_on_c, 1, 66, 127
1, 6004, Note_on_c, 1, 63, 127
1, 6109, Note_off_c, 1, 44, 0
1, 6109, Note_off_c, 1, 66, 0
1, 6109, Note_off_c, 1, 63, 0
1, 6124, Note_on_c, 1, 64, 127
1, 6124, Note_on_c, 1, 61, 127
1, 6124, Note_on_c, 1, 46, 127
1, 6229, Note_off_c, 1, 64, 0
1, 6229, Note_off_c, 1, 61, 0
1, 6229, Note_off_c, 1, 46, 0
1, 6244, Note_on_c, 1, 66, 127
1, 6244, Note_on_c, 1, 63, 127
1, 6244, Note_on_c, 1, 59, 127
1, 6244, Note_on_c, 1, 47, 127
1, 6296, Note_off_c, 1, 63, 0
1, 6304, Note_on_c, 1, 61, 127
1, 6349, Note_off_c, 1, 59, 0
1, 6349, Note_off_c, 1, 47, 0
1, 6356, Note_off_c, 1, 61, 0
1, 6364, Note_on_c, 1, 64, 127
1, 6364, Note_on_c, 1, 58, 127
1, 6416, Note_off_c, 1, 58, 0
1, 6424, Note_on_c, 1, 56, 127
1, 6469, Note_off_c, 1, 66, 0
1, 6476, Note_off_c, 1, 56, 0
1, 6484, Note_on_c, 1, 70, 127
1, 6484, Note_on_c, 1, 54, 127
1, 6589, Note_off_c, 1, 64, 0
1, 6709, Note_off_c, 1, 70, 0
1, 6724, Note_on_c, 1, 75, 127
1, 6889, Note_off_c, 1, 54, 0
1, 6904, Note_on_c, 1, 55, 127
1, 6949, Note_off_c, 1, 75, 0
1, 6956, Note_off_c, 1, 55, 0
1, 6964, Note_on_c, 1, 71, 127
1, 7084, Note_on_c, 1, 68, 127
1, 7136, Note_off_c, 1, 68, 0
1, 7189, Note_off_c, 1, 71, 0
1, 7204, Note_on_c, 1, 68, 127
1, 7204, Note_on_c, 1, 65, 127
1, 7204, Note_on_c, 1, 61, 127
1, 7256, Note_off_c, 1, 65, 0
1, 7264, Note_on_c, 1, 71, 127
1, 7316, Note_off_c, 1, 71, 0
1, 7324, Note_on_c, 1, 75, 127
1, 7369, Note_off_c, 1, 61, 0
1, 7384, Note_on_c, 1, 59, 127
1, 7429, Note_off_c, 1, 68, 0
1, 7436, Note_off_c, 1, 59, 0
1, 7444, Note_on_c, 1, 77, 127
1, 7444, Note_on_c, 1, 58, 127
1, 7496, Note_off_c, 1, 58, 0
1, 7504, Note_on_c, 1, 56, 127
1, 7549, Note_off_c, 1, 75, 0
1, 7556, Note_off_c, 1, 56, 0
1, 7564, Note_on_c, 1, 73, 127
1, 7616, Note_off_c, 1, 73, 0
1, 7669, Note_off_c, 1, 77, 0
1, 7684, Note_on_c, 1, 78, 127
1, 7684, Note_on_c, 1, 70, 127
1, 7684, Note_on_c, 1, 63, 127
1, 7789, Note_off_c, 1, 78, 0
1, 7789, Note_off_c, 1, 70, 0
1, 7789, Note_off_c, 1, 63, 0
1, 7804, Note_on_c, 1, 77, 127
1, 7804, Note_on_c, 1, 71, 127
1, 7804, Note_on_c, 1, 51, 127
1, 7856, Note_off_c, 1, 77, 0
1, 7864, Note_on_c, 1, 75, 127
1, 7909, Note_off_c, 1, 71, 0
1, 7916, Note_off_c, 1, 75, 0
1, 7924, Note_on_c, 1, 73, 127
1, 7924, Note_on_c, 1, 70, 127
1, 8029, Note_off_c, 1, 51, 0
1, 8029, Note_off_c, 1, 73, 0
1, 8029, Note_off_c, 1, 70, 0
1, 8044, Note_on_c, 1, 71, 127
1, 8044, Note_on_c, 1, 68, 127
1, 8044, Note_on_c, 1, 53, 127
1, 8149, Note_off_c, 1, 71, 0
1, 8149, Note_off_c, 1, 68, 0
1, 8149, Note_off_c, 1, 53, 0
1, 8164, Note_on_c, 1, 70, 127
1, 8164, Note_on_c, 1, 66, 127
1, 8164, Note_on_c, 1, 54, 127
1, 8216, Note_off_c, 1, 70, 0
1, 8224, Note_on_c, 1, 68, 127
1, 8269, Note_off_c, 1, 66, 0
1, 8269, Note_off_c, 1, 54, 0
1, 8276, Note_off_c, 1, 68, 0
1, 8284, Note_on_c, 1, 71, 127
1, 8284, Note_on_c, 1, 65, 127
1, 8284, Note_on_c, 1, 56, 127
1, 8336, Note_off_c, 1, 65, 0
1, 8344, Note_on_c, 1, 63, 127
1, 8389, Note_off_c, 1, 56, 0
1, 8396, Note_off_c, 1, 63, 0
1, 8404, Note_on_c, 1, 61, 127
1, 8404, Note_on_c, 1, 58, 127
1, 8456, Note_off_c, 1, 61, 0
1, 8509, Note_off_c, 1, 71, 0
1, 8509, Note_off_c, 1, 58, 0
1, 8524, Note_on_c, 1, 70, 127
1, 8524, Note_on_c, 1, 64, 127
1, 8524, Note_on_c, 1, 54, 127
1, 8576, Note_off_c, 1, 70, 0
1, 8584, Note_on_c, 1, 68, 127
1, 8629, Note_off_c, 1, 54, 0
1, 8636, Note_off_c, 1, 68, 0
1, 8644, Note_on_c, 1, 66, 127
1, 8644, Note_on_c, 1, 59, 127
1, 8644, Note_on_c, 1, 47, 127
1, 8696, Note_off_c, 1, 66, 0
1, 8749, Note_off_c, 1, 64, 0
1, 8749, Note_off_c, 1, 59, 0
1, 8764, Note_on_c, 1, 69, 127
1, 8764, Note_on_c, 1, 63, 127
1, 8816, Note_off_c, 1, 63, 0
1, 8824, Note_on_c, 1, 61, 127
1, 8824, Note_on_c, 1, 52, 127
1, 8869, Note_off_c, 1, 47, 0
1, 8876, Note_off_c, 1, 61, 0
1, 8876, Note_off_c, 1, 52, 0
1, 8884, Note_on_c, 1, 51, 127
1, 8989, Note_off_c, 1, 69, 0
1, 9109, Note_off_c, 1, 51, 0
1, 9124, Note_on_c, 1, 56, 127
1, 9184, Note_on_c, 1, 71, 127
1, 9236, Note_off_c, 1, 71, 0
1, 9244, Note_on_c, 1, 75, 127
1, 9304, Note_on_c, 1, 58, 127
1, 9349, Note_off_c, 1, 56, 0
1, 9356, Note_off_c, 1, 58, 0
1, 9469, Note_off_c, 1, 75, 0
1, 9484, Note_on_c, 1, 73, 127
1, 9536, Note_off_c, 1, 73, 0
1, 9604, Note_on_c, 1, 70, 127
1, 9604, Note_on_c, 1, 61, 127
1, 9604, Note_on_c, 1, 49, 127
1, 9664, Note_on_c, 1, 76, 127
1, 9716, Note_off_c, 1, 76, 0
1, 9724, Note_on_c, 1, 80, 127
1, 9769, Note_off_c, 1, 70, 0
1, 9784, Note_on_c, 1, 71, 127
1, 9829, Note_off_c, 1, 49, 0
1, 9836, Note_off_c, 1, 71, 0
1, 9844, Note_on_c, 1, 73, 127
1, 9844, Note_on_c, 1, 58, 127
1, 9896, Note_off_c, 1, 61, 0
1, 9949, Note_off_c, 1, 80, 0
1, 9964, Note_on_c, 1, 78, 127
1, 9964, Note_on_c, 1, 66, 127
1, 10016, Note_off_c, 1, 78, 0
1, 10069, Note_off_c, 1, 58, 0
1, 10084, Note_on_c, 1, 75, 127
1, 10084, Note_on_c, 1, 59, 127
1, 10136, Note_off_c, 1, 73, 0
1, 10189, Note_off_c, 1, 66, 0
1, 10189, Note_off_c, 1, 59, 0
1, 10204, Note_on_c, 1, 63, 127
1, 10256, Note_off_c, 1, 63, 0
1, 10264, Note_on_c, 1, 64, 127
1, 10316, Note_off_c, 1, 64, 0
1, 10324, Note_on_c, 1, 68, 127
1, 10376, Note_off_c, 1, 68, 0
1, 10384, Note_on_c, 1, 67, 127
1, 10436, Note_off_c, 1, 67, 0
1, 10564, Note_on_c, 1, 56, 127
1, 10669, Note_off_c, 1, 75, 0
1, 10684, Note_on_c, 1, 79, 127
1, 10789, Note_off_c, 1, 79, 0
1, 10856, Note_off_c, 1, 56, 0
1, 10864, Note_on_c, 1, 55, 127
1, 10916, Note_off_c, 1, 55, 0
1, 10924, Note_on_c, 1, 73, 127
1, 10924, Note_on_c, 1, 70, 127
1, 10924, Note_on_c, 1, 64, 127
1, 10924, Note_on_c, 1, 56, 127
1, 10976, Note_off_c, 1, 56, 0
1, 10984, Note_on_c, 1, 55, 127
1, 11029, Note_off_c, 1, 73, 0
1, 11029, Note_off_c, 1, 64, 0
1, 11036, Note_off_c, 1, 55, 0
1, 11044, Note_on_c, 1, 71, 127
1, 11044, Note_on_c, 1, 63, 127
1, 11096, Note_off_c, 1, 70, 0
1, 11164, Note_on_c, 1, 68, 127
1, 11164, Note_on_c, 1, 59, 127
1, 11209, Note_off_c, 1, 63, 0
1, 11216, Note_off_c, 1, 68, 0
1, 11216, Note_off_c, 1, 59, 0
1, 11224, Note_on_c, 1, 66, 127
1, 11224, Note_on_c, 1, 61, 127
1, 11224, Note_on_c, 1, 58, 127
1, 11276, Note_off_c, 1, 66, 0
1, 11276, Note_off_c, 1, 61, 0
1, 11276, Note_off_c, 1, 58, 0
1, 11284, Note_on_c, 1, 65, 127
1, 11336, Note_off_c, 1, 65, 0
1, 11404, Note_on_c, 1, 62, 127
1, 11404, Note_on_c, 1, 54, 127
1, 11509, Note_off_c, 1, 62, 0
1, 11509, Note_off_c, 1, 54, 0
1, 11524, Note_on_c, 1, 53, 127
1, 11576, Note_off_c, 1, 71, 0
1, 11749, Note_off_c, 1, 53, 0
1, 12004, Note_on_c, 1, 49, 127
1, 12124, Note_on_c, 1, 75, 127
1, 12349, Note_off_c, 1, 75, 0
1, 12469, Note_off_c, 1, 49, 0
1, 12484, Note_on_c, 1, 70, 127
1, 12484, Note_on_c, 1, 66, 127
1, 12484, Note_on_c, 1, 54, 127
1, 12484, Note_on_c, 1, 42, 127
1, 12709, Note_off_c, 1, 70, 0
1, 12709, Note_off_c, 1, 66, 0
1, 12709, Note_off_c, 1, 54, 0
1, 12709, Note_off_c, 1, 42, 0
1, 12724, Note_on_c, 1, 58, 127
1, 12949, Note_off_c, 1, 58, 0
1, 12964, Note_on_c, 1, 63, 127
1, 13084, Note_on_c, 1, 78, 127
1, 13136, Note_off_c, 1, 78, 0
1, 13144, Note_on_c, 1, 76, 127
1, 13189, Note_off_c, 1, 63, 0
1, 13196, Note_off_c, 1, 76, 0
1, 13204, Note_on_c, 1, 75, 127
1, 13204, Note_on_c, 1, 59, 127
1, 13256, Note_off_c, 1, 75, 0
1, 13264, Note_on_c, 1, 76, 127
1, 13316, Note_off_c, 1, 76, 0
1, 13324, Note_on_c, 1, 78, 127
1, 13376, Note_off_c, 1, 78, 0
1, 13429, Note_off_c, 1, 59, 0
1, 13444, Note_on_c, 1, 71, 127
1, 13444, Note_on_c, 1, 56, 127
1, 13496, Note_off_c, 1, 71, 0
1, 13504, Note_on_c, 1, 73, 127
1, 13556, Note_off_c, 1, 73, 0
1, 13564, Note_on_c, 1, 75, 127
1, 13616, Note_off_c, 1, 75, 0
1, 13669, Note_off_c, 1, 56, 0
1, 13684, Note_on_c, 1, 68, 127
1, 13684, Note_on_c, 1, 65, 127
1, 13736, Note_off_c, 1, 68, 0
1, 13744, Note_on_c, 1, 70, 127
1, 13796, Note_off_c, 1, 70, 0
1, 13804, Note_on_c, 1, 71, 127
1, 13909, Note_off_c, 1, 65, 0
1, 13924, Note_on_c, 1, 66, 127
1, 13976, Note_off_c, 1, 71, 0
1, 14164, Note_on_c, 1, 73, 127
1, 14216, Note_off_c, 1, 66, 0
1, 14224, Note_on_c, 1, 64, 127
1, 14276, Note_off_c, 1, 64, 0
1, 14284, Note_on_c, 1, 63, 127
1, 14336, Note_off_c, 1, 63, 0
1, 14344, Note_on_c, 1, 61, 127
1, 14396, Note_off_c, 1, 61, 0
1, 14456, Note_off_c, 1, 73, 0
1, 14524, Note_on_c, 1, 59, 127
1, 14576, Note_off_c, 1, 59, 0
1, 14584, Note_on_c, 1, 58, 127
1, 14636, Note_off_c, 1, 58, 0
1, 14644, Note_on_c, 1, 56, 127
1, 14696, Note_off_c, 1, 56, 0
1, 14884, Note_on_c, 1, 52, 127
1, 14936, Note_off_c, 1, 52, 0
1, 14944, Note_on_c, 1, 54, 127
1, 14996, Note_off_c, 1, 54, 0
1, 15124, Note_on_c, 1, 49, 127
1, 15176, Note_off_c, 1, 49, 0
1, 15184, Note_on_c, 1, 51, 127
1, 15236, Note_off_c, 1, 51, 0
1, 15244, Note_on_c, 1, 73, 127
1, 15244, Note_on_c, 1, 58, 127
1, 15244, Note_on_c, 1, 52, 127
1, 15296, Note_off_c, 1, 73, 0
1, 15304, Note_on_c, 1, 70, 127
1, 15349, Note_off_c, 1, 58, 0
1, 15356, Note_off_c, 1, 70, 0
1, 15364, Note_on_c, 1, 66, 127
1, 15364, Note_on_c, 1, 59, 127
1, 15416, Note_off_c, 1, 52, 0
1, 15424, Note_on_c, 1, 49, 127
1, 15469, Note_off_c, 1, 66, 0
1, 15476, Note_off_c, 1, 49, 0
1, 15484, Note_on_c, 1, 83, 127
1, 15484, Note_on_c, 1, 51, 127
1, 15536, Note_off_c, 1, 83, 0
1, 15544, Note_on_c, 1, 82, 127
1, 15589, Note_off_c, 1, 51, 0
1, 15596, Note_off_c, 1, 82, 0
1, 15604, Note_on_c, 1, 80, 127
1, 15656, Note_off_c, 1, 80, 0
1, 15724, Note_on_c, 1, 47, 127
1, 15829, Note_off_c, 1, 47, 0
1, 15844, Note_on_c, 1, 76, 127
1, 15896, Note_off_c, 1, 76, 0
1, 15904, Note_on_c, 1, 78, 127
1, 15956, Note_off_c, 1, 78, 0
1, 16084, Note_on_c, 1, 54, 127
1, 16136, Note_off_c, 1, 59, 0
1, 16144, Note_on_c, 1, 75, 127
1, 16196, Note_off_c, 1, 75, 0
1, 16204, Note_on_c, 1, 56, 127
1, 16256, Note_off_c, 1, 56, 0
1, 16309, Note_off_c, 1, 54, 0
1, 16564, Note_on_c, 1, 71, 127
1, 16564, Note_on_c, 1, 63, 127
1, 16564, Note_on_c, 1, 56, 127
1, 16616, Note_off_c, 1, 56, 0
1, 16624, Note_on_c, 1, 58, 127
1, 16676, Note_off_c, 1, 58, 0
1, 16684, Note_on_c, 1, 59, 127
1, 16736, Note_off_c, 1, 59, 0
1, 16789, Note_off_c, 1, 63, 0
1, 16804, Note_off_c, 1, 71, 0
1, 16804, Note_on_c, 1, 68, 127
1, 16804, Note_on_c, 1, 52, 127
1, 16864, Note_on_c, 1, 47, 127
1, 16909, Note_off_c, 1, 52, 0
1, 16916, Note_off_c, 1, 47, 0
1, 16924, Note_on_c, 1, 73, 127
1, 16976, Note_off_c, 1, 73, 0
1, 16984, Note_on_c, 1, 51, 127
1, 17029, Note_off_c, 1, 68, 0
1, 17036, Note_off_c, 1, 51, 0
1, 17044, Note_on_c, 1, 70, 127
1, 17044, Note_on_c, 1, 64, 127
1, 17044, Note_on_c, 1, 49, 127
1, 17096, Note_off_c, 1, 49, 0
1, 17104, Note_on_c, 1, 51, 127
1, 17149, Note_off_c, 1, 70, 0
1, 17156, Note_off_c, 1, 51, 0
1, 17164, Note_on_c, 1, 68, 127
1, 17164, Note_on_c, 1, 52, 127
1, 17216, Note_off_c, 1, 52, 0
1, 17269, Note_off_c, 1, 64, 0
1, 17269, Note_off_c, 1, 68, 0
1, 17284, Note_on_c, 1, 67, 127
1, 17284, Note_on_c, 1, 61, 127
1, 17284, Note_on_c, 1, 46, 127
1, 17336, Note_off_c, 1, 46, 0
1, 17344, Note_on_c, 1, 47, 127
1, 17389, Note_off_c, 1, 67, 0
1, 17396, Note_off_c, 1, 47, 0
1, 17404, Note_on_c, 1, 64, 127
1, 17404, Note_on_c, 1, 49, 127
1, 17456, Note_off_c, 1, 49, 0
1, 17509, Note_off_c, 1, 61, 0
1, 17509, Note_off_c, 1, 64, 0
1, 17524, Note_on_c, 1, 70, 127
1, 17524, Note_on_c, 1, 63, 127
1, 17524, Note_on_c, 1, 43, 127
1, 17576, Note_off_c, 1, 43, 0
1, 17584, Note_on_c, 1, 44, 127
1, 17629, Note_off_c, 1, 63, 0
1, 17636, Note_off_c, 1, 44, 0
1, 17644, Note_on_c, 1, 68, 127
1, 17644, Note_on_c, 1, 61, 127
1, 17644, Note_on_c, 1, 46, 127
1, 17696, Note_off_c, 1, 68, 0
1, 17704, Note_on_c, 1, 67, 127
1, 17749, Note_off_c, 1, 70, 0
1, 17749, Note_off_c, 1, 61, 0
1, 17756, Note_off_c, 1, 67, 0
1, 17764, Note_on_c, 1, 71, 127
1, 17816, Note_off_c, 1, 46, 0
1, 17944, Note_on_c, 1, 47, 127
1, 17996, Note_off_c, 1, 47, 0
1, 18004, Note_on_c, 1, 64, 127
1, 18004, Note_on_c, 1, 49, 127
1, 18056, Note_off_c, 1, 71, 0
1, 18229, Note_off_c, 1, 64, 0
1, 18244, Note_on_c, 1, 66, 127
1, 18296, Note_off_c, 1, 49, 0
1, 18304, Note_on_c, 1, 42, 127
1, 18356, Note_off_c, 1, 42, 0
1, 18364, Note_on_c, 1, 59, 127
1, 18416, Note_off_c, 1, 59, 0
1, 18484, Note_on_c, 1, 62, 127
1, 18536, Note_off_c, 1, 66, 0
1, 18544, Note_on_c, 1, 69, 127
1, 18596, Note_off_c, 1, 69, 0
1, 18709, Note_off_c, 1, 62, 0
1, 18724, Note_on_c, 1, 65, 127
1, 18776, Note_off_c, 1, 65, 0
1, 18964, Note_on_c, 1, 51, 127
1, 19069, Note_off_c, 1, 51, 0
1, 19084, Note_on_c, 1, 58, 127
1, 19136, Note_off_c, 1, 58, 0
1, 19204, Note_on_c, 1, 56, 127
1, 19496, Note_off_c, 1, 56, 0
1, 20164, Note_on_c, 1, 75, 127
1, 20164, Note_on_c, 1, 59, 127
1, 20224, Note_on_c, 1, 51, 127
1, 20276, Note_off_c, 1, 51, 0
1, 20284, Note_on_c, 1, 71, 127
1, 20284, Note_on_c, 1, 53, 127
1, 20336, Note_off_c, 1, 71, 0
1, 20336, Note_off_c, 1, 53, 0
1, 20344, Note_on_c, 1, 70, 127
1, 20344, Note_on_c, 1, 55, 127
1, 20389, Note_off_c, 1, 75, 0
1, 20389, Note_off_c, 1, 59, 0
1, 20396, Note_off_c, 1, 70, 0
1, 20396, Note_off_c, 1, 55, 0
1, 20404, Note_on_c, 1, 71, 127
1, 20404, Note_on_c, 1, 68, 127
1, 20404, Note_on_c, 1, 56, 127
1, 20456, Note_off_c, 1, 68, 0
1, 20456, Note_off_c, 1, 56, 0
1, 20464, Note_on_c, 1, 70, 127
1, 20464, Note_on_c, 1, 55, 127
1, 20516, Note_off_c, 1, 70, 0
1, 20516, Note_off_c, 1, 55, 0
1, 20629, Note_off_c, 1, 71, 0
1, 20644, Note_on_c, 1, 65, 127
1, 20696, Note_off_c, 1, 65, 0
1, 20704, Note_on_c, 1, 66, 127
1, 20756, Note_off_c, 1, 66, 0
1, 20764, Note_on_c, 1, 59, 127
1, 20869, Note_off_c, 1, 59, 0
1, 20884, Note_on_c, 1, 77, 127
1, 20884, Note_on_c, 1, 62, 127
1, 20884, Note_on_c, 1, 58, 127
1, 20936, Note_off_c, 1, 62, 0
1, 20944, Note_on_c, 1, 63, 127
1, 20996, Note_off_c, 1, 63, 0
1, 21004, Note_on_c, 1, 50, 127
1, 21049, Note_off_c, 1, 58, 0
1, 21109, Note_off_c, 1, 77, 0
1, 21109, Note_off_c, 1, 50, 0
1, 21124, Note_on_c, 1, 78, 127
1, 21124, Note_on_c, 1, 54, 127
1, 21124, Note_on_c, 1, 51, 127
1, 21229, Note_off_c, 1, 54, 0
1, 21229, Note_off_c, 1, 51, 0
1, 21416, Note_off_c, 1, 78, 0
1, 21544, Note_on_c, 1, 80, 127
1, 21596, Note_off_c, 1, 80, 0
1, 21604, Note_on_c, 1, 82, 127
1, 21896, Note_off_c, 1, 82, 0
1, 22204, Note_on_c, 1, 79, 127
1, 22204, Note_on_c, 1, 70, 127
1, 22256, Note_off_c, 1, 79, 0
1, 22256, Note_off_c, 1, 70, 0
1, 22264, Note_on_c, 1, 80, 127
1, 22264, Note_on_c, 1, 68, 127
1, 22316, Note_off_c, 1, 80, 0
1, 22316, Note_off_c, 1, 68, 0
1, 22324, Note_on_c, 1, 79, 127
1, 22324, Note_on_c, 1, 70, 127
1, 22376, Note_off_c, 1, 79, 0
1, 22376, Note_off_c, 1, 70, 0
1, 22384, Note_on_c, 1, 80, 127
1, 22384, Note_on_c, 1, 71, 127
1, 22436, Note_off_c, 1, 80, 0
1, 22436, Note_off_c, 1, 71, 0
1, 22444, Note_on_c, 1, 82, 127
1, 22444, Note_on_c, 1, 73, 127
1, 22496, Note_off_c, 1, 82, 0
1, 22504, Note_on_c, 1, 79, 127
1, 22556, Note_off_c, 1, 79, 0
1, 22564, Note_on_c, 1, 75, 127
1, 22564, Note_on_c, 1, 44, 127
1, 22616, Note_off_c, 1, 73, 0
1, 22684, Note_on_c, 1, 71, 127
1, 22736, Note_off_c, 1, 71, 0
1, 22744, Note_on_c, 1, 70, 127
1, 22789, Note_off_c, 1, 75, 0
1, 22789, Note_off_c, 1, 44, 0
1, 22796, Note_off_c, 1, 70, 0
1, 22804, Note_on_c, 1, 68, 127
1, 22804, Note_on_c, 1, 47, 127
1, 22856, Note_off_c, 1, 68, 0
1, 22864, Note_on_c, 1, 70, 127
1, 22916, Note_off_c, 1, 70, 0
1, 22924, Note_on_c, 1, 71, 127
1, 22976, Note_off_c, 1, 71, 0
1, 23029, Note_off_c, 1, 47, 0
1, 23044, Note_on_c, 1, 61, 127
1, 23044, Note_on_c, 1, 52, 127
1, 23096, Note_off_c, 1, 61, 0
1, 23104, Note_on_c, 1, 60, 127
1, 23156, Note_off_c, 1, 60, 0
1, 23164, Note_on_c, 1, 80, 127
1, 23216, Note_off_c, 1, 80, 0
1, 23224, Note_on_c, 1, 78, 127
1, 23269, Note_off_c, 1, 52, 0
1, 23276, Note_off_c, 1, 78, 0
1, 23284, Note_on_c, 1, 76, 127
1, 23284, Note_on_c, 1, 49, 127
1, 23336, Note_off_c, 1, 76, 0
1, 23404, Note_on_c, 1, 68, 127
1, 23509, Note_off_c, 1, 49, 0
1, 23524, Note_on_c, 1, 73, 127
1, 23524, Note_on_c, 1, 46, 127
1, 23576, Note_off_c, 1, 73, 0
1, 23584, Note_on_c, 1, 75, 127
1, 23629, Note_off_c, 1, 68, 0
1, 23636, Note_off_c, 1, 75, 0
1, 23644, Note_on_c, 1, 67, 127
1, 23749, Note_off_c, 1, 46, 0
1, 23749, Note_off_c, 1, 67, 0
1, 23764, Note_on_c, 1, 70, 127
1, 23764, Note_on_c, 1, 55, 127
1, 23816, Note_off_c, 1, 70, 0
1, 23824, Note_on_c, 1, 71, 127
1, 23876, Note_off_c, 1, 71, 0
1, 23884, Note_on_c, 1, 73, 127
1, 23989, Note_off_c, 1, 55, 0
1, 24004, Note_on_c, 1, 63, 127
1, 24004, Note_on_c, 1, 56, 127
1, 24056, Note_off_c, 1, 73, 0
1, 24169, Note_off_c, 1, 63, 0
1, 24184, Note_on_c, 1, 66, 127
1, 24236, Note_off_c, 1, 66, 0
1, 24244, Note_on_c, 1, 65, 127
1, 24296, Note_off_c, 1, 56, 0
1, 24296, Note_off_c, 1, 65, 0
1, 24304, Note_on_c, 1, 68, 127
1, 24304, Note_on_c, 1, 54, 127
1, 24356, Note_off_c, 1, 68, 0
1, 24356, Note_off_c, 1, 54, 0
1, 24364, Note_on_c, 1, 61, 127
1, 24364, Note_on_c, 1, 53, 127
1, 24416, Note_off_c, 1, 53, 0
1, 24649, Note_off_c, 1, 61, 0
1, 24664, Note_on_c, 1, 64, 127
1, 24716, Note_off_c, 1, 64, 0
1, 24784, Note_on_c, 1, 52, 127
1, 24836, Note_off_c, 1, 52, 0
1, 24844, Note_on_c, 1, 59, 127
1, 24844, Note_on_c, 1, 51, 127
1, 24896, Note_off_c, 1, 51, 0
1, 24904, Note_on_c, 1, 69, 127
1, 24956, Note_off_c, 1, 69, 0
1, 25024, Note_on_c, 1, 67, 127
1, 25076, Note_off_c, 1, 67, 0
1, 25129, Note_off_c, 1, 59, 0
1, 25144, Note_on_c, 1, 60, 127
1, 25196, Note_off_c, 1, 60, 0
1, 25204, Note_on_c, 1, 49, 127
1, 25256, Note_off_c, 1, 49, 0
1, 25264, Note_on_c, 1, 72, 127
1, 25316, Note_off_c, 1, 72, 0
1, 25444, Note_on_c, 1, 45, 127
1, 25496, Note_off_c, 1, 45, 0
1, 25684, Note_on_c, 1, 75, 127
1, 25684, Note_on_c, 1, 57, 127
1, 25804, Note_on_c, 1, 48, 127
1, 25909, Note_off_c, 1, 57, 0
1, 25976, Note_off_c, 1, 48, 0
1, 26029, Note_off_c, 1, 75, 0
1, 26164, Note_on_c, 1, 44, 127
1, 26216, Note_off_c, 1, 44, 0
1, 26224, Note_on_c, 1, 46, 127
1, 26276, Note_off_c, 1, 46, 0
1, 26704, Note_on_c, 1, 47, 127
1, 26756, Note_off_c, 1, 47, 0
1, 26884, Note_on_c, 1, 42, 127
1, 26936, Note_off_c, 1, 42, 0
1, 27004, Note_on_c, 1, 78, 127
1, 27056, Note_off_c, 1, 78, 0
1, 27064, Note_on_c, 1, 76, 127
1, 27116, Note_off_c, 1, 76, 0
1, 27124, Note_on_c, 1, 78, 127
1, 27124, Note_on_c, 1, 39, 127
1, 27176, Note_off_c, 1, 39, 0
1, 27184, Note_on_c, 1, 40, 127
1, 27229, Note_off_c, 1, 78, 0
1, 27236, Note_off_c, 1, 40, 0
1, 27244, Note_on_c, 1, 75, 127
1, 27244, Note_on_c, 1, 69, 127
1, 27244, Note_on_c, 1, 66, 127
1, 27244, Note_on_c, 1, 42, 127
1, 27296, Note_off_c, 1, 42, 0
1, 27304, Note_on_c, 1, 39, 127
1, 27349, Note_off_c, 1, 75, 0
1, 27349, Note_off_c, 1, 66, 0
1, 27356, Note_off_c, 1, 39, 0
1, 27364, Note_on_c, 1, 71, 127
1, 27364, Note_on_c, 1, 63, 127
1, 27364, Note_on_c, 1, 44, 127
1, 27416, Note_off_c, 1, 44, 0
1, 27469, Note_off_c, 1, 69, 0
1, 27469, Note_off_c, 1, 71, 0
1, 27469, Note_off_c, 1, 63, 0
1, 27484, Note_on_c, 1, 73, 127
1, 27484, Note_on_c, 1, 68, 127
1, 27484, Note_on_c, 1, 64, 127
1, 27484, Note_on_c, 1, 40, 127
1, 27536, Note_off_c, 1, 73, 0
1, 27536, Note_off_c, 1, 68, 0
1, 27536, Note_off_c, 1, 40, 0
1, 27544, Note_on_c, 1, 75, 127
1, 27544, Note_on_c, 1, 69, 127
1, 27544, Note_on_c, 1, 42, 127
1, 27589, Note_off_c, 1, 64, 0
1, 27596, Note_off_c, 1, 75, 0
1, 27596, Note_off_c, 1, 69, 0
1, 27596, Note_off_c, 1, 42, 0
1, 27604, Note_on_c, 1, 76, 127
1, 27604, Note_on_c, 1, 71, 127
1, 27604, Note_on_c, 1, 44, 127
1, 27656, Note_off_c, 1, 44, 0
1, 27664, Note_on_c, 1, 42, 127
1, 27709, Note_off_c, 1, 76, 0
1, 27709, Note_off_c, 1, 71, 0
1, 27716, Note_off_c, 1, 42, 0
1, 27724, Note_on_c, 1, 69, 127
1, 27724, Note_on_c, 1, 66, 127
1, 27724, Note_on_c, 1, 61, 127
1, 27724, Note_on_c, 1, 44, 127
1, 27776, Note_off_c, 1, 44, 0
1, 27784, Note_on_c, 1, 45, 127
1, 27829, Note_off_c, 1, 69, 0
1, 27829, Note_off_c, 1, 61, 0
1, 27836, Note_off_c, 1, 45, 0
1, 27844, Note_on_c, 1, 68, 127
1, 27844, Note_on_c, 1, 59, 127
1, 27844, Note_on_c, 1, 47, 127
1, 27896, Note_off_c, 1, 66, 0
1, 27904, Note_on_c, 1, 63, 127
1, 27956, Note_off_c, 1, 63, 0
1, 27964, Note_on_c, 1, 64, 127
1, 28009, Note_off_c, 1, 68, 0
1, 28136, Note_off_c, 1, 64, 0
1, 28249, Note_off_c, 1, 59, 0
1, 28264, Note_on_c, 1, 57, 127
1, 28309, Note_off_c, 1, 47, 0
1, 28316, Note_off_c, 1, 57, 0
1, 28324, Note_on_c, 1, 64, 127
1, 28324, Note_on_c, 1, 56, 127
1, 28324, Note_on_c, 1, 52, 127
1, 28384, Note_on_c, 1, 71, 127
1, 28436, Note_off_c, 1, 71, 0
1, 28444, Note_on_c, 1, 76, 127
1, 28549, Note_off_c, 1, 64, 0
1, 28549, Note_off_c, 1, 56, 0
1, 28549, Note_off_c, 1, 52, 0
1, 28564, Note_on_c, 1, 59, 127
1, 28616, Note_off_c, 1, 76, 0
1, 28624, Note_on_c, 1, 73, 127
1, 28676, Note_off_c, 1, 73, 0
1, 28684, Note_on_c, 1, 83, 127
1, 28684, Note_on_c, 1, 75, 127
1, 28736, Note_off_c, 1, 83, 0
1, 28744, Note_on_c, 1, 81, 127
1, 28789, Note_off_c, 1, 59, 0
1, 28789, Note_off_c, 1, 75, 0
1, 28796, Note_off_c, 1, 81, 0
1, 28804, Note_on_c, 1, 80, 127
1, 28804, Note_on_c, 1, 64, 127
1, 28856, Note_off_c, 1, 80, 0
1, 28864, Note_on_c, 1, 81, 127
1, 28916, Note_off_c, 1, 81, 0
1, 28924, Note_on_c, 1, 83, 127
1, 28924, Note_on_c, 1, 68, 127
1, 28976, Note_off_c, 1, 83, 0
1, 29029, Note_off_c, 1, 64, 0
1, 29044, Note_on_c, 1, 76, 127
1, 29044, Note_on_c, 1, 61, 127
1, 29096, Note_off_c, 1, 76, 0
1, 29104, Note_on_c, 1, 78, 127
1, 29156, Note_off_c, 1, 78, 0
1, 29164, Note_off_c, 1, 68, 0
1, 29269, Note_off_c, 1, 61, 0
1, 29284, Note_on_c, 1, 73, 127
1, 29284, Note_on_c, 1, 58, 127
1, 29336, Note_off_c, 1, 73, 0
1, 29344, Note_on_c, 1, 75, 127
1, 29396, Note_off_c, 1, 75, 0
1, 29404, Note_on_c, 1, 76, 127
1, 29464, Note_on_c, 1, 71, 127
1, 29509, Note_off_c, 1, 58, 0
1, 29516, Note_off_c, 1, 71, 0
1, 29524, Note_on_c, 1, 70, 127
1, 29524, Note_on_c, 1, 67, 127
1, 29576, Note_off_c, 1, 70, 0
1, 29629, Note_off_c, 1, 76, 0
1, 29749, Note_off_c, 1, 67, 0
1, 29764, Note_on_c, 1, 68, 127
1, 29816, Note_off_c, 1, 68, 0
1, 29824, Note_on_c, 1, 66, 127
1, 29876, Note_off_c, 1, 66, 0
1, 29884, Note_on_c, 1, 80, 127
1, 29884, Note_on_c, 1, 65, 127
1, 29936, Note_off_c, 1, 65, 0
1, 29944, Note_on_c, 1, 63, 127
1, 29996, Note_off_c, 1, 63, 0
1, 30004, Note_on_c, 1, 62, 127
1, 30056, Note_off_c, 1, 80, 0
1, 30056, Note_off_c, 1, 62, 0
1, 30064, Note_on_c, 1, 78, 127
1, 30116, Note_off_c, 1, 78, 0
1, 30484, Note_on_c, 1, 72, 127
1, 30536, Note_off_c, 1, 72, 0
1, 30544, Note_on_c, 1, 64, 127
1, 30596, Note_off_c, 1, 64, 0
1, 30844, Note_on_c, 1, 61, 127
1, 30896, Note_off_c, 1, 61, 0
1, 30904, Note_on_c, 1, 59, 127
1, 30956, Note_off_c, 1, 59, 0
1, 31804, Note_on_c, 1, 73, 127
1, 31804, Note_on_c, 1, 67, 127
1, 31804, Note_on_c, 1, 58, 127
1, 31856, Note_off_c, 1, 67, 0
1, 31856, Note_off_c, 1, 58, 0
1, 31864, Note_on_c, 1, 68, 127
1, 31864, Note_on_c, 1, 56, 127
1, 31916, Note_off_c, 1, 68, 0
1, 31916, Note_off_c, 1, 56, 0
1, 31924, Note_on_c, 1, 70, 127
1, 31924, Note_on_c, 1, 55, 127
1, 31976, Note_off_c, 1, 73, 0
1, 31976, Note_off_c, 1, 55, 0
1, 31984, Note_on_c, 1, 71, 127
1, 32036, Note_off_c, 1, 71, 0
1, 32089, Note_off_c, 1, 70, 0
1, 32314, Note_on_c, 1, 54, 127
1, 32340, Note_off_c, 1, 54, 0
1, 32344, Note_on_c, 1, 52, 127
1, 32370, Note_off_c, 1, 52, 0
1, 32374, Note_on_c, 1, 51, 127
1, 32400, Note_off_c, 1, 51, 0
1, 32404, Note_on_c, 1, 76, 127
1, 32404, Note_on_c, 1, 49, 127
1, 32456, Note_off_c, 1, 49, 0
1, 32464, Note_on_c, 1, 59, 127
1, 32516, Note_off_c, 1, 59, 0
1, 32569, Note_off_c, 1, 76, 0
1, 32644, Note_on_c, 1, 75, 127
1, 32809, Note_off_c, 1, 75, 0
1, 32884, Note_on_c, 1, 80, 127
1, 32944, Note_on_c, 1, 63, 127
1, 32996, Note_off_c, 1, 63, 0
1, 33004, Note_on_c, 1, 61, 127
1, 33049, Note_off_c, 1, 80, 0
1, 33056, Note_off_c, 1, 61, 0
1, 33124, Note_on_c, 1, 78, 127
1, 33289, Note_off_c, 1, 78, 0
1, 33364, Note_on_c, 1, 83, 127
1, 33424, Note_on_c, 1, 66, 127
1, 33476, Note_off_c, 1, 66, 0
1, 33484, Note_on_c, 1, 65, 127
1, 33529, Note_off_c, 1, 83, 0
1, 33536, Note_off_c, 1, 65, 0
1, 33604, Note_on_c, 1, 82, 127
1, 33664, Note_on_c, 1, 77, 127
1, 33716, Note_off_c, 1, 77, 0
1, 33769, Note_off_c, 1, 82, 0
1, 33844, Note_on_c, 1, 81, 127
1, 33904, Note_on_c, 1, 64, 127
1, 33956, Note_off_c, 1, 64, 0
1, 34009, Note_off_c, 1, 81, 0
1, 34084, Note_on_c, 1, 60, 127
1, 34136, Note_off_c, 1, 60, 0
1, 34384, Note_on_c, 1, 72, 127
1, 34436, Note_off_c, 1, 72, 0
1, 34804, Note_on_c, 1, 75, 127
1, 34804, Note_on_c, 1, 71, 127
1, 34804, Note_on_c, 1, 59, 127
1, 34856, Note_off_c, 1, 75, 0
1, 34856, Note_off_c, 1, 59, 0
1, 34864, Note_on_c, 1, 76, 127
1, 34864, Note_on_c, 1, 61, 127
1, 34916, Note_off_c, 1, 76, 0
1, 34916, Note_off_c, 1, 61, 0
1, 34924, Note_on_c, 1, 78, 127
1, 34924, Note_on_c, 1, 63, 127
1, 34976, Note_off_c, 1, 78, 0
1, 34976, Note_off_c, 1, 63, 0
1, 35044, Note_on_c, 1, 56, 127
1, 35096, Note_off_c, 1, 71, 0
1, 35096, Note_off_c, 1, 56, 0
1, 35104, Note_on_c, 1, 73, 127
1, 35104, Note_on_c, 1, 58, 127
1, 35156, Note_off_c, 1, 73, 0
1, 35156, Note_off_c, 1, 58, 0
1, 35344, Note_on_c, 1, 68, 127
1, 35396, Note_off_c, 1, 68, 0
1, 35404, Note_on_c, 1, 70, 127
1, 35456, Note_off_c, 1, 70, 0
1, 35524, Note_on_c, 1, 66, 127
1, 35524, Note_on_c, 1, 47, 127
1, 35629, Note_off_c, 1, 66, 0
1, 35749, Note_off_c, 1, 47, 0
1, 35764, Note_on_c, 1, 55, 127
1, 35764, Note_on_c, 1, 51, 127
1, 35816, Note_off_c, 1, 55, 0
1, 35989, Note_off_c, 1, 51, 0
1, 36184, Note_on_c, 1, 67, 127
1, 36236, Note_off_c, 1, 67, 0
1, 36244, Note_on_c, 1, 64, 127
1, 36244, Note_on_c, 1, 52, 127
1, 36349, Note_off_c, 1, 64, 0
1, 36469, Note_off_c, 1, 52, 0
1, 36484, Note_on_c, 1, 80, 127
1, 36484, Note_on_c, 1, 49, 127
1, 36709, Note_off_c, 1, 49, 0
1, 36776, Note_off_c, 1, 80, 0
1, 37864, Note_on_c, 1, 54, 127
1, 37916, Note_off_c, 1, 54, 0
1, 37924, Note_on_c, 1, 53, 127
1, 38044, Note_on_c, 1, 74, 127
1, 38096, Note_off_c, 1, 74, 0
1, 38104, Note_on_c, 1, 72, 127
1, 38156, Note_off_c, 1, 72, 0
1, 38216, Note_off_c, 1, 53, 0
1, 38224, Note_on_c, 1, 75, 127
1, 38224, Note_on_c, 1, 54, 127
1, 38276, Note_off_c, 1, 75, 0
1, 38276, Note_off_c, 1, 54, 0
1, 38284, Note_on_c, 1, 77, 127
1, 38284, Note_on_c, 1, 53, 127
1, 38336, Note_off_c, 1, 77, 0
1, 38336, Note_off_c, 1, 53, 0
1, 38344, Note_on_c, 1, 78, 127
1, 38344, Note_on_c, 1, 51, 127
1, 38396, Note_off_c, 1, 78, 0
1, 38396, Note_off_c, 1, 51, 0
1, 38404, Note_on_c, 1, 80, 127
1, 38404, Note_on_c, 1, 50, 127
1, 38456, Note_off_c, 1, 50, 0
1, 38464, Note_on_c, 1, 46, 127
1, 38516, Note_off_c, 1, 46, 0
1, 38524, Note_on_c, 1, 77, 127
1, 38524, Note_on_c, 1, 48, 127
1, 38576, Note_off_c, 1, 48, 0
1, 38629, Note_off_c, 1, 80, 0
1, 38644, Note_on_c, 1, 78, 127
1, 38644, Note_on_c, 1, 51, 127
1, 38696, Note_off_c, 1, 51, 0
1, 38704, Note_on_c, 1, 53, 127
1, 38749, Note_off_c, 1, 77, 0
1, 38756, Note_off_c, 1, 53, 0
1, 38764, Note_on_c, 1, 75, 127
1, 38764, Note_on_c, 1, 54, 127
1, 38816, Note_off_c, 1, 75, 0
1, 38816, Note_off_c, 1, 54, 0
1, 38824, Note_on_c, 1, 73, 127
1, 38876, Note_off_c, 1, 73, 0
1, 38884, Note_on_c, 1, 71, 127
1, 38884, Note_on_c, 1, 56, 127
1, 38936, Note_off_c, 1, 56, 0
1, 38989, Note_off_c, 1, 71, 0
1, 39064, Note_on_c, 1, 58, 127
1, 39116, Note_off_c, 1, 58, 0
1, 39124, Note_on_c, 1, 68, 127
1, 39124, Note_on_c, 1, 59, 127
1, 39176, Note_off_c, 1, 78, 0
1, 39176, Note_off_c, 1, 59, 0
1, 39364, Note_on_c, 1, 74, 127
1, 39416, Note_off_c, 1, 68, 0
1, 39484, Note_on_c, 1, 70, 127
1, 39536, Note_off_c, 1, 70, 0
1, 39604, Note_on_c, 1, 66, 127
1, 39656, Note_off_c, 1, 74, 0
1, 39784, Note_on_c, 1, 57, 127
1, 39829, Note_off_c, 1, 66, 0
1, 39836, Note_off_c, 1, 57, 0
1, 39844, Note_on_c, 1, 65, 127
1, 39904, Note_on_c, 1, 72, 127
1, 39956, Note_off_c, 1, 72, 0
1, 40376, Note_off_c, 1, 65, 0
1, 40444, Note_on_c, 1, 63, 127
1, 40496, Note_off_c, 1, 63, 0
1, 40504, Note_on_c, 1, 62, 127
1, 40556, Note_off_c, 1, 62, 0
1, 40624, Note_on_c, 1, 52, 127
1, 40676, Note_off_c, 1, 52, 0
1, 40744, Note_on_c, 1, 49, 127
1, 40796, Note_off_c, 1, 49, 0
1, 40804, Note_on_c, 1, 63, 127
1, 40804, Note_on_c, 1, 47, 127
1, 40856, Note_off_c, 1, 47, 0
1, 40864, Note_on_c, 1, 46, 127
1, 40916, Note_off_c, 1, 46, 0
1, 40924, Note_on_c, 1, 66, 127
1, 40976, Note_off_c, 1, 66, 0
1, 40984, Note_on_c, 1, 64, 127
1, 41029, Note_off_c, 1, 63, 0
1, 41036, Note_off_c, 1, 64, 0
1, 41044, Note_on_c, 1, 59, 127
1, 41104, Note_on_c, 1, 49, 127
1, 41156, Note_off_c, 1, 49, 0
1, 41164, Note_on_c, 1, 51, 127
1, 41269, Note_off_c, 1, 59, 0
1, 41284, Note_on_c, 1, 56, 127
1, 41336, Note_off_c, 1, 51, 0
1, 41344, Note_on_c, 1, 61, 127
1, 41396, Note_off_c, 1, 61, 0
1, 41509, Note_off_c, 1, 56, 0
1, 41524, Note_on_c, 1, 56, 127
1, 41524, Note_on_c, 1, 65, 127
1, 41524, Note_on_c, 1, 49, 127
1, 41576, Note_off_c, 1, 56, 0
1, 41576, Note_off_c, 1, 49, 0
1, 41584, Note_on_c, 1, 58, 127
1, 41584, Note_on_c, 1, 47, 127
1, 41636, Note_off_c, 1, 58, 0
1, 41636, Note_off_c, 1, 47, 0
1, 41644, Note_on_c, 1, 59, 127
1, 41644, Note_on_c, 1, 46, 127
1, 41696, Note_off_c, 1, 46, 0
1, 41704, Note_on_c, 1, 44, 127
1, 41749, Note_off_c, 1, 65, 0
1, 41756, Note_off_c, 1, 44, 0
1, 41764, Note_on_c, 1, 66, 127
1, 41764, Note_on_c, 1, 42, 127
1, 41816, Note_off_c, 1, 59, 0
1, 41816, Note_off_c, 1, 42, 0
1, 41884, Note_on_c, 1, 54, 127
1, 42056, Note_off_c, 1, 66, 0
1, 42056, Note_off_c, 1, 54, 0
1, 42064, Note_on_c, 1, 61, 127
1, 42064, Note_on_c, 1, 52, 127
1, 42116, Note_off_c, 1, 61, 0
1, 42116, Note_off_c, 1, 52, 0
1, 42124, Note_on_c, 1, 69, 127
1, 42124, Note_on_c, 1, 66, 127
1, 42124, Note_on_c, 1, 51, 127
1, 42176, Note_off_c, 1, 51, 0
1, 42184, Note_on_c, 1, 49, 127
1, 42236, Note_off_c, 1, 49, 0
1, 42244, Note_on_c, 1, 48, 127
1, 42296, Note_off_c, 1, 48, 0
1, 42349, Note_off_c, 1, 69, 0
1, 42349, Note_off_c, 1, 66, 0
1, 42364, Note_on_c, 1, 69, 127
1, 42364, Note_on_c, 1, 60, 127
1, 42364, Note_on_c, 1, 51, 127
1, 42416, Note_off_c, 1, 60, 0
1, 42416, Note_off_c, 1, 51, 0
1, 42424, Note_on_c, 1, 66, 127
1, 42424, Note_on_c, 1, 48, 127
1, 42469, Note_off_c, 1, 69, 0
1, 42476, Note_off_c, 1, 66, 0
1, 42476, Note_off_c, 1, 48, 0
1, 42484, Note_on_c, 1, 68, 127
1, 42484, Note_on_c, 1, 64, 127
1, 42484, Note_on_c, 1, 44, 127
1, 42536, Note_off_c, 1, 44, 0
1, 42544, Note_on_c, 1, 46, 127
1, 42589, Note_off_c, 1, 68, 0
1, 42589, Note_off_c, 1, 64, 0
1, 42596, Note_off_c, 1, 46, 0
1, 42604, Note_on_c, 1, 66, 127
1, 42604, Note_on_c, 1, 63, 127
1, 42604, Note_on_c, 1, 48, 127
1, 42656, Note_off_c, 1, 48, 0
1, 42664, Note_on_c, 1, 44, 127
1, 42716, Note_off_c, 1, 44, 0
1, 42724, Note_on_c, 1, 49, 127
1, 42776, Note_off_c, 1, 49, 0
1, 42784, Note_on_c, 1, 51, 127
1, 42829, Note_off_c, 1, 66, 0
1, 42829, Note_off_c, 1, 63, 0
1, 42836, Note_off_c, 1, 51, 0
1, 42844, Note_on_c, 1, 64, 127
1, 42844, Note_on_c, 1, 61, 127
1, 42844, Note_on_c, 1, 52, 127
1, 42896, Note_off_c, 1, 64, 0
1, 42896, Note_off_c, 1, 61, 0
1, 42904, Note_on_c, 1, 63, 127
1, 42904, Note_on_c, 1, 60, 127
1, 42956, Note_off_c, 1, 63, 0
1, 42956, Note_off_c, 1, 60, 0
1, 43016, Note_off_c, 1, 52, 0
1, 43024, Note_on_c, 1, 66, 127
1, 43024, Note_on_c, 1, 63, 127
1, 43024, Note_on_c, 1, 51, 127
1, 43076, Note_off_c, 1, 66, 0
1, 43076, Note_off_c, 1, 63, 0
1, 43076, Note_off_c, 1, 51, 0
1, 43084, Note_on_c, 1, 68, 127
1, 43084, Note_on_c, 1, 64, 127
1, 43084, Note_on_c, 1, 49, 127
1, 43136, Note_off_c, 1, 49, 0
1, 43144, Note_on_c, 1, 47, 127
1, 43196, Note_off_c, 1, 47, 0
1, 43204, Note_on_c, 1, 46, 127
1, 43256, Note_off_c, 1, 46, 0
1, 43309, Note_off_c, 1, 68, 0
1, 43309, Note_off_c, 1, 64, 0
1, 43324, Note_on_c, 1, 68, 127
1, 43324, Note_on_c, 1, 58, 127
1, 43324, Note_on_c, 1, 49, 127
1, 43376, Note_off_c, 1, 58, 0
1, 43376, Note_off_c, 1, 49, 0
1, 43384, Note_on_c, 1, 64, 127
1, 43384, Note_on_c, 1, 46, 127
1, 43429, Note_off_c, 1, 68, 0
1, 43436, Note_off_c, 1, 64, 0
1, 43436, Note_off_c, 1, 46, 0
1, 43444, Note_on_c, 1, 66, 127
1, 43444, Note_on_c, 1, 63, 127
1, 43444, Note_on_c, 1, 42, 127
1, 43496, Note_off_c, 1, 42, 0
1, 43504, Note_on_c, 1, 44, 127
1, 43549, Note_off_c, 1, 66, 0
1, 43549, Note_off_c, 1, 63, 0
1, 43556, Note_off_c, 1, 44, 0
1, 43564, Note_on_c, 1, 64, 127
1, 43564, Note_on_c, 1, 61, 127
1, 43564, Note_on_c, 1, 46, 127
1, 43616, Note_off_c, 1, 46, 0
1, 43624, Note_on_c, 1, 42, 127
1, 43676, Note_off_c, 1, 42, 0
1, 43684, Note_on_c, 1, 47, 127
1, 43736, Note_off_c, 1, 47, 0
1, 43744, Note_on_c, 1, 49, 127
1, 43789, Note_off_c, 1, 64, 0
1, 43789, Note_off_c, 1, 61, 0
1, 43796, Note_off_c, 1, 49, 0
1, 43804, Note_on_c, 1, 63, 127
1, 43804, Note_on_c, 1, 59, 127
1, 43804, Note_on_c, 1, 51, 127
1, 43856, Note_off_c, 1, 63, 0
1, 43856, Note_off_c, 1, 59, 0
1, 43864, Note_on_c, 1, 61, 127
1, 43864, Note_on_c, 1, 58, 127
1, 43916, Note_off_c, 1, 61, 0
1, 43916, Note_off_c, 1, 58, 0
1, 43976, Note_off_c, 1, 51, 0
1, 43984, Note_on_c, 1, 64, 127
1, 43984, Note_on_c, 1, 61, 127
1, 43984, Note_on_c, 1, 49, 127
1, 44036, Note_off_c, 1, 64, 0
1, 44036, Note_off_c, 1, 61, 0
1, 44036, Note_off_c, 1, 49, 0
1, 44044, Note_on_c, 1, 66, 127
1, 44044, Note_on_c, 1, 63, 127
1, 44044, Note_on_c, 1, 47, 127
1, 44096, Note_off_c, 1, 47, 0
1, 44104, Note_on_c, 1, 51, 127
1, 44156, Note_off_c, 1, 51, 0
1, 44164, Note_on_c, 1, 71, 127
1, 44164, Note_on_c, 1, 56, 127
1, 44216, Note_off_c, 1, 66, 0
1, 44216, Note_off_c, 1, 63, 0
1, 44224, Note_on_c, 1, 68, 127
1, 44224, Note_on_c, 1, 64, 127
1, 44276, Note_off_c, 1, 68, 0
1, 44276, Note_off_c, 1, 64, 0
1, 44344, Note_on_c, 1, 61, 127
1, 44389, Note_off_c, 1, 71, 0
1, 44396, Note_off_c, 1, 61, 0
1, 44404, Note_on_c, 1, 75, 127
1, 44404, Note_on_c, 1, 59, 127
1, 44456, Note_off_c, 1, 56, 0
1, 44456, Note_off_c, 1, 59, 0
1, 44464, Note_on_c, 1, 57, 127
1, 44516, Note_off_c, 1, 57, 0
1, 44584, Note_on_c, 1, 54, 127
1, 44629, Note_off_c, 1, 75, 0
1, 44636, Note_off_c, 1, 54, 0
1, 44644, Note_on_c, 1, 80, 127
1, 44644, Note_on_c, 1, 52, 127
1, 44869, Note_off_c, 1, 80, 0
1, 44884, Note_on_c, 1, 76, 127
1, 45004, Note_on_c, 1, 73, 127
1, 45109, Note_off_c, 1, 76, 0
1, 45109, Note_off_c, 1, 73, 0
1, 45124, Note_on_c, 1, 58, 127
1, 45176, Note_off_c, 1, 58, 0
1, 45244, Note_on_c, 1, 70, 127
1, 45296, Note_off_c, 1, 70, 0
1, 45364, Note_on_c, 1, 82, 127
1, 45469, Note_off_c, 1, 52, 0
1, 45589, Note_off_c, 1, 82, 0
1, 45604, Note_on_c, 1, 83, 127
1, 45604, Note_on_c, 1, 78, 127
1, 45656, Note_off_c, 1, 78, 0
1, 45829, Note_off_c, 1, 83, 0
1, 45904, Note_on_c, 1, 49, 127
1, 45956, Note_off_c, 1, 49, 0
1, 46924, Note_on_c, 1, 54, 127
1, 46976, Note_off_c, 1, 54, 0
1, 46984, Note_on_c, 1, 56, 127
1, 47036, Note_off_c, 1, 56, 0
1, 47044, Note_on_c, 1, 75, 127
1, 47044, Note_on_c, 1, 71, 127
1, 47044, Note_on_c, 1, 66, 127
1, 47044, Note_on_c, 1, 57, 127
1, 47096, Note_off_c, 1, 75, 0
1, 47096, Note_off_c, 1, 66, 0
1, 47104, Note_on_c, 1, 73, 127
1, 47104, Note_on_c, 1, 64, 127
1, 47156, Note_off_c, 1, 73, 0
1, 47156, Note_off_c, 1, 64, 0
1, 47336, Note_off_c, 1, 57, 0
1, 47344, Note_on_c, 1, 56, 127
1, 47389, Note_off_c, 1, 71, 0
1, 47396, Note_off_c, 1, 56, 0
1, 47404, Note_on_c, 1, 54, 127
1, 47456, Note_off_c, 1, 54, 0
1, 47464, Note_on_c, 1, 57, 127
1, 47516, Note_off_c, 1, 57, 0
1, 47524, Note_on_c, 1, 56, 127
1, 47584, Note_on_c, 1, 65, 127
1, 47636, Note_off_c, 1, 65, 0
1, 47644, Note_on_c, 1, 74, 127
1, 47644, Note_on_c, 1, 59, 127
1, 47696, Note_off_c, 1, 74, 0
1, 47704, Note_on_c, 1, 73, 127
1, 47749, Note_off_c, 1, 59, 0
1, 47756, Note_off_c, 1, 73, 0
1, 47764, Note_on_c, 1, 71, 127
1, 47764, Note_on_c, 1, 62, 127
1, 47816, Note_off_c, 1, 71, 0
1, 47989, Note_off_c, 1, 56, 0
1, 47989, Note_off_c, 1, 62, 0
1, 48004, Note_on_c, 1, 68, 127
1, 48004, Note_on_c, 1, 65, 127
1, 48004, Note_on_c, 1, 62, 127
1, 48004, Note_on_c, 1, 59, 127
1, 48056, Note_off_c, 1, 68, 0
1, 48064, Note_on_c, 1, 69, 127
1, 48116, Note_off_c, 1, 69, 0
1, 48124, Note_on_c, 1, 71, 127
1, 48176, Note_off_c, 1, 71, 0
1, 48229, Note_off_c, 1, 65, 0
1, 48229, Note_off_c, 1, 62, 0
1, 48229, Note_off_c, 1, 59, 0
1, 48244, Note_on_c, 1, 65, 127
1, 48296, Note_off_c, 1, 65, 0
1, 48304, Note_on_c, 1, 74, 127
1, 48356, Note_off_c, 1, 74, 0
1, 48364, Note_on_c, 1, 73, 127
1, 48364, Note_on_c, 1, 61, 127
1, 48364, Note_on_c, 1, 56, 127
1, 48364, Note_on_c, 1, 53, 127
1, 48416, Note_off_c, 1, 73, 0
1, 48424, Note_on_c, 1, 71, 127
1, 48469, Note_off_c, 1, 56, 0
1, 48469, Note_off_c, 1, 53, 0
1, 48476, Note_off_c, 1, 71, 0
1, 48484, Note_on_c, 1, 70, 127
1, 48484, Note_on_c, 1, 54, 127
1, 48536, Note_off_c, 1, 61, 0
1, 48544, Note_on_c, 1, 68, 127
1, 48544, Note_on_c, 1, 52, 127
1, 48589, Note_off_c, 1, 54, 0
1, 48596, Note_off_c, 1, 68, 0
1, 48596, Note_off_c, 1, 52, 0
1, 48604, Note_on_c, 1, 66, 127
1, 48604, Note_on_c, 1, 51, 127
1, 48656, Note_off_c, 1, 66, 0
1, 48656, Note_off_c, 1, 51, 0
1, 48664, Note_on_c, 1, 64, 127
1, 48664, Note_on_c, 1, 49, 127
1, 48709, Note_off_c, 1, 70, 0
1, 48716, Note_off_c, 1, 64, 0
1, 48716, Note_off_c, 1, 49, 0
1, 48724, Note_on_c, 1, 63, 127
1, 48724, Note_on_c, 1, 47, 127
1, 48776, Note_off_c, 1, 47, 0
1, 48784, Note_on_c, 1, 66, 127
1, 48784, Note_on_c, 1, 49, 127
1, 48836, Note_off_c, 1, 66, 0
1, 48836, Note_off_c, 1, 49, 0
1, 48844, Note_on_c, 1, 71, 127
1, 48844, Note_on_c, 1, 51, 127
1, 48889, Note_off_c, 1, 63, 0
1, 48896, Note_off_c, 1, 51, 0
1, 48904, Note_on_c, 1, 62, 127
1, 48904, Note_on_c, 1, 41, 127
1, 48956, Note_off_c, 1, 62, 0
1, 48956, Note_off_c, 1, 41, 0
1, 48964, Note_on_c, 1, 61, 127
1, 48964, Note_on_c, 1, 42, 127
1, 49016, Note_off_c, 1, 61, 0
1, 49069, Note_off_c, 1, 71, 0
1, 49084, Note_on_c, 1, 70, 127
1, 49084, Note_on_c, 1, 64, 127
1, 49136, Note_off_c, 1, 70, 0
1, 49144, Note_on_c, 1, 68, 127
1, 49196, Note_off_c, 1, 68, 0
1, 49204, Note_on_c, 1, 54, 127
1, 49256, Note_off_c, 1, 64, 0
1, 49429, Note_off_c, 1, 42, 0
1, 49909, Note_off_c, 1, 54, 0
1, 49909, End_track
0, 0, End_of_file