0, 0, Header, 1, 1, 480
1, 0, Start_track
1, 0, Title_t, "Test"
1, 0, Tempo, 500000
1, 0, Instrument_name_t, "Church Organ"
1, 0, Note_on_c, 1, 67, 127
1, 0, Note_on_c, 1, 59, 127
1, 0, Note_on_c, 1, 55, 127
1, 26, Note_off_c, 1, 67, 0
1, 30, Note_on_c, 1, 74, 127
1, 52, Note_off_c, 1, 59, 0
1, 56, Note_off_c, 1, 74, 0
1, 60, Note_on_c, 1, 66, 127
1, 60, Note_on_c, 1, 57, 127
1, 86, Note_off_c, 1, 66, 0
1, 112, Note_off_c, 1, 57, 0
1, 180, Note_on_c, 1, 69, 127
1, 180, Note_on_c, 1, 60, 127
1, 206, Note_off_c, 1, 69, 0
1, 232, Note_off_c, 1, 60, 0
1, 240, Note_on_c, 1, 71, 127
1, 240, Note_on_c, 1, 62, 127
1, 266, Note_off_c, 1, 71, 0
1, 292, Note_off_c, 1, 62, 0
1, 300, Note_on_c, 1, 72, 127
1, 300, Note_on_c, 1, 64, 127
1, 326, Note_off_c, 1, 72, 0
1, 352, Note_off_c, 1, 64, 0
1, 1065, Note_off_c, 1, 55, 0
1, 1080, Note_on_c, 1, 50, 127
1, 1106, Note_off_c, 1, 50, 0
1, 1140, Note_on_c, 1, 49, 127
1, 1166, Note_off_c, 1, 49, 0
1, 1260, Note_on_c, 1, 52, 127
1, 1286, Note_off_c, 1, 52, 0
1, 1320, Note_on_c, 1, 54, 127
1, 1346, Note_off_c, 1, 54, 0
1, 2160, Note_on_c, 1, 45, 127
1, 2186, Note_off_c, 1, 45, 0
1, 2220, Note_on_c, 1, 56, 127
1, 2246, Note_off_c, 1, 56, 0
1, 2280, Note_on_c, 1, 72, 127
1, 2280, Note_on_c, 1, 69, 127
1, 2280, Note_on_c, 1, 45, 127
1, 2306, Note_off_c, 1, 45, 0
1, 2310, Note_on_c, 1, 57, 127
1, 2332, Note_off_c, 1, 72, 0
1, 2336, Note_off_c, 1, 57, 0
1, 2340, Note_on_c, 1, 74, 127
1, 2340, Note_on_c, 1, 47, 127
1, 2366, Note_off_c, 1, 47, 0
1, 2392, Note_off_c, 1, 74, 0
1, 2400, Note_on_c, 1, 76, 127
1, 2400, Note_on_c, 1, 48, 127
1, 2426, Note_off_c, 1, 48, 0
1, 2452, Note_off_c, 1, 76, 0
1, 2460, Note_on_c, 1, 78, 127
1, 2460, Note_on_c, 1, 50, 127
1, 2486, Note_off_c, 1, 50, 0
1, 2505, Note_off_c, 1, 69, 0
1, 2512, Note_off_c, 1, 78, 0
1, 2520, Note_on_c, 1, 67, 127
1, 2520, Note_on_c, 1, 52, 127
1, 2546, Note_off_c, 1, 67, 0
1, 2546, Note_off_c, 1, 52, 0
1, 2550, Note_on_c, 1, 79, 127
1, 2550, Note_on_c, 1, 64, 127
1, 2576, Note_off_c, 1, 79, 0
1, 2576, Note_off_c, 1, 64, 0
1, 2580, Note_on_c, 1, 78, 127
1, 2580, Note_on_c, 1, 62, 127
1, 2606, Note_off_c, 1, 78, 0
1, 2606, Note_off_c, 1, 62, 0
1, 2610, Note_on_c, 1, 79, 127
1, 2610, Note_on_c, 1, 64, 127
1, 2636, Note_off_c, 1, 79, 0
1, 2636, Note_off_c, 1, 64, 0
1, 2640, Note_on_c, 1, 67, 127
1, 2640, Note_on_c, 1, 52, 127
1, 2666, Note_off_c, 1, 67, 0
1, 2666, Note_off_c, 1, 52, 0
1, 2670, Note_on_c, 1, 79, 127
1, 2670, Note_on_c, 1, 64, 127
1, 2696, Note_off_c, 1, 79, 0
1, 2696, Note_off_c, 1, 64, 0
1, 2700, Note_on_c, 1, 69, 127
1, 2700, Note_on_c, 1, 54, 127
1, 2726, Note_off_c, 1, 69, 0
1, 2726, Note_off_c, 1, 54, 0
1, 2730, Note_on_c, 1, 79, 127
1, 2730, Note_on_c, 1, 64, 127
1, 2756, Note_off_c, 1, 79, 0
1, 2756, Note_off_c, 1, 64, 0
1, 2760, Note_on_c, 1, 71, 127
1, 2760, Note_on_c, 1, 55, 127
1, 2786, Note_off_c, 1, 71, 0
1, 2786, Note_off_c, 1, 55, 0
1, 2790, Note_on_c, 1, 79, 127
1, 2790, Note_on_c, 1, 64, 127
1, 2816, Note_off_c, 1, 79, 0
1, 2816, Note_off_c, 1, 64, 0
1, 2820, Note_on_c, 1, 73, 127
1, 2820, Note_on_c, 1, 57, 127
1, 2846, Note_off_c, 1, 73, 0
1, 2846, Note_off_c, 1, 57, 0
1, 2850, Note_on_c, 1, 79, 127
1, 2850, Note_on_c, 1, 64, 127
1, 2876, Note_off_c, 1, 79, 0
1, 2876, Note_off_c, 1, 64, 0
1, 2880, Note_on_c, 1, 78, 127
1, 2880, Note_on_c, 1, 62, 127
1, 2906, Note_off_c, 1, 78, 0
1, 2906, Note_off_c, 1, 62, 0
1, 2910, Note_on_c, 1, 74, 127
1, 2910, Note_on_c, 1, 59, 127
1, 2936, Note_off_c, 1, 74, 0
1, 2936, Note_off_c, 1, 59, 0
1, 2940, Note_on_c, 1, 73, 127
1, 2940, Note_on_c, 1, 57, 127
1, 2966, Note_off_c, 1, 73, 0
1, 2966, Note_off_c, 1, 57, 0
1, 2970, Note_on_c, 1, 74, 127
1, 2970, Note_on_c, 1, 59, 127
1, 2996, Note_off_c, 1, 74, 0
1, 2996, Note_off_c, 1, 59, 0
1, 3000, Note_on_c, 1, 83, 127
1, 3000, Note_on_c, 1, 55, 127
1, 3026, Note_off_c, 1, 83, 0
1, 3030, Note_on_c, 1, 71, 127
1, 3052, Note_off_c, 1, 55, 0
1, 3056, Note_off_c, 1, 71, 0
1, 3060, Note_on_c, 1, 81, 127
1, 3060, Note_on_c, 1, 66, 127
1, 3086, Note_off_c, 1, 81, 0
1, 3090, Note_on_c, 1, 71, 127
1, 3112, Note_off_c, 1, 66, 0
1, 3116, Note_off_c, 1, 71, 0
1, 3120, Note_on_c, 1, 79, 127
1, 3120, Note_on_c, 1, 64, 127
1, 3146, Note_off_c, 1, 79, 0
1, 3150, Note_on_c, 1, 71, 127
1, 3172, Note_off_c, 1, 64, 0
1, 3176, Note_off_c, 1, 71, 0
1, 3180, Note_on_c, 1, 78, 127
1, 3180, Note_on_c, 1, 62, 127
1, 3206, Note_off_c, 1, 78, 0
1, 3210, Note_on_c, 1, 71, 127
1, 3232, Note_off_c, 1, 62, 0
1, 3236, Note_off_c, 1, 71, 0
1, 3240, Note_on_c, 1, 76, 127
1, 3240, Note_on_c, 1, 61, 127
1, 3266, Note_off_c, 1, 76, 0
1, 3266, Note_off_c, 1, 61, 0
1, 3270, Note_on_c, 1, 73, 127
1, 3270, Note_on_c, 1, 57, 127
1, 3296, Note_off_c, 1, 73, 0
1, 3296, Note_off_c, 1, 57, 0
1, 3300, Note_on_c, 1, 71, 127
1, 3300, Note_on_c, 1, 55, 127
1, 3326, Note_off_c, 1, 71, 0
1, 3326, Note_off_c, 1, 55, 0
1, 3330, Note_on_c, 1, 73, 127
1, 3330, Note_on_c, 1, 57, 127
1, 3356, Note_off_c, 1, 73, 0
1, 3356, Note_off_c, 1, 57, 0
1, 3360, Note_on_c, 1, 81, 127
1, 3360, Note_on_c, 1, 54, 127
1, 3386, Note_off_c, 1, 81, 0
1, 3390, Note_on_c, 1, 69, 127
1, 3412, Note_off_c, 1, 54, 0
1, 3416, Note_off_c, 1, 69, 0
1, 3420, Note_on_c, 1, 79, 127
1, 3420, Note_on_c, 1, 64, 127
1, 3446, Note_off_c, 1, 79, 0
1, 3450, Note_on_c, 1, 69, 127
1, 3472, Note_off_c, 1, 64, 0
1, 3476, Note_off_c, 1, 69, 0
1, 3480, Note_on_c, 1, 78, 127
1, 3480, Note_on_c, 1, 62, 127
1, 3506, Note_off_c, 1, 78, 0
1, 3510, Note_on_c, 1, 69, 127
1, 3532, Note_off_c, 1, 62, 0
1, 3536, Note_off_c, 1, 69, 0
1, 3540, Note_on_c, 1, 76, 127
1, 3540, Note_on_c, 1, 61, 127
1, 3566, Note_off_c, 1, 76, 0
1, 3570, Note_on_c, 1, 69, 127
1, 3592, Note_off_c, 1, 61, 0
1, 3596, Note_off_c, 1, 69, 0
1, 3600, Note_on_c, 1, 74, 127
1, 3600, Note_on_c, 1, 59, 127
1, 3626, Note_off_c, 1, 74, 0
1, 3626, Note_off_c, 1, 59, 0
1, 3630, Note_on_c, 1, 71, 127
1, 3630, Note_on_c, 1, 55, 127
1, 3656, Note_off_c, 1, 71, 0
1, 3656, Note_off_c, 1, 55, 0
1, 3660, Note_on_c, 1, 69, 127
1, 3660, Note_on_c, 1, 54, 127
1, 3686, Note_off_c, 1, 69, 0
1, 3686, Note_off_c, 1, 54, 0
1, 3690, Note_on_c, 1, 71, 127
1, 3690, Note_on_c, 1, 55, 127
1, 3716, Note_off_c, 1, 71, 0
1, 3716, Note_off_c, 1, 55, 0
1, 3720, Note_on_c, 1, 79, 127
1, 3720, Note_on_c, 1, 52, 127
1, 3746, Note_off_c, 1, 79, 0
1, 3750, Note_on_c, 1, 67, 127
1, 3772, Note_off_c, 1, 52, 0
1, 3776, Note_off_c, 1, 67, 0
1, 3780, Note_on_c, 1, 78, 127
1, 3780, Note_on_c, 1, 62, 127
1, 3806, Note_off_c, 1, 78, 0
1, 3810, Note_on_c, 1, 67, 127
1, 3832, Note_off_c, 1, 62, 0
1, 3836, Note_off_c, 1, 67, 0
1, 3840, Note_on_c, 1, 76, 127
1, 3840, Note_on_c, 1, 61, 127
1, 3866, Note_off_c, 1, 76, 0
1, 3870, Note_on_c, 1, 67, 127
1, 3892, Note_off_c, 1, 61, 0
1, 3896, Note_off_c, 1, 67, 0
1, 3900, Note_on_c, 1, 74, 127
1, 3900, Note_on_c, 1, 59, 127
1, 3926, Note_off_c, 1, 74, 0
1, 3930, Note_on_c, 1, 67, 127
1, 3952, Note_off_c, 1, 59, 0
1, 3956, Note_off_c, 1, 67, 0
1, 3960, Note_on_c, 1, 73, 127
1, 3960, Note_on_c, 1, 57, 127
1, 3986, Note_off_c, 1, 73, 0
1, 3990, Note_on_c, 1, 67, 127
1, 4012, Note_off_c, 1, 57, 0
1, 4016, Note_off_c, 1, 67, 0
1, 4020, Note_on_c, 1, 74, 127
1, 4020, Note_on_c, 1, 59, 127
1, 4046, Note_off_c, 1, 74, 0
1, 4050, Note_on_c, 1, 67, 127
1, 4072, Note_off_c, 1, 59, 0
1, 4076, Note_off_c, 1, 67, 0
1, 4080, Note_on_c, 1, 76, 127
1, 4080, Note_on_c, 1, 61, 127
1, 4106, Note_off_c, 1, 76, 0
1, 4110, Note_on_c, 1, 67, 127
1, 4132, Note_off_c, 1, 61, 0
1, 4136, Note_off_c, 1, 67, 0
1, 4140, Note_on_c, 1, 74, 127
1, 4140, Note_on_c, 1, 64, 127
1, 4166, Note_off_c, 1, 74, 0
1, 4170, Note_on_c, 1, 67, 127
1, 4192, Note_off_c, 1, 64, 0
1, 4196, Note_off_c, 1, 67, 0
1, 4200, Note_on_c, 1, 73, 127
1, 4200, Note_on_c, 1, 57, 127
1, 4226, Note_off_c, 1, 73, 0
1, 4230, Note_on_c, 1, 67, 127
1, 4252, Note_off_c, 1, 57, 0
1, 4256, Note_off_c, 1, 67, 0
1, 4260, Note_on_c, 1, 71, 127
1, 4260, Note_on_c, 1, 61, 127
1, 4286, Note_off_c, 1, 71, 0
1, 4290, Note_on_c, 1, 67, 127
1, 4312, Note_off_c, 1, 61, 0
1, 4316, Note_off_c, 1, 67, 0
1, 4320, Note_on_c, 1, 69, 127
1, 4320, Note_on_c, 1, 54, 127
1, 4346, Note_off_c, 1, 69, 0
1, 4350, Note_on_c, 1, 67, 127
1, 4372, Note_off_c, 1, 54, 0
1, 4376, Note_off_c, 1, 67, 0
1, 4380, Note_on_c, 1, 66, 127
1, 4380, Note_on_c, 1, 57, 127
1, 4406, Note_off_c, 1, 66, 0
1, 4410, Note_on_c, 1, 64, 127
1, 4432, Note_off_c, 1, 57, 0
1, 4436, Note_off_c, 1, 64, 0
1, 4440, Note_on_c, 1, 66, 127
1, 4440, Note_on_c, 1, 50, 127
1, 4466, Note_off_c, 1, 50, 0
1, 4470, Note_on_c, 1, 52, 127
1, 4492, Note_off_c, 1, 66, 0
1, 4496, Note_off_c, 1, 52, 0
1, 4500, Note_on_c, 1, 74, 127
1, 4500, Note_on_c, 1, 54, 127
1, 4526, Note_off_c, 1, 54, 0
1, 4530, Note_on_c, 1, 55, 127
1, 4552, Note_off_c, 1, 74, 0
1, 4556, Note_off_c, 1, 55, 0
1, 4560, Note_on_c, 1, 64, 127
1, 4560, Note_on_c, 1, 57, 127
1, 4612, Note_off_c, 1, 64, 0
1, 4612, Note_off_c, 1, 57, 0
1, 4620, Note_on_c, 1, 73, 127
1, 4620, Note_on_c, 1, 45, 127
1, 4672, Note_off_c, 1, 73, 0
1, 4672, Note_off_c, 1, 45, 0
1, 4680, Note_on_c, 1, 62, 127
1, 4680, Note_on_c, 1, 47, 127
1, 4706, Note_off_c, 1, 62, 0
1, 4710, Note_on_c, 1, 64, 127
1, 4732, Note_off_c, 1, 47, 0
1, 4736, Note_off_c, 1, 64, 0
1, 4740, Note_on_c, 1, 65, 127
1, 4740, Note_on_c, 1, 50, 127
1, 4766, Note_off_c, 1, 65, 0
1, 4770, Note_on_c, 1, 62, 127
1, 4792, Note_off_c, 1, 50, 0
1, 4796, Note_off_c, 1, 62, 0
1, 4800, Note_on_c, 1, 68, 127
1, 4800, Note_on_c, 1, 53, 127
1, 4826, Note_off_c, 1, 68, 0
1, 4830, Note_on_c, 1, 62, 127
1, 4852, Note_off_c, 1, 53, 0
1, 4856, Note_off_c, 1, 62, 0
1, 4860, Note_on_c, 1, 69, 127
1, 4860, Note_on_c, 1, 45, 127
1, 4886, Note_off_c, 1, 69, 0
1, 4890, Note_on_c, 1, 62, 127
1, 4912, Note_off_c, 1, 45, 0
1, 4916, Note_off_c, 1, 62, 0
1, 4920, Note_on_c, 1, 71, 127
1, 4920, Note_on_c, 1, 44, 127
1, 4946, Note_off_c, 1, 71, 0
1, 4950, Note_on_c, 1, 62, 127
1, 4972, Note_off_c, 1, 44, 0
1, 4976, Note_off_c, 1, 62, 0
1, 4980, Note_on_c, 1, 61, 127
1, 4980, Note_on_c, 1, 52, 127
1, 5006, Note_off_c, 1, 61, 0
1, 5010, Note_on_c, 1, 59, 127
1, 5032, Note_off_c, 1, 52, 0
1, 5036, Note_off_c, 1, 59, 0
1, 5040, Note_on_c, 1, 61, 127
1, 5040, Note_on_c, 1, 45, 127
1, 5066, Note_off_c, 1, 61, 0
1, 5066, Note_off_c, 1, 45, 0
1, 5070, Note_on_c, 1, 64, 127
1, 5070, Note_on_c, 1, 49, 127
1, 5096, Note_off_c, 1, 64, 0
1, 5096, Note_off_c, 1, 49, 0
1, 5100, Note_on_c, 1, 69, 127
1, 5100, Note_on_c, 1, 52, 127
1, 5126, Note_off_c, 1, 52, 0
1, 5130, Note_on_c, 1, 55, 127
1, 5156, Note_off_c, 1, 55, 0
1, 5160, Note_on_c, 1, 54, 127
1, 5212, Note_off_c, 1, 69, 0
1, 5212, Note_off_c, 1, 54, 0
1, 5220, Note_on_c, 1, 67, 127
1, 5220, Note_on_c, 1, 50, 127
1, 5246, Note_off_c, 1, 67, 0
1, 5250, Note_on_c, 1, 66, 127
1, 5272, Note_off_c, 1, 50, 0
1, 5276, Note_off_c, 1, 66, 0
1, 5280, Note_on_c, 1, 67, 127
1, 5280, Note_on_c, 1, 57, 127
1, 5306, Note_off_c, 1, 67, 0
1, 5310, Note_on_c, 1, 66, 127
1, 5332, Note_off_c, 1, 57, 0
1, 5336, Note_off_c, 1, 66, 0
1, 5340, Note_on_c, 1, 64, 127
1, 5340, Note_on_c, 1, 45, 127
1, 5366, Note_off_c, 1, 64, 0
1, 5370, Note_on_c, 1, 66, 127
1, 5392, Note_off_c, 1, 45, 0
1, 5396, Note_off_c, 1, 66, 0
1, 5400, Note_on_c, 1, 62, 127
1, 5400, Note_on_c, 1, 50, 127
1, 5452, Note_off_c, 1, 62, 0
1, 5452, Note_off_c, 1, 50, 0
1, 5460, Note_on_c, 1, 61, 127
1, 5460, Note_on_c, 1, 38, 127
1, 5486, Note_off_c, 1, 61, 0
1, 5490, Note_on_c, 1, 59, 127
1, 5512, Note_off_c, 1, 38, 0
1, 5516, Note_off_c, 1, 59, 0
1, 5520, Note_on_c, 1, 57, 127
1, 5520, Note_on_c, 1, 42, 127
1, 5546, Note_off_c, 1, 57, 0
1, 5550, Note_on_c, 1, 55, 127
1, 5572, Note_off_c, 1, 42, 0
1, 5576, Note_off_c, 1, 55, 0
1, 5580, Note_on_c, 1, 54, 127
1, 5580, Note_on_c, 1, 45, 127
1, 5606, Note_off_c, 1, 54, 0
1, 5610, Note_on_c, 1, 52, 127
1, 5632, Note_off_c, 1, 45, 0
1, 5636, Note_off_c, 1, 52, 0
1, 5640, Note_on_c, 1, 50, 127
1, 5745, Note_off_c, 1, 50, 0
1, 5760, Note_on_c, 1, 67, 127
1, 5760, Note_on_c, 1, 59, 127
1, 5760, Note_on_c, 1, 55, 127
1, 5786, Note_off_c, 1, 67, 0
1, 5790, Note_on_c, 1, 74, 127
1, 5812, Note_off_c, 1, 59, 0
1, 5816, Note_off_c, 1, 74, 0
1, 5820, Note_on_c, 1, 66, 127
1, 5820, Note_on_c, 1, 57, 127
1, 5846, Note_off_c, 1, 66, 0
1, 5872, Note_off_c, 1, 57, 0
1, 5940, Note_on_c, 1, 69, 127
1, 5940, Note_on_c, 1, 60, 127
1, 5966, Note_off_c, 1, 69, 0
1, 5992, Note_off_c, 1, 60, 0
1, 6000, Note_on_c, 1, 71, 127
1, 6000, Note_on_c, 1, 62, 127
1, 6026, Note_off_c, 1, 71, 0
1, 6052, Note_off_c, 1, 62, 0
1, 6060, Note_on_c, 1, 72, 127
1, 6060, Note_on_c, 1, 64, 127
1, 6086, Note_off_c, 1, 72, 0
1, 6112, Note_off_c, 1, 64, 0
1, 6825, Note_off_c, 1, 55, 0
1, 6840, Note_on_c, 1, 50, 127
1, 6866, Note_off_c, 1, 50, 0
1, 6900, Note_on_c, 1, 49, 127
1, 6926, Note_off_c, 1, 49, 0
1, 7020, Note_on_c, 1, 52, 127
1, 7046, Note_off_c, 1, 52, 0
1, 7080, Note_on_c, 1, 54, 127
1, 7106, Note_off_c, 1, 54, 0
1, 7920, Note_on_c, 1, 45, 127
1, 7946, Note_off_c, 1, 45, 0
1, 7980, Note_on_c, 1, 56, 127
1, 8006, Note_off_c, 1, 56, 0
1, 8040, Note_on_c, 1, 72, 127
1, 8040, Note_on_c, 1, 69, 127
1, 8040, Note_on_c, 1, 45, 127
1, 8066, Note_off_c, 1, 45, 0
1, 8070, Note_on_c, 1, 57, 127
1, 8092, Note_off_c, 1, 72, 0
1, 8096, Note_off_c, 1, 57, 0
1, 8100, Note_on_c, 1, 74, 127
1, 8100, Note_on_c, 1, 47, 127
1, 8126, Note_off_c, 1, 47, 0
1, 8152, Note_off_c, 1, 74, 0
1, 8160, Note_on_c, 1, 76, 127
1, 8160, Note_on_c, 1, 48, 127
1, 8186, Note_off_c, 1, 48, 0
1, 8212, Note_off_c, 1, 76, 0
1, 8220, Note_on_c, 1, 78, 127
1, 8220, Note_on_c, 1, 50, 127
1, 8246, Note_off_c, 1, 50, 0
1, 8265, Note_off_c, 1, 69, 0
1, 8272, Note_off_c, 1, 78, 0
1, 8280, Note_on_c, 1, 67, 127
1, 8280, Note_on_c, 1, 52, 127
1, 8306, Note_off_c, 1, 67, 0
1, 8306, Note_off_c, 1, 52, 0
1, 8310, Note_on_c, 1, 79, 127
1, 8310, Note_on_c, 1, 64, 127
1, 8336, Note_off_c, 1, 79, 0
1, 8336, Note_off_c, 1, 64, 0
1, 8340, Note_on_c, 1, 78, 127
1, 8340, Note_on_c, 1, 62, 127
1, 8366, Note_off_c, 1, 78, 0
1, 8366, Note_off_c, 1, 62, 0
1, 8370, Note_on_c, 1, 79, 127
1, 8370, Note_on_c, 1, 64, 127
1, 8396, Note_off_c, 1, 79, 0
1, 8396, Note_off_c, 1, 64, 0
1, 8400, Note_on_c, 1, 67, 127
1, 8400, Note_on_c, 1, 52, 127
1, 8426, Note_off_c, 1, 67, 0
1, 8426, Note_off_c, 1, 52, 0
1, 8430, Note_on_c, 1, 79, 127
1, 8430, Note_on_c, 1, 64, 127
1, 8456, Note_off_c, 1, 79, 0
1, 8456, Note_off_c, 1, 64, 0
1, 8460, Note_on_c, 1, 69, 127
1, 8460, Note_on_c, 1, 54, 127
1, 8486, Note_off_c, 1, 69, 0
1, 8486, Note_off_c, 1, 54, 0
1, 8490, Note_on_c, 1, 79, 127
1, 8490, Note_on_c, 1, 64, 127
1, 8516, Note_off_c, 1, 79, 0
1, 8516, Note_off_c, 1, 64, 0
1, 8520, Note_on_c, 1, 71, 127
1, 8520, Note_on_c, 1, 55, 127
1, 8546, Note_off_c, 1, 71, 0
1, 8546, Note_off_c, 1, 55, 0
1, 8550, Note_on_c, 1, 79, 127
1, 8550, Note_on_c, 1, 64, 127
1, 8576, Note_off_c, 1, 79, 0
1, 8576, Note_off_c, 1, 64, 0
1, 8580, Note_on_c, 1, 73, 127
1, 8580, Note_on_c, 1, 57, 127
1, 8606, Note_off_c, 1, 73, 0
1, 8606, Note_off_c, 1, 57, 0
1, 8610, Note_on_c, 1, 79, 127
1, 8610, Note_on_c, 1, 64, 127
1, 8636, Note_off_c, 1, 79, 0
1, 8636, Note_off_c, 1, 64, 0
1, 8640, Note_on_c, 1, 78, 127
1, 8640, Note_on_c, 1, 62, 127
1, 8666, Note_off_c, 1, 78, 0
1, 8666, Note_off_c, 1, 62, 0
1, 8670, Note_on_c, 1, 74, 127
1, 8670, Note_on_c, 1, 59, 127
1, 8696, Note_off_c, 1, 74, 0
1, 8696, Note_off_c, 1, 59, 0
1, 8700, Note_on_c, 1, 73, 127
1, 8700, Note_on_c, 1, 57, 127
1, 8726, Note_off_c, 1, 73, 0
1, 8726, Note_off_c, 1, 57, 0
1, 8730, Note_on_c, 1, 74, 127
1, 8730, Note_on_c, 1, 59, 127
1, 8756, Note_off_c, 1, 74, 0
1, 8756, Note_off_c, 1, 59, 0
1, 8760, Note_on_c, 1, 83, 127
1, 8760, Note_on_c, 1, 55, 127
1, 8786, Note_off_c, 1, 83, 0
1, 8790, Note_on_c, 1, 71, 127
1, 8812, Note_off_c, 1, 55, 0
1, 8816, Note_off_c, 1, 71, 0
1, 8820, Note_on_c, 1, 81, 127
1, 8820, Note_on_c, 1, 66, 127
1, 8846, Note_off_c, 1, 81, 0
1, 8850, Note_on_c, 1, 71, 127
1, 8872, Note_off_c, 1, 66, 0
1, 8876, Note_off_c, 1, 71, 0
1, 8880, Note_on_c, 1, 79, 127
1, 8880, Note_on_c, 1, 64, 127
1, 8906, Note_off_c, 1, 79, 0
1, 8910, Note_on_c, 1, 71, 127
1, 8932, Note_off_c, 1, 64, 0
1, 8936, Note_off_c, 1, 71, 0
1, 8940, Note_on_c, 1, 78, 127
1, 8940, Note_on_c, 1, 62, 127
1, 8966, Note_off_c, 1, 78, 0
1, 8970, Note_on_c, 1, 71, 127
1, 8992, Note_off_c, 1, 62, 0
1, 8996, Note_off_c, 1, 71, 0
1, 9000, Note_on_c, 1, 76, 127
1, 9000, Note_on_c, 1, 61, 127
1, 9026, Note_off_c, 1, 76, 0
1, 9026, Note_off_c, 1, 61, 0
1, 9030, Note_on_c, 1, 73, 127
1, 9030, Note_on_c, 1, 57, 127
1, 9056, Note_off_c, 1, 73, 0
1, 9056, Note_off_c, 1, 57, 0
1, 9060, Note_on_c, 1, 71, 127
1, 9060, Note_on_c, 1, 55, 127
1, 9086, Note_off_c, 1, 71, 0
1, 9086, Note_off_c, 1, 55, 0
1, 9090, Note_on_c, 1, 73, 127
1, 9090, Note_on_c, 1, 57, 127
1, 9116, Note_off_c, 1, 73, 0
1, 9116, Note_off_c, 1, 57, 0
1, 9120, Note_on_c, 1, 81, 127
1, 9120, Note_on_c, 1, 54, 127
1, 9146, Note_off_c, 1, 81, 0
1, 9150, Note_on_c, 1, 69, 127
1, 9172, Note_off_c, 1, 54, 0
1, 9176, Note_off_c, 1, 69, 0
1, 9180, Note_on_c, 1, 79, 127
1, 9180, Note_on_c, 1, 64, 127
1, 9206, Note_off_c, 1, 79, 0
1, 9210, Note_on_c, 1, 69, 127
1, 9232, Note_off_c, 1, 64, 0
1, 9236, Note_off_c, 1, 69, 0
1, 9240, Note_on_c, 1, 78, 127
1, 9240, Note_on_c, 1, 62, 127
1, 9266, Note_off_c, 1, 78, 0
1, 9270, Note_on_c, 1, 69, 127
1, 9292, Note_off_c, 1, 62, 0
1, 9296, Note_off_c, 1, 69, 0
1, 9300, Note_on_c, 1, 76, 127
1, 9300, Note_on_c, 1, 61, 127
1, 9326, Note_off_c, 1, 76, 0
1, 9330, Note_on_c, 1, 69, 127
1, 9352, Note_off_c, 1, 61, 0
1, 9356, Note_off_c, 1, 69, 0
1, 9360, Note_on_c, 1, 74, 127
1, 9360, Note_on_c, 1, 59, 127
1, 9386, Note_off_c, 1, 74, 0
1, 9386, Note_off_c, 1, 59, 0
1, 9390, Note_on_c, 1, 71, 127
1, 9390, Note_on_c, 1, 55, 127
1, 9416, Note_off_c, 1, 71, 0
1, 9416, Note_off_c, 1, 55, 0
1, 9420, Note_on_c, 1, 69, 127
1, 9420, Note_on_c, 1, 54, 127
1, 9446, Note_off_c, 1, 69, 0
1, 9446, Note_off_c, 1, 54, 0
1, 9450, Note_on_c, 1, 71, 127
1, 9450, Note_on_c, 1, 55, 127
1, 9476, Note_off_c, 1, 71, 0
1, 9476, Note_off_c, 1, 55, 0
1, 9480, Note_on_c, 1, 79, 127
1, 9480, Note_on_c, 1, 52, 127
1, 9506, Note_off_c, 1, 79, 0
1, 9510, Note_on_c, 1, 67, 127
1, 9532, Note_off_c, 1, 52, 0
1, 9536, Note_off_c, 1, 67, 0
1, 9540, Note_on_c, 1, 78, 127
1, 9540, Note_on_c, 1, 62, 127
1, 9566, Note_off_c, 1, 78, 0
1, 9570, Note_on_c, 1, 67, 127
1, 9592, Note_off_c, 1, 62, 0
1, 9596, Note_off_c, 1, 67, 0
1, 9600, Note_on_c, 1, 76, 127
1, 9600, Note_on_c, 1, 61, 127
1, 9626, Note_off_c, 1, 76, 0
1, 9630, Note_on_c, 1, 67, 127
1, 9652, Note_off_c, 1, 61, 0
1, 9656, Note_off_c, 1, 67, 0
1, 9660, Note_on_c, 1, 74, 127
1, 9660, Note_on_c, 1, 59, 127
1, 9686, Note_off_c, 1, 74, 0
1, 9690, Note_on_c, 1, 67, 127
1, 9712, Note_off_c, 1, 59, 0
1, 9716, Note_off_c, 1, 67, 0
1, 9720, Note_on_c, 1, 73, 127
1, 9720, Note_on_c, 1, 57, 127
1, 9746, Note_off_c, 1, 73, 0
1, 9750, Note_on_c, 1, 67, 127
1, 9772, Note_off_c, 1, 57, 0
1, 9776, Note_off_c, 1, 67, 0
1, 9780, Note_on_c, 1, 74, 127
1, 9780, Note_on_c, 1, 59, 127
1, 9806, Note_off_c, 1, 74, 0
1, 9810, Note_on_c, 1, 67, 127
1, 9832, Note_off_c, 1, 59, 0
1, 9836, Note_off_c, 1, 67, 0
1, 9840, Note_on_c, 1, 76, 127
1, 9840, Note_on_c, 1, 61, 127
1, 9866, Note_off_c, 1, 76, 0
1, 9870, Note_on_c, 1, 67, 127
1, 9892, Note_off_c, 1, 61, 0
1, 9896, Note_off_c, 1, 67, 0
1, 9900, Note_on_c, 1, 74, 127
1, 9900, Note_on_c, 1, 64, 127
1, 9926, Note_off_c, 1, 74, 0
1, 9930, Note_on_c, 1, 67, 127
1, 9952, Note_off_c, 1, 64, 0
1, 9956, Note_off_c, 1, 67, 0
1, 9960, Note_on_c, 1, 73, 127
1, 9960, Note_on_c, 1, 57, 127
1, 9986, Note_off_c, 1, 73, 0
1, 9990, Note_on_c, 1, 67, 127
1, 10012, Note_off_c, 1, 57, 0
1, 10016, Note_off_c, 1, 67, 0
1, 10020, Note_on_c, 1, 71, 127
1, 10020, Note_on_c, 1, 61, 127
1, 10046, Note_off_c, 1, 71, 0
1, 10050, Note_on_c, 1, 67, 127
1, 10072, Note_off_c, 1, 61, 0
1, 10076, Note_off_c, 1, 67, 0
1, 10080, Note_on_c, 1, 69, 127
1, 10080, Note_on_c, 1, 54, 127
1, 10106, Note_off_c, 1, 69, 0
1, 10110, Note_on_c, 1, 67, 127
1, 10132, Note_off_c, 1, 54, 0
1, 10136, Note_off_c, 1, 67, 0
1, 10140, Note_on_c, 1, 66, 127
1, 10140, Note_on_c, 1, 57, 127
1, 10166, Note_off_c, 1, 66, 0
1, 10170, Note_on_c, 1, 64, 127
1, 10192, Note_off_c, 1, 57, 0
1, 10196, Note_off_c, 1, 64, 0
1, 10200, Note_on_c, 1, 66, 127
1, 10200, Note_on_c, 1, 50, 127
1, 10226, Note_off_c, 1, 50, 0
1, 10230, Note_on_c, 1, 52, 127
1, 10252, Note_off_c, 1, 66, 0
1, 10256, Note_off_c, 1, 52, 0
1, 10260, Note_on_c, 1, 74, 127
1, 10260, Note_on_c, 1, 54, 127
1, 10286, Note_off_c, 1, 54, 0
1, 10290, Note_on_c, 1, 55, 127
1, 10312, Note_off_c, 1, 74, 0
1, 10316, Note_off_c, 1, 55, 0
1, 10320, Note_on_c, 1, 64, 127
1, 10320, Note_on_c, 1, 57, 127
1, 10372, Note_off_c, 1, 64, 0
1, 10372, Note_off_c, 1, 57, 0
1, 10380, Note_on_c, 1, 73, 127
1, 10380, Note_on_c, 1, 45, 127
1, 10432, Note_off_c, 1, 73, 0
1, 10432, Note_off_c, 1, 45, 0
1, 10440, Note_on_c, 1, 62, 127
1, 10440, Note_on_c, 1, 47, 127
1, 10466, Note_off_c, 1, 62, 0
1, 10470, Note_on_c, 1, 64, 127
1, 10492, Note_off_c, 1, 47, 0
1, 10496, Note_off_c, 1, 64, 0
1, 10500, Note_on_c, 1, 65, 127
1, 10500, Note_on_c, 1, 50, 127
1, 10526, Note_off_c, 1, 65, 0
1, 10530, Note_on_c, 1, 62, 127
1, 10552, Note_off_c, 1, 50, 0
1, 10556, Note_off_c, 1, 62, 0
1, 10560, Note_on_c, 1, 68, 127
1, 10560, Note_on_c, 1, 53, 127
1, 10586, Note_off_c, 1, 68, 0
1, 10590, Note_on_c, 1, 62, 127
1, 10612, Note_off_c, 1, 53, 0
1, 10616, Note_off_c, 1, 62, 0
1, 10620, Note_on_c, 1, 69, 127
1, 10620, Note_on_c, 1, 45, 127
1, 10646, Note_off_c, 1, 69, 0
1, 10650, Note_on_c, 1, 62, 127
1, 10672, Note_off_c, 1, 45, 0
1, 10676, Note_off_c, 1, 62, 0
1, 10680, Note_on_c, 1, 71, 127
1, 10680, Note_on_c, 1, 44, 127
1, 10706, Note_off_c, 1, 71, 0
1, 10710, Note_on_c, 1, 62, 127
1, 10732, Note_off_c, 1, 44, 0
1, 10736, Note_off_c, 1, 62, 0
1, 10740, Note_on_c, 1, 61, 127
1, 10740, Note_on_c, 1, 52, 127
1, 10766, Note_off_c, 1, 61, 0
1, 10770, Note_on_c, 1, 59, 127
1, 10792, Note_off_c, 1, 52, 0
1, 10796, Note_off_c, 1, 59, 0
1, 10800, Note_on_c, 1, 61, 127
1, 10800, Note_on_c, 1, 45, 127
1, 10826, Note_off_c, 1, 61, 0
1, 10826, Note_off_c, 1, 45, 0
1, 10830, Note_on_c, 1, 64, 127
1, 10830, Note_on_c, 1, 49, 127
1, 10856, Note_off_c, 1, 64, 0
1, 10856, Note_off_c, 1, 49, 0
1, 10860, Note_on_c, 1, 69, 127
1, 10860, Note_on_c, 1, 52, 127
1, 10886, Note_off_c, 1, 52, 0
1, 10890, Note_on_c, 1, 55, 127
1, 10916, Note_off_c, 1, 55, 0
1, 10920, Note_on_c, 1, 54, 127
1, 10972, Note_off_c, 1, 69, 0
1, 10972, Note_off_c, 1, 54, 0
1, 10980, Note_on_c, 1, 67, 127
1, 10980, Note_on_c, 1, 50, 127
1, 11006, Note_off_c, 1, 67, 0
1, 11010, Note_on_c, 1, 66, 127
1, 11032, Note_off_c, 1, 50, 0
1, 11036, Note_off_c, 1, 66, 0
1, 11040, Note_on_c, 1, 67, 127
1, 11040, Note_on_c, 1, 57, 127
1, 11066, Note_off_c, 1, 67, 0
1, 11070, Note_on_c, 1, 66, 127
1, 11092, Note_off_c, 1, 57, 0
1, 11096, Note_off_c, 1, 66, 0
1, 11100, Note_on_c, 1, 64, 127
1, 11100, Note_on_c, 1, 45, 127
1, 11126, Note_off_c, 1, 64, 0
1, 11130, Note_on_c, 1, 66, 127
1, 11152, Note_off_c, 1, 45, 0
1, 11156, Note_off_c, 1, 66, 0
1, 11160, Note_on_c, 1, 62, 127
1, 11160, Note_on_c, 1, 50, 127
1, 11212, Note_off_c, 1, 62, 0
1, 11212, Note_off_c, 1, 50, 0
1, 11220, Note_on_c, 1, 61, 127
1, 11220, Note_on_c, 1, 38, 127
1, 11246, Note_off_c, 1, 61, 0
1, 11250, Note_on_c, 1, 59, 127
1, 11272, Note_off_c, 1, 38, 0
1, 11276, Note_off_c, 1, 59, 0
1, 11280, Note_on_c, 1, 57, 127
1, 11280, Note_on_c, 1, 42, 127
1, 11306, Note_off_c, 1, 57, 0
1, 11310, Note_on_c, 1, 55, 127
1, 11332, Note_off_c, 1, 42, 0
1, 11336, Note_off_c, 1, 55, 0
1, 11340, Note_on_c, 1, 54, 127
1, 11340, Note_on_c, 1, 45, 127
1, 11366, Note_off_c, 1, 54, 0
1, 11370, Note_on_c, 1, 52, 127
1, 11392, Note_off_c, 1, 45, 0
1, 11396, Note_off_c, 1, 52, 0
1, 11400, Note_on_c, 1, 50, 127
1, 11505, Note_off_c, 1, 50, 0
1, 11520, Note_on_c, 1, 66, 127
1, 11520, Note_on_c, 1, 57, 127
1, 11520, Note_on_c, 1, 50, 127
1, 11546, Note_off_c, 1, 66, 0
1, 11550, Note_on_c, 1, 62, 127
1, 11572, Note_off_c, 1, 57, 0
1, 11576, Note_off_c, 1, 62, 0
1, 11580, Note_on_c, 1, 64, 127
1, 11580, Note_on_c, 1, 55, 127
1, 11606, Note_off_c, 1, 64, 0
1, 11632, Note_off_c, 1, 55, 0
1, 11700, Note_on_c, 1, 67, 127
1, 11700, Note_on_c, 1, 59, 127
1, 11726, Note_off_c, 1, 67, 0
1, 11752, Note_off_c, 1, 59, 0
1, 11760, Note_on_c, 1, 69, 127
1, 11760, Note_on_c, 1, 60, 127
1, 11786, Note_off_c, 1, 69, 0
1, 11812, Note_off_c, 1, 60, 0
1, 12420, Note_on_c, 1, 71, 127
1, 12446, Note_off_c, 1, 71, 0
1, 12540, Note_on_c, 1, 72, 127
1, 12540, Note_on_c, 1, 54, 127
1, 12566, Note_off_c, 1, 72, 0
1, 12585, Note_off_c, 1, 50, 0
1, 12592, Note_off_c, 1, 54, 0
1, 12600, Note_on_c, 1, 71, 127
1, 12600, Note_on_c, 1, 43, 127
1, 12626, Note_off_c, 1, 43, 0
1, 12630, Note_on_c, 1, 55, 127
1, 12652, Note_off_c, 1, 71, 0
1, 12656, Note_off_c, 1, 55, 0
1, 12660, Note_on_c, 1, 69, 127
1, 12660, Note_on_c, 1, 54, 127
1, 12686, Note_off_c, 1, 54, 0
1, 12690, Note_on_c, 1, 55, 127
1, 12712, Note_off_c, 1, 69, 0
1, 12716, Note_off_c, 1, 55, 0
1, 12720, Note_on_c, 1, 67, 127
1, 12720, Note_on_c, 1, 59, 127
1, 12746, Note_off_c, 1, 59, 0
1, 12750, Note_on_c, 1, 55, 127
1, 12772, Note_off_c, 1, 67, 0
1, 12776, Note_off_c, 1, 55, 0
1, 12780, Note_on_c, 1, 69, 127
1, 12780, Note_on_c, 1, 60, 127
1, 12806, Note_off_c, 1, 60, 0
1, 12810, Note_on_c, 1, 55, 127
1, 12832, Note_off_c, 1, 69, 0
1, 12836, Note_off_c, 1, 55, 0
1, 12840, Note_on_c, 1, 71, 127
1, 12840, Note_on_c, 1, 62, 127
1, 12866, Note_off_c, 1, 62, 0
1, 12870, Note_on_c, 1, 55, 127
1, 12892, Note_off_c, 1, 71, 0
1, 12896, Note_off_c, 1, 55, 0
1, 12900, Note_on_c, 1, 72, 127
1, 12900, Note_on_c, 1, 60, 127
1, 12926, Note_off_c, 1, 60, 0
1, 12930, Note_on_c, 1, 55, 127
1, 12952, Note_off_c, 1, 72, 0
1, 12956, Note_off_c, 1, 55, 0
1, 12960, Note_on_c, 1, 74, 127
1, 12960, Note_on_c, 1, 59, 127
1, 12986, Note_off_c, 1, 59, 0
1, 12990, Note_on_c, 1, 55, 127
1, 13012, Note_off_c, 1, 74, 0
1, 13016, Note_off_c, 1, 55, 0
1, 13020, Note_on_c, 1, 72, 127
1, 13020, Note_on_c, 1, 57, 127
1, 13046, Note_off_c, 1, 57, 0
1, 13050, Note_on_c, 1, 55, 127
1, 13072, Note_off_c, 1, 72, 0
1, 13076, Note_off_c, 1, 55, 0
1, 13080, Note_on_c, 1, 74, 127
1, 13080, Note_on_c, 1, 59, 127
1, 13106, Note_off_c, 1, 59, 0
1, 13110, Note_on_c, 1, 55, 127
1, 13132, Note_off_c, 1, 74, 0
1, 13136, Note_off_c, 1, 55, 0
1, 13140, Note_on_c, 1, 76, 127
1, 13140, Note_on_c, 1, 60, 127
1, 13166, Note_off_c, 1, 60, 0
1, 13170, Note_on_c, 1, 55, 127
1, 13192, Note_off_c, 1, 76, 0
1, 13196, Note_off_c, 1, 55, 0
1, 13200, Note_on_c, 1, 77, 127
1, 13200, Note_on_c, 1, 62, 127
1, 13226, Note_off_c, 1, 62, 0
1, 13230, Note_on_c, 1, 55, 127
1, 13252, Note_off_c, 1, 77, 0
1, 13256, Note_off_c, 1, 55, 0
1, 13260, Note_on_c, 1, 74, 127
1, 13260, Note_on_c, 1, 59, 127
1, 13286, Note_off_c, 1, 59, 0
1, 13290, Note_on_c, 1, 55, 127
1, 13312, Note_off_c, 1, 74, 0
1, 13316, Note_off_c, 1, 55, 0
1, 13320, Note_on_c, 1, 76, 127
1, 13320, Note_on_c, 1, 60, 127
1, 13346, Note_off_c, 1, 60, 0
1, 13350, Note_on_c, 1, 55, 127
1, 13372, Note_off_c, 1, 76, 0
1, 13376, Note_off_c, 1, 55, 0
1, 13380, Note_on_c, 1, 79, 127
1, 13380, Note_on_c, 1, 59, 127
1, 13406, Note_off_c, 1, 59, 0
1, 13410, Note_on_c, 1, 55, 127
1, 13432, Note_off_c, 1, 79, 0
1, 13436, Note_off_c, 1, 55, 0
1, 13440, Note_on_c, 1, 76, 127
1, 13440, Note_on_c, 1, 60, 127
1, 13466, Note_off_c, 1, 60, 0
1, 13470, Note_on_c, 1, 55, 127
1, 13492, Note_off_c, 1, 76, 0
1, 13496, Note_off_c, 1, 55, 0
1, 13500, Note_on_c, 1, 72, 127
1, 13500, Note_on_c, 1, 64, 127
1, 13526, Note_off_c, 1, 64, 0
1, 13530, Note_on_c, 1, 55, 127
1, 13552, Note_off_c, 1, 72, 0
1, 13556, Note_off_c, 1, 55, 0
1, 13560, Note_on_c, 1, 74, 127
1, 13560, Note_on_c, 1, 62, 127
1, 13586, Note_off_c, 1, 62, 0
1, 13590, Note_on_c, 1, 55, 127
1, 13612, Note_off_c, 1, 74, 0
1, 13616, Note_off_c, 1, 55, 0
1, 13620, Note_on_c, 1, 71, 127
1, 13620, Note_on_c, 1, 65, 127
1, 13646, Note_off_c, 1, 65, 0
1, 13650, Note_on_c, 1, 55, 127
1, 13672, Note_off_c, 1, 71, 0
1, 13676, Note_off_c, 1, 55, 0
1, 13680, Note_on_c, 1, 72, 127
1, 13680, Note_on_c, 1, 64, 127
1, 13706, Note_off_c, 1, 72, 0
1, 13706, Note_off_c, 1, 64, 0
1, 13710, Note_on_c, 1, 76, 127
1, 13710, Note_on_c, 1, 60, 127
1, 13736, Note_off_c, 1, 76, 0
1, 13736, Note_off_c, 1, 60, 0
1, 13740, Note_on_c, 1, 75, 127
1, 13740, Note_on_c, 1, 59, 127
1, 13766, Note_off_c, 1, 75, 0
1, 13766, Note_off_c, 1, 59, 0
1, 13770, Note_on_c, 1, 76, 127
1, 13770, Note_on_c, 1, 60, 127
1, 13796, Note_off_c, 1, 76, 0
1, 13796, Note_off_c, 1, 60, 0
1, 13800, Note_on_c, 1, 81, 127
1, 13800, Note_on_c, 1, 54, 127
1, 13826, Note_off_c, 1, 81, 0
1, 13830, Note_on_c, 1, 72, 127
1, 13852, Note_off_c, 1, 54, 0
1, 13856, Note_off_c, 1, 72, 0
1, 13860, Note_on_c, 1, 79, 127
1, 13860, Note_on_c, 1, 64, 127
1, 13886, Note_off_c, 1, 79, 0
1, 13890, Note_on_c, 1, 72, 127
1, 13912, Note_off_c, 1, 64, 0
1, 13916, Note_off_c, 1, 72, 0
1, 13920, Note_on_c, 1, 78, 127
1, 13920, Note_on_c, 1, 63, 127
1, 13946, Note_off_c, 1, 78, 0
1, 13950, Note_on_c, 1, 72, 127
1, 13972, Note_off_c, 1, 63, 0
1, 13976, Note_off_c, 1, 72, 0
1, 13980, Note_on_c, 1, 76, 127
1, 13980, Note_on_c, 1, 66, 127
1, 14006, Note_off_c, 1, 76, 0
1, 14010, Note_on_c, 1, 72, 127
1, 14032, Note_off_c, 1, 66, 0
1, 14036, Note_off_c, 1, 72, 0
1, 14040, Note_on_c, 1, 75, 127
1, 14040, Note_on_c, 1, 59, 127
1, 14066, Note_off_c, 1, 75, 0
1, 14066, Note_off_c, 1, 59, 0
1, 14070, Note_on_c, 1, 71, 127
1, 14070, Note_on_c, 1, 63, 127
1, 14096, Note_off_c, 1, 71, 0
1, 14096, Note_off_c, 1, 63, 0
1, 14100, Note_on_c, 1, 70, 127
1, 14100, Note_on_c, 1, 61, 127
1, 14126, Note_off_c, 1, 70, 0
1, 14126, Note_off_c, 1, 61, 0
1, 14130, Note_on_c, 1, 71, 127
1, 14130, Note_on_c, 1, 63, 127
1, 14156, Note_off_c, 1, 71, 0
1, 14156, Note_off_c, 1, 63, 0
1, 14160, Note_on_c, 1, 79, 127
1, 14160, Note_on_c, 1, 52, 127
1, 14186, Note_off_c, 1, 79, 0
1, 14190, Note_on_c, 1, 71, 127
1, 14212, Note_off_c, 1, 52, 0
1, 14216, Note_off_c, 1, 71, 0
1, 14220, Note_on_c, 1, 78, 127
1, 14220, Note_on_c, 1, 54, 127
1, 14246, Note_off_c, 1, 78, 0
1, 14250, Note_on_c, 1, 71, 127
1, 14272, Note_off_c, 1, 54, 0
1, 14276, Note_off_c, 1, 71, 0
1, 14280, Note_on_c, 1, 76, 127
1, 14280, Note_on_c, 1, 55, 127
1, 14306, Note_off_c, 1, 76, 0
1, 14310, Note_on_c, 1, 71, 127
1, 14332, Note_off_c, 1, 55, 0
1, 14336, Note_off_c, 1, 71, 0
1, 14340, Note_on_c, 1, 74, 127
1, 14340, Note_on_c, 1, 52, 127
1, 14366, Note_off_c, 1, 74, 0
1, 14370, Note_on_c, 1, 71, 127
1, 14392, Note_off_c, 1, 52, 0
1, 14396, Note_off_c, 1, 71, 0
1, 14400, Note_on_c, 1, 72, 127
1, 14400, Note_on_c, 1, 57, 127
1, 14426, Note_off_c, 1, 72, 0
1, 14426, Note_off_c, 1, 57, 0
1, 14430, Note_on_c, 1, 69, 127
1, 14430, Note_on_c, 1, 60, 127
1, 14456, Note_off_c, 1, 69, 0
1, 14456, Note_off_c, 1, 60, 0
1, 14460, Note_on_c, 1, 67, 127
1, 14460, Note_on_c, 1, 59, 127
1, 14486, Note_off_c, 1, 67, 0
1, 14486, Note_off_c, 1, 59, 0
1, 14490, Note_on_c, 1, 69, 127
1, 14490, Note_on_c, 1, 60, 127
1, 14516, Note_off_c, 1, 69, 0
1, 14516, Note_off_c, 1, 60, 0
1, 14520, Note_on_c, 1, 66, 127
1, 14520, Note_on_c, 1, 57, 127
1, 14546, Note_off_c, 1, 66, 0
1, 14546, Note_off_c, 1, 57, 0
1, 14550, Note_on_c, 1, 69, 127
1, 14550, Note_on_c, 1, 60, 127
1, 14576, Note_off_c, 1, 69, 0
1, 14576, Note_off_c, 1, 60, 0
1, 14580, Note_on_c, 1, 64, 127
1, 14580, Note_on_c, 1, 55, 127
1, 14606, Note_off_c, 1, 64, 0
1, 14606, Note_off_c, 1, 55, 0
1, 14610, Note_on_c, 1, 69, 127
1, 14610, Note_on_c, 1, 60, 127
1, 14636, Note_off_c, 1, 69, 0
1, 14636, Note_off_c, 1, 60, 0
1, 14640, Note_on_c, 1, 63, 127
1, 14640, Note_on_c, 1, 54, 127
1, 14666, Note_off_c, 1, 63, 0
1, 14666, Note_off_c, 1, 54, 0
1, 14670, Note_on_c, 1, 69, 127
1, 14670, Note_on_c, 1, 60, 127
1, 14696, Note_off_c, 1, 69, 0
1, 14696, Note_off_c, 1, 60, 0
1, 14700, Note_on_c, 1, 64, 127
1, 14700, Note_on_c, 1, 52, 127
1, 14726, Note_off_c, 1, 64, 0
1, 14726, Note_off_c, 1, 52, 0
1, 14730, Note_on_c, 1, 69, 127
1, 14730, Note_on_c, 1, 60, 127
1, 14756, Note_off_c, 1, 69, 0
1, 14756, Note_off_c, 1, 60, 0
1, 14760, Note_on_c, 1, 66, 127
1, 14760, Note_on_c, 1, 51, 127
1, 14786, Note_off_c, 1, 51, 0
1, 14790, Note_on_c, 1, 59, 127
1, 14812, Note_off_c, 1, 66, 0
1, 14816, Note_off_c, 1, 59, 0
1, 14820, Note_on_c, 1, 75, 127
1, 14820, Note_on_c, 1, 47, 127
1, 14846, Note_off_c, 1, 47, 0
1, 14850, Note_on_c, 1, 59, 127
1, 14872, Note_off_c, 1, 75, 0
1, 14876, Note_off_c, 1, 59, 0
1, 14880, Note_on_c, 1, 76, 127
1, 14880, Note_on_c, 1, 49, 127
1, 14906, Note_off_c, 1, 49, 0
1, 14910, Note_on_c, 1, 59, 127
1, 14932, Note_off_c, 1, 76, 0
1, 14936, Note_off_c, 1, 59, 0
1, 14940, Note_on_c, 1, 78, 127
1, 14940, Note_on_c, 1, 51, 127
1, 14966, Note_off_c, 1, 51, 0
1, 14970, Note_on_c, 1, 59, 127
1, 14992, Note_off_c, 1, 78, 0
1, 14996, Note_off_c, 1, 59, 0
1, 15000, Note_on_c, 1, 79, 127
1, 15000, Note_on_c, 1, 52, 127
1, 15026, Note_off_c, 1, 52, 0
1, 15030, Note_on_c, 1, 59, 127
1, 15052, Note_off_c, 1, 79, 0
1, 15056, Note_off_c, 1, 59, 0
1, 15060, Note_on_c, 1, 75, 127
1, 15060, Note_on_c, 1, 54, 127
1, 15086, Note_off_c, 1, 54, 0
1, 15090, Note_on_c, 1, 59, 127
1, 15112, Note_off_c, 1, 75, 0
1, 15116, Note_off_c, 1, 59, 0
1, 15120, Note_on_c, 1, 76, 127
1, 15120, Note_on_c, 1, 55, 127
1, 15146, Note_off_c, 1, 76, 0
1, 15146, Note_off_c, 1, 55, 0
1, 15150, Note_on_c, 1, 71, 127
1, 15150, Note_on_c, 1, 59, 127
1, 15176, Note_off_c, 1, 71, 0
1, 15176, Note_off_c, 1, 59, 0
1, 15180, Note_on_c, 1, 72, 127
1, 15180, Note_on_c, 1, 57, 127
1, 15206, Note_off_c, 1, 72, 0
1, 15206, Note_off_c, 1, 57, 0
1, 15210, Note_on_c, 1, 69, 127
1, 15210, Note_on_c, 1, 60, 127
1, 15236, Note_off_c, 1, 69, 0
1, 15236, Note_off_c, 1, 60, 0
1, 15240, Note_on_c, 1, 67, 127
1, 15240, Note_on_c, 1, 59, 127
1, 15266, Note_off_c, 1, 59, 0
1, 15270, Note_on_c, 1, 57, 127
1, 15292, Note_off_c, 1, 67, 0
1, 15296, Note_off_c, 1, 57, 0
1, 15300, Note_on_c, 1, 76, 127
1, 15300, Note_on_c, 1, 55, 127
1, 15326, Note_off_c, 1, 55, 0
1, 15330, Note_on_c, 1, 57, 127
1, 15352, Note_off_c, 1, 76, 0
1, 15356, Note_off_c, 1, 57, 0
1, 15360, Note_on_c, 1, 66, 127
1, 15360, Note_on_c, 1, 59, 127
1, 15412, Note_off_c, 1, 66, 0
1, 15412, Note_off_c, 1, 59, 0
1, 15420, Note_on_c, 1, 75, 127
1, 15420, Note_on_c, 1, 47, 127
1, 15472, Note_off_c, 1, 75, 0
1, 15472, Note_off_c, 1, 47, 0
1, 15480, Note_on_c, 1, 76, 127
1, 15480, Note_on_c, 1, 52, 127
1, 15506, Note_off_c, 1, 76, 0
1, 15510, Note_on_c, 1, 71, 127
1, 15536, Note_off_c, 1, 71, 0
1, 15540, Note_on_c, 1, 67, 127
1, 15566, Note_off_c, 1, 67, 0
1, 15600, Note_on_c, 1, 64, 127
1, 15626, Note_off_c, 1, 52, 0
1, 15630, Note_on_c, 1, 47, 127
1, 15656, Note_off_c, 1, 47, 0
1, 15660, Note_on_c, 1, 43, 127
1, 15686, Note_off_c, 1, 43, 0
1, 15720, Note_on_c, 1, 40, 127
1, 15746, Note_off_c, 1, 64, 0
1, 15772, Note_off_c, 1, 40, 0
1, 15780, Note_on_c, 1, 71, 127
1, 15806, Note_off_c, 1, 71, 0
1, 15810, Note_on_c, 1, 74, 127
1, 15836, Note_off_c, 1, 74, 0
1, 15840, Note_on_c, 1, 73, 127
1, 15870, Note_on_c, 1, 45, 127
1, 15892, Note_off_c, 1, 73, 0
1, 15896, Note_off_c, 1, 45, 0
1, 15900, Note_on_c, 1, 69, 127
1, 15900, Note_on_c, 1, 49, 127
1, 15926, Note_off_c, 1, 49, 0
1, 15930, Note_on_c, 1, 45, 127
1, 15952, Note_off_c, 1, 69, 0
1, 15956, Note_off_c, 1, 45, 0
1, 15960, Note_on_c, 1, 73, 127
1, 15960, Note_on_c, 1, 52, 127
1, 15986, Note_off_c, 1, 52, 0
1, 15990, Note_on_c, 1, 45, 127
1, 16012, Note_off_c, 1, 73, 0
1, 16016, Note_off_c, 1, 45, 0
1, 16020, Note_on_c, 1, 76, 127
1, 16020, Note_on_c, 1, 55, 127
1, 16046, Note_off_c, 1, 55, 0
1, 16050, Note_on_c, 1, 45, 127
1, 16072, Note_off_c, 1, 76, 0
1, 16076, Note_off_c, 1, 45, 0
1, 16080, Note_on_c, 1, 81, 127
1, 16080, Note_on_c, 1, 54, 127
1, 16106, Note_off_c, 1, 54, 0
1, 16110, Note_on_c, 1, 45, 127
1, 16132, Note_off_c, 1, 81, 0
1, 16136, Note_off_c, 1, 45, 0
1, 16140, Note_on_c, 1, 79, 127
1, 16140, Note_on_c, 1, 52, 127
1, 16166, Note_off_c, 1, 52, 0
1, 16170, Note_on_c, 1, 45, 127
1, 16192, Note_off_c, 1, 79, 0
1, 16196, Note_off_c, 1, 45, 0
1, 16200, Note_on_c, 1, 78, 127
1, 16200, Note_on_c, 1, 50, 127
1, 16226, Note_off_c, 1, 50, 0
1, 16230, Note_on_c, 1, 45, 127
1, 16252, Note_off_c, 1, 78, 0
1, 16256, Note_off_c, 1, 45, 0
1, 16260, Note_on_c, 1, 81, 127
1, 16260, Note_on_c, 1, 42, 127
1, 16286, Note_off_c, 1, 42, 0
1, 16290, Note_on_c, 1, 45, 127
1, 16312, Note_off_c, 1, 81, 0
1, 16316, Note_off_c, 1, 45, 0
1, 16320, Note_on_c, 1, 78, 127
1, 16320, Note_on_c, 1, 38, 127
1, 16346, Note_off_c, 1, 38, 0
1, 16350, Note_on_c, 1, 42, 127
1, 16372, Note_off_c, 1, 78, 0
1, 16376, Note_off_c, 1, 42, 0
1, 16380, Note_on_c, 1, 74, 127
1, 16380, Note_on_c, 1, 45, 127
1, 16406, Note_off_c, 1, 45, 0
1, 16410, Note_on_c, 1, 50, 127
1, 16432, Note_off_c, 1, 74, 0
1, 16436, Note_off_c, 1, 50, 0
1, 16440, Note_on_c, 1, 69, 127
1, 16440, Note_on_c, 1, 54, 127
1, 16466, Note_off_c, 1, 54, 0
1, 16470, Note_on_c, 1, 57, 127
1, 16492, Note_off_c, 1, 69, 0
1, 16496, Note_off_c, 1, 57, 0
1, 16500, Note_on_c, 1, 72, 127
1, 16500, Note_on_c, 1, 54, 127
1, 16526, Note_off_c, 1, 54, 0
1, 16530, Note_on_c, 1, 50, 127
1, 16552, Note_off_c, 1, 72, 0
1, 16556, Note_off_c, 1, 50, 0
1, 16560, Note_on_c, 1, 71, 127
1, 16560, Note_on_c, 1, 55, 127
1, 16586, Note_off_c, 1, 55, 0
1, 16590, Note_on_c, 1, 43, 127
1, 16612, Note_off_c, 1, 71, 0
1, 16616, Note_off_c, 1, 43, 0
1, 16620, Note_on_c, 1, 67, 127
1, 16620, Note_on_c, 1, 47, 127
1, 16646, Note_off_c, 1, 47, 0
1, 16650, Note_on_c, 1, 43, 127
1, 16672, Note_off_c, 1, 67, 0
1, 16676, Note_off_c, 1, 43, 0
1, 16680, Note_on_c, 1, 71, 127
1, 16680, Note_on_c, 1, 50, 127
1, 16706, Note_off_c, 1, 50, 0
1, 16710, Note_on_c, 1, 43, 127
1, 16732, Note_off_c, 1, 71, 0
1, 16736, Note_off_c, 1, 43, 0
1, 16740, Note_on_c, 1, 74, 127
1, 16740, Note_on_c, 1, 53, 127
1, 16766, Note_off_c, 1, 53, 0
1, 16770, Note_on_c, 1, 43, 127
1, 16792, Note_off_c, 1, 74, 0
1, 16796, Note_off_c, 1, 43, 0
1, 16800, Note_on_c, 1, 79, 127
1, 16800, Note_on_c, 1, 52, 127
1, 16826, Note_off_c, 1, 52, 0
1, 16830, Note_on_c, 1, 43, 127
1, 16852, Note_off_c, 1, 79, 0
1, 16856, Note_off_c, 1, 43, 0
1, 16860, Note_on_c, 1, 77, 127
1, 16860, Note_on_c, 1, 50, 127
1, 16886, Note_off_c, 1, 50, 0
1, 16890, Note_on_c, 1, 43, 127
1, 16912, Note_off_c, 1, 77, 0
1, 16916, Note_off_c, 1, 43, 0
1, 16920, Note_on_c, 1, 76, 127
1, 16920, Note_on_c, 1, 48, 127
1, 16946, Note_off_c, 1, 48, 0
1, 16950, Note_on_c, 1, 43, 127
1, 16976, Note_off_c, 1, 43, 0
1, 16980, Note_on_c, 1, 40, 127
1, 17006, Note_off_c, 1, 40, 0
1, 17040, Note_on_c, 1, 36, 127
1, 17066, Note_off_c, 1, 76, 0
1, 17070, Note_on_c, 1, 74, 127
1, 17092, Note_off_c, 1, 36, 0
1, 17096, Note_off_c, 1, 74, 0
1, 17100, Note_on_c, 1, 72, 127
1, 17126, Note_off_c, 1, 72, 0
1, 17130, Note_on_c, 1, 71, 127
1, 17156, Note_off_c, 1, 71, 0
1, 17160, Note_on_c, 1, 69, 127
1, 17186, Note_off_c, 1, 69, 0
1, 17190, Note_on_c, 1, 67, 127
1, 17216, Note_off_c, 1, 67, 0
1, 17220, Note_on_c, 1, 66, 127
1, 17246, Note_off_c, 1, 66, 0
1, 17250, Note_on_c, 1, 64, 127
1, 17276, Note_off_c, 1, 64, 0
1, 17280, Note_on_c, 1, 66, 127
1, 17310, Note_on_c, 1, 48, 127
1, 17332, Note_off_c, 1, 66, 0
1, 17336, Note_off_c, 1, 48, 0
1, 17340, Note_on_c, 1, 74, 127
1, 17340, Note_on_c, 1, 47, 127
1, 17366, Note_off_c, 1, 47, 0
1, 17370, Note_on_c, 1, 45, 127
1, 17396, Note_off_c, 1, 45, 0
1, 17426, Note_off_c, 1, 74, 0
1, 17430, Note_on_c, 1, 72, 127
1, 17456, Note_off_c, 1, 72, 0
1, 17460, Note_on_c, 1, 71, 127
1, 17460, Note_on_c, 1, 50, 127
1, 17486, Note_off_c, 1, 71, 0
1, 17490, Note_on_c, 1, 69, 127
1, 17512, Note_off_c, 1, 50, 0
1, 17516, Note_off_c, 1, 69, 0
1, 17520, Note_on_c, 1, 67, 127
1, 17520, Note_on_c, 1, 52, 127
1, 17546, Note_off_c, 1, 67, 0
1, 17550, Note_on_c, 1, 66, 127
1, 17572, Note_off_c, 1, 52, 0
1, 17576, Note_off_c, 1, 66, 0
1, 17580, Note_on_c, 1, 64, 127
1, 17580, Note_on_c, 1, 55, 127
1, 17606, Note_off_c, 1, 64, 0
1, 17610, Note_on_c, 1, 62, 127
1, 17636, Note_off_c, 1, 62, 0
1, 17666, Note_off_c, 1, 55, 0
1, 17670, Note_on_c, 1, 47, 127
1, 17696, Note_off_c, 1, 47, 0
1, 17700, Note_on_c, 1, 72, 127
1, 17700, Note_on_c, 1, 45, 127
1, 17726, Note_off_c, 1, 45, 0
1, 17730, Note_on_c, 1, 43, 127
1, 17756, Note_off_c, 1, 43, 0
1, 17786, Note_off_c, 1, 72, 0
1, 17790, Note_on_c, 1, 71, 127
1, 17816, Note_off_c, 1, 71, 0
1, 17820, Note_on_c, 1, 69, 127
1, 17820, Note_on_c, 1, 48, 127
1, 17846, Note_off_c, 1, 69, 0
1, 17850, Note_on_c, 1, 67, 127
1, 17872, Note_off_c, 1, 48, 0
1, 17876, Note_off_c, 1, 67, 0
1, 17880, Note_on_c, 1, 66, 127
1, 17880, Note_on_c, 1, 50, 127
1, 17906, Note_off_c, 1, 66, 0
1, 17910, Note_on_c, 1, 64, 127
1, 17932, Note_off_c, 1, 50, 0
1, 17936, Note_off_c, 1, 64, 0
1, 17940, Note_on_c, 1, 62, 127
1, 17940, Note_on_c, 1, 54, 127
1, 17966, Note_off_c, 1, 62, 0
1, 17970, Note_on_c, 1, 60, 127
1, 17996, Note_off_c, 1, 60, 0
1, 18026, Note_off_c, 1, 54, 0
1, 18030, Note_on_c, 1, 66, 127
1, 18030, Note_on_c, 1, 45, 127
1, 18056, Note_off_c, 1, 66, 0
1, 18056, Note_off_c, 1, 45, 0
1, 18060, Note_on_c, 1, 64, 127
1, 18060, Note_on_c, 1, 43, 127
1, 18086, Note_off_c, 1, 64, 0
1, 18086, Note_off_c, 1, 43, 0
1, 18090, Note_on_c, 1, 62, 127
1, 18090, Note_on_c, 1, 42, 127
1, 18116, Note_off_c, 1, 62, 0
1, 18116, Note_off_c, 1, 42, 0
1, 18120, Note_on_c, 1, 64, 127
1, 18120, Note_on_c, 1, 43, 127
1, 18146, Note_off_c, 1, 64, 0
1, 18150, Note_on_c, 1, 66, 127
1, 18172, Note_off_c, 1, 43, 0
1, 18176, Note_off_c, 1, 66, 0
1, 18180, Note_on_c, 1, 67, 127
1, 18180, Note_on_c, 1, 47, 127
1, 18206, Note_off_c, 1, 67, 0
1, 18210, Note_on_c, 1, 69, 127
1, 18232, Note_off_c, 1, 47, 0
1, 18236, Note_off_c, 1, 69, 0
1, 18240, Note_on_c, 1, 71, 127
1, 18240, Note_on_c, 1, 50, 127
1, 18266, Note_off_c, 1, 71, 0
1, 18270, Note_on_c, 1, 69, 127
1, 18292, Note_off_c, 1, 50, 0
1, 18296, Note_off_c, 1, 69, 0
1, 18300, Note_on_c, 1, 71, 127
1, 18300, Note_on_c, 1, 55, 127
1, 18326, Note_off_c, 1, 71, 0
1, 18330, Note_on_c, 1, 67, 127
1, 18352, Note_off_c, 1, 55, 0
1, 18356, Note_off_c, 1, 67, 0
1, 18360, Note_on_c, 1, 69, 127
1, 18360, Note_on_c, 1, 54, 127
1, 18386, Note_off_c, 1, 69, 0
1, 18390, Note_on_c, 1, 74, 127
1, 18412, Note_off_c, 1, 54, 0
1, 18416, Note_off_c, 1, 74, 0
1, 18420, Note_on_c, 1, 72, 127
1, 18420, Note_on_c, 1, 50, 127
1, 18446, Note_off_c, 1, 72, 0
1, 18450, Note_on_c, 1, 71, 127
1, 18472, Note_off_c, 1, 50, 0
1, 18476, Note_off_c, 1, 71, 0
1, 18480, Note_on_c, 1, 69, 127
1, 18480, Note_on_c, 1, 54, 127
1, 18506, Note_off_c, 1, 69, 0
1, 18510, Note_on_c, 1, 67, 127
1, 18532, Note_off_c, 1, 54, 0
1, 18536, Note_off_c, 1, 67, 0
1, 18540, Note_on_c, 1, 66, 127
1, 18540, Note_on_c, 1, 57, 127
1, 18566, Note_off_c, 1, 66, 0
1, 18570, Note_on_c, 1, 64, 127
1, 18592, Note_off_c, 1, 57, 0
1, 18596, Note_off_c, 1, 64, 0
1, 18600, Note_on_c, 1, 62, 127
1, 18630, Note_on_c, 1, 50, 127
1, 18656, Note_off_c, 1, 50, 0
1, 18660, Note_on_c, 1, 48, 127
1, 18686, Note_off_c, 1, 48, 0
1, 18720, Note_on_c, 1, 47, 127
1, 18746, Note_off_c, 1, 62, 0
1, 18746, Note_off_c, 1, 47, 0
1, 18750, Note_on_c, 1, 67, 127
1, 18750, Note_on_c, 1, 50, 127
1, 18776, Note_off_c, 1, 67, 0
1, 18776, Note_off_c, 1, 50, 0
1, 18780, Note_on_c, 1, 60, 127
1, 18780, Note_on_c, 1, 45, 127
1, 18806, Note_off_c, 1, 60, 0
1, 18806, Note_off_c, 1, 45, 0
1, 18810, Note_on_c, 1, 67, 127
1, 18810, Note_on_c, 1, 50, 127
1, 18836, Note_off_c, 1, 67, 0
1, 18836, Note_off_c, 1, 50, 0
1, 18840, Note_on_c, 1, 62, 127
1, 18840, Note_on_c, 1, 47, 127
1, 18866, Note_off_c, 1, 62, 0
1, 18866, Note_off_c, 1, 47, 0
1, 18870, Note_on_c, 1, 67, 127
1, 18870, Note_on_c, 1, 50, 127
1, 18896, Note_off_c, 1, 67, 0
1, 18896, Note_off_c, 1, 50, 0
1, 18900, Note_on_c, 1, 59, 127
1, 18900, Note_on_c, 1, 43, 127
1, 18926, Note_off_c, 1, 59, 0
1, 18926, Note_off_c, 1, 43, 0
1, 18930, Note_on_c, 1, 67, 127
1, 18930, Note_on_c, 1, 50, 127
1, 18956, Note_off_c, 1, 67, 0
1, 18956, Note_off_c, 1, 50, 0
1, 18960, Note_on_c, 1, 60, 127
1, 18960, Note_on_c, 1, 45, 127
1, 18986, Note_off_c, 1, 60, 0
1, 18986, Note_off_c, 1, 45, 0
1, 18990, Note_on_c, 1, 67, 127
1, 18990, Note_on_c, 1, 50, 127
1, 19016, Note_off_c, 1, 67, 0
1, 19016, Note_off_c, 1, 50, 0
1, 19020, Note_on_c, 1, 62, 127
1, 19020, Note_on_c, 1, 47, 127
1, 19046, Note_off_c, 1, 62, 0
1, 19046, Note_off_c, 1, 47, 0
1, 19050, Note_on_c, 1, 67, 127
1, 19050, Note_on_c, 1, 50, 127
1, 19076, Note_off_c, 1, 67, 0
1, 19076, Note_off_c, 1, 50, 0
1, 19080, Note_on_c, 1, 64, 127
1, 19080, Note_on_c, 1, 48, 127
1, 19106, Note_off_c, 1, 64, 0
1, 19106, Note_off_c, 1, 48, 0
1, 19110, Note_on_c, 1, 67, 127
1, 19110, Note_on_c, 1, 52, 127
1, 19136, Note_off_c, 1, 67, 0
1, 19136, Note_off_c, 1, 52, 0
1, 19140, Note_on_c, 1, 62, 127
1, 19140, Note_on_c, 1, 47, 127
1, 19166, Note_off_c, 1, 62, 0
1, 19166, Note_off_c, 1, 47, 0
1, 19170, Note_on_c, 1, 67, 127
1, 19170, Note_on_c, 1, 52, 127
1, 19196, Note_off_c, 1, 67, 0
1, 19196, Note_off_c, 1, 52, 0
1, 19200, Note_on_c, 1, 64, 127
1, 19200, Note_on_c, 1, 49, 127
1, 19226, Note_off_c, 1, 64, 0
1, 19226, Note_off_c, 1, 49, 0
1, 19230, Note_on_c, 1, 69, 127
1, 19230, Note_on_c, 1, 52, 127
1, 19256, Note_off_c, 1, 69, 0
1, 19256, Note_off_c, 1, 52, 0
1, 19260, Note_on_c, 1, 61, 127
1, 19260, Note_on_c, 1, 45, 127
1, 19286, Note_off_c, 1, 61, 0
1, 19286, Note_off_c, 1, 45, 0
1, 19290, Note_on_c, 1, 69, 127
1, 19290, Note_on_c, 1, 52, 127
1, 19316, Note_off_c, 1, 69, 0
1, 19316, Note_off_c, 1, 52, 0
1, 19320, Note_on_c, 1, 62, 127
1, 19320, Note_on_c, 1, 47, 127
1, 19346, Note_off_c, 1, 62, 0
1, 19346, Note_off_c, 1, 47, 0
1, 19350, Note_on_c, 1, 69, 127
1, 19350, Note_on_c, 1, 52, 127
1, 19376, Note_off_c, 1, 69, 0
1, 19376, Note_off_c, 1, 52, 0
1, 19380, Note_on_c, 1, 64, 127
1, 19380, Note_on_c, 1, 49, 127
1, 19406, Note_off_c, 1, 64, 0
1, 19406, Note_off_c, 1, 49, 0
1, 19410, Note_on_c, 1, 69, 127
1, 19410, Note_on_c, 1, 52, 127
1, 19436, Note_off_c, 1, 69, 0
1, 19436, Note_off_c, 1, 52, 0
1, 19440, Note_on_c, 1, 66, 127
1, 19440, Note_on_c, 1, 50, 127
1, 19466, Note_off_c, 1, 66, 0
1, 19466, Note_off_c, 1, 50, 0
1, 19470, Note_on_c, 1, 69, 127
1, 19470, Note_on_c, 1, 54, 127
1, 19496, Note_off_c, 1, 69, 0
1, 19496, Note_off_c, 1, 54, 0
1, 19500, Note_on_c, 1, 64, 127
1, 19500, Note_on_c, 1, 49, 127
1, 19526, Note_off_c, 1, 64, 0
1, 19526, Note_off_c, 1, 49, 0
1, 19530, Note_on_c, 1, 69, 127
1, 19530, Note_on_c, 1, 54, 127
1, 19556, Note_off_c, 1, 69, 0
1, 19556, Note_off_c, 1, 54, 0
1, 19560, Note_on_c, 1, 66, 127
1, 19560, Note_on_c, 1, 51, 127
1, 19586, Note_off_c, 1, 66, 0
1, 19586, Note_off_c, 1, 51, 0
1, 19590, Note_on_c, 1, 71, 127
1, 19590, Note_on_c, 1, 54, 127
1, 19616, Note_off_c, 1, 71, 0
1, 19616, Note_off_c, 1, 54, 0
1, 19620, Note_on_c, 1, 63, 127
1, 19620, Note_on_c, 1, 47, 127
1, 19646, Note_off_c, 1, 63, 0
1, 19646, Note_off_c, 1, 47, 0
1, 19650, Note_on_c, 1, 71, 127
1, 19650, Note_on_c, 1, 54, 127
1, 19676, Note_off_c, 1, 71, 0
1, 19676, Note_off_c, 1, 54, 0
1, 19680, Note_on_c, 1, 64, 127
1, 19680, Note_on_c, 1, 49, 127
1, 19706, Note_off_c, 1, 64, 0
1, 19706, Note_off_c, 1, 49, 0
1, 19710, Note_on_c, 1, 71, 127
1, 19710, Note_on_c, 1, 54, 127
1, 19736, Note_off_c, 1, 71, 0
1, 19736, Note_off_c, 1, 54, 0
1, 19740, Note_on_c, 1, 66, 127
1, 19740, Note_on_c, 1, 51, 127
1, 19766, Note_off_c, 1, 66, 0
1, 19766, Note_off_c, 1, 51, 0
1, 19770, Note_on_c, 1, 71, 127
1, 19770, Note_on_c, 1, 54, 127
1, 19796, Note_off_c, 1, 71, 0
1, 19796, Note_off_c, 1, 54, 0
1, 19800, Note_on_c, 1, 67, 127
1, 19800, Note_on_c, 1, 52, 127
1, 19826, Note_off_c, 1, 67, 0
1, 19826, Note_off_c, 1, 52, 0
1, 19830, Note_on_c, 1, 71, 127
1, 19830, Note_on_c, 1, 55, 127
1, 19856, Note_off_c, 1, 71, 0
1, 19856, Note_off_c, 1, 55, 0
1, 19860, Note_on_c, 1, 66, 127
1, 19860, Note_on_c, 1, 50, 127
1, 19886, Note_off_c, 1, 66, 0
1, 19886, Note_off_c, 1, 50, 0
1, 19890, Note_on_c, 1, 71, 127
1, 19890, Note_on_c, 1, 55, 127
1, 19916, Note_off_c, 1, 71, 0
1, 19916, Note_off_c, 1, 55, 0
1, 19920, Note_on_c, 1, 64, 127
1, 19920, Note_on_c, 1, 48, 127
1, 19946, Note_off_c, 1, 48, 0
1, 19950, Note_on_c, 1, 55, 127
1, 19972, Note_off_c, 1, 64, 0
1, 19976, Note_off_c, 1, 55, 0
1, 19980, Note_on_c, 1, 67, 127
1, 19980, Note_on_c, 1, 47, 127
1, 20006, Note_off_c, 1, 47, 0
1, 20010, Note_on_c, 1, 55, 127
1, 20032, Note_off_c, 1, 67, 0
1, 20036, Note_off_c, 1, 55, 0
1, 20040, Note_on_c, 1, 72, 127
1, 20040, Note_on_c, 1, 45, 127
1, 20066, Note_off_c, 1, 45, 0
1, 20070, Note_on_c, 1, 48, 127
1, 20096, Note_off_c, 1, 48, 0
1, 20100, Note_on_c, 1, 52, 127
1, 20126, Note_off_c, 1, 52, 0
1, 20130, Note_on_c, 1, 55, 127
1, 20156, Note_off_c, 1, 55, 0
1, 20160, Note_on_c, 1, 54, 127
1, 20186, Note_off_c, 1, 72, 0
1, 20190, Note_on_c, 1, 81, 127
1, 20212, Note_off_c, 1, 54, 0
1, 20216, Note_off_c, 1, 81, 0
1, 20220, Note_on_c, 1, 79, 127
1, 20220, Note_on_c, 1, 57, 127
1, 20246, Note_off_c, 1, 79, 0
1, 20250, Note_on_c, 1, 81, 127
1, 20272, Note_off_c, 1, 57, 0
1, 20276, Note_off_c, 1, 81, 0
1, 20280, Note_on_c, 1, 78, 127
1, 20280, Note_on_c, 1, 50, 127
1, 20306, Note_off_c, 1, 78, 0
1, 20310, Note_on_c, 1, 81, 127
1, 20332, Note_off_c, 1, 50, 0
1, 20336, Note_off_c, 1, 81, 0
1, 20340, Note_on_c, 1, 76, 127
1, 20340, Note_on_c, 1, 52, 127
1, 20366, Note_off_c, 1, 76, 0
1, 20370, Note_on_c, 1, 81, 127
1, 20392, Note_off_c, 1, 52, 0
1, 20396, Note_off_c, 1, 81, 0
1, 20400, Note_on_c, 1, 74, 127
1, 20400, Note_on_c, 1, 54, 127
1, 20426, Note_off_c, 1, 74, 0
1, 20430, Note_on_c, 1, 81, 127
1, 20452, Note_off_c, 1, 54, 0
1, 20456, Note_off_c, 1, 81, 0
1, 20460, Note_on_c, 1, 72, 127
1, 20460, Note_on_c, 1, 50, 127
1, 20486, Note_off_c, 1, 72, 0
1, 20490, Note_on_c, 1, 81, 127
1, 20512, Note_off_c, 1, 50, 0
1, 20516, Note_off_c, 1, 81, 0
1, 20520, Note_on_c, 1, 71, 127
1, 20520, Note_on_c, 1, 55, 127
1, 20546, Note_off_c, 1, 55, 0
1, 20550, Note_on_c, 1, 67, 127
1, 20572, Note_off_c, 1, 71, 0
1, 20576, Note_off_c, 1, 67, 0
1, 20580, Note_on_c, 1, 74, 127
1, 20580, Note_on_c, 1, 65, 127
1, 20606, Note_off_c, 1, 65, 0
1, 20610, Note_on_c, 1, 67, 127
1, 20632, Note_off_c, 1, 74, 0
1, 20636, Note_off_c, 1, 67, 0
1, 20640, Note_on_c, 1, 79, 127
1, 20640, Note_on_c, 1, 64, 127
1, 20666, Note_off_c, 1, 64, 0
1, 20670, Note_on_c, 1, 67, 127
1, 20692, Note_off_c, 1, 79, 0
1, 20696, Note_off_c, 1, 67, 0
1, 20700, Note_on_c, 1, 77, 127
1, 20700, Note_on_c, 1, 62, 127
1, 20726, Note_off_c, 1, 62, 0
1, 20730, Note_on_c, 1, 67, 127
1, 20752, Note_off_c, 1, 77, 0
1, 20756, Note_off_c, 1, 67, 0
1, 20760, Note_on_c, 1, 76, 127
1, 20760, Note_on_c, 1, 60, 127
1, 20786, Note_off_c, 1, 60, 0
1, 20790, Note_on_c, 1, 67, 127
1, 20812, Note_off_c, 1, 76, 0
1, 20816, Note_off_c, 1, 67, 0
1, 20820, Note_on_c, 1, 74, 127
1, 20820, Note_on_c, 1, 59, 127
1, 20846, Note_off_c, 1, 59, 0
1, 20850, Note_on_c, 1, 67, 127
1, 20872, Note_off_c, 1, 74, 0
1, 20876, Note_off_c, 1, 67, 0
1, 20880, Note_on_c, 1, 76, 127
1, 20880, Note_on_c, 1, 60, 127
1, 20906, Note_off_c, 1, 76, 0
1, 20906, Note_off_c, 1, 60, 0
1, 20910, Note_on_c, 1, 72, 127
1, 20910, Note_on_c, 1, 64, 127
1, 20936, Note_off_c, 1, 72, 0
1, 20936, Note_off_c, 1, 64, 0
1, 20940, Note_on_c, 1, 71, 127
1, 20940, Note_on_c, 1, 62, 127
1, 20966, Note_off_c, 1, 71, 0
1, 20966, Note_off_c, 1, 62, 0
1, 20970, Note_on_c, 1, 72, 127
1, 20970, Note_on_c, 1, 64, 127
1, 20996, Note_off_c, 1, 72, 0
1, 20996, Note_off_c, 1, 64, 0
1, 21000, Note_on_c, 1, 84, 127
1, 21000, Note_on_c, 1, 57, 127
1, 21026, Note_off_c, 1, 84, 0
1, 21030, Note_on_c, 1, 72, 127
1, 21052, Note_off_c, 1, 57, 0
1, 21056, Note_off_c, 1, 72, 0
1, 21060, Note_on_c, 1, 83, 127
1, 21060, Note_on_c, 1, 59, 127
1, 21086, Note_off_c, 1, 83, 0
1, 21090, Note_on_c, 1, 72, 127
1, 21112, Note_off_c, 1, 59, 0
1, 21116, Note_off_c, 1, 72, 0
1, 21120, Note_on_c, 1, 81, 127
1, 21120, Note_on_c, 1, 60, 127
1, 21146, Note_off_c, 1, 81, 0
1, 21150, Note_on_c, 1, 72, 127
1, 21172, Note_off_c, 1, 60, 0
1, 21176, Note_off_c, 1, 72, 0
1, 21180, Note_on_c, 1, 79, 127
1, 21180, Note_on_c, 1, 57, 127
1, 21206, Note_off_c, 1, 79, 0
1, 21210, Note_on_c, 1, 72, 127
1, 21232, Note_off_c, 1, 57, 0
1, 21236, Note_off_c, 1, 72, 0
1, 21240, Note_on_c, 1, 78, 127
1, 21240, Note_on_c, 1, 62, 127
1, 21266, Note_off_c, 1, 78, 0
1, 21270, Note_on_c, 1, 72, 127
1, 21292, Note_off_c, 1, 62, 0
1, 21296, Note_off_c, 1, 72, 0
1, 21300, Note_on_c, 1, 79, 127
1, 21300, Note_on_c, 1, 57, 127
1, 21326, Note_off_c, 1, 79, 0
1, 21330, Note_on_c, 1, 72, 127
1, 21352, Note_off_c, 1, 57, 0
1, 21356, Note_off_c, 1, 72, 0
1, 21360, Note_on_c, 1, 81, 127
1, 21360, Note_on_c, 1, 54, 127
1, 21386, Note_off_c, 1, 81, 0
1, 21390, Note_on_c, 1, 72, 127
1, 21412, Note_off_c, 1, 54, 0
1, 21416, Note_off_c, 1, 72, 0
1, 21420, Note_on_c, 1, 79, 127
1, 21420, Note_on_c, 1, 57, 127
1, 21446, Note_off_c, 1, 79, 0
1, 21450, Note_on_c, 1, 72, 127
1, 21472, Note_off_c, 1, 57, 0
1, 21476, Note_off_c, 1, 72, 0
1, 21480, Note_on_c, 1, 78, 127
1, 21480, Note_on_c, 1, 50, 127
1, 21506, Note_off_c, 1, 78, 0
1, 21510, Note_on_c, 1, 72, 127
1, 21532, Note_off_c, 1, 50, 0
1, 21536, Note_off_c, 1, 72, 0
1, 21540, Note_on_c, 1, 76, 127
1, 21540, Note_on_c, 1, 54, 127
1, 21566, Note_off_c, 1, 76, 0
1, 21570, Note_on_c, 1, 72, 127
1, 21592, Note_off_c, 1, 54, 0
1, 21596, Note_off_c, 1, 72, 0
1, 21600, Note_on_c, 1, 74, 127
1, 21600, Note_on_c, 1, 47, 127
1, 21626, Note_off_c, 1, 74, 0
1, 21630, Note_on_c, 1, 72, 127
1, 21652, Note_off_c, 1, 47, 0
1, 21656, Note_off_c, 1, 72, 0
1, 21660, Note_on_c, 1, 71, 127
1, 21660, Note_on_c, 1, 50, 127
1, 21686, Note_off_c, 1, 71, 0
1, 21690, Note_on_c, 1, 69, 127
1, 21712, Note_off_c, 1, 50, 0
1, 21716, Note_off_c, 1, 69, 0
1, 21720, Note_on_c, 1, 71, 127
1, 21720, Note_on_c, 1, 43, 127
1, 21746, Note_off_c, 1, 43, 0
1, 21750, Note_on_c, 1, 45, 127
1, 21772, Note_off_c, 1, 71, 0
1, 21776, Note_off_c, 1, 45, 0
1, 21780, Note_on_c, 1, 79, 127
1, 21780, Note_on_c, 1, 47, 127
1, 21806, Note_off_c, 1, 47, 0
1, 21810, Note_on_c, 1, 48, 127
1, 21832, Note_off_c, 1, 79, 0
1, 21836, Note_off_c, 1, 48, 0
1, 21840, Note_on_c, 1, 69, 127
1, 21840, Note_on_c, 1, 50, 127
1, 21892, Note_off_c, 1, 69, 0
1, 21892, Note_off_c, 1, 50, 0
1, 21900, Note_on_c, 1, 78, 127
1, 21900, Note_on_c, 1, 38, 127
1, 21952, Note_off_c, 1, 78, 0
1, 21952, Note_off_c, 1, 38, 0
1, 21960, Note_on_c, 1, 67, 127
1, 21960, Note_on_c, 1, 40, 127
1, 21986, Note_off_c, 1, 67, 0
1, 21990, Note_on_c, 1, 69, 127
1, 22012, Note_off_c, 1, 40, 0
1, 22016, Note_off_c, 1, 69, 0
1, 22020, Note_on_c, 1, 70, 127
1, 22020, Note_on_c, 1, 55, 127
1, 22046, Note_off_c, 1, 70, 0
1, 22050, Note_on_c, 1, 67, 127
1, 22072, Note_off_c, 1, 55, 0
1, 22076, Note_off_c, 1, 67, 0
1, 22080, Note_on_c, 1, 73, 127
1, 22080, Note_on_c, 1, 58, 127
1, 22106, Note_off_c, 1, 73, 0
1, 22110, Note_on_c, 1, 67, 127
1, 22132, Note_off_c, 1, 58, 0
1, 22136, Note_off_c, 1, 67, 0
1, 22140, Note_on_c, 1, 74, 127
1, 22140, Note_on_c, 1, 50, 127
1, 22166, Note_off_c, 1, 74, 0
1, 22170, Note_on_c, 1, 67, 127
1, 22192, Note_off_c, 1, 50, 0
1, 22196, Note_off_c, 1, 67, 0
1, 22200, Note_on_c, 1, 76, 127
1, 22200, Note_on_c, 1, 49, 127
1, 22226, Note_off_c, 1, 76, 0
1, 22230, Note_on_c, 1, 67, 127
1, 22252, Note_off_c, 1, 49, 0
1, 22256, Note_off_c, 1, 67, 0
1, 22260, Note_on_c, 1, 66, 127
1, 22260, Note_on_c, 1, 45, 127
1, 22286, Note_off_c, 1, 66, 0
1, 22290, Note_on_c, 1, 64, 127
1, 22312, Note_off_c, 1, 45, 0
1, 22316, Note_off_c, 1, 64, 0
1, 22320, Note_on_c, 1, 66, 127
1, 22320, Note_on_c, 1, 50, 127
1, 22346, Note_off_c, 1, 66, 0
1, 22346, Note_off_c, 1, 50, 0
1, 22350, Note_on_c, 1, 69, 127
1, 22350, Note_on_c, 1, 54, 127
1, 22376, Note_off_c, 1, 69, 0
1, 22376, Note_off_c, 1, 54, 0
1, 22380, Note_on_c, 1, 74, 127
1, 22380, Note_on_c, 1, 57, 127
1, 22406, Note_off_c, 1, 57, 0
1, 22410, Note_on_c, 1, 60, 127
1, 22436, Note_off_c, 1, 60, 0
1, 22440, Note_on_c, 1, 59, 127
1, 22492, Note_off_c, 1, 74, 0
1, 22492, Note_off_c, 1, 59, 0
1, 22500, Note_on_c, 1, 72, 127
1, 22500, Note_on_c, 1, 55, 127
1, 22526, Note_off_c, 1, 72, 0
1, 22530, Note_on_c, 1, 71, 127
1, 22552, Note_off_c, 1, 55, 0
1, 22556, Note_off_c, 1, 71, 0
1, 22560, Note_on_c, 1, 72, 127
1, 22560, Note_on_c, 1, 62, 127
1, 22586, Note_off_c, 1, 72, 0
1, 22590, Note_on_c, 1, 71, 127
1, 22612, Note_off_c, 1, 62, 0
1, 22616, Note_off_c, 1, 71, 0
1, 22620, Note_on_c, 1, 69, 127
1, 22620, Note_on_c, 1, 50, 127
1, 22646, Note_off_c, 1, 69, 0
1, 22650, Note_on_c, 1, 71, 127
1, 22672, Note_off_c, 1, 50, 0
1, 22676, Note_off_c, 1, 71, 0
1, 22680, Note_on_c, 1, 67, 127
1, 22680, Note_on_c, 1, 55, 127
1, 22732, Note_off_c, 1, 67, 0
1, 22732, Note_off_c, 1, 55, 0
1, 22740, Note_on_c, 1, 66, 127
1, 22740, Note_on_c, 1, 43, 127
1, 22766, Note_off_c, 1, 66, 0
1, 22770, Note_on_c, 1, 64, 127
1, 22792, Note_off_c, 1, 43, 0
1, 22796, Note_off_c, 1, 64, 0
1, 22800, Note_on_c, 1, 62, 127
1, 22800, Note_on_c, 1, 47, 127
1, 22826, Note_off_c, 1, 62, 0
1, 22830, Note_on_c, 1, 60, 127
1, 22852, Note_off_c, 1, 47, 0
1, 22856, Note_off_c, 1, 60, 0
1, 22860, Note_on_c, 1, 59, 127
1, 22860, Note_on_c, 1, 50, 127
1, 22886, Note_off_c, 1, 59, 0
1, 22890, Note_on_c, 1, 57, 127
1, 22912, Note_off_c, 1, 50, 0
1, 22916, Note_off_c, 1, 57, 0
1, 22920, Note_on_c, 1, 55, 127
1, 23025, Note_off_c, 1, 55, 0
1, 23040, Note_on_c, 1, 66, 127
1, 23040, Note_on_c, 1, 57, 127
1, 23040, Note_on_c, 1, 50, 127
1, 23066, Note_off_c, 1, 66, 0
1, 23070, Note_on_c, 1, 62, 127
1, 23092, Note_off_c, 1, 57, 0
1, 23096, Note_off_c, 1, 62, 0
1, 23100, Note_on_c, 1, 64, 127
1, 23100, Note_on_c, 1, 55, 127
1, 23126, Note_off_c, 1, 64, 0
1, 23152, Note_off_c, 1, 55, 0
1, 23220, Note_on_c, 1, 67, 127
1, 23220, Note_on_c, 1, 59, 127
1, 23246, Note_off_c, 1, 67, 0
1, 23272, Note_off_c, 1, 59, 0
1, 23280, Note_on_c, 1, 69, 127
1, 23280, Note_on_c, 1, 60, 127
1, 23306, Note_off_c, 1, 69, 0
1, 23332, Note_off_c, 1, 60, 0
1, 23940, Note_on_c, 1, 71, 127
1, 23966, Note_off_c, 1, 71, 0
1, 24060, Note_on_c, 1, 72, 127
1, 24060, Note_on_c, 1, 54, 127
1, 24086, Note_off_c, 1, 72, 0
1, 24105, Note_off_c, 1, 50, 0
1, 24112, Note_off_c, 1, 54, 0
1, 24120, Note_on_c, 1, 71, 127
1, 24120, Note_on_c, 1, 43, 127
1, 24146, Note_off_c, 1, 43, 0
1, 24150, Note_on_c, 1, 55, 127
1, 24172, Note_off_c, 1, 71, 0
1, 24176, Note_off_c, 1, 55, 0
1, 24180, Note_on_c, 1, 69, 127
1, 24180, Note_on_c, 1, 54, 127
1, 24206, Note_off_c, 1, 54, 0
1, 24210, Note_on_c, 1, 55, 127
1, 24232, Note_off_c, 1, 69, 0
1, 24236, Note_off_c, 1, 55, 0
1, 24240, Note_on_c, 1, 67, 127
1, 24240, Note_on_c, 1, 59, 127
1, 24266, Note_off_c, 1, 59, 0
1, 24270, Note_on_c, 1, 55, 127
1, 24292, Note_off_c, 1, 67, 0
1, 24296, Note_off_c, 1, 55, 0
1, 24300, Note_on_c, 1, 69, 127
1, 24300, Note_on_c, 1, 60, 127
1, 24326, Note_off_c, 1, 60, 0
1, 24330, Note_on_c, 1, 55, 127
1, 24352, Note_off_c, 1, 69, 0
1, 24356, Note_off_c, 1, 55, 0
1, 24360, Note_on_c, 1, 71, 127
1, 24360, Note_on_c, 1, 62, 127
1, 24386, Note_off_c, 1, 62, 0
1, 24390, Note_on_c, 1, 55, 127
1, 24412, Note_off_c, 1, 71, 0
1, 24416, Note_off_c, 1, 55, 0
1, 24420, Note_on_c, 1, 72, 127
1, 24420, Note_on_c, 1, 60, 127
1, 24446, Note_off_c, 1, 60, 0
1, 24450, Note_on_c, 1, 55, 127
1, 24472, Note_off_c, 1, 72, 0
1, 24476, Note_off_c, 1, 55, 0
1, 24480, Note_on_c, 1, 74, 127
1, 24480, Note_on_c, 1, 59, 127
1, 24506, Note_off_c, 1, 59, 0
1, 24510, Note_on_c, 1, 55, 127
1, 24532, Note_off_c, 1, 74, 0
1, 24536, Note_off_c, 1, 55, 0
1, 24540, Note_on_c, 1, 72, 127
1, 24540, Note_on_c, 1, 57, 127
1, 24566, Note_off_c, 1, 57, 0
1, 24570, Note_on_c, 1, 55, 127
1, 24592, Note_off_c, 1, 72, 0
1, 24596, Note_off_c, 1, 55, 0
1, 24600, Note_on_c, 1, 74, 127
1, 24600, Note_on_c, 1, 59, 127
1, 24626, Note_off_c, 1, 59, 0
1, 24630, Note_on_c, 1, 55, 127
1, 24652, Note_off_c, 1, 74, 0
1, 24656, Note_off_c, 1, 55, 0
1, 24660, Note_on_c, 1, 76, 127
1, 24660, Note_on_c, 1, 60, 127
1, 24686, Note_off_c, 1, 60, 0
1, 24690, Note_on_c, 1, 55, 127
1, 24712, Note_off_c, 1, 76, 0
1, 24716, Note_off_c, 1, 55, 0
1, 24720, Note_on_c, 1, 77, 127
1, 24720, Note_on_c, 1, 62, 127
1, 24746, Note_off_c, 1, 62, 0
1, 24750, Note_on_c, 1, 55, 127
1, 24772, Note_off_c, 1, 77, 0
1, 24776, Note_off_c, 1, 55, 0
1, 24780, Note_on_c, 1, 74, 127
1, 24780, Note_on_c, 1, 59, 127
1, 24806, Note_off_c, 1, 59, 0
1, 24810, Note_on_c, 1, 55, 127
1, 24832, Note_off_c, 1, 74, 0
1, 24836, Note_off_c, 1, 55, 0
1, 24840, Note_on_c, 1, 76, 127
1, 24840, Note_on_c, 1, 60, 127
1, 24866, Note_off_c, 1, 60, 0
1, 24870, Note_on_c, 1, 55, 127
1, 24892, Note_off_c, 1, 76, 0
1, 24896, Note_off_c, 1, 55, 0
1, 24900, Note_on_c, 1, 79, 127
1, 24900, Note_on_c, 1, 59, 127
1, 24926, Note_off_c, 1, 59, 0
1, 24930, Note_on_c, 1, 55, 127
1, 24952, Note_off_c, 1, 79, 0
1, 24956, Note_off_c, 1, 55, 0
1, 24960, Note_on_c, 1, 76, 127
1, 24960, Note_on_c, 1, 60, 127
1, 24986, Note_off_c, 1, 60, 0
1, 24990, Note_on_c, 1, 55, 127
1, 25012, Note_off_c, 1, 76, 0
1, 25016, Note_off_c, 1, 55, 0
1, 25020, Note_on_c, 1, 72, 127
1, 25020, Note_on_c, 1, 64, 127
1, 25046, Note_off_c, 1, 64, 0
1, 25050, Note_on_c, 1, 55, 127
1, 25072, Note_off_c, 1, 72, 0
1, 25076, Note_off_c, 1, 55, 0
1, 25080, Note_on_c, 1, 74, 127
1, 25080, Note_on_c, 1, 62, 127
1, 25106, Note_off_c, 1, 62, 0
1, 25110, Note_on_c, 1, 55, 127
1, 25132, Note_off_c, 1, 74, 0
1, 25136, Note_off_c, 1, 55, 0
1, 25140, Note_on_c, 1, 71, 127
1, 25140, Note_on_c, 1, 65, 127
1, 25166, Note_off_c, 1, 65, 0
1, 25170, Note_on_c, 1, 55, 127
1, 25192, Note_off_c, 1, 71, 0
1, 25196, Note_off_c, 1, 55, 0
1, 25200, Note_on_c, 1, 72, 127
1, 25200, Note_on_c, 1, 64, 127
1, 25226, Note_off_c, 1, 72, 0
1, 25226, Note_off_c, 1, 64, 0
1, 25230, Note_on_c, 1, 76, 127
1, 25230, Note_on_c, 1, 60, 127
1, 25256, Note_off_c, 1, 76, 0
1, 25256, Note_off_c, 1, 60, 0
1, 25260, Note_on_c, 1, 75, 127
1, 25260, Note_on_c, 1, 59, 127
1, 25286, Note_off_c, 1, 75, 0
1, 25286, Note_off_c, 1, 59, 0
1, 25290, Note_on_c, 1, 76, 127
1, 25290, Note_on_c, 1, 60, 127
1, 25316, Note_off_c, 1, 76, 0
1, 25316, Note_off_c, 1, 60, 0
1, 25320, Note_on_c, 1, 81, 127
1, 25320, Note_on_c, 1, 54, 127
1, 25346, Note_off_c, 1, 81, 0
1, 25350, Note_on_c, 1, 72, 127
1, 25372, Note_off_c, 1, 54, 0
1, 25376, Note_off_c, 1, 72, 0
1, 25380, Note_on_c, 1, 79, 127
1, 25380, Note_on_c, 1, 64, 127
1, 25406, Note_off_c, 1, 79, 0
1, 25410, Note_on_c, 1, 72, 127
1, 25432, Note_off_c, 1, 64, 0
1, 25436, Note_off_c, 1, 72, 0
1, 25440, Note_on_c, 1, 78, 127
1, 25440, Note_on_c, 1, 63, 127
1, 25466, Note_off_c, 1, 78, 0
1, 25470, Note_on_c, 1, 72, 127
1, 25492, Note_off_c, 1, 63, 0
1, 25496, Note_off_c, 1, 72, 0
1, 25500, Note_on_c, 1, 76, 127
1, 25500, Note_on_c, 1, 66, 127
1, 25526, Note_off_c, 1, 76, 0
1, 25530, Note_on_c, 1, 72, 127
1, 25552, Note_off_c, 1, 66, 0
1, 25556, Note_off_c, 1, 72, 0
1, 25560, Note_on_c, 1, 75, 127
1, 25560, Note_on_c, 1, 59, 127
1, 25586, Note_off_c, 1, 75, 0
1, 25586, Note_off_c, 1, 59, 0
1, 25590, Note_on_c, 1, 71, 127
1, 25590, Note_on_c, 1, 63, 127
1, 25616, Note_off_c, 1, 71, 0
1, 25616, Note_off_c, 1, 63, 0
1, 25620, Note_on_c, 1, 70, 127
1, 25620, Note_on_c, 1, 61, 127
1, 25646, Note_off_c, 1, 70, 0
1, 25646, Note_off_c, 1, 61, 0
1, 25650, Note_on_c, 1, 71, 127
1, 25650, Note_on_c, 1, 63, 127
1, 25676, Note_off_c, 1, 71, 0
1, 25676, Note_off_c, 1, 63, 0
1, 25680, Note_on_c, 1, 79, 127
1, 25680, Note_on_c, 1, 52, 127
1, 25706, Note_off_c, 1, 79, 0
1, 25710, Note_on_c, 1, 71, 127
1, 25732, Note_off_c, 1, 52, 0
1, 25736, Note_off_c, 1, 71, 0
1, 25740, Note_on_c, 1, 78, 127
1, 25740, Note_on_c, 1, 54, 127
1, 25766, Note_off_c, 1, 78, 0
1, 25770, Note_on_c, 1, 71, 127
1, 25792, Note_off_c, 1, 54, 0
1, 25796, Note_off_c, 1, 71, 0
1, 25800, Note_on_c, 1, 76, 127
1, 25800, Note_on_c, 1, 55, 127
1, 25826, Note_off_c, 1, 76, 0
1, 25830, Note_on_c, 1, 71, 127
1, 25852, Note_off_c, 1, 55, 0
1, 25856, Note_off_c, 1, 71, 0
1, 25860, Note_on_c, 1, 74, 127
1, 25860, Note_on_c, 1, 52, 127
1, 25886, Note_off_c, 1, 74, 0
1, 25890, Note_on_c, 1, 71, 127
1, 25912, Note_off_c, 1, 52, 0
1, 25916, Note_off_c, 1, 71, 0
1, 25920, Note_on_c, 1, 72, 127
1, 25920, Note_on_c, 1, 57, 127
1, 25946, Note_off_c, 1, 72, 0
1, 25946, Note_off_c, 1, 57, 0
1, 25950, Note_on_c, 1, 69, 127
1, 25950, Note_on_c, 1, 60, 127
1, 25976, Note_off_c, 1, 69, 0
1, 25976, Note_off_c, 1, 60, 0
1, 25980, Note_on_c, 1, 67, 127
1, 25980, Note_on_c, 1, 59, 127
1, 26006, Note_off_c, 1, 67, 0
1, 26006, Note_off_c, 1, 59, 0
1, 26010, Note_on_c, 1, 69, 127
1, 26010, Note_on_c, 1, 60, 127
1, 26036, Note_off_c, 1, 69, 0
1, 26036, Note_off_c, 1, 60, 0
1, 26040, Note_on_c, 1, 66, 127
1, 26040, Note_on_c, 1, 57, 127
1, 26066, Note_off_c, 1, 66, 0
1, 26066, Note_off_c, 1, 57, 0
1, 26070, Note_on_c, 1, 69, 127
1, 26070, Note_on_c, 1, 60, 127
1, 26096, Note_off_c, 1, 69, 0
1, 26096, Note_off_c, 1, 60, 0
1, 26100, Note_on_c, 1, 64, 127
1, 26100, Note_on_c, 1, 55, 127
1, 26126, Note_off_c, 1, 64, 0
1, 26126, Note_off_c, 1, 55, 0
1, 26130, Note_on_c, 1, 69, 127
1, 26130, Note_on_c, 1, 60, 127
1, 26156, Note_off_c, 1, 69, 0
1, 26156, Note_off_c, 1, 60, 0
1, 26160, Note_on_c, 1, 63, 127
1, 26160, Note_on_c, 1, 54, 127
1, 26186, Note_off_c, 1, 63, 0
1, 26186, Note_off_c, 1, 54, 0
1, 26190, Note_on_c, 1, 69, 127
1, 26190, Note_on_c, 1, 60, 127
1, 26216, Note_off_c, 1, 69, 0
1, 26216, Note_off_c, 1, 60, 0
1, 26220, Note_on_c, 1, 64, 127
1, 26220, Note_on_c, 1, 52, 127
1, 26246, Note_off_c, 1, 64, 0
1, 26246, Note_off_c, 1, 52, 0
1, 26250, Note_on_c, 1, 69, 127
1, 26250, Note_on_c, 1, 60, 127
1, 26276, Note_off_c, 1, 69, 0
1, 26276, Note_off_c, 1, 60, 0
1, 26280, Note_on_c, 1, 66, 127
1, 26280, Note_on_c, 1, 51, 127
1, 26306, Note_off_c, 1, 51, 0
1, 26310, Note_on_c, 1, 59, 127
1, 26332, Note_off_c, 1, 66, 0
1, 26336, Note_off_c, 1, 59, 0
1, 26340, Note_on_c, 1, 75, 127
1, 26340, Note_on_c, 1, 47, 127
1, 26366, Note_off_c, 1, 47, 0
1, 26370, Note_on_c, 1, 59, 127
1, 26392, Note_off_c, 1, 75, 0
1, 26396, Note_off_c, 1, 59, 0
1, 26400, Note_on_c, 1, 76, 127
1, 26400, Note_on_c, 1, 49, 127
1, 26426, Note_off_c, 1, 49, 0
1, 26430, Note_on_c, 1, 59, 127
1, 26452, Note_off_c, 1, 76, 0
1, 26456, Note_off_c, 1, 59, 0
1, 26460, Note_on_c, 1, 78, 127
1, 26460, Note_on_c, 1, 51, 127
1, 26486, Note_off_c, 1, 51, 0
1, 26490, Note_on_c, 1, 59, 127
1, 26512, Note_off_c, 1, 78, 0
1, 26516, Note_off_c, 1, 59, 0
1, 26520, Note_on_c, 1, 79, 127
1, 26520, Note_on_c, 1, 52, 127
1, 26546, Note_off_c, 1, 52, 0
1, 26550, Note_on_c, 1, 59, 127
1, 26572, Note_off_c, 1, 79, 0
1, 26576, Note_off_c, 1, 59, 0
1, 26580, Note_on_c, 1, 75, 127
1, 26580, Note_on_c, 1, 54, 127
1, 26606, Note_off_c, 1, 54, 0
1, 26610, Note_on_c, 1, 59, 127
1, 26632, Note_off_c, 1, 75, 0
1, 26636, Note_off_c, 1, 59, 0
1, 26640, Note_on_c, 1, 76, 127
1, 26640, Note_on_c, 1, 55, 127
1, 26666, Note_off_c, 1, 76, 0
1, 26666, Note_off_c, 1, 55, 0
1, 26670, Note_on_c, 1, 71, 127
1, 26670, Note_on_c, 1, 59, 127
1, 26696, Note_off_c, 1, 71, 0
1, 26696, Note_off_c, 1, 59, 0
1, 26700, Note_on_c, 1, 72, 127
1, 26700, Note_on_c, 1, 57, 127
1, 26726, Note_off_c, 1, 72, 0
1, 26726, Note_off_c, 1, 57, 0
1, 26730, Note_on_c, 1, 69, 127
1, 26730, Note_on_c, 1, 60, 127
1, 26756, Note_off_c, 1, 69, 0
1, 26756, Note_off_c, 1, 60, 0
1, 26760, Note_on_c, 1, 67, 127
1, 26760, Note_on_c, 1, 59, 127
1, 26786, Note_off_c, 1, 59, 0
1, 26790, Note_on_c, 1, 57, 127
1, 26812, Note_off_c, 1, 67, 0
1, 26816, Note_off_c, 1, 57, 0
1, 26820, Note_on_c, 1, 76, 127
1, 26820, Note_on_c, 1, 55, 127
1, 26846, Note_off_c, 1, 55, 0
1, 26850, Note_on_c, 1, 57, 127
1, 26872, Note_off_c, 1, 76, 0
1, 26876, Note_off_c, 1, 57, 0
1, 26880, Note_on_c, 1, 66, 127
1, 26880, Note_on_c, 1, 59, 127
1, 26932, Note_off_c, 1, 66, 0
1, 26932, Note_off_c, 1, 59, 0
1, 26940, Note_on_c, 1, 75, 127
1, 26940, Note_on_c, 1, 47, 127
1, 26992, Note_off_c, 1, 75, 0
1, 26992, Note_off_c, 1, 47, 0
1, 27000, Note_on_c, 1, 76, 127
1, 27000, Note_on_c, 1, 52, 127
1, 27026, Note_off_c, 1, 76, 0
1, 27030, Note_on_c, 1, 71, 127
1, 27056, Note_off_c, 1, 71, 0
1, 27060, Note_on_c, 1, 67, 127
1, 27086, Note_off_c, 1, 67, 0
1, 27120, Note_on_c, 1, 64, 127
1, 27146, Note_off_c, 1, 52, 0
1, 27150, Note_on_c, 1, 47, 127
1, 27176, Note_off_c, 1, 47, 0
1, 27180, Note_on_c, 1, 43, 127
1, 27206, Note_off_c, 1, 43, 0
1, 27240, Note_on_c, 1, 40, 127
1, 27266, Note_off_c, 1, 64, 0
1, 27292, Note_off_c, 1, 40, 0
1, 27300, Note_on_c, 1, 71, 127
1, 27326, Note_off_c, 1, 71, 0
1, 27330, Note_on_c, 1, 74, 127
1, 27356, Note_off_c, 1, 74, 0
1, 27360, Note_on_c, 1, 73, 127
1, 27390, Note_on_c, 1, 45, 127
1, 27412, Note_off_c, 1, 73, 0
1, 27416, Note_off_c, 1, 45, 0
1, 27420, Note_on_c, 1, 69, 127
1, 27420, Note_on_c, 1, 49, 127
1, 27446, Note_off_c, 1, 49, 0
1, 27450, Note_on_c, 1, 45, 127
1, 27472, Note_off_c, 1, 69, 0
1, 27476, Note_off_c, 1, 45, 0
1, 27480, Note_on_c, 1, 73, 127
1, 27480, Note_on_c, 1, 52, 127
1, 27506, Note_off_c, 1, 52, 0
1, 27510, Note_on_c, 1, 45, 127
1, 27532, Note_off_c, 1, 73, 0
1, 27536, Note_off_c, 1, 45, 0
1, 27540, Note_on_c, 1, 76, 127
1, 27540, Note_on_c, 1, 55, 127
1, 27566, Note_off_c, 1, 55, 0
1, 27570, Note_on_c, 1, 45, 127
1, 27592, Note_off_c, 1, 76, 0
1, 27596, Note_off_c, 1, 45, 0
1, 27600, Note_on_c, 1, 81, 127
1, 27600, Note_on_c, 1, 54, 127
1, 27626, Note_off_c, 1, 54, 0
1, 27630, Note_on_c, 1, 45, 127
1, 27652, Note_off_c, 1, 81, 0
1, 27656, Note_off_c, 1, 45, 0
1, 27660, Note_on_c, 1, 79, 127
1, 27660, Note_on_c, 1, 52, 127
1, 27686, Note_off_c, 1, 52, 0
1, 27690, Note_on_c, 1, 45, 127
1, 27712, Note_off_c, 1, 79, 0
1, 27716, Note_off_c, 1, 45, 0
1, 27720, Note_on_c, 1, 78, 127
1, 27720, Note_on_c, 1, 50, 127
1, 27746, Note_off_c, 1, 50, 0
1, 27750, Note_on_c, 1, 45, 127
1, 27772, Note_off_c, 1, 78, 0
1, 27776, Note_off_c, 1, 45, 0
1, 27780, Note_on_c, 1, 81, 127
1, 27780, Note_on_c, 1, 42, 127
1, 27806, Note_off_c, 1, 42, 0
1, 27810, Note_on_c, 1, 45, 127
1, 27832, Note_off_c, 1, 81, 0
1, 27836, Note_off_c, 1, 45, 0
1, 27840, Note_on_c, 1, 78, 127
1, 27840, Note_on_c, 1, 38, 127
1, 27866, Note_off_c, 1, 38, 0
1, 27870, Note_on_c, 1, 42, 127
1, 27892, Note_off_c, 1, 78, 0
1, 27896, Note_off_c, 1, 42, 0
1, 27900, Note_on_c, 1, 74, 127
1, 27900, Note_on_c, 1, 45, 127
1, 27926, Note_off_c, 1, 45, 0
1, 27930, Note_on_c, 1, 50, 127
1, 27952, Note_off_c, 1, 74, 0
1, 27956, Note_off_c, 1, 50, 0
1, 27960, Note_on_c, 1, 69, 127
1, 27960, Note_on_c, 1, 54, 127
1, 27986, Note_off_c, 1, 54, 0
1, 27990, Note_on_c, 1, 57, 127
1, 28012, Note_off_c, 1, 69, 0
1, 28016, Note_off_c, 1, 57, 0
1, 28020, Note_on_c, 1, 72, 127
1, 28020, Note_on_c, 1, 54, 127
1, 28046, Note_off_c, 1, 54, 0
1, 28050, Note_on_c, 1, 50, 127
1, 28072, Note_off_c, 1, 72, 0
1, 28076, Note_off_c, 1, 50, 0
1, 28080, Note_on_c, 1, 71, 127
1, 28080, Note_on_c, 1, 55, 127
1, 28106, Note_off_c, 1, 55, 0
1, 28110, Note_on_c, 1, 43, 127
1, 28132, Note_off_c, 1, 71, 0
1, 28136, Note_off_c, 1, 43, 0
1, 28140, Note_on_c, 1, 67, 127
1, 28140, Note_on_c, 1, 47, 127
1, 28166, Note_off_c, 1, 47, 0
1, 28170, Note_on_c, 1, 43, 127
1, 28192, Note_off_c, 1, 67, 0
1, 28196, Note_off_c, 1, 43, 0
1, 28200, Note_on_c, 1, 71, 127
1, 28200, Note_on_c, 1, 50, 127
1, 28226, Note_off_c, 1, 50, 0
1, 28230, Note_on_c, 1, 43, 127
1, 28252, Note_off_c, 1, 71, 0
1, 28256, Note_off_c, 1, 43, 0
1, 28260, Note_on_c, 1, 74, 127
1, 28260, Note_on_c, 1, 53, 127
1, 28286, Note_off_c, 1, 53, 0
1, 28290, Note_on_c, 1, 43, 127
1, 28312, Note_off_c, 1, 74, 0
1, 28316, Note_off_c, 1, 43, 0
1, 28320, Note_on_c, 1, 79, 127
1, 28320, Note_on_c, 1, 52, 127
1, 28346, Note_off_c, 1, 52, 0
1, 28350, Note_on_c, 1, 43, 127
1, 28372, Note_off_c, 1, 79, 0
1, 28376, Note_off_c, 1, 43, 0
1, 28380, Note_on_c, 1, 77, 127
1, 28380, Note_on_c, 1, 50, 127
1, 28406, Note_off_c, 1, 50, 0
1, 28410, Note_on_c, 1, 43, 127
1, 28432, Note_off_c, 1, 77, 0
1, 28436, Note_off_c, 1, 43, 0
1, 28440, Note_on_c, 1, 76, 127
1, 28440, Note_on_c, 1, 48, 127
1, 28466, Note_off_c, 1, 48, 0
1, 28470, Note_on_c, 1, 43, 127
1, 28496, Note_off_c, 1, 43, 0
1, 28500, Note_on_c, 1, 40, 127
1, 28526, Note_off_c, 1, 40, 0
1, 28560, Note_on_c, 1, 36, 127
1, 28586, Note_off_c, 1, 76, 0
1, 28590, Note_on_c, 1, 74, 127
1, 28612, Note_off_c, 1, 36, 0
1, 28616, Note_off_c, 1, 74, 0
1, 28620, Note_on_c, 1, 72, 127
1, 28646, Note_off_c, 1, 72, 0
1, 28650, Note_on_c, 1, 71, 127
1, 28676, Note_off_c, 1, 71, 0
1, 28680, Note_on_c, 1, 69, 127
1, 28706, Note_off_c, 1, 69, 0
1, 28710, Note_on_c, 1, 67, 127
1, 28736, Note_off_c, 1, 67, 0
1, 28740, Note_on_c, 1, 66, 127
1, 28766, Note_off_c, 1, 66, 0
1, 28770, Note_on_c, 1, 64, 127
1, 28796, Note_off_c, 1, 64, 0
1, 28800, Note_on_c, 1, 66, 127
1, 28830, Note_on_c, 1, 48, 127
1, 28852, Note_off_c, 1, 66, 0
1, 28856, Note_off_c, 1, 48, 0
1, 28860, Note_on_c, 1, 74, 127
1, 28860, Note_on_c, 1, 47, 127
1, 28886, Note_off_c, 1, 47, 0
1, 28890, Note_on_c, 1, 45, 127
1, 28916, Note_off_c, 1, 45, 0
1, 28946, Note_off_c, 1, 74, 0
1, 28950, Note_on_c, 1, 72, 127
1, 28976, Note_off_c, 1, 72, 0
1, 28980, Note_on_c, 1, 71, 127
1, 28980, Note_on_c, 1, 50, 127
1, 29006, Note_off_c, 1, 71, 0
1, 29010, Note_on_c, 1, 69, 127
1, 29032, Note_off_c, 1, 50, 0
1, 29036, Note_off_c, 1, 69, 0
1, 29040, Note_on_c, 1, 67, 127
1, 29040, Note_on_c, 1, 52, 127
1, 29066, Note_off_c, 1, 67, 0
1, 29070, Note_on_c, 1, 66, 127
1, 29092, Note_off_c, 1, 52, 0
1, 29096, Note_off_c, 1, 66, 0
1, 29100, Note_on_c, 1, 64, 127
1, 29100, Note_on_c, 1, 55, 127
1, 29126, Note_off_c, 1, 64, 0
1, 29130, Note_on_c, 1, 62, 127
1, 29156, Note_off_c, 1, 62, 0
1, 29186, Note_off_c, 1, 55, 0
1, 29190, Note_on_c, 1, 47, 127
1, 29216, Note_off_c, 1, 47, 0
1, 29220, Note_on_c, 1, 72, 127
1, 29220, Note_on_c, 1, 45, 127
1, 29246, Note_off_c, 1, 45, 0
1, 29250, Note_on_c, 1, 43, 127
1, 29276, Note_off_c, 1, 43, 0
1, 29306, Note_off_c, 1, 72, 0
1, 29310, Note_on_c, 1, 71, 127
1, 29336, Note_off_c, 1, 71, 0
1, 29340, Note_on_c, 1, 69, 127
1, 29340, Note_on_c, 1, 48, 127
1, 29366, Note_off_c, 1, 69, 0
1, 29370, Note_on_c, 1, 67, 127
1, 29392, Note_off_c, 1, 48, 0
1, 29396, Note_off_c, 1, 67, 0
1, 29400, Note_on_c, 1, 66, 127
1, 29400, Note_on_c, 1, 50, 127
1, 29426, Note_off_c, 1, 66, 0
1, 29430, Note_on_c, 1, 64, 127
1, 29452, Note_off_c, 1, 50, 0
1, 29456, Note_off_c, 1, 64, 0
1, 29460, Note_on_c, 1, 62, 127
1, 29460, Note_on_c, 1, 54, 127
1, 29486, Note_off_c, 1, 62, 0
1, 29490, Note_on_c, 1, 60, 127
1, 29516, Note_off_c, 1, 60, 0
1, 29546, Note_off_c, 1, 54, 0
1, 29550, Note_on_c, 1, 66, 127
1, 29550, Note_on_c, 1, 45, 127
1, 29576, Note_off_c, 1, 66, 0
1, 29576, Note_off_c, 1, 45, 0
1, 29580, Note_on_c, 1, 64, 127
1, 29580, Note_on_c, 1, 43, 127
1, 29606, Note_off_c, 1, 64, 0
1, 29606, Note_off_c, 1, 43, 0
1, 29610, Note_on_c, 1, 62, 127
1, 29610, Note_on_c, 1, 42, 127
1, 29636, Note_off_c, 1, 62, 0
1, 29636, Note_off_c, 1, 42, 0
1, 29640, Note_on_c, 1, 64, 127
1, 29640, Note_on_c, 1, 43, 127
1, 29666, Note_off_c, 1, 64, 0
1, 29670, Note_on_c, 1, 66, 127
1, 29692, Note_off_c, 1, 43, 0
1, 29696, Note_off_c, 1, 66, 0
1, 29700, Note_on_c, 1, 67, 127
1, 29700, Note_on_c, 1, 47, 127
1, 29726, Note_off_c, 1, 67, 0
1, 29730, Note_on_c, 1, 69, 127
1, 29752, Note_off_c, 1, 47, 0
1, 29756, Note_off_c, 1, 69, 0
1, 29760, Note_on_c, 1, 71, 127
1, 29760, Note_on_c, 1, 50, 127
1, 29786, Note_off_c, 1, 71, 0
1, 29790, Note_on_c, 1, 69, 127
1, 29812, Note_off_c, 1, 50, 0
1, 29816, Note_off_c, 1, 69, 0
1, 29820, Note_on_c, 1, 71, 127
1, 29820, Note_on_c, 1, 55, 127
1, 29846, Note_off_c, 1, 71, 0
1, 29850, Note_on_c, 1, 67, 127
1, 29872, Note_off_c, 1, 55, 0
1, 29876, Note_off_c, 1, 67, 0
1, 29880, Note_on_c, 1, 69, 127
1, 29880, Note_on_c, 1, 54, 127
1, 29906, Note_off_c, 1, 69, 0
1, 29910, Note_on_c, 1, 74, 127
1, 29932, Note_off_c, 1, 54, 0
1, 29936, Note_off_c, 1, 74, 0
1, 29940, Note_on_c, 1, 72, 127
1, 29940, Note_on_c, 1, 50, 127
1, 29966, Note_off_c, 1, 72, 0
1, 29970, Note_on_c, 1, 71, 127
1, 29992, Note_off_c, 1, 50, 0
1, 29996, Note_off_c, 1, 71, 0
1, 30000, Note_on_c, 1, 69, 127
1, 30000, Note_on_c, 1, 54, 127
1, 30026, Note_off_c, 1, 69, 0
1, 30030, Note_on_c, 1, 67, 127
1, 30052, Note_off_c, 1, 54, 0
1, 30056, Note_off_c, 1, 67, 0
1, 30060, Note_on_c, 1, 66, 127
1, 30060, Note_on_c, 1, 57, 127
1, 30086, Note_off_c, 1, 66, 0
1, 30090, Note_on_c, 1, 64, 127
1, 30112, Note_off_c, 1, 57, 0
1, 30116, Note_off_c, 1, 64, 0
1, 30120, Note_on_c, 1, 62, 127
1, 30150, Note_on_c, 1, 50, 127
1, 30176, Note_off_c, 1, 50, 0
1, 30180, Note_on_c, 1, 48, 127
1, 30206, Note_off_c, 1, 48, 0
1, 30240, Note_on_c, 1, 47, 127
1, 30266, Note_off_c, 1, 62, 0
1, 30266, Note_off_c, 1, 47, 0
1, 30270, Note_on_c, 1, 67, 127
1, 30270, Note_on_c, 1, 50, 127
1, 30296, Note_off_c, 1, 67, 0
1, 30296, Note_off_c, 1, 50, 0
1, 30300, Note_on_c, 1, 60, 127
1, 30300, Note_on_c, 1, 45, 127
1, 30326, Note_off_c, 1, 60, 0
1, 30326, Note_off_c, 1, 45, 0
1, 30330, Note_on_c, 1, 67, 127
1, 30330, Note_on_c, 1, 50, 127
1, 30356, Note_off_c, 1, 67, 0
1, 30356, Note_off_c, 1, 50, 0
1, 30360, Note_on_c, 1, 62, 127
1, 30360, Note_on_c, 1, 47, 127
1, 30386, Note_off_c, 1, 62, 0
1, 30386, Note_off_c, 1, 47, 0
1, 30390, Note_on_c, 1, 67, 127
1, 30390, Note_on_c, 1, 50, 127
1, 30416, Note_off_c, 1, 67, 0
1, 30416, Note_off_c, 1, 50, 0
1, 30420, Note_on_c, 1, 59, 127
1, 30420, Note_on_c, 1, 43, 127
1, 30446, Note_off_c, 1, 59, 0
1, 30446, Note_off_c, 1, 43, 0
1, 30450, Note_on_c, 1, 67, 127
1, 30450, Note_on_c, 1, 50, 127
1, 30476, Note_off_c, 1, 67, 0
1, 30476, Note_off_c, 1, 50, 0
1, 30480, Note_on_c, 1, 60, 127
1, 30480, Note_on_c, 1, 45, 127
1, 30506, Note_off_c, 1, 60, 0
1, 30506, Note_off_c, 1, 45, 0
1, 30510, Note_on_c, 1, 67, 127
1, 30510, Note_on_c, 1, 50, 127
1, 30536, Note_off_c, 1, 67, 0
1, 30536, Note_off_c, 1, 50, 0
1, 30540, Note_on_c, 1, 62, 127
1, 30540, Note_on_c, 1, 47, 127
1, 30566, Note_off_c, 1, 62, 0
1, 30566, Note_off_c, 1, 47, 0
1, 30570, Note_on_c, 1, 67, 127
1, 30570, Note_on_c, 1, 50, 127
1, 30596, Note_off_c, 1, 67, 0
1, 30596, Note_off_c, 1, 50, 0
1, 30600, Note_on_c, 1, 64, 127
1, 30600, Note_on_c, 1, 48, 127
1, 30626, Note_off_c, 1, 64, 0
1, 30626, Note_off_c, 1, 48, 0
1, 30630, Note_on_c, 1, 67, 127
1, 30630, Note_on_c, 1, 52, 127
1, 30656, Note_off_c, 1, 67, 0
1, 30656, Note_off_c, 1, 52, 0
1, 30660, Note_on_c, 1, 62, 127
1, 30660, Note_on_c, 1, 47, 127
1, 30686, Note_off_c, 1, 62, 0
1, 30686, Note_off_c, 1, 47, 0
1, 30690, Note_on_c, 1, 67, 127
1, 30690, Note_on_c, 1, 52, 127
1, 30716, Note_off_c, 1, 67, 0
1, 30716, Note_off_c, 1, 52, 0
1, 30720, Note_on_c, 1, 64, 127
1, 30720, Note_on_c, 1, 49, 127
1, 30746, Note_off_c, 1, 64, 0
1, 30746, Note_off_c, 1, 49, 0
1, 30750, Note_on_c, 1, 69, 127
1, 30750, Note_on_c, 1, 52, 127
1, 30776, Note_off_c, 1, 69, 0
1, 30776, Note_off_c, 1, 52, 0
1, 30780, Note_on_c, 1, 61, 127
1, 30780, Note_on_c, 1, 45, 127
1, 30806, Note_off_c, 1, 61, 0
1, 30806, Note_off_c, 1, 45, 0
1, 30810, Note_on_c, 1, 69, 127
1, 30810, Note_on_c, 1, 52, 127
1, 30836, Note_off_c, 1, 69, 0
1, 30836, Note_off_c, 1, 52, 0
1, 30840, Note_on_c, 1, 62, 127
1, 30840, Note_on_c, 1, 47, 127
1, 30866, Note_off_c, 1, 62, 0
1, 30866, Note_off_c, 1, 47, 0
1, 30870, Note_on_c, 1, 69, 127
1, 30870, Note_on_c, 1, 52, 127
1, 30896, Note_off_c, 1, 69, 0
1, 30896, Note_off_c, 1, 52, 0
1, 30900, Note_on_c, 1, 64, 127
1, 30900, Note_on_c, 1, 49, 127
1, 30926, Note_off_c, 1, 64, 0
1, 30926, Note_off_c, 1, 49, 0
1, 30930, Note_on_c, 1, 69, 127
1, 30930, Note_on_c, 1, 52, 127
1, 30956, Note_off_c, 1, 69, 0
1, 30956, Note_off_c, 1, 52, 0
1, 30960, Note_on_c, 1, 66, 127
1, 30960, Note_on_c, 1, 50, 127
1, 30986, Note_off_c, 1, 66, 0
1, 30986, Note_off_c, 1, 50, 0
1, 30990, Note_on_c, 1, 69, 127
1, 30990, Note_on_c, 1, 54, 127
1, 31016, Note_off_c, 1, 69, 0
1, 31016, Note_off_c, 1, 54, 0
1, 31020, Note_on_c, 1, 64, 127
1, 31020, Note_on_c, 1, 49, 127
1, 31046, Note_off_c, 1, 64, 0
1, 31046, Note_off_c, 1, 49, 0
1, 31050, Note_on_c, 1, 69, 127
1, 31050, Note_on_c, 1, 54, 127
1, 31076, Note_off_c, 1, 69, 0
1, 31076, Note_off_c, 1, 54, 0
1, 31080, Note_on_c, 1, 66, 127
1, 31080, Note_on_c, 1, 51, 127
1, 31106, Note_off_c, 1, 66, 0
1, 31106, Note_off_c, 1, 51, 0
1, 31110, Note_on_c, 1, 71, 127
1, 31110, Note_on_c, 1, 54, 127
1, 31136, Note_off_c, 1, 71, 0
1, 31136, Note_off_c, 1, 54, 0
1, 31140, Note_on_c, 1, 63, 127
1, 31140, Note_on_c, 1, 47, 127
1, 31166, Note_off_c, 1, 63, 0
1, 31166, Note_off_c, 1, 47, 0
1, 31170, Note_on_c, 1, 71, 127
1, 31170, Note_on_c, 1, 54, 127
1, 31196, Note_off_c, 1, 71, 0
1, 31196, Note_off_c, 1, 54, 0
1, 31200, Note_on_c, 1, 64, 127
1, 31200, Note_on_c, 1, 49, 127
1, 31226, Note_off_c, 1, 64, 0
1, 31226, Note_off_c, 1, 49, 0
1, 31230, Note_on_c, 1, 71, 127
1, 31230, Note_on_c, 1, 54, 127
1, 31256, Note_off_c, 1, 71, 0
1, 31256, Note_off_c, 1, 54, 0
1, 31260, Note_on_c, 1, 66, 127
1, 31260, Note_on_c, 1, 51, 127
1, 31286, Note_off_c, 1, 66, 0
1, 31286, Note_off_c, 1, 51, 0
1, 31290, Note_on_c, 1, 71, 127
1, 31290, Note_on_c, 1, 54, 127
1, 31316, Note_off_c, 1, 71, 0
1, 31316, Note_off_c, 1, 54, 0
1, 31320, Note_on_c, 1, 67, 127
1, 31320, Note_on_c, 1, 52, 127
1, 31346, Note_off_c, 1, 67, 0
1, 31346, Note_off_c, 1, 52, 0
1, 31350, Note_on_c, 1, 71, 127
1, 31350, Note_on_c, 1, 55, 127
1, 31376, Note_off_c, 1, 71, 0
1, 31376, Note_off_c, 1, 55, 0
1, 31380, Note_on_c, 1, 66, 127
1, 31380, Note_on_c, 1, 50, 127
1, 31406, Note_off_c, 1, 66, 0
1, 31406, Note_off_c, 1, 50, 0
1, 31410, Note_on_c, 1, 71, 127
1, 31410, Note_on_c, 1, 55, 127
1, 31436, Note_off_c, 1, 71, 0
1, 31436, Note_off_c, 1, 55, 0
1, 31440, Note_on_c, 1, 64, 127
1, 31440, Note_on_c, 1, 48, 127
1, 31466, Note_off_c, 1, 48, 0
1, 31470, Note_on_c, 1, 55, 127
1, 31492, Note_off_c, 1, 64, 0
1, 31496, Note_off_c, 1, 55, 0
1, 31500, Note_on_c, 1, 67, 127
1, 31500, Note_on_c, 1, 47, 127
1, 31526, Note_off_c, 1, 47, 0
1, 31530, Note_on_c, 1, 55, 127
1, 31552, Note_off_c, 1, 67, 0
1, 31556, Note_off_c, 1, 55, 0
1, 31560, Note_on_c, 1, 72, 127
1, 31560, Note_on_c, 1, 45, 127
1, 31586, Note_off_c, 1, 45, 0
1, 31590, Note_on_c, 1, 48, 127
1, 31616, Note_off_c, 1, 48, 0
1, 31620, Note_on_c, 1, 52, 127
1, 31646, Note_off_c, 1, 52, 0
1, 31650, Note_on_c, 1, 55, 127
1, 31676, Note_off_c, 1, 55, 0
1, 31680, Note_on_c, 1, 54, 127
1, 31706, Note_off_c, 1, 72, 0
1, 31710, Note_on_c, 1, 81, 127
1, 31732, Note_off_c, 1, 54, 0
1, 31736, Note_off_c, 1, 81, 0
1, 31740, Note_on_c, 1, 79, 127
1, 31740, Note_on_c, 1, 57, 127
1, 31766, Note_off_c, 1, 79, 0
1, 31770, Note_on_c, 1, 81, 127
1, 31792, Note_off_c, 1, 57, 0
1, 31796, Note_off_c, 1, 81, 0
1, 31800, Note_on_c, 1, 78, 127
1, 31800, Note_on_c, 1, 50, 127
1, 31826, Note_off_c, 1, 78, 0
1, 31830, Note_on_c, 1, 81, 127
1, 31852, Note_off_c, 1, 50, 0
1, 31856, Note_off_c, 1, 81, 0
1, 31860, Note_on_c, 1, 76, 127
1, 31860, Note_on_c, 1, 52, 127
1, 31886, Note_off_c, 1, 76, 0
1, 31890, Note_on_c, 1, 81, 127
1, 31912, Note_off_c, 1, 52, 0
1, 31916, Note_off_c, 1, 81, 0
1, 31920, Note_on_c, 1, 74, 127
1, 31920, Note_on_c, 1, 54, 127
1, 31946, Note_off_c, 1, 74, 0
1, 31950, Note_on_c, 1, 81, 127
1, 31972, Note_off_c, 1, 54, 0
1, 31976, Note_off_c, 1, 81, 0
1, 31980, Note_on_c, 1, 72, 127
1, 31980, Note_on_c, 1, 50, 127
1, 32006, Note_off_c, 1, 72, 0
1, 32010, Note_on_c, 1, 81, 127
1, 32032, Note_off_c, 1, 50, 0
1, 32036, Note_off_c, 1, 81, 0
1, 32040, Note_on_c, 1, 71, 127
1, 32040, Note_on_c, 1, 55, 127
1, 32066, Note_off_c, 1, 55, 0
1, 32070, Note_on_c, 1, 67, 127
1, 32092, Note_off_c, 1, 71, 0
1, 32096, Note_off_c, 1, 67, 0
1, 32100, Note_on_c, 1, 74, 127
1, 32100, Note_on_c, 1, 65, 127
1, 32126, Note_off_c, 1, 65, 0
1, 32130, Note_on_c, 1, 67, 127
1, 32152, Note_off_c, 1, 74, 0
1, 32156, Note_off_c, 1, 67, 0
1, 32160, Note_on_c, 1, 79, 127
1, 32160, Note_on_c, 1, 64, 127
1, 32186, Note_off_c, 1, 64, 0
1, 32190, Note_on_c, 1, 67, 127
1, 32212, Note_off_c, 1, 79, 0
1, 32216, Note_off_c, 1, 67, 0
1, 32220, Note_on_c, 1, 77, 127
1, 32220, Note_on_c, 1, 62, 127
1, 32246, Note_off_c, 1, 62, 0
1, 32250, Note_on_c, 1, 67, 127
1, 32272, Note_off_c, 1, 77, 0
1, 32276, Note_off_c, 1, 67, 0
1, 32280, Note_on_c, 1, 76, 127
1, 32280, Note_on_c, 1, 60, 127
1, 32306, Note_off_c, 1, 60, 0
1, 32310, Note_on_c, 1, 67, 127
1, 32332, Note_off_c, 1, 76, 0
1, 32336, Note_off_c, 1, 67, 0
1, 32340, Note_on_c, 1, 74, 127
1, 32340, Note_on_c, 1, 59, 127
1, 32366, Note_off_c, 1, 59, 0
1, 32370, Note_on_c, 1, 67, 127
1, 32392, Note_off_c, 1, 74, 0
1, 32396, Note_off_c, 1, 67, 0
1, 32400, Note_on_c, 1, 76, 127
1, 32400, Note_on_c, 1, 60, 127
1, 32426, Note_off_c, 1, 76, 0
1, 32426, Note_off_c, 1, 60, 0
1, 32430, Note_on_c, 1, 72, 127
1, 32430, Note_on_c, 1, 64, 127
1, 32456, Note_off_c, 1, 72, 0
1, 32456, Note_off_c, 1, 64, 0
1, 32460, Note_on_c, 1, 71, 127
1, 32460, Note_on_c, 1, 62, 127
1, 32486, Note_off_c, 1, 71, 0
1, 32486, Note_off_c, 1, 62, 0
1, 32490, Note_on_c, 1, 72, 127
1, 32490, Note_on_c, 1, 64, 127
1, 32516, Note_off_c, 1, 72, 0
1, 32516, Note_off_c, 1, 64, 0
1, 32520, Note_on_c, 1, 84, 127
1, 32520, Note_on_c, 1, 57, 127
1, 32546, Note_off_c, 1, 84, 0
1, 32550, Note_on_c, 1, 72, 127
1, 32572, Note_off_c, 1, 57, 0
1, 32576, Note_off_c, 1, 72, 0
1, 32580, Note_on_c, 1, 83, 127
1, 32580, Note_on_c, 1, 59, 127
1, 32606, Note_off_c, 1, 83, 0
1, 32610, Note_on_c, 1, 72, 127
1, 32632, Note_off_c, 1, 59, 0
1, 32636, Note_off_c, 1, 72, 0
1, 32640, Note_on_c, 1, 81, 127
1, 32640, Note_on_c, 1, 60, 127
1, 32666, Note_off_c, 1, 81, 0
1, 32670, Note_on_c, 1, 72, 127
1, 32692, Note_off_c, 1, 60, 0
1, 32696, Note_off_c, 1, 72, 0
1, 32700, Note_on_c, 1, 79, 127
1, 32700, Note_on_c, 1, 57, 127
1, 32726, Note_off_c, 1, 79, 0
1, 32730, Note_on_c, 1, 72, 127
1, 32752, Note_off_c, 1, 57, 0
1, 32756, Note_off_c, 1, 72, 0
1, 32760, Note_on_c, 1, 78, 127
1, 32760, Note_on_c, 1, 62, 127
1, 32786, Note_off_c, 1, 78, 0
1, 32790, Note_on_c, 1, 72, 127
1, 32812, Note_off_c, 1, 62, 0
1, 32816, Note_off_c, 1, 72, 0
1, 32820, Note_on_c, 1, 79, 127
1, 32820, Note_on_c, 1, 57, 127
1, 32846, Note_off_c, 1, 79, 0
1, 32850, Note_on_c, 1, 72, 127
1, 32872, Note_off_c, 1, 57, 0
1, 32876, Note_off_c, 1, 72, 0
1, 32880, Note_on_c, 1, 81, 127
1, 32880, Note_on_c, 1, 54, 127
1, 32906, Note_off_c, 1, 81, 0
1, 32910, Note_on_c, 1, 72, 127
1, 32932, Note_off_c, 1, 54, 0
1, 32936, Note_off_c, 1, 72, 0
1, 32940, Note_on_c, 1, 79, 127
1, 32940, Note_on_c, 1, 57, 127
1, 32966, Note_off_c, 1, 79, 0
1, 32970, Note_on_c, 1, 72, 127
1, 32992, Note_off_c, 1, 57, 0
1, 32996, Note_off_c, 1, 72, 0
1, 33000, Note_on_c, 1, 78, 127
1, 33000, Note_on_c, 1, 50, 127
1, 33026, Note_off_c, 1, 78, 0
1, 33030, Note_on_c, 1, 72, 127
1, 33052, Note_off_c, 1, 50, 0
1, 33056, Note_off_c, 1, 72, 0
1, 33060, Note_on_c, 1, 76, 127
1, 33060, Note_on_c, 1, 54, 127
1, 33086, Note_off_c, 1, 76, 0
1, 33090, Note_on_c, 1, 72, 127
1, 33112, Note_off_c, 1, 54, 0
1, 33116, Note_off_c, 1, 72, 0
1, 33120, Note_on_c, 1, 74, 127
1, 33120, Note_on_c, 1, 47, 127
1, 33146, Note_off_c, 1, 74, 0
1, 33150, Note_on_c, 1, 72, 127
1, 33172, Note_off_c, 1, 47, 0
1, 33176, Note_off_c, 1, 72, 0
1, 33180, Note_on_c, 1, 71, 127
1, 33180, Note_on_c, 1, 50, 127
1, 33206, Note_off_c, 1, 71, 0
1, 33210, Note_on_c, 1, 69, 127
1, 33232, Note_off_c, 1, 50, 0
1, 33236, Note_off_c, 1, 69, 0
1, 33240, Note_on_c, 1, 71, 127
1, 33240, Note_on_c, 1, 43, 127
1, 33266, Note_off_c, 1, 43, 0
1, 33270, Note_on_c, 1, 45, 127
1, 33292, Note_off_c, 1, 71, 0
1, 33296, Note_off_c, 1, 45, 0
1, 33300, Note_on_c, 1, 79, 127
1, 33300, Note_on_c, 1, 47, 127
1, 33326, Note_off_c, 1, 47, 0
1, 33330, Note_on_c, 1, 48, 127
1, 33352, Note_off_c, 1, 79, 0
1, 33356, Note_off_c, 1, 48, 0
1, 33360, Note_on_c, 1, 69, 127
1, 33360, Note_on_c, 1, 50, 127
1, 33412, Note_off_c, 1, 69, 0
1, 33412, Note_off_c, 1, 50, 0
1, 33420, Note_on_c, 1, 78, 127
1, 33420, Note_on_c, 1, 38, 127
1, 33472, Note_off_c, 1, 78, 0
1, 33472, Note_off_c, 1, 38, 0
1, 33480, Note_on_c, 1, 67, 127
1, 33480, Note_on_c, 1, 40, 127
1, 33506, Note_off_c, 1, 67, 0
1, 33510, Note_on_c, 1, 69, 127
1, 33532, Note_off_c, 1, 40, 0
1, 33536, Note_off_c, 1, 69, 0
1, 33540, Note_on_c, 1, 70, 127
1, 33540, Note_on_c, 1, 55, 127
1, 33566, Note_off_c, 1, 70, 0
1, 33570, Note_on_c, 1, 67, 127
1, 33592, Note_off_c, 1, 55, 0
1, 33596, Note_off_c, 1, 67, 0
1, 33600, Note_on_c, 1, 73, 127
1, 33600, Note_on_c, 1, 58, 127
1, 33626, Note_off_c, 1, 73, 0
1, 33630, Note_on_c, 1, 67, 127
1, 33652, Note_off_c, 1, 58, 0
1, 33656, Note_off_c, 1, 67, 0
1, 33660, Note_on_c, 1, 74, 127
1, 33660, Note_on_c, 1, 50, 127
1, 33686, Note_off_c, 1, 74, 0
1, 33690, Note_on_c, 1, 67, 127
1, 33712, Note_off_c, 1, 50, 0
1, 33716, Note_off_c, 1, 67, 0
1, 33720, Note_on_c, 1, 76, 127
1, 33720, Note_on_c, 1, 49, 127
1, 33746, Note_off_c, 1, 76, 0
1, 33750, Note_on_c, 1, 67, 127
1, 33772, Note_off_c, 1, 49, 0
1, 33776, Note_off_c, 1, 67, 0
1, 33780, Note_on_c, 1, 66, 127
1, 33780, Note_on_c, 1, 45, 127
1, 33806, Note_off_c, 1, 66, 0
1, 33810, Note_on_c, 1, 64, 127
1, 33832, Note_off_c, 1, 45, 0
1, 33836, Note_off_c, 1, 64, 0
1, 33840, Note_on_c, 1, 66, 127
1, 33840, Note_on_c, 1, 50, 127
1, 33866, Note_off_c, 1, 66, 0
1, 33866, Note_off_c, 1, 50, 0
1, 33870, Note_on_c, 1, 69, 127
1, 33870, Note_on_c, 1, 54, 127
1, 33896, Note_off_c, 1, 69, 0
1, 33896, Note_off_c, 1, 54, 0
1, 33900, Note_on_c, 1, 74, 127
1, 33900, Note_on_c, 1, 57, 127
1, 33926, Note_off_c, 1, 57, 0
1, 33930, Note_on_c, 1, 60, 127
1, 33956, Note_off_c, 1, 60, 0
1, 33960, Note_on_c, 1, 59, 127
1, 34012, Note_off_c, 1, 74, 0
1, 34012, Note_off_c, 1, 59, 0
1, 34020, Note_on_c, 1, 72, 127
1, 34020, Note_on_c, 1, 55, 127
1, 34046, Note_off_c, 1, 72, 0
1, 34050, Note_on_c, 1, 71, 127
1, 34072, Note_off_c, 1, 55, 0
1, 34076, Note_off_c, 1, 71, 0
1, 34080, Note_on_c, 1, 72, 127
1, 34080, Note_on_c, 1, 62, 127
1, 34106, Note_off_c, 1, 72, 0
1, 34110, Note_on_c, 1, 71, 127
1, 34132, Note_off_c, 1, 62, 0
1, 34136, Note_off_c, 1, 71, 0
1, 34140, Note_on_c, 1, 69, 127
1, 34140, Note_on_c, 1, 50, 127
1, 34166, Note_off_c, 1, 69, 0
1, 34170, Note_on_c, 1, 71, 127
1, 34192, Note_off_c, 1, 50, 0
1, 34196, Note_off_c, 1, 71, 0
1, 34200, Note_on_c, 1, 67, 127
1, 34200, Note_on_c, 1, 55, 127
1, 34252, Note_off_c, 1, 67, 0
1, 34252, Note_off_c, 1, 55, 0
1, 34260, Note_on_c, 1, 66, 127
1, 34260, Note_on_c, 1, 43, 127
1, 34286, Note_off_c, 1, 66, 0
1, 34290, Note_on_c, 1, 64, 127
1, 34312, Note_off_c, 1, 43, 0
1, 34316, Note_off_c, 1, 64, 0
1, 34320, Note_on_c, 1, 62, 127
1, 34320, Note_on_c, 1, 47, 127
1, 34346, Note_off_c, 1, 62, 0
1, 34350, Note_on_c, 1, 60, 127
1, 34372, Note_off_c, 1, 47, 0
1, 34376, Note_off_c, 1, 60, 0
1, 34380, Note_on_c, 1, 59, 127
1, 34380, Note_on_c, 1, 50, 127
1, 34406, Note_off_c, 1, 59, 0
1, 34410, Note_on_c, 1, 57, 127
1, 34432, Note_off_c, 1, 50, 0
1, 34436, Note_off_c, 1, 57, 0
1, 34440, Note_on_c, 1, 55, 127
1, 34545, Note_off_c, 1, 55, 0
1, 34545, End_track
0, 0, End_of_file