0, 0, Header, 1, 1, 480
1, 0, Start_track
1, 0, Title_t, "Test"
1, 0, Tempo, 500000
1, 0, Instrument_name_t, "Church Organ"
1, 4, Note_on_c, 1, 45, 127
1, 19, Note_on_c, 1, 72, 127
1, 32, Note_off_c, 1, 72, 0
1, 34, Note_on_c, 1, 74, 127
1, 47, Note_off_c, 1, 74, 0
1, 49, Note_on_c, 1, 76, 127
1, 56, Note_off_c, 1, 45, 0
1, 62, Note_off_c, 1, 76, 0
1, 64, Note_on_c, 1, 77, 127
1, 64, Note_on_c, 1, 57, 127
1, 90, Note_off_c, 1, 77, 0
1, 94, Note_on_c, 1, 72, 127
1, 116, Note_off_c, 1, 57, 0
1, 120, Note_off_c, 1, 72, 0
1, 124, Note_on_c, 1, 71, 127
1, 124, Note_on_c, 1, 56, 127
1, 150, Note_off_c, 1, 71, 0
1, 154, Note_on_c, 1, 75, 127
1, 176, Note_off_c, 1, 56, 0
1, 180, Note_off_c, 1, 75, 0
1, 184, Note_on_c, 1, 76, 127
1, 184, Note_on_c, 1, 55, 127
1, 210, Note_off_c, 1, 76, 0
1, 214, Note_on_c, 1, 70, 127
1, 236, Note_off_c, 1, 55, 0
1, 240, Note_off_c, 1, 70, 0
1, 244, Note_on_c, 1, 69, 127
1, 244, Note_on_c, 1, 54, 127
1, 270, Note_off_c, 1, 69, 0
1, 274, Note_on_c, 1, 73, 127
1, 296, Note_off_c, 1, 54, 0
1, 300, Note_off_c, 1, 73, 0
1, 304, Note_on_c, 1, 74, 127
1, 304, Note_on_c, 1, 53, 127
1, 330, Note_off_c, 1, 74, 0
1, 334, Note_on_c, 1, 68, 127
1, 356, Note_off_c, 1, 53, 0
1, 364, Note_on_c, 1, 52, 127
1, 390, Note_off_c, 1, 68, 0
1, 394, Note_on_c, 1, 69, 127
1, 416, Note_off_c, 1, 52, 0
1, 424, Note_on_c, 1, 50, 127
1, 446, Note_off_c, 1, 69, 0
1, 454, Note_on_c, 1, 71, 127
1, 480, Note_off_c, 1, 71, 0
1, 484, Note_on_c, 1, 64, 127
1, 497, Note_off_c, 1, 50, 0
1, 499, Note_on_c, 1, 48, 127
1, 512, Note_off_c, 1, 48, 0
1, 536, Note_off_c, 1, 64, 0
1, 544, Note_on_c, 1, 69, 127
1, 544, Note_on_c, 1, 53, 127
1, 570, Note_off_c, 1, 53, 0
1, 574, Note_on_c, 1, 48, 127
1, 596, Note_off_c, 1, 69, 0
1, 600, Note_off_c, 1, 48, 0
1, 604, Note_on_c, 1, 68, 127
1, 604, Note_on_c, 1, 47, 127
1, 630, Note_off_c, 1, 47, 0
1, 634, Note_on_c, 1, 51, 127
1, 656, Note_off_c, 1, 68, 0
1, 660, Note_off_c, 1, 51, 0
1, 664, Note_on_c, 1, 67, 127
1, 664, Note_on_c, 1, 52, 127
1, 690, Note_off_c, 1, 52, 0
1, 694, Note_on_c, 1, 46, 127
1, 716, Note_off_c, 1, 67, 0
1, 720, Note_off_c, 1, 46, 0
1, 724, Note_on_c, 1, 66, 127
1, 724, Note_on_c, 1, 45, 127
1, 750, Note_off_c, 1, 45, 0
1, 754, Note_on_c, 1, 49, 127
1, 776, Note_off_c, 1, 66, 0
1, 780, Note_off_c, 1, 49, 0
1, 784, Note_on_c, 1, 65, 127
1, 784, Note_on_c, 1, 50, 127
1, 810, Note_off_c, 1, 50, 0
1, 814, Note_on_c, 1, 44, 127
1, 836, Note_off_c, 1, 65, 0
1, 844, Note_on_c, 1, 64, 127
1, 870, Note_off_c, 1, 44, 0
1, 874, Note_on_c, 1, 45, 127
1, 896, Note_off_c, 1, 64, 0
1, 904, Note_on_c, 1, 62, 127
1, 926, Note_off_c, 1, 45, 0
1, 934, Note_on_c, 1, 47, 127
1, 960, Note_off_c, 1, 47, 0
1, 964, Note_on_c, 1, 40, 127
1, 990, Note_off_c, 1, 62, 0
1, 994, Note_on_c, 1, 60, 127
1, 1007, Note_off_c, 1, 60, 0
1, 1009, Note_on_c, 1, 59, 127
1, 1016, Note_off_c, 1, 40, 0
1, 1022, Note_off_c, 1, 59, 0
1, 1024, Note_on_c, 1, 60, 127
1, 1024, Note_on_c, 1, 45, 127
1, 1050, Note_off_c, 1, 60, 0
1, 1054, Note_on_c, 1, 69, 127
1, 1076, Note_off_c, 1, 45, 0
1, 1084, Note_on_c, 1, 47, 127
1, 1110, Note_off_c, 1, 69, 0
1, 1114, Note_on_c, 1, 68, 127
1, 1136, Note_off_c, 1, 47, 0
1, 1140, Note_off_c, 1, 68, 0
1, 1144, Note_on_c, 1, 76, 127
1, 1144, Note_on_c, 1, 49, 127
1, 1170, Note_off_c, 1, 76, 0
1, 1174, Note_on_c, 1, 67, 127
1, 1196, Note_off_c, 1, 49, 0
1, 1204, Note_on_c, 1, 50, 127
1, 1230, Note_off_c, 1, 67, 0
1, 1234, Note_on_c, 1, 66, 127
1, 1247, Note_off_c, 1, 66, 0
1, 1249, Note_on_c, 1, 64, 127
1, 1256, Note_off_c, 1, 50, 0
1, 1262, Note_off_c, 1, 64, 0
1, 1264, Note_on_c, 1, 63, 127
1, 1264, Note_on_c, 1, 47, 127
1, 1290, Note_off_c, 1, 63, 0
1, 1294, Note_on_c, 1, 71, 127
1, 1316, Note_off_c, 1, 47, 0
1, 1324, Note_on_c, 1, 49, 127
1, 1350, Note_off_c, 1, 71, 0
1, 1354, Note_on_c, 1, 70, 127
1, 1376, Note_off_c, 1, 49, 0
1, 1380, Note_off_c, 1, 70, 0
1, 1384, Note_on_c, 1, 78, 127
1, 1384, Note_on_c, 1, 51, 127
1, 1410, Note_off_c, 1, 78, 0
1, 1414, Note_on_c, 1, 69, 127
1, 1436, Note_off_c, 1, 51, 0
1, 1444, Note_on_c, 1, 52, 127
1, 1457, Note_off_c, 1, 69, 0
1, 1459, Note_on_c, 1, 67, 127
1, 1472, Note_off_c, 1, 67, 0
1, 1489, Note_on_c, 1, 71, 127
1, 1496, Note_off_c, 1, 52, 0
1, 1502, Note_off_c, 1, 71, 0
1, 1504, Note_on_c, 1, 72, 127
1, 1504, Note_on_c, 1, 64, 127
1, 1530, Note_off_c, 1, 72, 0
1, 1534, Note_on_c, 1, 67, 127
1, 1556, Note_off_c, 1, 64, 0
1, 1560, Note_off_c, 1, 67, 0
1, 1564, Note_on_c, 1, 66, 127
1, 1564, Note_on_c, 1, 63, 127
1, 1590, Note_off_c, 1, 66, 0
1, 1594, Note_on_c, 1, 70, 127
1, 1616, Note_off_c, 1, 63, 0
1, 1620, Note_off_c, 1, 70, 0
1, 1624, Note_on_c, 1, 71, 127
1, 1624, Note_on_c, 1, 62, 127
1, 1650, Note_off_c, 1, 71, 0
1, 1654, Note_on_c, 1, 65, 127
1, 1676, Note_off_c, 1, 62, 0
1, 1680, Note_off_c, 1, 65, 0
1, 1684, Note_on_c, 1, 64, 127
1, 1684, Note_on_c, 1, 61, 127
1, 1710, Note_off_c, 1, 64, 0
1, 1714, Note_on_c, 1, 68, 127
1, 1736, Note_off_c, 1, 61, 0
1, 1740, Note_off_c, 1, 68, 0
1, 1744, Note_on_c, 1, 69, 127
1, 1744, Note_on_c, 1, 60, 127
1, 1770, Note_off_c, 1, 69, 0
1, 1774, Note_on_c, 1, 63, 127
1, 1796, Note_off_c, 1, 60, 0
1, 1804, Note_on_c, 1, 59, 127
1, 1830, Note_off_c, 1, 63, 0
1, 1834, Note_on_c, 1, 64, 127
1, 1856, Note_off_c, 1, 59, 0
1, 1864, Note_on_c, 1, 57, 127
1, 1886, Note_off_c, 1, 64, 0
1, 1894, Note_on_c, 1, 66, 127
1, 1920, Note_off_c, 1, 66, 0
1, 1937, Note_off_c, 1, 57, 0
1, 1939, Note_on_c, 1, 55, 127
1, 1952, Note_off_c, 1, 55, 0
1, 1984, Note_on_c, 1, 76, 127
1, 1984, Note_on_c, 1, 60, 127
1, 2010, Note_off_c, 1, 60, 0
1, 2014, Note_on_c, 1, 55, 127
1, 2036, Note_off_c, 1, 76, 0
1, 2040, Note_off_c, 1, 55, 0
1, 2044, Note_on_c, 1, 75, 127
1, 2044, Note_on_c, 1, 54, 127
1, 2070, Note_off_c, 1, 54, 0
1, 2074, Note_on_c, 1, 58, 127
1, 2096, Note_off_c, 1, 75, 0
1, 2100, Note_off_c, 1, 58, 0
1, 2104, Note_on_c, 1, 74, 127
1, 2104, Note_on_c, 1, 59, 127
1, 2130, Note_off_c, 1, 59, 0
1, 2134, Note_on_c, 1, 53, 127
1, 2156, Note_off_c, 1, 74, 0
1, 2160, Note_off_c, 1, 53, 0
1, 2164, Note_on_c, 1, 73, 127
1, 2164, Note_on_c, 1, 52, 127
1, 2190, Note_off_c, 1, 52, 0
1, 2194, Note_on_c, 1, 56, 127
1, 2216, Note_off_c, 1, 73, 0
1, 2220, Note_off_c, 1, 56, 0
1, 2224, Note_on_c, 1, 72, 127
1, 2224, Note_on_c, 1, 57, 127
1, 2250, Note_off_c, 1, 57, 0
1, 2254, Note_on_c, 1, 51, 127
1, 2276, Note_off_c, 1, 72, 0
1, 2284, Note_on_c, 1, 71, 127
1, 2310, Note_off_c, 1, 51, 0
1, 2314, Note_on_c, 1, 52, 127
1, 2336, Note_off_c, 1, 71, 0
1, 2344, Note_on_c, 1, 69, 127
1, 2366, Note_off_c, 1, 52, 0
1, 2374, Note_on_c, 1, 54, 127
1, 2400, Note_off_c, 1, 54, 0
1, 2404, Note_on_c, 1, 47, 127
1, 2430, Note_off_c, 1, 69, 0
1, 2434, Note_on_c, 1, 67, 127
1, 2447, Note_off_c, 1, 67, 0
1, 2449, Note_on_c, 1, 66, 127
1, 2456, Note_off_c, 1, 47, 0
1, 2462, Note_off_c, 1, 66, 0
1, 2464, Note_on_c, 1, 67, 127
1, 2464, Note_on_c, 1, 52, 127
1, 2490, Note_off_c, 1, 67, 0
1, 2494, Note_on_c, 1, 76, 127
1, 2516, Note_off_c, 1, 52, 0
1, 2524, Note_on_c, 1, 54, 127
1, 2550, Note_off_c, 1, 76, 0
1, 2554, Note_on_c, 1, 75, 127
1, 2576, Note_off_c, 1, 54, 0
1, 2580, Note_off_c, 1, 75, 0
1, 2584, Note_on_c, 1, 83, 127
1, 2584, Note_on_c, 1, 56, 127
1, 2610, Note_off_c, 1, 83, 0
1, 2614, Note_on_c, 1, 74, 127
1, 2636, Note_off_c, 1, 56, 0
1, 2644, Note_on_c, 1, 57, 127
1, 2670, Note_off_c, 1, 74, 0
1, 2670, Note_off_c, 1, 57, 0
1, 2674, Note_on_c, 1, 72, 127
1, 2674, Note_on_c, 1, 45, 127
1, 2687, Note_off_c, 1, 72, 0
1, 2689, Note_on_c, 1, 71, 127
1, 2700, Note_off_c, 1, 45, 0
1, 2702, Note_off_c, 1, 71, 0
1, 2704, Note_on_c, 1, 72, 127
1, 2704, Note_on_c, 1, 57, 127
1, 2730, Note_off_c, 1, 72, 0
1, 2734, Note_on_c, 1, 69, 127
1, 2760, Note_off_c, 1, 69, 0
1, 2764, Note_on_c, 1, 71, 127
1, 2790, Note_off_c, 1, 57, 0
1, 2794, Note_on_c, 1, 56, 127
1, 2816, Note_off_c, 1, 71, 0
1, 2820, Note_off_c, 1, 56, 0
1, 2824, Note_on_c, 1, 73, 127
1, 2824, Note_on_c, 1, 64, 127
1, 2850, Note_off_c, 1, 64, 0
1, 2854, Note_on_c, 1, 55, 127
1, 2876, Note_off_c, 1, 73, 0
1, 2884, Note_on_c, 1, 74, 127
1, 2910, Note_off_c, 1, 55, 0
1, 2910, Note_off_c, 1, 74, 0
1, 2914, Note_on_c, 1, 62, 127
1, 2914, Note_on_c, 1, 54, 127
1, 2927, Note_off_c, 1, 54, 0
1, 2929, Note_on_c, 1, 52, 127
1, 2940, Note_off_c, 1, 62, 0
1, 2942, Note_off_c, 1, 52, 0
1, 2944, Note_on_c, 1, 74, 127
1, 2944, Note_on_c, 1, 54, 127
1, 2970, Note_off_c, 1, 54, 0
1, 2974, Note_on_c, 1, 50, 127
1, 3000, Note_off_c, 1, 50, 0
1, 3004, Note_on_c, 1, 52, 127
1, 3030, Note_off_c, 1, 74, 0
1, 3034, Note_on_c, 1, 73, 127
1, 3056, Note_off_c, 1, 52, 0
1, 3060, Note_off_c, 1, 73, 0
1, 3064, Note_on_c, 1, 81, 127
1, 3064, Note_on_c, 1, 54, 127
1, 3090, Note_off_c, 1, 81, 0
1, 3094, Note_on_c, 1, 72, 127
1, 3116, Note_off_c, 1, 54, 0
1, 3124, Note_on_c, 1, 55, 127
1, 3150, Note_off_c, 1, 72, 0
1, 3150, Note_off_c, 1, 55, 0
1, 3154, Note_on_c, 1, 71, 127
1, 3154, Note_on_c, 1, 43, 127
1, 3167, Note_off_c, 1, 71, 0
1, 3169, Note_on_c, 1, 69, 127
1, 3180, Note_off_c, 1, 43, 0
1, 3182, Note_off_c, 1, 69, 0
1, 3184, Note_on_c, 1, 71, 127
1, 3184, Note_on_c, 1, 55, 127
1, 3210, Note_off_c, 1, 71, 0
1, 3214, Note_on_c, 1, 67, 127
1, 3240, Note_off_c, 1, 67, 0
1, 3244, Note_on_c, 1, 69, 127
1, 3270, Note_off_c, 1, 55, 0
1, 3274, Note_on_c, 1, 54, 127
1, 3296, Note_off_c, 1, 69, 0
1, 3300, Note_off_c, 1, 54, 0
1, 3304, Note_on_c, 1, 71, 127
1, 3304, Note_on_c, 1, 62, 127
1, 3330, Note_off_c, 1, 62, 0
1, 3334, Note_on_c, 1, 53, 127
1, 3356, Note_off_c, 1, 71, 0
1, 3364, Note_on_c, 1, 72, 127
1, 3377, Note_off_c, 1, 53, 0
1, 3379, Note_on_c, 1, 52, 127
1, 3392, Note_off_c, 1, 52, 0
1, 3409, Note_on_c, 1, 55, 127
1, 3416, Note_off_c, 1, 72, 0
1, 3422, Note_off_c, 1, 55, 0
1, 3424, Note_on_c, 1, 84, 127
1, 3424, Note_on_c, 1, 57, 127
1, 3450, Note_off_c, 1, 57, 0
1, 3454, Note_on_c, 1, 52, 127
1, 3476, Note_off_c, 1, 84, 0
1, 3480, Note_off_c, 1, 52, 0
1, 3484, Note_on_c, 1, 83, 127
1, 3484, Note_on_c, 1, 51, 127
1, 3510, Note_off_c, 1, 51, 0
1, 3514, Note_on_c, 1, 54, 127
1, 3536, Note_off_c, 1, 83, 0
1, 3540, Note_off_c, 1, 54, 0
1, 3544, Note_on_c, 1, 82, 127
1, 3544, Note_on_c, 1, 55, 127
1, 3570, Note_off_c, 1, 55, 0
1, 3574, Note_on_c, 1, 50, 127
1, 3596, Note_off_c, 1, 82, 0
1, 3600, Note_off_c, 1, 50, 0
1, 3604, Note_on_c, 1, 81, 127
1, 3604, Note_on_c, 1, 49, 127
1, 3630, Note_off_c, 1, 49, 0
1, 3634, Note_on_c, 1, 52, 127
1, 3656, Note_off_c, 1, 81, 0
1, 3660, Note_off_c, 1, 52, 0
1, 3664, Note_on_c, 1, 80, 127
1, 3664, Note_on_c, 1, 53, 127
1, 3690, Note_off_c, 1, 53, 0
1, 3694, Note_on_c, 1, 48, 127
1, 3716, Note_off_c, 1, 80, 0
1, 3724, Note_on_c, 1, 79, 127
1, 3750, Note_off_c, 1, 48, 0
1, 3754, Note_on_c, 1, 47, 127
1, 3776, Note_off_c, 1, 79, 0
1, 3784, Note_on_c, 1, 77, 127
1, 3806, Note_off_c, 1, 47, 0
1, 3829, Note_on_c, 1, 50, 127
1, 3842, Note_off_c, 1, 50, 0
1, 3844, Note_on_c, 1, 43, 127
1, 3857, Note_off_c, 1, 77, 0
1, 3859, Note_on_c, 1, 71, 127
1, 3872, Note_off_c, 1, 71, 0
1, 3874, Note_on_c, 1, 72, 127
1, 3887, Note_off_c, 1, 72, 0
1, 3889, Note_on_c, 1, 74, 127
1, 3896, Note_off_c, 1, 43, 0
1, 3902, Note_off_c, 1, 74, 0
1, 3904, Note_on_c, 1, 76, 127
1, 3904, Note_on_c, 1, 55, 127
1, 3930, Note_off_c, 1, 76, 0
1, 3934, Note_on_c, 1, 71, 127
1, 3956, Note_off_c, 1, 55, 0
1, 3960, Note_off_c, 1, 71, 0
1, 3964, Note_on_c, 1, 70, 127
1, 3964, Note_on_c, 1, 54, 127
1, 3990, Note_off_c, 1, 70, 0
1, 3994, Note_on_c, 1, 73, 127
1, 4016, Note_off_c, 1, 54, 0
1, 4020, Note_off_c, 1, 73, 0
1, 4024, Note_on_c, 1, 74, 127
1, 4024, Note_on_c, 1, 53, 127
1, 4050, Note_off_c, 1, 74, 0
1, 4054, Note_on_c, 1, 69, 127
1, 4076, Note_off_c, 1, 53, 0
1, 4080, Note_off_c, 1, 69, 0
1, 4084, Note_on_c, 1, 68, 127
1, 4084, Note_on_c, 1, 52, 127
1, 4110, Note_off_c, 1, 68, 0
1, 4114, Note_on_c, 1, 71, 127
1, 4136, Note_off_c, 1, 52, 0
1, 4140, Note_off_c, 1, 71, 0
1, 4144, Note_on_c, 1, 72, 127
1, 4144, Note_on_c, 1, 51, 127
1, 4170, Note_off_c, 1, 72, 0
1, 4174, Note_on_c, 1, 67, 127
1, 4196, Note_off_c, 1, 51, 0
1, 4204, Note_on_c, 1, 50, 127
1, 4230, Note_off_c, 1, 67, 0
1, 4234, Note_on_c, 1, 66, 127
1, 4256, Note_off_c, 1, 50, 0
1, 4264, Note_on_c, 1, 48, 127
1, 4286, Note_off_c, 1, 66, 0
1, 4309, Note_on_c, 1, 69, 127
1, 4322, Note_off_c, 1, 69, 0
1, 4324, Note_on_c, 1, 62, 127
1, 4350, Note_off_c, 1, 48, 0
1, 4354, Note_on_c, 1, 47, 127
1, 4367, Note_off_c, 1, 47, 0
1, 4369, Note_on_c, 1, 45, 127
1, 4376, Note_off_c, 1, 62, 0
1, 4382, Note_off_c, 1, 45, 0
1, 4384, Note_on_c, 1, 67, 127
1, 4384, Note_on_c, 1, 47, 127
1, 4410, Note_off_c, 1, 47, 0
1, 4414, Note_on_c, 1, 55, 127
1, 4436, Note_off_c, 1, 67, 0
1, 4444, Note_on_c, 1, 69, 127
1, 4470, Note_off_c, 1, 55, 0
1, 4474, Note_on_c, 1, 54, 127
1, 4496, Note_off_c, 1, 69, 0
1, 4500, Note_off_c, 1, 54, 0
1, 4504, Note_on_c, 1, 71, 127
1, 4504, Note_on_c, 1, 62, 127
1, 4530, Note_off_c, 1, 62, 0
1, 4534, Note_on_c, 1, 53, 127
1, 4556, Note_off_c, 1, 71, 0
1, 4564, Note_on_c, 1, 72, 127
1, 4590, Note_off_c, 1, 53, 0
1, 4594, Note_on_c, 1, 52, 127
1, 4607, Note_off_c, 1, 52, 0
1, 4609, Note_on_c, 1, 50, 127
1, 4616, Note_off_c, 1, 72, 0
1, 4622, Note_off_c, 1, 50, 0
1, 4624, Note_on_c, 1, 69, 127
1, 4624, Note_on_c, 1, 49, 127
1, 4650, Note_off_c, 1, 49, 0
1, 4654, Note_on_c, 1, 57, 127
1, 4676, Note_off_c, 1, 69, 0
1, 4684, Note_on_c, 1, 71, 127
1, 4710, Note_off_c, 1, 57, 0
1, 4714, Note_on_c, 1, 56, 127
1, 4736, Note_off_c, 1, 71, 0
1, 4740, Note_off_c, 1, 56, 0
1, 4744, Note_on_c, 1, 73, 127
1, 4744, Note_on_c, 1, 64, 127
1, 4770, Note_off_c, 1, 64, 0
1, 4774, Note_on_c, 1, 55, 127
1, 4796, Note_off_c, 1, 73, 0
1, 4804, Note_on_c, 1, 74, 127
1, 4817, Note_off_c, 1, 55, 0
1, 4819, Note_on_c, 1, 54, 127
1, 4832, Note_off_c, 1, 54, 0
1, 4849, Note_on_c, 1, 57, 127
1, 4856, Note_off_c, 1, 74, 0
1, 4862, Note_off_c, 1, 57, 0
1, 4864, Note_on_c, 1, 62, 127
1, 4864, Note_on_c, 1, 58, 127
1, 4890, Note_off_c, 1, 58, 0
1, 4894, Note_on_c, 1, 53, 127
1, 4916, Note_off_c, 1, 62, 0
1, 4920, Note_off_c, 1, 53, 0
1, 4924, Note_on_c, 1, 61, 127
1, 4924, Note_on_c, 1, 52, 127
1, 4950, Note_off_c, 1, 52, 0
1, 4954, Note_on_c, 1, 56, 127
1, 4976, Note_off_c, 1, 61, 0
1, 4980, Note_off_c, 1, 56, 0
1, 4984, Note_on_c, 1, 60, 127
1, 4984, Note_on_c, 1, 57, 127
1, 5010, Note_off_c, 1, 57, 0
1, 5014, Note_on_c, 1, 51, 127
1, 5036, Note_off_c, 1, 60, 0
1, 5040, Note_off_c, 1, 51, 0
1, 5044, Note_on_c, 1, 59, 127
1, 5044, Note_on_c, 1, 50, 127
1, 5070, Note_off_c, 1, 50, 0
1, 5074, Note_on_c, 1, 54, 127
1, 5096, Note_off_c, 1, 59, 0
1, 5100, Note_off_c, 1, 54, 0
1, 5104, Note_on_c, 1, 58, 127
1, 5104, Note_on_c, 1, 55, 127
1, 5130, Note_off_c, 1, 55, 0
1, 5134, Note_on_c, 1, 49, 127
1, 5156, Note_off_c, 1, 58, 0
1, 5164, Note_on_c, 1, 57, 127
1, 5190, Note_off_c, 1, 49, 0
1, 5194, Note_on_c, 1, 50, 127
1, 5216, Note_off_c, 1, 57, 0
1, 5246, Note_off_c, 1, 50, 0
1, 5254, Note_on_c, 1, 52, 127
1, 5280, Note_off_c, 1, 52, 0
1, 5284, Note_on_c, 1, 45, 127
1, 5314, Note_on_c, 1, 53, 127
1, 5327, Note_off_c, 1, 53, 0
1, 5336, Note_off_c, 1, 45, 0
1, 5344, Note_on_c, 1, 53, 127
1, 5344, Note_on_c, 1, 50, 127
1, 5370, Note_off_c, 1, 53, 0
1, 5374, Note_on_c, 1, 62, 127
1, 5396, Note_off_c, 1, 50, 0
1, 5404, Note_on_c, 1, 52, 127
1, 5430, Note_off_c, 1, 62, 0
1, 5434, Note_on_c, 1, 61, 127
1, 5456, Note_off_c, 1, 52, 0
1, 5460, Note_off_c, 1, 61, 0
1, 5464, Note_on_c, 1, 69, 127
1, 5464, Note_on_c, 1, 54, 127
1, 5490, Note_off_c, 1, 69, 0
1, 5494, Note_on_c, 1, 60, 127
1, 5516, Note_off_c, 1, 54, 0
1, 5524, Note_on_c, 1, 55, 127
1, 5550, Note_off_c, 1, 60, 0
1, 5554, Note_on_c, 1, 59, 127
1, 5567, Note_off_c, 1, 59, 0
1, 5569, Note_on_c, 1, 57, 127
1, 5576, Note_off_c, 1, 55, 0
1, 5582, Note_off_c, 1, 57, 0
1, 5584, Note_on_c, 1, 56, 127
1, 5584, Note_on_c, 1, 52, 127
1, 5610, Note_off_c, 1, 56, 0
1, 5614, Note_on_c, 1, 64, 127
1, 5636, Note_off_c, 1, 52, 0
1, 5644, Note_on_c, 1, 54, 127
1, 5670, Note_off_c, 1, 64, 0
1, 5674, Note_on_c, 1, 63, 127
1, 5696, Note_off_c, 1, 54, 0
1, 5700, Note_off_c, 1, 63, 0
1, 5704, Note_on_c, 1, 71, 127
1, 5704, Note_on_c, 1, 56, 127
1, 5730, Note_off_c, 1, 71, 0
1, 5734, Note_on_c, 1, 62, 127
1, 5756, Note_off_c, 1, 56, 0
1, 5764, Note_on_c, 1, 57, 127
1, 5777, Note_off_c, 1, 62, 0
1, 5779, Note_on_c, 1, 60, 127
1, 5790, Note_off_c, 1, 57, 0
1, 5792, Note_off_c, 1, 60, 0
1, 5794, Note_on_c, 1, 62, 127
1, 5794, Note_on_c, 1, 45, 127
1, 5807, Note_off_c, 1, 62, 0
1, 5809, Note_on_c, 1, 64, 127
1, 5820, Note_off_c, 1, 45, 0
1, 5822, Note_off_c, 1, 64, 0
1, 5824, Note_on_c, 1, 65, 127
1, 5824, Note_on_c, 1, 57, 127
1, 5850, Note_off_c, 1, 65, 0
1, 5854, Note_on_c, 1, 60, 127
1, 5876, Note_off_c, 1, 57, 0
1, 5880, Note_off_c, 1, 60, 0
1, 5884, Note_on_c, 1, 59, 127
1, 5884, Note_on_c, 1, 56, 127
1, 5910, Note_off_c, 1, 59, 0
1, 5914, Note_on_c, 1, 63, 127
1, 5936, Note_off_c, 1, 56, 0
1, 5940, Note_off_c, 1, 63, 0
1, 5944, Note_on_c, 1, 64, 127
1, 5944, Note_on_c, 1, 55, 127
1, 5970, Note_off_c, 1, 64, 0
1, 5974, Note_on_c, 1, 58, 127
1, 5996, Note_off_c, 1, 55, 0
1, 6000, Note_off_c, 1, 58, 0
1, 6004, Note_on_c, 1, 57, 127
1, 6004, Note_on_c, 1, 54, 127
1, 6030, Note_off_c, 1, 57, 0
1, 6034, Note_on_c, 1, 61, 127
1, 6056, Note_off_c, 1, 54, 0
1, 6060, Note_off_c, 1, 61, 0
1, 6064, Note_on_c, 1, 62, 127
1, 6064, Note_on_c, 1, 53, 127
1, 6090, Note_off_c, 1, 62, 0
1, 6094, Note_on_c, 1, 56, 127
1, 6116, Note_off_c, 1, 53, 0
1, 6124, Note_on_c, 1, 52, 127
1, 6150, Note_off_c, 1, 56, 0
1, 6154, Note_on_c, 1, 57, 127
1, 6176, Note_off_c, 1, 52, 0
1, 6184, Note_on_c, 1, 50, 127
1, 6206, Note_off_c, 1, 57, 0
1, 6214, Note_on_c, 1, 59, 127
1, 6240, Note_off_c, 1, 59, 0
1, 6270, Note_off_c, 1, 50, 0
1, 6274, Note_on_c, 1, 48, 127
1, 6287, Note_off_c, 1, 48, 0
1, 6289, Note_on_c, 1, 47, 127
1, 6302, Note_off_c, 1, 47, 0
1, 6304, Note_on_c, 1, 64, 127
1, 6304, Note_on_c, 1, 48, 127
1, 6330, Note_off_c, 1, 48, 0
1, 6334, Note_on_c, 1, 52, 127
1, 6356, Note_off_c, 1, 64, 0
1, 6364, Note_on_c, 1, 66, 127
1, 6390, Note_off_c, 1, 52, 0
1, 6394, Note_on_c, 1, 51, 127
1, 6416, Note_off_c, 1, 66, 0
1, 6420, Note_off_c, 1, 51, 0
1, 6424, Note_on_c, 1, 68, 127
1, 6424, Note_on_c, 1, 59, 127
1, 6450, Note_off_c, 1, 59, 0
1, 6454, Note_on_c, 1, 50, 127
1, 6476, Note_off_c, 1, 68, 0
1, 6484, Note_on_c, 1, 69, 127
1, 6510, Note_off_c, 1, 50, 0
1, 6510, Note_off_c, 1, 69, 0
1, 6514, Note_on_c, 1, 57, 127
1, 6514, Note_on_c, 1, 49, 127
1, 6527, Note_off_c, 1, 49, 0
1, 6529, Note_on_c, 1, 47, 127
1, 6540, Note_off_c, 1, 57, 0
1, 6542, Note_off_c, 1, 47, 0
1, 6544, Note_on_c, 1, 69, 127
1, 6544, Note_on_c, 1, 49, 127
1, 6570, Note_off_c, 1, 49, 0
1, 6574, Note_on_c, 1, 45, 127
1, 6600, Note_off_c, 1, 45, 0
1, 6604, Note_on_c, 1, 47, 127
1, 6630, Note_off_c, 1, 69, 0
1, 6634, Note_on_c, 1, 68, 127
1, 6656, Note_off_c, 1, 47, 0
1, 6660, Note_off_c, 1, 68, 0
1, 6664, Note_on_c, 1, 76, 127
1, 6664, Note_on_c, 1, 49, 127
1, 6690, Note_off_c, 1, 76, 0
1, 6694, Note_on_c, 1, 67, 127
1, 6716, Note_off_c, 1, 49, 0
1, 6724, Note_on_c, 1, 50, 127
1, 6750, Note_off_c, 1, 67, 0
1, 6750, Note_off_c, 1, 50, 0
1, 6754, Note_on_c, 1, 66, 127
1, 6754, Note_on_c, 1, 38, 127
1, 6767, Note_off_c, 1, 66, 0
1, 6769, Note_on_c, 1, 64, 127
1, 6780, Note_off_c, 1, 38, 0
1, 6782, Note_off_c, 1, 64, 0
1, 6784, Note_on_c, 1, 66, 127
1, 6784, Note_on_c, 1, 50, 127
1, 6810, Note_off_c, 1, 66, 0
1, 6814, Note_on_c, 1, 62, 127
1, 6840, Note_off_c, 1, 62, 0
1, 6844, Note_on_c, 1, 64, 127
1, 6870, Note_off_c, 1, 50, 0
1, 6874, Note_on_c, 1, 49, 127
1, 6896, Note_off_c, 1, 64, 0
1, 6900, Note_off_c, 1, 49, 0
1, 6904, Note_on_c, 1, 66, 127
1, 6904, Note_on_c, 1, 57, 127
1, 6930, Note_off_c, 1, 57, 0
1, 6934, Note_on_c, 1, 48, 127
1, 6956, Note_off_c, 1, 66, 0
1, 6964, Note_on_c, 1, 67, 127
1, 6990, Note_off_c, 1, 48, 0
1, 6990, Note_off_c, 1, 67, 0
1, 6994, Note_on_c, 1, 55, 127
1, 6994, Note_on_c, 1, 47, 127
1, 7007, Note_off_c, 1, 47, 0
1, 7009, Note_on_c, 1, 45, 127
1, 7020, Note_off_c, 1, 55, 0
1, 7022, Note_off_c, 1, 45, 0
1, 7024, Note_on_c, 1, 67, 127
1, 7024, Note_on_c, 1, 47, 127
1, 7050, Note_off_c, 1, 47, 0
1, 7054, Note_on_c, 1, 43, 127
1, 7080, Note_off_c, 1, 43, 0
1, 7084, Note_on_c, 1, 45, 127
1, 7110, Note_off_c, 1, 67, 0
1, 7114, Note_on_c, 1, 66, 127
1, 7136, Note_off_c, 1, 45, 0
1, 7140, Note_off_c, 1, 66, 0
1, 7144, Note_on_c, 1, 74, 127
1, 7144, Note_on_c, 1, 47, 127
1, 7170, Note_off_c, 1, 74, 0
1, 7174, Note_on_c, 1, 65, 127
1, 7196, Note_off_c, 1, 47, 0
1, 7204, Note_on_c, 1, 48, 127
1, 7230, Note_off_c, 1, 65, 0
1, 7234, Note_on_c, 1, 64, 127
1, 7247, Note_off_c, 1, 64, 0
1, 7249, Note_on_c, 1, 62, 127
1, 7262, Note_off_c, 1, 62, 0
1, 7282, Note_off_c, 1, 48, 0
1, 7294, Note_on_c, 1, 76, 127
1, 7294, Note_on_c, 1, 47, 127
1, 7307, Note_off_c, 1, 47, 0
1, 7309, Note_on_c, 1, 45, 127
1, 7322, Note_off_c, 1, 45, 0
1, 7324, Note_on_c, 1, 53, 127
1, 7350, Note_off_c, 1, 76, 0
1, 7354, Note_on_c, 1, 77, 127
1, 7367, Note_off_c, 1, 77, 0
1, 7384, Note_on_c, 1, 74, 127
1, 7397, Note_off_c, 1, 74, 0
1, 7399, Note_on_c, 1, 72, 127
1, 7412, Note_off_c, 1, 72, 0
1, 7414, Note_on_c, 1, 71, 127
1, 7427, Note_off_c, 1, 71, 0
1, 7429, Note_off_c, 1, 53, 0
1, 7429, Note_on_c, 1, 69, 127
1, 7442, Note_off_c, 1, 69, 0
1, 7444, Note_on_c, 1, 68, 127
1, 7444, Note_on_c, 1, 52, 127
1, 7459, Note_on_c, 1, 64, 127
1, 7470, Note_off_c, 1, 52, 0
1, 7472, Note_off_c, 1, 64, 0
1, 7474, Note_on_c, 1, 62, 127
1, 7487, Note_off_c, 1, 62, 0
1, 7489, Note_on_c, 1, 60, 127
1, 7502, Note_off_c, 1, 60, 0
1, 7504, Note_on_c, 1, 59, 127
1, 7517, Note_off_c, 1, 59, 0
1, 7519, Note_on_c, 1, 57, 127
1, 7532, Note_off_c, 1, 57, 0
1, 7534, Note_on_c, 1, 56, 127
1, 7547, Note_off_c, 1, 56, 0
1, 7549, Note_on_c, 1, 54, 127
1, 7562, Note_off_c, 1, 54, 0
1, 7624, Note_on_c, 1, 40, 127
1, 7669, Note_off_c, 1, 68, 0
1, 7676, Note_off_c, 1, 40, 0
1, 7684, Note_on_c, 1, 45, 127
1, 7699, Note_on_c, 1, 72, 127
1, 7712, Note_off_c, 1, 72, 0
1, 7714, Note_on_c, 1, 74, 127
1, 7727, Note_off_c, 1, 74, 0
1, 7729, Note_on_c, 1, 76, 127
1, 7736, Note_off_c, 1, 45, 0
1, 7742, Note_off_c, 1, 76, 0
1, 7744, Note_on_c, 1, 77, 127
1, 7744, Note_on_c, 1, 57, 127
1, 7770, Note_off_c, 1, 77, 0
1, 7774, Note_on_c, 1, 72, 127
1, 7796, Note_off_c, 1, 57, 0
1, 7800, Note_off_c, 1, 72, 0
1, 7804, Note_on_c, 1, 71, 127
1, 7804, Note_on_c, 1, 56, 127
1, 7830, Note_off_c, 1, 71, 0
1, 7834, Note_on_c, 1, 75, 127
1, 7856, Note_off_c, 1, 56, 0
1, 7860, Note_off_c, 1, 75, 0
1, 7864, Note_on_c, 1, 76, 127
1, 7864, Note_on_c, 1, 55, 127
1, 7890, Note_off_c, 1, 76, 0
1, 7894, Note_on_c, 1, 70, 127
1, 7916, Note_off_c, 1, 55, 0
1, 7920, Note_off_c, 1, 70, 0
1, 7924, Note_on_c, 1, 69, 127
1, 7924, Note_on_c, 1, 54, 127
1, 7950, Note_off_c, 1, 69, 0
1, 7954, Note_on_c, 1, 73, 127
1, 7976, Note_off_c, 1, 54, 0
1, 7980, Note_off_c, 1, 73, 0
1, 7984, Note_on_c, 1, 74, 127
1, 7984, Note_on_c, 1, 53, 127
1, 8010, Note_off_c, 1, 74, 0
1, 8014, Note_on_c, 1, 68, 127
1, 8036, Note_off_c, 1, 53, 0
1, 8044, Note_on_c, 1, 52, 127
1, 8070, Note_off_c, 1, 68, 0
1, 8074, Note_on_c, 1, 69, 127
1, 8096, Note_off_c, 1, 52, 0
1, 8104, Note_on_c, 1, 50, 127
1, 8126, Note_off_c, 1, 69, 0
1, 8134, Note_on_c, 1, 71, 127
1, 8160, Note_off_c, 1, 71, 0
1, 8164, Note_on_c, 1, 64, 127
1, 8177, Note_off_c, 1, 50, 0
1, 8179, Note_on_c, 1, 48, 127
1, 8192, Note_off_c, 1, 48, 0
1, 8216, Note_off_c, 1, 64, 0
1, 8224, Note_on_c, 1, 69, 127
1, 8224, Note_on_c, 1, 53, 127
1, 8250, Note_off_c, 1, 53, 0
1, 8254, Note_on_c, 1, 48, 127
1, 8276, Note_off_c, 1, 69, 0
1, 8280, Note_off_c, 1, 48, 0
1, 8284, Note_on_c, 1, 68, 127
1, 8284, Note_on_c, 1, 47, 127
1, 8310, Note_off_c, 1, 47, 0
1, 8314, Note_on_c, 1, 51, 127
1, 8336, Note_off_c, 1, 68, 0
1, 8340, Note_off_c, 1, 51, 0
1, 8344, Note_on_c, 1, 67, 127
1, 8344, Note_on_c, 1, 52, 127
1, 8370, Note_off_c, 1, 52, 0
1, 8374, Note_on_c, 1, 46, 127
1, 8396, Note_off_c, 1, 67, 0
1, 8400, Note_off_c, 1, 46, 0
1, 8404, Note_on_c, 1, 66, 127
1, 8404, Note_on_c, 1, 45, 127
1, 8430, Note_off_c, 1, 45, 0
1, 8434, Note_on_c, 1, 49, 127
1, 8456, Note_off_c, 1, 66, 0
1, 8460, Note_off_c, 1, 49, 0
1, 8464, Note_on_c, 1, 65, 127
1, 8464, Note_on_c, 1, 50, 127
1, 8490, Note_off_c, 1, 50, 0
1, 8494, Note_on_c, 1, 44, 127
1, 8516, Note_off_c, 1, 65, 0
1, 8524, Note_on_c, 1, 64, 127
1, 8550, Note_off_c, 1, 44, 0
1, 8554, Note_on_c, 1, 45, 127
1, 8576, Note_off_c, 1, 64, 0
1, 8584, Note_on_c, 1, 62, 127
1, 8606, Note_off_c, 1, 45, 0
1, 8614, Note_on_c, 1, 47, 127
1, 8640, Note_off_c, 1, 47, 0
1, 8644, Note_on_c, 1, 40, 127
1, 8670, Note_off_c, 1, 62, 0
1, 8674, Note_on_c, 1, 60, 127
1, 8687, Note_off_c, 1, 60, 0
1, 8689, Note_on_c, 1, 59, 127
1, 8696, Note_off_c, 1, 40, 0
1, 8702, Note_off_c, 1, 59, 0
1, 8704, Note_on_c, 1, 60, 127
1, 8704, Note_on_c, 1, 45, 127
1, 8730, Note_off_c, 1, 60, 0
1, 8734, Note_on_c, 1, 69, 127
1, 8756, Note_off_c, 1, 45, 0
1, 8764, Note_on_c, 1, 47, 127
1, 8790, Note_off_c, 1, 69, 0
1, 8794, Note_on_c, 1, 68, 127
1, 8816, Note_off_c, 1, 47, 0
1, 8820, Note_off_c, 1, 68, 0
1, 8824, Note_on_c, 1, 76, 127
1, 8824, Note_on_c, 1, 49, 127
1, 8850, Note_off_c, 1, 76, 0
1, 8854, Note_on_c, 1, 67, 127
1, 8876, Note_off_c, 1, 49, 0
1, 8884, Note_on_c, 1, 50, 127
1, 8910, Note_off_c, 1, 67, 0
1, 8914, Note_on_c, 1, 66, 127
1, 8927, Note_off_c, 1, 66, 0
1, 8929, Note_on_c, 1, 64, 127
1, 8936, Note_off_c, 1, 50, 0
1, 8942, Note_off_c, 1, 64, 0
1, 8944, Note_on_c, 1, 63, 127
1, 8944, Note_on_c, 1, 47, 127
1, 8970, Note_off_c, 1, 63, 0
1, 8974, Note_on_c, 1, 71, 127
1, 8996, Note_off_c, 1, 47, 0
1, 9004, Note_on_c, 1, 49, 127
1, 9030, Note_off_c, 1, 71, 0
1, 9034, Note_on_c, 1, 70, 127
1, 9056, Note_off_c, 1, 49, 0
1, 9060, Note_off_c, 1, 70, 0
1, 9064, Note_on_c, 1, 78, 127
1, 9064, Note_on_c, 1, 51, 127
1, 9090, Note_off_c, 1, 78, 0
1, 9094, Note_on_c, 1, 69, 127
1, 9116, Note_off_c, 1, 51, 0
1, 9124, Note_on_c, 1, 52, 127
1, 9137, Note_off_c, 1, 69, 0
1, 9139, Note_on_c, 1, 67, 127
1, 9152, Note_off_c, 1, 67, 0
1, 9169, Note_on_c, 1, 71, 127
1, 9176, Note_off_c, 1, 52, 0
1, 9182, Note_off_c, 1, 71, 0
1, 9184, Note_on_c, 1, 72, 127
1, 9184, Note_on_c, 1, 64, 127
1, 9210, Note_off_c, 1, 72, 0
1, 9214, Note_on_c, 1, 67, 127
1, 9236, Note_off_c, 1, 64, 0
1, 9240, Note_off_c, 1, 67, 0
1, 9244, Note_on_c, 1, 66, 127
1, 9244, Note_on_c, 1, 63, 127
1, 9270, Note_off_c, 1, 66, 0
1, 9274, Note_on_c, 1, 70, 127
1, 9296, Note_off_c, 1, 63, 0
1, 9300, Note_off_c, 1, 70, 0
1, 9304, Note_on_c, 1, 71, 127
1, 9304, Note_on_c, 1, 62, 127
1, 9330, Note_off_c, 1, 71, 0
1, 9334, Note_on_c, 1, 65, 127
1, 9356, Note_off_c, 1, 62, 0
1, 9360, Note_off_c, 1, 65, 0
1, 9364, Note_on_c, 1, 64, 127
1, 9364, Note_on_c, 1, 61, 127
1, 9390, Note_off_c, 1, 64, 0
1, 9394, Note_on_c, 1, 68, 127
1, 9416, Note_off_c, 1, 61, 0
1, 9420, Note_off_c, 1, 68, 0
1, 9424, Note_on_c, 1, 69, 127
1, 9424, Note_on_c, 1, 60, 127
1, 9450, Note_off_c, 1, 69, 0
1, 9454, Note_on_c, 1, 63, 127
1, 9476, Note_off_c, 1, 60, 0
1, 9484, Note_on_c, 1, 59, 127
1, 9510, Note_off_c, 1, 63, 0
1, 9514, Note_on_c, 1, 64, 127
1, 9536, Note_off_c, 1, 59, 0
1, 9544, Note_on_c, 1, 57, 127
1, 9566, Note_off_c, 1, 64, 0
1, 9574, Note_on_c, 1, 66, 127
1, 9600, Note_off_c, 1, 66, 0
1, 9617, Note_off_c, 1, 57, 0
1, 9619, Note_on_c, 1, 55, 127
1, 9632, Note_off_c, 1, 55, 0
1, 9664, Note_on_c, 1, 76, 127
1, 9664, Note_on_c, 1, 60, 127
1, 9690, Note_off_c, 1, 60, 0
1, 9694, Note_on_c, 1, 55, 127
1, 9716, Note_off_c, 1, 76, 0
1, 9720, Note_off_c, 1, 55, 0
1, 9724, Note_on_c, 1, 75, 127
1, 9724, Note_on_c, 1, 54, 127
1, 9750, Note_off_c, 1, 54, 0
1, 9754, Note_on_c, 1, 58, 127
1, 9776, Note_off_c, 1, 75, 0
1, 9780, Note_off_c, 1, 58, 0
1, 9784, Note_on_c, 1, 74, 127
1, 9784, Note_on_c, 1, 59, 127
1, 9810, Note_off_c, 1, 59, 0
1, 9814, Note_on_c, 1, 53, 127
1, 9836, Note_off_c, 1, 74, 0
1, 9840, Note_off_c, 1, 53, 0
1, 9844, Note_on_c, 1, 73, 127
1, 9844, Note_on_c, 1, 52, 127
1, 9870, Note_off_c, 1, 52, 0
1, 9874, Note_on_c, 1, 56, 127
1, 9896, Note_off_c, 1, 73, 0
1, 9900, Note_off_c, 1, 56, 0
1, 9904, Note_on_c, 1, 72, 127
1, 9904, Note_on_c, 1, 57, 127
1, 9930, Note_off_c, 1, 57, 0
1, 9934, Note_on_c, 1, 51, 127
1, 9956, Note_off_c, 1, 72, 0
1, 9964, Note_on_c, 1, 71, 127
1, 9990, Note_off_c, 1, 51, 0
1, 9994, Note_on_c, 1, 52, 127
1, 10016, Note_off_c, 1, 71, 0
1, 10024, Note_on_c, 1, 69, 127
1, 10046, Note_off_c, 1, 52, 0
1, 10054, Note_on_c, 1, 54, 127
1, 10080, Note_off_c, 1, 54, 0
1, 10084, Note_on_c, 1, 47, 127
1, 10110, Note_off_c, 1, 69, 0
1, 10114, Note_on_c, 1, 67, 127
1, 10127, Note_off_c, 1, 67, 0
1, 10129, Note_on_c, 1, 66, 127
1, 10136, Note_off_c, 1, 47, 0
1, 10142, Note_off_c, 1, 66, 0
1, 10144, Note_on_c, 1, 67, 127
1, 10144, Note_on_c, 1, 52, 127
1, 10170, Note_off_c, 1, 67, 0
1, 10174, Note_on_c, 1, 76, 127
1, 10196, Note_off_c, 1, 52, 0
1, 10204, Note_on_c, 1, 54, 127
1, 10230, Note_off_c, 1, 76, 0
1, 10234, Note_on_c, 1, 75, 127
1, 10256, Note_off_c, 1, 54, 0
1, 10260, Note_off_c, 1, 75, 0
1, 10264, Note_on_c, 1, 83, 127
1, 10264, Note_on_c, 1, 56, 127
1, 10290, Note_off_c, 1, 83, 0
1, 10294, Note_on_c, 1, 74, 127
1, 10316, Note_off_c, 1, 56, 0
1, 10324, Note_on_c, 1, 57, 127
1, 10350, Note_off_c, 1, 74, 0
1, 10350, Note_off_c, 1, 57, 0
1, 10354, Note_on_c, 1, 72, 127
1, 10354, Note_on_c, 1, 45, 127
1, 10367, Note_off_c, 1, 72, 0
1, 10369, Note_on_c, 1, 71, 127
1, 10380, Note_off_c, 1, 45, 0
1, 10382, Note_off_c, 1, 71, 0
1, 10384, Note_on_c, 1, 72, 127
1, 10384, Note_on_c, 1, 57, 127
1, 10410, Note_off_c, 1, 72, 0
1, 10414, Note_on_c, 1, 69, 127
1, 10440, Note_off_c, 1, 69, 0
1, 10444, Note_on_c, 1, 71, 127
1, 10470, Note_off_c, 1, 57, 0
1, 10474, Note_on_c, 1, 56, 127
1, 10496, Note_off_c, 1, 71, 0
1, 10500, Note_off_c, 1, 56, 0
1, 10504, Note_on_c, 1, 73, 127
1, 10504, Note_on_c, 1, 64, 127
1, 10530, Note_off_c, 1, 64, 0
1, 10534, Note_on_c, 1, 55, 127
1, 10556, Note_off_c, 1, 73, 0
1, 10564, Note_on_c, 1, 74, 127
1, 10590, Note_off_c, 1, 55, 0
1, 10590, Note_off_c, 1, 74, 0
1, 10594, Note_on_c, 1, 62, 127
1, 10594, Note_on_c, 1, 54, 127
1, 10607, Note_off_c, 1, 54, 0
1, 10609, Note_on_c, 1, 52, 127
1, 10620, Note_off_c, 1, 62, 0
1, 10622, Note_off_c, 1, 52, 0
1, 10624, Note_on_c, 1, 74, 127
1, 10624, Note_on_c, 1, 54, 127
1, 10650, Note_off_c, 1, 54, 0
1, 10654, Note_on_c, 1, 50, 127
1, 10680, Note_off_c, 1, 50, 0
1, 10684, Note_on_c, 1, 52, 127
1, 10710, Note_off_c, 1, 74, 0
1, 10714, Note_on_c, 1, 73, 127
1, 10736, Note_off_c, 1, 52, 0
1, 10740, Note_off_c, 1, 73, 0
1, 10744, Note_on_c, 1, 81, 127
1, 10744, Note_on_c, 1, 54, 127
1, 10770, Note_off_c, 1, 81, 0
1, 10774, Note_on_c, 1, 72, 127
1, 10796, Note_off_c, 1, 54, 0
1, 10804, Note_on_c, 1, 55, 127
1, 10830, Note_off_c, 1, 72, 0
1, 10830, Note_off_c, 1, 55, 0
1, 10834, Note_on_c, 1, 71, 127
1, 10834, Note_on_c, 1, 43, 127
1, 10847, Note_off_c, 1, 71, 0
1, 10849, Note_on_c, 1, 69, 127
1, 10860, Note_off_c, 1, 43, 0
1, 10862, Note_off_c, 1, 69, 0
1, 10864, Note_on_c, 1, 71, 127
1, 10864, Note_on_c, 1, 55, 127
1, 10890, Note_off_c, 1, 71, 0
1, 10894, Note_on_c, 1, 67, 127
1, 10920, Note_off_c, 1, 67, 0
1, 10924, Note_on_c, 1, 69, 127
1, 10950, Note_off_c, 1, 55, 0
1, 10954, Note_on_c, 1, 54, 127
1, 10976, Note_off_c, 1, 69, 0
1, 10980, Note_off_c, 1, 54, 0
1, 10984, Note_on_c, 1, 71, 127
1, 10984, Note_on_c, 1, 62, 127
1, 11010, Note_off_c, 1, 62, 0
1, 11014, Note_on_c, 1, 53, 127
1, 11036, Note_off_c, 1, 71, 0
1, 11044, Note_on_c, 1, 72, 127
1, 11057, Note_off_c, 1, 53, 0
1, 11059, Note_on_c, 1, 52, 127
1, 11072, Note_off_c, 1, 52, 0
1, 11089, Note_on_c, 1, 55, 127
1, 11096, Note_off_c, 1, 72, 0
1, 11102, Note_off_c, 1, 55, 0
1, 11104, Note_on_c, 1, 84, 127
1, 11104, Note_on_c, 1, 57, 127
1, 11130, Note_off_c, 1, 57, 0
1, 11134, Note_on_c, 1, 52, 127
1, 11156, Note_off_c, 1, 84, 0
1, 11160, Note_off_c, 1, 52, 0
1, 11164, Note_on_c, 1, 83, 127
1, 11164, Note_on_c, 1, 51, 127
1, 11190, Note_off_c, 1, 51, 0
1, 11194, Note_on_c, 1, 54, 127
1, 11216, Note_off_c, 1, 83, 0
1, 11220, Note_off_c, 1, 54, 0
1, 11224, Note_on_c, 1, 82, 127
1, 11224, Note_on_c, 1, 55, 127
1, 11250, Note_off_c, 1, 55, 0
1, 11254, Note_on_c, 1, 50, 127
1, 11276, Note_off_c, 1, 82, 0
1, 11280, Note_off_c, 1, 50, 0
1, 11284, Note_on_c, 1, 81, 127
1, 11284, Note_on_c, 1, 49, 127
1, 11310, Note_off_c, 1, 49, 0
1, 11314, Note_on_c, 1, 52, 127
1, 11336, Note_off_c, 1, 81, 0
1, 11340, Note_off_c, 1, 52, 0
1, 11344, Note_on_c, 1, 80, 127
1, 11344, Note_on_c, 1, 53, 127
1, 11370, Note_off_c, 1, 53, 0
1, 11374, Note_on_c, 1, 48, 127
1, 11396, Note_off_c, 1, 80, 0
1, 11404, Note_on_c, 1, 79, 127
1, 11430, Note_off_c, 1, 48, 0
1, 11434, Note_on_c, 1, 47, 127
1, 11456, Note_off_c, 1, 79, 0
1, 11464, Note_on_c, 1, 77, 127
1, 11486, Note_off_c, 1, 47, 0
1, 11509, Note_on_c, 1, 50, 127
1, 11522, Note_off_c, 1, 50, 0
1, 11524, Note_on_c, 1, 43, 127
1, 11537, Note_off_c, 1, 77, 0
1, 11539, Note_on_c, 1, 71, 127
1, 11552, Note_off_c, 1, 71, 0
1, 11554, Note_on_c, 1, 72, 127
1, 11567, Note_off_c, 1, 72, 0
1, 11569, Note_on_c, 1, 74, 127
1, 11576, Note_off_c, 1, 43, 0
1, 11582, Note_off_c, 1, 74, 0
1, 11584, Note_on_c, 1, 76, 127
1, 11584, Note_on_c, 1, 55, 127
1, 11610, Note_off_c, 1, 76, 0
1, 11614, Note_on_c, 1, 71, 127
1, 11636, Note_off_c, 1, 55, 0
1, 11640, Note_off_c, 1, 71, 0
1, 11644, Note_on_c, 1, 70, 127
1, 11644, Note_on_c, 1, 54, 127
1, 11670, Note_off_c, 1, 70, 0
1, 11674, Note_on_c, 1, 73, 127
1, 11696, Note_off_c, 1, 54, 0
1, 11700, Note_off_c, 1, 73, 0
1, 11704, Note_on_c, 1, 74, 127
1, 11704, Note_on_c, 1, 53, 127
1, 11730, Note_off_c, 1, 74, 0
1, 11734, Note_on_c, 1, 69, 127
1, 11756, Note_off_c, 1, 53, 0
1, 11760, Note_off_c, 1, 69, 0
1, 11764, Note_on_c, 1, 68, 127
1, 11764, Note_on_c, 1, 52, 127
1, 11790, Note_off_c, 1, 68, 0
1, 11794, Note_on_c, 1, 71, 127
1, 11816, Note_off_c, 1, 52, 0
1, 11820, Note_off_c, 1, 71, 0
1, 11824, Note_on_c, 1, 72, 127
1, 11824, Note_on_c, 1, 51, 127
1, 11850, Note_off_c, 1, 72, 0
1, 11854, Note_on_c, 1, 67, 127
1, 11876, Note_off_c, 1, 51, 0
1, 11884, Note_on_c, 1, 50, 127
1, 11910, Note_off_c, 1, 67, 0
1, 11914, Note_on_c, 1, 66, 127
1, 11936, Note_off_c, 1, 50, 0
1, 11944, Note_on_c, 1, 48, 127
1, 11966, Note_off_c, 1, 66, 0
1, 11989, Note_on_c, 1, 69, 127
1, 12002, Note_off_c, 1, 69, 0
1, 12004, Note_on_c, 1, 62, 127
1, 12030, Note_off_c, 1, 48, 0
1, 12034, Note_on_c, 1, 47, 127
1, 12047, Note_off_c, 1, 47, 0
1, 12049, Note_on_c, 1, 45, 127
1, 12056, Note_off_c, 1, 62, 0
1, 12062, Note_off_c, 1, 45, 0
1, 12064, Note_on_c, 1, 67, 127
1, 12064, Note_on_c, 1, 47, 127
1, 12090, Note_off_c, 1, 47, 0
1, 12094, Note_on_c, 1, 55, 127
1, 12116, Note_off_c, 1, 67, 0
1, 12124, Note_on_c, 1, 69, 127
1, 12150, Note_off_c, 1, 55, 0
1, 12154, Note_on_c, 1, 54, 127
1, 12176, Note_off_c, 1, 69, 0
1, 12180, Note_off_c, 1, 54, 0
1, 12184, Note_on_c, 1, 71, 127
1, 12184, Note_on_c, 1, 62, 127
1, 12210, Note_off_c, 1, 62, 0
1, 12214, Note_on_c, 1, 53, 127
1, 12236, Note_off_c, 1, 71, 0
1, 12244, Note_on_c, 1, 72, 127
1, 12270, Note_off_c, 1, 53, 0
1, 12274, Note_on_c, 1, 52, 127
1, 12287, Note_off_c, 1, 52, 0
1, 12289, Note_on_c, 1, 50, 127
1, 12296, Note_off_c, 1, 72, 0
1, 12302, Note_off_c, 1, 50, 0
1, 12304, Note_on_c, 1, 69, 127
1, 12304, Note_on_c, 1, 49, 127
1, 12330, Note_off_c, 1, 49, 0
1, 12334, Note_on_c, 1, 57, 127
1, 12356, Note_off_c, 1, 69, 0
1, 12364, Note_on_c, 1, 71, 127
1, 12390, Note_off_c, 1, 57, 0
1, 12394, Note_on_c, 1, 56, 127
1, 12416, Note_off_c, 1, 71, 0
1, 12420, Note_off_c, 1, 56, 0
1, 12424, Note_on_c, 1, 73, 127
1, 12424, Note_on_c, 1, 64, 127
1, 12450, Note_off_c, 1, 64, 0
1, 12454, Note_on_c, 1, 55, 127
1, 12476, Note_off_c, 1, 73, 0
1, 12484, Note_on_c, 1, 74, 127
1, 12497, Note_off_c, 1, 55, 0
1, 12499, Note_on_c, 1, 54, 127
1, 12512, Note_off_c, 1, 54, 0
1, 12529, Note_on_c, 1, 57, 127
1, 12536, Note_off_c, 1, 74, 0
1, 12542, Note_off_c, 1, 57, 0
1, 12544, Note_on_c, 1, 62, 127
1, 12544, Note_on_c, 1, 58, 127
1, 12570, Note_off_c, 1, 58, 0
1, 12574, Note_on_c, 1, 53, 127
1, 12596, Note_off_c, 1, 62, 0
1, 12600, Note_off_c, 1, 53, 0
1, 12604, Note_on_c, 1, 61, 127
1, 12604, Note_on_c, 1, 52, 127
1, 12630, Note_off_c, 1, 52, 0
1, 12634, Note_on_c, 1, 56, 127
1, 12656, Note_off_c, 1, 61, 0
1, 12660, Note_off_c, 1, 56, 0
1, 12664, Note_on_c, 1, 60, 127
1, 12664, Note_on_c, 1, 57, 127
1, 12690, Note_off_c, 1, 57, 0
1, 12694, Note_on_c, 1, 51, 127
1, 12716, Note_off_c, 1, 60, 0
1, 12720, Note_off_c, 1, 51, 0
1, 12724, Note_on_c, 1, 59, 127
1, 12724, Note_on_c, 1, 50, 127
1, 12750, Note_off_c, 1, 50, 0
1, 12754, Note_on_c, 1, 54, 127
1, 12776, Note_off_c, 1, 59, 0
1, 12780, Note_off_c, 1, 54, 0
1, 12784, Note_on_c, 1, 58, 127
1, 12784, Note_on_c, 1, 55, 127
1, 12810, Note_off_c, 1, 55, 0
1, 12814, Note_on_c, 1, 49, 127
1, 12836, Note_off_c, 1, 58, 0
1, 12844, Note_on_c, 1, 57, 127
1, 12870, Note_off_c, 1, 49, 0
1, 12874, Note_on_c, 1, 50, 127
1, 12896, Note_off_c, 1, 57, 0
1, 12926, Note_off_c, 1, 50, 0
1, 12934, Note_on_c, 1, 52, 127
1, 12960, Note_off_c, 1, 52, 0
1, 12964, Note_on_c, 1, 45, 127
1, 12994, Note_on_c, 1, 53, 127
1, 13007, Note_off_c, 1, 53, 0
1, 13016, Note_off_c, 1, 45, 0
1, 13024, Note_on_c, 1, 53, 127
1, 13024, Note_on_c, 1, 50, 127
1, 13050, Note_off_c, 1, 53, 0
1, 13054, Note_on_c, 1, 62, 127
1, 13076, Note_off_c, 1, 50, 0
1, 13084, Note_on_c, 1, 52, 127
1, 13110, Note_off_c, 1, 62, 0
1, 13114, Note_on_c, 1, 61, 127
1, 13136, Note_off_c, 1, 52, 0
1, 13140, Note_off_c, 1, 61, 0
1, 13144, Note_on_c, 1, 69, 127
1, 13144, Note_on_c, 1, 54, 127
1, 13170, Note_off_c, 1, 69, 0
1, 13174, Note_on_c, 1, 60, 127
1, 13196, Note_off_c, 1, 54, 0
1, 13204, Note_on_c, 1, 55, 127
1, 13230, Note_off_c, 1, 60, 0
1, 13234, Note_on_c, 1, 59, 127
1, 13247, Note_off_c, 1, 59, 0
1, 13249, Note_on_c, 1, 57, 127
1, 13256, Note_off_c, 1, 55, 0
1, 13262, Note_off_c, 1, 57, 0
1, 13264, Note_on_c, 1, 56, 127
1, 13264, Note_on_c, 1, 52, 127
1, 13290, Note_off_c, 1, 56, 0
1, 13294, Note_on_c, 1, 64, 127
1, 13316, Note_off_c, 1, 52, 0
1, 13324, Note_on_c, 1, 54, 127
1, 13350, Note_off_c, 1, 64, 0
1, 13354, Note_on_c, 1, 63, 127
1, 13376, Note_off_c, 1, 54, 0
1, 13380, Note_off_c, 1, 63, 0
1, 13384, Note_on_c, 1, 71, 127
1, 13384, Note_on_c, 1, 56, 127
1, 13410, Note_off_c, 1, 71, 0
1, 13414, Note_on_c, 1, 62, 127
1, 13436, Note_off_c, 1, 56, 0
1, 13444, Note_on_c, 1, 57, 127
1, 13457, Note_off_c, 1, 62, 0
1, 13459, Note_on_c, 1, 60, 127
1, 13470, Note_off_c, 1, 57, 0
1, 13472, Note_off_c, 1, 60, 0
1, 13474, Note_on_c, 1, 62, 127
1, 13474, Note_on_c, 1, 45, 127
1, 13487, Note_off_c, 1, 62, 0
1, 13489, Note_on_c, 1, 64, 127
1, 13500, Note_off_c, 1, 45, 0
1, 13502, Note_off_c, 1, 64, 0
1, 13504, Note_on_c, 1, 65, 127
1, 13504, Note_on_c, 1, 57, 127
1, 13530, Note_off_c, 1, 65, 0
1, 13534, Note_on_c, 1, 60, 127
1, 13556, Note_off_c, 1, 57, 0
1, 13560, Note_off_c, 1, 60, 0
1, 13564, Note_on_c, 1, 59, 127
1, 13564, Note_on_c, 1, 56, 127
1, 13590, Note_off_c, 1, 59, 0
1, 13594, Note_on_c, 1, 63, 127
1, 13616, Note_off_c, 1, 56, 0
1, 13620, Note_off_c, 1, 63, 0
1, 13624, Note_on_c, 1, 64, 127
1, 13624, Note_on_c, 1, 55, 127
1, 13650, Note_off_c, 1, 64, 0
1, 13654, Note_on_c, 1, 58, 127
1, 13676, Note_off_c, 1, 55, 0
1, 13680, Note_off_c, 1, 58, 0
1, 13684, Note_on_c, 1, 57, 127
1, 13684, Note_on_c, 1, 54, 127
1, 13710, Note_off_c, 1, 57, 0
1, 13714, Note_on_c, 1, 61, 127
1, 13736, Note_off_c, 1, 54, 0
1, 13740, Note_off_c, 1, 61, 0
1, 13744, Note_on_c, 1, 62, 127
1, 13744, Note_on_c, 1, 53, 127
1, 13770, Note_off_c, 1, 62, 0
1, 13774, Note_on_c, 1, 56, 127
1, 13796, Note_off_c, 1, 53, 0
1, 13804, Note_on_c, 1, 52, 127
1, 13830, Note_off_c, 1, 56, 0
1, 13834, Note_on_c, 1, 57, 127
1, 13856, Note_off_c, 1, 52, 0
1, 13864, Note_on_c, 1, 50, 127
1, 13886, Note_off_c, 1, 57, 0
1, 13894, Note_on_c, 1, 59, 127
1, 13920, Note_off_c, 1, 59, 0
1, 13950, Note_off_c, 1, 50, 0
1, 13954, Note_on_c, 1, 48, 127
1, 13967, Note_off_c, 1, 48, 0
1, 13969, Note_on_c, 1, 47, 127
1, 13982, Note_off_c, 1, 47, 0
1, 13984, Note_on_c, 1, 64, 127
1, 13984, Note_on_c, 1, 48, 127
1, 14010, Note_off_c, 1, 48, 0
1, 14014, Note_on_c, 1, 52, 127
1, 14036, Note_off_c, 1, 64, 0
1, 14044, Note_on_c, 1, 66, 127
1, 14070, Note_off_c, 1, 52, 0
1, 14074, Note_on_c, 1, 51, 127
1, 14096, Note_off_c, 1, 66, 0
1, 14100, Note_off_c, 1, 51, 0
1, 14104, Note_on_c, 1, 68, 127
1, 14104, Note_on_c, 1, 59, 127
1, 14130, Note_off_c, 1, 59, 0
1, 14134, Note_on_c, 1, 50, 127
1, 14156, Note_off_c, 1, 68, 0
1, 14164, Note_on_c, 1, 69, 127
1, 14190, Note_off_c, 1, 50, 0
1, 14190, Note_off_c, 1, 69, 0
1, 14194, Note_on_c, 1, 57, 127
1, 14194, Note_on_c, 1, 49, 127
1, 14207, Note_off_c, 1, 49, 0
1, 14209, Note_on_c, 1, 47, 127
1, 14220, Note_off_c, 1, 57, 0
1, 14222, Note_off_c, 1, 47, 0
1, 14224, Note_on_c, 1, 69, 127
1, 14224, Note_on_c, 1, 49, 127
1, 14250, Note_off_c, 1, 49, 0
1, 14254, Note_on_c, 1, 45, 127
1, 14280, Note_off_c, 1, 45, 0
1, 14284, Note_on_c, 1, 47, 127
1, 14310, Note_off_c, 1, 69, 0
1, 14314, Note_on_c, 1, 68, 127
1, 14336, Note_off_c, 1, 47, 0
1, 14340, Note_off_c, 1, 68, 0
1, 14344, Note_on_c, 1, 76, 127
1, 14344, Note_on_c, 1, 49, 127
1, 14370, Note_off_c, 1, 76, 0
1, 14374, Note_on_c, 1, 67, 127
1, 14396, Note_off_c, 1, 49, 0
1, 14404, Note_on_c, 1, 50, 127
1, 14430, Note_off_c, 1, 67, 0
1, 14430, Note_off_c, 1, 50, 0
1, 14434, Note_on_c, 1, 66, 127
1, 14434, Note_on_c, 1, 38, 127
1, 14447, Note_off_c, 1, 66, 0
1, 14449, Note_on_c, 1, 64, 127
1, 14460, Note_off_c, 1, 38, 0
1, 14462, Note_off_c, 1, 64, 0
1, 14464, Note_on_c, 1, 66, 127
1, 14464, Note_on_c, 1, 50, 127
1, 14490, Note_off_c, 1, 66, 0
1, 14494, Note_on_c, 1, 62, 127
1, 14520, Note_off_c, 1, 62, 0
1, 14524, Note_on_c, 1, 64, 127
1, 14550, Note_off_c, 1, 50, 0
1, 14554, Note_on_c, 1, 49, 127
1, 14576, Note_off_c, 1, 64, 0
1, 14580, Note_off_c, 1, 49, 0
1, 14584, Note_on_c, 1, 66, 127
1, 14584, Note_on_c, 1, 57, 127
1, 14610, Note_off_c, 1, 57, 0
1, 14614, Note_on_c, 1, 48, 127
1, 14636, Note_off_c, 1, 66, 0
1, 14644, Note_on_c, 1, 67, 127
1, 14670, Note_off_c, 1, 48, 0
1, 14670, Note_off_c, 1, 67, 0
1, 14674, Note_on_c, 1, 55, 127
1, 14674, Note_on_c, 1, 47, 127
1, 14687, Note_off_c, 1, 47, 0
1, 14689, Note_on_c, 1, 45, 127
1, 14700, Note_off_c, 1, 55, 0
1, 14702, Note_off_c, 1, 45, 0
1, 14704, Note_on_c, 1, 67, 127
1, 14704, Note_on_c, 1, 47, 127
1, 14730, Note_off_c, 1, 47, 0
1, 14734, Note_on_c, 1, 43, 127
1, 14760, Note_off_c, 1, 43, 0
1, 14764, Note_on_c, 1, 45, 127
1, 14790, Note_off_c, 1, 67, 0
1, 14794, Note_on_c, 1, 66, 127
1, 14816, Note_off_c, 1, 45, 0
1, 14820, Note_off_c, 1, 66, 0
1, 14824, Note_on_c, 1, 74, 127
1, 14824, Note_on_c, 1, 47, 127
1, 14850, Note_off_c, 1, 74, 0
1, 14854, Note_on_c, 1, 65, 127
1, 14876, Note_off_c, 1, 47, 0
1, 14884, Note_on_c, 1, 48, 127
1, 14910, Note_off_c, 1, 65, 0
1, 14914, Note_on_c, 1, 64, 127
1, 14927, Note_off_c, 1, 64, 0
1, 14929, Note_on_c, 1, 62, 127
1, 14942, Note_off_c, 1, 62, 0
1, 14962, Note_off_c, 1, 48, 0
1, 14974, Note_on_c, 1, 76, 127
1, 14974, Note_on_c, 1, 47, 127
1, 14987, Note_off_c, 1, 47, 0
1, 14989, Note_on_c, 1, 45, 127
1, 15002, Note_off_c, 1, 45, 0
1, 15004, Note_on_c, 1, 53, 127
1, 15030, Note_off_c, 1, 76, 0
1, 15034, Note_on_c, 1, 77, 127
1, 15047, Note_off_c, 1, 77, 0
1, 15064, Note_on_c, 1, 74, 127
1, 15077, Note_off_c, 1, 74, 0
1, 15079, Note_on_c, 1, 72, 127
1, 15092, Note_off_c, 1, 72, 0
1, 15094, Note_on_c, 1, 71, 127
1, 15107, Note_off_c, 1, 71, 0
1, 15109, Note_off_c, 1, 53, 0
1, 15109, Note_on_c, 1, 69, 127
1, 15122, Note_off_c, 1, 69, 0
1, 15124, Note_on_c, 1, 68, 127
1, 15124, Note_on_c, 1, 52, 127
1, 15139, Note_on_c, 1, 64, 127
1, 15150, Note_off_c, 1, 52, 0
1, 15152, Note_off_c, 1, 64, 0
1, 15154, Note_on_c, 1, 62, 127
1, 15167, Note_off_c, 1, 62, 0
1, 15169, Note_on_c, 1, 60, 127
1, 15182, Note_off_c, 1, 60, 0
1, 15184, Note_on_c, 1, 59, 127
1, 15197, Note_off_c, 1, 59, 0
1, 15199, Note_on_c, 1, 57, 127
1, 15212, Note_off_c, 1, 57, 0
1, 15214, Note_on_c, 1, 56, 127
1, 15227, Note_off_c, 1, 56, 0
1, 15229, Note_on_c, 1, 54, 127
1, 15242, Note_off_c, 1, 54, 0
1, 15304, Note_on_c, 1, 40, 127
1, 15349, Note_off_c, 1, 68, 0
1, 15356, Note_off_c, 1, 40, 0
1, 15364, Note_on_c, 1, 76, 127
1, 15379, Note_on_c, 1, 60, 127
1, 15392, Note_off_c, 1, 60, 0
1, 15394, Note_on_c, 1, 59, 127
1, 15407, Note_off_c, 1, 59, 0
1, 15409, Note_on_c, 1, 57, 127
1, 15416, Note_off_c, 1, 76, 0
1, 15422, Note_off_c, 1, 57, 0
1, 15424, Note_on_c, 1, 64, 127
1, 15424, Note_on_c, 1, 56, 127
1, 15450, Note_off_c, 1, 56, 0
1, 15454, Note_on_c, 1, 61, 127
1, 15476, Note_off_c, 1, 64, 0
1, 15480, Note_off_c, 1, 61, 0
1, 15484, Note_on_c, 1, 65, 127
1, 15484, Note_on_c, 1, 62, 127
1, 15510, Note_off_c, 1, 62, 0
1, 15514, Note_on_c, 1, 58, 127
1, 15536, Note_off_c, 1, 65, 0
1, 15540, Note_off_c, 1, 58, 0
1, 15544, Note_on_c, 1, 66, 127
1, 15544, Note_on_c, 1, 57, 127
1, 15570, Note_off_c, 1, 57, 0
1, 15574, Note_on_c, 1, 63, 127
1, 15596, Note_off_c, 1, 66, 0
1, 15600, Note_off_c, 1, 63, 0
1, 15604, Note_on_c, 1, 67, 127
1, 15604, Note_on_c, 1, 64, 127
1, 15630, Note_off_c, 1, 64, 0
1, 15634, Note_on_c, 1, 60, 127
1, 15656, Note_off_c, 1, 67, 0
1, 15660, Note_off_c, 1, 60, 0
1, 15664, Note_on_c, 1, 68, 127
1, 15664, Note_on_c, 1, 59, 127
1, 15690, Note_off_c, 1, 59, 0
1, 15694, Note_on_c, 1, 65, 127
1, 15716, Note_off_c, 1, 68, 0
1, 15724, Note_on_c, 1, 69, 127
1, 15750, Note_off_c, 1, 65, 0
1, 15754, Note_on_c, 1, 64, 127
1, 15776, Note_off_c, 1, 69, 0
1, 15784, Note_on_c, 1, 71, 127
1, 15806, Note_off_c, 1, 64, 0
1, 15814, Note_on_c, 1, 62, 127
1, 15836, Note_off_c, 1, 71, 0
1, 15840, Note_off_c, 1, 62, 0
1, 15844, Note_on_c, 1, 72, 127
1, 15844, Note_on_c, 1, 69, 127
1, 15857, Note_off_c, 1, 72, 0
1, 15859, Note_on_c, 1, 77, 127
1, 15872, Note_off_c, 1, 77, 0
1, 15874, Note_on_c, 1, 76, 127
1, 15887, Note_off_c, 1, 76, 0
1, 15889, Note_on_c, 1, 74, 127
1, 15896, Note_off_c, 1, 69, 0
1, 15902, Note_off_c, 1, 74, 0
1, 15904, Note_on_c, 1, 73, 127
1, 15904, Note_on_c, 1, 57, 127
1, 15930, Note_off_c, 1, 73, 0
1, 15934, Note_on_c, 1, 78, 127
1, 15956, Note_off_c, 1, 57, 0
1, 15960, Note_off_c, 1, 78, 0
1, 15964, Note_on_c, 1, 79, 127
1, 15964, Note_on_c, 1, 58, 127
1, 15990, Note_off_c, 1, 79, 0
1, 15994, Note_on_c, 1, 75, 127
1, 16016, Note_off_c, 1, 58, 0
1, 16020, Note_off_c, 1, 75, 0
1, 16024, Note_on_c, 1, 74, 127
1, 16024, Note_on_c, 1, 59, 127
1, 16050, Note_off_c, 1, 74, 0
1, 16054, Note_on_c, 1, 80, 127
1, 16076, Note_off_c, 1, 59, 0
1, 16080, Note_off_c, 1, 80, 0
1, 16084, Note_on_c, 1, 81, 127
1, 16084, Note_on_c, 1, 60, 127
1, 16110, Note_off_c, 1, 81, 0
1, 16114, Note_on_c, 1, 77, 127
1, 16136, Note_off_c, 1, 60, 0
1, 16140, Note_off_c, 1, 77, 0
1, 16144, Note_on_c, 1, 76, 127
1, 16144, Note_on_c, 1, 61, 127
1, 16170, Note_off_c, 1, 76, 0
1, 16174, Note_on_c, 1, 82, 127
1, 16196, Note_off_c, 1, 61, 0
1, 16204, Note_on_c, 1, 62, 127
1, 16230, Note_off_c, 1, 82, 0
1, 16234, Note_on_c, 1, 81, 127
1, 16256, Note_off_c, 1, 62, 0
1, 16264, Note_on_c, 1, 64, 127
1, 16286, Note_off_c, 1, 81, 0
1, 16294, Note_on_c, 1, 80, 127
1, 16316, Note_off_c, 1, 64, 0
1, 16320, Note_off_c, 1, 80, 0
1, 16324, Note_on_c, 1, 81, 127
1, 16324, Note_on_c, 1, 65, 127
1, 16337, Note_off_c, 1, 81, 0
1, 16339, Note_on_c, 1, 79, 127
1, 16352, Note_off_c, 1, 79, 0
1, 16354, Note_on_c, 1, 77, 127
1, 16367, Note_off_c, 1, 77, 0
1, 16369, Note_on_c, 1, 76, 127
1, 16376, Note_off_c, 1, 65, 0
1, 16382, Note_off_c, 1, 76, 0
1, 16384, Note_on_c, 1, 77, 127
1, 16384, Note_on_c, 1, 62, 127
1, 16410, Note_off_c, 1, 77, 0
1, 16414, Note_on_c, 1, 70, 127
1, 16436, Note_off_c, 1, 62, 0
1, 16440, Note_off_c, 1, 70, 0
1, 16444, Note_on_c, 1, 69, 127
1, 16444, Note_on_c, 1, 60, 127
1, 16470, Note_off_c, 1, 69, 0
1, 16474, Note_on_c, 1, 76, 127
1, 16496, Note_off_c, 1, 60, 0
1, 16500, Note_off_c, 1, 76, 0
1, 16504, Note_on_c, 1, 74, 127
1, 16504, Note_on_c, 1, 59, 127
1, 16530, Note_off_c, 1, 74, 0
1, 16534, Note_on_c, 1, 68, 127
1, 16556, Note_off_c, 1, 59, 0
1, 16564, Note_on_c, 1, 57, 127
1, 16577, Note_off_c, 1, 68, 0
1, 16594, Note_on_c, 1, 72, 127
1, 16607, Note_off_c, 1, 72, 0
1, 16609, Note_on_c, 1, 71, 127
1, 16616, Note_off_c, 1, 57, 0
1, 16622, Note_off_c, 1, 71, 0
1, 16624, Note_on_c, 1, 69, 127
1, 16624, Note_on_c, 1, 60, 127
1, 16650, Note_off_c, 1, 69, 0
1, 16654, Note_on_c, 1, 76, 127
1, 16676, Note_off_c, 1, 60, 0
1, 16680, Note_off_c, 1, 76, 0
1, 16684, Note_on_c, 1, 74, 127
1, 16684, Note_on_c, 1, 59, 127
1, 16710, Note_off_c, 1, 74, 0
1, 16714, Note_on_c, 1, 67, 127
1, 16736, Note_off_c, 1, 59, 0
1, 16740, Note_off_c, 1, 67, 0
1, 16744, Note_on_c, 1, 66, 127
1, 16744, Note_on_c, 1, 57, 127
1, 16770, Note_off_c, 1, 66, 0
1, 16774, Note_on_c, 1, 72, 127
1, 16796, Note_off_c, 1, 57, 0
1, 16800, Note_off_c, 1, 72, 0
1, 16804, Note_on_c, 1, 71, 127
1, 16804, Note_on_c, 1, 55, 127
1, 16817, Note_off_c, 1, 55, 0
1, 16819, Note_on_c, 1, 59, 127
1, 16832, Note_off_c, 1, 59, 0
1, 16834, Note_on_c, 1, 60, 127
1, 16847, Note_off_c, 1, 60, 0
1, 16849, Note_on_c, 1, 62, 127
1, 16856, Note_off_c, 1, 71, 0
1, 16862, Note_off_c, 1, 62, 0
1, 16864, Note_on_c, 1, 79, 127
1, 16864, Note_on_c, 1, 64, 127
1, 16890, Note_off_c, 1, 64, 0
1, 16894, Note_on_c, 1, 58, 127
1, 16916, Note_off_c, 1, 79, 0
1, 16920, Note_off_c, 1, 58, 0
1, 16924, Note_on_c, 1, 77, 127
1, 16924, Note_on_c, 1, 57, 127
1, 16950, Note_off_c, 1, 57, 0
1, 16954, Note_on_c, 1, 62, 127
1, 16976, Note_off_c, 1, 77, 0
1, 16980, Note_off_c, 1, 62, 0
1, 16984, Note_on_c, 1, 76, 127
1, 16984, Note_on_c, 1, 61, 127
1, 17010, Note_off_c, 1, 61, 0
1, 17014, Note_on_c, 1, 55, 127
1, 17036, Note_off_c, 1, 76, 0
1, 17044, Note_on_c, 1, 74, 127
1, 17057, Note_off_c, 1, 55, 0
1, 17059, Note_on_c, 1, 67, 127
1, 17072, Note_off_c, 1, 67, 0
1, 17074, Note_on_c, 1, 65, 127
1, 17087, Note_off_c, 1, 65, 0
1, 17089, Note_on_c, 1, 64, 127
1, 17096, Note_off_c, 1, 74, 0
1, 17102, Note_off_c, 1, 64, 0
1, 17104, Note_on_c, 1, 77, 127
1, 17104, Note_on_c, 1, 62, 127
1, 17130, Note_off_c, 1, 62, 0
1, 17134, Note_on_c, 1, 68, 127
1, 17156, Note_off_c, 1, 77, 0
1, 17160, Note_off_c, 1, 68, 0
1, 17164, Note_on_c, 1, 76, 127
1, 17164, Note_on_c, 1, 69, 127
1, 17190, Note_off_c, 1, 69, 0
1, 17194, Note_on_c, 1, 60, 127
1, 17216, Note_off_c, 1, 76, 0
1, 17220, Note_off_c, 1, 60, 0
1, 17224, Note_on_c, 1, 74, 127
1, 17224, Note_on_c, 1, 59, 127
1, 17250, Note_off_c, 1, 59, 0
1, 17254, Note_on_c, 1, 65, 127
1, 17280, Note_off_c, 1, 65, 0
1, 17284, Note_on_c, 1, 64, 127
1, 17297, Note_off_c, 1, 64, 0
1, 17299, Note_on_c, 1, 62, 127
1, 17312, Note_off_c, 1, 62, 0
1, 17314, Note_on_c, 1, 60, 127
1, 17327, Note_off_c, 1, 60, 0
1, 17336, Note_off_c, 1, 74, 0
1, 17344, Note_on_c, 1, 72, 127
1, 17344, Note_on_c, 1, 57, 127
1, 17370, Note_off_c, 1, 72, 0
1, 17370, Note_off_c, 1, 57, 0
1, 17374, Note_on_c, 1, 71, 127
1, 17374, Note_on_c, 1, 56, 127
1, 17400, Note_off_c, 1, 71, 0
1, 17400, Note_off_c, 1, 56, 0
1, 17404, Note_on_c, 1, 72, 127
1, 17404, Note_on_c, 1, 57, 127
1, 17430, Note_off_c, 1, 57, 0
1, 17434, Note_on_c, 1, 53, 127
1, 17456, Note_off_c, 1, 72, 0
1, 17460, Note_off_c, 1, 53, 0
1, 17464, Note_on_c, 1, 73, 127
1, 17464, Note_on_c, 1, 52, 127
1, 17490, Note_off_c, 1, 52, 0
1, 17494, Note_on_c, 1, 58, 127
1, 17516, Note_off_c, 1, 73, 0
1, 17520, Note_off_c, 1, 58, 0
1, 17524, Note_on_c, 1, 74, 127
1, 17524, Note_on_c, 1, 59, 127
1, 17550, Note_off_c, 1, 59, 0
1, 17554, Note_on_c, 1, 55, 127
1, 17576, Note_off_c, 1, 74, 0
1, 17580, Note_off_c, 1, 55, 0
1, 17584, Note_on_c, 1, 75, 127
1, 17584, Note_on_c, 1, 54, 127
1, 17610, Note_off_c, 1, 54, 0
1, 17614, Note_on_c, 1, 60, 127
1, 17636, Note_off_c, 1, 75, 0
1, 17644, Note_on_c, 1, 76, 127
1, 17670, Note_off_c, 1, 60, 0
1, 17674, Note_on_c, 1, 59, 127
1, 17696, Note_off_c, 1, 76, 0
1, 17704, Note_on_c, 1, 78, 127
1, 17726, Note_off_c, 1, 59, 0
1, 17734, Note_on_c, 1, 57, 127
1, 17756, Note_off_c, 1, 78, 0
1, 17760, Note_off_c, 1, 57, 0
1, 17764, Note_on_c, 1, 79, 127
1, 17764, Note_on_c, 1, 64, 127
1, 17777, Note_off_c, 1, 79, 0
1, 17779, Note_on_c, 1, 77, 127
1, 17792, Note_off_c, 1, 77, 0
1, 17794, Note_on_c, 1, 76, 127
1, 17807, Note_off_c, 1, 76, 0
1, 17809, Note_on_c, 1, 74, 127
1, 17816, Note_off_c, 1, 64, 0
1, 17822, Note_off_c, 1, 74, 0
1, 17824, Note_on_c, 1, 73, 127
1, 17824, Note_on_c, 1, 52, 127
1, 17850, Note_off_c, 1, 73, 0
1, 17854, Note_on_c, 1, 80, 127
1, 17876, Note_off_c, 1, 52, 0
1, 17880, Note_off_c, 1, 80, 0
1, 17884, Note_on_c, 1, 81, 127
1, 17884, Note_on_c, 1, 53, 127
1, 17910, Note_off_c, 1, 81, 0
1, 17914, Note_on_c, 1, 75, 127
1, 17936, Note_off_c, 1, 53, 0
1, 17940, Note_off_c, 1, 75, 0
1, 17944, Note_on_c, 1, 74, 127
1, 17944, Note_on_c, 1, 54, 127
1, 17970, Note_off_c, 1, 74, 0
1, 17974, Note_on_c, 1, 82, 127
1, 17996, Note_off_c, 1, 54, 0
1, 18000, Note_off_c, 1, 82, 0
1, 18004, Note_on_c, 1, 83, 127
1, 18004, Note_on_c, 1, 55, 127
1, 18030, Note_off_c, 1, 83, 0
1, 18034, Note_on_c, 1, 77, 127
1, 18056, Note_off_c, 1, 55, 0
1, 18060, Note_off_c, 1, 77, 0
1, 18064, Note_on_c, 1, 76, 127
1, 18064, Note_on_c, 1, 56, 127
1, 18090, Note_off_c, 1, 76, 0
1, 18094, Note_on_c, 1, 74, 127
1, 18116, Note_off_c, 1, 56, 0
1, 18124, Note_on_c, 1, 57, 127
1, 18150, Note_off_c, 1, 74, 0
1, 18154, Note_on_c, 1, 72, 127
1, 18176, Note_off_c, 1, 57, 0
1, 18184, Note_on_c, 1, 59, 127
1, 18206, Note_off_c, 1, 72, 0
1, 18214, Note_on_c, 1, 71, 127
1, 18236, Note_off_c, 1, 59, 0
1, 18244, Note_on_c, 1, 60, 127
1, 18270, Note_off_c, 1, 71, 0
1, 18274, Note_on_c, 1, 69, 127
1, 18287, Note_off_c, 1, 69, 0
1, 18296, Note_off_c, 1, 60, 0
1, 18304, Note_on_c, 1, 72, 127
1, 18304, Note_on_c, 1, 57, 127
1, 18330, Note_off_c, 1, 72, 0
1, 18334, Note_on_c, 1, 63, 127
1, 18356, Note_off_c, 1, 57, 0
1, 18360, Note_off_c, 1, 63, 0
1, 18364, Note_on_c, 1, 64, 127
1, 18364, Note_on_c, 1, 55, 127
1, 18390, Note_off_c, 1, 64, 0
1, 18394, Note_on_c, 1, 73, 127
1, 18416, Note_off_c, 1, 55, 0
1, 18420, Note_off_c, 1, 73, 0
1, 18424, Note_on_c, 1, 74, 127
1, 18424, Note_on_c, 1, 53, 127
1, 18450, Note_off_c, 1, 74, 0
1, 18454, Note_on_c, 1, 65, 127
1, 18476, Note_off_c, 1, 53, 0
1, 18480, Note_off_c, 1, 65, 0
1, 18484, Note_on_c, 1, 67, 127
1, 18484, Note_on_c, 1, 52, 127
1, 18497, Note_off_c, 1, 52, 0
1, 18499, Note_on_c, 1, 53, 127
1, 18512, Note_off_c, 1, 53, 0
1, 18514, Note_on_c, 1, 55, 127
1, 18527, Note_off_c, 1, 55, 0
1, 18529, Note_on_c, 1, 57, 127
1, 18536, Note_off_c, 1, 67, 0
1, 18542, Note_off_c, 1, 57, 0
1, 18544, Note_on_c, 1, 74, 127
1, 18544, Note_on_c, 1, 58, 127
1, 18570, Note_off_c, 1, 58, 0
1, 18574, Note_on_c, 1, 53, 127
1, 18596, Note_off_c, 1, 74, 0
1, 18600, Note_off_c, 1, 53, 0
1, 18604, Note_on_c, 1, 73, 127
1, 18604, Note_on_c, 1, 52, 127
1, 18630, Note_off_c, 1, 52, 0
1, 18634, Note_on_c, 1, 57, 127
1, 18656, Note_off_c, 1, 73, 0
1, 18660, Note_off_c, 1, 57, 0
1, 18664, Note_on_c, 1, 70, 127
1, 18664, Note_on_c, 1, 55, 127
1, 18690, Note_off_c, 1, 55, 0
1, 18694, Note_on_c, 1, 50, 127
1, 18720, Note_off_c, 1, 50, 0
1, 18724, Note_on_c, 1, 49, 127
1, 18737, Note_off_c, 1, 70, 0
1, 18739, Note_on_c, 1, 69, 127
1, 18752, Note_off_c, 1, 69, 0
1, 18754, Note_on_c, 1, 67, 127
1, 18767, Note_off_c, 1, 67, 0
1, 18776, Note_off_c, 1, 49, 0
1, 18784, Note_on_c, 1, 70, 127
1, 18784, Note_on_c, 1, 55, 127
1, 18810, Note_off_c, 1, 70, 0
1, 18814, Note_on_c, 1, 61, 127
1, 18836, Note_off_c, 1, 55, 0
1, 18840, Note_off_c, 1, 61, 0
1, 18844, Note_on_c, 1, 62, 127
1, 18844, Note_on_c, 1, 53, 127
1, 18870, Note_off_c, 1, 62, 0
1, 18874, Note_on_c, 1, 71, 127
1, 18896, Note_off_c, 1, 53, 0
1, 18900, Note_off_c, 1, 71, 0
1, 18904, Note_on_c, 1, 72, 127
1, 18904, Note_on_c, 1, 51, 127
1, 18930, Note_off_c, 1, 72, 0
1, 18934, Note_on_c, 1, 63, 127
1, 18956, Note_off_c, 1, 51, 0
1, 18960, Note_off_c, 1, 63, 0
1, 18964, Note_on_c, 1, 65, 127
1, 18964, Note_on_c, 1, 50, 127
1, 18977, Note_off_c, 1, 50, 0
1, 18979, Note_on_c, 1, 51, 127
1, 18992, Note_off_c, 1, 51, 0
1, 18994, Note_on_c, 1, 53, 127
1, 19007, Note_off_c, 1, 53, 0
1, 19009, Note_on_c, 1, 55, 127
1, 19016, Note_off_c, 1, 65, 0
1, 19022, Note_off_c, 1, 55, 0
1, 19024, Note_on_c, 1, 72, 127
1, 19024, Note_on_c, 1, 56, 127
1, 19050, Note_off_c, 1, 56, 0
1, 19054, Note_on_c, 1, 51, 127
1, 19076, Note_off_c, 1, 72, 0
1, 19080, Note_off_c, 1, 51, 0
1, 19084, Note_on_c, 1, 71, 127
1, 19084, Note_on_c, 1, 50, 127
1, 19110, Note_off_c, 1, 50, 0
1, 19114, Note_on_c, 1, 55, 127
1, 19136, Note_off_c, 1, 71, 0
1, 19140, Note_off_c, 1, 55, 0
1, 19144, Note_on_c, 1, 68, 127
1, 19144, Note_on_c, 1, 53, 127
1, 19170, Note_off_c, 1, 53, 0
1, 19174, Note_on_c, 1, 48, 127
1, 19200, Note_off_c, 1, 48, 0
1, 19204, Note_on_c, 1, 47, 127
1, 19217, Note_off_c, 1, 68, 0
1, 19219, Note_on_c, 1, 67, 127
1, 19232, Note_off_c, 1, 67, 0
1, 19234, Note_on_c, 1, 69, 127
1, 19247, Note_off_c, 1, 69, 0
1, 19249, Note_on_c, 1, 71, 127
1, 19256, Note_off_c, 1, 47, 0
1, 19262, Note_off_c, 1, 71, 0
1, 19264, Note_on_c, 1, 72, 127
1, 19264, Note_on_c, 1, 52, 127
1, 19290, Note_off_c, 1, 72, 0
1, 19294, Note_on_c, 1, 67, 127
1, 19316, Note_off_c, 1, 52, 0
1, 19320, Note_off_c, 1, 67, 0
1, 19324, Note_on_c, 1, 66, 127
1, 19324, Note_on_c, 1, 51, 127
1, 19350, Note_off_c, 1, 66, 0
1, 19354, Note_on_c, 1, 70, 127
1, 19376, Note_off_c, 1, 51, 0
1, 19380, Note_off_c, 1, 70, 0
1, 19384, Note_on_c, 1, 71, 127
1, 19384, Note_on_c, 1, 50, 127
1, 19410, Note_off_c, 1, 71, 0
1, 19414, Note_on_c, 1, 65, 127
1, 19436, Note_off_c, 1, 50, 0
1, 19440, Note_off_c, 1, 65, 0
1, 19444, Note_on_c, 1, 64, 127
1, 19444, Note_on_c, 1, 49, 127
1, 19470, Note_off_c, 1, 64, 0
1, 19474, Note_on_c, 1, 68, 127
1, 19496, Note_off_c, 1, 49, 0
1, 19500, Note_off_c, 1, 68, 0
1, 19504, Note_on_c, 1, 69, 127
1, 19504, Note_on_c, 1, 48, 127
1, 19530, Note_off_c, 1, 69, 0
1, 19534, Note_on_c, 1, 63, 127
1, 19556, Note_off_c, 1, 48, 0
1, 19564, Note_on_c, 1, 47, 127
1, 19590, Note_off_c, 1, 63, 0
1, 19594, Note_on_c, 1, 64, 127
1, 19616, Note_off_c, 1, 47, 0
1, 19624, Note_on_c, 1, 45, 127
1, 19646, Note_off_c, 1, 64, 0
1, 19654, Note_on_c, 1, 65, 127
1, 19680, Note_off_c, 1, 65, 0
1, 19684, Note_on_c, 1, 59, 127
1, 19697, Note_off_c, 1, 45, 0
1, 19736, Note_off_c, 1, 59, 0
1, 19744, Note_on_c, 1, 76, 127
1, 19744, Note_on_c, 1, 44, 127
1, 19770, Note_off_c, 1, 44, 0
1, 19774, Note_on_c, 1, 49, 127
1, 19796, Note_off_c, 1, 76, 0
1, 19800, Note_off_c, 1, 49, 0
1, 19804, Note_on_c, 1, 77, 127
1, 19804, Note_on_c, 1, 50, 127
1, 19830, Note_off_c, 1, 50, 0
1, 19834, Note_on_c, 1, 46, 127
1, 19856, Note_off_c, 1, 77, 0
1, 19860, Note_off_c, 1, 46, 0
1, 19864, Note_on_c, 1, 78, 127
1, 19864, Note_on_c, 1, 45, 127
1, 19890, Note_off_c, 1, 45, 0
1, 19894, Note_on_c, 1, 51, 127
1, 19916, Note_off_c, 1, 78, 0
1, 19920, Note_off_c, 1, 51, 0
1, 19924, Note_on_c, 1, 79, 127
1, 19924, Note_on_c, 1, 52, 127
1, 19950, Note_off_c, 1, 52, 0
1, 19954, Note_on_c, 1, 48, 127
1, 19976, Note_off_c, 1, 79, 0
1, 19980, Note_off_c, 1, 48, 0
1, 19984, Note_on_c, 1, 80, 127
1, 19984, Note_on_c, 1, 47, 127
1, 20010, Note_off_c, 1, 47, 0
1, 20014, Note_on_c, 1, 53, 127
1, 20036, Note_off_c, 1, 80, 0
1, 20044, Note_on_c, 1, 81, 127
1, 20070, Note_off_c, 1, 53, 0
1, 20074, Note_on_c, 1, 52, 127
1, 20096, Note_off_c, 1, 81, 0
1, 20104, Note_on_c, 1, 83, 127
1, 20126, Note_off_c, 1, 52, 0
1, 20134, Note_on_c, 1, 50, 127
1, 20160, Note_off_c, 1, 50, 0
1, 20164, Note_on_c, 1, 48, 127
1, 20190, Note_off_c, 1, 83, 0
1, 20216, Note_off_c, 1, 48, 0
1, 20224, Note_on_c, 1, 84, 127
1, 20224, Note_on_c, 1, 52, 127
1, 20250, Note_off_c, 1, 84, 0
1, 20254, Note_on_c, 1, 76, 127
1, 20276, Note_off_c, 1, 52, 0
1, 20284, Note_on_c, 1, 54, 127
1, 20310, Note_off_c, 1, 76, 0
1, 20314, Note_on_c, 1, 75, 127
1, 20336, Note_off_c, 1, 54, 0
1, 20340, Note_off_c, 1, 75, 0
1, 20344, Note_on_c, 1, 83, 127
1, 20344, Note_on_c, 1, 56, 127
1, 20370, Note_off_c, 1, 83, 0
1, 20374, Note_on_c, 1, 74, 127
1, 20396, Note_off_c, 1, 56, 0
1, 20404, Note_on_c, 1, 57, 127
1, 20417, Note_off_c, 1, 74, 0
1, 20419, Note_on_c, 1, 72, 127
1, 20432, Note_off_c, 1, 72, 0
1, 20449, Note_on_c, 1, 76, 127
1, 20456, Note_off_c, 1, 57, 0
1, 20462, Note_off_c, 1, 76, 0
1, 20464, Note_on_c, 1, 77, 127
1, 20464, Note_on_c, 1, 45, 127
1, 20490, Note_off_c, 1, 77, 0
1, 20494, Note_on_c, 1, 69, 127
1, 20516, Note_off_c, 1, 45, 0
1, 20524, Note_on_c, 1, 47, 127
1, 20550, Note_off_c, 1, 69, 0
1, 20554, Note_on_c, 1, 68, 127
1, 20576, Note_off_c, 1, 47, 0
1, 20580, Note_off_c, 1, 68, 0
1, 20584, Note_on_c, 1, 76, 127
1, 20584, Note_on_c, 1, 49, 127
1, 20610, Note_off_c, 1, 76, 0
1, 20614, Note_on_c, 1, 67, 127
1, 20636, Note_off_c, 1, 49, 0
1, 20644, Note_on_c, 1, 50, 127
1, 20657, Note_off_c, 1, 67, 0
1, 20659, Note_on_c, 1, 65, 127
1, 20672, Note_off_c, 1, 65, 0
1, 20689, Note_on_c, 1, 69, 127
1, 20696, Note_off_c, 1, 50, 0
1, 20702, Note_off_c, 1, 69, 0
1, 20704, Note_on_c, 1, 70, 127
1, 20704, Note_on_c, 1, 38, 127
1, 20730, Note_off_c, 1, 70, 0
1, 20734, Note_on_c, 1, 62, 127
1, 20756, Note_off_c, 1, 38, 0
1, 20764, Note_on_c, 1, 40, 127
1, 20790, Note_off_c, 1, 62, 0
1, 20794, Note_on_c, 1, 61, 127
1, 20816, Note_off_c, 1, 40, 0
1, 20820, Note_off_c, 1, 61, 0
1, 20824, Note_on_c, 1, 69, 127
1, 20824, Note_on_c, 1, 52, 127
1, 20850, Note_off_c, 1, 69, 0
1, 20854, Note_on_c, 1, 60, 127
1, 20876, Note_off_c, 1, 52, 0
1, 20884, Note_on_c, 1, 51, 127
1, 20910, Note_off_c, 1, 60, 0
1, 20914, Note_on_c, 1, 59, 127
1, 20936, Note_off_c, 1, 51, 0
1, 20940, Note_off_c, 1, 59, 0
1, 20944, Note_on_c, 1, 68, 127
1, 20944, Note_on_c, 1, 50, 127
1, 20970, Note_off_c, 1, 68, 0
1, 20974, Note_on_c, 1, 59, 127
1, 20996, Note_off_c, 1, 50, 0
1, 21004, Note_on_c, 1, 49, 127
1, 21030, Note_off_c, 1, 59, 0
1, 21034, Note_on_c, 1, 57, 127
1, 21056, Note_off_c, 1, 49, 0
1, 21060, Note_off_c, 1, 57, 0
1, 21064, Note_on_c, 1, 65, 127
1, 21064, Note_on_c, 1, 48, 127
1, 21090, Note_off_c, 1, 65, 0
1, 21094, Note_on_c, 1, 57, 127
1, 21116, Note_off_c, 1, 48, 0
1, 21124, Note_on_c, 1, 47, 127
1, 21150, Note_off_c, 1, 57, 0
1, 21154, Note_on_c, 1, 56, 127
1, 21167, Note_off_c, 1, 56, 0
1, 21169, Note_on_c, 1, 54, 127
1, 21176, Note_off_c, 1, 47, 0
1, 21182, Note_off_c, 1, 54, 0
1, 21184, Note_on_c, 1, 56, 127
1, 21184, Note_on_c, 1, 47, 127
1, 21210, Note_off_c, 1, 56, 0
1, 21214, Note_on_c, 1, 62, 127
1, 21236, Note_off_c, 1, 47, 0
1, 21244, Note_on_c, 1, 45, 127
1, 21257, Note_off_c, 1, 62, 0
1, 21259, Note_on_c, 1, 60, 127
1, 21272, Note_off_c, 1, 60, 0
1, 21274, Note_on_c, 1, 59, 127
1, 21287, Note_off_c, 1, 59, 0
1, 21289, Note_on_c, 1, 57, 127
1, 21296, Note_off_c, 1, 45, 0
1, 21302, Note_off_c, 1, 57, 0
1, 21304, Note_on_c, 1, 59, 127
1, 21304, Note_on_c, 1, 45, 127
1, 21330, Note_off_c, 1, 59, 0
1, 21334, Note_on_c, 1, 65, 127
1, 21356, Note_off_c, 1, 45, 0
1, 21364, Note_on_c, 1, 44, 127
1, 21377, Note_off_c, 1, 65, 0
1, 21379, Note_on_c, 1, 64, 127
1, 21392, Note_off_c, 1, 64, 0
1, 21394, Note_on_c, 1, 62, 127
1, 21407, Note_off_c, 1, 62, 0
1, 21409, Note_on_c, 1, 61, 127
1, 21416, Note_off_c, 1, 44, 0
1, 21422, Note_off_c, 1, 61, 0
1, 21424, Note_on_c, 1, 62, 127
1, 21424, Note_on_c, 1, 44, 127
1, 21450, Note_off_c, 1, 62, 0
1, 21454, Note_on_c, 1, 71, 127
1, 21476, Note_off_c, 1, 44, 0
1, 21484, Note_on_c, 1, 40, 127
1, 21497, Note_off_c, 1, 71, 0
1, 21499, Note_on_c, 1, 69, 127
1, 21512, Note_off_c, 1, 69, 0
1, 21514, Note_on_c, 1, 68, 127
1, 21527, Note_off_c, 1, 68, 0
1, 21529, Note_on_c, 1, 66, 127
1, 21536, Note_off_c, 1, 40, 0
1, 21542, Note_off_c, 1, 66, 0
1, 21544, Note_on_c, 1, 68, 127
1, 21544, Note_on_c, 1, 40, 127
1, 21570, Note_off_c, 1, 68, 0
1, 21574, Note_on_c, 1, 74, 127
1, 21596, Note_off_c, 1, 40, 0
1, 21604, Note_on_c, 1, 45, 127
1, 21630, Note_off_c, 1, 74, 0
1, 21634, Note_on_c, 1, 72, 127
1, 21647, Note_off_c, 1, 72, 0
1, 21649, Note_on_c, 1, 71, 127
1, 21662, Note_off_c, 1, 71, 0
1, 21677, Note_off_c, 1, 45, 0
1, 21679, Note_on_c, 1, 50, 127
1, 21692, Note_off_c, 1, 50, 0
1, 21694, Note_on_c, 1, 69, 127
1, 21694, Note_on_c, 1, 52, 127
1, 21707, Note_off_c, 1, 52, 0
1, 21709, Note_on_c, 1, 54, 127
1, 21720, Note_off_c, 1, 69, 0
1, 21722, Note_off_c, 1, 54, 0
1, 21724, Note_on_c, 1, 70, 127
1, 21724, Note_on_c, 1, 55, 127
1, 21750, Note_off_c, 1, 55, 0
1, 21754, Note_on_c, 1, 51, 127
1, 21776, Note_off_c, 1, 70, 0
1, 21780, Note_off_c, 1, 51, 0
1, 21784, Note_on_c, 1, 71, 127
1, 21784, Note_on_c, 1, 50, 127
1, 21810, Note_off_c, 1, 50, 0
1, 21814, Note_on_c, 1, 56, 127
1, 21836, Note_off_c, 1, 71, 0
1, 21840, Note_off_c, 1, 56, 0
1, 21844, Note_on_c, 1, 72, 127
1, 21844, Note_on_c, 1, 57, 127
1, 21870, Note_off_c, 1, 57, 0
1, 21874, Note_on_c, 1, 53, 127
1, 21896, Note_off_c, 1, 72, 0
1, 21900, Note_off_c, 1, 53, 0
1, 21904, Note_on_c, 1, 73, 127
1, 21904, Note_on_c, 1, 52, 127
1, 21930, Note_off_c, 1, 52, 0
1, 21934, Note_on_c, 1, 58, 127
1, 21956, Note_off_c, 1, 73, 0
1, 21964, Note_on_c, 1, 74, 127
1, 21990, Note_off_c, 1, 58, 0
1, 21994, Note_on_c, 1, 57, 127
1, 22016, Note_off_c, 1, 74, 0
1, 22024, Note_on_c, 1, 76, 127
1, 22046, Note_off_c, 1, 57, 0
1, 22054, Note_on_c, 1, 55, 127
1, 22080, Note_off_c, 1, 55, 0
1, 22084, Note_on_c, 1, 53, 127
1, 22097, Note_off_c, 1, 76, 0
1, 22097, Note_off_c, 1, 53, 0
1, 22099, Note_on_c, 1, 73, 127
1, 22099, Note_on_c, 1, 52, 127
1, 22112, Note_off_c, 1, 73, 0
1, 22112, Note_off_c, 1, 52, 0
1, 22114, Note_on_c, 1, 74, 127
1, 22114, Note_on_c, 1, 53, 127
1, 22127, Note_off_c, 1, 74, 0
1, 22127, Note_off_c, 1, 53, 0
1, 22129, Note_on_c, 1, 76, 127
1, 22129, Note_on_c, 1, 55, 127
1, 22142, Note_off_c, 1, 76, 0
1, 22142, Note_off_c, 1, 55, 0
1, 22144, Note_on_c, 1, 77, 127
1, 22144, Note_on_c, 1, 57, 127
1, 22170, Note_off_c, 1, 77, 0
1, 22174, Note_on_c, 1, 72, 127
1, 22196, Note_off_c, 1, 57, 0
1, 22200, Note_off_c, 1, 72, 0
1, 22204, Note_on_c, 1, 71, 127
1, 22204, Note_on_c, 1, 56, 127
1, 22230, Note_off_c, 1, 71, 0
1, 22234, Note_on_c, 1, 75, 127
1, 22256, Note_off_c, 1, 56, 0
1, 22260, Note_off_c, 1, 75, 0
1, 22264, Note_on_c, 1, 76, 127
1, 22264, Note_on_c, 1, 55, 127
1, 22290, Note_off_c, 1, 76, 0
1, 22294, Note_on_c, 1, 70, 127
1, 22316, Note_off_c, 1, 55, 0
1, 22320, Note_off_c, 1, 70, 0
1, 22324, Note_on_c, 1, 69, 127
1, 22324, Note_on_c, 1, 54, 127
1, 22350, Note_off_c, 1, 69, 0
1, 22354, Note_on_c, 1, 73, 127
1, 22376, Note_off_c, 1, 54, 0
1, 22380, Note_off_c, 1, 73, 0
1, 22384, Note_on_c, 1, 74, 127
1, 22384, Note_on_c, 1, 53, 127
1, 22410, Note_off_c, 1, 74, 0
1, 22414, Note_on_c, 1, 68, 127
1, 22436, Note_off_c, 1, 53, 0
1, 22444, Note_on_c, 1, 52, 127
1, 22470, Note_off_c, 1, 68, 0
1, 22474, Note_on_c, 1, 69, 127
1, 22496, Note_off_c, 1, 52, 0
1, 22504, Note_on_c, 1, 50, 127
1, 22526, Note_off_c, 1, 69, 0
1, 22534, Note_on_c, 1, 71, 127
1, 22560, Note_off_c, 1, 71, 0
1, 22564, Note_on_c, 1, 64, 127
1, 22590, Note_off_c, 1, 50, 0
1, 22590, Note_off_c, 1, 64, 0
1, 22594, Note_on_c, 1, 76, 127
1, 22594, Note_on_c, 1, 48, 127
1, 22607, Note_off_c, 1, 48, 0
1, 22609, Note_on_c, 1, 47, 127
1, 22622, Note_off_c, 1, 47, 0
1, 22633, Note_off_c, 1, 76, 0
1, 22639, Note_on_c, 1, 74, 127
1, 22652, Note_off_c, 1, 74, 0
1, 22654, Note_on_c, 1, 72, 127
1, 22654, Note_on_c, 1, 45, 127
1, 22667, Note_off_c, 1, 72, 0
1, 22669, Note_on_c, 1, 71, 127
1, 22680, Note_off_c, 1, 45, 0
1, 22682, Note_off_c, 1, 71, 0
1, 22684, Note_on_c, 1, 74, 127
1, 22684, Note_on_c, 1, 52, 127
1, 22697, Note_off_c, 1, 74, 0
1, 22699, Note_on_c, 1, 72, 127
1, 22712, Note_off_c, 1, 72, 0
1, 22714, Note_on_c, 1, 71, 127
1, 22727, Note_off_c, 1, 71, 0
1, 22729, Note_on_c, 1, 69, 127
1, 22736, Note_off_c, 1, 52, 0
1, 22742, Note_off_c, 1, 69, 0
1, 22744, Note_on_c, 1, 72, 127
1, 22744, Note_on_c, 1, 40, 127
1, 22757, Note_off_c, 1, 72, 0
1, 22759, Note_on_c, 1, 71, 127
1, 22772, Note_off_c, 1, 71, 0
1, 22774, Note_on_c, 1, 69, 127
1, 22787, Note_off_c, 1, 69, 0
1, 22789, Note_on_c, 1, 68, 127
1, 22796, Note_off_c, 1, 40, 0
1, 22802, Note_off_c, 1, 68, 0
1, 22804, Note_on_c, 1, 69, 127
1, 22804, Note_on_c, 1, 45, 127
1, 22830, Note_off_c, 1, 45, 0
1, 22834, Note_on_c, 1, 47, 127
1, 22847, Note_off_c, 1, 47, 0
1, 22849, Note_on_c, 1, 48, 127
1, 22862, Note_off_c, 1, 48, 0
1, 22864, Note_on_c, 1, 50, 127
1, 22877, Note_off_c, 1, 50, 0
1, 22879, Note_on_c, 1, 52, 127
1, 22892, Note_off_c, 1, 52, 0
1, 22894, Note_on_c, 1, 54, 127
1, 22907, Note_off_c, 1, 54, 0
1, 22909, Note_on_c, 1, 56, 127
1, 22922, Note_off_c, 1, 56, 0
1, 22924, Note_on_c, 1, 57, 127
1, 22976, Note_off_c, 1, 57, 0
1, 23029, Note_off_c, 1, 69, 0
1, 23044, Note_on_c, 1, 76, 127
1, 23059, Note_on_c, 1, 60, 127
1, 23072, Note_off_c, 1, 60, 0
1, 23074, Note_on_c, 1, 59, 127
1, 23087, Note_off_c, 1, 59, 0
1, 23089, Note_on_c, 1, 57, 127
1, 23096, Note_off_c, 1, 76, 0
1, 23102, Note_off_c, 1, 57, 0
1, 23104, Note_on_c, 1, 64, 127
1, 23104, Note_on_c, 1, 56, 127
1, 23130, Note_off_c, 1, 56, 0
1, 23134, Note_on_c, 1, 61, 127
1, 23156, Note_off_c, 1, 64, 0
1, 23160, Note_off_c, 1, 61, 0
1, 23164, Note_on_c, 1, 65, 127
1, 23164, Note_on_c, 1, 62, 127
1, 23190, Note_off_c, 1, 62, 0
1, 23194, Note_on_c, 1, 58, 127
1, 23216, Note_off_c, 1, 65, 0
1, 23220, Note_off_c, 1, 58, 0
1, 23224, Note_on_c, 1, 66, 127
1, 23224, Note_on_c, 1, 57, 127
1, 23250, Note_off_c, 1, 57, 0
1, 23254, Note_on_c, 1, 63, 127
1, 23276, Note_off_c, 1, 66, 0
1, 23280, Note_off_c, 1, 63, 0
1, 23284, Note_on_c, 1, 67, 127
1, 23284, Note_on_c, 1, 64, 127
1, 23310, Note_off_c, 1, 64, 0
1, 23314, Note_on_c, 1, 60, 127
1, 23336, Note_off_c, 1, 67, 0
1, 23340, Note_off_c, 1, 60, 0
1, 23344, Note_on_c, 1, 68, 127
1, 23344, Note_on_c, 1, 59, 127
1, 23370, Note_off_c, 1, 59, 0
1, 23374, Note_on_c, 1, 65, 127
1, 23396, Note_off_c, 1, 68, 0
1, 23404, Note_on_c, 1, 69, 127
1, 23430, Note_off_c, 1, 65, 0
1, 23434, Note_on_c, 1, 64, 127
1, 23456, Note_off_c, 1, 69, 0
1, 23464, Note_on_c, 1, 71, 127
1, 23486, Note_off_c, 1, 64, 0
1, 23494, Note_on_c, 1, 62, 127
1, 23516, Note_off_c, 1, 71, 0
1, 23520, Note_off_c, 1, 62, 0
1, 23524, Note_on_c, 1, 72, 127
1, 23524, Note_on_c, 1, 69, 127
1, 23537, Note_off_c, 1, 72, 0
1, 23539, Note_on_c, 1, 77, 127
1, 23552, Note_off_c, 1, 77, 0
1, 23554, Note_on_c, 1, 76, 127
1, 23567, Note_off_c, 1, 76, 0
1, 23569, Note_on_c, 1, 74, 127
1, 23576, Note_off_c, 1, 69, 0
1, 23582, Note_off_c, 1, 74, 0
1, 23584, Note_on_c, 1, 73, 127
1, 23584, Note_on_c, 1, 57, 127
1, 23610, Note_off_c, 1, 73, 0
1, 23614, Note_on_c, 1, 78, 127
1, 23636, Note_off_c, 1, 57, 0
1, 23640, Note_off_c, 1, 78, 0
1, 23644, Note_on_c, 1, 79, 127
1, 23644, Note_on_c, 1, 58, 127
1, 23670, Note_off_c, 1, 79, 0
1, 23674, Note_on_c, 1, 75, 127
1, 23696, Note_off_c, 1, 58, 0
1, 23700, Note_off_c, 1, 75, 0
1, 23704, Note_on_c, 1, 74, 127
1, 23704, Note_on_c, 1, 59, 127
1, 23730, Note_off_c, 1, 74, 0
1, 23734, Note_on_c, 1, 80, 127
1, 23756, Note_off_c, 1, 59, 0
1, 23760, Note_off_c, 1, 80, 0
1, 23764, Note_on_c, 1, 81, 127
1, 23764, Note_on_c, 1, 60, 127
1, 23790, Note_off_c, 1, 81, 0
1, 23794, Note_on_c, 1, 77, 127
1, 23816, Note_off_c, 1, 60, 0
1, 23820, Note_off_c, 1, 77, 0
1, 23824, Note_on_c, 1, 76, 127
1, 23824, Note_on_c, 1, 61, 127
1, 23850, Note_off_c, 1, 76, 0
1, 23854, Note_on_c, 1, 82, 127
1, 23876, Note_off_c, 1, 61, 0
1, 23884, Note_on_c, 1, 62, 127
1, 23910, Note_off_c, 1, 82, 0
1, 23914, Note_on_c, 1, 81, 127
1, 23936, Note_off_c, 1, 62, 0
1, 23944, Note_on_c, 1, 64, 127
1, 23966, Note_off_c, 1, 81, 0
1, 23974, Note_on_c, 1, 80, 127
1, 23996, Note_off_c, 1, 64, 0
1, 24000, Note_off_c, 1, 80, 0
1, 24004, Note_on_c, 1, 81, 127
1, 24004, Note_on_c, 1, 65, 127
1, 24017, Note_off_c, 1, 81, 0
1, 24019, Note_on_c, 1, 79, 127
1, 24032, Note_off_c, 1, 79, 0
1, 24034, Note_on_c, 1, 77, 127
1, 24047, Note_off_c, 1, 77, 0
1, 24049, Note_on_c, 1, 76, 127
1, 24056, Note_off_c, 1, 65, 0
1, 24062, Note_off_c, 1, 76, 0
1, 24064, Note_on_c, 1, 77, 127
1, 24064, Note_on_c, 1, 62, 127
1, 24090, Note_off_c, 1, 77, 0
1, 24094, Note_on_c, 1, 70, 127
1, 24116, Note_off_c, 1, 62, 0
1, 24120, Note_off_c, 1, 70, 0
1, 24124, Note_on_c, 1, 69, 127
1, 24124, Note_on_c, 1, 60, 127
1, 24150, Note_off_c, 1, 69, 0
1, 24154, Note_on_c, 1, 76, 127
1, 24176, Note_off_c, 1, 60, 0
1, 24180, Note_off_c, 1, 76, 0
1, 24184, Note_on_c, 1, 74, 127
1, 24184, Note_on_c, 1, 59, 127
1, 24210, Note_off_c, 1, 74, 0
1, 24214, Note_on_c, 1, 68, 127
1, 24236, Note_off_c, 1, 59, 0
1, 24244, Note_on_c, 1, 57, 127
1, 24257, Note_off_c, 1, 68, 0
1, 24274, Note_on_c, 1, 72, 127
1, 24287, Note_off_c, 1, 72, 0
1, 24289, Note_on_c, 1, 71, 127
1, 24296, Note_off_c, 1, 57, 0
1, 24302, Note_off_c, 1, 71, 0
1, 24304, Note_on_c, 1, 69, 127
1, 24304, Note_on_c, 1, 60, 127
1, 24330, Note_off_c, 1, 69, 0
1, 24334, Note_on_c, 1, 76, 127
1, 24356, Note_off_c, 1, 60, 0
1, 24360, Note_off_c, 1, 76, 0
1, 24364, Note_on_c, 1, 74, 127
1, 24364, Note_on_c, 1, 59, 127
1, 24390, Note_off_c, 1, 74, 0
1, 24394, Note_on_c, 1, 67, 127
1, 24416, Note_off_c, 1, 59, 0
1, 24420, Note_off_c, 1, 67, 0
1, 24424, Note_on_c, 1, 66, 127
1, 24424, Note_on_c, 1, 57, 127
1, 24450, Note_off_c, 1, 66, 0
1, 24454, Note_on_c, 1, 72, 127
1, 24476, Note_off_c, 1, 57, 0
1, 24480, Note_off_c, 1, 72, 0
1, 24484, Note_on_c, 1, 71, 127
1, 24484, Note_on_c, 1, 55, 127
1, 24497, Note_off_c, 1, 55, 0
1, 24499, Note_on_c, 1, 59, 127
1, 24512, Note_off_c, 1, 59, 0
1, 24514, Note_on_c, 1, 60, 127
1, 24527, Note_off_c, 1, 60, 0
1, 24529, Note_on_c, 1, 62, 127
1, 24536, Note_off_c, 1, 71, 0
1, 24542, Note_off_c, 1, 62, 0
1, 24544, Note_on_c, 1, 79, 127
1, 24544, Note_on_c, 1, 64, 127
1, 24570, Note_off_c, 1, 64, 0
1, 24574, Note_on_c, 1, 58, 127
1, 24596, Note_off_c, 1, 79, 0
1, 24600, Note_off_c, 1, 58, 0
1, 24604, Note_on_c, 1, 77, 127
1, 24604, Note_on_c, 1, 57, 127
1, 24630, Note_off_c, 1, 57, 0
1, 24634, Note_on_c, 1, 62, 127
1, 24656, Note_off_c, 1, 77, 0
1, 24660, Note_off_c, 1, 62, 0
1, 24664, Note_on_c, 1, 76, 127
1, 24664, Note_on_c, 1, 61, 127
1, 24690, Note_off_c, 1, 61, 0
1, 24694, Note_on_c, 1, 55, 127
1, 24716, Note_off_c, 1, 76, 0
1, 24724, Note_on_c, 1, 74, 127
1, 24737, Note_off_c, 1, 55, 0
1, 24739, Note_on_c, 1, 67, 127
1, 24752, Note_off_c, 1, 67, 0
1, 24754, Note_on_c, 1, 65, 127
1, 24767, Note_off_c, 1, 65, 0
1, 24769, Note_on_c, 1, 64, 127
1, 24776, Note_off_c, 1, 74, 0
1, 24782, Note_off_c, 1, 64, 0
1, 24784, Note_on_c, 1, 77, 127
1, 24784, Note_on_c, 1, 62, 127
1, 24810, Note_off_c, 1, 62, 0
1, 24814, Note_on_c, 1, 68, 127
1, 24836, Note_off_c, 1, 77, 0
1, 24840, Note_off_c, 1, 68, 0
1, 24844, Note_on_c, 1, 76, 127
1, 24844, Note_on_c, 1, 69, 127
1, 24870, Note_off_c, 1, 69, 0
1, 24874, Note_on_c, 1, 60, 127
1, 24896, Note_off_c, 1, 76, 0
1, 24900, Note_off_c, 1, 60, 0
1, 24904, Note_on_c, 1, 74, 127
1, 24904, Note_on_c, 1, 59, 127
1, 24930, Note_off_c, 1, 59, 0
1, 24934, Note_on_c, 1, 65, 127
1, 24960, Note_off_c, 1, 65, 0
1, 24964, Note_on_c, 1, 64, 127
1, 24977, Note_off_c, 1, 64, 0
1, 24979, Note_on_c, 1, 62, 127
1, 24992, Note_off_c, 1, 62, 0
1, 24994, Note_on_c, 1, 60, 127
1, 25007, Note_off_c, 1, 60, 0
1, 25016, Note_off_c, 1, 74, 0
1, 25024, Note_on_c, 1, 72, 127
1, 25024, Note_on_c, 1, 57, 127
1, 25050, Note_off_c, 1, 72, 0
1, 25050, Note_off_c, 1, 57, 0
1, 25054, Note_on_c, 1, 71, 127
1, 25054, Note_on_c, 1, 56, 127
1, 25080, Note_off_c, 1, 71, 0
1, 25080, Note_off_c, 1, 56, 0
1, 25084, Note_on_c, 1, 72, 127
1, 25084, Note_on_c, 1, 57, 127
1, 25110, Note_off_c, 1, 57, 0
1, 25114, Note_on_c, 1, 53, 127
1, 25136, Note_off_c, 1, 72, 0
1, 25140, Note_off_c, 1, 53, 0
1, 25144, Note_on_c, 1, 73, 127
1, 25144, Note_on_c, 1, 52, 127
1, 25170, Note_off_c, 1, 52, 0
1, 25174, Note_on_c, 1, 58, 127
1, 25196, Note_off_c, 1, 73, 0
1, 25200, Note_off_c, 1, 58, 0
1, 25204, Note_on_c, 1, 74, 127
1, 25204, Note_on_c, 1, 59, 127
1, 25230, Note_off_c, 1, 59, 0
1, 25234, Note_on_c, 1, 55, 127
1, 25256, Note_off_c, 1, 74, 0
1, 25260, Note_off_c, 1, 55, 0
1, 25264, Note_on_c, 1, 75, 127
1, 25264, Note_on_c, 1, 54, 127
1, 25290, Note_off_c, 1, 54, 0
1, 25294, Note_on_c, 1, 60, 127
1, 25316, Note_off_c, 1, 75, 0
1, 25324, Note_on_c, 1, 76, 127
1, 25350, Note_off_c, 1, 60, 0
1, 25354, Note_on_c, 1, 59, 127
1, 25376, Note_off_c, 1, 76, 0
1, 25384, Note_on_c, 1, 78, 127
1, 25406, Note_off_c, 1, 59, 0
1, 25414, Note_on_c, 1, 57, 127
1, 25436, Note_off_c, 1, 78, 0
1, 25440, Note_off_c, 1, 57, 0
1, 25444, Note_on_c, 1, 79, 127
1, 25444, Note_on_c, 1, 64, 127
1, 25457, Note_off_c, 1, 79, 0
1, 25459, Note_on_c, 1, 77, 127
1, 25472, Note_off_c, 1, 77, 0
1, 25474, Note_on_c, 1, 76, 127
1, 25487, Note_off_c, 1, 76, 0
1, 25489, Note_on_c, 1, 74, 127
1, 25496, Note_off_c, 1, 64, 0
1, 25502, Note_off_c, 1, 74, 0
1, 25504, Note_on_c, 1, 73, 127
1, 25504, Note_on_c, 1, 52, 127
1, 25530, Note_off_c, 1, 73, 0
1, 25534, Note_on_c, 1, 80, 127
1, 25556, Note_off_c, 1, 52, 0
1, 25560, Note_off_c, 1, 80, 0
1, 25564, Note_on_c, 1, 81, 127
1, 25564, Note_on_c, 1, 53, 127
1, 25590, Note_off_c, 1, 81, 0
1, 25594, Note_on_c, 1, 75, 127
1, 25616, Note_off_c, 1, 53, 0
1, 25620, Note_off_c, 1, 75, 0
1, 25624, Note_on_c, 1, 74, 127
1, 25624, Note_on_c, 1, 54, 127
1, 25650, Note_off_c, 1, 74, 0
1, 25654, Note_on_c, 1, 82, 127
1, 25676, Note_off_c, 1, 54, 0
1, 25680, Note_off_c, 1, 82, 0
1, 25684, Note_on_c, 1, 83, 127
1, 25684, Note_on_c, 1, 55, 127
1, 25710, Note_off_c, 1, 83, 0
1, 25714, Note_on_c, 1, 77, 127
1, 25736, Note_off_c, 1, 55, 0
1, 25740, Note_off_c, 1, 77, 0
1, 25744, Note_on_c, 1, 76, 127
1, 25744, Note_on_c, 1, 56, 127
1, 25770, Note_off_c, 1, 76, 0
1, 25774, Note_on_c, 1, 74, 127
1, 25796, Note_off_c, 1, 56, 0
1, 25804, Note_on_c, 1, 57, 127
1, 25830, Note_off_c, 1, 74, 0
1, 25834, Note_on_c, 1, 72, 127
1, 25856, Note_off_c, 1, 57, 0
1, 25864, Note_on_c, 1, 59, 127
1, 25886, Note_off_c, 1, 72, 0
1, 25894, Note_on_c, 1, 71, 127
1, 25916, Note_off_c, 1, 59, 0
1, 25924, Note_on_c, 1, 60, 127
1, 25950, Note_off_c, 1, 71, 0
1, 25954, Note_on_c, 1, 69, 127
1, 25967, Note_off_c, 1, 69, 0
1, 25976, Note_off_c, 1, 60, 0
1, 25984, Note_on_c, 1, 72, 127
1, 25984, Note_on_c, 1, 57, 127
1, 26010, Note_off_c, 1, 72, 0
1, 26014, Note_on_c, 1, 63, 127
1, 26036, Note_off_c, 1, 57, 0
1, 26040, Note_off_c, 1, 63, 0
1, 26044, Note_on_c, 1, 64, 127
1, 26044, Note_on_c, 1, 55, 127
1, 26070, Note_off_c, 1, 64, 0
1, 26074, Note_on_c, 1, 73, 127
1, 26096, Note_off_c, 1, 55, 0
1, 26100, Note_off_c, 1, 73, 0
1, 26104, Note_on_c, 1, 74, 127
1, 26104, Note_on_c, 1, 53, 127
1, 26130, Note_off_c, 1, 74, 0
1, 26134, Note_on_c, 1, 65, 127
1, 26156, Note_off_c, 1, 53, 0
1, 26160, Note_off_c, 1, 65, 0
1, 26164, Note_on_c, 1, 67, 127
1, 26164, Note_on_c, 1, 52, 127
1, 26177, Note_off_c, 1, 52, 0
1, 26179, Note_on_c, 1, 53, 127
1, 26192, Note_off_c, 1, 53, 0
1, 26194, Note_on_c, 1, 55, 127
1, 26207, Note_off_c, 1, 55, 0
1, 26209, Note_on_c, 1, 57, 127
1, 26216, Note_off_c, 1, 67, 0
1, 26222, Note_off_c, 1, 57, 0
1, 26224, Note_on_c, 1, 74, 127
1, 26224, Note_on_c, 1, 58, 127
1, 26250, Note_off_c, 1, 58, 0
1, 26254, Note_on_c, 1, 53, 127
1, 26276, Note_off_c, 1, 74, 0
1, 26280, Note_off_c, 1, 53, 0
1, 26284, Note_on_c, 1, 73, 127
1, 26284, Note_on_c, 1, 52, 127
1, 26310, Note_off_c, 1, 52, 0
1, 26314, Note_on_c, 1, 57, 127
1, 26336, Note_off_c, 1, 73, 0
1, 26340, Note_off_c, 1, 57, 0
1, 26344, Note_on_c, 1, 70, 127
1, 26344, Note_on_c, 1, 55, 127
1, 26370, Note_off_c, 1, 55, 0
1, 26374, Note_on_c, 1, 50, 127
1, 26400, Note_off_c, 1, 50, 0
1, 26404, Note_on_c, 1, 49, 127
1, 26417, Note_off_c, 1, 70, 0
1, 26419, Note_on_c, 1, 69, 127
1, 26432, Note_off_c, 1, 69, 0
1, 26434, Note_on_c, 1, 67, 127
1, 26447, Note_off_c, 1, 67, 0
1, 26456, Note_off_c, 1, 49, 0
1, 26464, Note_on_c, 1, 70, 127
1, 26464, Note_on_c, 1, 55, 127
1, 26490, Note_off_c, 1, 70, 0
1, 26494, Note_on_c, 1, 61, 127
1, 26516, Note_off_c, 1, 55, 0
1, 26520, Note_off_c, 1, 61, 0
1, 26524, Note_on_c, 1, 62, 127
1, 26524, Note_on_c, 1, 53, 127
1, 26550, Note_off_c, 1, 62, 0
1, 26554, Note_on_c, 1, 71, 127
1, 26576, Note_off_c, 1, 53, 0
1, 26580, Note_off_c, 1, 71, 0
1, 26584, Note_on_c, 1, 72, 127
1, 26584, Note_on_c, 1, 51, 127
1, 26610, Note_off_c, 1, 72, 0
1, 26614, Note_on_c, 1, 63, 127
1, 26636, Note_off_c, 1, 51, 0
1, 26640, Note_off_c, 1, 63, 0
1, 26644, Note_on_c, 1, 65, 127
1, 26644, Note_on_c, 1, 50, 127
1, 26657, Note_off_c, 1, 50, 0
1, 26659, Note_on_c, 1, 51, 127
1, 26672, Note_off_c, 1, 51, 0
1, 26674, Note_on_c, 1, 53, 127
1, 26687, Note_off_c, 1, 53, 0
1, 26689, Note_on_c, 1, 55, 127
1, 26696, Note_off_c, 1, 65, 0
1, 26702, Note_off_c, 1, 55, 0
1, 26704, Note_on_c, 1, 72, 127
1, 26704, Note_on_c, 1, 56, 127
1, 26730, Note_off_c, 1, 56, 0
1, 26734, Note_on_c, 1, 51, 127
1, 26756, Note_off_c, 1, 72, 0
1, 26760, Note_off_c, 1, 51, 0
1, 26764, Note_on_c, 1, 71, 127
1, 26764, Note_on_c, 1, 50, 127
1, 26790, Note_off_c, 1, 50, 0
1, 26794, Note_on_c, 1, 55, 127
1, 26816, Note_off_c, 1, 71, 0
1, 26820, Note_off_c, 1, 55, 0
1, 26824, Note_on_c, 1, 68, 127
1, 26824, Note_on_c, 1, 53, 127
1, 26850, Note_off_c, 1, 53, 0
1, 26854, Note_on_c, 1, 48, 127
1, 26880, Note_off_c, 1, 48, 0
1, 26884, Note_on_c, 1, 47, 127
1, 26897, Note_off_c, 1, 68, 0
1, 26899, Note_on_c, 1, 67, 127
1, 26912, Note_off_c, 1, 67, 0
1, 26914, Note_on_c, 1, 69, 127
1, 26927, Note_off_c, 1, 69, 0
1, 26929, Note_on_c, 1, 71, 127
1, 26936, Note_off_c, 1, 47, 0
1, 26942, Note_off_c, 1, 71, 0
1, 26944, Note_on_c, 1, 72, 127
1, 26944, Note_on_c, 1, 52, 127
1, 26970, Note_off_c, 1, 72, 0
1, 26974, Note_on_c, 1, 67, 127
1, 26996, Note_off_c, 1, 52, 0
1, 27000, Note_off_c, 1, 67, 0
1, 27004, Note_on_c, 1, 66, 127
1, 27004, Note_on_c, 1, 51, 127
1, 27030, Note_off_c, 1, 66, 0
1, 27034, Note_on_c, 1, 70, 127
1, 27056, Note_off_c, 1, 51, 0
1, 27060, Note_off_c, 1, 70, 0
1, 27064, Note_on_c, 1, 71, 127
1, 27064, Note_on_c, 1, 50, 127
1, 27090, Note_off_c, 1, 71, 0
1, 27094, Note_on_c, 1, 65, 127
1, 27116, Note_off_c, 1, 50, 0
1, 27120, Note_off_c, 1, 65, 0
1, 27124, Note_on_c, 1, 64, 127
1, 27124, Note_on_c, 1, 49, 127
1, 27150, Note_off_c, 1, 64, 0
1, 27154, Note_on_c, 1, 68, 127
1, 27176, Note_off_c, 1, 49, 0
1, 27180, Note_off_c, 1, 68, 0
1, 27184, Note_on_c, 1, 69, 127
1, 27184, Note_on_c, 1, 48, 127
1, 27210, Note_off_c, 1, 69, 0
1, 27214, Note_on_c, 1, 63, 127
1, 27236, Note_off_c, 1, 48, 0
1, 27244, Note_on_c, 1, 47, 127
1, 27270, Note_off_c, 1, 63, 0
1, 27274, Note_on_c, 1, 64, 127
1, 27296, Note_off_c, 1, 47, 0
1, 27304, Note_on_c, 1, 45, 127
1, 27326, Note_off_c, 1, 64, 0
1, 27334, Note_on_c, 1, 65, 127
1, 27360, Note_off_c, 1, 65, 0
1, 27364, Note_on_c, 1, 59, 127
1, 27377, Note_off_c, 1, 45, 0
1, 27416, Note_off_c, 1, 59, 0
1, 27424, Note_on_c, 1, 76, 127
1, 27424, Note_on_c, 1, 44, 127
1, 27450, Note_off_c, 1, 44, 0
1, 27454, Note_on_c, 1, 49, 127
1, 27476, Note_off_c, 1, 76, 0
1, 27480, Note_off_c, 1, 49, 0
1, 27484, Note_on_c, 1, 77, 127
1, 27484, Note_on_c, 1, 50, 127
1, 27510, Note_off_c, 1, 50, 0
1, 27514, Note_on_c, 1, 46, 127
1, 27536, Note_off_c, 1, 77, 0
1, 27540, Note_off_c, 1, 46, 0
1, 27544, Note_on_c, 1, 78, 127
1, 27544, Note_on_c, 1, 45, 127
1, 27570, Note_off_c, 1, 45, 0
1, 27574, Note_on_c, 1, 51, 127
1, 27596, Note_off_c, 1, 78, 0
1, 27600, Note_off_c, 1, 51, 0
1, 27604, Note_on_c, 1, 79, 127
1, 27604, Note_on_c, 1, 52, 127
1, 27630, Note_off_c, 1, 52, 0
1, 27634, Note_on_c, 1, 48, 127
1, 27656, Note_off_c, 1, 79, 0
1, 27660, Note_off_c, 1, 48, 0
1, 27664, Note_on_c, 1, 80, 127
1, 27664, Note_on_c, 1, 47, 127
1, 27690, Note_off_c, 1, 47, 0
1, 27694, Note_on_c, 1, 53, 127
1, 27716, Note_off_c, 1, 80, 0
1, 27724, Note_on_c, 1, 81, 127
1, 27750, Note_off_c, 1, 53, 0
1, 27754, Note_on_c, 1, 52, 127
1, 27776, Note_off_c, 1, 81, 0
1, 27784, Note_on_c, 1, 83, 127
1, 27806, Note_off_c, 1, 52, 0
1, 27814, Note_on_c, 1, 50, 127
1, 27840, Note_off_c, 1, 50, 0
1, 27844, Note_on_c, 1, 48, 127
1, 27870, Note_off_c, 1, 83, 0
1, 27896, Note_off_c, 1, 48, 0
1, 27904, Note_on_c, 1, 84, 127
1, 27904, Note_on_c, 1, 52, 127
1, 27930, Note_off_c, 1, 84, 0
1, 27934, Note_on_c, 1, 76, 127
1, 27956, Note_off_c, 1, 52, 0
1, 27964, Note_on_c, 1, 54, 127
1, 27990, Note_off_c, 1, 76, 0
1, 27994, Note_on_c, 1, 75, 127
1, 28016, Note_off_c, 1, 54, 0
1, 28020, Note_off_c, 1, 75, 0
1, 28024, Note_on_c, 1, 83, 127
1, 28024, Note_on_c, 1, 56, 127
1, 28050, Note_off_c, 1, 83, 0
1, 28054, Note_on_c, 1, 74, 127
1, 28076, Note_off_c, 1, 56, 0
1, 28084, Note_on_c, 1, 57, 127
1, 28097, Note_off_c, 1, 74, 0
1, 28099, Note_on_c, 1, 72, 127
1, 28112, Note_off_c, 1, 72, 0
1, 28129, Note_on_c, 1, 76, 127
1, 28136, Note_off_c, 1, 57, 0
1, 28142, Note_off_c, 1, 76, 0
1, 28144, Note_on_c, 1, 77, 127
1, 28144, Note_on_c, 1, 45, 127
1, 28170, Note_off_c, 1, 77, 0
1, 28174, Note_on_c, 1, 69, 127
1, 28196, Note_off_c, 1, 45, 0
1, 28204, Note_on_c, 1, 47, 127
1, 28230, Note_off_c, 1, 69, 0
1, 28234, Note_on_c, 1, 68, 127
1, 28256, Note_off_c, 1, 47, 0
1, 28260, Note_off_c, 1, 68, 0
1, 28264, Note_on_c, 1, 76, 127
1, 28264, Note_on_c, 1, 49, 127
1, 28290, Note_off_c, 1, 76, 0
1, 28294, Note_on_c, 1, 67, 127
1, 28316, Note_off_c, 1, 49, 0
1, 28324, Note_on_c, 1, 50, 127
1, 28337, Note_off_c, 1, 67, 0
1, 28339, Note_on_c, 1, 65, 127
1, 28352, Note_off_c, 1, 65, 0
1, 28369, Note_on_c, 1, 69, 127
1, 28376, Note_off_c, 1, 50, 0
1, 28382, Note_off_c, 1, 69, 0
1, 28384, Note_on_c, 1, 70, 127
1, 28384, Note_on_c, 1, 38, 127
1, 28410, Note_off_c, 1, 70, 0
1, 28414, Note_on_c, 1, 62, 127
1, 28436, Note_off_c, 1, 38, 0
1, 28444, Note_on_c, 1, 40, 127
1, 28470, Note_off_c, 1, 62, 0
1, 28474, Note_on_c, 1, 61, 127
1, 28496, Note_off_c, 1, 40, 0
1, 28500, Note_off_c, 1, 61, 0
1, 28504, Note_on_c, 1, 69, 127
1, 28504, Note_on_c, 1, 52, 127
1, 28530, Note_off_c, 1, 69, 0
1, 28534, Note_on_c, 1, 60, 127
1, 28556, Note_off_c, 1, 52, 0
1, 28564, Note_on_c, 1, 51, 127
1, 28590, Note_off_c, 1, 60, 0
1, 28594, Note_on_c, 1, 59, 127
1, 28616, Note_off_c, 1, 51, 0
1, 28620, Note_off_c, 1, 59, 0
1, 28624, Note_on_c, 1, 68, 127
1, 28624, Note_on_c, 1, 50, 127
1, 28650, Note_off_c, 1, 68, 0
1, 28654, Note_on_c, 1, 59, 127
1, 28676, Note_off_c, 1, 50, 0
1, 28684, Note_on_c, 1, 49, 127
1, 28710, Note_off_c, 1, 59, 0
1, 28714, Note_on_c, 1, 57, 127
1, 28736, Note_off_c, 1, 49, 0
1, 28740, Note_off_c, 1, 57, 0
1, 28744, Note_on_c, 1, 65, 127
1, 28744, Note_on_c, 1, 48, 127
1, 28770, Note_off_c, 1, 65, 0
1, 28774, Note_on_c, 1, 57, 127
1, 28796, Note_off_c, 1, 48, 0
1, 28804, Note_on_c, 1, 47, 127
1, 28830, Note_off_c, 1, 57, 0
1, 28834, Note_on_c, 1, 56, 127
1, 28847, Note_off_c, 1, 56, 0
1, 28849, Note_on_c, 1, 54, 127
1, 28856, Note_off_c, 1, 47, 0
1, 28862, Note_off_c, 1, 54, 0
1, 28864, Note_on_c, 1, 56, 127
1, 28864, Note_on_c, 1, 47, 127
1, 28890, Note_off_c, 1, 56, 0
1, 28894, Note_on_c, 1, 62, 127
1, 28916, Note_off_c, 1, 47, 0
1, 28924, Note_on_c, 1, 45, 127
1, 28937, Note_off_c, 1, 62, 0
1, 28939, Note_on_c, 1, 60, 127
1, 28952, Note_off_c, 1, 60, 0
1, 28954, Note_on_c, 1, 59, 127
1, 28967, Note_off_c, 1, 59, 0
1, 28969, Note_on_c, 1, 57, 127
1, 28976, Note_off_c, 1, 45, 0
1, 28982, Note_off_c, 1, 57, 0
1, 28984, Note_on_c, 1, 59, 127
1, 28984, Note_on_c, 1, 45, 127
1, 29010, Note_off_c, 1, 59, 0
1, 29014, Note_on_c, 1, 65, 127
1, 29036, Note_off_c, 1, 45, 0
1, 29044, Note_on_c, 1, 44, 127
1, 29057, Note_off_c, 1, 65, 0
1, 29059, Note_on_c, 1, 64, 127
1, 29072, Note_off_c, 1, 64, 0
1, 29074, Note_on_c, 1, 62, 127
1, 29087, Note_off_c, 1, 62, 0
1, 29089, Note_on_c, 1, 61, 127
1, 29096, Note_off_c, 1, 44, 0
1, 29102, Note_off_c, 1, 61, 0
1, 29104, Note_on_c, 1, 62, 127
1, 29104, Note_on_c, 1, 44, 127
1, 29130, Note_off_c, 1, 62, 0
1, 29134, Note_on_c, 1, 71, 127
1, 29156, Note_off_c, 1, 44, 0
1, 29164, Note_on_c, 1, 40, 127
1, 29177, Note_off_c, 1, 71, 0
1, 29179, Note_on_c, 1, 69, 127
1, 29192, Note_off_c, 1, 69, 0
1, 29194, Note_on_c, 1, 68, 127
1, 29207, Note_off_c, 1, 68, 0
1, 29209, Note_on_c, 1, 66, 127
1, 29216, Note_off_c, 1, 40, 0
1, 29222, Note_off_c, 1, 66, 0
1, 29224, Note_on_c, 1, 68, 127
1, 29224, Note_on_c, 1, 40, 127
1, 29250, Note_off_c, 1, 68, 0
1, 29254, Note_on_c, 1, 74, 127
1, 29276, Note_off_c, 1, 40, 0
1, 29284, Note_on_c, 1, 45, 127
1, 29310, Note_off_c, 1, 74, 0
1, 29314, Note_on_c, 1, 72, 127
1, 29327, Note_off_c, 1, 72, 0
1, 29329, Note_on_c, 1, 71, 127
1, 29342, Note_off_c, 1, 71, 0
1, 29357, Note_off_c, 1, 45, 0
1, 29359, Note_on_c, 1, 50, 127
1, 29372, Note_off_c, 1, 50, 0
1, 29374, Note_on_c, 1, 69, 127
1, 29374, Note_on_c, 1, 52, 127
1, 29387, Note_off_c, 1, 52, 0
1, 29389, Note_on_c, 1, 54, 127
1, 29400, Note_off_c, 1, 69, 0
1, 29402, Note_off_c, 1, 54, 0
1, 29404, Note_on_c, 1, 70, 127
1, 29404, Note_on_c, 1, 55, 127
1, 29430, Note_off_c, 1, 55, 0
1, 29434, Note_on_c, 1, 51, 127
1, 29456, Note_off_c, 1, 70, 0
1, 29460, Note_off_c, 1, 51, 0
1, 29464, Note_on_c, 1, 71, 127
1, 29464, Note_on_c, 1, 50, 127
1, 29490, Note_off_c, 1, 50, 0
1, 29494, Note_on_c, 1, 56, 127
1, 29516, Note_off_c, 1, 71, 0
1, 29520, Note_off_c, 1, 56, 0
1, 29524, Note_on_c, 1, 72, 127
1, 29524, Note_on_c, 1, 57, 127
1, 29550, Note_off_c, 1, 57, 0
1, 29554, Note_on_c, 1, 53, 127
1, 29576, Note_off_c, 1, 72, 0
1, 29580, Note_off_c, 1, 53, 0
1, 29584, Note_on_c, 1, 73, 127
1, 29584, Note_on_c, 1, 52, 127
1, 29610, Note_off_c, 1, 52, 0
1, 29614, Note_on_c, 1, 58, 127
1, 29636, Note_off_c, 1, 73, 0
1, 29644, Note_on_c, 1, 74, 127
1, 29670, Note_off_c, 1, 58, 0
1, 29674, Note_on_c, 1, 57, 127
1, 29696, Note_off_c, 1, 74, 0
1, 29704, Note_on_c, 1, 76, 127
1, 29726, Note_off_c, 1, 57, 0
1, 29734, Note_on_c, 1, 55, 127
1, 29760, Note_off_c, 1, 55, 0
1, 29764, Note_on_c, 1, 53, 127
1, 29777, Note_off_c, 1, 76, 0
1, 29777, Note_off_c, 1, 53, 0
1, 29779, Note_on_c, 1, 73, 127
1, 29779, Note_on_c, 1, 52, 127
1, 29792, Note_off_c, 1, 73, 0
1, 29792, Note_off_c, 1, 52, 0
1, 29794, Note_on_c, 1, 74, 127
1, 29794, Note_on_c, 1, 53, 127
1, 29807, Note_off_c, 1, 74, 0
1, 29807, Note_off_c, 1, 53, 0
1, 29809, Note_on_c, 1, 76, 127
1, 29809, Note_on_c, 1, 55, 127
1, 29822, Note_off_c, 1, 76, 0
1, 29822, Note_off_c, 1, 55, 0
1, 29824, Note_on_c, 1, 77, 127
1, 29824, Note_on_c, 1, 57, 127
1, 29850, Note_off_c, 1, 77, 0
1, 29854, Note_on_c, 1, 72, 127
1, 29876, Note_off_c, 1, 57, 0
1, 29880, Note_off_c, 1, 72, 0
1, 29884, Note_on_c, 1, 71, 127
1, 29884, Note_on_c, 1, 56, 127
1, 29910, Note_off_c, 1, 71, 0
1, 29914, Note_on_c, 1, 75, 127
1, 29936, Note_off_c, 1, 56, 0
1, 29940, Note_off_c, 1, 75, 0
1, 29944, Note_on_c, 1, 76, 127
1, 29944, Note_on_c, 1, 55, 127
1, 29970, Note_off_c, 1, 76, 0
1, 29974, Note_on_c, 1, 70, 127
1, 29996, Note_off_c, 1, 55, 0
1, 30000, Note_off_c, 1, 70, 0
1, 30004, Note_on_c, 1, 69, 127
1, 30004, Note_on_c, 1, 54, 127
1, 30030, Note_off_c, 1, 69, 0
1, 30034, Note_on_c, 1, 73, 127
1, 30056, Note_off_c, 1, 54, 0
1, 30060, Note_off_c, 1, 73, 0
1, 30064, Note_on_c, 1, 74, 127
1, 30064, Note_on_c, 1, 53, 127
1, 30090, Note_off_c, 1, 74, 0
1, 30094, Note_on_c, 1, 68, 127
1, 30116, Note_off_c, 1, 53, 0
1, 30124, Note_on_c, 1, 52, 127
1, 30150, Note_off_c, 1, 68, 0
1, 30154, Note_on_c, 1, 69, 127
1, 30176, Note_off_c, 1, 52, 0
1, 30184, Note_on_c, 1, 50, 127
1, 30206, Note_off_c, 1, 69, 0
1, 30214, Note_on_c, 1, 71, 127
1, 30240, Note_off_c, 1, 71, 0
1, 30244, Note_on_c, 1, 64, 127
1, 30270, Note_off_c, 1, 50, 0
1, 30270, Note_off_c, 1, 64, 0
1, 30274, Note_on_c, 1, 76, 127
1, 30274, Note_on_c, 1, 48, 127
1, 30287, Note_off_c, 1, 48, 0
1, 30289, Note_on_c, 1, 47, 127
1, 30302, Note_off_c, 1, 47, 0
1, 30313, Note_off_c, 1, 76, 0
1, 30319, Note_on_c, 1, 74, 127
1, 30332, Note_off_c, 1, 74, 0
1, 30334, Note_on_c, 1, 72, 127
1, 30334, Note_on_c, 1, 45, 127
1, 30347, Note_off_c, 1, 72, 0
1, 30349, Note_on_c, 1, 71, 127
1, 30360, Note_off_c, 1, 45, 0
1, 30362, Note_off_c, 1, 71, 0
1, 30364, Note_on_c, 1, 74, 127
1, 30364, Note_on_c, 1, 52, 127
1, 30377, Note_off_c, 1, 74, 0
1, 30379, Note_on_c, 1, 72, 127
1, 30392, Note_off_c, 1, 72, 0
1, 30394, Note_on_c, 1, 71, 127
1, 30407, Note_off_c, 1, 71, 0
1, 30409, Note_on_c, 1, 69, 127
1, 30416, Note_off_c, 1, 52, 0
1, 30422, Note_off_c, 1, 69, 0
1, 30424, Note_on_c, 1, 72, 127
1, 30424, Note_on_c, 1, 40, 127
1, 30437, Note_off_c, 1, 72, 0
1, 30439, Note_on_c, 1, 71, 127
1, 30452, Note_off_c, 1, 71, 0
1, 30454, Note_on_c, 1, 69, 127
1, 30467, Note_off_c, 1, 69, 0
1, 30469, Note_on_c, 1, 68, 127
1, 30476, Note_off_c, 1, 40, 0
1, 30482, Note_off_c, 1, 68, 0
1, 30484, Note_on_c, 1, 69, 127
1, 30484, Note_on_c, 1, 45, 127
1, 30510, Note_off_c, 1, 45, 0
1, 30514, Note_on_c, 1, 47, 127
1, 30527, Note_off_c, 1, 47, 0
1, 30529, Note_on_c, 1, 48, 127
1, 30542, Note_off_c, 1, 48, 0
1, 30544, Note_on_c, 1, 50, 127
1, 30557, Note_off_c, 1, 50, 0
1, 30559, Note_on_c, 1, 52, 127
1, 30572, Note_off_c, 1, 52, 0
1, 30574, Note_on_c, 1, 54, 127
1, 30587, Note_off_c, 1, 54, 0
1, 30589, Note_on_c, 1, 56, 127
1, 30602, Note_off_c, 1, 56, 0
1, 30604, Note_on_c, 1, 57, 127
1, 30656, Note_off_c, 1, 57, 0
1, 30709, Note_off_c, 1, 69, 0
1, 30709, End_track
0, 0, End_of_file