0, 0, Header, 1, 1, 480
1, 0, Start_track
1, 0, Title_t, "Test"
1, 0, Tempo, 500000
1, 0, Instrument_name_t, "Church Organ"
1, 64, Note_on_c, 1, 72, 127
1, 116, Note_off_c, 1, 72, 0
1, 124, Note_on_c, 1, 70, 127
1, 176, Note_off_c, 1, 70, 0
1, 184, Note_on_c, 1, 69, 127
1, 236, Note_off_c, 1, 69, 0
1, 244, Note_on_c, 1, 70, 127
1, 296, Note_off_c, 1, 70, 0
1, 304, Note_on_c, 1, 65, 127
1, 356, Note_off_c, 1, 65, 0
1, 364, Note_on_c, 1, 62, 127
1, 416, Note_off_c, 1, 62, 0
1, 424, Note_on_c, 1, 67, 127
1, 476, Note_off_c, 1, 67, 0
1, 484, Note_on_c, 1, 65, 127
1, 536, Note_off_c, 1, 65, 0
1, 544, Note_on_c, 1, 63, 127
1, 596, Note_off_c, 1, 63, 0
1, 604, Note_on_c, 1, 65, 127
1, 656, Note_off_c, 1, 65, 0
1, 664, Note_on_c, 1, 62, 127
1, 716, Note_off_c, 1, 62, 0
1, 724, Note_on_c, 1, 58, 127
1, 776, Note_off_c, 1, 58, 0
1, 784, Note_on_c, 1, 63, 127
1, 836, Note_off_c, 1, 63, 0
1, 844, Note_on_c, 1, 63, 127
1, 896, Note_off_c, 1, 63, 0
1, 904, Note_on_c, 1, 62, 127
1, 956, Note_off_c, 1, 62, 0
1, 964, Note_on_c, 1, 62, 127
1, 1016, Note_off_c, 1, 62, 0
1, 1024, Note_on_c, 1, 60, 127
1, 1076, Note_off_c, 1, 60, 0
1, 1084, Note_on_c, 1, 60, 127
1, 1136, Note_off_c, 1, 60, 0
1, 1144, Note_on_c, 1, 65, 127
1, 1196, Note_off_c, 1, 65, 0
1, 1204, Note_on_c, 1, 65, 127
1, 1256, Note_off_c, 1, 65, 0
1, 1264, Note_on_c, 1, 63, 127
1, 1316, Note_off_c, 1, 63, 0
1, 1324, Note_on_c, 1, 63, 127
1, 1376, Note_off_c, 1, 63, 0
1, 1384, Note_on_c, 1, 62, 127
1, 1436, Note_off_c, 1, 62, 0
1, 1444, Note_on_c, 1, 62, 127
1, 1496, Note_off_c, 1, 62, 0
1, 1504, Note_on_c, 1, 79, 127
1, 1504, Note_on_c, 1, 63, 127
1, 1556, Note_off_c, 1, 79, 0
1, 1556, Note_off_c, 1, 63, 0
1, 1564, Note_on_c, 1, 77, 127
1, 1564, Note_on_c, 1, 62, 127
1, 1616, Note_off_c, 1, 77, 0
1, 1616, Note_off_c, 1, 62, 0
1, 1624, Note_on_c, 1, 75, 127
1, 1624, Note_on_c, 1, 60, 127
1, 1676, Note_off_c, 1, 75, 0
1, 1676, Note_off_c, 1, 60, 0
1, 1684, Note_on_c, 1, 77, 127
1, 1684, Note_on_c, 1, 58, 127
1, 1736, Note_off_c, 1, 77, 0
1, 1736, Note_off_c, 1, 58, 0
1, 1744, Note_on_c, 1, 70, 127
1, 1744, Note_on_c, 1, 62, 127
1, 1796, Note_off_c, 1, 70, 0
1, 1796, Note_off_c, 1, 62, 0
1, 1804, Note_on_c, 1, 69, 127
1, 1804, Note_on_c, 1, 60, 127
1, 1856, Note_off_c, 1, 69, 0
1, 1856, Note_off_c, 1, 60, 0
1, 1864, Note_on_c, 1, 74, 127
1, 1864, Note_on_c, 1, 65, 127
1, 1916, Note_off_c, 1, 74, 0
1, 1916, Note_off_c, 1, 65, 0
1, 1924, Note_on_c, 1, 72, 127
1, 1924, Note_on_c, 1, 63, 127
1, 1976, Note_off_c, 1, 72, 0
1, 1976, Note_off_c, 1, 63, 0
1, 1984, Note_on_c, 1, 70, 127
1, 1984, Note_on_c, 1, 62, 127
1, 2036, Note_off_c, 1, 70, 0
1, 2036, Note_off_c, 1, 62, 0
1, 2044, Note_on_c, 1, 72, 127
1, 2044, Note_on_c, 1, 60, 127
1, 2096, Note_off_c, 1, 72, 0
1, 2096, Note_off_c, 1, 60, 0
1, 2104, Note_on_c, 1, 69, 127
1, 2104, Note_on_c, 1, 63, 127
1, 2156, Note_off_c, 1, 69, 0
1, 2156, Note_off_c, 1, 63, 0
1, 2164, Note_on_c, 1, 65, 127
1, 2164, Note_on_c, 1, 62, 127
1, 2216, Note_off_c, 1, 65, 0
1, 2224, Note_on_c, 1, 70, 127
1, 2269, Note_off_c, 1, 62, 0
1, 2276, Note_off_c, 1, 70, 0
1, 2284, Note_on_c, 1, 70, 127
1, 2284, Note_on_c, 1, 64, 127
1, 2336, Note_off_c, 1, 70, 0
1, 2344, Note_on_c, 1, 69, 127
1, 2389, Note_off_c, 1, 64, 0
1, 2396, Note_off_c, 1, 69, 0
1, 2404, Note_on_c, 1, 69, 127
1, 2404, Note_on_c, 1, 65, 127
1, 2456, Note_off_c, 1, 69, 0
1, 2464, Note_on_c, 1, 67, 127
1, 2516, Note_off_c, 1, 67, 0
1, 2584, Note_on_c, 1, 72, 127
1, 2629, Note_off_c, 1, 65, 0
1, 2636, Note_off_c, 1, 72, 0
1, 2644, Note_on_c, 1, 72, 127
1, 2644, Note_on_c, 1, 64, 127
1, 2696, Note_off_c, 1, 72, 0
1, 2696, Note_off_c, 1, 64, 0
1, 2704, Note_on_c, 1, 70, 127
1, 2704, Note_on_c, 1, 62, 127
1, 2756, Note_off_c, 1, 70, 0
1, 2756, Note_off_c, 1, 62, 0
1, 2764, Note_on_c, 1, 70, 127
1, 2764, Note_on_c, 1, 64, 127
1, 2816, Note_off_c, 1, 70, 0
1, 2824, Note_on_c, 1, 69, 127
1, 2869, Note_off_c, 1, 64, 0
1, 2876, Note_off_c, 1, 69, 0
1, 2884, Note_on_c, 1, 69, 127
1, 2884, Note_on_c, 1, 65, 127
1, 2936, Note_off_c, 1, 65, 0
1, 2944, Note_on_c, 1, 63, 127
1, 2989, Note_off_c, 1, 69, 0
1, 2996, Note_off_c, 1, 63, 0
1, 3004, Note_on_c, 1, 68, 127
1, 3004, Note_on_c, 1, 62, 127
1, 3056, Note_off_c, 1, 62, 0
1, 3064, Note_on_c, 1, 60, 127
1, 3116, Note_off_c, 1, 60, 0
1, 3184, Note_on_c, 1, 65, 127
1, 3236, Note_off_c, 1, 65, 0
1, 3244, Note_on_c, 1, 58, 127
1, 3296, Note_off_c, 1, 68, 0
1, 3304, Note_on_c, 1, 79, 127
1, 3349, Note_off_c, 1, 58, 0
1, 3356, Note_off_c, 1, 79, 0
1, 3364, Note_on_c, 1, 77, 127
1, 3364, Note_on_c, 1, 62, 127
1, 3416, Note_off_c, 1, 77, 0
1, 3424, Note_on_c, 1, 75, 127
1, 3469, Note_off_c, 1, 62, 0
1, 3476, Note_off_c, 1, 75, 0
1, 3484, Note_on_c, 1, 77, 127
1, 3484, Note_on_c, 1, 58, 127
1, 3536, Note_off_c, 1, 77, 0
1, 3544, Note_on_c, 1, 68, 127
1, 3589, Note_off_c, 1, 58, 0
1, 3596, Note_off_c, 1, 68, 0
1, 3604, Note_on_c, 1, 67, 127
1, 3604, Note_on_c, 1, 63, 127
1, 3656, Note_off_c, 1, 63, 0
1, 3664, Note_on_c, 1, 62, 127
1, 3709, Note_off_c, 1, 67, 0
1, 3716, Note_off_c, 1, 62, 0
1, 3724, Note_on_c, 1, 79, 127
1, 3724, Note_on_c, 1, 60, 127
1, 3776, Note_off_c, 1, 60, 0
1, 3784, Note_on_c, 1, 58, 127
1, 3836, Note_off_c, 1, 58, 0
1, 3904, Note_on_c, 1, 63, 127
1, 3956, Note_off_c, 1, 63, 0
1, 3964, Note_on_c, 1, 57, 127
1, 4016, Note_off_c, 1, 79, 0
1, 4024, Note_on_c, 1, 77, 127
1, 4069, Note_off_c, 1, 57, 0
1, 4076, Note_off_c, 1, 77, 0
1, 4084, Note_on_c, 1, 75, 127
1, 4084, Note_on_c, 1, 60, 127
1, 4136, Note_off_c, 1, 75, 0
1, 4144, Note_on_c, 1, 74, 127
1, 4189, Note_off_c, 1, 60, 0
1, 4196, Note_off_c, 1, 74, 0
1, 4204, Note_on_c, 1, 75, 127
1, 4204, Note_on_c, 1, 65, 127
1, 4256, Note_off_c, 1, 75, 0
1, 4264, Note_on_c, 1, 84, 127
1, 4309, Note_off_c, 1, 65, 0
1, 4316, Note_off_c, 1, 84, 0
1, 4324, Note_on_c, 1, 74, 127
1, 4324, Note_on_c, 1, 58, 127
1, 4384, Note_on_c, 1, 60, 127
1, 4429, Note_off_c, 1, 58, 0
1, 4436, Note_off_c, 1, 60, 0
1, 4444, Note_on_c, 1, 62, 127
1, 4504, Note_on_c, 1, 57, 127
1, 4549, Note_off_c, 1, 62, 0
1, 4556, Note_off_c, 1, 57, 0
1, 4564, Note_on_c, 1, 65, 127
1, 4624, Note_on_c, 1, 53, 127
1, 4669, Note_off_c, 1, 65, 0
1, 4676, Note_off_c, 1, 53, 0
1, 4684, Note_on_c, 1, 70, 127
1, 4684, Note_on_c, 1, 50, 127
1, 4736, Note_off_c, 1, 74, 0
1, 4736, Note_off_c, 1, 50, 0
1, 4744, Note_on_c, 1, 75, 127
1, 4744, Note_on_c, 1, 55, 127
1, 4796, Note_off_c, 1, 75, 0
1, 4796, Note_off_c, 1, 55, 0
1, 4864, Note_on_c, 1, 72, 127
1, 4864, Note_on_c, 1, 51, 127
1, 4916, Note_off_c, 1, 72, 0
1, 4916, Note_off_c, 1, 51, 0
1, 4984, Note_on_c, 1, 77, 127
1, 5036, Note_off_c, 1, 77, 0
1, 5044, Note_on_c, 1, 80, 127
1, 5044, Note_on_c, 1, 46, 127
1, 5096, Note_off_c, 1, 80, 0
1, 5096, Note_off_c, 1, 46, 0
1, 5104, Note_on_c, 1, 79, 127
1, 5156, Note_off_c, 1, 79, 0
1, 5344, Note_on_c, 1, 48, 127
1, 5396, Note_off_c, 1, 48, 0
1, 5629, Note_off_c, 1, 70, 0
1, 5644, Note_on_c, 1, 72, 127
1, 5644, Note_on_c, 1, 69, 127
1, 5644, Note_on_c, 1, 51, 127
1, 5696, Note_off_c, 1, 72, 0
1, 5696, Note_off_c, 1, 51, 0
1, 5704, Note_on_c, 1, 70, 127
1, 5704, Note_on_c, 1, 50, 127
1, 5749, Note_off_c, 1, 69, 0
1, 5756, Note_off_c, 1, 70, 0
1, 5756, Note_off_c, 1, 50, 0
1, 5764, Note_on_c, 1, 70, 127
1, 5764, Note_on_c, 1, 50, 127
1, 5816, Note_off_c, 1, 50, 0
1, 5824, Note_on_c, 1, 63, 127
1, 5824, Note_on_c, 1, 55, 127
1, 5876, Note_off_c, 1, 63, 0
1, 5876, Note_off_c, 1, 55, 0
1, 5944, Note_on_c, 1, 62, 127
1, 5944, Note_on_c, 1, 53, 127
1, 5996, Note_off_c, 1, 62, 0
1, 5996, Note_off_c, 1, 53, 0
1, 6064, Note_on_c, 1, 60, 127
1, 6064, Note_on_c, 1, 51, 127
1, 6116, Note_off_c, 1, 60, 0
1, 6116, Note_off_c, 1, 51, 0
1, 6184, Note_on_c, 1, 65, 127
1, 6229, Note_off_c, 1, 70, 0
1, 6236, Note_off_c, 1, 65, 0
1, 6244, Note_on_c, 1, 69, 127
1, 6244, Note_on_c, 1, 65, 127
1, 6244, Note_on_c, 1, 53, 127
1, 6296, Note_off_c, 1, 65, 0
1, 6304, Note_on_c, 1, 63, 127
1, 6349, Note_off_c, 1, 53, 0
1, 6356, Note_off_c, 1, 63, 0
1, 6364, Note_on_c, 1, 41, 127
1, 6424, Note_on_c, 1, 62, 127
1, 6469, Note_off_c, 1, 41, 0
1, 6476, Note_off_c, 1, 62, 0
1, 6484, Note_on_c, 1, 46, 127
1, 6536, Note_off_c, 1, 69, 0
1, 6544, Note_on_c, 1, 67, 127
1, 6589, Note_off_c, 1, 46, 0
1, 6596, Note_off_c, 1, 67, 0
1, 6604, Note_on_c, 1, 58, 127
1, 6784, Note_on_c, 1, 64, 127
1, 6836, Note_off_c, 1, 64, 0
1, 6844, Note_on_c, 1, 60, 127
1, 6896, Note_off_c, 1, 58, 0
1, 6904, Note_on_c, 1, 57, 127
1, 6949, Note_off_c, 1, 60, 0
1, 6956, Note_off_c, 1, 57, 0
1, 6964, Note_on_c, 1, 65, 127
1, 6964, Note_on_c, 1, 62, 127
1, 6964, Note_on_c, 1, 57, 127
1, 7016, Note_off_c, 1, 57, 0
1, 7024, Note_on_c, 1, 55, 127
1, 7069, Note_off_c, 1, 65, 0
1, 7069, Note_off_c, 1, 62, 0
1, 7076, Note_off_c, 1, 55, 0
1, 7084, Note_on_c, 1, 67, 127
1, 7084, Note_on_c, 1, 64, 127
1, 7084, Note_on_c, 1, 55, 127
1, 7136, Note_off_c, 1, 55, 0
1, 7144, Note_on_c, 1, 53, 127
1, 7189, Note_off_c, 1, 67, 0
1, 7189, Note_off_c, 1, 64, 0
1, 7196, Note_off_c, 1, 53, 0
1, 7204, Note_on_c, 1, 69, 127
1, 7204, Note_on_c, 1, 65, 127
1, 7204, Note_on_c, 1, 53, 127
1, 7256, Note_off_c, 1, 69, 0
1, 7256, Note_off_c, 1, 53, 0
1, 7264, Note_on_c, 1, 70, 127
1, 7264, Note_on_c, 1, 55, 127
1, 7309, Note_off_c, 1, 65, 0
1, 7316, Note_off_c, 1, 70, 0
1, 7316, Note_off_c, 1, 55, 0
1, 7324, Note_on_c, 1, 69, 127
1, 7324, Note_on_c, 1, 53, 127
1, 7376, Note_off_c, 1, 69, 0
1, 7376, Note_off_c, 1, 53, 0
1, 7384, Note_on_c, 1, 67, 127
1, 7384, Note_on_c, 1, 52, 127
1, 7436, Note_off_c, 1, 67, 0
1, 7436, Note_off_c, 1, 52, 0
1, 7444, Note_on_c, 1, 69, 127
1, 7444, Note_on_c, 1, 53, 127
1, 7496, Note_off_c, 1, 69, 0
1, 7496, Note_off_c, 1, 53, 0
1, 7504, Note_on_c, 1, 72, 127
1, 7504, Note_on_c, 1, 48, 127
1, 7556, Note_off_c, 1, 72, 0
1, 7556, Note_off_c, 1, 48, 0
1, 7564, Note_on_c, 1, 77, 127
1, 7564, Note_on_c, 1, 45, 127
1, 7616, Note_off_c, 1, 45, 0
1, 7624, Note_on_c, 1, 70, 127
1, 7624, Note_on_c, 1, 50, 127
1, 7676, Note_off_c, 1, 70, 0
1, 7676, Note_off_c, 1, 50, 0
1, 7684, Note_on_c, 1, 69, 127
1, 7684, Note_on_c, 1, 48, 127
1, 7736, Note_off_c, 1, 69, 0
1, 7736, Note_off_c, 1, 48, 0
1, 7744, Note_on_c, 1, 67, 127
1, 7744, Note_on_c, 1, 46, 127
1, 7796, Note_off_c, 1, 67, 0
1, 7796, Note_off_c, 1, 46, 0
1, 7864, Note_on_c, 1, 72, 127
1, 7916, Note_off_c, 1, 72, 0
1, 7924, Note_on_c, 1, 75, 127
1, 7924, Note_on_c, 1, 41, 127
1, 7976, Note_off_c, 1, 75, 0
1, 7976, Note_off_c, 1, 41, 0
1, 7984, Note_on_c, 1, 74, 127
1, 8036, Note_off_c, 1, 74, 0
1, 8224, Note_on_c, 1, 43, 127
1, 8276, Note_off_c, 1, 43, 0
1, 8509, Note_off_c, 1, 77, 0
1, 8524, Note_on_c, 1, 75, 127
1, 8524, Note_on_c, 1, 67, 127
1, 8524, Note_on_c, 1, 46, 127
1, 8576, Note_off_c, 1, 67, 0
1, 8576, Note_off_c, 1, 46, 0
1, 8584, Note_on_c, 1, 65, 127
1, 8584, Note_on_c, 1, 45, 127
1, 8636, Note_off_c, 1, 65, 0
1, 8636, Note_off_c, 1, 45, 0
1, 8696, Note_off_c, 1, 75, 0
1, 8764, Note_on_c, 1, 74, 127
1, 8816, Note_off_c, 1, 74, 0
1, 8824, Note_on_c, 1, 72, 127
1, 8876, Note_off_c, 1, 72, 0
1, 8944, Note_on_c, 1, 70, 127
1, 8996, Note_off_c, 1, 70, 0
1, 9004, Note_on_c, 1, 64, 127
1, 9109, Note_off_c, 1, 64, 0
1, 9124, Note_on_c, 1, 72, 127
1, 9124, Note_on_c, 1, 63, 127
1, 9124, Note_on_c, 1, 45, 127
1, 9144, Note_on_c, 1, 43, 127
1, 9147, Note_off_c, 1, 45, 0
1, 9175, Note_off_c, 1, 43, 0
1, 9176, Note_off_c, 1, 72, 0
1, 9184, Note_on_c, 1, 70, 127
1, 9236, Note_off_c, 1, 70, 0
1, 9304, Note_on_c, 1, 69, 127
1, 9349, Note_off_c, 1, 63, 0
1, 9356, Note_off_c, 1, 69, 0
1, 9364, Note_on_c, 1, 65, 127
1, 9364, Note_on_c, 1, 62, 127
1, 9364, Note_on_c, 1, 46, 127
1, 9416, Note_off_c, 1, 46, 0
1, 9424, Note_on_c, 1, 57, 127
1, 9469, Note_off_c, 1, 65, 0
1, 9469, Note_off_c, 1, 62, 0
1, 9476, Note_off_c, 1, 57, 0
1, 9484, Note_on_c, 1, 70, 127
1, 9484, Note_on_c, 1, 61, 127
1, 9484, Note_on_c, 1, 55, 127
1, 9536, Note_off_c, 1, 55, 0
1, 9544, Note_on_c, 1, 53, 127
1, 9589, Note_off_c, 1, 61, 0
1, 9596, Note_off_c, 1, 53, 0
1, 9604, Note_on_c, 1, 58, 127
1, 9664, Note_on_c, 1, 52, 127
1, 9709, Note_off_c, 1, 58, 0
1, 9716, Note_off_c, 1, 52, 0
1, 9724, Note_on_c, 1, 64, 127
1, 9724, Note_on_c, 1, 48, 127
1, 9776, Note_off_c, 1, 48, 0
1, 9829, Note_off_c, 1, 70, 0
1, 9829, Note_off_c, 1, 64, 0
1, 9844, Note_on_c, 1, 69, 127
1, 9844, Note_on_c, 1, 65, 127
1, 9844, Note_on_c, 1, 53, 127
1, 9896, Note_off_c, 1, 53, 0
1, 9904, Note_on_c, 1, 52, 127
1, 9949, Note_off_c, 1, 69, 0
1, 9949, Note_off_c, 1, 65, 0
1, 9956, Note_off_c, 1, 52, 0
1, 9964, Note_on_c, 1, 53, 127
1, 10016, Note_off_c, 1, 53, 0
1, 10024, Note_on_c, 1, 50, 127
1, 10076, Note_off_c, 1, 50, 0
1, 10084, Note_on_c, 1, 47, 127
1, 10144, Note_on_c, 1, 68, 127
1, 10189, Note_off_c, 1, 47, 0
1, 10196, Note_off_c, 1, 68, 0
1, 10204, Note_on_c, 1, 68, 127
1, 10204, Note_on_c, 1, 47, 127
1, 10256, Note_off_c, 1, 68, 0
1, 10264, Note_on_c, 1, 67, 127
1, 10309, Note_off_c, 1, 47, 0
1, 10316, Note_off_c, 1, 67, 0
1, 10324, Note_on_c, 1, 67, 127
1, 10324, Note_on_c, 1, 47, 127
1, 10376, Note_off_c, 1, 67, 0
1, 10384, Note_on_c, 1, 65, 127
1, 10429, Note_off_c, 1, 47, 0
1, 10436, Note_off_c, 1, 65, 0
1, 10444, Note_on_c, 1, 64, 127
1, 10444, Note_on_c, 1, 46, 127
1, 10504, Note_on_c, 1, 74, 127
1, 10549, Note_off_c, 1, 46, 0
1, 10556, Note_off_c, 1, 74, 0
1, 10564, Note_on_c, 1, 72, 127
1, 10616, Note_off_c, 1, 72, 0
1, 10624, Note_on_c, 1, 70, 127
1, 10676, Note_off_c, 1, 70, 0
1, 10744, Note_on_c, 1, 69, 127
1, 10789, Note_off_c, 1, 64, 0
1, 10796, Note_off_c, 1, 69, 0
1, 10804, Note_on_c, 1, 65, 127
1, 10804, Note_on_c, 1, 45, 127
1, 10864, Note_on_c, 1, 69, 127
1, 10909, Note_off_c, 1, 65, 0
1, 10909, Note_off_c, 1, 45, 0
1, 10924, Note_on_c, 1, 62, 127
1, 10924, Note_on_c, 1, 46, 127
1, 10969, Note_off_c, 1, 69, 0
1, 10984, Note_on_c, 1, 67, 127
1, 11029, Note_off_c, 1, 62, 0
1, 11029, Note_off_c, 1, 46, 0
1, 11036, Note_off_c, 1, 67, 0
1, 11044, Note_on_c, 1, 65, 127
1, 11044, Note_on_c, 1, 55, 127
1, 11044, Note_on_c, 1, 48, 127
1, 11096, Note_off_c, 1, 65, 0
1, 11104, Note_on_c, 1, 64, 127
1, 11149, Note_off_c, 1, 55, 0
1, 11149, Note_off_c, 1, 48, 0
1, 11156, Note_off_c, 1, 64, 0
1, 11164, Note_on_c, 1, 65, 127
1, 11164, Note_on_c, 1, 57, 127
1, 11164, Note_on_c, 1, 41, 127
1, 11216, Note_off_c, 1, 65, 0
1, 11216, Note_off_c, 1, 57, 0
1, 11224, Note_on_c, 1, 67, 127
1, 11269, Note_off_c, 1, 41, 0
1, 11276, Note_off_c, 1, 67, 0
1, 11284, Note_on_c, 1, 65, 127
1, 11336, Note_off_c, 1, 65, 0
1, 11344, Note_on_c, 1, 64, 127
1, 11396, Note_off_c, 1, 64, 0
1, 11404, Note_on_c, 1, 65, 127
1, 11456, Note_off_c, 1, 65, 0
1, 11464, Note_on_c, 1, 60, 127
1, 11516, Note_off_c, 1, 60, 0
1, 11524, Note_on_c, 1, 57, 127
1, 11576, Note_off_c, 1, 57, 0
1, 11584, Note_on_c, 1, 62, 127
1, 11636, Note_off_c, 1, 62, 0
1, 11644, Note_on_c, 1, 60, 127
1, 11644, Note_on_c, 1, 45, 127
1, 11696, Note_off_c, 1, 60, 0
1, 11704, Note_on_c, 1, 62, 127
1, 11704, Note_on_c, 1, 58, 127
1, 11756, Note_off_c, 1, 62, 0
1, 11756, Note_off_c, 1, 58, 0
1, 11764, Note_on_c, 1, 63, 127
1, 11824, Note_on_c, 1, 57, 127
1, 11869, Note_off_c, 1, 45, 0
1, 11876, Note_off_c, 1, 57, 0
1, 11884, Note_on_c, 1, 53, 127
1, 11884, Note_on_c, 1, 46, 127
1, 11936, Note_off_c, 1, 53, 0
1, 11989, Note_off_c, 1, 63, 0
1, 12064, Note_on_c, 1, 64, 127
1, 12116, Note_off_c, 1, 64, 0
1, 12124, Note_on_c, 1, 65, 127
1, 12184, Note_on_c, 1, 55, 127
1, 12229, Note_off_c, 1, 46, 0
1, 12236, Note_off_c, 1, 55, 0
1, 12244, Note_on_c, 1, 48, 127
1, 12349, Note_off_c, 1, 65, 0
1, 12484, Note_on_c, 1, 67, 127
1, 12589, Note_off_c, 1, 48, 0
1, 12604, Note_on_c, 1, 41, 127
1, 12656, Note_off_c, 1, 67, 0
1, 12656, Note_off_c, 1, 41, 0
1, 12724, Note_on_c, 1, 67, 127
1, 12724, Note_on_c, 1, 58, 127
1, 12724, Note_on_c, 1, 53, 127
1, 12776, Note_off_c, 1, 53, 0
1, 12784, Note_on_c, 1, 51, 127
1, 12829, Note_off_c, 1, 67, 0
1, 12829, Note_off_c, 1, 58, 0
1, 12836, Note_off_c, 1, 51, 0
1, 12844, Note_on_c, 1, 69, 127
1, 12844, Note_on_c, 1, 60, 127
1, 12844, Note_on_c, 1, 51, 127
1, 12896, Note_off_c, 1, 51, 0
1, 12904, Note_on_c, 1, 50, 127
1, 12922, Note_off_c, 1, 69, 0
1, 12934, Note_on_c, 1, 70, 127
1, 12947, Note_off_c, 1, 70, 0
1, 12949, Note_on_c, 1, 72, 127
1, 12956, Note_off_c, 1, 50, 0
1, 12962, Note_off_c, 1, 72, 0
1, 12964, Note_on_c, 1, 65, 127
1, 13016, Note_off_c, 1, 60, 0
1, 13024, Note_on_c, 1, 58, 127
1, 13069, Note_off_c, 1, 65, 0
1, 13076, Note_off_c, 1, 58, 0
1, 13084, Note_on_c, 1, 63, 127
1, 13084, Note_on_c, 1, 58, 127
1, 13084, Note_on_c, 1, 48, 127
1, 13136, Note_off_c, 1, 58, 0
1, 13144, Note_on_c, 1, 56, 127
1, 13189, Note_off_c, 1, 63, 0
1, 13189, Note_off_c, 1, 48, 0
1, 13196, Note_off_c, 1, 56, 0
1, 13204, Note_on_c, 1, 62, 127
1, 13204, Note_on_c, 1, 56, 127
1, 13204, Note_on_c, 1, 46, 127
1, 13256, Note_off_c, 1, 56, 0
1, 13264, Note_on_c, 1, 55, 127
1, 13309, Note_off_c, 1, 62, 0
1, 13309, Note_off_c, 1, 46, 0
1, 13316, Note_off_c, 1, 55, 0
1, 13324, Note_on_c, 1, 63, 127
1, 13324, Note_on_c, 1, 55, 127
1, 13384, Note_on_c, 1, 51, 127
1, 13429, Note_off_c, 1, 63, 0
1, 13429, Note_off_c, 1, 55, 0
1, 13436, Note_off_c, 1, 51, 0
1, 13444, Note_on_c, 1, 60, 127
1, 13444, Note_on_c, 1, 57, 127
1, 13444, Note_on_c, 1, 51, 127
1, 13496, Note_off_c, 1, 51, 0
1, 13504, Note_on_c, 1, 50, 127
1, 13549, Note_off_c, 1, 60, 0
1, 13549, Note_off_c, 1, 57, 0
1, 13556, Note_off_c, 1, 50, 0
1, 13564, Note_on_c, 1, 62, 127
1, 13564, Note_on_c, 1, 58, 127
1, 13564, Note_on_c, 1, 50, 127
1, 13616, Note_off_c, 1, 50, 0
1, 13624, Note_on_c, 1, 48, 127
1, 13669, Note_off_c, 1, 62, 0
1, 13676, Note_off_c, 1, 48, 0
1, 13684, Note_on_c, 1, 63, 127
1, 13736, Note_off_c, 1, 58, 0
1, 13744, Note_on_c, 1, 57, 127
1, 13744, Note_on_c, 1, 53, 127
1, 13789, Note_off_c, 1, 63, 0
1, 13796, Note_off_c, 1, 57, 0
1, 13796, Note_off_c, 1, 53, 0
1, 13804, Note_on_c, 1, 62, 127
1, 13804, Note_on_c, 1, 57, 127
1, 13804, Note_on_c, 1, 53, 127
1, 13856, Note_off_c, 1, 57, 0
1, 13856, Note_off_c, 1, 53, 0
1, 13864, Note_on_c, 1, 55, 127
1, 13864, Note_on_c, 1, 51, 127
1, 13909, Note_off_c, 1, 62, 0
1, 13916, Note_off_c, 1, 55, 0
1, 13916, Note_off_c, 1, 51, 0
1, 13924, Note_on_c, 1, 60, 127
1, 13924, Note_on_c, 1, 55, 127
1, 13924, Note_on_c, 1, 51, 127
1, 13976, Note_off_c, 1, 55, 0
1, 13976, Note_off_c, 1, 51, 0
1, 13984, Note_on_c, 1, 53, 127
1, 13984, Note_on_c, 1, 50, 127
1, 14036, Note_off_c, 1, 53, 0
1, 14036, Note_off_c, 1, 50, 0
1, 14096, Note_off_c, 1, 60, 0
1, 14104, Note_on_c, 1, 84, 127
1, 14156, Note_off_c, 1, 84, 0
1, 14164, Note_on_c, 1, 82, 127
1, 14164, Note_on_c, 1, 50, 127
1, 14216, Note_off_c, 1, 82, 0
1, 14216, Note_off_c, 1, 50, 0
1, 14224, Note_on_c, 1, 81, 127
1, 14224, Note_on_c, 1, 48, 127
1, 14276, Note_off_c, 1, 81, 0
1, 14276, Note_off_c, 1, 48, 0
1, 14284, Note_on_c, 1, 82, 127
1, 14284, Note_on_c, 1, 50, 127
1, 14336, Note_off_c, 1, 82, 0
1, 14336, Note_off_c, 1, 50, 0
1, 14344, Note_on_c, 1, 77, 127
1, 14344, Note_on_c, 1, 53, 127
1, 14396, Note_off_c, 1, 77, 0
1, 14396, Note_off_c, 1, 53, 0
1, 14404, Note_on_c, 1, 74, 127
1, 14404, Note_on_c, 1, 58, 127
1, 14456, Note_off_c, 1, 74, 0
1, 14464, Note_on_c, 1, 79, 127
1, 14509, Note_off_c, 1, 58, 0
1, 14516, Note_off_c, 1, 79, 0
1, 14524, Note_on_c, 1, 77, 127
1, 14524, Note_on_c, 1, 65, 127
1, 14524, Note_on_c, 1, 46, 127
1, 14576, Note_off_c, 1, 77, 0
1, 14576, Note_off_c, 1, 46, 0
1, 14584, Note_on_c, 1, 75, 127
1, 14584, Note_on_c, 1, 48, 127
1, 14636, Note_off_c, 1, 75, 0
1, 14636, Note_off_c, 1, 48, 0
1, 14644, Note_on_c, 1, 50, 127
1, 14704, Note_on_c, 1, 74, 127
1, 14749, Note_off_c, 1, 65, 0
1, 14756, Note_off_c, 1, 74, 0
1, 14764, Note_on_c, 1, 70, 127
1, 14764, Note_on_c, 1, 67, 127
1, 14816, Note_off_c, 1, 70, 0
1, 14869, Note_off_c, 1, 50, 0
1, 15004, Note_on_c, 1, 51, 127
1, 15064, Note_on_c, 1, 72, 127
1, 15109, Note_off_c, 1, 67, 0
1, 15116, Note_off_c, 1, 72, 0
1, 15124, Note_on_c, 1, 69, 127
1, 15229, Note_off_c, 1, 51, 0
1, 15364, Note_on_c, 1, 53, 127
1, 15469, Note_off_c, 1, 69, 0
1, 15484, Note_on_c, 1, 62, 127
1, 15536, Note_off_c, 1, 53, 0
1, 15536, Note_off_c, 1, 62, 0
1, 15604, Note_on_c, 1, 52, 127
1, 15656, Note_off_c, 1, 52, 0
1, 15664, Note_on_c, 1, 54, 127
1, 15716, Note_off_c, 1, 54, 0
1, 15724, Note_on_c, 1, 55, 127
1, 15844, Note_on_c, 1, 63, 127
1, 15896, Note_off_c, 1, 55, 0
1, 15904, Note_on_c, 1, 58, 127
1, 15956, Note_off_c, 1, 58, 0
1, 15964, Note_on_c, 1, 57, 127
1, 16016, Note_off_c, 1, 57, 0
1, 16144, Note_on_c, 1, 60, 127
1, 16196, Note_off_c, 1, 60, 0
1, 16204, Note_on_c, 1, 66, 127
1, 16256, Note_off_c, 1, 63, 0
1, 16309, Note_off_c, 1, 66, 0
1, 16324, Note_on_c, 1, 67, 127
1, 16324, Note_on_c, 1, 62, 127
1, 16324, Note_on_c, 1, 52, 127
1, 16376, Note_off_c, 1, 62, 0
1, 16384, Note_on_c, 1, 60, 127
1, 16429, Note_off_c, 1, 67, 0
1, 16429, Note_off_c, 1, 52, 0
1, 16436, Note_off_c, 1, 60, 0
1, 16444, Note_on_c, 1, 69, 127
1, 16444, Note_on_c, 1, 60, 127
1, 16444, Note_on_c, 1, 54, 127
1, 16496, Note_off_c, 1, 60, 0
1, 16504, Note_on_c, 1, 58, 127
1, 16549, Note_off_c, 1, 54, 0
1, 16556, Note_off_c, 1, 58, 0
1, 16564, Note_on_c, 1, 55, 127
1, 16616, Note_off_c, 1, 55, 0
1, 16624, Note_on_c, 1, 57, 127
1, 16669, Note_off_c, 1, 69, 0
1, 16676, Note_off_c, 1, 57, 0
1, 16684, Note_on_c, 1, 74, 127
1, 16789, Note_off_c, 1, 74, 0
1, 16804, Note_on_c, 1, 70, 127
1, 16804, Note_on_c, 1, 55, 127
1, 16856, Note_off_c, 1, 55, 0
1, 16864, Note_on_c, 1, 50, 127
1, 16909, Note_off_c, 1, 70, 0
1, 16916, Note_off_c, 1, 50, 0
1, 16924, Note_on_c, 1, 67, 127
1, 16924, Note_on_c, 1, 46, 127
1, 16976, Note_off_c, 1, 46, 0
1, 16984, Note_on_c, 1, 51, 127
1, 17029, Note_off_c, 1, 67, 0
1, 17036, Note_off_c, 1, 51, 0
1, 17044, Note_on_c, 1, 69, 127
1, 17044, Note_on_c, 1, 60, 127
1, 17044, Note_on_c, 1, 50, 127
1, 17096, Note_off_c, 1, 50, 0
1, 17104, Note_on_c, 1, 48, 127
1, 17149, Note_off_c, 1, 69, 0
1, 17149, Note_off_c, 1, 60, 0
1, 17156, Note_off_c, 1, 48, 0
1, 17164, Note_on_c, 1, 66, 127
1, 17164, Note_on_c, 1, 57, 127
1, 17164, Note_on_c, 1, 50, 127
1, 17216, Note_off_c, 1, 50, 0
1, 17224, Note_on_c, 1, 46, 127
1, 17269, Note_off_c, 1, 66, 0
1, 17269, Note_off_c, 1, 57, 0
1, 17276, Note_off_c, 1, 46, 0
1, 17284, Note_on_c, 1, 67, 127
1, 17284, Note_on_c, 1, 58, 127
1, 17284, Note_on_c, 1, 43, 127
1, 17336, Note_off_c, 1, 58, 0
1, 17336, Note_off_c, 1, 43, 0
1, 17344, Note_on_c, 1, 55, 127
1, 17344, Note_on_c, 1, 48, 127
1, 17396, Note_off_c, 1, 55, 0
1, 17396, Note_off_c, 1, 48, 0
1, 17404, Note_on_c, 1, 64, 127
1, 17456, Note_off_c, 1, 64, 0
1, 17464, Note_on_c, 1, 66, 127
1, 17464, Note_on_c, 1, 46, 127
1, 17516, Note_off_c, 1, 66, 0
1, 17516, Note_off_c, 1, 46, 0
1, 17584, Note_on_c, 1, 45, 127
1, 17636, Note_off_c, 1, 45, 0
1, 17644, Note_on_c, 1, 69, 127
1, 17704, Note_on_c, 1, 50, 127
1, 17749, Note_off_c, 1, 67, 0
1, 17756, Note_off_c, 1, 50, 0
1, 18004, Note_on_c, 1, 62, 127
1, 18056, Note_off_c, 1, 69, 0
1, 18109, Note_off_c, 1, 62, 0
1, 18124, Note_on_c, 1, 74, 127
1, 18184, Note_on_c, 1, 65, 127
1, 18236, Note_off_c, 1, 65, 0
1, 18244, Note_on_c, 1, 47, 127
1, 18304, Note_on_c, 1, 63, 127
1, 18349, Note_off_c, 1, 47, 0
1, 18356, Note_off_c, 1, 63, 0
1, 18424, Note_on_c, 1, 68, 127
1, 18469, Note_off_c, 1, 74, 0
1, 18476, Note_off_c, 1, 68, 0
1, 18484, Note_on_c, 1, 72, 127
1, 18484, Note_on_c, 1, 68, 127
1, 18484, Note_on_c, 1, 60, 127
1, 18536, Note_off_c, 1, 72, 0
1, 18536, Note_off_c, 1, 68, 0
1, 18544, Note_on_c, 1, 74, 127
1, 18544, Note_on_c, 1, 67, 127
1, 18589, Note_off_c, 1, 60, 0
1, 18596, Note_off_c, 1, 74, 0
1, 18596, Note_off_c, 1, 67, 0
1, 18604, Note_on_c, 1, 75, 127
1, 18604, Note_on_c, 1, 67, 127
1, 18604, Note_on_c, 1, 58, 127
1, 18656, Note_off_c, 1, 67, 0
1, 18664, Note_on_c, 1, 65, 127
1, 18709, Note_off_c, 1, 58, 0
1, 18716, Note_off_c, 1, 65, 0
1, 18724, Note_on_c, 1, 56, 127
1, 18776, Note_off_c, 1, 75, 0
1, 18829, Note_off_c, 1, 56, 0
1, 18844, Note_on_c, 1, 74, 127
1, 18896, Note_off_c, 1, 74, 0
1, 18904, Note_on_c, 1, 72, 127
1, 18956, Note_off_c, 1, 72, 0
1, 18964, Note_on_c, 1, 46, 127
1, 19024, Note_on_c, 1, 70, 127
1, 19069, Note_off_c, 1, 46, 0
1, 19076, Note_off_c, 1, 70, 0
1, 19084, Note_on_c, 1, 51, 127
1, 19144, Note_on_c, 1, 68, 127
1, 19196, Note_off_c, 1, 68, 0
1, 19204, Note_on_c, 1, 63, 127
1, 19256, Note_off_c, 1, 63, 0
1, 19264, Note_on_c, 1, 62, 127
1, 19316, Note_off_c, 1, 62, 0
1, 19444, Note_on_c, 1, 55, 127
1, 19496, Note_off_c, 1, 51, 0
1, 19496, Note_off_c, 1, 55, 0
1, 19504, Note_on_c, 1, 65, 127
1, 19504, Note_on_c, 1, 60, 127
1, 19504, Note_on_c, 1, 56, 127
1, 19556, Note_off_c, 1, 65, 0
1, 19556, Note_off_c, 1, 60, 0
1, 19556, Note_off_c, 1, 56, 0
1, 19564, Note_on_c, 1, 63, 127
1, 19564, Note_on_c, 1, 58, 127
1, 19564, Note_on_c, 1, 55, 127
1, 19616, Note_off_c, 1, 63, 0
1, 19616, Note_off_c, 1, 58, 0
1, 19616, Note_off_c, 1, 55, 0
1, 19624, Note_on_c, 1, 62, 127
1, 19624, Note_on_c, 1, 56, 127
1, 19624, Note_on_c, 1, 53, 127
1, 19676, Note_off_c, 1, 62, 0
1, 19676, Note_off_c, 1, 56, 0
1, 19676, Note_off_c, 1, 53, 0
1, 19684, Note_on_c, 1, 63, 127
1, 19684, Note_on_c, 1, 58, 127
1, 19684, Note_on_c, 1, 55, 127
1, 19736, Note_off_c, 1, 63, 0
1, 19736, Note_off_c, 1, 58, 0
1, 19736, Note_off_c, 1, 55, 0
1, 19744, Note_on_c, 1, 70, 127
1, 19744, Note_on_c, 1, 55, 127
1, 19744, Note_on_c, 1, 51, 127
1, 19796, Note_off_c, 1, 70, 0
1, 19796, Note_off_c, 1, 55, 0
1, 19796, Note_off_c, 1, 51, 0
1, 19804, Note_on_c, 1, 75, 127
1, 19804, Note_on_c, 1, 51, 127
1, 19804, Note_on_c, 1, 48, 127
1, 19856, Note_off_c, 1, 51, 0
1, 19864, Note_on_c, 1, 56, 127
1, 19916, Note_off_c, 1, 56, 0
1, 19969, Note_off_c, 1, 48, 0
1, 19984, Note_on_c, 1, 55, 127
1, 19984, Note_on_c, 1, 50, 127
1, 20036, Note_off_c, 1, 55, 0
1, 20036, Note_off_c, 1, 50, 0
1, 20104, Note_on_c, 1, 53, 127
1, 20149, Note_off_c, 1, 75, 0
1, 20156, Note_off_c, 1, 53, 0
1, 20164, Note_on_c, 1, 77, 127
1, 20224, Note_on_c, 1, 58, 127
1, 20276, Note_off_c, 1, 58, 0
1, 20509, Note_off_c, 1, 77, 0
1, 20524, Note_on_c, 1, 70, 127
1, 20576, Note_off_c, 1, 70, 0
1, 20584, Note_on_c, 1, 73, 127
1, 20636, Note_off_c, 1, 73, 0
1, 20644, Note_on_c, 1, 73, 127
1, 20644, Note_on_c, 1, 67, 127
1, 20644, Note_on_c, 1, 52, 127
1, 20696, Note_off_c, 1, 73, 0
1, 20696, Note_off_c, 1, 52, 0
1, 20704, Note_on_c, 1, 72, 127
1, 20704, Note_on_c, 1, 53, 127
1, 20749, Note_off_c, 1, 67, 0
1, 20756, Note_off_c, 1, 72, 0
1, 20756, Note_off_c, 1, 53, 0
1, 20764, Note_on_c, 1, 72, 127
1, 20764, Note_on_c, 1, 64, 127
1, 20764, Note_on_c, 1, 55, 127
1, 20816, Note_off_c, 1, 72, 0
1, 20824, Note_on_c, 1, 70, 127
1, 20869, Note_off_c, 1, 64, 0
1, 20876, Note_off_c, 1, 70, 0
1, 20884, Note_on_c, 1, 68, 127
1, 20884, Note_on_c, 1, 60, 127
1, 20936, Note_off_c, 1, 55, 0
1, 20944, Note_on_c, 1, 53, 127
1, 20989, Note_off_c, 1, 60, 0
1, 20996, Note_off_c, 1, 53, 0
1, 21004, Note_on_c, 1, 62, 127
1, 21056, Note_off_c, 1, 62, 0
1, 21064, Note_on_c, 1, 63, 127
1, 21064, Note_on_c, 1, 51, 127
1, 21116, Note_off_c, 1, 63, 0
1, 21116, Note_off_c, 1, 51, 0
1, 21124, Note_on_c, 1, 65, 127
1, 21184, Note_on_c, 1, 50, 127
1, 21229, Note_off_c, 1, 65, 0
1, 21236, Note_off_c, 1, 50, 0
1, 21244, Note_on_c, 1, 59, 127
1, 21296, Note_off_c, 1, 68, 0
1, 21304, Note_on_c, 1, 67, 127
1, 21356, Note_off_c, 1, 67, 0
1, 21484, Note_on_c, 1, 43, 127
1, 21589, Note_off_c, 1, 59, 0
1, 21589, Note_off_c, 1, 43, 0
1, 21604, Note_on_c, 1, 63, 127
1, 21604, Note_on_c, 1, 60, 127
1, 21604, Note_on_c, 1, 48, 127
1, 21656, Note_off_c, 1, 48, 0
1, 21664, Note_on_c, 1, 46, 127
1, 21709, Note_off_c, 1, 63, 0
1, 21709, Note_off_c, 1, 60, 0
1, 21716, Note_off_c, 1, 46, 0
1, 21724, Note_on_c, 1, 67, 127
1, 21724, Note_on_c, 1, 63, 127
1, 21724, Note_on_c, 1, 46, 127
1, 21776, Note_off_c, 1, 46, 0
1, 21784, Note_on_c, 1, 44, 127
1, 21829, Note_off_c, 1, 67, 0
1, 21829, Note_off_c, 1, 63, 0
1, 21836, Note_off_c, 1, 44, 0
1, 21844, Note_on_c, 1, 72, 127
1, 21844, Note_on_c, 1, 65, 127
1, 21844, Note_on_c, 1, 44, 127
1, 21896, Note_off_c, 1, 44, 0
1, 21904, Note_on_c, 1, 43, 127
1, 21949, Note_off_c, 1, 72, 0
1, 21956, Note_off_c, 1, 43, 0
1, 21964, Note_on_c, 1, 71, 127
1, 22016, Note_off_c, 1, 65, 0
1, 22016, Note_off_c, 1, 71, 0
1, 22024, Note_on_c, 1, 68, 127
1, 22076, Note_off_c, 1, 68, 0
1, 22084, Note_on_c, 1, 74, 127
1, 22084, Note_on_c, 1, 67, 127
1, 22084, Note_on_c, 1, 47, 127
1, 22136, Note_off_c, 1, 67, 0
1, 22144, Note_on_c, 1, 65, 127
1, 22189, Note_off_c, 1, 47, 0
1, 22196, Note_off_c, 1, 65, 0
1, 22204, Note_on_c, 1, 43, 127
1, 22264, Note_on_c, 1, 62, 127
1, 22309, Note_off_c, 1, 43, 0
1, 22316, Note_off_c, 1, 62, 0
1, 22324, Note_on_c, 1, 63, 127
1, 22324, Note_on_c, 1, 48, 127
1, 22376, Note_off_c, 1, 74, 0
1, 22376, Note_off_c, 1, 63, 0
1, 22384, Note_on_c, 1, 53, 127
1, 22436, Note_off_c, 1, 53, 0
1, 22444, Note_on_c, 1, 72, 127
1, 22444, Note_on_c, 1, 51, 127
1, 22496, Note_off_c, 1, 72, 0
1, 22496, Note_off_c, 1, 51, 0
1, 22504, Note_on_c, 1, 71, 127
1, 22504, Note_on_c, 1, 50, 127
1, 22556, Note_off_c, 1, 71, 0
1, 22556, Note_off_c, 1, 50, 0
1, 22624, Note_on_c, 1, 55, 127
1, 22676, Note_off_c, 1, 55, 0
1, 22684, Note_on_c, 1, 60, 127
1, 22736, Note_off_c, 1, 48, 0
1, 22744, Note_on_c, 1, 68, 127
1, 22789, Note_off_c, 1, 60, 0
1, 22796, Note_off_c, 1, 68, 0
1, 22804, Note_on_c, 1, 67, 127
1, 22804, Note_on_c, 1, 55, 127
1, 22804, Note_on_c, 1, 51, 127
1, 22856, Note_off_c, 1, 67, 0
1, 22856, Note_off_c, 1, 55, 0
1, 22864, Note_on_c, 1, 65, 127
1, 22864, Note_on_c, 1, 56, 127
1, 22916, Note_off_c, 1, 65, 0
1, 22916, Note_off_c, 1, 56, 0
1, 22924, Note_on_c, 1, 58, 127
1, 22984, Note_on_c, 1, 63, 127
1, 23029, Note_off_c, 1, 51, 0
1, 23036, Note_off_c, 1, 63, 0
1, 23044, Note_on_c, 1, 60, 127
1, 23044, Note_on_c, 1, 53, 127
1, 23096, Note_off_c, 1, 60, 0
1, 23149, Note_off_c, 1, 58, 0
1, 23164, Note_on_c, 1, 57, 127
1, 23216, Note_off_c, 1, 57, 0
1, 23224, Note_on_c, 1, 59, 127
1, 23276, Note_off_c, 1, 59, 0
1, 23344, Note_on_c, 1, 62, 127
1, 23389, Note_off_c, 1, 53, 0
1, 23396, Note_off_c, 1, 62, 0
1, 23764, Note_on_c, 1, 48, 127
1, 23869, Note_off_c, 1, 48, 0
1, 24004, Note_on_c, 1, 75, 127
1, 24004, Note_on_c, 1, 60, 127
1, 24004, Note_on_c, 1, 48, 127
1, 24056, Note_off_c, 1, 60, 0
1, 24064, Note_on_c, 1, 55, 127
1, 24109, Note_off_c, 1, 48, 0
1, 24116, Note_off_c, 1, 55, 0
1, 24124, Note_on_c, 1, 57, 127
1, 24124, Note_on_c, 1, 53, 127
1, 24176, Note_off_c, 1, 75, 0
1, 24184, Note_on_c, 1, 77, 127
1, 24229, Note_off_c, 1, 57, 0
1, 24229, Note_off_c, 1, 53, 0
1, 24236, Note_off_c, 1, 77, 0
1, 24244, Note_on_c, 1, 75, 127
1, 24244, Note_on_c, 1, 60, 127
1, 24244, Note_on_c, 1, 57, 127
1, 24296, Note_off_c, 1, 75, 0
1, 24304, Note_on_c, 1, 74, 127
1, 24349, Note_off_c, 1, 60, 0
1, 24349, Note_off_c, 1, 57, 0
1, 24356, Note_off_c, 1, 74, 0
1, 24364, Note_on_c, 1, 75, 127
1, 24364, Note_on_c, 1, 65, 127
1, 24364, Note_on_c, 1, 53, 127
1, 24416, Note_off_c, 1, 75, 0
1, 24424, Note_on_c, 1, 72, 127
1, 24469, Note_off_c, 1, 53, 0
1, 24476, Note_off_c, 1, 72, 0
1, 24484, Note_on_c, 1, 74, 127
1, 24484, Note_on_c, 1, 46, 127
1, 24536, Note_off_c, 1, 46, 0
1, 24544, Note_on_c, 1, 60, 127
1, 24589, Note_off_c, 1, 65, 0
1, 24596, Note_off_c, 1, 60, 0
1, 24604, Note_on_c, 1, 58, 127
1, 24656, Note_off_c, 1, 58, 0
1, 24664, Note_on_c, 1, 57, 127
1, 24716, Note_off_c, 1, 57, 0
1, 24724, Note_on_c, 1, 70, 127
1, 24784, Note_on_c, 1, 55, 127
1, 24829, Note_off_c, 1, 70, 0
1, 24836, Note_off_c, 1, 55, 0
1, 24844, Note_on_c, 1, 67, 127
1, 24844, Note_on_c, 1, 52, 127
1, 24896, Note_off_c, 1, 52, 0
1, 24949, Note_off_c, 1, 74, 0
1, 24949, Note_off_c, 1, 67, 0
1, 24964, Note_on_c, 1, 72, 127
1, 24964, Note_on_c, 1, 64, 127
1, 24964, Note_on_c, 1, 57, 127
1, 25016, Note_off_c, 1, 72, 0
1, 25016, Note_off_c, 1, 57, 0
1, 25024, Note_on_c, 1, 70, 127
1, 25024, Note_on_c, 1, 55, 127
1, 25069, Note_off_c, 1, 64, 0
1, 25076, Note_off_c, 1, 70, 0
1, 25076, Note_off_c, 1, 55, 0
1, 25084, Note_on_c, 1, 72, 127
1, 25084, Note_on_c, 1, 69, 127
1, 25084, Note_on_c, 1, 55, 127
1, 25136, Note_off_c, 1, 55, 0
1, 25144, Note_on_c, 1, 54, 127
1, 25189, Note_off_c, 1, 69, 0
1, 25196, Note_off_c, 1, 54, 0
1, 25204, Note_on_c, 1, 62, 127
1, 25264, Note_on_c, 1, 57, 127
1, 25309, Note_off_c, 1, 72, 0
1, 25316, Note_off_c, 1, 57, 0
1, 25324, Note_on_c, 1, 70, 127
1, 25376, Note_off_c, 1, 70, 0
1, 25429, Note_off_c, 1, 62, 0
1, 25444, Note_on_c, 1, 70, 127
1, 25444, Note_on_c, 1, 67, 127
1, 25444, Note_on_c, 1, 55, 127
1, 25496, Note_off_c, 1, 55, 0
1, 25504, Note_on_c, 1, 51, 127
1, 25549, Note_off_c, 1, 67, 0
1, 25556, Note_off_c, 1, 51, 0
1, 25564, Note_on_c, 1, 63, 127
1, 25564, Note_on_c, 1, 48, 127
1, 25616, Note_off_c, 1, 48, 0
1, 25624, Note_on_c, 1, 53, 127
1, 25669, Note_off_c, 1, 70, 0
1, 25669, Note_off_c, 1, 63, 0
1, 25676, Note_off_c, 1, 53, 0
1, 25684, Note_on_c, 1, 68, 127
1, 25684, Note_on_c, 1, 60, 127
1, 25684, Note_on_c, 1, 53, 127
1, 25736, Note_off_c, 1, 68, 0
1, 25736, Note_off_c, 1, 53, 0
1, 25744, Note_on_c, 1, 67, 127
1, 25744, Note_on_c, 1, 51, 127
1, 25789, Note_off_c, 1, 60, 0
1, 25796, Note_off_c, 1, 67, 0
1, 25796, Note_off_c, 1, 51, 0
1, 25804, Note_on_c, 1, 68, 127
1, 25804, Note_on_c, 1, 65, 127
1, 25804, Note_on_c, 1, 51, 127
1, 25856, Note_off_c, 1, 51, 0
1, 25864, Note_on_c, 1, 50, 127
1, 25909, Note_off_c, 1, 65, 0
1, 25916, Note_off_c, 1, 50, 0
1, 25924, Note_on_c, 1, 58, 127
1, 25984, Note_on_c, 1, 53, 127
1, 26029, Note_off_c, 1, 68, 0
1, 26036, Note_off_c, 1, 53, 0
1, 26044, Note_on_c, 1, 67, 127
1, 26096, Note_off_c, 1, 67, 0
1, 26149, Note_off_c, 1, 58, 0
1, 26164, Note_on_c, 1, 67, 127
1, 26164, Note_on_c, 1, 63, 127
1, 26164, Note_on_c, 1, 51, 127
1, 26216, Note_off_c, 1, 51, 0
1, 26224, Note_on_c, 1, 48, 127
1, 26269, Note_off_c, 1, 63, 0
1, 26276, Note_off_c, 1, 48, 0
1, 26284, Note_on_c, 1, 60, 127
1, 26284, Note_on_c, 1, 45, 127
1, 26336, Note_off_c, 1, 45, 0
1, 26344, Note_on_c, 1, 50, 127
1, 26389, Note_off_c, 1, 67, 0
1, 26389, Note_off_c, 1, 60, 0
1, 26396, Note_off_c, 1, 50, 0
1, 26404, Note_on_c, 1, 65, 127
1, 26404, Note_on_c, 1, 57, 127
1, 26404, Note_on_c, 1, 50, 127
1, 26456, Note_off_c, 1, 65, 0
1, 26456, Note_off_c, 1, 50, 0
1, 26464, Note_on_c, 1, 63, 127
1, 26464, Note_on_c, 1, 48, 127
1, 26509, Note_off_c, 1, 57, 0
1, 26516, Note_off_c, 1, 63, 0
1, 26516, Note_off_c, 1, 48, 0
1, 26524, Note_on_c, 1, 65, 127
1, 26524, Note_on_c, 1, 62, 127
1, 26524, Note_on_c, 1, 48, 127
1, 26576, Note_off_c, 1, 48, 0
1, 26584, Note_on_c, 1, 46, 127
1, 26629, Note_off_c, 1, 62, 0
1, 26636, Note_off_c, 1, 46, 0
1, 26644, Note_on_c, 1, 55, 127
1, 26749, Note_off_c, 1, 65, 0
1, 26764, Note_on_c, 1, 63, 127
1, 26816, Note_off_c, 1, 63, 0
1, 26869, Note_off_c, 1, 55, 0
1, 26884, Note_on_c, 1, 63, 127
1, 26884, Note_on_c, 1, 60, 127
1, 26884, Note_on_c, 1, 46, 127
1, 26936, Note_off_c, 1, 46, 0
1, 26944, Note_on_c, 1, 45, 127
1, 26989, Note_off_c, 1, 60, 0
1, 26996, Note_off_c, 1, 45, 0
1, 27004, Note_on_c, 1, 53, 127
1, 27056, Note_off_c, 1, 63, 0
1, 27064, Note_on_c, 1, 65, 127
1, 27109, Note_off_c, 1, 53, 0
1, 27116, Note_off_c, 1, 65, 0
1, 27124, Note_on_c, 1, 48, 127
1, 27184, Note_on_c, 1, 62, 127
1, 27229, Note_off_c, 1, 48, 0
1, 27236, Note_off_c, 1, 62, 0
1, 27484, Note_on_c, 1, 64, 127
1, 27484, Note_on_c, 1, 58, 127
1, 27484, Note_on_c, 1, 43, 127
1, 27536, Note_off_c, 1, 58, 0
1, 27544, Note_on_c, 1, 57, 127
1, 27589, Note_off_c, 1, 43, 0
1, 27596, Note_off_c, 1, 57, 0
1, 27604, Note_on_c, 1, 48, 127
1, 27664, Note_on_c, 1, 55, 127
1, 27709, Note_off_c, 1, 64, 0
1, 27709, Note_off_c, 1, 48, 0
1, 27716, Note_off_c, 1, 55, 0
1, 27724, Note_on_c, 1, 65, 127
1, 27724, Note_on_c, 1, 57, 127
1, 27724, Note_on_c, 1, 41, 127
1, 27776, Note_off_c, 1, 65, 0
1, 27776, Note_off_c, 1, 57, 0
1, 27784, Note_on_c, 1, 79, 127
1, 27836, Note_off_c, 1, 79, 0
1, 27844, Note_on_c, 1, 77, 127
1, 27889, Note_off_c, 1, 41, 0
1, 27896, Note_off_c, 1, 77, 0
1, 27904, Note_on_c, 1, 75, 127
1, 27904, Note_on_c, 1, 43, 127
1, 27956, Note_off_c, 1, 75, 0
1, 27956, Note_off_c, 1, 43, 0
1, 27964, Note_on_c, 1, 77, 127
1, 27964, Note_on_c, 1, 45, 127
1, 28016, Note_off_c, 1, 77, 0
1, 28016, Note_off_c, 1, 45, 0
1, 28024, Note_on_c, 1, 72, 127
1, 28024, Note_on_c, 1, 46, 127
1, 28076, Note_off_c, 1, 72, 0
1, 28076, Note_off_c, 1, 46, 0
1, 28084, Note_on_c, 1, 69, 127
1, 28084, Note_on_c, 1, 48, 127
1, 28136, Note_off_c, 1, 69, 0
1, 28136, Note_off_c, 1, 48, 0
1, 28144, Note_on_c, 1, 74, 127
1, 28144, Note_on_c, 1, 50, 127
1, 28196, Note_off_c, 1, 74, 0
1, 28196, Note_off_c, 1, 50, 0
1, 28204, Note_on_c, 1, 72, 127
1, 28204, Note_on_c, 1, 51, 127
1, 28256, Note_off_c, 1, 72, 0
1, 28256, Note_off_c, 1, 51, 0
1, 28264, Note_on_c, 1, 70, 127
1, 28264, Note_on_c, 1, 50, 127
1, 28316, Note_off_c, 1, 70, 0
1, 28316, Note_off_c, 1, 50, 0
1, 28324, Note_on_c, 1, 72, 127
1, 28324, Note_on_c, 1, 51, 127
1, 28376, Note_off_c, 1, 72, 0
1, 28376, Note_off_c, 1, 51, 0
1, 28384, Note_on_c, 1, 69, 127
1, 28384, Note_on_c, 1, 48, 127
1, 28436, Note_off_c, 1, 69, 0
1, 28436, Note_off_c, 1, 48, 0
1, 28444, Note_on_c, 1, 65, 127
1, 28444, Note_on_c, 1, 50, 127
1, 28496, Note_off_c, 1, 65, 0
1, 28504, Note_on_c, 1, 70, 127
1, 28556, Note_off_c, 1, 70, 0
1, 28564, Note_on_c, 1, 62, 127
1, 28616, Note_off_c, 1, 62, 0
1, 28624, Note_on_c, 1, 68, 127
1, 28624, Note_on_c, 1, 63, 127
1, 28676, Note_off_c, 1, 68, 0
1, 28676, Note_off_c, 1, 63, 0
1, 28744, Note_on_c, 1, 67, 127
1, 28789, Note_off_c, 1, 50, 0
1, 28796, Note_off_c, 1, 67, 0
1, 28804, Note_on_c, 1, 51, 127
1, 28864, Note_on_c, 1, 72, 127
1, 28916, Note_off_c, 1, 72, 0
1, 29104, Note_on_c, 1, 69, 127
1, 29149, Note_off_c, 1, 51, 0
1, 29156, Note_off_c, 1, 69, 0
1, 29164, Note_on_c, 1, 53, 127
1, 29464, Note_on_c, 1, 60, 127
1, 29509, Note_off_c, 1, 53, 0
1, 29516, Note_off_c, 1, 60, 0
1, 29524, Note_on_c, 1, 46, 127
1, 29764, Note_on_c, 1, 74, 127
1, 29824, Note_on_c, 1, 64, 127
1, 29869, Note_off_c, 1, 46, 0
1, 29876, Note_off_c, 1, 64, 0
1, 29884, Note_on_c, 1, 48, 127
1, 29989, Note_off_c, 1, 74, 0
1, 30124, Note_on_c, 1, 75, 127
1, 30184, Note_on_c, 1, 66, 127
1, 30229, Note_off_c, 1, 48, 0
1, 30236, Note_off_c, 1, 66, 0
1, 30296, Note_off_c, 1, 75, 0
1, 30604, Note_on_c, 1, 70, 127
1, 30604, Note_on_c, 1, 67, 127
1, 30604, Note_on_c, 1, 43, 127
1, 30656, Note_off_c, 1, 70, 0
1, 30656, Note_off_c, 1, 67, 0
1, 30656, Note_off_c, 1, 43, 0
1, 30664, Note_on_c, 1, 72, 127
1, 30664, Note_on_c, 1, 57, 127
1, 30716, Note_off_c, 1, 72, 0
1, 30716, Note_off_c, 1, 57, 0
1, 30724, Note_on_c, 1, 70, 127
1, 30724, Note_on_c, 1, 55, 127
1, 30776, Note_off_c, 1, 70, 0
1, 30776, Note_off_c, 1, 55, 0
1, 30784, Note_on_c, 1, 69, 127
1, 30784, Note_on_c, 1, 54, 127
1, 30836, Note_off_c, 1, 69, 0
1, 30836, Note_off_c, 1, 54, 0
1, 30844, Note_on_c, 1, 70, 127
1, 30844, Note_on_c, 1, 55, 127
1, 30896, Note_off_c, 1, 70, 0
1, 30896, Note_off_c, 1, 55, 0
1, 30904, Note_on_c, 1, 67, 127
1, 30904, Note_on_c, 1, 51, 127
1, 30956, Note_off_c, 1, 67, 0
1, 30956, Note_off_c, 1, 51, 0
1, 30964, Note_on_c, 1, 75, 127
1, 30964, Note_on_c, 1, 48, 127
1, 31016, Note_off_c, 1, 48, 0
1, 31024, Note_on_c, 1, 70, 127
1, 31024, Note_on_c, 1, 50, 127
1, 31076, Note_off_c, 1, 70, 0
1, 31076, Note_off_c, 1, 50, 0
1, 31084, Note_on_c, 1, 69, 127
1, 31136, Note_off_c, 1, 69, 0
1, 31144, Note_on_c, 1, 67, 127
1, 31144, Note_on_c, 1, 46, 127
1, 31196, Note_off_c, 1, 67, 0
1, 31196, Note_off_c, 1, 46, 0
1, 31264, Note_on_c, 1, 65, 127
1, 31264, Note_on_c, 1, 45, 127
1, 31316, Note_off_c, 1, 65, 0
1, 31316, Note_off_c, 1, 45, 0
1, 31324, Note_on_c, 1, 41, 127
1, 31354, Note_on_c, 1, 72, 127
1, 31376, Note_off_c, 1, 41, 0
1, 31380, Note_off_c, 1, 72, 0
1, 31384, Note_on_c, 1, 55, 127
1, 31429, Note_off_c, 1, 75, 0
1, 31436, Note_off_c, 1, 55, 0
1, 31444, Note_on_c, 1, 69, 127
1, 31444, Note_on_c, 1, 53, 127
1, 31496, Note_off_c, 1, 69, 0
1, 31496, Note_off_c, 1, 53, 0
1, 31504, Note_on_c, 1, 67, 127
1, 31504, Note_on_c, 1, 51, 127
1, 31556, Note_off_c, 1, 67, 0
1, 31556, Note_off_c, 1, 51, 0
1, 31564, Note_on_c, 1, 75, 127
1, 31564, Note_on_c, 1, 69, 127
1, 31564, Note_on_c, 1, 53, 127
1, 31616, Note_off_c, 1, 69, 0
1, 31616, Note_off_c, 1, 53, 0
1, 31624, Note_on_c, 1, 65, 127
1, 31624, Note_on_c, 1, 50, 127
1, 31669, Note_off_c, 1, 75, 0
1, 31676, Note_off_c, 1, 50, 0
1, 31684, Note_on_c, 1, 74, 127
1, 31684, Note_on_c, 1, 46, 127
1, 31736, Note_off_c, 1, 74, 0
1, 31736, Note_off_c, 1, 46, 0
1, 31744, Note_on_c, 1, 48, 127
1, 31796, Note_off_c, 1, 48, 0
1, 31804, Note_on_c, 1, 70, 127
1, 31856, Note_off_c, 1, 70, 0
1, 31864, Note_on_c, 1, 72, 127
1, 31864, Note_on_c, 1, 45, 127
1, 31909, Note_off_c, 1, 65, 0
1, 31916, Note_off_c, 1, 72, 0
1, 31916, Note_off_c, 1, 45, 0
1, 31924, Note_on_c, 1, 74, 127
1, 31924, Note_on_c, 1, 46, 127
1, 31976, Note_off_c, 1, 74, 0
1, 31976, Note_off_c, 1, 46, 0
1, 31984, Note_on_c, 1, 77, 127
1, 31984, Note_on_c, 1, 43, 127
1, 32036, Note_off_c, 1, 77, 0
1, 32036, Note_off_c, 1, 43, 0
1, 32044, Note_on_c, 1, 82, 127
1, 32044, Note_on_c, 1, 40, 127
1, 32104, Note_on_c, 1, 73, 127
1, 32149, Note_off_c, 1, 82, 0
1, 32149, Note_off_c, 1, 40, 0
1, 32156, Note_off_c, 1, 73, 0
1, 32164, Note_on_c, 1, 73, 127
1, 32164, Note_on_c, 1, 40, 127
1, 32216, Note_off_c, 1, 73, 0
1, 32224, Note_on_c, 1, 72, 127
1, 32269, Note_off_c, 1, 40, 0
1, 32276, Note_off_c, 1, 72, 0
1, 32284, Note_on_c, 1, 72, 127
1, 32284, Note_on_c, 1, 40, 127
1, 32336, Note_off_c, 1, 72, 0
1, 32344, Note_on_c, 1, 70, 127
1, 32389, Note_off_c, 1, 40, 0
1, 32396, Note_off_c, 1, 70, 0
1, 32404, Note_on_c, 1, 69, 127
1, 32404, Note_on_c, 1, 39, 127
1, 32464, Note_on_c, 1, 79, 127
1, 32509, Note_off_c, 1, 39, 0
1, 32516, Note_off_c, 1, 79, 0
1, 32524, Note_on_c, 1, 77, 127
1, 32576, Note_off_c, 1, 77, 0
1, 32584, Note_on_c, 1, 75, 127
1, 32636, Note_off_c, 1, 75, 0
1, 32704, Note_on_c, 1, 74, 127
1, 32749, Note_off_c, 1, 69, 0
1, 32756, Note_off_c, 1, 74, 0
1, 32764, Note_on_c, 1, 70, 127
1, 32764, Note_on_c, 1, 38, 127
1, 32824, Note_on_c, 1, 74, 127
1, 32869, Note_off_c, 1, 70, 0
1, 32869, Note_off_c, 1, 38, 0
1, 32884, Note_on_c, 1, 67, 127
1, 32884, Note_on_c, 1, 39, 127
1, 32929, Note_off_c, 1, 74, 0
1, 32944, Note_on_c, 1, 72, 127
1, 32989, Note_off_c, 1, 67, 0
1, 32989, Note_off_c, 1, 39, 0
1, 32996, Note_off_c, 1, 72, 0
1, 33004, Note_on_c, 1, 70, 127
1, 33004, Note_on_c, 1, 60, 127
1, 33004, Note_on_c, 1, 41, 127
1, 33056, Note_off_c, 1, 70, 0
1, 33064, Note_on_c, 1, 69, 127
1, 33109, Note_off_c, 1, 60, 0
1, 33109, Note_off_c, 1, 41, 0
1, 33116, Note_off_c, 1, 69, 0
1, 33124, Note_on_c, 1, 70, 127
1, 33124, Note_on_c, 1, 62, 127
1, 33124, Note_on_c, 1, 46, 127
1, 33469, Note_off_c, 1, 70, 0
1, 33469, Note_off_c, 1, 62, 0
1, 33469, Note_off_c, 1, 46, 0
1, 33469, End_track
0, 0, End_of_file