0, 0, Header, 1, 1, 480
1, 0, Start_track
1, 0, Title_t, "Test"
1, 0, Tempo, 500000
1, 0, Instrument_name_t, "Church Organ"
1, 4, Note_on_c, 1, 58, 127
1, 229, Note_off_c, 1, 58, 0
1, 244, Note_on_c, 1, 60, 127
1, 469, Note_off_c, 1, 60, 0
1, 604, Note_on_c, 1, 61, 127
1, 709, Note_off_c, 1, 61, 0
1, 724, Note_on_c, 1, 63, 127
1, 829, Note_off_c, 1, 63, 0
1, 844, Note_on_c, 1, 57, 127
1, 949, Note_off_c, 1, 57, 0
1, 964, Note_on_c, 1, 58, 127
1, 1189, Note_off_c, 1, 58, 0
1, 1324, Note_on_c, 1, 60, 127
1, 1429, Note_off_c, 1, 60, 0
1, 1444, Note_on_c, 1, 61, 127
1, 1496, Note_off_c, 1, 61, 0
1, 1504, Note_on_c, 1, 58, 127
1, 1556, Note_off_c, 1, 58, 0
1, 1564, Note_on_c, 1, 60, 127
1, 1616, Note_off_c, 1, 60, 0
1, 1624, Note_on_c, 1, 61, 127
1, 1676, Note_off_c, 1, 61, 0
1, 1684, Note_on_c, 1, 63, 127
1, 1736, Note_off_c, 1, 63, 0
1, 1744, Note_on_c, 1, 60, 127
1, 1796, Note_off_c, 1, 60, 0
1, 1804, Note_on_c, 1, 61, 127
1, 1856, Note_off_c, 1, 61, 0
1, 1864, Note_on_c, 1, 63, 127
1, 1916, Note_off_c, 1, 63, 0
1, 1924, Note_on_c, 1, 65, 127
1, 1976, Note_off_c, 1, 65, 0
1, 1984, Note_on_c, 1, 61, 127
1, 2036, Note_off_c, 1, 61, 0
1, 2044, Note_on_c, 1, 63, 127
1, 2096, Note_off_c, 1, 63, 0
1, 2104, Note_on_c, 1, 65, 127
1, 2156, Note_off_c, 1, 65, 0
1, 2164, Note_on_c, 1, 66, 127
1, 2216, Note_off_c, 1, 66, 0
1, 2224, Note_on_c, 1, 63, 127
1, 2276, Note_off_c, 1, 63, 0
1, 2284, Note_on_c, 1, 65, 127
1, 2389, Note_off_c, 1, 65, 0
1, 2524, Note_on_c, 1, 66, 127
1, 2629, Note_off_c, 1, 66, 0
1, 2644, Note_on_c, 1, 60, 127
1, 2749, Note_off_c, 1, 60, 0
1, 2764, Note_on_c, 1, 61, 127
1, 2816, Note_off_c, 1, 61, 0
1, 2824, Note_on_c, 1, 63, 127
1, 2876, Note_off_c, 1, 63, 0
1, 2884, Note_on_c, 1, 65, 127
1, 2884, Note_on_c, 1, 61, 127
1, 2989, Note_off_c, 1, 61, 0
1, 3004, Note_on_c, 1, 57, 127
1, 3109, Note_off_c, 1, 65, 0
1, 3109, Note_off_c, 1, 57, 0
1, 3124, Note_on_c, 1, 67, 127
1, 3124, Note_on_c, 1, 58, 127
1, 3229, Note_off_c, 1, 58, 0
1, 3244, Note_on_c, 1, 59, 127
1, 3349, Note_off_c, 1, 67, 0
1, 3349, Note_off_c, 1, 59, 0
1, 3364, Note_on_c, 1, 60, 127
1, 3484, Note_on_c, 1, 68, 127
1, 3589, Note_off_c, 1, 60, 0
1, 3589, Note_off_c, 1, 68, 0
1, 3604, Note_on_c, 1, 70, 127
1, 3709, Note_off_c, 1, 70, 0
1, 3724, Note_on_c, 1, 64, 127
1, 3724, Note_on_c, 1, 60, 127
1, 3829, Note_off_c, 1, 64, 0
1, 3829, Note_off_c, 1, 60, 0
1, 3844, Note_on_c, 1, 65, 127
1, 3844, Note_on_c, 1, 61, 127
1, 3949, Note_off_c, 1, 61, 0
1, 3964, Note_on_c, 1, 62, 127
1, 4069, Note_off_c, 1, 65, 0
1, 4069, Note_off_c, 1, 62, 0
1, 4084, Note_on_c, 1, 63, 127
1, 4189, Note_off_c, 1, 63, 0
1, 4204, Note_on_c, 1, 67, 127
1, 4204, Note_on_c, 1, 64, 127
1, 4309, Note_off_c, 1, 67, 0
1, 4309, Note_off_c, 1, 64, 0
1, 4324, Note_on_c, 1, 68, 127
1, 4324, Note_on_c, 1, 65, 127
1, 4376, Note_off_c, 1, 68, 0
1, 4444, Note_on_c, 1, 67, 127
1, 4496, Note_off_c, 1, 67, 0
1, 4564, Note_on_c, 1, 70, 127
1, 4616, Note_off_c, 1, 70, 0
1, 4804, Note_on_c, 1, 72, 127
1, 4856, Note_off_c, 1, 72, 0
1, 5044, Note_on_c, 1, 73, 127
1, 5096, Note_off_c, 1, 73, 0
1, 5149, Note_off_c, 1, 65, 0
1, 5164, Note_on_c, 1, 72, 127
1, 5164, Note_on_c, 1, 64, 127
1, 5216, Note_off_c, 1, 64, 0
1, 5224, Note_on_c, 1, 62, 127
1, 5269, Note_off_c, 1, 72, 0
1, 5276, Note_off_c, 1, 62, 0
1, 5284, Note_on_c, 1, 64, 127
1, 5404, Note_on_c, 1, 73, 127
1, 5509, Note_off_c, 1, 64, 0
1, 5509, Note_off_c, 1, 73, 0
1, 5524, Note_on_c, 1, 67, 127
1, 5629, Note_off_c, 1, 67, 0
1, 5644, Note_on_c, 1, 69, 127
1, 5644, Note_on_c, 1, 63, 127
1, 5696, Note_off_c, 1, 69, 0
1, 5704, Note_on_c, 1, 70, 127
1, 5756, Note_off_c, 1, 70, 0
1, 5869, Note_off_c, 1, 63, 0
1, 5884, Note_on_c, 1, 77, 127
1, 5884, Note_on_c, 1, 62, 127
1, 5936, Note_off_c, 1, 62, 0
1, 5944, Note_on_c, 1, 60, 127
1, 5989, Note_off_c, 1, 77, 0
1, 5996, Note_off_c, 1, 60, 0
1, 6004, Note_on_c, 1, 62, 127
1, 6124, Note_on_c, 1, 70, 127
1, 6229, Note_off_c, 1, 62, 0
1, 6229, Note_off_c, 1, 70, 0
1, 6244, Note_on_c, 1, 65, 127
1, 6349, Note_off_c, 1, 65, 0
1, 6364, Note_on_c, 1, 67, 127
1, 6364, Note_on_c, 1, 61, 127
1, 6416, Note_off_c, 1, 67, 0
1, 6424, Note_on_c, 1, 68, 127
1, 6476, Note_off_c, 1, 68, 0
1, 6589, Note_off_c, 1, 61, 0
1, 6604, Note_on_c, 1, 75, 127
1, 6604, Note_on_c, 1, 60, 127
1, 6656, Note_off_c, 1, 60, 0
1, 6664, Note_on_c, 1, 58, 127
1, 6716, Note_off_c, 1, 58, 0
1, 6829, Note_off_c, 1, 75, 0
1, 6844, Note_on_c, 1, 69, 127
1, 6844, Note_on_c, 1, 66, 127
1, 6949, Note_off_c, 1, 66, 0
1, 6964, Note_on_c, 1, 65, 127
1, 7069, Note_off_c, 1, 69, 0
1, 7069, Note_off_c, 1, 65, 0
1, 7084, Note_on_c, 1, 70, 127
1, 7084, Note_on_c, 1, 63, 127
1, 7136, Note_off_c, 1, 70, 0
1, 7144, Note_on_c, 1, 72, 127
1, 7196, Note_off_c, 1, 72, 0
1, 7204, Note_on_c, 1, 65, 127
1, 7204, Note_on_c, 1, 46, 127
1, 7309, Note_off_c, 1, 63, 0
1, 7309, Note_off_c, 1, 65, 0
1, 7324, Note_on_c, 1, 62, 127
1, 7429, Note_off_c, 1, 46, 0
1, 7429, Note_off_c, 1, 62, 0
1, 7444, Note_on_c, 1, 48, 127
1, 7564, Note_on_c, 1, 69, 127
1, 7564, Note_on_c, 1, 64, 127
1, 7616, Note_off_c, 1, 69, 0
1, 7624, Note_on_c, 1, 67, 127
1, 7669, Note_off_c, 1, 48, 0
1, 7669, Note_off_c, 1, 64, 0
1, 7676, Note_off_c, 1, 67, 0
1, 7684, Note_on_c, 1, 69, 127
1, 7684, Note_on_c, 1, 65, 127
1, 7789, Note_off_c, 1, 69, 0
1, 7804, Note_on_c, 1, 70, 127
1, 7804, Note_on_c, 1, 49, 127
1, 7909, Note_off_c, 1, 65, 0
1, 7909, Note_off_c, 1, 70, 0
1, 7909, Note_off_c, 1, 49, 0
1, 7924, Note_on_c, 1, 72, 127
1, 7924, Note_on_c, 1, 51, 127
1, 7976, Note_off_c, 1, 72, 0
1, 7984, Note_on_c, 1, 73, 127
1, 8029, Note_off_c, 1, 51, 0
1, 8036, Note_off_c, 1, 73, 0
1, 8044, Note_on_c, 1, 75, 127
1, 8044, Note_on_c, 1, 65, 127
1, 8044, Note_on_c, 1, 45, 127
1, 8149, Note_off_c, 1, 65, 0
1, 8149, Note_off_c, 1, 45, 0
1, 8164, Note_on_c, 1, 66, 127
1, 8164, Note_on_c, 1, 46, 127
1, 8269, Note_off_c, 1, 75, 0
1, 8269, Note_off_c, 1, 66, 0
1, 8284, Note_on_c, 1, 73, 127
1, 8284, Note_on_c, 1, 67, 127
1, 8389, Note_off_c, 1, 46, 0
1, 8389, Note_off_c, 1, 73, 0
1, 8389, Note_off_c, 1, 67, 0
1, 8404, Note_on_c, 1, 72, 127
1, 8404, Note_on_c, 1, 68, 127
1, 8456, Note_off_c, 1, 72, 0
1, 8464, Note_on_c, 1, 75, 127
1, 8509, Note_off_c, 1, 68, 0
1, 8516, Note_off_c, 1, 75, 0
1, 8524, Note_on_c, 1, 78, 127
1, 8524, Note_on_c, 1, 69, 127
1, 8524, Note_on_c, 1, 48, 127
1, 8629, Note_off_c, 1, 78, 0
1, 8629, Note_off_c, 1, 69, 0
1, 8629, Note_off_c, 1, 48, 0
1, 8644, Note_on_c, 1, 77, 127
1, 8644, Note_on_c, 1, 70, 127
1, 8644, Note_on_c, 1, 49, 127
1, 8696, Note_off_c, 1, 49, 0
1, 8704, Note_on_c, 1, 46, 127
1, 8749, Note_off_c, 1, 77, 0
1, 8756, Note_off_c, 1, 46, 0
1, 8764, Note_on_c, 1, 48, 127
1, 8816, Note_off_c, 1, 48, 0
1, 8884, Note_on_c, 1, 72, 127
1, 8884, Note_on_c, 1, 51, 127
1, 8936, Note_off_c, 1, 51, 0
1, 8989, Note_off_c, 1, 72, 0
1, 9124, Note_on_c, 1, 73, 127
1, 9124, Note_on_c, 1, 53, 127
1, 9176, Note_off_c, 1, 53, 0
1, 9229, Note_off_c, 1, 73, 0
1, 9364, Note_on_c, 1, 75, 127
1, 9364, Note_on_c, 1, 54, 127
1, 9416, Note_off_c, 1, 54, 0
1, 9469, Note_off_c, 1, 70, 0
1, 9484, Note_on_c, 1, 69, 127
1, 9536, Note_off_c, 1, 69, 0
1, 9544, Note_on_c, 1, 67, 127
1, 9596, Note_off_c, 1, 67, 0
1, 9656, Note_off_c, 1, 75, 0
1, 9844, Note_on_c, 1, 75, 127
1, 9844, Note_on_c, 1, 48, 127
1, 9949, Note_off_c, 1, 75, 0
1, 9949, Note_off_c, 1, 48, 0
1, 9964, Note_on_c, 1, 72, 127
1, 9964, Note_on_c, 1, 68, 127
1, 9964, Note_on_c, 1, 50, 127
1, 10016, Note_off_c, 1, 50, 0
1, 10024, Note_on_c, 1, 51, 127
1, 10069, Note_off_c, 1, 72, 0
1, 10076, Note_off_c, 1, 51, 0
1, 10084, Note_on_c, 1, 77, 127
1, 10189, Note_off_c, 1, 68, 0
1, 10189, Note_off_c, 1, 77, 0
1, 10204, Note_on_c, 1, 74, 127
1, 10204, Note_on_c, 1, 67, 127
1, 10204, Note_on_c, 1, 58, 127
1, 10256, Note_off_c, 1, 67, 0
1, 10264, Note_on_c, 1, 65, 127
1, 10309, Note_off_c, 1, 74, 0
1, 10309, Note_off_c, 1, 58, 0
1, 10316, Note_off_c, 1, 65, 0
1, 10324, Note_on_c, 1, 70, 127
1, 10324, Note_on_c, 1, 67, 127
1, 10376, Note_off_c, 1, 70, 0
1, 10384, Note_on_c, 1, 68, 127
1, 10436, Note_off_c, 1, 68, 0
1, 10444, Note_on_c, 1, 51, 127
1, 10504, Note_on_c, 1, 72, 127
1, 10549, Note_off_c, 1, 67, 0
1, 10549, Note_off_c, 1, 51, 0
1, 10556, Note_off_c, 1, 72, 0
1, 10564, Note_on_c, 1, 73, 127
1, 10564, Note_on_c, 1, 46, 127
1, 10669, Note_off_c, 1, 73, 0
1, 10669, Note_off_c, 1, 46, 0
1, 10684, Note_on_c, 1, 70, 127
1, 10684, Note_on_c, 1, 66, 127
1, 10684, Note_on_c, 1, 48, 127
1, 10736, Note_off_c, 1, 48, 0
1, 10744, Note_on_c, 1, 49, 127
1, 10789, Note_off_c, 1, 70, 0
1, 10796, Note_off_c, 1, 49, 0
1, 10804, Note_on_c, 1, 75, 127
1, 10909, Note_off_c, 1, 66, 0
1, 10909, Note_off_c, 1, 75, 0
1, 10924, Note_on_c, 1, 72, 127
1, 10924, Note_on_c, 1, 65, 127
1, 10924, Note_on_c, 1, 44, 127
1, 10976, Note_off_c, 1, 65, 0
1, 10984, Note_on_c, 1, 63, 127
1, 11029, Note_off_c, 1, 72, 0
1, 11029, Note_off_c, 1, 44, 0
1, 11036, Note_off_c, 1, 63, 0
1, 11044, Note_on_c, 1, 68, 127
1, 11044, Note_on_c, 1, 65, 127
1, 11044, Note_on_c, 1, 49, 127
1, 11149, Note_off_c, 1, 68, 0
1, 11149, Note_off_c, 1, 49, 0
1, 11164, Note_on_c, 1, 73, 127
1, 11164, Note_on_c, 1, 48, 127
1, 11216, Note_off_c, 1, 48, 0
1, 11224, Note_on_c, 1, 46, 127
1, 11269, Note_off_c, 1, 73, 0
1, 11276, Note_off_c, 1, 46, 0
1, 11284, Note_on_c, 1, 72, 127
1, 11284, Note_on_c, 1, 44, 127
1, 11389, Note_off_c, 1, 65, 0
1, 11389, Note_off_c, 1, 72, 0
1, 11389, Note_off_c, 1, 44, 0
1, 11404, Note_on_c, 1, 64, 127
1, 11404, Note_on_c, 1, 58, 127
1, 11404, Note_on_c, 1, 43, 127
1, 11509, Note_off_c, 1, 64, 0
1, 11509, Note_off_c, 1, 58, 0
1, 11509, Note_off_c, 1, 43, 0
1, 11524, Note_on_c, 1, 65, 127
1, 11524, Note_on_c, 1, 60, 127
1, 11524, Note_on_c, 1, 53, 127
1, 11524, Note_on_c, 1, 44, 127
1, 11629, Note_off_c, 1, 60, 0
1, 11629, Note_off_c, 1, 44, 0
1, 11644, Note_on_c, 1, 61, 127
1, 11644, Note_on_c, 1, 45, 127
1, 11696, Note_off_c, 1, 61, 0
1, 11704, Note_on_c, 1, 63, 127
1, 11749, Note_off_c, 1, 53, 0
1, 11749, Note_off_c, 1, 45, 0
1, 11756, Note_off_c, 1, 63, 0
1, 11764, Note_on_c, 1, 55, 127
1, 11764, Note_on_c, 1, 46, 127
1, 11869, Note_off_c, 1, 65, 0
1, 11869, Note_off_c, 1, 46, 0
1, 11884, Note_on_c, 1, 64, 127
1, 11884, Note_on_c, 1, 47, 127
1, 11936, Note_off_c, 1, 64, 0
1, 11944, Note_on_c, 1, 62, 127
1, 11989, Note_off_c, 1, 55, 0
1, 11989, Note_off_c, 1, 47, 0
1, 11996, Note_off_c, 1, 62, 0
1, 12004, Note_on_c, 1, 64, 127
1, 12004, Note_on_c, 1, 48, 127
1, 12109, Note_off_c, 1, 64, 0
1, 12124, Note_on_c, 1, 72, 127
1, 12124, Note_on_c, 1, 56, 127
1, 12229, Note_off_c, 1, 48, 0
1, 12229, Note_off_c, 1, 72, 0
1, 12229, Note_off_c, 1, 56, 0
1, 12244, Note_on_c, 1, 73, 127
1, 12244, Note_on_c, 1, 58, 127
1, 12349, Note_off_c, 1, 73, 0
1, 12349, Note_off_c, 1, 58, 0
1, 12364, Note_on_c, 1, 72, 127
1, 12364, Note_on_c, 1, 68, 127
1, 12364, Note_on_c, 1, 52, 127
1, 12364, Note_on_c, 1, 48, 127
1, 12469, Note_off_c, 1, 52, 0
1, 12469, Note_off_c, 1, 48, 0
1, 12484, Note_on_c, 1, 53, 127
1, 12484, Note_on_c, 1, 49, 127
1, 12589, Note_off_c, 1, 72, 0
1, 12589, Note_off_c, 1, 68, 0
1, 12589, Note_off_c, 1, 49, 0
1, 12604, Note_on_c, 1, 71, 127
1, 12604, Note_on_c, 1, 67, 127
1, 12604, Note_on_c, 1, 50, 127
1, 12656, Note_off_c, 1, 67, 0
1, 12664, Note_on_c, 1, 65, 127
1, 12709, Note_off_c, 1, 53, 0
1, 12709, Note_off_c, 1, 71, 0
1, 12709, Note_off_c, 1, 50, 0
1, 12716, Note_off_c, 1, 65, 0
1, 12724, Note_on_c, 1, 72, 127
1, 12724, Note_on_c, 1, 67, 127
1, 12724, Note_on_c, 1, 51, 127
1, 12776, Note_off_c, 1, 67, 0
1, 12784, Note_on_c, 1, 68, 127
1, 12829, Note_off_c, 1, 51, 0
1, 12836, Note_off_c, 1, 68, 0
1, 12844, Note_on_c, 1, 70, 127
1, 12844, Note_on_c, 1, 55, 127
1, 12844, Note_on_c, 1, 52, 127
1, 12949, Note_off_c, 1, 70, 0
1, 12949, Note_off_c, 1, 55, 0
1, 12949, Note_off_c, 1, 52, 0
1, 12964, Note_on_c, 1, 56, 127
1, 12964, Note_on_c, 1, 53, 127
1, 13016, Note_off_c, 1, 56, 0
1, 13069, Note_off_c, 1, 72, 0
1, 13204, Note_on_c, 1, 76, 127
1, 13204, Note_on_c, 1, 58, 127
1, 13256, Note_off_c, 1, 58, 0
1, 13309, Note_off_c, 1, 76, 0
1, 13444, Note_on_c, 1, 77, 127
1, 13444, Note_on_c, 1, 60, 127
1, 13496, Note_off_c, 1, 60, 0
1, 13549, Note_off_c, 1, 77, 0
1, 13684, Note_on_c, 1, 79, 127
1, 13684, Note_on_c, 1, 61, 127
1, 13736, Note_off_c, 1, 61, 0
1, 13789, Note_off_c, 1, 53, 0
1, 13864, Note_on_c, 1, 50, 127
1, 13916, Note_off_c, 1, 50, 0
1, 14509, Note_off_c, 1, 79, 0
1, 14524, Note_on_c, 1, 77, 127
1, 14524, Note_on_c, 1, 53, 127
1, 14576, Note_off_c, 1, 77, 0
1, 14576, Note_off_c, 1, 53, 0
1, 14584, Note_on_c, 1, 76, 127
1, 14584, Note_on_c, 1, 55, 127
1, 14636, Note_off_c, 1, 76, 0
1, 14636, Note_off_c, 1, 55, 0
1, 14644, Note_on_c, 1, 77, 127
1, 14644, Note_on_c, 1, 72, 127
1, 14644, Note_on_c, 1, 56, 127
1, 14749, Note_off_c, 1, 72, 0
1, 14749, Note_off_c, 1, 56, 0
1, 14764, Note_on_c, 1, 65, 127
1, 14869, Note_off_c, 1, 65, 0
1, 14884, Note_on_c, 1, 60, 127
1, 14884, Note_on_c, 1, 57, 127
1, 14989, Note_off_c, 1, 60, 0
1, 14989, Note_off_c, 1, 57, 0
1, 15004, Note_on_c, 1, 61, 127
1, 15056, Note_off_c, 1, 61, 0
1, 15064, Note_on_c, 1, 63, 127
1, 15116, Note_off_c, 1, 63, 0
1, 15124, Note_on_c, 1, 70, 127
1, 15124, Note_on_c, 1, 58, 127
1, 15176, Note_off_c, 1, 70, 0
1, 15229, Note_off_c, 1, 58, 0
1, 15244, Note_on_c, 1, 73, 127
1, 15244, Note_on_c, 1, 53, 127
1, 15244, Note_on_c, 1, 46, 127
1, 15296, Note_off_c, 1, 46, 0
1, 15304, Note_on_c, 1, 48, 127
1, 15349, Note_off_c, 1, 73, 0
1, 15349, Note_off_c, 1, 53, 0
1, 15356, Note_off_c, 1, 48, 0
1, 15364, Note_on_c, 1, 49, 127
1, 15469, Note_off_c, 1, 49, 0
1, 15604, Note_on_c, 1, 59, 127
1, 15604, Note_on_c, 1, 50, 127
1, 15709, Note_off_c, 1, 59, 0
1, 15709, Note_off_c, 1, 50, 0
1, 15724, Note_on_c, 1, 66, 127
1, 15776, Note_off_c, 1, 66, 0
1, 15784, Note_on_c, 1, 68, 127
1, 15836, Note_off_c, 1, 68, 0
1, 15844, Note_on_c, 1, 51, 127
1, 15896, Note_off_c, 1, 51, 0
1, 15949, Note_off_c, 1, 77, 0
1, 15964, Note_on_c, 1, 78, 127
1, 15964, Note_on_c, 1, 63, 127
1, 15964, Note_on_c, 1, 51, 127
1, 16016, Note_off_c, 1, 78, 0
1, 16016, Note_off_c, 1, 51, 0
1, 16024, Note_on_c, 1, 77, 127
1, 16024, Note_on_c, 1, 53, 127
1, 16069, Note_off_c, 1, 63, 0
1, 16076, Note_off_c, 1, 77, 0
1, 16076, Note_off_c, 1, 53, 0
1, 16084, Note_on_c, 1, 75, 127
1, 16084, Note_on_c, 1, 70, 127
1, 16084, Note_on_c, 1, 54, 127
1, 16189, Note_off_c, 1, 70, 0
1, 16189, Note_off_c, 1, 54, 0
1, 16204, Note_on_c, 1, 63, 127
1, 16309, Note_off_c, 1, 63, 0
1, 16324, Note_on_c, 1, 58, 127
1, 16324, Note_on_c, 1, 55, 127
1, 16429, Note_off_c, 1, 58, 0
1, 16429, Note_off_c, 1, 55, 0
1, 16444, Note_on_c, 1, 60, 127
1, 16496, Note_off_c, 1, 60, 0
1, 16504, Note_on_c, 1, 61, 127
1, 16556, Note_off_c, 1, 61, 0
1, 16564, Note_on_c, 1, 68, 127
1, 16564, Note_on_c, 1, 56, 127
1, 16616, Note_off_c, 1, 68, 0
1, 16669, Note_off_c, 1, 56, 0
1, 16684, Note_on_c, 1, 72, 127
1, 16684, Note_on_c, 1, 51, 127
1, 16684, Note_on_c, 1, 44, 127
1, 16736, Note_off_c, 1, 44, 0
1, 16744, Note_on_c, 1, 46, 127
1, 16789, Note_off_c, 1, 72, 0
1, 16789, Note_off_c, 1, 51, 0
1, 16796, Note_off_c, 1, 46, 0
1, 16804, Note_on_c, 1, 48, 127
1, 16909, Note_off_c, 1, 48, 0
1, 17164, Note_on_c, 1, 65, 127
1, 17216, Note_off_c, 1, 65, 0
1, 17224, Note_on_c, 1, 66, 127
1, 17276, Note_off_c, 1, 66, 0
1, 17284, Note_on_c, 1, 49, 127
1, 17284, Note_on_c, 1, 37, 127
1, 17389, Note_off_c, 1, 75, 0
1, 17389, Note_off_c, 1, 49, 0
1, 17389, Note_off_c, 1, 37, 0
1, 17404, Note_on_c, 1, 73, 127
1, 17404, Note_on_c, 1, 66, 127
1, 17404, Note_on_c, 1, 51, 127
1, 17456, Note_off_c, 1, 73, 0
1, 17464, Note_on_c, 1, 72, 127
1, 17509, Note_off_c, 1, 66, 0
1, 17509, Note_off_c, 1, 51, 0
1, 17516, Note_off_c, 1, 72, 0
1, 17524, Note_on_c, 1, 73, 127
1, 17524, Note_on_c, 1, 68, 127
1, 17524, Note_on_c, 1, 53, 127
1, 17629, Note_off_c, 1, 73, 0
1, 17629, Note_off_c, 1, 53, 0
1, 17644, Note_on_c, 1, 77, 127
1, 17644, Note_on_c, 1, 49, 127
1, 17749, Note_off_c, 1, 77, 0
1, 17749, Note_off_c, 1, 49, 0
1, 17764, Note_on_c, 1, 70, 127
1, 17764, Note_on_c, 1, 54, 127
1, 17869, Note_off_c, 1, 68, 0
1, 17869, Note_off_c, 1, 70, 0
1, 17869, Note_off_c, 1, 54, 0
1, 17884, Note_on_c, 1, 73, 127
1, 17884, Note_on_c, 1, 66, 127
1, 17884, Note_on_c, 1, 58, 127
1, 17936, Note_off_c, 1, 66, 0
1, 17944, Note_on_c, 1, 65, 127
1, 17989, Note_off_c, 1, 58, 0
1, 17996, Note_off_c, 1, 65, 0
1, 18004, Note_on_c, 1, 51, 127
1, 18109, Note_off_c, 1, 73, 0
1, 18109, Note_off_c, 1, 51, 0
1, 18124, Note_on_c, 1, 72, 127
1, 18124, Note_on_c, 1, 63, 127
1, 18124, Note_on_c, 1, 54, 127
1, 18176, Note_off_c, 1, 72, 0
1, 18184, Note_on_c, 1, 73, 127
1, 18229, Note_off_c, 1, 63, 0
1, 18229, Note_off_c, 1, 54, 0
1, 18236, Note_off_c, 1, 73, 0
1, 18244, Note_on_c, 1, 75, 127
1, 18244, Note_on_c, 1, 48, 127
1, 18349, Note_off_c, 1, 75, 0
1, 18349, Note_off_c, 1, 48, 0
1, 18364, Note_on_c, 1, 72, 127
1, 18364, Note_on_c, 1, 66, 127
1, 18364, Note_on_c, 1, 51, 127
1, 18469, Note_off_c, 1, 72, 0
1, 18469, Note_off_c, 1, 51, 0
1, 18484, Note_on_c, 1, 69, 127
1, 18484, Note_on_c, 1, 53, 127
1, 18589, Note_off_c, 1, 66, 0
1, 18589, Note_off_c, 1, 69, 0
1, 18589, Note_off_c, 1, 53, 0
1, 18604, Note_on_c, 1, 72, 127
1, 18604, Note_on_c, 1, 65, 127
1, 18604, Note_on_c, 1, 57, 127
1, 18656, Note_off_c, 1, 65, 0
1, 18664, Note_on_c, 1, 63, 127
1, 18709, Note_off_c, 1, 57, 0
1, 18716, Note_off_c, 1, 63, 0
1, 18724, Note_on_c, 1, 61, 127
1, 18724, Note_on_c, 1, 58, 127
1, 18829, Note_off_c, 1, 72, 0
1, 18829, Note_off_c, 1, 61, 0
1, 18844, Note_on_c, 1, 70, 127
1, 18949, Note_off_c, 1, 58, 0
1, 18949, Note_off_c, 1, 70, 0
1, 18964, Note_on_c, 1, 69, 127
1, 18964, Note_on_c, 1, 60, 127
1, 19084, Note_on_c, 1, 78, 127
1, 19189, Note_off_c, 1, 69, 0
1, 19189, Note_off_c, 1, 60, 0
1, 19204, Note_on_c, 1, 70, 127
1, 19256, Note_off_c, 1, 78, 0
1, 19264, Note_on_c, 1, 77, 127
1, 19316, Note_off_c, 1, 77, 0
1, 19324, Note_on_c, 1, 75, 127
1, 19324, Note_on_c, 1, 61, 127
1, 19376, Note_off_c, 1, 75, 0
1, 19384, Note_on_c, 1, 73, 127
1, 19429, Note_off_c, 1, 70, 0
1, 19429, Note_off_c, 1, 61, 0
1, 19436, Note_off_c, 1, 73, 0
1, 19444, Note_on_c, 1, 72, 127
1, 19444, Note_on_c, 1, 63, 127
1, 19496, Note_off_c, 1, 72, 0
1, 19504, Note_on_c, 1, 73, 127
1, 19549, Note_off_c, 1, 63, 0
1, 19556, Note_off_c, 1, 73, 0
1, 19564, Note_on_c, 1, 75, 127
1, 19564, Note_on_c, 1, 72, 127
1, 19564, Note_on_c, 1, 57, 127
1, 19669, Note_off_c, 1, 75, 0
1, 19669, Note_off_c, 1, 72, 0
1, 19669, Note_off_c, 1, 57, 0
1, 19684, Note_on_c, 1, 73, 127
1, 19684, Note_on_c, 1, 58, 127
1, 19789, Note_off_c, 1, 73, 0
1, 19804, Note_on_c, 1, 82, 127
1, 19804, Note_on_c, 1, 67, 127
1, 19909, Note_off_c, 1, 58, 0
1, 19909, Note_off_c, 1, 82, 0
1, 19909, Note_off_c, 1, 67, 0
1, 19924, Note_on_c, 1, 84, 127
1, 19924, Note_on_c, 1, 69, 127
1, 20029, Note_off_c, 1, 84, 0
1, 20044, Note_on_c, 1, 75, 127
1, 20044, Note_on_c, 1, 60, 127
1, 20149, Note_off_c, 1, 69, 0
1, 20149, Note_off_c, 1, 60, 0
1, 20164, Note_on_c, 1, 61, 127
1, 20216, Note_off_c, 1, 61, 0
1, 20224, Note_on_c, 1, 58, 127
1, 20269, Note_off_c, 1, 75, 0
1, 20276, Note_off_c, 1, 58, 0
1, 20284, Note_on_c, 1, 73, 127
1, 20284, Note_on_c, 1, 70, 127
1, 20284, Note_on_c, 1, 60, 127
1, 20336, Note_off_c, 1, 60, 0
1, 20344, Note_on_c, 1, 61, 127
1, 20389, Note_off_c, 1, 73, 0
1, 20389, Note_off_c, 1, 70, 0
1, 20396, Note_off_c, 1, 61, 0
1, 20404, Note_on_c, 1, 78, 127
1, 20404, Note_on_c, 1, 72, 127
1, 20404, Note_on_c, 1, 63, 127
1, 20456, Note_off_c, 1, 72, 0
1, 20456, Note_off_c, 1, 63, 0
1, 20464, Note_on_c, 1, 69, 127
1, 20464, Note_on_c, 1, 60, 127
1, 20509, Note_off_c, 1, 78, 0
1, 20516, Note_off_c, 1, 69, 0
1, 20516, Note_off_c, 1, 60, 0
1, 20524, Note_on_c, 1, 70, 127
1, 20524, Note_on_c, 1, 61, 127
1, 20576, Note_off_c, 1, 70, 0
1, 20576, Note_off_c, 1, 61, 0
1, 20584, Note_on_c, 1, 72, 127
1, 20584, Note_on_c, 1, 63, 127
1, 20636, Note_off_c, 1, 72, 0
1, 20636, Note_off_c, 1, 63, 0
1, 20644, Note_on_c, 1, 77, 127
1, 20644, Note_on_c, 1, 73, 127
1, 20644, Note_on_c, 1, 65, 127
1, 20696, Note_off_c, 1, 73, 0
1, 20696, Note_off_c, 1, 65, 0
1, 20704, Note_on_c, 1, 70, 127
1, 20704, Note_on_c, 1, 61, 127
1, 20749, Note_off_c, 1, 77, 0
1, 20756, Note_off_c, 1, 70, 0
1, 20756, Note_off_c, 1, 61, 0
1, 20764, Note_on_c, 1, 72, 127
1, 20764, Note_on_c, 1, 63, 127
1, 20816, Note_off_c, 1, 72, 0
1, 20816, Note_off_c, 1, 63, 0
1, 20824, Note_on_c, 1, 73, 127
1, 20824, Note_on_c, 1, 65, 127
1, 20876, Note_off_c, 1, 73, 0
1, 20876, Note_off_c, 1, 65, 0
1, 20884, Note_on_c, 1, 82, 127
1, 20884, Note_on_c, 1, 75, 127
1, 20884, Note_on_c, 1, 66, 127
1, 20936, Note_off_c, 1, 75, 0
1, 20936, Note_off_c, 1, 66, 0
1, 20944, Note_on_c, 1, 72, 127
1, 20944, Note_on_c, 1, 63, 127
1, 20989, Note_off_c, 1, 82, 0
1, 20996, Note_off_c, 1, 72, 0
1, 20996, Note_off_c, 1, 63, 0
1, 21004, Note_on_c, 1, 73, 127
1, 21004, Note_on_c, 1, 65, 127
1, 21056, Note_off_c, 1, 73, 0
1, 21064, Note_on_c, 1, 75, 127
1, 21109, Note_off_c, 1, 65, 0
1, 21116, Note_off_c, 1, 75, 0
1, 21124, Note_on_c, 1, 81, 127
1, 21124, Note_on_c, 1, 77, 127
1, 21176, Note_off_c, 1, 77, 0
1, 21184, Note_on_c, 1, 73, 127
1, 21236, Note_off_c, 1, 73, 0
1, 21244, Note_on_c, 1, 75, 127
1, 21244, Note_on_c, 1, 66, 127
1, 21349, Note_off_c, 1, 75, 0
1, 21349, Note_off_c, 1, 66, 0
1, 21364, Note_on_c, 1, 60, 127
1, 21469, Note_off_c, 1, 60, 0
1, 21484, Note_on_c, 1, 61, 127
1, 21536, Note_off_c, 1, 61, 0
1, 21544, Note_on_c, 1, 63, 127
1, 21589, Note_off_c, 1, 81, 0
1, 21596, Note_off_c, 1, 63, 0
1, 21604, Note_on_c, 1, 82, 127
1, 21604, Note_on_c, 1, 70, 127
1, 21604, Note_on_c, 1, 61, 127
1, 21709, Note_off_c, 1, 82, 0
1, 21709, Note_off_c, 1, 70, 0
1, 21709, Note_off_c, 1, 61, 0
1, 21724, Note_on_c, 1, 72, 127
1, 21724, Note_on_c, 1, 58, 127
1, 21776, Note_off_c, 1, 72, 0
1, 21784, Note_on_c, 1, 73, 127
1, 21829, Note_off_c, 1, 58, 0
1, 21836, Note_off_c, 1, 73, 0
1, 21844, Note_on_c, 1, 72, 127
1, 21844, Note_on_c, 1, 63, 127
1, 21949, Note_off_c, 1, 72, 0
1, 21949, Note_off_c, 1, 63, 0
1, 21964, Note_on_c, 1, 70, 127
1, 21964, Note_on_c, 1, 65, 127
1, 22016, Note_off_c, 1, 65, 0
1, 22024, Note_on_c, 1, 66, 127
1, 22069, Note_off_c, 1, 70, 0
1, 22076, Note_off_c, 1, 66, 0
1, 22084, Note_on_c, 1, 69, 127
1, 22084, Note_on_c, 1, 65, 127
1, 22189, Note_off_c, 1, 69, 0
1, 22189, Note_off_c, 1, 65, 0
1, 22204, Note_on_c, 1, 70, 127
1, 22204, Note_on_c, 1, 63, 127
1, 22256, Note_off_c, 1, 70, 0
1, 22264, Note_on_c, 1, 72, 127
1, 22309, Note_off_c, 1, 63, 0
1, 22316, Note_off_c, 1, 72, 0
1, 22324, Note_on_c, 1, 70, 127
1, 22324, Note_on_c, 1, 62, 127
1, 22429, Note_off_c, 1, 70, 0
1, 22429, Note_off_c, 1, 62, 0
1, 22444, Note_on_c, 1, 68, 127
1, 22444, Note_on_c, 1, 63, 127
1, 22496, Note_off_c, 1, 63, 0
1, 22504, Note_on_c, 1, 65, 127
1, 22549, Note_off_c, 1, 68, 0
1, 22556, Note_off_c, 1, 65, 0
1, 22564, Note_on_c, 1, 67, 127
1, 22564, Note_on_c, 1, 63, 127
1, 22669, Note_off_c, 1, 67, 0
1, 22669, Note_off_c, 1, 63, 0
1, 22684, Note_on_c, 1, 68, 127
1, 22684, Note_on_c, 1, 61, 127
1, 22736, Note_off_c, 1, 68, 0
1, 22744, Note_on_c, 1, 70, 127
1, 22789, Note_off_c, 1, 61, 0
1, 22796, Note_off_c, 1, 70, 0
1, 22804, Note_on_c, 1, 68, 127
1, 22804, Note_on_c, 1, 60, 127
1, 22909, Note_off_c, 1, 68, 0
1, 22909, Note_off_c, 1, 60, 0
1, 22924, Note_on_c, 1, 66, 127
1, 22924, Note_on_c, 1, 61, 127
1, 22976, Note_off_c, 1, 61, 0
1, 22984, Note_on_c, 1, 63, 127
1, 23029, Note_off_c, 1, 66, 0
1, 23036, Note_off_c, 1, 63, 0
1, 23044, Note_on_c, 1, 73, 127
1, 23044, Note_on_c, 1, 65, 127
1, 23044, Note_on_c, 1, 61, 127
1, 23149, Note_off_c, 1, 65, 0
1, 23149, Note_off_c, 1, 61, 0
1, 23164, Note_on_c, 1, 63, 127
1, 23164, Note_on_c, 1, 60, 127
1, 23216, Note_off_c, 1, 63, 0
1, 23216, Note_off_c, 1, 60, 0
1, 23224, Note_on_c, 1, 58, 127
1, 23269, Note_off_c, 1, 73, 0
1, 23276, Note_off_c, 1, 58, 0
1, 23284, Note_on_c, 1, 75, 127
1, 23284, Note_on_c, 1, 66, 127
1, 23284, Note_on_c, 1, 56, 127
1, 23284, Note_on_c, 1, 48, 127
1, 23389, Note_off_c, 1, 66, 0
1, 23404, Note_on_c, 1, 65, 127
1, 23456, Note_off_c, 1, 65, 0
1, 23464, Note_on_c, 1, 63, 127
1, 23509, Note_off_c, 1, 75, 0
1, 23509, Note_off_c, 1, 48, 0
1, 23516, Note_off_c, 1, 63, 0
1, 23524, Note_on_c, 1, 61, 127
1, 23524, Note_on_c, 1, 49, 127
1, 23629, Note_off_c, 1, 61, 0
1, 23644, Note_on_c, 1, 77, 127
1, 23644, Note_on_c, 1, 73, 127
1, 23749, Note_off_c, 1, 49, 0
1, 23749, Note_off_c, 1, 77, 0
1, 23749, Note_off_c, 1, 73, 0
1, 23764, Note_on_c, 1, 78, 127
1, 23764, Note_on_c, 1, 72, 127
1, 23816, Note_off_c, 1, 72, 0
1, 23824, Note_on_c, 1, 70, 127
1, 23869, Note_off_c, 1, 78, 0
1, 23876, Note_off_c, 1, 70, 0
1, 23884, Note_on_c, 1, 68, 127
1, 23884, Note_on_c, 1, 51, 127
1, 23936, Note_off_c, 1, 68, 0
1, 23989, Note_off_c, 1, 51, 0
1, 24004, Note_on_c, 1, 53, 127
1, 24109, Note_off_c, 1, 53, 0
1, 24124, Note_on_c, 1, 46, 127
1, 24229, Note_off_c, 1, 46, 0
1, 24296, Note_off_c, 1, 56, 0
1, 24304, Note_on_c, 1, 54, 127
1, 24356, Note_off_c, 1, 54, 0
1, 24724, Note_on_c, 1, 60, 127
1, 24829, Note_off_c, 1, 60, 0
1, 24964, Note_on_c, 1, 80, 127
1, 24964, Note_on_c, 1, 73, 127
1, 24964, Note_on_c, 1, 56, 127
1, 24964, Note_on_c, 1, 53, 127
1, 25016, Note_off_c, 1, 80, 0
1, 25016, Note_off_c, 1, 53, 0
1, 25024, Note_on_c, 1, 77, 127
1, 25024, Note_on_c, 1, 49, 127
1, 25069, Note_off_c, 1, 56, 0
1, 25076, Note_off_c, 1, 77, 0
1, 25076, Note_off_c, 1, 49, 0
1, 25084, Note_on_c, 1, 78, 127
1, 25084, Note_on_c, 1, 51, 127
1, 25136, Note_off_c, 1, 78, 0
1, 25136, Note_off_c, 1, 51, 0
1, 25204, Note_on_c, 1, 82, 127
1, 25204, Note_on_c, 1, 63, 127
1, 25204, Note_on_c, 1, 54, 127
1, 25256, Note_off_c, 1, 82, 0
1, 25256, Note_off_c, 1, 54, 0
1, 25309, Note_off_c, 1, 63, 0
1, 25444, Note_on_c, 1, 65, 127
1, 25549, Note_off_c, 1, 65, 0
1, 25624, Note_on_c, 1, 61, 127
1, 25669, Note_off_c, 1, 73, 0
1, 25676, Note_off_c, 1, 61, 0
1, 25684, Note_on_c, 1, 75, 127
1, 25684, Note_on_c, 1, 72, 127
1, 25684, Note_on_c, 1, 68, 127
1, 25789, Note_off_c, 1, 75, 0
1, 25804, Note_on_c, 1, 77, 127
1, 25804, Note_on_c, 1, 56, 127
1, 25856, Note_off_c, 1, 77, 0
1, 25864, Note_on_c, 1, 78, 127
1, 25909, Note_off_c, 1, 72, 0
1, 25909, Note_off_c, 1, 56, 0
1, 25916, Note_off_c, 1, 78, 0
1, 25924, Note_on_c, 1, 49, 127
1, 26029, Note_off_c, 1, 49, 0
1, 26044, Note_on_c, 1, 73, 127
1, 26044, Note_on_c, 1, 51, 127
1, 26096, Note_off_c, 1, 51, 0
1, 26104, Note_on_c, 1, 53, 127
1, 26149, Note_off_c, 1, 68, 0
1, 26149, Note_off_c, 1, 73, 0
1, 26156, Note_off_c, 1, 53, 0
1, 26164, Note_on_c, 1, 78, 127
1, 26164, Note_on_c, 1, 72, 127
1, 26164, Note_on_c, 1, 51, 127
1, 26269, Note_off_c, 1, 78, 0
1, 26269, Note_off_c, 1, 72, 0
1, 26269, Note_off_c, 1, 51, 0
1, 26284, Note_on_c, 1, 71, 127
1, 26284, Note_on_c, 1, 53, 127
1, 26336, Note_off_c, 1, 53, 0
1, 26344, Note_on_c, 1, 54, 127
1, 26396, Note_off_c, 1, 54, 0
1, 26404, Note_on_c, 1, 80, 127
1, 26509, Note_off_c, 1, 71, 0
1, 26509, Note_off_c, 1, 80, 0
1, 26524, Note_on_c, 1, 70, 127
1, 26524, Note_on_c, 1, 49, 127
1, 26576, Note_off_c, 1, 70, 0
1, 26584, Note_on_c, 1, 68, 127
1, 26629, Note_off_c, 1, 49, 0
1, 26636, Note_off_c, 1, 68, 0
1, 26644, Note_on_c, 1, 70, 127
1, 26644, Note_on_c, 1, 54, 127
1, 26749, Note_off_c, 1, 70, 0
1, 26749, Note_off_c, 1, 54, 0
1, 26764, Note_on_c, 1, 78, 127
1, 26764, Note_on_c, 1, 56, 127
1, 26816, Note_off_c, 1, 56, 0
1, 26824, Note_on_c, 1, 58, 127
1, 26869, Note_off_c, 1, 78, 0
1, 26876, Note_off_c, 1, 58, 0
1, 26884, Note_on_c, 1, 77, 127
1, 26884, Note_on_c, 1, 71, 127
1, 26884, Note_on_c, 1, 56, 127
1, 26989, Note_off_c, 1, 77, 0
1, 26989, Note_off_c, 1, 71, 0
1, 26989, Note_off_c, 1, 56, 0
1, 27004, Note_on_c, 1, 76, 127
1, 27004, Note_on_c, 1, 58, 127
1, 27056, Note_off_c, 1, 58, 0
1, 27064, Note_on_c, 1, 59, 127
1, 27116, Note_off_c, 1, 59, 0
1, 27124, Note_on_c, 1, 73, 127
1, 27229, Note_off_c, 1, 76, 0
1, 27229, Note_off_c, 1, 73, 0
1, 27244, Note_on_c, 1, 75, 127
1, 27244, Note_on_c, 1, 70, 127
1, 27244, Note_on_c, 1, 54, 127
1, 27296, Note_off_c, 1, 75, 0
1, 27304, Note_on_c, 1, 73, 127
1, 27349, Note_off_c, 1, 70, 0
1, 27349, Note_off_c, 1, 54, 0
1, 27356, Note_off_c, 1, 73, 0
1, 27364, Note_on_c, 1, 75, 127
1, 27364, Note_on_c, 1, 66, 127
1, 27364, Note_on_c, 1, 59, 127
1, 27469, Note_off_c, 1, 75, 0
1, 27469, Note_off_c, 1, 66, 0
1, 27469, Note_off_c, 1, 59, 0
1, 27484, Note_on_c, 1, 77, 127
1, 27484, Note_on_c, 1, 63, 127
1, 27536, Note_off_c, 1, 77, 0
1, 27544, Note_on_c, 1, 78, 127
1, 27589, Note_off_c, 1, 63, 0
1, 27596, Note_off_c, 1, 78, 0
1, 27604, Note_on_c, 1, 77, 127
1, 27604, Note_on_c, 1, 68, 127
1, 27604, Note_on_c, 1, 62, 127
1, 27604, Note_on_c, 1, 59, 127
1, 27709, Note_off_c, 1, 77, 0
1, 27709, Note_off_c, 1, 68, 0
1, 27709, Note_off_c, 1, 62, 0
1, 27709, Note_off_c, 1, 59, 0
1, 27724, Note_on_c, 1, 79, 127
1, 27724, Note_on_c, 1, 61, 127
1, 27776, Note_off_c, 1, 79, 0
1, 27784, Note_on_c, 1, 80, 127
1, 27836, Note_off_c, 1, 80, 0
1, 27844, Note_on_c, 1, 70, 127
1, 27844, Note_on_c, 1, 58, 127
1, 27949, Note_off_c, 1, 61, 0
1, 27949, Note_off_c, 1, 70, 0
1, 27949, Note_off_c, 1, 58, 0
1, 27964, Note_on_c, 1, 60, 127
1, 27964, Note_on_c, 1, 51, 127
1, 28016, Note_off_c, 1, 60, 0
1, 28069, Note_off_c, 1, 51, 0
1, 28084, Note_on_c, 1, 80, 127
1, 28084, Note_on_c, 1, 60, 127
1, 28084, Note_on_c, 1, 56, 127
1, 28189, Note_off_c, 1, 80, 0
1, 28189, Note_off_c, 1, 60, 0
1, 28189, Note_off_c, 1, 56, 0
1, 28204, Note_on_c, 1, 68, 127
1, 28204, Note_on_c, 1, 58, 127
1, 28204, Note_on_c, 1, 53, 127
1, 28256, Note_off_c, 1, 58, 0
1, 28264, Note_on_c, 1, 56, 127
1, 28309, Note_off_c, 1, 68, 0
1, 28309, Note_off_c, 1, 53, 0
1, 28316, Note_off_c, 1, 56, 0
1, 28324, Note_on_c, 1, 67, 127
1, 28324, Note_on_c, 1, 61, 127
1, 28324, Note_on_c, 1, 46, 127
1, 28429, Note_off_c, 1, 67, 0
1, 28429, Note_off_c, 1, 61, 0
1, 28429, Note_off_c, 1, 46, 0
1, 28444, Note_on_c, 1, 66, 127
1, 28444, Note_on_c, 1, 60, 127
1, 28444, Note_on_c, 1, 51, 127
1, 28496, Note_off_c, 1, 60, 0
1, 28504, Note_on_c, 1, 58, 127
1, 28549, Note_off_c, 1, 51, 0
1, 28556, Note_off_c, 1, 58, 0
1, 28564, Note_on_c, 1, 63, 127
1, 28564, Note_on_c, 1, 48, 127
1, 28669, Note_off_c, 1, 66, 0
1, 28669, Note_off_c, 1, 63, 0
1, 28669, Note_off_c, 1, 48, 0
1, 28684, Note_on_c, 1, 65, 127
1, 28684, Note_on_c, 1, 61, 127
1, 28684, Note_on_c, 1, 44, 127
1, 28736, Note_off_c, 1, 65, 0
1, 28736, Note_off_c, 1, 61, 0
1, 28744, Note_on_c, 1, 63, 127
1, 28744, Note_on_c, 1, 60, 127
1, 28789, Note_off_c, 1, 44, 0
1, 28796, Note_off_c, 1, 63, 0
1, 28796, Note_off_c, 1, 60, 0
1, 28804, Note_on_c, 1, 65, 127
1, 28804, Note_on_c, 1, 61, 127
1, 28804, Note_on_c, 1, 49, 127
1, 28909, Note_off_c, 1, 65, 0
1, 28909, Note_off_c, 1, 61, 0
1, 28909, Note_off_c, 1, 49, 0
1, 28924, Note_on_c, 1, 77, 127
1, 28924, Note_on_c, 1, 67, 127
1, 28924, Note_on_c, 1, 61, 127
1, 28976, Note_off_c, 1, 67, 0
1, 28984, Note_on_c, 1, 68, 127
1, 29029, Note_off_c, 1, 77, 0
1, 29036, Note_off_c, 1, 68, 0
1, 29044, Note_on_c, 1, 76, 127
1, 29149, Note_off_c, 1, 61, 0
1, 29149, Note_off_c, 1, 76, 0
1, 29164, Note_on_c, 1, 75, 127
1, 29164, Note_on_c, 1, 69, 127
1, 29164, Note_on_c, 1, 60, 127
1, 29216, Note_off_c, 1, 69, 0
1, 29216, Note_off_c, 1, 60, 0
1, 29224, Note_on_c, 1, 70, 127
1, 29224, Note_on_c, 1, 58, 127
1, 29276, Note_off_c, 1, 70, 0
1, 29276, Note_off_c, 1, 58, 0
1, 29284, Note_on_c, 1, 72, 127
1, 29284, Note_on_c, 1, 57, 127
1, 29389, Note_off_c, 1, 75, 0
1, 29389, Note_off_c, 1, 72, 0
1, 29389, Note_off_c, 1, 57, 0
1, 29404, Note_on_c, 1, 73, 127
1, 29404, Note_on_c, 1, 69, 127
1, 29404, Note_on_c, 1, 53, 127
1, 29456, Note_off_c, 1, 73, 0
1, 29464, Note_on_c, 1, 72, 127
1, 29509, Note_off_c, 1, 69, 0
1, 29509, Note_off_c, 1, 53, 0
1, 29516, Note_off_c, 1, 72, 0
1, 29524, Note_on_c, 1, 73, 127
1, 29524, Note_on_c, 1, 70, 127
1, 29524, Note_on_c, 1, 65, 127
1, 29524, Note_on_c, 1, 58, 127
1, 29629, Note_off_c, 1, 73, 0
1, 29629, Note_off_c, 1, 70, 0
1, 29644, Note_on_c, 1, 82, 127
1, 29749, Note_off_c, 1, 65, 0
1, 29749, Note_off_c, 1, 82, 0
1, 29764, Note_on_c, 1, 81, 127
1, 29764, Note_on_c, 1, 72, 127
1, 29764, Note_on_c, 1, 63, 127
1, 29869, Note_off_c, 1, 81, 0
1, 29869, Note_off_c, 1, 72, 0
1, 29884, Note_on_c, 1, 80, 127
1, 29884, Note_on_c, 1, 71, 127
1, 29989, Note_off_c, 1, 63, 0
1, 29989, Note_off_c, 1, 80, 0
1, 29989, Note_off_c, 1, 71, 0
1, 30004, Note_on_c, 1, 78, 127
1, 30056, Note_off_c, 1, 78, 0
1, 30064, Note_on_c, 1, 75, 127
1, 30109, Note_off_c, 1, 58, 0
1, 30116, Note_off_c, 1, 75, 0
1, 30124, Note_on_c, 1, 77, 127
1, 30124, Note_on_c, 1, 61, 127
1, 30229, Note_off_c, 1, 77, 0
1, 30229, Note_off_c, 1, 61, 0
1, 30244, Note_on_c, 1, 78, 127
1, 30244, Note_on_c, 1, 60, 127
1, 30244, Note_on_c, 1, 51, 127
1, 30296, Note_off_c, 1, 51, 0
1, 30304, Note_on_c, 1, 49, 127
1, 30349, Note_off_c, 1, 78, 0
1, 30349, Note_off_c, 1, 60, 0
1, 30356, Note_off_c, 1, 49, 0
1, 30364, Note_on_c, 1, 72, 127
1, 30364, Note_on_c, 1, 70, 127
1, 30364, Note_on_c, 1, 66, 127
1, 30364, Note_on_c, 1, 51, 127
1, 30469, Note_off_c, 1, 72, 0
1, 30469, Note_off_c, 1, 70, 0
1, 30469, Note_off_c, 1, 66, 0
1, 30469, Note_off_c, 1, 51, 0
1, 30484, Note_on_c, 1, 73, 127
1, 30484, Note_on_c, 1, 69, 127
1, 30484, Note_on_c, 1, 65, 127
1, 30484, Note_on_c, 1, 53, 127
1, 30589, Note_off_c, 1, 73, 0
1, 30589, Note_off_c, 1, 69, 0
1, 30589, Note_off_c, 1, 53, 0
1, 30604, Note_on_c, 1, 74, 127
1, 30604, Note_on_c, 1, 68, 127
1, 30604, Note_on_c, 1, 41, 127
1, 30709, Note_off_c, 1, 65, 0
1, 30709, Note_off_c, 1, 74, 0
1, 30709, Note_off_c, 1, 68, 0
1, 30709, Note_off_c, 1, 41, 0
1, 30724, Note_on_c, 1, 75, 127
1, 30724, Note_on_c, 1, 67, 127
1, 30724, Note_on_c, 1, 43, 127
1, 30829, Note_off_c, 1, 75, 0
1, 30829, Note_off_c, 1, 67, 0
1, 30829, Note_off_c, 1, 43, 0
1, 30844, Note_on_c, 1, 72, 127
1, 30844, Note_on_c, 1, 66, 127
1, 30844, Note_on_c, 1, 63, 127
1, 30844, Note_on_c, 1, 45, 127
1, 30949, Note_off_c, 1, 72, 0
1, 30949, Note_off_c, 1, 66, 0
1, 30949, Note_off_c, 1, 63, 0
1, 30949, Note_off_c, 1, 45, 0
1, 30964, Note_on_c, 1, 73, 127
1, 30964, Note_on_c, 1, 65, 127
1, 30964, Note_on_c, 1, 61, 127
1, 30964, Note_on_c, 1, 46, 127
1, 31016, Note_off_c, 1, 61, 0
1, 31069, Note_off_c, 1, 73, 0
1, 31069, Note_off_c, 1, 46, 0
1, 31084, Note_on_c, 1, 63, 127
1, 31136, Note_off_c, 1, 63, 0
1, 31204, Note_on_c, 1, 69, 127
1, 31204, Note_on_c, 1, 60, 127
1, 31204, Note_on_c, 1, 51, 127
1, 31256, Note_off_c, 1, 60, 0
1, 31309, Note_off_c, 1, 69, 0
1, 31309, Note_off_c, 1, 51, 0
1, 31444, Note_on_c, 1, 70, 127
1, 31444, Note_on_c, 1, 58, 127
1, 31444, Note_on_c, 1, 49, 127
1, 31496, Note_off_c, 1, 58, 0
1, 31549, Note_off_c, 1, 70, 0
1, 31549, Note_off_c, 1, 49, 0
1, 31684, Note_on_c, 1, 75, 127
1, 31684, Note_on_c, 1, 57, 127
1, 31684, Note_on_c, 1, 48, 127
1, 31736, Note_off_c, 1, 57, 0
1, 31789, Note_off_c, 1, 75, 0
1, 31789, Note_off_c, 1, 48, 0
1, 31909, Note_off_c, 1, 65, 0
1, 31924, Note_on_c, 1, 53, 127
1, 31984, Note_on_c, 1, 72, 127
1, 32036, Note_off_c, 1, 72, 0
1, 32149, Note_off_c, 1, 53, 0
1, 32164, Note_on_c, 1, 69, 127
1, 32164, Note_on_c, 1, 63, 127
1, 32164, Note_on_c, 1, 41, 127
1, 32269, Note_off_c, 1, 63, 0
1, 32284, Note_on_c, 1, 61, 127
1, 32336, Note_off_c, 1, 61, 0
1, 32344, Note_on_c, 1, 60, 127
1, 32389, Note_off_c, 1, 69, 0
1, 32389, Note_off_c, 1, 41, 0
1, 32396, Note_off_c, 1, 60, 0
1, 32404, Note_on_c, 1, 70, 127
1, 32404, Note_on_c, 1, 61, 127
1, 32404, Note_on_c, 1, 46, 127
1, 32509, Note_off_c, 1, 61, 0
1, 32524, Note_on_c, 1, 66, 127
1, 32629, Note_off_c, 1, 70, 0
1, 32629, Note_off_c, 1, 46, 0
1, 32629, Note_off_c, 1, 66, 0
1, 32644, Note_on_c, 1, 68, 127
1, 32644, Note_on_c, 1, 65, 127
1, 32749, Note_off_c, 1, 65, 0
1, 32764, Note_on_c, 1, 64, 127
1, 32764, Note_on_c, 1, 46, 127
1, 32869, Note_off_c, 1, 68, 0
1, 32869, Note_off_c, 1, 64, 0
1, 32869, Note_off_c, 1, 46, 0
1, 32884, Note_on_c, 1, 63, 127
1, 32884, Note_on_c, 1, 47, 127
1, 32989, Note_off_c, 1, 47, 0
1, 33004, Note_on_c, 1, 66, 127
1, 33004, Note_on_c, 1, 48, 127
1, 33109, Note_off_c, 1, 63, 0
1, 33109, Note_off_c, 1, 66, 0
1, 33109, Note_off_c, 1, 48, 0
1, 33124, Note_on_c, 1, 65, 127
1, 33124, Note_on_c, 1, 50, 127
1, 33176, Note_off_c, 1, 50, 0
1, 33184, Note_on_c, 1, 53, 127
1, 33229, Note_off_c, 1, 65, 0
1, 33236, Note_off_c, 1, 53, 0
1, 33244, Note_on_c, 1, 71, 127
1, 33244, Note_on_c, 1, 63, 127
1, 33244, Note_on_c, 1, 56, 127
1, 33349, Note_off_c, 1, 71, 0
1, 33349, Note_off_c, 1, 63, 0
1, 33364, Note_on_c, 1, 70, 127
1, 33364, Note_on_c, 1, 62, 127
1, 33469, Note_off_c, 1, 56, 0
1, 33469, Note_off_c, 1, 62, 0
1, 33484, Note_on_c, 1, 61, 127
1, 33484, Note_on_c, 1, 55, 127
1, 33589, Note_off_c, 1, 70, 0
1, 33589, Note_off_c, 1, 61, 0
1, 33589, Note_off_c, 1, 55, 0
1, 33604, Note_on_c, 1, 60, 127
1, 33604, Note_on_c, 1, 56, 127
1, 33709, Note_off_c, 1, 60, 0
1, 33709, Note_off_c, 1, 56, 0
1, 33724, Note_on_c, 1, 68, 127
1, 33724, Note_on_c, 1, 59, 127
1, 33724, Note_on_c, 1, 50, 127
1, 33829, Note_off_c, 1, 68, 0
1, 33829, Note_off_c, 1, 59, 0
1, 33829, Note_off_c, 1, 50, 0
1, 33844, Note_on_c, 1, 66, 127
1, 33844, Note_on_c, 1, 58, 127
1, 33844, Note_on_c, 1, 51, 127
1, 33896, Note_off_c, 1, 66, 0
1, 33904, Note_on_c, 1, 70, 127
1, 33949, Note_off_c, 1, 51, 0
1, 33956, Note_off_c, 1, 70, 0
1, 33964, Note_on_c, 1, 68, 127
1, 34016, Note_off_c, 1, 68, 0
1, 34084, Note_on_c, 1, 65, 127
1, 34084, Note_on_c, 1, 53, 127
1, 34136, Note_off_c, 1, 65, 0
1, 34189, Note_off_c, 1, 53, 0
1, 34324, Note_on_c, 1, 63, 127
1, 34324, Note_on_c, 1, 54, 127
1, 34376, Note_off_c, 1, 63, 0
1, 34429, Note_off_c, 1, 54, 0
1, 34564, Note_on_c, 1, 62, 127
1, 34564, Note_on_c, 1, 56, 127
1, 34616, Note_off_c, 1, 62, 0
1, 34669, Note_off_c, 1, 58, 0
1, 34669, Note_off_c, 1, 56, 0
1, 34684, Note_on_c, 1, 63, 127
1, 34684, Note_on_c, 1, 58, 127
1, 34684, Note_on_c, 1, 54, 127
1, 34789, Note_off_c, 1, 63, 0
1, 34789, Note_off_c, 1, 58, 0
1, 34789, Note_off_c, 1, 54, 0
1, 34804, Note_on_c, 1, 56, 127
1, 34804, Note_on_c, 1, 53, 127
1, 34856, Note_off_c, 1, 56, 0
1, 34856, Note_off_c, 1, 53, 0
1, 34864, Note_on_c, 1, 58, 127
1, 34864, Note_on_c, 1, 54, 127
1, 34916, Note_off_c, 1, 58, 0
1, 34916, Note_off_c, 1, 54, 0
1, 34924, Note_on_c, 1, 62, 127
1, 34924, Note_on_c, 1, 59, 127
1, 34924, Note_on_c, 1, 56, 127
1, 35029, Note_off_c, 1, 62, 0
1, 35029, Note_off_c, 1, 59, 0
1, 35029, Note_off_c, 1, 56, 0
1, 35044, Note_on_c, 1, 68, 127
1, 35044, Note_on_c, 1, 53, 127
1, 35044, Note_on_c, 1, 50, 127
1, 35149, Note_off_c, 1, 68, 0
1, 35149, Note_off_c, 1, 53, 0
1, 35149, Note_off_c, 1, 50, 0
1, 35164, Note_on_c, 1, 66, 127
1, 35164, Note_on_c, 1, 62, 127
1, 35164, Note_on_c, 1, 46, 127
1, 35216, Note_off_c, 1, 66, 0
1, 35224, Note_on_c, 1, 65, 127
1, 35269, Note_off_c, 1, 62, 0
1, 35269, Note_off_c, 1, 46, 0
1, 35276, Note_off_c, 1, 65, 0
1, 35284, Note_on_c, 1, 66, 127
1, 35284, Note_on_c, 1, 63, 127
1, 35284, Note_on_c, 1, 51, 127
1, 35336, Note_off_c, 1, 66, 0
1, 35344, Note_on_c, 1, 68, 127
1, 35389, Note_off_c, 1, 63, 0
1, 35389, Note_off_c, 1, 51, 0
1, 35396, Note_off_c, 1, 68, 0
1, 35404, Note_on_c, 1, 70, 127
1, 35404, Note_on_c, 1, 65, 127
1, 35404, Note_on_c, 1, 49, 127
1, 35509, Note_off_c, 1, 65, 0
1, 35509, Note_off_c, 1, 49, 0
1, 35524, Note_on_c, 1, 66, 127
1, 35524, Note_on_c, 1, 48, 127
1, 35576, Note_off_c, 1, 48, 0
1, 35629, Note_off_c, 1, 70, 0
1, 35629, Note_off_c, 1, 66, 0
1, 35644, Note_on_c, 1, 69, 127
1, 35644, Note_on_c, 1, 60, 127
1, 35644, Note_on_c, 1, 51, 127
1, 35696, Note_off_c, 1, 69, 0
1, 35696, Note_off_c, 1, 60, 0
1, 35704, Note_on_c, 1, 70, 127
1, 35704, Note_on_c, 1, 61, 127
1, 35749, Note_off_c, 1, 51, 0
1, 35756, Note_off_c, 1, 70, 0
1, 35756, Note_off_c, 1, 61, 0
1, 35764, Note_on_c, 1, 72, 127
1, 35764, Note_on_c, 1, 63, 127
1, 35764, Note_on_c, 1, 45, 127
1, 35816, Note_off_c, 1, 45, 0
1, 35824, Note_on_c, 1, 48, 127
1, 35869, Note_off_c, 1, 72, 0
1, 35869, Note_off_c, 1, 63, 0
1, 35876, Note_off_c, 1, 48, 0
1, 35884, Note_on_c, 1, 63, 127
1, 35884, Note_on_c, 1, 57, 127
1, 35884, Note_on_c, 1, 53, 127
1, 35936, Note_off_c, 1, 53, 0
1, 35944, Note_on_c, 1, 51, 127
1, 35989, Note_off_c, 1, 57, 0
1, 35996, Note_off_c, 1, 51, 0
1, 36004, Note_on_c, 1, 58, 127
1, 36004, Note_on_c, 1, 49, 127
1, 36056, Note_off_c, 1, 58, 0
1, 36056, Note_off_c, 1, 49, 0
1, 36064, Note_on_c, 1, 60, 127
1, 36109, Note_off_c, 1, 63, 0
1, 36116, Note_off_c, 1, 60, 0
1, 36124, Note_on_c, 1, 61, 127
1, 36124, Note_on_c, 1, 58, 127
1, 36176, Note_off_c, 1, 58, 0
1, 36184, Note_on_c, 1, 56, 127
1, 36236, Note_off_c, 1, 56, 0
1, 36244, Note_on_c, 1, 70, 127
1, 36244, Note_on_c, 1, 54, 127
1, 36296, Note_off_c, 1, 54, 0
1, 36304, Note_on_c, 1, 53, 127
1, 36349, Note_off_c, 1, 61, 0
1, 36356, Note_off_c, 1, 53, 0
1, 36364, Note_on_c, 1, 60, 127
1, 36364, Note_on_c, 1, 51, 127
1, 36416, Note_off_c, 1, 60, 0
1, 36416, Note_off_c, 1, 51, 0
1, 36424, Note_on_c, 1, 49, 127
1, 36476, Note_off_c, 1, 49, 0
1, 36484, Note_on_c, 1, 63, 127
1, 36484, Note_on_c, 1, 48, 127
1, 36536, Note_off_c, 1, 48, 0
1, 36589, Note_off_c, 1, 70, 0
1, 36589, Note_off_c, 1, 63, 0
1, 36604, Note_on_c, 1, 68, 127
1, 36604, Note_on_c, 1, 54, 127
1, 36604, Note_on_c, 1, 51, 127
1, 36656, Note_off_c, 1, 51, 0
1, 36664, Note_on_c, 1, 48, 127
1, 36709, Note_off_c, 1, 54, 0
1, 36716, Note_off_c, 1, 48, 0
1, 36724, Note_on_c, 1, 73, 127
1, 36724, Note_on_c, 1, 53, 127
1, 36724, Note_on_c, 1, 49, 127
1, 36776, Note_off_c, 1, 68, 0
1, 36784, Note_on_c, 1, 65, 127
1, 36829, Note_off_c, 1, 53, 0
1, 36829, Note_off_c, 1, 49, 0
1, 36836, Note_off_c, 1, 65, 0
1, 36844, Note_on_c, 1, 70, 127
1, 36844, Note_on_c, 1, 55, 127
1, 36844, Note_on_c, 1, 46, 127
1, 36949, Note_off_c, 1, 73, 0
1, 36949, Note_off_c, 1, 70, 0
1, 36949, Note_off_c, 1, 46, 0
1, 36964, Note_on_c, 1, 72, 127
1, 36964, Note_on_c, 1, 69, 127
1, 37069, Note_off_c, 1, 55, 0
1, 37069, Note_off_c, 1, 69, 0
1, 37189, Note_off_c, 1, 72, 0
1, 37204, Note_on_c, 1, 67, 127
1, 37324, Note_on_c, 1, 52, 127
1, 37429, Note_off_c, 1, 67, 0
1, 37429, Note_off_c, 1, 52, 0
1, 37444, Note_on_c, 1, 69, 127
1, 37444, Note_on_c, 1, 53, 127
1, 37444, Note_on_c, 1, 41, 127
1, 37549, Note_off_c, 1, 69, 0
1, 37549, Note_off_c, 1, 53, 0
1, 37549, Note_off_c, 1, 41, 0
1, 37564, Note_on_c, 1, 75, 127
1, 37564, Note_on_c, 1, 66, 127
1, 37564, Note_on_c, 1, 57, 127
1, 37669, Note_off_c, 1, 75, 0
1, 37669, Note_off_c, 1, 66, 0
1, 37669, Note_off_c, 1, 57, 0
1, 37684, Note_on_c, 1, 73, 127
1, 37684, Note_on_c, 1, 65, 127
1, 37684, Note_on_c, 1, 58, 127
1, 37789, Note_off_c, 1, 65, 0
1, 37789, Note_off_c, 1, 58, 0
1, 37804, Note_on_c, 1, 64, 127
1, 37804, Note_on_c, 1, 56, 127
1, 37856, Note_off_c, 1, 56, 0
1, 37864, Note_on_c, 1, 55, 127
1, 37909, Note_off_c, 1, 73, 0
1, 37909, Note_off_c, 1, 64, 0
1, 37916, Note_off_c, 1, 55, 0
1, 37924, Note_on_c, 1, 63, 127
1, 37924, Note_on_c, 1, 56, 127
1, 38029, Note_off_c, 1, 63, 0
1, 38029, Note_off_c, 1, 56, 0
1, 38044, Note_on_c, 1, 71, 127
1, 38044, Note_on_c, 1, 62, 127
1, 38044, Note_on_c, 1, 54, 127
1, 38096, Note_off_c, 1, 54, 0
1, 38104, Note_on_c, 1, 53, 127
1, 38149, Note_off_c, 1, 71, 0
1, 38149, Note_off_c, 1, 62, 0
1, 38156, Note_off_c, 1, 53, 0
1, 38164, Note_on_c, 1, 70, 127
1, 38164, Note_on_c, 1, 61, 127
1, 38164, Note_on_c, 1, 54, 127
1, 38216, Note_off_c, 1, 70, 0
1, 38224, Note_on_c, 1, 73, 127
1, 38269, Note_off_c, 1, 54, 0
1, 38276, Note_off_c, 1, 73, 0
1, 38284, Note_on_c, 1, 71, 127
1, 38336, Note_off_c, 1, 71, 0
1, 38404, Note_on_c, 1, 68, 127
1, 38404, Note_on_c, 1, 53, 127
1, 38456, Note_off_c, 1, 68, 0
1, 38509, Note_off_c, 1, 53, 0
1, 38644, Note_on_c, 1, 66, 127
1, 38644, Note_on_c, 1, 51, 127
1, 38696, Note_off_c, 1, 66, 0
1, 38749, Note_off_c, 1, 61, 0
1, 38749, Note_off_c, 1, 51, 0
1, 38764, Note_on_c, 1, 68, 127
1, 38764, Note_on_c, 1, 59, 127
1, 38816, Note_off_c, 1, 68, 0
1, 38824, Note_on_c, 1, 66, 127
1, 38876, Note_off_c, 1, 66, 0
1, 38884, Note_on_c, 1, 65, 127
1, 38884, Note_on_c, 1, 49, 127
1, 38936, Note_off_c, 1, 65, 0
1, 38989, Note_off_c, 1, 59, 0
1, 39004, Note_on_c, 1, 58, 127
1, 39056, Note_off_c, 1, 58, 0
1, 39064, Note_on_c, 1, 56, 127
1, 39116, Note_off_c, 1, 56, 0
1, 39124, Note_on_c, 1, 54, 127
1, 39176, Note_off_c, 1, 54, 0
1, 39364, Note_on_c, 1, 71, 127
1, 39364, Note_on_c, 1, 53, 127
1, 39416, Note_off_c, 1, 53, 0
1, 39469, Note_off_c, 1, 71, 0
1, 39484, Note_on_c, 1, 70, 127
1, 39484, Note_on_c, 1, 55, 127
1, 39536, Note_off_c, 1, 70, 0
1, 39536, Note_off_c, 1, 55, 0
1, 39709, Note_off_c, 1, 49, 0
1, 39724, Note_on_c, 1, 75, 127
1, 39724, Note_on_c, 1, 47, 127
1, 39776, Note_off_c, 1, 47, 0
1, 39784, Note_on_c, 1, 46, 127
1, 39836, Note_off_c, 1, 46, 0
1, 39949, Note_off_c, 1, 75, 0
1, 39964, Note_on_c, 1, 73, 127
1, 39964, Note_on_c, 1, 52, 127
1, 40016, Note_off_c, 1, 73, 0
1, 40189, Note_off_c, 1, 52, 0
1, 40204, Note_on_c, 1, 78, 127
1, 40204, Note_on_c, 1, 51, 127
1, 40256, Note_off_c, 1, 51, 0
1, 40429, Note_off_c, 1, 78, 0
1, 40444, Note_on_c, 1, 76, 127
1, 40496, Note_off_c, 1, 76, 0
1, 40924, Note_on_c, 1, 64, 127
1, 41029, Note_off_c, 1, 64, 0
1, 41044, Note_on_c, 1, 63, 127
1, 41404, Note_on_c, 1, 67, 127
1, 41509, Note_off_c, 1, 67, 0
1, 41749, Note_off_c, 1, 63, 0
1, 41764, Note_on_c, 1, 61, 127
1, 41869, Note_off_c, 1, 61, 0
1, 41884, Note_on_c, 1, 80, 127
1, 41884, Note_on_c, 1, 74, 127
1, 41884, Note_on_c, 1, 52, 127
1, 41989, Note_off_c, 1, 80, 0
1, 41989, Note_off_c, 1, 74, 0
1, 41989, Note_off_c, 1, 52, 0
1, 42004, Note_on_c, 1, 79, 127
1, 42004, Note_on_c, 1, 75, 127
1, 42004, Note_on_c, 1, 51, 127
1, 42056, Note_off_c, 1, 75, 0
1, 42064, Note_on_c, 1, 70, 127
1, 42109, Note_off_c, 1, 79, 0
1, 42116, Note_off_c, 1, 70, 0
1, 42124, Note_on_c, 1, 78, 127
1, 42124, Note_on_c, 1, 63, 127
1, 42229, Note_off_c, 1, 51, 0
1, 42229, Note_off_c, 1, 78, 0
1, 42229, Note_off_c, 1, 63, 0
1, 42244, Note_on_c, 1, 77, 127
1, 42244, Note_on_c, 1, 65, 127
1, 42304, Note_on_c, 1, 73, 127
1, 42349, Note_off_c, 1, 77, 0
1, 42349, Note_off_c, 1, 65, 0
1, 42356, Note_off_c, 1, 73, 0
1, 42364, Note_on_c, 1, 76, 127
1, 42364, Note_on_c, 1, 71, 127
1, 42364, Note_on_c, 1, 67, 127
1, 42364, Note_on_c, 1, 49, 127
1, 42416, Note_off_c, 1, 71, 0
1, 42424, Note_on_c, 1, 70, 127
1, 42469, Note_off_c, 1, 76, 0
1, 42469, Note_off_c, 1, 67, 0
1, 42469, Note_off_c, 1, 49, 0
1, 42476, Note_off_c, 1, 70, 0
1, 42484, Note_on_c, 1, 75, 127
1, 42484, Note_on_c, 1, 71, 127
1, 42484, Note_on_c, 1, 68, 127
1, 42484, Note_on_c, 1, 47, 127
1, 42536, Note_off_c, 1, 47, 0
1, 42544, Note_on_c, 1, 51, 127
1, 42589, Note_off_c, 1, 71, 0
1, 42589, Note_off_c, 1, 68, 0
1, 42596, Note_off_c, 1, 51, 0
1, 42604, Note_on_c, 1, 49, 127
1, 42656, Note_off_c, 1, 49, 0
1, 42724, Note_on_c, 1, 73, 127
1, 42724, Note_on_c, 1, 67, 127
1, 42724, Note_on_c, 1, 46, 127
1, 42776, Note_off_c, 1, 46, 0
1, 42829, Note_off_c, 1, 73, 0
1, 42829, Note_off_c, 1, 67, 0
1, 42964, Note_on_c, 1, 44, 127
1, 43016, Note_off_c, 1, 44, 0
1, 43204, Note_on_c, 1, 70, 127
1, 43204, Note_on_c, 1, 63, 127
1, 43204, Note_on_c, 1, 43, 127
1, 43256, Note_off_c, 1, 43, 0
1, 43309, Note_off_c, 1, 75, 0
1, 43309, Note_off_c, 1, 70, 0
1, 43309, Note_off_c, 1, 63, 0
1, 43324, Note_on_c, 1, 73, 127
1, 43324, Note_on_c, 1, 44, 127
1, 43376, Note_off_c, 1, 73, 0
1, 43384, Note_on_c, 1, 71, 127
1, 43429, Note_off_c, 1, 44, 0
1, 43436, Note_off_c, 1, 71, 0
1, 43444, Note_on_c, 1, 73, 127
1, 43496, Note_off_c, 1, 73, 0
1, 43504, Note_on_c, 1, 76, 127
1, 43556, Note_off_c, 1, 76, 0
1, 43564, Note_on_c, 1, 75, 127
1, 43564, Note_on_c, 1, 43, 127
1, 43616, Note_off_c, 1, 75, 0
1, 43624, Note_on_c, 1, 73, 127
1, 43669, Note_off_c, 1, 43, 0
1, 43676, Note_off_c, 1, 73, 0
1, 43684, Note_on_c, 1, 71, 127
1, 43684, Note_on_c, 1, 64, 127
1, 43684, Note_on_c, 1, 49, 127
1, 43736, Note_off_c, 1, 71, 0
1, 43744, Note_on_c, 1, 70, 127
1, 43789, Note_off_c, 1, 49, 0
1, 43796, Note_off_c, 1, 70, 0
1, 43804, Note_on_c, 1, 68, 127
1, 43804, Note_on_c, 1, 47, 127
1, 43856, Note_off_c, 1, 68, 0
1, 43856, Note_off_c, 1, 47, 0
1, 43864, Note_on_c, 1, 67, 127
1, 43864, Note_on_c, 1, 46, 127
1, 43916, Note_off_c, 1, 67, 0
1, 43916, Note_off_c, 1, 46, 0
1, 44029, Note_off_c, 1, 64, 0
1, 44044, Note_on_c, 1, 63, 127
1, 44044, Note_on_c, 1, 59, 127
1, 44096, Note_off_c, 1, 63, 0
1, 44096, Note_off_c, 1, 59, 0
1, 44104, Note_on_c, 1, 61, 127
1, 44104, Note_on_c, 1, 58, 127
1, 44156, Note_off_c, 1, 61, 0
1, 44156, Note_off_c, 1, 58, 0
1, 44224, Note_on_c, 1, 65, 127
1, 44276, Note_off_c, 1, 65, 0
1, 44284, Note_on_c, 1, 66, 127
1, 44404, Note_on_c, 1, 60, 127
1, 44509, Note_off_c, 1, 66, 0
1, 44509, Note_off_c, 1, 60, 0
1, 44524, Note_on_c, 1, 56, 127
1, 44629, Note_off_c, 1, 56, 0
1, 44884, Note_on_c, 1, 53, 127
1, 44989, Note_off_c, 1, 53, 0
1, 45364, Note_on_c, 1, 50, 127
1, 45469, Note_off_c, 1, 50, 0
1, 45484, Note_on_c, 1, 62, 127
1, 45536, Note_off_c, 1, 62, 0
1, 46144, Note_on_c, 1, 72, 127
1, 46196, Note_off_c, 1, 72, 0
1, 46204, Note_on_c, 1, 51, 127
1, 46264, Note_on_c, 1, 69, 127
1, 46309, Note_off_c, 1, 51, 0
1, 46316, Note_off_c, 1, 69, 0
1, 46324, Note_on_c, 1, 54, 127
1, 46429, Note_off_c, 1, 54, 0
1, 46444, Note_on_c, 1, 73, 127
1, 46669, Note_off_c, 1, 73, 0
1, 46804, Note_on_c, 1, 45, 127
1, 46909, Note_off_c, 1, 45, 0
1, 46924, Note_on_c, 1, 57, 127
1, 47096, Note_off_c, 1, 57, 0
1, 47164, Note_on_c, 1, 75, 127
1, 47224, Note_on_c, 1, 55, 127
1, 47276, Note_off_c, 1, 55, 0
1, 47389, Note_off_c, 1, 75, 0
1, 47404, Note_on_c, 1, 73, 127
1, 47404, Note_on_c, 1, 69, 127
1, 47404, Note_on_c, 1, 53, 127
1, 47456, Note_off_c, 1, 73, 0
1, 47464, Note_on_c, 1, 72, 127
1, 47509, Note_off_c, 1, 69, 0
1, 47509, Note_off_c, 1, 53, 0
1, 47516, Note_off_c, 1, 72, 0
1, 47524, Note_on_c, 1, 73, 127
1, 47524, Note_on_c, 1, 70, 127
1, 47524, Note_on_c, 1, 65, 127
1, 47524, Note_on_c, 1, 58, 127
1, 47576, Note_off_c, 1, 70, 0
1, 47584, Note_on_c, 1, 72, 127
1, 47629, Note_off_c, 1, 73, 0
1, 47636, Note_off_c, 1, 72, 0
1, 47749, Note_off_c, 1, 65, 0
1, 47764, Note_on_c, 1, 78, 127
1, 47764, Note_on_c, 1, 63, 127
1, 47816, Note_off_c, 1, 58, 0
1, 47824, Note_on_c, 1, 60, 127
1, 47876, Note_off_c, 1, 60, 0
1, 47944, Note_on_c, 1, 57, 127
1, 47989, Note_off_c, 1, 78, 0
1, 47989, Note_off_c, 1, 63, 0
1, 47996, Note_off_c, 1, 57, 0
1, 48004, Note_on_c, 1, 77, 127
1, 48004, Note_on_c, 1, 73, 127
1, 48004, Note_on_c, 1, 58, 127
1, 48109, Note_off_c, 1, 73, 0
1, 48124, Note_on_c, 1, 65, 127
1, 48124, Note_on_c, 1, 61, 127
1, 48229, Note_off_c, 1, 77, 0
1, 48229, Note_off_c, 1, 65, 0
1, 48229, Note_off_c, 1, 61, 0
1, 48244, Note_on_c, 1, 63, 127
1, 48244, Note_on_c, 1, 60, 127
1, 48296, Note_off_c, 1, 58, 0
1, 48349, Note_off_c, 1, 63, 0
1, 48356, Note_off_c, 1, 60, 0
1, 48364, Note_on_c, 1, 75, 127
1, 48364, Note_on_c, 1, 72, 127
1, 48364, Note_on_c, 1, 66, 127
1, 48364, Note_on_c, 1, 58, 127
1, 48416, Note_off_c, 1, 58, 0
1, 48424, Note_on_c, 1, 57, 127
1, 48469, Note_off_c, 1, 75, 0
1, 48469, Note_off_c, 1, 72, 0
1, 48469, Note_off_c, 1, 66, 0
1, 48476, Note_off_c, 1, 57, 0
1, 48484, Note_on_c, 1, 74, 127
1, 48484, Note_on_c, 1, 70, 127
1, 48484, Note_on_c, 1, 65, 127
1, 48484, Note_on_c, 1, 58, 127
1, 48589, Note_off_c, 1, 74, 0
1, 48589, Note_off_c, 1, 70, 0
1, 48604, Note_on_c, 1, 80, 127
1, 48709, Note_off_c, 1, 65, 0
1, 48709, Note_off_c, 1, 80, 0
1, 48724, Note_on_c, 1, 78, 127
1, 48724, Note_on_c, 1, 75, 127
1, 48776, Note_off_c, 1, 58, 0
1, 48784, Note_on_c, 1, 60, 127
1, 48829, Note_off_c, 1, 75, 0
1, 48836, Note_off_c, 1, 60, 0
1, 48844, Note_on_c, 1, 72, 127
1, 48844, Note_on_c, 1, 63, 127
1, 48904, Note_on_c, 1, 57, 127
1, 48949, Note_off_c, 1, 78, 0
1, 48949, Note_off_c, 1, 63, 0
1, 48956, Note_off_c, 1, 57, 0
1, 48964, Note_on_c, 1, 61, 127
1, 49016, Note_off_c, 1, 72, 0
1, 49016, Note_off_c, 1, 61, 0
1, 49024, Note_on_c, 1, 69, 127
1, 49076, Note_off_c, 1, 69, 0
1, 49084, Note_on_c, 1, 77, 127
1, 49189, Note_off_c, 1, 77, 0
1, 49324, Note_on_c, 1, 77, 127
1, 49324, Note_on_c, 1, 69, 127
1, 49324, Note_on_c, 1, 61, 127
1, 49324, Note_on_c, 1, 53, 127
1, 49376, Note_off_c, 1, 77, 0
1, 49376, Note_off_c, 1, 61, 0
1, 49384, Note_on_c, 1, 75, 127
1, 49384, Note_on_c, 1, 60, 127
1, 49429, Note_off_c, 1, 69, 0
1, 49429, Note_off_c, 1, 53, 0
1, 49436, Note_off_c, 1, 75, 0
1, 49436, Note_off_c, 1, 60, 0
1, 49444, Note_on_c, 1, 73, 127
1, 49444, Note_on_c, 1, 70, 127
1, 49444, Note_on_c, 1, 58, 127
1, 49444, Note_on_c, 1, 54, 127
1, 49496, Note_off_c, 1, 73, 0
1, 49496, Note_off_c, 1, 58, 0
1, 49504, Note_on_c, 1, 77, 127
1, 49504, Note_on_c, 1, 61, 127
1, 49549, Note_off_c, 1, 70, 0
1, 49556, Note_off_c, 1, 77, 0
1, 49556, Note_off_c, 1, 61, 0
1, 49564, Note_on_c, 1, 75, 127
1, 49564, Note_on_c, 1, 60, 127
1, 49616, Note_off_c, 1, 75, 0
1, 49616, Note_off_c, 1, 60, 0
1, 49684, Note_on_c, 1, 72, 127
1, 49684, Note_on_c, 1, 57, 127
1, 49736, Note_off_c, 1, 72, 0
1, 49736, Note_off_c, 1, 57, 0
1, 49789, Note_off_c, 1, 54, 0
1, 49804, Note_on_c, 1, 73, 127
1, 49804, Note_on_c, 1, 58, 127
1, 49804, Note_on_c, 1, 53, 127
1, 49856, Note_off_c, 1, 73, 0
1, 49856, Note_off_c, 1, 53, 0
1, 49864, Note_on_c, 1, 72, 127
1, 49864, Note_on_c, 1, 51, 127
1, 49909, Note_off_c, 1, 58, 0
1, 49916, Note_off_c, 1, 72, 0
1, 49916, Note_off_c, 1, 51, 0
1, 49924, Note_on_c, 1, 70, 127
1, 49924, Note_on_c, 1, 53, 127
1, 49976, Note_off_c, 1, 70, 0
1, 49984, Note_on_c, 1, 73, 127
1, 50036, Note_off_c, 1, 73, 0
1, 50044, Note_on_c, 1, 72, 127
1, 50044, Note_on_c, 1, 57, 127
1, 50149, Note_off_c, 1, 72, 0
1, 50149, Note_off_c, 1, 57, 0
1, 50164, Note_on_c, 1, 63, 127
1, 50269, Note_off_c, 1, 63, 0
1, 50284, Note_on_c, 1, 61, 127
1, 50336, Note_off_c, 1, 61, 0
1, 50344, Note_on_c, 1, 60, 127
1, 50396, Note_off_c, 1, 60, 0
1, 50404, Note_on_c, 1, 77, 127
1, 50509, Note_off_c, 1, 53, 0
1, 50509, Note_off_c, 1, 77, 0
1, 50524, Note_on_c, 1, 75, 127
1, 50576, Note_off_c, 1, 75, 0
1, 50644, Note_on_c, 1, 54, 127
1, 50749, Note_off_c, 1, 54, 0
1, 50764, Note_on_c, 1, 55, 127
1, 50824, Note_on_c, 1, 58, 127
1, 50869, Note_off_c, 1, 55, 0
1, 50876, Note_off_c, 1, 58, 0
1, 50884, Note_on_c, 1, 56, 127
1, 50989, Note_off_c, 1, 56, 0
1, 51004, Note_on_c, 1, 73, 127
1, 51004, Note_on_c, 1, 65, 127
1, 51004, Note_on_c, 1, 57, 127
1, 51056, Note_off_c, 1, 73, 0
1, 51064, Note_on_c, 1, 72, 127
1, 51109, Note_off_c, 1, 57, 0
1, 51116, Note_off_c, 1, 72, 0
1, 51124, Note_on_c, 1, 58, 127
1, 51184, Note_on_c, 1, 75, 127
1, 51229, Note_off_c, 1, 65, 0
1, 51229, Note_off_c, 1, 58, 0
1, 51236, Note_off_c, 1, 75, 0
1, 51244, Note_on_c, 1, 73, 127
1, 51244, Note_on_c, 1, 64, 127
1, 51244, Note_on_c, 1, 46, 127
1, 51296, Note_off_c, 1, 73, 0
1, 51296, Note_off_c, 1, 46, 0
1, 51304, Note_on_c, 1, 72, 127
1, 51304, Note_on_c, 1, 48, 127
1, 51349, Note_off_c, 1, 64, 0
1, 51356, Note_off_c, 1, 72, 0
1, 51356, Note_off_c, 1, 48, 0
1, 51364, Note_on_c, 1, 70, 127
1, 51364, Note_on_c, 1, 65, 127
1, 51364, Note_on_c, 1, 49, 127
1, 51469, Note_off_c, 1, 70, 0
1, 51469, Note_off_c, 1, 65, 0
1, 51469, Note_off_c, 1, 49, 0
1, 51484, Note_on_c, 1, 82, 127
1, 51484, Note_on_c, 1, 56, 127
1, 51484, Note_on_c, 1, 50, 127
1, 51589, Note_off_c, 1, 56, 0
1, 51589, Note_off_c, 1, 50, 0
1, 51604, Note_on_c, 1, 55, 127
1, 51604, Note_on_c, 1, 51, 127
1, 51656, Note_off_c, 1, 55, 0
1, 51709, Note_off_c, 1, 82, 0
1, 51709, Note_off_c, 1, 51, 0
1, 51724, Note_on_c, 1, 80, 127
1, 51724, Note_on_c, 1, 58, 127
1, 51724, Note_on_c, 1, 52, 127
1, 51776, Note_off_c, 1, 80, 0
1, 51784, Note_on_c, 1, 79, 127
1, 51829, Note_off_c, 1, 58, 0
1, 51829, Note_off_c, 1, 52, 0
1, 51836, Note_off_c, 1, 79, 0
1, 51844, Note_on_c, 1, 80, 127
1, 51844, Note_on_c, 1, 72, 127
1, 51844, Note_on_c, 1, 56, 127
1, 51844, Note_on_c, 1, 53, 127
1, 51896, Note_off_c, 1, 56, 0
1, 51904, Note_on_c, 1, 58, 127
1, 51949, Note_off_c, 1, 53, 0
1, 51956, Note_off_c, 1, 58, 0
1, 51964, Note_on_c, 1, 51, 127
1, 52024, Note_on_c, 1, 55, 127
1, 52069, Note_off_c, 1, 72, 0
1, 52069, Note_off_c, 1, 51, 0
1, 52076, Note_off_c, 1, 55, 0
1, 52084, Note_on_c, 1, 70, 127
1, 52084, Note_on_c, 1, 49, 127
1, 52144, Note_on_c, 1, 52, 127
1, 52189, Note_off_c, 1, 80, 0
1, 52196, Note_off_c, 1, 52, 0
1, 52204, Note_on_c, 1, 79, 127
1, 52309, Note_off_c, 1, 70, 0
1, 52309, Note_off_c, 1, 49, 0
1, 52324, Note_on_c, 1, 48, 127
1, 52429, Note_off_c, 1, 79, 0
1, 52444, Note_on_c, 1, 77, 127
1, 52444, Note_on_c, 1, 68, 127
1, 52549, Note_off_c, 1, 48, 0
1, 52549, Note_off_c, 1, 77, 0
1, 52549, Note_off_c, 1, 68, 0
1, 52564, Note_on_c, 1, 76, 127
1, 52564, Note_on_c, 1, 67, 127
1, 52564, Note_on_c, 1, 60, 127
1, 52669, Note_off_c, 1, 67, 0
1, 52669, Note_off_c, 1, 60, 0
1, 52684, Note_on_c, 1, 73, 127
1, 52684, Note_on_c, 1, 46, 127
1, 52789, Note_off_c, 1, 76, 0
1, 52789, Note_off_c, 1, 73, 0
1, 52789, Note_off_c, 1, 46, 0
1, 52804, Note_on_c, 1, 75, 127
1, 52804, Note_on_c, 1, 72, 127
1, 52804, Note_on_c, 1, 45, 127
1, 52909, Note_off_c, 1, 75, 0
1, 52909, Note_off_c, 1, 45, 0
1, 52924, Note_on_c, 1, 81, 127
1, 52924, Note_on_c, 1, 54, 127
1, 52924, Note_on_c, 1, 51, 127
1, 53029, Note_off_c, 1, 72, 0
1, 53029, Note_off_c, 1, 81, 0
1, 53029, Note_off_c, 1, 54, 0
1, 53029, Note_off_c, 1, 51, 0
1, 53044, Note_on_c, 1, 82, 127
1, 53044, Note_on_c, 1, 53, 127
1, 53044, Note_on_c, 1, 49, 127
1, 53149, Note_off_c, 1, 82, 0
1, 53149, Note_off_c, 1, 53, 0
1, 53164, Note_on_c, 1, 76, 127
1, 53164, Note_on_c, 1, 70, 127
1, 53164, Note_on_c, 1, 55, 127
1, 53269, Note_off_c, 1, 49, 0
1, 53269, Note_off_c, 1, 76, 0
1, 53269, Note_off_c, 1, 70, 0
1, 53269, Note_off_c, 1, 55, 0
1, 53284, Note_on_c, 1, 77, 127
1, 53284, Note_on_c, 1, 68, 127
1, 53284, Note_on_c, 1, 56, 127
1, 53336, Note_off_c, 1, 68, 0
1, 53336, Note_off_c, 1, 56, 0
1, 53344, Note_on_c, 1, 72, 127
1, 53344, Note_on_c, 1, 58, 127
1, 53389, Note_off_c, 1, 77, 0
1, 53396, Note_off_c, 1, 72, 0
1, 53396, Note_off_c, 1, 58, 0
1, 53404, Note_on_c, 1, 70, 127
1, 53404, Note_on_c, 1, 60, 127
1, 53404, Note_on_c, 1, 48, 127
1, 53456, Note_off_c, 1, 70, 0
1, 53464, Note_on_c, 1, 68, 127
1, 53509, Note_off_c, 1, 60, 0
1, 53509, Note_off_c, 1, 48, 0
1, 53516, Note_off_c, 1, 68, 0
1, 53524, Note_on_c, 1, 76, 127
1, 53524, Note_on_c, 1, 67, 127
1, 53524, Note_on_c, 1, 46, 127
1, 53576, Note_off_c, 1, 67, 0
1, 53576, Note_off_c, 1, 46, 0
1, 53584, Note_on_c, 1, 70, 127
1, 53584, Note_on_c, 1, 49, 127
1, 53629, Note_off_c, 1, 76, 0
1, 53636, Note_off_c, 1, 70, 0
1, 53636, Note_off_c, 1, 49, 0
1, 53644, Note_on_c, 1, 68, 127
1, 53644, Note_on_c, 1, 48, 127
1, 53696, Note_off_c, 1, 68, 0
1, 53696, Note_off_c, 1, 48, 0
1, 53704, Note_on_c, 1, 67, 127
1, 53704, Note_on_c, 1, 46, 127
1, 53756, Note_off_c, 1, 67, 0
1, 53756, Note_off_c, 1, 46, 0
1, 53764, Note_on_c, 1, 77, 127
1, 53764, Note_on_c, 1, 65, 127
1, 53764, Note_on_c, 1, 44, 127
1, 53816, Note_off_c, 1, 65, 0
1, 53816, Note_off_c, 1, 44, 0
1, 53824, Note_on_c, 1, 68, 127
1, 53824, Note_on_c, 1, 48, 127
1, 53869, Note_off_c, 1, 77, 0
1, 53876, Note_off_c, 1, 68, 0
1, 53876, Note_off_c, 1, 48, 0
1, 53884, Note_on_c, 1, 67, 127
1, 53884, Note_on_c, 1, 46, 127
1, 53936, Note_off_c, 1, 67, 0
1, 53936, Note_off_c, 1, 46, 0
1, 53944, Note_on_c, 1, 65, 127
1, 53944, Note_on_c, 1, 44, 127
1, 53996, Note_off_c, 1, 65, 0
1, 53996, Note_off_c, 1, 44, 0
1, 54004, Note_on_c, 1, 70, 127
1, 54004, Note_on_c, 1, 64, 127
1, 54004, Note_on_c, 1, 43, 127
1, 54056, Note_off_c, 1, 64, 0
1, 54056, Note_off_c, 1, 43, 0
1, 54064, Note_on_c, 1, 67, 127
1, 54064, Note_on_c, 1, 46, 127
1, 54109, Note_off_c, 1, 70, 0
1, 54116, Note_off_c, 1, 67, 0
1, 54116, Note_off_c, 1, 46, 0
1, 54124, Note_on_c, 1, 72, 127
1, 54124, Note_on_c, 1, 65, 127
1, 54124, Note_on_c, 1, 60, 127
1, 54124, Note_on_c, 1, 44, 127
1, 54176, Note_off_c, 1, 72, 0
1, 54176, Note_off_c, 1, 44, 0
1, 54184, Note_on_c, 1, 70, 127
1, 54184, Note_on_c, 1, 43, 127
1, 54229, Note_off_c, 1, 65, 0
1, 54229, Note_off_c, 1, 60, 0
1, 54236, Note_off_c, 1, 70, 0
1, 54236, Note_off_c, 1, 43, 0
1, 54244, Note_on_c, 1, 68, 127
1, 54244, Note_on_c, 1, 61, 127
1, 54244, Note_on_c, 1, 41, 127
1, 54296, Note_off_c, 1, 41, 0
1, 54304, Note_on_c, 1, 44, 127
1, 54349, Note_off_c, 1, 68, 0
1, 54349, Note_off_c, 1, 61, 0
1, 54356, Note_off_c, 1, 44, 0
1, 54364, Note_on_c, 1, 70, 127
1, 54364, Note_on_c, 1, 64, 127
1, 54364, Note_on_c, 1, 58, 127
1, 54364, Note_on_c, 1, 43, 127
1, 54416, Note_off_c, 1, 70, 0
1, 54424, Note_on_c, 1, 68, 127
1, 54469, Note_off_c, 1, 64, 0
1, 54469, Note_off_c, 1, 58, 0
1, 54469, Note_off_c, 1, 43, 0
1, 54476, Note_off_c, 1, 68, 0
1, 54484, Note_on_c, 1, 67, 127
1, 54484, Note_on_c, 1, 70, 127
1, 54484, Note_on_c, 1, 52, 127
1, 54589, Note_off_c, 1, 67, 0
1, 54589, Note_off_c, 1, 70, 0
1, 54589, Note_off_c, 1, 52, 0
1, 54604, Note_on_c, 1, 68, 127
1, 54604, Note_on_c, 1, 53, 127
1, 54604, Note_on_c, 1, 41, 127
1, 54656, Note_off_c, 1, 68, 0
1, 54664, Note_on_c, 1, 67, 127
1, 54709, Note_off_c, 1, 41, 0
1, 54716, Note_off_c, 1, 67, 0
1, 54724, Note_on_c, 1, 48, 127
1, 54784, Note_on_c, 1, 65, 127
1, 54829, Note_off_c, 1, 53, 0
1, 54829, Note_off_c, 1, 48, 0
1, 54836, Note_off_c, 1, 65, 0
1, 54844, Note_on_c, 1, 67, 127
1, 54844, Note_on_c, 1, 61, 127
1, 54844, Note_on_c, 1, 46, 127
1, 54896, Note_off_c, 1, 46, 0
1, 54904, Note_on_c, 1, 44, 127
1, 54949, Note_off_c, 1, 67, 0
1, 54949, Note_off_c, 1, 61, 0
1, 54956, Note_off_c, 1, 44, 0
1, 54964, Note_on_c, 1, 73, 127
1, 54964, Note_on_c, 1, 52, 127
1, 54964, Note_on_c, 1, 46, 127
1, 55069, Note_off_c, 1, 73, 0
1, 55069, Note_off_c, 1, 46, 0
1, 55084, Note_on_c, 1, 72, 127
1, 55084, Note_on_c, 1, 67, 127
1, 55084, Note_on_c, 1, 43, 127
1, 55136, Note_off_c, 1, 72, 0
1, 55144, Note_on_c, 1, 70, 127
1, 55189, Note_off_c, 1, 43, 0
1, 55196, Note_off_c, 1, 70, 0
1, 55204, Note_on_c, 1, 44, 127
1, 55309, Note_off_c, 1, 52, 0
1, 55309, Note_off_c, 1, 67, 0
1, 55324, Note_on_c, 1, 65, 127
1, 55324, Note_on_c, 1, 50, 127
1, 55376, Note_off_c, 1, 65, 0
1, 55376, Note_off_c, 1, 50, 0
1, 55384, Note_on_c, 1, 64, 127
1, 55384, Note_on_c, 1, 48, 127
1, 55436, Note_off_c, 1, 64, 0
1, 55436, Note_off_c, 1, 48, 0
1, 55444, Note_on_c, 1, 68, 127
1, 55444, Note_on_c, 1, 53, 127
1, 55549, Note_off_c, 1, 44, 0
1, 55624, Note_on_c, 1, 41, 127
1, 55676, Note_off_c, 1, 41, 0
1, 55789, Note_off_c, 1, 68, 0
1, 55789, Note_off_c, 1, 53, 0
1, 55804, Note_on_c, 1, 51, 127
1, 55856, Note_off_c, 1, 51, 0
1, 55864, Note_on_c, 1, 49, 127
1, 55916, Note_off_c, 1, 49, 0
1, 55924, Note_on_c, 1, 55, 127
1, 56164, Note_on_c, 1, 75, 127
1, 56269, Note_off_c, 1, 55, 0
1, 56404, Note_on_c, 1, 56, 127
1, 56509, Note_off_c, 1, 75, 0
1, 56644, Note_on_c, 1, 77, 127
1, 56749, Note_off_c, 1, 56, 0
1, 56749, Note_off_c, 1, 77, 0
1, 56884, Note_on_c, 1, 58, 127
1, 56989, Note_off_c, 1, 58, 0
1, 57004, Note_on_c, 1, 60, 127
1, 57109, Note_off_c, 1, 60, 0
1, 57124, Note_on_c, 1, 73, 127
1, 57124, Note_on_c, 1, 70, 127
1, 57124, Note_on_c, 1, 55, 127
1, 57124, Note_on_c, 1, 46, 127
1, 57229, Note_off_c, 1, 70, 0
1, 57229, Note_off_c, 1, 46, 0
1, 57244, Note_on_c, 1, 58, 127
1, 57244, Note_on_c, 1, 51, 127
1, 57349, Note_off_c, 1, 73, 0
1, 57349, Note_off_c, 1, 55, 0
1, 57349, Note_off_c, 1, 58, 0
1, 57364, Note_on_c, 1, 60, 127
1, 57364, Note_on_c, 1, 56, 127
1, 57469, Note_off_c, 1, 51, 0
1, 57469, Note_off_c, 1, 60, 0
1, 57484, Note_on_c, 1, 72, 127
1, 57484, Note_on_c, 1, 68, 127
1, 57484, Note_on_c, 1, 50, 127
1, 57589, Note_off_c, 1, 56, 0
1, 57589, Note_off_c, 1, 72, 0
1, 57589, Note_off_c, 1, 50, 0
1, 57709, Note_off_c, 1, 68, 0
1, 57724, Note_on_c, 1, 77, 127
1, 57724, Note_on_c, 1, 67, 127
1, 57724, Note_on_c, 1, 58, 127
1, 57724, Note_on_c, 1, 49, 127
1, 57829, Note_off_c, 1, 77, 0
1, 57829, Note_off_c, 1, 67, 0
1, 57829, Note_off_c, 1, 58, 0
1, 57829, Note_off_c, 1, 49, 0
1, 57844, Note_on_c, 1, 75, 127
1, 57844, Note_on_c, 1, 68, 127
1, 57844, Note_on_c, 1, 60, 127
1, 57844, Note_on_c, 1, 48, 127
1, 57896, Note_off_c, 1, 48, 0
1, 57904, Note_on_c, 1, 51, 127
1, 57949, Note_off_c, 1, 68, 0
1, 57949, Note_off_c, 1, 60, 0
1, 57956, Note_off_c, 1, 51, 0
1, 57964, Note_on_c, 1, 53, 127
1, 57964, Note_on_c, 1, 49, 127
1, 58016, Note_off_c, 1, 49, 0
1, 58069, Note_off_c, 1, 75, 0
1, 58069, Note_off_c, 1, 53, 0
1, 58084, Note_on_c, 1, 70, 127
1, 58084, Note_on_c, 1, 55, 127
1, 58084, Note_on_c, 1, 46, 127
1, 58136, Note_off_c, 1, 46, 0
1, 58144, Note_on_c, 1, 49, 127
1, 58189, Note_off_c, 1, 70, 0
1, 58196, Note_off_c, 1, 49, 0
1, 58204, Note_on_c, 1, 73, 127
1, 58204, Note_on_c, 1, 48, 127
1, 58256, Note_off_c, 1, 48, 0
1, 58309, Note_off_c, 1, 55, 0
1, 58309, Note_off_c, 1, 73, 0
1, 58324, Note_on_c, 1, 72, 127
1, 58324, Note_on_c, 1, 63, 127
1, 58324, Note_on_c, 1, 44, 127
1, 58376, Note_off_c, 1, 72, 0
1, 58384, Note_on_c, 1, 75, 127
1, 58429, Note_off_c, 1, 63, 0
1, 58429, Note_off_c, 1, 44, 0
1, 58436, Note_off_c, 1, 75, 0
1, 58444, Note_on_c, 1, 73, 127
1, 58444, Note_on_c, 1, 68, 127
1, 58444, Note_on_c, 1, 56, 127
1, 58496, Note_off_c, 1, 73, 0
1, 58504, Note_on_c, 1, 72, 127
1, 58549, Note_off_c, 1, 68, 0
1, 58549, Note_off_c, 1, 56, 0
1, 58556, Note_off_c, 1, 72, 0
1, 58564, Note_on_c, 1, 70, 127
1, 58564, Note_on_c, 1, 67, 127
1, 58564, Note_on_c, 1, 58, 127
1, 58616, Note_off_c, 1, 70, 0
1, 58616, Note_off_c, 1, 58, 0
1, 58624, Note_on_c, 1, 73, 127
1, 58624, Note_on_c, 1, 55, 127
1, 58669, Note_off_c, 1, 67, 0
1, 58676, Note_off_c, 1, 73, 0
1, 58676, Note_off_c, 1, 55, 0
1, 58684, Note_on_c, 1, 72, 127
1, 58684, Note_on_c, 1, 66, 127
1, 58684, Note_on_c, 1, 56, 127
1, 58736, Note_off_c, 1, 72, 0
1, 58736, Note_off_c, 1, 56, 0
1, 58744, Note_on_c, 1, 70, 127
1, 58744, Note_on_c, 1, 58, 127
1, 58789, Note_off_c, 1, 66, 0
1, 58796, Note_off_c, 1, 70, 0
1, 58796, Note_off_c, 1, 58, 0
1, 58804, Note_on_c, 1, 68, 127
1, 58804, Note_on_c, 1, 65, 127
1, 58804, Note_on_c, 1, 60, 127
1, 58804, Note_on_c, 1, 56, 127
1, 58856, Note_off_c, 1, 68, 0
1, 58856, Note_off_c, 1, 60, 0
1, 58864, Note_on_c, 1, 72, 127
1, 58909, Note_off_c, 1, 65, 0
1, 58916, Note_off_c, 1, 72, 0
1, 58924, Note_on_c, 1, 70, 127
1, 58924, Note_on_c, 1, 64, 127
1, 58924, Note_on_c, 1, 58, 127
1, 58976, Note_off_c, 1, 70, 0
1, 58976, Note_off_c, 1, 58, 0
1, 59029, Note_off_c, 1, 64, 0
1, 59044, Note_on_c, 1, 67, 127
1, 59044, Note_on_c, 1, 63, 127
1, 59044, Note_on_c, 1, 61, 127
1, 59096, Note_off_c, 1, 67, 0
1, 59096, Note_off_c, 1, 61, 0
1, 59149, Note_off_c, 1, 56, 0
1, 59149, Note_off_c, 1, 63, 0
1, 59164, Note_on_c, 1, 68, 127
1, 59164, Note_on_c, 1, 60, 127
1, 59164, Note_on_c, 1, 56, 127
1, 59216, Note_off_c, 1, 60, 0
1, 59224, Note_on_c, 1, 61, 127
1, 59269, Note_off_c, 1, 68, 0
1, 59269, Note_off_c, 1, 56, 0
1, 59276, Note_off_c, 1, 61, 0
1, 59284, Note_on_c, 1, 63, 127
1, 59284, Note_on_c, 1, 55, 127
1, 59336, Note_off_c, 1, 63, 0
1, 59336, Note_off_c, 1, 55, 0
1, 59344, Note_on_c, 1, 60, 127
1, 59344, Note_on_c, 1, 56, 127
1, 59396, Note_off_c, 1, 60, 0
1, 59396, Note_off_c, 1, 56, 0
1, 59404, Note_on_c, 1, 67, 127
1, 59404, Note_on_c, 1, 61, 127
1, 59404, Note_on_c, 1, 58, 127
1, 59509, Note_off_c, 1, 67, 0
1, 59509, Note_off_c, 1, 61, 0
1, 59509, Note_off_c, 1, 58, 0
1, 59524, Note_on_c, 1, 73, 127
1, 59524, Note_on_c, 1, 51, 127
1, 59629, Note_off_c, 1, 73, 0
1, 59629, Note_off_c, 1, 51, 0
1, 59644, Note_on_c, 1, 72, 127
1, 59644, Note_on_c, 1, 63, 127
1, 59644, Note_on_c, 1, 54, 127
1, 59696, Note_off_c, 1, 72, 0
1, 59704, Note_on_c, 1, 70, 127
1, 59749, Note_off_c, 1, 63, 0
1, 59756, Note_off_c, 1, 70, 0
1, 59764, Note_on_c, 1, 56, 127
1, 59869, Note_off_c, 1, 54, 0
1, 59869, Note_off_c, 1, 56, 0
1, 59884, Note_on_c, 1, 73, 127
1, 59884, Note_on_c, 1, 58, 127
1, 59884, Note_on_c, 1, 53, 127
1, 59936, Note_off_c, 1, 58, 0
1, 59944, Note_on_c, 1, 60, 127
1, 59989, Note_off_c, 1, 73, 0
1, 59996, Note_off_c, 1, 60, 0
1, 60004, Note_on_c, 1, 66, 127
1, 60109, Note_off_c, 1, 53, 0
1, 60124, Note_on_c, 1, 51, 127
1, 60184, Note_on_c, 1, 61, 127
1, 60229, Note_off_c, 1, 51, 0
1, 60236, Note_off_c, 1, 61, 0
1, 60244, Note_on_c, 1, 63, 127
1, 60244, Note_on_c, 1, 46, 127
1, 60349, Note_off_c, 1, 66, 0
1, 60349, Note_off_c, 1, 46, 0
1, 60364, Note_on_c, 1, 48, 127
1, 60416, Note_off_c, 1, 48, 0
1, 60424, Note_on_c, 1, 49, 127
1, 60476, Note_off_c, 1, 49, 0
1, 60484, Note_on_c, 1, 75, 127
1, 60589, Note_off_c, 1, 63, 0
1, 60589, Note_off_c, 1, 75, 0
1, 60604, Note_on_c, 1, 73, 127
1, 60604, Note_on_c, 1, 66, 127
1, 60604, Note_on_c, 1, 44, 127
1, 60656, Note_off_c, 1, 73, 0
1, 60664, Note_on_c, 1, 72, 127
1, 60709, Note_off_c, 1, 44, 0
1, 60716, Note_off_c, 1, 72, 0
1, 60724, Note_on_c, 1, 46, 127
1, 60829, Note_off_c, 1, 66, 0
1, 60829, Note_off_c, 1, 46, 0
1, 60844, Note_on_c, 1, 75, 127
1, 60844, Note_on_c, 1, 65, 127
1, 60844, Note_on_c, 1, 48, 127
1, 60896, Note_off_c, 1, 65, 0
1, 60904, Note_on_c, 1, 63, 127
1, 60949, Note_off_c, 1, 75, 0
1, 60949, Note_off_c, 1, 48, 0
1, 60956, Note_off_c, 1, 63, 0
1, 60964, Note_on_c, 1, 68, 127
1, 60964, Note_on_c, 1, 65, 127
1, 60964, Note_on_c, 1, 49, 127
1, 61069, Note_off_c, 1, 65, 0
1, 61069, Note_off_c, 1, 49, 0
1, 61084, Note_on_c, 1, 47, 127
1, 61189, Note_off_c, 1, 47, 0
1, 61204, Note_on_c, 1, 62, 127
1, 61204, Note_on_c, 1, 46, 127
1, 61309, Note_off_c, 1, 68, 0
1, 61309, Note_off_c, 1, 62, 0
1, 61309, Note_off_c, 1, 46, 0
1, 61324, Note_on_c, 1, 68, 127
1, 61324, Note_on_c, 1, 44, 127
1, 61376, Note_off_c, 1, 44, 0
1, 61384, Note_on_c, 1, 43, 127
1, 61429, Note_off_c, 1, 68, 0
1, 61436, Note_off_c, 1, 43, 0
1, 61444, Note_on_c, 1, 77, 127
1, 61444, Note_on_c, 1, 44, 127
1, 61549, Note_off_c, 1, 77, 0
1, 61549, Note_off_c, 1, 44, 0
1, 61564, Note_on_c, 1, 75, 127
1, 61564, Note_on_c, 1, 58, 127
1, 61564, Note_on_c, 1, 46, 127
1, 61616, Note_off_c, 1, 75, 0
1, 61624, Note_on_c, 1, 74, 127
1, 61669, Note_off_c, 1, 58, 0
1, 61669, Note_off_c, 1, 46, 0
1, 61676, Note_off_c, 1, 74, 0
1, 61684, Note_on_c, 1, 75, 127
1, 61684, Note_on_c, 1, 68, 127
1, 61684, Note_on_c, 1, 48, 127
1, 61789, Note_off_c, 1, 75, 0
1, 61789, Note_off_c, 1, 68, 0
1, 61789, Note_off_c, 1, 48, 0
1, 61804, Note_on_c, 1, 77, 127
1, 61804, Note_on_c, 1, 66, 127
1, 61804, Note_on_c, 1, 50, 127
1, 61856, Note_off_c, 1, 66, 0
1, 61864, Note_on_c, 1, 65, 127
1, 61909, Note_off_c, 1, 77, 0
1, 61909, Note_off_c, 1, 50, 0
1, 61916, Note_off_c, 1, 65, 0
1, 61924, Note_on_c, 1, 70, 127
1, 61924, Note_on_c, 1, 66, 127
1, 61924, Note_on_c, 1, 51, 127
1, 61976, Note_off_c, 1, 66, 0
1, 61976, Note_off_c, 1, 51, 0
1, 61984, Note_on_c, 1, 65, 127
1, 61984, Note_on_c, 1, 50, 127
1, 62036, Note_off_c, 1, 65, 0
1, 62036, Note_off_c, 1, 50, 0
1, 62104, Note_on_c, 1, 53, 127
1, 62156, Note_off_c, 1, 53, 0
1, 62164, Note_on_c, 1, 60, 127
1, 62164, Note_on_c, 1, 54, 127
1, 62269, Note_off_c, 1, 70, 0
1, 62269, Note_off_c, 1, 54, 0
1, 62284, Note_on_c, 1, 69, 127
1, 62336, Note_off_c, 1, 69, 0
1, 62344, Note_on_c, 1, 67, 127
1, 62396, Note_off_c, 1, 67, 0
1, 62509, Note_off_c, 1, 60, 0
1, 62524, Note_on_c, 1, 70, 127
1, 62524, Note_on_c, 1, 58, 127
1, 62524, Note_on_c, 1, 49, 127
1, 62629, Note_off_c, 1, 70, 0
1, 62629, Note_off_c, 1, 49, 0
1, 62644, Note_off_c, 1, 58, 0
1, 62644, Note_on_c, 1, 63, 127
1, 62644, Note_on_c, 1, 48, 127
1, 62749, Note_off_c, 1, 48, 0
1, 62764, Note_on_c, 1, 57, 127
1, 62816, Note_off_c, 1, 57, 0
1, 62824, Note_on_c, 1, 55, 127
1, 62876, Note_off_c, 1, 55, 0
1, 63004, Note_on_c, 1, 60, 127
1, 63004, Note_on_c, 1, 46, 127
1, 63109, Note_off_c, 1, 60, 0
1, 63109, Note_off_c, 1, 46, 0
1, 63124, Note_on_c, 1, 53, 127
1, 63124, Note_on_c, 1, 45, 127
1, 63229, Note_off_c, 1, 63, 0
1, 63229, Note_off_c, 1, 45, 0
1, 63244, Note_on_c, 1, 61, 127
1, 63244, Note_on_c, 1, 41, 127
1, 63296, Note_off_c, 1, 61, 0
1, 63349, Note_off_c, 1, 41, 0
1, 63469, Note_off_c, 1, 53, 0
1, 63484, Note_on_c, 1, 51, 127
1, 63536, Note_off_c, 1, 51, 0
1, 63604, Note_on_c, 1, 66, 127
1, 63724, Note_on_c, 1, 69, 127
1, 63829, Note_off_c, 1, 66, 0
1, 63829, Note_off_c, 1, 69, 0
1, 63844, Note_on_c, 1, 65, 127
1, 64024, Note_on_c, 1, 68, 127
1, 64069, Note_off_c, 1, 65, 0
1, 64076, Note_off_c, 1, 68, 0
1, 64324, Note_on_c, 1, 62, 127
1, 64429, Note_off_c, 1, 62, 0
1, 64444, Note_on_c, 1, 74, 127
1, 64444, Note_on_c, 1, 59, 127
1, 64549, Note_off_c, 1, 74, 0
1, 64549, Note_off_c, 1, 59, 0
1, 64564, Note_on_c, 1, 75, 127
1, 64564, Note_on_c, 1, 66, 127
1, 64564, Note_on_c, 1, 58, 127
1, 64669, Note_off_c, 1, 75, 0
1, 64669, Note_off_c, 1, 58, 0
1, 64684, Note_on_c, 1, 73, 127
1, 64684, Note_on_c, 1, 57, 127
1, 64684, Note_on_c, 1, 48, 127
1, 64736, Note_off_c, 1, 73, 0
1, 64744, Note_on_c, 1, 72, 127
1, 64789, Note_off_c, 1, 66, 0
1, 64789, Note_off_c, 1, 57, 0
1, 64789, Note_off_c, 1, 48, 0
1, 64796, Note_off_c, 1, 72, 0
1, 64804, Note_on_c, 1, 77, 127
1, 64804, Note_on_c, 1, 58, 127
1, 64804, Note_on_c, 1, 49, 127
1, 64856, Note_off_c, 1, 49, 0
1, 64864, Note_on_c, 1, 46, 127
1, 64909, Note_off_c, 1, 77, 0
1, 64916, Note_off_c, 1, 46, 0
1, 64924, Note_on_c, 1, 65, 127
1, 64924, Note_on_c, 1, 48, 127
1, 64976, Note_off_c, 1, 48, 0
1, 65029, Note_off_c, 1, 65, 0
1, 65044, Note_on_c, 1, 66, 127
1, 65044, Note_on_c, 1, 63, 127
1, 65044, Note_on_c, 1, 51, 127
1, 65096, Note_off_c, 1, 63, 0
1, 65096, Note_off_c, 1, 51, 0
1, 65156, Note_off_c, 1, 66, 0
1, 65284, Note_on_c, 1, 61, 127
1, 65284, Note_on_c, 1, 53, 127
1, 65336, Note_off_c, 1, 61, 0
1, 65336, Note_off_c, 1, 53, 0
1, 65524, Note_on_c, 1, 60, 127
1, 65524, Note_on_c, 1, 54, 127
1, 65576, Note_off_c, 1, 60, 0
1, 65576, Note_off_c, 1, 54, 0
1, 65629, Note_off_c, 1, 58, 0
1, 65644, Note_on_c, 1, 61, 127
1, 65644, Note_on_c, 1, 57, 127
1, 65644, Note_on_c, 1, 53, 127
1, 65696, Note_off_c, 1, 61, 0
1, 65704, Note_on_c, 1, 60, 127
1, 65749, Note_off_c, 1, 57, 0
1, 65749, Note_off_c, 1, 53, 0
1, 65756, Note_off_c, 1, 60, 0
1, 65764, Note_on_c, 1, 58, 127
1, 65824, Note_on_c, 1, 61, 127
1, 65876, Note_off_c, 1, 61, 0
1, 65884, Note_on_c, 1, 60, 127
1, 65884, Note_on_c, 1, 54, 127
1, 65989, Note_off_c, 1, 58, 0
1, 65989, Note_off_c, 1, 60, 0
1, 65989, Note_off_c, 1, 54, 0
1, 66004, Note_on_c, 1, 56, 127
1, 66004, Note_on_c, 1, 48, 127
1, 66109, Note_off_c, 1, 48, 0
1, 66124, Note_on_c, 1, 58, 127
1, 66124, Note_on_c, 1, 50, 127
1, 66176, Note_off_c, 1, 50, 0
1, 66184, Note_on_c, 1, 51, 127
1, 66229, Note_off_c, 1, 58, 0
1, 66236, Note_off_c, 1, 51, 0
1, 66244, Note_on_c, 1, 65, 127
1, 66349, Note_off_c, 1, 65, 0
1, 66364, Note_on_c, 1, 63, 127
1, 66364, Note_on_c, 1, 46, 127
1, 66416, Note_off_c, 1, 63, 0
1, 66424, Note_on_c, 1, 62, 127
1, 66469, Note_off_c, 1, 56, 0
1, 66469, Note_off_c, 1, 46, 0
1, 66476, Note_off_c, 1, 62, 0
1, 66484, Note_on_c, 1, 63, 127
1, 66484, Note_on_c, 1, 55, 127
1, 66484, Note_on_c, 1, 51, 127
1, 66589, Note_off_c, 1, 51, 0
1, 66604, Note_on_c, 1, 70, 127
1, 66604, Note_on_c, 1, 49, 127
1, 66709, Note_off_c, 1, 63, 0
1, 66709, Note_off_c, 1, 55, 0
1, 66709, Note_off_c, 1, 70, 0
1, 66709, Note_off_c, 1, 49, 0
1, 66724, Note_on_c, 1, 75, 127
1, 66724, Note_on_c, 1, 54, 127
1, 66724, Note_on_c, 1, 48, 127
1, 66829, Note_off_c, 1, 48, 0
1, 66844, Note_on_c, 1, 63, 127
1, 66844, Note_on_c, 1, 46, 127
1, 66949, Note_off_c, 1, 54, 0
1, 66949, Note_off_c, 1, 63, 0
1, 66949, Note_off_c, 1, 46, 0
1, 66964, Note_on_c, 1, 72, 127
1, 66964, Note_on_c, 1, 53, 127
1, 66964, Note_on_c, 1, 45, 127
1, 67069, Note_off_c, 1, 75, 0
1, 67069, Note_off_c, 1, 45, 0
1, 67084, Note_on_c, 1, 73, 127
1, 67084, Note_on_c, 1, 41, 127
1, 67136, Note_off_c, 1, 73, 0
1, 67189, Note_off_c, 1, 41, 0
1, 67309, Note_off_c, 1, 72, 0
1, 67324, Note_on_c, 1, 70, 127
1, 67376, Note_off_c, 1, 70, 0
1, 67384, Note_on_c, 1, 69, 127
1, 67436, Note_off_c, 1, 69, 0
1, 67444, Note_on_c, 1, 49, 127
1, 67496, Note_off_c, 1, 53, 0
1, 67549, Note_off_c, 1, 49, 0
1, 67624, Note_on_c, 1, 52, 127
1, 67676, Note_off_c, 1, 52, 0
1, 68044, Note_on_c, 1, 60, 127
1, 68104, Note_on_c, 1, 67, 127
1, 68149, Note_off_c, 1, 60, 0
1, 68156, Note_off_c, 1, 67, 0
1, 68164, Note_on_c, 1, 65, 127
1, 68284, Note_on_c, 1, 51, 127
1, 68336, Note_off_c, 1, 51, 0
1, 68389, Note_off_c, 1, 65, 0
1, 68404, Note_on_c, 1, 70, 127
1, 68404, Note_on_c, 1, 61, 127
1, 68404, Note_on_c, 1, 54, 127
1, 68456, Note_off_c, 1, 54, 0
1, 68464, Note_on_c, 1, 56, 127
1, 68516, Note_off_c, 1, 56, 0
1, 68584, Note_on_c, 1, 53, 127
1, 68629, Note_off_c, 1, 70, 0
1, 68629, Note_off_c, 1, 61, 0
1, 68636, Note_off_c, 1, 53, 0
1, 68644, Note_on_c, 1, 72, 127
1, 68644, Note_on_c, 1, 63, 127
1, 68644, Note_on_c, 1, 54, 127
1, 68644, Note_on_c, 1, 51, 127
1, 68869, Note_off_c, 1, 72, 0
1, 68869, Note_off_c, 1, 63, 0
1, 68869, Note_off_c, 1, 54, 0
1, 68869, Note_off_c, 1, 51, 0
1, 68884, Note_on_c, 1, 53, 127
1, 68884, Note_on_c, 1, 49, 127
1, 69004, Note_on_c, 1, 73, 127
1, 69004, Note_on_c, 1, 65, 127
1, 69109, Note_off_c, 1, 53, 0
1, 69109, Note_off_c, 1, 49, 0
1, 69109, Note_off_c, 1, 73, 0
1, 69109, Note_off_c, 1, 65, 0
1, 69124, Note_on_c, 1, 75, 127
1, 69124, Note_on_c, 1, 66, 127
1, 69229, Note_off_c, 1, 75, 0
1, 69229, Note_off_c, 1, 66, 0
1, 69244, Note_on_c, 1, 69, 127
1, 69244, Note_on_c, 1, 60, 127
1, 69244, Note_on_c, 1, 51, 127
1, 69244, Note_on_c, 1, 48, 127
1, 69349, Note_off_c, 1, 69, 0
1, 69349, Note_off_c, 1, 60, 0
1, 69349, Note_off_c, 1, 51, 0
1, 69349, Note_off_c, 1, 48, 0
1, 69364, Note_on_c, 1, 70, 127
1, 69364, Note_on_c, 1, 62, 127
1, 69364, Note_on_c, 1, 50, 127
1, 69364, Note_on_c, 1, 46, 127
1, 69469, Note_off_c, 1, 50, 0
1, 69469, Note_off_c, 1, 46, 0
1, 69484, Note_on_c, 1, 56, 127
1, 69484, Note_on_c, 1, 53, 127
1, 69589, Note_off_c, 1, 70, 0
1, 69589, Note_off_c, 1, 62, 0
1, 69589, Note_off_c, 1, 56, 0
1, 69589, Note_off_c, 1, 53, 0
1, 69604, Note_on_c, 1, 54, 127
1, 69604, Note_on_c, 1, 51, 127
1, 69724, Note_on_c, 1, 72, 127
1, 69724, Note_on_c, 1, 69, 127
1, 69829, Note_off_c, 1, 54, 0
1, 69829, Note_off_c, 1, 51, 0
1, 69829, Note_off_c, 1, 72, 0
1, 69829, Note_off_c, 1, 69, 0
1, 69844, Note_on_c, 1, 73, 127
1, 69844, Note_on_c, 1, 70, 127
1, 69896, Note_off_c, 1, 73, 0
1, 69896, Note_off_c, 1, 70, 0
1, 69904, Note_on_c, 1, 70, 127
1, 69904, Note_on_c, 1, 67, 127
1, 69956, Note_off_c, 1, 70, 0
1, 69956, Note_off_c, 1, 67, 0
1, 69964, Note_on_c, 1, 72, 127
1, 69964, Note_on_c, 1, 69, 127
1, 69964, Note_on_c, 1, 53, 127
1, 69964, Note_on_c, 1, 49, 127
1, 70016, Note_off_c, 1, 72, 0
1, 70016, Note_off_c, 1, 69, 0
1, 70024, Note_on_c, 1, 73, 127
1, 70024, Note_on_c, 1, 70, 127
1, 70069, Note_off_c, 1, 53, 0
1, 70069, Note_off_c, 1, 49, 0
1, 70076, Note_off_c, 1, 73, 0
1, 70076, Note_off_c, 1, 70, 0
1, 70084, Note_on_c, 1, 75, 127
1, 70084, Note_on_c, 1, 72, 127
1, 70084, Note_on_c, 1, 51, 127
1, 70084, Note_on_c, 1, 48, 127
1, 70136, Note_off_c, 1, 75, 0
1, 70136, Note_off_c, 1, 72, 0
1, 70136, Note_off_c, 1, 51, 0
1, 70136, Note_off_c, 1, 48, 0
1, 70144, Note_on_c, 1, 72, 127
1, 70144, Note_on_c, 1, 69, 127
1, 70144, Note_on_c, 1, 54, 127
1, 70144, Note_on_c, 1, 51, 127
1, 70196, Note_off_c, 1, 72, 0
1, 70196, Note_off_c, 1, 69, 0
1, 70196, Note_off_c, 1, 54, 0
1, 70196, Note_off_c, 1, 51, 0
1, 70204, Note_on_c, 1, 73, 127
1, 70204, Note_on_c, 1, 70, 127
1, 70204, Note_on_c, 1, 53, 127
1, 70204, Note_on_c, 1, 49, 127
1, 70256, Note_off_c, 1, 73, 0
1, 70256, Note_off_c, 1, 70, 0
1, 70256, Note_off_c, 1, 53, 0
1, 70256, Note_off_c, 1, 49, 0
1, 70264, Note_on_c, 1, 75, 127
1, 70264, Note_on_c, 1, 72, 127
1, 70264, Note_on_c, 1, 51, 127
1, 70264, Note_on_c, 1, 48, 127
1, 70316, Note_off_c, 1, 75, 0
1, 70316, Note_off_c, 1, 72, 0
1, 70316, Note_off_c, 1, 51, 0
1, 70316, Note_off_c, 1, 48, 0
1, 70324, Note_on_c, 1, 77, 127
1, 70324, Note_on_c, 1, 73, 127
1, 70324, Note_on_c, 1, 49, 127
1, 70324, Note_on_c, 1, 46, 127
1, 70376, Note_off_c, 1, 77, 0
1, 70376, Note_off_c, 1, 73, 0
1, 70376, Note_off_c, 1, 49, 0
1, 70376, Note_off_c, 1, 46, 0
1, 70384, Note_on_c, 1, 73, 127
1, 70384, Note_on_c, 1, 70, 127
1, 70384, Note_on_c, 1, 53, 127
1, 70384, Note_on_c, 1, 49, 127
1, 70436, Note_off_c, 1, 73, 0
1, 70436, Note_off_c, 1, 70, 0
1, 70436, Note_off_c, 1, 53, 0
1, 70436, Note_off_c, 1, 49, 0
1, 70444, Note_on_c, 1, 75, 127
1, 70444, Note_on_c, 1, 72, 127
1, 70444, Note_on_c, 1, 51, 127
1, 70444, Note_on_c, 1, 48, 127
1, 70496, Note_off_c, 1, 75, 0
1, 70496, Note_off_c, 1, 72, 0
1, 70496, Note_off_c, 1, 51, 0
1, 70496, Note_off_c, 1, 48, 0
1, 70504, Note_on_c, 1, 77, 127
1, 70504, Note_on_c, 1, 73, 127
1, 70504, Note_on_c, 1, 49, 127
1, 70504, Note_on_c, 1, 46, 127
1, 70556, Note_off_c, 1, 77, 0
1, 70556, Note_off_c, 1, 73, 0
1, 70556, Note_off_c, 1, 49, 0
1, 70556, Note_off_c, 1, 46, 0
1, 70564, Note_on_c, 1, 78, 127
1, 70564, Note_on_c, 1, 75, 127
1, 70564, Note_on_c, 1, 48, 127
1, 70564, Note_on_c, 1, 45, 127
1, 70616, Note_off_c, 1, 78, 0
1, 70616, Note_off_c, 1, 75, 0
1, 70616, Note_off_c, 1, 48, 0
1, 70616, Note_off_c, 1, 45, 0
1, 70624, Note_on_c, 1, 75, 127
1, 70624, Note_on_c, 1, 72, 127
1, 70624, Note_on_c, 1, 51, 127
1, 70624, Note_on_c, 1, 48, 127
1, 70676, Note_off_c, 1, 75, 0
1, 70676, Note_off_c, 1, 72, 0
1, 70676, Note_off_c, 1, 51, 0
1, 70676, Note_off_c, 1, 48, 0
1, 70684, Note_on_c, 1, 77, 127
1, 70684, Note_on_c, 1, 73, 127
1, 70684, Note_on_c, 1, 49, 127
1, 70684, Note_on_c, 1, 46, 127
1, 70736, Note_off_c, 1, 49, 0
1, 70736, Note_off_c, 1, 46, 0
1, 70744, Note_on_c, 1, 48, 127
1, 70744, Note_on_c, 1, 45, 127
1, 70789, Note_off_c, 1, 77, 0
1, 70789, Note_off_c, 1, 73, 0
1, 70796, Note_off_c, 1, 48, 0
1, 70796, Note_off_c, 1, 45, 0
1, 70804, Note_on_c, 1, 46, 127
1, 70804, Note_on_c, 1, 43, 127
1, 70856, Note_off_c, 1, 46, 0
1, 70856, Note_off_c, 1, 43, 0
1, 70864, Note_on_c, 1, 49, 127
1, 70864, Note_on_c, 1, 46, 127
1, 70916, Note_off_c, 1, 49, 0
1, 70916, Note_off_c, 1, 46, 0
1, 70924, Note_on_c, 1, 78, 127
1, 70924, Note_on_c, 1, 75, 127
1, 70924, Note_on_c, 1, 48, 127
1, 70924, Note_on_c, 1, 45, 127
1, 71029, Note_off_c, 1, 78, 0
1, 71029, Note_off_c, 1, 75, 0
1, 71029, Note_off_c, 1, 48, 0
1, 71029, Note_off_c, 1, 45, 0
1, 71044, Note_on_c, 1, 72, 127
1, 71044, Note_on_c, 1, 69, 127
1, 71149, Note_off_c, 1, 72, 0
1, 71149, Note_off_c, 1, 69, 0
1, 71164, Note_on_c, 1, 73, 127
1, 71164, Note_on_c, 1, 70, 127
1, 71164, Note_on_c, 1, 53, 127
1, 71164, Note_on_c, 1, 41, 127
1, 71216, Note_off_c, 1, 73, 0
1, 71216, Note_off_c, 1, 70, 0
1, 71224, Note_on_c, 1, 75, 127
1, 71224, Note_on_c, 1, 72, 127
1, 71269, Note_off_c, 1, 53, 0
1, 71269, Note_off_c, 1, 41, 0
1, 71276, Note_off_c, 1, 75, 0
1, 71276, Note_off_c, 1, 72, 0
1, 71284, Note_on_c, 1, 73, 127
1, 71284, Note_on_c, 1, 70, 127
1, 71284, Note_on_c, 1, 65, 127
1, 71284, Note_on_c, 1, 46, 127
1, 71389, Note_off_c, 1, 73, 0
1, 71389, Note_off_c, 1, 70, 0
1, 71389, Note_off_c, 1, 65, 0
1, 71389, Note_off_c, 1, 46, 0
1, 71404, Note_on_c, 1, 72, 127
1, 71404, Note_on_c, 1, 66, 127
1, 71404, Note_on_c, 1, 63, 127
1, 71404, Note_on_c, 1, 51, 127
1, 71509, Note_off_c, 1, 72, 0
1, 71509, Note_off_c, 1, 66, 0
1, 71509, Note_off_c, 1, 63, 0
1, 71509, Note_off_c, 1, 51, 0
1, 71524, Note_on_c, 1, 70, 127
1, 71524, Note_on_c, 1, 65, 127
1, 71524, Note_on_c, 1, 61, 127
1, 71524, Note_on_c, 1, 53, 127
1, 71749, Note_off_c, 1, 70, 0
1, 71749, Note_off_c, 1, 61, 0
1, 71749, Note_off_c, 1, 53, 0
1, 71764, Note_on_c, 1, 60, 127
1, 71764, Note_on_c, 1, 41, 127
1, 71800, Note_on_c, 1, 69, 127
1, 71819, Note_off_c, 1, 69, 0
1, 71989, Note_off_c, 1, 65, 0
1, 71989, Note_off_c, 1, 60, 0
1, 71989, Note_off_c, 1, 41, 0
1, 72004, Note_on_c, 1, 70, 127
1, 72004, Note_on_c, 1, 65, 127
1, 72004, Note_on_c, 1, 62, 127
1, 72004, Note_on_c, 1, 46, 127
1, 72709, Note_off_c, 1, 70, 0
1, 72709, Note_off_c, 1, 65, 0
1, 72709, Note_off_c, 1, 62, 0
1, 72709, Note_off_c, 1, 46, 0
1, 72709, End_track
0, 0, End_of_file