0, 0, Header, 1, 1, 480
1, 0, Start_track
1, 0, Title_t, "Test"
1, 0, Tempo, 500000
1, 0, Instrument_name_t, "Church Organ"
1, 4, Note_on_c, 1, 68, 127
1, 4, Note_on_c, 1, 72, 127
1, 4, Note_on_c, 1, 56, 127
1, 34, Note_on_c, 1, 63, 127
1, 56, Note_off_c, 1, 68, 0
1, 56, Note_off_c, 1, 72, 0
1, 82, Note_off_c, 1, 56, 0
1, 94, Note_on_c, 1, 58, 127
1, 107, Note_off_c, 1, 58, 0
1, 109, Note_on_c, 1, 60, 127
1, 122, Note_off_c, 1, 60, 0
1, 124, Note_on_c, 1, 51, 127
1, 154, Note_on_c, 1, 67, 127
1, 176, Note_off_c, 1, 63, 0
1, 180, Note_off_c, 1, 67, 0
1, 202, Note_off_c, 1, 51, 0
1, 214, Note_on_c, 1, 55, 127
1, 227, Note_off_c, 1, 55, 0
1, 244, Note_on_c, 1, 48, 127
1, 322, Note_off_c, 1, 48, 0
1, 334, Note_on_c, 1, 49, 127
1, 347, Note_off_c, 1, 49, 0
1, 364, Note_on_c, 1, 44, 127
1, 394, Note_on_c, 1, 68, 127
1, 416, Note_off_c, 1, 44, 0
1, 420, Note_off_c, 1, 68, 0
1, 424, Note_on_c, 1, 66, 127
1, 450, Note_off_c, 1, 66, 0
1, 454, Note_on_c, 1, 65, 127
1, 480, Note_off_c, 1, 65, 0
1, 484, Note_on_c, 1, 66, 127
1, 510, Note_off_c, 1, 66, 0
1, 514, Note_on_c, 1, 72, 127
1, 540, Note_off_c, 1, 72, 0
1, 544, Note_on_c, 1, 75, 127
1, 570, Note_off_c, 1, 75, 0
1, 574, Note_on_c, 1, 73, 127
1, 600, Note_off_c, 1, 73, 0
1, 604, Note_on_c, 1, 72, 127
1, 630, Note_off_c, 1, 72, 0
1, 634, Note_on_c, 1, 70, 127
1, 660, Note_off_c, 1, 70, 0
1, 664, Note_on_c, 1, 68, 127
1, 690, Note_off_c, 1, 68, 0
1, 694, Note_on_c, 1, 66, 127
1, 720, Note_off_c, 1, 66, 0
1, 724, Note_on_c, 1, 65, 127
1, 724, Note_on_c, 1, 73, 127
1, 724, Note_on_c, 1, 56, 127
1, 754, Note_on_c, 1, 68, 127
1, 776, Note_off_c, 1, 65, 0
1, 776, Note_off_c, 1, 73, 0
1, 802, Note_off_c, 1, 56, 0
1, 814, Note_on_c, 1, 60, 127
1, 827, Note_off_c, 1, 60, 0
1, 829, Note_on_c, 1, 61, 127
1, 842, Note_off_c, 1, 61, 0
1, 844, Note_on_c, 1, 53, 127
1, 874, Note_on_c, 1, 72, 127
1, 896, Note_off_c, 1, 68, 0
1, 900, Note_off_c, 1, 72, 0
1, 922, Note_off_c, 1, 53, 0
1, 934, Note_on_c, 1, 54, 127
1, 947, Note_off_c, 1, 54, 0
1, 964, Note_on_c, 1, 49, 127
1, 1042, Note_off_c, 1, 49, 0
1, 1054, Note_on_c, 1, 51, 127
1, 1067, Note_off_c, 1, 51, 0
1, 1084, Note_on_c, 1, 44, 127
1, 1114, Note_on_c, 1, 75, 127
1, 1136, Note_off_c, 1, 44, 0
1, 1140, Note_off_c, 1, 75, 0
1, 1144, Note_on_c, 1, 73, 127
1, 1170, Note_off_c, 1, 73, 0
1, 1174, Note_on_c, 1, 72, 127
1, 1200, Note_off_c, 1, 72, 0
1, 1204, Note_on_c, 1, 73, 127
1, 1230, Note_off_c, 1, 73, 0
1, 1234, Note_on_c, 1, 68, 127
1, 1260, Note_off_c, 1, 68, 0
1, 1264, Note_on_c, 1, 77, 127
1, 1290, Note_off_c, 1, 77, 0
1, 1294, Note_on_c, 1, 75, 127
1, 1320, Note_off_c, 1, 75, 0
1, 1324, Note_on_c, 1, 73, 127
1, 1350, Note_off_c, 1, 73, 0
1, 1354, Note_on_c, 1, 72, 127
1, 1380, Note_off_c, 1, 72, 0
1, 1384, Note_on_c, 1, 70, 127
1, 1410, Note_off_c, 1, 70, 0
1, 1414, Note_on_c, 1, 68, 127
1, 1440, Note_off_c, 1, 68, 0
1, 1444, Note_on_c, 1, 67, 127
1, 1470, Note_off_c, 1, 67, 0
1, 1474, Note_on_c, 1, 56, 127
1, 1474, Note_on_c, 1, 65, 127
1, 1500, Note_off_c, 1, 56, 0
1, 1500, Note_off_c, 1, 65, 0
1, 1504, Note_on_c, 1, 55, 127
1, 1504, Note_on_c, 1, 63, 127
1, 1530, Note_off_c, 1, 55, 0
1, 1530, Note_off_c, 1, 63, 0
1, 1534, Note_on_c, 1, 53, 127
1, 1534, Note_on_c, 1, 62, 127
1, 1560, Note_off_c, 1, 53, 0
1, 1560, Note_off_c, 1, 62, 0
1, 1564, Note_on_c, 1, 55, 127
1, 1564, Note_on_c, 1, 63, 127
1, 1590, Note_off_c, 1, 55, 0
1, 1594, Note_on_c, 1, 58, 127
1, 1620, Note_off_c, 1, 58, 0
1, 1624, Note_on_c, 1, 51, 127
1, 1642, Note_off_c, 1, 63, 0
1, 1650, Note_off_c, 1, 51, 0
1, 1654, Note_on_c, 1, 67, 127
1, 1654, Note_on_c, 1, 53, 127
1, 1667, Note_off_c, 1, 67, 0
1, 1669, Note_on_c, 1, 70, 127
1, 1680, Note_off_c, 1, 53, 0
1, 1682, Note_off_c, 1, 70, 0
1, 1684, Note_on_c, 1, 55, 127
1, 1684, Note_on_c, 1, 73, 127
1, 1710, Note_off_c, 1, 55, 0
1, 1714, Note_on_c, 1, 56, 127
1, 1740, Note_off_c, 1, 56, 0
1, 1744, Note_on_c, 1, 58, 127
1, 1762, Note_off_c, 1, 73, 0
1, 1770, Note_off_c, 1, 58, 0
1, 1774, Note_on_c, 1, 60, 127
1, 1774, Note_on_c, 1, 68, 127
1, 1800, Note_off_c, 1, 60, 0
1, 1800, Note_off_c, 1, 68, 0
1, 1804, Note_on_c, 1, 61, 127
1, 1804, Note_on_c, 1, 67, 127
1, 1830, Note_off_c, 1, 61, 0
1, 1830, Note_off_c, 1, 67, 0
1, 1834, Note_on_c, 1, 63, 127
1, 1834, Note_on_c, 1, 72, 127
1, 1860, Note_off_c, 1, 63, 0
1, 1860, Note_off_c, 1, 72, 0
1, 1864, Note_on_c, 1, 61, 127
1, 1864, Note_on_c, 1, 70, 127
1, 1890, Note_off_c, 1, 61, 0
1, 1890, Note_off_c, 1, 70, 0
1, 1894, Note_on_c, 1, 60, 127
1, 1894, Note_on_c, 1, 68, 127
1, 1920, Note_off_c, 1, 60, 0
1, 1920, Note_off_c, 1, 68, 0
1, 1924, Note_on_c, 1, 61, 127
1, 1924, Note_on_c, 1, 70, 127
1, 1950, Note_off_c, 1, 61, 0
1, 1954, Note_on_c, 1, 65, 127
1, 1980, Note_off_c, 1, 65, 0
1, 1984, Note_on_c, 1, 58, 127
1, 2002, Note_off_c, 1, 70, 0
1, 2010, Note_off_c, 1, 58, 0
1, 2014, Note_on_c, 1, 73, 127
1, 2014, Note_on_c, 1, 60, 127
1, 2027, Note_off_c, 1, 73, 0
1, 2029, Note_on_c, 1, 77, 127
1, 2040, Note_off_c, 1, 60, 0
1, 2042, Note_off_c, 1, 77, 0
1, 2044, Note_on_c, 1, 61, 127
1, 2044, Note_on_c, 1, 82, 127
1, 2070, Note_off_c, 1, 61, 0
1, 2074, Note_on_c, 1, 63, 127
1, 2100, Note_off_c, 1, 63, 0
1, 2104, Note_on_c, 1, 65, 127
1, 2122, Note_off_c, 1, 82, 0
1, 2130, Note_off_c, 1, 65, 0
1, 2134, Note_on_c, 1, 67, 127
1, 2134, Note_on_c, 1, 73, 127
1, 2160, Note_off_c, 1, 67, 0
1, 2160, Note_off_c, 1, 73, 0
1, 2164, Note_on_c, 1, 72, 127
1, 2164, Note_on_c, 1, 68, 127
1, 2190, Note_off_c, 1, 72, 0
1, 2194, Note_on_c, 1, 77, 127
1, 2220, Note_off_c, 1, 77, 0
1, 2224, Note_on_c, 1, 75, 127
1, 2237, Note_off_c, 1, 68, 0
1, 2239, Note_on_c, 1, 67, 127
1, 2250, Note_off_c, 1, 75, 0
1, 2252, Note_off_c, 1, 67, 0
1, 2254, Note_on_c, 1, 68, 127
1, 2254, Note_on_c, 1, 73, 127
1, 2267, Note_off_c, 1, 68, 0
1, 2269, Note_on_c, 1, 70, 127
1, 2280, Note_off_c, 1, 73, 0
1, 2282, Note_off_c, 1, 70, 0
1, 2284, Note_on_c, 1, 75, 127
1, 2284, Note_on_c, 1, 72, 127
1, 2310, Note_off_c, 1, 75, 0
1, 2314, Note_on_c, 1, 80, 127
1, 2340, Note_off_c, 1, 80, 0
1, 2362, Note_off_c, 1, 72, 0
1, 2374, Note_on_c, 1, 70, 127
1, 2374, Note_on_c, 1, 73, 127
1, 2400, Note_off_c, 1, 70, 0
1, 2400, Note_off_c, 1, 73, 0
1, 2404, Note_on_c, 1, 72, 127
1, 2404, Note_on_c, 1, 68, 127
1, 2430, Note_off_c, 1, 72, 0
1, 2434, Note_on_c, 1, 75, 127
1, 2460, Note_off_c, 1, 75, 0
1, 2482, Note_off_c, 1, 68, 0
1, 2494, Note_on_c, 1, 67, 127
1, 2494, Note_on_c, 1, 70, 127
1, 2520, Note_off_c, 1, 67, 0
1, 2520, Note_off_c, 1, 70, 0
1, 2524, Note_on_c, 1, 68, 127
1, 2524, Note_on_c, 1, 65, 127
1, 2550, Note_off_c, 1, 68, 0
1, 2554, Note_on_c, 1, 73, 127
1, 2580, Note_off_c, 1, 73, 0
1, 2584, Note_on_c, 1, 72, 127
1, 2597, Note_off_c, 1, 65, 0
1, 2599, Note_on_c, 1, 64, 127
1, 2610, Note_off_c, 1, 72, 0
1, 2612, Note_off_c, 1, 64, 0
1, 2614, Note_on_c, 1, 65, 127
1, 2614, Note_on_c, 1, 70, 127
1, 2627, Note_off_c, 1, 65, 0
1, 2629, Note_on_c, 1, 67, 127
1, 2640, Note_off_c, 1, 70, 0
1, 2642, Note_off_c, 1, 67, 0
1, 2644, Note_on_c, 1, 72, 127
1, 2644, Note_on_c, 1, 68, 127
1, 2670, Note_off_c, 1, 72, 0
1, 2674, Note_on_c, 1, 77, 127
1, 2700, Note_off_c, 1, 77, 0
1, 2722, Note_off_c, 1, 68, 0
1, 2734, Note_on_c, 1, 67, 127
1, 2734, Note_on_c, 1, 70, 127
1, 2760, Note_off_c, 1, 67, 0
1, 2760, Note_off_c, 1, 70, 0
1, 2764, Note_on_c, 1, 68, 127
1, 2764, Note_on_c, 1, 65, 127
1, 2790, Note_off_c, 1, 68, 0
1, 2794, Note_on_c, 1, 72, 127
1, 2820, Note_off_c, 1, 72, 0
1, 2842, Note_off_c, 1, 65, 0
1, 2854, Note_on_c, 1, 63, 127
1, 2854, Note_on_c, 1, 67, 127
1, 2880, Note_off_c, 1, 63, 0
1, 2880, Note_off_c, 1, 67, 0
1, 2884, Note_on_c, 1, 65, 127
1, 2884, Note_on_c, 1, 62, 127
1, 2910, Note_off_c, 1, 65, 0
1, 2914, Note_on_c, 1, 70, 127
1, 2940, Note_off_c, 1, 70, 0
1, 2944, Note_on_c, 1, 68, 127
1, 2957, Note_off_c, 1, 62, 0
1, 2959, Note_on_c, 1, 60, 127
1, 2970, Note_off_c, 1, 68, 0
1, 2972, Note_off_c, 1, 60, 0
1, 2974, Note_on_c, 1, 62, 127
1, 2974, Note_on_c, 1, 67, 127
1, 2987, Note_off_c, 1, 62, 0
1, 2989, Note_on_c, 1, 63, 127
1, 3000, Note_off_c, 1, 67, 0
1, 3002, Note_off_c, 1, 63, 0
1, 3004, Note_on_c, 1, 68, 127
1, 3004, Note_on_c, 1, 65, 127
1, 3030, Note_off_c, 1, 68, 0
1, 3034, Note_on_c, 1, 72, 127
1, 3060, Note_off_c, 1, 72, 0
1, 3082, Note_off_c, 1, 65, 0
1, 3094, Note_on_c, 1, 63, 127
1, 3094, Note_on_c, 1, 67, 127
1, 3120, Note_off_c, 1, 63, 0
1, 3120, Note_off_c, 1, 67, 0
1, 3124, Note_on_c, 1, 65, 127
1, 3124, Note_on_c, 1, 62, 127
1, 3150, Note_off_c, 1, 65, 0
1, 3154, Note_on_c, 1, 68, 127
1, 3180, Note_off_c, 1, 68, 0
1, 3202, Note_off_c, 1, 62, 0
1, 3214, Note_on_c, 1, 60, 127
1, 3214, Note_on_c, 1, 63, 127
1, 3240, Note_off_c, 1, 60, 0
1, 3240, Note_off_c, 1, 63, 0
1, 3244, Note_on_c, 1, 62, 127
1, 3244, Note_on_c, 1, 58, 127
1, 3274, Note_on_c, 1, 65, 127
1, 3304, Note_on_c, 1, 68, 127
1, 3317, Note_off_c, 1, 58, 0
1, 3319, Note_on_c, 1, 55, 127
1, 3332, Note_off_c, 1, 55, 0
1, 3334, Note_on_c, 1, 53, 127
1, 3347, Note_off_c, 1, 53, 0
1, 3349, Note_on_c, 1, 51, 127
1, 3362, Note_off_c, 1, 51, 0
1, 3364, Note_on_c, 1, 50, 127
1, 3390, Note_off_c, 1, 68, 0
1, 3394, Note_on_c, 1, 67, 127
1, 3416, Note_off_c, 1, 62, 0
1, 3416, Note_off_c, 1, 65, 0
1, 3420, Note_off_c, 1, 67, 0
1, 3442, Note_off_c, 1, 50, 0
1, 3484, Note_on_c, 1, 46, 127
1, 3514, Note_on_c, 1, 77, 127
1, 3540, Note_off_c, 1, 77, 0
1, 3544, Note_on_c, 1, 70, 127
1, 3562, Note_off_c, 1, 46, 0
1, 3570, Note_off_c, 1, 70, 0
1, 3574, Note_on_c, 1, 48, 127
1, 3574, Note_on_c, 1, 68, 127
1, 3587, Note_off_c, 1, 48, 0
1, 3589, Note_on_c, 1, 50, 127
1, 3600, Note_off_c, 1, 68, 0
1, 3602, Note_off_c, 1, 50, 0
1, 3604, Note_on_c, 1, 67, 127
1, 3604, Note_on_c, 1, 51, 127
1, 3617, Note_off_c, 1, 67, 0
1, 3619, Note_on_c, 1, 68, 127
1, 3632, Note_off_c, 1, 68, 0
1, 3634, Note_on_c, 1, 70, 127
1, 3660, Note_off_c, 1, 70, 0
1, 3664, Note_on_c, 1, 63, 127
1, 3677, Note_off_c, 1, 51, 0
1, 3679, Note_on_c, 1, 50, 127
1, 3692, Note_off_c, 1, 50, 0
1, 3694, Note_on_c, 1, 48, 127
1, 3707, Note_off_c, 1, 48, 0
1, 3709, Note_on_c, 1, 46, 127
1, 3724, Note_off_c, 1, 46, 0
1, 3724, Note_on_c, 1, 44, 127
1, 3750, Note_off_c, 1, 63, 0
1, 3754, Note_on_c, 1, 60, 127
1, 3780, Note_off_c, 1, 60, 0
1, 3784, Note_on_c, 1, 65, 127
1, 3802, Note_off_c, 1, 44, 0
1, 3810, Note_off_c, 1, 65, 0
1, 3814, Note_on_c, 1, 41, 127
1, 3814, Note_on_c, 1, 68, 127
1, 3840, Note_off_c, 1, 41, 0
1, 3840, Note_off_c, 1, 68, 0
1, 3844, Note_on_c, 1, 67, 127
1, 3844, Note_on_c, 1, 46, 127
1, 3870, Note_off_c, 1, 67, 0
1, 3874, Note_on_c, 1, 65, 127
1, 3900, Note_off_c, 1, 65, 0
1, 3904, Note_on_c, 1, 63, 127
1, 3922, Note_off_c, 1, 46, 0
1, 3930, Note_off_c, 1, 63, 0
1, 3934, Note_on_c, 1, 47, 127
1, 3934, Note_on_c, 1, 62, 127
1, 3960, Note_off_c, 1, 47, 0
1, 3960, Note_off_c, 1, 62, 0
1, 3964, Note_on_c, 1, 63, 127
1, 3964, Note_on_c, 1, 48, 127
1, 3977, Note_off_c, 1, 63, 0
1, 3979, Note_on_c, 1, 62, 127
1, 3992, Note_off_c, 1, 62, 0
1, 3994, Note_on_c, 1, 60, 127
1, 4020, Note_off_c, 1, 60, 0
1, 4024, Note_on_c, 1, 68, 127
1, 4037, Note_off_c, 1, 48, 0
1, 4039, Note_on_c, 1, 51, 127
1, 4052, Note_off_c, 1, 51, 0
1, 4054, Note_on_c, 1, 53, 127
1, 4067, Note_off_c, 1, 53, 0
1, 4069, Note_on_c, 1, 55, 127
1, 4082, Note_off_c, 1, 55, 0
1, 4084, Note_on_c, 1, 56, 127
1, 4110, Note_off_c, 1, 68, 0
1, 4162, Note_off_c, 1, 56, 0
1, 4174, Note_on_c, 1, 53, 127
1, 4174, Note_on_c, 1, 72, 127
1, 4200, Note_off_c, 1, 53, 0
1, 4200, Note_off_c, 1, 72, 0
1, 4204, Note_on_c, 1, 70, 127
1, 4204, Note_on_c, 1, 50, 127
1, 4230, Note_off_c, 1, 70, 0
1, 4234, Note_on_c, 1, 68, 127
1, 4260, Note_off_c, 1, 68, 0
1, 4264, Note_on_c, 1, 67, 127
1, 4282, Note_off_c, 1, 50, 0
1, 4290, Note_off_c, 1, 67, 0
1, 4294, Note_on_c, 1, 58, 127
1, 4294, Note_on_c, 1, 65, 127
1, 4320, Note_off_c, 1, 58, 0
1, 4320, Note_off_c, 1, 65, 0
1, 4324, Note_on_c, 1, 67, 127
1, 4324, Note_on_c, 1, 51, 127
1, 4337, Note_off_c, 1, 67, 0
1, 4339, Note_on_c, 1, 65, 127
1, 4352, Note_off_c, 1, 65, 0
1, 4354, Note_on_c, 1, 63, 127
1, 4380, Note_off_c, 1, 63, 0
1, 4384, Note_on_c, 1, 72, 127
1, 4397, Note_off_c, 1, 51, 0
1, 4399, Note_on_c, 1, 55, 127
1, 4412, Note_off_c, 1, 55, 0
1, 4414, Note_on_c, 1, 56, 127
1, 4427, Note_off_c, 1, 56, 0
1, 4429, Note_on_c, 1, 58, 127
1, 4442, Note_off_c, 1, 58, 0
1, 4444, Note_on_c, 1, 60, 127
1, 4470, Note_off_c, 1, 72, 0
1, 4522, Note_off_c, 1, 60, 0
1, 4534, Note_on_c, 1, 56, 127
1, 4534, Note_on_c, 1, 75, 127
1, 4560, Note_off_c, 1, 56, 0
1, 4560, Note_off_c, 1, 75, 0
1, 4564, Note_on_c, 1, 74, 127
1, 4564, Note_on_c, 1, 53, 127
1, 4590, Note_off_c, 1, 74, 0
1, 4594, Note_on_c, 1, 72, 127
1, 4620, Note_off_c, 1, 72, 0
1, 4624, Note_on_c, 1, 70, 127
1, 4642, Note_off_c, 1, 53, 0
1, 4650, Note_off_c, 1, 70, 0
1, 4654, Note_on_c, 1, 62, 127
1, 4654, Note_on_c, 1, 68, 127
1, 4680, Note_off_c, 1, 62, 0
1, 4680, Note_off_c, 1, 68, 0
1, 4684, Note_on_c, 1, 70, 127
1, 4684, Note_on_c, 1, 55, 127
1, 4697, Note_off_c, 1, 70, 0
1, 4699, Note_on_c, 1, 68, 127
1, 4712, Note_off_c, 1, 68, 0
1, 4714, Note_on_c, 1, 67, 127
1, 4740, Note_off_c, 1, 67, 0
1, 4744, Note_on_c, 1, 75, 127
1, 4757, Note_off_c, 1, 55, 0
1, 4759, Note_on_c, 1, 58, 127
1, 4772, Note_off_c, 1, 58, 0
1, 4774, Note_on_c, 1, 60, 127
1, 4787, Note_off_c, 1, 60, 0
1, 4789, Note_on_c, 1, 62, 127
1, 4802, Note_off_c, 1, 62, 0
1, 4804, Note_on_c, 1, 63, 127
1, 4830, Note_off_c, 1, 75, 0
1, 4882, Note_off_c, 1, 63, 0
1, 4894, Note_on_c, 1, 60, 127
1, 4894, Note_on_c, 1, 79, 127
1, 4920, Note_off_c, 1, 60, 0
1, 4920, Note_off_c, 1, 79, 0
1, 4924, Note_on_c, 1, 77, 127
1, 4924, Note_on_c, 1, 56, 127
1, 4950, Note_off_c, 1, 77, 0
1, 4954, Note_on_c, 1, 75, 127
1, 4980, Note_off_c, 1, 75, 0
1, 4984, Note_on_c, 1, 74, 127
1, 5002, Note_off_c, 1, 56, 0
1, 5010, Note_off_c, 1, 74, 0
1, 5014, Note_on_c, 1, 65, 127
1, 5014, Note_on_c, 1, 72, 127
1, 5040, Note_off_c, 1, 65, 0
1, 5040, Note_off_c, 1, 72, 0
1, 5044, Note_on_c, 1, 74, 127
1, 5044, Note_on_c, 1, 65, 127
1, 5044, Note_on_c, 1, 56, 127
1, 5044, Note_on_c, 1, 58, 127
1, 5057, Note_off_c, 1, 74, 0
1, 5059, Note_on_c, 1, 75, 127
1, 5072, Note_off_c, 1, 75, 0
1, 5074, Note_on_c, 1, 77, 127
1, 5100, Note_off_c, 1, 77, 0
1, 5104, Note_on_c, 1, 70, 127
1, 5130, Note_off_c, 1, 70, 0
1, 5134, Note_on_c, 1, 72, 127
1, 5149, Note_off_c, 1, 65, 0
1, 5149, Note_off_c, 1, 56, 0
1, 5149, Note_off_c, 1, 58, 0
1, 5160, Note_off_c, 1, 72, 0
1, 5164, Note_on_c, 1, 74, 127
1, 5190, Note_off_c, 1, 74, 0
1, 5194, Note_on_c, 1, 75, 127
1, 5220, Note_off_c, 1, 75, 0
1, 5224, Note_on_c, 1, 77, 127
1, 5239, Note_on_c, 1, 63, 127
1, 5250, Note_off_c, 1, 77, 0
1, 5252, Note_off_c, 1, 63, 0
1, 5254, Note_on_c, 1, 62, 127
1, 5254, Note_on_c, 1, 79, 127
1, 5267, Note_off_c, 1, 62, 0
1, 5269, Note_on_c, 1, 60, 127
1, 5280, Note_off_c, 1, 79, 0
1, 5282, Note_off_c, 1, 60, 0
1, 5284, Note_on_c, 1, 80, 127
1, 5284, Note_on_c, 1, 58, 127
1, 5310, Note_off_c, 1, 80, 0
1, 5314, Note_on_c, 1, 77, 127
1, 5340, Note_off_c, 1, 77, 0
1, 5344, Note_on_c, 1, 75, 127
1, 5357, Note_off_c, 1, 58, 0
1, 5359, Note_on_c, 1, 60, 127
1, 5370, Note_off_c, 1, 75, 0
1, 5372, Note_off_c, 1, 60, 0
1, 5374, Note_on_c, 1, 58, 127
1, 5374, Note_on_c, 1, 74, 127
1, 5387, Note_off_c, 1, 58, 0
1, 5389, Note_on_c, 1, 56, 127
1, 5400, Note_off_c, 1, 74, 0
1, 5402, Note_off_c, 1, 56, 0
1, 5404, Note_on_c, 1, 82, 127
1, 5404, Note_on_c, 1, 55, 127
1, 5430, Note_off_c, 1, 82, 0
1, 5434, Note_on_c, 1, 79, 127
1, 5447, Note_off_c, 1, 79, 0
1, 5449, Note_on_c, 1, 77, 127
1, 5462, Note_off_c, 1, 77, 0
1, 5464, Note_on_c, 1, 75, 127
1, 5477, Note_off_c, 1, 75, 0
1, 5482, Note_off_c, 1, 55, 0
1, 5494, Note_on_c, 1, 51, 127
1, 5494, Note_on_c, 1, 79, 127
1, 5520, Note_off_c, 1, 51, 0
1, 5520, Note_off_c, 1, 79, 0
1, 5524, Note_on_c, 1, 68, 127
1, 5524, Note_on_c, 1, 60, 127
1, 5550, Note_off_c, 1, 68, 0
1, 5554, Note_on_c, 1, 77, 127
1, 5580, Note_off_c, 1, 77, 0
1, 5584, Note_on_c, 1, 74, 127
1, 5602, Note_off_c, 1, 60, 0
1, 5610, Note_off_c, 1, 74, 0
1, 5614, Note_on_c, 1, 56, 127
1, 5614, Note_on_c, 1, 75, 127
1, 5640, Note_off_c, 1, 56, 0
1, 5640, Note_off_c, 1, 75, 0
1, 5644, Note_on_c, 1, 67, 127
1, 5644, Note_on_c, 1, 58, 127
1, 5670, Note_off_c, 1, 67, 0
1, 5674, Note_on_c, 1, 75, 127
1, 5700, Note_off_c, 1, 75, 0
1, 5704, Note_on_c, 1, 65, 127
1, 5722, Note_off_c, 1, 58, 0
1, 5730, Note_off_c, 1, 65, 0
1, 5734, Note_on_c, 1, 46, 127
1, 5734, Note_on_c, 1, 74, 127
1, 5760, Note_off_c, 1, 46, 0
1, 5760, Note_off_c, 1, 74, 0
1, 5764, Note_on_c, 1, 67, 127
1, 5764, Note_on_c, 1, 75, 127
1, 5764, Note_on_c, 1, 51, 127
1, 5794, Note_on_c, 1, 70, 127
1, 5816, Note_off_c, 1, 67, 0
1, 5816, Note_off_c, 1, 75, 0
1, 5842, Note_off_c, 1, 51, 0
1, 5854, Note_on_c, 1, 53, 127
1, 5867, Note_off_c, 1, 53, 0
1, 5869, Note_on_c, 1, 55, 127
1, 5882, Note_off_c, 1, 55, 0
1, 5884, Note_on_c, 1, 46, 127
1, 5914, Note_on_c, 1, 74, 127
1, 5936, Note_off_c, 1, 70, 0
1, 5940, Note_off_c, 1, 74, 0
1, 5962, Note_off_c, 1, 46, 0
1, 5974, Note_on_c, 1, 50, 127
1, 5987, Note_off_c, 1, 50, 0
1, 6004, Note_on_c, 1, 43, 127
1, 6082, Note_off_c, 1, 43, 0
1, 6094, Note_on_c, 1, 44, 127
1, 6107, Note_off_c, 1, 44, 0
1, 6124, Note_on_c, 1, 39, 127
1, 6154, Note_on_c, 1, 75, 127
1, 6176, Note_off_c, 1, 39, 0
1, 6180, Note_off_c, 1, 75, 0
1, 6184, Note_on_c, 1, 73, 127
1, 6210, Note_off_c, 1, 73, 0
1, 6214, Note_on_c, 1, 72, 127
1, 6240, Note_off_c, 1, 72, 0
1, 6244, Note_on_c, 1, 73, 127
1, 6270, Note_off_c, 1, 73, 0
1, 6274, Note_on_c, 1, 79, 127
1, 6300, Note_off_c, 1, 79, 0
1, 6304, Note_on_c, 1, 82, 127
1, 6330, Note_off_c, 1, 82, 0
1, 6334, Note_on_c, 1, 80, 127
1, 6360, Note_off_c, 1, 80, 0
1, 6364, Note_on_c, 1, 79, 127
1, 6390, Note_off_c, 1, 79, 0
1, 6394, Note_on_c, 1, 77, 127
1, 6420, Note_off_c, 1, 77, 0
1, 6424, Note_on_c, 1, 75, 127
1, 6450, Note_off_c, 1, 75, 0
1, 6454, Note_on_c, 1, 73, 127
1, 6480, Note_off_c, 1, 73, 0
1, 6484, Note_on_c, 1, 68, 127
1, 6484, Note_on_c, 1, 72, 127
1, 6484, Note_on_c, 1, 51, 127
1, 6514, Note_on_c, 1, 63, 127
1, 6536, Note_off_c, 1, 68, 0
1, 6536, Note_off_c, 1, 72, 0
1, 6562, Note_off_c, 1, 51, 0
1, 6574, Note_on_c, 1, 55, 127
1, 6587, Note_off_c, 1, 55, 0
1, 6589, Note_on_c, 1, 56, 127
1, 6602, Note_off_c, 1, 56, 0
1, 6604, Note_on_c, 1, 48, 127
1, 6634, Note_on_c, 1, 67, 127
1, 6656, Note_off_c, 1, 63, 0
1, 6660, Note_off_c, 1, 67, 0
1, 6682, Note_off_c, 1, 48, 0
1, 6694, Note_on_c, 1, 49, 127
1, 6707, Note_off_c, 1, 49, 0
1, 6724, Note_on_c, 1, 44, 127
1, 6802, Note_off_c, 1, 44, 0
1, 6814, Note_on_c, 1, 46, 127
1, 6827, Note_off_c, 1, 46, 0
1, 6844, Note_on_c, 1, 39, 127
1, 6874, Note_on_c, 1, 70, 127
1, 6896, Note_off_c, 1, 39, 0
1, 6900, Note_off_c, 1, 70, 0
1, 6904, Note_on_c, 1, 68, 127
1, 6930, Note_off_c, 1, 68, 0
1, 6934, Note_on_c, 1, 67, 127
1, 6960, Note_off_c, 1, 67, 0
1, 6964, Note_on_c, 1, 68, 127
1, 6990, Note_off_c, 1, 68, 0
1, 6994, Note_on_c, 1, 63, 127
1, 7020, Note_off_c, 1, 63, 0
1, 7024, Note_on_c, 1, 72, 127
1, 7050, Note_off_c, 1, 72, 0
1, 7054, Note_on_c, 1, 70, 127
1, 7080, Note_off_c, 1, 70, 0
1, 7084, Note_on_c, 1, 68, 127
1, 7110, Note_off_c, 1, 68, 0
1, 7114, Note_on_c, 1, 67, 127
1, 7140, Note_off_c, 1, 67, 0
1, 7144, Note_on_c, 1, 65, 127
1, 7170, Note_off_c, 1, 65, 0
1, 7174, Note_on_c, 1, 63, 127
1, 7200, Note_off_c, 1, 63, 0
1, 7204, Note_on_c, 1, 62, 127
1, 7230, Note_off_c, 1, 62, 0
1, 7234, Note_on_c, 1, 55, 127
1, 7234, Note_on_c, 1, 63, 127
1, 7260, Note_off_c, 1, 55, 0
1, 7260, Note_off_c, 1, 63, 0
1, 7264, Note_on_c, 1, 53, 127
1, 7264, Note_on_c, 1, 62, 127
1, 7290, Note_off_c, 1, 53, 0
1, 7290, Note_off_c, 1, 62, 0
1, 7294, Note_on_c, 1, 51, 127
1, 7294, Note_on_c, 1, 60, 127
1, 7320, Note_off_c, 1, 51, 0
1, 7320, Note_off_c, 1, 60, 0
1, 7324, Note_on_c, 1, 62, 127
1, 7324, Note_on_c, 1, 53, 127
1, 7350, Note_off_c, 1, 62, 0
1, 7354, Note_on_c, 1, 65, 127
1, 7380, Note_off_c, 1, 65, 0
1, 7384, Note_on_c, 1, 58, 127
1, 7402, Note_off_c, 1, 53, 0
1, 7410, Note_off_c, 1, 58, 0
1, 7414, Note_on_c, 1, 56, 127
1, 7414, Note_on_c, 1, 60, 127
1, 7427, Note_off_c, 1, 56, 0
1, 7429, Note_on_c, 1, 55, 127
1, 7440, Note_off_c, 1, 60, 0
1, 7442, Note_off_c, 1, 55, 0
1, 7444, Note_on_c, 1, 62, 127
1, 7444, Note_on_c, 1, 56, 127
1, 7470, Note_off_c, 1, 62, 0
1, 7474, Note_on_c, 1, 63, 127
1, 7500, Note_off_c, 1, 63, 0
1, 7504, Note_on_c, 1, 65, 127
1, 7522, Note_off_c, 1, 56, 0
1, 7530, Note_off_c, 1, 65, 0
1, 7534, Note_on_c, 1, 51, 127
1, 7534, Note_on_c, 1, 67, 127
1, 7560, Note_off_c, 1, 51, 0
1, 7560, Note_off_c, 1, 67, 0
1, 7564, Note_on_c, 1, 68, 127
1, 7564, Note_on_c, 1, 50, 127
1, 7590, Note_off_c, 1, 68, 0
1, 7594, Note_on_c, 1, 70, 127
1, 7620, Note_off_c, 1, 70, 0
1, 7637, Note_off_c, 1, 50, 0
1, 7639, Note_on_c, 1, 48, 127
1, 7652, Note_off_c, 1, 48, 0
1, 7654, Note_on_c, 1, 50, 127
1, 7654, Note_on_c, 1, 67, 127
1, 7667, Note_off_c, 1, 50, 0
1, 7669, Note_on_c, 1, 51, 127
1, 7680, Note_off_c, 1, 67, 0
1, 7682, Note_off_c, 1, 51, 0
1, 7684, Note_on_c, 1, 53, 127
1, 7684, Note_on_c, 1, 68, 127
1, 7710, Note_off_c, 1, 53, 0
1, 7710, Note_off_c, 1, 68, 0
1, 7714, Note_on_c, 1, 51, 127
1, 7714, Note_on_c, 1, 72, 127
1, 7740, Note_off_c, 1, 51, 0
1, 7740, Note_off_c, 1, 72, 0
1, 7744, Note_on_c, 1, 50, 127
1, 7744, Note_on_c, 1, 65, 127
1, 7770, Note_off_c, 1, 50, 0
1, 7770, Note_off_c, 1, 65, 0
1, 7774, Note_on_c, 1, 48, 127
1, 7774, Note_on_c, 1, 67, 127
1, 7800, Note_off_c, 1, 48, 0
1, 7800, Note_off_c, 1, 67, 0
1, 7804, Note_on_c, 1, 46, 127
1, 7804, Note_on_c, 1, 68, 127
1, 7830, Note_off_c, 1, 46, 0
1, 7830, Note_off_c, 1, 68, 0
1, 7834, Note_on_c, 1, 44, 127
1, 7834, Note_on_c, 1, 70, 127
1, 7860, Note_off_c, 1, 44, 0
1, 7860, Note_off_c, 1, 70, 0
1, 7864, Note_on_c, 1, 43, 127
1, 7864, Note_on_c, 1, 72, 127
1, 7890, Note_off_c, 1, 43, 0
1, 7890, Note_off_c, 1, 72, 0
1, 7894, Note_on_c, 1, 41, 127
1, 7894, Note_on_c, 1, 74, 127
1, 7920, Note_off_c, 1, 41, 0
1, 7920, Note_off_c, 1, 74, 0
1, 7924, Note_on_c, 1, 75, 127
1, 7924, Note_on_c, 1, 39, 127
1, 7950, Note_off_c, 1, 75, 0
1, 7954, Note_on_c, 1, 68, 127
1, 7980, Note_off_c, 1, 68, 0
1, 7984, Note_on_c, 1, 67, 127
1, 7997, Note_off_c, 1, 39, 0
1, 7999, Note_on_c, 1, 46, 127
1, 8010, Note_off_c, 1, 67, 0
1, 8012, Note_off_c, 1, 46, 0
1, 8014, Note_on_c, 1, 48, 127
1, 8014, Note_on_c, 1, 65, 127
1, 8027, Note_off_c, 1, 48, 0
1, 8029, Note_on_c, 1, 50, 127
1, 8040, Note_off_c, 1, 65, 0
1, 8042, Note_off_c, 1, 50, 0
1, 8044, Note_on_c, 1, 67, 127
1, 8044, Note_on_c, 1, 51, 127
1, 8070, Note_off_c, 1, 67, 0
1, 8074, Note_on_c, 1, 70, 127
1, 8100, Note_off_c, 1, 70, 0
1, 8117, Note_off_c, 1, 51, 0
1, 8119, Note_on_c, 1, 50, 127
1, 8132, Note_off_c, 1, 50, 0
1, 8134, Note_on_c, 1, 51, 127
1, 8134, Note_on_c, 1, 65, 127
1, 8147, Note_off_c, 1, 51, 0
1, 8149, Note_on_c, 1, 53, 127
1, 8160, Note_off_c, 1, 65, 0
1, 8162, Note_off_c, 1, 53, 0
1, 8164, Note_on_c, 1, 63, 127
1, 8164, Note_on_c, 1, 55, 127
1, 8190, Note_off_c, 1, 63, 0
1, 8194, Note_on_c, 1, 73, 127
1, 8220, Note_off_c, 1, 73, 0
1, 8224, Note_on_c, 1, 72, 127
1, 8237, Note_off_c, 1, 55, 0
1, 8239, Note_on_c, 1, 51, 127
1, 8250, Note_off_c, 1, 72, 0
1, 8252, Note_off_c, 1, 51, 0
1, 8254, Note_on_c, 1, 53, 127
1, 8254, Note_on_c, 1, 70, 127
1, 8267, Note_off_c, 1, 53, 0
1, 8269, Note_on_c, 1, 55, 127
1, 8280, Note_off_c, 1, 70, 0
1, 8282, Note_off_c, 1, 55, 0
1, 8284, Note_on_c, 1, 44, 127
1, 8284, Note_on_c, 1, 72, 127
1, 8310, Note_off_c, 1, 44, 0
1, 8314, Note_on_c, 1, 61, 127
1, 8340, Note_off_c, 1, 61, 0
1, 8344, Note_on_c, 1, 60, 127
1, 8362, Note_off_c, 1, 72, 0
1, 8370, Note_off_c, 1, 60, 0
1, 8374, Note_on_c, 1, 58, 127
1, 8374, Note_on_c, 1, 72, 127
1, 8374, Note_on_c, 1, 75, 127
1, 8400, Note_off_c, 1, 58, 0
1, 8400, Note_off_c, 1, 72, 0
1, 8400, Note_off_c, 1, 75, 0
1, 8404, Note_on_c, 1, 56, 127
1, 8404, Note_on_c, 1, 72, 127
1, 8404, Note_on_c, 1, 75, 127
1, 8430, Note_off_c, 1, 56, 0
1, 8434, Note_on_c, 1, 60, 127
1, 8460, Note_off_c, 1, 60, 0
1, 8482, Note_off_c, 1, 72, 0
1, 8482, Note_off_c, 1, 75, 0
1, 8494, Note_on_c, 1, 55, 127
1, 8494, Note_on_c, 1, 80, 127
1, 8494, Note_on_c, 1, 72, 127
1, 8494, Note_on_c, 1, 75, 127
1, 8520, Note_off_c, 1, 55, 0
1, 8520, Note_off_c, 1, 80, 0
1, 8520, Note_off_c, 1, 72, 0
1, 8520, Note_off_c, 1, 75, 0
1, 8524, Note_on_c, 1, 53, 127
1, 8524, Note_on_c, 1, 75, 127
1, 8524, Note_on_c, 1, 80, 127
1, 8524, Note_on_c, 1, 72, 127
1, 8550, Note_off_c, 1, 53, 0
1, 8554, Note_on_c, 1, 56, 127
1, 8580, Note_off_c, 1, 56, 0
1, 8614, Note_on_c, 1, 51, 127
1, 8640, Note_off_c, 1, 51, 0
1, 8644, Note_on_c, 1, 49, 127
1, 8670, Note_off_c, 1, 75, 0
1, 8670, Note_off_c, 1, 80, 0
1, 8670, Note_off_c, 1, 72, 0
1, 8674, Note_on_c, 1, 67, 127
1, 8700, Note_off_c, 1, 67, 0
1, 8704, Note_on_c, 1, 65, 127
1, 8717, Note_off_c, 1, 49, 0
1, 8719, Note_on_c, 1, 44, 127
1, 8730, Note_off_c, 1, 65, 0
1, 8732, Note_off_c, 1, 44, 0
1, 8734, Note_on_c, 1, 46, 127
1, 8734, Note_on_c, 1, 64, 127
1, 8747, Note_off_c, 1, 46, 0
1, 8749, Note_on_c, 1, 48, 127
1, 8760, Note_off_c, 1, 64, 0
1, 8762, Note_off_c, 1, 48, 0
1, 8764, Note_on_c, 1, 65, 127
1, 8764, Note_on_c, 1, 49, 127
1, 8790, Note_off_c, 1, 65, 0
1, 8794, Note_on_c, 1, 68, 127
1, 8820, Note_off_c, 1, 68, 0
1, 8837, Note_off_c, 1, 49, 0
1, 8839, Note_on_c, 1, 48, 127
1, 8852, Note_off_c, 1, 48, 0
1, 8854, Note_on_c, 1, 49, 127
1, 8854, Note_on_c, 1, 63, 127
1, 8867, Note_off_c, 1, 49, 0
1, 8869, Note_on_c, 1, 51, 127
1, 8880, Note_off_c, 1, 63, 0
1, 8882, Note_off_c, 1, 51, 0
1, 8884, Note_on_c, 1, 61, 127
1, 8884, Note_on_c, 1, 53, 127
1, 8910, Note_off_c, 1, 61, 0
1, 8914, Note_on_c, 1, 72, 127
1, 8940, Note_off_c, 1, 72, 0
1, 8944, Note_on_c, 1, 70, 127
1, 8957, Note_off_c, 1, 53, 0
1, 8959, Note_on_c, 1, 49, 127
1, 8970, Note_off_c, 1, 70, 0
1, 8972, Note_off_c, 1, 49, 0
1, 8974, Note_on_c, 1, 51, 127
1, 8974, Note_on_c, 1, 68, 127
1, 8987, Note_off_c, 1, 51, 0
1, 8989, Note_on_c, 1, 53, 127
1, 9000, Note_off_c, 1, 68, 0
1, 9002, Note_off_c, 1, 53, 0
1, 9004, Note_on_c, 1, 43, 127
1, 9004, Note_on_c, 1, 70, 127
1, 9030, Note_off_c, 1, 43, 0
1, 9034, Note_on_c, 1, 60, 127
1, 9060, Note_off_c, 1, 60, 0
1, 9064, Note_on_c, 1, 58, 127
1, 9082, Note_off_c, 1, 70, 0
1, 9090, Note_off_c, 1, 58, 0
1, 9094, Note_on_c, 1, 56, 127
1, 9094, Note_on_c, 1, 70, 127
1, 9094, Note_on_c, 1, 73, 127
1, 9120, Note_off_c, 1, 56, 0
1, 9120, Note_off_c, 1, 70, 0
1, 9120, Note_off_c, 1, 73, 0
1, 9124, Note_on_c, 1, 55, 127
1, 9124, Note_on_c, 1, 70, 127
1, 9124, Note_on_c, 1, 73, 127
1, 9150, Note_off_c, 1, 55, 0
1, 9154, Note_on_c, 1, 58, 127
1, 9180, Note_off_c, 1, 58, 0
1, 9202, Note_off_c, 1, 70, 0
1, 9202, Note_off_c, 1, 73, 0
1, 9214, Note_on_c, 1, 53, 127
1, 9214, Note_on_c, 1, 79, 127
1, 9214, Note_on_c, 1, 70, 127
1, 9214, Note_on_c, 1, 73, 127
1, 9240, Note_off_c, 1, 53, 0
1, 9240, Note_off_c, 1, 79, 0
1, 9240, Note_off_c, 1, 70, 0
1, 9240, Note_off_c, 1, 73, 0
1, 9244, Note_on_c, 1, 52, 127
1, 9244, Note_on_c, 1, 73, 127
1, 9244, Note_on_c, 1, 79, 127
1, 9244, Note_on_c, 1, 70, 127
1, 9270, Note_off_c, 1, 52, 0
1, 9274, Note_on_c, 1, 55, 127
1, 9300, Note_off_c, 1, 55, 0
1, 9334, Note_on_c, 1, 50, 127
1, 9360, Note_off_c, 1, 50, 0
1, 9364, Note_on_c, 1, 48, 127
1, 9390, Note_off_c, 1, 73, 0
1, 9390, Note_off_c, 1, 79, 0
1, 9390, Note_off_c, 1, 70, 0
1, 9394, Note_on_c, 1, 65, 127
1, 9420, Note_off_c, 1, 65, 0
1, 9424, Note_on_c, 1, 64, 127
1, 9437, Note_off_c, 1, 48, 0
1, 9439, Note_on_c, 1, 43, 127
1, 9450, Note_off_c, 1, 64, 0
1, 9452, Note_off_c, 1, 43, 0
1, 9454, Note_on_c, 1, 44, 127
1, 9454, Note_on_c, 1, 62, 127
1, 9467, Note_off_c, 1, 44, 0
1, 9469, Note_on_c, 1, 46, 127
1, 9480, Note_off_c, 1, 62, 0
1, 9482, Note_off_c, 1, 46, 0
1, 9484, Note_on_c, 1, 64, 127
1, 9484, Note_on_c, 1, 48, 127
1, 9510, Note_off_c, 1, 64, 0
1, 9514, Note_on_c, 1, 67, 127
1, 9540, Note_off_c, 1, 67, 0
1, 9557, Note_off_c, 1, 48, 0
1, 9559, Note_on_c, 1, 47, 127
1, 9572, Note_off_c, 1, 47, 0
1, 9574, Note_on_c, 1, 48, 127
1, 9574, Note_on_c, 1, 62, 127
1, 9587, Note_off_c, 1, 48, 0
1, 9589, Note_on_c, 1, 50, 127
1, 9600, Note_off_c, 1, 62, 0
1, 9602, Note_off_c, 1, 50, 0
1, 9604, Note_on_c, 1, 60, 127
1, 9604, Note_on_c, 1, 52, 127
1, 9630, Note_off_c, 1, 60, 0
1, 9634, Note_on_c, 1, 70, 127
1, 9660, Note_off_c, 1, 70, 0
1, 9664, Note_on_c, 1, 68, 127
1, 9677, Note_off_c, 1, 52, 0
1, 9679, Note_on_c, 1, 48, 127
1, 9690, Note_off_c, 1, 68, 0
1, 9692, Note_off_c, 1, 48, 0
1, 9694, Note_on_c, 1, 50, 127
1, 9694, Note_on_c, 1, 67, 127
1, 9707, Note_off_c, 1, 50, 0
1, 9709, Note_on_c, 1, 52, 127
1, 9720, Note_off_c, 1, 67, 0
1, 9722, Note_off_c, 1, 52, 0
1, 9724, Note_on_c, 1, 41, 127
1, 9724, Note_on_c, 1, 68, 127
1, 9750, Note_off_c, 1, 41, 0
1, 9754, Note_on_c, 1, 58, 127
1, 9780, Note_off_c, 1, 58, 0
1, 9784, Note_on_c, 1, 56, 127
1, 9802, Note_off_c, 1, 68, 0
1, 9810, Note_off_c, 1, 56, 0
1, 9814, Note_on_c, 1, 55, 127
1, 9814, Note_on_c, 1, 68, 127
1, 9814, Note_on_c, 1, 72, 127
1, 9840, Note_off_c, 1, 55, 0
1, 9840, Note_off_c, 1, 68, 0
1, 9840, Note_off_c, 1, 72, 0
1, 9844, Note_on_c, 1, 53, 127
1, 9844, Note_on_c, 1, 68, 127
1, 9844, Note_on_c, 1, 72, 127
1, 9870, Note_off_c, 1, 53, 0
1, 9874, Note_on_c, 1, 56, 127
1, 9900, Note_off_c, 1, 56, 0
1, 9922, Note_off_c, 1, 68, 0
1, 9922, Note_off_c, 1, 72, 0
1, 9934, Note_on_c, 1, 51, 127
1, 9934, Note_on_c, 1, 77, 127
1, 9934, Note_on_c, 1, 68, 127
1, 9934, Note_on_c, 1, 72, 127
1, 9960, Note_off_c, 1, 51, 0
1, 9960, Note_off_c, 1, 77, 0
1, 9960, Note_off_c, 1, 68, 0
1, 9960, Note_off_c, 1, 72, 0
1, 9964, Note_on_c, 1, 49, 127
1, 9964, Note_on_c, 1, 72, 127
1, 9964, Note_on_c, 1, 77, 127
1, 9964, Note_on_c, 1, 68, 127
1, 9990, Note_off_c, 1, 49, 0
1, 9994, Note_on_c, 1, 53, 127
1, 10020, Note_off_c, 1, 53, 0
1, 10054, Note_on_c, 1, 48, 127
1, 10080, Note_off_c, 1, 48, 0
1, 10084, Note_on_c, 1, 46, 127
1, 10110, Note_off_c, 1, 72, 0
1, 10110, Note_off_c, 1, 77, 0
1, 10110, Note_off_c, 1, 68, 0
1, 10114, Note_on_c, 1, 78, 127
1, 10140, Note_off_c, 1, 78, 0
1, 10157, Note_off_c, 1, 46, 0
1, 10159, Note_on_c, 1, 57, 127
1, 10172, Note_off_c, 1, 57, 0
1, 10174, Note_on_c, 1, 58, 127
1, 10174, Note_on_c, 1, 76, 127
1, 10187, Note_off_c, 1, 58, 0
1, 10189, Note_on_c, 1, 60, 127
1, 10200, Note_off_c, 1, 76, 0
1, 10202, Note_off_c, 1, 60, 0
1, 10204, Note_on_c, 1, 77, 127
1, 10204, Note_on_c, 1, 61, 127
1, 10230, Note_off_c, 1, 77, 0
1, 10234, Note_on_c, 1, 82, 127
1, 10260, Note_off_c, 1, 82, 0
1, 10277, Note_off_c, 1, 61, 0
1, 10279, Note_on_c, 1, 60, 127
1, 10292, Note_off_c, 1, 60, 0
1, 10294, Note_on_c, 1, 61, 127
1, 10294, Note_on_c, 1, 75, 127
1, 10307, Note_off_c, 1, 61, 0
1, 10309, Note_on_c, 1, 63, 127
1, 10320, Note_off_c, 1, 75, 0
1, 10322, Note_off_c, 1, 63, 0
1, 10324, Note_on_c, 1, 73, 127
1, 10324, Note_on_c, 1, 65, 127
1, 10350, Note_off_c, 1, 73, 0
1, 10354, Note_on_c, 1, 77, 127
1, 10376, Note_off_c, 1, 65, 0
1, 10380, Note_off_c, 1, 77, 0
1, 10384, Note_on_c, 1, 73, 127
1, 10410, Note_off_c, 1, 73, 0
1, 10414, Note_on_c, 1, 72, 127
1, 10440, Note_off_c, 1, 72, 0
1, 10444, Note_on_c, 1, 70, 127
1, 10470, Note_off_c, 1, 70, 0
1, 10474, Note_on_c, 1, 75, 127
1, 10500, Note_off_c, 1, 75, 0
1, 10504, Note_on_c, 1, 73, 127
1, 10519, Note_on_c, 1, 53, 127
1, 10530, Note_off_c, 1, 73, 0
1, 10532, Note_off_c, 1, 53, 0
1, 10534, Note_on_c, 1, 55, 127
1, 10534, Note_on_c, 1, 72, 127
1, 10547, Note_off_c, 1, 55, 0
1, 10549, Note_on_c, 1, 57, 127
1, 10560, Note_off_c, 1, 72, 0
1, 10562, Note_off_c, 1, 57, 0
1, 10564, Note_on_c, 1, 73, 127
1, 10564, Note_on_c, 1, 58, 127
1, 10590, Note_off_c, 1, 73, 0
1, 10594, Note_on_c, 1, 77, 127
1, 10620, Note_off_c, 1, 77, 0
1, 10637, Note_off_c, 1, 58, 0
1, 10639, Note_on_c, 1, 57, 127
1, 10652, Note_off_c, 1, 57, 0
1, 10654, Note_on_c, 1, 58, 127
1, 10654, Note_on_c, 1, 72, 127
1, 10667, Note_off_c, 1, 58, 0
1, 10669, Note_on_c, 1, 60, 127
1, 10680, Note_off_c, 1, 72, 0
1, 10682, Note_off_c, 1, 60, 0
1, 10684, Note_on_c, 1, 70, 127
1, 10684, Note_on_c, 1, 61, 127
1, 10710, Note_off_c, 1, 70, 0
1, 10714, Note_on_c, 1, 73, 127
1, 10736, Note_off_c, 1, 61, 0
1, 10740, Note_off_c, 1, 73, 0
1, 10744, Note_on_c, 1, 70, 127
1, 10770, Note_off_c, 1, 70, 0
1, 10774, Note_on_c, 1, 68, 127
1, 10800, Note_off_c, 1, 68, 0
1, 10804, Note_on_c, 1, 66, 127
1, 10830, Note_off_c, 1, 66, 0
1, 10834, Note_on_c, 1, 71, 127
1, 10860, Note_off_c, 1, 71, 0
1, 10864, Note_on_c, 1, 70, 127
1, 10879, Note_on_c, 1, 49, 127
1, 10890, Note_off_c, 1, 70, 0
1, 10892, Note_off_c, 1, 49, 0
1, 10894, Note_on_c, 1, 51, 127
1, 10894, Note_on_c, 1, 69, 127
1, 10907, Note_off_c, 1, 51, 0
1, 10909, Note_on_c, 1, 53, 127
1, 10920, Note_off_c, 1, 69, 0
1, 10922, Note_off_c, 1, 53, 0
1, 10924, Note_on_c, 1, 70, 127
1, 10924, Note_on_c, 1, 54, 127
1, 10950, Note_off_c, 1, 70, 0
1, 10954, Note_on_c, 1, 73, 127
1, 10980, Note_off_c, 1, 73, 0
1, 10997, Note_off_c, 1, 54, 0
1, 10999, Note_on_c, 1, 53, 127
1, 11012, Note_off_c, 1, 53, 0
1, 11014, Note_on_c, 1, 54, 127
1, 11014, Note_on_c, 1, 68, 127
1, 11027, Note_off_c, 1, 54, 0
1, 11029, Note_on_c, 1, 56, 127
1, 11040, Note_off_c, 1, 68, 0
1, 11042, Note_off_c, 1, 56, 0
1, 11044, Note_on_c, 1, 66, 127
1, 11044, Note_on_c, 1, 58, 127
1, 11070, Note_off_c, 1, 66, 0
1, 11074, Note_on_c, 1, 70, 127
1, 11096, Note_off_c, 1, 58, 0
1, 11100, Note_off_c, 1, 70, 0
1, 11104, Note_on_c, 1, 66, 127
1, 11130, Note_off_c, 1, 66, 0
1, 11134, Note_on_c, 1, 65, 127
1, 11160, Note_off_c, 1, 65, 0
1, 11164, Note_on_c, 1, 64, 127
1, 11194, Note_on_c, 1, 56, 127
1, 11220, Note_off_c, 1, 56, 0
1, 11224, Note_on_c, 1, 55, 127
1, 11237, Note_off_c, 1, 64, 0
1, 11239, Note_on_c, 1, 62, 127
1, 11250, Note_off_c, 1, 55, 0
1, 11252, Note_off_c, 1, 62, 0
1, 11254, Note_on_c, 1, 64, 127
1, 11254, Note_on_c, 1, 53, 127
1, 11267, Note_off_c, 1, 64, 0
1, 11269, Note_on_c, 1, 65, 127
1, 11280, Note_off_c, 1, 53, 0
1, 11282, Note_off_c, 1, 65, 0
1, 11284, Note_on_c, 1, 52, 127
1, 11284, Note_on_c, 1, 67, 127
1, 11310, Note_off_c, 1, 52, 0
1, 11314, Note_on_c, 1, 58, 127
1, 11340, Note_off_c, 1, 58, 0
1, 11357, Note_off_c, 1, 67, 0
1, 11359, Note_on_c, 1, 65, 127
1, 11372, Note_off_c, 1, 65, 0
1, 11374, Note_on_c, 1, 67, 127
1, 11374, Note_on_c, 1, 50, 127
1, 11387, Note_off_c, 1, 67, 0
1, 11389, Note_on_c, 1, 68, 127
1, 11400, Note_off_c, 1, 50, 0
1, 11402, Note_off_c, 1, 68, 0
1, 11404, Note_on_c, 1, 48, 127
1, 11404, Note_on_c, 1, 70, 127
1, 11430, Note_off_c, 1, 48, 0
1, 11434, Note_on_c, 1, 55, 127
1, 11456, Note_off_c, 1, 70, 0
1, 11460, Note_off_c, 1, 55, 0
1, 11464, Note_on_c, 1, 48, 127
1, 11490, Note_off_c, 1, 48, 0
1, 11494, Note_on_c, 1, 46, 127
1, 11520, Note_off_c, 1, 46, 0
1, 11524, Note_on_c, 1, 44, 127
1, 11539, Note_on_c, 1, 72, 127
1, 11552, Note_off_c, 1, 72, 0
1, 11554, Note_on_c, 1, 74, 127
1, 11567, Note_off_c, 1, 74, 0
1, 11569, Note_on_c, 1, 76, 127
1, 11582, Note_off_c, 1, 76, 0
1, 11584, Note_on_c, 1, 77, 127
1, 11597, Note_off_c, 1, 44, 0
1, 11599, Note_on_c, 1, 56, 127
1, 11612, Note_off_c, 1, 56, 0
1, 11614, Note_on_c, 1, 58, 127
1, 11627, Note_off_c, 1, 58, 0
1, 11629, Note_on_c, 1, 60, 127
1, 11642, Note_off_c, 1, 60, 0
1, 11644, Note_on_c, 1, 61, 127
1, 11657, Note_off_c, 1, 77, 0
1, 11674, Note_on_c, 1, 70, 127
1, 11687, Note_off_c, 1, 70, 0
1, 11689, Note_on_c, 1, 68, 127
1, 11702, Note_off_c, 1, 68, 0
1, 11722, Note_off_c, 1, 61, 0
1, 11734, Note_on_c, 1, 58, 127
1, 11734, Note_on_c, 1, 73, 127
1, 11760, Note_off_c, 1, 58, 0
1, 11760, Note_off_c, 1, 73, 0
1, 11764, Note_on_c, 1, 67, 127
1, 11764, Note_on_c, 1, 60, 127
1, 11790, Note_off_c, 1, 67, 0
1, 11794, Note_on_c, 1, 70, 127
1, 11824, Note_on_c, 1, 65, 127
1, 11842, Note_off_c, 1, 60, 0
1, 11850, Note_off_c, 1, 65, 0
1, 11854, Note_on_c, 1, 48, 127
1, 11854, Note_on_c, 1, 64, 127
1, 11880, Note_off_c, 1, 48, 0
1, 11880, Note_off_c, 1, 64, 0
1, 11884, Note_on_c, 1, 53, 127
1, 11936, Note_off_c, 1, 70, 0
1, 11944, Note_on_c, 1, 68, 127
1, 11962, Note_off_c, 1, 53, 0
1, 11974, Note_on_c, 1, 55, 127
1, 11987, Note_off_c, 1, 55, 0
1, 11989, Note_on_c, 1, 56, 127
1, 12002, Note_off_c, 1, 56, 0
1, 12056, Note_off_c, 1, 68, 0
1, 12094, Note_on_c, 1, 52, 127
1, 12107, Note_off_c, 1, 52, 0
1, 12124, Note_on_c, 1, 44, 127
1, 12202, Note_off_c, 1, 44, 0
1, 12214, Note_on_c, 1, 46, 127
1, 12227, Note_off_c, 1, 46, 0
1, 12244, Note_on_c, 1, 41, 127
1, 12274, Note_on_c, 1, 67, 127
1, 12296, Note_off_c, 1, 41, 0
1, 12300, Note_off_c, 1, 67, 0
1, 12304, Note_on_c, 1, 65, 127
1, 12330, Note_off_c, 1, 65, 0
1, 12334, Note_on_c, 1, 64, 127
1, 12360, Note_off_c, 1, 64, 0
1, 12364, Note_on_c, 1, 65, 127
1, 12390, Note_off_c, 1, 65, 0
1, 12394, Note_on_c, 1, 68, 127
1, 12420, Note_off_c, 1, 68, 0
1, 12424, Note_on_c, 1, 72, 127
1, 12450, Note_off_c, 1, 72, 0
1, 12454, Note_on_c, 1, 70, 127
1, 12480, Note_off_c, 1, 70, 0
1, 12484, Note_on_c, 1, 68, 127
1, 12510, Note_off_c, 1, 68, 0
1, 12514, Note_on_c, 1, 67, 127
1, 12540, Note_off_c, 1, 67, 0
1, 12544, Note_on_c, 1, 65, 127
1, 12570, Note_off_c, 1, 65, 0
1, 12574, Note_on_c, 1, 63, 127
1, 12600, Note_off_c, 1, 63, 0
1, 12604, Note_on_c, 1, 61, 127
1, 12604, Note_on_c, 1, 70, 127
1, 12604, Note_on_c, 1, 53, 127
1, 12634, Note_on_c, 1, 65, 127
1, 12656, Note_off_c, 1, 61, 0
1, 12656, Note_off_c, 1, 70, 0
1, 12682, Note_off_c, 1, 53, 0
1, 12694, Note_on_c, 1, 57, 127
1, 12707, Note_off_c, 1, 57, 0
1, 12709, Note_on_c, 1, 58, 127
1, 12722, Note_off_c, 1, 58, 0
1, 12724, Note_on_c, 1, 49, 127
1, 12754, Note_on_c, 1, 69, 127
1, 12776, Note_off_c, 1, 65, 0
1, 12780, Note_off_c, 1, 69, 0
1, 12802, Note_off_c, 1, 49, 0
1, 12814, Note_on_c, 1, 51, 127
1, 12827, Note_off_c, 1, 51, 0
1, 12844, Note_on_c, 1, 46, 127
1, 12922, Note_off_c, 1, 46, 0
1, 12934, Note_on_c, 1, 48, 127
1, 12947, Note_off_c, 1, 48, 0
1, 12964, Note_on_c, 1, 41, 127
1, 12994, Note_on_c, 1, 53, 127
1, 13016, Note_off_c, 1, 41, 0
1, 13020, Note_off_c, 1, 53, 0
1, 13024, Note_on_c, 1, 55, 127
1, 13050, Note_off_c, 1, 55, 0
1, 13054, Note_on_c, 1, 57, 127
1, 13080, Note_off_c, 1, 57, 0
1, 13084, Note_on_c, 1, 58, 127
1, 13110, Note_off_c, 1, 58, 0
1, 13114, Note_on_c, 1, 60, 127
1, 13140, Note_off_c, 1, 60, 0
1, 13144, Note_on_c, 1, 61, 127
1, 13170, Note_off_c, 1, 61, 0
1, 13174, Note_on_c, 1, 60, 127
1, 13200, Note_off_c, 1, 60, 0
1, 13204, Note_on_c, 1, 63, 127
1, 13230, Note_off_c, 1, 63, 0
1, 13234, Note_on_c, 1, 61, 127
1, 13260, Note_off_c, 1, 61, 0
1, 13264, Note_on_c, 1, 60, 127
1, 13290, Note_off_c, 1, 60, 0
1, 13294, Note_on_c, 1, 58, 127
1, 13320, Note_off_c, 1, 58, 0
1, 13324, Note_on_c, 1, 64, 127
1, 13350, Note_off_c, 1, 64, 0
1, 13354, Note_on_c, 1, 53, 127
1, 13354, Note_on_c, 1, 61, 127
1, 13380, Note_off_c, 1, 53, 0
1, 13380, Note_off_c, 1, 61, 0
1, 13384, Note_on_c, 1, 52, 127
1, 13384, Note_on_c, 1, 60, 127
1, 13410, Note_off_c, 1, 52, 0
1, 13410, Note_off_c, 1, 60, 0
1, 13414, Note_on_c, 1, 50, 127
1, 13414, Note_on_c, 1, 58, 127
1, 13440, Note_off_c, 1, 50, 0
1, 13440, Note_off_c, 1, 58, 0
1, 13444, Note_on_c, 1, 52, 127
1, 13444, Note_on_c, 1, 67, 127
1, 13470, Note_off_c, 1, 52, 0
1, 13470, Note_off_c, 1, 67, 0
1, 13474, Note_on_c, 1, 55, 127
1, 13474, Note_on_c, 1, 61, 127
1, 13500, Note_off_c, 1, 55, 0
1, 13500, Note_off_c, 1, 61, 0
1, 13504, Note_on_c, 1, 48, 127
1, 13504, Note_on_c, 1, 60, 127
1, 13530, Note_off_c, 1, 48, 0
1, 13530, Note_off_c, 1, 60, 0
1, 13534, Note_on_c, 1, 50, 127
1, 13534, Note_on_c, 1, 58, 127
1, 13560, Note_off_c, 1, 50, 0
1, 13560, Note_off_c, 1, 58, 0
1, 13564, Note_on_c, 1, 52, 127
1, 13564, Note_on_c, 1, 70, 127
1, 13590, Note_off_c, 1, 52, 0
1, 13590, Note_off_c, 1, 70, 0
1, 13594, Note_on_c, 1, 53, 127
1, 13594, Note_on_c, 1, 68, 127
1, 13620, Note_off_c, 1, 53, 0
1, 13620, Note_off_c, 1, 68, 0
1, 13624, Note_on_c, 1, 55, 127
1, 13624, Note_on_c, 1, 67, 127
1, 13650, Note_off_c, 1, 55, 0
1, 13650, Note_off_c, 1, 67, 0
1, 13654, Note_on_c, 1, 56, 127
1, 13654, Note_on_c, 1, 65, 127
1, 13680, Note_off_c, 1, 56, 0
1, 13680, Note_off_c, 1, 65, 0
1, 13684, Note_on_c, 1, 58, 127
1, 13684, Note_on_c, 1, 73, 127
1, 13710, Note_off_c, 1, 58, 0
1, 13710, Note_off_c, 1, 73, 0
1, 13714, Note_on_c, 1, 60, 127
1, 13714, Note_on_c, 1, 68, 127
1, 13740, Note_off_c, 1, 60, 0
1, 13740, Note_off_c, 1, 68, 0
1, 13744, Note_on_c, 1, 58, 127
1, 13744, Note_on_c, 1, 67, 127
1, 13770, Note_off_c, 1, 58, 0
1, 13770, Note_off_c, 1, 67, 0
1, 13774, Note_on_c, 1, 56, 127
1, 13774, Note_on_c, 1, 65, 127
1, 13800, Note_off_c, 1, 56, 0
1, 13800, Note_off_c, 1, 65, 0
1, 13804, Note_on_c, 1, 58, 127
1, 13804, Note_on_c, 1, 64, 127
1, 13830, Note_off_c, 1, 58, 0
1, 13834, Note_on_c, 1, 61, 127
1, 13860, Note_off_c, 1, 61, 0
1, 13864, Note_on_c, 1, 55, 127
1, 13877, Note_off_c, 1, 64, 0
1, 13879, Note_on_c, 1, 67, 127
1, 13890, Note_off_c, 1, 55, 0
1, 13892, Note_off_c, 1, 67, 0
1, 13894, Note_on_c, 1, 70, 127
1, 13894, Note_on_c, 1, 56, 127
1, 13907, Note_off_c, 1, 70, 0
1, 13909, Note_on_c, 1, 76, 127
1, 13920, Note_off_c, 1, 56, 0
1, 13922, Note_off_c, 1, 76, 0
1, 13924, Note_on_c, 1, 58, 127
1, 13924, Note_on_c, 1, 79, 127
1, 13950, Note_off_c, 1, 58, 0
1, 13954, Note_on_c, 1, 60, 127
1, 13980, Note_off_c, 1, 60, 0
1, 13984, Note_on_c, 1, 62, 127
1, 14002, Note_off_c, 1, 79, 0
1, 14010, Note_off_c, 1, 62, 0
1, 14014, Note_on_c, 1, 64, 127
1, 14014, Note_on_c, 1, 70, 127
1, 14040, Note_off_c, 1, 64, 0
1, 14040, Note_off_c, 1, 70, 0
1, 14044, Note_on_c, 1, 68, 127
1, 14044, Note_on_c, 1, 65, 127
1, 14070, Note_off_c, 1, 68, 0
1, 14074, Note_on_c, 1, 73, 127
1, 14100, Note_off_c, 1, 73, 0
1, 14104, Note_on_c, 1, 72, 127
1, 14117, Note_off_c, 1, 65, 0
1, 14119, Note_on_c, 1, 64, 127
1, 14130, Note_off_c, 1, 72, 0
1, 14132, Note_off_c, 1, 64, 0
1, 14134, Note_on_c, 1, 65, 127
1, 14134, Note_on_c, 1, 70, 127
1, 14147, Note_off_c, 1, 65, 0
1, 14149, Note_on_c, 1, 67, 127
1, 14160, Note_off_c, 1, 70, 0
1, 14162, Note_off_c, 1, 67, 0
1, 14164, Note_on_c, 1, 72, 127
1, 14164, Note_on_c, 1, 68, 127
1, 14190, Note_off_c, 1, 72, 0
1, 14194, Note_on_c, 1, 77, 127
1, 14220, Note_off_c, 1, 77, 0
1, 14242, Note_off_c, 1, 68, 0
1, 14254, Note_on_c, 1, 67, 127
1, 14254, Note_on_c, 1, 70, 127
1, 14280, Note_off_c, 1, 67, 0
1, 14280, Note_off_c, 1, 70, 0
1, 14284, Note_on_c, 1, 68, 127
1, 14284, Note_on_c, 1, 65, 127
1, 14310, Note_off_c, 1, 68, 0
1, 14314, Note_on_c, 1, 72, 127
1, 14340, Note_off_c, 1, 72, 0
1, 14362, Note_off_c, 1, 65, 0
1, 14374, Note_on_c, 1, 63, 127
1, 14374, Note_on_c, 1, 67, 127
1, 14400, Note_off_c, 1, 63, 0
1, 14400, Note_off_c, 1, 67, 0
1, 14404, Note_on_c, 1, 65, 127
1, 14404, Note_on_c, 1, 61, 127
1, 14430, Note_off_c, 1, 65, 0
1, 14434, Note_on_c, 1, 70, 127
1, 14460, Note_off_c, 1, 70, 0
1, 14464, Note_on_c, 1, 69, 127
1, 14477, Note_off_c, 1, 61, 0
1, 14479, Note_on_c, 1, 60, 127
1, 14490, Note_off_c, 1, 69, 0
1, 14492, Note_off_c, 1, 60, 0
1, 14494, Note_on_c, 1, 61, 127
1, 14494, Note_on_c, 1, 67, 127
1, 14507, Note_off_c, 1, 61, 0
1, 14509, Note_on_c, 1, 63, 127
1, 14520, Note_off_c, 1, 67, 0
1, 14522, Note_off_c, 1, 63, 0
1, 14524, Note_on_c, 1, 69, 127
1, 14524, Note_on_c, 1, 65, 127
1, 14550, Note_off_c, 1, 69, 0
1, 14554, Note_on_c, 1, 72, 127
1, 14580, Note_off_c, 1, 72, 0
1, 14602, Note_off_c, 1, 65, 0
1, 14614, Note_on_c, 1, 63, 127
1, 14614, Note_on_c, 1, 67, 127
1, 14640, Note_off_c, 1, 63, 0
1, 14640, Note_off_c, 1, 67, 0
1, 14644, Note_on_c, 1, 65, 127
1, 14644, Note_on_c, 1, 61, 127
1, 14670, Note_off_c, 1, 65, 0
1, 14674, Note_on_c, 1, 72, 127
1, 14700, Note_off_c, 1, 72, 0
1, 14722, Note_off_c, 1, 61, 0
1, 14734, Note_on_c, 1, 60, 127
1, 14734, Note_on_c, 1, 63, 127
1, 14760, Note_off_c, 1, 60, 0
1, 14760, Note_off_c, 1, 63, 0
1, 14764, Note_on_c, 1, 61, 127
1, 14764, Note_on_c, 1, 58, 127
1, 14790, Note_off_c, 1, 61, 0
1, 14794, Note_on_c, 1, 72, 127
1, 14820, Note_off_c, 1, 72, 0
1, 14824, Note_on_c, 1, 70, 127
1, 14837, Note_off_c, 1, 58, 0
1, 14839, Note_on_c, 1, 57, 127
1, 14850, Note_off_c, 1, 70, 0
1, 14852, Note_off_c, 1, 57, 0
1, 14854, Note_on_c, 1, 58, 127
1, 14854, Note_on_c, 1, 69, 127
1, 14867, Note_off_c, 1, 58, 0
1, 14869, Note_on_c, 1, 60, 127
1, 14880, Note_off_c, 1, 69, 0
1, 14882, Note_off_c, 1, 60, 0
1, 14884, Note_on_c, 1, 70, 127
1, 14884, Note_on_c, 1, 61, 127
1, 14910, Note_off_c, 1, 70, 0
1, 14914, Note_on_c, 1, 73, 127
1, 14940, Note_off_c, 1, 73, 0
1, 14962, Note_off_c, 1, 61, 0
1, 14974, Note_on_c, 1, 60, 127
1, 14974, Note_on_c, 1, 68, 127
1, 15000, Note_off_c, 1, 60, 0
1, 15000, Note_off_c, 1, 68, 0
1, 15004, Note_on_c, 1, 66, 127
1, 15004, Note_on_c, 1, 58, 127
1, 15030, Note_off_c, 1, 66, 0
1, 15034, Note_on_c, 1, 70, 127
1, 15060, Note_off_c, 1, 70, 0
1, 15082, Note_off_c, 1, 58, 0
1, 15094, Note_on_c, 1, 56, 127
1, 15094, Note_on_c, 1, 65, 127
1, 15120, Note_off_c, 1, 56, 0
1, 15120, Note_off_c, 1, 65, 0
1, 15124, Note_on_c, 1, 63, 127
1, 15124, Note_on_c, 1, 54, 127
1, 15150, Note_off_c, 1, 63, 0
1, 15154, Note_on_c, 1, 68, 127
1, 15180, Note_off_c, 1, 68, 0
1, 15184, Note_on_c, 1, 66, 127
1, 15197, Note_off_c, 1, 54, 0
1, 15199, Note_on_c, 1, 53, 127
1, 15210, Note_off_c, 1, 66, 0
1, 15212, Note_off_c, 1, 53, 0
1, 15214, Note_on_c, 1, 54, 127
1, 15214, Note_on_c, 1, 65, 127
1, 15227, Note_off_c, 1, 54, 0
1, 15229, Note_on_c, 1, 56, 127
1, 15240, Note_off_c, 1, 65, 0
1, 15242, Note_off_c, 1, 56, 0
1, 15244, Note_on_c, 1, 66, 127
1, 15244, Note_on_c, 1, 58, 127
1, 15270, Note_off_c, 1, 66, 0
1, 15274, Note_on_c, 1, 70, 127
1, 15300, Note_off_c, 1, 70, 0
1, 15322, Note_off_c, 1, 58, 0
1, 15334, Note_on_c, 1, 56, 127
1, 15334, Note_on_c, 1, 65, 127
1, 15360, Note_off_c, 1, 56, 0
1, 15360, Note_off_c, 1, 65, 0
1, 15364, Note_on_c, 1, 63, 127
1, 15364, Note_on_c, 1, 54, 127
1, 15390, Note_off_c, 1, 63, 0
1, 15394, Note_on_c, 1, 70, 127
1, 15420, Note_off_c, 1, 70, 0
1, 15442, Note_off_c, 1, 54, 0
1, 15454, Note_on_c, 1, 53, 127
1, 15454, Note_on_c, 1, 61, 127
1, 15480, Note_off_c, 1, 53, 0
1, 15480, Note_off_c, 1, 61, 0
1, 15484, Note_on_c, 1, 60, 127
1, 15484, Note_on_c, 1, 51, 127
1, 15497, Note_off_c, 1, 60, 0
1, 15499, Note_on_c, 1, 61, 127
1, 15512, Note_off_c, 1, 61, 0
1, 15514, Note_on_c, 1, 63, 127
1, 15540, Note_off_c, 1, 63, 0
1, 15544, Note_on_c, 1, 57, 127
1, 15557, Note_off_c, 1, 51, 0
1, 15559, Note_on_c, 1, 53, 127
1, 15572, Note_off_c, 1, 53, 0
1, 15589, Note_on_c, 1, 49, 127
1, 15602, Note_off_c, 1, 49, 0
1, 15604, Note_on_c, 1, 48, 127
1, 15630, Note_off_c, 1, 57, 0
1, 15677, Note_off_c, 1, 48, 0
1, 15694, Note_on_c, 1, 48, 127
1, 15694, Note_on_c, 1, 66, 127
1, 15707, Note_off_c, 1, 48, 0
1, 15709, Note_on_c, 1, 46, 127
1, 15720, Note_off_c, 1, 66, 0
1, 15722, Note_off_c, 1, 46, 0
1, 15724, Note_on_c, 1, 65, 127
1, 15724, Note_on_c, 1, 45, 127
1, 15750, Note_off_c, 1, 65, 0
1, 15754, Note_on_c, 1, 63, 127
1, 15780, Note_off_c, 1, 63, 0
1, 15784, Note_on_c, 1, 61, 127
1, 15802, Note_off_c, 1, 45, 0
1, 15810, Note_off_c, 1, 61, 0
1, 15814, Note_on_c, 1, 53, 127
1, 15814, Note_on_c, 1, 60, 127
1, 15840, Note_off_c, 1, 53, 0
1, 15840, Note_off_c, 1, 60, 0
1, 15844, Note_on_c, 1, 61, 127
1, 15844, Note_on_c, 1, 46, 127
1, 15857, Note_off_c, 1, 61, 0
1, 15859, Note_on_c, 1, 63, 127
1, 15872, Note_off_c, 1, 63, 0
1, 15874, Note_on_c, 1, 65, 127
1, 15900, Note_off_c, 1, 65, 0
1, 15904, Note_on_c, 1, 58, 127
1, 15917, Note_off_c, 1, 46, 0
1, 15919, Note_on_c, 1, 49, 127
1, 15932, Note_off_c, 1, 49, 0
1, 15934, Note_on_c, 1, 51, 127
1, 15947, Note_off_c, 1, 51, 0
1, 15949, Note_on_c, 1, 53, 127
1, 15962, Note_off_c, 1, 53, 0
1, 15964, Note_on_c, 1, 54, 127
1, 15990, Note_off_c, 1, 58, 0
1, 16024, Note_on_c, 1, 66, 127
1, 16037, Note_off_c, 1, 54, 0
1, 16050, Note_off_c, 1, 66, 0
1, 16054, Note_on_c, 1, 51, 127
1, 16054, Note_on_c, 1, 70, 127
1, 16067, Note_off_c, 1, 51, 0
1, 16069, Note_on_c, 1, 49, 127
1, 16080, Note_off_c, 1, 70, 0
1, 16082, Note_off_c, 1, 49, 0
1, 16084, Note_on_c, 1, 68, 127
1, 16084, Note_on_c, 1, 48, 127
1, 16110, Note_off_c, 1, 68, 0
1, 16114, Note_on_c, 1, 66, 127
1, 16140, Note_off_c, 1, 66, 0
1, 16144, Note_on_c, 1, 65, 127
1, 16162, Note_off_c, 1, 48, 0
1, 16170, Note_off_c, 1, 65, 0
1, 16174, Note_on_c, 1, 56, 127
1, 16174, Note_on_c, 1, 63, 127
1, 16200, Note_off_c, 1, 56, 0
1, 16200, Note_off_c, 1, 63, 0
1, 16204, Note_on_c, 1, 65, 127
1, 16204, Note_on_c, 1, 49, 127
1, 16217, Note_off_c, 1, 65, 0
1, 16219, Note_on_c, 1, 66, 127
1, 16232, Note_off_c, 1, 66, 0
1, 16234, Note_on_c, 1, 68, 127
1, 16260, Note_off_c, 1, 68, 0
1, 16264, Note_on_c, 1, 61, 127
1, 16277, Note_off_c, 1, 49, 0
1, 16279, Note_on_c, 1, 53, 127
1, 16292, Note_off_c, 1, 53, 0
1, 16294, Note_on_c, 1, 54, 127
1, 16307, Note_off_c, 1, 54, 0
1, 16309, Note_on_c, 1, 56, 127
1, 16322, Note_off_c, 1, 56, 0
1, 16324, Note_on_c, 1, 58, 127
1, 16350, Note_off_c, 1, 61, 0
1, 16384, Note_on_c, 1, 70, 127
1, 16397, Note_off_c, 1, 58, 0
1, 16410, Note_off_c, 1, 70, 0
1, 16414, Note_on_c, 1, 54, 127
1, 16414, Note_on_c, 1, 73, 127
1, 16427, Note_off_c, 1, 54, 0
1, 16429, Note_on_c, 1, 53, 127
1, 16440, Note_off_c, 1, 73, 0
1, 16442, Note_off_c, 1, 53, 0
1, 16444, Note_on_c, 1, 72, 127
1, 16444, Note_on_c, 1, 51, 127
1, 16470, Note_off_c, 1, 72, 0
1, 16474, Note_on_c, 1, 70, 127
1, 16500, Note_off_c, 1, 70, 0
1, 16504, Note_on_c, 1, 68, 127
1, 16522, Note_off_c, 1, 51, 0
1, 16530, Note_off_c, 1, 68, 0
1, 16534, Note_on_c, 1, 60, 127
1, 16534, Note_on_c, 1, 66, 127
1, 16560, Note_off_c, 1, 60, 0
1, 16560, Note_off_c, 1, 66, 0
1, 16564, Note_on_c, 1, 68, 127
1, 16564, Note_on_c, 1, 53, 127
1, 16577, Note_off_c, 1, 68, 0
1, 16579, Note_on_c, 1, 66, 127
1, 16592, Note_off_c, 1, 66, 0
1, 16594, Note_on_c, 1, 65, 127
1, 16620, Note_off_c, 1, 65, 0
1, 16624, Note_on_c, 1, 73, 127
1, 16637, Note_off_c, 1, 53, 0
1, 16639, Note_on_c, 1, 56, 127
1, 16652, Note_off_c, 1, 56, 0
1, 16654, Note_on_c, 1, 58, 127
1, 16667, Note_off_c, 1, 58, 0
1, 16669, Note_on_c, 1, 60, 127
1, 16682, Note_off_c, 1, 60, 0
1, 16684, Note_on_c, 1, 61, 127
1, 16710, Note_off_c, 1, 73, 0
1, 16757, Note_off_c, 1, 61, 0
1, 16774, Note_on_c, 1, 58, 127
1, 16774, Note_on_c, 1, 77, 127
1, 16787, Note_off_c, 1, 58, 0
1, 16789, Note_on_c, 1, 56, 127
1, 16800, Note_off_c, 1, 77, 0
1, 16802, Note_off_c, 1, 56, 0
1, 16804, Note_on_c, 1, 75, 127
1, 16804, Note_on_c, 1, 54, 127
1, 16830, Note_off_c, 1, 75, 0
1, 16834, Note_on_c, 1, 73, 127
1, 16860, Note_off_c, 1, 73, 0
1, 16864, Note_on_c, 1, 72, 127
1, 16882, Note_off_c, 1, 54, 0
1, 16890, Note_off_c, 1, 72, 0
1, 16894, Note_on_c, 1, 63, 127
1, 16894, Note_on_c, 1, 70, 127
1, 16920, Note_off_c, 1, 63, 0
1, 16920, Note_off_c, 1, 70, 0
1, 16924, Note_on_c, 1, 72, 127
1, 16924, Note_on_c, 1, 63, 127
1, 16924, Note_on_c, 1, 54, 127
1, 16924, Note_on_c, 1, 56, 127
1, 16937, Note_off_c, 1, 72, 0
1, 16939, Note_on_c, 1, 73, 127
1, 16952, Note_off_c, 1, 73, 0
1, 16954, Note_on_c, 1, 75, 127
1, 16980, Note_off_c, 1, 75, 0
1, 16984, Note_on_c, 1, 68, 127
1, 17010, Note_off_c, 1, 68, 0
1, 17014, Note_on_c, 1, 70, 127
1, 17029, Note_off_c, 1, 63, 0
1, 17029, Note_off_c, 1, 54, 0
1, 17029, Note_off_c, 1, 56, 0
1, 17040, Note_off_c, 1, 70, 0
1, 17044, Note_on_c, 1, 72, 127
1, 17070, Note_off_c, 1, 72, 0
1, 17074, Note_on_c, 1, 73, 127
1, 17100, Note_off_c, 1, 73, 0
1, 17104, Note_on_c, 1, 75, 127
1, 17119, Note_on_c, 1, 61, 127
1, 17130, Note_off_c, 1, 75, 0
1, 17132, Note_off_c, 1, 61, 0
1, 17134, Note_on_c, 1, 60, 127
1, 17134, Note_on_c, 1, 77, 127
1, 17147, Note_off_c, 1, 60, 0
1, 17149, Note_on_c, 1, 58, 127
1, 17160, Note_off_c, 1, 77, 0
1, 17162, Note_off_c, 1, 58, 0
1, 17164, Note_on_c, 1, 78, 127
1, 17164, Note_on_c, 1, 56, 127
1, 17190, Note_off_c, 1, 78, 0
1, 17194, Note_on_c, 1, 75, 127
1, 17220, Note_off_c, 1, 75, 0
1, 17224, Note_on_c, 1, 73, 127
1, 17237, Note_off_c, 1, 56, 0
1, 17239, Note_on_c, 1, 58, 127
1, 17250, Note_off_c, 1, 73, 0
1, 17252, Note_off_c, 1, 58, 0
1, 17254, Note_on_c, 1, 56, 127
1, 17254, Note_on_c, 1, 72, 127
1, 17267, Note_off_c, 1, 56, 0
1, 17269, Note_on_c, 1, 54, 127
1, 17280, Note_off_c, 1, 72, 0
1, 17282, Note_off_c, 1, 54, 0
1, 17284, Note_on_c, 1, 80, 127
1, 17284, Note_on_c, 1, 53, 127
1, 17310, Note_off_c, 1, 80, 0
1, 17314, Note_on_c, 1, 77, 127
1, 17327, Note_off_c, 1, 77, 0
1, 17329, Note_on_c, 1, 75, 127
1, 17342, Note_off_c, 1, 75, 0
1, 17344, Note_on_c, 1, 73, 127
1, 17357, Note_off_c, 1, 73, 0
1, 17362, Note_off_c, 1, 53, 0
1, 17374, Note_on_c, 1, 49, 127
1, 17374, Note_on_c, 1, 77, 127
1, 17400, Note_off_c, 1, 49, 0
1, 17400, Note_off_c, 1, 77, 0
1, 17404, Note_on_c, 1, 66, 127
1, 17404, Note_on_c, 1, 58, 127
1, 17430, Note_off_c, 1, 66, 0
1, 17434, Note_on_c, 1, 75, 127
1, 17460, Note_off_c, 1, 75, 0
1, 17464, Note_on_c, 1, 72, 127
1, 17482, Note_off_c, 1, 58, 0
1, 17490, Note_off_c, 1, 72, 0
1, 17494, Note_on_c, 1, 54, 127
1, 17494, Note_on_c, 1, 73, 127
1, 17520, Note_off_c, 1, 54, 0
1, 17520, Note_off_c, 1, 73, 0
1, 17524, Note_on_c, 1, 65, 127
1, 17524, Note_on_c, 1, 56, 127
1, 17550, Note_off_c, 1, 65, 0
1, 17554, Note_on_c, 1, 73, 127
1, 17580, Note_off_c, 1, 73, 0
1, 17584, Note_on_c, 1, 63, 127
1, 17602, Note_off_c, 1, 56, 0
1, 17610, Note_off_c, 1, 63, 0
1, 17614, Note_on_c, 1, 44, 127
1, 17614, Note_on_c, 1, 72, 127
1, 17640, Note_off_c, 1, 44, 0
1, 17640, Note_off_c, 1, 72, 0
1, 17644, Note_on_c, 1, 65, 127
1, 17644, Note_on_c, 1, 73, 127
1, 17644, Note_on_c, 1, 49, 127
1, 17674, Note_on_c, 1, 68, 127
1, 17696, Note_off_c, 1, 65, 0
1, 17696, Note_off_c, 1, 73, 0
1, 17722, Note_off_c, 1, 49, 0
1, 17734, Note_on_c, 1, 51, 127
1, 17747, Note_off_c, 1, 51, 0
1, 17749, Note_on_c, 1, 53, 127
1, 17762, Note_off_c, 1, 53, 0
1, 17764, Note_on_c, 1, 44, 127
1, 17794, Note_on_c, 1, 72, 127
1, 17816, Note_off_c, 1, 68, 0
1, 17820, Note_off_c, 1, 72, 0
1, 17842, Note_off_c, 1, 44, 0
1, 17854, Note_on_c, 1, 48, 127
1, 17867, Note_off_c, 1, 48, 0
1, 17884, Note_on_c, 1, 41, 127
1, 17962, Note_off_c, 1, 41, 0
1, 17974, Note_on_c, 1, 42, 127
1, 17987, Note_off_c, 1, 42, 0
1, 18004, Note_on_c, 1, 37, 127
1, 18034, Note_on_c, 1, 73, 127
1, 18056, Note_off_c, 1, 37, 0
1, 18060, Note_off_c, 1, 73, 0
1, 18064, Note_on_c, 1, 71, 127
1, 18090, Note_off_c, 1, 71, 0
1, 18094, Note_on_c, 1, 70, 127
1, 18120, Note_off_c, 1, 70, 0
1, 18124, Note_on_c, 1, 71, 127
1, 18150, Note_off_c, 1, 71, 0
1, 18154, Note_on_c, 1, 77, 127
1, 18180, Note_off_c, 1, 77, 0
1, 18184, Note_on_c, 1, 80, 127
1, 18210, Note_off_c, 1, 80, 0
1, 18214, Note_on_c, 1, 78, 127
1, 18240, Note_off_c, 1, 78, 0
1, 18244, Note_on_c, 1, 77, 127
1, 18270, Note_off_c, 1, 77, 0
1, 18274, Note_on_c, 1, 75, 127
1, 18300, Note_off_c, 1, 75, 0
1, 18304, Note_on_c, 1, 73, 127
1, 18330, Note_off_c, 1, 73, 0
1, 18334, Note_on_c, 1, 71, 127
1, 18360, Note_off_c, 1, 71, 0
1, 18364, Note_on_c, 1, 70, 127
1, 18364, Note_on_c, 1, 50, 127
1, 18394, Note_on_c, 1, 77, 127
1, 18409, Note_on_c, 1, 78, 127
1, 18422, Note_off_c, 1, 78, 0
1, 18424, Note_on_c, 1, 80, 127
1, 18437, Note_off_c, 1, 50, 0
1, 18439, Note_on_c, 1, 53, 127
1, 18452, Note_off_c, 1, 53, 0
1, 18454, Note_on_c, 1, 54, 127
1, 18467, Note_off_c, 1, 54, 0
1, 18469, Note_on_c, 1, 56, 127
1, 18482, Note_off_c, 1, 56, 0
1, 18484, Note_on_c, 1, 58, 127
1, 18510, Note_off_c, 1, 80, 0
1, 18536, Note_off_c, 1, 70, 0
1, 18536, Note_off_c, 1, 77, 0
1, 18544, Note_on_c, 1, 74, 127
1, 18562, Note_off_c, 1, 58, 0
1, 18656, Note_off_c, 1, 74, 0
1, 18724, Note_on_c, 1, 51, 127
1, 18754, Note_on_c, 1, 80, 127
1, 18780, Note_off_c, 1, 80, 0
1, 18784, Note_on_c, 1, 78, 127
1, 18797, Note_off_c, 1, 51, 0
1, 18799, Note_on_c, 1, 58, 127
1, 18810, Note_off_c, 1, 78, 0
1, 18812, Note_off_c, 1, 58, 0
1, 18814, Note_on_c, 1, 60, 127
1, 18814, Note_on_c, 1, 77, 127
1, 18827, Note_off_c, 1, 60, 0
1, 18829, Note_on_c, 1, 62, 127
1, 18840, Note_off_c, 1, 77, 0
1, 18842, Note_off_c, 1, 62, 0
1, 18844, Note_on_c, 1, 78, 127
1, 18844, Note_on_c, 1, 63, 127
1, 18870, Note_off_c, 1, 78, 0
1, 18874, Note_on_c, 1, 82, 127
1, 18896, Note_off_c, 1, 63, 0
1, 18900, Note_off_c, 1, 82, 0
1, 18904, Note_on_c, 1, 63, 127
1, 18904, Note_on_c, 1, 75, 127
1, 18930, Note_off_c, 1, 63, 0
1, 18930, Note_off_c, 1, 75, 0
1, 18934, Note_on_c, 1, 61, 127
1, 18934, Note_on_c, 1, 77, 127
1, 18960, Note_off_c, 1, 61, 0
1, 18960, Note_off_c, 1, 77, 0
1, 18964, Note_on_c, 1, 78, 127
1, 18964, Note_on_c, 1, 60, 127
1, 18990, Note_off_c, 1, 78, 0
1, 18994, Note_on_c, 1, 75, 127
1, 19020, Note_off_c, 1, 75, 0
1, 19024, Note_on_c, 1, 81, 127
1, 19042, Note_off_c, 1, 60, 0
1, 19050, Note_off_c, 1, 81, 0
1, 19054, Note_on_c, 1, 58, 127
1, 19054, Note_on_c, 1, 82, 127
1, 19080, Note_off_c, 1, 58, 0
1, 19080, Note_off_c, 1, 82, 0
1, 19084, Note_on_c, 1, 84, 127
1, 19084, Note_on_c, 1, 57, 127
1, 19097, Note_off_c, 1, 84, 0
1, 19099, Note_on_c, 1, 77, 127
1, 19112, Note_off_c, 1, 77, 0
1, 19114, Note_on_c, 1, 75, 127
1, 19127, Note_off_c, 1, 75, 0
1, 19129, Note_on_c, 1, 73, 127
1, 19142, Note_off_c, 1, 73, 0
1, 19144, Note_on_c, 1, 72, 127
1, 19157, Note_off_c, 1, 57, 0
1, 19159, Note_on_c, 1, 48, 127
1, 19172, Note_off_c, 1, 48, 0
1, 19174, Note_on_c, 1, 49, 127
1, 19187, Note_off_c, 1, 49, 0
1, 19189, Note_on_c, 1, 51, 127
1, 19202, Note_off_c, 1, 51, 0
1, 19204, Note_on_c, 1, 53, 127
1, 19256, Note_off_c, 1, 72, 0
1, 19264, Note_on_c, 1, 69, 127
1, 19282, Note_off_c, 1, 53, 0
1, 19350, Note_off_c, 1, 69, 0
1, 19444, Note_on_c, 1, 46, 127
1, 19474, Note_on_c, 1, 75, 127
1, 19500, Note_off_c, 1, 75, 0
1, 19504, Note_on_c, 1, 73, 127
1, 19517, Note_off_c, 1, 46, 0
1, 19519, Note_on_c, 1, 53, 127
1, 19530, Note_off_c, 1, 73, 0
1, 19532, Note_off_c, 1, 53, 0
1, 19534, Note_on_c, 1, 55, 127
1, 19534, Note_on_c, 1, 72, 127
1, 19547, Note_off_c, 1, 55, 0
1, 19549, Note_on_c, 1, 57, 127
1, 19560, Note_off_c, 1, 72, 0
1, 19562, Note_off_c, 1, 57, 0
1, 19564, Note_on_c, 1, 73, 127
1, 19564, Note_on_c, 1, 58, 127
1, 19590, Note_off_c, 1, 73, 0
1, 19594, Note_on_c, 1, 77, 127
1, 19620, Note_off_c, 1, 77, 0
1, 19624, Note_on_c, 1, 70, 127
1, 19642, Note_off_c, 1, 58, 0
1, 19650, Note_off_c, 1, 70, 0
1, 19654, Note_on_c, 1, 56, 127
1, 19654, Note_on_c, 1, 72, 127
1, 19680, Note_off_c, 1, 56, 0
1, 19680, Note_off_c, 1, 72, 0
1, 19684, Note_on_c, 1, 73, 127
1, 19684, Note_on_c, 1, 55, 127
1, 19710, Note_off_c, 1, 73, 0
1, 19714, Note_on_c, 1, 70, 127
1, 19740, Note_off_c, 1, 70, 0
1, 19744, Note_on_c, 1, 76, 127
1, 19762, Note_off_c, 1, 55, 0
1, 19770, Note_off_c, 1, 76, 0
1, 19774, Note_on_c, 1, 53, 127
1, 19774, Note_on_c, 1, 77, 127
1, 19800, Note_off_c, 1, 53, 0
1, 19800, Note_off_c, 1, 77, 0
1, 19804, Note_on_c, 1, 79, 127
1, 19804, Note_on_c, 1, 52, 127
1, 19817, Note_off_c, 1, 79, 0
1, 19819, Note_on_c, 1, 72, 127
1, 19832, Note_off_c, 1, 72, 0
1, 19834, Note_on_c, 1, 70, 127
1, 19847, Note_off_c, 1, 70, 0
1, 19849, Note_on_c, 1, 68, 127
1, 19862, Note_off_c, 1, 68, 0
1, 19864, Note_on_c, 1, 67, 127
1, 19877, Note_off_c, 1, 52, 0
1, 19879, Note_on_c, 1, 43, 127
1, 19892, Note_off_c, 1, 43, 0
1, 19894, Note_on_c, 1, 44, 127
1, 19907, Note_off_c, 1, 44, 0
1, 19909, Note_on_c, 1, 46, 127
1, 19922, Note_off_c, 1, 46, 0
1, 19924, Note_on_c, 1, 48, 127
1, 19976, Note_off_c, 1, 67, 0
1, 19984, Note_on_c, 1, 64, 127
1, 20002, Note_off_c, 1, 48, 0
1, 20096, Note_off_c, 1, 64, 0
1, 20164, Note_on_c, 1, 41, 127
1, 20179, Note_on_c, 1, 70, 127
1, 20192, Note_off_c, 1, 70, 0
1, 20194, Note_on_c, 1, 68, 127
1, 20207, Note_off_c, 1, 68, 0
1, 20209, Note_on_c, 1, 67, 127
1, 20222, Note_off_c, 1, 67, 0
1, 20237, Note_off_c, 1, 41, 0
1, 20239, Note_on_c, 1, 44, 127
1, 20252, Note_off_c, 1, 44, 0
1, 20254, Note_on_c, 1, 46, 127
1, 20267, Note_off_c, 1, 46, 0
1, 20269, Note_on_c, 1, 48, 127
1, 20282, Note_off_c, 1, 48, 0
1, 20284, Note_on_c, 1, 49, 127
1, 20314, Note_on_c, 1, 65, 127
1, 20327, Note_off_c, 1, 65, 0
1, 20329, Note_on_c, 1, 64, 127
1, 20342, Note_off_c, 1, 64, 0
1, 20362, Note_off_c, 1, 49, 0
1, 20374, Note_on_c, 1, 48, 127
1, 20374, Note_on_c, 1, 68, 127
1, 20400, Note_off_c, 1, 48, 0
1, 20400, Note_off_c, 1, 68, 0
1, 20404, Note_on_c, 1, 73, 127
1, 20404, Note_on_c, 1, 46, 127
1, 20430, Note_off_c, 1, 73, 0
1, 20434, Note_on_c, 1, 68, 127
1, 20460, Note_off_c, 1, 68, 0
1, 20464, Note_on_c, 1, 67, 127
1, 20482, Note_off_c, 1, 46, 0
1, 20490, Note_off_c, 1, 67, 0
1, 20494, Note_on_c, 1, 44, 127
1, 20494, Note_on_c, 1, 65, 127
1, 20520, Note_off_c, 1, 44, 0
1, 20520, Note_off_c, 1, 65, 0
1, 20524, Note_on_c, 1, 63, 127
1, 20524, Note_on_c, 1, 43, 127
1, 20554, Note_on_c, 1, 70, 127
1, 20569, Note_on_c, 1, 72, 127
1, 20582, Note_off_c, 1, 72, 0
1, 20584, Note_on_c, 1, 73, 127
1, 20597, Note_off_c, 1, 43, 0
1, 20599, Note_on_c, 1, 46, 127
1, 20612, Note_off_c, 1, 46, 0
1, 20614, Note_on_c, 1, 48, 127
1, 20627, Note_off_c, 1, 48, 0
1, 20629, Note_on_c, 1, 49, 127
1, 20642, Note_off_c, 1, 49, 0
1, 20644, Note_on_c, 1, 51, 127
1, 20670, Note_off_c, 1, 73, 0
1, 20696, Note_off_c, 1, 63, 0
1, 20704, Note_on_c, 1, 67, 127
1, 20722, Note_off_c, 1, 51, 0
1, 20816, Note_off_c, 1, 70, 0
1, 20816, Note_off_c, 1, 67, 0
1, 20884, Note_on_c, 1, 44, 127
1, 20929, Note_on_c, 1, 68, 127
1, 20944, Note_on_c, 1, 75, 127
1, 20944, Note_on_c, 1, 78, 127
1, 20957, Note_off_c, 1, 44, 0
1, 20974, Note_on_c, 1, 53, 127
1, 20987, Note_off_c, 1, 53, 0
1, 20989, Note_on_c, 1, 54, 127
1, 21002, Note_off_c, 1, 54, 0
1, 21004, Note_on_c, 1, 56, 127
1, 21030, Note_off_c, 1, 68, 0
1, 21056, Note_off_c, 1, 75, 0
1, 21056, Note_off_c, 1, 78, 0
1, 21082, Note_off_c, 1, 56, 0
1, 21244, Note_on_c, 1, 49, 127
1, 21274, Note_on_c, 1, 78, 127
1, 21300, Note_off_c, 1, 78, 0
1, 21304, Note_on_c, 1, 77, 127
1, 21317, Note_off_c, 1, 49, 0
1, 21319, Note_on_c, 1, 56, 127
1, 21330, Note_off_c, 1, 77, 0
1, 21332, Note_off_c, 1, 56, 0
1, 21334, Note_on_c, 1, 58, 127
1, 21334, Note_on_c, 1, 75, 127
1, 21347, Note_off_c, 1, 58, 0
1, 21349, Note_on_c, 1, 60, 127
1, 21360, Note_off_c, 1, 75, 0
1, 21362, Note_off_c, 1, 60, 0
1, 21364, Note_on_c, 1, 77, 127
1, 21364, Note_on_c, 1, 61, 127
1, 21390, Note_off_c, 1, 77, 0
1, 21394, Note_on_c, 1, 80, 127
1, 21420, Note_off_c, 1, 80, 0
1, 21424, Note_on_c, 1, 73, 127
1, 21437, Note_off_c, 1, 61, 0
1, 21439, Note_on_c, 1, 63, 127
1, 21450, Note_off_c, 1, 73, 0
1, 21452, Note_off_c, 1, 63, 0
1, 21454, Note_on_c, 1, 61, 127
1, 21454, Note_on_c, 1, 75, 127
1, 21467, Note_off_c, 1, 61, 0
1, 21469, Note_on_c, 1, 60, 127
1, 21480, Note_off_c, 1, 75, 0
1, 21482, Note_off_c, 1, 60, 0
1, 21484, Note_on_c, 1, 77, 127
1, 21484, Note_on_c, 1, 58, 127
1, 21510, Note_off_c, 1, 77, 0
1, 21514, Note_on_c, 1, 73, 127
1, 21540, Note_off_c, 1, 73, 0
1, 21544, Note_on_c, 1, 70, 127
1, 21557, Note_off_c, 1, 58, 0
1, 21559, Note_on_c, 1, 60, 127
1, 21570, Note_off_c, 1, 70, 0
1, 21572, Note_off_c, 1, 60, 0
1, 21574, Note_on_c, 1, 58, 127
1, 21574, Note_on_c, 1, 72, 127
1, 21587, Note_off_c, 1, 58, 0
1, 21589, Note_on_c, 1, 56, 127
1, 21600, Note_off_c, 1, 72, 0
1, 21602, Note_off_c, 1, 56, 0
1, 21604, Note_on_c, 1, 73, 127
1, 21604, Note_on_c, 1, 55, 127
1, 21630, Note_off_c, 1, 73, 0
1, 21634, Note_on_c, 1, 70, 127
1, 21660, Note_off_c, 1, 70, 0
1, 21664, Note_on_c, 1, 63, 127
1, 21677, Note_off_c, 1, 55, 0
1, 21679, Note_on_c, 1, 56, 127
1, 21690, Note_off_c, 1, 63, 0
1, 21692, Note_off_c, 1, 56, 0
1, 21694, Note_on_c, 1, 55, 127
1, 21694, Note_on_c, 1, 65, 127
1, 21707, Note_off_c, 1, 55, 0
1, 21709, Note_on_c, 1, 53, 127
1, 21720, Note_off_c, 1, 65, 0
1, 21722, Note_off_c, 1, 53, 0
1, 21724, Note_on_c, 1, 67, 127
1, 21724, Note_on_c, 1, 51, 127
1, 21750, Note_off_c, 1, 67, 0
1, 21754, Note_on_c, 1, 68, 127
1, 21776, Note_off_c, 1, 51, 0
1, 21780, Note_off_c, 1, 68, 0
1, 21784, Note_on_c, 1, 70, 127
1, 21810, Note_off_c, 1, 70, 0
1, 21814, Note_on_c, 1, 72, 127
1, 21840, Note_off_c, 1, 72, 0
1, 21844, Note_on_c, 1, 73, 127
1, 21870, Note_off_c, 1, 73, 0
1, 21874, Note_on_c, 1, 72, 127
1, 21900, Note_off_c, 1, 72, 0
1, 21904, Note_on_c, 1, 70, 127
1, 21919, Note_on_c, 1, 51, 127
1, 21930, Note_off_c, 1, 70, 0
1, 21932, Note_off_c, 1, 51, 0
1, 21934, Note_on_c, 1, 53, 127
1, 21934, Note_on_c, 1, 73, 127
1, 21947, Note_off_c, 1, 53, 0
1, 21949, Note_on_c, 1, 55, 127
1, 21960, Note_off_c, 1, 73, 0
1, 21962, Note_off_c, 1, 55, 0
1, 21964, Note_on_c, 1, 72, 127
1, 21964, Note_on_c, 1, 56, 127
1, 21977, Note_off_c, 1, 72, 0
1, 21979, Note_on_c, 1, 75, 127
1, 21992, Note_off_c, 1, 75, 0
1, 21994, Note_on_c, 1, 77, 127
1, 22007, Note_off_c, 1, 77, 0
1, 22009, Note_on_c, 1, 79, 127
1, 22022, Note_off_c, 1, 79, 0
1, 22024, Note_on_c, 1, 80, 127
1, 22037, Note_off_c, 1, 56, 0
1, 22039, Note_on_c, 1, 53, 127
1, 22050, Note_off_c, 1, 80, 0
1, 22052, Note_off_c, 1, 53, 0
1, 22054, Note_on_c, 1, 55, 127
1, 22054, Note_on_c, 1, 72, 127
1, 22067, Note_off_c, 1, 55, 0
1, 22069, Note_on_c, 1, 56, 127
1, 22080, Note_off_c, 1, 72, 0
1, 22082, Note_off_c, 1, 56, 0
1, 22084, Note_on_c, 1, 75, 127
1, 22084, Note_on_c, 1, 58, 127
1, 22110, Note_off_c, 1, 75, 0
1, 22114, Note_on_c, 1, 74, 127
1, 22140, Note_off_c, 1, 74, 0
1, 22144, Note_on_c, 1, 79, 127
1, 22162, Note_off_c, 1, 58, 0
1, 22170, Note_off_c, 1, 79, 0
1, 22174, Note_on_c, 1, 56, 127
1, 22174, Note_on_c, 1, 77, 127
1, 22200, Note_off_c, 1, 56, 0
1, 22200, Note_off_c, 1, 77, 0
1, 22204, Note_on_c, 1, 75, 127
1, 22204, Note_on_c, 1, 58, 127
1, 22230, Note_off_c, 1, 75, 0
1, 22234, Note_on_c, 1, 74, 127
1, 22260, Note_off_c, 1, 74, 0
1, 22264, Note_on_c, 1, 72, 127
1, 22282, Note_off_c, 1, 58, 0
1, 22290, Note_off_c, 1, 72, 0
1, 22294, Note_on_c, 1, 46, 127
1, 22294, Note_on_c, 1, 70, 127
1, 22320, Note_off_c, 1, 46, 0
1, 22320, Note_off_c, 1, 70, 0
1, 22324, Note_on_c, 1, 68, 127
1, 22324, Note_on_c, 1, 51, 127
1, 22337, Note_off_c, 1, 68, 0
1, 22339, Note_on_c, 1, 67, 127
1, 22352, Note_off_c, 1, 67, 0
1, 22354, Note_on_c, 1, 65, 127
1, 22380, Note_off_c, 1, 65, 0
1, 22402, Note_off_c, 1, 51, 0
1, 22414, Note_on_c, 1, 53, 127
1, 22414, Note_on_c, 1, 70, 127
1, 22440, Note_off_c, 1, 53, 0
1, 22440, Note_off_c, 1, 70, 0
1, 22444, Note_on_c, 1, 55, 127
1, 22444, Note_on_c, 1, 63, 127
1, 22457, Note_off_c, 1, 55, 0
1, 22459, Note_on_c, 1, 56, 127
1, 22472, Note_off_c, 1, 56, 0
1, 22489, Note_on_c, 1, 53, 127
1, 22496, Note_off_c, 1, 63, 0
1, 22502, Note_off_c, 1, 53, 0
1, 22504, Note_on_c, 1, 55, 127
1, 22530, Note_off_c, 1, 55, 0
1, 22534, Note_on_c, 1, 58, 127
1, 22560, Note_off_c, 1, 58, 0
1, 22564, Note_on_c, 1, 51, 127
1, 22590, Note_off_c, 1, 51, 0
1, 22594, Note_on_c, 1, 49, 127
1, 22620, Note_off_c, 1, 49, 0
1, 22624, Note_on_c, 1, 48, 127
1, 22650, Note_off_c, 1, 48, 0
1, 22654, Note_on_c, 1, 46, 127
1, 22680, Note_off_c, 1, 46, 0
1, 22684, Note_on_c, 1, 44, 127
1, 22714, Note_on_c, 1, 61, 127
1, 22740, Note_off_c, 1, 61, 0
1, 22744, Note_on_c, 1, 60, 127
1, 22757, Note_off_c, 1, 44, 0
1, 22759, Note_on_c, 1, 51, 127
1, 22770, Note_off_c, 1, 60, 0
1, 22772, Note_off_c, 1, 51, 0
1, 22774, Note_on_c, 1, 53, 127
1, 22774, Note_on_c, 1, 58, 127
1, 22787, Note_off_c, 1, 53, 0
1, 22789, Note_on_c, 1, 55, 127
1, 22800, Note_off_c, 1, 58, 0
1, 22802, Note_off_c, 1, 55, 0
1, 22804, Note_on_c, 1, 60, 127
1, 22804, Note_on_c, 1, 56, 127
1, 22830, Note_off_c, 1, 60, 0
1, 22834, Note_on_c, 1, 63, 127
1, 22860, Note_off_c, 1, 63, 0
1, 22882, Note_off_c, 1, 56, 0
1, 22894, Note_on_c, 1, 51, 127
1, 22894, Note_on_c, 1, 58, 127
1, 22920, Note_off_c, 1, 51, 0
1, 22920, Note_off_c, 1, 58, 0
1, 22924, Note_on_c, 1, 56, 127
1, 22924, Note_on_c, 1, 48, 127
1, 22950, Note_off_c, 1, 56, 0
1, 22954, Note_on_c, 1, 66, 127
1, 22980, Note_off_c, 1, 66, 0
1, 22984, Note_on_c, 1, 65, 127
1, 23002, Note_off_c, 1, 48, 0
1, 23010, Note_off_c, 1, 65, 0
1, 23014, Note_on_c, 1, 56, 127
1, 23014, Note_on_c, 1, 63, 127
1, 23040, Note_off_c, 1, 56, 0
1, 23040, Note_off_c, 1, 63, 0
1, 23044, Note_on_c, 1, 49, 127
1, 23044, Note_on_c, 1, 65, 127
1, 23070, Note_off_c, 1, 49, 0
1, 23074, Note_on_c, 1, 58, 127
1, 23100, Note_off_c, 1, 58, 0
1, 23104, Note_on_c, 1, 56, 127
1, 23117, Note_off_c, 1, 65, 0
1, 23119, Note_on_c, 1, 68, 127
1, 23130, Note_off_c, 1, 56, 0
1, 23132, Note_off_c, 1, 68, 0
1, 23134, Note_on_c, 1, 70, 127
1, 23134, Note_on_c, 1, 54, 127
1, 23147, Note_off_c, 1, 70, 0
1, 23149, Note_on_c, 1, 72, 127
1, 23160, Note_off_c, 1, 54, 0
1, 23162, Note_off_c, 1, 72, 0
1, 23164, Note_on_c, 1, 53, 127
1, 23164, Note_on_c, 1, 73, 127
1, 23190, Note_off_c, 1, 53, 0
1, 23194, Note_on_c, 1, 56, 127
1, 23220, Note_off_c, 1, 56, 0
1, 23237, Note_off_c, 1, 73, 0
1, 23239, Note_on_c, 1, 68, 127
1, 23252, Note_off_c, 1, 68, 0
1, 23254, Note_on_c, 1, 73, 127
1, 23254, Note_on_c, 1, 51, 127
1, 23267, Note_off_c, 1, 73, 0
1, 23269, Note_on_c, 1, 75, 127
1, 23280, Note_off_c, 1, 51, 0
1, 23282, Note_off_c, 1, 75, 0
1, 23284, Note_on_c, 1, 49, 127
1, 23284, Note_on_c, 1, 77, 127
1, 23310, Note_off_c, 1, 49, 0
1, 23314, Note_on_c, 1, 53, 127
1, 23340, Note_off_c, 1, 53, 0
1, 23374, Note_on_c, 1, 48, 127
1, 23400, Note_off_c, 1, 48, 0
1, 23404, Note_on_c, 1, 46, 127
1, 23430, Note_off_c, 1, 77, 0
1, 23434, Note_on_c, 1, 63, 127
1, 23460, Note_off_c, 1, 63, 0
1, 23464, Note_on_c, 1, 62, 127
1, 23477, Note_off_c, 1, 46, 0
1, 23490, Note_off_c, 1, 62, 0
1, 23494, Note_on_c, 1, 55, 127
1, 23494, Note_on_c, 1, 60, 127
1, 23507, Note_off_c, 1, 55, 0
1, 23509, Note_on_c, 1, 56, 127
1, 23520, Note_off_c, 1, 60, 0
1, 23522, Note_off_c, 1, 56, 0
1, 23524, Note_on_c, 1, 62, 127
1, 23524, Note_on_c, 1, 58, 127
1, 23550, Note_off_c, 1, 62, 0
1, 23554, Note_on_c, 1, 65, 127
1, 23580, Note_off_c, 1, 65, 0
1, 23602, Note_off_c, 1, 58, 0
1, 23614, Note_on_c, 1, 53, 127
1, 23614, Note_on_c, 1, 60, 127
1, 23640, Note_off_c, 1, 53, 0
1, 23640, Note_off_c, 1, 60, 0
1, 23644, Note_on_c, 1, 58, 127
1, 23644, Note_on_c, 1, 50, 127
1, 23670, Note_off_c, 1, 58, 0
1, 23674, Note_on_c, 1, 68, 127
1, 23700, Note_off_c, 1, 68, 0
1, 23704, Note_on_c, 1, 67, 127
1, 23722, Note_off_c, 1, 50, 0
1, 23730, Note_off_c, 1, 67, 0
1, 23734, Note_on_c, 1, 58, 127
1, 23734, Note_on_c, 1, 65, 127
1, 23760, Note_off_c, 1, 58, 0
1, 23760, Note_off_c, 1, 65, 0
1, 23764, Note_on_c, 1, 51, 127
1, 23764, Note_on_c, 1, 67, 127
1, 23790, Note_off_c, 1, 51, 0
1, 23794, Note_on_c, 1, 63, 127
1, 23820, Note_off_c, 1, 63, 0
1, 23824, Note_on_c, 1, 61, 127
1, 23837, Note_off_c, 1, 67, 0
1, 23839, Note_on_c, 1, 70, 127
1, 23850, Note_off_c, 1, 61, 0
1, 23852, Note_off_c, 1, 70, 0
1, 23854, Note_on_c, 1, 75, 127
1, 23854, Note_on_c, 1, 60, 127
1, 23867, Note_off_c, 1, 75, 0
1, 23869, Note_on_c, 1, 77, 127
1, 23880, Note_off_c, 1, 60, 0
1, 23882, Note_off_c, 1, 77, 0
1, 23884, Note_on_c, 1, 58, 127
1, 23884, Note_on_c, 1, 79, 127
1, 23910, Note_off_c, 1, 58, 0
1, 23914, Note_on_c, 1, 61, 127
1, 23940, Note_off_c, 1, 61, 0
1, 23957, Note_off_c, 1, 79, 0
1, 23959, Note_on_c, 1, 75, 127
1, 23972, Note_off_c, 1, 75, 0
1, 23974, Note_on_c, 1, 79, 127
1, 23974, Note_on_c, 1, 56, 127
1, 23987, Note_off_c, 1, 79, 0
1, 23989, Note_on_c, 1, 80, 127
1, 24000, Note_off_c, 1, 56, 0
1, 24002, Note_off_c, 1, 80, 0
1, 24004, Note_on_c, 1, 55, 127
1, 24004, Note_on_c, 1, 82, 127
1, 24030, Note_off_c, 1, 55, 0
1, 24034, Note_on_c, 1, 58, 127
1, 24060, Note_off_c, 1, 58, 0
1, 24077, Note_off_c, 1, 82, 0
1, 24079, Note_on_c, 1, 75, 127
1, 24092, Note_off_c, 1, 75, 0
1, 24094, Note_on_c, 1, 82, 127
1, 24094, Note_on_c, 1, 53, 127
1, 24107, Note_off_c, 1, 82, 0
1, 24109, Note_on_c, 1, 84, 127
1, 24120, Note_off_c, 1, 53, 0
1, 24122, Note_off_c, 1, 84, 0
1, 24124, Note_on_c, 1, 85, 127
1, 24124, Note_on_c, 1, 51, 127
1, 24150, Note_off_c, 1, 85, 0
1, 24154, Note_on_c, 1, 84, 127
1, 24180, Note_off_c, 1, 84, 0
1, 24184, Note_on_c, 1, 82, 127
1, 24197, Note_off_c, 1, 51, 0
1, 24199, Note_on_c, 1, 58, 127
1, 24210, Note_off_c, 1, 82, 0
1, 24212, Note_off_c, 1, 58, 0
1, 24214, Note_on_c, 1, 60, 127
1, 24214, Note_on_c, 1, 80, 127
1, 24227, Note_off_c, 1, 60, 0
1, 24229, Note_on_c, 1, 61, 127
1, 24240, Note_off_c, 1, 80, 0
1, 24242, Note_off_c, 1, 61, 0
1, 24244, Note_on_c, 1, 79, 127
1, 24244, Note_on_c, 1, 63, 127
1, 24270, Note_off_c, 1, 79, 0
1, 24274, Note_on_c, 1, 82, 127
1, 24300, Note_off_c, 1, 82, 0
1, 24317, Note_off_c, 1, 63, 0
1, 24319, Note_on_c, 1, 62, 127
1, 24332, Note_off_c, 1, 62, 0
1, 24334, Note_on_c, 1, 63, 127
1, 24334, Note_on_c, 1, 77, 127
1, 24347, Note_off_c, 1, 63, 0
1, 24349, Note_on_c, 1, 65, 127
1, 24360, Note_off_c, 1, 77, 0
1, 24362, Note_off_c, 1, 65, 0
1, 24364, Note_on_c, 1, 75, 127
1, 24364, Note_on_c, 1, 67, 127
1, 24390, Note_off_c, 1, 75, 0
1, 24394, Note_on_c, 1, 82, 127
1, 24420, Note_off_c, 1, 82, 0
1, 24437, Note_off_c, 1, 67, 0
1, 24439, Note_on_c, 1, 63, 127
1, 24452, Note_off_c, 1, 63, 0
1, 24454, Note_on_c, 1, 65, 127
1, 24454, Note_on_c, 1, 73, 127
1, 24467, Note_off_c, 1, 65, 0
1, 24469, Note_on_c, 1, 67, 127
1, 24480, Note_off_c, 1, 73, 0
1, 24482, Note_off_c, 1, 67, 0
1, 24484, Note_on_c, 1, 68, 127
1, 24484, Note_on_c, 1, 72, 127
1, 24510, Note_off_c, 1, 68, 0
1, 24514, Note_on_c, 1, 65, 127
1, 24540, Note_off_c, 1, 65, 0
1, 24544, Note_on_c, 1, 63, 127
1, 24557, Note_off_c, 1, 72, 0
1, 24559, Note_on_c, 1, 73, 127
1, 24570, Note_off_c, 1, 63, 0
1, 24572, Note_off_c, 1, 73, 0
1, 24574, Note_on_c, 1, 75, 127
1, 24574, Note_on_c, 1, 61, 127
1, 24587, Note_off_c, 1, 75, 0
1, 24589, Note_on_c, 1, 77, 127
1, 24600, Note_off_c, 1, 61, 0
1, 24602, Note_off_c, 1, 77, 0
1, 24604, Note_on_c, 1, 60, 127
1, 24604, Note_on_c, 1, 78, 127
1, 24630, Note_off_c, 1, 60, 0
1, 24634, Note_on_c, 1, 63, 127
1, 24660, Note_off_c, 1, 63, 0
1, 24682, Note_off_c, 1, 78, 0
1, 24694, Note_on_c, 1, 58, 127
1, 24694, Note_on_c, 1, 68, 127
1, 24720, Note_off_c, 1, 58, 0
1, 24724, Note_on_c, 1, 56, 127
1, 24724, Note_on_c, 1, 75, 127
1, 24724, Note_on_c, 1, 78, 127
1, 24724, Note_on_c, 1, 72, 127
1, 24750, Note_off_c, 1, 56, 0
1, 24754, Note_on_c, 1, 60, 127
1, 24767, Note_off_c, 1, 60, 0
1, 24799, Note_on_c, 1, 54, 127
1, 24812, Note_off_c, 1, 54, 0
1, 24814, Note_on_c, 1, 53, 127
1, 24827, Note_off_c, 1, 53, 0
1, 24829, Note_on_c, 1, 51, 127
1, 24842, Note_off_c, 1, 51, 0
1, 24844, Note_on_c, 1, 49, 127
1, 24870, Note_off_c, 1, 68, 0
1, 24870, Note_off_c, 1, 75, 0
1, 24870, Note_off_c, 1, 78, 0
1, 24870, Note_off_c, 1, 72, 0
1, 24904, Note_on_c, 1, 77, 127
1, 24917, Note_off_c, 1, 49, 0
1, 24930, Note_off_c, 1, 77, 0
1, 24934, Note_on_c, 1, 55, 127
1, 24934, Note_on_c, 1, 75, 127
1, 24947, Note_off_c, 1, 55, 0
1, 24949, Note_on_c, 1, 56, 127
1, 24960, Note_off_c, 1, 75, 0
1, 24962, Note_off_c, 1, 56, 0
1, 24964, Note_on_c, 1, 73, 127
1, 24964, Note_on_c, 1, 58, 127
1, 24990, Note_off_c, 1, 73, 0
1, 24994, Note_on_c, 1, 77, 127
1, 25020, Note_off_c, 1, 77, 0
1, 25037, Note_off_c, 1, 58, 0
1, 25039, Note_on_c, 1, 56, 127
1, 25052, Note_off_c, 1, 56, 0
1, 25054, Note_on_c, 1, 58, 127
1, 25054, Note_on_c, 1, 72, 127
1, 25067, Note_off_c, 1, 58, 0
1, 25069, Note_on_c, 1, 60, 127
1, 25080, Note_off_c, 1, 72, 0
1, 25082, Note_off_c, 1, 60, 0
1, 25084, Note_on_c, 1, 70, 127
1, 25084, Note_on_c, 1, 61, 127
1, 25110, Note_off_c, 1, 70, 0
1, 25114, Note_on_c, 1, 77, 127
1, 25140, Note_off_c, 1, 77, 0
1, 25162, Note_off_c, 1, 61, 0
1, 25174, Note_on_c, 1, 60, 127
1, 25174, Note_on_c, 1, 68, 127
1, 25200, Note_off_c, 1, 60, 0
1, 25200, Note_off_c, 1, 68, 0
1, 25204, Note_on_c, 1, 67, 127
1, 25204, Note_on_c, 1, 58, 127
1, 25230, Note_off_c, 1, 67, 0
1, 25234, Note_on_c, 1, 77, 127
1, 25260, Note_off_c, 1, 77, 0
1, 25264, Note_on_c, 1, 75, 127
1, 25277, Note_off_c, 1, 58, 0
1, 25279, Note_on_c, 1, 51, 127
1, 25290, Note_off_c, 1, 75, 0
1, 25292, Note_off_c, 1, 51, 0
1, 25294, Note_on_c, 1, 53, 127
1, 25294, Note_on_c, 1, 73, 127
1, 25307, Note_off_c, 1, 53, 0
1, 25309, Note_on_c, 1, 55, 127
1, 25320, Note_off_c, 1, 73, 0
1, 25322, Note_off_c, 1, 55, 0
1, 25324, Note_on_c, 1, 72, 127
1, 25324, Note_on_c, 1, 56, 127
1, 25350, Note_off_c, 1, 72, 0
1, 25354, Note_on_c, 1, 75, 127
1, 25380, Note_off_c, 1, 75, 0
1, 25397, Note_off_c, 1, 56, 0
1, 25399, Note_on_c, 1, 55, 127
1, 25412, Note_off_c, 1, 55, 0
1, 25414, Note_on_c, 1, 56, 127
1, 25414, Note_on_c, 1, 70, 127
1, 25427, Note_off_c, 1, 56, 0
1, 25429, Note_on_c, 1, 58, 127
1, 25440, Note_off_c, 1, 70, 0
1, 25442, Note_off_c, 1, 58, 0
1, 25444, Note_on_c, 1, 68, 127
1, 25444, Note_on_c, 1, 60, 127
1, 25470, Note_off_c, 1, 68, 0
1, 25474, Note_on_c, 1, 75, 127
1, 25500, Note_off_c, 1, 75, 0
1, 25522, Note_off_c, 1, 60, 0
1, 25534, Note_on_c, 1, 58, 127
1, 25534, Note_on_c, 1, 67, 127
1, 25560, Note_off_c, 1, 58, 0
1, 25560, Note_off_c, 1, 67, 0
1, 25564, Note_on_c, 1, 65, 127
1, 25564, Note_on_c, 1, 56, 127
1, 25590, Note_off_c, 1, 65, 0
1, 25594, Note_on_c, 1, 75, 127
1, 25620, Note_off_c, 1, 75, 0
1, 25624, Note_on_c, 1, 73, 127
1, 25637, Note_off_c, 1, 56, 0
1, 25639, Note_on_c, 1, 44, 127
1, 25650, Note_off_c, 1, 73, 0
1, 25652, Note_off_c, 1, 44, 0
1, 25654, Note_on_c, 1, 46, 127
1, 25654, Note_on_c, 1, 72, 127
1, 25667, Note_off_c, 1, 46, 0
1, 25669, Note_on_c, 1, 48, 127
1, 25680, Note_off_c, 1, 72, 0
1, 25682, Note_off_c, 1, 48, 0
1, 25684, Note_on_c, 1, 70, 127
1, 25684, Note_on_c, 1, 49, 127
1, 25710, Note_off_c, 1, 70, 0
1, 25714, Note_on_c, 1, 73, 127
1, 25740, Note_off_c, 1, 73, 0
1, 25757, Note_off_c, 1, 49, 0
1, 25759, Note_on_c, 1, 48, 127
1, 25772, Note_off_c, 1, 48, 0
1, 25774, Note_on_c, 1, 49, 127
1, 25774, Note_on_c, 1, 68, 127
1, 25787, Note_off_c, 1, 49, 0
1, 25789, Note_on_c, 1, 51, 127
1, 25800, Note_off_c, 1, 68, 0
1, 25802, Note_off_c, 1, 51, 0
1, 25804, Note_on_c, 1, 67, 127
1, 25804, Note_on_c, 1, 52, 127
1, 25830, Note_off_c, 1, 67, 0
1, 25834, Note_on_c, 1, 73, 127
1, 25860, Note_off_c, 1, 73, 0
1, 25882, Note_off_c, 1, 52, 0
1, 25894, Note_on_c, 1, 44, 127
1, 25894, Note_on_c, 1, 65, 127
1, 25920, Note_off_c, 1, 44, 0
1, 25920, Note_off_c, 1, 65, 0
1, 25924, Note_on_c, 1, 63, 127
1, 25924, Note_on_c, 1, 43, 127
1, 25950, Note_off_c, 1, 63, 0
1, 25954, Note_on_c, 1, 73, 127
1, 25980, Note_off_c, 1, 73, 0
1, 25984, Note_on_c, 1, 71, 127
1, 25997, Note_off_c, 1, 43, 0
1, 25999, Note_on_c, 1, 39, 127
1, 26010, Note_off_c, 1, 71, 0
1, 26012, Note_off_c, 1, 39, 0
1, 26014, Note_on_c, 1, 44, 127
1, 26014, Note_on_c, 1, 70, 127
1, 26027, Note_off_c, 1, 44, 0
1, 26029, Note_on_c, 1, 46, 127
1, 26040, Note_off_c, 1, 70, 0
1, 26042, Note_off_c, 1, 46, 0
1, 26044, Note_on_c, 1, 68, 127
1, 26044, Note_on_c, 1, 47, 127
1, 26070, Note_off_c, 1, 68, 0
1, 26074, Note_on_c, 1, 71, 127
1, 26100, Note_off_c, 1, 71, 0
1, 26117, Note_off_c, 1, 47, 0
1, 26119, Note_on_c, 1, 46, 127
1, 26132, Note_off_c, 1, 46, 0
1, 26134, Note_on_c, 1, 44, 127
1, 26134, Note_on_c, 1, 66, 127
1, 26147, Note_off_c, 1, 44, 0
1, 26149, Note_on_c, 1, 42, 127
1, 26160, Note_off_c, 1, 66, 0
1, 26162, Note_off_c, 1, 42, 0
1, 26164, Note_on_c, 1, 64, 127
1, 26164, Note_on_c, 1, 44, 127
1, 26190, Note_off_c, 1, 64, 0
1, 26194, Note_on_c, 1, 71, 127
1, 26220, Note_off_c, 1, 71, 0
1, 26237, Note_off_c, 1, 44, 0
1, 26239, Note_on_c, 1, 42, 127
1, 26252, Note_off_c, 1, 42, 0
1, 26254, Note_on_c, 1, 40, 127
1, 26254, Note_on_c, 1, 63, 127
1, 26267, Note_off_c, 1, 40, 0
1, 26269, Note_on_c, 1, 39, 127
1, 26280, Note_off_c, 1, 63, 0
1, 26282, Note_off_c, 1, 39, 0
1, 26284, Note_on_c, 1, 61, 127
1, 26284, Note_on_c, 1, 40, 127
1, 26310, Note_off_c, 1, 61, 0
1, 26314, Note_on_c, 1, 71, 127
1, 26340, Note_off_c, 1, 71, 0
1, 26344, Note_on_c, 1, 69, 127
1, 26357, Note_off_c, 1, 40, 0
1, 26359, Note_on_c, 1, 44, 127
1, 26370, Note_off_c, 1, 69, 0
1, 26372, Note_off_c, 1, 44, 0
1, 26374, Note_on_c, 1, 45, 127
1, 26374, Note_on_c, 1, 68, 127
1, 26387, Note_off_c, 1, 45, 0
1, 26389, Note_on_c, 1, 47, 127
1, 26400, Note_off_c, 1, 68, 0
1, 26402, Note_off_c, 1, 47, 0
1, 26404, Note_on_c, 1, 69, 127
1, 26404, Note_on_c, 1, 49, 127
1, 26417, Note_off_c, 1, 69, 0
1, 26419, Note_on_c, 1, 64, 127
1, 26432, Note_off_c, 1, 64, 0
1, 26434, Note_on_c, 1, 66, 127
1, 26447, Note_off_c, 1, 66, 0
1, 26449, Note_on_c, 1, 68, 127
1, 26462, Note_off_c, 1, 68, 0
1, 26479, Note_on_c, 1, 71, 127
1, 26482, Note_off_c, 1, 49, 0
1, 26492, Note_off_c, 1, 71, 0
1, 26494, Note_on_c, 1, 73, 127
1, 26494, Note_on_c, 1, 37, 127
1, 26507, Note_off_c, 1, 73, 0
1, 26509, Note_on_c, 1, 74, 127
1, 26520, Note_off_c, 1, 37, 0
1, 26522, Note_off_c, 1, 74, 0
1, 26524, Note_on_c, 1, 76, 127
1, 26524, Note_on_c, 1, 49, 127
1, 26550, Note_off_c, 1, 76, 0
1, 26554, Note_on_c, 1, 73, 127
1, 26580, Note_off_c, 1, 73, 0
1, 26584, Note_on_c, 1, 69, 127
1, 26602, Note_off_c, 1, 49, 0
1, 26610, Note_off_c, 1, 69, 0
1, 26614, Note_on_c, 1, 49, 127
1, 26614, Note_on_c, 1, 68, 127
1, 26640, Note_off_c, 1, 49, 0
1, 26640, Note_off_c, 1, 68, 0
1, 26644, Note_on_c, 1, 49, 127
1, 26644, Note_on_c, 1, 67, 127
1, 26644, Note_on_c, 1, 58, 127
1, 26644, Note_on_c, 1, 63, 127
1, 26749, Note_off_c, 1, 49, 0
1, 26749, Note_off_c, 1, 67, 0
1, 26749, Note_off_c, 1, 58, 0
1, 26749, Note_off_c, 1, 63, 0
1, 26854, Note_on_c, 1, 46, 127
1, 26854, Note_on_c, 1, 77, 127
1, 26854, Note_on_c, 1, 67, 127
1, 26854, Note_on_c, 1, 73, 127
1, 26880, Note_off_c, 1, 46, 0
1, 26880, Note_off_c, 1, 77, 0
1, 26880, Note_off_c, 1, 67, 0
1, 26880, Note_off_c, 1, 73, 0
1, 26884, Note_on_c, 1, 48, 127
1, 26884, Note_on_c, 1, 75, 127
1, 26884, Note_on_c, 1, 68, 127
1, 26884, Note_on_c, 1, 72, 127
1, 26989, Note_off_c, 1, 48, 0
1, 26989, Note_off_c, 1, 75, 0
1, 26989, Note_off_c, 1, 68, 0
1, 26989, Note_off_c, 1, 72, 0
1, 27094, Note_on_c, 1, 50, 127
1, 27094, Note_on_c, 1, 65, 127
1, 27094, Note_on_c, 1, 59, 127
1, 27120, Note_off_c, 1, 50, 0
1, 27120, Note_off_c, 1, 65, 0
1, 27120, Note_off_c, 1, 59, 0
1, 27124, Note_on_c, 1, 58, 127
1, 27124, Note_on_c, 1, 68, 127
1, 27124, Note_on_c, 1, 51, 127
1, 27124, Note_on_c, 1, 63, 127
1, 27202, Note_off_c, 1, 58, 0
1, 27214, Note_on_c, 1, 61, 127
1, 27227, Note_off_c, 1, 61, 0
1, 27229, Note_off_c, 1, 68, 0
1, 27229, Note_on_c, 1, 60, 127
1, 27242, Note_off_c, 1, 60, 0
1, 27244, Note_on_c, 1, 67, 127
1, 27322, Note_off_c, 1, 67, 0
1, 27349, Note_off_c, 1, 51, 0
1, 27349, Note_off_c, 1, 63, 0
1, 27364, Note_on_c, 1, 44, 127
1, 27364, Note_on_c, 1, 63, 127
1, 27364, Note_on_c, 1, 68, 127
1, 27364, Note_on_c, 1, 60, 127
1, 27469, Note_off_c, 1, 44, 0
1, 27469, Note_off_c, 1, 63, 0
1, 27469, Note_off_c, 1, 68, 0
1, 27469, Note_off_c, 1, 60, 0
1, 27469, End_track
0, 0, End_of_file