0, 0, Header, 1, 1, 480
1, 0, Start_track
1, 0, Title_t, "Test"
1, 0, Tempo, 500000
1, 0, Instrument_name_t, "Church Organ"
1, 179, Note_on_c, 1, 61, 127
1, 231, Note_off_c, 1, 61, 0
1, 239, Note_on_c, 1, 57, 127
1, 291, Note_off_c, 1, 57, 0
1, 299, Note_on_c, 1, 54, 127
1, 351, Note_off_c, 1, 54, 0
1, 359, Note_on_c, 1, 62, 127
1, 531, Note_off_c, 1, 62, 0
1, 539, Note_on_c, 1, 61, 127
1, 565, Note_off_c, 1, 61, 0
1, 569, Note_on_c, 1, 59, 127
1, 595, Note_off_c, 1, 59, 0
1, 599, Note_on_c, 1, 61, 127
1, 771, Note_off_c, 1, 61, 0
1, 779, Note_on_c, 1, 66, 127
1, 831, Note_off_c, 1, 66, 0
1, 839, Note_on_c, 1, 59, 127
1, 1011, Note_off_c, 1, 59, 0
1, 1019, Note_on_c, 1, 57, 127
1, 1045, Note_off_c, 1, 57, 0
1, 1049, Note_on_c, 1, 56, 127
1, 1075, Note_off_c, 1, 56, 0
1, 1079, Note_on_c, 1, 57, 127
1, 1131, Note_off_c, 1, 57, 0
1, 1139, Note_on_c, 1, 54, 127
1, 1191, Note_off_c, 1, 54, 0
1, 1199, Note_on_c, 1, 57, 127
1, 1235, Note_on_c, 1, 56, 127
1, 1240, Note_off_c, 1, 57, 0
1, 1254, Note_off_c, 1, 56, 0
1, 1365, Note_on_c, 1, 57, 127
1, 1375, Note_on_c, 1, 56, 127
1, 1384, Note_off_c, 1, 57, 0
1, 1394, Note_off_c, 1, 56, 0
1, 1405, Note_on_c, 1, 54, 127
1, 1424, Note_off_c, 1, 54, 0
1, 1499, Note_on_c, 1, 56, 127
1, 1551, Note_off_c, 1, 56, 0
1, 1559, Note_on_c, 1, 57, 127
1, 1611, Note_off_c, 1, 57, 0
1, 1619, Note_on_c, 1, 59, 127
1, 1619, Note_on_c, 1, 66, 127
1, 1671, Note_off_c, 1, 59, 0
1, 1671, Note_off_c, 1, 66, 0
1, 1679, Note_on_c, 1, 64, 127
1, 1731, Note_off_c, 1, 64, 0
1, 1739, Note_on_c, 1, 61, 127
1, 1791, Note_off_c, 1, 61, 0
1, 1799, Note_on_c, 1, 69, 127
1, 1859, Note_on_c, 1, 63, 127
1, 1911, Note_off_c, 1, 63, 0
1, 1919, Note_on_c, 1, 64, 127
1, 1971, Note_off_c, 1, 69, 0
1, 1979, Note_on_c, 1, 68, 127
1, 2005, Note_off_c, 1, 68, 0
1, 2009, Note_on_c, 1, 66, 127
1, 2024, Note_off_c, 1, 64, 0
1, 2035, Note_off_c, 1, 66, 0
1, 2039, Note_on_c, 1, 68, 127
1, 2099, Note_on_c, 1, 64, 127
1, 2151, Note_off_c, 1, 64, 0
1, 2159, Note_on_c, 1, 58, 127
1, 2211, Note_off_c, 1, 68, 0
1, 2219, Note_on_c, 1, 73, 127
1, 2264, Note_off_c, 1, 58, 0
1, 2271, Note_off_c, 1, 73, 0
1, 2279, Note_on_c, 1, 66, 127
1, 2339, Note_on_c, 1, 60, 127
1, 2391, Note_off_c, 1, 60, 0
1, 2399, Note_on_c, 1, 61, 127
1, 2451, Note_off_c, 1, 66, 0
1, 2459, Note_on_c, 1, 64, 127
1, 2485, Note_off_c, 1, 64, 0
1, 2489, Note_on_c, 1, 63, 127
1, 2504, Note_off_c, 1, 61, 0
1, 2515, Note_off_c, 1, 63, 0
1, 2519, Note_on_c, 1, 64, 127
1, 2571, Note_off_c, 1, 64, 0
1, 2579, Note_on_c, 1, 61, 127
1, 2639, Note_on_c, 1, 64, 127
1, 2665, Note_on_c, 1, 63, 127
1, 2673, Note_off_c, 1, 64, 0
1, 2684, Note_off_c, 1, 63, 0
1, 2691, Note_off_c, 1, 61, 0
1, 2699, Note_on_c, 1, 60, 127
1, 2725, Note_off_c, 1, 60, 0
1, 2729, Note_on_c, 1, 58, 127
1, 2755, Note_off_c, 1, 58, 0
1, 2819, Note_on_c, 1, 56, 127
1, 2871, Note_off_c, 1, 56, 0
1, 2939, Note_on_c, 1, 73, 127
1, 2991, Note_off_c, 1, 73, 0
1, 2999, Note_on_c, 1, 66, 127
1, 3059, Note_on_c, 1, 57, 127
1, 3111, Note_off_c, 1, 57, 0
1, 3119, Note_on_c, 1, 62, 127
1, 3171, Note_off_c, 1, 66, 0
1, 3179, Note_on_c, 1, 71, 127
1, 3231, Note_off_c, 1, 71, 0
1, 3284, Note_off_c, 1, 62, 0
1, 3419, Note_on_c, 1, 69, 127
1, 3479, Note_on_c, 1, 59, 127
1, 3531, Note_off_c, 1, 69, 0
1, 3539, Note_on_c, 1, 68, 127
1, 3584, Note_off_c, 1, 59, 0
1, 3651, Note_off_c, 1, 68, 0
1, 3779, Note_on_c, 1, 49, 127
1, 3779, Note_on_c, 1, 65, 127
1, 3831, Note_off_c, 1, 49, 0
1, 3831, Note_off_c, 1, 65, 0
1, 3839, Note_on_c, 1, 45, 127
1, 3839, Note_on_c, 1, 54, 127
1, 3839, Note_on_c, 1, 66, 127
1, 3891, Note_off_c, 1, 45, 0
1, 3899, Note_on_c, 1, 42, 127
1, 3944, Note_off_c, 1, 54, 0
1, 3951, Note_off_c, 1, 42, 0
1, 3959, Note_on_c, 1, 50, 127
1, 4004, Note_off_c, 1, 66, 0
1, 4019, Note_on_c, 1, 71, 127
1, 4071, Note_off_c, 1, 71, 0
1, 4079, Note_on_c, 1, 68, 127
1, 4131, Note_off_c, 1, 50, 0
1, 4131, Note_off_c, 1, 68, 0
1, 4139, Note_on_c, 1, 49, 127
1, 4139, Note_on_c, 1, 64, 127
1, 4165, Note_off_c, 1, 49, 0
1, 4169, Note_on_c, 1, 47, 127
1, 4191, Note_off_c, 1, 64, 0
1, 4195, Note_off_c, 1, 47, 0
1, 4199, Note_on_c, 1, 52, 127
1, 4199, Note_on_c, 1, 49, 127
1, 4259, Note_on_c, 1, 69, 127
1, 4304, Note_off_c, 1, 52, 0
1, 4311, Note_off_c, 1, 69, 0
1, 4319, Note_on_c, 1, 66, 127
1, 4319, Note_on_c, 1, 57, 127
1, 4371, Note_off_c, 1, 49, 0
1, 4371, Note_off_c, 1, 66, 0
1, 4379, Note_on_c, 1, 54, 127
1, 4379, Note_on_c, 1, 63, 127
1, 4424, Note_off_c, 1, 57, 0
1, 4431, Note_off_c, 1, 54, 0
1, 4431, Note_off_c, 1, 63, 0
1, 4439, Note_on_c, 1, 62, 127
1, 4439, Note_on_c, 1, 47, 127
1, 4491, Note_off_c, 1, 62, 0
1, 4499, Note_on_c, 1, 59, 127
1, 4499, Note_on_c, 1, 68, 127
1, 4551, Note_off_c, 1, 59, 0
1, 4551, Note_off_c, 1, 68, 0
1, 4559, Note_on_c, 1, 65, 127
1, 4559, Note_on_c, 1, 56, 127
1, 4611, Note_off_c, 1, 47, 0
1, 4611, Note_off_c, 1, 65, 0
1, 4619, Note_on_c, 1, 45, 127
1, 4619, Note_on_c, 1, 61, 127
1, 4645, Note_off_c, 1, 45, 0
1, 4649, Note_on_c, 1, 44, 127
1, 4664, Note_off_c, 1, 56, 0
1, 4671, Note_off_c, 1, 61, 0
1, 4675, Note_off_c, 1, 44, 0
1, 4679, Note_on_c, 1, 45, 127
1, 4679, Note_on_c, 1, 66, 127
1, 4731, Note_off_c, 1, 45, 0
1, 4739, Note_on_c, 1, 42, 127
1, 4739, Note_on_c, 1, 57, 127
1, 4791, Note_off_c, 1, 42, 0
1, 4791, Note_off_c, 1, 57, 0
1, 4799, Note_on_c, 1, 59, 127
1, 4830, Note_on_c, 1, 44, 127
1, 4849, Note_off_c, 1, 44, 0
1, 4851, Note_off_c, 1, 59, 0
1, 4859, Note_on_c, 1, 62, 127
1, 4904, Note_off_c, 1, 66, 0
1, 4911, Note_off_c, 1, 62, 0
1, 4919, Note_on_c, 1, 65, 127
1, 4979, Note_on_c, 1, 56, 127
1, 5024, Note_off_c, 1, 65, 0
1, 5031, Note_off_c, 1, 56, 0
1, 5099, Note_on_c, 1, 61, 127
1, 5099, Note_on_c, 1, 69, 127
1, 5151, Note_off_c, 1, 61, 0
1, 5151, Note_off_c, 1, 69, 0
1, 5159, Note_on_c, 1, 71, 127
1, 5159, Note_on_c, 1, 50, 127
1, 5211, Note_off_c, 1, 71, 0
1, 5219, Note_on_c, 1, 54, 127
1, 5219, Note_on_c, 1, 74, 127
1, 5271, Note_off_c, 1, 54, 0
1, 5271, Note_off_c, 1, 74, 0
1, 5279, Note_on_c, 1, 56, 127
1, 5331, Note_off_c, 1, 56, 0
1, 5339, Note_on_c, 1, 59, 127
1, 5339, Note_on_c, 1, 68, 127
1, 5384, Note_off_c, 1, 50, 0
1, 5391, Note_off_c, 1, 59, 0
1, 5391, Note_off_c, 1, 68, 0
1, 5399, Note_on_c, 1, 69, 127
1, 5399, Note_on_c, 1, 49, 127
1, 5451, Note_off_c, 1, 69, 0
1, 5459, Note_on_c, 1, 57, 127
1, 5459, Note_on_c, 1, 73, 127
1, 5504, Note_off_c, 1, 49, 0
1, 5511, Note_off_c, 1, 57, 0
1, 5511, Note_off_c, 1, 73, 0
1, 5519, Note_on_c, 1, 47, 127
1, 5519, Note_on_c, 1, 62, 127
1, 5579, Note_on_c, 1, 66, 127
1, 5605, Note_off_c, 1, 66, 0
1, 5609, Note_on_c, 1, 68, 127
1, 5624, Note_off_c, 1, 47, 0
1, 5624, Note_off_c, 1, 62, 0
1, 5635, Note_off_c, 1, 68, 0
1, 5639, Note_on_c, 1, 69, 127
1, 5639, Note_on_c, 1, 59, 127
1, 5655, Note_on_c, 1, 68, 127
1, 5663, Note_off_c, 1, 69, 0
1, 5669, Note_off_c, 1, 68, 0
1, 5699, Note_on_c, 1, 52, 127
1, 5729, Note_on_c, 1, 66, 127
1, 5742, Note_off_c, 1, 66, 0
1, 5744, Note_off_c, 1, 59, 0
1, 5751, Note_off_c, 1, 52, 0
1, 5759, Note_on_c, 1, 49, 127
1, 5759, Note_on_c, 1, 64, 127
1, 5759, Note_on_c, 1, 69, 127
1, 5811, Note_off_c, 1, 49, 0
1, 5811, Note_off_c, 1, 64, 0
1, 5819, Note_on_c, 1, 45, 127
1, 5819, Note_on_c, 1, 61, 127
1, 5864, Note_off_c, 1, 69, 0
1, 5871, Note_off_c, 1, 45, 0
1, 5871, Note_off_c, 1, 61, 0
1, 5879, Note_on_c, 1, 63, 127
1, 5879, Note_on_c, 1, 54, 127
1, 5931, Note_off_c, 1, 63, 0
1, 5939, Note_on_c, 1, 66, 127
1, 5939, Note_on_c, 1, 75, 127
1, 5991, Note_off_c, 1, 66, 0
1, 5991, Note_off_c, 1, 75, 0
1, 5999, Note_on_c, 1, 72, 127
1, 6051, Note_off_c, 1, 72, 0
1, 6059, Note_on_c, 1, 60, 127
1, 6059, Note_on_c, 1, 68, 127
1, 6104, Note_off_c, 1, 54, 0
1, 6111, Note_off_c, 1, 60, 0
1, 6111, Note_off_c, 1, 68, 0
1, 6119, Note_on_c, 1, 61, 127
1, 6119, Note_on_c, 1, 52, 127
1, 6171, Note_off_c, 1, 61, 0
1, 6179, Note_on_c, 1, 64, 127
1, 6179, Note_on_c, 1, 73, 127
1, 6224, Note_off_c, 1, 52, 0
1, 6231, Note_off_c, 1, 64, 0
1, 6231, Note_off_c, 1, 73, 0
1, 6239, Note_on_c, 1, 51, 127
1, 6239, Note_on_c, 1, 78, 127
1, 6299, Note_on_c, 1, 58, 127
1, 6325, Note_off_c, 1, 58, 0
1, 6329, Note_on_c, 1, 60, 127
1, 6344, Note_off_c, 1, 51, 0
1, 6344, Note_off_c, 1, 78, 0
1, 6355, Note_off_c, 1, 60, 0
1, 6359, Note_on_c, 1, 61, 127
1, 6359, Note_on_c, 1, 75, 127
1, 6380, Note_on_c, 1, 60, 127
1, 6388, Note_off_c, 1, 61, 0
1, 6399, Note_off_c, 1, 60, 0
1, 6419, Note_on_c, 1, 56, 127
1, 6455, Note_on_c, 1, 58, 127
1, 6464, Note_off_c, 1, 75, 0
1, 6468, Note_off_c, 1, 58, 0
1, 6471, Note_off_c, 1, 56, 0
1, 6479, Note_on_c, 1, 80, 127
1, 6479, Note_on_c, 1, 52, 127
1, 6531, Note_off_c, 1, 80, 0
1, 6531, Note_off_c, 1, 52, 0
1, 6539, Note_on_c, 1, 49, 127
1, 6539, Note_on_c, 1, 76, 127
1, 6591, Note_off_c, 1, 49, 0
1, 6591, Note_off_c, 1, 76, 0
1, 6599, Note_on_c, 1, 78, 127
1, 6599, Note_on_c, 1, 57, 127
1, 6651, Note_off_c, 1, 78, 0
1, 6659, Note_on_c, 1, 66, 127
1, 6659, Note_on_c, 1, 81, 127
1, 6711, Note_off_c, 1, 66, 0
1, 6711, Note_off_c, 1, 81, 0
1, 6719, Note_on_c, 1, 62, 127
1, 6771, Note_off_c, 1, 62, 0
1, 6779, Note_on_c, 1, 59, 127
1, 6779, Note_on_c, 1, 74, 127
1, 6824, Note_off_c, 1, 57, 0
1, 6831, Note_off_c, 1, 59, 0
1, 6831, Note_off_c, 1, 74, 0
1, 6839, Note_on_c, 1, 76, 127
1, 6839, Note_on_c, 1, 56, 127
1, 6891, Note_off_c, 1, 76, 0
1, 6899, Note_on_c, 1, 64, 127
1, 6899, Note_on_c, 1, 80, 127
1, 6951, Note_off_c, 1, 64, 0
1, 6951, Note_off_c, 1, 80, 0
1, 6959, Note_on_c, 1, 61, 127
1, 7011, Note_off_c, 1, 56, 0
1, 7011, Note_off_c, 1, 61, 0
1, 7019, Note_on_c, 1, 49, 127
1, 7019, Note_on_c, 1, 57, 127
1, 7019, Note_on_c, 1, 73, 127
1, 7071, Note_off_c, 1, 49, 0
1, 7071, Note_off_c, 1, 57, 0
1, 7071, Note_off_c, 1, 73, 0
1, 7079, Note_on_c, 1, 71, 127
1, 7079, Note_on_c, 1, 54, 127
1, 7131, Note_off_c, 1, 71, 0
1, 7139, Note_on_c, 1, 61, 127
1, 7139, Note_on_c, 1, 69, 127
1, 7191, Note_off_c, 1, 61, 0
1, 7191, Note_off_c, 1, 69, 0
1, 7199, Note_on_c, 1, 59, 127
1, 7199, Note_on_c, 1, 68, 127
1, 7251, Note_off_c, 1, 59, 0
1, 7259, Note_on_c, 1, 57, 127
1, 7304, Note_off_c, 1, 54, 0
1, 7304, Note_off_c, 1, 68, 0
1, 7311, Note_off_c, 1, 57, 0
1, 7319, Note_on_c, 1, 53, 127
1, 7340, Note_on_c, 1, 56, 127
1, 7345, Note_on_c, 1, 57, 127
1, 7354, Note_off_c, 1, 56, 0
1, 7359, Note_off_c, 1, 57, 0
1, 7379, Note_on_c, 1, 73, 127
1, 7424, Note_off_c, 1, 53, 0
1, 7431, Note_off_c, 1, 73, 0
1, 7439, Note_on_c, 1, 54, 127
1, 7439, Note_on_c, 1, 69, 127
1, 7491, Note_off_c, 1, 69, 0
1, 7499, Note_on_c, 1, 66, 127
1, 7544, Note_off_c, 1, 54, 0
1, 7551, Note_off_c, 1, 66, 0
1, 7559, Note_on_c, 1, 59, 127
1, 7559, Note_on_c, 1, 74, 127
1, 7611, Note_off_c, 1, 59, 0
1, 7619, Note_on_c, 1, 62, 127
1, 7619, Note_on_c, 1, 71, 127
1, 7671, Note_off_c, 1, 62, 0
1, 7671, Note_off_c, 1, 71, 0
1, 7679, Note_on_c, 1, 56, 127
1, 7679, Note_on_c, 1, 64, 127
1, 7731, Note_off_c, 1, 74, 0
1, 7731, Note_off_c, 1, 56, 0
1, 7739, Note_on_c, 1, 73, 127
1, 7739, Note_on_c, 1, 52, 127
1, 7765, Note_off_c, 1, 73, 0
1, 7791, Note_off_c, 1, 52, 0
1, 7799, Note_on_c, 1, 57, 127
1, 7844, Note_off_c, 1, 64, 0
1, 7851, Note_off_c, 1, 57, 0
1, 7859, Note_on_c, 1, 61, 127
1, 7911, Note_off_c, 1, 61, 0
1, 7919, Note_on_c, 1, 54, 127
1, 7919, Note_on_c, 1, 69, 127
1, 7971, Note_off_c, 1, 54, 0
1, 7979, Note_on_c, 1, 51, 127
1, 7979, Note_on_c, 1, 78, 127
1, 8031, Note_off_c, 1, 51, 0
1, 8031, Note_off_c, 1, 78, 0
1, 8084, Note_off_c, 1, 69, 0
1, 8099, Note_on_c, 1, 68, 127
1, 8125, Note_off_c, 1, 68, 0
1, 8129, Note_on_c, 1, 66, 127
1, 8155, Note_off_c, 1, 66, 0
1, 8159, Note_on_c, 1, 53, 127
1, 8211, Note_off_c, 1, 53, 0
1, 8219, Note_on_c, 1, 69, 127
1, 8219, Note_on_c, 1, 49, 127
1, 8219, Note_on_c, 1, 65, 127
1, 8245, Note_off_c, 1, 69, 0
1, 8249, Note_on_c, 1, 68, 127
1, 8271, Note_off_c, 1, 49, 0
1, 8271, Note_off_c, 1, 65, 0
1, 8275, Note_off_c, 1, 68, 0
1, 8279, Note_on_c, 1, 54, 127
1, 8279, Note_on_c, 1, 69, 127
1, 8331, Note_off_c, 1, 54, 0
1, 8331, Note_off_c, 1, 69, 0
1, 8339, Note_on_c, 1, 57, 127
1, 8339, Note_on_c, 1, 66, 127
1, 8391, Note_off_c, 1, 57, 0
1, 8399, Note_on_c, 1, 59, 127
1, 8399, Note_on_c, 1, 68, 127
1, 8451, Note_off_c, 1, 66, 0
1, 8451, Note_off_c, 1, 59, 0
1, 8459, Note_on_c, 1, 64, 127
1, 8459, Note_on_c, 1, 56, 127
1, 8485, Note_off_c, 1, 64, 0
1, 8489, Note_on_c, 1, 63, 127
1, 8511, Note_off_c, 1, 56, 0
1, 8515, Note_off_c, 1, 63, 0
1, 8519, Note_on_c, 1, 61, 127
1, 8571, Note_off_c, 1, 61, 0
1, 8639, Note_off_c, 1, 68, 0
1, 8639, Note_on_c, 1, 58, 127
1, 8691, Note_off_c, 1, 58, 0
1, 8699, Note_on_c, 1, 62, 127
1, 8699, Note_on_c, 1, 54, 127
1, 8725, Note_off_c, 1, 62, 0
1, 8751, Note_off_c, 1, 54, 0
1, 8819, Note_on_c, 1, 71, 127
1, 8871, Note_off_c, 1, 71, 0
1, 8939, Note_on_c, 1, 52, 127
1, 8991, Note_off_c, 1, 52, 0
1, 8999, Note_on_c, 1, 54, 127
1, 8999, Note_on_c, 1, 69, 127
1, 8999, Note_on_c, 1, 61, 127
1, 9051, Note_off_c, 1, 54, 0
1, 9051, Note_off_c, 1, 69, 0
1, 9059, Note_on_c, 1, 57, 127
1, 9059, Note_on_c, 1, 73, 127
1, 9111, Note_off_c, 1, 57, 0
1, 9111, Note_off_c, 1, 73, 0
1, 9119, Note_on_c, 1, 50, 127
1, 9119, Note_on_c, 1, 66, 127
1, 9171, Note_off_c, 1, 61, 0
1, 9171, Note_off_c, 1, 50, 0
1, 9179, Note_on_c, 1, 47, 127
1, 9179, Note_on_c, 1, 62, 127
1, 9224, Note_off_c, 1, 66, 0
1, 9231, Note_off_c, 1, 47, 0
1, 9231, Note_off_c, 1, 62, 0
1, 9239, Note_on_c, 1, 52, 127
1, 9239, Note_on_c, 1, 59, 127
1, 9239, Note_on_c, 1, 68, 127
1, 9291, Note_off_c, 1, 52, 0
1, 9291, Note_off_c, 1, 59, 0
1, 9299, Note_on_c, 1, 40, 127
1, 9299, Note_on_c, 1, 64, 127
1, 9344, Note_off_c, 1, 68, 0
1, 9351, Note_off_c, 1, 40, 0
1, 9351, Note_off_c, 1, 64, 0
1, 9359, Note_on_c, 1, 45, 127
1, 9359, Note_on_c, 1, 61, 127
1, 9359, Note_on_c, 1, 69, 127
1, 9411, Note_off_c, 1, 45, 0
1, 9419, Note_on_c, 1, 57, 127
1, 9464, Note_off_c, 1, 61, 0
1, 9464, Note_off_c, 1, 69, 0
1, 9471, Note_off_c, 1, 57, 0
1, 9479, Note_on_c, 1, 56, 127
1, 9557, Note_off_c, 1, 56, 0
1, 9569, Note_on_c, 1, 54, 127
1, 9595, Note_off_c, 1, 54, 0
1, 9599, Note_on_c, 1, 53, 127
1, 9651, Note_off_c, 1, 53, 0
1, 9659, Note_on_c, 1, 49, 127
1, 9659, Note_on_c, 1, 61, 127
1, 9711, Note_off_c, 1, 49, 0
1, 9711, Note_off_c, 1, 61, 0
1, 9719, Note_on_c, 1, 59, 127
1, 9719, Note_on_c, 1, 54, 127
1, 9797, Note_off_c, 1, 59, 0
1, 9809, Note_on_c, 1, 57, 127
1, 9835, Note_off_c, 1, 57, 0
1, 9839, Note_on_c, 1, 56, 127
1, 9899, Note_on_c, 1, 74, 127
1, 9944, Note_off_c, 1, 54, 0
1, 9951, Note_off_c, 1, 74, 0
1, 9959, Note_on_c, 1, 53, 127
1, 9959, Note_on_c, 1, 73, 127
1, 10004, Note_off_c, 1, 56, 0
1, 10011, Note_off_c, 1, 53, 0
1, 10019, Note_on_c, 1, 61, 127
1, 10019, Note_on_c, 1, 52, 127
1, 10037, Note_off_c, 1, 73, 0
1, 10049, Note_on_c, 1, 71, 127
1, 10071, Note_off_c, 1, 61, 0
1, 10075, Note_off_c, 1, 71, 0
1, 10079, Note_on_c, 1, 70, 127
1, 10131, Note_off_c, 1, 52, 0
1, 10131, Note_off_c, 1, 70, 0
1, 10139, Note_on_c, 1, 50, 127
1, 10139, Note_on_c, 1, 66, 127
1, 10191, Note_off_c, 1, 50, 0
1, 10191, Note_off_c, 1, 66, 0
1, 10199, Note_on_c, 1, 49, 127
1, 10199, Note_on_c, 1, 64, 127
1, 10199, Note_on_c, 1, 71, 127
1, 10251, Note_off_c, 1, 49, 0
1, 10259, Note_on_c, 1, 47, 127
1, 10277, Note_off_c, 1, 64, 0
1, 10289, Note_on_c, 1, 62, 127
1, 10311, Note_off_c, 1, 47, 0
1, 10315, Note_off_c, 1, 62, 0
1, 10319, Note_on_c, 1, 52, 127
1, 10319, Note_on_c, 1, 61, 127
1, 10371, Note_off_c, 1, 52, 0
1, 10371, Note_off_c, 1, 61, 0
1, 10379, Note_on_c, 1, 67, 127
1, 10424, Note_off_c, 1, 71, 0
1, 10431, Note_off_c, 1, 67, 0
1, 10439, Note_on_c, 1, 54, 127
1, 10439, Note_on_c, 1, 70, 127
1, 10439, Note_on_c, 1, 66, 127
1, 10491, Note_off_c, 1, 54, 0
1, 10491, Note_off_c, 1, 70, 0
1, 10499, Note_on_c, 1, 42, 127
1, 10499, Note_on_c, 1, 69, 127
1, 10517, Note_off_c, 1, 66, 0
1, 10529, Note_on_c, 1, 64, 127
1, 10551, Note_off_c, 1, 42, 0
1, 10555, Note_off_c, 1, 64, 0
1, 10559, Note_on_c, 1, 63, 127
1, 10559, Note_on_c, 1, 47, 127
1, 10611, Note_off_c, 1, 69, 0
1, 10611, Note_off_c, 1, 63, 0
1, 10619, Note_on_c, 1, 59, 127
1, 10619, Note_on_c, 1, 71, 127
1, 10664, Note_off_c, 1, 47, 0
1, 10671, Note_off_c, 1, 59, 0
1, 10671, Note_off_c, 1, 71, 0
1, 10679, Note_on_c, 1, 69, 127
1, 10679, Note_on_c, 1, 64, 127
1, 10739, Note_on_c, 1, 49, 127
1, 10757, Note_off_c, 1, 69, 0
1, 10769, Note_on_c, 1, 68, 127
1, 10791, Note_off_c, 1, 49, 0
1, 10795, Note_off_c, 1, 68, 0
1, 10799, Note_on_c, 1, 45, 127
1, 10799, Note_on_c, 1, 66, 127
1, 10851, Note_off_c, 1, 45, 0
1, 10859, Note_on_c, 1, 61, 127
1, 10904, Note_off_c, 1, 64, 0
1, 10911, Note_off_c, 1, 61, 0
1, 10919, Note_on_c, 1, 63, 127
1, 10919, Note_on_c, 1, 59, 127
1, 10971, Note_off_c, 1, 63, 0
1, 10979, Note_on_c, 1, 62, 127
1, 10997, Note_off_c, 1, 59, 0
1, 11009, Note_on_c, 1, 57, 127
1, 11024, Note_off_c, 1, 66, 0
1, 11035, Note_off_c, 1, 57, 0
1, 11039, Note_on_c, 1, 56, 127
1, 11091, Note_off_c, 1, 62, 0
1, 11091, Note_off_c, 1, 56, 0
1, 11099, Note_on_c, 1, 52, 127
1, 11151, Note_off_c, 1, 52, 0
1, 11279, Note_on_c, 1, 71, 127
1, 11444, Note_off_c, 1, 71, 0
1, 11519, Note_on_c, 1, 73, 127
1, 11684, Note_off_c, 1, 73, 0
1, 11699, Note_on_c, 1, 54, 127
1, 11751, Note_off_c, 1, 54, 0
1, 11759, Note_on_c, 1, 74, 127
1, 12051, Note_off_c, 1, 74, 0
1, 12359, Note_on_c, 1, 62, 127
1, 12359, Note_on_c, 1, 59, 127
1, 12359, Note_on_c, 1, 78, 127
1, 12411, Note_off_c, 1, 62, 0
1, 12419, Note_on_c, 1, 61, 127
1, 12437, Note_off_c, 1, 59, 0
1, 12449, Note_on_c, 1, 57, 127
1, 12471, Note_off_c, 1, 61, 0
1, 12475, Note_off_c, 1, 57, 0
1, 12479, Note_on_c, 1, 56, 127
1, 12531, Note_off_c, 1, 78, 0
1, 12539, Note_on_c, 1, 76, 127
1, 12584, Note_off_c, 1, 56, 0
1, 12591, Note_off_c, 1, 76, 0
1, 12599, Note_on_c, 1, 74, 127
1, 12599, Note_on_c, 1, 58, 127
1, 12599, Note_on_c, 1, 66, 127
1, 12677, Note_off_c, 1, 74, 0
1, 12689, Note_on_c, 1, 73, 127
1, 12704, Note_off_c, 1, 58, 0
1, 12715, Note_off_c, 1, 73, 0
1, 12719, Note_on_c, 1, 59, 127
1, 12771, Note_off_c, 1, 66, 0
1, 12779, Note_on_c, 1, 62, 127
1, 12779, Note_on_c, 1, 71, 127
1, 12824, Note_off_c, 1, 59, 0
1, 12831, Note_off_c, 1, 62, 0
1, 12831, Note_off_c, 1, 71, 0
1, 12839, Note_on_c, 1, 61, 127
1, 12839, Note_on_c, 1, 55, 127
1, 12839, Note_on_c, 1, 76, 127
1, 12917, Note_off_c, 1, 61, 0
1, 12929, Note_on_c, 1, 59, 127
1, 12944, Note_off_c, 1, 55, 0
1, 12955, Note_off_c, 1, 59, 0
1, 12959, Note_on_c, 1, 58, 127
1, 13011, Note_off_c, 1, 76, 0
1, 13011, Note_off_c, 1, 58, 0
1, 13019, Note_on_c, 1, 54, 127
1, 13019, Note_on_c, 1, 78, 127
1, 13071, Note_off_c, 1, 54, 0
1, 13071, Note_off_c, 1, 78, 0
1, 13079, Note_on_c, 1, 74, 127
1, 13079, Note_on_c, 1, 59, 127
1, 13131, Note_off_c, 1, 74, 0
1, 13139, Note_on_c, 1, 55, 127
1, 13139, Note_on_c, 1, 71, 127
1, 13191, Note_off_c, 1, 55, 0
1, 13191, Note_off_c, 1, 71, 0
1, 13199, Note_on_c, 1, 52, 127
1, 13199, Note_on_c, 1, 73, 127
1, 13251, Note_off_c, 1, 52, 0
1, 13259, Note_on_c, 1, 49, 127
1, 13304, Note_off_c, 1, 59, 0
1, 13304, Note_off_c, 1, 73, 0
1, 13311, Note_off_c, 1, 49, 0
1, 13319, Note_on_c, 1, 58, 127
1, 13319, Note_on_c, 1, 54, 127
1, 13371, Note_off_c, 1, 58, 0
1, 13379, Note_on_c, 1, 66, 127
1, 13379, Note_on_c, 1, 70, 127
1, 13431, Note_off_c, 1, 66, 0
1, 13431, Note_off_c, 1, 70, 0
1, 13439, Note_on_c, 1, 62, 127
1, 13439, Note_on_c, 1, 71, 127
1, 13491, Note_off_c, 1, 62, 0
1, 13491, Note_off_c, 1, 71, 0
1, 13499, Note_on_c, 1, 59, 127
1, 13499, Note_on_c, 1, 74, 127
1, 13544, Note_off_c, 1, 54, 0
1, 13551, Note_off_c, 1, 59, 0
1, 13551, Note_off_c, 1, 74, 0
1, 13559, Note_on_c, 1, 52, 127
1, 13559, Note_on_c, 1, 73, 127
1, 13559, Note_on_c, 1, 67, 127
1, 13611, Note_off_c, 1, 52, 0
1, 13619, Note_on_c, 1, 50, 127
1, 13637, Note_off_c, 1, 73, 0
1, 13649, Note_on_c, 1, 71, 127
1, 13671, Note_off_c, 1, 50, 0
1, 13675, Note_off_c, 1, 71, 0
1, 13679, Note_on_c, 1, 49, 127
1, 13679, Note_on_c, 1, 69, 127
1, 13731, Note_off_c, 1, 67, 0
1, 13731, Note_off_c, 1, 49, 0
1, 13739, Note_on_c, 1, 66, 127
1, 13739, Note_on_c, 1, 45, 127
1, 13765, Note_off_c, 1, 66, 0
1, 13769, Note_on_c, 1, 64, 127
1, 13791, Note_off_c, 1, 45, 0
1, 13795, Note_off_c, 1, 64, 0
1, 13844, Note_off_c, 1, 69, 0
1, 13859, Note_on_c, 1, 74, 127
1, 13911, Note_off_c, 1, 74, 0
1, 13919, Note_on_c, 1, 47, 127
1, 13971, Note_off_c, 1, 47, 0
1, 14159, Note_on_c, 1, 46, 127
1, 14211, Note_off_c, 1, 46, 0
1, 14219, Note_on_c, 1, 62, 127
1, 14219, Note_on_c, 1, 42, 127
1, 14245, Note_off_c, 1, 62, 0
1, 14249, Note_on_c, 1, 61, 127
1, 14271, Note_off_c, 1, 42, 0
1, 14275, Note_off_c, 1, 61, 0
1, 14279, Note_on_c, 1, 62, 127
1, 14279, Note_on_c, 1, 47, 127
1, 14331, Note_off_c, 1, 62, 0
1, 14339, Note_on_c, 1, 59, 127
1, 14391, Note_off_c, 1, 59, 0
1, 14399, Note_on_c, 1, 61, 127
1, 14451, Note_off_c, 1, 47, 0
1, 14459, Note_on_c, 1, 45, 127
1, 14459, Note_on_c, 1, 65, 127
1, 14485, Note_off_c, 1, 45, 0
1, 14489, Note_on_c, 1, 44, 127
1, 14511, Note_off_c, 1, 65, 0
1, 14515, Note_off_c, 1, 44, 0
1, 14519, Note_on_c, 1, 66, 127
1, 14571, Note_off_c, 1, 66, 0
1, 14579, Note_on_c, 1, 69, 127
1, 14624, Note_off_c, 1, 61, 0
1, 14631, Note_off_c, 1, 69, 0
1, 14639, Note_on_c, 1, 63, 127
1, 14691, Note_off_c, 1, 63, 0
1, 14729, Note_on_c, 1, 42, 127
1, 14755, Note_off_c, 1, 42, 0
1, 14759, Note_on_c, 1, 44, 127
1, 14759, Note_on_c, 1, 71, 127
1, 14811, Note_off_c, 1, 44, 0
1, 14819, Note_on_c, 1, 40, 127
1, 14819, Note_on_c, 1, 68, 127
1, 14871, Note_off_c, 1, 40, 0
1, 14871, Note_off_c, 1, 68, 0
1, 14879, Note_on_c, 1, 49, 127
1, 14879, Note_on_c, 1, 64, 127
1, 14931, Note_off_c, 1, 71, 0
1, 14931, Note_off_c, 1, 49, 0
1, 14939, Note_on_c, 1, 69, 127
1, 14939, Note_on_c, 1, 37, 127
1, 14965, Note_off_c, 1, 69, 0
1, 14991, Note_off_c, 1, 37, 0
1, 15059, Note_on_c, 1, 73, 127
1, 15104, Note_off_c, 1, 64, 0
1, 15111, Note_off_c, 1, 73, 0
1, 15119, Note_on_c, 1, 66, 127
1, 15119, Note_on_c, 1, 62, 127
1, 15171, Note_off_c, 1, 66, 0
1, 15179, Note_on_c, 1, 47, 127
1, 15205, Note_off_c, 1, 47, 0
1, 15209, Note_on_c, 1, 45, 127
1, 15235, Note_off_c, 1, 45, 0
1, 15239, Note_on_c, 1, 74, 127
1, 15284, Note_off_c, 1, 62, 0
1, 15359, Note_on_c, 1, 41, 127
1, 15411, Note_off_c, 1, 74, 0
1, 15411, Note_off_c, 1, 41, 0
1, 15419, Note_on_c, 1, 56, 127
1, 15419, Note_on_c, 1, 65, 127
1, 15419, Note_on_c, 1, 74, 127
1, 15471, Note_off_c, 1, 56, 0
1, 15471, Note_off_c, 1, 65, 0
1, 15471, Note_off_c, 1, 74, 0
1, 15479, Note_on_c, 1, 53, 127
1, 15479, Note_on_c, 1, 73, 127
1, 15531, Note_off_c, 1, 53, 0
1, 15539, Note_on_c, 1, 49, 127
1, 15539, Note_on_c, 1, 68, 127
1, 15557, Note_off_c, 1, 73, 0
1, 15569, Note_on_c, 1, 71, 127
1, 15591, Note_off_c, 1, 49, 0
1, 15595, Note_off_c, 1, 71, 0
1, 15599, Note_on_c, 1, 54, 127
1, 15599, Note_on_c, 1, 69, 127
1, 15651, Note_off_c, 1, 68, 0
1, 15651, Note_off_c, 1, 54, 0
1, 15659, Note_on_c, 1, 66, 127
1, 15659, Note_on_c, 1, 56, 127
1, 15685, Note_off_c, 1, 66, 0
1, 15689, Note_on_c, 1, 65, 127
1, 15711, Note_off_c, 1, 56, 0
1, 15715, Note_off_c, 1, 65, 0
1, 15719, Note_on_c, 1, 57, 127
1, 15771, Note_off_c, 1, 57, 0
1, 15779, Note_on_c, 1, 63, 127
1, 15831, Note_off_c, 1, 63, 0
1, 15839, Note_on_c, 1, 60, 127
1, 15891, Note_off_c, 1, 69, 0
1, 15899, Note_on_c, 1, 44, 127
1, 15951, Note_off_c, 1, 44, 0
1, 16064, Note_off_c, 1, 60, 0
1, 16079, Note_on_c, 1, 52, 127
1, 16079, Note_on_c, 1, 61, 127
1, 16079, Note_on_c, 1, 64, 127
1, 16131, Note_off_c, 1, 52, 0
1, 16131, Note_off_c, 1, 61, 0
1, 16131, Note_off_c, 1, 64, 0
1, 16139, Note_on_c, 1, 49, 127
1, 16139, Note_on_c, 1, 76, 127
1, 16191, Note_off_c, 1, 49, 0
1, 16191, Note_off_c, 1, 76, 0
1, 16199, Note_on_c, 1, 75, 127
1, 16199, Note_on_c, 1, 57, 127
1, 16277, Note_off_c, 1, 75, 0
1, 16289, Note_on_c, 1, 73, 127
1, 16315, Note_off_c, 1, 73, 0
1, 16319, Note_on_c, 1, 72, 127
1, 16371, Note_off_c, 1, 57, 0
1, 16371, Note_off_c, 1, 72, 0
1, 16379, Note_on_c, 1, 56, 127
1, 16379, Note_on_c, 1, 75, 127
1, 16379, Note_on_c, 1, 78, 127
1, 16405, Note_off_c, 1, 56, 0
1, 16409, Note_on_c, 1, 54, 127
1, 16431, Note_off_c, 1, 75, 0
1, 16431, Note_off_c, 1, 78, 0
1, 16435, Note_off_c, 1, 54, 0
1, 16439, Note_on_c, 1, 76, 127
1, 16439, Note_on_c, 1, 73, 127
1, 16439, Note_on_c, 1, 56, 127
1, 16491, Note_off_c, 1, 76, 0
1, 16499, Note_on_c, 1, 75, 127
1, 16517, Note_off_c, 1, 73, 0
1, 16529, Note_on_c, 1, 72, 127
1, 16551, Note_off_c, 1, 75, 0
1, 16555, Note_off_c, 1, 72, 0
1, 16611, Note_off_c, 1, 56, 0
1, 16619, Note_on_c, 1, 61, 127
1, 16619, Note_on_c, 1, 71, 127
1, 16671, Note_off_c, 1, 61, 0
1, 16671, Note_off_c, 1, 71, 0
1, 16679, Note_on_c, 1, 69, 127
1, 16679, Note_on_c, 1, 54, 127
1, 16731, Note_off_c, 1, 69, 0
1, 16739, Note_on_c, 1, 66, 127
1, 16791, Note_off_c, 1, 66, 0
1, 16799, Note_on_c, 1, 60, 127
1, 16799, Note_on_c, 1, 80, 127
1, 16851, Note_off_c, 1, 54, 0
1, 16851, Note_off_c, 1, 60, 0
1, 16851, Note_off_c, 1, 80, 0
1, 16859, Note_on_c, 1, 52, 127
1, 16859, Note_on_c, 1, 63, 127
1, 16859, Note_on_c, 1, 72, 127
1, 16885, Note_off_c, 1, 52, 0
1, 16889, Note_on_c, 1, 51, 127
1, 16911, Note_off_c, 1, 63, 0
1, 16911, Note_off_c, 1, 72, 0
1, 16915, Note_off_c, 1, 51, 0
1, 16919, Note_on_c, 1, 52, 127
1, 16919, Note_on_c, 1, 56, 127
1, 16919, Note_on_c, 1, 73, 127
1, 16971, Note_off_c, 1, 52, 0
1, 16971, Note_off_c, 1, 56, 0
1, 16979, Note_on_c, 1, 49, 127
1, 16979, Note_on_c, 1, 68, 127
1, 17031, Note_off_c, 1, 49, 0
1, 17031, Note_off_c, 1, 68, 0
1, 17039, Note_on_c, 1, 66, 127
1, 17039, Note_on_c, 1, 51, 127
1, 17065, Note_off_c, 1, 66, 0
1, 17129, Note_on_c, 1, 64, 127
1, 17144, Note_off_c, 1, 73, 0
1, 17144, Note_off_c, 1, 51, 0
1, 17155, Note_off_c, 1, 64, 0
1, 17159, Note_on_c, 1, 66, 127
1, 17159, Note_on_c, 1, 56, 127
1, 17159, Note_on_c, 1, 72, 127
1, 17185, Note_off_c, 1, 66, 0
1, 17189, Note_on_c, 1, 64, 127
1, 17215, Note_off_c, 1, 64, 0
1, 17219, Note_on_c, 1, 63, 127
1, 17245, Note_off_c, 1, 63, 0
1, 17264, Note_off_c, 1, 56, 0
1, 17264, Note_off_c, 1, 72, 0
1, 17279, Note_on_c, 1, 64, 127
1, 17279, Note_on_c, 1, 49, 127
1, 17279, Note_on_c, 1, 73, 127
1, 17305, Note_off_c, 1, 64, 0
1, 17309, Note_on_c, 1, 66, 127
1, 17335, Note_off_c, 1, 66, 0
1, 17369, Note_on_c, 1, 63, 127
1, 17384, Note_off_c, 1, 49, 0
1, 17384, Note_off_c, 1, 73, 0
1, 17395, Note_off_c, 1, 63, 0
1, 17399, Note_on_c, 1, 64, 127
1, 17425, Note_off_c, 1, 64, 0
1, 17429, Note_on_c, 1, 63, 127
1, 17455, Note_off_c, 1, 63, 0
1, 17459, Note_on_c, 1, 61, 127
1, 17459, Note_on_c, 1, 73, 127
1, 17485, Note_off_c, 1, 61, 0
1, 17489, Note_on_c, 1, 64, 127
1, 17511, Note_off_c, 1, 73, 0
1, 17515, Note_off_c, 1, 64, 0
1, 17519, Note_on_c, 1, 71, 127
1, 17519, Note_on_c, 1, 63, 127
1, 17545, Note_off_c, 1, 71, 0
1, 17549, Note_on_c, 1, 73, 127
1, 17571, Note_off_c, 1, 63, 0
1, 17575, Note_off_c, 1, 73, 0
1, 17579, Note_on_c, 1, 71, 127
1, 17579, Note_on_c, 1, 68, 127
1, 17605, Note_off_c, 1, 71, 0
1, 17609, Note_on_c, 1, 69, 127
1, 17631, Note_off_c, 1, 68, 0
1, 17635, Note_off_c, 1, 69, 0
1, 17639, Note_on_c, 1, 71, 127
1, 17639, Note_on_c, 1, 61, 127
1, 17665, Note_off_c, 1, 71, 0
1, 17669, Note_on_c, 1, 69, 127
1, 17691, Note_off_c, 1, 61, 0
1, 17695, Note_off_c, 1, 69, 0
1, 17699, Note_on_c, 1, 68, 127
1, 17699, Note_on_c, 1, 65, 127
1, 17725, Note_off_c, 1, 68, 0
1, 17729, Note_on_c, 1, 71, 127
1, 17751, Note_off_c, 1, 65, 0
1, 17755, Note_off_c, 1, 71, 0
1, 17759, Note_on_c, 1, 66, 127
1, 17759, Note_on_c, 1, 69, 127
1, 17785, Note_off_c, 1, 66, 0
1, 17785, Note_off_c, 1, 69, 0
1, 17789, Note_on_c, 1, 62, 127
1, 17789, Note_on_c, 1, 71, 127
1, 17815, Note_off_c, 1, 62, 0
1, 17815, Note_off_c, 1, 71, 0
1, 17819, Note_on_c, 1, 61, 127
1, 17819, Note_on_c, 1, 69, 127
1, 17845, Note_off_c, 1, 61, 0
1, 17845, Note_off_c, 1, 69, 0
1, 17849, Note_on_c, 1, 59, 127
1, 17849, Note_on_c, 1, 68, 127
1, 17875, Note_off_c, 1, 59, 0
1, 17875, Note_off_c, 1, 68, 0
1, 17879, Note_on_c, 1, 61, 127
1, 17879, Note_on_c, 1, 69, 127
1, 17905, Note_off_c, 1, 61, 0
1, 17905, Note_off_c, 1, 69, 0
1, 17909, Note_on_c, 1, 57, 127
1, 17909, Note_on_c, 1, 68, 127
1, 17935, Note_off_c, 1, 57, 0
1, 17935, Note_off_c, 1, 68, 0
1, 17939, Note_on_c, 1, 66, 127
1, 17939, Note_on_c, 1, 54, 127
1, 17939, Note_on_c, 1, 62, 127
1, 17965, Note_off_c, 1, 66, 0
1, 17969, Note_on_c, 1, 69, 127
1, 17991, Note_off_c, 1, 54, 0
1, 17995, Note_off_c, 1, 69, 0
1, 17999, Note_on_c, 1, 52, 127
1, 17999, Note_on_c, 1, 68, 127
1, 18025, Note_off_c, 1, 52, 0
1, 18051, Note_off_c, 1, 62, 0
1, 18051, Note_off_c, 1, 68, 0
1, 18059, Note_on_c, 1, 52, 127
1, 18059, Note_on_c, 1, 56, 127
1, 18059, Note_on_c, 1, 73, 127
1, 18085, Note_off_c, 1, 52, 0
1, 18089, Note_on_c, 1, 50, 127
1, 18111, Note_off_c, 1, 56, 0
1, 18111, Note_off_c, 1, 73, 0
1, 18115, Note_off_c, 1, 50, 0
1, 18119, Note_on_c, 1, 52, 127
1, 18119, Note_on_c, 1, 58, 127
1, 18119, Note_on_c, 1, 66, 127
1, 18145, Note_off_c, 1, 52, 0
1, 18149, Note_on_c, 1, 50, 127
1, 18171, Note_off_c, 1, 58, 0
1, 18171, Note_off_c, 1, 66, 0
1, 18175, Note_off_c, 1, 50, 0
1, 18179, Note_on_c, 1, 49, 127
1, 18179, Note_on_c, 1, 61, 127
1, 18179, Note_on_c, 1, 70, 127
1, 18205, Note_off_c, 1, 49, 0
1, 18209, Note_on_c, 1, 52, 127
1, 18231, Note_off_c, 1, 61, 0
1, 18231, Note_off_c, 1, 70, 0
1, 18235, Note_off_c, 1, 52, 0
1, 18239, Note_on_c, 1, 50, 127
1, 18239, Note_on_c, 1, 71, 127
1, 18239, Note_on_c, 1, 54, 127
1, 18265, Note_off_c, 1, 50, 0
1, 18269, Note_on_c, 1, 52, 127
1, 18291, Note_off_c, 1, 71, 0
1, 18295, Note_off_c, 1, 52, 0
1, 18299, Note_on_c, 1, 66, 127
1, 18329, Note_on_c, 1, 49, 127
1, 18344, Note_off_c, 1, 54, 0
1, 18351, Note_off_c, 1, 66, 0
1, 18355, Note_off_c, 1, 49, 0
1, 18359, Note_on_c, 1, 50, 127
1, 18359, Note_on_c, 1, 71, 127
1, 18385, Note_off_c, 1, 50, 0
1, 18389, Note_on_c, 1, 49, 127
1, 18415, Note_off_c, 1, 49, 0
1, 18419, Note_on_c, 1, 47, 127
1, 18419, Note_on_c, 1, 66, 127
1, 18445, Note_off_c, 1, 47, 0
1, 18471, Note_off_c, 1, 66, 0
1, 18479, Note_on_c, 1, 64, 127
1, 18505, Note_off_c, 1, 64, 0
1, 18539, Note_on_c, 1, 42, 127
1, 18569, Note_on_c, 1, 63, 127
1, 18584, Note_off_c, 1, 71, 0
1, 18591, Note_off_c, 1, 42, 0
1, 18595, Note_off_c, 1, 63, 0
1, 18599, Note_on_c, 1, 64, 127
1, 18599, Note_on_c, 1, 54, 127
1, 18599, Note_on_c, 1, 69, 127
1, 18625, Note_off_c, 1, 64, 0
1, 18629, Note_on_c, 1, 63, 127
1, 18651, Note_off_c, 1, 54, 0
1, 18655, Note_off_c, 1, 63, 0
1, 18659, Note_on_c, 1, 61, 127
1, 18659, Note_on_c, 1, 57, 127
1, 18685, Note_off_c, 1, 61, 0
1, 18711, Note_off_c, 1, 57, 0
1, 18719, Note_on_c, 1, 47, 127
1, 18771, Note_off_c, 1, 47, 0
1, 18779, Note_on_c, 1, 59, 127
1, 18824, Note_off_c, 1, 69, 0
1, 18831, Note_off_c, 1, 59, 0
1, 18839, Note_on_c, 1, 63, 127
1, 18839, Note_on_c, 1, 52, 127
1, 18839, Note_on_c, 1, 68, 127
1, 18865, Note_off_c, 1, 63, 0
1, 18869, Note_on_c, 1, 61, 127
1, 18891, Note_off_c, 1, 52, 0
1, 18895, Note_off_c, 1, 61, 0
1, 18899, Note_on_c, 1, 60, 127
1, 18899, Note_on_c, 1, 56, 127
1, 18925, Note_off_c, 1, 60, 0
1, 18951, Note_off_c, 1, 56, 0
1, 18959, Note_on_c, 1, 45, 127
1, 19011, Note_off_c, 1, 45, 0
1, 19019, Note_on_c, 1, 44, 127
1, 19064, Note_off_c, 1, 68, 0
1, 19071, Note_off_c, 1, 44, 0
1, 19079, Note_on_c, 1, 61, 127
1, 19079, Note_on_c, 1, 45, 127
1, 19079, Note_on_c, 1, 66, 127
1, 19105, Note_off_c, 1, 61, 0
1, 19109, Note_on_c, 1, 64, 127
1, 19131, Note_off_c, 1, 45, 0
1, 19135, Note_off_c, 1, 64, 0
1, 19139, Note_on_c, 1, 63, 127
1, 19139, Note_on_c, 1, 57, 127
1, 19165, Note_off_c, 1, 63, 0
1, 19184, Note_off_c, 1, 66, 0
1, 19191, Note_off_c, 1, 57, 0
1, 19199, Note_on_c, 1, 56, 127
1, 19199, Note_on_c, 1, 60, 127
1, 19199, Note_on_c, 1, 68, 127
1, 19225, Note_off_c, 1, 56, 0
1, 19229, Note_on_c, 1, 57, 127
1, 19251, Note_off_c, 1, 60, 0
1, 19251, Note_off_c, 1, 68, 0
1, 19255, Note_off_c, 1, 57, 0
1, 19259, Note_on_c, 1, 56, 127
1, 19259, Note_on_c, 1, 63, 127
1, 19259, Note_on_c, 1, 72, 127
1, 19285, Note_off_c, 1, 56, 0
1, 19289, Note_on_c, 1, 54, 127
1, 19311, Note_off_c, 1, 63, 0
1, 19311, Note_off_c, 1, 72, 0
1, 19315, Note_off_c, 1, 54, 0
1, 19319, Note_on_c, 1, 56, 127
1, 19319, Note_on_c, 1, 64, 127
1, 19319, Note_on_c, 1, 73, 127
1, 19345, Note_off_c, 1, 56, 0
1, 19349, Note_on_c, 1, 54, 127
1, 19371, Note_off_c, 1, 64, 0
1, 19371, Note_off_c, 1, 73, 0
1, 19375, Note_off_c, 1, 54, 0
1, 19379, Note_on_c, 1, 52, 127
1, 19379, Note_on_c, 1, 68, 127
1, 19379, Note_on_c, 1, 76, 127
1, 19405, Note_off_c, 1, 52, 0
1, 19409, Note_on_c, 1, 56, 127
1, 19431, Note_off_c, 1, 68, 0
1, 19431, Note_off_c, 1, 76, 0
1, 19435, Note_off_c, 1, 56, 0
1, 19439, Note_on_c, 1, 54, 127
1, 19465, Note_off_c, 1, 54, 0
1, 19469, Note_on_c, 1, 56, 127
1, 19495, Note_off_c, 1, 56, 0
1, 19499, Note_on_c, 1, 54, 127
1, 19499, Note_on_c, 1, 68, 127
1, 19499, Note_on_c, 1, 76, 127
1, 19525, Note_off_c, 1, 54, 0
1, 19529, Note_on_c, 1, 52, 127
1, 19551, Note_off_c, 1, 68, 0
1, 19551, Note_off_c, 1, 76, 0
1, 19555, Note_off_c, 1, 52, 0
1, 19559, Note_on_c, 1, 54, 127
1, 19559, Note_on_c, 1, 66, 127
1, 19559, Note_on_c, 1, 75, 127
1, 19585, Note_off_c, 1, 54, 0
1, 19589, Note_on_c, 1, 52, 127
1, 19611, Note_off_c, 1, 66, 0
1, 19611, Note_off_c, 1, 75, 0
1, 19615, Note_off_c, 1, 52, 0
1, 19619, Note_on_c, 1, 51, 127
1, 19619, Note_on_c, 1, 69, 127
1, 19619, Note_on_c, 1, 78, 127
1, 19645, Note_off_c, 1, 51, 0
1, 19649, Note_on_c, 1, 54, 127
1, 19675, Note_off_c, 1, 54, 0
1, 19679, Note_on_c, 1, 52, 127
1, 19705, Note_off_c, 1, 52, 0
1, 19731, Note_off_c, 1, 69, 0
1, 19731, Note_off_c, 1, 78, 0
1, 19739, Note_on_c, 1, 52, 127
1, 19739, Note_on_c, 1, 68, 127
1, 19739, Note_on_c, 1, 72, 127
1, 19765, Note_off_c, 1, 52, 0
1, 19765, Note_off_c, 1, 68, 0
1, 19769, Note_on_c, 1, 51, 127
1, 19769, Note_on_c, 1, 66, 127
1, 19791, Note_off_c, 1, 72, 0
1, 19795, Note_off_c, 1, 51, 0
1, 19795, Note_off_c, 1, 66, 0
1, 19799, Note_on_c, 1, 52, 127
1, 19799, Note_on_c, 1, 68, 127
1, 19799, Note_on_c, 1, 73, 127
1, 19825, Note_off_c, 1, 52, 0
1, 19829, Note_on_c, 1, 51, 127
1, 19851, Note_off_c, 1, 68, 0
1, 19855, Note_off_c, 1, 51, 0
1, 19859, Note_on_c, 1, 49, 127
1, 19859, Note_on_c, 1, 70, 127
1, 19885, Note_off_c, 1, 49, 0
1, 19911, Note_off_c, 1, 70, 0
1, 19919, Note_on_c, 1, 63, 127
1, 19919, Note_on_c, 1, 43, 127
1, 19945, Note_off_c, 1, 63, 0
1, 19949, Note_on_c, 1, 64, 127
1, 19971, Note_off_c, 1, 73, 0
1, 19971, Note_off_c, 1, 43, 0
1, 19975, Note_off_c, 1, 64, 0
1, 19979, Note_on_c, 1, 63, 127
1, 19979, Note_on_c, 1, 46, 127
1, 19979, Note_on_c, 1, 67, 127
1, 20005, Note_off_c, 1, 63, 0
1, 20009, Note_on_c, 1, 61, 127
1, 20031, Note_off_c, 1, 46, 0
1, 20031, Note_off_c, 1, 67, 0
1, 20035, Note_off_c, 1, 61, 0
1, 20039, Note_on_c, 1, 63, 127
1, 20039, Note_on_c, 1, 47, 127
1, 20039, Note_on_c, 1, 68, 127
1, 20065, Note_off_c, 1, 63, 0
1, 20069, Note_on_c, 1, 61, 127
1, 20091, Note_off_c, 1, 47, 0
1, 20095, Note_off_c, 1, 61, 0
1, 20099, Note_on_c, 1, 59, 127
1, 20099, Note_on_c, 1, 52, 127
1, 20125, Note_off_c, 1, 59, 0
1, 20151, Note_off_c, 1, 52, 0
1, 20159, Note_on_c, 1, 46, 127
1, 20211, Note_off_c, 1, 68, 0
1, 20211, Note_off_c, 1, 46, 0
1, 20219, Note_on_c, 1, 61, 127
1, 20219, Note_on_c, 1, 49, 127
1, 20219, Note_on_c, 1, 70, 127
1, 20245, Note_off_c, 1, 61, 0
1, 20249, Note_on_c, 1, 59, 127
1, 20271, Note_off_c, 1, 49, 0
1, 20271, Note_off_c, 1, 70, 0
1, 20275, Note_off_c, 1, 59, 0
1, 20279, Note_on_c, 1, 61, 127
1, 20279, Note_on_c, 1, 51, 127
1, 20279, Note_on_c, 1, 63, 127
1, 20305, Note_off_c, 1, 61, 0
1, 20309, Note_on_c, 1, 59, 127
1, 20331, Note_off_c, 1, 51, 0
1, 20331, Note_off_c, 1, 63, 0
1, 20335, Note_off_c, 1, 59, 0
1, 20339, Note_on_c, 1, 58, 127
1, 20339, Note_on_c, 1, 39, 127
1, 20339, Note_on_c, 1, 67, 127
1, 20365, Note_off_c, 1, 58, 0
1, 20369, Note_on_c, 1, 61, 127
1, 20391, Note_off_c, 1, 39, 0
1, 20391, Note_off_c, 1, 67, 0
1, 20395, Note_off_c, 1, 61, 0
1, 20399, Note_on_c, 1, 59, 127
1, 20399, Note_on_c, 1, 44, 127
1, 20399, Note_on_c, 1, 68, 127
1, 20425, Note_off_c, 1, 59, 0
1, 20429, Note_on_c, 1, 61, 127
1, 20451, Note_off_c, 1, 44, 0
1, 20455, Note_off_c, 1, 61, 0
1, 20459, Note_on_c, 1, 56, 127
1, 20459, Note_on_c, 1, 63, 127
1, 20485, Note_off_c, 1, 56, 0
1, 20485, Note_off_c, 1, 63, 0
1, 20489, Note_on_c, 1, 54, 127
1, 20504, Note_off_c, 1, 68, 0
1, 20515, Note_off_c, 1, 54, 0
1, 20519, Note_on_c, 1, 56, 127
1, 20519, Note_on_c, 1, 64, 127
1, 20549, Note_on_c, 1, 69, 127
1, 20571, Note_off_c, 1, 56, 0
1, 20575, Note_off_c, 1, 69, 0
1, 20579, Note_on_c, 1, 71, 127
1, 20579, Note_on_c, 1, 49, 127
1, 20605, Note_off_c, 1, 71, 0
1, 20609, Note_on_c, 1, 68, 127
1, 20631, Note_off_c, 1, 49, 0
1, 20635, Note_off_c, 1, 68, 0
1, 20639, Note_on_c, 1, 42, 127
1, 20691, Note_off_c, 1, 42, 0
1, 20699, Note_on_c, 1, 54, 127
1, 20725, Note_off_c, 1, 54, 0
1, 20729, Note_on_c, 1, 52, 127
1, 20744, Note_off_c, 1, 64, 0
1, 20755, Note_off_c, 1, 52, 0
1, 20759, Note_on_c, 1, 69, 127
1, 20759, Note_on_c, 1, 54, 127
1, 20759, Note_on_c, 1, 63, 127
1, 20785, Note_off_c, 1, 69, 0
1, 20789, Note_on_c, 1, 68, 127
1, 20811, Note_off_c, 1, 54, 0
1, 20815, Note_off_c, 1, 68, 0
1, 20819, Note_on_c, 1, 66, 127
1, 20819, Note_on_c, 1, 47, 127
1, 20845, Note_off_c, 1, 66, 0
1, 20864, Note_off_c, 1, 63, 0
1, 20871, Note_off_c, 1, 47, 0
1, 20879, Note_on_c, 1, 52, 127
1, 20879, Note_on_c, 1, 68, 127
1, 20879, Note_on_c, 1, 64, 127
1, 20905, Note_off_c, 1, 52, 0
1, 20905, Note_off_c, 1, 68, 0
1, 20909, Note_on_c, 1, 54, 127
1, 20909, Note_on_c, 1, 69, 127
1, 20935, Note_off_c, 1, 54, 0
1, 20935, Note_off_c, 1, 69, 0
1, 20939, Note_on_c, 1, 56, 127
1, 20939, Note_on_c, 1, 71, 127
1, 20965, Note_off_c, 1, 56, 0
1, 20965, Note_off_c, 1, 71, 0
1, 20984, Note_off_c, 1, 64, 0
1, 20999, Note_on_c, 1, 57, 127
1, 20999, Note_on_c, 1, 73, 127
1, 21025, Note_off_c, 1, 57, 0
1, 21029, Note_on_c, 1, 59, 127
1, 21029, Note_on_c, 1, 71, 127
1, 21055, Note_off_c, 1, 59, 0
1, 21055, Note_off_c, 1, 71, 0
1, 21059, Note_on_c, 1, 61, 127
1, 21059, Note_on_c, 1, 69, 127
1, 21085, Note_off_c, 1, 61, 0
1, 21085, Note_off_c, 1, 69, 0
1, 21089, Note_on_c, 1, 68, 127
1, 21115, Note_off_c, 1, 68, 0
1, 21119, Note_on_c, 1, 62, 127
1, 21119, Note_on_c, 1, 66, 127
1, 21145, Note_off_c, 1, 62, 0
1, 21149, Note_on_c, 1, 64, 127
1, 21171, Note_off_c, 1, 73, 0
1, 21175, Note_off_c, 1, 64, 0
1, 21284, Note_off_c, 1, 66, 0
1, 21479, Note_on_c, 1, 61, 127
1, 21479, Note_on_c, 1, 69, 127
1, 21505, Note_off_c, 1, 61, 0
1, 21505, Note_off_c, 1, 69, 0
1, 21509, Note_on_c, 1, 59, 127
1, 21509, Note_on_c, 1, 71, 127
1, 21535, Note_off_c, 1, 59, 0
1, 21535, Note_off_c, 1, 71, 0
1, 21539, Note_on_c, 1, 57, 127
1, 21539, Note_on_c, 1, 73, 127
1, 21565, Note_off_c, 1, 57, 0
1, 21565, Note_off_c, 1, 73, 0
1, 21569, Note_on_c, 1, 61, 127
1, 21569, Note_on_c, 1, 69, 127
1, 21595, Note_off_c, 1, 61, 0
1, 21595, Note_off_c, 1, 69, 0
1, 21599, Note_on_c, 1, 74, 127
1, 21599, Note_on_c, 1, 59, 127
1, 21625, Note_off_c, 1, 74, 0
1, 21629, Note_on_c, 1, 76, 127
1, 21655, Note_off_c, 1, 76, 0
1, 21659, Note_on_c, 1, 69, 127
1, 21689, Note_on_c, 1, 73, 127
1, 21711, Note_off_c, 1, 69, 0
1, 21715, Note_off_c, 1, 73, 0
1, 21719, Note_on_c, 1, 68, 127
1, 21764, Note_off_c, 1, 59, 0
1, 21779, Note_on_c, 1, 71, 127
1, 21779, Note_on_c, 1, 64, 127
1, 21805, Note_off_c, 1, 71, 0
1, 21831, Note_off_c, 1, 64, 0
1, 21839, Note_on_c, 1, 57, 127
1, 21891, Note_off_c, 1, 68, 0
1, 21899, Note_on_c, 1, 61, 127
1, 21951, Note_off_c, 1, 61, 0
1, 21959, Note_on_c, 1, 66, 127
1, 22004, Note_off_c, 1, 57, 0
1, 22019, Note_on_c, 1, 62, 127
1, 22071, Note_off_c, 1, 62, 0
1, 22079, Note_on_c, 1, 56, 127
1, 22105, Note_off_c, 1, 66, 0
1, 22131, Note_off_c, 1, 56, 0
1, 22199, Note_on_c, 1, 53, 127
1, 22251, Note_off_c, 1, 53, 0
1, 22259, Note_on_c, 1, 65, 127
1, 22259, Note_on_c, 1, 49, 127
1, 22285, Note_off_c, 1, 65, 0
1, 22311, Note_off_c, 1, 49, 0
1, 22319, Note_on_c, 1, 54, 127
1, 22379, Note_on_c, 1, 70, 127
1, 22405, Note_off_c, 1, 70, 0
1, 22484, Note_off_c, 1, 54, 0
1, 22559, Note_on_c, 1, 55, 127
1, 22619, Note_on_c, 1, 63, 127
1, 22671, Note_off_c, 1, 63, 0
1, 22724, Note_off_c, 1, 55, 0
1, 22979, Note_on_c, 1, 58, 127
1, 23031, Note_off_c, 1, 58, 0
1, 23159, Note_on_c, 1, 47, 127
1, 23211, Note_off_c, 1, 47, 0
1, 23219, Note_on_c, 1, 50, 127
1, 23271, Note_off_c, 1, 50, 0
1, 23279, Note_on_c, 1, 52, 127
1, 23279, Note_on_c, 1, 67, 127
1, 23331, Note_off_c, 1, 52, 0
1, 23545, Note_off_c, 1, 67, 0
1, 23579, Note_on_c, 1, 45, 127
1, 23631, Note_off_c, 1, 45, 0
1, 23699, Note_on_c, 1, 42, 127
1, 23751, Note_off_c, 1, 42, 0
1, 23759, Note_on_c, 1, 43, 127
1, 23811, Note_off_c, 1, 43, 0
1, 23879, Note_on_c, 1, 55, 127
1, 23879, Note_on_c, 1, 40, 127
1, 23879, Note_on_c, 1, 61, 127
1, 23905, Note_off_c, 1, 55, 0
1, 23909, Note_on_c, 1, 54, 127
1, 23931, Note_off_c, 1, 40, 0
1, 23935, Note_off_c, 1, 54, 0
1, 23939, Note_on_c, 1, 52, 127
1, 23939, Note_on_c, 1, 45, 127
1, 23965, Note_off_c, 1, 52, 0
1, 23984, Note_off_c, 1, 61, 0
1, 23991, Note_off_c, 1, 45, 0
1, 23999, Note_on_c, 1, 50, 127
1, 23999, Note_on_c, 1, 54, 127
1, 23999, Note_on_c, 1, 62, 127
1, 24025, Note_off_c, 1, 50, 0
1, 24029, Note_on_c, 1, 49, 127
1, 24051, Note_off_c, 1, 54, 0
1, 24051, Note_off_c, 1, 62, 0
1, 24055, Note_off_c, 1, 49, 0
1, 24059, Note_on_c, 1, 50, 127
1, 24059, Note_on_c, 1, 66, 127
1, 24085, Note_off_c, 1, 50, 0
1, 24089, Note_on_c, 1, 52, 127
1, 24111, Note_off_c, 1, 66, 0
1, 24115, Note_off_c, 1, 52, 0
1, 24119, Note_on_c, 1, 50, 127
1, 24119, Note_on_c, 1, 71, 127
1, 24145, Note_off_c, 1, 50, 0
1, 24149, Note_on_c, 1, 55, 127
1, 24175, Note_off_c, 1, 55, 0
1, 24179, Note_on_c, 1, 54, 127
1, 24179, Note_on_c, 1, 59, 127
1, 24205, Note_off_c, 1, 54, 0
1, 24231, Note_off_c, 1, 59, 0
1, 24239, Note_on_c, 1, 49, 127
1, 24239, Note_on_c, 1, 64, 127
1, 24265, Note_off_c, 1, 49, 0
1, 24269, Note_on_c, 1, 47, 127
1, 24291, Note_off_c, 1, 71, 0
1, 24295, Note_off_c, 1, 47, 0
1, 24299, Note_on_c, 1, 70, 127
1, 24325, Note_off_c, 1, 70, 0
1, 24329, Note_on_c, 1, 68, 127
1, 24344, Note_off_c, 1, 64, 0
1, 24355, Note_off_c, 1, 68, 0
1, 24359, Note_on_c, 1, 49, 127
1, 24359, Note_on_c, 1, 70, 127
1, 24385, Note_off_c, 1, 49, 0
1, 24389, Note_on_c, 1, 54, 127
1, 24415, Note_off_c, 1, 54, 0
1, 24419, Note_on_c, 1, 52, 127
1, 24419, Note_on_c, 1, 66, 127
1, 24445, Note_off_c, 1, 52, 0
1, 24464, Note_off_c, 1, 70, 0
1, 24471, Note_off_c, 1, 66, 0
1, 24479, Note_on_c, 1, 47, 127
1, 24479, Note_on_c, 1, 62, 127
1, 24479, Note_on_c, 1, 71, 127
1, 24505, Note_off_c, 1, 47, 0
1, 24509, Note_on_c, 1, 49, 127
1, 24531, Note_off_c, 1, 62, 0
1, 24535, Note_off_c, 1, 49, 0
1, 24539, Note_on_c, 1, 50, 127
1, 24539, Note_on_c, 1, 59, 127
1, 24565, Note_off_c, 1, 50, 0
1, 24591, Note_off_c, 1, 59, 0
1, 24599, Note_on_c, 1, 52, 127
1, 24599, Note_on_c, 1, 67, 127
1, 24625, Note_off_c, 1, 52, 0
1, 24644, Note_off_c, 1, 71, 0
1, 24659, Note_on_c, 1, 76, 127
1, 24711, Note_off_c, 1, 76, 0
1, 24719, Note_on_c, 1, 69, 127
1, 24771, Note_off_c, 1, 67, 0
1, 24779, Note_on_c, 1, 66, 127
1, 24805, Note_off_c, 1, 66, 0
1, 24809, Note_on_c, 1, 64, 127
1, 24835, Note_off_c, 1, 64, 0
1, 24884, Note_off_c, 1, 69, 0
1, 24899, Note_on_c, 1, 54, 127
1, 24899, Note_on_c, 1, 74, 127
1, 24925, Note_off_c, 1, 54, 0
1, 24951, Note_off_c, 1, 74, 0
1, 25079, Note_on_c, 1, 55, 127
1, 25105, Note_off_c, 1, 55, 0
1, 25139, Note_on_c, 1, 72, 127
1, 25191, Note_off_c, 1, 72, 0
1, 25199, Note_on_c, 1, 70, 127
1, 25229, Note_on_c, 1, 56, 127
1, 25251, Note_off_c, 1, 70, 0
1, 25255, Note_off_c, 1, 56, 0
1, 25259, Note_on_c, 1, 58, 127
1, 25259, Note_on_c, 1, 62, 127
1, 25259, Note_on_c, 1, 66, 127
1, 25285, Note_off_c, 1, 58, 0
1, 25285, Note_off_c, 1, 62, 0
1, 25289, Note_on_c, 1, 54, 127
1, 25289, Note_on_c, 1, 61, 127
1, 25315, Note_off_c, 1, 54, 0
1, 25315, Note_off_c, 1, 61, 0
1, 25319, Note_on_c, 1, 59, 127
1, 25345, Note_off_c, 1, 66, 0
1, 25345, Note_off_c, 1, 59, 0
1, 25349, Note_on_c, 1, 47, 127
1, 25349, Note_on_c, 1, 71, 127
1, 25375, Note_off_c, 1, 47, 0
1, 25375, Note_off_c, 1, 71, 0
1, 25379, Note_on_c, 1, 73, 127
1, 25379, Note_on_c, 1, 59, 127
1, 25405, Note_off_c, 1, 73, 0
1, 25409, Note_on_c, 1, 74, 127
1, 25435, Note_off_c, 1, 74, 0
1, 25439, Note_on_c, 1, 65, 127
1, 25439, Note_on_c, 1, 61, 127
1, 25465, Note_off_c, 1, 59, 0
1, 25469, Note_on_c, 1, 57, 127
1, 25491, Note_off_c, 1, 65, 0
1, 25495, Note_off_c, 1, 57, 0
1, 25499, Note_on_c, 1, 56, 127
1, 25525, Note_off_c, 1, 56, 0
1, 25559, Note_on_c, 1, 66, 127
1, 25619, Note_on_c, 1, 54, 127
1, 25645, Note_off_c, 1, 54, 0
1, 25664, Note_off_c, 1, 61, 0
1, 25731, Note_off_c, 1, 66, 0
1, 25799, Note_on_c, 1, 53, 127
1, 25799, Note_on_c, 1, 68, 127
1, 25825, Note_off_c, 1, 53, 0
1, 25825, Note_off_c, 1, 68, 0
1, 25829, Note_on_c, 1, 54, 127
1, 25829, Note_on_c, 1, 69, 127
1, 25855, Note_off_c, 1, 54, 0
1, 25855, Note_off_c, 1, 69, 0
1, 25859, Note_on_c, 1, 56, 127
1, 25859, Note_on_c, 1, 71, 127
1, 25885, Note_off_c, 1, 56, 0
1, 25885, Note_off_c, 1, 71, 0
1, 25889, Note_on_c, 1, 53, 127
1, 25889, Note_on_c, 1, 68, 127
1, 25915, Note_off_c, 1, 53, 0
1, 25915, Note_off_c, 1, 68, 0
1, 25919, Note_on_c, 1, 71, 127
1, 25919, Note_on_c, 1, 54, 127
1, 25945, Note_off_c, 1, 71, 0
1, 25949, Note_on_c, 1, 69, 127
1, 25971, Note_off_c, 1, 54, 0
1, 25975, Note_off_c, 1, 69, 0
1, 25979, Note_on_c, 1, 56, 127
1, 25979, Note_on_c, 1, 68, 127
1, 26005, Note_off_c, 1, 56, 0
1, 26005, Note_off_c, 1, 68, 0
1, 26009, Note_on_c, 1, 57, 127
1, 26009, Note_on_c, 1, 66, 127
1, 26035, Note_off_c, 1, 57, 0
1, 26035, Note_off_c, 1, 66, 0
1, 26039, Note_on_c, 1, 59, 127
1, 26039, Note_on_c, 1, 74, 127
1, 26065, Note_off_c, 1, 59, 0
1, 26069, Note_on_c, 1, 57, 127
1, 26069, Note_on_c, 1, 73, 127
1, 26095, Note_off_c, 1, 57, 0
1, 26095, Note_off_c, 1, 73, 0
1, 26099, Note_on_c, 1, 56, 127
1, 26099, Note_on_c, 1, 71, 127
1, 26125, Note_off_c, 1, 56, 0
1, 26125, Note_off_c, 1, 71, 0
1, 26129, Note_on_c, 1, 54, 127
1, 26129, Note_on_c, 1, 69, 127
1, 26155, Note_off_c, 1, 54, 0
1, 26155, Note_off_c, 1, 69, 0
1, 26159, Note_on_c, 1, 52, 127
1, 26159, Note_on_c, 1, 68, 127
1, 26185, Note_off_c, 1, 52, 0
1, 26211, Note_off_c, 1, 74, 0
1, 26249, Note_on_c, 1, 50, 127
1, 26275, Note_off_c, 1, 50, 0
1, 26305, Note_off_c, 1, 68, 0
1, 26339, Note_on_c, 1, 49, 127
1, 26365, Note_off_c, 1, 49, 0
1, 26399, Note_on_c, 1, 66, 127
1, 26451, Note_off_c, 1, 66, 0
1, 26459, Note_on_c, 1, 50, 127
1, 26459, Note_on_c, 1, 69, 127
1, 26459, Note_on_c, 1, 78, 127
1, 26485, Note_off_c, 1, 50, 0
1, 26489, Note_on_c, 1, 49, 127
1, 26511, Note_off_c, 1, 69, 0
1, 26511, Note_off_c, 1, 78, 0
1, 26515, Note_off_c, 1, 49, 0
1, 26519, Note_on_c, 1, 50, 127
1, 26519, Note_on_c, 1, 68, 127
1, 26519, Note_on_c, 1, 71, 127
1, 26545, Note_off_c, 1, 50, 0
1, 26549, Note_on_c, 1, 49, 127
1, 26575, Note_off_c, 1, 49, 0
1, 26579, Note_on_c, 1, 47, 127
1, 26597, Note_off_c, 1, 68, 0
1, 26605, Note_off_c, 1, 47, 0
1, 26609, Note_on_c, 1, 66, 127
1, 26635, Note_off_c, 1, 66, 0
1, 26639, Note_on_c, 1, 65, 127
1, 26691, Note_off_c, 1, 71, 0
1, 26691, Note_off_c, 1, 65, 0
1, 26699, Note_on_c, 1, 49, 127
1, 26699, Note_on_c, 1, 69, 127
1, 26699, Note_on_c, 1, 61, 127
1, 26725, Note_off_c, 1, 49, 0
1, 26725, Note_off_c, 1, 69, 0
1, 26729, Note_on_c, 1, 47, 127
1, 26729, Note_on_c, 1, 68, 127
1, 26751, Note_off_c, 1, 61, 0
1, 26755, Note_off_c, 1, 47, 0
1, 26755, Note_off_c, 1, 68, 0
1, 26759, Note_on_c, 1, 49, 127
1, 26759, Note_on_c, 1, 69, 127
1, 26785, Note_off_c, 1, 49, 0
1, 26789, Note_on_c, 1, 47, 127
1, 26811, Note_off_c, 1, 69, 0
1, 26815, Note_off_c, 1, 47, 0
1, 26819, Note_on_c, 1, 45, 127
1, 26819, Note_on_c, 1, 66, 127
1, 26845, Note_off_c, 1, 45, 0
1, 26849, Note_on_c, 1, 49, 127
1, 26875, Note_off_c, 1, 49, 0
1, 26879, Note_on_c, 1, 47, 127
1, 26879, Note_on_c, 1, 68, 127
1, 26905, Note_off_c, 1, 47, 0
1, 26984, Note_off_c, 1, 66, 0
1, 26999, Note_on_c, 1, 65, 127
1, 27059, Note_on_c, 1, 44, 127
1, 27085, Note_off_c, 1, 44, 0
1, 27104, Note_off_c, 1, 68, 0
1, 27104, Note_off_c, 1, 65, 0
1, 27119, Note_on_c, 1, 45, 127
1, 27119, Note_on_c, 1, 66, 127
1, 27145, Note_off_c, 1, 45, 0
1, 27149, Note_on_c, 1, 44, 127
1, 27175, Note_off_c, 1, 44, 0
1, 27179, Note_on_c, 1, 42, 127
1, 27179, Note_on_c, 1, 73, 127
1, 27205, Note_off_c, 1, 42, 0
1, 27224, Note_off_c, 1, 66, 0
1, 27231, Note_off_c, 1, 73, 0
1, 27239, Note_on_c, 1, 45, 127
1, 27239, Note_on_c, 1, 78, 127
1, 27265, Note_off_c, 1, 45, 0
1, 27269, Note_on_c, 1, 47, 127
1, 27291, Note_off_c, 1, 78, 0
1, 27295, Note_off_c, 1, 47, 0
1, 27299, Note_on_c, 1, 49, 127
1, 27299, Note_on_c, 1, 81, 127
1, 27325, Note_off_c, 1, 49, 0
1, 27329, Note_on_c, 1, 51, 127
1, 27351, Note_off_c, 1, 81, 0
1, 27355, Note_off_c, 1, 51, 0
1, 27359, Note_on_c, 1, 52, 127
1, 27359, Note_on_c, 1, 80, 127
1, 27385, Note_off_c, 1, 52, 0
1, 27389, Note_on_c, 1, 51, 127
1, 27415, Note_off_c, 1, 51, 0
1, 27419, Note_on_c, 1, 49, 127
1, 27419, Note_on_c, 1, 68, 127
1, 27445, Note_off_c, 1, 49, 0
1, 27471, Note_off_c, 1, 68, 0
1, 27479, Note_on_c, 1, 73, 127
1, 27509, Note_on_c, 1, 54, 127
1, 27531, Note_off_c, 1, 73, 0
1, 27535, Note_off_c, 1, 54, 0
1, 27539, Note_on_c, 1, 56, 127
1, 27539, Note_on_c, 1, 76, 127
1, 27565, Note_off_c, 1, 56, 0
1, 27569, Note_on_c, 1, 58, 127
1, 27591, Note_off_c, 1, 76, 0
1, 27595, Note_off_c, 1, 58, 0
1, 27599, Note_on_c, 1, 60, 127
1, 27599, Note_on_c, 1, 75, 127
1, 27625, Note_off_c, 1, 60, 0
1, 27651, Note_off_c, 1, 80, 0
1, 27659, Note_on_c, 1, 81, 127
1, 27689, Note_on_c, 1, 61, 127
1, 27711, Note_off_c, 1, 81, 0
1, 27715, Note_off_c, 1, 61, 0
1, 27779, Note_on_c, 1, 63, 127
1, 27779, Note_on_c, 1, 78, 127
1, 27805, Note_off_c, 1, 63, 0
1, 27831, Note_off_c, 1, 78, 0
1, 27891, Note_off_c, 1, 75, 0
1, 27899, Note_on_c, 1, 64, 127
1, 27925, Note_off_c, 1, 64, 0
1, 27989, Note_on_c, 1, 59, 127
1, 28015, Note_off_c, 1, 59, 0
1, 28019, Note_on_c, 1, 57, 127
1, 28019, Note_on_c, 1, 71, 127
1, 28045, Note_off_c, 1, 57, 0
1, 28071, Note_off_c, 1, 71, 0
1, 28079, Note_on_c, 1, 69, 127
1, 28319, Note_on_c, 1, 72, 127
1, 28371, Note_off_c, 1, 69, 0
1, 28484, Note_off_c, 1, 72, 0
1, 28499, Note_on_c, 1, 52, 127
1, 28499, Note_on_c, 1, 75, 127
1, 28499, Note_on_c, 1, 66, 127
1, 28525, Note_off_c, 1, 52, 0
1, 28529, Note_on_c, 1, 51, 127
1, 28551, Note_off_c, 1, 75, 0
1, 28555, Note_off_c, 1, 51, 0
1, 28559, Note_on_c, 1, 68, 127
1, 28585, Note_off_c, 1, 66, 0
1, 28619, Note_on_c, 1, 64, 127
1, 28619, Note_on_c, 1, 49, 127
1, 28645, Note_off_c, 1, 64, 0
1, 28649, Note_on_c, 1, 63, 127
1, 28664, Note_off_c, 1, 68, 0
1, 28671, Note_off_c, 1, 49, 0
1, 28675, Note_off_c, 1, 63, 0
1, 28679, Note_on_c, 1, 61, 127
1, 28679, Note_on_c, 1, 57, 127
1, 28705, Note_off_c, 1, 61, 0
1, 28709, Note_on_c, 1, 63, 127
1, 28735, Note_off_c, 1, 63, 0
1, 28739, Note_on_c, 1, 64, 127
1, 28739, Note_on_c, 1, 73, 127
1, 28765, Note_off_c, 1, 64, 0
1, 28791, Note_off_c, 1, 73, 0
1, 28799, Note_on_c, 1, 71, 127
1, 28825, Note_off_c, 1, 71, 0
1, 28851, Note_off_c, 1, 57, 0
1, 28859, Note_on_c, 1, 56, 127
1, 28885, Note_off_c, 1, 56, 0
1, 28889, Note_on_c, 1, 54, 127
1, 28889, Note_on_c, 1, 69, 127
1, 28915, Note_off_c, 1, 54, 0
1, 28915, Note_off_c, 1, 69, 0
1, 28919, Note_on_c, 1, 71, 127
1, 28919, Note_on_c, 1, 56, 127
1, 28945, Note_off_c, 1, 71, 0
1, 28949, Note_on_c, 1, 69, 127
1, 28975, Note_off_c, 1, 69, 0
1, 28979, Note_on_c, 1, 68, 127
1, 28979, Note_on_c, 1, 64, 127
1, 29005, Note_off_c, 1, 68, 0
1, 29031, Note_off_c, 1, 64, 0
1, 29039, Note_on_c, 1, 61, 127
1, 29091, Note_off_c, 1, 56, 0
1, 29091, Note_off_c, 1, 61, 0
1, 29099, Note_on_c, 1, 69, 127
1, 29099, Note_on_c, 1, 61, 127
1, 29099, Note_on_c, 1, 64, 127
1, 29125, Note_off_c, 1, 69, 0
1, 29129, Note_on_c, 1, 68, 127
1, 29151, Note_off_c, 1, 61, 0
1, 29151, Note_off_c, 1, 64, 0
1, 29155, Note_off_c, 1, 68, 0
1, 29159, Note_on_c, 1, 69, 127
1, 29159, Note_on_c, 1, 63, 127
1, 29159, Note_on_c, 1, 54, 127
1, 29185, Note_off_c, 1, 69, 0
1, 29189, Note_on_c, 1, 68, 127
1, 29215, Note_off_c, 1, 68, 0
1, 29219, Note_on_c, 1, 66, 127
1, 29237, Note_off_c, 1, 63, 0
1, 29245, Note_off_c, 1, 66, 0
1, 29249, Note_on_c, 1, 61, 127
1, 29275, Note_off_c, 1, 61, 0
1, 29279, Note_on_c, 1, 60, 127
1, 29331, Note_off_c, 1, 54, 0
1, 29331, Note_off_c, 1, 60, 0
1, 29339, Note_on_c, 1, 52, 127
1, 29339, Note_on_c, 1, 68, 127
1, 29339, Note_on_c, 1, 56, 127
1, 29365, Note_off_c, 1, 52, 0
1, 29365, Note_off_c, 1, 68, 0
1, 29369, Note_on_c, 1, 51, 127
1, 29369, Note_on_c, 1, 66, 127
1, 29391, Note_off_c, 1, 56, 0
1, 29395, Note_off_c, 1, 51, 0
1, 29395, Note_off_c, 1, 66, 0
1, 29399, Note_on_c, 1, 68, 127
1, 29399, Note_on_c, 1, 52, 127
1, 29399, Note_on_c, 1, 61, 127
1, 29425, Note_off_c, 1, 68, 0
1, 29429, Note_on_c, 1, 66, 127
1, 29451, Note_off_c, 1, 52, 0
1, 29455, Note_off_c, 1, 66, 0
1, 29459, Note_on_c, 1, 64, 127
1, 29459, Note_on_c, 1, 49, 127
1, 29485, Note_off_c, 1, 64, 0
1, 29511, Note_off_c, 1, 49, 0
1, 29519, Note_on_c, 1, 51, 127
1, 29624, Note_off_c, 1, 61, 0
1, 29639, Note_on_c, 1, 60, 127
1, 29699, Note_on_c, 1, 63, 127
1, 29725, Note_off_c, 1, 63, 0
1, 29744, Note_off_c, 1, 51, 0
1, 29744, Note_off_c, 1, 60, 0
1, 29759, Note_on_c, 1, 49, 127
1, 29759, Note_on_c, 1, 61, 127
1, 29759, Note_on_c, 1, 64, 127
1, 29785, Note_off_c, 1, 49, 0
1, 29789, Note_on_c, 1, 48, 127
1, 29811, Note_off_c, 1, 61, 0
1, 29815, Note_off_c, 1, 48, 0
1, 29819, Note_on_c, 1, 56, 127
1, 29849, Note_on_c, 1, 51, 127
1, 29864, Note_off_c, 1, 64, 0
1, 29871, Note_off_c, 1, 56, 0
1, 29875, Note_off_c, 1, 51, 0
1, 29879, Note_on_c, 1, 52, 127
1, 29879, Note_on_c, 1, 61, 127
1, 29905, Note_off_c, 1, 52, 0
1, 29909, Note_on_c, 1, 54, 127
1, 29931, Note_off_c, 1, 61, 0
1, 29935, Note_off_c, 1, 54, 0
1, 29939, Note_on_c, 1, 55, 127
1, 29939, Note_on_c, 1, 64, 127
1, 29965, Note_off_c, 1, 55, 0
1, 29969, Note_on_c, 1, 52, 127
1, 29991, Note_off_c, 1, 64, 0
1, 29995, Note_off_c, 1, 52, 0
1, 29999, Note_on_c, 1, 54, 127
1, 29999, Note_on_c, 1, 58, 127
1, 30025, Note_off_c, 1, 54, 0
1, 30029, Note_on_c, 1, 55, 127
1, 30055, Note_off_c, 1, 55, 0
1, 30059, Note_on_c, 1, 67, 127
1, 30089, Note_on_c, 1, 52, 127
1, 30104, Note_off_c, 1, 58, 0
1, 30111, Note_off_c, 1, 67, 0
1, 30115, Note_off_c, 1, 52, 0
1, 30119, Note_on_c, 1, 50, 127
1, 30119, Note_on_c, 1, 59, 127
1, 30119, Note_on_c, 1, 66, 127
1, 30145, Note_off_c, 1, 50, 0
1, 30149, Note_on_c, 1, 49, 127
1, 30171, Note_off_c, 1, 59, 0
1, 30171, Note_off_c, 1, 66, 0
1, 30175, Note_off_c, 1, 49, 0
1, 30179, Note_on_c, 1, 47, 127
1, 30179, Note_on_c, 1, 64, 127
1, 30179, Note_on_c, 1, 61, 127
1, 30205, Note_off_c, 1, 47, 0
1, 30209, Note_on_c, 1, 46, 127
1, 30231, Note_off_c, 1, 64, 0
1, 30235, Note_off_c, 1, 46, 0
1, 30239, Note_on_c, 1, 62, 127
1, 30269, Note_on_c, 1, 42, 127
1, 30291, Note_off_c, 1, 61, 0
1, 30295, Note_off_c, 1, 42, 0
1, 30299, Note_on_c, 1, 54, 127
1, 30329, Note_on_c, 1, 49, 127
1, 30344, Note_off_c, 1, 62, 0
1, 30351, Note_off_c, 1, 54, 0
1, 30355, Note_off_c, 1, 49, 0
1, 30359, Note_on_c, 1, 50, 127
1, 30359, Note_on_c, 1, 59, 127
1, 30385, Note_off_c, 1, 50, 0
1, 30389, Note_on_c, 1, 52, 127
1, 30411, Note_off_c, 1, 59, 0
1, 30415, Note_off_c, 1, 52, 0
1, 30419, Note_on_c, 1, 54, 127
1, 30419, Note_on_c, 1, 62, 127
1, 30445, Note_off_c, 1, 54, 0
1, 30449, Note_on_c, 1, 50, 127
1, 30471, Note_off_c, 1, 62, 0
1, 30475, Note_off_c, 1, 50, 0
1, 30479, Note_on_c, 1, 52, 127
1, 30479, Note_on_c, 1, 56, 127
1, 30505, Note_off_c, 1, 52, 0
1, 30509, Note_on_c, 1, 54, 127
1, 30535, Note_off_c, 1, 54, 0
1, 30539, Note_on_c, 1, 66, 127
1, 30569, Note_on_c, 1, 50, 127
1, 30584, Note_off_c, 1, 56, 0
1, 30591, Note_off_c, 1, 66, 0
1, 30595, Note_off_c, 1, 50, 0
1, 30599, Note_on_c, 1, 49, 127
1, 30599, Note_on_c, 1, 57, 127
1, 30599, Note_on_c, 1, 64, 127
1, 30625, Note_off_c, 1, 49, 0
1, 30629, Note_on_c, 1, 47, 127
1, 30651, Note_off_c, 1, 57, 0
1, 30651, Note_off_c, 1, 64, 0
1, 30655, Note_off_c, 1, 47, 0
1, 30659, Note_on_c, 1, 45, 127
1, 30659, Note_on_c, 1, 62, 127
1, 30659, Note_on_c, 1, 59, 127
1, 30685, Note_off_c, 1, 45, 0
1, 30689, Note_on_c, 1, 44, 127
1, 30711, Note_off_c, 1, 62, 0
1, 30715, Note_off_c, 1, 44, 0
1, 30719, Note_on_c, 1, 61, 127
1, 30749, Note_on_c, 1, 40, 127
1, 30771, Note_off_c, 1, 59, 0
1, 30775, Note_off_c, 1, 40, 0
1, 30779, Note_on_c, 1, 57, 127
1, 30805, Note_off_c, 1, 57, 0
1, 30809, Note_on_c, 1, 47, 127
1, 30809, Note_on_c, 1, 56, 127
1, 30835, Note_off_c, 1, 47, 0
1, 30835, Note_off_c, 1, 56, 0
1, 30839, Note_on_c, 1, 49, 127
1, 30865, Note_off_c, 1, 49, 0
1, 30869, Note_on_c, 1, 50, 127
1, 30884, Note_off_c, 1, 61, 0
1, 30895, Note_off_c, 1, 50, 0
1, 30899, Note_on_c, 1, 52, 127
1, 30925, Note_off_c, 1, 52, 0
1, 30959, Note_on_c, 1, 66, 127
1, 31124, Note_off_c, 1, 66, 0
1, 31139, Note_on_c, 1, 65, 127
1, 31165, Note_off_c, 1, 65, 0
1, 31169, Note_on_c, 1, 42, 127
1, 31199, Note_off_c, 1, 42, 0
1, 31199, Note_on_c, 1, 41, 127
1, 31199, Note_on_c, 1, 68, 127
1, 31251, Note_off_c, 1, 41, 0
1, 31251, Note_off_c, 1, 68, 0
1, 31259, Note_on_c, 1, 63, 127
1, 31259, Note_on_c, 1, 66, 127
1, 31259, Note_on_c, 1, 37, 127
1, 31285, Note_off_c, 1, 63, 0
1, 31285, Note_off_c, 1, 66, 0
1, 31289, Note_on_c, 1, 65, 127
1, 31289, Note_on_c, 1, 68, 127
1, 31311, Note_off_c, 1, 37, 0
1, 31315, Note_off_c, 1, 65, 0
1, 31315, Note_off_c, 1, 68, 0
1, 31319, Note_on_c, 1, 66, 127
1, 31319, Note_on_c, 1, 42, 127
1, 31345, Note_off_c, 1, 66, 0
1, 31349, Note_on_c, 1, 68, 127
1, 31375, Note_off_c, 1, 68, 0
1, 31379, Note_on_c, 1, 69, 127
1, 31424, Note_off_c, 1, 69, 0
1, 31439, Note_on_c, 1, 71, 127
1, 31465, Note_off_c, 1, 71, 0
1, 31469, Note_on_c, 1, 73, 127
1, 31495, Note_off_c, 1, 73, 0
1, 31544, Note_off_c, 1, 42, 0
1, 31559, Note_on_c, 1, 71, 127
1, 31559, Note_on_c, 1, 41, 127
1, 31585, Note_off_c, 1, 71, 0
1, 31589, Note_on_c, 1, 69, 127
1, 31615, Note_off_c, 1, 69, 0
1, 31619, Note_on_c, 1, 68, 127
1, 31619, Note_on_c, 1, 73, 127
1, 31645, Note_off_c, 1, 68, 0
1, 31664, Note_off_c, 1, 41, 0
1, 31671, Note_off_c, 1, 73, 0
1, 31679, Note_on_c, 1, 42, 127
1, 31679, Note_on_c, 1, 66, 127
1, 31679, Note_on_c, 1, 69, 127
1, 31705, Note_off_c, 1, 42, 0
1, 31709, Note_on_c, 1, 54, 127
1, 31731, Note_off_c, 1, 66, 0
1, 31731, Note_off_c, 1, 69, 0
1, 31735, Note_off_c, 1, 54, 0
1, 31739, Note_on_c, 1, 56, 127
1, 31739, Note_on_c, 1, 66, 127
1, 31765, Note_off_c, 1, 56, 0
1, 31769, Note_on_c, 1, 57, 127
1, 31791, Note_off_c, 1, 66, 0
1, 31795, Note_off_c, 1, 57, 0
1, 31799, Note_on_c, 1, 59, 127
1, 31799, Note_on_c, 1, 74, 127
1, 31825, Note_off_c, 1, 59, 0
1, 31829, Note_on_c, 1, 61, 127
1, 31855, Note_off_c, 1, 61, 0
1, 31859, Note_on_c, 1, 66, 127
1, 31889, Note_on_c, 1, 57, 127
1, 31911, Note_off_c, 1, 66, 0
1, 31915, Note_off_c, 1, 57, 0
1, 31919, Note_on_c, 1, 64, 127
1, 31919, Note_on_c, 1, 56, 127
1, 31945, Note_off_c, 1, 64, 0
1, 31971, Note_off_c, 1, 74, 0
1, 31979, Note_on_c, 1, 73, 127
1, 32005, Note_off_c, 1, 73, 0
1, 32009, Note_on_c, 1, 62, 127
1, 32009, Note_on_c, 1, 71, 127
1, 32024, Note_off_c, 1, 56, 0
1, 32035, Note_off_c, 1, 62, 0
1, 32035, Note_off_c, 1, 71, 0
1, 32039, Note_on_c, 1, 64, 127
1, 32039, Note_on_c, 1, 73, 127
1, 32065, Note_off_c, 1, 64, 0
1, 32069, Note_on_c, 1, 62, 127
1, 32095, Note_off_c, 1, 62, 0
1, 32099, Note_on_c, 1, 61, 127
1, 32099, Note_on_c, 1, 58, 127
1, 32125, Note_off_c, 1, 61, 0
1, 32151, Note_off_c, 1, 58, 0
1, 32159, Note_on_c, 1, 59, 127
1, 32211, Note_off_c, 1, 73, 0
1, 32211, Note_off_c, 1, 59, 0
1, 32219, Note_on_c, 1, 62, 127
1, 32219, Note_on_c, 1, 57, 127
1, 32219, Note_on_c, 1, 78, 127
1, 32245, Note_off_c, 1, 62, 0
1, 32249, Note_on_c, 1, 61, 127
1, 32271, Note_off_c, 1, 57, 0
1, 32271, Note_off_c, 1, 78, 0
1, 32275, Note_off_c, 1, 61, 0
1, 32279, Note_on_c, 1, 62, 127
1, 32279, Note_on_c, 1, 56, 127
1, 32279, Note_on_c, 1, 71, 127
1, 32305, Note_off_c, 1, 62, 0
1, 32309, Note_on_c, 1, 61, 127
1, 32335, Note_off_c, 1, 61, 0
1, 32339, Note_on_c, 1, 59, 127
1, 32357, Note_off_c, 1, 56, 0
1, 32365, Note_off_c, 1, 59, 0
1, 32369, Note_on_c, 1, 54, 127
1, 32395, Note_off_c, 1, 54, 0
1, 32399, Note_on_c, 1, 53, 127
1, 32451, Note_off_c, 1, 71, 0
1, 32451, Note_off_c, 1, 53, 0
1, 32459, Note_on_c, 1, 61, 127
1, 32459, Note_on_c, 1, 69, 127
1, 32459, Note_on_c, 1, 49, 127
1, 32485, Note_off_c, 1, 61, 0
1, 32485, Note_off_c, 1, 69, 0
1, 32489, Note_on_c, 1, 59, 127
1, 32489, Note_on_c, 1, 68, 127
1, 32511, Note_off_c, 1, 49, 0
1, 32515, Note_off_c, 1, 59, 0
1, 32515, Note_off_c, 1, 68, 0
1, 32519, Note_on_c, 1, 61, 127
1, 32519, Note_on_c, 1, 69, 127
1, 32519, Note_on_c, 1, 54, 127
1, 32545, Note_off_c, 1, 61, 0
1, 32549, Note_on_c, 1, 59, 127
1, 32571, Note_off_c, 1, 69, 0
1, 32575, Note_off_c, 1, 59, 0
1, 32579, Note_on_c, 1, 57, 127
1, 32579, Note_on_c, 1, 66, 127
1, 32605, Note_off_c, 1, 57, 0
1, 32631, Note_off_c, 1, 66, 0
1, 32639, Note_on_c, 1, 68, 127
1, 32744, Note_off_c, 1, 54, 0
1, 32759, Note_on_c, 1, 53, 127
1, 32819, Note_on_c, 1, 56, 127
1, 32845, Note_off_c, 1, 56, 0
1, 32864, Note_off_c, 1, 53, 0
1, 32905, Note_off_c, 1, 68, 0
1, 32939, Note_on_c, 1, 50, 127
1, 32969, Note_on_c, 1, 65, 127
1, 32991, Note_off_c, 1, 50, 0
1, 32999, Note_on_c, 1, 45, 127
1, 33025, Note_off_c, 1, 65, 0
1, 33051, Note_off_c, 1, 45, 0
1, 33059, Note_on_c, 1, 47, 127
1, 33059, Note_on_c, 1, 62, 127
1, 33111, Note_off_c, 1, 47, 0
1, 33111, Note_off_c, 1, 62, 0
1, 33119, Note_on_c, 1, 61, 127
1, 33119, Note_on_c, 1, 49, 127
1, 33119, Note_on_c, 1, 57, 127
1, 33171, Note_off_c, 1, 61, 0
1, 33179, Note_on_c, 1, 66, 127
1, 33224, Note_off_c, 1, 49, 0
1, 33224, Note_off_c, 1, 57, 0
1, 33239, Note_on_c, 1, 37, 127
1, 33239, Note_on_c, 1, 56, 127
1, 33291, Note_off_c, 1, 66, 0
1, 33299, Note_on_c, 1, 65, 127
1, 33344, Note_off_c, 1, 37, 0
1, 33344, Note_off_c, 1, 56, 0
1, 33351, Note_off_c, 1, 65, 0
1, 33359, Note_on_c, 1, 42, 127
1, 33359, Note_on_c, 1, 54, 127
1, 33359, Note_on_c, 1, 66, 127
1, 33584, Note_off_c, 1, 42, 0
1, 33584, Note_off_c, 1, 54, 0
1, 33584, Note_off_c, 1, 66, 0
1, 33584, End_track
0, 0, End_of_file