0, 0, Header, 1, 1, 480
1, 0, Start_track
1, 0, Title_t, "Test"
1, 0, Tempo, 500000
1, 0, Instrument_name_t, "Church Organ"
1, 48, Note_on_c, 1, 74, 127
1, 648, Note_off_c, 1, 74, 0
1, 654, Note_on_c, 1, 70, 127
1, 956, Note_on_c, 1, 62, 127
1, 1102, Note_off_c, 1, 70, 0
1, 1106, Note_off_c, 1, 62, 0
1, 1108, Note_on_c, 1, 69, 127
1, 1108, Note_on_c, 1, 60, 127
1, 1256, Note_off_c, 1, 69, 0
1, 1258, Note_off_c, 1, 60, 0
1, 1260, Note_on_c, 1, 58, 127
1, 1260, Note_on_c, 1, 67, 127
1, 1410, Note_off_c, 1, 58, 0
1, 1412, Note_on_c, 1, 60, 127
1, 1562, Note_off_c, 1, 60, 0
1, 1564, Note_on_c, 1, 62, 127
1, 1712, Note_off_c, 1, 62, 0
1, 1716, Note_on_c, 1, 57, 127
1, 1858, Note_off_c, 1, 67, 0
1, 1868, Note_off_c, 1, 57, 0
1, 1870, Note_on_c, 1, 55, 127
1, 1870, Note_on_c, 1, 58, 127
1, 2020, Note_off_c, 1, 55, 0
1, 2022, Note_on_c, 1, 57, 127
1, 2168, Note_off_c, 1, 58, 0
1, 2172, Note_off_c, 1, 57, 0
1, 2174, Note_on_c, 1, 55, 127
1, 2174, Note_on_c, 1, 67, 127
1, 2174, Note_on_c, 1, 74, 127
1, 2174, Note_on_c, 1, 70, 127
1, 2324, Note_off_c, 1, 55, 0
1, 2326, Note_on_c, 1, 53, 127
1, 2472, Note_off_c, 1, 67, 0
1, 2472, Note_off_c, 1, 74, 0
1, 2472, Note_off_c, 1, 70, 0
1, 2476, Note_off_c, 1, 53, 0
1, 2478, Note_on_c, 1, 51, 127
1, 2478, Note_on_c, 1, 79, 127
1, 2478, Note_on_c, 1, 67, 127
1, 2478, Note_on_c, 1, 70, 127
1, 2626, Note_off_c, 1, 51, 0
1, 2774, Note_off_c, 1, 79, 0
1, 2774, Note_off_c, 1, 67, 0
1, 2774, Note_off_c, 1, 70, 0
1, 2780, Note_on_c, 1, 50, 127
1, 2780, Note_on_c, 1, 79, 127
1, 2780, Note_on_c, 1, 69, 127
1, 2780, Note_on_c, 1, 75, 127
1, 2930, Note_off_c, 1, 50, 0
1, 2932, Note_on_c, 1, 48, 127
1, 3078, Note_off_c, 1, 79, 0
1, 3078, Note_off_c, 1, 69, 0
1, 3078, Note_off_c, 1, 75, 0
1, 3082, Note_off_c, 1, 48, 0
1, 3084, Note_on_c, 1, 78, 127
1, 3084, Note_on_c, 1, 50, 127
1, 3084, Note_on_c, 1, 69, 127
1, 3382, Note_off_c, 1, 78, 0
1, 3386, Note_off_c, 1, 50, 0
1, 3388, Note_on_c, 1, 76, 127
1, 3388, Note_on_c, 1, 38, 127
1, 3536, Note_off_c, 1, 76, 0
1, 3680, Note_off_c, 1, 69, 0
1, 3690, Note_off_c, 1, 38, 0
1, 3692, Note_on_c, 1, 70, 127
1, 3692, Note_on_c, 1, 79, 127
1, 3692, Note_on_c, 1, 67, 127
1, 3692, Note_on_c, 1, 43, 127
1, 3990, Note_off_c, 1, 70, 0
1, 3990, Note_off_c, 1, 79, 0
1, 3996, Note_on_c, 1, 74, 127
1, 4288, Note_off_c, 1, 67, 0
1, 4292, Note_off_c, 1, 43, 0
1, 4294, Note_off_c, 1, 74, 0
1, 4298, Note_on_c, 1, 70, 127
1, 4596, Note_off_c, 1, 70, 0
1, 4602, Note_on_c, 1, 67, 127
1, 4602, Note_on_c, 1, 58, 127
1, 4602, Note_on_c, 1, 62, 127
1, 4900, Note_off_c, 1, 67, 0
1, 4904, Note_off_c, 1, 58, 0
1, 4904, Note_off_c, 1, 62, 0
1, 4906, Note_on_c, 1, 77, 127
1, 4906, Note_on_c, 1, 57, 127
1, 4906, Note_on_c, 1, 60, 127
1, 5204, Note_off_c, 1, 77, 0
1, 5208, Note_on_c, 1, 72, 127
1, 5506, Note_off_c, 1, 72, 0
1, 5512, Note_on_c, 1, 69, 127
1, 5664, Note_off_c, 1, 57, 0
1, 5664, Note_off_c, 1, 60, 0
1, 5810, Note_off_c, 1, 69, 0
1, 5814, Note_on_c, 1, 65, 127
1, 5814, Note_on_c, 1, 60, 127
1, 5814, Note_on_c, 1, 57, 127
1, 6112, Note_off_c, 1, 65, 0
1, 6116, Note_off_c, 1, 60, 0
1, 6116, Note_off_c, 1, 57, 0
1, 6118, Note_on_c, 1, 75, 127
1, 6118, Note_on_c, 1, 55, 127
1, 6118, Note_on_c, 1, 58, 127
1, 6416, Note_off_c, 1, 75, 0
1, 6422, Note_on_c, 1, 70, 127
1, 6720, Note_off_c, 1, 70, 0
1, 6724, Note_on_c, 1, 67, 127
1, 6876, Note_off_c, 1, 55, 0
1, 6876, Note_off_c, 1, 58, 0
1, 7022, Note_off_c, 1, 67, 0
1, 7028, Note_on_c, 1, 63, 127
1, 7028, Note_on_c, 1, 58, 127
1, 7028, Note_on_c, 1, 55, 127
1, 7326, Note_off_c, 1, 63, 0
1, 7330, Note_off_c, 1, 58, 0
1, 7330, Note_off_c, 1, 55, 0
1, 7332, Note_on_c, 1, 74, 127
1, 7332, Note_on_c, 1, 54, 127
1, 7332, Note_on_c, 1, 57, 127
1, 7630, Note_off_c, 1, 74, 0
1, 7634, Note_on_c, 1, 69, 127
1, 7932, Note_off_c, 1, 69, 0
1, 7938, Note_on_c, 1, 66, 127
1, 8154, Note_off_c, 1, 54, 0
1, 8154, Note_off_c, 1, 57, 0
1, 8236, Note_off_c, 1, 66, 0
1, 8240, Note_on_c, 1, 62, 127
1, 8240, Note_on_c, 1, 55, 127
1, 8240, Note_on_c, 1, 58, 127
1, 8538, Note_off_c, 1, 62, 0
1, 8542, Note_off_c, 1, 55, 0
1, 8542, Note_off_c, 1, 58, 0
1, 8544, Note_on_c, 1, 72, 127
1, 8544, Note_on_c, 1, 60, 127
1, 8544, Note_on_c, 1, 57, 127
1, 8842, Note_off_c, 1, 72, 0
1, 8846, Note_off_c, 1, 60, 0
1, 8846, Note_off_c, 1, 57, 0
1, 8848, Note_on_c, 1, 69, 127
1, 8848, Note_on_c, 1, 62, 127
1, 8848, Note_on_c, 1, 58, 127
1, 8996, Note_off_c, 1, 69, 0
1, 9000, Note_on_c, 1, 70, 127
1, 9148, Note_off_c, 1, 70, 0
1, 9150, Note_off_c, 1, 62, 0
1, 9150, Note_off_c, 1, 58, 0
1, 9152, Note_on_c, 1, 72, 127
1, 9152, Note_on_c, 1, 60, 127
1, 9152, Note_on_c, 1, 57, 127
1, 9450, Note_off_c, 1, 72, 0
1, 9454, Note_off_c, 1, 60, 0
1, 9454, Note_off_c, 1, 57, 0
1, 9456, Note_on_c, 1, 72, 127
1, 9456, Note_on_c, 1, 55, 127
1, 9456, Note_on_c, 1, 58, 127
1, 9754, Note_off_c, 1, 72, 0
1, 9758, Note_off_c, 1, 55, 0
1, 9758, Note_off_c, 1, 58, 0
1, 9760, Note_on_c, 1, 72, 127
1, 9760, Note_on_c, 1, 54, 127
1, 9760, Note_on_c, 1, 57, 127
1, 10058, Note_off_c, 1, 72, 0
1, 10062, Note_off_c, 1, 54, 0
1, 10062, Note_off_c, 1, 57, 0
1, 10064, Note_on_c, 1, 69, 127
1, 10064, Note_on_c, 1, 52, 127
1, 10064, Note_on_c, 1, 55, 127
1, 10212, Note_off_c, 1, 69, 0
1, 10214, Note_on_c, 1, 70, 127
1, 10362, Note_off_c, 1, 70, 0
1, 10366, Note_off_c, 1, 52, 0
1, 10366, Note_off_c, 1, 55, 0
1, 10366, Note_on_c, 1, 72, 127
1, 10366, Note_on_c, 1, 50, 127
1, 10366, Note_on_c, 1, 54, 127
1, 10664, Note_off_c, 1, 72, 0
1, 10668, Note_off_c, 1, 50, 0
1, 10668, Note_off_c, 1, 54, 0
1, 10670, Note_on_c, 1, 72, 127
1, 10670, Note_on_c, 1, 52, 127
1, 10670, Note_on_c, 1, 55, 127
1, 10968, Note_off_c, 1, 72, 0
1, 10972, Note_off_c, 1, 52, 0
1, 10972, Note_off_c, 1, 55, 0
1, 10974, Note_on_c, 1, 75, 127
1, 10974, Note_on_c, 1, 54, 127
1, 10974, Note_on_c, 1, 57, 127
1, 11272, Note_off_c, 1, 75, 0
1, 11276, Note_off_c, 1, 54, 0
1, 11276, Note_off_c, 1, 57, 0
1, 11278, Note_on_c, 1, 72, 127
1, 11278, Note_on_c, 1, 55, 127
1, 11278, Note_on_c, 1, 58, 127
1, 11426, Note_off_c, 1, 72, 0
1, 11430, Note_on_c, 1, 74, 127
1, 11578, Note_off_c, 1, 74, 0
1, 11580, Note_off_c, 1, 55, 0
1, 11580, Note_off_c, 1, 58, 0
1, 11582, Note_on_c, 1, 75, 127
1, 11582, Note_on_c, 1, 60, 127
1, 11582, Note_on_c, 1, 57, 127
1, 11880, Note_off_c, 1, 75, 0
1, 11884, Note_off_c, 1, 60, 0
1, 11884, Note_off_c, 1, 57, 0
1, 11886, Note_on_c, 1, 75, 127
1, 11886, Note_on_c, 1, 62, 127
1, 11886, Note_on_c, 1, 58, 127
1, 12184, Note_off_c, 1, 75, 0
1, 12188, Note_off_c, 1, 62, 0
1, 12188, Note_off_c, 1, 58, 0
1, 12190, Note_on_c, 1, 60, 127
1, 12190, Note_on_c, 1, 63, 127
1, 12190, Note_on_c, 1, 69, 127
1, 12190, Note_on_c, 1, 72, 127
1, 12190, Note_on_c, 1, 66, 127
1, 12190, Note_on_c, 1, 75, 127
1, 12492, Note_off_c, 1, 60, 0
1, 12494, Note_on_c, 1, 57, 127
1, 12644, Note_off_c, 1, 57, 0
1, 12646, Note_on_c, 1, 58, 127
1, 12792, Note_off_c, 1, 63, 0
1, 12796, Note_off_c, 1, 58, 0
1, 12946, Note_off_c, 1, 69, 0
1, 12946, Note_off_c, 1, 72, 0
1, 12946, Note_off_c, 1, 66, 0
1, 12946, Note_off_c, 1, 75, 0
1, 13102, Note_on_c, 1, 62, 127
1, 13102, Note_on_c, 1, 66, 127
1, 13102, Note_on_c, 1, 57, 127
1, 13102, Note_on_c, 1, 48, 127
1, 13400, Note_off_c, 1, 62, 0
1, 13400, Note_off_c, 1, 66, 0
1, 13404, Note_off_c, 1, 57, 0
1, 13404, Note_off_c, 1, 48, 0
1, 13406, Note_on_c, 1, 46, 127
1, 13406, Note_on_c, 1, 67, 127
1, 13406, Note_on_c, 1, 62, 127
1, 13406, Note_on_c, 1, 55, 127
1, 13708, Note_off_c, 1, 46, 0
1, 13710, Note_on_c, 1, 48, 127
1, 13856, Note_off_c, 1, 67, 0
1, 13860, Note_on_c, 1, 69, 127
1, 14002, Note_off_c, 1, 62, 0
1, 14008, Note_off_c, 1, 55, 0
1, 14010, Note_off_c, 1, 69, 0
1, 14012, Note_off_c, 1, 48, 0
1, 14014, Note_on_c, 1, 70, 127
1, 14014, Note_on_c, 1, 66, 127
1, 14014, Note_on_c, 1, 50, 127
1, 14114, Note_off_c, 1, 70, 0
1, 14114, Note_on_c, 1, 69, 127
1, 14164, Note_off_c, 1, 69, 0
1, 14318, Note_on_c, 1, 38, 127
1, 14464, Note_off_c, 1, 66, 0
1, 14470, Note_on_c, 1, 67, 127
1, 14616, Note_off_c, 1, 50, 0
1, 14618, Note_off_c, 1, 67, 0
1, 14620, Note_off_c, 1, 38, 0
1, 14622, Note_on_c, 1, 67, 127
1, 14622, Note_on_c, 1, 43, 127
1, 14924, Note_on_c, 1, 79, 127
1, 15218, Note_off_c, 1, 67, 0
1, 15222, Note_off_c, 1, 43, 0
1, 15222, Note_off_c, 1, 79, 0
1, 15228, Note_on_c, 1, 74, 127
1, 15380, Note_on_c, 1, 55, 127
1, 15526, Note_off_c, 1, 74, 0
1, 15530, Note_off_c, 1, 55, 0
1, 15532, Note_on_c, 1, 53, 127
1, 15532, Note_on_c, 1, 70, 127
1, 15682, Note_off_c, 1, 53, 0
1, 15684, Note_on_c, 1, 51, 127
1, 15830, Note_off_c, 1, 70, 0
1, 15834, Note_off_c, 1, 51, 0
1, 15836, Note_on_c, 1, 50, 127
1, 15836, Note_on_c, 1, 77, 127
1, 15986, Note_off_c, 1, 50, 0
1, 15988, Note_on_c, 1, 51, 127
1, 16134, Note_off_c, 1, 77, 0
1, 16138, Note_off_c, 1, 51, 0
1, 16140, Note_on_c, 1, 50, 127
1, 16140, Note_on_c, 1, 77, 127
1, 16290, Note_off_c, 1, 50, 0
1, 16292, Note_on_c, 1, 48, 127
1, 16438, Note_off_c, 1, 77, 0
1, 16442, Note_off_c, 1, 48, 0
1, 16444, Note_on_c, 1, 46, 127
1, 16444, Note_on_c, 1, 77, 127
1, 16594, Note_off_c, 1, 46, 0
1, 16596, Note_on_c, 1, 50, 127
1, 16742, Note_off_c, 1, 77, 0
1, 16746, Note_off_c, 1, 50, 0
1, 16748, Note_on_c, 1, 75, 127
1, 16748, Note_on_c, 1, 48, 127
1, 16896, Note_off_c, 1, 75, 0
1, 16898, Note_off_c, 1, 48, 0
1, 16900, Note_on_c, 1, 77, 127
1, 16900, Note_on_c, 1, 46, 127
1, 17048, Note_off_c, 1, 77, 0
1, 17050, Note_off_c, 1, 46, 0
1, 17052, Note_on_c, 1, 51, 127
1, 17052, Note_on_c, 1, 79, 127
1, 17202, Note_off_c, 1, 51, 0
1, 17204, Note_on_c, 1, 53, 127
1, 17350, Note_off_c, 1, 79, 0
1, 17354, Note_off_c, 1, 53, 0
1, 17356, Note_on_c, 1, 51, 127
1, 17356, Note_on_c, 1, 79, 127
1, 17506, Note_off_c, 1, 51, 0
1, 17508, Note_on_c, 1, 50, 127
1, 17654, Note_off_c, 1, 79, 0
1, 17658, Note_off_c, 1, 50, 0
1, 17660, Note_on_c, 1, 48, 127
1, 17660, Note_on_c, 1, 79, 127
1, 17810, Note_off_c, 1, 48, 0
1, 17812, Note_on_c, 1, 51, 127
1, 17958, Note_off_c, 1, 79, 0
1, 17962, Note_off_c, 1, 51, 0
1, 17964, Note_on_c, 1, 77, 127
1, 17964, Note_on_c, 1, 50, 127
1, 18112, Note_off_c, 1, 77, 0
1, 18114, Note_off_c, 1, 50, 0
1, 18116, Note_on_c, 1, 79, 127
1, 18116, Note_on_c, 1, 48, 127
1, 18264, Note_off_c, 1, 79, 0
1, 18266, Note_off_c, 1, 48, 0
1, 18268, Note_on_c, 1, 53, 127
1, 18268, Note_on_c, 1, 81, 127
1, 18418, Note_off_c, 1, 53, 0
1, 18420, Note_on_c, 1, 55, 127
1, 18566, Note_off_c, 1, 81, 0
1, 18570, Note_off_c, 1, 55, 0
1, 18572, Note_on_c, 1, 53, 127
1, 18572, Note_on_c, 1, 81, 127
1, 18722, Note_off_c, 1, 53, 0
1, 18724, Note_on_c, 1, 51, 127
1, 18870, Note_off_c, 1, 81, 0
1, 18874, Note_off_c, 1, 51, 0
1, 18876, Note_on_c, 1, 50, 127
1, 18876, Note_on_c, 1, 81, 127
1, 19026, Note_off_c, 1, 50, 0
1, 19028, Note_on_c, 1, 53, 127
1, 19174, Note_off_c, 1, 81, 0
1, 19178, Note_off_c, 1, 53, 0
1, 19180, Note_on_c, 1, 79, 127
1, 19180, Note_on_c, 1, 51, 127
1, 19328, Note_off_c, 1, 79, 0
1, 19330, Note_off_c, 1, 51, 0
1, 19332, Note_on_c, 1, 81, 127
1, 19332, Note_on_c, 1, 50, 127
1, 19480, Note_off_c, 1, 81, 0
1, 19482, Note_off_c, 1, 50, 0
1, 19484, Note_on_c, 1, 55, 127
1, 19484, Note_on_c, 1, 82, 127
1, 19634, Note_off_c, 1, 55, 0
1, 19636, Note_on_c, 1, 57, 127
1, 19782, Note_off_c, 1, 82, 0
1, 19786, Note_off_c, 1, 57, 0
1, 19788, Note_on_c, 1, 55, 127
1, 19788, Note_on_c, 1, 70, 127
1, 19938, Note_off_c, 1, 55, 0
1, 19940, Note_on_c, 1, 53, 127
1, 20086, Note_off_c, 1, 70, 0
1, 20090, Note_off_c, 1, 53, 0
1, 20092, Note_on_c, 1, 51, 127
1, 20092, Note_on_c, 1, 70, 127
1, 20242, Note_off_c, 1, 51, 0
1, 20244, Note_on_c, 1, 55, 127
1, 20390, Note_off_c, 1, 70, 0
1, 20394, Note_off_c, 1, 55, 0
1, 20396, Note_on_c, 1, 69, 127
1, 20396, Note_on_c, 1, 53, 127
1, 20544, Note_off_c, 1, 69, 0
1, 20546, Note_off_c, 1, 53, 0
1, 20548, Note_on_c, 1, 70, 127
1, 20548, Note_on_c, 1, 51, 127
1, 20696, Note_off_c, 1, 70, 0
1, 20698, Note_off_c, 1, 51, 0
1, 20700, Note_on_c, 1, 57, 127
1, 20700, Note_on_c, 1, 72, 127
1, 20850, Note_off_c, 1, 57, 0
1, 20852, Note_on_c, 1, 58, 127
1, 20998, Note_off_c, 1, 72, 0
1, 21002, Note_off_c, 1, 58, 0
1, 21004, Note_on_c, 1, 57, 127
1, 21004, Note_on_c, 1, 72, 127
1, 21154, Note_off_c, 1, 57, 0
1, 21156, Note_on_c, 1, 55, 127
1, 21302, Note_off_c, 1, 72, 0
1, 21306, Note_off_c, 1, 55, 0
1, 21308, Note_on_c, 1, 53, 127
1, 21308, Note_on_c, 1, 72, 127
1, 21458, Note_off_c, 1, 53, 0
1, 21460, Note_on_c, 1, 57, 127
1, 21606, Note_off_c, 1, 72, 0
1, 21610, Note_off_c, 1, 57, 0
1, 21612, Note_on_c, 1, 70, 127
1, 21612, Note_on_c, 1, 55, 127
1, 21760, Note_off_c, 1, 70, 0
1, 21762, Note_off_c, 1, 55, 0
1, 21764, Note_on_c, 1, 72, 127
1, 21764, Note_on_c, 1, 53, 127
1, 21912, Note_off_c, 1, 72, 0
1, 21914, Note_off_c, 1, 53, 0
1, 21916, Note_on_c, 1, 58, 127
1, 21916, Note_on_c, 1, 74, 127
1, 22066, Note_off_c, 1, 58, 0
1, 22068, Note_on_c, 1, 60, 127
1, 22214, Note_off_c, 1, 74, 0
1, 22218, Note_off_c, 1, 60, 0
1, 22220, Note_on_c, 1, 58, 127
1, 22220, Note_on_c, 1, 74, 127
1, 22370, Note_off_c, 1, 58, 0
1, 22372, Note_on_c, 1, 57, 127
1, 22518, Note_off_c, 1, 74, 0
1, 22522, Note_off_c, 1, 57, 0
1, 22524, Note_on_c, 1, 55, 127
1, 22524, Note_on_c, 1, 74, 127
1, 22674, Note_off_c, 1, 55, 0
1, 22676, Note_on_c, 1, 58, 127
1, 22822, Note_off_c, 1, 74, 0
1, 22826, Note_off_c, 1, 58, 0
1, 22828, Note_on_c, 1, 72, 127
1, 22828, Note_on_c, 1, 57, 127
1, 22976, Note_off_c, 1, 72, 0
1, 22978, Note_off_c, 1, 57, 0
1, 22980, Note_on_c, 1, 74, 127
1, 22980, Note_on_c, 1, 55, 127
1, 23128, Note_off_c, 1, 74, 0
1, 23130, Note_off_c, 1, 55, 0
1, 23132, Note_on_c, 1, 60, 127
1, 23132, Note_on_c, 1, 75, 127
1, 23282, Note_off_c, 1, 60, 0
1, 23284, Note_on_c, 1, 62, 127
1, 23430, Note_off_c, 1, 75, 0
1, 23434, Note_off_c, 1, 62, 0
1, 23436, Note_on_c, 1, 60, 127
1, 23436, Note_on_c, 1, 75, 127
1, 23586, Note_off_c, 1, 60, 0
1, 23588, Note_on_c, 1, 58, 127
1, 23716, Note_off_c, 1, 75, 0
1, 23738, Note_off_c, 1, 58, 0
1, 23740, Note_on_c, 1, 57, 127
1, 23740, Note_on_c, 1, 76, 127
1, 23890, Note_off_c, 1, 57, 0
1, 23892, Note_on_c, 1, 60, 127
1, 24038, Note_off_c, 1, 76, 0
1, 24042, Note_off_c, 1, 60, 0
1, 24044, Note_on_c, 1, 74, 127
1, 24044, Note_on_c, 1, 58, 127
1, 24192, Note_off_c, 1, 74, 0
1, 24194, Note_off_c, 1, 58, 0
1, 24196, Note_on_c, 1, 76, 127
1, 24196, Note_on_c, 1, 57, 127
1, 24344, Note_off_c, 1, 76, 0
1, 24346, Note_off_c, 1, 57, 0
1, 24348, Note_on_c, 1, 62, 127
1, 24348, Note_on_c, 1, 77, 127
1, 24498, Note_off_c, 1, 62, 0
1, 24500, Note_on_c, 1, 65, 127
1, 24646, Note_off_c, 1, 77, 0
1, 24650, Note_off_c, 1, 65, 0
1, 24652, Note_on_c, 1, 63, 127
1, 24652, Note_on_c, 1, 77, 127
1, 24802, Note_off_c, 1, 63, 0
1, 24804, Note_on_c, 1, 62, 127
1, 24932, Note_off_c, 1, 77, 0
1, 24954, Note_off_c, 1, 62, 0
1, 24956, Note_on_c, 1, 60, 127
1, 24956, Note_on_c, 1, 78, 127
1, 25106, Note_off_c, 1, 60, 0
1, 25108, Note_on_c, 1, 63, 127
1, 25254, Note_off_c, 1, 78, 0
1, 25258, Note_off_c, 1, 63, 0
1, 25260, Note_on_c, 1, 76, 127
1, 25260, Note_on_c, 1, 62, 127
1, 25408, Note_off_c, 1, 76, 0
1, 25410, Note_off_c, 1, 62, 0
1, 25412, Note_on_c, 1, 78, 127
1, 25412, Note_on_c, 1, 60, 127
1, 25560, Note_off_c, 1, 78, 0
1, 25562, Note_off_c, 1, 60, 0
1, 25564, Note_on_c, 1, 58, 127
1, 25564, Note_on_c, 1, 79, 127
1, 25714, Note_off_c, 1, 58, 0
1, 25716, Note_on_c, 1, 62, 127
1, 25862, Note_off_c, 1, 79, 0
1, 25866, Note_off_c, 1, 62, 0
1, 25868, Note_on_c, 1, 60, 127
1, 25868, Note_on_c, 1, 79, 127
1, 26018, Note_off_c, 1, 60, 0
1, 26020, Note_on_c, 1, 58, 127
1, 26166, Note_off_c, 1, 79, 0
1, 26170, Note_off_c, 1, 58, 0
1, 26172, Note_on_c, 1, 57, 127
1, 26172, Note_on_c, 1, 81, 127
1, 26322, Note_off_c, 1, 57, 0
1, 26324, Note_on_c, 1, 60, 127
1, 26470, Note_off_c, 1, 81, 0
1, 26474, Note_off_c, 1, 60, 0
1, 26476, Note_on_c, 1, 79, 127
1, 26476, Note_on_c, 1, 58, 127
1, 26624, Note_off_c, 1, 79, 0
1, 26626, Note_off_c, 1, 58, 0
1, 26628, Note_on_c, 1, 81, 127
1, 26628, Note_on_c, 1, 57, 127
1, 26776, Note_off_c, 1, 81, 0
1, 26778, Note_off_c, 1, 57, 0
1, 26780, Note_on_c, 1, 55, 127
1, 26780, Note_on_c, 1, 82, 127
1, 26930, Note_off_c, 1, 55, 0
1, 26932, Note_on_c, 1, 54, 127
1, 27082, Note_off_c, 1, 54, 0
1, 27084, Note_on_c, 1, 74, 127
1, 27236, Note_on_c, 1, 57, 127
1, 27378, Note_off_c, 1, 82, 0
1, 27382, Note_off_c, 1, 74, 0
1, 27388, Note_off_c, 1, 57, 0
1, 27388, Note_on_c, 1, 58, 127
1, 27388, Note_on_c, 1, 79, 127
1, 27538, Note_off_c, 1, 58, 0
1, 27686, Note_off_c, 1, 79, 0
1, 27692, Note_on_c, 1, 58, 127
1, 27692, Note_on_c, 1, 75, 127
1, 27692, Note_on_c, 1, 81, 127
1, 27842, Note_off_c, 1, 58, 0
1, 27844, Note_on_c, 1, 60, 127
1, 27990, Note_off_c, 1, 75, 0
1, 27990, Note_off_c, 1, 81, 0
1, 27994, Note_off_c, 1, 60, 0
1, 27996, Note_on_c, 1, 79, 127
1, 27996, Note_on_c, 1, 62, 127
1, 27996, Note_on_c, 1, 69, 127
1, 28094, Note_off_c, 1, 79, 0
1, 28098, Note_on_c, 1, 78, 127
1, 28146, Note_off_c, 1, 62, 0
1, 28148, Note_on_c, 1, 60, 127
1, 28196, Note_off_c, 1, 78, 0
1, 28298, Note_off_c, 1, 60, 0
1, 28300, Note_on_c, 1, 58, 127
1, 28450, Note_off_c, 1, 58, 0
1, 28902, Note_off_c, 1, 69, 0
1, 28908, Note_on_c, 1, 79, 127
1, 28908, Note_on_c, 1, 50, 127
1, 29206, Note_off_c, 1, 79, 0
1, 29210, Note_off_c, 1, 50, 0
1, 29212, Note_on_c, 1, 70, 127
1, 29212, Note_on_c, 1, 79, 127
1, 29212, Note_on_c, 1, 55, 127
1, 29510, Note_off_c, 1, 70, 0
1, 29510, Note_off_c, 1, 79, 0
1, 29516, Note_on_c, 1, 74, 127
1, 29812, Note_off_c, 1, 55, 0
1, 29814, Note_off_c, 1, 74, 0
1, 29818, Note_on_c, 1, 70, 127
1, 30116, Note_off_c, 1, 70, 0
1, 30122, Note_on_c, 1, 67, 127
1, 30122, Note_on_c, 1, 58, 127
1, 30122, Note_on_c, 1, 62, 127
1, 30420, Note_off_c, 1, 67, 0
1, 30424, Note_off_c, 1, 58, 0
1, 30424, Note_off_c, 1, 62, 0
1, 30426, Note_on_c, 1, 77, 127
1, 30426, Note_on_c, 1, 57, 127
1, 30426, Note_on_c, 1, 60, 127
1, 30724, Note_off_c, 1, 77, 0
1, 30728, Note_on_c, 1, 72, 127
1, 31026, Note_off_c, 1, 72, 0
1, 31032, Note_on_c, 1, 69, 127
1, 31184, Note_off_c, 1, 57, 0
1, 31184, Note_off_c, 1, 60, 0
1, 31330, Note_off_c, 1, 69, 0
1, 31334, Note_on_c, 1, 65, 127
1, 31334, Note_on_c, 1, 57, 127
1, 31334, Note_on_c, 1, 60, 127
1, 31632, Note_off_c, 1, 65, 0
1, 31636, Note_off_c, 1, 57, 0
1, 31636, Note_off_c, 1, 60, 0
1, 31638, Note_on_c, 1, 74, 127
1, 31638, Note_on_c, 1, 65, 127
1, 31638, Note_on_c, 1, 58, 127
1, 31936, Note_off_c, 1, 74, 0
1, 31942, Note_on_c, 1, 70, 127
1, 32080, Note_off_c, 1, 65, 0
1, 32240, Note_off_c, 1, 70, 0
1, 32460, Note_off_c, 1, 58, 0
1, 32548, Note_on_c, 1, 62, 127
1, 32548, Note_on_c, 1, 58, 127
1, 32846, Note_off_c, 1, 62, 0
1, 32850, Note_off_c, 1, 58, 0
1, 32852, Note_on_c, 1, 75, 127
1, 32852, Note_on_c, 1, 60, 127
1, 33150, Note_off_c, 1, 75, 0
1, 33154, Note_off_c, 1, 60, 0
1, 33156, Note_on_c, 1, 72, 127
1, 33156, Note_on_c, 1, 55, 127
1, 33304, Note_off_c, 1, 72, 0
1, 33306, Note_on_c, 1, 74, 127
1, 33454, Note_off_c, 1, 74, 0
1, 33458, Note_off_c, 1, 55, 0
1, 33458, Note_on_c, 1, 75, 127
1, 33458, Note_on_c, 1, 51, 127
1, 33756, Note_off_c, 1, 75, 0
1, 33760, Note_off_c, 1, 51, 0
1, 33762, Note_on_c, 1, 75, 127
1, 33762, Note_on_c, 1, 48, 127
1, 34060, Note_off_c, 1, 75, 0
1, 34064, Note_off_c, 1, 48, 0
1, 34066, Note_on_c, 1, 66, 127
1, 34066, Note_on_c, 1, 60, 127
1, 34364, Note_off_c, 1, 66, 0
1, 34370, Note_on_c, 1, 62, 127
1, 34518, Note_off_c, 1, 62, 0
1, 34520, Note_on_c, 1, 64, 127
1, 34668, Note_off_c, 1, 64, 0
1, 34824, Note_off_c, 1, 60, 0
1, 34974, Note_on_c, 1, 62, 127
1, 34974, Note_on_c, 1, 66, 127
1, 34974, Note_on_c, 1, 57, 127
1, 34974, Note_on_c, 1, 48, 127
1, 35272, Note_off_c, 1, 62, 0
1, 35272, Note_off_c, 1, 66, 0
1, 35276, Note_off_c, 1, 57, 0
1, 35276, Note_off_c, 1, 48, 0
1, 35278, Note_on_c, 1, 46, 127
1, 35278, Note_on_c, 1, 67, 127
1, 35278, Note_on_c, 1, 62, 127
1, 35278, Note_on_c, 1, 55, 127
1, 35580, Note_off_c, 1, 46, 0
1, 35582, Note_on_c, 1, 48, 127
1, 35728, Note_off_c, 1, 67, 0
1, 35734, Note_on_c, 1, 69, 127
1, 35874, Note_off_c, 1, 62, 0
1, 35880, Note_off_c, 1, 55, 0
1, 35884, Note_off_c, 1, 48, 0
1, 35884, Note_off_c, 1, 69, 0
1, 35886, Note_on_c, 1, 70, 127
1, 35886, Note_on_c, 1, 66, 127
1, 35886, Note_on_c, 1, 50, 127
1, 35968, Note_off_c, 1, 70, 0
1, 35972, Note_on_c, 1, 69, 127
1, 36054, Note_off_c, 1, 69, 0
1, 36188, Note_on_c, 1, 38, 127
1, 36334, Note_off_c, 1, 66, 0
1, 36396, Note_on_c, 1, 67, 127
1, 36478, Note_off_c, 1, 67, 0
1, 36484, Note_off_c, 1, 50, 0
1, 36490, Note_off_c, 1, 38, 0
1, 36492, Note_on_c, 1, 43, 127
1, 36492, Note_on_c, 1, 67, 127
1, 36644, Note_on_c, 1, 79, 127
1, 36792, Note_off_c, 1, 79, 0
1, 36794, Note_off_c, 1, 43, 0
1, 36796, Note_on_c, 1, 78, 127
1, 36796, Note_on_c, 1, 57, 127
1, 36930, Note_off_c, 1, 67, 0
1, 36944, Note_off_c, 1, 78, 0
1, 37098, Note_off_c, 1, 57, 0
1, 37098, Note_on_c, 1, 74, 127
1, 37098, Note_on_c, 1, 58, 127
1, 37324, Note_off_c, 1, 74, 0
1, 37400, Note_off_c, 1, 58, 0
1, 37402, Note_on_c, 1, 72, 127
1, 37402, Note_on_c, 1, 57, 127
1, 37554, Note_on_c, 1, 79, 127
1, 37628, Note_off_c, 1, 72, 0
1, 37702, Note_off_c, 1, 79, 0
1, 37704, Note_off_c, 1, 57, 0
1, 37706, Note_on_c, 1, 70, 127
1, 37706, Note_on_c, 1, 55, 127
1, 37858, Note_on_c, 1, 79, 127
1, 37932, Note_off_c, 1, 70, 0
1, 38006, Note_off_c, 1, 79, 0
1, 38008, Note_off_c, 1, 55, 0
1, 38010, Note_on_c, 1, 69, 127
1, 38010, Note_on_c, 1, 57, 127
1, 38162, Note_on_c, 1, 79, 127
1, 38236, Note_off_c, 1, 69, 0
1, 38310, Note_off_c, 1, 79, 0
1, 38312, Note_off_c, 1, 57, 0
1, 38314, Note_on_c, 1, 67, 127
1, 38314, Note_on_c, 1, 58, 127
1, 38462, Note_off_c, 1, 67, 0
1, 38466, Note_on_c, 1, 69, 127
1, 38614, Note_off_c, 1, 69, 0
1, 38616, Note_off_c, 1, 58, 0
1, 38618, Note_on_c, 1, 70, 127
1, 38618, Note_on_c, 1, 60, 127
1, 38766, Note_off_c, 1, 70, 0
1, 38768, Note_on_c, 1, 72, 127
1, 38916, Note_off_c, 1, 72, 0
1, 38920, Note_off_c, 1, 60, 0
1, 38920, Note_on_c, 1, 53, 127
1, 38920, Note_on_c, 1, 69, 127
1, 39072, Note_on_c, 1, 77, 127
1, 39220, Note_off_c, 1, 77, 0
1, 39222, Note_off_c, 1, 53, 0
1, 39224, Note_on_c, 1, 76, 127
1, 39224, Note_on_c, 1, 55, 127
1, 39358, Note_off_c, 1, 69, 0
1, 39372, Note_off_c, 1, 76, 0
1, 39526, Note_off_c, 1, 55, 0
1, 39528, Note_on_c, 1, 72, 127
1, 39528, Note_on_c, 1, 57, 127
1, 39680, Note_on_c, 1, 77, 127
1, 39754, Note_off_c, 1, 72, 0
1, 39828, Note_off_c, 1, 77, 0
1, 39830, Note_off_c, 1, 57, 0
1, 39832, Note_on_c, 1, 70, 127
1, 39832, Note_on_c, 1, 55, 127
1, 39984, Note_on_c, 1, 77, 127
1, 40058, Note_off_c, 1, 70, 0
1, 40132, Note_off_c, 1, 77, 0
1, 40134, Note_off_c, 1, 55, 0
1, 40136, Note_on_c, 1, 69, 127
1, 40136, Note_on_c, 1, 53, 127
1, 40288, Note_on_c, 1, 77, 127
1, 40362, Note_off_c, 1, 69, 0
1, 40436, Note_off_c, 1, 77, 0
1, 40438, Note_off_c, 1, 53, 0
1, 40440, Note_on_c, 1, 67, 127
1, 40440, Note_on_c, 1, 55, 127
1, 40592, Note_on_c, 1, 77, 127
1, 40666, Note_off_c, 1, 67, 0
1, 40740, Note_off_c, 1, 77, 0
1, 40742, Note_off_c, 1, 55, 0
1, 40744, Note_on_c, 1, 65, 127
1, 40744, Note_on_c, 1, 56, 127
1, 40892, Note_off_c, 1, 65, 0
1, 40894, Note_on_c, 1, 67, 127
1, 41042, Note_off_c, 1, 67, 0
1, 41046, Note_off_c, 1, 56, 0
1, 41046, Note_on_c, 1, 68, 127
1, 41046, Note_on_c, 1, 58, 127
1, 41194, Note_off_c, 1, 68, 0
1, 41198, Note_on_c, 1, 70, 127
1, 41346, Note_off_c, 1, 70, 0
1, 41348, Note_off_c, 1, 58, 0
1, 41350, Note_on_c, 1, 51, 127
1, 41350, Note_on_c, 1, 67, 127
1, 41502, Note_on_c, 1, 75, 127
1, 41650, Note_off_c, 1, 75, 0
1, 41652, Note_off_c, 1, 51, 0
1, 41654, Note_on_c, 1, 74, 127
1, 41654, Note_on_c, 1, 53, 127
1, 41788, Note_off_c, 1, 67, 0
1, 41802, Note_off_c, 1, 74, 0
1, 41956, Note_off_c, 1, 53, 0
1, 41956, Note_on_c, 1, 70, 127
1, 41956, Note_on_c, 1, 55, 127
1, 42182, Note_off_c, 1, 70, 0
1, 42258, Note_off_c, 1, 55, 0
1, 42260, Note_on_c, 1, 68, 127
1, 42260, Note_on_c, 1, 53, 127
1, 42412, Note_on_c, 1, 75, 127
1, 42486, Note_off_c, 1, 68, 0
1, 42560, Note_off_c, 1, 75, 0
1, 42562, Note_off_c, 1, 53, 0
1, 42564, Note_on_c, 1, 67, 127
1, 42564, Note_on_c, 1, 51, 127
1, 42716, Note_on_c, 1, 75, 127
1, 42790, Note_off_c, 1, 67, 0
1, 42864, Note_off_c, 1, 75, 0
1, 42866, Note_off_c, 1, 51, 0
1, 42868, Note_on_c, 1, 65, 127
1, 42868, Note_on_c, 1, 53, 127
1, 43020, Note_on_c, 1, 75, 127
1, 43094, Note_off_c, 1, 65, 0
1, 43168, Note_off_c, 1, 75, 0
1, 43170, Note_off_c, 1, 53, 0
1, 43172, Note_on_c, 1, 63, 127
1, 43172, Note_on_c, 1, 55, 127
1, 43320, Note_off_c, 1, 63, 0
1, 43324, Note_on_c, 1, 65, 127
1, 43472, Note_off_c, 1, 65, 0
1, 43474, Note_off_c, 1, 55, 0
1, 43476, Note_on_c, 1, 67, 127
1, 43476, Note_on_c, 1, 57, 127
1, 43624, Note_off_c, 1, 67, 0
1, 43626, Note_on_c, 1, 69, 127
1, 43774, Note_off_c, 1, 69, 0
1, 43778, Note_off_c, 1, 57, 0
1, 43778, Note_on_c, 1, 50, 127
1, 43778, Note_on_c, 1, 66, 127
1, 43930, Note_on_c, 1, 74, 127
1, 44078, Note_off_c, 1, 74, 0
1, 44080, Note_off_c, 1, 50, 0
1, 44082, Note_on_c, 1, 72, 127
1, 44082, Note_on_c, 1, 52, 127
1, 44154, Note_off_c, 1, 66, 0
1, 44230, Note_off_c, 1, 72, 0
1, 44384, Note_off_c, 1, 52, 0
1, 44386, Note_on_c, 1, 69, 127
1, 44386, Note_on_c, 1, 54, 127
1, 44538, Note_on_c, 1, 74, 127
1, 44612, Note_off_c, 1, 69, 0
1, 44686, Note_off_c, 1, 74, 0
1, 44688, Note_off_c, 1, 54, 0
1, 44690, Note_on_c, 1, 67, 127
1, 44690, Note_on_c, 1, 52, 127
1, 44842, Note_on_c, 1, 74, 127
1, 44916, Note_off_c, 1, 67, 0
1, 44990, Note_off_c, 1, 74, 0
1, 44992, Note_off_c, 1, 52, 0
1, 44994, Note_on_c, 1, 66, 127
1, 44994, Note_on_c, 1, 50, 127
1, 45146, Note_on_c, 1, 74, 127
1, 45220, Note_off_c, 1, 66, 0
1, 45294, Note_off_c, 1, 74, 0
1, 45296, Note_off_c, 1, 50, 0
1, 45298, Note_on_c, 1, 64, 127
1, 45298, Note_on_c, 1, 52, 127
1, 45450, Note_on_c, 1, 74, 127
1, 45524, Note_off_c, 1, 64, 0
1, 45598, Note_off_c, 1, 74, 0
1, 45600, Note_off_c, 1, 52, 0
1, 45602, Note_on_c, 1, 62, 127
1, 45602, Note_on_c, 1, 54, 127
1, 45750, Note_off_c, 1, 62, 0
1, 45752, Note_on_c, 1, 64, 127
1, 45900, Note_off_c, 1, 64, 0
1, 45904, Note_off_c, 1, 54, 0
1, 45904, Note_on_c, 1, 66, 127
1, 45904, Note_on_c, 1, 55, 127
1, 46052, Note_off_c, 1, 66, 0
1, 46056, Note_on_c, 1, 67, 127
1, 46204, Note_off_c, 1, 67, 0
1, 46206, Note_off_c, 1, 55, 0
1, 46208, Note_on_c, 1, 69, 127
1, 46208, Note_on_c, 1, 54, 127
1, 46356, Note_off_c, 1, 69, 0
1, 46358, Note_on_c, 1, 67, 127
1, 46506, Note_off_c, 1, 67, 0
1, 46510, Note_off_c, 1, 54, 0
1, 46510, Note_on_c, 1, 52, 127
1, 46662, Note_on_c, 1, 70, 127
1, 46810, Note_off_c, 1, 70, 0
1, 46812, Note_off_c, 1, 52, 0
1, 46814, Note_on_c, 1, 69, 127
1, 46814, Note_on_c, 1, 54, 127
1, 46962, Note_off_c, 1, 69, 0
1, 46964, Note_on_c, 1, 70, 127
1, 47112, Note_off_c, 1, 70, 0
1, 47116, Note_off_c, 1, 54, 0
1, 47116, Note_on_c, 1, 72, 127
1, 47116, Note_on_c, 1, 50, 127
1, 47264, Note_off_c, 1, 72, 0
1, 47268, Note_on_c, 1, 74, 127
1, 47416, Note_off_c, 1, 74, 0
1, 47418, Note_off_c, 1, 50, 0
1, 47420, Note_on_c, 1, 55, 127
1, 47420, Note_on_c, 1, 70, 127
1, 47570, Note_off_c, 1, 55, 0
1, 47572, Note_on_c, 1, 57, 127
1, 47718, Note_off_c, 1, 70, 0
1, 47722, Note_off_c, 1, 57, 0
1, 47724, Note_on_c, 1, 58, 127
1, 47724, Note_on_c, 1, 79, 127
1, 47874, Note_off_c, 1, 58, 0
1, 47876, Note_on_c, 1, 60, 127
1, 48022, Note_off_c, 1, 79, 0
1, 48026, Note_off_c, 1, 60, 0
1, 48028, Note_on_c, 1, 69, 127
1, 48028, Note_on_c, 1, 62, 127
1, 48326, Note_off_c, 1, 69, 0
1, 48330, Note_on_c, 1, 79, 127
1, 48330, Note_on_c, 1, 50, 127
1, 48404, Note_off_c, 1, 79, 0
1, 48406, Note_on_c, 1, 78, 127
1, 48480, Note_off_c, 1, 78, 0
1, 48482, Note_on_c, 1, 76, 127
1, 48556, Note_off_c, 1, 76, 0
1, 48628, Note_off_c, 1, 62, 0
1, 48632, Note_off_c, 1, 50, 0
1, 48634, Note_on_c, 1, 67, 127
1, 48634, Note_on_c, 1, 74, 127
1, 48634, Note_on_c, 1, 79, 127
1, 48634, Note_on_c, 1, 70, 127
1, 48634, Note_on_c, 1, 55, 127
1, 49234, Note_off_c, 1, 67, 0
1, 49234, Note_off_c, 1, 74, 0
1, 49234, Note_off_c, 1, 79, 0
1, 49234, Note_off_c, 1, 70, 0
1, 49392, Note_off_c, 1, 55, 0
1, 49544, Note_on_c, 1, 62, 127
1, 49694, Note_off_c, 1, 62, 0
1, 49696, Note_on_c, 1, 69, 127
1, 49696, Note_on_c, 1, 60, 127
1, 49844, Note_off_c, 1, 69, 0
1, 49846, Note_off_c, 1, 60, 0
1, 49848, Note_on_c, 1, 58, 127
1, 49848, Note_on_c, 1, 67, 127
1, 49998, Note_off_c, 1, 58, 0
1, 50000, Note_on_c, 1, 60, 127
1, 50150, Note_off_c, 1, 60, 0
1, 50152, Note_on_c, 1, 62, 127
1, 50300, Note_off_c, 1, 62, 0
1, 50304, Note_on_c, 1, 57, 127
1, 50446, Note_off_c, 1, 67, 0
1, 50456, Note_off_c, 1, 57, 0
1, 50458, Note_on_c, 1, 55, 127
1, 50458, Note_on_c, 1, 58, 127
1, 50608, Note_off_c, 1, 55, 0
1, 50610, Note_on_c, 1, 57, 127
1, 50756, Note_off_c, 1, 58, 0
1, 50760, Note_off_c, 1, 57, 0
1, 50762, Note_on_c, 1, 55, 127
1, 50762, Note_on_c, 1, 74, 127
1, 50762, Note_on_c, 1, 67, 127
1, 50762, Note_on_c, 1, 70, 127
1, 50912, Note_off_c, 1, 55, 0
1, 50914, Note_on_c, 1, 53, 127
1, 51060, Note_off_c, 1, 74, 0
1, 51060, Note_off_c, 1, 67, 0
1, 51060, Note_off_c, 1, 70, 0
1, 51064, Note_off_c, 1, 53, 0
1, 51066, Note_on_c, 1, 51, 127
1, 51066, Note_on_c, 1, 79, 127
1, 51066, Note_on_c, 1, 67, 127
1, 51066, Note_on_c, 1, 70, 127
1, 51216, Note_off_c, 1, 51, 0
1, 51364, Note_off_c, 1, 79, 0
1, 51364, Note_off_c, 1, 67, 0
1, 51364, Note_off_c, 1, 70, 0
1, 51370, Note_on_c, 1, 50, 127
1, 51370, Note_on_c, 1, 79, 127
1, 51370, Note_on_c, 1, 75, 127
1, 51370, Note_on_c, 1, 69, 127
1, 51520, Note_off_c, 1, 50, 0
1, 51522, Note_on_c, 1, 48, 127
1, 51668, Note_off_c, 1, 79, 0
1, 51668, Note_off_c, 1, 75, 0
1, 51668, Note_off_c, 1, 69, 0
1, 51672, Note_off_c, 1, 48, 0
1, 51674, Note_on_c, 1, 78, 127
1, 51674, Note_on_c, 1, 50, 127
1, 51674, Note_on_c, 1, 69, 127
1, 51972, Note_off_c, 1, 78, 0
1, 51976, Note_off_c, 1, 50, 0
1, 51978, Note_on_c, 1, 76, 127
1, 51978, Note_on_c, 1, 38, 127
1, 52126, Note_off_c, 1, 76, 0
1, 52270, Note_off_c, 1, 69, 0
1, 52280, Note_off_c, 1, 38, 0
1, 52282, Note_on_c, 1, 79, 127
1, 52282, Note_on_c, 1, 70, 127
1, 52282, Note_on_c, 1, 67, 127
1, 52282, Note_on_c, 1, 43, 127
1, 52580, Note_off_c, 1, 79, 0
1, 52580, Note_off_c, 1, 70, 0
1, 52584, Note_on_c, 1, 74, 127
1, 52878, Note_off_c, 1, 67, 0
1, 52882, Note_off_c, 1, 43, 0
1, 52882, Note_off_c, 1, 74, 0
1, 52888, Note_on_c, 1, 70, 127
1, 53036, Note_off_c, 1, 70, 0
1, 53038, Note_on_c, 1, 67, 127
1, 53038, Note_on_c, 1, 55, 127
1, 53186, Note_off_c, 1, 67, 0
1, 53188, Note_off_c, 1, 55, 0
1, 53190, Note_on_c, 1, 70, 127
1, 53190, Note_on_c, 1, 53, 127
1, 53338, Note_off_c, 1, 70, 0
1, 53340, Note_off_c, 1, 53, 0
1, 53342, Note_on_c, 1, 74, 127
1, 53342, Note_on_c, 1, 51, 127
1, 53490, Note_off_c, 1, 74, 0
1, 53492, Note_off_c, 1, 51, 0
1, 53494, Note_on_c, 1, 50, 127
1, 53494, Note_on_c, 1, 77, 127
1, 53644, Note_off_c, 1, 50, 0
1, 53646, Note_on_c, 1, 51, 127
1, 53792, Note_off_c, 1, 77, 0
1, 53796, Note_off_c, 1, 51, 0
1, 53798, Note_on_c, 1, 50, 127
1, 53798, Note_on_c, 1, 77, 127
1, 53948, Note_off_c, 1, 50, 0
1, 53950, Note_on_c, 1, 48, 127
1, 54096, Note_off_c, 1, 77, 0
1, 54100, Note_off_c, 1, 48, 0
1, 54102, Note_on_c, 1, 46, 127
1, 54102, Note_on_c, 1, 77, 127
1, 54252, Note_off_c, 1, 46, 0
1, 54254, Note_on_c, 1, 50, 127
1, 54400, Note_off_c, 1, 77, 0
1, 54404, Note_off_c, 1, 50, 0
1, 54406, Note_on_c, 1, 75, 127
1, 54406, Note_on_c, 1, 48, 127
1, 54554, Note_off_c, 1, 75, 0
1, 54556, Note_off_c, 1, 48, 0
1, 54558, Note_on_c, 1, 77, 127
1, 54558, Note_on_c, 1, 46, 127
1, 54706, Note_off_c, 1, 77, 0
1, 54708, Note_off_c, 1, 46, 0
1, 54710, Note_on_c, 1, 51, 127
1, 54710, Note_on_c, 1, 79, 127
1, 54860, Note_off_c, 1, 51, 0
1, 54862, Note_on_c, 1, 53, 127
1, 55008, Note_off_c, 1, 79, 0
1, 55012, Note_off_c, 1, 53, 0
1, 55014, Note_on_c, 1, 51, 127
1, 55014, Note_on_c, 1, 79, 127
1, 55164, Note_off_c, 1, 51, 0
1, 55166, Note_on_c, 1, 50, 127
1, 55312, Note_off_c, 1, 79, 0
1, 55316, Note_off_c, 1, 50, 0
1, 55318, Note_on_c, 1, 48, 127
1, 55318, Note_on_c, 1, 79, 127
1, 55468, Note_off_c, 1, 48, 0
1, 55470, Note_on_c, 1, 51, 127
1, 55616, Note_off_c, 1, 79, 0
1, 55620, Note_off_c, 1, 51, 0
1, 55622, Note_on_c, 1, 77, 127
1, 55622, Note_on_c, 1, 50, 127
1, 55770, Note_off_c, 1, 77, 0
1, 55772, Note_off_c, 1, 50, 0
1, 55774, Note_on_c, 1, 79, 127
1, 55774, Note_on_c, 1, 48, 127
1, 55922, Note_off_c, 1, 79, 0
1, 55924, Note_off_c, 1, 48, 0
1, 55926, Note_on_c, 1, 53, 127
1, 55926, Note_on_c, 1, 81, 127
1, 56076, Note_off_c, 1, 53, 0
1, 56078, Note_on_c, 1, 55, 127
1, 56224, Note_off_c, 1, 81, 0
1, 56228, Note_off_c, 1, 55, 0
1, 56230, Note_on_c, 1, 53, 127
1, 56230, Note_on_c, 1, 81, 127
1, 56380, Note_off_c, 1, 53, 0
1, 56382, Note_on_c, 1, 51, 127
1, 56528, Note_off_c, 1, 81, 0
1, 56532, Note_off_c, 1, 51, 0
1, 56534, Note_on_c, 1, 50, 127
1, 56534, Note_on_c, 1, 81, 127
1, 56684, Note_off_c, 1, 50, 0
1, 56686, Note_on_c, 1, 53, 127
1, 56832, Note_off_c, 1, 81, 0
1, 56836, Note_off_c, 1, 53, 0
1, 56838, Note_on_c, 1, 79, 127
1, 56838, Note_on_c, 1, 51, 127
1, 56986, Note_off_c, 1, 79, 0
1, 56988, Note_off_c, 1, 51, 0
1, 56990, Note_on_c, 1, 81, 127
1, 56990, Note_on_c, 1, 50, 127
1, 57138, Note_off_c, 1, 81, 0
1, 57140, Note_off_c, 1, 50, 0
1, 57142, Note_on_c, 1, 82, 127
1, 57142, Note_on_c, 1, 55, 127
1, 57290, Note_off_c, 1, 82, 0
1, 57294, Note_on_c, 1, 72, 127
1, 57442, Note_off_c, 1, 72, 0
1, 57444, Note_off_c, 1, 55, 0
1, 57446, Note_on_c, 1, 74, 127
1, 57446, Note_on_c, 1, 53, 127
1, 57594, Note_off_c, 1, 74, 0
1, 57596, Note_off_c, 1, 53, 0
1, 57598, Note_on_c, 1, 75, 127
1, 57598, Note_on_c, 1, 51, 127
1, 57746, Note_off_c, 1, 75, 0
1, 57748, Note_off_c, 1, 51, 0
1, 57750, Note_on_c, 1, 70, 127
1, 57750, Note_on_c, 1, 53, 127
1, 57898, Note_off_c, 1, 70, 0
1, 57900, Note_on_c, 1, 69, 127
1, 57974, Note_off_c, 1, 69, 0
1, 58052, Note_off_c, 1, 53, 0
1, 58054, Note_on_c, 1, 69, 127
1, 58054, Note_on_c, 1, 41, 127
1, 58202, Note_off_c, 1, 69, 0
1, 58204, Note_on_c, 1, 70, 127
1, 58352, Note_off_c, 1, 70, 0
1, 58356, Note_off_c, 1, 41, 0
1, 58356, Note_on_c, 1, 74, 127
1, 58356, Note_on_c, 1, 77, 127
1, 58356, Note_on_c, 1, 46, 127
1, 58956, Note_off_c, 1, 74, 0
1, 58956, Note_off_c, 1, 77, 0
1, 59114, Note_off_c, 1, 46, 0
1, 59266, Note_on_c, 1, 65, 127
1, 59416, Note_off_c, 1, 65, 0
1, 59418, Note_on_c, 1, 72, 127
1, 59418, Note_on_c, 1, 63, 127
1, 59566, Note_off_c, 1, 72, 0
1, 59568, Note_off_c, 1, 63, 0
1, 59570, Note_on_c, 1, 62, 127
1, 59570, Note_on_c, 1, 70, 127
1, 59720, Note_off_c, 1, 62, 0
1, 59722, Note_on_c, 1, 63, 127
1, 59872, Note_off_c, 1, 63, 0
1, 59874, Note_on_c, 1, 65, 127
1, 60022, Note_off_c, 1, 65, 0
1, 60026, Note_on_c, 1, 60, 127
1, 60168, Note_off_c, 1, 70, 0
1, 60178, Note_off_c, 1, 60, 0
1, 60180, Note_on_c, 1, 58, 127
1, 60180, Note_on_c, 1, 62, 127
1, 60330, Note_off_c, 1, 58, 0
1, 60332, Note_on_c, 1, 60, 127
1, 60478, Note_off_c, 1, 62, 0
1, 60482, Note_off_c, 1, 60, 0
1, 60484, Note_on_c, 1, 58, 127
1, 60484, Note_on_c, 1, 70, 127
1, 60484, Note_on_c, 1, 74, 127
1, 60484, Note_on_c, 1, 77, 127
1, 60634, Note_off_c, 1, 58, 0
1, 60636, Note_on_c, 1, 57, 127
1, 60782, Note_off_c, 1, 70, 0
1, 60782, Note_off_c, 1, 74, 0
1, 60782, Note_off_c, 1, 77, 0
1, 60786, Note_off_c, 1, 57, 0
1, 60788, Note_on_c, 1, 55, 127
1, 60788, Note_on_c, 1, 70, 127
1, 60788, Note_on_c, 1, 74, 127
1, 60788, Note_on_c, 1, 82, 127
1, 60938, Note_off_c, 1, 55, 0
1, 61086, Note_off_c, 1, 70, 0
1, 61086, Note_off_c, 1, 74, 0
1, 61086, Note_off_c, 1, 82, 0
1, 61092, Note_on_c, 1, 53, 127
1, 61092, Note_on_c, 1, 79, 127
1, 61092, Note_on_c, 1, 82, 127
1, 61092, Note_on_c, 1, 72, 127
1, 61242, Note_off_c, 1, 53, 0
1, 61244, Note_on_c, 1, 51, 127
1, 61390, Note_off_c, 1, 79, 0
1, 61390, Note_off_c, 1, 82, 0
1, 61390, Note_off_c, 1, 72, 0
1, 61394, Note_off_c, 1, 51, 0
1, 61396, Note_on_c, 1, 81, 127
1, 61396, Note_on_c, 1, 53, 127
1, 61396, Note_on_c, 1, 72, 127
1, 61694, Note_off_c, 1, 81, 0
1, 61698, Note_off_c, 1, 53, 0
1, 61700, Note_on_c, 1, 79, 127
1, 61700, Note_on_c, 1, 41, 127
1, 61848, Note_off_c, 1, 79, 0
1, 61992, Note_off_c, 1, 72, 0
1, 62002, Note_off_c, 1, 41, 0
1, 62004, Note_on_c, 1, 74, 127
1, 62004, Note_on_c, 1, 82, 127
1, 62004, Note_on_c, 1, 70, 127
1, 62004, Note_on_c, 1, 46, 127
1, 62302, Note_off_c, 1, 74, 0
1, 62302, Note_off_c, 1, 82, 0
1, 62306, Note_on_c, 1, 77, 127
1, 62442, Note_off_c, 1, 70, 0
1, 62604, Note_off_c, 1, 46, 0
1, 62604, Note_off_c, 1, 77, 0
1, 62610, Note_on_c, 1, 74, 127
1, 62762, Note_on_c, 1, 60, 127
1, 62908, Note_off_c, 1, 74, 0
1, 62912, Note_off_c, 1, 60, 0
1, 62914, Note_on_c, 1, 58, 127
1, 62914, Note_on_c, 1, 70, 127
1, 63064, Note_off_c, 1, 58, 0
1, 63066, Note_on_c, 1, 57, 127
1, 63212, Note_off_c, 1, 70, 0
1, 63216, Note_off_c, 1, 57, 0
1, 63218, Note_on_c, 1, 55, 127
1, 63218, Note_on_c, 1, 75, 127
1, 63368, Note_off_c, 1, 55, 0
1, 63370, Note_on_c, 1, 53, 127
1, 63516, Note_off_c, 1, 75, 0
1, 63520, Note_off_c, 1, 53, 0
1, 63522, Note_on_c, 1, 55, 127
1, 63522, Note_on_c, 1, 75, 127
1, 63672, Note_off_c, 1, 55, 0
1, 63674, Note_on_c, 1, 57, 127
1, 63820, Note_off_c, 1, 75, 0
1, 63824, Note_off_c, 1, 57, 0
1, 63826, Note_on_c, 1, 55, 127
1, 63826, Note_on_c, 1, 75, 127
1, 63976, Note_off_c, 1, 55, 0
1, 63978, Note_on_c, 1, 58, 127
1, 64124, Note_off_c, 1, 75, 0
1, 64128, Note_off_c, 1, 58, 0
1, 64130, Note_on_c, 1, 74, 127
1, 64130, Note_on_c, 1, 57, 127
1, 64264, Note_off_c, 1, 74, 0
1, 64280, Note_off_c, 1, 57, 0
1, 64282, Note_on_c, 1, 75, 127
1, 64282, Note_on_c, 1, 55, 127
1, 64406, Note_off_c, 1, 75, 0
1, 64432, Note_off_c, 1, 55, 0
1, 64434, Note_on_c, 1, 57, 127
1, 64434, Note_on_c, 1, 73, 127
1, 64584, Note_off_c, 1, 57, 0
1, 64586, Note_on_c, 1, 55, 127
1, 64732, Note_off_c, 1, 73, 0
1, 64736, Note_off_c, 1, 55, 0
1, 64738, Note_on_c, 1, 57, 127
1, 64738, Note_on_c, 1, 73, 127
1, 64888, Note_off_c, 1, 57, 0
1, 64890, Note_on_c, 1, 58, 127
1, 65036, Note_off_c, 1, 73, 0
1, 65040, Note_off_c, 1, 58, 0
1, 65042, Note_on_c, 1, 57, 127
1, 65042, Note_on_c, 1, 73, 127
1, 65192, Note_off_c, 1, 57, 0
1, 65194, Note_on_c, 1, 58, 127
1, 65340, Note_off_c, 1, 73, 0
1, 65344, Note_off_c, 1, 58, 0
1, 65346, Note_on_c, 1, 71, 127
1, 65346, Note_on_c, 1, 57, 127
1, 65494, Note_off_c, 1, 71, 0
1, 65496, Note_off_c, 1, 57, 0
1, 65498, Note_on_c, 1, 73, 127
1, 65498, Note_on_c, 1, 55, 127
1, 65646, Note_off_c, 1, 73, 0
1, 65648, Note_off_c, 1, 55, 0
1, 65650, Note_on_c, 1, 74, 127
1, 65650, Note_on_c, 1, 53, 127
1, 65798, Note_off_c, 1, 74, 0
1, 65800, Note_on_c, 1, 76, 127
1, 65948, Note_off_c, 1, 76, 0
1, 65952, Note_off_c, 1, 53, 0
1, 65952, Note_on_c, 1, 77, 127
1, 65952, Note_on_c, 1, 57, 127
1, 66100, Note_off_c, 1, 77, 0
1, 66104, Note_on_c, 1, 79, 127
1, 66252, Note_off_c, 1, 79, 0
1, 66254, Note_off_c, 1, 57, 0
1, 66256, Note_on_c, 1, 76, 127
1, 66256, Note_on_c, 1, 49, 127
1, 66404, Note_off_c, 1, 76, 0
1, 66406, Note_on_c, 1, 77, 127
1, 66554, Note_off_c, 1, 77, 0
1, 66558, Note_off_c, 1, 49, 0
1, 66558, Note_on_c, 1, 79, 127
1, 66558, Note_on_c, 1, 57, 127
1, 66706, Note_off_c, 1, 79, 0
1, 66710, Note_on_c, 1, 81, 127
1, 66858, Note_off_c, 1, 81, 0
1, 66860, Note_off_c, 1, 57, 0
1, 66862, Note_on_c, 1, 77, 127
1, 66862, Note_on_c, 1, 50, 127
1, 67010, Note_off_c, 1, 77, 0
1, 67012, Note_off_c, 1, 50, 0
1, 67014, Note_on_c, 1, 82, 127
1, 67014, Note_on_c, 1, 52, 127
1, 67162, Note_off_c, 1, 82, 0
1, 67164, Note_off_c, 1, 52, 0
1, 67166, Note_on_c, 1, 81, 127
1, 67166, Note_on_c, 1, 53, 127
1, 67314, Note_off_c, 1, 81, 0
1, 67316, Note_off_c, 1, 53, 0
1, 67318, Note_on_c, 1, 79, 127
1, 67318, Note_on_c, 1, 55, 127
1, 67466, Note_off_c, 1, 79, 0
1, 67468, Note_off_c, 1, 55, 0
1, 67470, Note_on_c, 1, 77, 127
1, 67470, Note_on_c, 1, 57, 127
1, 67568, Note_off_c, 1, 77, 0
1, 67570, Note_on_c, 1, 79, 127
1, 67668, Note_off_c, 1, 79, 0
1, 67772, Note_off_c, 1, 57, 0
1, 67774, Note_on_c, 1, 76, 127
1, 67774, Note_on_c, 1, 45, 127
1, 67922, Note_off_c, 1, 76, 0
1, 67924, Note_on_c, 1, 74, 127
1, 68072, Note_off_c, 1, 74, 0
1, 68076, Note_off_c, 1, 45, 0
1, 68076, Note_on_c, 1, 69, 127
1, 68076, Note_on_c, 1, 65, 127
1, 68076, Note_on_c, 1, 50, 127
1, 68676, Note_off_c, 1, 69, 0
1, 68676, Note_off_c, 1, 65, 0
1, 68834, Note_off_c, 1, 50, 0
1, 68986, Note_on_c, 1, 57, 127
1, 69136, Note_off_c, 1, 57, 0
1, 69138, Note_on_c, 1, 64, 127
1, 69138, Note_on_c, 1, 55, 127
1, 69286, Note_off_c, 1, 64, 0
1, 69288, Note_off_c, 1, 55, 0
1, 69290, Note_on_c, 1, 53, 127
1, 69290, Note_on_c, 1, 62, 127
1, 69440, Note_off_c, 1, 53, 0
1, 69442, Note_on_c, 1, 55, 127
1, 69592, Note_off_c, 1, 55, 0
1, 69594, Note_on_c, 1, 57, 127
1, 69744, Note_off_c, 1, 57, 0
1, 69746, Note_on_c, 1, 52, 127
1, 69896, Note_off_c, 1, 52, 0
1, 69898, Note_on_c, 1, 50, 127
1, 70048, Note_off_c, 1, 50, 0
1, 70196, Note_off_c, 1, 62, 0
1, 70202, Note_on_c, 1, 50, 127
1, 70202, Note_on_c, 1, 65, 127
1, 70202, Note_on_c, 1, 69, 127
1, 70202, Note_on_c, 1, 62, 127
1, 70352, Note_off_c, 1, 50, 0
1, 70354, Note_on_c, 1, 48, 127
1, 70500, Note_off_c, 1, 65, 0
1, 70500, Note_off_c, 1, 69, 0
1, 70500, Note_off_c, 1, 62, 0
1, 70504, Note_off_c, 1, 48, 0
1, 70506, Note_on_c, 1, 46, 127
1, 70506, Note_on_c, 1, 74, 127
1, 70506, Note_on_c, 1, 62, 127
1, 70506, Note_on_c, 1, 65, 127
1, 70656, Note_off_c, 1, 46, 0
1, 70658, Note_on_c, 1, 58, 127
1, 70804, Note_off_c, 1, 74, 0
1, 70804, Note_off_c, 1, 62, 0
1, 70804, Note_off_c, 1, 65, 0
1, 70808, Note_off_c, 1, 58, 0
1, 70810, Note_on_c, 1, 57, 127
1, 70810, Note_on_c, 1, 74, 127
1, 70810, Note_on_c, 1, 70, 127
1, 70810, Note_on_c, 1, 64, 127
1, 70960, Note_off_c, 1, 57, 0
1, 70962, Note_on_c, 1, 55, 127
1, 71108, Note_off_c, 1, 74, 0
1, 71108, Note_off_c, 1, 70, 0
1, 71108, Note_off_c, 1, 64, 0
1, 71112, Note_off_c, 1, 55, 0
1, 71114, Note_on_c, 1, 73, 127
1, 71114, Note_on_c, 1, 57, 127
1, 71114, Note_on_c, 1, 64, 127
1, 71412, Note_off_c, 1, 73, 0
1, 71416, Note_off_c, 1, 57, 0
1, 71418, Note_on_c, 1, 71, 127
1, 71418, Note_on_c, 1, 45, 127
1, 71566, Note_off_c, 1, 71, 0
1, 71710, Note_off_c, 1, 64, 0
1, 71720, Note_off_c, 1, 45, 0
1, 71722, Note_on_c, 1, 74, 127
1, 71722, Note_on_c, 1, 65, 127
1, 71722, Note_on_c, 1, 62, 127
1, 71722, Note_on_c, 1, 50, 127
1, 72020, Note_off_c, 1, 74, 0
1, 72020, Note_off_c, 1, 65, 0
1, 72026, Note_on_c, 1, 69, 127
1, 72318, Note_off_c, 1, 62, 0
1, 72324, Note_off_c, 1, 69, 0
1, 72480, Note_off_c, 1, 50, 0
1, 72632, Note_on_c, 1, 62, 127
1, 72632, Note_on_c, 1, 53, 127
1, 72632, Note_on_c, 1, 57, 127
1, 72930, Note_off_c, 1, 62, 0
1, 72934, Note_off_c, 1, 53, 0
1, 72934, Note_off_c, 1, 57, 0
1, 72936, Note_on_c, 1, 72, 127
1, 72936, Note_on_c, 1, 55, 127
1, 72936, Note_on_c, 1, 52, 127
1, 73234, Note_off_c, 1, 72, 0
1, 73238, Note_on_c, 1, 67, 127
1, 73536, Note_off_c, 1, 67, 0
1, 73542, Note_on_c, 1, 64, 127
1, 73694, Note_off_c, 1, 55, 0
1, 73694, Note_off_c, 1, 52, 0
1, 73840, Note_off_c, 1, 64, 0
1, 73844, Note_on_c, 1, 60, 127
1, 73844, Note_on_c, 1, 55, 127
1, 73844, Note_on_c, 1, 52, 127
1, 74142, Note_off_c, 1, 60, 0
1, 74146, Note_off_c, 1, 55, 0
1, 74146, Note_off_c, 1, 52, 0
1, 74148, Note_on_c, 1, 70, 127
1, 74148, Note_on_c, 1, 50, 127
1, 74148, Note_on_c, 1, 53, 127
1, 74446, Note_off_c, 1, 70, 0
1, 74452, Note_on_c, 1, 65, 127
1, 74750, Note_off_c, 1, 65, 0
1, 74754, Note_on_c, 1, 62, 127
1, 74906, Note_off_c, 1, 50, 0
1, 74906, Note_off_c, 1, 53, 0
1, 75052, Note_off_c, 1, 62, 0
1, 75058, Note_on_c, 1, 58, 127
1, 75058, Note_on_c, 1, 53, 127
1, 75058, Note_on_c, 1, 50, 127
1, 75356, Note_off_c, 1, 58, 0
1, 75360, Note_off_c, 1, 53, 0
1, 75360, Note_off_c, 1, 50, 0
1, 75362, Note_on_c, 1, 69, 127
1, 75362, Note_on_c, 1, 52, 127
1, 75362, Note_on_c, 1, 49, 127
1, 75660, Note_off_c, 1, 69, 0
1, 75664, Note_on_c, 1, 64, 127
1, 75962, Note_off_c, 1, 64, 0
1, 75968, Note_on_c, 1, 61, 127
1, 76230, Note_off_c, 1, 52, 0
1, 76230, Note_off_c, 1, 49, 0
1, 76266, Note_off_c, 1, 61, 0
1, 76270, Note_on_c, 1, 57, 127
1, 76270, Note_on_c, 1, 50, 127
1, 76270, Note_on_c, 1, 53, 127
1, 76568, Note_off_c, 1, 57, 0
1, 76572, Note_off_c, 1, 50, 0
1, 76572, Note_off_c, 1, 53, 0
1, 76574, Note_on_c, 1, 79, 127
1, 76574, Note_on_c, 1, 52, 127
1, 76574, Note_on_c, 1, 55, 127
1, 76872, Note_off_c, 1, 79, 0
1, 76876, Note_off_c, 1, 52, 0
1, 76876, Note_off_c, 1, 55, 0
1, 76878, Note_on_c, 1, 76, 127
1, 76878, Note_on_c, 1, 57, 127
1, 76878, Note_on_c, 1, 53, 127
1, 77026, Note_off_c, 1, 76, 0
1, 77030, Note_on_c, 1, 77, 127
1, 77178, Note_off_c, 1, 77, 0
1, 77180, Note_off_c, 1, 57, 0
1, 77180, Note_off_c, 1, 53, 0
1, 77182, Note_on_c, 1, 79, 127
1, 77182, Note_on_c, 1, 52, 127
1, 77182, Note_on_c, 1, 55, 127
1, 77480, Note_off_c, 1, 79, 0
1, 77484, Note_off_c, 1, 52, 0
1, 77484, Note_off_c, 1, 55, 0
1, 77486, Note_on_c, 1, 79, 127
1, 77486, Note_on_c, 1, 50, 127
1, 77486, Note_on_c, 1, 53, 127
1, 77784, Note_off_c, 1, 79, 0
1, 77788, Note_off_c, 1, 50, 0
1, 77788, Note_off_c, 1, 53, 0
1, 77790, Note_on_c, 1, 79, 127
1, 77790, Note_on_c, 1, 52, 127
1, 77790, Note_on_c, 1, 49, 127
1, 78088, Note_off_c, 1, 79, 0
1, 78092, Note_off_c, 1, 52, 0
1, 78092, Note_off_c, 1, 49, 0
1, 78094, Note_on_c, 1, 76, 127
1, 78094, Note_on_c, 1, 47, 127
1, 78094, Note_on_c, 1, 50, 127
1, 78242, Note_off_c, 1, 76, 0
1, 78244, Note_on_c, 1, 77, 127
1, 78392, Note_off_c, 1, 77, 0
1, 78396, Note_off_c, 1, 47, 0
1, 78396, Note_off_c, 1, 50, 0
1, 78396, Note_on_c, 1, 79, 127
1, 78396, Note_on_c, 1, 45, 127
1, 78396, Note_on_c, 1, 49, 127
1, 78694, Note_off_c, 1, 79, 0
1, 78698, Note_off_c, 1, 45, 0
1, 78698, Note_off_c, 1, 49, 0
1, 78700, Note_on_c, 1, 79, 127
1, 78700, Note_on_c, 1, 47, 127
1, 78700, Note_on_c, 1, 50, 127
1, 78998, Note_off_c, 1, 79, 0
1, 79002, Note_off_c, 1, 47, 0
1, 79002, Note_off_c, 1, 50, 0
1, 79004, Note_on_c, 1, 82, 127
1, 79004, Note_on_c, 1, 52, 127
1, 79004, Note_on_c, 1, 49, 127
1, 79302, Note_off_c, 1, 82, 0
1, 79306, Note_off_c, 1, 52, 0
1, 79306, Note_off_c, 1, 49, 0
1, 79308, Note_on_c, 1, 79, 127
1, 79308, Note_on_c, 1, 50, 127
1, 79308, Note_on_c, 1, 53, 127
1, 79456, Note_off_c, 1, 79, 0
1, 79460, Note_on_c, 1, 81, 127
1, 79608, Note_off_c, 1, 81, 0
1, 79610, Note_off_c, 1, 50, 0
1, 79610, Note_off_c, 1, 53, 0
1, 79612, Note_on_c, 1, 82, 127
1, 79612, Note_on_c, 1, 52, 127
1, 79612, Note_on_c, 1, 55, 127
1, 79910, Note_off_c, 1, 82, 0
1, 79914, Note_off_c, 1, 52, 0
1, 79914, Note_off_c, 1, 55, 0
1, 79916, Note_on_c, 1, 82, 127
1, 79916, Note_on_c, 1, 53, 127
1, 79916, Note_on_c, 1, 57, 127
1, 80214, Note_off_c, 1, 82, 0
1, 80218, Note_off_c, 1, 53, 0
1, 80218, Note_off_c, 1, 57, 0
1, 80220, Note_on_c, 1, 55, 127
1, 80220, Note_on_c, 1, 82, 127
1, 80220, Note_on_c, 1, 76, 127
1, 80220, Note_on_c, 1, 73, 127
1, 80220, Note_on_c, 1, 79, 127
1, 80220, Note_on_c, 1, 58, 127
1, 80522, Note_on_c, 1, 52, 127
1, 80662, Note_off_c, 1, 55, 0
1, 80672, Note_off_c, 1, 52, 0
1, 80674, Note_on_c, 1, 53, 127
1, 80824, Note_off_c, 1, 53, 0
1, 80974, Note_off_c, 1, 82, 0
1, 80974, Note_off_c, 1, 76, 0
1, 80974, Note_off_c, 1, 73, 0
1, 80974, Note_off_c, 1, 79, 0
1, 81130, Note_off_c, 1, 58, 0
1, 81130, Note_on_c, 1, 69, 127
1, 81130, Note_on_c, 1, 64, 127
1, 81428, Note_off_c, 1, 69, 0
1, 81432, Note_off_c, 1, 64, 0
1, 81434, Note_on_c, 1, 53, 127
1, 81434, Note_on_c, 1, 74, 127
1, 81434, Note_on_c, 1, 69, 127
1, 81434, Note_on_c, 1, 62, 127
1, 81736, Note_off_c, 1, 53, 0
1, 81738, Note_on_c, 1, 55, 127
1, 81884, Note_off_c, 1, 74, 0
1, 81890, Note_on_c, 1, 76, 127
1, 82030, Note_off_c, 1, 69, 0
1, 82036, Note_off_c, 1, 62, 0
1, 82040, Note_off_c, 1, 55, 0
1, 82040, Note_off_c, 1, 76, 0
1, 82042, Note_on_c, 1, 77, 127
1, 82042, Note_on_c, 1, 73, 127
1, 82042, Note_on_c, 1, 57, 127
1, 82116, Note_off_c, 1, 77, 0
1, 82118, Note_on_c, 1, 76, 127
1, 82192, Note_off_c, 1, 76, 0
1, 82346, Note_on_c, 1, 45, 127
1, 82492, Note_off_c, 1, 73, 0
1, 82498, Note_on_c, 1, 74, 127
1, 82642, Note_off_c, 1, 57, 0
1, 82646, Note_off_c, 1, 74, 0
1, 82648, Note_off_c, 1, 45, 0
1, 82650, Note_on_c, 1, 50, 127
1, 82650, Note_on_c, 1, 65, 127
1, 82650, Note_on_c, 1, 69, 127
1, 82650, Note_on_c, 1, 74, 127
1, 82952, Note_off_c, 1, 50, 0
1, 82954, Note_on_c, 1, 53, 127
1, 83256, Note_off_c, 1, 53, 0
1, 83258, Note_on_c, 1, 57, 127
1, 83406, Note_off_c, 1, 65, 0
1, 83406, Note_off_c, 1, 69, 0
1, 83556, Note_off_c, 1, 74, 0
1, 83560, Note_off_c, 1, 57, 0
1, 83562, Note_on_c, 1, 74, 127
1, 83562, Note_on_c, 1, 53, 127
1, 83710, Note_off_c, 1, 74, 0
1, 83712, Note_on_c, 1, 75, 127
1, 83860, Note_off_c, 1, 75, 0
1, 83864, Note_off_c, 1, 53, 0
1, 83864, Note_on_c, 1, 77, 127
1, 83864, Note_on_c, 1, 50, 127
1, 84162, Note_off_c, 1, 77, 0
1, 84166, Note_off_c, 1, 50, 0
1, 84168, Note_on_c, 1, 74, 127
1, 84168, Note_on_c, 1, 53, 127
1, 84316, Note_off_c, 1, 74, 0
1, 84320, Note_on_c, 1, 75, 127
1, 84468, Note_off_c, 1, 75, 0
1, 84470, Note_off_c, 1, 53, 0
1, 84472, Note_on_c, 1, 77, 127
1, 84472, Note_on_c, 1, 57, 127
1, 84770, Note_off_c, 1, 77, 0
1, 84774, Note_off_c, 1, 57, 0
1, 84776, Note_on_c, 1, 77, 127
1, 84776, Note_on_c, 1, 48, 127
1, 85074, Note_off_c, 1, 77, 0
1, 85078, Note_off_c, 1, 48, 0
1, 85080, Note_on_c, 1, 77, 127
1, 85080, Note_on_c, 1, 47, 127
1, 85378, Note_off_c, 1, 77, 0
1, 85382, Note_off_c, 1, 47, 0
1, 85384, Note_on_c, 1, 74, 127
1, 85384, Note_on_c, 1, 50, 127
1, 85532, Note_off_c, 1, 74, 0
1, 85534, Note_on_c, 1, 75, 127
1, 85682, Note_off_c, 1, 75, 0
1, 85686, Note_off_c, 1, 50, 0
1, 85686, Note_on_c, 1, 77, 127
1, 85686, Note_on_c, 1, 55, 127
1, 85984, Note_off_c, 1, 77, 0
1, 85988, Note_off_c, 1, 55, 0
1, 85990, Note_on_c, 1, 77, 127
1, 85990, Note_on_c, 1, 47, 127
1, 86288, Note_off_c, 1, 77, 0
1, 86292, Note_off_c, 1, 47, 0
1, 86294, Note_on_c, 1, 75, 127
1, 86294, Note_on_c, 1, 48, 127
1, 86592, Note_off_c, 1, 75, 0
1, 86596, Note_off_c, 1, 48, 0
1, 86598, Note_on_c, 1, 72, 127
1, 86598, Note_on_c, 1, 51, 127
1, 86746, Note_off_c, 1, 72, 0
1, 86750, Note_on_c, 1, 74, 127
1, 86898, Note_off_c, 1, 74, 0
1, 86900, Note_off_c, 1, 51, 0
1, 86902, Note_on_c, 1, 75, 127
1, 86902, Note_on_c, 1, 55, 127
1, 87200, Note_off_c, 1, 75, 0
1, 87204, Note_off_c, 1, 55, 0
1, 87206, Note_on_c, 1, 75, 127
1, 87206, Note_on_c, 1, 46, 127
1, 87504, Note_off_c, 1, 75, 0
1, 87508, Note_off_c, 1, 46, 0
1, 87510, Note_on_c, 1, 75, 127
1, 87510, Note_on_c, 1, 45, 127
1, 87808, Note_off_c, 1, 75, 0
1, 87812, Note_off_c, 1, 45, 0
1, 87814, Note_on_c, 1, 72, 127
1, 87814, Note_on_c, 1, 48, 127
1, 87962, Note_off_c, 1, 72, 0
1, 87964, Note_on_c, 1, 74, 127
1, 88112, Note_off_c, 1, 74, 0
1, 88116, Note_off_c, 1, 48, 0
1, 88116, Note_on_c, 1, 75, 127
1, 88116, Note_on_c, 1, 53, 127
1, 88414, Note_off_c, 1, 75, 0
1, 88418, Note_off_c, 1, 53, 0
1, 88420, Note_on_c, 1, 75, 127
1, 88420, Note_on_c, 1, 45, 127
1, 88718, Note_off_c, 1, 75, 0
1, 88722, Note_off_c, 1, 45, 0
1, 88724, Note_on_c, 1, 74, 127
1, 88724, Note_on_c, 1, 46, 127
1, 89022, Note_off_c, 1, 74, 0
1, 89026, Note_off_c, 1, 46, 0
1, 89028, Note_on_c, 1, 70, 127
1, 89028, Note_on_c, 1, 50, 127
1, 89176, Note_off_c, 1, 70, 0
1, 89180, Note_on_c, 1, 72, 127
1, 89328, Note_off_c, 1, 72, 0
1, 89330, Note_off_c, 1, 50, 0
1, 89332, Note_on_c, 1, 74, 127
1, 89332, Note_on_c, 1, 53, 127
1, 89630, Note_off_c, 1, 74, 0
1, 89634, Note_off_c, 1, 53, 0
1, 89636, Note_on_c, 1, 74, 127
1, 89636, Note_on_c, 1, 46, 127
1, 89934, Note_off_c, 1, 74, 0
1, 89938, Note_off_c, 1, 46, 0
1, 89940, Note_on_c, 1, 45, 127
1, 89940, Note_on_c, 1, 72, 127
1, 90242, Note_off_c, 1, 45, 0
1, 90244, Note_on_c, 1, 54, 127
1, 90458, Note_off_c, 1, 72, 0
1, 90470, Note_on_c, 1, 70, 127
1, 90544, Note_off_c, 1, 70, 0
1, 90546, Note_off_c, 1, 54, 0
1, 90548, Note_on_c, 1, 72, 127
1, 90548, Note_on_c, 1, 43, 127
1, 90622, Note_off_c, 1, 72, 0
1, 90624, Note_on_c, 1, 70, 127
1, 90698, Note_off_c, 1, 70, 0
1, 90852, Note_off_c, 1, 43, 0
1, 90852, Note_on_c, 1, 55, 127
1, 91156, Note_off_c, 1, 55, 0
1, 91158, Note_on_c, 1, 50, 127
1, 91158, Note_on_c, 1, 66, 127
1, 91308, Note_off_c, 1, 50, 0
1, 91310, Note_on_c, 1, 67, 127
1, 91310, Note_on_c, 1, 51, 127
1, 91458, Note_off_c, 1, 67, 0
1, 91460, Note_off_c, 1, 51, 0
1, 91462, Note_on_c, 1, 69, 127
1, 91614, Note_on_c, 1, 48, 127
1, 91756, Note_off_c, 1, 66, 0
1, 91764, Note_off_c, 1, 48, 0
1, 91766, Note_on_c, 1, 46, 127
1, 91900, Note_off_c, 1, 69, 0
1, 91916, Note_off_c, 1, 46, 0
1, 91918, Note_on_c, 1, 45, 127
1, 92068, Note_off_c, 1, 45, 0
1, 92070, Note_on_c, 1, 43, 127
1, 92070, Note_on_c, 1, 74, 127
1, 92070, Note_on_c, 1, 70, 127
1, 92070, Note_on_c, 1, 67, 127
1, 92220, Note_off_c, 1, 43, 0
1, 92222, Note_on_c, 1, 41, 127
1, 92368, Note_off_c, 1, 74, 0
1, 92368, Note_off_c, 1, 70, 0
1, 92368, Note_off_c, 1, 67, 0
1, 92372, Note_off_c, 1, 41, 0
1, 92374, Note_on_c, 1, 39, 127
1, 92374, Note_on_c, 1, 67, 127
1, 92374, Note_on_c, 1, 79, 127
1, 92374, Note_on_c, 1, 70, 127
1, 92524, Note_off_c, 1, 39, 0
1, 92526, Note_on_c, 1, 51, 127
1, 92672, Note_off_c, 1, 67, 0
1, 92672, Note_off_c, 1, 79, 0
1, 92672, Note_off_c, 1, 70, 0
1, 92676, Note_off_c, 1, 51, 0
1, 92678, Note_on_c, 1, 50, 127
1, 92678, Note_on_c, 1, 79, 127
1, 92678, Note_on_c, 1, 75, 127
1, 92678, Note_on_c, 1, 69, 127
1, 92828, Note_off_c, 1, 50, 0
1, 92830, Note_on_c, 1, 48, 127
1, 92976, Note_off_c, 1, 79, 0
1, 92976, Note_off_c, 1, 75, 0
1, 92976, Note_off_c, 1, 69, 0
1, 92980, Note_off_c, 1, 48, 0
1, 92982, Note_on_c, 1, 78, 127
1, 92982, Note_on_c, 1, 50, 127
1, 92982, Note_on_c, 1, 69, 127
1, 93280, Note_off_c, 1, 78, 0
1, 93284, Note_off_c, 1, 50, 0
1, 93286, Note_on_c, 1, 76, 127
1, 93286, Note_on_c, 1, 38, 127
1, 93434, Note_off_c, 1, 76, 0
1, 93578, Note_off_c, 1, 69, 0
1, 93588, Note_off_c, 1, 38, 0
1, 93590, Note_on_c, 1, 70, 127
1, 93590, Note_on_c, 1, 79, 127
1, 93590, Note_on_c, 1, 67, 127
1, 93590, Note_on_c, 1, 43, 127
1, 93888, Note_off_c, 1, 70, 0
1, 93888, Note_off_c, 1, 79, 0
1, 93892, Note_on_c, 1, 74, 127
1, 94186, Note_off_c, 1, 67, 0
1, 94190, Note_off_c, 1, 74, 0
1, 94348, Note_off_c, 1, 43, 0
1, 94498, Note_on_c, 1, 67, 127
1, 94498, Note_on_c, 1, 58, 127
1, 94498, Note_on_c, 1, 62, 127
1, 94796, Note_off_c, 1, 67, 0
1, 94800, Note_off_c, 1, 58, 0
1, 94800, Note_off_c, 1, 62, 0
1, 94802, Note_on_c, 1, 77, 127
1, 94802, Note_on_c, 1, 60, 127
1, 94802, Note_on_c, 1, 57, 127
1, 95100, Note_off_c, 1, 77, 0
1, 95106, Note_on_c, 1, 72, 127
1, 95404, Note_off_c, 1, 72, 0
1, 95408, Note_on_c, 1, 69, 127
1, 95560, Note_off_c, 1, 60, 0
1, 95560, Note_off_c, 1, 57, 0
1, 95706, Note_off_c, 1, 69, 0
1, 95712, Note_on_c, 1, 65, 127
1, 95712, Note_on_c, 1, 57, 127
1, 95712, Note_on_c, 1, 60, 127
1, 96010, Note_off_c, 1, 65, 0
1, 96014, Note_off_c, 1, 57, 0
1, 96014, Note_off_c, 1, 60, 0
1, 96016, Note_on_c, 1, 75, 127
1, 96016, Note_on_c, 1, 55, 127
1, 96016, Note_on_c, 1, 58, 127
1, 96314, Note_off_c, 1, 75, 0
1, 96318, Note_on_c, 1, 70, 127
1, 96616, Note_off_c, 1, 70, 0
1, 96622, Note_on_c, 1, 67, 127
1, 96774, Note_off_c, 1, 55, 0
1, 96774, Note_off_c, 1, 58, 0
1, 96920, Note_off_c, 1, 67, 0
1, 96924, Note_on_c, 1, 63, 127
1, 96924, Note_on_c, 1, 55, 127
1, 96924, Note_on_c, 1, 58, 127
1, 97222, Note_off_c, 1, 63, 0
1, 97226, Note_off_c, 1, 55, 0
1, 97226, Note_off_c, 1, 58, 0
1, 97228, Note_on_c, 1, 74, 127
1, 97228, Note_on_c, 1, 54, 127
1, 97228, Note_on_c, 1, 57, 127
1, 97526, Note_off_c, 1, 74, 0
1, 97532, Note_on_c, 1, 69, 127
1, 97830, Note_off_c, 1, 69, 0
1, 97834, Note_on_c, 1, 66, 127
1, 98050, Note_off_c, 1, 54, 0
1, 98050, Note_off_c, 1, 57, 0
1, 98132, Note_off_c, 1, 66, 0
1, 98138, Note_on_c, 1, 62, 127
1, 98138, Note_on_c, 1, 55, 127
1, 98138, Note_on_c, 1, 58, 127
1, 98436, Note_off_c, 1, 62, 0
1, 98440, Note_off_c, 1, 55, 0
1, 98440, Note_off_c, 1, 58, 0
1, 98442, Note_on_c, 1, 72, 127
1, 98442, Note_on_c, 1, 57, 127
1, 98740, Note_off_c, 1, 72, 0
1, 98744, Note_on_c, 1, 69, 127
1, 98744, Note_on_c, 1, 60, 127
1, 98892, Note_off_c, 1, 69, 0
1, 98896, Note_on_c, 1, 70, 127
1, 99044, Note_off_c, 1, 70, 0
1, 99046, Note_off_c, 1, 60, 0
1, 99048, Note_on_c, 1, 63, 127
1, 99350, Note_off_c, 1, 57, 0
1, 99352, Note_on_c, 1, 55, 127
1, 99654, Note_off_c, 1, 55, 0
1, 99656, Note_on_c, 1, 54, 127
1, 99958, Note_off_c, 1, 54, 0
1, 100262, Note_off_c, 1, 63, 0
1, 100262, Note_on_c, 1, 62, 127
1, 100862, Note_off_c, 1, 62, 0
1, 100870, Note_on_c, 1, 70, 127
1, 100870, Note_on_c, 1, 55, 127
1, 101168, Note_off_c, 1, 70, 0
1, 101172, Note_off_c, 1, 55, 0
1, 101174, Note_on_c, 1, 67, 127
1, 101174, Note_on_c, 1, 58, 127
1, 101322, Note_off_c, 1, 67, 0
1, 101324, Note_on_c, 1, 69, 127
1, 101472, Note_off_c, 1, 69, 0
1, 101476, Note_off_c, 1, 58, 0
1, 101476, Note_on_c, 1, 70, 127
1, 101476, Note_on_c, 1, 62, 127
1, 101774, Note_off_c, 1, 70, 0
1, 101778, Note_off_c, 1, 62, 0
1, 101780, Note_on_c, 1, 67, 127
1, 101780, Note_on_c, 1, 62, 127
1, 101780, Note_on_c, 1, 58, 127
1, 102078, Note_off_c, 1, 67, 0
1, 102082, Note_off_c, 1, 62, 0
1, 102082, Note_off_c, 1, 58, 0
1, 102084, Note_on_c, 1, 75, 127
1, 102084, Note_on_c, 1, 57, 127
1, 102084, Note_on_c, 1, 60, 127
1, 102382, Note_off_c, 1, 75, 0
1, 102386, Note_off_c, 1, 57, 0
1, 102386, Note_off_c, 1, 60, 0
1, 102388, Note_on_c, 1, 72, 127
1, 102388, Note_on_c, 1, 62, 127
1, 102388, Note_on_c, 1, 58, 127
1, 102536, Note_off_c, 1, 72, 0
1, 102540, Note_on_c, 1, 74, 127
1, 102688, Note_off_c, 1, 74, 0
1, 102690, Note_off_c, 1, 62, 0
1, 102690, Note_off_c, 1, 58, 0
1, 102692, Note_on_c, 1, 75, 127
1, 102692, Note_on_c, 1, 57, 127
1, 102692, Note_on_c, 1, 60, 127
1, 102990, Note_off_c, 1, 75, 0
1, 102994, Note_off_c, 1, 57, 0
1, 102994, Note_off_c, 1, 60, 0
1, 102996, Note_on_c, 1, 75, 127
1, 102996, Note_on_c, 1, 55, 127
1, 102996, Note_on_c, 1, 58, 127
1, 103294, Note_off_c, 1, 75, 0
1, 103298, Note_off_c, 1, 55, 0
1, 103298, Note_off_c, 1, 58, 0
1, 103300, Note_on_c, 1, 75, 127
1, 103300, Note_on_c, 1, 54, 127
1, 103300, Note_on_c, 1, 57, 127
1, 103598, Note_off_c, 1, 75, 0
1, 103602, Note_off_c, 1, 54, 0
1, 103602, Note_off_c, 1, 57, 0
1, 103604, Note_on_c, 1, 72, 127
1, 103604, Note_on_c, 1, 55, 127
1, 103604, Note_on_c, 1, 58, 127
1, 103752, Note_off_c, 1, 72, 0
1, 103754, Note_on_c, 1, 74, 127
1, 103902, Note_off_c, 1, 74, 0
1, 103906, Note_off_c, 1, 55, 0
1, 103906, Note_off_c, 1, 58, 0
1, 103906, Note_on_c, 1, 75, 127
1, 103906, Note_on_c, 1, 60, 127
1, 103906, Note_on_c, 1, 57, 127
1, 104204, Note_off_c, 1, 75, 0
1, 104208, Note_off_c, 1, 60, 0
1, 104208, Note_off_c, 1, 57, 0
1, 104210, Note_on_c, 1, 75, 127
1, 104210, Note_on_c, 1, 62, 127
1, 104210, Note_on_c, 1, 58, 127
1, 104508, Note_off_c, 1, 75, 0
1, 104512, Note_off_c, 1, 62, 0
1, 104512, Note_off_c, 1, 58, 0
1, 104514, Note_on_c, 1, 63, 127
1, 104514, Note_on_c, 1, 60, 127
1, 104514, Note_on_c, 1, 75, 127
1, 104514, Note_on_c, 1, 66, 127
1, 104514, Note_on_c, 1, 69, 127
1, 104514, Note_on_c, 1, 72, 127
1, 104816, Note_off_c, 1, 63, 0
1, 104816, Note_off_c, 1, 60, 0
1, 104818, Note_on_c, 1, 57, 127
1, 104968, Note_off_c, 1, 57, 0
1, 104970, Note_on_c, 1, 58, 127
1, 105120, Note_off_c, 1, 58, 0
1, 105270, Note_off_c, 1, 75, 0
1, 105270, Note_off_c, 1, 66, 0
1, 105270, Note_off_c, 1, 69, 0
1, 105270, Note_off_c, 1, 72, 0
1, 105426, Note_on_c, 1, 62, 127
1, 105426, Note_on_c, 1, 66, 127
1, 105426, Note_on_c, 1, 57, 127
1, 105426, Note_on_c, 1, 48, 127
1, 105724, Note_off_c, 1, 62, 0
1, 105724, Note_off_c, 1, 66, 0
1, 105728, Note_off_c, 1, 57, 0
1, 105728, Note_off_c, 1, 48, 0
1, 105730, Note_on_c, 1, 46, 127
1, 105730, Note_on_c, 1, 67, 127
1, 105730, Note_on_c, 1, 62, 127
1, 105730, Note_on_c, 1, 55, 127
1, 106032, Note_off_c, 1, 46, 0
1, 106034, Note_on_c, 1, 48, 127
1, 106180, Note_off_c, 1, 67, 0
1, 106186, Note_on_c, 1, 69, 127
1, 106326, Note_off_c, 1, 62, 0
1, 106326, Note_off_c, 1, 69, 0
1, 106332, Note_off_c, 1, 55, 0
1, 106336, Note_off_c, 1, 48, 0
1, 106338, Note_on_c, 1, 69, 127
1, 106338, Note_on_c, 1, 50, 127
1, 106404, Note_on_c, 1, 67, 127
1, 106460, Note_off_c, 1, 67, 0
1, 106470, Note_on_c, 1, 66, 127
1, 106536, Note_off_c, 1, 69, 0
1, 106640, Note_on_c, 1, 38, 127
1, 106794, Note_off_c, 1, 66, 0
1, 106938, Note_off_c, 1, 50, 0
1, 106944, Note_off_c, 1, 38, 0
1, 106946, Note_on_c, 1, 67, 127
1, 106946, Note_on_c, 1, 43, 127
1, 107244, Note_off_c, 1, 67, 0
1, 107248, Note_on_c, 1, 70, 127
1, 107546, Note_off_c, 1, 43, 0
1, 107546, Note_off_c, 1, 70, 0
1, 107552, Note_on_c, 1, 74, 127
1, 107850, Note_off_c, 1, 74, 0
1, 107854, Note_on_c, 1, 79, 127
1, 107854, Note_on_c, 1, 58, 127
1, 107854, Note_on_c, 1, 62, 127
1, 108152, Note_off_c, 1, 79, 0
1, 108156, Note_off_c, 1, 58, 0
1, 108156, Note_off_c, 1, 62, 0
1, 108158, Note_on_c, 1, 65, 127
1, 108158, Note_on_c, 1, 57, 127
1, 108158, Note_on_c, 1, 60, 127
1, 108456, Note_off_c, 1, 65, 0
1, 108462, Note_on_c, 1, 69, 127
1, 108760, Note_off_c, 1, 69, 0
1, 108764, Note_on_c, 1, 72, 127
1, 108916, Note_off_c, 1, 57, 0
1, 108916, Note_off_c, 1, 60, 0
1, 109062, Note_off_c, 1, 72, 0
1, 109068, Note_on_c, 1, 77, 127
1, 109068, Note_on_c, 1, 57, 127
1, 109068, Note_on_c, 1, 60, 127
1, 109366, Note_off_c, 1, 77, 0
1, 109370, Note_off_c, 1, 57, 0
1, 109370, Note_off_c, 1, 60, 0
1, 109372, Note_on_c, 1, 63, 127
1, 109372, Note_on_c, 1, 55, 127
1, 109372, Note_on_c, 1, 58, 127
1, 109670, Note_off_c, 1, 63, 0
1, 109674, Note_on_c, 1, 67, 127
1, 109972, Note_off_c, 1, 67, 0
1, 109978, Note_on_c, 1, 70, 127
1, 110130, Note_off_c, 1, 55, 0
1, 110130, Note_off_c, 1, 58, 0
1, 110276, Note_off_c, 1, 70, 0
1, 110280, Note_on_c, 1, 75, 127
1, 110280, Note_on_c, 1, 55, 127
1, 110280, Note_on_c, 1, 58, 127
1, 110578, Note_off_c, 1, 75, 0
1, 110582, Note_off_c, 1, 55, 0
1, 110582, Note_off_c, 1, 58, 0
1, 110584, Note_on_c, 1, 62, 127
1, 110584, Note_on_c, 1, 53, 127
1, 110584, Note_on_c, 1, 57, 127
1, 110882, Note_off_c, 1, 62, 0
1, 110888, Note_on_c, 1, 65, 127
1, 111186, Note_off_c, 1, 65, 0
1, 111190, Note_on_c, 1, 69, 127
1, 111342, Note_off_c, 1, 53, 0
1, 111342, Note_off_c, 1, 57, 0
1, 111488, Note_off_c, 1, 69, 0
1, 111494, Note_on_c, 1, 74, 127
1, 111494, Note_on_c, 1, 53, 127
1, 111494, Note_on_c, 1, 57, 127
1, 111792, Note_off_c, 1, 74, 0
1, 111796, Note_off_c, 1, 53, 0
1, 111796, Note_off_c, 1, 57, 0
1, 111798, Note_on_c, 1, 60, 127
1, 111798, Note_on_c, 1, 55, 127
1, 111798, Note_on_c, 1, 51, 127
1, 112096, Note_off_c, 1, 60, 0
1, 112100, Note_on_c, 1, 63, 127
1, 112398, Note_off_c, 1, 63, 0
1, 112404, Note_on_c, 1, 67, 127
1, 112556, Note_off_c, 1, 55, 0
1, 112556, Note_off_c, 1, 51, 0
1, 112702, Note_off_c, 1, 67, 0
1, 112706, Note_on_c, 1, 72, 127
1, 112706, Note_on_c, 1, 51, 127
1, 112706, Note_on_c, 1, 55, 127
1, 113004, Note_off_c, 1, 72, 0
1, 113008, Note_off_c, 1, 51, 0
1, 113008, Note_off_c, 1, 55, 0
1, 113010, Note_on_c, 1, 70, 127
1, 113010, Note_on_c, 1, 53, 127
1, 113010, Note_on_c, 1, 65, 127
1, 113084, Note_off_c, 1, 70, 0
1, 113086, Note_on_c, 1, 69, 127
1, 113160, Note_off_c, 1, 69, 0
1, 113162, Note_off_c, 1, 53, 0
1, 113164, Note_on_c, 1, 51, 127
1, 113314, Note_off_c, 1, 51, 0
1, 113316, Note_on_c, 1, 50, 127
1, 113466, Note_off_c, 1, 50, 0
1, 113916, Note_off_c, 1, 65, 0
1, 113922, Note_on_c, 1, 41, 127
1, 114224, Note_off_c, 1, 41, 0
1, 114226, Note_on_c, 1, 70, 127
1, 114226, Note_on_c, 1, 46, 127
1, 114378, Note_on_c, 1, 82, 127
1, 114522, Note_off_c, 1, 70, 0
1, 114528, Note_off_c, 1, 82, 0
1, 114530, Note_off_c, 1, 46, 0
1, 114532, Note_on_c, 1, 81, 127
1, 114532, Note_on_c, 1, 58, 127
1, 114680, Note_off_c, 1, 81, 0
1, 114682, Note_on_c, 1, 79, 127
1, 114830, Note_off_c, 1, 79, 0
1, 114834, Note_off_c, 1, 58, 0
1, 114834, Note_on_c, 1, 77, 127
1, 114834, Note_on_c, 1, 62, 127
1, 114982, Note_off_c, 1, 77, 0
1, 115136, Note_off_c, 1, 62, 0
1, 115138, Note_on_c, 1, 75, 127
1, 115138, Note_on_c, 1, 65, 127
1, 115286, Note_off_c, 1, 75, 0
1, 115288, Note_on_c, 1, 77, 127
1, 115436, Note_off_c, 1, 77, 0
1, 115440, Note_off_c, 1, 65, 0
1, 115440, Note_on_c, 1, 74, 127
1, 115440, Note_on_c, 1, 70, 127
1, 115588, Note_off_c, 1, 74, 0
1, 115742, Note_off_c, 1, 70, 0
1, 115744, Note_on_c, 1, 72, 127
1, 115744, Note_on_c, 1, 65, 127
1, 115892, Note_off_c, 1, 72, 0
1, 115894, Note_on_c, 1, 74, 127
1, 116042, Note_off_c, 1, 74, 0
1, 116046, Note_off_c, 1, 65, 0
1, 116046, Note_on_c, 1, 70, 127
1, 116046, Note_on_c, 1, 62, 127
1, 116194, Note_off_c, 1, 70, 0
1, 116348, Note_off_c, 1, 62, 0
1, 116350, Note_on_c, 1, 69, 127
1, 116350, Note_on_c, 1, 65, 127
1, 116498, Note_off_c, 1, 69, 0
1, 116500, Note_on_c, 1, 72, 127
1, 116648, Note_off_c, 1, 72, 0
1, 116652, Note_off_c, 1, 65, 0
1, 116652, Note_on_c, 1, 70, 127
1, 116652, Note_on_c, 1, 62, 127
1, 116726, Note_off_c, 1, 70, 0
1, 116804, Note_on_c, 1, 74, 127
1, 116878, Note_off_c, 1, 74, 0
1, 116880, Note_on_c, 1, 75, 127
1, 116954, Note_off_c, 1, 75, 0
1, 116956, Note_off_c, 1, 62, 0
1, 116958, Note_on_c, 1, 77, 127
1, 116958, Note_on_c, 1, 58, 127
1, 117106, Note_off_c, 1, 77, 0
1, 117108, Note_on_c, 1, 74, 127
1, 117256, Note_off_c, 1, 74, 0
1, 117260, Note_off_c, 1, 58, 0
1, 117260, Note_on_c, 1, 70, 127
1, 117260, Note_on_c, 1, 62, 127
1, 117408, Note_off_c, 1, 70, 0
1, 117562, Note_off_c, 1, 62, 0
1, 117564, Note_on_c, 1, 77, 127
1, 117564, Note_on_c, 1, 58, 127
1, 117712, Note_off_c, 1, 77, 0
1, 117714, Note_on_c, 1, 74, 127
1, 117862, Note_off_c, 1, 74, 0
1, 117866, Note_off_c, 1, 58, 0
1, 117866, Note_on_c, 1, 69, 127
1, 117866, Note_on_c, 1, 65, 127
1, 118014, Note_off_c, 1, 69, 0
1, 118018, Note_on_c, 1, 72, 127
1, 118166, Note_off_c, 1, 72, 0
1, 118168, Note_off_c, 1, 65, 0
1, 118170, Note_on_c, 1, 77, 127
1, 118170, Note_on_c, 1, 57, 127
1, 118318, Note_off_c, 1, 77, 0
1, 118320, Note_on_c, 1, 72, 127
1, 118468, Note_off_c, 1, 72, 0
1, 118472, Note_off_c, 1, 57, 0
1, 118472, Note_on_c, 1, 69, 127
1, 118472, Note_on_c, 1, 53, 127
1, 118620, Note_off_c, 1, 69, 0
1, 118774, Note_off_c, 1, 53, 0
1, 118776, Note_on_c, 1, 77, 127
1, 118776, Note_on_c, 1, 57, 127
1, 118924, Note_off_c, 1, 77, 0
1, 118926, Note_on_c, 1, 72, 127
1, 119074, Note_off_c, 1, 72, 0
1, 119078, Note_off_c, 1, 57, 0
1, 119078, Note_on_c, 1, 67, 127
1, 119078, Note_on_c, 1, 55, 127
1, 119152, Note_off_c, 1, 67, 0
1, 119154, Note_on_c, 1, 70, 127
1, 119228, Note_off_c, 1, 70, 0
1, 119306, Note_on_c, 1, 74, 127
1, 119380, Note_off_c, 1, 74, 0
1, 119382, Note_off_c, 1, 55, 0
1, 119384, Note_on_c, 1, 75, 127
1, 119384, Note_on_c, 1, 58, 127
1, 119532, Note_off_c, 1, 75, 0
1, 119534, Note_on_c, 1, 70, 127
1, 119682, Note_off_c, 1, 70, 0
1, 119686, Note_off_c, 1, 58, 0
1, 119686, Note_on_c, 1, 67, 127
1, 119686, Note_on_c, 1, 48, 127
1, 119834, Note_off_c, 1, 67, 0
1, 119988, Note_off_c, 1, 48, 0
1, 119990, Note_on_c, 1, 75, 127
1, 119990, Note_on_c, 1, 58, 127
1, 120138, Note_off_c, 1, 75, 0
1, 120140, Note_on_c, 1, 70, 127
1, 120288, Note_off_c, 1, 70, 0
1, 120292, Note_off_c, 1, 58, 0
1, 120292, Note_on_c, 1, 65, 127
1, 120292, Note_on_c, 1, 53, 127
1, 120366, Note_off_c, 1, 65, 0
1, 120368, Note_on_c, 1, 69, 127
1, 120442, Note_off_c, 1, 69, 0
1, 120520, Note_on_c, 1, 72, 127
1, 120594, Note_off_c, 1, 72, 0
1, 120596, Note_off_c, 1, 53, 0
1, 120598, Note_on_c, 1, 74, 127
1, 120598, Note_on_c, 1, 57, 127
1, 120746, Note_off_c, 1, 74, 0
1, 120748, Note_on_c, 1, 69, 127
1, 120896, Note_off_c, 1, 69, 0
1, 120900, Note_off_c, 1, 57, 0
1, 120900, Note_on_c, 1, 65, 127
1, 120900, Note_on_c, 1, 46, 127
1, 121048, Note_off_c, 1, 65, 0
1, 121202, Note_off_c, 1, 46, 0
1, 121204, Note_on_c, 1, 74, 127
1, 121204, Note_on_c, 1, 57, 127
1, 121352, Note_off_c, 1, 74, 0
1, 121354, Note_on_c, 1, 69, 127
1, 121502, Note_off_c, 1, 69, 0
1, 121506, Note_off_c, 1, 57, 0
1, 121506, Note_on_c, 1, 63, 127
1, 121506, Note_on_c, 1, 51, 127
1, 121580, Note_off_c, 1, 63, 0
1, 121582, Note_on_c, 1, 67, 127
1, 121656, Note_off_c, 1, 67, 0
1, 121734, Note_on_c, 1, 70, 127
1, 121808, Note_off_c, 1, 70, 0
1, 121810, Note_off_c, 1, 51, 0
1, 121812, Note_on_c, 1, 72, 127
1, 121812, Note_on_c, 1, 55, 127
1, 121960, Note_off_c, 1, 72, 0
1, 121962, Note_on_c, 1, 67, 127
1, 122110, Note_off_c, 1, 67, 0
1, 122114, Note_off_c, 1, 55, 0
1, 122114, Note_on_c, 1, 63, 127
1, 122114, Note_on_c, 1, 45, 127
1, 122262, Note_off_c, 1, 63, 0
1, 122416, Note_off_c, 1, 45, 0
1, 122418, Note_on_c, 1, 72, 127
1, 122418, Note_on_c, 1, 55, 127
1, 122566, Note_off_c, 1, 72, 0
1, 122568, Note_on_c, 1, 63, 127
1, 122716, Note_off_c, 1, 63, 0
1, 122720, Note_off_c, 1, 55, 0
1, 122720, Note_on_c, 1, 62, 127
1, 122720, Note_on_c, 1, 50, 127
1, 122794, Note_off_c, 1, 62, 0
1, 122796, Note_on_c, 1, 65, 127
1, 122870, Note_off_c, 1, 65, 0
1, 122872, Note_on_c, 1, 67, 127
1, 122946, Note_off_c, 1, 67, 0
1, 122948, Note_on_c, 1, 69, 127
1, 123022, Note_off_c, 1, 69, 0
1, 123024, Note_off_c, 1, 50, 0
1, 123026, Note_on_c, 1, 70, 127
1, 123026, Note_on_c, 1, 53, 127
1, 123174, Note_off_c, 1, 70, 0
1, 123176, Note_on_c, 1, 65, 127
1, 123324, Note_off_c, 1, 65, 0
1, 123328, Note_off_c, 1, 53, 0
1, 123328, Note_on_c, 1, 62, 127
1, 123328, Note_on_c, 1, 43, 127
1, 123476, Note_off_c, 1, 62, 0
1, 123630, Note_off_c, 1, 43, 0
1, 123632, Note_on_c, 1, 70, 127
1, 123632, Note_on_c, 1, 53, 127
1, 123780, Note_off_c, 1, 70, 0
1, 123782, Note_on_c, 1, 62, 127
1, 123930, Note_off_c, 1, 62, 0
1, 123934, Note_off_c, 1, 53, 0
1, 123934, Note_on_c, 1, 60, 127
1, 123934, Note_on_c, 1, 48, 127
1, 124082, Note_off_c, 1, 60, 0
1, 124086, Note_on_c, 1, 63, 127
1, 124160, Note_off_c, 1, 63, 0
1, 124162, Note_on_c, 1, 67, 127
1, 124236, Note_off_c, 1, 48, 0
1, 124236, Note_off_c, 1, 67, 0
1, 124238, Note_on_c, 1, 70, 127
1, 124238, Note_on_c, 1, 55, 127
1, 124386, Note_off_c, 1, 70, 0
1, 124390, Note_on_c, 1, 67, 127
1, 124464, Note_off_c, 1, 67, 0
1, 124466, Note_on_c, 1, 63, 127
1, 124540, Note_off_c, 1, 55, 0
1, 124540, Note_off_c, 1, 63, 0
1, 124542, Note_on_c, 1, 60, 127
1, 124542, Note_on_c, 1, 51, 127
1, 124690, Note_off_c, 1, 60, 0
1, 124694, Note_on_c, 1, 63, 127
1, 124768, Note_off_c, 1, 63, 0
1, 124770, Note_on_c, 1, 67, 127
1, 124844, Note_off_c, 1, 51, 0
1, 124844, Note_off_c, 1, 67, 0
1, 124846, Note_on_c, 1, 70, 127
1, 124846, Note_on_c, 1, 48, 127
1, 124994, Note_off_c, 1, 70, 0
1, 124998, Note_on_c, 1, 67, 127
1, 125072, Note_off_c, 1, 67, 0
1, 125074, Note_on_c, 1, 63, 127
1, 125148, Note_off_c, 1, 48, 0
1, 125148, Note_off_c, 1, 63, 0
1, 125150, Note_on_c, 1, 60, 127
1, 125150, Note_on_c, 1, 53, 127
1, 125298, Note_off_c, 1, 60, 0
1, 125302, Note_on_c, 1, 63, 127
1, 125376, Note_off_c, 1, 63, 0
1, 125378, Note_on_c, 1, 65, 127
1, 125452, Note_off_c, 1, 53, 0
1, 125452, Note_off_c, 1, 65, 0
1, 125454, Note_on_c, 1, 69, 127
1, 125454, Note_on_c, 1, 48, 127
1, 125602, Note_off_c, 1, 69, 0
1, 125606, Note_on_c, 1, 65, 127
1, 125680, Note_off_c, 1, 65, 0
1, 125682, Note_on_c, 1, 63, 127
1, 125756, Note_off_c, 1, 48, 0
1, 125756, Note_off_c, 1, 63, 0
1, 125758, Note_on_c, 1, 60, 127
1, 125758, Note_on_c, 1, 45, 127
1, 125906, Note_off_c, 1, 60, 0
1, 125910, Note_on_c, 1, 63, 127
1, 125984, Note_off_c, 1, 63, 0
1, 125986, Note_on_c, 1, 65, 127
1, 126060, Note_off_c, 1, 45, 0
1, 126060, Note_off_c, 1, 65, 0
1, 126062, Note_on_c, 1, 69, 127
1, 126062, Note_on_c, 1, 41, 127
1, 126210, Note_off_c, 1, 69, 0
1, 126214, Note_on_c, 1, 65, 127
1, 126324, Note_off_c, 1, 65, 0
1, 126364, Note_off_c, 1, 41, 0
1, 126366, Note_on_c, 1, 74, 127
1, 126366, Note_on_c, 1, 77, 127
1, 126366, Note_on_c, 1, 70, 127
1, 126366, Note_on_c, 1, 46, 127
1, 126966, Note_off_c, 1, 74, 0
1, 126966, Note_off_c, 1, 77, 0
1, 126966, Note_off_c, 1, 70, 0
1, 127124, Note_off_c, 1, 46, 0
1, 127276, Note_on_c, 1, 65, 127
1, 127426, Note_off_c, 1, 65, 0
1, 127428, Note_on_c, 1, 72, 127
1, 127428, Note_on_c, 1, 63, 127
1, 127576, Note_off_c, 1, 72, 0
1, 127578, Note_off_c, 1, 63, 0
1, 127580, Note_on_c, 1, 62, 127
1, 127580, Note_on_c, 1, 70, 127
1, 127730, Note_off_c, 1, 62, 0
1, 127732, Note_on_c, 1, 63, 127
1, 127882, Note_off_c, 1, 63, 0
1, 127884, Note_on_c, 1, 65, 127
1, 128032, Note_off_c, 1, 65, 0
1, 128036, Note_on_c, 1, 60, 127
1, 128178, Note_off_c, 1, 70, 0
1, 128188, Note_off_c, 1, 60, 0
1, 128188, Note_on_c, 1, 58, 127
1, 128338, Note_off_c, 1, 58, 0
1, 128492, Note_on_c, 1, 58, 127
1, 128492, Note_on_c, 1, 74, 127
1, 128492, Note_on_c, 1, 77, 127
1, 128492, Note_on_c, 1, 70, 127
1, 128642, Note_off_c, 1, 58, 0
1, 128644, Note_on_c, 1, 57, 127
1, 128790, Note_off_c, 1, 74, 0
1, 128790, Note_off_c, 1, 77, 0
1, 128790, Note_off_c, 1, 70, 0
1, 128794, Note_off_c, 1, 57, 0
1, 128796, Note_on_c, 1, 55, 127
1, 128796, Note_on_c, 1, 74, 127
1, 128796, Note_on_c, 1, 82, 127
1, 128796, Note_on_c, 1, 70, 127
1, 128946, Note_off_c, 1, 55, 0
1, 129094, Note_off_c, 1, 74, 0
1, 129094, Note_off_c, 1, 82, 0
1, 129094, Note_off_c, 1, 70, 0
1, 129100, Note_on_c, 1, 53, 127
1, 129100, Note_on_c, 1, 82, 127
1, 129100, Note_on_c, 1, 79, 127
1, 129100, Note_on_c, 1, 72, 127
1, 129250, Note_off_c, 1, 53, 0
1, 129252, Note_on_c, 1, 51, 127
1, 129398, Note_off_c, 1, 82, 0
1, 129398, Note_off_c, 1, 79, 0
1, 129398, Note_off_c, 1, 72, 0
1, 129402, Note_off_c, 1, 51, 0
1, 129404, Note_on_c, 1, 81, 127
1, 129404, Note_on_c, 1, 53, 127
1, 129404, Note_on_c, 1, 72, 127
1, 129702, Note_off_c, 1, 81, 0
1, 129706, Note_off_c, 1, 53, 0
1, 129708, Note_on_c, 1, 79, 127
1, 129708, Note_on_c, 1, 41, 127
1, 129856, Note_off_c, 1, 79, 0
1, 130000, Note_off_c, 1, 72, 0
1, 130010, Note_off_c, 1, 41, 0
1, 130012, Note_on_c, 1, 82, 127
1, 130012, Note_on_c, 1, 74, 127
1, 130012, Note_on_c, 1, 46, 127
1, 130012, Note_on_c, 1, 70, 127
1, 130310, Note_off_c, 1, 82, 0
1, 130310, Note_off_c, 1, 74, 0
1, 130314, Note_off_c, 1, 46, 0
1, 130316, Note_on_c, 1, 77, 127
1, 130316, Note_on_c, 1, 50, 127
1, 130608, Note_off_c, 1, 70, 0
1, 130614, Note_off_c, 1, 77, 0
1, 130618, Note_off_c, 1, 50, 0
1, 130620, Note_on_c, 1, 74, 127
1, 130620, Note_on_c, 1, 53, 127
1, 130768, Note_off_c, 1, 74, 0
1, 130772, Note_on_c, 1, 70, 127
1, 130920, Note_off_c, 1, 70, 0
1, 130922, Note_off_c, 1, 53, 0
1, 130924, Note_on_c, 1, 74, 127
1, 130924, Note_on_c, 1, 58, 127
1, 131072, Note_off_c, 1, 74, 0
1, 131074, Note_on_c, 1, 77, 127
1, 131222, Note_off_c, 1, 77, 0
1, 131226, Note_off_c, 1, 58, 0
1, 131226, Note_on_c, 1, 79, 127
1, 131226, Note_on_c, 1, 51, 127
1, 131374, Note_off_c, 1, 79, 0
1, 131528, Note_off_c, 1, 51, 0
1, 131530, Note_on_c, 1, 75, 127
1, 131530, Note_on_c, 1, 55, 127
1, 131678, Note_off_c, 1, 75, 0
1, 131680, Note_on_c, 1, 74, 127
1, 131828, Note_off_c, 1, 74, 0
1, 131832, Note_off_c, 1, 55, 0
1, 131832, Note_on_c, 1, 72, 127
1, 131832, Note_on_c, 1, 45, 127
1, 131980, Note_off_c, 1, 72, 0
1, 132134, Note_off_c, 1, 45, 0
1, 132136, Note_on_c, 1, 74, 127
1, 132136, Note_on_c, 1, 55, 127
1, 132284, Note_off_c, 1, 74, 0
1, 132286, Note_on_c, 1, 75, 127
1, 132434, Note_off_c, 1, 75, 0
1, 132438, Note_off_c, 1, 55, 0
1, 132438, Note_on_c, 1, 77, 127
1, 132438, Note_on_c, 1, 50, 127
1, 132586, Note_off_c, 1, 77, 0
1, 132740, Note_off_c, 1, 50, 0
1, 132742, Note_on_c, 1, 74, 127
1, 132742, Note_on_c, 1, 53, 127
1, 132890, Note_off_c, 1, 74, 0
1, 132892, Note_on_c, 1, 72, 127
1, 133040, Note_off_c, 1, 72, 0
1, 133044, Note_off_c, 1, 53, 0
1, 133044, Note_on_c, 1, 70, 127
1, 133044, Note_on_c, 1, 43, 127
1, 133192, Note_off_c, 1, 70, 0
1, 133346, Note_off_c, 1, 43, 0
1, 133348, Note_on_c, 1, 72, 127
1, 133348, Note_on_c, 1, 53, 127
1, 133496, Note_off_c, 1, 72, 0
1, 133498, Note_on_c, 1, 74, 127
1, 133646, Note_off_c, 1, 74, 0
1, 133650, Note_off_c, 1, 53, 0
1, 133650, Note_on_c, 1, 75, 127
1, 133650, Note_on_c, 1, 48, 127
1, 133798, Note_off_c, 1, 75, 0
1, 133952, Note_off_c, 1, 48, 0
1, 133954, Note_on_c, 1, 72, 127
1, 133954, Note_on_c, 1, 51, 127
1, 134102, Note_off_c, 1, 72, 0
1, 134104, Note_on_c, 1, 70, 127
1, 134252, Note_off_c, 1, 70, 0
1, 134256, Note_off_c, 1, 51, 0
1, 134256, Note_on_c, 1, 69, 127
1, 134256, Note_on_c, 1, 41, 127
1, 134404, Note_off_c, 1, 69, 0
1, 134558, Note_off_c, 1, 41, 0
1, 134560, Note_on_c, 1, 70, 127
1, 134560, Note_on_c, 1, 51, 127
1, 134708, Note_off_c, 1, 70, 0
1, 134710, Note_on_c, 1, 72, 127
1, 134858, Note_off_c, 1, 72, 0
1, 134862, Note_off_c, 1, 51, 0
1, 134862, Note_on_c, 1, 74, 127
1, 134862, Note_on_c, 1, 46, 127
1, 135010, Note_off_c, 1, 74, 0
1, 135012, Note_off_c, 1, 46, 0
1, 135014, Note_on_c, 1, 75, 127
1, 135014, Note_on_c, 1, 48, 127
1, 135162, Note_off_c, 1, 75, 0
1, 135164, Note_off_c, 1, 48, 0
1, 135166, Note_on_c, 1, 77, 127
1, 135166, Note_on_c, 1, 50, 127
1, 135314, Note_off_c, 1, 77, 0
1, 135316, Note_off_c, 1, 50, 0
1, 135318, Note_on_c, 1, 79, 127
1, 135318, Note_on_c, 1, 51, 127
1, 135466, Note_off_c, 1, 79, 0
1, 135468, Note_off_c, 1, 51, 0
1, 135470, Note_on_c, 1, 74, 127
1, 135470, Note_on_c, 1, 53, 127
1, 135470, Note_on_c, 1, 69, 127
1, 135532, Note_off_c, 1, 74, 0
1, 135534, Note_on_c, 1, 72, 127
1, 135596, Note_off_c, 1, 72, 0
1, 135776, Note_off_c, 1, 53, 0
1, 135778, Note_on_c, 1, 41, 127
1, 135912, Note_off_c, 1, 69, 0
1, 135930, Note_on_c, 1, 70, 127
1, 136078, Note_off_c, 1, 70, 0
1, 136080, Note_off_c, 1, 41, 0
1, 136082, Note_on_c, 1, 70, 127
1, 136082, Note_on_c, 1, 46, 127
1, 136230, Note_off_c, 1, 70, 0
1, 136232, Note_on_c, 1, 65, 127
1, 136380, Note_off_c, 1, 65, 0
1, 136384, Note_on_c, 1, 67, 127
1, 136532, Note_off_c, 1, 67, 0
1, 136534, Note_on_c, 1, 69, 127
1, 136618, Note_off_c, 1, 46, 0
1, 136682, Note_off_c, 1, 69, 0
1, 136686, Note_on_c, 1, 70, 127
1, 136834, Note_off_c, 1, 70, 0
1, 136836, Note_on_c, 1, 69, 127
1, 136836, Note_on_c, 1, 41, 127
1, 136984, Note_off_c, 1, 69, 0
1, 136986, Note_off_c, 1, 41, 0
1, 136988, Note_on_c, 1, 70, 127
1, 136988, Note_on_c, 1, 43, 127
1, 137136, Note_off_c, 1, 70, 0
1, 137138, Note_off_c, 1, 43, 0
1, 137140, Note_on_c, 1, 72, 127
1, 137140, Note_on_c, 1, 45, 127
1, 137288, Note_off_c, 1, 72, 0
1, 137290, Note_off_c, 1, 45, 0
1, 137292, Note_on_c, 1, 74, 127
1, 137292, Note_on_c, 1, 46, 127
1, 137440, Note_off_c, 1, 74, 0
1, 137442, Note_off_c, 1, 46, 0
1, 137444, Note_on_c, 1, 72, 127
1, 137444, Note_on_c, 1, 45, 127
1, 137592, Note_off_c, 1, 72, 0
1, 137594, Note_off_c, 1, 45, 0
1, 137596, Note_on_c, 1, 74, 127
1, 137596, Note_on_c, 1, 46, 127
1, 137744, Note_off_c, 1, 74, 0
1, 137746, Note_off_c, 1, 46, 0
1, 137748, Note_on_c, 1, 75, 127
1, 137748, Note_on_c, 1, 48, 127
1, 137896, Note_off_c, 1, 75, 0
1, 137898, Note_off_c, 1, 48, 0
1, 137900, Note_on_c, 1, 77, 127
1, 137900, Note_on_c, 1, 50, 127
1, 138048, Note_off_c, 1, 77, 0
1, 138050, Note_off_c, 1, 50, 0
1, 138052, Note_on_c, 1, 82, 127
1, 138052, Note_on_c, 1, 48, 127
1, 138200, Note_off_c, 1, 82, 0
1, 138202, Note_off_c, 1, 48, 0
1, 138204, Note_on_c, 1, 81, 127
1, 138204, Note_on_c, 1, 50, 127
1, 138352, Note_off_c, 1, 81, 0
1, 138354, Note_off_c, 1, 50, 0
1, 138356, Note_on_c, 1, 79, 127
1, 138356, Note_on_c, 1, 51, 127
1, 138504, Note_off_c, 1, 79, 0
1, 138506, Note_off_c, 1, 51, 0
1, 138508, Note_on_c, 1, 77, 127
1, 138508, Note_on_c, 1, 53, 127
1, 138656, Note_off_c, 1, 77, 0
1, 138658, Note_off_c, 1, 53, 0
1, 138660, Note_on_c, 1, 79, 127
1, 138660, Note_on_c, 1, 58, 127
1, 138808, Note_off_c, 1, 79, 0
1, 138810, Note_off_c, 1, 58, 0
1, 138812, Note_on_c, 1, 77, 127
1, 138812, Note_on_c, 1, 57, 127
1, 138960, Note_off_c, 1, 77, 0
1, 138962, Note_off_c, 1, 57, 0
1, 138964, Note_on_c, 1, 75, 127
1, 138964, Note_on_c, 1, 55, 127
1, 139112, Note_off_c, 1, 75, 0
1, 139114, Note_off_c, 1, 55, 0
1, 139116, Note_on_c, 1, 74, 127
1, 139116, Note_on_c, 1, 53, 127
1, 139264, Note_off_c, 1, 74, 0
1, 139266, Note_off_c, 1, 53, 0
1, 139268, Note_on_c, 1, 75, 127
1, 139268, Note_on_c, 1, 55, 127
1, 139416, Note_off_c, 1, 75, 0
1, 139418, Note_off_c, 1, 55, 0
1, 139420, Note_on_c, 1, 74, 127
1, 139420, Note_on_c, 1, 53, 127
1, 139568, Note_off_c, 1, 74, 0
1, 139570, Note_off_c, 1, 53, 0
1, 139572, Note_on_c, 1, 72, 127
1, 139572, Note_on_c, 1, 51, 127
1, 139720, Note_off_c, 1, 72, 0
1, 139722, Note_off_c, 1, 51, 0
1, 139724, Note_on_c, 1, 70, 127
1, 139724, Note_on_c, 1, 50, 127
1, 139872, Note_off_c, 1, 70, 0
1, 139874, Note_off_c, 1, 50, 0
1, 139876, Note_on_c, 1, 69, 127
1, 139876, Note_on_c, 1, 51, 127
1, 140024, Note_off_c, 1, 69, 0
1, 140026, Note_off_c, 1, 51, 0
1, 140028, Note_on_c, 1, 70, 127
1, 140028, Note_on_c, 1, 50, 127
1, 140176, Note_off_c, 1, 70, 0
1, 140178, Note_off_c, 1, 50, 0
1, 140180, Note_on_c, 1, 72, 127
1, 140180, Note_on_c, 1, 48, 127
1, 140328, Note_off_c, 1, 72, 0
1, 140330, Note_off_c, 1, 48, 0
1, 140332, Note_on_c, 1, 74, 127
1, 140332, Note_on_c, 1, 46, 127
1, 140480, Note_off_c, 1, 74, 0
1, 140482, Note_off_c, 1, 46, 0
1, 140484, Note_on_c, 1, 72, 127
1, 140484, Note_on_c, 1, 48, 127
1, 140632, Note_off_c, 1, 72, 0
1, 140634, Note_off_c, 1, 48, 0
1, 140636, Note_on_c, 1, 70, 127
1, 140636, Note_on_c, 1, 50, 127
1, 140784, Note_off_c, 1, 70, 0
1, 140786, Note_off_c, 1, 50, 0
1, 140788, Note_on_c, 1, 69, 127
1, 140788, Note_on_c, 1, 46, 127
1, 140936, Note_off_c, 1, 69, 0
1, 140938, Note_off_c, 1, 46, 0
1, 140940, Note_on_c, 1, 51, 127
1, 140940, Note_on_c, 1, 67, 127
1, 141090, Note_off_c, 1, 51, 0
1, 141092, Note_on_c, 1, 53, 127
1, 141242, Note_off_c, 1, 53, 0
1, 141378, Note_off_c, 1, 67, 0
1, 141396, Note_on_c, 1, 50, 127
1, 141546, Note_off_c, 1, 50, 0
1, 141548, Note_on_c, 1, 79, 127
1, 141548, Note_on_c, 1, 48, 127
1, 141696, Note_off_c, 1, 79, 0
1, 141700, Note_on_c, 1, 81, 127
1, 141848, Note_off_c, 1, 81, 0
1, 142002, Note_on_c, 1, 77, 127
1, 142084, Note_off_c, 1, 48, 0
1, 142150, Note_off_c, 1, 77, 0
1, 142152, Note_on_c, 1, 75, 127
1, 142152, Note_on_c, 1, 60, 127
1, 142300, Note_off_c, 1, 75, 0
1, 142302, Note_off_c, 1, 60, 0
1, 142304, Note_on_c, 1, 77, 127
1, 142304, Note_on_c, 1, 62, 127
1, 142452, Note_off_c, 1, 77, 0
1, 142454, Note_off_c, 1, 62, 0
1, 142456, Note_on_c, 1, 75, 127
1, 142456, Note_on_c, 1, 60, 127
1, 142604, Note_off_c, 1, 75, 0
1, 142606, Note_off_c, 1, 60, 0
1, 142608, Note_on_c, 1, 74, 127
1, 142608, Note_on_c, 1, 58, 127
1, 142756, Note_off_c, 1, 74, 0
1, 142758, Note_off_c, 1, 58, 0
1, 142760, Note_on_c, 1, 72, 127
1, 142760, Note_on_c, 1, 57, 127
1, 142908, Note_off_c, 1, 72, 0
1, 142910, Note_off_c, 1, 57, 0
1, 142912, Note_on_c, 1, 74, 127
1, 142912, Note_on_c, 1, 58, 127
1, 143060, Note_off_c, 1, 74, 0
1, 143062, Note_off_c, 1, 58, 0
1, 143064, Note_on_c, 1, 72, 127
1, 143064, Note_on_c, 1, 57, 127
1, 143212, Note_off_c, 1, 72, 0
1, 143214, Note_off_c, 1, 57, 0
1, 143216, Note_on_c, 1, 70, 127
1, 143216, Note_on_c, 1, 55, 127
1, 143364, Note_off_c, 1, 70, 0
1, 143366, Note_off_c, 1, 55, 0
1, 143368, Note_on_c, 1, 53, 127
1, 143368, Note_on_c, 1, 69, 127
1, 143518, Note_off_c, 1, 53, 0
1, 143520, Note_on_c, 1, 55, 127
1, 143670, Note_off_c, 1, 55, 0
1, 143806, Note_off_c, 1, 69, 0
1, 143824, Note_on_c, 1, 51, 127
1, 143974, Note_off_c, 1, 51, 0
1, 143976, Note_on_c, 1, 81, 127
1, 143976, Note_on_c, 1, 50, 127
1, 144124, Note_off_c, 1, 81, 0
1, 144128, Note_on_c, 1, 82, 127
1, 144276, Note_off_c, 1, 82, 0
1, 144430, Note_on_c, 1, 79, 127
1, 144512, Note_off_c, 1, 50, 0
1, 144578, Note_off_c, 1, 79, 0
1, 144580, Note_on_c, 1, 77, 127
1, 144580, Note_on_c, 1, 62, 127
1, 144728, Note_off_c, 1, 77, 0
1, 144730, Note_off_c, 1, 62, 0
1, 144732, Note_on_c, 1, 79, 127
1, 144732, Note_on_c, 1, 63, 127
1, 144880, Note_off_c, 1, 79, 0
1, 144882, Note_off_c, 1, 63, 0
1, 144884, Note_on_c, 1, 77, 127
1, 144884, Note_on_c, 1, 62, 127
1, 145032, Note_off_c, 1, 77, 0
1, 145034, Note_off_c, 1, 62, 0
1, 145036, Note_on_c, 1, 75, 127
1, 145036, Note_on_c, 1, 60, 127
1, 145184, Note_off_c, 1, 75, 0
1, 145186, Note_off_c, 1, 60, 0
1, 145188, Note_on_c, 1, 74, 127
1, 145188, Note_on_c, 1, 58, 127
1, 145336, Note_off_c, 1, 74, 0
1, 145338, Note_off_c, 1, 58, 0
1, 145340, Note_on_c, 1, 75, 127
1, 145340, Note_on_c, 1, 60, 127
1, 145488, Note_off_c, 1, 75, 0
1, 145490, Note_off_c, 1, 60, 0
1, 145492, Note_on_c, 1, 74, 127
1, 145492, Note_on_c, 1, 58, 127
1, 145640, Note_off_c, 1, 74, 0
1, 145642, Note_off_c, 1, 58, 0
1, 145644, Note_on_c, 1, 72, 127
1, 145644, Note_on_c, 1, 57, 127
1, 145792, Note_off_c, 1, 72, 0
1, 145794, Note_off_c, 1, 57, 0
1, 145796, Note_on_c, 1, 55, 127
1, 145796, Note_on_c, 1, 70, 127
1, 145946, Note_off_c, 1, 55, 0
1, 145948, Note_on_c, 1, 57, 127
1, 146098, Note_off_c, 1, 57, 0
1, 146234, Note_off_c, 1, 70, 0
1, 146252, Note_on_c, 1, 53, 127
1, 146402, Note_off_c, 1, 53, 0
1, 146404, Note_on_c, 1, 82, 127
1, 146404, Note_on_c, 1, 51, 127
1, 146552, Note_off_c, 1, 82, 0
1, 146556, Note_on_c, 1, 84, 127
1, 146704, Note_off_c, 1, 84, 0
1, 146858, Note_on_c, 1, 81, 127
1, 146940, Note_off_c, 1, 51, 0
1, 147006, Note_off_c, 1, 81, 0
1, 147008, Note_on_c, 1, 79, 127
1, 147008, Note_on_c, 1, 63, 127
1, 147156, Note_off_c, 1, 79, 0
1, 147158, Note_off_c, 1, 63, 0
1, 147160, Note_on_c, 1, 81, 127
1, 147160, Note_on_c, 1, 65, 127
1, 147308, Note_off_c, 1, 81, 0
1, 147310, Note_off_c, 1, 65, 0
1, 147312, Note_on_c, 1, 79, 127
1, 147312, Note_on_c, 1, 63, 127
1, 147460, Note_off_c, 1, 79, 0
1, 147462, Note_off_c, 1, 63, 0
1, 147464, Note_on_c, 1, 77, 127
1, 147464, Note_on_c, 1, 62, 127
1, 147612, Note_off_c, 1, 77, 0
1, 147614, Note_off_c, 1, 62, 0
1, 147616, Note_on_c, 1, 75, 127
1, 147616, Note_on_c, 1, 60, 127
1, 147764, Note_off_c, 1, 75, 0
1, 147766, Note_off_c, 1, 60, 0
1, 147768, Note_on_c, 1, 77, 127
1, 147768, Note_on_c, 1, 62, 127
1, 147916, Note_off_c, 1, 77, 0
1, 147918, Note_off_c, 1, 62, 0
1, 147920, Note_on_c, 1, 75, 127
1, 147920, Note_on_c, 1, 60, 127
1, 148068, Note_off_c, 1, 75, 0
1, 148070, Note_off_c, 1, 60, 0
1, 148072, Note_on_c, 1, 74, 127
1, 148072, Note_on_c, 1, 58, 127
1, 148220, Note_off_c, 1, 74, 0
1, 148222, Note_off_c, 1, 58, 0
1, 148224, Note_on_c, 1, 57, 127
1, 148224, Note_on_c, 1, 72, 127
1, 148374, Note_off_c, 1, 57, 0
1, 148376, Note_on_c, 1, 58, 127
1, 148526, Note_off_c, 1, 58, 0
1, 148662, Note_off_c, 1, 72, 0
1, 148680, Note_on_c, 1, 55, 127
1, 148830, Note_off_c, 1, 55, 0
1, 148832, Note_on_c, 1, 81, 127
1, 148832, Note_on_c, 1, 53, 127
1, 148980, Note_off_c, 1, 81, 0
1, 148984, Note_on_c, 1, 82, 127
1, 149132, Note_off_c, 1, 82, 0
1, 149134, Note_on_c, 1, 84, 127
1, 149282, Note_off_c, 1, 84, 0
1, 149368, Note_off_c, 1, 53, 0
1, 149436, Note_on_c, 1, 81, 127
1, 149436, Note_on_c, 1, 65, 127
1, 149584, Note_off_c, 1, 81, 0
1, 149586, Note_off_c, 1, 65, 0
1, 149588, Note_on_c, 1, 82, 127
1, 149588, Note_on_c, 1, 67, 127
1, 149736, Note_off_c, 1, 82, 0
1, 149738, Note_off_c, 1, 67, 0
1, 149740, Note_on_c, 1, 81, 127
1, 149740, Note_on_c, 1, 65, 127
1, 149888, Note_off_c, 1, 81, 0
1, 149890, Note_off_c, 1, 65, 0
1, 149892, Note_on_c, 1, 79, 127
1, 149892, Note_on_c, 1, 63, 127
1, 150040, Note_off_c, 1, 79, 0
1, 150042, Note_off_c, 1, 63, 0
1, 150044, Note_on_c, 1, 77, 127
1, 150044, Note_on_c, 1, 62, 127
1, 150192, Note_off_c, 1, 77, 0
1, 150194, Note_off_c, 1, 62, 0
1, 150196, Note_on_c, 1, 79, 127
1, 150196, Note_on_c, 1, 63, 127
1, 150344, Note_off_c, 1, 79, 0
1, 150346, Note_off_c, 1, 63, 0
1, 150348, Note_on_c, 1, 77, 127
1, 150348, Note_on_c, 1, 62, 127
1, 150496, Note_off_c, 1, 77, 0
1, 150498, Note_off_c, 1, 62, 0
1, 150500, Note_on_c, 1, 75, 127
1, 150500, Note_on_c, 1, 60, 127
1, 150648, Note_off_c, 1, 75, 0
1, 150650, Note_off_c, 1, 60, 0
1, 150652, Note_on_c, 1, 74, 127
1, 150652, Note_on_c, 1, 58, 127
1, 150950, Note_off_c, 1, 74, 0
1, 150954, Note_off_c, 1, 58, 0
1, 150956, Note_on_c, 1, 70, 127
1, 150956, Note_on_c, 1, 62, 127
1, 151104, Note_off_c, 1, 70, 0
1, 151108, Note_on_c, 1, 72, 127
1, 151256, Note_off_c, 1, 72, 0
1, 151258, Note_off_c, 1, 62, 0
1, 151260, Note_on_c, 1, 74, 127
1, 151260, Note_on_c, 1, 65, 127
1, 151558, Note_off_c, 1, 74, 0
1, 151562, Note_off_c, 1, 65, 0
1, 151564, Note_on_c, 1, 74, 127
1, 151564, Note_on_c, 1, 58, 127
1, 151862, Note_off_c, 1, 74, 0
1, 151866, Note_off_c, 1, 58, 0
1, 151868, Note_on_c, 1, 72, 127
1, 151868, Note_on_c, 1, 57, 127
1, 152166, Note_off_c, 1, 72, 0
1, 152170, Note_off_c, 1, 57, 0
1, 152172, Note_on_c, 1, 69, 127
1, 152172, Note_on_c, 1, 60, 127
1, 152320, Note_off_c, 1, 69, 0
1, 152322, Note_on_c, 1, 70, 127
1, 152470, Note_off_c, 1, 70, 0
1, 152474, Note_off_c, 1, 60, 0
1, 152474, Note_on_c, 1, 72, 127
1, 152474, Note_on_c, 1, 66, 127
1, 152772, Note_off_c, 1, 72, 0
1, 152776, Note_off_c, 1, 66, 0
1, 152778, Note_on_c, 1, 72, 127
1, 152778, Note_on_c, 1, 57, 127
1, 153076, Note_off_c, 1, 72, 0
1, 153080, Note_off_c, 1, 57, 0
1, 153082, Note_on_c, 1, 55, 127
1, 153082, Note_on_c, 1, 70, 127
1, 153232, Note_off_c, 1, 55, 0
1, 153234, Note_on_c, 1, 57, 127
1, 153380, Note_off_c, 1, 70, 0
1, 153384, Note_off_c, 1, 57, 0
1, 153386, Note_on_c, 1, 58, 127
1, 153386, Note_on_c, 1, 70, 127
1, 153536, Note_off_c, 1, 58, 0
1, 153538, Note_on_c, 1, 57, 127
1, 153684, Note_off_c, 1, 70, 0
1, 153688, Note_off_c, 1, 57, 0
1, 153690, Note_on_c, 1, 55, 127
1, 153690, Note_on_c, 1, 70, 127
1, 153840, Note_off_c, 1, 55, 0
1, 153842, Note_on_c, 1, 57, 127
1, 153988, Note_off_c, 1, 70, 0
1, 153992, Note_off_c, 1, 57, 0
1, 153994, Note_on_c, 1, 69, 127
1, 153994, Note_on_c, 1, 55, 127
1, 154142, Note_off_c, 1, 69, 0
1, 154144, Note_off_c, 1, 55, 0
1, 154146, Note_on_c, 1, 70, 127
1, 154146, Note_on_c, 1, 53, 127
1, 154294, Note_off_c, 1, 70, 0
1, 154296, Note_off_c, 1, 53, 0
1, 154298, Note_on_c, 1, 51, 127
1, 154298, Note_on_c, 1, 72, 127
1, 154448, Note_off_c, 1, 51, 0
1, 154450, Note_on_c, 1, 55, 127
1, 154596, Note_off_c, 1, 72, 0
1, 154600, Note_off_c, 1, 55, 0
1, 154602, Note_on_c, 1, 53, 127
1, 154602, Note_on_c, 1, 72, 127
1, 154752, Note_off_c, 1, 53, 0
1, 154754, Note_on_c, 1, 51, 127
1, 154900, Note_off_c, 1, 72, 0
1, 154904, Note_off_c, 1, 51, 0
1, 154906, Note_on_c, 1, 53, 127
1, 154906, Note_on_c, 1, 72, 127
1, 155056, Note_off_c, 1, 53, 0
1, 155058, Note_on_c, 1, 51, 127
1, 155204, Note_off_c, 1, 72, 0
1, 155208, Note_off_c, 1, 51, 0
1, 155210, Note_on_c, 1, 70, 127
1, 155210, Note_on_c, 1, 50, 127
1, 155358, Note_off_c, 1, 70, 0
1, 155360, Note_off_c, 1, 50, 0
1, 155362, Note_on_c, 1, 72, 127
1, 155362, Note_on_c, 1, 48, 127
1, 155510, Note_off_c, 1, 72, 0
1, 155512, Note_off_c, 1, 48, 0
1, 155514, Note_on_c, 1, 46, 127
1, 155514, Note_on_c, 1, 74, 127
1, 155664, Note_off_c, 1, 46, 0
1, 155666, Note_on_c, 1, 48, 127
1, 155812, Note_off_c, 1, 74, 0
1, 155816, Note_off_c, 1, 48, 0
1, 155818, Note_on_c, 1, 46, 127
1, 155818, Note_on_c, 1, 74, 127
1, 155968, Note_off_c, 1, 46, 0
1, 155970, Note_on_c, 1, 45, 127
1, 156116, Note_off_c, 1, 74, 0
1, 156120, Note_off_c, 1, 45, 0
1, 156122, Note_on_c, 1, 43, 127
1, 156122, Note_on_c, 1, 74, 127
1, 156272, Note_off_c, 1, 43, 0
1, 156274, Note_on_c, 1, 46, 127
1, 156420, Note_off_c, 1, 74, 0
1, 156424, Note_off_c, 1, 46, 0
1, 156426, Note_on_c, 1, 72, 127
1, 156426, Note_on_c, 1, 45, 127
1, 156574, Note_off_c, 1, 72, 0
1, 156576, Note_off_c, 1, 45, 0
1, 156578, Note_on_c, 1, 74, 127
1, 156578, Note_on_c, 1, 43, 127
1, 156726, Note_off_c, 1, 74, 0
1, 156728, Note_off_c, 1, 43, 0
1, 156730, Note_on_c, 1, 48, 127
1, 156730, Note_on_c, 1, 75, 127
1, 156880, Note_off_c, 1, 48, 0
1, 156882, Note_on_c, 1, 50, 127
1, 157028, Note_off_c, 1, 75, 0
1, 157032, Note_off_c, 1, 50, 0
1, 157034, Note_on_c, 1, 48, 127
1, 157034, Note_on_c, 1, 75, 127
1, 157184, Note_off_c, 1, 48, 0
1, 157186, Note_on_c, 1, 46, 127
1, 157314, Note_off_c, 1, 75, 0
1, 157336, Note_off_c, 1, 46, 0
1, 157338, Note_on_c, 1, 45, 127
1, 157338, Note_on_c, 1, 76, 127
1, 157488, Note_off_c, 1, 45, 0
1, 157490, Note_on_c, 1, 48, 127
1, 157636, Note_off_c, 1, 76, 0
1, 157640, Note_off_c, 1, 48, 0
1, 157642, Note_on_c, 1, 74, 127
1, 157642, Note_on_c, 1, 46, 127
1, 157790, Note_off_c, 1, 74, 0
1, 157792, Note_off_c, 1, 46, 0
1, 157794, Note_on_c, 1, 76, 127
1, 157794, Note_on_c, 1, 45, 127
1, 157942, Note_off_c, 1, 76, 0
1, 157944, Note_off_c, 1, 45, 0
1, 157946, Note_on_c, 1, 50, 127
1, 157946, Note_on_c, 1, 77, 127
1, 158096, Note_off_c, 1, 50, 0
1, 158098, Note_on_c, 1, 51, 127
1, 158244, Note_off_c, 1, 77, 0
1, 158248, Note_off_c, 1, 51, 0
1, 158250, Note_on_c, 1, 50, 127
1, 158250, Note_on_c, 1, 77, 127
1, 158400, Note_off_c, 1, 50, 0
1, 158402, Note_on_c, 1, 48, 127
1, 158530, Note_off_c, 1, 77, 0
1, 158552, Note_off_c, 1, 48, 0
1, 158554, Note_on_c, 1, 46, 127
1, 158554, Note_on_c, 1, 78, 127
1, 158704, Note_off_c, 1, 46, 0
1, 158706, Note_on_c, 1, 50, 127
1, 158852, Note_off_c, 1, 78, 0
1, 158856, Note_off_c, 1, 50, 0
1, 158858, Note_on_c, 1, 76, 127
1, 158858, Note_on_c, 1, 48, 127
1, 159006, Note_off_c, 1, 76, 0
1, 159008, Note_off_c, 1, 48, 0
1, 159010, Note_on_c, 1, 78, 127
1, 159010, Note_on_c, 1, 46, 127
1, 159158, Note_off_c, 1, 78, 0
1, 159160, Note_off_c, 1, 46, 0
1, 159162, Note_on_c, 1, 51, 127
1, 159162, Note_on_c, 1, 79, 127
1, 159312, Note_off_c, 1, 51, 0
1, 159314, Note_on_c, 1, 50, 127
1, 159460, Note_off_c, 1, 79, 0
1, 159464, Note_off_c, 1, 50, 0
1, 159466, Note_on_c, 1, 51, 127
1, 159466, Note_on_c, 1, 81, 127
1, 159616, Note_off_c, 1, 51, 0
1, 159618, Note_on_c, 1, 48, 127
1, 159764, Note_off_c, 1, 81, 0
1, 159768, Note_off_c, 1, 48, 0
1, 159770, Note_on_c, 1, 74, 127
1, 159770, Note_on_c, 1, 50, 127
1, 160034, Note_off_c, 1, 74, 0
1, 160072, Note_off_c, 1, 50, 0
1, 160074, Note_on_c, 1, 78, 127
1, 160074, Note_on_c, 1, 38, 127
1, 160338, Note_off_c, 1, 78, 0
1, 160376, Note_off_c, 1, 38, 0
1, 160378, Note_on_c, 1, 67, 127
1, 160378, Note_on_c, 1, 79, 127
1, 160378, Note_on_c, 1, 70, 127
1, 160378, Note_on_c, 1, 74, 127
1, 160378, Note_on_c, 1, 43, 127
1, 160978, Note_off_c, 1, 67, 0
1, 160978, Note_off_c, 1, 79, 0
1, 160978, Note_off_c, 1, 70, 0
1, 160978, Note_off_c, 1, 74, 0
1, 161136, Note_off_c, 1, 43, 0
1, 161288, Note_on_c, 1, 62, 127
1, 161438, Note_off_c, 1, 62, 0
1, 161440, Note_on_c, 1, 69, 127
1, 161440, Note_on_c, 1, 60, 127
1, 161588, Note_off_c, 1, 69, 0
1, 161590, Note_off_c, 1, 60, 0
1, 161592, Note_on_c, 1, 58, 127
1, 161592, Note_on_c, 1, 67, 127
1, 161742, Note_off_c, 1, 58, 0
1, 161744, Note_on_c, 1, 60, 127
1, 161894, Note_off_c, 1, 60, 0
1, 161896, Note_on_c, 1, 62, 127
1, 162044, Note_off_c, 1, 62, 0
1, 162048, Note_on_c, 1, 57, 127
1, 162190, Note_off_c, 1, 67, 0
1, 162200, Note_off_c, 1, 57, 0
1, 162202, Note_on_c, 1, 55, 127
1, 162202, Note_on_c, 1, 58, 127
1, 162352, Note_off_c, 1, 55, 0
1, 162354, Note_on_c, 1, 57, 127
1, 162500, Note_off_c, 1, 58, 0
1, 162504, Note_off_c, 1, 57, 0
1, 162506, Note_on_c, 1, 55, 127
1, 162506, Note_on_c, 1, 70, 127
1, 162506, Note_on_c, 1, 74, 127
1, 162506, Note_on_c, 1, 67, 127
1, 162656, Note_off_c, 1, 55, 0
1, 162658, Note_on_c, 1, 53, 127
1, 162804, Note_off_c, 1, 70, 0
1, 162804, Note_off_c, 1, 74, 0
1, 162804, Note_off_c, 1, 67, 0
1, 162808, Note_off_c, 1, 53, 0
1, 162810, Note_on_c, 1, 51, 127
1, 162810, Note_on_c, 1, 67, 127
1, 162810, Note_on_c, 1, 70, 127
1, 162810, Note_on_c, 1, 79, 127
1, 162960, Note_off_c, 1, 51, 0
1, 163108, Note_off_c, 1, 67, 0
1, 163108, Note_off_c, 1, 70, 0
1, 163108, Note_off_c, 1, 79, 0
1, 163114, Note_on_c, 1, 50, 127
1, 163114, Note_on_c, 1, 79, 127
1, 163114, Note_on_c, 1, 75, 127
1, 163114, Note_on_c, 1, 69, 127
1, 163264, Note_off_c, 1, 50, 0
1, 163266, Note_on_c, 1, 48, 127
1, 163412, Note_off_c, 1, 79, 0
1, 163412, Note_off_c, 1, 75, 0
1, 163412, Note_off_c, 1, 69, 0
1, 163416, Note_off_c, 1, 48, 0
1, 163418, Note_on_c, 1, 78, 127
1, 163418, Note_on_c, 1, 50, 127
1, 163418, Note_on_c, 1, 69, 127
1, 163716, Note_off_c, 1, 78, 0
1, 163720, Note_off_c, 1, 50, 0
1, 163722, Note_on_c, 1, 76, 127
1, 163722, Note_on_c, 1, 38, 127
1, 163870, Note_off_c, 1, 76, 0
1, 164014, Note_off_c, 1, 69, 0
1, 164024, Note_off_c, 1, 38, 0
1, 164026, Note_on_c, 1, 70, 127
1, 164026, Note_on_c, 1, 79, 127
1, 164026, Note_on_c, 1, 67, 127
1, 164026, Note_on_c, 1, 43, 127
1, 164324, Note_off_c, 1, 70, 0
1, 164324, Note_off_c, 1, 79, 0
1, 164324, Note_off_c, 1, 67, 0
1, 164328, Note_on_c, 1, 74, 127
1, 164626, Note_off_c, 1, 43, 0
1, 164626, Note_off_c, 1, 74, 0
1, 164632, Note_on_c, 1, 70, 127
1, 164930, Note_off_c, 1, 70, 0
1, 164934, Note_on_c, 1, 67, 127
1, 164934, Note_on_c, 1, 62, 127
1, 164934, Note_on_c, 1, 58, 127
1, 165232, Note_off_c, 1, 67, 0
1, 165236, Note_off_c, 1, 62, 0
1, 165236, Note_off_c, 1, 58, 0
1, 165238, Note_on_c, 1, 77, 127
1, 165238, Note_on_c, 1, 60, 127
1, 165238, Note_on_c, 1, 57, 127
1, 165536, Note_off_c, 1, 77, 0
1, 165542, Note_on_c, 1, 72, 127
1, 165840, Note_off_c, 1, 72, 0
1, 165844, Note_on_c, 1, 69, 127
1, 165996, Note_off_c, 1, 60, 0
1, 165996, Note_off_c, 1, 57, 0
1, 166142, Note_off_c, 1, 69, 0
1, 166148, Note_on_c, 1, 65, 127
1, 166148, Note_on_c, 1, 57, 127
1, 166148, Note_on_c, 1, 60, 127
1, 166446, Note_off_c, 1, 65, 0
1, 166450, Note_off_c, 1, 57, 0
1, 166450, Note_off_c, 1, 60, 0
1, 166452, Note_on_c, 1, 75, 127
1, 166452, Note_on_c, 1, 55, 127
1, 166452, Note_on_c, 1, 58, 127
1, 166750, Note_off_c, 1, 75, 0
1, 166754, Note_on_c, 1, 70, 127
1, 167052, Note_off_c, 1, 70, 0
1, 167058, Note_on_c, 1, 67, 127
1, 167210, Note_off_c, 1, 55, 0
1, 167210, Note_off_c, 1, 58, 0
1, 167356, Note_off_c, 1, 67, 0
1, 167360, Note_on_c, 1, 63, 127
1, 167360, Note_on_c, 1, 55, 127
1, 167360, Note_on_c, 1, 58, 127
1, 167658, Note_off_c, 1, 63, 0
1, 167662, Note_off_c, 1, 55, 0
1, 167662, Note_off_c, 1, 58, 0
1, 167664, Note_on_c, 1, 74, 127
1, 167664, Note_on_c, 1, 57, 127
1, 167664, Note_on_c, 1, 54, 127
1, 167962, Note_off_c, 1, 74, 0
1, 167968, Note_on_c, 1, 69, 127
1, 168264, Note_off_c, 1, 57, 0
1, 168264, Note_off_c, 1, 54, 0
1, 168266, Note_off_c, 1, 69, 0
1, 168270, Note_on_c, 1, 66, 127
1, 168568, Note_off_c, 1, 66, 0
1, 168574, Note_on_c, 1, 62, 127
1, 168574, Note_on_c, 1, 55, 127
1, 168574, Note_on_c, 1, 58, 127
1, 168872, Note_off_c, 1, 62, 0
1, 168876, Note_off_c, 1, 55, 0
1, 168876, Note_off_c, 1, 58, 0
1, 168878, Note_on_c, 1, 72, 127
1, 168878, Note_on_c, 1, 57, 127
1, 168878, Note_on_c, 1, 60, 127
1, 169176, Note_off_c, 1, 72, 0
1, 169180, Note_off_c, 1, 57, 0
1, 169180, Note_off_c, 1, 60, 0
1, 169182, Note_on_c, 1, 69, 127
1, 169182, Note_on_c, 1, 62, 127
1, 169182, Note_on_c, 1, 58, 127
1, 169330, Note_off_c, 1, 69, 0
1, 169332, Note_on_c, 1, 70, 127
1, 169480, Note_off_c, 1, 70, 0
1, 169484, Note_off_c, 1, 62, 0
1, 169484, Note_off_c, 1, 58, 0
1, 169484, Note_on_c, 1, 72, 127
1, 169484, Note_on_c, 1, 57, 127
1, 169484, Note_on_c, 1, 60, 127
1, 169782, Note_off_c, 1, 72, 0
1, 169786, Note_off_c, 1, 57, 0
1, 169786, Note_off_c, 1, 60, 0
1, 169788, Note_on_c, 1, 72, 127
1, 169788, Note_on_c, 1, 55, 127
1, 169788, Note_on_c, 1, 58, 127
1, 170086, Note_off_c, 1, 72, 0
1, 170090, Note_off_c, 1, 55, 0
1, 170090, Note_off_c, 1, 58, 0
1, 170092, Note_on_c, 1, 72, 127
1, 170092, Note_on_c, 1, 57, 127
1, 170092, Note_on_c, 1, 54, 127
1, 170390, Note_off_c, 1, 72, 0
1, 170394, Note_off_c, 1, 57, 0
1, 170394, Note_off_c, 1, 54, 0
1, 170396, Note_on_c, 1, 69, 127
1, 170396, Note_on_c, 1, 52, 127
1, 170396, Note_on_c, 1, 55, 127
1, 170544, Note_off_c, 1, 69, 0
1, 170548, Note_on_c, 1, 70, 127
1, 170696, Note_off_c, 1, 70, 0
1, 170698, Note_off_c, 1, 52, 0
1, 170698, Note_off_c, 1, 55, 0
1, 170700, Note_on_c, 1, 72, 127
1, 170700, Note_on_c, 1, 50, 127
1, 170700, Note_on_c, 1, 54, 127
1, 170998, Note_off_c, 1, 72, 0
1, 171002, Note_off_c, 1, 50, 0
1, 171002, Note_off_c, 1, 54, 0
1, 171004, Note_on_c, 1, 72, 127
1, 171004, Note_on_c, 1, 52, 127
1, 171004, Note_on_c, 1, 55, 127
1, 171302, Note_off_c, 1, 72, 0
1, 171306, Note_off_c, 1, 52, 0
1, 171306, Note_off_c, 1, 55, 0
1, 171308, Note_on_c, 1, 75, 127
1, 171308, Note_on_c, 1, 57, 127
1, 171308, Note_on_c, 1, 54, 127
1, 171606, Note_off_c, 1, 75, 0
1, 171610, Note_off_c, 1, 57, 0
1, 171610, Note_off_c, 1, 54, 0
1, 171612, Note_on_c, 1, 72, 127
1, 171612, Note_on_c, 1, 55, 127
1, 171612, Note_on_c, 1, 58, 127
1, 171760, Note_off_c, 1, 72, 0
1, 171762, Note_on_c, 1, 74, 127
1, 171910, Note_off_c, 1, 74, 0
1, 171914, Note_off_c, 1, 55, 0
1, 171914, Note_off_c, 1, 58, 0
1, 171914, Note_on_c, 1, 75, 127
1, 171914, Note_on_c, 1, 60, 127
1, 171914, Note_on_c, 1, 57, 127
1, 172212, Note_off_c, 1, 75, 0
1, 172216, Note_off_c, 1, 60, 0
1, 172216, Note_off_c, 1, 57, 0
1, 172218, Note_on_c, 1, 75, 127
1, 172218, Note_on_c, 1, 62, 127
1, 172218, Note_on_c, 1, 58, 127
1, 172516, Note_off_c, 1, 75, 0
1, 172520, Note_off_c, 1, 62, 0
1, 172520, Note_off_c, 1, 58, 0
1, 172522, Note_on_c, 1, 60, 127
1, 172522, Note_on_c, 1, 63, 127
1, 172522, Note_on_c, 1, 75, 127
1, 172522, Note_on_c, 1, 69, 127
1, 172522, Note_on_c, 1, 72, 127
1, 172522, Note_on_c, 1, 66, 127
1, 172824, Note_off_c, 1, 60, 0
1, 172824, Note_off_c, 1, 63, 0
1, 172826, Note_on_c, 1, 57, 127
1, 172976, Note_off_c, 1, 57, 0
1, 172978, Note_on_c, 1, 58, 127
1, 173128, Note_off_c, 1, 58, 0
1, 173278, Note_off_c, 1, 75, 0
1, 173278, Note_off_c, 1, 69, 0
1, 173278, Note_off_c, 1, 72, 0
1, 173278, Note_off_c, 1, 66, 0
1, 173450, Note_on_c, 1, 62, 127
1, 173450, Note_on_c, 1, 66, 127
1, 173450, Note_on_c, 1, 48, 127
1, 173450, Note_on_c, 1, 57, 127
1, 173748, Note_off_c, 1, 62, 0
1, 173748, Note_off_c, 1, 66, 0
1, 173752, Note_off_c, 1, 48, 0
1, 173752, Note_off_c, 1, 57, 0
1, 173754, Note_on_c, 1, 55, 127
1, 173754, Note_on_c, 1, 46, 127
1, 173754, Note_on_c, 1, 67, 127
1, 173754, Note_on_c, 1, 62, 127
1, 174072, Note_off_c, 1, 55, 0
1, 174072, Note_off_c, 1, 46, 0
1, 174074, Note_on_c, 1, 48, 127
1, 174228, Note_off_c, 1, 67, 0
1, 174234, Note_on_c, 1, 69, 127
1, 174382, Note_off_c, 1, 62, 0
1, 174390, Note_off_c, 1, 69, 0
1, 174392, Note_off_c, 1, 48, 0
1, 174394, Note_on_c, 1, 70, 127
1, 174394, Note_on_c, 1, 66, 127
1, 174394, Note_on_c, 1, 50, 127
1, 174472, Note_off_c, 1, 70, 0
1, 174474, Note_on_c, 1, 69, 127
1, 174552, Note_off_c, 1, 69, 0
1, 174714, Note_on_c, 1, 38, 127
1, 174866, Note_off_c, 1, 66, 0
1, 174874, Note_on_c, 1, 67, 127
1, 175028, Note_off_c, 1, 50, 0
1, 175030, Note_off_c, 1, 67, 0
1, 175032, Note_off_c, 1, 38, 0
1, 175034, Note_on_c, 1, 39, 127
1, 175034, Note_on_c, 1, 67, 127
1, 175228, Note_on_c, 1, 51, 127
1, 175242, Note_off_c, 1, 39, 0
1, 175410, Note_off_c, 1, 67, 0
1, 175418, Note_on_c, 1, 50, 127
1, 175418, Note_on_c, 1, 69, 127
1, 175418, Note_on_c, 1, 75, 127
1, 175418, Note_on_c, 1, 79, 127
1, 175428, Note_off_c, 1, 51, 0
1, 175608, Note_off_c, 1, 50, 0
1, 175610, Note_on_c, 1, 48, 127
1, 175794, Note_off_c, 1, 69, 0
1, 175794, Note_off_c, 1, 75, 0
1, 175800, Note_off_c, 1, 48, 0
1, 175818, Note_on_c, 1, 70, 127
1, 175818, Note_on_c, 1, 74, 127
1, 176172, Note_off_c, 1, 79, 0
1, 176194, Note_off_c, 1, 70, 0
1, 176194, Note_off_c, 1, 74, 0
1, 176218, Note_on_c, 1, 38, 127
1, 176218, Note_on_c, 1, 72, 127
1, 176218, Note_on_c, 1, 78, 127
1, 176638, Note_off_c, 1, 38, 0
1, 176638, Note_off_c, 1, 72, 0
1, 176638, Note_off_c, 1, 78, 0
1, 176714, Note_on_c, 1, 79, 127
1, 176714, Note_on_c, 1, 67, 127
1, 176714, Note_on_c, 1, 70, 127
1, 176714, Note_on_c, 1, 74, 127
1, 176714, Note_on_c, 1, 43, 127
1, 179014, Note_off_c, 1, 79, 0
1, 179014, Note_off_c, 1, 67, 0
1, 179014, Note_off_c, 1, 70, 0
1, 179014, Note_off_c, 1, 74, 0
1, 179014, Note_off_c, 1, 43, 0
1, 181706, Note_on_c, 1, 79, 127
1, 182448, Note_off_c, 1, 79, 0
1, 182450, Note_on_c, 1, 75, 127
1, 183192, Note_off_c, 1, 75, 0
1, 183192, Note_on_c, 1, 77, 127
1, 183562, Note_off_c, 1, 77, 0
1, 183564, Note_on_c, 1, 79, 127
1, 183934, Note_off_c, 1, 79, 0
1, 183936, Note_on_c, 1, 55, 127
1, 183936, Note_on_c, 1, 62, 127
1, 183936, Note_on_c, 1, 71, 127
1, 183936, Note_on_c, 1, 67, 127
1, 184678, Note_off_c, 1, 55, 0
1, 184678, Note_off_c, 1, 62, 0
1, 184678, Note_off_c, 1, 71, 0
1, 184680, Note_on_c, 1, 72, 127
1, 184680, Note_on_c, 1, 51, 127
1, 184680, Note_on_c, 1, 60, 127
1, 184836, Note_off_c, 1, 72, 0
1, 185422, Note_off_c, 1, 51, 0
1, 185422, Note_on_c, 1, 53, 127
1, 185792, Note_off_c, 1, 53, 0
1, 186166, Note_off_c, 1, 60, 0
1, 186166, Note_on_c, 1, 47, 127
1, 186166, Note_on_c, 1, 74, 127
1, 186898, Note_off_c, 1, 67, 0
1, 186908, Note_off_c, 1, 47, 0
1, 186908, Note_off_c, 1, 74, 0
1, 186910, Note_on_c, 1, 75, 127
1, 186910, Note_on_c, 1, 48, 127
1, 187280, Note_off_c, 1, 75, 0
1, 187282, Note_on_c, 1, 77, 127
1, 187652, Note_off_c, 1, 77, 0
1, 187654, Note_on_c, 1, 79, 127
1, 188396, Note_off_c, 1, 48, 0
1, 188396, Note_off_c, 1, 79, 0
1, 188398, Note_on_c, 1, 59, 127
1, 188398, Note_on_c, 1, 77, 127
1, 188398, Note_on_c, 1, 74, 127
1, 188398, Note_on_c, 1, 53, 127
1, 188768, Note_off_c, 1, 59, 0
1, 188768, Note_off_c, 1, 77, 0
1, 188768, Note_off_c, 1, 74, 0
1, 188770, Note_on_c, 1, 60, 127
1, 188770, Note_on_c, 1, 75, 127
1, 188770, Note_on_c, 1, 72, 127
1, 189134, Note_off_c, 1, 53, 0
1, 189140, Note_off_c, 1, 60, 0
1, 189140, Note_off_c, 1, 75, 0
1, 189140, Note_off_c, 1, 72, 0
1, 189142, Note_on_c, 1, 75, 127
1, 189142, Note_on_c, 1, 71, 127
1, 189142, Note_on_c, 1, 55, 127
1, 189420, Note_on_c, 1, 74, 127
1, 189422, Note_off_c, 1, 75, 0
1, 189512, Note_off_c, 1, 74, 0
1, 189886, Note_on_c, 1, 43, 127
1, 190256, Note_off_c, 1, 71, 0
1, 190258, Note_on_c, 1, 72, 127
1, 190628, Note_off_c, 1, 43, 0
1, 190628, Note_off_c, 1, 72, 0
1, 190630, Note_on_c, 1, 48, 127
1, 190630, Note_on_c, 1, 63, 127
1, 190630, Note_on_c, 1, 67, 127
1, 191370, Note_off_c, 1, 55, 0
1, 191372, Note_off_c, 1, 48, 0
1, 191372, Note_off_c, 1, 63, 0
1, 191372, Note_off_c, 1, 67, 0
1, 191404, Note_on_c, 1, 60, 127
1, 191404, Note_on_c, 1, 72, 127
1, 191404, Note_on_c, 1, 67, 127
1, 191404, Note_on_c, 1, 75, 127
1, 192146, Note_off_c, 1, 60, 0
1, 192146, Note_off_c, 1, 72, 0
1, 192146, Note_off_c, 1, 67, 0
1, 192146, Note_off_c, 1, 75, 0
1, 192148, Note_on_c, 1, 58, 127
1, 192148, Note_on_c, 1, 67, 127
1, 192148, Note_on_c, 1, 76, 127
1, 192148, Note_on_c, 1, 72, 127
1, 192890, Note_off_c, 1, 58, 0
1, 192890, Note_off_c, 1, 67, 0
1, 192890, Note_off_c, 1, 76, 0
1, 192890, Note_on_c, 1, 60, 127
1, 192890, Note_on_c, 1, 77, 127
1, 192890, Note_on_c, 1, 57, 127
1, 193260, Note_off_c, 1, 60, 0
1, 193262, Note_on_c, 1, 63, 127
1, 193446, Note_off_c, 1, 63, 0
1, 193448, Note_on_c, 1, 62, 127
1, 193632, Note_off_c, 1, 77, 0
1, 193632, Note_off_c, 1, 62, 0
1, 193634, Note_on_c, 1, 78, 127
1, 194376, Note_off_c, 1, 57, 0
1, 194376, Note_off_c, 1, 78, 0
1, 194378, Note_on_c, 1, 79, 127
1, 194378, Note_on_c, 1, 55, 127
1, 194750, Note_off_c, 1, 72, 0
1, 194750, Note_on_c, 1, 74, 127
1, 194934, Note_off_c, 1, 74, 0
1, 194936, Note_on_c, 1, 75, 127
1, 195114, Note_off_c, 1, 79, 0
1, 195120, Note_off_c, 1, 55, 0
1, 195120, Note_off_c, 1, 75, 0
1, 195122, Note_on_c, 1, 81, 127
1, 195122, Note_on_c, 1, 54, 127
1, 195122, Note_on_c, 1, 69, 127
1, 195864, Note_off_c, 1, 81, 0
1, 196236, Note_off_c, 1, 54, 0
1, 196608, Note_off_c, 1, 69, 0
1, 196610, Note_on_c, 1, 74, 127
1, 196610, Note_on_c, 1, 82, 127
1, 196610, Note_on_c, 1, 79, 127
1, 196610, Note_on_c, 1, 55, 127
1, 197346, Note_off_c, 1, 74, 0
1, 197352, Note_on_c, 1, 75, 127
1, 197352, Note_on_c, 1, 48, 127
1, 197724, Note_off_c, 1, 82, 0
1, 197724, Note_off_c, 1, 79, 0
1, 197724, Note_on_c, 1, 81, 127
1, 198088, Note_off_c, 1, 75, 0
1, 198094, Note_off_c, 1, 48, 0
1, 198094, Note_off_c, 1, 81, 0
1, 198096, Note_off_c, 1, 55, 0
1, 198096, Note_on_c, 1, 78, 127
1, 198096, Note_on_c, 1, 50, 127
1, 198840, Note_on_c, 1, 72, 127
1, 198840, Note_on_c, 1, 38, 127
1, 199210, Note_off_c, 1, 78, 0
1, 199576, Note_off_c, 1, 72, 0
1, 199582, Note_off_c, 1, 38, 0
1, 199584, Note_on_c, 1, 43, 127
1, 199584, Note_on_c, 1, 71, 127
1, 201060, Note_off_c, 1, 50, 0
1, 201384, Note_off_c, 1, 43, 0
1, 201384, Note_off_c, 1, 71, 0
1, 201814, Note_on_c, 1, 79, 127
1, 202556, Note_off_c, 1, 79, 0
1, 202558, Note_on_c, 1, 75, 127
1, 203300, Note_off_c, 1, 75, 0
1, 203300, Note_on_c, 1, 74, 127
1, 203670, Note_off_c, 1, 74, 0
1, 203672, Note_on_c, 1, 72, 127
1, 204042, Note_off_c, 1, 72, 0
1, 204044, Note_on_c, 1, 71, 127
1, 204044, Note_on_c, 1, 55, 127
1, 204228, Note_off_c, 1, 71, 0
1, 204230, Note_on_c, 1, 72, 127
1, 204414, Note_off_c, 1, 72, 0
1, 204786, Note_off_c, 1, 55, 0
1, 204788, Note_on_c, 1, 74, 127
1, 204788, Note_on_c, 1, 51, 127
1, 205136, Note_off_c, 1, 74, 0
1, 205140, Note_on_c, 1, 72, 127
1, 205282, Note_off_c, 1, 72, 0
1, 205530, Note_off_c, 1, 51, 0
1, 205532, Note_on_c, 1, 74, 127
1, 205532, Note_on_c, 1, 50, 127
1, 205654, Note_off_c, 1, 74, 0
1, 205656, Note_on_c, 1, 72, 127
1, 205778, Note_off_c, 1, 72, 0
1, 205902, Note_off_c, 1, 50, 0
1, 205904, Note_on_c, 1, 72, 127
1, 205904, Note_on_c, 1, 48, 127
1, 206026, Note_off_c, 1, 72, 0
1, 206028, Note_on_c, 1, 71, 127
1, 206150, Note_off_c, 1, 71, 0
1, 206274, Note_off_c, 1, 48, 0
1, 206276, Note_on_c, 1, 47, 127
1, 206276, Note_on_c, 1, 67, 127
1, 206276, Note_on_c, 1, 74, 127
1, 207018, Note_off_c, 1, 47, 0
1, 207018, Note_off_c, 1, 67, 0
1, 207018, Note_off_c, 1, 74, 0
1, 207018, Note_on_c, 1, 63, 127
1, 207018, Note_on_c, 1, 75, 127
1, 207018, Note_on_c, 1, 48, 127
1, 207760, Note_off_c, 1, 63, 0
1, 207762, Note_on_c, 1, 62, 127
1, 208132, Note_off_c, 1, 75, 0
1, 208132, Note_off_c, 1, 62, 0
1, 208134, Note_on_c, 1, 60, 127
1, 208134, Note_on_c, 1, 77, 127
1, 208504, Note_off_c, 1, 48, 0
1, 208504, Note_off_c, 1, 60, 0
1, 208504, Note_off_c, 1, 77, 0
1, 208506, Note_on_c, 1, 74, 127
1, 208506, Note_on_c, 1, 59, 127
1, 208506, Note_on_c, 1, 55, 127
1, 209248, Note_off_c, 1, 74, 0
1, 209248, Note_on_c, 1, 67, 127
1, 209990, Note_off_c, 1, 59, 0
1, 209990, Note_off_c, 1, 55, 0
1, 209992, Note_on_c, 1, 53, 127
1, 210362, Note_off_c, 1, 67, 0
1, 210734, Note_off_c, 1, 53, 0
1, 210736, Note_on_c, 1, 51, 127
1, 210736, Note_on_c, 1, 72, 127
1, 210736, Note_on_c, 1, 60, 127
1, 210736, Note_on_c, 1, 55, 127
1, 211478, Note_off_c, 1, 51, 0
1, 211478, Note_off_c, 1, 72, 0
1, 211478, Note_on_c, 1, 50, 127
1, 211478, Note_on_c, 1, 74, 127
1, 212220, Note_off_c, 1, 50, 0
1, 212220, Note_off_c, 1, 74, 0
1, 212222, Note_on_c, 1, 48, 127
1, 212222, Note_on_c, 1, 75, 127
1, 212962, Note_off_c, 1, 60, 0
1, 212962, Note_off_c, 1, 55, 0
1, 212964, Note_off_c, 1, 48, 0
1, 212964, Note_off_c, 1, 75, 0
1, 212964, Note_on_c, 1, 53, 127
1, 212964, Note_on_c, 1, 56, 127
1, 212964, Note_on_c, 1, 77, 127
1, 212964, Note_on_c, 1, 47, 127
1, 213706, Note_off_c, 1, 53, 0
1, 213706, Note_off_c, 1, 56, 0
1, 213706, Note_off_c, 1, 77, 0
1, 213708, Note_on_c, 1, 79, 127
1, 214450, Note_off_c, 1, 79, 0
1, 214450, Note_on_c, 1, 80, 127
1, 215190, Note_off_c, 1, 47, 0
1, 215192, Note_off_c, 1, 80, 0
1, 215194, Note_on_c, 1, 51, 127
1, 215194, Note_on_c, 1, 79, 127
1, 215194, Note_on_c, 1, 48, 127
1, 215564, Note_off_c, 1, 51, 0
1, 215564, Note_off_c, 1, 79, 0
1, 215566, Note_on_c, 1, 53, 127
1, 215566, Note_on_c, 1, 77, 127
1, 215930, Note_off_c, 1, 48, 0
1, 215936, Note_off_c, 1, 53, 0
1, 215936, Note_off_c, 1, 77, 0
1, 215938, Note_on_c, 1, 75, 127
1, 215938, Note_on_c, 1, 55, 127
1, 216680, Note_off_c, 1, 75, 0
1, 216680, Note_on_c, 1, 74, 127
1, 216680, Note_on_c, 1, 43, 127
1, 217236, Note_off_c, 1, 74, 0
1, 217238, Note_on_c, 1, 72, 127
1, 217422, Note_off_c, 1, 43, 0
1, 217422, Note_off_c, 1, 72, 0
1, 217424, Note_on_c, 1, 48, 127
1, 218164, Note_off_c, 1, 55, 0
1, 218166, Note_off_c, 1, 48, 0
1, 218166, Note_on_c, 1, 60, 127
1, 218910, Note_on_c, 1, 58, 127
1, 218910, Note_on_c, 1, 76, 127
1, 219652, Note_off_c, 1, 58, 0
1, 219652, Note_off_c, 1, 76, 0
1, 219652, Note_on_c, 1, 77, 127
1, 219652, Note_on_c, 1, 57, 127
1, 220024, Note_off_c, 1, 60, 0
1, 220024, Note_on_c, 1, 62, 127
1, 220208, Note_off_c, 1, 62, 0
1, 220210, Note_on_c, 1, 63, 127
1, 220394, Note_off_c, 1, 77, 0
1, 220394, Note_off_c, 1, 63, 0
1, 220396, Note_on_c, 1, 78, 127
1, 221138, Note_off_c, 1, 57, 0
1, 221140, Note_on_c, 1, 79, 127
1, 221146, Note_off_c, 1, 78, 0
1, 221884, Note_on_c, 1, 81, 127
1, 221884, Note_on_c, 1, 50, 127
1, 221904, Note_off_c, 1, 79, 0
1, 222626, Note_off_c, 1, 81, 0
1, 222626, Note_on_c, 1, 54, 127
1, 222998, Note_off_c, 1, 50, 0
1, 223362, Note_off_c, 1, 54, 0
1, 223370, Note_on_c, 1, 46, 127
1, 224112, Note_off_c, 1, 46, 0
1, 224486, Note_on_c, 1, 70, 127
1, 224856, Note_off_c, 1, 70, 0
1, 224858, Note_on_c, 1, 78, 127
1, 224858, Note_on_c, 1, 69, 127
1, 224858, Note_on_c, 1, 50, 127
1, 224994, Note_on_c, 1, 76, 127
1, 225012, Note_off_c, 1, 78, 0
1, 225148, Note_off_c, 1, 76, 0
1, 225600, Note_on_c, 1, 38, 127
1, 225970, Note_off_c, 1, 69, 0
1, 225972, Note_on_c, 1, 79, 127
1, 226342, Note_off_c, 1, 38, 0
1, 226342, Note_off_c, 1, 79, 0
1, 226344, Note_on_c, 1, 43, 127
1, 226344, Note_on_c, 1, 71, 127
1, 227084, Note_off_c, 1, 50, 0
1, 227104, Note_off_c, 1, 43, 0
1, 227104, Note_off_c, 1, 71, 0
1, 227136, Note_on_c, 1, 79, 127
1, 227136, Note_on_c, 1, 74, 127
1, 227136, Note_on_c, 1, 47, 127
1, 227136, Note_on_c, 1, 55, 127
1, 227136, Note_on_c, 1, 67, 127
1, 227506, Note_off_c, 1, 79, 0
1, 227508, Note_on_c, 1, 77, 127
1, 227872, Note_off_c, 1, 74, 0
1, 227878, Note_off_c, 1, 77, 0
1, 228622, Note_off_c, 1, 47, 0
1, 228622, Note_off_c, 1, 55, 0
1, 228624, Note_on_c, 1, 72, 127
1, 228624, Note_on_c, 1, 75, 127
1, 228624, Note_on_c, 1, 48, 127
1, 228994, Note_off_c, 1, 72, 0
1, 228994, Note_off_c, 1, 75, 0
1, 228994, Note_off_c, 1, 48, 0
1, 228996, Note_off_c, 1, 67, 0
1, 229012, Note_on_c, 1, 63, 127
1, 229012, Note_on_c, 1, 79, 127
1, 229382, Note_off_c, 1, 63, 0
1, 229382, Note_off_c, 1, 79, 0
1, 229384, Note_on_c, 1, 60, 127
1, 229384, Note_on_c, 1, 75, 127
1, 229754, Note_off_c, 1, 60, 0
1, 229754, Note_off_c, 1, 75, 0
1, 229756, Note_on_c, 1, 62, 127
1, 229756, Note_on_c, 1, 77, 127
1, 230126, Note_off_c, 1, 62, 0
1, 230126, Note_off_c, 1, 77, 0
1, 230128, Note_on_c, 1, 63, 127
1, 230128, Note_on_c, 1, 79, 127
1, 230498, Note_off_c, 1, 63, 0
1, 230498, Note_off_c, 1, 79, 0
1, 230500, Note_on_c, 1, 60, 127
1, 230500, Note_on_c, 1, 75, 127
1, 230870, Note_off_c, 1, 60, 0
1, 230870, Note_off_c, 1, 75, 0
1, 230872, Note_on_c, 1, 65, 127
1, 230872, Note_on_c, 1, 80, 127
1, 231614, Note_off_c, 1, 80, 0
1, 231614, Note_on_c, 1, 77, 127
1, 231614, Note_on_c, 1, 72, 127
1, 231614, Note_on_c, 1, 53, 127
1, 231614, Note_on_c, 1, 45, 127
1, 231984, Note_off_c, 1, 77, 0
1, 231986, Note_on_c, 1, 75, 127
1, 232350, Note_off_c, 1, 72, 0
1, 232356, Note_off_c, 1, 75, 0
1, 233100, Note_off_c, 1, 53, 0
1, 233100, Note_off_c, 1, 45, 0
1, 233102, Note_on_c, 1, 46, 127
1, 233102, Note_on_c, 1, 70, 127
1, 233102, Note_on_c, 1, 74, 127
1, 233472, Note_off_c, 1, 46, 0
1, 233472, Note_off_c, 1, 70, 0
1, 233472, Note_off_c, 1, 74, 0
1, 233474, Note_off_c, 1, 65, 0
1, 233490, Note_on_c, 1, 77, 127
1, 233490, Note_on_c, 1, 62, 127
1, 233860, Note_off_c, 1, 77, 0
1, 233860, Note_off_c, 1, 62, 0
1, 233862, Note_on_c, 1, 74, 127
1, 233862, Note_on_c, 1, 58, 127
1, 234232, Note_off_c, 1, 74, 0
1, 234232, Note_off_c, 1, 58, 0
1, 234234, Note_on_c, 1, 75, 127
1, 234234, Note_on_c, 1, 60, 127
1, 234604, Note_off_c, 1, 75, 0
1, 234604, Note_off_c, 1, 60, 0
1, 234606, Note_on_c, 1, 77, 127
1, 234606, Note_on_c, 1, 62, 127
1, 234976, Note_off_c, 1, 77, 0
1, 234976, Note_off_c, 1, 62, 0
1, 234978, Note_on_c, 1, 74, 127
1, 234978, Note_on_c, 1, 58, 127
1, 235348, Note_off_c, 1, 74, 0
1, 235348, Note_off_c, 1, 58, 0
1, 235350, Note_on_c, 1, 79, 127
1, 235350, Note_on_c, 1, 63, 127
1, 236092, Note_off_c, 1, 79, 0
1, 236092, Note_off_c, 1, 63, 0
1, 236094, Note_on_c, 1, 70, 127
1, 236094, Note_on_c, 1, 75, 127
1, 236094, Note_on_c, 1, 51, 127
1, 236094, Note_on_c, 1, 43, 127
1, 236094, Note_on_c, 1, 63, 127
1, 236464, Note_off_c, 1, 70, 0
1, 236464, Note_off_c, 1, 75, 0
1, 236466, Note_on_c, 1, 74, 127
1, 236836, Note_off_c, 1, 74, 0
1, 237580, Note_off_c, 1, 51, 0
1, 237580, Note_off_c, 1, 43, 0
1, 237582, Note_on_c, 1, 68, 127
1, 237582, Note_on_c, 1, 72, 127
1, 237582, Note_on_c, 1, 44, 127
1, 237952, Note_off_c, 1, 68, 0
1, 237952, Note_off_c, 1, 72, 0
1, 237952, Note_off_c, 1, 44, 0
1, 237954, Note_off_c, 1, 63, 0
1, 237970, Note_on_c, 1, 60, 127
1, 237970, Note_on_c, 1, 75, 127
1, 238340, Note_off_c, 1, 60, 0
1, 238340, Note_off_c, 1, 75, 0
1, 238342, Note_on_c, 1, 56, 127
1, 238342, Note_on_c, 1, 72, 127
1, 238712, Note_off_c, 1, 56, 0
1, 238712, Note_off_c, 1, 72, 0
1, 238714, Note_on_c, 1, 58, 127
1, 238714, Note_on_c, 1, 74, 127
1, 239084, Note_off_c, 1, 58, 0
1, 239084, Note_off_c, 1, 74, 0
1, 239086, Note_on_c, 1, 60, 127
1, 239086, Note_on_c, 1, 75, 127
1, 239456, Note_off_c, 1, 60, 0
1, 239456, Note_off_c, 1, 75, 0
1, 239458, Note_on_c, 1, 56, 127
1, 239458, Note_on_c, 1, 72, 127
1, 239828, Note_off_c, 1, 56, 0
1, 239828, Note_off_c, 1, 72, 0
1, 239830, Note_on_c, 1, 50, 127
1, 239830, Note_on_c, 1, 77, 127
1, 240200, Note_off_c, 1, 50, 0
1, 240202, Note_on_c, 1, 62, 127
1, 240572, Note_off_c, 1, 62, 0
1, 240574, Note_on_c, 1, 60, 127
1, 240944, Note_off_c, 1, 60, 0
1, 240946, Note_on_c, 1, 58, 127
1, 241038, Note_off_c, 1, 77, 0
1, 241038, Note_on_c, 1, 79, 127
1, 241130, Note_off_c, 1, 79, 0
1, 241132, Note_on_c, 1, 80, 127
1, 241224, Note_off_c, 1, 80, 0
1, 241316, Note_off_c, 1, 58, 0
1, 241318, Note_on_c, 1, 77, 127
1, 241318, Note_on_c, 1, 63, 127
1, 241686, Note_off_c, 1, 77, 0
1, 241688, Note_off_c, 1, 63, 0
1, 241690, Note_on_c, 1, 60, 127
1, 241690, Note_on_c, 1, 75, 127
1, 242060, Note_off_c, 1, 60, 0
1, 242062, Note_on_c, 1, 58, 127
1, 242194, Note_off_c, 1, 75, 0
1, 242248, Note_on_c, 1, 74, 127
1, 242432, Note_off_c, 1, 58, 0
1, 242434, Note_on_c, 1, 56, 127
1, 242618, Note_off_c, 1, 74, 0
1, 242804, Note_off_c, 1, 56, 0
1, 242806, Note_on_c, 1, 67, 127
1, 242806, Note_on_c, 1, 58, 127
1, 243084, Note_on_c, 1, 65, 127
1, 243086, Note_off_c, 1, 67, 0
1, 243176, Note_off_c, 1, 65, 0
1, 243544, Note_off_c, 1, 58, 0
1, 243546, Note_on_c, 1, 46, 127
1, 243918, Note_on_c, 1, 63, 127
1, 244288, Note_off_c, 1, 46, 0
1, 244288, Note_off_c, 1, 63, 0
1, 244306, Note_on_c, 1, 79, 127
1, 244306, Note_on_c, 1, 63, 127
1, 244306, Note_on_c, 1, 51, 127
1, 245048, Note_off_c, 1, 79, 0
1, 245048, Note_on_c, 1, 75, 127
1, 245420, Note_off_c, 1, 63, 0
1, 245420, Note_off_c, 1, 51, 0
1, 245790, Note_off_c, 1, 75, 0
1, 245792, Note_on_c, 1, 77, 127
1, 246162, Note_off_c, 1, 77, 0
1, 246164, Note_on_c, 1, 79, 127
1, 246534, Note_off_c, 1, 79, 0
1, 246536, Note_on_c, 1, 71, 127
1, 246536, Note_on_c, 1, 62, 127
1, 246536, Note_on_c, 1, 55, 127
1, 246536, Note_on_c, 1, 67, 127
1, 247278, Note_off_c, 1, 71, 0
1, 247278, Note_off_c, 1, 62, 0
1, 247278, Note_off_c, 1, 55, 0
1, 247280, Note_on_c, 1, 72, 127
1, 247280, Note_on_c, 1, 51, 127
1, 247280, Note_on_c, 1, 60, 127
1, 247414, Note_off_c, 1, 72, 0
1, 248022, Note_off_c, 1, 51, 0
1, 248024, Note_on_c, 1, 53, 127
1, 248394, Note_off_c, 1, 53, 0
1, 248766, Note_off_c, 1, 60, 0
1, 248766, Note_on_c, 1, 74, 127
1, 248766, Note_on_c, 1, 47, 127
1, 249498, Note_off_c, 1, 67, 0
1, 249508, Note_off_c, 1, 74, 0
1, 249508, Note_off_c, 1, 47, 0
1, 249510, Note_on_c, 1, 75, 127
1, 249510, Note_on_c, 1, 48, 127
1, 249880, Note_off_c, 1, 75, 0
1, 249882, Note_on_c, 1, 77, 127
1, 250252, Note_off_c, 1, 77, 0
1, 250254, Note_on_c, 1, 79, 127
1, 250996, Note_off_c, 1, 48, 0
1, 250996, Note_off_c, 1, 79, 0
1, 250998, Note_on_c, 1, 74, 127
1, 250998, Note_on_c, 1, 77, 127
1, 250998, Note_on_c, 1, 59, 127
1, 250998, Note_on_c, 1, 53, 127
1, 251368, Note_off_c, 1, 74, 0
1, 251368, Note_off_c, 1, 77, 0
1, 251368, Note_off_c, 1, 59, 0
1, 251370, Note_on_c, 1, 75, 127
1, 251370, Note_on_c, 1, 72, 127
1, 251370, Note_on_c, 1, 60, 127
1, 251734, Note_off_c, 1, 53, 0
1, 251740, Note_off_c, 1, 75, 0
1, 251740, Note_off_c, 1, 72, 0
1, 251740, Note_off_c, 1, 60, 0
1, 251742, Note_on_c, 1, 75, 127
1, 251742, Note_on_c, 1, 71, 127
1, 251742, Note_on_c, 1, 55, 127
1, 251926, Note_off_c, 1, 75, 0
1, 251928, Note_on_c, 1, 74, 127
1, 252020, Note_off_c, 1, 74, 0
1, 252486, Note_on_c, 1, 43, 127
1, 252856, Note_off_c, 1, 71, 0
1, 252858, Note_on_c, 1, 72, 127
1, 253228, Note_off_c, 1, 43, 0
1, 253228, Note_off_c, 1, 72, 0
1, 253230, Note_on_c, 1, 67, 127
1, 253230, Note_on_c, 1, 63, 127
1, 253230, Note_on_c, 1, 48, 127
1, 253970, Note_off_c, 1, 55, 0
1, 253972, Note_off_c, 1, 67, 0
1, 253972, Note_off_c, 1, 63, 0
1, 253972, Note_off_c, 1, 48, 0
1, 253988, Note_on_c, 1, 72, 127
1, 253988, Note_on_c, 1, 52, 127
1, 253988, Note_on_c, 1, 55, 127
1, 254358, Note_off_c, 1, 72, 0
1, 254360, Note_on_c, 1, 70, 127
1, 254730, Note_off_c, 1, 70, 0
1, 255104, Note_on_c, 1, 67, 127
1, 255474, Note_off_c, 1, 52, 0
1, 255474, Note_off_c, 1, 55, 0
1, 255474, Note_off_c, 1, 67, 0
1, 255476, Note_on_c, 1, 53, 127
1, 255476, Note_on_c, 1, 69, 127
1, 255662, Note_on_c, 1, 60, 127
1, 255846, Note_off_c, 1, 60, 0
1, 255848, Note_on_c, 1, 62, 127
1, 256032, Note_off_c, 1, 62, 0
1, 256034, Note_on_c, 1, 63, 127
1, 256212, Note_off_c, 1, 53, 0
1, 256218, Note_off_c, 1, 69, 0
1, 256218, Note_off_c, 1, 63, 0
1, 256220, Note_on_c, 1, 74, 127
1, 256220, Note_on_c, 1, 54, 127
1, 256220, Note_on_c, 1, 57, 127
1, 256590, Note_off_c, 1, 74, 0
1, 256592, Note_on_c, 1, 72, 127
1, 256962, Note_off_c, 1, 72, 0
1, 257336, Note_on_c, 1, 69, 127
1, 257706, Note_off_c, 1, 54, 0
1, 257706, Note_off_c, 1, 57, 0
1, 257706, Note_off_c, 1, 69, 0
1, 257708, Note_on_c, 1, 71, 127
1, 257708, Note_on_c, 1, 55, 127
1, 257894, Note_on_c, 1, 62, 127
1, 258078, Note_off_c, 1, 62, 0
1, 258080, Note_on_c, 1, 63, 127
1, 258250, Note_off_c, 1, 71, 0
1, 258264, Note_off_c, 1, 63, 0
1, 258266, Note_on_c, 1, 65, 127
1, 258444, Note_off_c, 1, 55, 0
1, 258450, Note_off_c, 1, 65, 0
1, 258452, Note_on_c, 1, 76, 127
1, 258452, Note_on_c, 1, 58, 127
1, 258452, Note_on_c, 1, 55, 127
1, 258698, Note_off_c, 1, 76, 0
1, 258700, Note_on_c, 1, 77, 127
1, 258822, Note_off_c, 1, 77, 0
1, 259072, Note_on_c, 1, 79, 127
1, 259194, Note_off_c, 1, 79, 0
1, 259938, Note_off_c, 1, 58, 0
1, 259938, Note_off_c, 1, 55, 0
1, 259940, Note_on_c, 1, 73, 127
1, 259940, Note_on_c, 1, 56, 127
1, 260482, Note_off_c, 1, 73, 0
1, 260682, Note_off_c, 1, 56, 0
1, 260684, Note_on_c, 1, 74, 127
1, 260684, Note_on_c, 1, 53, 127
1, 260776, Note_off_c, 1, 74, 0
1, 260776, Note_on_c, 1, 73, 127
1, 260868, Note_off_c, 1, 73, 0
1, 261426, Note_off_c, 1, 53, 0
1, 261426, Note_on_c, 1, 55, 127
1, 261794, Note_off_c, 1, 55, 0
1, 261798, Note_on_c, 1, 57, 127
1, 262166, Note_off_c, 1, 57, 0
1, 262170, Note_on_c, 1, 49, 127
1, 262170, Note_on_c, 1, 76, 127
1, 262170, Note_on_c, 1, 69, 127
1, 262912, Note_off_c, 1, 49, 0
1, 262912, Note_off_c, 1, 76, 0
1, 262912, Note_off_c, 1, 69, 0
1, 262914, Note_on_c, 1, 67, 127
1, 262914, Note_on_c, 1, 50, 127
1, 262914, Note_on_c, 1, 77, 127
1, 263146, Note_off_c, 1, 67, 0
1, 263146, Note_on_c, 1, 65, 127
1, 263466, Note_off_c, 1, 65, 0
1, 263656, Note_off_c, 1, 50, 0
1, 263656, Note_on_c, 1, 69, 127
1, 263656, Note_on_c, 1, 62, 127
1, 264026, Note_off_c, 1, 69, 0
1, 264028, Note_off_c, 1, 77, 0
1, 264028, Note_on_c, 1, 79, 127
1, 264028, Note_on_c, 1, 70, 127
1, 264398, Note_off_c, 1, 62, 0
1, 264398, Note_off_c, 1, 79, 0
1, 264398, Note_off_c, 1, 70, 0
1, 264400, Note_on_c, 1, 76, 127
1, 264400, Note_on_c, 1, 57, 127
1, 264400, Note_on_c, 1, 61, 127
1, 265142, Note_off_c, 1, 76, 0
1, 265144, Note_on_c, 1, 69, 127
1, 265884, Note_off_c, 1, 57, 0
1, 265886, Note_on_c, 1, 55, 127
1, 266258, Note_off_c, 1, 61, 0
1, 266628, Note_off_c, 1, 69, 0
1, 266628, Note_off_c, 1, 55, 0
1, 266630, Note_on_c, 1, 53, 127
1, 266630, Note_on_c, 1, 74, 127
1, 266630, Note_on_c, 1, 57, 127
1, 266630, Note_on_c, 1, 62, 127
1, 267372, Note_off_c, 1, 53, 0
1, 267372, Note_off_c, 1, 74, 0
1, 267374, Note_on_c, 1, 52, 127
1, 267374, Note_on_c, 1, 76, 127
1, 268116, Note_off_c, 1, 52, 0
1, 268116, Note_off_c, 1, 76, 0
1, 268116, Note_on_c, 1, 50, 127
1, 268116, Note_on_c, 1, 77, 127
1, 268856, Note_off_c, 1, 57, 0
1, 268856, Note_off_c, 1, 62, 0
1, 268858, Note_off_c, 1, 50, 0
1, 268858, Note_off_c, 1, 77, 0
1, 268860, Note_on_c, 1, 55, 127
1, 268860, Note_on_c, 1, 58, 127
1, 268860, Note_on_c, 1, 79, 127
1, 268860, Note_on_c, 1, 49, 127
1, 269602, Note_off_c, 1, 55, 0
1, 269602, Note_off_c, 1, 58, 0
1, 269602, Note_off_c, 1, 79, 0
1, 269602, Note_on_c, 1, 53, 127
1, 269602, Note_on_c, 1, 57, 127
1, 269602, Note_on_c, 1, 81, 127
1, 270344, Note_off_c, 1, 53, 0
1, 270344, Note_off_c, 1, 57, 0
1, 270344, Note_off_c, 1, 81, 0
1, 270346, Note_on_c, 1, 52, 127
1, 270346, Note_on_c, 1, 82, 127
1, 271086, Note_off_c, 1, 49, 0
1, 271088, Note_off_c, 1, 52, 0
1, 271088, Note_off_c, 1, 82, 0
1, 271088, Note_on_c, 1, 50, 127
1, 271824, Note_off_c, 1, 50, 0
1, 271832, Note_on_c, 1, 77, 127
1, 271832, Note_on_c, 1, 57, 127
1, 272576, Note_on_c, 1, 45, 127
1, 272664, Note_off_c, 1, 77, 0
1, 272668, Note_on_c, 1, 76, 127
1, 272760, Note_off_c, 1, 76, 0
1, 273132, Note_on_c, 1, 74, 127
1, 273316, Note_off_c, 1, 74, 0
1, 273318, Note_off_c, 1, 45, 0
1, 273318, Note_on_c, 1, 54, 127
1, 273318, Note_on_c, 1, 50, 127
1, 273502, Note_off_c, 1, 54, 0
1, 273504, Note_on_c, 1, 55, 127
1, 273688, Note_off_c, 1, 55, 0
1, 274058, Note_off_c, 1, 57, 0
1, 274062, Note_on_c, 1, 70, 127
1, 274804, Note_off_c, 1, 70, 0
1, 274806, Note_on_c, 1, 72, 127
1, 275176, Note_off_c, 1, 72, 0
1, 275546, Note_off_c, 1, 50, 0
1, 275550, Note_on_c, 1, 50, 127
1, 275550, Note_on_c, 1, 57, 127
1, 275550, Note_on_c, 1, 66, 127
1, 275550, Note_on_c, 1, 62, 127
1, 276292, Note_off_c, 1, 50, 0
1, 276292, Note_off_c, 1, 57, 0
1, 276292, Note_off_c, 1, 66, 0
1, 276294, Note_on_c, 1, 67, 127
1, 276294, Note_on_c, 1, 46, 127
1, 276294, Note_on_c, 1, 55, 127
1, 276386, Note_off_c, 1, 67, 0
1, 277036, Note_off_c, 1, 46, 0
1, 277036, Note_on_c, 1, 48, 127
1, 277406, Note_off_c, 1, 48, 0
1, 277780, Note_off_c, 1, 55, 0
1, 277780, Note_on_c, 1, 42, 127
1, 277780, Note_on_c, 1, 69, 127
1, 278512, Note_off_c, 1, 62, 0
1, 278522, Note_off_c, 1, 42, 0
1, 278522, Note_off_c, 1, 69, 0
1, 278524, Note_on_c, 1, 70, 127
1, 278524, Note_on_c, 1, 43, 127
1, 278894, Note_off_c, 1, 70, 0
1, 278896, Note_on_c, 1, 72, 127
1, 279266, Note_off_c, 1, 72, 0
1, 279268, Note_on_c, 1, 74, 127
1, 280010, Note_off_c, 1, 43, 0
1, 280010, Note_off_c, 1, 74, 0
1, 280012, Note_on_c, 1, 54, 127
1, 280012, Note_on_c, 1, 72, 127
1, 280012, Note_on_c, 1, 69, 127
1, 280012, Note_on_c, 1, 48, 127
1, 280382, Note_off_c, 1, 54, 0
1, 280382, Note_off_c, 1, 72, 0
1, 280382, Note_off_c, 1, 69, 0
1, 280384, Note_on_c, 1, 55, 127
1, 280384, Note_on_c, 1, 70, 127
1, 280384, Note_on_c, 1, 67, 127
1, 280748, Note_off_c, 1, 48, 0
1, 280754, Note_off_c, 1, 55, 0
1, 280754, Note_off_c, 1, 70, 0
1, 280754, Note_off_c, 1, 67, 0
1, 280756, Note_on_c, 1, 62, 127
1, 280756, Note_on_c, 1, 69, 127
1, 280756, Note_on_c, 1, 66, 127
1, 280756, Note_on_c, 1, 50, 127
1, 281498, Note_off_c, 1, 62, 0
1, 281498, Note_on_c, 1, 60, 127
1, 281498, Note_on_c, 1, 38, 127
1, 281870, Note_off_c, 1, 69, 0
1, 281870, Note_on_c, 1, 67, 127
1, 282234, Note_off_c, 1, 60, 0
1, 282240, Note_off_c, 1, 38, 0
1, 282240, Note_off_c, 1, 67, 0
1, 282242, Note_off_c, 1, 66, 0
1, 282242, Note_on_c, 1, 43, 127
1, 282242, Note_on_c, 1, 58, 127
1, 284162, Note_off_c, 1, 50, 0
1, 284176, Note_off_c, 1, 43, 0
1, 284176, Note_off_c, 1, 58, 0
1, 284520, Note_on_c, 1, 69, 127
1, 284520, Note_on_c, 1, 74, 127
1, 284520, Note_on_c, 1, 62, 127
1, 284520, Note_on_c, 1, 53, 127
1, 284520, Note_on_c, 1, 41, 127
1, 286376, Note_off_c, 1, 69, 0
1, 286376, Note_off_c, 1, 74, 0
1, 286376, Note_off_c, 1, 62, 0
1, 286378, Note_on_c, 1, 75, 127
1, 286748, Note_off_c, 1, 53, 0
1, 286748, Note_off_c, 1, 41, 0
1, 286748, Note_off_c, 1, 75, 0
1, 286750, Note_on_c, 1, 72, 127
1, 286750, Note_on_c, 1, 69, 127
1, 286750, Note_on_c, 1, 67, 127
1, 286750, Note_on_c, 1, 51, 127
1, 286750, Note_on_c, 1, 39, 127
1, 288978, Note_off_c, 1, 72, 0
1, 288978, Note_off_c, 1, 69, 0
1, 288978, Note_off_c, 1, 67, 0
1, 288978, Note_off_c, 1, 51, 0
1, 288978, Note_off_c, 1, 39, 0
1, 289004, Note_on_c, 1, 38, 127
1, 289004, Note_on_c, 1, 50, 127
1, 289004, Note_on_c, 1, 66, 127
1, 289004, Note_on_c, 1, 69, 127
1, 289004, Note_on_c, 1, 74, 127
1, 292876, Note_off_c, 1, 38, 0
1, 292876, Note_off_c, 1, 50, 0
1, 292876, Note_off_c, 1, 66, 0
1, 292876, Note_off_c, 1, 69, 0
1, 292876, Note_off_c, 1, 74, 0
1, 293462, Note_on_c, 1, 55, 127
1, 293462, Note_on_c, 1, 70, 127
1, 293764, Note_off_c, 1, 55, 0
1, 293766, Note_on_c, 1, 57, 127
1, 293866, Note_off_c, 1, 70, 0
1, 293866, Note_off_c, 1, 57, 0
1, 293868, Note_on_c, 1, 58, 127
1, 293868, Note_on_c, 1, 70, 127
1, 294070, Note_off_c, 1, 58, 0
1, 294070, Note_on_c, 1, 55, 127
1, 294372, Note_off_c, 1, 70, 0
1, 294372, Note_off_c, 1, 55, 0
1, 294374, Note_on_c, 1, 57, 127
1, 294374, Note_on_c, 1, 69, 127
1, 294474, Note_off_c, 1, 57, 0
1, 294474, Note_off_c, 1, 69, 0
1, 294476, Note_on_c, 1, 58, 127
1, 294476, Note_on_c, 1, 67, 127
1, 294678, Note_off_c, 1, 58, 0
1, 294678, Note_off_c, 1, 67, 0
1, 294678, Note_on_c, 1, 74, 127
1, 294678, Note_on_c, 1, 54, 127
1, 295082, Note_off_c, 1, 74, 0
1, 295084, Note_on_c, 1, 62, 127
1, 295280, Note_off_c, 1, 54, 0
1, 295590, Note_on_c, 1, 50, 127
1, 295688, Note_off_c, 1, 62, 0
1, 295690, Note_off_c, 1, 50, 0
1, 295690, Note_on_c, 1, 52, 127
1, 295790, Note_off_c, 1, 52, 0
1, 295892, Note_on_c, 1, 55, 127
1, 295892, Note_on_c, 1, 70, 127
1, 296194, Note_off_c, 1, 55, 0
1, 296196, Note_on_c, 1, 57, 127
1, 296296, Note_off_c, 1, 70, 0
1, 296296, Note_off_c, 1, 57, 0
1, 296298, Note_on_c, 1, 58, 127
1, 296298, Note_on_c, 1, 70, 127
1, 296500, Note_off_c, 1, 58, 0
1, 296500, Note_on_c, 1, 55, 127
1, 296802, Note_off_c, 1, 70, 0
1, 296802, Note_off_c, 1, 55, 0
1, 296804, Note_on_c, 1, 57, 127
1, 296804, Note_on_c, 1, 69, 127
1, 296904, Note_off_c, 1, 57, 0
1, 296904, Note_off_c, 1, 69, 0
1, 296906, Note_on_c, 1, 58, 127
1, 296906, Note_on_c, 1, 67, 127
1, 297108, Note_off_c, 1, 58, 0
1, 297108, Note_off_c, 1, 67, 0
1, 297108, Note_on_c, 1, 74, 127
1, 297108, Note_on_c, 1, 54, 127
1, 297512, Note_off_c, 1, 74, 0
1, 297514, Note_on_c, 1, 62, 127
1, 297710, Note_off_c, 1, 54, 0
1, 298120, Note_off_c, 1, 62, 0
1, 298122, Note_on_c, 1, 53, 127
1, 298122, Note_on_c, 1, 74, 127
1, 298324, Note_off_c, 1, 53, 0
1, 298324, Note_off_c, 1, 74, 0
1, 298324, Note_on_c, 1, 51, 127
1, 298324, Note_on_c, 1, 79, 127
1, 298626, Note_off_c, 1, 51, 0
1, 298626, Note_off_c, 1, 79, 0
1, 298628, Note_on_c, 1, 53, 127
1, 298628, Note_on_c, 1, 81, 127
1, 298728, Note_off_c, 1, 53, 0
1, 298728, Note_off_c, 1, 81, 0
1, 298730, Note_on_c, 1, 50, 127
1, 298730, Note_on_c, 1, 82, 127
1, 298932, Note_off_c, 1, 50, 0
1, 298932, Note_off_c, 1, 82, 0
1, 298932, Note_on_c, 1, 48, 127
1, 298932, Note_on_c, 1, 81, 127
1, 299234, Note_off_c, 1, 48, 0
1, 299234, Note_off_c, 1, 81, 0
1, 299236, Note_on_c, 1, 50, 127
1, 299236, Note_on_c, 1, 82, 127
1, 299336, Note_off_c, 1, 50, 0
1, 299336, Note_off_c, 1, 82, 0
1, 299338, Note_on_c, 1, 51, 127
1, 299338, Note_on_c, 1, 79, 127
1, 299540, Note_off_c, 1, 51, 0
1, 299540, Note_off_c, 1, 79, 0
1, 299540, Note_on_c, 1, 78, 127
1, 299540, Note_on_c, 1, 50, 127
1, 299944, Note_off_c, 1, 78, 0
1, 299946, Note_on_c, 1, 74, 127
1, 300142, Note_off_c, 1, 50, 0
1, 300452, Note_on_c, 1, 46, 127
1, 300550, Note_off_c, 1, 74, 0
1, 300552, Note_off_c, 1, 46, 0
1, 300552, Note_on_c, 1, 48, 127
1, 300652, Note_off_c, 1, 48, 0
1, 301058, Note_on_c, 1, 53, 127
1, 301058, Note_on_c, 1, 81, 127
1, 301158, Note_off_c, 1, 53, 0
1, 301158, Note_off_c, 1, 81, 0
1, 301160, Note_on_c, 1, 50, 127
1, 301160, Note_on_c, 1, 82, 127
1, 301362, Note_off_c, 1, 50, 0
1, 301362, Note_off_c, 1, 82, 0
1, 301362, Note_on_c, 1, 48, 127
1, 301362, Note_on_c, 1, 81, 127
1, 301664, Note_off_c, 1, 48, 0
1, 301664, Note_off_c, 1, 81, 0
1, 301666, Note_on_c, 1, 50, 127
1, 301666, Note_on_c, 1, 82, 127
1, 301766, Note_off_c, 1, 50, 0
1, 301766, Note_off_c, 1, 82, 0
1, 301768, Note_on_c, 1, 51, 127
1, 301768, Note_on_c, 1, 79, 127
1, 301970, Note_off_c, 1, 51, 0
1, 301970, Note_off_c, 1, 79, 0
1, 301970, Note_on_c, 1, 78, 127
1, 301970, Note_on_c, 1, 50, 127
1, 302374, Note_off_c, 1, 78, 0
1, 302376, Note_on_c, 1, 74, 127
1, 302572, Note_off_c, 1, 50, 0
1, 302980, Note_off_c, 1, 74, 0
1, 302982, Note_on_c, 1, 52, 127
1, 303082, Note_off_c, 1, 52, 0
1, 303084, Note_on_c, 1, 54, 127
1, 303084, Note_on_c, 1, 81, 127
1, 303184, Note_off_c, 1, 54, 0
1, 303184, Note_off_c, 1, 81, 0
1, 303184, Note_on_c, 1, 55, 127
1, 303184, Note_on_c, 1, 82, 127
1, 303486, Note_off_c, 1, 55, 0
1, 303486, Note_off_c, 1, 82, 0
1, 303488, Note_on_c, 1, 46, 127
1, 303488, Note_on_c, 1, 81, 127
1, 303588, Note_off_c, 1, 46, 0
1, 303588, Note_off_c, 1, 81, 0
1, 303590, Note_on_c, 1, 48, 127
1, 303590, Note_on_c, 1, 79, 127
1, 303792, Note_off_c, 1, 48, 0
1, 303792, Note_on_c, 1, 50, 127
1, 304094, Note_off_c, 1, 79, 0
1, 304094, Note_off_c, 1, 50, 0
1, 304096, Note_on_c, 1, 48, 127
1, 304096, Note_on_c, 1, 81, 127
1, 304196, Note_off_c, 1, 48, 0
1, 304196, Note_off_c, 1, 81, 0
1, 304198, Note_on_c, 1, 50, 127
1, 304198, Note_on_c, 1, 78, 127
1, 304400, Note_off_c, 1, 50, 0
1, 304400, Note_off_c, 1, 78, 0
1, 304400, Note_on_c, 1, 79, 127
1, 304400, Note_on_c, 1, 39, 127
1, 304804, Note_off_c, 1, 79, 0
1, 304806, Note_on_c, 1, 67, 127
1, 305002, Note_off_c, 1, 39, 0
1, 305312, Note_on_c, 1, 51, 127
1, 305410, Note_off_c, 1, 67, 0
1, 305412, Note_off_c, 1, 51, 0
1, 305514, Note_on_c, 1, 48, 127
1, 305514, Note_on_c, 1, 81, 127
1, 305614, Note_off_c, 1, 48, 0
1, 305614, Note_off_c, 1, 81, 0
1, 305614, Note_on_c, 1, 46, 127
1, 305614, Note_on_c, 1, 82, 127
1, 305916, Note_off_c, 1, 46, 0
1, 305916, Note_off_c, 1, 82, 0
1, 305918, Note_on_c, 1, 58, 127
1, 305918, Note_on_c, 1, 81, 127
1, 306018, Note_off_c, 1, 58, 0
1, 306018, Note_off_c, 1, 81, 0
1, 306020, Note_on_c, 1, 60, 127
1, 306020, Note_on_c, 1, 79, 127
1, 306222, Note_off_c, 1, 60, 0
1, 306222, Note_on_c, 1, 62, 127
1, 306524, Note_off_c, 1, 79, 0
1, 306524, Note_off_c, 1, 62, 0
1, 306526, Note_on_c, 1, 60, 127
1, 306526, Note_on_c, 1, 81, 127
1, 306626, Note_off_c, 1, 60, 0
1, 306626, Note_off_c, 1, 81, 0
1, 306628, Note_on_c, 1, 62, 127
1, 306628, Note_on_c, 1, 78, 127
1, 306830, Note_off_c, 1, 62, 0
1, 306830, Note_off_c, 1, 78, 0
1, 306830, Note_on_c, 1, 55, 127
1, 306830, Note_on_c, 1, 79, 127
1, 307132, Note_off_c, 1, 55, 0
1, 307134, Note_on_c, 1, 50, 127
1, 307234, Note_off_c, 1, 79, 0
1, 307234, Note_off_c, 1, 50, 0
1, 307236, Note_on_c, 1, 46, 127
1, 307236, Note_on_c, 1, 67, 127
1, 307438, Note_off_c, 1, 46, 0
1, 307438, Note_on_c, 1, 43, 127
1, 307842, Note_off_c, 1, 67, 0
1, 307844, Note_on_c, 1, 79, 127
1, 308044, Note_off_c, 1, 43, 0
1, 308046, Note_off_c, 1, 79, 0
1, 308046, Note_on_c, 1, 58, 127
1, 308046, Note_on_c, 1, 74, 127
1, 308348, Note_off_c, 1, 58, 0
1, 308350, Note_on_c, 1, 60, 127
1, 308450, Note_off_c, 1, 74, 0
1, 308450, Note_off_c, 1, 60, 0
1, 308452, Note_on_c, 1, 62, 127
1, 308452, Note_on_c, 1, 74, 127
1, 308654, Note_off_c, 1, 62, 0
1, 308654, Note_on_c, 1, 58, 127
1, 308956, Note_off_c, 1, 74, 0
1, 308956, Note_off_c, 1, 58, 0
1, 308958, Note_on_c, 1, 60, 127
1, 308958, Note_on_c, 1, 72, 127
1, 309058, Note_off_c, 1, 60, 0
1, 309058, Note_off_c, 1, 72, 0
1, 309060, Note_on_c, 1, 62, 127
1, 309060, Note_on_c, 1, 70, 127
1, 309262, Note_off_c, 1, 62, 0
1, 309262, Note_off_c, 1, 70, 0
1, 309262, Note_on_c, 1, 77, 127
1, 309262, Note_on_c, 1, 57, 127
1, 309666, Note_off_c, 1, 77, 0
1, 309668, Note_on_c, 1, 65, 127
1, 310022, Note_off_c, 1, 57, 0
1, 310174, Note_on_c, 1, 53, 127
1, 310274, Note_off_c, 1, 65, 0
1, 310274, Note_off_c, 1, 53, 0
1, 310276, Note_on_c, 1, 55, 127
1, 310276, Note_on_c, 1, 77, 127
1, 310376, Note_off_c, 1, 55, 0
1, 310376, Note_on_c, 1, 57, 127
1, 310476, Note_off_c, 1, 77, 0
1, 310476, Note_off_c, 1, 57, 0
1, 310478, Note_on_c, 1, 58, 127
1, 310478, Note_on_c, 1, 74, 127
1, 310780, Note_off_c, 1, 58, 0
1, 310782, Note_on_c, 1, 60, 127
1, 310882, Note_off_c, 1, 60, 0
1, 310882, Note_on_c, 1, 62, 127
1, 311084, Note_off_c, 1, 74, 0
1, 311084, Note_off_c, 1, 62, 0
1, 311086, Note_on_c, 1, 58, 127
1, 311086, Note_on_c, 1, 74, 127
1, 311388, Note_off_c, 1, 58, 0
1, 311388, Note_off_c, 1, 74, 0
1, 311390, Note_on_c, 1, 60, 127
1, 311390, Note_on_c, 1, 72, 127
1, 311490, Note_off_c, 1, 60, 0
1, 311490, Note_off_c, 1, 72, 0
1, 311490, Note_on_c, 1, 62, 127
1, 311490, Note_on_c, 1, 70, 127
1, 311692, Note_off_c, 1, 62, 0
1, 311692, Note_off_c, 1, 70, 0
1, 311694, Note_on_c, 1, 77, 127
1, 311694, Note_on_c, 1, 57, 127
1, 312098, Note_off_c, 1, 77, 0
1, 312098, Note_on_c, 1, 65, 127
1, 312300, Note_off_c, 1, 65, 0
1, 312454, Note_off_c, 1, 57, 0
1, 312606, Note_on_c, 1, 53, 127
1, 312706, Note_off_c, 1, 53, 0
1, 312706, Note_on_c, 1, 55, 127
1, 312806, Note_off_c, 1, 55, 0
1, 312908, Note_on_c, 1, 58, 127
1, 312908, Note_on_c, 1, 74, 127
1, 313210, Note_off_c, 1, 58, 0
1, 313210, Note_off_c, 1, 74, 0
1, 313212, Note_on_c, 1, 50, 127
1, 313212, Note_on_c, 1, 72, 127
1, 313312, Note_off_c, 1, 50, 0
1, 313312, Note_off_c, 1, 72, 0
1, 313314, Note_on_c, 1, 51, 127
1, 313314, Note_on_c, 1, 70, 127
1, 313516, Note_off_c, 1, 51, 0
1, 313516, Note_on_c, 1, 53, 127
1, 313818, Note_off_c, 1, 70, 0
1, 313818, Note_off_c, 1, 53, 0
1, 313820, Note_on_c, 1, 51, 127
1, 313820, Note_on_c, 1, 72, 127
1, 313920, Note_off_c, 1, 51, 0
1, 313920, Note_off_c, 1, 72, 0
1, 313922, Note_on_c, 1, 53, 127
1, 313922, Note_on_c, 1, 69, 127
1, 314124, Note_off_c, 1, 53, 0
1, 314124, Note_off_c, 1, 69, 0
1, 314124, Note_on_c, 1, 70, 127
1, 314124, Note_on_c, 1, 58, 127
1, 314214, Note_off_c, 1, 70, 0
1, 314426, Note_off_c, 1, 58, 0
1, 314530, Note_on_c, 1, 50, 127
1, 314732, Note_off_c, 1, 50, 0
1, 314732, Note_on_c, 1, 46, 127
1, 315136, Note_off_c, 1, 46, 0
1, 315138, Note_on_c, 1, 59, 127
1, 315138, Note_on_c, 1, 79, 127
1, 315340, Note_off_c, 1, 59, 0
1, 315340, Note_off_c, 1, 79, 0
1, 315340, Note_on_c, 1, 60, 127
1, 315340, Note_on_c, 1, 75, 127
1, 315642, Note_off_c, 1, 60, 0
1, 315644, Note_on_c, 1, 62, 127
1, 315744, Note_off_c, 1, 75, 0
1, 315744, Note_off_c, 1, 62, 0
1, 315746, Note_on_c, 1, 63, 127
1, 315746, Note_on_c, 1, 75, 127
1, 315948, Note_off_c, 1, 63, 0
1, 315948, Note_on_c, 1, 60, 127
1, 316250, Note_off_c, 1, 75, 0
1, 316250, Note_off_c, 1, 60, 0
1, 316252, Note_on_c, 1, 62, 127
1, 316252, Note_on_c, 1, 74, 127
1, 316352, Note_off_c, 1, 62, 0
1, 316352, Note_off_c, 1, 74, 0
1, 316354, Note_on_c, 1, 63, 127
1, 316354, Note_on_c, 1, 72, 127
1, 316556, Note_off_c, 1, 63, 0
1, 316556, Note_off_c, 1, 72, 0
1, 316556, Note_on_c, 1, 79, 127
1, 316556, Note_on_c, 1, 59, 127
1, 316960, Note_off_c, 1, 79, 0
1, 316962, Note_on_c, 1, 67, 127
1, 317158, Note_off_c, 1, 59, 0
1, 317468, Note_on_c, 1, 55, 127
1, 317566, Note_off_c, 1, 67, 0
1, 317568, Note_off_c, 1, 55, 0
1, 317568, Note_on_c, 1, 57, 127
1, 317668, Note_off_c, 1, 57, 0
1, 317770, Note_on_c, 1, 60, 127
1, 317770, Note_on_c, 1, 75, 127
1, 318072, Note_off_c, 1, 60, 0
1, 318074, Note_on_c, 1, 62, 127
1, 318174, Note_off_c, 1, 75, 0
1, 318174, Note_off_c, 1, 62, 0
1, 318176, Note_on_c, 1, 63, 127
1, 318176, Note_on_c, 1, 75, 127
1, 318378, Note_off_c, 1, 63, 0
1, 318378, Note_on_c, 1, 60, 127
1, 318680, Note_off_c, 1, 75, 0
1, 318680, Note_off_c, 1, 60, 0
1, 318682, Note_on_c, 1, 62, 127
1, 318682, Note_on_c, 1, 74, 127
1, 318782, Note_off_c, 1, 62, 0
1, 318782, Note_off_c, 1, 74, 0
1, 318784, Note_on_c, 1, 63, 127
1, 318784, Note_on_c, 1, 72, 127
1, 318986, Note_off_c, 1, 63, 0
1, 318986, Note_off_c, 1, 72, 0
1, 318986, Note_on_c, 1, 79, 127
1, 318986, Note_on_c, 1, 59, 127
1, 319390, Note_off_c, 1, 79, 0
1, 319392, Note_on_c, 1, 67, 127
1, 319588, Note_off_c, 1, 59, 0
1, 319898, Note_on_c, 1, 55, 127
1, 319996, Note_off_c, 1, 67, 0
1, 319998, Note_off_c, 1, 55, 0
1, 319998, Note_on_c, 1, 57, 127
1, 320098, Note_off_c, 1, 57, 0
1, 320200, Note_on_c, 1, 60, 127
1, 320200, Note_on_c, 1, 75, 127
1, 320502, Note_off_c, 1, 60, 0
1, 320502, Note_off_c, 1, 75, 0
1, 320504, Note_on_c, 1, 51, 127
1, 320504, Note_on_c, 1, 74, 127
1, 320604, Note_off_c, 1, 51, 0
1, 320604, Note_off_c, 1, 74, 0
1, 320606, Note_on_c, 1, 53, 127
1, 320606, Note_on_c, 1, 72, 127
1, 320808, Note_off_c, 1, 53, 0
1, 320808, Note_on_c, 1, 55, 127
1, 321110, Note_off_c, 1, 72, 0
1, 321110, Note_off_c, 1, 55, 0
1, 321112, Note_on_c, 1, 53, 127
1, 321112, Note_on_c, 1, 74, 127
1, 321212, Note_off_c, 1, 53, 0
1, 321212, Note_off_c, 1, 74, 0
1, 321214, Note_on_c, 1, 55, 127
1, 321214, Note_on_c, 1, 71, 127
1, 321416, Note_off_c, 1, 55, 0
1, 321416, Note_off_c, 1, 71, 0
1, 321416, Note_on_c, 1, 60, 127
1, 321416, Note_on_c, 1, 72, 127
1, 321718, Note_off_c, 1, 60, 0
1, 321822, Note_on_c, 1, 51, 127
1, 322018, Note_off_c, 1, 72, 0
1, 322024, Note_off_c, 1, 51, 0
1, 322024, Note_on_c, 1, 48, 127
1, 322428, Note_off_c, 1, 48, 0
1, 322430, Note_on_c, 1, 61, 127
1, 322430, Note_on_c, 1, 81, 127
1, 322632, Note_off_c, 1, 61, 0
1, 322632, Note_off_c, 1, 81, 0
1, 322632, Note_on_c, 1, 62, 127
1, 322632, Note_on_c, 1, 77, 127
1, 322934, Note_off_c, 1, 62, 0
1, 322934, Note_off_c, 1, 77, 0
1, 322936, Note_on_c, 1, 53, 127
1, 322936, Note_on_c, 1, 76, 127
1, 323036, Note_off_c, 1, 53, 0
1, 323036, Note_off_c, 1, 76, 0
1, 323038, Note_on_c, 1, 55, 127
1, 323038, Note_on_c, 1, 74, 127
1, 323240, Note_off_c, 1, 55, 0
1, 323240, Note_on_c, 1, 57, 127
1, 323542, Note_off_c, 1, 74, 0
1, 323542, Note_off_c, 1, 57, 0
1, 323544, Note_on_c, 1, 55, 127
1, 323544, Note_on_c, 1, 76, 127
1, 323644, Note_off_c, 1, 55, 0
1, 323644, Note_off_c, 1, 76, 0
1, 323646, Note_on_c, 1, 57, 127
1, 323646, Note_on_c, 1, 73, 127
1, 323848, Note_off_c, 1, 57, 0
1, 323848, Note_off_c, 1, 73, 0
1, 323848, Note_on_c, 1, 62, 127
1, 323848, Note_on_c, 1, 74, 127
1, 324150, Note_off_c, 1, 62, 0
1, 324252, Note_off_c, 1, 74, 0
1, 324254, Note_on_c, 1, 53, 127
1, 324254, Note_on_c, 1, 62, 127
1, 324456, Note_off_c, 1, 53, 0
1, 324456, Note_on_c, 1, 50, 127
1, 324760, Note_on_c, 1, 74, 127
1, 324858, Note_off_c, 1, 62, 0
1, 324858, Note_off_c, 1, 50, 0
1, 324860, Note_off_c, 1, 74, 0
1, 324860, Note_on_c, 1, 76, 127
1, 324960, Note_off_c, 1, 76, 0
1, 324962, Note_on_c, 1, 78, 127
1, 325062, Note_off_c, 1, 78, 0
1, 325062, Note_on_c, 1, 79, 127
1, 325264, Note_off_c, 1, 79, 0
1, 325266, Note_on_c, 1, 82, 127
1, 325366, Note_on_c, 1, 50, 127
1, 325466, Note_off_c, 1, 82, 0
1, 325466, Note_off_c, 1, 50, 0
1, 325468, Note_on_c, 1, 52, 127
1, 325468, Note_on_c, 1, 79, 127
1, 325568, Note_off_c, 1, 52, 0
1, 325568, Note_on_c, 1, 54, 127
1, 325668, Note_off_c, 1, 79, 0
1, 325668, Note_off_c, 1, 54, 0
1, 325670, Note_on_c, 1, 55, 127
1, 325670, Note_on_c, 1, 74, 127
1, 325872, Note_off_c, 1, 55, 0
1, 325872, Note_off_c, 1, 74, 0
1, 325872, Note_on_c, 1, 58, 127
1, 325872, Note_on_c, 1, 79, 127
1, 326074, Note_off_c, 1, 58, 0
1, 326074, Note_off_c, 1, 79, 0
1, 326076, Note_on_c, 1, 55, 127
1, 326076, Note_on_c, 1, 74, 127
1, 326278, Note_off_c, 1, 55, 0
1, 326278, Note_off_c, 1, 74, 0
1, 326278, Note_on_c, 1, 50, 127
1, 326278, Note_on_c, 1, 70, 127
1, 326480, Note_off_c, 1, 50, 0
1, 326480, Note_off_c, 1, 70, 0
1, 326482, Note_on_c, 1, 55, 127
1, 326482, Note_on_c, 1, 74, 127
1, 326684, Note_off_c, 1, 55, 0
1, 326684, Note_off_c, 1, 74, 0
1, 326684, Note_on_c, 1, 50, 127
1, 326684, Note_on_c, 1, 70, 127
1, 326886, Note_off_c, 1, 50, 0
1, 326886, Note_off_c, 1, 70, 0
1, 326888, Note_on_c, 1, 46, 127
1, 326888, Note_on_c, 1, 67, 127
1, 327090, Note_off_c, 1, 46, 0
1, 327090, Note_on_c, 1, 50, 127
1, 327142, Note_off_c, 1, 67, 0
1, 327192, Note_on_c, 1, 72, 127
1, 327292, Note_off_c, 1, 50, 0
1, 327292, Note_off_c, 1, 72, 0
1, 327294, Note_on_c, 1, 74, 127
1, 327294, Note_on_c, 1, 46, 127
1, 327394, Note_off_c, 1, 74, 0
1, 327394, Note_on_c, 1, 76, 127
1, 327494, Note_off_c, 1, 46, 0
1, 327494, Note_off_c, 1, 76, 0
1, 327496, Note_on_c, 1, 77, 127
1, 327496, Note_on_c, 1, 45, 127
1, 327698, Note_off_c, 1, 77, 0
1, 327698, Note_on_c, 1, 81, 127
1, 327790, Note_off_c, 1, 45, 0
1, 327800, Note_on_c, 1, 48, 127
1, 327898, Note_off_c, 1, 81, 0
1, 327900, Note_off_c, 1, 48, 0
1, 327900, Note_on_c, 1, 50, 127
1, 328000, Note_off_c, 1, 50, 0
1, 328002, Note_on_c, 1, 52, 127
1, 328102, Note_off_c, 1, 52, 0
1, 328102, Note_on_c, 1, 53, 127
1, 328102, Note_on_c, 1, 72, 127
1, 328304, Note_off_c, 1, 53, 0
1, 328304, Note_off_c, 1, 72, 0
1, 328306, Note_on_c, 1, 57, 127
1, 328306, Note_on_c, 1, 77, 127
1, 328508, Note_off_c, 1, 57, 0
1, 328508, Note_off_c, 1, 77, 0
1, 328508, Note_on_c, 1, 53, 127
1, 328508, Note_on_c, 1, 72, 127
1, 328710, Note_off_c, 1, 53, 0
1, 328710, Note_off_c, 1, 72, 0
1, 328712, Note_on_c, 1, 48, 127
1, 328712, Note_on_c, 1, 69, 127
1, 328914, Note_off_c, 1, 48, 0
1, 328914, Note_off_c, 1, 69, 0
1, 328914, Note_on_c, 1, 53, 127
1, 328914, Note_on_c, 1, 72, 127
1, 329116, Note_off_c, 1, 53, 0
1, 329116, Note_off_c, 1, 72, 0
1, 329118, Note_on_c, 1, 48, 127
1, 329118, Note_on_c, 1, 69, 127
1, 329320, Note_off_c, 1, 48, 0
1, 329320, Note_off_c, 1, 69, 0
1, 329320, Note_on_c, 1, 45, 127
1, 329320, Note_on_c, 1, 65, 127
1, 329522, Note_off_c, 1, 45, 0
1, 329574, Note_off_c, 1, 65, 0
1, 329626, Note_on_c, 1, 70, 127
1, 329726, Note_off_c, 1, 70, 0
1, 329726, Note_on_c, 1, 72, 127
1, 329826, Note_off_c, 1, 72, 0
1, 329828, Note_on_c, 1, 74, 127
1, 329928, Note_off_c, 1, 74, 0
1, 329928, Note_on_c, 1, 75, 127
1, 329928, Note_on_c, 1, 43, 127
1, 330130, Note_off_c, 1, 75, 0
1, 330132, Note_on_c, 1, 79, 127
1, 330222, Note_off_c, 1, 43, 0
1, 330232, Note_on_c, 1, 46, 127
1, 330332, Note_off_c, 1, 79, 0
1, 330332, Note_off_c, 1, 46, 0
1, 330334, Note_on_c, 1, 48, 127
1, 330334, Note_on_c, 1, 75, 127
1, 330434, Note_off_c, 1, 48, 0
1, 330434, Note_on_c, 1, 50, 127
1, 330534, Note_off_c, 1, 75, 0
1, 330534, Note_off_c, 1, 50, 0
1, 330536, Note_on_c, 1, 51, 127
1, 330536, Note_on_c, 1, 70, 127
1, 330738, Note_off_c, 1, 51, 0
1, 330738, Note_off_c, 1, 70, 0
1, 330738, Note_on_c, 1, 55, 127
1, 330738, Note_on_c, 1, 75, 127
1, 330940, Note_off_c, 1, 55, 0
1, 330940, Note_off_c, 1, 75, 0
1, 330942, Note_on_c, 1, 51, 127
1, 330942, Note_on_c, 1, 70, 127
1, 331144, Note_off_c, 1, 51, 0
1, 331144, Note_off_c, 1, 70, 0
1, 331144, Note_on_c, 1, 46, 127
1, 331144, Note_on_c, 1, 67, 127
1, 331346, Note_off_c, 1, 46, 0
1, 331346, Note_off_c, 1, 67, 0
1, 331348, Note_on_c, 1, 51, 127
1, 331348, Note_on_c, 1, 70, 127
1, 331550, Note_off_c, 1, 51, 0
1, 331550, Note_off_c, 1, 70, 0
1, 331550, Note_on_c, 1, 46, 127
1, 331550, Note_on_c, 1, 67, 127
1, 331752, Note_off_c, 1, 46, 0
1, 331752, Note_off_c, 1, 67, 0
1, 331754, Note_on_c, 1, 43, 127
1, 331754, Note_on_c, 1, 63, 127
1, 331956, Note_off_c, 1, 43, 0
1, 331956, Note_on_c, 1, 46, 127
1, 332158, Note_off_c, 1, 46, 0
1, 332160, Note_on_c, 1, 75, 127
1, 332356, Note_off_c, 1, 63, 0
1, 332362, Note_off_c, 1, 75, 0
1, 332362, Note_on_c, 1, 66, 127
1, 332362, Note_on_c, 1, 45, 127
1, 332564, Note_off_c, 1, 66, 0
1, 332566, Note_on_c, 1, 67, 127
1, 332766, Note_off_c, 1, 45, 0
1, 332768, Note_off_c, 1, 67, 0
1, 332972, Note_on_c, 1, 67, 127
1, 332972, Note_on_c, 1, 46, 127
1, 333174, Note_off_c, 1, 67, 0
1, 333174, Note_on_c, 1, 69, 127
1, 333376, Note_off_c, 1, 46, 0
1, 333376, Note_off_c, 1, 69, 0
1, 333378, Note_on_c, 1, 67, 127
1, 333580, Note_off_c, 1, 67, 0
1, 333580, Note_on_c, 1, 42, 127
1, 333580, Note_on_c, 1, 69, 127
1, 333782, Note_off_c, 1, 42, 0
1, 333782, Note_off_c, 1, 69, 0
1, 333784, Note_on_c, 1, 43, 127
1, 333784, Note_on_c, 1, 70, 127
1, 333986, Note_off_c, 1, 43, 0
1, 333986, Note_off_c, 1, 70, 0
1, 333986, Note_on_c, 1, 42, 127
1, 333986, Note_on_c, 1, 69, 127
1, 334188, Note_off_c, 1, 42, 0
1, 334188, Note_off_c, 1, 69, 0
1, 334190, Note_on_c, 1, 43, 127
1, 334190, Note_on_c, 1, 70, 127
1, 334392, Note_off_c, 1, 43, 0
1, 334392, Note_off_c, 1, 70, 0
1, 334392, Note_on_c, 1, 45, 127
1, 334392, Note_on_c, 1, 72, 127
1, 334594, Note_off_c, 1, 45, 0
1, 334594, Note_off_c, 1, 72, 0
1, 334596, Note_on_c, 1, 43, 127
1, 334596, Note_on_c, 1, 70, 127
1, 334798, Note_off_c, 1, 43, 0
1, 334798, Note_off_c, 1, 70, 0
1, 334798, Note_on_c, 1, 45, 127
1, 334798, Note_on_c, 1, 72, 127
1, 335000, Note_off_c, 1, 45, 0
1, 335000, Note_off_c, 1, 72, 0
1, 335002, Note_on_c, 1, 46, 127
1, 335002, Note_on_c, 1, 74, 127
1, 335204, Note_off_c, 1, 46, 0
1, 335204, Note_off_c, 1, 74, 0
1, 335204, Note_on_c, 1, 45, 127
1, 335204, Note_on_c, 1, 72, 127
1, 335406, Note_off_c, 1, 45, 0
1, 335406, Note_off_c, 1, 72, 0
1, 335408, Note_on_c, 1, 46, 127
1, 335408, Note_on_c, 1, 74, 127
1, 335610, Note_off_c, 1, 46, 0
1, 335610, Note_off_c, 1, 74, 0
1, 335610, Note_on_c, 1, 48, 127
1, 335610, Note_on_c, 1, 76, 127
1, 335812, Note_off_c, 1, 48, 0
1, 335812, Note_off_c, 1, 76, 0
1, 335814, Note_on_c, 1, 46, 127
1, 335814, Note_on_c, 1, 74, 127
1, 336016, Note_off_c, 1, 46, 0
1, 336016, Note_off_c, 1, 74, 0
1, 336016, Note_on_c, 1, 48, 127
1, 336016, Note_on_c, 1, 76, 127
1, 336218, Note_off_c, 1, 48, 0
1, 336218, Note_off_c, 1, 76, 0
1, 336220, Note_on_c, 1, 50, 127
1, 336220, Note_on_c, 1, 78, 127
1, 336422, Note_off_c, 1, 50, 0
1, 336422, Note_off_c, 1, 78, 0
1, 336422, Note_on_c, 1, 48, 127
1, 336422, Note_on_c, 1, 76, 127
1, 336612, Note_off_c, 1, 48, 0
1, 336622, Note_off_c, 1, 76, 0
1, 336624, Note_on_c, 1, 48, 127
1, 336624, Note_on_c, 1, 78, 127
1, 336826, Note_off_c, 1, 48, 0
1, 336826, Note_off_c, 1, 78, 0
1, 336828, Note_on_c, 1, 46, 127
1, 336828, Note_on_c, 1, 79, 127
1, 337030, Note_off_c, 1, 46, 0
1, 337030, Note_off_c, 1, 79, 0
1, 337030, Note_on_c, 1, 45, 127
1, 337030, Note_on_c, 1, 78, 127
1, 337232, Note_off_c, 1, 45, 0
1, 337232, Note_off_c, 1, 78, 0
1, 337234, Note_on_c, 1, 46, 127
1, 337234, Note_on_c, 1, 79, 127
1, 337436, Note_off_c, 1, 46, 0
1, 337436, Note_off_c, 1, 79, 0
1, 337436, Note_on_c, 1, 43, 127
1, 337436, Note_on_c, 1, 74, 127
1, 337638, Note_off_c, 1, 43, 0
1, 337638, Note_off_c, 1, 74, 0
1, 337640, Note_on_c, 1, 46, 127
1, 337640, Note_on_c, 1, 79, 127
1, 337842, Note_off_c, 1, 46, 0
1, 337842, Note_off_c, 1, 79, 0
1, 337842, Note_on_c, 1, 48, 127
1, 337842, Note_on_c, 1, 75, 127
1, 338044, Note_off_c, 1, 48, 0
1, 338044, Note_off_c, 1, 75, 0
1, 338046, Note_on_c, 1, 51, 127
1, 338046, Note_on_c, 1, 72, 127
1, 338248, Note_off_c, 1, 51, 0
1, 338248, Note_off_c, 1, 72, 0
1, 338248, Note_on_c, 1, 48, 127
1, 338248, Note_on_c, 1, 75, 127
1, 338450, Note_off_c, 1, 48, 0
1, 338450, Note_off_c, 1, 75, 0
1, 338452, Note_on_c, 1, 45, 127
1, 338452, Note_on_c, 1, 77, 127
1, 338654, Note_off_c, 1, 45, 0
1, 338654, Note_off_c, 1, 77, 0
1, 338654, Note_on_c, 1, 41, 127
1, 338654, Note_on_c, 1, 72, 127
1, 338856, Note_off_c, 1, 41, 0
1, 338856, Note_off_c, 1, 72, 0
1, 338858, Note_on_c, 1, 45, 127
1, 338858, Note_on_c, 1, 77, 127
1, 339060, Note_off_c, 1, 45, 0
1, 339060, Note_off_c, 1, 77, 0
1, 339060, Note_on_c, 1, 46, 127
1, 339060, Note_on_c, 1, 74, 127
1, 339262, Note_off_c, 1, 46, 0
1, 339262, Note_off_c, 1, 74, 0
1, 339264, Note_on_c, 1, 50, 127
1, 339264, Note_on_c, 1, 70, 127
1, 339466, Note_off_c, 1, 50, 0
1, 339466, Note_off_c, 1, 70, 0
1, 339466, Note_on_c, 1, 46, 127
1, 339466, Note_on_c, 1, 74, 127
1, 339668, Note_off_c, 1, 46, 0
1, 339668, Note_off_c, 1, 74, 0
1, 339670, Note_on_c, 1, 43, 127
1, 339670, Note_on_c, 1, 75, 127
1, 339872, Note_off_c, 1, 43, 0
1, 339872, Note_off_c, 1, 75, 0
1, 339872, Note_on_c, 1, 39, 127
1, 339872, Note_on_c, 1, 70, 127
1, 340074, Note_off_c, 1, 39, 0
1, 340074, Note_off_c, 1, 70, 0
1, 340076, Note_on_c, 1, 43, 127
1, 340076, Note_on_c, 1, 75, 127
1, 340278, Note_off_c, 1, 43, 0
1, 340278, Note_off_c, 1, 75, 0
1, 340278, Note_on_c, 1, 45, 127
1, 340278, Note_on_c, 1, 72, 127
1, 340480, Note_off_c, 1, 45, 0
1, 340480, Note_off_c, 1, 72, 0
1, 340482, Note_on_c, 1, 48, 127
1, 340482, Note_on_c, 1, 69, 127
1, 340684, Note_off_c, 1, 48, 0
1, 340684, Note_off_c, 1, 69, 0
1, 340684, Note_on_c, 1, 45, 127
1, 340684, Note_on_c, 1, 72, 127
1, 340886, Note_off_c, 1, 45, 0
1, 340886, Note_off_c, 1, 72, 0
1, 340888, Note_on_c, 1, 42, 127
1, 340888, Note_on_c, 1, 74, 127
1, 341090, Note_off_c, 1, 42, 0
1, 341090, Note_off_c, 1, 74, 0
1, 341090, Note_on_c, 1, 38, 127
1, 341090, Note_on_c, 1, 69, 127
1, 341292, Note_off_c, 1, 38, 0
1, 341292, Note_off_c, 1, 69, 0
1, 341294, Note_on_c, 1, 42, 127
1, 341294, Note_on_c, 1, 74, 127
1, 341496, Note_off_c, 1, 42, 0
1, 341496, Note_off_c, 1, 74, 0
1, 341496, Note_on_c, 1, 43, 127
1, 341496, Note_on_c, 1, 70, 127
1, 341698, Note_off_c, 1, 43, 0
1, 341698, Note_off_c, 1, 70, 0
1, 341700, Note_on_c, 1, 46, 127
1, 341700, Note_on_c, 1, 67, 127
1, 341902, Note_off_c, 1, 46, 0
1, 341902, Note_off_c, 1, 67, 0
1, 341902, Note_on_c, 1, 43, 127
1, 341902, Note_on_c, 1, 70, 127
1, 342104, Note_off_c, 1, 43, 0
1, 342104, Note_off_c, 1, 70, 0
1, 342106, Note_on_c, 1, 72, 127
1, 342106, Note_on_c, 1, 39, 127
1, 342308, Note_off_c, 1, 72, 0
1, 342308, Note_on_c, 1, 74, 127
1, 342510, Note_off_c, 1, 39, 0
1, 342510, Note_off_c, 1, 74, 0
1, 342512, Note_on_c, 1, 51, 127
1, 342512, Note_on_c, 1, 72, 127
1, 342714, Note_off_c, 1, 51, 0
1, 342714, Note_off_c, 1, 72, 0
1, 342714, Note_on_c, 1, 69, 127
1, 342714, Note_on_c, 1, 48, 127
1, 342916, Note_off_c, 1, 69, 0
1, 342918, Note_on_c, 1, 70, 127
1, 343118, Note_off_c, 1, 48, 0
1, 343120, Note_off_c, 1, 70, 0
1, 343324, Note_on_c, 1, 72, 127
1, 343324, Note_on_c, 1, 45, 127
1, 343526, Note_off_c, 1, 72, 0
1, 343526, Note_on_c, 1, 74, 127
1, 343728, Note_off_c, 1, 45, 0
1, 343728, Note_off_c, 1, 74, 0
1, 343730, Note_on_c, 1, 48, 127
1, 343730, Note_on_c, 1, 72, 127
1, 343932, Note_off_c, 1, 48, 0
1, 343932, Note_off_c, 1, 72, 0
1, 343932, Note_on_c, 1, 69, 127
1, 343932, Note_on_c, 1, 42, 127
1, 344134, Note_off_c, 1, 69, 0
1, 344136, Note_on_c, 1, 70, 127
1, 344336, Note_off_c, 1, 42, 0
1, 344338, Note_off_c, 1, 70, 0
1, 344338, Note_on_c, 1, 45, 127
1, 344540, Note_off_c, 1, 45, 0
1, 344542, Note_on_c, 1, 38, 127
1, 344542, Note_on_c, 1, 72, 127
1, 344744, Note_off_c, 1, 38, 0
1, 344744, Note_off_c, 1, 72, 0
1, 344744, Note_on_c, 1, 42, 127
1, 344744, Note_on_c, 1, 74, 127
1, 344946, Note_off_c, 1, 42, 0
1, 344946, Note_off_c, 1, 74, 0
1, 344948, Note_on_c, 1, 45, 127
1, 344948, Note_on_c, 1, 72, 127
1, 345150, Note_off_c, 1, 45, 0
1, 345150, Note_off_c, 1, 72, 0
1, 345150, Note_on_c, 1, 50, 127
1, 345150, Note_on_c, 1, 66, 127
1, 345352, Note_off_c, 1, 50, 0
1, 345352, Note_off_c, 1, 66, 0
1, 345354, Note_on_c, 1, 54, 127
1, 345354, Note_on_c, 1, 67, 127
1, 345556, Note_off_c, 1, 54, 0
1, 345556, Note_off_c, 1, 67, 0
1, 345556, Note_on_c, 1, 57, 127
1, 345556, Note_on_c, 1, 66, 127
1, 345758, Note_off_c, 1, 57, 0
1, 345758, Note_off_c, 1, 66, 0
1, 345760, Note_on_c, 1, 62, 127
1, 345760, Note_on_c, 1, 72, 127
1, 345962, Note_off_c, 1, 62, 0
1, 345962, Note_off_c, 1, 72, 0
1, 345962, Note_on_c, 1, 57, 127
1, 345962, Note_on_c, 1, 74, 127
1, 346164, Note_off_c, 1, 57, 0
1, 346164, Note_off_c, 1, 74, 0
1, 346166, Note_on_c, 1, 54, 127
1, 346166, Note_on_c, 1, 72, 127
1, 346368, Note_off_c, 1, 54, 0
1, 346368, Note_off_c, 1, 72, 0
1, 346368, Note_on_c, 1, 50, 127
1, 346368, Note_on_c, 1, 66, 127
1, 346570, Note_off_c, 1, 50, 0
1, 346570, Note_off_c, 1, 66, 0
1, 346572, Note_on_c, 1, 45, 127
1, 346572, Note_on_c, 1, 67, 127
1, 346774, Note_off_c, 1, 45, 0
1, 346774, Note_off_c, 1, 67, 0
1, 346774, Note_on_c, 1, 42, 127
1, 346774, Note_on_c, 1, 66, 127
1, 346976, Note_off_c, 1, 42, 0
1, 346976, Note_off_c, 1, 66, 0
1, 346978, Note_on_c, 1, 75, 127
1, 346978, Note_on_c, 1, 36, 127
1, 347180, Note_off_c, 1, 75, 0
1, 347180, Note_on_c, 1, 74, 127
1, 347382, Note_off_c, 1, 74, 0
1, 347384, Note_on_c, 1, 72, 127
1, 347518, Note_off_c, 1, 36, 0
1, 347586, Note_on_c, 1, 51, 127
1, 347788, Note_off_c, 1, 72, 0
1, 347788, Note_off_c, 1, 51, 0
1, 347790, Note_on_c, 1, 50, 127
1, 347790, Note_on_c, 1, 70, 127
1, 347992, Note_off_c, 1, 50, 0
1, 347992, Note_off_c, 1, 70, 0
1, 347992, Note_on_c, 1, 48, 127
1, 347992, Note_on_c, 1, 69, 127
1, 348194, Note_off_c, 1, 48, 0
1, 348194, Note_off_c, 1, 69, 0
1, 348196, Note_on_c, 1, 48, 127
1, 348196, Note_on_c, 1, 75, 127
1, 348398, Note_off_c, 1, 48, 0
1, 348398, Note_off_c, 1, 75, 0
1, 348398, Note_on_c, 1, 46, 127
1, 348398, Note_on_c, 1, 74, 127
1, 348600, Note_off_c, 1, 46, 0
1, 348600, Note_off_c, 1, 74, 0
1, 348602, Note_on_c, 1, 45, 127
1, 348602, Note_on_c, 1, 72, 127
1, 348804, Note_off_c, 1, 45, 0
1, 348804, Note_on_c, 1, 51, 127
1, 349006, Note_off_c, 1, 72, 0
1, 349006, Note_off_c, 1, 51, 0
1, 349008, Note_on_c, 1, 50, 127
1, 349008, Note_on_c, 1, 70, 127
1, 349210, Note_off_c, 1, 50, 0
1, 349210, Note_off_c, 1, 70, 0
1, 349210, Note_on_c, 1, 48, 127
1, 349210, Note_on_c, 1, 69, 127
1, 349412, Note_off_c, 1, 48, 0
1, 349412, Note_off_c, 1, 69, 0
1, 349414, Note_on_c, 1, 78, 127
1, 349414, Note_on_c, 1, 60, 127
1, 349616, Note_off_c, 1, 78, 0
1, 349616, Note_on_c, 1, 76, 127
1, 349818, Note_off_c, 1, 76, 0
1, 349820, Note_on_c, 1, 74, 127
1, 350022, Note_off_c, 1, 74, 0
1, 350326, Note_off_c, 1, 60, 0
1, 350428, Note_on_c, 1, 48, 127
1, 350428, Note_on_c, 1, 74, 127
1, 350630, Note_off_c, 1, 48, 0
1, 350630, Note_off_c, 1, 74, 0
1, 350630, Note_on_c, 1, 46, 127
1, 350630, Note_on_c, 1, 79, 127
1, 350832, Note_off_c, 1, 46, 0
1, 350834, Note_on_c, 1, 45, 127
1, 351034, Note_off_c, 1, 79, 0
1, 351036, Note_off_c, 1, 45, 0
1, 351036, Note_on_c, 1, 43, 127
1, 351036, Note_on_c, 1, 70, 127
1, 351238, Note_off_c, 1, 43, 0
1, 351238, Note_off_c, 1, 70, 0
1, 351240, Note_on_c, 1, 70, 127
1, 351240, Note_on_c, 1, 50, 127
1, 351306, Note_off_c, 1, 70, 0
1, 351306, Note_on_c, 1, 69, 127
1, 351372, Note_off_c, 1, 69, 0
1, 351646, Note_off_c, 1, 50, 0
1, 351646, Note_on_c, 1, 38, 127
1, 351646, Note_on_c, 1, 67, 127
1, 351848, Note_off_c, 1, 38, 0
1, 351848, Note_off_c, 1, 67, 0
1, 351850, Note_on_c, 1, 67, 127
1, 351850, Note_on_c, 1, 43, 127
1, 352152, Note_off_c, 1, 67, 0
1, 352154, Note_on_c, 1, 69, 127
1, 352254, Note_off_c, 1, 69, 0
1, 352458, Note_on_c, 1, 70, 127
1, 352610, Note_off_c, 1, 43, 0
1, 352760, Note_off_c, 1, 70, 0
1, 352762, Note_on_c, 1, 72, 127
1, 352862, Note_off_c, 1, 72, 0
1, 352862, Note_on_c, 1, 55, 127
1, 352862, Note_on_c, 1, 70, 127
1, 353064, Note_off_c, 1, 55, 0
1, 353064, Note_off_c, 1, 70, 0
1, 353066, Note_on_c, 1, 54, 127
1, 353066, Note_on_c, 1, 74, 127
1, 353268, Note_off_c, 1, 54, 0
1, 353268, Note_on_c, 1, 57, 127
1, 353470, Note_off_c, 1, 74, 0
1, 353470, Note_off_c, 1, 57, 0
1, 353472, Note_on_c, 1, 54, 127
1, 353472, Note_on_c, 1, 62, 127
1, 353674, Note_off_c, 1, 54, 0
1, 353674, Note_on_c, 1, 50, 127
1, 353876, Note_off_c, 1, 50, 0
1, 354078, Note_off_c, 1, 62, 0
1, 354284, Note_on_c, 1, 46, 127
1, 354284, Note_on_c, 1, 67, 127
1, 354486, Note_off_c, 1, 46, 0
1, 354486, Note_on_c, 1, 50, 127
1, 354586, Note_off_c, 1, 67, 0
1, 354588, Note_on_c, 1, 69, 127
1, 354686, Note_off_c, 1, 50, 0
1, 354688, Note_off_c, 1, 69, 0
1, 354892, Note_on_c, 1, 43, 127
1, 354892, Note_on_c, 1, 70, 127
1, 355094, Note_off_c, 1, 43, 0
1, 355094, Note_on_c, 1, 46, 127
1, 355194, Note_off_c, 1, 70, 0
1, 355196, Note_on_c, 1, 72, 127
1, 355294, Note_off_c, 1, 46, 0
1, 355296, Note_off_c, 1, 72, 0
1, 355500, Note_on_c, 1, 42, 127
1, 355500, Note_on_c, 1, 74, 127
1, 355702, Note_off_c, 1, 42, 0
1, 355702, Note_on_c, 1, 45, 127
1, 355904, Note_off_c, 1, 74, 0
1, 355904, Note_off_c, 1, 45, 0
1, 355906, Note_on_c, 1, 42, 127
1, 355906, Note_on_c, 1, 62, 127
1, 356108, Note_off_c, 1, 42, 0
1, 356108, Note_on_c, 1, 38, 127
1, 356310, Note_off_c, 1, 38, 0
1, 356312, Note_on_c, 1, 50, 127
1, 356512, Note_off_c, 1, 62, 0
1, 356514, Note_off_c, 1, 50, 0
1, 356514, Note_on_c, 1, 70, 127
1, 356514, Note_on_c, 1, 48, 127
1, 356614, Note_off_c, 1, 70, 0
1, 356616, Note_on_c, 1, 72, 127
1, 356714, Note_off_c, 1, 48, 0
1, 356716, Note_off_c, 1, 72, 0
1, 356716, Note_on_c, 1, 74, 127
1, 356716, Note_on_c, 1, 46, 127
1, 357018, Note_off_c, 1, 74, 0
1, 357020, Note_on_c, 1, 75, 127
1, 357120, Note_off_c, 1, 46, 0
1, 357120, Note_off_c, 1, 75, 0
1, 357122, Note_on_c, 1, 74, 127
1, 357324, Note_off_c, 1, 74, 0
1, 357324, Note_on_c, 1, 77, 127
1, 357626, Note_off_c, 1, 77, 0
1, 357628, Note_on_c, 1, 46, 127
1, 357628, Note_on_c, 1, 79, 127
1, 357728, Note_off_c, 1, 46, 0
1, 357728, Note_off_c, 1, 79, 0
1, 357730, Note_on_c, 1, 48, 127
1, 357730, Note_on_c, 1, 77, 127
1, 357932, Note_off_c, 1, 48, 0
1, 357932, Note_off_c, 1, 77, 0
1, 357932, Note_on_c, 1, 50, 127
1, 357932, Note_on_c, 1, 82, 127
1, 358234, Note_off_c, 1, 50, 0
1, 358236, Note_on_c, 1, 51, 127
1, 358336, Note_off_c, 1, 82, 0
1, 358336, Note_off_c, 1, 51, 0
1, 358338, Note_on_c, 1, 50, 127
1, 358338, Note_on_c, 1, 70, 127
1, 358540, Note_off_c, 1, 50, 0
1, 358540, Note_on_c, 1, 53, 127
1, 358842, Note_off_c, 1, 53, 0
1, 358844, Note_on_c, 1, 55, 127
1, 358944, Note_off_c, 1, 70, 0
1, 358944, Note_off_c, 1, 55, 0
1, 358946, Note_on_c, 1, 70, 127
1, 358946, Note_on_c, 1, 53, 127
1, 359046, Note_off_c, 1, 70, 0
1, 359046, Note_on_c, 1, 72, 127
1, 359146, Note_off_c, 1, 53, 0
1, 359146, Note_off_c, 1, 72, 0
1, 359148, Note_on_c, 1, 58, 127
1, 359148, Note_on_c, 1, 74, 127
1, 359350, Note_off_c, 1, 58, 0
1, 359350, Note_on_c, 1, 53, 127
1, 359450, Note_off_c, 1, 74, 0
1, 359452, Note_on_c, 1, 75, 127
1, 359550, Note_off_c, 1, 53, 0
1, 359552, Note_off_c, 1, 75, 0
1, 359552, Note_on_c, 1, 50, 127
1, 359754, Note_off_c, 1, 50, 0
1, 359756, Note_on_c, 1, 46, 127
1, 359756, Note_on_c, 1, 77, 127
1, 359958, Note_off_c, 1, 46, 0
1, 359958, Note_on_c, 1, 50, 127
1, 360058, Note_off_c, 1, 77, 0
1, 360060, Note_on_c, 1, 79, 127
1, 360158, Note_off_c, 1, 50, 0
1, 360160, Note_off_c, 1, 79, 0
1, 360364, Note_on_c, 1, 43, 127
1, 360364, Note_on_c, 1, 82, 127
1, 360566, Note_off_c, 1, 43, 0
1, 360566, Note_on_c, 1, 46, 127
1, 360768, Note_off_c, 1, 82, 0
1, 360768, Note_off_c, 1, 46, 0
1, 360770, Note_on_c, 1, 43, 127
1, 360770, Note_on_c, 1, 70, 127
1, 360972, Note_off_c, 1, 43, 0
1, 360972, Note_on_c, 1, 40, 127
1, 361174, Note_off_c, 1, 40, 0
1, 361376, Note_off_c, 1, 70, 0
1, 361378, Note_on_c, 1, 79, 127
1, 361580, Note_off_c, 1, 79, 0
1, 361582, Note_on_c, 1, 73, 127
1, 361582, Note_on_c, 1, 45, 127
1, 361884, Note_off_c, 1, 73, 0
1, 361886, Note_on_c, 1, 74, 127
1, 361986, Note_off_c, 1, 74, 0
1, 362184, Note_off_c, 1, 45, 0
1, 362190, Note_on_c, 1, 76, 127
1, 362492, Note_off_c, 1, 76, 0
1, 362494, Note_on_c, 1, 77, 127
1, 362594, Note_off_c, 1, 77, 0
1, 362594, Note_on_c, 1, 57, 127
1, 362594, Note_on_c, 1, 76, 127
1, 362796, Note_off_c, 1, 57, 0
1, 362796, Note_off_c, 1, 76, 0
1, 362798, Note_on_c, 1, 53, 127
1, 362798, Note_on_c, 1, 81, 127
1, 363000, Note_off_c, 1, 53, 0
1, 363000, Note_on_c, 1, 57, 127
1, 363202, Note_off_c, 1, 81, 0
1, 363202, Note_off_c, 1, 57, 0
1, 363204, Note_on_c, 1, 53, 127
1, 363204, Note_on_c, 1, 69, 127
1, 363406, Note_off_c, 1, 53, 0
1, 363406, Note_on_c, 1, 50, 127
1, 363608, Note_off_c, 1, 50, 0
1, 363810, Note_off_c, 1, 69, 0
1, 364016, Note_on_c, 1, 70, 127
1, 364016, Note_on_c, 1, 43, 127
1, 364318, Note_off_c, 1, 70, 0
1, 364320, Note_on_c, 1, 72, 127
1, 364420, Note_off_c, 1, 72, 0
1, 364618, Note_off_c, 1, 43, 0
1, 364624, Note_on_c, 1, 74, 127
1, 364926, Note_off_c, 1, 74, 0
1, 364928, Note_on_c, 1, 75, 127
1, 365028, Note_off_c, 1, 75, 0
1, 365028, Note_on_c, 1, 55, 127
1, 365028, Note_on_c, 1, 74, 127
1, 365230, Note_off_c, 1, 55, 0
1, 365230, Note_off_c, 1, 74, 0
1, 365232, Note_on_c, 1, 51, 127
1, 365232, Note_on_c, 1, 79, 127
1, 365434, Note_off_c, 1, 51, 0
1, 365434, Note_on_c, 1, 55, 127
1, 365636, Note_off_c, 1, 79, 0
1, 365636, Note_off_c, 1, 55, 0
1, 365638, Note_on_c, 1, 51, 127
1, 365638, Note_on_c, 1, 67, 127
1, 365840, Note_off_c, 1, 51, 0
1, 365840, Note_on_c, 1, 48, 127
1, 366042, Note_off_c, 1, 48, 0
1, 366244, Note_off_c, 1, 67, 0
1, 366450, Note_on_c, 1, 69, 127
1, 366450, Note_on_c, 1, 41, 127
1, 366752, Note_off_c, 1, 69, 0
1, 366754, Note_on_c, 1, 70, 127
1, 366854, Note_off_c, 1, 70, 0
1, 367058, Note_on_c, 1, 72, 127
1, 367210, Note_off_c, 1, 41, 0
1, 367360, Note_off_c, 1, 72, 0
1, 367362, Note_on_c, 1, 74, 127
1, 367462, Note_off_c, 1, 74, 0
1, 367462, Note_on_c, 1, 53, 127
1, 367462, Note_on_c, 1, 72, 127
1, 367664, Note_off_c, 1, 53, 0
1, 367664, Note_off_c, 1, 72, 0
1, 367666, Note_on_c, 1, 50, 127
1, 367666, Note_on_c, 1, 77, 127
1, 367868, Note_off_c, 1, 50, 0
1, 367868, Note_on_c, 1, 53, 127
1, 368070, Note_off_c, 1, 77, 0
1, 368070, Note_off_c, 1, 53, 0
1, 368072, Note_on_c, 1, 50, 127
1, 368072, Note_on_c, 1, 65, 127
1, 368274, Note_off_c, 1, 50, 0
1, 368274, Note_on_c, 1, 46, 127
1, 368476, Note_off_c, 1, 46, 0
1, 368678, Note_off_c, 1, 65, 0
1, 368884, Note_on_c, 1, 67, 127
1, 368884, Note_on_c, 1, 39, 127
1, 369186, Note_off_c, 1, 67, 0
1, 369188, Note_on_c, 1, 69, 127
1, 369288, Note_off_c, 1, 69, 0
1, 369644, Note_off_c, 1, 39, 0
1, 369796, Note_on_c, 1, 70, 127
1, 369896, Note_off_c, 1, 70, 0
1, 369896, Note_on_c, 1, 51, 127
1, 369896, Note_on_c, 1, 69, 127
1, 370098, Note_off_c, 1, 51, 0
1, 370098, Note_off_c, 1, 69, 0
1, 370100, Note_on_c, 1, 50, 127
1, 370100, Note_on_c, 1, 70, 127
1, 370302, Note_off_c, 1, 50, 0
1, 370302, Note_on_c, 1, 55, 127
1, 370504, Note_off_c, 1, 70, 0
1, 370504, Note_off_c, 1, 55, 0
1, 370506, Note_on_c, 1, 51, 127
1, 370506, Note_on_c, 1, 72, 127
1, 370708, Note_off_c, 1, 51, 0
1, 370708, Note_off_c, 1, 72, 0
1, 370708, Note_on_c, 1, 70, 127
1, 370708, Note_on_c, 1, 53, 127
1, 370774, Note_off_c, 1, 70, 0
1, 370776, Note_on_c, 1, 69, 127
1, 370842, Note_off_c, 1, 69, 0
1, 370910, Note_off_c, 1, 53, 0
1, 370912, Note_on_c, 1, 51, 127
1, 370912, Note_on_c, 1, 69, 127
1, 371114, Note_off_c, 1, 51, 0
1, 371116, Note_off_c, 1, 69, 0
1, 371116, Note_on_c, 1, 53, 127
1, 371116, Note_on_c, 1, 70, 127
1, 371318, Note_off_c, 1, 53, 0
1, 371318, Note_on_c, 1, 46, 127
1, 371520, Note_on_c, 1, 82, 127
1, 371722, Note_off_c, 1, 70, 0
1, 371722, Note_off_c, 1, 82, 0
1, 371724, Note_on_c, 1, 77, 127
1, 371926, Note_off_c, 1, 77, 0
1, 371926, Note_on_c, 1, 74, 127
1, 372128, Note_off_c, 1, 74, 0
1, 372228, Note_off_c, 1, 46, 0
1, 372332, Note_on_c, 1, 50, 127
1, 372332, Note_on_c, 1, 77, 127
1, 372534, Note_off_c, 1, 50, 0
1, 372534, Note_off_c, 1, 77, 0
1, 372534, Note_on_c, 1, 74, 127
1, 372534, Note_on_c, 1, 55, 127
1, 372736, Note_off_c, 1, 74, 0
1, 372738, Note_on_c, 1, 82, 127
1, 372938, Note_off_c, 1, 55, 0
1, 372940, Note_off_c, 1, 82, 0
1, 373144, Note_on_c, 1, 74, 127
1, 373144, Note_on_c, 1, 58, 127
1, 373346, Note_off_c, 1, 74, 0
1, 373346, Note_on_c, 1, 82, 127
1, 373446, Note_off_c, 1, 58, 0
1, 373448, Note_on_c, 1, 57, 127
1, 373546, Note_off_c, 1, 82, 0
1, 373548, Note_off_c, 1, 57, 0
1, 373548, Note_on_c, 1, 55, 127
1, 373750, Note_off_c, 1, 55, 0
1, 373752, Note_on_c, 1, 72, 127
1, 373752, Note_on_c, 1, 60, 127
1, 373954, Note_off_c, 1, 72, 0
1, 373954, Note_on_c, 1, 82, 127
1, 374156, Note_off_c, 1, 60, 0
1, 374156, Note_off_c, 1, 82, 0
1, 374158, Note_on_c, 1, 48, 127
1, 374158, Note_on_c, 1, 75, 127
1, 374360, Note_off_c, 1, 75, 0
1, 374360, Note_on_c, 1, 72, 127
1, 374562, Note_off_c, 1, 72, 0
1, 374564, Note_on_c, 1, 82, 127
1, 374764, Note_off_c, 1, 48, 0
1, 374766, Note_off_c, 1, 82, 0
1, 374970, Note_on_c, 1, 72, 127
1, 374970, Note_on_c, 1, 53, 127
1, 375172, Note_off_c, 1, 72, 0
1, 375172, Note_on_c, 1, 81, 127
1, 375374, Note_off_c, 1, 53, 0
1, 375374, Note_off_c, 1, 81, 0
1, 375376, Note_on_c, 1, 53, 127
1, 375376, Note_on_c, 1, 75, 127
1, 375578, Note_off_c, 1, 53, 0
1, 375578, Note_off_c, 1, 75, 0
1, 375578, Note_on_c, 1, 72, 127
1, 375578, Note_on_c, 1, 57, 127
1, 375780, Note_off_c, 1, 72, 0
1, 375782, Note_on_c, 1, 81, 127
1, 375880, Note_off_c, 1, 57, 0
1, 375882, Note_on_c, 1, 55, 127
1, 375982, Note_off_c, 1, 81, 0
1, 375982, Note_off_c, 1, 55, 0
1, 375984, Note_on_c, 1, 53, 127
1, 375984, Note_on_c, 1, 72, 127
1, 376186, Note_off_c, 1, 53, 0
1, 376186, Note_off_c, 1, 72, 0
1, 376186, Note_on_c, 1, 70, 127
1, 376186, Note_on_c, 1, 58, 127
1, 376388, Note_off_c, 1, 70, 0
1, 376390, Note_on_c, 1, 81, 127
1, 376590, Note_off_c, 1, 58, 0
1, 376592, Note_off_c, 1, 81, 0
1, 376592, Note_on_c, 1, 46, 127
1, 376592, Note_on_c, 1, 74, 127
1, 376794, Note_off_c, 1, 46, 0
1, 376794, Note_off_c, 1, 74, 0
1, 376796, Note_on_c, 1, 70, 127
1, 376796, Note_on_c, 1, 46, 127
1, 376998, Note_off_c, 1, 70, 0
1, 376998, Note_on_c, 1, 81, 127
1, 377200, Note_off_c, 1, 46, 0
1, 377200, Note_off_c, 1, 81, 0
1, 377202, Note_on_c, 1, 46, 127
1, 377202, Note_on_c, 1, 74, 127
1, 377404, Note_off_c, 1, 46, 0
1, 377404, Note_off_c, 1, 74, 0
1, 377404, Note_on_c, 1, 70, 127
1, 377404, Note_on_c, 1, 51, 127
1, 377606, Note_off_c, 1, 70, 0
1, 377608, Note_on_c, 1, 79, 127
1, 377808, Note_off_c, 1, 51, 0
1, 377810, Note_off_c, 1, 79, 0
1, 378014, Note_on_c, 1, 70, 127
1, 378014, Note_on_c, 1, 55, 127
1, 378216, Note_off_c, 1, 70, 0
1, 378216, Note_on_c, 1, 79, 127
1, 378316, Note_off_c, 1, 55, 0
1, 378318, Note_on_c, 1, 53, 127
1, 378416, Note_off_c, 1, 79, 0
1, 378418, Note_off_c, 1, 53, 0
1, 378418, Note_on_c, 1, 51, 127
1, 378620, Note_off_c, 1, 51, 0
1, 378622, Note_on_c, 1, 69, 127
1, 378622, Note_on_c, 1, 57, 127
1, 378824, Note_off_c, 1, 69, 0
1, 378824, Note_on_c, 1, 79, 127
1, 379026, Note_off_c, 1, 57, 0
1, 379026, Note_off_c, 1, 79, 0
1, 379028, Note_on_c, 1, 45, 127
1, 379028, Note_on_c, 1, 72, 127
1, 379230, Note_off_c, 1, 72, 0
1, 379230, Note_on_c, 1, 69, 127
1, 379432, Note_off_c, 1, 69, 0
1, 379434, Note_on_c, 1, 79, 127
1, 379634, Note_off_c, 1, 45, 0
1, 379636, Note_off_c, 1, 79, 0
1, 379840, Note_on_c, 1, 69, 127
1, 379840, Note_on_c, 1, 50, 127
1, 380042, Note_off_c, 1, 69, 0
1, 380042, Note_on_c, 1, 77, 127
1, 380244, Note_off_c, 1, 50, 0
1, 380244, Note_off_c, 1, 77, 0
1, 380246, Note_on_c, 1, 50, 127
1, 380246, Note_on_c, 1, 72, 127
1, 380448, Note_off_c, 1, 50, 0
1, 380448, Note_off_c, 1, 72, 0
1, 380448, Note_on_c, 1, 69, 127
1, 380448, Note_on_c, 1, 53, 127
1, 380650, Note_off_c, 1, 69, 0
1, 380652, Note_on_c, 1, 77, 127
1, 380750, Note_off_c, 1, 53, 0
1, 380752, Note_on_c, 1, 51, 127
1, 380852, Note_off_c, 1, 77, 0
1, 380852, Note_off_c, 1, 51, 0
1, 380854, Note_on_c, 1, 50, 127
1, 380854, Note_on_c, 1, 69, 127
1, 381056, Note_off_c, 1, 50, 0
1, 381056, Note_off_c, 1, 69, 0
1, 381056, Note_on_c, 1, 67, 127
1, 381056, Note_on_c, 1, 55, 127
1, 381258, Note_off_c, 1, 67, 0
1, 381260, Note_on_c, 1, 77, 127
1, 381460, Note_off_c, 1, 55, 0
1, 381462, Note_off_c, 1, 77, 0
1, 381462, Note_on_c, 1, 43, 127
1, 381462, Note_on_c, 1, 70, 127
1, 381664, Note_off_c, 1, 43, 0
1, 381664, Note_off_c, 1, 70, 0
1, 381666, Note_on_c, 1, 67, 127
1, 381666, Note_on_c, 1, 43, 127
1, 381868, Note_off_c, 1, 67, 0
1, 381868, Note_on_c, 1, 77, 127
1, 382070, Note_off_c, 1, 43, 0
1, 382070, Note_off_c, 1, 77, 0
1, 382072, Note_on_c, 1, 43, 127
1, 382072, Note_on_c, 1, 70, 127
1, 382274, Note_off_c, 1, 43, 0
1, 382274, Note_off_c, 1, 70, 0
1, 382274, Note_on_c, 1, 67, 127
1, 382274, Note_on_c, 1, 48, 127
1, 382476, Note_off_c, 1, 67, 0
1, 382478, Note_on_c, 1, 75, 127
1, 382678, Note_off_c, 1, 48, 0
1, 382680, Note_off_c, 1, 75, 0
1, 382884, Note_on_c, 1, 67, 127
1, 382884, Note_on_c, 1, 51, 127
1, 383086, Note_off_c, 1, 67, 0
1, 383086, Note_on_c, 1, 75, 127
1, 383186, Note_off_c, 1, 51, 0
1, 383188, Note_on_c, 1, 50, 127
1, 383286, Note_off_c, 1, 75, 0
1, 383288, Note_off_c, 1, 50, 0
1, 383288, Note_on_c, 1, 48, 127
1, 383490, Note_off_c, 1, 48, 0
1, 383492, Note_on_c, 1, 65, 127
1, 383492, Note_on_c, 1, 53, 127
1, 383694, Note_off_c, 1, 65, 0
1, 383694, Note_on_c, 1, 75, 127
1, 383896, Note_off_c, 1, 53, 0
1, 383896, Note_off_c, 1, 75, 0
1, 383898, Note_on_c, 1, 41, 127
1, 383898, Note_on_c, 1, 69, 127
1, 384100, Note_off_c, 1, 69, 0
1, 384100, Note_on_c, 1, 65, 127
1, 384302, Note_off_c, 1, 65, 0
1, 384304, Note_on_c, 1, 75, 127
1, 384504, Note_off_c, 1, 41, 0
1, 384506, Note_off_c, 1, 75, 0
1, 384710, Note_on_c, 1, 65, 127
1, 384710, Note_on_c, 1, 46, 127
1, 384912, Note_off_c, 1, 65, 0
1, 384912, Note_on_c, 1, 74, 127
1, 385114, Note_off_c, 1, 46, 0
1, 385114, Note_off_c, 1, 74, 0
1, 385116, Note_on_c, 1, 46, 127
1, 385116, Note_on_c, 1, 70, 127
1, 385318, Note_off_c, 1, 46, 0
1, 385318, Note_off_c, 1, 70, 0
1, 385318, Note_on_c, 1, 65, 127
1, 385318, Note_on_c, 1, 50, 127
1, 385520, Note_off_c, 1, 65, 0
1, 385522, Note_on_c, 1, 74, 127
1, 385620, Note_off_c, 1, 50, 0
1, 385622, Note_on_c, 1, 48, 127
1, 385722, Note_off_c, 1, 74, 0
1, 385722, Note_off_c, 1, 48, 0
1, 385724, Note_on_c, 1, 46, 127
1, 385724, Note_on_c, 1, 65, 127
1, 385926, Note_off_c, 1, 46, 0
1, 385926, Note_off_c, 1, 65, 0
1, 385926, Note_on_c, 1, 67, 127
1, 385926, Note_on_c, 1, 51, 127
1, 386128, Note_off_c, 1, 67, 0
1, 386130, Note_on_c, 1, 69, 127
1, 386330, Note_off_c, 1, 51, 0
1, 386332, Note_off_c, 1, 69, 0
1, 386332, Note_on_c, 1, 39, 127
1, 386332, Note_on_c, 1, 70, 127
1, 386534, Note_off_c, 1, 39, 0
1, 386534, Note_off_c, 1, 70, 0
1, 386536, Note_on_c, 1, 69, 127
1, 386536, Note_on_c, 1, 39, 127
1, 386738, Note_off_c, 1, 69, 0
1, 386738, Note_on_c, 1, 70, 127
1, 386940, Note_off_c, 1, 39, 0
1, 386940, Note_off_c, 1, 70, 0
1, 386942, Note_on_c, 1, 51, 127
1, 386942, Note_on_c, 1, 72, 127
1, 387144, Note_off_c, 1, 51, 0
1, 387144, Note_off_c, 1, 72, 0
1, 387144, Note_on_c, 1, 50, 127
1, 387144, Note_on_c, 1, 70, 127
1, 387346, Note_off_c, 1, 50, 0
1, 387346, Note_off_c, 1, 70, 0
1, 387348, Note_on_c, 1, 48, 127
1, 387348, Note_on_c, 1, 72, 127
1, 387550, Note_off_c, 1, 48, 0
1, 387550, Note_off_c, 1, 72, 0
1, 387550, Note_on_c, 1, 46, 127
1, 387550, Note_on_c, 1, 74, 127
1, 387752, Note_off_c, 1, 46, 0
1, 387752, Note_off_c, 1, 74, 0
1, 387754, Note_on_c, 1, 45, 127
1, 387754, Note_on_c, 1, 72, 127
1, 387956, Note_off_c, 1, 45, 0
1, 387956, Note_off_c, 1, 72, 0
1, 387956, Note_on_c, 1, 43, 127
1, 387956, Note_on_c, 1, 74, 127
1, 388158, Note_off_c, 1, 43, 0
1, 388158, Note_off_c, 1, 74, 0
1, 388160, Note_on_c, 1, 41, 127
1, 388160, Note_on_c, 1, 75, 127
1, 388362, Note_off_c, 1, 41, 0
1, 388362, Note_off_c, 1, 75, 0
1, 388362, Note_on_c, 1, 46, 127
1, 388362, Note_on_c, 1, 74, 127
1, 388564, Note_off_c, 1, 46, 0
1, 388564, Note_off_c, 1, 74, 0
1, 388566, Note_on_c, 1, 48, 127
1, 388566, Note_on_c, 1, 72, 127
1, 388768, Note_off_c, 1, 48, 0
1, 388768, Note_off_c, 1, 72, 0
1, 388768, Note_on_c, 1, 50, 127
1, 388768, Note_on_c, 1, 70, 127
1, 388970, Note_off_c, 1, 50, 0
1, 388970, Note_off_c, 1, 70, 0
1, 388972, Note_on_c, 1, 48, 127
1, 388972, Note_on_c, 1, 75, 127
1, 389174, Note_off_c, 1, 48, 0
1, 389174, Note_off_c, 1, 75, 0
1, 389174, Note_on_c, 1, 50, 127
1, 389174, Note_on_c, 1, 74, 127
1, 389376, Note_off_c, 1, 50, 0
1, 389376, Note_off_c, 1, 74, 0
1, 389378, Note_on_c, 1, 51, 127
1, 389378, Note_on_c, 1, 72, 127
1, 389580, Note_off_c, 1, 51, 0
1, 389580, Note_off_c, 1, 72, 0
1, 389580, Note_on_c, 1, 50, 127
1, 389580, Note_on_c, 1, 77, 127
1, 389782, Note_off_c, 1, 50, 0
1, 389782, Note_off_c, 1, 77, 0
1, 389784, Note_on_c, 1, 55, 127
1, 389784, Note_on_c, 1, 70, 127
1, 389986, Note_off_c, 1, 55, 0
1, 389986, Note_off_c, 1, 70, 0
1, 389986, Note_on_c, 1, 51, 127
1, 389986, Note_on_c, 1, 72, 127
1, 390188, Note_off_c, 1, 51, 0
1, 390188, Note_off_c, 1, 72, 0
1, 390190, Note_on_c, 1, 53, 127
1, 390190, Note_on_c, 1, 65, 127
1, 390392, Note_off_c, 1, 53, 0
1, 390392, Note_off_c, 1, 65, 0
1, 390392, Note_on_c, 1, 51, 127
1, 390392, Note_on_c, 1, 70, 127
1, 390594, Note_off_c, 1, 51, 0
1, 390594, Note_off_c, 1, 70, 0
1, 390596, Note_on_c, 1, 53, 127
1, 390596, Note_on_c, 1, 69, 127
1, 390798, Note_off_c, 1, 53, 0
1, 390798, Note_off_c, 1, 69, 0
1, 390798, Note_on_c, 1, 70, 127
1, 390798, Note_on_c, 1, 46, 127
1, 391202, Note_off_c, 1, 70, 0
1, 391406, Note_on_c, 1, 74, 127
1, 391708, Note_off_c, 1, 46, 0
1, 391708, Note_off_c, 1, 74, 0
1, 391710, Note_on_c, 1, 72, 127
1, 391810, Note_off_c, 1, 72, 0
1, 391812, Note_on_c, 1, 58, 127
1, 391812, Note_on_c, 1, 70, 127
1, 392014, Note_off_c, 1, 58, 0
1, 392014, Note_off_c, 1, 70, 0
1, 392014, Note_on_c, 1, 57, 127
1, 392014, Note_on_c, 1, 77, 127
1, 392216, Note_off_c, 1, 57, 0
1, 392218, Note_on_c, 1, 60, 127
1, 392418, Note_off_c, 1, 77, 0
1, 392420, Note_off_c, 1, 60, 0
1, 392420, Note_on_c, 1, 65, 127
1, 392622, Note_off_c, 1, 65, 0
1, 392624, Note_on_c, 1, 53, 127
1, 392624, Note_on_c, 1, 65, 127
1, 392826, Note_off_c, 1, 53, 0
1, 392826, Note_on_c, 1, 57, 127
1, 393028, Note_off_c, 1, 65, 0
1, 393028, Note_off_c, 1, 57, 0
1, 393030, Note_on_c, 1, 53, 127
1, 393030, Note_on_c, 1, 65, 127
1, 393232, Note_off_c, 1, 53, 0
1, 393232, Note_off_c, 1, 65, 0
1, 393232, Note_on_c, 1, 50, 127
1, 393232, Note_on_c, 1, 70, 127
1, 393434, Note_off_c, 1, 50, 0
1, 393636, Note_off_c, 1, 70, 0
1, 393842, Note_on_c, 1, 46, 127
1, 393842, Note_on_c, 1, 74, 127
1, 394044, Note_off_c, 1, 46, 0
1, 394044, Note_on_c, 1, 50, 127
1, 394144, Note_off_c, 1, 74, 0
1, 394146, Note_on_c, 1, 72, 127
1, 394244, Note_off_c, 1, 50, 0
1, 394246, Note_off_c, 1, 72, 0
1, 394246, Note_on_c, 1, 70, 127
1, 394448, Note_off_c, 1, 70, 0
1, 394450, Note_on_c, 1, 45, 127
1, 394450, Note_on_c, 1, 77, 127
1, 394652, Note_off_c, 1, 45, 0
1, 394652, Note_on_c, 1, 48, 127
1, 394854, Note_off_c, 1, 77, 0
1, 394854, Note_off_c, 1, 48, 0
1, 394856, Note_on_c, 1, 45, 127
1, 394856, Note_on_c, 1, 65, 127
1, 395058, Note_off_c, 1, 45, 0
1, 395058, Note_on_c, 1, 41, 127
1, 395260, Note_off_c, 1, 41, 0
1, 395462, Note_off_c, 1, 65, 0
1, 395668, Note_on_c, 1, 39, 127
1, 395668, Note_on_c, 1, 72, 127
1, 395870, Note_off_c, 1, 39, 0
1, 395870, Note_on_c, 1, 43, 127
1, 396072, Note_off_c, 1, 72, 0
1, 396072, Note_off_c, 1, 43, 0
1, 396074, Note_on_c, 1, 39, 127
1, 396074, Note_on_c, 1, 72, 127
1, 396276, Note_off_c, 1, 39, 0
1, 396276, Note_off_c, 1, 72, 0
1, 396276, Note_on_c, 1, 75, 127
1, 396276, Note_on_c, 1, 36, 127
1, 396578, Note_off_c, 1, 75, 0
1, 396580, Note_on_c, 1, 74, 127
1, 396656, Note_off_c, 1, 36, 0
1, 396680, Note_off_c, 1, 74, 0
1, 396682, Note_on_c, 1, 60, 127
1, 396682, Note_on_c, 1, 72, 127
1, 396884, Note_off_c, 1, 60, 0
1, 396884, Note_off_c, 1, 72, 0
1, 396886, Note_on_c, 1, 59, 127
1, 396886, Note_on_c, 1, 79, 127
1, 397088, Note_off_c, 1, 59, 0
1, 397088, Note_on_c, 1, 62, 127
1, 397290, Note_off_c, 1, 79, 0
1, 397290, Note_off_c, 1, 62, 0
1, 397292, Note_on_c, 1, 59, 127
1, 397292, Note_on_c, 1, 67, 127
1, 397494, Note_off_c, 1, 59, 0
1, 397494, Note_on_c, 1, 55, 127
1, 397696, Note_off_c, 1, 55, 0
1, 397898, Note_off_c, 1, 67, 0
1, 398104, Note_on_c, 1, 51, 127
1, 398104, Note_on_c, 1, 72, 127
1, 398306, Note_off_c, 1, 51, 0
1, 398306, Note_on_c, 1, 55, 127
1, 398508, Note_off_c, 1, 72, 0
1, 398508, Note_off_c, 1, 55, 0
1, 398510, Note_on_c, 1, 51, 127
1, 398510, Note_on_c, 1, 72, 127
1, 398712, Note_off_c, 1, 51, 0
1, 398712, Note_off_c, 1, 72, 0
1, 398712, Note_on_c, 1, 48, 127
1, 398712, Note_on_c, 1, 75, 127
1, 398914, Note_off_c, 1, 48, 0
1, 399014, Note_off_c, 1, 75, 0
1, 399016, Note_on_c, 1, 74, 127
1, 399116, Note_off_c, 1, 74, 0
1, 399118, Note_on_c, 1, 48, 127
1, 399118, Note_on_c, 1, 72, 127
1, 399320, Note_off_c, 1, 48, 0
1, 399320, Note_off_c, 1, 72, 0
1, 399320, Note_on_c, 1, 47, 127
1, 399320, Note_on_c, 1, 79, 127
1, 399522, Note_off_c, 1, 47, 0
1, 399524, Note_on_c, 1, 50, 127
1, 399724, Note_off_c, 1, 79, 0
1, 399726, Note_off_c, 1, 50, 0
1, 399726, Note_on_c, 1, 67, 127
1, 399928, Note_off_c, 1, 67, 0
1, 399930, Note_on_c, 1, 43, 127
1, 399930, Note_on_c, 1, 67, 127
1, 400132, Note_off_c, 1, 43, 0
1, 400132, Note_on_c, 1, 47, 127
1, 400334, Note_off_c, 1, 67, 0
1, 400334, Note_off_c, 1, 47, 0
1, 400336, Note_on_c, 1, 43, 127
1, 400336, Note_on_c, 1, 79, 127
1, 400538, Note_off_c, 1, 43, 0
1, 400538, Note_off_c, 1, 79, 0
1, 400538, Note_on_c, 1, 48, 127
1, 400538, Note_on_c, 1, 75, 127
1, 400740, Note_off_c, 1, 48, 0
1, 400742, Note_on_c, 1, 51, 127
1, 400840, Note_off_c, 1, 75, 0
1, 400842, Note_on_c, 1, 74, 127
1, 400942, Note_off_c, 1, 51, 0
1, 400942, Note_off_c, 1, 74, 0
1, 400944, Note_on_c, 1, 53, 127
1, 400944, Note_on_c, 1, 72, 127
1, 401146, Note_off_c, 1, 53, 0
1, 401146, Note_on_c, 1, 55, 127
1, 401348, Note_off_c, 1, 55, 0
1, 401448, Note_off_c, 1, 72, 0
1, 401450, Note_on_c, 1, 74, 127
1, 401550, Note_off_c, 1, 74, 0
1, 401552, Note_on_c, 1, 55, 127
1, 401552, Note_on_c, 1, 71, 127
1, 401754, Note_off_c, 1, 55, 0
1, 401754, Note_off_c, 1, 71, 0
1, 401754, Note_on_c, 1, 48, 127
1, 401754, Note_on_c, 1, 72, 127
1, 401956, Note_off_c, 1, 48, 0
1, 401958, Note_on_c, 1, 60, 127
1, 402160, Note_off_c, 1, 60, 0
1, 402160, Note_on_c, 1, 58, 127
1, 402356, Note_off_c, 1, 72, 0
1, 402362, Note_off_c, 1, 58, 0
1, 402364, Note_on_c, 1, 57, 127
1, 402364, Note_on_c, 1, 60, 127
1, 402566, Note_off_c, 1, 57, 0
1, 402566, Note_on_c, 1, 55, 127
1, 402768, Note_off_c, 1, 60, 0
1, 402768, Note_off_c, 1, 55, 0
1, 402770, Note_on_c, 1, 53, 127
1, 402770, Note_on_c, 1, 77, 127
1, 402972, Note_off_c, 1, 53, 0
1, 402972, Note_off_c, 1, 77, 0
1, 402972, Note_on_c, 1, 58, 127
1, 402972, Note_on_c, 1, 74, 127
1, 403174, Note_off_c, 1, 58, 0
1, 403176, Note_on_c, 1, 50, 127
1, 403274, Note_off_c, 1, 74, 0
1, 403276, Note_on_c, 1, 72, 127
1, 403376, Note_off_c, 1, 50, 0
1, 403376, Note_off_c, 1, 72, 0
1, 403378, Note_on_c, 1, 51, 127
1, 403378, Note_on_c, 1, 70, 127
1, 403580, Note_off_c, 1, 51, 0
1, 403580, Note_on_c, 1, 53, 127
1, 403782, Note_off_c, 1, 53, 0
1, 403882, Note_off_c, 1, 70, 0
1, 403884, Note_on_c, 1, 72, 127
1, 403984, Note_off_c, 1, 72, 0
1, 403986, Note_on_c, 1, 53, 127
1, 403986, Note_on_c, 1, 69, 127
1, 404188, Note_off_c, 1, 53, 0
1, 404188, Note_off_c, 1, 69, 0
1, 404188, Note_on_c, 1, 58, 127
1, 404188, Note_on_c, 1, 70, 127
1, 404490, Note_off_c, 1, 58, 0
1, 404592, Note_off_c, 1, 70, 0
1, 404594, Note_on_c, 1, 50, 127
1, 404796, Note_off_c, 1, 50, 0
1, 404796, Note_on_c, 1, 46, 127
1, 405098, Note_off_c, 1, 46, 0
1, 405100, Note_on_c, 1, 58, 127
1, 405200, Note_off_c, 1, 58, 0
1, 405202, Note_on_c, 1, 54, 127
1, 405202, Note_on_c, 1, 74, 127
1, 405404, Note_off_c, 1, 54, 0
1, 405404, Note_off_c, 1, 74, 0
1, 405404, Note_on_c, 1, 55, 127
1, 405404, Note_on_c, 1, 70, 127
1, 405706, Note_off_c, 1, 55, 0
1, 405708, Note_on_c, 1, 57, 127
1, 405808, Note_off_c, 1, 70, 0
1, 405808, Note_off_c, 1, 57, 0
1, 405810, Note_on_c, 1, 58, 127
1, 405810, Note_on_c, 1, 70, 127
1, 406012, Note_off_c, 1, 58, 0
1, 406012, Note_on_c, 1, 55, 127
1, 406314, Note_off_c, 1, 70, 0
1, 406314, Note_off_c, 1, 55, 0
1, 406316, Note_on_c, 1, 57, 127
1, 406316, Note_on_c, 1, 69, 127
1, 406416, Note_off_c, 1, 57, 0
1, 406416, Note_off_c, 1, 69, 0
1, 406418, Note_on_c, 1, 58, 127
1, 406418, Note_on_c, 1, 67, 127
1, 406620, Note_off_c, 1, 58, 0
1, 406620, Note_off_c, 1, 67, 0
1, 406620, Note_on_c, 1, 74, 127
1, 406620, Note_on_c, 1, 54, 127
1, 407024, Note_off_c, 1, 74, 0
1, 407026, Note_on_c, 1, 62, 127
1, 407222, Note_off_c, 1, 54, 0
1, 407532, Note_on_c, 1, 50, 127
1, 407630, Note_off_c, 1, 62, 0
1, 407632, Note_off_c, 1, 50, 0
1, 407632, Note_on_c, 1, 52, 127
1, 407732, Note_off_c, 1, 52, 0
1, 407834, Note_on_c, 1, 55, 127
1, 407834, Note_on_c, 1, 70, 127
1, 408136, Note_off_c, 1, 55, 0
1, 408138, Note_on_c, 1, 57, 127
1, 408238, Note_off_c, 1, 70, 0
1, 408238, Note_off_c, 1, 57, 0
1, 408240, Note_on_c, 1, 58, 127
1, 408240, Note_on_c, 1, 70, 127
1, 408442, Note_off_c, 1, 58, 0
1, 408442, Note_on_c, 1, 55, 127
1, 408744, Note_off_c, 1, 70, 0
1, 408744, Note_off_c, 1, 55, 0
1, 408746, Note_on_c, 1, 57, 127
1, 408746, Note_on_c, 1, 69, 127
1, 408846, Note_off_c, 1, 57, 0
1, 408846, Note_off_c, 1, 69, 0
1, 408848, Note_on_c, 1, 58, 127
1, 408848, Note_on_c, 1, 67, 127
1, 409050, Note_off_c, 1, 58, 0
1, 409050, Note_off_c, 1, 67, 0
1, 409050, Note_on_c, 1, 74, 127
1, 409050, Note_on_c, 1, 54, 127
1, 409454, Note_off_c, 1, 74, 0
1, 409456, Note_on_c, 1, 62, 127
1, 409960, Note_off_c, 1, 54, 0
1, 410062, Note_off_c, 1, 62, 0
1, 410064, Note_on_c, 1, 53, 127
1, 410064, Note_on_c, 1, 74, 127
1, 410266, Note_off_c, 1, 53, 0
1, 410266, Note_off_c, 1, 74, 0
1, 410266, Note_on_c, 1, 51, 127
1, 410266, Note_on_c, 1, 79, 127
1, 410568, Note_off_c, 1, 51, 0
1, 410568, Note_off_c, 1, 79, 0
1, 410570, Note_on_c, 1, 53, 127
1, 410570, Note_on_c, 1, 81, 127
1, 410670, Note_off_c, 1, 53, 0
1, 410670, Note_off_c, 1, 81, 0
1, 410672, Note_on_c, 1, 50, 127
1, 410672, Note_on_c, 1, 82, 127
1, 410874, Note_off_c, 1, 50, 0
1, 410874, Note_off_c, 1, 82, 0
1, 410874, Note_on_c, 1, 48, 127
1, 410874, Note_on_c, 1, 81, 127
1, 411176, Note_off_c, 1, 48, 0
1, 411176, Note_off_c, 1, 81, 0
1, 411178, Note_on_c, 1, 50, 127
1, 411178, Note_on_c, 1, 82, 127
1, 411278, Note_off_c, 1, 50, 0
1, 411278, Note_off_c, 1, 82, 0
1, 411280, Note_on_c, 1, 51, 127
1, 411280, Note_on_c, 1, 79, 127
1, 411482, Note_off_c, 1, 51, 0
1, 411482, Note_off_c, 1, 79, 0
1, 411482, Note_on_c, 1, 78, 127
1, 411482, Note_on_c, 1, 50, 127
1, 411886, Note_off_c, 1, 78, 0
1, 411888, Note_on_c, 1, 74, 127
1, 412242, Note_off_c, 1, 50, 0
1, 412394, Note_on_c, 1, 46, 127
1, 412494, Note_off_c, 1, 74, 0
1, 412494, Note_off_c, 1, 46, 0
1, 412496, Note_on_c, 1, 48, 127
1, 412496, Note_on_c, 1, 74, 127
1, 412596, Note_off_c, 1, 48, 0
1, 412596, Note_on_c, 1, 50, 127
1, 412696, Note_off_c, 1, 74, 0
1, 412696, Note_off_c, 1, 50, 0
1, 412698, Note_on_c, 1, 51, 127
1, 412698, Note_on_c, 1, 79, 127
1, 413000, Note_off_c, 1, 51, 0
1, 413000, Note_off_c, 1, 79, 0
1, 413002, Note_on_c, 1, 53, 127
1, 413002, Note_on_c, 1, 81, 127
1, 413102, Note_off_c, 1, 53, 0
1, 413102, Note_off_c, 1, 81, 0
1, 413102, Note_on_c, 1, 50, 127
1, 413102, Note_on_c, 1, 82, 127
1, 413304, Note_off_c, 1, 50, 0
1, 413304, Note_off_c, 1, 82, 0
1, 413306, Note_on_c, 1, 48, 127
1, 413306, Note_on_c, 1, 81, 127
1, 413608, Note_off_c, 1, 48, 0
1, 413608, Note_off_c, 1, 81, 0
1, 413610, Note_on_c, 1, 50, 127
1, 413610, Note_on_c, 1, 82, 127
1, 413710, Note_off_c, 1, 50, 0
1, 413710, Note_off_c, 1, 82, 0
1, 413710, Note_on_c, 1, 51, 127
1, 413710, Note_on_c, 1, 79, 127
1, 413912, Note_off_c, 1, 51, 0
1, 413912, Note_off_c, 1, 79, 0
1, 413914, Note_on_c, 1, 78, 127
1, 413914, Note_on_c, 1, 50, 127
1, 414318, Note_off_c, 1, 78, 0
1, 414318, Note_on_c, 1, 74, 127
1, 414520, Note_off_c, 1, 74, 0
1, 414674, Note_off_c, 1, 50, 0
1, 414926, Note_on_c, 1, 52, 127
1, 415026, Note_off_c, 1, 52, 0
1, 415028, Note_on_c, 1, 54, 127
1, 415128, Note_off_c, 1, 54, 0
1, 415128, Note_on_c, 1, 55, 127
1, 415128, Note_on_c, 1, 70, 127
1, 415434, Note_off_c, 1, 55, 0
1, 415434, Note_off_c, 1, 70, 0
1, 415436, Note_on_c, 1, 46, 127
1, 415436, Note_on_c, 1, 69, 127
1, 415538, Note_off_c, 1, 46, 0
1, 415538, Note_off_c, 1, 69, 0
1, 415540, Note_on_c, 1, 48, 127
1, 415540, Note_on_c, 1, 67, 127
1, 415744, Note_off_c, 1, 48, 0
1, 415744, Note_on_c, 1, 50, 127
1, 416050, Note_off_c, 1, 67, 0
1, 416050, Note_off_c, 1, 50, 0
1, 416052, Note_on_c, 1, 48, 127
1, 416052, Note_on_c, 1, 69, 127
1, 416154, Note_off_c, 1, 48, 0
1, 416154, Note_off_c, 1, 69, 0
1, 416156, Note_on_c, 1, 50, 127
1, 416156, Note_on_c, 1, 66, 127
1, 416360, Note_off_c, 1, 50, 0
1, 416360, Note_off_c, 1, 66, 0
1, 416360, Note_on_c, 1, 67, 127
1, 416360, Note_on_c, 1, 39, 127
1, 416768, Note_off_c, 1, 67, 0
1, 416968, Note_off_c, 1, 39, 0
1, 416976, Note_on_c, 1, 67, 127
1, 417282, Note_on_c, 1, 38, 127
1, 417384, Note_off_c, 1, 67, 0
1, 417384, Note_off_c, 1, 38, 0
1, 417386, Note_on_c, 1, 40, 127
1, 417386, Note_on_c, 1, 74, 127
1, 417488, Note_off_c, 1, 40, 0
1, 417488, Note_on_c, 1, 42, 127
1, 417590, Note_off_c, 1, 74, 0
1, 417590, Note_off_c, 1, 42, 0
1, 417592, Note_on_c, 1, 43, 127
1, 417592, Note_on_c, 1, 70, 127
1, 417920, Note_off_c, 1, 43, 0
1, 417920, Note_off_c, 1, 70, 0
1, 417920, Note_on_c, 1, 46, 127
1, 417920, Note_on_c, 1, 69, 127
1, 418028, Note_off_c, 1, 46, 0
1, 418028, Note_off_c, 1, 69, 0
1, 418030, Note_on_c, 1, 48, 127
1, 418030, Note_on_c, 1, 67, 127
1, 418248, Note_off_c, 1, 48, 0
1, 418248, Note_off_c, 1, 67, 0
1, 418250, Note_on_c, 1, 50, 127
1, 418250, Note_on_c, 1, 67, 127
1, 418578, Note_off_c, 1, 50, 0
1, 418578, Note_off_c, 1, 67, 0
1, 418580, Note_on_c, 1, 48, 127
1, 418580, Note_on_c, 1, 69, 127
1, 418706, Note_off_c, 1, 48, 0
1, 418706, Note_off_c, 1, 69, 0
1, 418716, Note_on_c, 1, 66, 127
1, 418716, Note_on_c, 1, 50, 127
1, 418976, Note_off_c, 1, 66, 0
1, 418976, Note_off_c, 1, 50, 0
1, 419042, Note_on_c, 1, 67, 127
1, 419042, Note_on_c, 1, 43, 127
1, 421442, Note_off_c, 1, 67, 0
1, 421442, Note_off_c, 1, 43, 0
1, 421442, End_track
0, 0, End_of_file