                                                                                                                                                                                                                                                                                                                                                                                                                                                                                                                                                                                                                                                                                                                                                                                                                                                                                                                                                                                                                                                                                                                                                                                                                                                                                                                                                                                                                                                                                                                                                                                                                                                                                                                                                                                                                                                                                                                                                                                                                                                                                                                                G;>G; G;>G; G;>G; G;>G; G;>G; G;>G; G;>G; G;>G; G;>G; G;>G; G;>G; G;>G; G;>G; G;>G; G;>G; G;>G; G;>G; G;>G; G;>G; G;>G; G;>G; G;>G; G;>G; G;>G; G;>G; G;>G; G;>G; G;>G; G;>G; G;>G; G;>G; G;>G; G;>G; G;>G; G;>G; G;>G; G;>G; G;>G; G;>G; G;>G; G;>G; G;>G; G;>G; G;>G; G;>G; G;>G; G;>G; G;>G; G;>G; G;>G; G;>G; G;>G; G;>G; G;>G; G;>G; G;>G; G;>G; G;>G; G;>G; G;>G; G;>G; G;>G; G;>G; G;>G; G;>G; G;>G; G;>G; G;>G; G;>G; G;>G; G;>G; G;>G; G;>G; G;>G; G;>G; G;>G; G;>G; G;>G; G;>G; G;>G; G;>G; G;>G; G;>G; G;>G; G;>G; G;>G; G;>G; G;>G; G;>G; G;>G; G;>G; G;>G; G;>G; G;>G; G;>G; G;>G; G;>G; G;>G; G;>G; G;>G; G;>G; G;>G; G;>G; G;>G; G;>G; G;>G; G;>G; G;>G; G;>G; G;>G; G;>G; G;>G; G;>G; G;>G; G;>G; G;>G; G;>G; G;>G; G;>G; G;>G; G;>G; G;>G; G;>G; G;>G; G;>G; G;>G; G;>G; G;>G; G;>G; G;>G; G;>G; G;>G; G;>G; G;>G; G;>G; G;>G; G;>G; G;>G; G;>G; G;>G; G;>G; G;>G; G;>G; G;>G; G;>G; G;>G; G;>G; G;>G; G;>G; G;>G; G;>G; G;>G; G;>G; G;>G; G;>G; G;>G; G;>G; G;>G; G;>G; G;>G; G;>G; G;>G; G;>G; G;>G; G;>G; G;>G; G;>G; G;>G; G;>G; G;>G; G;>G; G;>G; G;>G; G;>G; G;>G; G;>G; G;>G; G;>G; G;>G; G;>G; G;>G; G;>G; G;>G; G;>G; G;>G; G;>G; G;>G; G;>G; G;>G; G;>G; G;>G; G;>G; G;>G; G;>G; G;>G; G;>G; G;>G; G;>G; G;>G; G;>G; G;>G; G;>G; G;>G; G;>G; G;>G; G;>G; G;>G; G;>G; G;>G; G;>G; G;>G; G;>G; G;>G; G;>G; G;>G; G;>G; G;>G; G;>G; G;>G; G;>G; G;>G; G;>G; G;>G; G;>G; G;>G; G;>G; G;>G; G;>G; G;>G; G;>G; G;>G; G;>G; G;>G; G;>G; G;>G; G;>G; G;>G; G;>G; G;>G; G;>G; G;>G; G;>G; G;>G; G;>G; G;>G; G;>G; G;>G; G;>G; G;>G; G;>G; G;>G; G;>G; G;>G; G;>G; G;>G; G;>G; N;>G; N;>G; N;>G; N;>G; N;>G; N;>G; N;>G; N;>G; N;>G; N;>G; N;>G; N;>G; N;>G; N;>G; N;>G; N;>G; N;>G; N;>G; N;>G; N;>G; N;>G; N;>G; N;>G; N;>G; N;>G; N;>G; N;>G; N;>G; N;>G; N;>G; N;>G; N;>G; N;>G; N;>G; N;>G; N;>G; N;>G; N;>G; N;>G; N;>G; N;>G; N;>G; N;>G; N;>G; N;>G; N;>G; N;>G; N;>G; N;>G; N;>G; N;>G; N;>G; N;>G; N;>G; N;>G; N;>G; N;>G; N;>G; N;>G; N;>G; N;>G; N;>G; N;>G; N;>G; N;>G; N;>G; N;>G; N;>G; N;>G; N;>G; N;>G; N;>G; N;>G; N;>G; N;>G; N;>G; N;>G; N;>G; N;>G; N;>G; N;>G; N;>G; N;>G; N;>G; N;>G; N;>G; N;>G; N;>G; N;>G; N;>G; N;>G; N;>G; N;>G; N;>G; N;>G; N;>G; N;>G; N;>G; N;>G; N;>G; N;>G; N;>G; N;>G; N;>G; N;>G; N;>G; N;>G; N;>G; N;>G; N;>G; N;>G; N;>G; N;>G; N;>G; N;>G; N;>G; N;>G; N;>G; N;>G; N;>G; N;>G; N;>G; N;>G; N;>G; N;>G; N;>G; N;>G; N;>G; N;>G; N;>G; N;>G; N;>G; N;>G; N;>G; N;>G; N;>G; N;>G; N;>G; N;>G; N;>G; N;>G; N;>G; N;>G; N;>G; N;>G; N;>G; N;>G; N;>G; N;>G; N;>G; N;>G; N;>G; N;>G; N;>G; N;>G; N;>G; N;>G; N;>G; N;>G; N;>G; N;>G; N;>G; N;>G; N;>G; N;>G; N;>G; N;>G; N;>G; N;>G; N;>G; N;>G; N;>G; N;>G; N;>G; N;>G; N;>G; N;>G; N;>G; N;>G; N;>G; N;>G; N;>G; N;>G; N;>G; N;>G; N;>G; N;>G; N;>G; N;>G; N;>G; N;>G; N;>G; N;>G; N;>G; N;>G; N;>G; N;>G; N;>G; N;>G; N;>G; N;>G; N;>G; N;>G; N;>G; N;>G; N;>G; N;>G; N;>G; N;>G; N;>G; N;>G; N;>G; N;>G; N;>G; N;>G; N;>G; N;>G; N;>G; N;>G; N;>G; N;>G; N;>G; N;>G; N;>G; N;>G; N;>G; N;>G; N;>G; N;>G; N;>G; N;>G; N;>G; N;>G; N;>G; N;>G; N;>G; N;>G; N;>G; N;>G; N;>G; N;>G; N;>G; N;>G; N;>G; N;>G; N;>G; N;>G; N;>G; N;>G; N;>G; N;>G; N;>G; N;>G; N;>G; N;>G; N;>G; S;B; S;B; S;B; S;B; S;B; S;B; S;B; S;B; S;B; S;B; S;B; S;B; S;B; S;B; S;B; S;B; S;B; S;B; S;B; S;B; S;B; S;B; S;B; S;B; S;B; S;B; S;B; S;B; S;B; S;B; S;B; S;B; S;B; S;B; S;B; S;B; S;B; S;B; S;B; S;B; S;B; S;B; S;B; S;B; S;B; S;B; S;B; S;B; S;B; S;B; S;B; S;B; S;B; S;B; S;B; S;B; S;B; S;B; S;B; S;B; S;B; S;B; S;B; S;B; S;B; S;B; S;B; S;B; S;B; S;B; S;B; S;B; S;B; S;B; S;B; S;B; S;B; S;B; S;B; S;B; S;B; S;B; S;B; S;B; S;B; S;B; S;B; S;B; S;B; S;B; S;B; S;B; S;B; S;B; S;B; S;B; S;B; S;B; S;B; S;B; S;B; S;B; S;B; S;B; S;B; S;B; S;B; S;B; S;B; S;B; S;B; S;B; S;B; S;B; S;B; S;B; S;B; S;B; S;B; S;B; S;B; S;B; S;B; S;B; S;B; S;B; S;B; S;B; S;B; S;B; S;B; S;B; S;B; S;B; S;B; S;B; S;B; S;B; S;B; S;B; S;B; S;B; S;B; S;B; S;B; S;B; S;B; S;B; S;B; S;B; S;B; S;B; S;B; S;B; S;B; S;B; S;B; S;B; S;B; S;B; S;B; S;B; S;B; S;B; S;B; S;B; S;B; S;B; S;B; S;B; S;B; S;B; S;B; S;B; S;B; S;B; S;B; S;B; S;B; S;B; S;B; S;B; S;B; S;B; S;B; S;B; S;B; S;B; S;B; S;B; S;B; S;B; S;B; S;B; S;B; S;B; S;B; S;B; S;B; S;B; S;B; S;B; S;B; S;B; S;B; S;B; S;B; S;B; S;B; S;B; S;B; S;B; S;B; S;B; S;B; S;B; S;B; S;B; S;B; S;B; S;B; S;B; S;B; S;B; S;B; S;B; S;B; S;B; S;B; S;B; S;B; S;B; S;B; S;B; S;B; S;B; S;B; S;B; S;B; S;B; S;B; S;B; S;B; S;B; S;B; S;B; S;B; S;B; S;B; S;B; S;B; S;B; S;B; S;B; S;B; S;B; V;B; V;B; V;B; V;B; V;B; V;B; V;B; V;B; V;B; V;B; V;B; V;B; V;B; V;B; V;B; V;B; V;B; V;B; V;B; V;B; V;B; V;B; V;B; V;B; V;B; V;B; V;B; V;B; V;B; V;B; V;B; V;B; V;B; V;B; V;B; V;B; V;B; V;B; V;B; V;B; V;B; V;B; V;B; V;B; V;B; V;B; V;B; V;B; V;B; V;B; V;B; V;B; V;B; V;B; V;B; V;B; V;B; V;B; V;B; V;B; V;B; V;B; V;B; V;B; V;B; V;B; V;B; V;B; V;B; V;B; V;B; V;B; V;B; V;B; V;B; V;B; V;B; V;B; V;B; V;B; V;B; V;B; V;B; V;B; V;B; V;B; V;B; V;B; V;B; V;B; V;B; V;B; V;B; V;B; V;B; V;B; V;B; V;B; V;B; V;B; V;B; V;B; V;B; V;B; V;B; V;B; V;B; V;B; V;B; V;B; V;B; V;B; V;B; V;B; V;B; V;B; V;B; V;B; V;B; V;B; V;B; V;B; V;B; V;B; V;B; V;B; V;B; V;B; V;B; V;B; V;B; V;B; V;B; V;B; V;B; V;B; V;B; V;B; V;B; V;B; V;B; V;B; V;B; V;B; V;B; V;B; V;B; V;B; V;B; V;B; V;B; V;B; V;B; V;B; V;B; V;B; V;B; V;B; V;B; V;B; V;B; V;B; V;B; V;B; V;B; V;B; V;B; V;B; V;B; V;B; V;B; V;B; V;B; V;B; V;B; V;B; V;B; V;B; V;B; ;B; ;B; ;B; ;B; ;B; ;B; ;B; ;B; ;B; ;B; ;B; ;B; ;B; ;B; ;B; ;B; ;B; ;B; ;B; ;B; ;B; ;B; ;B; ;B; ;B; ;B; ;B; ;B; ;B; ;B; ;B; ;B; ;B; ;B; ;B; ;B; ;B; ;B; ;B; ;B; ;B; ;B; ;B; ;B; ;B; ;B; ;B; ;B; ;B; ;B; ;B; ;B; ;B; ;B; ;B; ;B; ;B; ;B; ;B; ;B; ;B; ;B; ;B; ;B; ;B; ;B; ;B; ;B; ;B; ;B; ;B; ;B; ;B; ;B; ;B; ;B; ;B; U;;@C U;;@C U;;@C U;;@C U;;@C U;;@C U;;@C U;;@C U;;@C U;;@C U;;@C U;;@C U;;@C U;;@C U;;@C U;;@C U;;@C U;;@C U;;@C U;;@C U;;@C U;;@C U;;@C U;;@C U;;@C U;;@C U;;@C U;;@C U;;@C U;;@C U;;@C U;;@C U;;@C U;;@C U;;@C U;;@C U;;@C U;;@C U;;@C U;;@C U;;@C U;;@C U;;@C U;;@C U;;@C U;;@C U;;@C U;;@C U;;@C U;;@C U;;@C U;;@C U;;@C U;;@C U;;@C U;;@C U;;@C U;;@C U;;@C U;;@C U;;@C U;;@C U;;@C U;;@C U;;@C U;;@C U;;@C U;;@C U;;@C U;;@C U;;@C U;;@C U;;@C U;;@C U;;@C U;;@C U;;@C U;;@C U;;@C U;;@C U;;@C U;;@C U;;@C U;;@C U;;@C U;;@C U;;@C U;;@C U;;@C U;;@C U;;@C U;;@C U;;@C U;;@C U;;@C U;;@C U;;@C U;;@C U;;@C U;;@C U;;@C U;;@C U;;@C U;;@C U;;@C U;;@C U;;@C U;;@C U;;@C U;;@C U;;@C U;;@C U;;@C U;;@C U;;@C U;;@C U;;@C U;;@C U;;@C U;;@C U;;@C U;;@C U;;@C U;;@C U;;@C U;;@C U;;@C U;;@C U;;@C U;;@C U;;@C U;;@C U;;@C U;;@C U;;@C U;;@C U;;@C U;;@C U;;@C U;;@C U;;@C U;;@C U;;@C U;;@C U;;@C U;;@C U;;@C U;;@C U;;@C U;;@C U;;@C U;;@C U;;@C U;;@C U;;@C U;;@C U;;@C U;;@C U;;@C U;;@C U;;@C U;;@C U;;@C U;;@C U;;@C U;;@C U;;@C U;;@C U;;@C U;;@C U;;@C U;;@C U;;@C U;;@C U;;@C U;;@C U;;@C U;;@C U;;@C U;;@C U;;@C U;;@C U;;@C U;;@C U;;@C U;;@C U;;@C U;;@C U;;@C U;;@C U;;@C U;;@C U;;@C U;;@C U;;@C U;;@C U;;@C U;;@C U;;@C U;;@C U;;@C U;;@C U;;@C U;;@C U;;@C U;;@C U;;@C U;;@C U;;@C U;;@C U;;@C U;;@C U;;@C U;;@C U;;@C U;;@C U;;@C U;;@C U;;@C U;;@C U;;@C U;;@C U;;@C U;;@C U;;@C U;;@C U;;@C U;;@C U;;@C U;;@C U;;@C U;;@C U;;@C U;;@C U;;@C U;;@C U;;@C U;;@C U;;@C U;;@C U;;@C U;;@C U;;@C U;;@C U;;@C U;;@C U;;@C U;;@C U;;@C U;;@C U;;@C U;;@C U;;@C U;;@C U;;@C U;;@C U;;@C U;;@C U;;@C U;;@C U;;@C U;;@C U;;@C U;;@C U;;@C U;;@C U;;@C U;;@C U;;@C U;;@C U;;@C U;;@C U;;@C U;;@C U;;@C U;;@C U;;@C U;;@C U;;@C U;;@C U;;@C U;;@C U;;@C U;;@C U;;@C U;;@C U;;@C U;;@C U;;@C U;;@C U;;@C U;;@C U;;@C U;;@C U;;@C U;;@C U;;@C U;;@C U;;@C U;;@C U;;@C U;;@C U;;@C U;;@C U;;@C U;;@C U;;@C U;;@C U;;@C U;;@C U;;@C U;;@C U;;@C U;;@C U;;@C U;;@C U;;@C U;;@C U;;@C U;;@C U;;@C U;;@C U;;@C U;;@C U;;@C U;;@C U;;@C U;;@C U;;@C U;;@C U;;@C U;;@C U;;@C U;;@C U;;@C U;;@C U;;@C U;;@C U;;@C U;;@C U;;@C U;;@C U;;@C U;;@C U;;@C U;;@C U;;@C U;;@C U;;@C U;;@C U;;@C U;;@C U;;@C U;;@C U;;@C U;;@C U;;@C U;;@C U@C U@C U@C U@C U@C U@C U@C U@C U@C U@C U@C U@C U@C U@C U@C U@C U@C U@C U@C U@C U@C U@C U@C U@C U@C U@C U@C U@C U@C U@C U@C U@C U@C U@C U@C U@C U@C U@C U@C U@C U@C U@C U@C U@C U@C U@C U@C U@C U@C U@C U@C U@C U@C U@C U@C U@C U@C U@C U@C U@C U@C U@C U@C U@C U@C U@C U@C U@C U@C U@C U@C U@C U@C U@C U@C U@C U@C U@C U@C U@C U@C U@C U@C U@C U@C U@C U@C U@C U@C U@C U@C U@C U@C U@C U@C U@C U@C U@C U@C U@C U@C U@C U@C @C @C @C @C @C @C @C @C @C @C @C @C @C @C @C @C @C @C @C @C @C @C @C @C @C @C @C @C @C @C @C @C @C @C @C @C @C @C @C @C @C @C @C @C @C @C @C @C @C @C @C L:=B: L:=B: L:=B: L:=B: L:=B: L:=B: L:=B: L:=B: L:=B: L:=B: L:=B: L:=B: L:=B: L:=B: L:=B: L:=B: L:=B: L:=B: L:=B: L:=B: L:=B: L:=B: L:=B: L:=B: L:=B: L:=B: L:=B: L:=B: L:=B: L:=B: L:=B: L:=B: L:=B: L:=B: L:=B: L:=B: L:=B: L:=B: L:=B: L:=B: L:=B: L:=B: L:=B: L:=B: L:=B: L:=B: L:=B: L:=B: L:=B: L:=B: L:=B: L:=B: L:=B: L:=B: L:=B: L:=B: L:=B: L:=B: L:=B: L:=B: L:=B: L:=B: L:=B: L:=B: L:=B: L:=B: L:=B: L:=B: L:=B: L:=B: L:=B: L:=B: L:=B: L:=B: L:=B: L:=B: L:=B: L:=B: L:=B: L:=B: L:=B: L:=B: L:=B: L:=B: L:=B: L:=B: L:=B: L:=B: L:=B: L:=B: L:=B: L:=B: L:=B: L:=B: L:=B: L:=B: L:=B: L:=B: L:=B: L:=B: L:=B: L:=B: L:=B: L:=B: L:=B: L:=B: L:=B: L:=B: L:=B: L:=B: L:=B: L:=B: L:=B: L:=B: L:=B: L:=B: L:=B: L:=B: L:=B: L:=B: L:=B: L:=B: L:=B: L:=B: L:=B: L:=B: L:=B: L:=B: L:=B: L:=B: L:=B: L:=B: L:=B: L:=B: L:=B: L:=B: L:=B: L:=B: L:=B: L:=B: L:=B: L:=B: L:=B: L:=B: L:=B: L:=B: L:=B: L:=B: L:=B: L:=B: L:=B: L:=B: L:=B: L:=B: L:=B: L:=B: L:=B: L:=B: L:=B: L:=B: L:=B: L:=B: L:=B: L:=B: L:=B: L:=B: L:=B: L:=B: L:=B: L:=B: L:=B: L:=B: L:=B: L:=B: L:=B: L:=B: L:=B: L:=B: L:=B: L:=B: L:=B: L:=B: L:=B: L:=B: L:=B: L:=B: L:=B: L:=B: L:=B: L:=B: L:=B: L:=B: L:=B: L:=B: L:=B: L:=B: L:=B: L:=B: L:=B: L:=B: L:=B: L:=B: L:=B: L:=B: L:=B: L:=B: L:=B: L:=B: L:=B: L:=B: L:=B: L:=B: L:=B: L:=B: L:=B: L:=B: L:=B: L:=B: L:=B: L:=B: L:=B: L:=B: L:=B: L:=B: L:=B: L:=B: L:=B: L:=B: L:=B: L:=B: L:=B: L:=B: L:=B: L:=B: L:=B: L:=B: L:=B: L:=B: L:=B: L:=B: L:=B: L:=B: L:=B: L:=B: L:=B: L:=B: L:=B: L:=B: L:=B: L:=B: L:=B: L:=B: L:=B: L:=B: L:=B: L:=B: L8;8 L8;8 L8;8 L8;8 L8;8 L8;8 L8;8 L8;8 L8;8 L8;8 L8;8 L8;8 L8;8 L8;8 L8;8 L8;8 L8;8 L8;8 L8;8 L8;8 L8;8 L8;8 L8;8 L8;8 L8;8 L8;8 L8;8 L8;8 L8;8 L8;8 L8;8 L8;8 L8;8 L8;8 L8;8 L8;8 L8;8 L8;8 L8;8 L8;8 L8;8 L8;8 L8;8 L8;8 L8;8 L8;8 L8;8 L8;8 L8;8 L8;8 L8;8 L8;8 L8;8 L8;8 L8;8 L8;8 L8;8 L8;8 L8;8 L8;8 L8;8 L8;8 L8;8 L8;8 L8;8 L8;8 L8;8 L8;8 L8;8 L8;8 L8;8 L8;8 L8;8 L8;8 L8;8 L8;8 L8;8 L8;8 L8;8 L8;8 L8;8 L8;8 L8;8 L8;8 L8;8 L8;8 L8;8 L8;8 L8;8 L8;8 L8;8 L8;8 L8;8 L8;8 L8;8 L8;8 L8;8 L8;8 L8;8 L8;8 L8;8 L8;8 L8;8 L8;8 L8;8 L8;8 L8;8 L8;8 L8;8 L8;8 L8;8 L8;8 L8;8 L8;8 L8;8 L8;8 L8;8 L8;8 L8;8 L8;8 L8;8 L8;8 L8;8 L8;8 L8;8 L8;8 L8;8 L8;8 L8;8 L8;8 L8;8 L8;8 L8;8 L8;8 L8;8 L8;8 L8;8 L8;8 L8;8 L8;8 L8;8 L8;8 L8;8 L8;8 L8;8 L8;8 L8;8 L8;8 L8;8 L8;8 L8;8 L8;8 L8;8 L8;8 L8;8 L8;8 L8;8 L8;8 L8;8 L8;8 L8;8 L8;8 L8;8 L8;8 L8;8 L8;8 L8;8 L8;8 L8;8 L8;8 L8;8 L8;8 L8;8 L8;8 L8;8 L8;8 L8;8 L8;8 L8;8 L8;8 L8;8 L8;8 L8;8 L8;8 L8;8 L8;8 L8;8 L8;8 L8;8 L8;8 L8;8 L8;8 L8;8 L8;8 L8;8 L8;8 L8;8 L8;8 L8;8 L8;8 L8;8 L8;8 L8;8 L8;8 L8;8 L8;8 L8;8 L8;8 L8;8 L8;8 L8;8 L8;8 L8;8 L8;8 L8;8 L8;8 L8;8 L8;8 L8;8 L8;8 L8;8 L8;8 L8;8 L8;8 L8;8 L8;8 L8;8 L8;8 L8;8 L8;8 L8;8 L8;8 L8;8 L8;8 L8;8 L8;8 L8;8 L8;8 L8;8 L8;8 L8;8 L8;8 L8;8 L8;8 L8;8 L8;8 L8;8 L8;8 L8;8 L8;8 L8;8 L8;8 L8;8 L8;8 L8;8 L8;8 L::=B L::=B L::=B L::=B L::=B L::=B L::=B L::=B L::=B L::=B L::=B L::=B L::=B L::=B L::=B L::=B L::=B L::=B L::=B L::=B L::=B L::=B L::=B L::=B L::=B L::=B L::=B L::=B L::=B L::=B L::=B L::=B L::=B L::=B L::=B L::=B L::=B L::=B L::=B L::=B L::=B L::=B L::=B L::=B L::=B L::=B L::=B L::=B L::=B L::=B L::=B L::=B L::=B L::=B L::=B L::=B L::=B L::=B L::=B L::=B L::=B L::=B L::=B L::=B L::=B L::=B L::=B L::=B L::=B L::=B L::=B L::=B L::=B L::=B L::=B L::=B L::=B L::=B L::=B L::=B L::=B L::=B L::=B L::=B L::=B L::=B L::=B L::=B L::=B L::=B L::=B L::=B L::=B L::=B L::=B L::=B L::=B L::=B L::=B L::=B L::=B L::=B L::=B L::=B L::=B L::=B L::=B L::=B L::=B L::=B L::=B L::=B L::=B L::=B L::=B L::=B L::=B L::=B L::=B L::=B L::=B L::=B L::=B L::=B L::=B L::=B L::=B L::=B L::=B L::=B L::=B L::=B L::=B L::=B L::=B L::=B L::=B L::=B L::=B L::=B L::=B L::=B L::=B L::=B L::=B L::=B L::=B L::=B L::=B L::=B L::=B L::=B L::=B L::=B L::=B L::=B L::=B L::=B L::=B L::=B L::=B L::=B L::=B L::=B L::=B L::=B L::=B L::=B L::=B L::=B L::=B L::=B L::=B L::=B L::=B L::=B L::=B L::=B L::=B L::=B L::=B L::=B L::=B L::=B L::=B L::=B L::=B L::=B L::=B L::=B L::=B L::=B L::=B L::=B L::=B L::=B L::=B L::=B L::=B L::=B L::=B L::=B L::=B L::=B L::=B L::=B L::=B L::=B L::=B L::=B L::=B L::=B L::=B L::=B L::=B L::=B L::=B L::=B L::=B L::=B L::=B L::=B L::=B L::=B L::=B L::=B L::=B L::=B L::=B L::=B L::=B L::=B L::=B L::=B L::=B L::=B L::=B L::=B L::=B L::=B L::=B L::=B L::=B L::=B L::=B L::=B L::=B L::=B L::=B L::=B L::=B L::=B L::=B L::=B L::=B L::=B L::=B L::=B L::=B L::=B L::=B L::=B L::=B L::=B L::=B L::=B L::=B L::=B L::=B L::=B L::=B L::=B L::=B L::=B L::=B L::=B L::=B L::=B L::=B L::=B L::=B L::=B L::=B L::=B L::=B L::=B L::=B L::=B L::=B L::=B L::=B L::=B L::=B L::=B L::=B L::=B L::=B L::=B L::=B L::=B L::=B L::=B L::=B L::=B L::=B L::=B L::=B L::=B L::=B L::=B L::=B L::=B L::=B L::=B L::=B L::=B L::=B L::=B L::=B L::=B L::=B L::=B L::=B L::=B L::=B L::=B L::=B L::=B L::=B L::=B L::=B L::=B L::=B L::=B L::=B L::=B L::=B L::=B L::=B L::=B L::=B L::=B L::=B L::=B L::=B L::=B L::=B L::=B L::=B L::=B L::=B L::=B L::=B L::=B L::=B L::=B L::=B L::=B L::=B L::=B L::=B L::=B L::=B L::=B L::=B L::=B L::=B L::=B L::=B L::=B L::=B L::=B L::=B L::=B L::=B L::=B L::=B L::=B L::=B L::=B L::=B L::=B L::=B L::=B L::=B L::=B L::=B L::=B L::=B L::=B L::=B L::=B L::=B L::=B L::=B L::=B L::=B L::=B L::=B L::=B L::=B L::=B L::=B L::=B L::=B L::=B L::=B L::=B L::=B L::=B L::=B L::=B L::=B L::=B L::=B L::=B L::=B L::=B L::=B L::=B L::=B L::=B L::=B L::=B L::=B L::=B L::=B L::=B L::=B L::=B L::=B L::=B L::=B L::=B L::=B L::=B L::=B L::=B L::=B L::=B L::=B L::=B L::=B L::=B L::=B L::=B L::=B L::=B L::=B L::=B L::=B L::=B L::=B L::=B L::=B L::=B L::=B L::=B L::=B L::=B L::=B L::=B L::=B L::=B L::=B L::=B L::=B L::=B L::=B L::=B L::=B L::=B L::=B L::=B L::=B L::=B L::=B L::=B L::=B L::=B L::=B L::=B L::=B L::=B L::=B L::=B L::=B L::=B L::=B L::=B L::=B L::=B L::=B L::=B L::=B L::=B L::=B L::=B L::=B L::=B L::=B L::=B L::=B L::=B L::=B L::=B L::=B L::=B L::=B L::=B L::=B L::=B J::=B J::=B J::=B J::=B J::=B J::=B J::=B J::=B J::=B J::=B J::=B J::=B J::=B J::=B J::=B J::=B J::=B J::=B J::=B J::=B J::=B J::=B J::=B J::=B J::=B J::=B J::=B J::=B J::=B J::=B J::=B J::=B J::=B J::=B J::=B J::=B J::=B J::=B J::=B J::=B J::=B J::=B J::=B J::=B J::=B J::=B J::=B J::=B J::=B J::=B J::=B J::=B J::=B J::=B J::=B J::=B J::=B J::=B J::=B J::=B J::=B J::=B J::=B J::=B J::=B J::=B J::=B J::=B J::=B J::=B J::=B J::=B J::=B J::=B J::=B J::=B J::=B J::=B J::=B J::=B J::=B J::=B J::=B J::=B J::=B J::=B J::=B J::=B J::=B J::=B J::=B J::=B J::=B J::=B J::=B J::=B J::=B J::=B J::=B J::=B J::=B J::=B J::=B J::=B J::=B J::=B J::=B J::=B J::=B J::=B J::=B J::=B J::=B J::=B J::=B J::=B J::=B J::=B J::=B J::=B J::=B J::=B J::=B J::=B J::=B J::=B J::=B J::=B J::=B J::=B J::=B J::=B J::=B J::=B J::=B J::=B J::=B J::=B J::=B J::=B J::=B J::=B J::=B J::=B J::=B J::=B J::=B J::=B J::=B J::=B J::=B J::=B J::=B J::=B J::=B J::=B J::=B J::=B J::=B J::=B J::=B J::=B J::=B J::=B J::=B J::=B J::=B J::=B J::=B J::=B J::=B J::=B J::=B J::=B J::=B J::=B J::=B J::=B J::=B J::=B J::=B J::=B J::=B J::=B J::=B J::=B J::=B J::=B J::=B J::=B J::=B J::=B J::=B J::=B J::=B J::=B J::=B J::=B J::=B J::=B J::=B J::=B J::=B J::=B J::=B J::=B J::=B J::=B J::=B J::=B J::=B J::=B J::=B J::=B J::=B J::=B J::=B J::=B J::=B J::=B J::=B J::=B J::=B J::=B J::=B J::=B J::=B J::=B J::=B J::=B J::=B J::=B J::=B J::=B J::=B J::=B J::=B J::=B J::=B J::=B J::=B J::=B J::=B J::=B J::=B J::=B J::=B J::=B J::=B J::=B J::=B J::=B J::=B J::=B J::=B J::=B J::=B J::=B J::=B J::=B J::=B J::=B J::=B J::=B J::=B J::=B J::=B J::=B J::=B J::=B J::=B J::=B J::=B J::=B J::=B J::=B J::=B J::=B J::=B J::=B J::=B J::=B J::=B J::=B J::=B J::=B J::=B J::=B J::=B J::=B J::=B J::=B J::=B J::=B J::=B J::=B J::=B J::=B J::=B J::=B J::=B J::=B J::=B J::=B J::=B J::=B J::=B J::=B J::=B J::=B J::=B J::=B J::=B J::=B J::=B J::=B J::=B J::=B J::=B J::=B J::=B J::=B J::=B J::=B J::=B J::=B J::=B J::=B J::=B J::=B J::=B J::=B J::=B J::=B J::=B J::=B J::=B J::=B J::=B J::=B J::=B J::=B J::=B J::=B J::=B J::=B J::=B J::=B J::=B J::=B J::=B J::=B J::=B J::=B J::=B J::=B J::=B J::=B J::=B J::=B J::=B J::=B J::=B J::=B J::=B J::=B J::=B J::=B J::=B J::=B J::=B J::=B J::=B J::=B J::=B J::=B J::=B J::=B J::=B J::=B J::=B J::=B J::=B J::=B J::=B J::=B J::=B J::=B J::=B J::=B J::=B J::=B J::=B J::=B J::=B J::=B J::=B J::=B J::=B J::=B J::=B J::=B J::=B J::=B J::=B J::=B J::=B J::=B J::=B J::=B J=B J=B J=B J=B J=B J=B J=B J=B J=B J=B J=B J=B J=B J=B J=B J=B J=B J=B J=B J=B J=B J=B J=B J=B J=B J=B J=B J=B J=B J=B J=B J=B J=B J=B J=B J=B J=B J=B J=B J=B J=B J=B J=B J=B J=B J=B J=B J=B J=B J=B J=B J=B J=B J=B J=B J=B J=B J=B J=B J=B J=B J=B J=B J=B J=B J=B J=B J=B J=B J=B J=B J=B J=B J=B J=B J=B J=B J=B J=B J=B J=B J=B J=B J=B J=B J=B J=B J=B J=B J=B J=B J=B J=B J=B J=B J=B J=B J=B J=B J=B J=B J=B I@C I@C I@C I@C I@C I@C I@C I@C I@C I@C I@C I@C I@C I@C I@C I@C I@C I@C I@C I@C I@C I@C I@C I@C I@C I@C I@C I@C I@C I@C I@C I@C I@C I@C I@C I@C I@C I@C I@C I@C I@C I@C I@C I@C I@C I@C I@C I@C I@C I@C I@C I@C I@C I@C I@C I@C I@C I@C I@C I@C I@C I@C I@C I@C I@C I@C I@C I@C I@C I@C I@C I@C I@C I@C I@C I@C I@C I@C I@C I@C I@C I@C I@C I@C I@C I@C I@C I@C I@C I@C I@C I@C I@C I@C I@C I@C I@C I@C I@C I@C I@C I@C I@C I@C I@C I@C I@C I@C I@C I@C I@C I@C I@C I@C I@C I@C I@C I@C I@C I@C I@C I@C I@C I@C I@C I@C I@C I@C I@C I@C I@C I@C I@C I@C I@C I@C I@C I@C I@C I@C I@C I@C I@C I@C I@C I@C I@C I@C I@C I@C I@C I@C I@C I@C I@C I@C I@C I@C I@C I@C I@C I@C I@C I@C I@C I@C I@C I@C I@C I@C I@C I@C I@C I@C I@C I@C I@C I@C I@C I@C I@C I@C I@C I@C I@C I@C I@C I@C I@C I@C I@C I@C I@C I@C I@C I@C I@C I@C I@C I@C I@C I@C I@C I@C I@C I@C I@C I@C I@C I@C I@C I@C I@C I@C I@C I@C I@C I@C I@C I@C I@C I@C I@C I@C I@C I@C I@C I@C I@C I@C I@C I@C I@C I@C I@C I@C I@C I@C I@C I@C I@C I@C I@C I@C I@C I@C I@C I@C I@C I@C I@C I@C I@C I@C I@C I@C I@C I@C I@C I@C I@C I@C I@C I@C I@C I@C I@C I@C I@C I@C I@C I@C I@C I@C I@C I@C I@C I@C I@C I@C I@C I@C I@C I@C I@C I@C I@C I@C I@C I@C I@C I@C I@C I@C I@C I@C I@C I@C I@C I@C I@C I@C I@C I@C I@C I@C I@C I@C I@C I@C I@C I@C I@C I@C I@C I@C I@C I@C I@C I@C I@C I@C I@C I@C I@C I@C I@C I@C I@C I@C I@C I@C I@C I@C I@C I@C I@C I@C I@C I@C I@C I@C I@C I@C I@C I@C I@C I@C I@C I@C I@C I@C I@C I@C I@C I@C I@C I@C I@C I@C I@C I@C I@C I@C I@C I@C I@C I@C I@C I@C I@C I@C I@C I@C I@C I@C I@C I@C I@C I@C I@C I@C I@C I@C I@C I@C I@C I@C I@C I@C I@C I@C I@C I@C I@C I@C I@C I@C I@C I@C I@C I@C I@C I@C I@C I@C I@C I@C I@C I@C I@C I@C I@C I@C I@C I@C I@C I@C I@C I@C I@C I@C I@C I@C I@C I@C I@C I@C I@C I@C I@C I@C I@C I@C I@C I@C I@C I@C I@C I@C I@C I@C I@C I@C I@C I@C I@C I@C I@C I@C I@C I@C I@C I@C I@C I@C I@C I@C I@C I@C I@C I@C I@C I@C I@C I@C I@C I@C I@C I@C I@C I@C I@C I@C I@C I@C I@C I@C I@C I@C I@C I@C I@C I@C I@C I@C I@C I@C I@C I@C I@C I@C I@C I@C I@C I@C I@C I@C I@C I@C I@C I@C I@C I@C I@C I@C I@C I@C I@C I@C I@C I@C I66:B I66:B I66:B I66:B I66:B I66:B I66:B I66:B I66:B I66:B I66:B I66:B I66:B I66:B I66:B I66:B I66:B I66:B I66:B I66:B I66:B I66:B I66:B I66:B I66:B I66:B I66:B I66:B I66:B I66:B I66:B I66:B I66:B I66:B I66:B I66:B I66:B I66:B I66:B I66:B I66:B I66:B I66:B I66:B I66:B I66:B I66:B I66:B I66:B I66:B I66:B I66:B I66:B I66:B I66:B I66:B I66:B I66:B I66:B I66:B I66:B I66:B I66:B I66:B I66:B I66:B I66:B I66:B I66:B I66:B I66:B I66:B I66:B I66:B I66:B I66:B I66:B I66:B I66:B I66:B I66:B I66:B I66:B I66:B I66:B I66:B I66:B I66:B I66:B I66:B I66:B I66:B I66:B I66:B I66:B I66:B I66:B I66:B I66:B I66:B I66:B I66:B I66:B I66:B I66:B I66:B I66:B I66:B I66:B I66:B I66:B I66:B I66:B I66:B I66:B I66:B I66:B I66:B I66:B I66:B I66:B I66:B I66:B I66:B I66:B I66:B I66:B I66:B I66:B I66:B I66:B I66:B I66:B I66:B I66:B I66:B I66:B I66:B I66:B I66:B I66:B I66:B I66:B I66:B I66:B I66:B I66:B I66:B I66:B I66:B I66:B I66:B I66:B I66:B I66:B I66:B I66:B I66:B I66:B I66:B I66:B I66:B I66:B I66:B I66:B I66:B I66:B I66:B I66:B I66:B I66:B I66:B I66:B I66:B I66:B I66:B I66:B I66:B I66:B I66:B I66:B I66:B I66:B I66:B I66:B I66:B I66:B I66:B I66:B I66:B I66:B I66:B I66:B I66:B I66:B I66:B I66:B I66:B I66:B I66:B I66:B I66:B I66:B I66:B I66:B I66:B I66:B I66:B I66:B I66:B I66:B I66:B I66:B I66:B I66:B I66:B I66:B I66:B I66:B I66:B I66:B I66:B I66:B I66:B I66:B I66:B I66:B I66:B I66:B I66:B I66:B I66:B I66:B I66:B I66:B I66:B I66:B I66:B I66:B I66:B I66:B I66:B I66:B I66:B I66:B I66:B I66:B I66:B I66:B I66:B I66:B I66:B I66:B I66:B I66:B I66:B J66:B J66:B J66:B J66:B J66:B J66:B J66:B J66:B J66:B J66:B J66:B J66:B J66:B J66:B J66:B J66:B J66:B J66:B J66:B J66:B J66:B J66:B J66:B J66:B J66:B J66:B J66:B J66:B J66:B J66:B J66:B J66:B J66:B J66:B J66:B J66:B J66:B J66:B J66:B J66:B J66:B J66:B J66:B J66:B J66:B J66:B J66:B J66:B J66:B J66:B J66:B J66:B J66:B J66:B J66:B J66:B J66:B J66:B J66:B J66:B J66:B J66:B J66:B J66:B J66:B J66:B J66:B J66:B J66:B J66:B J66:B J66:B J66:B J66:B J66:B J66:B J66:B J66:B J66:B J66:B J66:B J66:B J66:B J66:B J66:B J66:B J66:B J66:B J66:B J66:B J66:B J66:B J66:B J66:B J66:B J66:B J66:B J66:B J66:B J66:B J66:B J66:B J:B J:B J:B J:B J:B J:B J:B J:B J:B J:B J:B J:B J:B J:B J:B J:B J:B J:B J:B J:B J:B J:B J:B J:B J:B J:B L:B L:B L:B L:B L:B L:B L:B L:B L:B L:B L:B L:B L:B L:B L:B L:B L:B L:B L:B L:B L:B L:B L:B L:B L:B L:B L:B L:B L:B L:B L:B L:B L:B L:B L:B L:B L:B L:B L:B L:B L:B L:B L:B L:B L:B L:B L:B L:B L:B L:B L:B L:B L:B L:B L:B L:B L:B L:B L:B L:B L:B L:B L:B L:B L:B L:B L:B L:B L:B L:B L:B L:B L:B L:B L:B L:B L:B L:B L:B L:B L:B L:B L:B L:B L:B L:B L:B L:B L:B L:B L:B L:B L:B L:B L:B L:B L:B L:B L:B L:B L:B L:B L:B L:B L:B L:B L:B L:B L:B L:B L:B L:B L:B L:B L:B L:B L:B L:B L:B L:B L:B L:B L:B L:B L:B L:B L:B L:B J;;;B J;;;B J;;;B J;;;B J;;;B J;;;B J;;;B J;;;B J;;;B J;;;B J;;;B J;;;B J;;;B J;;;B J;;;B J;;;B J;;;B J;;;B J;;;B J;;;B J;;;B J;;;B J;;;B J;;;B J;;;B J;;;B J;;;B J;;;B J;;;B J;;;B J;;;B J;;;B J;;;B J;;;B J;;;B J;;;B J;;;B J;;;B J;;;B J;;;B J;;;B J;;;B J;;;B J;;;B J;;;B J;;;B J;;;B J;;;B J;;;B J;;;B J;;;B J;;;B J;;;B J;;;B J;;;B J;;;B J;;;B J;;;B J;;;B J;;;B J;;;B J;;;B J;;;B J;;;B J;;;B J;;;B J;;;B J;;;B J;;;B J;;;B J;;;B J;;;B J;;;B J;;;B J;;;B J;;;B J;;;B J;;;B J;;;B J;;;B J;;;B J;;;B J;;;B J;;;B J;;;B J;;;B J;;;B J;;;B J;;;B J;;;B J;;;B J;;;B J;;;B J;;;B J;;;B J;;;B J;;;B J;;;B J;;;B J;;;B J;;;B J;;;B J;;;B J;;;B J;;;B J;;;B J;;;B J;;;B J;;;B J;;;B J;;;B J;;;B J;;;B J;;;B J;;;B J;;;B J;;;B J;;;B J;;;B J;;;B J;;;B J;;;B J;;;B J;;;B J;;;B J;;;B J;;;B J;;;B J;;;B J;;;B J;;;B J;;;B J;;;B J;;;B J;;;B J;;;B J;;;B J;;;B J;;;B J;;;B J;;;B J;;;B J;;;B J;;;B J;;;B J;;;B J;;;B J;;;B J;;;B J;;;B J;;;B J;;;B J;;;B J;;;B J;;;B J;;;B J;;;B J;;;B J;;;B J;;;B J;;;B J;;;B J;;;B J;;;B J;;;B J;;;B J;;;B J;;;B J;;;B J;;;B J;;;B J;;;B J;;;B J;;;B J;;;B J;;;B J;;;B J;;;B J;;;B J;;;B J;;;B J;;;B J;;;B J;;;B J;;;B J;;;B J;;;B J;;;B J;;;B J;;;B J;;;B J;;;B J;;;B J;;;B J;;;B J;;;B J;;;B J;;;B J;;;B J;;;B J;;;B J;;;B J;;;B J;;;B J;;;B J;;;B J;;;B J;;;B J;;;B J;;;B J;;;B J;;;B J;;;B J;;;B J;;;B J;;;B J;;;B J;;;B J;;;B J;;;B J;;;B J;;;B J;;;B J;;;B J;;;B J;;;B J;;;B J;;;B J;;;B J;;;B J;;;B J;;;B J;;;B J;;;B J;;;B J;;;B J;;;B J;;;B J;;;B J;;;B J;;;B J;;;B J;;;B J;;;B J;;;B J;;;B J;;;B J;;;B J;;;B J;;;B J;;;B J;;;B J;;;B J;;;B J;;;B J;;;B G;;;B G;;;B G;;;B G;;;B G;;;B G;;;B G;;;B G;;;B G;;;B G;;;B G;;;B G;;;B G;;;B G;;;B G;;;B G;;;B G;;;B G;;;B G;;;B G;;;B G;;;B G;;;B G;;;B G;;;B G;;;B G;;;B G;;;B G;;;B G;;;B G;;;B G;;;B G;;;B G;;;B G;;;B G;;;B G;;;B G;;;B G;;;B G;;;B G;;;B G;;;B G;;;B G;;;B G;;;B G;;;B G;;;B G;;;B G;;;B G;;;B G;;;B G;;;B G;;;B G;;;B G;;;B G;;;B G;;;B G;;;B G;;;B G;;;B G;;;B G;;;B G;;;B G;;;B G;;;B G;;;B G;;;B G;;;B G;;;B G;;;B G;;;B G;;;B G;;;B G;;;B G;;;B G;;;B G;;;B G;;;B G;;;B G;;;B G;;;B G;;;B G;;;B G;;;B G;;;B G;;;B G;;;B G;;;B G;;;B G;;;B G;;;B G;;;B G;;;B G;;;B G;;;B G;;;B G;;;B G;;;B G;;;B G;;;B G;;;B G;;;B G;;;B G;B G;B G;B G;B G;B G;B G;B G;B G;B G;B G;B G;B G;B G;B G;B G;B G;B G;B G;B G;B G;B G;B G;B G;B G;B G;B G;B G;B G;B G;B G;B G;B G;B G;B G;B G;B G;B G;B G;B G;B G;B G;B G;B G;B G;B G;B G;B G;B G;B G;B G;B G;B G;B G;B G;B G;B G;B G;B G;B G;B G;B G;B G;B G;B G;B G;B G;B G;B G;B G;B G;B G;B G;B G;B G;B G;B G;B G;B G;B G;B G;B G;B G;B G;B G;B G;B G;B G;B G;B G;B G;B G;B G;B G;B G;B G;B G;B G;B G;B G;B G;B G;B G;B G;B G;B G;B G;B G;B G;B G;B G;B G;B G;B G;B G;B G;B G;B G;B G;B G;B G;B G;B G;B G;B G;B G;B G;B G;B G;B G;B G;B G;B G;B G;B G;B G;B G;B G;B G;B G;B G;B G;B G;B G;B G;B G;B G;B G;B G;B G;B G;B G;B G;B G;B B>>> B>>> B>>> B>>> B>>> B>>> B>>> B>>> B>>> B>>> B>>> B>>> B>>> B>>> B>>> B>>> B>>> B>>> B>>> B>>> B>>> B>>> B>>> B>>> B>>> B>>> B>>> B>>> B>>> B>>> B>>> B>>> B>>> B>>> B>>> B>>> B>>> B>>> B>>> B>>> B>>> B>>> B>>> B>>> B>>> B>>> B>>> B>>> B>>> B>>> B>>> B>>> B>>> B>>> B>>> B>>> B>>> B>>> B>>> B>>> B>>> B>>> B>>> B>>> B>>> B>>> B>>> B>>> B>>> B>>> B>>> B>>> B>>> B>>> B>>> B>>> B>>> B>>> B>>> B>>> B>>> B>>> B>>> B>>> B>>> B>>> B>>> B>>> B>>> B>>> B>>> B>>> B>>> B>>> B>>> B>>> B>>> B>>> B>>> B>>> B>>> B>>> B>>> B>>> B>>> B>>> B>>> B>>> B>>> B>>> B>>> B>>> B>>> B>>> B>>> B>>> B>>> B>>> B>>> B>>> B>>> B>>> B>>> B>>> B>>> B>>> B>>> B>>> B>>> B>>> B>>> B>>> B>>> B>>> B>>> B>>> B>>> B>>> B>>> B>>> B>>> B>>> B>>> B>>> B>>> B>>> B>>> B>>> B>>> B>>> B>>> B>>> B>>> B>>> B>>> B>>> B>>> B>>> B>>> B>>> B>>> B>>> B>>> B>>> B>>> B>>> B>>> B>>> B>>> B>>> B>>> B>>> B>>> B>>> B>>> B>>> B>>> B>>> B>>> B>>> B>>> B>>> B>>> B>>> B>>> B>>> B>>> B>>> B>>> B>>> B>>> B>>> B>>> B>>> B>>> B>>> B>>> B>>> B>>> B>>> B>>> B>>> B>>> B>>> B>>> B>>> B>>> B>>> B>>> B>>> B>>> B>>> B>>> B>>> B>>> B>>> B>>> B>>> B>>> B>>> B>>> B>>> B>>> B>>> B>>> B>>> B>>> B>>> B>>> B>>> B>>> B>>> B>>> B>>> B>>> B>>> B>>> B>>> B>>> B>>> B>>> B>>> B>>> B>>> B>>> B>>> B>>> B>>> B>>> B>>> B>>> B>>> B>>> B>>> B>>> B>>> G>>> G>>> G>>> G>>> G>>> G>>> G>>> G>>> G>>> G>>> G>>> G>>> G>>> G>>> G>>> G>>> G>>> G>>> G>>> G>>> G>>> G>>> G>>> G>>> G>>> G>>> G>>> G>>> G>>> G>>> G>>> G>>> G>>> G>>> G>>> G>>> G>>> G>>> G>>> G>>> G>>> G>>> G>>> G>>> G>>> G>>> G>>> G>>> G>>> G>>> G>>> G>>> G>>> G>>> G>>> G>>> G>>> G>>> G>>> G>>> G>>> G>>> G>>> G>>> G>>> G>>> G>>> G>>> G>>> G>>> G>>> G>>> G>>> G>>> G>>> G>>> G>>> G>>> G>>> G>>> G>>> G>>> G>>> G>>> G>>> G>>> G>>> G>>> G>>> G>>> G>>> G>>> G>>> G>>> G>>> G>>> G>>> G>>> G>>> G>>> G>>> G>>> G> G> G> G> G> G> G> G> G> G> G> G> G> G> G> G> G> G> G> G> G> G> G> G> G> G> G> G> G> G> G> G> G> G> G> G> G> G> G> G> G> G> G> G> G> G> G> G> G> G> G> G> G> G> G> G> G> G> G> G> G> G> G> G> G> G> G> G> G> G> G> G> G> G> G> G> G> G> G> G> G> G> G> G> G> G> G> G> G> G> G> G> G> G> G> G> G> G> G> G> G> G> G> G> G> G> G> G> G> G> G> G> G> G> G> G> G> G> G> G> G> G> G> G> G> G> G> G> G> G> G> G> G> G> G> G> G> G> G> G> G> G> G> G> G> G> G> G> G> G> G> G> G> G> J66;> J66;> J66;> J66;> J66;> J66;> J66;> J66;> J66;> J66;> J66;> J66;> J66;> J66;> J66;> J66;> J66;> J66;> J66;> J66;> J66;> J66;> J66;> J66;> J66;> J66;> J66;> J66;> J66;> J66;> J66;> J66;> J66;> J66;> J66;> J66;> J66;> J66;> J66;> J66;> J66;> J66;> J66;> J66;> J66;> J66;> J66;> J66;> J66;> J66;> J66;> J66;> J66;> J66;> J66;> J66;> J66;> J66;> J66;> J66;> J66;> J66;> J66;> J66;> J66;> J66;> J66;> J66;> J66;> J66;> J66;> J66;> J66;> J66;> J66;> J66;> J66;> J66;> J66;> J66;> J66;> J66;> J66;> J66;> J66;> J66;> J66;> J66;> J66;> J66;> J66;> J66;> J66;> J66;> J66;> J66;> J66;> J66;> J66;> J66;> J66;> J66;> J66;> J66;> J66;> J66;> J66;> J66;> J66;> J66;> J66;> J66;> J66;> J66;> J66;> J66;> J66;> J66;> J66;> J66;> J66;> J66;> J66;> J66;> J66;> J66;> J66;> J66;> J66;> J66;> J66;> J66;> J66;> J66;> J66;> J66;> J66;> J66;> J66;> J66;> J66;> J66;> J66;> J66;> J66;> J66;> J66;> J66;> J66;> J66;> J66;> J66;> J66;> J66;> J66;> J66;> J66;> J66;> J66;> J66;> J66;> J66;> J66;> J66;> J66;> J66;> J66;> J66;> J66;> J66;> J66;> I66;> I66;> I66;> I66;> I66;> I66;> I66;> I66;> I66;> I66;> I66;> I66;> I66;> I66;> I66;> I66;> I66;> I66;> I66;> I66;> I66;> I66;> I66;> I66;> I66;> I66;> I66;> I66;> I66;> I66;> I66;> I66;> I66;> I66;> I66;> I66;> I66;> I66;> I66;> I66;> I66;> I66;> I66;> I66;> I66;> I66;> I66;> I66;> I66;> I66;> I66;> I66;> I66;> I66;> I66;> I66;> I66;> I66;> I66;> I66;> I66;> I66;> I66;> I66;> I66;> I66;> I66;> I66;> I66;> I66;> I66;> I66;> I66;> I66;> I66;> I66;> I66;> I66;> I66;> I66;> I66;> I66;> I66;> I66;> I66;> I66;> I66;> I66;> I66;> I66;> I66;> I66;> I66;> I66;> I66;> I66;> I66;> I66;> I66;> I66;> I66;> I66;> I66;> I66;> I66;> I66;> I66;> I66;> I66;> I66;> I66;> I66;> I66;> I66;> I66;> I66;> I66;> I66;> I66;> I66;> I66;> I66;> I66;> I66;> I66;> I66;> I66;> I66;> I66;> I66;> I66;> I66;> I66;> I66;> I66;> I66;> I66;> I66;> I66;> I66;> I66;> I66;> I66;> I66;> I66;> I66;> I66;> I66;> I66;> I66;> I66;> I66;> I66;> I66;> I66;> I66;> I66;> I66;> I66;> I66;> I66;> I66;> I66;> I66;> I66;> I66;> I66;> I66;> I66;> I66;> G66;> G66;> G66;> G66;> G66;> G66;> G66;> G66;> G66;> G66;> G66;> G66;> G66;> G66;> G66;> G66;> G66;> G;> G;> G;> G;> G;> G;> G;> G;> G;> G;> G;> G;> G;> G;> G;> G;> G;> G;> G;> G;> G;> G;> G;> G;> G;> G;> G;> G;> G;> G;> G;> G;> G;> G;> G;> G;> G;> G;> G;> G;> G;> G;> G;> G;> G;> G;> G;> G;> G;> G;> G;> G;> G;> G;> G;> G;> G;> G;> G;> G;> G;> G;> G;> G;> G;> G;> G;> G;> G;> G;> G;> G;> G;> G;> G;> G;> G;> G;> G;> G;> G;> G;> G;> G;> G;> G;> G;> G;> G;> G;> G;> G;> G;> G;> G;> G;> G;> G;> G;> G;> G;> G;> G;> G;> G;> G;> G;> G;> G;> G;> G;> G;> G;> G;> G;> G;> G;> G;> G;> G;> G;> G;> G;> G;> G;> G;> G;> G;> G;> G;> G;> G;> G;> G;> G;> G;> G;> G;> G;> G;> G;> G;> G;> G;> G;> G;> G;> G;> G;> G;> G;> G;> G;> G;> L::= L::= L::= L::= L::= L::= L::= L::= L::= L::= L::= L::= L::= L::= L::= L::= L::= L::= L::= L::= L::= L::= L::= L::= L::= L::= L::= L::= L::= L::= L::= L::= L::= L::= L::= L::= L::= L::= L::= L::= L::= L::= L::= L::= L::= L::= L::= L::= L::= L::= L::= L::= L::= L::= L::= L::= L::= L::= L::= L::= L::= L::= L::= L::= L::= L::= L::= L::= L::= L::= L::= L::= L::= L::= L::= L::= L::= L::= L::= L::= L::= L::= L::= L::= L::= L::= L::= L::= L::= L::= L::= L::= L::= L::= L::= L::= L::= L::= L::= L::= L::= L::= L::= L::= L::= L::= L::= L::= L::= L::= L::= L::= L::= L::= L::= L::= L::= L::= L::= L::= L::= L::= L::= L::= L::= L::= L::= L::= L::= L::= L::= L::= L::= L::= L::= L::= L::= L::= L::= L::= L::= L::= L::= L::= L::= L::= L::= L::= L::= L::= L::= L::= L::= L::= L::= L::= L::= L::= L::= L::= L::= L::= L::= L::= L::= L::= L::= L::= L::= L::= L::= J::= J::= J::= J::= J::= J::= J::= J::= J::= J::= J::= J::= J::= J::= J::= J::= J::= J::= J::= J::= J::= J::= J::= J::= J::= J::= J::= J::= J::= J::= J::= J::= J::= J::= J::= J::= J::= J::= J::= J::= J::= J::= J::= J::= J::= J::= J::= J::= J::= J::= J::= J::= J::= J::= J::= J::= J::= J::= J::= J::= J::= J::= J::= J::= J::= J::= J::= J::= J::= J::= J::= J::= J::= J::= J::= J::= J::= J::= J::= J::= J::= J::= J::= J::= J::= J::= J::= J::= J::= J::= J::= J::= J::= J::= J::= J::= J::= J::= J::= J::= J::= J::= J::= J::= J::= J::= J::= J::= J::= J::= J::= J::= J::= J::= J::= J::= J::= J::= J::= J::= J::= J::= J::= J::= J::= J::= J::= J::= J::= J::= J::= J::= J::= J::= J::= J::= J::= J::= J::= J::= J::= J::= J::= J::= J::= J::= J::= J::= J::= J::= J::= J::= J::= J::= J::= J::= J::= J::= J::= J::= J::= J::= J::= J::= J::= J::= J::= J::= J::= J::= I::= I::= I::= I::= I::= I::= I::= I::= I::= I::= I::= I::= I::= I::= I::= I::= I::= I= I= I= I= I= I= I= I= I= I= I= I= I= I= I= I= I= I= I= I= I= I= I= I= I= I= I= I= I= I= I= I= I= I= I= I= I= I= I= I= I= I= I= I= I= I= I= I= I= I= I= I= I= I= I= I= I= I= I= I= I= I= I= I= I= I= I= I= I= I= I= I= I= I= I= I= I= I= I= I= I= I= I= I= I= I= I= I= I= I= I= I= I= I= I= I= I= I= I= I= I= I= I= I= I= I= I= I= I= I= I= I= I= I= I= I= I= I= I= I= I= I= I= I= I= I= I= I= I= I= I= I= I= I= I= I= I= I= I= I= I= I= I= I= I= I= I= I= I= I= I= I= I= I= J//;>B J//;>B J//;>B J//;>B J//;>B J//;>B J//;>B J//;>B J//;>B J//;>B J//;>B J//;>B J//;>B J//;>B J//;>B J//;>B J//;>B J//;>B J//;>B J//;>B J//;>B J//;>B J//;>B J//;>B J//;>B J//;>B J//;>B J//;>B J//;>B J//;>B J//;>B J//;>B J//;>B J//;>B J//;>B J//;>B J//;>B J//;>B J//;>B J//;>B J//;>B J//;>B J//;>B J//;>B J//;>B J//;>B J//;>B J//;>B J//;>B J//;>B J//;>B J//;>B J//;>B J//;>B J//;>B J//;>B J//;>B J//;>B J//;>B J//;>B J//;>B J//;>B J//;>B J//;>B J//;>B J//;>B J//;>B J//;>B J//;>B J//;>B J//;>B J//;>B J//;>B J//;>B J//;>B J//;>B J//;>B J//;>B J//;>B J//;>B J//;>B J//;>B J//;>B J//;>B J//;>B J//;>B J//;>B J//;>B J//;>B J//;>B J//;>B J//;>B J//;>B J//;>B J//;>B J//;>B J//;>B J//;>B J//;>B J//;>B J//;>B J//;>B J//;>B J//;>B J//;>B J//;>B J//;>B J//;>B J//;>B J//;>B J//;>B J//;>B J//;>B J//;>B J//;>B J//;>B J//;>B J//;>B J//;>B J//;>B J//;>B J//;>B J//;>B J//;>B J//;>B J//;>B J//;>B J//;>B J//;>B J//;>B J//;>B J//;>B J//;>B J//;>B J//;>B J//;>B J//;>B J//;>B J//;>B J//;>B J//;>B J//;>B J//;>B J//;>B J//;>B J//;>B J//;>B J//;>B J//;>B J//;>B J//;>B J//;>B J//;>B J//;>B J//;>B J//;>B J//;>B J//;>B J//;>B J//;>B J//;>B J//;>B J//;>B J//;>B J//;>B J//;>B J//;>B J//;>B J//;>B J//;>B J//;>B J//;>B J//;>B J//;>B J//;>B J//;>B J//;>B J//;>B J//;>B J//;>B J//;>B J//;>B J//;>B J//;>B J//;>B J//;>B J//;>B J//;>B J//;>B J//;>B J//;>B J//;>B J//;>B J//;>B J//;>B J//;>B J//;>B J//;>B J//;>B J//;>B J//;>B J//;>B J//;>B J//;>B J//;>B J//;>B J//;>B J//;>B J//;>B J//;>B J//;>B J//;>B J//;>B J//;>B J//;>B J//;>B J//;>B J//;>B J//;>B J//;>B J//;>B J//;>B J//;>B J//;>B J//;>B J//;>B J//;>B J//;>B J//;>B J//;>B J//;>B J//;>B J//;>B J//;>B J//;>B J//;>B J//;>B J//;>B J//;>B J//;>B J//;>B J//;>B J//;>B J//;>B J//;>B J//;>B J//;>B J//;>B J//;>B J//;>B J//;>B J//;>B J//;>B J//;>B J//;>B J//;>B N//;>B N//;>B N//;>B N//;>B N//;>B N//;>B N//;>B N//;>B N//;>B N//;>B N//;>B N//;>B N//;>B N//;>B N//;>B N//;>B N//;>B N//;>B N//;>B N//;>B N//;>B N//;>B N//;>B N//;>B N//;>B N//;>B N//;>B N//;>B N//;>B N//;>B N//;>B N//;>B N//;>B N//;>B N//;>B N//;>B N//;>B N//;>B N//;>B N//;>B N//;>B N//;>B N//;>B N//;>B N//;>B N//;>B N//;>B N//;>B N//;>B N//;>B N//;>B N//;>B N//;>B N//;>B N//;>B N//;>B N//;>B N//;>B N//;>B N//;>B N//;>B N//;>B N//;>B N//;>B N//;>B N//;>B N//;>B N//;>B N//;>B N//;>B N//;>B N//;>B N//;>B N//;>B N//;>B N//;>B N//;>B N//;>B N//;>B N//;>B N//;>B N//;>B N//;>B N//;>B N//;>B N//;>B N//;>B N//;>B N//;>B N//;>B N//;>B N//;>B N//;>B N//;>B N//;>B N//;>B N//;>B N//;>B N//;>B N//;>B N//;>B N//;>B N;>B N;>B N;>B N;>B N;>B N;>B N;>B N;>B N;>B N;>B N;>B N;>B N;>B N;>B N;>B N;>B N;>B N;>B N;>B N;>B N;>B N;>B N;>B N;>B N;>B N;>B N;>B N;>B N;>B N;>B N;>B N;>B N;>B N;>B N;>B N;>B N;>B N;>B N;>B N;>B N;>B N;>B N;>B N;>B N;>B N;>B N;>B N;>B N;>B N;>B N;>B N;>B N;>B N;>B N;>B N;>B N;>B N;>B N;>B N;>B N;>B N;>B N;>B N;>B N;>B N;>B N;>B N;>B N;>B N;>B N;>B N;>B N;>B N;>B N;>B N;>B N;>B N;>B N;>B N;>B N;>B N;>B N;>B N;>B N;>B N;>B N;>B N;>B N;>B N;>B N;>B N;>B N;>B N;>B N;>B N;>B N;>B N;>B N;>B N;>B N;>B N;>B N;>B N;>B N;>B N;>B N;>B N;>B N;>B N;>B N;>B N;>B N;>B N;>B N;>B N;>B N;>B N;>B N;>B N;>B N;>B N;>B N;>B N;>B N;>B N;>B N;>B N;>B N;>B N;>B N;>B N;>B N;>B N;>B N;>B N;>B N;>B N;>B N;>B N;>B N;>B N;>B N;>B N;>B N;>B N;>B N;>B N;>B N;>B N;>B N;>B N;>B N;>B N;>B S;>B; S;>B; S;>B; S;>B; S;>B; S;>B; S;>B; S;>B; S;>B; S;>B; S;>B; S;>B; S;>B; S;>B; S;>B; S;>B; S;>B; S;>B; S;>B; S;>B; S;>B; S;>B; S;>B; S;>B; S;>B; S;>B; S;>B; S;>B; S;>B; S;>B; S;>B; S;>B; S;>B; S;>B; S;>B; S;>B; S;>B; S;>B; S;>B; S;>B; S;>B; S;>B; S;>B; S;>B; S;>B; S;>B; S;>B; S;>B; S;>B; S;>B; S;>B; S;>B; S;>B; S;>B; S;>B; S;>B; S;>B; S;>B; S;>B; S;>B; S;>B; S;>B; S;>B; S;>B; S;>B; S;>B; S;>B; S;>B; S;>B; S;>B; S;>B; S;>B; S;>B; S;>B; S;>B; S;>B; S;>B; S;>B; S;>B; S;>B; S;>B; S;>B; S;>B; S;>B; S;>B; S;>B; S;>B; S;>B; S;>B; S;>B; S;>B; S;>B; S;>B; S;>B; S;>B; S;>B; S;>B; S;>B; S;>B; S;>B; S;>B; S;>B; S;>B; S;>B; S;>B; S;>B; S;>B; S;>B; S;>B; S;>B; S;>B; S;>B; S;>B; S;>B; S;>B; S;>B; S;>B; S;>B; S;>B; S;>B; S;>B; S;>B; S;>B; S;>B; S;>B; S;>B; S;>B; S;>B; S;>B; S;>B; S;>B; S;>B; S;>B; S;>B; S;>B; S;>B; S;>B; S;>B; S;>B; S;>B; S;>B; S;>B; S;>B; S;>B; S;>B; S;>B; S;>B; S;>B; S;>B; S;>B; S;>B; S;>B; S;>B; S;>B; S;>B; S;>B; S;>B; S;>B; S;>B; S;>B; S;>B; S;>B; S;>B; S;>B; S;>B; S;>B; S;>B; S;>B; S;>B; S;>B; S;>B; S;>B; S;>B; S;>B; S;>B; S;>B; S;>B; S;>B; S;>B; S;>B; S;>B; S;>B; S;>B; S;>B; S;>B; S;>B; S;>B; S;>B; S;>B; S;>B; S;>B; S;>B; S;>B; S;>B; S;>B; S;>B; S;>B; S;>B; S;>B; S;>B; S;>B; S;>B; S;>B; S;>B; S;>B; S;>B; S;>B; S;>B; S;>B; S;>B; S;>B; S;>B; S;>B; S;>B; S;>B; S;>B; S;>B; S;>B; S;>B; S;>B; S;>B; S;>B; S;>B; S;>B; S;>B; S;>B; S;>B; S;>B; S;>B; S;>B; S;>B; S;>B; S;>B; S;>B; S;>B; S;>B; S;>B; S;>B; S;>B; S;>B; S;>B; S;>B; S;>B; S;>B; S;>B; S;>B; S;>B; S;>B; S;>B; S;>B; S;>B; S;>B; S;>B; S;>B; S;>B; S;>B; V;>B; V;>B; V;>B; V;>B; V;>B; V;>B; V;>B; V;>B; V;>B; V;>B; V;>B; V;>B; V;>B; V;>B; V;>B; V;>B; V;>B; V;>B; V;>B; V;>B; V;>B; V;>B; V;>B; V;>B; V;>B; V;>B; V;>B; V;>B; V;>B; V;>B; V;>B; V;>B; V;>B; V;>B; V;>B; V;>B; V;>B; V;>B; V;>B; V;>B; V;>B; V;>B; V;>B; V;>B; V;>B; V;>B; V;>B; V;>B; V;>B; V;>B; V;>B; V;>B; V;>B; V;>B; V;>B; V;>B; V;>B; V;>B; V;>B; V;>B; V;>B; V;>B; V;>B; V;>B; V;>B; V;>B; V;>B; V;>B; V;>B; V;>B; V;>B; V;>B; V;>B; V;>B; V;>B; V;>B; V;>B; V;>B; V;>B; V;>B; V;>B; V;>B; V;>B; V;>B; V;>B; V;>B; V;>B; V;>B; V;>B; V;>B; V;>B; V;>B; V;>B; V;>B; V;>B; V;>B; V;>B; V;>B; V;>B; V;>B; V;>B; V;>B; V;>B; V;>B; V;>B; V;>B; V;>B; V;>B; V;>B; V;>B; V;>B; V;>B; V;>B; V;>B; V;>B; V;>B; V;>B; V;>B; V;>B; V;>B; V;>B; V;>B; V;>B; V;>B; V;>B; V;>B; V;>B; V;>B; V;>B; V;>B; V;>B; V;>B; V;>B; V;>B; V;>B; V;>B; V;>B; V;>B; V;>B; V;>B; V;>B; V;>B; V;>B; V;>B; V;>B; V;>B; V;>B; V;>B; V;>B; V;>B; V;>B; V;>B; V;>B; V;>B; V;>B; V;>B; V;>B; V;>B; V;>B; V;>B; V;>B; V;>B; V;>B; V;>B; V;>B; V;>B; V;>B; V;>B; V;>B; V;>B; V;>B; V;>B; V;>B; V;>B; V;>B; V;>B; V;>B; V;>B; V;>B; ;>B; ;>B; ;>B; ;>B; ;>B; ;>B; ;>B; ;>B; ;>B; ;>B; ;>B; ;>B; ;>B; ;>B; ;>B; ;>B; ;>B; ;>B; ;>B; ;>B; ;>B; ;>B; ;>B; ;>B; ;>B; ;>B; ;>B; ;>B; ;>B; ;>B; ;>B; ;>B; ;>B; ;>B; ;>B; ;>B; ;>B; ;>B; ;>B; ;>B; ;>B; ;>B; ;>B; ;>B; ;>B; ;>B; ;>B; ;>B; ;>B; ;>B; ;>B; ;>B; ;>B; ;>B; ;>B; ;>B; ;>B; ;>B; ;>B; ;>B; ;>B; ;>B; ;>B; ;>B; ;>B; ;>B; ;>B; ;>B; ;>B; ;>B; ;>B; ;>B; ;>B; ;>B; ;>B; ;>B; ;>B; U;>B; U;>B; U;>B; U;>B; U;>B; U;>B; U;>B; U;>B; U;>B; U;>B; U;>B; U;>B; U;>B; U;>B; U;>B; U;>B; U;>B; U;>B; U;>B; U;>B; U;>B; U;>B; U;>B; U;>B; U;>B; U;>B; U;>B; U;>B; U;>B; U;>B; U;>B; U;>B; U;>B; U;>B; U;>B; U;>B; U;>B; U;>B; U;>B; U;>B; U;>B; U;>B; U;>B; U;>B; U;>B; U;>B; U;>B; U;>B; U;>B; U;>B; U;>B; U;>B; U;>B; U;>B; U;>B; U;>B; U;>B; U;>B; U;>B; U;>B; U;>B; U;>B; U;>B; U;>B; U;>B; U;>B; U;>B; U;>B; U;>B; U;>B; U;>B; U;>B; U;>B; U;>B; U;>B; U;>B; U;>B; U;>B; U;>B; U;>B; U;>B; U;>B; U;>B; U;>B; U;>B; U;>B; U;>B; U;>B; U;>B; U;>B; U;>B; U;>B; U;>B; U;>B; U;>B; U;>B; U;>B; U;>B; U;>B; U;>B; U;>B; U;>B; U;>B; U;>B; U;>B; U;>B; U;>B; U;>B; U;>B; U;>B; U;>B; U;>B; U;>B; U;>B; U;>B; U;>B; U;>B; U;>B; U;>B; U;>B; U;>B; U;>B; U;>B; U;>B; U;>B; U;>B; U;>B; U;>B; U;>B; U;>B; U;>B; U;>B; U;>B; U;>B; U;>B; U;>B; U;>B; U;>B; U;>B; U;>B; U;>B; U;>B; U;>B; U;>B; U;>B; U;>B; U;>B; U;>B; U;>B; U;>B; U;>B; U;>B; U;>B; U;>B; U;>B; U;>B; U;>B; U;>B; U;>B; U;>B; U;>B; U;>B; U;>B; U;>B; U;>B; U;>B; U;>B; U;>B; U;>B; U;>B; U;>B; U;>B; U;>B; U;>B; U;>B; U;>B; U;>B; U;>B; U;>B; U;>B; U;>B; U;>B; U;>B; U;>B; U;>B; U;>B; U;>B; U;>B; U;>B; U;>B; U;>B; U;>B; U;>B; U;>B; U;>B; U;>B; U;>B; U;>B; U;>B; U;>B; U;>B; U;>B; U;>B; U;>B; U;>B; U;>B; U;>B; U;>B; U;>B; U;>B; U;>B; U;>B; U;>B; U;>B; U;>B; U;>B; U;>B; U;>B; U;>B; U;>B; U;>B; U;>B; U;>B; U;>B; U;>B; U;>B; U;>B; U;>B; U;>B; U;>B; U;>B; U;>B; U;>B; U;>B; U;>B; U;>B; U;>B; U;>B; U;>B; U;>B; U;>B; U;>B; U;>B; U;>B; U;>B; U;>B; U;>B; U;>B; U;>B; U;>B; U;>B; U;>B; U;>B; U;>B; U;>B; U;>B; U>BG> U>BG> U>BG> U>BG> U>BG> U>BG> U>BG> U>BG> U>BG> U>BG> U>BG> U>BG> U>BG> U>BG> U>BG> U>BG> U>BG> U>BG> U>BG> U>BG> U>BG> U>BG> U>BG> U>BG> U>BG> U>BG> U>BG> U>BG> U>BG> U>BG> U>BG> U>BG> U>BG> U>BG> U>BG> U>BG> U>BG> U>BG> U>BG> U>BG> U>BG> U>BG> U>BG> U>BG> U>BG> U>BG> U>BG> U>BG> U>BG> U>BG> U>BG> U>BG> U>BG> U>BG> U>BG> U>BG> U>BG> U>BG> U>BG> U>BG> U>BG> U>BG> U>BG> U>BG> U>BG> U>BG> U>BG> U>BG> U>BG> U>BG> U>BG> U>BG> U>BG> U>BG> U>BG> U>BG> U>BG> U>BG> U>BG> U>BG> U>BG> U>BG> U>BG> U>BG> U>BG> U>BG> U>BG> U>BG> U>BG> U>BG> U>BG> U>BG> U>BG> U>BG> U>BG> U>BG> U>BG> U>BG> U>BG> U>BG> U>BG> U>BG> U>BG> U>BG> U>BG> U>BG> U>BG> U>BG> U>BG> U>BG> U>BG> U>BG> U>BG> U>BG> U>BG> U>BG> U>BG> U>BG> U>BG> U>BG> U>BG> U>BG> U>BG> U>BG> U>BG> U>BG> U>BG> U>BG> U>BG> U>BG> U>BG> U>BG> U>BG> U>BG> U>BG> U>BG> U>BG> U>BG> U>BG> U>BG> U>BG> U>BG> U>BG> U>BG> U>BG> U>BG> U>BG> U>BG> U>BG> U>BG> U>BG> U>BG> U>BG> U>BG> U>BG> U>BG> U>BG> U>BG> U>BG> U>BG> U>BG> U>BG> U>BG> U>BG> U>BG> U>BG> U>BG> U>BG> U>BG> U>BG> U>BG> U>BG> U>BG> U>BG> U>BG> U>BG> U>BG> U>BG> U>BG> U>BG> U>BG> U>BG> U>BG> U>BG> U>BG> U>BG> U>BG> U>BG> U>BG> U>BG> U>BG> U>BG> U>BG> U>BG> U>BG> U>BG> U>BG> U>BG> U>BG> U>BG> U>BG> U>BG> U>BG> U>BG> U>BG> >BG> >BG> >BG> >BG> >BG> >BG> >BG> >BG> >BG> >BG> >BG> >BG> >BG> >BG> >BG> >BG> >BG> >BG> >BG> >BG> >BG> >BG> >BG> >BG> >BG> >BG> >BG> >BG> >BG> >BG> >BG> >BG> >BG> >BG> >BG> >BG> >BG> >BG> >BG> >BG> >BG> >BG> >BG> >BG> >BG> >BG> >BG> >BG> >BG> >BG> >BG> M=E== M=E== M=E== M=E== M=E== M=E== M=E== M=E== M=E== M=E== M=E== M=E== M=E== M=E== M=E== M=E== M=E== M=E== M=E== M=E== M=E== M=E== M=E== M=E== M=E== M=E== M=E== M=E== M=E== M=E== M=E== M=E== M=E== M=E== M=E== M=E== M=E== M=E== M=E== M=E== M=E== M=E== M=E== M=E== M=E== M=E== M=E== M=E== M=E== M=E== M=E== M=E== M=E== M=E== M=E== M=E== M=E== M=E== M=E== M=E== M=E== M=E== M=E== M=E== M=E== M=E== M=E== M=E== M=E== M=E== M=E== M=E== M=E== M=E== M=E== M=E== M=E== M=E== M=E== M=E== M=E== M=E== M=E== M=E== M=E== M=E== M=E== M=E== M=E== M=E== M=E== M=E== M=E== M=E== M=E== M=E== M=E== M=E== M=E== M=E== M=E== M=E== M=E== M=E== M=E== M=E== M=E== M=E== M=E== M=E== M=E== M=E== M=E== M=E== M=E== M=E== M=E== M=E== M=E== M=E== M=E== M=E== M=E== M=E== M=E== M=E== M=E== M=E== M=E== M=E== M=E== M=E== M=E== M=E== M=E== M=E== M=E== M=E== M=E== M=E== M=E== M=E== M=E== M=E== M=E== M=E== M=E== M=E== M=E== M=E== M=E== M=E== M=E== M=E== M=E== M=E== M=E== M=E== M=E== M=E== M=E== M=E== M=E== M=E== M=E== M=E== M=E== M=E== M=E== M=E== M=E== M=E== M=E== M=E== M=E== M=E== M=E== M=E== M=E== M=E== M=E== M=E== M=E== M=E== M=E== M=E== M=E== M=E== M=E== M=E== M=E== M=E== M=E== M=E== M=E== M=E== M=E== M=E== M=E== M=E== M=E== M=E== M=E== M=E== M=E== M=E== M=E== M=E== M=E== M=E== M=E== M=E== M=E== M=E== M=E== M=E== M=E== M=E== M=E== M=E== M=E== M=E== M=E== M=E== M=E== M=E== M=E== M=E== M=E== M=E== M=E== M=E== M=E== M=E== M=E== M=E== M=E== M=E== M=E== M=E== M=E== M=E== M=E== M=E== M=E== M=E== M=E== M=E== M=E== M=E== M=E== M=E== M=E== M=E== M=E== M=E== M;C;= M;C;= M;C;= M;C;= M;C;= M;C;= M;C;= M;C;= M;C;= M;C;= M;C;= M;C;= M;C;= M;C;= M;C;= M;C;= M;C;= M;C;= M;C;= M;C;= M;C;= M;C;= M;C;= M;C;= M;C;= M;C;= M;C;= M;C;= M;C;= M;C;= M;C;= M;C;= M;C;= M;C;= M;C;= M;C;= M;C;= M;C;= M;C;= M;C;= M;C;= M;C;= M;C;= M;C;= M;C;= M;C;= M;C;= M;C;= M;C;= M;C;= M;C;= M;C;= M;C;= M;C;= M;C;= M;C;= M;C;= M;C;= M;C;= M;C;= M;C;= M;C;= M;C;= M;C;= M;C;= M;C;= M;C;= M;C;= M;C;= M;C;= M;C;= M;C;= M;C;= M;C;= M;C;= M;C;= M;C;= M;C;= M;C;= M;C;= M;C;= M;C;= M;C;= M;C;= M;C;= M;C;= M;C;= M;C;= M;C;= M;C;= M;C;= M;C;= M;C;= M;C;= M;C;= M;C;= M;C;= M;C;= M;C;= M;C;= M;C;= M;C;= M;C;= M;C;= M;C;= M;C;= M;C;= M;C;= M;C;= M;C;= M;C;= M;C;= M;C;= M;C;= M;C;= M;C;= M;C;= M;C;= M;C;= M;C;= M;C;= M;C;= M;C;= M;C;= M;C;= M;C;= M;C;= M;C;= M;C;= M;C;= M;C;= M;C;= M;C;= M;C;= M;C;= M;C;= M;C;= M;C;= M;C;= M;C;= M;C;= M;C;= M;C;= M;C;= M;C;= M;C;= M;C;= M;C;= M;C;= M;C;= M;C;= M;C;= M;C;= M;C;= M;C;= M;C;= M;C;= M;C;= M;C;= M;C;= M;C;= M;C;= M;C;= M;C;= M;C;= M;C;= M;C;= M;C;= M;C;= M;C;= M;C;= M;C;= M;C;= M;C;= M;C;= M;C;= M;C;= M;C;= M;C;= M;C;= M;C;= M;C;= M;C;= M;C;= M;C;= M;C;= M;C;= M;C;= M;C;= M;C;= M;C;= M;C;= M;C;= M;C;= M;C;= M;C;= M;C;= M;C;= M;C;= M;C;= M;C;= M;C;= M;C;= M;C;= M;C;= M;C;= M;C;= M;C;= M;C;= M;C;= M;C;= M;C;= M;C;= M;C;= M;C;= M;C;= M;C;= M;C;= M;C;= M;C;= M;C;= M;C;= M;C;= M;C;= M;C;= M;C;= M;C;= M;C;= M;C;= M;C;= M;C;= M;C;= M;C;= M;C;= M;C;= M;C;= M;C;= M;C;= M;C;= M;C;= M;C;= M;C;= M;C;= M;C;= M;C;= M;C;= M;C;= M;C;= M;C;= M;C;= M;C;= M;C;= M;C;= M;C;= M;C;= M;C;= M::=B M::=B M::=B M::=B M::=B M::=B M::=B M::=B M::=B M::=B M::=B M::=B M::=B M::=B M::=B M::=B M::=B M::=B M::=B M::=B M::=B M::=B M::=B M::=B M::=B M::=B M::=B M::=B M::=B M::=B M::=B M::=B M::=B M::=B M::=B M::=B M::=B M::=B M::=B M::=B M::=B M::=B M::=B M::=B M::=B M::=B M::=B M::=B M::=B M::=B M::=B M::=B M::=B M::=B M::=B M::=B M::=B M::=B M::=B M::=B M::=B M::=B M::=B M::=B M::=B M::=B M::=B M::=B M::=B M::=B M::=B M::=B M::=B M::=B M::=B M::=B M::=B M::=B M::=B M::=B M::=B M::=B M::=B M::=B M::=B M::=B M::=B M::=B M::=B M::=B M::=B M::=B M::=B M::=B M::=B M::=B M::=B M::=B M::=B M::=B M::=B M::=B M::=B M::=B M::=B M::=B M::=B M::=B M::=B M::=B M::=B M::=B M::=B M::=B M::=B M::=B M::=B M::=B M::=B M::=B M::=B M::=B M::=B M::=B M::=B M::=B M::=B M::=B M::=B M::=B M::=B M::=B M::=B M::=B M::=B M::=B M::=B M::=B M::=B M::=B M::=B M::=B M::=B M::=B M::=B M::=B M::=B M::=B M::=B M::=B M::=B M::=B M::=B M::=B M::=B M::=B M::=B M::=B M::=B M::=B M::=B M::=B M::=B M::=B M::=B M::=B M::=B M::=B M::=B M::=B M::=B M::=B M::=B M::=B M::=B M::=B M::=B M::=B M::=B M::=B M::=B M::=B M::=B M::=B M::=B M::=B M::=B M::=B M::=B M::=B M::=B M::=B M::=B M::=B M::=B M::=B M::=B M::=B M::=B M::=B M::=B M::=B M::=B M::=B M::=B M::=B M::=B M::=B M::=B M::=B M::=B M::=B M::=B M::=B M::=B M::=B M::=B M::=B M::=B M::=B M::=B M::=B M::=B M::=B M::=B M::=B M::=B M::=B M::=B M::=B M::=B M::=B M::=B M::=B M::=B M::=B M::=B M::=B M::=B M::=B M::=B M::=B M::=B M::=B M::=B M::=B M::=B M::=B M::=B M::=B M::=B M::=B M::=B M::=B M::=B M::=B P::=B P::=B P::=B P::=B P::=B P::=B P::=B P::=B P::=B P::=B P::=B P::=B P::=B P::=B P::=B P::=B P::=B P::=B P::=B P::=B P::=B P::=B P::=B P::=B P::=B P::=B P::=B P::=B P::=B P::=B P::=B P::=B P::=B P::=B P::=B P::=B P::=B P::=B P::=B P::=B P::=B P::=B P::=B P::=B P::=B P::=B P::=B P::=B P::=B P::=B P::=B P::=B P::=B P::=B P::=B P::=B P::=B P::=B P::=B P::=B P::=B P::=B P::=B P::=B P::=B P::=B P::=B P::=B P::=B P::=B P::=B P::=B P::=B P::=B P::=B P::=B P::=B P::=B P::=B P::=B P::=B P::=B P::=B P::=B P::=B P::=B P::=B P::=B P::=B P::=B P::=B P::=B P::=B P::=B P::=B P::=B P::=B P::=B P::=B P::=B P::=B P::=B P::=B P::=B P::=B P::=B P::=B P::=B P::=B P::=B P::=B P::=B P::=B P::=B P::=B P::=B P::=B P::=B P::=B P::=B P::=B P::=B P::=B P::=B P::=B P::=B P::=B P::=B P::=B P::=B P::=B P::=B P::=B P::=B P::=B P::=B P::=B P::=B P::=B P::=B P::=B P::=B P::=B P::=B P::=B P::=B P::=B P::=B P::=B P::=B P::=B P::=B P::=B P::=B P::=B P::=B P::=B P::=B P::=B P::=B P::=B P::=B P::=B P::=B P::=B P::=B P::=B P::=B P::=B P::=B P::=B P::=B P::=B P::=B P::=B P::=B P::=B P::=B P::=B P::=B P::=B P::=B P::=B P::=B P::=B P::=B P::=B P::=B P::=B P::=B P::=B P::=B P::=B P::=B P::=B P::=B P::=B P::=B P::=B P::=B P::=B P::=B P::=B P::=B P::=B P::=B P::=B P::=B P::=B P::=B P::=B P::=B P::=B P::=B P::=B P::=B P::=B P::=B P::=B P::=B P::=B P::=B P::=B P::=B P::=B P::=B P::=B P::=B P::=B P::=B P::=B P::=B P::=B P::=B P::=B P::=B P::=B P::=B P::=B P::=B P::=B P::=B P::=B P::=B P::=B P::=B P::=B P::=B P::=B P::=B P::=B P::=B P::=B P::=B P::=B P::=B N::=B N::=B N::=B N::=B N::=B N::=B N::=B N::=B N::=B N::=B N::=B N::=B N::=B N::=B N::=B N::=B N::=B N::=B N::=B N::=B N::=B N::=B N::=B N::=B N::=B N::=B N::=B N::=B N::=B N::=B N::=B N::=B N::=B N::=B N::=B N::=B N::=B N::=B N::=B N::=B N::=B N::=B N::=B N::=B N::=B N::=B N::=B N::=B N::=B N::=B N::=B N::=B N::=B N::=B N::=B N::=B N::=B N::=B N::=B N::=B N::=B N::=B N::=B N::=B N::=B N::=B N::=B N::=B N::=B N::=B N::=B N::=B N::=B N::=B N::=B N::=B N::=B N::=B N::=B N::=B N::=B N::=B N::=B N::=B N::=B N::=B N::=B N::=B N::=B N::=B N::=B N::=B N::=B N::=B N::=B N::=B N::=B N::=B N::=B N::=B N::=B N::=B N::=B N::=B N::=B N::=B N::=B N::=B N::=B N::=B N::=B N::=B N::=B N::=B N::=B N::=B N::=B N::=B N::=B N::=B N::=B N::=B N::=B N::=B N::=B N::=B N::=B N::=B N::=B N::=B N::=B N::=B N::=B N::=B N::=B N::=B N::=B N::=B N::=B N::=B N::=B N::=B N::=B N::=B N::=B N::=B N::=B N::=B N::=B N::=B N::=B N::=B N::=B N::=B N::=B N::=B N::=B N::=B N::=B N::=B N::=B N::=B N::=B N::=B N::=B N::=B N::=B N::=B N::=B N::=B N::=B N::=B N::=B N::=B N::=B N::=B N::=B N::=B N::=B N::=B N::=B N::=B N::=B N::=B N::=B N::=B N::=B N::=B N::=B N::=B N::=B N::=B N::=B N::=B N::=B N::=B N::=B N::=B N::=B N::=B N::=B N::=B N::=B N::=B N::=B N::=B N::=B N::=B N::=B N::=B N::=B N::=B N::=B N::=B N::=B N::=B N::=B N::=B N::=B N::=B N::=B N::=B N::=B N::=B N::=B N::=B N::=B N::=B N::=B N::=B N::=B N::=B N::=B N::=B N::=B N::=B N::=B N::=B N::=B N::=B N::=B N::=B N::=B N::=B N::=B N::=B N::=B N::=B N::=B N::=B N::=B N::=B N::=B N::=B N::=B N::=B M::=B M::=B M::=B M::=B M::=B M::=B M::=B M::=B M::=B M::=B M::=B M::=B M::=B M::=B M::=B M::=B M::=B M::=B M::=B M::=B M::=B M::=B M::=B M::=B M::=B M::=B M::=B M::=B M::=B M::=B M::=B M::=B M::=B M::=B M::=B M::=B M::=B M::=B M::=B M::=B M::=B M::=B M::=B M::=B M::=B M::=B M::=B M::=B M::=B M::=B M::=B M::=B M::=B M::=B M::=B M::=B M::=B M::=B M::=B M::=B M::=B M::=B M::=B M::=B M::=B M::=B M::=B M::=B M::=B M::=B M::=B M::=B M::=B M::=B M::=B M::=B M::=B M::=B M::=B M::=B M::=B M::=B M::=B M::=B M::=B M::=B M::=B M::=B M::=B M::=B M::=B M::=B M::=B M::=B M::=B M::=B M::=B M::=B M::=B M::=B M::=B M::=B M::=B M::=B M::=B M::=B M::=B M::=B M::=B M::=B M::=B M::=B M::=B M::=B M::=B M::=B M::=B M::=B M::=B M::=B M::=B M::=B M::=B M::=B M::=B M::=B M::=B M::=B M::=B M::=B M::=B M::=B M::=B M::=B M::=B M::=B M::=B M::=B M::=B M::=B M::=B M::=B M::=B M::=B M::=B M::=B M::=B M::=B M::=B M::=B M::=B M::=B M::=B M::=B M=B M=B M=B M=B M=B M=B M=B M=B M=B M=B M=B M=B M=B M=B M=B M=B M=B M=B M=B M=B M=B M=B M=B M=B M=B M=B M=B M=B M=B M=B M=B M=B M=B M=B M=B M=B M=B M=B M=B M=B M=B M=B M=B M=B M=B M=B M=B M=B M=B M=B M=B M=B M=B M=B M=B M=B M=B M=B M=B M=B M=B M=B M=B M=B M=B M=B M=B M=B M=B M=B M=B M=B M=B M=B M=B M=B M=B M=B M=B M=B M=B M=B M=B M=B M=B M=B M=B M=B M=B M=B M=B M=B M=B M=B M=B M=B M=B M=B M=B M=B M=B M=B N N N N N N N N N N N N N N N N N N N N N N N N N N N N N N N N N N N N N N N N N N N N N N N N N N N N N N N N N N N N N N N N N N N N N N N N N N N N N N N N N N N N N N N N N N N N N N N N N N N N N N N N N N N N N N N N N N N N N N N N N N N N N N N N N N N N N N N N N N N N N N N N N N N N N N N N N N N N N N N N N N N N N N N N N N N N N N N N N N N N N N N N N N N N N N N N N N N N N N N N N N N N N N N N N N N N N N N N N N N N N N N N N N N N N N N N N N N N N N N N N N N N N N N N N N N N N N N N I I I I I I I I I I I I I I I I I I I I I I I I I I I I I I I I I I I I I I I I I I I I I I I I I I I I I I I I I I I I I I I I I I I I I I I I I I I I I I I I I I I I I I I I I I I I I I I I I I I I I I I I I I I I I I I I I I I I I I I I I I I I I I I I I I I I I I I I I I I I I I I I I I I I I I I I I I I I I I I I I I I I I I I I I I I I I I I I I I I I I I I I I I I I I I I I I I I I I I I I I I I I I I I I I I I I I I I I I I I I I I I I I I I I I I I I I I I I I I I I I I I I I I I I I I I I I I I I J;;>B J;;>B J;;>B J;;>B J;;>B J;;>B J;;>B J;;>B J;;>B J;;>B J;;>B J;;>B J;;>B J;;>B J;;>B J;;>B J;;>B J;;>B J;;>B J;;>B J;;>B J;;>B J;;>B J;;>B J;;>B J;;>B J;;>B J;;>B J;;>B J;;>B J;;>B J;;>B J;;>B J;;>B J;;>B J;;>B J;;>B J;;>B J;;>B J;;>B J;;>B J;;>B J;;>B J;;>B J;;>B J;;>B J;;>B J;;>B J;;>B J;;>B J;;>B J;;>B J;;>B J;;>B J;;>B J;;>B J;;>B J;;>B J;;>B J;;>B J;;>B J;;>B J;;>B J;;>B J;;>B J;;>B J;;>B J;;>B J;;>B J;;>B J;;>B J;;>B J;;>B J;;>B J;;>B J;;>B J;;>B J;;>B J;;>B J;;>B J;;>B J;;>B J;;>B J;;>B J;;>B J;;>B J;;>B J;;>B J;;>B J;;>B J;;>B J;;>B J;;>B J;;>B J;;>B J;;>B J;;>B J;;>B J;;>B J;;>B J;;>B J;;>B J;;>B J;;>B J;;>B J;;>B J;;>B J;;>B J;;>B J;;>B J;;>B J;;>B J;;>B J;;>B J;;>B J;;>B J;;>B J;;>B J;;>B J;;>B J;;>B J;;>B J;;>B J;;>B J;;>B J;;>B J;;>B J;;>B J;;>B J;;>B J;;>B J;;>B J;;>B J;;>B J;;>B J;;>B J;;>B J;;>B J;;>B J;;>B J;;>B J;;>B J;;>B J;;>B J;;>B J;;>B J;;>B J;;>B J;;>B J;;>B J;;>B J;;>B J;;>B J;;>B J;;>B J;;>B J;;>B J;;>B J;;>B J;;>B J;;>B J;;>B J;;>B J;;>B J;;>B J;;>B J;;>B J;;>B J;;>B J;;>B J;;>B J;;>B J;;>B J;;>B J;;>B J;;>B J;;>B J;;>B J;;>B J;;>B J;;>B J;;>B J;;>B J;;>B J;;>B J;;>B J;;>B J;;>B J;;>B J;;>B J;;>B J;;>B J;;>B J;;>B J;;>B J;;>B J;;>B J;;>B J;;>B J;;>B J;;>B J;;>B J;;>B J;;>B J;;>B J;;>B J;;>B J;;>B J;;>B J;;>B J;;>B J;;>B J;;>B J;;>B J;;>B J;;>B J;;>B J;;>B J;;>B J;;>B J;;>B J;;>B J;;>B J;;>B J;;>B J;;>B J;;>B J;;>B J;;>B J;;>B J;;>B J;;>B J;;>B J;;>B J;;>B J;;>B J;;>B J;;>B J;;>B J;;>B J;;>B J;;>B J;;>B J;;>B J;;>B J;;>B J;;>B J;;>B J;;>B J;;>B J;;>B J;;>B J;;>B J;;>B J;;>B J;;>B G;;>B G;;>B G;;>B G;;>B G;;>B G;;>B G;;>B G;;>B G;;>B G;;>B G;;>B G;;>B G;;>B G;;>B G;;>B G;;>B G;;>B G;;>B G;;>B G;;>B G;;>B G;;>B G;;>B G;;>B G;;>B G;;>B G;;>B G;;>B G;;>B G;;>B G;;>B G;;>B G;;>B G;;>B G;;>B G;;>B G;;>B G;;>B G;;>B G;;>B G;;>B G;;>B G;;>B G;;>B G;;>B G;;>B G;;>B G;;>B G;;>B G;;>B G;;>B G;;>B G;;>B G;;>B G;;>B G;;>B G;;>B G;;>B G;;>B G;;>B G;;>B G;;>B G;;>B G;;>B G;;>B G;;>B G;;>B G;;>B G;;>B G;;>B G;;>B G;;>B G;;>B G;;>B G;;>B G;;>B G;;>B G;;>B G;;>B G;;>B G;;>B G;;>B G;;>B G;;>B G;;>B G;;>B G;;>B G;;>B G;;>B G;;>B G;;>B G;;>B G;;>B G;;>B G;;>B G;;>B G;;>B G;;>B G;;>B G;;>B G;;>B G;;>B G>B G>B G>B G>B G>B G>B G>B G>B G>B G>B G>B G>B G>B G>B G>B G>B G>B G>B G>B G>B G>B G>B G>B G>B G>B G>B G>B G>B G>B G>B G>B G>B G>B G>B G>B G>B G>B G>B G>B G>B G>B G>B G>B G>B G>B G>B G>B G>B G>B G>B G>B G>B G>B G>B G>B G>B G>B G>B G>B G>B G>B G>B G>B G>B G>B G>B G>B G>B G>B G>B G>B G>B G>B G>B G>B G>B G>B G>B G>B G>B G>B G>B G>B G>B G>B G>B G>B G>B G>B G>B G>B G>B G>B G>B G>B G>B G>B G>B G>B G>B G>B G>B G>B G>B G>B G>B G>B G>B G>B G>B G>B G>B G>B G>B G>B G>B G>B G>B G>B G>B G>B G>B G>B G>B G>B G>B G>B G>B G>B G>B G>B G>B G>B G>B G>B G>B G>B G>B G>B G>B G>B G>B G>B G>B G>B G>B G>B G>B G>B G>B G>B G>B G>B G>B I44=C I44=C I44=C I44=C I44=C I44=C I44=C I44=C I44=C I44=C I44=C I44=C I44=C I44=C I44=C I44=C I44=C I44=C I44=C I44=C I44=C I44=C I44=C I44=C I44=C I44=C I44=C I44=C I44=C I44=C I44=C I44=C I44=C I44=C I44=C I44=C I44=C I44=C I44=C I44=C I44=C I44=C I44=C I44=C I44=C I44=C I44=C I44=C I44=C I44=C I44=C I44=C I44=C I44=C I44=C I44=C I44=C I44=C I44=C I44=C I44=C I44=C I44=C I44=C I44=C I44=C I44=C I44=C I44=C I44=C I44=C I44=C I44=C I44=C I44=C I44=C I44=C I44=C I44=C I44=C I44=C I44=C I44=C I44=C I44=C I44=C I44=C I44=C I44=C I44=C I44=C I44=C I44=C I44=C I44=C I44=C I44=C I44=C I44=C I44=C I44=C I44=C I44=C I44=C I44=C I44=C I44=C I44=C I44=C I44=C I44=C I44=C I44=C I44=C I44=C I44=C I44=C I44=C I44=C I44=C I44=C I44=C I44=C I44=C I44=C I44=C I44=C I44=C I44=C I44=C I44=C I44=C I44=C I44=C I44=C I44=C I44=C I44=C I44=C I44=C I44=C I44=C I44=C I44=C I44=C I44=C I44=C I44=C I44=C I44=C I44=C I44=C I44=C I44=C I44=C I44=C I44=C I44=C I44=C I44=C I44=C I44=C I44=C I44=C I44=C I44=C I44=C I44=C I44=C I44=C I44=C J44=C J44=C J44=C J44=C J44=C J44=C J44=C J44=C J44=C J44=C J44=C J44=C J44=C J44=C J44=C J44=C J44=C J44=C J44=C J44=C J44=C J44=C J44=C J44=C J44=C J44=C J44=C J44=C J44=C J44=C J44=C J44=C J44=C J44=C J44=C J44=C J44=C J44=C J44=C J44=C J44=C J44=C J44=C J44=C J44=C J44=C J44=C J44=C J44=C J44=C J44=C J44=C J44=C J44=C J44=C J44=C J44=C J44=C J44=C J44=C J44=C J44=C J44=C J44=C J44=C J44=C J44=C J44=C J44=C J44=C J44=C J44=C J44=C J44=C J44=C J44=C J44=C J44=C J44=C J44=C J44=C J44=C J44=C J44=C J44=C J44=C J44=C J44=C J44=C J44=C J44=C J44=C J44=C J44=C J44=C J44=C J44=C J44=C J44=C J44=C J44=C J44=C J44=C J44=C J44=C J44=C J44=C J44=C J44=C J44=C J44=C J44=C J44=C J44=C J44=C J44=C J44=C J44=C J44=C J44=C J44=C J44=C J44=C J44=C J44=C J44=C J44=C J44=C J44=C J44=C J44=C J44=C J44=C J44=C J44=C J44=C J44=C J44=C J44=C J44=C J44=C J44=C J44=C J44=C J44=C J44=C J44=C J44=C J44=C J44=C J44=C J44=C J44=C J44=C J44=C J44=C J44=C J44=C J44=C J44=C J44=C J44=C J44=C J44=C J44=C J44=C J44=C J44=C J44=C J44=C L44=C L44=C L44=C L44=C L44=C L44=C L44=C L44=C L44=C L44=C L44=C L44=C L44=C L44=C L44=C L44=C L44=C L=C L=C L=C L=C L=C L=C L=C L=C L=C L=C L=C L=C L=C L=C L=C L=C L=C L=C L=C L=C L=C L=C L=C L=C L=C L=C L=C L=C L=C L=C L=C L=C L=C L=C L=C L=C L=C L=C L=C L=C L=C L=C L=C L=C L=C L=C L=C L=C L=C L=C L=C L=C L=C L=C L=C L=C L=C L=C L=C L=C L=C L=C L=C L=C L=C L=C L=C L=C L=C L=C L=C L=C L=C L=C L=C L=C L=C L=C L=C L=C L=C L=C L=C L=C L=C L=C L=C L=C L=C L=C L=C L=C L=C L=C L=C L=C L=C L=C L=C L=C L=C L=C L=C L=C L=C L=C L=C L=C L=C L=C L=C L=C L=C L=C L=C L=C L=C L=C L=C L=C L=C L=C L=C L=C L=C L=C L=C L=C L=C L=C L=C L=C L=C L=C L=C L=C L=C L=C L=C L=C L=C L=C L=C L=C L=C L=C L=C L=C L=C L=C L=C L=C L=C L=C J55;D J55;D J55;D J55;D J55;D J55;D J55;D J55;D J55;D J55;D J55;D J55;D J55;D J55;D J55;D J55;D J55;D J55;D J55;D J55;D J55;D J55;D J55;D J55;D J55;D J55;D J55;D J55;D J55;D J55;D J55;D J55;D J55;D J55;D J55;D J55;D J55;D J55;D J55;D J55;D J55;D J55;D J55;D J55;D J55;D J55;D J55;D J55;D J55;D J55;D J55;D J55;D J55;D J55;D J55;D J55;D J55;D J55;D J55;D J55;D J55;D J55;D J55;D J55;D J55;D J55;D J55;D J55;D J55;D J55;D J55;D J55;D J55;D J55;D J55;D J55;D J55;D J55;D J55;D J55;D J55;D J55;D J55;D J55;D J55;D J55;D J55;D J55;D J55;D J55;D J55;D J55;D J55;D J55;D J55;D J55;D J55;D J55;D J55;D J55;D J55;D J55;D J55;D J55;D J55;D J55;D J55;D J55;D J55;D J55;D J55;D J55;D J55;D J55;D J55;D J55;D J55;D J55;D J55;D J55;D J55;D J55;D J55;D J55;D J55;D J55;D J55;D J55;D J55;D J55;D J55;D J55;D J55;D J55;D J55;D J55;D J55;D J55;D J55;D J55;D J55;D J55;D J55;D J55;D J55;D J55;D J55;D J55;D J55;D J55;D J55;D J55;D J55;D J55;D J55;D J55;D J55;D J55;D J55;D J55;D J55;D J55;D J55;D J55;D J55;D J55;D J55;D J55;D J55;D J55;D J55;D I55;D I55;D I55;D I55;D I55;D I55;D I55;D I55;D I55;D I55;D I55;D I55;D I55;D I55;D I55;D I55;D I55;D I55;D I55;D I55;D I55;D I55;D I55;D I55;D I55;D I55;D I55;D I55;D I55;D I55;D I55;D I55;D I55;D I55;D I55;D I55;D I55;D I55;D I55;D I55;D I55;D I55;D I55;D I55;D I55;D I55;D I55;D I55;D I55;D I55;D I55;D I55;D I55;D I55;D I55;D I55;D I55;D I55;D I55;D I55;D I55;D I55;D I55;D I55;D I55;D I55;D I55;D I55;D I55;D I55;D I55;D I55;D I55;D I55;D I55;D I55;D I55;D I55;D I55;D I55;D I55;D I55;D I55;D I55;D I55;D I55;D I55;D I55;D I55;D I55;D I55;D I55;D I55;D I55;D I55;D I55;D I55;D I55;D I55;D I55;D I55;D I55;D I55;D I55;D I55;D I55;D I55;D I55;D I55;D I55;D I55;D I55;D I55;D I55;D I55;D I55;D I55;D I55;D I55;D I55;D I55;D I55;D I55;D I55;D I55;D I55;D I55;D I55;D I55;D I55;D I55;D I55;D I55;D I55;D I55;D I55;D I55;D I55;D I55;D I55;D I55;D I55;D I55;D I55;D I55;D I55;D I55;D I55;D I55;D I55;D I55;D I55;D I55;D I55;D I55;D I55;D I55;D I55;D I55;D I55;D I55;D I55;D I55;D I55;D I55;D I55;D I55;D I55;D I55;D I55;D G55;D G55;D G55;D G55;D G55;D G55;D G55;D G55;D G55;D G55;D G55;D G55;D G55;D G55;D G55;D G55;D G55;D G;D G;D G;D G;D G;D G;D G;D G;D G;D G;D G;D G;D G;D G;D G;D G;D G;D G;D G;D G;D G;D G;D G;D G;D G;D G;D G;D G;D G;D G;D G;D G;D G;D G;D G;D G;D G;D G;D G;D G;D G;D G;D G;D G;D G;D G;D G;D G;D G;D G;D G;D G;D G;D G;D G;D G;D G;D G;D G;D G;D G;D G;D G;D G;D G;D G;D G;D G;D G;D G;D G;D G;D G;D G;D G;D G;D G;D G;D G;D G;D G;D G;D G;D G;D G;D G;D G;D G;D G;D G;D G;D G;D G;D G;D G;D G;D G;D G;D G;D G;D G;D G;D G;D G;D G;D G;D G;D G;D G;D G;D G;D G;D G;D G;D G;D G;D G;D G;D G;D G;D G;D G;D G;D G;D G;D G;D G;D G;D G;D G;D G;D G;D G;D G;D G;D G;D G;D G;D G;D G;D G;D G;D G;D G;D G;D G;D G;D G;D G;D G;D G;D G;D G;D G;D G66=B G66=B G66=B G66=B G66=B G66=B G66=B G66=B G66=B G66=B G66=B G66=B G66=B G66=B G66=B G66=B G66=B G66=B G66=B G66=B G66=B G66=B G66=B G66=B G66=B G66=B G66=B G66=B G66=B G66=B G66=B G66=B G66=B G66=B G66=B G66=B G66=B G66=B G66=B G66=B G66=B G66=B G66=B G66=B G66=B G66=B G66=B G66=B G66=B G66=B G66=B G66=B G66=B G66=B G66=B G66=B G66=B G66=B G66=B G66=B G66=B G66=B G66=B G66=B G66=B G66=B G66=B G66=B G66=B G66=B G66=B G66=B G66=B G66=B G66=B G66=B G66=B G66=B G66=B G66=B G66=B G66=B G66=B G66=B G66=B G66=B G66=B G66=B G66=B G66=B G66=B G66=B G66=B G66=B G66=B G66=B G66=B G66=B G66=B G66=B G66=B G66=B G66=B G66=B G66=B G66=B G66=B G66=B G66=B G66=B G66=B G66=B G66=B G66=B G66=B G66=B G66=B G66=B G66=B G66=B G66=B G66=B G66=B G66=B G66=B G66=B G66=B G66=B G66=B G66=B G66=B G66=B G66=B G66=B G66=B G66=B G66=B G66=B G66=B G66=B G66=B G66=B G66=B G66=B G66=B G66=B G66=B G66=B G66=B G66=B G66=B G66=B G66=B G66=B G66=B G66=B G66=B G66=B G66=B G66=B G66=B G66=B G66=B G66=B G66=B G66=B G66=B G66=B G66=B G66=B G66=B G66=B G66=B G66=B G66=B G66=B G66=B G66=B G66=B G66=B G66=B G66=B G66=B G66=B G66=B G66=B G66=B G66=B G66=B G66=B G66=B G66=B G66=B G66=B G66=B G66=B G66=B G66=B G66=B G66=B G66=B G66=B G66=B G66=B G66=B G66=B G66=B G66=B G66=B G66=B G66=B G66=B G66=B G66=B G66=B G66=B G66=B G66=B G66=B G66=B G66=B G66=B G66=B G66=B G66=B G66=B G66=B G66=B G66=B G66=B G66=B G66=B G66=B G66=B G66=B G66=B G66=B G66=B G66=B G66=B G66=B G66=B G66=B G66=B G66=B G66=B G66=B G66=B G66=B G66=B G66=B G66=B G66=B G66=B G66=B G66=B G66=B G66=B G66=B G66=B G66=B G66=B G66=B G66=B G66=B G66=B G66=B G66=B G66=B G66=B G66=B G66=B G66=B G66=B G66=B G66=B G66=B G66=B G66=B G66=B G66=B G66=B G66=B G66=B G66=B G66=B G66=B G66=B G66=B G66=B G66=B G66=B G66=B G66=B G66=B G66=B G66=B G66=B G66=B G66=B G66=B G66=B G66=B G66=B G66=B G66=B G66=B G66=B G66=B G66=B G66=B G66=B G66=B G66=B G66=B G66=B G66=B G66=B G66=B G66=B G66=B G66=B G66=B G66=B G66=B G66=B G66=B G66=B G66=B G66=B G66=B G66=B G66=B G66=B G66=B G66=B G66=B G66=B G66=B G66=B G66=B G66=B G66=B G66=B G66=B G66=B G66=B G66=B G66=B G66=B G66=B G66=B G66=B G66=B G66=B G66=B G66=B G66=B G=B G=B G=B G=B G=B G=B G=B G=B G=B G=B G=B G=B G=B G=B G=B G=B G=B G=B G=B G=B G=B G=B G=B G=B G=B G=B G=B G=B G=B G=B G=B G=B G=B G=B G=B G=B G=B G=B G=B G=B G=B G=B G=B G=B G=B G=B G=B G=B G=B G=B G=B G=B G=B G=B G=B G=B G=B G=B G=B G=B G=B G=B G=B G=B G=B G=B G=B G=B G=B G=B G=B G=B G=B G=B G=B G=B G=B G=B G=B G=B G=B G=B G=B G=B G=B G=B G=B G=B G=B G=B G=B G=B G=B G=B G=B G=B G=B G=B G=B G=B G=B G=B G=B G=B G=B G=B G=B G=B G=B G=B G=B G=B G=B G=B G=B G=B G=B G=B G=B G=B G=B G=B G=B G=B G=B G=B G=B G=B G=B G=B G=B G=B G=B G=B G=B G=B G=B G=B G=B G=B G=B G=B G=B G=B G=B G=B G=B G=B G=B G=B G=B G=B G=B G=B F44=B F44=B F44=B F44=B F44=B F44=B F44=B F44=B F44=B F44=B F44=B F44=B F44=B F44=B F44=B F44=B F44=B F44=B F44=B F44=B F44=B F44=B F44=B F44=B F44=B F44=B F44=B F44=B F44=B F44=B F44=B F44=B F44=B F44=B F44=B F44=B F44=B F44=B F44=B F44=B F44=B F44=B F44=B F44=B F44=B F44=B F44=B F44=B F44=B F44=B F44=B F44=B F44=B F44=B F44=B F44=B F44=B F44=B F44=B F44=B F44=B F44=B F44=B F44=B F44=B F44=B F44=B F44=B F44=B F44=B F44=B F44=B F44=B F44=B F44=B F44=B F44=B F44=B F44=B F44=B F44=B F44=B F44=B F44=B F44=B F44=B F44=B F44=B F44=B F44=B F44=B F44=B F44=B F44=B F44=B F44=B F44=B F44=B F44=B F44=B F44=B F44=B F44=B F44=B F44=B F44=B F44=B F44=B F44=B F44=B F44=B F44=B F44=B F44=B F44=B F44=B F44=B F44=B F44=B F44=B F44=B F44=B F44=B F44=B F44=B F44=B F44=B F44=B F44=B F44=B F44=B F44=B F44=B F44=B F44=B F44=B F44=B F44=B F44=B F44=B F44=B F44=B F44=B F44=B F44=B F44=B F44=B F44=B F44=B F44=B F44=B F44=B F44=B F44=B F44=B F44=B F44=B F44=B F44=B F44=B F44=B F44=B F44=B F44=B F44=B F44=B F44=B F44=B F44=B F44=B F44=B F44=B F44=B F44=B F44=B F44=B F44=B F44=B F44=B F44=B F44=B F44=B F44=B F44=B F44=B F44=B F44=B F44=B F44=B F44=B F44=B F44=B F44=B F44=B F44=B F44=B F44=B F44=B F44=B F44=B F44=B F44=B F44=B F44=B F44=B F44=B F44=B F44=B F44=B F44=B F44=B F44=B F44=B F44=B F44=B F44=B F44=B F44=B F44=B F44=B F44=B F44=B F44=B F44=B F44=B F44=B F44=B F44=B F44=B F44=B F44=B F44=B F44=B F44=B F44=B F44=B F44=B F44=B F44=B F44=B F44=B F44=B F44=B F44=B F44=B F44=B F44=B F44=B F44=B F44=B F44=B F44=B F44=B F44=B F44=B F44=B F44=B F44=B F44=B F44=B F44=B F44=B F44=B F44=B F44=B F44=B F44=B F44=B F44=B F44=B F44=B F44=B F44=B F44=B F44=B F44=B F44=B F44=B F44=B F44=B F44=B F44=B F44=B F44=B F44=B F44=B F44=B F44=B F44=B F44=B F44=B F44=B F44=B F44=B F44=B F44=B F44=B F44=B F44=B F44=B F44=B F44=B F44=B F44=B F44=B F44=B F44=B F44=B F44=B F44=B F44=B F44=B F44=B F44=B F44=B F44=B F44=B F44=B F44=B F44=B F44=B F44=B F44=B F44=B F44=B F44=B F44=B F44=B F44=B F44=B F44=B F44=B F44=B F44=B F44=B F44=B F44=B F44=B F44=B F44=B F44=B F44=B F44=B F44=B F44=B F44=B F44=B F44=B F44=B F44=B F44=B F44=B F44=B F44=B F44=B F44=B F44=B F44=B F=B F=B F=B F=B F=B F=B F=B F=B F=B F=B F=B F=B F=B F=B F=B F=B F=B F=B F=B F=B F=B F=B F=B F=B F=B F=B F=B F=B F=B F=B F=B F=B F=B F=B F=B F=B F=B F=B F=B F=B F=B F=B F=B F=B F=B F=B F=B F=B F=B F=B F=B F=B F=B F=B F=B F=B F=B F=B F=B F=B F=B F=B F=B F=B F=B F=B F=B F=B F=B F=B F=B F=B F=B F=B F=B F=B F=B F=B F=B F=B F=B F=B F=B F=B F=B F=B F=B F=B F=B F=B F=B F=B F=B F=B F=B F=B F=B F=B F=B F=B F=B F=B F=B F=B F=B F=B F=B F=B F=B F=B F=B F=B F=B F=B F=B F=B F=B F=B F=B F=B F=B F=B F=B F=B F=B F=B F=B F=B F=B F=B F=B F=B F=B F=B F=B F=B F=B F=B F=B F=B F=B F=B F=B F=B F=B F=B F=B F=B F=B F=B F=B F=B F=B F=B F22;B F22;B F22;B F22;B F22;B F22;B F22;B F22;B F22;B F22;B F22;B F22;B F22;B F22;B F22;B F22;B F22;B F22;B F22;B F22;B F22;B F22;B F22;B F22;B F22;B F22;B F22;B F22;B F22;B F22;B F22;B F22;B F22;B F22;B F22;B F22;B F22;B F22;B F22;B F22;B F22;B F22;B F22;B F22;B F22;B F22;B F22;B F22;B F22;B F22;B F22;B F22;B F22;B F22;B F22;B F22;B F22;B F22;B F22;B F22;B F22;B F22;B F22;B F22;B F22;B F22;B F22;B F22;B F22;B F22;B F22;B F22;B F22;B F22;B F22;B F22;B F22;B F22;B F22;B F22;B F22;B F22;B F22;B F22;B F22;B F22;B F22;B F22;B F22;B F22;B F22;B F22;B F22;B F22;B F22;B F22;B F22;B F22;B F22;B F22;B F22;B F22;B F22;B F22;B F22;B F22;B F22;B F22;B F22;B F22;B F22;B F22;B F22;B F22;B F22;B F22;B F22;B F22;B F22;B F22;B F22;B F22;B F22;B F22;B F22;B F22;B F22;B F22;B F22;B F22;B F22;B F22;B F22;B F22;B F22;B F22;B F22;B F22;B F22;B F22;B F22;B F22;B F22;B F22;B F22;B F22;B F22;B F22;B F22;B F22;B F22;B F22;B F22;B F22;B F22;B F22;B F22;B F22;B F22;B F22;B F22;B F22;B F22;B F22;B F22;B F22;B F22;B F22;B F22;B F22;B F22;B B22;B B22;B B22;B B22;B B22;B B22;B B22;B B22;B B22;B B22;B B22;B B22;B B22;B B22;B B22;B B22;B B22;B B22;B B22;B B22;B B22;B B22;B B22;B B22;B B22;B B22;B B22;B B22;B B22;B B22;B B22;B B22;B B22;B B22;B B22;B B22;B B22;B B22;B B22;B B22;B B22;B B22;B B22;B B22;B B22;B B22;B B22;B B22;B B22;B B22;B B22;B B22;B B22;B B22;B B22;B B22;B B22;B B22;B B22;B B22;B B22;B B22;B B22;B B22;B B22;B B22;B B22;B B22;B B22;B B22;B B22;B B22;B B22;B B22;B B22;B B22;B B22;B B22;B B22;B B22;B B22;B B22;B B22;B B22;B B22;B B22;B B22;B B22;B B22;B B22;B B22;B B22;B B22;B B22;B B22;B B22;B B22;B B22;B B22;B B22;B B22;B B22;B B22;B B22;B B22;B B22;B B22;B B22;B B22;B B22;B B22;B B22;B B22;B B22;B B22;B B22;B B22;B B22;B B22;B B22;B B22;B B22;B B22;B B22;B B22;B B22;B B22;B B22;B B22;B B22;B B22;B B22;B B22;B B22;B B22;B B22;B B22;B B22;B B22;B B22;B B22;B B22;B B22;B B22;B B22;B B22;B B22;B B22;B B22;B B22;B B22;B B22;B B22;B B22;B B22;B B22;B B22;B B22;B B22;B B22;B B22;B B22;B B22;B B22;B B22;B B22;B B22;B B22;B B22;B B22;B D22;B D22;B D22;B D22;B D22;B D22;B D22;B D22;B D22;B D22;B D22;B D22;B D22;B D22;B D22;B D22;B D22;B D;B D;B D;B D;B D;B D;B D;B D;B D;B D;B D;B D;B D;B D;B D;B D;B D;B D;B D;B D;B D;B D;B D;B D;B D;B D;B D;B D;B D;B D;B D;B D;B D;B D;B D;B D;B D;B D;B D;B D;B D;B D;B D;B D;B D;B D;B D;B D;B D;B D;B D;B D;B D;B D;B D;B D;B D;B D;B D;B D;B D;B D;B D;B D;B D;B D;B D;B D;B D;B D;B D;B D;B D;B D;B D;B D;B D;B D;B D;B D;B D;B D;B D;B D;B D;B D;B D;B D;B D;B D;B D;B D;B D;B D;B D;B D;B D;B D;B D;B D;B D;B D;B D;B D;B D;B D;B D;B D;B D;B D;B D;B D;B D;B D;B D;B D;B D;B D;B D;B D;B D;B D;B D;B D;B D;B D;B D;B D;B D;B D;B D;B D;B D;B D;B D;B D;B D;B D;B D;B D;B D;B D;B D;B D;B D;B D;B D;B D;B D;B D;B D;B D;B D;B D;B F116@ F116@ F116@ F116@ F116@ F116@ F116@ F116@ F116@ F116@ F116@ F116@ F116@ F116@ F116@ F116@ F116@ F116@ F116@ F116@ F116@ F116@ F116@ F116@ F116@ F116@ F116@ F116@ F116@ F116@ F116@ F116@ F116@ F116@ F116@ F116@ F116@ F116@ F116@ F116@ F116@ F116@ F116@ F116@ F116@ F116@ F116@ F116@ F116@ F116@ F116@ F116@ F116@ F116@ F116@ F116@ F116@ F116@ F116@ F116@ F116@ F116@ F116@ F116@ F116@ F116@ F116@ F116@ F116@ F116@ F116@ F116@ F116@ F116@ F116@ F116@ F116@ F116@ F116@ F116@ F116@ F116@ F116@ F116@ F116@ F116@ F116@ F116@ F116@ F116@ F116@ F116@ F116@ F116@ F116@ F116@ F116@ F116@ F116@ F116@ F116@ F116@ F116@ F116@ F116@ F116@ F116@ F116@ F116@ F116@ F116@ F116@ F116@ F116@ F116@ F116@ F116@ F116@ F116@ F116@ F116@ F116@ F116@ F116@ F116@ F116@ F116@ F116@ F116@ F116@ F116@ F116@ F116@ F116@ F116@ F116@ F116@ F116@ F116@ F116@ F116@ F116@ F116@ F116@ F116@ F116@ F116@ F116@ F116@ F116@ F116@ F116@ F116@ F116@ F116@ F116@ F116@ F116@ F116@ F116@ F116@ F116@ F116@ F116@ F116@ F116@ F116@ F116@ F116@ F116@ F116@ G116@ G116@ G116@ G116@ G116@ G116@ G116@ G116@ G116@ G116@ G116@ G116@ G116@ G116@ G116@ G116@ G116@ G116@ G116@ G116@ G116@ G116@ G116@ G116@ G116@ G116@ G116@ G116@ G116@ G116@ G116@ G116@ G116@ G116@ G116@ G116@ G116@ G116@ G116@ G116@ G116@ G116@ G116@ G116@ G116@ G116@ G116@ G116@ G116@ G116@ G116@ G116@ G116@ G116@ G116@ G116@ G116@ G116@ G116@ G116@ G116@ G116@ G116@ G116@ G116@ G116@ G116@ G116@ G116@ G116@ G116@ G116@ G116@ G116@ G116@ G116@ G116@ G116@ G116@ G116@ G116@ G116@ G116@ G116@ G116@ G116@ G116@ G116@ G116@ G116@ G116@ G116@ G116@ G116@ G116@ G116@ G116@ G116@ G116@ G116@ G116@ G116@ G116@ G116@ G116@ G116@ G116@ G116@ G116@ G116@ G116@ G116@ G116@ G116@ G116@ G116@ G116@ G116@ G116@ G116@ G116@ G116@ G116@ G116@ G116@ G116@ G116@ G116@ G116@ G116@ G116@ G116@ G116@ G116@ G116@ G116@ G116@ G116@ G116@ G116@ G116@ G116@ G116@ G116@ G116@ G116@ G116@ G116@ G116@ G116@ G116@ G116@ G116@ G116@ G116@ G116@ G116@ G116@ G116@ G116@ G116@ G116@ G116@ G116@ G116@ G116@ G116@ G116@ G116@ G116@ I116@ I116@ I116@ I116@ I116@ I116@ I116@ I116@ I116@ I116@ I116@ I116@ I116@ I116@ I116@ I116@ I116@ I6@ I6@ I6@ I6@ I6@ I6@ I6@ I6@ I6@ I6@ I6@ I6@ I6@ I6@ I6@ I6@ I6@ I6@ I6@ I6@ I6@ I6@ I6@ I6@ I6@ I6@ I6@ I6@ I6@ I6@ I6@ I6@ I6@ I6@ I6@ I6@ I6@ I6@ I6@ I6@ I6@ I6@ I6@ I6@ I6@ I6@ I6@ I6@ I6@ I6@ I6@ I6@ I6@ I6@ I6@ I6@ I6@ I6@ I6@ I6@ I6@ I6@ I6@ I6@ I6@ I6@ I6@ I6@ I6@ I6@ I6@ I6@ I6@ I6@ I6@ I6@ I6@ I6@ I6@ I6@ I6@ I6@ I6@ I6@ I6@ I6@ I6@ I6@ I6@ I6@ I6@ I6@ I6@ I6@ I6@ I6@ I6@ I6@ I6@ I6@ I6@ I6@ I6@ I6@ I6@ I6@ I6@ I6@ I6@ I6@ I6@ I6@ I6@ I6@ I6@ I6@ I6@ I6@ I6@ I6@ I6@ I6@ I6@ I6@ I6@ I6@ I6@ I6@ I6@ I6@ I6@ I6@ I6@ I6@ I6@ I6@ I6@ I6@ I6@ I6@ I6@ I6@ I6@ I6@ I6@ I6@ I6@ I6@ I6@ I6@ I6@ I6@ I6@ I6@ J//6> J//6> J//6> J//6> J//6> J//6> J//6> J//6> J//6> J//6> J//6> J//6> J//6> J//6> J//6> J//6> J//6> J//6> J//6> J//6> J//6> J//6> J//6> J//6> J//6> J//6> J//6> J//6> J//6> J//6> J//6> J//6> J//6> J//6> J//6> J//6> J//6> J//6> J//6> J//6> J//6> J//6> J//6> J//6> J//6> J//6> J//6> J//6> J//6> J//6> J//6> J//6> J//6> J//6> J//6> J//6> J//6> J//6> J//6> J//6> J//6> J//6> J//6> J//6> J//6> J//6> J//6> J//6> J//6> J//6> J//6> J//6> J//6> J//6> J//6> J//6> J//6> J//6> J//6> J//6> J//6> J//6> J//6> J//6> J//6> J//6> J//6> J//6> J//6> J//6> J//6> J//6> J//6> J//6> J//6> J//6> J//6> J//6> J//6> J//6> J//6> J//6> J//6> J//6> J//6> J//6> J//6> J//6> J//6> J//6> J//6> J//6> J//6> J//6> J//6> J//6> J//6> J//6> J//6> J//6> J//6> J//6> J//6> J//6> J//6> J//6> J//6> J//6> J//6> J//6> J//6> J//6> J//6> J//6> J//6> J//6> J//6> J//6> J//6> J//6> J//6> J//6> J//6> J//6> J//6> J//6> J//6> J//6> J//6> J//6> J//6> J//6> J//6> J//6> J//6> J//6> J//6> J//6> J//6> J//6> J//6> J//6> J//6> J//6> J//6> J//6> J//6> J//6> J//6> J//6> J//6> I//6> I//6> I//6> I//6> I//6> I//6> I//6> I//6> I//6> I//6> I//6> I//6> I//6> I//6> I//6> I//6> I//6> I//6> I//6> I//6> I//6> I//6> I//6> I//6> I//6> I//6> I//6> I//6> I//6> I//6> I//6> I//6> I//6> I//6> I//6> I//6> I//6> I//6> I//6> I//6> I//6> I//6> I//6> I//6> I//6> I//6> I//6> I//6> I//6> I//6> I//6> I//6> I//6> I//6> I//6> I//6> I//6> I//6> I//6> I//6> I//6> I//6> I//6> I//6> I//6> I//6> I//6> I//6> I//6> I//6> I//6> I//6> I//6> I//6> I//6> I//6> I//6> I//6> I//6> I//6> I//6> I//6> I//6> I//6> I//6> I//6> I//6> I//6> I//6> I//6> I//6> I//6> I//6> I//6> I//6> I//6> I//6> I//6> I//6> I//6> I//6> I//6> I//6> I//6> I//6> I//6> I//6> I//6> I//6> I//6> I//6> I//6> I//6> I//6> I//6> I//6> I//6> I//6> I//6> I//6> I//6> I//6> I//6> I//6> I//6> I//6> I//6> I//6> I//6> I//6> I//6> I//6> I//6> I//6> I//6> I//6> I//6> I//6> I//6> I//6> I//6> I//6> I//6> I//6> I//6> I//6> I//6> I//6> I//6> I//6> I//6> I//6> I//6> I//6> I//6> I//6> I//6> I//6> I//6> I//6> I//6> I//6> I//6> I//6> I//6> I//6> I//6> I//6> I//6> I//6> G//6> G//6> G//6> G//6> G//6> G//6> G//6> G//6> G//6> G//6> G//6> G//6> G//6> G//6> G//6> G//6> G//6> G6> G6> G6> G6> G6> G6> G6> G6> G6> G6> G6> G6> G6> G6> G6> G6> G6> G6> G6> G6> G6> G6> G6> G6> G6> G6> G6> G6> G6> G6> G6> G6> G6> G6> G6> G6> G6> G6> G6> G6> G6> G6> G6> G6> G6> G6> G6> G6> G6> G6> G6> G6> G6> G6> G6> G6> G6> G6> G6> G6> G6> G6> G6> G6> G6> G6> G6> G6> G6> G6> G6> G6> G6> G6> G6> G6> G6> G6> G6> G6> G6> G6> G6> G6> G6> G6> G6> G6> G6> G6> G6> G6> G6> G6> G6> G6> G6> G6> G6> G6> G6> G6> G6> G6> G6> G6> G6> G6> G6> G6> G6> G6> G6> G6> G6> G6> G6> G6> G6> G6> G6> G6> G6> G6> G6> G6> G6> G6> G6> G6> G6> G6> G6> G6> G6> G6> G6> G6> G6> G6> G6> G6> G6> G6> G6> G6> G6> G6> G6> G6> G6> G6> G6> G6> B;;>B B;;>B B;;>B B;;>B B;;>B B;;>B B;;>B B;;>B B;;>B B;;>B B;;>B B;;>B B;;>B B;;>B B;;>B B;;>B B;;>B B;;>B B;;>B B;;>B B;;>B B;;>B B;;>B B;;>B B;;>B B;;>B B;;>B B;;>B B;;>B B;;>B B;;>B B;;>B B;;>B B;;>B B;;>B B;;>B B;;>B B;;>B B;;>B B;;>B B;;>B B;;>B B;;>B B;;>B B;;>B B;;>B B;;>B B;;>B B;;>B B;;>B B;;>B B;;>B B;;>B B;;>B B;;>B B;;>B B;;>B B;;>B B;;>B B;;>B B;;>B B;;>B B;;>B B;;>B B;;>B B;;>B B;;>B B;;>B B;;>B B;;>B B;;>B B;;>B B;;>B B;;>B B;;>B B;;>B B;;>B B;;>B B;;>B B;;>B B;;>B B;;>B B;;>B B;;>B B;;>B B;;>B B;;>B B;;>B B;;>B B;;>B B;;>B B;;>B B;;>B B;;>B B;;>B B;;>B B;;>B B;;>B B;;>B B;;>B B;;>B B;;>B B;;>B B;;>B B;;>B B;;>B B;;>B B;;>B B;;>B B;;>B B;;>B B;;>B B;;>B B;;>B B;;>B B;;>B B;;>B B;;>B B;;>B B;;>B B;;>B B;;>B B;;>B B;;>B B;;>B B;;>B B;;>B B;;>B B;;>B B;;>B B;;>B B;;>B B;;>B B;;>B B;;>B B;;>B B;;>B B;;>B B;;>B B;;>B B;;>B B;;>B B;;>B B;;>B B;;>B B;;>B B;;>B B;;>B B;;>B B;;>B B;;>B B;;>B B;;>B B;;>B B;;>B B;;>B B;;>B B;;>B B;;>B B;;>B B;;>B B;;>B B;;>B B;;>B B;;>B B;;>B B;;>B B;;>B B;;>B B;;>B B;;>B G;;>B G;;>B G;;>B G;;>B G;;>B G;;>B G;;>B G;;>B G;;>B G;;>B G;;>B G;;>B G;;>B G;;>B G;;>B G;;>B G;;>B G;;>B G;;>B G;;>B G;;>B G;;>B G;;>B G;;>B G;;>B G;;>B G;;>B G;;>B G;;>B G;;>B G;;>B G;;>B G;;>B G;;>B G;;>B G;;>B G;;>B G;;>B G;;>B G;;>B G;;>B G;;>B G;;>B G;;>B G;;>B G;;>B G;;>B G;;>B G;;>B G;;>B G;;>B G;;>B G;;>B G;;>B G;;>B G;;>B G;;>B G;;>B G;;>B G;;>B G;;>B G;;>B G;;>B G;;>B G;;>B G;;>B G;;>B G;;>B G;;>B G;;>B G;;>B G;;>B G;;>B G;;>B G;;>B G;;>B G;;>B G;;>B G;;>B G;;>B G;;>B G;;>B G;;>B G;;>B G;;>B G;;>B G;;>B G;;>B G;;>B G;;>B G;;>B G;;>B G;;>B G;;>B G;;>B G;;>B G;;>B G;;>B G;;>B G;;>B G;;>B G;;>B G;;>B G;;>B G;;>B G;;>B G;;>B G;;>B G;;>B G;;>B G;;>B G;;>B G;;>B G;;>B G;;>B G;;>B G;;>B G;;>B G;;>B G;;>B G;;>B G;;>B G;;>B G;;>B G;;>B G;;>B G;;>B G;;>B G;;>B G;;>B G;;>B G;;>B G;;>B G;;>B G;;>B G;;>B G;;>B G;;>B G;;>B G;;>B G;;>B G;;>B G;;>B G;;>B G;;>B G;;>B G;;>B G;;>B G;;>B G;;>B G;;>B G;;>B G;;>B G;;>B G;;>B G;;>B G;;>B G;;>B G;;>B G;;>B G;;>B G;;>B G;;>B G;;>B G;;>B G;;>B G;;>B G;;>B G;;>B G;;>B I;;>B I;;>B I;;>B I;;>B I;;>B I;;>B I;;>B I;;>B I;;>B I;;>B I;;>B I;;>B I;;>B I;;>B I;;>B I;;>B I;;>B I;;>B I;;>B I;;>B I;;>B I;;>B I;;>B I;;>B I;;>B I;;>B I;;>B I;;>B I;;>B I;;>B I;;>B I;;>B I;;>B I;;>B I;;>B I;;>B I;;>B I;;>B I;;>B I;;>B I;;>B I;;>B I;;>B I;;>B I;;>B I;;>B I;;>B I;;>B I;;>B I;;>B I;;>B I;;>B I;;>B I;;>B I;;>B I;;>B I;;>B I;;>B I;;>B I;;>B I;;>B I;;>B I;;>B I;;>B I;;>B I;;>B I;;>B I;;>B I;;>B I;;>B I;;>B I;;>B I;;>B I;;>B I;;>B I;;>B I;;>B I;;>B I;;>B I;;>B I;;>B I;;>B I;;>B I;;>B I;;>B I;;>B I;;>B I;;>B I;;>B I;;>B I;;>B I;;>B I;;>B I;;>B I;;>B I;;>B I;;>B I;;>B I;;>B I;;>B I;;>B I;;>B I;;>B I;;>B I;;>B I;;>B I;;>B I;;>B I;;>B I;;>B I;;>B I;;>B I;;>B I;;>B I;;>B I;;>B I;;>B I;;>B I;;>B I;;>B I;;>B I;;>B I;;>B I;;>B I;;>B I;;>B I;;>B I;;>B I;;>B I;;>B I;;>B I;;>B I;;>B I;;>B I;;>B I;;>B I;;>B I;;>B I;;>B I;;>B I;;>B I;;>B I;;>B I;;>B I;;>B I;;>B I;;>B I;;>B I;;>B I;;>B I;;>B I;;>B I;;>B I;;>B I;;>B I;;>B I;;>B I;;>B I;;>B I;;>B I;;>B I;;>B I;;>B I;;>B I;;>B I;;>B I;;>B I;;>B I;;>B I;;>B I;;>B J;;>B J;;>B J;;>B J;;>B J;;>B J;;>B J;;>B J;;>B J;;>B J;;>B J;;>B J;;>B J;;>B J;;>B J;;>B J;;>B J;;>B J;;>B J;;>B J;;>B J;;>B J;;>B J;;>B J;;>B J;;>B J;;>B J;;>B J;;>B J;;>B J;;>B J;;>B J;;>B J;;>B J;;>B J;;>B J;;>B J;;>B J;;>B J;;>B J;;>B J;;>B J;;>B J;;>B J;;>B J;;>B J;;>B J;;>B J;;>B J;;>B J;;>B J;;>B J;;>B J;;>B J;;>B J;;>B J;;>B J;;>B J;;>B J;;>B J;;>B J;;>B J;;>B J;;>B J;;>B J;;>B J;;>B J;;>B J;;>B J;;>B J;;>B J;;>B J;;>B J;;>B J;;>B J;;>B J;;>B J;;>B J;;>B J;;>B J;;>B J;;>B J;;>B J;;>B J;;>B J;;>B J;;>B J;;>B J;;>B J;;>B J;;>B J;;>B J;;>B J;;>B J;;>B J;;>B J;;>B J;;>B J;;>B J;;>B J;;>B J;;>B J;;>B J;;>B J;;>B J;;>B J;;>B J;;>B J;;>B J;;>B J;;>B J;;>B J;;>B J;;>B J;;>B J;;>B J;;>B J;;>B J;;>B J;;>B J;;>B J;;>B J;;>B J;;>B J;;>B J;;>B J;;>B J;;>B J;;>B J;;>B J;;>B J;;>B J;;>B J;;>B J;;>B J;;>B J;;>B J;;>B J;;>B J;;>B J;;>B J;;>B J;;>B J;;>B J;;>B J;;>B J;;>B J;;>B J;;>B J;;>B J;;>B J;;>B J;;>B J;;>B J;;>B J;;>B J;;>B J;;>B J;;>B J;;>B J;;>B J;;>B J;;>B J;;>B J;;>B J;;>B J;;>B J;;>B J;;>B J;;>B J;;>B J;;>B I;;>B I;;>B I;;>B I;;>B I;;>B I;;>B I;;>B I;;>B I;;>B I;;>B I;;>B I;;>B I;;>B I;;>B I;;>B I;;>B I;;>B I;;>B I;;>B I;;>B I;;>B I;;>B I;;>B I;;>B I;;>B I;;>B I;;>B I;;>B I;;>B I;;>B I;;>B I;;>B I;;>B I;;>B I;;>B I;;>B I;;>B I;;>B I;;>B I;;>B I;;>B I;;>B I;;>B I;;>B I;;>B I;;>B I;;>B I;;>B I;;>B I;;>B I;;>B I;;>B I;;>B I;;>B I;;>B I;;>B I;;>B I;;>B I;;>B I;;>B I;;>B I;;>B I;;>B I;;>B I;;>B I;;>B I;;>B I;;>B I;;>B I;;>B I;;>B I;;>B I;;>B I;;>B I;;>B I;;>B I;;>B I;;>B I;;>B I;;>B I;;>B I;;>B I;;>B I;;>B I;;>B I;;>B I;;>B I;;>B I;;>B I;;>B I;;>B I;;>B I;;>B I;;>B I;;>B I;;>B I;;>B I;;>B I;;>B I;;>B I;;>B I;;>B I;;>B I;;>B I;;>B I;;>B I;;>B I;;>B I;;>B I;;>B I;;>B I;;>B I;;>B I;;>B I;;>B I;;>B I;;>B I;;>B I;;>B I;;>B I;;>B I;;>B I;;>B I;;>B I;;>B I;;>B I;;>B I;;>B I;;>B I;;>B I;;>B I;;>B I;;>B I;;>B I;;>B I;;>B I;;>B I;;>B I;;>B I;;>B I;;>B I;;>B I;;>B I;;>B I;;>B I;;>B I;;>B I;;>B I;;>B I;;>B I;;>B I;;>B I;;>B I;;>B I;;>B I;;>B I;;>B I;;>B I;;>B I;;>B I;;>B I;;>B I;;>B I;;>B I;;>B I;;>B I;;>B I;;>B I;;>B I;;>B G;;>B G;;>B G;;>B G;;>B G;;>B G;;>B G;;>B G;;>B G;;>B G;;>B G;;>B G;;>B G;;>B G;;>B G;;>B G;;>B G;;>B G;;>B G;;>B G;;>B G;;>B G;;>B G;;>B G;;>B G;;>B G;;>B G;;>B G;;>B G;;>B G;;>B G;;>B G;;>B G;;>B G;;>B G;;>B G;;>B G;;>B G;;>B G;;>B G;;>B G;;>B G;;>B G;;>B G;;>B G;;>B G;;>B G;;>B G;;>B G;;>B G;;>B G;;>B G;;>B G;;>B G;;>B G;;>B G;;>B G;;>B G;;>B G;;>B G;;>B G;;>B G;;>B G;;>B G;;>B G;;>B G;;>B G;;>B G;;>B G;;>B G>B G>B G>B G>B G>B G>B G>B G>B G>B G>B G>B G>B G>B G>B G>B G>B G>B G>B G>B G>B G>B G>B G>B G>B G>B G>B G>B G>B G>B G>B G>B G>B G>B G>B G>B G>B G>B G>B G>B G>B G>B G>B G>B G>B G>B G>B G>B G>B G>B G>B G>B G>B G>B G>B G>B G>B G>B G>B G>B G>B G>B G>B G>B G>B G>B G>B G>B G>B G>B G>B G>B G>B G>B G>B G>B G>B G>B G>B G>B G>B G>B G>B G>B G>B G>B G>B G>B G>B G>B G>B G>B G>B G>B G>B G>B G>B G>B G>B G>B G>B G>B G>B I9=9 I9=9 I9=9 I9=9 I9=9 I9=9 I9=9 I9=9 I9=9 I9=9 I9=9 I9=9 I9=9 I9=9 I9=9 I9=9 I9=9 I9=9 I9=9 I9=9 I9=9 I9=9 I9=9 I9=9 I9=9 I9=9 I9=9 I9=9 I9=9 I9=9 I9=9 I9=9 I9=9 I9=9 I9=9 I9=9 I9=9 I9=9 I9=9 I9=9 I9=9 I9=9 I9=9 I9=9 I9=9 I9=9 I9=9 I9=9 I9=9 I9=9 I9=9 I9=9 I9=9 I9=9 I9=9 I9=9 I9=9 I9=9 I9=9 I9=9 I9=9 I9=9 I9=9 I9=9 I9=9 I9=9 I9=9 I9=9 I9=9 I9=9 I9=9 I9=9 I9=9 I9=9 I9=9 I9=9 I9=9 I9=9 I9=9 I9=9 I9=9 I9=9 I9=9 I9=9 I9=9 I9=9 I9=9 I9=9 I9=9 I9=9 I9=9 I9=9 I9=9 I9=9 I9=9 I9=9 I9=9 I9=9 I9=9 I9=9 I9=9 I9=9 I9=9 I9=9 I9=9 I9=9 I9=9 I9=9 I9=9 I9=9 I9=9 I9=9 I9=9 I9=9 I9=9 I9=9 I9=9 I9=9 I9=9 I9=9 I9=9 I9=9 I9=9 I9=9 I9=9 I9=9 I9=9 I9=9 I9=9 I9=9 I9=9 I9=9 I9=9 I9=9 I9=9 I9=9 I9=9 I9=9 I9=9 I9=9 I9=9 I9=9 I9=9 I9=9 I9=9 I9=9 I9=9 I9=9 I9=9 I9=9 I9=9 I9=9 I9=9 I9=9 I9=9 I9=9 I9=9 I9=9 I9=9 I9=9 I9=9 I9=9 I9=9 I9=9 I9=9 I9=9 I9=9 I9=9 I9=9 I9=9 I9=9 J9=9 J9=9 J9=9 J9=9 J9=9 J9=9 J9=9 J9=9 J9=9 J9=9 J9=9 J9=9 J9=9 J9=9 J9=9 J9=9 J9=9 J9=9 J9=9 J9=9 J9=9 J9=9 J9=9 J9=9 J9=9 J9=9 J9=9 J9=9 J9=9 J9=9 J9=9 J9=9 J9=9 J9=9 J9=9 J9=9 J9=9 J9=9 J9=9 J9=9 J9=9 J9=9 J9=9 J9=9 J9=9 J9=9 J9=9 J9=9 J9=9 J9=9 J9=9 J9=9 J9=9 J9=9 J9=9 J9=9 J9=9 J9=9 J9=9 J9=9 J9=9 J9=9 J9=9 J9=9 J9=9 J9=9 J9=9 J9=9 J9=9 J9=9 J9=9 J9=9 J9=9 J9=9 J9=9 J9=9 J9=9 J9=9 J9=9 J9=9 J9=9 J9=9 J9=9 J9=9 J9=9 J9=9 J9=9 J9=9 J9=9 J9=9 J9=9 J9=9 J9=9 J9=9 J9=9 J9=9 J9=9 J9=9 J9=9 J9=9 J9=9 J9=9 J9=9 J9=9 J9=9 J9=9 J9=9 J9=9 J9=9 J9=9 J9=9 J9=9 J9=9 J9=9 J9=9 J9=9 J9=9 J9=9 J9=9 J9=9 J9=9 J9=9 J9=9 J9=9 J9=9 J9=9 J9=9 J9=9 J9=9 J9=9 J9=9 J9=9 J9=9 J9=9 J9=9 J9=9 J9=9 J9=9 J9=9 J9=9 J9=9 J9=9 J9=9 J9=9 J9=9 J9=9 J9=9 J9=9 J9=9 J9=9 J9=9 J9=9 J9=9 J9=9 J9=9 J9=9 J9=9 J9=9 J9=9 J9=9 J9=9 J9=9 J9=9 J9=9 J9=9 J9=9 J9=9 J9=9 J9=9 J9=9 L9=9 L9=9 L9=9 L9=9 L9=9 L9=9 L9=9 L9=9 L9=9 L9=9 L9=9 L9=9 L9=9 L9=9 L9=9 L9=9 L9=9 L9=9 L9=9 L9=9 L9=9 L9=9 L9=9 L9=9 L9=9 L9=9 L9=9 L9=9 L9=9 L9=9 L9=9 L9=9 L9=9 L9=9 L9=9 L9=9 L9=9 L9=9 L9=9 L9=9 L9=9 L9=9 L9=9 L9=9 L9=9 L9=9 L9=9 L9=9 L9=9 L9=9 L9=9 L9=9 L9=9 L9=9 L9=9 L9=9 L9=9 L9=9 L9=9 L9=9 L9=9 L9=9 L9=9 L9=9 L9=9 L9=9 L9=9 L9=9 L9=9 L9=9 L9=9 L9=9 L9=9 L9=9 L9=9 L9=9 L9=9 L9=9 L9=9 L9=9 L9=9 L9=9 L9=9 L9=9 L9=9 L9=9 L9=9 L9=9 L9=9 L9=9 L9=9 L9=9 L9=9 L9=9 L9=9 L9=9 L9=9 L9=9 L9=9 L9=9 L9=9 L9=9 L9=9 L9=9 L9=9 L9=9 L9=9 L9=9 L9=9 L9=9 L9=9 L9=9 L9=9 L9=9 L9=9 L9=9 L9=9 L9=9 L9=9 L9=9 L9=9 L9=9 L9=9 L9=9 L9=9 L9=9 L9=9 L9=9 L9=9 L9=9 L9=9 L9=9 L9=9 L9=9 L9=9 L9=9 L9=9 L9=9 L9=9 L9=9 L9=9 L9=9 L9=9 L9=9 L9=9 L9=9 L9=9 L9=9 L9=9 L9=9 L9=9 L9=9 L9=9 L9=9 L9=9 L9=9 L9=9 L9=9 L9=9 L9=9 L9=9 L9=9 L9=9 L9=9 L9=9 L9=9 L9=9 L9=9 L9=9 L9=9 L9=9 N9>9 N9>9 N9>9 N9>9 N9>9 N9>9 N9>9 N9>9 N9>9 N9>9 N9>9 N9>9 N9>9 N9>9 N9>9 N9>9 N9>9 N9>9 N9>9 N9>9 N9>9 N9>9 N9>9 N9>9 N9>9 N9>9 N9>9 N9>9 N9>9 N9>9 N9>9 N9>9 N9>9 N9>9 N9>9 N9>9 N9>9 N9>9 N9>9 N9>9 N9>9 N9>9 N9>9 N9>9 N9>9 N9>9 N9>9 N9>9 N9>9 N9>9 N9>9 N9>9 N9>9 N9>9 N9>9 N9>9 N9>9 N9>9 N9>9 N9>9 N9>9 N9>9 N9>9 N9>9 N9>9 N9>9 N9>9 N9>9 N9>9 N9>9 N9>9 N9>9 N9>9 N9>9 N9>9 N9>9 N9>9 N9>9 N9>9 N9>9 N9>9 N9>9 N9>9 N9>9 N9>9 N9>9 N9>9 N9>9 N9>9 N9>9 N9>9 N9>9 N9>9 N9>9 N9>9 N9>9 N9>9 N9>9 N9>9 N9>9 N9>9 N9>9 N9>9 N9>9 N9>9 N9>9 N9>9 N9>9 N9>9 N9>9 N9>9 N9>9 N9>9 N9>9 N9>9 N9>9 N9>9 N9>9 N9>9 N9>9 N9>9 N9>9 N9>9 N9>9 N9>9 N9>9 N9>9 N9>9 N9>9 N9>9 N9>9 N9>9 N9>9 N9>9 N9>9 N9>9 N9>9 N9>9 N9>9 N9>9 N9>9 N9>9 N9>9 N9>9 N9>9 N9>9 N9>9 N9>9 N9>9 N9>9 N9>9 N9>9 N9>9 N9>9 N9>9 N9>9 N9>9 N9>9 N9>9 N9>9 N9>9 N9>9 N9>9 N9>9 N9>9 N9>9 N9>9 N9>9 N9>9 N9>9 N9>9 L9@9 L9@9 L9@9 L9@9 L9@9 L9@9 L9@9 L9@9 L9@9 L9@9 L9@9 L9@9 L9@9 L9@9 L9@9 L9@9 L9@9 L9@9 L9@9 L9@9 L9@9 L9@9 L9@9 L9@9 L9@9 L9@9 L9@9 L9@9 L9@9 L9@9 L9@9 L9@9 L9@9 L9@9 L9@9 L9@9 L9@9 L9@9 L9@9 L9@9 L9@9 L9@9 L9@9 L9@9 L9@9 L9@9 L9@9 L9@9 L9@9 L9@9 L9@9 L9@9 L9@9 L9@9 L9@9 L9@9 L9@9 L9@9 L9@9 L9@9 L9@9 L9@9 L9@9 L9@9 L9@9 L9@9 L9@9 L9@9 L9@9 L9@9 L9@9 L9@9 L9@9 L9@9 L9@9 L9@9 L9@9 L9@9 L9@9 L9@9 L9@9 L9@9 L9@9 L9@9 L9@9 L9@9 L9@9 L9@9 L9@9 L9@9 L9@9 L9@9 L9@9 L9@9 L9@9 L9@9 L9@9 L9@9 L9@9 L9@9 L9@9 L9@9 L9@9 L9@9 L9@9 L9@9 L9@9 L9@9 L9@9 L9@9 L9@9 L9@9 L9@9 L9@9 L9@9 L9@9 L9@9 L9@9 L9@9 L9@9 L9@9 L9@9 L9@9 L9@9 L9@9 L9@9 L9@9 L9@9 L9@9 L9@9 L9@9 L9@9 L9@9 L9@9 L9@9 L9@9 L9@9 L9@9 L9@9 L9@9 L9@9 L9@9 L9@9 L9@9 L9@9 L9@9 L9@9 L9@9 L9@9 L9@9 L9@9 L9@9 L9@9 L9@9 L9@9 L9@9 L9@9 L9@9 L9@9 L9@9 L9@9 L9@9 L9@9 L9@9 L9@9 L9@9 L9@9 L9@9 L9@9 L9@9 J99B J99B J99B J99B J99B J99B J99B J99B J99B J99B J99B J99B J99B J99B J99B J99B J99B J99B J99B J99B J99B J99B J99B J99B J99B J99B J99B J99B J99B J99B J99B J99B J99B J99B J99B J99B J99B J99B J99B J99B J99B J99B J99B J99B J99B J99B J99B J99B J99B J99B J99B J99B J99B J99B J99B J99B J99B J99B J99B J99B J99B J99B J99B J99B J99B J99B J99B J99B J99B JB JB JB JB JB JB JB JB JB JB JB JB JB JB JB JB JB JB JB JB JB JB JB JB JB JB JB JB JB JB JB JB JB JB JB JB JB JB JB JB JB JB JB JB JB JB JB JB JB JB JB JB JB JB JB JB JB JB JB JB JB JB JB JB JB JB JB JB JB JB JB JB JB JB JB JB JB JB JB JB JB JB JB JB JB JB JB JB JB JB JB JB JB JB JB JB JB JB JB JB JB JB L77;C L77;C L77;C L77;C L77;C L77;C L77;C L77;C L77;C L77;C L77;C L77;C L77;C L77;C L77;C L77;C L77;C L77;C L77;C L77;C L77;C L77;C L77;C L77;C L77;C L77;C L77;C L77;C L77;C L77;C L77;C L77;C L77;C L77;C L77;C L77;C L77;C L77;C L77;C L77;C L77;C L77;C L77;C L77;C L77;C L77;C L77;C L77;C L77;C L77;C L77;C L77;C L77;C L77;C L77;C L77;C L77;C L77;C L77;C L77;C L77;C L77;C L77;C L77;C L77;C L77;C L77;C L77;C L77;C L77;C L77;C L77;C L77;C L77;C L77;C L77;C L77;C L77;C L77;C L77;C L77;C L77;C L77;C L77;C L77;C L77;C L77;C L77;C L77;C L77;C L77;C L77;C L77;C L77;C L77;C L77;C L77;C L77;C L77;C L77;C L77;C L77;C L77;C L77;C L77;C L77;C L77;C L77;C L77;C L77;C L77;C L77;C L77;C L77;C L77;C L77;C L77;C L77;C L77;C L77;C L77;C L77;C L77;C L77;C L77;C L77;C L77;C L77;C L77;C L77;C L77;C L77;C L77;C L77;C L77;C L77;C L77;C L77;C L77;C L77;C L77;C L77;C L77;C L77;C L77;C L77;C L77;C L77;C L77;C L77;C L77;C L77;C L77;C L77;C L77;C L77;C L77;C L77;C L77;C L77;C L77;C L77;C L77;C L77;C L77;C L77;C L77;C L77;C L77;C L77;C L77;C N77;C N77;C N77;C N77;C N77;C N77;C N77;C N77;C N77;C N77;C N77;C N77;C N77;C N77;C N77;C N77;C N77;C N77;C N77;C N77;C N77;C N77;C N77;C N77;C N77;C N77;C N77;C N77;C N77;C N77;C N77;C N77;C N77;C N77;C N77;C N77;C N77;C N77;C N77;C N77;C N77;C N77;C N77;C N77;C N77;C N77;C N77;C N77;C N77;C N77;C N77;C N77;C N77;C N77;C N77;C N77;C N77;C N77;C N77;C N77;C N77;C N77;C N77;C N77;C N77;C N77;C N77;C N77;C N77;C N77;C N77;C N77;C N77;C N77;C N77;C N77;C N77;C N77;C N77;C N77;C N77;C N77;C N77;C N77;C N77;C N77;C N77;C N77;C N77;C N77;C N77;C N77;C N77;C N77;C N77;C N77;C N77;C N77;C N77;C N77;C N77;C N77;C N77;C N77;C N77;C N77;C N77;C N77;C N77;C N77;C N77;C N77;C N77;C N77;C N77;C N77;C N77;C N77;C N77;C N77;C N77;C N77;C N77;C N77;C N77;C N77;C N77;C N77;C N77;C N77;C N77;C N77;C N77;C N77;C N77;C N77;C N77;C N77;C N77;C N77;C N77;C N77;C N77;C N77;C N77;C N77;C N77;C N77;C N77;C N77;C N77;C N77;C N77;C N77;C N77;C N77;C N77;C N77;C N77;C N77;C N77;C N77;C N77;C N77;C N77;C N77;C N77;C N77;C N77;C N77;C O77;C O77;C O77;C O77;C O77;C O77;C O77;C O77;C O77;C O77;C O77;C O77;C O77;C O77;C O77;C O77;C O77;C O;C O;C O;C O;C O;C O;C O;C O;C O;C O;C O;C O;C O;C O;C O;C O;C O;C O;C O;C O;C O;C O;C O;C O;C O;C O;C O;C O;C O;C O;C O;C O;C O;C O;C O;C O;C O;C O;C O;C O;C O;C O;C O;C O;C O;C O;C O;C O;C O;C O;C O;C O;C O;C O;C O;C O;C O;C O;C O;C O;C O;C O;C O;C O;C O;C O;C O;C O;C O;C O;C O;C O;C O;C O;C O;C O;C O;C O;C O;C O;C O;C O;C O;C O;C O;C O;C O;C O;C O;C O;C O;C O;C O;C O;C O;C O;C O;C O;C O;C O;C O;C O;C O;C O;C O;C O;C O;C O;C O;C O;C O;C O;C O;C O;C O;C O;C O;C O;C O;C O;C O;C O;C O;C O;C O;C O;C O;C O;C O;C O;C O;C O;C O;C O;C O;C O;C O;C ;C ;C ;C ;C ;C ;C ;C ;C ;C ;C ;C ;C ;C ;C ;C ;C ;C I--4= I--4= I--4= I--4= I--4= I--4= I--4= I--4= I--4= I--4= I--4= I--4= I--4= I--4= I--4= I--4= I--4= I--4= I--4= I--4= I--4= I--4= I--4= I--4= I--4= I--4= I--4= I--4= I--4= I--4= I--4= I--4= I--4= I--4= I--4= I--4= I--4= I--4= I--4= I--4= I--4= I--4= I--4= I--4= I--4= I--4= I--4= I--4= I--4= I--4= I--4= I--4= I--4= I--4= I--4= I--4= I--4= I--4= I--4= I--4= I--4= I--4= I--4= I--4= I--4= I--4= I--4= I--4= I--4= I--4= I--4= I--4= I--4= I--4= I--4= I--4= I--4= I--4= I--4= I--4= I--4= I--4= I--4= I--4= I--4= I--4= I--4= I--4= I--4= I--4= I--4= I--4= I--4= I--4= I--4= I--4= I--4= I--4= I--4= I--4= I--4= I--4= I--4= I--4= I--4= I--4= I--4= I--4= I--4= I--4= I--4= I--4= I--4= I--4= I--4= I--4= I--4= I--4= I--4= I--4= I--4= I--4= I--4= I--4= I--4= I--4= I--4= I--4= I--4= I--4= I--4= I--4= I--4= I--4= I--4= I--4= I--4= I--4= I--4= I--4= I--4= I--4= I--4= I--4= I--4= I--4= I--4= I--4= I--4= I--4= I--4= I--4= I--4= I--4= I--4= I--4= I--4= I--4= I--4= I--4= I--4= I--4= I--4= I--4= I--4= I--4= I--4= I--4= I--4= I--4= I--4= G--4= G--4= G--4= G--4= G--4= G--4= G--4= G--4= G--4= G--4= G--4= G--4= G--4= G--4= G--4= G--4= G--4= G--4= G--4= G--4= G--4= G--4= G--4= G--4= G--4= G--4= G--4= G--4= G--4= G--4= G--4= G--4= G--4= G--4= G--4= G--4= G--4= G--4= G--4= G--4= G--4= G--4= G--4= G--4= G--4= G--4= G--4= G--4= G--4= G--4= G--4= G--4= G--4= G--4= G--4= G--4= G--4= G--4= G--4= G--4= G--4= G--4= G--4= G--4= G--4= G--4= G--4= G--4= G--4= G--4= G--4= G--4= G--4= G--4= G--4= G--4= G--4= G--4= G--4= G--4= G--4= G--4= G--4= G--4= G--4= G--4= G--4= G--4= G--4= G--4= G--4= G--4= G--4= G--4= G--4= G--4= G--4= G--4= G--4= G--4= G--4= G--4= G--4= G--4= G--4= G--4= G--4= G--4= G--4= G--4= G--4= G--4= G--4= G--4= G--4= G--4= G--4= G--4= G--4= G--4= G--4= G--4= G--4= G--4= G--4= G--4= G--4= G--4= G--4= G--4= G--4= G--4= G--4= G--4= G--4= G--4= G--4= G--4= G--4= G--4= G--4= G--4= G--4= G--4= G--4= G--4= G--4= G--4= G--4= G--4= G--4= G--4= G--4= G--4= G--4= G--4= G--4= G--4= G--4= G--4= G--4= G--4= G--4= G--4= G--4= G--4= G--4= G--4= G--4= G--4= E--4= E--4= E--4= E--4= E--4= E--4= E--4= E--4= E--4= E--4= E--4= E--4= E--4= E--4= E--4= E--4= E--4= E4= E4= E4= E4= E4= E4= E4= E4= E4= E4= E4= E4= E4= E4= E4= E4= E4= E4= E4= E4= E4= E4= E4= E4= E4= E4= E4= E4= E4= E4= E4= E4= E4= E4= E4= E4= E4= E4= E4= E4= E4= E4= E4= E4= E4= E4= E4= E4= E4= E4= E4= E4= E4= E4= E4= E4= E4= E4= E4= E4= E4= E4= E4= E4= E4= E4= E4= E4= E4= E4= E4= E4= E4= E4= E4= E4= E4= E4= E4= E4= E4= E4= E4= E4= E4= E4= E4= E4= E4= E4= E4= E4= E4= E4= E4= E4= E4= E4= E4= E4= E4= E4= E4= E4= E4= E4= E4= E4= E4= E4= E4= E4= E4= E4= E4= E4= E4= E4= E4= E4= E4= E4= E4= E4= E4= E4= E4= E4= E4= E4= E4= E4= E4= E4= E4= E4= E4= E4= E4= E4= E4= E4= E4= E4= E4= E4= E4= E4= E4= E4= E4= E4= E4= E4= @99=@ @99=@ @99=@ @99=@ @99=@ @99=@ @99=@ @99=@ @99=@ @99=@ @99=@ @99=@ @99=@ @99=@ @99=@ @99=@ @99=@ @99=@ @99=@ @99=@ @99=@ @99=@ @99=@ @99=@ @99=@ @99=@ @99=@ @99=@ @99=@ @99=@ @99=@ @99=@ @99=@ @99=@ @99=@ @99=@ @99=@ @99=@ @99=@ @99=@ @99=@ @99=@ @99=@ @99=@ @99=@ @99=@ @99=@ @99=@ @99=@ @99=@ @99=@ @99=@ @99=@ @99=@ @99=@ @99=@ @99=@ @99=@ @99=@ @99=@ @99=@ @99=@ @99=@ @99=@ @99=@ @99=@ @99=@ @99=@ @99=@ @99=@ @99=@ @99=@ @99=@ @99=@ @99=@ @99=@ @99=@ @99=@ @99=@ @99=@ @99=@ @99=@ @99=@ @99=@ @99=@ @99=@ @99=@ @99=@ @99=@ @99=@ @99=@ @99=@ @99=@ @99=@ @99=@ @99=@ @99=@ @99=@ @99=@ @99=@ @99=@ @99=@ @99=@ @99=@ @99=@ @99=@ @99=@ @99=@ @99=@ @99=@ @99=@ @99=@ @99=@ @99=@ @99=@ @99=@ @99=@ @99=@ @99=@ @99=@ @99=@ @99=@ @99=@ @99=@ @99=@ @99=@ @99=@ @99=@ @99=@ @99=@ @99=@ @99=@ @99=@ @99=@ @99=@ @99=@ @99=@ @99=@ @99=@ @99=@ @99=@ @99=@ @99=@ @99=@ @99=@ @99=@ @99=@ @99=@ @99=@ @99=@ @99=@ @99=@ @99=@ @99=@ @99=@ @99=@ @99=@ @99=@ @99=@ @99=@ @99=@ @99=@ @99=@ @99=@ @99=@ @99=@ @99=@ @99=@ @99=@ @99=@ @99=@ E99=@ E99=@ E99=@ E99=@ E99=@ E99=@ E99=@ E99=@ E99=@ E99=@ E99=@ E99=@ E99=@ E99=@ E99=@ E99=@ E99=@ E99=@ E99=@ E99=@ E99=@ E99=@ E99=@ E99=@ E99=@ E99=@ E99=@ E99=@ E99=@ E99=@ E99=@ E99=@ E99=@ E99=@ E99=@ E99=@ E99=@ E99=@ E99=@ E99=@ E99=@ E99=@ E99=@ E99=@ E99=@ E99=@ E99=@ E99=@ E99=@ E99=@ E99=@ E99=@ E99=@ E99=@ E99=@ E99=@ E99=@ E99=@ E99=@ E99=@ E99=@ E99=@ E99=@ E99=@ E99=@ E99=@ E99=@ E99=@ E99=@ E99=@ E99=@ E99=@ E99=@ E99=@ E99=@ E99=@ E99=@ E99=@ E99=@ E99=@ E99=@ E99=@ E99=@ E99=@ E99=@ E99=@ E99=@ E99=@ E99=@ E99=@ E99=@ E99=@ E99=@ E99=@ E99=@ E99=@ E99=@ E99=@ E99=@ E99=@ E99=@ E99=@ E99=@ E99=@ E99=@ E99=@ E99=@ E99=@ E99=@ E99=@ E99=@ E99=@ E99=@ E99=@ E99=@ E99=@ E99=@ E99=@ E99=@ E99=@ E99=@ E99=@ E99=@ E99=@ E99=@ E99=@ E99=@ E99=@ E99=@ E99=@ E99=@ E99=@ E99=@ E99=@ E99=@ E99=@ E99=@ E99=@ E99=@ E99=@ E99=@ E99=@ E99=@ E99=@ E99=@ E99=@ E99=@ E99=@ E99=@ E99=@ E99=@ E99=@ E99=@ E99=@ E99=@ E99=@ E99=@ E99=@ E99=@ E99=@ E99=@ E99=@ E99=@ E99=@ E99=@ E99=@ E99=@ E99=@ E99=@ E99=@ G99=@ G99=@ G99=@ G99=@ G99=@ G99=@ G99=@ G99=@ G99=@ G99=@ G99=@ G99=@ G99=@ G99=@ G99=@ G99=@ G99=@ G99=@ G99=@ G99=@ G99=@ G99=@ G99=@ G99=@ G99=@ G99=@ G99=@ G99=@ G99=@ G99=@ G99=@ G99=@ G99=@ G99=@ G99=@ G99=@ G99=@ G99=@ G99=@ G99=@ G99=@ G99=@ G99=@ G99=@ G99=@ G99=@ G99=@ G99=@ G99=@ G99=@ G99=@ G99=@ G99=@ G99=@ G99=@ G99=@ G99=@ G99=@ G99=@ G99=@ G99=@ G99=@ G99=@ G99=@ G99=@ G99=@ G99=@ G99=@ G99=@ G99=@ G99=@ G99=@ G99=@ G99=@ G99=@ G99=@ G99=@ G99=@ G99=@ G99=@ G99=@ G99=@ G99=@ G99=@ G99=@ G99=@ G99=@ G99=@ G99=@ G99=@ G99=@ G99=@ G99=@ G99=@ G99=@ G99=@ G99=@ G99=@ G99=@ G99=@ G99=@ G99=@ G99=@ G99=@ G99=@ G99=@ G99=@ G99=@ G99=@ G99=@ G99=@ G99=@ G99=@ G99=@ G99=@ G99=@ G99=@ G99=@ G99=@ G99=@ G99=@ G99=@ G99=@ G99=@ G99=@ G99=@ G99=@ G99=@ G99=@ G99=@ G99=@ G99=@ G99=@ G99=@ G99=@ G99=@ G99=@ G99=@ G99=@ G99=@ G99=@ G99=@ G99=@ G99=@ G99=@ G99=@ G99=@ G99=@ G99=@ G99=@ G99=@ G99=@ G99=@ G99=@ G99=@ G99=@ G99=@ G99=@ G99=@ G99=@ G99=@ G99=@ G99=@ G99=@ G99=@ G99=@ G99=@ G99=@ G99=@ G99=@ G99=@ I99=@ I99=@ I99=@ I99=@ I99=@ I99=@ I99=@ I99=@ I99=@ I99=@ I99=@ I99=@ I99=@ I99=@ I99=@ I99=@ I99=@ I99=@ I99=@ I99=@ I99=@ I99=@ I99=@ I99=@ I99=@ I99=@ I99=@ I99=@ I99=@ I99=@ I99=@ I99=@ I99=@ I99=@ I99=@ I99=@ I99=@ I99=@ I99=@ I99=@ I99=@ I99=@ I99=@ I99=@ I99=@ I99=@ I99=@ I99=@ I99=@ I99=@ I99=@ I99=@ I99=@ I99=@ I99=@ I99=@ I99=@ I99=@ I99=@ I99=@ I99=@ I99=@ I99=@ I99=@ I99=@ I99=@ I99=@ I99=@ I99=@ I99=@ I99=@ I99=@ I99=@ I99=@ I99=@ I99=@ I99=@ I99=@ I99=@ I99=@ I99=@ I99=@ I99=@ I99=@ I99=@ I99=@ I99=@ I99=@ I99=@ I99=@ I99=@ I99=@ I99=@ I99=@ I99=@ I99=@ I99=@ I99=@ I99=@ I99=@ I99=@ I99=@ I99=@ I99=@ I99=@ I99=@ I99=@ I99=@ I99=@ I99=@ I99=@ I99=@ I99=@ I99=@ I99=@ I99=@ I99=@ I99=@ I99=@ I99=@ I99=@ I99=@ I99=@ I99=@ I99=@ I99=@ I99=@ I99=@ I99=@ I99=@ I99=@ I99=@ I99=@ I99=@ I99=@ I99=@ I99=@ I99=@ I99=@ I99=@ I99=@ I99=@ I99=@ I99=@ I99=@ I99=@ I99=@ I99=@ I99=@ I99=@ I99=@ I99=@ I99=@ I99=@ I99=@ I99=@ I99=@ I99=@ I99=@ I99=@ I99=@ I99=@ I99=@ I99=@ I99=@ I99=@ I99=@ I99=@ I99=@ I99=@ I99=@ G99=@ G99=@ G99=@ G99=@ G99=@ G99=@ G99=@ G99=@ G99=@ G99=@ G99=@ G99=@ G99=@ G99=@ G99=@ G99=@ G99=@ G99=@ G99=@ G99=@ G99=@ G99=@ G99=@ G99=@ G99=@ G99=@ G99=@ G99=@ G99=@ G99=@ G99=@ G99=@ G99=@ G99=@ G99=@ G99=@ G99=@ G99=@ G99=@ G99=@ G99=@ G99=@ G99=@ G99=@ G99=@ G99=@ G99=@ G99=@ G99=@ G99=@ G99=@ G99=@ G99=@ G99=@ G99=@ G99=@ G99=@ G99=@ G99=@ G99=@ G99=@ G99=@ G99=@ G99=@ G99=@ G99=@ G99=@ G99=@ G99=@ G99=@ G99=@ G99=@ G99=@ G99=@ G99=@ G99=@ G99=@ G99=@ G99=@ G99=@ G99=@ G99=@ G99=@ G99=@ G99=@ G99=@ G99=@ G99=@ G99=@ G99=@ G99=@ G99=@ G99=@ G99=@ G99=@ G99=@ G99=@ G99=@ G99=@ G99=@ G99=@ G99=@ G99=@ G99=@ G99=@ G99=@ G99=@ G99=@ G99=@ G99=@ G99=@ G99=@ G99=@ G99=@ G99=@ G99=@ G99=@ G99=@ G99=@ G99=@ G99=@ G99=@ G99=@ G99=@ G99=@ G99=@ G99=@ G99=@ G99=@ G99=@ G99=@ G99=@ G99=@ G99=@ G99=@ G99=@ G99=@ G99=@ G99=@ G99=@ G99=@ G99=@ G99=@ G99=@ G99=@ G99=@ G99=@ G99=@ G99=@ G99=@ G99=@ G99=@ G99=@ G99=@ G99=@ G99=@ G99=@ G99=@ G99=@ G99=@ G99=@ G99=@ G99=@ G99=@ G99=@ G99=@ G99=@ G99=@ G99=@ G99=@ E99=@ E99=@ E99=@ E99=@ E99=@ E99=@ E99=@ E99=@ E99=@ E99=@ E99=@ E99=@ E99=@ E99=@ E99=@ E99=@ E99=@ E99=@ E99=@ E99=@ E99=@ E99=@ E99=@ E99=@ E99=@ E99=@ E99=@ E99=@ E99=@ E99=@ E99=@ E99=@ E99=@ E99=@ E99=@ E99=@ E99=@ E99=@ E99=@ E99=@ E99=@ E99=@ E99=@ E99=@ E99=@ E99=@ E99=@ E99=@ E99=@ E99=@ E99=@ E99=@ E99=@ E99=@ E99=@ E99=@ E99=@ E99=@ E99=@ E99=@ E99=@ E99=@ E99=@ E99=@ E99=@ E99=@ E99=@ E99=@ E99=@ E=@ E=@ E=@ E=@ E=@ E=@ E=@ E=@ E=@ E=@ E=@ E=@ E=@ E=@ E=@ E=@ E=@ E=@ E=@ E=@ E=@ E=@ E=@ E=@ E=@ E=@ E=@ E=@ E=@ E=@ E=@ E=@ E=@ E=@ E=@ E=@ E=@ E=@ E=@ E=@ E=@ E=@ E=@ E=@ E=@ E=@ E=@ E=@ E=@ E=@ E=@ E=@ E=@ E=@ E=@ E=@ E=@ E=@ E=@ E=@ E=@ E=@ E=@ E=@ E=@ E=@ E=@ E=@ E=@ E=@ E=@ E=@ E=@ E=@ E=@ E=@ E=@ E=@ E=@ E=@ E=@ E=@ E=@ E=@ E=@ E=@ E=@ E=@ E=@ E=@ E=@ E=@ E=@ E=@ E=@ E=@ E=@ E=@ E=@ E=@ E=@ E=@ G7;7 G7;7 G7;7 G7;7 G7;7 G7;7 G7;7 G7;7 G7;7 G7;7 G7;7 G7;7 G7;7 G7;7 G7;7 G7;7 G7;7 G7;7 G7;7 G7;7 G7;7 G7;7 G7;7 G7;7 G7;7 G7;7 G7;7 G7;7 G7;7 G7;7 G7;7 G7;7 G7;7 G7;7 G7;7 G7;7 G7;7 G7;7 G7;7 G7;7 G7;7 G7;7 G7;7 G7;7 G7;7 G7;7 G7;7 G7;7 G7;7 G7;7 G7;7 G7;7 G7;7 G7;7 G7;7 G7;7 G7;7 G7;7 G7;7 G7;7 G7;7 G7;7 G7;7 G7;7 G7;7 G7;7 G7;7 G7;7 G7;7 G7;7 G7;7 G7;7 G7;7 G7;7 G7;7 G7;7 G7;7 G7;7 G7;7 G7;7 G7;7 G7;7 G7;7 G7;7 G7;7 G7;7 G7;7 G7;7 G7;7 G7;7 G7;7 G7;7 G7;7 G7;7 G7;7 G7;7 G7;7 G7;7 G7;7 G7;7 G7;7 G7;7 G7;7 G7;7 G7;7 G7;7 G7;7 G7;7 G7;7 G7;7 G7;7 G7;7 G7;7 G7;7 G7;7 G7;7 G7;7 G7;7 G7;7 G7;7 G7;7 G7;7 G7;7 G7;7 G7;7 G7;7 G7;7 G7;7 G7;7 G7;7 G7;7 G7;7 G7;7 G7;7 G7;7 G7;7 G7;7 G7;7 G7;7 G7;7 G7;7 G7;7 G7;7 G7;7 G7;7 G7;7 G7;7 G7;7 G7;7 G7;7 G7;7 G7;7 G7;7 G7;7 G7;7 G7;7 G7;7 G7;7 G7;7 G7;7 G7;7 G7;7 G7;7 G7;7 G7;7 G7;7 G7;7 G7;7 G7;7 G7;7 G7;7 I7;7 I7;7 I7;7 I7;7 I7;7 I7;7 I7;7 I7;7 I7;7 I7;7 I7;7 I7;7 I7;7 I7;7 I7;7 I7;7 I7;7 I7;7 I7;7 I7;7 I7;7 I7;7 I7;7 I7;7 I7;7 I7;7 I7;7 I7;7 I7;7 I7;7 I7;7 I7;7 I7;7 I7;7 I7;7 I7;7 I7;7 I7;7 I7;7 I7;7 I7;7 I7;7 I7;7 I7;7 I7;7 I7;7 I7;7 I7;7 I7;7 I7;7 I7;7 I7;7 I7;7 I7;7 I7;7 I7;7 I7;7 I7;7 I7;7 I7;7 I7;7 I7;7 I7;7 I7;7 I7;7 I7;7 I7;7 I7;7 I7;7 I7;7 I7;7 I7;7 I7;7 I7;7 I7;7 I7;7 I7;7 I7;7 I7;7 I7;7 I7;7 I7;7 I7;7 I7;7 I7;7 I7;7 I7;7 I7;7 I7;7 I7;7 I7;7 I7;7 I7;7 I7;7 I7;7 I7;7 I7;7 I7;7 I7;7 I7;7 I7;7 I7;7 I7;7 I7;7 I7;7 I7;7 I7;7 I7;7 I7;7 I7;7 I7;7 I7;7 I7;7 I7;7 I7;7 I7;7 I7;7 I7;7 I7;7 I7;7 I7;7 I7;7 I7;7 I7;7 I7;7 I7;7 I7;7 I7;7 I7;7 I7;7 I7;7 I7;7 I7;7 I7;7 I7;7 I7;7 I7;7 I7;7 I7;7 I7;7 I7;7 I7;7 I7;7 I7;7 I7;7 I7;7 I7;7 I7;7 I7;7 I7;7 I7;7 I7;7 I7;7 I7;7 I7;7 I7;7 I7;7 I7;7 I7;7 I7;7 I7;7 I7;7 I7;7 I7;7 I7;7 I7;7 I7;7 I7;7 I7;7 I7;7 J7;7 J7;7 J7;7 J7;7 J7;7 J7;7 J7;7 J7;7 J7;7 J7;7 J7;7 J7;7 J7;7 J7;7 J7;7 J7;7 J7;7 J7;7 J7;7 J7;7 J7;7 J7;7 J7;7 J7;7 J7;7 J7;7 J7;7 J7;7 J7;7 J7;7 J7;7 J7;7 J7;7 J7;7 J7;7 J7;7 J7;7 J7;7 J7;7 J7;7 J7;7 J7;7 J7;7 J7;7 J7;7 J7;7 J7;7 J7;7 J7;7 J7;7 J7;7 J7;7 J7;7 J7;7 J7;7 J7;7 J7;7 J7;7 J7;7 J7;7 J7;7 J7;7 J7;7 J7;7 J7;7 J7;7 J7;7 J7;7 J7;7 J7;7 J7;7 J7;7 J7;7 J7;7 J7;7 J7;7 J7;7 J7;7 J7;7 J7;7 J7;7 J7;7 J7;7 J7;7 J7;7 J7;7 J7;7 J7;7 J7;7 J7;7 J7;7 J7;7 J7;7 J7;7 J7;7 J7;7 J7;7 J7;7 J7;7 J7;7 J7;7 J7;7 J7;7 J7;7 J7;7 J7;7 J7;7 J7;7 J7;7 J7;7 J7;7 J7;7 J7;7 J7;7 J7;7 J7;7 J7;7 J7;7 J7;7 J7;7 J7;7 J7;7 J7;7 J7;7 J7;7 J7;7 J7;7 J7;7 J7;7 J7;7 J7;7 J7;7 J7;7 J7;7 J7;7 J7;7 J7;7 J7;7 J7;7 J7;7 J7;7 J7;7 J7;7 J7;7 J7;7 J7;7 J7;7 J7;7 J7;7 J7;7 J7;7 J7;7 J7;7 J7;7 J7;7 J7;7 J7;7 J7;7 J7;7 J7;7 J7;7 J7;7 J7;7 J7;7 J7;7 J7;7 J7;7 J7;7 J7;7 J7;7 J7;7 L7=7 L7=7 L7=7 L7=7 L7=7 L7=7 L7=7 L7=7 L7=7 L7=7 L7=7 L7=7 L7=7 L7=7 L7=7 L7=7 L7=7 L7=7 L7=7 L7=7 L7=7 L7=7 L7=7 L7=7 L7=7 L7=7 L7=7 L7=7 L7=7 L7=7 L7=7 L7=7 L7=7 L7=7 L7=7 L7=7 L7=7 L7=7 L7=7 L7=7 L7=7 L7=7 L7=7 L7=7 L7=7 L7=7 L7=7 L7=7 L7=7 L7=7 L7=7 L7=7 L7=7 L7=7 L7=7 L7=7 L7=7 L7=7 L7=7 L7=7 L7=7 L7=7 L7=7 L7=7 L7=7 L7=7 L7=7 L7=7 L7=7 L7=7 L7=7 L7=7 L7=7 L7=7 L7=7 L7=7 L7=7 L7=7 L7=7 L7=7 L7=7 L7=7 L7=7 L7=7 L7=7 L7=7 L7=7 L7=7 L7=7 L7=7 L7=7 L7=7 L7=7 L7=7 L7=7 L7=7 L7=7 L7=7 L7=7 L7=7 L7=7 L7=7 L7=7 L7=7 L7=7 L7=7 L7=7 L7=7 L7=7 L7=7 L7=7 L7=7 L7=7 L7=7 L7=7 L7=7 L7=7 L7=7 L7=7 L7=7 L7=7 L7=7 L7=7 L7=7 L7=7 L7=7 L7=7 L7=7 L7=7 L7=7 L7=7 L7=7 L7=7 L7=7 L7=7 L7=7 L7=7 L7=7 L7=7 L7=7 L7=7 L7=7 L7=7 L7=7 L7=7 L7=7 L7=7 L7=7 L7=7 L7=7 L7=7 L7=7 L7=7 L7=7 L7=7 L7=7 L7=7 L7=7 L7=7 L7=7 L7=7 L7=7 L7=7 L7=7 L7=7 L7=7 L7=7 L7=7 L7=7 L7=7 L7=7 J7>7 J7>7 J7>7 J7>7 J7>7 J7>7 J7>7 J7>7 J7>7 J7>7 J7>7 J7>7 J7>7 J7>7 J7>7 J7>7 J7>7 J7>7 J7>7 J7>7 J7>7 J7>7 J7>7 J7>7 J7>7 J7>7 J7>7 J7>7 J7>7 J7>7 J7>7 J7>7 J7>7 J7>7 J7>7 J7>7 J7>7 J7>7 J7>7 J7>7 J7>7 J7>7 J7>7 J7>7 J7>7 J7>7 J7>7 J7>7 J7>7 J7>7 J7>7 J7>7 J7>7 J7>7 J7>7 J7>7 J7>7 J7>7 J7>7 J7>7 J7>7 J7>7 J7>7 J7>7 J7>7 J7>7 J7>7 J7>7 J7>7 J7>7 J7>7 J7>7 J7>7 J7>7 J7>7 J7>7 J7>7 J7>7 J7>7 J7>7 J7>7 J7>7 J7>7 J7>7 J7>7 J7>7 J7>7 J7>7 J7>7 J7>7 J7>7 J7>7 J7>7 J7>7 J7>7 J7>7 J7>7 J7>7 J7>7 J7>7 J7>7 J7>7 J7>7 J7>7 J7>7 J7>7 J7>7 J7>7 J7>7 J7>7 J7>7 J7>7 J7>7 J7>7 J7>7 J7>7 J7>7 J7>7 J7>7 J7>7 J7>7 J7>7 J7>7 J7>7 J7>7 J7>7 J7>7 J7>7 J7>7 J7>7 J7>7 J7>7 J7>7 J7>7 J7>7 J7>7 J7>7 J7>7 J7>7 J7>7 J7>7 J7>7 J7>7 J7>7 J7>7 J7>7 J7>7 J7>7 J7>7 J7>7 J7>7 J7>7 J7>7 J7>7 J7>7 J7>7 J7>7 J7>7 J7>7 J7>7 J7>7 J7>7 J7>7 J7>7 J7>7 J7>7 J7>7 J7>7 J7>7 J7>7 I77@ I77@ I77@ I77@ I77@ I77@ I77@ I77@ I77@ I77@ I77@ I77@ I77@ I77@ I77@ I77@ I77@ I77@ I77@ I77@ I77@ I77@ I77@ I77@ I77@ I77@ I77@ I77@ I77@ I77@ I77@ I77@ I77@ I77@ I77@ I77@ I77@ I77@ I77@ I77@ I77@ I77@ I77@ I77@ I77@ I77@ I77@ I77@ I77@ I77@ I77@ I77@ I77@ I77@ I77@ I77@ I77@ I77@ I77@ I77@ I77@ I77@ I77@ I77@ I77@ I77@ I77@ I77@ I77@ I@ I@ I@ I@ I@ I@ I@ I@ I@ I@ I@ I@ I@ I@ I@ I@ I@ I@ I@ I@ I@ I@ I@ I@ I@ I@ I@ I@ I@ I@ I@ I@ I@ I@ I@ I@ I@ I@ I@ I@ I@ I@ I@ I@ I@ I@ I@ I@ I@ I@ I@ I@ I@ I@ I@ I@ I@ I@ I@ I@ I@ I@ I@ I@ I@ I@ I@ I@ I@ I@ I@ I@ I@ I@ I@ I@ I@ I@ I@ I@ I@ I@ I@ I@ I@ I@ I@ I@ I@ I@ I@ I@ I@ I@ I@ I@ I@ I@ I@ I@ I@ I@ J669B J669B J669B J669B J669B J669B J669B J669B J669B J669B J669B J669B J669B J669B J669B J669B J669B J669B J669B J669B J669B J669B J669B J669B J669B J669B J669B J669B J669B J669B J669B J669B J669B J669B J669B J669B J669B J669B J669B J669B J669B J669B J669B J669B J669B J669B J669B J669B J669B J669B J669B J669B J669B J669B J669B J669B J669B J669B J669B J669B J669B J669B J669B J669B J669B J669B J669B J669B J669B J669B J669B J669B J669B J669B J669B J669B J669B J669B J669B J669B J669B J669B J669B J669B J669B J669B J669B J669B J669B J669B J669B J669B J669B J669B J669B J669B J669B J669B J669B J669B J669B J669B J669B J669B J669B J669B J669B J669B J669B J669B J669B J669B J669B J669B J669B J669B J669B J669B J669B J669B J669B J669B J669B J669B J669B J669B J669B J669B J669B J669B J669B J669B J669B J669B J669B J669B J669B J669B J669B J669B J669B J669B J669B J669B J669B J669B J669B J669B J669B J669B J669B J669B J669B J669B J669B J669B J669B J669B J669B J669B J669B J669B J669B J669B J669B J669B J669B J669B J669B J669B J669B L669B L669B L669B L669B L669B L669B L669B L669B L669B L669B L669B L669B L669B L669B L669B L669B L669B L669B L669B L669B L669B L669B L669B L669B L669B L669B L669B L669B L669B L669B L669B L669B L669B L669B L669B L669B L669B L669B L669B L669B L669B L669B L669B L669B L669B L669B L669B L669B L669B L669B L669B L669B L669B L669B L669B L669B L669B L669B L669B L669B L669B L669B L669B L669B L669B L669B L669B L669B L669B L669B L669B L669B L669B L669B L669B L669B L669B L669B L669B L669B L669B L669B L669B L669B L669B L669B L669B L669B L669B L669B L669B L669B L669B L669B L669B L669B L669B L669B L669B L669B L669B L669B L669B L669B L669B L669B L669B L669B L669B L669B L669B L669B L669B L669B L669B L669B L669B L669B L669B L669B L669B L669B L669B L669B L669B L669B L669B L669B L669B L669B L669B L669B L669B L669B L669B L669B L669B L669B L669B L669B L669B L669B L669B L669B L669B L669B L669B L669B L669B L669B L669B L669B L669B L669B L669B L669B L669B L669B L669B L669B L669B L669B L669B L669B L669B L669B L669B L669B L669B L669B N669B N669B N669B N669B N669B N669B N669B N669B N669B N669B N669B N669B N669B N669B N669B N669B N669B N9B N9B N9B N9B N9B N9B N9B N9B N9B N9B N9B N9B N9B N9B N9B N9B N9B N9B N9B N9B N9B N9B N9B N9B N9B N9B N9B N9B N9B N9B N9B N9B N9B N9B N9B N9B N9B N9B N9B N9B N9B N9B N9B N9B N9B N9B N9B N9B N9B N9B N9B N9B N9B N9B N9B N9B N9B N9B N9B N9B N9B N9B N9B N9B N9B N9B N9B N9B N9B N9B N9B N9B N9B N9B N9B N9B N9B N9B N9B N9B N9B N9B N9B N9B N9B N9B N9B N9B N9B N9B N9B N9B N9B N9B N9B N9B N9B N9B N9B N9B N9B N9B N9B N9B N9B N9B N9B N9B N9B N9B N9B N9B N9B N9B N9B N9B N9B N9B N9B N9B N9B N9B N9B N9B N9B N9B N9B N9B N9B N9B N9B N9B N9B N9B N9B N9B N9B 9B 9B 9B 9B 9B 9B 9B 9B 9B 9B 9B 9B 9B 9B 9B 9B 9B G++2; G++2; G++2; G++2; G++2; G++2; G++2; G++2; G++2; G++2; G++2; G++2; G++2; G++2; G++2; G++2; G++2; G++2; G++2; G++2; G++2; G++2; G++2; G++2; G++2; G++2; G++2; G++2; G++2; G++2; G++2; G++2; G++2; G++2; G++2; G++2; G++2; G++2; G++2; G++2; G++2; G++2; G++2; G++2; G++2; G++2; G++2; G++2; G++2; G++2; G++2; G++2; G++2; G++2; G++2; G++2; G++2; G++2; G++2; G++2; G++2; G++2; G++2; G++2; G++2; G++2; G++2; G++2; G++2; G++2; G++2; G++2; G++2; G++2; G++2; G++2; G++2; G++2; G++2; G++2; G++2; G++2; G++2; G++2; G++2; G++2; G++2; G++2; G++2; G++2; G++2; G++2; G++2; G++2; G++2; G++2; G++2; G++2; G++2; G++2; G++2; G++2; G++2; G++2; G++2; G++2; G++2; G++2; G++2; G++2; G++2; G++2; G++2; G++2; G++2; G++2; G++2; G++2; G++2; G++2; G++2; G++2; G++2; G++2; G++2; G++2; G++2; G++2; G++2; G++2; G++2; G++2; G++2; G++2; G++2; G++2; G++2; G++2; G++2; G++2; G++2; G++2; G++2; G++2; G++2; G++2; G++2; G++2; G++2; G++2; G++2; G++2; G++2; G++2; G++2; G++2; G++2; G++2; G++2; G++2; G++2; G++2; G++2; G++2; G++2; G++2; G++2; G++2; G++2; G++2; G++2; E++2; E++2; E++2; E++2; E++2; E++2; E++2; E++2; E++2; E++2; E++2; E++2; E++2; E++2; E++2; E++2; E++2; E++2; E++2; E++2; E++2; E++2; E++2; E++2; E++2; E++2; E++2; E++2; E++2; E++2; E++2; E++2; E++2; E++2; E++2; E++2; E++2; E++2; E++2; E++2; E++2; E++2; E++2; E++2; E++2; E++2; E++2; E++2; E++2; E++2; E++2; E++2; E++2; E++2; E++2; E++2; E++2; E++2; E++2; E++2; E++2; E++2; E++2; E++2; E++2; E++2; E++2; E++2; E++2; E++2; E++2; E++2; E++2; E++2; E++2; E++2; E++2; E++2; E++2; E++2; E++2; E++2; E++2; E++2; E++2; E++2; E++2; E++2; E++2; E++2; E++2; E++2; E++2; E++2; E++2; E++2; E++2; E++2; E++2; E++2; E++2; E++2; E++2; E++2; E++2; E++2; E++2; E++2; E++2; E++2; E++2; E++2; E++2; E++2; E++2; E++2; E++2; E++2; E++2; E++2; E++2; E++2; E++2; E++2; E++2; E++2; E++2; E++2; E++2; E++2; E++2; E++2; E++2; E++2; E++2; E++2; E++2; E++2; E++2; E++2; E++2; E++2; E++2; E++2; E++2; E++2; E++2; E++2; E++2; E++2; E++2; E++2; E++2; E++2; E++2; E++2; E++2; E++2; E++2; E++2; E++2; E++2; E++2; E++2; E++2; E++2; E++2; E++2; E++2; E++2; C++2; C++2; C++2; C++2; C++2; C++2; C++2; C++2; C++2; C++2; C++2; C++2; C++2; C++2; C++2; C++2; C++2; C2; C2; C2; C2; C2; C2; C2; C2; C2; C2; C2; C2; C2; C2; C2; C2; C2; C2; C2; C2; C2; C2; C2; C2; C2; C2; C2; C2; C2; C2; C2; C2; C2; C2; C2; C2; C2; C2; C2; C2; C2; C2; C2; C2; C2; C2; C2; C2; C2; C2; C2; C2; C2; C2; C2; C2; C2; C2; C2; C2; C2; C2; C2; C2; C2; C2; C2; C2; C2; C2; C2; C2; C2; C2; C2; C2; C2; C2; C2; C2; C2; C2; C2; C2; C2; C2; C2; C2; C2; C2; C2; C2; C2; C2; C2; C2; C2; C2; C2; C2; C2; C2; C2; C2; C2; C2; C2; C2; C2; C2; C2; C2; C2; C2; C2; C2; C2; C2; C2; C2; C2; C2; C2; C2; C2; C2; C2; C2; C2; C2; C2; C2; C2; C2; C2; C2; C2; C2; C2; C2; C2; C2; C2; C2; C2; C2; C2; C2; C2; C2; C2; C2; C2; C2; >77;> >77;> >77;> >77;> >77;> >77;> >77;> >77;> >77;> >77;> >77;> >77;> >77;> >77;> >77;> >77;> >77;> >77;> >77;> >77;> >77;> >77;> >77;> >77;> >77;> >77;> >77;> >77;> >77;> >77;> >77;> >77;> >77;> >77;> >77;> >77;> >77;> >77;> >77;> >77;> >77;> >77;> >77;> >77;> >77;> >77;> >77;> >77;> >77;> >77;> >77;> >77;> >77;> >77;> >77;> >77;> >77;> >77;> >77;> >77;> >77;> >77;> >77;> >77;> >77;> >77;> >77;> >77;> >77;> >77;> >77;> >77;> >77;> >77;> >77;> >77;> >77;> >77;> >77;> >77;> >77;> >77;> >77;> >77;> >77;> >77;> >77;> >77;> >77;> >77;> >77;> >77;> >77;> >77;> >77;> >77;> >77;> >77;> >77;> >77;> >77;> >77;> >77;> >77;> >77;> >77;> >77;> >77;> >77;> >77;> >77;> >77;> >77;> >77;> >77;> >77;> >77;> >77;> >77;> >77;> >77;> >77;> >77;> >77;> >77;> >77;> >77;> >77;> >77;> >77;> >77;> >77;> >77;> >77;> >77;> >77;> >77;> >77;> >77;> >77;> >77;> >77;> >77;> >77;> >77;> >77;> >77;> >77;> >77;> >77;> >77;> >77;> >77;> >77;> >77;> >77;> >77;> >77;> >77;> >77;> >77;> >77;> >77;> >77;> >77;> >77;> >77;> >77;> >77;> >77;> >77;> C77;> C77;> C77;> C77;> C77;> C77;> C77;> C77;> C77;> C77;> C77;> C77;> C77;> C77;> C77;> C77;> C77;> C77;> C77;> C77;> C77;> C77;> C77;> C77;> C77;> C77;> C77;> C77;> C77;> C77;> C77;> C77;> C77;> C77;> C77;> C77;> C77;> C77;> C77;> C77;> C77;> C77;> C77;> C77;> C77;> C77;> C77;> C77;> C77;> C77;> C77;> C77;> C77;> C77;> C77;> C77;> C77;> C77;> C77;> C77;> C77;> C77;> C77;> C77;> C77;> C77;> C77;> C77;> C77;> C77;> C77;> C77;> C77;> C77;> C77;> C77;> C77;> C77;> C77;> C77;> C77;> C77;> C77;> C77;> C77;> C77;> C77;> C77;> C77;> C77;> C77;> C77;> C77;> C77;> C77;> C77;> C77;> C77;> C77;> C77;> C77;> C77;> C77;> C77;> C77;> C77;> C77;> C77;> C77;> C77;> C77;> C77;> C77;> C77;> C77;> C77;> C77;> C77;> C77;> C77;> C77;> C77;> C77;> C77;> C77;> C77;> C77;> C77;> C77;> C77;> C77;> C77;> C77;> C77;> C77;> C77;> C77;> C77;> C77;> C77;> C77;> C77;> C77;> C77;> C77;> C77;> C77;> C77;> C77;> C77;> C77;> C77;> C77;> C77;> C77;> C77;> C77;> C77;> C77;> C77;> C77;> C77;> C77;> C77;> C77;> C77;> C77;> C77;> C77;> C77;> E77;> E77;> E77;> E77;> E77;> E77;> E77;> E77;> E77;> E77;> E77;> E77;> E77;> E77;> E77;> E77;> E77;> E77;> E77;> E77;> E77;> E77;> E77;> E77;> E77;> E77;> E77;> E77;> E77;> E77;> E77;> E77;> E77;> E77;> E77;> E77;> E77;> E77;> E77;> E77;> E77;> E77;> E77;> E77;> E77;> E77;> E77;> E77;> E77;> E77;> E77;> E77;> E77;> E77;> E77;> E77;> E77;> E77;> E77;> E77;> E77;> E77;> E77;> E77;> E77;> E77;> E77;> E77;> E77;> E77;> E77;> E77;> E77;> E77;> E77;> E77;> E77;> E77;> E77;> E77;> E77;> E77;> E77;> E77;> E77;> E77;> E77;> E77;> E77;> E77;> E77;> E77;> E77;> E77;> E77;> E77;> E77;> E77;> E77;> E77;> E77;> E77;> E77;> E77;> E77;> E77;> E77;> E77;> E77;> E77;> E77;> E77;> E77;> E77;> E77;> E77;> E77;> E77;> E77;> E77;> E77;> E77;> E77;> E77;> E77;> E77;> E77;> E77;> E77;> E77;> E77;> E77;> E77;> E77;> E77;> E77;> E77;> E77;> E77;> E77;> E77;> E77;> E77;> E77;> E77;> E77;> E77;> E77;> E77;> E77;> E77;> E77;> E77;> E77;> E77;> E77;> E77;> E77;> E77;> E77;> E77;> E77;> E77;> E77;> E77;> E77;> E77;> E77;> E77;> E77;> E77;> G77;> G77;> G77;> G77;> G77;> G77;> G77;> G77;> G77;> G77;> G77;> G77;> G77;> G77;> G77;> G77;> G77;> G77;> G77;> G77;> G77;> G77;> G77;> G77;> G77;> G77;> G77;> G77;> G77;> G77;> G77;> G77;> G77;> G77;> G77;> G77;> G77;> G77;> G77;> G77;> G77;> G77;> G77;> G77;> G77;> G77;> G77;> G77;> G77;> G77;> G77;> G77;> G77;> G77;> G77;> G77;> G77;> G77;> G77;> G77;> G77;> G77;> G77;> G77;> G77;> G77;> G77;> G77;> G77;> G77;> G77;> G77;> G77;> G77;> G77;> G77;> G77;> G77;> G77;> G77;> G77;> G77;> G77;> G77;> G77;> G77;> G77;> G77;> G77;> G77;> G77;> G77;> G77;> G77;> G77;> G77;> G77;> G77;> G77;> G77;> G77;> G77;> G77;> G77;> G77;> G77;> G77;> G77;> G77;> G77;> G77;> G77;> G77;> G77;> G77;> G77;> G77;> G77;> G77;> G77;> G77;> G77;> G77;> G77;> G77;> G77;> G77;> G77;> G77;> G77;> G77;> G77;> G77;> G77;> G77;> G77;> G77;> G77;> G77;> G77;> G77;> G77;> G77;> G77;> G77;> G77;> G77;> G77;> G77;> G77;> G77;> G77;> G77;> G77;> G77;> G77;> G77;> G77;> G77;> G77;> G77;> G77;> G77;> G77;> G77;> G77;> G77;> G77;> G77;> G77;> G77;> E77;> E77;> E77;> E77;> E77;> E77;> E77;> E77;> E77;> E77;> E77;> E77;> E77;> E77;> E77;> E77;> E77;> E77;> E77;> E77;> E77;> E77;> E77;> E77;> E77;> E77;> E77;> E77;> E77;> E77;> E77;> E77;> E77;> E77;> E77;> E77;> E77;> E77;> E77;> E77;> E77;> E77;> E77;> E77;> E77;> E77;> E77;> E77;> E77;> E77;> E77;> E77;> E77;> E77;> E77;> E77;> E77;> E77;> E77;> E77;> E77;> E77;> E77;> E77;> E77;> E77;> E77;> E77;> E77;> E77;> E77;> E77;> E77;> E77;> E77;> E77;> E77;> E77;> E77;> E77;> E77;> E77;> E77;> E77;> E77;> E77;> E77;> E77;> E77;> E77;> E77;> E77;> E77;> E77;> E77;> E77;> E77;> E77;> E77;> E77;> E77;> E77;> E77;> E77;> E77;> E77;> E77;> E77;> E77;> E77;> E77;> E77;> E77;> E77;> E77;> E77;> E77;> E77;> E77;> E77;> E77;> E77;> E77;> E77;> E77;> E77;> E77;> E77;> E77;> E77;> E77;> E77;> E77;> E77;> E77;> E77;> E77;> E77;> E77;> E77;> E77;> E77;> E77;> E77;> E77;> E77;> E77;> E77;> E77;> E77;> E77;> E77;> E77;> E77;> E77;> E77;> E77;> E77;> E77;> E77;> E77;> E77;> E77;> E77;> E77;> E77;> E77;> E77;> E77;> E77;> C77;> C77;> C77;> C77;> C77;> C77;> C77;> C77;> C77;> C77;> C77;> C77;> C77;> C77;> C77;> C77;> C77;> C77;> C77;> C77;> C77;> C77;> C77;> C77;> C77;> C77;> C77;> C77;> C77;> C77;> C77;> C77;> C77;> C77;> C77;> C77;> C77;> C77;> C77;> C77;> C77;> C77;> C77;> C77;> C77;> C77;> C77;> C77;> C77;> C77;> C77;> C77;> C77;> C77;> C77;> C77;> C77;> C77;> C77;> C77;> C77;> C77;> C77;> C77;> C77;> C77;> C77;> C77;> C77;> C;> C;> C;> C;> C;> C;> C;> C;> C;> C;> C;> C;> C;> C;> C;> C;> C;> C;> C;> C;> C;> C;> C;> C;> C;> C;> C;> C;> C;> C;> C;> C;> C;> C;> C;> C;> C;> C;> C;> C;> C;> C;> C;> C;> C;> C;> C;> C;> C;> C;> C;> C;> C;> C;> C;> C;> C;> C;> C;> C;> C;> C;> C;> C;> C;> C;> C;> C;> C;> C;> C;> C;> C;> C;> C;> C;> C;> C;> C;> C;> C;> C;> C;> C;> C;> C;> C;> C;> C;> C;> C;> C;> C;> C;> C;> C;> C;> C;> C;> C;> C;> C;> E696 E696 E696 E696 E696 E696 E696 E696 E696 E696 E696 E696 E696 E696 E696 E696 E696 E696 E696 E696 E696 E696 E696 E696 E696 E696 E696 E696 E696 E696 E696 E696 E696 E696 E696 E696 E696 E696 E696 E696 E696 E696 E696 E696 E696 E696 E696 E696 E696 E696 E696 E696 E696 E696 E696 E696 E696 E696 E696 E696 E696 E696 E696 E696 E696 E696 E696 E696 E696 E696 E696 E696 E696 E696 E696 E696 E696 E696 E696 E696 E696 E696 E696 E696 E696 E696 E696 E696 E696 E696 E696 E696 E696 E696 E696 E696 E696 E696 E696 E696 E696 E696 E696 E696 E696 E696 E696 E696 E696 E696 E696 E696 E696 E696 E696 E696 E696 E696 E696 E696 E696 E696 E696 E696 E696 E696 E696 E696 E696 E696 E696 E696 E696 E696 E696 E696 E696 E696 E696 E696 E696 E696 E696 E696 E696 E696 E696 E696 E696 E696 E696 E696 E696 E696 E696 E696 E696 E696 E696 E696 E696 E696 E696 E696 E696 E696 E696 E696 E696 E696 E696 G696 G696 G696 G696 G696 G696 G696 G696 G696 G696 G696 G696 G696 G696 G696 G696 G696 G696 G696 G696 G696 G696 G696 G696 G696 G696 G696 G696 G696 G696 G696 G696 G696 G696 G696 G696 G696 G696 G696 G696 G696 G696 G696 G696 G696 G696 G696 G696 G696 G696 G696 G696 G696 G696 G696 G696 G696 G696 G696 G696 G696 G696 G696 G696 G696 G696 G696 G696 G696 G696 G696 G696 G696 G696 G696 G696 G696 G696 G696 G696 G696 G696 G696 G696 G696 G696 G696 G696 G696 G696 G696 G696 G696 G696 G696 G696 G696 G696 G696 G696 G696 G696 G696 G696 G696 G696 G696 G696 G696 G696 G696 G696 G696 G696 G696 G696 G696 G696 G696 G696 G696 G696 G696 G696 G696 G696 G696 G696 G696 G696 G696 G696 G696 G696 G696 G696 G696 G696 G696 G696 G696 G696 G696 G696 G696 G696 G696 G696 G696 G696 G696 G696 G696 G696 G696 G696 G696 G696 G696 G696 G696 G696 G696 G696 G696 G696 G696 G696 G696 G696 I696 I696 I696 I696 I696 I696 I696 I696 I696 I696 I696 I696 I696 I696 I696 I696 I696 I696 I696 I696 I696 I696 I696 I696 I696 I696 I696 I696 I696 I696 I696 I696 I696 I696 I696 I696 I696 I696 I696 I696 I696 I696 I696 I696 I696 I696 I696 I696 I696 I696 I696 I696 I696 I696 I696 I696 I696 I696 I696 I696 I696 I696 I696 I696 I696 I696 I696 I696 I696 I696 I696 I696 I696 I696 I696 I696 I696 I696 I696 I696 I696 I696 I696 I696 I696 I696 I696 I696 I696 I696 I696 I696 I696 I696 I696 I696 I696 I696 I696 I696 I696 I696 I696 I696 I696 I696 I696 I696 I696 I696 I696 I696 I696 I696 I696 I696 I696 I696 I696 I696 I696 I696 I696 I696 I696 I696 I696 I696 I696 I696 I696 I696 I696 I696 I696 I696 I696 I696 I696 I696 I696 I696 I696 I696 I696 I696 I696 I696 I696 I696 I696 I696 I696 I696 I696 I696 I696 I696 I696 I696 I696 I696 I696 I696 I696 I696 I696 I696 I696 I696 I696 J6;6 J6;6 J6;6 J6;6 J6;6 J6;6 J6;6 J6;6 J6;6 J6;6 J6;6 J6;6 J6;6 J6;6 J6;6 J6;6 J6;6 J6;6 J6;6 J6;6 J6;6 J6;6 J6;6 J6;6 J6;6 J6;6 J6;6 J6;6 J6;6 J6;6 J6;6 J6;6 J6;6 J6;6 J6;6 J6;6 J6;6 J6;6 J6;6 J6;6 J6;6 J6;6 J6;6 J6;6 J6;6 J6;6 J6;6 J6;6 J6;6 J6;6 J6;6 J6;6 J6;6 J6;6 J6;6 J6;6 J6;6 J6;6 J6;6 J6;6 J6;6 J6;6 J6;6 J6;6 J6;6 J6;6 J6;6 J6;6 J6;6 J6;6 J6;6 J6;6 J6;6 J6;6 J6;6 J6;6 J6;6 J6;6 J6;6 J6;6 J6;6 J6;6 J6;6 J6;6 J6;6 J6;6 J6;6 J6;6 J6;6 J6;6 J6;6 J6;6 J6;6 J6;6 J6;6 J6;6 J6;6 J6;6 J6;6 J6;6 J6;6 J6;6 J6;6 J6;6 J6;6 J6;6 J6;6 J6;6 J6;6 J6;6 J6;6 J6;6 J6;6 J6;6 J6;6 J6;6 J6;6 J6;6 J6;6 J6;6 J6;6 J6;6 J6;6 J6;6 J6;6 J6;6 J6;6 J6;6 J6;6 J6;6 J6;6 J6;6 J6;6 J6;6 J6;6 J6;6 J6;6 J6;6 J6;6 J6;6 J6;6 J6;6 J6;6 J6;6 J6;6 J6;6 J6;6 J6;6 J6;6 J6;6 J6;6 J6;6 J6;6 J6;6 J6;6 J6;6 J6;6 J6;6 J6;6 J6;6 J6;6 J6;6 J6;6 J6;6 J6;6 J6;6 J6;6 J6;6 J6;6 J6;6 J6;6 I6=6 I6=6 I6=6 I6=6 I6=6 I6=6 I6=6 I6=6 I6=6 I6=6 I6=6 I6=6 I6=6 I6=6 I6=6 I6=6 I6=6 I6=6 I6=6 I6=6 I6=6 I6=6 I6=6 I6=6 I6=6 I6=6 I6=6 I6=6 I6=6 I6=6 I6=6 I6=6 I6=6 I6=6 I6=6 I6=6 I6=6 I6=6 I6=6 I6=6 I6=6 I6=6 I6=6 I6=6 I6=6 I6=6 I6=6 I6=6 I6=6 I6=6 I6=6 I6=6 I6=6 I6=6 I6=6 I6=6 I6=6 I6=6 I6=6 I6=6 I6=6 I6=6 I6=6 I6=6 I6=6 I6=6 I6=6 I6=6 I6=6 I6=6 I6=6 I6=6 I6=6 I6=6 I6=6 I6=6 I6=6 I6=6 I6=6 I6=6 I6=6 I6=6 I6=6 I6=6 I6=6 I6=6 I6=6 I6=6 I6=6 I6=6 I6=6 I6=6 I6=6 I6=6 I6=6 I6=6 I6=6 I6=6 I6=6 I6=6 I6=6 I6=6 I6=6 I6=6 I6=6 I6=6 I6=6 I6=6 I6=6 I6=6 I6=6 I6=6 I6=6 I6=6 I6=6 I6=6 I6=6 I6=6 I6=6 I6=6 I6=6 I6=6 I6=6 I6=6 I6=6 I6=6 I6=6 I6=6 I6=6 I6=6 I6=6 I6=6 I6=6 I6=6 I6=6 I6=6 I6=6 I6=6 I6=6 I6=6 I6=6 I6=6 I6=6 I6=6 I6=6 I6=6 I6=6 I6=6 I6=6 I6=6 I6=6 I6=6 I6=6 I6=6 I6=6 I6=6 I6=6 I6=6 I6=6 I6=6 I6=6 I6=6 I6=6 I6=6 I6=6 I6=6 I6=6 I6=6 I6=6 I6=6 G66> G66> G66> G66> G66> G66> G66> G66> G66> G66> G66> G66> G66> G66> G66> G66> G66> G66> G66> G66> G66> G66> G66> G66> G66> G66> G66> G66> G66> G66> G66> G66> G66> G66> G66> G66> G66> G66> G66> G66> G66> G66> G66> G66> G66> G66> G66> G66> G66> G66> G66> G66> G66> G66> G66> G66> G66> G66> G66> G66> G66> G66> G66> G66> G66> G66> G66> G66> G66> G> G> G> G> G> G> G> G> G> G> G> G> G> G> G> G> G> G> G> G> G> G> G> G> G> G> G> G> G> G> G> G> G> G> G> G> G> G> G> G> G> G> G> G> G> G> G> G> G> G> G> G> G> G> G> G> G> G> G> G> G> G> G> G> G> G> G> G> G> G> G> G> G> G> G> G> G> G> G> G> G> G> G> G> G> G> G> G> G> G> G> G> G> G> G> G> G> G> G> G> G> G> I447@ I447@ I447@ I447@ I447@ I447@ I447@ I447@ I447@ I447@ I447@ I447@ I447@ I447@ I447@ I447@ I447@ I447@ I447@ I447@ I447@ I447@ I447@ I447@ I447@ I447@ I447@ I447@ I447@ I447@ I447@ I447@ I447@ I447@ I447@ I447@ I447@ I447@ I447@ I447@ I447@ I447@ I447@ I447@ I447@ I447@ I447@ I447@ I447@ I447@ I447@ I447@ I447@ I447@ I447@ I447@ I447@ I447@ I447@ I447@ I447@ I447@ I447@ I447@ I447@ I447@ I447@ I447@ I447@ I447@ I447@ I447@ I447@ I447@ I447@ I447@ I447@ I447@ I447@ I447@ I447@ I447@ I447@ I447@ I447@ I447@ I447@ I447@ I447@ I447@ I447@ I447@ I447@ I447@ I447@ I447@ I447@ I447@ I447@ I447@ I447@ I447@ I447@ I447@ I447@ I447@ I447@ I447@ I447@ I447@ I447@ I447@ I447@ I447@ I447@ I447@ I447@ I447@ I447@ I447@ I447@ I447@ I447@ I447@ I447@ I447@ I447@ I447@ I447@ I447@ I447@ I447@ I447@ I447@ I447@ I447@ I447@ I447@ I447@ I447@ I447@ I447@ I447@ I447@ I447@ I447@ I447@ I447@ I447@ I447@ I447@ I447@ I447@ I447@ I447@ I447@ I447@ I447@ I447@ I447@ I447@ I447@ I447@ I447@ I447@ I447@ I447@ I447@ I447@ I447@ I447@ K447@ K447@ K447@ K447@ K447@ K447@ K447@ K447@ K447@ K447@ K447@ K447@ K447@ K447@ K447@ K447@ K447@ K447@ K447@ K447@ K447@ K447@ K447@ K447@ K447@ K447@ K447@ K447@ K447@ K447@ K447@ K447@ K447@ K447@ K447@ K447@ K447@ K447@ K447@ K447@ K447@ K447@ K447@ K447@ K447@ K447@ K447@ K447@ K447@ K447@ K447@ K447@ K447@ K447@ K447@ K447@ K447@ K447@ K447@ K447@ K447@ K447@ K447@ K447@ K447@ K447@ K447@ K447@ K447@ K447@ K447@ K447@ K447@ K447@ K447@ K447@ K447@ K447@ K447@ K447@ K447@ K447@ K447@ K447@ K447@ K447@ K447@ K447@ K447@ K447@ K447@ K447@ K447@ K447@ K447@ K447@ K447@ K447@ K447@ K447@ K447@ K447@ K447@ K447@ K447@ K447@ K447@ K447@ K447@ K447@ K447@ K447@ K447@ K447@ K447@ K447@ K447@ K447@ K447@ K447@ K447@ K447@ K447@ K447@ K447@ K447@ K447@ K447@ K447@ K447@ K447@ K447@ K447@ K447@ K447@ K447@ K447@ K447@ K447@ K447@ K447@ K447@ K447@ K447@ K447@ K447@ K447@ K447@ K447@ K447@ K447@ K447@ K447@ K447@ K447@ K447@ K447@ K447@ K447@ K447@ K447@ K447@ K447@ K447@ K447@ K447@ K447@ K447@ K447@ K447@ L447@ L447@ L447@ L447@ L447@ L447@ L447@ L447@ L447@ L447@ L447@ L447@ L447@ L447@ L447@ L447@ L447@ L7@ L7@ L7@ L7@ L7@ L7@ L7@ L7@ L7@ L7@ L7@ L7@ L7@ L7@ L7@ L7@ L7@ L7@ L7@ L7@ L7@ L7@ L7@ L7@ L7@ L7@ L7@ L7@ L7@ L7@ L7@ L7@ L7@ L7@ L7@ L7@ L7@ L7@ L7@ L7@ L7@ L7@ L7@ L7@ L7@ L7@ L7@ L7@ L7@ L7@ L7@ L7@ L7@ L7@ L7@ L7@ L7@ L7@ L7@ L7@ L7@ L7@ L7@ L7@ L7@ L7@ L7@ L7@ L7@ L7@ L7@ L7@ L7@ L7@ L7@ L7@ L7@ L7@ L7@ L7@ L7@ L7@ L7@ L7@ L7@ L7@ L7@ L7@ L7@ L7@ L7@ L7@ L7@ L7@ L7@ L7@ L7@ L7@ L7@ L7@ L7@ L7@ L7@ L7@ L7@ L7@ L7@ L7@ L7@ L7@ L7@ L7@ L7@ L7@ L7@ L7@ L7@ L7@ L7@ L7@ L7@ L7@ L7@ L7@ L7@ L7@ L7@ L7@ L7@ L7@ L7@ L7@ L7@ L7@ L7@ L7@ L7@ 7@ 7@ 7@ 7@ 7@ 7@ 7@ 7@ 7@ 7@ 7@ 7@ 7@ 7@ 7@ 7@ 7@ N33;B N33;B N33;B N33;B N33;B N33;B N33;B N33;B N33;B N33;B N33;B N33;B N33;B N33;B N33;B N33;B N33;B N33;B N33;B N33;B N33;B N33;B N33;B N33;B N33;B N33;B N33;B N33;B N33;B N33;B N33;B N33;B N33;B N33;B N33;B N33;B N33;B N33;B N33;B N33;B N33;B N33;B N33;B N33;B N33;B N33;B N33;B N33;B N33;B N33;B N33;B N33;B N33;B N33;B N33;B N33;B N33;B N33;B N33;B N33;B N33;B N33;B N33;B N33;B N33;B N33;B N33;B N33;B N33;B N33;B N33;B N33;B N33;B N33;B N33;B N33;B N33;B N33;B N33;B N33;B N33;B N33;B N33;B N33;B N33;B N33;B N33;B N33;B N33;B N33;B N33;B N33;B N33;B N33;B N33;B N33;B N33;B N33;B N33;B N33;B N33;B N33;B N33;B N33;B N33;B N33;B N33;B N33;B N33;B N33;B N33;B N33;B N33;B N33;B N33;B N33;B N33;B N33;B N33;B N33;B N33;B N33;B N33;B N33;B N33;B N33;B N33;B N33;B N33;B N33;B N33;B N33;B N33;B N33;B N33;B N33;B N33;B N33;B N33;B N33;B N33;B N33;B N33;B N33;B N33;B N33;B N33;B N33;B N33;B N33;B N33;B N33;B N33;B N33;B N33;B N33;B N33;B N33;B N33;B N33;B N33;B N33;B N33;B N33;B N33;B N33;B N33;B N33;B N33;B N33;B N33;B L33;B L33;B L33;B L33;B L33;B L33;B L33;B L33;B L33;B L33;B L33;B L33;B L33;B L33;B L33;B L33;B L33;B L33;B L33;B L33;B L33;B L33;B L33;B L33;B L33;B L33;B L33;B L33;B L33;B L33;B L33;B L33;B L33;B L33;B L33;B L33;B L33;B L33;B L33;B L33;B L33;B L33;B L33;B L33;B L33;B L33;B L33;B L33;B L33;B L33;B L33;B L33;B L33;B L33;B L33;B L33;B L33;B L33;B L33;B L33;B L33;B L33;B L33;B L33;B L33;B L33;B L33;B L33;B L33;B L33;B L33;B L33;B L33;B L33;B L33;B L33;B L33;B L33;B L33;B L33;B L33;B L33;B L33;B L33;B L33;B L33;B L33;B L33;B L33;B L33;B L33;B L33;B L33;B L33;B L33;B L33;B L33;B L33;B L33;B L33;B L33;B L33;B L33;B L33;B L33;B L33;B L33;B L33;B L33;B L33;B L33;B L33;B L33;B L33;B L33;B L33;B L33;B L33;B L33;B L33;B L33;B L33;B L33;B L33;B L33;B L33;B L33;B L33;B L33;B L33;B L33;B L33;B L33;B L33;B L33;B L33;B L33;B L33;B L33;B L33;B L33;B L33;B L33;B L33;B L33;B L33;B L33;B L33;B L33;B L33;B L33;B L33;B L33;B L33;B L33;B L33;B L33;B L33;B L33;B L33;B L33;B L33;B L33;B L33;B L33;B L33;B L33;B L33;B L33;B L33;B K33;B K33;B K33;B K33;B K33;B K33;B K33;B K33;B K33;B K33;B K33;B K33;B K33;B K33;B K33;B K33;B K33;B K33;B K33;B K33;B K33;B K33;B K33;B K33;B K33;B K33;B K33;B K33;B K33;B K33;B K33;B K33;B K33;B K33;B K33;B K33;B K33;B K33;B K33;B K33;B K33;B K33;B K33;B K33;B K33;B K33;B K33;B K33;B K33;B K33;B K33;B K33;B K33;B K33;B K33;B K33;B K33;B K33;B K33;B K33;B K33;B K33;B K33;B K33;B K33;B K33;B K33;B K33;B K33;B K33;B K33;B K33;B K33;B K33;B K33;B K33;B K33;B K33;B K33;B K33;B K33;B K33;B K33;B K33;B K33;B K33;B K33;B K33;B K33;B K33;B K33;B K33;B K33;B K33;B K33;B K33;B K33;B K33;B K33;B K33;B K33;B K33;B K33;B K33;B K33;B K33;B K33;B K33;B K33;B K33;B K33;B K33;B K33;B K33;B K33;B K33;B K33;B K33;B K33;B K33;B K33;B K33;B K33;B K33;B K33;B K33;B K33;B K33;B K33;B K33;B K33;B K33;B K33;B K33;B K33;B K33;B K33;B K33;B K33;B K33;B K33;B K33;B K33;B K33;B K33;B K33;B K33;B K33;B K33;B K33;B K33;B K33;B K33;B K33;B K33;B K33;B K33;B K33;B K33;B K33;B K33;B K33;B K33;B K33;B K33;B K33;B K33;B K33;B K33;B K33;B K33;B L33;B L33;B L33;B L33;B L33;B L33;B L33;B L33;B L33;B L33;B L33;B L33;B L33;B L33;B L33;B L33;B L33;B L33;B L33;B L33;B L33;B L33;B L33;B L33;B L33;B L33;B L33;B L33;B L33;B L33;B L33;B L33;B L33;B L33;B L33;B L33;B L33;B L33;B L33;B L33;B L33;B L33;B L33;B L33;B L33;B L33;B L33;B L33;B L33;B L33;B L33;B L33;B L33;B L33;B L33;B L33;B L33;B L33;B L33;B L33;B L33;B L33;B L33;B L33;B L33;B L33;B L33;B L33;B L33;B L33;B L33;B L33;B L33;B L33;B L33;B L33;B L33;B L33;B L33;B L33;B L33;B L33;B L33;B L33;B L33;B L33;B L33;B L33;B L33;B L33;B L33;B L33;B L33;B L33;B L33;B L33;B L33;B L33;B L33;B L33;B L33;B L33;B L33;B L33;B L33;B L33;B L33;B L33;B L33;B L33;B L33;B L33;B L33;B L33;B L33;B L33;B L33;B L33;B L33;B L33;B L33;B L33;B L33;B L33;B L33;B L33;B L33;B L33;B L33;B L33;B L33;B L33;B L33;B L33;B L33;B L33;B L33;B L33;B L33;B L33;B L33;B L33;B L33;B L33;B L33;B L33;B L33;B L33;B L33;B L33;B L33;B L33;B L33;B L33;B L33;B L33;B L33;B L33;B L33;B L33;B L33;B L33;B L33;B L33;B L33;B L33;B L33;B L33;B L33;B L33;B L33;B N33;B N33;B N33;B N33;B N33;B N33;B N33;B N33;B N33;B N33;B N33;B N33;B N33;B N33;B N33;B N33;B N33;B N33;B N33;B N33;B N33;B N33;B N33;B N33;B N33;B N33;B N33;B N33;B N33;B N33;B N33;B N33;B N33;B N33;B N33;B N33;B N33;B N33;B N33;B N33;B N33;B N33;B N33;B N33;B N33;B N33;B N33;B N33;B N33;B N33;B N33;B N33;B N33;B N33;B N33;B N33;B N33;B N33;B N33;B N33;B N33;B N33;B N33;B N33;B N33;B N33;B N33;B N33;B N33;B N33;B N33;B N33;B N33;B N33;B N33;B N33;B N33;B N33;B N33;B N33;B N33;B N33;B N33;B N33;B N33;B N33;B N33;B N33;B N33;B N33;B N33;B N33;B N33;B N33;B N33;B N33;B N33;B N33;B N33;B N33;B N33;B N33;B N33;B N33;B N33;B N33;B N33;B N33;B N33;B N33;B N33;B N33;B N33;B N33;B N33;B N33;B N33;B N33;B N33;B N33;B N33;B N33;B N33;B N33;B N33;B N33;B N33;B N33;B N33;B N33;B N33;B N33;B N33;B N33;B N33;B N33;B N33;B N33;B N33;B N33;B N33;B N33;B N33;B N33;B N33;B N33;B N33;B N33;B N33;B N33;B N33;B N33;B N33;B N33;B N33;B N33;B N33;B N33;B N33;B N33;B N33;B N33;B N33;B N33;B N33;B N33;B N33;B N33;B N33;B N33;B O33;B O33;B O33;B O33;B O33;B O33;B O33;B O33;B O33;B O33;B O33;B O33;B O33;B O33;B O33;B O33;B O33;B O33;B O33;B O33;B O33;B O33;B O33;B O33;B O33;B O33;B O33;B O33;B O33;B O33;B O33;B O33;B O33;B O33;B O33;B O33;B O33;B O33;B O33;B O33;B O33;B O33;B O33;B O33;B O33;B O33;B O33;B O33;B O33;B O33;B O33;B O33;B O33;B O33;B O33;B O33;B O33;B O33;B O33;B O33;B O33;B O33;B O33;B O33;B O33;B O33;B O33;B O33;B O33;B O;B O;B O;B O;B O;B O;B O;B O;B O;B O;B O;B O;B O;B O;B O;B O;B O;B O;B O;B O;B O;B O;B O;B O;B O;B O;B O;B O;B O;B O;B O;B O;B O;B O;B O;B O;B O;B O;B O;B O;B O;B O;B O;B O;B O;B O;B O;B O;B O;B O;B O;B O;B O;B O;B O;B O;B O;B O;B O;B O;B O;B O;B O;B O;B O;B O;B O;B O;B O;B O;B O;B O;B O;B O;B O;B O;B O;B O;B O;B O;B O;B O;B O;B O;B O;B O;B O;B O;B O;B O;B O;B O;B O;B O;B O;B O;B O;B O;B O;B O;B O;B O;B Q Q Q Q Q Q Q Q Q Q Q Q Q Q Q Q Q Q Q Q Q Q Q Q Q Q Q Q Q Q Q Q Q Q Q Q Q Q Q Q Q Q Q Q Q Q Q Q Q Q Q Q Q Q Q Q Q Q Q Q Q Q Q Q Q Q Q Q Q Q Q Q Q Q Q Q Q Q Q Q Q Q Q Q Q Q Q Q Q Q Q Q Q Q Q Q Q Q Q Q Q Q Q Q Q Q Q Q Q Q Q Q Q Q Q Q Q Q Q Q Q Q Q Q Q Q Q Q Q Q Q Q Q Q Q Q Q Q Q Q Q Q Q Q Q Q Q Q Q Q Q Q Q Q Q Q Q Q Q Q Q Q Q Q Q Q Q Q Q Q Q O O O O O O O O O O O O O O O O O O O O O O O O O O O O O O O O O O O O O O O O O O O O O O O O O O O O O O O O O O O O O O O O O O O O O O O O O O O O O O O O O O O O O O O O O O O O O O O O O O O O O O O O O O O O O O O O O O O O O O O O O O O O O O O O O O O O O O O O O O O O O O O O O O O O O O O O O O O O O O O O O O O O O O O O O O N N N N N N N N N N N N N N N N N N N N N N N N N N N N N N N N N N N N N N N N N N N N N N N N N N N N N N N N N N N N N N N N N N N N N N N N N N N N N N N N N N N N N N N N N N N N N N N N N N N N N N N N N N N N N N N N N N N N N N N N N N N N N N N N N N N N N N N N N N N N N N N N N N N N N N N N N N N N N N N N N N N N N N N N N N N O O O O O O O O O O O O O O O O O O O O O O O O O O O O O O O O O O O O O O O O O O O O O O O O O O O O O O O O O O O O O O O O O O O O O O O O O O O O O O O O O O O O O O O O O O O O O O O O O O O O O O O O O O O O O O O O O O O O O O O O O O O O O O O O O O O O O O O O O O O O O O O O O O O O O O O O O O O O O O O O O O O O O O O O O O O Q Q Q Q Q Q Q Q Q Q Q Q Q Q Q Q Q Q Q Q Q Q Q Q Q Q Q Q Q Q Q Q Q Q Q Q Q Q Q Q Q Q Q Q Q Q Q Q Q Q Q Q Q Q Q Q Q Q Q Q Q Q Q Q Q Q Q Q Q Q Q Q Q Q Q Q Q Q Q Q Q Q Q Q Q Q Q Q Q Q Q Q Q Q Q Q Q Q Q Q Q Q Q Q Q Q Q Q Q Q Q Q Q Q Q Q Q Q Q Q Q Q Q Q Q Q Q Q Q Q Q Q Q Q Q Q Q Q Q Q Q Q Q Q Q Q Q Q Q Q Q Q Q Q Q Q Q Q Q Q Q Q Q Q Q Q Q Q Q Q S S S S S S S S S S S S S S S S S S S S S S S S S S S S S S S S S S S S S S S S S S S S S S S S S S S S S S S S S S S S S S S S S S S S S S S S S S S S S S S S S S S S S S S S S S S S S S S S S S S S S S S S S S S S S S S S S S S S S S S S S S S S S S S S S S S S S S S S S S S S S S S S S S S S S S S S S S S S S S S S S S S S S S S S S S S T T T T T T T T T T T T T T T T T T T T T T T T T T T T T T T T T T T T T T T T T T T T T T T T T T T T T T T T T T T T T T T T T T T T T T T T T T T T T T T T T T T T T T T T T T T T T T T T T T T T T T T T T T T T T T T T T T T T T T T T T T T T T T T T T T T T T T T T T T T T T T T T T T T T T T T T T T T T T T T T T T T T T T T T T T T S S S S S S S S S S S S S S S S S S S S S S S S S S S S S S S S S S S S S S S S S S S S S S S S S S S S S S S S S S S S S S S S S S S S S S S S S S S S S S S S S S S S S S S S S S S S S S S S S S S S S S S S S S S S S S S S S S S S S S S S S S S S S S S S S S S S S S S S S S S S S S S S S S S S S S S S S S S S S S S S S S S S S S S S S S Q Q Q Q Q Q Q Q Q Q Q Q Q Q Q Q Q Q Q Q Q Q Q Q Q Q Q Q Q Q Q Q Q Q Q Q Q Q Q Q Q Q Q Q Q Q Q Q Q Q Q Q Q Q Q Q Q Q Q Q Q Q Q Q Q Q Q Q Q Q Q Q Q Q Q Q Q Q Q Q Q Q Q Q Q Q Q Q Q Q Q Q Q Q Q Q Q Q Q Q Q Q Q Q Q Q Q Q Q Q Q Q Q Q Q Q Q Q Q Q Q Q Q Q Q Q Q Q Q Q Q Q Q Q Q Q Q Q Q Q Q Q Q Q Q Q Q Q Q Q Q Q Q Q Q Q Q Q Q Q Q Q Q Q Q Q Q Q Q Q Q O//BK O//BK O//BK O//BK O//BK O//BK O//BK O//BK O//BK O//BK O//BK O//BK O//BK O//BK O//BK O//BK O//BK O//BK O//BK O//BK O//BK O//BK O//BK O//BK O//BK O//BK O//BK O//BK O//BK O//BK O//BK O//BK O//BK O//BK O//BK O//BK O//BK O//BK O//BK O//BK O//BK O//BK O//BK O//BK O//BK O//BK O//BK O//BK O//BK O//BK O//BK O//BK O//BK O//BK O//BK O//BK O//BK O//BK O//BK O//BK O//BK O//BK O//BK O//BK O//BK O//BK O//BK O//BK O//BK O//BK O//BK O//BK O//BK O//BK O//BK O//BK O//BK O//BK O//BK O//BK O//BK O//BK O//BK O//BK O//BK O//BK O//BK O//BK O//BK O//BK O//BK O//BK O//BK O//BK O//BK O//BK O//BK O//BK O//BK O//BK O//BK O//BK O//BK O//BK O//BK O//BK O//BK O//BK O//BK O//BK O//BK O//BK O//BK O//BK O//BK O//BK O//BK O//BK O//BK O//BK O//BK O//BK O//BK O//BK O//BK O//BK O//BK O//BK O//BK O//BK O//BK O//BK O//BK O//BK O//BK O//BK O//BK O//BK O//BK O//BK O//BK O//BK O//BK O//BK O//BK O//BK O//BK O//BK O//BK O//BK O//BK O//BK O//BK O//BK O//BK O//BK O//BK O//BK O//BK O//BK O//BK O//BK O//BK O//BK O//BK O//BK O//BK O//BK O//BK O//BK O//BK Q//BK Q//BK Q//BK Q//BK Q//BK Q//BK Q//BK Q//BK Q//BK Q//BK Q//BK Q//BK Q//BK Q//BK Q//BK Q//BK Q//BK Q//BK Q//BK Q//BK Q//BK Q//BK Q//BK Q//BK Q//BK Q//BK Q//BK Q//BK Q//BK Q//BK Q//BK Q//BK Q//BK Q//BK Q//BK Q//BK Q//BK Q//BK Q//BK Q//BK Q//BK Q//BK Q//BK Q//BK Q//BK Q//BK Q//BK Q//BK Q//BK Q//BK Q//BK Q//BK Q//BK Q//BK Q//BK Q//BK Q//BK Q//BK Q//BK Q//BK Q//BK Q//BK Q//BK Q//BK Q//BK Q//BK Q//BK Q//BK Q//BK Q//BK Q//BK Q//BK Q//BK Q//BK Q//BK Q//BK Q//BK Q//BK Q//BK Q//BK Q//BK Q//BK Q//BK Q//BK Q//BK Q//BK Q//BK Q//BK Q//BK Q//BK Q//BK Q//BK Q//BK Q//BK Q//BK Q//BK Q//BK Q//BK Q//BK Q//BK Q//BK Q//BK Q//BK Q//BK Q//BK Q//BK Q//BK Q//BK Q//BK Q//BK Q//BK Q//BK Q//BK Q//BK Q//BK Q//BK Q//BK Q//BK Q//BK Q//BK Q//BK Q//BK Q//BK Q//BK Q//BK Q//BK Q//BK Q//BK Q//BK Q//BK Q//BK Q//BK Q//BK Q//BK Q//BK Q//BK Q//BK Q//BK Q//BK Q//BK Q//BK Q//BK Q//BK Q//BK Q//BK Q//BK Q//BK Q//BK Q//BK Q//BK Q//BK Q//BK Q//BK Q//BK Q//BK Q//BK Q//BK Q//BK Q//BK Q//BK Q//BK Q//BK Q//BK Q//BK Q//BK Q//BK Q//BK Q//BK Q//BK Q//BK N//BK N//BK N//BK N//BK N//BK N//BK N//BK N//BK N//BK N//BK N//BK N//BK N//BK N//BK N//BK N//BK N//BK NBK NBK NBK NBK NBK NBK NBK NBK NBK NBK NBK NBK NBK NBK NBK NBK NBK NBK NBK NBK NBK NBK NBK NBK NBK NBK NBK NBK NBK NBK NBK NBK NBK NBK NBK NBK NBK NBK NBK NBK NBK NBK NBK NBK NBK NBK NBK NBK NBK NBK NBK NBK NBK NBK NBK NBK NBK NBK NBK NBK NBK NBK NBK NBK NBK NBK NBK NBK NBK NBK NBK NBK NBK NBK NBK NBK NBK NBK NBK NBK NBK NBK NBK NBK NBK NBK NBK NBK NBK NBK NBK NBK NBK NBK NBK NBK NBK NBK NBK NBK NBK NBK NBK NBK NBK NBK NBK NBK NBK NBK NBK NBK NBK NBK NBK NBK NBK NBK NBK NBK NBK NBK NBK NBK NBK NBK NBK NBK NBK NBK NBK NBK NBK NBK NBK NBK NBK NBK NBK NBK NBK NBK NBK NBK NBK NBK NBK NBK NBK NBK NBK NBK NBK NBK O44CL O44CL O44CL O44CL O44CL O44CL O44CL O44CL O44CL O44CL O44CL O44CL O44CL O44CL O44CL O44CL O44CL O44CL O44CL O44CL O44CL O44CL O44CL O44CL O44CL O44CL O44CL O44CL O44CL O44CL O44CL O44CL O44CL O44CL O44CL O44CL O44CL O44CL O44CL O44CL O44CL O44CL O44CL O44CL O44CL O44CL O44CL O44CL O44CL O44CL O44CL O44CL O44CL O44CL O44CL O44CL O44CL O44CL O44CL O44CL O44CL O44CL O44CL O44CL O44CL O44CL O44CL O44CL O44CL O44CL O44CL O44CL O44CL O44CL O44CL O44CL O44CL O44CL O44CL O44CL O44CL O44CL O44CL O44CL O44CL O44CL O44CL O44CL O44CL O44CL O44CL O44CL O44CL O44CL O44CL O44CL O44CL O44CL O44CL O44CL O44CL O44CL O44CL O44CL O44CL O44CL O44CL O44CL O44CL O44CL O44CL O44CL O44CL O44CL O44CL O44CL O44CL O44CL O44CL O44CL O44CL O44CL O44CL O44CL O44CL O44CL O44CL O44CL O44CL O44CL O44CL O44CL O44CL O44CL O44CL O44CL O44CL O44CL O44CL O44CL O44CL O44CL O44CL O44CL O44CL O44CL O44CL O44CL O44CL O44CL O44CL O44CL O44CL O44CL O44CL O44CL O44CL O44CL O44CL O44CL O44CL O44CL O44CL O44CL O44CL O44CL O44CL O44CL O44CL O44CL O44CL O44CL O44CL O44CL O44CL O44CL O44CL O44CL O44CL O44CL O44CL O44CL O44CL O44CL O44CL O44CL O44CL O44CL O44CL O44CL O44CL O44CL O44CL O44CL O44CL O44CL O44CL O44CL O44CL O44CL O44CL O44CL O44CL O44CL O44CL O44CL O44CL O44CL O44CL O44CL O44CL O44CL O44CL O44CL O44CL O44CL O44CL O44CL O44CL O44CL O44CL O44CL O44CL O44CL O44CL O44CL O44CL O44CL O44CL O44CL O44CL O44CL O44CL O44CL O44CL O44CL O44CL O44CL O44CL O44CL O44CL O44CL O44CL O44CL O44CL O44CL O44CL O44CL O44CL O44CL O44CL O44CL O44CL O44CL O44CL O44CL L44CL L44CL L44CL L44CL L44CL L44CL L44CL L44CL L44CL L44CL L44CL L44CL L44CL L44CL L44CL L44CL L44CL L44CL L44CL L44CL L44CL L44CL L44CL L44CL L44CL L44CL L44CL L44CL L44CL L44CL L44CL L44CL L44CL L44CL L44CL L44CL L44CL L44CL L44CL L44CL L44CL L44CL L44CL L44CL L44CL L44CL L44CL L44CL L44CL L44CL L44CL L44CL L44CL L44CL L44CL L44CL L44CL L44CL L44CL L44CL L44CL L44CL L44CL L44CL L44CL L44CL L44CL L44CL L44CL L44CL L44CL L44CL L44CL L44CL L44CL L44CL L44CL L44CL L44CL L44CL L44CL L44CL L44CL L44CL L44CL L44CL L44CL L44CL L44CL L44CL L44CL L44CL L44CL L44CL L44CL L44CL L44CL L44CL L44CL L44CL L44CL L44CL LCL LCL LCL LCL LCL LCL LCL LCL LCL LCL LCL LCL LCL LCL LCL LCL LCL LCL LCL LCL LCL LCL LCL LCL LCL LCL LCL LCL LCL LCL LCL LCL LCL LCL LCL LCL LCL LCL LCL LCL LCL LCL LCL LCL LCL LCL LCL LCL LCL LCL LCL LCL LCL LCL LCL LCL LCL LCL LCL LCL LCL LCL LCL LCL LCL LCL LCL LCL LCL LCL LCL LCL LCL LCL LCL LCL LCL LCL LCL LCL LCL LCL LCL LCL LCL LCL LCL LCL LCL LCL LCL LCL LCL LCL LCL LCL LCL LCL LCL LCL LCL LCL LCL LCL LCL LCL LCL LCL LCL LCL LCL LCL LCL LCL LCL LCL LCL LCL LCL LCL LCL LCL LCL LCL LCL LCL LCL LCL LCL LCL LCL LCL LCL LCL LCL LCL LCL LCL LCL LCL LCL LCL LCL LCL LCL LCL LCL LCL LCL LCL LCL LCL LCL LCL J7@I7 J7@I7 J7@I7 J7@I7 J7@I7 J7@I7 J7@I7 J7@I7 J7@I7 J7@I7 J7@I7 J7@I7 J7@I7 J7@I7 J7@I7 J7@I7 J7@I7 J7@I7 J7@I7 J7@I7 J7@I7 J7@I7 J7@I7 J7@I7 J7@I7 J7@I7 J7@I7 J7@I7 J7@I7 J7@I7 J7@I7 J7@I7 J7@I7 J7@I7 J7@I7 J7@I7 J7@I7 J7@I7 J7@I7 J7@I7 J7@I7 J7@I7 J7@I7 J7@I7 J7@I7 J7@I7 J7@I7 J7@I7 J7@I7 J7@I7 J7@I7 J7@I7 J7@I7 J7@I7 J7@I7 J7@I7 J7@I7 J7@I7 J7@I7 J7@I7 J7@I7 J7@I7 J7@I7 J7@I7 J7@I7 J7@I7 J7@I7 J7@I7 J7@I7 J7@I7 J7@I7 J7@I7 J7@I7 J7@I7 J7@I7 J7@I7 J7@I7 J7@I7 J7@I7 J7@I7 J7@I7 J7@I7 J7@I7 J7@I7 J7@I7 J7@I7 J7@I7 J7@I7 J7@I7 J7@I7 J7@I7 J7@I7 J7@I7 J7@I7 J7@I7 J7@I7 J7@I7 J7@I7 J7@I7 J7@I7 J7@I7 J7@I7 J7@I7 J7@I7 J7@I7 J7@I7 J7@I7 J7@I7 J7@I7 J7@I7 J7@I7 J7@I7 J7@I7 J7@I7 J7@I7 J7@I7 J7@I7 J7@I7 J7@I7 J7@I7 J7@I7 J7@I7 J7@I7 J7@I7 J7@I7 J7@I7 J7@I7 J7@I7 I7@I7 I7@I7 I7@I7 I7@I7 I7@I7 I7@I7 I7@I7 I7@I7 I7@I7 I7@I7 I7@I7 I7@I7 I7@I7 I7@I7 I7@I7 I7@I7 I7@I7 I7@I7 I7@I7 I7@I7 I7@I7 I7@I7 I7@I7 I7@I7 I7@I7 I7@I7 I7@I7 I7@I7 I7@I7 I7@I7 I7@I7 I7@I7 I7@I7 I7@I7 I7@I7 I7@I7 I7@I7 I7@I7 I7@I7 I7@I7 I7@I7 I7@I7 I7@I7 I7@I7 I7@I7 I7@I7 I7@I7 I7@I7 I7@I7 I7@I7 I7@I7 I7@I7 I7@I7 I7@I7 I7@I7 I7@I7 I7@I7 I7@I7 I7@I7 I7@I7 I7@I7 I7@I7 I7@I7 I7@I7 I7@I7 I7@I7 I7@I7 I7@I7 I7@I7 I7@I7 I7@I7 I7@I7 I7@I7 I7@I7 I7@I7 I7@I7 I7@I7 I7@I7 I7@I7 I7@I7 I7@I7 I7@I7 I7@I7 I7@I7 I7@I7 I7@I7 I7@I7 I7@I7 I7@I7 I7@I7 I7@I7 I7@I7 I7@I7 I7@I7 I7@I7 I7@I7 I7@I7 I7@I7 I7@I7 I7@I7 I7@I7 I7@I7 I7@I7 I7@I7 I7@I7 I7@I7 I7@I7 I7@I7 I7@I7 I7@I7 I7@I7 I7@I7 I7@I7 I7@I7 I7@I7 I7@I7 I7@I7 I7@I7 I7@I7 I7@I7 I7@I7 I7@I7 I7@I7 I7@I7 I7@I7 I7@I7 I7@I7 I7@I7 I6>G6 I6>G6 I6>G6 I6>G6 I6>G6 I6>G6 I6>G6 I6>G6 I6>G6 I6>G6 I6>G6 I6>G6 I6>G6 I6>G6 I6>G6 I6>G6 I6>G6 I6>G6 I6>G6 I6>G6 I6>G6 I6>G6 I6>G6 I6>G6 I6>G6 I6>G6 I6>G6 I6>G6 I6>G6 I6>G6 I6>G6 I6>G6 I6>G6 I6>G6 I6>G6 I6>G6 I6>G6 I6>G6 I6>G6 I6>G6 I6>G6 I6>G6 I6>G6 I6>G6 I6>G6 I6>G6 I6>G6 I6>G6 I6>G6 I6>G6 I6>G6 I6>G6 I6>G6 I6>G6 I6>G6 I6>G6 I6>G6 I6>G6 I6>G6 I6>G6 I6>G6 I6>G6 I6>G6 I6>G6 I6>G6 I6>G6 I6>G6 I6>G6 I6>G6 I6>G6 I6>G6 I6>G6 I6>G6 I6>G6 I6>G6 I6>G6 I6>G6 I6>G6 I6>G6 I6>G6 I6>G6 I6>G6 I6>G6 I6>G6 I6>G6 I6>G6 I6>G6 I6>G6 I6>G6 I6>G6 I6>G6 I6>G6 I6>G6 I6>G6 I6>G6 I6>G6 I6>G6 I6>G6 I6>G6 I6>G6 I6>G6 I6>G6 I6>G6 I6>G6 I6>G6 I6>G6 I6>G6 I6>G6 I6>G6 I6>G6 I6>G6 I6>G6 I6>G6 I6>G6 I6>G6 I6>G6 I6>G6 I6>G6 I6>G6 I6>G6 I6>G6 I6>G6 I6>G6 I6>G6 I6>G6 I6>G6 I6>G6 I6>G6 I6>G6 I6>G6 I6>G6 I6>G6 I6>G6 I6>G6 I6>G6 I6>G6 I6>G6 I6>G6 I6>G6 I6>G6 I6>G6 I6>G6 I6>G6 I6>G6 I6>G6 I6>G6 I6>G6 I6>G6 I6>G6 I6>G6 I6>G6 I6>G6 I6>G6 I6>G6 I6>G6 I6>G6 I6>G6 I6>G6 I6>G6 I6>G6 I6>G6 I6>G6 I6>G6 I6>G6 I6>G6 I6>G6 I6>G6 I6>G6 I6>G6 I6>G6 I6>G6 I6>G6 I6>G6 I6>G6 I6>G6 I6>G6 I6>G6 I6>G6 I6>G6 I6>G6 I6>G6 I6>G6 I6>G6 I6>G6 I6>G6 I6>G6 I6>G6 I6>G6 I6>G6 I6>G6 I6>G6 I6>G6 I6>G6 I6>G6 I6>G6 I6>G6 I6>G6 I6>G6 I6>G6 I6>G6 I6>G6 I6>G6 I6>G6 I6>G6 I6>G6 I6>G6 I6>G6 I6>G6 I6>G6 I6>G6 I6>G6 I6>G6 I6>G6 I6>G6 I6>G6 I6>G6 I6>G6 I6>G6 I6>G6 I6>G6 I6>G6 I6>G6 I6>G6 I6>G6 I6>G6 I6>G6 I6>G6 I6>G6 I6>G6 I6>G6 I6>G6 I6>G6 I6>G6 I6>G6 I6>G6 I6>G6 I6>G6 I6>G6 I6>G6 I6>G6 I6>G6 I6>G6 I6>G6 I6>G6 I6>G6 I6>G6 I6>G6 I6>G6 I6>G6 I6>G6 I6>G6 I6>G6 I6>G6 I6>G6 I6>G6 I6>G6 I44=F I44=F I44=F I44=F I44=F I44=F I44=F I44=F I44=F I44=F I44=F I44=F I44=F I44=F I44=F I44=F I44=F I44=F I44=F I44=F I44=F I44=F I44=F I44=F I44=F I44=F I44=F I44=F I44=F I44=F I44=F I44=F I44=F I44=F I44=F I44=F I44=F I44=F I44=F I44=F I44=F I44=F I44=F I44=F I44=F I44=F I44=F I44=F I44=F I44=F I44=F I44=F I44=F I44=F I44=F I44=F I44=F I44=F I44=F I44=F I44=F I44=F I44=F I44=F I44=F I44=F I44=F I44=F I44=F I44=F I44=F I44=F I44=F I44=F I44=F I44=F I44=F I44=F I44=F I44=F I44=F I44=F I44=F I44=F I44=F I44=F I44=F I44=F I44=F I44=F I44=F I44=F I44=F I44=F I44=F I44=F I44=F I44=F I44=F I44=F I44=F I44=F I44=F I44=F I44=F I44=F I44=F I44=F I44=F I44=F I44=F I44=F I44=F I44=F I44=F I44=F I44=F I44=F I44=F I44=F I44=F I44=F I44=F I44=F I44=F I44=F I44=F I44=F I44=F I44=F I44=F I44=F I44=F I44=F I44=F I44=F I44=F I44=F I44=F I44=F I44=F I44=F I44=F I44=F I44=F I44=F I44=F I44=F I44=F I44=F I44=F I44=F I44=F I44=F I44=F I44=F I44=F I44=F I44=F I44=F I44=F I44=F I44=F I44=F I44=F I44=F I44=F I44=F I44=F I44=F I44=F J44=F J44=F J44=F J44=F J44=F J44=F J44=F J44=F J44=F J44=F J44=F J44=F J44=F J44=F J44=F J44=F J44=F J44=F J44=F J44=F J44=F J44=F J44=F J44=F J44=F J44=F J44=F J44=F J44=F J44=F J44=F J44=F J44=F J44=F J44=F J44=F J44=F J44=F J44=F J44=F J44=F J44=F J44=F J44=F J44=F J44=F J44=F J44=F J44=F J44=F J44=F J44=F J44=F J44=F J44=F J44=F J44=F J44=F J44=F J44=F J44=F J44=F J44=F J44=F J44=F J44=F J44=F J44=F J44=F J44=F J44=F J44=F J44=F J44=F J44=F J44=F J44=F J44=F J44=F J44=F J44=F J44=F J44=F J44=F J44=F J44=F J44=F J44=F J44=F J44=F J44=F J44=F J44=F J44=F J44=F J44=F J44=F J44=F J44=F J44=F J44=F J44=F J44=F J44=F J44=F J44=F J44=F J44=F J44=F J44=F J44=F J44=F J44=F J44=F J44=F J44=F J44=F J44=F J44=F J44=F J44=F J44=F J44=F J44=F J44=F J44=F J44=F J44=F J44=F J44=F J44=F J44=F J44=F J44=F J44=F J44=F J44=F J44=F J44=F J44=F J44=F J44=F J44=F J44=F J44=F J44=F J44=F J44=F J44=F J44=F J44=F J44=F J44=F J44=F J44=F J44=F J44=F J44=F J44=F J44=F J44=F J44=F J44=F J44=F J44=F J44=F J44=F J44=F J44=F J44=F L44=F L44=F L44=F L44=F L44=F L44=F L44=F L44=F L44=F L44=F L44=F L44=F L44=F L44=F L44=F L44=F L44=F L=F L=F L=F L=F L=F L=F L=F L=F L=F L=F L=F L=F L=F L=F L=F L=F L=F L=F L=F L=F L=F L=F L=F L=F L=F L=F L=F L=F L=F L=F L=F L=F L=F L=F L=F L=F L=F L=F L=F L=F L=F L=F L=F L=F L=F L=F L=F L=F L=F L=F L=F L=F L=F L=F L=F L=F L=F L=F L=F L=F L=F L=F L=F L=F L=F L=F L=F L=F L=F L=F L=F L=F L=F L=F L=F L=F L=F L=F L=F L=F L=F L=F L=F L=F L=F L=F L=F L=F L=F L=F L=F L=F L=F L=F L=F L=F L=F L=F L=F L=F L=F L=F L=F L=F L=F L=F L=F L=F L=F L=F L=F L=F L=F L=F L=F L=F L=F L=F L=F L=F L=F L=F L=F L=F L=F L=F L=F L=F L=F L=F L=F L=F L=F L=F L=F L=F L=F L=F L=F L=F L=F L=F L=F L=F L=F L=F L=F L=F L=F L=F L=F L=F L=F L=F N22BG N22BG N22BG N22BG N22BG N22BG N22BG N22BG N22BG N22BG N22BG N22BG N22BG N22BG N22BG N22BG N22BG N22BG N22BG N22BG N22BG N22BG N22BG N22BG N22BG N22BG N22BG N22BG N22BG N22BG N22BG N22BG N22BG N22BG N22BG N22BG N22BG N22BG N22BG N22BG N22BG N22BG N22BG N22BG N22BG N22BG N22BG N22BG N22BG N22BG N22BG N22BG N22BG N22BG N22BG N22BG N22BG N22BG N22BG N22BG N22BG N22BG N22BG N22BG N22BG N22BG N22BG N22BG N22BG N22BG N22BG N22BG N22BG N22BG N22BG N22BG N22BG N22BG N22BG N22BG N22BG N22BG N22BG N22BG N22BG N22BG N22BG N22BG N22BG N22BG N22BG N22BG N22BG N22BG N22BG N22BG N22BG N22BG N22BG N22BG N22BG N22BG N22BG N22BG N22BG N22BG N22BG N22BG N22BG N22BG N22BG N22BG N22BG N22BG N22BG N22BG N22BG N22BG N22BG N22BG N22BG N22BG N22BG N22BG N22BG N22BG N22BG N22BG N22BG N22BG N22BG N22BG N22BG N22BG N22BG N22BG N22BG N22BG N22BG N22BG N22BG N22BG N22BG N22BG N22BG N22BG N22BG N22BG N22BG N22BG N22BG N22BG N22BG N22BG N22BG N22BG N22BG N22BG N22BG N22BG N22BG N22BG N22BG N22BG N22BG N22BG N22BG N22BG N22BG N22BG N22BG P22BG P22BG P22BG P22BG P22BG P22BG P22BG P22BG P22BG P22BG P22BG P22BG P22BG P22BG P22BG P22BG P22BG P22BG P22BG P22BG P22BG P22BG P22BG P22BG P22BG P22BG P22BG P22BG P22BG P22BG P22BG P22BG P22BG P22BG P22BG P22BG P22BG P22BG P22BG P22BG P22BG P22BG P22BG P22BG P22BG P22BG P22BG P22BG P22BG P22BG P22BG P22BG P22BG P22BG P22BG P22BG P22BG P22BG P22BG P22BG P22BG P22BG P22BG P22BG P22BG P22BG P22BG P22BG P22BG P22BG P22BG P22BG P22BG P22BG P22BG P22BG P22BG P22BG P22BG P22BG P22BG P22BG P22BG P22BG P22BG P22BG P22BG P22BG P22BG P22BG P22BG P22BG P22BG P22BG P22BG P22BG P22BG P22BG P22BG P22BG P22BG P22BG P22BG P22BG P22BG P22BG P22BG P22BG P22BG P22BG P22BG P22BG P22BG P22BG P22BG P22BG P22BG P22BG P22BG P22BG P22BG P22BG P22BG P22BG P22BG P22BG P22BG P22BG P22BG P22BG P22BG P22BG P22BG P22BG P22BG P22BG P22BG P22BG P22BG P22BG P22BG P22BG P22BG P22BG P22BG P22BG P22BG P22BG P22BG P22BG P22BG P22BG P22BG P22BG P22BG P22BG P22BG P22BG P22BG P22BG P22BG P22BG P22BG P22BG P22BG P22BG P22BG P22BG P22BG P22BG R22BG R22BG R22BG R22BG R22BG R22BG R22BG R22BG R22BG R22BG R22BG R22BG R22BG R22BG R22BG R22BG R22BG RBG RBG RBG RBG RBG RBG RBG RBG RBG RBG RBG RBG RBG RBG RBG RBG RBG RBG RBG RBG RBG RBG RBG RBG RBG RBG RBG RBG RBG RBG RBG RBG RBG RBG RBG RBG RBG RBG RBG RBG RBG RBG RBG RBG RBG RBG RBG RBG RBG RBG RBG RBG RBG RBG RBG RBG RBG RBG RBG RBG RBG RBG RBG RBG RBG RBG RBG RBG RBG RBG RBG RBG RBG RBG RBG RBG RBG RBG RBG RBG RBG RBG RBG RBG RBG RBG RBG RBG RBG RBG RBG RBG RBG RBG RBG RBG RBG RBG RBG RBG RBG RBG RBG RBG RBG RBG RBG RBG RBG RBG RBG RBG RBG RBG RBG RBG RBG RBG RBG RBG RBG RBG RBG RBG RBG RBG RBG RBG RBG RBG RBG RBG RBG RBG RBG RBG RBG RBG RBG RBG RBG RBG RBG RBG RBG RBG RBG RBG RBG RBG RBG RBG RBG RBG S1@G1 S1@G1 S1@G1 S1@G1 S1@G1 S1@G1 S1@G1 S1@G1 S1@G1 S1@G1 S1@G1 S1@G1 S1@G1 S1@G1 S1@G1 S1@G1 S1@G1 S1@G1 S1@G1 S1@G1 S1@G1 S1@G1 S1@G1 S1@G1 S1@G1 S1@G1 S1@G1 S1@G1 S1@G1 S1@G1 S1@G1 S1@G1 S1@G1 S1@G1 S1@G1 S1@G1 S1@G1 S1@G1 S1@G1 S1@G1 S1@G1 S1@G1 S1@G1 S1@G1 S1@G1 S1@G1 S1@G1 S1@G1 S1@G1 S1@G1 S1@G1 S1@G1 S1@G1 S1@G1 S1@G1 S1@G1 S1@G1 S1@G1 S1@G1 S1@G1 S1@G1 S1@G1 S1@G1 S1@G1 S1@G1 S1@G1 S1@G1 S1@G1 S1@G1 S1@G1 S1@G1 S1@G1 S1@G1 S1@G1 S1@G1 S1@G1 S1@G1 S1@G1 S1@G1 S1@G1 S1@G1 S1@G1 S1@G1 S1@G1 S1@G1 S1@G1 S1@G1 S1@G1 S1@G1 S1@G1 S1@G1 S1@G1 S1@G1 S1@G1 S1@G1 S1@G1 S1@G1 S1@G1 S1@G1 S1@G1 S1@G1 S1@G1 S1@G1 S1@G1 S1@G1 S1@G1 S1@G1 S1@G1 S1@G1 S1@G1 S1@G1 S1@G1 S1@G1 S1@G1 S1@G1 S1@G1 S1@G1 S1@G1 S1@G1 S1@G1 S1@G1 S1@G1 S1@G1 S1@G1 S1@G1 S1@G1 S1@G1 S1@G1 S1@G1 S1@G1 S1@G1 S1@G1 S1@G1 S1@G1 S1@G1 S1@G1 S1@G1 S1@G1 S1@G1 S1@G1 S1@G1 S1@G1 S1@G1 S1@G1 S1@G1 S1@G1 S1@G1 S1@G1 S1@G1 S1@G1 S1@G1 S1@G1 S1@G1 S1@G1 S1@G1 S1@G1 S1@G1 S1@G1 S1@G1 S1@G1 S1@G1 S1@G1 S1@G1 S1@G1 S1@G1 S1@G1 S1@G1 S1@G1 S1@G1 S1@G1 S1@G1 U1@G1 U1@G1 U1@G1 U1@G1 U1@G1 U1@G1 U1@G1 U1@G1 U1@G1 U1@G1 U1@G1 U1@G1 U1@G1 U1@G1 U1@G1 U1@G1 U1@G1 U1@G1 U1@G1 U1@G1 U1@G1 U1@G1 U1@G1 U1@G1 U1@G1 U1@G1 U1@G1 U1@G1 U1@G1 U1@G1 U1@G1 U1@G1 U1@G1 U1@G1 U1@G1 U1@G1 U1@G1 U1@G1 U1@G1 U1@G1 U1@G1 U1@G1 U1@G1 U1@G1 U1@G1 U1@G1 U1@G1 U1@G1 U1@G1 U1@G1 U1@G1 U1@G1 U1@G1 U1@G1 U1@G1 U1@G1 U1@G1 U1@G1 U1@G1 U1@G1 U1@G1 U1@G1 U1@G1 U1@G1 U1@G1 U1@G1 U1@G1 U1@G1 U1@G1 U1@G1 U1@G1 U1@G1 U1@G1 U1@G1 U1@G1 U1@G1 U1@G1 U1@G1 U1@G1 U1@G1 U1@G1 U1@G1 U1@G1 U1@G1 U1@G1 U11F U11F U11F U11F U11F U11F U11F U11F U11F U11F U11F U11F U11F U11F U11F U11F U11F U11F U11F U11F U11F U11F U11F U11F U11F U11F U11F U11F U11F U11F U11F U11F U11F U11F U11F U11F U11F U11F U11F U11F U11F U11F U11F U11F U11F U11F U11F U11F U11F U11F U11F U11F U11F U11F U11F U11F U11F U11F U11F U11F U11F U11F U11F U11F U11F U11F U11F U11F U11F U11F U11F U11F U11F U11F U11F U11F U11F U11F U11F U11F U11F U11F U11F U11F U11F V11F V11F V11F V11F V11F V11F V11F V11F V11F V11F V11F V11F V11F V11F V11F V11F V11F VF VF VF VF VF VF VF VF VF VF VF VF VF VF VF VF VF VF VF VF VF VF VF VF VF VF VF VF VF VF VF VF VF VF VF VF VF VF VF VF VF VF VF VF VF VF VF VF VF VF VF VF VF VF VF VF VF VF VF VF VF VF VF VF VF VF VF VF VF VF VF VF VF VF VF VF VF VF VF VF VF VF VF VF VF VF VF VF VF VF VF VF VF VF VF VF VF VF VF VF VF VF VF VF VF VF VF VF VF VF VF VF VF VF VF VF VF VF VF VF VF VF VF VF VF VF VF VF VF VF VF VF VF VF VF VF VF VF VF VF VF VF VF VF VF VF VF VF VF VF VF VF VF VF X/C/G X/C/G X/C/G X/C/G X/C/G X/C/G X/C/G X/C/G X/C/G X/C/G X/C/G X/C/G X/C/G X/C/G X/C/G X/C/G X/C/G X/C/G X/C/G X/C/G X/C/G X/C/G X/C/G X/C/G X/C/G X/C/G X/C/G X/C/G X/C/G X/C/G X/C/G X/C/G X/C/G X/C/G X/C/G X/C/G X/C/G X/C/G X/C/G X/C/G X/C/G X/C/G X/C/G X/C/G X/C/G X/C/G X/C/G X/C/G X/C/G X/C/G X/C/G X/C/G X/C/G X/C/G X/C/G X/C/G X/C/G X/C/G X/C/G X/C/G X/C/G X/C/G X/C/G X/C/G X/C/G X/C/G X/C/G X/C/G X/C/G X/C/G X/C/G X/C/G X/C/G X/C/G X/C/G X/C/G X/C/G X/C/G X/C/G X/C/G X/C/G X/C/G X/C/G X/C/G X/C/G X/C/G X/C/G X/C/G X/C/G X/C/G X/C/G X/C/G X/C/G X/C/G X/C/G X/C/G X/C/G X/C/G X/C/G X/C/G X/C/G X/C/G X/C/G X/C/G X/C/G X/C/G X/C/G X/C/G X/C/G X/C/G X/C/G X/C/G X/C/G X/C/G X/C/G X/C/G X/C/G X/C/G X/C/G X/C/G X/C/G X/C/G X/C/G X/C/G X/C/G X/C/G X/C/G X/C/G X/C/G X/C/G X/C/G X/C/G X/C/G X/C/G X/C/G X/C/G X/C/G X/C/G X/C/G X/C/G X/C/G X/C/G X/C/G X/C/G X/C/G X/C/G X/C/G X/C/G X/C/G X/C/G X/C/G X/C/G X/C/G X/C/G X/C/G X/C/G X/C/G X/C/G X/C/G X/C/G X/C/G X/C/G X/C/G X/C/G X/C/G X/C/G X/C/G X/C/G X/C/G X/C/G X/C/G X/C/G X/C/G X/C/G X/C/G X/C/G X/C/G X/C/G X/C/G X/C/G X/C/G X/C/G X/C/G X/C/G X/C/G X/C/G X/C/G X/C/G X/C/G X/C/G X/C/G X/C/G X/C/G X/C/G X/C/G X/C/G X/C/G X/C/G X/C/G X/C/G X/C/G X/C/G X/C/G X/C/G X/C/G X/C/G X/C/G X/C/G X/C/G X/C/G X/C/G X/C/G X/C/G X/C/G X/C/G X/C/G X/C/G X/C/G X/C/G X/C/G X/C/G X/C/G X/C/G X/C/G X/C/G X/C/G X/C/G X/C/G X/C/G X/C/G /C/G /C/G /C/G /C/G /C/G /C/G /C/G /C/G /C/G /C/G /C/G /C/G /C/G /C/G /C/G /C/G /C/G /C/G /C/G /C/G /C/G /C/G /C/G /C/G /C/G /C/G O//@G O//@G O//@G O//@G O//@G O//@G O//@G O//@G O//@G O//@G O//@G O//@G O//@G O//@G O//@G O//@G O//@G O//@G O//@G O//@G O//@G O//@G O//@G O//@G O//@G O//@G O//@G O//@G O//@G O//@G O//@G O//@G O//@G O//@G O//@G O//@G O//@G O//@G O//@G O//@G O//@G O//@G O//@G O//@G O//@G O//@G O//@G O//@G O//@G O//@G O//@G O//@G O//@G O//@G O//@G O//@G O//@G O//@G O//@G O//@G O//@G O//@G O//@G O//@G O//@G O//@G O//@G O//@G O//@G O//@G O//@G O//@G O//@G O//@G O//@G O//@G O//@G O//@G O//@G O//@G O//@G O//@G O//@G O//@G O//@G O//@G O//@G O//@G O//@G O//@G O//@G O//@G O//@G O//@G O//@G O//@G O//@G O//@G O//@G O//@G O//@G O//@G O@G O@G O@G O@G O@G O@G O@G O@G O@G O@G O@G O@G O@G O@G O@G O@G O@G O@G O@G O@G O@G O@G O@G O@G O@G O@G O@G O@G O@G O@G O@G O@G O@G O@G O@G O@G O@G O@G O@G O@G O@G O@G O@G O@G O@G O@G O@G O@G O@G O@G O@G O@G O@G O@G O@G O@G O@G O@G O@G O@G O@G O@G O@G O@G O@G O@G O@G O@G O@G O@G O@G O@G O@G O@G O@G O@G O@G O@G O@G O@G O@G O@G O@G O@G O@G O@G O@G O@G O@G O@G O@G O@G O@G O@G O@G O@G O@G O@G O@G O@G O@G O@G O@G O@G O@G O@G O@G O@G O@G O@G O@G O@G O@G O@G O@G O@G O@G O@G O@G O@G O@G O@G O@G O@G O@G O@G O@G O@G O@G O@G O@G O@G O@G O@G O@G O@G O@G O@G O@G O@G O@G O@G O@G O@G O@G O@G O@G O@G O@G O@G O@G O@G O@G O@G N..=B N..=B N..=B N..=B N..=B N..=B N..=B N..=B N..=B N..=B N..=B N..=B N..=B N..=B N..=B N..=B N..=B N..=B N..=B N..=B N..=B N..=B N..=B N..=B N..=B N..=B N..=B N..=B N..=B N..=B N..=B N..=B N..=B N..=B N..=B N..=B N..=B N..=B N..=B N..=B N..=B N..=B N..=B N..=B N..=B N..=B N..=B N..=B N..=B N..=B N..=B N..=B N..=B N..=B N..=B N..=B N..=B N..=B N..=B N..=B N..=B N..=B N..=B N..=B N..=B N..=B N..=B N..=B N..=B N..=B N..=B N..=B N..=B N..=B N..=B N..=B N..=B N..=B N..=B N..=B N..=B N..=B N..=B N..=B N..=B N..=B N..=B N..=B N..=B N..=B N..=B N..=B N..=B N..=B N..=B N..=B N..=B N..=B N..=B N..=B N..=B N..=B N..=B N..=B N..=B N..=B N..=B N..=B N..=B N..=B N..=B N..=B N..=B N..=B N..=B N..=B N..=B N..=B N..=B N..=B N..=B N..=B N..=B N..=B N..=B N..=B N..=B N..=B N..=B N..=B N..=B N..=B N..=B N..=B N..=B N..=B N..=B N..=B N..=B N..=B N..=B N..=B N..=B N..=B N..=B N..=B N..=B N..=B N..=B N..=B N..=B N..=B N..=B N..=B N..=B N..=B N..=B N..=B N..=B N..=B N..=B N..=B N..=B N..=B N..=B N..=B N..=B N..=B N..=B N..=B N..=B N..=B N..=B N..=B N..=B N..=B N..=B N..=B N..=B N..=B N..=B N..=B N..=B N..=B N..=B N..=B N..=B N..=B N..=B N..=B N..=B N..=B N..=B N..=B N..=B N..=B N..=B N..=B N..=B N..=B N..=B N..=B N..=B N..=B N..=B N..=B N..=B N..=B N..=B N..=B N..=B N..=B N..=B N..=B N..=B N..=B N..=B N..=B N..=B N..=B N..=B N..=B N..=B N..=B N..=B N..=B N..=B N..=B N..=B N..=B N..=B N..=B N..=B N..=B N..=B N..=B N..=B N..=B N..=B N..=B N..=B N..=B N..=B N..=B N..=B N..=B N..=B N..=B N..=B N..=B N..=B N..=B N..=B N..=B N..=B N..=B I..=B I..=B I..=B I..=B I..=B I..=B I..=B I..=B I..=B I..=B I..=B I..=B I..=B I..=B I..=B I..=B I..=B I..=B I..=B I..=B I..=B I..=B I..=B I..=B I..=B I..=B I..=B I..=B I..=B I..=B I..=B I..=B I..=B I..=B I..=B I..=B I..=B I..=B I..=B I..=B I..=B I..=B I..=B I..=B I..=B I..=B I..=B I..=B I..=B I..=B I..=B I..=B I..=B I..=B I..=B I..=B I..=B I..=B I..=B I..=B I..=B I..=B I..=B I..=B I..=B I..=B I..=B I..=B I..=B I..=B I..=B I..=B I..=B I..=B I..=B I..=B I..=B I..=B I..=B I..=B I..=B I..=B I..=B I..=B I..=B I..=B I..=B I..=B I..=B I..=B I..=B I..=B I..=B I..=B I..=B I..=B I..=B I..=B I..=B I..=B I..=B I..=B I=B I=B I=B I=B I=B I=B I=B I=B I=B I=B I=B I=B I=B I=B I=B I=B I=B I=B I=B I=B I=B I=B I=B I=B I=B I=B I=B I=B I=B I=B I=B I=B I=B I=B I=B I=B I=B I=B I=B I=B I=B I=B I=B I=B I=B I=B I=B I=B I=B I=B I=B I=B I=B I=B I=B I=B I=B I=B I=B I=B I=B I=B I=B I=B I=B I=B I=B I=B I=B I=B I=B I=B I=B I=B I=B I=B I=B I=B I=B I=B I=B I=B I=B I=B I=B I=B I=B I=B I=B I=B I=B I=B I=B I=B I=B I=B I=B I=B I=B I=B I=B I=B I=B I=B I=B I=B I=B I=B I=B I=B I=B I=B I=B I=B I=B I=B I=B I=B I=B I=B I=B I=B I=B I=B I=B I=B I=B I=B I=B I=B I=B I=B I=B I=B I=B I=B I=B I=B I=B I=B I=B I=B I=B I=B I=B I=B I=B I=B I=B I=B I=B I=B I=B I=B G66=B G66=B G66=B G66=B G66=B G66=B G66=B G66=B G66=B G66=B G66=B G66=B G66=B G66=B G66=B G66=B G66=B G66=B G66=B G66=B G66=B G66=B G66=B G66=B G66=B G66=B G66=B G66=B G66=B G66=B G66=B G66=B G66=B G66=B G66=B G66=B G66=B G66=B G66=B G66=B G66=B G66=B G66=B G66=B G66=B G66=B G66=B G66=B G66=B G66=B G66=B G66=B G66=B G66=B G66=B G66=B G66=B G66=B G66=B G66=B G66=B G66=B G66=B G66=B G66=B G66=B G66=B G66=B G66=B G66=B G66=B G66=B G66=B G66=B G66=B G66=B G66=B G66=B G66=B G66=B G66=B G66=B G66=B G66=B G66=B G66=B G66=B G66=B G66=B G66=B G66=B G66=B G66=B G66=B G66=B G66=B G66=B G66=B G66=B G66=B G66=B G66=B G66=B G66=B G66=B G66=B G66=B G66=B G66=B G66=B G66=B G66=B G66=B G66=B G66=B G66=B G66=B G66=B G66=B G66=B G66=B G66=B G66=B G66=B G66=B G66=B G66=B G66=B F66=B F66=B F66=B F66=B F66=B F66=B F66=B F66=B F66=B F66=B F66=B F66=B F66=B F66=B F66=B F66=B F66=B F66=B F66=B F66=B F66=B F66=B F66=B F66=B F66=B F66=B F66=B F66=B F66=B F66=B F66=B F66=B F66=B F66=B F66=B F66=B F66=B F66=B F66=B F66=B F66=B F66=B F66=B F66=B F66=B F66=B F66=B F66=B F66=B F66=B F66=B F66=B F66=B F66=B F66=B F66=B F66=B F66=B F66=B F66=B F66=B F66=B F66=B F66=B F66=B F66=B F66=B F66=B F66=B F66=B F66=B F66=B F66=B F66=B F66=B F66=B F66=B F66=B F66=B F66=B F66=B F66=B F66=B F66=B F66=B F66=B F66=B F66=B F66=B F66=B F66=B F66=B F66=B F66=B F66=B F66=B F66=B F66=B F66=B F66=B F66=B F66=B F66=B F66=B F66=B F66=B F66=B F66=B F66=B F66=B F66=B F66=B F66=B F66=B F66=B F66=B F66=B F66=B F66=B F66=B F66=B F66=B F66=B F66=B F66=B F66=B F66=B F66=B F7=B7 F7=B7 F7=B7 F7=B7 F7=B7 F7=B7 F7=B7 F7=B7 F7=B7 F7=B7 F7=B7 F7=B7 F7=B7 F7=B7 F7=B7 F7=B7 F7=B7 F7=B7 F7=B7 F7=B7 F7=B7 F7=B7 F7=B7 F7=B7 F7=B7 F7=B7 F7=B7 F7=B7 F7=B7 F7=B7 F7=B7 F7=B7 F7=B7 F7=B7 F7=B7 F7=B7 F7=B7 F7=B7 F7=B7 F7=B7 F7=B7 F7=B7 F7=B7 F7=B7 F7=B7 F7=B7 F7=B7 F7=B7 F7=B7 F7=B7 F7=B7 F7=B7 F7=B7 F7=B7 F7=B7 F7=B7 F7=B7 F7=B7 F7=B7 F7=B7 F7=B7 F7=B7 F7=B7 F7=B7 F7=B7 F7=B7 F7=B7 F7=B7 F7=B7 F7=B7 F7=B7 F7=B7 F7=B7 F7=B7 F7=B7 F7=B7 F7=B7 F7=B7 F7=B7 F7=B7 F7=B7 F7=B7 F7=B7 F7=B7 F7=B7 F7=B7 F7=B7 F7=B7 F7=B7 F7=B7 F7=B7 F7=B7 F7=B7 F7=B7 F7=B7 F7=B7 F7=B7 F7=B7 F7=B7 F7=B7 F7=B7 F7=B7 F7=B7 F7=B7 F7=B7 F7=B7 F7=B7 F7=B7 F7=B7 F7=B7 F7=B7 F7=B7 F7=B7 F7=B7 F7=B7 F7=B7 F7=B7 F7=B7 F7=B7 F7=B7 F7=B7 F7=B7 F7=B7 F7=B7 F7=B7 F7=B7 F7=B7 F7=B7 F7=B7 F7=B7 F7=B7 F7=B7 F7=B7 F7=B7 F7=B7 F7=B7 F7=B7 F7=B7 F7=B7 F7=B7 F7=B7 F7=B7 F7=B7 F7=B7 F7=B7 F7=B7 F7=B7 F7=B7 F7=B7 F7=B7 F7=B7 F7=B7 F7=B7 F7=B7 F7=B7 F7=B7 F7=B7 F7=B7 F7=B7 F7=B7 F7=B7 F7=B7 F7=B7 F7=B7 F7=B7 F7=B7 F7=B7 F7=B7 F7=B7 F7=B7 F7=B7 F7=B7 F7=B7 F7=B7 F7=B7 F7=B7 F7=B7 F7=B7 F7=B7 F7=B7 F7=B7 F7=B7 F7=B7 F7=B7 F7=B7 F7=B7 F7=B7 F7=B7 F7=B7 F7=B7 F7=B7 F7=B7 F7=B7 F7=B7 F7=B7 F7=B7 F7=B7 F7=B7 F7=B7 F7=B7 F7=B7 F7=B7 F7=B7 F7=B7 F7=B7 F7=B7 F7=B7 F7=B7 F7=B7 F7=B7 F7=B7 F7=B7 F7=B7 F7=B7 F7=B7 F7=B7 F7=B7 F7=B7 F7=B7 F7=B7 F7=B7 F7=B7 F7=B7 F7=B7 F7=B7 F7=B7 F7=B7 F7=B7 F7=B7 F7=B7 F7=B7 F7=B7 F7=B7 F7=B7 F7=B7 F7=B7 F7=B7 F7=B7 F7=B7 F7=B7 F7=B7 F7=B7 F7=B7 F7=B7 F7=B7 F7=B7 F7=B7 F7=B7 F7=B7 F7=B7 F7=B7 F7=B7 F7=B7 F7=B7 F7=B7 F7=B7 F66BI F66BI F66BI F66BI F66BI F66BI F66BI F66BI F66BI F66BI F66BI F66BI F66BI F66BI F66BI F66BI F66BI F66BI F66BI F66BI F66BI F66BI F66BI F66BI F66BI F66BI F66BI F66BI F66BI F66BI F66BI F66BI F66BI F66BI F66BI F66BI F66BI F66BI F66BI F66BI F66BI F66BI F66BI F66BI F66BI F66BI F66BI F66BI F66BI F66BI F66BI F66BI F66BI F66BI F66BI F66BI F66BI F66BI F66BI F66BI F66BI F66BI F66BI F66BI F66BI F66BI F66BI F66BI F66BI F66BI F66BI F66BI F66BI F66BI F66BI F66BI F66BI F66BI F66BI F66BI F66BI F66BI F66BI F66BI F66BI F66BI F66BI F66BI F66BI F66BI F66BI F66BI F66BI F66BI F66BI F66BI F66BI F66BI F66BI F66BI F66BI F66BI F66BI F66BI F66BI F66BI F66BI F66BI F66BI F66BI F66BI F66BI F66BI F66BI F66BI F66BI F66BI F66BI F66BI F66BI F66BI F66BI F66BI F66BI F66BI F66BI F66BI F66BI F66BI F66BI F66BI F66BI F66BI F66BI F66BI F66BI F66BI F66BI F66BI F66BI F66BI F66BI F66BI F66BI F66BI F66BI F66BI F66BI F66BI F66BI F66BI F66BI F66BI F66BI F66BI F66BI F66BI F66BI F66BI F66BI F66BI F66BI F66BI F66BI F66BI F66BI F66BI F66BI F66BI F66BI F66BI I66BI I66BI I66BI I66BI I66BI I66BI I66BI I66BI I66BI I66BI I66BI I66BI I66BI I66BI I66BI I66BI I66BI I66BI I66BI I66BI I66BI I66BI I66BI I66BI I66BI I66BI I66BI I66BI I66BI I66BI I66BI I66BI I66BI I66BI I66BI I66BI I66BI I66BI I66BI I66BI I66BI I66BI I66BI I66BI I66BI I66BI I66BI I66BI I66BI I66BI I66BI I66BI I66BI I66BI I66BI I66BI I66BI I66BI I66BI I66BI I66BI I66BI I66BI I66BI I66BI I66BI I66BI I66BI I66BI I66BI I66BI I66BI I66BI I66BI I66BI I66BI I66BI I66BI I66BI I66BI I66BI I66BI I66BI I66BI I66BI I66BI I66BI I66BI I66BI I66BI I66BI I66BI I66BI I66BI I66BI I66BI I66BI I66BI I66BI I66BI I66BI I66BI I66BI I66BI I66BI I66BI I66BI I66BI I66BI I66BI I66BI I66BI I66BI I66BI I66BI I66BI I66BI I66BI I66BI I66BI I66BI I66BI I66BI I66BI I66BI I66BI I66BI I66BI I66BI I66BI I66BI I66BI I66BI I66BI I66BI I66BI I66BI I66BI I66BI I66BI I66BI I66BI I66BI I66BI I66BI I66BI I66BI I66BI I66BI I66BI I66BI I66BI I66BI I66BI I66BI I66BI I66BI I66BI I66BI I66BI I66BI I66BI I66BI I66BI I66BI I66BI I66BI I66BI I66BI I66BI L66BI L66BI L66BI L66BI L66BI L66BI L66BI L66BI L66BI L66BI L66BI L66BI L66BI L66BI L66BI L66BI L66BI LBI LBI LBI LBI LBI LBI LBI LBI LBI LBI LBI LBI LBI LBI LBI LBI LBI LBI LBI LBI LBI LBI LBI LBI LBI LBI LBI LBI LBI LBI LBI LBI LBI LBI LBI LBI LBI LBI LBI LBI LBI LBI LBI LBI LBI LBI LBI LBI LBI LBI LBI LBI LBI LBI LBI LBI LBI LBI LBI LBI LBI LBI LBI LBI LBI LBI LBI LBI LBI LBI LBI LBI LBI LBI LBI LBI LBI LBI LBI LBI LBI LBI LBI LBI LBI LBI LBI LBI LBI LBI LBI LBI LBI LBI LBI LBI LBI LBI LBI LBI LBI LBI LBI LBI LBI LBI LBI LBI LBI LBI LBI LBI LBI LBI LBI LBI LBI LBI LBI LBI LBI LBI LBI LBI LBI LBI LBI LBI LBI LBI LBI LBI LBI LBI LBI LBI LBI LBI LBI LBI LBI LBI LBI LBI LBI LBI LBI LBI LBI LBI LBI LBI LBI LBI O44BF O44BF O44BF O44BF O44BF O44BF O44BF O44BF O44BF O44BF O44BF O44BF O44BF O44BF O44BF O44BF O44BF O44BF O44BF O44BF O44BF O44BF O44BF O44BF O44BF O44BF O44BF O44BF O44BF O44BF O44BF O44BF O44BF O44BF O44BF O44BF O44BF O44BF O44BF O44BF O44BF O44BF O44BF O44BF O44BF O44BF O44BF O44BF O44BF O44BF O44BF O44BF O44BF O44BF O44BF O44BF O44BF O44BF O44BF O44BF O44BF O44BF O44BF O44BF O44BF O44BF O44BF O44BF O44BF O44BF O44BF O44BF O44BF O44BF O44BF O44BF O44BF O44BF O44BF O44BF O44BF O44BF O44BF O44BF O44BF O44BF O44BF O44BF O44BF O44BF O44BF O44BF O44BF O44BF O44BF O44BF O44BF O44BF O44BF O44BF O44BF O44BF O44BF O44BF O44BF O44BF O44BF O44BF O44BF O44BF O44BF O44BF O44BF O44BF O44BF O44BF O44BF O44BF O44BF O44BF O44BF O44BF O44BF O44BF O44BF O44BF O44BF O44BF O44BF O44BF O44BF O44BF O44BF O44BF O44BF O44BF O44BF O44BF O44BF O44BF O44BF O44BF O44BF O44BF O44BF O44BF O44BF O44BF O44BF O44BF O44BF O44BF O44BF O44BF O44BF O44BF O44BF O44BF O44BF O44BF O44BF O44BF O44BF O44BF O44BF O44BF O44BF O44BF O44BF O44BF O44BF N44BF N44BF N44BF N44BF N44BF N44BF N44BF N44BF N44BF N44BF N44BF N44BF N44BF N44BF N44BF N44BF N44BF N44BF N44BF N44BF N44BF N44BF N44BF N44BF N44BF N44BF N44BF N44BF N44BF N44BF N44BF N44BF N44BF N44BF N44BF N44BF N44BF N44BF N44BF N44BF N44BF N44BF N44BF N44BF N44BF N44BF N44BF N44BF N44BF N44BF N44BF N44BF N44BF N44BF N44BF N44BF N44BF N44BF N44BF N44BF N44BF N44BF N44BF N44BF N44BF N44BF N44BF N44BF N44BF N44BF N44BF N44BF N44BF N44BF N44BF N44BF N44BF N44BF N44BF N44BF N44BF N44BF N44BF N44BF N44BF N44BF N44BF N44BF N44BF N44BF N44BF N44BF N44BF N44BF N44BF N44BF N44BF N44BF N44BF N44BF N44BF N44BF N44BF N44BF N44BF N44BF N44BF N44BF N44BF N44BF N44BF N44BF N44BF N44BF N44BF N44BF N44BF N44BF N44BF N44BF N44BF N44BF N44BF N44BF N44BF N44BF N44BF N44BF N44BF N44BF N44BF N44BF N44BF N44BF N44BF N44BF N44BF N44BF N44BF N44BF N44BF N44BF N44BF N44BF N44BF N44BF N44BF N44BF N44BF N44BF N44BF N44BF N44BF N44BF N44BF N44BF N44BF N44BF N44BF N44BF N44BF N44BF N44BF N44BF N44BF N44BF N44BF N44BF N44BF N44BF L44BF L44BF L44BF L44BF L44BF L44BF L44BF L44BF L44BF L44BF L44BF L44BF L44BF L44BF L44BF L44BF L44BF LBF LBF LBF LBF LBF LBF LBF LBF LBF LBF LBF LBF LBF LBF LBF LBF LBF LBF LBF LBF LBF LBF LBF LBF LBF LBF LBF LBF LBF LBF LBF LBF LBF LBF LBF LBF LBF LBF LBF LBF LBF LBF LBF LBF LBF LBF LBF LBF LBF LBF LBF LBF LBF LBF LBF LBF LBF LBF LBF LBF LBF LBF LBF LBF LBF LBF LBF LBF LBF LBF LBF LBF LBF LBF LBF LBF LBF LBF LBF LBF LBF LBF LBF LBF LBF LBF LBF LBF LBF LBF LBF LBF LBF LBF LBF LBF LBF LBF LBF LBF LBF LBF LBF LBF LBF LBF LBF LBF LBF LBF LBF LBF LBF LBF LBF LBF LBF LBF LBF LBF LBF LBF LBF LBF LBF LBF LBF LBF LBF LBF LBF LBF LBF LBF LBF LBF LBF LBF LBF LBF LBF LBF LBF LBF LBF LBF LBF LBF LBF LBF LBF LBF LBF LBF N22BG N22BG N22BG N22BG N22BG N22BG N22BG N22BG N22BG N22BG N22BG N22BG N22BG N22BG N22BG N22BG N22BG N22BG N22BG N22BG N22BG N22BG N22BG N22BG N22BG N22BG N22BG N22BG N22BG N22BG N22BG N22BG N22BG N22BG N22BG N22BG N22BG N22BG N22BG N22BG N22BG N22BG N22BG N22BG N22BG N22BG N22BG N22BG N22BG N22BG N22BG N22BG N22BG N22BG N22BG N22BG N22BG N22BG N22BG N22BG N22BG N22BG N22BG N22BG N22BG N22BG N22BG N22BG N22BG N22BG N22BG N22BG N22BG N22BG N22BG N22BG N22BG N22BG N22BG N22BG N22BG N22BG N22BG N22BG N22BG N22BG N22BG N22BG N22BG N22BG N22BG N22BG N22BG N22BG N22BG N22BG N22BG N22BG N22BG N22BG N22BG N22BG N22BG N22BG N22BG N22BG N22BG N22BG N22BG N22BG N22BG N22BG N22BG N22BG N22BG N22BG N22BG N22BG N22BG N22BG N22BG N22BG N22BG N22BG N22BG N22BG N22BG N22BG N22BG N22BG N22BG N22BG N22BG N22BG N22BG N22BG N22BG N22BG N22BG N22BG N22BG N22BG N22BG N22BG N22BG N22BG N22BG N22BG N22BG N22BG N22BG N22BG N22BG N22BG N22BG N22BG N22BG N22BG N22BG N22BG N22BG N22BG N22BG N22BG N22BG N22BG N22BG N22BG N22BG N22BG N22BG R22BG R22BG R22BG R22BG R22BG R22BG R22BG R22BG R22BG R22BG R22BG R22BG R22BG R22BG R22BG R22BG R22BG R22BG R22BG R22BG R22BG R22BG R22BG R22BG R22BG R22BG R22BG R22BG R22BG R22BG R22BG R22BG R22BG R22BG R22BG R22BG R22BG R22BG R22BG R22BG R22BG R22BG R22BG R22BG R22BG R22BG R22BG R22BG R22BG R22BG R22BG R22BG R22BG R22BG R22BG R22BG R22BG R22BG R22BG R22BG R22BG R22BG R22BG R22BG R22BG R22BG R22BG R22BG R22BG R22BG R22BG R22BG R22BG R22BG R22BG R22BG R22BG R22BG R22BG R22BG R22BG R22BG R22BG R22BG R22BG R22BG R22BG R22BG R22BG R22BG R22BG R22BG R22BG R22BG R22BG R22BG R22BG R22BG R22BG R22BG R22BG R22BG R22BG R22BG R22BG R22BG R22BG R22BG R22BG R22BG R22BG R22BG R22BG R22BG R22BG R22BG R22BG R22BG R22BG R22BG R22BG R22BG R22BG R22BG R22BG R22BG R22BG R22BG R22BG R22BG R22BG R22BG R22BG R22BG R22BG R22BG R22BG R22BG R22BG R22BG R22BG R22BG R22BG R22BG R22BG R22BG R22BG R22BG R22BG R22BG R22BG R22BG R22BG R22BG R22BG R22BG R22BG R22BG R22BG R22BG R22BG R22BG R22BG R22BG R22BG R22BG R22BG R22BG R22BG R22BG U22BG U22BG U22BG U22BG U22BG U22BG U22BG U22BG U22BG U22BG U22BG U22BG U22BG U22BG U22BG U22BG U22BG UBG UBG UBG UBG UBG UBG UBG UBG UBG UBG UBG UBG UBG UBG UBG UBG UBG UBG UBG UBG UBG UBG UBG UBG UBG UBG UBG UBG UBG UBG UBG UBG UBG UBG UBG UBG UBG UBG UBG UBG UBG UBG UBG UBG UBG UBG UBG UBG UBG UBG UBG UBG UBG UBG UBG UBG UBG UBG UBG UBG UBG UBG UBG UBG UBG UBG UBG UBG UBG UBG UBG UBG UBG UBG UBG UBG UBG UBG UBG UBG UBG UBG UBG UBG UBG UBG UBG UBG UBG UBG UBG UBG UBG UBG UBG UBG UBG UBG UBG UBG UBG UBG UBG UBG UBG UBG UBG UBG UBG UBG UBG UBG UBG UBG UBG UBG UBG UBG UBG UBG UBG UBG UBG UBG UBG UBG UBG UBG UBG UBG UBG UBG UBG UBG UBG UBG UBG UBG UBG UBG UBG UBG UBG UBG UBG UBG UBG UBG UBG UBG UBG UBG UBG UBG X11@F X11@F X11@F X11@F X11@F X11@F X11@F X11@F X11@F X11@F X11@F X11@F X11@F X11@F X11@F X11@F X11@F X11@F X11@F X11@F X11@F X11@F X11@F X11@F X11@F X11@F X11@F X11@F X11@F X11@F X11@F X11@F X11@F X11@F X11@F X11@F X11@F X11@F X11@F X11@F X11@F X11@F X11@F X11@F X11@F X11@F X11@F X11@F X11@F X11@F X11@F X11@F X11@F X11@F X11@F X11@F X11@F X11@F X11@F X11@F X11@F X11@F X11@F X11@F X11@F X11@F X11@F X11@F X11@F X11@F X11@F X11@F X11@F X11@F X11@F X11@F X11@F X11@F X11@F X11@F X11@F X11@F X11@F X11@F X11@F X11@F X11@F X11@F X11@F X11@F X11@F X11@F X11@F X11@F X11@F X11@F X11@F X11@F X11@F X11@F X11@F X11@F X11@F X11@F X11@F X11@F X11@F X11@F X11@F X11@F X11@F X11@F X11@F X11@F X11@F X11@F X11@F X11@F X11@F X11@F X11@F X11@F X11@F X11@F X11@F X11@F X11@F X11@F X11@F X11@F X11@F X11@F X11@F X11@F X11@F X11@F X11@F X11@F X11@F X11@F X11@F X11@F X11@F X11@F X11@F X11@F X11@F X11@F X11@F X11@F X11@F X11@F X11@F X11@F X11@F X11@F X11@F X11@F X11@F X11@F X11@F X11@F X11@F X11@F X11@F X11@F X11@F X11@F X11@F X11@F X11@F V11@F V11@F V11@F V11@F V11@F V11@F V11@F V11@F V11@F V11@F V11@F V11@F V11@F V11@F V11@F V11@F V11@F V11@F V11@F V11@F V11@F V11@F V11@F V11@F V11@F V11@F V11@F V11@F V11@F V11@F V11@F V11@F V11@F V11@F V11@F V11@F V11@F V11@F V11@F V11@F V11@F V11@F V11@F V11@F V11@F V11@F V11@F V11@F V11@F V11@F V11@F V11@F V11@F V11@F V11@F V11@F V11@F V11@F V11@F V11@F V11@F V11@F V11@F V11@F V11@F V11@F V11@F V11@F V11@F V11@F V11@F V11@F V11@F V11@F V11@F V11@F V11@F V11@F V11@F V11@F V11@F V11@F V11@F V11@F V11@F V11@F V11@F V11@F V11@F V11@F V11@F V11@F V11@F V11@F V11@F V11@F V11@F V11@F V11@F V11@F V11@F V11@F V11@F V11@F V11@F V11@F V11@F V11@F V11@F V11@F V11@F V11@F V11@F V11@F V11@F V11@F V11@F V11@F V11@F V11@F V11@F V11@F V11@F V11@F V11@F V11@F V11@F V11@F V11@F V11@F V11@F V11@F V11@F V11@F V11@F V11@F V11@F V11@F V11@F V11@F V11@F V11@F V11@F V11@F V11@F V11@F V11@F V11@F V11@F V11@F V11@F V11@F V11@F V11@F V11@F V11@F V11@F V11@F V11@F V11@F V11@F V11@F V11@F V11@F V11@F V11@F V11@F V11@F V11@F V11@F U11@F U11@F U11@F U11@F U11@F U11@F U11@F U11@F U11@F U11@F U11@F U11@F U11@F U11@F U11@F U11@F U11@F U@F U@F U@F U@F U@F U@F U@F U@F U@F U@F U@F U@F U@F U@F U@F U@F U@F U@F U@F U@F U@F U@F U@F U@F U@F U@F U@F U@F U@F U@F U@F U@F U@F U@F U@F U@F U@F U@F U@F U@F U@F U@F U@F U@F U@F U@F U@F U@F U@F U@F U@F U@F U@F U@F U@F U@F U@F U@F U@F U@F U@F U@F U@F U@F U@F U@F U@F U@F U@F U@F U@F U@F U@F U@F U@F U@F U@F U@F U@F U@F U@F U@F U@F U@F U@F U@F U@F U@F U@F U@F U@F U@F U@F U@F U@F U@F U@F U@F U@F U@F U@F U@F U@F U@F U@F U@F U@F U@F U@F U@F U@F U@F U@F U@F U@F U@F U@F U@F U@F U@F U@F U@F U@F U@F U@F U@F U@F U@F U@F U@F U@F U@F U@F U@F U@F U@F U@F @F @F @F @F @F @F @F @F @F @F @F @F @F @F @F @F @F U//>BG U//>BG U//>BG U//>BG U//>BG U//>BG U//>BG U//>BG U//>BG U//>BG U//>BG U//>BG U//>BG U//>BG U//>BG U//>BG U//>BG U//>BG U//>BG U//>BG U//>BG U//>BG U//>BG U//>BG U//>BG U//>BG U//>BG U//>BG U//>BG U//>BG U//>BG U//>BG U//>BG U//>BG U//>BG U//>BG U//>BG U//>BG U//>BG U//>BG U//>BG U//>BG U//>BG U//>BG U//>BG U//>BG U//>BG U//>BG U//>BG U//>BG U//>BG U//>BG U//>BG U//>BG U//>BG U//>BG U//>BG U//>BG U//>BG U//>BG U//>BG U//>BG U//>BG U//>BG U//>BG U//>BG U//>BG U//>BG U//>BG U//>BG U//>BG U//>BG U//>BG U//>BG U//>BG U//>BG U//>BG U//>BG U//>BG U//>BG U//>BG U//>BG U//>BG U//>BG U//>BG U//>BG U//>BG U//>BG U//>BG U//>BG U//>BG U//>BG U//>BG U//>BG U//>BG U//>BG U//>BG U//>BG U//>BG U//>BG U//>BG U//>BG U//>BG U//>BG U//>BG U//>BG U//>BG U//>BG U//>BG U//>BG U//>BG U//>BG U//>BG U//>BG U//>BG U//>BG U//>BG U//>BG U//>BG U//>BG U//>BG U//>BG U//>BG U//>BG U//>BG U//>BG U//>BG U//>BG U//>BG U//>BG U//>BG U//>BG U//>BG U//>BG U//>BG U//>BG U//>BG U//>BG U//>BG U//>BG U//>BG U//>BG U//>BG U//>BG U//>BG U//>BG U//>BG U//>BG U//>BG U//>BG U//>BG U//>BG U//>BG U//>BG U//>BG U//>BG U//>BG U//>BG U//>BG U//>BG U//>BG U//>BG U//>BG U//>BG U//>BG U//>BG U//>BG U//>BG U//>BG U//>BG U//>BG U//>BG U//>BG U//>BG U//>BG U//>BG U//>BG U//>BG U//>BG U//>BG U//>BG U//>BG U//>BG U//>BG U//>BG U//>BG U//>BG U//>BG U//>BG U//>BG U//>BG U//>BG U//>BG U//>BG U//>BG U//>BG U//>BG U//>BG U//>BG U//>BG U//>BG U//>BG U//>BG U//>BG U//>BG U//>BG U//>BG U//>BG U//>BG U//>BG U//>BG U//>BG U//>BG U//>BG U//>BG U//>BG U//>BG U//>BG U//>BG U//>BG U//>BG U//>BG U//>BG U//>BG U//>BG U//>BG U//>BG U//>BG U//>BG U//>BG U//>BG U//>BG U//>BG U//>BG U//>BG U//>BG U//>BG U//>BG U//>BG U//>BG U//>BG U//>BG U//>BG U//>BG U//>BG U//>BG U//>BG U//>BG U//>BG U//>BG U//>BG U//>BG U//>BG U//>BG U//>BG U//>BG V//>BG V//>BG V//>BG V//>BG V//>BG V//>BG V//>BG V//>BG V//>BG V//>BG V//>BG V//>BG V//>BG V//>BG V//>BG V//>BG V//>BG V//>BG V//>BG V//>BG V//>BG V//>BG V//>BG V//>BG V//>BG V//>BG V//>BG V//>BG V//>BG V//>BG V//>BG V//>BG V//>BG V//>BG V//>BG V//>BG V//>BG V//>BG V//>BG V//>BG V//>BG V//>BG V//>BG V//>BG V//>BG V//>BG V//>BG V//>BG V//>BG V//>BG V//>BG V//>BG V//>BG V//>BG V//>BG V//>BG V//>BG V//>BG V//>BG V//>BG V//>BG V//>BG V//>BG V//>BG V//>BG V//>BG V//>BG V//>BG V//>BG V//>BG V//>BG V//>BG V//>BG V//>BG V//>BG V//>BG V//>BG V//>BG V//>BG V//>BG V//>BG V//>BG V//>BG V//>BG V//>BG V//>BG V//>BG V//>BG V//>BG V//>BG V//>BG V//>BG V//>BG V//>BG V//>BG V//>BG V//>BG V//>BG V//>BG V//>BG V//>BG V//>BG V>BG V>BG V>BG V>BG V>BG V>BG V>BG V>BG V>BG V>BG V>BG V>BG V>BG V>BG V>BG V>BG V>BG V>BG V>BG V>BG V>BG V>BG V>BG V>BG V>BG V>BG V>BG V>BG V>BG V>BG V>BG V>BG V>BG V>BG V>BG V>BG V>BG V>BG V>BG V>BG V>BG V>BG V>BG V>BG V>BG V>BG V>BG V>BG V>BG V>BG V>BG V>BG V>BG V>BG V>BG V>BG V>BG V>BG V>BG V>BG V>BG V>BG V>BG V>BG V>BG V>BG V>BG V>BG V>BG V>BG V>BG V>BG V>BG V>BG V>BG V>BG V>BG V>BG V>BG V>BG V>BG V>BG V>BG V>BG V>BG V>BG V>BG V>BG V>BG V>BG V>BG V>BG V>BG V>BG V>BG V>BG V>BG V>BG V>BG V>BG V>BG V>BG V>BG V>BG V>BG V>BG V>BG V>BG V>BG V>BG V>BG V>BG V>BG V>BG V>BG V>BG V>BG V>BG V>BG V>BG V>BG V>BG V>BG V>BG V>BG V>BG V>BG V>BG V>BG V>BG V>BG V>BG V>BG V>BG V>BG V>BG V>BG V>BG V>BG V>BG V>BG V>BG V>BG V>BG V>BG V>BG V>BG V>BG V>BG V>BG V>BG V>BG V>BG V>BG V11@C V11@C V11@C V11@C V11@C V11@C V11@C V11@C V11@C V11@C V11@C V11@C V11@C V11@C V11@C V11@C V11@C V11@C V11@C V11@C V11@C V11@C V11@C V11@C V11@C V11@C V11@C V11@C V11@C V11@C V11@C V11@C V11@C V11@C V11@C V11@C V11@C V11@C V11@C V11@C V11@C V11@C V11@C V11@C V11@C V11@C V11@C V11@C V11@C V11@C V11@C V11@C V11@C V11@C V11@C V11@C V11@C V11@C V11@C V11@C V11@C V11@C V11@C V11@C V11@C V11@C V11@C V11@C V11@C V11@C V11@C V11@C V11@C V11@C V11@C V11@C V11@C V11@C V11@C V11@C V11@C V11@C V11@C V11@C V11@C V11@C V11@C V11@C V11@C V11@C V11@C V11@C V11@C V11@C V11@C V11@C V11@C V11@C V11@C V11@C V11@C V11@C V11@C V11@C V11@C V11@C V11@C V11@C V11@C V11@C V11@C V11@C V11@C V11@C V11@C V11@C V11@C V11@C V11@C V11@C V11@C V11@C V11@C V11@C V11@C V11@C V11@C V11@C U11@C U11@C U11@C U11@C U11@C U11@C U11@C U11@C U11@C U11@C U11@C U11@C U11@C U11@C U11@C U11@C U11@C U11@C U11@C U11@C U11@C U11@C U11@C U11@C U11@C U11@C U11@C U11@C U11@C U11@C U11@C U11@C U11@C U11@C U11@C U11@C U11@C U11@C U11@C U11@C U11@C U11@C U11@C U11@C U11@C U11@C U11@C U11@C U11@C U11@C U11@C U11@C U11@C U11@C U11@C U11@C U11@C U11@C U11@C U11@C U11@C U11@C U11@C U11@C U11@C U11@C U11@C U11@C U11@C U11@C U11@C U11@C U11@C U11@C U11@C U11@C U11@C U11@C U11@C U11@C U11@C U11@C U11@C U11@C U11@C U11@C U11@C U11@C U11@C U11@C U11@C U11@C U11@C U11@C U11@C U11@C U11@C U11@C U11@C U11@C U11@C U11@C U11@C U11@C U11@C U11@C U11@C U11@C U11@C U11@C U11@C U11@C U11@C U11@C U11@C U11@C U11@C U11@C U11@C U11@C U11@C U11@C U11@C U11@C U11@C U11@C U11@C U11@C S11@C S11@C S11@C S11@C S11@C S11@C S11@C S11@C S11@C S11@C S11@C S11@C S11@C S11@C S11@C S11@C S11@C S11@C S11@C S11@C S11@C S11@C S11@C S11@C S11@C S11@C S11@C S11@C S11@C S11@C S11@C S11@C S11@C S11@C S11@C S11@C S11@C S11@C S11@C S11@C S11@C S11@C S11@C S11@C S11@C S11@C S11@C S11@C S11@C S11@C S11@C S11@C S11@C S11@C S11@C S11@C S11@C S11@C S11@C S11@C S11@C S11@C S11@C S11@C S11@C S11@C S11@C S11@C S11@C S11@C S11@C S11@C S11@C S11@C S11@C S11@C S11@C S11@C S11@C S11@C S11@C S11@C S11@C S11@C S11@C S11@C S11@C S11@C S11@C S11@C S11@C S11@C S11@C S11@C S11@C S11@C S11@C S11@C S11@C S11@C S11@C S11@C S@C S@C S@C S@C S@C S@C S@C S@C S@C S@C S@C S@C S@C S@C S@C S@C S@C S@C S@C S@C S@C S@C S@C S@C S@C S@C R@C R@C R@C R@C R@C R@C R@C R@C R@C R@C R@C R@C R@C R@C R@C R@C R@C R@C R@C R@C R@C R@C R@C R@C R@C R@C R@C R@C R@C R@C R@C R@C R@C R@C R@C R@C R@C R@C R@C R@C R@C R@C R@C R@C R@C R@C R@C R@C R@C R@C R@C R@C R@C R@C R@C R@C R@C R@C R@C R@C R@C R@C R@C R@C R@C R@C R@C R@C R@C R@C R@C R@C R@C R@C R@C R@C R@C R@C R@C R@C R@C R@C R@C R@C R@C R@C R@C R@C R@C R@C R@C R@C R@C R@C R@C R@C R@C R@C R@C R@C R@C R@C R@C R@C R@C R@C R@C R@C R@C R@C R@C R@C R@C R@C R@C R@C R@C R@C R@C R@C R@C R@C R@C R@C R@C R@C R@C R@C S22>B S22>B S22>B S22>B S22>B S22>B S22>B S22>B S22>B S22>B S22>B S22>B S22>B S22>B S22>B S22>B S22>B S22>B S22>B S22>B S22>B S22>B S22>B S22>B S22>B S22>B S22>B S22>B S22>B S22>B S22>B S22>B S22>B S22>B S22>B S22>B S22>B S22>B S22>B S22>B S22>B S22>B S22>B S22>B S22>B S22>B S22>B S22>B S22>B S22>B S22>B S22>B S22>B S22>B S22>B S22>B S22>B S22>B S22>B S22>B S22>B S22>B S22>B S22>B S22>B S22>B S22>B S22>B S22>B S22>B S22>B S22>B S22>B S22>B S22>B S22>B S22>B S22>B S22>B S22>B S22>B S22>B S22>B S22>B S22>B S22>B S22>B S22>B S22>B S22>B S22>B S22>B S22>B S22>B S22>B S22>B S22>B S22>B S22>B S22>B S22>B S22>B S22>B S22>B S22>B S22>B S22>B S22>B S22>B S22>B S22>B S22>B S22>B S22>B S22>B S22>B S22>B S22>B S22>B S22>B S22>B S22>B S22>B S22>B S22>B S22>B S22>B S22>B Q22>B Q22>B Q22>B Q22>B Q22>B Q22>B Q22>B Q22>B Q22>B Q22>B Q22>B Q22>B Q22>B Q22>B Q22>B Q22>B Q22>B Q22>B Q22>B Q22>B Q22>B Q22>B Q22>B Q22>B Q22>B Q22>B Q22>B Q22>B Q22>B Q22>B Q22>B Q22>B Q22>B Q22>B Q22>B Q22>B Q22>B Q22>B Q22>B Q22>B Q22>B Q22>B Q22>B Q22>B Q22>B Q22>B Q22>B Q22>B Q22>B Q22>B Q22>B Q22>B Q22>B Q22>B Q22>B Q22>B Q22>B Q22>B Q22>B Q22>B Q22>B Q22>B Q22>B Q22>B Q22>B Q22>B Q22>B Q22>B Q22>B Q22>B Q22>B Q22>B Q22>B Q22>B Q22>B Q22>B Q22>B Q22>B Q22>B Q22>B Q22>B Q22>B Q22>B Q22>B Q22>B Q22>B Q22>B Q22>B Q22>B Q22>B Q22>B Q22>B Q22>B Q22>B Q22>B Q22>B Q22>B Q22>B Q22>B Q22>B Q22>B Q22>B Q22>B Q22>B Q22>B Q22>B Q22>B Q22>B Q22>B Q22>B Q22>B Q22>B Q22>B Q22>B Q22>B Q22>B Q22>B Q22>B Q22>B Q22>B Q22>B Q22>B Q22>B Q22>B Q22>B Q22>B Q22>B Q22>B O22>B O22>B O22>B O22>B O22>B O22>B O22>B O22>B O22>B O22>B O22>B O22>B O22>B O22>B O22>B O22>B O22>B O22>B O22>B O22>B O22>B O22>B O22>B O22>B O22>B O22>B O22>B O22>B O22>B O22>B O22>B O22>B O22>B O22>B O22>B O22>B O22>B O22>B O22>B O22>B O22>B O22>B O22>B O22>B O22>B O22>B O22>B O22>B O22>B O22>B O22>B O22>B O22>B O22>B O22>B O22>B O22>B O22>B O22>B O22>B O22>B O22>B O22>B O22>B O22>B O22>B O22>B O22>B O22>B O22>B O22>B O22>B O22>B O22>B O22>B O22>B O22>B O22>B O22>B O22>B O22>B O22>B O22>B O22>B O22>B O22>B O22>B O22>B O22>B O22>B O22>B O22>B O22>B O22>B O22>B O22>B O22>B O22>B O22>B O22>B O22>B O22>B O>B O>B O>B O>B O>B O>B O>B O>B O>B O>B O>B O>B O>B O>B O>B O>B O>B O>B O>B O>B O>B O>B O>B O>B O>B O>B N>B N>B N>B N>B N>B N>B N>B N>B N>B N>B N>B N>B N>B N>B N>B N>B N>B N>B N>B N>B N>B N>B N>B N>B N>B N>B N>B N>B N>B N>B N>B N>B N>B N>B N>B N>B N>B N>B N>B N>B N>B N>B N>B N>B N>B N>B N>B N>B N>B N>B N>B N>B N>B N>B N>B N>B N>B N>B N>B N>B N>B N>B N>B N>B N>B N>B N>B N>B N>B N>B N>B N>B N>B N>B N>B N>B N>B N>B N>B N>B N>B N>B N>B N>B N>B N>B N>B N>B N>B N>B N>B N>B N>B N>B N>B N>B N>B N>B N>B N>B N>B N>B N>B N>B N>B N>B N>B N>B N>B N>B N>B N>B N>B N>B N>B N>B N>B N>B N>B N>B N>B N>B N>B N>B N>B N>B N>B N>B O44@C O44@C O44@C O44@C O44@C O44@C O44@C O44@C O44@C O44@C O44@C O44@C O44@C O44@C O44@C O44@C O44@C O44@C O44@C O44@C O44@C O44@C O44@C O44@C O44@C O44@C O44@C O44@C O44@C O44@C O44@C O44@C O44@C O44@C O44@C O44@C O44@C O44@C O44@C O44@C O44@C O44@C O44@C O44@C O44@C O44@C O44@C O44@C O44@C O44@C O44@C O44@C O44@C O44@C O44@C O44@C O44@C O44@C O44@C O44@C O44@C O44@C O44@C O44@C O44@C O44@C O44@C O44@C O44@C O44@C O44@C O44@C O44@C O44@C O44@C O44@C O44@C O44@C O44@C O44@C O44@C O44@C O44@C O44@C O44@C O44@C O44@C O44@C O44@C O44@C O44@C O44@C O44@C O44@C O44@C O44@C O44@C O44@C O44@C O44@C O44@C O44@C O44@C O44@C O44@C O44@C O44@C O44@C O44@C O44@C O44@C O44@C O44@C O44@C O44@C O44@C O44@C O44@C O44@C O44@C O44@C O44@C O44@C O44@C O44@C O44@C O44@C O44@C O44@C O44@C O44@C O44@C O44@C O44@C O44@C O44@C O44@C O44@C O44@C O44@C O44@C O44@C O44@C O44@C O44@C O44@C O44@C O44@C O44@C O44@C O44@C O44@C O44@C O44@C O44@C O44@C O44@C O44@C O44@C O44@C O44@C O44@C O44@C O44@C O44@C O44@C O44@C O44@C O44@C O44@C O44@C O44@C O44@C O44@C O44@C O44@C O44@C O44@C O44@C O44@C O44@C O44@C O44@C O44@C O44@C O44@C O44@C O44@C O44@C O44@C O44@C O44@C O44@C O44@C O44@C O44@C O44@C O44@C O44@C O44@C O44@C O44@C O44@C O44@C O44@C O44@C O44@C O44@C O44@C O44@C O44@C O44@C O44@C O44@C O44@C O44@C O44@C O44@C O44@C O44@C O44@C O44@C O44@C O44@C O44@C O44@C O44@C O44@C O44@C O44@C O44@C O44@C O44@C O44@C O44@C O44@C O44@C O44@C O44@C O44@C O44@C O44@C O44@C O44@C O44@C O44@C O44@C O44@C O44@C O44@C O44@C O44@C O44@C O44@C O44@C O44@C L44@C L44@C L44@C L44@C L44@C L44@C L44@C L44@C L44@C L44@C L44@C L44@C L44@C L44@C L44@C L44@C L44@C L44@C L44@C L44@C L44@C L44@C L44@C L44@C L44@C L44@C L44@C L44@C L44@C L44@C L44@C L44@C L44@C L44@C L44@C L44@C L44@C L44@C L44@C L44@C L44@C L44@C L44@C L44@C L44@C L44@C L44@C L44@C L44@C L44@C L44@C L44@C L44@C L44@C L44@C L44@C L44@C L44@C L44@C L44@C L44@C L44@C L44@C L44@C L44@C L44@C L44@C L44@C L44@C L44@C L44@C L44@C L44@C L44@C L44@C L44@C L44@C L44@C L44@C L44@C L44@C L44@C L44@C L44@C L44@C L44@C L44@C L44@C L44@C L44@C L44@C L44@C L44@C L44@C L44@C L44@C L44@C L44@C L44@C L44@C L44@C L44@C L@C L@C L@C L@C L@C L@C L@C L@C L@C L@C L@C L@C L@C L@C L@C L@C L@C L@C L@C L@C L@C L@C L@C L@C L@C L@C L@C L@C L@C L@C L@C L@C L@C L@C L@C L@C L@C L@C L@C L@C L@C L@C L@C L@C L@C L@C L@C L@C L@C L@C L@C L@C L@C L@C L@C L@C L@C L@C L@C L@C L@C L@C L@C L@C L@C L@C L@C L@C L@C L@C L@C L@C L@C L@C L@C L@C L@C L@C L@C L@C L@C L@C L@C L@C L@C L@C L@C L@C L@C L@C L@C L@C L@C L@C L@C L@C L@C L@C L@C L@C L@C L@C L@C L@C L@C L@C L@C L@C L@C L@C L@C L@C L@C L@C L@C L@C L@C L@C L@C L@C L@C L@C L@C L@C L@C L@C L@C L@C L@C L@C L@C L@C L@C L@C L@C L@C L@C L@C L@C L@C L@C L@C L@C L@C L@C L@C L@C L@C L@C L@C L@C L@C L@C L@C J66>B J66>B J66>B J66>B J66>B J66>B J66>B J66>B J66>B J66>B J66>B J66>B J66>B J66>B J66>B J66>B J66>B J66>B J66>B J66>B J66>B J66>B J66>B J66>B J66>B J66>B J66>B J66>B J66>B J66>B J66>B J66>B J66>B J66>B J66>B J66>B J66>B J66>B J66>B J66>B J66>B J66>B J66>B J66>B J66>B J66>B J66>B J66>B J66>B J66>B J66>B J66>B J66>B J66>B J66>B J66>B J66>B J66>B J66>B J66>B J66>B J66>B J66>B J66>B J66>B J66>B J66>B J66>B J66>B J66>B J66>B J66>B J66>B J66>B J66>B J66>B J66>B J66>B J66>B J66>B J66>B J66>B J66>B J66>B J66>B J66>B J66>B J66>B J66>B J66>B J66>B J66>B J66>B J66>B J66>B J66>B J66>B J66>B J66>B J66>B J66>B J66>B J66>B J66>B J66>B J66>B J66>B J66>B J66>B J66>B J66>B J66>B J66>B J66>B J66>B J66>B J66>B J66>B J66>B J66>B J66>B J66>B J66>B J66>B J66>B J66>B J66>B J66>B J66>B J66>B J66>B J66>B J66>B J66>B J66>B J66>B J66>B J66>B J66>B J66>B J66>B J66>B J66>B J66>B J66>B J66>B J66>B J66>B J66>B J66>B J66>B J66>B J66>B J66>B J66>B J66>B J66>B J66>B J66>B J66>B J66>B J66>B J66>B J66>B J66>B J66>B J66>B J66>B J66>B J66>B J66>B J66>B J66>B J66>B J66>B J66>B J66>B J66>B J66>B J66>B J66>B J66>B J66>B J66>B J66>B J66>B J66>B J66>B J66>B J66>B J66>B J66>B J66>B J66>B J66>B J66>B J66>B J66>B J66>B J66>B J66>B J66>B J66>B J66>B J66>B J66>B J66>B J66>B J66>B J66>B J66>B J66>B J66>B J66>B J66>B J66>B J66>B J66>B J66>B J66>B J66>B J66>B J66>B J66>B J66>B J66>B J66>B J66>B J66>B J66>B J66>B J66>B J66>B J66>B J66>B J66>B J66>B J66>B J66>B J66>B J66>B J66>B J66>B J66>B J66>B J66>B J66>B J66>B J66>B J66>B J66>B J66>B J66>B J66>B J66>B J66>B S66>B S66>B S66>B S66>B S66>B S66>B S66>B S66>B S66>B S66>B S66>B S66>B S66>B S66>B S66>B S66>B S66>B S66>B S66>B S66>B S66>B S66>B S66>B S66>B S66>B S66>B S66>B S66>B S66>B S66>B S66>B S66>B S66>B S66>B S66>B S66>B S66>B S66>B S66>B S66>B S66>B S66>B S66>B S66>B S66>B S66>B S66>B S66>B S66>B S66>B S66>B S66>B S66>B S66>B S66>B S66>B S66>B S66>B S66>B S66>B S66>B S66>B S66>B S66>B S66>B S66>B S66>B S66>B S66>B S66>B S66>B S66>B S66>B S66>B S66>B S66>B S66>B S66>B S66>B S66>B S66>B S66>B S66>B S66>B S66>B S66>B S66>B S66>B S66>B S66>B S66>B S66>B S66>B S66>B S66>B S66>B S66>B S66>B S66>B S66>B S66>B S66>B S>B S>B S>B S>B S>B S>B S>B S>B S>B S>B S>B S>B S>B S>B S>B S>B S>B S>B S>B S>B S>B S>B S>B S>B S>B S>B S>B S>B S>B S>B S>B S>B S>B S>B S>B S>B S>B S>B S>B S>B S>B S>B S>B S>B S>B S>B S>B S>B S>B S>B S>B S>B S>B S>B S>B S>B S>B S>B S>B S>B S>B S>B S>B S>B S>B S>B S>B S>B S>B S>B S>B S>B S>B S>B S>B S>B S>B S>B S>B S>B S>B S>B S>B S>B S>B S>B S>B S>B S>B S>B S>B S>B S>B S>B S>B S>B S>B S>B S>B S>B S>B S>B S>B S>B S>B S>B S>B S>B S>B S>B S>B S>B S>B S>B S>B S>B S>B S>B S>B S>B S>B S>B S>B S>B S>B S>B S>B S>B S>B S>B S>B S>B S>B S>B S>B S>B S>B S>B S>B S>B S>B S>B S>B S>B S>B S>B S>B S>B S>B S>B S>B S>B S>B S>B I**=@ I**=@ I**=@ I**=@ I**=@ I**=@ I**=@ I**=@ I**=@ I**=@ I**=@ I**=@ I**=@ I**=@ I**=@ I**=@ I**=@ I**=@ I**=@ I**=@ I**=@ I**=@ I**=@ I**=@ I**=@ I**=@ I**=@ I**=@ I**=@ I**=@ I**=@ I**=@ I**=@ I**=@ I**=@ I**=@ I**=@ I**=@ I**=@ I**=@ I**=@ I**=@ I**=@ I**=@ I**=@ I**=@ I**=@ I**=@ I**=@ I**=@ I**=@ I**=@ I**=@ I**=@ I**=@ I**=@ I**=@ I**=@ I**=@ I**=@ I**=@ I**=@ I**=@ I**=@ I**=@ I**=@ I**=@ I**=@ I**=@ I**=@ I**=@ I**=@ I**=@ I**=@ I**=@ I**=@ I**=@ I**=@ I**=@ I**=@ I**=@ I**=@ I**=@ I**=@ I**=@ I**=@ I**=@ I**=@ I**=@ I**=@ I**=@ I**=@ I**=@ I**=@ I**=@ I**=@ I**=@ I**=@ I**=@ I**=@ I**=@ I**=@ I**=@ I**=@ I**=@ I**=@ I**=@ I**=@ I**=@ I**=@ I**=@ I**=@ I**=@ I**=@ I**=@ I**=@ I**=@ I**=@ I**=@ I**=@ I**=@ I**=@ I**=@ I**=@ I**=@ I**=@ I**=@ I**=@ I**=@ I**=@ I**=@ I**=@ I**=@ I**=@ I**=@ I**=@ I**=@ I**=@ I**=@ I**=@ I**=@ I**=@ I**=@ I**=@ I**=@ I**=@ I**=@ I**=@ I**=@ I**=@ I**=@ I**=@ I**=@ I**=@ I**=@ I**=@ I**=@ I**=@ I**=@ I**=@ I**=@ I**=@ I**=@ I**=@ I**=@ I**=@ I**=@ I**=@ I**=@ I**=@ I**=@ I**=@ I**=@ I**=@ I**=@ I**=@ I**=@ I**=@ I**=@ I**=@ I**=@ I**=@ I**=@ I**=@ I**=@ I**=@ I**=@ I**=@ I**=@ I**=@ I**=@ I**=@ I**=@ I**=@ I**=@ I**=@ I**=@ I**=@ I**=@ I**=@ I**=@ I**=@ I**=@ I**=@ I**=@ I**=@ I**=@ I**=@ I**=@ I**=@ I**=@ I**=@ I**=@ I**=@ I**=@ I**=@ I**=@ I**=@ I**=@ I**=@ I**=@ I**=@ I**=@ I**=@ I**=@ I**=@ I**=@ I**=@ I**=@ I**=@ I**=@ I**=@ I**=@ I**=@ I**=@ I**=@ I**=@ I**=@ I**=@ I**=@ I**=@ I**=@ I**=@ I**=@ I**=@ I**=@ I**=@ I**=@ I**=@ I**=@ I**=@ I**=@ I**=@ I**=@ I**=@ I**=@ R**=@ R**=@ R**=@ R**=@ R**=@ R**=@ R**=@ R**=@ R**=@ R**=@ R**=@ R**=@ R**=@ R**=@ R**=@ R**=@ R**=@ R**=@ R**=@ R**=@ R**=@ R**=@ R**=@ R**=@ R**=@ R**=@ R**=@ R**=@ R**=@ R**=@ R**=@ R**=@ R**=@ R**=@ R**=@ R**=@ R**=@ R**=@ R**=@ R**=@ R**=@ R**=@ R**=@ R**=@ R**=@ R**=@ R**=@ R**=@ R**=@ R**=@ R**=@ R**=@ R**=@ R**=@ R**=@ R**=@ R**=@ R**=@ R**=@ R**=@ R**=@ R**=@ R**=@ R**=@ R**=@ R**=@ R**=@ R**=@ R**=@ R**=@ R**=@ R**=@ R**=@ R**=@ R**=@ R**=@ R**=@ R**=@ R**=@ R**=@ R**=@ R**=@ R**=@ R**=@ R**=@ R**=@ R**=@ R**=@ R**=@ R**=@ R**=@ R**=@ R**=@ R**=@ R**=@ R**=@ R**=@ R**=@ R**=@ R**=@ R**=@ R**=@ R=@ R=@ R=@ R=@ R=@ R=@ R=@ R=@ R=@ R=@ R=@ R=@ R=@ R=@ R=@ R=@ R=@ R=@ R=@ R=@ R=@ R=@ R=@ R=@ R=@ R=@ R=@ R=@ R=@ R=@ R=@ R=@ R=@ R=@ R=@ R=@ R=@ R=@ R=@ R=@ R=@ R=@ R=@ R=@ R=@ R=@ R=@ R=@ R=@ R=@ R=@ R=@ R=@ R=@ R=@ R=@ R=@ R=@ R=@ R=@ R=@ R=@ R=@ R=@ R=@ R=@ R=@ R=@ R=@ R=@ R=@ R=@ R=@ R=@ R=@ R=@ R=@ R=@ R=@ R=@ R=@ R=@ R=@ R=@ R=@ R=@ R=@ R=@ R=@ R=@ R=@ R=@ R=@ R=@ R=@ R=@ R=@ R=@ R=@ R=@ R=@ R=@ R=@ R=@ R=@ R=@ R=@ R=@ R=@ R=@ R=@ R=@ R=@ R=@ R=@ R=@ R=@ R=@ R=@ R=@ R=@ R=@ R=@ R=@ R=@ R=@ R=@ R=@ R=@ R=@ R=@ R=@ R=@ R=@ R=@ R=@ R=@ R=@ R=@ R=@ R=@ R=@ R=@ R=@ R=@ R=@ R=@ R=@ R=@ R=@ R=@ R=@ R=@ R=@ R R R R R R R R R R R R R R R R R R R R R R R R R R R R R R R R R R R R R R R R R R R R R R R R R R R R R R R R R R R R R R R R R R R R R R R R R R R R R R R R R R R R R R R R R R R R R R R R R R R R R R R R R R R R R R R R R R R R R R R R R R R R R R R R R R R R R R R R R R R R R R R R R R R R R R R R R R R R R R R R R R R R R R R R R R R R R R R R R R R R R R R R R R R R R R R R R R R R R R R R R R R R R R R R R R R R R R R R R R R R R R R R R R R R R R R R R R R R R R R R R R R R R R R R R R R R R R R R S S S S S S S S S S S S S S S S S S S S S S S S S S S S S S S S S S S S S S S S S S S S S S S S S S S S S S S S S S S S S S S S S S S S S S S S S S S S S S S S S S S S S S S S S S S S S S S S S S S S S S S S S S S S S S S S S S S S S S S S S S S S S S S S S S S S S S S S S S S S S S S S S S S S S S S S S S S S S S S S S S S S S S S S S S S S S S S S S S S S S S S S S S S S S S S S S S S S S S S S S S S S S S S S S S S S S S S S S S S S S S S S S S S S S S S S S S S S S S S S S S S S S S S S S S S S S S S S S//>G S//>G S//>G S//>G S//>G S//>G S//>G S//>G S//>G S//>G S//>G S//>G S//>G S//>G S//>G S//>G S//>G S//>G S//>G S//>G S//>G S//>G S//>G S//>G S//>G S//>G S//>G S//>G S//>G S//>G S//>G S//>G S//>G S//>G S//>G S//>G S//>G S//>G S//>G S//>G S//>G S//>G S//>G S//>G S//>G S//>G S//>G S//>G S//>G S//>G S//>G S//>G S//>G S//>G S//>G S//>G S//>G S//>G S//>G S//>G S//>G S//>G S//>G S//>G S//>G S//>G S//>G S//>G S//>G S//>G S//>G S//>G S//>G S//>G S//>G S//>G S//>G S//>G S//>G S//>G S//>G S//>G S//>G S//>G S//>G S//>G S//>G S//>G S//>G S//>G S//>G S//>G S//>G S//>G S//>G S//>G S//>G S//>G S//>G S//>G S//>G S//>G S//>G S//>G S//>G S//>G S//>G S//>G S//>G S//>G S//>G S//>G S//>G S//>G S//>G S//>G S//>G S//>G S//>G S//>G S//>G S//>G S//>G S//>G S//>G S//>G S//>G S//>G S//>G S//>G S//>G S//>G S//>G S//>G S//>G S//>G S//>G S//>G S//>G S//>G S//>G S//>G S//>G S//>G S//>G S//>G S//>G S//>G S//>G S//>G S//>G S//>G S//>G S//>G S//>G S//>G S//>G S//>G S//>G S//>G S//>G S//>G S//>G S//>G S//>G S//>G S//>G S//>G S//>G S//>G S//>G S//>G S//>G S//>G S//>G S//>G S//>G S//>G S//>G S//>G S//>G S//>G S//>G S//>G S//>G S//>G S//>G S//>G S//>G S//>G S//>G S//>G S//>G S//>G S//>G S//>G S//>G S//>G S//>G S//>G S//>G S//>G S//>G S//>G S//>G S//>G S//>G S//>G S//>G S//>G S//>G S//>G S//>G S//>G S//>G S//>G S//>G S//>G S//>G S//>G S//>G S//>G S//>G S//>G S//>G S//>G S//>G S//>G S//>G S//>G S//>G S//>G S//>G S//>G S//>G S//>G S//>G S//>G S//>G S//>G S//>G S//>G S//>G S//>G S//>G S//>G S//>G S//>G S//>G S//>G S//>G S//>G S//>G S//>G S//>G S//>G N//>G N//>G N//>G N//>G N//>G N//>G N//>G N//>G N//>G N//>G N//>G N//>G N//>G N//>G N//>G N//>G N//>G N//>G N//>G N//>G N//>G N//>G N//>G N//>G N//>G N//>G N//>G N//>G N//>G N//>G N//>G N//>G N//>G N//>G N//>G N//>G N//>G N//>G N//>G N//>G N//>G N//>G N//>G N//>G N//>G N//>G N//>G N//>G N//>G N//>G N//>G N//>G N//>G N//>G N//>G N//>G N//>G N//>G N//>G N//>G N//>G N//>G N//>G N//>G N//>G N//>G N//>G N//>G N//>G N//>G N//>G N//>G N//>G N//>G N//>G N//>G N//>G N//>G N//>G N//>G N//>G N//>G N//>G N//>G N//>G N//>G N//>G N//>G N//>G N//>G N//>G N//>G N//>G N//>G N//>G N//>G N//>G N//>G N//>G N//>G N//>G N//>G N>G N>G N>G N>G N>G N>G N>G N>G N>G N>G N>G N>G N>G N>G N>G N>G N>G N>G N>G N>G N>G N>G N>G N>G N>G N>G L>G L>G L>G L>G L>G L>G L>G L>G L>G L>G L>G L>G L>G L>G L>G L>G L>G L>G L>G L>G L>G L>G L>G L>G L>G L>G L>G L>G L>G L>G L>G L>G L>G L>G L>G L>G L>G L>G L>G L>G L>G L>G L>G L>G L>G L>G L>G L>G L>G L>G L>G L>G L>G L>G L>G L>G L>G L>G L>G L>G L>G L>G L>G L>G L>G L>G L>G L>G L>G L>G L>G L>G L>G L>G L>G L>G L>G L>G L>G L>G L>G L>G L>G L>G L>G L>G L>G L>G L>G L>G L>G L>G L>G L>G L>G L>G L>G L>G L>G L>G L>G L>G L>G L>G L>G L>G L>G L>G L>G L>G L>G L>G L>G L>G L>G L>G L>G L>G L>G L>G L>G L>G L>G L>G L>G L>G L>G L>G N22;B N22;B N22;B N22;B N22;B N22;B N22;B N22;B N22;B N22;B N22;B N22;B N22;B N22;B N22;B N22;B N22;B N22;B N22;B N22;B N22;B N22;B N22;B N22;B N22;B N22;B N22;B N22;B N22;B N22;B N22;B N22;B N22;B N22;B N22;B N22;B N22;B N22;B N22;B N22;B N22;B N22;B N22;B N22;B N22;B N22;B N22;B N22;B N22;B N22;B N22;B N22;B N22;B N22;B N22;B N22;B N22;B N22;B N22;B N22;B N22;B N22;B N22;B N22;B N22;B N22;B N22;B N22;B N22;B N22;B N22;B N22;B N22;B N22;B N22;B N22;B N22;B N22;B N22;B N22;B N22;B N22;B N22;B N22;B N22;B N22;B N22;B N22;B N22;B N22;B N22;B N22;B N22;B N22;B N22;B N22;B N22;B N22;B N22;B N22;B N22;B N22;B N22;B N22;B N22;B N22;B N22;B N22;B N22;B N22;B N22;B N22;B N22;B N22;B N22;B N22;B N22;B N22;B N22;B N22;B N22;B N22;B N22;B N22;B N22;B N22;B N22;B N22;B N22;B N22;B N22;B N22;B N22;B N22;B N22;B N22;B N22;B N22;B N22;B N22;B N22;B N22;B N22;B N22;B N22;B N22;B N22;B N22;B N22;B N22;B N22;B N22;B N22;B N22;B N22;B N22;B N22;B N22;B N22;B N22;B N22;B N22;B N22;B N22;B N22;B N22;B N22;B N22;B N22;B N22;B N22;B J22;B J22;B J22;B J22;B J22;B J22;B J22;B J22;B J22;B J22;B J22;B J22;B J22;B J22;B J22;B J22;B J22;B J22;B J22;B J22;B J22;B J22;B J22;B J22;B J22;B J22;B J22;B J22;B J22;B J22;B J22;B J22;B J22;B J22;B J22;B J22;B J22;B J22;B J22;B J22;B J22;B J22;B J22;B J22;B J22;B J22;B J22;B J22;B J22;B J22;B J22;B J22;B J22;B J22;B J22;B J22;B J22;B J22;B J22;B J22;B J22;B J22;B J22;B J22;B J22;B J22;B J22;B J22;B J22;B J22;B J22;B J22;B J22;B J22;B J22;B J22;B J22;B J22;B J22;B J22;B J22;B J22;B J22;B J22;B J22;B J22;B J22;B J22;B J22;B J22;B J22;B J22;B J22;B J22;B J22;B J22;B J22;B J22;B J22;B J22;B J22;B J22;B J22;B J22;B J22;B J22;B J22;B J22;B J22;B J22;B J22;B J22;B J22;B J22;B J22;B J22;B J22;B J22;B J22;B J22;B J22;B J22;B J22;B J22;B J22;B J22;B J22;B J22;B J22;B J22;B J22;B J22;B J22;B J22;B J22;B J22;B J22;B J22;B J22;B J22;B J22;B J22;B J22;B J22;B J22;B J22;B J22;B J22;B J22;B J22;B J22;B J22;B J22;B J22;B J22;B J22;B J22;B J22;B J22;B J22;B J22;B J22;B J22;B J22;B J22;B J22;B J22;B J22;B J22;B J22;B I22;B I22;B I22;B I22;B I22;B I22;B I22;B I22;B I22;B I22;B I22;B I22;B I22;B I22;B I22;B I22;B I22;B I;B I;B I;B I;B I;B I;B I;B I;B I;B I;B I;B I;B I;B I;B I;B I;B I;B I;B I;B I;B I;B I;B I;B I;B I;B I;B I;B I;B I;B I;B I;B I;B I;B I;B I;B I;B I;B I;B I;B I;B I;B I;B I;B I;B I;B I;B I;B I;B I;B I;B I;B I;B I;B I;B I;B I;B I;B I;B I;B I;B I;B I;B I;B I;B I;B I;B I;B I;B I;B I;B I;B I;B I;B I;B I;B I;B I;B I;B I;B I;B I;B I;B I;B I;B I;B I;B I;B I;B I;B I;B I;B I;B I;B I;B I;B I;B I;B I;B I;B I;B I;B I;B I;B I;B I;B I;B I;B I;B I;B I;B I;B I;B I;B I;B I;B I;B I;B I;B I;B I;B I;B I;B I;B I;B I;B I;B I;B I;B I;B I;B I;B I;B I;B I;B I;B I;B I;B I;B I;B I;B I;B I;B I;B I;B I;B I;B I;B I;B I;B I;B I;B I;B I;B I;B J66> J66> J66> J66> J66> J66> J66> J66> J66> J66> J66> J66> J66> J66> J66> J66> J66> J66> J66> J66> J66> J66> J66> J66> J66> J66> J66> J66> J66> J66> J66> J66> J66> J66> J66> J66> J66> J66> J66> J66> J66> J66> J66> J66> J66> J66> J66> J66> J66> J66> J66> J66> J66> J66> J66> J66> J66> J66> J66> J66> J66> J66> J66> J66> J66> J66> J66> J66> J66> J66> J66> J66> J66> J66> J66> J66> J66> J66> J66> J66> J66> J66> J66> J66> J66> J66> J66> J66> J66> J66> J66> J66> J66> J66> J66> J66> J66> J66> J66> J66> J66> J66> J66> J66> J66> J66> J66> J66> J66> J66> J66> J66> J66> J66> J66> J66> J66> J66> J66> J66> J66> J66> J66> J66> J66> J66> J66> J66> J66> J66> J66> J66> J66> J66> J66> J66> J66> J66> J66> J66> J66> J66> J66> J66> J66> J66> J66> J66> J66> J66> J66> J66> J66> J66> J66> J66> J66> J66> J66> J66> J66> J66> J66> J66> J66> J66> J66> J66> J66> J66> J66> G66> G66> G66> G66> G66> G66> G66> G66> G66> G66> G66> G66> G66> G66> G66> G66> G66> G66> G66> G66> G66> G66> G66> G66> G66> G66> G66> G66> G66> G66> G66> G66> G66> G66> G66> G66> G66> G66> G66> G66> G66> G66> G66> G66> G66> G66> G66> G66> G66> G66> G66> G66> G66> G66> G66> G66> G66> G66> G66> G66> G66> G66> G66> G66> G66> G66> G66> G66> G66> G66> G66> G66> G66> G66> G66> G66> G66> G66> G66> G66> G66> G66> G66> G66> G66> G66> G66> G66> G66> G66> G66> G66> G66> G66> G66> G66> G66> G66> G66> G66> G66> G66> G66> G66> G66> G66> G66> G66> G66> G66> G66> G66> G66> G66> G66> G66> G66> G66> G66> G66> G66> G66> G66> G66> G66> G66> G66> G66> G66> G66> G66> G66> G66> G66> G66> G66> G66> G66> G66> G66> G66> G66> G66> G66> G66> G66> G66> G66> G66> G66> G66> G66> G66> G66> G66> G66> G66> G66> G66> G66> G66> G66> G66> G66> G66> G66> G66> G66> G66> G66> F66> F66> F66> F66> F66> F66> F66> F66> F66> F66> F66> F66> F66> F66> F66> F66> F66> F> F> F> F> F> F> F> F> F> F> F> F> F> F> F> F> F> F> F> F> F> F> F> F> F> F> F> F> F> F> F> F> F> F> F> F> F> F> F> F> F> F> F> F> F> F> F> F> F> F> F> F> F> F> F> F> F> F> F> F> F> F> F> F> F> F> F> F> F> F> F> F> F> F> F> F> F> F> F> F> F> F> F> F> F> F> F> F> F> F> F> F> F> F> F> F> F> F> F> F> F> F> F> F> F> F> F> F> F> F> F> F> F> F> F> F> F> F> F> F> F> F> F> F> F> F> F> F> F> F> F> F> F> F> F> F> F> F> F> F> F> F> F> F> F> F> F> F> F> F> F> F> F> F> G>;; G>;; G>;; G>;; G>;; G>;; G>;; G>;; G>;; G>;; G>;; G>;; G>;; G>;; G>;; G>;; G>;; G>;; G>;; G>;; G>;; G>;; G>;; G>;; G>;; G>;; G>;; G>;; G>;; G>;; G>;; G>;; G>;; G>;; G>;; G>;; G>;; G>;; G>;; G>;; G>;; G>;; G>;; G>;; G>;; G>;; G>;; G>;; G>;; G>;; G>;; G>;; G>;; G>;; G>;; G>;; G>;; G>;; G>;; G>;; G>;; G>;; G>;; G>;; G>;; G>;; G>;; G>;; G>;; G>;; G>;; G>;; G>;; G>;; G>;; G>;; G>;; G>;; G>;; G>;; G>;; G>;; G>;; G>;; G>;; G>;; G>;; G>;; G>;; G>;; G>;; G>;; G>;; G>;; G>;; G>;; G>;; G>;; G>;; G>;; G>;; G>;; G>;; G>;; G>;; G>;; G>;; G>;; G>;; G>;; G>;; G>;; G>;; G>;; G>;; G>;; G>;; G>;; G>;; G>;; G>;; G>;; G>;; G>;; G>;; G>;; G>;; G>;; G>;; G>;; G>;; G>;; G>;; G>;; G>;; G>;; G>;; G>;; G>;; G>;; G>;; G>;; G>;; G>;; G>;; G>;; G>;; G>;; G>;; G>;; G>;; G>;; G>;; G>;; G>;; G>;; G>;; G>;; G>;; G>;; G>;; G>;; G>;; G>;; G>;; G>;; G>;; G>;; G>;; G>;; G>;; G>;; G>;; G>;; G>;; G>;; G>;; G>;; G>;; G>;; G>;; G>;; G>;; G>;; G>;; G>;; G>;; G>;; G>;; G>;; G>;; G>;; G>;; G>;; G>;; G>;; G>;; G>;; G>;; G>;; G>;; G>;; G>;; G>;; G>;; G>;; G>;; G>;; G>;; G>;; G>;; G>;; G>;; G>;; G>;; G>;; G>;; G>;; G>;; G>;; G>;; G>;; G>;; G>;; G>;; G>;; G>;; G>;; G>;; G>;; G>;; G>;; G>;; G>;; G>;; G>;; G>;; G>;; G>;; G>;; G>;; G>;; G>;; G>;; G>;; G>;; G>;; G>;; G>;; G>;; G>;; G>;; G>;; G>;; G>;; G>;; G=;; G=;; G=;; G=;; G=;; G=;; G=;; G=;; G=;; G=;; G=;; G=;; G=;; G=;; G=;; G=;; G=;; G=;; G=;; G=;; G=;; G=;; G=;; G=;; G=;; G=;; G=;; G=;; G=;; G=;; G=;; G=;; G=;; G=;; G=;; G=;; G=;; G=;; G=;; G=;; G=;; G=;; G=;; G=;; G=;; G=;; G=;; G=;; G=;; G=;; G=;; G=;; G=;; G=;; G=;; G=;; G=;; G=;; G=;; G=;; G=;; G=;; G=;; G=;; G=;; G=;; G=;; G=;; G=;; G=;; G=;; G=;; G=;; G=;; G=;; G=;; G=;; G=;; G=;; G=;; G=;; G=;; G=;; G=;; G=;; G=;; G=;; G=;; G=;; G=;; G=;; G=;; G=;; G=;; G=;; G=;; G=;; G=;; G=;; G=;; G=;; G=;; G=;; G=;; G=;; G=;; G=;; G=;; G=;; G=;; G=;; G=;; G=;; G=;; G=;; G=;; G=;; G=;; G=;; G=;; G=;; G=;; G=;; G=;; G=;; G=;; G=;; G=;; G=;; G=;; G=;; G=;; G=;; G=;; G=;; G=;; G=;; G=;; G=;; G=;; G=;; G=;; G=;; G=;; G=;; G=;; G=;; G=;; G=;; G=;; G=;; G=;; G=;; G=;; G=;; G=;; G=;; G=;; G=;; G=;; G=;; G=;; G=;; G=;; G=;; G=;; G=;; G=;; G=;; G=;; G=;; G=;; G=;; G=;; G=;; G=;; G=;; G=;; G=;; G=;; G=;; G=;; G=;; G=;; G=;; G=;; G=;; G=;; G=;; G=;; G=;; G=;; G=;; G=;; G=;; G=;; G=;; G=;; G=;; G=;; G=;; G=;; G=;; G=;; G=;; G=;; G=;; G=;; G=;; G=;; G=;; G=;; G=;; G=;; G=;; G=;; G=;; G=;; G=;; G=;; G=;; G=;; G=;; G=;; G=;; G=;; G=;; G=;; G=;; G=;; G=;; G=;; G=;; G=;; G=;; G=;; G=;; G=;; G=;; G=;; G=;; G=;; G=;; G=;; G=;; G=;; G=;; G=;; G=;; G=;; G=;; G=;; G=;; G=;; G=;; G=;; ;;; ;;; ;;; ;;; ;;; ;;; ;;; ;;; ;;; ;;; ;;; ;;; ;;; ;;; ;;; ;;; ;;; ;;; ;;; ;;; ;;; ;;; ;;; ;;; ;;; ;;; ;;; ;;; ;;; ;;; ;;; ;;; ;;; ;;; ;;; ;;; ;;; ;;; ;;; ;;; ;;; ;;; ;;; ;;; ;;; ;;; ;;; ;;; ;;; ;;; ;;; ;;; ;;; ;;; ;;; ;;; ;;; ;;; ;;; ;;; ;;; ;;; ;;; ;;; ;;; ;;; ;;; ;;; ;;; ;;; ;;; ;;; ;;; ;;; ;;; ;;; ;;; ;;; ;;; ;;; ;;; ;;; ;;; ;;; ;;; ;;; ;;; ;;; ;;; ;;; ;;; ;;; ;;; ;;; ;;; ;;; ;;; ;;; ;;; ;;; ;;; ;;; ;;; ;;; ;;; ;;; ;;; ;;; ;;; ;;; ;;; ;;; ;;; ;;; ;;; ;;; ;;; ;;; ;;; ;;; ;;; ;;; ;;; ;;; ;;; ;;; ;;; ;;; ;;; ;;; ;;; ;;; ;;; ;;; ;;; ;;; ;;; ;;; ;;; ;;; ;;; ;;; ;;; ;;; ;;; ;;; ;;; ;;; ;;; ;;; ;;; ;;; ;;; ;;; ;;; ;;; ;;; ;;; ;;; ;;; ;;; ;;; ;;; ;;; ;;; ;;; ;;; ;;; ;;; ;;; ;;; ;;; ;;; ;;; ;;; ;;; ;;; ;;; ;;; ;;; ;;; ;;; ;;; ;;; ;;; ;;; ;;; ;;; ;;; ;;; ;;; ;;; ;;; ;;; ;;; ;;; ;;; ;;; ;;; ;;; ;;; ;;; ;;; ;;; ;;; ;;; ;;; ;;; ;;; ;;; ;;; ;;; ;;; ;;; ;;; ;;; ;;; ;;; ;;; ;;; ;;; ;;; ;;; ;;; ;;; ;;; ;;; ;;; ;;; ;;; ;;; ;;; ;;; ;;; ;;; ;;; ;;; ;;; ;;; ;;; ;;; ;;; ;;; ;;; ;;; ;;; ;;; ;;; ;;; ;;; ;;; ;;; ;;; ;;; ;;; ;;; >;; >;; >;; >;; >;; >;; >;; >;; >;; >;; >;; >;; >;; >;; >;; >;; >;; >;; >;; >;; >;; >;; >;; >;; >;; >;; >;; >;; >;; >;; >;; >;; >;; >;; >;; >;; >;; >;; >;; >;; >;; >;; >;; >;; >;; >;; >;; >;; >;; >;; >;; >;; >;; >;; >;; >;; >;; >;; >;; >;; >;; >;; >;; >;; >;; >;; >;; >;; >;; >;; >;; >;; >;; >;; >;; >;; >;; >;; >;; >;; >;; >;; >;; >;; >;; >;; >;; >;; >;; >;; >;; >;; >;; >;; >;; >;; >;; >;; >;; >;; >;; >;; >;; >;; >;; >;; >;; >;; >;; >;; >;; >;; >;; >;; >;; >;; >;; >;; >;; >;; >;; >;; >;; >;; >;; >;; >;; >;; >;; >;; >;; >;; >;; >;; >;; >;; >;; >;; >;; >;; >;; >;; >;; >;; >;; >;; >;; >;; >;; >;; >;; >;; >;; >;; >;; >;; >;; >;; >;; >;; >;; >;; >;; >;; >;; >;; >;; >;; >;; >;; >;; >;; >;; >;; >;; >;; >;; >;; >;; ;; ;; ;; ;; ;; ;; ;; ;; ;; ;; ;; ;; ;; ;; ;; ;; ;; ;; ;; ;; ;; ;; ;; ;; ;; ;; ;; ;; ;; ;; ;; ;; ;; ;; ;; ;; ;; ;; ;; ;; ;; ;; ;; ;; ;; ;; ;; ;; ;; ;; ;; ;; ;; ;; ;; ;; ;; ;; ;; ;; ;; ;; ;; ;; ;; ;; ;; ;; ;; ;; ;; ;; ;; ;; ;; ;; ;; =;;@C =;;@C =;;@C =;;@C =;;@C =;;@C =;;@C =;;@C =;;@C =;;@C =;;@C =;;@C =;;@C =;;@C =;;@C =;;@C =;;@C =;;@C =;;@C =;;@C =;;@C =;;@C =;;@C =;;@C =;;@C =;;@C =;;@C =;;@C =;;@C =;;@C =;;@C =;;@C =;;@C =;;@C =;;@C =;;@C =;;@C =;;@C =;;@C =;;@C =;;@C =;;@C =;;@C =;;@C =;;@C =;;@C =;;@C =;;@C =;;@C =;;@C =;;@C =;;@C =;;@C =;;@C =;;@C =;;@C =;;@C =;;@C =;;@C =;;@C =;;@C =;;@C =;;@C =;;@C =;;@C =;;@C =;;@C =;;@C =;;@C =;;@C =;;@C =;;@C =;;@C =;;@C =;;@C =;;@C =;;@C =;;@C =;;@C =;;@C =;;@C =;;@C =;;@C =;;@C =;;@C =;;@C =;;@C =;;@C =;;@C =;;@C =;;@C =;;@C =;;@C =;;@C =;;@C =;;@C =;;@C =;;@C =;;@C =;;@C =;;@C =;;@C =;;@C =;;@C =;;@C =;;@C =;;@C =;;@C =;;@C =;;@C =;;@C =;;@C =;;@C =;;@C =;;@C =;;@C =;;@C =;;@C =;;@C =;;@C =;;@C =;;@C =;;@C =;;@C =;;@C =;;@C =;;@C =;;@C =;;@C =;;@C =;;@C =;;@C =;;@C =;;@C =;;@C =;;@C =;;@C =;;@C =;;@C =;;@C =;;@C =;;@C =;;@C =;;@C =;;@C =;;@C =;;@C =;;@C =;;@C =;;@C =;;@C =;;@C =;;@C =;;@C =;;@C =;;@C =;;@C =;;@C =;;@C =;;@C =;;@C =;;@C =;;@C =;;@C =;;@C =;;@C =;;@C =;;@C =;;@C =;;@C =;;@C =;;@C =;;@C =;;@C =;;@C =;;@C =;;@C =;;@C =;;@C =;;@C =;;@C =;;@C =;;@C =;;@C =;;@C =;;@C =;;@C =;;@C =;;@C =;;@C =;;@C =;;@C =;;@C =;;@C =;;@C =;;@C =;;@C =;;@C =;;@C =;;@C =;;@C =;;@C =;;@C =;;@C =;;@C =;;@C =;;@C =;;@C =;;@C =;;@C =;;@C =;;@C =;;@C =;;@C =;;@C =;;@C =;;@C =;;@C =;;@C =;;@C =;;@C =;;@C =;;@C =;;@C =;;@C =;;@C =;;@C =;;@C =;;@C =;;@C =;;@C =;;@C =;;@C =;;@C =;;@C =;;@C =;;@C =;;@C =;;@C =;;@C =;;@C =;;@C =;;@C =;;@C =;;@C =;;@C =;;@C =;;@C =;;@C =;;@C =;;@C =;;@C =;;@C =;;@C =;;@C =;;@C =;;@C =;;@C =;;@C =;;@C =;;@C =;;@C =;;@C =;;@C =;;@C =;;@C =;;@C =;;@C =;;@C =;;@C =;;@C =;;@C =;;@C =;;@C =;;@C =;;@C =;;@C =;;@C =;;@C =;;@C =;;@C =;;@C =;;@C =;;@C =;;@C =;;@C =;;@C =;;@C =;;@C =;;@C =;;@C =;;@C =;;@C =;;@C =;;@C =;;@C =;;@C =;;@C =;;@C =;;@C =;;@C =;;@C =;;@C =;;@C =;;@C =;;@C =;;@C =;;@C =;;@C =;;@C =;;@C =;;@C =;;@C =;;@C =;;@C =;;@C =;;@C =;;@C =;;@C =;;@C =;;@C =;;@C =;;@C =;;@C =;;@C =;;@C =;;@C =;;@C =;;@C =;;@C =;;@C =;;@C =;;@C =;;@C =;;@C =;;@C =;;@C =;;@C =;;@C =;;@C =;;@C =;;@C =;;@C =;;@C =;;@C =;;@C =;;@C =;;@C =;;@C =;;@C =;;@C =;;@C =;;@C =;;@C =;;@C =;;@C =;;@C =;;@C =@C =@C =@C =@C =@C =@C =@C =@C =@C =@C =@C =@C =@C =@C =@C =@C =@C =@C =@C =@C =@C =@C =@C =@C =@C =@C =@C =@C =@C =@C =@C =@C =@C =@C =@C =@C =@C =@C =@C =@C =@C =@C =@C =@C =@C =@C =@C =@C =@C =@C =@C =@C =@C =@C =@C =@C =@C =@C =@C =@C =@C =@C =@C =@C =@C =@C =@C =@C =@C =@C =@C =@C =@C =@C =@C =@C =@C =@C =@C =@C =@C =@C =@C =@C =@C =@C =@C =@C =@C =@C =@C =@C =@C =@C =@C =@C =@C =@C =@C =@C =@C =@C =@C =@C =@C =@C =@C =@C =@C =@C =@C =@C =@C =@C =@C =@C =@C =@C =@C =@C =@C =@C =@C =@C =@C =@C =@C =@C =@C =@C =@C =@C =@C =@C =@C =@C =@C =@C =@C =@C =@C =@C =@C =@C =@C =@C =@C =@C =@C =@C =@C =@C =@C =@C U6:=B: U6:=B: U6:=B: U6:=B: U6:=B: U6:=B: U6:=B: U6:=B: U6:=B: U6:=B: U6:=B: U6:=B: U6:=B: U6:=B: U6:=B: U6:=B: U6:=B: U6:=B: U6:=B: U6:=B: U6:=B: U6:=B: U6:=B: U6:=B: U6:=B: U6:=B: U6:=B: U6:=B: U6:=B: U6:=B: U6:=B: U6:=B: U6:=B: U6:=B: U6:=B: U6:=B: U6:=B: U6:=B: U6:=B: U6:=B: U6:=B: U6:=B: U6:=B: U6:=B: U6:=B: U6:=B: U6:=B: U6:=B: U6:=B: U6:=B: U6:=B: U6:=B: U6:=B: U6:=B: U6:=B: U6:=B: U6:=B: U6:=B: U6:=B: U6:=B: U6:=B: U6:=B: U6:=B: U6:=B: U6:=B: U6:=B: U6:=B: U6:=B: U6:=B: U6:=B: U6:=B: U6:=B: U6:=B: U6:=B: U6:=B: U6:=B: U6:=B: U6:=B: U6:=B: U6:=B: U6:=B: U6:=B: U6:=B: U6:=B: U6:=B: U6:=B: U6:=B: U6:=B: U6:=B: U6:=B: U6:=B: U6:=B: U6:=B: U6:=B: U6:=B: U6:=B: U6:=B: U6:=B: U6:=B: U6:=B: U6:=B: U6:=B: U6:=B: U6:=B: U6:=B: U6:=B: U6:=B: U6:=B: U6:=B: U6:=B: U6:=B: U6:=B: U6:=B: U6:=B: U6:=B: U6:=B: U6:=B: U6:=B: U6:=B: U6:=B: U6:=B: U6:=B: U6:=B: U6:=B: U6:=B: U6:=B: U6:=B: U6:=B: U6:=B: U6:=B: U6:=B: U6:=B: U6:=B: U6:=B: U6:=B: U6:=B: U6:=B: U6:=B: U6:=B: U6:=B: U6:=B: U6:=B: U6:=B: U6:=B: U6:=B: U6:=B: U6:=B: U6:=B: U6:=B: U6:=B: U6:=B: U6:=B: U6:=B: U6:=B: U6:=B: U6:=B: U6:=B: U6:=B: U6:=B: U6:=B: U6:=B: U6:=B: U6:=B: U6:=B: U6:=B: U6:=B: U6:=B: U6:=B: U6:=B: U6:=B: U6:=B: U6:=B: U6:=B: U6:=B: U6:=B: U6:=B: U6:=B: U6:=B: U6:=B: U6:=B: U6:=B: U6:=B: U6:=B: U6:=B: U6:=B: U6:=B: U6:=B: U6:=B: U6:=B: U6:=B: U6:=B: U6:=B: U6:=B: U6:=B: U6:=B: U6:=B: U6:=B: U6:=B: U6:=B: U6:=B: U6:=B: U6:=B: U6:=B: U6:=B: U6:=B: U6:=B: U6:=B: U6:=B: U6:=B: U6:=B: U6:=B: U6:=B: U6:=B: U6:=B: U6:=B: U6:=B: U6:=B: U6:=B: U6:=B: U6:=B: U6:=B: U6:=B: U6:=B: U6:=B: U6:=B: U6:=B: U6:=B: U6:=B: U6:=B: U6:=B: U6:=B: U6:=B: U6:=B: U6:=B: U6:=B: U6:=B: U6:=B: U6:=B: U6:=B: U6:=B: U6:=B: U6:=B: U6:=B: U6:=B: U6:=B: U6:=B: U6:=B: U6:=B: U6:=B: U6:=B: U6:=B: U6:=B: U6:=B: U6:=B: U6:=B: U6:=B: U68;8 U68;8 U68;8 U68;8 U68;8 U68;8 U68;8 U68;8 U68;8 U68;8 U68;8 U68;8 U68;8 U68;8 U68;8 U68;8 U68;8 U68;8 U68;8 U68;8 U68;8 U68;8 U68;8 U68;8 U68;8 U68;8 U68;8 U68;8 U68;8 U68;8 U68;8 U68;8 U68;8 U68;8 U68;8 U68;8 U68;8 U68;8 U68;8 U68;8 U68;8 U68;8 U68;8 U68;8 U68;8 U68;8 U68;8 U68;8 U68;8 U68;8 U68;8 U68;8 U68;8 U68;8 U68;8 U68;8 U68;8 U68;8 U68;8 U68;8 U68;8 U68;8 U68;8 U68;8 U68;8 U68;8 U68;8 U68;8 U68;8 U68;8 U68;8 U68;8 U68;8 U68;8 U68;8 U68;8 U68;8 U68;8 U68;8 U68;8 U68;8 U68;8 U68;8 U68;8 U68;8 U68;8 U68;8 U68;8 U68;8 U68;8 U68;8 U68;8 U68;8 U68;8 U68;8 U68;8 U68;8 U68;8 U68;8 U68;8 U68;8 U68;8 U68;8 U68;8 U68;8 U68;8 U68;8 U68;8 U68;8 U68;8 U68;8 U68;8 U68;8 U68;8 U68;8 U68;8 U68;8 U68;8 U68;8 U68;8 U68;8 U68;8 U68;8 U68;8 U68;8 U68;8 U68;8 U68;8 U68;8 U68;8 U68;8 U68;8 U68;8 U68;8 U68;8 U68;8 U68;8 U68;8 U68;8 U68;8 U68;8 U68;8 U68;8 U68;8 U68;8 U68;8 U68;8 U68;8 U68;8 U68;8 U68;8 U68;8 U68;8 U68;8 U68;8 U68;8 U68;8 U68;8 U68;8 U68;8 U68;8 U68;8 U68;8 U68;8 U68;8 U68;8 U68;8 U68;8 U68;8 U68;8 U68;8 U68;8 U68;8 U68;8 U68;8 U68;8 U68;8 U68;8 U68;8 U68;8 U68;8 U68;8 U68;8 U68;8 U68;8 U68;8 U68;8 U68;8 U68;8 U68;8 U68;8 U68;8 U68;8 U68;8 U68;8 U68;8 U68;8 U68;8 U68;8 U68;8 U68;8 U68;8 U68;8 U68;8 U68;8 U8;8 U8;8 U8;8 U8;8 U8;8 U8;8 U8;8 U8;8 U8;8 U8;8 U8;8 U8;8 U8;8 U8;8 U8;8 U8;8 U8;8 U8;8 U8;8 U8;8 U8;8 U8;8 U8;8 U8;8 U8;8 U8;8 U8;8 U8;8 U8;8 U8;8 U8;8 U8;8 U8;8 U8;8 U8;8 U8;8 U8;8 U8;8 U8;8 U8;8 U8;8 U8;8 U8;8 U8;8 U8;8 U8;8 U8;8 U8;8 U8;8 U8;8 U8;8 U@::=B U@::=B U@::=B U@::=B U@::=B U@::=B U@::=B U@::=B U@::=B U@::=B U@::=B U@::=B U@::=B U@::=B U@::=B U@::=B U@::=B U@::=B U@::=B U@::=B U@::=B U@::=B U@::=B U@::=B U@::=B U@::=B U@::=B U@::=B U@::=B U@::=B U@::=B U@::=B U@::=B U@::=B U@::=B U@::=B U@::=B U@::=B U@::=B U@::=B U@::=B U@::=B U@::=B U@::=B U@::=B U@::=B U@::=B U@::=B U@::=B U@::=B U@::=B U@::=B U@::=B U@::=B U@::=B U@::=B U@::=B U@::=B U@::=B U@::=B U@::=B U@::=B U@::=B U@::=B U@::=B U@::=B U@::=B U@::=B U@::=B U@::=B U@::=B U@::=B U@::=B U@::=B U@::=B U@::=B U@::=B U@::=B U@::=B U@::=B U@::=B U@::=B U@::=B U@::=B U@::=B U@::=B U@::=B U@::=B U@::=B U@::=B U@::=B U@::=B U@::=B U@::=B U@::=B U@::=B U@::=B U@::=B U@::=B U@::=B U@::=B U@::=B U@::=B U@::=B U@::=B U@::=B U@::=B U@::=B U@::=B U@::=B U@::=B U@::=B U@::=B U@::=B U@::=B U@::=B U@::=B U@::=B U@::=B U@::=B U@::=B U@::=B U@::=B U@::=B U@::=B U@::=B U@::=B U@::=B U@::=B U@::=B U@::=B U@::=B U@::=B U@::=B U@::=B U@::=B U@::=B U@::=B U@::=B U@::=B U@::=B U@::=B U@::=B U@::=B U@::=B U@::=B U@::=B U@::=B U@::=B U@::=B U@::=B U@::=B U@::=B U@::=B U@::=B U@::=B U@::=B U@::=B U@::=B U@::=B U@::=B U@::=B U@::=B U@::=B U@::=B U@::=B U@::=B U@::=B U@::=B U@::=B U@::=B U@::=B U@::=B U@::=B U@::=B U@::=B U@::=B U@::=B U@::=B U@::=B U@::=B U@::=B U@::=B U@::=B U@::=B U@::=B U@::=B U@::=B U@::=B U@::=B U@::=B U@::=B U@::=B U@::=B U@::=B U@::=B U@::=B U@::=B U@::=B U@::=B U@::=B U@::=B U@::=B U@::=B U@::=B U@::=B U@::=B U@::=B U@::=B U@::=B U@::=B U@::=B U@::=B U@::=B U@::=B U@::=B U@::=B U@::=B U@::=B U@::=B U@::=B U@::=B U@::=B U@::=B U@::=B U@::=B U@::=B U@::=B U@::=B U@::=B U@::=B U@::=B U@::=B U@::=B U@::=B U@::=B U@::=B U@::=B U@::=B U@::=B U@::=B U@::=B U@::=B U@::=B U@::=B U@::=B U@::=B U@::=B U@::=B U@::=B U@::=B U@::=B U@::=B U@::=B U@::=B U@::=B O@::=B O@::=B O@::=B O@::=B O@::=B O@::=B O@::=B O@::=B O@::=B O@::=B O@::=B O@::=B O@::=B O@::=B O@::=B O@::=B O@::=B O@::=B O@::=B O@::=B O@::=B O@::=B O@::=B O@::=B O@::=B O@::=B O@::=B O@::=B O@::=B O@::=B O@::=B O@::=B O@::=B O@::=B O@::=B O@::=B O@::=B O@::=B O@::=B O@::=B O@::=B O@::=B O@::=B O@::=B O@::=B O@::=B O@::=B O@::=B O@::=B O@::=B O@::=B O@::=B O@::=B O@::=B O@::=B O@::=B O@::=B O@::=B O@::=B O@::=B O@::=B O@::=B O@::=B O@::=B O@::=B O@::=B O@::=B O@::=B O@::=B O@::=B O@::=B O@::=B O@::=B O@::=B O@::=B O@::=B O@::=B O@::=B O@::=B O@::=B O@::=B O@::=B O@::=B O@::=B O@::=B O@::=B O@::=B O@::=B O@::=B O@::=B O@::=B O@::=B O@::=B O@::=B O@::=B O@::=B O@::=B O@::=B O@::=B O@::=B O@::=B O@::=B O@::=B O@::=B O@::=B O@::=B O@::=B O@::=B O@::=B O@::=B O@::=B O@::=B O@::=B O@::=B O@::=B O@::=B O@::=B O@::=B O@::=B O@::=B O@::=B O@::=B O@::=B O@::=B O@::=B O@::=B O@::=B O@::=B N@::=B N@::=B N@::=B N@::=B N@::=B N@::=B N@::=B N@::=B N@::=B N@::=B N@::=B N@::=B N@::=B N@::=B N@::=B N@::=B N@::=B N@::=B N@::=B N@::=B N@::=B N@::=B N@::=B N@::=B N@::=B N@::=B N@::=B N@::=B N@::=B N@::=B N@::=B N@::=B N@::=B N@::=B N@::=B N@::=B N@::=B N@::=B N@::=B N@::=B N@::=B N@::=B N@::=B N@::=B N@::=B N@::=B N@::=B N@::=B N@::=B N@::=B N@::=B N@::=B N@::=B N@::=B N@::=B N@::=B N@::=B N@::=B N@::=B N@::=B N@::=B N@::=B N@::=B N@::=B N@::=B N@::=B N@::=B N@::=B N@::=B N@::=B N@::=B N@::=B N@::=B N@::=B N@::=B N@::=B N@::=B N@::=B N@::=B N@::=B N@::=B N@::=B N@::=B N@::=B N@::=B N@::=B N@::=B N@::=B N@::=B N@::=B N@::=B N@::=B N@::=B N@::=B N@::=B N@::=B N@::=B N@::=B N@::=B N@::=B N@::=B N@::=B N@::=B N@::=B N@::=B N@::=B N@::=B N@::=B N@::=B N@::=B N@::=B N@::=B N@::=B N@::=B N@::=B N@::=B N@::=B N@::=B N@::=B N@::=B N@::=B N@::=B N@::=B N@::=B N@::=B N@::=B N@::=B N@::=B L@::=B L@::=B L@::=B L@::=B L@::=B L@::=B L@::=B L@::=B L@::=B L@::=B L@::=B L@::=B L@::=B L@::=B L@::=B L@::=B L@::=B L@::=B L@::=B L@::=B L@::=B L@::=B L@::=B L@::=B L@::=B L@::=B L@::=B L@::=B L@::=B L@::=B L@::=B L@::=B L@::=B L@::=B L@::=B L@::=B L@::=B L@::=B L@::=B L@::=B L@::=B L@::=B L@::=B L@::=B L@::=B L@::=B L@::=B L@::=B L@::=B L@::=B L@::=B L@::=B L@::=B L@::=B L@::=B L@::=B L@::=B L@::=B L@::=B L@::=B L@::=B L@::=B L@::=B L@::=B L@::=B L@::=B L@::=B L@::=B L@::=B L@::=B L@::=B L@::=B L@::=B L@::=B L@::=B L@::=B L@::=B L@::=B L@::=B L@::=B L@::=B L@::=B L@::=B L@::=B L@::=B L@::=B L@::=B L@::=B L@::=B L@::=B L@::=B L@::=B L@::=B L@::=B L@::=B L@::=B L@::=B L@::=B L@::=B L@::=B L@::=B L@::=B L@::=B L@::=B L@::=B L@::=B L@::=B L@::=B L@::=B L@::=B L@::=B L@::=B L@::=B L@::=B L@::=B L@::=B L@::=B L@::=B L@::=B L@::=B L@::=B L@::=B L@::=B L@::=B L@::=B L@::=B L@::=B L@::=B L@::=B L@::=B L@::=B L@::=B L@::=B L@::=B L@::=B L@::=B L@::=B L@::=B L@::=B L@::=B L@::=B L@::=B L@::=B L@::=B L@::=B L@::=B L@::=B L@::=B L@::=B L@::=B L@::=B L@::=B L@::=B L@::=B L@::=B L@::=B L@::=B L@::=B L@::=B L@::=B L@::=B L@::=B L@::=B L@::=B L@::=B L@::=B L@::=B L@::=B L@::=B L@::=B L@::=B L@::=B L@::=B L@::=B L@::=B L@::=B L@::=B L@::=B L@::=B L@::=B L@::=B L@::=B L@::=B L@::=B L@::=B L@::=B L@::=B L@::=B L@::=B L@::=B L@::=B L@::=B L@::=B L@::=B L@::=B L@::=B L@::=B L@::=B L@::=B L@::=B L@::=B L@::=B L@::=B L@::=B L@::=B L@::=B L@::=B L@::=B L@::=B L@::=B L@::=B L@::=B L@::=B L@::=B L@::=B L@::=B L@::=B L@::=B L@::=B L@::=B L@::=B L@::=B L@::=B L@::=B L@::=B L@::=B L@::=B L@::=B L@::=B L@::=B L@::=B L@::=B L@::=B L@::=B L@::=B L@::=B L@::=B L@::=B L@::=B L@::=B L@::=B L@::=B L@::=B L@::=B L@::=B L@::=B L@::=B L@::=B L@::=B L@::=B L@::=B L@::=B L@::=B L@::=B L@::=B L@::=B UB::=B UB::=B UB::=B UB::=B UB::=B UB::=B UB::=B UB::=B UB::=B UB::=B UB::=B UB::=B UB::=B UB::=B UB::=B UB::=B UB::=B UB::=B UB::=B UB::=B UB::=B UB::=B UB::=B UB::=B UB::=B UB::=B UB::=B UB::=B UB::=B UB::=B UB::=B UB::=B UB::=B UB::=B UB::=B UB::=B UB::=B UB::=B UB::=B UB::=B UB::=B UB::=B UB::=B UB::=B UB::=B UB::=B UB::=B UB::=B UB::=B UB::=B UB::=B UB::=B UB::=B UB::=B UB::=B UB::=B UB::=B UB::=B UB::=B UB::=B UB::=B UB::=B UB::=B UB::=B UB::=B UB::=B UB::=B UB::=B UB::=B UB::=B UB::=B UB::=B UB::=B UB::=B UB::=B UB::=B UB::=B UB::=B UB::=B UB::=B UB::=B UB::=B UB::=B UB::=B UB::=B UB::=B UB::=B UB::=B UB::=B UB::=B UB::=B UB::=B UB::=B UB::=B UB::=B UB::=B UB::=B UB::=B UB::=B UB::=B UB::=B UB::=B UB::=B UB::=B UB::=B UB::=B UB::=B UB::=B UB::=B UB::=B UB::=B UB::=B UB::=B UB::=B UB::=B UB::=B UB::=B UB::=B UB::=B UB::=B UB::=B UB::=B UB::=B UB::=B UB::=B UB::=B UB::=B UB::=B UC::=B UC::=B UC::=B UC::=B UC::=B UC::=B UC::=B UC::=B UC::=B UC::=B UC::=B UC::=B UC::=B UC::=B UC::=B UC::=B UC::=B UC::=B UC::=B UC::=B UC::=B UC::=B UC::=B UC::=B UC::=B UC::=B UC=B UC=B UC=B UC=B UC=B UC=B UC=B UC=B UC=B UC=B UC=B UC=B UC=B UC=B UC=B UC=B UC=B UC=B UC=B UC=B UC=B UC=B UC=B UC=B UC=B UC=B UC=B UC=B UC=B UC=B UC=B UC=B UC=B UC=B UC=B UC=B UC=B UC=B UC=B UC=B UC=B UC=B UC=B UC=B UC=B UC=B UC=B UC=B UC=B UC=B UC=B UC=B UC=B UC=B UC=B UC=B UC=B UC=B UC=B UC=B UC=B UC=B UC=B UC=B UC=B UC=B UC=B UC=B UC=B UC=B UC=B UC=B UC=B UC=B UC=B UC=B UC=B UC=B UC=B UC=B UC=B UC=B UC=B UC=B UC=B UC=B UC=B UC=B UC=B UC=B UC=B UC=B UC=B UC=B UC=B UC=B UC=B UC=B UC=B UC=B UC=B UC=B JB@B JB@B JB@B JB@B JB@B JB@B JB@B JB@B JB@B JB@B JB@B JB@B JB@B JB@B JB@B JB@B JB@B JB@B JB@B JB@B JB@B JB@B JB@B JB@B JB@B JB@B JB@B JB@B JB@B JB@B JB@B JB@B JB@B JB@B JB@B JB@B JB@B JB@B JB@B JB@B JB@B JB@B JB@B JB@B JB@B JB@B JB@B JB@B JB@B JB@B JB@B JB@B JB@B JB@B JB@B JB@B JB@B JB@B JB@B JB@B JB@B JB@B JB@B JB@B JB@B JB@B JB@B JB@B JB@B JB@B JB@B JB@B JB@B JB@B JB@B JB@B JB@B JB@B JB@B JB@B JB@B JB@B JB@B JB@B JB@B JB@B JB@B JB@B JB@B JB@B JB@B JB@B JB@B JB@B JB@B JB@B JB@B JB@B JB@B JB@B JB@B JB@B JB@B JB@B JB@B JB@B JB@B JB@B JB@B JB@B JB@B JB@B JB@B JB@B JB@B JB@B JB@B JB@B JB@B JB@B JB@B JB@B JB@B JB@B JB@B JB@B JB@B JB@B JB@B JB@B JB@B JB@B JB@B JB@B JB@B JB@B JB@B JB@B JB@B JB@B JB@B JB@B JB@B JB@B JB@B JB@B JB@B JB@B JB@B JB@B JB@B JB@B JB@B JB@B JB@B JB@B JB@B JB@B JB@B JB@B JB@B JB@B JB@B JB@B JB@B JB@B JB@B JB@B JB@B JB@B JB@B JB@B JB@B JB@B JB@B JB@B JB@B JB@B JB@B JB@B JB@B JB@B JB@B JB@B JB@B JB@B JB@B JB@B JB@B JB@B JB@B JB@B JB@B JB@B JB@B JB@B JB@B JB@B JB@B JB@B JB@B JB@B JB@B JB@B JB@B JB@B JB@B JB@B JB@B JB@B JB@B JB@B JB@B JB@B JB@B JB@B JB@B JB@B JB@B JB@B JB@B JB@B JB@B JB@B JB@B JB@B JB@B JB@B JB@B JB@B JB@B JB@B JB@B JB@B JB@B JB@B JB@B JB@B JB@B JB@B JB@B JB@B JB@B JB@B JB@B JB@B JB@B JB@B JB@B JB@B JB@B JB@B JB@B JB@B JB@B JB@B SB@B SB@B SB@B SB@B SB@B SB@B SB@B SB@B SB@B SB@B SB@B SB@B SB@B SB@B SB@B SB@B SB@B SB@B SB@B SB@B SB@B SB@B SB@B SB@B SB@B SB@B SB@B SB@B SB@B SB@B SB@B SB@B SB@B SB@B SB@B SB@B SB@B SB@B SB@B SB@B SB@B SB@B SB@B SB@B SB@B SB@B SB@B SB@B SB@B SB@B SB@B SB@B SB@B SB@B SB@B SB@B SB@B SB@B SB@B SB@B SB@B SB@B SB@B SB@B SB@B SB@B SB@B SB@B SB@B SB@B SB@B SB@B SB@B SB@B SB@B SB@B SB@B SB@B SB@B SB@B SB@B SB@B SB@B SB@B SB@B SB@B SB@B SB@B SB@B SB@B SB@B SB@B SB@B SB@B SB@B SB@B SB@B SB@B SB@B SB@B SB@B SB@B SB@B SB@B SB@B SB@B SB@B SB@B SB@B SB@B SB@B SB@B SB@B SB@B SB@B SB@B SB@B SB@B SB@B SB@B SB@B SB@B SB@B SB@B SB@B SB@B SB@B SB@B SB@B SB@B SB@B SB@B SB@B SB@B SB@B SB@B SB@B SB@B SB@B SB@B SB@B SB@B SB@B SB@B SB@B SB@B SB@B SB@B SB@B SB@B SB@B SB@B SB@B SB@B SB@B SB@B SB@B SB@B SB@B SB@B SB@B SB@B SB@B SB@B SB@B SB@B SB@B SB@B SB@B SB@B SB@B SB@B SB@B SB@B SB@B SB@B SB@B SB@B SB@B SB@B SB@B SB@B SB@B SB@B SB@B SB@B SB@B SB@B SB@B SB@B SB@B SB@B SB@B SB@B SB@B SB@B SB@B SB@B SB@B SB@B SB@B SB@B SB@B SB@B SB@B SB@B SB@B SB@B SB@B SB@B SB@B SB@B SB@B SB@B SB@B SB@B SB@B SB@B SB@B SB@B SB@B SB@B SB@B SB@B SB@B SB@B SB@B SB@B SB@B SB@B SB@B SB@B SB@B SB@B SB@B SB@B SB@B SB@B SB@B SB@B SB@B SB@B SB@B SB@B SB@B SB@B SB@B SB@B SB@B SB@B SB@B SB@B SB@B SB@B SB@B SB@B I@66:B I@66:B I@66:B I@66:B I@66:B I@66:B I@66:B I@66:B I@66:B I@66:B I@66:B I@66:B I@66:B I@66:B I@66:B I@66:B I@66:B I@66:B I@66:B I@66:B I@66:B I@66:B I@66:B I@66:B I@66:B I@66:B I@66:B I@66:B I@66:B I@66:B I@66:B I@66:B I@66:B I@66:B I@66:B I@66:B I@66:B I@66:B I@66:B I@66:B I@66:B I@66:B I@66:B I@66:B I@66:B I@66:B I@66:B I@66:B I@66:B I@66:B I@66:B I@66:B I@66:B I@66:B I@66:B I@66:B I@66:B I@66:B I@66:B I@66:B I@66:B I@66:B I@66:B I@66:B I@66:B I@66:B I@66:B I@66:B I@66:B I@66:B I@66:B I@66:B I@66:B I@66:B I@66:B I@66:B I@66:B I@66:B I@66:B I@66:B I@66:B I@66:B I@66:B I@66:B I@66:B I@66:B I@66:B I@66:B I@66:B I@66:B I@66:B I@66:B I@66:B I@66:B I@66:B I@66:B I@66:B I@66:B I@66:B I@66:B I@66:B I@66:B I@66:B I@66:B I@66:B I@66:B I@66:B I@66:B I@66:B I@66:B I@66:B I@66:B I@66:B I@66:B I@66:B I@66:B I@66:B I@66:B I@66:B I@66:B I@66:B I@66:B I@66:B I@66:B I@66:B I@66:B I@66:B I@66:B I@66:B I@66:B I@66:B I@66:B I@66:B I@66:B I@66:B I@66:B I@66:B I@66:B I@66:B I@66:B I@66:B I@66:B I@66:B I@66:B I@66:B I@66:B I@66:B I@66:B I@66:B I@66:B I@66:B I@66:B I@66:B I@66:B I@66:B I@66:B I@66:B I@66:B I@66:B I@66:B I@66:B I@66:B I@66:B I@66:B I@66:B I@66:B I@66:B I@66:B I@66:B I@66:B I@66:B I@66:B I@66:B I@66:B I@66:B I@66:B I@66:B I@66:B I@66:B I@66:B I@66:B I@66:B I@66:B I@66:B I@66:B I@66:B I@66:B I@66:B I@66:B I@66:B I@66:B I@66:B I@66:B I@66:B I@66:B I@66:B I@66:B I@66:B I@66:B I@66:B I@66:B I@66:B I@66:B I@66:B I@66:B I@66:B I@66:B I@66:B I@66:B I@66:B I@66:B I@66:B I@66:B I@66:B I@66:B I@66:B I@66:B I@66:B I@66:B I@66:B I@66:B I@66:B I@66:B I@66:B I@66:B I@66:B I@66:B I@66:B I@66:B I@66:B I@66:B I@66:B I@66:B I@66:B I@66:B I@66:B I@66:B I@66:B I@66:B I@66:B I@66:B I@66:B I@66:B I@66:B I@66:B I@66:B I@66:B I@66:B I@66:B I@66:B I@66:B I@66:B I@66:B I@66:B I@66:B I@66:B R@66:B R@66:B R@66:B R@66:B R@66:B R@66:B R@66:B R@66:B R@66:B R@66:B R@66:B R@66:B R@66:B R@66:B R@66:B R@66:B R@66:B R@66:B R@66:B R@66:B R@66:B R@66:B R@66:B R@66:B R@66:B R@66:B R@66:B R@66:B R@66:B R@66:B R@66:B R@66:B R@66:B R@66:B R@66:B R@66:B R@66:B R@66:B R@66:B R@66:B R@66:B R@66:B R@66:B R@66:B R@66:B R@66:B R@66:B R@66:B R@66:B R@66:B R@66:B R@66:B R@66:B R@66:B R@66:B R@66:B R@66:B R@66:B R@66:B R@66:B R@66:B R@66:B R@66:B R@66:B R@66:B R@66:B R@66:B R@66:B R@66:B R@66:B R@66:B R@66:B R@66:B R@66:B R@66:B R@66:B R@66:B R@66:B R@66:B R@66:B R@66:B R@66:B R@66:B R@66:B R@66:B R@66:B R@66:B R@66:B R@66:B R@66:B R@66:B R@66:B R@66:B R@66:B R@66:B R@66:B R@66:B R@66:B R@66:B R@66:B R@66:B R@66:B R@:B R@:B R@:B R@:B R@:B R@:B R@:B R@:B R@:B R@:B R@:B R@:B R@:B R@:B R@:B R@:B R@:B R@:B R@:B R@:B R@:B R@:B R@:B R@:B R@:B R@:B R@:B R@:B R@:B R@:B R@:B R@:B R@:B R@:B R@:B R@:B R@:B R@:B R@:B R@:B R@:B R@:B R@:B R@:B R@:B R@:B R@:B R@:B R@:B R@:B R@:B R@:B R@:B R@:B R@:B R@:B R@:B R@:B R@:B R@:B R@:B R@:B R@:B R@:B R@:B R@:B R@:B R@:B R@:B R@:B R@:B R@:B R@:B R@:B R@:B R@:B R@:B R@:B R@:B R@:B R@:B R@:B R@:B R@:B R@:B R@:B R@:B R@:B R@:B R@:B R@:B R@:B R@:B R@:B R@:B R@:B R@:B R@:B R@:B R@:B R@:B R@:B R@:B R@:B R@:B R@:B R@:B R@:B R@:B R@:B R@:B R@:B R@:B R@:B R@:B R@:B R@:B R@:B R@:B R@:B R@:B R@:B R@:B R@:B R@:B R@:B R@:B R@:B R@:B R@:B R@:B R@:B R@:B R@:B R@:B R@:B R@:B R@:B R@:B R@:B R@:B R@:B R@:B R@:B R@:B R@:B R@:B R@:B R@:B R@:B R@:B R@:B R@:B R@:B S>;;;B S>;;;B S>;;;B S>;;;B S>;;;B S>;;;B S>;;;B S>;;;B S>;;;B S>;;;B S>;;;B S>;;;B S>;;;B S>;;;B S>;;;B S>;;;B S>;;;B S>;;;B S>;;;B S>;;;B S>;;;B S>;;;B S>;;;B S>;;;B S>;;;B S>;;;B S>;;;B S>;;;B S>;;;B S>;;;B S>;;;B S>;;;B S>;;;B S>;;;B S>;;;B S>;;;B S>;;;B S>;;;B S>;;;B S>;;;B S>;;;B S>;;;B S>;;;B S>;;;B S>;;;B S>;;;B S>;;;B S>;;;B S>;;;B S>;;;B S>;;;B S>;;;B S>;;;B S>;;;B S>;;;B S>;;;B S>;;;B S>;;;B S>;;;B S>;;;B S>;;;B S>;;;B S>;;;B S>;;;B S>;;;B S>;;;B S>;;;B S>;;;B S>;;;B S>;;;B S>;;;B S>;;;B S>;;;B S>;;;B S>;;;B S>;;;B S>;;;B S>;;;B S>;;;B S>;;;B S>;;;B S>;;;B S>;;;B S>;;;B S>;;;B S>;;;B S>;;;B S>;;;B S>;;;B S>;;;B S>;;;B S>;;;B S>;;;B S>;;;B S>;;;B S>;;;B S>;;;B S>;;;B S>;;;B S>;;;B S>;;;B S>;;;B S>;;;B S>;;;B S>;;;B S>;;;B S>;;;B S>;;;B S>;;;B S>;;;B S>;;;B S>;;;B S>;;;B S>;;;B S>;;;B S>;;;B S>;;;B S>;;;B S>;;;B S>;;;B S>;;;B S>;;;B S>;;;B S>;;;B S>;;;B S>;;;B S>;;;B S>;;;B S>;;;B S>;;;B S>;;;B S>;;;B S>;;;B S>;;;B S>;;;B S>;;;B S>;;;B S>;;;B S>;;;B S>;;;B S>;;;B S>;;;B S>;;;B S>;;;B S>;;;B S>;;;B S>;;;B S>;;;B S>;;;B S>;;;B S>;;;B S>;;;B S>;;;B S>;;;B S>;;;B S>;;;B S>;;;B S>;;;B S>;;;B S>;;;B S>;;;B S>;;;B S>;;;B S>;;;B S>;;;B S>;;;B S>;;;B S>;;;B S>;;;B S>;;;B S>;;;B S>;;;B S>;;;B S>;;;B S>;;;B S>;;;B S>;;;B S>;;;B S>;;;B S>;;;B S>;;;B S>;;;B S>;;;B S>;;;B S>;;;B S>;;;B S>;;;B S>;;;B S>;;;B S>;;;B S>;;;B S>;;;B S>;;;B S>;;;B S>;;;B S>;;;B S>;;;B S>;;;B S>;;;B S>;;;B S>;;;B S>;;;B S>;;;B S>;;;B S>;;;B S>;;;B S>;;;B S>;;;B S>;;;B S>;;;B S>;;;B S>;;;B S>;;;B S>;;;B S>;;;B S>;;;B S>;;;B S>;;;B S>;;;B S>;;;B S>;;;B S>;;;B S>;;;B S>;;;B S>;;;B S>;;;B S>;;;B S>;;;B S>;;;B S>;;;B S>;;;B S>;;;B S>;;;B S>;;;B S>;;;B S>;;;B S>;;;B S>;;;B S>;;;B S>;;;B S>;;;B S>;;;B S>;;;B S>;;;B S>;;;B S>;;;B S>;;;B S>;;;B S>;;;B S>;;;B S>;;;B S>;;;B S>;;;B S>;;;B S>;;;B S>;;;B S>;;;B S>;;;B S>;;;B S>;;;B S>;;;B S>;;;B S>;;;B S>;;;B S>;;;B S>;;;B S>;;;B S>;;;B S>;;;B S>;;;B S>;;;B S>;;;B S>;;;B S>;;;B S>;;;B S>;;;B S>;;;B S>;;;B S>;;;B S>;;;B S>;;;B S>;;;B S>;;;B S>;;;B S>;;;B S>;;;B S>;;;B S>;;;B S>;;;B S>;;;B S>;;;B S>;;;B S>;;;B S>;;;B S>;;;B S>;;;B S>;;;B S>;;;B S>;;;B S>;;;B S>;;;B S>;;;B S>;;;B S>;;;B S>;;;B S>;;;B S>;;;B S>;;;B S>;;;B S>;;;B S>;;;B S>;;;B S>;;;B S>;;;B S>;;;B S>;;;B S>;;;B S>;;;B S>;;;B S>;;;B S>;;;B S>;;;B S>;;;B S>;;;B S>;;;B S>;;;B S>;;;B S>;;;B S>;;;B S>;;;B S>;;;B S>;;;B S>;;;B S>;;;B S>;;;B S>;;;B S>;;;B S>;;;B S>;;;B S>;;;B S>;;;B S>;;;B S>;;;B S>;;;B S>;;;B S>;;;B S>;;;B S>;;;B S>;;;B S>;;;B S>;;;B S>;;;B S>;;;B S>;;;B S>;;;B S>;;;B S>;;;B S>;;;B S>;B S>;B S>;B S>;B S>;B S>;B S>;B S>;B S>;B S>;B S>;B S>;B S>;B S>;B S>;B S>;B S>;B S>;B S>;B S>;B S>;B S>;B S>;B S>;B S>;B S>;B S>;B S>;B S>;B S>;B S>;B S>;B S>;B S>;B S>;B S>;B S>;B S>;B S>;B S>;B S>;B S>;B S>;B S>;B S>;B S>;B S>;B S>;B S>;B S>;B S>;B S>;B S>;B S>;B S>;B S>;B S>;B S>;B S>;B S>;B S>;B S>;B S>;B S>;B S>;B S>;B S>;B S>;B S>;B S>;B S>;B S>;B S>;B S>;B S>;B S>;B S>;B S>;B S>;B S>;B S>;B S>;B S>;B S>;B S>;B S>;B S>;B S>;B S>;B S>;B S>;B S>;B S>;B S>;B S>;B S>;B S>;B S>;B S>;B S>;B S>;B S>;B S>;B S>;B S>;B S>;B S>;B S>;B S>;B S>;B S>;B S>;B S>;B S>;B S>;B S>;B S>;B S>;B S>;B S>;B S>;B S>;B S>;B S>;B S>;B S>;B S>;B S>;B S>;B S>;B S>;B S>;B S>;B S>;B S>;B S>;B S>;B S>;B S>;B S>;B S>;B S>;B S>;B S>;B S>;B S>;B S>;B S>;B S>;B S>;B S>;B S>;B S>;B S>;B @66> @66> @66> @66> @66> @66> @66> @66> @66> @66> @66> @66> @66> @66> @66> @66> @66> @66> @66> @66> @66> @66> @66> @66> @66> @66> @66> @66> @66> @66> @66> @66> @66> @66> @66> @66> @66> @66> @66> @66> @66> @66> @66> @66> @66> @66> @66> @66> @66> @66> @66> @66> @66> @66> @66> @66> @66> @66> @66> @66> @66> @66> @66> @66> @66> @66> @66> @66> @66> @66> @66> @66> @66> @66> @66> @66> @66> @66> @66> @66> @66> @66> @66> @66> @66> @66> @66> @66> @66> @66> @66> @66> @66> @66> @66> @66> @66> @66> @66> @66> @66> @66> @66> @66> @66> @66> @66> @66> @66> @66> @66> @66> @66> @66> @66> @66> @66> @66> @66> @66> @66> @66> @66> @66> @66> @66> @66> @66> @66> @66> @66> @66> @66> @66> @66> @66> @66> @66> @66> @66> @66> @66> @66> @66> @66> @66> @66> @66> @66> @66> @66> @66> @66> @66> @66> @66> @66> @66> @66> @66> @66> @66> @66> @66> @66> @66> @66> @66> @66> @66> @66> @66> @66> @66> @66> @66> @66> @66> @66> @66> @66> @66> @66> @66> @66> @66> @66> @66> @66> @66> @66> @66> @66> @66> @66> @66> @66> @66> @66> @66> @66> @66> @66> @66> @66> @66> @66> @66> @66> @66> @66> @66> @66> @66> @66> @66> @66> @66> @66> @66> @66> @66> @66> @66> @66> @66> @66> @66> @66> @66> @66> @66> @66> @66> @66> @66> @66> @66> @66> @66> @66> @66> @66> @66> @66> @66> @66> @66> @66> @66> @66> @66> @66> @66> @66> @66> =66> =66> =66> =66> =66> =66> =66> =66> =66> =66> =66> =66> =66> =66> =66> =66> =66> =66> =66> =66> =66> =66> =66> =66> =66> =66> =66> =66> =66> =66> =66> =66> =66> =66> =66> =66> =66> =66> =66> =66> =66> =66> =66> =66> =66> =66> =66> =66> =66> =66> =66> =66> =66> =66> =66> =66> =66> =66> =66> =66> =66> =66> =66> =66> =66> =66> =66> =66> =66> =66> =66> =66> =66> =66> =66> =66> =66> =66> =66> =66> =66> =66> =66> =66> =66> =66> =66> =66> =66> =66> =66> =66> =66> =66> =66> =66> =66> =66> =66> =66> =66> =66> => => => => => => => => => => => => => => => => => => => => => => => => => => => => => => => => => => => => => => => => => => => => => => => => => => => => => => => => => => => => => => => => => => => => => => => => => => => => => => => => => => => => => => => => => => => => => => => => => => => => => => => => => => => => => => => => => => => => => => => => => => => => => => => => => => => => => => => => => => => => => => => => => => => => => => => => => => >//;> >//;> >//;> >//;> >//;> >//;> >//;> >//;> >//;> >//;> >//;> >//;> >//;> >//;> >//;> >//;> >//;> >//;> >//;> >//;> >//;> >//;> >//;> >//;> >//;> >//;> >//;> >//;> >//;> >//;> >//;> >//;> >//;> >//;> >//;> >//;> >//;> >//;> >//;> >//;> >//;> >//;> >//;> >//;> >//;> >//;> >//;> >//;> >//;> >//;> >//;> >//;> >//;> >//;> >//;> >//;> >//;> >//;> >//;> >//;> >//;> >//;> >//;> >//;> >//;> >//;> >//;> >//;> >//;> >//;> >//;> >//;> >//;> >//;> >//;> >//;> >//;> >//;> >//;> >//;> >//;> >//;> >//;> >//;> >//;> >//;> >//;> >//;> >//;> >//;> >//;> >//;> >//;> >//;> >//;> >//;> >//;> >//;> >//;> >//;> >//;> >//;> >//;> >//;> >//;> >//;> >//;> >//;> >//;> >//;> >//;> >//;> >//;> >//;> >//;> >//;> >//;> >//;> >//;> >//;> >//;> >//;> >//;> >//;> >//;> >//;> >//;> >//;> >//;> >//;> >//;> >//;> >//;> >//;> >//;> >//;> >//;> >//;> >//;> >//;> >//;> >//;> >//;> >//;> >//;> >//;> >//;> >//;> >//;> >//;> >//;> >//;> >//;> >//;> >//;> >//;> >//;> >//;> >//;> >//;> >//;> >//;> >//;> >//;> >//;> >//;> >//;> >//;> >//;> >//;> >//;> >//;> >//;> >//;> >//;> >//;> >//;> >//;> >//;> >//;> >//;> >//;> >//;> >//;> >//;> >//;> >//;> >//;> >//;> >//;> >//;> >//;> >//;> >//;> >//;> >//;> >//;> >//;> >//;> >//;> >//;> >//;> >//;> >//;> >//;> >//;> >//;> >//;> >//;> >//;> >//;> >//;> >//;> >//;> >//;> >//;> >//;> >//;> >//;> >//;> >//;> >//;> >//;> >//;> >//;> >//;> >//;> >//;> >//;> >//;> >//;> >//;> >//;> >//;> >//;> >//;> >//;> >//;> >//;> >//;> >//;> >//;> >//;> >//;> >//;> >//;> >//;> >//;> >//;> >//;> >//;> >//;> >//;> >//;> >//;> >//;> >//;> >//;> >//;> >//;> >//;> >//;> >//;> >//;> >//;> >//;> >//;> >//;> >//;> >//;> >//;> >//;> >//;> >//;> >//;> >//;> >//;> >//;> >//;> >//;> >//;> >//;> >//;> >//;> >//;> >//;> >//;> >//;> >//;> >//;> >//;> >//;> >//;> >//;> >//;> >//;> >//;> >//;> >//;> >//;> >//;> >//;> >//;> >//;> >//;> >//;> >//;> >//;> >//;> >//;> >//;> >//;> >//;> >//;> >//;> >//;> >//;> >//;> >//;> >//;> >//;> >//;> >//;> >//;> >//;> >//;> >//;> >//;> >//;> >//;> >//;> >//;> >//;> >//;> >//;> >//;> >//;> >//;> >//;> >//;> >//;> >//;> >//;> >//;> >//;> >//;> >//;> >//;> >//;> >//;> >//;> >//;> >//;> >//;> >//;> >//;> >//;> >//;> >;> >;> >;> >;> >;> >;> >;> >;> >;> >;> >;> >;> >;> >;> >;> >;> >;> >;> >;> >;> >;> >;> >;> >;> >;> >;> >;> >;> >;> >;> >;> >;> >;> >;> >;> >;> >;> >;> >;> >;> >;> >;> >;> >;> >;> >;> >;> >;> >;> >;> >;> >;> >;> >;> >;> >;> >;> >;> >;> >;> >;> >;> >;> >;> >;> >;> >;> >;> >;> >;> >;> >;> >;> >;> >;> >;> >;> >;> >;> >;> >;> >;> >;> >;> >;> >;> >;> >;> >;> >;> >;> >;> >;> >;> >;> >;> >;> >;> >;> >;> >;> >;> >;> >;> >;> >;> >;> >;> >;> >;> >;> >;> >;> >;> >;> >;> >;> >;> >;> >;> >;> >;> >;> >;> >;> >;> >;> >;> >;> >;> >;> >;> >;> >;> >;> >;> >;> >;> >;> >;> >;> >;> >;> >;> >;> >;> >;> >;> >;> >;> >;> >;> >;> >;> >11= >11= >11= >11= >11= >11= >11= >11= >11= >11= >11= >11= >11= >11= >11= >11= >11= >11= >11= >11= >11= >11= >11= >11= >11= >11= >11= >11= >11= >11= >11= >11= >11= >11= >11= >11= >11= >11= >11= >11= >11= >11= >11= >11= >11= >11= >11= >11= >11= >11= >11= >11= >11= >11= >11= >11= >11= >11= >11= >11= >11= >11= >11= >11= >11= >11= >11= >11= >11= >11= >11= >11= >11= >11= >11= >11= >11= >11= >11= >11= >11= >11= >11= >11= >11= >11= >11= >11= >11= >11= >11= >11= >11= >11= >11= >11= >11= >11= >11= >11= >11= >11= >11= >11= >11= >11= >11= >11= >11= >11= >11= >11= >11= >11= >11= >11= >11= >11= >11= >11= >11= >11= >11= >11= >11= >11= >11= >11= >11= >11= >11= >11= >11= >11= >11= >11= >11= >11= >11= >11= >11= >11= >11= >11= >11= >11= >11= >11= >11= >11= >11= >11= >11= >11= >11= >11= >11= >11= >11= >11= >11= >11= >11= >11= >11= >11= >11= >11= >11= >11= >11= >11= >11= >11= >11= >11= >11= >11= >11= >11= >11= >11= >11= >11= >11= >11= >11= >11= >11= >11= >11= >11= >11= >11= >11= >11= >11= >11= >11= >11= >11= >11= >11= >11= >11= >11= >11= >11= >11= >11= >11= >11= >11= >11= >11= >11= >11= >11= >11= >11= >11= >11= >11= >11= >11= >11= >11= >11= >11= >11= >11= >11= >11= >11= >11= >11= >11= >11= >11= >11= >11= >11= >11= >11= >11= >11= >11= >11= >11= >11= >11= >11= >11= >11= >11= >11= @11= @11= @11= @11= @11= @11= @11= @11= @11= @11= @11= @11= @11= @11= @11= @11= @11= @11= @11= @11= @11= @11= @11= @11= @11= @11= @11= @11= @11= @11= @11= @11= @11= @11= @11= @11= @11= @11= @11= @11= @11= @11= @11= @11= @11= @11= @11= @11= @11= @11= @11= @11= @11= @11= @11= @11= @11= @11= @11= @11= @11= @11= @11= @11= @11= @11= @11= @11= @11= @11= @11= @11= @11= @11= @11= @11= @11= @11= @11= @11= @11= @11= @11= @11= @11= @11= @11= @11= @11= @11= @11= @11= @11= @11= @11= @11= @11= @11= @11= @11= @11= @11= @= @= @= @= @= @= @= @= @= @= @= @= @= @= @= @= @= @= @= @= @= @= @= @= @= @= B= B= B= B= B= B= B= B= B= B= B= B= B= B= B= B= B= B= B= B= B= B= B= B= B= B= B= B= B= B= B= B= B= B= B= B= B= B= B= B= B= B= B= B= B= B= B= B= B= B= B= B= B= B= B= B= B= B= B= B= B= B= B= B= B= B= B= B= B= B= B= B= B= B= B= B= B= B= B= B= B= B= B= B= B= B= B= B= B= B= B= B= B= B= B= B= B= B= B= B= B= B= B= B= B= B= B= B= B= B= B= B= B= B= B= B= B= B= B= B= B= B= B= B= B= B= B= B= ;22;>B ;22;>B ;22;>B ;22;>B ;22;>B ;22;>B ;22;>B ;22;>B ;22;>B ;22;>B ;22;>B ;22;>B ;22;>B ;22;>B ;22;>B ;22;>B ;22;>B ;22;>B ;22;>B ;22;>B ;22;>B ;22;>B ;22;>B ;22;>B ;22;>B ;22;>B ;22;>B ;22;>B ;22;>B ;22;>B ;22;>B ;22;>B ;22;>B ;22;>B ;22;>B ;22;>B ;22;>B ;22;>B ;22;>B ;22;>B ;22;>B ;22;>B ;22;>B ;22;>B ;22;>B ;22;>B ;22;>B ;22;>B ;22;>B ;22;>B ;22;>B ;22;>B ;22;>B ;22;>B ;22;>B ;22;>B ;22;>B ;22;>B ;22;>B ;22;>B ;22;>B ;22;>B ;22;>B ;22;>B ;22;>B ;22;>B ;22;>B ;22;>B ;22;>B ;22;>B ;22;>B ;22;>B ;22;>B ;22;>B ;22;>B ;22;>B ;22;>B ;22;>B ;22;>B ;22;>B ;22;>B ;22;>B ;22;>B ;22;>B ;22;>B ;22;>B ;22;>B ;22;>B ;22;>B ;22;>B ;22;>B ;22;>B ;22;>B ;22;>B ;22;>B ;22;>B ;22;>B ;22;>B ;22;>B ;22;>B ;22;>B ;22;>B ;22;>B ;22;>B ;22;>B ;22;>B ;22;>B ;22;>B ;22;>B ;22;>B ;22;>B ;22;>B ;22;>B ;22;>B ;22;>B ;22;>B ;22;>B ;22;>B ;22;>B ;22;>B ;22;>B ;22;>B ;22;>B ;22;>B ;22;>B ;22;>B ;22;>B ;22;>B ;22;>B ;22;>B ;22;>B ;22;>B ;22;>B ;22;>B ;22;>B ;22;>B ;22;>B ;22;>B ;22;>B ;22;>B ;22;>B ;22;>B ;22;>B ;22;>B ;22;>B ;22;>B ;22;>B ;22;>B ;22;>B ;22;>B ;22;>B ;22;>B ;22;>B ;22;>B ;22;>B ;22;>B ;22;>B ;22;>B ;22;>B ;22;>B ;22;>B ;22;>B ;22;>B ;22;>B ;22;>B ;22;>B ;22;>B ;22;>B ;22;>B ;22;>B ;22;>B ;22;>B ;22;>B ;22;>B ;22;>B ;22;>B ;22;>B ;22;>B ;22;>B ;22;>B ;22;>B ;22;>B ;22;>B ;22;>B ;22;>B ;22;>B ;22;>B ;22;>B ;22;>B ;22;>B ;22;>B ;22;>B ;22;>B ;22;>B ;22;>B ;22;>B ;22;>B ;22;>B ;22;>B ;22;>B ;22;>B ;22;>B ;22;>B ;22;>B ;22;>B ;22;>B ;22;>B ;22;>B ;22;>B ;22;>B ;22;>B ;22;>B ;22;>B ;22;>B ;22;>B ;22;>B ;22;>B ;22;>B ;22;>B ;22;>B ;22;>B ;22;>B ;22;>B ;22;>B ;22;>B ;22;>B ;22;>B ;22;>B ;22;>B ;22;>B ;22;>B ;22;>B ;22;>B ;22;>B ;22;>B ;22;>B ;22;>B ;22;>B ;22;>B ;22;>B ;22;>B ;22;>B ;22;>B ;22;>B ;22;>B ;22;>B ;22;>B ;22;>B ;22;>B ;22;>B ;22;>B ;22;>B ;22;>B ;22;>B ;22;>B ;22;>B ;22;>B ;22;>B ;22;>B ;22;>B ;22;>B ;22;>B ;22;>B ;22;>B ;22;>B ;22;>B ;22;>B ;22;>B ;22;>B ;22;>B ;22;>B ;22;>B ;22;>B ;22;>B ;22;>B ;22;>B ;22;>B ;22;>B ;22;>B ;22;>B ;22;>B ;22;>B ;22;>B ;22;>B ;22;>B ;22;>B ;22;>B ;22;>B ;22;>B ;22;>B ;22;>B ;22;>B ;22;>B ;22;>B ;22;>B ;22;>B ;22;>B ;22;>B ;22;>B ;22;>B ;22;>B ;22;>B ;22;>B ;22;>B ;22;>B ;22;>B ;22;>B ;22;>B ;22;>B ;22;>B ;22;>B ;22;>B ;22;>B ;22;>B ;22;>B ;22;>B ;22;>B ;22;>B ;22;>B ;22;>B ;22;>B ;22;>B ;22;>B ;22;>B ;22;>B ;22;>B ;22;>B ;22;>B ;22;>B ;22;>B ;22;>B ;22;>B ;22;>B ;22;>B ;22;>B ;22;>B ;22;>B ;22;>B ;22;>B ;22;>B ;22;>B ;22;>B ;22;>B ;22;>B ;22;>B ;22;>B ;22;>B ;22;>B ;22;>B ;22;>B ;22;>B ;22;>B ;22;>B ;22;>B ;22;>B ;22;>B ;22;>B ;22;>B ;;>B ;;>B ;;>B ;;>B ;;>B ;;>B ;;>B ;;>B ;;>B ;;>B ;;>B ;;>B ;;>B ;;>B ;;>B ;;>B ;;>B ;;>B ;;>B ;;>B ;;>B ;;>B ;;>B ;;>B ;;>B ;;>B ;;>B ;;>B ;;>B ;;>B ;;>B ;;>B ;;>B ;;>B ;;>B ;;>B ;;>B ;;>B ;;>B ;;>B ;;>B ;;>B ;;>B ;;>B ;;>B ;;>B ;;>B ;;>B ;;>B ;;>B ;;>B ;;>B ;;>B ;;>B ;;>B ;;>B ;;>B ;;>B ;;>B ;;>B ;;>B ;;>B ;;>B ;;>B ;;>B ;;>B ;;>B ;;>B ;;>B ;;>B ;;>B ;;>B ;;>B ;;>B ;;>B ;;>B ;;>B ;;>B ;;>B ;;>B ;;>B ;;>B ;;>B ;;>B ;;>B ;;>B ;;>B ;;>B ;;>B ;;>B ;;>B ;;>B ;;>B ;;>B ;;>B ;;>B ;;>B ;;>B ;;>B ;;>B ;;>B ;;>B ;;>B ;>B ;>B ;>B ;>B ;>B ;>B ;>B ;>B ;>B ;>B ;>B ;>B ;>B ;>B ;>B ;>B ;>B ;>B ;>B ;>B ;>B ;>B ;>B ;>B ;>B ;>B ;>B ;>B ;>B ;>B ;>B ;>B ;>B ;>B ;>B ;>B ;>B ;>B ;>B ;>B ;>B ;>B ;>B ;>B ;>B ;>B ;>B ;>B ;>B ;>B ;>B >/>B/ >/>B/ >/>B/ >/>B/ >/>B/ >/>B/ >/>B/ >/>B/ >/>B/ >/>B/ >/>B/ >/>B/ >/>B/ >/>B/ >/>B/ >/>B/ >/>B/ >/>B/ >/>B/ >/>B/ >/>B/ >/>B/ >/>B/ >/>B/ >/>B/ >/>B/ >/>B/ >/>B/ >/>B/ >/>B/ >/>B/ >/>B/ >/>B/ >/>B/ >/>B/ >/>B/ >/>B/ >/>B/ >/>B/ >/>B/ >/>B/ >/>B/ >/>B/ >/>B/ >/>B/ >/>B/ >/>B/ >/>B/ >/>B/ >/>B/ >/>B/ >/>B/ >/>B/ >/>B/ >/>B/ >/>B/ >/>B/ >/>B/ >/>B/ >/>B/ >/>B/ >/>B/ >/>B/ >/>B/ >/>B/ >/>B/ >/>B/ >/>B/ >/>B/ >/>B/ >/>B/ >/>B/ >/>B/ >/>B/ >/>B/ >/>B/ >/>B/ >/>B/ >/>B/ >/>B/ >/>B/ >/>B/ >/>B/ >/>B/ >/>B/ >/>B/ >/>B/ >/>B/ >/>B/ >/>B/ >/>B/ >/>B/ >/>B/ >/>B/ >/>B/ >/>B/ >/>B/ >/>B/ >/>B/ >/>B/ >/>B/ >/>B/ >/>B/ >/>B/ >/>B/ >/>B/ >/>B/ >/>B/ >/>B/ >/>B/ >/>B/ >/>B/ >/>B/ >/>B/ >/>B/ >/>B/ >/>B/ >/>B/ >/>B/ >/>B/ >/>B/ >/>B/ >/>B/ >/>B/ >/>B/ >/>B/ >/>B/ >/>B/ >/>B/ >/>B/ >/>B/ >/>B/ >/>B/ >/>B/ >/>B/ >/>B/ >/>B/ >/>B/ >/>B/ >/>B/ >/>B/ >/>B/ >/>B/ >/>B/ >/>B/ >/>B/ >/>B/ >/>B/ >/>B/ >/>B/ >/>B/ >/>B/ >/>B/ >/>B/ >/>B/ >/>B/ >/>B/ >/>B/ >/>B/ >/>B/ >/>B/ >/>B/ >/>B/ >/>B/ >/>B/ >/>B/ >/>B/ >/>B/ >/>B/ >/>B/ >/>B/ >/>B/ >/>B/ >/>B/ >/>B/ >/>B/ >/>B/ >/>B/ >/>B/ >/>B/ >/>B/ >/>B/ >/>B/ >/>B/ >/>B/ >/>B/ >/>B/ >/>B/ >/>B/ >/>B/ >/>B/ >/>B/ >/>B/ >/>B/ >/>B/ >/>B/ >/>B/ >/>B/ >/>B/ >/>B/ >/>B/ >/>B/ >/>B/ >/>B/ >/>B/ >/>B/ >/>B/ >/>B/ >/>B/ >/>B/ >/>B/ >/>B/ >/>B/ >/>B/ >/>B/ >/>B/ >/>B/ >/>B/ >/>B/ >/>B/ >/>B/ >/>B/ >/>B/ >/>B/ >/>B/ >/>B/ >/>B/ >/>B/ >/>B/ >/>B/ >/>B/ >/>B/ >/>B/ >/>B/ >/>B/ >/>B/ >/>B/ >/>B/ >/>B/ >/>B/ >/>B/ >/>B/ >/>B/ >/>B/ >/>B/ >/>B/ >/>B/ >/>B/ >/>B/ >/>B/ >/>B/ >/>B/ >/>B/ >/>B/ >/>B/ >/>B/ >/>B/ >/>B/ >/>B/ >/>B/ >/>B/ >/>B/ >/>B/ >/>B/ >/>B/ >/>B/ >/>B/ >/>B/ >/>B/ >/>B/ >/>B/ >/>B/ >/>B/ >/>B/ >/>B/ >/>B/ >/>B/ >/>B/ >/>B/ >/>B/ >/>B/ >/>B/ >/>B/ >/>B/ >/>B/ >/>B/ >/>B/ >/>B/ >/>B/ >/>B/ >/>B/ >/>B/ >/>B/ >/>B/ >/>B/ >/>B/ >/>B/ >/>B/ >/>B/ >/>B/ >/>B/ >/>B/ >/>B/ >/>B/ >/>B/ >/>B/ >/>B/ >/>B/ >/>B/ >/>B/ >/>B/ >/>B/ >/>B/ >/>B/ >/>B/ >/>B/ >/>B/ >/>B/ >/>B/ >/>B/ >/>B/ >/>B/ >/>B/ >/>B/ >/>B/ >/>B/ >/>B/ >/>B/ >/>B/ >/>B/ >/>B/ >/>B/ >/>B/ >/>B/ >/>B/ >/>B/ >/>B/ >/>B/ >/>B/ >/>B/ >/>B/ >/>B/ >/>B/ >/>B/ >/>B/ >/>B/ >/>B/ >/>B/ >/>B/ >/>B/ >/>B/ >/>B/ >/>B/ >/>B/ >/>B/ >/>B/ >/>B/ >/>B/ >/>B/ >/>B/ >/>B/ >/>B/ >/>B/ >/>B/ >/>B/ >/>B/ >/>B/ >/>B/ >/>B/ >/>B/ >/>B/ >/>B/ >/>B/ >/>B/ >/>B/ >/>B/ >/>B/ >/>B/ >/>B/ >/>B/ >/>B/ >/>B/ >/>B/ >/>B/ >/>B/ >/>B/ >/>B/ >/>B/ >/>B/ >/>B/ >/>B/ >/>B/ >/>B/ >/>B/ >/>B/ >/>B/ >/>B/ >/>B/ >/>B/ >/>B/ >/>B/ >/>B/ >/>B/ >/>B/ >/>B/ >/>B/ >/>B/ >/>B/ >/>B/ >/>B/ >/>B/ >/>B/ >/>B/ >/>B/ >/>B/ >/>B/ >/>B/ >/>B/ >/>B/ >/>B/ >/>B/ >/>B/ >/>B/ >/>B/ >/>B/ >/>B/ >/>B/ >/>B/ >/>B/ >/>B/ >/>B/ >/>B/ >/>B/ >/>B/ >/>B/ >/>B/ >/>B/ >/>B/ >/>B/ >/>B/ >/>B/ >/>B/ >/>B/ >/>B/ >/>B/ >/>B/ >/>B/ >/>B/ >/>B/ >/>B/ >/>B/ >/>B/ >/>B/ >/>B/ >/>B/ >/>B/ >/>B/ >/>B/ >/>B/ >/>B/ >/>B/ >/>B/ >/>B/ >/>B/ >/>B/ >/>B/ >/>B/ >/>B/ >/>B/ >/>B/ >/>B/ >/>B/ >/>B/ >/>B/ >/>B/ >/>B/ >/>B/ >/>B/ >/>B/ >/>B/ >/>B/ >/>B/ >/>B/ >/>B/ >/>B/ >/>B/ >/>B/ >/>B/ >/>B/ >/>B/ >/>B/ >/>B/ >/>B/ >/>B/ >/>B/ >/>B/ >/>B/ >/>B/ >/>B/ >/>B/ >/>B/ >/>B/ >/>B/ >/>B/ >/>B/ >/>B/ >/>B/ >/>B/ >/>B/ >/>B/ >/>B/ >/>B/ =/>B/ =/>B/ =/>B/ =/>B/ =/>B/ =/>B/ =/>B/ =/>B/ =/>B/ =/>B/ =/>B/ =/>B/ =/>B/ =/>B/ =/>B/ =/>B/ =/>B/ =/>B/ =/>B/ =/>B/ =/>B/ =/>B/ =/>B/ =/>B/ =/>B/ =/>B/ =/>B/ =/>B/ =/>B/ =/>B/ =/>B/ =/>B/ =/>B/ =/>B/ =/>B/ =/>B/ =/>B/ =/>B/ =/>B/ =/>B/ =/>B/ =/>B/ =/>B/ =/>B/ =/>B/ =/>B/ =/>B/ =/>B/ =/>B/ =/>B/ =/>B/ =/>B/ =/>B/ =/>B/ =/>B/ =/>B/ =/>B/ =/>B/ =/>B/ =/>B/ =/>B/ =/>B/ =/>B/ =/>B/ =/>B/ =/>B/ =/>B/ =/>B/ =/>B/ =/>B/ =/>B/ =/>B/ =/>B/ =/>B/ =/>B/ =/>B/ =/>B/ =/>B/ =/>B/ =/>B/ =/>B/ =/>B/ =/>B/ =/>B/ =/>B/ =/>B/ =/>B/ =/>B/ =/>B/ =/>B/ =/>B/ =/>B/ =/>B/ =/>B/ =/>B/ =/>B/ =/>B/ =/>B/ =/>B/ =/>B/ =/>B/ =/>B/ =/>B/ =/>B/ =/>B/ =/>B/ =/>B/ =/>B/ =/>B/ =/>B/ =/>B/ =/>B/ =/>B/ =/>B/ =/>B/ =/>B/ =/>B/ =/>B/ =/>B/ =/>B/ =/>B/ =/>B/ =/>B/ =/>B/ =/>B/ =/>B/ =/>B/ =/>B/ =/>B/ =/>B/ =/>B/ =/>B/ =/>B/ =/>B/ =/>B/ =/>B/ =/>B/ =/>B/ =/>B/ =/>B/ =/>B/ =/>B/ =/>B/ =/>B/ =/>B/ =/>B/ =/>B/ =/>B/ =/>B/ =/>B/ =/>B/ =/>B/ =/>B/ =/>B/ =/>B/ =/>B/ =/>B/ =/>B/ =/>B/ =/>B/ =/>B/ =/>B/ =/>B/ =/>B/ =/>B/ =/>B/ =/>B/ =/>B/ =/>B/ =/>B/ =/>B/ =/>B/ =/>B/ =/>B/ =/>B/ =/>B/ =/>B/ =/>B/ =/>B/ =/>B/ =/>B/ =/>B/ =/>B/ =/>B/ =/>B/ =/>B/ =/>B/ =/>B/ =/>B/ =/>B/ =/>B/ =/>B/ =/>B/ =/>B/ =/>B/ =/>B/ =/>B/ =/>B/ =/>B/ =/>B/ =/>B/ =/>B/ =/>B/ =/>B/ =/>B/ =/>B/ =/>B/ =/>B/ =/>B/ =/>B/ =/>B/ =/>B/ =/>B/ =/>B/ =/>B/ =/>B/ =/>B/ =/>B/ =/>B/ =/>B/ =/>B/ =/>B/ =/>B/ =/>B/ =/>B/ =/>B/ =/>B/ =/>B/ =/>B/ =/>B/ =/>B/ =/>B/ =/>B/ =/>B/ =/>B/ =/>B/ =/>B/ =/>B/ =/>B/ =/>B/ =/>B/ =/>B/ =/>B/ =/>B/ =/>B/ =/>B/ =/>B/ =/>B/ =/>B/ =/>B/ =/>B/ =/>B/ =/>B/ =/>B/ =/>B/ =/>B/ B2BG2 B2BG2 B2BG2 B2BG2 B2BG2 B2BG2 B2BG2 B2BG2 B2BG2 B2BG2 B2BG2 B2BG2 B2BG2 B2BG2 B2BG2 B2BG2 B2BG2 B2BG2 B2BG2 B2BG2 B2BG2 B2BG2 B2BG2 B2BG2 B2BG2 B2BG2 B2BG2 B2BG2 B2BG2 B2BG2 B2BG2 B2BG2 B2BG2 B2BG2 B2BG2 B2BG2 B2BG2 B2BG2 B2BG2 B2BG2 B2BG2 B2BG2 B2BG2 B2BG2 B2BG2 B2BG2 B2BG2 B2BG2 B2BG2 B2BG2 B2BG2 B2BG2 B2BG2 B2BG2 B2BG2 B2BG2 B2BG2 B2BG2 B2BG2 B2BG2 B2BG2 B2BG2 B2BG2 B2BG2 B2BG2 B2BG2 B2BG2 B2BG2 B2BG2 B2BG2 B2BG2 B2BG2 B2BG2 B2BG2 B2BG2 B2BG2 B2BG2 B2BG2 B2BG2 B2BG2 B2BG2 B2BG2 B2BG2 B2BG2 B2BG2 B2BG2 B2BG2 B2BG2 B2BG2 B2BG2 B2BG2 B2BG2 B2BG2 B2BG2 B2BG2 B2BG2 B2BG2 B2BG2 B2BG2 B2BG2 B2BG2 B2BG2 B2BG2 B2BG2 B2BG2 B2BG2 B2BG2 B2BG2 B2BG2 B2BG2 B2BG2 B2BG2 B2BG2 B2BG2 B2BG2 B2BG2 B2BG2 B2BG2 B2BG2 B2BG2 B2BG2 B2BG2 B2BG2 B2BG2 B2BG2 B2BG2 B2BG2 B2BG2 B2BG2 B2BG2 B2BG2 B2BG2 B2BG2 B2BG2 B2BG2 B2BG2 B2BG2 B2BG2 B2BG2 B2BG2 B2BG2 B2BG2 B2BG2 B2BG2 B2BG2 B2BG2 B2BG2 B2BG2 B2BG2 B2BG2 B2BG2 B2BG2 B2BG2 B2BG2 B2BG2 B2BG2 B2BG2 B2BG2 B2BG2 B2BG2 B2BG2 B2BG2 B2BG2 B2BG2 B2BG2 B2BG2 B2BG2 B2BG2 B2BG2 B2BG2 B2BG2 B2BG2 B2BG2 B2BG2 B2BG2 B2BG2 B2BG2 B2BG2 B2BG2 B2BG2 B2BG2 B2BG2 B2BG2 B2BG2 B2BG2 B2BG2 B2BG2 B2BG2 B2BG2 B2BG2 B2BG2 B2BG2 B2BG2 B2BG2 B2BG2 B2BG2 B2BG2 B2BG2 B2BG2 B2BG2 B2BG2 B2BG2 B2BG2 B2BG2 B2BG2 B2BG2 B2BG2 B2BG2 B2BG2 B2BG2 B2BG2 B2BG2 B2BG2 B2BG2 B2BG2 B2BG2 B2BG2 B2BG2 B2BG2 B2BG2 B2BG2 B2BG2 B2BG2 B2BG2 B2BG2 B2BG2 B2BG2 B2BG2 B2BG2 B2BG2 B2BG2 B2BG2 B2BG2 B2BG2 B2BG2 B2BG2 B2BG2 B2BG2 B2BG2 B2BG2 B2BG2 B2BG2 B2BG2 B2BG2 B2BG2 B2BG2 B2BG2 B2BG2 B2BG2 B2BG2 B2BG2 B2BG2 B2BG2 B2BG2 B2BG2 B2BG2 A1E1= A1E1= A1E1= A1E1= A1E1= A1E1= A1E1= A1E1= A1E1= A1E1= A1E1= A1E1= A1E1= A1E1= A1E1= A1E1= A1E1= A1E1= A1E1= A1E1= A1E1= A1E1= A1E1= A1E1= A1E1= A1E1= A1E1= A1E1= A1E1= A1E1= A1E1= A1E1= A1E1= A1E1= A1E1= A1E1= A1E1= A1E1= A1E1= A1E1= A1E1= A1E1= A1E1= A1E1= A1E1= A1E1= A1E1= A1E1= A1E1= A1E1= A1E1= A1E1= A1E1= A1E1= A1E1= A1E1= A1E1= A1E1= A1E1= A1E1= A1E1= A1E1= A1E1= A1E1= A1E1= A1E1= A1E1= A1E1= A1E1= A1E1= A1E1= A1E1= A1E1= A1E1= A1E1= A1E1= A1E1= A1E1= A1E1= A1E1= A1E1= A1E1= A1E1= A1E1= A1E1= A1E1= A1E1= A1E1= A1E1= A1E1= A1E1= A1E1= A1E1= A1E1= A1E1= A1E1= A1E1= A1E1= A1E1= A1E1= A1E1= A1E1= A1E1= A1E1= A1E1= A1E1= A1E1= A1E1= A1E1= A1E1= A1E1= A1E1= A1E1= A1E1= A1E1= A1E1= A1E1= A1E1= A1E1= A1E1= A1E1= A1E1= A1E1= A1E1= A1E1= A1E1= A1E1= A1E1= A1E1= A1E1= A1E1= A1E1= A1E1= A1E1= A1E1= A1E1= A1E1= A1E1= A1E1= A1E1= A1E1= A1E1= A1E1= A1E1= A1E1= A1E1= A1E1= A1E1= A1E1= A1E1= A1E1= A1E1= A1E1= A1E1= A1E1= A1E1= A1E1= A1E1= A1E1= A1E1= A1E1= A1E1= A1E1= A1E1= A1E1= A1E1= A1E1= A1E1= A1E1= A1E1= A1E1= A1E1= A1E1= A1E1= A1E1= A1E1= A1E1= A1E1= A1E1= A1E1= A1E1= A1E1= A1E1= A1E1= A1E1= A1E1= A1E1= A1E1= A1E1= A1E1= A1E1= A1E1= A1E1= A1E1= A1E1= A1E1= A1E1= A1E1= A1E1= A1E1= A1E1= A1E1= A1E1= A1E1= A1E1= A1E1= A1E1= A1E1= A1E1= A1E1= A1E1= A1E1= A1E1= A1E1= A1E1= A1E1= A1E1= A1E1= A1E1= A1E1= A1E1= A1E1= A1E1= A1E1= A1E1= A1E1= A1E1= A1E1= A1E1= A1E1= A1E1= A1E1= A1E1= A1E1= A1E1= A1E1= A1E1= A1E1= A1E1= A1E1= A1E1= A1E1= A1E1= A1E1= A1E1= A1E1= A1E1= A1E1= A1E1= A1E1= A1E1= A1E1= A1E1= A1E1= A1E1= A1E1= A/C/= A/C/= A/C/= A/C/= A/C/= A/C/= A/C/= A/C/= A/C/= A/C/= A/C/= A/C/= A/C/= A/C/= A/C/= A/C/= A/C/= A/C/= A/C/= A/C/= A/C/= A/C/= A/C/= A/C/= A/C/= A/C/= A/C/= A/C/= A/C/= A/C/= A/C/= A/C/= A/C/= A/C/= A/C/= A/C/= A/C/= A/C/= A/C/= A/C/= A/C/= A/C/= A/C/= A/C/= A/C/= A/C/= A/C/= A/C/= A/C/= A/C/= A/C/= A/C/= A/C/= A/C/= A/C/= A/C/= A/C/= A/C/= A/C/= A/C/= A/C/= A/C/= A/C/= A/C/= A/C/= A/C/= A/C/= A/C/= A/C/= A/C/= A/C/= A/C/= A/C/= A/C/= A/C/= A/C/= A/C/= A/C/= A/C/= A/C/= A/C/= A/C/= A/C/= A/C/= A/C/= A/C/= A/C/= A/C/= A/C/= A/C/= A/C/= A/C/= A/C/= A/C/= A/C/= A/C/= A/C/= A/C/= A/C/= A/C/= A/C/= A/C/= A/C/= A/C/= A/C/= A/C/= A/C/= A/C/= A/C/= A/C/= A/C/= A/C/= A/C/= A/C/= A/C/= A/C/= A/C/= A/C/= A/C/= A/C/= A/C/= A/C/= A/C/= A/C/= A/C/= A/C/= A/C/= A/C/= A/C/= A/C/= A/C/= A/C/= A/C/= A/C/= A/C/= A/C/= A/C/= A/C/= A/C/= A/C/= A/C/= A/C/= A/C/= A/C/= A/C/= A/C/= A/C/= A/C/= A/C/= A/C/= A/C/= A/C/= A/C/= A/C/= A/C/= A/C/= A/C/= A/C/= A/C/= A/C/= A/C/= A/C/= A/C/= A/C/= A/C/= A/C/= A/C/= A/C/= A/C/= A/C/= A/C/= A/C/= A/C/= A/C/= A/C/= A/C/= A/C/= A/C/= A/C/= A/C/= A/C/= A/C/= A/C/= A/C/= A/C/= A/C/= A/C/= A/C/= A/C/= A/C/= A/C/= A/C/= A/C/= A/C/= A/C/= A/C/= A/C/= A/C/= A/C/= A/C/= A/C/= A/C/= A/C/= A/C/= A/C/= A/C/= A/C/= A/C/= A/C/= A/C/= A/C/= A/C/= A/C/= A/C/= A/C/= A/C/= A/C/= A/C/= A/C/= A/C/= A/C/= A/C/= A/C/= A/C/= A/C/= A/C/= A/C/= A/C/= A/C/= A/C/= A/C/= A/C/= A/C/= A/C/= A/C/= A/C/= A/C/= A/C/= A/C/= A/C/= A/C/= A/C/= A/C/= A/C/= A/C/= A/C/= A/C/= A/C/= A/C/= A/C/= A/C/= A/C/= A/C/= A/C/= A/C/= A/C/= ..=B ..=B ..=B ..=B ..=B ..=B ..=B ..=B ..=B ..=B ..=B ..=B ..=B ..=B ..=B ..=B ..=B ..=B ..=B ..=B ..=B ..=B ..=B ..=B ..=B ..=B ..=B ..=B ..=B ..=B ..=B ..=B ..=B ..=B ..=B ..=B ..=B ..=B ..=B ..=B ..=B ..=B ..=B ..=B ..=B ..=B ..=B ..=B ..=B ..=B ..=B ..=B ..=B ..=B ..=B ..=B ..=B ..=B ..=B ..=B ..=B ..=B ..=B ..=B ..=B ..=B ..=B ..=B ..=B ..=B ..=B ..=B ..=B ..=B ..=B ..=B ..=B ..=B ..=B ..=B ..=B ..=B ..=B ..=B ..=B ..=B ..=B ..=B ..=B ..=B ..=B ..=B ..=B ..=B ..=B ..=B ..=B ..=B ..=B ..=B ..=B ..=B ..=B ..=B ..=B ..=B ..=B ..=B ..=B ..=B ..=B ..=B ..=B ..=B ..=B ..=B ..=B ..=B ..=B ..=B ..=B ..=B ..=B ..=B ..=B ..=B ..=B ..=B ..=B ..=B ..=B ..=B ..=B ..=B ..=B ..=B ..=B ..=B ..=B ..=B ..=B ..=B ..=B ..=B ..=B ..=B ..=B ..=B ..=B ..=B ..=B ..=B ..=B ..=B ..=B ..=B ..=B ..=B ..=B ..=B ..=B ..=B ..=B ..=B ..=B ..=B ..=B ..=B ..=B ..=B ..=B ..=B ..=B ..=B ..=B ..=B ..=B ..=B ..=B ..=B ..=B ..=B ..=B ..=B ..=B ..=B ..=B ..=B ..=B ..=B ..=B ..=B ..=B ..=B ..=B ..=B ..=B ..=B ..=B ..=B ..=B ..=B ..=B ..=B ..=B ..=B ..=B ..=B ..=B ..=B ..=B ..=B ..=B ..=B ..=B ..=B ..=B ..=B ..=B ..=B ..=B ..=B ..=B ..=B ..=B ..=B ..=B ..=B ..=B ..=B ..=B ..=B ..=B ..=B ..=B ..=B ..=B ..=B ..=B ..=B ..=B ..=B ..=B ..=B ..=B ..=B ..=B ..=B ..=B ..=B ..=B ..=B ..=B ..=B ..=B ..=B ..=B ..=B ..=B ..=B ..=B ..=B ..=B ..=B ..=B ..=B ..=B ..=B ..=B ..=B ..=B ..=B ..=B ..=B ..=B ..=B ..=B ..=B ..=B ..=B ..=B ..=B ..=B ..=B ..=B ..=B ..=B ..=B ..=B ..=B ..=B ..=B ..=B ..=B ..=B ..=B ..=B ..=B ..=B ..=B ..=B ..=B ..=B ..=B ..=B ..=B ..=B ..=B ..=B ..=B ..=B ..=B ..=B ..=B ..=B ..=B ..=B ..=B ..=B ..=B ..=B ..=B ..=B ..=B ..=B ..=B ..=B ..=B ..=B ..=B ..=B ..=B ..=B ..=B ..=B ..=B ..=B ..=B ..=B ..=B ..=B ..=B ..=B ..=B ..=B ..=B ..=B ..=B ..=B ..=B ..=B ..=B ..=B ..=B ..=B ..=B ..=B ..=B ..=B ..=B ..=B ..=B ..=B ..=B ..=B ..=B ..=B ..=B ..=B ..=B ..=B ..=B ..=B ..=B ..=B ..=B ..=B ..=B ..=B ..=B ..=B ..=B ..=B ..=B ..=B ..=B ..=B ..=B ..=B ..=B ..=B ..=B ..=B ..=B ..=B ..=B ..=B ..=B ..=B ..=B ..=B ..=B ..=B ..=B ..=B ..=B ..=B ..=B ..=B ..=B ..=B ..=B ..=B ..=B ..=B ..=B ..=B ..=B ..=B ..=B ..=B ..=B ..=B ..=B ..=B ..=B ..=B ..=B ..=B ..=B ..=B ..=B ..=B ..=B ..=B ..=B ..=B ..=B ..=B ..=B ..=B ..=B ..=B ..=B ..=B ..=B ..=B ..=B ..=B ..=B ..=B ..=B ..=B ..=B ..=B ..=B ..=B ..=B ..=B ..=B ..=B ..=B ..=B ..=B ..=B ..=B ..=B ..=B ..=B ..=B ..=B ..=B ..=B ..=B ..=B ..=B ..=B ..=B ..=B ..=B ..=B ..=B ..=B ..=B ..=B ..=B ..=B ..=B ..=B ..=B ..=B ..=B ..=B ..=B ..=B ..=B ..=B ..=B ..=B ..=B ..=B ..=B ..=B ..=B ..=B ..=B ..=B ..=B ..=B ..=B ..=B ..=B B..=B B..=B B..=B B..=B B..=B B..=B B..=B B..=B B..=B B..=B B..=B B..=B B..=B B..=B B..=B B..=B B..=B B..=B B..=B B..=B B..=B B..=B B..=B B..=B B..=B B..=B B..=B B..=B B..=B B..=B B..=B B..=B B..=B B..=B B..=B B..=B B..=B B..=B B..=B B..=B B..=B B..=B B..=B B..=B B..=B B..=B B..=B B..=B B..=B B..=B B..=B B..=B B..=B B..=B B..=B B..=B B..=B B..=B B..=B B..=B B..=B B..=B B..=B B..=B B..=B B..=B B..=B B..=B B..=B B..=B B..=B B..=B B..=B B..=B B..=B B..=B B..=B B..=B B..=B B..=B B..=B B..=B B..=B B..=B B..=B B..=B B..=B B..=B B..=B B..=B B..=B B..=B B..=B B..=B B..=B B..=B B..=B B..=B B..=B B..=B B..=B B..=B B..=B B..=B B..=B B..=B B..=B B..=B B..=B B..=B B..=B B..=B B..=B B..=B B..=B B..=B B..=B B..=B B..=B B..=B B..=B B..=B B..=B B..=B B..=B B..=B B..=B B..=B B..=B B..=B B..=B B..=B B..=B B..=B B..=B B..=B B..=B B..=B B..=B B..=B B..=B B..=B B..=B B..=B B..=B B..=B B..=B B..=B B..=B B..=B B..=B B..=B B..=B B..=B B..=B B..=B B..=B B..=B B..=B B..=B B..=B B..=B B..=B B..=B B..=B B..=B B..=B B..=B B..=B B..=B B..=B B..=B B..=B B..=B B..=B B..=B B..=B B..=B B..=B B..=B B..=B B..=B B..=B B..=B B..=B B..=B B..=B B..=B B..=B B..=B B..=B B..=B B..=B B..=B B..=B B..=B B..=B B..=B B..=B B..=B B..=B B..=B B..=B B..=B B..=B B..=B B..=B B..=B B..=B B..=B B..=B B..=B B..=B B..=B B..=B B..=B B..=B B..=B B..=B B..=B B..=B B..=B B..=B B..=B B..=B B..=B B..=B B..=B B..=B B..=B B..=B B..=B B..=B B..=B B..=B B..=B B..=B B..=B B..=B B..=B B..=B B..=B B..=B B..=B B..=B B..=B B..=B B..=B B..=B B..=B B..=B B..=B B..=B B..=B B..=B B..=B B..=B B..=B B..=B B..=B B..=B B..=B B..=B B..=B B..=B B..=B B..=B B..=B B..=B B..=B B..=B B..=B B..=B B..=B B..=B B..=B B..=B B..=B B..=B B..=B B..=B B..=B B..=B B..=B B..=B B..=B B..=B B..=B B..=B B..=B B..=B B..=B B..=B B..=B B..=B B..=B B..=B B..=B B..=B B..=B B..=B B..=B B..=B B..=B B..=B B..=B B..=B B..=B B..=B B..=B B..=B B..=B B..=B B..=B B..=B B..=B B..=B B..=B B..=B B..=B B..=B B..=B B..=B B..=B B..=B B..=B B..=B B..=B B..=B B..=B B..=B B..=B B..=B B..=B B..=B B..=B B..=B B..=B B..=B B..=B B..=B B..=B B..=B B..=B B..=B B..=B B..=B B..=B B..=B B..=B B..=B B..=B B..=B B..=B B..=B B..=B B..=B B..=B B..=B B..=B B..=B B..=B B..=B B..=B B..=B B..=B B..=B B..=B B..=B B..=B B..=B B..=B B..=B B..=B B..=B B..=B B..=B B..=B B..=B B..=B B..=B B..=B B..=B B..=B B..=B B..=B B..=B B..=B B..=B B..=B B..=B B..=B B..=B B..=B B..=B B..=B B..=B B..=B B..=B B..=B B..=B B..=B B..=B B..=B B..=B B..=B B..=B B..=B B..=B B..=B B=B B=B B=B B=B B=B B=B B=B B=B B=B B=B B=B B=B B=B B=B B=B B=B B=B B=B B=B B=B B=B B=B B=B B=B B=B B=B B=B B=B B=B B=B B=B B=B B=B B=B B=B B=B B=B B=B B=B B=B B=B B=B B=B B=B B=B B=B B=B B=B B=B B=B B=B B=B B=B B=B B=B B=B B=B B=B B=B B=B B=B B=B B=B B=B B=B B=B B=B B=B B=B B=B B=B B=B B=B B=B B=B B=B B=B B=B B=B B=B B=B B=B B=B B=B B=B B=B B=B B=B B=B B=B B=B B=B B=B B=B B=B B=B B=B B=B B=B B=B B=B B=B @ @ @ @ @ @ @ @ @ @ @ @ @ @ @ @ @ @ @ @ @ @ @ @ @ @ @ @ @ @ @ @ @ @ @ @ @ @ @ @ @ @ @ @ @ @ @ @ @ @ @ @ @ @ @ @ @ @ @ @ @ @ @ @ @ @ @ @ @ @ @ @ @ @ @ @ @ @ @ @ @ @ @ @ @ @ @ @ @ @ @ @ @ @ @ @ @ @ @ @ @ @ @ @ @ @ @ @ @ @ @ @ @ @ @ @ @ @ @ @ @ @ @ @ @ @ @ @ @ @ @ @ @ @ @ @ @ @ @ @ @ @ @ @ @ @ @ @ @ @ @ @ @ @ @ @ @ @ @ @ @ @ @ @ @ @ @ @ @ @ @ @ @ @ @ @ @ @ @ @ @ @ @ @ @ @ @ @ @ @ @ @ @ @ @ @ @ @ @ @ @ @ @ @ @ @ @ @ @ @ @ @ @ @ @ @ @ @ @ @ @ @ @ @ @ @ @ @ @ @ @ @ @ @ @ @ @ @ @ @ @ @ @ @ @ @ @ @ @ @ @ @ @ @ @ @ > > > > > > > > > > > > > > > > > > > > > > > > > > > > > > > > > > > > > > > > > > > > > > > > > > > > > > > > > > > > > > > > > > > > > > > > > > > > > > > > > > > > > > > > > > > > > > > > > > > > > > > > > > > > > > > > > > > > > > > > > > > > > > > > > > > > > > > > > > > > > > > > > > > > > > > > > > > > > > > > > > > > > > > > > > > > > > > > > > > > > > > > > > > > > > > > > > > > > > > > > > > > > > > > > > > > > > > > > > > > > > > > > > > > > > > > > > > > > > > > > > > > > > > > > > > > > > > > =//>B =//>B =//>B =//>B =//>B =//>B =//>B =//>B =//>B =//>B =//>B =//>B =//>B =//>B =//>B =//>B =//>B =//>B =//>B =//>B =//>B =//>B =//>B =//>B =//>B =//>B =//>B =//>B =//>B =//>B =//>B =//>B =//>B =//>B =//>B =//>B =//>B =//>B =//>B =//>B =//>B =//>B =//>B =//>B =//>B =//>B =//>B =//>B =//>B =//>B =//>B =//>B =//>B =//>B =//>B =//>B =//>B =//>B =//>B =//>B =//>B =//>B =//>B =//>B =//>B =//>B =//>B =//>B =//>B =//>B =//>B =//>B =//>B =//>B =//>B =//>B =//>B =//>B =//>B =//>B =//>B =//>B =//>B =//>B =//>B =//>B =//>B =//>B =//>B =//>B =//>B =//>B =//>B =//>B =//>B =//>B =//>B =//>B =//>B =//>B =//>B =//>B =//>B =//>B =//>B =//>B =//>B =//>B =//>B =//>B =//>B =//>B =//>B =//>B =//>B =//>B =//>B =//>B =//>B =//>B =//>B =//>B =//>B =//>B =//>B =//>B =//>B =//>B =//>B =//>B =//>B =//>B =//>B =//>B =//>B =//>B =//>B =//>B =//>B =//>B =//>B =//>B =//>B =//>B =//>B =//>B =//>B =//>B =//>B =//>B =//>B =//>B =//>B =//>B =//>B =//>B =//>B =//>B =//>B =//>B =//>B =//>B =//>B =//>B =//>B =//>B =//>B =//>B =//>B =//>B =//>B =//>B =//>B =//>B =//>B =//>B =//>B =//>B =//>B =//>B =//>B =//>B =//>B =//>B =//>B =//>B =//>B =//>B =//>B =//>B =//>B =//>B =//>B =//>B =//>B =//>B =//>B =//>B =//>B =//>B =//>B =//>B =//>B =//>B =//>B =//>B =//>B =//>B =//>B =//>B =//>B =//>B =//>B =//>B =//>B =//>B =//>B =//>B =//>B =//>B =//>B =//>B =//>B =//>B =//>B =//>B =//>B =//>B =//>B =//>B =//>B =//>B =//>B =//>B =//>B =//>B =//>B =//>B =//>B =//>B =//>B =//>B =//>B =//>B =//>B =//>B =//>B =//>B =//>B =//>B =//>B =//>B =//>B =//>B =//>B =//>B ;//>B ;//>B ;//>B ;//>B ;//>B ;//>B ;//>B ;//>B ;//>B ;//>B ;//>B ;//>B ;//>B ;//>B ;//>B ;//>B ;//>B ;//>B ;//>B ;//>B ;//>B ;//>B ;//>B ;//>B ;//>B ;//>B ;//>B ;//>B ;//>B ;//>B ;//>B ;//>B ;//>B ;//>B ;//>B ;//>B ;//>B ;//>B ;//>B ;//>B ;//>B ;//>B ;//>B ;//>B ;//>B ;//>B ;//>B ;//>B ;//>B ;//>B ;//>B ;//>B ;//>B ;//>B ;//>B ;//>B ;//>B ;//>B ;//>B ;//>B ;//>B ;//>B ;//>B ;//>B ;//>B ;//>B ;//>B ;//>B ;//>B ;//>B ;//>B ;//>B ;//>B ;//>B ;//>B ;//>B ;//>B ;//>B ;//>B ;//>B ;//>B ;//>B ;//>B ;//>B ;//>B ;//>B ;//>B ;//>B ;//>B ;//>B ;//>B ;//>B ;//>B ;//>B ;//>B ;//>B ;//>B ;//>B ;//>B ;//>B ;//>B ;//>B ;>B ;>B ;>B ;>B ;>B ;>B ;>B ;>B ;>B ;>B ;>B ;>B ;>B ;>B ;>B ;>B ;>B ;>B ;>B ;>B ;>B ;>B ;>B ;>B ;>B ;>B ;>B ;>B ;>B ;>B ;>B ;>B ;>B ;>B ;>B ;>B ;>B ;>B ;>B ;>B ;>B ;>B ;>B ;>B ;>B ;>B ;>B ;>B ;>B ;>B ;>B ;>B ;>B ;>B ;>B ;>B ;>B ;>B ;>B ;>B ;>B ;>B ;>B ;>B ;>B ;>B ;>B ;>B ;>B ;>B ;>B ;>B ;>B ;>B ;>B ;>B ;>B ;>B ;>B ;>B ;>B ;>B ;>B ;>B ;>B ;>B ;>B ;>B ;>B ;>B ;>B ;>B ;>B ;>B ;>B ;>B ;>B ;>B ;>B ;>B ;>B ;>B ;>B ;>B ;>B ;>B ;>B ;>B ;>B ;>B ;>B ;>B ;>B ;>B ;>B ;>B ;>B ;>B ;>B ;>B ;>B ;>B ;>B ;>B ;>B ;>B ;>B ;>B ;>B ;>B ;>B ;>B ;>B ;>B ;>B ;>B ;>B ;>B ;>B ;>B ;>B ;>B ;>B ;>B ;>B ;>B ;>B ;>B ;>B ;>B ;>B ;>B ;>B ;>B :77=F :77=F :77=F :77=F :77=F :77=F :77=F :77=F :77=F :77=F :77=F :77=F :77=F :77=F :77=F :77=F :77=F :77=F :77=F :77=F :77=F :77=F :77=F :77=F :77=F :77=F :77=F :77=F :77=F :77=F :77=F :77=F :77=F :77=F :77=F :77=F :77=F :77=F :77=F :77=F :77=F :77=F :77=F :77=F :77=F :77=F :77=F :77=F :77=F :77=F :77=F :77=F :77=F :77=F :77=F :77=F :77=F :77=F :77=F :77=F :77=F :77=F :77=F :77=F :77=F :77=F :77=F :77=F :77=F :77=F :77=F :77=F :77=F :77=F :77=F :77=F :77=F :77=F :77=F :77=F :77=F :77=F :77=F :77=F :77=F :77=F :77=F :77=F :77=F :77=F :77=F :77=F :77=F :77=F :77=F :77=F :77=F :77=F :77=F :77=F :77=F :77=F :77=F :77=F :77=F :77=F :77=F :77=F :77=F :77=F :77=F :77=F :77=F :77=F :77=F :77=F :77=F :77=F :77=F :77=F :77=F :77=F :77=F :77=F :77=F :77=F :77=F :77=F :77=F :77=F :77=F :77=F :77=F :77=F :77=F :77=F :77=F :77=F :77=F :77=F :77=F :77=F :77=F :77=F :77=F :77=F :77=F :77=F :77=F :77=F :77=F :77=F :77=F :77=F :77=F :77=F :77=F :77=F :77=F :77=F :77=F :77=F :77=F :77=F :77=F :77=F :77=F :77=F :77=F :77=F :77=F :77=F :77=F :77=F :77=F :77=F :77=F :77=F :77=F :77=F :77=F :77=F :77=F :77=F :77=F :77=F :77=F :77=F :77=F :77=F :77=F :77=F :77=F :77=F :77=F :77=F :77=F :77=F :77=F :77=F :77=F :77=F :77=F :77=F :77=F :77=F :77=F :77=F :77=F :77=F :77=F :77=F :77=F :77=F :77=F :77=F :77=F :77=F :77=F :77=F :77=F :77=F :77=F :77=F :77=F :77=F :77=F :77=F :77=F :77=F :77=F :77=F :77=F :77=F :77=F :77=F :77=F :77=F :77=F :77=F :77=F :77=F :77=F :77=F :77=F :77=F :77=F :77=F :77=F :77=F :77=F :77=F :77=F :77=F :77=F :77=F @77=F @77=F @77=F @77=F @77=F @77=F @77=F @77=F @77=F @77=F @77=F @77=F @77=F @77=F @77=F @77=F @77=F @77=F @77=F @77=F @77=F @77=F @77=F @77=F @77=F @77=F @77=F @77=F @77=F @77=F @77=F @77=F @77=F @77=F @77=F @77=F @77=F @77=F @77=F @77=F @77=F @77=F @77=F @77=F @77=F @77=F @77=F @77=F @77=F @77=F @77=F @77=F @77=F @77=F @77=F @77=F @77=F @77=F @77=F @77=F @77=F @77=F @77=F @77=F @77=F @77=F @77=F @77=F @77=F @77=F @77=F @77=F @77=F @77=F @77=F @77=F @77=F @77=F @77=F @77=F @77=F @77=F @77=F @77=F @77=F @77=F @77=F @77=F @77=F @77=F @77=F @77=F @77=F @77=F @77=F @77=F @77=F @77=F @77=F @77=F @77=F @77=F @=F @=F @=F @=F @=F @=F @=F @=F @=F @=F @=F @=F @=F @=F @=F @=F @=F @=F @=F @=F @=F @=F @=F @=F @=F @=F @=F @=F @=F @=F @=F @=F @=F @=F @=F @=F @=F @=F @=F @=F @=F @=F @=F @=F @=F @=F @=F @=F @=F @=F @=F @=F @=F @=F @=F @=F @=F @=F @=F @=F @=F @=F @=F @=F @=F @=F @=F @=F @=F @=F @=F @=F @=F @=F @=F @=F @=F @=F @=F @=F @=F @=F @=F @=F @=F @=F @=F @=F @=F @=F @=F @=F @=F @=F @=F @=F @=F @=F @=F @=F @=F @=F @=F @=F @=F @=F @=F @=F @=F @=F @=F @=F @=F @=F @=F @=F @=F @=F @=F @=F @=F @=F @=F @=F @=F @=F @=F @=F @=F @=F @=F @=F @=F @=F @=F @=F @=F @=F @=F @=F @=F @=F @=F @=F @=F @=F @=F @=F @=F @=F @=F @=F @=F @=F S>44>G S>44>G S>44>G S>44>G S>44>G S>44>G S>44>G S>44>G S>44>G S>44>G S>44>G S>44>G S>44>G S>44>G S>44>G S>44>G S>44>G S>44>G S>44>G S>44>G S>44>G S>44>G S>44>G S>44>G S>44>G S>44>G S>44>G S>44>G S>44>G S>44>G S>44>G S>44>G S>44>G S>44>G S>44>G S>44>G S>44>G S>44>G S>44>G S>44>G S>44>G S>44>G S>44>G S>44>G S>44>G S>44>G S>44>G S>44>G S>44>G S>44>G S>44>G S>44>G S>44>G S>44>G S>44>G S>44>G S>44>G S>44>G S>44>G S>44>G S>44>G S>44>G S>44>G S>44>G S>44>G S>44>G S>44>G S>44>G S>44>G S>44>G S>44>G S>44>G S>44>G S>44>G S>44>G S>44>G S>44>G S>44>G S>44>G S>44>G S>44>G S>44>G S>44>G S>44>G S>44>G S>44>G S>44>G S>44>G S>44>G S>44>G S>44>G S>44>G S>44>G S>44>G S>44>G S>44>G S>44>G S>44>G S>44>G S>44>G S>44>G S>44>G S>44>G S>44>G S>44>G S>44>G S>44>G S>44>G S>44>G S>44>G S>44>G S>44>G S>44>G S>44>G S>44>G S>44>G S>44>G S>44>G S>44>G S>44>G S>44>G S>44>G S>44>G S>44>G S>44>G S>44>G S>44>G S>44>G S>44>G S>44>G S>44>G S>44>G S>44>G S>44>G S>44>G S>44>G S>44>G S>44>G S>44>G S>44>G S>44>G S>44>G S>44>G S>44>G S>44>G S>44>G S>44>G S>44>G S>44>G S>44>G S>44>G S>44>G S>44>G S>44>G S>44>G S>44>G S>44>G S>44>G S>44>G S>44>G S>44>G S>44>G S>44>G S>44>G S>44>G S>44>G S>44>G S>44>G S>44>G S>44>G S>44>G S>44>G S>44>G S>44>G S>44>G S>44>G S>44>G S>44>G S>44>G S>44>G S>44>G S>44>G S>44>G S>44>G S>44>G S>44>G S>44>G S>44>G S>44>G S>44>G S>44>G S>44>G S>44>G S>44>G S>44>G S>44>G S>44>G S>44>G S>44>G S>44>G S>44>G S>44>G S>44>G S>44>G S>44>G S>44>G S>44>G S>44>G S>44>G S>44>G S>44>G S>44>G S>44>G S>44>G S>44>G S>44>G S>44>G S>44>G S>44>G S>44>G S>44>G S>44>G S>44>G S>44>G S>44>G S>44>G S>44>G S>44>G S>44>G S>44>G S>44>G S>44>G S>44>G S>44>G S>44>G S>44>G S>44>G S>44>G S>44>G S>44>G S>44>G S>44>G S>44>G S>44>G S>44>G S>44>G S>44>G S>44>G S>44>G S>44>G S>44>G S>44>G S>44>G S>44>G S>44>G S>44>G S>44>G S>44>G S>44>G S>44>G S>44>G S>44>G S>44>G S>44>G S>44>G S>44>G S>44>G S>44>G S>44>G S>44>G S>44>G S>44>G S>44>G S>44>G S>44>G S>44>G S>44>G S>44>G S>44>G S>44>G S>44>G S>44>G S>44>G S>44>G S>44>G S>44>G S>44>G S>44>G S>44>G S>44>G S>44>G S>44>G S>44>G S>44>G S>44>G S>44>G S>44>G S>44>G S>44>G S>44>G S>44>G S>44>G S>44>G S>44>G S>44>G S>44>G S>44>G S>44>G S>44>G S>44>G S>44>G S>44>G S>44>G S>44>G S>44>G S>44>G S>44>G S>44>G S>44>G S>44>G S>44>G S>44>G S>44>G S>44>G S>44>G S>44>G S>44>G S>44>G S>44>G S>44>G S>44>G S>44>G S>44>G S>44>G S>44>G S>44>G S>44>G S>44>G S>44>G S>44>G S>44>G S>44>G S>44>G S>44>G S>44>G S>44>G S>44>G S>44>G S>44>G S>44>G S>44>G S>44>G S>44>G S>44>G S>44>G S>44>G S>44>G S>44>G S>>G S>>G S>>G S>>G S>>G S>>G S>>G S>>G S>>G S>>G S>>G S>>G S>>G S>>G S>>G S>>G S>>G S>>G S>>G S>>G S>>G S>>G S>>G S>>G S>>G S>>G S>>G S>>G S>>G S>>G S>>G S>>G S>>G S>>G S>>G S>>G S>>G S>>G S>>G S>>G S>>G S>>G S>>G S>>G S>>G S>>G S>>G S>>G S>>G S>>G S>>G S>>G S>>G S>>G S>>G S>>G S>>G S>>G S>>G S>>G S>>G S>>G S>>G S>>G S>>G S>>G S>>G S>>G S>>G S>>G S>>G S>>G S>>G S>>G S>>G S>>G S>>G S>>G S>>G S>>G S>>G S>>G S>>G S>>G S>>G S>>G S>>G S>>G S>>G S>>G S>>G S>>G S>>G S>>G S>>G S>>G S>>G S>>G S>>G S>>G S>>G S>>G S>>G S>>G S>>G S>>G S>>G S>>G S>>G S>>G S>>G S>>G S>>G S>>G S>>G S>>G S>>G S>>G S>>G S>>G S>>G S>>G S>>G S>>G S>>G S>>G S>>G S>>G S>>G S>>G S>>G S>>G S>>G S>>G S>>G S>>G S>>G S>>G S>>G S>>G S>>G S>>G S>>G S>>G S>>G S>>G S>>G S>>G S>>G S>>G S>>G S>>G S>>G S>>G S=66=G S=66=G S=66=G S=66=G S=66=G S=66=G S=66=G S=66=G S=66=G S=66=G S=66=G S=66=G S=66=G S=66=G S=66=G S=66=G S=66=G S=66=G S=66=G S=66=G S=66=G S=66=G S=66=G S=66=G S=66=G S=66=G S=66=G S=66=G S=66=G S=66=G S=66=G S=66=G S=66=G S=66=G S=66=G S=66=G S=66=G S=66=G S=66=G S=66=G S=66=G S=66=G S=66=G S=66=G S=66=G S=66=G S=66=G S=66=G S=66=G S=66=G S=66=G S=66=G S=66=G S=66=G S=66=G S=66=G S=66=G S=66=G S=66=G S=66=G S=66=G S=66=G S=66=G S=66=G S=66=G S=66=G S=66=G S=66=G S=66=G S=66=G S=66=G S=66=G S=66=G S=66=G S=66=G S=66=G S=66=G S=66=G S=66=G S=66=G S=66=G S=66=G S=66=G S=66=G S=66=G S=66=G S=66=G S=66=G S=66=G S=66=G S=66=G S=66=G S=66=G S=66=G S=66=G S=66=G S=66=G S=66=G S=66=G S=66=G S=66=G S=66=G S=66=G S=66=G S=66=G S=66=G S=66=G S=66=G S=66=G S=66=G S=66=G S=66=G S=66=G S=66=G S=66=G S=66=G S=66=G S=66=G S=66=G S=66=G S=66=G S=66=G S=66=G S=66=G S=66=G S=66=G S=66=G S=66=G S=66=G S=66=G S=66=G S=66=G S=66=G S=66=G S=66=G S=66=G S=66=G S=66=G S=66=G S=66=G S=66=G S=66=G S=66=G S=66=G S=66=G S=66=G S=66=G S=66=G S=66=G S=66=G S=66=G S=66=G S=66=G S=66=G S=66=G S=66=G S=66=G S=66=G S=66=G S=66=G S=66=G S=66=G S=66=G S=66=G S=66=G S=66=G S=66=G S=66=G S=66=G S=66=G S=66=G U=66=G U=66=G U=66=G U=66=G U=66=G U=66=G U=66=G U=66=G U=66=G U=66=G U=66=G U=66=G U=66=G U=66=G U=66=G U=66=G U=66=G U=66=G U=66=G U=66=G U=66=G U=66=G U=66=G U=66=G U=66=G U=66=G U=66=G U=66=G U=66=G U=66=G U=66=G U=66=G U=66=G U=66=G U=66=G U=66=G U=66=G U=66=G U=66=G U=66=G U=66=G U=66=G U=66=G U=66=G U=66=G U=66=G U=66=G U=66=G U=66=G U=66=G U=66=G U=66=G U=66=G U=66=G U=66=G U=66=G U=66=G U=66=G U=66=G U=66=G U=66=G U=66=G U=66=G U=66=G U=66=G U=66=G U=66=G U=66=G U=66=G U=66=G U=66=G U=66=G U=66=G U=66=G U=66=G U=66=G U=66=G U=66=G U=66=G U=66=G U=66=G U=66=G U=66=G U=66=G U=66=G U=66=G U=66=G U=66=G U=66=G U=66=G U=66=G U=66=G U=66=G U=66=G U=66=G U=66=G U=66=G U=66=G U=66=G U=66=G U=66=G U=66=G U=66=G U=66=G U=66=G U=66=G U=66=G U=66=G U=66=G U=66=G U=66=G U=66=G U=66=G U=66=G U=66=G U=66=G U=66=G U=66=G U=66=G U=66=G U=66=G U=66=G U=66=G U=66=G U=66=G U=66=G U=66=G U=66=G U=66=G U=66=G U=66=G U=66=G U=66=G U=66=G U=66=G U=66=G U=66=G U=66=G U=66=G U=66=G U=66=G U=66=G U=66=G U=66=G U=66=G U=66=G U=66=G U=66=G U=66=G U=66=G U=66=G U=66=G U=66=G U=66=G U=66=G U=66=G U=66=G U=66=G U=66=G U=66=G U=66=G U=66=G U=66=G U=66=G U=66=G U=66=G U=66=G U=66=G U=66=G U=66=G S=66=G S=66=G S=66=G S=66=G S=66=G S=66=G S=66=G S=66=G S=66=G S=66=G S=66=G S=66=G S=66=G S=66=G S=66=G S=66=G S=66=G S==G S==G S==G S==G S==G S==G S==G S==G S==G S==G S==G S==G S==G S==G S==G S==G S==G S==G S==G S==G S==G S==G S==G S==G S==G S==G S==G S==G S==G S==G S==G S==G S==G S==G S==G S==G S==G S==G S==G S==G S==G S==G S==G S==G S==G S==G S==G S==G S==G S==G S==G S==G S==G S==G S==G S==G S==G S==G S==G S==G S==G S==G S==G S==G S==G S==G S==G S==G S==G S==G S==G S==G S==G S==G S==G S==G S==G S==G S==G S==G S==G S==G S==G S==G S==G S==G S==G S==G S==G S==G S==G S==G S==G S==G S==G S==G S==G S==G S==G S==G S==G S==G S==G S==G S==G S==G S==G S==G S==G S==G S==G S==G S==G S==G S==G S==G S==G S==G S==G S==G S==G S==G S==G S==G S==G S==G S==G S==G S==G S==G S==G S==G S==G S==G S==G S==G S==G S==G S==G S==G S==G S==G S==G S==G S==G S==G S==G S==G S==G S==G S==G S==G S==G S==G R=11BF R=11BF R=11BF R=11BF R=11BF R=11BF R=11BF R=11BF R=11BF R=11BF R=11BF R=11BF R=11BF R=11BF R=11BF R=11BF R=11BF R=11BF R=11BF R=11BF R=11BF R=11BF R=11BF R=11BF R=11BF R=11BF R=11BF R=11BF R=11BF R=11BF R=11BF R=11BF R=11BF R=11BF R=11BF R=11BF R=11BF R=11BF R=11BF R=11BF R=11BF R=11BF R=11BF R=11BF R=11BF R=11BF R=11BF R=11BF R=11BF R=11BF R=11BF R=11BF R=11BF R=11BF R=11BF R=11BF R=11BF R=11BF R=11BF R=11BF R=11BF R=11BF R=11BF R=11BF R=11BF R=11BF R=11BF R=11BF R=11BF R=11BF R=11BF R=11BF R=11BF R=11BF R=11BF R=11BF R=11BF R=11BF R=11BF R=11BF R=11BF R=11BF R=11BF R=11BF R=11BF R=11BF R=11BF R=11BF R=11BF R=11BF R=11BF R=11BF R=11BF R=11BF R=11BF R=11BF R=11BF R=11BF R=11BF R=11BF R=11BF R=11BF R=11BF R=11BF R=11BF R=11BF R=11BF R=11BF R=11BF R=11BF R=11BF R=11BF R=11BF R=11BF R=11BF R=11BF R=11BF R=11BF R=11BF R=11BF R=11BF R=11BF R=11BF R=11BF R=11BF R=11BF R=11BF R=11BF R=11BF R=11BF R=11BF R=11BF R=11BF R=11BF R=11BF R=11BF R=11BF R=11BF R=11BF R=11BF R=11BF R=11BF R=11BF R=11BF R=11BF R=11BF R=11BF R=11BF R=11BF R=11BF R=11BF R=11BF R=11BF R=11BF R=11BF R=11BF R=11BF R=11BF R=11BF R=11BF R=11BF R=11BF R=11BF R=11BF R=11BF R=11BF R=11BF R=11BF R=11BF R=11BF R=11BF P=11BF P=11BF P=11BF P=11BF P=11BF P=11BF P=11BF P=11BF P=11BF P=11BF P=11BF P=11BF P=11BF P=11BF P=11BF P=11BF P=11BF P=11BF P=11BF P=11BF P=11BF P=11BF P=11BF P=11BF P=11BF P=11BF P=11BF P=11BF P=11BF P=11BF P=11BF P=11BF P=11BF P=11BF P=11BF P=11BF P=11BF P=11BF P=11BF P=11BF P=11BF P=11BF P=11BF P=11BF P=11BF P=11BF P=11BF P=11BF P=11BF P=11BF P=11BF P=11BF P=11BF P=11BF P=11BF P=11BF P=11BF P=11BF P=11BF P=11BF P=11BF P=11BF P=11BF P=11BF P=11BF P=11BF P=11BF P=11BF P=11BF P=11BF P=11BF P=11BF P=11BF P=11BF P=11BF P=11BF P=11BF P=11BF P=11BF P=11BF P=11BF P=11BF P=11BF P=11BF P=11BF P=11BF P=11BF P=11BF P=11BF P=11BF P=11BF P=11BF P=11BF P=11BF P=11BF P=11BF P=11BF P=11BF P=11BF P=11BF P=11BF P=11BF P=11BF P=11BF P=11BF P=11BF P=11BF P=11BF P=11BF P=11BF P=11BF P=11BF P=11BF P=11BF P=11BF P=11BF P=11BF P=11BF P=11BF P=11BF P=11BF P=11BF P=11BF P=11BF P=11BF P=11BF P=11BF P=11BF P=11BF P=11BF P=11BF P=11BF P=11BF P=11BF P=11BF P=11BF P=11BF P=11BF P=11BF P=11BF P=11BF P=11BF P=11BF P=11BF P=11BF P=11BF P=11BF P=11BF P=11BF P=11BF P=11BF P=11BF P=11BF P=11BF P=11BF P=11BF P=11BF P=11BF P=11BF P=11BF P=11BF P=11BF P=11BF P=11BF P=11BF P=11BF P=11BF P=11BF P=11BF P=11BF N=11BF N=11BF N=11BF N=11BF N=11BF N=11BF N=11BF N=11BF N=11BF N=11BF N=11BF N=11BF N=11BF N=11BF N=11BF N=11BF N=11BF N=BF N=BF N=BF N=BF N=BF N=BF N=BF N=BF N=BF N=BF N=BF N=BF N=BF N=BF N=BF N=BF N=BF N=BF N=BF N=BF N=BF N=BF N=BF N=BF N=BF N=BF N=BF N=BF N=BF N=BF N=BF N=BF N=BF N=BF N=BF N=BF N=BF N=BF N=BF N=BF N=BF N=BF N=BF N=BF N=BF N=BF N=BF N=BF N=BF N=BF N=BF N=BF N=BF N=BF N=BF N=BF N=BF N=BF N=BF N=BF N=BF N=BF N=BF N=BF N=BF N=BF N=BF N=BF N=BF N=BF N=BF N=BF N=BF N=BF N=BF N=BF N=BF N=BF N=BF N=BF N=BF N=BF N=BF N=BF N=BF N=BF N=BF N=BF N=BF N=BF N=BF N=BF N=BF N=BF N=BF N=BF N=BF N=BF N=BF N=BF N=BF N=BF N=BF N=BF N=BF N=BF N=BF N=BF N=BF N=BF N=BF N=BF N=BF N=BF N=BF N=BF N=BF N=BF N=BF N=BF N=BF N=BF N=BF N=BF N=BF N=BF N=BF N=BF N=BF N=BF N=BF N=BF N=BF N=BF N=BF N=BF N=BF N=BF N=BF N=BF N=BF N=BF N=BF N=BF N=BF N=BF N=BF N=BF N=BF N=BF N=BF N=BF N=BF N=BF L..BF L..BF L..BF L..BF L..BF L..BF L..BF L..BF L..BF L..BF L..BF L..BF L..BF L..BF L..BF L..BF L..BF L..BF L..BF L..BF L..BF L..BF L..BF L..BF L..BF L..BF L..BF L..BF L..BF L..BF L..BF L..BF L..BF L..BF L..BF L..BF L..BF L..BF L..BF L..BF L..BF L..BF L..BF L..BF L..BF L..BF L..BF L..BF L..BF L..BF L..BF L..BF L..BF L..BF L..BF L..BF L..BF L..BF L..BF L..BF L..BF L..BF L..BF L..BF L..BF L..BF L..BF L..BF L..BF L..BF L..BF L..BF L..BF L..BF L..BF L..BF L..BF L..BF L..BF L..BF L..BF L..BF L..BF L..BF L..BF L..BF L..BF L..BF L..BF L..BF L..BF L..BF L..BF L..BF L..BF L..BF L..BF L..BF L..BF L..BF L..BF L..BF L..BF L..BF L..BF L..BF L..BF L..BF L..BF L..BF L..BF L..BF L..BF L..BF L..BF L..BF L..BF L..BF L..BF L..BF L..BF L..BF L..BF L..BF L..BF L..BF L..BF L..BF L..BF L..BF L..BF L..BF L..BF L..BF L..BF L..BF L..BF L..BF L..BF L..BF L..BF L..BF L..BF L..BF L..BF L..BF L..BF L..BF L..BF L..BF L..BF L..BF L..BF L..BF L..BF L..BF L..BF L..BF L..BF L..BF L..BF L..BF L..BF L..BF L..BF L..BF L..BF L..BF L..BF L..BF L..BF J..BF J..BF J..BF J..BF J..BF J..BF J..BF J..BF J..BF J..BF J..BF J..BF J..BF J..BF J..BF J..BF J..BF J..BF J..BF J..BF J..BF J..BF J..BF J..BF J..BF J..BF J..BF J..BF J..BF J..BF J..BF J..BF J..BF J..BF J..BF J..BF J..BF J..BF J..BF J..BF J..BF J..BF J..BF J..BF J..BF J..BF J..BF J..BF J..BF J..BF J..BF J..BF J..BF J..BF J..BF J..BF J..BF J..BF J..BF J..BF J..BF J..BF J..BF J..BF J..BF J..BF J..BF J..BF J..BF J..BF J..BF J..BF J..BF J..BF J..BF J..BF J..BF J..BF J..BF J..BF J..BF J..BF J..BF J..BF J..BF J..BF J..BF J..BF J..BF J..BF J..BF J..BF J..BF J..BF J..BF J..BF J..BF J..BF J..BF J..BF J..BF J..BF J..BF J..BF J..BF J..BF J..BF J..BF J..BF J..BF J..BF J..BF J..BF J..BF J..BF J..BF J..BF J..BF J..BF J..BF J..BF J..BF J..BF J..BF J..BF J..BF J..BF J..BF J..BF J..BF J..BF J..BF J..BF J..BF J..BF J..BF J..BF J..BF J..BF J..BF J..BF J..BF J..BF J..BF J..BF J..BF J..BF J..BF J..BF J..BF J..BF J..BF J..BF J..BF J..BF J..BF J..BF J..BF J..BF J..BF J..BF J..BF J..BF J..BF J..BF J..BF J..BF J..BF J..BF J..BF I..BF I..BF I..BF I..BF I..BF I..BF I..BF I..BF I..BF I..BF I..BF I..BF I..BF I..BF I..BF I..BF I..BF IBF IBF IBF IBF IBF IBF IBF IBF IBF IBF IBF IBF IBF IBF IBF IBF IBF IBF IBF IBF IBF IBF IBF IBF IBF IBF IBF IBF IBF IBF IBF IBF IBF IBF IBF IBF IBF IBF IBF IBF IBF IBF IBF IBF IBF IBF IBF IBF IBF IBF IBF IBF IBF IBF IBF IBF IBF IBF IBF IBF IBF IBF IBF IBF IBF IBF IBF IBF IBF IBF IBF IBF IBF IBF IBF IBF IBF IBF IBF IBF IBF IBF IBF IBF IBF IBF IBF IBF IBF IBF IBF IBF IBF IBF IBF IBF IBF IBF IBF IBF IBF IBF IBF IBF IBF IBF IBF IBF IBF IBF IBF IBF IBF IBF IBF IBF IBF IBF IBF IBF IBF IBF IBF IBF IBF IBF IBF IBF IBF IBF IBF IBF IBF IBF IBF IBF IBF IBF IBF IBF IBF IBF IBF IBF IBF IBF IBF IBF IBF IBF IBF IBF IBF IBF G6**=B G6**=B G6**=B G6**=B G6**=B G6**=B G6**=B G6**=B G6**=B G6**=B G6**=B G6**=B G6**=B G6**=B G6**=B G6**=B G6**=B G6**=B G6**=B G6**=B G6**=B G6**=B G6**=B G6**=B G6**=B G6**=B G6**=B G6**=B G6**=B G6**=B G6**=B G6**=B G6**=B G6**=B G6**=B G6**=B G6**=B G6**=B G6**=B G6**=B G6**=B G6**=B G6**=B G6**=B G6**=B G6**=B G6**=B G6**=B G6**=B G6**=B G6**=B G6**=B G6**=B G6**=B G6**=B G6**=B G6**=B G6**=B G6**=B G6**=B G6**=B G6**=B G6**=B G6**=B G6**=B G6**=B G6**=B G6**=B G6**=B G6**=B G6**=B G6**=B G6**=B G6**=B G6**=B G6**=B G6**=B G6**=B G6**=B G6**=B G6**=B G6**=B G6**=B G6**=B G6**=B G6**=B G6**=B G6**=B G6**=B G6**=B G6**=B G6**=B G6**=B G6**=B G6**=B G6**=B G6**=B G6**=B G6**=B G6**=B G6**=B G6**=B G6**=B G6**=B G6**=B G6**=B G6**=B G6**=B G6**=B G6**=B G6**=B G6**=B G6**=B G6**=B G6**=B G6**=B G6**=B G6**=B G6**=B G6**=B G6**=B G6**=B G6**=B G6**=B G6**=B G6**=B G6**=B G6**=B G6**=B G6**=B G6**=B G6**=B G6**=B G6**=B G6**=B G6**=B G6**=B G6**=B G6**=B G6**=B G6**=B G6**=B G6**=B G6**=B G6**=B G6**=B G6**=B G6**=B G6**=B G6**=B G6**=B G6**=B G6**=B G6**=B G6**=B G6**=B G6**=B G6**=B G6**=B G6**=B G6**=B G6**=B G6**=B G6**=B G6**=B G6**=B G6**=B G6**=B G6**=B G6**=B G6**=B I6**=B I6**=B I6**=B I6**=B I6**=B I6**=B I6**=B I6**=B I6**=B I6**=B I6**=B I6**=B I6**=B I6**=B I6**=B I6**=B I6**=B I6**=B I6**=B I6**=B I6**=B I6**=B I6**=B I6**=B I6**=B I6**=B I6**=B I6**=B I6**=B I6**=B I6**=B I6**=B I6**=B I6**=B I6**=B I6**=B I6**=B I6**=B I6**=B I6**=B I6**=B I6**=B I6**=B I6**=B I6**=B I6**=B I6**=B I6**=B I6**=B I6**=B I6**=B I6**=B I6**=B I6**=B I6**=B I6**=B I6**=B I6**=B I6**=B I6**=B I6**=B I6**=B I6**=B I6**=B I6**=B I6**=B I6**=B I6**=B I6**=B I6**=B I6**=B I6**=B I6**=B I6**=B I6**=B I6**=B I6**=B I6**=B I6**=B I6**=B I6**=B I6**=B I6**=B I6**=B I6**=B I6**=B I6**=B I6**=B I6**=B I6**=B I6**=B I6**=B I6**=B I6**=B I6**=B I6**=B I6**=B I6**=B I6**=B I6**=B I6**=B I6**=B I6**=B I6**=B I6**=B I6**=B I6**=B I6**=B I6**=B I6**=B I6**=B I6**=B I6**=B I6**=B I6**=B I6**=B I6**=B I6**=B I6**=B I6**=B I6**=B I6**=B I6**=B I6**=B I6**=B I6**=B I6**=B I6**=B I6**=B I6**=B I6**=B I6**=B I6**=B I6**=B I6**=B I6**=B I6**=B I6**=B I6**=B I6**=B I6**=B I6**=B I6**=B I6**=B I6**=B I6**=B I6**=B I6**=B I6**=B I6**=B I6**=B I6**=B I6**=B I6**=B I6**=B I6**=B I6**=B I6**=B I6**=B I6**=B I6**=B I6**=B I6**=B I6**=B I6**=B I6**=B I6**=B I6**=B I6**=B I6**=B F6**=B F6**=B F6**=B F6**=B F6**=B F6**=B F6**=B F6**=B F6**=B F6**=B F6**=B F6**=B F6**=B F6**=B F6**=B F6**=B F6**=B F6=B F6=B F6=B F6=B F6=B F6=B F6=B F6=B F6=B F6=B F6=B F6=B F6=B F6=B F6=B F6=B F6=B F6=B F6=B F6=B F6=B F6=B F6=B F6=B F6=B F6=B F6=B F6=B F6=B F6=B F6=B F6=B F6=B F6=B F6=B F6=B F6=B F6=B F6=B F6=B F6=B F6=B F6=B F6=B F6=B F6=B F6=B F6=B F6=B F6=B F6=B F6=B F6=B F6=B F6=B F6=B F6=B F6=B F6=B F6=B F6=B F6=B F6=B F6=B F6=B F6=B F6=B F6=B F6=B F6=B F6=B F6=B F6=B F6=B F6=B F6=B F6=B F6=B F6=B F6=B F6=B F6=B F6=B F6=B F6=B F6=B F6=B F6=B F6=B F6=B F6=B F6=B F6=B F6=B F6=B F6=B F6=B F6=B F6=B F6=B F6=B F6=B F6=B F6=B F6=B F6=B F6=B F6=B F6=B F6=B F6=B F6=B F6=B F6=B F6=B F6=B F6=B F6=B F6=B F6=B F6=B F6=B F6=B F6=B F6=B F6=B F6=B F6=B F6=B F6=B F6=B F6=B F6=B F6=B F6=B F6=B F6=B F6=B F6=B F6=B F6=B F6=B F6=B F6=B F6=B F6=B F6=B F6=B F6=B F6=B F6=B F6=B F6=B F6=B G>//>B G>//>B G>//>B G>//>B G>//>B G>//>B G>//>B G>//>B G>//>B G>//>B G>//>B G>//>B G>//>B G>//>B G>//>B G>//>B G>//>B G>//>B G>//>B G>//>B G>//>B G>//>B G>//>B G>//>B G>//>B G>//>B G>//>B G>//>B G>//>B G>//>B G>//>B G>//>B G>//>B G>//>B G>//>B G>//>B G>//>B G>//>B G>//>B G>//>B G>//>B G>//>B G>//>B G>//>B G>//>B G>//>B G>//>B G>//>B G>//>B G>//>B G>//>B G>//>B G>//>B G>//>B G>//>B G>//>B G>//>B G>//>B G>//>B G>//>B G>//>B G>//>B G>//>B G>//>B G>//>B G>//>B G>//>B G>//>B G>//>B G>//>B G>//>B G>//>B G>//>B G>//>B G>//>B G>//>B G>//>B G>//>B G>//>B G>//>B G>//>B G>//>B G>//>B G>//>B G>//>B G>//>B G>//>B G>//>B G>//>B G>//>B G>//>B G>//>B G>//>B G>//>B G>//>B G>//>B G>//>B G>//>B G>//>B G>//>B G>//>B G>//>B G>//>B G>//>B G>//>B G>//>B G>//>B G>//>B G>//>B G>//>B G>//>B G>//>B G>//>B G>//>B G>//>B G>//>B G>//>B G>//>B G>//>B G>//>B G>//>B G>//>B G>//>B G>//>B G>//>B G>//>B G>//>B G>//>B G>//>B G>//>B G>//>B G>//>B G>//>B G>//>B G>//>B G>//>B G>//>B G>//>B G>//>B G>//>B G>//>B G>//>B G>//>B G>//>B G>//>B G>//>B G>//>B G>//>B G>//>B G>//>B G>//>B G>//>B G>//>B G>//>B G>//>B G>//>B G>//>B G>//>B G>//>B G>//>B G>//>B G>//>B G>//>B G>//>B G>//>B G>//>B G>//>B G>//>B G>//>B G>//>B G>//>B G>//>B G>//>B G>//>B G>//>B G>//>B G>//>B G>//>B G>//>B G>//>B G>//>B G>//>B G>//>B G>//>B G>//>B G>//>B G>//>B G>//>B G>//>B G>//>B G>//>B G>//>B G>//>B G>//>B G>//>B G>//>B G>//>B G>//>B G>//>B G>//>B G>//>B G>//>B G>//>B G>//>B G>//>B G>//>B G>//>B G>//>B G>//>B G>//>B G>//>B G>//>B G>//>B G>//>B G>//>B G>//>B G>//>B G>//>B G>//>B G>//>B G>//>B G>//>B G>//>B G>//>B G>//>B G>//>B G>//>B G>//>B G>//>B G>//>B G>//>B G>//>B G>//>B G>//>B G>//>B G>//>B G>//>B G>//>B G>//>B G>//>B G>//>B G>//>B G>//>B G>//>B G>//>B G>//>B G>//>B G>//>B G>//>B G>//>B G>//>B G>//>B G>//>B G>//>B G>//>B G>//>B J=//>B J=//>B J=//>B J=//>B J=//>B J=//>B J=//>B J=//>B J=//>B J=//>B J=//>B J=//>B J=//>B J=//>B J=//>B J=//>B J=//>B J=//>B J=//>B J=//>B J=//>B J=//>B J=//>B J=//>B J=//>B J=//>B J=//>B J=//>B J=//>B J=//>B J=//>B J=//>B J=//>B J=//>B J=//>B J=//>B J=//>B J=//>B J=//>B J=//>B J=//>B J=//>B J=//>B J=//>B J=//>B J=//>B J=//>B J=//>B J=//>B J=//>B J=//>B J=//>B J=//>B J=//>B J=//>B J=//>B J=//>B J=//>B J=//>B J=//>B J=//>B J=//>B J=//>B J=//>B J=//>B J=//>B J=//>B J=//>B J=//>B J=//>B J=//>B J=//>B J=//>B J=//>B J=//>B J=//>B J=//>B J=//>B J=//>B J=//>B J=//>B J=//>B J=//>B J=//>B J=//>B J=//>B J=//>B J=//>B J=//>B J=//>B J=//>B J=//>B J=//>B J=//>B J=//>B J=//>B J=//>B J=//>B J=//>B J=//>B J=//>B J=//>B J=>B J=>B J=>B J=>B J=>B J=>B J=>B J=>B J=>B J=>B J=>B J=>B J=>B J=>B J=>B J=>B J=>B J=>B J=>B J=>B J=>B J=>B J=>B J=>B J=>B J=>B J=>B J=>B J=>B J=>B J=>B J=>B J=>B J=>B J=>B J=>B J=>B J=>B J=>B J=>B J=>B J=>B J=>B J=>B J=>B J=>B J=>B J=>B J=>B J=>B J=>B J=>B J=>B J=>B J=>B J=>B J=>B J=>B J=>B J=>B J=>B J=>B J=>B J=>B J=>B J=>B J=>B J=>B J=>B J=>B J=>B J=>B J=>B J=>B J=>B J=>B J=>B J=>B J=>B J=>B J=>B J=>B J=>B J=>B J=>B J=>B J=>B J=>B J=>B J=>B J=>B J=>B J=>B J=>B J=>B J=>B J=>B J=>B J=>B J=>B J=>B J=>B J=>B J=>B J=>B J=>B J=>B J=>B J=>B J=>B J=>B J=>B J=>B J=>B J=>B J=>B J=>B J=>B J=>B J=>B J=>B J=>B J=>B J=>B J=>B J=>B J=>B J=>B J=>B J=>B J=>B J=>B J=>B J=>B J=>B J=>B J=>B J=>B J=>B J=>B J=>B J=>B J=>B J=>B J=>B J=>B J=>B J=>B J=>B J=>B J=>B J=>B J=>B J=>B N;22BG N;22BG N;22BG N;22BG N;22BG N;22BG N;22BG N;22BG N;22BG N;22BG N;22BG N;22BG N;22BG N;22BG N;22BG N;22BG N;22BG N;22BG N;22BG N;22BG N;22BG N;22BG N;22BG N;22BG N;22BG N;22BG N;22BG N;22BG N;22BG N;22BG N;22BG N;22BG N;22BG N;22BG N;22BG N;22BG N;22BG N;22BG N;22BG N;22BG N;22BG N;22BG N;22BG N;22BG N;22BG N;22BG N;22BG N;22BG N;22BG N;22BG N;22BG N;22BG N;22BG N;22BG N;22BG N;22BG N;22BG N;22BG N;22BG N;22BG N;22BG N;22BG N;22BG N;22BG N;22BG N;22BG N;22BG N;22BG N;22BG N;22BG N;22BG N;22BG N;22BG N;22BG N;22BG N;22BG N;22BG N;22BG N;22BG N;22BG N;22BG N;22BG N;22BG N;22BG N;22BG N;22BG N;22BG N;22BG N;22BG N;22BG N;22BG N;22BG N;22BG N;22BG N;22BG N;22BG N;22BG N;22BG N;22BG N;22BG N;22BG N;22BG N;22BG N;22BG N;22BG N;22BG N;22BG N;22BG N;22BG N;22BG N;22BG N;22BG N;22BG N;22BG N;22BG N;22BG N;22BG N;22BG N;22BG N;22BG N;22BG N;22BG N;22BG N;22BG N;22BG N;22BG N;22BG N;22BG N;22BG N;22BG N;22BG N;22BG N;22BG N;22BG N;22BG N;22BG N;22BG N;22BG N;22BG N;22BG N;22BG N;22BG N;22BG N;22BG N;22BG N;22BG N;22BG N;22BG N;22BG N;22BG N;22BG N;22BG N;22BG N;22BG N;22BG N;22BG N;22BG N;22BG N;22BG N;22BG N;22BG N;22BG N;22BG N;22BG N;22BG N;22BG N;22BG N;22BG N;22BG N;22BG N;22BG N;22BG N;22BG N;22BG N;22BG N;22BG N;22BG N;22BG N;22BG N;22BG N;22BG N;22BG N;22BG N;22BG N;22BG N;22BG N;22BG N;22BG N;22BG N;22BG N;22BG N;22BG N;22BG N;22BG N;22BG N;22BG N;22BG N;22BG N;22BG N;22BG N;22BG N;22BG N;22BG N;22BG N;22BG N;22BG N;22BG N;22BG N;22BG N;22BG N;22BG N;22BG N;22BG N;22BG N;22BG N;22BG N;22BG N;22BG N;22BG N;22BG N;22BG N;22BG N;22BG N;22BG N;22BG N;22BG N;22BG N;22BG N;22BG N;22BG N;22BG N;22BG N;22BG N;22BG N;22BG N;22BG N;22BG N;22BG N;22BG N;22BG N;22BG N;22BG N;22BG N;22BG N;22BG N;22BG N;22BG N;22BG N;22BG N;22BG N;22BG N;22BG N;22BG N;22BG N;22BG N;22BG S;22BG S;22BG S;22BG S;22BG S;22BG S;22BG S;22BG S;22BG S;22BG S;22BG S;22BG S;22BG S;22BG S;22BG S;22BG S;22BG S;22BG S;22BG S;22BG S;22BG S;22BG S;22BG S;22BG S;22BG S;22BG S;22BG S;22BG S;22BG S;22BG S;22BG S;22BG S;22BG S;22BG S;22BG S;22BG S;22BG S;22BG S;22BG S;22BG S;22BG S;22BG S;22BG S;22BG S;22BG S;22BG S;22BG S;22BG S;22BG S;22BG S;22BG S;22BG S;22BG S;22BG S;22BG S;22BG S;22BG S;22BG S;22BG S;22BG S;22BG S;22BG S;22BG S;22BG S;22BG S;22BG S;22BG S;22BG S;22BG S;22BG S;22BG S;22BG S;22BG S;22BG S;22BG S;22BG S;22BG S;22BG S;22BG S;22BG S;22BG S;22BG S;22BG S;22BG S;22BG S;22BG S;22BG S;22BG S;22BG S;22BG S;22BG S;22BG S;22BG S;22BG S;22BG S;22BG S;22BG S;22BG S;22BG S;22BG S;22BG S;22BG S;22BG S;BG S;BG S;BG S;BG S;BG S;BG S;BG S;BG S;BG S;BG S;BG S;BG S;BG S;BG S;BG S;BG S;BG S;BG S;BG S;BG S;BG S;BG S;BG S;BG S;BG S;BG S;BG S;BG S;BG S;BG S;BG S;BG S;BG S;BG S;BG S;BG S;BG S;BG S;BG S;BG S;BG S;BG S;BG S;BG S;BG S;BG S;BG S;BG S;BG S;BG S;BG S;BG S;BG S;BG S;BG S;BG S;BG S;BG S;BG S;BG S;BG S;BG S;BG S;BG S;BG S;BG S;BG S;BG S;BG S;BG S;BG S;BG S;BG S;BG S;BG S;BG S;BG S;BG S;BG S;BG S;BG S;BG S;BG S;BG S;BG S;BG S;BG S;BG S;BG S;BG S;BG S;BG S;BG S;BG S;BG S;BG S;BG S;BG S;BG S;BG S;BG S;BG S;BG S;BG S;BG S;BG S;BG S;BG S;BG S;BG S;BG S;BG S;BG S;BG S;BG S;BG S;BG S;BG S;BG S;BG S;BG S;BG S;BG S;BG S;BG S;BG S;BG S;BG S;BG S;BG S;BG S;BG S;BG S;BG S;BG S;BG S;BG S;BG S;BG S;BG S;BG S;BG S;BG S;BG S;BG S;BG S;BG S;BG S;BG S;BG S;BG S;BG S;BG S;BG V,,@J V,,@J V,,@J V,,@J V,,@J V,,@J V,,@J V,,@J V,,@J V,,@J V,,@J V,,@J V,,@J V,,@J V,,@J V,,@J V,,@J V,,@J V,,@J V,,@J V,,@J V,,@J V,,@J V,,@J V,,@J V,,@J V,,@J V,,@J V,,@J V,,@J V,,@J V,,@J V,,@J V,,@J V,,@J V,,@J V,,@J V,,@J V,,@J V,,@J V,,@J V,,@J V,,@J V,,@J V,,@J V,,@J V,,@J V,,@J V,,@J V,,@J V,,@J V,,@J V,,@J V,,@J V,,@J V,,@J V,,@J V,,@J V,,@J V,,@J V,,@J V,,@J V,,@J V,,@J V,,@J V,,@J V,,@J V,,@J V,,@J V,,@J V,,@J V,,@J V,,@J V,,@J V,,@J V,,@J V,,@J V,,@J V,,@J V,,@J V,,@J V,,@J V,,@J V,,@J V,,@J V,,@J V,,@J V,,@J V,,@J V,,@J V,,@J V,,@J V,,@J V,,@J V,,@J V,,@J V,,@J V,,@J V,,@J V,,@J V,,@J V,,@J V,,@J V,,@J V,,@J V,,@J V,,@J V,,@J V,,@J V,,@J V,,@J V,,@J V,,@J V,,@J V,,@J V,,@J V,,@J V,,@J V,,@J V,,@J V,,@J V,,@J V,,@J V,,@J V,,@J V,,@J V,,@J V,,@J V,,@J V,,@J V,,@J V,,@J V,,@J V,,@J V,,@J V,,@J V,,@J V,,@J V,,@J V,,@J V,,@J V,,@J V,,@J V,,@J V,,@J V,,@J V,,@J V,,@J V,,@J V,,@J V,,@J V,,@J V,,@J V,,@J V,,@J V,,@J V,,@J V,,@J V,,@J V,,@J V,,@J V,,@J V,,@J V,,@J V,,@J V,,@J V,,@J V,,@J V,,@J V,,@J V,,@J V,,@J V,,@J V,,@J V,,@J V,,@J V,,@J V,,@J V,,@J V,,@J V,,@J V,,@J V,,@J V,,@J V,,@J V,,@J V,,@J V,,@J V,,@J V,,@J V,,@J V,,@J V,,@J V,,@J V,,@J V,,@J V,,@J V,,@J V,,@J V,,@J V,,@J V,,@J V,,@J V,,@J V,,@J V,,@J V,,@J V,,@J V,,@J V,,@J V,,@J V,,@J V,,@J V,,@J V,,@J V,,@J V,,@J V,,@J V,,@J V,,@J V,,@J V,,@J V,,@J V,,@J V,,@J V,,@J V,,@J V,,@J V,,@J V,,@J V,,@J V,,@J V,,@J V,,@J V,,@J V,,@J V,,@J V,,@J V,,@J V,,@J V,,@J V,,@J V,,@J V,,@J V,,@J V,,@J V,,@J V,,@J V,,@J V,,@J V,,@J V,,@J V,,@J V,,@J V,,@J V,,@J V,,@J V,,@J V,,@J V,,@J V,,@J V,,@J V,,@J V,,@J V,,@J V,,@J V,,@J V,,@J V,,@J V,,@J V,,@J V,,@J V,,@J V,,@J V,,@J V,,@J V,,@J V,,@J V,,@J V,,@J V,,@J V,,@J V,,@J V,,@J V,,@J V,,@J V,,@J V,,@J V,,@J V,,@J V,,@J V,,@J V,,@J V,,@J V,,@J V,,@J V,,@J V,,@J V,,@J V,,@J V,,@J V,,@J V,,@J V,,@J V,,@J V,,@J V,,@J V,,@J V,,@J V,,@J V,,@J V,,@J V,,@J V,,@J V,,@J V,,@J V,,@J V,,@J V,,@J V,,@J V,,@J V,,@J V,,@J V,,@J V,,@J V,,@J V,,@J V,,@J V,,@J V,,@J V,,@J V,,@J V,,@J V,,@J V,,@J V,,@J V,,@J V,,@J V,,@J V,,@J V,,@J V,,@J V,,@J V,,@J V,,@J V,,@J V,,@J V,,@J V,,@J V,,@J V,,@J V,,@J V,,@J V,,@J V,,@J V,,@J V,,@J V,,@J V@J V@J V@J V@J V@J V@J V@J V@J V@J V@J V@J V@J V@J V@J V@J V@J V@J V@J V@J V@J V@J V@J V@J V@J V@J V@J V@J V@J V@J V@J V@J V@J V@J V@J V@J V@J V@J V@J V@J V@J V@J V@J V@J V@J V@J V@J V@J V@J V@J V@J V@J V@J V@J V@J V@J V@J V@J V@J V@J V@J V@J V@J V@J V@J V@J V@J V@J V@J V@J V@J V@J V@J V@J V@J V@J V@J V@J V@J V@J V@J V@J V@J V@J V@J V@J V@J V@J V@J V@J V@J V@J V@J V@J V@J V@J V@J V@J V@J V@J V@J V@J V@J V@J V@J V@J V@J V@J V@J V@J V@J V@J V@J V@J V@J V@J V@J V@J V@J V@J V@J V@J V@J V@J V@J V@J V@J V@J V@J V@J V@J V@J V@J V@J V@J V@J V@J V@J V@J V@J V@J V@J V@J V@J V@J V@J V@J V@J V@J V@J V@J V@J V@J V@J V@J 9**BE 9**BE 9**BE 9**BE 9**BE 9**BE 9**BE 9**BE 9**BE 9**BE 9**BE 9**BE 9**BE 9**BE 9**BE 9**BE 9**BE 9**BE 9**BE 9**BE 9**BE 9**BE 9**BE 9**BE 9**BE 9**BE 9**BE 9**BE 9**BE 9**BE 9**BE 9**BE 9**BE 9**BE 9**BE 9**BE 9**BE 9**BE 9**BE 9**BE 9**BE 9**BE 9**BE 9**BE 9**BE 9**BE 9**BE 9**BE 9**BE 9**BE 9**BE 9**BE 9**BE 9**BE 9**BE 9**BE 9**BE 9**BE 9**BE 9**BE 9**BE 9**BE 9**BE 9**BE 9**BE 9**BE 9**BE 9**BE 9**BE 9**BE 9**BE 9**BE 9**BE 9**BE 9**BE 9**BE 9**BE 9**BE 9**BE 9**BE 9**BE 9**BE 9**BE 9**BE 9**BE 9**BE 9**BE 9**BE 9**BE 9**BE 9**BE 9**BE 9**BE 9**BE 9**BE 9**BE 9**BE 9**BE 9**BE 9**BE 9**BE 9**BE 9**BE 9**BE 9**BE 9**BE 9**BE 9**BE 9**BE 9**BE 9**BE 9**BE 9**BE 9**BE 9**BE 9**BE 9**BE 9**BE 9**BE 9**BE 9**BE 9**BE 9**BE 9**BE 9**BE 9**BE 9**BE 9**BE 9**BE 9**BE 9**BE 9**BE 9**BE 9**BE 9**BE 9**BE 9**BE 9**BE 9**BE 9**BE 9**BE 9**BE 9**BE 9**BE 9**BE 9**BE 9**BE 9**BE 9**BE 9**BE 9**BE 9**BE 9**BE 9**BE 9**BE 9**BE 9**BE 9**BE 9**BE 9**BE 9**BE 9**BE 9**BE 9**BE 9**BE 9**BE 9**BE 9**BE 9**BE 9**BE 9**BE 9**BE 9**BE 9**BE 9**BE 9**BE 9**BE 9**BE 9**BE 9**BE 9**BE 9**BE 9**BE 9**BE 9**BE 9**BE 9**BE 9**BE 9**BE 9**BE 9**BE 9**BE 9**BE 9**BE 9**BE 9**BE 9**BE 9**BE 9**BE 9**BE 9**BE 9**BE 9**BE 9**BE 9**BE 9**BE 9**BE 9**BE 9**BE 9**BE 9**BE 9**BE 9**BE 9**BE 9**BE 9**BE 9**BE 9**BE 9**BE 9**BE 9**BE 9**BE 9**BE 9**BE 9**BE 9**BE 9**BE 9**BE 9**BE 9**BE 9**BE 9**BE 9**BE 9**BE 9**BE 9**BE 9**BE 9**BE 9**BE 9**BE 9**BE 9**BE 9**BE 9**BE 9**BE 9**BE 9**BE 9**BE 9**BE 9**BE 9**BE 9**BE 9**BE 9**BE 9**BE 9**BE 9**BE 9**BE 9**BE 9**BE 9**BE 9**BE 9**BE 9**BE 9**BE 9**BE 9**BE 9**BE 9**BE 9**BE 9**BE 9**BE 9**BE 9**BE 9**BE 9**BE 9**BE 9**BE 9**BE 9**BE 9**BE 9**BE 9**BE 9**BE 9**BE 9**BE 9**BE 9**BE 9**BE 9**BE 9**BE 9**BE 9**BE 9**BE 9**BE 9**BE 9**BE 9**BE 9**BE 9**BE 9**BE 9**BE 9**BE 9**BE 9**BE 9**BE 9**BE 9**BE 9**BE 9**BE 9**BE 9**BE 9**BE 9**BE 9**BE 9**BE 9**BE 9**BE 9**BE 9**BE 9**BE 9**BE 9**BE 9**BE 9**BE 9**BE 9**BE 9**BE 9**BE 9**BE 9**BE 9**BE 9**BE 9**BE 9**BE 9**BE 9**BE 9**BE 9**BE 9**BE 9**BE 9**BE 9**BE 9**BE 9**BE 9**BE 9**BE 9**BE 9**BE 9**BE 9**BE 9**BE 9**BE 9**BE 9**BE 9**BE 9**BE 9**BE 9BE 9BE 9BE 9BE 9BE 9BE 9BE 9BE 9BE 9BE 9BE 9BE 9BE 9BE 9BE 9BE 9BE 9BE 9BE 9BE 9BE 9BE 9BE 9BE 9BE 9BE 9BE 9BE 9BE 9BE 9BE 9BE 9BE 9BE 9BE 9BE 9BE 9BE 9BE 9BE 9BE 9BE 9BE 9BE 9BE 9BE 9BE 9BE 9BE 9BE 9BE 9BE 9BE 9BE 9BE 9BE 9BE 9BE 9BE 9BE 9BE 9BE 9BE 9BE 9BE 9BE 9BE 9BE 9BE 9BE 9BE 9BE 9BE 9BE 9BE 9BE 9BE 9BE 9BE 9BE 9BE 9BE 9BE 9BE 9BE 9BE 9BE 9BE 9BE 9BE 9BE 9BE 9BE 9BE 9BE 9BE 9BE 9BE 9BE 9BE 9BE 9BE 9BE 9BE 9BE 9BE 9BE 9BE 9BE 9BE 9BE 9BE 9BE 9BE 9BE 9BE 9BE 9BE 9BE 9BE 9BE 9BE 9BE 9BE 9BE 9BE 9BE 9BE 9BE 9BE 9BE 9BE 9BE 9BE 9BE 9BE 9BE 9BE 9BE 9BE 9BE 9BE 9BE 9BE 9BE 9BE 9BE 9BE 9BE 9BE 9BE 9BE 9BE 9BE 8((@D 8((@D 8((@D 8((@D 8((@D 8((@D 8((@D 8((@D 8((@D 8((@D 8((@D 8((@D 8((@D 8((@D 8((@D 8((@D 8((@D 8((@D 8((@D 8((@D 8((@D 8((@D 8((@D 8((@D 8((@D 8((@D 8((@D 8((@D 8((@D 8((@D 8((@D 8((@D 8((@D 8((@D 8((@D 8((@D 8((@D 8((@D 8((@D 8((@D 8((@D 8((@D 8((@D 8((@D 8((@D 8((@D 8((@D 8((@D 8((@D 8((@D 8((@D 8((@D 8((@D 8((@D 8((@D 8((@D 8((@D 8((@D 8((@D 8((@D 8((@D 8((@D 8((@D 8((@D 8((@D 8((@D 8((@D 8((@D 8((@D 8((@D 8((@D 8((@D 8((@D 8((@D 8((@D 8((@D 8((@D 8((@D 8((@D 8((@D 8((@D 8((@D 8((@D 8((@D 8((@D 8((@D 8((@D 8((@D 8((@D 8((@D 8((@D 8((@D 8((@D 8((@D 8((@D 8((@D 8((@D 8((@D 8((@D 8((@D 8((@D 8((@D 8((@D 8((@D 8((@D 8((@D 8((@D 8((@D 8((@D 8((@D 8((@D 8((@D 8((@D 8((@D 8((@D 8((@D 8((@D 8((@D 8((@D 8((@D 8((@D 8((@D 8((@D 8((@D 8((@D 8((@D 8((@D 8((@D 8((@D 8((@D 8((@D 8((@D 8((@D 8((@D 8((@D 8((@D 8((@D 8((@D 8((@D 8((@D 8((@D 8((@D 8((@D 8((@D 8((@D 8((@D 8((@D 8((@D 8((@D 8((@D 8((@D 8((@D 8((@D 8((@D 8((@D 8((@D 8((@D 8((@D 8((@D 8((@D 8((@D 8((@D 8((@D 8((@D 8((@D 8((@D 8((@D 8((@D 8((@D 8((@D 8((@D 8((@D 8((@D 8((@D 8((@D 8((@D 8((@D 8((@D 8((@D 8((@D 8((@D 8((@D 8((@D 8((@D 8((@D 8((@D 8((@D 8((@D 8((@D 8((@D 8((@D 8((@D 8((@D 8((@D 8((@D 8((@D 8((@D 8((@D 8((@D 8((@D 8((@D 8((@D 8((@D 8((@D 8((@D 8((@D 8((@D 8((@D 8((@D 8((@D 8((@D 8((@D 8((@D 8((@D 8((@D 8((@D 8((@D 8((@D 8((@D 8((@D 8((@D 8((@D 8((@D 8((@D 8((@D 8((@D 8((@D 8((@D 8((@D 8((@D 8((@D 8((@D 8((@D 8((@D 8((@D 8((@D 8((@D 8((@D 8((@D 8((@D 8((@D 8((@D 8((@D 8((@D 8((@D 8((@D 8((@D 8((@D 8((@D 8((@D 8((@D 8((@D 8((@D 8((@D 8((@D 8((@D G8((@D G8((@D G8((@D G8((@D G8((@D G8((@D G8((@D G8((@D G8((@D G8((@D G8((@D G8((@D G8((@D G8((@D G8((@D G8((@D G8((@D G8((@D G8((@D G8((@D G8((@D G8((@D G8((@D G8((@D G8((@D G8((@D G8((@D G8((@D G8((@D G8((@D G8((@D G8((@D G8((@D G8((@D G8((@D G8((@D G8((@D G8((@D G8((@D G8((@D G8((@D G8((@D G8((@D G8((@D G8((@D G8((@D G8((@D G8((@D G8((@D G8((@D G8((@D G8((@D G8((@D G8((@D G8((@D G8((@D G8((@D G8((@D G8((@D G8((@D G8((@D G8((@D G8((@D G8((@D G8((@D G8((@D G8((@D G8((@D G8((@D G8((@D G8((@D G8((@D G8((@D G8((@D G8((@D G8((@D G8((@D G8((@D G8((@D G8((@D G8((@D G8((@D G8((@D G8((@D G8((@D G8((@D G8((@D G8((@D G8((@D G8((@D G8((@D G8((@D G8((@D G8((@D G8((@D G8((@D G8((@D G8((@D G8((@D G8((@D G8((@D G8((@D G8@D G8@D G8@D G8@D G8@D G8@D G8@D G8@D G8@D G8@D G8@D G8@D G8@D G8@D G8@D G8@D G8@D G8@D G8@D G8@D G8@D G8@D G8@D G8@D G8@D G8@D G8@D G8@D G8@D G8@D G8@D G8@D G8@D G8@D G8@D G8@D G8@D G8@D G8@D G8@D G8@D G8@D G8@D G8@D G8@D G8@D G8@D G8@D G8@D G8@D G8@D G8@D G8@D G8@D G8@D G8@D G8@D G8@D G8@D G8@D G8@D G8@D G8@D G8@D G8@D G8@D G8@D G8@D G8@D G8@D G8@D G8@D G8@D G8@D G8@D G8@D G8@D G8@D G8@D G8@D G8@D G8@D G8@D G8@D G8@D G8@D G8@D G8@D G8@D G8@D G8@D G8@D G8@D G8@D G8@D G8@D G8@D G8@D G8@D G8@D G8@D G8@D G8@D G8@D G8@D G8@D G8@D G8@D G8@D G8@D G8@D G8@D G8@D G8@D G8@D G8@D G8@D G8@D G8@D G8@D G8@D G8@D G8@D G8@D G8@D G8@D G8@D G8@D G8@D G8@D G8@D G8@D G8@D G8@D G8@D G8@D G8@D G8@D G8@D G8@D G8@D G8@D G8@D G8@D G8@D G8@D G8@D G8@D G8@D G8@D G8@D G8@D G8@D G8@D E>44DG E>44DG E>44DG E>44DG E>44DG E>44DG E>44DG E>44DG E>44DG E>44DG E>44DG E>44DG E>44DG E>44DG E>44DG E>44DG E>44DG E>44DG E>44DG E>44DG E>44DG E>44DG E>44DG E>44DG E>44DG E>44DG E>44DG E>44DG E>44DG E>44DG E>44DG E>44DG E>44DG E>44DG E>44DG E>44DG E>44DG E>44DG E>44DG E>44DG E>44DG E>44DG E>44DG E>44DG E>44DG E>44DG E>44DG E>44DG E>44DG E>44DG E>44DG E>44DG E>44DG E>44DG E>44DG E>44DG E>44DG E>44DG E>44DG E>44DG E>44DG E>44DG E>44DG E>44DG E>44DG E>44DG E>44DG E>44DG E>44DG E>44DG E>44DG E>44DG E>44DG E>44DG E>44DG E>44DG E>44DG E>44DG E>44DG E>44DG E>44DG E>44DG E>44DG E>44DG E>44DG E>44DG E>44DG E>44DG E>44DG E>44DG E>44DG E>44DG E>44DG E>44DG E>44DG E>44DG E>44DG E>44DG E>44DG E>44DG E>44DG E>44DG E>44DG E>44DG E>44DG E>44DG E>44DG E>44DG E>44DG E>44DG E>44DG E>44DG E>44DG E>44DG E>44DG E>44DG E>44DG E>44DG E>44DG E>44DG E>44DG E>44DG E>44DG E>44DG E>44DG E>44DG E>44DG E>44DG E>44DG E>44DG E>44DG E>44DG E>44DG E>44DG E>44DG E>44DG E>44DG E>44DG E>44DG E>44DG E>44DG E>44DG E>44DG E>44DG E>44DG E>44DG E>44DG E>44DG E>44DG E>44DG E>44DG E>44DG E>44DG E>44DG E>44DG E>44DG E>44DG E>44DG E>44DG E>44DG E>44DG E>44DG E>44DG E>44DG E>44DG E>44DG E>44DG E>44DG E>44DG E>44DG E>44DG E>44DG E>44DG E>44DG E>44DG E>44DG E>44DG E>44DG E>44DG E>44DG E>44DG E>44DG E>44DG E>44DG E>44DG E>44DG E>44DG E>44DG E>44DG E>44DG E>44DG E>44DG E>44DG E>44DG E>44DG E>44DG E>44DG E>44DG E>44DG E>44DG E>44DG E>44DG E>44DG E>44DG E>44DG E>44DG E>44DG E>44DG E>44DG E>44DG E>44DG E>44DG E>44DG E>44DG E>44DG E>44DG E>44DG E>44DG E>44DG E>44DG E>44DG E>44DG E>44DG E>44DG E>44DG E>44DG E>44DG E>44DG E>44DG E>44DG E>44DG E>44DG E>44DG E>44DG E>44DG E>44DG E>44DG E>44DG E>44DG E>44DG E>44DG E>44DG E>44DG E>44DG E>44DG E>44DG E>44DG E>44DG E>44DG E>44DG E>44DG E>44DG E>44DG E>44DG E>44DG E>44DG D>44DG D>44DG D>44DG D>44DG D>44DG D>44DG D>44DG D>44DG D>44DG D>44DG D>44DG D>44DG D>44DG D>44DG D>44DG D>44DG D>44DG D>44DG D>44DG D>44DG D>44DG D>44DG D>44DG D>44DG D>44DG D>44DG D>44DG D>44DG D>44DG D>44DG D>44DG D>44DG D>44DG D>44DG D>44DG D>44DG D>44DG D>44DG D>44DG D>44DG D>44DG D>44DG D>44DG D>44DG D>44DG D>44DG D>44DG D>44DG D>44DG D>44DG D>44DG D>44DG D>44DG D>44DG D>44DG D>44DG D>44DG D>44DG D>44DG D>44DG D>44DG D>44DG D>44DG D>44DG D>44DG D>44DG D>44DG D>44DG D>44DG D>44DG D>44DG D>44DG D>44DG D>44DG D>44DG D>44DG D>44DG D>44DG D>44DG D>44DG D>44DG D>44DG D>44DG D>44DG D>44DG D>44DG D>44DG D>44DG D>44DG D>44DG D>44DG D>44DG D>44DG D>44DG D>44DG D>44DG D>44DG D>44DG D>44DG D>44DG D>44DG D>44DG D>DG D>DG D>DG D>DG D>DG D>DG D>DG D>DG D>DG D>DG D>DG D>DG D>DG D>DG D>DG D>DG D>DG D>DG D>DG D>DG D>DG D>DG D>DG D>DG D>DG D>DG D>DG D>DG D>DG D>DG D>DG D>DG D>DG D>DG D>DG D>DG D>DG D>DG D>DG D>DG D>DG D>DG D>DG D>DG D>DG D>DG D>DG D>DG D>DG D>DG D>DG D>DG D>DG D>DG D>DG D>DG D>DG D>DG D>DG D>DG D>DG D>DG D>DG D>DG D>DG D>DG D>DG D>DG D>DG D>DG D>DG D>DG D>DG D>DG D>DG D>DG D>DG D>DG D>DG D>DG D>DG D>DG D>DG D>DG D>DG D>DG D>DG D>DG D>DG D>DG D>DG D>DG D>DG D>DG D>DG D>DG D>DG D>DG D>DG D>DG D>DG D>DG D>DG D>DG D>DG D>DG D>DG D>DG D>DG D>DG D>DG D>DG D>DG D>DG D>DG D>DG D>DG D>DG D>DG D>DG D>DG D>DG D>DG D>DG D>DG D>DG D>DG D>DG D>DG D>DG D>DG D>DG D>DG D>DG D>DG D>DG D>DG D>DG D>DG D>DG D>DG D>DG D>DG D>DG D>DG D>DG D>DG D>DG D>DG D>DG D>DG D>DG D>DG D>DG E=--EI E=--EI E=--EI E=--EI E=--EI E=--EI E=--EI E=--EI E=--EI E=--EI E=--EI E=--EI E=--EI E=--EI E=--EI E=--EI E=--EI E=--EI E=--EI E=--EI E=--EI E=--EI E=--EI E=--EI E=--EI E=--EI E=--EI E=--EI E=--EI E=--EI E=--EI E=--EI E=--EI E=--EI E=--EI E=--EI E=--EI E=--EI E=--EI E=--EI E=--EI E=--EI E=--EI E=--EI E=--EI E=--EI E=--EI E=--EI E=--EI E=--EI E=--EI E=--EI E=--EI E=--EI E=--EI E=--EI E=--EI E=--EI E=--EI E=--EI E=--EI E=--EI E=--EI E=--EI E=--EI E=--EI E=--EI E=--EI E=--EI E=--EI E=--EI E=--EI E=--EI E=--EI E=--EI E=--EI E=--EI E=--EI E=--EI E=--EI E=--EI E=--EI E=--EI E=--EI E=--EI E=--EI E=--EI E=--EI E=--EI E=--EI E=--EI E=--EI E=--EI E=--EI E=--EI E=--EI E=--EI E=--EI E=--EI E=--EI E=--EI E=--EI E=--EI E=--EI E=--EI E=--EI E=--EI E=--EI E=--EI E=--EI E=--EI E=--EI E=--EI E=--EI E=--EI E=--EI E=--EI E=--EI E=--EI E=--EI E=--EI E=--EI E=--EI E=--EI E=--EI E=--EI E=--EI E=--EI E=--EI E=--EI E=--EI E=--EI E=--EI E=--EI E=--EI E=--EI E=--EI E=--EI E=--EI E=--EI E=--EI E=--EI E=--EI E=--EI E=--EI E=--EI E=--EI E=--EI E=--EI E=--EI E=--EI E=--EI E=--EI E=--EI E=--EI E=--EI E=--EI E=--EI E=--EI E=--EI E=--EI E=--EI E=--EI E=--EI E=--EI E=--EI E=--EI E=--EI E=--EI E=--EI E=--EI E=--EI E=--EI E=--EI E=--EI E=--EI E=--EI E=--EI E=--EI E=--EI E=--EI E=--EI E=--EI E=--EI E=--EI E=--EI E=--EI E=--EI E=--EI E=--EI E=--EI E=--EI E=--EI E=--EI E=--EI E=--EI E=--EI E=--EI E=--EI E=--EI E=--EI E=--EI E=--EI E=--EI E=--EI E=--EI E=--EI E=--EI E=--EI E=--EI E=--EI E=--EI E=--EI E=--EI E=--EI E=--EI E=--EI E=--EI E=--EI E=--EI E=--EI E=--EI E=--EI E=--EI E=--EI E=--EI E=--EI E=--EI E=--EI E=--EI E=--EI E=--EI E=--EI E=--EI E=--EI E=--EI E=--EI E=--EI E=--EI E=--EI E=--EI E=--EI E=--EI E=--EI E=--EI E=--EI E=--EI E=--EI E=--EI E=--EI E=--EI E=--EI E=--EI E=--EI E=--EI E=--EI I=--EI I=--EI I=--EI I=--EI I=--EI I=--EI I=--EI I=--EI I=--EI I=--EI I=--EI I=--EI I=--EI I=--EI I=--EI I=--EI I=--EI I=--EI I=--EI I=--EI I=--EI I=--EI I=--EI I=--EI I=--EI I=--EI I=--EI I=--EI I=--EI I=--EI I=--EI I=--EI I=--EI I=--EI I=--EI I=--EI I=--EI I=--EI I=--EI I=--EI I=--EI I=--EI I=--EI I=--EI I=--EI I=--EI I=--EI I=--EI I=--EI I=--EI I=--EI I=--EI I=--EI I=--EI I=--EI I=--EI I=--EI I=--EI I=--EI I=--EI I=--EI I=--EI I=--EI I=--EI I=--EI I=--EI I=--EI I=--EI I=--EI I=--EI I=--EI I=--EI I=--EI I=--EI I=--EI I=--EI I=--EI I=--EI I=--EI I=--EI I=--EI I=--EI I=--EI I=--EI I=--EI I=--EI I=--EI I=--EI I=--EI I=--EI I=--EI I=--EI I=--EI I=--EI I=--EI I=--EI I=--EI I=--EI I=--EI I=--EI I=--EI I=--EI I=--EI I=--EI I=--EI I=--EI I=--EI I=--EI I=--EI I=--EI I=--EI I=--EI I=--EI I=--EI I=--EI I=--EI I=--EI I=--EI I=--EI I=--EI I=--EI I=--EI I=--EI I=--EI I=--EI I=--EI I=--EI I=--EI I=--EI I=--EI I=--EI I=--EI I=--EI I=--EI I=--EI I=--EI I=--EI I=--EI I=--EI I=--EI I=--EI I=--EI I=--EI I=--EI I=--EI I=--EI I=--EI I=--EI I=--EI I=--EI I=--EI I=--EI I=--EI I=--EI I=--EI I=--EI I=--EI I=--EI I=--EI I=--EI I=--EI I=--EI I=--EI I=--EI I=--EI I=--EI I=--EI I=--EI I=--EI I=--EI I=--EI I=--EI I=--EI I=--EI I=--EI I=--EI I=--EI I=--EI I=--EI I=--EI I=--EI I=--EI I=--EI I=--EI I=--EI I=--EI I=--EI I=--EI I=--EI I=--EI I=--EI I=--EI I=--EI I=--EI I=--EI I=--EI I=--EI I=--EI I=--EI I=--EI I=--EI I=--EI I=--EI I=--EI I=--EI I=--EI I=--EI I=--EI I=--EI I=--EI I=--EI I=--EI I=--EI I=--EI I=--EI I=--EI I=--EI I=--EI I=--EI I=--EI I=--EI I=--EI I=--EI I=--EI I=--EI I=--EI I=--EI I=--EI I=--EI I=--EI I=--EI I=--EI I=--EI I=--EI I=--EI I=--EI I=--EI I=--EI I=--EI I=--EI I=--EI I=--EI I=--EI I=--EI I=--EI I=--EI I=--EI I=--EI I=--EI I=--EI I=--EI I=--EI I=--EI I=--EI I=--EI I=--EI L>--EI L>--EI L>--EI L>--EI L>--EI L>--EI L>--EI L>--EI L>--EI L>--EI L>--EI L>--EI L>--EI L>--EI L>--EI L>--EI L>--EI L>--EI L>--EI L>--EI L>--EI L>--EI L>--EI L>--EI L>--EI L>--EI L>--EI L>--EI L>--EI L>--EI L>--EI L>--EI L>--EI L>--EI L>--EI L>--EI L>--EI L>--EI L>--EI L>--EI L>--EI L>--EI L>--EI L>--EI L>--EI L>--EI L>--EI L>--EI L>--EI L>--EI L>--EI L>--EI L>--EI L>--EI L>--EI L>--EI L>--EI L>--EI L>--EI L>--EI L>--EI L>--EI L>--EI L>--EI L>--EI L>--EI L>--EI L>--EI L>--EI L>--EI L>--EI L>--EI L>--EI L>--EI L>--EI L>--EI L>--EI L>--EI L>--EI L>--EI L>--EI L>--EI L>--EI L>--EI L>--EI L>--EI L>--EI L>--EI L>--EI L>--EI L>--EI L>--EI L>--EI L>--EI L>--EI L>--EI L>--EI L>--EI L>--EI L>--EI L>--EI L>--EI L>--EI L>--EI L>--EI L>--EI L>--EI L>--EI L>--EI L>--EI L>--EI L>--EI L>--EI L>--EI L>--EI L>--EI L>--EI L>--EI L>--EI L>--EI L>--EI L>--EI L>--EI L>--EI L>--EI L>--EI L>--EI L>--EI L>--EI L>--EI L>--EI L>--EI L>--EI L>--EI L>--EI L>--EI L>--EI L>--EI L>--EI L>--EI L>--EI L>--EI L>--EI L>--EI L>--EI L>--EI L>--EI L>--EI L>--EI L>--EI L>--EI L>--EI L>--EI L>--EI L>--EI L>--EI L>--EI L>--EI L>--EI L>--EI L>--EI L>--EI L>--EI L>--EI L>--EI L>--EI L>--EI L>--EI L>--EI L>--EI L>--EI L>--EI L>--EI L>--EI L>--EI L>--EI L>--EI L>--EI L>--EI L>--EI L>--EI L>--EI L>--EI L>--EI L>--EI L>--EI L>--EI L>--EI L>--EI L>--EI L>--EI L>--EI L>--EI L>--EI L>--EI L>--EI L>--EI L>--EI L>--EI L>--EI L>--EI L>--EI L>--EI L>--EI L>--EI L>--EI L>--EI L>--EI L>--EI L>--EI L>--EI L>--EI L>--EI L>--EI L>--EI L>--EI L>--EI L>--EI L>--EI L>--EI L>--EI L>--EI L>--EI L>--EI L>--EI L>--EI L>--EI L>--EI L>--EI L>--EI L>--EI L>--EI L>--EI L>--EI L>--EI L>--EI L>--EI L>--EI L>--EI L>--EI L>--EI L>--EI L>--EI L>--EI L>--EI L>--EI L>--EI L>--EI L>--EI L>--EI L>--EI L>--EI L>--EI L>--EI L>--EI L>--EI P;--EI P;--EI P;--EI P;--EI P;--EI P;--EI P;--EI P;--EI P;--EI P;--EI P;--EI P;--EI P;--EI P;--EI P;--EI P;--EI P;--EI P;--EI P;--EI P;--EI P;--EI P;--EI P;--EI P;--EI P;--EI P;--EI P;--EI P;--EI P;--EI P;--EI P;--EI P;--EI P;--EI P;--EI P;--EI P;--EI P;--EI P;--EI P;--EI P;--EI P;--EI P;--EI P;--EI P;--EI P;--EI P;--EI P;--EI P;--EI P;--EI P;--EI P;--EI P;--EI P;--EI P;--EI P;--EI P;--EI P;--EI P;--EI P;--EI P;--EI P;--EI P;--EI P;--EI P;--EI P;--EI P;--EI P;--EI P;--EI P;--EI P;--EI P;--EI P;--EI P;--EI P;--EI P;--EI P;--EI P;--EI P;--EI P;--EI P;--EI P;--EI P;--EI P;--EI P;--EI P;--EI P;--EI P;--EI P;--EI P;--EI P;--EI P;--EI P;--EI P;--EI P;--EI P;--EI P;--EI P;--EI P;--EI P;--EI P;--EI P;--EI P;--EI P;--EI P;--EI P;--EI P;--EI P;--EI P;--EI P;--EI P;--EI P;--EI P;--EI P;--EI P;--EI P;--EI P;--EI P;--EI P;--EI P;--EI P;--EI P;--EI P;--EI P;--EI P;--EI P;--EI P;--EI P;--EI P;--EI P;--EI P;--EI P;--EI P;--EI P;--EI P;--EI P;--EI P;--EI P;--EI P;--EI P;--EI P;--EI P;--EI P;--EI P;--EI P;--EI P;--EI P;--EI P;--EI P;--EI P;--EI P;--EI P;--EI P;--EI P;--EI P;--EI P;EI P;EI P;EI P;EI P;EI P;EI P;EI P;EI P;EI P;EI P;EI P;EI P;EI P;EI P;EI P;EI P;EI P;EI P;EI P;EI P;EI P;EI P;EI P;EI P;EI P;EI P;EI P;EI P;EI P;EI P;EI P;EI P;EI P;EI P;EI P;EI P;EI P;EI P;EI P;EI P;EI P;EI P;EI P;EI P;EI P;EI P;EI P;EI P;EI P;EI P;EI P;EI P;EI P;EI P;EI P;EI P;EI P;EI P;EI P;EI P;EI P;EI P;EI P;EI P;EI P;EI P;EI P;EI P;EI P;EI P;EI P;EI P;EI P;EI P;EI P;EI P;EI P;EI P;EI P;EI P;EI P;EI P;EI P;EI P;EI P;EI P;EI P;EI P;EI P;EI P;EI P;EI P;EI P;EI P;EI P;EI P;EI P;EI P;EI P;EI P;EI P;EI Q= Q= Q= Q= Q= Q= Q= Q= Q= Q= Q= Q= Q= Q= Q= Q= Q= Q= Q= Q= Q= Q= Q= Q= Q= Q= Q= Q= Q= Q= Q= Q= Q= Q= Q= Q= Q= Q= Q= Q= Q= Q= Q= Q= Q= Q= Q= Q= Q= Q= Q= Q= Q= Q= Q= Q= Q= Q= Q= Q= Q= Q= Q= Q= Q= Q= Q= Q= Q= Q= Q= Q= Q= Q= Q= Q= Q= Q= Q= Q= Q= Q= Q= Q= Q= Q= Q= Q= Q= Q= Q= Q= Q= Q= Q= Q= Q= Q= Q= Q= Q= Q= Q= Q= Q= Q= Q= Q= Q= Q= Q= Q= Q= Q= Q= Q= Q= Q= Q= Q= Q= Q= Q= Q= Q= Q= Q= Q= Q= Q= Q= Q= Q= Q= Q= Q= Q= Q= Q= Q= Q= Q= Q= Q= Q= Q= Q= Q= Q= Q= Q= Q= Q= Q= Q= Q= Q= Q= Q= Q= Q= Q= Q= Q= Q= Q= Q= Q= Q= Q= Q= Q= Q= Q= Q= Q= Q= Q= Q= Q= Q= Q= Q= Q= Q= Q= Q= Q= Q= Q= Q= Q= Q= Q= Q= Q= Q= Q= Q= Q= Q= Q= Q= Q= Q= Q= Q= Q= Q= Q= Q= Q= Q= Q= Q= Q= Q= Q= Q= Q= Q= Q= Q= Q= Q= Q= Q= Q= Q= Q= Q= Q= Q= Q= Q= Q= Q= Q= Q= Q= Q= Q= Q= Q= Q= Q= Q= Q= Q= Q= Q= Q= Q= Q= Q= Q= Q= Q= Q= Q= Q= Q= Q= Q= Q= Q= Q= Q= Q= Q= Q= Q= Q= Q= Q= Q= Q= Q= Q= Q= Q= Q= Q= Q= Q= Q= Q= Q= Q= Q= Q= Q= Q= Q= Q= Q= Q= Q= Q= Q= Q= Q= Q= Q= Q= Q= Q= Q= Q= Q= Q= Q= Q= Q= Q= Q= Q= Q= Q= Q= Q= Q= Q= Q= Q= Q= Q= Q= Q= Q= Q= Q= Q= Q= Q= Q= Q= Q= Q= Q= Q= Q= Q= Q= Q= Q= Q= Q= Q= Q= Q= Q= Q= Q= Q= Q= Q= Q= Q= Q= Q= Q= Q= Q= Q= Q= Q= Q= Q= Q= Q= Q= Q= Q= Q= Q= Q= Q= Q= Q= Q= Q= Q= Q= Q= Q= Q= Q= Q= Q= Q= Q= Q= Q= Q= Q= Q= Q= Q= Q= Q= Q= Q= Q= Q= Q= Q= Q= Q= Q= Q= Q= Q= Q= Q= Q= Q= Q= Q= Q= Q= Q= Q= Q= Q= Q= Q= Q= Q= Q= Q= Q= Q= Q= Q= Q= Q= Q= Q= Q= Q= Q= Q= Q= Q= Q= Q= Q= Q= Q= Q= Q= Q= Q= Q= Q= Q= Q= Q= Q= Q= Q= Q= Q= Q= Q= Q= Q= Q= Q= Q= Q= Q= Q= Q= Q= Q= Q= Q= Q= Q= Q= Q= Q= Q= Q= Q= Q= Q= Q= Q= Q= Q= Q= Q= Q= Q= Q= Q= Q= Q= Q= Q= Q= Q= Q= Q= Q= Q= Q= Q= Q= =//>B =//>B =//>B =//>B =//>B =//>B =//>B =//>B =//>B =//>B =//>B =//>B =//>B =//>B =//>B =//>B =//>B =//>B =//>B =//>B =//>B =//>B =//>B =//>B =//>B =//>B =//>B =//>B =//>B =//>B =//>B =//>B =//>B =//>B =//>B =//>B =//>B =//>B =//>B =//>B =//>B =//>B =//>B =//>B =//>B =//>B =//>B =//>B =//>B =//>B =//>B =//>B =//>B =//>B =//>B =//>B =//>B =//>B =//>B =//>B =//>B =//>B =//>B =//>B =//>B =//>B =//>B =//>B =//>B =//>B =//>B =//>B =//>B =//>B =//>B =//>B =//>B =//>B =//>B =//>B =//>B =//>B =//>B =//>B =//>B =//>B =//>B =//>B =//>B =//>B =//>B =//>B =//>B =//>B =//>B =//>B =//>B =//>B =//>B =//>B =//>B =//>B =//>B =//>B =//>B =//>B =//>B =//>B =//>B =//>B =//>B =//>B =//>B =//>B =//>B =//>B =//>B =//>B =//>B =//>B =//>B =//>B =//>B =//>B =//>B =//>B =//>B =//>B =//>B =//>B =//>B =//>B =//>B =//>B =//>B =//>B =//>B =//>B =//>B =//>B =//>B =//>B =//>B =//>B =//>B =//>B =//>B =//>B =//>B =//>B =//>B =//>B =//>B =//>B =//>B =//>B =//>B =//>B =//>B =//>B =//>B =//>B =//>B =//>B =//>B =//>B =//>B =//>B =//>B =//>B =//>B =//>B =//>B =//>B =//>B =//>B =//>B =//>B =//>B =//>B =//>B =//>B =//>B =//>B =//>B =//>B =//>B =//>B =//>B =//>B =//>B =//>B =//>B =//>B =//>B =//>B =//>B =//>B =//>B =//>B =//>B =//>B =//>B =//>B =//>B =//>B =//>B =//>B =//>B =//>B =//>B =//>B =//>B =//>B =//>B =//>B =//>B =//>B =//>B =//>B =//>B =//>B =//>B =//>B =//>B =//>B =//>B =//>B =//>B =//>B =//>B =//>B =//>B =//>B =//>B =//>B =//>B =//>B =//>B =//>B =//>B =//>B =//>B =//>B =//>B =//>B =//>B =//>B =//>B =//>B =//>B =//>B =//>B =//>B =//>B =//>B >//>B >//>B >//>B >//>B >//>B >//>B >//>B >//>B >//>B >//>B >//>B >//>B >//>B >//>B >//>B >//>B >//>B >//>B >//>B >//>B >//>B >//>B >//>B >//>B >//>B >//>B >//>B >//>B >//>B >//>B >//>B >//>B >//>B >//>B >//>B >//>B >//>B >//>B >//>B >//>B >//>B >//>B >//>B >//>B >//>B >//>B >//>B >//>B >//>B >//>B >//>B >//>B >//>B >//>B >//>B >//>B >//>B >//>B >//>B >//>B >//>B >//>B >//>B >//>B >//>B >//>B >//>B >//>B >//>B >//>B >//>B >//>B >//>B >//>B >//>B >//>B >//>B >//>B >//>B >//>B >//>B >//>B >//>B >//>B >//>B >//>B >//>B >//>B >//>B >//>B >//>B >//>B >//>B >//>B >//>B >//>B >//>B >//>B >//>B >//>B >//>B >//>B >>B >>B >>B >>B >>B >>B >>B >>B >>B >>B >>B >>B >>B >>B >>B >>B >>B >>B >>B >>B >>B >>B >>B >>B >>B >>B @>B @>B @>B @>B @>B @>B @>B @>B @>B @>B @>B @>B @>B @>B @>B @>B @>B @>B @>B @>B @>B @>B @>B @>B @>B @>B @>B @>B @>B @>B @>B @>B @>B @>B @>B @>B @>B @>B @>B @>B @>B @>B @>B @>B @>B @>B @>B @>B @>B @>B @>B @>B @>B @>B @>B @>B @>B @>B @>B @>B @>B @>B @>B @>B @>B @>B @>B @>B @>B @>B @>B @>B @>B @>B @>B @>B @>B @>B @>B @>B @>B @>B @>B @>B @>B @>B @>B @>B @>B @>B @>B @>B @>B @>B @>B @>B @>B @>B @>B @>B @>B @>B @>B @>B @>B @>B @>B @>B @>B @>B @>B @>B @>B @>B @>B >B >B >B >B >B >B >B >B >B >B >B >B >B 911@C 911@C 911@C 911@C 911@C 911@C 911@C 911@C 911@C 911@C 911@C 911@C 911@C 911@C 911@C 911@C 911@C 911@C 911@C 911@C 911@C 911@C 911@C 911@C 911@C 911@C 911@C 911@C 911@C 911@C 911@C 911@C 911@C 911@C 911@C 911@C 911@C 911@C 911@C 911@C 911@C 911@C 911@C 911@C 911@C 911@C 911@C 911@C 911@C 911@C 911@C 911@C 911@C 911@C 911@C 911@C 911@C 911@C 911@C 911@C 911@C 911@C 911@C 911@C 911@C 911@C 911@C 911@C 911@C 911@C 911@C 911@C 911@C 911@C 911@C 911@C 911@C 911@C 911@C 911@C 911@C 911@C 911@C 911@C 911@C 911@C 911@C 911@C 911@C 911@C 911@C 911@C 911@C 911@C 911@C 911@C 911@C 911@C 911@C 911@C 911@C 911@C 911@C 911@C 911@C 911@C 911@C 911@C 911@C 911@C 911@C 911@C 911@C 911@C 911@C 911@C 911@C 911@C 911@C 911@C 911@C 911@C 911@C 911@C 911@C 911@C 911@C 911@C 911@C 911@C 911@C 911@C 911@C 911@C 911@C 911@C 911@C 911@C 911@C 911@C 911@C 911@C 911@C 911@C 911@C 911@C 911@C 911@C 911@C 911@C 911@C 911@C 911@C 911@C 911@C 911@C 911@C 911@C 911@C 911@C 911@C 911@C 911@C 911@C 911@C 911@C 911@C 911@C 911@C 911@C 911@C 911@C 911@C 911@C 911@C 911@C 911@C 911@C 911@C 911@C 911@C 911@C 911@C 911@C 911@C 911@C 911@C 911@C 911@C 911@C 911@C 911@C 911@C 911@C 911@C 911@C 911@C 911@C 911@C 911@C 911@C 911@C 911@C 911@C 911@C 911@C 911@C 911@C 911@C 911@C 911@C 911@C 911@C 911@C 911@C 911@C 911@C 911@C 911@C 911@C 911@C 911@C 911@C 911@C 911@C 911@C 911@C 911@C 911@C 911@C 911@C 911@C 911@C 911@C 911@C 911@C 911@C 911@C 911@C 911@C 911@C 911@C 911@C 911@C 911@C 911@C 911@C 911@C 911@C 911@C 911@C 911@C 911@C 911@C 911@C 911@C 911@C 911@C 911@C 911@C 911@C 911@C 911@C 911@C 911@C 911@C 911@C 911@C 911@C 911@C 911@C 911@C 911@C 911@C 911@C 911@C 911@C 911@C 911@C 911@C 911@C 911@C 911@C 911@C 911@C 911@C 911@C 911@C 911@C 911@C 911@C 911@C 911@C 911@C 911@C 911@C 911@C 911@C 911@C 911@C 911@C 911@C 911@C 911@C 911@C 911@C 911@C 911@C 911@C 911@C 911@C 911@C 911@C 911@C 911@C 911@C 911@C 911@C 911@C 911@C 911@C 911@C 911@C 911@C 911@C 911@C 911@C 911@C 911@C 911@C 911@C 911@C 911@C 911@C 911@C 911@C 911@C 911@C 911@C 911@C 911@C 911@C 911@C 911@C 911@C 911@C 911@C 911@C 911@C 911@C 911@C 911@C 911@C 911@C 911@C 911@C 911@C 911@C 9@C 9@C 9@C 9@C 9@C 9@C 9@C 9@C 9@C 9@C 9@C 9@C 9@C 9@C 9@C 9@C 9@C 9@C 9@C 9@C 9@C 9@C 9@C 9@C 9@C 9@C 9@C 9@C 9@C 9@C 9@C 9@C 9@C 9@C 9@C 9@C 9@C 9@C 9@C 9@C 9@C 9@C 9@C 9@C 9@C 9@C 9@C 9@C 9@C 9@C 9@C 9@C 9@C 9@C 9@C 9@C 9@C 9@C 9@C 9@C 9@C 9@C 9@C 9@C 9@C 9@C 9@C 9@C 9@C 9@C 9@C 9@C 9@C 9@C 9@C 9@C 9@C 9@C 9@C 9@C 9@C 9@C 9@C 9@C 9@C 9@C 9@C 9@C 9@C 9@C 9@C 9@C 9@C 9@C 9@C 9@C 9@C 9@C 9@C 9@C 9@C 9@C 9@C 9@C 9@C 9@C 9@C 9@C 9@C 9@C 9@C 9@C 9@C 9@C 9@C 9@C 9@C 9@C 9@C 9@C 9@C 9@C 9@C 9@C 9@C 9@C 9@C 9@C 9@C 9@C 9@C 9@C 9@C 9@C 9@C 9@C 9@C 9@C 9@C 9@C 9@C 9@C 9@C 9@C 9@C 9@C 9@C 9@C 9@C 9@C 9@C 9@C 9@C 9@C =//@C =//@C =//@C =//@C =//@C =//@C =//@C =//@C =//@C =//@C =//@C =//@C =//@C =//@C =//@C =//@C =//@C =//@C =//@C =//@C =//@C =//@C =//@C =//@C =//@C =//@C =//@C =//@C =//@C =//@C =//@C =//@C =//@C =//@C =//@C =//@C =//@C =//@C =//@C =//@C =//@C =//@C =//@C =//@C =//@C =//@C =//@C =//@C =//@C =//@C =//@C =//@C =//@C =//@C =//@C =//@C =//@C =//@C =//@C =//@C =//@C =//@C =//@C =//@C =//@C =//@C =//@C =//@C =//@C =//@C =//@C =//@C =//@C =//@C =//@C =//@C =//@C =//@C =//@C =//@C =//@C =//@C =//@C =//@C =//@C =//@C =//@C =//@C =//@C =//@C =//@C =//@C =//@C =//@C =//@C =//@C =//@C =//@C =//@C =//@C =//@C =//@C =//@C =//@C =//@C =//@C =//@C =//@C =//@C =//@C =//@C =//@C =//@C =//@C =//@C =//@C =//@C =//@C =//@C =//@C =//@C =//@C =//@C =//@C =//@C =//@C =//@C =//@C =//@C =//@C =//@C =//@C =//@C =//@C =//@C =//@C =//@C =//@C =//@C =//@C =//@C =//@C =//@C =//@C =//@C =//@C =//@C =//@C =//@C =//@C =//@C =//@C =//@C =//@C =//@C =//@C =//@C =//@C =//@C =//@C =//@C =//@C =//@C =//@C =//@C =//@C =//@C =//@C =//@C =//@C =//@C =//@C =//@C =//@C =//@C =//@C =//@C =//@C =//@C =//@C =//@C =//@C =//@C =//@C =//@C =//@C =//@C =//@C =//@C =//@C =//@C =//@C =//@C =//@C =//@C =//@C =//@C =//@C =//@C =//@C =//@C =//@C =//@C =//@C =//@C =//@C =//@C =//@C =//@C =//@C =//@C =//@C =//@C =//@C =//@C =//@C =//@C =//@C =//@C =//@C =//@C =//@C =//@C =//@C =//@C =//@C =//@C =//@C =//@C =//@C =//@C =//@C =//@C =//@C =//@C =//@C =//@C =//@C =//@C =//@C =//@C =//@C =//@C =//@C =//@C =//@C =//@C =//@C =//@C =//@C =//@C =//@C =//@C =//@C =//@C =//@C @//@C @//@C @//@C @//@C @//@C @//@C @//@C @//@C @//@C @//@C @//@C @//@C @//@C @//@C @//@C @//@C @//@C @//@C @//@C @//@C @//@C @//@C @//@C @//@C @//@C @//@C @//@C @//@C @//@C @//@C @//@C @//@C @//@C @//@C @//@C @//@C @//@C @//@C @//@C @//@C @//@C @//@C @//@C @//@C @//@C @//@C @//@C @//@C @//@C @//@C @//@C @//@C @//@C @//@C @//@C @//@C @//@C @//@C @//@C @//@C @//@C @//@C @//@C @//@C @//@C @//@C @//@C @//@C @//@C @//@C @//@C @//@C @//@C @//@C @//@C @//@C @//@C @//@C @//@C @//@C @//@C @//@C @//@C @//@C @//@C @//@C @//@C @//@C @//@C @//@C @//@C @//@C @//@C @//@C @//@C @//@C @//@C @//@C @//@C @//@C @//@C @//@C @@C @@C @@C @@C @@C @@C @@C @@C @@C @@C @@C @@C @@C @@C @@C @@C @@C @@C @@C @@C @@C @@C @@C @@C @@C @@C @@C @@C @@C @@C @@C @@C @@C @@C @@C @@C @@C @@C @@C @@C @@C @@C @@C @@C @@C @@C @@C @@C @@C @@C @@C @@C @@C @@C @@C @@C @@C @@C @@C @@C @@C @@C @@C @@C @@C @@C @@C @@C @@C @@C @@C @@C @@C @@C @@C @@C @@C @@C @@C @@C @@C @@C @@C @@C @@C @@C @@C @@C @@C @@C @@C @@C @@C @@C @@C @@C @@C @@C @@C @@C @@C @@C @@C @@C @@C @@C @@C @@C @@C @@C @@C @@C @@C @@C @@C @@C @@C @@C @@C @@C @@C @@C @@C @@C @@C @@C @@C @@C @@C @@C @@C @@C @@C @@C @@C @@C @@C @@C @@C @@C @@C @@C @@C @@C @@C @@C @@C @@C @@C @@C @@C @@C @@C @@C C..@C C..@C C..@C C..@C C..@C C..@C C..@C C..@C C..@C C..@C C..@C C..@C C..@C C..@C C..@C C..@C C..@C C..@C C..@C C..@C C..@C C..@C C..@C C..@C C..@C C..@C C..@C C..@C C..@C C..@C C..@C C..@C C..@C C..@C C..@C C..@C C..@C C..@C C..@C C..@C C..@C C..@C C..@C C..@C C..@C C..@C C..@C C..@C C..@C C..@C C..@C C..@C C..@C C..@C C..@C C..@C C..@C C..@C C..@C C..@C C..@C C..@C C..@C C..@C C..@C C..@C C..@C C..@C C..@C C..@C C..@C C..@C C..@C C..@C C..@C C..@C C..@C C..@C C..@C C..@C C..@C C..@C C..@C C..@C C..@C C..@C C..@C C..@C C..@C C..@C C..@C C..@C C..@C C..@C C..@C C..@C C..@C C..@C C..@C C..@C C..@C C..@C C..@C C..@C C..@C C..@C C..@C C..@C C..@C C..@C C..@C C..@C C..@C C..@C C..@C C..@C C..@C C..@C C..@C C..@C C..@C C..@C C..@C C..@C C..@C C..@C C..@C C..@C C..@C C..@C C..@C C..@C C..@C C..@C C..@C C..@C C..@C C..@C C..@C C..@C C..@C C..@C C..@C C..@C C..@C C..@C C..@C C..@C C..@C C..@C C..@C C..@C C..@C C..@C C..@C C..@C C..@C C..@C C..@C C..@C C..@C C..@C C..@C C..@C C..@C C..@C C..@C C..@C C..@C C..@C C..@C C..@C C..@C C..@C C..@C C..@C C..@C C..@C C..@C C..@C C..@C C..@C C..@C C..@C C..@C C..@C C..@C C..@C C..@C C..@C C..@C C..@C C..@C C..@C C..@C C..@C C..@C C..@C C..@C C..@C C..@C C..@C C..@C C..@C C..@C C..@C C..@C C..@C C..@C C..@C C..@C C..@C C..@C C..@C C..@C C..@C C..@C C..@C C..@C C..@C C..@C C..@C C..@C C..@C C..@C C..@C C..@C C..@C C..@C C..@C C..@C C..@C C..@C C..@C C..@C C..@C C..@C C..@C C..@C C..@C C..@C C..@C C..@C C..@C C..@C C..@C C..@C C..@C C..@C C..@C C..@C C..@C C..@C C..@C C..@C C..@C B..@C B..@C B..@C B..@C B..@C B..@C B..@C B..@C B..@C B..@C B..@C B..@C B..@C B..@C B..@C B..@C B..@C B..@C B..@C B..@C B..@C B..@C B..@C B..@C B..@C B..@C B..@C B..@C B..@C B..@C B..@C B..@C B..@C B..@C B..@C B..@C B..@C B..@C B..@C B..@C B..@C B..@C B..@C B..@C B..@C B..@C B..@C B..@C B..@C B..@C B..@C B..@C B..@C B..@C B..@C B..@C B..@C B..@C B..@C B..@C B..@C B..@C B..@C B..@C B..@C B..@C B..@C B..@C B..@C B..@C B..@C B..@C B..@C B..@C B..@C B..@C B..@C B..@C B..@C B..@C B..@C B..@C B..@C B..@C B..@C B..@C B..@C B..@C B..@C B..@C B..@C B..@C B..@C B..@C B..@C B..@C B..@C B..@C B..@C B..@C B..@C B..@C B@C B@C B@C B@C B@C B@C B@C B@C B@C B@C B@C B@C B@C B@C B@C B@C B@C B@C B@C B@C B@C B@C B@C B@C B@C B@C B@C B@C B@C B@C B@C B@C B@C B@C B@C B@C B@C B@C B@C B@C B@C B@C B@C B@C B@C B@C B@C B@C B@C B@C B@C B@C B@C B@C B@C B@C B@C B@C B@C B@C B@C B@C B@C B@C B@C B@C B@C B@C B@C B@C B@C B@C B@C B@C B@C B@C B@C B@C B@C B@C B@C B@C B@C B@C B@C B@C B@C B@C B@C B@C B@C B@C B@C B@C B@C B@C B@C B@C B@C B@C B@C B@C B@C B@C B@C B@C B@C B@C B@C B@C B@C B@C B@C B@C B@C B@C B@C B@C B@C B@C B@C B@C B@C B@C B@C B@C B@C B@C B@C B@C B@C B@C B@C B@C B@C B@C B@C B@C B@C B@C B@C B@C B@C B@C B@C B@C B@C B@C B@C B@C B@C B@C B@C B@C @..@C @..@C @..@C @..@C @..@C @..@C @..@C @..@C @..@C @..@C @..@C @..@C @..@C @..@C @..@C @..@C @..@C @..@C @..@C @..@C @..@C @..@C @..@C @..@C @..@C @..@C @..@C @..@C @..@C @..@C @..@C @..@C @..@C @..@C @..@C @..@C @..@C @..@C @..@C @..@C @..@C @..@C @..@C @..@C @..@C @..@C @..@C @..@C @..@C @..@C @..@C @..@C @..@C @..@C @..@C @..@C @..@C @..@C @..@C @..@C @..@C @..@C @..@C @..@C @..@C @..@C @..@C @..@C @..@C @..@C @..@C @..@C @..@C @..@C @..@C @..@C @..@C @..@C @..@C @..@C @..@C @..@C @..@C @..@C @..@C @..@C @..@C @..@C @..@C @..@C @..@C @..@C @..@C @..@C @..@C @..@C @..@C @..@C @..@C @..@C @..@C @..@C @..@C @..@C @..@C @..@C @..@C @..@C @..@C @..@C @..@C @..@C @..@C @..@C @..@C @..@C @..@C @..@C @..@C @..@C @..@C @..@C @..@C @..@C @..@C @..@C @..@C @..@C @..@C @..@C @..@C @..@C @..@C @..@C @..@C @..@C @..@C @..@C @..@C @..@C @..@C @..@C @..@C @..@C @..@C @..@C @..@C @..@C @..@C @..@C @..@C @..@C @..@C @..@C @..@C @..@C @..@C @..@C @..@C @..@C @..@C @..@C @..@C @..@C @..@C @..@C @..@C @..@C @..@C @..@C @..@C @..@C @..@C @..@C @..@C @..@C @..@C @..@C @..@C @..@C @..@C @..@C @..@C @..@C @..@C @..@C @..@C @..@C @..@C @..@C @..@C @..@C @..@C @..@C @..@C @..@C @..@C @..@C @..@C @..@C @..@C @..@C @..@C @..@C @..@C @..@C @..@C @..@C @..@C @..@C @..@C @..@C @..@C @..@C @..@C @..@C @..@C @..@C @..@C @..@C @..@C @..@C @..@C @..@C @..@C @..@C @..@C @..@C @..@C @..@C @..@C @..@C @..@C @..@C @..@C @..@C @..@C @..@C @..@C @..@C @..@C @..@C @..@C @..@C @..@C @..@C @..@C @..@C @..@C @..@C @..@C @..@C @..@C @..@C @..@C @..@C @..@C @..@C @..@C @..@C @..@C @..@C @..@C @..@C @..@C @..@C @..@C @..@C @..@C @..@C @..@C @..@C @..@C @..@C @..@C @..@C @..@C @..@C @..@C @..@C @..@C @..@C @..@C @..@C @..@C @..@C @..@C @..@C @..@C @..@C @..@C @..@C @..@C @..@C @..@C @..@C @..@C @..@C @..@C @..@C @..@C @..@C @..@C @..@C @..@C @..@C @..@C @..@C @..@C @..@C @..@C @..@C @..@C @..@C @..@C @..@C @..@C @..@C @..@C @..@C @..@C @..@C @..@C @..@C @..@C @..@C @..@C @..@C @..@C @..@C @..@C @..@C @..@C @..@C @..@C @..@C @..@C @..@C @..@C @..@C @..@C @..@C @..@C @..@C @..@C @..@C @..@C @..@C @..@C @..@C @..@C @..@C @..@C @..@C @..@C @..@C @..@C @..@C @@C @@C @@C @@C @@C @@C @@C @@C @@C @@C @@C @@C @@C @@C @@C @@C @@C @@C @@C @@C @@C @@C @@C @@C @@C @@C @@C @@C @@C @@C @@C @@C @@C @@C @@C @@C @@C @@C @@C @@C @@C @@C @@C @@C @@C @@C @@C @@C @@C @@C @@C @@C @@C @@C @@C @@C @@C @@C @@C @@C @@C @@C @@C @@C @@C @@C @@C @@C @@C @@C @@C @@C @@C @@C @@C @@C @@C @@C @@C @@C @@C @@C @@C @@C @@C @@C @@C @@C @@C @@C @@C @@C @@C @@C @@C @@C @@C @@C @@C @@C @@C @@C @@C @@C @@C @@C @@C @@C @@C @@C @@C @@C @@C @@C @@C @@C @@C @@C @@C @@C @@C @@C @@C @@C @@C @@C @@C @@C @@C @@C @@C @@C @@C @@C @@C @@C @@C @@C @@C @@C @@C @@C @@C @@C @@C @@C @@C @@C @@C @@C @@C @@C @@C @@C H--@B H--@B H--@B H--@B H--@B H--@B H--@B H--@B H--@B H--@B H--@B H--@B H--@B H--@B H--@B H--@B H--@B H--@B H--@B H--@B H--@B H--@B H--@B H--@B H--@B H--@B H--@B H--@B H--@B H--@B H--@B H--@B H--@B H--@B H--@B H--@B H--@B H--@B H--@B H--@B H--@B H--@B H--@B H--@B H--@B H--@B H--@B H--@B H--@B H--@B H--@B H--@B H--@B H--@B H--@B H--@B H--@B H--@B H--@B H--@B H--@B H--@B H--@B H--@B H--@B H--@B H--@B H--@B H--@B H--@B H--@B H--@B H--@B H--@B H--@B H--@B H--@B H--@B H--@B H--@B H--@B H--@B H--@B H--@B H--@B H--@B H--@B H--@B H--@B H--@B H--@B H--@B H--@B H--@B H--@B H--@B H--@B H--@B H--@B H--@B H--@B H--@B H--@B H--@B H--@B H--@B H--@B H--@B H--@B H--@B H--@B H--@B H--@B H--@B H--@B H--@B H--@B H--@B H--@B H--@B H--@B H--@B H--@B H--@B H--@B H--@B H--@B H--@B H--@B H--@B H--@B H--@B H--@B H--@B H--@B H--@B H--@B H--@B H--@B H--@B H--@B H--@B H--@B H--@B H--@B H--@B H--@B H--@B H--@B H--@B H--@B H--@B H--@B H--@B H--@B H--@B H--@B H--@B H--@B H--@B H--@B H--@B H--@B H--@B H--@B H--@B H--@B H--@B H--@B H--@B H--@B H--@B H--@B H--@B H--@B H--@B H--@B H--@B H--@B H--@B H--@B H--@B H--@B H--@B H--@B H--@B H--@B H--@B H--@B H--@B H--@B H--@B H--@B H--@B H--@B H--@B H--@B H--@B H--@B H--@B H--@B H--@B H--@B H--@B H--@B H--@B H--@B H--@B H--@B H--@B H--@B H--@B H--@B H--@B H--@B H--@B H--@B H--@B H--@B H--@B H--@B H--@B H--@B H--@B H--@B H--@B H--@B H--@B H--@B H--@B H--@B H--@B H--@B H--@B H--@B H--@B H--@B H--@B H--@B H--@B H--@B H--@B H--@B H--@B H--@B H--@B H--@B H--@B H--@B H--@B H--@B H--@B H--@B H--@B H--@B H--@B H--@B H--@B H--@B H--@B H--@B H--@B H--@B H--@B H--@B H--@B H--@B H--@B H--@B H--@B H--@B H--@B H--@B H--@B H--@B H--@B H--@B H--@B H--@B H--@B H--@B H--@B H--@B H--@B H--@B H--@B H--@B H--@B H--@B H--@B H--@B H--@B H--@B H--@B H--@B H--@B H--@B H--@B H--@B H--@B H--@B H--@B H--@B H--@B H--@B H--@B H--@B H--@B H--@B H--@B H--@B H--@B H--@B H--@B H--@B H--@B H--@B H--@B H--@B H--@B H--@B H--@B H--@B H--@B H--@B H--@B H--@B H--@B H--@B H--@B H--@B H--@B H--@B H--@B H--@B H--@B H--@B H--@B H--@B H--@B H--@B H--@B H--@B H--@B H--@B H--@B H--@B H--@B H--@B H--@B H--@B H--@B H--@B H--@B H--@B H--@B H--@B H--@B H@B H@B H@B H@B H@B H@B H@B H@B H@B H@B H@B H@B H@B H@B H@B H@B H@B H@B H@B H@B H@B H@B H@B H@B H@B H@B H@B H@B H@B H@B H@B H@B H@B H@B H@B H@B H@B H@B H@B H@B H@B H@B H@B H@B H@B H@B H@B H@B H@B H@B H@B H@B H@B H@B H@B H@B H@B H@B H@B H@B H@B H@B H@B H@B H@B H@B H@B H@B H@B H@B H@B H@B H@B H@B H@B H@B H@B H@B H@B H@B H@B H@B H@B H@B H@B H@B H@B H@B H@B H@B H@B H@B H@B H@B H@B H@B H@B H@B H@B H@B H@B H@B H@B H@B H@B H@B H@B H@B H@B H@B H@B H@B H@B H@B H@B H@B H@B H@B H@B H@B H@B H@B H@B H@B H@B H@B H@B H@B H@B H@B H@B H@B H@B H@B H@B H@B H@B H@B H@B H@B H@B H@B H@B H@B H@B H@B H@B H@B H@B H@B H@B H@B H@B H@B G?--B? G?--B? G?--B? G?--B? G?--B? G?--B? G?--B? G?--B? G?--B? G?--B? G?--B? G?--B? G?--B? G?--B? G?--B? G?--B? G?--B? G?--B? G?--B? G?--B? G?--B? G?--B? G?--B? G?--B? G?--B? G?--B? G?--B? G?--B? G?--B? G?--B? G?--B? G?--B? G?--B? G?--B? G?--B? G?--B? G?--B? G?--B? G?--B? G?--B? G?--B? G?--B? G?--B? G?--B? G?--B? G?--B? G?--B? G?--B? G?--B? G?--B? G?--B? G?--B? G?--B? G?--B? G?--B? G?--B? G?--B? G?--B? G?--B? G?--B? G?--B? G?--B? G?--B? G?--B? G?--B? G?--B? G?--B? G?--B? G?--B? G?--B? G?--B? G?--B? G?--B? G?--B? G?--B? G?--B? G?--B? G?--B? G?--B? G?--B? G?--B? G?--B? G?--B? G?--B? G?--B? G?--B? G?--B? G?--B? G?--B? G?--B? G?--B? G?--B? G?--B? G?--B? G?--B? G?--B? G?--B? G?--B? G?--B? G?--B? G?--B? G?--B? G?--B? G?--B? G?--B? G?--B? G?--B? G?--B? G?--B? G?--B? G?--B? G?--B? G?--B? G?--B? G?--B? G?--B? G?--B? G?--B? G?--B? G?--B? G?--B? G?--B? G?--B? G?--B? G?--B? G?--B? G?--B? G?--B? G?--B? G?--B? G?--B? G?--B? G?--B? G?--B? G?--B? G?--B? G?--B? G?--B? G?--B? G?--B? G?--B? G?--B? G?--B? G?--B? G?--B? G?--B? G?--B? G?--B? G?--B? G?--B? G?--B? G?--B? G?--B? G?--B? G?--B? G?--B? G?--B? G?--B? G?--B? G?--B? G?--B? G?--B? G?--B? G?--B? G?--B? G?--B? G?--B? G?--B? G?--B? G?--B? G?--B? G?--B? G?--B? G?--B? G?--B? G?--B? G?--B? G?--B? G?--B? G?--B? G?--B? G?--B? G?--B? G?--B? G?--B? G?--B? G?--B? G?--B? G?--B? G?--B? G?--B? G?--B? G?--B? G?--B? G?--B? G?--B? G?--B? G?--B? G?--B? G?--B? G?--B? G?--B? G?--B? G?--B? G?--B? G?--B? G?--B? G?--B? G?--B? G?--B? G?--B? G?--B? G?--B? G?--B? G?--B? G?--B? G?--B? G?--B? G?--B? G?--B? G?--B? G?--B? G?--B? G?--B? G?--B? G?--B? G?--B? G?--B? G?--B? G?--B? G?--B? G?--B? G?--B? G?--B? G?--B? G?--B? G?--B? G?--B? G?--B? G?--B? G?--B? G?--B? G?--B? G?--B? G?--B? G?--B? G?--B? G?--B? G?--B? G?--B? G?--B? G?--B? G?--B? G?--B? G?--B? G?--B? G?--B? G?--B? G?--B? G?--B? G?--B? G?--B? G?--B? G?--B? G?--B? G?--B? G?--B? G?--B? G?--B? G?--B? G?--B? G?--B? G?--B? G?--B? G?--B? G?--B? G?--B? G?--B? G?--B? G?--B? G?--B? G?--B? G?--B? G?--B? G?--B? G?--B? G?--B? G?--B? G?--B? G?--B? G?--B? G?--B? G?--B? G?--B? G?--B? G?--B? G?--B? G?--B? G?--B? G?--B? G?--B? G?--B? G?--B? G?--B? G?--B? G?--B? G?--B? G?--B? G?--B? G?--B? G?--B? G?--B? G?--B? G?--B? G?--B? G?--B? G?--B? G?--B? G?--B? G?--B? G?--B? G?--B? G?--B? G?--B? G?--B? G?--B? G?--B? G?--B? G?--B? G?--B? G?--B? G?--B? G?--B? G?--B? G?--B? G?--B? G?--B? G?--B? G?--B? G?--B? G?--B? G?--B? G?--B? G?--B? G?--B? G?--B? G?--B? G?--B? G?--B? G?--B? G?--B? G?--B? G?--B? G?--B? G?--B? G?--B? G?--B? G?--B? G?B? G?B? G?B? G?B? G?B? G?B? G?B? G?B? G?B? G?B? G?B? G?B? G?B? G?B? G?B? G?B? G?B? G?B? G?B? G?B? G?B? G?B? G?B? G?B? G?B? G?B? G?B? G?B? G?B? G?B? G?B? G?B? G?B? G?B? G?B? G?B? G?B? G?B? G?B? G?B? G?B? G?B? G?B? G?B? G?B? G?B? G?B? G?B? G?B? G?B? G?B? G?B? G?B? G?B? G?B? G?B? G?B? G?B? G?B? G?B? G?B? G?B? G?B? G?B? G?B? G?B? G?B? G?B? G?B? G?B? G?B? G?B? G?B? G?B? G?B? G?B? G?B? G?B? G?B? G?B? G?B? G?B? G?B? G?B? G?B? G?B? G?B? G?B? G?B? G?B? G?B? G?B? G?B? G?B? G?B? G?B? G?B? G?B? G?B? G?B? G?B? G?B? G?B? G?B? G?B? G?B? G?B? G?B? G?B? G?B? G?B? G?B? G?B? G?B? G?B? G?B? G?B? G?B? G?B? G?B? G?B? G?B? G?B? G?B? G?B? G?B? G?B? G?B? G?B? G?B? G?B? G?B? G?B? G?B? G?B? G?B? G?B? G?B? G?B? G?B? G?B? G?B? G?B? G?B? G?B? G?B? G?B? G?B? G?B? G?B? G?B? G?B? G?B? G?B? G@,,@G G@,,@G G@,,@G G@,,@G G@,,@G G@,,@G G@,,@G G@,,@G G@,,@G G@,,@G G@,,@G G@,,@G G@,,@G G@,,@G G@,,@G G@,,@G G@,,@G G@,,@G G@,,@G G@,,@G G@,,@G G@,,@G G@,,@G G@,,@G G@,,@G G@,,@G G@,,@G G@,,@G G@,,@G G@,,@G G@,,@G G@,,@G G@,,@G G@,,@G G@,,@G G@,,@G G@,,@G G@,,@G G@,,@G G@,,@G G@,,@G G@,,@G G@,,@G G@,,@G G@,,@G G@,,@G G@,,@G G@,,@G G@,,@G G@,,@G G@,,@G G@,,@G G@,,@G G@,,@G G@,,@G G@,,@G G@,,@G G@,,@G G@,,@G G@,,@G G@,,@G G@,,@G G@,,@G G@,,@G G@,,@G G@,,@G G@,,@G G@,,@G G@,,@G G@,,@G G@,,@G G@,,@G G@,,@G G@,,@G G@,,@G G@,,@G G@,,@G G@,,@G G@,,@G G@,,@G G@,,@G G@,,@G G@,,@G G@,,@G G@,,@G G@,,@G G@,,@G G@,,@G G@,,@G G@,,@G G@,,@G G@,,@G G@,,@G G@,,@G G@,,@G G@,,@G G@,,@G G@,,@G G@,,@G G@,,@G G@,,@G G@,,@G G@,,@G G@,,@G G@,,@G G@,,@G G@,,@G G@,,@G G@,,@G G@,,@G G@,,@G G@,,@G G@,,@G G@,,@G G@,,@G G@,,@G G@,,@G G@,,@G G@,,@G G@,,@G G@,,@G G@,,@G G@,,@G G@,,@G G@,,@G G@,,@G G@,,@G G@,,@G G@,,@G G@,,@G G@,,@G G@,,@G G@,,@G G@,,@G G@,,@G G@,,@G G@,,@G G@,,@G G@,,@G G@,,@G G@,,@G G@,,@G G@,,@G G@,,@G G@,,@G G@,,@G G@,,@G G@,,@G G@,,@G G@,,@G G@,,@G G@,,@G G@,,@G G@,,@G G@,,@G G@,,@G G@,,@G G@,,@G G@,,@G G@,,@G G@,,@G G@,,@G G@,,@G G@,,@G G@,,@G G@,,@G G@,,@G G@,,@G G@,,@G G@,,@G G@,,@G G@,,@G G@,,@G G@,,@G G@,,@G G@,,@G G@,,@G G@,,@G G@,,@G G@,,@G G@,,@G G@,,@G G@,,@G G@,,@G G@,,@G G@,,@G G@,,@G G@,,@G G@,,@G G@,,@G G@,,@G G@,,@G G@,,@G G@,,@G G@,,@G G@,,@G G@,,@G G@,,@G G@,,@G G@,,@G G@,,@G G@,,@G G@,,@G G@,,@G G@,,@G G@,,@G G@,,@G G@,,@G G@,,@G G@,,@G G@,,@G G@,,@G G@,,@G G@,,@G G@,,@G G@,,@G G@,,@G G@,,@G G@,,@G G@,,@G G@,,@G G@,,@G G@,,@G G@,,@G G@,,@G G@,,@G G@,,@G G@,,@G G@,,@G G@,,@G G@,,@G G@,,@G G@,,@G G@,,@G G@,,@G G@,,@G G@,,@G G@,,@G G@,,@G G@,,@G G@,,@G G@,,@G G@,,@G G@,,@G G@,,@G G@,,@G G@,,@G G@,,@G G@,,@G G@,,@G G@,,@G G@,,@G G@,,@G G@,,@G G@,,@G G@,,@G G@,,@G G@,,@G G@,,@G G@,,@G G@,,@G G@,,@G G@,,@G G@,,@G G@,,@G G@,,@G G@,,@G G@,,@G G@,,@G G@,,@G G@,,@G G@,,@G G@,,@G G@,,@G G@,,@G G@,,@G G@,,@G G@,,@G G@,,@G G@,,@G G@,,@G G@,,@G G@,,@G G@,,@G G@,,@G G@,,@G G@,,@G G@,,@G G@,,@G G@,,@G G@,,@G G@,,@G G@,,@G G@,,@G G@,,@G G@,,@G G@,,@G G@,,@G G@,,@G G@,,@G G@,,@G G@,,@G G@,,@G G@,,@G G@,,@G G@,,@G G@,,@G G@,,@G G@,,@G G@,,@G G@,,@G G@,,@G G@,,@G G@,,@G G@,,@G G@,,@G G@,,@G G@,,@G G@,,@G G@,,@G G@,,@G G@,,@G G@,,@G G@,,@G G@,,@G G@,,@G G@,,@G G@,,@G G@,,@G G@,,@G G@,,@G G@,,@G G@,,@G G@,,@G G@,,@G G@,,@G G@,,@G G@,,@G G@,,@G G@,,@G G@,,@G G@,,@G G@,,@G G@,,@G G@,,@G G@,,@G G@,,@G G@,,@G G@,,@G G@,,@G G@,,@G G@,,@G G@,,@G G@,,@G G@,,@G G@,,@G G@,,@G G@,,@G G@@G G@@G G@@G G@@G G@@G G@@G G@@G G@@G G@@G G@@G G@@G G@@G G@@G G@@G G@@G G@@G G@@G G@@G G@@G G@@G G@@G G@@G G@@G G@@G G@@G G@@G G@@G G@@G G@@G G@@G G@@G G@@G G@@G G@@G G@@G G@@G G@@G G@@G G@@G G@@G G@@G G@@G G@@G G@@G G@@G G@@G G@@G G@@G G@@G G@@G G@@G G@@G G@@G G@@G G@@G G@@G G@@G G@@G G@@G G@@G G@@G G@@G G@@G G@@G G@@G G@@G G@@G G@@G G@@G G@@G G@@G G@@G G@@G G@@G G@@G G@@G G@@G G@@G G@@G G@@G G@@G G@@G G@@G G@@G G@@G G@@G G@@G G@@G G@@G G@@G G@@G G@@G G@@G G@@G G@@G G@@G G@@G G@@G G@@G G@@G G@@G G@@G G@@G G@@G G@@G G@@G G@@G G@@G G@@G G@@G G@@G G@@G G@@G G@@G G@@G G@@G G@@G G@@G G@@G G@@G G@@G G@@G G@@G G@@G G@@G G@@G G@@G G@@G G@@G G@@G G@@G G@@G G@@G G@@G G@@G G@@G G@@G G@@G G@@G G@@G G@@G G@@G G@@G G@@G G@@G G@@G G@@G G@@G G@@G G@@G G@@G G@@G G@@G G@@G @B,,;G @B,,;G @B,,;G @B,,;G @B,,;G @B,,;G @B,,;G @B,,;G @B,,;G @B,,;G @B,,;G @B,,;G @B,,;G @B,,;G @B,,;G @B,,;G @B,,;G @B,,;G @B,,;G @B,,;G @B,,;G @B,,;G @B,,;G @B,,;G @B,,;G @B,,;G @B,,;G @B,,;G @B,,;G @B,,;G @B,,;G @B,,;G @B,,;G @B,,;G @B,,;G @B,,;G @B,,;G @B,,;G @B,,;G @B,,;G @B,,;G @B,,;G @B,,;G @B,,;G @B,,;G @B,,;G @B,,;G @B,,;G @B,,;G @B,,;G @B,,;G @B,,;G @B,,;G @B,,;G @B,,;G @B,,;G @B,,;G @B,,;G @B,,;G @B,,;G @B,,;G @B,,;G @B,,;G @B,,;G @B,,;G @B,,;G @B,,;G @B,,;G @B,,;G @B,,;G @B,,;G @B,,;G @B,,;G @B,,;G @B,,;G @B,,;G @B,,;G @B,,;G @B,,;G @B,,;G @B,,;G @B,,;G @B,,;G @B,,;G @B,,;G @B,,;G @B,,;G @B,,;G @B,,;G @B,,;G @B,,;G @B,,;G @B,,;G @B,,;G @B,,;G @B,,;G @B,,;G @B,,;G @B,,;G @B,,;G @B,,;G @B,,;G @B,,;G @B,,;G @B,,;G @B,,;G @B,,;G @B,,;G @B,,;G @B,,;G @B,,;G @B,,;G @B,,;G @B,,;G @B,,;G @B,,;G @B,,;G @B,,;G @B,,;G @B,,;G @B,,;G @B,,;G @B,,;G @B,,;G @B,,;G @B,,;G @B,,;G @B,,;G @B,,;G @B,,;G @B,,;G @B,,;G @B,,;G @B,,;G @B,,;G @B,,;G @B,,;G @B,,;G @B,,;G @B,,;G @B,,;G @B,,;G @B,,;G @B,,;G @B,,;G @B,,;G @B,,;G @B,,;G @B,,;G @B,,;G @B,,;G @B,,;G @B,,;G @B,,;G @B,,;G @B,,;G @B,,;G @B,,;G @B,,;G @B,,;G @B,,;G @B,,;G @B,,;G @B,,;G @B,,;G @B,,;G @B,,;G @B,,;G @B,,;G @B,,;G @B,,;G @B,,;G @B,,;G @B,,;G @B,,;G @B,,;G @B,,;G @B,,;G @B,,;G @B,,;G @B,,;G @B,,;G @B,,;G @B,,;G @B,,;G @B,,;G @B,,;G @B,,;G @B,,;G @B,,;G @B,,;G @B,,;G @B,,;G @B,,;G @B,,;G @B,,;G @B,,;G @B,,;G @B,,;G @B,,;G @B,,;G @B,,;G @B,,;G @B,,;G @B,,;G @B,,;G @B,,;G @B,,;G @B,,;G @B,,;G @B,,;G @B,,;G @B,,;G @B,,;G @B,,;G @B,,;G @B,,;G @B,,;G @B,,;G @B,,;G @B,,;G @B,,;G @B,,;G @B,,;G @B,,;G @B,,;G @B,,;G @B,,;G @B,,;G @B,,;G @B,,;G @B,,;G @B,,;G @B,,;G @B,,;G @B,,;G @B,,;G @B,,;G @B,,;G @B,,;G @B,,;G @B,,;G @B,,;G @B,,;G @B,,;G @B,,;G @B,,;G @B,,;G @B,,;G @B,,;G @B,,;G @B,,;G @B,,;G @B,,;G @B,,;G @B,,;G @C,,;G @C,,;G @C,,;G @C,,;G @C,,;G @C,,;G @C,,;G @C,,;G @C,,;G @C,,;G @C,,;G @C,,;G @C,,;G @C,,;G @C,,;G @C,,;G @C,,;G @C,,;G @C,,;G @C,,;G @C,,;G @C,,;G @C,,;G @C,,;G @C,,;G @C,,;G @C,,;G @C,,;G @C,,;G @C,,;G @C,,;G @C,,;G @C,,;G @C,,;G @C,,;G @C,,;G @C,,;G @C,,;G @C,,;G @C,,;G @C,,;G @C,,;G @C,,;G @C,,;G @C,,;G @C,,;G @C,,;G @C,,;G @C,,;G @C,,;G @C,,;G @C,,;G @C,,;G @C,,;G @C,,;G @C,,;G @C,,;G @C,,;G @C,,;G @C,,;G @C,,;G @C,,;G @C,,;G @C,,;G @C,,;G @C,,;G @C,,;G @C,,;G @C,,;G @C,,;G @C,,;G @C,,;G @C,,;G @C,,;G @C,,;G @C,,;G @C,,;G @C,,;G @C,,;G @C,,;G @C,,;G @C,,;G @C,,;G @C,,;G @C,,;G @C,,;G @C,,;G @C,,;G @C,,;G @C,,;G @C,,;G @C,,;G @C,,;G @C,,;G @C,,;G @C,,;G @C,,;G @C,,;G @C,,;G @C,,;G @C,,;G @C,,;G @C;G @C;G @C;G @C;G @C;G @C;G @C;G @C;G @C;G @C;G @C;G @C;G @C;G @C;G @C;G @C;G @C;G @C;G @C;G @C;G @C;G @C;G @C;G @C;G @C;G @C;G @C;G @C;G @C;G @C;G @C;G @C;G @C;G @C;G @C;G @C;G @C;G @C;G @C;G @C;G @C;G @C;G @C;G @C;G @C;G @C;G @C;G @C;G @C;G @C;G @C;G @C;G @C;G @C;G @C;G @C;G @C;G @C;G @C;G @C;G @C;G @C;G @C;G @C;G @C;G @C;G @C;G @C;G @C;G @C;G @C;G @C;G @C;G @C;G @C;G @C;G @C;G @C;G @C;G @C;G @C;G @C;G @C;G @C;G @C;G @C;G @C;G @C;G @C;G @C;G @C;G @C;G @C;G @C;G @C;G @C;G @C;G @C;G @C;G @C;G @C;G @C;G @C;G @C;G @C;G @C;G @C;G @C;G @C;G @C;G @C;G @C;G @C;G @C;G @C;G @C;G @C;G @C;G @C;G @C;G @C;G @C;G @C;G @C;G @C;G @C;G @C;G @C;G @C;G @C;G @C;G @C;G @C;G @C;G @C;G @C;G @C;G @C;G @C;G @C;G @C;G @C;G @C;G @C;G @C;G @C;G @C;G @C;G @C;G @C;G @C;G @C;G @C;G @C;G @E**=E @E**=E @E**=E @E**=E @E**=E @E**=E @E**=E @E**=E @E**=E @E**=E @E**=E @E**=E @E**=E @E**=E @E**=E @E**=E @E**=E @E**=E @E**=E @E**=E @E**=E @E**=E @E**=E @E**=E @E**=E @E**=E @E**=E @E**=E @E**=E @E**=E @E**=E @E**=E @E**=E @E**=E @E**=E @E**=E @E**=E @E**=E @E**=E @E**=E @E**=E @E**=E @E**=E @E**=E @E**=E @E**=E @E**=E @E**=E @E**=E @E**=E @E**=E @E**=E @E**=E @E**=E @E**=E @E**=E @E**=E @E**=E @E**=E @E**=E @E**=E @E**=E @E**=E @E**=E @E**=E @E**=E @E**=E @E**=E @E**=E @E**=E @E**=E @E**=E @E**=E @E**=E @E**=E @E**=E @E**=E @E**=E @E**=E @E**=E @E**=E @E**=E @E**=E @E**=E @E**=E @E**=E @E**=E @E**=E @E**=E @E**=E @E**=E @E**=E @E**=E @E**=E @E**=E @E**=E @E**=E @E**=E @E**=E @E**=E @E**=E @E**=E @E**=E @E**=E @E**=E @E**=E @E**=E @E**=E @E**=E @E**=E @E**=E @E**=E @E**=E @E**=E @E**=E @E**=E @E**=E @E**=E @E**=E @E**=E @E**=E @E**=E @E**=E @E**=E @E**=E @E**=E @E**=E @E**=E @E**=E @E**=E @E**=E @E**=E @E**=E @E**=E @E**=E @E**=E @E**=E @E**=E @E**=E @E**=E @E**=E @E**=E @E**=E @E**=E @E**=E @E**=E @E**=E @E**=E @E**=E @E**=E @E**=E @E**=E @E**=E @E**=E @E**=E @E**=E @E**=E @E**=E @E**=E @E**=E @E**=E @E**=E @E**=E @E**=E @E**=E @E**=E @E**=E @E**=E @E**=E @E**=E @E**=E @E**=E @E**=E @E**=E @E**=E @E**=E @E**=E @E**=E @E**=E @E**=E @E**=E @E**=E @E**=E @E**=E @E**=E @E**=E @E**=E @E**=E @E**=E @E**=E @E**=E @E**=E @E**=E @E**=E @E**=E @E**=E @E**=E @E**=E @E**=E @E**=E @E**=E @E**=E @E**=E @E**=E @E**=E @E**=E @E**=E @E**=E @E**=E @E**=E @E**=E @E**=E @E**=E @E**=E @E**=E @E**=E @E**=E @E**=E @E**=E @E**=E @E**=E @E**=E @E**=E @E**=E @E**=E @E**=E @E**=E @E**=E @E**=E @E**=E @E**=E @E**=E @E**=E @E**=E @E**=E @E**=E @E**=E @E**=E @E**=E @E**=E @E**=E @E**=E @E**=E @E**=E @E**=E @E**=E @E**=E @E**=E @E**=E @E**=E @E**=E @E**=E @E**=E @E**=E @E**=E @E**=E BB**=E BB**=E BB**=E BB**=E BB**=E BB**=E BB**=E BB**=E BB**=E BB**=E BB**=E BB**=E BB**=E BB**=E BB**=E BB**=E BB**=E BB**=E BB**=E BB**=E BB**=E BB**=E BB**=E BB**=E BB**=E BB**=E BB**=E BB**=E BB**=E BB**=E BB**=E BB**=E BB**=E BB**=E BB**=E BB**=E BB**=E BB**=E BB**=E BB**=E BB**=E BB**=E BB**=E BB**=E BB**=E BB**=E BB**=E BB**=E BB**=E BB**=E BB**=E BB**=E BB**=E BB**=E BB**=E BB**=E BB**=E BB**=E BB**=E BB**=E BB**=E BB**=E BB**=E BB**=E BB**=E BB**=E BB**=E BB**=E BB**=E BB**=E BB**=E BB**=E BB**=E BB**=E BB**=E BB**=E BB**=E BB**=E BB**=E BB**=E BB**=E BB**=E BB**=E BB**=E BB**=E BB**=E BB**=E BB**=E BB**=E BB**=E BB**=E BB**=E BB**=E BB**=E BB**=E BB**=E BB**=E BB**=E BB**=E BB**=E BB**=E BB**=E BB=E BB=E BB=E BB=E BB=E BB=E BB=E BB=E BB=E BB=E BB=E BB=E BB=E BB=E BB=E BB=E BB=E BB=E BB=E BB=E BB=E BB=E BB=E BB=E BB=E BB=E BB=E BB=E BB=E BB=E BB=E BB=E BB=E BB=E BB=E BB=E BB=E BB=E BB=E BB=E BB=E BB=E BB=E BB=E BB=E BB=E BB=E BB=E BB=E BB=E BB=E BB=E BB=E BB=E BB=E BB=E BB=E BB=E BB=E BB=E BB=E BB=E BB=E BB=E BB=E BB=E BB=E BB=E BB=E BB=E BB=E BB=E BB=E BB=E BB=E BB=E BB=E BB=E BB=E BB=E BB=E BB=E BB=E BB=E BB=E BB=E BB=E BB=E BB=E BB=E BB=E BB=E BB=E BB=E BB=E BB=E BB=E BB=E BB=E BB=E BB=E BB=E BB=E BB=E BB=E BB=E BB=E BB=E BB=E BB=E BB=E BB=E BB=E BB=E BB=E BB=E BB=E BB=E BB=E BB=E BB=E BB=E BB=E BB=E BB=E BB=E BB=E BB=E BB=E BB=E BB=E BB=E BB=E BB=E BB=E BB=E BB=E BB=E BB=E BB=E BB=E BB=E BB=E BB=E BB=E BB=E BB=E BB=E BB=E BB=E BB=E BB=E BB=E BB=E @C//?B @C//?B @C//?B @C//?B @C//?B @C//?B @C//?B @C//?B @C//?B @C//?B @C//?B @C//?B @C//?B @C//?B @C//?B @C//?B @C//?B @C//?B @C//?B @C//?B @C//?B @C//?B @C//?B @C//?B @C//?B @C//?B @C//?B @C//?B @C//?B @C//?B @C//?B @C//?B @C//?B @C//?B @C//?B @C//?B @C//?B @C//?B @C//?B @C//?B @C//?B @C//?B @C//?B @C//?B @C//?B @C//?B @C//?B @C//?B @C//?B @C//?B @C//?B @C//?B @C//?B @C//?B @C//?B @C//?B @C//?B @C//?B @C//?B @C//?B @C//?B @C//?B @C//?B @C//?B @C//?B @C//?B @C//?B @C//?B @C//?B @C//?B @C//?B @C//?B @C//?B @C//?B @C//?B @C//?B @C//?B @C//?B @C//?B @C//?B @C//?B @C//?B @C//?B @C//?B @C//?B @C//?B @C//?B @C//?B @C//?B @C//?B @C//?B @C//?B @C//?B @C//?B @C//?B @C//?B @C//?B @C//?B @C//?B @C//?B @C//?B @C//?B @C//?B @C//?B @C//?B @C//?B @C//?B @C//?B @C//?B @C//?B @C//?B @C//?B @C//?B @C//?B @C//?B @C//?B @C//?B @C//?B @C//?B @C//?B @C//?B @C//?B @C//?B @C//?B @C//?B @C//?B @C//?B @C//?B @C//?B @C//?B @C//?B @C//?B @C//?B @C//?B @C//?B @C//?B @C//?B @C//?B @C//?B @C//?B @C//?B @C//?B @C//?B @C//?B @C//?B @C//?B @C//?B @C//?B @C//?B @C//?B @C//?B @C//?B @C//?B @C//?B @C//?B @C//?B @C//?B @C//?B @C//?B @C//?B @C//?B @C//?B @C//?B @C//?B @C//?B @C//?B @C//?B @C//?B @C//?B @C//?B @C//?B @C//?B @C//?B @C//?B @C//?B @C//?B @C//?B @C//?B @C//?B @C//?B @C//?B @C//?B @C//?B @C//?B @C//?B @C//?B @C//?B @C//?B @C//?B @C//?B @C//?B @C//?B @C//?B @C//?B @C//?B @C//?B @C//?B @C//?B @C//?B @C//?B @C//?B @C//?B @C//?B @C//?B @C//?B @C//?B @C//?B @C//?B @C//?B @C//?B @C//?B @C//?B @C//?B @C//?B @C//?B @C//?B @C//?B @C//?B @C//?B @C//?B @C//?B @C//?B @C//?B @C//?B @C//?B @C//?B @C//?B @C//?B @C//?B @C//?B @C//?B @C//?B @C//?B @C//?B @C//?B @C//?B @C//?B @C//?B @C//?B @C//?B @C//?B @C//?B @C//?B @C//?B @C//?B @C//?B @C//?B @C//?B @C//?B @C//?B @C//?B @C//?B @C//?B @C//?B @C//?B @C//?B ?C//?B ?C//?B ?C//?B ?C//?B ?C//?B ?C//?B ?C//?B ?C//?B ?C//?B ?C//?B ?C//?B ?C//?B ?C//?B ?C//?B ?C//?B ?C//?B ?C//?B ?C//?B ?C//?B ?C//?B ?C//?B ?C//?B ?C//?B ?C//?B ?C//?B ?C//?B ?C//?B ?C//?B ?C//?B ?C//?B ?C//?B ?C//?B ?C//?B ?C//?B ?C//?B ?C//?B ?C//?B ?C//?B ?C//?B ?C//?B ?C//?B ?C//?B ?C//?B ?C//?B ?C//?B ?C//?B ?C//?B ?C//?B ?C//?B ?C//?B ?C//?B ?C//?B ?C//?B ?C//?B ?C//?B ?C//?B ?C//?B ?C//?B ?C//?B ?C//?B ?C//?B ?C//?B ?C//?B ?C//?B ?C//?B ?C//?B ?C//?B ?C//?B ?C//?B ?C//?B ?C//?B ?C//?B ?C//?B ?C//?B ?C//?B ?C//?B ?C//?B ?C//?B ?C//?B ?C//?B ?C//?B ?C//?B ?C//?B ?C//?B ?C//?B ?C//?B ?C//?B ?C//?B ?C//?B ?C//?B ?C//?B ?C//?B ?C//?B ?C//?B ?C//?B ?C//?B ?C//?B ?C//?B ?C//?B ?C//?B ?C//?B ?C//?B ?C?B ?C?B ?C?B ?C?B ?C?B ?C?B ?C?B ?C?B ?C?B ?C?B ?C?B ?C?B ?C?B ?C?B ?C?B ?C?B ?C?B ?C?B ?C?B ?C?B ?C?B ?C?B ?C?B ?C?B ?C?B ?C?B ?C?B ?C?B ?C?B ?C?B ?C?B ?C?B ?C?B ?C?B ?C?B ?C?B ?C?B ?C?B ?C?B ?C?B ?C?B ?C?B ?C?B ?C?B ?C?B ?C?B ?C?B ?C?B ?C?B ?C?B ?C?B ?C?B ?C?B ?C?B ?C?B ?C?B ?C?B ?C?B ?C?B ?C?B ?C?B ?C?B ?C?B ?C?B ?C?B ?C?B ?C?B ?C?B ?C?B ?C?B ?C?B ?C?B ?C?B ?C?B ?C?B ?C?B ?C?B ?C?B ?C?B ?C?B ?C?B ?C?B ?C?B ?C?B ?C?B ?C?B ?C?B ?C?B ?C?B ?C?B ?C?B ?C?B ?C?B ?C?B ?C?B ?C?B ?C?B ?C?B ?C?B ?C?B ?C?B ?C?B ?C?B ?C?B ?C?B ?C?B ?C?B ?C?B ?C?B ?C?B ?C?B ?C?B ?C?B ?C?B ?C?B ?C?B ?C?B ?C?B ?C?B ?C?B ?C?B ?C?B ?C?B ?C?B ?C?B ?C?B ?C?B ?C?B ?C?B ?C?B ?C?B ?C?B ?C?B ?C?B ?C?B ?C?B ?C?B ?C?B ?C?B ?C?B ?C?B ?C?B ?C?B ?C?B ?C?B ?C?B ?C?B ?C?B ?C?B ?C?B ?C?B ?C?B ?C?B ?C?B @C((;C @C((;C @C((;C @C((;C @C((;C @C((;C @C((;C @C((;C @C((;C @C((;C @C((;C @C((;C @C((;C @C((;C @C((;C @C((;C @C((;C @C((;C @C((;C @C((;C @C((;C @C((;C @C((;C @C((;C @C((;C @C((;C @C((;C @C((;C @C((;C @C((;C @C((;C @C((;C @C((;C @C((;C @C((;C @C((;C @C((;C @C((;C @C((;C @C((;C @C((;C @C((;C @C((;C @C((;C @C((;C @C((;C @C((;C @C((;C @C((;C @C((;C @C((;C @C((;C @C((;C @C((;C @C((;C @C((;C @C((;C @C((;C @C((;C @C((;C @C((;C @C((;C @C((;C @C((;C @C((;C @C((;C @C((;C @C((;C @C((;C @C((;C @C((;C @C((;C @C((;C @C((;C @C((;C @C((;C @C((;C @C((;C @C((;C @C((;C @C((;C @C((;C @C((;C @C((;C @C((;C @C((;C @C((;C @C((;C @C((;C @C((;C @C((;C @C((;C @C((;C @C((;C @C((;C @C((;C @C((;C @C((;C @C((;C @C((;C @C((;C @C((;C @C((;C @C((;C @C((;C @C((;C @C((;C @C((;C @C((;C @C((;C @C((;C @C((;C @C((;C @C((;C @C((;C @C((;C @C((;C @C((;C @C((;C @C((;C @C((;C @C((;C @C((;C @C((;C @C((;C @C((;C @C((;C @C((;C @C((;C @C((;C @C((;C @C((;C @C((;C @C((;C @C((;C @C((;C @C((;C @C((;C @C((;C @C((;C @C((;C @C((;C @C((;C @C((;C @C((;C @C((;C @C((;C @C((;C @C((;C @C((;C @C((;C @C((;C @C((;C @C((;C @C((;C @C((;C @C((;C @C((;C @C((;C @C((;C @C((;C @C((;C @C((;C @C((;C @C((;C @C((;C @C((;C @C((;C @C((;C @C((;C @C((;C @C((;C @C((;C @C((;C @C((;C @C((;C @C((;C @C((;C @C((;C @C((;C @C((;C @C((;C @C((;C @C((;C @C((;C @C((;C @C((;C @C((;C @C((;C @C((;C @C((;C @C((;C @C((;C @C((;C @C((;C @C((;C @C((;C @C((;C @C((;C @C((;C @C((;C @C((;C @C((;C @C((;C @C((;C @C((;C @C((;C @C((;C @C((;C @C((;C @C((;C @C((;C @C((;C @C((;C @C((;C @C((;C @C((;C @C((;C @C((;C @C((;C @C((;C @C((;C @C((;C @C((;C @C((;C @C((;C @C((;C @C((;C @C((;C @C((;C @C((;C @C((;C @C((;C @C((;C @C((;C @C((;C @C((;C @C((;C @C((;C @C((;C @C((;C @C((;C @C((;C @C((;C @C((;C @C((;C @C((;C @C((;C @C((;C @C((;C @C((;C @C((;C @C((;C @C((;C @C((;C @C((;C CC((;C CC((;C CC((;C CC((;C CC((;C CC((;C CC((;C CC((;C CC((;C CC((;C CC((;C CC((;C CC((;C CC((;C CC((;C CC((;C CC((;C CC((;C CC((;C CC((;C CC((;C CC((;C CC((;C CC((;C CC((;C CC((;C CC((;C CC((;C CC((;C CC((;C CC((;C CC((;C CC((;C CC((;C CC((;C CC((;C CC((;C CC((;C CC((;C CC((;C CC((;C CC((;C CC((;C CC((;C CC((;C CC((;C CC((;C CC((;C CC((;C CC((;C CC((;C CC((;C CC((;C CC((;C CC((;C CC((;C CC((;C CC((;C CC((;C CC((;C CC((;C CC((;C CC((;C CC((;C CC((;C CC((;C CC((;C CC((;C CC((;C CC((;C CC((;C CC((;C CC((;C CC((;C CC((;C CC((;C CC((;C CC((;C CC((;C CC((;C CC((;C CC((;C CC((;C CC((;C CC((;C CC((;C CC((;C CC((;C CC((;C CC((;C CC((;C CC((;C CC((;C CC((;C CC((;C CC((;C CC((;C CC((;C CC((;C CC((;C CC((;C CC((;C CC;C CC;C CC;C CC;C CC;C CC;C CC;C CC;C CC;C CC;C CC;C CC;C CC;C CC;C CC;C CC;C CC;C CC;C CC;C CC;C CC;C CC;C CC;C CC;C CC;C CC;C CC;C CC;C CC;C CC;C CC;C CC;C CC;C CC;C CC;C CC;C CC;C CC;C CC;C CC;C CC;C CC;C CC;C CC;C CC;C CC;C CC;C CC;C CC;C CC;C CC;C CC;C CC;C CC;C CC;C CC;C CC;C CC;C CC;C CC;C CC;C CC;C CC;C CC;C CC;C CC;C CC;C CC;C CC;C CC;C CC;C CC;C CC;C CC;C CC;C CC;C CC;C CC;C CC;C CC;C CC;C CC;C CC;C CC;C CC;C CC;C CC;C CC;C CC;C CC;C CC;C CC;C CC;C CC;C CC;C CC;C CC;C CC;C CC;C CC;C CC;C CC;C CC;C CC;C CC;C CC;C CC;C CC;C CC;C CC;C CC;C CC;C CC;C CC;C CC;C CC;C CC;C CC;C CC;C CC;C CC;C CC;C CC;C CC;C CC;C CC;C CC;C CC;C CC;C CC;C CC;C CC;C CC;C CC;C CC;C CC;C CC;C CC;C CC;C CC;C CC;C CC;C CC;C CC;C CC;C CC;C CC;C CC;C CC;C CC;C CC;C CC;C CC;C CC;C GC44CG GC44CG GC44CG GC44CG GC44CG GC44CG GC44CG GC44CG GC44CG GC44CG GC44CG GC44CG GC44CG GC44CG GC44CG GC44CG GC44CG GC44CG GC44CG GC44CG GC44CG GC44CG GC44CG GC44CG GC44CG GC44CG GC44CG GC44CG GC44CG GC44CG GC44CG GC44CG GC44CG GC44CG GC44CG GC44CG GC44CG GC44CG GC44CG GC44CG GC44CG GC44CG GC44CG GC44CG GC44CG GC44CG GC44CG GC44CG GC44CG GC44CG GC44CG GC44CG GC44CG GC44CG GC44CG GC44CG GC44CG GC44CG GC44CG GC44CG GC44CG GC44CG GC44CG GC44CG GC44CG GC44CG GC44CG GC44CG GC44CG GC44CG GC44CG GC44CG GC44CG GC44CG GC44CG GC44CG GC44CG GC44CG GC44CG GC44CG GC44CG GC44CG GC44CG GC44CG GC44CG GC44CG GC44CG GC44CG GC44CG GC44CG GC44CG GC44CG GC44CG GC44CG GC44CG GC44CG GC44CG GC44CG GC44CG GC44CG GC44CG GC44CG GC44CG GC44CG GC44CG GC44CG GC44CG GC44CG GC44CG GC44CG GC44CG GC44CG GC44CG GC44CG GC44CG GC44CG GC44CG GC44CG GC44CG GC44CG GC44CG GC44CG GC44CG GC44CG GC44CG GC44CG GC44CG GC44CG GC44CG GC44CG GC44CG GC44CG GC44CG GC44CG GC44CG GC44CG GC44CG GC44CG GC44CG GC44CG GC44CG GC44CG GC44CG GC44CG GC44CG GC44CG GC44CG GC44CG GC44CG GC44CG GC44CG GC44CG GC44CG GC44CG GC44CG GC44CG GC44CG GC44CG GC44CG GC44CG GC44CG GC44CG GC44CG GC44CG GC44CG GC44CG GC44CG GC44CG GC44CG GC44CG GC44CG GC44CG GC44CG GC44CG GC44CG GC44CG GC44CG GC44CG GC44CG GC44CG GC44CG GC44CG GC44CG GC44CG GC44CG GC44CG GC44CG GC44CG GC44CG GC44CG GC44CG GC44CG GC44CG GC44CG GC44CG GC44CG GC44CG GC44CG GC44CG GC44CG GC44CG GC44CG GC44CG GC44CG GC44CG GC44CG GC44CG GC44CG GC44CG GC44CG GC44CG GC44CG GC44CG GC44CG GC44CG GC44CG GC44CG GC44CG GC44CG GC44CG GC44CG GC44CG GC44CG GC44CG GC44CG GC44CG GC44CG GC44CG GC44CG GC44CG GC44CG GC44CG GC44CG GC44CG GC44CG GC44CG GC44CG GC44CG GC44CG GC44CG GC44CG GC44CG GC44CG GC44CG GC44CG GC44CG GC44CG GC44CG GC44CG GC44CG GC44CG GC44CG GC44CG GC44CG GC44CG GC44CG LC44CG LC44CG LC44CG LC44CG LC44CG LC44CG LC44CG LC44CG LC44CG LC44CG LC44CG LC44CG LC44CG LC44CG LC44CG LC44CG LC44CG LC44CG LC44CG LC44CG LC44CG LC44CG LC44CG LC44CG LC44CG LC44CG LC44CG LC44CG LC44CG LC44CG LC44CG LC44CG LC44CG LC44CG LC44CG LC44CG LC44CG LC44CG LC44CG LC44CG LC44CG LC44CG LC44CG LC44CG LC44CG LC44CG LC44CG LC44CG LC44CG LC44CG LC44CG LC44CG LC44CG LC44CG LC44CG LC44CG LC44CG LC44CG LC44CG LC44CG LC44CG LC44CG LC44CG LC44CG LC44CG LC44CG LC44CG LC44CG LC44CG LC44CG LC44CG LC44CG LC44CG LC44CG LC44CG LC44CG LC44CG LC44CG LC44CG LC44CG LC44CG LC44CG LC44CG LC44CG LC44CG LC44CG LC44CG LC44CG LC44CG LC44CG LC44CG LC44CG LC44CG LC44CG LC44CG LC44CG LC44CG LC44CG LC44CG LC44CG LC44CG LC44CG LC44CG LC44CG LC44CG LC44CG LC44CG LC44CG LC44CG LC44CG LC44CG LC44CG LC44CG LC44CG LC44CG LC44CG LC44CG LC44CG LC44CG LC44CG LC44CG LC44CG LC44CG LC44CG LC44CG LC44CG LC44CG LC44CG LC44CG LC44CG LC44CG LC44CG LC44CG LC44CG LC44CG LC44CG LC44CG LC44CG LC44CG LC44CG LC44CG LC44CG LC44CG LC44CG LC44CG LC44CG LC44CG LC44CG LC44CG LC44CG LC44CG LC44CG LC44CG LC44CG LC44CG LC44CG LC44CG LC44CG LC44CG LC44CG LC44CG LC44CG LC44CG LC44CG LC44CG LC44CG LC44CG LC44CG LC44CG LC44CG LC44CG LC44CG LC44CG LC44CG LC44CG LC44CG LC44CG LC44CG LC44CG LC44CG LC44CG LC44CG LC44CG LC44CG LC44CG LC44CG LC44CG LC44CG LC44CG LC44CG LC44CG LC44CG LC44CG LC44CG LC44CG LC44CG LC44CG LC44CG LC44CG LC44CG LC44CG LC44CG LC44CG LC44CG LC44CG LC44CG LC44CG LC44CG LC44CG LC44CG LC44CG LC44CG LC44CG LC44CG LC44CG LC44CG LC44CG LC44CG LC44CG LC44CG LC44CG LC44CG LC44CG LC44CG LC44CG LC44CG LC44CG LC44CG LC44CG LC44CG LC44CG LC44CG LC44CG LC44CG LC44CG LC44CG LC44CG LC44CG LC44CG LC44CG LC44CG LC44CG LC44CG LC44CG LC44CG LC44CG LC44CG LC44CG LC44CG LC44CG LC44CG LC44CG LC44CG LC44CG LC44CG LC44CG O44CG O44CG O44CG O44CG O44CG O44CG O44CG O44CG O44CG O44CG O44CG O44CG O44CG O44CG O44CG O44CG O44CG O44CG O44CG O44CG O44CG O44CG O44CG O44CG O44CG O44CG O44CG O44CG O44CG O44CG O44CG O44CG O44CG O44CG O44CG O44CG O44CG O44CG O44CG O44CG O44CG O44CG O44CG O44CG O44CG O44CG O44CG O44CG O44CG O44CG O44CG O44CG O44CG O44CG O44CG O44CG O44CG O44CG O44CG O44CG O44CG O44CG O44CG O44CG O44CG O44CG O44CG O44CG O44CG O44CG O44CG O44CG O44CG O44CG O44CG O44CG O44CG O44CG O44CG O44CG O44CG O44CG O44CG O44CG O44CG O44CG O44CG O44CG O44CG O44CG O44CG O44CG O44CG O44CG O44CG O44CG O44CG O44CG O44CG O44CG O44CG O44CG O44CG O44CG O44CG O44CG O44CG O44CG O44CG O44CG O44CG O44CG O44CG O44CG O44CG O44CG O44CG O44CG O44CG O44CG O44CG O44CG O44CG O44CG O44CG O44CG O44CG O44CG O44CG O44CG O44CG O44CG O44CG O44CG O44CG O44CG O44CG O44CG O44CG O44CG O44CG O44CG O44CG O44CG O44CG O44CG O44CG O44CG O44CG O44CG O44CG O44CG O44CG O44CG O44CG O44CG O44CG O44CG O44CG O44CG O44CG O44CG O44CG O44CG O44CG O44CG O44CG O44CG O44CG O44CG O44CG O44CG O44CG O44CG O44CG O44CG O44CG O44CG O44CG O44CG O44CG O44CG O44CG O44CG O44CG O44CG O44CG O44CG O44CG O44CG O44CG O44CG O44CG O44CG O44CG O44CG O44CG O44CG O44CG O44CG O44CG O44CG O44CG O44CG O44CG O44CG O44CG O44CG O44CG O44CG O44CG O44CG O44CG O44CG O44CG O44CG O44CG O44CG O44CG O44CG O44CG O44CG O44CG O44CG O44CG O44CG O44CG O44CG O44CG O44CG O44CG O44CG O44CG O44CG O44CG O44CG O44CG O44CG O44CG O44CG O44CG O44CG O44CG O44CG O44CG O44CG O44CG O44CG O44CG O44CG O44CG O44CG O44CG O44CG O44CG O44CG O44CG O44CG O44CG O44CG O44CG O44CG O44CG O44CG O44CG O44CG O44CG O44CG O44CG O44CG O44CG O44CG O44CG O44CG O44CG O44CG O44CG O44CG O44CG O44CG O44CG O44CG O44CG O44CG O44CG O44CG O44CG O44CG O44CG O44CG O44CG O44CG O44CG O44CG O44CG O44CG O44CG O44CG O44CG O44CG O44CG O44CG O44CG O44CG O44CG O44CG O44CG O44CG O44CG O44CG O44CG O44CG O44CG O44CG O44CG O44CG O44CG O44CG O44CG O44CG O44CG O44CG O44CG O44CG O44CG O44CG O44CG O44CG O44CG O44CG O44CG O44CG O44CG O44CG O44CG O44CG O44CG O44CG O44CG O44CG O44CG O44CG O44CG O44CG O44CG O44CG O44CG O44CG O44CG O44CG O44CG O44CG O44CG O44CG O44CG O44CG O44CG O44CG O44CG O44CG O44CG O44CG O44CG O44CG O44CG O44CG O44CG O44CG O44CG O44CG O44CG O44CG O44CG O44CG O44CG O44CG O44CG O44CG O44CG O44CG O44CG O44CG O44CG O44CG O44CG O44CG O44CG O44CG O44CG O44CG O44CG O44CG O44CG O44CG O44CG O44CG O44CG O44CG O44CG O44CG O44CG O44CG O44CG O44CG O44CG O44CG O44CG O44CG O44CG O44CG OCG OCG OCG OCG OCG OCG OCG OCG OCG OCG OCG OCG OCG OCG OCG OCG OCG OCG OCG OCG OCG OCG OCG OCG OCG OCG OCG OCG OCG OCG OCG OCG OCG OCG OCG OCG OCG OCG OCG OCG OCG OCG OCG OCG OCG OCG OCG OCG OCG OCG OCG OCG OCG OCG OCG OCG OCG OCG OCG OCG OCG OCG OCG OCG OCG OCG OCG OCG OCG OCG OCG OCG OCG OCG OCG OCG OCG OCG OCG OCG OCG OCG OCG OCG OCG OCG OCG OCG OCG OCG OCG OCG OCG OCG OCG OCG OCG OCG OCG OCG OCG OCG @696@ @696@ @696@ @696@ @696@ @696@ @696@ @696@ @696@ @696@ @696@ @696@ @696@ @696@ @696@ @696@ @696@ @696@ @696@ @696@ @696@ @696@ @696@ @696@ @696@ @696@ @696@ @696@ @696@ @696@ @696@ @696@ @696@ @696@ @696@ @696@ @696@ @696@ @696@ @696@ @696@ @696@ @696@ @696@ @696@ @696@ @696@ @696@ @696@ @696@ @696@ @696@ @696@ @696@ @696@ @696@ @696@ @696@ @696@ @696@ @696@ @696@ @696@ @696@ @696@ @696@ @696@ @696@ @696@ @696@ @696@ @696@ @696@ @696@ @696@ @696@ @696@ @696@ @696@ @696@ @696@ @696@ @696@ @696@ @696@ @696@ @696@ @696@ @696@ @696@ @696@ @696@ @696@ @696@ @696@ @696@ @696@ @696@ @696@ @696@ @696@ @696@ @696@ @696@ @696@ @696@ @696@ @696@ @696@ @696@ @696@ @696@ @696@ @696@ @696@ @696@ @696@ @696@ @696@ @696@ @696@ @696@ @696@ @696@ @696@ @696@ @696@ @696@ @696@ @696@ @696@ @696@ @696@ @696@ @696@ @696@ @696@ @696@ @696@ @696@ @696@ @696@ @696@ @696@ @696@ @696@ @696@ @696@ @696@ @696@ @696@ @696@ @696@ @696@ @696@ @696@ @696@ @696@ @696@ @696@ @696@ @696@ @696@ @696@ @696@ @696@ @696@ @696@ @696@ @696@ @696@ @696@ @696@ @696@ @696@ @696@ @696@ @696@ @696@ @696@ @696@ @696@ @696@ @696@ @696@ @696@ @696@ @696@ @696@ @696@ @696@ @696@ @696@ @696@ @696@ @696@ @696@ @696@ @696@ @696@ @696@ @696@ @696@ @696@ @696@ @696@ @696@ @696@ @696@ @696@ @696@ @696@ @696@ @696@ @696@ @696@ @696@ @696@ @696@ @696@ @696@ @696@ @696@ @696@ @696@ @696@ @696@ @696@ @696@ @696@ @696@ @696@ @696@ @696@ @696@ @696@ @696@ @696@ @696@ @696@ @696@ @696@ @696@ @696@ @696@ @696@ @696@ @696@ @696@ @696@ @696@ @696@ @696@ @696@ @696@ @696@ @7@;7 @7@;7 @7@;7 @7@;7 @7@;7 @7@;7 @7@;7 @7@;7 @7@;7 @7@;7 @7@;7 @7@;7 @7@;7 @7@;7 @7@;7 @7@;7 @7@;7 @7@;7 @7@;7 @7@;7 @7@;7 @7@;7 @7@;7 @7@;7 @7@;7 @7@;7 @7@;7 @7@;7 @7@;7 @7@;7 @7@;7 @7@;7 @7@;7 @7@;7 @7@;7 @7@;7 @7@;7 @7@;7 @7@;7 @7@;7 @7@;7 @7@;7 @7@;7 @7@;7 @7@;7 @7@;7 @7@;7 @7@;7 @7@;7 @7@;7 @7@;7 @7@;7 @7@;7 @7@;7 @7@;7 @7@;7 @7@;7 @7@;7 @7@;7 @7@;7 @7@;7 @7@;7 @7@;7 @7@;7 @7@;7 @7@;7 @7@;7 @7@;7 @7@;7 @7@;7 @7@;7 @7@;7 @7@;7 @7@;7 @7@;7 @7@;7 @7@;7 @7@;7 @7@;7 @7@;7 @7@;7 @7@;7 @7@;7 @7@;7 @7@;7 @7@;7 @7@;7 @7@;7 @7@;7 @7@;7 @7@;7 @7@;7 @7@;7 @7@;7 @7@;7 @7@;7 @7@;7 @7@;7 @7@;7 @7@;7 @7@;7 @7@;7 @7@;7 @7@;7 @7@;7 @7@;7 @7@;7 @7@;7 @7@;7 @7@;7 @7@;7 @7@;7 @7@;7 @7@;7 @7@;7 @7@;7 @7@;7 @7@;7 @7@;7 @7@;7 @7@;7 @7@;7 @7@;7 @7@;7 @7@;7 @7@;7 @7@;7 @7@;7 @7@;7 @7@;7 @7@;7 @7@;7 @7@;7 @7@;7 @7@;7 @7@;7 @7@;7 @7@;7 @7@;7 @7@;7 @7@;7 @7@;7 @7@;7 @7@;7 @7@;7 @7@;7 @7@;7 @7@;7 @7@;7 @7@;7 @7@;7 @7@;7 @7@;7 @7@;7 @7@;7 @7@;7 @7@;7 @7@;7 @7@;7 @7@;7 @7@;7 @7@;7 @7@;7 @7@;7 @7@;7 @7@;7 @7@;7 @7@;7 @7@;7 @7@;7 @7@;7 @7@;7 @7@;7 @7@;7 @7@;7 @7@;7 @7@;7 @7@;7 @7@;7 @7@;7 @7@;7 @7@;7 @7@;7 @7@;7 @7@;7 @7@;7 @7@;7 @7@;7 @7@;7 @7@;7 @7@;7 @7@;7 @7@;7 @7@;7 @7@;7 @7@;7 @7@;7 @7@;7 @7@;7 @7@;7 @7@;7 @7@;7 @7@;7 @7@;7 @7@;7 @7@;7 @7@;7 @7@;7 @7@;7 @7@;7 @7@;7 @7@;7 @7@;7 @7@;7 @7@;7 @7@;7 @7@;7 @7@;7 @7@;7 @7@;7 @7@;7 @7@;7 @7@;7 @7@;7 @7@;7 @7@;7 @7@;7 @7@;7 @7@;7 @7@;7 @7@;7 @7@;7 @7@;7 @7@;7 @7@;7 @7@;7 @7@;7 @7@;7 @7@;7 @7@;7 @7@;7 @7@;7 @7@;7 @7@;7 @7@;7 @7@;7 @7@;7 @7@;7 @7@;7 @7@;7 @7@;7 @7@;7 @7@;7 @7@;7 @7@;7 @7@;7 >99 >99 >99 >99 >99 >99 >99 >99 >99 >99 >99 >99 >99 >99 >99 >99 >99 >99 >99 >99 >99 >99 >99 >99 >99 >99 >99 >99 >99 >99 >99 >99 >99 >99 >99 >99 >99 >99 >99 >99 >99 >99 >99 >99 >99 >99 >99 >99 >99 >99 >99 >99 >99 >99 >99 >99 >99 >99 >99 >99 >99 >99 >99 >99 >99 >99 >99 >99 >99 >99 >99 >99 >99 >99 >99 >99 >99 >99 >99 >99 >99 >99 >99 >99 >99 >99 >99 >99 >99 >99 >99 >99 >99 >99 >99 >99 >99 >99 >99 >99 >99 >99 >99 >99 >99 >99 >99 >99 >99 >99 >99 >99 >99 >99 >99 >99 >99 >99 >99 >99 >99 >99 >99 >99 >99 >99 >99 >99 >99 >99 >99 >99 >99 >99 >99 >99 >99 >99 >99 >99 >99 >99 >99 >99 >99 >99 >99 >99 >99 >99 >99 >99 >99 >99 >99 >99 >99 >99 >99 >99 >99 >99 >99 >99 >99 >99 >99 >99 >99 >99 >99 >99 >99 >99 >99 >99 >99 >99 >99 >99 >99 >99 >99 >99 >99 >99 >99 >99 >99 >99 >99 >99 >99 >99 >99 >99 >99 >99 >99 >99 >99 >99 >99 >99 >99 >99 >99 >99 >99 >99 >99 >99 >99 >99 >99 >99 >99 >99 >99 >99 >99 >99 >99 >99 >99 >99 >99 >99 >99 >99 >99 >99 >99 >99 >99 >99 >99 >99 >99 >99 >99 >99 >99 >99 >99 >99 >99 >99 >99 >99 >99 >99 >99 >99 >99 >99 =99 =99 =99 =99 =99 =99 =99 =99 =99 =99 =99 =99 =99 =99 =99 =99 =99 =99 =99 =99 =99 =99 =99 =99 =99 =99 =99 =99 =99 =99 =99 =99 =99 =99 =99 =99 =99 =99 =99 =99 =99 =99 =99 =99 =99 =99 =99 =99 =99 =99 =99 =99 =99 =99 =99 =99 =99 =99 =99 =99 =99 =99 =99 =99 =99 =99 =99 =99 =99 =99 =99 =99 =99 =99 =99 =99 =99 =99 =99 =99 =99 =99 =99 =99 =99 =99 =99 =99 =99 =99 =99 =99 =99 =99 =99 =99 =99 =99 =99 =99 =99 =99 = = = = = = = = = = = = = = = = = = = = = = = = = = = = = = = = = = = = = = = = = = = = = = = = = = = = = = = = = = = = = = = = = = = = = = = = = = = = = = = = = = = = = = = = = = = = = = = = = = = = = = = = = = = = = = = = = = = = = = = = = = = = = = = = = = = = = = = = = = = = = = = = = = = = = = = = = = ;77@ ;77@ ;77@ ;77@ ;77@ ;77@ ;77@ ;77@ ;77@ ;77@ ;77@ ;77@ ;77@ ;77@ ;77@ ;77@ ;77@ ;77@ ;77@ ;77@ ;77@ ;77@ ;77@ ;77@ ;77@ ;77@ ;77@ ;77@ ;77@ ;77@ ;77@ ;77@ ;77@ ;77@ ;77@ ;77@ ;77@ ;77@ ;77@ ;77@ ;77@ ;77@ ;77@ ;77@ ;77@ ;77@ ;77@ ;77@ ;77@ ;77@ ;77@ ;77@ ;77@ ;77@ ;77@ ;77@ ;77@ ;77@ ;77@ ;77@ ;77@ ;77@ ;77@ ;77@ ;77@ ;77@ ;77@ ;77@ ;77@ ;77@ ;77@ ;77@ ;77@ ;77@ ;77@ ;77@ ;77@ ;77@ ;77@ ;77@ ;77@ ;77@ ;77@ ;77@ ;77@ ;77@ ;77@ ;77@ ;77@ ;77@ ;77@ ;77@ ;77@ ;77@ ;77@ ;77@ ;77@ ;77@ ;77@ ;77@ ;77@ ;77@ ;77@ ;77@ ;77@ ;77@ ;77@ ;77@ ;77@ ;77@ ;77@ ;77@ ;77@ ;77@ ;77@ ;77@ ;77@ ;77@ ;77@ ;77@ ;77@ ;77@ ;77@ ;77@ ;77@ ;77@ ;77@ ;77@ ;77@ ;77@ ;77@ ;77@ ;77@ ;77@ ;77@ ;77@ ;77@ ;77@ ;77@ ;77@ ;77@ ;77@ ;77@ ;77@ ;77@ ;77@ ;77@ ;77@ ;77@ ;77@ ;77@ ;77@ ;77@ ;77@ ;77@ ;77@ ;77@ ;77@ ;77@ ;77@ ;77@ ;77@ ;77@ ;77@ ;77@ ;77@ ;77@ ;77@ ;77@ ;77@ ;77@ ;77@ ;77@ ;77@ ;77@ ;77@ ;77@ ;77@ ;77@ ;77@ ;77@ ;77@ ;77@ ;77@ ;77@ ;77@ ;77@ ;77@ ;77@ ;77@ ;77@ ;77@ ;77@ ;77@ ;77@ ;77@ ;77@ ;77@ ;77@ ;77@ ;77@ ;77@ ;77@ ;77@ ;77@ ;77@ ;77@ ;77@ ;77@ ;77@ ;77@ ;77@ ;77@ ;77@ ;77@ ;77@ ;77@ ;77@ ;77@ ;77@ ;77@ ;77@ ;77@ ;77@ ;77@ ;77@ ;77@ ;77@ ;77@ ;77@ ;77@ ;77@ ;77@ ;77@ ;77@ ;77@ ;77@ ;77@ ;77@ ;77@ ;77@ ;77@ ;77@ ;77@ ;77@ ;77@ ;77@ ;77@ ;77@ ;77@ ;77@ ;77@ ;77@ ;77@ ;77@ ;77@ 977@ 977@ 977@ 977@ 977@ 977@ 977@ 977@ 977@ 977@ 977@ 977@ 977@ 977@ 977@ 977@ 977@ 977@ 977@ 977@ 977@ 977@ 977@ 977@ 977@ 977@ 977@ 977@ 977@ 977@ 977@ 977@ 977@ 977@ 977@ 977@ 977@ 977@ 977@ 977@ 977@ 977@ 977@ 977@ 977@ 977@ 977@ 977@ 977@ 977@ 977@ 977@ 977@ 977@ 977@ 977@ 977@ 977@ 977@ 977@ 977@ 977@ 977@ 977@ 977@ 977@ 977@ 977@ 977@ 977@ 977@ 977@ 977@ 977@ 977@ 977@ 977@ 977@ 977@ 977@ 977@ 977@ 977@ 977@ 977@ 977@ 977@ 977@ 977@ 977@ 977@ 977@ 977@ 977@ 977@ 977@ 977@ 977@ 977@ 977@ 977@ 977@ 9@ 9@ 9@ 9@ 9@ 9@ 9@ 9@ 9@ 9@ 9@ 9@ 9@ 9@ 9@ 9@ 9@ 9@ 9@ 9@ 9@ 9@ 9@ 9@ 9@ 9@ 9@ 9@ 9@ 9@ 9@ 9@ 9@ 9@ 9@ 9@ 9@ 9@ 9@ 9@ 9@ 9@ 9@ 9@ 9@ 9@ 9@ 9@ 9@ 9@ 9@ 9@ 9@ 9@ 9@ 9@ 9@ 9@ 9@ 9@ 9@ 9@ 9@ 9@ 9@ 9@ 9@ 9@ 9@ 9@ 9@ 9@ 9@ 9@ 9@ 9@ 9@ 9@ 9@ 9@ 9@ 9@ 9@ 9@ 9@ 9@ 9@ 9@ 9@ 9@ 9@ 9@ 9@ 9@ 9@ 9@ 9@ 9@ 9@ 9@ 9@ 9@ 9@ 9@ 9@ 9@ 9@ 9@ 9@ 9@ 9@ 9@ 9@ 9@ 9@ 9@ 9@ 9@ 9@ 9@ 9@ 9@ 9@ 9@ 9@ 9@ 9@ 9@ 9@ 9@ 9@ 9@ 9@ 9@ 9@ 9@ 9@ 9@ 9@ 9@ 9@ 9@ 9@ 9@ 9@ 9@ 9@ 9@ 9@ 9@ 9@ 9@ 9@ 9@ E66>E E66>E E66>E E66>E E66>E E66>E E66>E E66>E E66>E E66>E E66>E E66>E E66>E E66>E E66>E E66>E E66>E E66>E E66>E E66>E E66>E E66>E E66>E E66>E E66>E E66>E E66>E E66>E E66>E E66>E E66>E E66>E E66>E E66>E E66>E E66>E E66>E E66>E E66>E E66>E E66>E E66>E E66>E E66>E E66>E E66>E E66>E E66>E E66>E E66>E E66>E E66>E E66>E E66>E E66>E E66>E E66>E E66>E E66>E E66>E E66>E E66>E E66>E E66>E E66>E E66>E E66>E E66>E E66>E E66>E E66>E E66>E E66>E E66>E E66>E E66>E E66>E E66>E E66>E E66>E E66>E E66>E E66>E E66>E E66>E E66>E E66>E E66>E E66>E E66>E E66>E E66>E E66>E E66>E E66>E E66>E E66>E E66>E E66>E E66>E E66>E E66>E E66>E E66>E E66>E E66>E E66>E E66>E E66>E E66>E E66>E E66>E E66>E E66>E E66>E E66>E E66>E E66>E E66>E E66>E E66>E E66>E E66>E E66>E E66>E E66>E E66>E E66>E E66>E E66>E E66>E E66>E E66>E E66>E E66>E E66>E E66>E E66>E E66>E E66>E E66>E E66>E E66>E E66>E E66>E E66>E E66>E E66>E E66>E E66>E E66>E E66>E E66>E E66>E E66>E E66>E E66>E E66>E E66>E E66>E E66>E E66>E E66>E E66>E E66>E E66>E E66>E E66>E E66>E E66>E E66>E E66>E E66>E E66>E E66>E E66>E E66>E E66>E E66>E E66>E E66>E E66>E E66>E E66>E E66>E E66>E E66>E E66>E E66>E E66>E E66>E E66>E E66>E E66>E E66>E E66>E E66>E E66>E E66>E E66>E E66>E E66>E E66>E E66>E E66>E E66>E E66>E E66>E E66>E E66>E E66>E E66>E E66>E E66>E E66>E E66>E E66>E E66>E E66>E E66>E E66>E E66>E E66>E E66>E E66>E E66>E E66>E E66>E E66>E E66>E E66>E E66>E E66>E E66>E E66>E E66>E E66>E E66>E E66>E E66>E E66>E E66>E E66>E E66>E E66>E E66>E E66>E E66>E E66>E E66>E E66>E E66>E E66>E E66>E E66>E E66>E B66>E B66>E B66>E B66>E B66>E B66>E B66>E B66>E B66>E B66>E B66>E B66>E B66>E B66>E B66>E B66>E B66>E B66>E B66>E B66>E B66>E B66>E B66>E B66>E B66>E B66>E B66>E B66>E B66>E B66>E B66>E B66>E B66>E B66>E B66>E B66>E B66>E B66>E B66>E B66>E B66>E B66>E B66>E B66>E B66>E B66>E B66>E B66>E B66>E B66>E B66>E B66>E B66>E B66>E B66>E B66>E B66>E B66>E B66>E B66>E B66>E B66>E B66>E B66>E B66>E B66>E B66>E B66>E B66>E B66>E B66>E B66>E B66>E B66>E B66>E B66>E B66>E B66>E B66>E B66>E B66>E B66>E B66>E B66>E B66>E B66>E B66>E B66>E B66>E B66>E B66>E B66>E B66>E B66>E B66>E B66>E B66>E B66>E B66>E B66>E B66>E B66>E B>E B>E B>E B>E B>E B>E B>E B>E B>E B>E B>E B>E B>E B>E B>E B>E B>E B>E B>E B>E B>E B>E B>E B>E B>E B>E B>E B>E B>E B>E B>E B>E B>E B>E B>E B>E B>E B>E B>E B>E B>E B>E B>E B>E B>E B>E B>E B>E B>E B>E B>E B>E B>E B>E B>E B>E B>E B>E B>E B>E B>E B>E B>E B>E B>E B>E B>E B>E B>E B>E B>E B>E B>E B>E B>E B>E B>E B>E B>E B>E B>E B>E B>E B>E B>E B>E B>E B>E B>E B>E B>E B>E B>E B>E B>E B>E B>E B>E B>E B>E B>E B>E B>E B>E B>E B>E B>E B>E B>E B>E B>E B>E B>E B>E B>E B>E B>E B>E B>E B>E B>E B>E B>E B>E B>E B>E B>E B>E B>E B>E B>E B>E B>E B>E B>E B>E B>E B>E B>E B>E B>E B>E B>E B>E B>E B>E B>E B>E B>E B>E B>E B>E B>E B>E @;@;BG @;@;BG @;@;BG @;@;BG @;@;BG @;@;BG @;@;BG @;@;BG @;@;BG @;@;BG @;@;BG @;@;BG @;@;BG @;@;BG @;@;BG @;@;BG @;@;BG @;@;BG @;@;BG @;@;BG @;@;BG @;@;BG @;@;BG @;@;BG @;@;BG @;@;BG @;@;BG @;@;BG @;@;BG @;@;BG @;@;BG @;@;BG @;@;BG @;@;BG @;@;BG @;@;BG @;@;BG @;@;BG @;@;BG @;@;BG @;@;BG @;@;BG @;@;BG @;@;BG @;@;BG @;@;BG @;@;BG @;@;BG @;@;BG @;@;BG @;@;BG @;@;BG @;@;BG @;@;BG @;@;BG @;@;BG @;@;BG @;@;BG @;@;BG @;@;BG @;@;BG @;@;BG @;@;BG @;@;BG @;@;BG @;@;BG @;@;BG @;@;BG @;@;BG @;@;BG @;@;BG @;@;BG @;@;BG @;@;BG @;@;BG @;@;BG @;@;BG @;@;BG @;@;BG @;@;BG @;@;BG @;@;BG @;@;BG @;@;BG @;@;BG @;@;BG @;@;BG @;@;BG @;@;BG @;@;BG @;@;BG @;@;BG @;@;BG @;@;BG @;@;BG @;@;BG @;@;BG @;@;BG @;@;BG @;@;BG @;@;BG @;@;BG @;@;BG @;@;BG @;@;BG @;@;BG @;@;BG @;@;BG @;@;BG @;@;BG @;@;BG @;@;BG @;@;BG @;@;BG @;@;BG @;@;BG @;@;BG @;@;BG @;@;BG @;@;BG @;@;BG @;@;BG @;@;BG @;@;BG @;@;BG @;@;BG @;@;BG @;@;BG @;@;BG @;@;BG @;@;BG @;@;BG @;@;BG @;@;BG @;@;BG @;@;BG @;@;BG @;@;BG @;@;BG @;@;BG @;@;BG @;@;BG @;@;BG @;@;BG @;@;BG @;@;BG @;@;BG @;@;BG @;@;BG @;@;BG @;@;BG @;@;BG @;@;BG @;@;BG @;@;BG @;@;BG @;@;BG @;@;BG @;@;BG @;@;BG @;@;BG @;@;BG @;@;BG @;@;BG @;@;BG @;@;BG @;@;BG @;@;BG @;@;BG @;@;BG @;@;BG @;@;BG @;@;BG @;@;BG @;@;BG @;@;BG @;@;BG @;@;BG @;@;BG @;@;BG @;@;BG @;@;BG @;@;BG @;@;BG @;@;BG @;@;BG @;@;BG @;@;BG @;@;BG @;@;BG @;@;BG @;@;BG @;@;BG @;@;BG @;@;BG @;@;BG @;@;BG @;@;BG @;@;BG @;@;BG @;@;BG @;@;BG @;@;BG @;@;BG @;@;BG @;@;BG @;@;BG @;@;BG @;@;BG @;@;BG @;@;BG @;@;BG @;@;BG @;@;BG @;@;BG @;@;BG @;@;BG @;@;BG @;@;BG @;@;BG @;@;BG @;@;BG @;@;BG @;@;BG @;@;BG @;@;BG @;@;BG @;@;BG @;@;BG @;@;BG @;@;BG @;@;BG @;@;BG @;@;BG @;@;BG @;@;BG @;@;BG @;@;BG @;@;BG @;@;BG @;@;BG @;@;BG @;@;BG @;@;BG @;@;BG @;@;BG @;@;BG @;@;BG @;@;BG @;@;BG @;@;BG @;@;BG @;@;BG @;@;BG @;@;BG @;@;BG >;;BG> >;;BG> >;;BG> >;;BG> >;;BG> >;;BG> >;;BG> >;;BG> >;;BG> >;;BG> >;;BG> >;;BG> >;;BG> >;;BG> >;;BG> >;;BG> >;;BG> >;;BG> >;;BG> >;;BG> >;;BG> >;;BG> >;;BG> >;;BG> >;;BG> >;;BG> >;;BG> >;;BG> >;;BG> >;;BG> >;;BG> >;;BG> >;;BG> >;;BG> >;;BG> >;;BG> >;;BG> >;;BG> >;;BG> >;;BG> >;;BG> >;;BG> >;;BG> >;;BG> >;;BG> >;;BG> >;;BG> >;;BG> >;;BG> >;;BG> >;;BG> >;;BG> >;;BG> >;;BG> >;;BG> >;;BG> >;;BG> >;;BG> >;;BG> >;;BG> >;;BG> >;;BG> >;;BG> >;;BG> >;;BG> >;;BG> >;;BG> >;;BG> >;;BG> >;;BG> >;;BG> >;;BG> >;;BG> >;;BG> >;;BG> >;;BG> >;;BG> >;;BG> >;;BG> >;;BG> >;;BG> >;;BG> >;;BG> >;;BG> >;;BG> >;;BG> >;;BG> >;;BG> >;;BG> >;;BG> >;;BG> >;;BG> >;;BG> >;;BG> >;;BG> >;;BG> >;;BG> >;;BG> >;;BG> >;;BG> >;;BG> >;;BG> >BG> >BG> >BG> >BG> >BG> >BG> >BG> >BG> >BG> >BG> >BG> >BG> >BG> >BG> >BG> >BG> >BG> >BG> >BG> >BG> >BG> >BG> >BG> >BG> >BG> >BG> >BG> >BG> >BG> >BG> >BG> >BG> >BG> >BG> >BG> >BG> >BG> >BG> >BG> >BG> >BG> >BG> >BG> >BG> >BG> >BG> >BG> >BG> >BG> >BG> >BG> >BG> >BG> >BG> >BG> >BG> >BG> >BG> >BG> >BG> >BG> >BG> >BG> >BG> >BG> >BG> >BG> >BG> >BG> >BG> >BG> >BG> >BG> >BG> >BG> >BG> >BG> >BG> >BG> >BG> >BG> >BG> >BG> >BG> >BG> >BG> >BG> >BG> >BG> >BG> >BG> >BG> >BG> >BG> >BG> >BG> >BG> >BG> >BG> >BG> >BG> >BG> >BG> >BG> >BG> >BG> >BG> >BG> >BG> >BG> >BG> >BG> >BG> >BG> >BG> >BG> >BG> >BG> >BG> >BG> >BG> >BG> >BG> >BG> >BG> >BG> >BG> >BG> >BG> >BG> >BG> >BG> >BG> >BG> >BG> >BG> >BG> >BG> >BG> >BG> >BG> >BG> >BG> >BG> >BG> >BG> >BG> >BG> >BG> >BG> >BG> >BG> >BG> >BG> B7BE7 B7BE7 B7BE7 B7BE7 B7BE7 B7BE7 B7BE7 B7BE7 B7BE7 B7BE7 B7BE7 B7BE7 B7BE7 B7BE7 B7BE7 B7BE7 B7BE7 B7BE7 B7BE7 B7BE7 B7BE7 B7BE7 B7BE7 B7BE7 B7BE7 B7BE7 B7BE7 B7BE7 B7BE7 B7BE7 B7BE7 B7BE7 B7BE7 B7BE7 B7BE7 B7BE7 B7BE7 B7BE7 B7BE7 B7BE7 B7BE7 B7BE7 B7BE7 B7BE7 B7BE7 B7BE7 B7BE7 B7BE7 B7BE7 B7BE7 B7BE7 B7BE7 B7BE7 B7BE7 B7BE7 B7BE7 B7BE7 B7BE7 B7BE7 B7BE7 B7BE7 B7BE7 B7BE7 B7BE7 B7BE7 B7BE7 B7BE7 B7BE7 B7BE7 B7BE7 B7BE7 B7BE7 B7BE7 B7BE7 B7BE7 B7BE7 B7BE7 B7BE7 B7BE7 B7BE7 B7BE7 B7BE7 B7BE7 B7BE7 B7BE7 B7BE7 B7BE7 B7BE7 B7BE7 B7BE7 B7BE7 B7BE7 B7BE7 B7BE7 B7BE7 B7BE7 B7BE7 B7BE7 B7BE7 B7BE7 B7BE7 B7BE7 B7BE7 B7BE7 B7BE7 B7BE7 B7BE7 B7BE7 B7BE7 B7BE7 B7BE7 B7BE7 B7BE7 B7BE7 B7BE7 B7BE7 B7BE7 B7BE7 B7BE7 B7BE7 B7BE7 B7BE7 B7BE7 B7BE7 B7BE7 B7BE7 B7BE7 B7BE7 B7BE7 B7BE7 B7BE7 B7BE7 B7BE7 B7BE7 B7BE7 B7BE7 B7BE7 B7BE7 B7BE7 B7BE7 B7BE7 B7BE7 B7BE7 B7BE7 B7BE7 B7BE7 B7BE7 B7BE7 B7BE7 B7BE7 B7BE7 B7BE7 B7BE7 B7BE7 B7BE7 B7BE7 B7BE7 B7BE7 B7BE7 B7BE7 B7BE7 B7BE7 B7BE7 B7BE7 B7BE7 B7BE7 B7BE7 B7BE7 B7BE7 B7BE7 B7BE7 B7BE7 B7BE7 B7BE7 B7BE7 B7BE7 B7BE7 B7BE7 B7BE7 B7BE7 B7BE7 B7BE7 B7BE7 B7BE7 B7BE7 B7BE7 B7BE7 B7BE7 B7BE7 B7BE7 B7BE7 B7BE7 B7BE7 B7BE7 B7BE7 B7BE7 B7BE7 B7BE7 B7BE7 B7BE7 B7BE7 B7BE7 B7BE7 B7BE7 B7BE7 B7BE7 B7BE7 B7BE7 B7BE7 B7BE7 B7BE7 B7BE7 B7BE7 B7BE7 B7BE7 B7BE7 B7BE7 B7BE7 B7BE7 B7BE7 B7BE7 B7BE7 B7BE7 B7BE7 B7BE7 B7BE7 B7BE7 B7BE7 B7BE7 B7BE7 B7BE7 B7BE7 B7BE7 B7BE7 B7BE7 B7BE7 B7BE7 B7BE7 B7BE7 B7BE7 B7BE7 B7BE7 B7BE7 B7BE7 B7BE7 B7BE7 B7BE7 B7BE7 B7BE7 B7BE7 B7BE7 B7BE7 B7BE7 B7BE7 B7BE7 B7BE7 @77@C @77@C @77@C @77@C @77@C @77@C @77@C @77@C @77@C @77@C @77@C @77@C @77@C @77@C @77@C @77@C @77@C @77@C @77@C @77@C @77@C @77@C @77@C @77@C @77@C @77@C @77@C @77@C @77@C @77@C @77@C @77@C @77@C @77@C @77@C @77@C @77@C @77@C @77@C @77@C @77@C @77@C @77@C @77@C @77@C @77@C @77@C @77@C @77@C @77@C @77@C @77@C @77@C @77@C @77@C @77@C @77@C @77@C @77@C @77@C @77@C @77@C @77@C @77@C @77@C @77@C @77@C @77@C @77@C @77@C @77@C @77@C @77@C @77@C @77@C @77@C @77@C @77@C @77@C @77@C @77@C @77@C @77@C @77@C @77@C @77@C @77@C @77@C @77@C @77@C @77@C @77@C @77@C @77@C @77@C @77@C @77@C @77@C @77@C @77@C @77@C @77@C @@C @@C @@C @@C @@C @@C @@C @@C @@C @@C @@C @@C @@C @@C @@C @@C @@C @@C @@C @@C @@C @@C @@C @@C @@C @@C @@C @@C @@C @@C @@C @@C @@C @@C @@C @@C @@C @@C @@C @@C @@C @@C @@C @@C @@C @@C @@C @@C @@C @@C @@C @@C @@C @@C @@C @@C @@C @@C @@C @@C @@C @@C @@C @@C @@C @@C @@C @@C @@C @@C @@C @@C @@C @@C @@C @@C @@C @@C @@C @@C @@C @@C @@C @@C @@C @@C @@C @@C @@C @@C @@C @@C @@C @@C @@C @@C @@C @@C @@C @@C @@C @@C @@C @@C @@C @@C @@C @@C @@C @@C @@C @@C @@C @@C @@C @@C @@C @@C @@C @@C @@C @@C @@C @@C @@C @@C @@C @@C @@C @@C @@C @@C @@C @@C @@C @@C @@C @@C @@C @@C @@C @@C @@C @@C @@C @@C @@C @@C @@C @@C @@C @@C @@C @@C >9>B9 >9>B9 >9>B9 >9>B9 >9>B9 >9>B9 >9>B9 >9>B9 >9>B9 >9>B9 >9>B9 >9>B9 >9>B9 >9>B9 >9>B9 >9>B9 >9>B9 >9>B9 >9>B9 >9>B9 >9>B9 >9>B9 >9>B9 >9>B9 >9>B9 >9>B9 >9>B9 >9>B9 >9>B9 >9>B9 >9>B9 >9>B9 >9>B9 >9>B9 >9>B9 >9>B9 >9>B9 >9>B9 >9>B9 >9>B9 >9>B9 >9>B9 >9>B9 >9>B9 >9>B9 >9>B9 >9>B9 >9>B9 >9>B9 >9>B9 >9>B9 >9>B9 >9>B9 >9>B9 >9>B9 >9>B9 >9>B9 >9>B9 >9>B9 >9>B9 >9>B9 >9>B9 >9>B9 >9>B9 >9>B9 >9>B9 >9>B9 >9>B9 >9>B9 >9>B9 >9>B9 >9>B9 >9>B9 >9>B9 >9>B9 >9>B9 >9>B9 >9>B9 >9>B9 >9>B9 >9>B9 >9>B9 >9>B9 >9>B9 >9>B9 >9>B9 >9>B9 >9>B9 >9>B9 >9>B9 >9>B9 >9>B9 >9>B9 >9>B9 >9>B9 >9>B9 >9>B9 >9>B9 >9>B9 >9>B9 >9>B9 >9>B9 >9>B9 >9>B9 >9>B9 >9>B9 >9>B9 >9>B9 >9>B9 >9>B9 >9>B9 >9>B9 >9>B9 >9>B9 >9>B9 >9>B9 >9>B9 >9>B9 >9>B9 >9>B9 >9>B9 >9>B9 >9>B9 >9>B9 >9>B9 >9>B9 >9>B9 >9>B9 >9>B9 >9>B9 >9>B9 >9>B9 >9>B9 >9>B9 >9>B9 >9>B9 >9>B9 >9>B9 >9>B9 >9>B9 >9>B9 >9>B9 >9>B9 >9>B9 >9>B9 >9>B9 >9>B9 >9>B9 >9>B9 >9>B9 >9>B9 >9>B9 >9>B9 >9>B9 >9>B9 >9>B9 >9>B9 >9>B9 >9>B9 >9>B9 >9>B9 >9>B9 >9>B9 >9>B9 >9>B9 >9>B9 >9>B9 >9>B9 >9>B9 >9>B9 >9>B9 >9>B9 >9>B9 >9>B9 >9>B9 >9>B9 >9>B9 >9>B9 >9>B9 >9>B9 >9>B9 >9>B9 >9>B9 >9>B9 >9>B9 >9>B9 >9>B9 >9>B9 >9>B9 >9>B9 >9>B9 >9>B9 >9>B9 >9>B9 >9>B9 >9>B9 >9>B9 >9>B9 >9>B9 >9>B9 >9>B9 >9>B9 >9>B9 >9>B9 >9>B9 >9>B9 >9>B9 >9>B9 >9>B9 >9>B9 >9>B9 >9>B9 >9>B9 >9>B9 >9>B9 >9>B9 >9>B9 >9>B9 >9>B9 >9>B9 >9>B9 >9>B9 >9>B9 >9>B9 >9>B9 >9>B9 >9>B9 >9>B9 >9>B9 >9>B9 >9>B9 >9>B9 >9>B9 >9>B9 >9>B9 >9>B9 >9>B9 >9>B9 >9>B9 >9>B9 >9>B9 >9>B9 >9>B9 >9>B9 >9>B9 >9>B9 >9>B9 >9>B9 >9>B9 >9>B9 >9>B9 >9>B9 >9>B9 >9>B9 >9>B9 >9>B9 =99=@ =99=@ =99=@ =99=@ =99=@ =99=@ =99=@ =99=@ =99=@ =99=@ =99=@ =99=@ =99=@ =99=@ =99=@ =99=@ =99=@ =99=@ =99=@ =99=@ =99=@ =99=@ =99=@ =99=@ =99=@ =99=@ =99=@ =99=@ =99=@ =99=@ =99=@ =99=@ =99=@ =99=@ =99=@ =99=@ =99=@ =99=@ =99=@ =99=@ =99=@ =99=@ =99=@ =99=@ =99=@ =99=@ =99=@ =99=@ =99=@ =99=@ =99=@ =99=@ =99=@ =99=@ =99=@ =99=@ =99=@ =99=@ =99=@ =99=@ =99=@ =99=@ =99=@ =99=@ =99=@ =99=@ =99=@ =99=@ =99=@ =99=@ =99=@ =99=@ =99=@ =99=@ =99=@ =99=@ =99=@ =99=@ =99=@ =99=@ =99=@ =99=@ =99=@ =99=@ =99=@ =99=@ =99=@ =99=@ =99=@ =99=@ =99=@ =99=@ =99=@ =99=@ =99=@ =99=@ =99=@ =99=@ =99=@ =99=@ =99=@ =99=@ ==@ ==@ ==@ ==@ ==@ ==@ ==@ ==@ ==@ ==@ ==@ ==@ ==@ ==@ ==@ ==@ ==@ ==@ ==@ ==@ ==@ ==@ ==@ ==@ ==@ ==@ ==@ ==@ ==@ ==@ ==@ ==@ ==@ ==@ ==@ ==@ ==@ ==@ ==@ ==@ ==@ ==@ ==@ ==@ ==@ ==@ ==@ ==@ ==@ ==@ ==@ ==@ ==@ ==@ ==@ ==@ ==@ ==@ ==@ ==@ ==@ ==@ ==@ ==@ ==@ ==@ ==@ ==@ ==@ ==@ ==@ ==@ ==@ ==@ ==@ ==@ ==@ ==@ ==@ ==@ ==@ ==@ ==@ ==@ ==@ ==@ ==@ ==@ ==@ ==@ ==@ ==@ ==@ ==@ ==@ ==@ ==@ ==@ ==@ ==@ ==@ ==@ ==@ ==@ ==@ ==@ ==@ ==@ ==@ ==@ ==@ ==@ ==@ ==@ ==@ ==@ ==@ ==@ ==@ ==@ ==@ ==@ ==@ ==@ ==@ ==@ ==@ ==@ ==@ ==@ ==@ ==@ ==@ ==@ ==@ ==@ ==@ ==@ ==@ ==@ ==@ ==@ ==@ ==@ ==@ ==@ ==@ ==@ ==@ ==@ ==@ ==@ ==@ ==@ >22>B >22>B >22>B >22>B >22>B >22>B >22>B >22>B >22>B >22>B >22>B >22>B >22>B >22>B >22>B >22>B >22>B >22>B >22>B >22>B >22>B >22>B >22>B >22>B >22>B >22>B >22>B >22>B >22>B >22>B >22>B >22>B >22>B >22>B >22>B >22>B >22>B >22>B >22>B >22>B >22>B >22>B >22>B >22>B >22>B >22>B >22>B >22>B >22>B >22>B >22>B >22>B >22>B >22>B >22>B >22>B >22>B >22>B >22>B >22>B >22>B >22>B >22>B >22>B >22>B >22>B >22>B >22>B >22>B >22>B >22>B >22>B >22>B >22>B >22>B >22>B >22>B >22>B >22>B >22>B >22>B >22>B >22>B >22>B >22>B >22>B >22>B >22>B >22>B >22>B >22>B >22>B >22>B >22>B >22>B >22>B >22>B >22>B >22>B >22>B >22>B >22>B >22>B >22>B >22>B >22>B >22>B >22>B >22>B >22>B >22>B >22>B >22>B >22>B >22>B >22>B >22>B >22>B >22>B >22>B >22>B >22>B >22>B >22>B >22>B >22>B >22>B >22>B >22>B >22>B >22>B >22>B >22>B >22>B >22>B >22>B >22>B >22>B >22>B >22>B >22>B >22>B >22>B >22>B >22>B >22>B >22>B >22>B >22>B >22>B >22>B >22>B >22>B >22>B >22>B >22>B >22>B >22>B >22>B >22>B >22>B >22>B >22>B >22>B >22>B >22>B >22>B >22>B >22>B >22>B >22>B >22>B >22>B >22>B >22>B >22>B >22>B >22>B >22>B >22>B >22>B >22>B >22>B >22>B >22>B >22>B >22>B >22>B >22>B >22>B >22>B >22>B >22>B >22>B >22>B >22>B >22>B >22>B >22>B >22>B >22>B >22>B >22>B >22>B >22>B >22>B >22>B >22>B >22>B >22>B >22>B >22>B >22>B >22>B >22>B >22>B >22>B >22>B >22>B >22>B >22>B >22>B >22>B >22>B >22>B >22>B >22>B >22>B >22>B >22>B >22>B >22>B >22>B >22>B >22>B >22>B >22>B >22>B >22>B >22>B >22>B >22>B >22>B >22>B >22>B >22>B >22>B >22>B >22>B >22>B >22>B >22>B >22>B >22>B >22>B >22>B C>22>B C>22>B C>22>B C>22>B C>22>B C>22>B C>22>B C>22>B C>22>B C>22>B C>22>B C>22>B C>22>B C>22>B C>22>B C>22>B C>22>B C>22>B C>22>B C>22>B C>22>B C>22>B C>22>B C>22>B C>22>B C>22>B C>22>B C>22>B C>22>B C>22>B C>22>B C>22>B C>22>B C>22>B C>22>B C>22>B C>22>B C>22>B C>22>B C>22>B C>22>B C>22>B C>22>B C>22>B C>22>B C>22>B C>22>B C>22>B C>22>B C>22>B C>22>B C>22>B C>22>B C>22>B C>22>B C>22>B C>22>B C>22>B C>22>B C>22>B C>22>B C>22>B C>22>B C>22>B C>22>B C>22>B C>22>B C>22>B C>22>B C>22>B C>22>B C>22>B C>22>B C>22>B C>22>B C>22>B C>22>B C>22>B C>22>B C>22>B C>22>B C>22>B C>22>B C>22>B C>22>B C>22>B C>22>B C>22>B C>22>B C>22>B C>22>B C>22>B C>22>B C>22>B C>22>B C>22>B C>22>B C>22>B C>22>B C>22>B C>22>B C>22>B C>>B C>>B C>>B C>>B C>>B C>>B C>>B C>>B C>>B C>>B C>>B C>>B C>>B C>>B C>>B C>>B C>>B C>>B C>>B C>>B C>>B C>>B C>>B C>>B C>>B C>>B C>>B C>>B C>>B C>>B C>>B C>>B C>>B C>>B C>>B C>>B C>>B C>>B C>>B C>>B C>>B C>>B C>>B C>>B C>>B C>>B C>>B C>>B C>>B C>>B C>>B C>>B C>>B C>>B C>>B C>>B C>>B C>>B C>>B C>>B C>>B C>>B C>>B C>>B C>>B C>>B C>>B C>>B C>>B C>>B C>>B C>>B C>>B C>>B C>>B C>>B C>>B C>>B C>>B C>>B C>>B C>>B C>>B C>>B C>>B C>>B C>>B C>>B C>>B C>>B C>>B C>>B C>>B C>>B C>>B C>>B C>>B C>>B C>>B C>>B C>>B C>>B C>>B C>>B C>>B C>>B C>>B C>>B C>>B C>>B C>>B C>>B C>>B C>>B C>>B C>>B C>>B C>>B C>>B C>>B C>>B C>>B C>>B C>>B C>>B C>>B C>>B C>>B C>>B C>>B C>>B C>>B C>>B C>>B C>>B C>>B C>>B C>>B C>>B C>>B C>>B C>>B C>>B C>>B C>>B C>>B C>>B C>>B C>>B C>>B C>>B C>>B C>>B C>>B B>999>B B>999>B B>999>B B>999>B B>999>B B>999>B B>999>B B>999>B B>999>B B>999>B B>999>B B>999>B B>999>B B>999>B B>999>B B>999>B B>999>B B>999>B B>999>B B>999>B B>999>B B>999>B B>999>B B>999>B B>999>B B>999>B B>999>B B>999>B B>999>B B>999>B B>999>B B>999>B B>999>B B>999>B B>999>B B>999>B B>999>B B>999>B B>999>B B>999>B B>999>B B>999>B B>999>B B>999>B B>999>B B>999>B B>999>B B>999>B B>999>B B>999>B B>999>B B>999>B B>999>B B>999>B B>999>B B>999>B B>999>B B>999>B B>999>B B>999>B B>999>B B>999>B B>999>B B>999>B B>999>B B>999>B B>999>B B>999>B B>999>B B>999>B B>999>B B>999>B B>999>B B>999>B B>999>B B>999>B B>999>B B>999>B B>999>B B>999>B B>999>B B>999>B B>999>B B>999>B B>999>B B>999>B B>999>B B>999>B B>999>B B>999>B B>999>B B>999>B B>999>B B>999>B B>999>B B>999>B B>999>B B>999>B B>999>B B>999>B B>999>B B>999>B B>999>B B>999>B B>999>B B>999>B B>999>B B>999>B B>999>B B>999>B B>999>B B>999>B B>999>B B>999>B B>999>B B>999>B B>999>B B>999>B B>999>B B>999>B B>999>B B>999>B B>999>B B>999>B B>999>B B>999>B B>999>B B>999>B B>999>B B>999>B B>999>B B>999>B B>999>B B>999>B B>999>B B>999>B B>999>B B>999>B B>999>B B>999>B B>999>B B>999>B B>999>B B>999>B B>999>B B>999>B B>999>B B>999>B B>999>B B>999>B B>999>B B>999>B B>999>B B>999>B B>999>B B>999>B B>999>B B>999>B B>999>B B>999>B B>999>B B>999>B B>999>B B>999>B B>999>B B>999>B B>999>B B>999>B B>999>B B>999>B B>999>B B>999>B B>999>B B>999>B B>999>B B>999>B B>999>B B>999>B B>999>B B>999>B B>999>B B>999>B B>999>B B>999>B B>999>B B>999>B B>999>B B>999>B B>999>B B>999>B B>999>B B>999>B B>999>B B>999>B B>999>B B>999>B B>999>B B>999>B B>999>B B>999>B B>999>B B>999>B B>999>B B>999>B B>999>B B>999>B B>999>B B>999>B B>999>B B>999>B B>999>B B>999>B B>999>B B>999>B B>999>B B>999>B B>999>B B>999>B B>999>B B>999>B B>999>B B>999>B B>999>B B>999>B B>999>B B>999>B B>999>B B>999>B B>999>B B>999>B B>999>B B>999>B B>999>B B>999>B B>999>B B>999>B B>999>B B>999>B B>999>B B>999>B B>999>B B>999>B B>999>B B>999>B B>999>B B>999>B B>999>B B>999>B B>999>B B>999>B B>999>B B>999>B B>999>B B>999>B B>999>B B>999>B @>999>B @>999>B @>999>B @>999>B @>999>B @>999>B @>999>B @>999>B @>999>B @>999>B @>999>B @>999>B @>999>B @>999>B @>999>B @>999>B @>999>B @>999>B @>999>B @>999>B @>999>B @>999>B @>999>B @>999>B @>999>B @>999>B @>999>B @>999>B @>999>B @>999>B @>999>B @>999>B @>999>B @>999>B @>999>B @>999>B @>999>B @>999>B @>999>B @>999>B @>999>B @>999>B @>999>B @>999>B @>999>B @>999>B @>999>B @>999>B @>999>B @>999>B @>999>B @>999>B @>999>B @>999>B @>999>B @>999>B @>999>B @>999>B @>999>B @>999>B @>999>B @>999>B @>999>B @>999>B @>999>B @>999>B @>999>B @>999>B @>999>B @>999>B @>999>B @>999>B @>999>B @>999>B @>999>B @>999>B @>999>B @>999>B @>999>B @>999>B @>999>B @>999>B @>999>B @>999>B @>999>B @>999>B @>999>B @>999>B @>999>B @>999>B @>999>B @>999>B @>999>B @>999>B @>999>B @>999>B @>999>B @>999>B @>999>B @>999>B @>999>B @>999>B @>9>B @>9>B @>9>B @>9>B @>9>B @>9>B @>9>B @>9>B @>9>B @>9>B @>9>B @>9>B @>9>B @>9>B @>9>B @>9>B @>9>B @>9>B @>9>B @>9>B @>9>B @>9>B @>9>B @>9>B @>9>B @>9>B @>9>B @>9>B @>9>B @>9>B @>9>B @>9>B @>9>B @>9>B @>9>B @>9>B @>9>B @>9>B @>9>B @>9>B @>9>B @>9>B @>9>B @>9>B @>9>B @>9>B @>9>B @>9>B @>9>B @>9>B @>9>B @>9>B @>9>B @>9>B @>9>B @>9>B @>9>B @>9>B @>9>B @>9>B @>9>B @>9>B @>9>B @>9>B @>9>B @>9>B @>9>B @>9>B @>9>B @>9>B @>9>B @>9>B @>9>B @>9>B @>9>B @>9>B @>9>B @>9>B @>9>B @>9>B @>9>B @>9>B @>9>B @>9>B @>9>B @>9>B @>9>B @>9>B @>9>B @>9>B @>9>B @>9>B @>9>B @>9>B @>9>B @>9>B @>9>B @>9>B @>9>B @>9>B @>9>B @>9>B @>9>B @>9>B @>9>B @>9>B @>9>B @>9>B @>9>B @>9>B @>9>B @>9>B @>9>B @>9>B @>9>B @>9>B @>9>B @>9>B @>9>B @>9>B @>9>B @>9>B @>9>B @>9>B @>9>B @>9>B @>9>B @>9>B @>9>B @>9>B @>9>B @>9>B @>9>B @>9>B @>9>B @>9>B @>9>B @>9>B @>9>B @>9>B @>9>B @>9>B @>9>B @>9>B @>9>B @>9>B @>9>B @>9>B @>9>B @>9>B @>9>B @>9>B @>9>B @>9>B B>>>BE B>>>BE B>>>BE B>>>BE B>>>BE B>>>BE B>>>BE B>>>BE B>>>BE B>>>BE B>>>BE B>>>BE B>>>BE B>>>BE B>>>BE B>>>BE B>>>BE B>>>BE B>>>BE B>>>BE B>>>BE B>>>BE B>>>BE B>>>BE B>>>BE B>>>BE B>>>BE B>>>BE B>>>BE B>>>BE B>>>BE B>>>BE B>>>BE B>>>BE B>>>BE B>>>BE B>>>BE B>>>BE B>>>BE B>>>BE B>>>BE B>>>BE B>>>BE B>>>BE B>>>BE B>>>BE B>>>BE B>>>BE B>>>BE B>>>BE B>>>BE B>>>BE B>>>BE B>>>BE B>>>BE B>>>BE B>>>BE B>>>BE B>>>BE B>>>BE B>>>BE B>>>BE B>>>BE B>>>BE B>>>BE B>>>BE B>>>BE B>>>BE B>>>BE B>>>BE B>>>BE B>>>BE B>>>BE B>>>BE B>>>BE B>>>BE B>>>BE B>>>BE B>>>BE B>>>BE B>>>BE B>>>BE B>>>BE B>>>BE B>>>BE B>>>BE B>>>BE B>>>BE B>>>BE B>>>BE B>>>BE B>>>BE B>>>BE B>>>BE B>>>BE B>>>BE B>>>BE B>>>BE B>>>BE B>>>BE B>>>BE B>>>BE B>>>BE B>>>BE B>>>BE B>>>BE B>>>BE B>>>BE B>>>BE B>>>BE B>>>BE B>>>BE B>>>BE B>>>BE B>>>BE B>>>BE B>>>BE B>>>BE B>>>BE B>>>BE B>>>BE B>>>BE B>>>BE B>>>BE B>>>BE B>>>BE B>>>BE B>>>BE B>>>BE B>>>BE B>>>BE B>>>BE B>>>BE B>>>BE B>>>BE B>>>BE B>>>BE B>>>BE B>>>BE B>>>BE B>>>BE B>>>BE B>>>BE B>>>BE B>>>BE B>>>BE B>>>BE B>>>BE B>>>BE B>>>BE B>>>BE B>>>BE B>>>BE B>>>BE B>>>BE B>>>BE B>>>BE B>>>BE B>>>BE B>>>BE B>>>BE B>>>BE B>>>BE B>>>BE B>>>BE B>>>BE B>>>BE B>>>BE B>>>BE B>>>BE B>>>BE B>>>BE B>>>BE B>>>BE B>>>BE B>>>BE B>>>BE B>>>BE B>>>BE B>>>BE B>>>BE B>>>BE B>>>BE B>>>BE B>>>BE B>>>BE B>>>BE B>>>BE B>>>BE B>>>BE B>>>BE B>>>BE B>>>BE B>>>BE B>>>BE B>>>BE B>>>BE B>>>BE B>>>BE B>>>BE B>>>BE B>>>BE B>>>BE B>>>BE B>>>BE B>>>BE B>>>BE B>>>BE B>>>BE B>>>BE B>>>BE B>>>BE B>>>BE B>>>BE B>>>BE B>>>BE B>>>BE B>>>BE B>>>BE B>>>BE B>>>BE B>>>BE B>>>BE B>>>BE B>>>BE B>>>BE B>>>BE B>>>BE B>>>BE B>>>BE B>>>BE B>>>BE B>>>BE B>>>BE B>>>BE B>>>BE B>>>BE B>>>BE B>>>BE B>>>BE B>>>BE B>>>BE B>>>BE B>>>BE B>>>BE B>>>BE B>>>BE B>>>BE B>>>BE B>>>BE B>>>BE B>>>BE B>>>BE B>>>BE B>>>BE B>>>BE E>>>BE E>>>BE E>>>BE E>>>BE E>>>BE E>>>BE E>>>BE E>>>BE E>>>BE E>>>BE E>>>BE E>>>BE E>>>BE E>>>BE E>>>BE E>>>BE E>>>BE E>>>BE E>>>BE E>>>BE E>>>BE E>>>BE E>>>BE E>>>BE E>>>BE E>>>BE E>>>BE E>>>BE E>>>BE E>>>BE E>>>BE E>>>BE E>>>BE E>>>BE E>>>BE E>>>BE E>>>BE E>>>BE E>>>BE E>>>BE E>>>BE E>>>BE E>>>BE E>>>BE E>>>BE E>>>BE E>>>BE E>>>BE E>>>BE E>>>BE E>>>BE E>>>BE E>>>BE E>>>BE E>>>BE E>>>BE E>>>BE E>>>BE E>>>BE E>>>BE E>>>BE E>>>BE E>>>BE E>>>BE E>>>BE E>>>BE E>>>BE E>>>BE E>>>BE E>>>BE E>>>BE E>>>BE E>>>BE E>>>BE E>>>BE E>>>BE E>>>BE E>>>BE E>>>BE E>>>BE E>>>BE E>>>BE E>>>BE E>>>BE E>>>BE E>>>BE E>>>BE E>>>BE E>>>BE E>>>BE E>>>BE E>>>BE E>>>BE E>>>BE E>>>BE E>>>BE E>>>BE E>>>BE E>>>BE E>>>BE E>>>BE E>>>BE E>BE E>BE E>BE E>BE E>BE E>BE E>BE E>BE E>BE E>BE E>BE E>BE E>BE E>BE E>BE E>BE E>BE E>BE E>BE E>BE E>BE E>BE E>BE E>BE E>BE E>BE E>BE E>BE E>BE E>BE E>BE E>BE E>BE E>BE E>BE E>BE E>BE E>BE E>BE E>BE E>BE E>BE E>BE E>BE E>BE E>BE E>BE E>BE E>BE E>BE E>BE E>BE E>BE E>BE E>BE E>BE E>BE E>BE E>BE E>BE E>BE E>BE E>BE E>BE E>BE E>BE E>BE E>BE E>BE E>BE E>BE E>BE E>BE E>BE E>BE E>BE E>BE E>BE E>BE E>BE E>BE E>BE E>BE E>BE E>BE E>BE E>BE E>BE E>BE E>BE E>BE E>BE E>BE E>BE E>BE E>BE E>BE E>BE E>BE E>BE E>BE E>BE E>BE E>BE E>BE E>BE E>BE E>BE E>BE E>BE E>BE E>BE E>BE E>BE E>BE E>BE E>BE E>BE E>BE E>BE E>BE E>BE E>BE E>BE E>BE E>BE E>BE E>BE E>BE E>BE E>BE E>BE E>BE E>BE E>BE E>BE E>BE E>BE E>BE E>BE E>BE E>BE E>BE E>BE E>BE E>BE E>BE E>BE E>BE E>BE E>BE E>BE E>BE E>BE JB22>BE JB22>BE JB22>BE JB22>BE JB22>BE JB22>BE JB22>BE JB22>BE JB22>BE JB22>BE JB22>BE JB22>BE JB22>BE JB22>BE JB22>BE JB22>BE JB22>BE JB22>BE JB22>BE JB22>BE JB22>BE JB22>BE JB22>BE JB22>BE JB22>BE JB22>BE JB22>BE JB22>BE JB22>BE JB22>BE JB22>BE JB22>BE JB22>BE JB22>BE JB22>BE JB22>BE JB22>BE JB22>BE JB22>BE JB22>BE JB22>BE JB22>BE JB22>BE JB22>BE JB22>BE JB22>BE JB22>BE JB22>BE JB22>BE JB22>BE JB22>BE JB22>BE JB22>BE JB22>BE JB22>BE JB22>BE JB22>BE JB22>BE JB22>BE JB22>BE JB22>BE JB22>BE JB22>BE JB22>BE JB22>BE JB22>BE JB22>BE JB22>BE JB22>BE JB22>BE JB22>BE JB22>BE JB22>BE JB22>BE JB22>BE JB22>BE JB22>BE JB22>BE JB22>BE JB22>BE JB22>BE JB22>BE JB22>BE JB22>BE JB22>BE JB22>BE JB22>BE JB22>BE JB22>BE JB22>BE JB22>BE JB22>BE JB22>BE JB22>BE JB22>BE JB22>BE JB22>BE JB22>BE JB22>BE JB22>BE JB22>BE JB22>BE JB22>BE JB22>BE JB22>BE JB22>BE JB22>BE JB22>BE JB22>BE JB22>BE JB22>BE JB22>BE JB22>BE JB22>BE JB22>BE JB22>BE JB22>BE JB22>BE JB22>BE JB22>BE JB22>BE JB22>BE JB22>BE JB22>BE JB22>BE JB22>BE JB22>BE JB22>BE JB22>BE JB22>BE JB22>BE JB22>BE JB22>BE JB22>BE JB22>BE JB22>BE JB22>BE JB22>BE JB22>BE JB22>BE JB22>BE JB22>BE JB22>BE JB22>BE JB22>BE JB22>BE JB22>BE JB22>BE JB22>BE JB22>BE JB22>BE JB22>BE JB22>BE JB22>BE JB22>BE JB22>BE JB22>BE JB22>BE JB22>BE JB22>BE JB22>BE JB22>BE JB22>BE JB22>BE JB22>BE JB22>BE JB22>BE JB22>BE JB22>BE JB22>BE JB22>BE JB22>BE JB22>BE JB22>BE JB22>BE JB22>BE JB22>BE JB22>BE JB22>BE JB22>BE JB22>BE JB22>BE JB22>BE JB22>BE JB22>BE JB22>BE JB22>BE JB22>BE JB22>BE JB22>BE JB22>BE JB22>BE JB22>BE JB22>BE JB22>BE JB22>BE JB22>BE JB22>BE JB22>BE JB22>BE JB22>BE JB22>BE JB22>BE JB22>BE JB22>BE JB22>BE JB22>BE JB22>BE JB22>BE JB22>BE JB22>BE JB22>BE JB22>BE JB22>BE JB22>BE JB22>BE JB22>BE JB22>BE JB22>BE JB22>BE JB22>BE JB22>BE JB22>BE JB22>BE JB22>BE JB22>BE JB22>BE JB22>BE JB22>BE JB22>BE JB22>BE JB22>BE JB22>BE JB22>BE JB22>BE JB22>BE JB22>BE JB22>BE JB22>BE JB22>BE JB22>BE JB22>BE JB22>BE JB22>BE JB22>BE JB22>BE JB22>BE JB22>BE JB22>BE JB22>BE JB22>BE JB22>BE JB22>BE JB22>BE JB22>BE JB22>BE NB22>BE NB22>BE NB22>BE NB22>BE NB22>BE NB22>BE NB22>BE NB22>BE NB22>BE NB22>BE NB22>BE NB22>BE NB22>BE NB22>BE NB22>BE NB22>BE NB22>BE NB22>BE NB22>BE NB22>BE NB22>BE NB22>BE NB22>BE NB22>BE NB22>BE NB22>BE NB22>BE NB22>BE NB22>BE NB22>BE NB22>BE NB22>BE NB22>BE NB22>BE NB22>BE NB22>BE NB22>BE NB22>BE NB22>BE NB22>BE NB22>BE NB22>BE NB22>BE NB22>BE NB22>BE NB22>BE NB22>BE NB22>BE NB22>BE NB22>BE NB22>BE NB22>BE NB22>BE NB22>BE NB22>BE NB22>BE NB22>BE NB22>BE NB22>BE NB22>BE NB22>BE NB22>BE NB22>BE NB22>BE NB22>BE NB22>BE NB22>BE NB22>BE NB22>BE NB22>BE NB22>BE NB22>BE NB22>BE NB22>BE NB22>BE NB22>BE NB22>BE NB22>BE NB22>BE NB22>BE NB22>BE NB22>BE NB22>BE NB22>BE NB22>BE NB22>BE NB22>BE NB22>BE NB22>BE NB22>BE NB22>BE NB22>BE NB22>BE NB22>BE NB22>BE NB22>BE NB22>BE NB22>BE NB22>BE NB22>BE NB22>BE NB22>BE NB>BE NB>BE NB>BE NB>BE NB>BE NB>BE NB>BE NB>BE NB>BE NB>BE NB>BE NB>BE NB>BE NB>BE NB>BE NB>BE NB>BE NB>BE NB>BE NB>BE NB>BE NB>BE NB>BE NB>BE NB>BE NB>BE NB>BE NB>BE NB>BE NB>BE NB>BE NB>BE NB>BE NB>BE NB>BE NB>BE NB>BE NB>BE NB>BE NB>BE NB>BE NB>BE NB>BE NB>BE NB>BE NB>BE NB>BE NB>BE NB>BE NB>BE NB>BE NB>BE NB>BE NB>BE NB>BE NB>BE NB>BE NB>BE NB>BE NB>BE NB>BE NB>BE NB>BE NB>BE NB>BE NB>BE NB>BE NB>BE NB>BE NB>BE NB>BE NB>BE NB>BE NB>BE NB>BE NB>BE NB>BE NB>BE NB>BE NB>BE NB>BE NB>BE NB>BE NB>BE NB>BE NB>BE NB>BE NB>BE NB>BE NB>BE NB>BE NB>BE NB>BE NB>BE NB>BE NB>BE NB>BE NB>BE NB>BE NB>BE NB>BE NB>BE NB>BE NB>BE NB>BE NB>BE NB>BE NB>BE NB>BE NB>BE NB>BE NB>BE NB>BE NB>BE NB>BE NB>BE NB>BE NB>BE NB>BE NB>BE NB>BE NB>BE NB>BE NB>BE NB>BE NB>BE NB>BE NB>BE NB>BE NB>BE NB>BE NB>BE NB>BE NB>BE NB>BE NB>BE NB>BE NB>BE NB>BE NB>BE NB>BE NB>BE NB>BE NB>BE NB>BE NB>BE NB>BE NB>BE NB>BE NB>BE NB>BE NB>BE NB>BE NB>BE Q@11@E Q@11@E Q@11@E Q@11@E Q@11@E Q@11@E Q@11@E Q@11@E Q@11@E Q@11@E Q@11@E Q@11@E Q@11@E Q@11@E Q@11@E Q@11@E Q@11@E Q@11@E Q@11@E Q@11@E Q@11@E Q@11@E Q@11@E Q@11@E Q@11@E Q@11@E Q@11@E Q@11@E Q@11@E Q@11@E Q@11@E Q@11@E Q@11@E Q@11@E Q@11@E Q@11@E Q@11@E Q@11@E Q@11@E Q@11@E Q@11@E Q@11@E Q@11@E Q@11@E Q@11@E Q@11@E Q@11@E Q@11@E Q@11@E Q@11@E Q@11@E Q@11@E Q@11@E Q@11@E Q@11@E Q@11@E Q@11@E Q@11@E Q@11@E Q@11@E Q@11@E Q@11@E Q@11@E Q@11@E Q@11@E Q@11@E Q@11@E Q@11@E Q@11@E Q@11@E Q@11@E Q@11@E Q@11@E Q@11@E Q@11@E Q@11@E Q@11@E Q@11@E Q@11@E Q@11@E Q@11@E Q@11@E Q@11@E Q@11@E Q@11@E Q@11@E Q@11@E Q@11@E Q@11@E Q@11@E Q@11@E Q@11@E Q@11@E Q@11@E Q@11@E Q@11@E Q@11@E Q@11@E Q@11@E Q@11@E Q@11@E Q@11@E Q@11@E Q@11@E Q@11@E Q@11@E Q@11@E Q@11@E Q@11@E Q@11@E Q@11@E Q@11@E Q@11@E Q@11@E Q@11@E Q@11@E Q@11@E Q@11@E Q@11@E Q@11@E Q@11@E Q@11@E Q@11@E Q@11@E Q@11@E Q@11@E Q@11@E Q@11@E Q@11@E Q@11@E Q@11@E Q@11@E Q@11@E Q@11@E Q@11@E Q@11@E Q@11@E Q@11@E Q@11@E Q@11@E Q@11@E Q@11@E Q@11@E Q@11@E Q@11@E Q@11@E Q@11@E Q@11@E Q@11@E Q@11@E Q@11@E Q@11@E Q@11@E Q@11@E Q@11@E Q@11@E Q@11@E Q@11@E Q@11@E Q@11@E Q@11@E Q@11@E Q@11@E Q@11@E Q@11@E Q@11@E Q@11@E Q@11@E Q@11@E Q@11@E Q@11@E Q@11@E Q@11@E Q@11@E Q@11@E Q@11@E Q@11@E Q@11@E Q@11@E Q@11@E Q@11@E Q@11@E Q@11@E Q@11@E Q@11@E Q@11@E Q@11@E Q@11@E Q@11@E Q@11@E Q@11@E Q@11@E Q@11@E Q@11@E Q@11@E Q@11@E Q@11@E Q@11@E Q@11@E Q@11@E Q@11@E Q@11@E Q@11@E Q@11@E Q@11@E Q@11@E Q@11@E Q@11@E Q@11@E Q@11@E Q@11@E Q@11@E Q@11@E Q@11@E Q@11@E Q@11@E Q@11@E Q@11@E Q@11@E Q@11@E Q@11@E Q@11@E Q@11@E Q@11@E Q@11@E Q@11@E Q@11@E Q@11@E Q@11@E Q@11@E Q@11@E Q@11@E Q@11@E Q@11@E Q@11@E Q@11@E Q@11@E Q@11@E Q@11@E Q@11@E Q@11@E Q@11@E Q@11@E Q@11@E Q@11@E Q@11@E Q@11@E Q@11@E Q@11@E Q@11@E Q@11@E Q@11@E Q@11@E Q@11@E Q@11@E Q@11@E QC11@E QC11@E QC11@E QC11@E QC11@E QC11@E QC11@E QC11@E QC11@E QC11@E QC11@E QC11@E QC11@E QC11@E QC11@E QC11@E QC11@E QC11@E QC11@E QC11@E QC11@E QC11@E QC11@E QC11@E QC11@E QC11@E QC11@E QC11@E QC11@E QC11@E QC11@E QC11@E QC11@E QC11@E QC11@E QC11@E QC11@E QC11@E QC11@E QC11@E QC11@E QC11@E QC11@E QC11@E QC11@E QC11@E QC11@E QC11@E QC11@E QC11@E QC11@E QC11@E QC11@E QC11@E QC11@E QC11@E QC11@E QC11@E QC11@E QC11@E QC11@E QC11@E QC11@E QC11@E QC11@E QC11@E QC11@E QC11@E QC11@E QC11@E QC11@E QC11@E QC11@E QC11@E QC11@E QC11@E QC11@E QC11@E QC11@E QC11@E QC11@E QC11@E QC11@E QC11@E QC11@E QC11@E QC11@E QC11@E QC11@E QC11@E QC11@E QC11@E QC11@E QC11@E QC11@E QC11@E QC11@E QC11@E QC11@E QC11@E QC11@E QC11@E QC@E QC@E QC@E QC@E QC@E QC@E QC@E QC@E QC@E QC@E QC@E QC@E QC@E QC@E QC@E QC@E QC@E QC@E QC@E QC@E QC@E QC@E QC@E QC@E QC@E QC@E QC@E QC@E QC@E QC@E QC@E QC@E QC@E QC@E QC@E QC@E QC@E QC@E QC@E QC@E QC@E QC@E QC@E QC@E QC@E QC@E QC@E QC@E QC@E QC@E QC@E QC@E QC@E QC@E QC@E QC@E QC@E QC@E QC@E QC@E QC@E QC@E QC@E QC@E QC@E QC@E QC@E QC@E QC@E QC@E QC@E QC@E QC@E QC@E QC@E QC@E QC@E QC@E QC@E QC@E QC@E QC@E QC@E QC@E QC@E QC@E QC@E QC@E QC@E QC@E QC@E QC@E QC@E QC@E QC@E QC@E QC@E QC@E QC@E QC@E QC@E QC@E QC@E QC@E QC@E QC@E QC@E QC@E QC@E QC@E QC@E QC@E QC@E QC@E QC@E QC@E QC@E QC@E QC@E QC@E QC@E QC@E QC@E QC@E QC@E QC@E QC@E QC@E QC@E QC@E QC@E QC@E QC@E QC@E QC@E QC@E QC@E QC@E QC@E QC@E QC@E QC@E QC@E QC@E QC@E QC@E QC@E QC@E QC@E QC@E QC@E QC@E QC@E QC@E B22BE B22BE B22BE B22BE B22BE B22BE B22BE B22BE B22BE B22BE B22BE B22BE B22BE B22BE B22BE B22BE B22BE B22BE B22BE B22BE B22BE B22BE B22BE B22BE B22BE B22BE B22BE B22BE B22BE B22BE B22BE B22BE B22BE B22BE B22BE B22BE B22BE B22BE B22BE B22BE B22BE B22BE B22BE B22BE B22BE B22BE B22BE B22BE B22BE B22BE B22BE B22BE B22BE B22BE B22BE B22BE B22BE B22BE B22BE B22BE B22BE B22BE B22BE B22BE B22BE B22BE B22BE B22BE B22BE B22BE B22BE B22BE B22BE B22BE B22BE B22BE B22BE B22BE B22BE B22BE B22BE B22BE B22BE B22BE B22BE B22BE B22BE B22BE B22BE B22BE B22BE B22BE B22BE B22BE B22BE B22BE B22BE B22BE B22BE B22BE B22BE B22BE B22BE B22BE B22BE B22BE B22BE B22BE B22BE B22BE B22BE B22BE B22BE B22BE B22BE B22BE B22BE B22BE B22BE B22BE B22BE B22BE B22BE B22BE B22BE B22BE B22BE B22BE B22BE B22BE B22BE B22BE B22BE B22BE B22BE B22BE B22BE B22BE B22BE B22BE B22BE B22BE B22BE B22BE B22BE B22BE B22BE B22BE B22BE B22BE B22BE B22BE B22BE B22BE B22BE B22BE B22BE B22BE B22BE B22BE B22BE B22BE B22BE B22BE B22BE B22BE B22BE B22BE B22BE B22BE B22BE B22BE B22BE B22BE B22BE B22BE B22BE B22BE B22BE B22BE B22BE B22BE B22BE B22BE B22BE B22BE B22BE B22BE B22BE B22BE B22BE B22BE B22BE B22BE B22BE B22BE B22BE B22BE B22BE B22BE B22BE B22BE B22BE B22BE B22BE B22BE B22BE B22BE B22BE B22BE B22BE B22BE B22BE B22BE B22BE B22BE B22BE B22BE B22BE B22BE B22BE B22BE B22BE B22BE B22BE B22BE B22BE B22BE B22BE B22BE B22BE B22BE B22BE B22BE B22BE B22BE B22BE B22BE B22BE B22BE B22BE B22BE B22BE B22BE B22BE B22BE B22BE B22BE B22BE B22BE B22BE B22BE B22BE B22BE B22BE B22BE B22BE B22BE B22BE B22BE B22BE B22BE B22BE B22BE B22BE B22BE B22BE B22BE B22BE B22BE B22BE B22BE B22BE B22BE B22BE B22BE B22BE B22BE B22BE B22BE B22BE B22BE B22BE B22BE B22BE B22BE B22BE B22BE B22BE B22BE B22BE B22BE B22BE B22BE B22BE B22BE B22BE B22BE B22BE B22BE B22BE B22BE B22BE B22BE B22BE B22BE B22BE B22BE B22BE B22BE B22BE B22BE B22BE B22BE B22BE B22BE B22BE B22BE B22BE B22BE B22BE B22BE B22BE B22BE B22BE B22BE B22BE B22BE B22BE B22BE B22BE B22BE B22BE B22BE B22BE B22BE B22BE B22BE B22BE B22BE B22BE B22BE B22BE B22BE B22BE B22BE B22BE B22BE B22BE B22BE B22BE B22BE B22BE B22BE B22BE B22BE B22BE B22BE BBE BBE BBE BBE BBE BBE BBE BBE BBE BBE BBE BBE BBE BBE BBE BBE BBE BBE BBE BBE BBE BBE BBE BBE BBE BBE BBE BBE BBE BBE BBE BBE BBE BBE BBE BBE BBE BBE BBE BBE BBE BBE BBE BBE BBE BBE BBE BBE BBE BBE BBE BBE BBE BBE BBE BBE BBE BBE BBE BBE BBE BBE BBE BBE BBE BBE BBE BBE BBE BBE BBE BBE BBE BBE BBE BBE BBE BBE BBE BBE BBE BBE BBE BBE BBE BBE BBE BBE BBE BBE BBE BBE BBE BBE BBE BBE BBE BBE BBE BBE BBE BBE BBE BBE BBE BBE BBE BBE BBE BBE BBE BBE BBE BBE BBE BBE BBE BBE BBE BBE BBE BBE BBE BBE BBE BBE BBE BBE BBE BBE BBE BBE BBE BBE BBE BBE BBE BBE BBE BBE BBE BBE BBE BBE BBE BBE BBE BBE BBE BBE BBE BBE BBE BBE @--IE @--IE @--IE @--IE @--IE @--IE @--IE @--IE @--IE @--IE @--IE @--IE @--IE @--IE @--IE @--IE @--IE @--IE @--IE @--IE @--IE @--IE @--IE @--IE @--IE @--IE @--IE @--IE @--IE @--IE @--IE @--IE @--IE @--IE @--IE @--IE @--IE @--IE @--IE @--IE @--IE @--IE @--IE @--IE @--IE @--IE @--IE @--IE @--IE @--IE @--IE @--IE @--IE @--IE @--IE @--IE @--IE @--IE @--IE @--IE @--IE @--IE @--IE @--IE @--IE @--IE @--IE @--IE @--IE @--IE @--IE @--IE @--IE @--IE @--IE @--IE @--IE @--IE @--IE @--IE @--IE @--IE @--IE @--IE @--IE @--IE @--IE @--IE @--IE @--IE @--IE @--IE @--IE @--IE @--IE @--IE @--IE @--IE @--IE @--IE @--IE @--IE @--IE @--IE @--IE @--IE @--IE @--IE @--IE @--IE @--IE @--IE @--IE @--IE @--IE @--IE @--IE @--IE @--IE @--IE @--IE @--IE @--IE @--IE @--IE @--IE @--IE @--IE @--IE @--IE @--IE @--IE @--IE @--IE @--IE @--IE @--IE @--IE @--IE @--IE @--IE @--IE @--IE @--IE @--IE @--IE @--IE @--IE @--IE @--IE @--IE @--IE @--IE @--IE @--IE @--IE @--IE @--IE @--IE @--IE @--IE @--IE @--IE @--IE @--IE @--IE @--IE @--IE @--IE @--IE @--IE @--IE @--IE @--IE @--IE @--IE @--IE @--IE @--IE @--IE @--IE @--IE @--IE @--IE @--IE @--IE @--IE @--IE @--IE @--IE @--IE @--IE @--IE @--IE @--IE @--IE @--IE @--IE @--IE @--IE @--IE @--IE @--IE @--IE @--IE @--IE @--IE @--IE @--IE @--IE @--IE @--IE @--IE @--IE @--IE @--IE @--IE @--IE @--IE @--IE @--IE @--IE @--IE @--IE @--IE @--IE @--IE @--IE @--IE @--IE @--IE @--IE @--IE @--IE @--IE @--IE @--IE @--IE @--IE @--IE @--IE @--IE @--IE @--IE @--IE @--IE @--IE @--IE @--IE @--IE @--IE @--IE @--IE @--IE @--IE @--IE O=--IE O=--IE O=--IE O=--IE O=--IE O=--IE O=--IE O=--IE O=--IE O=--IE O=--IE O=--IE O=--IE O=--IE O=--IE O=--IE O=--IE O=--IE O=--IE O=--IE O=--IE O=--IE O=--IE O=--IE O=--IE O=--IE O=--IE O=--IE O=--IE O=--IE O=--IE O=--IE O=--IE O=--IE O=--IE O=--IE O=--IE O=--IE O=--IE O=--IE O=--IE O=--IE O=--IE O=--IE O=--IE O=--IE O=--IE O=--IE O=--IE O=--IE O=--IE O=--IE O=--IE O=--IE O=--IE O=--IE O=--IE O=--IE O=--IE O=--IE O=--IE O=--IE O=--IE O=--IE O=--IE O=--IE O=--IE O=--IE O=--IE O=--IE O=--IE O=--IE O=--IE O=--IE O=--IE O=--IE O=--IE O=--IE O=--IE O=--IE O=--IE O=--IE O=--IE O=--IE O=--IE O=--IE O=--IE O=--IE O=--IE O=--IE O=--IE O=--IE O=--IE O=--IE O=--IE O=--IE O=--IE O=--IE O=--IE O=--IE O=--IE O=--IE O=IE O=IE O=IE O=IE O=IE O=IE O=IE O=IE O=IE O=IE O=IE O=IE O=IE O=IE O=IE O=IE O=IE O=IE O=IE O=IE O=IE O=IE O=IE O=IE O=IE O=IE O=IE O=IE O=IE O=IE O=IE O=IE O=IE O=IE O=IE O=IE O=IE O=IE O=IE O=IE O=IE O=IE O=IE O=IE O=IE O=IE O=IE O=IE O=IE O=IE O=IE O=IE O=IE O=IE O=IE O=IE O=IE O=IE O=IE O=IE O=IE O=IE O=IE O=IE O=IE O=IE O=IE O=IE O=IE O=IE O=IE O=IE O=IE O=IE O=IE O=IE O=IE O=IE O=IE O=IE O=IE O=IE O=IE O=IE O=IE O=IE O=IE O=IE O=IE O=IE O=IE O=IE O=IE O=IE O=IE O=IE O=IE O=IE O=IE O=IE O=IE O=IE O=IE O=IE O=IE O=IE O=IE O=IE O=IE O=IE O=IE O=IE O=IE O=IE O=IE O=IE O=IE O=IE O=IE O=IE O=IE O=IE O=IE O=IE O=IE O=IE O=IE O=IE O=IE O=IE O=IE O=IE O=IE O=IE O=IE O=IE O=IE O=IE O=IE O=IE O=IE O=IE O=IE O=IE O=IE O=IE O=IE O=IE O=IE O=IE O=IE O=IE O=IE O=IE N9--EC N9--EC N9--EC N9--EC N9--EC N9--EC N9--EC N9--EC N9--EC N9--EC N9--EC N9--EC N9--EC N9--EC N9--EC N9--EC N9--EC N9--EC N9--EC N9--EC N9--EC N9--EC N9--EC N9--EC N9--EC N9--EC N9--EC N9--EC N9--EC N9--EC N9--EC N9--EC N9--EC N9--EC N9--EC N9--EC N9--EC N9--EC N9--EC N9--EC N9--EC N9--EC N9--EC N9--EC N9--EC N9--EC N9--EC N9--EC N9--EC N9--EC N9--EC N9--EC N9--EC N9--EC N9--EC N9--EC N9--EC N9--EC N9--EC N9--EC N9--EC N9--EC N9--EC N9--EC N9--EC N9--EC N9--EC N9--EC N9--EC N9--EC N9--EC N9--EC N9--EC N9--EC N9--EC N9--EC N9--EC N9--EC N9--EC N9--EC N9--EC N9--EC N9--EC N9--EC N9--EC N9--EC N9--EC N9--EC N9--EC N9--EC N9--EC N9--EC N9--EC N9--EC N9--EC N9--EC N9--EC N9--EC N9--EC N9--EC N9--EC N9--EC N9--EC N9--EC N9--EC N9--EC N9--EC N9--EC N9--EC N9--EC N9--EC N9--EC N9--EC N9--EC N9--EC N9--EC N9--EC N9--EC N9--EC N9--EC N9--EC N9--EC N9--EC N9--EC N9--EC N9--EC N9--EC N9--EC N9--EC N9--EC N9--EC N9--EC N9--EC N9--EC N9--EC N9--EC N9--EC N9--EC N9--EC N9--EC N9--EC N9--EC N9--EC N9--EC N9--EC N9--EC N9--EC N9--EC N9--EC N9--EC N9--EC N9--EC N9--EC N9--EC N9--EC N9--EC N9--EC N9--EC N9--EC N9--EC N9--EC N9--EC N9--EC N9--EC N9--EC N9--EC N9--EC N9--EC N9--EC N9--EC N9--EC N9--EC N9--EC N9--EC N9--EC N9--EC N9--EC N9--EC N9--EC N9--EC N9--EC N9--EC N9--EC N9--EC N9--EC N9--EC N9--EC N9--EC N9--EC N9--EC N9--EC N9--EC N9--EC N9--EC N9--EC N9--EC N9--EC N9--EC N9--EC N9--EC N9--EC N9--EC N9--EC N9--EC N9--EC N9--EC N9--EC N9--EC N9--EC N9--EC N9--EC N9--EC N9--EC N9--EC N9--EC N9--EC N9--EC N9--EC N9--EC N9--EC N9--EC N9--EC N9--EC N9--EC N9--EC N9--EC N9--EC N9--EC N9--EC N9--EC N9--EC N9--EC N9--EC N9--EC N9--EC N9--EC N9--EC N9--EC N9--EC N9--EC N9--EC N9--EC N9--EC N9--EC N9--EC N9--EC N9--EC N9--EC N9--EC N9--EC N9--EC N9--EC N9--EC N9--EC N9--EC N9--EC L9--EC L9--EC L9--EC L9--EC L9--EC L9--EC L9--EC L9--EC L9--EC L9--EC L9--EC L9--EC L9--EC L9--EC L9--EC L9--EC L9--EC L9--EC L9--EC L9--EC L9--EC L9--EC L9--EC L9--EC L9--EC L9--EC L9--EC L9--EC L9--EC L9--EC L9--EC L9--EC L9--EC L9--EC L9--EC L9--EC L9--EC L9--EC L9--EC L9--EC L9--EC L9--EC L9--EC L9--EC L9--EC L9--EC L9--EC L9--EC L9--EC L9--EC L9--EC L9--EC L9--EC L9--EC L9--EC L9--EC L9--EC L9--EC L9--EC L9--EC L9--EC L9--EC L9--EC L9--EC L9--EC L9--EC L9--EC L9--EC L9--EC L9--EC L9--EC L9--EC L9--EC L9--EC L9--EC L9--EC L9--EC L9--EC L9--EC L9--EC L9--EC L9--EC L9--EC L9--EC L9--EC L9--EC L9--EC L9--EC L9--EC L9--EC L9--EC L9--EC L9--EC L9--EC L9--EC L9--EC L9--EC L9--EC L9--EC L9--EC L9--EC L9--EC L9EC L9EC L9EC L9EC L9EC L9EC L9EC L9EC L9EC L9EC L9EC L9EC L9EC L9EC L9EC L9EC L9EC L9EC L9EC L9EC L9EC L9EC L9EC L9EC L9EC L9EC L9EC L9EC L9EC L9EC L9EC L9EC L9EC L9EC L9EC L9EC L9EC L9EC L9EC L9EC L9EC L9EC L9EC L9EC L9EC L9EC L9EC L9EC L9EC L9EC L9EC L9EC L9EC L9EC L9EC L9EC L9EC L9EC L9EC L9EC L9EC L9EC L9EC L9EC L9EC L9EC L9EC L9EC L9EC L9EC L9EC L9EC L9EC L9EC L9EC L9EC L9EC L9EC L9EC L9EC L9EC L9EC L9EC L9EC L9EC L9EC L9EC L9EC L9EC L9EC L9EC L9EC L9EC L9EC L9EC L9EC L9EC L9EC L9EC L9EC L9EC L9EC L9EC L9EC L9EC L9EC L9EC L9EC L9EC L9EC L9EC L9EC L9EC L9EC L9EC L9EC L9EC L9EC L9EC L9EC L9EC L9EC L9EC L9EC L9EC L9EC L9EC L9EC L9EC L9EC L9EC L9EC L9EC L9EC L9EC L9EC L9EC L9EC L9EC L9EC L9EC L9EC L9EC L9EC L9EC L9EC L9EC L9EC L9EC L9EC L9EC L9EC L9EC L9EC N-->E N-->E N-->E N-->E N-->E N-->E N-->E N-->E N-->E N-->E N-->E N-->E N-->E N-->E N-->E N-->E N-->E N-->E N-->E N-->E N-->E N-->E N-->E N-->E N-->E N-->E N-->E N-->E N-->E N-->E N-->E N-->E N-->E N-->E N-->E N-->E N-->E N-->E N-->E N-->E N-->E N-->E N-->E N-->E N-->E N-->E N-->E N-->E N-->E N-->E N-->E N-->E N-->E N-->E N-->E N-->E N-->E N-->E N-->E N-->E N-->E N-->E N-->E N-->E N-->E N-->E N-->E N-->E N-->E N-->E N-->E N-->E N-->E N-->E N-->E N-->E N-->E N-->E N-->E N-->E N-->E N-->E N-->E N-->E N-->E N-->E N-->E N-->E N-->E N-->E N-->E N-->E N-->E N-->E N-->E N-->E N-->E N-->E N-->E N-->E N-->E N-->E N-->E N-->E N-->E N-->E N-->E N-->E N-->E N-->E N-->E N-->E N-->E N-->E N-->E N-->E N-->E N-->E N-->E N-->E N-->E N-->E N-->E N-->E N-->E N-->E N-->E N-->E N-->E N-->E N-->E N-->E N-->E N-->E N-->E N-->E N-->E N-->E N-->E N-->E N-->E N-->E N-->E N-->E N-->E N-->E N-->E N-->E N-->E N-->E N-->E N-->E N-->E N-->E N-->E N-->E N-->E N-->E N-->E N-->E N-->E N-->E N-->E N-->E N-->E N-->E N-->E N-->E N-->E N-->E N-->E N-->E N-->E N-->E N-->E N-->E N-->E N-->E N-->E -->E -->E -->E -->E -->E -->E -->E -->E -->E -->E -->E -->E -->E -->E -->E -->E -->E -->E -->E -->E -->E -->E -->E -->E -->E -->E -->E -->E -->E -->E -->E -->E -->E -->E -->E -->E -->E -->E -->E -->E -->E -->E -->E -->E -->E -->E -->E -->E -->E -->E -->E -->E -->E -->E -->E -->E -->E -->E -->E -->E -->E -->E -->E -->E -->E -->E -->E -->E -->E -->E -->E -->E -->E -->E -->E -->E -->E L-->E L-->E L-->E L-->E L-->E L-->E L-->E L-->E L-->E L-->E L-->E L-->E L-->E L-->E L-->E L-->E L-->E L-->E L-->E L-->E L-->E L-->E L-->E L-->E L-->E L-->E L-->E L-->E L-->E L-->E L-->E L-->E L-->E L-->E L-->E L-->E L-->E L-->E L-->E L-->E L-->E L-->E L-->E L-->E L-->E L-->E L-->E L-->E L-->E L-->E L-->E L-->E L-->E L-->E L-->E L-->E L-->E L-->E L-->E L-->E L-->E L-->E L-->E L-->E L-->E L-->E L-->E L-->E L-->E L-->E L-->E L-->E L-->E L-->E L-->E L-->E L-->E L-->E L-->E L-->E L-->E L-->E L-->E L-->E L-->E L-->E L-->E L-->E L-->E L-->E L-->E L-->E L-->E L-->E L-->E L-->E L-->E L-->E L-->E L-->E L-->E L-->E L>E L>E L>E L>E L>E L>E L>E L>E L>E L>E L>E L>E L>E L>E L>E L>E L>E L>E L>E L>E L>E L>E L>E L>E L>E L>E L>E L>E L>E L>E L>E L>E L>E L>E L>E L>E L>E L>E L>E L>E L>E L>E L>E L>E L>E L>E L>E L>E L>E L>E L>E L>E L>E L>E L>E L>E L>E L>E L>E L>E L>E L>E L>E L>E L>E L>E L>E L>E L>E L>E L>E L>E L>E L>E L>E L>E L>E L>E L>E L>E L>E L>E L>E L>E L>E L>E L>E L>E L>E L>E L>E L>E L>E L>E L>E L>E L>E L>E L>E L>E L>E L>E L>E L>E L>E L>E L>E L>E L>E L>E L>E L>E L>E L>E L>E L>E L>E L>E L>E L>E L>E L>E L>E L>E L>E L>E L>E L>E L>E L>E L>E L>E L>E L>E L>E L>E L>E L>E L>E L>E L>E L>E L>E L>E L>E L>E L>E L>E L>E L>E L>E L>E L>E L>E JB-->E JB-->E JB-->E JB-->E JB-->E JB-->E JB-->E JB-->E JB-->E JB-->E JB-->E JB-->E JB-->E JB-->E JB-->E JB-->E JB-->E JB-->E JB-->E JB-->E JB-->E JB-->E JB-->E JB-->E JB-->E JB-->E JB-->E JB-->E JB-->E JB-->E JB-->E JB-->E JB-->E JB-->E JB-->E JB-->E JB-->E JB-->E JB-->E JB-->E JB-->E JB-->E JB-->E JB-->E JB-->E JB-->E JB-->E JB-->E JB-->E JB-->E JB-->E JB-->E JB-->E JB-->E JB-->E JB-->E JB-->E JB-->E JB-->E JB-->E JB-->E JB-->E JB-->E JB-->E JB-->E JB-->E JB-->E JB-->E JB-->E JB-->E JB-->E JB-->E JB-->E JB-->E JB-->E JB-->E JB-->E JB-->E JB-->E JB-->E JB-->E JB-->E JB-->E JB-->E JB-->E JB-->E JB-->E JB-->E JB-->E JB-->E JB-->E JB-->E JB-->E JB-->E JB-->E JB-->E JB-->E JB-->E JB-->E JB-->E JB-->E JB-->E JB-->E JB-->E JB-->E JB-->E JB-->E JB-->E JB-->E JB-->E JB-->E JB-->E JB-->E JB-->E JB-->E JB-->E JB-->E JB-->E JB-->E JB-->E JB-->E JB-->E JB-->E JB-->E JB-->E JB-->E JB-->E JB-->E JB-->E JB-->E JB-->E JB-->E JB-->E JB-->E JB-->E JB-->E JB-->E JB-->E JB-->E JB-->E JB-->E JB-->E JB-->E JB-->E JB-->E JB-->E JB-->E JB-->E JB-->E JB-->E JB-->E JB-->E JB-->E JB-->E JB-->E JB-->E JB-->E JB-->E JB-->E JB-->E JB-->E JB-->E JB-->E JB-->E JB-->E JB-->E JB-->E JB-->E JB-->E JB-->E JB-->E JB-->E JB-->E JB-->E JB-->E JB-->E JB-->E JB-->E JB-->E JB-->E JB-->E JB-->E JB-->E JB-->E JB-->E JB-->E JB-->E JB-->E JB-->E JB-->E JB-->E JB-->E JB-->E JB-->E JB-->E JB-->E JB-->E JB-->E JB-->E JB-->E JB-->E JB-->E JB-->E JB-->E JB-->E JB-->E JB-->E JB-->E JB-->E JB-->E JB-->E JB-->E JB-->E JB-->E JB-->E JB-->E JB-->E JB-->E JB-->E JB-->E JB-->E JB-->E JB-->E JB-->E JB-->E JB-->E JB-->E JB-->E JB-->E JB-->E JB-->E JB-->E JB-->E JB-->E JB-->E JB-->E JB-->E JB-->E JB-->E JB-->E JB-->E JB-->E JB-->E JB-->E JB-->E JB-->E JB-->E JB-->E JB-->E JB-->E JB-->E JB-->E JB-->E JB-->E JB-->E JB-->E IB-->E IB-->E IB-->E IB-->E IB-->E IB-->E IB-->E IB-->E IB-->E IB-->E IB-->E IB-->E IB-->E IB-->E IB-->E IB-->E IB-->E IB-->E IB-->E IB-->E IB-->E IB-->E IB-->E IB-->E IB-->E IB-->E IB-->E IB-->E IB-->E IB-->E IB-->E IB-->E IB-->E IB-->E IB-->E IB-->E IB-->E IB-->E IB-->E IB-->E IB-->E IB-->E IB-->E IB-->E IB-->E IB-->E IB-->E IB-->E IB-->E IB-->E IB-->E IB-->E IB-->E IB-->E IB-->E IB-->E IB-->E IB-->E IB-->E IB-->E IB-->E IB-->E IB-->E IB-->E IB-->E IB-->E IB-->E IB-->E IB-->E IB-->E IB-->E IB-->E IB-->E IB-->E IB-->E IB-->E IB-->E IB-->E IB-->E IB-->E IB-->E IB-->E IB-->E IB-->E IB-->E IB-->E IB-->E IB-->E IB-->E IB-->E IB-->E IB-->E IB-->E IB-->E IB-->E IB-->E IB-->E IB-->E IB-->E IB-->E IB-->E IB-->E IB>E IB>E IB>E IB>E IB>E IB>E IB>E IB>E IB>E IB>E IB>E IB>E IB>E IB>E IB>E IB>E IB>E IB>E IB>E IB>E IB>E IB>E IB>E IB>E IB>E IB>E IB>E IB>E IB>E IB>E IB>E IB>E IB>E IB>E IB>E IB>E IB>E IB>E IB>E IB>E IB>E IB>E IB>E IB>E IB>E IB>E IB>E IB>E IB>E IB>E IB>E IB>E IB>E IB>E IB>E IB>E IB>E IB>E IB>E IB>E IB>E IB>E IB>E IB>E IB>E IB>E IB>E IB>E IB>E IB>E IB>E IB>E IB>E IB>E IB>E IB>E IB>E IB>E IB>E IB>E IB>E IB>E IB>E IB>E IB>E IB>E IB>E IB>E IB>E IB>E IB>E IB>E IB>E IB>E IB>E IB>E IB>E IB>E IB>E IB>E IB>E IB>E IB>E IB>E IB>E IB>E IB>E IB>E IB>E IB>E IB>E IB>E IB>E IB>E IB>E IB>E IB>E IB>E IB>E IB>E IB>E IB>E IB>E IB>E IB>E IB>E IB>E IB>E IB>E IB>E IB>E IB>E IB>E IB>E IB>E IB>E IB>E IB>E IB>E IB>E IB>E IB>E IB>E IB>E IB>E IB>E IB>E IB>E IB>E IB>E IB>E IB>E IB>E IB>E L@--=E L@--=E L@--=E L@--=E L@--=E L@--=E L@--=E L@--=E L@--=E L@--=E L@--=E L@--=E L@--=E L@--=E L@--=E L@--=E L@--=E L@--=E L@--=E L@--=E L@--=E L@--=E L@--=E L@--=E L@--=E L@--=E L@--=E L@--=E L@--=E L@--=E L@--=E L@--=E L@--=E L@--=E L@--=E L@--=E L@--=E L@--=E L@--=E L@--=E L@--=E L@--=E L@--=E L@--=E L@--=E L@--=E L@--=E L@--=E L@--=E L@--=E L@--=E L@--=E L@--=E L@--=E L@--=E L@--=E L@--=E L@--=E L@--=E L@--=E L@--=E L@--=E L@--=E L@--=E L@--=E L@--=E L@--=E L@--=E L@--=E L@--=E L@--=E L@--=E L@--=E L@--=E L@--=E L@--=E L@--=E L@--=E L@--=E L@--=E L@--=E L@--=E L@--=E L@--=E L@--=E L@--=E L@--=E L@--=E L@--=E L@--=E L@--=E L@--=E L@--=E L@--=E L@--=E L@--=E L@--=E L@--=E L@--=E L@--=E L@--=E L@--=E L@--=E L@--=E L@--=E L@--=E L@--=E L@--=E L@--=E L@--=E L@--=E L@--=E L@--=E L@--=E L@--=E L@--=E L@--=E L@--=E L@--=E L@--=E L@--=E L@--=E L@--=E L@--=E L@--=E L@--=E L@--=E L@--=E L@--=E L@--=E L@--=E L@--=E L@--=E L@--=E L@--=E L@--=E L@--=E L@--=E L@--=E L@--=E L@--=E L@--=E L@--=E L@--=E L@--=E L@--=E L@--=E L@--=E L@--=E L@--=E L@--=E L@--=E L@--=E L@--=E L@--=E L@--=E L@--=E L@--=E L@--=E L@--=E L@--=E L@--=E L@--=E L@--=E L@--=E L@--=E L@--=E L@--=E L@--=E L@--=E L@--=E L@--=E L@--=E L@--=E L@--=E L@--=E L@--=E L@--=E L@--=E @--=E @--=E @--=E @--=E @--=E @--=E @--=E @--=E @--=E @--=E @--=E @--=E @--=E @--=E @--=E @--=E @--=E @--=E @--=E @--=E @--=E @--=E @--=E @--=E @--=E @--=E @--=E @--=E @--=E @--=E @--=E @--=E @--=E @--=E @--=E @--=E @--=E @--=E @--=E @--=E @--=E @--=E @--=E @--=E @--=E @--=E @--=E @--=E @--=E @--=E @--=E @--=E @--=E @--=E @--=E @--=E @--=E @--=E @--=E @--=E @--=E @--=E @--=E @--=E @--=E @--=E @--=E @--=E @--=E @--=E @--=E @--=E @--=E @--=E @--=E @--=E @--=E JC--=E JC--=E JC--=E JC--=E JC--=E JC--=E JC--=E JC--=E JC--=E JC--=E JC--=E JC--=E JC--=E JC--=E JC--=E JC--=E JC--=E JC--=E JC--=E JC--=E JC--=E JC--=E JC--=E JC--=E JC--=E JC--=E JC--=E JC--=E JC--=E JC--=E JC--=E JC--=E JC--=E JC--=E JC--=E JC--=E JC--=E JC--=E JC--=E JC--=E JC--=E JC--=E JC--=E JC--=E JC--=E JC--=E JC--=E JC--=E JC--=E JC--=E JC--=E JC--=E JC--=E JC--=E JC--=E JC--=E JC--=E JC--=E JC--=E JC--=E JC--=E JC--=E JC--=E JC--=E JC--=E JC--=E JC--=E JC--=E JC--=E JC--=E JC--=E JC--=E JC--=E JC--=E JC--=E JC--=E JC--=E JC--=E JC--=E JC--=E JC--=E JC--=E JC--=E JC--=E JC--=E JC--=E JC--=E JC--=E JC--=E JC--=E JC--=E JC--=E JC--=E JC--=E JC--=E JC--=E JC--=E JC--=E JC--=E JC--=E JC--=E JC--=E JC=E JC=E JC=E JC=E JC=E JC=E JC=E JC=E JC=E JC=E JC=E JC=E JC=E JC=E JC=E JC=E JC=E JC=E JC=E JC=E JC=E JC=E JC=E JC=E JC=E JC=E JC=E JC=E JC=E JC=E JC=E JC=E JC=E JC=E JC=E JC=E JC=E JC=E JC=E JC=E JC=E JC=E JC=E JC=E JC=E JC=E JC=E JC=E JC=E JC=E JC=E JC=E JC=E JC=E JC=E JC=E JC=E JC=E JC=E JC=E JC=E JC=E JC=E JC=E JC=E JC=E JC=E JC=E JC=E JC=E JC=E JC=E JC=E JC=E JC=E JC=E JC=E JC=E JC=E JC=E JC=E JC=E JC=E JC=E JC=E JC=E JC=E JC=E JC=E JC=E JC=E JC=E JC=E JC=E JC=E JC=E JC=E JC=E JC=E JC=E JC=E JC=E JC=E JC=E JC=E JC=E JC=E JC=E JC=E JC=E JC=E JC=E JC=E JC=E JC=E JC=E JC=E JC=E JC=E JC=E JC=E JC=E JC=E JC=E JC=E JC=E JC=E JC=E JC=E JC=E JC=E JC=E JC=E JC=E JC=E JC=E JC=E JC=E JC=E JC=E JC=E JC=E JC=E JC=E JC=E JC=E JC=E JC=E JC=E JC=E JC=E JC=E JC=E JC=E IB-->E IB-->E IB-->E IB-->E IB-->E IB-->E IB-->E IB-->E IB-->E IB-->E IB-->E IB-->E IB-->E IB-->E IB-->E IB-->E IB-->E IB-->E IB-->E IB-->E IB-->E IB-->E IB-->E IB-->E IB-->E IB-->E IB-->E IB-->E IB-->E IB-->E IB-->E IB-->E IB-->E IB-->E IB-->E IB-->E IB-->E IB-->E IB-->E IB-->E IB-->E IB-->E IB-->E IB-->E IB-->E IB-->E IB-->E IB-->E IB-->E IB-->E IB-->E IB-->E IB-->E IB-->E IB-->E IB-->E IB-->E IB-->E IB-->E IB-->E IB-->E IB-->E IB-->E IB-->E IB-->E IB-->E IB-->E IB-->E IB-->E IB-->E IB-->E IB-->E IB-->E IB-->E IB-->E IB-->E IB-->E IB-->E IB-->E IB-->E IB-->E IB-->E IB-->E IB-->E IB-->E IB-->E IB-->E IB-->E IB-->E IB-->E IB-->E IB-->E IB-->E IB-->E IB-->E IB-->E IB-->E IB-->E IB-->E IB-->E IB-->E IB-->E IB-->E IB-->E IB-->E IB-->E IB-->E IB-->E IB-->E IB-->E IB-->E IB-->E IB-->E IB-->E IB-->E IB-->E IB-->E IB-->E IB-->E IB-->E IB-->E IB-->E IB-->E IB-->E IB-->E IB-->E IB-->E IB-->E IB-->E IB-->E IB-->E IB-->E IB-->E IB-->E IB-->E IB-->E IB-->E IB-->E IB-->E IB-->E IB-->E IB-->E IB-->E IB-->E IB-->E IB-->E IB-->E IB-->E IB-->E IB-->E IB-->E IB-->E IB-->E IB-->E IB-->E IB-->E IB-->E IB-->E IB-->E IB-->E IB-->E IB-->E IB-->E IB-->E IB-->E IB-->E IB-->E IB-->E IB-->E IB-->E IB-->E IB-->E IB-->E IB-->E IB-->E IB-->E IB-->E IB-->E IB-->E IB-->E IB-->E IB-->E IB-->E IB-->E IB-->E IB-->E IB-->E IB-->E IB-->E IB-->E IB-->E IB-->E IB-->E IB-->E IB-->E IB-->E IB-->E IB-->E IB-->E IB-->E IB-->E IB-->E IB-->E IB-->E IB-->E IB-->E IB-->E IB-->E IB-->E IB-->E IB-->E IB-->E IB-->E IB-->E IB-->E IB-->E IB-->E IB-->E IB-->E IB-->E IB-->E IB-->E IB-->E IB-->E IB-->E IB-->E IB-->E IB-->E IB-->E IB-->E IB-->E IB-->E IB-->E IB-->E IB-->E IB-->E IB-->E IB-->E IB-->E IB-->E IB-->E IB-->E IB-->E IB-->E IB-->E IB-->E IB-->E IB-->E IB-->E IB-->E IB-->E IB-->E IB-->E IB-->E IB-->E IB-->E GB-->E GB-->E GB-->E GB-->E GB-->E GB-->E GB-->E GB-->E GB-->E GB-->E GB-->E GB-->E GB-->E GB-->E GB-->E GB-->E GB-->E GB-->E GB-->E GB-->E GB-->E GB-->E GB-->E GB-->E GB-->E GB-->E GB-->E GB-->E GB-->E GB-->E GB-->E GB-->E GB-->E GB-->E GB-->E GB-->E GB-->E GB-->E GB-->E GB-->E GB-->E GB-->E GB-->E GB-->E GB-->E GB-->E GB-->E GB-->E GB-->E GB-->E GB-->E GB-->E GB-->E GB-->E GB-->E GB-->E GB-->E GB-->E GB-->E GB-->E GB-->E GB-->E GB-->E GB-->E GB-->E GB-->E GB-->E GB-->E GB-->E GB-->E GB-->E GB-->E GB-->E GB-->E GB-->E GB-->E GB-->E GB-->E GB-->E GB-->E GB-->E GB-->E GB-->E GB-->E GB-->E GB-->E GB-->E GB-->E GB-->E GB-->E GB-->E GB-->E GB-->E GB-->E GB-->E GB-->E GB-->E GB-->E GB-->E GB-->E GB-->E GB-->E GB>E GB>E GB>E GB>E GB>E GB>E GB>E GB>E GB>E GB>E GB>E GB>E GB>E GB>E GB>E GB>E GB>E GB>E GB>E GB>E GB>E GB>E GB>E GB>E GB>E GB>E GB>E GB>E GB>E GB>E GB>E GB>E GB>E GB>E GB>E GB>E GB>E GB>E GB>E GB>E GB>E GB>E GB>E GB>E GB>E GB>E GB>E GB>E GB>E GB>E GB>E GB>E GB>E GB>E GB>E GB>E GB>E GB>E GB>E GB>E GB>E GB>E GB>E GB>E GB>E GB>E GB>E GB>E GB>E GB>E GB>E GB>E GB>E GB>E GB>E GB>E GB>E GB>E GB>E GB>E GB>E GB>E GB>E GB>E GB>E GB>E GB>E GB>E GB>E GB>E GB>E GB>E GB>E GB>E GB>E GB>E GB>E GB>E GB>E GB>E GB>E GB>E GB>E GB>E GB>E GB>E GB>E GB>E GB>E GB>E GB>E GB>E GB>E GB>E GB>E GB>E GB>E GB>E GB>E GB>E GB>E GB>E GB>E GB>E GB>E GB>E GB>E GB>E GB>E GB>E GB>E GB>E GB>E GB>E GB>E GB>E GB>E GB>E GB>E GB>E GB>E GB>E GB>E GB>E GB>E GB>E GB>E GB>E GB>E GB>E GB>E GB>E GB>E GB>E I@--=@ I@--=@ I@--=@ I@--=@ I@--=@ I@--=@ I@--=@ I@--=@ I@--=@ I@--=@ I@--=@ I@--=@ I@--=@ I@--=@ I@--=@ I@--=@ I@--=@ I@--=@ I@--=@ I@--=@ I@--=@ I@--=@ I@--=@ I@--=@ I@--=@ I@--=@ I@--=@ I@--=@ I@--=@ I@--=@ I@--=@ I@--=@ I@--=@ I@--=@ I@--=@ I@--=@ I@--=@ I@--=@ I@--=@ I@--=@ I@--=@ I@--=@ I@--=@ I@--=@ I@--=@ I@--=@ I@--=@ I@--=@ I@--=@ I@--=@ I@--=@ I@--=@ I@--=@ I@--=@ I@--=@ I@--=@ I@--=@ I@--=@ I@--=@ I@--=@ I@--=@ I@--=@ I@--=@ I@--=@ I@--=@ I@--=@ I@--=@ I@--=@ I@--=@ I@--=@ I@--=@ I@--=@ I@--=@ I@--=@ I@--=@ I@--=@ I@--=@ I@--=@ I@--=@ I@--=@ I@--=@ I@--=@ I@--=@ I@--=@ I@--=@ I@--=@ I@--=@ I@--=@ I@--=@ I@--=@ I@--=@ I@--=@ I@--=@ I@--=@ I@--=@ I@--=@ I@--=@ I@--=@ I@--=@ I@--=@ I@--=@ I@--=@ I@--=@ I@--=@ I@--=@ I@--=@ I@--=@ I@--=@ I@--=@ I@--=@ I@--=@ I@--=@ I@--=@ I@--=@ I@--=@ I@--=@ I@--=@ I@--=@ I@--=@ I@--=@ I@--=@ I@--=@ I@--=@ I@--=@ I@--=@ I@--=@ I@--=@ I@--=@ I@--=@ I@--=@ I@--=@ I@--=@ I@--=@ I@--=@ I@--=@ I@--=@ I@--=@ I@--=@ I@--=@ I@--=@ I@--=@ I@--=@ I@--=@ I@--=@ I@--=@ I@--=@ I@--=@ I@--=@ I@--=@ I@--=@ I@--=@ I@--=@ I@--=@ I@--=@ I@--=@ I@--=@ I@--=@ I@--=@ I@--=@ I@--=@ I@--=@ I@--=@ I@--=@ I@--=@ I@--=@ I@--=@ I@--=@ I@--=@ I@--=@ I@--=@ I@--=@ G@--=@ G@--=@ G@--=@ G@--=@ G@--=@ G@--=@ G@--=@ G@--=@ G@--=@ G@--=@ G@--=@ G@--=@ G@--=@ G@--=@ G@--=@ G@--=@ G@--=@ G@--=@ G@--=@ G@--=@ G@--=@ G@--=@ G@--=@ G@--=@ G@--=@ G@--=@ G@--=@ G@--=@ G@--=@ G@--=@ G@--=@ G@--=@ G@--=@ G@--=@ G@--=@ G@--=@ G@--=@ G@--=@ G@--=@ G@--=@ G@--=@ G@--=@ G@--=@ G@--=@ G@--=@ G@--=@ G@--=@ G@--=@ G@--=@ G@--=@ G@--=@ G@--=@ G@--=@ G@--=@ G@--=@ G@--=@ G@--=@ G@--=@ G@--=@ G@--=@ G@--=@ G@--=@ G@--=@ G@--=@ G@--=@ G@--=@ G@--=@ G@--=@ G@--=@ G@--=@ G@--=@ G@--=@ G@--=@ G@--=@ G@--=@ G@--=@ G@--=@ G@--=@ G@--=@ G@--=@ G@--=@ G@--=@ G@--=@ G@--=@ G@--=@ GD--=@ GD--=@ GD--=@ GD--=@ GD--=@ GD--=@ GD--=@ GD--=@ GD--=@ GD--=@ GD--=@ GD--=@ GD--=@ GD--=@ GD--=@ GD--=@ GD--=@ GD--=@ GD--=@ GD--=@ GD--=@ GD--=@ GD--=@ GD--=@ GD--=@ GD--=@ GD--=@ GD--=@ GD--=@ GD--=@ GD--=@ GD--=@ GD--=@ GD--=@ GD--=@ GD--=@ GD--=@ GD--=@ GD--=@ GD--=@ GD--=@ GD--=@ GD--=@ GD--=@ GD--=@ GD--=@ GD--=@ GD--=@ GD--=@ GD--=@ GD--=@ GD--=@ GD--=@ GD--=@ GD--=@ GD--=@ GD--=@ GD--=@ GD--=@ GD--=@ GD--=@ GD--=@ GD--=@ GD--=@ GD--=@ GD--=@ GD--=@ GD--=@ GD--=@ GD--=@ GD--=@ GD--=@ GD--=@ GD--=@ GD--=@ GD--=@ GD--=@ GD--=@ GD--=@ GD--=@ GD--=@ GD--=@ GD--=@ GD--=@ GD--=@ ED--=@ ED--=@ ED--=@ ED--=@ ED--=@ ED--=@ ED--=@ ED--=@ ED--=@ ED--=@ ED--=@ ED--=@ ED--=@ ED--=@ ED--=@ ED--=@ ED--=@ ED=@ ED=@ ED=@ ED=@ ED=@ ED=@ ED=@ ED=@ ED=@ ED=@ ED=@ ED=@ ED=@ ED=@ ED=@ ED=@ ED=@ ED=@ ED=@ ED=@ ED=@ ED=@ ED=@ ED=@ ED=@ ED=@ ED=@ ED=@ ED=@ ED=@ ED=@ ED=@ ED=@ ED=@ ED=@ ED=@ ED=@ ED=@ ED=@ ED=@ ED=@ ED=@ ED=@ ED=@ ED=@ ED=@ ED=@ ED=@ ED=@ ED=@ ED=@ ED=@ ED=@ ED=@ ED=@ ED=@ ED=@ ED=@ ED=@ ED=@ ED=@ ED=@ ED=@ ED=@ ED=@ ED=@ ED=@ ED=@ ED=@ ED=@ ED=@ ED=@ ED=@ ED=@ ED=@ ED=@ ED=@ ED=@ ED=@ ED=@ ED=@ ED=@ ED=@ ED=@ ED=@ ED=@ ED=@ ED=@ ED=@ ED=@ ED=@ ED=@ ED=@ ED=@ ED=@ ED=@ ED=@ ED=@ ED=@ ED=@ ED=@ ED=@ ED=@ ED=@ ED=@ ED=@ ED=@ ED=@ ED=@ ED=@ ED=@ ED=@ ED=@ ED=@ ED=@ ED=@ ED=@ ED=@ ED=@ ED=@ ED=@ ED=@ ED=@ ED=@ ED=@ ED=@ ED=@ ED=@ ED=@ ED=@ ED=@ ED=@ ED=@ ED=@ ED=@ ED=@ ED=@ ED=@ ED=@ ED=@ ED=@ ED=@ ED=@ ED=@ ED=@ ED=@ ED=@ ED=@ ED=@ ED=@ ED=@ ED=@ ED=@ ED=@ @E99=@ @E99=@ @E99=@ @E99=@ @E99=@ @E99=@ @E99=@ @E99=@ @E99=@ @E99=@ @E99=@ @E99=@ @E99=@ @E99=@ @E99=@ @E99=@ @E99=@ @E99=@ @E99=@ @E99=@ @E99=@ @E99=@ @E99=@ @E99=@ @E99=@ @E99=@ @E99=@ @E99=@ @E99=@ @E99=@ @E99=@ @E99=@ @E99=@ @E99=@ @E99=@ @E99=@ @E99=@ @E99=@ @E99=@ @E99=@ @E99=@ @E99=@ @E99=@ @E99=@ @E99=@ @E99=@ @E99=@ @E99=@ @E99=@ @E99=@ @E99=@ @E99=@ @E99=@ @E99=@ @E99=@ @E99=@ @E99=@ @E99=@ @E99=@ @E99=@ @E99=@ @E99=@ @E99=@ @E99=@ @E99=@ @E99=@ @E99=@ @E99=@ @E99=@ @E99=@ @E99=@ @E99=@ @E99=@ @E99=@ @E99=@ @E99=@ @E99=@ @E99=@ @E99=@ @E99=@ @E99=@ @E99=@ @E99=@ @E99=@ @E99=@ @E99=@ @E99=@ @E99=@ @E99=@ @E99=@ @E99=@ @E99=@ @E99=@ @E99=@ @E99=@ @E99=@ @E99=@ @E99=@ @E99=@ @E99=@ @E99=@ @E99=@ @E99=@ @E99=@ @E99=@ @E99=@ @E99=@ @E99=@ @E99=@ @E99=@ @E99=@ @E99=@ @E99=@ @E99=@ @E99=@ @E99=@ @E99=@ @E99=@ @E99=@ @E99=@ @E99=@ @E99=@ @E99=@ @E99=@ @E99=@ @E99=@ @E99=@ @E99=@ @E99=@ @E99=@ @E99=@ @E99=@ @E99=@ @E99=@ @E99=@ @E99=@ @E99=@ @E99=@ @E99=@ @E99=@ @E99=@ @E99=@ @E99=@ @E99=@ @E99=@ @E99=@ @E99=@ @E99=@ @E99=@ @E99=@ @E99=@ @E99=@ @E99=@ @E99=@ @E99=@ @E99=@ @E99=@ @E99=@ @E99=@ @E99=@ @E99=@ @E99=@ @E99=@ @E99=@ @E99=@ @E99=@ @E99=@ @E99=@ @E99=@ @E99=@ @E99=@ EE99=@ EE99=@ EE99=@ EE99=@ EE99=@ EE99=@ EE99=@ EE99=@ EE99=@ EE99=@ EE99=@ EE99=@ EE99=@ EE99=@ EE99=@ EE99=@ EE99=@ EE99=@ EE99=@ EE99=@ EE99=@ EE99=@ EE99=@ EE99=@ EE99=@ EE99=@ EE99=@ EE99=@ EE99=@ EE99=@ EE99=@ EE99=@ EE99=@ EE99=@ EE99=@ EE99=@ EE99=@ EE99=@ EE99=@ EE99=@ EE99=@ EE99=@ EE99=@ EE99=@ EE99=@ EE99=@ EE99=@ EE99=@ EE99=@ EE99=@ EE99=@ EE99=@ EE99=@ EE99=@ EE99=@ EE99=@ EE99=@ EE99=@ EE99=@ EE99=@ EE99=@ EE99=@ EE99=@ EE99=@ EE99=@ EE99=@ EE99=@ EE99=@ EE99=@ EE99=@ EE99=@ EE99=@ EE99=@ EE99=@ EE99=@ EE99=@ EE99=@ EE99=@ EE99=@ EE99=@ EE99=@ EE99=@ EE99=@ EE99=@ EE99=@ EE99=@ EE99=@ EE99=@ EE99=@ EE99=@ EE99=@ EE99=@ EE99=@ EE99=@ EE99=@ EE99=@ EE99=@ EE99=@ EE99=@ EE99=@ EE99=@ EE99=@ EE99=@ EE99=@ EE99=@ EE99=@ EE99=@ EE99=@ EE99=@ EE99=@ EE99=@ EE99=@ EE99=@ EE99=@ EE99=@ EE99=@ EE99=@ EE99=@ EE99=@ EE99=@ EE99=@ EE99=@ EE99=@ EE99=@ EE99=@ EE99=@ EE99=@ EE99=@ EE99=@ EE99=@ EE99=@ EE99=@ EE99=@ EE99=@ EE99=@ EE99=@ EE99=@ EE99=@ EE99=@ EE99=@ EE99=@ EE99=@ EE99=@ EE99=@ EE99=@ EE99=@ EE99=@ EE99=@ EE99=@ EE99=@ EE99=@ EE99=@ EE99=@ EE99=@ EE99=@ EE99=@ EE99=@ EE99=@ EE99=@ EE99=@ EE99=@ EE99=@ EE99=@ EE99=@ EE99=@ EE99=@ EE99=@ EE99=@ EE99=@ EE99=@ GE99=@ GE99=@ GE99=@ GE99=@ GE99=@ GE99=@ GE99=@ GE99=@ GE99=@ GE99=@ GE99=@ GE99=@ GE99=@ GE99=@ GE99=@ GE99=@ GE99=@ GE99=@ GE99=@ GE99=@ GE99=@ GE99=@ GE99=@ GE99=@ GE99=@ GE99=@ GE99=@ GE99=@ GE99=@ GE99=@ GE99=@ GE99=@ GE99=@ GE99=@ GE99=@ GE99=@ GE99=@ GE99=@ GE99=@ GE99=@ GE99=@ GE99=@ GE99=@ GE99=@ GE99=@ GE99=@ GE99=@ GE99=@ GE99=@ GE99=@ GE99=@ GE99=@ GE99=@ GE99=@ GE99=@ GE99=@ GE99=@ GE99=@ GE99=@ GE99=@ GE99=@ GE99=@ GE99=@ GE99=@ GE99=@ GE99=@ GE99=@ GE99=@ GE99=@ GE99=@ GE99=@ GE99=@ GE99=@ GE99=@ GE99=@ GE99=@ GE99=@ GE99=@ GE99=@ GE99=@ GE99=@ GE99=@ GE99=@ GE99=@ GE99=@ GE99=@ GE99=@ GE99=@ GE99=@ GE99=@ GE99=@ GE99=@ GE99=@ GE99=@ GE99=@ GE99=@ GE99=@ GE99=@ GE99=@ GE99=@ GE99=@ GE99=@ GE99=@ GE99=@ GE99=@ GE99=@ GE99=@ GE99=@ GE99=@ GE99=@ GE99=@ GE99=@ GE99=@ GE99=@ GE99=@ GE99=@ GE99=@ GE99=@ GE99=@ GE99=@ GE99=@ GE99=@ GE99=@ GE99=@ GE99=@ GE99=@ GE99=@ GE99=@ GE99=@ GE99=@ GE99=@ GE99=@ GE99=@ GE99=@ GE99=@ GE99=@ GE99=@ GE99=@ GE99=@ GE99=@ GE99=@ GE99=@ GE99=@ GE99=@ GE99=@ GE99=@ GE99=@ GE99=@ GE99=@ GE99=@ GE99=@ GE99=@ GE99=@ GE99=@ GE99=@ GE99=@ GE99=@ GE99=@ GE99=@ GE99=@ GE99=@ GE99=@ GE99=@ GE99=@ GE99=@ GE99=@ GE99=@ GE99=@ GE99=@ GE99=@ GE99=@ I999=@ I999=@ I999=@ I999=@ I999=@ I999=@ I999=@ I999=@ I999=@ I999=@ I999=@ I999=@ I999=@ I999=@ I999=@ I999=@ I999=@ I999=@ I999=@ I999=@ I999=@ I999=@ I999=@ I999=@ I999=@ I999=@ I999=@ I999=@ I999=@ I999=@ I999=@ I999=@ I999=@ I999=@ I999=@ I999=@ I999=@ I999=@ I999=@ I999=@ I999=@ I999=@ I999=@ I999=@ I999=@ I999=@ I999=@ I999=@ I999=@ I999=@ I999=@ I999=@ I999=@ I999=@ I999=@ I999=@ I999=@ I999=@ I999=@ I999=@ I999=@ I999=@ I999=@ I999=@ I999=@ I999=@ I999=@ I999=@ I999=@ I999=@ I999=@ I999=@ I999=@ I999=@ I999=@ I999=@ I999=@ I999=@ I999=@ I999=@ I999=@ I999=@ I999=@ I999=@ I999=@ I999=@ I999=@ I999=@ I999=@ I999=@ I999=@ I999=@ I999=@ I999=@ I999=@ I999=@ I999=@ I999=@ I999=@ I999=@ I999=@ I999=@ I999=@ I999=@ I999=@ I999=@ I999=@ I999=@ I999=@ I999=@ I999=@ I999=@ I999=@ I999=@ I999=@ I999=@ I999=@ I999=@ I999=@ I999=@ I999=@ I999=@ I999=@ I999=@ I999=@ I999=@ I999=@ I999=@ I999=@ I999=@ I999=@ I999=@ I999=@ I999=@ I999=@ I999=@ I999=@ I999=@ I999=@ I999=@ I999=@ I999=@ I999=@ I999=@ I999=@ I999=@ I999=@ I999=@ I999=@ I999=@ I999=@ I999=@ I999=@ I999=@ I999=@ I999=@ I999=@ I999=@ I999=@ I999=@ I999=@ I999=@ I999=@ I999=@ I999=@ I999=@ I999=@ I999=@ I999=@ I999=@ I999=@ G999=@ G999=@ G999=@ G999=@ G999=@ G999=@ G999=@ G999=@ G999=@ G999=@ G999=@ G999=@ G999=@ G999=@ G999=@ G999=@ G999=@ G999=@ G999=@ G999=@ G999=@ G999=@ G999=@ G999=@ G999=@ G999=@ G999=@ G999=@ G999=@ G999=@ G999=@ G999=@ G999=@ G999=@ G999=@ G999=@ G999=@ G999=@ G999=@ G999=@ G999=@ G999=@ G999=@ G999=@ G999=@ G999=@ G999=@ G999=@ G999=@ G999=@ G999=@ G999=@ G999=@ G999=@ G999=@ G999=@ G999=@ G999=@ G999=@ G999=@ G999=@ G999=@ G999=@ G999=@ G999=@ G999=@ G999=@ G999=@ G999=@ G999=@ G999=@ G999=@ G999=@ G999=@ G999=@ G999=@ G999=@ G999=@ G999=@ G999=@ G999=@ G999=@ G999=@ G999=@ G999=@ G999=@ G999=@ G999=@ G999=@ G999=@ G999=@ G999=@ G999=@ G999=@ G999=@ G999=@ G999=@ G999=@ G999=@ G999=@ G999=@ G999=@ G999=@ G999=@ G999=@ G999=@ G999=@ G999=@ G999=@ G999=@ G999=@ G999=@ G999=@ G999=@ G999=@ G999=@ G999=@ G999=@ G999=@ G999=@ G999=@ G999=@ G999=@ G999=@ G999=@ G999=@ G999=@ G999=@ G999=@ G999=@ G999=@ G999=@ G999=@ G999=@ G999=@ G999=@ G999=@ G999=@ G999=@ G999=@ G999=@ G999=@ G999=@ G999=@ G999=@ G999=@ G999=@ G999=@ G999=@ G999=@ G999=@ G999=@ G999=@ G999=@ G999=@ G999=@ G999=@ G999=@ G999=@ G999=@ G999=@ G999=@ G999=@ G999=@ G999=@ G999=@ G999=@ G999=@ G999=@ G999=@ E999=@ E999=@ E999=@ E999=@ E999=@ E999=@ E999=@ E999=@ E999=@ E999=@ E999=@ E999=@ E999=@ E999=@ E999=@ E999=@ E999=@ E999=@ E999=@ E999=@ E999=@ E999=@ E999=@ E999=@ E999=@ E999=@ E999=@ E999=@ E999=@ E999=@ E999=@ E999=@ E999=@ E999=@ E999=@ E999=@ E999=@ E999=@ E999=@ E999=@ E999=@ E999=@ E999=@ E999=@ E999=@ E999=@ E999=@ E999=@ E999=@ E999=@ E999=@ E999=@ E999=@ E999=@ E999=@ E999=@ E999=@ E999=@ E999=@ E999=@ E999=@ E999=@ E999=@ E999=@ E999=@ E999=@ E999=@ E999=@ E999=@ E9=@ E9=@ E9=@ E9=@ E9=@ E9=@ E9=@ E9=@ E9=@ E9=@ E9=@ E9=@ E9=@ E9=@ E9=@ E9=@ E9=@ E9=@ E9=@ E9=@ E9=@ E9=@ E9=@ E9=@ E9=@ E9=@ E9=@ E9=@ E9=@ E9=@ E9=@ E9=@ E9=@ E9=@ E9=@ E9=@ E9=@ E9=@ E9=@ E9=@ E9=@ E9=@ E9=@ E9=@ E9=@ E9=@ E9=@ E9=@ E9=@ E9=@ E9=@ E9=@ E9=@ E9=@ E9=@ E9=@ E9=@ E9=@ E9=@ E9=@ E9=@ E9=@ E9=@ E9=@ E9=@ E9=@ E9=@ E9=@ E9=@ E9=@ E9=@ E9=@ E9=@ E9=@ E9=@ E9=@ E9=@ E9=@ E9=@ E9=@ E9=@ E9=@ E9=@ E9=@ E9=@ E9=@ E9=@ E9=@ E9=@ E9=@ E9=@ E9=@ E9=@ E9=@ E9=@ E9=@ E9=@ E9=@ E9=@ E9=@ E9=@ E9=@ G944D; G944D; G944D; G944D; G944D; G944D; G944D; G944D; G944D; G944D; G944D; G944D; G944D; G944D; G944D; G944D; G944D; G944D; G944D; G944D; G944D; G944D; G944D; G944D; G944D; G944D; G944D; G944D; G944D; G944D; G944D; G944D; G944D; G944D; G944D; G944D; G944D; G944D; G944D; G944D; G944D; G944D; G944D; G944D; G944D; G944D; G944D; G944D; G944D; G944D; G944D; G944D; G944D; G944D; G944D; G944D; G944D; G944D; G944D; G944D; G944D; G944D; G944D; G944D; G944D; G944D; G944D; G944D; G944D; G944D; G944D; G944D; G944D; G944D; G944D; G944D; G944D; G944D; G944D; G944D; G944D; G944D; G944D; G944D; G944D; G944D; G944D; G944D; G944D; G944D; G944D; G944D; G944D; G944D; G944D; G944D; G944D; G944D; G944D; G944D; G944D; G944D; G944D; G944D; G944D; G944D; G944D; G944D; G944D; G944D; G944D; G944D; G944D; G944D; G944D; G944D; G944D; G944D; G944D; G944D; G944D; G944D; G944D; G944D; G944D; G944D; G944D; G944D; G944D; G944D; G944D; G944D; G944D; G944D; G944D; G944D; G944D; G944D; G944D; G944D; G944D; G944D; G944D; G944D; G944D; G944D; G944D; G944D; G944D; G944D; G944D; G944D; G944D; G944D; G944D; G944D; G944D; G944D; G944D; G944D; G944D; G944D; G944D; G944D; G944D; G944D; G944D; G944D; G944D; G944D; G944D; I944D; I944D; I944D; I944D; I944D; I944D; I944D; I944D; I944D; I944D; I944D; I944D; I944D; I944D; I944D; I944D; I944D; I944D; I944D; I944D; I944D; I944D; I944D; I944D; I944D; I944D; I944D; I944D; I944D; I944D; I944D; I944D; I944D; I944D; I944D; I944D; I944D; I944D; I944D; I944D; I944D; I944D; I944D; I944D; I944D; I944D; I944D; I944D; I944D; I944D; I944D; I944D; I944D; I944D; I944D; I944D; I944D; I944D; I944D; I944D; I944D; I944D; I944D; I944D; I944D; I944D; I944D; I944D; I944D; I944D; I944D; I944D; I944D; I944D; I944D; I944D; I944D; I944D; I944D; I944D; I944D; I944D; I944D; I944D; I944D; I944D; I944D; I944D; I944D; I944D; I944D; I944D; I944D; I944D; I944D; I944D; I944D; I944D; I944D; I944D; I944D; I944D; I944D; I944D; I944D; I944D; I944D; I944D; I944D; I944D; I944D; I944D; I944D; I944D; I944D; I944D; I944D; I944D; I944D; I944D; I944D; I944D; I944D; I944D; I944D; I944D; I944D; I944D; I944D; I944D; I944D; I944D; I944D; I944D; I944D; I944D; I944D; I944D; I944D; I944D; I944D; I944D; I944D; I944D; I944D; I944D; I944D; I944D; I944D; I944D; I944D; I944D; I944D; I944D; I944D; I944D; I944D; I944D; I944D; I944D; I944D; I944D; I944D; I944D; I944D; I944D; I944D; I944D; I944D; I944D; J944D; J944D; J944D; J944D; J944D; J944D; J944D; J944D; J944D; J944D; J944D; J944D; J944D; J944D; J944D; J944D; J944D; J9D; J9D; J9D; J9D; J9D; J9D; J9D; J9D; J9D; J9D; J9D; J9D; J9D; J9D; J9D; J9D; J9D; J9D; J9D; J9D; J9D; J9D; J9D; J9D; J9D; J9D; J9D; J9D; J9D; J9D; J9D; J9D; J9D; J9D; J9D; J9D; J9D; J9D; J9D; J9D; J9D; J9D; J9D; J9D; J9D; J9D; J9D; J9D; J9D; J9D; J9D; J9D; J9D; J9D; J9D; J9D; J9D; J9D; J9D; J9D; J9D; J9D; J9D; J9D; J9D; J9D; J9D; J9D; J9D; J9D; J9D; J9D; J9D; J9D; J9D; J9D; J9D; J9D; J9D; J9D; J9D; J9D; J9D; J9D; J9D; J9D; J9D; J9D; J9D; J9D; J9D; J9D; J9D; J9D; J9D; J9D; J9D; J9D; J9D; J9D; J9D; J9D; J9D; J9D; J9D; J9D; J9D; J9D; J9D; J9D; J9D; J9D; J9D; J9D; J9D; J9D; J9D; J9D; J9D; J9D; J9D; J9D; J9D; J9D; J9D; J9D; J9D; J9D; J9D; J9D; J9D; J9D; J9D; J9D; J9D; J9D; J9D; J9D; J9D; J9D; J9D; J9D; J9D; J9D; J9D; J9D; J9D; J9D; J9D; J9D; J9D; J9D; J9D; J9D; L2;2C L2;2C L2;2C L2;2C L2;2C L2;2C L2;2C L2;2C L2;2C L2;2C L2;2C L2;2C L2;2C L2;2C L2;2C L2;2C L2;2C L2;2C L2;2C L2;2C L2;2C L2;2C L2;2C L2;2C L2;2C L2;2C L2;2C L2;2C L2;2C L2;2C L2;2C L2;2C L2;2C L2;2C L2;2C L2;2C L2;2C L2;2C L2;2C L2;2C L2;2C L2;2C L2;2C L2;2C L2;2C L2;2C L2;2C L2;2C L2;2C L2;2C L2;2C L2;2C L2;2C L2;2C L2;2C L2;2C L2;2C L2;2C L2;2C L2;2C L2;2C L2;2C L2;2C L2;2C L2;2C L2;2C L2;2C L2;2C L2;2C L2;2C L2;2C L2;2C L2;2C L2;2C L2;2C L2;2C L2;2C L2;2C L2;2C L2;2C L2;2C L2;2C L2;2C L2;2C L2;2C L2;2C L2;2C L2;2C L2;2C L2;2C L2;2C L2;2C L2;2C L2;2C L2;2C L2;2C L2;2C L2;2C L2;2C L2;2C L2;2C L2;2C L2;2C L2;2C L2;2C L2;2C L2;2C L2;2C L2;2C L2;2C L2;2C L2;2C L2;2C L2;2C L2;2C L2;2C L2;2C L2;2C L2;2C L2;2C L2;2C L2;2C L2;2C L2;2C L2;2C L2;2C L2;2C L2;2C L2;2C L2;2C L2;2C L2;2C L2;2C L2;2C L2;2C L2;2C L2;2C L2;2C L2;2C L2;2C L2;2C L2;2C L2;2C L2;2C L2;2C L2;2C L2;2C L2;2C L2;2C L2;2C L2;2C L2;2C L2;2C L2;2C L2;2C L2;2C L2;2C L2;2C L2;2C L2;2C L2;2C L2;2C L2;2C L2;2C L2;2C L2;2C L2;2C L2;2C L2;2C L2;2C L2;2C L2;2C L2;2C L2;2C L2;2C L2;2C L2;2C L2;2C L2;2C L2;2C L2;2C L2;2C L2;2C L2;2C L2;2C L2;2C L2;2C L2;2C L2;2C L2;2C L2;2C L2;2C L2;2C L2;2C L2;2C L2;2C L2;2C L2;2C L2;2C L2;2C L2;2C L2;2C L2;2C L2;2C L2;2C L2;2C L2;2C L2;2C L2;2C L2;2C L2;2C L2;2C L2;2C L2;2C L2;2C L2;2C L2;2C L2;2C L2;2C L2;2C L2;2C L2;2C L2;2C L2;2C L2;2C L2;2C L2;2C L2;2C L2;2C L2;2C L2;2C L2;2C L2;2C L2;2C L2;2C L2;2C L2;2C L2;2C L2;2C L2;2C L2;2C L2;2C L2;2C L2;2C L2;2C L2;2C L2;2C L2;2C L2;2C L2;2C L2;2C L2;2C L2;2C L2;2C L2;2C L2;2C L191C L191C L191C L191C L191C L191C L191C L191C L191C L191C L191C L191C L191C L191C L191C L191C L191C L191C L191C L191C L191C L191C L191C L191C L191C L191C L191C L191C L191C L191C L191C L191C L191C L191C L191C L191C L191C L191C L191C L191C L191C L191C L191C L191C L191C L191C L191C L191C L191C L191C L191C L191C L191C L191C L191C L191C L191C L191C L191C L191C L191C L191C L191C L191C L191C L191C L191C L191C L191C L191C L191C L191C L191C L191C L191C L191C L191C L191C L191C L191C L191C L191C L191C L191C L191C L191C L191C L191C L191C L191C L191C L191C L191C L191C L191C L191C L191C L191C L191C L191C L191C L191C L191C L191C L191C L191C L191C L191C L191C L191C L191C L191C L191C L191C L191C L191C L191C L191C L191C L191C L191C L191C L191C L191C L191C L191C L191C L191C L191C L191C L191C L191C L191C L191C L191C L191C L191C L191C L191C L191C L191C L191C L191C L191C L191C L191C L191C L191C L191C L191C L191C L191C L191C L191C L191C L191C L191C L191C L191C L191C L191C L191C L191C L191C L191C L191C L191C L191C L191C L191C L191C L191C L191C L191C L191C L191C L191C L191C L191C L191C L191C L191C L191C L191C L191C L191C L191C L191C L191C L191C L191C L191C L191C L191C L191C L191C L191C L191C L191C L191C L191C L191C L191C L191C L191C L191C L191C L191C L191C L191C L191C L191C L191C L191C L191C L191C L191C L191C L191C L191C L191C L191C L191C L191C L191C L191C L191C L191C L191C L191C L191C L191C L191C L191C L191C L191C L191C L191C L191C L191C L191C L191C L191C L191C L191C L191C L191C L191C L191C L191C L191C L191C L191C L191C L191C L191C C/>/C C/>/C C/>/C C/>/C C/>/C C/>/C C/>/C C/>/C C/>/C C/>/C C/>/C C/>/C C/>/C C/>/C C/>/C C/>/C C/>/C C/>/C C/>/C C/>/C C/>/C C/>/C C/>/C C/>/C C/>/C C/>/C C/>/C C/>/C C/>/C C/>/C C/>/C C/>/C C/>/C C/>/C C/>/C C/>/C C/>/C C/>/C C/>/C C/>/C C/>/C C/>/C C/>/C C/>/C C/>/C C/>/C C/>/C C/>/C C/>/C C/>/C C/>/C C/>/C C/>/C C/>/C C/>/C C/>/C C/>/C C/>/C C/>/C C/>/C C/>/C C/>/C C/>/C C/>/C C/>/C C/>/C C/>/C C/>/C C/>/C C/>/C C/>/C C/>/C C/>/C C/>/C C/>/C C/>/C C/>/C C/>/C C/>/C C/>/C C/>/C C/>/C C/>/C C/>/C C/>/C C/>/C C/>/C C/>/C C/>/C C/>/C C/>/C C/>/C C/>/C C/>/C C/>/C C/>/C C/>/C C/>/C C/>/C C/>/C C/>/C C/>/C C/>/C C/>/C C/>/C C/>/C C/>/C C/>/C C/>/C C/>/C C/>/C C/>/C C/>/C C/>/C C/>/C C/>/C C/>/C C/>/C C/>/C C/>/C C/>/C C/>/C C/>/C C/>/C C/>/C C/>/C C/>/C C/>/C C/>/C C/>/C C/>/C C/>/C C/>/C C/>/C C/>/C C/>/C C/>/C C/>/C C/>/C C/>/C C/>/C C/>/C C/>/C C/>/C C/>/C C/>/C C/>/C C/>/C C/>/C C/>/C C/>/C C/>/C C/>/C C/>/C C/>/C C/>/C C/>/C C/>/C C/>/C C/>/C C/>/C C/>/C C/>/C C/>/C C/>/C C/>/C C/>/C C/>/C C/>/C C/>/C C/>/C C/>/C C/>/C C/>/C C/>/C C/>/C C/>/C C/>/C C/>/C C/>/C C/>/C C/>/C C/>/C C/>/C C/>/C C/>/C C/>/C C/>/C C/>/C C/>/C C/>/C C/>/C C/>/C C/>/C C/>/C C/>/C C/>/C C/>/C C/>/C C/>/C C/>/C C/>/C C/>/C C/>/C C/>/C C/>/C C/>/C C/>/C C/>/C C/>/C C/>/C C/>/C C/>/C C/>/C C/>/C C/>/C C/>/C C/>/C C/>/C C/>/C C/>/C C/>/C C/>/C C/>/C C/>/C C/>/C C/>/C C/>/C C/>/C C/>/C C/>/C C/>/C C/>/C C/>/C C/>/C C/>/C C/>/C C/>/C C/>/C C/>/C C/>/C C/>/C C/>/C C/>/C C/>/C C/>/C C/>/C C/>/C C/>/C C/>/C C/>/C C/>/C C/>/C C/>/C C/>/C C/>/C C-C=- C-C=- C-C=- C-C=- C-C=- C-C=- C-C=- C-C=- C-C=- C-C=- C-C=- C-C=- C-C=- C-C=- C-C=- C-C=- C-C=- C-C=- C-C=- C-C=- C-C=- C-C=- C-C=- C-C=- C-C=- C-C=- C-C=- C-C=- C-C=- C-C=- C-C=- C-C=- C-C=- C-C=- C-C=- C-C=- C-C=- C-C=- C-C=- C-C=- C-C=- C-C=- C-C=- C-C=- C-C=- C-C=- C-C=- C-C=- C-C=- C-C=- C-C=- C-C=- C-C=- C-C=- C-C=- C-C=- C-C=- C-C=- C-C=- C-C=- C-C=- C-C=- C-C=- C-C=- C-C=- C-C=- C-C=- C-C=- C-C=- C-C=- C-C=- C-C=- C-C=- C-C=- C-C=- C-C=- C-C=- C-C=- C-C=- C-C=- C-C=- C-C=- C-C=- C-C=- C-C=- C-C=- C-C=- C-C=- C-C=- C-C=- C-C=- C-C=- C-C=- C-C=- C-C=- C-C=- C-C=- C-C=- C-C=- C-C=- C-C=- C-C=- C-C=- C-C=- C-C=- C-C=- C-C=- C-C=- C-C=- C-C=- C-C=- C-C=- C-C=- C-C=- C-C=- C-C=- C-C=- C-C=- C-C=- C-C=- C-C=- C-C=- C-C=- C-C=- C-C=- C-C=- C-C=- C-C=- C-C=- C-C=- C-C=- C-C=- C-C=- C-C=- C-C=- C-C=- C-C=- C-C=- C-C=- C-C=- C-C=- C-C=- C-C=- C-C=- C-C=- C-C=- C-C=- C-C=- C-C=- C-C=- C-C=- C-C=- C-C=- C-C=- C-C=- C-C=- C-C=- C-C=- C-C=- C-C=- C-C=- C-C=- C-C=- C-C=- C-C=- C-C=- C-C=- C-C=- C-C=- C-C=- C-C=- C-C=- C-C=- C-C=- C-C=- C-C=- C-C=- C-C=- C-C=- C-C=- C-C=- C-C=- C-C=- C-C=- C-C=- C-C=- C-C=- C-C=- C-C=- C-C=- C-C=- C-C=- C-C=- C-C=- C-C=- C-C=- C-C=- C-C=- C-C=- C-C=- C-C=- C-C=- C-C=- C-C=- C-C=- C-C=- C-C=- C-C=- C-C=- C-C=- C-C=- C-C=- C-C=- C-C=- C-C=- C-C=- C-C=- C-C=- C-C=- C-C=- C-C=- C-C=- C-C=- C-C=- C-C=- C-C=- C-C=- C-C=- C-C=- C-C=- C-C=- C-C=- C-C=- C-C=- C-C=- C-C=- C-C=- C-C=- C-C=- C-C=- C-C=- C-C=- C-C=- C-C=- C-C=- C-C=- C-C=- C-C=- C-C=- C-C=- C-C=- C-C=- C-C=- C-C=- C-C=- C-C=- B22B> B22B> B22B> B22B> B22B> B22B> B22B> B22B> B22B> B22B> B22B> B22B> B22B> B22B> B22B> B22B> B22B> B22B> B22B> B22B> B22B> B22B> B22B> B22B> B22B> B22B> B22B> B22B> B22B> B22B> B22B> B22B> B22B> B22B> B22B> B22B> B22B> B22B> B22B> B22B> B22B> B22B> B22B> B22B> B22B> B22B> B22B> B22B> B22B> B22B> B22B> B22B> B22B> B22B> B22B> B22B> B22B> B22B> B22B> B22B> B22B> B22B> B22B> B22B> B22B> B22B> B22B> B22B> B22B> B22B> B22B> B22B> B22B> B22B> B22B> B22B> B22B> B22B> B22B> B22B> B22B> B22B> B22B> B22B> B22B> B22B> B22B> B22B> B22B> B22B> B22B> B22B> B22B> B22B> B22B> B22B> B22B> B22B> B22B> B22B> B22B> B22B> B22B> B22B> B22B> B22B> B22B> B22B> B22B> B22B> B22B> B22B> B22B> B22B> B22B> B22B> B22B> B22B> B22B> B22B> B22B> B22B> B22B> B22B> B22B> B22B> B22B> B22B> B22B> B22B> B22B> B22B> B22B> B22B> B22B> B22B> B22B> B22B> B22B> B22B> B22B> B22B> B22B> B22B> B22B> B22B> B22B> B22B> B22B> B22B> B22B> B22B> B22B> B22B> B22B> B22B> B22B> B22B> B22B> B22B> B22B> B22B> B22B> B22B> B22B> B22B> B22B> B22B> B22B> B22B> B22B> B22B> B22B> B22B> B22B> B22B> B22B> B22B> B22B> B22B> B22B> B22B> B22B> B22B> B22B> B22B> B22B> B22B> B22B> B22B> B22B> B22B> B22B> B22B> B22B> B22B> B22B> B22B> B22B> B22B> B22B> B22B> B22B> B22B> B22B> B22B> B22B> B22B> B22B> B22B> B22B> B22B> B22B> B22B> B22B> B22B> B22B> B22B> B22B> B22B> B22B> B22B> B22B> B22B> B22B> B22B> B22B> B22B> B22B> B22B> B22B> B22B> B22B> B22B> B22B> B22B> B22B> B22B> B22B> B22B> B22B> B22B> B22B> B22B> B22B> B22B> B22B> B22B> B22B> B22B> B22B> B22B> B22B> B22B> B22B> B22B> @22B> @22B> @22B> @22B> @22B> @22B> @22B> @22B> @22B> @22B> @22B> @22B> @22B> @22B> @22B> @22B> @22B> @22B> @22B> @22B> @22B> @22B> @22B> @22B> @22B> @22B> @22B> @22B> @22B> @22B> @22B> @22B> @22B> @22B> @22B> @22B> @22B> @22B> @22B> @22B> @22B> @22B> @22B> @22B> @22B> @22B> @22B> @22B> @22B> @22B> @22B> @22B> @22B> @22B> @22B> @22B> @22B> @22B> @22B> @22B> @22B> @22B> @22B> @22B> @22B> @22B> @22B> @22B> @22B> @22B> @22B> @22B> @22B> @22B> @22B> @22B> @22B> @22B> @22B> @22B> @22B> @22B> @22B> @22B> @22B> @22B> @22B> @22B> @22B> @22B> @22B> @22B> @22B> @22B> @22B> @22B> @22B> @22B> @22B> @22B> @22B> @22B> @B> @B> @B> @B> @B> @B> @B> @B> @B> @B> @B> @B> @B> @B> @B> @B> @B> @B> @B> @B> @B> @B> @B> @B> @B> @B> @B> @B> @B> @B> @B> @B> @B> @B> @B> @B> @B> @B> @B> @B> @B> @B> @B> @B> @B> @B> @B> @B> @B> @B> @B> @B> @B> @B> @B> @B> @B> @B> @B> @B> @B> @B> @B> @B> @B> @B> @B> @B> @B> @B> @B> @B> @B> @B> @B> @B> @B> @B> @B> @B> @B> @B> @B> @B> @B> @B> @B> @B> @B> @B> @B> @B> @B> @B> @B> @B> @B> @B> @B> @B> @B> @B> @B> @B> @B> @B> @B> @B> @B> @B> @B> @B> @B> @B> @B> @B> @B> @B> @B> @B> @B> @B> @B> @B> @B> @B> @B> @B> @B> @B> @B> @B> @B> @B> @B> @B> @B> @B> @B> @B> @B> @B> @B> @B> @B> @B> @B> @B> @B> @B> @B> @B> @B> @B> >44C> >44C> >44C> >44C> >44C> >44C> >44C> >44C> >44C> >44C> >44C> >44C> >44C> >44C> >44C> >44C> >44C> >44C> >44C> >44C> >44C> >44C> >44C> >44C> >44C> >44C> >44C> >44C> >44C> >44C> >44C> >44C> >44C> >44C> >44C> >44C> >44C> >44C> >44C> >44C> >44C> >44C> >44C> >44C> >44C> >44C> >44C> >44C> >44C> >44C> >44C> >44C> >44C> >44C> >44C> >44C> >44C> >44C> >44C> >44C> >44C> >44C> >44C> >44C> >44C> >44C> >44C> >44C> >44C> >44C> >44C> >44C> >44C> >44C> >44C> >44C> >44C> >44C> >44C> >44C> >44C> >44C> >44C> >44C> >44C> >44C> >44C> >44C> >44C> >44C> >44C> >44C> >44C> >44C> >44C> >44C> >44C> >44C> >44C> >44C> >44C> >44C> >44C> >44C> >44C> >44C> >44C> >44C> >44C> >44C> >44C> >44C> >44C> >44C> >44C> >44C> >44C> >44C> >44C> >44C> >44C> >44C> >44C> >44C> >44C> >44C> >44C> >44C> >44C> >44C> >44C> >44C> >44C> >44C> >44C> >44C> >44C> >44C> >44C> >44C> >44C> >44C> >44C> >44C> >44C> >44C> >44C> >44C> >44C> >44C> >44C> >44C> >44C> >44C> >44C> >44C> >44C> >44C> >44C> >44C> >44C> >44C> >44C> >44C> >44C> >44C> >44C> >44C> >44C> >44C> >44C> >44C> >44C> >44C> >44C> >44C> >44C> >44C> >44C> >44C> >44C> >44C> >44C> >44C> >44C> >44C> >44C> >44C> >44C> >44C> >44C> >44C> >44C> >44C> >44C> >44C> >44C> >44C> >44C> >44C> >44C> >44C> >44C> >44C> >44C> >44C> >44C> >44C> >44C> >44C> >44C> >44C> >44C> >44C> >44C> >44C> >44C> >44C> >44C> >44C> >44C> >44C> >44C> >44C> >44C> >44C> >44C> >44C> >44C> >44C> >44C> >44C> >44C> >44C> >44C> >44C> >44C> >44C> >44C> >44C> >44C> >44C> >44C> >44C> >44C> >44C> >44C> >44C> >44C> >44C> >44C> >44C> >44C> >44C> >44C> >44C> =44C> =44C> =44C> =44C> =44C> =44C> =44C> =44C> =44C> =44C> =44C> =44C> =44C> =44C> =44C> =44C> =44C> =44C> =44C> =44C> =44C> =44C> =44C> =44C> =44C> =44C> =44C> =44C> =44C> =44C> =44C> =44C> =44C> =44C> =44C> =44C> =44C> =44C> =44C> =44C> =44C> =44C> =44C> =44C> =44C> =44C> =44C> =44C> =44C> =44C> =44C> =44C> =44C> =44C> =44C> =44C> =44C> =44C> =44C> =44C> =44C> =44C> =44C> =44C> =44C> =44C> =44C> =44C> =44C> =44C> =44C> =44C> =44C> =44C> =44C> =44C> =44C> =44C> =44C> =44C> =44C> =44C> =44C> =44C> =44C> =44C> =44C> =44C> =44C> =44C> =44C> =44C> =44C> =44C> =44C> =44C> =44C> =44C> =44C> =44C> =44C> =44C> =C> =C> =C> =C> =C> =C> =C> =C> =C> =C> =C> =C> =C> =C> =C> =C> =C> =C> =C> =C> =C> =C> =C> =C> =C> =C> =C> =C> =C> =C> =C> =C> =C> =C> =C> =C> =C> =C> =C> =C> =C> =C> =C> =C> =C> =C> =C> =C> =C> =C> =C> =C> =C> =C> =C> =C> =C> =C> =C> =C> =C> =C> =C> =C> =C> =C> =C> =C> =C> =C> =C> =C> =C> =C> =C> =C> =C> =C> =C> =C> =C> =C> =C> =C> =C> =C> =C> =C> =C> =C> =C> =C> =C> =C> =C> =C> =C> =C> =C> =C> =C> =C> =C> =C> =C> =C> =C> =C> =C> =C> =C> =C> =C> =C> =C> =C> =C> =C> =C> =C> =C> =C> =C> =C> =C> =C> =C> =C> =C> =C> =C> =C> =C> =C> =C> =C> =C> =C> =C> =C> =C> =C> =C> =C> =C> =C> =C> =C> =C> =C> =C> =C> =C> =C> >66>E >66>E >66>E >66>E >66>E >66>E >66>E >66>E >66>E >66>E >66>E >66>E >66>E >66>E >66>E >66>E >66>E >66>E >66>E >66>E >66>E >66>E >66>E >66>E >66>E >66>E >66>E >66>E >66>E >66>E >66>E >66>E >66>E >66>E >66>E >66>E >66>E >66>E >66>E >66>E >66>E >66>E >66>E >66>E >66>E >66>E >66>E >66>E >66>E >66>E >66>E >66>E >66>E >66>E >66>E >66>E >66>E >66>E >66>E >66>E >66>E >66>E >66>E >66>E >66>E >66>E >66>E >66>E >66>E >66>E >66>E >66>E >66>E >66>E >66>E >66>E >66>E >66>E >66>E >66>E >66>E >66>E >66>E >66>E >66>E >66>E >66>E >66>E >66>E >66>E >66>E >66>E >66>E >66>E >66>E >66>E >66>E >66>E >66>E >66>E >66>E >66>E >66>E >66>E >66>E >66>E >66>E >66>E >66>E >66>E >66>E >66>E >66>E >66>E >66>E >66>E >66>E >66>E >66>E >66>E >66>E >66>E >66>E >66>E >66>E >66>E >66>E >66>E >66>E >66>E >66>E >66>E >66>E >66>E >66>E >66>E >66>E >66>E >66>E >66>E >66>E >66>E >66>E >66>E >66>E >66>E >66>E >66>E >66>E >66>E >66>E >66>E >66>E >66>E >66>E >66>E >66>E >66>E >66>E >66>E >66>E >66>E >66>E >66>E >66>E >66>E >66>E >66>E >66>E >66>E >66>E >66>E >66>E >66>E >66>E >66>E >66>E >66>E >66>E >66>E >66>E >66>E >66>E >66>E >66>E >66>E >66>E >66>E >66>E >66>E >66>E >66>E >66>E >66>E >66>E >66>E >66>E >66>E >66>E >66>E >66>E >66>E >66>E >66>E >66>E >66>E >66>E >66>E >66>E >66>E >66>E >66>E >66>E >66>E >66>E >66>E >66>E >66>E >66>E >66>E >66>E >66>E >66>E >66>E >66>E >66>E >66>E >66>E >66>E >66>E >66>E >66>E >66>E >66>E >66>E >66>E >66>E >66>E >66>E >66>E >66>E >66>E >66>E >66>E >66>E >66>E >66>E >66>E >66>E >66>E >66>E >66>E >66>E >66>E >66>E >66>E 966>E 966>E 966>E 966>E 966>E 966>E 966>E 966>E 966>E 966>E 966>E 966>E 966>E 966>E 966>E 966>E 966>E 966>E 966>E 966>E 966>E 966>E 966>E 966>E 966>E 966>E 966>E 966>E 966>E 966>E 966>E 966>E 966>E 966>E 966>E 966>E 966>E 966>E 966>E 966>E 966>E 966>E 966>E 966>E 966>E 966>E 966>E 966>E 966>E 966>E 966>E 966>E 966>E 966>E 966>E 966>E 966>E 966>E 966>E 966>E 966>E 966>E 966>E 966>E 966>E 966>E 966>E 966>E 966>E 966>E 966>E 966>E 966>E 966>E 966>E 966>E 966>E 966>E 966>E 966>E 966>E 966>E 966>E 966>E 966>E 966>E 966>E 966>E 966>E 966>E 966>E 966>E 966>E 966>E 966>E 966>E 966>E 966>E 966>E 966>E 966>E 966>E 9>E 9>E 9>E 9>E 9>E 9>E 9>E 9>E 9>E 9>E 9>E 9>E 9>E 9>E 9>E 9>E 9>E 9>E 9>E 9>E 9>E 9>E 9>E 9>E 9>E 9>E 9>E 9>E 9>E 9>E 9>E 9>E 9>E 9>E 9>E 9>E 9>E 9>E 9>E 9>E 9>E 9>E 9>E 9>E 9>E 9>E 9>E 9>E 9>E 9>E 9>E 9>E 9>E 9>E 9>E 9>E 9>E 9>E 9>E 9>E 9>E 9>E 9>E 9>E 9>E 9>E 9>E 9>E 9>E 9>E 9>E 9>E 9>E 9>E 9>E 9>E 9>E 9>E 9>E 9>E 9>E 9>E 9>E 9>E 9>E 9>E 9>E 9>E 9>E 9>E 9>E 9>E 9>E 9>E 9>E 9>E 9>E 9>E 9>E 9>E 9>E 9>E 9>E 9>E 9>E 9>E 9>E 9>E 9>E 9>E 9>E 9>E 9>E 9>E 9>E 9>E 9>E 9>E 9>E 9>E 9>E 9>E 9>E 9>E 9>E 9>E 9>E 9>E 9>E 9>E 9>E 9>E 9>E 9>E 9>E 9>E 9>E 9>E 9>E 9>E 9>E 9>E 9>E 9>E 9>E 9>E 9>E 9>E 9>E 9>E 9>E 9>E 9>E 9>E ;77>G ;77>G ;77>G ;77>G ;77>G ;77>G ;77>G ;77>G ;77>G ;77>G ;77>G ;77>G ;77>G ;77>G ;77>G ;77>G ;77>G ;77>G ;77>G ;77>G ;77>G ;77>G ;77>G ;77>G ;77>G ;77>G ;77>G ;77>G ;77>G ;77>G ;77>G ;77>G ;77>G ;77>G ;77>G ;77>G ;77>G ;77>G ;77>G ;77>G ;77>G ;77>G ;77>G ;77>G ;77>G ;77>G ;77>G ;77>G ;77>G ;77>G ;77>G ;77>G ;77>G ;77>G ;77>G ;77>G ;77>G ;77>G ;77>G ;77>G ;77>G ;77>G ;77>G ;77>G ;77>G ;77>G ;77>G ;77>G ;77>G ;77>G ;77>G ;77>G ;77>G ;77>G ;77>G ;77>G ;77>G ;77>G ;77>G ;77>G ;77>G ;77>G ;77>G ;77>G ;77>G ;77>G ;77>G ;77>G ;77>G ;77>G ;77>G ;77>G ;77>G ;77>G ;77>G ;77>G ;77>G ;77>G ;77>G ;77>G ;77>G ;77>G ;77>G ;77>G ;77>G ;77>G ;77>G ;77>G ;77>G ;77>G ;77>G ;77>G ;77>G ;77>G ;77>G ;77>G ;77>G ;77>G ;77>G ;77>G ;77>G ;77>G ;77>G ;77>G ;77>G ;77>G ;77>G ;77>G ;77>G ;77>G ;77>G ;77>G ;77>G ;77>G ;77>G ;77>G ;77>G ;77>G ;77>G ;77>G ;77>G ;77>G ;77>G ;77>G ;77>G ;77>G ;77>G ;77>G ;77>G ;77>G ;77>G ;77>G ;77>G ;77>G ;77>G ;77>G ;77>G ;77>G ;77>G ;77>G ;77>G ;77>G ;77>G ;77>G ;77>G ;77>G ;77>G ;77>G ;77>G ;77>G ;77>G ;77>G ;77>G ;77>G ;77>G ;77>G ;77>G ;77>G ;77>G ;77>G ;77>G ;77>G ;77>G ;77>G ;77>G ;77>G ;77>G ;77>G ;77>G ;77>G ;77>G ;77>G ;77>G ;77>G ;77>G ;77>G ;77>G ;77>G ;77>G ;77>G ;77>G ;77>G ;77>G ;77>G ;77>G ;77>G ;77>G ;77>G ;77>G ;77>G ;77>G ;77>G ;77>G ;77>G ;77>G ;77>G ;77>G ;77>G ;77>G ;77>G ;77>G ;77>G ;77>G ;77>G ;77>G ;77>G ;77>G ;77>G ;77>G ;77>G ;77>G ;77>G ;77>G ;77>G ;77>G ;77>G ;77>G ;77>G ;77>G ;77>G ;77>G ;77>G ;77>G ;77>G ;77>G ;77>G ;77>G ;77>G ;77>G ;77>G ;77>G ;77>G ;77>G ;77>G ;77>G ;77>G 777>G 777>G 777>G 777>G 777>G 777>G 777>G 777>G 777>G 777>G 777>G 777>G 777>G 777>G 777>G 777>G 777>G 777>G 777>G 777>G 777>G 777>G 777>G 777>G 777>G 777>G 777>G 777>G 777>G 777>G 777>G 777>G 777>G 777>G 777>G 777>G 777>G 777>G 777>G 777>G 777>G 777>G 777>G 777>G 777>G 777>G 777>G 777>G 777>G 777>G 777>G 777>G 777>G 777>G 777>G 777>G 777>G 777>G 777>G 777>G 777>G 777>G 777>G 777>G 777>G 777>G 777>G 777>G 777>G 777>G 777>G 777>G 777>G 777>G 777>G 777>G 777>G 777>G 777>G 777>G 777>G 777>G 777>G 777>G 777>G 777>G 777>G 777>G 777>G 777>G 777>G 777>G 777>G 777>G 777>G 777>G 777>G 777>G 777>G 777>G 777>G 777>G 7>G 7>G 7>G 7>G 7>G 7>G 7>G 7>G 7>G 7>G 7>G 7>G 7>G 7>G 7>G 7>G 7>G 7>G 7>G 7>G 7>G 7>G 7>G 7>G 7>G 7>G 7>G 7>G 7>G 7>G 7>G 7>G 7>G 7>G 7>G 7>G 7>G 7>G 7>G 7>G 7>G 7>G 7>G 7>G 7>G 7>G 7>G 7>G 7>G 7>G 7>G 7>G 7>G 7>G 7>G 7>G 7>G 7>G 7>G 7>G 7>G 7>G 7>G 7>G 7>G 7>G 7>G 7>G 7>G 7>G 7>G 7>G 7>G 7>G 7>G 7>G 7>G 7>G 7>G 7>G 7>G 7>G 7>G 7>G 7>G 7>G 7>G 7>G 7>G 7>G 7>G 7>G 7>G 7>G 7>G 7>G 7>G 7>G 7>G 7>G 7>G 7>G 7>G 7>G 7>G 7>G 7>G 7>G 7>G 7>G 7>G 7>G 7>G 7>G 7>G 7>G 7>G 7>G 7>G 7>G 7>G 7>G 7>G 7>G 7>G 7>G 7>G 7>G 7>G 7>G 7>G 7>G 7>G 7>G 7>G 7>G 7>G 7>G 7>G 7>G 7>G 7>G 7>G 7>G 7>G 7>G 7>G 7>G 7>G 7>G 7>G 7>G 7>G 7>G E699E>@ E699E>@ E699E>@ E699E>@ E699E>@ E699E>@ E699E>@ E699E>@ E699E>@ E699E>@ E699E>@ E699E>@ E699E>@ E699E>@ E699E>@ E699E>@ E699E>@ E699E>@ E699E>@ E699E>@ E699E>@ E699E>@ E699E>@ E699E>@ E699E>@ E699E>@ E699E>@ E699E>@ E699E>@ E699E>@ E699E>@ E699E>@ E699E>@ E699E>@ E699E>@ E699E>@ E699E>@ E699E>@ E699E>@ E699E>@ E699E>@ E699E>@ E699E>@ E699E>@ E699E>@ E699E>@ E699E>@ E699E>@ E699E>@ E699E>@ E699E>@ E699E>@ E699E>@ E699E>@ E699E>@ E699E>@ E699E>@ E699E>@ E699E>@ E699E>@ E699E>@ E699E>@ E699E>@ E699E>@ E699E>@ E699E>@ E699E>@ E699E>@ E699E>@ E699E>@ E699E>@ E699E>@ E699E>@ E699E>@ E699E>@ E699E>@ E699E>@ E699E>@ E699E>@ E699E>@ E699E>@ E699E>@ E699E>@ E699E>@ E699E>@ E699E>@ E699E>@ E699E>@ E699E>@ E699E>@ E699E>@ E699E>@ E699E>@ E699E>@ E699E>@ E699E>@ E699E>@ E699E>@ E699E>@ E699E>@ E699E>@ E699E>@ E699E>@ E699E>@ E699E>@ E699E>@ E699E>@ E699E>@ E699E>@ E699E>@ E699E>@ E699E>@ E699E>@ E699E>@ E699E>@ E699E>@ E699E>@ E699E>@ E699E>@ E699E>@ E699E>@ E699E>@ E699E>@ E699E>@ E699E>@ E699E>@ E699E>@ E699E>@ E699E>@ E699E>@ E699E>@ E699E>@ E699E>@ E699E>@ E699E>@ E699E>@ E699E>@ E699E>@ E699E>@ E699E>@ E699E>@ E699E>@ E699E>@ E699E>@ E699E>@ E699E>@ E699E>@ E699E>@ E699E>@ E699E>@ E699E>@ E699E>@ E699E>@ E699E>@ E699E>@ E699E>@ E699E>@ E699E>@ E699E>@ E699E>@ E699E>@ E699E>@ E699E>@ E699E>@ E699E>@ E699E>@ E699E>@ E699E>@ E699E>@ E699E>@ E699E>@ E699E>@ E699E>@ E699E>@ E699E>@ E699E>@ E699E>@ E699E>@ E699E>@ E699E>@ E699E>@ E699E>@ E699E>@ E699E>@ E699E>@ E699E>@ E699E>@ E699E>@ E699E>@ E699E>@ E699E>@ E699E>@ E699E>@ E699E>@ E699E>@ E699E>@ E699E>@ E699E>@ E699E>@ E699E>@ E699E>@ E699E>@ E699E>@ E699E>@ E699E>@ E699E>@ E699E>@ E699E>@ E699E>@ E699E>@ E699E>@ E699E>@ E699E>@ E699E>@ E699E>@ E699E>@ E699E>@ E699E>@ E699E>@ E699E>@ E699E>@ E699E>@ E699E>@ E699E>@ E699E>@ E699E>@ E699E>@ E699E>@ E699E>@ E699E>@ E699E>@ E699E>@ E699E>@ E699E>@ E699E>@ E699E>@ E699E>@ E699E>@ E699E>@ E699E>@ E699E>@ E699E>@ E699E>@ E699E>@ E699E>@ E699E>@ E699E>@ E699E>@ E699E>@ E699E>@ E699E>@ E699E>@ E699E>@ E699E>@ E699E>@ E699E>@ I499E>@ I499E>@ I499E>@ I499E>@ I499E>@ I499E>@ I499E>@ I499E>@ I499E>@ I499E>@ I499E>@ I499E>@ I499E>@ I499E>@ I499E>@ I499E>@ I499E>@ I499E>@ I499E>@ I499E>@ I499E>@ I499E>@ I499E>@ I499E>@ I499E>@ I499E>@ I499E>@ I499E>@ I499E>@ I499E>@ I499E>@ I499E>@ I499E>@ I499E>@ I499E>@ I499E>@ I499E>@ I499E>@ I499E>@ I499E>@ I499E>@ I499E>@ I499E>@ I499E>@ I499E>@ I499E>@ I499E>@ I499E>@ I499E>@ I499E>@ I499E>@ I499E>@ I499E>@ I499E>@ I499E>@ I499E>@ I499E>@ I499E>@ I499E>@ I499E>@ I499E>@ I499E>@ I499E>@ I499E>@ I499E>@ I499E>@ I499E>@ I499E>@ I499E>@ I499E>@ I499E>@ I499E>@ I499E>@ I499E>@ I499E>@ I499E>@ I499E>@ I499E>@ I499E>@ I499E>@ I499E>@ I499E>@ I499E>@ I499E>@ I499E>@ I499E>@ I499E>@ I499E>@ I499E>@ I499E>@ I499E>@ I499E>@ I499E>@ I499E>@ I499E>@ I499E>@ I499E>@ I499E>@ I499E>@ I499E>@ I499E>@ I499E>@ I4E>@ I4E>@ I4E>@ I4E>@ I4E>@ I4E>@ I4E>@ I4E>@ I4E>@ I4E>@ I4E>@ I4E>@ I4E>@ I4E>@ I4E>@ I4E>@ I4E>@ I4E>@ I4E>@ I4E>@ I4E>@ I4E>@ I4E>@ I4E>@ I4E>@ I4E>@ I4E>@ I4E>@ I4E>@ I4E>@ I4E>@ I4E>@ I4E>@ I4E>@ I4E>@ I4E>@ I4E>@ I4E>@ I4E>@ I4E>@ I4E>@ I4E>@ I4E>@ I4E>@ I4E>@ I4E>@ I4E>@ I4E>@ I4E>@ I4E>@ I4E>@ I4E>@ I4E>@ I4E>@ I4E>@ I4E>@ I4E>@ I4E>@ I4E>@ I4E>@ I4E>@ I4E>@ I4E>@ I4E>@ I4E>@ I4E>@ I4E>@ I4E>@ I4E>@ I4E>@ I4E>@ I4E>@ I4E>@ I4E>@ I4E>@ I4E>@ I4E>@ I4E>@ I4E>@ I4E>@ I4E>@ I4E>@ I4E>@ I4E>@ I4E>@ I4E>@ I4E>@ I4E>@ I4E>@ I4E>@ I4E>@ I4E>@ I4E>@ I4E>@ I4E>@ I4E>@ I4E>@ I4E>@ I4E>@ I4E>@ I4E>@ I4E>@ I4E>@ I4E>@ I4E>@ I4E>@ I4E>@ I4E>@ I4E>@ I4E>@ I4E>@ I4E>@ I4E>@ I4E>@ I4E>@ I4E>@ I4E>@ I4E>@ I4E>@ I4E>@ I4E>@ I4E>@ I4E>@ I4E>@ I4E>@ I4E>@ I4E>@ I4E>@ I4E>@ I4E>@ I4E>@ I4E>@ I4E>@ I4E>@ I4E>@ I4E>@ I4E>@ I4E>@ I4E>@ I4E>@ I4E>@ I4E>@ I4E>@ I4E>@ I4E>@ I4E>@ I4E>@ I4E>@ I4E>@ I4E>@ I4E>@ I4E>@ I4E>@ I4E>@ L>--@EI L>--@EI L>--@EI L>--@EI L>--@EI L>--@EI L>--@EI L>--@EI L>--@EI L>--@EI L>--@EI L>--@EI L>--@EI L>--@EI L>--@EI L>--@EI L>--@EI L>--@EI L>--@EI L>--@EI L>--@EI L>--@EI L>--@EI L>--@EI L>--@EI L>--@EI L>--@EI L>--@EI L>--@EI L>--@EI L>--@EI L>--@EI L>--@EI L>--@EI L>--@EI L>--@EI L>--@EI L>--@EI L>--@EI L>--@EI L>--@EI L>--@EI L>--@EI L>--@EI L>--@EI L>--@EI L>--@EI L>--@EI L>--@EI L>--@EI L>--@EI L>--@EI L>--@EI L>--@EI L>--@EI L>--@EI L>--@EI L>--@EI L>--@EI L>--@EI L>--@EI L>--@EI L>--@EI L>--@EI L>--@EI L>--@EI L>--@EI L>--@EI L>--@EI L>--@EI L>--@EI L>--@EI L>--@EI L>--@EI L>--@EI L>--@EI L>--@EI L>--@EI L>--@EI L>--@EI L>--@EI L>--@EI L>--@EI L>--@EI L>--@EI L>--@EI L>--@EI L>--@EI L>--@EI L>--@EI L>--@EI L>--@EI L>--@EI L>--@EI L>--@EI L>--@EI L>--@EI L>--@EI L>--@EI L>--@EI L>--@EI L>--@EI L>--@EI L>--@EI L>--@EI L>--@EI L>--@EI L>--@EI L>--@EI L>--@EI L>--@EI L>--@EI L>--@EI L>--@EI L>--@EI L>--@EI L>--@EI L>--@EI L>--@EI L>--@EI L>--@EI L>--@EI L>--@EI L>--@EI L>--@EI L>--@EI L>--@EI L>--@EI L>--@EI L>--@EI L>--@EI L>--@EI L>--@EI L>--@EI L>--@EI L>--@EI L>--@EI L>--@EI L>--@EI L>--@EI L>--@EI L>--@EI L>--@EI L>--@EI L>--@EI L>--@EI L>--@EI L>--@EI L>--@EI L>--@EI L>--@EI L>--@EI L>--@EI L>--@EI L>--@EI L>--@EI L>--@EI L>--@EI L>--@EI L>--@EI L>--@EI L>--@EI L>--@EI L>--@EI L>--@EI L>--@EI L>--@EI L>--@EI L>--@EI L>--@EI L>--@EI L>--@EI L>--@EI L>--@EI L>--@EI L>--@EI L>--@EI L>--@EI L>--@EI L>--@EI L>--@EI L>--@EI L>--@EI L>--@EI L>--@EI L>--@EI L>--@EI L>--@EI L>--@EI L>--@EI L>--@EI L>--@EI L>--@EI L>--@EI L>--@EI L>--@EI L>--@EI L>--@EI L>--@EI L>--@EI L>--@EI L>--@EI L>--@EI L>--@EI L>--@EI L>--@EI L>--@EI L>--@EI L>--@EI L>--@EI L>--@EI L>--@EI L>--@EI L>--@EI L>--@EI L>--@EI L>--@EI L>--@EI L>--@EI L>--@EI L>--@EI L>--@EI L>--@EI L>--@EI L>--@EI L>--@EI L>--@EI L>--@EI L>--@EI L>--@EI L>--@EI L>--@EI L>--@EI L>--@EI L>--@EI L>--@EI L>--@EI L>--@EI L>--@EI L>--@EI L>--@EI L>--@EI L>--@EI L>--@EI L>--@EI L>--@EI L>--@EI L>--@EI L>--@EI L>--@EI L>--@EI L>--@EI L>--@EI L>--@EI L>--@EI L>--@EI O=--@EI O=--@EI O=--@EI O=--@EI O=--@EI O=--@EI O=--@EI O=--@EI O=--@EI O=--@EI O=--@EI O=--@EI O=--@EI O=--@EI O=--@EI O=--@EI O=--@EI O=--@EI O=--@EI O=--@EI O=--@EI O=--@EI O=--@EI O=--@EI O=--@EI O=--@EI O=--@EI O=--@EI O=--@EI O=--@EI O=--@EI O=--@EI O=--@EI O=--@EI O=--@EI O=--@EI O=--@EI O=--@EI O=--@EI O=--@EI O=--@EI O=--@EI O=--@EI O=--@EI O=--@EI O=--@EI O=--@EI O=--@EI O=--@EI O=--@EI O=--@EI O=--@EI O=--@EI O=--@EI O=--@EI O=--@EI O=--@EI O=--@EI O=--@EI O=--@EI O=--@EI O=--@EI O=--@EI O=--@EI O=--@EI O=--@EI O=--@EI O=--@EI O=--@EI O=--@EI O=--@EI O=--@EI O=--@EI O=--@EI O=--@EI O=--@EI O=--@EI O=--@EI O=--@EI O=--@EI O=--@EI O=--@EI O=--@EI O=--@EI O=--@EI O=--@EI O=--@EI O=--@EI O=--@EI O=--@EI O=--@EI O=--@EI O=--@EI O=--@EI O=--@EI O=--@EI O=--@EI O=--@EI O=--@EI O=--@EI O=--@EI O=--@EI O=@EI O=@EI O=@EI O=@EI O=@EI O=@EI O=@EI O=@EI O=@EI O=@EI O=@EI O=@EI O=@EI O=@EI O=@EI O=@EI O=@EI O=@EI O=@EI O=@EI O=@EI O=@EI O=@EI O=@EI O=@EI O=@EI O=@EI O=@EI O=@EI O=@EI O=@EI O=@EI O=@EI O=@EI O=@EI O=@EI O=@EI O=@EI O=@EI O=@EI O=@EI O=@EI O=@EI O=@EI O=@EI O=@EI O=@EI O=@EI O=@EI O=@EI O=@EI O=@EI O=@EI O=@EI O=@EI O=@EI O=@EI O=@EI O=@EI O=@EI O=@EI O=@EI O=@EI O=@EI O=@EI O=@EI O=@EI O=@EI O=@EI O=@EI O=@EI O=@EI O=@EI O=@EI O=@EI O=@EI O=@EI O=@EI O=@EI O=@EI O=@EI O=@EI O=@EI O=@EI O=@EI O=@EI O=@EI O=@EI O=@EI O=@EI O=@EI O=@EI O=@EI O=@EI O=@EI O=@EI O=@EI O=@EI O=@EI O=@EI O=@EI O=@EI O=@EI O=@EI O=@EI O=@EI O=@EI O=@EI O=@EI O=@EI O=@EI O=@EI O=@EI O=@EI O=@EI O=@EI O=@EI O=@EI O=@EI O=@EI O=@EI O=@EI O=@EI O=@EI O=@EI O=@EI O=@EI O=@EI O=@EI O=@EI O=@EI O=@EI O=@EI O=@EI O=@EI O=@EI O=@EI O=@EI O=@EI O=@EI O=@EI O=@EI O=@EI O=@EI O=@EI O=@EI O=@EI O=@EI O=@EI O=@EI O=@EI O=@EI O=@EI O=@EI N>22BEJ N>22BEJ N>22BEJ N>22BEJ N>22BEJ N>22BEJ N>22BEJ N>22BEJ N>22BEJ N>22BEJ N>22BEJ N>22BEJ N>22BEJ N>22BEJ N>22BEJ N>22BEJ N>22BEJ N>22BEJ N>22BEJ N>22BEJ N>22BEJ N>22BEJ N>22BEJ N>22BEJ N>22BEJ N>22BEJ N>22BEJ N>22BEJ N>22BEJ N>22BEJ N>22BEJ N>22BEJ N>22BEJ N>22BEJ N>22BEJ N>22BEJ N>22BEJ N>22BEJ N>22BEJ N>22BEJ N>22BEJ N>22BEJ N>22BEJ N>22BEJ N>22BEJ N>22BEJ N>22BEJ N>22BEJ N>22BEJ N>22BEJ N>22BEJ N>22BEJ N>22BEJ N>22BEJ N>22BEJ N>22BEJ N>22BEJ N>22BEJ N>22BEJ N>22BEJ N>22BEJ N>22BEJ N>22BEJ N>22BEJ N>22BEJ N>22BEJ N>22BEJ N>22BEJ N>22BEJ N>22BEJ N>22BEJ N>22BEJ N>22BEJ N>22BEJ N>22BEJ N>22BEJ N>22BEJ N>22BEJ N>22BEJ N>22BEJ N>22BEJ N>22BEJ N>22BEJ N>22BEJ N>22BEJ N>22BEJ N>22BEJ N>22BEJ N>22BEJ N>22BEJ N>22BEJ N>22BEJ N>22BEJ N>22BEJ N>22BEJ N>22BEJ N>22BEJ N>22BEJ N>22BEJ N>22BEJ N>22BEJ N>22BEJ N>22BEJ N>22BEJ N>22BEJ N>22BEJ N>22BEJ N>22BEJ N>22BEJ N>22BEJ N>22BEJ N>22BEJ N>22BEJ N>22BEJ N>22BEJ N>22BEJ N>22BEJ N>22BEJ N>22BEJ N>22BEJ N>22BEJ N>22BEJ N>22BEJ N>22BEJ N>22BEJ N>22BEJ N>22BEJ N>22BEJ N>22BEJ N>22BEJ N>22BEJ N>22BEJ N>22BEJ N>22BEJ N>22BEJ N>22BEJ N>22BEJ N>22BEJ N>22BEJ N>22BEJ N>22BEJ N>22BEJ N>22BEJ N>22BEJ N>22BEJ N>22BEJ N>22BEJ N>22BEJ N>22BEJ N>22BEJ N>22BEJ N>22BEJ N>22BEJ N>22BEJ N>22BEJ N>22BEJ N>22BEJ N>22BEJ N>22BEJ N>22BEJ N>22BEJ N>22BEJ N>22BEJ N>22BEJ N>22BEJ N>22BEJ N>22BEJ N>22BEJ N>22BEJ N>22BEJ N>22BEJ L>22BEJ L>22BEJ L>22BEJ L>22BEJ L>22BEJ L>22BEJ L>22BEJ L>22BEJ L>22BEJ L>22BEJ L>22BEJ L>22BEJ L>22BEJ L>22BEJ L>22BEJ L>22BEJ L>22BEJ L>22BEJ L>22BEJ L>22BEJ L>22BEJ L>22BEJ L>22BEJ L>22BEJ L>22BEJ L>22BEJ L>22BEJ L>22BEJ L>22BEJ L>22BEJ L>22BEJ L>22BEJ L>22BEJ L>22BEJ L>22BEJ L>22BEJ L>22BEJ L>22BEJ L>22BEJ L>22BEJ L>22BEJ L>22BEJ L>22BEJ L>22BEJ L>22BEJ L>22BEJ L>22BEJ L>22BEJ L>22BEJ L>22BEJ L>22BEJ L>22BEJ L>22BEJ L>22BEJ L>22BEJ L>22BEJ L>22BEJ L>22BEJ L>22BEJ L>22BEJ L>22BEJ L>22BEJ L>22BEJ L>22BEJ L>22BEJ L>22BEJ L>22BEJ L>22BEJ L>22BEJ L>22BEJ L>22BEJ L>22BEJ L>22BEJ L>22BEJ L>22BEJ L>22BEJ L>22BEJ L>22BEJ L>22BEJ L>22BEJ L>22BEJ L>22BEJ L>22BEJ L>22BEJ L>22BEJ L>22BEJ L>22BEJ L>22BEJ L>22BEJ L>22BEJ L>22BEJ L>22BEJ L>22BEJ L>22BEJ L>22BEJ L>22BEJ L>22BEJ L>22BEJ L>22BEJ L>22BEJ L>22BEJ L>22BEJ L>22BEJ L>22BEJ L>22BEJ L>22BEJ L>22BEJ L>22BEJ L>22BEJ L>22BEJ L>22BEJ L>22BEJ L>22BEJ L>22BEJ L>22BEJ L>22BEJ L>22BEJ L>22BEJ L>22BEJ L>22BEJ L>22BEJ L>22BEJ L>22BEJ L>22BEJ L>22BEJ L>22BEJ L>22BEJ L>22BEJ L>22BEJ L>22BEJ L>22BEJ L>22BEJ L>22BEJ L>22BEJ L>22BEJ L>22BEJ L>22BEJ L>22BEJ L>22BEJ L>22BEJ L>22BEJ L>22BEJ L>22BEJ L>22BEJ L>22BEJ L>22BEJ L>22BEJ L>22BEJ L>22BEJ L>22BEJ L>22BEJ L>22BEJ L>22BEJ L>22BEJ L>22BEJ L>22BEJ L>22BEJ L>22BEJ L>22BEJ L>22BEJ L>22BEJ L>22BEJ L>22BEJ L>22BEJ L>22BEJ L>22BEJ L>22BEJ L>22BEJ L>22BEJ L>22BEJ J>22BEJ J>22BEJ J>22BEJ J>22BEJ J>22BEJ J>22BEJ J>22BEJ J>22BEJ J>22BEJ J>22BEJ J>22BEJ J>22BEJ J>22BEJ J>22BEJ J>22BEJ J>22BEJ J>22BEJ J>BEJ J>BEJ J>BEJ J>BEJ J>BEJ J>BEJ J>BEJ J>BEJ J>BEJ J>BEJ J>BEJ J>BEJ J>BEJ J>BEJ J>BEJ J>BEJ J>BEJ J>BEJ J>BEJ J>BEJ J>BEJ J>BEJ J>BEJ J>BEJ J>BEJ J>BEJ J>BEJ J>BEJ J>BEJ J>BEJ J>BEJ J>BEJ J>BEJ J>BEJ J>BEJ J>BEJ J>BEJ J>BEJ J>BEJ J>BEJ J>BEJ J>BEJ J>BEJ J>BEJ J>BEJ J>BEJ J>BEJ J>BEJ J>BEJ J>BEJ J>BEJ J>BEJ J>BEJ J>BEJ J>BEJ J>BEJ J>BEJ J>BEJ J>BEJ J>BEJ J>BEJ J>BEJ J>BEJ J>BEJ J>BEJ J>BEJ J>BEJ J>BEJ J>BEJ J>BEJ J>BEJ J>BEJ J>BEJ J>BEJ J>BEJ J>BEJ J>BEJ J>BEJ J>BEJ J>BEJ J>BEJ J>BEJ J>BEJ J>BEJ J>BEJ J>BEJ J>BEJ J>BEJ J>BEJ J>BEJ J>BEJ J>BEJ J>BEJ J>BEJ J>BEJ J>BEJ J>BEJ J>BEJ J>BEJ J>BEJ J>BEJ J>BEJ J>BEJ J>BEJ J>BEJ J>BEJ J>BEJ J>BEJ J>BEJ J>BEJ J>BEJ J>BEJ J>BEJ J>BEJ J>BEJ J>BEJ J>BEJ J>BEJ J>BEJ J>BEJ J>BEJ J>BEJ J>BEJ J>BEJ J>BEJ J>BEJ J>BEJ J>BEJ J>BEJ J>BEJ J>BEJ J>BEJ J>BEJ J>BEJ J>BEJ J>BEJ J>BEJ J>BEJ J>BEJ J>BEJ J>BEJ J>BEJ J>BEJ J>BEJ J>BEJ J>BEJ J>BEJ J>BEJ J>BEJ J>BEJ J>BEJ J>BEJ J>BEJ J>BEJ E>>>BE E>>>BE E>>>BE E>>>BE E>>>BE E>>>BE E>>>BE E>>>BE E>>>BE E>>>BE E>>>BE E>>>BE E>>>BE E>>>BE E>>>BE E>>>BE E>>>BE E>>>BE E>>>BE E>>>BE E>>>BE E>>>BE E>>>BE E>>>BE E>>>BE E>>>BE E>>>BE E>>>BE E>>>BE E>>>BE E>>>BE E>>>BE E>>>BE E>>>BE E>>>BE E>>>BE E>>>BE E>>>BE E>>>BE E>>>BE E>>>BE E>>>BE E>>>BE E>>>BE E>>>BE E>>>BE E>>>BE E>>>BE E>>>BE E>>>BE E>>>BE E>>>BE E>>>BE E>>>BE E>>>BE E>>>BE E>>>BE E>>>BE E>>>BE E>>>BE E>>>BE E>>>BE E>>>BE E>>>BE E>>>BE E>>>BE E>>>BE E>>>BE E>>>BE E>>>BE E>>>BE E>>>BE E>>>BE E>>>BE E>>>BE E>>>BE E>>>BE E>>>BE E>>>BE E>>>BE E>>>BE E>>>BE E>>>BE E>>>BE E>>>BE E>>>BE E>>>BE E>>>BE E>>>BE E>>>BE E>>>BE E>>>BE E>>>BE E>>>BE E>>>BE E>>>BE E>>>BE E>>>BE E>>>BE E>>>BE E>>>BE E>>>BE E>>>BE E>>>BE E>>>BE E>>>BE E>>>BE E>>>BE E>>>BE E>>>BE E>>>BE E>>>BE E>>>BE E>>>BE E>>>BE E>>>BE E>>>BE E>>>BE E>>>BE E>>>BE E>>>BE E>>>BE E>>>BE E>>>BE E>>>BE E>>>BE E>>>BE E>>>BE E>>>BE E>>>BE E>>>BE E>>>BE E>>>BE E>>>BE E>>>BE E>>>BE E>>>BE E>>>BE E>>>BE E>>>BE E>>>BE E>>>BE E>>>BE E>>>BE E>>>BE E>>>BE E>>>BE E>>>BE E>>>BE E>>>BE E>>>BE E>>>BE E>>>BE E>>>BE E>>>BE E>>>BE E>>>BE E>>>BE E>>>BE E>>>BE E>>>BE E>>>BE E>>>BE E>>>BE E>>>BE E>>>BE E>>>BE E>>>BE E>>>BE E>>>BE E>>>BE J>>>BE J>>>BE J>>>BE J>>>BE J>>>BE J>>>BE J>>>BE J>>>BE J>>>BE J>>>BE J>>>BE J>>>BE J>>>BE J>>>BE J>>>BE J>>>BE J>>>BE J>>>BE J>>>BE J>>>BE J>>>BE J>>>BE J>>>BE J>>>BE J>>>BE J>>>BE J>>>BE J>>>BE J>>>BE J>>>BE J>>>BE J>>>BE J>>>BE J>>>BE J>>>BE J>>>BE J>>>BE J>>>BE J>>>BE J>>>BE J>>>BE J>>>BE J>>>BE J>>>BE J>>>BE J>>>BE J>>>BE J>>>BE J>>>BE J>>>BE J>>>BE J>>>BE J>>>BE J>>>BE J>>>BE J>>>BE J>>>BE J>>>BE J>>>BE J>>>BE J>>>BE J>>>BE J>>>BE J>>>BE J>>>BE J>>>BE J>>>BE J>>>BE J>>>BE J>>>BE J>>>BE J>>>BE J>>>BE J>>>BE J>>>BE J>>>BE J>>>BE J>>>BE J>>>BE J>>>BE J>>>BE J>>>BE J>>>BE J>>>BE J>>>BE J>>>BE J>>>BE J>>>BE J>>>BE J>>>BE J>>>BE J>>>BE J>>>BE J>>>BE J>>>BE J>>>BE J>>>BE J>>>BE J>>>BE J>>>BE J>>>BE J>>>BE J>>>BE J>>>BE J>>>BE J>>>BE J>>>BE J>>>BE J>>>BE J>>>BE J>>>BE J>>>BE J>>>BE J>>>BE J>>>BE J>>>BE J>>>BE J>>>BE J>>>BE J>>>BE J>>>BE J>>>BE J>>>BE J>>>BE J>>>BE J>>>BE J>>>BE J>>>BE J>>>BE J>>>BE J>>>BE J>>>BE J>>>BE J>>>BE J>>>BE J>>>BE J>>>BE J>>>BE J>>>BE J>>>BE J>>>BE J>>>BE J>>>BE J>>>BE J>>>BE J>>>BE J>>>BE J>>>BE J>>>BE J>>>BE J>>>BE J>>>BE J>>>BE J>>>BE J>>>BE J>>>BE J>>>BE J>>>BE J>>>BE J>>>BE J>>>BE J>>>BE J>>>BE J>>>BE J>>>BE J>>>BE J>>>BE J>>>BE J>>>BE J>>>BE L>>>BE L>>>BE L>>>BE L>>>BE L>>>BE L>>>BE L>>>BE L>>>BE L>>>BE L>>>BE L>>>BE L>>>BE L>>>BE L>>>BE L>>>BE L>>>BE L>>>BE L>>>BE L>>>BE L>>>BE L>>>BE L>>>BE L>>>BE L>>>BE L>>>BE L>>>BE L>>>BE L>>>BE L>>>BE L>>>BE L>>>BE L>>>BE L>>>BE L>>>BE L>>>BE L>>>BE L>>>BE L>>>BE L>>>BE L>>>BE L>>>BE L>>>BE L>>>BE L>>>BE L>>>BE L>>>BE L>>>BE L>>>BE L>>>BE L>>>BE L>>>BE L>>>BE L>>>BE L>>>BE L>>>BE L>>>BE L>>>BE L>>>BE L>>>BE L>>>BE L>>>BE L>>>BE L>>>BE L>>>BE L>>>BE L>>>BE L>>>BE L>>>BE L>>>BE L>>>BE L>>>BE L>>>BE L>>>BE L>>>BE L>>>BE L>>>BE L>>>BE L>>>BE L>>>BE L>>>BE L>>>BE L>>>BE L>>>BE L>>>BE L>>>BE L>>>BE L>>>BE L>>>BE L>>>BE L>>>BE L>>>BE L>>>BE L>>>BE L>>>BE L>>>BE L>>>BE L>>>BE L>>>BE L>>>BE L>>>BE L>>>BE L>>>BE L>>>BE L>>>BE L>>>BE L>>>BE L>>>BE L>>>BE L>>>BE L>>>BE L>>>BE L>>>BE L>>>BE L>>>BE L>>>BE L>>>BE L>>>BE L>>>BE L>>>BE L>>>BE L>>>BE L>>>BE L>>>BE L>>>BE L>>>BE L>>>BE L>>>BE L>>>BE L>>>BE L>>>BE L>>>BE L>>>BE L>>>BE L>>>BE L>>>BE L>>>BE L>>>BE L>>>BE L>>>BE L>>>BE L>>>BE L>>>BE L>>>BE L>>>BE L>>>BE L>>>BE L>>>BE L>>>BE L>>>BE L>>>BE L>>>BE L>>>BE L>>>BE L>>>BE L>>>BE L>>>BE L>>>BE L>>>BE L>>>BE L>>>BE L>>>BE L>>>BE L>>>BE L>>>BE L>>>BE L>>>BE L>>>BE L>>>BE L>>>BE L>>>BE L>>>BE N>>BE N>>BE N>>BE N>>BE N>>BE N>>BE N>>BE N>>BE N>>BE N>>BE N>>BE N>>BE N>>BE N>>BE N>>BE N>>BE N>>BE N>>BE N>>BE N>>BE N>>BE N>>BE N>>BE N>>BE N>>BE N>>BE N>>BE N>>BE N>>BE N>>BE N>>BE N>>BE N>>BE N>>BE N>>BE N>>BE N>>BE N>>BE N>>BE N>>BE N>>BE N>>BE N>>BE N>>BE N>>BE N>>BE N>>BE N>>BE N>>BE N>>BE N>>BE N>>BE N>>BE N>>BE N>>BE N>>BE N>>BE N>>BE N>>BE N>>BE N>>BE N>>BE N>>BE N>>BE N>>BE N>>BE N>>BE N>>BE N>>BE N>>BE N>>BE N>>BE N>>BE N>>BE N>>BE N>>BE N>>BE N>>BE N>>BE N>>BE N>>BE N>>BE N>>BE N>>BE N>>BE N>>BE N>>BE N>>BE N>>BE N>>BE N>>BE N>>BE N>>BE N>>BE N>>BE N>>BE N>>BE N>>BE N>>BE N>>BE N>>BE N>>BE N>>BE N>>BE N>>BE N>>BE N>>BE N>>BE N>>BE N>>BE N>>BE N>>BE N>>BE N>>BE N>>BE N>>BE N>>BE N>>BE N>>BE N>>BE N>>BE N>>BE N>>BE N>>BE N>>BE N>>BE N>>BE N>>BE N>>BE N>>BE N>>BE N>>BE N>>BE N>>BE N>>BE N>>BE N>>BE N>>BE N>>BE N>>BE N>>BE N>>BE N>>BE N>>BE N>>BE N>>BE N>>BE N>>BE N>>BE N>>BE N>>BE N>>BE N>>BE N>>BE N>>BE N>>BE N>>BE N>>BE N>>BE N>>BE N>>BE N>>BE N>>BE N>>BE N>>BE N>>BE N>>BE N>>BE N>>BE N>>BE N>>BE L>>BE L>>BE L>>BE L>>BE L>>BE L>>BE L>>BE L>>BE L>>BE L>>BE L>>BE L>>BE L>>BE L>>BE L>>BE L>>BE L>>BE L>>BE L>>BE L>>BE L>>BE L>>BE L>>BE L>>BE L>>BE L>>BE L>>BE L>>BE L>>BE L>>BE L>>BE L>>BE L>>BE L>>BE L>>BE L>>BE L>>BE L>>BE L>>BE L>>BE L>>BE L>>BE L>>BE L>>BE L>>BE L>>BE L>>BE L>>BE L>>BE L>>BE L>>BE L>>BE L>>BE L>>BE L>>BE L>>BE L>>BE L>>BE L>>BE L>>BE L>>BE L>>BE L>>BE L>>BE L>>BE L>>BE L>>BE L>>BE L>>BE L>>BE L>>BE L>>BE L>>BE L>>BE L>>BE L>>BE L>>BE L>>BE L>>BE L>>BE L>>BE L>>BE L>>BE L>>BE L>>BE L>>BE L>>BE L>>BE L>>BE L>>BE L>>BE L>>BE L>>BE L>>BE L>>BE L>>BE L>>BE L>>BE L>>BE L>>BE L>>BE L>>BE L>>BE L>>BE L>>BE L>>BE L>>BE L>>BE L>>BE L>>BE L>>BE L>>BE L>>BE L>>BE L>>BE L>>BE L>>BE L>>BE L>>BE L>>BE L>>BE L>>BE L>>BE L>>BE L>>BE L>>BE L>>BE L>>BE L>>BE L>>BE L>>BE L>>BE L>>BE L>>BE L>>BE L>>BE L>>BE L>>BE L>>BE L>>BE L>>BE L>>BE L>>BE L>>BE L>>BE L>>BE L>>BE L>>BE L>>BE L>>BE L>>BE L>>BE L>>BE L>>BE L>>BE L>>BE L>>BE L>>BE L>>BE L>>BE L>>BE L>>BE L>>BE L>>BE L>>BE L>>BE L>>BE L>>BE L>>BE L>>BE J>>BE J>>BE J>>BE J>>BE J>>BE J>>BE J>>BE J>>BE J>>BE J>>BE J>>BE J>>BE J>>BE J>>BE J>>BE J>>BE J>>BE J>>BE J>>BE J>>BE J>>BE J>>BE J>>BE J>>BE J>>BE J>>BE J>>BE J>>BE J>>BE J>>BE J>>BE J>>BE J>>BE J>>BE J>>BE J>>BE J>>BE J>>BE J>>BE J>>BE J>>BE J>>BE J>>BE J>>BE J>>BE J>>BE J>>BE J>>BE J>>BE J>>BE J>>BE J>>BE J>>BE J>>BE J>>BE J>>BE J>>BE J>>BE J>>BE J>>BE J>>BE J>>BE J>>BE J>>BE J>>BE J>>BE J>>BE J>>BE J>>BE JBE JBE JBE JBE JBE JBE JBE JBE JBE JBE JBE JBE JBE JBE JBE JBE JBE JBE JBE JBE JBE JBE JBE JBE JBE JBE JBE JBE JBE JBE JBE JBE JBE JBE JBE JBE JBE JBE JBE JBE JBE JBE JBE JBE JBE JBE JBE JBE JBE JBE JBE JBE JBE JBE JBE JBE JBE JBE JBE JBE JBE JBE JBE JBE JBE JBE JBE JBE JBE JBE JBE JBE JBE JBE JBE JBE JBE JBE JBE JBE JBE JBE JBE JBE JBE JBE JBE JBE JBE JBE JBE JBE JBE JBE JBE JBE JBE JBE JBE JBE JBE JBE L=@C= L=@C= L=@C= L=@C= L=@C= L=@C= L=@C= L=@C= L=@C= L=@C= L=@C= L=@C= L=@C= L=@C= L=@C= L=@C= L=@C= L=@C= L=@C= L=@C= L=@C= L=@C= L=@C= L=@C= L=@C= L=@C= L=@C= L=@C= L=@C= L=@C= L=@C= L=@C= L=@C= L=@C= L=@C= L=@C= L=@C= L=@C= L=@C= L=@C= L=@C= L=@C= L=@C= L=@C= L=@C= L=@C= L=@C= L=@C= L=@C= L=@C= L=@C= L=@C= L=@C= L=@C= L=@C= L=@C= L=@C= L=@C= L=@C= L=@C= L=@C= L=@C= L=@C= L=@C= L=@C= L=@C= L=@C= L=@C= L=@C= L=@C= L=@C= L=@C= L=@C= L=@C= L=@C= L=@C= L=@C= L=@C= L=@C= L=@C= L=@C= L=@C= L=@C= L=@C= L=@C= L=@C= L=@C= L=@C= L=@C= L=@C= L=@C= L=@C= L=@C= L=@C= L=@C= L=@C= L=@C= L=@C= L=@C= L=@C= L=@C= L=@C= L=@C= L=@C= L=@C= L=@C= L=@C= L=@C= L=@C= L=@C= L=@C= L=@C= L=@C= L=@C= L=@C= L=@C= L=@C= L=@C= L=@C= L=@C= L=@C= L=@C= L=@C= L=@C= L=@C= L=@C= L=@C= L=@C= L=@C= L=@C= L=@C= L=@C= L=@C= L=@C= L=@C= L=@C= L=@C= L=@C= L=@C= L=@C= L=@C= L=@C= L=@C= L=@C= L=@C= L=@C= L=@C= L=@C= L=@C= L=@C= L=@C= L=@C= L=@C= L=@C= L=@C= L=@C= L=@C= L=@C= L=@C= L=@C= L=@C= L=@C= L=@C= L=@C= L=@C= L=@C= L=@C= L=@C= L=@C= L=@C= L=@C= N=@C= N=@C= N=@C= N=@C= N=@C= N=@C= N=@C= N=@C= N=@C= N=@C= N=@C= N=@C= N=@C= N=@C= N=@C= N=@C= N=@C= N=@C= N=@C= N=@C= N=@C= N=@C= N=@C= N=@C= N=@C= N=@C= N=@C= N=@C= N=@C= N=@C= N=@C= N=@C= N=@C= N=@C= N=@C= N=@C= N=@C= N=@C= N=@C= N=@C= N=@C= N=@C= N=@C= N=@C= N=@C= N=@C= N=@C= N=@C= N=@C= N=@C= N=@C= N=@C= N=@C= N=@C= N=@C= N=@C= N=@C= N=@C= N=@C= N=@C= N=@C= N=@C= N=@C= N=@C= N=@C= N=@C= N=@C= N=@C= N=@C= N=@C= N=@C= N=@C= N=@C= N=@C= N=@C= N=@C= N=@C= N=@C= N=@C= N=@C= N=@C= N=@C= N=@C= N=@C= N=@C= N=@C= N=@C= N=@C= N=@C= N=@C= N=@C= N=@C= N=@C= N=@C= N=@C= N=@C= N=@C= N=@C= N=@C= N=@C= N=@C= N=@C= N=@C= N=@C= N=@C= N=@C= N=@C= N=@C= N=@C= N=@C= N=@C= N=@C= N=@C= N=@C= N=@C= N=@C= N=@C= N=@C= N=@C= N=@C= N=@C= N=@C= N=@C= N=@C= N=@C= N=@C= N=@C= N=@C= N=@C= N=@C= N=@C= N=@C= N=@C= N=@C= N=@C= N=@C= N=@C= N=@C= N=@C= N=@C= N=@C= N=@C= N=@C= N=@C= N=@C= N=@C= N=@C= N=@C= N=@C= N=@C= N=@C= N=@C= N=@C= N=@C= N=@C= N=@C= N=@C= N=@C= N=@C= N=@C= N=@C= N=@C= N=@C= N=@C= N=@C= N=@C= N=@C= N=@C= N=@C= N=@C= O=@C= O=@C= O=@C= O=@C= O=@C= O=@C= O=@C= O=@C= O=@C= O=@C= O=@C= O=@C= O=@C= O=@C= O=@C= O=@C= O=@C= O=@C= O=@C= O=@C= O=@C= O=@C= O=@C= O=@C= O=@C= O=@C= O=@C= O=@C= O=@C= O=@C= O=@C= O=@C= O=@C= O=@C= O=@C= O=@C= O=@C= O=@C= O=@C= O=@C= O=@C= O=@C= O=@C= O=@C= O=@C= O=@C= O=@C= O=@C= O=@C= O=@C= O=@C= O=@C= O=@C= O=@C= O=@C= O=@C= O=@C= O=@C= O=@C= O=@C= O=@C= O=@C= O=@C= O=@C= O=@C= O=@C= O=@C= O=@C= O=@C= O=@C= O=@C= O=@C= O=@C= O=@C= O=@C= O=@C= O=@C= O=@C= O=@C= O=@C= O=@C= O=@C= O=@C= O=@C= O=@C= O=@C= O=@C= O=@C= O=@C= O=@C= O=@C= O=@C= O=@C= O=@C= O=@C= O=@C= O=@C= O=@C= O=@C= O=@C= O=@C= O=@C= O=@C= O=@C= O=@C= O=@C= O=@C= O=@C= O=@C= O=@C= O=@C= O=@C= O=@C= O=@C= O=@C= O=@C= O=@C= O=@C= O=@C= O=@C= O=@C= O=@C= O=@C= O=@C= O=@C= O=@C= O=@C= O=@C= O=@C= O=@C= O=@C= O=@C= O=@C= O=@C= O=@C= O=@C= O=@C= O=@C= O=@C= O=@C= O=@C= O=@C= O=@C= O=@C= O=@C= O=@C= O=@C= O=@C= O=@C= O=@C= O=@C= O=@C= O=@C= O=@C= O=@C= O=@C= O=@C= O=@C= O=@C= O=@C= O=@C= O=@C= O=@C= O=@C= O=@C= O=@C= O=@C= O=@C= O=@C= O=@C= O=@C= Q=B= Q=B= Q=B= Q=B= Q=B= Q=B= Q=B= Q=B= Q=B= Q=B= Q=B= Q=B= Q=B= Q=B= Q=B= Q=B= Q=B= Q=B= Q=B= Q=B= Q=B= Q=B= Q=B= Q=B= Q=B= Q=B= Q=B= Q=B= Q=B= Q=B= Q=B= Q=B= Q=B= Q=B= Q=B= Q=B= Q=B= Q=B= Q=B= Q=B= Q=B= Q=B= Q=B= Q=B= Q=B= Q=B= Q=B= Q=B= Q=B= Q=B= Q=B= Q=B= Q=B= Q=B= Q=B= Q=B= Q=B= Q=B= Q=B= Q=B= Q=B= Q=B= Q=B= Q=B= Q=B= Q=B= Q=B= Q=B= Q=B= Q=B= Q=B= Q=B= Q=B= Q=B= Q=B= Q=B= Q=B= Q=B= Q=B= Q=B= Q=B= Q=B= Q=B= Q=B= Q=B= Q=B= Q=B= Q=B= Q=B= Q=B= Q=B= Q=B= Q=B= Q=B= Q=B= Q=B= Q=B= Q=B= Q=B= Q=B= Q=B= Q=B= Q=B= Q=B= Q=B= Q=B= Q=B= Q=B= Q=B= Q=B= Q=B= Q=B= Q=B= Q=B= Q=B= Q=B= Q=B= Q=B= Q=B= Q=B= Q=B= Q=B= Q=B= Q=B= Q=B= Q=B= Q=B= Q=B= Q=B= Q=B= Q=B= Q=B= Q=B= Q=B= Q=B= Q=B= Q=B= Q=B= Q=B= Q=B= Q=B= Q=B= Q=B= Q=B= Q=B= Q=B= Q=B= Q=B= Q=B= Q=B= Q=B= Q=B= Q=B= Q=B= Q=B= Q=B= Q=B= Q=B= Q=B= Q=B= Q=B= Q=B= Q=B= Q=B= Q=B= Q=B= Q=B= Q=B= Q=B= Q=B= Q=B= O=C= O=C= O=C= O=C= O=C= O=C= O=C= O=C= O=C= O=C= O=C= O=C= O=C= O=C= O=C= O=C= O=C= O=C= O=C= O=C= O=C= O=C= O=C= O=C= O=C= O=C= O=C= O=C= O=C= O=C= O=C= O=C= O=C= O=C= O=C= O=C= O=C= O=C= O=C= O=C= O=C= O=C= O=C= O=C= O=C= O=C= O=C= O=C= O=C= O=C= O=C= O=C= O=C= O=C= O=C= O=C= O=C= O=C= O=C= O=C= O=C= O=C= O=C= O=C= O=C= O=C= O=C= O=C= O=C= O=C= O=C= O=C= O=C= O=C= O=C= O=C= O=C= O=C= O=C= O=C= O=C= O=C= O=C= O=C= O=C= O=C= O=C= O=C= O=C= O=C= O=C= O=C= O=C= O=C= O=C= O=C= O=C= O=C= O=C= O=C= O=C= O=C= O=C= O=C= O=C= O=C= O=C= O=C= O=C= O=C= O=C= O=C= O=C= O=C= O=C= O=C= O=C= O=C= O=C= O=C= O=C= O=C= O=C= O=C= O=C= O=C= O=C= O=C= O=C= O=C= O=C= O=C= O=C= O=C= O=C= O=C= O=C= O=C= O=C= O=C= O=C= O=C= O=C= O=C= O=C= O=C= O=C= O=C= O=C= O=C= O=C= O=C= O=C= O=C= O=C= O=C= O=C= O=C= O=C= O=C= O=C= O=C= O=C= O=C= O=C= O=C= O=C= O=C= O=C= O=C= N==E N==E N==E N==E N==E N==E N==E N==E N==E N==E N==E N==E N==E N==E N==E N==E N==E N==E N==E N==E N==E N==E N==E N==E N==E N==E N==E N==E N==E N==E N==E N==E N==E N==E N==E N==E N==E N==E N==E N==E N==E N==E N==E N==E N==E N==E N==E N==E N==E N==E N==E N==E N==E N==E N==E N==E N==E N==E N==E N==E N==E N==E N==E N==E N==E N==E N==E N==E N==E NE NE NE NE NE NE NE NE NE NE NE NE NE NE NE NE NE NE NE NE NE NE NE NE NE NE NE NE NE NE NE NE NE NE NE NE NE NE NE NE NE NE NE NE NE NE NE NE NE NE NE NE NE NE NE NE NE NE NE NE NE NE NE NE NE NE NE NE NE NE NE NE NE NE NE NE NE NE NE NE NE NE NE NE NE NE NE NE NE NE NE NE NE NE NE NE NE NE NE NE NE NE O;;>C O;;>C O;;>C O;;>C O;;>C O;;>C O;;>C O;;>C O;;>C O;;>C O;;>C O;;>C O;;>C O;;>C O;;>C O;;>C O;;>C O;;>C O;;>C O;;>C O;;>C O;;>C O;;>C O;;>C O;;>C O;;>C O;;>C O;;>C O;;>C O;;>C O;;>C O;;>C O;;>C O;;>C O;;>C O;;>C O;;>C O;;>C O;;>C O;;>C O;;>C O;;>C O;;>C O;;>C O;;>C O;;>C O;;>C O;;>C O;;>C O;;>C O;;>C O;;>C O;;>C O;;>C O;;>C O;;>C O;;>C O;;>C O;;>C O;;>C O;;>C O;;>C O;;>C O;;>C O;;>C O;;>C O;;>C O;;>C O;;>C O;;>C O;;>C O;;>C O;;>C O;;>C O;;>C O;;>C O;;>C O;;>C O;;>C O;;>C O;;>C O;;>C O;;>C O;;>C O;;>C O;;>C O;;>C O;;>C O;;>C O;;>C O;;>C O;;>C O;;>C O;;>C O;;>C O;;>C O;;>C O;;>C O;;>C O;;>C O;;>C O;;>C O;;>C O;;>C O;;>C O;;>C O;;>C O;;>C O;;>C O;;>C O;;>C O;;>C O;;>C O;;>C O;;>C O;;>C O;;>C O;;>C O;;>C O;;>C O;;>C O;;>C O;;>C O;;>C O;;>C O;;>C O;;>C O;;>C O;;>C O;;>C O;;>C O;;>C O;;>C O;;>C O;;>C O;;>C O;;>C O;;>C O;;>C O;;>C O;;>C O;;>C O;;>C O;;>C O;;>C O;;>C O;;>C O;;>C O;;>C O;;>C O;;>C O;;>C O;;>C O;;>C O;;>C O;;>C O;;>C O;;>C O;;>C O;;>C O;;>C O;;>C O;;>C O;;>C O;;>C O;;>C O;;>C O;;>C O;;>C O;;>C O;;>C Q;;>C Q;;>C Q;;>C Q;;>C Q;;>C Q;;>C Q;;>C Q;;>C Q;;>C Q;;>C Q;;>C Q;;>C Q;;>C Q;;>C Q;;>C Q;;>C Q;;>C Q;;>C Q;;>C Q;;>C Q;;>C Q;;>C Q;;>C Q;;>C Q;;>C Q;;>C Q;;>C Q;;>C Q;;>C Q;;>C Q;;>C Q;;>C Q;;>C Q;;>C Q;;>C Q;;>C Q;;>C Q;;>C Q;;>C Q;;>C Q;;>C Q;;>C Q;;>C Q;;>C Q;;>C Q;;>C Q;;>C Q;;>C Q;;>C Q;;>C Q;;>C Q;;>C Q;;>C Q;;>C Q;;>C Q;;>C Q;;>C Q;;>C Q;;>C Q;;>C Q;;>C Q;;>C Q;;>C Q;;>C Q;;>C Q;;>C Q;;>C Q;;>C Q;;>C Q;;>C Q;;>C Q;;>C Q;;>C Q;;>C Q;;>C Q;;>C Q;;>C Q;;>C Q;;>C Q;;>C Q;;>C Q;;>C Q;;>C Q;;>C Q;;>C Q;;>C Q;;>C Q;;>C Q;;>C Q;;>C Q;;>C Q;;>C Q;;>C Q;;>C Q;;>C Q;;>C Q;;>C Q;;>C Q;;>C Q;;>C Q;;>C Q;;>C Q;;>C Q;;>C Q;;>C Q;;>C Q;;>C Q;;>C Q;;>C Q;;>C Q;;>C Q;;>C Q;;>C Q;;>C Q;;>C Q;;>C Q;;>C Q;;>C Q;;>C Q;;>C Q;;>C Q;;>C Q;;>C Q;;>C Q;;>C Q;;>C Q;;>C Q;;>C Q;;>C Q;;>C Q;;>C Q;;>C Q;;>C Q;;>C Q;;>C Q;;>C Q;;>C Q;;>C Q;;>C Q;;>C Q;;>C Q;;>C Q;;>C Q;;>C Q;;>C Q;;>C Q;;>C Q;;>C Q;;>C Q;;>C Q;;>C Q;;>C Q;;>C Q;;>C Q;;>C Q;;>C Q;;>C Q;;>C Q;;>C Q;;>C Q;;>C Q;;>C Q;;>C Q;;>C Q;;>C Q;;>C Q;;>C Q;;>C Q;;>C Q;;>C S;;>C S;;>C S;;>C S;;>C S;;>C S;;>C S;;>C S;;>C S;;>C S;;>C S;;>C S;;>C S;;>C S;;>C S;;>C S;;>C S;;>C S>C S>C S>C S>C S>C S>C S>C S>C S>C S>C S>C S>C S>C S>C S>C S>C S>C S>C S>C S>C S>C S>C S>C S>C S>C S>C S>C S>C S>C S>C S>C S>C S>C S>C S>C S>C S>C S>C S>C S>C S>C S>C S>C S>C S>C S>C S>C S>C S>C S>C S>C S>C S>C S>C S>C S>C S>C S>C S>C S>C S>C S>C S>C S>C S>C S>C S>C S>C S>C S>C S>C S>C S>C S>C S>C S>C S>C S>C S>C S>C S>C S>C S>C S>C S>C S>C S>C S>C S>C S>C S>C S>C S>C S>C S>C S>C S>C S>C S>C S>C S>C S>C S>C S>C S>C S>C S>C S>C S>C S>C S>C S>C S>C S>C S>C S>C S>C S>C S>C S>C S>C S>C S>C S>C S>C S>C S>C S>C S>C S>C S>C S>C S>C S>C S>C S>C S>C >C >C >C >C >C >C >C >C >C >C >C >C >C >C >C >C >C L11@CI L11@CI L11@CI L11@CI L11@CI L11@CI L11@CI L11@CI L11@CI L11@CI L11@CI L11@CI L11@CI L11@CI L11@CI L11@CI L11@CI L11@CI L11@CI L11@CI L11@CI L11@CI L11@CI L11@CI L11@CI L11@CI L11@CI L11@CI L11@CI L11@CI L11@CI L11@CI L11@CI L11@CI L11@CI L11@CI L11@CI L11@CI L11@CI L11@CI L11@CI L11@CI L11@CI L11@CI L11@CI L11@CI L11@CI L11@CI L11@CI L11@CI L11@CI L11@CI L11@CI L11@CI L11@CI L11@CI L11@CI L11@CI L11@CI L11@CI L11@CI L11@CI L11@CI L11@CI L11@CI L11@CI L11@CI L11@CI L11@CI L11@CI L11@CI L11@CI L11@CI L11@CI L11@CI L11@CI L11@CI L11@CI L11@CI L11@CI L11@CI L11@CI L11@CI L11@CI L11@CI L11@CI L11@CI L11@CI L11@CI L11@CI L11@CI L11@CI L11@CI L11@CI L11@CI L11@CI L11@CI L11@CI L11@CI L11@CI L11@CI L11@CI L11@CI L11@CI L11@CI L11@CI L11@CI L11@CI L11@CI L11@CI L11@CI L11@CI L11@CI L11@CI L11@CI L11@CI L11@CI L11@CI L11@CI L11@CI L11@CI L11@CI L11@CI L11@CI L11@CI L11@CI L11@CI L11@CI L11@CI L11@CI L11@CI L11@CI L11@CI L11@CI L11@CI L11@CI L11@CI L11@CI L11@CI L11@CI L11@CI L11@CI L11@CI L11@CI L11@CI L11@CI L11@CI L11@CI L11@CI L11@CI L11@CI L11@CI L11@CI L11@CI L11@CI L11@CI L11@CI L11@CI L11@CI L11@CI L11@CI L11@CI L11@CI L11@CI L11@CI L11@CI L11@CI L11@CI L11@CI L11@CI L11@CI J11@CI J11@CI J11@CI J11@CI J11@CI J11@CI J11@CI J11@CI J11@CI J11@CI J11@CI J11@CI J11@CI J11@CI J11@CI J11@CI J11@CI J11@CI J11@CI J11@CI J11@CI J11@CI J11@CI J11@CI J11@CI J11@CI J11@CI J11@CI J11@CI J11@CI J11@CI J11@CI J11@CI J11@CI J11@CI J11@CI J11@CI J11@CI J11@CI J11@CI J11@CI J11@CI J11@CI J11@CI J11@CI J11@CI J11@CI J11@CI J11@CI J11@CI J11@CI J11@CI J11@CI J11@CI J11@CI J11@CI J11@CI J11@CI J11@CI J11@CI J11@CI J11@CI J11@CI J11@CI J11@CI J11@CI J11@CI J11@CI J11@CI J11@CI J11@CI J11@CI J11@CI J11@CI J11@CI J11@CI J11@CI J11@CI J11@CI J11@CI J11@CI J11@CI J11@CI J11@CI J11@CI J11@CI J11@CI J11@CI J11@CI J11@CI J11@CI J11@CI J11@CI J11@CI J11@CI J11@CI J11@CI J11@CI J11@CI J11@CI J11@CI J11@CI J11@CI J11@CI J11@CI J11@CI J11@CI J11@CI J11@CI J11@CI J11@CI J11@CI J11@CI J11@CI J11@CI J11@CI J11@CI J11@CI J11@CI J11@CI J11@CI J11@CI J11@CI J11@CI J11@CI J11@CI J11@CI J11@CI J11@CI J11@CI J11@CI J11@CI J11@CI J11@CI J11@CI J11@CI J11@CI J11@CI J11@CI J11@CI J11@CI J11@CI J11@CI J11@CI J11@CI J11@CI J11@CI J11@CI J11@CI J11@CI J11@CI J11@CI J11@CI J11@CI J11@CI J11@CI J11@CI J11@CI J11@CI J11@CI J11@CI J11@CI J11@CI J11@CI J11@CI J11@CI J11@CI J11@CI J11@CI J11@CI I11@CI I11@CI I11@CI I11@CI I11@CI I11@CI I11@CI I11@CI I11@CI I11@CI I11@CI I11@CI I11@CI I11@CI I11@CI I11@CI I11@CI I@CI I@CI I@CI I@CI I@CI I@CI I@CI I@CI I@CI I@CI I@CI I@CI I@CI I@CI I@CI I@CI I@CI I@CI I@CI I@CI I@CI I@CI I@CI I@CI I@CI I@CI I@CI I@CI I@CI I@CI I@CI I@CI I@CI I@CI I@CI I@CI I@CI I@CI I@CI I@CI I@CI I@CI I@CI I@CI I@CI I@CI I@CI I@CI I@CI I@CI I@CI I@CI I@CI I@CI I@CI I@CI I@CI I@CI I@CI I@CI I@CI I@CI I@CI I@CI I@CI I@CI I@CI I@CI I@CI I@CI I@CI I@CI I@CI I@CI I@CI I@CI I@CI I@CI I@CI I@CI I@CI I@CI I@CI I@CI I@CI I@CI I@CI I@CI I@CI I@CI I@CI I@CI I@CI I@CI I@CI I@CI I@CI I@CI I@CI I@CI I@CI I@CI I@CI I@CI I@CI I@CI I@CI I@CI I@CI I@CI I@CI I@CI I@CI I@CI I@CI I@CI I@CI I@CI I@CI I@CI I@CI I@CI I@CI I@CI I@CI I@CI I@CI I@CI I@CI I@CI I@CI I@CI I@CI I@CI I@CI I@CI I@CI I@CI I@CI I@CI I@CI I@CI I@CI I@CI I@CI I@CI I@CI I@CI I@CI I@CI I@CI I@CI I@CI I@CI E==@C E==@C E==@C E==@C E==@C E==@C E==@C E==@C E==@C E==@C E==@C E==@C E==@C E==@C E==@C E==@C E==@C E==@C E==@C E==@C E==@C E==@C E==@C E==@C E==@C E==@C E==@C E==@C E==@C E==@C E==@C E==@C E==@C E==@C E==@C E==@C E==@C E==@C E==@C E==@C E==@C E==@C E==@C E==@C E==@C E==@C E==@C E==@C E==@C E==@C E==@C E==@C E==@C E==@C E==@C E==@C E==@C E==@C E==@C E==@C E==@C E==@C E==@C E==@C E==@C E==@C E==@C E==@C E==@C E==@C E==@C E==@C E==@C E==@C E==@C E==@C E==@C E==@C E==@C E==@C E==@C E==@C E==@C E==@C E==@C E==@C E==@C E==@C E==@C E==@C E==@C E==@C E==@C E==@C E==@C E==@C E==@C E==@C E==@C E==@C E==@C E==@C E==@C E==@C E==@C E==@C E==@C E==@C E==@C E==@C E==@C E==@C E==@C E==@C E==@C E==@C E==@C E==@C E==@C E==@C E==@C E==@C E==@C E==@C E==@C E==@C E==@C E==@C E==@C E==@C E==@C E==@C E==@C E==@C E==@C E==@C E==@C E==@C E==@C E==@C E==@C E==@C E==@C E==@C E==@C E==@C E==@C E==@C E==@C E==@C E==@C E==@C E==@C E==@C E==@C E==@C E==@C E==@C E==@C E==@C E==@C E==@C E==@C E==@C E==@C E==@C E==@C E==@C E==@C E==@C E==@C I==@C I==@C I==@C I==@C I==@C I==@C I==@C I==@C I==@C I==@C I==@C I==@C I==@C I==@C I==@C I==@C I==@C I==@C I==@C I==@C I==@C I==@C I==@C I==@C I==@C I==@C I==@C I==@C I==@C I==@C I==@C I==@C I==@C I==@C I==@C I==@C I==@C I==@C I==@C I==@C I==@C I==@C I==@C I==@C I==@C I==@C I==@C I==@C I==@C I==@C I==@C I==@C I==@C I==@C I==@C I==@C I==@C I==@C I==@C I==@C I==@C I==@C I==@C I==@C I==@C I==@C I==@C I==@C I==@C I==@C I==@C I==@C I==@C I==@C I==@C I==@C I==@C I==@C I==@C I==@C I==@C I==@C I==@C I==@C I==@C I==@C I==@C I==@C I==@C I==@C I==@C I==@C I==@C I==@C I==@C I==@C I==@C I==@C I==@C I==@C I==@C I==@C I==@C I==@C I==@C I==@C I==@C I==@C I==@C I==@C I==@C I==@C I==@C I==@C I==@C I==@C I==@C I==@C I==@C I==@C I==@C I==@C I==@C I==@C I==@C I==@C I==@C I==@C I==@C I==@C I==@C I==@C I==@C I==@C I==@C I==@C I==@C I==@C I==@C I==@C I==@C I==@C I==@C I==@C I==@C I==@C I==@C I==@C I==@C I==@C I==@C I==@C I==@C I==@C I==@C I==@C I==@C I==@C I==@C I==@C I==@C I==@C I==@C I==@C I==@C I==@C I==@C I==@C I==@C I==@C J==@C J==@C J==@C J==@C J==@C J==@C J==@C J==@C J==@C J==@C J==@C J==@C J==@C J==@C J==@C J==@C J==@C J==@C J==@C J==@C J==@C J==@C J==@C J==@C J==@C J==@C J==@C J==@C J==@C J==@C J==@C J==@C J==@C J==@C J==@C J==@C J==@C J==@C J==@C J==@C J==@C J==@C J==@C J==@C J==@C J==@C J==@C J==@C J==@C J==@C J==@C J==@C J==@C J==@C J==@C J==@C J==@C J==@C J==@C J==@C J==@C J==@C J==@C J==@C J==@C J==@C J==@C J==@C J==@C J==@C J==@C J==@C J==@C J==@C J==@C J==@C J==@C J==@C J==@C J==@C J==@C J==@C J==@C J==@C J==@C J==@C J==@C J==@C J==@C J==@C J==@C J==@C J==@C J==@C J==@C J==@C J==@C J==@C J==@C J==@C J==@C J==@C J==@C J==@C J==@C J==@C J==@C J==@C J==@C J==@C J==@C J==@C J==@C J==@C J==@C J==@C J==@C J==@C J==@C J==@C J==@C J==@C J==@C J==@C J==@C J==@C J==@C J==@C J==@C J==@C J==@C J==@C J==@C J==@C J==@C J==@C J==@C J==@C J==@C J==@C J==@C J==@C J==@C J==@C J==@C J==@C J==@C J==@C J==@C J==@C J==@C J==@C J==@C J==@C J==@C J==@C J==@C J==@C J==@C J==@C J==@C J==@C J==@C J==@C J==@C J==@C J==@C J==@C J==@C J==@C J==@C L==@C L==@C L==@C L==@C L==@C L==@C L==@C L==@C L==@C L==@C L==@C L==@C L==@C L==@C L==@C L==@C L==@C L==@C L==@C L==@C L==@C L==@C L==@C L==@C L==@C L==@C L==@C L==@C L==@C L==@C L==@C L==@C L==@C L==@C L==@C L==@C L==@C L==@C L==@C L==@C L==@C L==@C L==@C L==@C L==@C L==@C L==@C L==@C L==@C L==@C L==@C L==@C L==@C L==@C L==@C L==@C L==@C L==@C L==@C L==@C L==@C L==@C L==@C L==@C L==@C L==@C L==@C L==@C L==@C L==@C L==@C L==@C L==@C L==@C L==@C L==@C L==@C L==@C L==@C L==@C L==@C L==@C L==@C L==@C L==@C L==@C L==@C L==@C L==@C L==@C L==@C L==@C L==@C L==@C L==@C L==@C L==@C L==@C L==@C L==@C L==@C L==@C L==@C L==@C L==@C L==@C L==@C L==@C L==@C L==@C L==@C L==@C L==@C L==@C L==@C L==@C L==@C L==@C L==@C L==@C L==@C L==@C L==@C L==@C L==@C L==@C L==@C L==@C L==@C L==@C L==@C L==@C L==@C L==@C L==@C L==@C L==@C L==@C L==@C L==@C L==@C L==@C L==@C L==@C L==@C L==@C L==@C L==@C L==@C L==@C L==@C L==@C L==@C L==@C L==@C L==@C L==@C L==@C L==@C L==@C L==@C L==@C L==@C L==@C L==@C L==@C L==@C L==@C L==@C L==@C L==@C J==@C J==@C J==@C J==@C J==@C J==@C J==@C J==@C J==@C J==@C J==@C J==@C J==@C J==@C J==@C J==@C J==@C J==@C J==@C J==@C J==@C J==@C J==@C J==@C J==@C J==@C J==@C J==@C J==@C J==@C J==@C J==@C J==@C J==@C J==@C J==@C J==@C J==@C J==@C J==@C J==@C J==@C J==@C J==@C J==@C J==@C J==@C J==@C J==@C J==@C J==@C J==@C J==@C J==@C J==@C J==@C J==@C J==@C J==@C J==@C J==@C J==@C J==@C J==@C J==@C J==@C J==@C J==@C J==@C J==@C J==@C J==@C J==@C J==@C J==@C J==@C J==@C J==@C J==@C J==@C J==@C J==@C J==@C J==@C J==@C J==@C J==@C J==@C J==@C J==@C J==@C J==@C J==@C J==@C J==@C J==@C J==@C J==@C J==@C J==@C J==@C J==@C J==@C J==@C J==@C J==@C J==@C J==@C J==@C J==@C J==@C J==@C J==@C J==@C J==@C J==@C J==@C J==@C J==@C J==@C J==@C J==@C J==@C J==@C J==@C J==@C J==@C J==@C J==@C J==@C J==@C J==@C J==@C J==@C J==@C J==@C J==@C J==@C J==@C J==@C J==@C J==@C J==@C J==@C J==@C J==@C J==@C J==@C J==@C J==@C J==@C J==@C J==@C J==@C J==@C J==@C J==@C J==@C J==@C J==@C J==@C J==@C J==@C J==@C J==@C J==@C J==@C J==@C J==@C J==@C I==@C I==@C I==@C I==@C I==@C I==@C I==@C I==@C I==@C I==@C I==@C I==@C I==@C I==@C I==@C I==@C I==@C I==@C I==@C I==@C I==@C I==@C I==@C I==@C I==@C I==@C I==@C I==@C I==@C I==@C I==@C I==@C I==@C I==@C I==@C I==@C I==@C I==@C I==@C I==@C I==@C I==@C I==@C I==@C I==@C I==@C I==@C I==@C I==@C I==@C I==@C I==@C I==@C I==@C I==@C I==@C I==@C I==@C I==@C I==@C I==@C I==@C I==@C I==@C I==@C I==@C I==@C I==@C I==@C I@C I@C I@C I@C I@C I@C I@C I@C I@C I@C I@C I@C I@C I@C I@C I@C I@C I@C I@C I@C I@C I@C I@C I@C I@C I@C I@C I@C I@C I@C I@C I@C I@C I@C I@C I@C I@C I@C I@C I@C I@C I@C I@C I@C I@C I@C I@C I@C I@C I@C I@C I@C I@C I@C I@C I@C I@C I@C I@C I@C I@C I@C I@C I@C I@C I@C I@C I@C I@C I@C I@C I@C I@C I@C I@C I@C I@C I@C I@C I@C I@C I@C I@C I@C I@C I@C I@C I@C I@C I@C I@C I@C I@C I@C I@C I@C I@C I@C I@C I@C I@C I@C J;>B; J;>B; J;>B; J;>B; J;>B; J;>B; J;>B; J;>B; J;>B; J;>B; J;>B; J;>B; J;>B; J;>B; J;>B; J;>B; J;>B; J;>B; J;>B; J;>B; J;>B; J;>B; J;>B; J;>B; J;>B; J;>B; J;>B; J;>B; J;>B; J;>B; J;>B; J;>B; J;>B; J;>B; J;>B; J;>B; J;>B; J;>B; J;>B; J;>B; J;>B; J;>B; J;>B; J;>B; J;>B; J;>B; J;>B; J;>B; J;>B; J;>B; J;>B; J;>B; J;>B; J;>B; J;>B; J;>B; J;>B; J;>B; J;>B; J;>B; J;>B; J;>B; J;>B; J;>B; J;>B; J;>B; J;>B; J;>B; J;>B; J;>B; J;>B; J;>B; J;>B; J;>B; J;>B; J;>B; J;>B; J;>B; J;>B; J;>B; J;>B; J;>B; J;>B; J;>B; J;>B; J;>B; J;>B; J;>B; J;>B; J;>B; J;>B; J;>B; J;>B; J;>B; J;>B; J;>B; J;>B; J;>B; J;>B; J;>B; J;>B; J;>B; J;>B; J;>B; J;>B; J;>B; J;>B; J;>B; J;>B; J;>B; J;>B; J;>B; J;>B; J;>B; J;>B; J;>B; J;>B; J;>B; J;>B; J;>B; J;>B; J;>B; J;>B; J;>B; J;>B; J;>B; J;>B; J;>B; J;>B; J;>B; J;>B; J;>B; J;>B; J;>B; J;>B; J;>B; J;>B; J;>B; J;>B; J;>B; J;>B; J;>B; J;>B; J;>B; J;>B; J;>B; J;>B; J;>B; J;>B; J;>B; J;>B; J;>B; J;>B; J;>B; J;>B; J;>B; J;>B; J;>B; J;>B; J;>B; J;>B; J;>B; J;>B; J;>B; J;>B; J;>B; J;>B; J;>B; J;>B; J;>B; J;>B; L;>B; L;>B; L;>B; L;>B; L;>B; L;>B; L;>B; L;>B; L;>B; L;>B; L;>B; L;>B; L;>B; L;>B; L;>B; L;>B; L;>B; L;>B; L;>B; L;>B; L;>B; L;>B; L;>B; L;>B; L;>B; L;>B; L;>B; L;>B; L;>B; L;>B; L;>B; L;>B; L;>B; L;>B; L;>B; L;>B; L;>B; L;>B; L;>B; L;>B; L;>B; L;>B; L;>B; L;>B; L;>B; L;>B; L;>B; L;>B; L;>B; L;>B; L;>B; L;>B; L;>B; L;>B; L;>B; L;>B; L;>B; L;>B; L;>B; L;>B; L;>B; L;>B; L;>B; L;>B; L;>B; L;>B; L;>B; L;>B; L;>B; L;>B; L;>B; L;>B; L;>B; L;>B; L;>B; L;>B; L;>B; L;>B; L;>B; L;>B; L;>B; L;>B; L;>B; L;>B; L;>B; L;>B; L;>B; L;>B; L;>B; L;>B; L;>B; L;>B; L;>B; L;>B; L;>B; L;>B; L;>B; L;>B; L;>B; L;>B; L;>B; L;>B; L;>B; L;>B; L;>B; L;>B; L;>B; L;>B; L;>B; L;>B; L;>B; L;>B; L;>B; L;>B; L;>B; L;>B; L;>B; L;>B; L;>B; L;>B; L;>B; L;>B; L;>B; L;>B; L;>B; L;>B; L;>B; L;>B; L;>B; L;>B; L;>B; L;>B; L;>B; L;>B; L;>B; L;>B; L;>B; L;>B; L;>B; L;>B; L;>B; L;>B; L;>B; L;>B; L;>B; L;>B; L;>B; L;>B; L;>B; L;>B; L;>B; L;>B; L;>B; L;>B; L;>B; L;>B; L;>B; L;>B; L;>B; L;>B; L;>B; L;>B; L;>B; L;>B; L;>B; L;>B; L;>B; L;>B; L;>B; L;>B; N;>B; N;>B; N;>B; N;>B; N;>B; N;>B; N;>B; N;>B; N;>B; N;>B; N;>B; N;>B; N;>B; N;>B; N;>B; N;>B; N;>B; N;>B; N;>B; N;>B; N;>B; N;>B; N;>B; N;>B; N;>B; N;>B; N;>B; N;>B; N;>B; N;>B; N;>B; N;>B; N;>B; N;>B; N;>B; N;>B; N;>B; N;>B; N;>B; N;>B; N;>B; N;>B; N;>B; N;>B; N;>B; N;>B; N;>B; N;>B; N;>B; N;>B; N;>B; N;>B; N;>B; N;>B; N;>B; N;>B; N;>B; N;>B; N;>B; N;>B; N;>B; N;>B; N;>B; N;>B; N;>B; N;>B; N;>B; N;>B; N;>B; N;>B; N;>B; N;>B; N;>B; N;>B; N;>B; N;>B; N;>B; N;>B; N;>B; N;>B; N;>B; N;>B; N;>B; N;>B; N;>B; N;>B; N;>B; N;>B; N;>B; N;>B; N;>B; N;>B; N;>B; N;>B; N;>B; N;>B; N;>B; N;>B; N;>B; N;>B; N;>B; N;>B; N;>B; N;>B; N;>B; N;>B; N;>B; N;>B; N;>B; N;>B; N;>B; N;>B; N;>B; N;>B; N;>B; N;>B; N;>B; N;>B; N;>B; N;>B; N;>B; N;>B; N;>B; N;>B; N;>B; N;>B; N;>B; N;>B; N;>B; N;>B; N;>B; N;>B; N;>B; N;>B; N;>B; N;>B; N;>B; N;>B; N;>B; N;>B; N;>B; N;>B; N;>B; N;>B; N;>B; N;>B; N;>B; N;>B; N;>B; N;>B; N;>B; N;>B; N;>B; N;>B; N;>B; N;>B; N;>B; N;>B; N;>B; N;>B; N;>B; N;>B; N;>B; N;>B; N;>B; N;>B; N;>B; N;>B; N;>B; N;>B; N;>B; O;@; O;@; O;@; O;@; O;@; O;@; O;@; O;@; O;@; O;@; O;@; O;@; O;@; O;@; O;@; O;@; O;@; O;@; O;@; O;@; O;@; O;@; O;@; O;@; O;@; O;@; O;@; O;@; O;@; O;@; O;@; O;@; O;@; O;@; O;@; O;@; O;@; O;@; O;@; O;@; O;@; O;@; O;@; O;@; O;@; O;@; O;@; O;@; O;@; O;@; O;@; O;@; O;@; O;@; O;@; O;@; O;@; O;@; O;@; O;@; O;@; O;@; O;@; O;@; O;@; O;@; O;@; O;@; O;@; O;@; O;@; O;@; O;@; O;@; O;@; O;@; O;@; O;@; O;@; O;@; O;@; O;@; O;@; O;@; O;@; O;@; O;@; O;@; O;@; O;@; O;@; O;@; O;@; O;@; O;@; O;@; O;@; O;@; O;@; O;@; O;@; O;@; O;@; O;@; O;@; O;@; O;@; O;@; O;@; O;@; O;@; O;@; O;@; O;@; O;@; O;@; O;@; O;@; O;@; O;@; O;@; O;@; O;@; O;@; O;@; O;@; O;@; O;@; O;@; O;@; O;@; O;@; O;@; O;@; O;@; O;@; O;@; O;@; O;@; O;@; O;@; O;@; O;@; O;@; O;@; O;@; O;@; O;@; O;@; O;@; O;@; O;@; O;@; O;@; O;@; O;@; O;@; O;@; O;@; O;@; O;@; O;@; O;@; O;@; O;@; O;@; O;@; O;@; O;@; O;@; O;@; N;B; N;B; N;B; N;B; N;B; N;B; N;B; N;B; N;B; N;B; N;B; N;B; N;B; N;B; N;B; N;B; N;B; N;B; N;B; N;B; N;B; N;B; N;B; N;B; N;B; N;B; N;B; N;B; N;B; N;B; N;B; N;B; N;B; N;B; N;B; N;B; N;B; N;B; N;B; N;B; N;B; N;B; N;B; N;B; N;B; N;B; N;B; N;B; N;B; N;B; N;B; N;B; N;B; N;B; N;B; N;B; N;B; N;B; N;B; N;B; N;B; N;B; N;B; N;B; N;B; N;B; N;B; N;B; N;B; N;B; N;B; N;B; N;B; N;B; N;B; N;B; N;B; N;B; N;B; N;B; N;B; N;B; N;B; N;B; N;B; N;B; N;B; N;B; N;B; N;B; N;B; N;B; N;B; N;B; N;B; N;B; N;B; N;B; N;B; N;B; N;B; N;B; N;B; N;B; N;B; N;B; N;B; N;B; N;B; N;B; N;B; N;B; N;B; N;B; N;B; N;B; N;B; N;B; N;B; N;B; N;B; N;B; N;B; N;B; N;B; N;B; N;B; N;B; N;B; N;B; N;B; N;B; N;B; N;B; N;B; N;B; N;B; N;B; N;B; N;B; N;B; N;B; N;B; N;B; N;B; N;B; N;B; N;B; N;B; N;B; N;B; N;B; N;B; N;B; N;B; N;B; N;B; N;B; N;B; N;B; N;B; N;B; N;B; N;B; N;B; N;B; N;B; N;B; N;B; N;B; L;;C L;;C L;;C L;;C L;;C L;;C L;;C L;;C L;;C L;;C L;;C L;;C L;;C L;;C L;;C L;;C L;;C L;;C L;;C L;;C L;;C L;;C L;;C L;;C L;;C L;;C L;;C L;;C L;;C L;;C L;;C L;;C L;;C L;;C L;;C L;;C L;;C L;;C L;;C L;;C L;;C L;;C L;;C L;;C L;;C L;;C L;;C L;;C L;;C L;;C L;;C L;;C L;;C L;;C L;;C L;;C L;;C L;;C L;;C L;;C L;;C L;;C L;;C L;;C L;;C L;;C L;;C L;;C L;;C LC LC LC LC LC LC LC LC LC LC LC LC LC LC LC LC LC LC LC LC LC LC LC LC LC LC LC LC LC LC LC LC LC LC LC LC LC LC LC LC LC LC LC LC LC LC LC LC LC LC LC LC LC LC LC LC LC LC LC LC LC LC LC LC LC LC LC LC LC LC LC LC LC LC LC LC LC LC LC LC LC LC LC LC LC LC LC LC LC LC LC LC LC LC LC LC LC LC LC LC LC LC N99=B N99=B N99=B N99=B N99=B N99=B N99=B N99=B N99=B N99=B N99=B N99=B N99=B N99=B N99=B N99=B N99=B N99=B N99=B N99=B N99=B N99=B N99=B N99=B N99=B N99=B N99=B N99=B N99=B N99=B N99=B N99=B N99=B N99=B N99=B N99=B N99=B N99=B N99=B N99=B N99=B N99=B N99=B N99=B N99=B N99=B N99=B N99=B N99=B N99=B N99=B N99=B N99=B N99=B N99=B N99=B N99=B N99=B N99=B N99=B N99=B N99=B N99=B N99=B N99=B N99=B N99=B N99=B N99=B N99=B N99=B N99=B N99=B N99=B N99=B N99=B N99=B N99=B N99=B N99=B N99=B N99=B N99=B N99=B N99=B N99=B N99=B N99=B N99=B N99=B N99=B N99=B N99=B N99=B N99=B N99=B N99=B N99=B N99=B N99=B N99=B N99=B N99=B N99=B N99=B N99=B N99=B N99=B N99=B N99=B N99=B N99=B N99=B N99=B N99=B N99=B N99=B N99=B N99=B N99=B N99=B N99=B N99=B N99=B N99=B N99=B N99=B N99=B N99=B N99=B N99=B N99=B N99=B N99=B N99=B N99=B N99=B N99=B N99=B N99=B N99=B N99=B N99=B N99=B N99=B N99=B N99=B N99=B N99=B N99=B N99=B N99=B N99=B N99=B N99=B N99=B N99=B N99=B N99=B N99=B N99=B N99=B N99=B N99=B N99=B N99=B N99=B N99=B N99=B N99=B N99=B O99=B O99=B O99=B O99=B O99=B O99=B O99=B O99=B O99=B O99=B O99=B O99=B O99=B O99=B O99=B O99=B O99=B O99=B O99=B O99=B O99=B O99=B O99=B O99=B O99=B O99=B O99=B O99=B O99=B O99=B O99=B O99=B O99=B O99=B O99=B O99=B O99=B O99=B O99=B O99=B O99=B O99=B O99=B O99=B O99=B O99=B O99=B O99=B O99=B O99=B O99=B O99=B O99=B O99=B O99=B O99=B O99=B O99=B O99=B O99=B O99=B O99=B O99=B O99=B O99=B O99=B O99=B O99=B O99=B O99=B O99=B O99=B O99=B O99=B O99=B O99=B O99=B O99=B O99=B O99=B O99=B O99=B O99=B O99=B O99=B O99=B O99=B O99=B O99=B O99=B O99=B O99=B O99=B O99=B O99=B O99=B O99=B O99=B O99=B O99=B O99=B O99=B O99=B O99=B O99=B O99=B O99=B O99=B O99=B O99=B O99=B O99=B O99=B O99=B O99=B O99=B O99=B O99=B O99=B O99=B O99=B O99=B O99=B O99=B O99=B O99=B O99=B O99=B O99=B O99=B O99=B O99=B O99=B O99=B O99=B O99=B O99=B O99=B O99=B O99=B O99=B O99=B O99=B O99=B O99=B O99=B O99=B O99=B O99=B O99=B O99=B O99=B O99=B O99=B O99=B O99=B O99=B O99=B O99=B O99=B O99=B O99=B O99=B O99=B O99=B O99=B O99=B O99=B O99=B O99=B Q99=B Q99=B Q99=B Q99=B Q99=B Q99=B Q99=B Q99=B Q99=B Q99=B Q99=B Q99=B Q99=B Q99=B Q99=B Q99=B Q99=B Q=B Q=B Q=B Q=B Q=B Q=B Q=B Q=B Q=B Q=B Q=B Q=B Q=B Q=B Q=B Q=B Q=B Q=B Q=B Q=B Q=B Q=B Q=B Q=B Q=B Q=B Q=B Q=B Q=B Q=B Q=B Q=B Q=B Q=B Q=B Q=B Q=B Q=B Q=B Q=B Q=B Q=B Q=B Q=B Q=B Q=B Q=B Q=B Q=B Q=B Q=B Q=B Q=B Q=B Q=B Q=B Q=B Q=B Q=B Q=B Q=B Q=B Q=B Q=B Q=B Q=B Q=B Q=B Q=B Q=B Q=B Q=B Q=B Q=B Q=B Q=B Q=B Q=B Q=B Q=B Q=B Q=B Q=B Q=B Q=B Q=B Q=B Q=B Q=B Q=B Q=B Q=B Q=B Q=B Q=B Q=B Q=B Q=B Q=B Q=B Q=B Q=B Q=B Q=B Q=B Q=B Q=B Q=B Q=B Q=B Q=B Q=B Q=B Q=B Q=B Q=B Q=B Q=B Q=B Q=B Q=B Q=B Q=B Q=B Q=B Q=B Q=B Q=B Q=B Q=B Q=B Q=B Q=B Q=B Q=B Q=B Q=B =B =B =B =B =B =B =B =B =B =B =B =B =B =B =B =B =B J//>BG J//>BG J//>BG J//>BG J//>BG J//>BG J//>BG J//>BG J//>BG J//>BG J//>BG J//>BG J//>BG J//>BG J//>BG J//>BG J//>BG J//>BG J//>BG J//>BG J//>BG J//>BG J//>BG J//>BG J//>BG J//>BG J//>BG J//>BG J//>BG J//>BG J//>BG J//>BG J//>BG J//>BG J//>BG J//>BG J//>BG J//>BG J//>BG J//>BG J//>BG J//>BG J//>BG J//>BG J//>BG J//>BG J//>BG J//>BG J//>BG J//>BG J//>BG J//>BG J//>BG J//>BG J//>BG J//>BG J//>BG J//>BG J//>BG J//>BG J//>BG J//>BG J//>BG J//>BG J//>BG J//>BG J//>BG J//>BG J//>BG J//>BG J//>BG J//>BG J//>BG J//>BG J//>BG J//>BG J//>BG J//>BG J//>BG J//>BG J//>BG J//>BG J//>BG J//>BG J//>BG J//>BG J//>BG J//>BG J//>BG J//>BG J//>BG J//>BG J//>BG J//>BG J//>BG J//>BG J//>BG J//>BG J//>BG J//>BG J//>BG J//>BG J//>BG J//>BG J//>BG J//>BG J//>BG J//>BG J//>BG J//>BG J//>BG J//>BG J//>BG J//>BG J//>BG J//>BG J//>BG J//>BG J//>BG J//>BG J//>BG J//>BG J//>BG J//>BG J//>BG J//>BG J//>BG J//>BG J//>BG J//>BG J//>BG J//>BG J//>BG J//>BG J//>BG J//>BG J//>BG J//>BG J//>BG J//>BG J//>BG J//>BG J//>BG J//>BG J//>BG J//>BG J//>BG J//>BG J//>BG J//>BG J//>BG J//>BG J//>BG J//>BG J//>BG J//>BG J//>BG J//>BG J//>BG J//>BG J//>BG J//>BG J//>BG J//>BG J//>BG J//>BG J//>BG J//>BG J//>BG J//>BG J//>BG I//>BG I//>BG I//>BG I//>BG I//>BG I//>BG I//>BG I//>BG I//>BG I//>BG I//>BG I//>BG I//>BG I//>BG I//>BG I//>BG I//>BG I//>BG I//>BG I//>BG I//>BG I//>BG I//>BG I//>BG I//>BG I//>BG I//>BG I//>BG I//>BG I//>BG I//>BG I//>BG I//>BG I//>BG I//>BG I//>BG I//>BG I//>BG I//>BG I//>BG I//>BG I//>BG I//>BG I//>BG I//>BG I//>BG I//>BG I//>BG I//>BG I//>BG I//>BG I//>BG I//>BG I//>BG I//>BG I//>BG I//>BG I//>BG I//>BG I//>BG I//>BG I//>BG I//>BG I//>BG I//>BG I//>BG I//>BG I//>BG I//>BG I//>BG I//>BG I//>BG I//>BG I//>BG I//>BG I//>BG I//>BG I//>BG I//>BG I//>BG I//>BG I//>BG I//>BG I//>BG I//>BG I//>BG I//>BG I//>BG I//>BG I//>BG I//>BG I//>BG I//>BG I//>BG I//>BG I//>BG I//>BG I//>BG I//>BG I//>BG I//>BG I//>BG I//>BG I//>BG I//>BG I//>BG I//>BG I//>BG I//>BG I//>BG I//>BG I//>BG I//>BG I//>BG I//>BG I//>BG I//>BG I//>BG I//>BG I//>BG I//>BG I//>BG I//>BG I//>BG I//>BG I//>BG I//>BG I//>BG I//>BG I//>BG I//>BG I//>BG I//>BG I//>BG I//>BG I//>BG I//>BG I//>BG I//>BG I//>BG I//>BG I//>BG I//>BG I//>BG I//>BG I//>BG I//>BG I//>BG I//>BG I//>BG I//>BG I//>BG I//>BG I//>BG I//>BG I//>BG I//>BG I//>BG I//>BG I//>BG I//>BG I//>BG I//>BG I//>BG I//>BG I//>BG I//>BG I//>BG I//>BG I//>BG G//>BG G//>BG G//>BG G//>BG G//>BG G//>BG G//>BG G//>BG G//>BG G//>BG G//>BG G//>BG G//>BG G//>BG G//>BG G//>BG G//>BG G>BG G>BG G>BG G>BG G>BG G>BG G>BG G>BG G>BG G>BG G>BG G>BG G>BG G>BG G>BG G>BG G>BG G>BG G>BG G>BG G>BG G>BG G>BG G>BG G>BG G>BG G>BG G>BG G>BG G>BG G>BG G>BG G>BG G>BG G>BG G>BG G>BG G>BG G>BG G>BG G>BG G>BG G>BG G>BG G>BG G>BG G>BG G>BG G>BG G>BG G>BG G>BG G>BG G>BG G>BG G>BG G>BG G>BG G>BG G>BG G>BG G>BG G>BG G>BG G>BG G>BG G>BG G>BG G>BG G>BG G>BG G>BG G>BG G>BG G>BG G>BG G>BG G>BG G>BG G>BG G>BG G>BG G>BG G>BG G>BG G>BG G>BG G>BG G>BG G>BG G>BG G>BG G>BG G>BG G>BG G>BG G>BG G>BG G>BG G>BG G>BG G>BG G>BG G>BG G>BG G>BG G>BG G>BG G>BG G>BG G>BG G>BG G>BG G>BG G>BG G>BG G>BG G>BG G>BG G>BG G>BG G>BG G>BG G>BG G>BG G>BG G>BG G>BG G>BG G>BG G>BG G>BG G>BG G>BG G>BG G>BG G>BG G>BG G>BG G>BG G>BG G>BG G>BG G>BG G>BG G>BG G>BG G>BG G>BG G>BG G>BG G>BG G>BG G>BG B;;>B B;;>B B;;>B B;;>B B;;>B B;;>B B;;>B B;;>B B;;>B B;;>B B;;>B B;;>B B;;>B B;;>B B;;>B B;;>B B;;>B B;;>B B;;>B B;;>B B;;>B B;;>B B;;>B B;;>B B;;>B B;;>B B;;>B B;;>B B;;>B B;;>B B;;>B B;;>B B;;>B B;;>B B;;>B B;;>B B;;>B B;;>B B;;>B B;;>B B;;>B B;;>B B;;>B B;;>B B;;>B B;;>B B;;>B B;;>B B;;>B B;;>B B;;>B B;;>B B;;>B B;;>B B;;>B B;;>B B;;>B B;;>B B;;>B B;;>B B;;>B B;;>B B;;>B B;;>B B;;>B B;;>B B;;>B B;;>B B;;>B B;;>B B;;>B B;;>B B;;>B B;;>B B;;>B B;;>B B;;>B B;;>B B;;>B B;;>B B;;>B B;;>B B;;>B B;;>B B;;>B B;;>B B;;>B B;;>B B;;>B B;;>B B;;>B B;;>B B;;>B B;;>B B;;>B B;;>B B;;>B B;;>B B;;>B B;;>B B;;>B B;;>B B;;>B B;;>B B;;>B B;;>B B;;>B B;;>B B;;>B B;;>B B;;>B B;;>B B;;>B B;;>B B;;>B B;;>B B;;>B B;;>B B;;>B B;;>B B;;>B B;;>B B;;>B B;;>B B;;>B B;;>B B;;>B B;;>B B;;>B B;;>B B;;>B B;;>B B;;>B B;;>B B;;>B B;;>B B;;>B B;;>B B;;>B B;;>B B;;>B B;;>B B;;>B B;;>B B;;>B B;;>B B;;>B B;;>B B;;>B B;;>B B;;>B B;;>B B;;>B B;;>B B;;>B B;;>B B;;>B B;;>B B;;>B B;;>B B;;>B B;;>B B;;>B B;;>B B;;>B B;;>B B;;>B B;;>B B;;>B B;;>B B;;>B G;;>B G;;>B G;;>B G;;>B G;;>B G;;>B G;;>B G;;>B G;;>B G;;>B G;;>B G;;>B G;;>B G;;>B G;;>B G;;>B G;;>B G;;>B G;;>B G;;>B G;;>B G;;>B G;;>B G;;>B G;;>B G;;>B G;;>B G;;>B G;;>B G;;>B G;;>B G;;>B G;;>B G;;>B G;;>B G;;>B G;;>B G;;>B G;;>B G;;>B G;;>B G;;>B G;;>B G;;>B G;;>B G;;>B G;;>B G;;>B G;;>B G;;>B G;;>B G;;>B G;;>B G;;>B G;;>B G;;>B G;;>B G;;>B G;;>B G;;>B G;;>B G;;>B G;;>B G;;>B G;;>B G;;>B G;;>B G;;>B G;;>B G;;>B G;;>B G;;>B G;;>B G;;>B G;;>B G;;>B G;;>B G;;>B G;;>B G;;>B G;;>B G;;>B G;;>B G;;>B G;;>B G;;>B G;;>B G;;>B G;;>B G;;>B G;;>B G;;>B G;;>B G;;>B G;;>B G;;>B G;;>B G;;>B G;;>B G;;>B G;;>B G;;>B G;;>B G;;>B G;;>B G;;>B G;;>B G;;>B G;;>B G;;>B G;;>B G;;>B G;;>B G;;>B G;;>B G;;>B G;;>B G;;>B G;;>B G;;>B G;;>B G;;>B G;;>B G;;>B G;;>B G;;>B G;;>B G;;>B G;;>B G;;>B G;;>B G;;>B G;;>B G;;>B G;;>B G;;>B G;;>B G;;>B G;;>B G;;>B G;;>B G;;>B G;;>B G;;>B G;;>B G;;>B G;;>B G;;>B G;;>B G;;>B G;;>B G;;>B G;;>B G;;>B G;;>B G;;>B G;;>B G;;>B G;;>B G;;>B G;;>B G;;>B G;;>B G;;>B G;;>B G;;>B G;;>B G;;>B G;;>B G;;>B I;;>B I;;>B I;;>B I;;>B I;;>B I;;>B I;;>B I;;>B I;;>B I;;>B I;;>B I;;>B I;;>B I;;>B I;;>B I;;>B I;;>B I;;>B I;;>B I;;>B I;;>B I;;>B I;;>B I;;>B I;;>B I;;>B I;;>B I;;>B I;;>B I;;>B I;;>B I;;>B I;;>B I;;>B I;;>B I;;>B I;;>B I;;>B I;;>B I;;>B I;;>B I;;>B I;;>B I;;>B I;;>B I;;>B I;;>B I;;>B I;;>B I;;>B I;;>B I;;>B I;;>B I;;>B I;;>B I;;>B I;;>B I;;>B I;;>B I;;>B I;;>B I;;>B I;;>B I;;>B I;;>B I;;>B I;;>B I;;>B I;;>B I;;>B I;;>B I;;>B I;;>B I;;>B I;;>B I;;>B I;;>B I;;>B I;;>B I;;>B I;;>B I;;>B I;;>B I;;>B I;;>B I;;>B I;;>B I;;>B I;;>B I;;>B I;;>B I;;>B I;;>B I;;>B I;;>B I;;>B I;;>B I;;>B I;;>B I;;>B I;;>B I;;>B I;;>B I;;>B I;;>B I;;>B I;;>B I;;>B I;;>B I;;>B I;;>B I;;>B I;;>B I;;>B I;;>B I;;>B I;;>B I;;>B I;;>B I;;>B I;;>B I;;>B I;;>B I;;>B I;;>B I;;>B I;;>B I;;>B I;;>B I;;>B I;;>B I;;>B I;;>B I;;>B I;;>B I;;>B I;;>B I;;>B I;;>B I;;>B I;;>B I;;>B I;;>B I;;>B I;;>B I;;>B I;;>B I;;>B I;;>B I;;>B I;;>B I;;>B I;;>B I;;>B I;;>B I;;>B I;;>B I;;>B I;;>B I;;>B I;;>B I;;>B I;;>B I;;>B I;;>B I;;>B I;;>B I;;>B I;;>B I;;>B I;;>B J;;>B J;;>B J;;>B J;;>B J;;>B J;;>B J;;>B J;;>B J;;>B J;;>B J;;>B J;;>B J;;>B J;;>B J;;>B J;;>B J;;>B J;;>B J;;>B J;;>B J;;>B J;;>B J;;>B J;;>B J;;>B J;;>B J;;>B J;;>B J;;>B J;;>B J;;>B J;;>B J;;>B J;;>B J;;>B J;;>B J;;>B J;;>B J;;>B J;;>B J;;>B J;;>B J;;>B J;;>B J;;>B J;;>B J;;>B J;;>B J;;>B J;;>B J;;>B J;;>B J;;>B J;;>B J;;>B J;;>B J;;>B J;;>B J;;>B J;;>B J;;>B J;;>B J;;>B J;;>B J;;>B J;;>B J;;>B J;;>B J;;>B J;;>B J;;>B J;;>B J;;>B J;;>B J;;>B J;;>B J;;>B J;;>B J;;>B J;;>B J;;>B J;;>B J;;>B J;;>B J;;>B J;;>B J;;>B J;;>B J;;>B J;;>B J;;>B J;;>B J;;>B J;;>B J;;>B J;;>B J;;>B J;;>B J;;>B J;;>B J;;>B J;;>B J;;>B J;;>B J;;>B J;;>B J;;>B J;;>B J;;>B J;;>B J;;>B J;;>B J;;>B J;;>B J;;>B J;;>B J;;>B J;;>B J;;>B J;;>B J;;>B J;;>B J;;>B J;;>B J;;>B J;;>B J;;>B J;;>B J;;>B J;;>B J;;>B J;;>B J;;>B J;;>B J;;>B J;;>B J;;>B J;;>B J;;>B J;;>B J;;>B J;;>B J;;>B J;;>B J;;>B J;;>B J;;>B J;;>B J;;>B J;;>B J;;>B J;;>B J;;>B J;;>B J;;>B J;;>B J;;>B J;;>B J;;>B J;;>B J;;>B J;;>B J;;>B J;;>B J;;>B J;;>B J;;>B J;;>B J;;>B J;;>B J;;>B I;;>B I;;>B I;;>B I;;>B I;;>B I;;>B I;;>B I;;>B I;;>B I;;>B I;;>B I;;>B I;;>B I;;>B I;;>B I;;>B I;;>B I;;>B I;;>B I;;>B I;;>B I;;>B I;;>B I;;>B I;;>B I;;>B I;;>B I;;>B I;;>B I;;>B I;;>B I;;>B I;;>B I;;>B I;;>B I;;>B I;;>B I;;>B I;;>B I;;>B I;;>B I;;>B I;;>B I;;>B I;;>B I;;>B I;;>B I;;>B I;;>B I;;>B I;;>B I;;>B I;;>B I;;>B I;;>B I;;>B I;;>B I;;>B I;;>B I;;>B I;;>B I;;>B I;;>B I;;>B I;;>B I;;>B I;;>B I;;>B I;;>B I;;>B I;;>B I;;>B I;;>B I;;>B I;;>B I;;>B I;;>B I;;>B I;;>B I;;>B I;;>B I;;>B I;;>B I;;>B I;;>B I;;>B I;;>B I;;>B I;;>B I;;>B I;;>B I;;>B I;;>B I;;>B I;;>B I;;>B I;;>B I;;>B I;;>B I;;>B I;;>B I;;>B I;;>B I;;>B I;;>B I;;>B I;;>B I;;>B I;;>B I;;>B I;;>B I;;>B I;;>B I;;>B I;;>B I;;>B I;;>B I;;>B I;;>B I;;>B I;;>B I;;>B I;;>B I;;>B I;;>B I;;>B I;;>B I;;>B I;;>B I;;>B I;;>B I;;>B I;;>B I;;>B I;;>B I;;>B I;;>B I;;>B I;;>B I;;>B I;;>B I;;>B I;;>B I;;>B I;;>B I;;>B I;;>B I;;>B I;;>B I;;>B I;;>B I;;>B I;;>B I;;>B I;;>B I;;>B I;;>B I;;>B I;;>B I;;>B I;;>B I;;>B I;;>B I;;>B I;;>B I;;>B I;;>B I;;>B I;;>B I;;>B G;;>B G;;>B G;;>B G;;>B G;;>B G;;>B G;;>B G;;>B G;;>B G;;>B G;;>B G;;>B G;;>B G;;>B G;;>B G;;>B G;;>B G;;>B G;;>B G;;>B G;;>B G;;>B G;;>B G;;>B G;;>B G;;>B G;;>B G;;>B G;;>B G;;>B G;;>B G;;>B G;;>B G;;>B G;;>B G;;>B G;;>B G;;>B G;;>B G;;>B G;;>B G;;>B G;;>B G;;>B G;;>B G;;>B G;;>B G;;>B G;;>B G;;>B G;;>B G;;>B G;;>B G;;>B G;;>B G;;>B G;;>B G;;>B G;;>B G;;>B G;;>B G;;>B G;;>B G;;>B G;;>B G;;>B G;;>B G;;>B G;;>B G>B G>B G>B G>B G>B G>B G>B G>B G>B G>B G>B G>B G>B G>B G>B G>B G>B G>B G>B G>B G>B G>B G>B G>B G>B G>B G>B G>B G>B G>B G>B G>B G>B G>B G>B G>B G>B G>B G>B G>B G>B G>B G>B G>B G>B G>B G>B G>B G>B G>B G>B G>B G>B G>B G>B G>B G>B G>B G>B G>B G>B G>B G>B G>B G>B G>B G>B G>B G>B G>B G>B G>B G>B G>B G>B G>B G>B G>B G>B G>B G>B G>B G>B G>B G>B G>B G>B G>B G>B G>B G>B G>B G>B G>B G>B G>B G>B G>B G>B G>B G>B G>B I9=@9 I9=@9 I9=@9 I9=@9 I9=@9 I9=@9 I9=@9 I9=@9 I9=@9 I9=@9 I9=@9 I9=@9 I9=@9 I9=@9 I9=@9 I9=@9 I9=@9 I9=@9 I9=@9 I9=@9 I9=@9 I9=@9 I9=@9 I9=@9 I9=@9 I9=@9 I9=@9 I9=@9 I9=@9 I9=@9 I9=@9 I9=@9 I9=@9 I9=@9 I9=@9 I9=@9 I9=@9 I9=@9 I9=@9 I9=@9 I9=@9 I9=@9 I9=@9 I9=@9 I9=@9 I9=@9 I9=@9 I9=@9 I9=@9 I9=@9 I9=@9 I9=@9 I9=@9 I9=@9 I9=@9 I9=@9 I9=@9 I9=@9 I9=@9 I9=@9 I9=@9 I9=@9 I9=@9 I9=@9 I9=@9 I9=@9 I9=@9 I9=@9 I9=@9 I9=@9 I9=@9 I9=@9 I9=@9 I9=@9 I9=@9 I9=@9 I9=@9 I9=@9 I9=@9 I9=@9 I9=@9 I9=@9 I9=@9 I9=@9 I9=@9 I9=@9 I9=@9 I9=@9 I9=@9 I9=@9 I9=@9 I9=@9 I9=@9 I9=@9 I9=@9 I9=@9 I9=@9 I9=@9 I9=@9 I9=@9 I9=@9 I9=@9 I9=@9 I9=@9 I9=@9 I9=@9 I9=@9 I9=@9 I9=@9 I9=@9 I9=@9 I9=@9 I9=@9 I9=@9 I9=@9 I9=@9 I9=@9 I9=@9 I9=@9 I9=@9 I9=@9 I9=@9 I9=@9 I9=@9 I9=@9 I9=@9 I9=@9 I9=@9 I9=@9 I9=@9 I9=@9 I9=@9 I9=@9 I9=@9 I9=@9 I9=@9 I9=@9 I9=@9 I9=@9 I9=@9 I9=@9 I9=@9 I9=@9 I9=@9 I9=@9 I9=@9 I9=@9 I9=@9 I9=@9 I9=@9 I9=@9 I9=@9 I9=@9 I9=@9 I9=@9 I9=@9 I9=@9 I9=@9 I9=@9 I9=@9 I9=@9 I9=@9 I9=@9 I9=@9 I9=@9 I9=@9 I9=@9 I9=@9 I9=@9 I9=@9 I9=@9 J9=@9 J9=@9 J9=@9 J9=@9 J9=@9 J9=@9 J9=@9 J9=@9 J9=@9 J9=@9 J9=@9 J9=@9 J9=@9 J9=@9 J9=@9 J9=@9 J9=@9 J9=@9 J9=@9 J9=@9 J9=@9 J9=@9 J9=@9 J9=@9 J9=@9 J9=@9 J9=@9 J9=@9 J9=@9 J9=@9 J9=@9 J9=@9 J9=@9 J9=@9 J9=@9 J9=@9 J9=@9 J9=@9 J9=@9 J9=@9 J9=@9 J9=@9 J9=@9 J9=@9 J9=@9 J9=@9 J9=@9 J9=@9 J9=@9 J9=@9 J9=@9 J9=@9 J9=@9 J9=@9 J9=@9 J9=@9 J9=@9 J9=@9 J9=@9 J9=@9 J9=@9 J9=@9 J9=@9 J9=@9 J9=@9 J9=@9 J9=@9 J9=@9 J9=@9 J9=@9 J9=@9 J9=@9 J9=@9 J9=@9 J9=@9 J9=@9 J9=@9 J9=@9 J9=@9 J9=@9 J9=@9 J9=@9 J9=@9 J9=@9 J9=@9 J9=@9 J9=@9 J9=@9 J9=@9 J9=@9 J9=@9 J9=@9 J9=@9 J9=@9 J9=@9 J9=@9 J9=@9 J9=@9 J9=@9 J9=@9 J9=@9 J9=@9 J9=@9 J9=@9 J9=@9 J9=@9 J9=@9 J9=@9 J9=@9 J9=@9 J9=@9 J9=@9 J9=@9 J9=@9 J9=@9 J9=@9 J9=@9 J9=@9 J9=@9 J9=@9 J9=@9 J9=@9 J9=@9 J9=@9 J9=@9 J9=@9 J9=@9 J9=@9 J9=@9 J9=@9 J9=@9 J9=@9 J9=@9 J9=@9 J9=@9 J9=@9 J9=@9 J9=@9 J9=@9 J9=@9 J9=@9 J9=@9 J9=@9 J9=@9 J9=@9 J9=@9 J9=@9 J9=@9 J9=@9 J9=@9 J9=@9 J9=@9 J9=@9 J9=@9 J9=@9 J9=@9 J9=@9 J9=@9 J9=@9 J9=@9 J9=@9 J9=@9 J9=@9 J9=@9 J9=@9 J9=@9 J9=@9 J9=@9 J9=@9 J9=@9 L9=@9 L9=@9 L9=@9 L9=@9 L9=@9 L9=@9 L9=@9 L9=@9 L9=@9 L9=@9 L9=@9 L9=@9 L9=@9 L9=@9 L9=@9 L9=@9 L9=@9 L9=@9 L9=@9 L9=@9 L9=@9 L9=@9 L9=@9 L9=@9 L9=@9 L9=@9 L9=@9 L9=@9 L9=@9 L9=@9 L9=@9 L9=@9 L9=@9 L9=@9 L9=@9 L9=@9 L9=@9 L9=@9 L9=@9 L9=@9 L9=@9 L9=@9 L9=@9 L9=@9 L9=@9 L9=@9 L9=@9 L9=@9 L9=@9 L9=@9 L9=@9 L9=@9 L9=@9 L9=@9 L9=@9 L9=@9 L9=@9 L9=@9 L9=@9 L9=@9 L9=@9 L9=@9 L9=@9 L9=@9 L9=@9 L9=@9 L9=@9 L9=@9 L9=@9 L9=@9 L9=@9 L9=@9 L9=@9 L9=@9 L9=@9 L9=@9 L9=@9 L9=@9 L9=@9 L9=@9 L9=@9 L9=@9 L9=@9 L9=@9 L9=@9 L9=@9 L9=@9 L9=@9 L9=@9 L9=@9 L9=@9 L9=@9 L9=@9 L9=@9 L9=@9 L9=@9 L9=@9 L9=@9 L9=@9 L9=@9 L9=@9 L9=@9 L9=@9 L9=@9 L9=@9 L9=@9 L9=@9 L9=@9 L9=@9 L9=@9 L9=@9 L9=@9 L9=@9 L9=@9 L9=@9 L9=@9 L9=@9 L9=@9 L9=@9 L9=@9 L9=@9 L9=@9 L9=@9 L9=@9 L9=@9 L9=@9 L9=@9 L9=@9 L9=@9 L9=@9 L9=@9 L9=@9 L9=@9 L9=@9 L9=@9 L9=@9 L9=@9 L9=@9 L9=@9 L9=@9 L9=@9 L9=@9 L9=@9 L9=@9 L9=@9 L9=@9 L9=@9 L9=@9 L9=@9 L9=@9 L9=@9 L9=@9 L9=@9 L9=@9 L9=@9 L9=@9 L9=@9 L9=@9 L9=@9 L9=@9 L9=@9 L9=@9 L9=@9 L9=@9 L9=@9 L9=@9 L9=@9 L9=@9 L9=@9 L9=@9 L9=@9 N9>9 N9>9 N9>9 N9>9 N9>9 N9>9 N9>9 N9>9 N9>9 N9>9 N9>9 N9>9 N9>9 N9>9 N9>9 N9>9 N9>9 N9>9 N9>9 N9>9 N9>9 N9>9 N9>9 N9>9 N9>9 N9>9 N9>9 N9>9 N9>9 N9>9 N9>9 N9>9 N9>9 N9>9 N9>9 N9>9 N9>9 N9>9 N9>9 N9>9 N9>9 N9>9 N9>9 N9>9 N9>9 N9>9 N9>9 N9>9 N9>9 N9>9 N9>9 N9>9 N9>9 N9>9 N9>9 N9>9 N9>9 N9>9 N9>9 N9>9 N9>9 N9>9 N9>9 N9>9 N9>9 N9>9 N9>9 N9>9 N9>9 N9>9 N9>9 N9>9 N9>9 N9>9 N9>9 N9>9 N9>9 N9>9 N9>9 N9>9 N9>9 N9>9 N9>9 N9>9 N9>9 N9>9 N9>9 N9>9 N9>9 N9>9 N9>9 N9>9 N9>9 N9>9 N9>9 N9>9 N9>9 N9>9 N9>9 N9>9 N9>9 N9>9 N9>9 N9>9 N9>9 N9>9 N9>9 N9>9 N9>9 N9>9 N9>9 N9>9 N9>9 N9>9 N9>9 N9>9 N9>9 N9>9 N9>9 N9>9 N9>9 N9>9 N9>9 N9>9 N9>9 N9>9 N9>9 N9>9 N9>9 N9>9 N9>9 N9>9 N9>9 N9>9 N9>9 N9>9 N9>9 N9>9 N9>9 N9>9 N9>9 N9>9 N9>9 N9>9 N9>9 N9>9 N9>9 N9>9 N9>9 N9>9 N9>9 N9>9 N9>9 N9>9 N9>9 N9>9 N9>9 N9>9 N9>9 N9>9 N9>9 N9>9 N9>9 N9>9 N9>9 N9>9 N9>9 N9>9 N9>9 N9>9 N9>9 L9@9 L9@9 L9@9 L9@9 L9@9 L9@9 L9@9 L9@9 L9@9 L9@9 L9@9 L9@9 L9@9 L9@9 L9@9 L9@9 L9@9 L9@9 L9@9 L9@9 L9@9 L9@9 L9@9 L9@9 L9@9 L9@9 L9@9 L9@9 L9@9 L9@9 L9@9 L9@9 L9@9 L9@9 L9@9 L9@9 L9@9 L9@9 L9@9 L9@9 L9@9 L9@9 L9@9 L9@9 L9@9 L9@9 L9@9 L9@9 L9@9 L9@9 L9@9 L9@9 L9@9 L9@9 L9@9 L9@9 L9@9 L9@9 L9@9 L9@9 L9@9 L9@9 L9@9 L9@9 L9@9 L9@9 L9@9 L9@9 L9@9 L9@9 L9@9 L9@9 L9@9 L9@9 L9@9 L9@9 L9@9 L9@9 L9@9 L9@9 L9@9 L9@9 L9@9 L9@9 L9@9 L9@9 L9@9 L9@9 L9@9 L9@9 L9@9 L9@9 L9@9 L9@9 L9@9 L9@9 L9@9 L9@9 L9@9 L9@9 L9@9 L9@9 L9@9 L9@9 L9@9 L9@9 L9@9 L9@9 L9@9 L9@9 L9@9 L9@9 L9@9 L9@9 L9@9 L9@9 L9@9 L9@9 L9@9 L9@9 L9@9 L9@9 L9@9 L9@9 L9@9 L9@9 L9@9 L9@9 L9@9 L9@9 L9@9 L9@9 L9@9 L9@9 L9@9 L9@9 L9@9 L9@9 L9@9 L9@9 L9@9 L9@9 L9@9 L9@9 L9@9 L9@9 L9@9 L9@9 L9@9 L9@9 L9@9 L9@9 L9@9 L9@9 L9@9 L9@9 L9@9 L9@9 L9@9 L9@9 L9@9 L9@9 L9@9 L9@9 L9@9 L9@9 L9@9 L9@9 L9@9 L9@9 J99B J99B J99B J99B J99B J99B J99B J99B J99B J99B J99B J99B J99B J99B J99B J99B J99B J99B J99B J99B J99B J99B J99B J99B J99B J99B J99B J99B J99B J99B J99B J99B J99B J99B J99B J99B J99B J99B J99B J99B J99B J99B J99B J99B J99B J99B J99B J99B J99B J99B J99B J99B J99B J99B J99B J99B J99B J99B J99B J99B J99B J99B J99B J99B J99B J99B J99B J99B J99B JB JB JB JB JB JB JB JB JB JB JB JB JB JB JB JB JB JB JB JB JB JB JB JB JB JB JB JB JB JB JB JB JB JB JB JB JB JB JB JB JB JB JB JB JB JB JB JB JB JB JB JB JB JB JB JB JB JB JB JB JB JB JB JB JB JB JB JB JB JB JB JB JB JB JB JB JB JB JB JB JB JB JB JB JB JB JB JB JB JB JB JB JB JB JB JB JB JB JB JB JB JB L77;@ L77;@ L77;@ L77;@ L77;@ L77;@ L77;@ L77;@ L77;@ L77;@ L77;@ L77;@ L77;@ L77;@ L77;@ L77;@ L77;@ L77;@ L77;@ L77;@ L77;@ L77;@ L77;@ L77;@ L77;@ L77;@ L77;@ L77;@ L77;@ L77;@ L77;@ L77;@ L77;@ L77;@ L77;@ L77;@ L77;@ L77;@ L77;@ L77;@ L77;@ L77;@ L77;@ L77;@ L77;@ L77;@ L77;@ L77;@ L77;@ L77;@ L77;@ L77;@ L77;@ L77;@ L77;@ L77;@ L77;@ L77;@ L77;@ L77;@ L77;@ L77;@ L77;@ L77;@ L77;@ L77;@ L77;@ L77;@ L77;@ L77;@ L77;@ L77;@ L77;@ L77;@ L77;@ L77;@ L77;@ L77;@ L77;@ L77;@ L77;@ L77;@ L77;@ L77;@ L77;@ L77;@ L77;@ L77;@ L77;@ L77;@ L77;@ L77;@ L77;@ L77;@ L77;@ L77;@ L77;@ L77;@ L77;@ L77;@ L77;@ L77;@ L77;@ L77;@ L77;@ L77;@ L77;@ L77;@ L77;@ L77;@ L77;@ L77;@ L77;@ L77;@ L77;@ L77;@ L77;@ L77;@ L77;@ L77;@ L77;@ L77;@ L77;@ L77;@ L77;@ L77;@ L77;@ L77;@ L77;@ L77;@ L77;@ L77;@ L77;@ L77;@ L77;@ L77;@ L77;@ L77;@ L77;@ L77;@ L77;@ L77;@ L77;@ L77;@ L77;@ L77;@ L77;@ L77;@ L77;@ L77;@ L77;@ L77;@ L77;@ L77;@ L77;@ L77;@ L77;@ L77;@ L77;@ L77;@ L77;@ L77;@ L77;@ L77;@ L77;@ L77;@ L77;@ L77;@ L77;@ L77;@ L77;@ N77;@ N77;@ N77;@ N77;@ N77;@ N77;@ N77;@ N77;@ N77;@ N77;@ N77;@ N77;@ N77;@ N77;@ N77;@ N77;@ N77;@ N77;@ N77;@ N77;@ N77;@ N77;@ N77;@ N77;@ N77;@ N77;@ N77;@ N77;@ N77;@ N77;@ N77;@ N77;@ N77;@ N77;@ N77;@ N77;@ N77;@ N77;@ N77;@ N77;@ N77;@ N77;@ N77;@ N77;@ N77;@ N77;@ N77;@ N77;@ N77;@ N77;@ N77;@ N77;@ N77;@ N77;@ N77;@ N77;@ N77;@ N77;@ N77;@ N77;@ N77;@ N77;@ N77;@ N77;@ N77;@ N77;@ N77;@ N77;@ N77;@ N77;@ N77;@ N77;@ N77;@ N77;@ N77;@ N77;@ N77;@ N77;@ N77;@ N77;@ N77;@ N77;@ N77;@ N77;@ N77;@ N77;@ N77;@ N77;@ N77;@ N77;@ N77;@ N77;@ N77;@ N77;@ N77;@ N77;@ N77;@ N77;@ N77;@ N77;@ N77;@ N77;@ N77;@ N77;@ N77;@ N77;@ N77;@ N77;@ N77;@ N77;@ N77;@ N77;@ N77;@ N77;@ N77;@ N77;@ N77;@ N77;@ N77;@ N77;@ N77;@ N77;@ N77;@ N77;@ N77;@ N77;@ N77;@ N77;@ N77;@ N77;@ N77;@ N77;@ N77;@ N77;@ N77;@ N77;@ N77;@ N77;@ N77;@ N77;@ N77;@ N77;@ N77;@ N77;@ N77;@ N77;@ N77;@ N77;@ N77;@ N77;@ N77;@ N77;@ N77;@ N77;@ N77;@ N77;@ N77;@ N77;@ N77;@ N77;@ N77;@ N77;@ N77;@ N77;@ N77;@ N77;@ N77;@ N77;@ N77;@ N77;@ O77;@ O77;@ O77;@ O77;@ O77;@ O77;@ O77;@ O77;@ O77;@ O77;@ O77;@ O77;@ O77;@ O77;@ O77;@ O77;@ O77;@ O;@ O;@ O;@ O;@ O;@ O;@ O;@ O;@ O;@ O;@ O;@ O;@ O;@ O;@ O;@ O;@ O;@ O;@ O;@ O;@ O;@ O;@ O;@ O;@ O;@ O;@ O;@ O;@ O;@ O;@ O;@ O;@ O;@ O;@ O;@ O;@ O;@ O;@ O;@ O;@ O;@ O;@ O;@ O;@ O;@ O;@ O;@ O;@ O;@ O;@ O;@ O;@ O;@ O;@ O;@ O;@ O;@ O;@ O;@ O;@ O;@ O;@ O;@ O;@ O;@ O;@ O;@ O;@ O;@ O;@ O;@ O;@ O;@ O;@ O;@ O;@ O;@ O;@ O;@ O;@ O;@ O;@ O;@ O;@ O;@ O;@ O;@ O;@ O;@ O;@ O;@ O;@ O;@ O;@ O;@ O;@ O;@ O;@ O;@ O;@ O;@ O;@ O;@ O;@ O;@ O;@ O;@ O;@ O;@ O;@ O;@ O;@ O;@ O;@ O;@ O;@ O;@ O;@ O;@ O;@ O;@ O;@ O;@ O;@ O;@ O;@ O;@ O;@ O;@ O;@ O;@ O;@ O;@ O;@ O;@ O;@ O;@ ;@ ;@ ;@ ;@ ;@ ;@ ;@ ;@ ;@ ;@ ;@ ;@ ;@ ;@ ;@ ;@ ;@ O--9=@ O--9=@ O--9=@ O--9=@ O--9=@ O--9=@ O--9=@ O--9=@ O--9=@ O--9=@ O--9=@ O--9=@ O--9=@ O--9=@ O--9=@ O--9=@ O--9=@ O--9=@ O--9=@ O--9=@ O--9=@ O--9=@ O--9=@ O--9=@ O--9=@ O--9=@ O--9=@ O--9=@ O--9=@ O--9=@ O--9=@ O--9=@ O--9=@ O--9=@ O--9=@ O--9=@ O--9=@ O--9=@ O--9=@ O--9=@ O--9=@ O--9=@ O--9=@ O--9=@ O--9=@ O--9=@ O--9=@ O--9=@ O--9=@ O--9=@ O--9=@ O--9=@ O--9=@ O--9=@ O--9=@ O--9=@ O--9=@ O--9=@ O--9=@ O--9=@ O--9=@ O--9=@ O--9=@ O--9=@ O--9=@ O--9=@ O--9=@ O--9=@ O--9=@ O--9=@ O--9=@ O--9=@ O--9=@ O--9=@ O--9=@ O--9=@ O--9=@ O--9=@ O--9=@ O--9=@ O--9=@ O--9=@ O--9=@ O--9=@ O--9=@ O--9=@ O--9=@ O--9=@ O--9=@ O--9=@ O--9=@ O--9=@ O--9=@ O--9=@ O--9=@ O--9=@ O--9=@ O--9=@ O--9=@ O--9=@ O--9=@ O--9=@ O--9=@ O--9=@ O--9=@ O--9=@ O--9=@ O--9=@ O--9=@ O--9=@ O--9=@ O--9=@ O--9=@ O--9=@ O--9=@ O--9=@ O--9=@ O--9=@ O--9=@ O--9=@ O--9=@ O--9=@ O--9=@ O--9=@ O--9=@ O--9=@ O--9=@ O--9=@ O--9=@ O--9=@ O--9=@ O--9=@ O--9=@ O--9=@ O--9=@ O--9=@ O--9=@ O--9=@ O--9=@ O--9=@ O--9=@ O--9=@ O--9=@ O--9=@ O--9=@ O--9=@ O--9=@ O--9=@ O--9=@ O--9=@ O--9=@ O--9=@ O--9=@ O--9=@ O--9=@ O--9=@ O--9=@ O--9=@ O--9=@ O--9=@ O--9=@ O--9=@ O--9=@ O--9=@ O--9=@ O--9=@ O--9=@ O--9=@ O--9=@ O--9=@ O--9=@ O--9=@ O--9=@ O--9=@ O--9=@ O--9=@ O--9=@ O--9=@ O--9=@ O--9=@ O--9=@ O--9=@ O--9=@ O--9=@ O--9=@ O--9=@ O--9=@ O--9=@ O--9=@ O--9=@ O--9=@ O--9=@ O--9=@ O--9=@ O--9=@ O--9=@ O--9=@ O--9=@ O--9=@ O--9=@ O--9=@ O--9=@ O--9=@ O--9=@ O--9=@ O--9=@ O--9=@ O--9=@ O--9=@ O--9=@ O--9=@ O--9=@ O--9=@ O--9=@ O--9=@ O--9=@ O--9=@ O--9=@ O--9=@ O--9=@ O--9=@ O--9=@ O--9=@ O--9=@ O--9=@ O--9=@ O--9=@ O--9=@ O--9=@ O--9=@ O--9=@ O--9=@ O--9=@ O--9=@ O--9=@ O--9=@ O--9=@ O--9=@ O--9=@ O--9=@ O--9=@ O--9=@ O--9=@ O--9=@ O--9=@ O--9=@ O--9=@ O--9=@ O--9=@ O--9=@ O--9=@ O--9=@ O--9=@ O--9=@ O--9=@ O--9=@ I--9=@ I--9=@ I--9=@ I--9=@ I--9=@ I--9=@ I--9=@ I--9=@ I--9=@ I--9=@ I--9=@ I--9=@ I--9=@ I--9=@ I--9=@ I--9=@ I--9=@ I--9=@ I--9=@ I--9=@ I--9=@ I--9=@ I--9=@ I--9=@ I--9=@ I--9=@ I--9=@ I--9=@ I--9=@ I--9=@ I--9=@ I--9=@ I--9=@ I--9=@ I--9=@ I--9=@ I--9=@ I--9=@ I--9=@ I--9=@ I--9=@ I--9=@ I--9=@ I--9=@ I--9=@ I--9=@ I--9=@ I--9=@ I--9=@ I--9=@ I--9=@ I--9=@ I--9=@ I--9=@ I--9=@ I--9=@ I--9=@ I--9=@ I--9=@ I--9=@ I--9=@ I--9=@ I--9=@ I--9=@ I--9=@ I--9=@ I--9=@ I--9=@ I--9=@ I--9=@ I--9=@ I--9=@ I--9=@ I--9=@ I--9=@ I--9=@ I--9=@ I--9=@ I--9=@ I--9=@ I--9=@ I--9=@ I--9=@ I--9=@ I--9=@ I--9=@ I--9=@ I--9=@ I--9=@ I--9=@ I--9=@ I--9=@ I--9=@ I--9=@ I--9=@ I--9=@ I--9=@ I--9=@ I--9=@ I--9=@ I--9=@ I--9=@ I9=@ I9=@ I9=@ I9=@ I9=@ I9=@ I9=@ I9=@ I9=@ I9=@ I9=@ I9=@ I9=@ I9=@ I9=@ I9=@ I9=@ I9=@ I9=@ I9=@ I9=@ I9=@ I9=@ I9=@ I9=@ I9=@ I9=@ I9=@ I9=@ I9=@ I9=@ I9=@ I9=@ I9=@ I9=@ I9=@ I9=@ I9=@ I9=@ I9=@ I9=@ I9=@ I9=@ I9=@ I9=@ I9=@ I9=@ I9=@ I9=@ I9=@ I9=@ I9=@ I9=@ I9=@ I9=@ I9=@ I9=@ I9=@ I9=@ I9=@ I9=@ I9=@ I9=@ I9=@ I9=@ I9=@ I9=@ I9=@ I9=@ I9=@ I9=@ I9=@ I9=@ I9=@ I9=@ I9=@ I9=@ I9=@ I9=@ I9=@ I9=@ I9=@ I9=@ I9=@ I9=@ I9=@ I9=@ I9=@ I9=@ I9=@ I9=@ I9=@ I9=@ I9=@ I9=@ I9=@ I9=@ I9=@ I9=@ I9=@ I9=@ I9=@ I9=@ I9=@ I9=@ I9=@ I9=@ I9=@ I9=@ I9=@ I9=@ I9=@ I9=@ I9=@ I9=@ I9=@ I9=@ I9=@ I9=@ I9=@ I9=@ I9=@ I9=@ I9=@ I9=@ I9=@ I9=@ I9=@ I9=@ I9=@ I9=@ I9=@ I9=@ I9=@ I9=@ I9=@ I9=@ I9=@ I9=@ I9=@ I9=@ I9=@ I9=@ I9=@ I9=@ I9=@ I9=@ I9=@ I9=@ I9=@ I9=@ I9=@ I9=@ I9=@ @9=9 @9=9 @9=9 @9=9 @9=9 @9=9 @9=9 @9=9 @9=9 @9=9 @9=9 @9=9 @9=9 @9=9 @9=9 @9=9 @9=9 @9=9 @9=9 @9=9 @9=9 @9=9 @9=9 @9=9 @9=9 @9=9 @9=9 @9=9 @9=9 @9=9 @9=9 @9=9 @9=9 @9=9 @9=9 @9=9 @9=9 @9=9 @9=9 @9=9 @9=9 @9=9 @9=9 @9=9 @9=9 @9=9 @9=9 @9=9 @9=9 @9=9 @9=9 @9=9 @9=9 @9=9 @9=9 @9=9 @9=9 @9=9 @9=9 @9=9 @9=9 @9=9 @9=9 @9=9 @9=9 @9=9 @9=9 @9=9 @9=9 @9=9 @9=9 @9=9 @9=9 @9=9 @9=9 @9=9 @9=9 @9=9 @9=9 @9=9 @9=9 @9=9 @9=9 @9=9 @9=9 @9=9 @9=9 @9=9 @9=9 @9=9 @9=9 @9=9 @9=9 @9=9 @9=9 @9=9 @9=9 @9=9 @9=9 @9=9 @9=9 @9=9 @9=9 @9=9 @9=9 @9=9 @9=9 @9=9 @9=9 @9=9 @9=9 @9=9 @9=9 @9=9 @9=9 @9=9 @9=9 @9=9 @9=9 @9=9 @9=9 @9=9 @9=9 @9=9 @9=9 @9=9 @9=9 @9=9 @9=9 @9=9 @9=9 @9=9 @9=9 @9=9 @9=9 @9=9 @9=9 @9=9 @9=9 @9=9 @9=9 @9=9 @9=9 @9=9 @9=9 @9=9 @9=9 @9=9 @9=9 @9=9 @9=9 @9=9 @9=9 @9=9 @9=9 @9=9 @9=9 @9=9 @9=9 @9=9 @9=9 @9=9 @9=9 @9=9 @9=9 @9=9 @9=9 @9=9 @9=9 @9=9 @9=9 @9=9 @9=9 @9=9 @9=9 @9=9 @9=9 @9=9 @9=9 @9=9 @9=9 @9=9 @9=9 @9=9 @9=9 @9=9 @9=9 @9=9 @9=9 @9=9 @9=9 @9=9 @9=9 @9=9 @9=9 @9=9 @9=9 @9=9 @9=9 @9=9 @9=9 @9=9 @9=9 @9=9 @9=9 @9=9 @9=9 @9=9 @9=9 @9=9 @9=9 @9=9 @9=9 @9=9 @9=9 @9=9 @9=9 @9=9 @9=9 @9=9 @9=9 @9=9 @9=9 @9=9 @9=9 @9=9 @9=9 @9=9 @9=9 @9=9 @9=9 @9=9 @9=9 @9=9 @9=9 @9=9 @9=9 @9=9 @9=9 @9=9 @9=9 @9=9 @9=9 @9=9 @9=9 @9=9 @9=9 @9=9 @9=9 @9=9 @9=9 @9=9 @9=9 @9=9 @9=9 @9=9 @;>; @;>; @;>; @;>; @;>; @;>; @;>; @;>; @;>; @;>; @;>; @;>; @;>; @;>; @;>; @;>; @;>; @;>; @;>; @;>; @;>; @;>; @;>; @;>; @;>; @;>; @;>; @;>; @;>; @;>; @;>; @;>; @;>; @;>; @;>; @;>; @;>; @;>; @;>; @;>; @;>; @;>; @;>; @;>; @;>; @;>; @;>; @;>; @;>; @;>; @;>; @;>; @;>; @;>; @;>; @;>; @;>; @;>; @;>; @;>; @;>; @;>; @;>; @;>; @;>; @;>; @;>; @;>; @;>; @;>; @;>; @;>; @;>; @;>; @;>; @;>; @;>; @;>; @;>; @;>; @;>; @;>; @;>; @;>; @;>; @;>; @;>; @;>; @;>; @;>; @;>; @;>; @;>; @;>; @;>; @;>; @;>; @;>; @;>; @;>; @;>; @;>; @;>; @;>; @;>; @;>; @;>; @;>; @;>; @;>; @;>; @;>; @;>; @;>; @;>; @;>; @;>; @;>; @;>; @;>; @;>; @;>; @;>; @;>; @;>; @;>; @;>; @;>; @;>; @;>; @;>; @;>; @;>; @;>; @;>; @;>; @;>; @;>; @;>; @;>; @;>; @;>; @;>; @;>; @;>; @;>; @;>; @;>; @;>; @;>; @;>; @;>; @;>; @;>; @;>; @;>; @;>; @;>; @;>; @;>; @;>; @;>; @;>; @;>; @;>; @;>; @;>; @;>; @;>; @;>; @;>; @;>; @;>; @;>; @;>; @;>; @;>; @;>; @;>; @;>; @;>; @;>; @;>; @;>; @;>; @;>; @;>; @;>; @;>; @;>; @;>; @;>; @;>; @;>; @;>; @;>; @;>; @;>; @;>; @;>; @;>; @;>; @;>; @;>; @;>; @;>; @;>; @;>; @;>; @;>; @;>; @;>; @;>; @;>; @;>; @;>; @;>; @;>; @;>; @;>; @;>; @;>; @;>; @;>; @;>; @;>; @;>; @;>; @;>; @;>; @;>; @;>; @;>; @;>; @;>; @;>; @;>; @;>; @;>; @;>; @;>; @;>; @;>; @;>; @;>; @;>; @;>; @;>; @;>; @;>; @;>; @;>; @;>; @;>; @;>; @;>; @==@ @==@ @==@ @==@ @==@ @==@ @==@ @==@ @==@ @==@ @==@ @==@ @==@ @==@ @==@ @==@ @==@ @==@ @==@ @==@ @==@ @==@ @==@ @==@ @==@ @==@ @==@ @==@ @==@ @==@ @==@ @==@ @==@ @==@ @==@ @==@ @==@ @==@ @==@ @==@ @==@ @==@ @==@ @==@ @==@ @==@ @==@ @==@ @==@ @==@ @==@ @==@ @==@ @==@ @==@ @==@ @==@ @==@ @==@ @==@ @==@ @==@ @==@ @==@ @==@ @==@ @==@ @==@ @==@ @==@ @==@ @==@ @==@ @==@ @==@ @==@ @==@ @==@ @==@ @==@ @==@ @==@ @==@ @==@ @==@ @==@ @==@ @==@ @==@ @==@ @==@ @==@ @==@ @==@ @==@ @==@ @==@ @==@ @==@ @==@ @==@ @==@ @==@ @==@ @==@ @==@ @==@ @==@ @==@ @==@ @==@ @==@ @==@ @==@ @==@ @==@ @==@ @==@ @==@ @==@ @==@ @==@ @==@ @==@ @==@ @==@ @==@ @==@ @==@ @==@ @==@ @==@ @==@ @==@ @==@ @==@ @==@ @==@ @==@ @==@ @==@ @==@ @==@ @==@ @==@ @==@ @==@ @==@ @==@ @==@ @==@ @==@ @==@ @==@ @==@ @==@ @==@ @==@ @==@ @==@ @==@ @==@ @==@ @==@ @==@ @==@ @==@ @==@ @==@ @==@ @==@ C==@ C==@ C==@ C==@ C==@ C==@ C==@ C==@ C==@ C==@ C==@ C==@ C==@ C==@ C==@ C==@ C==@ C==@ C==@ C==@ C==@ C==@ C==@ C==@ C==@ C==@ C==@ C==@ C==@ C==@ C==@ C==@ C==@ C==@ C==@ C==@ C==@ C==@ C==@ C==@ C==@ C==@ C==@ C==@ C==@ C==@ C==@ C==@ C==@ C==@ C==@ C==@ C==@ C==@ C==@ C==@ C==@ C==@ C==@ C==@ C==@ C==@ C==@ C==@ C==@ C==@ C==@ C==@ C==@ C==@ C==@ C==@ C==@ C==@ C==@ C==@ C==@ C==@ C==@ C==@ C==@ C==@ C==@ C==@ C==@ C==@ C==@ C==@ C==@ C==@ C==@ C==@ C==@ C==@ C==@ C==@ C==@ C==@ C==@ C==@ C==@ C==@ C==@ C==@ C==@ C==@ C==@ C==@ C==@ C==@ C==@ C==@ C==@ C==@ C==@ C==@ C==@ C==@ C==@ C==@ C==@ C==@ C==@ C==@ C==@ C==@ C==@ C==@ C==@ C==@ C==@ C==@ C==@ C==@ C==@ C==@ C==@ C==@ C==@ C==@ C==@ C==@ C==@ C==@ C==@ C==@ C==@ C==@ C==@ C==@ C==@ C==@ C==@ C==@ C==@ C==@ C==@ C==@ C==@ C==@ C==@ C==@ C==@ C==@ C==@ C==@ C==@ C==@ C==@ C==@ G==@ G==@ G==@ G==@ G==@ G==@ G==@ G==@ G==@ G==@ G==@ G==@ G==@ G==@ G==@ G==@ G==@ G@ G@ G@ G@ G@ G@ G@ G@ G@ G@ G@ G@ G@ G@ G@ G@ G@ G@ G@ G@ G@ G@ G@ G@ G@ G@ G@ G@ G@ G@ G@ G@ G@ G@ G@ G@ G@ G@ G@ G@ G@ G@ G@ G@ G@ G@ G@ G@ G@ G@ G@ G@ G@ G@ G@ G@ G@ G@ G@ G@ G@ G@ G@ G@ G@ G@ G@ G@ G@ G@ G@ G@ G@ G@ G@ G@ G@ G@ G@ G@ G@ G@ G@ G@ G@ G@ G@ G@ G@ G@ G@ G@ G@ G@ G@ G@ G@ G@ G@ G@ G@ G@ G@ G@ G@ G@ G@ G@ G@ G@ G@ G@ G@ G@ G@ G@ G@ G@ G@ G@ G@ G@ G@ G@ G@ G@ G@ G@ G@ G@ G@ G@ G@ G@ G@ G@ G@ G@ G@ G@ G@ G@ G@ G@ G@ G@ G@ G@ G@ G@ G@ G@ G@ G@ J;;>C J;;>C J;;>C J;;>C J;;>C J;;>C J;;>C J;;>C J;;>C J;;>C J;;>C J;;>C J;;>C J;;>C J;;>C J;;>C J;;>C J;;>C J;;>C J;;>C J;;>C J;;>C J;;>C J;;>C J;;>C J;;>C J;;>C J;;>C J;;>C J;;>C J;;>C J;;>C J;;>C J;;>C J;;>C J;;>C J;;>C J;;>C J;;>C J;;>C J;;>C J;;>C J;;>C J;;>C J;;>C J;;>C J;;>C J;;>C J;;>C J;;>C J;;>C J;;>C J;;>C J;;>C J;;>C J;;>C J;;>C J;;>C J;;>C J;;>C J;;>C J;;>C J;;>C J;;>C J;;>C J;;>C J;;>C J;;>C J;;>C J;;>C J;;>C J;;>C J;;>C J;;>C J;;>C J;;>C J;;>C J;;>C J;;>C J;;>C J;;>C J;;>C J;;>C J;;>C J;;>C J;;>C J;;>C J;;>C J;;>C J;;>C J;;>C J;;>C J;;>C J;;>C J;;>C J;;>C J;;>C J;;>C J;;>C J;;>C J;;>C J;;>C J;;>C J;;>C J;;>C J;;>C J;;>C J;;>C J;;>C J;;>C J;;>C J;;>C J;;>C J;;>C J;;>C J;;>C J;;>C J;;>C J;;>C J;;>C J;;>C J;;>C J;;>C J;;>C J;;>C J;;>C J;;>C J;;>C J;;>C J;;>C J;;>C J;;>C J;;>C J;;>C J;;>C J;;>C J;;>C J;;>C J;;>C J;;>C J;;>C J;;>C J;;>C J;;>C J;;>C J;;>C J;;>C J;;>C J;;>C J;;>C J;;>C J;;>C J;;>C J;;>C J;;>C J;;>C J;;>C J;;>C J;;>C J;;>C J;;>C J;;>C J;;>C J;;>C J;;>C J;;>C J;;>C J;;>C J;;>C J;;>C J;;>C I;;>C I;;>C I;;>C I;;>C I;;>C I;;>C I;;>C I;;>C I;;>C I;;>C I;;>C I;;>C I;;>C I;;>C I;;>C I;;>C I;;>C I;;>C I;;>C I;;>C I;;>C I;;>C I;;>C I;;>C I;;>C I;;>C I;;>C I;;>C I;;>C I;;>C I;;>C I;;>C I;;>C I;;>C I;;>C I;;>C I;;>C I;;>C I;;>C I;;>C I;;>C I;;>C I;;>C I;;>C I;;>C I;;>C I;;>C I;;>C I;;>C I;;>C I;;>C I;;>C I;;>C I;;>C I;;>C I;;>C I;;>C I;;>C I;;>C I;;>C I;;>C I;;>C I;;>C I;;>C I;;>C I;;>C I;;>C I;;>C I;;>C I;;>C I;;>C I;;>C I;;>C I;;>C I;;>C I;;>C I;;>C I;;>C I;;>C I;;>C I;;>C I;;>C I;;>C I;;>C I;;>C I;;>C I;;>C I;;>C I;;>C I;;>C I;;>C I;;>C I;;>C I;;>C I;;>C I;;>C I;;>C I;;>C I;;>C I;;>C I;;>C I;;>C I;;>C I;;>C I;;>C I;;>C I;;>C I;;>C I;;>C I;;>C I;;>C I;;>C I;;>C I;;>C I;;>C I;;>C I;;>C I;;>C I;;>C I;;>C I;;>C I;;>C I;;>C I;;>C I;;>C I;;>C I;;>C I;;>C I;;>C I;;>C I;;>C I;;>C I;;>C I;;>C I;;>C I;;>C I;;>C I;;>C I;;>C I;;>C I;;>C I;;>C I;;>C I;;>C I;;>C I;;>C I;;>C I;;>C I;;>C I;;>C I;;>C I;;>C I;;>C I;;>C I;;>C I;;>C I;;>C I;;>C I;;>C I;;>C I;;>C I;;>C I;;>C I;;>C I;;>C I;;>C I;;>C I;;>C I;;>C I;;>C G;;>C G;;>C G;;>C G;;>C G;;>C G;;>C G;;>C G;;>C G;;>C G;;>C G;;>C G;;>C G;;>C G;;>C G;;>C G;;>C G;;>C G>C G>C G>C G>C G>C G>C G>C G>C G>C G>C G>C G>C G>C G>C G>C G>C G>C G>C G>C G>C G>C G>C G>C G>C G>C G>C G>C G>C G>C G>C G>C G>C G>C G>C G>C G>C G>C G>C G>C G>C G>C G>C G>C G>C G>C G>C G>C G>C G>C G>C G>C G>C G>C G>C G>C G>C G>C G>C G>C G>C G>C G>C G>C G>C G>C G>C G>C G>C G>C G>C G>C G>C G>C G>C G>C G>C G>C G>C G>C G>C G>C G>C G>C G>C G>C G>C G>C G>C G>C G>C G>C G>C G>C G>C G>C G>C G>C G>C G>C G>C G>C G>C G>C G>C G>C G>C G>C G>C G>C G>C G>C G>C G>C G>C G>C G>C G>C G>C G>C G>C G>C G>C G>C G>C G>C G>C G>C G>C G>C G>C G>C G>C G>C G>C G>C G>C G>C G>C G>C G>C G>C G>C G>C G>C G>C G>C G>C G>C G>C G>C G>C G>C G>C G>C I99=C I99=C I99=C I99=C I99=C I99=C I99=C I99=C I99=C I99=C I99=C I99=C I99=C I99=C I99=C I99=C I99=C I99=C I99=C I99=C I99=C I99=C I99=C I99=C I99=C I99=C I99=C I99=C I99=C I99=C I99=C I99=C I99=C I99=C I99=C I99=C I99=C I99=C I99=C I99=C I99=C I99=C I99=C I99=C I99=C I99=C I99=C I99=C I99=C I99=C I99=C I99=C I99=C I99=C I99=C I99=C I99=C I99=C I99=C I99=C I99=C I99=C I99=C I99=C I99=C I99=C I99=C I99=C I99=C I99=C I99=C I99=C I99=C I99=C I99=C I99=C I99=C I99=C I99=C I99=C I99=C I99=C I99=C I99=C I99=C I99=C I99=C I99=C I99=C I99=C I99=C I99=C I99=C I99=C I99=C I99=C I99=C I99=C I99=C I99=C I99=C I99=C I99=C I99=C I99=C I99=C I99=C I99=C I99=C I99=C I99=C I99=C I99=C I99=C I99=C I99=C I99=C I99=C I99=C I99=C I99=C I99=C I99=C I99=C I99=C I99=C I99=C I99=C I99=C I99=C I99=C I99=C I99=C I99=C I99=C I99=C I99=C I99=C I99=C I99=C I99=C I99=C I99=C I99=C I99=C I99=C I99=C I99=C I99=C I99=C I99=C I99=C I99=C I99=C I99=C I99=C I99=C I99=C I99=C I99=C I99=C I99=C I99=C I99=C I99=C I99=C I99=C I99=C I99=C I99=C I99=C L99=C L99=C L99=C L99=C L99=C L99=C L99=C L99=C L99=C L99=C L99=C L99=C L99=C L99=C L99=C L99=C L99=C L99=C L99=C L99=C L99=C L99=C L99=C L99=C L99=C L99=C L99=C L99=C L99=C L99=C L99=C L99=C L99=C L99=C L99=C L99=C L99=C L99=C L99=C L99=C L99=C L99=C L99=C L99=C L99=C L99=C L99=C L99=C L99=C L99=C L99=C L99=C L99=C L99=C L99=C L99=C L99=C L99=C L99=C L99=C L99=C L99=C L99=C L99=C L99=C L99=C L99=C L99=C L99=C L99=C L99=C L99=C L99=C L99=C L99=C L99=C L99=C L99=C L99=C L99=C L99=C L99=C L99=C L99=C L99=C L99=C L99=C L99=C L99=C L99=C L99=C L99=C L99=C L99=C L99=C L99=C L99=C L99=C L99=C L99=C L99=C L99=C L99=C L99=C L99=C L99=C L99=C L99=C L99=C L99=C L99=C L99=C L99=C L99=C L99=C L99=C L99=C L99=C L99=C L99=C L99=C L99=C L99=C L99=C L99=C L99=C L99=C L99=C L99=C L99=C L99=C L99=C L99=C L99=C L99=C L99=C L99=C L99=C L99=C L99=C L99=C L99=C L99=C L99=C L99=C L99=C L99=C L99=C L99=C L99=C L99=C L99=C L99=C L99=C L99=C L99=C L99=C L99=C L99=C L99=C L99=C L99=C L99=C L99=C L99=C L99=C L99=C L99=C L99=C L99=C O99=C O99=C O99=C O99=C O99=C O99=C O99=C O99=C O99=C O99=C O99=C O99=C O99=C O99=C O99=C O99=C O99=C O=C O=C O=C O=C O=C O=C O=C O=C O=C O=C O=C O=C O=C O=C O=C O=C O=C O=C O=C O=C O=C O=C O=C O=C O=C O=C O=C O=C O=C O=C O=C O=C O=C O=C O=C O=C O=C O=C O=C O=C O=C O=C O=C O=C O=C O=C O=C O=C O=C O=C O=C O=C O=C O=C O=C O=C O=C O=C O=C O=C O=C O=C O=C O=C O=C O=C O=C O=C O=C O=C O=C O=C O=C O=C O=C O=C O=C O=C O=C O=C O=C O=C O=C O=C O=C O=C O=C O=C O=C O=C O=C O=C O=C O=C O=C O=C O=C O=C O=C O=C O=C O=C O=C O=C O=C O=C O=C O=C O=C O=C O=C O=C O=C O=C O=C O=C O=C O=C O=C O=C O=C O=C O=C O=C O=C O=C O=C O=C O=C O=C O=C O=C O=C O=C O=C O=C O=C O=C O=C O=C O=C O=C O=C O=C O=C O=C O=C O=C O=C O=C O=C O=C O=C O=C S77=@ S77=@ S77=@ S77=@ S77=@ S77=@ S77=@ S77=@ S77=@ S77=@ S77=@ S77=@ S77=@ S77=@ S77=@ S77=@ S77=@ S77=@ S77=@ S77=@ S77=@ S77=@ S77=@ S77=@ S77=@ S77=@ S77=@ S77=@ S77=@ S77=@ S77=@ S77=@ S77=@ S77=@ S77=@ S77=@ S77=@ S77=@ S77=@ S77=@ S77=@ S77=@ S77=@ S77=@ S77=@ S77=@ S77=@ S77=@ S77=@ S77=@ S77=@ S77=@ S77=@ S77=@ S77=@ S77=@ S77=@ S77=@ S77=@ S77=@ S77=@ S77=@ S77=@ S77=@ S77=@ S77=@ S77=@ S77=@ S77=@ S77=@ S77=@ S77=@ S77=@ S77=@ S77=@ S77=@ S77=@ S77=@ S77=@ S77=@ S77=@ S77=@ S77=@ S77=@ S77=@ S77=@ S77=@ S77=@ S77=@ S77=@ S77=@ S77=@ S77=@ S77=@ S77=@ S77=@ S77=@ S77=@ S77=@ S77=@ S77=@ S77=@ S77=@ S77=@ S77=@ S77=@ S77=@ S77=@ S77=@ S77=@ S77=@ S77=@ S77=@ S77=@ S77=@ S77=@ S77=@ S77=@ S77=@ S77=@ S77=@ S77=@ S77=@ S77=@ S77=@ S77=@ S77=@ S77=@ S77=@ S77=@ S77=@ S77=@ S77=@ S77=@ S77=@ S77=@ S77=@ S77=@ S77=@ S77=@ S77=@ S77=@ S77=@ S77=@ S77=@ S77=@ S77=@ S77=@ S77=@ S77=@ S77=@ S77=@ S77=@ S77=@ S77=@ S77=@ S77=@ S77=@ S77=@ S77=@ S77=@ S77=@ S77=@ S77=@ S77=@ S77=@ S77=@ S77=@ S77=@ S77=@ S77=@ Q77=@ Q77=@ Q77=@ Q77=@ Q77=@ Q77=@ Q77=@ Q77=@ Q77=@ Q77=@ Q77=@ Q77=@ Q77=@ Q77=@ Q77=@ Q77=@ Q77=@ Q77=@ Q77=@ Q77=@ Q77=@ Q77=@ Q77=@ Q77=@ Q77=@ Q77=@ Q77=@ Q77=@ Q77=@ Q77=@ Q77=@ Q77=@ Q77=@ Q77=@ Q77=@ Q77=@ Q77=@ Q77=@ Q77=@ Q77=@ Q77=@ Q77=@ Q77=@ Q77=@ Q77=@ Q77=@ Q77=@ Q77=@ Q77=@ Q77=@ Q77=@ Q77=@ Q77=@ Q77=@ Q77=@ Q77=@ Q77=@ Q77=@ Q77=@ Q77=@ Q77=@ Q77=@ Q77=@ Q77=@ Q77=@ Q77=@ Q77=@ Q77=@ Q77=@ Q77=@ Q77=@ Q77=@ Q77=@ Q77=@ Q77=@ Q77=@ Q77=@ Q77=@ Q77=@ Q77=@ Q77=@ Q77=@ Q77=@ Q77=@ Q77=@ Q77=@ Q77=@ Q77=@ Q77=@ Q77=@ Q77=@ Q77=@ Q77=@ Q77=@ Q77=@ Q77=@ Q77=@ Q77=@ Q77=@ Q77=@ Q77=@ Q77=@ Q77=@ Q77=@ Q77=@ Q77=@ Q77=@ Q77=@ Q77=@ Q77=@ Q77=@ Q77=@ Q77=@ Q77=@ Q77=@ Q77=@ Q77=@ Q77=@ Q77=@ Q77=@ Q77=@ Q77=@ Q77=@ Q77=@ Q77=@ Q77=@ Q77=@ Q77=@ Q77=@ Q77=@ Q77=@ Q77=@ Q77=@ Q77=@ Q77=@ Q77=@ Q77=@ Q77=@ Q77=@ Q77=@ Q77=@ Q77=@ Q77=@ Q77=@ Q77=@ Q77=@ Q77=@ Q77=@ Q77=@ Q77=@ Q77=@ Q77=@ Q77=@ Q77=@ Q77=@ Q77=@ Q77=@ Q77=@ Q77=@ Q77=@ Q77=@ Q77=@ Q77=@ Q77=@ Q77=@ Q77=@ Q77=@ Q77=@ Q77=@ Q77=@ O77=@ O77=@ O77=@ O77=@ O77=@ O77=@ O77=@ O77=@ O77=@ O77=@ O77=@ O77=@ O77=@ O77=@ O77=@ O77=@ O77=@ O=@ O=@ O=@ O=@ O=@ O=@ O=@ O=@ O=@ O=@ O=@ O=@ O=@ O=@ O=@ O=@ O=@ O=@ O=@ O=@ O=@ O=@ O=@ O=@ O=@ O=@ O=@ O=@ O=@ O=@ O=@ O=@ O=@ O=@ O=@ O=@ O=@ O=@ O=@ O=@ O=@ O=@ O=@ O=@ O=@ O=@ O=@ O=@ O=@ O=@ O=@ O=@ O=@ O=@ O=@ O=@ O=@ O=@ O=@ O=@ O=@ O=@ O=@ O=@ O=@ O=@ O=@ O=@ O=@ O=@ O=@ O=@ O=@ O=@ O=@ O=@ O=@ O=@ O=@ O=@ O=@ O=@ O=@ O=@ O=@ O=@ O=@ O=@ O=@ O=@ O=@ O=@ O=@ O=@ O=@ O=@ O=@ O=@ O=@ O=@ O=@ O=@ O=@ O=@ O=@ O=@ O=@ O=@ O=@ O=@ O=@ O=@ O=@ O=@ O=@ O=@ O=@ O=@ O=@ O=@ O=@ O=@ O=@ O=@ O=@ O=@ O=@ O=@ O=@ O=@ O=@ O=@ O=@ O=@ O=@ O=@ O=@ O=@ O=@ O=@ O=@ O=@ O=@ O=@ O=@ O=@ O=@ O=@ O=@ O=@ O=@ O=@ O=@ O=@ O669B O669B O669B O669B O669B O669B O669B O669B O669B O669B O669B O669B O669B O669B O669B O669B O669B O669B O669B O669B O669B O669B O669B O669B O669B O669B O669B O669B O669B O669B O669B O669B O669B O669B O669B O669B O669B O669B O669B O669B O669B O669B O669B O669B O669B O669B O669B O669B O669B O669B O669B O669B O669B O669B O669B O669B O669B O669B O669B O669B O669B O669B O669B O669B O669B O669B O669B O669B O669B O669B O669B O669B O669B O669B O669B O669B O669B O669B O669B O669B O669B O669B O669B O669B O669B O669B O669B O669B O669B O669B O669B O669B O669B O669B O669B O669B O669B O669B O669B O669B O669B O669B O669B O669B O669B O669B O669B O669B O669B O669B O669B O669B O669B O669B O669B O669B O669B O669B O669B O669B O669B O669B O669B O669B O669B O669B O669B O669B O669B O669B O669B O669B O669B O669B O669B O669B O669B O669B O669B O669B O669B O669B O669B O669B O669B O669B O669B O669B O669B O669B O669B O669B O669B O669B O669B O669B O669B O669B O669B O669B O669B O669B O669B O669B O669B O669B O669B O669B O669B O669B O669B O669B O669B O669B O669B O669B O669B O669B O669B O669B O669B O669B O669B O669B O669B O669B O669B O669B O669B O669B O669B O669B O669B O669B O669B O669B O669B O669B O669B O669B O669B O669B O669B O669B O669B O669B O669B O669B O669B O669B O669B O669B O669B O669B O669B O669B O669B O669B O669B O669B O669B O669B O669B O669B O669B O669B O669B O669B O669B O669B O669B O669B O669B O669B O669B O669B O669B O669B O669B O669B O669B O669B O669B O669B O669B O669B O669B O669B O669B O669B O669B O669B O669B O669B O669B O669B Q669B Q669B Q669B Q669B Q669B Q669B Q669B Q669B Q669B Q669B Q669B Q669B Q669B Q669B Q669B Q669B Q669B Q669B Q669B Q669B Q669B Q669B Q669B Q669B Q669B Q669B Q669B Q669B Q669B Q669B Q669B Q669B Q669B Q669B Q669B Q669B Q669B Q669B Q669B Q669B Q669B Q669B Q669B Q669B Q669B Q669B Q669B Q669B Q669B Q669B Q669B Q669B Q669B Q669B Q669B Q669B Q669B Q669B Q669B Q669B Q669B Q669B Q669B Q669B Q669B Q669B Q669B Q669B Q669B Q669B Q669B Q669B Q669B Q669B Q669B Q669B Q669B Q669B Q669B Q669B Q669B Q669B Q669B Q669B Q669B Q669B Q669B Q669B Q669B Q669B Q669B Q669B Q669B Q669B Q669B Q669B Q669B Q669B Q669B Q669B Q669B Q669B Q9B Q9B Q9B Q9B Q9B Q9B Q9B Q9B Q9B Q9B Q9B Q9B Q9B Q9B Q9B Q9B Q9B Q9B Q9B Q9B Q9B Q9B Q9B Q9B Q9B Q9B Q9B Q9B Q9B Q9B Q9B Q9B Q9B Q9B Q9B Q9B Q9B Q9B Q9B Q9B Q9B Q9B Q9B Q9B Q9B Q9B Q9B Q9B Q9B Q9B Q9B Q9B Q9B Q9B Q9B Q9B Q9B Q9B Q9B Q9B Q9B Q9B Q9B Q9B Q9B Q9B Q9B Q9B Q9B Q9B Q9B Q9B Q9B Q9B Q9B Q9B Q9B Q9B Q9B Q9B Q9B Q9B Q9B Q9B Q9B Q9B Q9B Q9B Q9B Q9B Q9B Q9B Q9B Q9B Q9B Q9B Q9B Q9B Q9B Q9B Q9B Q9B Q9B Q9B Q9B Q9B Q9B Q9B Q9B Q9B Q9B Q9B Q9B Q9B Q9B Q9B Q9B Q9B Q9B Q9B Q9B Q9B Q9B Q9B Q9B Q9B Q9B Q9B Q9B Q9B Q9B Q9B Q9B Q9B Q9B Q9B Q9B Q9B Q9B Q9B Q9B Q9B Q9B Q9B Q9B Q9B Q9B Q9B Q9B Q9B Q9B Q9B Q9B Q9B Q119B Q119B Q119B Q119B Q119B Q119B Q119B Q119B Q119B Q119B Q119B Q119B Q119B Q119B Q119B Q119B Q119B Q119B Q119B Q119B Q119B Q119B Q119B Q119B Q119B Q119B Q119B Q119B Q119B Q119B Q119B Q119B Q119B Q119B Q119B Q119B Q119B Q119B Q119B Q119B Q119B Q119B Q119B Q119B Q119B Q119B Q119B Q119B Q119B Q119B Q119B Q119B Q119B Q119B Q119B Q119B Q119B Q119B Q119B Q119B Q119B Q119B Q119B Q119B Q119B Q119B Q119B Q119B Q119B Q119B Q119B Q119B Q119B Q119B Q119B Q119B Q119B Q119B Q119B Q119B Q119B Q119B Q119B Q119B Q119B Q119B Q119B Q119B Q119B Q119B Q119B Q119B Q119B Q119B Q119B Q119B Q119B Q119B Q119B Q119B Q119B Q119B Q119B Q119B Q119B Q119B Q119B Q119B Q119B Q119B Q119B Q119B Q119B Q119B Q119B Q119B Q119B Q119B Q119B Q119B Q119B Q119B Q119B Q119B Q119B Q119B Q119B Q119B O119B O119B O119B O119B O119B O119B O119B O119B O119B O119B O119B O119B O119B O119B O119B O119B O119B O119B O119B O119B O119B O119B O119B O119B O119B O119B O119B O119B O119B O119B O119B O119B O119B O119B O119B O119B O119B O119B O119B O119B O119B O119B O119B O119B O119B O119B O119B O119B O119B O119B O119B O119B O119B O119B O119B O119B O119B O119B O119B O119B O119B O119B O119B O119B O119B O119B O119B O119B O119B O119B O119B O119B O119B O119B O119B O119B O119B O119B O119B O119B O119B O119B O119B O119B O119B O119B O119B O119B O119B O119B O119B O119B O119B O119B O119B O119B O119B O119B O119B O119B O119B O119B O119B O119B O119B O119B O119B O119B O119B O119B O119B O119B O119B O119B O119B O119B O119B O119B O119B O119B O119B O119B O119B O119B O119B O119B O119B O119B N119B N119B N119B N119B N119B N119B N119B N119B N119B N119B N119B N119B N119B N119B N119B N119B N119B N119B N119B N119B N119B N119B N119B N119B N119B N119B N119B N119B N119B N119B N119B N119B N119B N119B N119B N119B N119B N119B N119B N119B N119B N119B N119B N119B N119B N119B N119B N119B N119B N119B N119B N119B N119B N119B N119B N119B N119B N119B N119B N119B N119B N119B N119B N119B N119B N119B N119B N119B N119B N119B N119B N119B N119B N119B N119B N119B N119B N119B N119B N119B N119B N119B N119B N119B N119B N119B N119B N119B N119B N119B N119B N119B N119B N119B N119B N119B N119B N119B N119B N119B N119B N119B N9B N9B N9B N9B N9B N9B N9B N9B N9B N9B N9B N9B N9B N9B N9B N9B N9B N9B N9B N9B N9B N9B N9B N9B N9B N9B L9B L9B L9B L9B L9B L9B L9B L9B L9B L9B L9B L9B L9B L9B L9B L9B L9B L9B L9B L9B L9B L9B L9B L9B L9B L9B L9B L9B L9B L9B L9B L9B L9B L9B L9B L9B L9B L9B L9B L9B L9B L9B L9B L9B L9B L9B L9B L9B L9B L9B L9B L9B L9B L9B L9B L9B L9B L9B L9B L9B L9B L9B L9B L9B L9B L9B L9B L9B L9B L9B L9B L9B L9B L9B L9B L9B L9B L9B L9B L9B L9B L9B L9B L9B L9B L9B L9B L9B L9B L9B L9B L9B L9B L9B L9B L9B L9B L9B L9B L9B L9B L9B L9B L9B L9B L9B L9B L9B L9B L9B L9B L9B L9B L9B L9B L9B L9B L9B L9B L9B L9B L9B L9B L9B L9B L9B L9B L9B N229B N229B N229B N229B N229B N229B N229B N229B N229B N229B N229B N229B N229B N229B N229B N229B N229B N229B N229B N229B N229B N229B N229B N229B N229B N229B N229B N229B N229B N229B N229B N229B N229B N229B N229B N229B N229B N229B N229B N229B N229B N229B N229B N229B N229B N229B N229B N229B N229B N229B N229B N229B N229B N229B N229B N229B N229B N229B N229B N229B N229B N229B N229B N229B N229B N229B N229B N229B N229B N229B N229B N229B N229B N229B N229B N229B N229B N229B N229B N229B N229B N229B N229B N229B N229B N229B N229B N229B N229B N229B N229B N229B N229B N229B N229B N229B N229B N229B N229B N229B N229B N229B N229B N229B N229B N229B N229B N229B N229B N229B N229B N229B N229B N229B N229B N229B N229B N229B N229B N229B N229B N229B N229B N229B N229B N229B N229B N229B L229B L229B L229B L229B L229B L229B L229B L229B L229B L229B L229B L229B L229B L229B L229B L229B L229B L229B L229B L229B L229B L229B L229B L229B L229B L229B L229B L229B L229B L229B L229B L229B L229B L229B L229B L229B L229B L229B L229B L229B L229B L229B L229B L229B L229B L229B L229B L229B L229B L229B L229B L229B L229B L229B L229B L229B L229B L229B L229B L229B L229B L229B L229B L229B L229B L229B L229B L229B L229B L229B L229B L229B L229B L229B L229B L229B L229B L229B L229B L229B L229B L229B L229B L229B L229B L229B L229B L229B L229B L229B L229B L229B L229B L229B L229B L229B L229B L229B L229B L229B L229B L229B L229B L229B L229B L229B L229B L229B L229B L229B L229B L229B L229B L229B L229B L229B L229B L229B L229B L229B L229B L229B L229B L229B L229B L229B L229B L229B J229B J229B J229B J229B J229B J229B J229B J229B J229B J229B J229B J229B J229B J229B J229B J229B J229B J229B J229B J229B J229B J229B J229B J229B J229B J229B J229B J229B J229B J229B J229B J229B J229B J229B J229B J229B J229B J229B J229B J229B J229B J229B J229B J229B J229B J229B J229B J229B J229B J229B J229B J229B J229B J229B J229B J229B J229B J229B J229B J229B J229B J229B J229B J229B J229B J229B J229B J229B J229B J229B J229B J229B J229B J229B J229B J229B J229B J229B J229B J229B J229B J229B J229B J229B J229B J229B J229B J229B J229B J229B J229B J229B J229B J229B J229B J229B J229B J229B J229B J229B J229B J229B J9B J9B J9B J9B J9B J9B J9B J9B J9B J9B J9B J9B J9B J9B J9B J9B J9B J9B J9B J9B J9B J9B J9B J9B J9B J9B I9B I9B I9B I9B I9B I9B I9B I9B I9B I9B I9B I9B I9B I9B I9B I9B I9B I9B I9B I9B I9B I9B I9B I9B I9B I9B I9B I9B I9B I9B I9B I9B I9B I9B I9B I9B I9B I9B I9B I9B I9B I9B I9B I9B I9B I9B I9B I9B I9B I9B I9B I9B I9B I9B I9B I9B I9B I9B I9B I9B I9B I9B I9B I9B I9B I9B I9B I9B I9B I9B I9B I9B I9B I9B I9B I9B I9B I9B I9B I9B I9B I9B I9B I9B I9B I9B I9B I9B I9B I9B I9B I9B I9B I9B I9B I9B I9B I9B I9B I9B I9B I9B I9B I9B I9B I9B I9B I9B I9B I9B I9B I9B I9B I9B I9B I9B I9B I9B I9B I9B I9B I9B I9B I9B I9B I9B I9B I9B J77;C J77;C J77;C J77;C J77;C J77;C J77;C J77;C J77;C J77;C J77;C J77;C J77;C J77;C J77;C J77;C J77;C J77;C J77;C J77;C J77;C J77;C J77;C J77;C J77;C J77;C J77;C J77;C J77;C J77;C J77;C J77;C J77;C J77;C J77;C J77;C J77;C J77;C J77;C J77;C J77;C J77;C J77;C J77;C J77;C J77;C J77;C J77;C J77;C J77;C J77;C J77;C J77;C J77;C J77;C J77;C J77;C J77;C J77;C J77;C J77;C J77;C J77;C J77;C J77;C J77;C J77;C J77;C J77;C J77;C J77;C J77;C J77;C J77;C J77;C J77;C J77;C J77;C J77;C J77;C J77;C J77;C J77;C J77;C J77;C J77;C J77;C J77;C J77;C J77;C J77;C J77;C J77;C J77;C J77;C J77;C J77;C J77;C J77;C J77;C J77;C J77;C J77;C J77;C J77;C J77;C J77;C J77;C J77;C J77;C J77;C J77;C J77;C J77;C J77;C J77;C J77;C J77;C J77;C J77;C J77;C J77;C J77;C J77;C J77;C J77;C J77;C J77;C J77;C J77;C J77;C J77;C J77;C J77;C J77;C J77;C J77;C J77;C J77;C J77;C J77;C J77;C J77;C J77;C J77;C J77;C J77;C J77;C J77;C J77;C J77;C J77;C J77;C J77;C J77;C J77;C J77;C J77;C J77;C J77;C J77;C J77;C J77;C J77;C J77;C J77;C J77;C J77;C J77;C J77;C J77;C J77;C J77;C J77;C J77;C J77;C J77;C J77;C J77;C J77;C J77;C J77;C J77;C J77;C J77;C J77;C J77;C J77;C J77;C J77;C J77;C J77;C J77;C J77;C J77;C J77;C J77;C J77;C J77;C J77;C J77;C J77;C J77;C J77;C J77;C J77;C J77;C J77;C J77;C J77;C J77;C J77;C J77;C J77;C J77;C J77;C J77;C J77;C J77;C J77;C J77;C J77;C J77;C J77;C J77;C J77;C J77;C J77;C J77;C J77;C J77;C J77;C J77;C J77;C J77;C J77;C J77;C J77;C J77;C J77;C J77;C J77;C J77;C J77;C J77;C J77;C J77;C J77;C J77;C J77;C J77;C J77;C J77;C J77;C J77;C J77;C G77;C G77;C G77;C G77;C G77;C G77;C G77;C G77;C G77;C G77;C G77;C G77;C G77;C G77;C G77;C G77;C G77;C G77;C G77;C G77;C G77;C G77;C G77;C G77;C G77;C G77;C G77;C G77;C G77;C G77;C G77;C G77;C G77;C G77;C G77;C G77;C G77;C G77;C G77;C G77;C G77;C G77;C G77;C G77;C G77;C G77;C G77;C G77;C G77;C G77;C G77;C G77;C G77;C G77;C G77;C G77;C G77;C G77;C G77;C G77;C G77;C G77;C G77;C G77;C G77;C G77;C G77;C G77;C G77;C G77;C G77;C G77;C G77;C G77;C G77;C G77;C G77;C G77;C G77;C G77;C G77;C G77;C G77;C G77;C G77;C G77;C G77;C G77;C G77;C G77;C G77;C G77;C G77;C G77;C G77;C G77;C G77;C G77;C G77;C G77;C G77;C G77;C G;C G;C G;C G;C G;C G;C G;C G;C G;C G;C G;C G;C G;C G;C G;C G;C G;C G;C G;C G;C G;C G;C G;C G;C G;C G;C G;C G;C G;C G;C G;C G;C G;C G;C G;C G;C G;C G;C G;C G;C G;C G;C G;C G;C G;C G;C G;C G;C G;C G;C G;C G;C G;C G;C G;C G;C G;C G;C G;C G;C G;C G;C G;C G;C G;C G;C G;C G;C G;C G;C G;C G;C G;C G;C G;C G;C G;C G;C G;C G;C G;C G;C G;C G;C G;C G;C G;C G;C G;C G;C G;C G;C G;C G;C G;C G;C G;C G;C G;C G;C G;C G;C G;C G;C G;C G;C G;C G;C G;C G;C G;C G;C G;C G;C G;C G;C G;C G;C G;C G;C G;C G;C G;C G;C G;C G;C G;C G;C G;C G;C G;C G;C G;C G;C G;C G;C G;C G;C G;C G;C G;C G;C G;C G;C G;C G;C G;C G;C G;C G;C G;C G;C G;C G;C J99@ J99@ J99@ J99@ J99@ J99@ J99@ J99@ J99@ J99@ J99@ J99@ J99@ J99@ J99@ J99@ J99@ J99@ J99@ J99@ J99@ J99@ J99@ J99@ J99@ J99@ J99@ J99@ J99@ J99@ J99@ J99@ J99@ J99@ J99@ J99@ J99@ J99@ J99@ J99@ J99@ J99@ J99@ J99@ J99@ J99@ J99@ J99@ J99@ J99@ J99@ J99@ J99@ J99@ J99@ J99@ J99@ J99@ J99@ J99@ J99@ J99@ J99@ J99@ J99@ J99@ J99@ J99@ J99@ J99@ J99@ J99@ J99@ J99@ J99@ J99@ J99@ J99@ J99@ J99@ J99@ J99@ J99@ J99@ J99@ J99@ J99@ J99@ J99@ J99@ J99@ J99@ J99@ J99@ J99@ J99@ J99@ J99@ J99@ J99@ J99@ J99@ J99@ J99@ J99@ J99@ J99@ J99@ J99@ J99@ J99@ J99@ J99@ J99@ J99@ J99@ J99@ J99@ J99@ J99@ J99@ J99@ J99@ J99@ J99@ J99@ J99@ J99@ I99@ I99@ I99@ I99@ I99@ I99@ I99@ I99@ I99@ I99@ I99@ I99@ I99@ I99@ I99@ I99@ I99@ I99@ I99@ I99@ I99@ I99@ I99@ I99@ I99@ I99@ I99@ I99@ I99@ I99@ I99@ I99@ I99@ I99@ I99@ I99@ I99@ I99@ I99@ I99@ I99@ I99@ I99@ I99@ I99@ I99@ I99@ I99@ I99@ I99@ I99@ I99@ I99@ I99@ I99@ I99@ I99@ I99@ I99@ I99@ I99@ I99@ I99@ I99@ I99@ I99@ I99@ I99@ I99@ I99@ I99@ I99@ I99@ I99@ I99@ I99@ I99@ I99@ I99@ I99@ I99@ I99@ I99@ I99@ I99@ I99@ I99@ I99@ I99@ I99@ I99@ I99@ I99@ I99@ I99@ I99@ I99@ I99@ I99@ I99@ I99@ I99@ I99@ I99@ I99@ I99@ I99@ I99@ I99@ I99@ I99@ I99@ I99@ I99@ I99@ I99@ I99@ I99@ I99@ I99@ I99@ I99@ I99@ I99@ I99@ I99@ I99@ I99@ J99@ J99@ J99@ J99@ J99@ J99@ J99@ J99@ J99@ J99@ J99@ J99@ J99@ J99@ J99@ J99@ J99@ J99@ J99@ J99@ J99@ J99@ J99@ J99@ J99@ J99@ J99@ J99@ J99@ J99@ J99@ J99@ J99@ J99@ J99@ J99@ J99@ J99@ J99@ J99@ J99@ J99@ J99@ J99@ J99@ J99@ J99@ J99@ J99@ J99@ J99@ J99@ J99@ J99@ J99@ J99@ J99@ J99@ J99@ J99@ J99@ J99@ J99@ J99@ I99@ I99@ I99@ I99@ I99@ I99@ I99@ I99@ I99@ I99@ I99@ I99@ I99@ I99@ I99@ I99@ I99@ I99@ I99@ I99@ I99@ I99@ I99@ I99@ I99@ I99@ I99@ I99@ I99@ I99@ I99@ I99@ I99@ I99@ I99@ I99@ I99@ I99@ I@ I@ I@ I@ I@ I@ I@ I@ I@ I@ I@ I@ I@ I@ I@ I@ I@ I@ I@ I@ I@ I@ I@ I@ I@ I@ J@ J@ J@ J@ J@ J@ J@ J@ J@ J@ J@ J@ J@ J@ J@ J@ J@ J@ J@ J@ J@ J@ J@ J@ J@ J@ J@ J@ J@ J@ J@ J@ J@ J@ J@ J@ J@ J@ J@ J@ J@ J@ J@ J@ J@ J@ J@ J@ J@ J@ J@ J@ J@ J@ J@ J@ J@ J@ J@ J@ J@ J@ J@ J@ I@ I@ I@ I@ I@ I@ I@ I@ I@ I@ I@ I@ I@ I@ I@ I@ I@ I@ I@ I@ I@ I@ I@ I@ I@ I@ I@ I@ I@ I@ I@ I@ I@ I@ I@ I@ I@ I@ I@ I@ I@ I@ I@ I@ I@ I@ I@ I@ I@ I@ I@ I@ I@ I@ I@ I@ I@ I@ I@ I@ I@ I@ I@ I@ J-E-= J-E-= J-E-= J-E-= J-E-= J-E-= J-E-= J-E-= J-E-= J-E-= J-E-= J-E-= J-E-= J-E-= J-E-= J-E-= J-E-= J-E-= J-E-= J-E-= J-E-= J-E-= J-E-= J-E-= J-E-= J-E-= J-E-= J-E-= J-E-= J-E-= J-E-= J-E-= J-E-= J-E-= J-E-= J-E-= J-E-= J-E-= J-E-= J-E-= J-E-= J-E-= J-E-= J-E-= J-E-= J-E-= J-E-= J-E-= J-E-= J-E-= J-E-= J-E-= J-E-= J-E-= J-E-= J-E-= J-E-= J-E-= J-E-= J-E-= J-E-= J-E-= J-E-= J-E-= I-E-= I-E-= I-E-= I-E-= I-E-= I-E-= I-E-= I-E-= I-E-= I-E-= I-E-= I-E-= I-E-= I-E-= I-E-= I-E-= I-E-= I-E-= I-E-= I-E-= I-E-= I-E-= I-E-= I-E-= I-E-= I-E-= I-E-= I-E-= I-E-= I-E-= I-E-= I-E-= I-E-= I-E-= I-E-= I-E-= I-E-= I-E-= I-E-= I-E-= I-E-= I-E-= I-E-= I-E-= I-E-= I-E-= I-E-= I-E-= I-E-= I-E-= I-E-= I-E-= I-E-= I-E-= I-E-= I-E-= I-E-= I-E-= I-E-= I-E-= I-E-= I-E-= I-E-= I-E-= J-E-= J-E-= J-E-= J-E-= J-E-= J-E-= J-E-= J-E-= J-E-= J-E-= J-E-= J-E-= J-E-= J-E-= J-E-= J-E-= J-E-= J-E-= J-E-= J-E-= J-E-= J-E-= J-E-= J-E-= J-E-= J-E-= J-E-= J-E-= J-E-= J-E-= J-E-= J-E-= J-E-= J-E-= J-E-= J-E-= J-E-= J-E-= J-E-= J-E-= J-E-= J-E-= J-E-= J-E-= J-E-= J-E-= J-E-= J-E-= J-E-= J-E-= J-E-= J-E-= J-E-= J-E-= J-E-= J-E-= J-E-= J-E-= J-E-= J-E-= J-E-= J-E-= J-E-= J-E-= I-E-= I-E-= I-E-= I-E-= I-E-= I-E-= I-E-= I-E-= I-E-= I-E-= I-E-= I-E-= I-E-= I-E-= I-E-= I-E-= I-E-= I-E-= I-E-= I-E-= I-E-= I-E-= I-E-= I-E-= I-E-= I-E-= I-E-= I-E-= I-E-= I-E-= I-E-= I-E-= I-E-= I-E-= I-E-= I-E-= I-E-= I-E-= I-E-= I-E-= I-E-= I-E-= I-E-= I-E-= I-E-= I-E-= I-E-= I-E-= I-E-= I-E-= I-E-= I-E-= I-E-= I-E-= I-E-= I-E-= I-E-= I-E-= I-E-= I-E-= I-E-= I-E-= I-E-= I-E-= J--=C J--=C J--=C J--=C J--=C J--=C J--=C J--=C J--=C J--=C J--=C J--=C J--=C J--=C J--=C J--=C J--=C J--=C J--=C J--=C J--=C J--=C J--=C J--=C J--=C J--=C J--=C J--=C J--=C J--=C J--=C J--=C J--=C J--=C J--=C J--=C J--=C J--=C J--=C J--=C J--=C J--=C J--=C J--=C J--=C J--=C J--=C J--=C J--=C J--=C J--=C J--=C J--=C J--=C J--=C J--=C J--=C J--=C J--=C J--=C J--=C J--=C J--=C J--=C J--=C J--=C J--=C J--=C J--=C J--=C J--=C J--=C J--=C J--=C J--=C J--=C J--=C J--=C J--=C J--=C J--=C J--=C J--=C J--=C J--=C J--=C J--=C J--=C J--=C J--=C J--=C J--=C J--=C J--=C J--=C J--=C J--=C J--=C J--=C J--=C J--=C J--=C J=C J=C J=C J=C J=C J=C J=C J=C J=C J=C J=C J=C J=C J=C J=C J=C J=C J=C J=C J=C J=C J=C J=C J=C J=C J=C J=C J=C J=C J=C J=C J=C J=C J=C J=C J=C J=C J=C J=C J=C J=C J=C J=C J=C J=C J=C J=C J=C J=C J=C J=C J=C J=C J=C J=C J=C J=C J=C J=C J=C J=C J=C J=C J=C J=C J=C J=C J=C J=C J=C J=C J=C J=C J=C J=C J=C J=C J=C J=C J=C J=C J=C J=C J=C J=C J=C J=C J=C J=C J=C J=C J=C J=C J=C J=C J=C J=C J=C J=C J=C J=C J=C J=C J=C J=C J=C J=C J=C J=C J=C J=C J=C J=C J=C J=C J=C J=C J=C J=C J=C J=C J=C J=C J=C J=C J=C J=C J=C J=C J=C J=C J=C J=C J=C J=C J=C J=C J=C J=C J=C J=C J=C J=C J=C J=C J=C J=C J=C J=C J=C J=C J=C J=C J=C J229>B J229>B J229>B J229>B J229>B J229>B J229>B J229>B J229>B J229>B J229>B J229>B J229>B J229>B J229>B J229>B J229>B J229>B J229>B J229>B J229>B J229>B J229>B J229>B J229>B J229>B J229>B J229>B J229>B J229>B J229>B J229>B J229>B J229>B J229>B J229>B J229>B J229>B J229>B J229>B J229>B J229>B J229>B J229>B J229>B J229>B J229>B J229>B J229>B J229>B J229>B J229>B J229>B J229>B J229>B J229>B J229>B J229>B J229>B J229>B J229>B J229>B J229>B J229>B J229>B J229>B J229>B J229>B J229>B J229>B J229>B J229>B J229>B J229>B J229>B J229>B J229>B J229>B J229>B J229>B J229>B J229>B J229>B J229>B J229>B J229>B J229>B J229>B J229>B J229>B J229>B J229>B J229>B J229>B J229>B J229>B J229>B J229>B J229>B J229>B J229>B J229>B J229>B J229>B J229>B J229>B J229>B J229>B J229>B J229>B J229>B J229>B J229>B J229>B J229>B J229>B J229>B J229>B J229>B J229>B J229>B J229>B J229>B J229>B J229>B J229>B J229>B J229>B J229>B J229>B J229>B J229>B J229>B J229>B J229>B J229>B J229>B J229>B J229>B J229>B J229>B J229>B J229>B J229>B J229>B J229>B J229>B J229>B J229>B J229>B J229>B J229>B J229>B J229>B J229>B J229>B J229>B J229>B J229>B J229>B J229>B J229>B J229>B J229>B J229>B J229>B J229>B J229>B J229>B J229>B J229>B J229>B J229>B J229>B J229>B J229>B J229>B J229>B J229>B J229>B J229>B J229>B J229>B J229>B J229>B J229>B J229>B J229>B J229>B J229>B J229>B J229>B J229>B J229>B J229>B J229>B J229>B J229>B J229>B J229>B J229>B J229>B J229>B J229>B J229>B J229>B J229>B J229>B J229>B J229>B J229>B J229>B J229>B J229>B J229>B J229>B J229>B J229>B J229>B J229>B J229>B J229>B J229>B J229>B J229>B J229>B J229>B J229>B J229>B J229>B J229>B J229>B J229>B J229>B J229>B J229>B J229>B J229>B J229>B J229>B J229>B J229>B J229>B J229>B J229>B J229>B J229>B J229>B J229>B J229>B J229>B J229>B J229>B J229>B J229>B J229>B J229>B J229>B J229>B J229>B J229>B J229>B J229>B J229>B J229>B J229>B J229>B J229>B J229>B J229>B J229>B J229>B J229>B J229>B J229>B J229>B J229>B J229>B J229>B J229>B J229>B J229>B J229>B J229>B J229>B J229>B J229>B J229>B J229>B J229>B J229>B J229>B J229>B J229>B J229>B J229>B J229>B J229>B J229>B J229>B J229>B J229>B J229>B J229>B J229>B J229>B J229>B J229>B J229>B J229>B J229>B J229>B J229>B J229>B J229>B J229>B J229>B J229>B J229>B J229>B J229>B J229>B J229>B J229>B J229>B J229>B J229>B J229>B J229>B J229>B J229>B J229>B J229>B J229>B J229>B J229>B J229>B J229>B J229>B J229>B J229>B J229>B J229>B J229>B J229>B J229>B J229>B J229>B J229>B J229>B J229>B J229>B J229>B J229>B J229>B J229>B J229>B J229>B J9>B J9>B J9>B J9>B J9>B J9>B J9>B J9>B J9>B J9>B J9>B J9>B J9>B J9>B J9>B J9>B J9>B J9>B J9>B J9>B J9>B J9>B J9>B J9>B J9>B J9>B J9>B J9>B J9>B J9>B J9>B J9>B J9>B J9>B J9>B J9>B J9>B J9>B J9>B J9>B J9>B J9>B J9>B J9>B J9>B J9>B J9>B J9>B J9>B J9>B J9>B J9>B J9>B J9>B J9>B J9>B J9>B J9>B J9>B J9>B J9>B J9>B J9>B J9>B J9>B J9>B J9>B J9>B J9>B J9>B J9>B J9>B J9>B J9>B J9>B J9>B J9>B J9>B J9>B J9>B J9>B J9>B J9>B J9>B J9>B J9>B J9>B J9>B J9>B J9>B J9>B J9>B J9>B J9>B J9>B J9>B J9>B J9>B J9>B J9>B J9>B J9>B J9>B J9>B J9>B J9>B J9>B J9>B J9>B J9>B J9>B J9>B J9>B J9>B J9>B J9>B J9>B J9>B J9>B J9>B J9>B J9>B J9>B J9>B J9>B J9>B J9>B J9>B J9>B J9>B J9>B J9>B J9>B J9>B J9>B J9>B J9>B J9>B J9>B J9>B J9>B J9>B J9>B J9>B J9>B J9>B J9>B J9>B J9>B J9>B J9>B J9>B J9>B J9>B J119>B J119>B J119>B J119>B J119>B J119>B J119>B J119>B J119>B J119>B J119>B J119>B J119>B J119>B J119>B J119>B J119>B J119>B J119>B J119>B J119>B J119>B J119>B J119>B J119>B J119>B J119>B J119>B J119>B J119>B J119>B J119>B J119>B J119>B J119>B J119>B J119>B J119>B J119>B J119>B J119>B J119>B J119>B J119>B J119>B J119>B J119>B J119>B J119>B J119>B J119>B J119>B J119>B J119>B J119>B J119>B J119>B J119>B J119>B J119>B J119>B J119>B J119>B J119>B J119>B J119>B J119>B J119>B J119>B J119>B J119>B J119>B J119>B J119>B J119>B J119>B J119>B J119>B J119>B J119>B J119>B J119>B J119>B J119>B J119>B J119>B J119>B J119>B J119>B J119>B J119>B J119>B J119>B J119>B J119>B J119>B J119>B J119>B J119>B J119>B J119>B J119>B J119>B J119>B J119>B J119>B J119>B J119>B J119>B J119>B J119>B J119>B J119>B J119>B J119>B J119>B J119>B J119>B J119>B J119>B J119>B J119>B J119>B J119>B J119>B J119>B J119>B J119>B J119>B J119>B J119>B J119>B J119>B J119>B J119>B J119>B J119>B J119>B J119>B J119>B J119>B J119>B J119>B J119>B J119>B J119>B J119>B J119>B J119>B J119>B J119>B J119>B J119>B J119>B J119>B J119>B J119>B J119>B J119>B J119>B J119>B J119>B J119>B J119>B J119>B J119>B J119>B J119>B J119>B J119>B J119>B J119>B J119>B J119>B J119>B J119>B J119>B J119>B J119>B J119>B J119>B J119>B J119>B J119>B J119>B J119>B J119>B J119>B J119>B J119>B J119>B J119>B J119>B J119>B J119>B J119>B J119>B J119>B J119>B J119>B J119>B J119>B J119>B J119>B J119>B J119>B J119>B J119>B J119>B J119>B J119>B J119>B J119>B J119>B J119>B J119>B J119>B J119>B J119>B J119>B J119>B J119>B J119>B J119>B J119>B J119>B J119>B J119>B J119>B J119>B J119>B J119>B J119>B J119>B J119>B J119>B J119>B J119>B J119>B J119>B J119>B J119>B J119>B J119>B J119>B J119>B J119>B J119>B J119>B J119>B J119>B J119>B J119>B J119>B J119>B J119>B N119>B N119>B N119>B N119>B N119>B N119>B N119>B N119>B N119>B N119>B N119>B N119>B N119>B N119>B N119>B N119>B N119>B N119>B N119>B N119>B N119>B N119>B N119>B N119>B N119>B N119>B N119>B N119>B N119>B N119>B N119>B N119>B N119>B N119>B N119>B N119>B N119>B N119>B N119>B N119>B N119>B N119>B N119>B N119>B N119>B N119>B N119>B N119>B N119>B N119>B N119>B N119>B N119>B N119>B N119>B N119>B N119>B N119>B N119>B N119>B N119>B N119>B N119>B N119>B N119>B N119>B N119>B N119>B N119>B N119>B N119>B N119>B N119>B N119>B N119>B N119>B N119>B N119>B N119>B N119>B N119>B N119>B N119>B N119>B N119>B N119>B N119>B N119>B N119>B N119>B N119>B N119>B N119>B N119>B N119>B N119>B N119>B N119>B N119>B N119>B N119>B N119>B N9>B N9>B N9>B N9>B N9>B N9>B N9>B N9>B N9>B N9>B N9>B N9>B N9>B N9>B N9>B N9>B N9>B N9>B N9>B N9>B N9>B N9>B N9>B N9>B N9>B N9>B L9>B L9>B L9>B L9>B L9>B L9>B L9>B L9>B L9>B L9>B L9>B L9>B L9>B L9>B L9>B L9>B L9>B L9>B L9>B L9>B L9>B L9>B L9>B L9>B L9>B L9>B L9>B L9>B L9>B L9>B L9>B L9>B L9>B L9>B L9>B L9>B L9>B L9>B L9>B L9>B L9>B L9>B L9>B L9>B L9>B L9>B L9>B L9>B L9>B L9>B L9>B L9>B L9>B L9>B L9>B L9>B L9>B L9>B L9>B L9>B L9>B L9>B L9>B L9>B L9>B L9>B L9>B L9>B L9>B L9>B L9>B L9>B L9>B L9>B L9>B L9>B L9>B L9>B L9>B L9>B L9>B L9>B L9>B L9>B L9>B L9>B L9>B L9>B L9>B L9>B L9>B L9>B L9>B L9>B L9>B L9>B L9>B L9>B L9>B L9>B L9>B L9>B L9>B L9>B L9>B L9>B L9>B L9>B L9>B L9>B L9>B L9>B L9>B L9>B L9>B L9>B L9>B L9>B L9>B L9>B L9>B L9>B L9>B L9>B L9>B L9>B L9>B L9>B N229>B N229>B N229>B N229>B N229>B N229>B N229>B N229>B N229>B N229>B N229>B N229>B N229>B N229>B N229>B N229>B N229>B N229>B N229>B N229>B N229>B N229>B N229>B N229>B N229>B N229>B N229>B N229>B N229>B N229>B N229>B N229>B N229>B N229>B N229>B N229>B N229>B N229>B N229>B N229>B N229>B N229>B N229>B N229>B N229>B N229>B N229>B N229>B N229>B N229>B N229>B N229>B N229>B N229>B N229>B N229>B N229>B N229>B N229>B N229>B N229>B N229>B N229>B N229>B N229>B N229>B N229>B N229>B N229>B N229>B N229>B N229>B N229>B N229>B N229>B N229>B N229>B N229>B N229>B N229>B N229>B N229>B N229>B N229>B N229>B N229>B N229>B N229>B N229>B N229>B N229>B N229>B N229>B N229>B N229>B N229>B N229>B N229>B N229>B N229>B N229>B N229>B N229>B N229>B N229>B N229>B N229>B N229>B N229>B N229>B N229>B N229>B N229>B N229>B N229>B N229>B N229>B N229>B N229>B N229>B N229>B N229>B N229>B N229>B N229>B N229>B N229>B N229>B N229>B N229>B N229>B N229>B N229>B N229>B N229>B N229>B N229>B N229>B N229>B N229>B N229>B N229>B N229>B N229>B N229>B N229>B N229>B N229>B N229>B N229>B N229>B N229>B N229>B N229>B N229>B N229>B N229>B N229>B N229>B N229>B N229>B N229>B N229>B N229>B N229>B N229>B N229>B N229>B N229>B N229>B N229>B Q229>B Q229>B Q229>B Q229>B Q229>B Q229>B Q229>B Q229>B Q229>B Q229>B Q229>B Q229>B Q229>B Q229>B Q229>B Q229>B Q229>B Q229>B Q229>B Q229>B Q229>B Q229>B Q229>B Q229>B Q229>B Q229>B Q229>B Q229>B Q229>B Q229>B Q229>B Q229>B Q229>B Q229>B Q229>B Q229>B Q229>B Q229>B Q229>B Q229>B Q229>B Q229>B Q229>B Q229>B Q229>B Q229>B Q229>B Q229>B Q229>B Q229>B Q229>B Q229>B Q229>B Q229>B Q229>B Q229>B Q229>B Q229>B Q229>B Q229>B Q229>B Q229>B Q229>B Q229>B Q229>B Q229>B Q229>B Q229>B Q229>B Q229>B Q229>B Q229>B Q229>B Q229>B Q229>B Q229>B Q229>B Q229>B Q229>B Q229>B Q229>B Q229>B Q229>B Q229>B Q229>B Q229>B Q229>B Q229>B Q229>B Q229>B Q229>B Q229>B Q229>B Q229>B Q229>B Q229>B Q229>B Q229>B Q229>B Q229>B Q229>B Q229>B Q229>B Q229>B Q229>B Q229>B Q229>B Q229>B Q229>B Q229>B Q229>B Q229>B Q229>B Q229>B Q229>B Q229>B Q229>B Q229>B Q229>B Q229>B Q229>B Q229>B Q229>B Q229>B Q229>B Q229>B Q229>B Q229>B Q229>B Q229>B Q229>B Q229>B Q229>B Q229>B Q229>B Q229>B Q229>B Q229>B Q229>B Q229>B Q229>B Q229>B Q229>B Q229>B Q229>B Q229>B Q229>B Q229>B Q229>B Q229>B Q229>B Q229>B Q229>B Q229>B Q229>B Q229>B Q229>B Q229>B Q229>B Q229>B Q229>B Q229>B Q229>B Q229>B Q229>B Q229>B Q229>B Q229>B Q229>B Q229>B O229>B O229>B O229>B O229>B O229>B O229>B O229>B O229>B O229>B O229>B O229>B O229>B O229>B O229>B O229>B O229>B O229>B O9>B O9>B O9>B O9>B O9>B O9>B O9>B O9>B O9>B O9>B O9>B O9>B O9>B O9>B O9>B O9>B O9>B O9>B O9>B O9>B O9>B O9>B O9>B O9>B O9>B O9>B O9>B O9>B O9>B O9>B O9>B O9>B O9>B O9>B O9>B O9>B O9>B O9>B O9>B O9>B O9>B O9>B O9>B O9>B O9>B O9>B O9>B O9>B O9>B O9>B O9>B O9>B O9>B O9>B O9>B O9>B O9>B O9>B O9>B O9>B O9>B O9>B O9>B O9>B O9>B O9>B O9>B O9>B O9>B O9>B O9>B O9>B O9>B O9>B O9>B O9>B O9>B O9>B O9>B O9>B O9>B O9>B O9>B O9>B O9>B O9>B O9>B O9>B O9>B O9>B O9>B O9>B O9>B O9>B O9>B O9>B O9>B O9>B O9>B O9>B O9>B O9>B O9>B O9>B O9>B O9>B O9>B O9>B O9>B O9>B O9>B O9>B O9>B O9>B O9>B O9>B O9>B O9>B O9>B O9>B O9>B O9>B O9>B O9>B O9>B O9>B O9>B O9>B O9>B O9>B O9>B O9>B O9>B O9>B O9>B O9>B O9>B O9>B O9>B O9>B O9>B O9>B O9>B O9>B O9>B O9>B O9>B O9>B O9>B O9>B O9>B O9>B O9>B O9>B Q44=@ Q44=@ Q44=@ Q44=@ Q44=@ Q44=@ Q44=@ Q44=@ Q44=@ Q44=@ Q44=@ Q44=@ Q44=@ Q44=@ Q44=@ Q44=@ Q44=@ Q44=@ Q44=@ Q44=@ Q44=@ Q44=@ Q44=@ Q44=@ Q44=@ Q44=@ Q44=@ Q44=@ Q44=@ Q44=@ Q44=@ Q44=@ Q44=@ Q44=@ Q44=@ Q44=@ Q44=@ Q44=@ Q44=@ Q44=@ Q44=@ Q44=@ Q44=@ Q44=@ Q44=@ Q44=@ Q44=@ Q44=@ Q44=@ Q44=@ Q44=@ Q44=@ Q44=@ Q44=@ Q44=@ Q44=@ Q44=@ Q44=@ Q44=@ Q44=@ Q44=@ Q44=@ Q44=@ Q44=@ Q44=@ Q44=@ Q44=@ Q44=@ Q44=@ Q44=@ Q44=@ Q44=@ Q44=@ Q44=@ Q44=@ Q44=@ Q44=@ Q44=@ Q44=@ Q44=@ Q44=@ Q44=@ Q44=@ Q44=@ Q44=@ Q44=@ Q44=@ Q44=@ Q44=@ Q44=@ Q44=@ Q44=@ Q44=@ Q44=@ Q44=@ Q44=@ Q44=@ Q44=@ Q44=@ Q44=@ Q44=@ Q44=@ Q44=@ Q44=@ Q44=@ Q44=@ Q44=@ Q44=@ Q44=@ Q44=@ Q44=@ Q44=@ Q44=@ Q44=@ Q44=@ Q44=@ Q44=@ Q44=@ Q44=@ Q44=@ Q44=@ Q44=@ Q44=@ Q44=@ Q44=@ Q44=@ Q44=@ Q44=@ Q44=@ Q44=@ Q44=@ Q44=@ Q44=@ Q44=@ Q44=@ Q44=@ Q44=@ Q44=@ Q44=@ Q44=@ Q44=@ Q44=@ Q44=@ Q44=@ Q44=@ Q44=@ Q44=@ Q44=@ Q44=@ Q44=@ Q44=@ Q44=@ Q44=@ Q44=@ Q44=@ Q44=@ Q44=@ Q44=@ Q44=@ Q44=@ Q44=@ Q44=@ Q44=@ Q44=@ Q44=@ Q44=@ Q44=@ Q44=@ Q44=@ Q44=@ Q44=@ V44=@ V44=@ V44=@ V44=@ V44=@ V44=@ V44=@ V44=@ V44=@ V44=@ V44=@ V44=@ V44=@ V44=@ V44=@ V44=@ V44=@ V44=@ V44=@ V44=@ V44=@ V44=@ V44=@ V44=@ V44=@ V44=@ V44=@ V44=@ V44=@ V44=@ V44=@ V44=@ V44=@ V44=@ V44=@ V44=@ V44=@ V44=@ V44=@ V44=@ V44=@ V44=@ V44=@ V44=@ V44=@ V44=@ V44=@ V44=@ V44=@ V44=@ V44=@ V44=@ V44=@ V44=@ V44=@ V44=@ V44=@ V44=@ V44=@ V44=@ V44=@ V44=@ V44=@ V44=@ V44=@ V44=@ V44=@ V44=@ V44=@ V44=@ V44=@ V44=@ V44=@ V44=@ V44=@ V44=@ V44=@ V44=@ V44=@ V44=@ V44=@ V44=@ V44=@ V44=@ V44=@ V44=@ V44=@ V44=@ V44=@ V44=@ V44=@ V44=@ V44=@ V44=@ V44=@ V44=@ V44=@ V44=@ V44=@ V44=@ V44=@ V44=@ V44=@ V44=@ V44=@ V44=@ V44=@ V44=@ V44=@ V44=@ V44=@ V44=@ V44=@ V44=@ V44=@ V44=@ V44=@ V44=@ V44=@ V44=@ V44=@ V44=@ V44=@ V44=@ V44=@ V44=@ V44=@ V44=@ V44=@ V44=@ V44=@ V44=@ V44=@ V44=@ V44=@ V44=@ V44=@ V44=@ V44=@ V44=@ V44=@ V44=@ V44=@ V44=@ V44=@ V44=@ V44=@ V44=@ V44=@ V44=@ V44=@ V44=@ V44=@ V44=@ V44=@ V44=@ V44=@ V44=@ V44=@ V44=@ V44=@ V44=@ V44=@ V44=@ V44=@ V44=@ V44=@ V44=@ V44=@ V44=@ U44=@ U44=@ U44=@ U44=@ U44=@ U44=@ U44=@ U44=@ U44=@ U44=@ U44=@ U44=@ U44=@ U44=@ U44=@ U44=@ U44=@ U=@ U=@ U=@ U=@ U=@ U=@ U=@ U=@ U=@ U=@ U=@ U=@ U=@ U=@ U=@ U=@ U=@ U=@ U=@ U=@ U=@ U=@ U=@ U=@ U=@ U=@ U=@ U=@ U=@ U=@ U=@ U=@ U=@ U=@ U=@ U=@ U=@ U=@ U=@ U=@ U=@ U=@ U=@ U=@ U=@ U=@ U=@ U=@ U=@ U=@ U=@ U=@ U=@ U=@ U=@ U=@ U=@ U=@ U=@ U=@ U=@ U=@ U=@ U=@ U=@ U=@ U=@ U=@ U=@ U=@ U=@ U=@ U=@ U=@ U=@ U=@ U=@ U=@ U=@ U=@ U=@ U=@ U=@ U=@ U=@ U=@ U=@ U=@ U=@ U=@ U=@ U=@ U=@ U=@ U=@ U=@ U=@ U=@ U=@ U=@ U=@ U=@ U=@ U=@ U=@ U=@ U=@ U=@ U=@ U=@ U=@ U=@ U=@ U=@ U=@ U=@ U=@ U=@ U=@ U=@ U=@ U=@ U=@ U=@ U=@ U=@ U=@ U=@ U=@ U=@ U=@ U=@ U=@ U=@ U=@ U=@ U=@ U=@ U=@ U=@ U=@ U=@ U=@ U=@ U=@ U=@ U=@ U=@ U=@ U=@ U=@ U=@ U=@ U=@ V669> V669> V669> V669> V669> V669> V669> V669> V669> V669> V669> V669> V669> V669> V669> V669> V669> V669> V669> V669> V669> V669> V669> V669> V669> V669> V669> V669> V669> V669> V669> V669> V669> V669> V669> V669> V669> V669> V669> V669> V669> V669> V669> V669> V669> V669> V669> V669> V669> V669> V669> V669> V669> V669> V669> V669> V669> V669> V669> V669> V669> V669> V669> V669> V669> V669> V669> V669> V669> V669> V669> V669> V669> V669> V669> V669> V669> V669> V669> V669> V669> V669> V669> V669> V669> V669> V669> V669> V669> V669> V669> V669> V669> V669> V669> V669> V669> V669> V669> V669> V669> V669> V669> V669> V669> V669> V669> V669> V669> V669> V669> V669> V669> V669> V669> V669> V669> V669> V669> V669> V669> V669> V669> V669> V669> V669> V669> V669> V669> V669> V669> V669> V669> V669> V669> V669> V669> V669> V669> V669> V669> V669> V669> V669> V669> V669> V669> V669> V669> V669> V669> V669> V669> V669> V669> V669> V669> V669> V669> V669> V669> V669> V669> V669> V669> V669> V669> V669> V669> V669> V669> V669> V669> V669> V669> V669> V669> V669> V669> V669> V669> V669> V669> V669> V669> V669> V669> V669> V669> V669> V669> V669> V669> V669> V669> V669> V669> V669> V669> V669> V669> V669> V669> V669> V669> V669> V669> V669> V669> V669> V669> V669> V669> V669> V669> V669> V669> V669> V669> V669> V669> V669> V669> V669> V669> V669> V669> V669> V669> V669> V669> V669> V669> V669> V669> V669> V669> V669> V669> V669> V669> V669> V669> V669> V669> V669> V669> V669> V669> V669> V669> V669> V669> V669> V669> V669> V669> V669> V669> V669> V669> V669> V669> V669> V669> V669> V669> V669> V669> V669> V669> V669> V669> V669> V669> V669> V669> V669> V669> V669> V669> V669> V669> V669> V669> V669> V669> V669> V669> V669> V669> V669> V669> V669> V669> V669> V669> V669> V669> V669> V669> V669> V669> V669> V669> V669> V669> V669> V669> V669> V669> V669> V669> V669> V669> V669> V669> V669> V669> V669> V669> V669> V669> V669> V669> V669> V669> V669> V669> V669> V669> V669> V669> V669> V669> V669> V669> V669> V669> V669> V669> V669> V669> V669> V669> V669> V669> V669> V669> V669> V669> V669> V669> V669> V669> V669> V669> V669> V9> V9> V9> V9> V9> V9> V9> V9> V9> V9> V9> V9> V9> V9> V9> V9> V9> V9> V9> V9> V9> V9> V9> V9> V9> V9> V9> V9> V9> V9> V9> V9> V9> V9> V9> V9> V9> V9> V9> V9> V9> V9> V9> V9> V9> V9> V9> V9> V9> V9> V9> V9> V9> V9> V9> V9> V9> V9> V9> V9> V9> V9> V9> V9> V9> V9> V9> V9> V9> V9> V9> V9> V9> V9> V9> V9> V9> V9> V9> V9> V9> V9> V9> V9> V9> V9> V9> V9> V9> V9> V9> V9> V9> V9> V9> V9> V9> V9> V9> V9> V9> V9> V9> V9> V9> V9> V9> V9> V9> V9> V9> V9> V9> V9> V9> V9> V9> V9> V9> V9> V9> V9> V9> V9> V9> V9> V9> V9> V9> V9> V9> V9> V9> V9> V9> V9> V9> V9> V9> V9> V9> V9> V9> V9> V9> V9> V9> V9> V9> V9> V9> V9> V9> V9> 69>9 69>9 69>9 69>9 69>9 69>9 69>9 69>9 69>9 69>9 69>9 69>9 69>9 69>9 69>9 69>9 69>9 69>9 69>9 69>9 69>9 69>9 69>9 69>9 69>9 69>9 69>9 69>9 69>9 69>9 69>9 69>9 69>9 69>9 69>9 69>9 69>9 69>9 69>9 69>9 69>9 69>9 69>9 69>9 69>9 69>9 69>9 69>9 69>9 69>9 69>9 69>9 69>9 69>9 69>9 69>9 69>9 69>9 69>9 69>9 69>9 69>9 69>9 69>9 69>9 69>9 69>9 69>9 69>9 69>9 69>9 69>9 69>9 69>9 69>9 69>9 69>9 69>9 69>9 69>9 69>9 69>9 69>9 69>9 69>9 69>9 69>9 69>9 69>9 69>9 69>9 69>9 69>9 69>9 69>9 69>9 69>9 69>9 69>9 69>9 69>9 69>9 69>9 69>9 69>9 69>9 69>9 69>9 69>9 69>9 69>9 69>9 69>9 69>9 69>9 69>9 69>9 69>9 69>9 69>9 69>9 69>9 69>9 69>9 69>9 69>9 69>9 69>9 69>9 69>9 69>9 69>9 69>9 69>9 69>9 69>9 69>9 69>9 69>9 69>9 69>9 69>9 69>9 69>9 69>9 69>9 69>9 69>9 69>9 69>9 69>9 69>9 69>9 69>9 69>9 69>9 69>9 69>9 69>9 69>9 69>9 69>9 69>9 69>9 69>9 69>9 69>9 69>9 69>9 69>9 69>9 69>9 69>9 69>9 69>9 69>9 69>9 69>9 69>9 69>9 69>9 69>9 69>9 69>9 69>9 69>9 69>9 69>9 69>9 69>9 69>9 69>9 69>9 69>9 69>9 69>9 69>9 69>9 69>9 69>9 69>9 69>9 69>9 69>9 69>9 69>9 69>9 69>9 69>9 69>9 69>9 69>9 69>9 69>9 69>9 69>9 69>9 69>9 69>9 69>9 69>9 69>9 69>9 69>9 69>9 69>9 69>9 69>9 69>9 69>9 69>9 69>9 69>9 69>9 69>9 69>9 69>9 69>9 69>9 69>9 69>9 69>9 69>9 69>9 69>9 69>9 69>9 69>9 69>9 69>9 69>9 69>9 69>9 69>9 69>9 69>9 799@ 799@ 799@ 799@ 799@ 799@ 799@ 799@ 799@ 799@ 799@ 799@ 799@ 799@ 799@ 799@ 799@ 799@ 799@ 799@ 799@ 799@ 799@ 799@ 799@ 799@ 799@ 799@ 799@ 799@ 799@ 799@ 799@ 799@ 799@ 799@ 799@ 799@ 799@ 799@ 799@ 799@ 799@ 799@ 799@ 799@ 799@ 799@ 799@ 799@ 799@ 799@ 799@ 799@ 799@ 799@ 799@ 799@ 799@ 799@ 799@ 799@ 799@ 799@ 799@ 799@ 799@ 799@ 799@ 799@ 799@ 799@ 799@ 799@ 799@ 799@ 799@ 799@ 799@ 799@ 799@ 799@ 799@ 799@ 799@ 799@ 799@ 799@ 799@ 799@ 799@ 799@ 799@ 799@ 799@ 799@ 799@ 799@ 799@ 799@ 799@ 799@ 7@ 7@ 7@ 7@ 7@ 7@ 7@ 7@ 7@ 7@ 7@ 7@ 7@ 7@ 7@ 7@ 7@ 7@ 7@ 7@ 7@ 7@ 7@ 7@ 7@ 7@ 7@ 7@ 7@ 7@ 7@ 7@ 7@ 7@ 7@ 7@ 7@ 7@ 7@ 7@ 7@ 7@ 7@ 7@ 7@ 7@ 7@ 7@ 7@ 7@ 7@ 7@ 7@ 7@ 7@ 7@ 7@ 7@ 7@ 7@ 7@ 7@ 7@ 7@ 7@ 7@ 7@ 7@ 7@ 7@ 7@ 7@ 7@ 7@ 7@ 7@ 7@ 7@ 7@ 7@ 7@ 7@ 7@ 7@ 7@ 7@ 7@ 7@ 7@ 7@ 7@ 7@ 7@ 7@ 7@ 7@ 7@ 7@ 7@ 7@ 7@ 7@ 7@ 7@ 7@ 7@ 7@ 7@ 7@ 7@ 7@ 7@ 7@ 7@ 7@ 7@ 7@ 7@ 7@ 7@ 7@ 7@ 7@ 7@ 7@ 7@ 7@ 7@ 7@ 7@ 7@ 7@ 7@ 7@ 7@ 7@ 7@ 7@ 7@ 7@ 7@ 7@ 7@ 7@ 7@ 7@ 7@ 7@ 7@ 7@ 7@ 7@ 7@ 7@ 93B3< 93B3< 93B3< 93B3< 93B3< 93B3< 93B3< 93B3< 93B3< 93B3< 93B3< 93B3< 93B3< 93B3< 93B3< 93B3< 93B3< 93B3< 93B3< 93B3< 93B3< 93B3< 93B3< 93B3< 93B3< 93B3< 93B3< 93B3< 93B3< 93B3< 93B3< 93B3< 93B3< 93B3< 93B3< 93B3< 93B3< 93B3< 93B3< 93B3< 93B3< 93B3< 93B3< 93B3< 93B3< 93B3< 93B3< 93B3< 93B3< 93B3< 93B3< 93B3< 93B3< 93B3< 93B3< 93B3< 93B3< 93B3< 93B3< 93B3< 93B3< 93B3< 93B3< 93B3< 93B3< 93B3< 93B3< 93B3< 93B3< 93B3< 93B3< 93B3< 93B3< 93B3< 93B3< 93B3< 93B3< 93B3< 93B3< 93B3< 93B3< 93B3< 93B3< 93B3< 93B3< 93B3< 93B3< 93B3< 93B3< 93B3< 93B3< 93B3< 93B3< 93B3< 93B3< 93B3< 93B3< 93B3< 93B3< 93B3< 93B3< 93B3< 93B3< 93B3< 93B3< 93B3< 93B3< 93B3< 93B3< 93B3< 93B3< 93B3< 93B3< 93B3< 93B3< 93B3< 93B3< 93B3< 93B3< 93B3< 93B3< 93B3< 93B3< 93B3< 93B3< 93B3< 93B3< 93B3< 93B3< 93B3< 93B3< 93B3< 93B3< 93B3< 93B3< 93B3< 93B3< 93B3< 93B3< 93B3< 93B3< 93B3< 93B3< 93B3< 93B3< 93B3< 93B3< 93B3< 93B3< 93B3< 93B3< 93B3< 93B3< 93B3< 93B3< 93B3< 93B3< 93B3< 93B3< 93B3< 93B3< 93B3< 93B3< 93B3< 93B3< 93B3< 93B3< 93B3< 93B3< 93B3< 93B3< 93B3< 93B3< 93B3< 93B3< 93B3< 93B3< 93B3< 93B3< 93B3< 93B3< 93B3< 93B3< 93B3< 93B3< 93B3< 93B3< 93B3< 93B3< 93B3< 93B3< 93B3< 93B3< 93B3< 93B3< 93B3< 93B3< 93B3< 93B3< 93B3< 93B3< 93B3< 93B3< 93B3< 93B3< 93B3< 93B3< 93B3< 93B3< 93B3< 93B3< 93B3< 93B3< 93B3< 93B3< 93B3< 93B3< 93B3< 93B3< 93B3< 93B3< 93B3< 93B3< 93B3< 93B3< 93B3< 93B3< 93B3< 93B3< 93B3< 93B3< 93B3< 93B3< 93B3< 93B3< 93B3< 93B3< 93B3< 93B3< 93B3< 93B3< 93B3< 93B3< 93B3< 93B3< 93B3< 93B3< 93B3< 93B3< 93B3< 93B3< 93B3< 93B3< 93B3< 93B3< 93B3< G;33C< G;33C< G;33C< G;33C< G;33C< G;33C< G;33C< G;33C< G;33C< G;33C< G;33C< G;33C< G;33C< G;33C< G;33C< G;33C< G;33C< G;33C< G;33C< G;33C< G;33C< G;33C< G;33C< G;33C< G;33C< G;33C< G;33C< G;33C< G;33C< G;33C< G;33C< G;33C< G;33C< G;33C< G;33C< G;33C< G;33C< G;33C< G;33C< G;33C< G;33C< G;33C< G;33C< G;33C< G;33C< G;33C< G;33C< G;33C< G;33C< G;33C< G;33C< G;33C< G;33C< G;33C< G;33C< G;33C< G;33C< G;33C< G;33C< G;33C< G;33C< G;33C< G;33C< G;33C< G;33C< G;33C< G;33C< G;33C< G;33C< G;33C< G;33C< G;33C< G;33C< G;33C< G;33C< G;33C< G;33C< G;33C< G;33C< G;33C< G;33C< G;33C< G;33C< G;33C< G;33C< G;33C< G;33C< G;33C< G;33C< G;33C< G;33C< G;33C< G;33C< G;33C< G;33C< G;33C< G;33C< G;33C< G;33C< G;33C< G;33C< G;33C< G;C< G;C< G;C< G;C< G;C< G;C< G;C< G;C< G;C< G;C< G;C< G;C< G;C< G;C< G;C< G;C< G;C< G;C< G;C< G;C< G;C< G;C< G;C< G;C< G;C< G;C< G;C< G;C< G;C< G;C< G;C< G;C< G;C< G;C< G;C< G;C< G;C< G;C< G;C< G;C< G;C< G;C< G;C< G;C< G;C< G;C< G;C< G;C< G;C< G;C< G;C< G;C< G;C< G;C< G;C< G;C< G;C< G;C< G;C< G;C< G;C< G;C< G;C< G;C< G;C< G;C< G;C< G;C< G;C< G;C< G;C< G;C< G;C< G;C< G;C< G;C< G;C< G;C< G;C< G;C< G;C< G;C< G;C< G;C< G;C< G;C< G;C< G;C< G;C< G;C< G;C< G;C< G;C< G;C< G;C< G;C< G;C< G;C< G;C< G;C< G;C< G;C< G;C< G;C< G;C< G;C< G;C< G;C< G;C< G;C< G;C< G;C< G;C< G;C< G;C< G;C< G;C< G;C< G;C< G;C< G;C< G;C< G;C< G;C< G;C< G;C< G;C< G;C< G;C< G;C< G;C< G;C< G;C< G;C< G;C< G;C< G;C< G;C< G;C< G;C< G;C< G;C< G;C< G;C< G;C< G;C< G;C< G;C< G;C< G;C< G;C< G;C< G;C< G;C< E<4B4< E<4B4< E<4B4< E<4B4< E<4B4< E<4B4< E<4B4< E<4B4< E<4B4< E<4B4< E<4B4< E<4B4< E<4B4< E<4B4< E<4B4< E<4B4< E<4B4< E<4B4< E<4B4< E<4B4< E<4B4< E<4B4< E<4B4< E<4B4< E<4B4< E<4B4< E<4B4< E<4B4< E<4B4< E<4B4< E<4B4< E<4B4< E<4B4< E<4B4< E<4B4< E<4B4< E<4B4< E<4B4< E<4B4< E<4B4< E<4B4< E<4B4< E<4B4< E<4B4< E<4B4< E<4B4< E<4B4< E<4B4< E<4B4< E<4B4< E<4B4< E<4B4< E<4B4< E<4B4< E<4B4< E<4B4< E<4B4< E<4B4< E<4B4< E<4B4< E<4B4< E<4B4< E<4B4< E<4B4< E<4B4< E<4B4< E<4B4< E<4B4< E<4B4< E<4B4< E<4B4< E<4B4< E<4B4< E<4B4< E<4B4< E<4B4< E<4B4< E<4B4< E<4B4< E<4B4< E<4B4< E<4B4< E<4B4< E<4B4< E<4B4< E<4B4< E<4B4< E<4B4< E<4B4< E<4B4< E<4B4< E<4B4< E<4B4< E<4B4< E<4B4< E<4B4< E<4B4< E<4B4< E<4B4< E<4B4< E<4B4< E<4B4< E<4B4< E<4B4< E<4B4< E<4B4< E<4B4< E<4B4< E<4B4< E<4B4< E<4B4< E<4B4< E<4B4< E<4B4< E<4B4< E<4B4< E<4B4< E<4B4< E<4B4< E<4B4< E<4B4< E<4B4< E<4B4< E<4B4< E<4B4< E<4B4< E<4B4< E<4B4< E<4B4< E<4B4< E<4B4< E<4B4< E<4B4< E<4B4< E<4B4< E<4B4< E<4B4< E<4B4< E<4B4< E<4B4< E<4B4< E<4B4< E<4B4< E<4B4< E<4B4< E<4B4< E<4B4< E<4B4< E<4B4< E<4B4< E<4B4< E<4B4< E<4B4< E<4B4< E<4B4< E<4B4< E<4B4< E<4B4< E<4B4< E<4B4< E<4B4< E<4B4< E<4B4< E<4B4< E<4B4< E<4B4< E<4B4< E<4B4< E<4B4< E<4B4< E<4B4< E<4B4< E<4B4< E<4B4< E<4B4< E<4B4< E<4B4< E<4B4< E<4B4< E<4B4< E<4B4< E<4B4< E<4B4< E<4B4< E<4B4< E<4B4< E<4B4< E<4B4< E<4B4< E<4B4< E<4B4< E<4B4< E<4B4< E<4B4< E<4B4< E<4B4< E<4B4< E<4B4< E<4B4< E<4B4< E<4B4< E<4B4< E<4B4< E<4B4< E<4B4< E<4B4< E<4B4< E<4B4< E<4B4< E<4B4< E<4B4< E<4B4< E<4B4< E<4B4< E<4B4< E<4B4< E<4B4< E<4B4< E<4B4< E<4B4< E<4B4< E<4B4< E<4B4< E<4B4< E<4B4< E<4B4< E<4B4< E<4B4< E<4B4< E<4B4< E<4B4< E<4B4< E<4B4< E<4B4< E<4B4< E<4B4< E<4B4< E<4B4< E<4B4< E<4B4< E<4B4< E<4B4< E<4B4< E<4B4< E<4B4< E<4B4< E<4B4< E<4B4< E<4B4< E<4B4< E<4B4< E<4B4< E<4B4< E<4B4< E<4B4< E<4B4< C<44@< C<44@< C<44@< C<44@< C<44@< C<44@< C<44@< C<44@< C<44@< C<44@< C<44@< C<44@< C<44@< C<44@< C<44@< C<44@< C<44@< C<44@< C<44@< C<44@< C<44@< C<44@< C<44@< C<44@< C<44@< C<44@< C<44@< C<44@< C<44@< C<44@< C<44@< C<44@< C<44@< C<44@< C<44@< C<44@< C<44@< C<44@< C<44@< C<44@< C<44@< C<44@< C<44@< C<44@< C<44@< C<44@< C<44@< C<44@< C<44@< C<44@< C<44@< C<44@< C<44@< C<44@< C<44@< C<44@< C<44@< C<44@< C<44@< C<44@< C<44@< C<44@< C<44@< C<44@< C<44@< C<44@< C<44@< C<44@< C<44@< C<44@< C<44@< C<44@< C<44@< C<44@< C<44@< C<44@< C<44@< C<44@< C<44@< C<44@< C<44@< C<44@< C<44@< C<44@< C<44@< C<44@< C<44@< C<44@< C<44@< C<44@< C<44@< C<44@< C<44@< C<44@< C<44@< C<44@< C<44@< C<44@< C<44@< C<44@< C<44@< C<44@< C<@< C<@< C<@< C<@< C<@< C<@< C<@< C<@< C<@< C<@< C<@< C<@< C<@< C<@< C<@< C<@< C<@< C<@< C<@< C<@< C<@< C<@< C<@< C<@< C<@< C<@< C<@< C<@< C<@< C<@< C<@< C<@< C<@< C<@< C<@< C<@< C<@< C<@< C<@< C<@< C<@< C<@< C<@< C<@< C<@< C<@< C<@< C<@< C<@< C<@< C<@< C<@< C<@< C<@< C<@< C<@< C<@< C<@< C<@< C<@< C<@< C<@< C<@< C<@< C<@< C<@< C<@< C<@< C<@< C<@< C<@< C<@< C<@< C<@< C<@< C<@< C<@< C<@< C<@< C<@< C<@< C<@< C<@< C<@< C<@< C<@< C<@< C<@< C<@< C<@< C<@< C<@< C<@< C<@< C<@< C<@< C<@< C<@< C<@< C<@< C<@< C<@< C<@< C<@< C<@< C<@< C<@< C<@< C<@< C<@< C<@< C<@< C<@< C<@< C<@< C<@< C<@< C<@< C<@< C<@< C<@< C<@< C<@< C<@< C<@< C<@< C<@< C<@< C<@< C<@< C<@< C<@< C<@< C<@< C<@< C<@< C<@< C<@< C<@< C<@< C<@< C<@< C<@< C<@< C<@< C<@< C<@< C<@< C<@< C<@< C<@< C<@< C<@< C<@< E<66<? E<66<? E<66<? E<66<? E<66<? E<66<? E<66<? E<66<? E<66<? E<66<? E<66<? E<66<? E<66<? E<66<? E<66<? E<66<? E<66<? E<66<? E<66<? E<66<? E<66<? E<66<? E<66<? E<66<? E<66<? E<66<? E<66<? E<66<? E<66<? E<66<? E<66<? E<66<? E<66<? E<66<? E<66<? E<66<? E<66<? E<66<? E<66<? E<66<? E<66<? E<66<? E<66<? E<66<? E<66<? E<66<? E<66<? E<66<? E<66<? E<66<? E<66<? E<66<? E<66<? E<66<? E<66<? E<66<? E<66<? E<66<? E<66<? E<66<? E<66<? E<66<? E<66<? E<66<? E<66<? E<66<? E<66<? E<66<? E<66<? E<66<? E<66<? E<66<? E<66<? E<66<? E<66<? E<66<? E<66<? E<66<? E<66<? E<66<? E<66<? E<66<? E<66<? E<66<? E<66<? E<66<? E<66<? E<66<? E<66<? E<66<? E<66<? E<66<? E<66<? E<66<? E<66<? E<66<? E<66<? E<66<? E<66<? E<66<? E<66<? E<66<? E<66<? E<66<? E<66<? E<66<? E<66<? E<66<? E<66<? E<66<? E<66<? E<66<? E<66<? E<66<? E<66<? E<66<? E<66<? E<66<? E<66<? E<66<? E<66<? E<66<? E<66<? E<66<? E<66<? E<66<? E<66<? E<66<? E<66<? E<66<? E<66<? E<66<? E<66<? E<66<? E<66<? E<66<? E<66<? E<66<? E<66<? E<66<? E<66<? E<66<? E<66<? E<66<? E<66<? E<66<? E<66<? E<66<? E<66<? E<66<? E<66<? E<66<? E<66<? E<66<? E<66<? E<66<? E<66<? E<66<? E<66<? E<66<? E<66<? E<66<? E<66<? E<66<? E<66<? E<66<? E<66<? E<66<? E<66<? E<66<? E<66<? E<66<? E<66<? E<66<? E<66<? E<66<? E<66<? E<66<? E<66<? E<66<? E<66<? E<66<? E<66<? E<66<? E<66<? E<66<? E<66<? E<66<? E<66<? E<66<? E<66<? E<66<? E<66<? E<66<? E<66<? E<66<? E<66<? E<66<? E<66<? E<66<? E<66<? E<66<? E<66<? E<66<? E<66<? E<66<? E<66<? E<66<? E<66<? E<66<? E<66<? E<66<? E<66<? E<66<? E<66<? E<66<? E<66<? E<66<? E<66<? E<66<? E<66<? E<66<? E<66<? E<66<? E<66<? E<66<? E<66<? E<66<? E<66<? E<66<? E<66<? E<66<? E<66<? E<66<? E<66<? E<66<? E<66<? E<66<? E<66<? E<66<? E<66<? E<66<? E<66<? E<66<? E<66<? E<66<? E<66<? E<66<? E<66<? E<66<? E<66<? E<66<? E<66<? E<66<? E<66<? E<66<? H<66<? H<66<? H<66<? H<66<? H<66<? H<66<? H<66<? H<66<? H<66<? H<66<? H<66<? H<66<? H<66<? H<66<? H<66<? H<66<? H<66<? H<66<? H<66<? H<66<? H<66<? H<66<? H<66<? H<66<? H<66<? H<66<? H<66<? H<66<? H<66<? H<66<? H<66<? H<66<? H<66<? H<66<? H<66<? H<66<? H<66<? H<66<? H<66<? H<66<? H<66<? H<66<? H<66<? H<66<? H<66<? H<66<? H<66<? H<66<? H<66<? H<66<? H<66<? H<66<? H<66<? H<66<? H<66<? H<66<? H<66<? H<66<? H<66<? H<66<? H<66<? H<66<? H<66<? H<66<? H<66<? H<66<? H<66<? H<66<? H<66<? H<66<? H<66<? H<66<? H<66<? H<66<? H<66<? H<66<? H<66<? H<66<? H<66<? H<66<? H<66<? H<66<? H<66<? H<66<? H<66<? H<66<? H<66<? H<66<? H<66<? H<66<? H<66<? H<66<? H<66<? H<66<? H<66<? H<66<? H<66<? H<66<? H<66<? H<66<? H<66<? H<66<? H<<? H<<? H<<? H<<? H<<? H<<? H<<? H<<? H<<? H<<? H<<? H<<? H<<? H<<? H<<? H<<? H<<? H<<? H<<? H<<? H<<? H<<? H<<? H<<? H<<? H<<? H<<? H<<? H<<? H<<? H<<? H<<? H<<? H<<? H<<? H<<? H<<? H<<? H<<? H<<? H<<? H<<? H<<? H<<? H<<? H<<? H<<? H<<? H<<? H<<? H<<? H<<? H<<? H<<? H<<? H<<? H<<? H<<? H<<? H<<? H<<? H<<? H<<? H<<? H<<? H<<? H<<? H<<? H<<? H<<? H<<? H<<? H<<? H<<? H<<? H<<? H<<? H<<? H<<? H<<? H<<? H<<? H<<? H<<? H<<? H<<? H<<? H<<? H<<? H<<? H<<? H<<? H<<? H<<? H<<? H<<? H<<? H<<? H<<? H<<? H<<? H<<? H<<? H<<? H<<? H<<? H<<? H<<? H<<? H<<? H<<? H<<? H<<? H<<? H<<? H<<? H<<? H<<? H<<? H<<? H<<? H<<? H<<? H<<? H<<? H<<? H<<? H<<? H<<? H<<? H<<? H<<? H<<? H<<? H<<? H<<? H<<? H<<? H<<? H<<? H<<? H<<? H<<? H<<? H<<? H<<? H<<? H<<? H<<? H<<? H<<? H<<? H<<? H<<? K;77@G K;77@G K;77@G K;77@G K;77@G K;77@G K;77@G K;77@G K;77@G K;77@G K;77@G K;77@G K;77@G K;77@G K;77@G K;77@G K;77@G K;77@G K;77@G K;77@G K;77@G K;77@G K;77@G K;77@G K;77@G K;77@G K;77@G K;77@G K;77@G K;77@G K;77@G K;77@G K;77@G K;77@G K;77@G K;77@G K;77@G K;77@G K;77@G K;77@G K;77@G K;77@G K;77@G K;77@G K;77@G K;77@G K;77@G K;77@G K;77@G K;77@G K;77@G K;77@G K;77@G K;77@G K;77@G K;77@G K;77@G K;77@G K;77@G K;77@G K;77@G K;77@G K;77@G K;77@G K;77@G K;77@G K;77@G K;77@G K;77@G K;77@G K;77@G K;77@G K;77@G K;77@G K;77@G K;77@G K;77@G K;77@G K;77@G K;77@G K;77@G K;77@G K;77@G K;77@G K;77@G K;77@G K;77@G K;77@G K;77@G K;77@G K;77@G K;77@G K;77@G K;77@G K;77@G K;77@G K;77@G K;77@G K;77@G K;77@G K;77@G K;77@G K;77@G K;77@G K;77@G K;77@G K;77@G K;77@G K;77@G K;77@G K;77@G K;77@G K;77@G K;77@G K;77@G K;77@G K;77@G K;77@G K;77@G K;77@G K;77@G K;77@G K;77@G K;77@G K;77@G K;77@G K;77@G K;77@G K;77@G K;77@G K;77@G K;77@G K;77@G K;77@G K;77@G K;77@G K;77@G K;77@G K;77@G K;77@G K;77@G K;77@G K;77@G K;77@G K;77@G K;77@G K;77@G K;77@G K;77@G K;77@G K;77@G K;77@G K;77@G K;77@G K;77@G K;77@G K;77@G K;77@G K;77@G K;77@G K;77@G K;77@G K;77@G K;77@G K;77@G K;77@G K;77@G K;77@G K;77@G K;77@G K;77@G K;77@G K;77@G K;77@G K;77@G K;77@G K;77@G K;77@G K;77@G K;77@G K;77@G K;77@G K;77@G K;77@G K;77@G K;77@G K;77@G K;77@G K;77@G K;77@G K;77@G K;77@G K;77@G K;77@G K;77@G K;77@G K;77@G K;77@G K;77@G K;77@G K;77@G K;77@G K;77@G K;77@G K;77@G K;77@G K;77@G K;77@G K;77@G K;77@G K;77@G K;77@G K;77@G K;77@G K;77@G K;77@G K;77@G K;77@G K;77@G K;77@G K;77@G K;77@G K;77@G K;77@G K;77@G K;77@G K;77@G K;77@G K;77@G K;77@G K;77@G K;77@G K;77@G K;77@G K;77@G K;77@G K;77@G K;77@G K;77@G K;77@G K;77@G K;77@G K;77@G K;77@G K;77@G K;77@G K;77@G K;77@G K;77@G K;77@G K;77@G K;77@G K;77@G K;77@G K;77@G K;77@G L;77@G L;77@G L;77@G L;77@G L;77@G L;77@G L;77@G L;77@G L;77@G L;77@G L;77@G L;77@G L;77@G L;77@G L;77@G L;77@G L;77@G L;77@G L;77@G L;77@G L;77@G L;77@G L;77@G L;77@G L;77@G L;77@G L;77@G L;77@G L;77@G L;77@G L;77@G L;77@G L;77@G L;77@G L;77@G L;77@G L;77@G L;77@G L;77@G L;77@G L;77@G L;77@G L;77@G L;77@G L;77@G L;77@G L;77@G L;77@G L;77@G L;77@G L;77@G L;77@G L;77@G L;77@G L;77@G L;77@G L;77@G L;77@G L;77@G L;77@G L;77@G L;77@G L;77@G L;77@G L;77@G L;77@G L;77@G L;77@G L;77@G L;77@G L;77@G L;77@G L;77@G L;77@G L;77@G L;77@G L;77@G L;77@G L;77@G L;77@G L;77@G L;77@G L;77@G L;77@G L;77@G L;77@G L;77@G L;77@G L;77@G L;77@G L;77@G L;77@G L;77@G L;77@G L;77@G L;77@G L;77@G L;77@G L;77@G L;77@G L;77@G L;77@G L;@G L;@G L;@G L;@G L;@G L;@G L;@G L;@G L;@G L;@G L;@G L;@G L;@G L;@G L;@G L;@G L;@G L;@G L;@G L;@G L;@G L;@G L;@G L;@G L;@G L;@G L;@G L;@G L;@G L;@G L;@G L;@G L;@G L;@G L;@G L;@G L;@G L;@G L;@G L;@G L;@G L;@G L;@G L;@G L;@G L;@G L;@G L;@G L;@G L;@G L;@G L;@G L;@G L;@G L;@G L;@G L;@G L;@G L;@G L;@G L;@G L;@G L;@G L;@G L;@G L;@G L;@G L;@G L;@G L;@G L;@G L;@G L;@G L;@G L;@G L;@G L;@G L;@G L;@G L;@G L;@G L;@G L;@G L;@G L;@G L;@G L;@G L;@G L;@G L;@G L;@G L;@G L;@G L;@G L;@G L;@G L;@G L;@G L;@G L;@G L;@G L;@G L;@G L;@G L;@G L;@G L;@G L;@G L;@G L;@G L;@G L;@G L;@G L;@G L;@G L;@G L;@G L;@G L;@G L;@G L;@G L;@G L;@G L;@G L;@G L;@G L;@G L;@G L;@G L;@G L;@G L;@G L;@G L;@G L;@G L;@G L;@G L;@G L;@G L;@G L;@G L;@G L;@G L;@G L;@G L;@G L;@G L;@G L;@G L;@G L;@G L;@G L;@G L;@G N999?E N999?E N999?E N999?E N999?E N999?E N999?E N999?E N999?E N999?E N999?E N999?E N999?E N999?E N999?E N999?E N999?E N999?E N999?E N999?E N999?E N999?E N999?E N999?E N999?E N999?E N999?E N999?E N999?E N999?E N999?E N999?E N999?E N999?E N999?E N999?E N999?E N999?E N999?E N999?E N999?E N999?E N999?E N999?E N999?E N999?E N999?E N999?E N999?E N999?E N999?E N999?E N999?E N999?E N999?E N999?E N999?E N999?E N999?E N999?E N999?E N999?E N999?E N999?E N999?E N999?E N999?E N999?E N999?E N999?E N999?E N999?E N999?E N999?E N999?E N999?E N999?E N999?E N999?E N999?E N999?E N999?E N999?E N999?E N999?E N999?E N999?E N999?E N999?E N999?E N999?E N999?E N999?E N999?E N999?E N999?E N999?E N999?E N999?E N999?E N999?E N999?E N999?E N999?E N999?E N999?E N999?E N999?E N999?E N999?E N999?E N999?E N999?E N999?E N999?E N999?E N999?E N999?E N999?E N999?E N999?E N999?E N999?E N999?E N999?E N999?E N999?E N999?E N999?E N999?E N999?E N999?E N999?E N999?E N999?E N999?E N999?E N999?E N999?E N999?E N999?E N999?E N999?E N999?E N999?E N999?E N999?E N999?E N999?E N999?E N999?E N999?E N999?E N999?E N999?E N999?E N999?E N999?E N999?E N999?E N999?E N999?E N999?E N999?E N999?E N999?E N999?E N999?E N999?E N999?E N999?E N999?E N999?E N999?E N999?E N999?E N999?E N999?E N999?E N999?E N999?E N999?E N999?E N999?E N999?E N999?E N999?E N999?E N999?E N999?E N999?E N999?E N999?E N999?E N999?E N999?E N999?E N999?E N999?E N999?E N999?E N999?E N999?E N999?E N999?E N999?E N999?E N999?E N999?E N999?E N999?E N999?E N999?E N999?E N999?E N999?E N999?E N999?E N999?E N999?E N999?E N999?E N999?E N999?E N999?E N999?E N999?E N999?E N999?E N999?E N999?E N999?E N999?E N999?E N999?E N999?E N999?E N999?E N999?E N999?E N999?E N999?E N999?E N999?E N999?E N999?E N999?E N999?E N999?E N999?E N999?E N999?E N999?E N999?E N999?E N999?E N999?E N999?E N999?E N999?E N999?E N999?E N999?E N999?E N999?E N999?E N999?E N999?E N999?E N999?E N999?E N999?E N999?E N999?E N999?E N999?E N999?E N999?E N999?E N999?E N999?E N999?E N999?E N999?E N999?E N999?E N999?E N999?E N999?E N999?E N999?E N999?E N999?E N999?E N999?E N999?E N999?E N999?E N999?E N999?E N999?E N999?E N999?E N999?E N999?E N999?E N999?E N999?E N999?E N999?E N999?E N999?E N999?E N999?E N999?E N999?E N999?E N999?E N999?E N999?E N999?E N999?E N999?E N999?E N999?E N999?E N999?E N999?E N999?E N999?E N999?E N999?E N999?E N999?E N999?E N999?E N999?E N999?E N999?E N999?E N999?E N999?E N999?E N999?E N999?E N999?E N999?E N999?E N999?E N999?E N999?E N999?E N999?E N999?E N999?E N999?E N999?E N999?E N9?E N9?E N9?E N9?E N9?E N9?E N9?E N9?E N9?E N9?E N9?E N9?E N9?E N9?E N9?E N9?E N9?E N9?E N9?E N9?E N9?E N9?E N9?E N9?E N9?E N9?E N9?E N9?E N9?E N9?E N9?E N9?E N9?E N9?E N9?E N9?E N9?E N9?E N9?E N9?E N9?E N9?E N9?E N9?E N9?E N9?E N9?E N9?E N9?E N9?E N9?E N9?E N9?E N9?E N9?E N9?E N9?E N9?E N9?E N9?E N9?E N9?E N9?E N9?E N9?E N9?E N9?E N9?E N9?E N9?E N9?E N9?E N9?E N9?E N9?E N9?E N9?E N9?E N9?E N9?E N9?E N9?E N9?E N9?E N9?E N9?E N9?E N9?E N9?E N9?E N9?E N9?E N9?E N9?E N9?E N9?E N9?E N9?E N9?E N9?E N9?E N9?E N9?E N9?E N9?E N9?E N9?E N9?E N9?E N9?E N9?E N9?E N9?E N9?E N9?E N9?E N9?E N9?E N9?E N9?E N9?E N9?E N9?E N9?E N9?E N9?E N9?E N9?E N9?E N9?E N9?E N9?E N9?E N9?E N9?E N9?E N9?E N9?E N9?E N9?E N9?E N9?E N9?E N9?E N9?E N9?E N9?E N9?E N9?E N9?E N9?E N9?E N9?E N9?E 7;;C@ 7;;C@ 7;;C@ 7;;C@ 7;;C@ 7;;C@ 7;;C@ 7;;C@ 7;;C@ 7;;C@ 7;;C@ 7;;C@ 7;;C@ 7;;C@ 7;;C@ 7;;C@ 7;;C@ 7;;C@ 7;;C@ 7;;C@ 7;;C@ 7;;C@ 7;;C@ 7;;C@ 7;;C@ 7;;C@ 7;;C@ 7;;C@ 7;;C@ 7;;C@ 7;;C@ 7;;C@ 7;;C@ 7;;C@ 7;;C@ 7;;C@ 7;;C@ 7;;C@ 7;;C@ 7;;C@ 7;;C@ 7;;C@ 7;;C@ 7;;C@ 7;;C@ 7;;C@ 7;;C@ 7;;C@ 7;;C@ 7;;C@ 7;;C@ 7;;C@ 7;;C@ 7;;C@ 7;;C@ 7;;C@ 7;;C@ 7;;C@ 7;;C@ 7;;C@ 7;;C@ 7;;C@ 7;;C@ 7;;C@ 7;;C@ 7;;C@ 7;;C@ 7;;C@ 7;;C@ 7;;C@ 7;;C@ 7;;C@ 7;;C@ 7;;C@ 7;;C@ 7;;C@ 7;;C@ 7;;C@ 7;;C@ 7;;C@ 7;;C@ 7;;C@ 7;;C@ 7;;C@ 7;;C@ 7;;C@ 7;;C@ 7;;C@ 7;;C@ 7;;C@ 7;;C@ 7;;C@ 7;;C@ 7;;C@ 7;;C@ 7;;C@ 7;;C@ 7;;C@ 7;;C@ 7;;C@ 7;;C@ 7;;C@ 7;;C@ 7;;C@ 7;;C@ 7;;C@ 7;;C@ 7;;C@ 7;;C@ 7;;C@ 7;;C@ 7;;C@ 7;;C@ 7;;C@ 7;;C@ 7;;C@ 7;;C@ 7;;C@ 7;;C@ 7;;C@ 7;;C@ 7;;C@ 7;;C@ 7;;C@ 7;;C@ 7;;C@ 7;;C@ 7;;C@ 7;;C@ 7;;C@ 7;;C@ 7;;C@ 7;;C@ 7;;C@ 7;;C@ 7;;C@ 7;;C@ 7;;C@ 7;;C@ 7;;C@ 7;;C@ 7;;C@ 7;;C@ 7;;C@ 7;;C@ 7;;C@ 7;;C@ 7;;C@ 7;;C@ 7;;C@ 7;;C@ 7;;C@ 7;;C@ 7;;C@ 7;;C@ 7;;C@ 7;;C@ 7;;C@ 7;;C@ 7;;C@ 7;;C@ 7;;C@ 7;;C@ 7;;C@ 7;;C@ 7;;C@ 7;;C@ 7;;C@ 7;;C@ 7;;C@ 7;;C@ 7;;C@ 7;;C@ 7;;C@ 7;;C@ 7;;C@ 7;;C@ 7;;C@ 7;;C@ 7;;C@ 7;;C@ 7;;C@ 7;;C@ 7;;C@ 7;;C@ 7;;C@ 7;;C@ 7;;C@ 7;;C@ 7;;C@ 7;;C@ 7;;C@ 7;;C@ 7;;C@ 7;;C@ 7;;C@ 7;;C@ 7;;C@ 7;;C@ 7;;C@ 7;;C@ 7;;C@ 7;;C@ 7;;C@ 7;;C@ 7;;C@ 7;;C@ 7;;C@ 7;;C@ 7;;C@ 7;;C@ 7;;C@ 7;;C@ 7;;C@ 7;;C@ 7;;C@ 7;;C@ 7;;C@ 7;;C@ 7;;C@ 7;;C@ 7;;C@ 7;;C@ 7;;C@ 7;;C@ 7;;C@ 7;;C@ 7;;C@ 7;;C@ 7;;C@ 7;;C@ 7;;C@ 7;;C@ 7;;C@ 7;;C@ 7;;C@ 7;;C@ 7;;C@ 7;;C@ 7;;C@ 7;;C@ 7;;C@ 7;;C@ 7;;C@ 7;;C@ 7;;C@ 7;;C@ 7;;C@ 7;;C@ 7;;C@ 7;;C@ 7;;C@ 7;;C@ 7;;C@ 7;;C@ 7;;C@ 7;;C@ 7;;C@ 7;;C@ 7;;C@ 7;;C@ 7;;C@ 7;;C@ 7;;C@ 7;;C@ 7;;C@ 7;;C@ 7;;C@ 7;;C@ 7;;C@ 7;;C@ 7;;C@ 7;;C@ 7;;C@ 7;;C@ 7;;C@ 7;;C@ 7;;C@ 7;;C@ 7;;C@ 7;;C@ 7;;C@ 7;;C@ 7;;C@ 7;;C@ 7;;C@ 7;;C@ 7;;C@ 7;;C@ 7;;C@ 7;;C@ 7;;C@ 7;;C@ 7;;C@ 7;;C@ 7;;C@ 7;;C@ 7;;C@ 7;;C@ 7;;C@ 7;;C@ 7;;C@ 7;;C@ 7;;C@ 7;;C@ 7;;C@ 7;;C@ 7;;C@ 7;;C@ 7;;C@ 7;;C@ 7;;C@ 7;;C@ 7;;C@ 7;;C@ 7;;C@ 7;;C@ 7;;C@ 7;;C@ 7;;C@ 7;;C@ 7;;C@ 7;;C@ 7;;C@ 7;;C@ 7;;C@ 7;;C@ 7;;C@ 7;;C@ 7;;C@ 7;;C@ 7;;C@ 7;;C@ 7;;C@ 7;;C@ 7;;C@ 7;;C@ 7;;C@ 7;;C@ 7;;C@ 7;;C@ 7;;C@ 7;;C@ 7;;C@ 7;;C@ 7;;C@ 7;;C@ 7;;C@ 7;;C@ 7;;C@ 7;;C@ 7;;C@ 7;;C@ 7;;C@ 7;;C@ 7;;C@ 7;;C@ 7;;C@ 7C@ 7C@ 7C@ 7C@ 7C@ 7C@ 7C@ 7C@ 7C@ 7C@ 7C@ 7C@ 7C@ 7C@ 7C@ 7C@ 7C@ 7C@ 7C@ 7C@ 7C@ 7C@ 7C@ 7C@ 7C@ 7C@ 7C@ 7C@ 7C@ 7C@ 7C@ 7C@ 7C@ 7C@ 7C@ 7C@ 7C@ 7C@ 7C@ 7C@ 7C@ 7C@ 7C@ 7C@ 7C@ 7C@ 7C@ 7C@ 7C@ 7C@ 7C@ 7C@ 7C@ 7C@ 7C@ 7C@ 7C@ 7C@ 7C@ 7C@ 7C@ 7C@ 7C@ 7C@ 7C@ 7C@ 7C@ 7C@ 7C@ 7C@ 7C@ 7C@ 7C@ 7C@ 7C@ 7C@ 7C@ 7C@ 7C@ 7C@ 7C@ 7C@ 7C@ 7C@ 7C@ 7C@ 7C@ 7C@ 7C@ 7C@ 7C@ 7C@ 7C@ 7C@ 7C@ 7C@ 7C@ 7C@ 7C@ 7C@ 7C@ 7C@ 7C@ C@ C@ C@ C@ C@ C@ C@ C@ C@ C@ C@ C@ C@ C@ C@ C@ C@ C@ C@ C@ C@ C@ C@ C@ C@ C@ C@ C@ C@ C@ C@ C@ C@ C@ C@ C@ C@ C@ C@ C@ C@ C@ C@ C@ C@ C@ C@ C@ C@ C@ C@ 6<<@ 6<<@ 6<<@ 6<<@ 6<<@ 6<<@ 6<<@ 6<<@ 6<<@ 6<<@ 6<<@ 6<<@ 6<<@ 6<<@ 6<<@ 6<<@ 6<<@ 6<<@ 6<<@ 6<<@ 6<<@ 6<<@ 6<<@ 6<<@ 6<<@ 6<<@ 6<<@ 6<<@ 6<<@ 6<<@ 6<<@ 6<<@ 6<<@ 6<<@ 6<<@ 6<<@ 6<<@ 6<<@ 6<<@ 6<<@ 6<<@ 6<<@ 6<<@ 6<<@ 6<<@ 6<<@ 6<<@ 6<<@ 6<<@ 6<<@ 6<<@ 6<<@ 6<<@ 6<<@ 6<<@ 6<<@ 6<<@ 6<<@ 6<<@ 6<<@ 6<<@ 6<<@ 6<<@ 6<<@ 6<<@ 6<<@ 6<<@ 6<<@ 6<<@ 6<<@ 6<<@ 6<<@ 6<<@ 6<<@ 6<<@ 6<<@ 6<<@ 6<<@ 6<<@ 6<<@ 6<<@ 6<<@ 6<<@ 6<<@ 6<<@ 6<<@ 6<<@ 6<<@ 6<<@ 6<<@ 6<<@ 6<<@ 6<<@ 6<<@ 6<<@ 6<<@ 6<<@ 6<<@ 6<<@ 6<<@ 6<<@ 6<<@ 6<<@ 6<<@ 6<<@ 6<<@ 6<<@ 6<<@ 6<<@ 6<<@ 6<<@ 6<<@ 6<<@ 6<<@ 6<<@ 6<<@ 6<<@ 6<<@ 6<<@ 6<<@ 6<<@ 6<<@ 6<<@ 6<<@ 6<<@ 6<<@ 6<<@ 6<<@ 6<<@ 6<<@ 6<<@ 6<<@ 6<<@ 6<<@ 6<<@ 6<<@ 6<<@ 6<<@ 6<<@ 6<<@ 6<<@ 6<<@ 6<<@ 6<<@ 6<<@ 6<<@ 6<<@ 6<<@ 6<<@ 6<<@ 6<<@ 6<<@ 6<<@ 6<<@ 6<<@ 6<<@ 6<<@ 6<<@ 6<<@ 6<<@ 6<<@ 6<<@ 6<<@ 6<<@ 6<<@ 6<<@ 6<<@ 6<<@ 6<<@ 6<<@ 6<<@ 6<<@ 6<<@ 6<<@ 6<<@ 6<<@ 6<<@ 6<<@ 6<<@ 6<<@ 6<<@ 6<<@ 6<<@ 6<<@ 6<<@ 6<<@ 6<<@ 6<<@ 6<<@ 6<<@ 6<<@ 6<<@ 6<<@ 6<<@ 6<<@ 6<<@ 6<<@ 6<<@ 6<<@ 6<<@ 6<<@ 6<<@ 6<<@ 6<<@ 6<<@ 6<<@ 6<<@ 6<<@ 6<<@ 6<<@ 6<<@ 6<<@ 6<<@ 6<<@ 6<<@ 6<<@ 6<<@ 6<<@ 6<<@ 6<<@ 6<<@ 6<<@ 6<<@ 6<<@ 6<<@ 6<<@ 6<<@ 6<<@ 6<<@ 6<<@ 6<<@ 6<<@ 6<<@ 6<<@ 6<<@ 6<<@ 6<<@ 6<<@ 6<<@ 6<<@ 6<<@ 6<<@ 6<<@ 6<<@ 6<<@ 6<<@ 6<<@ 6<<@ 6<<@ 6<<@ 6<<@ 6<<@ 6<<@ 6<<@ 6<<@ 6<<@ E6<<@ E6<<@ E6<<@ E6<<@ E6<<@ E6<<@ E6<<@ E6<<@ E6<<@ E6<<@ E6<<@ E6<<@ E6<<@ E6<<@ E6<<@ E6<<@ E6<<@ E6<<@ E6<<@ E6<<@ E6<<@ E6<<@ E6<<@ E6<<@ E6<<@ E6<<@ E6<<@ E6<<@ E6<<@ E6<<@ E6<<@ E6<<@ E6<<@ E6<<@ E6<<@ E6<<@ E6<<@ E6<<@ E6<<@ E6<<@ E6<<@ E6<<@ E6<<@ E6<<@ E6<<@ E6<<@ E6<<@ E6<<@ E6<<@ E6<<@ E6<<@ E6<<@ E6<<@ E6<<@ E6<<@ E6<<@ E6<<@ E6<<@ E6<<@ E6<<@ E6<<@ E6<<@ E6<<@ E6<<@ E6<<@ E6<<@ E6<<@ E6<<@ E6<<@ E6<<@ E6<<@ E6<<@ E6<<@ E6<<@ E6<<@ E6<<@ E6<<@ E6<<@ E6<<@ E6<<@ E6<<@ E6<<@ E6<<@ E6<<@ E6<<@ E6<<@ E6<<@ E6<<@ E6<<@ E6<<@ E6<<@ E6<<@ E6<<@ E6<<@ E6<<@ E6<<@ E6<<@ E6<<@ E6<<@ E6<<@ E6<<@ E6<<@ E6@ E6@ E6@ E6@ E6@ E6@ E6@ E6@ E6@ E6@ E6@ E6@ E6@ E6@ E6@ E6@ E6@ E6@ E6@ E6@ E6@ E6@ E6@ E6@ E6@ E6@ E6@ E6@ E6@ E6@ E6@ E6@ E6@ E6@ E6@ E6@ E6@ E6@ E6@ E6@ E6@ E6@ E6@ E6@ E6@ E6@ E6@ E6@ E6@ E6@ E6@ E6@ E6@ E6@ E6@ E6@ E6@ E6@ E6@ E6@ E6@ E6@ E6@ E6@ E6@ E6@ E6@ E6@ E6@ E6@ E6@ E6@ E6@ E6@ E6@ E6@ E6@ E6@ E6@ E6@ E6@ E6@ E6@ E6@ E6@ E6@ E6@ E6@ E6@ E6@ E6@ E6@ E6@ E6@ E6@ E6@ E6@ E6@ E6@ E6@ E6@ E6@ E6@ E6@ E6@ E6@ E6@ E6@ E6@ E6@ E6@ E6@ E6@ E6@ E6@ E6@ E6@ E6@ E6@ E6@ E6@ E6@ E6@ E6@ E6@ E6@ E6@ E6@ E6@ E6@ E6@ E6@ E6@ E6@ E6@ E6@ E6@ E6@ E6@ E6@ E6@ E6@ E6@ E6@ E6@ E6@ E6@ E6@ E6@ E6@ E6@ E6@ E6@ E6@ C@;@; C@;@; C@;@; C@;@; C@;@; C@;@; C@;@; C@;@; C@;@; C@;@; C@;@; C@;@; C@;@; C@;@; C@;@; C@;@; C@;@; C@;@; C@;@; C@;@; C@;@; C@;@; C@;@; C@;@; C@;@; C@;@; C@;@; C@;@; C@;@; C@;@; C@;@; C@;@; C@;@; C@;@; C@;@; C@;@; C@;@; C@;@; C@;@; C@;@; C@;@; C@;@; C@;@; C@;@; C@;@; C@;@; C@;@; C@;@; C@;@; C@;@; C@;@; C@;@; C@;@; C@;@; C@;@; C@;@; C@;@; C@;@; C@;@; C@;@; C@;@; C@;@; C@;@; C@;@; C@;@; C@;@; C@;@; C@;@; C@;@; C@;@; C@;@; C@;@; C@;@; C@;@; C@;@; C@;@; C@;@; C@;@; C@;@; C@;@; C@;@; C@;@; C@;@; C@;@; C@;@; C@;@; C@;@; C@;@; C@;@; C@;@; C@;@; C@;@; C@;@; C@;@; C@;@; C@;@; C@;@; C@;@; C@;@; C@;@; C@;@; C@;@; C@;@; C@;@; C@;@; C@;@; C@;@; C@;@; C@;@; C@;@; C@;@; C@;@; C@;@; C@;@; C@;@; C@;@; C@;@; C@;@; C@;@; C@;@; C@;@; C@;@; C@;@; C@;@; C@;@; C@;@; C@;@; C@;@; C@;@; C@;@; C@;@; C@;@; C@;@; C@;@; C@;@; C@;@; C@;@; C@;@; C@;@; C@;@; C@;@; C@;@; C@;@; C@;@; C@;@; C@;@; C@;@; C@;@; C@;@; C@;@; C@;@; C@;@; C@;@; C@;@; C@;@; C@;@; C@;@; C@;@; C@;@; C@;@; C@;@; C@;@; C@;@; C@;@; C@;@; C@;@; C@;@; C@;@; C@;@; C@;@; C@;@; C@;@; C@;@; C@;@; C@;@; C@;@; C@;@; C@;@; C@;@; C@;@; C@;@; C@;@; C@;@; C@;@; C@;@; C@;@; C@;@; C@;@; C@;@; C@;@; C@;@; C@;@; C@;@; C@;@; C@;@; C@;@; C@;@; C@;@; C@;@; C@;@; C@;@; C@;@; C@;@; C@;@; C@;@; C@;@; C@;@; C@;@; C@;@; C@;@; C@;@; C@;@; C@;@; C@;@; C@;@; C@;@; C@;@; C@;@; C@;@; C@;@; C@;@; C@;@; C@;@; C@;@; C@;@; C@;@; C@;@; C@;@; C@;@; C@;@; C@;@; C@;@; C@;@; C@;@; C@;@; C@;@; C@;@; C@;@; C@;@; C@;@; C@;@; C@;@; C@;@; C@;@; C@;@; C@;@; C@;@; C@;@; C@;@; C@;@; C@;@; C@;@; C@;@; C@;@; C@;@; C@;@; B?9?9 B?9?9 B?9?9 B?9?9 B?9?9 B?9?9 B?9?9 B?9?9 B?9?9 B?9?9 B?9?9 B?9?9 B?9?9 B?9?9 B?9?9 B?9?9 B?9?9 B?9?9 B?9?9 B?9?9 B?9?9 B?9?9 B?9?9 B?9?9 B?9?9 B?9?9 B?9?9 B?9?9 B?9?9 B?9?9 B?9?9 B?9?9 B?9?9 B?9?9 B?9?9 B?9?9 B?9?9 B?9?9 B?9?9 B?9?9 B?9?9 B?9?9 B?9?9 B?9?9 B?9?9 B?9?9 B?9?9 B?9?9 B?9?9 B?9?9 B?9?9 B?9?9 B?9?9 B?9?9 B?9?9 B?9?9 B?9?9 B?9?9 B?9?9 B?9?9 B?9?9 B?9?9 B?9?9 B?9?9 B?9?9 B?9?9 B?9?9 B?9?9 B?9?9 B?9?9 B?9?9 B?9?9 B?9?9 B?9?9 B?9?9 B?9?9 B?9?9 B?9?9 B?9?9 B?9?9 B?9?9 B?9?9 B?9?9 B?9?9 B?9?9 B?9?9 B?9?9 B?9?9 B?9?9 B?9?9 B?9?9 B?9?9 B?9?9 B?9?9 B?9?9 B?9?9 B?9?9 B?9?9 B?9?9 B?9?9 B?9?9 B?9?9 B?9?9 B?9?9 B?9?9 B?9?9 B?9?9 B?9?9 B?9?9 B?9?9 B?9?9 B?9?9 B?9?9 B?9?9 B?9?9 B?9?9 B?9?9 B?9?9 B?9?9 B?9?9 B?9?9 B?9?9 B?9?9 B?9?9 B?9?9 B?9?9 B?9?9 B?9?9 B?9?9 B?9?9 B?9?9 B?9?9 B?9?9 B?9?9 B?9?9 B?9?9 B?9?9 B?9?9 B?9?9 B?9?9 B?9?9 B?9?9 B?9?9 B?9?9 B?9?9 B?9?9 B?9?9 B?9?9 B?9?9 B?9?9 B?9?9 B?9?9 B?9?9 B?9?9 B?9?9 B?9?9 B?9?9 B?9?9 B?9?9 B?9?9 B?9?9 B?9?9 B?9?9 B?9?9 B?9?9 B?9?9 B?9?9 B?9?9 B?9?9 B?9?9 B?9?9 B?9?9 B?9?9 B?9?9 B?9?9 B?9?9 B?9?9 B?9?9 B?9?9 B?9?9 B?9?9 B?9?9 B?9?9 B?9?9 B?9?9 B?9?9 B?9?9 B?9?9 B?9?9 B?9?9 B?9?9 B?9?9 B?9?9 B?9?9 B?9?9 B?9?9 B?9?9 B?9?9 B?9?9 B?9?9 B?9?9 B?9?9 B?9?9 B?9?9 B?9?9 B?9?9 B?9?9 B?9?9 B?9?9 B?9?9 B?9?9 B?9?9 B?9?9 B?9?9 B?9?9 B?9?9 B?9?9 B?9?9 B?9?9 B?9?9 B?9?9 B?9?9 B?9?9 B?9?9 B?9?9 B?9?9 B?9?9 B?9?9 B?9?9 B?9?9 B?9?9 B?9?9 B?9?9 B?9?9 B?9?9 B?9?9 B?9?9 B?9?9 B?9?9 B?9?9 B?9?9 B?9?9 B?9?9 B?9?9 B?9?9 B?9?9 B?9?9 B?9?9 B?9?9 B?9?9 B?9?9 B?9?9 B?9?9 B?9?9 B?9?9 B?9?9 @@77@ @@77@ @@77@ @@77@ @@77@ @@77@ @@77@ @@77@ @@77@ @@77@ @@77@ @@77@ @@77@ @@77@ @@77@ @@77@ @@77@ @@77@ @@77@ @@77@ @@77@ @@77@ @@77@ @@77@ @@77@ @@77@ @@77@ @@77@ @@77@ @@77@ @@77@ @@77@ @@77@ @@77@ @@77@ @@77@ @@77@ @@77@ @@77@ @@77@ @@77@ @@77@ @@77@ @@77@ @@77@ @@77@ @@77@ @@77@ @@77@ @@77@ @@77@ @@77@ @@77@ @@77@ @@77@ @@77@ @@77@ @@77@ @@77@ @@77@ @@77@ @@77@ @@77@ @@77@ @@77@ @@77@ @@77@ @@77@ @@77@ @@77@ @@77@ @@77@ @@77@ @@77@ @@77@ @@77@ @@77@ @@77@ @@77@ @@77@ @@77@ @@77@ @@77@ @@77@ @@77@ @@77@ @@77@ @@77@ @@77@ @@77@ @@77@ @@77@ @@77@ @@77@ @@77@ @@77@ @@77@ @@77@ @@77@ @@77@ @@77@ @@77@ @@77@ @@77@ @@77@ @@77@ @@77@ @@77@ @@77@ @@77@ @@77@ @@77@ @@77@ @@77@ @@77@ @@77@ @@77@ @@77@ @@77@ @@77@ @@77@ @@77@ @@77@ @@77@ @@77@ @@77@ @@77@ @@77@ @@77@ @@77@ @@77@ @@77@ @@77@ @@77@ @@77@ @@77@ @@77@ @@77@ @@77@ @@77@ @@77@ @@77@ @@77@ @@77@ @@77@ @@77@ @@77@ @@77@ @@77@ @@77@ @@77@ @@77@ @@77@ @@77@ @@77@ @@77@ @@77@ @@77@ @@77@ @@77@ @@77@ @@77@ @@77@ @@77@ @@77@ @@77@ @@77@ @@77@ @@77@ @@77@ @@77@ @@77@ @@77@ @@77@ @@77@ @@77@ @@77@ @@77@ @@77@ @@77@ @@77@ @@77@ @@77@ @@77@ @@77@ @@77@ @@77@ @@77@ @@77@ @@77@ @@77@ @@77@ @@77@ @@77@ @@77@ @@77@ @@77@ @@77@ @@77@ @@77@ @@77@ @@77@ @@77@ @@77@ @@77@ @@77@ @@77@ @@77@ @@77@ @@77@ @@77@ @@77@ @@77@ @@77@ @@77@ @@77@ @@77@ @@77@ @@77@ @@77@ @@77@ @@77@ @@77@ @@77@ @@77@ @@77@ @@77@ @@77@ @@77@ @@77@ @@77@ @@77@ @@77@ @@77@ @@77@ @@77@ @@77@ @@77@ @@77@ @@77@ @@77@ @@77@ @@77@ @@77@ @@77@ @@77@ @@77@ @@77@ @@77@ @@77@ @@77@ @@77@ @@77@ @@77@ @@77@ @@77@ C@77@ C@77@ C@77@ C@77@ C@77@ C@77@ C@77@ C@77@ C@77@ C@77@ C@77@ C@77@ C@77@ C@77@ C@77@ C@77@ C@77@ C@77@ C@77@ C@77@ C@77@ C@77@ C@77@ C@77@ C@77@ C@77@ C@77@ C@77@ C@77@ C@77@ C@77@ C@77@ C@77@ C@77@ C@77@ C@77@ C@77@ C@77@ C@77@ C@77@ C@77@ C@77@ C@77@ C@77@ C@77@ C@77@ C@77@ C@77@ C@77@ C@77@ C@77@ C@77@ C@77@ C@77@ C@77@ C@77@ C@77@ C@77@ C@77@ C@77@ C@77@ C@77@ C@77@ C@77@ C@77@ C@77@ C@77@ C@77@ C@77@ C@77@ C@77@ C@77@ C@77@ C@77@ C@77@ C@77@ C@77@ C@77@ C@77@ C@77@ C@77@ C@77@ C@77@ C@77@ C@77@ C@77@ C@77@ C@77@ C@77@ C@77@ C@77@ C@77@ C@77@ C@77@ C@77@ C@77@ C@77@ C@77@ C@77@ C@77@ C@77@ C@77@ C@@ C@@ C@@ C@@ C@@ C@@ C@@ C@@ C@@ C@@ C@@ C@@ C@@ C@@ C@@ C@@ C@@ C@@ C@@ C@@ C@@ C@@ C@@ C@@ C@@ C@@ C@@ C@@ C@@ C@@ C@@ C@@ C@@ C@@ C@@ C@@ C@@ C@@ C@@ C@@ C@@ C@@ C@@ C@@ C@@ C@@ C@@ C@@ C@@ C@@ C@@ C@@ C@@ C@@ C@@ C@@ C@@ C@@ C@@ C@@ C@@ C@@ C@@ C@@ C@@ C@@ C@@ C@@ C@@ C@@ C@@ C@@ C@@ C@@ C@@ C@@ C@@ C@@ C@@ C@@ C@@ C@@ C@@ C@@ C@@ C@@ C@@ C@@ C@@ C@@ C@@ C@@ C@@ C@@ C@@ C@@ C@@ C@@ C@@ C@@ C@@ C@@ C@@ C@@ C@@ C@@ C@@ C@@ C@@ C@@ C@@ C@@ C@@ C@@ C@@ C@@ C@@ C@@ C@@ C@@ C@@ C@@ C@@ C@@ C@@ C@@ C@@ C@@ C@@ C@@ C@@ C@@ C@@ C@@ C@@ C@@ C@@ C@@ C@@ C@@ C@@ C@@ C@@ C@@ C@@ C@@ C@@ C@@ C@@ C@@ C@@ C@@ C@@ C@@ G799@ G799@ G799@ G799@ G799@ G799@ G799@ G799@ G799@ G799@ G799@ G799@ G799@ G799@ G799@ G799@ G799@ G799@ G799@ G799@ G799@ G799@ G799@ G799@ G799@ G799@ G799@ G799@ G799@ G799@ G799@ G799@ G799@ G799@ G799@ G799@ G799@ G799@ G799@ G799@ G799@ G799@ G799@ G799@ G799@ G799@ G799@ G799@ G799@ G799@ G799@ G799@ G799@ G799@ G799@ G799@ G799@ G799@ G799@ G799@ G799@ G799@ G799@ G799@ G799@ G799@ G799@ G799@ G799@ G799@ G799@ G799@ G799@ G799@ G799@ G799@ G799@ G799@ G799@ G799@ G799@ G799@ G799@ G799@ G799@ G799@ G799@ G799@ G799@ G799@ G799@ G799@ G799@ G799@ G799@ G799@ G799@ G799@ G799@ G799@ G799@ G799@ G799@ G799@ G799@ G799@ G799@ G799@ G799@ G799@ G799@ G799@ G799@ G799@ G799@ G799@ G799@ G799@ G799@ G799@ G799@ G799@ G799@ G799@ G799@ G799@ G799@ G799@ G799@ G799@ G799@ G799@ G799@ G799@ G799@ G799@ G799@ G799@ G799@ G799@ G799@ G799@ G799@ G799@ G799@ G799@ G799@ G799@ G799@ G799@ G799@ G799@ G799@ G799@ G799@ G799@ G799@ G799@ G799@ G799@ G799@ G799@ G799@ G799@ G799@ G799@ G799@ G799@ G799@ G799@ G799@ G799@ G799@ G799@ G799@ G799@ G799@ G799@ G799@ G799@ G799@ G799@ G799@ G799@ G799@ G799@ G799@ G799@ G799@ G799@ G799@ G799@ G799@ G799@ G799@ G799@ G799@ G799@ G799@ G799@ G799@ G799@ G799@ G799@ G799@ G799@ G799@ G799@ G799@ G799@ G799@ G799@ G799@ G799@ G799@ G799@ G799@ G799@ G799@ G799@ G799@ G799@ G799@ G799@ G799@ G799@ G799@ G799@ G799@ G799@ G799@ G799@ G799@ G799@ G799@ G799@ G799@ G799@ G799@ G799@ G799@ G799@ G799@ G799@ G799@ G799@ G799@ G799@ G799@ G799@ G799@ G799@ G799@ G799@ G799@ G799@ L699@ L699@ L699@ L699@ L699@ L699@ L699@ L699@ L699@ L699@ L699@ L699@ L699@ L699@ L699@ L699@ L699@ L699@ L699@ L699@ L699@ L699@ L699@ L699@ L699@ L699@ L699@ L699@ L699@ L699@ L699@ L699@ L699@ L699@ L699@ L699@ L699@ L699@ L699@ L699@ L699@ L699@ L699@ L699@ L699@ L699@ L699@ L699@ L699@ L699@ L699@ L699@ L699@ L699@ L699@ L699@ L699@ L699@ L699@ L699@ L699@ L699@ L699@ L699@ L699@ L699@ L699@ L699@ L699@ L699@ L699@ L699@ L699@ L699@ L699@ L699@ L699@ L699@ L699@ L699@ L699@ L699@ L699@ L699@ L699@ L699@ L699@ L699@ L699@ L699@ L699@ L699@ L699@ L699@ L699@ L699@ L699@ L699@ L699@ L699@ L699@ L699@ L6@ L6@ L6@ L6@ L6@ L6@ L6@ L6@ L6@ L6@ L6@ L6@ L6@ L6@ L6@ L6@ L6@ L6@ L6@ L6@ L6@ L6@ L6@ L6@ L6@ L6@ L6@ L6@ L6@ L6@ L6@ L6@ L6@ L6@ L6@ L6@ L6@ L6@ L6@ L6@ L6@ L6@ L6@ L6@ L6@ L6@ L6@ L6@ L6@ L6@ L6@ L6@ L6@ L6@ L6@ L6@ L6@ L6@ L6@ L6@ L6@ L6@ L6@ L6@ L6@ L6@ L6@ L6@ L6@ L6@ L6@ L6@ L6@ L6@ L6@ L6@ L6@ L6@ L6@ L6@ L6@ L6@ L6@ L6@ L6@ L6@ L6@ L6@ L6@ L6@ L6@ L6@ L6@ L6@ L6@ L6@ L6@ L6@ L6@ L6@ L6@ L6@ L6@ L6@ L6@ L6@ L6@ L6@ L6@ L6@ L6@ L6@ L6@ L6@ L6@ L6@ L6@ L6@ L6@ L6@ L6@ L6@ L6@ L6@ L6@ L6@ L6@ L6@ L6@ L6@ L6@ L6@ L6@ L6@ L6@ L6@ L6@ L6@ L6@ L6@ L6@ L6@ L6@ L6@ L6@ L6@ L6@ L6@ L6@ L6@ L6@ L6@ L6@ L6@ O477;@ O477;@ O477;@ O477;@ O477;@ O477;@ O477;@ O477;@ O477;@ O477;@ O477;@ O477;@ O477;@ O477;@ O477;@ O477;@ O477;@ O477;@ O477;@ O477;@ O477;@ O477;@ O477;@ O477;@ O477;@ O477;@ O477;@ O477;@ O477;@ O477;@ O477;@ O477;@ O477;@ O477;@ O477;@ O477;@ O477;@ O477;@ O477;@ O477;@ O477;@ O477;@ O477;@ O477;@ O477;@ O477;@ O477;@ O477;@ O477;@ O477;@ O477;@ O477;@ O477;@ O477;@ O477;@ O477;@ O477;@ O477;@ O477;@ O477;@ O477;@ O477;@ O477;@ O477;@ O477;@ O477;@ O477;@ O477;@ O477;@ O477;@ O477;@ O477;@ O477;@ O477;@ O477;@ O477;@ O477;@ O477;@ O477;@ O477;@ O477;@ O477;@ O477;@ O477;@ O477;@ O477;@ O477;@ O477;@ O477;@ O477;@ O477;@ O477;@ O477;@ O477;@ O477;@ O477;@ O477;@ O477;@ O477;@ O477;@ O477;@ O477;@ O477;@ O477;@ O477;@ O477;@ O477;@ O477;@ O477;@ O477;@ O477;@ O477;@ O477;@ O477;@ O477;@ O477;@ O477;@ O477;@ O477;@ O477;@ O477;@ O477;@ O477;@ O477;@ O477;@ O477;@ O477;@ O477;@ O477;@ O477;@ O477;@ O477;@ O477;@ O477;@ O477;@ O477;@ O477;@ O477;@ O477;@ O477;@ O477;@ O477;@ O477;@ O477;@ O477;@ O477;@ O477;@ O477;@ O477;@ O477;@ O477;@ O477;@ O477;@ O477;@ O477;@ O477;@ O477;@ O477;@ O477;@ O477;@ O477;@ O477;@ O477;@ O477;@ O477;@ O477;@ O477;@ O477;@ O477;@ O477;@ O477;@ O477;@ O477;@ O477;@ O477;@ O477;@ O477;@ O477;@ O477;@ O477;@ O477;@ O477;@ O477;@ O477;@ O477;@ O477;@ O477;@ O477;@ O477;@ O477;@ O477;@ O477;@ O477;@ O477;@ O477;@ O477;@ O477;@ O477;@ O477;@ O477;@ O477;@ O477;@ O477;@ O477;@ O477;@ O477;@ O477;@ O477;@ O477;@ O477;@ O477;@ O477;@ O477;@ O477;@ O477;@ O477;@ O477;@ O477;@ O477;@ O477;@ O477;@ O477;@ O477;@ O477;@ O477;@ O477;@ O477;@ O477;@ O477;@ O477;@ O477;@ O477;@ O477;@ O477;@ O477;@ O477;@ O477;@ O477;@ O477;@ O477;@ O477;@ O477;@ O477;@ O477;@ O477;@ O477;@ O477;@ O477;@ O477;@ O477;@ O477;@ O477;@ O477;@ O477;@ O477;@ O477;@ O477;@ O477;@ O477;@ O477;@ O477;@ O477;@ O477;@ O477;@ O477;@ O477;@ O477;@ O477;@ O477;@ O477;@ O477;@ O477;@ O477;@ O477;@ O477;@ O477;@ O477;@ O477;@ O477;@ O477;@ O477;@ O477;@ O477;@ O477;@ O477;@ O477;@ O477;@ O477;@ O477;@ O477;@ O477;@ O477;@ O477;@ O477;@ O477;@ O477;@ O477;@ O477;@ O477;@ O477;@ O477;@ O477;@ O477;@ O477;@ O477;@ O477;@ O477;@ O477;@ O477;@ O477;@ O477;@ O477;@ O477;@ O477;@ O477;@ O477;@ O477;@ O477;@ O477;@ O477;@ O477;@ O477;@ O477;@ O477;@ O477;@ O477;@ O477;@ O477;@ O477;@ O477;@ O477;@ O477;@ O477;@ O477;@ O477;@ O477;@ O477;@ O477;@ O477;@ O477;@ O477;@ O477;@ O477;@ O477;@ O477;@ O477;@ O477;@ O477;@ O477;@ O477;@ O477;@ O477;@ O477;@ O477;@ O477;@ O477;@ O477;@ O477;@ O4;@ O4;@ O4;@ O4;@ O4;@ O4;@ O4;@ O4;@ O4;@ O4;@ O4;@ O4;@ O4;@ O4;@ O4;@ O4;@ O4;@ O4;@ O4;@ O4;@ O4;@ O4;@ O4;@ O4;@ O4;@ O4;@ O4;@ O4;@ O4;@ O4;@ O4;@ O4;@ O4;@ O4;@ O4;@ O4;@ O4;@ O4;@ O4;@ O4;@ O4;@ O4;@ O4;@ O4;@ O4;@ O4;@ O4;@ O4;@ O4;@ O4;@ O4;@ O4;@ O4;@ O4;@ O4;@ O4;@ O4;@ O4;@ O4;@ O4;@ O4;@ O4;@ O4;@ O4;@ O4;@ O4;@ O4;@ O4;@ O4;@ O4;@ O4;@ O4;@ O4;@ O4;@ O4;@ O4;@ O4;@ O4;@ O4;@ O4;@ O4;@ O4;@ O4;@ O4;@ O4;@ O4;@ O4;@ O4;@ O4;@ O4;@ O4;@ O4;@ O4;@ O4;@ O4;@ O4;@ O4;@ O4;@ O4;@ O4;@ O4;@ O4;@ O4;@ O;@ O;@ O;@ O;@ O;@ O;@ O;@ O;@ O;@ O;@ O;@ O;@ O;@ O;@ O;@ O;@ O;@ O;@ O;@ O;@ O;@ O;@ O;@ O;@ O;@ O;@ O;@ O;@ O;@ O;@ O;@ O;@ O;@ O;@ O;@ O;@ O;@ O;@ O;@ O;@ O;@ O;@ O;@ O;@ O;@ O;@ O;@ O;@ O;@ O;@ O;@ ;66>B ;66>B ;66>B ;66>B ;66>B ;66>B ;66>B ;66>B ;66>B ;66>B ;66>B ;66>B ;66>B ;66>B ;66>B ;66>B ;66>B ;66>B ;66>B ;66>B ;66>B ;66>B ;66>B ;66>B ;66>B ;66>B ;66>B ;66>B ;66>B ;66>B ;66>B ;66>B ;66>B ;66>B ;66>B ;66>B ;66>B ;66>B ;66>B ;66>B ;66>B ;66>B ;66>B ;66>B ;66>B ;66>B ;66>B ;66>B ;66>B ;66>B ;66>B ;66>B ;66>B ;66>B ;66>B ;66>B ;66>B ;66>B ;66>B ;66>B ;66>B ;66>B ;66>B ;66>B ;66>B ;66>B ;66>B ;66>B ;66>B ;66>B ;66>B ;66>B ;66>B ;66>B ;66>B ;66>B ;66>B ;66>B ;66>B ;66>B ;66>B ;66>B ;66>B ;66>B ;66>B ;66>B ;66>B ;66>B ;66>B ;66>B ;66>B ;66>B ;66>B ;66>B ;66>B ;66>B ;66>B ;66>B ;66>B ;66>B ;66>B ;66>B ;66>B ;66>B ;66>B ;66>B ;66>B ;66>B ;66>B ;66>B ;66>B ;66>B ;66>B ;66>B ;66>B ;66>B ;66>B ;66>B ;66>B ;66>B ;66>B ;66>B ;66>B ;66>B ;66>B ;66>B ;66>B ;66>B ;66>B ;66>B ;66>B ;66>B ;66>B ;66>B ;66>B ;66>B ;66>B ;66>B ;66>B ;66>B ;66>B ;66>B ;66>B ;66>B ;66>B ;66>B ;66>B ;66>B ;66>B ;66>B ;66>B ;66>B ;66>B ;66>B ;66>B ;66>B ;66>B ;66>B ;66>B ;66>B ;66>B ;66>B ;66>B ;66>B ;66>B ;66>B ;66>B ;66>B ;66>B ;66>B ;66>B ;66>B ;66>B ;66>B ;66>B ;66>B ;66>B ;66>B ;66>B ;66>B ;66>B ;66>B ;66>B ;66>B ;66>B ;66>B ;66>B ;66>B ;66>B ;66>B ;66>B ;66>B ;66>B ;66>B ;66>B ;66>B ;66>B ;66>B ;66>B ;66>B ;66>B ;66>B ;66>B ;66>B ;66>B ;66>B ;66>B ;66>B ;66>B ;66>B ;66>B ;66>B ;66>B ;66>B ;66>B ;66>B ;66>B ;66>B ;66>B ;66>B ;66>B ;66>B ;66>B ;66>B ;66>B ;66>B ;66>B ;66>B ;66>B ;66>B ;66>B ;66>B ;66>B ;66>B ;66>B ;66>B ;66>B ;66>B ;66>B ;66>B ;66>B ;66>B ;66>B ;66>B ;66>B ;66>B ;66>B ;66>B ;66>B ;66>B ;66>B ;66>B ;66>B ;66>B ;66>B ;66>B ;66>B ;66>B ;66>B ;66>B ;66>B ;66>B ;66>B ;66>B ;66>B ;66>B ;66>B ;66>B ;66>B ;66>B ;66>B ;66>B ;66>B ;66>B ;66>B ;66>B ;66>B ;66>B ;66>B ;66>B ;66>B ;66>B ;66>B ;66>B ;66>B ;66>B ;66>B ;66>B ;66>B ;66>B ;66>B ;66>B ;66>B ;66>B ;66>B ;66>B ;66>B ;66>B ;66>B ;66>B ;66>B ;66>B ;66>B ;66>B ;66>B ;66>B ;66>B ;66>B ;66>B ;66>B ;66>B ;66>B ;66>B ;66>B ;66>B ;66>B ;66>B ;66>B ;66>B ;66>B ;66>B ;66>B ;66>B ;66>B ;66>B ;66>B ;66>B ;66>B ;66>B ;66>B ;66>B ;66>B ;66>B ;66>B ;66>B ;66>B ;66>B ;66>B ;66>B ;66>B ;66>B ;66>B ;66>B ;66>B ;66>B ;66>B ;66>B ;66>B ;66>B ;66>B ;66>B ;66>B ;66>B ;66>B ;66>B ;66>B ;66>B ;66>B ;>B ;>B ;>B ;>B ;>B ;>B ;>B ;>B ;>B ;>B ;>B ;>B ;>B ;>B ;>B ;>B ;>B ;>B ;>B ;>B ;>B ;>B ;>B ;>B ;>B ;>B ;>B ;>B ;>B ;>B ;>B ;>B ;>B ;>B ;>B ;>B ;>B ;>B ;>B ;>B ;>B ;>B ;>B ;>B ;>B ;>B ;>B ;>B ;>B ;>B ;>B ;>B ;>B ;>B ;>B ;>B ;>B ;>B ;>B ;>B ;>B ;>B ;>B ;>B ;>B ;>B ;>B ;>B ;>B ;>B ;>B ;>B ;>B ;>B ;>B ;>B ;>B ;>B ;>B ;>B ;>B ;>B ;>B ;>B ;>B ;>B ;>B ;>B ;>B ;>B ;>B ;>B ;>B ;>B ;>B ;>B ;>B ;>B ;>B ;>B ;>B ;>B ;>B ;>B ;>B ;>B ;>B ;>B ;>B ;>B ;>B ;>B ;>B ;>B ;>B ;>B ;>B ;>B ;>B ;>B ;>B ;>B ;>B ;>B ;>B ;>B ;>B ;>B ;>B ;>B ;>B ;>B ;>B ;>B ;>B ;>B ;>B ;>B ;>B ;>B ;>B ;>B ;>B ;>B ;>B ;>B ;>B ;>B ;>B ;>B ;>B ;>B ;>B ;>B <44<C <44<C <44<C <44<C <44<C <44<C <44<C <44<C <44<C <44<C <44<C <44<C <44<C <44<C <44<C <44<C <44<C <44<C <44<C <44<C <44<C <44<C <44<C <44<C <44<C <44<C <44<C <44<C <44<C <44<C <44<C <44<C <44<C <44<C <44<C <44<C <44<C <44<C <44<C <44<C <44<C <44<C <44<C <44<C <44<C <44<C <44<C <44<C <44<C <44<C <44<C <44<C <44<C <44<C <44<C <44<C <44<C <44<C <44<C <44<C <44<C <44<C <44<C <44<C <44<C <44<C <44<C <44<C <44<C <44<C <44<C <44<C <44<C <44<C <44<C <44<C <44<C <44<C <44<C <44<C <44<C <44<C <44<C <44<C <44<C <44<C <44<C <44<C <44<C <44<C <44<C <44<C <44<C <44<C <44<C <44<C <44<C <44<C <44<C <44<C <44<C <44<C <44<C <44<C <44<C <44<C <44<C <44<C <44<C <44<C <44<C <44<C <44<C <44<C <44<C <44<C <44<C <44<C <44<C <44<C <44<C <44<C <44<C <44<C <44<C <44<C <44<C <44<C <44<C <44<C <44<C <44<C <44<C <44<C <44<C <44<C <44<C <44<C <44<C <44<C <44<C <44<C <44<C <44<C <44<C <44<C <44<C <44<C <44<C <44<C <44<C <44<C <44<C <44<C <44<C <44<C <44<C <44<C <44<C <44<C <44<C <44<C <44<C <44<C <44<C <44<C <44<C <44<C <44<C <44<C <44<C <44<C <44<C <44<C <44<C <44<C <44<C <44<C <44<C <44<C <44<C <44<C <44<C <44<C <44<C <44<C <44<C <44<C <44<C <44<C <44<C <44<C <44<C <44<C <44<C <44<C <44<C <44<C <44<C <44<C <44<C <44<C <44<C <44<C <44<C <44<C <44<C <44<C <44<C <44<C <44<C <44<C <44<C <44<C <44<C <44<C <44<C <44<C <44<C <44<C <44<C <44<C <44<C <44<C <44<C <44<C <44<C <44<C <44<C <44<C <44<C <44<C <44<C <44<C <44<C <44<C <44<C <44<C <44<C <44<C <44<C <44<C <44<C <44<C <44<C <44<C <44<C <44<C <44<C <44<C <44<C <44<C <44<C <44<C <44<C <44<C H@44<C H@44<C H@44<C H@44<C H@44<C H@44<C H@44<C H@44<C H@44<C H@44<C H@44<C H@44<C H@44<C H@44<C H@44<C H@44<C H@44<C H@44<C H@44<C H@44<C H@44<C H@44<C H@44<C H@44<C H@44<C H@44<C H@44<C H@44<C H@44<C H@44<C H@44<C H@44<C H@44<C H@44<C H@44<C H@44<C H@44<C H@44<C H@44<C H@44<C H@44<C H@44<C H@44<C H@44<C H@44<C H@44<C H@44<C H@44<C H@44<C H@44<C H@44<C H@44<C H@44<C H@44<C H@44<C H@44<C H@44<C H@44<C H@44<C H@44<C H@44<C H@44<C H@44<C H@44<C H@44<C H@44<C H@44<C H@44<C H@44<C H@44<C H@44<C H@44<C H@44<C H@44<C H@44<C H@44<C H@44<C H@44<C H@44<C H@44<C H@44<C H@44<C H@44<C H@44<C H@44<C H@44<C H@44<C H@44<C H@44<C H@44<C H@44<C H@44<C H@44<C H@44<C H@44<C H@44<C H@44<C H@44<C H@44<C H@44<C H@44<C H@44<C H@<C H@<C H@<C H@<C H@<C H@<C H@<C H@<C H@<C H@<C H@<C H@<C H@<C H@<C H@<C H@<C H@<C H@<C H@<C H@<C H@<C H@<C H@<C H@<C H@<C H@<C H@<C H@<C H@<C H@<C H@<C H@<C H@<C H@<C H@<C H@<C H@<C H@<C H@<C H@<C H@<C H@<C H@<C H@<C H@<C H@<C H@<C H@<C H@<C H@<C H@<C H@<C H@<C H@<C H@<C H@<C H@<C H@<C H@<C H@<C H@<C H@<C H@<C H@<C H@<C H@<C H@<C H@<C H@<C H@<C H@<C H@<C H@<C H@<C H@<C H@<C H@<C H@<C H@<C H@<C H@<C H@<C H@<C H@<C H@<C H@<C H@<C H@<C H@<C H@<C H@<C H@<C H@<C H@<C H@<C H@<C H@<C H@<C H@<C H@<C H@<C H@<C H@<C H@<C H@<C H@<C H@<C H@<C H@<C H@<C H@<C H@<C H@<C H@<C H@<C H@<C H@<C H@<C H@<C H@<C H@<C H@<C H@<C H@<C H@<C H@<C H@<C H@<C H@<C H@<C H@<C H@<C H@<C H@<C H@<C H@<C H@<C H@<C H@<C H@<C H@<C H@<C H@<C H@<C H@<C H@<C H@<C H@<C H@<C H@<C H@<C H@<C H@<C H@<C GC(C( GC(C( GC(C( GC(C( GC(C( GC(C( GC(C( GC(C( GC(C( GC(C( GC(C( GC(C( GC(C( GC(C( GC(C( GC(C( GC(C( GC(C( GC(C( GC(C( GC(C( GC(C( GC(C( GC(C( GC(C( GC(C( GC(C( GC(C( GC(C( GC(C( GC(C( GC(C( GC(C( GC(C( GC(C( GC(C( GC(C( GC(C( GC(C( GC(C( GC(C( GC(C( GC(C( GC(C( GC(C( GC(C( GC(C( GC(C( GC(C( GC(C( GC(C( GC(C( GC(C( GC(C( GC(C( GC(C( GC(C( GC(C( GC(C( GC(C( GC(C( GC(C( GC(C( GC(C( GC(C( GC(C( GC(C( GC(C( GC(C( GC(C( GC(C( GC(C( GC(C( GC(C( GC(C( GC(C( GC(C( GC(C( GC(C( GC(C( GC(C( GC(C( GC(C( GC(C( GC(C( GC(C( GC(C( GC(C( GC(C( GC(C( GC(C( GC(C( GC(C( GC(C( GC(C( GC(C( GC(C( GC(C( GC(C( GC(C( GC(C( GC(C( GC(C( GC(C( GC(C( GC(C( GC(C( GC(C( GC(C( GC(C( GC(C( GC(C( GC(C( GC(C( GC(C( GC(C( GC(C( GC(C( GC(C( GC(C( GC(C( GC(C( GC(C( GC(C( GC(C( GC(C( GC(C( GC(C( GC(C( GC(C( GC(C( GC(C( GC(C( GC(C( GC(C( GC(C( GC(C( GC(C( GC(C( GC(C( GC(C( GC(C( GC(C( GC(C( GC(C( GC(C( GC(C( GC(C( GC(C( GC(C( GC(C( GC(C( GC(C( GC(C( GC(C( GC(C( GC(C( GC(C( GC(C( GC(C( GC(C( GC(C( GC(C( GC(C( GC(C( GC(C( GC(C( GC(C( GC(C( GC(C( GC(C( GC(C( GC(C( GC(C( GC(C( GC(C( GC(C( GC(C( GC(C( GC(C( GC(C( GC(C( GC(C( GC(C( GC(C( GC(C( GC(C( GC(C( GC(C( GC(C( GC(C( GC(C( GC(C( GC(C( GC(C( GC(C( GC(C( GC(C( GC(C( GC(C( GC(C( GC(C( GC(C( GC(C( GC(C( GC(C( GC(C( GC(C( GC(C( GC(C( GC(C( GC(C( GC(C( GC(C( GC(C( GC(C( GC(C( GC(C( GC(C( GC(C( GC(C( GC(C( GC(C( GC(C( GC(C( GC(C( GC(C( GC(C( GC(C( GC(C( GC(C( GC(C( GC(C( GC(C( GC(C( GC(C( GC(C( GC(C( GC(C( GC(C( GC(C( GC(C( GC(C( GC(C( GC(C( GC(C( GC(C( GC(C( GC(C( GC(C( GC(C( GC(C( GC(C( GC(C( GC(C( GC(C( EC((B EC((B EC((B EC((B EC((B EC((B EC((B EC((B EC((B EC((B EC((B EC((B EC((B EC((B EC((B EC((B EC((B EC((B EC((B EC((B EC((B EC((B EC((B EC((B EC((B EC((B EC((B EC((B EC((B EC((B EC((B EC((B EC((B EC((B EC((B EC((B EC((B EC((B EC((B EC((B EC((B EC((B EC((B EC((B EC((B EC((B EC((B EC((B EC((B EC((B EC((B EC((B EC((B EC((B EC((B EC((B EC((B EC((B EC((B EC((B EC((B EC((B EC((B EC((B EC((B EC((B EC((B EC((B EC((B EC((B EC((B EC((B EC((B EC((B EC((B EC((B EC((B EC((B EC((B EC((B EC((B EC((B EC((B EC((B EC((B EC((B EC((B EC((B EC((B EC((B EC((B EC((B EC((B EC((B EC((B EC((B EC((B EC((B EC((B EC((B EC((B EC((B ECB ECB ECB ECB ECB ECB ECB ECB ECB ECB ECB ECB ECB ECB ECB ECB ECB ECB ECB ECB ECB ECB ECB ECB ECB ECB ECB ECB ECB ECB ECB ECB ECB ECB ECB ECB ECB ECB ECB ECB ECB ECB ECB ECB ECB ECB ECB ECB ECB ECB ECB ECB ECB ECB ECB ECB ECB ECB ECB ECB ECB ECB ECB ECB ECB ECB ECB ECB ECB ECB ECB ECB ECB ECB ECB ECB ECB ECB ECB ECB ECB ECB ECB ECB ECB ECB ECB ECB ECB ECB ECB ECB ECB ECB ECB ECB ECB ECB ECB ECB ECB ECB ECB ECB ECB ECB ECB ECB ECB ECB ECB ECB ECB ECB ECB ECB ECB ECB ECB ECB ECB ECB ECB ECB ECB ECB ECB ECB ECB ECB ECB ECB ECB ECB ECB ECB ECB ECB ECB ECB ECB ECB ECB ECB ECB ECB ECB ECB ECB ECB ECB ECB ECB ECB G44C G44C G44C G44C G44C G44C G44C G44C G44C G44C G44C G44C G44C G44C G44C G44C G44C G44C G44C G44C G44C G44C G44C G44C G44C G44C G44C G44C G44C G44C G44C G44C G44C G44C G44C G44C G44C G44C G44C G44C G44C G44C G44C G44C G44C G44C G44C G44C G44C G44C G44C G44C G44C G44C G44C G44C G44C G44C G44C G44C G44C G44C G44C G44C G44C G44C G44C G44C G44C G44C G44C G44C G44C G44C G44C G44C G44C G44C G44C G44C G44C G44C G44C G44C G44C G44C G44C G44C G44C G44C G44C G44C G44C G44C G44C G44C G44C G44C G44C G44C G44C G44C G44C G44C G44C G44C G44C G44C G44C G44C G44C G44C G44C G44C G44C G44C G44C G44C G44C G44C G44C G44C G44C G44C G44C G44C G44C G44C G44C G44C G44C G44C G44C G44C G44C G44C G44C G44C G44C G44C G44C G44C G44C G44C G44C G44C G44C G44C G44C G44C G44C G44C G44C G44C G44C G44C G44C G44C G44C G44C G44C G44C G44C G44C G44C G44C G44C G44C G44C G44C G44C G44C G44C G44C G44C G44C G44C G44C G44C G44C G44C G44C G44C G44C G44C G44C G44C G44C G44C G44C G44C G44C G44C G44C G44C G44C G44C G44C G44C G44C G44C G44C G44C G44C G44C G44C G44C G44C G44C G44C G44C G44C G44C G44C G44C G44C G44C G44C G44C G44C G44C G44C G44C G44C G44C G44C G44C G44C G44C G44C G44C G44C G44C G44C G44C G44C G44C G44C G44C G44C G44C G44C G44C G44C G44C G44C G44C G44C G44C G44C G44C G44C G44C G44C G44C G44C L44C L44C L44C L44C L44C L44C L44C L44C L44C L44C L44C L44C L44C L44C L44C L44C L44C L44C L44C L44C L44C L44C L44C L44C L44C L44C L44C L44C L44C L44C L44C L44C L44C L44C L44C L44C L44C L44C L44C L44C L44C L44C L44C L44C L44C L44C L44C L44C L44C L44C L44C L44C L44C L44C L44C L44C L44C L44C L44C L44C L44C L44C L44C L44C L44C L44C L44C L44C L44C L44C L44C L44C L44C L44C L44C L44C L44C L44C L44C L44C L44C L44C L44C L44C L44C L44C L44C L44C L44C L44C L44C L44C L44C L44C L44C L44C L44C L44C L44C L44C L44C L44C LC LC LC LC LC LC LC LC LC LC LC LC LC LC LC LC LC LC LC LC LC LC LC LC LC LC LC LC LC LC LC LC LC LC LC LC LC LC LC LC LC LC LC LC LC LC LC LC LC LC LC LC LC LC LC LC LC LC LC LC LC LC LC LC LC LC LC LC LC LC LC LC LC LC LC LC LC LC LC LC LC LC LC LC LC LC LC LC LC LC LC LC LC LC LC LC LC LC LC LC LC LC LC LC LC LC LC LC LC LC LC LC LC LC LC LC LC LC LC LC LC LC LC LC LC LC LC LC LC LC LC LC LC LC LC LC LC LC LC LC LC LC LC LC LC LC LC LC LC LC LC LC LC LC O;22;C O;22;C O;22;C O;22;C O;22;C O;22;C O;22;C O;22;C O;22;C O;22;C O;22;C O;22;C O;22;C O;22;C O;22;C O;22;C O;22;C O;22;C O;22;C O;22;C O;22;C O;22;C O;22;C O;22;C O;22;C O;22;C O;22;C O;22;C O;22;C O;22;C O;22;C O;22;C O;22;C O;22;C O;22;C O;22;C O;22;C O;22;C O;22;C O;22;C O;22;C O;22;C O;22;C O;22;C O;22;C O;22;C O;22;C O;22;C O;22;C O;22;C O;22;C O;22;C O;22;C O;22;C O;22;C O;22;C O;22;C O;22;C O;22;C O;22;C O;22;C O;22;C O;22;C O;22;C O;22;C O;22;C O;22;C O;22;C O;22;C O;22;C O;22;C O;22;C O;22;C O;22;C O;22;C O;22;C O;22;C O;22;C O;22;C O;22;C O;22;C O;22;C O;22;C O;22;C O;22;C O;22;C O;22;C O;22;C O;22;C O;22;C O;22;C O;22;C O;22;C O;22;C O;22;C O;22;C O;22;C O;22;C O;22;C O;22;C O;22;C O;22;C O;22;C O;22;C O;22;C O;22;C O;22;C O;22;C O;22;C O;22;C O;22;C O;22;C O;22;C O;22;C O;22;C O;22;C O;22;C O;22;C O;22;C O;22;C O;22;C O;22;C O;22;C O;22;C O;22;C O;22;C O;22;C O;22;C O;22;C O;22;C O;22;C O;22;C O;22;C O;22;C O;22;C O;22;C O;22;C O;22;C O;22;C O;22;C O;22;C O;22;C O;22;C O;22;C O;22;C O;22;C O;22;C O;22;C O;22;C O;22;C O;22;C O;22;C O;22;C O;22;C O;22;C O;22;C O;22;C O;22;C O;22;C O;22;C O;22;C O;22;C O;22;C O;22;C O;22;C O;22;C O;22;C O;22;C O;22;C O;22;C O;22;C O;22;C O;22;C O;22;C O;22;C O;22;C O;22;C O;22;C O;22;C O;22;C O;22;C O;22;C O;22;C O;22;C O;22;C O;22;C O;22;C O;22;C O;22;C O;22;C O;22;C O;22;C O;22;C O;22;C O;22;C O;22;C O;22;C O;22;C O;22;C O;22;C O;22;C O;22;C O;22;C O;22;C O;22;C O;22;C O;22;C O;22;C O;22;C O;22;C O;22;C O;22;C O;22;C O;22;C O;22;C O;22;C O;22;C O;22;C O;22;C O;22;C O;22;C O;22;C O;22;C O;22;C O;22;C O;22;C O;22;C O;22;C O;22;C O;22;C O;22;C O;22;C O;22;C O;22;C O;22;C O;22;C O;22;C O;22;C O;22;C O;22;C O;22;C O;22;C O;22;C O;22;C O;22;C O;22;C O;22;C O;22;C O;22;C O;22;C O;22;C O;22;C O;22;C O;22;C O;22;C O;22;C S;22;C S;22;C S;22;C S;22;C S;22;C S;22;C S;22;C S;22;C S;22;C S;22;C S;22;C S;22;C S;22;C S;22;C S;22;C S;22;C S;22;C S;22;C S;22;C S;22;C S;22;C S;22;C S;22;C S;22;C S;22;C S;22;C S;22;C S;22;C S;22;C S;22;C S;22;C S;22;C S;22;C S;22;C S;22;C S;22;C S;22;C S;22;C S;22;C S;22;C S;22;C S;22;C S;22;C S;22;C S;22;C S;22;C S;22;C S;22;C S;22;C S;22;C S;22;C S;22;C S;22;C S;22;C S;22;C S;22;C S;22;C S;22;C S;22;C S;22;C S;22;C S;22;C S;22;C S;22;C S;22;C S;22;C S;22;C S;22;C S;22;C S;22;C S;22;C S;22;C S;22;C S;22;C S;22;C S;22;C S;22;C S;22;C S;22;C S;22;C S;22;C S;22;C S;22;C S;22;C S;22;C S;22;C S;22;C S;22;C S;22;C S;22;C S;22;C S;22;C S;22;C S;22;C S;22;C S;22;C S;22;C S;22;C S;22;C S;22;C S;22;C S;22;C S;;C S;;C S;;C S;;C S;;C S;;C S;;C S;;C S;;C S;;C S;;C S;;C S;;C S;;C S;;C S;;C S;;C S;;C S;;C S;;C S;;C S;;C S;;C S;;C S;;C S;;C S;;C S;;C S;;C S;;C S;;C S;;C S;;C S;;C S;;C S;;C S;;C S;;C S;;C S;;C S;;C S;;C S;;C S;;C S;;C S;;C S;;C S;;C S;;C S;;C S;;C S;;C S;;C S;;C S;;C S;;C S;;C S;;C S;;C S;;C S;;C S;;C S;;C S;;C S;;C S;;C S;;C S;;C S;;C S;;C S;;C S;;C S;;C S;;C S;;C S;;C S;;C S;;C S;;C S;;C S;;C S;;C S;;C S;;C S;;C S;;C S;;C S;;C S;;C S;;C S;;C S;;C S;;C S;;C S;;C S;;C S;;C S;;C S;;C S;;C S;;C S;;C S;;C S;;C S;;C S;;C S;;C S;;C S;;C S;;C S;;C S;;C S;;C S;;C S;;C S;;C S;;C S;;C S;;C S;;C S;;C S;;C S;;C S;;C S;;C S;;C S;;C S;;C S;;C S;;C S;;C S;;C S;;C S;;C S;;C S;;C S;;C S;;C S;;C S;;C S;;C S;;C S;;C S;;C S;;C S;;C S;;C S;;C S;;C S;;C S;;C S;;C S;;C S;;C X:11:B X:11:B X:11:B X:11:B X:11:B X:11:B X:11:B X:11:B X:11:B X:11:B X:11:B X:11:B X:11:B X:11:B X:11:B X:11:B X:11:B X:11:B X:11:B X:11:B X:11:B X:11:B X:11:B X:11:B X:11:B X:11:B X:11:B X:11:B X:11:B X:11:B X:11:B X:11:B X:11:B X:11:B X:11:B X:11:B X:11:B X:11:B X:11:B X:11:B X:11:B X:11:B X:11:B X:11:B X:11:B X:11:B X:11:B X:11:B X:11:B X:11:B X:11:B X:11:B X:11:B X:11:B X:11:B X:11:B X:11:B X:11:B X:11:B X:11:B X:11:B X:11:B X:11:B X:11:B X:11:B X:11:B X:11:B X:11:B X:11:B X:11:B X:11:B X:11:B X:11:B X:11:B X:11:B X:11:B X:11:B X:11:B X:11:B X:11:B X:11:B X:11:B X:11:B X:11:B X:11:B X:11:B X:11:B X:11:B X:11:B X:11:B X:11:B X:11:B X:11:B X:11:B X:11:B X:11:B X:11:B X:11:B X:11:B X:11:B X:11:B X:11:B X:11:B X:11:B X:11:B X:11:B X:11:B X:11:B X:11:B X:11:B X:11:B X:11:B X:11:B X:11:B X:11:B X:11:B X:11:B X:11:B X:11:B X:11:B X:11:B X:11:B X:11:B X:11:B X:11:B X:11:B X:11:B X:11:B X:11:B X:11:B X:11:B X:11:B X:11:B X:11:B X:11:B X:11:B X:11:B X:11:B X:11:B X:11:B X:11:B X:11:B X:11:B X:11:B X:11:B X:11:B X:11:B X:11:B X:11:B X:11:B X:11:B X:11:B X:11:B X:11:B X:11:B X:11:B X:11:B X:11:B X:11:B X:11:B X:11:B X:11:B X:11:B X:11:B X:11:B X:11:B X:11:B X:11:B X:11:B X:11:B X:11:B X:11:B X:11:B X:11:B X:11:B X:11:B X:11:B X:11:B X:11:B X:11:B X:11:B X:11:B X:11:B X:11:B X:11:B X:11:B X:11:B X:11:B X:11:B X:11:B X:11:B X:11:B X:11:B X:11:B X:11:B X:11:B X:11:B X:11:B X:11:B X:11:B X:11:B X:11:B X:11:B X:11:B X:11:B X:11:B X:11:B X:11:B X:11:B X:11:B X:11:B X:11:B X:11:B X:11:B X:11:B X:11:B X:11:B X:11:B X:11:B X:11:B X:11:B X:11:B X:11:B X:11:B X:11:B X:11:B X:11:B X:11:B X:11:B X:11:B X:11:B X:11:B X:11:B X:11:B X:11:B X:11:B X:11:B X:11:B X:11:B X:11:B X:11:B X:11:B X:11:B X:11:B X:11:B X:11:B X:11:B X:11:B X:11:B X:11:B X:11:B X:11:B X:11:B X:11:B X:11:B X:11:B X;11:B X;11:B X;11:B X;11:B X;11:B X;11:B X;11:B X;11:B X;11:B X;11:B X;11:B X;11:B X;11:B X;11:B X;11:B X;11:B X;11:B X;11:B X;11:B X;11:B X;11:B X;11:B X;11:B X;11:B X;11:B X;11:B X;11:B X;11:B X;11:B X;11:B X;11:B X;11:B X;11:B X;11:B X;11:B X;11:B X;11:B X;11:B X;11:B X;11:B X;11:B X;11:B X;11:B X;11:B X;11:B X;11:B X;11:B X;11:B X;11:B X;11:B X;11:B X;11:B X;11:B X;11:B X;11:B X;11:B X;11:B X;11:B X;11:B X;11:B X;11:B X;11:B X;11:B X;11:B X;11:B X;11:B X;11:B X;11:B X;11:B X;11:B X;11:B X;11:B X;11:B X;11:B X;11:B X;11:B X;11:B X;11:B X;11:B X;11:B X;11:B X;11:B X;11:B X;11:B X;11:B X;11:B X;11:B X;11:B X;11:B X;11:B X;11:B X;11:B X;11:B X;11:B X;11:B X;11:B X;11:B X;11:B X;11:B X;11:B X;11:B X;11:B X;:B X;:B X;:B X;:B X;:B X;:B X;:B X;:B X;:B X;:B X;:B X;:B X;:B X;:B X;:B X;:B X;:B X;:B X;:B X;:B X;:B X;:B X;:B X;:B X;:B X;:B X;:B X;:B X;:B X;:B X;:B X;:B X;:B X;:B X;:B X;:B X;:B X;:B X;:B X;:B X;:B X;:B X;:B X;:B X;:B X;:B X;:B X;:B X;:B X;:B X;:B X;:B X;:B X;:B X;:B X;:B X;:B X;:B X;:B X;:B X;:B X;:B X;:B X;:B X;:B X;:B X;:B X;:B X;:B X;:B X;:B X;:B X;:B X;:B X;:B X;:B X;:B X;:B X;:B X;:B X;:B X;:B X;:B X;:B X;:B X;:B X;:B X;:B X;:B X;:B X;:B X;:B X;:B X;:B X;:B X;:B X;:B X;:B X;:B X;:B X;:B X;:B X;:B X;:B X;:B X;:B X;:B X;:B X;:B X;:B X;:B X;:B X;:B X;:B X;:B X;:B X;:B X;:B X;:B X;:B X;:B X;:B X;:B X;:B X;:B X;:B X;:B X;:B X;:B X;:B X;:B X;:B X;:B X;:B X;:B X;:B X;:B X;:B X;:B X;:B X;:B X;:B X;:B X;:B X;:B X;:B X;:B X;:B X;:B X;:B X;:B X;:B X;:B X;:B =::=@ =::=@ =::=@ =::=@ =::=@ =::=@ =::=@ =::=@ =::=@ =::=@ =::=@ =::=@ =::=@ =::=@ =::=@ =::=@ =::=@ =::=@ =::=@ =::=@ =::=@ =::=@ =::=@ =::=@ =::=@ =::=@ =::=@ =::=@ =::=@ =::=@ =::=@ =::=@ =::=@ =::=@ =::=@ =::=@ =::=@ =::=@ =::=@ =::=@ =::=@ =::=@ =::=@ =::=@ =::=@ =::=@ =::=@ =::=@ =::=@ =::=@ =::=@ =::=@ =::=@ =::=@ =::=@ =::=@ =::=@ =::=@ =::=@ =::=@ =::=@ =::=@ =::=@ =::=@ =::=@ =::=@ =::=@ =::=@ =::=@ =::=@ =::=@ =::=@ =::=@ =::=@ =::=@ =::=@ =::=@ =::=@ =::=@ =::=@ =::=@ =::=@ =::=@ =::=@ =::=@ =::=@ =::=@ =::=@ =::=@ =::=@ =::=@ =::=@ =::=@ =::=@ =::=@ =::=@ =::=@ =::=@ =::=@ =::=@ =::=@ =::=@ =::=@ =::=@ =::=@ =::=@ =::=@ =::=@ =::=@ =::=@ =::=@ =::=@ =::=@ =::=@ =::=@ =::=@ =::=@ =::=@ =::=@ =::=@ =::=@ =::=@ =::=@ =::=@ =::=@ =::=@ =::=@ =::=@ =::=@ =::=@ =::=@ =::=@ =::=@ =::=@ =::=@ =::=@ =::=@ =::=@ =::=@ =::=@ =::=@ =::=@ =::=@ =::=@ =::=@ =::=@ =::=@ =::=@ =::=@ =::=@ =::=@ =::=@ =::=@ =::=@ =::=@ =::=@ =::=@ =::=@ =::=@ =::=@ =::=@ =::=@ =::=@ =::=@ =::=@ =::=@ =::=@ =::=@ =::=@ =::=@ =::=@ =::=@ =::=@ =::=@ =::=@ =::=@ =::=@ =::=@ =::=@ =::=@ =::=@ =::=@ =::=@ =::=@ =::=@ =::=@ =::=@ =::=@ =::=@ =::=@ =::=@ =::=@ =::=@ =::=@ =::=@ =::=@ =::=@ =::=@ =::=@ =::=@ =::=@ =::=@ =::=@ =::=@ =::=@ =::=@ =::=@ =::=@ =::=@ =::=@ =::=@ =::=@ =::=@ =::=@ =::=@ =::=@ =::=@ =::=@ =::=@ =::=@ =::=@ =::=@ =::=@ =::=@ =::=@ =::=@ =::=@ =::=@ =::=@ =::=@ =::=@ =::=@ =::=@ =::=@ =::=@ =::=@ =::=@ =::=@ =::=@ =::=@ =::=@ =::=@ =::=@ =::=@ =::=@ =::=@ =::=@ =::=@ =::=@ =::=@ =::=@ =::=@ =::=@ =::=@ =::=@ =::=@ >::=@ >::=@ >::=@ >::=@ >::=@ >::=@ >::=@ >::=@ >::=@ >::=@ >::=@ >::=@ >::=@ >::=@ >::=@ >::=@ >::=@ >::=@ >::=@ >::=@ >::=@ >::=@ >::=@ >::=@ >::=@ >::=@ >::=@ >::=@ >::=@ >::=@ >::=@ >::=@ >::=@ >::=@ >::=@ >::=@ >::=@ >::=@ >::=@ >::=@ >::=@ >::=@ >::=@ >::=@ >::=@ >::=@ >::=@ >::=@ >::=@ >::=@ >::=@ >::=@ >::=@ >::=@ >::=@ >::=@ >::=@ >::=@ >::=@ >::=@ >::=@ >::=@ >::=@ >::=@ >::=@ >::=@ >::=@ >::=@ >::=@ >::=@ >::=@ >::=@ >::=@ >::=@ >::=@ >::=@ >::=@ >::=@ >::=@ >::=@ >::=@ >::=@ >::=@ >::=@ >::=@ >::=@ >::=@ >::=@ >::=@ >::=@ >::=@ >::=@ >::=@ >::=@ >::=@ >::=@ >::=@ >::=@ >::=@ >::=@ >::=@ >::=@ >=@ >=@ >=@ >=@ >=@ >=@ >=@ >=@ >=@ >=@ >=@ >=@ >=@ >=@ >=@ >=@ >=@ >=@ >=@ >=@ >=@ >=@ >=@ >=@ >=@ >=@ >=@ >=@ >=@ >=@ >=@ >=@ >=@ >=@ >=@ >=@ >=@ >=@ >=@ >=@ >=@ >=@ >=@ >=@ >=@ >=@ >=@ >=@ >=@ >=@ >=@ >=@ >=@ >=@ >=@ >=@ >=@ >=@ >=@ >=@ >=@ >=@ >=@ >=@ >=@ >=@ >=@ >=@ >=@ >=@ >=@ >=@ >=@ >=@ >=@ >=@ >=@ >=@ >=@ >=@ >=@ >=@ >=@ >=@ >=@ >=@ >=@ >=@ >=@ >=@ >=@ >=@ >=@ >=@ >=@ >=@ >=@ >=@ >=@ >=@ >=@ >=@ >=@ >=@ >=@ >=@ >=@ >=@ >=@ >=@ >=@ >=@ >=@ >=@ >=@ >=@ >=@ >=@ >=@ >=@ >=@ >=@ >=@ >=@ >=@ >=@ >=@ >=@ >=@ >=@ >=@ >=@ >=@ >=@ >=@ >=@ >=@ >=@ >=@ >=@ >=@ >=@ >=@ >=@ >=@ >=@ >=@ >=@ >=@ >=@ >=@ >=@ >=@ >=@ @;;> @;;> @;;> @;;> @;;> @;;> @;;> @;;> @;;> @;;> @;;> @;;> @;;> @;;> @;;> @;;> @;;> @;;> @;;> @;;> @;;> @;;> @;;> @;;> @;;> @;;> @;;> @;;> @;;> @;;> @;;> @;;> @;;> @;;> @;;> @;;> @;;> @;;> @;;> @;;> @;;> @;;> @;;> @;;> @;;> @;;> @;;> @;;> @;;> @;;> @;;> @;;> @;;> @;;> @;;> @;;> @;;> @;;> @;;> @;;> @;;> @;;> @;;> @;;> @;;> @;;> @;;> @;;> @;;> @;;> @;;> @;;> @;;> @;;> @;;> @;;> @;;> @;;> @;;> @;;> @;;> @;;> @;;> @;;> @;;> @;;> @;;> @;;> @;;> @;;> @;;> @;;> @;;> @;;> @;;> @;;> @;;> @;;> @;;> @;;> @;;> @;;> @;;> @;;> @;;> @;;> @;;> @;;> @;;> @;;> @;;> @;;> @;;> @;;> @;;> @;;> @;;> @;;> @;;> @;;> @;;> @;;> @;;> @;;> @;;> @;;> @;;> @;;> @;;> @;;> @;;> @;;> @;;> @;;> @;;> @;;> @;;> @;;> @;;> @;;> @;;> @;;> @;;> @;;> @;;> @;;> @;;> @;;> @;;> @;;> @;;> @;;> @;;> @;;> @;;> @;;> @;;> @;;> @;;> @;;> @;;> @;;> @;;> @;;> @;;> @;;> @;;> @;;> @;;> @;;> @;;> @;;> @;;> @;;> @;;> @;;> @;;> @;;> @;;> @;;> @;;> @;;> @;;> @;;> @;;> @;;> @;;> @;;> @;;> @;;> @;;> @;;> @;;> @;;> @;;> @;;> @;;> @;;> @;;> @;;> @;;> @;;> @;;> @;;> @;;> @;;> @;;> @;;> @;;> @;;> @;;> @;;> @;;> @;;> @;;> @;;> @;;> @;;> @;;> @;;> @;;> @;;> @;;> @;;> @;;> @;;> @;;> @;;> @;;> @;;> @;;> @;;> @;;> @;;> @;;> @;;> @;;> @;;> @;;> @;;> @;;> @;;> @;;> @;;> @;;> @;;> @;;> @;;> @;;> @;;> @;;> @;;> @;;> @;;> @;;> @;;> >;;> >;;> >;;> >;;> >;;> >;;> >;;> >;;> >;;> >;;> >;;> >;;> >;;> >;;> >;;> >;;> >;;> >;;> >;;> >;;> >;;> >;;> >;;> >;;> >;;> >;;> >;;> >;;> >;;> >;;> >;;> >;;> >;;> >;;> >;;> >;;> >;;> >;;> >;;> >;;> >;;> >;;> >;;> >;;> >;;> >;;> >;;> >;;> >;;> >;;> >;;> >;;> >;;> >;;> >;;> >;;> >;;> >;;> >;;> >;;> >;;> >;;> >;;> >;;> >;;> >;;> >;;> >;;> >;;> >;;> >;;> >;;> >;;> >;;> >;;> >;;> >;;> >;;> >;;> >;;> >;;> >;;> >;;> >;;> >;;> >;;> >;;> >;;> >;;> >;;> >;;> >;;> >;;> >;;> >;;> >;;> >;;> >;;> >;;> >;;> >;;> >;;> >> >> >> >> >> >> >> >> >> >> >> >> >> >> >> >> >> >> >> >> >> >> >> >> >> >> >> >> >> >> >> >> >> >> >> >> >> >> >> >> >> >> >> >> >> >> >> >> >> >> >> >> >> >> >> >> >> >> >> >> >> >> >> >> >> >> >> >> >> >> >> >> >> >> >> >> >> >> >> >> >> >> >> >> >> >> >> >> >> >> >> >> >> >> >> >> >> >> >> >> >> >> >> >> >> >> >> >> >> >> >> >> >> >> >> >> >> >> >> >> >> >> >> >> >> >> >> >> >> >> >> >> >> >> >> >> >> >> >> >> >> >> >> >> >> >> >> >> >> >> >> >> >> >> S=77>G S=77>G S=77>G S=77>G S=77>G S=77>G S=77>G S=77>G S=77>G S=77>G S=77>G S=77>G S=77>G S=77>G S=77>G S=77>G S=77>G S=77>G S=77>G S=77>G S=77>G S=77>G S=77>G S=77>G S=77>G S=77>G S=77>G S=77>G S=77>G S=77>G S=77>G S=77>G S=77>G S=77>G S=77>G S=77>G S=77>G S=77>G S=77>G S=77>G S=77>G S=77>G S=77>G S=77>G S=77>G S=77>G S=77>G S=77>G S=77>G S=77>G S=77>G S=77>G S=77>G S=77>G S=77>G S=77>G S=77>G S=77>G S=77>G S=77>G S=77>G S=77>G S=77>G S=77>G S=77>G S=77>G S=77>G S=77>G S=77>G S=77>G S=77>G S=77>G S=77>G S=77>G S=77>G S=77>G S=77>G S=77>G S=77>G S=77>G S=77>G S=77>G S=77>G S=77>G S=77>G S=77>G S=77>G S=77>G S=77>G S=77>G S=77>G S=77>G S=77>G S=77>G S=77>G S=77>G S=77>G S=77>G S=77>G S=77>G S=77>G S=77>G S=77>G S=77>G S=77>G S=77>G S=77>G S=77>G S=77>G S=77>G S=77>G S=77>G S=77>G S=77>G S=77>G S=77>G S=77>G S=77>G S=77>G S=77>G S=77>G S=77>G S=77>G S=77>G S=77>G S=77>G S=77>G S=77>G S=77>G S=77>G S=77>G S=77>G S=77>G S=77>G S=77>G S=77>G S=77>G S=77>G S=77>G S=77>G S=77>G S=77>G S=77>G S=77>G S=77>G S=77>G S=77>G S=77>G S=77>G S=77>G S=77>G S=77>G S=77>G S=77>G S=77>G S=77>G S=77>G S=77>G S=77>G S=77>G S=77>G S=77>G S=77>G S=77>G S=77>G S=77>G S=77>G S=77>G S=77>G S=77>G S=77>G S=77>G S=77>G S=77>G S=77>G S=77>G S=77>G S=77>G S=77>G S=77>G S=77>G S=77>G S=77>G S=77>G S=77>G S=77>G S=77>G S=77>G S=77>G S=77>G S=77>G S=77>G S=77>G S=77>G S=77>G S=77>G S=77>G S=77>G S=77>G S=77>G S=77>G S=77>G S=77>G S=77>G S=77>G S=77>G S=77>G S=77>G S=77>G S=77>G S=77>G S=77>G S=77>G S=77>G S=77>G S=77>G S=77>G S=77>G S=77>G S=77>G S=77>G S=77>G S=77>G S=77>G S=77>G S=77>G S=77>G S=77>G S=77>G S=77>G S=77>G S=77>G S=77>G S=77>G S=77>G S=77>G S=77>G S=77>G S=77>G S=77>G S=77>G S=77>G S=77>G S=77>G S=77>G S=77>G S=77>G S=77>G S=77>G S=77>G S=77>G S=77>G S=77>G S=77>G S=77>G S=77>G S;77>G S;77>G S;77>G S;77>G S;77>G S;77>G S;77>G S;77>G S;77>G S;77>G S;77>G S;77>G S;77>G S;77>G S;77>G S;77>G S;77>G S;77>G S;77>G S;77>G S;77>G S;77>G S;77>G S;77>G S;77>G S;77>G S;77>G S;77>G S;77>G S;77>G S;77>G S;77>G S;77>G S;77>G S;77>G S;77>G S;77>G S;77>G S;77>G S;77>G S;77>G S;77>G S;77>G S;77>G S;77>G S;77>G S;77>G S;77>G S;77>G S;77>G S;77>G S;77>G S;77>G S;77>G S;77>G S;77>G S;77>G S;77>G S;77>G S;77>G S;77>G S;77>G S;77>G S;77>G S;77>G S;77>G S;77>G S;77>G S;77>G S;77>G S;77>G S;77>G S;77>G S;77>G S;77>G S;77>G S;77>G S;77>G S;77>G S;77>G S;77>G S;77>G S;77>G S;77>G S;77>G S;77>G S;77>G S;77>G S;77>G S;77>G S;77>G S;77>G S;77>G S;77>G S;77>G S;77>G S;77>G S;77>G S;77>G S;77>G S;77>G S;77>G S;>G S;>G S;>G S;>G S;>G S;>G S;>G S;>G S;>G S;>G S;>G S;>G S;>G S;>G S;>G S;>G S;>G S;>G S;>G S;>G S;>G S;>G S;>G S;>G S;>G S;>G S;>G S;>G S;>G S;>G S;>G S;>G S;>G S;>G S;>G S;>G S;>G S;>G S;>G S;>G S;>G S;>G S;>G S;>G S;>G S;>G S;>G S;>G S;>G S;>G S;>G S;>G S;>G S;>G S;>G S;>G S;>G S;>G S;>G S;>G S;>G S;>G S;>G S;>G S;>G S;>G S;>G S;>G S;>G S;>G S;>G S;>G S;>G S;>G S;>G S;>G S;>G S;>G S;>G S;>G S;>G S;>G S;>G S;>G S;>G S;>G S;>G S;>G S;>G S;>G S;>G S;>G S;>G S;>G S;>G S;>G S;>G S;>G S;>G S;>G S;>G S;>G S;>G S;>G S;>G S;>G S;>G S;>G S;>G S;>G S;>G S;>G S;>G S;>G S;>G S;>G S;>G S;>G S;>G S;>G S;>G S;>G S;>G S;>G S;>G S;>G S;>G S;>G S;>G S;>G S;>G S;>G S;>G S;>G S;>G S;>G S;>G S;>G S;>G S;>G S;>G S;>G S;>G S;>G S;>G S;>G S;>G S;>G S;>G S;>G S;>G S;>G S;>G S;>G SB66JB SB66JB SB66JB SB66JB SB66JB SB66JB SB66JB SB66JB SB66JB SB66JB SB66JB SB66JB SB66JB SB66JB SB66JB SB66JB SB66JB SB66JB SB66JB SB66JB SB66JB SB66JB SB66JB SB66JB SB66JB SB66JB SB66JB SB66JB SB66JB SB66JB SB66JB SB66JB SB66JB SB66JB SB66JB SB66JB SB66JB SB66JB SB66JB SB66JB SB66JB SB66JB SB66JB SB66JB SB66JB SB66JB SB66JB SB66JB SB66JB SB66JB SB66JB SB66JB SB66JB SB66JB SB66JB SB66JB SB66JB SB66JB SB66JB SB66JB SB66JB SB66JB SB66JB SB66JB SB66JB SB66JB SB66JB SB66JB SB66JB SB66JB SB66JB SB66JB SB66JB SB66JB SB66JB SB66JB SB66JB SB66JB SB66JB SB66JB SB66JB SB66JB SB66JB SB66JB SB66JB SB66JB SB66JB SB66JB SB66JB SB66JB SB66JB SB66JB SB66JB SB66JB SB66JB SB66JB SB66JB SB66JB SB66JB SB66JB SB66JB SB66JB SB66JB SB66JB SB66JB SB66JB SB66JB SB66JB SB66JB SB66JB SB66JB SB66JB SB66JB SB66JB SB66JB SB66JB SB66JB SB66JB SB66JB SB66JB SB66JB SB66JB SB66JB SB66JB SB66JB SB66JB SB66JB SB66JB SB66JB SB66JB SB66JB SB66JB SB66JB SB66JB SB66JB SB66JB SB66JB SB66JB SB66JB SB66JB SB66JB SB66JB SB66JB SB66JB SB66JB SB66JB SB66JB SB66JB SB66JB SB66JB SB66JB SB66JB SB66JB SB66JB SB66JB SB66JB SB66JB SB66JB SB66JB SB66JB SB66JB SB66JB SB66JB SB66JB SB66JB SB66JB SB66JB SB66JB SB66JB SB66JB SB66JB UB66JB UB66JB UB66JB UB66JB UB66JB UB66JB UB66JB UB66JB UB66JB UB66JB UB66JB UB66JB UB66JB UB66JB UB66JB UB66JB UB66JB UB66JB UB66JB UB66JB UB66JB UB66JB UB66JB UB66JB UB66JB UB66JB UB66JB UB66JB UB66JB UB66JB UB66JB UB66JB UB66JB UB66JB UB66JB UB66JB UB66JB UB66JB UB66JB UB66JB UB66JB UB66JB UB66JB UB66JB UB66JB UB66JB UB66JB UB66JB UB66JB UB66JB UB66JB UB66JB UB66JB UB66JB UB66JB UB66JB UB66JB UB66JB UB66JB UB66JB UB66JB UB66JB UB66JB UB66JB UB66JB UB66JB UB66JB UB66JB UB66JB UB66JB UB66JB UB66JB UB66JB UB66JB UB66JB UB66JB UB66JB UB66JB UB66JB UB66JB UB66JB UB66JB UB66JB UB66JB UB66JB UB66JB UB66JB UB66JB UB66JB UB66JB UB66JB UB66JB UB66JB UB66JB UB66JB UB66JB UB66JB UB66JB UB66JB UB66JB UB66JB UB66JB UB66JB UB66JB UB66JB UB66JB UB66JB UB66JB UB66JB UB66JB UB66JB UB66JB UB66JB UB66JB UB66JB UB66JB UB66JB UB66JB UB66JB UB66JB UB66JB UB66JB UB66JB UB66JB UB66JB UB66JB UB66JB UB66JB UB66JB UB66JB UB66JB UB66JB UB66JB UB66JB UB66JB UB66JB UB66JB UB66JB UB66JB UB66JB UB66JB UB66JB UB66JB UB66JB UB66JB UB66JB UB66JB UB66JB UB66JB UB66JB UB66JB UB66JB UB66JB UB66JB UB66JB UB66JB UB66JB UB66JB UB66JB UB66JB UB66JB UB66JB UB66JB UB66JB UB66JB UB66JB UB66JB UB66JB UB66JB UB66JB SB66JB SB66JB SB66JB SB66JB SB66JB SB66JB SB66JB SB66JB SB66JB SB66JB SB66JB SB66JB SB66JB SB66JB SB66JB SB66JB SB66JB SBJB SBJB SBJB SBJB SBJB SBJB SBJB SBJB SBJB SBJB SBJB SBJB SBJB SBJB SBJB SBJB SBJB SBJB SBJB SBJB SBJB SBJB SBJB SBJB SBJB SBJB SBJB SBJB SBJB SBJB SBJB SBJB SBJB SBJB SBJB SBJB SBJB SBJB SBJB SBJB SBJB SBJB SBJB SBJB SBJB SBJB SBJB SBJB SBJB SBJB SBJB SBJB SBJB SBJB SBJB SBJB SBJB SBJB SBJB SBJB SBJB SBJB SBJB SBJB SBJB SBJB SBJB SBJB SBJB SBJB SBJB SBJB SBJB SBJB SBJB SBJB SBJB SBJB SBJB SBJB SBJB SBJB SBJB SBJB SBJB SBJB SBJB SBJB SBJB SBJB SBJB SBJB SBJB SBJB SBJB SBJB SBJB SBJB SBJB SBJB SBJB SBJB SBJB SBJB SBJB SBJB SBJB SBJB SBJB SBJB SBJB SBJB SBJB SBJB SBJB SBJB SBJB SBJB SBJB SBJB SBJB SBJB SBJB SBJB SBJB SBJB SBJB SBJB SBJB SBJB SBJB SBJB SBJB SBJB SBJB SBJB SBJB SBJB SBJB SBJB SBJB SBJB SBJB SBJB SBJB SBJB SBJB SBJB SBJB SBJB SBJB SBJB SBJB SBJB RB11BI RB11BI RB11BI RB11BI RB11BI RB11BI RB11BI RB11BI RB11BI RB11BI RB11BI RB11BI RB11BI RB11BI RB11BI RB11BI RB11BI RB11BI RB11BI RB11BI RB11BI RB11BI RB11BI RB11BI RB11BI RB11BI RB11BI RB11BI RB11BI RB11BI RB11BI RB11BI RB11BI RB11BI RB11BI RB11BI RB11BI RB11BI RB11BI RB11BI RB11BI RB11BI RB11BI RB11BI RB11BI RB11BI RB11BI RB11BI RB11BI RB11BI RB11BI RB11BI RB11BI RB11BI RB11BI RB11BI RB11BI RB11BI RB11BI RB11BI RB11BI RB11BI RB11BI RB11BI RB11BI RB11BI RB11BI RB11BI RB11BI RB11BI RB11BI RB11BI RB11BI RB11BI RB11BI RB11BI RB11BI RB11BI RB11BI RB11BI RB11BI RB11BI RB11BI RB11BI RB11BI RB11BI RB11BI RB11BI RB11BI RB11BI RB11BI RB11BI RB11BI RB11BI RB11BI RB11BI RB11BI RB11BI RB11BI RB11BI RB11BI RB11BI RB11BI RB11BI RB11BI RB11BI RB11BI RB11BI RB11BI RB11BI RB11BI RB11BI RB11BI RB11BI RB11BI RB11BI RB11BI RB11BI RB11BI RB11BI RB11BI RB11BI RB11BI RB11BI RB11BI RB11BI RB11BI RB11BI RB11BI RB11BI RB11BI RB11BI RB11BI RB11BI RB11BI RB11BI RB11BI RB11BI RB11BI RB11BI RB11BI RB11BI RB11BI RB11BI RB11BI RB11BI RB11BI RB11BI RB11BI RB11BI RB11BI RB11BI RB11BI RB11BI RB11BI RB11BI RB11BI RB11BI RB11BI RB11BI RB11BI RB11BI RB11BI RB11BI RB11BI RB11BI RB11BI RB11BI RB11BI RB11BI RB11BI PB11BI PB11BI PB11BI PB11BI PB11BI PB11BI PB11BI PB11BI PB11BI PB11BI PB11BI PB11BI PB11BI PB11BI PB11BI PB11BI PB11BI PB11BI PB11BI PB11BI PB11BI PB11BI PB11BI PB11BI PB11BI PB11BI PB11BI PB11BI PB11BI PB11BI PB11BI PB11BI PB11BI PB11BI PB11BI PB11BI PB11BI PB11BI PB11BI PB11BI PB11BI PB11BI PB11BI PB11BI PB11BI PB11BI PB11BI PB11BI PB11BI PB11BI PB11BI PB11BI PB11BI PB11BI PB11BI PB11BI PB11BI PB11BI PB11BI PB11BI PB11BI PB11BI PB11BI PB11BI PB11BI PB11BI PB11BI PB11BI PB11BI PB11BI PB11BI PB11BI PB11BI PB11BI PB11BI PB11BI PB11BI PB11BI PB11BI PB11BI PB11BI PB11BI PB11BI PB11BI PB11BI PB11BI PB11BI PB11BI PB11BI PB11BI PB11BI PB11BI PB11BI PB11BI PB11BI PB11BI PB11BI PB11BI PB11BI PB11BI PB11BI PB11BI PB11BI PB11BI PB11BI PB11BI PB11BI PB11BI PB11BI PB11BI PB11BI PB11BI PB11BI PB11BI PB11BI PB11BI PB11BI PB11BI PB11BI PB11BI PB11BI PB11BI PB11BI PB11BI PB11BI PB11BI PB11BI PB11BI PB11BI PB11BI PB11BI PB11BI PB11BI PB11BI PB11BI PB11BI PB11BI PB11BI PB11BI PB11BI PB11BI PB11BI PB11BI PB11BI PB11BI PB11BI PB11BI PB11BI PB11BI PB11BI PB11BI PB11BI PB11BI PB11BI PB11BI PB11BI PB11BI PB11BI PB11BI PB11BI PB11BI PB11BI PB11BI PB11BI PB11BI PB11BI PB11BI PB11BI PB11BI PB11BI NB11BI NB11BI NB11BI NB11BI NB11BI NB11BI NB11BI NB11BI NB11BI NB11BI NB11BI NB11BI NB11BI NB11BI NB11BI NB11BI NB11BI NBBI NBBI NBBI NBBI NBBI NBBI NBBI NBBI NBBI NBBI NBBI NBBI NBBI NBBI NBBI NBBI NBBI NBBI NBBI NBBI NBBI NBBI NBBI NBBI NBBI NBBI NBBI NBBI NBBI NBBI NBBI NBBI NBBI NBBI NBBI NBBI NBBI NBBI NBBI NBBI NBBI NBBI NBBI NBBI NBBI NBBI NBBI NBBI NBBI NBBI NBBI NBBI NBBI NBBI NBBI NBBI NBBI NBBI NBBI NBBI NBBI NBBI NBBI NBBI NBBI NBBI NBBI NBBI NBBI NBBI NBBI NBBI NBBI NBBI NBBI NBBI NBBI NBBI NBBI NBBI NBBI NBBI NBBI NBBI NBBI NBBI NBBI NBBI NBBI NBBI NBBI NBBI NBBI NBBI NBBI NBBI NBBI NBBI NBBI NBBI NBBI NBBI NBBI NBBI NBBI NBBI NBBI NBBI NBBI NBBI NBBI NBBI NBBI NBBI NBBI NBBI NBBI NBBI NBBI NBBI NBBI NBBI NBBI NBBI NBBI NBBI NBBI NBBI NBBI NBBI NBBI NBBI NBBI NBBI NBBI NBBI NBBI NBBI NBBI NBBI NBBI NBBI NBBI NBBI NBBI NBBI NBBI NBBI NBBI NBBI NBBI NBBI NBBI NBBI L..@I L..@I L..@I L..@I L..@I L..@I L..@I L..@I L..@I L..@I L..@I L..@I L..@I L..@I L..@I L..@I L..@I L..@I L..@I L..@I L..@I L..@I L..@I L..@I L..@I L..@I L..@I L..@I L..@I L..@I L..@I L..@I L..@I L..@I L..@I L..@I L..@I L..@I L..@I L..@I L..@I L..@I L..@I L..@I L..@I L..@I L..@I L..@I L..@I L..@I L..@I L..@I L..@I L..@I L..@I L..@I L..@I L..@I L..@I L..@I L..@I L..@I L..@I L..@I L..@I L..@I L..@I L..@I L..@I L..@I L..@I L..@I L..@I L..@I L..@I L..@I L..@I L..@I L..@I L..@I L..@I L..@I L..@I L..@I L..@I L..@I L..@I L..@I L..@I L..@I L..@I L..@I L..@I L..@I L..@I L..@I L..@I L..@I L..@I L..@I L..@I L..@I L..@I L..@I L..@I L..@I L..@I L..@I L..@I L..@I L..@I L..@I L..@I L..@I L..@I L..@I L..@I L..@I L..@I L..@I L..@I L..@I L..@I L..@I L..@I L..@I L..@I L..@I L..@I L..@I L..@I L..@I L..@I L..@I L..@I L..@I L..@I L..@I L..@I L..@I L..@I L..@I L..@I L..@I L..@I L..@I L..@I L..@I L..@I L..@I L..@I L..@I L..@I L..@I L..@I L..@I L..@I L..@I L..@I L..@I L..@I L..@I L..@I L..@I L..@I L..@I L..@I L..@I L..@I L..@I L..@I J..@I J..@I J..@I J..@I J..@I J..@I J..@I J..@I J..@I J..@I J..@I J..@I J..@I J..@I J..@I J..@I J..@I J..@I J..@I J..@I J..@I J..@I J..@I J..@I J..@I J..@I J..@I J..@I J..@I J..@I J..@I J..@I J..@I J..@I J..@I J..@I J..@I J..@I J..@I J..@I J..@I J..@I J..@I J..@I J..@I J..@I J..@I J..@I J..@I J..@I J..@I J..@I J..@I J..@I J..@I J..@I J..@I J..@I J..@I J..@I J..@I J..@I J..@I J..@I J..@I J..@I J..@I J..@I J..@I J..@I J..@I J..@I J..@I J..@I J..@I J..@I J..@I J..@I J..@I J..@I J..@I J..@I J..@I J..@I J..@I J..@I J..@I J..@I J..@I J..@I J..@I J..@I J..@I J..@I J..@I J..@I J..@I J..@I J..@I J..@I J..@I J..@I J..@I J..@I J..@I J..@I J..@I J..@I J..@I J..@I J..@I J..@I J..@I J..@I J..@I J..@I J..@I J..@I J..@I J..@I J..@I J..@I J..@I J..@I J..@I J..@I J..@I J..@I J..@I J..@I J..@I J..@I J..@I J..@I J..@I J..@I J..@I J..@I J..@I J..@I J..@I J..@I J..@I J..@I J..@I J..@I J..@I J..@I J..@I J..@I J..@I J..@I J..@I J..@I J..@I J..@I J..@I J..@I J..@I J..@I J..@I J..@I J..@I J..@I J..@I J..@I J..@I J..@I J..@I J..@I I..@I I..@I I..@I I..@I I..@I I..@I I..@I I..@I I..@I I..@I I..@I I..@I I..@I I..@I I..@I I..@I I..@I I@I I@I I@I I@I I@I I@I I@I I@I I@I I@I I@I I@I I@I I@I I@I I@I I@I I@I I@I I@I I@I I@I I@I I@I I@I I@I I@I I@I I@I I@I I@I I@I I@I I@I I@I I@I I@I I@I I@I I@I I@I I@I I@I I@I I@I I@I I@I I@I I@I I@I I@I I@I I@I I@I I@I I@I I@I I@I I@I I@I I@I I@I I@I I@I I@I I@I I@I I@I I@I I@I I@I I@I I@I I@I I@I I@I I@I I@I I@I I@I I@I I@I I@I I@I I@I I@I I@I I@I I@I I@I I@I I@I I@I I@I I@I I@I I@I I@I I@I I@I I@I I@I I@I I@I I@I I@I I@I I@I I@I I@I I@I I@I I@I I@I I@I I@I I@I I@I I@I I@I I@I I@I I@I I@I I@I I@I I@I I@I I@I I@I I@I I@I I@I I@I I@I I@I I@I I@I I@I I@I I@I I@I I@I I@I I@I I@I I@I I@I I@I I@I I@I I@I I@I I@I G=*B* G=*B* G=*B* G=*B* G=*B* G=*B* G=*B* G=*B* G=*B* G=*B* G=*B* G=*B* G=*B* G=*B* G=*B* G=*B* G=*B* G=*B* G=*B* G=*B* G=*B* G=*B* G=*B* G=*B* G=*B* G=*B* G=*B* G=*B* G=*B* G=*B* G=*B* G=*B* G=*B* G=*B* G=*B* G=*B* G=*B* G=*B* G=*B* G=*B* G=*B* G=*B* G=*B* G=*B* G=*B* G=*B* G=*B* G=*B* G=*B* G=*B* G=*B* G=*B* G=*B* G=*B* G=*B* G=*B* G=*B* G=*B* G=*B* G=*B* G=*B* G=*B* G=*B* G=*B* G=*B* G=*B* G=*B* G=*B* G=*B* G=*B* G=*B* G=*B* G=*B* G=*B* G=*B* G=*B* G=*B* G=*B* G=*B* G=*B* G=*B* G=*B* G=*B* G=*B* G=*B* G=*B* G=*B* G=*B* G=*B* G=*B* G=*B* G=*B* G=*B* G=*B* G=*B* G=*B* G=*B* G=*B* G=*B* G=*B* G=*B* G=*B* G=*B* G=*B* G=*B* G=*B* G=*B* G=*B* G=*B* G=*B* G=*B* G=*B* G=*B* G=*B* G=*B* G=*B* G=*B* G=*B* G=*B* G=*B* G=*B* G=*B* G=*B* G=*B* G=*B* G=*B* G=*B* G=*B* G=*B* G=*B* G=*B* G=*B* G=*B* G=*B* G=*B* G=*B* G=*B* G=*B* G=*B* G=*B* G=*B* G=*B* G=*B* G=*B* G=*B* G=*B* G=*B* G=*B* G=*B* G=*B* G=*B* G=*B* G=*B* G=*B* G=*B* G=*B* G=*B* G=*B* G=*B* G=*B* G=*B* G=*B* G=*B* G=*B* G=*B* G=*B* G=*B* G=*B* G=*B* G=*B* G=*B* I=*B* I=*B* I=*B* I=*B* I=*B* I=*B* I=*B* I=*B* I=*B* I=*B* I=*B* I=*B* I=*B* I=*B* I=*B* I=*B* I=*B* I=*B* I=*B* I=*B* I=*B* I=*B* I=*B* I=*B* I=*B* I=*B* I=*B* I=*B* I=*B* I=*B* I=*B* I=*B* I=*B* I=*B* I=*B* I=*B* I=*B* I=*B* I=*B* I=*B* I=*B* I=*B* I=*B* I=*B* I=*B* I=*B* I=*B* I=*B* I=*B* I=*B* I=*B* I=*B* I=*B* I=*B* I=*B* I=*B* I=*B* I=*B* I=*B* I=*B* I=*B* I=*B* I=*B* I=*B* I=*B* I=*B* I=*B* I=*B* I=*B* I=*B* I=*B* I=*B* I=*B* I=*B* I=*B* I=*B* I=*B* I=*B* I=*B* I=*B* I=*B* I=*B* I=*B* I=*B* I=*B* I@**@ I@**@ I@**@ I@**@ I@**@ I@**@ I@**@ I@**@ I@**@ I@**@ I@**@ I@**@ I@**@ I@**@ I@**@ I@**@ I@**@ I@**@ I@**@ I@**@ I@**@ I@**@ I@**@ I@**@ I@**@ I@**@ I@**@ I@**@ I@**@ I@**@ I@**@ I@**@ I@**@ I@**@ I@**@ I@**@ I@**@ I@**@ I@**@ I@**@ I@**@ I@**@ I@**@ I@**@ I@**@ I@**@ I@**@ I@**@ I@**@ I@**@ I@**@ I@**@ I@**@ I@**@ I@**@ I@**@ I@**@ I@**@ I@**@ I@**@ I@**@ I@**@ I@**@ I@**@ I@**@ I@**@ I@**@ I@**@ I@**@ I@**@ I@**@ I@**@ I@**@ I@**@ I@**@ I@**@ I@**@ I@**@ I@**@ I@**@ I@**@ I@**@ I@**@ I@**@ I@**@ F@**@ F@**@ F@**@ F@**@ F@**@ F@**@ F@**@ F@**@ F@**@ F@**@ F@**@ F@**@ F@**@ F@**@ F@**@ F@**@ F@**@ F@@ F@@ F@@ F@@ F@@ F@@ F@@ F@@ F@@ F@@ F@@ F@@ F@@ F@@ F@@ F@@ F@@ F@@ F@@ F@@ F@@ F@@ F@@ F@@ F@@ F@@ F@@ F@@ F@@ F@@ F@@ F@@ F@@ F@@ F@@ F@@ F@@ F@@ F@@ F@@ F@@ F@@ F@@ F@@ F@@ F@@ F@@ F@@ F@@ F@@ F@@ F@@ F@@ F@@ F@@ F@@ F@@ F@@ F@@ F@@ F@@ F@@ F@@ F@@ F@@ F@@ F@@ F@@ F@@ F@@ F@@ F@@ F@@ F@@ F@@ F@@ F@@ F@@ F@@ F@@ F@@ F@@ F@@ F@@ F@@ F@@ F@@ F@@ F@@ F@@ F@@ F@@ F@@ F@@ F@@ F@@ F@@ F@@ F@@ F@@ F@@ F@@ F@@ F@@ F@@ F@@ F@@ F@@ F@@ F@@ F@@ F@@ F@@ F@@ F@@ F@@ F@@ F@@ F@@ F@@ F@@ F@@ F@@ F@@ F@@ F@@ F@@ F@@ F@@ F@@ F@@ F@@ F@@ F@@ F@@ F@@ F@@ F@@ F@@ F@@ F@@ F@@ F@@ F@@ F@@ F@@ F@@ F@@ F@@ F@@ F@@ F@@ F@@ F@@ G>//;> G>//;> G>//;> G>//;> G>//;> G>//;> G>//;> G>//;> G>//;> G>//;> G>//;> G>//;> G>//;> G>//;> G>//;> G>//;> G>//;> G>//;> G>//;> G>//;> G>//;> G>//;> G>//;> G>//;> G>//;> G>//;> G>//;> G>//;> G>//;> G>//;> G>//;> G>//;> G>//;> G>//;> G>//;> G>//;> G>//;> G>//;> G>//;> G>//;> G>//;> G>//;> G>//;> G>//;> G>//;> G>//;> G>//;> G>//;> G>//;> G>//;> G>//;> G>//;> G>//;> G>//;> G>//;> G>//;> G>//;> G>//;> G>//;> G>//;> G>//;> G>//;> G>//;> G>//;> G>//;> G>//;> G>//;> G>//;> G>//;> G>//;> G>//;> G>//;> G>//;> G>//;> G>//;> G>//;> G>//;> G>//;> G>//;> G>//;> G>//;> G>//;> G>//;> G>//;> G>//;> G>//;> G>//;> G>//;> G>//;> G>//;> G>//;> G>//;> G>//;> G>//;> G>//;> G>//;> G>//;> G>//;> G>//;> G>//;> G>//;> G>//;> G>//;> G>//;> G>//;> G>//;> G>//;> G>//;> G>//;> G>//;> G>//;> G>//;> G>//;> G>//;> G>//;> G>//;> G>//;> G>//;> G>//;> G>//;> G>//;> G>//;> G>//;> G>//;> G>//;> G>//;> G>//;> G>//;> G>//;> G>//;> G>//;> G>//;> G>//;> G>//;> G>//;> G>//;> G>//;> G>//;> G>//;> G>//;> G>//;> G>//;> G>//;> G>//;> G>//;> G>//;> G>//;> G>//;> G>//;> G>//;> G>//;> G>//;> G>//;> G>//;> G>//;> G>//;> G>//;> G>//;> G>//;> G>//;> G>//;> G>//;> G>//;> G>//;> G>//;> G>//;> G>//;> G>//;> G>//;> G>//;> G>//;> G>//;> G>//;> G>//;> G>//;> G>//;> G>//;> G>//;> G>//;> G>//;> G>//;> G>//;> G>//;> G>//;> G>//;> G>//;> G>//;> G>//;> G>//;> G>//;> G>//;> G>//;> G>//;> G>//;> G>//;> G>//;> G>//;> G>//;> G>//;> G>//;> G>//;> G>//;> G>//;> G>//;> G>//;> G>//;> G>//;> G>//;> G>//;> G>//;> G>//;> G>//;> G>//;> G>//;> G>//;> G>//;> G>//;> G>//;> G>//;> G>//;> G>//;> G>//;> G>//;> G>//;> G>//;> G>//;> G>//;> G>//;> G>//;> G>//;> G>//;> G>//;> G>//;> G>//;> G>//;> G>//;> G>//;> G>//;> G>//;> G>//;> G>//;> G>//;> G>//;> G>//;> G>//;> G>//;> G>//;> G>//;> G>//;> G>//;> G>//;> G>//;> G>//;> G>//;> G>//;> G>//;> J=//;> J=//;> J=//;> J=//;> J=//;> J=//;> J=//;> J=//;> J=//;> J=//;> J=//;> J=//;> J=//;> J=//;> J=//;> J=//;> J=//;> J=//;> J=//;> J=//;> J=//;> J=//;> J=//;> J=//;> J=//;> J=//;> J=//;> J=//;> J=//;> J=//;> J=//;> J=//;> J=//;> J=//;> J=//;> J=//;> J=//;> J=//;> J=//;> J=//;> J=//;> J=//;> J=//;> J=//;> J=//;> J=//;> J=//;> J=//;> J=//;> J=//;> J=//;> J=//;> J=//;> J=//;> J=//;> J=//;> J=//;> J=//;> J=//;> J=//;> J=//;> J=//;> J=//;> J=//;> J=//;> J=//;> J=//;> J=//;> J=//;> J=//;> J=//;> J=//;> J=//;> J=//;> J=//;> J=//;> J=//;> J=//;> J=//;> J=//;> J=//;> J=//;> J=//;> J=//;> J=//;> J=//;> J=//;> J=//;> J=//;> J=//;> J=//;> J=//;> J=//;> J=//;> J=//;> J=//;> J=//;> J=//;> J=//;> J=//;> J=//;> J=//;> J=;> J=;> J=;> J=;> J=;> J=;> J=;> J=;> J=;> J=;> J=;> J=;> J=;> J=;> J=;> J=;> J=;> J=;> J=;> J=;> J=;> J=;> J=;> J=;> J=;> J=;> J=;> J=;> J=;> J=;> J=;> J=;> J=;> J=;> J=;> J=;> J=;> J=;> J=;> J=;> J=;> J=;> J=;> J=;> J=;> J=;> J=;> J=;> J=;> J=;> J=;> J=;> J=;> J=;> J=;> J=;> J=;> J=;> J=;> J=;> J=;> J=;> J=;> J=;> J=;> J=;> J=;> J=;> J=;> J=;> J=;> J=;> J=;> J=;> J=;> J=;> J=;> J=;> J=;> J=;> J=;> J=;> J=;> J=;> J=;> J=;> J=;> J=;> J=;> J=;> J=;> J=;> J=;> J=;> J=;> J=;> J=;> J=;> J=;> J=;> J=;> J=;> J=;> J=;> J=;> J=;> J=;> J=;> J=;> J=;> J=;> J=;> J=;> J=;> J=;> J=;> J=;> J=;> J=;> J=;> J=;> J=;> J=;> J=;> J=;> J=;> J=;> J=;> J=;> J=;> J=;> J=;> J=;> J=;> J=;> J=;> J=;> J=;> J=;> J=;> J=;> J=;> J=;> J=;> J=;> J=;> J=;> J=;> J=;> J=;> J=;> J=;> J=;> J=;> N;//;> N;//;> N;//;> N;//;> N;//;> N;//;> N;//;> N;//;> N;//;> N;//;> N;//;> N;//;> N;//;> N;//;> N;//;> N;//;> N;//;> N;//;> N;//;> N;//;> N;//;> N;//;> N;//;> N;//;> N;//;> N;//;> N;//;> N;//;> N;//;> N;//;> N;//;> N;//;> N;//;> N;//;> N;//;> N;//;> N;//;> N;//;> N;//;> N;//;> N;//;> N;//;> N;//;> N;//;> N;//;> N;//;> N;//;> N;//;> N;//;> N;//;> N;//;> N;//;> N;//;> N;//;> N;//;> N;//;> N;//;> N;//;> N;//;> N;//;> N;//;> N;//;> N;//;> N;//;> N;//;> N;//;> N;//;> N;//;> N;//;> N;//;> N;//;> N;//;> N;//;> N;//;> N;//;> N;//;> N;//;> N;//;> N;//;> N;//;> N;//;> N;//;> N;//;> N;//;> N;//;> N;//;> N;//;> N;//;> N;//;> N;//;> N;//;> N;//;> N;//;> N;//;> N;//;> N;//;> N;//;> N;//;> N;//;> N;//;> N;//;> N;//;> N;//;> N;//;> N;//;> N;//;> N;//;> N;//;> N;//;> N;//;> N;//;> N;//;> N;//;> N;//;> N;//;> N;//;> N;//;> N;//;> N;//;> N;//;> N;//;> N;//;> N;//;> N;//;> N;//;> N;//;> N;//;> N;//;> N;//;> N;//;> N;//;> N;//;> N;//;> N;//;> N;//;> N;//;> N;//;> N;//;> N;//;> N;//;> N;//;> N;//;> N;//;> N;//;> N;//;> N;//;> N;//;> N;//;> N;//;> N;//;> N;//;> N;//;> N;//;> N;//;> N;//;> N;//;> N;//;> N;//;> N;//;> N;//;> N;//;> N;//;> N;//;> N;//;> N;//;> N;//;> N;//;> N;//;> N;//;> N;//;> N;//;> N;//;> N;//;> N;//;> N;//;> N;//;> N;//;> N;//;> N;//;> N;//;> N;//;> N;//;> N;//;> N;//;> N;//;> N;//;> N;//;> N;//;> N;//;> N;//;> N;//;> N;//;> N;//;> N;//;> N;//;> N;//;> N;//;> N;//;> N;//;> N;//;> N;//;> N;//;> N;//;> N;//;> N;//;> N;//;> N;//;> N;//;> N;//;> N;//;> N;//;> N;//;> N;//;> N;//;> N;//;> N;//;> N;//;> N;//;> N;//;> N;//;> N;//;> N;//;> N;//;> N;//;> N;//;> N;//;> N;//;> N;//;> N;//;> N;//;> N;//;> N;//;> N;//;> N;//;> N;//;> N;//;> N;//;> N;//;> N;//;> N;//;> N;//;> N;//;> N;//;> N;//;> N;//;> N;//;> N;//;> N;//;> N;//;> N;//;> N;//;> N;//;> N;//;> N;//;> N;//;> N;//;> S;//;> S;//;> S;//;> S;//;> S;//;> S;//;> S;//;> S;//;> S;//;> S;//;> S;//;> S;//;> S;//;> S;//;> S;//;> S;//;> S;//;> S;//;> S;//;> S;//;> S;//;> S;//;> S;//;> S;//;> S;//;> S;//;> S;//;> S;//;> S;//;> S;//;> S;//;> S;//;> S;//;> S;//;> S;//;> S;//;> S;//;> S;//;> S;//;> S;//;> S;//;> S;//;> S;//;> S;//;> S;//;> S;//;> S;//;> S;//;> S;//;> S;//;> S;//;> S;//;> S;//;> S;//;> S;//;> S;//;> S;//;> S;//;> S;//;> S;//;> S;//;> S;//;> S;//;> S;//;> S;//;> S;//;> S;//;> S;//;> S;//;> S;//;> S;//;> S;//;> S;//;> S;//;> S;//;> S;//;> S;//;> S;//;> S;//;> S;//;> S;//;> S;//;> S;//;> S;//;> S;//;> S;//;> S;//;> S;//;> S;//;> S;//;> S;//;> S;//;> S;//;> S;//;> S;//;> S;//;> S;//;> S;//;> S;//;> S;//;> S;//;> S;//;> S;;> S;;> S;;> S;;> S;;> S;;> S;;> S;;> S;;> S;;> S;;> S;;> S;;> S;;> S;;> S;;> S;;> S;;> S;;> S;;> S;;> S;;> S;;> S;;> S;;> S;;> S;;> S;;> S;;> S;;> S;;> S;;> S;;> S;;> S;;> S;;> S;;> S;;> S;;> S;;> S;;> S;;> S;;> S;;> S;;> S;;> S;;> S;;> S;;> S;;> S;;> S;;> S;;> S;;> S;;> S;;> S;;> S;;> S;;> S;;> S;;> S;;> S;;> S;;> S;;> S;;> S;;> S;;> S;;> S;;> S;;> S;;> S;;> S;;> S;;> S;;> S;;> S;;> S;;> S;;> S;;> S;;> S;;> S;;> S;;> S;;> S;;> S;;> S;;> S;;> S;;> S;;> S;;> S;;> S;;> S;;> S;;> S;;> S;;> S;;> S;;> S;;> S;;> S;;> S;;> S;;> S;;> S;;> S;;> S;;> S;;> S;;> S;;> S;;> S;;> S;;> S;;> S;;> S;;> S;;> S;;> S;;> S;;> S;;> S;;> S;;> S;;> S;;> S;;> S;;> S;;> S;;> S;;> S;;> S;;> S;;> S;;> S;;> S;;> S;;> S;;> S;;> S;;> S;;> S;;> S;;> S;;> S;;> S;;> S;;> S;;> S;;> S;;> S;;> V;// V;// V;// V;// V;// V;// V;// V;// V;// V;// V;// V;// V;// V;// V;// V;// V;// V;// V;// V;// V;// V;// V;// V;// V;// V;// V;// V;// V;// V;// V;// V;// V;// V;// V;// V;// V;// V;// V;// V;// V;// V;// V;// V;// V;// V;// V;// V;// V;// V;// V;// V;// V;// V;// V;// V;// V;// V;// V;// V;// V;// V;// V;// V;// V;// V;// V;// V;// V;// V;// V;// V;// V;// V;// V;// V;// V;// V;// V;// V;// V;// V;// V;// V;// V;// V;// V;// V;// V;// V;// V;// V;// V;// V;// V;// V;// V;// V;// V;// V;// V;// V;// V;// V;// V;// V;// V;// V;// V;// V;// V;// V;// V;// V;// V;// V;// V;// V;// V;// V;// V;// V;// V;// V;// V;// V;// V;// V;// V;// V;// V;// V;// V;// V;// V;// V;// V;// V;// V;// V;// V;// V;// V;// V;// V;// V;// V;// V;// V;// V;// V;// V;// V;// V;// V;// V;// V;// V;// V;// V;// V;// V;// V;// V;// V;// V;// V;// V;// V;// V;// V;// V;// V;// V;// V;// V;// V;// V;// V;// V;// V;// V;// V;// V;// V;// V;// V;// V;// V;// V;// V;// V;// V;// V;// V;// V;// V;// V;// V;// V;// V;// V;// V;// V;// V;// V;// V;// V;// V;// V;// V;// V;// V;// V;// V;// V;// V;// V;// V;// V;// V;// V;// V;// V;// V;// V;// V;// V;// V;// V;// V;// V;// V;// V;// V;// V;// V;// V;// V;// V;// V;// V;// V;// V;// V;// V;// V;// V;// V;// V;// V;// V;// V;// V;// V;// V;// V;// V;// V;// V;// V;// V;// V;// V;// V;// V;// V;// V;// V;// V;// V;// V;// V;// V;// V;// V;// V;// V;// V;// V;// V;// V;// V;// V;// V;// V;// V;// V;// V;// V;// V;// V;// V;// V;// V;// V;// V;// V;// V;// V;// V;// V;// V;// V;// V;// V;// V;// V;// V;// V;// V;// V;// V;// V;// V;// V;// V;// V;// V;// V;// V;// V;// V;// V;// V;// V;// V;// V;// V;// V;// V;// V;// V;// V;// V;// V;// V;// V;// V;// V;// V;// V;// V;// V;// V;// V;// V;// V;// V;// V;// V;// V;// V;// V;// V;// V;// V;// V;// V; V; V; V; V; V; V; V; V; V; V; V; V; V; V; V; V; V; V; V; V; V; V; V; V; V; V; V; V; V; V; V; V; V; V; V; V; V; V; V; V; V; V; V; V; V; V; V; V; V; V; V; V; V; V; V; V; V; V; V; V; V; V; V; V; V; V; V; V; V; V; V; V; V; V; V; V; V; V; V; V; V; V; V; V; V; V; V; V; V; V; V; V; V; V; V; V; V; V; V; V; V; V; V; V; V; V; V; V; V; V; V; V; V; V; V; V; V; V; V; V; V; V; V; V; V; V; V; V; V; V; V; V; V; V; V; V; V; V; V; V; V; V; V; V; V; V; V; V; V; V; V; V; V; 6// 6// 6// 6// 6// 6// 6// 6// 6// 6// 6// 6// 6// 6// 6// 6// 6// 6// 6// 6// 6// 6// 6// 6// 6// 6// 6// 6// 6// 6// 6// 6// 6// 6// 6// 6// 6// 6// 6// 6// 6// 6// 6// 6// 6// 6// 6// 6// 6// 6// 6// 6// 6// 6// 6// 6// 6// 6// 6// 6// 6// 6// 6// 6// 6// 6// 6// 6// 6// 6// 6// 6// 6// 6// 6// 6// 6// 6// 6// 6// 6// 6// 6// 6// 6// 6// 6// 6// 6// 6// 6// 6// 6// 6// 6// 6// 6// 6// 6// 6// 6// 6// 6// 6// 6// 6// 6// 6// 6// 6// 6// 6// 6// 6// 6// 6// 6// 6// 6// 6// 6// 6// 6// 6// 6// 6// 6// 6// 6// 6// 6// 6// 6// 6// 6// 6// 6// 6// 6// 6// 6// 6// 6// 6// 6// 6// 6// 6// 6// 6// 6// 6// 6// 6// 6// 6// 6// 6// 6// 6// 6// 6// 6// 6// 6// 6// 6// 6// 6// 6// 6// 6// 6// 6// 6// 6// 6// 6// 6// 6// 6// 6// 6// 6// 6// 6// 6// 6// 6// 6// 6// 6// 6// 6// 6// 6// 6// 6// 6// 6// 6// 6// 6// 6// 6// 6// 6// 6// 6// 6// 6// 6// 6// 6// 6// 6// 6// 6// 6// 6// 6// 6// 6// 6// 6// 6// 6// 6// 6// 6// 6// 6// 6// 6// 6// 6// 6// 6// 6// 6// 6// 6// 6// 6// 6// 6// 6// 6// 6// 6// 6// 6// 6// 6// 6// 6// 6// 6// 6// 6// 6// 6// 6// 6// 6// 6// 6// 6// 6// 6// 6// 6// 6// 6// 6// 6// 6// 6// 6// 6// 6// 6// 6// 6// 6// 6// 6// 6// 6// 6// 6// 6// 6// 6// 6// 6// 6// 6// 6// 6// 6// 6// 6// 6// 6// 6// 6// 6// 6// 6// 6// 6// 6// 6// 6// 6// 6// 6// 6// 6// 6// 6// 6// 6// 6// 6// 6// 6// 6// 6// 6// 6// 6// 6// 6// 6// 6// 6// 6// 6// 6// 6// 6// 6// 6// 6// 6// 6// 6// 6// 6// 6// 6// 6// 6// 6// 6// 6// 6 6 6 6 6 6 6 6 6 6 6 6 6 6 6 6 6 6 6 6 6 6 6 6 6 6 6 6 6 6 6 6 6 6 6 6 6 6 6 6 6 6 6 6 6 6 6 6 6 6 6 6 6 6 6 6 6 6 6 6 6 6 6 6 6 6 6 6 6 6 6 6 6 6 6 6 6 6 6 6 6 6 6 6 6 6 6 6 6 6 6 6 6 6 6 6 6 6 6 6 6 6 6                                                    7// 7// 7// 7// 7// 7// 7// 7// 7// 7// 7// 7// 7// 7// 7// 7// 7// 7// 7// 7// 7// 7// 7// 7// 7// 7// 7// 7// 7// 7// 7// 7// 7// 7// 7// 7// 7// 7// 7// 7// 7// 7// 7// 7// 7// 7// 7// 7// 7// 7// 7// 7// 7// 7// 7// 7// 7// 7// 7// 7// 7// 7// 7// 7// 7// 7// 7// 7// 7// 7// 7// 7// 7// 7// 7// 7// 7// 7// 7// 7// 7// 7// 7// 7// 7// 7// 7// 7// 7// 7// 7// 7// 7// 7// 7// 7// 7// 7// 7// 7// 7// 7// 7// 7// 7// 7// 7// 7// 7// 7// 7// 7// 7// 7// 7// 7// 7// 7// 7// 7// 7// 7// 7// 7// 7// 7// 7// 7// 7// 7// 7// 7// 7// 7// 7// 7// 7// 7// 7// 7// 7// 7// 7// 7// 7// 7// 7// 7// 7// 7// 7// 7// 7// 7// 7// 7// 7// 7// 7// 7// 7// 7// 7// 7// 7// 7// 7// 7// 7// 7// 7// 7// 7// 7// 7// 7// 7// 7// 7// 7// 7// 7// 7// 7// 7// 7// 7// 7// 7// 7// 7// 7// 7// 7// 7// 7// 7// 7// 7// 7// 7// 7// 7// 7// 7// 7// 7// 7// 7// 7// 7// 7// 7// 7// 7// 7// 7// 7// 7// 7// 7// 7// 7// 7// 7// 7// 7// 7// 7// 7// 7// 7// 7// 7// 7// 7// 7// 7// 7// 7// 7// 7// 7// 7// 7// 7// 7// 7// 7// 7// 7// 7// 7// 7// 7// 7// J6// J6// J6// J6// J6// J6// J6// J6// J6// J6// J6// J6// J6// J6// J6// J6// J6// J6// J6// J6// J6// J6// J6// J6// J6// J6// J6// J6// J6// J6// J6// J6// J6// J6// J6// J6// J6// J6// J6// J6// J6// J6// J6// J6// J6// J6// J6// J6// J6// J6// J6// J6// J6// J6// J6// J6// J6// J6// J6// J6// J6// J6// J6// J6// J6// J6// J6// J6// J6// J6// J6// J6// J6// J6// J6// J6// J6// J6// J6// J6// J6// J6// J6// J6// J6// J6// J6// J6// J6// J6// J6// J6// J6// J6// J6// J6// J6// J6// J6// J6// J6// J6// J6 J6 J6 J6 J6 J6 J6 J6 J6 J6 J6 J6 J6 J6 J6 J6 J6 J6 J6 J6 J6 J6 J6 J6 J6 J6 J6 J6 J6 J6 J6 J6 J6 J6 J6 J6 J6 J6 J6 J6 J6 J6 J6 J6 J6 J6 J6 J6 J6 J6 J6 J6 J6 J6 J6 J6 J6 J6 J6 J6 J6 J6 J6 J6 J6 J6 J6 J6 J6 J6 J6 J6 J6 J6 J6 J6 J6 J6 J6 J6 J6 J6 J6 J6 J6 J6 J6 J6 J6 J6 J6 J6 J6 J6 J6 J6 J6 J6 J6 J6 J6 J6 J6 J6 J6 J6 J6 J6 J6 J6 J6 J6 J6 J6 J6 J6 J6 J6 J6 J6 J6 J6 J6 J6 J6 J6 J6 J6 J6 J6 J6 J6 J6 J6 J6 J6 J6 J6 J6 J6 J6 J6 J6 J6 J6 J6 J6 J6 J6 J6 J6 J6 J6 J6 I4// I4// I4// I4// I4// I4// I4// I4// I4// I4// I4// I4// I4// I4// I4// I4// I4// I4// I4// I4// I4// I4// I4// I4// I4// I4// I4// I4// I4// I4// I4// I4// I4// I4// I4// I4// I4// I4// I4// I4// I4// I4// I4// I4// I4// I4// I4// I4// I4// I4// I4// I4// I4// I4// I4// I4// I4// I4// I4// I4// I4// I4// I4// I4// I4// I4// I4// I4// I4// I4// I4// I4// I4// I4// I4// I4// I4// I4// I4// I4// I4// I4// I4// I4// I4// I4// I4// I4// I4// I4// I4// I4// I4// I4// I4// I4// I4// I4// I4// I4// I4// I4// I4// I4// I4// I4// I4// I4// I4// I4// I4// I4// I4// I4// I4// I4// I4// I4// I4// I4// I4// I4// I4// I4// I4// I4// I4// I4// I4// I4// I4// I4// I4// I4// I4// I4// I4// I4// I4// I4// I4// I4// I4// I4// I4// I4// I4// I4// I4// I4// I4// I4// I4// I4// I4// I4// I4// I4// I4// I4// I4// I4// I4// I4// I4// I4// I4// I4// I4// I4// I4// I4// I4// I4// I4// I4// I4// I4// I4// I4// I4// I4// I4// I4// I4// I4// I4// I4// I4// I4// I4// I4// I4// I4// I4// I4// I4// I4// I4// I4// I4// I4// I4// I4// I4// I4// I4// I4// I4// I4// I4// I4// I4// I4// I4// I4// I4// I4// I4// I4// I4// I4// I4// I4// I4// I4// I4// I4// I4// I4// I4// I4// I4// I4// I4// I4// I4// I4// I4// I4// I4// I4// I4// I4// I4// I4// I4// I4// I4// I4// I4// I4// I4// I4// I4// I4// G6// G6// G6// G6// G6// G6// G6// G6// G6// G6// G6// G6// G6// G6// G6// G6// G6// G6// G6// G6// G6// G6// G6// G6// G6// G6// G6// G6// G6// G6// G6// G6// G6// G6// G6// G6// G6// G6// G6// G6// G6// G6// G6// G6// G6// G6// G6// G6// G6// G6// G6// G6// G6// G6// G6// G6// G6// G6// G6// G6// G6// G6// G6// G6// G6// G6// G6// G6// G6// G6// G6// G6// G6// G6// G6// G6// G6// G6// G6// G6// G6// G6// G6// G6// G6// G6// G6// G6// G6// G6// G6// G6// G6// G6// G6// G6// G6// G6// G6// G6// G6// G6// G6 G6 G6 G6 G6 G6 G6 G6 G6 G6 G6 G6 G6 G6 G6 G6 G6 G6 G6 G6 G6 G6 G6 G6 G6 G6 G6 G6 G6 G6 G6 G6 G6 G6 G6 G6 G6 G6 G6 G6 G6 G6 G6 G6 G6 G6 G6 G6 G6 G6 G6 G6 G6 G6 G6 G6 G6 G6 G6 G6 G6 G6 G6 G6 G6 G6 G6 G6 G6 G6 G6 G6 G6 G6 G6 G6 G6 G6 G6 G6 G6 G6 G6 G6 G6 G6 G6 G6 G6 G6 G6 G6 G6 G6 G6 G6 G6 G6 G6 G6 G6 G6 G6 G6 G6 G6 G6 G6 G6 G6 G6 G6 G6 G6 G6 G6 G6 G6 G6 G6 G6 G6 G6 G6 G6 G6 G6 G6 G6 G6 G6 G6 G6 G6 G6 G6 G6 G6 G6 G6 G6 G6 G6 G6 G6 G6 G6 G6 G6 G6 G6 G6 G6 G6 I6..:=B I6..:=B I6..:=B I6..:=B I6..:=B I6..:=B I6..:=B I6..:=B I6..:=B I6..:=B I6..:=B I6..:=B I6..:=B I6..:=B I6..:=B I6..:=B I6..:=B I6..:=B I6..:=B I6..:=B I6..:=B I6..:=B I6..:=B I6..:=B I6..:=B I6..:=B I6..:=B I6..:=B I6..:=B I6..:=B I6..:=B I6..:=B I6..:=B I6..:=B I6..:=B I6..:=B I6..:=B I6..:=B I6..:=B I6..:=B I6..:=B I6..:=B I6..:=B I6..:=B I6..:=B I6..:=B I6..:=B I6..:=B I6..:=B I6..:=B I6..:=B I6..:=B I6..:=B I6..:=B I6..:=B I6..:=B I6..:=B I6..:=B I6..:=B I6..:=B I6..:=B I6..:=B I6..:=B I6..:=B I6..:=B I6..:=B I6..:=B I6..:=B I6..:=B I6..:=B I6..:=B I6..:=B I6..:=B I6..:=B I6..:=B I6..:=B I6..:=B I6..:=B I6..:=B I6..:=B I6..:=B I6..:=B I6..:=B I6..:=B I6..:=B I6..:=B I6..:=B I6..:=B I6..:=B I6..:=B I6..:=B I6..:=B I6..:=B I6..:=B I6..:=B I6..:=B I6..:=B I6..:=B I6..:=B I6..:=B I6..:=B I6..:=B I6..:=B I6..:=B I6..:=B I6..:=B I6..:=B I6..:=B I6..:=B I6..:=B I6..:=B I6..:=B I6..:=B I6..:=B I6..:=B I6..:=B I6..:=B I6..:=B I6..:=B I6..:=B I6..:=B I6..:=B I6..:=B I6..:=B I6..:=B I6..:=B I6..:=B I6..:=B I6..:=B I6..:=B I6..:=B I6..:=B I6..:=B I6..:=B I6..:=B I6..:=B I6..:=B I6..:=B I6..:=B I6..:=B I6..:=B I6..:=B I6..:=B I6..:=B I6..:=B I6..:=B I6..:=B I6..:=B I6..:=B I6..:=B I6..:=B I6..:=B I6..:=B I6..:=B I6..:=B I6..:=B I6..:=B I6..:=B I6..:=B I6..:=B I6..:=B I6..:=B I6..:=B I6..:=B I6..:=B I6..:=B I6..:=B I6..:=B I6..:=B I6..:=B I6..:=B I6..:=B I6..:=B I6..:=B I6..:=B I6..:=B I6..:=B I6..:=B I6..:=B I6..:=B I6..:=B I6..:=B I6..:=B I6..:=B I6..:=B I6..:=B I6..:=B I6..:=B I6..:=B I6..:=B I6..:=B I6..:=B I6..:=B I6..:=B I6..:=B I6..:=B I6..:=B I6..:=B I6..:=B I6..:=B I6..:=B I6..:=B I6..:=B I6..:=B I6..:=B I6..:=B I6..:=B I6..:=B I6..:=B I6..:=B I6..:=B I6..:=B I6..:=B I6..:=B I6..:=B I6..:=B I6..:=B I6..:=B I6..:=B I6..:=B I6..:=B I6..:=B I6..:=B I6..:=B I6..:=B I6..:=B I6..:=B I6..:=B I6..:=B I6..:=B I6..:=B I6..:=B I6..:=B I6..:=B I6..:=B I6..:=B I6..:=B I6..:=B I6..:=B I6..:=B I6..:=B I6..:=B I6..:=B I6..:=B I6..:=B I6..:=B I6..:=B I6..:=B I6..:=B I6..:=B I6..:=B I6..:=B I6..:=B I6..:=B I6..:=B I6..:=B N:..:=B N:..:=B N:..:=B N:..:=B N:..:=B N:..:=B N:..:=B N:..:=B N:..:=B N:..:=B N:..:=B N:..:=B N:..:=B N:..:=B N:..:=B N:..:=B N:..:=B N:..:=B N:..:=B N:..:=B N:..:=B N:..:=B N:..:=B N:..:=B N:..:=B N:..:=B N:..:=B N:..:=B N:..:=B N:..:=B N:..:=B N:..:=B N:..:=B N:..:=B N:..:=B N:..:=B N:..:=B N:..:=B N:..:=B N:..:=B N:..:=B N:..:=B N:..:=B N:..:=B N:..:=B N:..:=B N:..:=B N:..:=B N:..:=B N:..:=B N:..:=B N:..:=B N:..:=B N:..:=B N:..:=B N:..:=B N:..:=B N:..:=B N:..:=B N:..:=B N:..:=B N:..:=B N:..:=B N:..:=B N:..:=B N:..:=B N:..:=B N:..:=B N:..:=B N:..:=B N:..:=B N:..:=B N:..:=B N:..:=B N:..:=B N:..:=B N:..:=B N:..:=B N:..:=B N:..:=B N:..:=B N:..:=B N:..:=B N:..:=B N:..:=B N:..:=B N:..:=B N:..:=B N:..:=B N:..:=B N:..:=B N:..:=B N:..:=B N:..:=B N:..:=B N:..:=B N:..:=B N:..:=B N:..:=B N:..:=B N:..:=B N:..:=B N::=B N::=B N::=B N::=B N::=B N::=B N::=B N::=B N::=B N::=B N::=B N::=B N::=B N::=B N::=B N::=B N::=B N::=B N::=B N::=B N::=B N::=B N::=B N::=B N::=B N::=B N::=B N::=B N::=B N::=B N::=B N::=B N::=B N::=B N::=B N::=B N::=B N::=B N::=B N::=B N::=B N::=B N::=B N::=B N::=B N::=B N::=B N::=B N::=B N::=B N::=B N::=B N::=B N::=B N::=B N::=B N::=B N::=B N::=B N::=B N::=B N::=B N::=B N::=B N::=B N::=B N::=B N::=B N::=B N::=B N::=B N::=B N::=B N::=B N::=B N::=B N::=B N::=B N::=B N::=B N::=B N::=B N::=B N::=B N::=B N::=B N::=B N::=B N::=B N::=B N::=B N::=B N::=B N::=B N::=B N::=B N::=B N::=B N::=B N::=B N::=B N::=B N::=B N::=B N::=B N::=B N::=B N::=B N::=B N::=B N::=B N::=B N::=B N::=B N::=B N::=B N::=B N::=B N::=B N::=B N::=B N::=B N::=B N::=B N::=B N::=B N::=B N::=B N::=B N::=B N::=B N::=B N::=B N::=B N::=B N::=B N::=B N::=B N::=B N::=B N::=B N::=B N::=B N::=B N::=B N::=B N::=B N::=B N::=B N::=B N::=B N::=B N::=B N::=B R=..:=B R=..:=B R=..:=B R=..:=B R=..:=B R=..:=B R=..:=B R=..:=B R=..:=B R=..:=B R=..:=B R=..:=B R=..:=B R=..:=B R=..:=B R=..:=B R=..:=B R=..:=B R=..:=B R=..:=B R=..:=B R=..:=B R=..:=B R=..:=B R=..:=B R=..:=B R=..:=B R=..:=B R=..:=B R=..:=B R=..:=B R=..:=B R=..:=B R=..:=B R=..:=B R=..:=B R=..:=B R=..:=B R=..:=B R=..:=B R=..:=B R=..:=B R=..:=B R=..:=B R=..:=B R=..:=B R=..:=B R=..:=B R=..:=B R=..:=B R=..:=B R=..:=B R=..:=B R=..:=B R=..:=B R=..:=B R=..:=B R=..:=B R=..:=B R=..:=B R=..:=B R=..:=B R=..:=B R=..:=B R=..:=B R=..:=B R=..:=B R=..:=B R=..:=B R=..:=B R=..:=B R=..:=B R=..:=B R=..:=B R=..:=B R=..:=B R=..:=B R=..:=B R=..:=B R=..:=B R=..:=B R=..:=B R=..:=B R=..:=B R=..:=B R=..:=B R=..:=B R=..:=B R=..:=B R=..:=B R=..:=B R=..:=B R=..:=B R=..:=B R=..:=B R=..:=B R=..:=B R=..:=B R=..:=B R=..:=B R=..:=B R=..:=B R=..:=B R=..:=B R=..:=B R=..:=B R=..:=B R=..:=B R=..:=B R=..:=B R=..:=B R=..:=B R=..:=B R=..:=B R=..:=B R=..:=B R=..:=B R=..:=B R=..:=B R=..:=B R=..:=B R=..:=B R=..:=B R=..:=B R=..:=B R=..:=B R=..:=B R=..:=B R=..:=B R=..:=B R=..:=B R=..:=B R=..:=B R=..:=B R=..:=B R=..:=B R=..:=B R=..:=B R=..:=B R=..:=B R=..:=B R=..:=B R=..:=B R=..:=B R=..:=B R=..:=B R=..:=B R=..:=B R=..:=B R=..:=B R=..:=B R=..:=B R=..:=B R=..:=B R=..:=B R=..:=B R=..:=B R=..:=B R=..:=B R=..:=B R=..:=B R=..:=B R=..:=B R=..:=B R=..:=B R=..:=B R=..:=B R=..:=B R=..:=B R=..:=B R=..:=B R=..:=B R=..:=B R=..:=B R=..:=B R=..:=B R=..:=B R=..:=B R=..:=B R=..:=B R=..:=B R=..:=B R=..:=B R=..:=B R=..:=B R=..:=B R=..:=B R=..:=B R=..:=B R=..:=B R=..:=B R=..:=B R=..:=B R=..:=B R=..:=B R=..:=B R=..:=B R=..:=B R=..:=B R=..:=B R=..:=B R=..:=B R=..:=B R=..:=B R=..:=B R=..:=B R=..:=B R=..:=B R=..:=B R=..:=B R=..:=B R=..:=B R=..:=B R=..:=B R=..:=B R=..:=B R=..:=B R=..:=B R=..:=B R=..:=B R=..:=B R=..:=B R=..:=B R=..:=B R=..:=B R=..:=B R=..:=B R=..:=B R=..:=B R=..:=B R=..:=B R=..:=B R=..:=B R=..:=B R=..:=B R=..:=B R=..:=B R=..:=B R=..:=B R=..:=B R=..:=B R=..:=B R=..:=B R=..:=B R=..:=B R=..:=B R=..:=B R=..:=B R=..:=B R=..:=B R=..:=B R=..:=B R=..:=B R=..:=B R=..:=B R=..:=B U=..:=B U=..:=B U=..:=B U=..:=B U=..:=B U=..:=B U=..:=B U=..:=B U=..:=B U=..:=B U=..:=B U=..:=B U=..:=B U=..:=B U=..:=B U=..:=B U=..:=B U=..:=B U=..:=B U=..:=B U=..:=B U=..:=B U=..:=B U=..:=B U=..:=B U=..:=B U=..:=B U=..:=B U=..:=B U=..:=B U=..:=B U=..:=B U=..:=B U=..:=B U=..:=B U=..:=B U=..:=B U=..:=B U=..:=B U=..:=B U=..:=B U=..:=B U=..:=B U=..:=B U=..:=B U=..:=B U=..:=B U=..:=B U=..:=B U=..:=B U=..:=B U=..:=B U=..:=B U=..:=B U=..:=B U=..:=B U=..:=B U=..:=B U=..:=B U=..:=B U=..:=B U=..:=B U=..:=B U=..:=B U=..:=B U=..:=B U=..:=B U=..:=B U=..:=B U=..:=B U=..:=B U=..:=B U=..:=B U=..:=B U=..:=B U=..:=B U=..:=B U=..:=B U=..:=B U=..:=B U=..:=B U=..:=B U=..:=B U=..:=B U=..:=B U=..:=B U=..:=B U=..:=B U=..:=B U=..:=B U=..:=B U=..:=B U=..:=B U=..:=B U=..:=B U=..:=B U=..:=B U=..:=B U=..:=B U=..:=B U=..:=B U=..:=B U=:=B U=:=B U=:=B U=:=B U=:=B U=:=B U=:=B U=:=B U=:=B U=:=B U=:=B U=:=B U=:=B U=:=B U=:=B U=:=B U=:=B U=:=B U=:=B U=:=B U=:=B U=:=B U=:=B U=:=B U=:=B U=:=B U=:=B U=:=B U=:=B U=:=B U=:=B U=:=B U=:=B U=:=B U=:=B U=:=B U=:=B U=:=B U=:=B U=:=B U=:=B U=:=B U=:=B U=:=B U=:=B U=:=B U=:=B U=:=B U=:=B U=:=B U=:=B U=:=B U=:=B U=:=B U=:=B U=:=B U=:=B U=:=B U=:=B U=:=B U=:=B U=:=B U=:=B U=:=B U=:=B U=:=B U=:=B U=:=B U=:=B U=:=B U=:=B U=:=B U=:=B U=:=B U=:=B U=:=B U=:=B U=:=B U=:=B U=:=B U=:=B U=:=B U=:=B U=:=B U=:=B U=:=B U=:=B U=:=B U=:=B U=:=B U=:=B U=:=B U=:=B U=:=B U=:=B U=:=B U=:=B U=:=B U=:=B U=:=B U=:=B U=:=B U=:=B U=:=B U=:=B U=:=B U=:=B U=:=B U=:=B U=:=B U=:=B U=:=B U=:=B U=:=B U=:=B U=:=B U=:=B U=:=B U=:=B U=:=B U=:=B U=:=B U=:=B U=:=B U=:=B U=:=B U=:=B U=:=B U=:=B U=:=B U=:=B U=:=B U=:=B U=:=B U=:=B U=:=B U=:=B U=:=B U=:=B U=:=B U=:=B U=:=B U=:=B U=:=B U=:=B U=:=B U=:=B U=:=B U=:=B U=:=B U=:=B U=:=B U=:=B U=:=B X=.. X=.. X=.. X=.. X=.. X=.. X=.. X=.. X=.. X=.. X=.. X=.. X=.. X=.. X=.. X=.. X=.. X=.. X=.. X=.. X=.. X=.. X=.. X=.. X=.. X=.. X=.. X=.. X=.. X=.. X=.. X=.. X=.. X=.. X=.. X=.. X=.. X=.. X=.. X=.. X=.. X=.. X=.. X=.. X=.. X=.. X=.. X=.. X=.. X=.. X=.. X=.. X=.. X=.. X=.. X=.. X=.. X=.. X=.. X=.. X=.. X=.. X=.. X=.. X=.. X=.. X=.. X=.. X=.. X=.. X=.. X=.. X=.. X=.. X=.. X=.. X=.. X=.. X=.. X=.. X=.. X=.. X=.. X=.. X=.. X=.. X=.. X=.. X=.. X=.. X=.. X=.. X=.. X=.. X=.. X=.. X=.. X=.. X=.. X=.. X=.. X=.. X=.. X=.. X=.. X=.. X=.. X=.. X=.. X=.. X=.. X=.. X=.. X=.. X=.. X=.. X=.. X=.. X=.. X=.. X=.. X=.. X=.. X=.. X=.. X=.. X=.. X=.. X=.. X=.. X=.. X=.. X=.. X=.. X=.. X=.. X=.. X=.. X=.. X=.. X=.. X=.. X=.. X=.. X=.. X=.. X=.. X=.. X=.. X=.. X=.. X=.. X=.. X=.. X=.. X=.. X=.. X=.. X=.. X=.. X=.. X=.. X=.. X=.. X=.. X=.. X=.. X=.. X=.. X=.. X=.. X=.. X=.. X=.. X=.. X=.. X=.. X=.. X=.. X=.. X=.. X=.. X=.. X=.. X=.. X=.. X=.. X=.. X=.. X=.. X=.. X=.. X=.. X=.. X=.. X=.. X=.. X=.. X=.. X=.. X=.. X=.. X=.. X=.. X=.. X=.. X=.. X=.. X=.. X=.. X=.. X=.. X=.. X=.. X=.. X=.. X=.. X=.. X=.. X=.. X=.. X=.. X=.. X=.. X=.. X=.. X=.. X=.. X=.. X=.. X=.. X=.. X=.. X=.. X=.. X=.. X=.. X=.. X=.. X=.. X=.. X=.. X=.. X=.. X=.. X=.. X=.. X=.. X=.. X=.. X=.. X=.. X=.. X=.. X=.. X=.. X>.. X>.. X>.. X>.. X>.. X>.. X>.. X>.. X>.. X>.. X>.. X>.. X>.. X>.. X>.. X>.. X>.. X>.. X>.. X>.. X>.. X>.. X>.. X>.. X>.. X>.. X>.. X>.. X>.. X>.. X>.. X>.. X>.. X>.. X>.. X>.. X>.. X>.. X>.. X>.. X>.. X>.. X>.. X>.. X>.. X>.. X>.. X>.. X>.. X>.. X>.. X>.. X>.. X>.. X>.. X>.. X>.. X>.. X>.. X>.. X>.. X>.. X>.. X>.. X>.. X>.. X>.. X>.. X>.. X>.. X>.. X>.. X>.. X>.. X>.. X>.. X>.. X>.. X>.. X>.. X>.. X>.. X>.. X>.. X>.. X>.. X>.. X>.. X>.. X>.. X>.. X>.. X>.. X>.. X>.. X>.. X>.. X>.. X>.. X>.. X>.. X>.. X> X> X> X> X> X> X> X> X> X> X> X> X> X> X> X> X> X> X> X> X> X> X> X> X> X> X> X> X> X> X> X> X> X> X> X> X> X> X> X> X> X> X> X> X> X> X> X> X> X> X> X> X> X> X> X> X> X> X> X> X> X> X> X> X> X> X> X> X> X> X> X> X> X> X> X> X> X> X> X> X> X> X> X> X> X> X> X> X> X> X> X> X> X> X> X> X> X> X> X> X> X> X> X> X> X> X> X> X> X> X> X> X> X> X> X> X> X> X> X> X> X> X> X> X> X> X> X> X> X> X> X> X> X> X> X> X> X> X> X> X> X> X> X> X> X> X> X> X> X> X> X> X> X> @.. @.. @.. @.. @.. @.. @.. @.. @.. @.. @.. @.. @.. @.. @.. @.. @.. @.. @.. @.. @.. @.. @.. @.. @.. @.. @.. @.. @.. @.. @.. @.. @.. @.. @.. @.. @.. @.. @.. @.. @.. @.. @.. @.. @.. @.. @.. @.. @.. @.. @.. @.. @.. @.. @.. @.. @.. @.. @.. @.. @.. @.. @.. @.. @.. @.. @.. @.. @.. @.. @.. @.. @.. @.. @.. @.. @.. @.. @.. @.. @.. @.. @.. @.. @.. @.. @.. @.. @.. @.. @.. @.. @.. @.. @.. @.. @.. @.. @.. @.. @.. @.. @.. @.. @.. @.. @.. @.. @.. @.. @.. @.. @.. @.. @.. @.. @.. @.. @.. @.. @.. @.. @.. @.. @.. @.. @.. @.. @.. @.. @.. @.. @.. @.. @.. @.. @.. @.. @.. @.. @.. @.. @.. @.. @.. @.. @.. @.. @.. @.. @.. @.. @.. @.. @.. @.. @.. @.. @.. @.. @.. @.. @.. @.. @.. @.. @.. @.. @.. @.. @.. @.. @.. @.. @.. @.. @.. @.. @.. @.. @.. @.. @.. @.. @.. @.. @.. @.. @.. @.. @.. @.. @.. @.. @.. @.. @.. @.. @.. @.. @.. @.. @.. @.. @.. @.. @.. @.. @.. @.. @.. @.. @.. @.. @.. @.. @.. @.. @.. @.. @.. @.. @.. @.. @.. @.. @.. @.. @.. @.. @.. @.. @.. @.. @.. @.. @.. @.. @.. @.. @.. @.. @.. @.. @.. @.. @.. @.. @.. @.. @.. @.. @.. @.. @.. @.. C.. C.. C.. C.. C.. C.. C.. C.. C.. C.. C.. C.. C.. C.. C.. C.. C.. C.. C.. C.. C.. C.. C.. C.. C.. C.. C.. C.. C.. C.. C.. C.. C.. C.. C.. C.. C.. C.. C.. C.. C.. C.. C.. C.. C.. C.. C.. C.. C.. C.. C.. C.. C.. C.. C.. C.. C.. C.. C.. C.. C.. C.. C.. C.. C.. C.. C.. C.. C.. C.. C.. C.. C.. C.. C.. C.. C.. C.. C.. C.. C.. C.. C.. C.. C.. C.. C.. C.. C.. C.. C.. C.. C.. C.. C.. C.. C.. C.. C.. C.. C.. C.. C C C C C C C C C C C C C C C C C C C C C C C C C C C C C C C C C C C C C C C C C C C C C C C C C C C C C C C C C C C C C C C C C C C C C C C C C C C C C C C C C C C C C C C C C C C C C C C C C C C C C C C C C C C C C C C C C C C C C C C C C C C C C C C C C C C C C C C C C C C C C C C C C C C C C C C C C C B.. B.. B.. B.. B.. B.. B.. B.. B.. B.. B.. B.. B.. B.. B.. B.. B.. B.. B.. B.. B.. B.. B.. B.. B.. B.. B.. B.. B.. B.. B.. B.. B.. B.. B.. B.. B.. B.. B.. B.. B.. B.. B.. B.. B.. B.. B.. B.. B.. B.. B.. B.. B.. B.. B.. B.. B.. B.. B.. B.. B.. B.. B.. B.. B.. B.. B.. B.. B.. B.. B.. B.. B.. B.. B.. B.. B.. B.. B.. B.. B.. B.. B.. B.. B.. B.. B.. B.. B.. B.. B.. B.. B.. B.. B.. B.. B.. B.. B.. B.. B.. B.. B.. B.. B.. B.. B.. B.. B.. B.. B.. B.. B.. B.. B.. B.. B.. B.. B.. B.. B.. B.. B.. B.. B.. B.. B.. B.. B.. B.. B.. B.. B.. B.. B.. B.. B.. B.. B.. B.. B.. B.. B.. B.. B.. B.. B.. B.. B.. B.. B.. B.. B.. B.. B.. B.. B.. B.. B.. B.. B.. B.. B.. B.. B.. B.. B.. B.. B.. B.. B.. B.. B.. B.. B.. B.. B.. B.. B.. B.. B.. B.. B.. B.. B.. B.. B.. B.. B.. B.. B.. B.. B.. B.. B.. B.. B.. B.. B.. B.. B.. B.. B.. B.. B.. B.. B.. B.. B.. B.. B.. B.. B.. B.. B.. B.. B.. B.. B.. B.. B.. B.. B.. B.. B.. B.. B.. B.. B.. B.. B.. B.. B.. B.. B.. B.. B.. B.. B.. B.. B.. B.. B.. B.. B.. B.. B.. B.. B.. B.. B.. B.. B.. B.. B.. B.. C@.. C@.. C@.. C@.. C@.. C@.. C@.. C@.. C@.. C@.. C@.. C@.. C@.. C@.. C@.. C@.. C@.. C@.. C@.. C@.. C@.. C@.. C@.. C@.. C@.. C@.. C@.. C@.. C@.. C@.. C@.. C@.. C@.. C@.. C@.. C@.. C@.. C@.. C@.. C@.. C@.. C@.. C@.. C@.. C@.. C@.. C@.. C@.. C@.. C@.. C@.. C@.. C@.. C@.. C@.. C@.. C@.. C@.. C@.. C@.. C@.. C@.. C@.. C@.. C@.. C@.. C@.. C@.. C@.. C@.. C@.. C@.. C@.. C@.. C@.. C@.. C@.. C@.. C@.. C@.. C@.. C@.. C@.. C@.. C@.. C@.. C@.. C@.. C@.. C@.. C@.. C@.. C@.. C@.. C@.. C@.. C@.. C@.. C@.. C@.. C@.. C@.. C@ C@ C@ C@ C@ C@ C@ C@ C@ C@ C@ C@ C@ C@ C@ C@ C@ C@ C@ C@ C@ C@ C@ C@ C@ C@ C@ C@ C@ C@ C@ C@ C@ C@ C@ C@ C@ C@ C@ C@ C@ C@ C@ C@ C@ C@ C@ C@ C@ C@ C@ C@ C@ C@ C@ C@ C@ C@ C@ C@ C@ C@ C@ C@ C@ C@ C@ C@ C@ C@ C@ C@ C@ C@ C@ C@ C@ C@ C@ C@ C@ C@ C@ C@ C@ C@ C@ C@ C@ C@ C@ C@ C@ C@ C@ C@ C@ C@ C@ C@ C@ C@ C@ C@ C@ C@ C@ C@ C@ C@ C@ C@ C@ C@ C@ C@ C@ C@ C@ C@ C@ C@ C@ C@ C@ C@ C@ C@ C@ C@ C@ C@ C@ C@ C@ C@ C@ C@ C@ C@ C@ C@ C@ C@ C@ C@ C@ C@ C@ C@ C@ C@ C@ C@ B>.. B>.. B>.. B>.. B>.. B>.. B>.. B>.. B>.. B>.. B>.. B>.. B>.. B>.. B>.. B>.. B>.. B>.. B>.. B>.. B>.. B>.. B>.. B>.. B>.. B>.. B>.. B>.. B>.. B>.. B>.. B>.. B>.. B>.. B>.. B>.. B>.. B>.. B>.. B>.. B>.. B>.. B>.. B>.. B>.. B>.. B>.. B>.. B>.. B>.. B>.. B>.. B>.. B>.. B>.. B>.. B>.. B>.. B>.. B>.. B>.. B>.. B>.. B>.. B>.. B>.. B>.. B>.. B>.. B>.. B>.. B>.. B>.. B>.. B>.. B>.. B>.. B>.. B>.. B>.. B>.. B>.. B>.. B>.. B>.. B>.. B>.. B>.. B>.. B>.. B>.. B>.. B>.. B>.. B>.. B>.. B>.. B>.. B>.. B>.. B>.. B>.. B>.. B>.. B>.. B>.. B>.. B>.. B>.. B>.. B>.. B>.. B>.. B>.. B>.. B>.. B>.. B>.. B>.. B>.. B>.. B>.. B>.. B>.. B>.. B>.. B>.. B>.. B>.. B>.. B>.. B>.. B>.. B>.. B>.. B>.. B>.. B>.. B>.. B>.. B>.. B>.. B>.. B>.. B>.. B>.. B>.. B>.. B>.. B>.. B>.. B>.. B>.. B>.. B>.. B>.. B>.. B>.. B>.. B>.. B>.. B>.. B>.. B>.. B>.. B>.. B>.. B>.. B>.. B>.. B>.. B>.. B>.. B>.. B>.. B>.. B>.. B>.. B>.. B>.. B>.. B>.. B>.. B>.. B>.. B>.. B>.. B>.. B>.. B>.. B>.. B>.. B>.. B>.. B>.. B>.. B>.. B>.. B>.. B>.. B>.. B>.. B>.. B>.. B>.. B>.. B>.. B>.. B>.. B>.. B>.. B>.. B>.. B>.. B>.. B>.. B>.. B>.. B>.. B>.. B>.. B>.. B>.. B>.. B>.. B>.. B>.. B>.. B>.. B>.. B>.. B>.. B>.. B>.. B>.. B>.. B>.. B>.. B>.. B>.. B>.. B>.. B>.. B>.. B>.. B>.. B>.. B>.. B>.. B>.. B>.. B>.. B>.. B>.. B>.. B>.. @=.. @=.. @=.. @=.. @=.. @=.. @=.. @=.. @=.. @=.. @=.. @=.. @=.. @=.. @=.. @=.. @=.. @=.. @=.. @=.. @=.. @=.. @=.. @=.. @=.. @=.. @=.. @=.. @=.. @=.. @=.. @=.. @=.. @=.. @=.. @=.. @=.. @=.. @=.. @=.. @=.. @=.. @=.. @=.. @=.. @=.. @=.. @=.. @=.. @=.. @=.. @=.. @=.. @=.. @=.. @=.. @=.. @=.. @=.. @=.. @=.. @=.. @=.. @=.. @=.. @=.. @=.. @=.. @=.. @=.. @=.. @=.. @=.. @=.. @=.. @=.. @=.. @=.. @=.. @=.. @=.. @=.. @=.. @=.. @=.. @=.. @=.. @=.. @=.. @=.. @=.. @=.. @=.. @=.. @=.. @=.. @=.. @=.. @=.. @=.. @=.. @=.. @= @= @= @= @= @= @= @= @= @= @= @= @= @= @= @= @= @= @= @= @= @= @= @= @= @= @= @= @= @= @= @= @= @= @= @= @= @= @= @= @= @= @= @= @= @= @= @= @= @= @= @= @= @= @= @= @= @= @= @= @= @= @= @= @= @= @= @= @= @= @= @= @= @= @= @= @= @= @= @= @= @= @= @= @= @= @= @= @= @= @= @= @= @= @= @= @= @= @= @= @= @= @= @= @= @= @= @= @= @= @= @= @= @= @= @= @= @= @= @= @= @= @= @= @= @= @= @= @= @= @= @= @= @= @= @= @= @= @= @= @= @= @= @= @= @= @= @= @= @= @= @= @= @= B?--9<?B B?--9<?B B?--9<?B B?--9<?B B?--9<?B B?--9<?B B?--9<?B B?--9<?B B?--9<?B B?--9<?B B?--9<?B B?--9<?B B?--9<?B B?--9<?B B?--9<?B B?--9<?B B?--9<?B B?--9<?B B?--9<?B B?--9<?B B?--9<?B B?--9<?B B?--9<?B B?--9<?B B?--9<?B B?--9<?B B?--9<?B B?--9<?B B?--9<?B B?--9<?B B?--9<?B B?--9<?B B?--9<?B B?--9<?B B?--9<?B B?--9<?B B?--9<?B B?--9<?B B?--9<?B B?--9<?B B?--9<?B B?--9<?B B?--9<?B B?--9<?B B?--9<?B B?--9<?B B?--9<?B B?--9<?B B?--9<?B B?--9<?B B?--9<?B B?--9<?B B?--9<?B B?--9<?B B?--9<?B B?--9<?B B?--9<?B B?--9<?B B?--9<?B B?--9<?B B?--9<?B B?--9<?B B?--9<?B B?--9<?B B?--9<?B B?--9<?B B?--9<?B B?--9<?B B?--9<?B B?--9<?B B?--9<?B B?--9<?B B?--9<?B B?--9<?B B?--9<?B B?--9<?B B?--9<?B B?--9<?B B?--9<?B B?--9<?B B?--9<?B B?--9<?B B?--9<?B B?--9<?B B?--9<?B B?--9<?B B?--9<?B B?--9<?B B?--9<?B B?--9<?B B?--9<?B B?--9<?B B?--9<?B B?--9<?B B?--9<?B B?--9<?B B?--9<?B B?--9<?B B?--9<?B B?--9<?B B?--9<?B B?--9<?B B?--9<?B B?--9<?B B?--9<?B B?--9<?B B?--9<?B B?--9<?B B?--9<?B B?--9<?B B?--9<?B B?--9<?B B?--9<?B B?--9<?B B?--9<?B B?--9<?B B?--9<?B B?--9<?B B?--9<?B B?--9<?B B?--9<?B B?--9<?B B?--9<?B B?--9<?B B?--9<?B B?--9<?B B?--9<?B B?--9<?B B?--9<?B B?--9<?B B?--9<?B B?--9<?B B?--9<?B B?--9<?B B?--9<?B B?--9<?B B?--9<?B B?--9<?B B?--9<?B B?--9<?B B?--9<?B B?--9<?B B?--9<?B B?--9<?B B?--9<?B B?--9<?B B?--9<?B B?--9<?B B?--9<?B B?--9<?B B?--9<?B B?--9<?B B?--9<?B B?--9<?B B?--9<?B B?--9<?B B?--9<?B B?--9<?B B?--9<?B B?--9<?B B?--9<?B B?--9<?B B?--9<?B B?--9<?B B?--9<?B B?--9<?B B?--9<?B B?--9<?B B?--9<?B B?--9<?B B?--9<?B B?--9<?B B?--9<?B B?--9<?B B?--9<?B B?--9<?B B?--9<?B B?--9<?B B?--9<?B B?--9<?B B?--9<?B B?--9<?B B?--9<?B B?--9<?B B?--9<?B B?--9<?B B?--9<?B B?--9<?B B?--9<?B B?--9<?B B?--9<?B B?--9<?B B?--9<?B B?--9<?B B?--9<?B B?--9<?B B?--9<?B B?--9<?B B?--9<?B B?--9<?B B?--9<?B B?--9<?B B?--9<?B B?--9<?B B?--9<?B B?--9<?B B?--9<?B B?--9<?B B?--9<?B B?--9<?B B?--9<?B B?--9<?B B?--9<?B B?--9<?B B?--9<?B B?--9<?B B?--9<?B B?--9<?B B?--9<?B B?--9<?B B?--9<?B B?--9<?B B?--9<?B B?--9<?B B?--9<?B B?--9<?B B?--9<?B B?--9<?B B?--9<?B B?--9<?B B?--9<?B B?--9<?B B?--9<?B B?--9<?B B?--9<?B B?--9<?B B?--9<?B B?--9<?B B?--9<?B B?--9<?B B?--9<?B B?--9<?B B?--9<?B B?--9<?B B?--9<?B B?--9<?B B?--9<?B B?--9<?B B?--9<?B B?--9<?B B?--9<?B B?--9<?B B?--9<?B B?--9<?B B?--9<?B B?--9<?B EB--9<?B EB--9<?B EB--9<?B EB--9<?B EB--9<?B EB--9<?B EB--9<?B EB--9<?B EB--9<?B EB--9<?B EB--9<?B EB--9<?B EB--9<?B EB--9<?B EB--9<?B EB--9<?B EB--9<?B EB--9<?B EB--9<?B EB--9<?B EB--9<?B EB--9<?B EB--9<?B EB--9<?B EB--9<?B EB--9<?B EB--9<?B EB--9<?B EB--9<?B EB--9<?B EB--9<?B EB--9<?B EB--9<?B EB--9<?B EB--9<?B EB--9<?B EB--9<?B EB--9<?B EB--9<?B EB--9<?B EB--9<?B EB--9<?B EB--9<?B EB--9<?B EB--9<?B EB--9<?B EB--9<?B EB--9<?B EB--9<?B EB--9<?B EB--9<?B EB--9<?B EB--9<?B EB--9<?B EB--9<?B EB--9<?B EB--9<?B EB--9<?B EB--9<?B EB--9<?B EB--9<?B EB--9<?B EB--9<?B EB--9<?B EB--9<?B EB--9<?B EB--9<?B EB--9<?B EB--9<?B EB--9<?B EB--9<?B EB--9<?B EB--9<?B EB--9<?B EB--9<?B EB--9<?B EB--9<?B EB--9<?B EB--9<?B EB--9<?B EB--9<?B EB--9<?B EB--9<?B EB--9<?B EB--9<?B EB--9<?B EB--9<?B EB--9<?B EB--9<?B EB--9<?B EB--9<?B EB--9<?B EB--9<?B EB--9<?B EB--9<?B EB--9<?B EB--9<?B EB--9<?B EB--9<?B EB--9<?B EB--9<?B EB--9<?B EB9<?B EB9<?B EB9<?B EB9<?B EB9<?B EB9<?B EB9<?B EB9<?B EB9<?B EB9<?B EB9<?B EB9<?B EB9<?B EB9<?B EB9<?B EB9<?B EB9<?B EB9<?B EB9<?B EB9<?B EB9<?B EB9<?B EB9<?B EB9<?B EB9<?B EB9<?B EB9<?B EB9<?B EB9<?B EB9<?B EB9<?B EB9<?B EB9<?B EB9<?B EB9<?B EB9<?B EB9<?B EB9<?B EB9<?B EB9<?B EB9<?B EB9<?B EB9<?B EB9<?B EB9<?B EB9<?B EB9<?B EB9<?B EB9<?B EB9<?B EB9<?B EB9<?B EB9<?B EB9<?B EB9<?B EB9<?B EB9<?B EB9<?B EB9<?B EB9<?B EB9<?B EB9<?B EB9<?B EB9<?B EB9<?B EB9<?B EB9<?B EB9<?B EB9<?B EB9<?B EB9<?B EB9<?B EB9<?B EB9<?B EB9<?B EB9<?B EB9<?B EB9<?B EB9<?B EB9<?B EB9<?B EB9<?B EB9<?B EB9<?B EB9<?B EB9<?B EB9<?B EB9<?B EB9<?B EB9<?B EB9<?B EB9<?B EB9<?B EB9<?B EB9<?B EB9<?B EB9<?B EB9<?B EB9<?B EB9<?B EB9<?B EB9<?B EB9<?B EB9<?B EB9<?B EB9<?B EB9<?B EB9<?B EB9<?B EB9<?B EB9<?B EB9<?B EB9<?B EB9<?B EB9<?B EB9<?B EB9<?B EB9<?B EB9<?B EB9<?B EB9<?B EB9<?B EB9<?B EB9<?B EB9<?B EB9<?B EB9<?B EB9<?B EB9<?B EB9<?B EB9<?B EB9<?B EB9<?B EB9<?B EB9<?B EB9<?B EB9<?B EB9<?B EB9<?B EB9<?B EB9<?B EB9<?B EB9<?B EB9<?B EB9<?B EB9<?B EB9<?B EB9<?B EB9<?B EB9<?B EB9<?B EB9<?B EB9<?B EB9<?B HE**9<?B HE**9<?B HE**9<?B HE**9<?B HE**9<?B HE**9<?B HE**9<?B HE**9<?B HE**9<?B HE**9<?B HE**9<?B HE**9<?B HE**9<?B HE**9<?B HE**9<?B HE**9<?B HE**9<?B HE**9<?B HE**9<?B HE**9<?B HE**9<?B HE**9<?B HE**9<?B HE**9<?B HE**9<?B HE**9<?B HE**9<?B HE**9<?B HE**9<?B HE**9<?B HE**9<?B HE**9<?B HE**9<?B HE**9<?B HE**9<?B HE**9<?B HE**9<?B HE**9<?B HE**9<?B HE**9<?B HE**9<?B HE**9<?B HE**9<?B HE**9<?B HE**9<?B HE**9<?B HE**9<?B HE**9<?B HE**9<?B HE**9<?B HE**9<?B HE**9<?B HE**9<?B HE**9<?B HE**9<?B HE**9<?B HE**9<?B HE**9<?B HE**9<?B HE**9<?B HE**9<?B HE**9<?B HE**9<?B HE**9<?B HE**9<?B HE**9<?B HE**9<?B HE**9<?B HE**9<?B HE**9<?B HE**9<?B HE**9<?B HE**9<?B HE**9<?B HE**9<?B HE**9<?B HE**9<?B HE**9<?B HE**9<?B HE**9<?B HE**9<?B HE**9<?B HE**9<?B HE**9<?B HE**9<?B HE**9<?B HE**9<?B HE**9<?B HE**9<?B HE**9<?B HE**9<?B HE**9<?B HE**9<?B HE**9<?B HE**9<?B HE**9<?B HE**9<?B HE**9<?B HE**9<?B HE**9<?B HE**9<?B HE**9<?B HE**9<?B HE**9<?B HE**9<?B HE**9<?B HE**9<?B HE**9<?B HE**9<?B HE**9<?B HE**9<?B HE**9<?B HE**9<?B HE**9<?B HE**9<?B HE**9<?B HE**9<?B HE**9<?B HE**9<?B HE**9<?B HE**9<?B HE**9<?B HE**9<?B HE**9<?B HE**9<?B HE**9<?B HE**9<?B HE**9<?B HE**9<?B HE**9<?B HE**9<?B HE**9<?B HE**9<?B HE**9<?B HE**9<?B HE**9<?B HE**9<?B HE**9<?B HE**9<?B HE**9<?B HE**9<?B HE**9<?B HE**9<?B HE**9<?B HE**9<?B HE**9<?B HE**9<?B HE**9<?B HE**9<?B HE**9<?B HE**9<?B HE**9<?B HE**9<?B HE**9<?B HE**9<?B HE**9<?B HE**9<?B HE**9<?B HE**9<?B HE**9<?B HE**9<?B HE**9<?B HE**9<?B HE**9<?B HE**9<?B HE**9<?B HE**9<?B HE**9<?B HE**9<?B HE**9<?B HE**9<?B HE**9<?B HE**9<?B HE**9<?B HE**9<?B HE**9<?B HE**9<?B HE**9<?B HE**9<?B HE**9<?B HE**9<?B HE**9<?B HE**9<?B HE**9<?B HE**9<?B HE**9<?B HE**9<?B HE**9<?B HE**9<?B HE**9<?B HE**9<?B HE**9<?B HE**9<?B HE**9<?B HE**9<?B HE**9<?B HE**9<?B HE**9<?B HE**9<?B HE**9<?B HE**9<?B HE**9<?B HE**9<?B HE**9<?B HE**9<?B HE**9<?B HE**9<?B HE**9<?B HE**9<?B HE**9<?B HE**9<?B HE**9<?B HE**9<?B HE**9<?B HE**9<?B HE**9<?B HE**9<?B HE**9<?B HE**9<?B HE**9<?B HE**9<?B HE**9<?B HE**9<?B HE**9<?B HE**9<?B HE**9<?B HE**9<?B HE**9<?B HE**9<?B HE**9<?B HE**9<?B HE**9<?B HE**9<?B HE**9<?B HE**9<?B HE**9<?B HE**9<?B HE**9<?B HE**9<?B HE**9<?B HE**9<?B HE**9<?B HE**9<?B HE**9<?B HE**9<?B HE**9<?B HE**9<?B HE**9<?B HE**9<?B HE**9<?B HE**9<?B HE**9<?B HE**9<?B HE**9<?B HE**9<?B HE**9<?B KE**9<?B KE**9<?B KE**9<?B KE**9<?B KE**9<?B KE**9<?B KE**9<?B KE**9<?B KE**9<?B KE**9<?B KE**9<?B KE**9<?B KE**9<?B KE**9<?B KE**9<?B KE**9<?B KE**9<?B KE**9<?B KE**9<?B KE**9<?B KE**9<?B KE**9<?B KE**9<?B KE**9<?B KE**9<?B KE**9<?B KE**9<?B KE**9<?B KE**9<?B KE**9<?B KE**9<?B KE**9<?B KE**9<?B KE**9<?B KE**9<?B KE**9<?B KE**9<?B KE**9<?B KE**9<?B KE**9<?B KE**9<?B KE**9<?B KE**9<?B KE**9<?B KE**9<?B KE**9<?B KE**9<?B KE**9<?B KE**9<?B KE**9<?B KE**9<?B KE**9<?B KE**9<?B KE**9<?B KE**9<?B KE**9<?B KE**9<?B KE**9<?B KE**9<?B KE**9<?B KE**9<?B KE**9<?B KE**9<?B KE**9<?B KE**9<?B KE**9<?B KE**9<?B KE**9<?B KE**9<?B KE**9<?B KE**9<?B KE**9<?B KE**9<?B KE**9<?B KE**9<?B KE**9<?B KE**9<?B KE**9<?B KE**9<?B KE**9<?B KE**9<?B KE**9<?B KE**9<?B KE**9<?B KE**9<?B KE**9<?B KE**9<?B KE**9<?B KE**9<?B KE**9<?B KE**9<?B KE**9<?B KE**9<?B KE**9<?B KE**9<?B KE**9<?B KE**9<?B KE**9<?B KE**9<?B KE**9<?B KE**9<?B KE**9<?B KE9<?B KE9<?B KE9<?B KE9<?B KE9<?B KE9<?B KE9<?B KE9<?B KE9<?B KE9<?B KE9<?B KE9<?B KE9<?B KE9<?B KE9<?B KE9<?B KE9<?B KE9<?B KE9<?B KE9<?B KE9<?B KE9<?B KE9<?B KE9<?B KE9<?B KE9<?B KE9<?B KE9<?B KE9<?B KE9<?B KE9<?B KE9<?B KE9<?B KE9<?B KE9<?B KE9<?B KE9<?B KE9<?B KE9<?B KE9<?B KE9<?B KE9<?B KE9<?B KE9<?B KE9<?B KE9<?B KE9<?B KE9<?B KE9<?B KE9<?B KE9<?B KE9<?B KE9<?B KE9<?B KE9<?B KE9<?B KE9<?B KE9<?B KE9<?B KE9<?B KE9<?B KE9<?B KE9<?B KE9<?B KE9<?B KE9<?B KE9<?B KE9<?B KE9<?B KE9<?B KE9<?B KE9<?B KE9<?B KE9<?B KE9<?B KE9<?B KE9<?B KE9<?B KE9<?B KE9<?B KE9<?B KE9<?B KE9<?B KE9<?B KE9<?B KE9<?B KE9<?B KE9<?B KE9<?B KE9<?B KE9<?B KE9<?B KE9<?B KE9<?B KE9<?B KE9<?B KE9<?B KE9<?B KE9<?B KE9<?B KE9<?B KE9<?B KE9<?B KE9<?B KE9<?B KE9<?B KE9<?B KE9<?B KE9<?B KE9<?B KE9<?B KE9<?B KE9<?B KE9<?B KE9<?B KE9<?B KE9<?B KE9<?B KE9<?B KE9<?B KE9<?B KE9<?B KE9<?B KE9<?B KE9<?B KE9<?B KE9<?B KE9<?B KE9<?B KE9<?B KE9<?B KE9<?B KE9<?B KE9<?B KE9<?B KE9<?B KE9<?B KE9<?B KE9<?B KE9<?B KE9<?B KE9<?B KE9<?B KE9<?B KE9<?B KE9<?B KE9<?B KE9<?B KE9<?B KE9<?B KE9<?B KE9<?B KE9<?B KE9<?B N'' N'' N'' N'' N'' N'' N'' N'' N'' N'' N'' N'' N'' N'' N'' N'' N'' N'' N'' N'' N'' N'' N'' N'' N'' N'' N'' N'' N'' N'' N'' N'' N'' N'' N'' N'' N'' N'' N'' N'' N'' N'' N'' N'' N'' N'' N'' N'' N'' N'' N'' N'' N'' N'' N'' N'' N'' N'' N'' N'' N'' N'' N'' N'' N'' N'' N'' N'' N'' N'' N'' N'' N'' N'' N'' N'' N'' N'' N'' N'' N'' N'' N'' N'' N'' N'' N'' N'' N'' N'' N'' N'' N'' N'' N'' N'' N'' N'' N'' N'' N'' N'' N'' N'' N'' N'' N'' N'' N'' N'' N'' N'' N'' N'' N'' N'' N'' N'' N'' N'' N'' N'' N'' N'' N'' N'' N'' N'' N'' N'' N'' N'' N'' N'' N'' N'' N'' N'' N'' N'' N'' N'' N'' N'' N'' N'' N'' N'' N'' N'' N'' N'' N'' N'' N'' N'' N'' N'' N'' N'' N'' N'' N'' N'' N'' N'' N'' N'' N'' N'' N'' N'' N'' N'' N'' N'' N'' N'' N'' N'' N'' N'' N'' N'' N'' N'' N'' N'' N'' N'' N'' N'' N'' N'' N'' N'' N'' N'' N'' N'' N'' N'' N'' N'' N'' N'' N'' N'' N'' N'' N'' N'' N'' N'' N'' N'' N'' N'' N'' N'' N'' N'' N'' N'' N'' N'' N'' N'' N'' N'' N'' N'' N'' N'' N'' N'' N'' N'' N'' N'' N'' N'' N'' N'' N'' N'' N'' N'' N'' N'' N'' N'' N'' N'' N'' N'' N'' N'' N'' N'' N'' N'' N'' N'' N'' N'' N'' N'' N'' N'' N'' N'' N'' N'' N'' N'' N'' N'' N'' N'' N'' N'' N'' N'' N'' N'' N'' N'' N'' N'' N'' N'' N'' N'' N'' N'' N'' N'' N'' N'' N'' N'' N'' N'' N'' N'' N'' N'' N'' N'' N'' N'' N'' N'' N'' N'' N'' N'' N'' N'' N'' N'' N'' N'' N'' N'' N'' N'' N'' N'' N'' N'' N'' N'' N'' N'' N'' N'' N'' N'' N'' N'' N'' N'' N'' N'' N'' N'' N'' N'' N'' N'' N'' N'' N'' N'' N'' N'' N N N N N N N N N N N N N N N N N N N N N N N N N N N N N N N N N N N N N N N N N N N N N N N N N N N N N N N N N N N N N N N N N N N N N N N N N N N N N N N N N N N N N N N N N N N N N N N N N N N N N N N N N N N N N N N N N N N N N N N N N N N N N N N N N N N N N N N N N N N N N N N N N N N N N N N N N N <'' <'' <'' <'' <'' <'' <'' <'' <'' <'' <'' <'' <'' <'' <'' <'' <'' <'' <'' <'' <'' <'' <'' <'' <'' <'' <'' <'' <'' <'' <'' <'' <'' <'' <'' <'' <'' <'' <'' <'' <'' <'' <'' <'' <'' <'' <'' <'' <'' <'' <'' <'' <'' <'' <'' <'' <'' <'' <'' <'' <'' <'' <'' <'' <'' <'' <'' <'' <'' <'' <'' <'' <'' <'' <'' <'' <'' <'' <'' <'' <'' <'' <'' <'' <'' <'' <'' <'' <'' <'' <'' <'' <'' <'' <'' <'' <'' <'' <'' <'' <'' <'' <'' <'' <'' <'' <'' <'' <'' <'' <'' <'' <'' <'' <'' <'' <'' <'' <'' <'' <'' <'' <'' <'' <'' <'' <'' <'' <'' <'' <'' <'' <'' <'' <'' <'' <'' <'' <'' <'' <'' <'' <'' <'' <'' <'' <'' <'' <'' <'' <'' <'' <'' <'' <'' <'' <'' <'' <'' <'' <'' <'' <'' <'' <'' <'' <'' <'' <'' <'' <'' <'' <'' <'' <'' <'' <'' <'' <'' <'' <'' <'' <'' <'' <'' <'' <'' <'' <'' <'' <'' <'' <'' <'' <'' <'' <'' <'' <'' <'' <'' <'' <'' <'' <'' <'' <'' <'' <'' <'' <'' <'' <'' <'' <'' <'' <'' <'' <'' <'' <'' <'' <'' <'' <'' <'' <'' <'' <'' <'' <'' <'' <'' <'' <'' <'' <'' <'' <'' <'' <'' <'' <'' <'' <'' <'' <'' <'' <'' <'' <'' <'' <'' <'' <'' <'' <'' <'' <'' <'' <'' <'' <'' <'' <'' <'' <'' <'' <'' <'' <'' <'' <'' <'' <'' <'' <'' <'' <'' <'' <'' <'' <'' <'' <'' <'' <'' <'' <'' <'' <'' <'' <'' <'' <'' <'' <'' <'' <'' <'' <'' <'' <'' <'' <'' <'' <'' <'' <'' <'' <'' <'' <'' <'' <'' <'' <'' <'' <'' <'' <'' <'' <'' <'' <'' <'' <'' <'' <'' <'' <'' <'' <'' <'' <'' <'' <'' <'' <'' <'' <'' <'' <'' <'' <'' <'' <'' <'' <'' <'' <'' <'' <'' <'' <'' <'' <'' <'' < < < < < < < < < < < < < < < < < < < < < < < < < < < < < < < < < < < < < < < < < < < < < < < < < < < < < < < < < < < < < < < < < < < < < < < < < < < < < < < < < < < < < < < < < < < < < < < < < < < < < < < < < < < < < < < < < < < < < < < < < < < < < < < < < < < < < < < < < < < < < < < < < < < < < < < < < < ;'' ;'' ;'' ;'' ;'' ;'' ;'' ;'' ;'' ;'' ;'' ;'' ;'' ;'' ;'' ;'' ;'' ;'' ;'' ;'' ;'' ;'' ;'' ;'' ;'' ;'' ;'' ;'' ;'' ;'' ;'' ;'' ;'' ;'' ;'' ;'' ;'' ;'' ;'' ;'' ;'' ;'' ;'' ;'' ;'' ;'' ;'' ;'' ;'' ;'' ;'' ;'' ;'' ;'' ;'' ;'' ;'' ;'' ;'' ;'' ;'' ;'' ;'' ;'' ;'' ;'' ;'' ;'' ;'' ;'' ;'' ;'' ;'' ;'' ;'' ;'' ;'' ;'' ;'' ;'' ;'' ;'' ;'' ;'' ;'' ;'' ;'' ;'' ;'' ;'' ;'' ;'' ;'' ;'' ;'' ;'' ;'' ;'' ;'' ;'' ;'' ;'' ;'' ;'' ;'' ;'' ;'' ;'' ;'' ;'' ;'' ;'' ;'' ;'' ;'' ;'' ;'' ;'' ;'' ;'' ;'' ;'' ;'' ;'' ;'' ;'' ;'' ;'' ;'' ;'' ;'' ;'' ;'' ;'' ;'' ;'' ;'' ;'' ;'' ;'' ;'' ;'' ;'' ;'' ;'' ;'' ;'' ;'' ;'' ;'' ;'' ;'' ;'' ;'' ;'' ;'' ;'' ;'' ;'' ;'' ;'' ;'' ;'' ;'' ;'' ;'' ;'' ;'' ;'' ;'' ;'' ;'' ;'' ;'' ;'' ;'' ;'' ;'' ;'' ;'' ;'' ;'' ;'' ;'' ;'' ;'' ;'' ;'' ;'' ;'' ;'' ;'' ;'' ;'' ;'' ;'' ;'' ;'' ;'' ;'' ;'' ;'' ;'' ;'' ;'' ;'' ;'' ;'' ;'' ;'' ;'' ;'' ;'' ;'' ;'' ;'' ;'' ;'' ;'' ;'' ;'' ;'' ;'' ;'' ;'' ;'' ;'' ;'' ;'' ;'' ;'' ;'' ;'' ;'' ;'' ;'' ;'' ;'' ;'' ;'' ;'' ;'' ;'' ;'' ;'' ;'' ;'' ;'' ;'' ;'' ;'' ;'' ;'' ;'' ;'' ;'' ?'' ?'' ?'' ?'' ?'' ?'' ?'' ?'' ?'' ?'' ?'' ?'' ?'' ?'' ?'' ?'' ?'' ?'' ?'' ?'' ?'' ?'' ?'' ?'' ?'' ?'' ?'' ?'' ?'' ?'' ?'' ?'' ?'' ?'' ?'' ?'' ?'' ?'' ?'' ?'' ?'' ?'' ?'' ?'' ?'' ?'' ?'' ?'' ?'' ?'' ?'' ?'' ?'' ?'' ?'' ?'' ?'' ?'' ?'' ?'' ?'' ?'' ?'' ?'' ?'' ?'' ?'' ?'' ?'' ?'' ?'' ?'' ?'' ?'' ?'' ?'' ?'' ?'' ?'' ?'' ?'' ?'' ?'' ?'' ?'' ?'' ?'' ?'' ?'' ?'' ?'' ?'' ?'' ?'' ?'' ?'' ?'' ?'' ?'' ?'' ?'' ?'' ? ? ? ? ? ? ? ? ? ? ? ? ? ? ? ? ? ? ? ? ? ? ? ? ? ? ? ? ? ? ? ? ? ? ? ? ? ? ? ? ? ? ? ? ? ? ? ? ? ? ? ? ? ? ? ? ? ? ? ? ? ? ? ? ? ? ? ? ? ? ? ? ? ? ? ? ? ? ? ? ? ? ? ? ? ? ? ? ? ? ? ? ? ? ? ? ? ? ? ? ? ? ? ? ? ? ? ? ? ? ? ? ? ? ? ? ? ? ? ? ? ? ? ? ? ? ? ? ? ? ? ? ? ? ? ? ? ? ? ? ? ? ? ? ? ? ? ? ? ? ? ? ? ? BB'' BB'' BB'' BB'' BB'' BB'' BB'' BB'' BB'' BB'' BB'' BB'' BB'' BB'' BB'' BB'' BB'' BB'' BB'' BB'' BB'' BB'' BB'' BB'' BB'' BB'' BB'' BB'' BB'' BB'' BB'' BB'' BB'' BB'' BB'' BB'' BB'' BB'' BB'' BB'' BB'' BB'' BB'' BB'' BB'' BB'' BB'' BB'' BB'' BB'' BB'' BB'' BB'' BB'' BB'' BB'' BB'' BB'' BB'' BB'' BB'' BB'' BB'' BB'' BB'' BB'' BB'' BB'' BB'' BB'' BB'' BB'' BB'' BB'' BB'' BB'' BB'' BB'' BB'' BB'' BB'' BB'' BB'' BB'' BB'' BB'' BB'' BB'' BB'' BB'' BB'' BB'' BB'' BB'' BB'' BB'' BB'' BB'' BB'' BB'' BB'' BB'' BB'' BB'' BB'' BB'' BB'' BB'' BB'' BB'' BB'' BB'' BB'' BB'' BB'' BB'' BB'' BB'' BB'' BB'' BB'' BB'' BB'' BB'' BB'' BB'' BB'' BB'' BB'' BB'' BB'' BB'' BB'' BB'' BB'' BB'' BB'' BB'' BB'' BB'' BB'' BB'' BB'' BB'' BB'' BB'' BB'' BB'' BB'' BB'' BB'' BB'' BB'' BB'' BB'' BB'' BB'' BB'' BB'' BB'' BB'' BB'' BB'' BB'' BB'' BB'' BB'' BB'' BB'' BB'' BB'' BB'' BB'' BB'' BB'' BB'' BB'' BB'' BB'' BB'' BB'' BB'' BB'' BB'' BB'' BB'' BB'' BB'' BB'' BB'' BB'' BB'' BB'' BB'' BB'' BB'' BB'' BB'' BB'' BB'' BB'' BB'' BB'' BB'' BB'' BB'' BB'' BB'' BB'' BB'' BB'' BB'' BB'' BB'' BB'' BB'' BB'' BB'' BB'' BB'' BB'' BB'' BB'' BB'' BB'' BB'' BB'' BB'' BB'' BB'' BB'' BB'' BB'' BB'' BB'' BB'' BB'' BB'' BB'' BB'' BB'' BB'' BB'' BB'' BB'' BB'' BB'' BB'' BB'' BB'' BB'' BB'' BB'' BB'' BB'' BB'' B9'' B9'' B9'' B9'' B9'' B9'' B9'' B9'' B9'' B9'' B9'' B9'' B9'' B9'' B9'' B9'' B9'' B9'' B9'' B9'' B9'' B9'' B9'' B9'' B9'' B9'' B9'' B9'' B9'' B9'' B9'' B9'' B9'' B9'' B9'' B9'' B9'' B9'' B9'' B9'' B9'' B9'' B9'' B9'' B9'' B9'' B9'' B9'' B9'' B9'' B9'' B9'' B9'' B9'' B9'' B9'' B9'' B9'' B9'' B9'' B9'' B9'' B9'' B9'' B9'' B9'' B9'' B9'' B9'' B9'' B9'' B9'' B9'' B9'' B9'' B9'' B9'' B9'' B9'' B9'' B9'' B9'' B9'' B9'' B9'' B9'' B9'' B9'' B9'' B9'' B9'' B9'' B9'' B9'' B9'' B9'' B9'' B9'' B9'' B9'' B9'' B9'' B9 B9 B9 B9 B9 B9 B9 B9 B9 B9 B9 B9 B9 B9 B9 B9 B9 B9 B9 B9 B9 B9 B9 B9 B9 B9 B9 B9 B9 B9 B9 B9 B9 B9 B9 B9 B9 B9 B9 B9 B9 B9 B9 B9 B9 B9 B9 B9 B9 B9 B9 B9 B9 B9 B9 B9 B9 B9 B9 B9 B9 B9 B9 B9 B9 B9 B9 B9 B9 B9 B9 B9 B9 B9 B9 B9 B9 B9 B9 B9 B9 B9 B9 B9 B9 B9 B9 B9 B9 B9 B9 B9 B9 B9 B9 B9 B9 B9 B9 B9 B9 B9 B9 B9 B9 B9 B9 B9 B9 B9 B9 B9 B9 B9 B9 B9 B9 B9 B9 B9 B9 B9 B9 B9 B9 B9 B9 B9 B9 B9 B9 B9 B9 B9 B9 B9 B9 B9 B9 B9 B9 B9 B9 B9 B9 B9 B9 B9 B9 B9 B9 B9 B9 B9 B7((;@C B7((;@C B7((;@C B7((;@C B7((;@C B7((;@C B7((;@C B7((;@C B7((;@C B7((;@C B7((;@C B7((;@C B7((;@C B7((;@C B7((;@C B7((;@C B7((;@C B7((;@C B7((;@C B7((;@C B7((;@C B7((;@C B7((;@C B7((;@C B7((;@C B7((;@C B7((;@C B7((;@C B7((;@C B7((;@C B7((;@C B7((;@C B7((;@C B7((;@C B7((;@C B7((;@C B7((;@C B7((;@C B7((;@C B7((;@C B7((;@C B7((;@C B7((;@C B7((;@C B7((;@C B7((;@C B7((;@C B7((;@C B7((;@C B7((;@C B7((;@C B7((;@C B7((;@C B7((;@C B7((;@C B7((;@C B7((;@C B7((;@C B7((;@C B7((;@C B7((;@C B7((;@C B7((;@C B7((;@C B7((;@C B7((;@C B7((;@C B7((;@C B7((;@C B7((;@C B7((;@C B7((;@C B7((;@C B7((;@C B7((;@C B7((;@C B7((;@C B7((;@C B7((;@C B7((;@C B7((;@C B7((;@C B7((;@C B7((;@C B7((;@C B7((;@C B7((;@C B7((;@C B7((;@C B7((;@C B7((;@C B7((;@C B7((;@C B7((;@C B7((;@C B7((;@C B7((;@C B7((;@C B7((;@C B7((;@C B7((;@C B7((;@C B7((;@C B7((;@C B7((;@C B7((;@C B7((;@C B7((;@C B7((;@C B7((;@C B7((;@C B7((;@C B7((;@C B7((;@C B7((;@C B7((;@C B7((;@C B7((;@C B7((;@C B7((;@C B7((;@C B7((;@C B7((;@C B7((;@C B7((;@C B7((;@C B7((;@C B7((;@C B7((;@C B7((;@C B7((;@C B7((;@C B7((;@C B7((;@C B7((;@C B7((;@C B7((;@C B7((;@C B7((;@C B7((;@C B7((;@C B7((;@C B7((;@C B7((;@C B7((;@C B7((;@C B7((;@C B7((;@C B7((;@C B7((;@C B7((;@C B7((;@C B7((;@C B7((;@C B7((;@C B7((;@C B7((;@C B7((;@C B7((;@C B7((;@C B7((;@C B7((;@C B7((;@C B7((;@C B7((;@C B7((;@C B7((;@C B7((;@C B7((;@C B7((;@C B7((;@C B7((;@C B7((;@C B7((;@C B7((;@C B7((;@C B7((;@C B7((;@C B7((;@C B7((;@C B7((;@C B7((;@C B7((;@C B7((;@C B7((;@C B7((;@C B7((;@C B7((;@C B7((;@C B7((;@C B7((;@C B7((;@C B7((;@C B7((;@C B7((;@C B7((;@C B7((;@C B7((;@C B7((;@C B7((;@C B7((;@C B7((;@C B7((;@C B7((;@C B7((;@C B7((;@C B7((;@C B7((;@C B7((;@C B7((;@C B7((;@C B7((;@C B7((;@C B7((;@C B7((;@C B7((;@C B7((;@C B7((;@C B7((;@C B7((;@C B7((;@C B7((;@C B7((;@C B7((;@C B7((;@C B7((;@C B7((;@C B7((;@C B7((;@C B7((;@C B7((;@C B7((;@C B7((;@C B7((;@C B7((;@C B7((;@C B7((;@C B7((;@C B7((;@C B7((;@C B7((;@C B7((;@C B7((;@C B7((;@C B7((;@C B7((;@C B7((;@C B7((;@C B7((;@C B7((;@C B7((;@C B7((;@C B7((;@C B7((;@C B7((;@C B7((;@C B6((;@C B6((;@C B6((;@C B6((;@C B6((;@C B6((;@C B6((;@C B6((;@C B6((;@C B6((;@C B6((;@C B6((;@C B6((;@C B6((;@C B6((;@C B6((;@C B6((;@C B6((;@C B6((;@C B6((;@C B6((;@C B6((;@C B6((;@C B6((;@C B6((;@C B6((;@C B6((;@C B6((;@C B6((;@C B6((;@C B6((;@C B6((;@C B6((;@C B6((;@C B6((;@C B6((;@C B6((;@C B6((;@C B6((;@C B6((;@C B6((;@C B6((;@C B6((;@C B6((;@C B6((;@C B6((;@C B6((;@C B6((;@C B6((;@C B6((;@C B6((;@C B6((;@C B6((;@C B6((;@C B6((;@C B6((;@C B6((;@C B6((;@C B6((;@C B6((;@C B6((;@C B6((;@C B6((;@C B6((;@C B6((;@C B6((;@C B6((;@C B6((;@C B6((;@C B6((;@C B6((;@C B6((;@C B6((;@C B6((;@C B6((;@C B6((;@C B6((;@C B6((;@C B6((;@C B6((;@C B6((;@C B6((;@C B6((;@C B6((;@C B6((;@C B6((;@C B6((;@C B6((;@C B6((;@C B6((;@C B6((;@C B6((;@C B6((;@C B6((;@C B6((;@C B6((;@C B6((;@C B6((;@C B6((;@C B6((;@C B6((;@C B6((;@C B6;@C B6;@C B6;@C B6;@C B6;@C B6;@C B6;@C B6;@C B6;@C B6;@C B6;@C B6;@C B6;@C B6;@C B6;@C B6;@C B6;@C B6;@C B6;@C B6;@C B6;@C B6;@C B6;@C B6;@C B6;@C B6;@C B6;@C B6;@C B6;@C B6;@C B6;@C B6;@C B6;@C B6;@C B6;@C B6;@C B6;@C B6;@C B6;@C B6;@C B6;@C B6;@C B6;@C B6;@C B6;@C B6;@C B6;@C B6;@C B6;@C B6;@C B6;@C B6;@C B6;@C B6;@C B6;@C B6;@C B6;@C B6;@C B6;@C B6;@C B6;@C B6;@C B6;@C B6;@C B6;@C B6;@C B6;@C B6;@C B6;@C B6;@C B6;@C B6;@C B6;@C B6;@C B6;@C B6;@C B6;@C B6;@C B6;@C B6;@C B6;@C B6;@C B6;@C B6;@C B6;@C B6;@C B6;@C B6;@C B6;@C B6;@C B6;@C B6;@C B6;@C B6;@C B6;@C B6;@C B6;@C B6;@C B6;@C B6;@C B6;@C B6;@C B6;@C B6;@C B6;@C B6;@C B6;@C B6;@C B6;@C B6;@C B6;@C B6;@C B6;@C B6;@C B6;@C B6;@C B6;@C B6;@C B6;@C B6;@C B6;@C B6;@C B6;@C B6;@C B6;@C B6;@C B6;@C B6;@C B6;@C B6;@C B6;@C B6;@C B6;@C B6;@C B6;@C B6;@C B6;@C B6;@C B6;@C B6;@C B6;@C B6;@C B6;@C B6;@C B6;@C B6;@C B6;@C B6;@C B6;@C B6;@C B6;@C B6;@C B6;@C B6;@C @9//;?B @9//;?B @9//;?B @9//;?B @9//;?B @9//;?B @9//;?B @9//;?B @9//;?B @9//;?B @9//;?B @9//;?B @9//;?B @9//;?B @9//;?B @9//;?B @9//;?B @9//;?B @9//;?B @9//;?B @9//;?B @9//;?B @9//;?B @9//;?B @9//;?B @9//;?B @9//;?B @9//;?B @9//;?B @9//;?B @9//;?B @9//;?B @9//;?B @9//;?B @9//;?B @9//;?B @9//;?B @9//;?B @9//;?B @9//;?B @9//;?B @9//;?B @9//;?B @9//;?B @9//;?B @9//;?B @9//;?B @9//;?B @9//;?B @9//;?B @9//;?B @9//;?B @9//;?B @9//;?B @9//;?B @9//;?B @9//;?B @9//;?B @9//;?B @9//;?B @9//;?B @9//;?B @9//;?B @9//;?B @9//;?B @9//;?B @9//;?B @9//;?B @9//;?B @9//;?B @9//;?B @9//;?B @9//;?B @9//;?B @9//;?B @9//;?B @9//;?B @9//;?B @9//;?B @9//;?B @9//;?B @9//;?B @9//;?B @9//;?B @9//;?B @9//;?B @9//;?B @9//;?B @9//;?B @9//;?B @9//;?B @9//;?B @9//;?B @9//;?B @9//;?B @9//;?B @9//;?B @9//;?B @9//;?B @9//;?B @9//;?B @9//;?B @9//;?B @9//;?B @9//;?B @9//;?B @9//;?B @9//;?B @9//;?B @9//;?B @9//;?B @9//;?B @9//;?B @9//;?B @9//;?B @9//;?B @9//;?B @9//;?B @9//;?B @9//;?B @9//;?B @9//;?B @9//;?B @9//;?B @9//;?B @9//;?B @9//;?B @9//;?B @9//;?B @9//;?B @9//;?B @9//;?B @9//;?B @9//;?B @9//;?B @9//;?B @9//;?B @9//;?B @9//;?B @9//;?B @9//;?B @9//;?B @9//;?B @9//;?B @9//;?B @9//;?B @9//;?B @9//;?B @9//;?B @9//;?B @9//;?B @9//;?B @9//;?B @9//;?B @9//;?B @9//;?B @9//;?B @9//;?B @9//;?B @9//;?B @9//;?B @9//;?B @9//;?B @9//;?B @9//;?B @9//;?B @9//;?B @9//;?B @9//;?B @9//;?B @9//;?B @9//;?B @9//;?B @9//;?B @9//;?B @9//;?B @9//;?B @9//;?B @9//;?B @9//;?B @9//;?B @9//;?B @9//;?B @9//;?B @9//;?B @9//;?B @9//;?B @9//;?B @9//;?B @9//;?B @9//;?B @9//;?B @9//;?B @9//;?B @9//;?B @9//;?B @9//;?B @9//;?B @9//;?B @9//;?B @9//;?B @9//;?B @9//;?B @9//;?B @9//;?B @9//;?B @9//;?B @9//;?B @9//;?B @9//;?B @9//;?B @9//;?B @9//;?B @9//;?B @9//;?B @9//;?B @9//;?B @9//;?B @9//;?B @9//;?B @9//;?B @9//;?B @9//;?B @9//;?B @9//;?B @9//;?B @9//;?B @9//;?B @9//;?B @9//;?B @9//;?B @9//;?B @9//;?B @9//;?B @9//;?B @9//;?B @9//;?B @9//;?B @9//;?B @9//;?B @9//;?B @9//;?B @9//;?B @9//;?B @9//;?B @9//;?B @9//;?B @9//;?B @9//;?B @9//;?B @9//;?B @9//;?B @9//;?B @9//;?B @9//;?B @9//;?B ?9//;?B ?9//;?B ?9//;?B ?9//;?B ?9//;?B ?9//;?B ?9//;?B ?9//;?B ?9//;?B ?9//;?B ?9//;?B ?9//;?B ?9//;?B ?9//;?B ?9//;?B ?9//;?B ?9//;?B ?9//;?B ?9//;?B ?9//;?B ?9//;?B ?9//;?B ?9//;?B ?9//;?B ?9//;?B ?9//;?B ?9//;?B ?9//;?B ?9//;?B ?9//;?B ?9//;?B ?9//;?B ?9//;?B ?9//;?B ?9//;?B ?9//;?B ?9//;?B ?9//;?B ?9//;?B ?9//;?B ?9//;?B ?9//;?B ?9//;?B ?9//;?B ?9//;?B ?9//;?B ?9//;?B ?9//;?B ?9//;?B ?9//;?B ?9//;?B ?9//;?B ?9//;?B ?9//;?B ?9//;?B ?9//;?B ?9//;?B ?9//;?B ?9//;?B ?9//;?B ?9//;?B ?9//;?B ?9//;?B ?9//;?B ?9//;?B ?9//;?B ?9//;?B ?9//;?B ?9//;?B ?9//;?B ?9//;?B ?9//;?B ?9//;?B ?9//;?B ?9//;?B ?9//;?B ?9//;?B ?9//;?B ?9//;?B ?9//;?B ?9//;?B ?9//;?B ?9//;?B ?9//;?B ?9//;?B ?9//;?B ?9//;?B ?9//;?B ?9//;?B ?9//;?B ?9//;?B ?9//;?B ?9//;?B ?9//;?B ?9//;?B ?9//;?B ?9//;?B ?9//;?B ?9//;?B ?9//;?B ?9//;?B ?9//;?B ?9;?B ?9;?B ?9;?B ?9;?B ?9;?B ?9;?B ?9;?B ?9;?B ?9;?B ?9;?B ?9;?B ?9;?B ?9;?B ?9;?B ?9;?B ?9;?B ?9;?B ?9;?B ?9;?B ?9;?B ?9;?B ?9;?B ?9;?B ?9;?B ?9;?B ?9;?B ?9;?B ?9;?B ?9;?B ?9;?B ?9;?B ?9;?B ?9;?B ?9;?B ?9;?B ?9;?B ?9;?B ?9;?B ?9;?B ?9;?B ?9;?B ?9;?B ?9;?B ?9;?B ?9;?B ?9;?B ?9;?B ?9;?B ?9;?B ?9;?B ?9;?B ?9;?B ?9;?B ?9;?B ?9;?B ?9;?B ?9;?B ?9;?B ?9;?B ?9;?B ?9;?B ?9;?B ?9;?B ?9;?B ?9;?B ?9;?B ?9;?B ?9;?B ?9;?B ?9;?B ?9;?B ?9;?B ?9;?B ?9;?B ?9;?B ?9;?B ?9;?B ?9;?B ?9;?B ?9;?B ?9;?B ?9;?B ?9;?B ?9;?B ?9;?B ?9;?B ?9;?B ?9;?B ?9;?B ?9;?B ?9;?B ?9;?B ?9;?B ?9;?B ?9;?B ?9;?B ?9;?B ?9;?B ?9;?B ?9;?B ?9;?B ?9;?B ?9;?B ?9;?B ?9;?B ?9;?B ?9;?B ?9;?B ?9;?B ?9;?B ?9;?B ?9;?B ?9;?B ?9;?B ?9;?B ?9;?B ?9;?B ?9;?B ?9;?B ?9;?B ?9;?B ?9;?B ?9;?B ?9;?B ?9;?B ?9;?B ?9;?B ?9;?B ?9;?B ?9;?B ?9;?B ?9;?B ?9;?B ?9;?B ?9;?B ?9;?B ?9;?B ?9;?B ?9;?B ?9;?B ?9;?B ?9;?B ?9;?B ?9;?B ?9;?B ?9;?B ?9;?B ?9;?B ?9;?B ?9;?B ?9;?B ?9;?B ?9;?B ?9;?B @744;@C @744;@C @744;@C @744;@C @744;@C @744;@C @744;@C @744;@C @744;@C @744;@C @744;@C @744;@C @744;@C @744;@C @744;@C @744;@C @744;@C @744;@C @744;@C @744;@C @744;@C @744;@C @744;@C @744;@C @744;@C @744;@C @744;@C @744;@C @744;@C @744;@C @744;@C @744;@C @744;@C @744;@C @744;@C @744;@C @744;@C @744;@C @744;@C @744;@C @744;@C @744;@C @744;@C @744;@C @744;@C @744;@C @744;@C @744;@C @744;@C @744;@C @744;@C @744;@C @744;@C @744;@C @744;@C @744;@C @744;@C @744;@C @744;@C @744;@C @744;@C @744;@C @744;@C @744;@C @744;@C @744;@C @744;@C @744;@C @744;@C @744;@C @744;@C @744;@C @744;@C @744;@C @744;@C @744;@C @744;@C @744;@C @744;@C @744;@C @744;@C @744;@C @744;@C @744;@C @744;@C @744;@C @744;@C @744;@C @744;@C @744;@C @744;@C @744;@C @744;@C @744;@C @744;@C @744;@C @744;@C @744;@C @744;@C @744;@C @744;@C @744;@C @744;@C @744;@C @744;@C @744;@C @744;@C @744;@C @744;@C @744;@C @744;@C @744;@C @744;@C @744;@C @744;@C @744;@C @744;@C @744;@C @744;@C @744;@C @744;@C @744;@C @744;@C @744;@C @744;@C @744;@C @744;@C @744;@C @744;@C @744;@C @744;@C @744;@C @744;@C @744;@C @744;@C @744;@C @744;@C @744;@C @744;@C @744;@C @744;@C @744;@C @744;@C @744;@C @744;@C @744;@C @744;@C @744;@C @744;@C @744;@C @744;@C @744;@C @744;@C @744;@C @744;@C @744;@C @744;@C @744;@C @744;@C @744;@C @744;@C @744;@C @744;@C @744;@C @744;@C @744;@C @744;@C @744;@C @744;@C @744;@C @744;@C @744;@C @744;@C @744;@C @744;@C @744;@C @744;@C @744;@C @744;@C @744;@C @744;@C @744;@C @744;@C @744;@C @744;@C @744;@C @744;@C @744;@C @744;@C @744;@C @744;@C @744;@C @744;@C @744;@C @744;@C @744;@C @744;@C @744;@C @744;@C @744;@C @744;@C @744;@C @744;@C @744;@C @744;@C @744;@C @744;@C @744;@C @744;@C @744;@C @744;@C @744;@C @744;@C @744;@C @744;@C @744;@C @744;@C @744;@C @744;@C @744;@C @744;@C @744;@C @744;@C @744;@C @744;@C @744;@C @744;@C @744;@C @744;@C @744;@C @744;@C @744;@C @744;@C @744;@C @744;@C @744;@C @744;@C @744;@C @744;@C @744;@C @744;@C @744;@C @744;@C @744;@C @744;@C @744;@C @744;@C @744;@C @744;@C @744;@C @744;@C @744;@C @744;@C @744;@C @744;@C @744;@C C744;@C C744;@C C744;@C C744;@C C744;@C C744;@C C744;@C C744;@C C744;@C C744;@C C744;@C C744;@C C744;@C C744;@C C744;@C C744;@C C744;@C C744;@C C744;@C C744;@C C744;@C C744;@C C744;@C C744;@C C744;@C C744;@C C744;@C C744;@C C744;@C C744;@C C744;@C C744;@C C744;@C C744;@C C744;@C C744;@C C744;@C C744;@C C744;@C C744;@C C744;@C C744;@C C744;@C C744;@C C744;@C C744;@C C744;@C C744;@C C744;@C C744;@C C744;@C C744;@C C744;@C C744;@C C744;@C C744;@C C744;@C C744;@C C744;@C C744;@C C744;@C C744;@C C744;@C C744;@C C744;@C C744;@C C744;@C C744;@C C744;@C C744;@C C744;@C C744;@C C744;@C C744;@C C744;@C C744;@C C744;@C C744;@C C744;@C C744;@C C744;@C C744;@C C744;@C C744;@C C744;@C C744;@C C744;@C C744;@C C744;@C C744;@C C744;@C C744;@C C744;@C C744;@C C744;@C C744;@C C744;@C C744;@C C744;@C C744;@C C744;@C C744;@C C7;@C C7;@C C7;@C C7;@C C7;@C C7;@C C7;@C C7;@C C7;@C C7;@C C7;@C C7;@C C7;@C C7;@C C7;@C C7;@C C7;@C C7;@C C7;@C C7;@C C7;@C C7;@C C7;@C C7;@C C7;@C C7;@C C7;@C C7;@C C7;@C C7;@C C7;@C C7;@C C7;@C C7;@C C7;@C C7;@C C7;@C C7;@C C7;@C C7;@C C7;@C C7;@C C7;@C C7;@C C7;@C C7;@C C7;@C C7;@C C7;@C C7;@C C7;@C C7;@C C7;@C C7;@C C7;@C C7;@C C7;@C C7;@C C7;@C C7;@C C7;@C C7;@C C7;@C C7;@C C7;@C C7;@C C7;@C C7;@C C7;@C C7;@C C7;@C C7;@C C7;@C C7;@C C7;@C C7;@C C7;@C C7;@C C7;@C C7;@C C7;@C C7;@C C7;@C C7;@C C7;@C C7;@C C7;@C C7;@C C7;@C C7;@C C7;@C C7;@C C7;@C C7;@C C7;@C C7;@C C7;@C C7;@C C7;@C C7;@C C7;@C C7;@C C7;@C C7;@C C7;@C C7;@C C7;@C C7;@C C7;@C C7;@C C7;@C C7;@C C7;@C C7;@C C7;@C C7;@C C7;@C C7;@C C7;@C C7;@C C7;@C C7;@C C7;@C C7;@C C7;@C C7;@C C7;@C C7;@C C7;@C C7;@C C7;@C C7;@C C7;@C C7;@C C7;@C C7;@C C7;@C C7;@C C7;@C C7;@C C7;@C C7;@C C7;@C C7;@C C7;@C C7;@C C7;@C C7;@C C7;@C C7;@C C7;@C C7;@C C7;@C C7;@C G722;@C G722;@C G722;@C G722;@C G722;@C G722;@C G722;@C G722;@C G722;@C G722;@C G722;@C G722;@C G722;@C G722;@C G722;@C G722;@C G722;@C G722;@C G722;@C G722;@C G722;@C G722;@C G722;@C G722;@C G722;@C G722;@C G722;@C G722;@C G722;@C G722;@C G722;@C G722;@C G722;@C G722;@C G722;@C G722;@C G722;@C G722;@C G722;@C G722;@C G722;@C G722;@C G722;@C G722;@C G722;@C G722;@C G722;@C G722;@C G722;@C G722;@C G722;@C G722;@C G722;@C G722;@C G722;@C G722;@C G722;@C G722;@C G722;@C G722;@C G722;@C G722;@C G722;@C G722;@C G722;@C G722;@C G722;@C G722;@C G722;@C G722;@C G722;@C G722;@C G722;@C G722;@C G722;@C G722;@C G722;@C G722;@C G722;@C G722;@C G722;@C G722;@C G722;@C G722;@C G722;@C G722;@C G722;@C G722;@C G722;@C G722;@C G722;@C G722;@C G722;@C G722;@C G722;@C G722;@C G722;@C G722;@C G722;@C G722;@C G722;@C G722;@C G722;@C G722;@C G722;@C G722;@C G722;@C G722;@C G722;@C G722;@C G722;@C G722;@C G722;@C G722;@C G722;@C G722;@C G722;@C G722;@C G722;@C G722;@C G722;@C G722;@C G722;@C G722;@C G722;@C G722;@C G722;@C G722;@C G722;@C G722;@C G722;@C G722;@C G722;@C G722;@C G722;@C G722;@C G722;@C G722;@C G722;@C G722;@C G722;@C G722;@C G722;@C G722;@C G722;@C G722;@C G722;@C G722;@C G722;@C G722;@C G722;@C G722;@C G722;@C G722;@C G722;@C G722;@C G722;@C G722;@C G722;@C G722;@C G722;@C G722;@C G722;@C G722;@C G722;@C G722;@C G722;@C G722;@C G722;@C G722;@C G722;@C G722;@C G722;@C G722;@C G722;@C G722;@C G722;@C G722;@C G722;@C G722;@C G722;@C G722;@C G722;@C G722;@C G722;@C G722;@C G722;@C G722;@C G722;@C G722;@C G722;@C G722;@C G722;@C G722;@C G722;@C G722;@C G722;@C G722;@C G722;@C G722;@C G722;@C G722;@C G722;@C G722;@C G722;@C G722;@C G722;@C G722;@C G722;@C G722;@C G722;@C G722;@C G722;@C G722;@C G722;@C G722;@C G722;@C G722;@C G722;@C G722;@C G722;@C G722;@C G722;@C G722;@C G722;@C G722;@C G722;@C G722;@C G722;@C G722;@C G722;@C G722;@C G722;@C G722;@C G722;@C G722;@C G722;@C G722;@C G722;@C G722;@C G722;@C G722;@C G722;@C G722;@C G722;@C G722;@C G722;@C G722;@C G722;@C G722;@C G722;@C G722;@C G722;@C G722;@C G722;@C G722;@C L722;@C L722;@C L722;@C L722;@C L722;@C L722;@C L722;@C L722;@C L722;@C L722;@C L722;@C L722;@C L722;@C L722;@C L722;@C L722;@C L722;@C L722;@C L722;@C L722;@C L722;@C L722;@C L722;@C L722;@C L722;@C L722;@C L722;@C L722;@C L722;@C L722;@C L722;@C L722;@C L722;@C L722;@C L722;@C L722;@C L722;@C L722;@C L722;@C L722;@C L722;@C L722;@C L722;@C L722;@C L722;@C L722;@C L722;@C L722;@C L722;@C L722;@C L722;@C L722;@C L722;@C L722;@C L722;@C L722;@C L722;@C L722;@C L722;@C L722;@C L722;@C L722;@C L722;@C L722;@C L722;@C L722;@C L722;@C L722;@C L722;@C L722;@C L722;@C L722;@C L722;@C L722;@C L722;@C L722;@C L722;@C L722;@C L722;@C L722;@C L722;@C L722;@C L722;@C L722;@C L722;@C L722;@C L722;@C L722;@C L722;@C L722;@C L722;@C L722;@C L722;@C L722;@C L722;@C L722;@C L722;@C L722;@C L722;@C L722;@C L722;@C L722;@C L7;@C L7;@C L7;@C L7;@C L7;@C L7;@C L7;@C L7;@C L7;@C L7;@C L7;@C L7;@C L7;@C L7;@C L7;@C L7;@C L7;@C L7;@C L7;@C L7;@C L7;@C L7;@C L7;@C L7;@C L7;@C L7;@C L7;@C L7;@C L7;@C L7;@C L7;@C L7;@C L7;@C L7;@C L7;@C L7;@C L7;@C L7;@C L7;@C L7;@C L7;@C L7;@C L7;@C L7;@C L7;@C L7;@C L7;@C L7;@C L7;@C L7;@C L7;@C L7;@C L7;@C L7;@C L7;@C L7;@C L7;@C L7;@C L7;@C L7;@C L7;@C L7;@C L7;@C L7;@C L7;@C L7;@C L7;@C L7;@C L7;@C L7;@C L7;@C L7;@C L7;@C L7;@C L7;@C L7;@C L7;@C L7;@C L7;@C L7;@C L7;@C L7;@C L7;@C L7;@C L7;@C L7;@C L7;@C L7;@C L7;@C L7;@C L7;@C L7;@C L7;@C L7;@C L7;@C L7;@C L7;@C L7;@C L7;@C L7;@C L7;@C L7;@C L7;@C L7;@C L7;@C L7;@C L7;@C L7;@C L7;@C L7;@C L7;@C L7;@C L7;@C L7;@C L7;@C L7;@C L7;@C L7;@C L7;@C L7;@C L7;@C L7;@C L7;@C L7;@C L7;@C L7;@C L7;@C L7;@C L7;@C L7;@C L7;@C L7;@C L7;@C L7;@C L7;@C L7;@C L7;@C L7;@C L7;@C L7;@C L7;@C L7;@C L7;@C L7;@C L7;@C L7;@C L7;@C L7;@C L7;@C L7;@C L7;@C L7;@C L7;@C L7;@C O11@E O11@E O11@E O11@E O11@E O11@E O11@E O11@E O11@E O11@E O11@E O11@E O11@E O11@E O11@E O11@E O11@E O11@E O11@E O11@E O11@E O11@E O11@E O11@E O11@E O11@E O11@E O11@E O11@E O11@E O11@E O11@E O11@E O11@E O11@E O11@E O11@E O11@E O11@E O11@E O11@E O11@E O11@E O11@E O11@E O11@E O11@E O11@E O11@E O11@E O11@E O11@E O11@E O11@E O11@E O11@E O11@E O11@E O11@E O11@E O11@E O11@E O11@E O11@E O11@E O11@E O11@E O11@E O11@E O11@E O11@E O11@E O11@E O11@E O11@E O11@E O11@E O11@E O11@E O11@E O11@E O11@E O11@E O11@E O11@E O11@E O11@E O11@E O11@E O11@E O11@E O11@E O11@E O11@E O11@E O11@E O11@E O11@E O11@E O11@E O11@E O11@E O11@E O11@E O11@E O11@E O11@E O11@E O11@E O11@E O11@E O11@E O11@E O11@E O11@E O11@E O11@E O11@E O11@E O11@E O11@E O11@E O11@E O11@E O11@E O11@E O11@E O11@E O11@E O11@E O11@E O11@E O11@E O11@E O11@E O11@E O11@E O11@E O11@E O11@E O11@E O11@E O11@E O11@E O11@E O11@E O11@E O11@E O11@E O11@E O11@E O11@E O11@E O11@E O11@E O11@E O11@E O11@E O11@E O11@E O11@E O11@E O11@E O11@E O11@E O11@E O11@E O11@E O11@E O11@E O11@E O11@E O11@E O11@E O11@E O11@E O11@E O11@E O11@E O11@E O11@E O11@E O11@E O11@E O11@E O11@E O11@E O11@E O11@E O11@E O11@E O11@E O11@E O11@E O11@E O11@E O11@E O11@E O11@E O11@E O11@E O11@E O11@E O11@E O11@E O11@E O11@E O11@E O11@E O11@E O11@E O11@E O11@E O11@E O11@E O11@E O11@E O11@E O11@E O11@E O11@E O11@E O11@E O11@E O11@E O11@E O11@E O11@E O11@E O11@E O11@E O11@E O11@E O11@E O11@E O11@E O11@E O11@E O11@E O11@E O11@E O11@E O11@E O11@E O11@E O11@E O11@E O11@E O11@E O11@E O11@E O11@E O11@E O11@E O11@E O11@E O11@E O11@E O11@E O11@E O11@E O11@E O11@E O11@E O11@E O11@E O11@E O11@E O11@E O11@E O11@E O11@E O11@E O11@E O11@E O11@E O11@E O11@E O11@E O11@E O11@E O11@E O11@E O11@E O11@E O11@E O11@E O11@E O11@E O11@E O11@E O11@E O11@E O11@E O11@E O11@E O11@E O11@E O11@E O11@E O11@E O11@E O11@E O11@E O11@E O11@E O11@E O11@E O11@E O11@E O11@E O11@E O11@E O11@E O11@E O11@E O11@E O11@E O11@E O11@E O11@E O11@E O11@E O11@E O11@E O11@E O11@E O11@E O11@E O11@E O11@E O11@E O11@E O11@E O11@E O11@E O11@E O11@E O11@E O11@E O11@E O11@E O11@E O11@E O11@E O11@E O11@E O11@E O11@E O11@E O11@E O11@E O11@E O11@E O11@E O11@E O11@E O11@E O@E O@E O@E O@E O@E O@E O@E O@E O@E O@E O@E O@E O@E O@E O@E O@E O@E O@E O@E O@E O@E O@E O@E O@E O@E O@E O@E O@E O@E O@E O@E O@E O@E O@E O@E O@E O@E O@E O@E O@E O@E O@E O@E O@E O@E O@E O@E O@E O@E O@E O@E O@E O@E O@E O@E O@E O@E O@E O@E O@E O@E O@E O@E O@E O@E O@E O@E O@E O@E O@E O@E O@E O@E O@E O@E O@E O@E O@E O@E O@E O@E O@E O@E O@E O@E O@E O@E O@E O@E O@E O@E O@E O@E O@E O@E O@E O@E O@E O@E O@E O@E O@E O@E O@E O@E O@E O@E O@E O@E O@E O@E O@E O@E O@E O@E O@E O@E O@E O@E O@E O@E O@E O@E O@E O@E O@E O@E O@E O@E O@E O@E O@E O@E O@E O@E O@E O@E O@E O@E O@E O@E O@E O@E O@E O@E O@E O@E O@E O@E O@E O@E O@E O@E O@E @//>C @//>C @//>C @//>C @//>C @//>C @//>C @//>C @//>C @//>C @//>C @//>C @//>C @//>C @//>C @//>C @//>C @//>C @//>C @//>C @//>C @//>C @//>C @//>C @//>C @//>C @//>C @//>C @//>C @//>C @//>C @//>C @//>C @//>C @//>C @//>C @//>C @//>C @//>C @//>C @//>C @//>C @//>C @//>C @//>C @//>C @//>C @//>C @//>C @//>C @//>C @//>C @//>C @//>C @//>C @//>C @//>C @//>C @//>C @//>C @//>C @//>C @//>C @//>C @//>C @//>C @//>C @//>C @//>C @//>C @//>C @//>C @//>C @//>C @//>C @//>C @//>C @//>C @//>C @//>C @//>C @//>C @//>C @//>C @//>C @//>C @//>C @//>C @//>C @//>C @//>C @//>C @//>C @//>C @//>C @//>C @//>C @//>C @//>C @//>C @//>C @//>C @//>C @//>C @//>C @//>C @//>C @//>C @//>C @//>C @//>C @//>C @//>C @//>C @//>C @//>C @//>C @//>C @//>C @//>C @//>C @//>C @//>C @//>C @//>C @//>C @//>C @//>C @//>C @//>C @//>C @//>C @//>C @//>C @//>C @//>C @//>C @//>C @//>C @//>C @//>C @//>C @//>C @//>C @//>C @//>C @//>C @//>C @//>C @//>C @//>C @//>C @//>C @//>C @//>C @//>C @//>C @//>C @//>C @//>C @//>C @//>C @//>C @//>C @//>C @//>C @//>C @//>C @//>C @//>C @//>C @//>C @//>C @//>C @//>C @//>C @//>C @//>C @//>C @//>C @//>C @//>C @//>C @//>C @//>C @//>C @//>C @//>C @//>C @//>C @//>C @//>C @//>C @//>C @//>C @//>C @//>C @//>C @//>C @//>C @//>C @//>C @//>C @//>C @//>C @//>C @//>C @//>C @//>C @//>C @//>C @//>C @//>C @//>C @//>C @//>C @//>C @//>C @//>C @//>C @//>C @//>C @//>C @//>C @//>C @//>C @//>C @//>C @//>C @//>C @//>C @//>C @//>C @//>C @//>C @//>C @//>C @//>C @//>C @//>C @//>C @//>C @//>C @//>C @//>C @//>C @//>C @//>C @//>C @//>C @//>C @//>C @//>C @//>C @//>C @//>C B//>C B//>C B//>C B//>C B//>C B//>C B//>C B//>C B//>C B//>C B//>C B//>C B//>C B//>C B//>C B//>C B//>C B//>C B//>C B//>C B//>C B//>C B//>C B//>C B//>C B//>C B//>C B//>C B//>C B//>C B//>C B//>C B//>C B//>C B//>C B//>C B//>C B//>C B//>C B//>C B//>C B//>C B//>C B//>C B//>C B//>C B//>C B//>C B//>C B//>C B//>C B//>C B//>C B//>C B//>C B//>C B//>C B//>C B//>C B//>C B//>C B//>C B//>C B//>C B//>C B//>C B//>C B//>C B//>C B//>C B//>C B//>C B//>C B//>C B//>C B//>C B//>C B//>C B//>C B//>C B//>C B//>C B//>C B//>C B//>C B//>C B//>C B//>C B//>C B//>C B//>C B//>C B//>C B//>C B//>C B//>C B//>C B//>C B//>C B//>C B//>C B//>C B>C B>C B>C B>C B>C B>C B>C B>C B>C B>C B>C B>C B>C B>C B>C B>C B>C B>C B>C B>C B>C B>C B>C B>C B>C B>C C>C C>C C>C C>C C>C C>C C>C C>C C>C C>C C>C C>C C>C C>C C>C C>C C>C C>C C>C C>C C>C C>C C>C C>C C>C C>C C>C C>C C>C C>C C>C C>C C>C C>C C>C C>C C>C C>C C>C C>C C>C C>C C>C C>C C>C C>C C>C C>C C>C C>C C>C C>C C>C C>C C>C C>C C>C C>C C>C C>C C>C C>C C>C C>C C>C C>C C>C C>C C>C C>C C>C C>C C>C C>C C>C C>C C>C C>C C>C C>C C>C C>C C>C C>C C>C C>C C>C C>C C>C C>C C>C C>C C>C C>C C>C C>C C>C C>C C>C C>C C>C C>C C>C C>C C>C C>C C>C C>C C>C C>C C>C C>C C>C C>C C>C C>C C>C C>C C>C C>C C>C C>C C>C C>C C>C C>C C>C C>C C..=@B C..=@B C..=@B C..=@B C..=@B C..=@B C..=@B C..=@B C..=@B C..=@B C..=@B C..=@B C..=@B C..=@B C..=@B C..=@B C..=@B C..=@B C..=@B C..=@B C..=@B C..=@B C..=@B C..=@B C..=@B C..=@B C..=@B C..=@B C..=@B C..=@B C..=@B C..=@B C..=@B C..=@B C..=@B C..=@B C..=@B C..=@B C..=@B C..=@B C..=@B C..=@B C..=@B C..=@B C..=@B C..=@B C..=@B C..=@B C..=@B C..=@B C..=@B C..=@B C..=@B C..=@B C..=@B C..=@B C..=@B C..=@B C..=@B C..=@B C..=@B C..=@B C..=@B C..=@B C..=@B C..=@B C..=@B C..=@B C..=@B C..=@B C..=@B C..=@B C..=@B C..=@B C..=@B C..=@B C..=@B C..=@B C..=@B C..=@B C..=@B C..=@B C..=@B C..=@B C..=@B C..=@B C..=@B C..=@B C..=@B C..=@B C..=@B C..=@B C..=@B C..=@B C..=@B C..=@B C..=@B C..=@B C..=@B C..=@B C..=@B C..=@B C..=@B C..=@B C..=@B C..=@B C..=@B C..=@B C..=@B C..=@B C..=@B C..=@B C..=@B C..=@B C..=@B C..=@B C..=@B C..=@B C..=@B C..=@B C..=@B C..=@B C..=@B C..=@B C..=@B C..=@B C..=@B C..=@B C..=@B C..=@B C..=@B C..=@B C..=@B C..=@B C..=@B C..=@B C..=@B C..=@B C..=@B C..=@B C..=@B C..=@B C..=@B C..=@B C..=@B C..=@B C..=@B C..=@B C..=@B C..=@B C..=@B C..=@B C..=@B C..=@B C..=@B C..=@B C..=@B C..=@B C..=@B C..=@B C..=@B C..=@B C..=@B C..=@B C..=@B C..=@B C..=@B C..=@B C..=@B C..=@B C..=@B C..=@B C..=@B C..=@B C..=@B C..=@B C..=@B C..=@B C..=@B C..=@B C..=@B C..=@B C..=@B C..=@B C..=@B C..=@B C..=@B C..=@B C..=@B C..=@B C..=@B C..=@B C..=@B C..=@B C..=@B C..=@B C..=@B C..=@B C..=@B C..=@B C..=@B C..=@B C..=@B C..=@B C..=@B C..=@B C..=@B C..=@B C..=@B C..=@B C..=@B C..=@B C..=@B C..=@B C..=@B C..=@B C..=@B C..=@B C..=@B C..=@B C..=@B C..=@B C..=@B C..=@B C..=@B C..=@B C..=@B C..=@B C..=@B C..=@B C..=@B C..=@B C..=@B C..=@B C..=@B C..=@B C..=@B C..=@B C..=@B C..=@B C..=@B C..=@B C..=@B C..=@B C..=@B C..=@B C..=@B C..=@B C..=@B C..=@B C..=@B C..=@B C..=@B C..=@B C..=@B C..=@B @..=@B @..=@B @..=@B @..=@B @..=@B @..=@B @..=@B @..=@B @..=@B @..=@B @..=@B @..=@B @..=@B @..=@B @..=@B @..=@B @..=@B @..=@B @..=@B @..=@B @..=@B @..=@B @..=@B @..=@B @..=@B @..=@B @..=@B @..=@B @..=@B @..=@B @..=@B @..=@B @..=@B @..=@B @..=@B @..=@B @..=@B @..=@B @..=@B @..=@B @..=@B @..=@B @..=@B @..=@B @..=@B @..=@B @..=@B @..=@B @..=@B @..=@B @..=@B @..=@B @..=@B @..=@B @..=@B @..=@B @..=@B @..=@B @..=@B @..=@B @..=@B @..=@B @..=@B @..=@B @..=@B @..=@B @..=@B @..=@B @..=@B @..=@B @..=@B @..=@B @..=@B @..=@B @..=@B @..=@B @..=@B @..=@B @..=@B @..=@B @..=@B @..=@B @..=@B @..=@B @..=@B @..=@B @..=@B @..=@B @..=@B @..=@B @..=@B @..=@B @..=@B @..=@B @..=@B @..=@B @..=@B @..=@B @..=@B @..=@B @..=@B @..=@B @=@B @=@B @=@B @=@B @=@B @=@B @=@B @=@B @=@B @=@B @=@B @=@B @=@B @=@B @=@B @=@B @=@B @=@B @=@B @=@B @=@B @=@B @=@B @=@B @=@B @=@B @=@B @=@B @=@B @=@B @=@B @=@B @=@B @=@B @=@B @=@B @=@B @=@B @=@B @=@B @=@B @=@B @=@B @=@B @=@B @=@B @=@B @=@B @=@B @=@B @=@B @=@B @=@B @=@B @=@B @=@B @=@B @=@B @=@B @=@B @=@B @=@B @=@B @=@B @=@B @=@B @=@B @=@B @=@B @=@B @=@B @=@B @=@B @=@B @=@B @=@B @=@B @=@B @=@B @=@B @=@B @=@B @=@B @=@B @=@B @=@B @=@B @=@B @=@B @=@B @=@B @=@B @=@B @=@B @=@B @=@B @=@B @=@B @=@B @=@B @=@B @=@B @=@B @=@B @=@B @=@B @=@B @=@B @=@B @=@B @=@B @=@B @=@B @=@B @=@B @=@B @=@B @=@B @=@B @=@B @=@B @=@B @=@B @=@B @=@B @=@B @=@B @=@B @=@B @=@B @=@B @=@B @=@B @=@B @=@B @=@B @=@B @=@B @=@B @=@B @=@B @=@B @=@B @=@B @=@B @=@B @=@B @=@B @=@B @=@B @=@B @=@B @=@B @=@B >/>/G >/>/G >/>/G >/>/G >/>/G >/>/G >/>/G >/>/G >/>/G >/>/G >/>/G >/>/G >/>/G >/>/G >/>/G >/>/G >/>/G >/>/G >/>/G >/>/G >/>/G >/>/G >/>/G >/>/G >/>/G >/>/G >/>/G >/>/G >/>/G >/>/G >/>/G >/>/G >/>/G >/>/G >/>/G >/>/G >/>/G >/>/G >/>/G >/>/G >/>/G >/>/G >/>/G >/>/G >/>/G >/>/G >/>/G >/>/G >/>/G >/>/G >/>/G >/>/G >/>/G >/>/G >/>/G >/>/G >/>/G >/>/G >/>/G >/>/G >/>/G >/>/G >/>/G >/>/G >/>/G >/>/G >/>/G >/>/G >/>/G >/>/G >/>/G >/>/G >/>/G >/>/G >/>/G >/>/G >/>/G >/>/G >/>/G >/>/G >/>/G >/>/G >/>/G >/>/G >/>/G >/>/G >/>/G >/>/G >/>/G >/>/G >/>/G >/>/G >/>/G >/>/G >/>/G >/>/G >/>/G >/>/G >/>/G >/>/G >/>/G >/>/G >/>/G >/>/G >/>/G >/>/G >/>/G >/>/G >/>/G >/>/G >/>/G >/>/G >/>/G >/>/G >/>/G >/>/G >/>/G >/>/G >/>/G >/>/G >/>/G >/>/G >/>/G >/>/G >/>/G >/>/G >/>/G >/>/G >/>/G >/>/G >/>/G >/>/G >/>/G >/>/G >/>/G >/>/G >/>/G >/>/G >/>/G >/>/G >/>/G >/>/G >/>/G >/>/G >/>/G >/>/G >/>/G >/>/G >/>/G >/>/G >/>/G >/>/G >/>/G >/>/G >/>/G >/>/G >/>/G >/>/G >/>/G >/>/G >/>/G >/>/G >/>/G >/>/G >/>/G >/>/G >/>/G >/>/G >/>/G >/>/G >/>/G >/>/G >/>/G >/>/G >/>/G >/>/G >/>/G >/>/G >/>/G >/>/G >/>/G >/>/G >/>/G >/>/G >/>/G >/>/G >/>/G >/>/G >/>/G >/>/G >/>/G >/>/G >/>/G >/>/G >/>/G >/>/G >/>/G >/>/G >/>/G >/>/G >/>/G >/>/G >/>/G >/>/G >/>/G >/>/G >/>/G >/>/G >/>/G >/>/G >/>/G >/>/G >/>/G >/>/G >/>/G >/>/G >/>/G >/>/G >/>/G >/>/G >/>/G >/>/G >/>/G >/>/G >/>/G >/>/G >/>/G >/>/G >/>/G >/>/G >/>/G >/>/G >/>/G >/>/G >/>/G >/>/G >/>/G >/>/G >/>/G >/>/G >/>/G >/>/G >/>/G >/>/G >/>/G >/>/G >/>/G >/>/G >/>/G >/>/G >/>/G >/>/G >/>/G >/>/G >/>/G >/>/G =1G@1 =1G@1 =1G@1 =1G@1 =1G@1 =1G@1 =1G@1 =1G@1 =1G@1 =1G@1 =1G@1 =1G@1 =1G@1 =1G@1 =1G@1 =1G@1 =1G@1 =1G@1 =1G@1 =1G@1 =1G@1 =1G@1 =1G@1 =1G@1 =1G@1 =1G@1 =1G@1 =1G@1 =1G@1 =1G@1 =1G@1 =1G@1 =1G@1 =1G@1 =1G@1 =1G@1 =1G@1 =1G@1 =1G@1 =1G@1 =1G@1 =1G@1 =1G@1 =1G@1 =1G@1 =1G@1 =1G@1 =1G@1 =1G@1 =1G@1 =1G@1 =1G@1 =1G@1 =1G@1 =1G@1 =1G@1 =1G@1 =1G@1 =1G@1 =1G@1 =1G@1 =1G@1 =1G@1 =1G@1 =1G@1 =1G@1 =1G@1 =1G@1 =1G@1 =1G@1 =1G@1 =1G@1 =1G@1 =1G@1 =1G@1 =1G@1 =1G@1 =1G@1 =1G@1 =1G@1 =1G@1 =1G@1 =1G@1 =1G@1 =1G@1 =1G@1 =1G@1 =1G@1 =1G@1 =1G@1 =1G@1 =1G@1 =1G@1 =1G@1 =1G@1 =1G@1 =1G@1 =1G@1 =1G@1 =1G@1 =1G@1 =1G@1 =1G@1 =1G@1 =1G@1 =1G@1 =1G@1 =1G@1 =1G@1 =1G@1 =1G@1 =1G@1 =1G@1 =1G@1 =1G@1 =1G@1 =1G@1 =1G@1 =1G@1 =1G@1 =1G@1 =1G@1 =1G@1 =1G@1 =1G@1 =1G@1 =1G@1 =1G@1 =1G@1 =1G@1 =1G@1 =1G@1 =1G@1 =1G@1 =1G@1 =1G@1 =1G@1 =1G@1 =1G@1 =1G@1 =1G@1 =1G@1 =1G@1 =1G@1 =1G@1 =1G@1 =1G@1 =1G@1 =1G@1 =1G@1 =1G@1 =1G@1 =1G@1 =1G@1 =1G@1 =1G@1 =1G@1 =1G@1 =1G@1 =1G@1 =1G@1 =1G@1 =1G@1 =1G@1 =1G@1 =1G@1 =1G@1 =1G@1 =1G@1 =1G@1 =1G@1 =1G@1 =1G@1 =1G@1 =1G@1 =1G@1 =1G@1 =1G@1 =1G@1 =1G@1 =1G@1 =1G@1 =1G@1 =1G@1 =1G@1 =1G@1 =1G@1 =1G@1 =1G@1 =1G@1 =1G@1 =1G@1 =1G@1 =1G@1 =1G@1 =1G@1 =1G@1 =1G@1 =1G@1 =1G@1 =1G@1 =1G@1 =1G@1 =1G@1 =1G@1 =1G@1 =1G@1 =1G@1 =1G@1 =1G@1 =1G@1 =1G@1 =1G@1 =1G@1 =1G@1 =1G@1 =1G@1 =1G@1 =1G@1 =1G@1 =1G@1 =1G@1 =1G@1 =1G@1 =1G@1 =1G@1 =1G@1 =1G@1 =1G@1 =1G@1 =1G@1 =1G@1 =1G@1 =1G@1 =1G@1 =1G@1 =1G@1 =1G@1 =1G@1 =1G@1 =1G@1 =1G@1 =1G@1 =1G@1 =1G@1 =1G@1 =1G@1 =1G@1 =1G@1 =1G@1 =1G@1 =1G@1 =1G@1 =1G@1 =1G@1 =1G@1 B22B B22B B22B B22B B22B B22B B22B B22B B22B B22B B22B B22B B22B B22B B22B B22B B22B B22B B22B B22B B22B B22B B22B B22B B22B B22B B22B B22B B22B B22B B22B B22B B22B B22B B22B B22B B22B B22B B22B B22B B22B B22B B22B B22B B22B B22B B22B B22B B22B B22B B22B B22B B22B B22B B22B B22B B22B B22B B22B B22B B22B B22B B22B B22B B22B B22B B22B B22B B22B B22B B22B B22B B22B B22B B22B B22B B22B B22B B22B B22B B22B B22B B22B B22B B22B B22B B22B B22B B22B B22B B22B B22B B22B B22B B22B B22B B22B B22B B22B B22B B22B B22B B22B B22B B22B B22B B22B B22B B22B B22B B22B B22B B22B B22B B22B B22B B22B B22B B22B B22B B22B B22B B22B B22B B22B B22B B22B B22B B22B B22B B22B B22B B22B B22B B22B B22B B22B B22B B22B B22B B22B B22B B22B B22B B22B B22B B22B B22B B22B B22B B22B B22B B22B B22B B22B B22B B22B B22B B22B B22B B22B B22B B22B B22B B22B B22B B22B B22B B22B B22B B22B B22B B22B B22B B22B B22B B22B B22B B22B B22B B22B B22B B22B B22B B22B B22B B22B B22B B22B B22B B22B B22B B22B B22B B22B B22B B22B B22B B22B B22B B22B B22B B22B B22B B22B B22B B22B B22B B22B B22B B22B B22B B22B B22B B22B B22B B22B B22B B22B B22B B22B B22B B22B B22B B22B B22B B22B B22B B22B B22B B22B B22B B22B B22B B22B B22B B22B B22B B22B B22B B22B B22B B22B B22B B22B B22B B22B B22B B22B B22B B22B B22B B22B B22B B22B B22B >22B >22B >22B >22B >22B >22B >22B >22B >22B >22B >22B >22B >22B >22B >22B >22B >22B >22B >22B >22B >22B >22B >22B >22B >22B >22B >22B >22B >22B >22B >22B >22B >22B >22B >22B >22B >22B >22B >22B >22B >22B >22B >22B >22B >22B >22B >22B >22B >22B >22B >22B >22B >22B >22B >22B >22B >22B >22B >22B >22B >22B >22B >22B >22B >22B >22B >22B >22B >22B >22B >22B >22B >22B >22B >22B >22B >22B >22B >22B >22B >22B >22B >22B >22B >22B >22B >22B >22B >22B >22B >22B >22B >22B >22B >22B >22B >22B >22B >22B >22B >22B >22B >B >B >B >B >B >B >B >B >B >B >B >B >B >B >B >B >B >B >B >B >B >B >B >B >B >B >B >B >B >B >B >B >B >B >B >B >B >B >B >B >B >B >B >B >B >B >B >B >B >B >B >B >B >B >B >B >B >B >B >B >B >B >B >B >B >B >B >B >B >B >B >B >B >B >B >B >B >B >B >B >B >B >B >B >B >B >B >B >B >B >B >B >B >B >B >B >B >B >B >B >B >B >B >B >B >B >B >B >B >B >B >B >B >B >B >B >B >B >B >B >B >B >B >B >B >B >B >B >B >B >B >B >B >B >B >B >B >B >B >B >B >B >B >B >B >B >B >B >B >B >B >B >B >B =77>G =77>G =77>G =77>G =77>G =77>G =77>G =77>G =77>G =77>G =77>G =77>G =77>G =77>G =77>G =77>G =77>G =77>G =77>G =77>G =77>G =77>G =77>G =77>G =77>G =77>G =77>G =77>G =77>G =77>G =77>G =77>G =77>G =77>G =77>G =77>G =77>G =77>G =77>G =77>G =77>G =77>G =77>G =77>G =77>G =77>G =77>G =77>G =77>G =77>G =77>G =77>G =77>G =77>G =77>G =77>G =77>G =77>G =77>G =77>G =77>G =77>G =77>G =77>G =77>G =77>G =77>G =77>G =77>G =77>G =77>G =77>G =77>G =77>G =77>G =77>G =77>G =77>G =77>G =77>G =77>G =77>G =77>G =77>G =77>G =77>G =77>G =77>G =77>G =77>G =77>G =77>G =77>G =77>G =77>G =77>G =77>G =77>G =77>G =77>G =77>G =77>G =77>G =77>G =77>G =77>G =77>G =77>G =77>G =77>G =77>G =77>G =77>G =77>G =77>G =77>G =77>G =77>G =77>G =77>G =77>G =77>G =77>G =77>G =77>G =77>G =77>G =77>G =77>G =77>G =77>G =77>G =77>G =77>G =77>G =77>G =77>G =77>G =77>G =77>G =77>G =77>G =77>G =77>G =77>G =77>G =77>G =77>G =77>G =77>G =77>G =77>G =77>G =77>G =77>G =77>G =77>G =77>G =77>G =77>G =77>G =77>G =77>G =77>G =77>G =77>G =77>G =77>G =77>G =77>G =77>G =77>G =77>G =77>G =77>G =77>G =77>G =77>G =77>G =77>G =77>G =77>G =77>G =77>G =77>G =77>G =77>G =77>G =77>G =77>G =77>G =77>G =77>G =77>G =77>G =77>G =77>G =77>G =77>G =77>G =77>G =77>G =77>G =77>G =77>G =77>G =77>G =77>G =77>G =77>G =77>G =77>G =77>G =77>G =77>G =77>G =77>G =77>G =77>G =77>G =77>G =77>G =77>G =77>G =77>G =77>G =77>G =77>G =77>G =77>G =77>G =77>G =77>G =77>G =77>G =77>G =77>G =77>G =77>G =77>G =77>G =77>G =77>G =77>G =77>G =77>G =77>G =77>G =77>G =77>G =77>G =77>G =77>G =77>G =77>G =77>G ;77>G ;77>G ;77>G ;77>G ;77>G ;77>G ;77>G ;77>G ;77>G ;77>G ;77>G ;77>G ;77>G ;77>G ;77>G ;77>G ;77>G ;77>G ;77>G ;77>G ;77>G ;77>G ;77>G ;77>G ;77>G ;77>G ;77>G ;77>G ;77>G ;77>G ;77>G ;77>G ;77>G ;77>G ;77>G ;77>G ;77>G ;77>G ;77>G ;77>G ;77>G ;77>G ;77>G ;77>G ;77>G ;77>G ;77>G ;77>G ;77>G ;77>G ;77>G ;77>G ;77>G ;77>G ;77>G ;77>G ;77>G ;77>G ;77>G ;77>G ;77>G ;77>G ;77>G ;77>G ;77>G ;77>G ;77>G ;77>G ;77>G ;77>G ;77>G ;77>G ;77>G ;77>G ;77>G ;77>G ;77>G ;77>G ;77>G ;77>G ;77>G ;77>G ;77>G ;77>G ;77>G ;77>G ;77>G ;77>G ;77>G ;77>G ;77>G ;77>G ;77>G ;77>G ;77>G ;77>G ;77>G ;77>G ;77>G ;77>G ;77>G ;77>G ;>G ;>G ;>G ;>G ;>G ;>G ;>G ;>G ;>G ;>G ;>G ;>G ;>G ;>G ;>G ;>G ;>G ;>G ;>G ;>G ;>G ;>G ;>G ;>G ;>G ;>G ;>G ;>G ;>G ;>G ;>G ;>G ;>G ;>G ;>G ;>G ;>G ;>G ;>G ;>G ;>G ;>G ;>G ;>G ;>G ;>G ;>G ;>G ;>G ;>G ;>G ;>G ;>G ;>G ;>G ;>G ;>G ;>G ;>G ;>G ;>G ;>G ;>G ;>G ;>G ;>G ;>G ;>G ;>G ;>G ;>G ;>G ;>G ;>G ;>G ;>G ;>G ;>G ;>G ;>G ;>G ;>G ;>G ;>G ;>G ;>G ;>G ;>G ;>G ;>G ;>G ;>G ;>G ;>G ;>G ;>G ;>G ;>G ;>G ;>G ;>G ;>G ;>G ;>G ;>G ;>G ;>G ;>G ;>G ;>G ;>G ;>G ;>G ;>G ;>G ;>G ;>G ;>G ;>G ;>G ;>G ;>G ;>G ;>G ;>G ;>G ;>G ;>G ;>G ;>G ;>G ;>G ;>G ;>G ;>G ;>G ;>G ;>G ;>G ;>G ;>G ;>G ;>G ;>G ;>G ;>G ;>G ;>G ;>G ;>G ;>G ;>G ;>G ;>G >4BG4 >4BG4 >4BG4 >4BG4 >4BG4 >4BG4 >4BG4 >4BG4 >4BG4 >4BG4 >4BG4 >4BG4 >4BG4 >4BG4 >4BG4 >4BG4 >4BG4 >4BG4 >4BG4 >4BG4 >4BG4 >4BG4 >4BG4 >4BG4 >4BG4 >4BG4 >4BG4 >4BG4 >4BG4 >4BG4 >4BG4 >4BG4 >4BG4 >4BG4 >4BG4 >4BG4 >4BG4 >4BG4 >4BG4 >4BG4 >4BG4 >4BG4 >4BG4 >4BG4 >4BG4 >4BG4 >4BG4 >4BG4 >4BG4 >4BG4 >4BG4 >4BG4 >4BG4 >4BG4 >4BG4 >4BG4 >4BG4 >4BG4 >4BG4 >4BG4 >4BG4 >4BG4 >4BG4 >4BG4 >4BG4 >4BG4 >4BG4 >4BG4 >4BG4 >4BG4 >4BG4 >4BG4 >4BG4 >4BG4 >4BG4 >4BG4 >4BG4 >4BG4 >4BG4 >4BG4 >4BG4 >4BG4 >4BG4 >4BG4 >4BG4 >4BG4 >4BG4 >4BG4 >4BG4 >4BG4 >4BG4 >4BG4 >4BG4 >4BG4 >4BG4 >4BG4 >4BG4 >4BG4 >4BG4 >4BG4 >4BG4 >4BG4 >4BG4 >4BG4 >4BG4 >4BG4 >4BG4 >4BG4 >4BG4 >4BG4 >4BG4 >4BG4 >4BG4 >4BG4 >4BG4 >4BG4 >4BG4 >4BG4 >4BG4 >4BG4 >4BG4 >4BG4 >4BG4 >4BG4 >4BG4 >4BG4 >4BG4 >4BG4 >4BG4 >4BG4 >4BG4 >4BG4 >4BG4 >4BG4 >4BG4 >4BG4 >4BG4 >4BG4 >4BG4 >4BG4 >4BG4 >4BG4 >4BG4 >4BG4 >4BG4 >4BG4 >4BG4 >4BG4 >4BG4 >4BG4 >4BG4 >4BG4 >4BG4 >4BG4 >4BG4 >4BG4 >4BG4 >4BG4 >4BG4 >4BG4 >4BG4 >4BG4 >4BG4 >4BG4 >4BG4 >4BG4 >4BG4 >4BG4 >4BG4 >4BG4 >4BG4 >4BG4 >4BG4 >4BG4 >4BG4 >4BG4 >4BG4 >4BG4 >4BG4 >4BG4 >4BG4 >4BG4 >4BG4 >4BG4 >4BG4 >4BG4 >4BG4 >4BG4 >4BG4 >4BG4 >4BG4 >4BG4 >4BG4 >4BG4 >4BG4 >4BG4 >4BG4 >4BG4 >4BG4 >4BG4 >4BG4 >4BG4 >4BG4 >4BG4 >4BG4 >4BG4 >4BG4 >4BG4 >4BG4 >4BG4 >4BG4 >4BG4 >4BG4 >4BG4 >4BG4 >4BG4 >4BG4 >4BG4 >4BG4 >4BG4 >4BG4 >4BG4 >4BG4 >4BG4 >4BG4 >4BG4 >4BG4 >4BG4 >4BG4 >4BG4 >4BG4 >4BG4 >4BG4 >4BG4 >4BG4 >4BG4 >4BG4 >4BG4 >4BG4 >4BG4 >4BG4 >4BG4 >4BG4 >4BG4 >4BG4 >4BG4 >4BG4 >4BG4 >4BG4 >4BG4 >4BG4 >4BG4 >4BG4 >4BG4 >4BG4 >4BG4 =44@C =44@C =44@C =44@C =44@C =44@C =44@C =44@C =44@C =44@C =44@C =44@C =44@C =44@C =44@C =44@C =44@C =44@C =44@C =44@C =44@C =44@C =44@C =44@C =44@C =44@C =44@C =44@C =44@C =44@C =44@C =44@C =44@C =44@C =44@C =44@C =44@C =44@C =44@C =44@C =44@C =44@C =44@C =44@C =44@C =44@C =44@C =44@C =44@C =44@C =44@C =44@C =44@C =44@C =44@C =44@C =44@C =44@C =44@C =44@C =44@C =44@C =44@C =44@C =44@C =44@C =44@C =44@C =44@C =44@C =44@C =44@C =44@C =44@C =44@C =44@C =44@C =44@C =44@C =44@C =44@C =44@C =44@C =44@C =44@C =44@C =44@C =44@C =44@C =44@C =44@C =44@C =44@C =44@C =44@C =44@C =44@C =44@C =44@C =44@C =44@C =44@C =@C =@C =@C =@C =@C =@C =@C =@C =@C =@C =@C =@C =@C =@C =@C =@C =@C =@C =@C =@C =@C =@C =@C =@C =@C =@C =@C =@C =@C =@C =@C =@C =@C =@C =@C =@C =@C =@C =@C =@C =@C =@C =@C =@C =@C =@C =@C =@C =@C =@C =@C =@C =@C =@C =@C =@C =@C =@C =@C =@C =@C =@C =@C =@C =@C =@C =@C =@C =@C =@C =@C =@C =@C =@C =@C =@C =@C =@C =@C =@C =@C =@C =@C =@C =@C =@C =@C =@C =@C =@C =@C =@C =@C =@C =@C =@C =@C =@C =@C =@C =@C =@C =@C =@C =@C =@C =@C =@C =@C =@C =@C =@C =@C =@C =@C =@C =@C =@C =@C =@C =@C =@C =@C =@C =@C =@C =@C =@C =@C =@C =@C =@C =@C =@C =@C =@C =@C =@C =@C =@C =@C =@C =@C =@C =@C =@C =@C =@C =@C =@C =@C =@C =@C =@C ;6>B6 ;6>B6 ;6>B6 ;6>B6 ;6>B6 ;6>B6 ;6>B6 ;6>B6 ;6>B6 ;6>B6 ;6>B6 ;6>B6 ;6>B6 ;6>B6 ;6>B6 ;6>B6 ;6>B6 ;6>B6 ;6>B6 ;6>B6 ;6>B6 ;6>B6 ;6>B6 ;6>B6 ;6>B6 ;6>B6 ;6>B6 ;6>B6 ;6>B6 ;6>B6 ;6>B6 ;6>B6 ;6>B6 ;6>B6 ;6>B6 ;6>B6 ;6>B6 ;6>B6 ;6>B6 ;6>B6 ;6>B6 ;6>B6 ;6>B6 ;6>B6 ;6>B6 ;6>B6 ;6>B6 ;6>B6 ;6>B6 ;6>B6 ;6>B6 ;6>B6 ;6>B6 ;6>B6 ;6>B6 ;6>B6 ;6>B6 ;6>B6 ;6>B6 ;6>B6 ;6>B6 ;6>B6 ;6>B6 ;6>B6 ;6>B6 ;6>B6 ;6>B6 ;6>B6 ;6>B6 ;6>B6 ;6>B6 ;6>B6 ;6>B6 ;6>B6 ;6>B6 ;6>B6 ;6>B6 ;6>B6 ;6>B6 ;6>B6 ;6>B6 ;6>B6 ;6>B6 ;6>B6 ;6>B6 ;6>B6 ;6>B6 ;6>B6 ;6>B6 ;6>B6 ;6>B6 ;6>B6 ;6>B6 ;6>B6 ;6>B6 ;6>B6 ;6>B6 ;6>B6 ;6>B6 ;6>B6 ;6>B6 ;6>B6 ;6>B6 ;6>B6 ;6>B6 ;6>B6 ;6>B6 ;6>B6 ;6>B6 ;6>B6 ;6>B6 ;6>B6 ;6>B6 ;6>B6 ;6>B6 ;6>B6 ;6>B6 ;6>B6 ;6>B6 ;6>B6 ;6>B6 ;6>B6 ;6>B6 ;6>B6 ;6>B6 ;6>B6 ;6>B6 ;6>B6 ;6>B6 ;6>B6 ;6>B6 ;6>B6 ;6>B6 ;6>B6 ;6>B6 ;6>B6 ;6>B6 ;6>B6 ;6>B6 ;6>B6 ;6>B6 ;6>B6 ;6>B6 ;6>B6 ;6>B6 ;6>B6 ;6>B6 ;6>B6 ;6>B6 ;6>B6 ;6>B6 ;6>B6 ;6>B6 ;6>B6 ;6>B6 ;6>B6 ;6>B6 ;6>B6 ;6>B6 ;6>B6 ;6>B6 ;6>B6 ;6>B6 ;6>B6 ;6>B6 ;6>B6 ;6>B6 ;6>B6 ;6>B6 ;6>B6 ;6>B6 ;6>B6 ;6>B6 ;6>B6 ;6>B6 ;6>B6 ;6>B6 ;6>B6 ;6>B6 ;6>B6 ;6>B6 ;6>B6 ;6>B6 ;6>B6 ;6>B6 ;6>B6 ;6>B6 ;6>B6 ;6>B6 ;6>B6 ;6>B6 ;6>B6 ;6>B6 ;6>B6 ;6>B6 ;6>B6 ;6>B6 ;6>B6 ;6>B6 ;6>B6 ;6>B6 ;6>B6 ;6>B6 ;6>B6 ;6>B6 ;6>B6 ;6>B6 ;6>B6 ;6>B6 ;6>B6 ;6>B6 ;6>B6 ;6>B6 ;6>B6 ;6>B6 ;6>B6 ;6>B6 ;6>B6 ;6>B6 ;6>B6 ;6>B6 ;6>B6 ;6>B6 ;6>B6 ;6>B6 ;6>B6 ;6>B6 ;6>B6 ;6>B6 ;6>B6 ;6>B6 ;6>B6 ;6>B6 ;6>B6 ;6>B6 ;6>B6 ;6>B6 ;6>B6 ;6>B6 ;6>B6 ;6>B6 ;6>B6 ;6>B6 ;6>B6 ;6>B6 ;6>B6 ;6>B6 ;6>B6 ;6>B6 ;6>B6 ;6>B6 ;6>B6 ;6>B6 ;6>B6 ;6>B6 ;6>B6 :66=@ :66=@ :66=@ :66=@ :66=@ :66=@ :66=@ :66=@ :66=@ :66=@ :66=@ :66=@ :66=@ :66=@ :66=@ :66=@ :66=@ :66=@ :66=@ :66=@ :66=@ :66=@ :66=@ :66=@ :66=@ :66=@ :66=@ :66=@ :66=@ :66=@ :66=@ :66=@ :66=@ :66=@ :66=@ :66=@ :66=@ :66=@ :66=@ :66=@ :66=@ :66=@ :66=@ :66=@ :66=@ :66=@ :66=@ :66=@ :66=@ :66=@ :66=@ :66=@ :66=@ :66=@ :66=@ :66=@ :66=@ :66=@ :66=@ :66=@ :66=@ :66=@ :66=@ :66=@ :66=@ :66=@ :66=@ :66=@ :66=@ :66=@ :66=@ :66=@ :66=@ :66=@ :66=@ :66=@ :66=@ :66=@ :66=@ :66=@ :66=@ :66=@ :66=@ :66=@ :66=@ :66=@ :66=@ :66=@ :66=@ :66=@ :66=@ :66=@ :66=@ :66=@ :66=@ :66=@ :66=@ :66=@ :66=@ :66=@ :66=@ :66=@ :=@ :=@ :=@ :=@ :=@ :=@ :=@ :=@ :=@ :=@ :=@ :=@ :=@ :=@ :=@ :=@ :=@ :=@ :=@ :=@ :=@ :=@ :=@ :=@ :=@ :=@ :=@ :=@ :=@ :=@ :=@ :=@ :=@ :=@ :=@ :=@ :=@ :=@ :=@ :=@ :=@ :=@ :=@ :=@ :=@ :=@ :=@ :=@ :=@ :=@ :=@ :=@ :=@ :=@ :=@ :=@ :=@ :=@ :=@ :=@ :=@ :=@ :=@ :=@ :=@ :=@ :=@ :=@ :=@ :=@ :=@ :=@ :=@ :=@ :=@ :=@ :=@ :=@ :=@ :=@ :=@ :=@ :=@ :=@ :=@ :=@ :=@ :=@ :=@ :=@ :=@ :=@ :=@ :=@ :=@ :=@ :=@ :=@ :=@ :=@ :=@ :=@ :=@ :=@ :=@ :=@ :=@ :=@ :=@ :=@ :=@ :=@ :=@ :=@ :=@ :=@ :=@ :=@ :=@ :=@ :=@ :=@ :=@ :=@ :=@ :=@ :=@ :=@ :=@ :=@ :=@ :=@ :=@ :=@ :=@ :=@ :=@ :=@ :=@ :=@ :=@ :=@ :=@ :=@ :=@ :=@ :=@ :=@ :=@ :=@ :=@ :=@ :=@ :=@ ;//;>B ;//;>B ;//;>B ;//;>B ;//;>B ;//;>B ;//;>B ;//;>B ;//;>B ;//;>B ;//;>B ;//;>B ;//;>B ;//;>B ;//;>B ;//;>B ;//;>B ;//;>B ;//;>B ;//;>B ;//;>B ;//;>B ;//;>B ;//;>B ;//;>B ;//;>B ;//;>B ;//;>B ;//;>B ;//;>B ;//;>B ;//;>B ;//;>B ;//;>B ;//;>B ;//;>B ;//;>B ;//;>B ;//;>B ;//;>B ;//;>B ;//;>B ;//;>B ;//;>B ;//;>B ;//;>B ;//;>B ;//;>B ;//;>B ;//;>B ;//;>B ;//;>B ;//;>B ;//;>B ;//;>B ;//;>B ;//;>B ;//;>B ;//;>B ;//;>B ;//;>B ;//;>B ;//;>B ;//;>B ;//;>B ;//;>B ;//;>B ;//;>B ;//;>B ;//;>B ;//;>B ;//;>B ;//;>B ;//;>B ;//;>B ;//;>B ;//;>B ;//;>B ;//;>B ;//;>B ;//;>B ;//;>B ;//;>B ;//;>B ;//;>B ;//;>B ;//;>B ;//;>B ;//;>B ;//;>B ;//;>B ;//;>B ;//;>B ;//;>B ;//;>B ;//;>B ;//;>B ;//;>B ;//;>B ;//;>B ;//;>B ;//;>B ;//;>B ;//;>B ;//;>B ;//;>B ;//;>B ;//;>B ;//;>B ;//;>B ;//;>B ;//;>B ;//;>B ;//;>B ;//;>B ;//;>B ;//;>B ;//;>B ;//;>B ;//;>B ;//;>B ;//;>B ;//;>B ;//;>B ;//;>B ;//;>B ;//;>B ;//;>B ;//;>B ;//;>B ;//;>B ;//;>B ;//;>B ;//;>B ;//;>B ;//;>B ;//;>B ;//;>B ;//;>B ;//;>B ;//;>B ;//;>B ;//;>B ;//;>B ;//;>B ;//;>B ;//;>B ;//;>B ;//;>B ;//;>B ;//;>B ;//;>B ;//;>B ;//;>B ;//;>B ;//;>B ;//;>B ;//;>B ;//;>B ;//;>B ;//;>B ;//;>B ;//;>B ;//;>B ;//;>B ;//;>B ;//;>B ;//;>B ;//;>B ;//;>B ;//;>B ;//;>B ;//;>B ;//;>B ;//;>B ;//;>B ;//;>B ;//;>B ;//;>B ;//;>B ;//;>B ;//;>B ;//;>B ;//;>B ;//;>B ;//;>B ;//;>B ;//;>B ;//;>B ;//;>B ;//;>B ;//;>B ;//;>B ;//;>B ;//;>B ;//;>B ;//;>B ;//;>B ;//;>B ;//;>B ;//;>B ;//;>B ;//;>B ;//;>B ;//;>B ;//;>B ;//;>B ;//;>B ;//;>B ;//;>B ;//;>B ;//;>B ;//;>B ;//;>B ;//;>B ;//;>B ;//;>B ;//;>B ;//;>B ;//;>B ;//;>B ;//;>B ;//;>B ;//;>B ;//;>B ;//;>B ;//;>B ;//;>B ;//;>B ;//;>B ;//;>B ;//;>B ;//;>B ;//;>B ;//;>B ;//;>B ;//;>B ;//;>B ;//;>B ;//;>B ;//;>B ;//;>B ;//;>B ;//;>B ;//;>B ;//;>B ;//;>B ;//;>B ;//;>B ;//;>B ;//;>B ;//;>B ;//;>B ;//;>B ;//;>B ;//;>B L;//;>B L;//;>B L;//;>B L;//;>B L;//;>B L;//;>B L;//;>B L;//;>B L;//;>B L;//;>B L;//;>B L;//;>B L;//;>B L;//;>B L;//;>B L;//;>B L;//;>B L;//;>B L;//;>B L;//;>B L;//;>B L;//;>B L;//;>B L;//;>B L;//;>B L;//;>B L;//;>B L;//;>B L;//;>B L;//;>B L;//;>B L;//;>B L;//;>B L;//;>B L;//;>B L;//;>B L;//;>B L;//;>B L;//;>B L;//;>B L;//;>B L;//;>B L;//;>B L;//;>B L;//;>B L;//;>B L;//;>B L;//;>B L;//;>B L;//;>B L;//;>B L;//;>B L;//;>B L;//;>B L;//;>B L;//;>B L;//;>B L;//;>B L;//;>B L;//;>B L;//;>B L;//;>B L;//;>B L;//;>B L;//;>B L;//;>B L;//;>B L;//;>B L;//;>B L;//;>B L;//;>B L;//;>B L;//;>B L;//;>B L;//;>B L;//;>B L;//;>B L;//;>B L;//;>B L;//;>B L;//;>B L;//;>B L;//;>B L;//;>B L;//;>B L;//;>B L;//;>B L;//;>B L;//;>B L;//;>B L;//;>B L;//;>B L;//;>B L;//;>B L;//;>B L;//;>B L;//;>B L;//;>B L;//;>B L;//;>B L;//;>B L;//;>B L;;>B L;;>B L;;>B L;;>B L;;>B L;;>B L;;>B L;;>B L;;>B L;;>B L;;>B L;;>B L;;>B L;;>B L;;>B L;;>B L;;>B L;;>B L;;>B L;;>B L;;>B L;;>B L;;>B L;;>B L;;>B L;;>B L;;>B L;;>B L;;>B L;;>B L;;>B L;;>B L;;>B L;;>B L;;>B L;;>B L;;>B L;;>B L;;>B L;;>B L;;>B L;;>B L;;>B L;;>B L;;>B L;;>B L;;>B L;;>B L;;>B L;;>B L;;>B L;;>B L;;>B L;;>B L;;>B L;;>B L;;>B L;;>B L;;>B L;;>B L;;>B L;;>B L;;>B L;;>B L;;>B L;;>B L;;>B L;;>B L;;>B L;;>B L;;>B L;;>B L;;>B L;;>B L;;>B L;;>B L;;>B L;;>B L;;>B L;;>B L;;>B L;;>B L;;>B L;;>B L;;>B L;;>B L;;>B L;;>B L;;>B L;;>B L;;>B L;;>B L;;>B L;;>B L;;>B L;;>B L;;>B L;;>B L;;>B L;;>B L;;>B L;;>B L;;>B L;;>B L;;>B L;;>B L;;>B L;;>B L;;>B L;;>B L;;>B L;;>B L;;>B L;;>B L;;>B L;;>B L;;>B L;;>B L;;>B L;;>B L;;>B L;;>B L;;>B L;;>B L;;>B L;;>B L;;>B L;;>B L;;>B L;;>B L;;>B L;;>B L;;>B L;;>B L;;>B L;;>B L;;>B L;;>B L;;>B L;;>B L;;>B L;;>B L;;>B L;;>B L;;>B L;;>B L;;>B L;;>B L;;>B L;;>B L;;>B L;;>B L;;>B L;;>B J;66=BF J;66=BF J;66=BF J;66=BF J;66=BF J;66=BF J;66=BF J;66=BF J;66=BF J;66=BF J;66=BF J;66=BF J;66=BF J;66=BF J;66=BF J;66=BF J;66=BF J;66=BF J;66=BF J;66=BF J;66=BF J;66=BF J;66=BF J;66=BF J;66=BF J;66=BF J;66=BF J;66=BF J;66=BF J;66=BF J;66=BF J;66=BF J;66=BF J;66=BF J;66=BF J;66=BF J;66=BF J;66=BF J;66=BF J;66=BF J;66=BF J;66=BF J;66=BF J;66=BF J;66=BF J;66=BF J;66=BF J;66=BF J;66=BF J;66=BF J;66=BF J;66=BF J;66=BF J;66=BF J;66=BF J;66=BF J;66=BF J;66=BF J;66=BF J;66=BF J;66=BF J;66=BF J;66=BF J;66=BF J;66=BF J;66=BF J;66=BF J;66=BF J;66=BF J;66=BF J;66=BF J;66=BF J;66=BF J;66=BF J;66=BF J;66=BF J;66=BF J;66=BF J;66=BF J;66=BF J;66=BF J;66=BF J;66=BF J;66=BF J;66=BF J;66=BF J;66=BF J;66=BF J;66=BF J;66=BF J;66=BF J;66=BF J;66=BF J;66=BF J;66=BF J;66=BF J;66=BF J;66=BF J;66=BF J;66=BF J;66=BF J;66=BF J;66=BF J;66=BF J;66=BF J;66=BF J;66=BF J;66=BF J;66=BF J;66=BF J;66=BF J;66=BF J;66=BF J;66=BF J;66=BF J;66=BF J;66=BF J;66=BF J;66=BF J;66=BF J;66=BF J;66=BF J;66=BF J;66=BF J;66=BF J;66=BF J;66=BF J;66=BF J;66=BF J;66=BF J;66=BF J;66=BF J;66=BF J;66=BF J;66=BF J;66=BF J;66=BF J;66=BF J;66=BF J;66=BF J;66=BF J;66=BF J;66=BF J;66=BF J;66=BF J;66=BF J;66=BF J;66=BF J;66=BF J;66=BF J;66=BF J;66=BF J;66=BF J;66=BF J;66=BF J;66=BF J;66=BF J;66=BF J;66=BF J;66=BF J;66=BF J;66=BF J;66=BF J;66=BF J;66=BF J;66=BF J;66=BF J;66=BF J;66=BF J;66=BF J;66=BF J;66=BF J;66=BF J;66=BF J;66=BF J;66=BF J;66=BF J;66=BF J;66=BF J;66=BF J;66=BF J;66=BF J;66=BF J;66=BF J;66=BF J;66=BF J;66=BF J;66=BF J;66=BF J;66=BF J;66=BF J;66=BF J;66=BF J;66=BF J;66=BF J;66=BF J;66=BF J;66=BF J;66=BF J;66=BF J;66=BF J;66=BF J;66=BF J;66=BF J;66=BF J;66=BF J;66=BF J;66=BF J;66=BF J;66=BF J;66=BF J;66=BF J;66=BF J;66=BF J;66=BF J;66=BF J;66=BF J;66=BF J;66=BF J;66=BF J;66=BF J;66=BF J;66=BF J;66=BF J;66=BF J;66=BF J;66=BF J;66=BF J;66=BF J;66=BF J;66=BF J;66=BF J;66=BF J;66=BF J;66=BF J;66=BF J;66=BF J;66=BF J;66=BF J;66=BF J;66=BF J;66=BF J;66=BF J;66=BF J;66=BF J;66=BF J;66=BF J;66=BF J;66=BF J;66=BF J;66=BF J;66=BF J;66=BF J;66=BF J;66=BF J;66=BF I;66=BF I;66=BF I;66=BF I;66=BF I;66=BF I;66=BF I;66=BF I;66=BF I;66=BF I;66=BF I;66=BF I;66=BF I;66=BF I;66=BF I;66=BF I;66=BF I;66=BF I;66=BF I;66=BF I;66=BF I;66=BF I;66=BF I;66=BF I;66=BF I;66=BF I;66=BF I;66=BF I;66=BF I;66=BF I;66=BF I;66=BF I;66=BF I;66=BF I;66=BF I;66=BF I;66=BF I;66=BF I;66=BF I;66=BF I;66=BF I;66=BF I;66=BF I;66=BF I;66=BF I;66=BF I;66=BF I;66=BF I;66=BF I;66=BF I;66=BF I;66=BF I;66=BF I;66=BF I;66=BF I;66=BF I;66=BF I;66=BF I;66=BF I;66=BF I;66=BF I;66=BF I;66=BF I;66=BF I;66=BF I;66=BF I;66=BF I;66=BF I;66=BF I;66=BF I;66=BF I;66=BF I;66=BF I;66=BF I;66=BF I;66=BF I;66=BF I;66=BF I;66=BF I;66=BF I;66=BF I;66=BF I;66=BF I;66=BF I;66=BF I;66=BF I;66=BF I;66=BF I;66=BF I;66=BF I;66=BF I;66=BF I;66=BF I;66=BF I;66=BF I;66=BF I;66=BF I;66=BF I;66=BF I;66=BF I;66=BF I;66=BF I;66=BF I;=BF I;=BF I;=BF I;=BF I;=BF I;=BF I;=BF I;=BF I;=BF I;=BF I;=BF I;=BF I;=BF I;=BF I;=BF I;=BF I;=BF I;=BF I;=BF I;=BF I;=BF I;=BF I;=BF I;=BF I;=BF I;=BF I;=BF I;=BF I;=BF I;=BF I;=BF I;=BF I;=BF I;=BF I;=BF I;=BF I;=BF I;=BF I;=BF I;=BF I;=BF I;=BF I;=BF I;=BF I;=BF I;=BF I;=BF I;=BF I;=BF I;=BF I;=BF I;=BF I;=BF I;=BF I;=BF I;=BF I;=BF I;=BF I;=BF I;=BF I;=BF I;=BF I;=BF I;=BF I;=BF I;=BF I;=BF I;=BF I;=BF I;=BF I;=BF I;=BF I;=BF I;=BF I;=BF I;=BF I;=BF I;=BF I;=BF I;=BF I;=BF I;=BF I;=BF I;=BF I;=BF I;=BF I;=BF I;=BF I;=BF I;=BF I;=BF I;=BF I;=BF I;=BF I;=BF I;=BF I;=BF I;=BF I;=BF I;=BF I;=BF I;=BF I;=BF I;=BF I;=BF I;=BF I;=BF I;=BF I;=BF I;=BF I;=BF I;=BF I;=BF I;=BF I;=BF I;=BF I;=BF I;=BF I;=BF I;=BF I;=BF I;=BF I;=BF I;=BF I;=BF I;=BF I;=BF I;=BF I;=BF I;=BF I;=BF I;=BF I;=BF I;=BF I;=BF I;=BF I;=BF I;=BF I;=BF I;=BF I;=BF I;=BF I;=BF I;=BF I;=BF I;=BF I;=BF I;=BF I;=BF I;=BF I;=BF I;=BF I;=BF I;=BF J;;>BG J;;>BG J;;>BG J;;>BG J;;>BG J;;>BG J;;>BG J;;>BG J;;>BG J;;>BG J;;>BG J;;>BG J;;>BG J;;>BG J;;>BG J;;>BG J;;>BG J;;>BG J;;>BG J;;>BG J;;>BG J;;>BG J;;>BG J;;>BG J;;>BG J;;>BG J;;>BG J;;>BG J;;>BG J;;>BG J;;>BG J;;>BG J;;>BG J;;>BG J;;>BG J;;>BG J;;>BG J;;>BG J;;>BG J;;>BG J;;>BG J;;>BG J;;>BG J;;>BG J;;>BG J;;>BG J;;>BG J;;>BG J;;>BG J;;>BG J;;>BG J;;>BG J;;>BG J;;>BG J;;>BG J;;>BG J;;>BG J;;>BG J;;>BG J;;>BG J;;>BG J;;>BG J;;>BG J;;>BG J;;>BG J;;>BG J;;>BG J;;>BG J;;>BG J;;>BG J;;>BG J;;>BG J;;>BG J;;>BG J;;>BG J;;>BG J;;>BG J;;>BG J;;>BG J;;>BG J;;>BG J;;>BG J;;>BG J;;>BG J;;>BG J;;>BG J;;>BG J;;>BG J;;>BG J;;>BG J;;>BG J;;>BG J;;>BG J;;>BG J;;>BG J;;>BG J;;>BG J;;>BG J;;>BG J;;>BG J;;>BG J;;>BG J;;>BG J;;>BG J;;>BG J;;>BG J;;>BG J;;>BG J;;>BG J;;>BG J;;>BG J;;>BG J;;>BG J;;>BG J;;>BG J;;>BG J;;>BG J;;>BG J;;>BG J;;>BG J;;>BG J;;>BG J;;>BG J;;>BG J;;>BG J;;>BG J;;>BG J;;>BG J;;>BG J;;>BG J;;>BG J;;>BG J;;>BG J;;>BG J;;>BG J;;>BG J;;>BG J;;>BG J;;>BG J;;>BG J;;>BG J;;>BG J;;>BG J;;>BG J;;>BG J;;>BG J;;>BG J;;>BG J;;>BG J;;>BG J;;>BG J;;>BG J;;>BG J;;>BG J;;>BG J;;>BG J;;>BG J;;>BG J;;>BG J;;>BG J;;>BG J;;>BG J;;>BG J;;>BG J;;>BG J;;>BG J;;>BG J;;>BG J;;>BG J;;>BG J;;>BG J;;>BG J;;>BG J;;>BG J;;>BG J;;>BG J;;>BG J;;>BG J;;>BG J;;>BG J;;>BG J;;>BG J;;>BG J;;>BG J;;>BG J;;>BG J;;>BG J;;>BG J;;>BG J;;>BG J;;>BG J;;>BG J;;>BG J;;>BG J;;>BG J;;>BG J;;>BG J;;>BG J;;>BG J;;>BG J;;>BG J;;>BG J;;>BG J;;>BG J;;>BG J;;>BG J;;>BG J;;>BG J;;>BG J;;>BG J;;>BG J;;>BG J;;>BG J;;>BG J;;>BG J;;>BG J;;>BG J;;>BG J;;>BG J;;>BG J;;>BG J;;>BG J;;>BG J;;>BG J;;>BG J;;>BG J;;>BG J;;>BG J;;>BG J;;>BG J;;>BG J;;>BG J;;>BG J;;>BG J;;>BG J;;>BG J;;>BG J;;>BG J;;>BG J;;>BG J;;>BG J;;>BG J;;>BG J;;>BG J;;>BG J;;>BG J;;>BG J;;>BG J;;>BG J;;>BG J;;>BG J;;>BG J;;>BG J;;>BG J;;>BG J;;>BG N;;>BG N;;>BG N;;>BG N;;>BG N;;>BG N;;>BG N;;>BG N;;>BG N;;>BG N;;>BG N;;>BG N;;>BG N;;>BG N;;>BG N;;>BG N;;>BG N;;>BG N;;>BG N;;>BG N;;>BG N;;>BG N;;>BG N;;>BG N;;>BG N;;>BG N;;>BG N;;>BG N;;>BG N;;>BG N;;>BG N;;>BG N;;>BG N;;>BG N;;>BG N;;>BG N;;>BG N;;>BG N;;>BG N;;>BG N;;>BG N;;>BG N;;>BG N;;>BG N;;>BG N;;>BG N;;>BG N;;>BG N;;>BG N;;>BG N;;>BG N;;>BG N;;>BG N;;>BG N;;>BG N;;>BG N;;>BG N;;>BG N;;>BG N;;>BG N;;>BG N;;>BG N;;>BG N;;>BG N;;>BG N;;>BG N;;>BG N;;>BG N;;>BG N;;>BG N;;>BG N;;>BG N;;>BG N;;>BG N;;>BG N;;>BG N;;>BG N;;>BG N;;>BG N;;>BG N;;>BG N;;>BG N;;>BG N;;>BG N;;>BG N;;>BG N;;>BG N;;>BG N;;>BG N;;>BG N;;>BG N;;>BG N;;>BG N;;>BG N;;>BG N;;>BG N;;>BG N;;>BG N;;>BG N;;>BG N;;>BG N;;>BG N;;>BG N>BG N>BG N>BG N>BG N>BG N>BG N>BG N>BG N>BG N>BG N>BG N>BG N>BG N>BG N>BG N>BG N>BG N>BG N>BG N>BG N>BG N>BG N>BG N>BG N>BG N>BG N>BG N>BG N>BG N>BG N>BG N>BG N>BG N>BG N>BG N>BG N>BG N>BG N>BG N>BG N>BG N>BG N>BG N>BG N>BG N>BG N>BG N>BG N>BG N>BG N>BG N>BG N>BG N>BG N>BG N>BG N>BG N>BG N>BG N>BG N>BG N>BG N>BG N>BG N>BG N>BG N>BG N>BG N>BG N>BG N>BG N>BG N>BG N>BG N>BG N>BG N>BG N>BG N>BG N>BG N>BG N>BG N>BG N>BG N>BG N>BG N>BG N>BG N>BG N>BG N>BG N>BG N>BG N>BG N>BG N>BG N>BG N>BG N>BG N>BG N>BG N>BG N>BG N>BG N>BG N>BG N>BG N>BG N>BG N>BG N>BG N>BG N>BG N>BG N>BG N>BG N>BG N>BG N>BG N>BG N>BG N>BG N>BG N>BG N>BG N>BG N>BG N>BG N>BG N>BG N>BG N>BG N>BG N>BG N>BG N>BG N>BG N>BG N>BG N>BG N>BG N>BG N>BG N>BG N>BG N>BG N>BG N>BG N>BG N>BG N>BG N>BG N>BG N>BG S>//>BG S>//>BG S>//>BG S>//>BG S>//>BG S>//>BG S>//>BG S>//>BG S>//>BG S>//>BG S>//>BG S>//>BG S>//>BG S>//>BG S>//>BG S>//>BG S>//>BG S>//>BG S>//>BG S>//>BG S>//>BG S>//>BG S>//>BG S>//>BG S>//>BG S>//>BG S>//>BG S>//>BG S>//>BG S>//>BG S>//>BG S>//>BG S>//>BG S>//>BG S>//>BG S>//>BG S>//>BG S>//>BG S>//>BG S>//>BG S>//>BG S>//>BG S>//>BG S>//>BG S>//>BG S>//>BG S>//>BG S>//>BG S>//>BG S>//>BG S>//>BG S>//>BG S>//>BG S>//>BG S>//>BG S>//>BG S>//>BG S>//>BG S>//>BG S>//>BG S>//>BG S>//>BG S>//>BG S>//>BG S>//>BG S>//>BG S>//>BG S>//>BG S>//>BG S>//>BG S>//>BG S>//>BG S>//>BG S>//>BG S>//>BG S>//>BG S>//>BG S>//>BG S>//>BG S>//>BG S>//>BG S>//>BG S>//>BG S>//>BG S>//>BG S>//>BG S>//>BG S>//>BG S>//>BG S>//>BG S>//>BG S>//>BG S>//>BG S>//>BG S>//>BG S>//>BG S>//>BG S>//>BG S>//>BG S>//>BG S>//>BG S>//>BG S>//>BG S>//>BG S>//>BG S>//>BG S>//>BG S>//>BG S>//>BG S>//>BG S>//>BG S>//>BG S>//>BG S>//>BG S>//>BG S>//>BG S>//>BG S>//>BG S>//>BG S>//>BG S>//>BG S>//>BG S>//>BG S>//>BG S>//>BG S>//>BG S>//>BG S>//>BG S>//>BG S>//>BG S>//>BG S>//>BG S>//>BG S>//>BG S>//>BG S>//>BG S>//>BG S>//>BG S>//>BG S>//>BG S>//>BG S>//>BG S>//>BG S>//>BG S>//>BG S>//>BG S>//>BG S>//>BG S>//>BG S>//>BG S>//>BG S>//>BG S>//>BG S>//>BG S>//>BG S>//>BG S>//>BG S>//>BG S>//>BG S>//>BG S>//>BG S>//>BG S>//>BG S>//>BG S>//>BG S>//>BG S>//>BG S>//>BG S>//>BG S>//>BG S>//>BG S>//>BG S>//>BG S>//>BG S>//>BG S>//>BG S>//>BG S>//>BG S>//>BG S>//>BG S>//>BG S>//>BG S>//>BG S>//>BG S>//>BG S>//>BG S>//>BG S>//>BG S>//>BG S>//>BG S>//>BG S>//>BG S>//>BG S>//>BG S>//>BG S>//>BG S>//>BG S>//>BG S>//>BG S>//>BG S>//>BG S>//>BG S>//>BG S>//>BG S>//>BG S>//>BG S>//>BG S>//>BG S>//>BG S>//>BG S>//>BG S>//>BG S>//>BG S>//>BG S>//>BG S>//>BG S>//>BG S>//>BG S>//>BG S>//>BG S>//>BG S>//>BG S>//>BG S>//>BG S>//>BG S>//>BG S>//>BG S>//>BG S>//>BG S>//>BG S>//>BG S>//>BG S>//>BG S>//>BG S>//>BG S>//>BG S>//>BG S>//>BG S>//>BG S>//>BG S>//>BG S>//>BG S>//>BG S>//>BG S>//>BG S>//>BG S>//>BG S>//>BG S>//>BG S>//>BG S>//>BG S>//>BG S>//>BG S>//>BG S>//>BG S>//>BG V>//>BG V>//>BG V>//>BG V>//>BG V>//>BG V>//>BG V>//>BG V>//>BG V>//>BG V>//>BG V>//>BG V>//>BG V>//>BG V>//>BG V>//>BG V>//>BG V>//>BG V>//>BG V>//>BG V>//>BG V>//>BG V>//>BG V>//>BG V>//>BG V>//>BG V>//>BG V>//>BG V>//>BG V>//>BG V>//>BG V>//>BG V>//>BG V>//>BG V>//>BG V>//>BG V>//>BG V>//>BG V>//>BG V>//>BG V>//>BG V>//>BG V>//>BG V>//>BG V>//>BG V>//>BG V>//>BG V>//>BG V>//>BG V>//>BG V>//>BG V>//>BG V>//>BG V>//>BG V>//>BG V>//>BG V>//>BG V>//>BG V>//>BG V>//>BG V>//>BG V>//>BG V>//>BG V>//>BG V>//>BG V>//>BG V>//>BG V>//>BG V>//>BG V>//>BG V>//>BG V>//>BG V>//>BG V>//>BG V>//>BG V>//>BG V>//>BG V>//>BG V>//>BG V>//>BG V>//>BG V>//>BG V>//>BG V>//>BG V>//>BG V>//>BG V>//>BG V>//>BG V>//>BG V>//>BG V>//>BG V>//>BG V>//>BG V>//>BG V>//>BG V>//>BG V>//>BG V>//>BG V>//>BG V>//>BG V>//>BG V>//>BG V>//>BG V>>BG V>>BG V>>BG V>>BG V>>BG V>>BG V>>BG V>>BG V>>BG V>>BG V>>BG V>>BG V>>BG V>>BG V>>BG V>>BG V>>BG V>>BG V>>BG V>>BG V>>BG V>>BG V>>BG V>>BG V>>BG V>>BG V>>BG V>>BG V>>BG V>>BG V>>BG V>>BG V>>BG V>>BG V>>BG V>>BG V>>BG V>>BG V>>BG V>>BG V>>BG V>>BG V>>BG V>>BG V>>BG V>>BG V>>BG V>>BG V>>BG V>>BG V>>BG V>>BG V>>BG V>>BG V>>BG V>>BG V>>BG V>>BG V>>BG V>>BG V>>BG V>>BG V>>BG V>>BG V>>BG V>>BG V>>BG V>>BG V>>BG V>>BG V>>BG V>>BG V>>BG V>>BG V>>BG V>>BG V>>BG V>>BG V>>BG V>>BG V>>BG V>>BG V>>BG V>>BG V>>BG V>>BG V>>BG V>>BG V>>BG V>>BG V>>BG V>>BG V>>BG V>>BG V>>BG V>>BG V>>BG V>>BG V>>BG V>>BG V>>BG V>>BG V>>BG V>>BG V>>BG V>>BG V>>BG V>>BG V>>BG V>>BG V>>BG V>>BG V>>BG V>>BG V>>BG V>>BG V>>BG V>>BG V>>BG V>>BG V>>BG V>>BG V>>BG V>>BG V>>BG V>>BG V>>BG V>>BG V>>BG V>>BG V>>BG V>>BG V>>BG V>>BG V>>BG V>>BG V>>BG V>>BG V>>BG V>>BG V>>BG V>>BG V>>BG V>>BG V>>BG V>>BG V>>BG V>>BG V>>BG V>>BG V>>BG V>>BG V>>BG V>>BG Z=..BIL Z=..BIL Z=..BIL Z=..BIL Z=..BIL Z=..BIL Z=..BIL Z=..BIL Z=..BIL Z=..BIL Z=..BIL Z=..BIL Z=..BIL Z=..BIL Z=..BIL Z=..BIL Z=..BIL Z=..BIL Z=..BIL Z=..BIL Z=..BIL Z=..BIL Z=..BIL Z=..BIL Z=..BIL Z=..BIL Z=..BIL Z=..BIL Z=..BIL Z=..BIL Z=..BIL Z=..BIL Z=..BIL Z=..BIL Z=..BIL Z=..BIL Z=..BIL Z=..BIL Z=..BIL Z=..BIL Z=..BIL Z=..BIL Z=..BIL Z=..BIL Z=..BIL Z=..BIL Z=..BIL Z=..BIL Z=..BIL Z=..BIL Z=..BIL Z=..BIL Z=..BIL Z=..BIL Z=..BIL Z=..BIL Z=..BIL Z=..BIL Z=..BIL Z=..BIL Z=..BIL Z=..BIL Z=..BIL Z=..BIL Z=..BIL Z=..BIL Z=..BIL Z=..BIL Z=..BIL Z=..BIL Z=..BIL Z=..BIL Z=..BIL Z=..BIL Z=..BIL Z=..BIL Z=..BIL Z=..BIL Z=..BIL Z=..BIL Z=..BIL Z=..BIL Z=..BIL Z=..BIL Z=..BIL Z=..BIL Z=..BIL Z=..BIL Z=..BIL Z=..BIL Z=..BIL Z=..BIL Z=..BIL Z=..BIL Z=..BIL Z=..BIL Z=..BIL Z=..BIL Z=..BIL Z=..BIL Z=..BIL Z=..BIL Z=..BIL Z=..BIL Z=..BIL Z=..BIL Z=..BIL Z=..BIL Z=..BIL Z=..BIL Z=..BIL Z=..BIL Z=..BIL Z=..BIL Z=..BIL Z=..BIL Z=..BIL Z=..BIL Z=..BIL Z=..BIL Z=..BIL Z=..BIL Z=..BIL Z=..BIL Z=..BIL Z=..BIL Z=..BIL Z=..BIL Z=..BIL Z=..BIL Z=..BIL Z=..BIL Z=..BIL Z=..BIL Z=..BIL Z=..BIL Z=..BIL Z=..BIL Z=..BIL Z=..BIL Z=..BIL Z=..BIL Z=..BIL Z=..BIL Z=..BIL Z=..BIL Z=..BIL Z=..BIL Z=..BIL Z=..BIL Z=..BIL Z=..BIL Z=..BIL Z=..BIL Z=..BIL Z=..BIL Z=..BIL Z=..BIL Z=..BIL Z=..BIL Z=..BIL Z=..BIL Z=..BIL Z=..BIL Z=..BIL Z=..BIL Z=..BIL Z=..BIL Z=..BIL Z=..BIL Z=..BIL Z=..BIL Z=..BIL Z=..BIL Z=..BIL Z=..BIL Z=..BIL Z=..BIL Z=..BIL Z=..BIL Z=..BIL Z=..BIL Z=..BIL Z=..BIL Z=..BIL Z=..BIL Z=..BIL Z=..BIL Z=..BIL Z=..BIL Z=..BIL Z=..BIL Z=..BIL Z=..BIL Z=..BIL Z=..BIL Z=..BIL Z=..BIL Z=..BIL Z=..BIL Z=..BIL Z=..BIL Z=..BIL Z=..BIL Z=..BIL Z=..BIL Z=..BIL Z=..BIL Z=..BIL Z=..BIL Z=..BIL Z=..BIL Z=..BIL Z=..BIL Z=..BIL Z=..BIL Z=..BIL Z=..BIL Z=..BIL Z=..BIL Z=..BIL Z=..BIL Z=..BIL Z=..BIL Z=..BIL Z=..BIL Z=..BIL Z=..BIL Z=..BIL Z=..BIL Z=..BIL Z=..BIL Z=..BIL Z=..BIL Z=..BIL Z=..BIL Z=..BIL Z=..BIL Z=..BIL Z=..BIL Z=..BIL Z=..BIL Z=..BIL Z=..BIL Z=..BIL Z=..BIL Z=..BIL Z=..BIL Z=..BIL Z=..BIL Z=..BIL Z=..BIL Z=..BIL Z=..BIL Z=..BIL Z=..BIL Z@..BIL Z@..BIL Z@..BIL Z@..BIL Z@..BIL Z@..BIL Z@..BIL Z@..BIL Z@..BIL Z@..BIL Z@..BIL Z@..BIL Z@..BIL Z@..BIL Z@..BIL Z@..BIL Z@..BIL Z@..BIL Z@..BIL Z@..BIL Z@..BIL Z@..BIL Z@..BIL Z@..BIL Z@..BIL Z@..BIL Z@..BIL Z@..BIL Z@..BIL Z@..BIL Z@..BIL Z@..BIL Z@..BIL Z@..BIL Z@..BIL Z@..BIL Z@..BIL Z@..BIL Z@..BIL Z@..BIL Z@..BIL Z@..BIL Z@..BIL Z@..BIL Z@..BIL Z@..BIL Z@..BIL Z@..BIL Z@..BIL Z@..BIL Z@..BIL Z@..BIL Z@..BIL Z@..BIL Z@..BIL Z@..BIL Z@..BIL Z@..BIL Z@..BIL Z@..BIL Z@..BIL Z@..BIL Z@..BIL Z@..BIL Z@..BIL Z@..BIL Z@..BIL Z@..BIL Z@..BIL Z@..BIL Z@..BIL Z@..BIL Z@..BIL Z@..BIL Z@..BIL Z@..BIL Z@..BIL Z@..BIL Z@..BIL Z@..BIL Z@..BIL Z@..BIL Z@..BIL Z@..BIL Z@..BIL Z@..BIL Z@..BIL Z@..BIL Z@..BIL Z@..BIL Z@..BIL Z@..BIL Z@..BIL Z@..BIL Z@..BIL Z@..BIL Z@..BIL Z@..BIL Z@..BIL Z@..BIL Z@..BIL Z@..BIL Z@BIL Z@BIL Z@BIL Z@BIL Z@BIL Z@BIL Z@BIL Z@BIL Z@BIL Z@BIL Z@BIL Z@BIL Z@BIL Z@BIL Z@BIL Z@BIL Z@BIL Z@BIL Z@BIL Z@BIL Z@BIL Z@BIL Z@BIL Z@BIL Z@BIL Z@BIL Z@BIL Z@BIL Z@BIL Z@BIL Z@BIL Z@BIL Z@BIL Z@BIL Z@BIL Z@BIL Z@BIL Z@BIL Z@BIL Z@BIL Z@BIL Z@BIL Z@BIL Z@BIL Z@BIL Z@BIL Z@BIL Z@BIL Z@BIL Z@BIL Z@BIL Z@BIL Z@BIL Z@BIL Z@BIL Z@BIL Z@BIL Z@BIL Z@BIL Z@BIL Z@BIL Z@BIL Z@BIL Z@BIL Z@BIL Z@BIL Z@BIL Z@BIL Z@BIL Z@BIL Z@BIL Z@BIL Z@BIL Z@BIL Z@BIL Z@BIL Z@BIL Z@BIL Z@BIL Z@BIL Z@BIL Z@BIL Z@BIL Z@BIL Z@BIL Z@BIL Z@BIL Z@BIL Z@BIL Z@BIL Z@BIL Z@BIL Z@BIL Z@BIL Z@BIL Z@BIL Z@BIL Z@BIL Z@BIL Z@BIL Z@BIL Z@BIL Z@BIL Z@BIL Z@BIL Z@BIL Z@BIL Z@BIL Z@BIL Z@BIL Z@BIL Z@BIL Z@BIL Z@BIL Z@BIL Z@BIL Z@BIL Z@BIL Z@BIL Z@BIL Z@BIL Z@BIL Z@BIL Z@BIL Z@BIL Z@BIL Z@BIL Z@BIL Z@BIL Z@BIL Z@BIL Z@BIL Z@BIL Z@BIL Z@BIL Z@BIL Z@BIL Z@BIL Z@BIL Z@BIL Z@BIL Z@BIL Z@BIL Z@BIL Z@BIL Z@BIL Z@BIL Z@BIL Z@BIL Z@BIL Z@BIL Z@BIL Z@BIL Z@BIL >//BGJ >//BGJ >//BGJ >//BGJ >//BGJ >//BGJ >//BGJ >//BGJ >//BGJ >//BGJ >//BGJ >//BGJ >//BGJ >//BGJ >//BGJ >//BGJ >//BGJ >//BGJ >//BGJ >//BGJ >//BGJ >//BGJ >//BGJ >//BGJ >//BGJ >//BGJ >//BGJ >//BGJ >//BGJ >//BGJ >//BGJ >//BGJ >//BGJ >//BGJ >//BGJ >//BGJ >//BGJ >//BGJ >//BGJ >//BGJ >//BGJ >//BGJ >//BGJ >//BGJ >//BGJ >//BGJ >//BGJ >//BGJ >//BGJ >//BGJ >//BGJ >//BGJ >//BGJ >//BGJ >//BGJ >//BGJ >//BGJ >//BGJ >//BGJ >//BGJ >//BGJ >//BGJ >//BGJ >//BGJ >//BGJ >//BGJ >//BGJ >//BGJ >//BGJ >//BGJ >//BGJ >//BGJ >//BGJ >//BGJ >//BGJ >//BGJ >//BGJ >//BGJ >//BGJ >//BGJ >//BGJ >//BGJ >//BGJ >//BGJ >//BGJ >//BGJ >//BGJ >//BGJ >//BGJ >//BGJ >//BGJ >//BGJ >//BGJ >//BGJ >//BGJ >//BGJ >//BGJ >//BGJ >//BGJ >//BGJ >//BGJ >//BGJ >//BGJ >//BGJ >//BGJ >//BGJ >//BGJ >//BGJ >//BGJ >//BGJ >//BGJ >//BGJ >//BGJ >//BGJ >//BGJ >//BGJ >//BGJ >//BGJ >//BGJ >//BGJ >//BGJ >//BGJ >//BGJ >//BGJ >//BGJ >//BGJ >//BGJ >//BGJ >//BGJ >//BGJ >//BGJ >//BGJ >//BGJ >//BGJ >//BGJ >//BGJ >//BGJ >//BGJ >//BGJ >//BGJ >//BGJ >//BGJ >//BGJ >//BGJ >//BGJ >//BGJ >//BGJ >//BGJ >//BGJ >//BGJ >//BGJ >//BGJ >//BGJ >//BGJ >//BGJ >//BGJ >//BGJ >//BGJ >//BGJ >//BGJ >//BGJ >//BGJ >//BGJ >//BGJ >//BGJ >//BGJ >//BGJ >//BGJ >//BGJ >//BGJ >//BGJ >//BGJ >//BGJ >//BGJ >//BGJ >//BGJ >//BGJ >//BGJ >//BGJ >//BGJ >//BGJ >//BGJ >//BGJ >//BGJ >//BGJ >//BGJ >//BGJ >//BGJ >//BGJ >//BGJ >//BGJ >//BGJ >//BGJ >//BGJ >//BGJ >//BGJ >//BGJ >//BGJ >//BGJ >//BGJ >//BGJ >//BGJ >//BGJ >//BGJ >//BGJ >//BGJ >//BGJ >//BGJ >//BGJ >//BGJ >//BGJ >//BGJ >//BGJ >//BGJ >//BGJ >//BGJ >//BGJ >//BGJ >//BGJ >//BGJ >//BGJ >//BGJ >//BGJ >//BGJ >//BGJ >//BGJ >//BGJ >//BGJ >//BGJ >//BGJ >//BGJ >//BGJ >//BGJ >//BGJ >//BGJ >//BGJ >//BGJ >//BGJ >//BGJ >//BGJ >//BGJ >//BGJ >//BGJ >//BGJ >//BGJ >//BGJ >//BGJ >//BGJ >//BGJ >//BGJ >//BGJ >//BGJ >//BGJ >//BGJ >//BGJ >//BGJ >//BGJ >//BGJ >//BGJ >//BGJ >//BGJ >//BGJ >//BGJ >//BGJ >//BGJ >//BGJ >//BGJ >//BGJ >//BGJ >//BGJ >//BGJ >//BGJ >//BGJ >//BGJ >//BGJ >//BGJ >//BGJ >//BGJ >//BGJ >//BGJ >//BGJ >//BGJ >//BGJ >//BGJ >//BGJ >//BGJ >//BGJ >//BGJ >//BGJ >//BGJ >//BGJ >//BGJ >//BGJ >//BGJ >//BGJ >//BGJ >//BGJ >//BGJ >//BGJ >//BGJ >//BGJ >//BGJ >//BGJ >//BGJ >//BGJ >//BGJ >//BGJ >//BGJ >//BGJ >//BGJ >//BGJ >//BGJ >//BGJ >//BGJ >//BGJ >//BGJ >//BGJ >//BGJ >//BGJ >//BGJ >//BGJ >//BGJ >//BGJ >//BGJ >//BGJ >//BGJ >//BGJ >//BGJ >//BGJ >//BGJ >//BGJ >//BGJ >//BGJ >//BGJ >//BGJ >//BGJ >//BGJ >//BGJ >//BGJ >//BGJ >//BGJ >//BGJ >//BGJ >//BGJ >//BGJ >//BGJ >//BGJ >//BGJ >//BGJ >//BGJ >//BGJ >//BGJ >//BGJ >//BGJ >//BGJ >//BGJ >//BGJ >//BGJ >BGJ >BGJ >BGJ >BGJ >BGJ >BGJ >BGJ >BGJ >BGJ >BGJ >BGJ >BGJ >BGJ >BGJ >BGJ >BGJ >BGJ >BGJ >BGJ >BGJ >BGJ >BGJ >BGJ >BGJ >BGJ >BGJ >BGJ >BGJ >BGJ >BGJ >BGJ >BGJ >BGJ >BGJ >BGJ >BGJ >BGJ >BGJ >BGJ >BGJ >BGJ >BGJ >BGJ >BGJ >BGJ >BGJ >BGJ >BGJ >BGJ >BGJ >BGJ >BGJ >BGJ >BGJ >BGJ >BGJ >BGJ >BGJ >BGJ >BGJ >BGJ >BGJ >BGJ >BGJ >BGJ >BGJ >BGJ >BGJ >BGJ >BGJ >BGJ >BGJ >BGJ >BGJ >BGJ >BGJ >BGJ >BGJ >BGJ >BGJ >BGJ >BGJ >BGJ >BGJ >BGJ >BGJ >BGJ >BGJ >BGJ >BGJ >BGJ >BGJ >BGJ >BGJ >BGJ >BGJ >BGJ >BGJ >BGJ >BGJ >BGJ >BGJ >BGJ >BGJ >BGJ >BGJ >BGJ >BGJ >BGJ >BGJ >BGJ >BGJ >BGJ >BGJ >BGJ >BGJ >BGJ >BGJ >BGJ >BGJ >BGJ >BGJ >BGJ >BGJ >BGJ >BGJ >BGJ >BGJ >BGJ >BGJ >BGJ >BGJ >BGJ >BGJ >BGJ >BGJ >BGJ >BGJ >BGJ >BGJ >BGJ >BGJ >BGJ >BGJ >BGJ >BGJ >BGJ >BGJ >BGJ >BGJ >BGJ >BGJ >BGJ >BGJ =**:B =**:B =**:B =**:B =**:B =**:B =**:B =**:B =**:B =**:B =**:B =**:B =**:B =**:B =**:B =**:B =**:B =**:B =**:B =**:B =**:B =**:B =**:B =**:B =**:B =**:B =**:B =**:B =**:B =**:B =**:B =**:B =**:B =**:B =**:B =**:B =**:B =**:B =**:B =**:B =**:B =**:B =**:B =**:B =**:B =**:B =**:B =**:B =**:B =**:B =**:B =**:B =**:B =**:B =**:B =**:B =**:B =**:B =**:B =**:B =**:B =**:B =**:B =**:B =**:B =**:B =**:B =**:B =**:B =**:B =**:B =**:B =**:B =**:B =**:B =**:B =**:B =**:B =**:B =**:B =**:B =**:B =**:B =**:B =**:B =**:B =**:B =**:B =**:B =**:B =**:B =**:B =**:B =**:B =**:B =**:B =**:B =**:B =**:B =**:B =**:B =**:B =**:B =**:B =**:B =**:B =**:B =**:B =**:B =**:B =**:B =**:B =**:B =**:B =**:B =**:B =**:B =**:B =**:B =**:B =**:B =**:B =**:B =**:B =**:B =**:B =**:B =**:B =**:B =**:B =**:B =**:B =**:B =**:B =**:B =**:B =**:B =**:B =**:B =**:B =**:B =**:B =**:B =**:B =**:B =**:B =**:B =**:B =**:B =**:B =**:B =**:B =**:B =**:B =**:B =**:B =**:B =**:B =**:B =**:B =**:B =**:B =**:B =**:B =**:B =**:B =**:B =**:B =**:B =**:B =**:B =**:B =**:B =**:B =**:B =**:B =**:B =**:B =**:B =**:B =**:B =**:B =**:B =**:B =**:B =**:B =**:B =**:B =**:B =**:B =**:B =**:B =**:B =**:B =**:B =**:B =**:B =**:B =**:B =**:B =**:B =**:B =**:B =**:B =**:B =**:B =**:B =**:B =**:B =**:B =**:B =**:B =**:B =**:B =**:B =**:B =**:B =**:B =**:B =**:B =**:B =**:B =**:B =**:B =**:B =**:B =**:B =**:B =**:B =**:B =**:B =**:B =**:B =**:B =**:B =**:B =**:B =**:B =**:B =**:B =**:B =**:B =**:B =**:B =**:B =**:B =**:B =**:B =**:B =**:B =**:B =**:B =**:B =**:B =**:B =**:B L=**:B L=**:B L=**:B L=**:B L=**:B L=**:B L=**:B L=**:B L=**:B L=**:B L=**:B L=**:B L=**:B L=**:B L=**:B L=**:B L=**:B L=**:B L=**:B L=**:B L=**:B L=**:B L=**:B L=**:B L=**:B L=**:B L=**:B L=**:B L=**:B L=**:B L=**:B L=**:B L=**:B L=**:B L=**:B L=**:B L=**:B L=**:B L=**:B L=**:B L=**:B L=**:B L=**:B L=**:B L=**:B L=**:B L=**:B L=**:B L=**:B L=**:B L=**:B L=**:B L=**:B L=**:B L=**:B L=**:B L=**:B L=**:B L=**:B L=**:B L=**:B L=**:B L=**:B L=**:B L=**:B L=**:B L=**:B L=**:B L=**:B L=**:B L=**:B L=**:B L=**:B L=**:B L=**:B L=**:B L=**:B L=**:B L=**:B L=**:B L=**:B L=**:B L=**:B L=**:B L=**:B L=**:B L=**:B L=**:B L=**:B L=**:B L=**:B L=**:B L=**:B L=**:B L=**:B L=**:B L=**:B L=**:B L=**:B L=**:B L=**:B L=**:B L=:B L=:B L=:B L=:B L=:B L=:B L=:B L=:B L=:B L=:B L=:B L=:B L=:B L=:B L=:B L=:B L=:B L=:B L=:B L=:B L=:B L=:B L=:B L=:B L=:B L=:B L=:B L=:B L=:B L=:B L=:B L=:B L=:B L=:B L=:B L=:B L=:B L=:B L=:B L=:B L=:B L=:B L=:B L=:B L=:B L=:B L=:B L=:B L=:B L=:B L=:B L=:B L=:B L=:B L=:B L=:B L=:B L=:B L=:B L=:B L=:B L=:B L=:B L=:B L=:B L=:B L=:B L=:B L=:B L=:B L=:B L=:B L=:B L=:B L=:B L=:B L=:B L=:B L=:B L=:B L=:B L=:B L=:B L=:B L=:B L=:B L=:B L=:B L=:B L=:B L=:B L=:B L=:B L=:B L=:B L=:B L=:B L=:B L=:B L=:B L=:B L=:B L=:B L=:B L=:B L=:B L=:B L=:B L=:B L=:B L=:B L=:B L=:B L=:B L=:B L=:B L=:B L=:B L=:B L=:B L=:B L=:B L=:B L=:B L=:B L=:B L=:B L=:B L=:B L=:B L=:B L=:B L=:B L=:B L=:B L=:B L=:B L=:B L=:B L=:B L=:B L=:B L=:B L=:B L=:B L=:B L=:B L=:B L=:B L=:B L=:B L=:B L=:B L=:B J:**B@ J:**B@ J:**B@ J:**B@ J:**B@ J:**B@ J:**B@ J:**B@ J:**B@ J:**B@ J:**B@ J:**B@ J:**B@ J:**B@ J:**B@ J:**B@ J:**B@ J:**B@ J:**B@ J:**B@ J:**B@ J:**B@ J:**B@ J:**B@ J:**B@ J:**B@ J:**B@ J:**B@ J:**B@ J:**B@ J:**B@ J:**B@ J:**B@ J:**B@ J:**B@ J:**B@ J:**B@ J:**B@ J:**B@ J:**B@ J:**B@ J:**B@ J:**B@ J:**B@ J:**B@ J:**B@ J:**B@ J:**B@ J:**B@ J:**B@ J:**B@ J:**B@ J:**B@ J:**B@ J:**B@ J:**B@ J:**B@ J:**B@ J:**B@ J:**B@ J:**B@ J:**B@ J:**B@ J:**B@ J:**B@ J:**B@ J:**B@ J:**B@ J:**B@ J:**B@ J:**B@ J:**B@ J:**B@ J:**B@ J:**B@ J:**B@ J:**B@ J:**B@ J:**B@ J:**B@ J:**B@ J:**B@ J:**B@ J:**B@ J:**B@ J:**B@ J:**B@ J:**B@ J:**B@ J:**B@ J:**B@ J:**B@ J:**B@ J:**B@ J:**B@ J:**B@ J:**B@ J:**B@ J:**B@ J:**B@ J:**B@ J:**B@ J:**B@ J:**B@ J:**B@ J:**B@ J:**B@ J:**B@ J:**B@ J:**B@ J:**B@ J:**B@ J:**B@ J:**B@ J:**B@ J:**B@ J:**B@ J:**B@ J:**B@ J:**B@ J:**B@ J:**B@ J:**B@ J:**B@ J:**B@ J:**B@ J:**B@ J:**B@ J:**B@ J:**B@ J:**B@ J:**B@ J:**B@ J:**B@ J:**B@ J:**B@ J:**B@ J:**B@ J:**B@ J:**B@ J:**B@ J:**B@ J:**B@ J:**B@ J:**B@ J:**B@ J:**B@ J:**B@ J:**B@ J:**B@ J:**B@ J:**B@ J:**B@ J:**B@ J:**B@ J:**B@ J:**B@ J:**B@ J:**B@ J:**B@ J:**B@ J:**B@ J:**B@ J:**B@ J:**B@ J:**B@ J:**B@ J:**B@ J:**B@ J:**B@ J:**B@ J:**B@ J:**B@ J:**B@ J:**B@ J:**B@ J:**B@ J:**B@ J:**B@ J:**B@ J:**B@ J:**B@ J:**B@ J:**B@ J:**B@ J:**B@ J:**B@ J:**B@ J:**B@ J:**B@ J:**B@ J:**B@ J:**B@ J:**B@ J:**B@ J:**B@ J:**B@ J:**B@ J:**B@ J:**B@ J:**B@ J:**B@ J:**B@ J:**B@ J:**B@ J:**B@ J:**B@ J:**B@ J:**B@ J:**B@ J:**B@ J:**B@ J:**B@ J:**B@ J:**B@ J:**B@ J:**B@ J:**B@ J:**B@ J:**B@ J:**B@ J:**B@ J:**B@ J:**B@ J:**B@ J:**B@ J:**B@ J:**B@ J:**B@ J:**B@ J:**B@ J:**B@ J:**B@ J:**B@ J:**B@ J:**B@ J:**B@ J:**B@ J:**B@ J:**B@ J:**B@ J:**B@ J:**B@ J:**B@ J:**B@ J:**B@ J:**B@ J:**B@ J:**B@ J:**B@ J:**B@ J:**B@ J:**B@ J:**B@ J:**B@ J:**B@ I:**B@ I:**B@ I:**B@ I:**B@ I:**B@ I:**B@ I:**B@ I:**B@ I:**B@ I:**B@ I:**B@ I:**B@ I:**B@ I:**B@ I:**B@ I:**B@ I:**B@ I:**B@ I:**B@ I:**B@ I:**B@ I:**B@ I:**B@ I:**B@ I:**B@ I:**B@ I:**B@ I:**B@ I:**B@ I:**B@ I:**B@ I:**B@ I:**B@ I:**B@ I:**B@ I:**B@ I:**B@ I:**B@ I:**B@ I:**B@ I:**B@ I:**B@ I:**B@ I:**B@ I:**B@ I:**B@ I:**B@ I:**B@ I:**B@ I:**B@ I:**B@ I:**B@ I:**B@ I:**B@ I:**B@ I:**B@ I:**B@ I:**B@ I:**B@ I:**B@ I:**B@ I:**B@ I:**B@ I:**B@ I:**B@ I:**B@ I:**B@ I:**B@ I:**B@ I:**B@ I:**B@ I:**B@ I:**B@ I:**B@ I:**B@ I:**B@ I:**B@ I:**B@ I:**B@ I:**B@ I:**B@ I:**B@ I:**B@ I:**B@ I:**B@ I:**B@ I:**B@ I:**B@ I:**B@ I:**B@ I:**B@ I:**B@ I:**B@ I:**B@ I:**B@ I:**B@ I:**B@ I:**B@ I:**B@ I:**B@ I:**B@ I:**B@ I:B@ I:B@ I:B@ I:B@ I:B@ I:B@ I:B@ I:B@ I:B@ I:B@ I:B@ I:B@ I:B@ I:B@ I:B@ I:B@ I:B@ I:B@ I:B@ I:B@ I:B@ I:B@ I:B@ I:B@ I:B@ I:B@ I:B@ I:B@ I:B@ I:B@ I:B@ I:B@ I:B@ I:B@ I:B@ I:B@ I:B@ I:B@ I:B@ I:B@ I:B@ I:B@ I:B@ I:B@ I:B@ I:B@ I:B@ I:B@ I:B@ I:B@ I:B@ I:B@ I:B@ I:B@ I:B@ I:B@ I:B@ I:B@ I:B@ I:B@ I:B@ I:B@ I:B@ I:B@ I:B@ I:B@ I:B@ I:B@ I:B@ I:B@ I:B@ I:B@ I:B@ I:B@ I:B@ I:B@ I:B@ I:B@ I:B@ I:B@ I:B@ I:B@ I:B@ I:B@ I:B@ I:B@ I:B@ I:B@ I:B@ I:B@ I:B@ I:B@ I:B@ I:B@ I:B@ I:B@ I:B@ I:B@ I:B@ I:B@ I:B@ I:B@ I:B@ I:B@ I:B@ I:B@ I:B@ I:B@ I:B@ I:B@ I:B@ I:B@ I:B@ I:B@ I:B@ I:B@ I:B@ I:B@ I:B@ I:B@ I:B@ I:B@ I:B@ I:B@ I:B@ I:B@ I:B@ I:B@ I:B@ I:B@ I:B@ I:B@ I:B@ I:B@ I:B@ I:B@ I:B@ I:B@ I:B@ I:B@ I:B@ I:B@ I:B@ I:B@ I:B@ I:B@ I:B@ I:B@ I:B@ I:B@ I:B@ I:B@ I:B@ I:B@ J6**>BG J6**>BG J6**>BG J6**>BG J6**>BG J6**>BG J6**>BG J6**>BG J6**>BG J6**>BG J6**>BG J6**>BG J6**>BG J6**>BG J6**>BG J6**>BG J6**>BG J6**>BG J6**>BG J6**>BG J6**>BG J6**>BG J6**>BG J6**>BG J6**>BG J6**>BG J6**>BG J6**>BG J6**>BG J6**>BG J6**>BG J6**>BG J6**>BG J6**>BG J6**>BG J6**>BG J6**>BG J6**>BG J6**>BG J6**>BG J6**>BG J6**>BG J6**>BG J6**>BG J6**>BG J6**>BG J6**>BG J6**>BG J6**>BG J6**>BG J6**>BG J6**>BG J6**>BG J6**>BG J6**>BG J6**>BG J6**>BG J6**>BG J6**>BG J6**>BG J6**>BG J6**>BG J6**>BG J6**>BG J6**>BG J6**>BG J6**>BG J6**>BG J6**>BG J6**>BG J6**>BG J6**>BG J6**>BG J6**>BG J6**>BG J6**>BG J6**>BG J6**>BG J6**>BG J6**>BG J6**>BG J6**>BG J6**>BG J6**>BG J6**>BG J6**>BG J6**>BG J6**>BG J6**>BG J6**>BG J6**>BG J6**>BG J6**>BG J6**>BG J6**>BG J6**>BG J6**>BG J6**>BG J6**>BG J6**>BG J6**>BG J6**>BG J6**>BG J6**>BG J6**>BG J6**>BG J6**>BG J6**>BG J6**>BG J6**>BG J6**>BG J6**>BG J6**>BG J6**>BG J6**>BG J6**>BG J6**>BG J6**>BG J6**>BG J6**>BG J6**>BG J6**>BG J6**>BG J6**>BG J6**>BG J6**>BG J6**>BG J6**>BG J6**>BG J6**>BG J6**>BG J6**>BG J6**>BG J6**>BG J6**>BG J6**>BG J6**>BG J6**>BG J6**>BG J6**>BG J6**>BG J6**>BG J6**>BG J6**>BG J6**>BG J6**>BG J6**>BG J6**>BG J6**>BG J6**>BG J6**>BG J6**>BG J6**>BG J6**>BG J6**>BG J6**>BG J6**>BG J6**>BG J6**>BG J6**>BG J6**>BG J6**>BG J6**>BG J6**>BG J6**>BG J6**>BG J6**>BG J6**>BG J6**>BG J6**>BG J6**>BG J6**>BG J6**>BG J6**>BG J6**>BG J6**>BG J6**>BG J6**>BG J6**>BG 6**>BG 6**>BG 6**>BG 6**>BG 6**>BG 6**>BG 6**>BG 6**>BG 6**>BG 6**>BG 6**>BG 6**>BG 6**>BG 6**>BG 6**>BG 6**>BG 6**>BG 6**>BG 6**>BG 6**>BG 6**>BG 6**>BG 6**>BG 6**>BG 6**>BG 6**>BG 6**>BG 6**>BG 6**>BG 6**>BG 6**>BG 6**>BG 6**>BG 6**>BG 6**>BG 6**>BG 6**>BG 6**>BG 6**>BG 6**>BG 6**>BG 6**>BG 6**>BG 6**>BG 6**>BG 6**>BG 6**>BG 6**>BG 6**>BG 6**>BG 6**>BG 6**>BG 6**>BG 6**>BG 6**>BG 6**>BG 6**>BG 6**>BG 6**>BG 6**>BG 6**>BG 6**>BG 6**>BG 6**>BG 6**>BG 6**>BG 6**>BG 6**>BG 6**>BG 6**>BG 6**>BG 6**>BG 6**>BG 6**>BG 6**>BG 6**>BG 6**>BG I6**>BG I6**>BG I6**>BG I6**>BG I6**>BG I6**>BG I6**>BG I6**>BG I6**>BG I6**>BG I6**>BG I6**>BG I6**>BG I6**>BG I6**>BG I6**>BG I6**>BG I6**>BG I6**>BG I6**>BG I6**>BG I6**>BG I6**>BG I6**>BG I6**>BG I6**>BG I6**>BG I6**>BG I6**>BG I6**>BG I6**>BG I6**>BG I6**>BG I6**>BG I6**>BG I6**>BG I6**>BG I6**>BG I6**>BG I6**>BG I6**>BG I6**>BG I6**>BG I6**>BG I6**>BG I6**>BG I6**>BG I6**>BG I6**>BG I6**>BG I6**>BG I6**>BG I6**>BG I6**>BG I6**>BG I6**>BG I6**>BG I6**>BG I6**>BG I6**>BG I6**>BG I6**>BG I6**>BG I6**>BG I6**>BG I6**>BG I6**>BG I6**>BG I6**>BG I6**>BG I6**>BG I6**>BG I6**>BG I6**>BG I6**>BG I6**>BG I6**>BG I6**>BG I6**>BG I6**>BG I6**>BG I6**>BG I6**>BG I6**>BG I6**>BG I6**>BG I6**>BG I6**>BG I6**>BG I6**>BG I6**>BG I6**>BG I6**>BG I6**>BG I6**>BG I6**>BG I6**>BG I6**>BG I6**>BG I6**>BG I6**>BG I6**>BG I6>BG I6>BG I6>BG I6>BG I6>BG I6>BG I6>BG I6>BG I6>BG I6>BG I6>BG I6>BG I6>BG I6>BG I6>BG I6>BG I6>BG I6>BG I6>BG I6>BG I6>BG I6>BG I6>BG I6>BG I6>BG I6>BG I6>BG I6>BG I6>BG I6>BG I6>BG I6>BG I6>BG I6>BG I6>BG I6>BG I6>BG I6>BG I6>BG I6>BG I6>BG I6>BG I6>BG I6>BG I6>BG I6>BG I6>BG I6>BG I6>BG I6>BG I6>BG I6>BG I6>BG I6>BG I6>BG I6>BG I6>BG I6>BG I6>BG I6>BG I6>BG I6>BG I6>BG I6>BG I6>BG I6>BG I6>BG I6>BG I6>BG I6>BG I6>BG I6>BG I6>BG I6>BG I6>BG I6>BG I6>BG I6>BG I6>BG I6>BG I6>BG I6>BG I6>BG I6>BG I6>BG I6>BG I6>BG I6>BG I6>BG I6>BG I6>BG I6>BG I6>BG I6>BG I6>BG I6>BG I6>BG I6>BG I6>BG I6>BG I6>BG I6>BG I6>BG I>BG I>BG I>BG I>BG I>BG I>BG I>BG I>BG I>BG I>BG I>BG I>BG I>BG I>BG I>BG I>BG I>BG I>BG I>BG I>BG I>BG I>BG I>BG I>BG I>BG I>BG I>BG I>BG I>BG I>BG I>BG I>BG I>BG I>BG I>BG I>BG I>BG I>BG I>BG I>BG I>BG I>BG I>BG I>BG I>BG I>BG I>BG I>BG I>BG I>BG I>BG G>**>BG G>**>BG G>**>BG G>**>BG G>**>BG G>**>BG G>**>BG G>**>BG G>**>BG G>**>BG G>**>BG G>**>BG G>**>BG G>**>BG G>**>BG G>**>BG G>**>BG G>**>BG G>**>BG G>**>BG G>**>BG G>**>BG G>**>BG G>**>BG G>**>BG G>**>BG G>**>BG G>**>BG G>**>BG G>**>BG G>**>BG G>**>BG G>**>BG G>**>BG G>**>BG G>**>BG G>**>BG G>**>BG G>**>BG G>**>BG G>**>BG G>**>BG G>**>BG G>**>BG G>**>BG G>**>BG G>**>BG G>**>BG G>**>BG G>**>BG G>**>BG G>**>BG G>**>BG G>**>BG G>**>BG G>**>BG G>**>BG G>**>BG G>**>BG G>**>BG G>**>BG G>**>BG G>**>BG G>**>BG G>**>BG G>**>BG G>**>BG G>**>BG G>**>BG G>**>BG G>**>BG G>**>BG G>**>BG G>**>BG G>**>BG G>**>BG G>**>BG G>**>BG G>**>BG G>**>BG G>**>BG G>**>BG G>**>BG G>**>BG G>**>BG G>**>BG G>**>BG G>**>BG G>**>BG G>**>BG G>**>BG G>**>BG G>**>BG G>**>BG G>**>BG G>**>BG G>**>BG G>**>BG G>**>BG G>**>BG G>**>BG G>**>BG G>**>BG G>**>BG G>**>BG G>**>BG G>**>BG G>**>BG G>**>BG G>**>BG G>**>BG G>**>BG G>**>BG G>**>BG G>**>BG G>**>BG G>**>BG G>**>BG G>**>BG G>**>BG G>**>BG G>**>BG G>**>BG G>**>BG G>**>BG G>**>BG G>**>BG G>**>BG G>**>BG G>**>BG G>**>BG G>**>BG G>**>BG G>**>BG G>**>BG G>**>BG G>**>BG G>**>BG G>**>BG G>**>BG G>**>BG G>**>BG G>**>BG G>**>BG G>**>BG G>**>BG G>**>BG G>**>BG G>**>BG G>**>BG G>**>BG G>**>BG G>**>BG G>**>BG G>**>BG G>**>BG G>**>BG G>**>BG G>**>BG G>**>BG G>**>BG G>**>BG G>**>BG G>**>BG G>**>BG G>**>BG G>**>BG G>**>BG G>**>BG G>**>BG G>**>BG G>**>BG G>**>BG G>**>BG G>**>BG G>**>BG G>**>BG G>**>BG G>**>BG G>**>BG G>**>BG G>**>BG G>**>BG G>**>BG G>**>BG G>**>BG G>**>BG G>**>BG G>**>BG G>**>BG G>**>BG G>**>BG G>**>BG G>**>BG G>**>BG G>**>BG G>**>BG G>**>BG G>**>BG G>**>BG G>**>BG G>**>BG G>**>BG G>**>BG G>**>BG G>**>BG G>**>BG G>**>BG G>**>BG G>**>BG G>**>BG G>**>BG G>**>BG G>**>BG G>**>BG G>**>BG G>**>BG G>**>BG G>**>BG G>**>BG G>**>BG G>**>BG G>**>BG G>**>BG G>**>BG G>**>BG G>**>BG G>**>BG G>**>BG G>**>BG G>**>BG G>**>BG G>**>BG G>**>BG G>**>BG G>**>BG G>**>BG G>**>BG G>**>BG G>**>BG G>**>BG G>**>BG G>**>BG G>**>BG G>**>BG G>**>BG G>**>BG G>**>BG G>**>BG G>**>BG G>**>BG G>**>BG G>**>BG G>**>BG G>**>BG G>**>BG F>**>BG F>**>BG F>**>BG F>**>BG F>**>BG F>**>BG F>**>BG F>**>BG F>**>BG F>**>BG F>**>BG F>**>BG F>**>BG F>**>BG F>**>BG F>**>BG F>**>BG F>**>BG F>**>BG F>**>BG F>**>BG F>**>BG F>**>BG F>**>BG F>**>BG F>**>BG F>**>BG F>**>BG F>**>BG F>**>BG F>**>BG F>**>BG F>**>BG F>**>BG F>**>BG F>**>BG F>**>BG F>**>BG F>**>BG F>**>BG F>**>BG F>**>BG F>**>BG F>**>BG F>**>BG F>**>BG F>**>BG F>**>BG F>**>BG F>**>BG F>**>BG F>**>BG F>**>BG F>**>BG F>**>BG F>**>BG F>**>BG F>**>BG F>**>BG F>**>BG F>**>BG F>**>BG F>**>BG F>**>BG F>**>BG F>**>BG F>**>BG F>**>BG F>**>BG F>**>BG F>**>BG F>**>BG F>**>BG F>**>BG F>**>BG F>**>BG F>**>BG F>**>BG F>**>BG F>**>BG F>**>BG F>**>BG F>**>BG F>**>BG F>**>BG F>**>BG F>**>BG F>**>BG F>**>BG F>**>BG F>**>BG F>**>BG F>**>BG F>**>BG F>**>BG F>**>BG F>**>BG F>**>BG F>**>BG F>**>BG F>**>BG F>**>BG F>>BG F>>BG F>>BG F>>BG F>>BG F>>BG F>>BG F>>BG F>>BG F>>BG F>>BG F>>BG F>>BG F>>BG F>>BG F>>BG F>>BG F>>BG F>>BG F>>BG F>>BG F>>BG F>>BG F>>BG F>>BG F>>BG F>>BG F>>BG F>>BG F>>BG F>>BG F>>BG F>>BG F>>BG F>>BG F>>BG F>>BG F>>BG F>>BG F>>BG F>>BG F>>BG F>>BG F>>BG F>>BG F>>BG F>>BG F>>BG F>>BG F>>BG F>>BG F>>BG F>>BG F>>BG F>>BG F>>BG F>>BG F>>BG F>>BG F>>BG F>>BG F>>BG F>>BG F>>BG F>>BG F>>BG F>>BG F>>BG F>>BG F>>BG F>>BG F>>BG F>>BG F>>BG F>>BG F>>BG F>>BG F>>BG F>>BG F>>BG F>>BG F>>BG F>>BG F>>BG F>>BG F>>BG F>>BG F>>BG F>>BG F>>BG F>>BG F>>BG F>>BG F>>BG F>>BG F>>BG F>>BG F>>BG F>>BG F>>BG F>>BG F>>BG F>>BG F>>BG F>>BG F>>BG F>>BG F>>BG F>>BG F>>BG F>>BG F>>BG F>>BG F>>BG F>>BG F>>BG F>>BG F>>BG F>>BG F>>BG F>>BG F>>BG F>>BG F>>BG F>>BG F>>BG F>>BG F>>BG F>>BG F>>BG F>>BG F>>BG F>>BG F>>BG F>>BG F>>BG F>>BG F>>BG F>>BG F>>BG F>>BG F>>BG F>>BG F>>BG F>>BG F>>BG F>>BG F>>BG F>>BG F>>BG F>>BG F>>BG F>>BG F>>BG I@**=BF I@**=BF I@**=BF I@**=BF I@**=BF I@**=BF I@**=BF I@**=BF I@**=BF I@**=BF I@**=BF I@**=BF I@**=BF I@**=BF I@**=BF I@**=BF I@**=BF I@**=BF I@**=BF I@**=BF I@**=BF I@**=BF I@**=BF I@**=BF I@**=BF I@**=BF I@**=BF I@**=BF I@**=BF I@**=BF I@**=BF I@**=BF I@**=BF I@**=BF I@**=BF I@**=BF I@**=BF I@**=BF I@**=BF I@**=BF I@**=BF I@**=BF I@**=BF I@**=BF I@**=BF I@**=BF I@**=BF I@**=BF I@**=BF I@**=BF I@**=BF I@**=BF I@**=BF I@**=BF I@**=BF I@**=BF I@**=BF I@**=BF I@**=BF I@**=BF I@**=BF I@**=BF I@**=BF I@**=BF I@**=BF I@**=BF I@**=BF I@**=BF I@**=BF I@**=BF I@**=BF I@**=BF I@**=BF I@**=BF I@**=BF I@**=BF I@**=BF I@**=BF I@**=BF I@**=BF I@**=BF I@**=BF I@**=BF I@**=BF I@**=BF I@**=BF I@**=BF I@**=BF I@**=BF I@**=BF I@**=BF I@**=BF I@**=BF I@**=BF I@**=BF I@**=BF I@**=BF I@**=BF I@**=BF I@**=BF I@**=BF I@**=BF I@**=BF I@**=BF I@**=BF I@**=BF I@**=BF I@**=BF I@**=BF I@**=BF I@**=BF I@**=BF I@**=BF I@**=BF I@**=BF I@**=BF I@**=BF I@**=BF I@**=BF I@**=BF I@**=BF I@**=BF I@**=BF I@**=BF I@**=BF I@**=BF I@**=BF I@**=BF I@**=BF I@**=BF I@**=BF I@**=BF I@**=BF I@**=BF I@**=BF I@**=BF I@**=BF I@**=BF I@**=BF I@**=BF I@**=BF I@**=BF I@**=BF I@**=BF I@**=BF I@**=BF I@**=BF I@**=BF I@**=BF I@**=BF I@**=BF I@**=BF I@**=BF I@**=BF I@**=BF I@**=BF I@**=BF I@**=BF I@**=BF I@**=BF I@**=BF I@**=BF I@**=BF I@**=BF I@**=BF I@**=BF I@**=BF I@**=BF I@**=BF I@**=BF I@**=BF I@**=BF I@**=BF I@**=BF I@**=BF I@**=BF I@**=BF I@**=BF I@**=BF @**=BF @**=BF @**=BF @**=BF @**=BF @**=BF @**=BF @**=BF @**=BF @**=BF @**=BF @**=BF @**=BF @**=BF @**=BF @**=BF @**=BF @**=BF @**=BF @**=BF @**=BF @**=BF @**=BF @**=BF @**=BF @**=BF @**=BF @**=BF @**=BF @**=BF @**=BF @**=BF @**=BF @**=BF @**=BF @**=BF @**=BF @**=BF @**=BF @**=BF @**=BF @**=BF @**=BF @**=BF @**=BF @**=BF @**=BF @**=BF @**=BF @**=BF @**=BF @**=BF @**=BF @**=BF @**=BF @**=BF @**=BF @**=BF @**=BF @**=BF @**=BF @**=BF @**=BF @**=BF @**=BF @**=BF @**=BF @**=BF @**=BF @**=BF @**=BF @**=BF @**=BF @**=BF @**=BF @**=BF @**=BF G>**=BF G>**=BF G>**=BF G>**=BF G>**=BF G>**=BF G>**=BF G>**=BF G>**=BF G>**=BF G>**=BF G>**=BF G>**=BF G>**=BF G>**=BF G>**=BF G>**=BF G>**=BF G>**=BF G>**=BF G>**=BF G>**=BF G>**=BF G>**=BF G>**=BF G>**=BF G>**=BF G>**=BF G>**=BF G>**=BF G>**=BF G>**=BF G>**=BF G>**=BF G>**=BF G>**=BF G>**=BF G>**=BF G>**=BF G>**=BF G>**=BF G>**=BF G>**=BF G>**=BF G>**=BF G>**=BF G>**=BF G>**=BF G>**=BF G>**=BF G>**=BF G>**=BF G>**=BF G>**=BF G>**=BF G>**=BF G>**=BF G>**=BF G>**=BF G>**=BF G>**=BF G>**=BF G>**=BF G>**=BF G>**=BF G>**=BF G>**=BF G>**=BF G>**=BF G>**=BF G>**=BF G>**=BF G>**=BF G>**=BF G>**=BF G>**=BF G>**=BF G>**=BF G>**=BF G>**=BF G>**=BF G>**=BF G>**=BF G>**=BF G>**=BF G>**=BF G>**=BF G>**=BF G>**=BF G>**=BF G>**=BF G>**=BF G>**=BF G>**=BF G>**=BF G>**=BF G>**=BF G>**=BF G>**=BF G>**=BF G>**=BF G>**=BF G>=BF G>=BF G>=BF G>=BF G>=BF G>=BF G>=BF G>=BF G>=BF G>=BF G>=BF G>=BF G>=BF G>=BF G>=BF G>=BF G>=BF G>=BF G>=BF G>=BF G>=BF G>=BF G>=BF G>=BF G>=BF G>=BF G>=BF G>=BF G>=BF G>=BF G>=BF G>=BF G>=BF G>=BF G>=BF G>=BF G>=BF G>=BF G>=BF G>=BF G>=BF G>=BF G>=BF G>=BF G>=BF G>=BF G>=BF G>=BF G>=BF G>=BF G>=BF G>=BF G>=BF G>=BF G>=BF G>=BF G>=BF G>=BF G>=BF G>=BF G>=BF G>=BF G>=BF G>=BF G>=BF G>=BF G>=BF G>=BF G>=BF G>=BF G>=BF G>=BF G>=BF G>=BF G>=BF G>=BF G>=BF G>=BF G>=BF G>=BF G>=BF G>=BF G>=BF G>=BF G>=BF G>=BF G>=BF G>=BF G>=BF G>=BF G>=BF G>=BF G>=BF G>=BF G>=BF G>=BF G>=BF G>=BF G>=BF G>=BF G>=BF G>=BF G>=BF G>=BF G>=BF G>=BF G>=BF G>=BF G>=BF G>=BF G>=BF G>=BF G>=BF G>=BF G>=BF G>=BF G>=BF G>=BF G>=BF G>=BF G>=BF G>=BF G>=BF G>=BF G>=BF G>=BF G>=BF G>=BF G>=BF G>=BF G>=BF G>=BF G>=BF G>=BF G>=BF G>=BF G>=BF G>=BF G>=BF G>=BF G>=BF G>=BF G>=BF G>=BF G>=BF G>=BF G>=BF G>=BF G>=BF G>=BF G>=BF G>=BF G>=BF G>=BF F=**>BG F=**>BG F=**>BG F=**>BG F=**>BG F=**>BG F=**>BG F=**>BG F=**>BG F=**>BG F=**>BG F=**>BG F=**>BG F=**>BG F=**>BG F=**>BG F=**>BG F=**>BG F=**>BG F=**>BG F=**>BG F=**>BG F=**>BG F=**>BG F=**>BG F=**>BG F=**>BG F=**>BG F=**>BG F=**>BG F=**>BG F=**>BG F=**>BG F=**>BG F=**>BG F=**>BG F=**>BG F=**>BG F=**>BG F=**>BG F=**>BG F=**>BG F=**>BG F=**>BG F=**>BG F=**>BG F=**>BG F=**>BG F=**>BG F=**>BG F=**>BG F=**>BG F=**>BG F=**>BG F=**>BG F=**>BG F=**>BG F=**>BG F=**>BG F=**>BG F=**>BG F=**>BG F=**>BG F=**>BG F=**>BG F=**>BG F=**>BG F=**>BG F=**>BG F=**>BG F=**>BG F=**>BG F=**>BG F=**>BG F=**>BG F=**>BG F=**>BG F=**>BG F=**>BG F=**>BG F=**>BG F=**>BG F=**>BG F=**>BG F=**>BG F=**>BG F=**>BG F=**>BG F=**>BG F=**>BG F=**>BG F=**>BG F=**>BG F=**>BG F=**>BG F=**>BG F=**>BG F=**>BG F=**>BG F=**>BG F=**>BG F=**>BG F=**>BG F=**>BG F=**>BG F=**>BG F=**>BG F=**>BG F=**>BG F=**>BG F=**>BG F=**>BG F=**>BG F=**>BG F=**>BG F=**>BG F=**>BG F=**>BG F=**>BG F=**>BG F=**>BG F=**>BG F=**>BG F=**>BG F=**>BG F=**>BG F=**>BG F=**>BG F=**>BG F=**>BG F=**>BG F=**>BG F=**>BG F=**>BG F=**>BG F=**>BG F=**>BG F=**>BG F=**>BG F=**>BG F=**>BG F=**>BG F=**>BG F=**>BG F=**>BG F=**>BG F=**>BG F=**>BG F=**>BG F=**>BG F=**>BG F=**>BG F=**>BG F=**>BG F=**>BG F=**>BG F=**>BG F=**>BG F=**>BG F=**>BG F=**>BG F=**>BG F=**>BG F=**>BG F=**>BG F=**>BG F=**>BG F=**>BG F=**>BG F=**>BG F=**>BG F=**>BG F=**>BG F=**>BG F=**>BG F=**>BG F=**>BG F=**>BG F=**>BG F=**>BG F=**>BG F=**>BG F=**>BG F=**>BG F=**>BG F=**>BG F=**>BG F=**>BG F=**>BG F=**>BG F=**>BG F=**>BG F=**>BG F=**>BG F=**>BG F=**>BG F=**>BG F=**>BG F=**>BG F=**>BG F=**>BG F=**>BG F=**>BG F=**>BG F=**>BG F=**>BG F=**>BG F=**>BG F=**>BG F=**>BG F=**>BG F=**>BG F=**>BG F=**>BG F=**>BG F=**>BG F=**>BG F=**>BG F=**>BG F=**>BG F=**>BG F=**>BG F=**>BG F=**>BG F=**>BG F=**>BG F=**>BG F=**>BG F=**>BG F=**>BG F=**>BG F=**>BG F=**>BG F=**>BG F=**>BG F=**>BG F=**>BG F=**>BG F=**>BG F=**>BG F=**>BG F=**>BG F=**>BG F=**>BG F=**>BG F=**>BG F=**>BG F=**>BG F=**>BG F=**>BG F=**>BG F=**>BG F=**>BG F=**>BG F=**>BG F=**>BG D;**>BG D;**>BG D;**>BG D;**>BG D;**>BG D;**>BG D;**>BG D;**>BG D;**>BG D;**>BG D;**>BG D;**>BG D;**>BG D;**>BG D;**>BG D;**>BG D;**>BG D;**>BG D;**>BG D;**>BG D;**>BG D;**>BG D;**>BG D;**>BG D;**>BG D;**>BG D;**>BG D;**>BG D;**>BG D;**>BG D;**>BG D;**>BG D;**>BG D;**>BG D;**>BG D;**>BG D;**>BG D;**>BG D;**>BG D;**>BG D;**>BG D;**>BG D;**>BG D;**>BG D;**>BG D;**>BG D;**>BG D;**>BG D;**>BG D;**>BG D;**>BG D;**>BG D;**>BG D;**>BG D;**>BG D;**>BG D;**>BG D;**>BG D;**>BG D;**>BG D;**>BG D;**>BG D;**>BG D;**>BG D;**>BG D;**>BG D;**>BG D;**>BG D;**>BG D;**>BG D;**>BG D;**>BG D;**>BG D;**>BG D;**>BG D;**>BG D;**>BG D;**>BG D;**>BG D;**>BG D;**>BG D;**>BG D;**>BG D;**>BG D;**>BG D;**>BG D;**>BG D;**>BG D;**>BG D;**>BG D;**>BG D;**>BG D;**>BG D;**>BG D;**>BG D;**>BG D;**>BG D;**>BG D;**>BG D;**>BG D;**>BG D;**>BG D;>BG D;>BG D;>BG D;>BG D;>BG D;>BG D;>BG D;>BG D;>BG D;>BG D;>BG D;>BG D;>BG D;>BG D;>BG D;>BG D;>BG D;>BG D;>BG D;>BG D;>BG D;>BG D;>BG D;>BG D;>BG D;>BG D;>BG D;>BG D;>BG D;>BG D;>BG D;>BG D;>BG D;>BG D;>BG D;>BG D;>BG D;>BG D;>BG D;>BG D;>BG D;>BG D;>BG D;>BG D;>BG D;>BG D;>BG D;>BG D;>BG D;>BG D;>BG D;>BG D;>BG D;>BG D;>BG D;>BG D;>BG D;>BG D;>BG D;>BG D;>BG D;>BG D;>BG D;>BG D;>BG D;>BG D;>BG D;>BG D;>BG D;>BG D;>BG D;>BG D;>BG D;>BG D;>BG D;>BG D;>BG D;>BG D;>BG D;>BG D;>BG D;>BG D;>BG D;>BG D;>BG D;>BG D;>BG D;>BG D;>BG D;>BG D;>BG D;>BG D;>BG D;>BG D;>BG D;>BG D;>BG D;>BG D;>BG D;>BG D;>BG D;>BG D;>BG D;>BG D;>BG D;>BG D;>BG D;>BG D;>BG D;>BG D;>BG D;>BG D;>BG D;>BG D;>BG D;>BG D;>BG D;>BG D;>BG D;>BG D;>BG D;>BG D;>BG D;>BG D;>BG D;>BG D;>BG D;>BG D;>BG D;>BG D;>BG D;>BG D;>BG D;>BG D;>BG D;>BG D;>BG D;>BG D;>BG D;>BG D;>BG D;>BG D;>BG D;>BG D;>BG D;>BG D;>BG D;>BG D;>BG D;>BG D;>BG D;>BG D;>BG D;>BG F=**:=B F=**:=B F=**:=B F=**:=B F=**:=B F=**:=B F=**:=B F=**:=B F=**:=B F=**:=B F=**:=B F=**:=B F=**:=B F=**:=B F=**:=B F=**:=B F=**:=B F=**:=B F=**:=B F=**:=B F=**:=B F=**:=B F=**:=B F=**:=B F=**:=B F=**:=B F=**:=B F=**:=B F=**:=B F=**:=B F=**:=B F=**:=B F=**:=B F=**:=B F=**:=B F=**:=B F=**:=B F=**:=B F=**:=B F=**:=B F=**:=B F=**:=B F=**:=B F=**:=B F=**:=B F=**:=B F=**:=B F=**:=B F=**:=B F=**:=B F=**:=B F=**:=B F=**:=B F=**:=B F=**:=B F=**:=B F=**:=B F=**:=B F=**:=B F=**:=B F=**:=B F=**:=B F=**:=B F=**:=B F=**:=B F=**:=B F=**:=B F=**:=B F=**:=B F=**:=B F=**:=B F=**:=B F=**:=B F=**:=B F=**:=B F=**:=B F=**:=B F=**:=B F=**:=B F=**:=B F=**:=B F=**:=B F=**:=B F=**:=B F=**:=B F=**:=B F=**:=B F=**:=B F=**:=B F=**:=B F=**:=B F=**:=B F=**:=B F=**:=B F=**:=B F=**:=B F=**:=B F=**:=B F=**:=B F=**:=B F=**:=B F=**:=B F=**:=B F=**:=B F=**:=B F=**:=B F=**:=B F=**:=B F=**:=B F=**:=B F=**:=B F=**:=B F=**:=B F=**:=B F=**:=B F=**:=B F=**:=B F=**:=B F=**:=B F=**:=B F=**:=B F=**:=B F=**:=B F=**:=B F=**:=B F=**:=B F=**:=B F=**:=B F=**:=B F=**:=B F=**:=B F=**:=B F=**:=B F=**:=B F=**:=B F=**:=B F=**:=B F=**:=B F=**:=B F=**:=B F=**:=B F=**:=B F=**:=B F=**:=B F=**:=B F=**:=B F=**:=B F=**:=B F=**:=B F=**:=B F=**:=B F=**:=B F=**:=B F=**:=B F=**:=B F=**:=B F=**:=B F=**:=B F=**:=B F=**:=B F=**:=B F=**:=B F=**:=B F=**:=B F=**:=B F=**:=B F=**:=B F=**:=B F=**:=B F=**:=B F=**:=B G=**:=B G=**:=B G=**:=B G=**:=B G=**:=B G=**:=B G=**:=B G=**:=B G=**:=B G=**:=B G=**:=B G=**:=B G=**:=B G=**:=B G=**:=B G=**:=B G=**:=B G=**:=B G=**:=B G=**:=B G=**:=B G=**:=B G=**:=B G=**:=B G=**:=B G=**:=B G=**:=B G=**:=B G=**:=B G=**:=B G=**:=B G=**:=B G=**:=B G=**:=B G=**:=B G=**:=B G=**:=B G=**:=B G=**:=B G=**:=B G=**:=B G=**:=B G=**:=B G=**:=B G=**:=B G=**:=B G=**:=B G=**:=B G=**:=B G=**:=B G=**:=B G=**:=B G=**:=B G=**:=B G=**:=B G=**:=B G=**:=B G=**:=B G=**:=B G=**:=B G=**:=B G=**:=B G=**:=B G=**:=B G=**:=B G=**:=B G=**:=B G=**:=B G=**:=B G=**:=B G=**:=B G=**:=B G=**:=B G=**:=B G=**:=B G=**:=B G=**:=B G=**:=B G=**:=B G=**:=B G=**:=B G=**:=B G=**:=B G=**:=B G=**:=B GA**:=B GA**:=B GA**:=B GA**:=B GA**:=B GA**:=B GA**:=B GA**:=B GA**:=B GA**:=B GA**:=B GA**:=B GA**:=B GA**:=B GA**:=B GA**:=B GA**:=B GA**:=B GA**:=B GA**:=B GA**:=B GA**:=B GA**:=B GA**:=B GA**:=B GA**:=B GA**:=B GA**:=B GA**:=B GA**:=B GA**:=B GA**:=B GA**:=B GA**:=B GA**:=B GA**:=B GA**:=B GA**:=B GA**:=B GA**:=B GA**:=B GA**:=B GA**:=B GA**:=B GA**:=B GA**:=B GA**:=B GA**:=B GA**:=B GA**:=B GA**:=B GA**:=B GA**:=B GA**:=B GA**:=B GA**:=B GA**:=B GA**:=B GA**:=B GA**:=B GA**:=B GA**:=B GA**:=B GA**:=B GA**:=B GA**:=B GA**:=B GA**:=B GA**:=B GA**:=B GA**:=B GA**:=B GA**:=B GA**:=B GA**:=B GA**:=B GA**:=B GA**:=B GA**:=B GA**:=B GA**:=B GA**:=B GA**:=B GA**:=B GA**:=B IA**:=B IA**:=B IA**:=B IA**:=B IA**:=B IA**:=B IA**:=B IA**:=B IA**:=B IA**:=B IA**:=B IA**:=B IA**:=B IA**:=B IA**:=B IA**:=B IA**:=B IA**:=B IA**:=B IA**:=B IA**:=B IA**:=B IA**:=B IA**:=B IA**:=B IA**:=B IA**:=B IA**:=B IA**:=B IA**:=B IA**:=B IA**:=B IA**:=B IA**:=B IA**:=B IA**:=B IA**:=B IA**:=B IA**:=B IA**:=B IA**:=B IA**:=B IA**:=B IA**:=B IA**:=B IA**:=B IA**:=B IA**:=B IA**:=B IA**:=B IA**:=B IA**:=B IA**:=B IA**:=B IA**:=B IA**:=B IA**:=B IA**:=B IA**:=B IA**:=B IA**:=B IA**:=B IA**:=B IA**:=B IA**:=B IA**:=B IA**:=B IA**:=B IA**:=B IA**:=B IA**:=B IA**:=B IA**:=B IA**:=B IA**:=B IA**:=B IA**:=B IA**:=B IA**:=B IA**:=B IA**:=B IA**:=B IA**:=B IA**:=B IA**:=B IA**:=B IA**:=B IA**:=B IA**:=B IA**:=B IA**:=B IA**:=B IA**:=B IA**:=B IA**:=B IA**:=B IA**:=B IA**:=B IA**:=B IA**:=B IA**:=B IA**:=B IA**:=B IA**:=B IA**:=B IA**:=B IA**:=B IA**:=B IA**:=B IA**:=B IA**:=B IA**:=B IA**:=B IA**:=B IA**:=B IA**:=B IA**:=B IA**:=B IA**:=B IA**:=B IA**:=B IA**:=B IA**:=B IA**:=B IA**:=B IA**:=B IA**:=B IA**:=B IA**:=B IA**:=B IA**:=B IA**:=B IA**:=B IA**:=B IA**:=B IA**:=B IA**:=B IA**:=B IA**:=B IA**:=B IA**:=B IA**:=B IA**:=B IA**:=B IA**:=B IA**:=B IA**:=B IA**:=B IA**:=B IA**:=B IA**:=B IA**:=B IA**:=B IA**:=B IA**:=B IA**:=B IA**:=B IA**:=B IA**:=B IA**:=B IA**:=B IA**:=B IA**:=B IA**:=B IA**:=B IA**:=B IA**:=B IA**:=B IA**:=B IA**:=B IA**:=B JB**:=B JB**:=B JB**:=B JB**:=B JB**:=B JB**:=B JB**:=B JB**:=B JB**:=B JB**:=B JB**:=B JB**:=B JB**:=B JB**:=B JB**:=B JB**:=B JB**:=B JB**:=B JB**:=B JB**:=B JB**:=B JB**:=B JB**:=B JB**:=B JB**:=B JB**:=B JB**:=B JB**:=B JB**:=B JB**:=B JB**:=B JB**:=B JB**:=B JB**:=B JB**:=B JB**:=B JB**:=B JB**:=B JB**:=B JB**:=B JB**:=B JB**:=B JB**:=B JB**:=B JB**:=B JB**:=B JB**:=B JB**:=B JB**:=B JB**:=B JB**:=B JB**:=B JB**:=B JB**:=B JB**:=B JB**:=B JB**:=B JB**:=B JB**:=B JB**:=B JB**:=B JB**:=B JB**:=B JB**:=B JB**:=B JB**:=B JB**:=B JB**:=B JB**:=B JB**:=B JB**:=B JB**:=B JB**:=B JB**:=B JB**:=B JB**:=B JB**:=B JB**:=B JB**:=B JB**:=B JB**:=B JB**:=B JB**:=B JB**:=B JB**:=B JB**:=B JB**:=B JB**:=B JB**:=B JB**:=B JB**:=B JB**:=B JB**:=B JB**:=B JB**:=B JB**:=B JB**:=B JB**:=B JB**:=B JB**:=B JB**:=B JB**:=B JB**:=B JB**:=B JB**:=B JB**:=B JB**:=B JB**:=B JB**:=B JB**:=B JB**:=B JB**:=B JB**:=B JB**:=B JB**:=B JB**:=B JB**:=B JB**:=B JB**:=B JB**:=B JB**:=B JB**:=B JB**:=B JB**:=B JB**:=B JB**:=B JB**:=B JB**:=B JB**:=B JB**:=B JB**:=B JB**:=B JB**:=B JB**:=B JB**:=B JB**:=B JB**:=B JB**:=B JB**:=B JB**:=B JB**:=B JB**:=B JB**:=B JB**:=B JB**:=B JB**:=B JB**:=B JB**:=B JB**:=B JB**:=B JB**:=B JB**:=B JB**:=B JB**:=B JB**:=B JB**:=B JB**:=B JB**:=B JB**:=B JB**:=B JB**:=B JB**:=B JB**:=B JB**:=B JB**:=B JB**:=B JB**:=B JB**:=B JB**:=B JB**:=B JB**:=B IB**:=B IB**:=B IB**:=B IB**:=B IB**:=B IB**:=B IB**:=B IB**:=B IB**:=B IB**:=B IB**:=B IB**:=B IB**:=B IB**:=B IB**:=B IB**:=B IB**:=B IB**:=B IB**:=B IB**:=B IB**:=B IB**:=B IB**:=B IB**:=B IB**:=B IB**:=B IB**:=B IB**:=B IB**:=B IB**:=B IB**:=B IB**:=B IB**:=B IB**:=B IB**:=B IB**:=B IB**:=B IB**:=B IB**:=B IB**:=B IB**:=B IB**:=B IB**:=B IB**:=B IB**:=B IB**:=B IB**:=B IB**:=B IB**:=B IB**:=B IB**:=B IB**:=B IB**:=B IB**:=B IB**:=B IB**:=B IB**:=B IB**:=B IB**:=B IB**:=B IB**:=B IB**:=B IB**:=B IB**:=B IB**:=B IB**:=B IB**:=B IB**:=B IB**:=B IB**:=B IB**:=B IB**:=B IB**:=B IB**:=B IB**:=B IB**:=B IB**:=B IB**:=B IB**:=B IB**:=B IB**:=B IB**:=B IB**:=B IB**:=B IB**:=B IB**:=B IB**:=B IB**:=B IB**:=B IB**:=B IB**:=B IB**:=B IB**:=B IB**:=B IB**:=B IB**:=B IB**:=B IB**:=B IB**:=B IB**:=B IB**:=B IB**:=B IB**:=B IB**:=B IB**:=B IB**:=B IB**:=B IB**:=B IB**:=B IB**:=B IB**:=B IB**:=B IB**:=B IB**:=B IB**:=B IB**:=B IB**:=B IB**:=B IB**:=B IB**:=B IB**:=B IB**:=B IB**:=B IB**:=B IB**:=B IB**:=B IB**:=B IB**:=B IB**:=B IB**:=B IB**:=B IB**:=B IB**:=B IB**:=B IB**:=B IB**:=B IB**:=B IB**:=B IB**:=B IB**:=B IB**:=B IB**:=B IB**:=B IB**:=B IB**:=B IB**:=B IB**:=B IB**:=B IB**:=B IB**:=B IB**:=B IB**:=B IB**:=B IB**:=B IB**:=B IB**:=B IB**:=B IB**:=B IB**:=B IB**:=B IB**:=B IB**:=B IB**:=B IB**:=B IB**:=B IB**:=B IB**:=B IB**:=B IB**:=B IB**:=B GB**:=B GB**:=B GB**:=B GB**:=B GB**:=B GB**:=B GB**:=B GB**:=B GB**:=B GB**:=B GB**:=B GB**:=B GB**:=B GB**:=B GB**:=B GB**:=B GB**:=B GB**:=B GB**:=B GB**:=B GB**:=B GB**:=B GB**:=B GB**:=B GB**:=B GB**:=B GB**:=B GB**:=B GB**:=B GB**:=B GB**:=B GB**:=B GB**:=B GB**:=B GB**:=B GB**:=B GB**:=B GB**:=B GB**:=B GB**:=B GB**:=B GB**:=B GB**:=B GB**:=B GB**:=B GB**:=B GB**:=B GB**:=B GB**:=B GB**:=B GB**:=B GB**:=B GB**:=B GB**:=B GB**:=B GB**:=B GB**:=B GB**:=B GB**:=B GB**:=B GB**:=B GB**:=B GB**:=B GB**:=B GB**:=B GB**:=B GB**:=B GB**:=B GB**:=B GB:=B GB:=B GB:=B GB:=B GB:=B GB:=B GB:=B GB:=B GB:=B GB:=B GB:=B GB:=B GB:=B GB:=B GB:=B GB:=B GB:=B GB:=B GB:=B GB:=B GB:=B GB:=B GB:=B GB:=B GB:=B GB:=B GB:=B GB:=B GB:=B GB:=B GB:=B GB:=B GB:=B GB:=B GB:=B GB:=B GB:=B GB:=B GB:=B GB:=B GB:=B GB:=B GB:=B GB:=B GB:=B GB:=B GB:=B GB:=B GB:=B GB:=B GB:=B GB:=B GB:=B GB:=B GB:=B GB:=B GB:=B GB:=B GB:=B GB:=B GB:=B GB:=B GB:=B GB:=B GB:=B GB:=B GB:=B GB:=B GB:=B GB:=B GB:=B GB:=B GB:=B GB:=B GB:=B GB:=B GB:=B GB:=B GB:=B GB:=B GB:=B GB:=B GB:=B GB:=B GB:=B GB:=B GB:=B GB:=B GB:=B GB:=B GB:=B GB:=B GB:=B GB:=B GB:=B GB:=B GB:=B GB:=B GB:=B GB:=B GB:=B GB:=B I6:B I6:B I6:B I6:B I6:B I6:B I6:B I6:B I6:B I6:B I6:B I6:B I6:B I6:B I6:B I6:B I6:B I6:B I6:B I6:B I6:B I6:B I6:B I6:B I6:B I6:B I6:B I6:B I6:B I6:B I6:B I6:B I6:B I6:B I6:B I6:B I6:B I6:B I6:B I6:B I6:B I6:B I6:B I6:B I6:B I6:B I6:B I6:B I6:B I6:B I6:B I6:B I6:B I6:B I6:B I6:B I6:B I6:B I6:B I6:B I6:B I6:B I6:B I6:B I6:B I6:B I6:B I6:B I6:B I6:B I6:B I6:B I6:B I6:B I6:B I6:B I6:B I6:B I6:B I6:B I6:B I6:B I6:B I6:B I6:B I6:B I6:B I6:B I6:B I6:B I6:B I6:B I6:B I6:B I6:B I6:B I6:B I6:B I6:B I6:B I6:B I6:B I6:B I6:B I6:B I6:B I6:B I6:B I6:B I6:B I6:B I6:B I6:B I6:B I6:B I6:B I6:B I6:B I6:B I6:B I6:B I6:B I6:B I6:B I6:B I6:B I6:B I6:B I6:B I6:B I6:B I6:B I6:B I6:B I6:B I6:B I6:B I6:B I6:B I6:B I6:B I6:B I6:B I6:B I6:B I6:B I6:B I6:B I6:B I6:B I6:B I6:B I6:B I6:B I6:B I6:B I6:B I6:B I6:B I6:B I6:B I6:B I6:B I6:B I6:B I6:B I6:B I6:B I6:B I6:B I6:B J6;B J6;B J6;B J6;B J6;B J6;B J6;B J6;B J6;B J6;B J6;B J6;B J6;B J6;B J6;B J6;B J6;B J6;B J6;B J6;B J6;B J6;B J6;B J6;B J6;B J6;B J6;B J6;B J6;B J6;B J6;B J6;B J6;B J6;B J6;B J6;B J6;B J6;B J6;B J6;B J6;B J6;B J6;B J6;B J6;B J6;B J6;B J6;B J6;B J6;B J6;B J6;B J6;B J6;B J6;B J6;B J6;B J6;B J6;B J6;B J6;B J6;B J6;B J6;B J6;B J6;B J6;B J6;B J6;B J6;B J6;B J6;B J6;B J6;B J6;B J6;B J6;B J6;B J6;B J6;B J6;B J6;B J6;B J6;B J6;B J6;B J6;B J6;B J6;B J6;B J6;B J6;B J6;B J6;B J6;B J6;B J6;B J6;B J6;B J6;B J6;B J6;B J6;B J6;B J6;B J6;B J6;B J6;B J6;B J6;B J6;B J6;B J6;B J6;B J6;B J6;B J6;B J6;B J6;B J6;B J6;B J6;B J6;B J6;B J6;B J6;B J6;B J6;B J6;B J6;B J6;B J6;B J6;B J6;B J6;B J6;B J6;B J6;B J6;B J6;B J6;B J6;B J6;B J6;B J6;B J6;B J6;B J6;B J6;B J6;B J6;B J6;B J6;B J6;B J6;B J6;B J6;B J6;B J6;B J6;B J6;B J6;B J6;B J6;B J6;B J6;B J6;B J6;B J6;B J6;B L6=B L6=B L6=B L6=B L6=B L6=B L6=B L6=B L6=B L6=B L6=B L6=B L6=B L6=B L6=B L6=B L6=B L6=B L6=B L6=B L6=B L6=B L6=B L6=B L6=B L6=B L6=B L6=B L6=B L6=B L6=B L6=B L6=B L6=B L6=B L6=B L6=B L6=B L6=B L6=B L6=B L6=B L6=B L6=B L6=B L6=B L6=B L6=B L6=B L6=B L6=B L6=B L6=B L6=B L6=B L6=B L6=B L6=B L6=B L6=B L6=B L6=B L6=B L6=B L6=B L6=B L6=B L6=B L6=B L6=B L6=B L6=B L6=B L6=B L6=B L6=B L6=B L6=B L6=B L6=B L6=B L6=B L6=B L6=B L6=B L6=B L6=B L6=B L6=B L6=B L6=B L6=B L6=B L6=B L6=B L6=B L6=B L6=B L6=B L6=B L6=B L6=B L6=B L6=B L6=B L6=B L6=B L6=B L6=B L6=B L6=B L6=B L6=B L6=B L6=B L6=B L6=B L6=B L6=B L6=B L6=B L6=B L6=B L6=B L6=B L6=B L6=B L6=B L6=B L6=B L6=B L6=B L6=B L6=B L6=B L6=B L6=B L6=B L6=B L6=B L6=B L6=B L6=B L6=B L6=B L6=B L6=B L6=B L6=B L6=B L6=B L6=B L6=B L6=B L6=B L6=B L6=B L6=B L6=B L6=B L6=B L6=B L6=B L6=B L6=B L6=B L6=B L6=B L6=B L6=B L6=B N6:=:B N6:=:B N6:=:B N6:=:B N6:=:B N6:=:B N6:=:B N6:=:B N6:=:B N6:=:B N6:=:B N6:=:B N6:=:B N6:=:B N6:=:B N6:=:B N6:=:B N6:=:B N6:=:B N6:=:B N6:=:B N6:=:B N6:=:B N6:=:B N6:=:B N6:=:B N6:=:B N6:=:B N6:=:B N6:=:B N6:=:B N6:=:B N6:=:B N6:=:B N6:=:B N6:=:B N6:=:B N6:=:B N6:=:B N6:=:B N6:=:B N6:=:B N6:=:B N6:=:B N6:=:B N6:=:B N6:=:B N6:=:B N6:=:B N6:=:B N6:=:B N6:=:B N6:=:B N6:=:B N6:=:B N6:=:B N6:=:B N6:=:B N6:=:B N6:=:B N6:=:B N6:=:B N6:=:B N6:=:B N6:=:B N6:=:B N6:=:B N6:=:B N6:=:B N6:=:B N6:=:B N6:=:B N6:=:B N6:=:B N6:=:B N6:=:B N6:=:B N6:=:B N6:=:B N6:=:B N6:=:B N6:=:B N6:=:B N6:=:B N6:=:B N6:=:B N6:=:B N6:=:B N6:=:B N6:=:B N6:=:B N6:=:B N6:=:B N6:=:B N6:=:B N6:=:B N6:=:B N6:=:B N6:=:B N6:=:B N6:=:B N6:=:B N6:=:B N6:=:B N6:=:B N6:=:B N6:=:B N6:=:B N6:=:B N6:=:B N6:=:B N6:=:B N6:=:B N6:=:B N6:=:B N6:=:B N6:=:B N6:=:B N6:=:B N6:=:B N6:=:B N6:=:B N6:=:B N6:=:B N6:=:B N6:=:B N6:=:B N6:=:B N6:=:B N6:=:B N6:=:B N6:=:B N6:=:B N6:=:B N6:=:B N6:=:B N6:=:B N6:=:B N6:=:B N6:=:B N6:=:B N6:=:B N6:=:B N6:=:B N6:=:B N6:=:B N6:=:B N6:=:B N6:=:B N6:=:B N6:=:B N6:=:B N6:=:B N6:=:B N6:=:B N6:=:B N6:=:B N6:=:B N6:=:B N6:=:B N6:=:B N6:=:B N6:=:B N6:=:B N6:=:B N6:=:B N6:=:B N6:=:B N6:=:B N6:=:B N6:=:B L6:=:B L6:=:B L6:=:B L6:=:B L6:=:B L6:=:B L6:=:B L6:=:B L6:=:B L6:=:B L6:=:B L6:=:B L6:=:B L6:=:B L6:=:B L6:=:B L6:=:B L6:=:B L6:=:B L6:=:B L6:=:B L6:=:B L6:=:B L6:=:B L6:=:B L6:=:B L6:=:B L6:=:B L6:=:B L6:=:B L6:=:B L6:=:B L6:=:B L6:=:B L6:=:B L6:=:B L6:=:B L6:=:B L6:=:B L6:=:B L6:=:B L6:=:B L6:=:B L6:=:B L6:=:B L6:=:B L6:=:B L6:=:B L6:=:B L6:=:B L6:=:B L6:=:B L6:=:B L6:=:B L6:=:B L6:=:B L6:=:B L6:=:B L6:=:B L6:=:B L6:=:B L6:=:B L6:=:B L6:=:B L6:=:B L6:=:B L6:=:B L6:=:B L6:=:B L6:=:B L6:=:B L6:=:B L6:=:B L6:=:B L6:=:B L6:=:B L6:=:B L6:=:B L6:=:B L6:=:B L6:=:B L6:=:B L6:=:B L6:=:B L6:=:B L6;B>; L6;B>; L6;B>; L6;B>; L6;B>; L6;B>; L6;B>; L6;B>; L6;B>; L6;B>; L6;B>; L6;B>; L6;B>; L6;B>; L6;B>; L6;B>; L6;B>; L6;B>; L6;B>; L6;B>; L6;B>; L6;B>; L6;B>; L6;B>; L6;B>; L6;B>; L6;B>; L6;B>; L6;B>; L6;B>; L6;B>; L6;B>; L6;B>; L6;B>; L6;B>; L6;B>; L6;B>; L6;B>; L6;B>; L6;B>; L6;B>; L6;B>; L6;B>; L6;B>; L6;B>; L6;B>; L6;B>; L6;B>; L6;B>; L6;B>; L6;B>; L6;B>; L6;B>; L6;B>; L6;B>; L6;B>; L6;B>; L6;B>; L6;B>; L6;B>; L6;B>; L6;B>; L6;B>; L6;B>; L6;B>; L6;B>; L6;B>; L6;B>; L6;B>; L6;B>; L6;B>; L6;B>; L6;B>; L6;B>; L6;B>; L6;B>; L6;B>; L6;B>; L6;B>; L6;B>; L6;B>; L6;B>; L6;B>; L6;B>; L6;B>; J6;B>; J6;B>; J6;B>; J6;B>; J6;B>; J6;B>; J6;B>; J6;B>; J6;B>; J6;B>; J6;B>; J6;B>; J6;B>; J6;B>; J6;B>; J6;B>; J6;B>; J6;B>; J6;B>; J6;B>; J6;B>; J6;B>; J6;B>; J6;B>; J6;B>; J6;B>; J6;B>; J6;B>; J6;B>; J6;B>; J6;B>; J6;B>; J6;B>; J6;B>; J6;B>; J6;B>; J6;B>; J6;B>; J6;B>; J6;B>; J6;B>; J6;B>; J6;B>; J6;B>; J6;B>; J6;B>; J6;B>; J6;B>; J6;B>; J6;B>; J6;B>; J6;B>; J6;B>; J6;B>; J6;B>; J6;B>; J6;B>; J6;B>; J6;B>; J6;B>; J6;B>; J6;B>; J6;B>; J6;B>; J6;B>; J6;B>; J6;B>; J6;B>; J6;B>; J6;B>; J6;B>; J6;B>; J6;B>; J6;B>; J6;B>; J6;B>; J6;B>; J6;B>; J6;B>; J6;B>; J6;B>; J6;B>; J6;B>; J6;B>; J6;B>; J6;B>; J6;B>; J6;B>; J6;B>; J6;B>; J6;B>; J6;B>; J6;B>; J6;B>; J6;B>; J6;B>; J6;B>; J6;B>; J6;B>; J6;B>; J6;B>; J6;B>; J6;B>; J6;B>; J6;B>; J6;B>; J6;B>; J6;B>; J6;B>; J6;B>; J6;B>; J6;B>; J6;B>; J6;B>; J6;B>; J6;B>; J6;B>; J6;B>; J6;B>; J6;B>; J6;B>; J6;B>; J6;B>; J6;B>; J6;B>; J6;B>; J6;B>; J6;B>; J6;B>; J6;B>; J6;B>; J6;B>; J6;B>; J6;B>; J6;B>; J6;B>; J6;B>; J6;B>; J6;B>; J6;B>; J6;B>; J6;B>; J6;B>; J6;B>; J6;B>; J6;B>; J6;B>; J6;B>; J6;B>; J6;B>; J6;B>; J6;B>; J6;B>; J6;B>; J6;B>; J6;B>; J6;B>; J6;B>; J6;B>; J6;B>; J6;B>; J6;B>; J6;B>; J6;B>; J6;B>; J6;B>; J6;B>; J6;B>; J6;B>; J6;B>; J6;B>; L==@C L==@C L==@C L==@C L==@C L==@C L==@C L==@C L==@C L==@C L==@C L==@C L==@C L==@C L==@C L==@C L==@C L==@C L==@C L==@C L==@C L==@C L==@C L==@C L==@C L==@C L==@C L==@C L==@C L==@C L==@C L==@C L==@C L==@C L==@C L==@C L==@C L==@C L==@C L==@C L==@C L==@C L==@C L==@C L==@C L==@C L==@C L==@C L==@C L==@C L==@C L==@C L==@C L==@C L==@C L==@C L==@C L==@C L==@C L==@C L==@C L==@C L==@C L==@C L==@C L==@C L==@C L==@C L==@C L==@C L==@C L==@C L==@C L==@C L==@C L==@C L==@C L==@C L==@C L==@C L==@C L==@C L==@C L==@C L==@C L==@C L==@C L==@C L==@C L==@C L==@C L==@C L==@C L==@C L==@C L==@C L==@C L==@C L==@C L==@C L==@C L==@C L==@C L==@C L==@C L==@C L==@C L==@C L==@C L==@C L==@C L==@C L==@C L==@C L==@C L==@C L==@C L==@C L==@C L==@C L==@C L==@C L==@C L==@C L==@C L==@C L==@C L==@C L==@C L==@C L==@C L==@C L==@C L==@C L==@C L==@C L==@C L==@C L==@C L==@C L==@C L==@C L==@C L==@C L==@C L==@C L==@C L==@C L==@C L==@C L==@C L==@C L==@C L==@C L==@C L==@C L==@C L==@C L==@C L==@C L==@C L==@C L==@C L==@C L==@C L==@C L==@C L==@C L==@C L==@C L==@C L==@C L==@C L==@C L==@C L==@C L==@C L==@C L==@C L==@C L==@C L==@C L==@C L==@C L==@C L==@C L==@C L==@C L==@C L==@C L==@C L==@C L==@C L==@C L==@C L==@C L==@C L==@C L==@C L==@C L==@C L==@C L==@C L==@C L==@C L==@C L==@C L==@C L==@C L==@C L==@C L==@C L==@C L==@C L==@C L==@C L==@C L==@C L==@C L==@C L==@C L==@C L==@C L==@C L==@C L==@C L==@C L==@C L==@C L==@C L==@C L==@C L==@C L==@C L==@C L==@C L==@C L==@C L==@C L==@C L==@C L==@C L==@C L==@C L==@C L==@C L==@C L==@C L==@C L==@C L==@C L==@C L==@C L==@C L==@C L==@C L==@C L==@C L==@C L==@C L==@C L==@C L==@C L==@C L==@C L==@C L==@C L==@C L==@C L==@C L==@C L==@C L==@C L==@C L==@C L==@C L==@C L==@C L==@C L==@C L==@C L==@C L==@C L==@C L==@C L==@C L==@C L==@C L==@C L==@C L==@C L==@C L==@C L==@C L==@C L==@C L==@C L==@C L==@C L==@C L==@C L==@C L==@C L==@C L==@C L==@C L==@C L==@C L==@C L==@C L==@C L==@C L==@C L==@C L==@C L==@C L==@C L==@C L==@C L==@C L==@C L==@C L==@C L==@C L==@C L==@C L==@C L==@C L==@C L==@C L==@C L==@C L==@C L==@C L==@C L==@C L==@C L==@C L==@C L==@C L==@C L==@C L==@C L==@C L==@C L==@C L==@C L==@C L==@C L==@C L==@C L==@C L==@C L==@C L==@C L==@C L==@C L==@C L@C L@C L@C L@C L@C L@C L@C L@C L@C L@C L@C L@C L@C L@C L@C L@C L@C L@C L@C L@C L@C L@C L@C L@C L@C L@C L@C L@C L@C L@C L@C L@C L@C L@C L@C L@C L@C L@C L@C L@C L@C L@C L@C L@C L@C L@C L@C L@C L@C L@C L@C L@C L@C L@C L@C L@C L@C L@C L@C L@C L@C L@C L@C L@C L@C L@C L@C L@C L@C L@C L@C L@C L@C L@C L@C L@C L@C L@C L@C L@C L@C L@C L@C L@C L@C L@C L@C L@C L@C L@C L@C L@C L@C L@C L@C L@C L@C L@C L@C L@C L@C L@C L@C L@C L@C L@C L@C L@C L@C L@C L@C L@C L@C L@C L@C L@C L@C L@C L@C L@C L@C L@C L@C L@C L@C L@C L@C L@C L@C L@C L@C L@C L@C L@C L@C L@C L@C L@C L@C L@C L@C L@C L@C L@C L@C L@C L@C L@C L@C L@C L@C L@C L@C L@C :44=BF :44=BF :44=BF :44=BF :44=BF :44=BF :44=BF :44=BF :44=BF :44=BF :44=BF :44=BF :44=BF :44=BF :44=BF :44=BF :44=BF :44=BF :44=BF :44=BF :44=BF :44=BF :44=BF :44=BF :44=BF :44=BF :44=BF :44=BF :44=BF :44=BF :44=BF :44=BF :44=BF :44=BF :44=BF :44=BF :44=BF :44=BF :44=BF :44=BF :44=BF :44=BF :44=BF :44=BF :44=BF :44=BF :44=BF :44=BF :44=BF :44=BF :44=BF :44=BF :44=BF :44=BF :44=BF :44=BF :44=BF :44=BF :44=BF :44=BF :44=BF :44=BF :44=BF :44=BF :44=BF :44=BF :44=BF :44=BF :44=BF :44=BF :44=BF :44=BF :44=BF :44=BF :44=BF :44=BF :44=BF :44=BF :44=BF :44=BF :44=BF :44=BF :44=BF :44=BF :44=BF :44=BF :44=BF :44=BF :44=BF :44=BF :44=BF :44=BF :44=BF :44=BF :44=BF :44=BF :44=BF :44=BF :44=BF :44=BF :44=BF :44=BF :44=BF :44=BF :44=BF :44=BF :44=BF :44=BF :44=BF :44=BF :44=BF :44=BF :44=BF :44=BF :44=BF :44=BF :44=BF :44=BF :44=BF :44=BF :44=BF :44=BF :44=BF :44=BF :44=BF :44=BF :44=BF :44=BF :44=BF :44=BF :44=BF :44=BF :44=BF :44=BF :44=BF :44=BF :44=BF :44=BF :44=BF :44=BF :44=BF :44=BF :44=BF :44=BF :44=BF :44=BF :44=BF :44=BF :44=BF :44=BF :44=BF :44=BF :44=BF :44=BF :44=BF :44=BF :44=BF :44=BF :44=BF :44=BF :44=BF :44=BF :44=BF :44=BF :44=BF :44=BF :44=BF :44=BF :44=BF :44=BF :44=BF :44=BF :44=BF :44=BF :44=BF :44=BF :44=BF :44=BF :44=BF :44=BF :44=BF :44=BF :44=BF :44=BF :44=BF :44=BF :44=BF :44=BF :44=BF :44=BF :44=BF :44=BF :44=BF :44=BF :44=BF :44=BF :44=BF :44=BF :44=BF :44=BF :44=BF :44=BF :44=BF :44=BF :44=BF :44=BF :44=BF :44=BF :44=BF :44=BF :44=BF :44=BF :44=BF :44=BF :44=BF :44=BF :44=BF :44=BF :44=BF :44=BF :44=BF :44=BF :44=BF :44=BF :44=BF :44=BF :44=BF :44=BF :44=BF :44=BF :44=BF :44=BF :44=BF :44=BF :44=BF :44=BF :44=BF :44=BF :44=BF :44=BF :44=BF :44=BF :44=BF :44=BF :44=BF :44=BF :44=BF :44=BF :44=BF :44=BF :44=BF :44=BF :44=BF :44=BF :44=BF :44=BF :44=BF :44=BF :44=BF :44=BF :44=BF :44=BF :44=BF :44=BF :44=BF :44=BF :44=BF :44=BF :44=BF :44=BF :44=BF :44=BF :44=BF :44=BF :44=BF :44=BF :44=BF :44=BF :44=BF :44=BF :44=BF :44=BF :44=BF :44=BF :44=BF :44=BF :44=BF :44=BF :44=BF :44=BF :44=BF :44=BF :44=BF :44=BF :44=BF :44=BF :44=BF :44=BF :44=BF :44=BF :44=BF :44=BF :44=BF :44=BF :44=BF :44=BF :44=BF :44=BF :44=BF :44=BF :44=BF :44=BF :44=BF :44=BF :44=BF :44=BF :44=BF :44=BF :44=BF :44=BF :44=BF :44=BF :44=BF :44=BF :44=BF :44=BF :44=BF :44=BF :44=BF :44=BF :44=BF :44=BF :44=BF :44=BF :44=BF :44=BF :44=BF :44=BF :44=BF :44=BF :44=BF :44=BF :44=BF :44=BF :44=BF :44=BF :44=BF :44=BF :44=BF :44=BF :44=BF :44=BF :44=BF :44=BF :44=BF :44=BF :44=BF :44=BF :=BF :=BF :=BF :=BF :=BF :=BF :=BF :=BF :=BF :=BF :=BF :=BF :=BF :=BF :=BF :=BF :=BF :=BF :=BF :=BF :=BF :=BF :=BF :=BF :=BF :=BF :=BF :=BF :=BF :=BF :=BF :=BF :=BF :=BF :=BF :=BF :=BF :=BF :=BF :=BF :=BF :=BF :=BF :=BF :=BF :=BF :=BF :=BF :=BF :=BF :=BF :=BF :=BF :=BF :=BF :=BF :=BF :=BF :=BF :=BF :=BF :=BF :=BF :=BF :=BF :=BF :=BF :=BF :=BF :=BF :=BF :=BF :=BF :=BF :=BF :=BF :=BF :=BF :=BF :=BF :=BF :=BF :=BF :=BF :=BF :=BF :=BF :=BF :=BF :=BF :=BF :=BF :=BF :=BF :=BF :=BF :=BF :=BF :=BF :=BF :=BF :=BF :=BF :=BF :=BF :=BF :=BF :=BF :=BF :=BF :=BF :=BF :=BF :=BF :=BF :=BF :=BF :=BF :=BF :=BF :=BF :=BF :=BF :=BF :=BF :=BF :=BF :=BF :=BF :=BF :=BF :=BF :=BF :=BF :=BF :=BF :=BF :=BF :=BF :=BF :=BF :=BF :=BF :=BF :=BF :=BF :=BF :=BF :=BF :=BF :=BF :=BF :=BF :=BF ;22>BG ;22>BG ;22>BG ;22>BG ;22>BG ;22>BG ;22>BG ;22>BG ;22>BG ;22>BG ;22>BG ;22>BG ;22>BG ;22>BG ;22>BG ;22>BG ;22>BG ;22>BG ;22>BG ;22>BG ;22>BG ;22>BG ;22>BG ;22>BG ;22>BG ;22>BG ;22>BG ;22>BG ;22>BG ;22>BG ;22>BG ;22>BG ;22>BG ;22>BG ;22>BG ;22>BG ;22>BG ;22>BG ;22>BG ;22>BG ;22>BG ;22>BG ;22>BG ;22>BG ;22>BG ;22>BG ;22>BG ;22>BG ;22>BG ;22>BG ;22>BG ;22>BG ;22>BG ;22>BG ;22>BG ;22>BG ;22>BG ;22>BG ;22>BG ;22>BG ;22>BG ;22>BG ;22>BG ;22>BG ;22>BG ;22>BG ;22>BG ;22>BG ;22>BG ;22>BG ;22>BG ;22>BG ;22>BG ;22>BG ;22>BG ;22>BG ;22>BG ;22>BG ;22>BG ;22>BG ;22>BG ;22>BG ;22>BG ;22>BG ;22>BG ;22>BG ;22>BG ;22>BG ;22>BG ;22>BG ;22>BG ;22>BG ;22>BG ;22>BG ;22>BG ;22>BG ;22>BG ;22>BG ;22>BG ;22>BG ;22>BG ;22>BG ;22>BG ;22>BG ;22>BG ;22>BG ;22>BG ;22>BG ;22>BG ;22>BG ;22>BG ;22>BG ;22>BG ;22>BG ;22>BG ;22>BG ;22>BG ;22>BG ;22>BG ;22>BG ;22>BG ;22>BG ;22>BG ;22>BG ;22>BG ;22>BG ;22>BG ;22>BG ;22>BG ;22>BG ;22>BG ;22>BG ;22>BG ;22>BG ;22>BG ;22>BG ;22>BG ;22>BG ;22>BG ;22>BG ;22>BG ;22>BG ;22>BG ;22>BG ;22>BG ;22>BG ;22>BG ;22>BG ;22>BG ;22>BG ;22>BG ;22>BG ;22>BG ;22>BG ;22>BG ;22>BG ;22>BG ;22>BG ;22>BG ;22>BG ;22>BG ;22>BG ;22>BG ;22>BG ;22>BG ;22>BG ;22>BG ;22>BG ;22>BG ;22>BG ;22>BG ;22>BG ;22>BG ;22>BG ;22>BG ;22>BG ;22>BG ;22>BG ;22>BG ;22>BG ;22>BG ;22>BG ;22>BG ;22>BG ;22>BG ;22>BG ;22>BG ;22>BG ;22>BG ;22>BG ;22>BG ;22>BG ;22>BG ;22>BG ;22>BG ;22>BG ;22>BG ;22>BG ;22>BG ;22>BG ;22>BG ;22>BG ;22>BG ;22>BG ;22>BG ;22>BG ;22>BG ;22>BG ;22>BG ;22>BG ;22>BG ;22>BG ;22>BG ;22>BG ;22>BG ;22>BG ;22>BG ;22>BG ;22>BG ;22>BG ;22>BG ;22>BG ;22>BG ;22>BG ;22>BG ;22>BG ;22>BG ;22>BG ;22>BG ;22>BG ;22>BG ;22>BG ;22>BG ;22>BG ;22>BG ;22>BG ;22>BG ;22>BG ;22>BG ;22>BG ;22>BG ;22>BG ;22>BG ;22>BG ;22>BG ;22>BG ;22>BG ;22>BG ;22>BG ;22>BG ;22>BG ;22>BG ;22>BG ;22>BG ;22>BG ;22>BG =22>BG =22>BG =22>BG =22>BG =22>BG =22>BG =22>BG =22>BG =22>BG =22>BG =22>BG =22>BG =22>BG =22>BG =22>BG =22>BG =22>BG =22>BG =22>BG =22>BG =22>BG =22>BG =22>BG =22>BG =22>BG =22>BG =22>BG =22>BG =22>BG =22>BG =22>BG =22>BG =22>BG =22>BG =22>BG =22>BG =22>BG =22>BG =22>BG =22>BG =22>BG =22>BG =22>BG =22>BG =22>BG =22>BG =22>BG =22>BG =22>BG =22>BG =22>BG =22>BG =22>BG =22>BG =22>BG =22>BG =22>BG =22>BG =22>BG =22>BG =22>BG =22>BG =22>BG =22>BG =22>BG =22>BG =22>BG =22>BG =22>BG =22>BG =22>BG =22>BG =22>BG =22>BG =22>BG =22>BG =22>BG =22>BG =22>BG =22>BG =22>BG =22>BG =22>BG =22>BG =22>BG =22>BG =22>BG =22>BG =22>BG =22>BG =22>BG =22>BG =22>BG =22>BG =22>BG =22>BG =22>BG =22>BG =22>BG =22>BG =22>BG =22>BG =>BG =>BG =>BG =>BG =>BG =>BG =>BG =>BG =>BG =>BG =>BG =>BG =>BG =>BG =>BG =>BG =>BG =>BG =>BG =>BG =>BG =>BG =>BG =>BG =>BG =>BG =>BG =>BG =>BG =>BG =>BG =>BG =>BG =>BG =>BG =>BG =>BG =>BG =>BG =>BG =>BG =>BG =>BG =>BG =>BG =>BG =>BG =>BG =>BG =>BG =>BG =>BG =>BG =>BG =>BG =>BG =>BG =>BG =>BG =>BG =>BG =>BG =>BG =>BG =>BG =>BG =>BG =>BG =>BG =>BG =>BG =>BG =>BG =>BG =>BG =>BG =>BG =>BG =>BG =>BG =>BG =>BG =>BG =>BG =>BG =>BG =>BG =>BG =>BG =>BG =>BG =>BG =>BG =>BG =>BG =>BG =>BG =>BG =>BG =>BG =>BG =>BG =>BG =>BG =>BG =>BG =>BG =>BG =>BG =>BG =>BG =>BG =>BG =>BG =>BG =>BG =>BG =>BG =>BG =>BG =>BG =>BG =>BG =>BG =>BG =>BG =>BG =>BG =>BG =>BG =>BG =>BG =>BG =>BG =>BG =>BG =>BG =>BG =>BG =>BG =>BG =>BG =>BG =>BG =>BG =>BG =>BG =>BG =>BG =>BG =>BG =>BG =>BG =>BG >11@F >11@F >11@F >11@F >11@F >11@F >11@F >11@F >11@F >11@F >11@F >11@F >11@F >11@F >11@F >11@F >11@F >11@F >11@F >11@F >11@F >11@F >11@F >11@F >11@F >11@F >11@F >11@F >11@F >11@F >11@F >11@F >11@F >11@F >11@F >11@F >11@F >11@F >11@F >11@F >11@F >11@F >11@F >11@F >11@F >11@F >11@F >11@F >11@F >11@F >11@F >11@F >11@F >11@F >11@F >11@F >11@F >11@F >11@F >11@F >11@F >11@F >11@F >11@F >11@F >11@F >11@F >11@F >11@F >11@F >11@F >11@F >11@F >11@F >11@F >11@F >11@F >11@F >11@F >11@F >11@F >11@F >11@F >11@F >11@F >11@F >11@F >11@F >11@F >11@F >11@F >11@F >11@F >11@F >11@F >11@F >11@F >11@F >11@F >11@F >11@F >11@F >11@F >11@F >11@F >11@F >11@F >11@F >11@F >11@F >11@F >11@F >11@F >11@F >11@F >11@F >11@F >11@F >11@F >11@F >11@F >11@F >11@F >11@F >11@F >11@F >11@F >11@F >11@F >11@F >11@F >11@F >11@F >11@F >11@F >11@F >11@F >11@F >11@F >11@F >11@F >11@F >11@F >11@F >11@F >11@F >11@F >11@F >11@F >11@F >11@F >11@F >11@F >11@F >11@F >11@F >11@F >11@F >11@F >11@F >11@F >11@F >11@F >11@F >11@F >11@F >11@F >11@F >11@F >11@F >11@F >11@F >11@F >11@F >11@F >11@F >11@F >11@F >11@F >11@F >11@F >11@F >11@F >11@F >11@F >11@F >11@F >11@F >11@F >11@F >11@F >11@F >11@F >11@F >11@F >11@F >11@F >11@F >11@F >11@F >11@F >11@F >11@F >11@F >11@F >11@F >11@F >11@F >11@F >11@F >11@F >11@F >11@F >11@F >11@F >11@F >11@F >11@F >11@F >11@F >11@F >11@F >11@F >11@F >11@F >11@F >11@F >11@F >11@F >11@F >11@F >11@F >11@F >11@F >11@F >11@F >11@F >11@F >11@F >11@F >11@F >11@F >11@F >11@F >11@F >11@F >11@F >11@F >11@F >11@F >11@F >11@F >11@F >11@F >11@F >11@F @11@F @11@F @11@F @11@F @11@F @11@F @11@F @11@F @11@F @11@F @11@F @11@F @11@F @11@F @11@F @11@F @11@F @11@F @11@F @11@F @11@F @11@F @11@F @11@F @11@F @11@F @11@F @11@F @11@F @11@F @11@F @11@F @11@F @11@F @11@F @11@F @11@F @11@F @11@F @11@F @11@F @11@F @11@F @11@F @11@F @11@F @11@F @11@F @11@F @11@F @11@F @11@F @11@F @11@F @11@F @11@F @11@F @11@F @11@F @11@F @11@F @11@F @11@F @11@F @11@F @11@F @11@F @11@F @11@F @11@F @11@F @11@F @11@F @11@F @11@F @11@F @11@F @11@F @11@F @11@F @11@F @11@F @11@F @11@F @11@F @11@F @11@F @11@F @11@F @11@F @11@F @11@F @11@F @11@F @11@F @11@F @11@F @11@F @11@F @11@F @11@F @11@F @@F @@F @@F @@F @@F @@F @@F @@F @@F @@F @@F @@F @@F @@F @@F @@F @@F @@F @@F @@F @@F @@F @@F @@F @@F @@F @@F @@F @@F @@F @@F @@F @@F @@F @@F @@F @@F @@F @@F @@F @@F @@F @@F @@F @@F @@F @@F @@F @@F @@F @@F @@F @@F @@F @@F @@F @@F @@F @@F @@F @@F @@F @@F @@F @@F @@F @@F @@F @@F @@F @@F @@F @@F @@F @@F @@F @@F @@F @@F @@F @@F @@F @@F @@F @@F @@F @@F @@F @@F @@F @@F @@F @@F @@F @@F @@F @@F @@F @@F @@F @@F @@F @@F @@F @@F @@F @@F @@F @@F @@F @@F @@F @@F @@F @@F @@F @@F @@F @@F @@F @@F @@F @@F @@F @@F @@F @@F @@F @@F @@F @@F @@F @@F @@F @@F @@F @@F @@F @@F @@F @@F @@F @@F @@F @@F @@F @@F @@F @@F @@F @@F @@F @@F @@F B22BG B22BG B22BG B22BG B22BG B22BG B22BG B22BG B22BG B22BG B22BG B22BG B22BG B22BG B22BG B22BG B22BG B22BG B22BG B22BG B22BG B22BG B22BG B22BG B22BG B22BG B22BG B22BG B22BG B22BG B22BG B22BG B22BG B22BG B22BG B22BG B22BG B22BG B22BG B22BG B22BG B22BG B22BG B22BG B22BG B22BG B22BG B22BG B22BG B22BG B22BG B22BG B22BG B22BG B22BG B22BG B22BG B22BG B22BG B22BG B22BG B22BG B22BG B22BG B22BG B22BG B22BG B22BG B22BG B22BG B22BG B22BG B22BG B22BG B22BG B22BG B22BG B22BG B22BG B22BG B22BG B22BG B22BG B22BG B22BG B22BG B22BG B22BG B22BG B22BG B22BG B22BG B22BG B22BG B22BG B22BG B22BG B22BG B22BG B22BG B22BG B22BG B22BG B22BG B22BG B22BG B22BG B22BG B22BG B22BG B22BG B22BG B22BG B22BG B22BG B22BG B22BG B22BG B22BG B22BG B22BG B22BG B22BG B22BG B22BG B22BG B22BG B22BG B22BG B22BG B22BG B22BG B22BG B22BG B22BG B22BG B22BG B22BG B22BG B22BG B22BG B22BG B22BG B22BG B22BG B22BG B22BG B22BG B22BG B22BG B22BG B22BG B22BG B22BG B22BG B22BG B22BG B22BG B22BG B22BG B22BG B22BG B22BG B22BG B22BG B22BG B22BG B22BG B22BG B22BG B22BG B22BG B22BG B22BG B22BG B22BG B22BG B22BG B22BG B22BG B22BG B22BG B22BG B22BG B22BG B22BG B22BG B22BG B22BG B22BG B22BG B22BG B22BG B22BG B22BG B22BG B22BG B22BG B22BG B22BG B22BG B22BG B22BG B22BG B22BG B22BG B22BG B22BG B22BG B22BG B22BG B22BG B22BG B22BG B22BG B22BG B22BG B22BG B22BG B22BG B22BG B22BG B22BG B22BG B22BG B22BG B22BG B22BG B22BG B22BG B22BG B22BG B22BG B22BG B22BG B22BG B22BG B22BG B22BG B22BG B22BG B22BG B22BG B22BG B22BG B22BG B22BG B22BG B22BG B22BG B22BG B22BG B22BG B22BG B22BG B22BG @22BG @22BG @22BG @22BG @22BG @22BG @22BG @22BG @22BG @22BG @22BG @22BG @22BG @22BG @22BG @22BG @22BG @22BG @22BG @22BG @22BG @22BG @22BG @22BG @22BG @22BG @22BG @22BG @22BG @22BG @22BG @22BG @22BG @22BG @22BG @22BG @22BG @22BG @22BG @22BG @22BG @22BG @22BG @22BG @22BG @22BG @22BG @22BG @22BG @22BG @22BG @22BG @22BG @22BG @22BG @22BG @22BG @22BG @22BG @22BG @22BG @22BG @22BG @22BG @22BG @22BG @22BG @22BG @22BG @22BG @22BG @22BG @22BG @22BG @22BG @22BG @22BG @22BG @22BG @22BG @22BG @22BG @22BG @22BG @22BG @22BG @22BG @22BG @22BG @22BG @22BG @22BG @22BG @22BG @22BG @22BG @22BG @22BG @22BG @22BG @22BG @22BG @BG @BG @BG @BG @BG @BG @BG @BG @BG @BG @BG @BG @BG @BG @BG @BG @BG @BG @BG @BG @BG @BG @BG @BG @BG @BG @BG @BG @BG @BG @BG @BG @BG @BG @BG @BG @BG @BG @BG @BG @BG @BG @BG @BG @BG @BG @BG @BG @BG @BG @BG @BG @BG @BG @BG @BG @BG @BG @BG @BG @BG @BG @BG @BG @BG @BG @BG @BG @BG @BG @BG @BG @BG @BG @BG @BG @BG @BG @BG @BG @BG @BG @BG @BG @BG @BG @BG @BG @BG @BG @BG @BG @BG @BG @BG @BG @BG @BG @BG @BG @BG @BG @BG @BG @BG @BG @BG @BG @BG @BG @BG @BG @BG @BG @BG @BG @BG @BG @BG @BG @BG @BG @BG @BG @BG @BG @BG @BG @BG @BG @BG @BG @BG @BG @BG @BG @BG @BG @BG @BG @BG @BG @BG @BG @BG @BG @BG @BG @BG @BG @BG @BG @BG @BG C44CI C44CI C44CI C44CI C44CI C44CI C44CI C44CI C44CI C44CI C44CI C44CI C44CI C44CI C44CI C44CI C44CI C44CI C44CI C44CI C44CI C44CI C44CI C44CI C44CI C44CI C44CI C44CI C44CI C44CI C44CI C44CI C44CI C44CI C44CI C44CI C44CI C44CI C44CI C44CI C44CI C44CI C44CI C44CI C44CI C44CI C44CI C44CI C44CI C44CI C44CI C44CI C44CI C44CI C44CI C44CI C44CI C44CI C44CI C44CI C44CI C44CI C44CI C44CI C44CI C44CI C44CI C44CI C44CI C44CI C44CI C44CI C44CI C44CI C44CI C44CI C44CI C44CI C44CI C44CI C44CI C44CI C44CI C44CI C44CI C44CI C44CI C44CI C44CI C44CI C44CI C44CI C44CI C44CI C44CI C44CI C44CI C44CI C44CI C44CI C44CI C44CI C44CI C44CI C44CI C44CI C44CI C44CI C44CI C44CI C44CI C44CI C44CI C44CI C44CI C44CI C44CI C44CI C44CI C44CI C44CI C44CI C44CI C44CI C44CI C44CI C44CI C44CI C44CI C44CI C44CI C44CI C44CI C44CI C44CI C44CI C44CI C44CI C44CI C44CI C44CI C44CI C44CI C44CI C44CI C44CI C44CI C44CI C44CI C44CI C44CI C44CI C44CI C44CI C44CI C44CI C44CI C44CI C44CI C44CI C44CI C44CI C44CI C44CI C44CI C44CI C44CI C44CI C44CI C44CI C44CI C44CI C44CI C44CI C44CI C44CI C44CI C44CI C44CI C44CI C44CI C44CI C44CI C44CI C44CI C44CI C44CI C44CI C44CI C44CI C44CI C44CI C44CI C44CI C44CI C44CI C44CI C44CI C44CI C44CI C44CI C44CI C44CI C44CI C44CI C44CI C44CI C44CI C44CI C44CI C44CI C44CI C44CI C44CI C44CI C44CI C44CI C44CI C44CI C44CI C44CI C44CI C44CI C44CI C44CI C44CI C44CI C44CI C44CI C44CI C44CI C44CI C44CI C44CI C44CI C44CI C44CI C44CI C44CI C44CI C44CI C44CI C44CI C44CI C44CI C44CI C44CI C44CI C44CI C44CI C44CI C44CI C44CI C44CI C44CI C44CI B44CI B44CI B44CI B44CI B44CI B44CI B44CI B44CI B44CI B44CI B44CI B44CI B44CI B44CI B44CI B44CI B44CI B44CI B44CI B44CI B44CI B44CI B44CI B44CI B44CI B44CI B44CI B44CI B44CI B44CI B44CI B44CI B44CI B44CI B44CI B44CI B44CI B44CI B44CI B44CI B44CI B44CI B44CI B44CI B44CI B44CI B44CI B44CI B44CI B44CI B44CI B44CI B44CI B44CI B44CI B44CI B44CI B44CI B44CI B44CI B44CI B44CI B44CI B44CI B44CI B44CI B44CI B44CI B44CI B44CI B44CI B44CI B44CI B44CI B44CI B44CI B44CI B44CI B44CI B44CI B44CI B44CI B44CI B44CI B44CI B44CI B44CI B44CI B44CI B44CI B44CI B44CI B44CI B44CI B44CI B44CI B44CI B44CI B44CI B44CI B44CI B44CI BCI BCI BCI BCI BCI BCI BCI BCI BCI BCI BCI BCI BCI BCI BCI BCI BCI BCI BCI BCI BCI BCI BCI BCI BCI BCI BCI BCI BCI BCI BCI BCI BCI BCI BCI BCI BCI BCI BCI BCI BCI BCI BCI BCI BCI BCI BCI BCI BCI BCI BCI BCI BCI BCI BCI BCI BCI BCI BCI BCI BCI BCI BCI BCI BCI BCI BCI BCI BCI BCI BCI BCI BCI BCI BCI BCI BCI BCI BCI BCI BCI BCI BCI BCI BCI BCI BCI BCI BCI BCI BCI BCI BCI BCI BCI BCI BCI BCI BCI BCI BCI BCI BCI BCI BCI BCI BCI BCI BCI BCI BCI BCI BCI BCI BCI BCI BCI BCI BCI BCI BCI BCI BCI BCI BCI BCI BCI BCI BCI BCI BCI BCI BCI BCI BCI BCI BCI BCI BCI BCI BCI BCI BCI BCI BCI BCI BCI BCI BCI BCI BCI BCI BCI BCI @66>B @66>B @66>B @66>B @66>B @66>B @66>B @66>B @66>B @66>B @66>B @66>B @66>B @66>B @66>B @66>B @66>B @66>B @66>B @66>B @66>B @66>B @66>B @66>B @66>B @66>B @66>B @66>B @66>B @66>B @66>B @66>B @66>B @66>B @66>B @66>B @66>B @66>B @66>B @66>B @66>B @66>B @66>B @66>B @66>B @66>B @66>B @66>B @66>B @66>B @66>B @66>B @66>B @66>B @66>B @66>B @66>B @66>B @66>B @66>B @66>B @66>B @66>B @66>B @66>B @66>B @66>B @66>B @66>B @66>B @66>B @66>B @66>B @66>B @66>B @66>B @66>B @66>B @66>B @66>B @66>B @66>B @66>B @66>B @66>B @66>B @66>B @66>B @66>B @66>B @66>B @66>B @66>B @66>B @66>B @66>B @66>B @66>B @66>B @66>B @66>B @66>B @66>B @66>B @66>B @66>B @66>B @66>B @66>B @66>B @66>B @66>B @66>B @66>B @66>B @66>B @66>B @66>B @66>B @66>B @66>B @66>B @66>B @66>B @66>B @66>B @66>B @66>B @66>B @66>B @66>B @66>B @66>B @66>B @66>B @66>B @66>B @66>B @66>B @66>B @66>B @66>B @66>B @66>B @66>B @66>B @66>B @66>B @66>B @66>B @66>B @66>B @66>B @66>B @66>B @66>B @66>B @66>B @66>B @66>B @66>B @66>B @66>B @66>B @66>B @66>B @66>B @66>B @66>B @66>B @66>B @66>B @66>B @66>B @66>B @66>B @66>B @66>B @66>B @66>B @66>B @66>B @66>B @66>B @66>B @66>B @66>B @66>B @66>B @66>B @66>B @66>B @66>B @66>B @66>B @66>B @66>B @66>B @66>B @66>B @66>B @66>B @66>B @66>B @66>B @66>B @66>B @66>B @66>B @66>B @66>B @66>B @66>B @66>B @66>B @66>B @66>B @66>B @66>B @66>B @66>B @66>B @66>B @66>B @66>B @66>B @66>B @66>B @66>B @66>B @66>B @66>B @66>B @66>B @66>B @66>B @66>B @66>B @66>B @66>B @66>B @66>B @66>B @66>B @66>B @66>B @66>B @66>B @66>B @66>B @66>B @66>B @66>B @66>B @66>B @66>B >66>B >66>B >66>B >66>B >66>B >66>B >66>B >66>B >66>B >66>B >66>B >66>B >66>B >66>B >66>B >66>B >66>B >66>B >66>B >66>B >66>B >66>B >66>B >66>B >66>B >66>B >66>B >66>B >66>B >66>B >66>B >66>B >66>B >66>B >66>B >66>B >66>B >66>B >66>B >66>B >66>B >66>B >66>B >66>B >66>B >66>B >66>B >66>B >66>B >66>B >66>B >66>B >66>B >66>B >66>B >66>B >66>B >66>B >66>B >66>B >66>B >66>B >66>B >66>B >66>B >66>B >66>B >66>B >66>B >66>B >66>B >66>B >66>B >66>B >66>B >66>B >66>B >66>B >66>B >66>B >66>B >66>B >66>B >66>B >66>B >66>B >66>B >66>B >66>B >66>B >66>B >66>B >66>B >66>B >66>B >66>B >66>B >66>B >66>B >66>B >66>B >66>B >>B >>B >>B >>B >>B >>B >>B >>B >>B >>B >>B >>B >>B >>B >>B >>B >>B >>B >>B >>B >>B >>B >>B >>B >>B >>B >>B >>B >>B >>B >>B >>B >>B >>B >>B >>B >>B >>B >>B >>B >>B >>B >>B >>B >>B >>B >>B >>B >>B >>B >>B >>B >>B >>B >>B >>B >>B >>B >>B >>B >>B >>B >>B >>B >>B >>B >>B >>B >>B >>B >>B >>B >>B >>B >>B >>B >>B >>B >>B >>B >>B >>B >>B >>B >>B >>B >>B >>B >>B >>B >>B >>B >>B >>B >>B >>B >>B >>B >>B >>B >>B >>B >>B >>B >>B >>B >>B >>B >>B >>B >>B >>B >>B >>B >>B >>B >>B >>B >>B >>B >>B >>B >>B >>B >>B >>B >>B >>B >>B >>B >>B >>B >>B >>B >>B >>B >>B >>B >>B >>B >>B >>B >>B >>B >>B >>B >>B >>B >>B >>B >>B >>B >>B >>B =**=@F =**=@F =**=@F =**=@F =**=@F =**=@F =**=@F =**=@F =**=@F =**=@F =**=@F =**=@F =**=@F =**=@F =**=@F =**=@F =**=@F =**=@F =**=@F =**=@F =**=@F =**=@F =**=@F =**=@F =**=@F =**=@F =**=@F =**=@F =**=@F =**=@F =**=@F =**=@F =**=@F =**=@F =**=@F =**=@F =**=@F =**=@F =**=@F =**=@F =**=@F =**=@F =**=@F =**=@F =**=@F =**=@F =**=@F =**=@F =**=@F =**=@F =**=@F =**=@F =**=@F =**=@F =**=@F =**=@F =**=@F =**=@F =**=@F =**=@F =**=@F =**=@F =**=@F =**=@F =**=@F =**=@F =**=@F =**=@F =**=@F =**=@F =**=@F =**=@F =**=@F =**=@F =**=@F =**=@F =**=@F =**=@F =**=@F =**=@F =**=@F =**=@F =**=@F =**=@F =**=@F =**=@F =**=@F =**=@F =**=@F =**=@F =**=@F =**=@F =**=@F =**=@F =**=@F =**=@F =**=@F =**=@F =**=@F =**=@F =**=@F =**=@F =**=@F =**=@F =**=@F =**=@F =**=@F =**=@F =**=@F =**=@F =**=@F =**=@F =**=@F =**=@F =**=@F =**=@F =**=@F =**=@F =**=@F =**=@F =**=@F =**=@F =**=@F =**=@F =**=@F =**=@F =**=@F =**=@F =**=@F =**=@F =**=@F =**=@F =**=@F =**=@F =**=@F =**=@F =**=@F =**=@F =**=@F =**=@F =**=@F =**=@F =**=@F =**=@F =**=@F =**=@F =**=@F =**=@F =**=@F =**=@F =**=@F =**=@F =**=@F =**=@F =**=@F =**=@F =**=@F =**=@F =**=@F =**=@F =**=@F =**=@F =**=@F =**=@F =**=@F =**=@F =**=@F =**=@F =**=@F =**=@F =**=@F =**=@F =**=@F =**=@F =**=@F =**=@F =**=@F =**=@F =**=@F =**=@F =**=@F =**=@F =**=@F =**=@F =**=@F =**=@F =**=@F =**=@F =**=@F =**=@F =**=@F =**=@F =**=@F =**=@F =**=@F =**=@F =**=@F =**=@F =**=@F =**=@F =**=@F =**=@F =**=@F =**=@F =**=@F =**=@F =**=@F =**=@F =**=@F =**=@F =**=@F =**=@F =**=@F =**=@F =**=@F =**=@F =**=@F =**=@F =**=@F =**=@F =**=@F =**=@F =**=@F =**=@F =**=@F =**=@F =**=@F =**=@F =**=@F =**=@F =**=@F =**=@F =**=@F =**=@F =**=@F =**=@F =**=@F =**=@F =**=@F =**=@F =**=@F =**=@F =**=@F =**=@F =**=@F =**=@F =**=@F =**=@F =**=@F =**=@F =**=@F =**=@F =**=@F =**=@F =**=@F =**=@F ;**=@F ;**=@F ;**=@F ;**=@F ;**=@F ;**=@F ;**=@F ;**=@F ;**=@F ;**=@F ;**=@F ;**=@F ;**=@F ;**=@F ;**=@F ;**=@F ;**=@F ;**=@F ;**=@F ;**=@F ;**=@F ;**=@F ;**=@F ;**=@F ;**=@F ;**=@F ;**=@F ;**=@F ;**=@F ;**=@F ;**=@F ;**=@F ;**=@F ;**=@F ;**=@F ;**=@F ;**=@F ;**=@F ;**=@F ;**=@F ;**=@F ;**=@F ;**=@F ;**=@F ;**=@F ;**=@F ;**=@F ;**=@F ;**=@F ;**=@F ;**=@F ;**=@F ;**=@F ;**=@F ;**=@F ;**=@F ;**=@F ;**=@F ;**=@F ;**=@F ;**=@F ;**=@F ;**=@F ;**=@F ;**=@F ;**=@F ;**=@F ;**=@F ;**=@F ;**=@F ;**=@F ;**=@F ;**=@F ;**=@F ;**=@F ;**=@F ;**=@F ;**=@F ;**=@F ;**=@F ;**=@F ;**=@F ;**=@F ;**=@F ;**=@F ;**=@F ;**=@F ;**=@F ;**=@F ;**=@F ;**=@F ;**=@F ;**=@F ;**=@F ;**=@F ;**=@F ;**=@F ;**=@F ;**=@F ;**=@F ;**=@F ;**=@F ;=@F ;=@F ;=@F ;=@F ;=@F ;=@F ;=@F ;=@F ;=@F ;=@F ;=@F ;=@F ;=@F ;=@F ;=@F ;=@F ;=@F ;=@F ;=@F ;=@F ;=@F ;=@F ;=@F ;=@F ;=@F ;=@F ;=@F ;=@F ;=@F ;=@F ;=@F ;=@F ;=@F ;=@F ;=@F ;=@F ;=@F ;=@F ;=@F ;=@F ;=@F ;=@F ;=@F ;=@F ;=@F ;=@F ;=@F ;=@F ;=@F ;=@F ;=@F ;=@F ;=@F ;=@F ;=@F ;=@F ;=@F ;=@F ;=@F ;=@F ;=@F ;=@F ;=@F ;=@F ;=@F ;=@F ;=@F ;=@F ;=@F ;=@F ;=@F ;=@F ;=@F ;=@F ;=@F ;=@F ;=@F ;=@F ;=@F ;=@F ;=@F ;=@F ;=@F ;=@F ;=@F ;=@F ;=@F ;=@F ;=@F ;=@F ;=@F ;=@F ;=@F ;=@F ;=@F ;=@F ;=@F ;=@F ;=@F ;=@F ;=@F ;=@F ;=@F ;=@F ;=@F ;=@F ;=@F ;=@F ;=@F ;=@F ;=@F ;=@F ;=@F ;=@F ;=@F ;=@F ;=@F ;=@F ;=@F ;=@F ;=@F ;=@F ;=@F ;=@F ;=@F ;=@F ;=@F ;=@F ;=@F ;=@F ;=@F ;=@F ;=@F ;=@F ;=@F ;=@F ;=@F ;=@F ;=@F ;=@F ;=@F ;=@F ;=@F ;=@F ;=@F ;=@F ;=@F ;=@F ;=@F ;=@F ;=@F ;=@F ;=@F ;=@F A,,>AG A,,>AG A,,>AG A,,>AG A,,>AG A,,>AG A,,>AG A,,>AG A,,>AG A,,>AG A,,>AG A,,>AG A,,>AG A,,>AG A,,>AG A,,>AG A,,>AG A,,>AG A,,>AG A,,>AG A,,>AG A,,>AG A,,>AG A,,>AG A,,>AG A,,>AG A,,>AG A,,>AG A,,>AG A,,>AG A,,>AG A,,>AG A,,>AG A,,>AG A,,>AG A,,>AG A,,>AG A,,>AG A,,>AG A,,>AG A,,>AG A,,>AG A,,>AG A,,>AG A,,>AG A,,>AG A,,>AG A,,>AG A,,>AG A,,>AG A,,>AG A,,>AG A,,>AG A,,>AG A,,>AG A,,>AG A,,>AG A,,>AG A,,>AG A,,>AG A,,>AG A,,>AG A,,>AG A,,>AG A,,>AG A,,>AG A,,>AG A,,>AG A,,>AG A,,>AG A,,>AG A,,>AG A,,>AG A,,>AG A,,>AG A,,>AG A,,>AG A,,>AG A,,>AG A,,>AG A,,>AG A,,>AG A,,>AG A,,>AG A,,>AG A,,>AG A,,>AG A,,>AG A,,>AG A,,>AG A,,>AG A,,>AG A,,>AG A,,>AG A,,>AG A,,>AG A,,>AG A,,>AG A,,>AG A,,>AG A,,>AG A,,>AG A,,>AG A,,>AG A,,>AG A,,>AG A,,>AG A,,>AG A,,>AG A,,>AG A,,>AG A,,>AG A,,>AG A,,>AG A,,>AG A,,>AG A,,>AG A,,>AG A,,>AG A,,>AG A,,>AG A,,>AG A,,>AG A,,>AG A,,>AG A,,>AG A,,>AG A,,>AG A,,>AG A,,>AG A,,>AG A,,>AG A,,>AG A,,>AG A,,>AG A,,>AG A,,>AG A,,>AG A,,>AG A,,>AG A,,>AG A,,>AG A,,>AG A,,>AG A,,>AG A,,>AG A,,>AG A,,>AG A,,>AG A,,>AG A,,>AG A,,>AG A,,>AG A,,>AG A,,>AG A,,>AG A,,>AG A,,>AG A,,>AG A,,>AG A,,>AG A,,>AG A,,>AG A,,>AG A,,>AG A,,>AG A,,>AG A,,>AG A,,>AG A,,>AG A,,>AG A,,>AG A,,>AG A,,>AG A,,>AG A,,>AG A,,>AG A,,>AG A,,>AG A,,>AG A,,>AG A,,>AG A,,>AG A,,>AG A,,>AG A,,>AG A,,>AG A,,>AG A,,>AG A,,>AG A,,>AG A,,>AG A,,>AG A,,>AG A,,>AG A,,>AG A,,>AG A,,>AG A,,>AG A,,>AG A,,>AG A,,>AG A,,>AG A,,>AG A,,>AG A,,>AG A,,>AG A,,>AG A,,>AG A,,>AG A,,>AG A,,>AG A,,>AG A,,>AG A,,>AG A,,>AG A,,>AG A,,>AG A,,>AG A,,>AG A,,>AG A,,>AG A,,>AG A,,>AG A,,>AG A,,>AG A,,>AG A,,>AG A,,>AG A,,>AG A,,>AG A,,>AG A,,>AG A,,>AG A,,>AG A,,>AG A,,>AG A,,>AG A,,>AG A,,>AG A,,>AG A,,>AG A,,>AG A,,>AG A,,>AG A,,>AG A,,>AG A,,>AG A,,>AG A,,>AG A,,>AG A,,>AG A,,>AG A,,>AG A,,>AG A,,>AG A,,>AG A,,>AG A,,>AG A,,>AG A,,>AG A,,>AG A,,>AG A,,>AG A,,>AG A,,>AG A,,>AG A,,>AG A,,>AG A,,>AG A,,>AG A,,>AG A,,>AG A,,>AG A,,>AG A,,>AG A,,>AG A,,>AG A,,>AG A,,>AG A,,>AG A,,>AG A,,>AG A,,>AG A,,>AG A,,>AG A,,>AG A,,>AG A,,>AG A,,>AG A,,>AG A,,>AG A,,>AG A,,>AG A,,>AG A,,>AG A,,>AG A,,>AG A,,>AG A,,>AG ,,>AG ,,>AG ,,>AG ,,>AG ,,>AG ,,>AG ,,>AG ,,>AG ,,>AG ,,>AG ,,>AG ,,>AG ,,>AG ,,>AG ,,>AG ,,>AG ,,>AG ,,>AG ,,>AG ,,>AG ,,>AG ,,>AG ,,>AG ,,>AG ,,>AG ,,>AG ,,>AG ,,>AG ,,>AG ,,>AG ,,>AG ,,>AG ,,>AG ,,>AG ,,>AG ,,>AG ,,>AG ,,>AG ,,>AG ,,>AG ,,>AG ,,>AG ,,>AG ,,>AG ,,>AG ,,>AG ,,>AG ,,>AG ,,>AG ,,>AG ,,>AG ,,>AG ,,>AG ,,>AG ,,>AG ,,>AG ,,>AG ,,>AG >AG >AG >AG >AG >AG >AG >AG >AG >AG >AG >AG >AG >AG >AG >AG >AG >AG >AG >AG >AG >AG >AG >AG >AG >AG >AG >AG >AG >AG >AG >AG >AG >AG >AG >AG >AG >AG >AG >AG >AG >AG >AG >AG >AG >AG >AG >AG >AG >AG >AG >AG >AG >AG >AG >AG >AG >AG >AG >AG >AG >AG >AG >AG >AG >AG >AG >AG >AG >AG >AG >AG >AG >AG >AG >AG >AG >AG >AG >AG >AG >AG >AG >AG >AG >AG >AG >AG >AG >AG >AG >AG >AG >AG >AG >AG >AG >AG >AG >AG >AG >AG >AG >AG >AG >AG >AG >AG >AG >AG >AG >AG >AG >AG >AG >AG >AG >AG >AG >AG >AG >AG >AG >AG >AG >AG >AG >AG >AG >AG >AG >AG >AG >AG >AG >AG >AG >AG >AG >AG >AG >AG >AG >AG >AG >AG >AG >AG >AG >AG >AG >AG >AG >AG >AG ;,,>AG ;,,>AG ;,,>AG ;,,>AG ;,,>AG ;,,>AG ;,,>AG ;,,>AG ;,,>AG ;,,>AG ;,,>AG ;,,>AG ;,,>AG ;,,>AG ;,,>AG ;,,>AG ;,,>AG ;,,>AG ;,,>AG ;,,>AG ;,,>AG ;,,>AG ;,,>AG ;,,>AG ;,,>AG ;,,>AG ;,,>AG ;,,>AG ;,,>AG ;,,>AG ;,,>AG ;,,>AG ;,,>AG ;,,>AG ;,,>AG ;,,>AG ;,,>AG ;,,>AG ;,,>AG ;,,>AG ;,,>AG ;,,>AG ;,,>AG ;,,>AG ;,,>AG ;,,>AG ;,,>AG ;,,>AG ;,,>AG ;,,>AG ;,,>AG ;,,>AG ;,,>AG ;,,>AG ;,,>AG ;,,>AG ;,,>AG ;,,>AG ;,,>AG ;,,>AG ;,,>AG ;,,>AG ;,,>AG ;,,>AG ;,,>AG ;,,>AG ;,,>AG ;,,>AG ;,,>AG ;,,>AG ;,,>AG ;,,>AG ;,,>AG ;,,>AG ;,,>AG ;,,>AG ;,,>AG ;,,>AG ;,,>AG ;,,>AG ;,,>AG ;,,>AG ;,,>AG ;,,>AG ;,,>AG ;,,>AG ;,,>AG ;,,>AG ;,,>AG ;,,>AG ;,,>AG ;,,>AG ;,,>AG ;,,>AG ;,,>AG ;,,>AG ;,,>AG ;,,>AG ;,,>AG ;,,>AG ;,,>AG ;,,>AG ;,,>AG ;,,>AG ;,,>AG ;,,>AG ;,,>AG ;,,>AG ;,,>AG ;,,>AG ;,,>AG ;,,>AG ;,,>AG ;,,>AG ;,,>AG ;,,>AG ;,,>AG ;,,>AG ;,,>AG ;,,>AG ;,,>AG ;,,>AG ;,,>AG ;,,>AG ;,,>AG ;,,>AG ;,,>AG ;,,>AG ;,,>AG ;,,>AG ;,,>AG ;,,>AG ;,,>AG ;,,>AG ;,,>AG ;,,>AG ;,,>AG ;,,>AG ;,,>AG ;,,>AG ;,,>AG ;,,>AG ;,,>AG ;,,>AG ;,,>AG ;,,>AG ;,,>AG ;,,>AG ;,,>AG ;,,>AG ;,,>AG ;,,>AG ;,,>AG ;,,>AG ;,,>AG ;,,>AG ;,,>AG ;,,>AG ;,,>AG ;,,>AG ;,,>AG ;,,>AG ;,,>AG ;,,>AG ;,,>AG ;,,>AG ;,,>AG ;,,>AG ;,,>AG ;,,>AG ;,,>AG ;,,>AG ;,,>AG ;,,>AG ;,,>AG ;,,>AG ;,,>AG ;,,>AG ;,,>AG ;,,>AG ;,,>AG ;,,>AG ;,,>AG ;,,>AG ;,,>AG ;,,>AG ;,,>AG ;,,>AG ;,,>AG ;,,>AG ;,,>AG ;,,>AG ;,,>AG ;,,>AG ;,,>AG ;,,>AG ;,,>AG ;,,>AG ;,,>AG ;,,>AG ;,,>AG ;,,>AG ;,,>AG ;,,>AG ;,,>AG ;,,>AG ;,,>AG ;,,>AG ;,,>AG ;,,>AG ;,,>AG ;,,>AG ;,,>AG ;,,>AG ;,,>AG ;,,>AG ;,,>AG ;,,>AG ;,,>AG ;,,>AG ;,,>AG ;,,>AG ;,,>AG ;,,>AG ;,,>AG ;,,>AG ;,,>AG ;,,>AG ;,,>AG ;,,>AG ;,,>AG ;,,>AG ;,,>AG ;,,>AG ;,,>AG ;,,>AG ;,,>AG ;,,>AG ;,,>AG ;,,>AG ;,,>AG ;,,>AG ;,,>AG ;,,>AG ;,,>AG ;,,>AG ;,,>AG ;,,>AG ;,,>AG ;,,>AG ;,,>AG ;,,>AG ;,,>AG ;,,>AG ;,,>AG ;,,>AG ;,,>AG ;,,>AG ;,,>AG ;,,>AG ;,,>AG ;,,>AG ;,,>AG ;,,>AG ;,,>AG ;,,>AG ;,,>AG ;,,>AG ;,,>AG ;,,>AG ;,,>AG ;,,>AG ;,,>AG ;,,>AG ;,,>AG ;,,>AG ;,,>AG ;,,>AG ;,,>AG ;,,>AG ;,,>AG ;,,>AG ;,,>AG ;,,>AG ;,,>AG ;,,>AG ;,,>AG ;,,>AG ;,,>AG ;,,>AG ;,,>AG ;,,>AG ;,,>AG ;,,>AG ;,,>AG ;,,>AG ;,,>AG ;,,>AG ;,,>AG ;,,>AG ;,,>AG ;,,>AG ;,,>AG ;,,>AG ;,,>AG ;,,>AG ;,,>AG ;,,>AG ;,,>AG ;,,>AG ;,,>AG ;,,>AG ;,,>AG ;,,>AG ;,,>AG ;,,>AG ;,,>AG ;,,>AG ;,,>AG ;,,>AG ;,,>AG ;,,>AG ;,,>AG ;,,>AG ;,,>AG ;,,>AG ;,,>AG ;,,>AG ;,,>AG ;,,>AG ;,,>AG ;,,>AG ;,,>AG ;,,>AG ;,,>AG ;,,>AG ;,,>AG ;,,>AG ;,,>AG ;,,>AG ;,,>AG ;,,>AG ;,,>AG ;,,>AG ;,,>AG ;,,>AG ;,,>AG ;,,>AG ;,,>AG ;,,>AG ;,,>AG ;,,>AG ;,,>AG ;,,>AG ;,,>AG ;,,>AG ;,,>AG ;,,>AG ;>AG ;>AG ;>AG ;>AG ;>AG ;>AG ;>AG ;>AG ;>AG ;>AG ;>AG ;>AG ;>AG ;>AG ;>AG ;>AG ;>AG ;>AG ;>AG ;>AG ;>AG ;>AG ;>AG ;>AG ;>AG ;>AG ;>AG ;>AG ;>AG ;>AG ;>AG ;>AG ;>AG ;>AG ;>AG ;>AG ;>AG ;>AG ;>AG ;>AG ;>AG ;>AG ;>AG ;>AG ;>AG ;>AG ;>AG ;>AG ;>AG ;>AG ;>AG ;>AG ;>AG ;>AG ;>AG ;>AG ;>AG ;>AG ;>AG ;>AG ;>AG ;>AG ;>AG ;>AG ;>AG ;>AG ;>AG ;>AG ;>AG ;>AG ;>AG ;>AG ;>AG ;>AG ;>AG ;>AG ;>AG ;>AG ;>AG ;>AG ;>AG ;>AG ;>AG ;>AG ;>AG ;>AG ;>AG ;>AG ;>AG ;>AG ;>AG ;>AG ;>AG ;>AG ;>AG ;>AG ;>AG ;>AG ;>AG ;>AG ;>AG ;>AG ;>AG ;>AG ;>AG ;>AG ;>AG ;>AG ;>AG ;>AG ;>AG ;>AG ;>AG ;>AG ;>AG ;>AG ;>AG ;>AG ;>AG ;>AG ;>AG ;>AG ;>AG ;>AG ;>AG ;>AG ;>AG ;>AG ;>AG ;>AG ;>AG ;>AG ;>AG ;>AG ;>AG ;>AG ;>AG ;>AG ;>AG ;>AG ;>AG ;>AG ;>AG ;>AG ;>AG ;>AG ;>AG ;>AG ;>AG ;>AG ;>AG ;>AG ;>AG ;>AG M=11DGM M=11DGM M=11DGM M=11DGM M=11DGM M=11DGM M=11DGM M=11DGM M=11DGM M=11DGM M=11DGM M=11DGM M=11DGM M=11DGM M=11DGM M=11DGM M=11DGM M=11DGM M=11DGM M=11DGM M=11DGM M=11DGM M=11DGM M=11DGM M=11DGM M=11DGM M=11DGM M=11DGM M=11DGM M=11DGM M=11DGM M=11DGM M=11DGM M=11DGM M=11DGM M=11DGM M=11DGM M=11DGM M=11DGM M=11DGM M=11DGM M=11DGM M=11DGM M=11DGM M=11DGM M=11DGM M=11DGM M=11DGM M=11DGM M=11DGM M=11DGM M=11DGM M=11DGM M=11DGM M=11DGM M=11DGM M=11DGM M=11DGM M=11DGM M=11DGM M=11DGM M=11DGM M=11DGM M=11DGM M;11DGM M;11DGM M;11DGM M;11DGM M;11DGM M;11DGM M;11DGM M;11DGM M;11DGM M;11DGM M;11DGM M;11DGM M;11DGM M;11DGM M;11DGM M;11DGM M;11DGM M;11DGM M;11DGM M;11DGM M;11DGM M;11DGM M;11DGM M;11DGM M;11DGM M;11DGM M;11DGM M;11DGM M;11DGM M;11DGM M;11DGM M;11DGM M;11DGM M;11DGM M;11DGM M;11DGM M;11DGM M;11DGM M;11DGM M;11DGM M;11DGM M;11DGM M;11DGM M;11DGM M;11DGM M;11DGM M;11DGM M;11DGM M;11DGM M;11DGM M;11DGM M;11DGM M;11DGM M;11DGM M;11DGM M;11DGM M;11DGM M;11DGM M;11DGM M;11DGM M;11DGM M;11DGM M;11DGM M;11DGM N;11DGM N;11DGM N;11DGM N;11DGM N;11DGM N;11DGM N;11DGM N;11DGM N;11DGM N;11DGM N;11DGM N;11DGM N;11DGM N;11DGM N;11DGM N;11DGM N;11DGM N;11DGM N;11DGM N;11DGM N;11DGM N;11DGM N;11DGM N;11DGM N;11DGM N;11DGM N;11DGM N;11DGM N;11DGM N;11DGM N;11DGM N;11DGM N;11DGM N;11DGM N;11DGM N;11DGM N;11DGM N;11DGM N;11DGM N;11DGM N;11DGM N;11DGM N;11DGM N;11DGM N;11DGM N;11DGM N;11DGM N;11DGM N;11DGM N;11DGM N;11DGM N;11DGM N;11DGM N;11DGM N;11DGM N;11DGM N;11DGM N;11DGM N;11DGM N;11DGM N;11DGM N;11DGM N;11DGM N;11DGM N;11DGM N;11DGM N;11DGM N;11DGM N;11DGM N;11DGM N;11DGM N;11DGM N;11DGM N;11DGM N;11DGM N;11DGM N;11DGM N;11DGM N;11DGM N;11DGM N;11DGM N;11DGM N;11DGM N;11DGM N;11DGM N;11DGM N;11DGM N;11DGM N;11DGM N;11DGM N;11DGM N;11DGM N;11DGM N;11DGM N;11DGM N;11DGM N;11DGM N;11DGM N;11DGM N;11DGM N;11DGM N;11DGM N;11DGM N;11DGM N;11DGM N;11DGM N;11DGM N;11DGM N;11DGM N;11DGM N;11DGM N;11DGM N;11DGM N;11DGM N;11DGM N;11DGM N;11DGM N;11DGM N;11DGM N;11DGM N;11DGM N;11DGM N;11DGM N;11DGM N;11DGM N;11DGM N;11DGM N;11DGM M:11DGM M:11DGM M:11DGM M:11DGM M:11DGM M:11DGM M:11DGM M:11DGM M:11DGM M:11DGM M:11DGM M:11DGM M:11DGM M:11DGM M:11DGM M:11DGM M:11DGM M:11DGM M:11DGM M:11DGM M:11DGM M:11DGM M:11DGM M:11DGM M:11DGM M:11DGM M:11DGM M:11DGM M:11DGM M:11DGM M:11DGM M:11DGM M:11DGM M:11DGM M:11DGM M:11DGM M:11DGM M:11DGM M:11DGM M:11DGM M:11DGM M:11DGM M:11DGM M:11DGM M:11DGM M:11DGM M:11DGM M:11DGM M:11DGM M:11DGM M:11DGM M:11DGM M:11DGM M:11DGM M:11DGM M:11DGM M:11DGM M:11DGM M:11DGM M:11DGM M:11DGM M:11DGM M:11DGM M:11DGM N:11DGM N:11DGM N:11DGM N:11DGM N:11DGM N:11DGM N:11DGM N:11DGM N:11DGM N:11DGM N:11DGM N:11DGM N:11DGM N:11DGM N:11DGM N:11DGM N:11DGM N:11DGM N:11DGM N:11DGM N:11DGM N:11DGM N:11DGM N:11DGM N:11DGM N:11DGM N:11DGM N:11DGM N:11DGM N:11DGM N:11DGM N:11DGM N:11DGM N:11DGM N:11DGM N:11DGM N:11DGM N:11DGM N:DGM N:DGM N:DGM N:DGM N:DGM N:DGM N:DGM N:DGM N:DGM N:DGM N:DGM N:DGM N:DGM N:DGM N:DGM N:DGM N:DGM N:DGM N:DGM N:DGM N:DGM N:DGM N:DGM N:DGM N:DGM N:DGM M:DGM M:DGM M:DGM M:DGM M:DGM M:DGM M:DGM M:DGM M:DGM M:DGM M:DGM M:DGM M:DGM M:DGM M:DGM M:DGM M:DGM M:DGM M:DGM M:DGM M:DGM M:DGM M:DGM M:DGM M:DGM M:DGM M:DGM M:DGM M:DGM M:DGM M:DGM M:DGM M:DGM M:DGM M:DGM M:DGM M:DGM M:DGM M:DGM M:DGM M:DGM M:DGM M:DGM M:DGM M:DGM M:DGM M:DGM M:DGM M:DGM M:DGM M:DGM M:DGM M:DGM M:DGM M:DGM M:DGM M:DGM M:DGM M:DGM M:DGM M:DGM M:DGM M:DGM M:DGM N:DGM N:DGM N:DGM N:DGM N:DGM N:DGM N:DGM N:DGM N:DGM N:DGM N:DGM N:DGM N:DGM N:DGM N:DGM N:DGM N:DGM N:DGM N:DGM N:DGM N:DGM N:DGM N:DGM N:DGM N:DGM N:DGM N:DGM N:DGM N:DGM N:DGM N:DGM N:DGM N:DGM N:DGM N:DGM N:DGM N:DGM N:DGM N:DGM N:DGM N:DGM N:DGM N:DGM N:DGM N:DGM N:DGM N:DGM N:DGM N:DGM N:DGM N:DGM N:DGM N:DGM N:DGM N:DGM N:DGM N:DGM N:DGM N:DGM N:DGM N:DGM N:DGM N:DGM N:DGM M;11DGM M;11DGM M;11DGM M;11DGM M;11DGM M;11DGM M;11DGM M;11DGM M;11DGM M;11DGM M;11DGM M;11DGM M;11DGM M;11DGM M;11DGM M;11DGM M;11DGM M;11DGM M;11DGM M;11DGM M;11DGM M;11DGM M;11DGM M;11DGM M;11DGM M;11DGM M;11DGM M;11DGM M;11DGM M;11DGM M;11DGM M;11DGM M;11DGM M;11DGM M;11DGM M;11DGM M;11DGM M;11DGM M;11DGM M;11DGM M;11DGM M;11DGM M;11DGM M;11DGM M;11DGM M;11DGM M;11DGM M;11DGM M;11DGM M;11DGM M;11DGM M;11DGM M;11DGM M;11DGM M;11DGM M;11DGM M;11DGM M;11DGM M;11DGM M;11DGM M;11DGM M;11DGM M;11DGM M;11DGM N;11DGM N;11DGM N;11DGM N;11DGM N;11DGM N;11DGM N;11DGM N;11DGM N;11DGM N;11DGM N;11DGM N;11DGM N;11DGM N;11DGM N;11DGM N;11DGM N;11DGM N;11DGM N;11DGM N;11DGM N;11DGM N;11DGM N;11DGM N;11DGM N;11DGM N;11DGM N;11DGM N;11DGM N;11DGM N;11DGM N;11DGM N;11DGM N;11DGM N;11DGM N;11DGM N;11DGM N;11DGM N;11DGM N;11DGM N;11DGM N;11DGM N;11DGM N;11DGM N;11DGM N;11DGM N;11DGM N;11DGM N;11DGM N;11DGM N;11DGM N;11DGM N;11DGM N;11DGM N;11DGM N;11DGM N;11DGM N;11DGM N;11DGM N;11DGM N;11DGM N;11DGM N;11DGM N;11DGM N;11DGM M;11DGM M;11DGM M;11DGM M;11DGM M;11DGM M;11DGM M;11DGM M;11DGM M;11DGM M;11DGM M;11DGM M;11DGM M;11DGM M;11DGM M;11DGM M;11DGM M;11DGM M;11DGM M;11DGM M;11DGM M;11DGM M;11DGM M;11DGM M;11DGM M;11DGM M;11DGM M;11DGM M;11DGM M;11DGM M;11DGM M;11DGM M;11DGM M;11DGM M;11DGM M;11DGM M;11DGM M;11DGM M;11DGM M;11DGM M;11DGM M;11DGM M;11DGM M;11DGM M;11DGM M;11DGM M;11DGM M;11DGM M;11DGM M;11DGM M;11DGM M;11DGM M;11DGM M;11DGM M;11DGM M;11DGM M;11DGM M;11DGM M;11DGM M;11DGM M;11DGM M;11DGM M;11DGM M;11DGM M;11DGM N;11DGM N;11DGM N;11DGM N;11DGM N;11DGM N;11DGM N;11DGM N;11DGM N;11DGM N;11DGM N;11DGM N;11DGM N;11DGM N;11DGM N;11DGM N;11DGM N;11DGM N;11DGM N;11DGM N;11DGM N;11DGM N;11DGM N;11DGM N;11DGM N;11DGM N;11DGM N;11DGM N;11DGM N;11DGM N;11DGM N;11DGM N;11DGM N;11DGM N;11DGM N;11DGM N;11DGM N;11DGM N;11DGM N;11DGM N;11DGM N;11DGM N;11DGM N;11DGM N;11DGM N;11DGM N;11DGM N;11DGM N;11DGM N;11DGM N;11DGM N;11DGM N;11DGM N;11DGM N;11DGM N;11DGM N;11DGM N;11DGM N;11DGM N;11DGM N;11DGM N;11DGM N;11DGM N;11DGM N;11DGM M;11DGM M;11DGM M;11DGM M;11DGM M;11DGM M;11DGM M;11DGM M;11DGM M;11DGM M;11DGM M;11DGM M;11DGM M;11DGM M;11DGM M;11DGM M;11DGM M;11DGM M;11DGM M;11DGM M;11DGM M;11DGM M;11DGM M;11DGM M;11DGM M;11DGM M;11DGM M;11DGM M;11DGM M;11DGM M;11DGM M;11DGM M;11DGM M;11DGM M;11DGM M;11DGM M;11DGM M;11DGM M;11DGM M;11DGM M;11DGM M;11DGM M;11DGM M;11DGM M;11DGM M;11DGM M;11DGM M;11DGM M;11DGM M;11DGM M;11DGM M;11DGM M;11DGM M;11DGM M;11DGM M;11DGM M;11DGM M;11DGM M;11DGM M;11DGM M;11DGM M;11DGM M;11DGM M;11DGM M;11DGM N;11DGM N;11DGM N;11DGM N;11DGM N;11DGM N;11DGM N;11DGM N;11DGM N;11DGM N;11DGM N;11DGM N;11DGM N;11DGM N;11DGM N;11DGM N;11DGM N;11DGM N;11DGM N;11DGM N;11DGM N;11DGM N;11DGM N;11DGM N;11DGM N;11DGM N;11DGM N;11DGM N;11DGM N;11DGM N;11DGM N;11DGM N;11DGM N;11DGM N;11DGM N;11DGM N;11DGM N;11DGM N;11DGM N;DGM N;DGM N;DGM N;DGM N;DGM N;DGM N;DGM N;DGM N;DGM N;DGM N;DGM N;DGM N;DGM N;DGM N;DGM N;DGM N;DGM N;DGM N;DGM N;DGM N;DGM N;DGM N;DGM N;DGM N;DGM N;DGM M;DGM M;DGM M;DGM M;DGM M;DGM M;DGM M;DGM M;DGM M;DGM M;DGM M;DGM M;DGM M;DGM M;DGM M;DGM M;DGM M;DGM M;DGM M;DGM M;DGM M;DGM M;DGM M;DGM M;DGM M;DGM M;DGM M;DGM M;DGM M;DGM M;DGM M;DGM M;DGM M;DGM M;DGM M;DGM M;DGM M;DGM M;DGM M;DGM M;DGM M;DGM M;DGM M;DGM M;DGM M;DGM M;DGM M;DGM M;DGM M;DGM M;DGM M;DGM M;DGM M;DGM M;DGM M;DGM M;DGM M;DGM M;DGM M;DGM M;DGM M;DGM M;DGM M;DGM M;DGM N;DGM N;DGM N;DGM N;DGM N;DGM N;DGM N;DGM N;DGM N;DGM N;DGM N;DGM N;DGM N;DGM N;DGM N;DGM N;DGM N;DGM N;DGM N;DGM N;DGM N;DGM N;DGM N;DGM N;DGM N;DGM N;DGM N;DGM N;DGM N;DGM N;DGM N;DGM N;DGM N;DGM N;DGM N;DGM N;DGM N;DGM N;DGM N;DGM N;DGM N;DGM N;DGM N;DGM N;DGM N;DGM N;DGM N;DGM N;DGM N;DGM N;DGM N;DGM N;DGM N;DGM N;DGM N;DGM N;DGM N;DGM N;DGM N;DGM N;DGM N;DGM N;DGM N;DGM N;DGM M;%%DGM M;%%DGM M;%%DGM M;%%DGM M;%%DGM M;%%DGM M;%%DGM M;%%DGM M;%%DGM M;%%DGM M;%%DGM M;%%DGM M;%%DGM M;%%DGM M;%%DGM M;%%DGM M;%%DGM M;%%DGM M;%%DGM M;%%DGM M;%%DGM M;%%DGM M;%%DGM M;%%DGM M;%%DGM M;%%DGM M;%%DGM M;%%DGM M;%%DGM M;%%DGM M;%%DGM M;%%DGM M;%%DGM M;%%DGM M;%%DGM M;%%DGM M;%%DGM M;%%DGM M;%%DGM M;%%DGM M;%%DGM M;%%DGM M;%%DGM M;%%DGM M;%%DGM M;%%DGM M;%%DGM M;%%DGM M;%%DGM M;%%DGM M;%%DGM M;%%DGM M;%%DGM M;%%DGM M;%%DGM M;%%DGM M;%%DGM M;%%DGM M;%%DGM M;%%DGM M;%%DGM M;%%DGM M;%%DGM M;%%DGM N;%%DGM N;%%DGM N;%%DGM N;%%DGM N;%%DGM N;%%DGM N;%%DGM N;%%DGM N;%%DGM N;%%DGM N;%%DGM N;%%DGM N;%%DGM N;%%DGM N;%%DGM N;%%DGM N;%%DGM N;%%DGM N;%%DGM N;%%DGM N;%%DGM N;%%DGM N;%%DGM N;%%DGM N;%%DGM N;%%DGM N;%%DGM N;%%DGM N;%%DGM N;%%DGM N;%%DGM N;%%DGM N;%%DGM N;%%DGM N;%%DGM N;%%DGM N;%%DGM N;%%DGM N;%%DGM N;%%DGM N;%%DGM N;%%DGM N;%%DGM N;%%DGM N;%%DGM N;%%DGM N;%%DGM N;%%DGM N;%%DGM N;%%DGM N;%%DGM N;%%DGM N;%%DGM N;%%DGM N;%%DGM N;%%DGM N;%%DGM N;%%DGM N;%%DGM N;%%DGM N;%%DGM N;%%DGM N;%%DGM N;%%DGM M;%%DGM M;%%DGM M;%%DGM M;%%DGM M;%%DGM M;%%DGM M;%%DGM M;%%DGM M;%%DGM M;%%DGM M;%%DGM M;%%DGM M;%%DGM M;%%DGM M;%%DGM M;%%DGM M;%%DGM M;%%DGM M;%%DGM M;%%DGM M;%%DGM M;%%DGM M;%%DGM M;%%DGM M;%%DGM M;%%DGM M;%%DGM M;%%DGM M;%%DGM M;%%DGM M;%%DGM M;%%DGM M;%%DGM M;%%DGM M;%%DGM M;%%DGM M;%%DGM M;%%DGM M;%%DGM M;%%DGM M;%%DGM M;%%DGM M;%%DGM M;%%DGM M;%%DGM M;%%DGM M;%%DGM M;%%DGM M;%%DGM M;%%DGM M;%%DGM M;%%DGM M;%%DGM M;%%DGM M;%%DGM M;%%DGM M;%%DGM M;%%DGM M;%%DGM M;%%DGM M;%%DGM M;%%DGM M;%%DGM M;%%DGM N;%%DGM N;%%DGM N;%%DGM N;%%DGM N;%%DGM N;%%DGM N;%%DGM N;%%DGM N;%%DGM N;%%DGM N;%%DGM N;%%DGM N;%%DGM N;%%DGM N;%%DGM N;%%DGM N;%%DGM N;%%DGM N;%%DGM N;%%DGM N;%%DGM N;%%DGM N;%%DGM N;%%DGM N;%%DGM N;%%DGM N;%%DGM N;%%DGM N;%%DGM N;%%DGM N;%%DGM N;%%DGM N;%%DGM N;%%DGM N;%%DGM N;%%DGM N;%%DGM N;%%DGM N;%%DGM N;%%DGM N;%%DGM N;%%DGM N;%%DGM N;%%DGM N;%%DGM N;%%DGM N;%%DGM N;%%DGM N;%%DGM N;%%DGM N;%%DGM N;%%DGM N;%%DGM N;%%DGM N;%%DGM N;%%DGM N;%%DGM N;%%DGM N;%%DGM N;%%DGM N;%%DGM N;%%DGM N;%%DGM N;%%DGM M:%%DGM M:%%DGM M:%%DGM M:%%DGM M:%%DGM M:%%DGM M:%%DGM M:%%DGM M:%%DGM M:%%DGM M:%%DGM M:%%DGM M:%%DGM M:%%DGM M:%%DGM M:%%DGM M:%%DGM M:%%DGM M:%%DGM M:%%DGM M:%%DGM M:%%DGM M:%%DGM M:%%DGM M:%%DGM M:%%DGM M:%%DGM M:%%DGM M:%%DGM M:%%DGM M:%%DGM M:%%DGM M:%%DGM M:%%DGM M:%%DGM M:%%DGM M:%%DGM M:%%DGM M:%%DGM M:%%DGM M:%%DGM M:%%DGM M:%%DGM M:%%DGM M:%%DGM M:%%DGM M:%%DGM M:%%DGM M:%%DGM M:%%DGM M:%%DGM M:%%DGM M:%%DGM M:%%DGM M:%%DGM M:%%DGM M:%%DGM M:%%DGM M:%%DGM M:%%DGM M:%%DGM M:%%DGM M:%%DGM M:%%DGM N:%%DGM N:%%DGM N:%%DGM N:%%DGM N:%%DGM N:%%DGM N:%%DGM N:%%DGM N:%%DGM N:%%DGM N:%%DGM N:%%DGM N:%%DGM N:%%DGM N:%%DGM N:%%DGM N:%%DGM N:%%DGM N:%%DGM N:%%DGM N:%%DGM N:%%DGM N:%%DGM N:%%DGM N:%%DGM N:%%DGM N:%%DGM N:%%DGM N:%%DGM N:%%DGM N:%%DGM N:%%DGM N:%%DGM N:%%DGM N:%%DGM N:%%DGM N:%%DGM N:%%DGM N:DGM N:DGM N:DGM N:DGM N:DGM N:DGM N:DGM N:DGM N:DGM N:DGM N:DGM N:DGM N:DGM N:DGM N:DGM N:DGM N:DGM N:DGM N:DGM N:DGM N:DGM N:DGM N:DGM N:DGM N:DGM N:DGM M:DGM M:DGM M:DGM M:DGM M:DGM M:DGM M:DGM M:DGM M:DGM M:DGM M:DGM M:DGM M:DGM M:DGM M:DGM M:DGM M:DGM M:DGM M:DGM M:DGM M:DGM M:DGM M:DGM M:DGM M:DGM M:DGM M:DGM M:DGM M:DGM M:DGM M:DGM M:DGM M:DGM M:DGM M:DGM M:DGM M:DGM M:DGM M:DGM M:DGM M:DGM M:DGM M:DGM M:DGM M:DGM M:DGM M:DGM M:DGM M:DGM M:DGM M:DGM M:DGM M:DGM M:DGM M:DGM M:DGM M:DGM M:DGM M:DGM M:DGM M:DGM M:DGM M:DGM M:DGM N:DGM N:DGM N:DGM N:DGM N:DGM N:DGM N:DGM N:DGM N:DGM N:DGM N:DGM N:DGM N:DGM N:DGM N:DGM N:DGM N:DGM N:DGM N:DGM N:DGM N:DGM N:DGM N:DGM N:DGM N:DGM N:DGM N:DGM N:DGM N:DGM N:DGM N:DGM N:DGM N:DGM N:DGM N:DGM N:DGM N:DGM N:DGM N:DGM N:DGM N:DGM N:DGM N:DGM N:DGM N:DGM N:DGM N:DGM N:DGM N:DGM N:DGM N:DGM N:DGM N:DGM N:DGM N:DGM N:DGM N:DGM N:DGM N:DGM N:DGM N:DGM N:DGM N:DGM N:DGM M;%%DGM M;%%DGM M;%%DGM M;%%DGM M;%%DGM M;%%DGM M;%%DGM M;%%DGM M;%%DGM M;%%DGM M;%%DGM M;%%DGM M;%%DGM M;%%DGM M;%%DGM M;%%DGM M;%%DGM M;%%DGM M;%%DGM M;%%DGM M;%%DGM M;%%DGM M;%%DGM M;%%DGM M;%%DGM M;%%DGM M;%%DGM M;%%DGM M;%%DGM M;%%DGM M;%%DGM M;%%DGM M;%%DGM M;%%DGM M;%%DGM M;%%DGM M;%%DGM M;%%DGM M;%%DGM M;%%DGM M;%%DGM M;%%DGM M;%%DGM M;%%DGM M;%%DGM M;%%DGM M;%%DGM M;%%DGM M;%%DGM M;%%DGM M;%%DGM M;%%DGM M;%%DGM M;%%DGM M;%%DGM M;%%DGM M;%%DGM M;%%DGM M;%%DGM M;%%DGM M;%%DGM M;%%DGM M;%%DGM M;%%DGM N;%%DGM N;%%DGM N;%%DGM N;%%DGM N;%%DGM N;%%DGM N;%%DGM N;%%DGM N;%%DGM N;%%DGM N;%%DGM N;%%DGM N;%%DGM N;%%DGM N;%%DGM N;%%DGM N;%%DGM N;%%DGM N;%%DGM N;%%DGM N;%%DGM N;%%DGM N;%%DGM N;%%DGM N;%%DGM N;%%DGM N;%%DGM N;%%DGM N;%%DGM N;%%DGM N;%%DGM N;%%DGM N;%%DGM N;%%DGM N;%%DGM N;%%DGM N;%%DGM N;%%DGM N;%%DGM N;%%DGM N;%%DGM N;%%DGM N;%%DGM N;%%DGM N;%%DGM N;%%DGM N;%%DGM N;%%DGM N;%%DGM N;%%DGM N;%%DGM N;%%DGM N;%%DGM N;%%DGM N;%%DGM N;%%DGM N;%%DGM N;%%DGM N;%%DGM N;%%DGM N;%%DGM N;%%DGM N;%%DGM N;%%DGM M;%%DGM M;%%DGM M;%%DGM M;%%DGM M;%%DGM M;%%DGM M;%%DGM M;%%DGM M;%%DGM M;%%DGM M;%%DGM M;%%DGM M;%%DGM M;%%DGM M;%%DGM M;%%DGM M;%%DGM M;%%DGM M;%%DGM M;%%DGM M;%%DGM M;%%DGM M;%%DGM M;%%DGM M;%%DGM M;%%DGM M;%%DGM M;%%DGM M;%%DGM M;%%DGM M;%%DGM M;%%DGM M;%%DGM M;%%DGM M;%%DGM M;%%DGM M;%%DGM M;%%DGM M;%%DGM M;%%DGM M;%%DGM M;%%DGM M;%%DGM M;%%DGM M;%%DGM M;%%DGM M;%%DGM M;%%DGM M;%%DGM M;%%DGM M;%%DGM M;%%DGM M;%%DGM M;%%DGM M;%%DGM M;%%DGM M;%%DGM M;%%DGM M;%%DGM M;%%DGM M;%%DGM M;%%DGM M;%%DGM M;%%DGM N;%%DGM N;%%DGM N;%%DGM N;%%DGM N;%%DGM N;%%DGM N;%%DGM N;%%DGM N;%%DGM N;%%DGM N;%%DGM N;%%DGM N;%%DGM N;%%DGM N;%%DGM N;%%DGM N;%%DGM N;%%DGM N;%%DGM N;%%DGM N;%%DGM N;%%DGM N;%%DGM N;%%DGM N;%%DGM N;%%DGM N;%%DGM N;%%DGM N;%%DGM N;%%DGM N;%%DGM N;%%DGM N;%%DGM N;%%DGM N;%%DGM N;%%DGM N;%%DGM N;%%DGM N;%%DGM N;%%DGM N;%%DGM N;%%DGM N;%%DGM N;%%DGM N;%%DGM N;%%DGM N;%%DGM N;%%DGM N;%%DGM N;%%DGM N;%%DGM N;%%DGM N;%%DGM N;%%DGM N;%%DGM N;%%DGM N;%%DGM N;%%DGM N;%%DGM N;%%DGM N;%%DGM N;%%DGM N;%%DGM N;%%DGM M;%%DGM M;%%DGM M;%%DGM M;%%DGM M;%%DGM M;%%DGM M;%%DGM M;%%DGM M;%%DGM M;%%DGM M;%%DGM M;%%DGM M;%%DGM M;%%DGM M;%%DGM M;%%DGM M;%%DGM M;%%DGM M;%%DGM M;%%DGM M;%%DGM M;%%DGM M;%%DGM M;%%DGM M;%%DGM M;%%DGM M;%%DGM M;%%DGM M;%%DGM M;%%DGM M;%%DGM M;%%DGM M;%%DGM M;%%DGM M;%%DGM M;%%DGM M;%%DGM M;%%DGM M;%%DGM M;%%DGM M;%%DGM M;%%DGM M;%%DGM M;%%DGM M;%%DGM M;%%DGM M;%%DGM M;%%DGM M;%%DGM M;%%DGM M;%%DGM N;%%DGM N;%%DGM N;%%DGM N;%%DGM N;%%DGM N;%%DGM N;%%DGM N;%%DGM N;%%DGM N;%%DGM N;%%DGM N;%%DGM N;%%DGM N;%%DGM N;%%DGM N;%%DGM N;%%DGM N;%%DGM N;%%DGM N;%%DGM N;%%DGM N;%%DGM N;%%DGM N;%%DGM N;%%DGM N;%%DGM N;%%DGM N;%%DGM N;%%DGM N;%%DGM N;%%DGM N;%%DGM N;%%DGM N;%%DGM N;%%DGM N;%%DGM N;%%DGM N;%%DGM N;%%DGM N;%%DGM N;%%DGM N;%%DGM N;%%DGM N;%%DGM N;%%DGM N;%%DGM N;%%DGM N;%%DGM N;%%DGM N;%%DGM N;%%DGM M;DGM M;DGM M;DGM M;DGM M;DGM M;DGM M;DGM M;DGM M;DGM M;DGM M;DGM M;DGM M;DGM M;DGM M;DGM M;DGM M;DGM M;DGM M;DGM M;DGM M;DGM M;DGM M;DGM M;DGM M;DGM M;DGM M;DGM M;DGM M;DGM M;DGM M;DGM M;DGM M;DGM M;DGM M;DGM M;DGM M;DGM M;DGM M;DGM M;DGM M;DGM M;DGM M;DGM M;DGM M;DGM M;DGM M;DGM M;DGM M;DGM M;DGM M;DGM M;DGM K;DGM K;DGM K;DGM K;DGM K;DGM K;DGM K;DGM K;DGM K;DGM K;DGM K;DGM K;DGM K;DGM K;DGM K;DGM K;DGM K;DGM K;DGM K;DGM K;DGM K;DGM K;DGM K;DGM K;DGM K;DGM K;DGM K;DGM K;DGM K;DGM K;DGM K;DGM K;DGM K;DGM K;DGM K;DGM K;DGM K;DGM K;DGM K;DGM K;DGM K;DGM K;DGM K;DGM K;DGM K;DGM K;DGM K;DGM K;DGM K;DGM K;DGM K;DGM M;DGM M;DGM M;DGM M;DGM M;DGM M;DGM M;DGM M;DGM M;DGM M;DGM M;DGM M;DGM M;DGM M;DGM M;DGM M;DGM M;DGM M;DGM M;DGM M;DGM M;DGM M;DGM M;DGM M;DGM M;DGM M;DGM M;DGM M;DGM M;DGM M;DGM M;DGM M;DGM M;DGM M;DGM M;DGM M;DGM M;DGM M;DGM M;DGM M;DGM M;DGM M;DGM M;DGM M;DGM M;DGM M;DGM M;DGM M;DGM M;DGM M;DGM M;DGM N;**FIN N;**FIN N;**FIN N;**FIN N;**FIN N;**FIN N;**FIN N;**FIN N;**FIN N;**FIN N;**FIN N;**FIN N;**FIN N;**FIN N;**FIN N;**FIN N;**FIN N;**FIN N;**FIN N;**FIN N;**FIN N;**FIN N;**FIN N;**FIN N;**FIN N;**FIN N;**FIN N;**FIN N;**FIN N;**FIN N;**FIN N;**FIN N;**FIN N;**FIN N;**FIN N;**FIN N;**FIN N;**FIN N;**FIN N;**FIN N;**FIN N;**FIN N;**FIN N;**FIN N;**FIN N;**FIN N;**FIN N;**FIN N;**FIN N;**FIN N;**FIN N;**FIN N;**FIN N;**FIN N;**FIN N;**FIN N;**FIN N;**FIN N;**FIN N;**FIN N;**FIN N;**FIN N;**FIN N;**FIN N;**FIN N;**FIN N;**FIN N;**FIN N;**FIN N;**FIN N;**FIN N;**FIN N;**FIN N;**FIN N;**FIN N;**FIN N;**FIN N;**FIN N;**FIN N;**FIN N;**FIN N;**FIN N;**FIN N;**FIN N;**FIN N;**FIN N;**FIN N;**FIN N;**FIN N;**FIN N;**FIN N;**FIN N;**FIN N;**FIN N;**FIN N;**FIN N;**FIN N;**FIN N;**FIN N;**FIN N;**FIN N;**FIN N;**FIN N;**FIN N;**FIN N;**FIN N;**FIN N;**FIN N;**FIN N;**FIN N;**FIN N;**FIN N;**FIN N;**FIN N;**FIN N;**FIN N;**FIN N;**FIN N;**FIN N;**FIN N;**FIN N;**FIN N;**FIN N;**FIN N;**FIN N;**FIN N;**FIN N;**FIN N;**FIN N;**FIN N;**FIN N;**FIN N;**FIN N;**FIN N;**FIN N;**FIN N;**FIN N;**FIN N;**FIN N;**FIN N;**FIN N;**FIN N;**FIN N;**FIN N;**FIN N;**FIN N;**FIN N;**FIN N;**FIN N;**FIN N;**FIN N;**FIN N;**FIN N;**FIN N;**FIN N;**FIN N;**FIN N;**FIN N;**FIN N;**FIN N;**FIN N;**FIN N;**FIN N;**FIN N;**FIN N;**FIN N;**FIN N;**FIN N;**FIN N;**FIN N;**FIN L;**FIN L;**FIN L;**FIN L;**FIN L;**FIN L;**FIN L;**FIN L;**FIN L;**FIN L;**FIN L;**FIN L;**FIN L;**FIN L;**FIN L;**FIN L;**FIN L;**FIN L;**FIN L;**FIN L;**FIN L;**FIN L;**FIN L;**FIN L;**FIN L;**FIN L;**FIN L;**FIN L;**FIN L;**FIN L;**FIN L;**FIN L;**FIN L;**FIN L;**FIN L;**FIN L;**FIN L;**FIN L;**FIN L;**FIN L;**FIN L;**FIN L;**FIN L;**FIN L;**FIN L;**FIN L;**FIN L;**FIN L;**FIN L;**FIN L;**FIN L;**FIN L;**FIN L;**FIN L;**FIN L;**FIN L;**FIN L;**FIN L;**FIN L;**FIN L;**FIN L;**FIN L;**FIN L;**FIN L;**FIN L;**FIN L;**FIN L;**FIN L;**FIN L;**FIN L;**FIN L;**FIN L;**FIN L;**FIN L;**FIN L;**FIN L;**FIN L;**FIN L;**FIN L;**FIN L;**FIN L;**FIN L;**FIN L;**FIN L;**FIN L;**FIN L:**FIN L:**FIN L:**FIN L:**FIN L:**FIN L:**FIN L:**FIN L:**FIN L:**FIN L:**FIN L:**FIN L:**FIN L:**FIN L:**FIN L:**FIN L:**FIN L:**FIN L:**FIN L:**FIN L:**FIN L:**FIN L:**FIN L:**FIN L:**FIN L:**FIN L:**FIN L:**FIN L:**FIN L:**FIN L:**FIN L:**FIN L:**FIN L:**FIN L:**FIN L:**FIN L:**FIN L:**FIN L:**FIN L:**FIN L:**FIN L:**FIN L:**FIN L:**FIN L:**FIN L:**FIN L:**FIN L:**FIN L:**FIN L:**FIN L:**FIN L:**FIN L:**FIN L:**FIN L:**FIN L:**FIN L:**FIN L:**FIN L:**FIN L:**FIN L:**FIN L:**FIN L:**FIN L:**FIN L:**FIN L:**FIN L:**FIN L:**FIN L:**FIN L:**FIN L:**FIN L:**FIN L:**FIN L:**FIN L:**FIN L:**FIN L:**FIN L:**FIN L:**FIN L:**FIN L:**FIN L:**FIN L:**FIN L:**FIN L:**FIN L:**FIN J:**FIN J:**FIN J:**FIN J:**FIN J:**FIN J:**FIN J:**FIN J:**FIN J:**FIN J:**FIN J:**FIN J:**FIN J:**FIN J:**FIN J:**FIN J:**FIN J:**FIN J:FIN J:FIN J:FIN J:FIN J:FIN J:FIN J:FIN J:FIN J:FIN J:FIN J:FIN J:FIN J:FIN J:FIN J:FIN J:FIN J:FIN J:FIN J:FIN J:FIN J:FIN J:FIN J:FIN J:FIN J:FIN J:FIN J:FIN J:FIN J:FIN J:FIN J:FIN J:FIN J:FIN J:FIN J:FIN J:FIN J:FIN J:FIN J:FIN J:FIN J:FIN J:FIN J:FIN J:FIN J:FIN J:FIN J:FIN J:FIN J:FIN J:FIN J:FIN J:FIN J:FIN J:FIN J:FIN J:FIN J:FIN J:FIN J:FIN J:FIN J:FIN J:FIN J:FIN J:FIN J:FIN J:FIN J:FIN J:FIN J:FIN J:FIN J:FIN J:FIN J:FIN J:FIN J:FIN J:FIN J:FIN J:FIN J:FIN J:FIN J:FIN J:FIN J:FIN J:FIN J:FIN J:FIN J:FIN J:FIN J:FIN J:FIN J:FIN J:FIN J:FIN J:FIN J:FIN J:FIN J:FIN J:FIN J:FIN J:FIN J:FIN J:FIN J:FIN J:FIN J:FIN J:FIN J:FIN J:FIN J:FIN J:FIN J:FIN J:FIN J:FIN J:FIN J:FIN J:FIN J:FIN J:FIN J:FIN J:FIN J:FIN J:FIN J:FIN J:FIN J:FIN J:FIN J:FIN J:FIN J:FIN J:FIN J:FIN J:FIN J:FIN J:FIN J:FIN J:FIN J:FIN J:FIN J:FIN J:FIN J:FIN J:FIN J:FIN J:FIN J:FIN J:FIN J:FIN J:FIN J:FIN J:FIN J:FIN J:FIN J:FIN J:FIN I@6BF6 I@6BF6 I@6BF6 I@6BF6 I@6BF6 I@6BF6 I@6BF6 I@6BF6 I@6BF6 I@6BF6 I@6BF6 I@6BF6 I@6BF6 I@6BF6 I@6BF6 I@6BF6 I@6BF6 I@6BF6 I@6BF6 I@6BF6 I@6BF6 I@6BF6 I@6BF6 I@6BF6 I@6BF6 I@6BF6 I@6BF6 I@6BF6 I@6BF6 I@6BF6 I@6BF6 I@6BF6 I@6BF6 I@6BF6 I@6BF6 I@6BF6 I@6BF6 I@6BF6 I@6BF6 I@6BF6 I@6BF6 I@6BF6 I@6BF6 I@6BF6 I@6BF6 I@6BF6 I@6BF6 I@6BF6 I@6BF6 I@6BF6 I@6BF6 I@6BF6 I@6BF6 I@6BF6 I@6BF6 I@6BF6 I@6BF6 I@6BF6 I@6BF6 I@6BF6 I@6BF6 I@6BF6 I@6BF6 I@6BF6 I@6BF6 I@6BF6 I@6BF6 I@6BF6 I@6BF6 I@6BF6 I@6BF6 I@6BF6 I@6BF6 I@6BF6 I@6BF6 I@6BF6 I@6BF6 I@6BF6 I@6BF6 I@6BF6 I@6BF6 I@6BF6 I@6BF6 I@6BF6 I@6BF6 I@6BF6 I@6BF6 I@6BF6 I@6BF6 I@6BF6 I@6BF6 I@6BF6 I@6BF6 I@6BF6 I@6BF6 I@6BF6 I@6BF6 I@6BF6 I@6BF6 I@6BF6 I@6BF6 I@6BF6 I@6BF6 I@6BF6 I@6BF6 I@6BF6 I@6BF6 I@6BF6 I@6BF6 I@6BF6 I@6BF6 I@6BF6 I@6BF6 I@6BF6 I@6BF6 I@6BF6 I@6BF6 I@6BF6 I@6BF6 I@6BF6 I@6BF6 I@6BF6 I@6BF6 I@6BF6 I@6BF6 I@6BF6 I@6BF6 I@6BF6 I@6BF6 I@6BF6 I@6BF6 I@6BF6 I@6BF6 I@6BF6 I@6BF6 I@6BF6 I@6BF6 I@6BF6 I@6BF6 I@6BF6 I@6BF6 I@6BF6 I@6BF6 I@6BF6 I@6BF6 I@6BF6 I@6BF6 I@6BF6 I@6BF6 I@6BF6 I@6BF6 I@6BF6 I@6BF6 I@6BF6 I@6BF6 I@6BF6 I@6BF6 I@6BF6 I@6BF6 I@6BF6 I@6BF6 I@6BF6 I@6BF6 I@6BF6 I@6BF6 I@6BF6 I@6BF6 I@6BF6 I@6BF6 I@6BF6 I@6BF6 J@6BF6 J@6BF6 J@6BF6 J@6BF6 J@6BF6 J@6BF6 J@6BF6 J@6BF6 J@6BF6 J@6BF6 J@6BF6 J@6BF6 J@6BF6 J@6BF6 J@6BF6 J@6BF6 J@6BF6 J@6BF6 J@6BF6 J@6BF6 J@6BF6 J@6BF6 J@6BF6 J@6BF6 J@6BF6 J@6BF6 J@6BF6 J@6BF6 J@6BF6 J@6BF6 J@6BF6 J@6BF6 J@6BF6 J@6BF6 J@6BF6 J@6BF6 J@6BF6 J@6BF6 J@6BF6 J@6BF6 J@6BF6 J@6BF6 J@6BF6 J@6BF6 J@6BF6 J@6BF6 J@6BF6 J@6BF6 J@6BF6 J@6BF6 J@6BF6 J@6BF6 J@6BF6 J@6BF6 J@6BF6 J@6BF6 J@6BF6 J@6BF6 J@6BF6 J@6BF6 J@6BF6 J@6BF6 J@6BF6 J@6BF6 J@6BF6 J@6BF6 J@6BF6 J@6BF6 J@6BF6 J@6BF6 J@6BF6 J@6BF6 J@6BF6 J@6BF6 J@6BF6 J@6BF6 J@6BF6 J@6BF6 J@6BF6 J@6BF6 J@6BF6 J@6BF6 J@6BF6 J@6BF6 J@6BF6 J@6BF6 J@6BF6 J@6BF6 J@6BF6 J@6BF6 J@6BF6 J@6BF6 J@6BF6 J@6BF6 J@6BF6 J@6BF6 J@6BF6 J@6BF6 J@6BF6 J@6BF6 J@6BF6 J@6BF6 J@6BF6 J@6BF6 J@6BF6 J@6BF6 J@6BF6 J@6BF6 J@6BF6 J@6BF6 J@6BF6 J@6BF6 J@6BF6 J@6BF6 J@6BF6 J@6BF6 J@6BF6 J@6BF6 J@6BF6 J@6BF6 J@6BF6 J@6BF6 J@6BF6 J@6BF6 J@6BF6 J@6BF6 J@6BF6 J@6BF6 J@6BF6 J@6BF6 J@6BF6 J@6BF6 J@6BF6 J@6BF6 J@6BF6 J@6BF6 J@6BF6 J@6BF6 J@6BF6 J@6BF6 J@6BF6 J@6BF6 J@6BF6 J@6BF6 J@6BF6 J@6BF6 J@6BF6 J@6BF6 J@6BF6 J@6BF6 J@6BF6 J@6BF6 J@6BF6 J@6BF6 J@6BF6 J@6BF6 J@6BF6 J@6BF6 J@6BF6 J@6BF6 J@6BF6 J@6BF6 J@6BF6 J@6BF6 J@6BF6 J@6BF6 J@6BF6 J@6BF6 J@6BF6 J@6BF6 L@6BF6 L@6BF6 L@6BF6 L@6BF6 L@6BF6 L@6BF6 L@6BF6 L@6BF6 L@6BF6 L@6BF6 L@6BF6 L@6BF6 L@6BF6 L@6BF6 L@6BF6 L@6BF6 L@6BF6 L@6BF6 L@6BF6 L@6BF6 L@6BF6 L@6BF6 L@6BF6 L@6BF6 L@6BF6 L@6BF6 L@6BF6 L@6BF6 L@6BF6 L@6BF6 L@6BF6 L@6BF6 L@6BF6 L@6BF6 L@6BF6 L@6BF6 L@6BF6 L@6BF6 L@6BF6 L@6BF6 L@6BF6 L@6BF6 L@6BF6 L@6BF6 L@6BF6 L@6BF6 L@6BF6 L@6BF6 L@6BF6 L@6BF6 L@6BF6 L@6BF6 L@6BF6 L@6BF6 L@6BF6 L@6BF6 L@6BF6 L@6BF6 L@6BF6 L@6BF6 L@6BF6 L@6BF6 L@6BF6 L@6BF6 L@6BF6 L@6BF6 L@6BF6 L@6BF6 L@6BF6 L@6BF6 L@6BF6 L@6BF6 L@6BF6 L@6BF6 L@6BF6 L@6BF6 L@6BF6 L@6BF6 L@6BF6 L@6BF6 L@6BF6 L@6BF6 L@6BF6 L@6BF6 L@6BF6 L@6BF6 L@6BF6 L@6BF6 L@6BF6 L@6BF6 L@6BF6 L@6BF6 L@6BF6 L@6BF6 L@6BF6 L@6BF6 L@6BF6 L@6BF6 L@6BF6 L@6BF6 L@6BF6 L@6BF6 L@6BF6 L@6BF6 L@6BF6 L@6BF6 L@6BF6 L@6BF6 L@6BF6 L@6BF6 L@6BF6 L@6BF6 L@6BF6 L@6BF6 L@6BF6 L@6BF6 L@6BF6 L@6BF6 L@6BF6 L@6BF6 L@6BF6 L@6BF6 L@6BF6 L@6BF6 L@6BF6 L@6BF6 L@6BF6 L@6BF6 L@6BF6 L@6BF6 L@6BF6 L@6BF6 L@6BF6 L@6BF6 L@6BF6 L@6BF6 L@6BF6 L@6BF6 L@6BF6 L@6BF6 L@6BF6 L@6BF6 L@6BF6 L@6BF6 L@6BF6 L@6BF6 L@6BF6 L@6BF6 L@6BF6 L@6BF6 L@6BF6 L@6BF6 L@6BF6 L@6BF6 L@6BF6 L@6BF6 L@6BF6 L@6BF6 L@6BF6 L@6BF6 L@6BF6 L@6BF6 L@6BF6 L@6BF6 L@6BF6 L@6BF6 L@6BF6 L@6BF6 L@6BF6 L@6BF6 L@6BF6 J66G J66G J66G J66G J66G J66G J66G J66G J66G J66G J66G J66G J66G J66G J66G J66G J66G J66G J66G J66G J66G J66G J66G J66G J66G J66G J66G J66G J66G J66G J66G J66G J66G J66G J66G J66G J66G J66G J66G J66G J66G J66G J66G J66G J66G J66G J66G J66G J66G J66G J66G J66G J66G J66G J66G J66G J66G J66G J66G J66G J66G J66G J66G J66G J66G J66G J66G J66G J66G J66G J66G J66G J66G J66G J66G J66G J66G J66G J66G J66G J66G J66G J66G J66G J66G J66G J66G J66G J66G J66G J66G J66G J66G J66G J66G J66G J66G J66G J66G J66G J66G J66G J66G J66G J66G J66G J66G J66G J66G J66G J66G J66G J66G J66G J66G J66G J66G J66G J66G J66G J66G J66G J66G J66G J66G J66G J66G J66G J66G J66G J66G J66G J66G J66G J66G J66G J66G J66G J66G J66G J66G J66G J66G J66G J66G J66G J66G J66G J66G J66G J66G J66G J66G J66G J66G J66G J66G J66G J66G J66G J66G J66G J66G J66G J66G J66G J66G J66G J66G J66G J66G I66G I66G I66G I66G I66G I66G I66G I66G I66G I66G I66G I66G I66G I66G I66G I66G I66G I66G I66G I66G I66G I66G I66G I66G I66G I66G I66G I66G I66G I66G I66G I66G I66G I66G I66G I66G I66G I66G I66G I66G I66G I66G I66G I66G I66G I66G I66G I66G I66G I66G I66G I66G I66G I66G I66G I66G I66G I66G I66G I66G I66G I66G I66G I66G I66G I66G I66G I66G I66G I66G I66G I66G I66G I66G I66G I66G I66G I66G I66G I66G I66G I66G I66G I66G I66G I66G I66G I66G I66G I66G I66G I66G I66G I66G I66G I66G I66G I66G I66G I66G I66G I66G I66G I66G I66G I66G I66G I66G I66G I66G I66G I66G I66G I66G I66G I66G I66G I66G I66G I66G I66G I66G I66G I66G I66G I66G I66G I66G I66G I66G I66G I66G I66G I66G I66G I66G I66G I66G I66G I66G I66G I66G I66G I66G I66G I66G I66G I66G I66G I66G I66G I66G I66G I66G I66G I66G I66G I66G I66G I66G I66G I66G I66G I66G I66G I66G I66G I66G I66G I66G G66G G66G G66G G66G G66G G66G G66G G66G G66G G66G G66G G66G G66G G66G G66G G66G G66G G66G G66G G66G G66G G66G G66G G66G G66G G66G G66G G66G G66G G66G G66G G66G G66G G66G G66G G66G G66G G66G G66G G66G G66G G66G G66G G66G G66G G66G G66G G66G G66G G66G G66G G66G G66G G66G G66G G66G G66G G66G G66G G66G G66G G66G G66G G66G G66G G66G G66G G66G G66G GG GG GG GG GG GG GG GG GG GG GG GG GG GG GG GG GG GG GG GG GG GG GG GG GG GG GG GG GG GG GG GG GG GG GG GG GG GG GG GG GG GG GG GG GG GG GG GG GG GG GG GG GG GG GG GG GG GG GG GG GG GG GG GG GG GG GG GG GG GG GG GG GG GG GG GG GG GG GG GG GG GG GG GG GG GG GG GG GG GG GG GG GG GG GG GG GG GG GG GG GG GG FC44CI FC44CI FC44CI FC44CI FC44CI FC44CI FC44CI FC44CI FC44CI FC44CI FC44CI FC44CI FC44CI FC44CI FC44CI FC44CI FC44CI FC44CI FC44CI FC44CI FC44CI FC44CI FC44CI FC44CI FC44CI FC44CI FC44CI FC44CI FC44CI FC44CI FC44CI FC44CI FC44CI FC44CI FC44CI FC44CI FC44CI FC44CI FC44CI FC44CI FC44CI FC44CI FC44CI FC44CI FC44CI FC44CI FC44CI FC44CI FC44CI FC44CI FC44CI FC44CI FC44CI FC44CI FC44CI FC44CI FC44CI FC44CI FC44CI FC44CI FC44CI FC44CI FC44CI FC44CI FC44CI FC44CI FC44CI FC44CI FC44CI FC44CI FC44CI FC44CI FC44CI FC44CI FC44CI FC44CI FC44CI FC44CI FC44CI FC44CI FC44CI FC44CI FC44CI FC44CI FC44CI FC44CI FC44CI FC44CI FC44CI FC44CI FC44CI FC44CI FC44CI FC44CI FC44CI FC44CI FC44CI FC44CI FC44CI FC44CI FC44CI FC44CI FC44CI FC44CI FC44CI FC44CI FC44CI FC44CI FC44CI FC44CI FC44CI FC44CI FC44CI FC44CI FC44CI FC44CI FC44CI FC44CI FC44CI FC44CI FC44CI FC44CI FC44CI FC44CI FC44CI FC44CI FC44CI FC44CI FC44CI FC44CI FC44CI FC44CI FC44CI FC44CI FC44CI FC44CI FC44CI FC44CI FC44CI FC44CI FC44CI FC44CI FC44CI FC44CI FC44CI FC44CI FC44CI FC44CI FC44CI FC44CI FC44CI FC44CI FC44CI FC44CI FC44CI FC44CI FC44CI FC44CI FC44CI FC44CI FC44CI FC44CI FC44CI FC44CI FC44CI FC44CI FC44CI FC44CI FC44CI FC44CI FC44CI GC44CI GC44CI GC44CI GC44CI GC44CI GC44CI GC44CI GC44CI GC44CI GC44CI GC44CI GC44CI GC44CI GC44CI GC44CI GC44CI GC44CI GC44CI GC44CI GC44CI GC44CI GC44CI GC44CI GC44CI GC44CI GC44CI GC44CI GC44CI GC44CI GC44CI GC44CI GC44CI GC44CI GC44CI GC44CI GC44CI GC44CI GC44CI GC44CI GC44CI GC44CI GC44CI GC44CI GC44CI GC44CI GC44CI GC44CI GC44CI GC44CI GC44CI GC44CI GC44CI GC44CI GC44CI GC44CI GC44CI GC44CI GC44CI GC44CI GC44CI GC44CI GC44CI GC44CI GC44CI GC44CI GC44CI GC44CI GC44CI GC44CI GC44CI GC44CI GC44CI GC44CI GC44CI GC44CI GC44CI GC44CI GC44CI GC44CI GC44CI GC44CI GC44CI GC44CI GC44CI GC44CI GC44CI GC44CI GC44CI GC44CI GC44CI GC44CI GC44CI GC44CI GC44CI GC44CI GC44CI GC44CI GC44CI GC44CI GC44CI GC44CI GC44CI GC44CI GC44CI GC44CI GC44CI GC44CI GC44CI GC44CI GC44CI GC44CI GC44CI GC44CI GC44CI GC44CI GC44CI GC44CI GC44CI GC44CI GC44CI GC44CI GC44CI GC44CI GC44CI GC44CI GC44CI GC44CI GC44CI GC44CI GC44CI GC44CI GC44CI GC44CI GC44CI GC44CI GC44CI GC44CI GC44CI GC44CI GC44CI GC44CI GC44CI GC44CI GC44CI GC44CI GC44CI GC44CI GC44CI GC44CI GC44CI GC44CI GC44CI GC44CI GC44CI GC44CI GC44CI GC44CI GC44CI GC44CI GC44CI GC44CI GC44CI GC44CI GC44CI GC44CI GC44CI GC44CI GC44CI GC44CI GC44CI IC44CI IC44CI IC44CI IC44CI IC44CI IC44CI IC44CI IC44CI IC44CI IC44CI IC44CI IC44CI IC44CI IC44CI IC44CI IC44CI IC44CI ICCI ICCI ICCI ICCI ICCI ICCI ICCI ICCI ICCI ICCI ICCI ICCI ICCI ICCI ICCI ICCI ICCI ICCI ICCI ICCI ICCI ICCI ICCI ICCI ICCI ICCI ICCI ICCI ICCI ICCI ICCI ICCI ICCI ICCI ICCI ICCI ICCI ICCI ICCI ICCI ICCI ICCI ICCI ICCI ICCI ICCI ICCI ICCI ICCI ICCI ICCI ICCI ICCI ICCI ICCI ICCI ICCI ICCI ICCI ICCI ICCI ICCI ICCI ICCI ICCI ICCI ICCI ICCI ICCI ICCI ICCI ICCI ICCI ICCI ICCI ICCI ICCI ICCI ICCI ICCI ICCI ICCI ICCI ICCI ICCI ICCI ICCI ICCI ICCI ICCI ICCI ICCI ICCI ICCI ICCI ICCI ICCI ICCI ICCI ICCI ICCI ICCI ICCI ICCI ICCI ICCI ICCI ICCI ICCI ICCI ICCI ICCI ICCI ICCI ICCI ICCI ICCI ICCI ICCI ICCI ICCI ICCI ICCI ICCI ICCI ICCI ICCI ICCI ICCI ICCI ICCI ICCI ICCI ICCI ICCI ICCI ICCI ICCI ICCI ICCI ICCI ICCI ICCI ICCI ICCI ICCI ICCI ICCI ICCI ICCI ICCI ICCI ICCI ICCI BB22BJ BB22BJ BB22BJ BB22BJ BB22BJ BB22BJ BB22BJ BB22BJ BB22BJ BB22BJ BB22BJ BB22BJ BB22BJ BB22BJ BB22BJ BB22BJ BB22BJ BB22BJ BB22BJ BB22BJ BB22BJ BB22BJ BB22BJ BB22BJ BB22BJ BB22BJ BB22BJ BB22BJ BB22BJ BB22BJ BB22BJ BB22BJ BB22BJ BB22BJ BB22BJ BB22BJ BB22BJ BB22BJ BB22BJ BB22BJ BB22BJ BB22BJ BB22BJ BB22BJ BB22BJ BB22BJ BB22BJ BB22BJ BB22BJ BB22BJ BB22BJ BB22BJ BB22BJ BB22BJ BB22BJ BB22BJ BB22BJ BB22BJ BB22BJ BB22BJ BB22BJ BB22BJ BB22BJ BB22BJ BB22BJ BB22BJ BB22BJ BB22BJ BB22BJ BB22BJ BB22BJ BB22BJ BB22BJ BB22BJ BB22BJ BB22BJ BB22BJ BB22BJ BB22BJ BB22BJ BB22BJ BB22BJ BB22BJ BB22BJ BB22BJ BB22BJ BB22BJ BB22BJ BB22BJ BB22BJ BB22BJ BB22BJ BB22BJ BB22BJ BB22BJ BB22BJ BB22BJ BB22BJ BB22BJ BB22BJ BB22BJ BB22BJ BB22BJ BB22BJ BB22BJ BB22BJ BB22BJ BB22BJ BB22BJ BB22BJ BB22BJ BB22BJ BB22BJ BB22BJ BB22BJ BB22BJ BB22BJ BB22BJ BB22BJ BB22BJ BB22BJ BB22BJ BB22BJ BB22BJ BB22BJ BB22BJ BB22BJ BB22BJ BB22BJ BB22BJ BB22BJ BB22BJ BB22BJ BB22BJ BB22BJ BB22BJ BB22BJ BB22BJ BB22BJ BB22BJ BB22BJ BB22BJ BB22BJ BB22BJ BB22BJ BB22BJ BB22BJ BB22BJ BB22BJ BB22BJ BB22BJ BB22BJ BB22BJ BB22BJ BB22BJ BB22BJ BB22BJ BB22BJ BB22BJ BB22BJ BB22BJ BB22BJ BB22BJ BB22BJ BB22BJ BB22BJ BB22BJ BB22BJ BB22BJ BB22BJ BB22BJ BB22BJ BB22BJ BB22BJ BB22BJ BB22BJ BB22BJ BB22BJ BB22BJ BB22BJ BB22BJ BB22BJ BB22BJ BB22BJ BB22BJ BB22BJ BB22BJ BB22BJ BB22BJ BB22BJ BB22BJ BB22BJ BB22BJ BB22BJ BB22BJ BB22BJ BB22BJ BB22BJ BB22BJ BB22BJ BB22BJ BB22BJ BB22BJ BB22BJ BB22BJ BB22BJ BB22BJ BB22BJ BB22BJ BB22BJ BB22BJ BB22BJ BB22BJ BB22BJ BB22BJ BB22BJ BB22BJ BB22BJ BB22BJ BB22BJ BB22BJ BB22BJ BB22BJ BB22BJ BB22BJ BB22BJ BB22BJ BB22BJ BB22BJ BB22BJ BB22BJ BB22BJ BB22BJ BB22BJ BB22BJ BB22BJ BB22BJ BB22BJ BB22BJ BB22BJ BB22BJ BB22BJ BB22BJ BB22BJ BB22BJ BB22BJ BB22BJ BB22BJ BB22BJ BB22BJ BB22BJ BB22BJ BB22BJ BB22BJ BB22BJ BB22BJ B@22BJ B@22BJ B@22BJ B@22BJ B@22BJ B@22BJ B@22BJ B@22BJ B@22BJ B@22BJ B@22BJ B@22BJ B@22BJ B@22BJ B@22BJ B@22BJ B@22BJ B@22BJ B@22BJ B@22BJ B@22BJ B@22BJ B@22BJ B@22BJ B@22BJ B@22BJ B@22BJ B@22BJ B@22BJ B@22BJ B@22BJ B@22BJ B@22BJ B@22BJ B@22BJ B@22BJ B@22BJ B@22BJ B@22BJ B@22BJ B@22BJ B@22BJ B@22BJ B@22BJ B@22BJ B@22BJ B@22BJ B@22BJ B@22BJ B@22BJ B@22BJ B@22BJ B@22BJ B@22BJ B@22BJ B@22BJ B@22BJ B@22BJ B@22BJ B@22BJ B@22BJ B@22BJ B@22BJ B@22BJ B@22BJ B@22BJ B@22BJ B@22BJ B@22BJ B@22BJ B@22BJ B@22BJ B@22BJ B@22BJ B@22BJ B@22BJ B@22BJ B@22BJ B@22BJ B@22BJ B@22BJ B@22BJ B@22BJ B@22BJ B@22BJ B@22BJ B@22BJ B@22BJ B@22BJ B@22BJ B@22BJ B@22BJ B@22BJ B@22BJ B@22BJ B@22BJ B@22BJ B@22BJ B@22BJ B@22BJ B@22BJ B@22BJ B@BJ B@BJ B@BJ B@BJ B@BJ B@BJ B@BJ B@BJ B@BJ B@BJ B@BJ B@BJ B@BJ B@BJ B@BJ B@BJ B@BJ B@BJ B@BJ B@BJ B@BJ B@BJ B@BJ B@BJ B@BJ B@BJ B@BJ B@BJ B@BJ B@BJ B@BJ B@BJ B@BJ B@BJ B@BJ B@BJ B@BJ B@BJ B@BJ B@BJ B@BJ B@BJ B@BJ B@BJ B@BJ B@BJ B@BJ B@BJ B@BJ B@BJ B@BJ B@BJ B@BJ B@BJ B@BJ B@BJ B@BJ B@BJ B@BJ B@BJ B@BJ B@BJ B@BJ B@BJ B@BJ B@BJ B@BJ B@BJ B@BJ B@BJ B@BJ B@BJ B@BJ B@BJ B@BJ B@BJ B@BJ B@BJ B@BJ B@BJ B@BJ B@BJ B@BJ B@BJ B@BJ B@BJ B@BJ B@BJ B@BJ B@BJ B@BJ B@BJ B@BJ B@BJ B@BJ B@BJ B@BJ B@BJ B@BJ B@BJ B@BJ B@BJ B@BJ B@BJ B@BJ B@BJ B@BJ B@BJ B@BJ B@BJ B@BJ B@BJ B@BJ B@BJ B@BJ B@BJ B@BJ B@BJ B@BJ B@BJ B@BJ B@BJ B@BJ B@BJ B@BJ B@BJ B@BJ B@BJ B@BJ B@BJ B@BJ B@BJ B@BJ B@BJ B@BJ B@BJ B@BJ B@BJ B@BJ B@BJ B@BJ B@BJ B@BJ B@BJ B@BJ B@BJ B@BJ B@BJ B@BJ B@BJ B@BJ B@BJ B@BJ B@BJ >..@B >..@B >..@B >..@B >..@B >..@B >..@B >..@B >..@B >..@B >..@B >..@B >..@B >..@B >..@B >..@B >..@B >..@B >..@B >..@B >..@B >..@B >..@B >..@B >..@B >..@B >..@B >..@B >..@B >..@B >..@B >..@B >..@B >..@B >..@B >..@B >..@B >..@B >..@B >..@B >..@B >..@B >..@B >..@B >..@B >..@B >..@B >..@B >..@B >..@B >..@B >..@B >..@B >..@B >..@B >..@B >..@B >..@B >..@B >..@B >..@B >..@B >..@B >..@B >..@B >..@B >..@B >..@B >..@B >..@B >..@B >..@B >..@B >..@B >..@B >..@B >..@B >..@B >..@B >..@B >..@B >..@B >..@B >..@B >..@B >..@B >..@B >..@B >..@B >..@B >..@B >..@B >..@B >..@B >..@B >..@B >..@B >..@B >..@B >..@B >..@B >..@B >..@B >..@B >..@B >..@B >..@B >..@B >..@B >..@B >..@B >..@B >..@B >..@B >..@B >..@B >..@B >..@B >..@B >..@B >..@B >..@B >..@B >..@B >..@B >..@B >..@B >..@B >..@B >..@B >..@B >..@B >..@B >..@B >..@B >..@B >..@B >..@B >..@B >..@B >..@B >..@B >..@B >..@B >..@B >..@B >..@B >..@B >..@B >..@B >..@B >..@B >..@B >..@B >..@B >..@B >..@B >..@B >..@B >..@B >..@B >..@B >..@B >..@B >..@B >..@B >..@B >..@B >..@B >..@B >..@B >..@B >..@B >..@B >..@B >..@B >..@B >..@B >..@B >..@B >..@B >..@B >..@B >..@B >..@B >..@B >..@B >..@B >..@B >..@B >..@B >..@B >..@B >..@B >..@B >..@B >..@B >..@B >..@B >..@B >..@B >..@B >..@B >..@B >..@B >..@B >..@B >..@B >..@B >..@B >..@B >..@B >..@B >..@B >..@B >..@B >..@B >..@B >..@B >..@B >..@B >..@B >..@B >..@B >..@B >..@B >..@B >..@B >..@B >..@B >..@B >..@B >..@B >..@B >..@B >..@B >..@B >..@B >..@B >..@B >..@B >..@B >..@B >..@B >..@B >..@B >..@B >..@B >..@B >..@B >..@B >..@B >..@B >..@B >..@B >..@B =..@B =..@B =..@B =..@B =..@B =..@B =..@B =..@B =..@B =..@B =..@B =..@B =..@B =..@B =..@B =..@B =..@B =..@B =..@B =..@B =..@B =..@B =..@B =..@B =..@B =..@B =..@B =..@B =..@B =..@B =..@B =..@B =..@B =..@B =..@B =..@B =..@B =..@B =..@B =..@B =..@B =..@B =..@B =..@B =..@B =..@B =..@B =..@B =..@B =..@B =..@B =..@B =..@B =..@B =..@B =..@B =..@B =..@B =..@B =..@B =..@B =..@B =..@B =..@B =..@B =..@B =..@B =..@B =..@B =..@B =..@B =..@B =..@B =..@B =..@B =..@B =..@B =..@B =..@B =..@B =..@B =..@B =..@B =..@B =..@B =..@B =..@B =..@B =..@B =..@B =..@B =..@B =..@B =..@B =..@B =..@B =..@B =..@B =..@B =..@B =..@B =..@B =@B =@B =@B =@B =@B =@B =@B =@B =@B =@B =@B =@B =@B =@B =@B =@B =@B =@B =@B =@B =@B =@B =@B =@B =@B =@B =@B =@B =@B =@B =@B =@B =@B =@B =@B =@B =@B =@B =@B =@B =@B =@B =@B =@B =@B =@B =@B =@B =@B =@B =@B =@B =@B =@B =@B =@B =@B =@B =@B =@B =@B =@B =@B =@B =@B =@B =@B =@B =@B =@B =@B =@B =@B =@B =@B =@B =@B =@B =@B =@B =@B =@B =@B =@B =@B =@B =@B =@B =@B =@B =@B =@B =@B =@B =@B =@B =@B =@B =@B =@B =@B =@B =@B =@B =@B =@B =@B =@B =@B =@B =@B =@B =@B =@B =@B =@B =@B =@B =@B =@B =@B =@B =@B =@B =@B =@B =@B =@B =@B =@B =@B =@B =@B =@B =@B =@B =@B =@B =@B =@B =@B =@B =@B =@B =@B =@B =@B =@B =@B =@B =@B =@B =@B =@B >//>B >//>B >//>B >//>B >//>B >//>B >//>B >//>B >//>B >//>B >//>B >//>B >//>B >//>B >//>B >//>B >//>B >//>B >//>B >//>B >//>B >//>B >//>B >//>B >//>B >//>B >//>B >//>B >//>B >//>B >//>B >//>B >//>B >//>B >//>B >//>B >//>B >//>B >//>B >//>B >//>B >//>B >//>B >//>B >//>B >//>B >//>B >//>B >//>B >//>B >//>B >//>B >//>B >//>B >//>B >//>B >//>B >//>B >//>B >//>B >//>B >//>B >//>B >//>B >//>B >//>B >//>B >//>B >//>B >//>B >//>B >//>B >//>B >//>B >//>B >//>B >//>B >//>B >//>B >//>B >//>B >//>B >//>B >//>B >//>B >//>B >//>B >//>B >//>B >//>B >//>B >//>B >//>B >//>B >//>B >//>B >//>B >//>B >//>B >//>B >//>B >//>B >//>B >//>B >//>B >//>B >//>B >//>B >//>B >//>B >//>B >//>B >//>B >//>B >//>B >//>B >//>B >//>B >//>B >//>B >//>B >//>B >//>B >//>B >//>B >//>B >//>B >//>B >//>B >//>B >//>B >//>B >//>B >//>B >//>B >//>B >//>B >//>B >//>B >//>B >//>B >//>B >//>B >//>B >//>B >//>B >//>B >//>B >//>B >//>B >//>B >//>B >//>B >//>B >//>B >//>B >//>B >//>B >//>B >//>B >//>B >//>B >//>B >//>B >//>B >//>B >//>B >//>B >//>B >//>B >//>B >//>B >//>B >//>B >//>B >//>B >//>B >//>B >//>B >//>B >//>B >//>B >//>B >//>B >//>B >//>B >//>B >//>B >//>B >//>B >//>B >//>B >//>B >//>B >//>B >//>B >//>B >//>B >//>B >//>B >//>B >//>B >//>B >//>B >//>B >//>B >//>B >//>B >//>B >//>B >//>B >//>B >//>B >//>B >//>B >//>B >//>B >//>B >//>B >//>B >//>B >//>B >//>B >//>B >//>B >//>B >//>B >//>B >//>B >//>B >//>B >//>B >//>B >//>B >//>B >//>B >//>B >//>B >//>B >//>B >//>B >//>B >//>B >//>B >//>B >//>B >//>B >//>B >//>B >//>B >//>B >//>B >//>B >//>B >//>B >//>B ;//>B ;//>B ;//>B ;//>B ;//>B ;//>B ;//>B ;//>B ;//>B ;//>B ;//>B ;//>B ;//>B ;//>B ;//>B ;//>B ;//>B ;//>B ;//>B ;//>B ;//>B ;//>B ;//>B ;//>B ;//>B ;//>B ;//>B ;//>B ;//>B ;//>B ;//>B ;//>B ;//>B ;//>B ;//>B ;//>B ;//>B ;//>B ;//>B ;//>B ;//>B ;//>B ;//>B ;//>B ;//>B ;//>B ;//>B ;//>B ;//>B ;//>B ;//>B ;//>B ;//>B ;//>B ;//>B ;//>B ;//>B ;//>B ;//>B ;//>B ;//>B ;//>B ;//>B ;//>B ;//>B ;//>B ;//>B ;//>B ;//>B ;//>B ;//>B ;//>B ;//>B ;//>B ;//>B ;//>B ;//>B ;//>B ;//>B ;//>B ;//>B ;//>B ;//>B ;//>B ;//>B ;//>B ;//>B ;//>B ;//>B ;//>B ;//>B ;//>B ;//>B ;//>B ;//>B ;//>B ;//>B ;//>B ;//>B ;//>B ;//>B ;//>B ;>B ;>B ;>B ;>B ;>B ;>B ;>B ;>B ;>B ;>B ;>B ;>B ;>B ;>B ;>B ;>B ;>B ;>B ;>B ;>B ;>B ;>B ;>B ;>B ;>B ;>B ;>B ;>B ;>B ;>B ;>B ;>B ;>B ;>B ;>B ;>B ;>B ;>B ;>B ;>B ;>B ;>B ;>B ;>B ;>B ;>B ;>B ;>B ;>B ;>B ;>B ;>B ;>B ;>B ;>B ;>B ;>B ;>B ;>B ;>B ;>B ;>B ;>B ;>B ;>B ;>B ;>B ;>B ;>B ;>B ;>B ;>B ;>B ;>B ;>B ;>B ;>B ;>B ;>B ;>B ;>B ;>B ;>B ;>B ;>B ;>B ;>B ;>B ;>B ;>B ;>B ;>B ;>B ;>B ;>B ;>B ;>B ;>B ;>B ;>B ;>B ;>B ;>B ;>B ;>B ;>B ;>B ;>B ;>B ;>B ;>B ;>B ;>B ;>B ;>B ;>B ;>B ;>B ;>B ;>B ;>B ;>B ;>B ;>B ;>B ;>B ;>B ;>B ;>B ;>B ;>B ;>B ;>B ;>B ;>B ;>B ;>B ;>B ;>B ;>B ;>B ;>B ;>B ;>B ;>B ;>B ;>B ;>B ;>B ;>B ;>B ;>B ;>B ;>B :22BG :22BG :22BG :22BG :22BG :22BG :22BG :22BG :22BG :22BG :22BG :22BG :22BG :22BG :22BG :22BG :22BG :22BG :22BG :22BG :22BG :22BG :22BG :22BG :22BG :22BG :22BG :22BG :22BG :22BG :22BG :22BG :22BG :22BG :22BG :22BG :22BG :22BG :22BG :22BG :22BG :22BG :22BG :22BG :22BG :22BG :22BG :22BG :22BG :22BG :22BG :22BG :22BG :22BG :22BG :22BG :22BG :22BG :22BG :22BG :22BG :22BG :22BG :22BG :22BG :22BG :22BG :22BG :22BG :22BG :22BG :22BG :22BG :22BG :22BG :22BG :22BG :22BG :22BG :22BG :22BG :22BG :22BG :22BG :22BG :22BG :22BG :22BG :22BG :22BG :22BG :22BG :22BG :22BG :22BG :22BG :22BG :22BG :22BG :22BG :22BG :22BG :22BG :22BG :22BG :22BG :22BG :22BG :22BG :22BG :22BG :22BG :22BG :22BG :22BG :22BG :22BG :22BG :22BG :22BG :22BG :22BG :22BG :22BG :22BG :22BG :22BG :22BG :22BG :22BG :22BG :22BG :22BG :22BG :22BG :22BG :22BG :22BG :22BG :22BG :22BG :22BG :22BG :22BG :22BG :22BG :22BG :22BG :22BG :22BG :22BG :22BG :22BG :22BG :22BG :22BG :22BG :22BG :22BG :22BG :22BG :22BG :22BG :22BG :22BG :22BG :22BG :22BG :22BG :22BG :22BG :22BG :22BG :22BG :22BG :22BG :22BG :22BG :22BG :22BG :22BG :22BG :22BG :22BG :22BG :22BG :22BG :22BG :22BG :22BG :22BG :22BG :22BG :22BG :22BG :22BG :22BG :22BG :22BG :22BG :22BG :22BG :22BG :22BG :22BG :22BG :22BG :22BG :22BG :22BG :22BG :22BG :22BG :22BG :22BG :22BG :22BG :22BG :22BG :22BG :22BG :22BG :22BG :22BG :22BG :22BG :22BG :22BG :22BG :22BG :22BG :22BG :22BG :22BG :22BG :22BG :22BG :22BG :22BG :22BG :22BG :22BG :22BG :22BG :22BG :22BG :22BG :22BG :22BG :22BG :22BG :22BG :22BG :22BG :22BG :22BG ;22BG ;22BG ;22BG ;22BG ;22BG ;22BG ;22BG ;22BG ;22BG ;22BG ;22BG ;22BG ;22BG ;22BG ;22BG ;22BG ;22BG ;22BG ;22BG ;22BG ;22BG ;22BG ;22BG ;22BG ;22BG ;22BG ;22BG ;22BG ;22BG ;22BG ;22BG ;22BG ;22BG ;22BG ;22BG ;22BG ;22BG ;22BG ;22BG ;22BG ;22BG ;22BG ;22BG ;22BG ;22BG ;22BG ;22BG ;22BG ;22BG ;22BG ;22BG ;22BG ;22BG ;22BG ;22BG ;22BG ;22BG ;22BG ;22BG ;22BG ;22BG ;22BG ;22BG ;22BG ;22BG ;22BG ;22BG ;22BG ;22BG ;22BG ;22BG ;22BG ;22BG ;22BG ;22BG ;22BG ;22BG ;22BG ;22BG ;22BG ;22BG ;22BG ;22BG ;22BG ;22BG ;22BG ;22BG ;22BG ;22BG ;22BG ;22BG ;22BG ;22BG ;22BG ;22BG ;22BG ;22BG ;22BG ;22BG ;22BG ;22BG ;22BG ;BG ;BG ;BG ;BG ;BG ;BG ;BG ;BG ;BG ;BG ;BG ;BG ;BG ;BG ;BG ;BG ;BG ;BG ;BG ;BG ;BG ;BG ;BG ;BG ;BG ;BG ;BG ;BG ;BG ;BG ;BG ;BG ;BG ;BG ;BG ;BG ;BG ;BG ;BG ;BG ;BG ;BG ;BG ;BG ;BG ;BG ;BG ;BG ;BG ;BG ;BG ;BG ;BG ;BG ;BG ;BG ;BG ;BG ;BG ;BG ;BG ;BG ;BG ;BG ;BG ;BG ;BG ;BG ;BG ;BG ;BG ;BG ;BG ;BG ;BG ;BG ;BG ;BG ;BG ;BG ;BG ;BG ;BG ;BG ;BG ;BG ;BG ;BG ;BG ;BG ;BG ;BG ;BG ;BG ;BG ;BG ;BG ;BG ;BG ;BG ;BG ;BG ;BG ;BG ;BG ;BG ;BG ;BG ;BG ;BG ;BG ;BG ;BG ;BG ;BG ;BG ;BG ;BG ;BG ;BG ;BG ;BG ;BG ;BG ;BG ;BG ;BG ;BG ;BG ;BG ;BG ;BG ;BG ;BG ;BG ;BG ;BG ;BG ;BG ;BG ;BG ;BG ;BG ;BG ;BG ;BG ;BG ;BG ;BG ;BG ;BG ;BG ;BG ;BG 477@G 477@G 477@G 477@G 477@G 477@G 477@G 477@G 477@G 477@G 477@G 477@G 477@G 477@G 477@G 477@G 477@G 477@G 477@G 477@G 477@G 477@G 477@G 477@G 477@G 477@G 477@G 477@G 477@G 477@G 477@G 477@G 477@G 477@G 477@G 477@G 477@G 477@G 477@G 477@G 477@G 477@G 477@G 477@G 477@G 477@G 477@G 477@G 477@G 477@G 477@G 477@G 477@G 477@G 477@G 477@G 477@G 477@G 477@G 477@G 477@G 477@G 477@G 477@G 477@G 477@G 477@G 477@G 477@G 477@G 477@G 477@G 477@G 477@G 477@G 477@G 477@G 477@G 477@G 477@G 477@G 477@G 477@G 477@G 477@G 477@G 477@G 477@G 477@G 477@G 477@G 477@G 477@G 477@G 477@G 477@G 477@G 477@G 477@G 477@G 477@G 477@G 477@G 477@G 477@G 477@G 477@G 477@G 477@G 477@G 477@G 477@G 477@G 477@G 477@G 477@G 477@G 477@G 477@G 477@G 477@G 477@G 477@G 477@G 477@G 477@G 477@G 477@G 477@G 477@G 477@G 477@G 477@G 477@G 477@G 477@G 477@G 477@G 477@G 477@G 477@G 477@G 477@G 477@G 477@G 477@G 477@G 477@G 477@G 477@G 477@G 477@G 477@G 477@G 477@G 477@G 477@G 477@G 477@G 477@G 477@G 477@G 477@G 477@G 477@G 477@G 477@G 477@G 477@G 477@G 477@G 477@G 477@G 477@G 477@G 477@G 477@G 477@G 477@G 477@G 477@G 477@G 477@G 477@G 477@G 477@G 477@G 477@G 477@G 477@G 477@G 477@G 477@G 477@G 477@G 477@G 477@G 477@G 477@G 477@G 477@G 477@G 477@G 477@G 477@G 477@G 477@G 477@G 477@G 477@G 477@G 477@G 477@G 477@G 477@G 477@G 477@G 477@G 477@G 477@G 477@G 477@G 477@G 477@G 477@G 477@G 477@G 477@G 477@G 477@G 477@G 477@G 477@G 477@G 477@G 477@G 477@G 477@G 477@G 477@G 477@G 477@G 477@G 477@G 477@G 477@G 477@G 477@G 477@G 477@G 477@G 477@G 477@G 477@G 477@G 477@G >77@G >77@G >77@G >77@G >77@G >77@G >77@G >77@G >77@G >77@G >77@G >77@G >77@G >77@G >77@G >77@G >77@G >77@G >77@G >77@G >77@G >77@G >77@G >77@G >77@G >77@G >77@G >77@G >77@G >77@G >77@G >77@G >77@G >77@G >77@G >77@G >77@G >77@G >77@G >77@G >77@G >77@G >77@G >77@G >77@G >77@G >77@G >77@G >77@G >77@G >77@G >77@G >77@G >77@G >77@G >77@G >77@G >77@G >77@G >77@G >77@G >77@G >77@G >77@G >77@G >77@G >77@G >77@G >77@G >77@G >77@G >77@G >77@G >77@G >77@G >77@G >77@G >77@G >77@G >77@G >77@G >77@G >77@G >77@G >77@G >77@G >77@G >77@G >77@G >77@G >77@G >77@G >77@G >77@G >77@G >77@G >77@G >77@G >77@G >77@G >77@G >77@G >@G >@G >@G >@G >@G >@G >@G >@G >@G >@G >@G >@G >@G >@G >@G >@G >@G >@G >@G >@G >@G >@G >@G >@G >@G >@G >@G >@G >@G >@G >@G >@G >@G >@G >@G >@G >@G >@G >@G >@G >@G >@G >@G >@G >@G >@G >@G >@G >@G >@G >@G >@G >@G >@G >@G >@G >@G >@G >@G >@G >@G >@G >@G >@G >@G >@G >@G >@G >@G >@G >@G >@G >@G >@G >@G >@G >@G >@G >@G >@G >@G >@G >@G >@G >@G >@G >@G >@G >@G >@G >@G >@G >@G >@G >@G >@G >@G >@G >@G >@G >@G >@G >@G >@G >@G >@G >@G >@G >@G >@G >@G >@G >@G >@G >@G >@G >@G >@G >@G >@G >@G >@G >@G >@G >@G >@G >@G >@G >@G >@G >@G >@G >@G >@G >@G >@G >@G >@G >@G >@G >@G >@G >@G >@G >@G >@G >@G >@G >@G >@G >@G >@G >@G >@G =44CI =44CI =44CI =44CI =44CI =44CI =44CI =44CI =44CI =44CI =44CI =44CI =44CI =44CI =44CI =44CI =44CI =44CI =44CI =44CI =44CI =44CI =44CI =44CI =44CI =44CI =44CI =44CI =44CI =44CI =44CI =44CI =44CI =44CI =44CI =44CI =44CI =44CI =44CI =44CI =44CI =44CI =44CI =44CI =44CI =44CI =44CI =44CI =44CI =44CI =44CI =44CI =44CI =44CI =44CI =44CI =44CI =44CI =44CI =44CI =44CI =44CI =44CI =44CI =44CI =44CI =44CI =44CI =44CI =44CI =44CI =44CI =44CI =44CI =44CI =44CI =44CI =44CI =44CI =44CI =44CI =44CI =44CI =44CI =44CI =44CI =44CI =44CI =44CI =44CI =44CI =44CI =44CI =44CI =44CI =44CI =44CI =44CI =44CI =44CI =44CI =44CI =44CI =44CI =44CI =44CI =44CI =44CI =44CI =44CI =44CI =44CI =44CI =44CI =44CI =44CI =44CI =44CI =44CI =44CI =44CI =44CI =44CI =44CI =44CI =44CI =44CI =44CI =44CI =44CI =44CI =44CI =44CI =44CI =44CI =44CI =44CI =44CI =44CI =44CI =44CI =44CI =44CI =44CI =44CI =44CI =44CI =44CI =44CI =44CI =44CI =44CI =44CI =44CI =44CI =44CI =44CI =44CI =44CI =44CI =44CI =44CI =44CI =44CI =44CI =44CI =44CI =44CI =44CI =44CI =44CI =44CI =44CI =44CI =44CI =44CI =44CI =44CI =44CI =44CI =44CI =44CI =44CI =44CI =44CI =44CI =44CI =44CI =44CI =44CI =44CI =44CI =44CI =44CI =44CI =44CI =44CI =44CI =44CI =44CI =44CI =44CI =44CI =44CI =44CI =44CI =44CI =44CI =44CI =44CI =44CI =44CI =44CI =44CI =44CI =44CI =44CI =44CI =44CI =44CI =44CI =44CI =44CI =44CI =44CI =44CI =44CI =44CI =44CI =44CI =44CI =44CI =44CI =44CI =44CI =44CI =44CI =44CI =44CI =44CI =44CI =44CI =44CI =44CI =44CI =44CI =44CI =44CI =44CI =44CI =44CI =44CI =44CI =44CI =44CI =44CI ;44CI ;44CI ;44CI ;44CI ;44CI ;44CI ;44CI ;44CI ;44CI ;44CI ;44CI ;44CI ;44CI ;44CI ;44CI ;44CI ;44CI ;44CI ;44CI ;44CI ;44CI ;44CI ;44CI ;44CI ;44CI ;44CI ;44CI ;44CI ;44CI ;44CI ;44CI ;44CI ;44CI ;44CI ;44CI ;44CI ;44CI ;44CI ;44CI ;44CI ;44CI ;44CI ;44CI ;44CI ;44CI ;44CI ;44CI ;44CI ;44CI ;44CI ;44CI ;44CI ;44CI ;44CI ;44CI ;44CI ;44CI ;44CI ;44CI ;44CI ;44CI ;44CI ;44CI ;44CI ;44CI ;44CI ;44CI ;44CI ;44CI ;44CI ;44CI ;44CI ;44CI ;44CI ;44CI ;44CI ;44CI ;44CI ;44CI ;44CI ;44CI ;44CI ;44CI ;44CI ;44CI ;44CI ;44CI ;44CI ;44CI ;44CI ;44CI ;44CI ;44CI ;44CI ;44CI ;44CI ;44CI ;44CI ;44CI ;44CI ;44CI ;44CI ;CI ;CI ;CI ;CI ;CI ;CI ;CI ;CI ;CI ;CI ;CI ;CI ;CI ;CI ;CI ;CI ;CI ;CI ;CI ;CI ;CI ;CI ;CI ;CI ;CI ;CI ;CI ;CI ;CI ;CI ;CI ;CI ;CI ;CI ;CI ;CI ;CI ;CI ;CI ;CI ;CI ;CI ;CI ;CI ;CI ;CI ;CI ;CI ;CI ;CI ;CI ;CI ;CI ;CI ;CI ;CI ;CI ;CI ;CI ;CI ;CI ;CI ;CI ;CI ;CI ;CI ;CI ;CI ;CI ;CI ;CI ;CI ;CI ;CI ;CI ;CI ;CI ;CI ;CI ;CI ;CI ;CI ;CI ;CI ;CI ;CI ;CI ;CI ;CI ;CI ;CI ;CI ;CI ;CI ;CI ;CI ;CI ;CI ;CI ;CI ;CI ;CI ;CI ;CI ;CI ;CI ;CI ;CI ;CI ;CI ;CI ;CI ;CI ;CI ;CI ;CI ;CI ;CI ;CI ;CI ;CI ;CI ;CI ;CI ;CI ;CI ;CI ;CI ;CI ;CI ;CI ;CI ;CI ;CI ;CI ;CI ;CI ;CI ;CI ;CI ;CI ;CI ;CI ;CI ;CI ;CI ;CI ;CI ;CI ;CI ;CI ;CI ;CI ;CI 666BGJ 666BGJ 666BGJ 666BGJ 666BGJ 666BGJ 666BGJ 666BGJ 666BGJ 666BGJ 666BGJ 666BGJ 666BGJ 666BGJ 666BGJ 666BGJ 666BGJ 666BGJ 666BGJ 666BGJ 666BGJ 666BGJ 666BGJ 666BGJ 666BGJ 666BGJ 666BGJ 666BGJ 666BGJ 666BGJ 666BGJ 666BGJ 666BGJ 666BGJ 666BGJ 666BGJ 666BGJ 666BGJ 666BGJ 666BGJ 666BGJ 666BGJ 666BGJ 666BGJ 666BGJ 666BGJ 666BGJ 666BGJ 666BGJ 666BGJ 666BGJ 666BGJ 666BGJ 666BGJ 666BGJ 666BGJ 666BGJ 666BGJ 666BGJ 666BGJ 666BGJ 666BGJ 666BGJ 666BGJ 666BGJ 666BGJ 666BGJ 666BGJ 666BGJ 666BGJ 666BGJ 666BGJ 666BGJ 666BGJ 666BGJ 666BGJ 666BGJ 666BGJ 666BGJ 666BGJ 666BGJ 666BGJ 666BGJ 666BGJ 666BGJ 666BGJ 666BGJ 666BGJ 666BGJ 666BGJ 666BGJ 666BGJ 666BGJ 666BGJ 666BGJ 666BGJ 666BGJ 666BGJ 666BGJ 666BGJ 666BGJ 666BGJ 666BGJ 666BGJ 666BGJ 666BGJ 666BGJ 666BGJ 666BGJ 666BGJ 666BGJ 666BGJ 666BGJ 666BGJ 666BGJ 666BGJ 666BGJ 666BGJ 666BGJ 666BGJ 666BGJ 666BGJ 666BGJ 666BGJ 666BGJ 666BGJ 666BGJ 666BGJ 666BGJ 666BGJ 666BGJ 666BGJ 666BGJ 666BGJ 666BGJ 666BGJ 666BGJ 666BGJ 666BGJ 666BGJ 666BGJ 666BGJ 666BGJ 666BGJ 666BGJ 666BGJ 666BGJ 666BGJ 666BGJ 666BGJ 666BGJ 666BGJ 666BGJ 666BGJ 666BGJ 666BGJ 666BGJ 666BGJ 666BGJ 666BGJ 666BGJ 666BGJ 666BGJ 666BGJ 666BGJ 666BGJ 666BGJ 666BGJ 666BGJ 666BGJ 666BGJ 666BGJ 666BGJ 666BGJ 666BGJ 666BGJ 666BGJ 666BGJ 666BGJ 666BGJ 666BGJ 666BGJ 666BGJ 666BGJ 666BGJ 666BGJ 666BGJ 666BGJ 666BGJ 666BGJ 666BGJ 666BGJ 666BGJ 666BGJ 666BGJ 666BGJ 666BGJ 666BGJ 666BGJ 666BGJ 666BGJ 666BGJ 666BGJ 666BGJ 666BGJ 666BGJ 666BGJ 666BGJ 666BGJ 666BGJ 666BGJ 666BGJ 666BGJ 666BGJ 666BGJ 666BGJ 666BGJ 666BGJ 666BGJ 666BGJ 666BGJ 666BGJ 666BGJ 666BGJ 666BGJ 666BGJ 666BGJ 666BGJ 666BGJ 666BGJ 666BGJ 666BGJ 666BGJ 666BGJ 666BGJ 666BGJ 666BGJ 666BGJ 666BGJ 666BGJ 666BGJ 666BGJ 666BGJ 666BGJ 666BGJ 666BGJ 666BGJ 666BGJ 666BGJ 666BGJ 666BGJ 666BGJ 666BGJ 666BGJ 666BGJ 666BGJ ;66BGJ ;66BGJ ;66BGJ ;66BGJ ;66BGJ ;66BGJ ;66BGJ ;66BGJ ;66BGJ ;66BGJ ;66BGJ ;66BGJ ;66BGJ ;66BGJ ;66BGJ ;66BGJ ;66BGJ ;66BGJ ;66BGJ ;66BGJ ;66BGJ ;66BGJ ;66BGJ ;66BGJ ;66BGJ ;66BGJ ;66BGJ ;66BGJ ;66BGJ ;66BGJ ;66BGJ ;66BGJ ;66BGJ ;66BGJ ;66BGJ ;66BGJ ;66BGJ ;66BGJ ;66BGJ ;66BGJ ;66BGJ ;66BGJ ;66BGJ ;66BGJ ;66BGJ ;66BGJ ;66BGJ ;66BGJ ;66BGJ ;66BGJ ;66BGJ ;66BGJ ;66BGJ ;66BGJ ;66BGJ ;66BGJ ;66BGJ ;66BGJ ;66BGJ ;66BGJ ;66BGJ ;66BGJ ;66BGJ ;66BGJ ;66BGJ ;66BGJ ;66BGJ ;66BGJ ;66BGJ ;66BGJ ;66BGJ ;66BGJ ;66BGJ ;66BGJ ;66BGJ ;66BGJ ;66BGJ ;66BGJ ;66BGJ ;66BGJ ;66BGJ ;66BGJ ;66BGJ ;66BGJ ;66BGJ ;66BGJ ;66BGJ ;66BGJ ;66BGJ ;66BGJ ;66BGJ ;66BGJ ;66BGJ ;66BGJ ;66BGJ ;66BGJ ;66BGJ ;66BGJ ;66BGJ ;66BGJ ;66BGJ ;66BGJ ;BGJ ;BGJ ;BGJ ;BGJ ;BGJ ;BGJ ;BGJ ;BGJ ;BGJ ;BGJ ;BGJ ;BGJ ;BGJ ;BGJ ;BGJ ;BGJ ;BGJ ;BGJ ;BGJ ;BGJ ;BGJ ;BGJ ;BGJ ;BGJ ;BGJ ;BGJ ;BGJ ;BGJ ;BGJ ;BGJ ;BGJ ;BGJ ;BGJ ;BGJ ;BGJ ;BGJ ;BGJ ;BGJ ;BGJ ;BGJ ;BGJ ;BGJ ;BGJ ;BGJ ;BGJ ;BGJ ;BGJ ;BGJ ;BGJ ;BGJ ;BGJ ;BGJ ;BGJ ;BGJ ;BGJ ;BGJ ;BGJ ;BGJ ;BGJ ;BGJ ;BGJ ;BGJ ;BGJ ;BGJ ;BGJ ;BGJ ;BGJ ;BGJ ;BGJ ;BGJ ;BGJ ;BGJ ;BGJ ;BGJ ;BGJ ;BGJ ;BGJ ;BGJ ;BGJ ;BGJ ;BGJ ;BGJ ;BGJ ;BGJ ;BGJ ;BGJ ;BGJ ;BGJ ;BGJ ;BGJ ;BGJ ;BGJ ;BGJ ;BGJ ;BGJ ;BGJ ;BGJ ;BGJ ;BGJ ;BGJ ;BGJ ;BGJ ;BGJ ;BGJ ;BGJ ;BGJ ;BGJ ;BGJ ;BGJ ;BGJ ;BGJ ;BGJ ;BGJ ;BGJ ;BGJ ;BGJ ;BGJ ;BGJ ;BGJ ;BGJ ;BGJ ;BGJ ;BGJ ;BGJ ;BGJ ;BGJ ;BGJ ;BGJ ;BGJ ;BGJ ;BGJ ;BGJ ;BGJ ;BGJ ;BGJ ;BGJ ;BGJ ;BGJ ;BGJ ;BGJ ;BGJ ;BGJ ;BGJ ;BGJ ;BGJ ;BGJ ;BGJ ;BGJ ;BGJ ;BGJ ;BGJ ;BGJ ;BGJ ;BGJ =**@FI =**@FI =**@FI =**@FI =**@FI =**@FI =**@FI =**@FI =**@FI =**@FI =**@FI =**@FI =**@FI =**@FI =**@FI =**@FI =**@FI =**@FI =**@FI =**@FI =**@FI =**@FI =**@FI =**@FI =**@FI =**@FI =**@FI =**@FI =**@FI =**@FI =**@FI =**@FI =**@FI =**@FI =**@FI =**@FI =**@FI =**@FI =**@FI =**@FI =**@FI =**@FI =**@FI =**@FI =**@FI =**@FI =**@FI =**@FI =**@FI =**@FI =**@FI =**@FI =**@FI =**@FI =**@FI =**@FI =**@FI =**@FI =**@FI =**@FI =**@FI =**@FI =**@FI =**@FI =**@FI =**@FI =**@FI =**@FI =**@FI =**@FI =**@FI =**@FI =**@FI =**@FI =**@FI =**@FI =**@FI =**@FI =**@FI =**@FI =**@FI =**@FI =**@FI =**@FI =**@FI =**@FI =**@FI =**@FI =**@FI =**@FI =**@FI =**@FI =**@FI =**@FI =**@FI =**@FI =**@FI =**@FI =**@FI =**@FI =**@FI =**@FI =**@FI =**@FI =**@FI =**@FI =**@FI =**@FI =**@FI =**@FI =**@FI =**@FI =**@FI =**@FI =**@FI =**@FI =**@FI =**@FI =**@FI =**@FI =**@FI =**@FI =**@FI =**@FI =**@FI =**@FI =**@FI =**@FI =**@FI =**@FI =**@FI =**@FI =**@FI =**@FI =**@FI =**@FI =**@FI =**@FI =**@FI =**@FI =**@FI =**@FI =**@FI =**@FI =**@FI =**@FI =**@FI =**@FI =**@FI =**@FI =**@FI =**@FI =**@FI =**@FI =**@FI =**@FI =**@FI =**@FI =**@FI =**@FI =**@FI =**@FI =**@FI =**@FI =**@FI =**@FI =**@FI =**@FI =**@FI =**@FI =**@FI =**@FI =**@FI =**@FI =**@FI =**@FI =**@FI =**@FI =**@FI =**@FI =**@FI =**@FI =**@FI =**@FI =**@FI =**@FI =**@FI =**@FI =**@FI =**@FI =**@FI =**@FI =**@FI =**@FI =**@FI =**@FI =**@FI =**@FI =**@FI =**@FI =**@FI =**@FI =**@FI =**@FI =**@FI =**@FI =**@FI =**@FI =**@FI =**@FI =**@FI =**@FI =**@FI =**@FI =**@FI =**@FI =**@FI =**@FI =**@FI =**@FI =**@FI =**@FI =**@FI =**@FI =**@FI =**@FI =**@FI =**@FI =**@FI =**@FI =**@FI =**@FI =**@FI =**@FI =**@FI =**@FI =**@FI =**@FI =**@FI =**@FI =**@FI =**@FI =**@FI =**@FI =**@FI =**@FI =**@FI =**@FI =**@FI =**@FI =**@FI =**@FI =**@FI =**@FI =**@FI =**@FI :**@FI :**@FI :**@FI :**@FI :**@FI :**@FI :**@FI :**@FI :**@FI :**@FI :**@FI :**@FI :**@FI :**@FI :**@FI :**@FI :**@FI :**@FI :**@FI :**@FI :**@FI :**@FI :**@FI :**@FI :**@FI :**@FI :**@FI :**@FI :**@FI :**@FI :**@FI :**@FI :**@FI :**@FI :**@FI :**@FI :**@FI :**@FI :**@FI :**@FI :**@FI :**@FI :**@FI :**@FI :**@FI :**@FI :**@FI :**@FI :**@FI :**@FI :**@FI :**@FI :**@FI :**@FI :**@FI :**@FI :**@FI :**@FI :**@FI :**@FI :**@FI :**@FI :**@FI :**@FI :**@FI :**@FI :**@FI :**@FI :**@FI :**@FI :**@FI :**@FI :**@FI :**@FI :**@FI :**@FI :**@FI :**@FI :**@FI :**@FI :**@FI :**@FI :**@FI :**@FI :**@FI :**@FI :**@FI :**@FI :**@FI :**@FI :**@FI :**@FI :**@FI :**@FI :**@FI :**@FI :**@FI :**@FI :**@FI :**@FI :**@FI :**@FI :@FI :@FI :@FI :@FI :@FI :@FI :@FI :@FI :@FI :@FI :@FI :@FI :@FI :@FI :@FI :@FI :@FI :@FI :@FI :@FI :@FI :@FI :@FI :@FI :@FI :@FI :@FI :@FI :@FI :@FI :@FI :@FI :@FI :@FI :@FI :@FI :@FI :@FI :@FI :@FI :@FI :@FI :@FI :@FI :@FI :@FI :@FI :@FI :@FI :@FI :@FI :@FI :@FI :@FI :@FI :@FI :@FI :@FI :@FI :@FI :@FI :@FI :@FI :@FI :@FI :@FI :@FI :@FI :@FI :@FI :@FI :@FI :@FI :@FI :@FI :@FI :@FI :@FI :@FI :@FI :@FI :@FI :@FI :@FI :@FI :@FI :@FI :@FI :@FI :@FI :@FI :@FI :@FI :@FI :@FI :@FI :@FI :@FI :@FI :@FI :@FI :@FI :@FI :@FI :@FI :@FI :@FI :@FI :@FI :@FI :@FI :@FI :@FI :@FI :@FI :@FI :@FI :@FI :@FI :@FI :@FI :@FI :@FI :@FI :@FI :@FI :@FI :@FI :@FI :@FI :@FI :@FI :@FI :@FI :@FI :@FI :@FI :@FI :@FI :@FI :@FI :@FI :@FI :@FI :@FI :@FI :@FI :@FI :@FI :@FI :@FI :@FI :@FI :@FI ;>BG ;>BG ;>BG ;>BG ;>BG ;>BG ;>BG ;>BG ;>BG ;>BG ;>BG ;>BG ;>BG ;>BG ;>BG ;>BG ;>BG ;>BG ;>BG ;>BG ;>BG ;>BG ;>BG ;>BG ;>BG ;>BG ;>BG ;>BG ;>BG ;>BG ;>BG ;>BG ;>BG ;>BG ;>BG ;>BG ;>BG ;>BG ;>BG ;>BG ;>BG ;>BG ;>BG ;>BG ;>BG ;>BG ;>BG ;>BG ;>BG ;>BG ;>BG ;>BG ;>BG ;>BG ;>BG ;>BG ;>BG ;>BG ;>BG ;>BG ;>BG ;>BG ;>BG ;>BG ;>BG ;>BG ;>BG ;>BG ;>BG ;>BG ;>BG ;>BG ;>BG ;>BG ;>BG ;>BG ;>BG ;>BG ;>BG ;>BG ;>BG ;>BG ;>BG ;>BG ;>BG ;>BG ;>BG ;>BG ;>BG ;>BG ;>BG ;>BG ;>BG ;>BG ;>BG ;>BG ;>BG ;>BG ;>BG ;>BG ;>BG ;>BG ;>BG ;>BG ;>BG ;>BG ;>BG ;>BG ;>BG ;>BG ;>BG ;>BG ;>BG ;>BG ;>BG ;>BG ;>BG ;>BG ;>BG ;>BG ;>BG ;>BG ;>BG ;>BG ;>BG ;>BG ;>BG ;>BG ;>BG ;>BG ;>BG ;>BG ;>BG ;>BG ;>BG ;>BG ;>BG ;>BG ;>BG ;>BG ;>BG ;>BG ;>BG ;>BG ;>BG ;>BG ;>BG ;>BG ;>BG ;>BG ;>BG ;>BG ;>BG ;>BG ;>BG ;>BG ;>BG ;>BG ;>BG ;>BG ;>BG ;>BG ;>BG ;>BG ;>BG ;>BG ;>BG ;>BG ;>BG ;>BG ;>BG ;>BG ;>BG ;>BG ;>BG ;>BG ;>BG ;>BG ;>BG ;>BG ;>BG ;>BG ;>BG ;>BG ;>BG ;>BG ;>BG ;>BG ;>BG ;>BG ;>BG ;>BG ;>BG ;>BG ;>BG ;>BG ;>BG ;>BG ;>BG ;>BG ;>BG ;>BG ;>BG ;>BG ;>BG ;>BG ;>BG ;>BG ;>BG ;>BG ;>BG ;>BG ;>BG ;>BG ;>BG ;>BG ;>BG ;>BG ;>BG ;>BG ;>BG ;>BG ;>BG ;>BG ;>BG ;>BG ;>BG ;>BG ;>BG ;>BG ;>BG ;>BG ;>BG ;>BG ;>BG ;>BG ;>BG ;>BG ;>BG ;>BG ;>BG ;>BG ;>BG ;>BG ;>BG ;>BG ;>BG ;>BG ;>BG ;>BG ;>BG ;>BG ;>BG ;>BG ;>BG ;>BG ;>BG ;>BG ;>BG ;>BG ;>BG ;>BG ;>BG ;>BG ;>BG ;>BG ;>BG ;>BG ;>BG ;>BG ;>BG ;>BG ;>BG ;>BG ;>BG ;>BG ;>BG ;>BG ;>BG ;>BG ;>BG ;>BG ;>BG ;>BG ;>BG ;>BG ;>BG ;>BG ;>BG ;>BG ;>BG ;>BG ;>BG ;>BG ;>BG ;>BG ;>BG ;>BG ;>BG ;>BG ;>BG ;>BG ;>BG ;>BG ;>BG ;>BG ;>BG ;>BG ;>BG ;>BG ;>BG ;>BG ;>BG ;>BG ;>BG ;>BG ;>BG ;>BG ;>BG ;>BG ;>BG ;>BG ;>BG ;>BG ;>BG ;>BG ;>BG ;>BG ;>BG ;>BG ;>BG ;>BG ;>BG ;>BG ;>BG ;>BG ;>BG ;>BG ;>BG ;>BG ;>BG ;>BG ;>BG ;>BG ;>BG ;>BG ;>BG ;>BG ;>BG ;>BG ;>BG ;>BG ;>BG ;>BG ;>BG ;>BG ;>BG ;>BG ;>BG ;>BG ;>BG ;>BG ;>BG ;>BG ;>BG ;>BG ;>BG ;>BG ;>BG ;>BG ;>BG ;>BG ;>BG ;>BG ;>BG ;>BG ;>BG ;>BG ;>BG ;>BG ;>BG ;>BG ;>BG ;>BG ;>BG ;>BG ;>BG ;>BG ;>BG ;>BG ;>BG ;>BG ;>BG ;>BG ;>BG ;>BG ;>BG ;>BG ;>BG ;>BG ;>BG ;>BG ;>BG ;>BG ;>BG ;>BG ;>BG ;>BG ;>BG ;>BG ;>BG ;>BG ;>BG ;>BG ;>BG ;>BG ;>BG ;>BG ;>BG ;>BG ;>BG ;>BG ;>BG ;>BG ;>BG ;>BG ;>BG ;>BG ;>BG ;>BG ;>BG ;>BG ;>BG ;>BG ;>BG ;>BG ;>BG ;>BG ;>BG ;>BG ;>BG ;>BG ;>BG ;>BG ;>BG ;>BG ;>BG ;>BG ;>BG ;>BG ;>BG ;>BG ;>BG ;>BG ;>BG ;>BG ;>BG ;>BG ;>BG ;>BG ;>BG ;>BG ;>BG ;>BG ;>BG ;>BG ;>BG ;>BG ;>BG ;>BG ;>BG ;>BG ;>BG ;>BG ;>BG ;>BG ;>BG ;>BG ;>BG ;>BG ;>BG ;>BG ;>BG ;>BG ;>BG ;>BG ;>BG ;>BG ;>BG ;>BG ;>BG ;>BG ;>BG ;>BG ;>BG ;>BG ;>BG ;>BG ;>BG ;>BG ;>BG ;>BG ;>BG ;>BG ;>BG ;>BG ;>BG ;>BG ;>BG ;>BG ;>BG ;>BG ;//>BG ;//>BG ;//>BG ;//>BG ;//>BG ;//>BG ;//>BG ;//>BG ;//>BG ;//>BG ;//>BG ;//>BG ;//>BG ;//>BG ;//>BG ;//>BG ;//>BG ;//>BG ;//>BG ;//>BG ;//>BG ;//>BG ;//>BG ;//>BG ;//>BG ;//>BG ;//>BG ;//>BG ;//>BG ;//>BG ;//>BG ;//>BG ;//>BG ;//>BG ;//>BG ;//>BG ;//>BG ;//>BG ;//>BG ;//>BG ;//>BG ;//>BG ;//>BG ;//>BG ;//>BG ;//>BG ;//>BG ;//>BG ;//>BG ;//>BG ;//>BG ;//>BG ;//>BG ;//>BG ;//>BG ;//>BG ;//>BG ;//>BG ;//>BG ;//>BG ;//>BG ;//>BG ;//>BG ;//>BG ;//>BG ;//>BG ;//>BG ;//>BG ;//>BG ;//>BG ;//>BG ;//>BG ;//>BG ;//>BG ;//>BG ;//>BG ;//>BG ;//>BG ;//>BG ;//>BG ;//>BG ;//>BG ;//>BG ;//>BG ;//>BG ;//>BG ;//>BG ;//>BG ;//>BG ;//>BG ;//>BG ;//>BG ;//>BG ;//>BG ;//>BG ;//>BG ;//>BG ;//>BG ;//>BG ;//>BG ;//>BG ;//>BG ;//>BG ;//>BG ;//>BG ;//>BG ;//>BG ;//>BG ;//>BG ;//>BG ;//>BG ;//>BG ;//>BG ;//>BG ;//>BG ;//>BG ;//>BG ;//>BG ;//>BG ;//>BG ;//>BG ;//>BG ;//>BG ;//>BG ;//>BG ;//>BG ;//>BG ;//>BG ;//>BG ;//>BG ;//>BG ;//>BG ;//>BG ;//>BG ;//>BG ;//>BG ;//>BG ;//>BG ;//>BG ;//>BG ;//>BG ;//>BG ;//>BG ;//>BG ;//>BG ;//>BG ;//>BG ;//>BG ;//>BG ;//>BG ;//>BG ;//>BG ;//>BG ;//>BG ;//>BG ;//>BG ;//>BG ;//>BG ;//>BG ;//>BG ;//>BG ;//>BG ;//>BG ;//>BG ;//>BG ;//>BG ;//>BG ;//>BG ;//>BG ;//>BG ;//>BG ;//>BG ;//>BG ;//>BG ;//>BG ;//>BG ;//>BG ;//>BG ;//>BG ;//>BG ;//>BG ;//>BG ;//>BG ;//>BG ;//>BG ;//>BG ;//>BG ;//>BG ;//>BG ;//>BG ;//>BG ;//>BG ;//>BG ;//>BG ;//>BG ;//>BG ;//>BG ;//>BG ;//>BG ;//>BG ;//>BG ;//>BG ;//>BG ;//>BG ;//>BG ;//>BG ;//>BG ;//>BG ;//>BG ;//>BG ;//>BG ;//>BG ;//>BG ;//>BG ;//>BG ;//>BG ;//>BG ;//>BG ;//>BG ;//>BG ;//>BG ;//>BG ;//>BG ;//>BG ;//>BG ;//>BG ;//>BG ;//>BG ;//>BG ;//>BG ;//>BG ;//>BG ;//>BG ;//>BG ;//>BG ;//>BG ;//>BG ;//>BG ;//>BG ;//>BG ;//>BG ;//>BG ;//>BG ;//>BG ;//>BG ;//>BG ;//>BG ;//>BG ;//>BG ;//>BG ;//>BG ;//>BG ;//>BG ;//>BG ;//>BG ;//>BG ;//>BG ;//>BG ;//>BG ;//>BG ;//>BG ;//>BG ;//>BG ;//>BG ;//>BG ;//>BG ;//>BG ;//>BG ;//>BG ;//>BG ;//>BG ;//>BG ;//>BG ;//>BG ;//>BG ;//>BG ;//>BG ;//>BG ;//>BG ;//>BG ;//>BG ;//>BG ;//>BG ;//>BG ;//>BG ;//>BG ;//>BG ;//>BG ;//>BG ;//>BG ;//>BG ;//>BG ;//>BG ;//>BG ;//>BG ;//>BG ;//>BG ;//>BG ;//>BG ;//>BG ;//>BG ;//>BG ;//>BG ;//>BG ;//>BG ;//>BG ;//>BG ;//>BG ;//>BG ;//>BG ;//>BG ;//>BG ;//>BG ;//>BG ;//>BG ;//>BG ;//>BG ;//>BG ;//>BG ;//>BG ;//>BG ;//>BG ;//>BG ;//>BG ;//>BG ;//>BG ;//>BG ;//>BG ;//>BG ;//>BG ;//>BG ;//>BG ;//>BG ;//>BG ;//>BG ;//>BG ;//>BG ;//>BG ;//>BG ;//>BG ;//>BG ;//>BG ;//>BG ;//>BG ;//>BG ;//>BG ;//>BG ;//>BG ;//>BG ;//>BG ;//>BG ;//>BG ;//>BG ;//>BG ;//>BG ;//>BG ;//>BG ;//>BG ;>BG ;>BG ;>BG ;>BG ;>BG ;>BG ;>BG ;>BG ;>BG ;>BG ;>BG ;>BG ;>BG ;>BG ;>BG ;>BG ;>BG ;>BG ;>BG ;>BG ;>BG ;>BG ;>BG ;>BG ;>BG ;>BG ;>BG ;>BG ;>BG ;>BG ;>BG ;>BG ;>BG ;>BG ;>BG ;>BG ;>BG ;>BG ;>BG ;>BG ;>BG ;>BG ;>BG ;>BG ;>BG ;>BG ;>BG ;>BG ;>BG ;>BG ;>BG ;>BG ;>BG ;>BG ;>BG ;>BG ;>BG ;>BG ;>BG ;>BG ;>BG ;>BG ;>BG ;>BG ;>BG ;>BG ;>BG ;>BG ;>BG ;>BG ;>BG ;>BG ;>BG ;>BG ;>BG ;>BG ;>BG ;>BG ;>BG ;>BG ;>BG ;>BG ;>BG ;>BG ;>BG ;>BG ;>BG ;>BG ;>BG ;>BG ;>BG ;>BG ;>BG ;>BG ;>BG ;>BG ;>BG ;>BG ;>BG ;>BG ;>BG ;>BG ;>BG ;>BG ;>BG ;>BG ;>BG ;>BG ;>BG ;>BG ;>BG ;>BG ;>BG ;>BG ;>BG ;>BG ;>BG ;>BG ;>BG ;>BG ;>BG ;>BG ;>BG ;>BG ;>BG ;>BG ;>BG ;>BG ;>BG ;>BG ;>BG ;>BG ;>BG ;>BG ;>BG ;>BG ;>BG ;>BG ;>BG ;>BG ;>BG ;>BG ;>BG ;>BG ;>BG ;>BG ;>BG ;>BG ;>BG ;>BG ;>BG ;>BG ;>BG ;>BG 22 22 22 22 22 22 22 22 22 22 22 22 22 22 22 22 22 22 22 22 22 22 22 22 22 22 22 22 22 22 22 22 22 22 22 22 22 22 22 22 22 22 22 22 22 22 22 22 22 22 22 22 22 22 22 22 22 22 22 22 22 22 22 22 22 22 22 22 22 22 22 22 22 22 22 22 22 22 22 22 22 22 22 22 22 22 22 22 22 22 22 22 22 22 22 22 22 22 22 22 22 22 22 22 22 22 22 22 22 22 22 22 22 22 22 22 22 22 22 22 22 22 22 22 22 22 22 22 22 22 22 22 22 22 22 22 22 22 22 22 22 22 22 22 22 22 22 22 22 22 22 22 22 22 22 22 22 22 22 22 22 22 22 22 22 22 22 22 22 22 22 22 22 22 22 22 22 22 22 22 22 22 22 22 22 22 22 22 22 22 22 22 22 22 22 22 22 22 22 22 22 22 22 22 22 22 22 22 22 22 22 22 22 22 22 22 22 22 22 22 22 22 22 22 22 22 22 22 22 22 22 22 22 22 22 22 22 22 22 22 22 22 22 22 22 22 22 22 22 22 22 22 22 22 22 22 22 22 22 22 22 22 22 22 22 22 22 22 22 22 22 22 22 22 22 22 22 22 22 22 22 22 22 22 22 22 22 22 22 22 22 22 22 22 22 22 22 22 22 22 22 22 22 22 22 22 22 22 22 22 22 22 22 22 22 22 22 22 22 22 22 22 22 22 22 22 22 22 22 22 22 22 22 22 22 22 22 22 22 22 22 22 22 22 22 22 22 22 22 22 22 22 22 22 22 22 22 22                                                                                                                                                           66 66 66 66 66 66 66 66 66 66 66 66 66 66 66 66 66 66 66 66 66 66 66 66 66 66 66 66 66 66 66 66 66 66 66 66 66 66 66 66 66 66 66 66 66 66 66 66 66 66 66 66 66 66 66 66 66 66 66 66 66 66 66 66 66 66 66 66 66 66 66 66 66 66 66 66 66 66 66 66 66 66 66 66 66 66 66 66 66 66 66 66 66 66 66 66 66 66 66 66 66 66 66 66 66 66 66 66 66 66 66 66 66 66 66 66 66 66 66 66 66 66 66 66 66 66 66 66 66 66 66 66 66 66 66 66 66 66 66 66 66 66 66 66 66 66 66 66 66 66 66 66 66 66 66 66 66 66 66 66 66 66 66 66 66 66 66 66 66 66 66 66 66 66 66 66 66 66 66 66 66 66 66 66 66 66 66 66 66 66 66 66 66 66 66 66 66 66 66 66 66 66 66 66 66 66 66 66 66 66 66 66 66 66 66 66 66 66 66 66 66 66 66 66 66 66 66 66 66 66 66 66 66 66 66 66 66 66 66 66 66 66 66 66 66 66 66 66 66 66 66 66 66 66 66 66 66 66 66 66 66 66 66 66 66 66 66 66 66 66 66 66 66 66 66 66 66 66 66 66 66 66 66 66 66 66 66 66 66 66 66 66 66 66 66 66 66 66 66 66 66 66 66 66 66 66 66 66 66 66 66 66 66 66 66 66 66 66 66 66 66 66 66 66 66 66 66 66 66 66 66 66 66 66 66 66 66 66 66 66 66 66 66 66 66 66 66 66 66 66 66 66 66 66 66 66 66 66                                                                                                                                                           G;>G; G;>G; G;>G; G;>G; G;>G; G;>G; G;>G; G;>G; G;>G; G;>G; G;>G; G;>G; G;>G; G;>G; G;>G; G;>G; G;>G; G;>G; G;>G; G;>G; G;>G; G;>G; G;>G; G;>G; G;>G; G;>G; G;>G; G;>G; G;>G; G;>G; G;>G; G;>G; G;>G; G;>G; G;>G; G;>G; G;>G; G;>G; G;>G; G;>G; G;>G; G;>G; G;>G; G;>G; G;>G; G;>G; G;>G; G;>G; G;>G; G;>G; G;>G; G;>G; G;>G; G;>G; G;>G; G;>G; G;>G; G;>G; G;>G; G;>G; G;>G; G;>G; G;>G; G;>G; G;>G; G;>G; G;>G; G;>G; G;>G; G;>G; G;>G; G;>G; G;>G; G;>G; G;>G; G;>G; G;>G; G;>G; G;>G; G;>G; G;>G; G;>G; G;>G; G;>G; G;>G; G;>G; G;>G; G;>G; G;>G; G;>G; G;>G; G;>G; G;>G; G;>G; G;>G; G;>G; G;>G; G;>G; G;>G; G;>G; G;>G; G;>G; G;>G; G;>G; G;>G; G;>G; G;>G; G;>G; G;>G; G;>G; G;>G; G;>G; G;>G; G;>G; G;>G; G;>G; G;>G; G;>G; G;>G; G;>G; G;>G; G;>G; G;>G; G;>G; G;>G; G;>G; G;>G; G;>G; G;>G; G;>G; G;>G; G;>G; G;>G; G;>G; G;>G; G;>G; G;>G; G;>G; G;>G; G;>G; G;>G; G;>G; G;>G; G;>G; G;>G; G;>G; G;>G; G;>G; G;>G; G;>G; G;>G; G;>G; G;>G; G;>G; G;>G; G;>G; G;>G; G;>G; G;>G; G;>G; G;>G; G;>G; G;>G; G;>G; G;>G; G;>G; G;>G; G;>G; G;>G; G;>G; G;>G; G;>G; G;>G; G;>G; G;>G; G;>G; G;>G; G;>G; G;>G; G;>G; G;>G; G;>G; G;>G; G;>G; G;>G; G;>G; G;>G; G;>G; G;>G; G;>G; G;>G; G;>G; G;>G; G;>G; G;>G; G;>G; G;>G; G;>G; G;>G; G;>G; G;>G; G;>G; G;>G; G;>G; G;>G; G;>G; G;>G; G;>G; G;>G; G;>G; G;>G; G;>G; G;>G; G;>G; G;>G; G;>G; G;>G; G;>G; G;>G; G;>G; G;>G; G;>G; G;>G; G;>G; G;>G; G;>G; G;>G; G;>G; G;>G; G;>G; G;>G; G;>G; G;>G; G;>G; G;>G; G;>G; G;>G; G;>G; G;>G; G;>G; G;>G; G;>G; G;>G; G;>G; G;>G; G;>G; G;>G; G;>G; G;>G; G;>G; G;>G; G;>G; G;>G; G;>G; G;>G; G;>G; N;>G; N;>G; N;>G; N;>G; N;>G; N;>G; N;>G; N;>G; N;>G; N;>G; N;>G; N;>G; N;>G; N;>G; N;>G; N;>G; N;>G; N;>G; N;>G; N;>G; N;>G; N;>G; N;>G; N;>G; N;>G; N;>G; N;>G; N;>G; N;>G; N;>G; N;>G; N;>G; N;>G; N;>G; N;>G; N;>G; N;>G; N;>G; N;>G; N;>G; N;>G; N;>G; N;>G; N;>G; N;>G; N;>G; N;>G; N;>G; N;>G; N;>G; N;>G; N;>G; N;>G; N;>G; N;>G; N;>G; N;>G; N;>G; N;>G; N;>G; N;>G; N;>G; N;>G; N;>G; N;>G; N;>G; N;>G; N;>G; N;>G; N;>G; N;>G; N;>G; N;>G; N;>G; N;>G; N;>G; N;>G; N;>G; N;>G; N;>G; N;>G; N;>G; N;>G; N;>G; N;>G; N;>G; N;>G; N;>G; N;>G; N;>G; N;>G; N;>G; N;>G; N;>G; N;>G; N;>G; N;>G; N;>G; N;>G; N;>G; N;>G; N;>G; N;>G; N;>G; N;>G; N;>G; N;>G; N;>G; N;>G; N;>G; N;>G; N;>G; N;>G; N;>G; N;>G; N;>G; N;>G; N;>G; N;>G; N;>G; N;>G; N;>G; N;>G; N;>G; N;>G; N;>G; N;>G; N;>G; N;>G; N;>G; N;>G; N;>G; N;>G; N;>G; N;>G; N;>G; N;>G; N;>G; N;>G; N;>G; N;>G; N;>G; N;>G; N;>G; N;>G; N;>G; N;>G; N;>G; N;>G; N;>G; N;>G; N;>G; N;>G; N;>G; N;>G; N;>G; N;>G; N;>G; N;>G; N;>G; N;>G; N;>G; N;>G; N;>G; N;>G; N;>G; N;>G; N;>G; N;>G; N;>G; N;>G; N;>G; N;>G; N;>G; N;>G; N;>G; N;>G; N;>G; N;>G; N;>G; N;>G; N;>G; N;>G; N;>G; N;>G; N;>G; N;>G; N;>G; N;>G; N;>G; N;>G; N;>G; N;>G; N;>G; N;>G; N;>G; N;>G; N;>G; N;>G; N;>G; N;>G; N;>G; N;>G; N;>G; N;>G; N;>G; N;>G; N;>G; N;>G; N;>G; N;>G; N;>G; N;>G; N;>G; N;>G; N;>G; N;>G; N;>G; N;>G; N;>G; N;>G; N;>G; N;>G; N;>G; N;>G; N;>G; N;>G; N;>G; N;>G; N;>G; N;>G; N;>G; N;>G; N;>G; N;>G; N;>G; N;>G; N;>G; N;>G; N;>G; N;>G; N;>G; N;>G; N;>G; N;>G; N;>G; N;>G; N;>G; N;>G; N;>G; N;>G; N;>G; N;>G; N;>G; N;>G; N;>G; S;B; S;B; S;B; S;B; S;B; S;B; S;B; S;B; S;B; S;B; S;B; S;B; S;B; S;B; S;B; S;B; S;B; S;B; S;B; S;B; S;B; S;B; S;B; S;B; S;B; S;B; S;B; S;B; S;B; S;B; S;B; S;B; S;B; S;B; S;B; S;B; S;B; S;B; S;B; S;B; S;B; S;B; S;B; S;B; S;B; S;B; S;B; S;B; S;B; S;B; S;B; S;B; S;B; S;B; S;B; S;B; S;B; S;B; S;B; S;B; S;B; S;B; S;B; S;B; S;B; S;B; S;B; S;B; S;B; S;B; S;B; S;B; S;B; S;B; S;B; S;B; S;B; S;B; S;B; S;B; S;B; S;B; S;B; S;B; S;B; S;B; S;B; S;B; S;B; S;B; S;B; S;B; S;B; S;B; S;B; S;B; S;B; S;B; S;B; S;B; S;B; S;B; S;B; S;B; S;B; S;B; S;B; S;B; S;B; S;B; S;B; S;B; S;B; S;B; S;B; S;B; S;B; S;B; S;B; S;B; S;B; S;B; S;B; S;B; S;B; S;B; S;B; S;B; S;B; S;B; S;B; S;B; S;B; S;B; S;B; S;B; S;B; S;B; S;B; S;B; S;B; S;B; S;B; S;B; S;B; S;B; S;B; S;B; S;B; S;B; S;B; S;B; S;B; S;B; S;B; S;B; S;B; S;B; S;B; S;B; S;B; S;B; S;B; S;B; S;B; S;B; S;B; S;B; S;B; S;B; S;B; S;B; S;B; S;B; S;B; S;B; S;B; S;B; S;B; S;B; S;B; S;B; S;B; S;B; S;B; S;B; S;B; S;B; S;B; S;B; S;B; S;B; S;B; S;B; S;B; S;B; S;B; S;B; S;B; S;B; S;B; S;B; S;B; S;B; S;B; S;B; S;B; S;B; S;B; S;B; S;B; S;B; S;B; S;B; S;B; S;B; S;B; S;B; S;B; S;B; S;B; S;B; S;B; S;B; S;B; S;B; S;B; S;B; S;B; S;B; S;B; S;B; S;B; S;B; S;B; S;B; S;B; S;B; S;B; S;B; S;B; S;B; S;B; S;B; S;B; S;B; S;B; S;B; S;B; S;B; S;B; S;B; S;B; S;B; S;B; S;B; V;B; V;B; V;B; V;B; V;B; V;B; V;B; V;B; V;B; V;B; V;B; V;B; V;B; V;B; V;B; V;B; V;B; V;B; V;B; V;B; V;B; V;B; V;B; V;B; V;B; V;B; V;B; V;B; V;B; V;B; V;B; V;B; V;B; V;B; V;B; V;B; V;B; V;B; V;B; V;B; V;B; V;B; V;B; V;B; V;B; V;B; V;B; V;B; V;B; V;B; V;B; V;B; V;B; V;B; V;B; V;B; V;B; V;B; V;B; V;B; V;B; V;B; V;B; V;B; V;B; V;B; V;B; V;B; V;B; V;B; V;B; V;B; V;B; V;B; V;B; V;B; V;B; V;B; V;B; V;B; V;B; V;B; V;B; V;B; V;B; V;B; V;B; V;B; V;B; V;B; V;B; V;B; V;B; V;B; V;B; V;B; V;B; V;B; V;B; V;B; V;B; V;B; V;B; V;B; V;B; V;B; V;B; V;B; V;B; V;B; V;B; V;B; V;B; V;B; V;B; V;B; V;B; V;B; V;B; V;B; V;B; V;B; V;B; V;B; V;B; V;B; V;B; V;B; V;B; V;B; V;B; V;B; V;B; V;B; V;B; V;B; V;B; V;B; V;B; V;B; V;B; V;B; V;B; V;B; V;B; V;B; V;B; V;B; V;B; V;B; V;B; V;B; V;B; V;B; V;B; V;B; V;B; V;B; V;B; V;B; V;B; V;B; V;B; V;B; V;B; V;B; V;B; V;B; V;B; V;B; V;B; V;B; V;B; V;B; V;B; V;B; V;B; V;B; V;B; ;B; ;B; ;B; ;B; ;B; ;B; ;B; ;B; ;B; ;B; ;B; ;B; ;B; ;B; ;B; ;B; ;B; ;B; ;B; ;B; ;B; ;B; ;B; ;B; ;B; ;B; ;B; ;B; ;B; ;B; ;B; ;B; ;B; ;B; ;B; ;B; ;B; ;B; ;B; ;B; ;B; ;B; ;B; ;B; ;B; ;B; ;B; ;B; ;B; ;B; ;B; ;B; ;B; ;B; ;B; ;B; ;B; ;B; ;B; ;B; ;B; ;B; ;B; ;B; ;B; ;B; ;B; ;B; ;B; ;B; ;B; ;B; ;B; ;B; ;B; ;B; ;B; U;;@C U;;@C U;;@C U;;@C U;;@C U;;@C U;;@C U;;@C U;;@C U;;@C U;;@C U;;@C U;;@C U;;@C U;;@C U;;@C U;;@C U;;@C U;;@C U;;@C U;;@C U;;@C U;;@C U;;@C U;;@C U;;@C U;;@C U;;@C U;;@C U;;@C U;;@C U;;@C U;;@C U;;@C U;;@C U;;@C U;;@C U;;@C U;;@C U;;@C U;;@C U;;@C U;;@C U;;@C U;;@C U;;@C U;;@C U;;@C U;;@C U;;@C U;;@C U;;@C U;;@C U;;@C U;;@C U;;@C U;;@C U;;@C U;;@C U;;@C U;;@C U;;@C U;;@C U;;@C U;;@C U;;@C U;;@C U;;@C U;;@C U;;@C U;;@C U;;@C U;;@C U;;@C U;;@C U;;@C U;;@C U;;@C U;;@C U;;@C U;;@C U;;@C U;;@C U;;@C U;;@C U;;@C U;;@C U;;@C U;;@C U;;@C U;;@C U;;@C U;;@C U;;@C U;;@C U;;@C U;;@C U;;@C U;;@C U;;@C U;;@C U;;@C U;;@C U;;@C U;;@C U;;@C U;;@C U;;@C U;;@C U;;@C U;;@C U;;@C U;;@C U;;@C U;;@C U;;@C U;;@C U;;@C U;;@C U;;@C U;;@C U;;@C U;;@C U;;@C U;;@C U;;@C U;;@C U;;@C U;;@C U;;@C U;;@C U;;@C U;;@C U;;@C U;;@C U;;@C U;;@C U;;@C U;;@C U;;@C U;;@C U;;@C U;;@C U;;@C U;;@C U;;@C U;;@C U;;@C U;;@C U;;@C U;;@C U;;@C U;;@C U;;@C U;;@C U;;@C U;;@C U;;@C U;;@C U;;@C U;;@C U;;@C U;;@C U;;@C U;;@C U;;@C U;;@C U;;@C U;;@C U;;@C U;;@C U;;@C U;;@C U;;@C U;;@C U;;@C U;;@C U;;@C U;;@C U;;@C U;;@C U;;@C U;;@C U;;@C U;;@C U;;@C U;;@C U;;@C U;;@C U;;@C U;;@C U;;@C U;;@C U;;@C U;;@C U;;@C U;;@C U;;@C U;;@C U;;@C U;;@C U;;@C U;;@C U;;@C U;;@C U;;@C U;;@C U;;@C U;;@C U;;@C U;;@C U;;@C U;;@C U;;@C U;;@C U;;@C U;;@C U;;@C U;;@C U;;@C U;;@C U;;@C U;;@C U;;@C U;;@C U;;@C U;;@C U;;@C U;;@C U;;@C U;;@C U;;@C U;;@C U;;@C U;;@C U;;@C U;;@C U;;@C U;;@C U;;@C U;;@C U;;@C U;;@C U;;@C U;;@C U;;@C U;;@C U;;@C U;;@C U;;@C U;;@C U;;@C U;;@C U;;@C U;;@C U;;@C U;;@C U;;@C U;;@C U;;@C U;;@C U;;@C U;;@C U;;@C U;;@C U;;@C U;;@C U;;@C U;;@C U;;@C U;;@C U;;@C U;;@C U;;@C U;;@C U;;@C U;;@C U;;@C U;;@C U;;@C U;;@C U;;@C U;;@C U;;@C U;;@C U;;@C U;;@C U;;@C U;;@C U;;@C U;;@C U;;@C U;;@C U;;@C U;;@C U;;@C U;;@C U;;@C U;;@C U;;@C U;;@C U;;@C U;;@C U;;@C U;;@C U;;@C U;;@C U;;@C U;;@C U;;@C U;;@C U;;@C U;;@C U;;@C U;;@C U;;@C U;;@C U;;@C U;;@C U;;@C U;;@C U;;@C U;;@C U;;@C U;;@C U;;@C U;;@C U;;@C U;;@C U;;@C U;;@C U;;@C U;;@C U;;@C U;;@C U;;@C U;;@C U;;@C U;;@C U;;@C U;;@C U;;@C U;;@C U;;@C U;;@C U;;@C U;;@C U;;@C U;;@C U;;@C U;;@C U;;@C U;;@C U;;@C U;;@C U;;@C U;;@C U;;@C U@C U@C U@C U@C U@C U@C U@C U@C U@C U@C U@C U@C U@C U@C U@C U@C U@C U@C U@C U@C U@C U@C U@C U@C U@C U@C U@C U@C U@C U@C U@C U@C U@C U@C U@C U@C U@C U@C U@C U@C U@C U@C U@C U@C U@C U@C U@C U@C U@C U@C U@C U@C U@C U@C U@C U@C U@C U@C U@C U@C U@C U@C U@C U@C U@C U@C U@C U@C U@C U@C U@C U@C U@C U@C U@C U@C U@C U@C U@C U@C U@C U@C U@C U@C U@C U@C U@C U@C U@C U@C U@C U@C U@C U@C U@C U@C U@C U@C U@C U@C U@C U@C U@C @C @C @C @C @C @C @C @C @C @C @C @C @C @C @C @C @C @C @C @C @C @C @C @C @C @C @C @C @C @C @C @C @C @C @C @C @C @C @C @C @C @C @C @C @C @C @C @C @C @C @C L:=B: L:=B: L:=B: L:=B: L:=B: L:=B: L:=B: L:=B: L:=B: L:=B: L:=B: L:=B: L:=B: L:=B: L:=B: L:=B: L:=B: L:=B: L:=B: L:=B: L:=B: L:=B: L:=B: L:=B: L:=B: L:=B: L:=B: L:=B: L:=B: L:=B: L:=B: L:=B: L:=B: L:=B: L:=B: L:=B: L:=B: L:=B: L:=B: L:=B: L:=B: L:=B: L:=B: L:=B: L:=B: L:=B: L:=B: L:=B: L:=B: L:=B: L:=B: L:=B: L:=B: L:=B: L:=B: L:=B: L:=B: L:=B: L:=B: L:=B: L:=B: L:=B: L:=B: L:=B: L:=B: L:=B: L:=B: L:=B: L:=B: L:=B: L:=B: L:=B: L:=B: L:=B: L:=B: L:=B: L:=B: L:=B: L:=B: L:=B: L:=B: L:=B: L:=B: L:=B: L:=B: L:=B: L:=B: L:=B: L:=B: L:=B: L:=B: L:=B: L:=B: L:=B: L:=B: L:=B: L:=B: L:=B: L:=B: L:=B: L:=B: L:=B: L:=B: L:=B: L:=B: L:=B: L:=B: L:=B: L:=B: L:=B: L:=B: L:=B: L:=B: L:=B: L:=B: L:=B: L:=B: L:=B: L:=B: L:=B: L:=B: L:=B: L:=B: L:=B: L:=B: L:=B: L:=B: L:=B: L:=B: L:=B: L:=B: L:=B: L:=B: L:=B: L:=B: L:=B: L:=B: L:=B: L:=B: L:=B: L:=B: L:=B: L:=B: L:=B: L:=B: L:=B: L:=B: L:=B: L:=B: L:=B: L:=B: L:=B: L:=B: L:=B: L:=B: L:=B: L:=B: L:=B: L:=B: L:=B: L:=B: L:=B: L:=B: L:=B: L:=B: L:=B: L:=B: L:=B: L:=B: L:=B: L:=B: L:=B: L:=B: L:=B: L:=B: L:=B: L:=B: L:=B: L:=B: L:=B: L:=B: L:=B: L:=B: L:=B: L:=B: L:=B: L:=B: L:=B: L:=B: L:=B: L:=B: L:=B: L:=B: L:=B: L:=B: L:=B: L:=B: L:=B: L:=B: L:=B: L:=B: L:=B: L:=B: L:=B: L:=B: L:=B: L:=B: L:=B: L:=B: L:=B: L:=B: L:=B: L:=B: L:=B: L:=B: L:=B: L:=B: L:=B: L:=B: L:=B: L:=B: L:=B: L:=B: L:=B: L:=B: L:=B: L:=B: L:=B: L:=B: L:=B: L:=B: L:=B: L:=B: L:=B: L:=B: L:=B: L:=B: L:=B: L:=B: L:=B: L:=B: L:=B: L:=B: L:=B: L:=B: L:=B: L:=B: L:=B: L:=B: L:=B: L:=B: L:=B: L:=B: L:=B: L:=B: L:=B: L8;8 L8;8 L8;8 L8;8 L8;8 L8;8 L8;8 L8;8 L8;8 L8;8 L8;8 L8;8 L8;8 L8;8 L8;8 L8;8 L8;8 L8;8 L8;8 L8;8 L8;8 L8;8 L8;8 L8;8 L8;8 L8;8 L8;8 L8;8 L8;8 L8;8 L8;8 L8;8 L8;8 L8;8 L8;8 L8;8 L8;8 L8;8 L8;8 L8;8 L8;8 L8;8 L8;8 L8;8 L8;8 L8;8 L8;8 L8;8 L8;8 L8;8 L8;8 L8;8 L8;8 L8;8 L8;8 L8;8 L8;8 L8;8 L8;8 L8;8 L8;8 L8;8 L8;8 L8;8 L8;8 L8;8 L8;8 L8;8 L8;8 L8;8 L8;8 L8;8 L8;8 L8;8 L8;8 L8;8 L8;8 L8;8 L8;8 L8;8 L8;8 L8;8 L8;8 L8;8 L8;8 L8;8 L8;8 L8;8 L8;8 L8;8 L8;8 L8;8 L8;8 L8;8 L8;8 L8;8 L8;8 L8;8 L8;8 L8;8 L8;8 L8;8 L8;8 L8;8 L8;8 L8;8 L8;8 L8;8 L8;8 L8;8 L8;8 L8;8 L8;8 L8;8 L8;8 L8;8 L8;8 L8;8 L8;8 L8;8 L8;8 L8;8 L8;8 L8;8 L8;8 L8;8 L8;8 L8;8 L8;8 L8;8 L8;8 L8;8 L8;8 L8;8 L8;8 L8;8 L8;8 L8;8 L8;8 L8;8 L8;8 L8;8 L8;8 L8;8 L8;8 L8;8 L8;8 L8;8 L8;8 L8;8 L8;8 L8;8 L8;8 L8;8 L8;8 L8;8 L8;8 L8;8 L8;8 L8;8 L8;8 L8;8 L8;8 L8;8 L8;8 L8;8 L8;8 L8;8 L8;8 L8;8 L8;8 L8;8 L8;8 L8;8 L8;8 L8;8 L8;8 L8;8 L8;8 L8;8 L8;8 L8;8 L8;8 L8;8 L8;8 L8;8 L8;8 L8;8 L8;8 L8;8 L8;8 L8;8 L8;8 L8;8 L8;8 L8;8 L8;8 L8;8 L8;8 L8;8 L8;8 L8;8 L8;8 L8;8 L8;8 L8;8 L8;8 L8;8 L8;8 L8;8 L8;8 L8;8 L8;8 L8;8 L8;8 L8;8 L8;8 L8;8 L8;8 L8;8 L8;8 L8;8 L8;8 L8;8 L8;8 L8;8 L8;8 L8;8 L8;8 L8;8 L8;8 L8;8 L8;8 L8;8 L8;8 L8;8 L8;8 L8;8 L8;8 L8;8 L8;8 L8;8 L8;8 L8;8 L8;8 L8;8 L8;8 L8;8 L8;8 L8;8 L8;8 L8;8 L8;8 L8;8 L8;8 L8;8 L::=B L::=B L::=B L::=B L::=B L::=B L::=B L::=B L::=B L::=B L::=B L::=B L::=B L::=B L::=B L::=B L::=B L::=B L::=B L::=B L::=B L::=B L::=B L::=B L::=B L::=B L::=B L::=B L::=B L::=B L::=B L::=B L::=B L::=B L::=B L::=B L::=B L::=B L::=B L::=B L::=B L::=B L::=B L::=B L::=B L::=B L::=B L::=B L::=B L::=B L::=B L::=B L::=B L::=B L::=B L::=B L::=B L::=B L::=B L::=B L::=B L::=B L::=B L::=B L::=B L::=B L::=B L::=B L::=B L::=B L::=B L::=B L::=B L::=B L::=B L::=B L::=B L::=B L::=B L::=B L::=B L::=B L::=B L::=B L::=B L::=B L::=B L::=B L::=B L::=B L::=B L::=B L::=B L::=B L::=B L::=B L::=B L::=B L::=B L::=B L::=B L::=B L::=B L::=B L::=B L::=B L::=B L::=B L::=B L::=B L::=B L::=B L::=B L::=B L::=B L::=B L::=B L::=B L::=B L::=B L::=B L::=B L::=B L::=B L::=B L::=B L::=B L::=B L::=B L::=B L::=B L::=B L::=B L::=B L::=B L::=B L::=B L::=B L::=B L::=B L::=B L::=B L::=B L::=B L::=B L::=B L::=B L::=B L::=B L::=B L::=B L::=B L::=B L::=B L::=B L::=B L::=B L::=B L::=B L::=B L::=B L::=B L::=B L::=B L::=B L::=B L::=B L::=B L::=B L::=B L::=B L::=B L::=B L::=B L::=B L::=B L::=B L::=B L::=B L::=B L::=B L::=B L::=B L::=B L::=B L::=B L::=B L::=B L::=B L::=B L::=B L::=B L::=B L::=B L::=B L::=B L::=B L::=B L::=B L::=B L::=B L::=B L::=B L::=B L::=B L::=B L::=B L::=B L::=B L::=B L::=B L::=B L::=B L::=B L::=B L::=B L::=B L::=B L::=B L::=B L::=B L::=B L::=B L::=B L::=B L::=B L::=B L::=B L::=B L::=B L::=B L::=B L::=B L::=B L::=B L::=B L::=B L::=B L::=B L::=B L::=B L::=B L::=B L::=B L::=B L::=B L::=B L::=B L::=B L::=B L::=B L::=B L::=B L::=B L::=B L::=B L::=B L::=B L::=B L::=B L::=B L::=B L::=B L::=B L::=B L::=B L::=B L::=B L::=B L::=B L::=B L::=B L::=B L::=B L::=B L::=B L::=B L::=B L::=B L::=B L::=B L::=B L::=B L::=B L::=B L::=B L::=B L::=B L::=B L::=B L::=B L::=B L::=B L::=B L::=B L::=B L::=B L::=B L::=B L::=B L::=B L::=B L::=B L::=B L::=B L::=B L::=B L::=B L::=B L::=B L::=B L::=B L::=B L::=B L::=B L::=B L::=B L::=B L::=B L::=B L::=B L::=B L::=B L::=B L::=B L::=B L::=B L::=B L::=B L::=B L::=B L::=B L::=B L::=B L::=B L::=B L::=B L::=B L::=B L::=B L::=B L::=B L::=B L::=B L::=B L::=B L::=B L::=B L::=B L::=B L::=B L::=B L::=B L::=B L::=B L::=B L::=B L::=B L::=B L::=B L::=B L::=B L::=B L::=B L::=B L::=B L::=B L::=B L::=B L::=B L::=B L::=B L::=B L::=B L::=B L::=B L::=B L::=B L::=B L::=B L::=B L::=B L::=B L::=B L::=B L::=B L::=B L::=B L::=B L::=B L::=B L::=B L::=B L::=B L::=B L::=B L::=B L::=B L::=B L::=B L::=B L::=B L::=B L::=B L::=B L::=B L::=B L::=B L::=B L::=B L::=B L::=B L::=B L::=B L::=B L::=B L::=B L::=B L::=B L::=B L::=B L::=B L::=B L::=B L::=B L::=B L::=B L::=B L::=B L::=B L::=B L::=B L::=B L::=B L::=B L::=B L::=B L::=B L::=B L::=B L::=B L::=B L::=B L::=B L::=B L::=B L::=B L::=B L::=B L::=B L::=B L::=B L::=B L::=B L::=B L::=B L::=B L::=B L::=B L::=B L::=B L::=B L::=B L::=B L::=B L::=B L::=B L::=B L::=B L::=B L::=B L::=B L::=B L::=B L::=B L::=B L::=B L::=B L::=B L::=B L::=B L::=B L::=B L::=B L::=B L::=B L::=B L::=B L::=B L::=B L::=B L::=B L::=B L::=B L::=B L::=B L::=B L::=B L::=B L::=B L::=B L::=B L::=B L::=B L::=B L::=B L::=B L::=B L::=B L::=B L::=B L::=B J::=B J::=B J::=B J::=B J::=B J::=B J::=B J::=B J::=B J::=B J::=B J::=B J::=B J::=B J::=B J::=B J::=B J::=B J::=B J::=B J::=B J::=B J::=B J::=B J::=B J::=B J::=B J::=B J::=B J::=B J::=B J::=B J::=B J::=B J::=B J::=B J::=B J::=B J::=B J::=B J::=B J::=B J::=B J::=B J::=B J::=B J::=B J::=B J::=B J::=B J::=B J::=B J::=B J::=B J::=B J::=B J::=B J::=B J::=B J::=B J::=B J::=B J::=B J::=B J::=B J::=B J::=B J::=B J::=B J::=B J::=B J::=B J::=B J::=B J::=B J::=B J::=B J::=B J::=B J::=B J::=B J::=B J::=B J::=B J::=B J::=B J::=B J::=B J::=B J::=B J::=B J::=B J::=B J::=B J::=B J::=B J::=B J::=B J::=B J::=B J::=B J::=B J::=B J::=B J::=B J::=B J::=B J::=B J::=B J::=B J::=B J::=B J::=B J::=B J::=B J::=B J::=B J::=B J::=B J::=B J::=B J::=B J::=B J::=B J::=B J::=B J::=B J::=B J::=B J::=B J::=B J::=B J::=B J::=B J::=B J::=B J::=B J::=B J::=B J::=B J::=B J::=B J::=B J::=B J::=B J::=B J::=B J::=B J::=B J::=B J::=B J::=B J::=B J::=B J::=B J::=B J::=B J::=B J::=B J::=B J::=B J::=B J::=B J::=B J::=B J::=B J::=B J::=B J::=B J::=B J::=B J::=B J::=B J::=B J::=B J::=B J::=B J::=B J::=B J::=B J::=B J::=B J::=B J::=B J::=B J::=B J::=B J::=B J::=B J::=B J::=B J::=B J::=B J::=B J::=B J::=B J::=B J::=B J::=B J::=B J::=B J::=B J::=B J::=B J::=B J::=B J::=B J::=B J::=B J::=B J::=B J::=B J::=B J::=B J::=B J::=B J::=B J::=B J::=B J::=B J::=B J::=B J::=B J::=B J::=B J::=B J::=B J::=B J::=B J::=B J::=B J::=B J::=B J::=B J::=B J::=B J::=B J::=B J::=B J::=B J::=B J::=B J::=B J::=B J::=B J::=B J::=B J::=B J::=B J::=B J::=B J::=B J::=B J::=B J::=B J::=B J::=B J::=B J::=B J::=B J::=B J::=B J::=B J::=B J::=B J::=B J::=B J::=B J::=B J::=B J::=B J::=B J::=B J::=B J::=B J::=B J::=B J::=B J::=B J::=B J::=B J::=B J::=B J::=B J::=B J::=B J::=B J::=B J::=B J::=B J::=B J::=B J::=B J::=B J::=B J::=B J::=B J::=B J::=B J::=B J::=B J::=B J::=B J::=B J::=B J::=B J::=B J::=B J::=B J::=B J::=B J::=B J::=B J::=B J::=B J::=B J::=B J::=B J::=B J::=B J::=B J::=B J::=B J::=B J::=B J::=B J::=B J::=B J::=B J::=B J::=B J::=B J::=B J::=B J::=B J::=B J::=B J::=B J::=B J::=B J::=B J::=B J::=B J::=B J::=B J::=B J::=B J::=B J::=B J::=B J::=B J::=B J::=B J::=B J::=B J::=B J::=B J::=B J::=B J::=B J::=B J::=B J::=B J::=B J::=B J::=B J::=B J::=B J::=B J::=B J::=B J::=B J::=B J::=B J::=B J::=B J::=B J::=B J::=B J::=B J::=B J::=B J::=B J::=B J::=B J::=B J::=B J::=B J::=B J::=B J::=B J::=B J::=B J::=B J::=B J::=B J::=B J::=B J::=B J::=B J::=B J::=B J::=B J::=B J::=B J::=B J::=B J::=B J::=B J::=B J=B J=B J=B J=B J=B J=B J=B J=B J=B J=B J=B J=B J=B J=B J=B J=B J=B J=B J=B J=B J=B J=B J=B J=B J=B J=B J=B J=B J=B J=B J=B J=B J=B J=B J=B J=B J=B J=B J=B J=B J=B J=B J=B J=B J=B J=B J=B J=B J=B J=B J=B J=B J=B J=B J=B J=B J=B J=B J=B J=B J=B J=B J=B J=B J=B J=B J=B J=B J=B J=B J=B J=B J=B J=B J=B J=B J=B J=B J=B J=B J=B J=B J=B J=B J=B J=B J=B J=B J=B J=B J=B J=B J=B J=B J=B J=B J=B J=B J=B J=B J=B J=B I@C I@C I@C I@C I@C I@C I@C I@C I@C I@C I@C I@C I@C I@C I@C I@C I@C I@C I@C I@C I@C I@C I@C I@C I@C I@C I@C I@C I@C I@C I@C I@C I@C I@C I@C I@C I@C I@C I@C I@C I@C I@C I@C I@C I@C I@C I@C I@C I@C I@C I@C I@C I@C I@C I@C I@C I@C I@C I@C I@C I@C I@C I@C I@C I@C I@C I@C I@C I@C I@C I@C I@C I@C I@C I@C I@C I@C I@C I@C I@C I@C I@C I@C I@C I@C I@C I@C I@C I@C I@C I@C I@C I@C I@C I@C I@C I@C I@C I@C I@C I@C I@C I@C I@C I@C I@C I@C I@C I@C I@C I@C I@C I@C I@C I@C I@C I@C I@C I@C I@C I@C I@C I@C I@C I@C I@C I@C I@C I@C I@C I@C I@C I@C I@C I@C I@C I@C I@C I@C I@C I@C I@C I@C I@C I@C I@C I@C I@C I@C I@C I@C I@C I@C I@C I@C I@C I@C I@C I@C I@C I@C I@C I@C I@C I@C I@C I@C I@C I@C I@C I@C I@C I@C I@C I@C I@C I@C I@C I@C I@C I@C I@C I@C I@C I@C I@C I@C I@C I@C I@C I@C I@C I@C I@C I@C I@C I@C I@C I@C I@C I@C I@C I@C I@C I@C I@C I@C I@C I@C I@C I@C I@C I@C I@C I@C I@C I@C I@C I@C I@C I@C I@C I@C I@C I@C I@C I@C I@C I@C I@C I@C I@C I@C I@C I@C I@C I@C I@C I@C I@C I@C I@C I@C I@C I@C I@C I@C I@C I@C I@C I@C I@C I@C I@C I@C I@C I@C I@C I@C I@C I@C I@C I@C I@C I@C I@C I@C I@C I@C I@C I@C I@C I@C I@C I@C I@C I@C I@C I@C I@C I@C I@C I@C I@C I@C I@C I@C I@C I@C I@C I@C I@C I@C I@C I@C I@C I@C I@C I@C I@C I@C I@C I@C I@C I@C I@C I@C I@C I@C I@C I@C I@C I@C I@C I@C I@C I@C I@C I@C I@C I@C I@C I@C I@C I@C I@C I@C I@C I@C I@C I@C I@C I@C I@C I@C I@C I@C I@C I@C I@C I@C I@C I@C I@C I@C I@C I@C I@C I@C I@C I@C I@C I@C I@C I@C I@C I@C I@C I@C I@C I@C I@C I@C I@C I@C I@C I@C I@C I@C I@C I@C I@C I@C I@C I@C I@C I@C I@C I@C I@C I@C I@C I@C I@C I@C I@C I@C I@C I@C I@C I@C I@C I@C I@C I@C I@C I@C I@C I@C I@C I@C I@C I@C I@C I@C I@C I@C I@C I@C I@C I@C I@C I@C I@C I@C I@C I@C I@C I@C I@C I@C I@C I@C I@C I@C I@C I@C I@C I@C I@C I@C I@C I@C I@C I@C I@C I@C I@C I@C I@C I@C I@C I@C I@C I@C I@C I@C I@C I@C I@C I@C I@C I@C I@C I@C I@C I@C I@C I@C I@C I@C I@C I@C I@C I@C I@C I@C I@C I@C I@C I@C I@C I@C I@C I@C I@C I@C I@C I@C I@C I@C I@C I@C I@C I@C I@C I@C I@C I@C I@C I@C I@C I@C I@C I@C I@C I@C I@C I@C I@C I@C I@C I@C I@C I@C I@C I@C I@C I@C I@C I@C I@C I66:B I66:B I66:B I66:B I66:B I66:B I66:B I66:B I66:B I66:B I66:B I66:B I66:B I66:B I66:B I66:B I66:B I66:B I66:B I66:B I66:B I66:B I66:B I66:B I66:B I66:B I66:B I66:B I66:B I66:B I66:B I66:B I66:B I66:B I66:B I66:B I66:B I66:B I66:B I66:B I66:B I66:B I66:B I66:B I66:B I66:B I66:B I66:B I66:B I66:B I66:B I66:B I66:B I66:B I66:B I66:B I66:B I66:B I66:B I66:B I66:B I66:B I66:B I66:B I66:B I66:B I66:B I66:B I66:B I66:B I66:B I66:B I66:B I66:B I66:B I66:B I66:B I66:B I66:B I66:B I66:B I66:B I66:B I66:B I66:B I66:B I66:B I66:B I66:B I66:B I66:B I66:B I66:B I66:B I66:B I66:B I66:B I66:B I66:B I66:B I66:B I66:B I66:B I66:B I66:B I66:B I66:B I66:B I66:B I66:B I66:B I66:B I66:B I66:B I66:B I66:B I66:B I66:B I66:B I66:B I66:B I66:B I66:B I66:B I66:B I66:B I66:B I66:B I66:B I66:B I66:B I66:B I66:B I66:B I66:B I66:B I66:B I66:B I66:B I66:B I66:B I66:B I66:B I66:B I66:B I66:B I66:B I66:B I66:B I66:B I66:B I66:B I66:B I66:B I66:B I66:B I66:B I66:B I66:B I66:B I66:B I66:B I66:B I66:B I66:B I66:B I66:B I66:B I66:B I66:B I66:B I66:B I66:B I66:B I66:B I66:B I66:B I66:B I66:B I66:B I66:B I66:B I66:B I66:B I66:B I66:B I66:B I66:B I66:B I66:B I66:B I66:B I66:B I66:B I66:B I66:B I66:B I66:B I66:B I66:B I66:B I66:B I66:B I66:B I66:B I66:B I66:B I66:B I66:B I66:B I66:B I66:B I66:B I66:B I66:B I66:B I66:B I66:B I66:B I66:B I66:B I66:B I66:B I66:B I66:B I66:B I66:B I66:B I66:B I66:B I66:B I66:B I66:B I66:B I66:B I66:B I66:B I66:B I66:B I66:B I66:B I66:B I66:B I66:B I66:B I66:B I66:B I66:B I66:B I66:B I66:B I66:B I66:B I66:B I66:B I66:B J66:B J66:B J66:B J66:B J66:B J66:B J66:B J66:B J66:B J66:B J66:B J66:B J66:B J66:B J66:B J66:B J66:B J66:B J66:B J66:B J66:B J66:B J66:B J66:B J66:B J66:B J66:B J66:B J66:B J66:B J66:B J66:B J66:B J66:B J66:B J66:B J66:B J66:B J66:B J66:B J66:B J66:B J66:B J66:B J66:B J66:B J66:B J66:B J66:B J66:B J66:B J66:B J66:B J66:B J66:B J66:B J66:B J66:B J66:B J66:B J66:B J66:B J66:B J66:B J66:B J66:B J66:B J66:B J66:B J66:B J66:B J66:B J66:B J66:B J66:B J66:B J66:B J66:B J66:B J66:B J66:B J66:B J66:B J66:B J66:B J66:B J66:B J66:B J66:B J66:B J66:B J66:B J66:B J66:B J66:B J66:B J66:B J66:B J66:B J66:B J66:B J66:B J:B J:B J:B J:B J:B J:B J:B J:B J:B J:B J:B J:B J:B J:B J:B J:B J:B J:B J:B J:B J:B J:B J:B J:B J:B J:B L:B L:B L:B L:B L:B L:B L:B L:B L:B L:B L:B L:B L:B L:B L:B L:B L:B L:B L:B L:B L:B L:B L:B L:B L:B L:B L:B L:B L:B L:B L:B L:B L:B L:B L:B L:B L:B L:B L:B L:B L:B L:B L:B L:B L:B L:B L:B L:B L:B L:B L:B L:B L:B L:B L:B L:B L:B L:B L:B L:B L:B L:B L:B L:B L:B L:B L:B L:B L:B L:B L:B L:B L:B L:B L:B L:B L:B L:B L:B L:B L:B L:B L:B L:B L:B L:B L:B L:B L:B L:B L:B L:B L:B L:B L:B L:B L:B L:B L:B L:B L:B L:B L:B L:B L:B L:B L:B L:B L:B L:B L:B L:B L:B L:B L:B L:B L:B L:B L:B L:B L:B L:B L:B L:B L:B L:B L:B L:B J//6> J//6> J//6> J//6> J//6> J//6> J//6> J//6> J//6> J//6> J//6> J//6> J//6> J//6> J//6> J//6> J//6> J//6> J//6> J//6> J//6> J//6> J//6> J//6> J//6> J//6> J//6> J//6> J//6> J//6> J//6> J//6> J//6> J//6> J//6> J//6> J//6> J//6> J//6> J//6> J//6> J//6> J//6> J//6> J//6> J//6> J//6> J//6> J//6> J//6> J//6> J//6> J//6> J//6> J//6> J//6> J//6> J//6> J//6> J//6> J//6> J//6> J//6> J//6> J//6> J//6> J//6> J//6> J//6> J//6> J//6> J//6> J//6> J//6> J//6> J//6> J//6> J//6> J//6> J//6> J//6> J//6> J//6> J//6> J//6> J//6> J//6> J//6> J//6> J//6> J//6> J//6> J//6> J//6> J//6> J//6> J//6> J//6> J//6> J//6> J//6> J//6> J//6> J//6> J//6> J//6> J//6> J//6> J//6> J//6> J//6> J//6> J//6> J//6> J//6> J//6> J//6> J//6> J//6> J//6> J//6> J//6> J//6> J//6> J//6> J//6> J//6> J//6> J//6> J//6> J//6> J//6> J//6> J//6> J//6> J//6> J//6> J//6> J//6> J//6> J//6> J//6> J//6> J//6> J//6> J//6> J//6> J//6> J//6> J//6> J//6> J//6> J//6> J//6> J//6> J//6> J//6> J//6> J//6> J//6> J//6> J//6> J//6> J//6> J//6> J//6> J//6> J//6> J//6> J//6> J//6> I//6> I//6> I//6> I//6> I//6> I//6> I//6> I//6> I//6> I//6> I//6> I//6> I//6> I//6> I//6> I//6> I//6> I//6> I//6> I//6> I//6> I//6> I//6> I//6> I//6> I//6> I//6> I//6> I//6> I//6> I//6> I//6> I//6> I//6> I//6> I//6> I//6> I//6> I//6> I//6> I//6> I//6> I//6> I//6> I//6> I//6> I//6> I//6> I//6> I//6> I//6> I//6> I//6> I//6> I//6> I//6> I//6> I//6> I//6> I//6> I//6> I//6> I//6> I//6> I//6> I//6> I//6> I//6> I//6> I//6> I//6> I//6> I//6> I//6> I//6> I//6> I//6> I//6> I//6> I//6> I//6> I//6> I//6> I//6> I//6> I//6> I//6> I//6> I//6> I//6> I//6> I//6> I//6> I//6> I//6> I//6> I//6> I//6> I//6> I//6> I//6> I//6> I//6> I//6> I//6> I//6> I//6> I//6> I//6> I//6> I//6> I//6> I//6> I//6> I//6> I//6> I//6> I//6> I//6> I//6> I//6> I//6> I//6> I//6> I//6> I//6> I//6> I//6> I//6> I//6> I//6> I//6> I//6> I//6> I//6> I//6> I//6> I//6> I//6> I//6> I//6> I//6> I//6> I//6> I//6> I//6> I//6> I//6> I//6> I//6> I//6> I//6> I//6> I//6> I//6> I//6> I//6> I//6> I//6> I//6> I//6> I//6> I//6> I//6> I//6> I//6> I//6> I//6> I//6> I//6> G//6> G//6> G//6> G//6> G//6> G//6> G//6> G//6> G//6> G//6> G//6> G//6> G//6> G//6> G//6> G//6> G//6> G6> G6> G6> G6> G6> G6> G6> G6> G6> G6> G6> G6> G6> G6> G6> G6> G6> G6> G6> G6> G6> G6> G6> G6> G6> G6> G6> G6> G6> G6> G6> G6> G6> G6> G6> G6> G6> G6> G6> G6> G6> G6> G6> G6> G6> G6> G6> G6> G6> G6> G6> G6> G6> G6> G6> G6> G6> G6> G6> G6> G6> G6> G6> G6> G6> G6> G6> G6> G6> G6> G6> G6> G6> G6> G6> G6> G6> G6> G6> G6> G6> G6> G6> G6> G6> G6> G6> G6> G6> G6> G6> G6> G6> G6> G6> G6> G6> G6> G6> G6> G6> G6> G6> G6> G6> G6> G6> G6> G6> G6> G6> G6> G6> G6> G6> G6> G6> G6> G6> G6> G6> G6> G6> G6> G6> G6> G6> G6> G6> G6> G6> G6> G6> G6> G6> G6> G6> G6> G6> G6> G6> G6> G6> G6> G6> G6> G6> G6> G6> G6> G6> G6> G6> G6> B;;>B B;;>B B;;>B B;;>B B;;>B B;;>B B;;>B B;;>B B;;>B B;;>B B;;>B B;;>B B;;>B B;;>B B;;>B B;;>B B;;>B B;;>B B;;>B B;;>B B;;>B B;;>B B;;>B B;;>B B;;>B B;;>B B;;>B B;;>B B;;>B B;;>B B;;>B B;;>B B;;>B B;;>B B;;>B B;;>B B;;>B B;;>B B;;>B B;;>B B;;>B B;;>B B;;>B B;;>B B;;>B B;;>B B;;>B B;;>B B;;>B B;;>B B;;>B B;;>B B;;>B B;;>B B;;>B B;;>B B;;>B B;;>B B;;>B B;;>B B;;>B B;;>B B;;>B B;;>B B;;>B B;;>B B;;>B B;;>B B;;>B B;;>B B;;>B B;;>B B;;>B B;;>B B;;>B B;;>B B;;>B B;;>B B;;>B B;;>B B;;>B B;;>B B;;>B B;;>B B;;>B B;;>B B;;>B B;;>B B;;>B B;;>B B;;>B B;;>B B;;>B B;;>B B;;>B B;;>B B;;>B B;;>B B;;>B B;;>B B;;>B B;;>B B;;>B B;;>B B;;>B B;;>B B;;>B B;;>B B;;>B B;;>B B;;>B B;;>B B;;>B B;;>B B;;>B B;;>B B;;>B B;;>B B;;>B B;;>B B;;>B B;;>B B;;>B B;;>B B;;>B B;;>B B;;>B B;;>B B;;>B B;;>B B;;>B B;;>B B;;>B B;;>B B;;>B B;;>B B;;>B B;;>B B;;>B B;;>B B;;>B B;;>B B;;>B B;;>B B;;>B B;;>B B;;>B B;;>B B;;>B B;;>B B;;>B B;;>B B;;>B B;;>B B;;>B B;;>B B;;>B B;;>B B;;>B B;;>B B;;>B B;;>B B;;>B B;;>B B;;>B B;;>B B;;>B B;;>B B;;>B B;;>B B;;>B G;;>B G;;>B G;;>B G;;>B G;;>B G;;>B G;;>B G;;>B G;;>B G;;>B G;;>B G;;>B G;;>B G;;>B G;;>B G;;>B G;;>B G;;>B G;;>B G;;>B G;;>B G;;>B G;;>B G;;>B G;;>B G;;>B G;;>B G;;>B G;;>B G;;>B G;;>B G;;>B G;;>B G;;>B G;;>B G;;>B G;;>B G;;>B G;;>B G;;>B G;;>B G;;>B G;;>B G;;>B G;;>B G;;>B G;;>B G;;>B G;;>B G;;>B G;;>B G;;>B G;;>B G;;>B G;;>B G;;>B G;;>B G;;>B G;;>B G;;>B G;;>B G;;>B G;;>B G;;>B G;;>B G;;>B G;;>B G;;>B G;;>B G;;>B G;;>B G;;>B G;;>B G;;>B G;;>B G;;>B G;;>B G;;>B G;;>B G;;>B G;;>B G;;>B G;;>B G;;>B G;;>B G;;>B G;;>B G;;>B G;;>B G;;>B G;;>B G;;>B G;;>B G;;>B G;;>B G;;>B G;;>B G;;>B G;;>B G;;>B G;;>B G;;>B G;;>B G;;>B G;;>B G;;>B G;;>B G;;>B G;;>B G;;>B G;;>B G;;>B G;;>B G;;>B G;;>B G;;>B G;;>B G;;>B G;;>B G;;>B G;;>B G;;>B G;;>B G;;>B G;;>B G;;>B G;;>B G;;>B G;;>B G;;>B G;;>B G;;>B G;;>B G;;>B G;;>B G;;>B G;;>B G;;>B G;;>B G;;>B G;;>B G;;>B G;;>B G;;>B G;;>B G;;>B G;;>B G;;>B G;;>B G;;>B G;;>B G;;>B G;;>B G;;>B G;;>B G;;>B G;;>B G;;>B G;;>B G;;>B G;;>B G;;>B G;;>B G;;>B G;;>B G;;>B G;;>B G;;>B G;;>B G;;>B I;;>B I;;>B I;;>B I;;>B I;;>B I;;>B I;;>B I;;>B I;;>B I;;>B I;;>B I;;>B I;;>B I;;>B I;;>B I;;>B I;;>B I;;>B I;;>B I;;>B I;;>B I;;>B I;;>B I;;>B I;;>B I;;>B I;;>B I;;>B I;;>B I;;>B I;;>B I;;>B I;;>B I;;>B I;;>B I;;>B I;;>B I;;>B I;;>B I;;>B I;;>B I;;>B I;;>B I;;>B I;;>B I;;>B I;;>B I;;>B I;;>B I;;>B I;;>B I;;>B I;;>B I;;>B I;;>B I;;>B I;;>B I;;>B I;;>B I;;>B I;;>B I;;>B I;;>B I;;>B I;;>B I;;>B I;;>B I;;>B I;;>B I;;>B I;;>B I;;>B I;;>B I;;>B I;;>B I;;>B I;;>B I;;>B I;;>B I;;>B I;;>B I;;>B I;;>B I;;>B I;;>B I;;>B I;;>B I;;>B I;;>B I;;>B I;;>B I;;>B I;;>B I;;>B I;;>B I;;>B I;;>B I;;>B I;;>B I;;>B I;;>B I;;>B I;;>B I;;>B I;;>B I;;>B I;;>B I;;>B I;;>B I;;>B I;;>B I;;>B I;;>B I;;>B I;;>B I;;>B I;;>B I;;>B I;;>B I;;>B I;;>B I;;>B I;;>B I;;>B I;;>B I;;>B I;;>B I;;>B I;;>B I;;>B I;;>B I;;>B I;;>B I;;>B I;;>B I;;>B I;;>B I;;>B I;;>B I;;>B I;;>B I;;>B I;;>B I;;>B I;;>B I;;>B I;;>B I;;>B I;;>B I;;>B I;;>B I;;>B I;;>B I;;>B I;;>B I;;>B I;;>B I;;>B I;;>B I;;>B I;;>B I;;>B I;;>B I;;>B I;;>B I;;>B I;;>B I;;>B I;;>B I;;>B I;;>B J;;>B J;;>B J;;>B J;;>B J;;>B J;;>B J;;>B J;;>B J;;>B J;;>B J;;>B J;;>B J;;>B J;;>B J;;>B J;;>B J;;>B J;;>B J;;>B J;;>B J;;>B J;;>B J;;>B J;;>B J;;>B J;;>B J;;>B J;;>B J;;>B J;;>B J;;>B J;;>B J;;>B J;;>B J;;>B J;;>B J;;>B J;;>B J;;>B J;;>B J;;>B J;;>B J;;>B J;;>B J;;>B J;;>B J;;>B J;;>B J;;>B J;;>B J;;>B J;;>B J;;>B J;;>B J;;>B J;;>B J;;>B J;;>B J;;>B J;;>B J;;>B J;;>B J;;>B J;;>B J;;>B J;;>B J;;>B J;;>B J;;>B J;;>B J;;>B J;;>B J;;>B J;;>B J;;>B J;;>B J;;>B J;;>B J;;>B J;;>B J;;>B J;;>B J;;>B J;;>B J;;>B J;;>B J;;>B J;;>B J;;>B J;;>B J;;>B J;;>B J;;>B J;;>B J;;>B J;;>B J;;>B J;;>B J;;>B J;;>B J;;>B J;;>B J;;>B J;;>B J;;>B J;;>B J;;>B J;;>B J;;>B J;;>B J;;>B J;;>B J;;>B J;;>B J;;>B J;;>B J;;>B J;;>B J;;>B J;;>B J;;>B J;;>B J;;>B J;;>B J;;>B J;;>B J;;>B J;;>B J;;>B J;;>B J;;>B J;;>B J;;>B J;;>B J;;>B J;;>B J;;>B J;;>B J;;>B J;;>B J;;>B J;;>B J;;>B J;;>B J;;>B J;;>B J;;>B J;;>B J;;>B J;;>B J;;>B J;;>B J;;>B J;;>B J;;>B J;;>B J;;>B J;;>B J;;>B J;;>B J;;>B J;;>B J;;>B J;;>B J;;>B J;;>B J;;>B J;;>B J;;>B J;;>B J;;>B I;;>B I;;>B I;;>B I;;>B I;;>B I;;>B I;;>B I;;>B I;;>B I;;>B I;;>B I;;>B I;;>B I;;>B I;;>B I;;>B I;;>B I;;>B I;;>B I;;>B I;;>B I;;>B I;;>B I;;>B I;;>B I;;>B I;;>B I;;>B I;;>B I;;>B I;;>B I;;>B I;;>B I;;>B I;;>B I;;>B I;;>B I;;>B I;;>B I;;>B I;;>B I;;>B I;;>B I;;>B I;;>B I;;>B I;;>B I;;>B I;;>B I;;>B I;;>B I;;>B I;;>B I;;>B I;;>B I;;>B I;;>B I;;>B I;;>B I;;>B I;;>B I;;>B I;;>B I;;>B I;;>B I;;>B I;;>B I;;>B I;;>B I;;>B I;;>B I;;>B I;;>B I;;>B I;;>B I;;>B I;;>B I;;>B I;;>B I;;>B I;;>B I;;>B I;;>B I;;>B I;;>B I;;>B I;;>B I;;>B I;;>B I;;>B I;;>B I;;>B I;;>B I;;>B I;;>B I;;>B I;;>B I;;>B I;;>B I;;>B I;;>B I;;>B I;;>B I;;>B I;;>B I;;>B I;;>B I;;>B I;;>B I;;>B I;;>B I;;>B I;;>B I;;>B I;;>B I;;>B I;;>B I;;>B I;;>B I;;>B I;;>B I;;>B I;;>B I;;>B I;;>B I;;>B I;;>B I;;>B I;;>B I;;>B I;;>B I;;>B I;;>B I;;>B I;;>B I;;>B I;;>B I;;>B I;;>B I;;>B I;;>B I;;>B I;;>B I;;>B I;;>B I;;>B I;;>B I;;>B I;;>B I;;>B I;;>B I;;>B I;;>B I;;>B I;;>B I;;>B I;;>B I;;>B I;;>B I;;>B I;;>B I;;>B I;;>B I;;>B I;;>B I;;>B I;;>B I;;>B I;;>B I;;>B G;;>B G;;>B G;;>B G;;>B G;;>B G;;>B G;;>B G;;>B G;;>B G;;>B G;;>B G;;>B G;;>B G;;>B G;;>B G;;>B G;;>B G;;>B G;;>B G;;>B G;;>B G;;>B G;;>B G;;>B G;;>B G;;>B G;;>B G;;>B G;;>B G;;>B G;;>B G;;>B G;;>B G;;>B G;;>B G;;>B G;;>B G;;>B G;;>B G;;>B G;;>B G;;>B G;;>B G;;>B G;;>B G;;>B G;;>B G;;>B G;;>B G;;>B G;;>B G;;>B G;;>B G;;>B G;;>B G;;>B G;;>B G;;>B G;;>B G;;>B G;;>B G;;>B G;;>B G;;>B G;;>B G;;>B G;;>B G;;>B G;;>B G>B G>B G>B G>B G>B G>B G>B G>B G>B G>B G>B G>B G>B G>B G>B G>B G>B G>B G>B G>B G>B G>B G>B G>B G>B G>B G>B G>B G>B G>B G>B G>B G>B G>B G>B G>B G>B G>B G>B G>B G>B G>B G>B G>B G>B G>B G>B G>B G>B G>B G>B G>B G>B G>B G>B G>B G>B G>B G>B G>B G>B G>B G>B G>B G>B G>B G>B G>B G>B G>B G>B G>B G>B G>B G>B G>B G>B G>B G>B G>B G>B G>B G>B G>B G>B G>B G>B G>B G>B G>B G>B G>B G>B G>B G>B G>B G>B G>B G>B G>B G>B G>B I9=9 I9=9 I9=9 I9=9 I9=9 I9=9 I9=9 I9=9 I9=9 I9=9 I9=9 I9=9 I9=9 I9=9 I9=9 I9=9 I9=9 I9=9 I9=9 I9=9 I9=9 I9=9 I9=9 I9=9 I9=9 I9=9 I9=9 I9=9 I9=9 I9=9 I9=9 I9=9 I9=9 I9=9 I9=9 I9=9 I9=9 I9=9 I9=9 I9=9 I9=9 I9=9 I9=9 I9=9 I9=9 I9=9 I9=9 I9=9 I9=9 I9=9 I9=9 I9=9 I9=9 I9=9 I9=9 I9=9 I9=9 I9=9 I9=9 I9=9 I9=9 I9=9 I9=9 I9=9 I9=9 I9=9 I9=9 I9=9 I9=9 I9=9 I9=9 I9=9 I9=9 I9=9 I9=9 I9=9 I9=9 I9=9 I9=9 I9=9 I9=9 I9=9 I9=9 I9=9 I9=9 I9=9 I9=9 I9=9 I9=9 I9=9 I9=9 I9=9 I9=9 I9=9 I9=9 I9=9 I9=9 I9=9 I9=9 I9=9 I9=9 I9=9 I9=9 I9=9 I9=9 I9=9 I9=9 I9=9 I9=9 I9=9 I9=9 I9=9 I9=9 I9=9 I9=9 I9=9 I9=9 I9=9 I9=9 I9=9 I9=9 I9=9 I9=9 I9=9 I9=9 I9=9 I9=9 I9=9 I9=9 I9=9 I9=9 I9=9 I9=9 I9=9 I9=9 I9=9 I9=9 I9=9 I9=9 I9=9 I9=9 I9=9 I9=9 I9=9 I9=9 I9=9 I9=9 I9=9 I9=9 I9=9 I9=9 I9=9 I9=9 I9=9 I9=9 I9=9 I9=9 I9=9 I9=9 I9=9 I9=9 I9=9 I9=9 I9=9 I9=9 I9=9 I9=9 I9=9 I9=9 I9=9 I9=9 J9=9 J9=9 J9=9 J9=9 J9=9 J9=9 J9=9 J9=9 J9=9 J9=9 J9=9 J9=9 J9=9 J9=9 J9=9 J9=9 J9=9 J9=9 J9=9 J9=9 J9=9 J9=9 J9=9 J9=9 J9=9 J9=9 J9=9 J9=9 J9=9 J9=9 J9=9 J9=9 J9=9 J9=9 J9=9 J9=9 J9=9 J9=9 J9=9 J9=9 J9=9 J9=9 J9=9 J9=9 J9=9 J9=9 J9=9 J9=9 J9=9 J9=9 J9=9 J9=9 J9=9 J9=9 J9=9 J9=9 J9=9 J9=9 J9=9 J9=9 J9=9 J9=9 J9=9 J9=9 J9=9 J9=9 J9=9 J9=9 J9=9 J9=9 J9=9 J9=9 J9=9 J9=9 J9=9 J9=9 J9=9 J9=9 J9=9 J9=9 J9=9 J9=9 J9=9 J9=9 J9=9 J9=9 J9=9 J9=9 J9=9 J9=9 J9=9 J9=9 J9=9 J9=9 J9=9 J9=9 J9=9 J9=9 J9=9 J9=9 J9=9 J9=9 J9=9 J9=9 J9=9 J9=9 J9=9 J9=9 J9=9 J9=9 J9=9 J9=9 J9=9 J9=9 J9=9 J9=9 J9=9 J9=9 J9=9 J9=9 J9=9 J9=9 J9=9 J9=9 J9=9 J9=9 J9=9 J9=9 J9=9 J9=9 J9=9 J9=9 J9=9 J9=9 J9=9 J9=9 J9=9 J9=9 J9=9 J9=9 J9=9 J9=9 J9=9 J9=9 J9=9 J9=9 J9=9 J9=9 J9=9 J9=9 J9=9 J9=9 J9=9 J9=9 J9=9 J9=9 J9=9 J9=9 J9=9 J9=9 J9=9 J9=9 J9=9 J9=9 J9=9 J9=9 J9=9 J9=9 J9=9 J9=9 L9=9 L9=9 L9=9 L9=9 L9=9 L9=9 L9=9 L9=9 L9=9 L9=9 L9=9 L9=9 L9=9 L9=9 L9=9 L9=9 L9=9 L9=9 L9=9 L9=9 L9=9 L9=9 L9=9 L9=9 L9=9 L9=9 L9=9 L9=9 L9=9 L9=9 L9=9 L9=9 L9=9 L9=9 L9=9 L9=9 L9=9 L9=9 L9=9 L9=9 L9=9 L9=9 L9=9 L9=9 L9=9 L9=9 L9=9 L9=9 L9=9 L9=9 L9=9 L9=9 L9=9 L9=9 L9=9 L9=9 L9=9 L9=9 L9=9 L9=9 L9=9 L9=9 L9=9 L9=9 L9=9 L9=9 L9=9 L9=9 L9=9 L9=9 L9=9 L9=9 L9=9 L9=9 L9=9 L9=9 L9=9 L9=9 L9=9 L9=9 L9=9 L9=9 L9=9 L9=9 L9=9 L9=9 L9=9 L9=9 L9=9 L9=9 L9=9 L9=9 L9=9 L9=9 L9=9 L9=9 L9=9 L9=9 L9=9 L9=9 L9=9 L9=9 L9=9 L9=9 L9=9 L9=9 L9=9 L9=9 L9=9 L9=9 L9=9 L9=9 L9=9 L9=9 L9=9 L9=9 L9=9 L9=9 L9=9 L9=9 L9=9 L9=9 L9=9 L9=9 L9=9 L9=9 L9=9 L9=9 L9=9 L9=9 L9=9 L9=9 L9=9 L9=9 L9=9 L9=9 L9=9 L9=9 L9=9 L9=9 L9=9 L9=9 L9=9 L9=9 L9=9 L9=9 L9=9 L9=9 L9=9 L9=9 L9=9 L9=9 L9=9 L9=9 L9=9 L9=9 L9=9 L9=9 L9=9 L9=9 L9=9 L9=9 L9=9 L9=9 L9=9 L9=9 L9=9 L9=9 L9=9 L9=9 L9=9 N9>9 N9>9 N9>9 N9>9 N9>9 N9>9 N9>9 N9>9 N9>9 N9>9 N9>9 N9>9 N9>9 N9>9 N9>9 N9>9 N9>9 N9>9 N9>9 N9>9 N9>9 N9>9 N9>9 N9>9 N9>9 N9>9 N9>9 N9>9 N9>9 N9>9 N9>9 N9>9 N9>9 N9>9 N9>9 N9>9 N9>9 N9>9 N9>9 N9>9 N9>9 N9>9 N9>9 N9>9 N9>9 N9>9 N9>9 N9>9 N9>9 N9>9 N9>9 N9>9 N9>9 N9>9 N9>9 N9>9 N9>9 N9>9 N9>9 N9>9 N9>9 N9>9 N9>9 N9>9 N9>9 N9>9 N9>9 N9>9 N9>9 N9>9 N9>9 N9>9 N9>9 N9>9 N9>9 N9>9 N9>9 N9>9 N9>9 N9>9 N9>9 N9>9 N9>9 N9>9 N9>9 N9>9 N9>9 N9>9 N9>9 N9>9 N9>9 N9>9 N9>9 N9>9 N9>9 N9>9 N9>9 N9>9 N9>9 N9>9 N9>9 N9>9 N9>9 N9>9 N9>9 N9>9 N9>9 N9>9 N9>9 N9>9 N9>9 N9>9 N9>9 N9>9 N9>9 N9>9 N9>9 N9>9 N9>9 N9>9 N9>9 N9>9 N9>9 N9>9 N9>9 N9>9 N9>9 N9>9 N9>9 N9>9 N9>9 N9>9 N9>9 N9>9 N9>9 N9>9 N9>9 N9>9 N9>9 N9>9 N9>9 N9>9 N9>9 N9>9 N9>9 N9>9 N9>9 N9>9 N9>9 N9>9 N9>9 N9>9 N9>9 N9>9 N9>9 N9>9 N9>9 N9>9 N9>9 N9>9 N9>9 N9>9 N9>9 N9>9 N9>9 N9>9 N9>9 N9>9 N9>9 N9>9 N9>9 L9@9 L9@9 L9@9 L9@9 L9@9 L9@9 L9@9 L9@9 L9@9 L9@9 L9@9 L9@9 L9@9 L9@9 L9@9 L9@9 L9@9 L9@9 L9@9 L9@9 L9@9 L9@9 L9@9 L9@9 L9@9 L9@9 L9@9 L9@9 L9@9 L9@9 L9@9 L9@9 L9@9 L9@9 L9@9 L9@9 L9@9 L9@9 L9@9 L9@9 L9@9 L9@9 L9@9 L9@9 L9@9 L9@9 L9@9 L9@9 L9@9 L9@9 L9@9 L9@9 L9@9 L9@9 L9@9 L9@9 L9@9 L9@9 L9@9 L9@9 L9@9 L9@9 L9@9 L9@9 L9@9 L9@9 L9@9 L9@9 L9@9 L9@9 L9@9 L9@9 L9@9 L9@9 L9@9 L9@9 L9@9 L9@9 L9@9 L9@9 L9@9 L9@9 L9@9 L9@9 L9@9 L9@9 L9@9 L9@9 L9@9 L9@9 L9@9 L9@9 L9@9 L9@9 L9@9 L9@9 L9@9 L9@9 L9@9 L9@9 L9@9 L9@9 L9@9 L9@9 L9@9 L9@9 L9@9 L9@9 L9@9 L9@9 L9@9 L9@9 L9@9 L9@9 L9@9 L9@9 L9@9 L9@9 L9@9 L9@9 L9@9 L9@9 L9@9 L9@9 L9@9 L9@9 L9@9 L9@9 L9@9 L9@9 L9@9 L9@9 L9@9 L9@9 L9@9 L9@9 L9@9 L9@9 L9@9 L9@9 L9@9 L9@9 L9@9 L9@9 L9@9 L9@9 L9@9 L9@9 L9@9 L9@9 L9@9 L9@9 L9@9 L9@9 L9@9 L9@9 L9@9 L9@9 L9@9 L9@9 L9@9 L9@9 L9@9 L9@9 L9@9 L9@9 L9@9 L9@9 L9@9 L9@9 J99B J99B J99B J99B J99B J99B J99B J99B J99B J99B J99B J99B J99B J99B J99B J99B J99B J99B J99B J99B J99B J99B J99B J99B J99B J99B J99B J99B J99B J99B J99B J99B J99B J99B J99B J99B J99B J99B J99B J99B J99B J99B J99B J99B J99B J99B J99B J99B J99B J99B J99B J99B J99B J99B J99B J99B J99B J99B J99B J99B J99B J99B J99B J99B J99B J99B J99B J99B J99B JB JB JB JB JB JB JB JB JB JB JB JB JB JB JB JB JB JB JB JB JB JB JB JB JB JB JB JB JB JB JB JB JB JB JB JB JB JB JB JB JB JB JB JB JB JB JB JB JB JB JB JB JB JB JB JB JB JB JB JB JB JB JB JB JB JB JB JB JB JB JB JB JB JB JB JB JB JB JB JB JB JB JB JB JB JB JB JB JB JB JB JB JB JB JB JB JB JB JB JB JB JB L77;C L77;C L77;C L77;C L77;C L77;C L77;C L77;C L77;C L77;C L77;C L77;C L77;C L77;C L77;C L77;C L77;C L77;C L77;C L77;C L77;C L77;C L77;C L77;C L77;C L77;C L77;C L77;C L77;C L77;C L77;C L77;C L77;C L77;C L77;C L77;C L77;C L77;C L77;C L77;C L77;C L77;C L77;C L77;C L77;C L77;C L77;C L77;C L77;C L77;C L77;C L77;C L77;C L77;C L77;C L77;C L77;C L77;C L77;C L77;C L77;C L77;C L77;C L77;C L77;C L77;C L77;C L77;C L77;C L77;C L77;C L77;C L77;C L77;C L77;C L77;C L77;C L77;C L77;C L77;C L77;C L77;C L77;C L77;C L77;C L77;C L77;C L77;C L77;C L77;C L77;C L77;C L77;C L77;C L77;C L77;C L77;C L77;C L77;C L77;C L77;C L77;C L77;C L77;C L77;C L77;C L77;C L77;C L77;C L77;C L77;C L77;C L77;C L77;C L77;C L77;C L77;C L77;C L77;C L77;C L77;C L77;C L77;C L77;C L77;C L77;C L77;C L77;C L77;C L77;C L77;C L77;C L77;C L77;C L77;C L77;C L77;C L77;C L77;C L77;C L77;C L77;C L77;C L77;C L77;C L77;C L77;C L77;C L77;C L77;C L77;C L77;C L77;C L77;C L77;C L77;C L77;C L77;C L77;C L77;C L77;C L77;C L77;C L77;C L77;C L77;C L77;C L77;C L77;C L77;C L77;C N77;C N77;C N77;C N77;C N77;C N77;C N77;C N77;C N77;C N77;C N77;C N77;C N77;C N77;C N77;C N77;C N77;C N77;C N77;C N77;C N77;C N77;C N77;C N77;C N77;C N77;C N77;C N77;C N77;C N77;C N77;C N77;C N77;C N77;C N77;C N77;C N77;C N77;C N77;C N77;C N77;C N77;C N77;C N77;C N77;C N77;C N77;C N77;C N77;C N77;C N77;C N77;C N77;C N77;C N77;C N77;C N77;C N77;C N77;C N77;C N77;C N77;C N77;C N77;C N77;C N77;C N77;C N77;C N77;C N77;C N77;C N77;C N77;C N77;C N77;C N77;C N77;C N77;C N77;C N77;C N77;C N77;C N77;C N77;C N77;C N77;C N77;C N77;C N77;C N77;C N77;C N77;C N77;C N77;C N77;C N77;C N77;C N77;C N77;C N77;C N77;C N77;C N77;C N77;C N77;C N77;C N77;C N77;C N77;C N77;C N77;C N77;C N77;C N77;C N77;C N77;C N77;C N77;C N77;C N77;C N77;C N77;C N77;C N77;C N77;C N77;C N77;C N77;C N77;C N77;C N77;C N77;C N77;C N77;C N77;C N77;C N77;C N77;C N77;C N77;C N77;C N77;C N77;C N77;C N77;C N77;C N77;C N77;C N77;C N77;C N77;C N77;C N77;C N77;C N77;C N77;C N77;C N77;C N77;C N77;C N77;C N77;C N77;C N77;C N77;C N77;C N77;C N77;C N77;C N77;C O77;C O77;C O77;C O77;C O77;C O77;C O77;C O77;C O77;C O77;C O77;C O77;C O77;C O77;C O77;C O77;C O77;C O;C O;C O;C O;C O;C O;C O;C O;C O;C O;C O;C O;C O;C O;C O;C O;C O;C O;C O;C O;C O;C O;C O;C O;C O;C O;C O;C O;C O;C O;C O;C O;C O;C O;C O;C O;C O;C O;C O;C O;C O;C O;C O;C O;C O;C O;C O;C O;C O;C O;C O;C O;C O;C O;C O;C O;C O;C O;C O;C O;C O;C O;C O;C O;C O;C O;C O;C O;C O;C O;C O;C O;C O;C O;C O;C O;C O;C O;C O;C O;C O;C O;C O;C O;C O;C O;C O;C O;C O;C O;C O;C O;C O;C O;C O;C O;C O;C O;C O;C O;C O;C O;C O;C O;C O;C O;C O;C O;C O;C O;C O;C O;C O;C O;C O;C O;C O;C O;C O;C O;C O;C O;C O;C O;C O;C O;C O;C O;C O;C O;C O;C O;C O;C O;C O;C O;C O;C ;C ;C ;C ;C ;C ;C ;C ;C ;C ;C ;C ;C ;C ;C ;C ;C ;C I--4= I--4= I--4= I--4= I--4= I--4= I--4= I--4= I--4= I--4= I--4= I--4= I--4= I--4= I--4= I--4= I--4= I--4= I--4= I--4= I--4= I--4= I--4= I--4= I--4= I--4= I--4= I--4= I--4= I--4= I--4= I--4= I--4= I--4= I--4= I--4= I--4= I--4= I--4= I--4= I--4= I--4= I--4= I--4= I--4= I--4= I--4= I--4= I--4= I--4= I--4= I--4= I--4= I--4= I--4= I--4= I--4= I--4= I--4= I--4= I--4= I--4= I--4= I--4= I--4= I--4= I--4= I--4= I--4= I--4= I--4= I--4= I--4= I--4= I--4= I--4= I--4= I--4= I--4= I--4= I--4= I--4= I--4= I--4= I--4= I--4= I--4= I--4= I--4= I--4= I--4= I--4= I--4= I--4= I--4= I--4= I--4= I--4= I--4= I--4= I--4= I--4= I--4= I--4= I--4= I--4= I--4= I--4= I--4= I--4= I--4= I--4= I--4= I--4= I--4= I--4= I--4= I--4= I--4= I--4= I--4= I--4= I--4= I--4= I--4= I--4= I--4= I--4= I--4= I--4= I--4= I--4= I--4= I--4= I--4= I--4= I--4= I--4= I--4= I--4= I--4= I--4= I--4= I--4= I--4= I--4= I--4= I--4= I--4= I--4= I--4= I--4= I--4= I--4= I--4= I--4= I--4= I--4= I--4= I--4= I--4= I--4= I--4= I--4= I--4= I--4= I--4= I--4= I--4= I--4= I--4= G--4= G--4= G--4= G--4= G--4= G--4= G--4= G--4= G--4= G--4= G--4= G--4= G--4= G--4= G--4= G--4= G--4= G--4= G--4= G--4= G--4= G--4= G--4= G--4= G--4= G--4= G--4= G--4= G--4= G--4= G--4= G--4= G--4= G--4= G--4= G--4= G--4= G--4= G--4= G--4= G--4= G--4= G--4= G--4= G--4= G--4= G--4= G--4= G--4= G--4= G--4= G--4= G--4= G--4= G--4= G--4= G--4= G--4= G--4= G--4= G--4= G--4= G--4= G--4= G--4= G--4= G--4= G--4= G--4= G--4= G--4= G--4= G--4= G--4= G--4= G--4= G--4= G--4= G--4= G--4= G--4= G--4= G--4= G--4= G--4= G--4= G--4= G--4= G--4= G--4= G--4= G--4= G--4= G--4= G--4= G--4= G--4= G--4= G--4= G--4= G--4= G--4= G--4= G--4= G--4= G--4= G--4= G--4= G--4= G--4= G--4= G--4= G--4= G--4= G--4= G--4= G--4= G--4= G--4= G--4= G--4= G--4= G--4= G--4= G--4= G--4= G--4= G--4= G--4= G--4= G--4= G--4= G--4= G--4= G--4= G--4= G--4= G--4= G--4= G--4= G--4= G--4= G--4= G--4= G--4= G--4= G--4= G--4= G--4= G--4= G--4= G--4= G--4= G--4= G--4= G--4= G--4= G--4= G--4= G--4= G--4= G--4= G--4= G--4= G--4= G--4= G--4= G--4= G--4= G--4= E--4= E--4= E--4= E--4= E--4= E--4= E--4= E--4= E--4= E--4= E--4= E--4= E--4= E--4= E--4= E--4= E--4= E4= E4= E4= E4= E4= E4= E4= E4= E4= E4= E4= E4= E4= E4= E4= E4= E4= E4= E4= E4= E4= E4= E4= E4= E4= E4= E4= E4= E4= E4= E4= E4= E4= E4= E4= E4= E4= E4= E4= E4= E4= E4= E4= E4= E4= E4= E4= E4= E4= E4= E4= E4= E4= E4= E4= E4= E4= E4= E4= E4= E4= E4= E4= E4= E4= E4= E4= E4= E4= E4= E4= E4= E4= E4= E4= E4= E4= E4= E4= E4= E4= E4= E4= E4= E4= E4= E4= E4= E4= E4= E4= E4= E4= E4= E4= E4= E4= E4= E4= E4= E4= E4= E4= E4= E4= E4= E4= E4= E4= E4= E4= E4= E4= E4= E4= E4= E4= E4= E4= E4= E4= E4= E4= E4= E4= E4= E4= E4= E4= E4= E4= E4= E4= E4= E4= E4= E4= E4= E4= E4= E4= E4= E4= E4= E4= E4= E4= E4= E4= E4= E4= E4= E4= E4= @99=@ @99=@ @99=@ @99=@ @99=@ @99=@ @99=@ @99=@ @99=@ @99=@ @99=@ @99=@ @99=@ @99=@ @99=@ @99=@ @99=@ @99=@ @99=@ @99=@ @99=@ @99=@ @99=@ @99=@ @99=@ @99=@ @99=@ @99=@ @99=@ @99=@ @99=@ @99=@ @99=@ @99=@ @99=@ @99=@ @99=@ @99=@ @99=@ @99=@ @99=@ @99=@ @99=@ @99=@ @99=@ @99=@ @99=@ @99=@ @99=@ @99=@ @99=@ @99=@ @99=@ @99=@ @99=@ @99=@ @99=@ @99=@ @99=@ @99=@ @99=@ @99=@ @99=@ @99=@ @99=@ @99=@ @99=@ @99=@ @99=@ @99=@ @99=@ @99=@ @99=@ @99=@ @99=@ @99=@ @99=@ @99=@ @99=@ @99=@ @99=@ @99=@ @99=@ @99=@ @99=@ @99=@ @99=@ @99=@ @99=@ @99=@ @99=@ @99=@ @99=@ @99=@ @99=@ @99=@ @99=@ @99=@ @99=@ @99=@ @99=@ @99=@ @99=@ @99=@ @99=@ @99=@ @99=@ @99=@ @99=@ @99=@ @99=@ @99=@ @99=@ @99=@ @99=@ @99=@ @99=@ @99=@ @99=@ @99=@ @99=@ @99=@ @99=@ @99=@ @99=@ @99=@ @99=@ @99=@ @99=@ @99=@ @99=@ @99=@ @99=@ @99=@ @99=@ @99=@ @99=@ @99=@ @99=@ @99=@ @99=@ @99=@ @99=@ @99=@ @99=@ @99=@ @99=@ @99=@ @99=@ @99=@ @99=@ @99=@ @99=@ @99=@ @99=@ @99=@ @99=@ @99=@ @99=@ @99=@ @99=@ @99=@ @99=@ @99=@ @99=@ @99=@ @99=@ @99=@ @99=@ @99=@ @99=@ E99=@ E99=@ E99=@ E99=@ E99=@ E99=@ E99=@ E99=@ E99=@ E99=@ E99=@ E99=@ E99=@ E99=@ E99=@ E99=@ E99=@ E99=@ E99=@ E99=@ E99=@ E99=@ E99=@ E99=@ E99=@ E99=@ E99=@ E99=@ E99=@ E99=@ E99=@ E99=@ E99=@ E99=@ E99=@ E99=@ E99=@ E99=@ E99=@ E99=@ E99=@ E99=@ E99=@ E99=@ E99=@ E99=@ E99=@ E99=@ E99=@ E99=@ E99=@ E99=@ E99=@ E99=@ E99=@ E99=@ E99=@ E99=@ E99=@ E99=@ E99=@ E99=@ E99=@ E99=@ E99=@ E99=@ E99=@ E99=@ E99=@ E99=@ E99=@ E99=@ E99=@ E99=@ E99=@ E99=@ E99=@ E99=@ E99=@ E99=@ E99=@ E99=@ E99=@ E99=@ E99=@ E99=@ E99=@ E99=@ E99=@ E99=@ E99=@ E99=@ E99=@ E99=@ E99=@ E99=@ E99=@ E99=@ E99=@ E99=@ E99=@ E99=@ E99=@ E99=@ E99=@ E99=@ E99=@ E99=@ E99=@ E99=@ E99=@ E99=@ E99=@ E99=@ E99=@ E99=@ E99=@ E99=@ E99=@ E99=@ E99=@ E99=@ E99=@ E99=@ E99=@ E99=@ E99=@ E99=@ E99=@ E99=@ E99=@ E99=@ E99=@ E99=@ E99=@ E99=@ E99=@ E99=@ E99=@ E99=@ E99=@ E99=@ E99=@ E99=@ E99=@ E99=@ E99=@ E99=@ E99=@ E99=@ E99=@ E99=@ E99=@ E99=@ E99=@ E99=@ E99=@ E99=@ E99=@ E99=@ E99=@ E99=@ E99=@ E99=@ E99=@ E99=@ E99=@ E99=@ E99=@ E99=@ G99=@ G99=@ G99=@ G99=@ G99=@ G99=@ G99=@ G99=@ G99=@ G99=@ G99=@ G99=@ G99=@ G99=@ G99=@ G99=@ G99=@ G99=@ G99=@ G99=@ G99=@ G99=@ G99=@ G99=@ G99=@ G99=@ G99=@ G99=@ G99=@ G99=@ G99=@ G99=@ G99=@ G99=@ G99=@ G99=@ G99=@ G99=@ G99=@ G99=@ G99=@ G99=@ G99=@ G99=@ G99=@ G99=@ G99=@ G99=@ G99=@ G99=@ G99=@ G99=@ G99=@ G99=@ G99=@ G99=@ G99=@ G99=@ G99=@ G99=@ G99=@ G99=@ G99=@ G99=@ G99=@ G99=@ G99=@ G99=@ G99=@ G99=@ G99=@ G99=@ G99=@ G99=@ G99=@ G99=@ G99=@ G99=@ G99=@ G99=@ G99=@ G99=@ G99=@ G99=@ G99=@ G99=@ G99=@ G99=@ G99=@ G99=@ G99=@ G99=@ G99=@ G99=@ G99=@ G99=@ G99=@ G99=@ G99=@ G99=@ G99=@ G99=@ G99=@ G99=@ G99=@ G99=@ G99=@ G99=@ G99=@ G99=@ G99=@ G99=@ G99=@ G99=@ G99=@ G99=@ G99=@ G99=@ G99=@ G99=@ G99=@ G99=@ G99=@ G99=@ G99=@ G99=@ G99=@ G99=@ G99=@ G99=@ G99=@ G99=@ G99=@ G99=@ G99=@ G99=@ G99=@ G99=@ G99=@ G99=@ G99=@ G99=@ G99=@ G99=@ G99=@ G99=@ G99=@ G99=@ G99=@ G99=@ G99=@ G99=@ G99=@ G99=@ G99=@ G99=@ G99=@ G99=@ G99=@ G99=@ G99=@ G99=@ G99=@ G99=@ G99=@ G99=@ G99=@ G99=@ G99=@ G99=@ G99=@ I99=@ I99=@ I99=@ I99=@ I99=@ I99=@ I99=@ I99=@ I99=@ I99=@ I99=@ I99=@ I99=@ I99=@ I99=@ I99=@ I99=@ I99=@ I99=@ I99=@ I99=@ I99=@ I99=@ I99=@ I99=@ I99=@ I99=@ I99=@ I99=@ I99=@ I99=@ I99=@ I99=@ I99=@ I99=@ I99=@ I99=@ I99=@ I99=@ I99=@ I99=@ I99=@ I99=@ I99=@ I99=@ I99=@ I99=@ I99=@ I99=@ I99=@ I99=@ I99=@ I99=@ I99=@ I99=@ I99=@ I99=@ I99=@ I99=@ I99=@ I99=@ I99=@ I99=@ I99=@ I99=@ I99=@ I99=@ I99=@ I99=@ I99=@ I99=@ I99=@ I99=@ I99=@ I99=@ I99=@ I99=@ I99=@ I99=@ I99=@ I99=@ I99=@ I99=@ I99=@ I99=@ I99=@ I99=@ I99=@ I99=@ I99=@ I99=@ I99=@ I99=@ I99=@ I99=@ I99=@ I99=@ I99=@ I99=@ I99=@ I99=@ I99=@ I99=@ I99=@ I99=@ I99=@ I99=@ I99=@ I99=@ I99=@ I99=@ I99=@ I99=@ I99=@ I99=@ I99=@ I99=@ I99=@ I99=@ I99=@ I99=@ I99=@ I99=@ I99=@ I99=@ I99=@ I99=@ I99=@ I99=@ I99=@ I99=@ I99=@ I99=@ I99=@ I99=@ I99=@ I99=@ I99=@ I99=@ I99=@ I99=@ I99=@ I99=@ I99=@ I99=@ I99=@ I99=@ I99=@ I99=@ I99=@ I99=@ I99=@ I99=@ I99=@ I99=@ I99=@ I99=@ I99=@ I99=@ I99=@ I99=@ I99=@ I99=@ I99=@ I99=@ I99=@ I99=@ I99=@ I99=@ I99=@ I99=@ G99=@ G99=@ G99=@ G99=@ G99=@ G99=@ G99=@ G99=@ G99=@ G99=@ G99=@ G99=@ G99=@ G99=@ G99=@ G99=@ G99=@ G99=@ G99=@ G99=@ G99=@ G99=@ G99=@ G99=@ G99=@ G99=@ G99=@ G99=@ G99=@ G99=@ G99=@ G99=@ G99=@ G99=@ G99=@ G99=@ G99=@ G99=@ G99=@ G99=@ G99=@ G99=@ G99=@ G99=@ G99=@ G99=@ G99=@ G99=@ G99=@ G99=@ G99=@ G99=@ G99=@ G99=@ G99=@ G99=@ G99=@ G99=@ G99=@ G99=@ G99=@ G99=@ G99=@ G99=@ G99=@ G99=@ G99=@ G99=@ G99=@ G99=@ G99=@ G99=@ G99=@ G99=@ G99=@ G99=@ G99=@ G99=@ G99=@ G99=@ G99=@ G99=@ G99=@ G99=@ G99=@ G99=@ G99=@ G99=@ G99=@ G99=@ G99=@ G99=@ G99=@ G99=@ G99=@ G99=@ G99=@ G99=@ G99=@ G99=@ G99=@ G99=@ G99=@ G99=@ G99=@ G99=@ G99=@ G99=@ G99=@ G99=@ G99=@ G99=@ G99=@ G99=@ G99=@ G99=@ G99=@ G99=@ G99=@ G99=@ G99=@ G99=@ G99=@ G99=@ G99=@ G99=@ G99=@ G99=@ G99=@ G99=@ G99=@ G99=@ G99=@ G99=@ G99=@ G99=@ G99=@ G99=@ G99=@ G99=@ G99=@ G99=@ G99=@ G99=@ G99=@ G99=@ G99=@ G99=@ G99=@ G99=@ G99=@ G99=@ G99=@ G99=@ G99=@ G99=@ G99=@ G99=@ G99=@ G99=@ G99=@ G99=@ G99=@ G99=@ G99=@ G99=@ G99=@ G99=@ G99=@ G99=@ E99=@ E99=@ E99=@ E99=@ E99=@ E99=@ E99=@ E99=@ E99=@ E99=@ E99=@ E99=@ E99=@ E99=@ E99=@ E99=@ E99=@ E99=@ E99=@ E99=@ E99=@ E99=@ E99=@ E99=@ E99=@ E99=@ E99=@ E99=@ E99=@ E99=@ E99=@ E99=@ E99=@ E99=@ E99=@ E99=@ E99=@ E99=@ E99=@ E99=@ E99=@ E99=@ E99=@ E99=@ E99=@ E99=@ E99=@ E99=@ E99=@ E99=@ E99=@ E99=@ E99=@ E99=@ E99=@ E99=@ E99=@ E99=@ E99=@ E99=@ E99=@ E99=@ E99=@ E99=@ E99=@ E99=@ E99=@ E99=@ E99=@ E=@ E=@ E=@ E=@ E=@ E=@ E=@ E=@ E=@ E=@ E=@ E=@ E=@ E=@ E=@ E=@ E=@ E=@ E=@ E=@ E=@ E=@ E=@ E=@ E=@ E=@ E=@ E=@ E=@ E=@ E=@ E=@ E=@ E=@ E=@ E=@ E=@ E=@ E=@ E=@ E=@ E=@ E=@ E=@ E=@ E=@ E=@ E=@ E=@ E=@ E=@ E=@ E=@ E=@ E=@ E=@ E=@ E=@ E=@ E=@ E=@ E=@ E=@ E=@ E=@ E=@ E=@ E=@ E=@ E=@ E=@ E=@ E=@ E=@ E=@ E=@ E=@ E=@ E=@ E=@ E=@ E=@ E=@ E=@ E=@ E=@ E=@ E=@ E=@ E=@ E=@ E=@ E=@ E=@ E=@ E=@ E=@ E=@ E=@ E=@ E=@ E=@ G7;7 G7;7 G7;7 G7;7 G7;7 G7;7 G7;7 G7;7 G7;7 G7;7 G7;7 G7;7 G7;7 G7;7 G7;7 G7;7 G7;7 G7;7 G7;7 G7;7 G7;7 G7;7 G7;7 G7;7 G7;7 G7;7 G7;7 G7;7 G7;7 G7;7 G7;7 G7;7 G7;7 G7;7 G7;7 G7;7 G7;7 G7;7 G7;7 G7;7 G7;7 G7;7 G7;7 G7;7 G7;7 G7;7 G7;7 G7;7 G7;7 G7;7 G7;7 G7;7 G7;7 G7;7 G7;7 G7;7 G7;7 G7;7 G7;7 G7;7 G7;7 G7;7 G7;7 G7;7 G7;7 G7;7 G7;7 G7;7 G7;7 G7;7 G7;7 G7;7 G7;7 G7;7 G7;7 G7;7 G7;7 G7;7 G7;7 G7;7 G7;7 G7;7 G7;7 G7;7 G7;7 G7;7 G7;7 G7;7 G7;7 G7;7 G7;7 G7;7 G7;7 G7;7 G7;7 G7;7 G7;7 G7;7 G7;7 G7;7 G7;7 G7;7 G7;7 G7;7 G7;7 G7;7 G7;7 G7;7 G7;7 G7;7 G7;7 G7;7 G7;7 G7;7 G7;7 G7;7 G7;7 G7;7 G7;7 G7;7 G7;7 G7;7 G7;7 G7;7 G7;7 G7;7 G7;7 G7;7 G7;7 G7;7 G7;7 G7;7 G7;7 G7;7 G7;7 G7;7 G7;7 G7;7 G7;7 G7;7 G7;7 G7;7 G7;7 G7;7 G7;7 G7;7 G7;7 G7;7 G7;7 G7;7 G7;7 G7;7 G7;7 G7;7 G7;7 G7;7 G7;7 G7;7 G7;7 G7;7 G7;7 G7;7 G7;7 G7;7 G7;7 G7;7 G7;7 G7;7 G7;7 G7;7 G7;7 I7;7 I7;7 I7;7 I7;7 I7;7 I7;7 I7;7 I7;7 I7;7 I7;7 I7;7 I7;7 I7;7 I7;7 I7;7 I7;7 I7;7 I7;7 I7;7 I7;7 I7;7 I7;7 I7;7 I7;7 I7;7 I7;7 I7;7 I7;7 I7;7 I7;7 I7;7 I7;7 I7;7 I7;7 I7;7 I7;7 I7;7 I7;7 I7;7 I7;7 I7;7 I7;7 I7;7 I7;7 I7;7 I7;7 I7;7 I7;7 I7;7 I7;7 I7;7 I7;7 I7;7 I7;7 I7;7 I7;7 I7;7 I7;7 I7;7 I7;7 I7;7 I7;7 I7;7 I7;7 I7;7 I7;7 I7;7 I7;7 I7;7 I7;7 I7;7 I7;7 I7;7 I7;7 I7;7 I7;7 I7;7 I7;7 I7;7 I7;7 I7;7 I7;7 I7;7 I7;7 I7;7 I7;7 I7;7 I7;7 I7;7 I7;7 I7;7 I7;7 I7;7 I7;7 I7;7 I7;7 I7;7 I7;7 I7;7 I7;7 I7;7 I7;7 I7;7 I7;7 I7;7 I7;7 I7;7 I7;7 I7;7 I7;7 I7;7 I7;7 I7;7 I7;7 I7;7 I7;7 I7;7 I7;7 I7;7 I7;7 I7;7 I7;7 I7;7 I7;7 I7;7 I7;7 I7;7 I7;7 I7;7 I7;7 I7;7 I7;7 I7;7 I7;7 I7;7 I7;7 I7;7 I7;7 I7;7 I7;7 I7;7 I7;7 I7;7 I7;7 I7;7 I7;7 I7;7 I7;7 I7;7 I7;7 I7;7 I7;7 I7;7 I7;7 I7;7 I7;7 I7;7 I7;7 I7;7 I7;7 I7;7 I7;7 I7;7 I7;7 I7;7 I7;7 I7;7 I7;7 I7;7 I7;7 J7;7 J7;7 J7;7 J7;7 J7;7 J7;7 J7;7 J7;7 J7;7 J7;7 J7;7 J7;7 J7;7 J7;7 J7;7 J7;7 J7;7 J7;7 J7;7 J7;7 J7;7 J7;7 J7;7 J7;7 J7;7 J7;7 J7;7 J7;7 J7;7 J7;7 J7;7 J7;7 J7;7 J7;7 J7;7 J7;7 J7;7 J7;7 J7;7 J7;7 J7;7 J7;7 J7;7 J7;7 J7;7 J7;7 J7;7 J7;7 J7;7 J7;7 J7;7 J7;7 J7;7 J7;7 J7;7 J7;7 J7;7 J7;7 J7;7 J7;7 J7;7 J7;7 J7;7 J7;7 J7;7 J7;7 J7;7 J7;7 J7;7 J7;7 J7;7 J7;7 J7;7 J7;7 J7;7 J7;7 J7;7 J7;7 J7;7 J7;7 J7;7 J7;7 J7;7 J7;7 J7;7 J7;7 J7;7 J7;7 J7;7 J7;7 J7;7 J7;7 J7;7 J7;7 J7;7 J7;7 J7;7 J7;7 J7;7 J7;7 J7;7 J7;7 J7;7 J7;7 J7;7 J7;7 J7;7 J7;7 J7;7 J7;7 J7;7 J7;7 J7;7 J7;7 J7;7 J7;7 J7;7 J7;7 J7;7 J7;7 J7;7 J7;7 J7;7 J7;7 J7;7 J7;7 J7;7 J7;7 J7;7 J7;7 J7;7 J7;7 J7;7 J7;7 J7;7 J7;7 J7;7 J7;7 J7;7 J7;7 J7;7 J7;7 J7;7 J7;7 J7;7 J7;7 J7;7 J7;7 J7;7 J7;7 J7;7 J7;7 J7;7 J7;7 J7;7 J7;7 J7;7 J7;7 J7;7 J7;7 J7;7 J7;7 J7;7 J7;7 J7;7 J7;7 J7;7 J7;7 J7;7 J7;7 J7;7 L7=7 L7=7 L7=7 L7=7 L7=7 L7=7 L7=7 L7=7 L7=7 L7=7 L7=7 L7=7 L7=7 L7=7 L7=7 L7=7 L7=7 L7=7 L7=7 L7=7 L7=7 L7=7 L7=7 L7=7 L7=7 L7=7 L7=7 L7=7 L7=7 L7=7 L7=7 L7=7 L7=7 L7=7 L7=7 L7=7 L7=7 L7=7 L7=7 L7=7 L7=7 L7=7 L7=7 L7=7 L7=7 L7=7 L7=7 L7=7 L7=7 L7=7 L7=7 L7=7 L7=7 L7=7 L7=7 L7=7 L7=7 L7=7 L7=7 L7=7 L7=7 L7=7 L7=7 L7=7 L7=7 L7=7 L7=7 L7=7 L7=7 L7=7 L7=7 L7=7 L7=7 L7=7 L7=7 L7=7 L7=7 L7=7 L7=7 L7=7 L7=7 L7=7 L7=7 L7=7 L7=7 L7=7 L7=7 L7=7 L7=7 L7=7 L7=7 L7=7 L7=7 L7=7 L7=7 L7=7 L7=7 L7=7 L7=7 L7=7 L7=7 L7=7 L7=7 L7=7 L7=7 L7=7 L7=7 L7=7 L7=7 L7=7 L7=7 L7=7 L7=7 L7=7 L7=7 L7=7 L7=7 L7=7 L7=7 L7=7 L7=7 L7=7 L7=7 L7=7 L7=7 L7=7 L7=7 L7=7 L7=7 L7=7 L7=7 L7=7 L7=7 L7=7 L7=7 L7=7 L7=7 L7=7 L7=7 L7=7 L7=7 L7=7 L7=7 L7=7 L7=7 L7=7 L7=7 L7=7 L7=7 L7=7 L7=7 L7=7 L7=7 L7=7 L7=7 L7=7 L7=7 L7=7 L7=7 L7=7 L7=7 L7=7 L7=7 L7=7 L7=7 L7=7 L7=7 L7=7 L7=7 L7=7 L7=7 J7>7 J7>7 J7>7 J7>7 J7>7 J7>7 J7>7 J7>7 J7>7 J7>7 J7>7 J7>7 J7>7 J7>7 J7>7 J7>7 J7>7 J7>7 J7>7 J7>7 J7>7 J7>7 J7>7 J7>7 J7>7 J7>7 J7>7 J7>7 J7>7 J7>7 J7>7 J7>7 J7>7 J7>7 J7>7 J7>7 J7>7 J7>7 J7>7 J7>7 J7>7 J7>7 J7>7 J7>7 J7>7 J7>7 J7>7 J7>7 J7>7 J7>7 J7>7 J7>7 J7>7 J7>7 J7>7 J7>7 J7>7 J7>7 J7>7 J7>7 J7>7 J7>7 J7>7 J7>7 J7>7 J7>7 J7>7 J7>7 J7>7 J7>7 J7>7 J7>7 J7>7 J7>7 J7>7 J7>7 J7>7 J7>7 J7>7 J7>7 J7>7 J7>7 J7>7 J7>7 J7>7 J7>7 J7>7 J7>7 J7>7 J7>7 J7>7 J7>7 J7>7 J7>7 J7>7 J7>7 J7>7 J7>7 J7>7 J7>7 J7>7 J7>7 J7>7 J7>7 J7>7 J7>7 J7>7 J7>7 J7>7 J7>7 J7>7 J7>7 J7>7 J7>7 J7>7 J7>7 J7>7 J7>7 J7>7 J7>7 J7>7 J7>7 J7>7 J7>7 J7>7 J7>7 J7>7 J7>7 J7>7 J7>7 J7>7 J7>7 J7>7 J7>7 J7>7 J7>7 J7>7 J7>7 J7>7 J7>7 J7>7 J7>7 J7>7 J7>7 J7>7 J7>7 J7>7 J7>7 J7>7 J7>7 J7>7 J7>7 J7>7 J7>7 J7>7 J7>7 J7>7 J7>7 J7>7 J7>7 J7>7 J7>7 J7>7 J7>7 J7>7 J7>7 J7>7 J7>7 J7>7 J7>7 I77@ I77@ I77@ I77@ I77@ I77@ I77@ I77@ I77@ I77@ I77@ I77@ I77@ I77@ I77@ I77@ I77@ I77@ I77@ I77@ I77@ I77@ I77@ I77@ I77@ I77@ I77@ I77@ I77@ I77@ I77@ I77@ I77@ I77@ I77@ I77@ I77@ I77@ I77@ I77@ I77@ I77@ I77@ I77@ I77@ I77@ I77@ I77@ I77@ I77@ I77@ I77@ I77@ I77@ I77@ I77@ I77@ I77@ I77@ I77@ I77@ I77@ I77@ I77@ I77@ I77@ I77@ I77@ I77@ I@ I@ I@ I@ I@ I@ I@ I@ I@ I@ I@ I@ I@ I@ I@ I@ I@ I@ I@ I@ I@ I@ I@ I@ I@ I@ I@ I@ I@ I@ I@ I@ I@ I@ I@ I@ I@ I@ I@ I@ I@ I@ I@ I@ I@ I@ I@ I@ I@ I@ I@ I@ I@ I@ I@ I@ I@ I@ I@ I@ I@ I@ I@ I@ I@ I@ I@ I@ I@ I@ I@ I@ I@ I@ I@ I@ I@ I@ I@ I@ I@ I@ I@ I@ I@ I@ I@ I@ I@ I@ I@ I@ I@ I@ I@ I@ I@ I@ I@ I@ I@ I@ J669B J669B J669B J669B J669B J669B J669B J669B J669B J669B J669B J669B J669B J669B J669B J669B J669B J669B J669B J669B J669B J669B J669B J669B J669B J669B J669B J669B J669B J669B J669B J669B J669B J669B J669B J669B J669B J669B J669B J669B J669B J669B J669B J669B J669B J669B J669B J669B J669B J669B J669B J669B J669B J669B J669B J669B J669B J669B J669B J669B J669B J669B J669B J669B J669B J669B J669B J669B J669B J669B J669B J669B J669B J669B J669B J669B J669B J669B J669B J669B J669B J669B J669B J669B J669B J669B J669B J669B J669B J669B J669B J669B J669B J669B J669B J669B J669B J669B J669B J669B J669B J669B J669B J669B J669B J669B J669B J669B J669B J669B J669B J669B J669B J669B J669B J669B J669B J669B J669B J669B J669B J669B J669B J669B J669B J669B J669B J669B J669B J669B J669B J669B J669B J669B J669B J669B J669B J669B J669B J669B J669B J669B J669B J669B J669B J669B J669B J669B J669B J669B J669B J669B J669B J669B J669B J669B J669B J669B J669B J669B J669B J669B J669B J669B J669B J669B J669B J669B J669B J669B J669B L669B L669B L669B L669B L669B L669B L669B L669B L669B L669B L669B L669B L669B L669B L669B L669B L669B L669B L669B L669B L669B L669B L669B L669B L669B L669B L669B L669B L669B L669B L669B L669B L669B L669B L669B L669B L669B L669B L669B L669B L669B L669B L669B L669B L669B L669B L669B L669B L669B L669B L669B L669B L669B L669B L669B L669B L669B L669B L669B L669B L669B L669B L669B L669B L669B L669B L669B L669B L669B L669B L669B L669B L669B L669B L669B L669B L669B L669B L669B L669B L669B L669B L669B L669B L669B L669B L669B L669B L669B L669B L669B L669B L669B L669B L669B L669B L669B L669B L669B L669B L669B L669B L669B L669B L669B L669B L669B L669B L669B L669B L669B L669B L669B L669B L669B L669B L669B L669B L669B L669B L669B L669B L669B L669B L669B L669B L669B L669B L669B L669B L669B L669B L669B L669B L669B L669B L669B L669B L669B L669B L669B L669B L669B L669B L669B L669B L669B L669B L669B L669B L669B L669B L669B L669B L669B L669B L669B L669B L669B L669B L669B L669B L669B L669B L669B L669B L669B L669B L669B L669B N669B N669B N669B N669B N669B N669B N669B N669B N669B N669B N669B N669B N669B N669B N669B N669B N669B N9B N9B N9B N9B N9B N9B N9B N9B N9B N9B N9B N9B N9B N9B N9B N9B N9B N9B N9B N9B N9B N9B N9B N9B N9B N9B N9B N9B N9B N9B N9B N9B N9B N9B N9B N9B N9B N9B N9B N9B N9B N9B N9B N9B N9B N9B N9B N9B N9B N9B N9B N9B N9B N9B N9B N9B N9B N9B N9B N9B N9B N9B N9B N9B N9B N9B N9B N9B N9B N9B N9B N9B N9B N9B N9B N9B N9B N9B N9B N9B N9B N9B N9B N9B N9B N9B N9B N9B N9B N9B N9B N9B N9B N9B N9B N9B N9B N9B N9B N9B N9B N9B N9B N9B N9B N9B N9B N9B N9B N9B N9B N9B N9B N9B N9B N9B N9B N9B N9B N9B N9B N9B N9B N9B N9B N9B N9B N9B N9B N9B N9B N9B N9B N9B N9B N9B N9B 9B 9B 9B 9B 9B 9B 9B 9B 9B 9B 9B 9B 9B 9B 9B 9B 9B G++2; G++2; G++2; G++2; G++2; G++2; G++2; G++2; G++2; G++2; G++2; G++2; G++2; G++2; G++2; G++2; G++2; G++2; G++2; G++2; G++2; G++2; G++2; G++2; G++2; G++2; G++2; G++2; G++2; G++2; G++2; G++2; G++2; G++2; G++2; G++2; G++2; G++2; G++2; G++2; G++2; G++2; G++2; G++2; G++2; G++2; G++2; G++2; G++2; G++2; G++2; G++2; G++2; G++2; G++2; G++2; G++2; G++2; G++2; G++2; G++2; G++2; G++2; G++2; G++2; G++2; G++2; G++2; G++2; G++2; G++2; G++2; G++2; G++2; G++2; G++2; G++2; G++2; G++2; G++2; G++2; G++2; G++2; G++2; G++2; G++2; G++2; G++2; G++2; G++2; G++2; G++2; G++2; G++2; G++2; G++2; G++2; G++2; G++2; G++2; G++2; G++2; G++2; G++2; G++2; G++2; G++2; G++2; G++2; G++2; G++2; G++2; G++2; G++2; G++2; G++2; G++2; G++2; G++2; G++2; G++2; G++2; G++2; G++2; G++2; G++2; G++2; G++2; G++2; G++2; G++2; G++2; G++2; G++2; G++2; G++2; G++2; G++2; G++2; G++2; G++2; G++2; G++2; G++2; G++2; G++2; G++2; G++2; G++2; G++2; G++2; G++2; G++2; G++2; G++2; G++2; G++2; G++2; G++2; G++2; G++2; G++2; G++2; G++2; G++2; G++2; G++2; G++2; G++2; G++2; G++2; E++2; E++2; E++2; E++2; E++2; E++2; E++2; E++2; E++2; E++2; E++2; E++2; E++2; E++2; E++2; E++2; E++2; E++2; E++2; E++2; E++2; E++2; E++2; E++2; E++2; E++2; E++2; E++2; E++2; E++2; E++2; E++2; E++2; E++2; E++2; E++2; E++2; E++2; E++2; E++2; E++2; E++2; E++2; E++2; E++2; E++2; E++2; E++2; E++2; E++2; E++2; E++2; E++2; E++2; E++2; E++2; E++2; E++2; E++2; E++2; E++2; E++2; E++2; E++2; E++2; E++2; E++2; E++2; E++2; E++2; E++2; E++2; E++2; E++2; E++2; E++2; E++2; E++2; E++2; E++2; E++2; E++2; E++2; E++2; E++2; E++2; E++2; E++2; E++2; E++2; E++2; E++2; E++2; E++2; E++2; E++2; E++2; E++2; E++2; E++2; E++2; E++2; E++2; E++2; E++2; E++2; E++2; E++2; E++2; E++2; E++2; E++2; E++2; E++2; E++2; E++2; E++2; E++2; E++2; E++2; E++2; E++2; E++2; E++2; E++2; E++2; E++2; E++2; E++2; E++2; E++2; E++2; E++2; E++2; E++2; E++2; E++2; E++2; E++2; E++2; E++2; E++2; E++2; E++2; E++2; E++2; E++2; E++2; E++2; E++2; E++2; E++2; E++2; E++2; E++2; E++2; E++2; E++2; E++2; E++2; E++2; E++2; E++2; E++2; E++2; E++2; E++2; E++2; E++2; E++2; C++2; C++2; C++2; C++2; C++2; C++2; C++2; C++2; C++2; C++2; C++2; C++2; C++2; C++2; C++2; C++2; C++2; C2; C2; C2; C2; C2; C2; C2; C2; C2; C2; C2; C2; C2; C2; C2; C2; C2; C2; C2; C2; C2; C2; C2; C2; C2; C2; C2; C2; C2; C2; C2; C2; C2; C2; C2; C2; C2; C2; C2; C2; C2; C2; C2; C2; C2; C2; C2; C2; C2; C2; C2; C2; C2; C2; C2; C2; C2; C2; C2; C2; C2; C2; C2; C2; C2; C2; C2; C2; C2; C2; C2; C2; C2; C2; C2; C2; C2; C2; C2; C2; C2; C2; C2; C2; C2; C2; C2; C2; C2; C2; C2; C2; C2; C2; C2; C2; C2; C2; C2; C2; C2; C2; C2; C2; C2; C2; C2; C2; C2; C2; C2; C2; C2; C2; C2; C2; C2; C2; C2; C2; C2; C2; C2; C2; C2; C2; C2; C2; C2; C2; C2; C2; C2; C2; C2; C2; C2; C2; C2; C2; C2; C2; C2; C2; C2; C2; C2; C2; C2; C2; C2; C2; C2; C2; >77;> >77;> >77;> >77;> >77;> >77;> >77;> >77;> >77;> >77;> >77;> >77;> >77;> >77;> >77;> >77;> >77;> >77;> >77;> >77;> >77;> >77;> >77;> >77;> >77;> >77;> >77;> >77;> >77;> >77;> >77;> >77;> >77;> >77;> >77;> >77;> >77;> >77;> >77;> >77;> >77;> >77;> >77;> >77;> >77;> >77;> >77;> >77;> >77;> >77;> >77;> >77;> >77;> >77;> >77;> >77;> >77;> >77;> >77;> >77;> >77;> >77;> >77;> >77;> >77;> >77;> >77;> >77;> >77;> >77;> >77;> >77;> >77;> >77;> >77;> >77;> >77;> >77;> >77;> >77;> >77;> >77;> >77;> >77;> >77;> >77;> >77;> >77;> >77;> >77;> >77;> >77;> >77;> >77;> >77;> >77;> >77;> >77;> >77;> >77;> >77;> >77;> >77;> >77;> >77;> >77;> >77;> >77;> >77;> >77;> >77;> >77;> >77;> >77;> >77;> >77;> >77;> >77;> >77;> >77;> >77;> >77;> >77;> >77;> >77;> >77;> >77;> >77;> >77;> >77;> >77;> >77;> >77;> >77;> >77;> >77;> >77;> >77;> >77;> >77;> >77;> >77;> >77;> >77;> >77;> >77;> >77;> >77;> >77;> >77;> >77;> >77;> >77;> >77;> >77;> >77;> >77;> >77;> >77;> >77;> >77;> >77;> >77;> >77;> >77;> >77;> >77;> >77;> >77;> >77;> >77;> C77;> C77;> C77;> C77;> C77;> C77;> C77;> C77;> C77;> C77;> C77;> C77;> C77;> C77;> C77;> C77;> C77;> C77;> C77;> C77;> C77;> C77;> C77;> C77;> C77;> C77;> C77;> C77;> C77;> C77;> C77;> C77;> C77;> C77;> C77;> C77;> C77;> C77;> C77;> C77;> C77;> C77;> C77;> C77;> C77;> C77;> C77;> C77;> C77;> C77;> C77;> C77;> C77;> C77;> C77;> C77;> C77;> C77;> C77;> C77;> C77;> C77;> C77;> C77;> C77;> C77;> C77;> C77;> C77;> C77;> C77;> C77;> C77;> C77;> C77;> C77;> C77;> C77;> C77;> C77;> C77;> C77;> C77;> C77;> C77;> C77;> C77;> C77;> C77;> C77;> C77;> C77;> C77;> C77;> C77;> C77;> C77;> C77;> C77;> C77;> C77;> C77;> C77;> C77;> C77;> C77;> C77;> C77;> C77;> C77;> C77;> C77;> C77;> C77;> C77;> C77;> C77;> C77;> C77;> C77;> C77;> C77;> C77;> C77;> C77;> C77;> C77;> C77;> C77;> C77;> C77;> C77;> C77;> C77;> C77;> C77;> C77;> C77;> C77;> C77;> C77;> C77;> C77;> C77;> C77;> C77;> C77;> C77;> C77;> C77;> C77;> C77;> C77;> C77;> C77;> C77;> C77;> C77;> C77;> C77;> C77;> C77;> C77;> C77;> C77;> C77;> C77;> C77;> C77;> C77;> E77;> E77;> E77;> E77;> E77;> E77;> E77;> E77;> E77;> E77;> E77;> E77;> E77;> E77;> E77;> E77;> E77;> E77;> E77;> E77;> E77;> E77;> E77;> E77;> E77;> E77;> E77;> E77;> E77;> E77;> E77;> E77;> E77;> E77;> E77;> E77;> E77;> E77;> E77;> E77;> E77;> E77;> E77;> E77;> E77;> E77;> E77;> E77;> E77;> E77;> E77;> E77;> E77;> E77;> E77;> E77;> E77;> E77;> E77;> E77;> E77;> E77;> E77;> E77;> E77;> E77;> E77;> E77;> E77;> E77;> E77;> E77;> E77;> E77;> E77;> E77;> E77;> E77;> E77;> E77;> E77;> E77;> E77;> E77;> E77;> E77;> E77;> E77;> E77;> E77;> E77;> E77;> E77;> E77;> E77;> E77;> E77;> E77;> E77;> E77;> E77;> E77;> E77;> E77;> E77;> E77;> E77;> E77;> E77;> E77;> E77;> E77;> E77;> E77;> E77;> E77;> E77;> E77;> E77;> E77;> E77;> E77;> E77;> E77;> E77;> E77;> E77;> E77;> E77;> E77;> E77;> E77;> E77;> E77;> E77;> E77;> E77;> E77;> E77;> E77;> E77;> E77;> E77;> E77;> E77;> E77;> E77;> E77;> E77;> E77;> E77;> E77;> E77;> E77;> E77;> E77;> E77;> E77;> E77;> E77;> E77;> E77;> E77;> E77;> E77;> E77;> E77;> E77;> E77;> E77;> E77;> G77;> G77;> G77;> G77;> G77;> G77;> G77;> G77;> G77;> G77;> G77;> G77;> G77;> G77;> G77;> G77;> G77;> G77;> G77;> G77;> G77;> G77;> G77;> G77;> G77;> G77;> G77;> G77;> G77;> G77;> G77;> G77;> G77;> G77;> G77;> G77;> G77;> G77;> G77;> G77;> G77;> G77;> G77;> G77;> G77;> G77;> G77;> G77;> G77;> G77;> G77;> G77;> G77;> G77;> G77;> G77;> G77;> G77;> G77;> G77;> G77;> G77;> G77;> G77;> G77;> G77;> G77;> G77;> G77;> G77;> G77;> G77;> G77;> G77;> G77;> G77;> G77;> G77;> G77;> G77;> G77;> G77;> G77;> G77;> G77;> G77;> G77;> G77;> G77;> G77;> G77;> G77;> G77;> G77;> G77;> G77;> G77;> G77;> G77;> G77;> G77;> G77;> G77;> G77;> G77;> G77;> G77;> G77;> G77;> G77;> G77;> G77;> G77;> G77;> G77;> G77;> G77;> G77;> G77;> G77;> G77;> G77;> G77;> G77;> G77;> G77;> G77;> G77;> G77;> G77;> G77;> G77;> G77;> G77;> G77;> G77;> G77;> G77;> G77;> G77;> G77;> G77;> G77;> G77;> G77;> G77;> G77;> G77;> G77;> G77;> G77;> G77;> G77;> G77;> G77;> G77;> G77;> G77;> G77;> G77;> G77;> G77;> G77;> G77;> G77;> G77;> G77;> G77;> G77;> G77;> G77;> E77;> E77;> E77;> E77;> E77;> E77;> E77;> E77;> E77;> E77;> E77;> E77;> E77;> E77;> E77;> E77;> E77;> E77;> E77;> E77;> E77;> E77;> E77;> E77;> E77;> E77;> E77;> E77;> E77;> E77;> E77;> E77;> E77;> E77;> E77;> E77;> E77;> E77;> E77;> E77;> E77;> E77;> E77;> E77;> E77;> E77;> E77;> E77;> E77;> E77;> E77;> E77;> E77;> E77;> E77;> E77;> E77;> E77;> E77;> E77;> E77;> E77;> E77;> E77;> E77;> E77;> E77;> E77;> E77;> E77;> E77;> E77;> E77;> E77;> E77;> E77;> E77;> E77;> E77;> E77;> E77;> E77;> E77;> E77;> E77;> E77;> E77;> E77;> E77;> E77;> E77;> E77;> E77;> E77;> E77;> E77;> E77;> E77;> E77;> E77;> E77;> E77;> E77;> E77;> E77;> E77;> E77;> E77;> E77;> E77;> E77;> E77;> E77;> E77;> E77;> E77;> E77;> E77;> E77;> E77;> E77;> E77;> E77;> E77;> E77;> E77;> E77;> E77;> E77;> E77;> E77;> E77;> E77;> E77;> E77;> E77;> E77;> E77;> E77;> E77;> E77;> E77;> E77;> E77;> E77;> E77;> E77;> E77;> E77;> E77;> E77;> E77;> E77;> E77;> E77;> E77;> E77;> E77;> E77;> E77;> E77;> E77;> E77;> E77;> E77;> E77;> E77;> E77;> E77;> E77;> C77;> C77;> C77;> C77;> C77;> C77;> C77;> C77;> C77;> C77;> C77;> C77;> C77;> C77;> C77;> C77;> C77;> C77;> C77;> C77;> C77;> C77;> C77;> C77;> C77;> C77;> C77;> C77;> C77;> C77;> C77;> C77;> C77;> C77;> C77;> C77;> C77;> C77;> C77;> C77;> C77;> C77;> C77;> C77;> C77;> C77;> C77;> C77;> C77;> C77;> C77;> C77;> C77;> C77;> C77;> C77;> C77;> C77;> C77;> C77;> C77;> C77;> C77;> C77;> C77;> C77;> C77;> C77;> C77;> C;> C;> C;> C;> C;> C;> C;> C;> C;> C;> C;> C;> C;> C;> C;> C;> C;> C;> C;> C;> C;> C;> C;> C;> C;> C;> C;> C;> C;> C;> C;> C;> C;> C;> C;> C;> C;> C;> C;> C;> C;> C;> C;> C;> C;> C;> C;> C;> C;> C;> C;> C;> C;> C;> C;> C;> C;> C;> C;> C;> C;> C;> C;> C;> C;> C;> C;> C;> C;> C;> C;> C;> C;> C;> C;> C;> C;> C;> C;> C;> C;> C;> C;> C;> C;> C;> C;> C;> C;> C;> C;> C;> C;> C;> C;> C;> C;> C;> C;> C;> C;> C;> E696 E696 E696 E696 E696 E696 E696 E696 E696 E696 E696 E696 E696 E696 E696 E696 E696 E696 E696 E696 E696 E696 E696 E696 E696 E696 E696 E696 E696 E696 E696 E696 E696 E696 E696 E696 E696 E696 E696 E696 E696 E696 E696 E696 E696 E696 E696 E696 E696 E696 E696 E696 E696 E696 E696 E696 E696 E696 E696 E696 E696 E696 E696 E696 E696 E696 E696 E696 E696 E696 E696 E696 E696 E696 E696 E696 E696 E696 E696 E696 E696 E696 E696 E696 E696 E696 E696 E696 E696 E696 E696 E696 E696 E696 E696 E696 E696 E696 E696 E696 E696 E696 E696 E696 E696 E696 E696 E696 E696 E696 E696 E696 E696 E696 E696 E696 E696 E696 E696 E696 E696 E696 E696 E696 E696 E696 E696 E696 E696 E696 E696 E696 E696 E696 E696 E696 E696 E696 E696 E696 E696 E696 E696 E696 E696 E696 E696 E696 E696 E696 E696 E696 E696 E696 E696 E696 E696 E696 E696 E696 E696 E696 E696 E696 E696 E696 E696 E696 E696 E696 E696 G696 G696 G696 G696 G696 G696 G696 G696 G696 G696 G696 G696 G696 G696 G696 G696 G696 G696 G696 G696 G696 G696 G696 G696 G696 G696 G696 G696 G696 G696 G696 G696 G696 G696 G696 G696 G696 G696 G696 G696 G696 G696 G696 G696 G696 G696 G696 G696 G696 G696 G696 G696 G696 G696 G696 G696 G696 G696 G696 G696 G696 G696 G696 G696 G696 G696 G696 G696 G696 G696 G696 G696 G696 G696 G696 G696 G696 G696 G696 G696 G696 G696 G696 G696 G696 G696 G696 G696 G696 G696 G696 G696 G696 G696 G696 G696 G696 G696 G696 G696 G696 G696 G696 G696 G696 G696 G696 G696 G696 G696 G696 G696 G696 G696 G696 G696 G696 G696 G696 G696 G696 G696 G696 G696 G696 G696 G696 G696 G696 G696 G696 G696 G696 G696 G696 G696 G696 G696 G696 G696 G696 G696 G696 G696 G696 G696 G696 G696 G696 G696 G696 G696 G696 G696 G696 G696 G696 G696 G696 G696 G696 G696 G696 G696 G696 G696 G696 G696 G696 G696 I696 I696 I696 I696 I696 I696 I696 I696 I696 I696 I696 I696 I696 I696 I696 I696 I696 I696 I696 I696 I696 I696 I696 I696 I696 I696 I696 I696 I696 I696 I696 I696 I696 I696 I696 I696 I696 I696 I696 I696 I696 I696 I696 I696 I696 I696 I696 I696 I696 I696 I696 I696 I696 I696 I696 I696 I696 I696 I696 I696 I696 I696 I696 I696 I696 I696 I696 I696 I696 I696 I696 I696 I696 I696 I696 I696 I696 I696 I696 I696 I696 I696 I696 I696 I696 I696 I696 I696 I696 I696 I696 I696 I696 I696 I696 I696 I696 I696 I696 I696 I696 I696 I696 I696 I696 I696 I696 I696 I696 I696 I696 I696 I696 I696 I696 I696 I696 I696 I696 I696 I696 I696 I696 I696 I696 I696 I696 I696 I696 I696 I696 I696 I696 I696 I696 I696 I696 I696 I696 I696 I696 I696 I696 I696 I696 I696 I696 I696 I696 I696 I696 I696 I696 I696 I696 I696 I696 I696 I696 I696 I696 I696 I696 I696 I696 I696 I696 I696 I696 I696 I696 J6;6 J6;6 J6;6 J6;6 J6;6 J6;6 J6;6 J6;6 J6;6 J6;6 J6;6 J6;6 J6;6 J6;6 J6;6 J6;6 J6;6 J6;6 J6;6 J6;6 J6;6 J6;6 J6;6 J6;6 J6;6 J6;6 J6;6 J6;6 J6;6 J6;6 J6;6 J6;6 J6;6 J6;6 J6;6 J6;6 J6;6 J6;6 J6;6 J6;6 J6;6 J6;6 J6;6 J6;6 J6;6 J6;6 J6;6 J6;6 J6;6 J6;6 J6;6 J6;6 J6;6 J6;6 J6;6 J6;6 J6;6 J6;6 J6;6 J6;6 J6;6 J6;6 J6;6 J6;6 J6;6 J6;6 J6;6 J6;6 J6;6 J6;6 J6;6 J6;6 J6;6 J6;6 J6;6 J6;6 J6;6 J6;6 J6;6 J6;6 J6;6 J6;6 J6;6 J6;6 J6;6 J6;6 J6;6 J6;6 J6;6 J6;6 J6;6 J6;6 J6;6 J6;6 J6;6 J6;6 J6;6 J6;6 J6;6 J6;6 J6;6 J6;6 J6;6 J6;6 J6;6 J6;6 J6;6 J6;6 J6;6 J6;6 J6;6 J6;6 J6;6 J6;6 J6;6 J6;6 J6;6 J6;6 J6;6 J6;6 J6;6 J6;6 J6;6 J6;6 J6;6 J6;6 J6;6 J6;6 J6;6 J6;6 J6;6 J6;6 J6;6 J6;6 J6;6 J6;6 J6;6 J6;6 J6;6 J6;6 J6;6 J6;6 J6;6 J6;6 J6;6 J6;6 J6;6 J6;6 J6;6 J6;6 J6;6 J6;6 J6;6 J6;6 J6;6 J6;6 J6;6 J6;6 J6;6 J6;6 J6;6 J6;6 J6;6 J6;6 J6;6 J6;6 J6;6 J6;6 J6;6 J6;6 J6;6 I6=6 I6=6 I6=6 I6=6 I6=6 I6=6 I6=6 I6=6 I6=6 I6=6 I6=6 I6=6 I6=6 I6=6 I6=6 I6=6 I6=6 I6=6 I6=6 I6=6 I6=6 I6=6 I6=6 I6=6 I6=6 I6=6 I6=6 I6=6 I6=6 I6=6 I6=6 I6=6 I6=6 I6=6 I6=6 I6=6 I6=6 I6=6 I6=6 I6=6 I6=6 I6=6 I6=6 I6=6 I6=6 I6=6 I6=6 I6=6 I6=6 I6=6 I6=6 I6=6 I6=6 I6=6 I6=6 I6=6 I6=6 I6=6 I6=6 I6=6 I6=6 I6=6 I6=6 I6=6 I6=6 I6=6 I6=6 I6=6 I6=6 I6=6 I6=6 I6=6 I6=6 I6=6 I6=6 I6=6 I6=6 I6=6 I6=6 I6=6 I6=6 I6=6 I6=6 I6=6 I6=6 I6=6 I6=6 I6=6 I6=6 I6=6 I6=6 I6=6 I6=6 I6=6 I6=6 I6=6 I6=6 I6=6 I6=6 I6=6 I6=6 I6=6 I6=6 I6=6 I6=6 I6=6 I6=6 I6=6 I6=6 I6=6 I6=6 I6=6 I6=6 I6=6 I6=6 I6=6 I6=6 I6=6 I6=6 I6=6 I6=6 I6=6 I6=6 I6=6 I6=6 I6=6 I6=6 I6=6 I6=6 I6=6 I6=6 I6=6 I6=6 I6=6 I6=6 I6=6 I6=6 I6=6 I6=6 I6=6 I6=6 I6=6 I6=6 I6=6 I6=6 I6=6 I6=6 I6=6 I6=6 I6=6 I6=6 I6=6 I6=6 I6=6 I6=6 I6=6 I6=6 I6=6 I6=6 I6=6 I6=6 I6=6 I6=6 I6=6 I6=6 I6=6 I6=6 I6=6 I6=6 I6=6 G66> G66> G66> G66> G66> G66> G66> G66> G66> G66> G66> G66> G66> G66> G66> G66> G66> G66> G66> G66> G66> G66> G66> G66> G66> G66> G66> G66> G66> G66> G66> G66> G66> G66> G66> G66> G66> G66> G66> G66> G66> G66> G66> G66> G66> G66> G66> G66> G66> G66> G66> G66> G66> G66> G66> G66> G66> G66> G66> G66> G66> G66> G66> G66> G66> G66> G66> G66> G66> G> G> G> G> G> G> G> G> G> G> G> G> G> G> G> G> G> G> G> G> G> G> G> G> G> G> G> G> G> G> G> G> G> G> G> G> G> G> G> G> G> G> G> G> G> G> G> G> G> G> G> G> G> G> G> G> G> G> G> G> G> G> G> G> G> G> G> G> G> G> G> G> G> G> G> G> G> G> G> G> G> G> G> G> G> G> G> G> G> G> G> G> G> G> G> G> G> G> G> G> G> G> I447@ I447@ I447@ I447@ I447@ I447@ I447@ I447@ I447@ I447@ I447@ I447@ I447@ I447@ I447@ I447@ I447@ I447@ I447@ I447@ I447@ I447@ I447@ I447@ I447@ I447@ I447@ I447@ I447@ I447@ I447@ I447@ I447@ I447@ I447@ I447@ I447@ I447@ I447@ I447@ I447@ I447@ I447@ I447@ I447@ I447@ I447@ I447@ I447@ I447@ I447@ I447@ I447@ I447@ I447@ I447@ I447@ I447@ I447@ I447@ I447@ I447@ I447@ I447@ I447@ I447@ I447@ I447@ I447@ I447@ I447@ I447@ I447@ I447@ I447@ I447@ I447@ I447@ I447@ I447@ I447@ I447@ I447@ I447@ I447@ I447@ I447@ I447@ I447@ I447@ I447@ I447@ I447@ I447@ I447@ I447@ I447@ I447@ I447@ I447@ I447@ I447@ I447@ I447@ I447@ I447@ I447@ I447@ I447@ I447@ I447@ I447@ I447@ I447@ I447@ I447@ I447@ I447@ I447@ I447@ I447@ I447@ I447@ I447@ I447@ I447@ I447@ I447@ I447@ I447@ I447@ I447@ I447@ I447@ I447@ I447@ I447@ I447@ I447@ I447@ I447@ I447@ I447@ I447@ I447@ I447@ I447@ I447@ I447@ I447@ I447@ I447@ I447@ I447@ I447@ I447@ I447@ I447@ I447@ I447@ I447@ I447@ I447@ I447@ I447@ I447@ I447@ I447@ I447@ I447@ I447@ K447@ K447@ K447@ K447@ K447@ K447@ K447@ K447@ K447@ K447@ K447@ K447@ K447@ K447@ K447@ K447@ K447@ K447@ K447@ K447@ K447@ K447@ K447@ K447@ K447@ K447@ K447@ K447@ K447@ K447@ K447@ K447@ K447@ K447@ K447@ K447@ K447@ K447@ K447@ K447@ K447@ K447@ K447@ K447@ K447@ K447@ K447@ K447@ K447@ K447@ K447@ K447@ K447@ K447@ K447@ K447@ K447@ K447@ K447@ K447@ K447@ K447@ K447@ K447@ K447@ K447@ K447@ K447@ K447@ K447@ K447@ K447@ K447@ K447@ K447@ K447@ K447@ K447@ K447@ K447@ K447@ K447@ K447@ K447@ K447@ K447@ K447@ K447@ K447@ K447@ K447@ K447@ K447@ K447@ K447@ K447@ K447@ K447@ K447@ K447@ K447@ K447@ K447@ K447@ K447@ K447@ K447@ K447@ K447@ K447@ K447@ K447@ K447@ K447@ K447@ K447@ K447@ K447@ K447@ K447@ K447@ K447@ K447@ K447@ K447@ K447@ K447@ K447@ K447@ K447@ K447@ K447@ K447@ K447@ K447@ K447@ K447@ K447@ K447@ K447@ K447@ K447@ K447@ K447@ K447@ K447@ K447@ K447@ K447@ K447@ K447@ K447@ K447@ K447@ K447@ K447@ K447@ K447@ K447@ K447@ K447@ K447@ K447@ K447@ K447@ K447@ K447@ K447@ K447@ K447@ L447@ L447@ L447@ L447@ L447@ L447@ L447@ L447@ L447@ L447@ L447@ L447@ L447@ L447@ L447@ L447@ L447@ L7@ L7@ L7@ L7@ L7@ L7@ L7@ L7@ L7@ L7@ L7@ L7@ L7@ L7@ L7@ L7@ L7@ L7@ L7@ L7@ L7@ L7@ L7@ L7@ L7@ L7@ L7@ L7@ L7@ L7@ L7@ L7@ L7@ L7@ L7@ L7@ L7@ L7@ L7@ L7@ L7@ L7@ L7@ L7@ L7@ L7@ L7@ L7@ L7@ L7@ L7@ L7@ L7@ L7@ L7@ L7@ L7@ L7@ L7@ L7@ L7@ L7@ L7@ L7@ L7@ L7@ L7@ L7@ L7@ L7@ L7@ L7@ L7@ L7@ L7@ L7@ L7@ L7@ L7@ L7@ L7@ L7@ L7@ L7@ L7@ L7@ L7@ L7@ L7@ L7@ L7@ L7@ L7@ L7@ L7@ L7@ L7@ L7@ L7@ L7@ L7@ L7@ L7@ L7@ L7@ L7@ L7@ L7@ L7@ L7@ L7@ L7@ L7@ L7@ L7@ L7@ L7@ L7@ L7@ L7@ L7@ L7@ L7@ L7@ L7@ L7@ L7@ L7@ L7@ L7@ L7@ L7@ L7@ L7@ L7@ L7@ L7@ L7@ L7@ L7@ L7@ L7@ L7@ L7@ L7@ L7@ L7@ L7@ L7@ L7@ L7@ L7@ L7@ L7@ N33;B N33;B N33;B N33;B N33;B N33;B N33;B N33;B N33;B N33;B N33;B N33;B N33;B N33;B N33;B N33;B N33;B N33;B N33;B N33;B N33;B N33;B N33;B N33;B N33;B N33;B N33;B N33;B N33;B N33;B N33;B N33;B N33;B N33;B N33;B N33;B N33;B N33;B N33;B N33;B N33;B N33;B N33;B N33;B N33;B N33;B N33;B N33;B N33;B N33;B N33;B N33;B N33;B N33;B N33;B N33;B N33;B N33;B N33;B N33;B N33;B N33;B N33;B N33;B N33;B N33;B N33;B N33;B N33;B N33;B N33;B N33;B N33;B N33;B N33;B N33;B N33;B N33;B N33;B N33;B N33;B N33;B N33;B N33;B N33;B N33;B N33;B N33;B N33;B N33;B N33;B N33;B N33;B N33;B N33;B N33;B N33;B N33;B N33;B N33;B N33;B N33;B N33;B N33;B N33;B N33;B N33;B N33;B N33;B N33;B N33;B N33;B N33;B N33;B N33;B N33;B N33;B N33;B N33;B N33;B N33;B N33;B N33;B N33;B N33;B N33;B N33;B N33;B N33;B N33;B N33;B N33;B N33;B N33;B N33;B N33;B N33;B N33;B N33;B N33;B N33;B N33;B N33;B N33;B N33;B N33;B N33;B N33;B N33;B N33;B N33;B N33;B N33;B N33;B N33;B N33;B N33;B N33;B N33;B N33;B N33;B N33;B N33;B N33;B N33;B N33;B N33;B N33;B N33;B N33;B N33;B L33;B L33;B L33;B L33;B L33;B L33;B L33;B L33;B L33;B L33;B L33;B L33;B L33;B L33;B L33;B L33;B L33;B L33;B L33;B L33;B L33;B L33;B L33;B L33;B L33;B L33;B L33;B L33;B L33;B L33;B L33;B L33;B L33;B L33;B L33;B L33;B L33;B L33;B L33;B L33;B L33;B L33;B L33;B L33;B L33;B L33;B L33;B L33;B L33;B L33;B L33;B L33;B L33;B L33;B L33;B L33;B L33;B L33;B L33;B L33;B L33;B L33;B L33;B L33;B L33;B L33;B L33;B L33;B L33;B L33;B L33;B L33;B L33;B L33;B L33;B L33;B L33;B L33;B L33;B L33;B L33;B L33;B L33;B L33;B L33;B L33;B L33;B L33;B L33;B L33;B L33;B L33;B L33;B L33;B L33;B L33;B L33;B L33;B L33;B L33;B L33;B L33;B L33;B L33;B L33;B L33;B L33;B L33;B L33;B L33;B L33;B L33;B L33;B L33;B L33;B L33;B L33;B L33;B L33;B L33;B L33;B L33;B L33;B L33;B L33;B L33;B L33;B L33;B L33;B L33;B L33;B L33;B L33;B L33;B L33;B L33;B L33;B L33;B L33;B L33;B L33;B L33;B L33;B L33;B L33;B L33;B L33;B L33;B L33;B L33;B L33;B L33;B L33;B L33;B L33;B L33;B L33;B L33;B L33;B L33;B L33;B L33;B L33;B L33;B L33;B L33;B L33;B L33;B L33;B L33;B K33;B K33;B K33;B K33;B K33;B K33;B K33;B K33;B K33;B K33;B K33;B K33;B K33;B K33;B K33;B K33;B K33;B K;B K;B K;B K;B K;B K;B K;B K;B K;B K;B K;B K;B K;B K;B K;B K;B K;B K;B K;B K;B K;B K;B K;B K;B K;B K;B K;B K;B K;B K;B K;B K;B K;B K;B K;B K;B K;B K;B K;B K;B K;B K;B K;B K;B K;B K;B K;B K;B K;B K;B K;B K;B K;B K;B K;B K;B K;B K;B K;B K;B K;B K;B K;B K;B K;B K;B K;B K;B K;B K;B K;B K;B K;B K;B K;B K;B K;B K;B K;B K;B K;B K;B K;B K;B K;B K;B K;B K;B K;B K;B K;B K;B K;B K;B K;B K;B K;B K;B K;B K;B K;B K;B K;B K;B K;B K;B K;B K;B K;B K;B K;B K;B K;B K;B K;B K;B K;B K;B K;B K;B K;B K;B K;B K;B K;B K;B K;B K;B K;B K;B K;B K;B K;B K;B K;B K;B K;B K;B K;B K;B K;B K;B K;B K;B K;B K;B K;B K;B K;B K;B K;B K;B K;B K;B L;B L;B L;B L;B L;B L;B L;B L;B L;B L;B L;B L;B L;B L;B L;B L;B L;B L;B L;B L;B L;B L;B L;B L;B L;B L;B L;B L;B L;B L;B L;B L;B L;B L;B L;B L;B L;B L;B L;B L;B L;B L;B L;B L;B L;B L;B L;B L;B L;B L;B L;B L;B L;B L;B L;B L;B L;B L;B L;B L;B L;B L;B L;B L;B L;B L;B L;B L;B L;B L;B L;B L;B L;B L;B L;B L;B L;B L;B L;B L;B L;B L;B L;B L;B L;B L;B L;B L;B L;B L;B L;B L;B L;B L;B L;B L;B L;B L;B L;B L;B L;B L;B L;B L;B L;B L;B L;B L;B L;B L;B L;B L;B L;B L;B L;B L;B L;B L;B L;B L;B L;B L;B L;B L;B L;B L;B L;B L;B L;B L;B L;B L;B L;B L;B L;B L;B L;B L;B L;B L;B L;B L;B L;B L;B L;B L;B L;B L;B L;B L;B L;B L;B L;B L;B L;B L;B L;B L;B L;B L;B L;B L;B L;B L;B L;B L;B L;B L;B L;B L;B L;B N;B N;B N;B N;B N;B N;B N;B N;B N;B N;B N;B N;B N;B N;B N;B N;B N;B N;B N;B N;B N;B N;B N;B N;B N;B N;B N;B N;B N;B N;B N;B N;B N;B N;B N;B N;B N;B N;B N;B N;B N;B N;B N;B N;B N;B N;B N;B N;B N;B N;B N;B N;B N;B N;B N;B N;B N;B N;B N;B N;B N;B N;B N;B N;B N;B N;B N;B N;B N;B N;B N;B N;B N;B N;B N;B N;B N;B N;B N;B N;B N;B N;B N;B N;B N;B N;B N;B N;B N;B N;B N;B N;B N;B N;B N;B N;B N;B N;B N;B N;B N;B N;B N;B N;B N;B N;B N;B N;B N;B N;B N;B N;B N;B N;B N;B N;B N;B N;B N;B N;B N;B N;B N;B N;B N;B N;B N;B N;B N;B N;B N;B N;B N;B N;B N;B N;B N;B N;B N;B N;B N;B N;B N;B N;B N;B N;B N;B N;B N;B N;B N;B N;B N;B N;B N;B N;B N;B N;B N;B N;B N;B N;B N;B N;B N;B N;B N;B N;B N;B N;B O;B O;B O;B O;B O;B O;B O;B O;B O;B O;B O;B O;B O;B O;B O;B O;B O;B O;B O;B O;B O;B O;B O;B O;B O;B O;B O;B O;B O;B O;B O;B O;B O;B O;B O;B O;B O;B O;B O;B O;B O;B O;B O;B O;B O;B O;B O;B O;B O;B O;B O;B O;B O;B O;B O;B O;B O;B O;B O;B O;B O;B O;B O;B O;B O;B O;B O;B O;B O;B O;B O;B O;B O;B O;B O;B O;B O;B O;B O;B O;B O;B O;B O;B O;B O;B O;B O;B O;B O;B O;B O;B O;B O;B O;B O;B O;B O;B O;B O;B O;B O;B O;B O;B O;B O;B O;B O;B O;B O;B O;B O;B O;B O;B O;B O;B O;B O;B O;B O;B O;B O;B O;B O;B O;B O;B O;B O;B O;B O;B O;B O;B O;B O;B O;B O;B O;B O;B O;B O;B O;B O;B O;B O;B O;B O;B O;B O;B O;B O;B O;B O;B O;B O;B O;B O;B O;B O;B O;B O;B O;B O;B O;B O;B O;B O;B O;B O;B O;B O;B O;B O;B Q Q Q Q Q Q Q Q Q Q Q Q Q Q Q Q Q Q Q Q Q Q Q Q Q Q Q Q Q Q Q Q Q Q Q Q Q Q Q Q Q Q Q Q Q Q Q Q Q Q Q Q Q Q Q Q Q Q Q Q Q Q Q Q Q Q Q Q Q Q Q Q Q Q Q Q Q Q Q Q Q Q Q Q Q Q Q Q Q Q Q Q Q Q Q Q Q Q Q Q Q Q Q Q Q Q Q Q Q Q Q Q Q Q Q Q Q Q Q Q Q Q Q Q Q Q Q Q Q Q Q Q Q Q Q Q Q Q Q Q Q Q Q Q Q Q Q Q Q Q Q Q Q Q Q Q Q Q Q Q Q Q Q Q Q Q Q Q Q Q Q O O O O O O O O O O O O O O O O O O O O O O O O O O O O O O O O O O O O O O O O O O O O O O O O O O O O O O O O O O O O O O O O O O O O O O O O O O O O O O O O O O O O O O O O O O O O O O O O O O O O O O O O O O O O O O O O O O O O O O O O O O O O O O O O O O O O O O O O O O O O O O O O O O O O O O O O O O O O O O O O O O O O O O O O O O N N N N N N N N N N N N N N N N N N N N N N N N N N N N N N N N N N N N N N N N N N N N N N N N N N N N N N N N N N N N N N N N N N N N N N N N N N N N N N N N N N N N N N N N N N N N N N N N N N N N N N N N N N N N N N N N N N N N N N N N N N N N N N N N N N N N N N N N N N N N N N N N N N N N N N N N N N N N N N N N N N N N N N N N N N N O O O O O O O O O O O O O O O O O O O O O O O O O O O O O O O O O O O O O O O O O O O O O O O O O O O O O O O O O O O O O O O O O O O O O O O O O O O O O O O O O O O O O O O O O O O O O O O O O O O O O O O O O O O O O O O O O O O O O O O O O O O O O O O O O O O O O O O O O O O O O O O O O O O O O O O O O O O O O O O O O O O O O O O O O O O Q Q Q Q Q Q Q Q Q Q Q Q Q Q Q Q Q Q Q Q Q Q Q Q Q Q Q Q Q Q Q Q Q Q Q Q Q Q Q Q Q Q Q Q Q Q Q Q Q Q Q Q Q Q Q Q Q Q Q Q Q Q Q Q Q Q Q Q Q Q Q Q Q Q Q Q Q Q Q Q Q Q Q Q Q Q Q Q Q Q Q Q Q Q Q Q Q Q Q Q Q Q Q Q Q Q Q Q Q Q Q Q Q Q Q Q Q Q Q Q Q Q Q Q Q Q Q Q Q Q Q Q Q Q Q Q Q Q Q Q Q Q Q Q Q Q Q Q Q Q Q Q Q Q Q Q Q Q Q Q Q Q Q Q Q Q Q Q Q Q S S S S S S S S S S S S S S S S S S S S S S S S S S S S S S S S S S S S S S S S S S S S S S S S S S S S S S S S S S S S S S S S S S S S S S S S S S S S S S S S S S S S S S S S S S S S S S S S S S S S S S S S S S S S S S S S S S S S S S S S S S S S S S S S S S S S S S S S S S S S S S S S S S S S S S S S S S S S S S S S S S S S S S S S S S S T T T T T T T T T T T T T T T T T T T T T T T T T T T T T T T T T T T T T T T T T T T T T T T T T T T T T T T T T T T T T T T T T T T T T T T T T T T T T T T T T T T T T T T T T T T T T T T T T T T T T T T T T T T T T T T T T T T T T T T T T T T T T T T T T T T T T T T T T T T T T T T T T T T T T T T T T T T T T T T T T T T T T T T T T T T S S S S S S S S S S S S S S S S S S S S S S S S S S S S S S S S S S S S S S S S S S S S S S S S S S S S S S S S S S S S S S S S S S S S S S S S S S S S S S S S S S S S S S S S S S S S S S S S S S S S S S S S S S S S S S S S S S S S S S S S S S S S S S S S S S S S S S S S S S S S S S S S S S S S S S S S S S S S S S S S S S S S S S S S S S Q Q Q Q Q Q Q Q Q Q Q Q Q Q Q Q Q Q Q Q Q Q Q Q Q Q Q Q Q Q Q Q Q Q Q Q Q Q Q Q Q Q Q Q Q Q Q Q Q Q Q Q Q Q Q Q Q Q Q Q Q Q Q Q Q Q Q Q Q Q Q Q Q Q Q Q Q Q Q Q Q Q Q Q Q Q Q Q Q Q Q Q Q Q Q Q Q Q Q Q Q Q Q Q Q Q Q Q Q Q Q Q Q Q Q Q Q Q Q Q Q Q Q Q Q Q Q Q Q Q Q Q Q Q Q Q Q Q Q Q Q Q Q Q Q Q Q Q Q Q Q Q Q Q Q Q Q Q Q Q Q Q Q Q Q Q Q Q Q Q Q O//BK O//BK O//BK O//BK O//BK O//BK O//BK O//BK O//BK O//BK O//BK O//BK O//BK O//BK O//BK O//BK O//BK O//BK O//BK O//BK O//BK O//BK O//BK O//BK O//BK O//BK O//BK O//BK O//BK O//BK O//BK O//BK O//BK O//BK O//BK O//BK O//BK O//BK O//BK O//BK O//BK O//BK O//BK O//BK O//BK O//BK O//BK O//BK O//BK O//BK O//BK O//BK O//BK O//BK O//BK O//BK O//BK O//BK O//BK O//BK O//BK O//BK O//BK O//BK O//BK O//BK O//BK O//BK O//BK O//BK O//BK O//BK O//BK O//BK O//BK O//BK O//BK O//BK O//BK O//BK O//BK O//BK O//BK O//BK O//BK O//BK O//BK O//BK O//BK O//BK O//BK O//BK O//BK O//BK O//BK O//BK O//BK O//BK O//BK O//BK O//BK O//BK O//BK O//BK O//BK O//BK O//BK O//BK O//BK O//BK O//BK O//BK O//BK O//BK O//BK O//BK O//BK O//BK O//BK O//BK O//BK O//BK O//BK O//BK O//BK O//BK O//BK O//BK O//BK O//BK O//BK O//BK O//BK O//BK O//BK O//BK O//BK O//BK O//BK O//BK O//BK O//BK O//BK O//BK O//BK O//BK O//BK O//BK O//BK O//BK O//BK O//BK O//BK O//BK O//BK O//BK O//BK O//BK O//BK O//BK O//BK O//BK O//BK O//BK O//BK O//BK O//BK O//BK O//BK O//BK O//BK Q//BK Q//BK Q//BK Q//BK Q//BK Q//BK Q//BK Q//BK Q//BK Q//BK Q//BK Q//BK Q//BK Q//BK Q//BK Q//BK Q//BK Q//BK Q//BK Q//BK Q//BK Q//BK Q//BK Q//BK Q//BK Q//BK Q//BK Q//BK Q//BK Q//BK Q//BK Q//BK Q//BK Q//BK Q//BK Q//BK Q//BK Q//BK Q//BK Q//BK Q//BK Q//BK Q//BK Q//BK Q//BK Q//BK Q//BK Q//BK Q//BK Q//BK Q//BK Q//BK Q//BK Q//BK Q//BK Q//BK Q//BK Q//BK Q//BK Q//BK Q//BK Q//BK Q//BK Q//BK Q//BK Q//BK Q//BK Q//BK Q//BK Q//BK Q//BK Q//BK Q//BK Q//BK Q//BK Q//BK Q//BK Q//BK Q//BK Q//BK Q//BK Q//BK Q//BK Q//BK Q//BK Q//BK Q//BK Q//BK Q//BK Q//BK Q//BK Q//BK Q//BK Q//BK Q//BK Q//BK Q//BK Q//BK Q//BK Q//BK Q//BK Q//BK Q//BK Q//BK Q//BK Q//BK Q//BK Q//BK Q//BK Q//BK Q//BK Q//BK Q//BK Q//BK Q//BK Q//BK Q//BK Q//BK Q//BK Q//BK Q//BK Q//BK Q//BK Q//BK Q//BK Q//BK Q//BK Q//BK Q//BK Q//BK Q//BK Q//BK Q//BK Q//BK Q//BK Q//BK Q//BK Q//BK Q//BK Q//BK Q//BK Q//BK Q//BK Q//BK Q//BK Q//BK Q//BK Q//BK Q//BK Q//BK Q//BK Q//BK Q//BK Q//BK Q//BK Q//BK Q//BK Q//BK Q//BK Q//BK Q//BK Q//BK Q//BK Q//BK Q//BK Q//BK Q//BK Q//BK Q//BK Q//BK N//BK N//BK N//BK N//BK N//BK N//BK N//BK N//BK N//BK N//BK N//BK N//BK N//BK N//BK N//BK N//BK N//BK NBK NBK NBK NBK NBK NBK NBK NBK NBK NBK NBK NBK NBK NBK NBK NBK NBK NBK NBK NBK NBK NBK NBK NBK NBK NBK NBK NBK NBK NBK NBK NBK NBK NBK NBK NBK NBK NBK NBK NBK NBK NBK NBK NBK NBK NBK NBK NBK NBK NBK NBK NBK NBK NBK NBK NBK NBK NBK NBK NBK NBK NBK NBK NBK NBK NBK NBK NBK NBK NBK NBK NBK NBK NBK NBK NBK NBK NBK NBK NBK NBK NBK NBK NBK NBK NBK NBK NBK NBK NBK NBK NBK NBK NBK NBK NBK NBK NBK NBK NBK NBK NBK NBK NBK NBK NBK NBK NBK NBK NBK NBK NBK NBK NBK NBK NBK NBK NBK NBK NBK NBK NBK NBK NBK NBK NBK NBK NBK NBK NBK NBK NBK NBK NBK NBK NBK NBK NBK NBK NBK NBK NBK NBK NBK NBK NBK NBK NBK NBK NBK NBK NBK NBK NBK O44CL O44CL O44CL O44CL O44CL O44CL O44CL O44CL O44CL O44CL O44CL O44CL O44CL O44CL O44CL O44CL O44CL O44CL O44CL O44CL O44CL O44CL O44CL O44CL O44CL O44CL O44CL O44CL O44CL O44CL O44CL O44CL O44CL O44CL O44CL O44CL O44CL O44CL O44CL O44CL O44CL O44CL O44CL O44CL O44CL O44CL O44CL O44CL O44CL O44CL O44CL O44CL O44CL O44CL O44CL O44CL O44CL O44CL O44CL O44CL O44CL O44CL O44CL O44CL O44CL O44CL O44CL O44CL O44CL O44CL O44CL O44CL O44CL O44CL O44CL O44CL O44CL O44CL O44CL O44CL O44CL O44CL O44CL O44CL O44CL O44CL O44CL O44CL O44CL O44CL O44CL O44CL O44CL O44CL O44CL O44CL O44CL O44CL O44CL O44CL O44CL O44CL O44CL O44CL O44CL O44CL O44CL O44CL O44CL O44CL O44CL O44CL O44CL O44CL O44CL O44CL O44CL O44CL O44CL O44CL O44CL O44CL O44CL O44CL O44CL O44CL O44CL O44CL O44CL O44CL O44CL O44CL O44CL O44CL O44CL O44CL O44CL O44CL O44CL O44CL O44CL O44CL O44CL O44CL O44CL O44CL O44CL O44CL O44CL O44CL O44CL O44CL O44CL O44CL O44CL O44CL O44CL O44CL O44CL O44CL O44CL O44CL O44CL O44CL O44CL O44CL O44CL O44CL O44CL O44CL O44CL O44CL O44CL O44CL O44CL O44CL O44CL O44CL O44CL O44CL O44CL O44CL O44CL O44CL O44CL O44CL O44CL O44CL O44CL O44CL O44CL O44CL O44CL O44CL O44CL O44CL O44CL O44CL O44CL O44CL O44CL O44CL O44CL O44CL O44CL O44CL O44CL O44CL O44CL O44CL O44CL O44CL O44CL O44CL O44CL O44CL O44CL O44CL O44CL O44CL O44CL O44CL O44CL O44CL O44CL O44CL O44CL O44CL O44CL O44CL O44CL O44CL O44CL O44CL O44CL O44CL O44CL O44CL O44CL O44CL O44CL O44CL O44CL O44CL O44CL O44CL O44CL O44CL O44CL O44CL O44CL O44CL O44CL O44CL O44CL O44CL L44CL L44CL L44CL L44CL L44CL L44CL L44CL L44CL L44CL L44CL L44CL L44CL L44CL L44CL L44CL L44CL L44CL L44CL L44CL L44CL L44CL L44CL L44CL L44CL L44CL L44CL L44CL L44CL L44CL L44CL L44CL L44CL L44CL L44CL L44CL L44CL L44CL L44CL L44CL L44CL L44CL L44CL L44CL L44CL L44CL L44CL L44CL L44CL L44CL L44CL L44CL L44CL L44CL L44CL L44CL L44CL L44CL L44CL L44CL L44CL L44CL L44CL L44CL L44CL L44CL L44CL L44CL L44CL L44CL L44CL L44CL L44CL L44CL L44CL L44CL L44CL L44CL L44CL L44CL L44CL L44CL L44CL L44CL L44CL L44CL L44CL L44CL L44CL L44CL L44CL L44CL L44CL L44CL L44CL L44CL L44CL L44CL L44CL L44CL L44CL L44CL L44CL LCL LCL LCL LCL LCL LCL LCL LCL LCL LCL LCL LCL LCL LCL LCL LCL LCL LCL LCL LCL LCL LCL LCL LCL LCL LCL LCL LCL LCL LCL LCL LCL LCL LCL LCL LCL LCL LCL LCL LCL LCL LCL LCL LCL LCL LCL LCL LCL LCL LCL LCL LCL LCL LCL LCL LCL LCL LCL LCL LCL LCL LCL LCL LCL LCL LCL LCL LCL LCL LCL LCL LCL LCL LCL LCL LCL LCL LCL LCL LCL LCL LCL LCL LCL LCL LCL LCL LCL LCL LCL LCL LCL LCL LCL LCL LCL LCL LCL LCL LCL LCL LCL LCL LCL LCL LCL LCL LCL LCL LCL LCL LCL LCL LCL LCL LCL LCL LCL LCL LCL LCL LCL LCL LCL LCL LCL LCL LCL LCL LCL LCL LCL LCL LCL LCL LCL LCL LCL LCL LCL LCL LCL LCL LCL LCL LCL LCL LCL LCL LCL LCL LCL LCL LCL J7@I7 J7@I7 J7@I7 J7@I7 J7@I7 J7@I7 J7@I7 J7@I7 J7@I7 J7@I7 J7@I7 J7@I7 J7@I7 J7@I7 J7@I7 J7@I7 J7@I7 J7@I7 J7@I7 J7@I7 J7@I7 J7@I7 J7@I7 J7@I7 J7@I7 J7@I7 J7@I7 J7@I7 J7@I7 J7@I7 J7@I7 J7@I7 J7@I7 J7@I7 J7@I7 J7@I7 J7@I7 J7@I7 J7@I7 J7@I7 J7@I7 J7@I7 J7@I7 J7@I7 J7@I7 J7@I7 J7@I7 J7@I7 J7@I7 J7@I7 J7@I7 J7@I7 J7@I7 J7@I7 J7@I7 J7@I7 J7@I7 J7@I7 J7@I7 J7@I7 J7@I7 J7@I7 J7@I7 J7@I7 J7@I7 J7@I7 J7@I7 J7@I7 J7@I7 J7@I7 J7@I7 J7@I7 J7@I7 J7@I7 J7@I7 J7@I7 J7@I7 J7@I7 J7@I7 J7@I7 J7@I7 J7@I7 J7@I7 J7@I7 J7@I7 J7@I7 J7@I7 J7@I7 J7@I7 J7@I7 J7@I7 J7@I7 J7@I7 J7@I7 J7@I7 J7@I7 J7@I7 J7@I7 J7@I7 J7@I7 J7@I7 J7@I7 J7@I7 J7@I7 J7@I7 J7@I7 J7@I7 J7@I7 J7@I7 J7@I7 J7@I7 J7@I7 J7@I7 J7@I7 J7@I7 J7@I7 J7@I7 J7@I7 J7@I7 J7@I7 J7@I7 J7@I7 J7@I7 J7@I7 J7@I7 J7@I7 J7@I7 J7@I7 I7@I7 I7@I7 I7@I7 I7@I7 I7@I7 I7@I7 I7@I7 I7@I7 I7@I7 I7@I7 I7@I7 I7@I7 I7@I7 I7@I7 I7@I7 I7@I7 I7@I7 I7@I7 I7@I7 I7@I7 I7@I7 I7@I7 I7@I7 I7@I7 I7@I7 I7@I7 I7@I7 I7@I7 I7@I7 I7@I7 I7@I7 I7@I7 I7@I7 I7@I7 I7@I7 I7@I7 I7@I7 I7@I7 I7@I7 I7@I7 I7@I7 I7@I7 I7@I7 I7@I7 I7@I7 I7@I7 I7@I7 I7@I7 I7@I7 I7@I7 I7@I7 I7@I7 I7@I7 I7@I7 I7@I7 I7@I7 I7@I7 I7@I7 I7@I7 I7@I7 I7@I7 I7@I7 I7@I7 I7@I7 I7@I7 I7@I7 I7@I7 I7@I7 I7@I7 I7@I7 I7@I7 I7@I7 I7@I7 I7@I7 I7@I7 I7@I7 I7@I7 I7@I7 I7@I7 I7@I7 I7@I7 I7@I7 I7@I7 I7@I7 I7@I7 I7@I7 I7@I7 I7@I7 I7@I7 I7@I7 I7@I7 I7@I7 I7@I7 I7@I7 I7@I7 I7@I7 I7@I7 I7@I7 I7@I7 I7@I7 I7@I7 I7@I7 I7@I7 I7@I7 I7@I7 I7@I7 I7@I7 I7@I7 I7@I7 I7@I7 I7@I7 I7@I7 I7@I7 I7@I7 I7@I7 I7@I7 I7@I7 I7@I7 I7@I7 I7@I7 I7@I7 I7@I7 I7@I7 I7@I7 I7@I7 I7@I7 I7@I7 I7@I7 I6>G6 I6>G6 I6>G6 I6>G6 I6>G6 I6>G6 I6>G6 I6>G6 I6>G6 I6>G6 I6>G6 I6>G6 I6>G6 I6>G6 I6>G6 I6>G6 I6>G6 I6>G6 I6>G6 I6>G6 I6>G6 I6>G6 I6>G6 I6>G6 I6>G6 I6>G6 I6>G6 I6>G6 I6>G6 I6>G6 I6>G6 I6>G6 I6>G6 I6>G6 I6>G6 I6>G6 I6>G6 I6>G6 I6>G6 I6>G6 I6>G6 I6>G6 I6>G6 I6>G6 I6>G6 I6>G6 I6>G6 I6>G6 I6>G6 I6>G6 I6>G6 I6>G6 I6>G6 I6>G6 I6>G6 I6>G6 I6>G6 I6>G6 I6>G6 I6>G6 I6>G6 I6>G6 I6>G6 I6>G6 I6>G6 I6>G6 I6>G6 I6>G6 I6>G6 I6>G6 I6>G6 I6>G6 I6>G6 I6>G6 I6>G6 I6>G6 I6>G6 I6>G6 I6>G6 I6>G6 I6>G6 I6>G6 I6>G6 I6>G6 I6>G6 I6>G6 I6>G6 I6>G6 I6>G6 I6>G6 I6>G6 I6>G6 I6>G6 I6>G6 I6>G6 I6>G6 I6>G6 I6>G6 I6>G6 I6>G6 I6>G6 I6>G6 I6>G6 I6>G6 I6>G6 I6>G6 I6>G6 I6>G6 I6>G6 I6>G6 I6>G6 I6>G6 I6>G6 I6>G6 I6>G6 I6>G6 I6>G6 I6>G6 I6>G6 I6>G6 I6>G6 I6>G6 I6>G6 I6>G6 I6>G6 I6>G6 I6>G6 I6>G6 I6>G6 I6>G6 I6>G6 I6>G6 I6>G6 I6>G6 I6>G6 I6>G6 I6>G6 I6>G6 I6>G6 I6>G6 I6>G6 I6>G6 I6>G6 I6>G6 I6>G6 I6>G6 I6>G6 I6>G6 I6>G6 I6>G6 I6>G6 I6>G6 I6>G6 I6>G6 I6>G6 I6>G6 I6>G6 I6>G6 I6>G6 I6>G6 I6>G6 I6>G6 I6>G6 I6>G6 I6>G6 I6>G6 I6>G6 I6>G6 I6>G6 I6>G6 I6>G6 I6>G6 I6>G6 I6>G6 I6>G6 I6>G6 I6>G6 I6>G6 I6>G6 I6>G6 I6>G6 I6>G6 I6>G6 I6>G6 I6>G6 I6>G6 I6>G6 I6>G6 I6>G6 I6>G6 I6>G6 I6>G6 I6>G6 I6>G6 I6>G6 I6>G6 I6>G6 I6>G6 I6>G6 I6>G6 I6>G6 I6>G6 I6>G6 I6>G6 I6>G6 I6>G6 I6>G6 I6>G6 I6>G6 I6>G6 I6>G6 I6>G6 I6>G6 I6>G6 I6>G6 I6>G6 I6>G6 I6>G6 I6>G6 I6>G6 I6>G6 I6>G6 I6>G6 I6>G6 I6>G6 I6>G6 I6>G6 I6>G6 I6>G6 I6>G6 I6>G6 I6>G6 I6>G6 I6>G6 I6>G6 I6>G6 I6>G6 I6>G6 I6>G6 I6>G6 I6>G6 I6>G6 I6>G6 I6>G6 I6>G6 I6>G6 I6>G6 I6>G6 I6>G6 I6>G6 I6>G6 I6>G6 I6>G6 I6>G6 I6>G6 I6>G6 I44=F I44=F I44=F I44=F I44=F I44=F I44=F I44=F I44=F I44=F I44=F I44=F I44=F I44=F I44=F I44=F I44=F I44=F I44=F I44=F I44=F I44=F I44=F I44=F I44=F I44=F I44=F I44=F I44=F I44=F I44=F I44=F I44=F I44=F I44=F I44=F I44=F I44=F I44=F I44=F I44=F I44=F I44=F I44=F I44=F I44=F I44=F I44=F I44=F I44=F I44=F I44=F I44=F I44=F I44=F I44=F I44=F I44=F I44=F I44=F I44=F I44=F I44=F I44=F I44=F I44=F I44=F I44=F I44=F I44=F I44=F I44=F I44=F I44=F I44=F I44=F I44=F I44=F I44=F I44=F I44=F I44=F I44=F I44=F I44=F I44=F I44=F I44=F I44=F I44=F I44=F I44=F I44=F I44=F I44=F I44=F I44=F I44=F I44=F I44=F I44=F I44=F I44=F I44=F I44=F I44=F I44=F I44=F I44=F I44=F I44=F I44=F I44=F I44=F I44=F I44=F I44=F I44=F I44=F I44=F I44=F I44=F I44=F I44=F I44=F I44=F I44=F I44=F I44=F I44=F I44=F I44=F I44=F I44=F I44=F I44=F I44=F I44=F I44=F I44=F I44=F I44=F I44=F I44=F I44=F I44=F I44=F I44=F I44=F I44=F I44=F I44=F I44=F I44=F I44=F I44=F I44=F I44=F I44=F I44=F I44=F I44=F I44=F I44=F I44=F I44=F I44=F I44=F I44=F I44=F I44=F J44=F J44=F J44=F J44=F J44=F J44=F J44=F J44=F J44=F J44=F J44=F J44=F J44=F J44=F J44=F J44=F J44=F J44=F J44=F J44=F J44=F J44=F J44=F J44=F J44=F J44=F J44=F J44=F J44=F J44=F J44=F J44=F J44=F J44=F J44=F J44=F J44=F J44=F J44=F J44=F J44=F J44=F J44=F J44=F J44=F J44=F J44=F J44=F J44=F J44=F J44=F J44=F J44=F J44=F J44=F J44=F J44=F J44=F J44=F J44=F J44=F J44=F J44=F J44=F J44=F J44=F J44=F J44=F J44=F J44=F J44=F J44=F J44=F J44=F J44=F J44=F J44=F J44=F J44=F J44=F J44=F J44=F J44=F J44=F J44=F J44=F J44=F J44=F J44=F J44=F J44=F J44=F J44=F J44=F J44=F J44=F J44=F J44=F J44=F J44=F J44=F J44=F J44=F J44=F J44=F J44=F J44=F J44=F J44=F J44=F J44=F J44=F J44=F J44=F J44=F J44=F J44=F J44=F J44=F J44=F J44=F J44=F J44=F J44=F J44=F J44=F J44=F J44=F J44=F J44=F J44=F J44=F J44=F J44=F J44=F J44=F J44=F J44=F J44=F J44=F J44=F J44=F J44=F J44=F J44=F J44=F J44=F J44=F J44=F J44=F J44=F J44=F J44=F J44=F J44=F J44=F J44=F J44=F J44=F J44=F J44=F J44=F J44=F J44=F J44=F J44=F J44=F J44=F J44=F J44=F L44=F L44=F L44=F L44=F L44=F L44=F L44=F L44=F L44=F L44=F L44=F L44=F L44=F L44=F L44=F L44=F L44=F L=F L=F L=F L=F L=F L=F L=F L=F L=F L=F L=F L=F L=F L=F L=F L=F L=F L=F L=F L=F L=F L=F L=F L=F L=F L=F L=F L=F L=F L=F L=F L=F L=F L=F L=F L=F L=F L=F L=F L=F L=F L=F L=F L=F L=F L=F L=F L=F L=F L=F L=F L=F L=F L=F L=F L=F L=F L=F L=F L=F L=F L=F L=F L=F L=F L=F L=F L=F L=F L=F L=F L=F L=F L=F L=F L=F L=F L=F L=F L=F L=F L=F L=F L=F L=F L=F L=F L=F L=F L=F L=F L=F L=F L=F L=F L=F L=F L=F L=F L=F L=F L=F L=F L=F L=F L=F L=F L=F L=F L=F L=F L=F L=F L=F L=F L=F L=F L=F L=F L=F L=F L=F L=F L=F L=F L=F L=F L=F L=F L=F L=F L=F L=F L=F L=F L=F L=F L=F L=F L=F L=F L=F L=F L=F L=F L=F L=F L=F L=F L=F L=F L=F L=F L=F N22BG N22BG N22BG N22BG N22BG N22BG N22BG N22BG N22BG N22BG N22BG N22BG N22BG N22BG N22BG N22BG N22BG N22BG N22BG N22BG N22BG N22BG N22BG N22BG N22BG N22BG N22BG N22BG N22BG N22BG N22BG N22BG N22BG N22BG N22BG N22BG N22BG N22BG N22BG N22BG N22BG N22BG N22BG N22BG N22BG N22BG N22BG N22BG N22BG N22BG N22BG N22BG N22BG N22BG N22BG N22BG N22BG N22BG N22BG N22BG N22BG N22BG N22BG N22BG N22BG N22BG N22BG N22BG N22BG N22BG N22BG N22BG N22BG N22BG N22BG N22BG N22BG N22BG N22BG N22BG N22BG N22BG N22BG N22BG N22BG N22BG N22BG N22BG N22BG N22BG N22BG N22BG N22BG N22BG N22BG N22BG N22BG N22BG N22BG N22BG N22BG N22BG N22BG N22BG N22BG N22BG N22BG N22BG N22BG N22BG N22BG N22BG N22BG N22BG N22BG N22BG N22BG N22BG N22BG N22BG N22BG N22BG N22BG N22BG N22BG N22BG N22BG N22BG N22BG N22BG N22BG N22BG N22BG N22BG N22BG N22BG N22BG N22BG N22BG N22BG N22BG N22BG N22BG N22BG N22BG N22BG N22BG N22BG N22BG N22BG N22BG N22BG N22BG N22BG N22BG N22BG N22BG N22BG N22BG N22BG N22BG N22BG N22BG N22BG N22BG N22BG N22BG N22BG N22BG N22BG N22BG P22BG P22BG P22BG P22BG P22BG P22BG P22BG P22BG P22BG P22BG P22BG P22BG P22BG P22BG P22BG P22BG P22BG P22BG P22BG P22BG P22BG P22BG P22BG P22BG P22BG P22BG P22BG P22BG P22BG P22BG P22BG P22BG P22BG P22BG P22BG P22BG P22BG P22BG P22BG P22BG P22BG P22BG P22BG P22BG P22BG P22BG P22BG P22BG P22BG P22BG P22BG P22BG P22BG P22BG P22BG P22BG P22BG P22BG P22BG P22BG P22BG P22BG P22BG P22BG P22BG P22BG P22BG P22BG P22BG P22BG P22BG P22BG P22BG P22BG P22BG P22BG P22BG P22BG P22BG P22BG P22BG P22BG P22BG P22BG P22BG P22BG P22BG P22BG P22BG P22BG P22BG P22BG P22BG P22BG P22BG P22BG P22BG P22BG P22BG P22BG P22BG P22BG P22BG P22BG P22BG P22BG P22BG P22BG P22BG P22BG P22BG P22BG P22BG P22BG P22BG P22BG P22BG P22BG P22BG P22BG P22BG P22BG P22BG P22BG P22BG P22BG P22BG P22BG P22BG P22BG P22BG P22BG P22BG P22BG P22BG P22BG P22BG P22BG P22BG P22BG P22BG P22BG P22BG P22BG P22BG P22BG P22BG P22BG P22BG P22BG P22BG P22BG P22BG P22BG P22BG P22BG P22BG P22BG P22BG P22BG P22BG P22BG P22BG P22BG P22BG P22BG P22BG P22BG P22BG P22BG R22BG R22BG R22BG R22BG R22BG R22BG R22BG R22BG R22BG R22BG R22BG R22BG R22BG R22BG R22BG R22BG R22BG RBG RBG RBG RBG RBG RBG RBG RBG RBG RBG RBG RBG RBG RBG RBG RBG RBG RBG RBG RBG RBG RBG RBG RBG RBG RBG RBG RBG RBG RBG RBG RBG RBG RBG RBG RBG RBG RBG RBG RBG RBG RBG RBG RBG RBG RBG RBG RBG RBG RBG RBG RBG RBG RBG RBG RBG RBG RBG RBG RBG RBG RBG RBG RBG RBG RBG RBG RBG RBG RBG RBG RBG RBG RBG RBG RBG RBG RBG RBG RBG RBG RBG RBG RBG RBG RBG RBG RBG RBG RBG RBG RBG RBG RBG RBG RBG RBG RBG RBG RBG RBG RBG RBG RBG RBG RBG RBG RBG RBG RBG RBG RBG RBG RBG RBG RBG RBG RBG RBG RBG RBG RBG RBG RBG RBG RBG RBG RBG RBG RBG RBG RBG RBG RBG RBG RBG RBG RBG RBG RBG RBG RBG RBG RBG RBG RBG RBG RBG RBG RBG RBG RBG RBG RBG S1@G1 S1@G1 S1@G1 S1@G1 S1@G1 S1@G1 S1@G1 S1@G1 S1@G1 S1@G1 S1@G1 S1@G1 S1@G1 S1@G1 S1@G1 S1@G1 S1@G1 S1@G1 S1@G1 S1@G1 S1@G1 S1@G1 S1@G1 S1@G1 S1@G1 S1@G1 S1@G1 S1@G1 S1@G1 S1@G1 S1@G1 S1@G1 S1@G1 S1@G1 S1@G1 S1@G1 S1@G1 S1@G1 S1@G1 S1@G1 S1@G1 S1@G1 S1@G1 S1@G1 S1@G1 S1@G1 S1@G1 S1@G1 S1@G1 S1@G1 S1@G1 S1@G1 S1@G1 S1@G1 S1@G1 S1@G1 S1@G1 S1@G1 S1@G1 S1@G1 S1@G1 S1@G1 S1@G1 S1@G1 S1@G1 S1@G1 S1@G1 S1@G1 S1@G1 S1@G1 S1@G1 S1@G1 S1@G1 S1@G1 S1@G1 S1@G1 S1@G1 S1@G1 S1@G1 S1@G1 S1@G1 S1@G1 S1@G1 S1@G1 S1@G1 S1@G1 S1@G1 S1@G1 S1@G1 S1@G1 S1@G1 S1@G1 S1@G1 S1@G1 S1@G1 S1@G1 S1@G1 S1@G1 S1@G1 S1@G1 S1@G1 S1@G1 S1@G1 S1@G1 S1@G1 S1@G1 S1@G1 S1@G1 S1@G1 S1@G1 S1@G1 S1@G1 S1@G1 S1@G1 S1@G1 S1@G1 S1@G1 S1@G1 S1@G1 S1@G1 S1@G1 S1@G1 S1@G1 S1@G1 S1@G1 S1@G1 S1@G1 S1@G1 S1@G1 S1@G1 S1@G1 S1@G1 S1@G1 S1@G1 S1@G1 S1@G1 S1@G1 S1@G1 S1@G1 S1@G1 S1@G1 S1@G1 S1@G1 S1@G1 S1@G1 S1@G1 S1@G1 S1@G1 S1@G1 S1@G1 S1@G1 S1@G1 S1@G1 S1@G1 S1@G1 S1@G1 S1@G1 S1@G1 S1@G1 S1@G1 S1@G1 S1@G1 S1@G1 S1@G1 S1@G1 S1@G1 S1@G1 S1@G1 S1@G1 S1@G1 S1@G1 U1@G1 U1@G1 U1@G1 U1@G1 U1@G1 U1@G1 U1@G1 U1@G1 U1@G1 U1@G1 U1@G1 U1@G1 U1@G1 U1@G1 U1@G1 U1@G1 U1@G1 U1@G1 U1@G1 U1@G1 U1@G1 U1@G1 U1@G1 U1@G1 U1@G1 U1@G1 U1@G1 U1@G1 U1@G1 U1@G1 U1@G1 U1@G1 U1@G1 U1@G1 U1@G1 U1@G1 U1@G1 U1@G1 U1@G1 U1@G1 U1@G1 U1@G1 U1@G1 U1@G1 U1@G1 U1@G1 U1@G1 U1@G1 U1@G1 U1@G1 U1@G1 U1@G1 U1@G1 U1@G1 U1@G1 U1@G1 U1@G1 U1@G1 U1@G1 U1@G1 U1@G1 U1@G1 U1@G1 U1@G1 U1@G1 U1@G1 U1@G1 U1@G1 U1@G1 U1@G1 U1@G1 U1@G1 U1@G1 U1@G1 U1@G1 U1@G1 U1@G1 U1@G1 U1@G1 U1@G1 U1@G1 U1@G1 U1@G1 U1@G1 U1@G1 U11F U11F U11F U11F U11F U11F U11F U11F U11F U11F U11F U11F U11F U11F U11F U11F U11F U11F U11F U11F U11F U11F U11F U11F U11F U11F U11F U11F U11F U11F U11F U11F U11F U11F U11F U11F U11F U11F U11F U11F U11F U11F U11F U11F U11F U11F U11F U11F U11F U11F U11F U11F U11F U11F U11F U11F U11F U11F U11F U11F U11F U11F U11F U11F U11F U11F U11F U11F U11F U11F U11F U11F U11F U11F U11F U11F U11F U11F U11F U11F U11F U11F U11F U11F U11F V11F V11F V11F V11F V11F V11F V11F V11F V11F V11F V11F V11F V11F V11F V11F V11F V11F VF VF VF VF VF VF VF VF VF VF VF VF VF VF VF VF VF VF VF VF VF VF VF VF VF VF VF VF VF VF VF VF VF VF VF VF VF VF VF VF VF VF VF VF VF VF VF VF VF VF VF VF VF VF VF VF VF VF VF VF VF VF VF VF VF VF VF VF VF VF VF VF VF VF VF VF VF VF VF VF VF VF VF VF VF VF VF VF VF VF VF VF VF VF VF VF VF VF VF VF VF VF VF VF VF VF VF VF VF VF VF VF VF VF VF VF VF VF VF VF VF VF VF VF VF VF VF VF VF VF VF VF VF VF VF VF VF VF VF VF VF VF VF VF VF VF VF VF VF VF VF VF VF VF X/C/G X/C/G X/C/G X/C/G X/C/G X/C/G X/C/G X/C/G X/C/G X/C/G X/C/G X/C/G X/C/G X/C/G X/C/G X/C/G X/C/G X/C/G X/C/G X/C/G X/C/G X/C/G X/C/G X/C/G X/C/G X/C/G X/C/G X/C/G X/C/G X/C/G X/C/G X/C/G X/C/G X/C/G X/C/G X/C/G X/C/G X/C/G X/C/G X/C/G X/C/G X/C/G X/C/G X/C/G X/C/G X/C/G X/C/G X/C/G X/C/G X/C/G X/C/G X/C/G X/C/G X/C/G X/C/G X/C/G X/C/G X/C/G X/C/G X/C/G X/C/G X/C/G X/C/G X/C/G X/C/G X/C/G X/C/G X/C/G X/C/G X/C/G X/C/G X/C/G X/C/G X/C/G X/C/G X/C/G X/C/G X/C/G X/C/G X/C/G X/C/G X/C/G X/C/G X/C/G X/C/G X/C/G X/C/G X/C/G X/C/G X/C/G X/C/G X/C/G X/C/G X/C/G X/C/G X/C/G X/C/G X/C/G X/C/G X/C/G X/C/G X/C/G X/C/G X/C/G X/C/G X/C/G X/C/G X/C/G X/C/G X/C/G X/C/G X/C/G X/C/G X/C/G X/C/G X/C/G X/C/G X/C/G X/C/G X/C/G X/C/G X/C/G X/C/G X/C/G X/C/G X/C/G X/C/G X/C/G X/C/G X/C/G X/C/G X/C/G X/C/G X/C/G X/C/G X/C/G X/C/G X/C/G X/C/G X/C/G X/C/G X/C/G X/C/G X/C/G X/C/G X/C/G X/C/G X/C/G X/C/G X/C/G X/C/G X/C/G X/C/G X/C/G X/C/G X/C/G X/C/G X/C/G X/C/G X/C/G X/C/G X/C/G X/C/G X/C/G X/C/G X/C/G X/C/G X/C/G X/C/G X/C/G X/C/G X/C/G X/C/G X/C/G X/C/G X/C/G X/C/G X/C/G X/C/G X/C/G X/C/G X/C/G X/C/G X/C/G X/C/G X/C/G X/C/G X/C/G X/C/G X/C/G X/C/G X/C/G X/C/G X/C/G X/C/G X/C/G X/C/G X/C/G X/C/G X/C/G X/C/G X/C/G X/C/G X/C/G X/C/G X/C/G X/C/G X/C/G X/C/G X/C/G X/C/G X/C/G X/C/G X/C/G X/C/G X/C/G X/C/G X/C/G X/C/G X/C/G X/C/G X/C/G X/C/G X/C/G X/C/G X/C/G X/C/G X/C/G X/C/G X/C/G /C/G /C/G /C/G /C/G /C/G /C/G /C/G /C/G /C/G /C/G /C/G /C/G /C/G /C/G /C/G /C/G /C/G /C/G /C/G /C/G /C/G /C/G /C/G /C/G /C/G /C/G O//@G O//@G O//@G O//@G O//@G O//@G O//@G O//@G O//@G O//@G O//@G O//@G O//@G O//@G O//@G O//@G O//@G O//@G O//@G O//@G O//@G O//@G O//@G O//@G O//@G O//@G O//@G O//@G O//@G O//@G O//@G O//@G O//@G O//@G O//@G O//@G O//@G O//@G O//@G O//@G O//@G O//@G O//@G O//@G O//@G O//@G O//@G O//@G O//@G O//@G O//@G O//@G O//@G O//@G O//@G O//@G O//@G O//@G O//@G O//@G O//@G O//@G O//@G O//@G O//@G O//@G O//@G O//@G O//@G O//@G O//@G O//@G O//@G O//@G O//@G O//@G O//@G O//@G O//@G O//@G O//@G O//@G O//@G O//@G O//@G O//@G O//@G O//@G O//@G O//@G O//@G O//@G O//@G O//@G O//@G O//@G O//@G O//@G O//@G O//@G O//@G O//@G O@G O@G O@G O@G O@G O@G O@G O@G O@G O@G O@G O@G O@G O@G O@G O@G O@G O@G O@G O@G O@G O@G O@G O@G O@G O@G O@G O@G O@G O@G O@G O@G O@G O@G O@G O@G O@G O@G O@G O@G O@G O@G O@G O@G O@G O@G O@G O@G O@G O@G O@G O@G O@G O@G O@G O@G O@G O@G O@G O@G O@G O@G O@G O@G O@G O@G O@G O@G O@G O@G O@G O@G O@G O@G O@G O@G O@G O@G O@G O@G O@G O@G O@G O@G O@G O@G O@G O@G O@G O@G O@G O@G O@G O@G O@G O@G O@G O@G O@G O@G O@G O@G O@G O@G O@G O@G O@G O@G O@G O@G O@G O@G O@G O@G O@G O@G O@G O@G O@G O@G O@G O@G O@G O@G O@G O@G O@G O@G O@G O@G O@G O@G O@G O@G O@G O@G O@G O@G O@G O@G O@G O@G O@G O@G O@G O@G O@G O@G O@G O@G O@G O@G O@G O@G N..=B N..=B N..=B N..=B N..=B N..=B N..=B N..=B N..=B N..=B N..=B N..=B N..=B N..=B N..=B N..=B N..=B N..=B N..=B N..=B N..=B N..=B N..=B N..=B N..=B N..=B N..=B N..=B N..=B N..=B N..=B N..=B N..=B N..=B N..=B N..=B N..=B N..=B N..=B N..=B N..=B N..=B N..=B N..=B N..=B N..=B N..=B N..=B N..=B N..=B N..=B N..=B N..=B N..=B N..=B N..=B N..=B N..=B N..=B N..=B N..=B N..=B N..=B N..=B N..=B N..=B N..=B N..=B N..=B N..=B N..=B N..=B N..=B N..=B N..=B N..=B N..=B N..=B N..=B N..=B N..=B N..=B N..=B N..=B N..=B N..=B N..=B N..=B N..=B N..=B N..=B N..=B N..=B N..=B N..=B N..=B N..=B N..=B N..=B N..=B N..=B N..=B N..=B N..=B N..=B N..=B N..=B N..=B N..=B N..=B N..=B N..=B N..=B N..=B N..=B N..=B N..=B N..=B N..=B N..=B N..=B N..=B N..=B N..=B N..=B N..=B N..=B N..=B N..=B N..=B N..=B N..=B N..=B N..=B N..=B N..=B N..=B N..=B N..=B N..=B N..=B N..=B N..=B N..=B N..=B N..=B N..=B N..=B N..=B N..=B N..=B N..=B N..=B N..=B N..=B N..=B N..=B N..=B N..=B N..=B N..=B N..=B N..=B N..=B N..=B N..=B N..=B N..=B N..=B N..=B N..=B N..=B N..=B N..=B N..=B N..=B N..=B N..=B N..=B N..=B N..=B N..=B N..=B N..=B N..=B N..=B N..=B N..=B N..=B N..=B N..=B N..=B N..=B N..=B N..=B N..=B N..=B N..=B N..=B N..=B N..=B N..=B N..=B N..=B N..=B N..=B N..=B N..=B N..=B N..=B N..=B N..=B N..=B N..=B N..=B N..=B N..=B N..=B N..=B N..=B N..=B N..=B N..=B N..=B N..=B N..=B N..=B N..=B N..=B N..=B N..=B N..=B N..=B N..=B N..=B N..=B N..=B N..=B N..=B N..=B N..=B N..=B N..=B N..=B N..=B N..=B N..=B N..=B N..=B N..=B N..=B N..=B N..=B N..=B N..=B N..=B I..=B I..=B I..=B I..=B I..=B I..=B I..=B I..=B I..=B I..=B I..=B I..=B I..=B I..=B I..=B I..=B I..=B I..=B I..=B I..=B I..=B I..=B I..=B I..=B I..=B I..=B I..=B I..=B I..=B I..=B I..=B I..=B I..=B I..=B I..=B I..=B I..=B I..=B I..=B I..=B I..=B I..=B I..=B I..=B I..=B I..=B I..=B I..=B I..=B I..=B I..=B I..=B I..=B I..=B I..=B I..=B I..=B I..=B I..=B I..=B I..=B I..=B I..=B I..=B I..=B I..=B I..=B I..=B I..=B I..=B I..=B I..=B I..=B I..=B I..=B I..=B I..=B I..=B I..=B I..=B I..=B I..=B I..=B I..=B I..=B I..=B I..=B I..=B I..=B I..=B I..=B I..=B I..=B I..=B I..=B I..=B I..=B I..=B I..=B I..=B I..=B I..=B I=B I=B I=B I=B I=B I=B I=B I=B I=B I=B I=B I=B I=B I=B I=B I=B I=B I=B I=B I=B I=B I=B I=B I=B I=B I=B I=B I=B I=B I=B I=B I=B I=B I=B I=B I=B I=B I=B I=B I=B I=B I=B I=B I=B I=B I=B I=B I=B I=B I=B I=B I=B I=B I=B I=B I=B I=B I=B I=B I=B I=B I=B I=B I=B I=B I=B I=B I=B I=B I=B I=B I=B I=B I=B I=B I=B I=B I=B I=B I=B I=B I=B I=B I=B I=B I=B I=B I=B I=B I=B I=B I=B I=B I=B I=B I=B I=B I=B I=B I=B I=B I=B I=B I=B I=B I=B I=B I=B I=B I=B I=B I=B I=B I=B I=B I=B I=B I=B I=B I=B I=B I=B I=B I=B I=B I=B I=B I=B I=B I=B I=B I=B I=B I=B I=B I=B I=B I=B I=B I=B I=B I=B I=B I=B I=B I=B I=B I=B I=B I=B I=B I=B I=B I=B G66=B G66=B G66=B G66=B G66=B G66=B G66=B G66=B G66=B G66=B G66=B G66=B G66=B G66=B G66=B G66=B G66=B G66=B G66=B G66=B G66=B G66=B G66=B G66=B G66=B G66=B G66=B G66=B G66=B G66=B G66=B G66=B G66=B G66=B G66=B G66=B G66=B G66=B G66=B G66=B G66=B G66=B G66=B G66=B G66=B G66=B G66=B G66=B G66=B G66=B G66=B G66=B G66=B G66=B G66=B G66=B G66=B G66=B G66=B G66=B G66=B G66=B G66=B G66=B G66=B G66=B G66=B G66=B G66=B G66=B G66=B G66=B G66=B G66=B G66=B G66=B G66=B G66=B G66=B G66=B G66=B G66=B G66=B G66=B G66=B G66=B G66=B G66=B G66=B G66=B G66=B G66=B G66=B G66=B G66=B G66=B G66=B G66=B G66=B G66=B G66=B G66=B G66=B G66=B G66=B G66=B G66=B G66=B G66=B G66=B G66=B G66=B G66=B G66=B G66=B G66=B G66=B G66=B G66=B G66=B G66=B G66=B G66=B G66=B G66=B G66=B G66=B G66=B F66=B F66=B F66=B F66=B F66=B F66=B F66=B F66=B F66=B F66=B F66=B F66=B F66=B F66=B F66=B F66=B F66=B F66=B F66=B F66=B F66=B F66=B F66=B F66=B F66=B F66=B F66=B F66=B F66=B F66=B F66=B F66=B F66=B F66=B F66=B F66=B F66=B F66=B F66=B F66=B F66=B F66=B F66=B F66=B F66=B F66=B F66=B F66=B F66=B F66=B F66=B F66=B F66=B F66=B F66=B F66=B F66=B F66=B F66=B F66=B F66=B F66=B F66=B F66=B F66=B F66=B F66=B F66=B F66=B F66=B F66=B F66=B F66=B F66=B F66=B F66=B F66=B F66=B F66=B F66=B F66=B F66=B F66=B F66=B F66=B F66=B F66=B F66=B F66=B F66=B F66=B F66=B F66=B F66=B F66=B F66=B F66=B F66=B F66=B F66=B F66=B F66=B F66=B F66=B F66=B F66=B F66=B F66=B F66=B F66=B F66=B F66=B F66=B F66=B F66=B F66=B F66=B F66=B F66=B F66=B F66=B F66=B F66=B F66=B F66=B F66=B F66=B F66=B F7=B7 F7=B7 F7=B7 F7=B7 F7=B7 F7=B7 F7=B7 F7=B7 F7=B7 F7=B7 F7=B7 F7=B7 F7=B7 F7=B7 F7=B7 F7=B7 F7=B7 F7=B7 F7=B7 F7=B7 F7=B7 F7=B7 F7=B7 F7=B7 F7=B7 F7=B7 F7=B7 F7=B7 F7=B7 F7=B7 F7=B7 F7=B7 F7=B7 F7=B7 F7=B7 F7=B7 F7=B7 F7=B7 F7=B7 F7=B7 F7=B7 F7=B7 F7=B7 F7=B7 F7=B7 F7=B7 F7=B7 F7=B7 F7=B7 F7=B7 F7=B7 F7=B7 F7=B7 F7=B7 F7=B7 F7=B7 F7=B7 F7=B7 F7=B7 F7=B7 F7=B7 F7=B7 F7=B7 F7=B7 F7=B7 F7=B7 F7=B7 F7=B7 F7=B7 F7=B7 F7=B7 F7=B7 F7=B7 F7=B7 F7=B7 F7=B7 F7=B7 F7=B7 F7=B7 F7=B7 F7=B7 F7=B7 F7=B7 F7=B7 F7=B7 F7=B7 F7=B7 F7=B7 F7=B7 F7=B7 F7=B7 F7=B7 F7=B7 F7=B7 F7=B7 F7=B7 F7=B7 F7=B7 F7=B7 F7=B7 F7=B7 F7=B7 F7=B7 F7=B7 F7=B7 F7=B7 F7=B7 F7=B7 F7=B7 F7=B7 F7=B7 F7=B7 F7=B7 F7=B7 F7=B7 F7=B7 F7=B7 F7=B7 F7=B7 F7=B7 F7=B7 F7=B7 F7=B7 F7=B7 F7=B7 F7=B7 F7=B7 F7=B7 F7=B7 F7=B7 F7=B7 F7=B7 F7=B7 F7=B7 F7=B7 F7=B7 F7=B7 F7=B7 F7=B7 F7=B7 F7=B7 F7=B7 F7=B7 F7=B7 F7=B7 F7=B7 F7=B7 F7=B7 F7=B7 F7=B7 F7=B7 F7=B7 F7=B7 F7=B7 F7=B7 F7=B7 F7=B7 F7=B7 F7=B7 F7=B7 F7=B7 F7=B7 F7=B7 F7=B7 F7=B7 F7=B7 F7=B7 F7=B7 F7=B7 F7=B7 F7=B7 F7=B7 F7=B7 F7=B7 F7=B7 F7=B7 F7=B7 F7=B7 F7=B7 F7=B7 F7=B7 F7=B7 F7=B7 F7=B7 F7=B7 F7=B7 F7=B7 F7=B7 F7=B7 F7=B7 F7=B7 F7=B7 F7=B7 F7=B7 F7=B7 F7=B7 F7=B7 F7=B7 F7=B7 F7=B7 F7=B7 F7=B7 F7=B7 F7=B7 F7=B7 F7=B7 F7=B7 F7=B7 F7=B7 F7=B7 F7=B7 F7=B7 F7=B7 F7=B7 F7=B7 F7=B7 F7=B7 F7=B7 F7=B7 F7=B7 F7=B7 F7=B7 F7=B7 F7=B7 F7=B7 F7=B7 F7=B7 F7=B7 F7=B7 F7=B7 F7=B7 F7=B7 F7=B7 F7=B7 F7=B7 F7=B7 F7=B7 F7=B7 F7=B7 F7=B7 F7=B7 F7=B7 F7=B7 F7=B7 F7=B7 F7=B7 F7=B7 F7=B7 F7=B7 F7=B7 F7=B7 F7=B7 F7=B7 F7=B7 F7=B7 F7=B7 F66BI F66BI F66BI F66BI F66BI F66BI F66BI F66BI F66BI F66BI F66BI F66BI F66BI F66BI F66BI F66BI F66BI F66BI F66BI F66BI F66BI F66BI F66BI F66BI F66BI F66BI F66BI F66BI F66BI F66BI F66BI F66BI F66BI F66BI F66BI F66BI F66BI F66BI F66BI F66BI F66BI F66BI F66BI F66BI F66BI F66BI F66BI F66BI F66BI F66BI F66BI F66BI F66BI F66BI F66BI F66BI F66BI F66BI F66BI F66BI F66BI F66BI F66BI F66BI F66BI F66BI F66BI F66BI F66BI F66BI F66BI F66BI F66BI F66BI F66BI F66BI F66BI F66BI F66BI F66BI F66BI F66BI F66BI F66BI F66BI F66BI F66BI F66BI F66BI F66BI F66BI F66BI F66BI F66BI F66BI F66BI F66BI F66BI F66BI F66BI F66BI F66BI F66BI F66BI F66BI F66BI F66BI F66BI F66BI F66BI F66BI F66BI F66BI F66BI F66BI F66BI F66BI F66BI F66BI F66BI F66BI F66BI F66BI F66BI F66BI F66BI F66BI F66BI F66BI F66BI F66BI F66BI F66BI F66BI F66BI F66BI F66BI F66BI F66BI F66BI F66BI F66BI F66BI F66BI F66BI F66BI F66BI F66BI F66BI F66BI F66BI F66BI F66BI F66BI F66BI F66BI F66BI F66BI F66BI F66BI F66BI F66BI F66BI F66BI F66BI F66BI F66BI F66BI F66BI F66BI F66BI I66BI I66BI I66BI I66BI I66BI I66BI I66BI I66BI I66BI I66BI I66BI I66BI I66BI I66BI I66BI I66BI I66BI I66BI I66BI I66BI I66BI I66BI I66BI I66BI I66BI I66BI I66BI I66BI I66BI I66BI I66BI I66BI I66BI I66BI I66BI I66BI I66BI I66BI I66BI I66BI I66BI I66BI I66BI I66BI I66BI I66BI I66BI I66BI I66BI I66BI I66BI I66BI I66BI I66BI I66BI I66BI I66BI I66BI I66BI I66BI I66BI I66BI I66BI I66BI I66BI I66BI I66BI I66BI I66BI I66BI I66BI I66BI I66BI I66BI I66BI I66BI I66BI I66BI I66BI I66BI I66BI I66BI I66BI I66BI I66BI I66BI I66BI I66BI I66BI I66BI I66BI I66BI I66BI I66BI I66BI I66BI I66BI I66BI I66BI I66BI I66BI I66BI I66BI I66BI I66BI I66BI I66BI I66BI I66BI I66BI I66BI I66BI I66BI I66BI I66BI I66BI I66BI I66BI I66BI I66BI I66BI I66BI I66BI I66BI I66BI I66BI I66BI I66BI I66BI I66BI I66BI I66BI I66BI I66BI I66BI I66BI I66BI I66BI I66BI I66BI I66BI I66BI I66BI I66BI I66BI I66BI I66BI I66BI I66BI I66BI I66BI I66BI I66BI I66BI I66BI I66BI I66BI I66BI I66BI I66BI I66BI I66BI I66BI I66BI I66BI I66BI I66BI I66BI I66BI I66BI L66BI L66BI L66BI L66BI L66BI L66BI L66BI L66BI L66BI L66BI L66BI L66BI L66BI L66BI L66BI L66BI L66BI LBI LBI LBI LBI LBI LBI LBI LBI LBI LBI LBI LBI LBI LBI LBI LBI LBI LBI LBI LBI LBI LBI LBI LBI LBI LBI LBI LBI LBI LBI LBI LBI LBI LBI LBI LBI LBI LBI LBI LBI LBI LBI LBI LBI LBI LBI LBI LBI LBI LBI LBI LBI LBI LBI LBI LBI LBI LBI LBI LBI LBI LBI LBI LBI LBI LBI LBI LBI LBI LBI LBI LBI LBI LBI LBI LBI LBI LBI LBI LBI LBI LBI LBI LBI LBI LBI LBI LBI LBI LBI LBI LBI LBI LBI LBI LBI LBI LBI LBI LBI LBI LBI LBI LBI LBI LBI LBI LBI LBI LBI LBI LBI LBI LBI LBI LBI LBI LBI LBI LBI LBI LBI LBI LBI LBI LBI LBI LBI LBI LBI LBI LBI LBI LBI LBI LBI LBI LBI LBI LBI LBI LBI LBI LBI LBI LBI LBI LBI LBI LBI LBI LBI LBI LBI O44BF O44BF O44BF O44BF O44BF O44BF O44BF O44BF O44BF O44BF O44BF O44BF O44BF O44BF O44BF O44BF O44BF O44BF O44BF O44BF O44BF O44BF O44BF O44BF O44BF O44BF O44BF O44BF O44BF O44BF O44BF O44BF O44BF O44BF O44BF O44BF O44BF O44BF O44BF O44BF O44BF O44BF O44BF O44BF O44BF O44BF O44BF O44BF O44BF O44BF O44BF O44BF O44BF O44BF O44BF O44BF O44BF O44BF O44BF O44BF O44BF O44BF O44BF O44BF O44BF O44BF O44BF O44BF O44BF O44BF O44BF O44BF O44BF O44BF O44BF O44BF O44BF O44BF O44BF O44BF O44BF O44BF O44BF O44BF O44BF O44BF O44BF O44BF O44BF O44BF O44BF O44BF O44BF O44BF O44BF O44BF O44BF O44BF O44BF O44BF O44BF O44BF O44BF O44BF O44BF O44BF O44BF O44BF O44BF O44BF O44BF O44BF O44BF O44BF O44BF O44BF O44BF O44BF O44BF O44BF O44BF O44BF O44BF O44BF O44BF O44BF O44BF O44BF O44BF O44BF O44BF O44BF O44BF O44BF O44BF O44BF O44BF O44BF O44BF O44BF O44BF O44BF O44BF O44BF O44BF O44BF O44BF O44BF O44BF O44BF O44BF O44BF O44BF O44BF O44BF O44BF O44BF O44BF O44BF O44BF O44BF O44BF O44BF O44BF O44BF O44BF O44BF O44BF O44BF O44BF O44BF N44BF N44BF N44BF N44BF N44BF N44BF N44BF N44BF N44BF N44BF N44BF N44BF N44BF N44BF N44BF N44BF N44BF N44BF N44BF N44BF N44BF N44BF N44BF N44BF N44BF N44BF N44BF N44BF N44BF N44BF N44BF N44BF N44BF N44BF N44BF N44BF N44BF N44BF N44BF N44BF N44BF N44BF N44BF N44BF N44BF N44BF N44BF N44BF N44BF N44BF N44BF N44BF N44BF N44BF N44BF N44BF N44BF N44BF N44BF N44BF N44BF N44BF N44BF N44BF N44BF N44BF N44BF N44BF N44BF N44BF N44BF N44BF N44BF N44BF N44BF N44BF N44BF N44BF N44BF N44BF N44BF N44BF N44BF N44BF N44BF N44BF N44BF N44BF N44BF N44BF N44BF N44BF N44BF N44BF N44BF N44BF N44BF N44BF N44BF N44BF N44BF N44BF N44BF N44BF N44BF N44BF N44BF N44BF N44BF N44BF N44BF N44BF N44BF N44BF N44BF N44BF N44BF N44BF N44BF N44BF N44BF N44BF N44BF N44BF N44BF N44BF N44BF N44BF N44BF N44BF N44BF N44BF N44BF N44BF N44BF N44BF N44BF N44BF N44BF N44BF N44BF N44BF N44BF N44BF N44BF N44BF N44BF N44BF N44BF N44BF N44BF N44BF N44BF N44BF N44BF N44BF N44BF N44BF N44BF N44BF N44BF N44BF N44BF N44BF N44BF N44BF N44BF N44BF N44BF N44BF L44BF L44BF L44BF L44BF L44BF L44BF L44BF L44BF L44BF L44BF L44BF L44BF L44BF L44BF L44BF L44BF L44BF LBF LBF LBF LBF LBF LBF LBF LBF LBF LBF LBF LBF LBF LBF LBF LBF LBF LBF LBF LBF LBF LBF LBF LBF LBF LBF LBF LBF LBF LBF LBF LBF LBF LBF LBF LBF LBF LBF LBF LBF LBF LBF LBF LBF LBF LBF LBF LBF LBF LBF LBF LBF LBF LBF LBF LBF LBF LBF LBF LBF LBF LBF LBF LBF LBF LBF LBF LBF LBF LBF LBF LBF LBF LBF LBF LBF LBF LBF LBF LBF LBF LBF LBF LBF LBF LBF LBF LBF LBF LBF LBF LBF LBF LBF LBF LBF LBF LBF LBF LBF LBF LBF LBF LBF LBF LBF LBF LBF LBF LBF LBF LBF LBF LBF LBF LBF LBF LBF LBF LBF LBF LBF LBF LBF LBF LBF LBF LBF LBF LBF LBF LBF LBF LBF LBF LBF LBF LBF LBF LBF LBF LBF LBF LBF LBF LBF LBF LBF LBF LBF LBF LBF LBF LBF N22BG N22BG N22BG N22BG N22BG N22BG N22BG N22BG N22BG N22BG N22BG N22BG N22BG N22BG N22BG N22BG N22BG N22BG N22BG N22BG N22BG N22BG N22BG N22BG N22BG N22BG N22BG N22BG N22BG N22BG N22BG N22BG N22BG N22BG N22BG N22BG N22BG N22BG N22BG N22BG N22BG N22BG N22BG N22BG N22BG N22BG N22BG N22BG N22BG N22BG N22BG N22BG N22BG N22BG N22BG N22BG N22BG N22BG N22BG N22BG N22BG N22BG N22BG N22BG N22BG N22BG N22BG N22BG N22BG N22BG N22BG N22BG N22BG N22BG N22BG N22BG N22BG N22BG N22BG N22BG N22BG N22BG N22BG N22BG N22BG N22BG N22BG N22BG N22BG N22BG N22BG N22BG N22BG N22BG N22BG N22BG N22BG N22BG N22BG N22BG N22BG N22BG N22BG N22BG N22BG N22BG N22BG N22BG N22BG N22BG N22BG N22BG N22BG N22BG N22BG N22BG N22BG N22BG N22BG N22BG N22BG N22BG N22BG N22BG N22BG N22BG N22BG N22BG N22BG N22BG N22BG N22BG N22BG N22BG N22BG N22BG N22BG N22BG N22BG N22BG N22BG N22BG N22BG N22BG N22BG N22BG N22BG N22BG N22BG N22BG N22BG N22BG N22BG N22BG N22BG N22BG N22BG N22BG N22BG N22BG N22BG N22BG N22BG N22BG N22BG N22BG N22BG N22BG N22BG N22BG N22BG R22BG R22BG R22BG R22BG R22BG R22BG R22BG R22BG R22BG R22BG R22BG R22BG R22BG R22BG R22BG R22BG R22BG R22BG R22BG R22BG R22BG R22BG R22BG R22BG R22BG R22BG R22BG R22BG R22BG R22BG R22BG R22BG R22BG R22BG R22BG R22BG R22BG R22BG R22BG R22BG R22BG R22BG R22BG R22BG R22BG R22BG R22BG R22BG R22BG R22BG R22BG R22BG R22BG R22BG R22BG R22BG R22BG R22BG R22BG R22BG R22BG R22BG R22BG R22BG R22BG R22BG R22BG R22BG R22BG R22BG R22BG R22BG R22BG R22BG R22BG R22BG R22BG R22BG R22BG R22BG R22BG R22BG R22BG R22BG R22BG R22BG R22BG R22BG R22BG R22BG R22BG R22BG R22BG R22BG R22BG R22BG R22BG R22BG R22BG R22BG R22BG R22BG R22BG R22BG R22BG R22BG R22BG R22BG R22BG R22BG R22BG R22BG R22BG R22BG R22BG R22BG R22BG R22BG R22BG R22BG R22BG R22BG R22BG R22BG R22BG R22BG R22BG R22BG R22BG R22BG R22BG R22BG R22BG R22BG R22BG R22BG R22BG R22BG R22BG R22BG R22BG R22BG R22BG R22BG R22BG R22BG R22BG R22BG R22BG R22BG R22BG R22BG R22BG R22BG R22BG R22BG R22BG R22BG R22BG R22BG R22BG R22BG R22BG R22BG R22BG R22BG R22BG R22BG R22BG R22BG U22BG U22BG U22BG U22BG U22BG U22BG U22BG U22BG U22BG U22BG U22BG U22BG U22BG U22BG U22BG U22BG U22BG UBG UBG UBG UBG UBG UBG UBG UBG UBG UBG UBG UBG UBG UBG UBG UBG UBG UBG UBG UBG UBG UBG UBG UBG UBG UBG UBG UBG UBG UBG UBG UBG UBG UBG UBG UBG UBG UBG UBG UBG UBG UBG UBG UBG UBG UBG UBG UBG UBG UBG UBG UBG UBG UBG UBG UBG UBG UBG UBG UBG UBG UBG UBG UBG UBG UBG UBG UBG UBG UBG UBG UBG UBG UBG UBG UBG UBG UBG UBG UBG UBG UBG UBG UBG UBG UBG UBG UBG UBG UBG UBG UBG UBG UBG UBG UBG UBG UBG UBG UBG UBG UBG UBG UBG UBG UBG UBG UBG UBG UBG UBG UBG UBG UBG UBG UBG UBG UBG UBG UBG UBG UBG UBG UBG UBG UBG UBG UBG UBG UBG UBG UBG UBG UBG UBG UBG UBG UBG UBG UBG UBG UBG UBG UBG UBG UBG UBG UBG UBG UBG UBG UBG UBG UBG X11@F X11@F X11@F X11@F X11@F X11@F X11@F X11@F X11@F X11@F X11@F X11@F X11@F X11@F X11@F X11@F X11@F X11@F X11@F X11@F X11@F X11@F X11@F X11@F X11@F X11@F X11@F X11@F X11@F X11@F X11@F X11@F X11@F X11@F X11@F X11@F X11@F X11@F X11@F X11@F X11@F X11@F X11@F X11@F X11@F X11@F X11@F X11@F X11@F X11@F X11@F X11@F X11@F X11@F X11@F X11@F X11@F X11@F X11@F X11@F X11@F X11@F X11@F X11@F X11@F X11@F X11@F X11@F X11@F X11@F X11@F X11@F X11@F X11@F X11@F X11@F X11@F X11@F X11@F X11@F X11@F X11@F X11@F X11@F X11@F X11@F X11@F X11@F X11@F X11@F X11@F X11@F X11@F X11@F X11@F X11@F X11@F X11@F X11@F X11@F X11@F X11@F X11@F X11@F X11@F X11@F X11@F X11@F X11@F X11@F X11@F X11@F X11@F X11@F X11@F X11@F X11@F X11@F X11@F X11@F X11@F X11@F X11@F X11@F X11@F X11@F X11@F X11@F X11@F X11@F X11@F X11@F X11@F X11@F X11@F X11@F X11@F X11@F X11@F X11@F X11@F X11@F X11@F X11@F X11@F X11@F X11@F X11@F X11@F X11@F X11@F X11@F X11@F X11@F X11@F X11@F X11@F X11@F X11@F X11@F X11@F X11@F X11@F X11@F X11@F X11@F X11@F X11@F X11@F X11@F X11@F V11@F V11@F V11@F V11@F V11@F V11@F V11@F V11@F V11@F V11@F V11@F V11@F V11@F V11@F V11@F V11@F V11@F V11@F V11@F V11@F V11@F V11@F V11@F V11@F V11@F V11@F V11@F V11@F V11@F V11@F V11@F V11@F V11@F V11@F V11@F V11@F V11@F V11@F V11@F V11@F V11@F V11@F V11@F V11@F V11@F V11@F V11@F V11@F V11@F V11@F V11@F V11@F V11@F V11@F V11@F V11@F V11@F V11@F V11@F V11@F V11@F V11@F V11@F V11@F V11@F V11@F V11@F V11@F V11@F V11@F V11@F V11@F V11@F V11@F V11@F V11@F V11@F V11@F V11@F V11@F V11@F V11@F V11@F V11@F V11@F V11@F V11@F V11@F V11@F V11@F V11@F V11@F V11@F V11@F V11@F V11@F V11@F V11@F V11@F V11@F V11@F V11@F V11@F V11@F V11@F V11@F V11@F V11@F V11@F V11@F V11@F V11@F V11@F V11@F V11@F V11@F V11@F V11@F V11@F V11@F V11@F V11@F V11@F V11@F V11@F V11@F V11@F V11@F V11@F V11@F V11@F V11@F V11@F V11@F V11@F V11@F V11@F V11@F V11@F V11@F V11@F V11@F V11@F V11@F V11@F V11@F V11@F V11@F V11@F V11@F V11@F V11@F V11@F V11@F V11@F V11@F V11@F V11@F V11@F V11@F V11@F V11@F V11@F V11@F V11@F V11@F V11@F V11@F V11@F V11@F U11@F U11@F U11@F U11@F U11@F U11@F U11@F U11@F U11@F U11@F U11@F U11@F U11@F U11@F U11@F U11@F U11@F U@F U@F U@F U@F U@F U@F U@F U@F U@F U@F U@F U@F U@F U@F U@F U@F U@F U@F U@F U@F U@F U@F U@F U@F U@F U@F U@F U@F U@F U@F U@F U@F U@F U@F U@F U@F U@F U@F U@F U@F U@F U@F U@F U@F U@F U@F U@F U@F U@F U@F U@F U@F U@F U@F U@F U@F U@F U@F U@F U@F U@F U@F U@F U@F U@F U@F U@F U@F U@F U@F U@F U@F U@F U@F U@F U@F U@F U@F U@F U@F U@F U@F U@F U@F U@F U@F U@F U@F U@F U@F U@F U@F U@F U@F U@F U@F U@F U@F U@F U@F U@F U@F U@F U@F U@F U@F U@F U@F U@F U@F U@F U@F U@F U@F U@F U@F U@F U@F U@F U@F U@F U@F U@F U@F U@F U@F U@F U@F U@F U@F U@F U@F U@F U@F U@F U@F U@F U@F U@F U@F U@F U@F U@F U@F U@F U@F U@F U@F U@F U@F U@F U@F U@F U@F V//>BG V//>BG V//>BG V//>BG V//>BG V//>BG V//>BG V//>BG V//>BG V//>BG V//>BG V//>BG V//>BG V//>BG V//>BG V//>BG V//>BG V//>BG V//>BG V//>BG V//>BG V//>BG V//>BG V//>BG V//>BG V//>BG V//>BG V//>BG V//>BG V//>BG V//>BG V//>BG V//>BG V//>BG V//>BG V//>BG V//>BG V//>BG V//>BG V//>BG V//>BG V//>BG V//>BG V//>BG V//>BG V//>BG V//>BG V//>BG V//>BG V//>BG V//>BG V//>BG V//>BG V//>BG V//>BG V//>BG V//>BG V//>BG V//>BG V//>BG V//>BG V//>BG V//>BG V//>BG V//>BG V//>BG V//>BG V//>BG V//>BG V//>BG V//>BG V//>BG V//>BG V//>BG V//>BG V//>BG V//>BG V//>BG V//>BG V//>BG V//>BG V//>BG V//>BG V//>BG V//>BG V//>BG V//>BG V//>BG V//>BG V//>BG V//>BG V//>BG V//>BG V//>BG V//>BG V//>BG V//>BG V//>BG V//>BG V//>BG V//>BG V//>BG V//>BG V//>BG V//>BG V//>BG V//>BG V//>BG V//>BG V//>BG V//>BG V//>BG V//>BG V//>BG V//>BG V//>BG V//>BG V//>BG V//>BG V//>BG V//>BG V//>BG V//>BG V//>BG V//>BG V//>BG V//>BG V//>BG V//>BG V//>BG V//>BG V//>BG V//>BG V//>BG V//>BG V//>BG V//>BG V//>BG V//>BG V//>BG V//>BG V//>BG V//>BG V//>BG V//>BG V//>BG V//>BG V//>BG V//>BG V//>BG V//>BG V//>BG V//>BG V//>BG V//>BG V//>BG V//>BG V//>BG V//>BG V//>BG V//>BG V//>BG V//>BG V//>BG V//>BG V//>BG V//>BG V//>BG V//>BG V//>BG V//>BG V//>BG V//>BG V//>BG V//>BG V//>BG V//>BG V//>BG V//>BG V//>BG V//>BG V//>BG V//>BG V//>BG V//>BG V//>BG V//>BG V//>BG V//>BG V//>BG V//>BG V//>BG V//>BG V//>BG V//>BG V//>BG V//>BG V//>BG V//>BG V//>BG V//>BG V//>BG V//>BG V//>BG V//>BG V//>BG V//>BG V//>BG V//>BG V//>BG V//>BG V//>BG V//>BG V//>BG V//>BG V//>BG V//>BG V//>BG V//>BG V//>BG V//>BG V//>BG V//>BG V//>BG V//>BG V//>BG V//>BG V//>BG V//>BG V//>BG V//>BG V//>BG V//>BG V//>BG V//>BG V//>BG V//>BG V//>BG V//>BG V//>BG V//>BG V//>BG V//>BG V//>BG V//>BG V//>BG V//>BG V//>BG V//>BG V//>BG V//>BG V//>BG V//>BG V//>BG V//>BG V//>BG V//>BG V//>BG V//>BG V//>BG V//>BG V//>BG V//>BG V//>BG V//>BG V//>BG V//>BG V//>BG V//>BG V//>BG V//>BG V//>BG V//>BG V//>BG V//>BG V//>BG V//>BG V//>BG V//>BG V//>BG V//>BG V//>BG V//>BG V//>BG V//>BG V//>BG V//>BG V//>BG V//>BG V//>BG V//>BG V//>BG V//>BG V//>BG V//>BG V//>BG V//>BG V//>BG V//>BG V//>BG V//>BG V//>BG V//>BG V//>BG V//>BG V//>BG V//>BG V//>BG V//>BG V//>BG V//>BG V//>BG V//>BG V//>BG V//>BG V//>BG V//>BG V//>BG V//>BG V//>BG V//>BG V//>BG V//>BG V//>BG V//>BG V//>BG V//>BG V//>BG V//>BG V//>BG V//>BG V//>BG V//>BG V//>BG V//>BG V//>BG V//>BG V//>BG V//>BG V//>BG V//>BG V//>BG V//>BG V//>BG V//>BG V//>BG V//>BG V//>BG V//>BG V//>BG V//>BG V//>BG V//>BG V//>BG V//>BG V//>BG V//>BG V//>BG V>BG V>BG V>BG V>BG V>BG V>BG V>BG V>BG V>BG V>BG V>BG V>BG V>BG V>BG V>BG V>BG V>BG V>BG V>BG V>BG V>BG V>BG V>BG V>BG V>BG V>BG V>BG V>BG V>BG V>BG V>BG V>BG V>BG V>BG V>BG V>BG V>BG V>BG V>BG V>BG V>BG V>BG V>BG V>BG V>BG V>BG V>BG V>BG V>BG V>BG V>BG V>BG V>BG V>BG V>BG V>BG V>BG V>BG V>BG V>BG V>BG V>BG V>BG V>BG V>BG V>BG V>BG V>BG V>BG V>BG V>BG V>BG V>BG V>BG V>BG V>BG V>BG V>BG V>BG V>BG V>BG V>BG V>BG V>BG V>BG V>BG V>BG V>BG V>BG V>BG V>BG V>BG V>BG V>BG V>BG V>BG V>BG V>BG V>BG V>BG V>BG V>BG V>BG V>BG V>BG V>BG V>BG V>BG V>BG V>BG V>BG V>BG V>BG V>BG V>BG V>BG V>BG V>BG V>BG V>BG V>BG V>BG V>BG V>BG V>BG V>BG V>BG V>BG V>BG V>BG V>BG V>BG V>BG V>BG V>BG V>BG V>BG V>BG V>BG V>BG V>BG V>BG V>BG V>BG V>BG V>BG V>BG V>BG V>BG V>BG V>BG V>BG V>BG V>BG V11@C V11@C V11@C V11@C V11@C V11@C V11@C V11@C V11@C V11@C V11@C V11@C V11@C V11@C V11@C V11@C V11@C V11@C V11@C V11@C V11@C V11@C V11@C V11@C V11@C V11@C V11@C V11@C V11@C V11@C V11@C V11@C V11@C V11@C V11@C V11@C V11@C V11@C V11@C V11@C V11@C V11@C V11@C V11@C V11@C V11@C V11@C V11@C V11@C V11@C V11@C V11@C V11@C V11@C V11@C V11@C V11@C V11@C V11@C V11@C V11@C V11@C V11@C V11@C V11@C V11@C V11@C V11@C V11@C V11@C V11@C V11@C V11@C V11@C V11@C V11@C V11@C V11@C V11@C V11@C V11@C V11@C V11@C V11@C V11@C V11@C V11@C V11@C V11@C V11@C V11@C V11@C V11@C V11@C V11@C V11@C V11@C V11@C V11@C V11@C V11@C V11@C V11@C V11@C V11@C V11@C V11@C V11@C V11@C V11@C V11@C V11@C V11@C V11@C V11@C V11@C V11@C V11@C V11@C V11@C V11@C V11@C V11@C V11@C V11@C V11@C V11@C V11@C U11@C U11@C U11@C U11@C U11@C U11@C U11@C U11@C U11@C U11@C U11@C U11@C U11@C U11@C U11@C U11@C U11@C U11@C U11@C U11@C U11@C U11@C U11@C U11@C U11@C U11@C U11@C U11@C U11@C U11@C U11@C U11@C U11@C U11@C U11@C U11@C U11@C U11@C U11@C U11@C U11@C U11@C U11@C U11@C U11@C U11@C U11@C U11@C U11@C U11@C U11@C U11@C U11@C U11@C U11@C U11@C U11@C U11@C U11@C U11@C U11@C U11@C U11@C U11@C U11@C U11@C U11@C U11@C U11@C U11@C U11@C U11@C U11@C U11@C U11@C U11@C U11@C U11@C U11@C U11@C U11@C U11@C U11@C U11@C U11@C U11@C U11@C U11@C U11@C U11@C U11@C U11@C U11@C U11@C U11@C U11@C U11@C U11@C U11@C U11@C U11@C U11@C U11@C U11@C U11@C U11@C U11@C U11@C U11@C U11@C U11@C U11@C U11@C U11@C U11@C U11@C U11@C U11@C U11@C U11@C U11@C U11@C U11@C U11@C U11@C U11@C U11@C U11@C S11@C S11@C S11@C S11@C S11@C S11@C S11@C S11@C S11@C S11@C S11@C S11@C S11@C S11@C S11@C S11@C S11@C S11@C S11@C S11@C S11@C S11@C S11@C S11@C S11@C S11@C S11@C S11@C S11@C S11@C S11@C S11@C S11@C S11@C S11@C S11@C S11@C S11@C S11@C S11@C S11@C S11@C S11@C S11@C S11@C S11@C S11@C S11@C S11@C S11@C S11@C S11@C S11@C S11@C S11@C S11@C S11@C S11@C S11@C S11@C S11@C S11@C S11@C S11@C S11@C S11@C S11@C S11@C S11@C S11@C S11@C S11@C S11@C S11@C S11@C S11@C S11@C S11@C S11@C S11@C S11@C S11@C S11@C S11@C S11@C S11@C S11@C S11@C S11@C S11@C S11@C S11@C S11@C S11@C S11@C S11@C S11@C S11@C S11@C S11@C S11@C S11@C S@C S@C S@C S@C S@C S@C S@C S@C S@C S@C S@C S@C S@C S@C S@C S@C S@C S@C S@C S@C S@C S@C S@C S@C S@C S@C R@C R@C R@C R@C R@C R@C R@C R@C R@C R@C R@C R@C R@C R@C R@C R@C R@C R@C R@C R@C R@C R@C R@C R@C R@C R@C R@C R@C R@C R@C R@C R@C R@C R@C R@C R@C R@C R@C R@C R@C R@C R@C R@C R@C R@C R@C R@C R@C R@C R@C R@C R@C R@C R@C R@C R@C R@C R@C R@C R@C R@C R@C R@C R@C R@C R@C R@C R@C R@C R@C R@C R@C R@C R@C R@C R@C R@C R@C R@C R@C R@C R@C R@C R@C R@C R@C R@C R@C R@C R@C R@C R@C R@C R@C R@C R@C R@C R@C R@C R@C R@C R@C R@C R@C R@C R@C R@C R@C R@C R@C R@C R@C R@C R@C R@C R@C R@C R@C R@C R@C R@C R@C R@C R@C R@C R@C R@C R@C S22>B S22>B S22>B S22>B S22>B S22>B S22>B S22>B S22>B S22>B S22>B S22>B S22>B S22>B S22>B S22>B S22>B S22>B S22>B S22>B S22>B S22>B S22>B S22>B S22>B S22>B S22>B S22>B S22>B S22>B S22>B S22>B S22>B S22>B S22>B S22>B S22>B S22>B S22>B S22>B S22>B S22>B S22>B S22>B S22>B S22>B S22>B S22>B S22>B S22>B S22>B S22>B S22>B S22>B S22>B S22>B S22>B S22>B S22>B S22>B S22>B S22>B S22>B S22>B S22>B S22>B S22>B S22>B S22>B S22>B S22>B S22>B S22>B S22>B S22>B S22>B S22>B S22>B S22>B S22>B S22>B S22>B S22>B S22>B S22>B S22>B S22>B S22>B S22>B S22>B S22>B S22>B S22>B S22>B S22>B S22>B S22>B S22>B S22>B S22>B S22>B S22>B S22>B S22>B S22>B S22>B S22>B S22>B S22>B S22>B S22>B S22>B S22>B S22>B S22>B S22>B S22>B S22>B S22>B S22>B S22>B S22>B S22>B S22>B S22>B S22>B S22>B S22>B Q22>B Q22>B Q22>B Q22>B Q22>B Q22>B Q22>B Q22>B Q22>B Q22>B Q22>B Q22>B Q22>B Q22>B Q22>B Q22>B Q22>B Q22>B Q22>B Q22>B Q22>B Q22>B Q22>B Q22>B Q22>B Q22>B Q22>B Q22>B Q22>B Q22>B Q22>B Q22>B Q22>B Q22>B Q22>B Q22>B Q22>B Q22>B Q22>B Q22>B Q22>B Q22>B Q22>B Q22>B Q22>B Q22>B Q22>B Q22>B Q22>B Q22>B Q22>B Q22>B Q22>B Q22>B Q22>B Q22>B Q22>B Q22>B Q22>B Q22>B Q22>B Q22>B Q22>B Q22>B Q22>B Q22>B Q22>B Q22>B Q22>B Q22>B Q22>B Q22>B Q22>B Q22>B Q22>B Q22>B Q22>B Q22>B Q22>B Q22>B Q22>B Q22>B Q22>B Q22>B Q22>B Q22>B Q22>B Q22>B Q22>B Q22>B Q22>B Q22>B Q22>B Q22>B Q22>B Q22>B Q22>B Q22>B Q22>B Q22>B Q22>B Q22>B Q22>B Q22>B Q22>B Q22>B Q22>B Q22>B Q22>B Q22>B Q22>B Q22>B Q22>B Q22>B Q22>B Q22>B Q22>B Q22>B Q22>B Q22>B Q22>B Q22>B Q22>B Q22>B Q22>B Q22>B Q22>B Q22>B O22>B O22>B O22>B O22>B O22>B O22>B O22>B O22>B O22>B O22>B O22>B O22>B O22>B O22>B O22>B O22>B O22>B O22>B O22>B O22>B O22>B O22>B O22>B O22>B O22>B O22>B O22>B O22>B O22>B O22>B O22>B O22>B O22>B O22>B O22>B O22>B O22>B O22>B O22>B O22>B O22>B O22>B O22>B O22>B O22>B O22>B O22>B O22>B O22>B O22>B O22>B O22>B O22>B O22>B O22>B O22>B O22>B O22>B O22>B O22>B O22>B O22>B O22>B O22>B O22>B O22>B O22>B O22>B O22>B O22>B O22>B O22>B O22>B O22>B O22>B O22>B O22>B O22>B O22>B O22>B O22>B O22>B O22>B O22>B O22>B O22>B O22>B O22>B O22>B O22>B O22>B O22>B O22>B O22>B O22>B O22>B O22>B O22>B O22>B O22>B O22>B O22>B O>B O>B O>B O>B O>B O>B O>B O>B O>B O>B O>B O>B O>B O>B O>B O>B O>B O>B O>B O>B O>B O>B O>B O>B O>B O>B N>B N>B N>B N>B N>B N>B N>B N>B N>B N>B N>B N>B N>B N>B N>B N>B N>B N>B N>B N>B N>B N>B N>B N>B N>B N>B N>B N>B N>B N>B N>B N>B N>B N>B N>B N>B N>B N>B N>B N>B N>B N>B N>B N>B N>B N>B N>B N>B N>B N>B N>B N>B N>B N>B N>B N>B N>B N>B N>B N>B N>B N>B N>B N>B N>B N>B N>B N>B N>B N>B N>B N>B N>B N>B N>B N>B N>B N>B N>B N>B N>B N>B N>B N>B N>B N>B N>B N>B N>B N>B N>B N>B N>B N>B N>B N>B N>B N>B N>B N>B N>B N>B N>B N>B N>B N>B N>B N>B N>B N>B N>B N>B N>B N>B N>B N>B N>B N>B N>B N>B N>B N>B N>B N>B N>B N>B N>B N>B O44@CG O44@CG O44@CG O44@CG O44@CG O44@CG O44@CG O44@CG O44@CG O44@CG O44@CG O44@CG O44@CG O44@CG O44@CG O44@CG O44@CG O44@CG O44@CG O44@CG O44@CG O44@CG O44@CG O44@CG O44@CG O44@CG O44@CG O44@CG O44@CG O44@CG O44@CG O44@CG O44@CG O44@CG O44@CG O44@CG O44@CG O44@CG O44@CG O44@CG O44@CG O44@CG O44@CG O44@CG O44@CG O44@CG O44@CG O44@CG O44@CG O44@CG O44@CG O44@CG O44@CG O44@CG O44@CG O44@CG O44@CG O44@CG O44@CG O44@CG O44@CG O44@CG O44@CG O44@CG O44@CG O44@CG O44@CG O44@CG O44@CG O44@CG O44@CG O44@CG O44@CG O44@CG O44@CG O44@CG O44@CG O44@CG O44@CG O44@CG O44@CG O44@CG O44@CG O44@CG O44@CG O44@CG O44@CG O44@CG O44@CG O44@CG O44@CG O44@CG O44@CG O44@CG O44@CG O44@CG O44@CG O44@CG O44@CG O44@CG O44@CG O44@CG O44@CG O44@CG O44@CG O44@CG O44@CG O44@CG O44@CG O44@CG O44@CG O44@CG O44@CG O44@CG O44@CG O44@CG O44@CG O44@CG O44@CG O44@CG O44@CG O44@CG O44@CG O44@CG O44@CG O44@CG O44@CG O44@CG O44@CG O44@CG O44@CG O44@CG O44@CG O44@CG O44@CG O44@CG O44@CG O44@CG O44@CG O44@CG O44@CG O44@CG O44@CG O44@CG O44@CG O44@CG O44@CG O44@CG O44@CG O44@CG O44@CG O44@CG O44@CG O44@CG O44@CG O44@CG O44@CG O44@CG O44@CG O44@CG O44@CG O44@CG O44@CG O44@CG O44@CG O44@CG O44@CG O44@CG O44@CG O44@CG O44@CG O44@CG O44@CG O44@CG O44@CG O44@CG O44@CG O44@CG O44@CG O44@CG O44@CG O44@CG O44@CG O44@CG O44@CG O44@CG O44@CG O44@CG O44@CG O44@CG O44@CG O44@CG O44@CG O44@CG O44@CG O44@CG O44@CG O44@CG O44@CG O44@CG O44@CG O44@CG O44@CG O44@CG O44@CG O44@CG O44@CG O44@CG O44@CG O44@CG O44@CG O44@CG O44@CG O44@CG O44@CG O44@CG O44@CG O44@CG O44@CG O44@CG O44@CG O44@CG O44@CG O44@CG O44@CG O44@CG O44@CG O44@CG O44@CG O44@CG O44@CG O44@CG O44@CG O44@CG O44@CG O44@CG O44@CG O44@CG O44@CG O44@CG O44@CG O44@CG O44@CG O44@CG O44@CG O44@CG O44@CG O44@CG O44@CG O44@CG O44@CG O44@CG O44@CG O44@CG O44@CG O44@CG L44@CG L44@CG L44@CG L44@CG L44@CG L44@CG L44@CG L44@CG L44@CG L44@CG L44@CG L44@CG L44@CG L44@CG L44@CG L44@CG L44@CG L44@CG L44@CG L44@CG L44@CG L44@CG L44@CG L44@CG L44@CG L44@CG L44@CG L44@CG L44@CG L44@CG L44@CG L44@CG L44@CG L44@CG L44@CG L44@CG L44@CG L44@CG L44@CG L44@CG L44@CG L44@CG L44@CG L44@CG L44@CG L44@CG L44@CG L44@CG L44@CG L44@CG L44@CG L44@CG L44@CG L44@CG L44@CG L44@CG L44@CG L44@CG L44@CG L44@CG L44@CG L44@CG L44@CG L44@CG L44@CG L44@CG L44@CG L44@CG L44@CG L44@CG L44@CG L44@CG L44@CG L44@CG L44@CG L44@CG L44@CG L44@CG L44@CG L44@CG L44@CG L44@CG L44@CG L44@CG L44@CG L44@CG L44@CG L44@CG L44@CG L44@CG L44@CG L44@CG L44@CG L44@CG L44@CG L44@CG L44@CG L44@CG L44@CG L44@CG L44@CG L44@CG L@CG L@CG L@CG L@CG L@CG L@CG L@CG L@CG L@CG L@CG L@CG L@CG L@CG L@CG L@CG L@CG L@CG L@CG L@CG L@CG L@CG L@CG L@CG L@CG L@CG L@CG L@CG L@CG L@CG L@CG L@CG L@CG L@CG L@CG L@CG L@CG L@CG L@CG L@CG L@CG L@CG L@CG L@CG L@CG L@CG L@CG L@CG L@CG L@CG L@CG L@CG L@CG L@CG L@CG L@CG L@CG L@CG L@CG L@CG L@CG L@CG L@CG L@CG L@CG L@CG L@CG L@CG L@CG L@CG L@CG L@CG L@CG L@CG L@CG L@CG L@CG L@CG L@CG L@CG L@CG L@CG L@CG L@CG L@CG L@CG L@CG L@CG L@CG L@CG L@CG L@CG L@CG L@CG L@CG L@CG L@CG L@CG L@CG L@CG L@CG L@CG L@CG L@CG L@CG L@CG L@CG L@CG L@CG L@CG L@CG L@CG L@CG L@CG L@CG L@CG L@CG L@CG L@CG L@CG L@CG L@CG L@CG L@CG L@CG L@CG L@CG L@CG L@CG L@CG L@CG L@CG L@CG L@CG L@CG L@CG L@CG L@CG L@CG L@CG L@CG L@CG L@CG L@CG L@CG L@CG L@CG L@CG L@CG L@CG L@CG L@CG L@CG L@CG L@CG J66>BG J66>BG J66>BG J66>BG J66>BG J66>BG J66>BG J66>BG J66>BG J66>BG J66>BG J66>BG J66>BG J66>BG J66>BG J66>BG J66>BG J66>BG J66>BG J66>BG J66>BG J66>BG J66>BG J66>BG J66>BG J66>BG J66>BG J66>BG J66>BG J66>BG J66>BG J66>BG J66>BG J66>BG J66>BG J66>BG J66>BG J66>BG J66>BG J66>BG J66>BG J66>BG J66>BG J66>BG J66>BG J66>BG J66>BG J66>BG J66>BG J66>BG J66>BG J66>BG J66>BG J66>BG J66>BG J66>BG J66>BG J66>BG J66>BG J66>BG J66>BG J66>BG J66>BG J66>BG J66>BG J66>BG J66>BG J66>BG J66>BG J66>BG J66>BG J66>BG J66>BG J66>BG J66>BG J66>BG J66>BG J66>BG J66>BG J66>BG J66>BG J66>BG J66>BG J66>BG J66>BG J66>BG J66>BG J66>BG J66>BG J66>BG J66>BG J66>BG J66>BG J66>BG J66>BG J66>BG J66>BG J66>BG J66>BG J66>BG J66>BG J66>BG J66>BG J66>BG J66>BG J66>BG J66>BG J66>BG J66>BG J66>BG J66>BG J66>BG J66>BG J66>BG J66>BG J66>BG J66>BG J66>BG J66>BG J66>BG J66>BG J66>BG J66>BG J66>BG J66>BG J66>BG J66>BG J66>BG J66>BG J66>BG J66>BG J66>BG J66>BG J66>BG J66>BG J66>BG J66>BG J66>BG J66>BG J66>BG J66>BG J66>BG J66>BG J66>BG J66>BG J66>BG J66>BG J66>BG J66>BG J66>BG J66>BG J66>BG J66>BG J66>BG J66>BG J66>BG J66>BG J66>BG J66>BG J66>BG J66>BG J66>BG J66>BG J66>BG J66>BG J66>BG J66>BG J66>BG J66>BG J66>BG J66>BG J66>BG J66>BG J66>BG J66>BG J66>BG J66>BG J66>BG J66>BG J66>BG J66>BG J66>BG J66>BG J66>BG J66>BG J66>BG J66>BG J66>BG J66>BG J66>BG J66>BG J66>BG J66>BG J66>BG J66>BG J66>BG J66>BG J66>BG J66>BG J66>BG J66>BG J66>BG J66>BG J66>BG J66>BG J66>BG J66>BG J66>BG J66>BG J66>BG J66>BG J66>BG J66>BG J66>BG J66>BG J66>BG J66>BG J66>BG J66>BG J66>BG J66>BG J66>BG J66>BG J66>BG J66>BG J66>BG J66>BG J66>BG J66>BG J66>BG J66>BG J66>BG J66>BG J66>BG J66>BG J66>BG J66>BG J66>BG J66>BG J66>BG J66>BG J66>BG J66>BG J66>BG J66>BG J66>BG J66>BG J66>BG J66>BG J66>BG J66>BG J66>BG J66>BG J66>BG J66>BG J66>BG S66>BG S66>BG S66>BG S66>BG S66>BG S66>BG S66>BG S66>BG S66>BG S66>BG S66>BG S66>BG S66>BG S66>BG S66>BG S66>BG S66>BG S66>BG S66>BG S66>BG S66>BG S66>BG S66>BG S66>BG S66>BG S66>BG S66>BG S66>BG S66>BG S66>BG S66>BG S66>BG S66>BG S66>BG S66>BG S66>BG S66>BG S66>BG S66>BG S66>BG S66>BG S66>BG S66>BG S66>BG S66>BG S66>BG S66>BG S66>BG S66>BG S66>BG S66>BG S66>BG S66>BG S66>BG S66>BG S66>BG S66>BG S66>BG S66>BG S66>BG S66>BG S66>BG S66>BG S66>BG S66>BG S66>BG S66>BG S66>BG S66>BG S66>BG S66>BG S66>BG S66>BG S66>BG S66>BG S66>BG S66>BG S66>BG S66>BG S66>BG S66>BG S66>BG S66>BG S66>BG S66>BG S66>BG S66>BG S66>BG S66>BG S66>BG S66>BG S66>BG S66>BG S66>BG S66>BG S66>BG S66>BG S66>BG S66>BG S66>BG S66>BG S66>BG S>BG S>BG S>BG S>BG S>BG S>BG S>BG S>BG S>BG S>BG S>BG S>BG S>BG S>BG S>BG S>BG S>BG S>BG S>BG S>BG S>BG S>BG S>BG S>BG S>BG S>BG S>BG S>BG S>BG S>BG S>BG S>BG S>BG S>BG S>BG S>BG S>BG S>BG S>BG S>BG S>BG S>BG S>BG S>BG S>BG S>BG S>BG S>BG S>BG S>BG S>BG S>BG S>BG S>BG S>BG S>BG S>BG S>BG S>BG S>BG S>BG S>BG S>BG S>BG S>BG S>BG S>BG S>BG S>BG S>BG S>BG S>BG S>BG S>BG S>BG S>BG S>BG S>BG S>BG S>BG S>BG S>BG S>BG S>BG S>BG S>BG S>BG S>BG S>BG S>BG S>BG S>BG S>BG S>BG S>BG S>BG S>BG S>BG S>BG S>BG S>BG S>BG S>BG S>BG S>BG S>BG S>BG S>BG S>BG S>BG S>BG S>BG S>BG S>BG S>BG S>BG S>BG S>BG S>BG S>BG S>BG S>BG S>BG S>BG S>BG S>BG S>BG S>BG S>BG S>BG S>BG S>BG S>BG S>BG S>BG S>BG S>BG S>BG S>BG S>BG S>BG S>BG S>BG S>BG S>BG S>BG S>BG S>BG S>BG S>BG S>BG S>BG S>BG S>BG I**=@F I**=@F I**=@F I**=@F I**=@F I**=@F I**=@F I**=@F I**=@F I**=@F I**=@F I**=@F I**=@F I**=@F I**=@F I**=@F I**=@F I**=@F I**=@F I**=@F I**=@F I**=@F I**=@F I**=@F I**=@F I**=@F I**=@F I**=@F I**=@F I**=@F I**=@F I**=@F I**=@F I**=@F I**=@F I**=@F I**=@F I**=@F I**=@F I**=@F I**=@F I**=@F I**=@F I**=@F I**=@F I**=@F I**=@F I**=@F I**=@F I**=@F I**=@F I**=@F I**=@F I**=@F I**=@F I**=@F I**=@F I**=@F I**=@F I**=@F I**=@F I**=@F I**=@F I**=@F I**=@F I**=@F I**=@F I**=@F I**=@F I**=@F I**=@F I**=@F I**=@F I**=@F I**=@F I**=@F I**=@F I**=@F I**=@F I**=@F I**=@F I**=@F I**=@F I**=@F I**=@F I**=@F I**=@F I**=@F I**=@F I**=@F I**=@F I**=@F I**=@F I**=@F I**=@F I**=@F I**=@F I**=@F I**=@F I**=@F I**=@F I**=@F I**=@F I**=@F I**=@F I**=@F I**=@F I**=@F I**=@F I**=@F I**=@F I**=@F I**=@F I**=@F I**=@F I**=@F I**=@F I**=@F I**=@F I**=@F I**=@F I**=@F I**=@F I**=@F I**=@F I**=@F I**=@F I**=@F I**=@F I**=@F I**=@F I**=@F I**=@F I**=@F I**=@F I**=@F I**=@F I**=@F I**=@F I**=@F I**=@F I**=@F I**=@F I**=@F I**=@F I**=@F I**=@F I**=@F I**=@F I**=@F I**=@F I**=@F I**=@F I**=@F I**=@F I**=@F I**=@F I**=@F I**=@F I**=@F I**=@F I**=@F I**=@F I**=@F I**=@F I**=@F I**=@F I**=@F I**=@F I**=@F I**=@F I**=@F I**=@F I**=@F I**=@F I**=@F I**=@F I**=@F I**=@F I**=@F I**=@F I**=@F I**=@F I**=@F I**=@F I**=@F I**=@F I**=@F I**=@F I**=@F I**=@F I**=@F I**=@F I**=@F I**=@F I**=@F I**=@F I**=@F I**=@F I**=@F I**=@F I**=@F I**=@F I**=@F I**=@F I**=@F I**=@F I**=@F I**=@F I**=@F I**=@F I**=@F I**=@F I**=@F I**=@F I**=@F I**=@F I**=@F I**=@F I**=@F I**=@F I**=@F I**=@F I**=@F I**=@F I**=@F I**=@F I**=@F I**=@F I**=@F I**=@F I**=@F I**=@F I**=@F I**=@F I**=@F I**=@F I**=@F I**=@F I**=@F I**=@F I**=@F I**=@F I**=@F I**=@F I**=@F I**=@F I**=@F I**=@F I**=@F I**=@F I**=@F I**=@F I**=@F I**=@F I**=@F R**=@F R**=@F R**=@F R**=@F R**=@F R**=@F R**=@F R**=@F R**=@F R**=@F R**=@F R**=@F R**=@F R**=@F R**=@F R**=@F R**=@F R**=@F R**=@F R**=@F R**=@F R**=@F R**=@F R**=@F R**=@F R**=@F R**=@F R**=@F R**=@F R**=@F R**=@F R**=@F R**=@F R**=@F R**=@F R**=@F R**=@F R**=@F R**=@F R**=@F R**=@F R**=@F R**=@F R**=@F R**=@F R**=@F R**=@F R**=@F R**=@F R**=@F R**=@F R**=@F R**=@F R**=@F R**=@F R**=@F R**=@F R**=@F R**=@F R**=@F R**=@F R**=@F R**=@F R**=@F R**=@F R**=@F R**=@F R**=@F R**=@F R**=@F R**=@F R**=@F R**=@F R**=@F R**=@F R**=@F R**=@F R**=@F R**=@F R**=@F R**=@F R**=@F R**=@F R**=@F R**=@F R**=@F R**=@F R**=@F R**=@F R**=@F R**=@F R**=@F R**=@F R**=@F R**=@F R**=@F R**=@F R**=@F R**=@F R**=@F R**=@F R**=@F R=@F R=@F R=@F R=@F R=@F R=@F R=@F R=@F R=@F R=@F R=@F R=@F R=@F R=@F R=@F R=@F R=@F R=@F R=@F R=@F R=@F R=@F R=@F R=@F R=@F R=@F R=@F R=@F R=@F R=@F R=@F R=@F R=@F R=@F R=@F R=@F R=@F R=@F R=@F R=@F R=@F R=@F R=@F R=@F R=@F R=@F R=@F R=@F R=@F R=@F R=@F R=@F R=@F R=@F R=@F R=@F R=@F R=@F R=@F R=@F R=@F R=@F R=@F R=@F R=@F R=@F R=@F R=@F R=@F R=@F R=@F R=@F R=@F R=@F R=@F R=@F R=@F =@F =@F =@F =@F =@F =@F =@F =@F =@F =@F =@F =@F =@F =@F =@F =@F =@F =@F =@F =@F =@F =@F =@F =@F =@F =@F =@F =@F =@F =@F =@F =@F =@F =@F =@F =@F =@F =@F =@F =@F =@F =@F =@F =@F =@F =@F =@F =@F =@F =@F =@F =@F =@F =@F =@F =@F =@F =@F =@F =@F =@F =@F =@F =@F =@F =@F =@F =@F =@F =@F =@F =@F =@F =@F =@F =@F =@F G/6;>/ G/6;>/ G/6;>/ G/6;>/ G/6;>/ G/6;>/ G/6;>/ G/6;>/ G/6;>/ G/6;>/ G/6;>/ G/6;>/ G/6;>/ G/6;>/ G/6;>/ G/6;>/ G/6;>/ G/6;>/ G/6;>/ G/6;>/ G/6;>/ G/6;>/ G/6;>/ G/6;>/ G/6;>/ G/6;>/ G/6;>/ G/6;>/ G/6;>/ G/6;>/ G/6;>/ G/6;>/ G/6;>/ G/6;>/ G/6;>/ G/6;>/ G/6;>/ G/6;>/ G/6;>/ G/6;>/ G/6;>/ G/6;>/ G/6;>/ G/6;>/ G/6;>/ G/6;>/ G/6;>/ G/6;>/ G/6;>/ G/6;>/ G/6;>/ G/6;>/ G/6;>/ G/6;>/ G/6;>/ G/6;>/ G/6;>/ G/6;>/ G/6;>/ G/6;>/ G/6;>/ G/6;>/ G/6;>/ G/6;>/ G/6;>/ G/6;>/ G/6;>/ G/6;>/ G/6;>/ G/6;>/ G/6;>/ G/6;>/ G/6;>/ G/6;>/ G/6;>/ G/6;>/ G/6;>/ G/6;>/ G/6;>/ G/6;>/ G/6;>/ G/6;>/ G/6;>/ G/6;>/ G/6;>/ G/6;>/ G/6;>/ G/6;>/ G/6;>/ G/6;>/ G/6;>/ G/6;>/ G/6;>/ G/6;>/ G/6;>/ G/6;>/ G/6;>/ G/6;>/ G/6;>/ G/6;>/ G/6;>/ G/6;>/ G/6;>/ G/6;>/ G/6;>/ G/6;>/ G/6;>/ G/6;>/ G/6;>/ G/6;>/ G/6;>/ G/6;>/ G/6;>/ G/6;>/ G/6;>/ G/6;>/ G/6;>/ G/6;>/ G/6;>/ G/6;>/ G/6;>/ G/6;>/ G/6;>/ G/6;>/ G/6;>/ G/6;>/ G/6;>/ G/6;>/ G/6;>/ G/6;>/ G/6;>/ G/6;>/ G/6;>/ G/6;>/ G/6;>/ G/6;>/ G/6;>/ G/6;>/ G/6;>/ G/6;>/ G/6;>/ G/6;>/ G/6;>/ G/6;>/ G/6;>/ G/6;>/ G/6;>/ G/6;>/ G/6;>/ G/6;>/ G/6;>/ G/6;>/ G/6;>/ G/6;>/ G/6;>/ G/6;>/ G/6;>/ G/6;>/ G/6;>/ G/6;>/ G/6;>/ G/6;>/ G/6;>/ G/6;>/ G/6;>/ G/6;>/ G/6;>/ G/6;>/ G/6;>/ G/6;>/ G/6;>/ G/6;>/ G/6;>/ G/6;>/ G/6;>/ G/6;>/ G/6;>/ G/6;>/ G/6;>/ G/6;>/ G/6;>/ G/6;>/ G/6;>/ G/6;>/ G/6;>/ G/6;>/ G/6;>/ G/6;>/ G/6;>/ G/6;>/ G/6;>/ G/6;>/ G/6;>/ G/6;>/ G/6;>/ G/6;>/ G/6;>/ G/6;>/ G/6;>/ G/6;>/ G/6;>/ G/6;>/ G/6;>/ G/6;>/ G/6;>/ G/6;>/ G/6;>/ G/6;>/ G/6;>/ G/6;>/ G/6;>/ G/6;>/ G/6;>/ G/6;>/ G/6;>/ G/6;>/ G/6;>/ G/6;>/ G/6;>/ G/6;>/ G/6;>/ G/6;>/ G/6;>/ G/6;>/ G/6;>/ G/6;>/ G/6;>/ G/6;>/ G/6;>/ G/6;>/ G/6;>/ G/6;>/ G/6;>/ G/6;>/ G/6;>/ G/6;>/ G/6;>/ G/6;>/ G/6;>/ G/6;>/ G/6;>/ G/6;>/ G/6;>/ G/6;>/ G/6;>/ G/6;>/ G/6;>/ G/6;>/ G/6;>/ G/6;>/ G/6;>/ G/6;>/ G/6;>/ G/6;>/ G/6;>/ G/6;>/ G/6;>/ G/6;>/ G/6;>/ G/6;>/ G/6;>/ G/6;>/ G/6;>/ G/6;>/ G/6;>/ G/6;>/ G/6;>/ G/6;>/ G/6;>/ G/6;>/ G/6;>/ G/6;>/ G/6;>/ G/6;>/ G/6;>/ G/6;>/ G/6;>/ G/6;>/ G/6;>/ G/6;>/ G/6;>/ G/6;>/ G/6;>/ G/6;>/ G/6;>/ G/6;>/ G/6;>/ G/6;>/ G/6;>/ G/6;>/ G/6;>/ G/6;>/ G/6;>/ G/6;>/ G/6;>/ G/6;>/ G/6;>/ G/6;>/ G/6;>/ G/6;>/ G/6;>/ G/6;>/ G/6;>/ G/6;>/ G/6;>/ G/6;>/ G/6;>/ G/6;>/ G/6;>/ G/6;>/ G/6;>/ G/6;>/ G/6;>/ G/6;>/ G/6;>/ G/6;>/ G/6;>/ G/6;>/ G/6;>/ G/6;>/ G/6;>/ G/6;>/ G/6;>/ G/6;>/ G/6;>/ G/6;>/ G/6;>/ G/6;>/ G/6;>/ G/6;>/ G/6;>/ G/6;>/ G/6;>/ G/6;>/ G/6;>/ G/6;>/ G/6;>/ G/6;>/ G/6;>/ G/6;>/ G/6;>/ G/6;>/ G/6;>/ G/6;>/ G/6;>/ G/6;>/ G/6;>/ G/6;>/ G/6;>/ G/6;>/ G/6;>/ G/6;>/ G/6;>/ G/6;>/ G/6;>/ G/6;>/ G/6;>/ G/6;>/ G/6;>/ G/6;>/ G/6;>/ G/6;>/ G/6;>/ G/6;>/ G/6;>/ G/6;>/ G/6;>/ G/6;>/ G/6;>/ G/6;>/ G/6;>/ G/6;>/ G/6;>/ G/6;>/ G/6;>/ G/6;>/ G/6;>/ G/6;>/ G/6;>/ G/6;>/ G/6;>/ G/6;>/ G/6;>/ G/6;>/ G/6;>/ G/6;>/ G/6;>/ G/6;>/ G/6;>/ G/6;>/ G/6;>/ G/6;>/ G/6;>/ G/6;>/ G/6;>/ G/6;>/ G/6;>/ G/6;>/ G/6;>/ G/6;>/ G/6;>/ G/6;>/ G/6;>/ G/6;>/ G/6;>/ G/6;>/ G/6;>/ G/6;>/ G/6;>/ G/6;>/ G/6;>/ G/6;>/ G/6;>/ G/6;>/ G/6;>/ G/6;>/ G/6;>/ G/6;>/ G/6;>/ G/6;>/ G/6;>/ G/6;>/ G/6;>/ G/6;>/ G/6;>/ G/6;>/ G/6;>/ G/6;>/ G/6;>/ G/6;>/ G/6;>/ G/6;>/ G/6;>/ G/6;>/ G/6;>/ G/6;>/ G/6;>/ G/6;>/ G/6;>/ G/6;>/ G/6;>/ G/6;>/ G/6;>/ G/6;>/ G/6;>/ G/6;>/ G/6;>/ G/6;>/ G/6;>/ G/6;>/ G/6;>/ G/6;>/ G/6;>/ G/6;>/ G/6;>/ G/6;>/ G/6;>/ G/6;>/ G/6;>/ G/6;>/ G/6;>/ G/6;>/ G/6;>/ G/6;>/ G/6;>/ G/6;>/ G/6;>/ G/6;>/ G/6;>/ G/6;>/ G/6;>/ G/6;>/ G/6;>/ G/6;>/ G/6;>/ G/6;>/ G/6;>/ G/6;>/ G/6;>/ G/6;>/ G/6;>/ G/6;>/ G/6;>/ G/6;>/ G/6;>/ G/6;>/ G/6;>/ G/6;>/ G/6;>/ G/6;>/ G/6;>/ G/6;>/ G/6;>/ G/6;>/ G/6;>/ G/6;>/ G/6;>/ G/6;>/ G/6;>/ G/6;>/ G/6;>/ G/6;>/ G/6;>/ G/6;>/ G/6;>/ G/6;>/ G/6;>/ G/6;>/ G/6;>/ G/6;>/ G/6;>/ G/6;>/ G/6;>/ G/6;>/ G/6;>/ G/6;>/ G/6;>/ G/6;>/ G/6;>/ G/6;>/ G/6;>/ G/6;>/ G/6;>/ G/6;>/ G/6;>/ G/6;>/ G/6;>/ G/6;>/ G/6;>/ G/6;>/ G/6;>/ G/6;>/ G/6;>/ G/6;>/ G/6;>/ G/6;>/ G/6;>/ G/6;>/ G/6;>/ G/6;>/ G/6;>/ G/6;>/ G/6;>/ G/6;>/ G/6;>/ G/6;>/ G/6;>/ G/6;>/ G/6;>/ G/6;>/ G/6;>/ G/6;>/ G/6;>/ G/6;>/ G/6;>/ G/6;>/ G/6;>/ G/6;>/ G/6;>/ G/6;>/ G/6;>/ G/6;>/ G/6;>/ G/6;>/ G/6;>/ G/6;>/ G/6;>/ G/6;>/ G/6;>/ G/6;>/ G/6;>/ G/6;>/ G/6;>/ G/6;>/ G/6;>/ G/6;>/ G/6;>/ G/6;>/ G/6;>/ G/6;>/ G/6;>/ G/6;>/ G/6;>/ G/6;>/ G/6;>/ G/6;>/ G/6;>/ G/6;>/ G/6;>/ G/6;>/ G/6;>/ G/6;>/ G/6;>/ G/6;>/ G/6;>/ G/6;>/ G/6;>/ G/6;>/ G/6;>/ G/6;>/ G/6;>/ G/6;>/ G/6;>/ G/6;>/ G/6;>/ G/6;>/ G/6;>/ G/6;>/ G/6;>/ G/6;>/ G/6;>/ G/6;>/ G/6;>/ G/6;>/ G/6;>/ G/6;>/ G/6;>/ G/6;>/ G/6;>/ G/6;>/ G/6;>/ G/6;>/ G/6;>/ G/6;>/ G/6;>/ G/6;>/ G/6;>/ G/6;>/ G/6;>/ G/6;>/ G/6;>/ G/6;>/ G/6;>/ G/6;>/ G/6;>/ G/6;>/ G/6;>/ G/6;>/ G/6;>/ G/6;>/ G/6;>/ G/6;>/ G/6;>/ G/6;>/ G/6;>/ G/6;>/ G/6;>/ G/6;>/ G/6;>/ G/6;>/ G/6;>/ G/6;>/ G/6;>/ G/6;>/ G/6;>/ G/6;>/ G/6;>/ G/6;>/ G/6;>/ G/6;>/ G/6;>/ G/6;>/ G/6;>/ G/6;>/ G/6;>/ G/6;>/ G/6;>/ G/6;>/ G/6;>/ G/6;>/ G/6;>/ G/6;>/ G/6;>/ G/6;>/ G/6;>/ G/6;>/ G/6;>/ G/6;>/ G/6;>/ G/6;>/ G/6;>/ G/6;>/ G/6;>/ G/6;>/ G/6;>/ G/6;>/ G/6;>/ G/6;>/ G/6;>/ G/6;>/ G/6;>/ G/6;>/ G/6;>/ G/6;>/ G/6;>/ G/6;>/ G/6;>/ G/6;>/ G/6;>/ G/6;>/ G/6;>/ G/6;>/ G/6;>/ G/6;>/ G/6;>/ G/6;>/ G/6;>/ G/6;>/ G/6;>/ G/6;>/ G/6;>/ G/6;>/ G/6;>/ G/6;>/ G/6;>/ G/6;>/ G/6;>/ G/6;>/ G/6;>/ G/6;>/ G/6;>/ G/6;>/ G/6;>/ G/6;>/ G/6;>/ G/6;>/ G/6;>/ G/6;>/ G/6;>/ G/6;>/ G/6;>/ G/6;>/ G/6;>/ G/6;>/ G/6;>/ G/6;>/ G/6;>/ G/6;>/ G/6;>/ G/6;>/ G/6;>/ G/6;>/ G/6;>/ G/6;>/ G/6;>/ G/6;>/ G/6;>/ G/6;>/ G/6;>/ G/6;>/ G/6;>/ G/6;>/ G/6;>/ G/6;>/ G/6;>/ G/6;>/ G/6;>/ G/6;>/ G/6;>/ G/6;>/ G/6;>/ G/6;>/ G/6;>/ G/6;>/ G/6;>/ G/6;>/ G/6;>/ G/6;>/ G/6;>/ G/6;>/ G/6;>/ G/6;>/ G/6;>/ G/6;>/ G/6;>/ G/6;>/ G/6;>/ G/6;>/ G/6;>/ G/6;>/ G/6;>/ G/6;>/ G/6;>/ G/6;>/ G/6;>/ G/6;>/ G/6;>/ G/6;>/ G/6;>/ G/6;>/ G/6;>/ G/6;>/ G/6;>/ G/6;>/ G/6;>/ G/6;>/ G/6;>/ G/6;>/ G/6;>/ G/6;>/ G/6;>/ G/6;>/ G/6;>/ G/6;>/ G/6;>/ G/6;>/ G/6;>/ G/6;>/ G/6;>/ G/6;>/ G/6;>/ G/6;>/ G/6;>/ G/6;>/ G/6;>/ G/6;>/ G/6;>/ G/6;>/ G/6;>/ G/6;>/ G/6;>/ G/6;>/ G/6;>/ G/6;>/ G/6;>/ G/6;>/ G/6;>/ G/6;>/ G/6;>/ G/6;>/ G/6;>/ G/6;>/ G/6;>/ G/6;>/ G/6;>/ G/6;>/ G/6;>/ G/6;>/ G/6;>/ G/6;>/ G/6;>/ G/6;>/ G/6;>/ G/6;>/ G/6;>/ G/6;>/ G/6;>/ G/6;>/ G/6;>/ G/6;>/ G/6;>/ G/6;>/ G/6;>/ G/6;>/ G/6;>/ G/6;>/ G/6;>/ G/6;>/ G/6;>/ G/6;>/ G/6;>/ G/6;>/ G/6;>/ G/6;>/ G/6;>/ G/6;>/ G/6;>/ G/6;>/ G/6;>/ G/6;>/ G/6;>/ G/6;>/ G/6;>/ G/6;>/ G/6;>/ G/6;>/ G/6;>/ G/6;>/ G/6;>/ G/6;>/ G/6;>/ G/6;>/ G/6;>/ G/6;>/ G/6;>/ G/6;>/ G/6;>/ G/6;>/ G/6;>/ G/6;>/ G/6;>/ G/6;>/ G/6;>/ G/6;>/ G/6;>/ G/6;>/ G/6;>/ G/6;>/ G/6;>/ G/6;>/ G/6;>/ G/6;>/ G/6;>/ G/6;>/ G/6;>/ G/6;>/ G/6;>/ G/6;>/ G/6;>/ G/6;>/ G/6;>/ G/6;>/ G/6;>/ G/6;>/ G/6;>/ G/6;>/ G/6;>/ G/6;>/ G/6;>/ G/6;>/ G/6;>/ G/6;>/ G/6;>/ G/6;>/ G/6;>/ G/6;>/ G/6;>/ G/6;>/ G/6;>/ G/6;>/ G/6;>/ G/6;>/ G/6;>/ G/6;>/ G/6;>/ G/6;>/ G/6;>/ G/6;>/ G/6;>/ G/6;>/ G/6;>/ G/6;>/ G/6;>/ G/6;>/ G/6;>/ G/6;>/ G/6;>/ G/6;>/ G/6;>/ G/6;>/ G/6;>/ G/6;>/ G/6;>/ G/6;>/ G/6;>/ G/6;>/ G/6;>/ G/6;>/ G/6;>/ G/6;>/ G/6;>/ G/6;>/ G/6;>/ G/6;>/ G/6;>/ G/6;>/ G/6;>/ G/6;>/ G/6;>/ G/6;>/ G/6;>/ G/6;>/ G/6;>/ G/6;>/ G/6;>/ G/6;>/ G/6;>/ G/6;>/ G/6;>/ G/6;>/ G/6;>/ G/6;>/ G/6;>/ G/6;>/ G/6;>/ G/6;>/ G/6;>/ G/6;>/ G/6;>/ G/6;>/ G/6;>/ G/6;>/ G/6;>/ G/6;>/ G/6;>/ G/6;>/ G/6;>/ G/6;>/ G/6;>/ G/6;>/ G/6;>/ G/6;>/ G/6;>/ G/6;>/ G/6;>/ G/6;>/ G/6;>/ G/6;>/ G/6;>/ G/6;>/ G/6;>/ G/6;>/ G/6;>/ G/6;>/ G/6;>/ G/6;>/ G/6;>/ G/6;>/ G/6;>/ G/6;>/ G/6;>/ G/6;>/ G/6;>/ G/6;>/ G/6;>/ G/6;>/ G/6;>/ G/6;>/ G/6;>/ G/6;>/ G/6;>/ G/6;>/ G/6;>/ G/6;>/ G/6;>/ G/6;>/ G/6;>/ G/6;>/ G/6;>/ G/6;>/ G/6;>/ G/6;>/ G/6;>/ G/6;>/ G/6;>/ G/6;>/ G/6;>/ G/6;>/ G/6;>/ G/6;>/ G/6;>/ G/6;>/ G/6;>/ G/6;>/ G/6;>/ G/6;>/ G/6;>/ G/6;>/ G/6;>/ G/6;>/ G/6;>/ G/6;>/ G/6;>/ G/6;>/ G/6;>/ G/6;>/ G/6;>/ G/6;>/ G/6;>/ G/6;>/ G/6;>/ G/6;>/ G/6;>/ G/6;>/ G/6;>/ G/6;>/ G/6;>/ G/6;>/ G/6;>/ G/6;>/ G/6;>/ G/6;>/ G/6;>/ G/6;>/ G/6;>/ G/6;>/ G/6;>/ G/6;>/ G/6;>/ G/6;>/ G/6;>/ G/6;>/ G/6;>/ G/6;>/ G/6;>/ G/6;>/ G/6;>/ G/6;>/ G/6;>/ G/6;>/ G/6;>/ G/6;>/ G/6;>/ G/6;>/ G/6;>/ G/6;>/ G/6;>/ G/6;>/ G/6;>/ G/6;>/ G/6;>/ G/6;>/ G/6;>/ G/6;>/ G/6;>/ G/6;>/ G/6;>/ G/6;>/ G/6;>/ G/6;>/ G/6;>/ G/6;>/ G/6;>/ G/6;>/ G/6;>/ G/6;>/ G/6;>/ G/6;>/ G/6;>/ G/6;>/ G/6;>/ G/6;>/ G/6;>/ G/6;>/ G/6;>/ G/6;>/ G/6;>/ G/6;>/ G/6;>/ G/6;>/ G/6;>/ G/6;>/ G/6;>/ G/6;>/ G/6;>/ G/6;>/ G/6;>/ G/6;>/ G/6;>/ G/6;>/ G/6;>/ G/6;>/ G/6;>/ G/6;>/ G/6;>/ G/6;>/ G/6;>/ G/6;>/ G/6;>/ G/6;>/ G/6;>/ G/6;>/ G/6;>/ G/6;>/ G/6;>/ G/6;>/ G/6;>/ G/6;>/ G/6;>/ G/6;>/ G/6;>/ G/6;>/ G/6;>/ G/6;>/ G/6;>/ G/6;>/ G/6;>/ G/6;>/ G/6;>/ G/6;>/ G/6;>/ G/6;>/ G/6;>/ G/6;>/ G/6;>/ G/6;>/ G/6;>/ G/6;>/ G/6;>/ G/6;>/ G/6;>/ G/6;>/ G/6;>/ G/6;>/ G/6;>/ G/6;>/ G/6;>/ G/6;>/ G/6;>/ G/6;>/ G/6;>/ G/6;>/ G/6;>/ G/6;>/ G/6;>/ G/6;>/ G/6;>/ G/6;>/ G/6;>/ G/6;>/ G/6;>/ G/6;>/ G/6;>/ G/6;>/ G/6;>/ G/6;>/ G/6;>/ G/6;>/ G/6;>/ G/6;>/ G/6;>/ G/6;>/ G/6;>/ G/6;>/ G/6;>/ G/6;>/ G/6;>/ G/6;>/ G/6;>/ G/6;>/ G/6;>/ G/6;>/ G/6;>/ G/6;>/ G/6;>/ G/6;>/ G/6;>/ G/6;>/ G/6;>/ G/6;>/ G/6;>/ G/6;>/ G/6;>/ G/6;>/ G/6;>/ G/6;>/ G/6;>/ G/6;>/ G/6;>/ G/6;>/ G/6;>/ G/6;>/ G/6;>/ G/6;>/ G/6;>/ G/6;>/ G/6;>/ G/6;>/ G/6;>/ G/6;>/ G/6;>/ G/6;>/ G/6;>/ G/6;>/ G/6;>/ G/6;>/ G/6;>/ G/6;>/ G/6;>/ G/6;>/ G/6;>/ G/6;>/ G/6;>/ G/6;>/ G/6;>/ G/6;>/ G/6;>/ G/6;>/ G/6;>/ G/6;>/ G/6;>/ G/6;>/ G/6;>/ G/6;>/ G/6;>/ G/6;>/ G/6;>/ G/6;>/ G/6;>/ G/6;>/ G/6;>/ G/6;>/ G/6;>/ G/6;>/ G/6;>/ G/6;>/ G/6;>/ G/6;>/ G/6;>/ G/6;>/ G/6;>/ G/6;>/ G/6;>/ G/6;>/ G/6;>/ G/6;>/ G/6;>/ G/6;>/ G/6;>/ G/6;>/ G/6;>/ G/6;>/ G/6;>/ G/6;>/ G/6;>/ G/6;>/ G/6;>/ G/6;>/ G/6;>/ G/6;>/ G/6;>/ G/6;>/ G/6;>/ G/6;>/ G/6;>/ G/6;>/ G/6;>/ G/6;>/ G/6;>/ G/6;>/ G/6;>/ G/6;>/ G/6;>/ G/6;>/ G/6;>/ G/6;>/ G/6;>/ G/6;>/ G/6;>/ G/6;>/ G/6;>/ G/6;>/ G/6;>/ G/6;>/ G/6;>/ G/6;>/ G/6;>/ G/6;>/ G/6;>/ G/6;>/ G/6;>/ G/6;>/ G/6;>/ G/6;>/ G/6;>/ G/6;>/ G/6;>/ G/6;>/ G/6;>/ G/6;>/ G/6;>/ G/6;>/ G/6;>/ G/6;>/ G/6;>/ G/6;>/ G/6;>/ G/6;>/ G/6;>/ G/6;>/ G/6;>/ G/6;>/ G/6;>/ G/6;>/ G/6;>/ G/6;>/ G/6;>/ G/6;>/ G/6;>/ G/6;>/ G/6;>/ G/6;>/ G/6;>/ G/6;>/ G/6;>/ G/6;>/ G/6;>/ G/6;>/ G/6;>/ G/6;>/ G/6;>/ G/6;>/ G/6;>/ G/6;>/ G/6;>/ G/6;>/ G/6;>/ G/6;>/ G/6;>/ G/6;>/ G/6;>/ G/6;>/ G/6;>/ G/6;>/ G/6;>/ G/6;>/ G/6;>/ G/6;>/ G/6;>/ G/6;>/ G/6;>/ G/6;>/ G/6;>/ G/6;>/ G/6;>/ G/6;>/ G/6;>/ G/6;>/ G/6;>/ G/6;>/ G/6;>/ G/6;>/ G/6;>/ G/6;>/ G/6;>/ G/6;>/ G/6;>/ G/6;>/ G/6;>/ G/6;>/ G/6;>/ G/6;>/ G/6;>/ G/6;>/ G/6;>/ G/6;>/ G/6;>/ G/6;>/ G/6;>/ G/6;>/ G/6;>/ G/6;>/ G/6;>/ G/6;>/ G/6;>/ G/6;>/ G/6;>/ G/6;>/ G/6;>/ G/6;>/ G/6;>/ G/6;>/ G/6;>/ G/6;>/ G/6;>/ G/6;>/ G/6;>/ G/6;>/ G/6;>/ G/6;>/ G/6;>/ G/6;>/ G/6;>/ G/6;>/ G/6;>/ G/6;>/ G/6;>/ G/6;>/ G/6;>/ G/6;>/ G/6;>/ G/6;>/ G/6;>/ G/6;>/ G/6;>/ G/6;>/ G/6;>/ G/6;>/ G/6;>/ G/6;>/ G/6;>/ G/6;>/ G/6;>/ G/6;>/ G/6;>/ G/6;>/ G/6;>/ G/6;>/ G/6;>/ G/6;>/ G/6;>/ G/6;>/ G/6;>/ G/6;>/ G/6;>/ G/6;>/ G/6;>/ G/6;>/ G/6;>/ G/6;>/ G/6;>/ G/6;>/ G/6;>/ G/6;>/ G/6;>/ G/6;>/ G/6;>/ G/6;>/ G/6;>/ G/6;>/ G/6;>/ G/6;>/ G/6;>/ G/6;>/ G/6;>/ G/6;>/ G/6;>/ G/6;>/ G/6;>/ G/6;>/ G/6;>/ G/6;>/ G/6;>/ G/6;>/ G/6;>/ G/6;>/ G/6;>/ G/6;>/ G/6;>/ G/6;>/ G/6;>/ G/6;>/ G/6;>/ G/6;>/ G/6;>/ G/6;>/ G/6;>/ G/6;>/ G/6;>/ G/6;>/ G/6;>/ G/6;>/ G/6;>/ G/6;>/ G/6;>/ G/6;>/ G/6;>/ G/6;>/ G/6;>/ G/6;>/ G/6;>/ G/6;>/ G/6;>/ G/6;>/ G/6;>/ G/6;>/ G/6;>/ G/6;>/ G/6;>/ G/6;>/ G/6;>/ G/6;>/ G/6;>/ G/6;>/ G/6;>/ G/6;>/ G/6;>/ G/6;>/ G/6;>/ G/6;>/ G/6;>/ G/6;>/ G/6;>/ G/6;>/ G/6;>/ G/6;>/ G/6;>/ G/6;>/ G/6;>/ G/6;>/ G/6;>/ G/6;>/ G/6;>/ G/6;>/ G/6;>/ G/6;>/ G/6;>/ G/6;>/ G/6;>/ G/6;>/ G/6;>/ G/6;>/ G/6;>/ G/6;>/ G/6;>/ G/6;>/ G/6;>/ G/6;>/ G/6;>/ G/6;>/ G/6;>/ G/6;>/ G/6;>/ G/6;>/ G/6;>/ G/6;>/ G/6;>/ G/6;>/ G/6;>/ G/6;>/ G/6;>/ G/6;>/ G/6;>/ G/6;>/ G/6;>/ G/6;>/ G/6;>/ G/6;>/ G/6;>/ G/6;>/ G/6;>/ G/6;>/ G/6;>/ G/6;>/ G/6;>/ G/6;>/ G/6;>/ G/6;>/ G/6;>/ G/6;>/ G/6;>/ G/6;>/ G/6;>/ G/6;>/ G/6;>/ G/6;>/ G/6;>/ G/6;>/ G/6;>/ G/6;>/ G/6;>/ G/6;>/ G/6;>/ G/6;>/ G/6;>/ G/6;>/ G/6;>/ G/6;>/ G/6;>/ G/6;>/ G/6;>/ G/6;>/ G/6;>/ G/6;>/ G/6;>/ G/6;>/ G/6;>/ G/6;>/ G/6;>/ G/6;>/ G/6;>/ G/6;>/ G/6;>/ G/6;>/ G/6;>/ G/6;>/ G/6;>/ G/6;>/ G/6;>/ G/6;>/ G/6;>/ G/6;>/ G/6;>/ G/6;>/ G/6;>/ G/6;>/ G/6;>/ G/6;>/ G/6;>/ G/6;>/ G/6;>/ G/6;>/ G/6;>/ G/6;>/ G/6;>/ G/6;>/ G/6;>/ G/6;>/ G/6;>/ G/6;>/ G/6;>/ G/6;>/ G/6;>/ G/6;>/ G/6;>/ G/6;>/ G/6;>/ G/6;>/ G/6;>/ G/6;>/ G/6;>/ G/6;>/ G/6;>/ G/6;>/ G/6;>/ G/6;>/ G/6;>/ G/6;>/ G/6;>/ G/6;>/ G/6;>/ G/6;>/ G/6;>/ G/6;>/ G/6;>/ G/6;>/ G/6;>/ G/6;>/ G/6;>/ G/6;>/ G/6;>/ G/6;>/ G/6;>/ G/6;>/ G/6;>/ G/6;>/ G/6;>/ G/6;>/ G/6;>/ G/6;>/ G/6;>/ G/6;>/ G/6;>/ G/6;>/ G/6;>/ G/6;>/ G/6;>/ G/6;>/ G/6;>/ G/6;>/ G/6;>/ G/6;>/ G/6;>/ G/6;>/ G/6;>/ G/6;>/ G/6;>/ G/6;>/ G/6;>/ G/6;>/ G/6;>/ G/6;>/ G/6;>/ G/6;>/ G/6;>/ G/6;>/ G/6;>/ G/6;>/ G/6;>/ G/6;>/ G/6;>/ G/6;>/ G/6;>/ G/6;>/ G/6;>/ G/6;>/ G/6;>/ G/6;>/ G/6;>/ G/6;>/ G/6;>/ G/6;>/ G/6;>/ G/6;>/ G/6;>/ G/6;>/ G/6;>/ G/6;>/ G/6;>/ G/6;>/ G/6;>/ G/6;>/ G/6;>/ G/6;>/ G/6;>/ G/6;>/ G/6;>/ G/6;>/ G/6;>/ G/6;>/ G/6;>/ G/6;>/ G/6;>/ G/6;>/ G/6;>/ G/6;>/ G/6;>/ G/6;>/ G/6;>/ G/6;>/ G/6;>/ G/6;>/ G/6;>/ G/6;>/ G/6;>/ G/6;>/ G/6;>/ G/6;>/ G/6;>/ G/6;>/ G/6;>/ G/6;>/ G/6;>/ G/6;>/ G/6;>/ G/6;>/ G/6;>/ G/6;>/ G/6;>/ G/6;>/ G/6;>/ G/6;>/ G/6;>/ G/6;>/ G/6;>/ G/6;>/ G/6;>/ G/6;>/ G/6;>/ G/6;>/ G/6;>/ G/6;>/ G/6;>/ G/6;>/ G/6;>/ G/6;>/ G/6;>/ G/6;>/ G/6;>/ G/6;>/ G/6;>/ G/6;>/ G/6;>/ G/6;>/ G/6;>/ G/6;>/ G/6;>/ G/6;>/ G/6;>/ G/6;>/ G/6;>/ G/6;>/ G/6;>/ G/6;>/ G/6;>/ G/6;>/ G/6;>/ G/6;>/ G/6;>/ G/6;>/ G/6;>/ G/6;>/ G/6;>/ G/6;>/ G/6;>/ G/6;>/ G/6;>/ G/6;>/ G/6;>/ G/6;>/ G/6;>/ G/6;>/ G/6;>/ G/6;>/ G/6;>/ G/6;>/ G/6;>/ G/6;>/ G/6;>/ G/6;>/ G/6;>/ G/6;>/ G/6;>/ G/6;>/ G/6;>/ G/6;>/ G/6;>/ G/6;>/ G/6;>/ G/6;>/ G/6;>/ G/6;>/ G/6;>/ G/6;>/ G/6;>/ G/6;>/ G/6;>/ G/6;>/ G/6;>/ G/6;>/ G/6;>/ G/6;>/ G/6;>/ G/6;>/ G/6;>/ G/6;>/ G/6;>/ G/6;>/ G/6;>/ G/6;>/ G/6;>/ G/6;>/ G/6;>/ G/6;>/ G/6;>/ G/6;>/ G/6;>/ G/6;>/ G/6;>/ G/6;>/ G/6;>/ G/6;>/ G/6;>/ G/6;>/ G/6;>/ G/6;>/ G/6;>/ G/6;>/ G/6;>/ G/6;>/ G/6;>/ G/6;>/ G/6;>/ G/6;>/ G/6;>/ G/6;>/ G/6;>/ G/6;>/ G/6;>/ G/6;>/ G/6;>/ G/6;>/ G/6;>/ G/6;>/ G/6;>/ G/6;>/ G/6;>/ G/6;>/ G/6;>/ G/6;>/ G/6;>/ G/6;>/ G/6;>/ G/6;>/ G/6;>/ G/6;>/ G/6;>/ G/6;>/ G/6;>/ G/6;>/ G/6;>/ G/6;>/ G/6;>/ G/6;>/ G/6;>/ G/6;>/ G/6;>/ G/6;>/ G/6;>/ G/6;>/ G/6;>/ G/6;>/ G/6;>/ G/6;>/ G/6;>/ G/6;>/ G/6;>/ G/6;>/ G/6;>/ G/6;>/ G/6;>/ G/6;>/ G/6;>/ G/6;>/ G/6;>/ G/6;>/ G/6;>/ G/6;>/ G/6;>/ G/6;>/ G/6;>/ G/6;>/ G/6;>/ G/6;>/ G/6;>/ G/6;>/ G/6;>/ G/6;>/ G/6;>/ G/6;>/ G/6;>/ G/6;>/ G/6;>/ G/6;>/ G/6;>/ G/6;>/ G/6;>/ G/6;>/ G/6;>/ G/6;>/ G/6;>/ G/6;>/ G/6;>/ G/6;>/ G/6;>/ G/6;>/ G/6;>/ G/6;>/ G/6;>/ G/6;>/ G/6;>/ G/6;>/ G/6;>/ G/6;>/ G/6;>/ G/6;>/ G/6;>/ G/6;>/ G/6;>/ G/6;>/ G/6;>/ G/6;>/ G/6;>/ G/6;>/ G/6;>/ G/6;>/ G/6;>/ G/6;>/ G/6;>/ G/6;>/ G/6;>/ G/6;>/ G/6;>/ G/6;>/ G/6;>/ G/6;>/ G/6;>/ G/6;>/ G/6;>/ G/6;>/ G/6;>/ G/6;>/ G/6;>/ G/6;>/ G/6;>/ G/6;>/ G/6;>/ G/6;>/ G/6;>/ G/6;>/ G/6;>/ G/6;>/ G/6;>/ G/6;>/ G/6;>/ G/6;>/ G/6;>/ G/6;>/ G/6;>/ G/6;>/ G/6;>/ G/6;>/ G/6;>/ G/6;>/ G/6;>/ G/6;>/ G/6;>/ G/6;>/ G/6;>/ G/6;>/ G/6;>/ G/6;>/ G/6;>/ G/6;>/ G/6;>/ G/6;>/ G/6;>/ G/6;>/ G/6;>/ G/6;>/ G/6;>/ G/6;>/ G/6;>/ G/6;>/ G/6;>/ G/6;>/ G/6;>/ G/6;>/ G/6;>/ G/6;>/ G/6;>/ G/6;>/ G/6;>/ G/6;>/ G/6;>/ G/6;>/ G/6;>/ G/6;>/ G/6;>/ G/6;>/ G/6;>/ G/6;>/ G/6;>/ G/6;>/ G/6;>/ G/6;>/ G/6;>/ G/6;>/ G/6;>/ G/6;>/ G/6;>/ G/6;>/ G/6;>/ G/6;>/ G/6;>/ G/6;>/ G/6;>/ G/6;>/ G/6;>/ G/6;>/ G/6;>/ G/6;>/ G/6;>/ G/6;>/ G/6;>/ G/6;>/ G/6;>/ G/6;>/ G/6;>/ G/6;>/ G/6;>/ G/6;>/ G/6;>/ G/6;>/ G/6;>/ G/6;>/ G/6;>/ G/6;>/ G/6;>/ G/6;>/ G/6;>/ G/6;>/ G/6;>/ G/6;>/ G/6;>/ G/6;>/ G/6;>/ G/6;>/ G/6;>/ G/6;>/ G/6;>/ G/6;>/ G/6;>/ G/6;>/ G/6;>/ G/6;>/ G/6;>/ G/6;>/ G/6;>/ G/6;>/ G/6;>/ G/6;>/ G/6;>/ G/6;>/ G/6;>/ G/6;>/ G/6;>/ G/6;>/ G/6;>/ G/6;>/ G/6;>/ G/6;>/ G/6;>/ G/6;>/ G/6;>/ G/6;>/ G/6;>/ G/6;>/ G/6;>/ G/6;>/ G/6;>/ G/6;>/ G/6;>/ G/6;>/ G/6;>/ G/6;>/ G/6;>/ G/6;>/ G/6;>/ G/6;>/ G/6;>/ G/6;>/ G/6;>/ G/6;>/ G/6;>/ G/6;>/ G/6;>/ G/6;>/ G/6;>/ G/6;>/ G/6;>/ G/6;>/ G/6;>/ G/6;>/ G/6;>/ G/6;>/ G/6;>/ G/6;>/ G/6;>/ G/6;>/ G/6;>/ G/6;>/ G/6;>/ G/6;>/ G/6;>/ G/6;>/ G/6;>/ G/6;>/ G/6;>/ G/6;>/ G/6;>/ G/6;>/ G/6;>/ G/6;>/ G/6;>/ G/6;>/ G/6;>/ G/6;>/ G/6;>/ G/6;>/ G/6;>/ G/6;>/ G/6;>/ G/6;>/ G/6;>/ G/6;>/ G/6;>/ G/6;>/ G/6;>/ G/6;>/ G/6;>/ G/6;>/ G/6;>/ G/6;>/ G/6;>/ G/6;>/ G/6;>/ G/6;>/ G/6;>/ G/6;>/ G/6;>/ G/6;>/ G/6;>/ G/6;>/ G/6;>/ G/6;>/ G/6;>/ G/6;>/ G/6;>/ G/6;>/ G/6;>/ G/6;>/ G/6;>/ G/6;>/ G/6;>/ G/6;>/ G/6;>/ G/6;>/ G/6;>/ G/6;>/ G/6;>/ G/6;>/ G/6;>/ G/6;>/ G/6;>/ G/6;>/ G/6;>/ G/6;>/ G/6;>/ G/6;>/ G/6;>/ G/6;>/ G/6;>/ G/6;>/ G/6;>/ G/6;>/ G/6;>/ G/6;>/ G/6;>/ G/6;>/ G/6;>/ G/6;>/ G/6;>/ G/6;>/ G/6;>/ G/6;>/ G/6;>/ G/6;>/ G/6;>/ G/6;>/ G/6;>/ G/6;>/ G/6;>/ G/6;>/ G/6;>/ G/6;>/ G/6;>/ G/6;>/ G/6;>/ G/6;>/ G/6;>/ G/6;>/ G/6;>/ G/6;>/ G/6;>/ G/6;>/ G/6;>/ G/6;>/ G/6;>/ G/6;>/ G/6;>/ G/6;>/ G/6;>/ G/6;>/ G/6;>/ G/6;>/ G/6;>/ G/6;>/ G/6;>/ G/6;>/ G/6;>/ G/6;>/ G/6;>/ G/6;>/ G/6;>/ G/6;>/ G/6;>/ G/6;>/ G/6;>/ G/6;>/ G/6;>/ G/6;>/ G/6;>/ G/6;>/ G/6;>/ G/6;>/ G/6;>/ G/6;>/ G/6;>/ G/6;>/ G/6;>/ G/6;>/ G/6;>/ G/6;>/ G/6;>/ G/6;>/ G/6;>/ G/6;>/ G/6;>/ G/6;>/ G/6;>/ G/6;>/ G/6;>/ G/6;>/ G/6;>/ G/6;>/ G/6;>/ G/6;>/ G/6;>/ G/6;>/ G/6;>/ G/6;>/ G/6;>/ G/6;>/ G/6;>/ G/6;>/ G/6;>/ G/6;>/ G/6;>/ G/6;>/ G/6;>/ G/6;>/ G/6;>/ G/6;>/ G/6;>/ G/6;>/ G/6;>/ G/6;>/ G/6;>/ G/6;>/ G/6;>/ G/6;>/ G/6;>/ G/6;>/ G/6;>/ G/6;>/ G/6;>/ G/6;>/ G/6;>/ G/6;>/ G/6;>/ G/6;>/ G/6;>/ G/6;>/ G/6;>/ G/6;>/ G/6;>/ G/6;>/ G/6;>/ G/6;>/ G/6;>/ G/6;>/ G/6;>/ G/6;>/ G/6;>/ G/6;>/ G/6;>/ G/6;>/ G/6;>/ G/6;>/ G/6;>/ G/6;>/ G/6;>/ G/6;>/ G/6;>/ G/6;>/ G/6;>/ G/6;>/ G/6;>/ G/6;>/ G/6;>/ G/6;>/ G/6;>/ G/6;>/ G/6;>/ G/6;>/ G/6;>/ G/6;>/ G/6;>/ G/6;>/ G/6;>/ G/6;>/ G/6;>/ G/6;>/ G/6;>/ G/6;>/ G/6;>/ G/6;>/ G/6;>/ G/6;>/ G/6;>/ G/6;>/ G/6;>/ G/6;>/ G/6;>/ G/6;>/ G/6;>/ G/6;>/ G/6;>/ G/6;>/ G/6;>/ G/6;>/ G/6;>/ G/6;>/ G/6;>/ G/6;>/ G/6;>/ G/6;>/ G/6;>/ G/6;>/ G/6;>/ G/6;>/ G/6;>/ G/6;>/ G/6;>/ G/6;>/ G/6;>/ G/6;>/ G/6;>/ G/6;>/ G/6;>/ G/6;>/ G/6;>/ G/6;>/ G/6;>/ G/6;>/ G/6;>/ G/6;>/ G/6;>/ G/6;>/ G/6;>/ G/6;>/ G/6;>/ G/6;>/ G/6;>/ G/6;>/ G/6;>/ G/6;>/ G/6;>/ G/6;>/ G/6;>/ G/6;>/ G/6;>/ G/6;>/ G/6;>/ G/6;>/ G/6;>/ G/6;>/ G/6;>/ G/6;>/ G/6;>/ G/6;>/ G/6;>/ G/6;>/ G/6;>/ G/6;>/ G/6;>/ G/6;>/ G/6;>/ G/6;>/ G/6;>/ G/6;>/ G/6;>/ G/6;>/ G/6;>/ G/6;>/ G/6;>/ G/6;>/ G/6;>/ G/6;>/ G/6;>/ G/6;>/ G/6;>/ G/6;>/ G/6;>/ G/6;>/ G/6;>/ G/6;>/ G/6;>/ G/6;>/ G/6;>/ G/6;>/ G/6;>/ G/6;>/ G/6;>/ G/6;>/ G/6;>/ G/6;>/ G/6;>/ G/6;>/ G/6;>/ G/6;>/ G/6;>/ G/6;>/ G/6;>/ G/6;>/ G/6;>/ G/6;>/ G/6;>/ G/6;>/ G/6;>/ G/6;>/ G/6;>/ G/6;>/ G/6;>/ G/6;>/ G/6;>/ G/6;>/ G/6;>/ G/6;>/ G/6;>/ G/6;>/ G/6;>/ G/6;>/ G/6;>/ G/6;>/ G/6;>/ G/6;>/ G/6;>/ G/6;>/ G/6;>/ G/6;>/ G/6;>/ G/6;>/ G/6;>/ G/6;>/ G/6;>/ G/6;>/ G/6;>/ G/6;>/ G/6;>/ G/6;>/ G/6;>/ G/6;>/ G/6;>/ G/6;>/ G/6;>/ G/6;>/ G/6;>/ G/6;>/ G/6;>/ G/6;>/ G/6;>/ G/6;>/ G/6;>/ G/6;>/ G/6;>/ G/6;>/ G/6;>/ G/6;>/ G/6;>/ G/6;>/ G/6;>/ G/6;>/ G/6;>/ G/6;>/ G/6;>/ G/6;>/ G/6;>/ G/6;>/ G/6;>/ G/6;>/ G/6;>/ G/6;>/ G/6;>/ G/6;>/ G/6;>/ G/6;>/ G/6;>/ G/6;>/ G/6;>/ G/6;>/ G/6;>/ G/6;>/ G/6;>/ G/6;>/ G/6;>/ G/6;>/ G/6;>/ G/6;>/ G/6;>/ G/6;>/ G/6;>/ G/6;>/ G/6;>/ G/6;>/ G/6;>/ G/6;>/ G/6;>/ G/6;>/ G/6;>/ G/6;>/ G/6;>/ G/6;>/ G/6;>/ G/6;>/ G/6;>/ G/6;>/ G/6;>/ G/6;>/ G/6;>/ G/6;>/ G/6;>/ G/6;>/ G/6;>/ G/6;>/ G/6;>/ G/6;>/ G/6;>/ G/6;>/ G/6;>/ G/6;>/ G/6;>/ G/6;>/ G/6;>/ G/6;>/ G/6;>/ G/6;>/ G/6;>/ G/6;>/ G/6;>/ G/6;>/ G/6;>/ G/6;>/ G/6;>/ G/6;>/ G/6;>/ G/6;>/ G/6;>/ G/6;>/ G/6;>/ G/6;>/ G/6;>/ G/6;>/ G/6;>/ G/6;>/ G/6;>/ G/6;>/ G/6;>/ G/6;>/ G/6;>/ G/6;>/ G/6;>/ G/6;>/ G/6;>/ G/6;>/ G/6;>/ G/6;>/ G/6;>/ G/6;>/ G/6;>/ G/6;>/ G/6;>/ G/6;>/ G/6;>/ G/6;>/ G/6;>/ G/6;>/ G/6;>/ G/6;>/ G/6;>/ G/6;>/ G/6;>/ G/6;>/ G/6;>/ G/6;>/ G/6;>/ G/6;>/ G/6;>/ G/6;>/ G/6;>/ G/6;>/ G/6;>/ G/6;>/ G/6;>/ G/6;>/ G/6;>/ G/6;>/ G/6;>/ G/6;>/ G/6;>/ G/6;>/ G/6;>/ G/6;>/ G/6;>/ G/6;>/ G/6;>/ G/6;>/ G/6;>/ G/6;>/ G/6;>/ G/6;>/ G/6;>/ G/6;>/ G/6;>/ G/6;>/ G/6;>/ G/6;>/ G/6;>/ G/6;>/ G/6;>/ G/6;>/ G/6;>/ G/6;>/ G/6;>/ G/6;>/ G/6;>/ G/6;>/ G/6;>/ G/6;>/ G/6;>/ G/6;>/ G/6;>/ G/6;>/ G/6;>/ G/6;>/ G/6;>/ G/6;>/ G/6;>/ G/6;>/ G/6;>/ G/6;>/ G/6;>/ G/6;>/ G/6;>/ G/6;>/ G/6;>/ G/6;>/ G/6;>/ G/6;>/ G/6;>/ G/6;>/ G/6;>/ G/6;>/ G/6;>/ G/6;>/ G/6;>/ G/6;>/ G/6;>/ G/6;>/ G/6;>/ G/6;>/ G/6;>/ G/6;>/ G/6;>/ G/6;>/ G/6;>/ G/6;>/ G/6;>/ G/6;>/ G/6;>/ G/6;>/ G/6;>/ G/6;>/ G/6;>/ G/6;>/ G/6;>/ G/6;>/ G/6;>/ G/6;>/ G/6;>/ G/6;>/ G/6;>/ G/6;>/ G/6;>/ G/6;>/ G/6;>/ G/6;>/ G/6;>/ G/6;>/ G/6;>/ G/6;>/ G/6;>/ G/6;>/ G/6;>/ G/6;>/ G/6;>/ G/6;>/ G/6;>/ G/6;>/ G/6;>/ G/6;>/ G/6;>/ G/6;>/ G/6;>/ G/6;>/ G/6;>/ G/6;>/ G/6;>/ G/6;>/ G/6;>/ G/6;>/ G/6;>/ G/6;>/ G/6;>/ G/6;>/ G/6;>/ G/6;>/ G/6;>/ G/6;>/ G/6;>/ G/6;>/ G/6;>/ G/6;>/ G/6;>/ G/6;>/ G/6;>/ G/6;>/ G/6;>/ G/6;>/ G/6;>/ G/6;>/ G/6;>/ G/6;>/ G/6;>/ G/6;>/ G/6;>/ G/6;>/ G/6;>/ G/6;>/ G/6;>/ G/6;>/ G/6;>/ G/6;>/ G/6;>/ G/6;>/ G/6;>/ G/6;>/ G/6;>/ G/6;>/ G/6;>/ G/6;>/ G/6;>/ G/6;>/ G/6;>/ G/6;>/ G/6;>/ G/6;>/ G/6;>/ G/6;>/ G/6;>/ G/6;>/ G/6;>/ G/6;>/ G/6;>/ G/6;>/ G/6;>/ G/6;>/ G/6;>/ G/6;>/ G/6;>/ G/6;>/ G/6;>/ G/6;>/ G/6;>/ G/6;>/ G/6;>/ G/6;>/ G/6;>/ G/6;>/ G/6;>/ G/6;>/ G/6;>/ G/6;>/ G/6;>/ G/6;>/ G/6;>/ G/6;>/ G/6;>/ G/6;>/ G/6;>/ G/6;>/ G/6;>/ G/6;>/ G/6;>/ G/6;>/ G/6;>/ G/6;>/ G/6;>/ G/6;>/ G/6;>/ G/6;>/ G/6;>/ G/6;>/ G/6;>/ G/6;>/ G/6;>/ G/6;>/ G/6;>/ G/6;>/ G/6;>/ G/6;>/ G/6;>/ G/6;>/ G/6;>/ G/6;>/ G/6;>/ G/6;>/ G/6;>/ G/6;>/ G/6;>/ G/6;>/ G/6;>/ G/6;>/ G/6;>/ G/6;>/ G/6;>/ G/6;>/ G/6;>/ G/6;>/ G/6;>/ G/6;>/ G/6;>/ G/6;>/ G/6;>/ G/6;>/ G/6;>/ G/6;>/ G/6;>/ G/6;>/ G/6;>/ G/6;>/ G/6;>/ G/6;>/ G/6;>/ G/6;>/ G/6;>/ G/6;>/ G/6;>/ G/6;>/ G/6;>/ G/6;>/ G/6;>/ G/6;>/ G/6;>/ G/6;>/ G/6;>/ G/6;>/ G/6;>/ G/6;>/ G/6;>/ G/6;>/ G/6;>/ G/6;>/ G/6;>/ G/6;>/ G/6;>/ G/6;>/ G/6;>/ G/6;>/ G/6;>/ G/6;>/ G/6;>/ G/6;>/ G/6;>/ G/6;>/ G/6;>/ G/6;>/ G/6;>/ G/6;>/ G/6;>/ G/6;>/ G/6;>/ G/6;>/ G/6;>/ G/6;>/ G/6;>/ G/6;>/ G/6;>/ G/6;>/ G/6;>/ G/6;>/ G/6;>/ G/6;>/ G/6;>/ G/6;>/ G/6;>/ G/6;>/ G/6;>/ G/6;>/ G/6;>/ G/6;>/ G/6;>/ G/6;>/ G/6;>/ G/6;>/ G/6;>/ G/6;>/ G/6;>/ G/6;>/ G/6;>/ G/6;>/ G/6;>/ G/6;>/ G/6;>/ G/6;>/ G/6;>/ G/6;>/ G/6;>/ G/6;>/ G/6;>/ G/6;>/  